EXTRACT: program_change channel=0 program=73 time=0
EXTRACT: control_change channel=0 control=7 value=127 time=0
EXTRACT: program_change channel=1 program=0 time=0
EXTRACT: control_change channel=1 control=7 value=127 time=0
EXTRACT: program_change channel=2 program=0 time=0
EXTRACT: control_change channel=2 control=7 value=127 time=0
EXTRACT: program_change channel=3 program=52 time=0
EXTRACT: control_change channel=3 control=7 value=127 time=0
EXTRACT: control_change channel=9 control=7 value=127 time=0
EXTRACT: control_change channel=9 control=7 value=127 time=0
EXTRACT: note_on channel=9 note=41 velocity=127 time=0
EXTRACT: note_on channel=9 note=47 velocity=127 time=0
EXTRACT: program_change channel=4 program=119 time=0
EXTRACT: control_change channel=4 control=7 value=127 time=0
EXTRACT: control_change channel=9 control=7 value=127 time=0
EXTRACT: control_change channel=9 control=7 value=127 time=0
EXTRACT: program_change channel=5 program=50 time=0
EXTRACT: control_change channel=5 control=7 value=127 time=0
EXTRACT: control_change channel=5 control=10 value=64 time=0
EXTRACT: program_change channel=10 program=51 time=0
EXTRACT: control_change channel=10 control=7 value=127 time=0
EXTRACT: control_change channel=10 control=10 value=64 time=0
EXTRACT: program_change channel=6 program=50 time=0
EXTRACT: control_change channel=6 control=7 value=127 time=0
EXTRACT: control_change channel=6 control=10 value=64 time=0
EXTRACT: note_on channel=9 note=41 velocity=0 time=0.060267825000000004
EXTRACT: note_on channel=9 note=47 velocity=0 time=0
EXTRACT: note_on channel=9 note=41 velocity=127 time=0.006696425000000001
EXTRACT: note_on channel=9 note=47 velocity=127 time=0
EXTRACT: note_on channel=9 note=41 velocity=0 time=0.060267825000000004
EXTRACT: note_on channel=9 note=47 velocity=0 time=0
EXTRACT: note_on channel=9 note=41 velocity=127 time=0.006696425000000001
EXTRACT: note_on channel=9 note=47 velocity=127 time=0
EXTRACT: note_on channel=9 note=41 velocity=0 time=0.261160575
EXTRACT: note_on channel=9 note=47 velocity=0 time=0
EXTRACT: note_on channel=9 note=41 velocity=127 time=0.006696425000000001
EXTRACT: note_on channel=9 note=47 velocity=127 time=0
EXTRACT: note_on channel=9 note=41 velocity=0 time=0.261160575
EXTRACT: note_on channel=9 note=47 velocity=0 time=0
EXTRACT: note_on channel=9 note=41 velocity=127 time=0.006696425000000001
EXTRACT: note_on channel=9 note=47 velocity=127 time=0
EXTRACT: note_on channel=9 note=41 velocity=0 time=0.261160575
EXTRACT: note_on channel=9 note=47 velocity=0 time=0
EXTRACT: note_on channel=9 note=41 velocity=127 time=0.006696425000000001
EXTRACT: note_on channel=9 note=47 velocity=127 time=0
EXTRACT: note_on channel=9 note=41 velocity=0 time=0.127232075
EXTRACT: note_on channel=9 note=47 velocity=0 time=0
EXTRACT: note_on channel=9 note=41 velocity=127 time=0.006696425000000001
EXTRACT: note_on channel=9 note=47 velocity=127 time=0
EXTRACT: note_on channel=9 note=41 velocity=0 time=0.261160575
EXTRACT: note_on channel=9 note=47 velocity=0 time=0
EXTRACT: note_on channel=9 note=41 velocity=127 time=0.006696425000000001
EXTRACT: note_on channel=9 note=47 velocity=127 time=0
EXTRACT: note_on channel=9 note=41 velocity=0 time=0.261160575
EXTRACT: note_on channel=9 note=47 velocity=0 time=0
EXTRACT: note_on channel=9 note=41 velocity=127 time=0.006696425000000001
EXTRACT: note_on channel=9 note=47 velocity=127 time=0
EXTRACT: note_on channel=9 note=41 velocity=0 time=0.261160575
EXTRACT: note_on channel=9 note=47 velocity=0 time=0
EXTRACT: note_on channel=9 note=41 velocity=127 time=0.006696425000000001
EXTRACT: note_on channel=9 note=47 velocity=127 time=0
EXTRACT: note_on channel=9 note=41 velocity=0 time=0.261160575
EXTRACT: note_on channel=9 note=47 velocity=0 time=0
EXTRACT: note_on channel=9 note=41 velocity=127 time=0.006696425000000001
EXTRACT: note_on channel=9 note=47 velocity=127 time=0
EXTRACT: note_on channel=9 note=41 velocity=0 time=0.060267825000000004
EXTRACT: note_on channel=9 note=47 velocity=0 time=0
EXTRACT: note_on channel=9 note=41 velocity=127 time=0.006696425000000001
EXTRACT: note_on channel=9 note=47 velocity=127 time=0
EXTRACT: note_on channel=9 note=41 velocity=0 time=0.060267825000000004
EXTRACT: note_on channel=9 note=47 velocity=0 time=0
EXTRACT: note_on channel=9 note=41 velocity=127 time=0.006696425000000001
EXTRACT: note_on channel=9 note=47 velocity=127 time=0
EXTRACT: note_on channel=9 note=41 velocity=0 time=0.261160575
EXTRACT: note_on channel=9 note=47 velocity=0 time=0
EXTRACT: note_on channel=9 note=41 velocity=127 time=0.006696425000000001
EXTRACT: note_on channel=9 note=47 velocity=127 time=0
EXTRACT: note_on channel=9 note=41 velocity=0 time=0.261160575
EXTRACT: note_on channel=9 note=47 velocity=0 time=0
EXTRACT: note_on channel=9 note=41 velocity=127 time=0.006696425000000001
EXTRACT: note_on channel=9 note=47 velocity=127 time=0
EXTRACT: note_on channel=9 note=41 velocity=0 time=0.261160575
EXTRACT: note_on channel=9 note=47 velocity=0 time=0
EXTRACT: note_on channel=9 note=41 velocity=127 time=0.006696425000000001
EXTRACT: note_on channel=9 note=47 velocity=127 time=0
EXTRACT: note_on channel=9 note=41 velocity=0 time=0.127232075
EXTRACT: note_on channel=9 note=47 velocity=0 time=0
EXTRACT: note_on channel=9 note=41 velocity=127 time=0.006696425000000001
EXTRACT: note_on channel=9 note=47 velocity=127 time=0
EXTRACT: note_on channel=9 note=41 velocity=0 time=0.261160575
EXTRACT: note_on channel=9 note=47 velocity=0 time=0
EXTRACT: note_on channel=9 note=41 velocity=127 time=0.006696425000000001
EXTRACT: note_on channel=9 note=47 velocity=127 time=0
EXTRACT: note_on channel=9 note=41 velocity=0 time=0.261160575
EXTRACT: note_on channel=9 note=47 velocity=0 time=0
EXTRACT: note_on channel=9 note=41 velocity=127 time=0.006696425000000001
EXTRACT: note_on channel=9 note=47 velocity=127 time=0
EXTRACT: note_on channel=9 note=41 velocity=0 time=0.261160575
EXTRACT: note_on channel=9 note=47 velocity=0 time=0
EXTRACT: note_on channel=9 note=41 velocity=127 time=0.006696425000000001
EXTRACT: note_on channel=9 note=47 velocity=127 time=0
EXTRACT: note_on channel=9 note=41 velocity=0 time=0.261160575
EXTRACT: note_on channel=9 note=47 velocity=0 time=0
EXTRACT: note_on channel=9 note=41 velocity=127 time=0.006696425000000001
EXTRACT: note_on channel=9 note=47 velocity=127 time=0
EXTRACT: note_on channel=9 note=41 velocity=0 time=0.060267825000000004
EXTRACT: note_on channel=9 note=47 velocity=0 time=0
EXTRACT: note_on channel=9 note=41 velocity=127 time=0.006696425000000001
EXTRACT: note_on channel=9 note=47 velocity=127 time=0
EXTRACT: note_on channel=9 note=41 velocity=0 time=0.060267825000000004
EXTRACT: note_on channel=9 note=47 velocity=0 time=0
EXTRACT: note_on channel=9 note=41 velocity=127 time=0.006696425000000001
EXTRACT: note_on channel=9 note=47 velocity=127 time=0
EXTRACT: note_on channel=9 note=41 velocity=0 time=0.261160575
EXTRACT: note_on channel=9 note=47 velocity=0 time=0
EXTRACT: note_on channel=9 note=41 velocity=127 time=0.006696425000000001
EXTRACT: note_on channel=9 note=47 velocity=127 time=0
EXTRACT: note_on channel=9 note=41 velocity=0 time=0.261160575
EXTRACT: note_on channel=9 note=47 velocity=0 time=0
EXTRACT: note_on channel=9 note=41 velocity=127 time=0.006696425000000001
EXTRACT: note_on channel=9 note=47 velocity=127 time=0
EXTRACT: note_on channel=9 note=41 velocity=0 time=0.261160575
EXTRACT: note_on channel=9 note=47 velocity=0 time=0
EXTRACT: note_on channel=9 note=41 velocity=127 time=0.006696425000000001
EXTRACT: note_on channel=9 note=47 velocity=127 time=0
EXTRACT: note_on channel=9 note=41 velocity=0 time=0.127232075
EXTRACT: note_on channel=9 note=47 velocity=0 time=0
EXTRACT: note_on channel=9 note=41 velocity=127 time=0.006696425000000001
EXTRACT: note_on channel=9 note=47 velocity=127 time=0
EXTRACT: note_on channel=9 note=41 velocity=0 time=0.261160575
EXTRACT: note_on channel=9 note=47 velocity=0 time=0
EXTRACT: note_on channel=9 note=41 velocity=127 time=0.006696425000000001
EXTRACT: note_on channel=9 note=47 velocity=127 time=0
EXTRACT: note_on channel=9 note=41 velocity=0 time=0.261160575
EXTRACT: note_on channel=9 note=47 velocity=0 time=0
EXTRACT: note_on channel=9 note=41 velocity=127 time=0.006696425000000001
EXTRACT: note_on channel=9 note=47 velocity=127 time=0
EXTRACT: note_on channel=9 note=41 velocity=0 time=0.261160575
EXTRACT: note_on channel=9 note=47 velocity=0 time=0
EXTRACT: note_on channel=9 note=41 velocity=127 time=0.006696425000000001
EXTRACT: note_on channel=9 note=47 velocity=127 time=0
EXTRACT: note_on channel=9 note=41 velocity=0 time=0.261160575
EXTRACT: note_on channel=9 note=47 velocity=0 time=0
EXTRACT: note_on channel=9 note=41 velocity=127 time=0.006696425000000001
EXTRACT: note_on channel=9 note=47 velocity=127 time=0
EXTRACT: note_on channel=9 note=41 velocity=0 time=0.060267825000000004
EXTRACT: note_on channel=9 note=47 velocity=0 time=0
EXTRACT: note_on channel=9 note=41 velocity=127 time=0.006696425000000001
EXTRACT: note_on channel=9 note=47 velocity=127 time=0
EXTRACT: note_on channel=9 note=41 velocity=0 time=0.060267825000000004
EXTRACT: note_on channel=9 note=47 velocity=0 time=0
EXTRACT: note_on channel=9 note=41 velocity=127 time=0.006696425000000001
EXTRACT: note_on channel=9 note=47 velocity=127 time=0
EXTRACT: note_on channel=9 note=41 velocity=0 time=0.261160575
EXTRACT: note_on channel=9 note=47 velocity=0 time=0
EXTRACT: note_on channel=9 note=41 velocity=127 time=0.006696425000000001
EXTRACT: note_on channel=9 note=47 velocity=127 time=0
EXTRACT: note_on channel=9 note=41 velocity=0 time=0.261160575
EXTRACT: note_on channel=9 note=47 velocity=0 time=0
EXTRACT: note_on channel=9 note=41 velocity=127 time=0.006696425000000001
EXTRACT: note_on channel=9 note=47 velocity=127 time=0
EXTRACT: note_on channel=9 note=41 velocity=0 time=0.261160575
EXTRACT: note_on channel=9 note=47 velocity=0 time=0
EXTRACT: note_on channel=9 note=41 velocity=127 time=0.006696425000000001
EXTRACT: note_on channel=9 note=47 velocity=127 time=0
EXTRACT: note_on channel=9 note=41 velocity=0 time=0.127232075
EXTRACT: note_on channel=9 note=47 velocity=0 time=0
EXTRACT: note_on channel=9 note=41 velocity=127 time=0.006696425000000001
EXTRACT: note_on channel=9 note=47 velocity=127 time=0
EXTRACT: note_on channel=9 note=41 velocity=0 time=0.261160575
EXTRACT: note_on channel=9 note=47 velocity=0 time=0
EXTRACT: note_on channel=9 note=41 velocity=127 time=0.006696425000000001
EXTRACT: note_on channel=9 note=47 velocity=127 time=0
EXTRACT: note_on channel=9 note=41 velocity=0 time=0.261160575
EXTRACT: note_on channel=9 note=47 velocity=0 time=0
EXTRACT: note_on channel=9 note=41 velocity=127 time=0.006696425000000001
EXTRACT: note_on channel=9 note=47 velocity=127 time=0
EXTRACT: note_on channel=9 note=41 velocity=0 time=0.261160575
EXTRACT: note_on channel=9 note=47 velocity=0 time=0
EXTRACT: note_on channel=9 note=41 velocity=127 time=0.006696425000000001
EXTRACT: note_on channel=9 note=47 velocity=127 time=0
EXTRACT: note_on channel=9 note=41 velocity=0 time=0.261160575
EXTRACT: note_on channel=9 note=47 velocity=0 time=0
EXTRACT: note_on channel=9 note=70 velocity=127 time=0.006696425000000001
EXTRACT: note_on channel=9 note=41 velocity=127 time=0
EXTRACT: note_on channel=9 note=47 velocity=127 time=0
EXTRACT: note_on channel=9 note=70 velocity=0 time=0.060267825000000004
EXTRACT: note_on channel=9 note=41 velocity=0 time=0
EXTRACT: note_on channel=9 note=47 velocity=0 time=0
EXTRACT: note_on channel=9 note=70 velocity=127 time=0.006696425000000001
EXTRACT: note_on channel=9 note=41 velocity=127 time=0
EXTRACT: note_on channel=9 note=47 velocity=127 time=0
EXTRACT: note_on channel=9 note=70 velocity=0 time=0.060267825000000004
EXTRACT: note_on channel=9 note=41 velocity=0 time=0
EXTRACT: note_on channel=9 note=47 velocity=0 time=0
EXTRACT: note_on channel=9 note=70 velocity=127 time=0.006696425000000001
EXTRACT: note_on channel=9 note=41 velocity=127 time=0
EXTRACT: note_on channel=9 note=47 velocity=127 time=0
EXTRACT: note_on channel=9 note=70 velocity=0 time=0.261160575
EXTRACT: note_on channel=9 note=41 velocity=0 time=0
EXTRACT: note_on channel=9 note=47 velocity=0 time=0
EXTRACT: note_on channel=9 note=70 velocity=127 time=0.006696425000000001
EXTRACT: note_on channel=9 note=41 velocity=127 time=0
EXTRACT: note_on channel=9 note=47 velocity=127 time=0
EXTRACT: note_on channel=9 note=70 velocity=0 time=0.261160575
EXTRACT: note_on channel=9 note=41 velocity=0 time=0
EXTRACT: note_on channel=9 note=47 velocity=0 time=0
EXTRACT: note_on channel=9 note=70 velocity=127 time=0.006696425000000001
EXTRACT: note_on channel=9 note=41 velocity=127 time=0
EXTRACT: note_on channel=9 note=47 velocity=127 time=0
EXTRACT: note_on channel=9 note=70 velocity=0 time=0.261160575
EXTRACT: note_on channel=9 note=41 velocity=0 time=0
EXTRACT: note_on channel=9 note=47 velocity=0 time=0
EXTRACT: note_on channel=9 note=70 velocity=127 time=0.006696425000000001
EXTRACT: note_on channel=9 note=41 velocity=127 time=0
EXTRACT: note_on channel=9 note=47 velocity=127 time=0
EXTRACT: note_on channel=9 note=70 velocity=0 time=0.127232075
EXTRACT: note_on channel=9 note=41 velocity=0 time=0
EXTRACT: note_on channel=9 note=47 velocity=0 time=0
EXTRACT: note_on channel=9 note=70 velocity=127 time=0.006696425000000001
EXTRACT: note_on channel=9 note=41 velocity=127 time=0
EXTRACT: note_on channel=9 note=47 velocity=127 time=0
EXTRACT: note_on channel=9 note=70 velocity=0 time=0.261160575
EXTRACT: note_on channel=9 note=41 velocity=0 time=0
EXTRACT: note_on channel=9 note=47 velocity=0 time=0
EXTRACT: note_on channel=9 note=70 velocity=127 time=0.006696425000000001
EXTRACT: note_on channel=9 note=41 velocity=127 time=0
EXTRACT: note_on channel=9 note=47 velocity=127 time=0
EXTRACT: note_on channel=9 note=70 velocity=0 time=0.261160575
EXTRACT: note_on channel=9 note=41 velocity=0 time=0
EXTRACT: note_on channel=9 note=47 velocity=0 time=0
EXTRACT: note_on channel=9 note=70 velocity=127 time=0.006696425000000001
EXTRACT: note_on channel=9 note=41 velocity=127 time=0
EXTRACT: note_on channel=9 note=47 velocity=127 time=0
EXTRACT: note_on channel=9 note=70 velocity=0 time=0.261160575
EXTRACT: note_on channel=9 note=41 velocity=0 time=0
EXTRACT: note_on channel=9 note=47 velocity=0 time=0
EXTRACT: note_on channel=9 note=70 velocity=127 time=0.006696425000000001
EXTRACT: note_on channel=9 note=41 velocity=127 time=0
EXTRACT: note_on channel=9 note=47 velocity=127 time=0
EXTRACT: note_on channel=9 note=70 velocity=0 time=0.261160575
EXTRACT: note_on channel=9 note=41 velocity=0 time=0
EXTRACT: note_on channel=9 note=47 velocity=0 time=0
EXTRACT: note_on channel=9 note=70 velocity=127 time=0.006696425000000001
EXTRACT: note_on channel=9 note=41 velocity=127 time=0
EXTRACT: note_on channel=9 note=47 velocity=127 time=0
EXTRACT: note_on channel=9 note=70 velocity=0 time=0.060267825000000004
EXTRACT: note_on channel=9 note=41 velocity=0 time=0
EXTRACT: note_on channel=9 note=47 velocity=0 time=0
EXTRACT: note_on channel=9 note=70 velocity=127 time=0.006696425000000001
EXTRACT: note_on channel=9 note=41 velocity=127 time=0
EXTRACT: note_on channel=9 note=47 velocity=127 time=0
EXTRACT: note_on channel=9 note=70 velocity=0 time=0.060267825000000004
EXTRACT: note_on channel=9 note=41 velocity=0 time=0
EXTRACT: note_on channel=9 note=47 velocity=0 time=0
EXTRACT: note_on channel=9 note=70 velocity=127 time=0.006696425000000001
EXTRACT: note_on channel=9 note=41 velocity=127 time=0
EXTRACT: note_on channel=9 note=47 velocity=127 time=0
EXTRACT: note_on channel=9 note=70 velocity=0 time=0.261160575
EXTRACT: note_on channel=9 note=41 velocity=0 time=0
EXTRACT: note_on channel=9 note=47 velocity=0 time=0
EXTRACT: note_on channel=9 note=70 velocity=127 time=0.006696425000000001
EXTRACT: note_on channel=9 note=41 velocity=127 time=0
EXTRACT: note_on channel=9 note=47 velocity=127 time=0
EXTRACT: note_on channel=9 note=70 velocity=0 time=0.261160575
EXTRACT: note_on channel=9 note=41 velocity=0 time=0
EXTRACT: note_on channel=9 note=47 velocity=0 time=0
EXTRACT: note_on channel=9 note=70 velocity=127 time=0.006696425000000001
EXTRACT: note_on channel=9 note=41 velocity=127 time=0
EXTRACT: note_on channel=9 note=47 velocity=127 time=0
EXTRACT: note_on channel=9 note=70 velocity=0 time=0.261160575
EXTRACT: note_on channel=9 note=41 velocity=0 time=0
EXTRACT: note_on channel=9 note=47 velocity=0 time=0
EXTRACT: note_on channel=9 note=70 velocity=127 time=0.006696425000000001
EXTRACT: note_on channel=9 note=41 velocity=127 time=0
EXTRACT: note_on channel=9 note=47 velocity=127 time=0
EXTRACT: note_on channel=9 note=70 velocity=0 time=0.127232075
EXTRACT: note_on channel=9 note=41 velocity=0 time=0
EXTRACT: note_on channel=9 note=47 velocity=0 time=0
EXTRACT: note_on channel=9 note=70 velocity=127 time=0.006696425000000001
EXTRACT: note_on channel=9 note=41 velocity=127 time=0
EXTRACT: note_on channel=9 note=47 velocity=127 time=0
EXTRACT: note_on channel=9 note=70 velocity=0 time=0.261160575
EXTRACT: note_on channel=9 note=41 velocity=0 time=0
EXTRACT: note_on channel=9 note=47 velocity=0 time=0
EXTRACT: note_on channel=9 note=70 velocity=127 time=0.006696425000000001
EXTRACT: note_on channel=9 note=41 velocity=127 time=0
EXTRACT: note_on channel=9 note=47 velocity=127 time=0
EXTRACT: note_on channel=9 note=70 velocity=0 time=0.261160575
EXTRACT: note_on channel=9 note=41 velocity=0 time=0
EXTRACT: note_on channel=9 note=47 velocity=0 time=0
EXTRACT: note_on channel=9 note=70 velocity=127 time=0.006696425000000001
EXTRACT: note_on channel=9 note=41 velocity=127 time=0
EXTRACT: note_on channel=9 note=47 velocity=127 time=0
EXTRACT: note_on channel=9 note=70 velocity=0 time=0.261160575
EXTRACT: note_on channel=9 note=41 velocity=0 time=0
EXTRACT: note_on channel=9 note=47 velocity=0 time=0
EXTRACT: note_on channel=9 note=70 velocity=127 time=0.006696425000000001
EXTRACT: note_on channel=9 note=41 velocity=127 time=0
EXTRACT: note_on channel=9 note=47 velocity=127 time=0
EXTRACT: note_on channel=9 note=70 velocity=0 time=0.261160575
EXTRACT: note_on channel=9 note=41 velocity=0 time=0
EXTRACT: note_on channel=9 note=47 velocity=0 time=0
EXTRACT: note_on channel=9 note=70 velocity=127 time=0.006696425000000001
EXTRACT: note_on channel=9 note=41 velocity=127 time=0
EXTRACT: note_on channel=9 note=47 velocity=127 time=0
EXTRACT: note_on channel=9 note=70 velocity=0 time=0.060267825000000004
EXTRACT: note_on channel=9 note=41 velocity=0 time=0
EXTRACT: note_on channel=9 note=47 velocity=0 time=0
EXTRACT: note_on channel=9 note=70 velocity=127 time=0.006696425000000001
EXTRACT: note_on channel=9 note=41 velocity=127 time=0
EXTRACT: note_on channel=9 note=47 velocity=127 time=0
EXTRACT: note_on channel=9 note=70 velocity=0 time=0.060267825000000004
EXTRACT: note_on channel=9 note=41 velocity=0 time=0
EXTRACT: note_on channel=9 note=47 velocity=0 time=0
EXTRACT: note_on channel=9 note=70 velocity=127 time=0.006696425000000001
EXTRACT: note_on channel=9 note=41 velocity=127 time=0
EXTRACT: note_on channel=9 note=47 velocity=127 time=0
EXTRACT: note_on channel=9 note=70 velocity=0 time=0.261160575
EXTRACT: note_on channel=9 note=41 velocity=0 time=0
EXTRACT: note_on channel=9 note=47 velocity=0 time=0
EXTRACT: note_on channel=9 note=70 velocity=127 time=0.006696425000000001
EXTRACT: note_on channel=9 note=41 velocity=127 time=0
EXTRACT: note_on channel=9 note=47 velocity=127 time=0
EXTRACT: note_on channel=9 note=70 velocity=0 time=0.261160575
EXTRACT: note_on channel=9 note=41 velocity=0 time=0
EXTRACT: note_on channel=9 note=47 velocity=0 time=0
EXTRACT: note_on channel=9 note=70 velocity=127 time=0.006696425000000001
EXTRACT: note_on channel=9 note=41 velocity=127 time=0
EXTRACT: note_on channel=9 note=47 velocity=127 time=0
EXTRACT: note_on channel=9 note=70 velocity=0 time=0.261160575
EXTRACT: note_on channel=9 note=41 velocity=0 time=0
EXTRACT: note_on channel=9 note=47 velocity=0 time=0
EXTRACT: note_on channel=9 note=70 velocity=127 time=0.006696425000000001
EXTRACT: note_on channel=9 note=41 velocity=127 time=0
EXTRACT: note_on channel=9 note=47 velocity=127 time=0
EXTRACT: note_on channel=9 note=70 velocity=0 time=0.127232075
EXTRACT: note_on channel=9 note=41 velocity=0 time=0
EXTRACT: note_on channel=9 note=47 velocity=0 time=0
EXTRACT: note_on channel=9 note=70 velocity=127 time=0.006696425000000001
EXTRACT: note_on channel=9 note=41 velocity=127 time=0
EXTRACT: note_on channel=9 note=47 velocity=127 time=0
EXTRACT: note_on channel=9 note=70 velocity=0 time=0.261160575
EXTRACT: note_on channel=9 note=41 velocity=0 time=0
EXTRACT: note_on channel=9 note=47 velocity=0 time=0
EXTRACT: note_on channel=9 note=70 velocity=127 time=0.006696425000000001
EXTRACT: note_on channel=9 note=41 velocity=127 time=0
EXTRACT: note_on channel=9 note=47 velocity=127 time=0
EXTRACT: note_on channel=9 note=70 velocity=0 time=0.261160575
EXTRACT: note_on channel=9 note=41 velocity=0 time=0
EXTRACT: note_on channel=9 note=47 velocity=0 time=0
EXTRACT: note_on channel=9 note=70 velocity=127 time=0.006696425000000001
EXTRACT: note_on channel=9 note=41 velocity=127 time=0
EXTRACT: note_on channel=9 note=47 velocity=127 time=0
EXTRACT: note_on channel=9 note=70 velocity=0 time=0.261160575
EXTRACT: note_on channel=9 note=41 velocity=0 time=0
EXTRACT: note_on channel=9 note=47 velocity=0 time=0
EXTRACT: note_on channel=9 note=70 velocity=127 time=0.006696425000000001
EXTRACT: note_on channel=9 note=41 velocity=127 time=0
EXTRACT: note_on channel=9 note=47 velocity=127 time=0
EXTRACT: note_on channel=9 note=70 velocity=0 time=0.261160575
EXTRACT: note_on channel=9 note=41 velocity=0 time=0
EXTRACT: note_on channel=9 note=47 velocity=0 time=0
EXTRACT: note_on channel=9 note=70 velocity=127 time=0.006696425000000001
EXTRACT: note_on channel=9 note=41 velocity=127 time=0
EXTRACT: note_on channel=9 note=47 velocity=127 time=0
EXTRACT: note_on channel=9 note=70 velocity=0 time=0.060267825000000004
EXTRACT: note_on channel=9 note=41 velocity=0 time=0
EXTRACT: note_on channel=9 note=47 velocity=0 time=0
EXTRACT: note_on channel=9 note=70 velocity=127 time=0.006696425000000001
EXTRACT: note_on channel=9 note=41 velocity=127 time=0
EXTRACT: note_on channel=9 note=47 velocity=127 time=0
EXTRACT: note_on channel=9 note=70 velocity=0 time=0.060267825000000004
EXTRACT: note_on channel=9 note=41 velocity=0 time=0
EXTRACT: note_on channel=9 note=47 velocity=0 time=0
EXTRACT: note_on channel=9 note=70 velocity=127 time=0.006696425000000001
EXTRACT: note_on channel=9 note=41 velocity=127 time=0
EXTRACT: note_on channel=9 note=47 velocity=127 time=0
EXTRACT: note_on channel=9 note=70 velocity=0 time=0.261160575
EXTRACT: note_on channel=9 note=41 velocity=0 time=0
EXTRACT: note_on channel=9 note=47 velocity=0 time=0
EXTRACT: note_on channel=9 note=70 velocity=127 time=0.006696425000000001
EXTRACT: note_on channel=9 note=41 velocity=127 time=0
EXTRACT: note_on channel=9 note=47 velocity=127 time=0
EXTRACT: note_on channel=9 note=70 velocity=0 time=0.261160575
EXTRACT: note_on channel=9 note=41 velocity=0 time=0
EXTRACT: note_on channel=9 note=47 velocity=0 time=0
EXTRACT: note_on channel=9 note=70 velocity=127 time=0.006696425000000001
EXTRACT: note_on channel=9 note=41 velocity=127 time=0
EXTRACT: note_on channel=9 note=47 velocity=127 time=0
EXTRACT: note_on channel=9 note=70 velocity=0 time=0.261160575
EXTRACT: note_on channel=9 note=41 velocity=0 time=0
EXTRACT: note_on channel=9 note=47 velocity=0 time=0
EXTRACT: note_on channel=9 note=70 velocity=127 time=0.006696425000000001
EXTRACT: note_on channel=9 note=41 velocity=127 time=0
EXTRACT: note_on channel=9 note=47 velocity=127 time=0
EXTRACT: note_on channel=9 note=70 velocity=0 time=0.127232075
EXTRACT: note_on channel=9 note=41 velocity=0 time=0
EXTRACT: note_on channel=9 note=47 velocity=0 time=0
EXTRACT: note_on channel=9 note=70 velocity=127 time=0.006696425000000001
EXTRACT: note_on channel=9 note=41 velocity=127 time=0
EXTRACT: note_on channel=9 note=47 velocity=127 time=0
EXTRACT: note_on channel=4 note=78 velocity=110 time=0
EXTRACT: note_on channel=9 note=70 velocity=0 time=0.261160575
EXTRACT: note_on channel=9 note=41 velocity=0 time=0
EXTRACT: note_on channel=9 note=47 velocity=0 time=0
EXTRACT: note_on channel=9 note=70 velocity=127 time=0.006696425000000001
EXTRACT: note_on channel=9 note=41 velocity=127 time=0
EXTRACT: note_on channel=9 note=47 velocity=127 time=0
EXTRACT: note_on channel=9 note=70 velocity=0 time=0.261160575
EXTRACT: note_on channel=9 note=41 velocity=0 time=0
EXTRACT: note_on channel=9 note=47 velocity=0 time=0
EXTRACT: note_on channel=9 note=70 velocity=127 time=0.006696425000000001
EXTRACT: note_on channel=9 note=41 velocity=127 time=0
EXTRACT: note_on channel=9 note=47 velocity=127 time=0
EXTRACT: note_on channel=9 note=70 velocity=0 time=0.261160575
EXTRACT: note_on channel=9 note=41 velocity=0 time=0
EXTRACT: note_on channel=9 note=47 velocity=0 time=0
EXTRACT: note_on channel=9 note=70 velocity=127 time=0.006696425000000001
EXTRACT: note_on channel=9 note=41 velocity=127 time=0
EXTRACT: note_on channel=9 note=47 velocity=127 time=0
EXTRACT: note_on channel=9 note=70 velocity=0 time=0.261160575
EXTRACT: note_on channel=9 note=41 velocity=0 time=0
EXTRACT: note_on channel=9 note=47 velocity=0 time=0
EXTRACT: note_on channel=1 note=54 velocity=110 time=0.006696425000000001
EXTRACT: note_on channel=1 note=58 velocity=110 time=0
EXTRACT: note_on channel=2 note=42 velocity=110 time=0
EXTRACT: note_on channel=9 note=70 velocity=127 time=0
EXTRACT: note_on channel=9 note=41 velocity=127 time=0
EXTRACT: note_on channel=9 note=47 velocity=127 time=0
EXTRACT: note_on channel=9 note=40 velocity=110 time=0
EXTRACT: note_on channel=9 note=44 velocity=110 time=0
EXTRACT: note_on channel=9 note=47 velocity=110 time=0
EXTRACT: note_on channel=9 note=51 velocity=110 time=0
EXTRACT: note_on channel=9 note=54 velocity=110 time=0
EXTRACT: note_on channel=9 note=57 velocity=110 time=0
EXTRACT: note_on channel=5 note=54 velocity=90 time=0
EXTRACT: note_on channel=5 note=58 velocity=90 time=0
EXTRACT: note_on channel=10 note=54 velocity=90 time=0
EXTRACT: note_on channel=10 note=58 velocity=90 time=0
EXTRACT: note_on channel=6 note=42 velocity=90 time=0
EXTRACT: note_on channel=9 note=70 velocity=0 time=0.060267825000000004
EXTRACT: note_on channel=9 note=41 velocity=0 time=0
EXTRACT: note_on channel=9 note=47 velocity=0 time=0
EXTRACT: note_on channel=9 note=70 velocity=127 time=0.006696425000000001
EXTRACT: note_on channel=9 note=41 velocity=127 time=0
EXTRACT: note_on channel=9 note=47 velocity=127 time=0
EXTRACT: note_on channel=9 note=70 velocity=0 time=0.060267825000000004
EXTRACT: note_on channel=9 note=41 velocity=0 time=0
EXTRACT: note_on channel=9 note=47 velocity=0 time=0
EXTRACT: note_on channel=9 note=70 velocity=127 time=0.006696425000000001
EXTRACT: note_on channel=9 note=41 velocity=127 time=0
EXTRACT: note_on channel=9 note=47 velocity=127 time=0
EXTRACT: note_on channel=9 note=70 velocity=0 time=0.261160575
EXTRACT: note_on channel=9 note=41 velocity=0 time=0
EXTRACT: note_on channel=9 note=47 velocity=0 time=0
EXTRACT: note_on channel=9 note=70 velocity=127 time=0.006696425000000001
EXTRACT: note_on channel=9 note=41 velocity=127 time=0
EXTRACT: note_on channel=9 note=47 velocity=127 time=0
EXTRACT: note_on channel=4 note=78 velocity=0 time=0.04464283333333333
EXTRACT: note_on channel=9 note=70 velocity=0 time=0.21651774166666668
EXTRACT: note_on channel=9 note=41 velocity=0 time=0
EXTRACT: note_on channel=9 note=47 velocity=0 time=0
EXTRACT: note_on channel=9 note=70 velocity=127 time=0.006696425000000001
EXTRACT: note_on channel=9 note=41 velocity=127 time=0
EXTRACT: note_on channel=9 note=47 velocity=127 time=0
EXTRACT: note_on channel=9 note=70 velocity=0 time=0.261160575
EXTRACT: note_on channel=9 note=41 velocity=0 time=0
EXTRACT: note_on channel=9 note=47 velocity=0 time=0
EXTRACT: note_on channel=1 note=54 velocity=0 time=0.006696425000000001
EXTRACT: note_on channel=1 note=58 velocity=0 time=0
EXTRACT: note_on channel=2 note=42 velocity=0 time=0
EXTRACT: note_on channel=9 note=70 velocity=127 time=0
EXTRACT: note_on channel=9 note=41 velocity=127 time=0
EXTRACT: note_on channel=9 note=47 velocity=127 time=0
EXTRACT: note_on channel=5 note=54 velocity=0 time=0
EXTRACT: note_on channel=5 note=58 velocity=0 time=0
EXTRACT: note_on channel=10 note=54 velocity=0 time=0
EXTRACT: note_on channel=10 note=58 velocity=0 time=0
EXTRACT: note_on channel=6 note=42 velocity=0 time=0
EXTRACT: note_on channel=9 note=70 velocity=0 time=0.127232075
EXTRACT: note_on channel=9 note=41 velocity=0 time=0
EXTRACT: note_on channel=9 note=47 velocity=0 time=0
EXTRACT: note_on channel=1 note=59 velocity=110 time=0.006696425000000001
EXTRACT: note_on channel=2 note=42 velocity=110 time=0
EXTRACT: note_on channel=9 note=70 velocity=127 time=0
EXTRACT: note_on channel=9 note=41 velocity=127 time=0
EXTRACT: note_on channel=9 note=47 velocity=127 time=0
EXTRACT: note_on channel=5 note=59 velocity=90 time=0
EXTRACT: note_on channel=10 note=59 velocity=90 time=0
EXTRACT: note_on channel=6 note=42 velocity=90 time=0
EXTRACT: note_on channel=9 note=70 velocity=0 time=0.261160575
EXTRACT: note_on channel=9 note=41 velocity=0 time=0
EXTRACT: note_on channel=9 note=47 velocity=0 time=0
EXTRACT: note_on channel=9 note=70 velocity=127 time=0.006696425000000001
EXTRACT: note_on channel=9 note=41 velocity=127 time=0
EXTRACT: note_on channel=9 note=47 velocity=127 time=0
EXTRACT: note_on channel=9 note=70 velocity=0 time=0.261160575
EXTRACT: note_on channel=9 note=41 velocity=0 time=0
EXTRACT: note_on channel=9 note=47 velocity=0 time=0
EXTRACT: note_on channel=9 note=70 velocity=127 time=0.006696425000000001
EXTRACT: note_on channel=9 note=41 velocity=127 time=0
EXTRACT: note_on channel=9 note=47 velocity=127 time=0
EXTRACT: note_on channel=9 note=70 velocity=0 time=0.261160575
EXTRACT: note_on channel=9 note=41 velocity=0 time=0
EXTRACT: note_on channel=9 note=47 velocity=0 time=0
EXTRACT: note_on channel=9 note=70 velocity=127 time=0.006696425000000001
EXTRACT: note_on channel=9 note=41 velocity=127 time=0
EXTRACT: note_on channel=9 note=47 velocity=127 time=0
EXTRACT: note_on channel=1 note=59 velocity=0 time=0.1339285
EXTRACT: note_on channel=2 note=42 velocity=0 time=0
EXTRACT: note_on channel=9 note=40 velocity=0 time=0
EXTRACT: note_on channel=9 note=44 velocity=0 time=0
EXTRACT: note_on channel=9 note=47 velocity=0 time=0
EXTRACT: note_on channel=9 note=51 velocity=0 time=0
EXTRACT: note_on channel=9 note=54 velocity=0 time=0
EXTRACT: note_on channel=9 note=57 velocity=0 time=0
EXTRACT: note_on channel=5 note=59 velocity=0 time=0
EXTRACT: note_on channel=10 note=59 velocity=0 time=0
EXTRACT: note_on channel=6 note=42 velocity=0 time=0
EXTRACT: note_on channel=9 note=70 velocity=0 time=0.127232075
EXTRACT: note_on channel=9 note=41 velocity=0 time=0
EXTRACT: note_on channel=9 note=47 velocity=0 time=0
EXTRACT: note_on channel=1 note=54 velocity=110 time=0.006696425000000001
EXTRACT: note_on channel=1 note=56 velocity=110 time=0
EXTRACT: note_on channel=1 note=59 velocity=110 time=0
EXTRACT: note_on channel=2 note=44 velocity=110 time=0
EXTRACT: note_on channel=9 note=70 velocity=127 time=0
EXTRACT: note_on channel=9 note=41 velocity=127 time=0
EXTRACT: note_on channel=9 note=47 velocity=127 time=0
EXTRACT: note_on channel=5 note=54 velocity=90 time=0
EXTRACT: note_on channel=5 note=56 velocity=90 time=0
EXTRACT: note_on channel=5 note=59 velocity=90 time=0
EXTRACT: note_on channel=10 note=54 velocity=90 time=0
EXTRACT: note_on channel=10 note=56 velocity=90 time=0
EXTRACT: note_on channel=10 note=59 velocity=90 time=0
EXTRACT: note_on channel=6 note=44 velocity=90 time=0
EXTRACT: note_on channel=9 note=70 velocity=0 time=0.060267825000000004
EXTRACT: note_on channel=9 note=41 velocity=0 time=0
EXTRACT: note_on channel=9 note=47 velocity=0 time=0
EXTRACT: note_on channel=9 note=70 velocity=127 time=0.006696425000000001
EXTRACT: note_on channel=9 note=41 velocity=127 time=0
EXTRACT: note_on channel=9 note=47 velocity=127 time=0
EXTRACT: note_on channel=9 note=70 velocity=0 time=0.060267825000000004
EXTRACT: note_on channel=9 note=41 velocity=0 time=0
EXTRACT: note_on channel=9 note=47 velocity=0 time=0
EXTRACT: note_on channel=9 note=70 velocity=127 time=0.006696425000000001
EXTRACT: note_on channel=9 note=41 velocity=127 time=0
EXTRACT: note_on channel=9 note=47 velocity=127 time=0
EXTRACT: note_on channel=9 note=70 velocity=0 time=0.261160575
EXTRACT: note_on channel=9 note=41 velocity=0 time=0
EXTRACT: note_on channel=9 note=47 velocity=0 time=0
EXTRACT: note_on channel=9 note=70 velocity=127 time=0.006696425000000001
EXTRACT: note_on channel=9 note=41 velocity=127 time=0
EXTRACT: note_on channel=9 note=47 velocity=127 time=0
EXTRACT: note_on channel=9 note=70 velocity=0 time=0.261160575
EXTRACT: note_on channel=9 note=41 velocity=0 time=0
EXTRACT: note_on channel=9 note=47 velocity=0 time=0
EXTRACT: note_on channel=9 note=70 velocity=127 time=0.006696425000000001
EXTRACT: note_on channel=9 note=41 velocity=127 time=0
EXTRACT: note_on channel=9 note=47 velocity=127 time=0
EXTRACT: note_on channel=9 note=70 velocity=0 time=0.261160575
EXTRACT: note_on channel=9 note=41 velocity=0 time=0
EXTRACT: note_on channel=9 note=47 velocity=0 time=0
EXTRACT: note_on channel=1 note=54 velocity=0 time=0.006696425000000001
EXTRACT: note_on channel=1 note=56 velocity=0 time=0
EXTRACT: note_on channel=1 note=59 velocity=0 time=0
EXTRACT: note_on channel=2 note=44 velocity=0 time=0
EXTRACT: note_on channel=9 note=70 velocity=127 time=0
EXTRACT: note_on channel=9 note=41 velocity=127 time=0
EXTRACT: note_on channel=9 note=47 velocity=127 time=0
EXTRACT: note_on channel=5 note=54 velocity=0 time=0
EXTRACT: note_on channel=5 note=56 velocity=0 time=0
EXTRACT: note_on channel=5 note=59 velocity=0 time=0
EXTRACT: note_on channel=10 note=54 velocity=0 time=0
EXTRACT: note_on channel=10 note=56 velocity=0 time=0
EXTRACT: note_on channel=10 note=59 velocity=0 time=0
EXTRACT: note_on channel=6 note=44 velocity=0 time=0
EXTRACT: note_on channel=9 note=70 velocity=0 time=0.127232075
EXTRACT: note_on channel=9 note=41 velocity=0 time=0
EXTRACT: note_on channel=9 note=47 velocity=0 time=0
EXTRACT: note_on channel=1 note=54 velocity=110 time=0.006696425000000001
EXTRACT: note_on channel=1 note=56 velocity=110 time=0
EXTRACT: note_on channel=2 note=37 velocity=110 time=0
EXTRACT: note_on channel=9 note=70 velocity=127 time=0
EXTRACT: note_on channel=9 note=41 velocity=127 time=0
EXTRACT: note_on channel=9 note=47 velocity=127 time=0
EXTRACT: note_on channel=5 note=54 velocity=90 time=0
EXTRACT: note_on channel=5 note=56 velocity=90 time=0
EXTRACT: note_on channel=10 note=54 velocity=90 time=0
EXTRACT: note_on channel=10 note=56 velocity=90 time=0
EXTRACT: note_on channel=6 note=37 velocity=90 time=0
EXTRACT: note_on channel=9 note=70 velocity=0 time=0.261160575
EXTRACT: note_on channel=9 note=41 velocity=0 time=0
EXTRACT: note_on channel=9 note=47 velocity=0 time=0
EXTRACT: note_on channel=9 note=70 velocity=127 time=0.006696425000000001
EXTRACT: note_on channel=9 note=41 velocity=127 time=0
EXTRACT: note_on channel=9 note=47 velocity=127 time=0
EXTRACT: note_on channel=9 note=70 velocity=0 time=0.261160575
EXTRACT: note_on channel=9 note=41 velocity=0 time=0
EXTRACT: note_on channel=9 note=47 velocity=0 time=0
EXTRACT: note_on channel=9 note=70 velocity=127 time=0.006696425000000001
EXTRACT: note_on channel=9 note=41 velocity=127 time=0
EXTRACT: note_on channel=9 note=47 velocity=127 time=0
EXTRACT: note_on channel=9 note=70 velocity=0 time=0.261160575
EXTRACT: note_on channel=9 note=41 velocity=0 time=0
EXTRACT: note_on channel=9 note=47 velocity=0 time=0
EXTRACT: note_on channel=9 note=70 velocity=127 time=0.006696425000000001
EXTRACT: note_on channel=9 note=41 velocity=127 time=0
EXTRACT: note_on channel=9 note=47 velocity=127 time=0
EXTRACT: note_on channel=1 note=54 velocity=0 time=0.1339285
EXTRACT: note_on channel=1 note=56 velocity=0 time=0
EXTRACT: note_on channel=2 note=37 velocity=0 time=0
EXTRACT: note_on channel=5 note=54 velocity=0 time=0
EXTRACT: note_on channel=5 note=56 velocity=0 time=0
EXTRACT: note_on channel=10 note=54 velocity=0 time=0
EXTRACT: note_on channel=10 note=56 velocity=0 time=0
EXTRACT: note_on channel=6 note=37 velocity=0 time=0
EXTRACT: note_on channel=9 note=70 velocity=0 time=0.127232075
EXTRACT: note_on channel=9 note=41 velocity=0 time=0
EXTRACT: note_on channel=9 note=47 velocity=0 time=0
EXTRACT: note_on channel=1 note=54 velocity=110 time=0.006696425000000001
EXTRACT: note_on channel=1 note=58 velocity=110 time=0
EXTRACT: note_on channel=2 note=42 velocity=110 time=0
EXTRACT: note_on channel=9 note=70 velocity=127 time=0
EXTRACT: note_on channel=9 note=41 velocity=127 time=0
EXTRACT: note_on channel=9 note=47 velocity=127 time=0
EXTRACT: note_on channel=5 note=54 velocity=90 time=0
EXTRACT: note_on channel=5 note=58 velocity=90 time=0
EXTRACT: note_on channel=10 note=54 velocity=90 time=0
EXTRACT: note_on channel=10 note=58 velocity=90 time=0
EXTRACT: note_on channel=6 note=42 velocity=90 time=0
EXTRACT: note_on channel=9 note=70 velocity=0 time=0.060267825000000004
EXTRACT: note_on channel=9 note=41 velocity=0 time=0
EXTRACT: note_on channel=9 note=47 velocity=0 time=0
EXTRACT: note_on channel=9 note=70 velocity=127 time=0.006696425000000001
EXTRACT: note_on channel=9 note=41 velocity=127 time=0
EXTRACT: note_on channel=9 note=47 velocity=127 time=0
EXTRACT: note_on channel=9 note=70 velocity=0 time=0.060267825000000004
EXTRACT: note_on channel=9 note=41 velocity=0 time=0
EXTRACT: note_on channel=9 note=47 velocity=0 time=0
EXTRACT: note_on channel=9 note=70 velocity=127 time=0.006696425000000001
EXTRACT: note_on channel=9 note=41 velocity=127 time=0
EXTRACT: note_on channel=9 note=47 velocity=127 time=0
EXTRACT: note_on channel=9 note=70 velocity=0 time=0.261160575
EXTRACT: note_on channel=9 note=41 velocity=0 time=0
EXTRACT: note_on channel=9 note=47 velocity=0 time=0
EXTRACT: note_on channel=9 note=70 velocity=127 time=0.006696425000000001
EXTRACT: note_on channel=9 note=41 velocity=127 time=0
EXTRACT: note_on channel=9 note=47 velocity=127 time=0
EXTRACT: note_on channel=9 note=70 velocity=0 time=0.261160575
EXTRACT: note_on channel=9 note=41 velocity=0 time=0
EXTRACT: note_on channel=9 note=47 velocity=0 time=0
EXTRACT: note_on channel=9 note=70 velocity=127 time=0.006696425000000001
EXTRACT: note_on channel=9 note=41 velocity=127 time=0
EXTRACT: note_on channel=9 note=47 velocity=127 time=0
EXTRACT: note_on channel=9 note=70 velocity=0 time=0.261160575
EXTRACT: note_on channel=9 note=41 velocity=0 time=0
EXTRACT: note_on channel=9 note=47 velocity=0 time=0
EXTRACT: note_on channel=1 note=54 velocity=0 time=0.006696425000000001
EXTRACT: note_on channel=1 note=58 velocity=0 time=0
EXTRACT: note_on channel=2 note=42 velocity=0 time=0
EXTRACT: note_on channel=9 note=70 velocity=127 time=0
EXTRACT: note_on channel=9 note=41 velocity=127 time=0
EXTRACT: note_on channel=9 note=47 velocity=127 time=0
EXTRACT: note_on channel=5 note=54 velocity=0 time=0
EXTRACT: note_on channel=5 note=58 velocity=0 time=0
EXTRACT: note_on channel=10 note=54 velocity=0 time=0
EXTRACT: note_on channel=10 note=58 velocity=0 time=0
EXTRACT: note_on channel=6 note=42 velocity=0 time=0
EXTRACT: note_on channel=9 note=70 velocity=0 time=0.127232075
EXTRACT: note_on channel=9 note=41 velocity=0 time=0
EXTRACT: note_on channel=9 note=47 velocity=0 time=0
EXTRACT: note_on channel=1 note=59 velocity=110 time=0.006696425000000001
EXTRACT: note_on channel=2 note=42 velocity=110 time=0
EXTRACT: note_on channel=9 note=70 velocity=127 time=0
EXTRACT: note_on channel=9 note=41 velocity=127 time=0
EXTRACT: note_on channel=9 note=47 velocity=127 time=0
EXTRACT: note_on channel=5 note=59 velocity=90 time=0
EXTRACT: note_on channel=10 note=59 velocity=90 time=0
EXTRACT: note_on channel=6 note=42 velocity=90 time=0
EXTRACT: note_on channel=9 note=70 velocity=0 time=0.261160575
EXTRACT: note_on channel=9 note=41 velocity=0 time=0
EXTRACT: note_on channel=9 note=47 velocity=0 time=0
EXTRACT: note_on channel=9 note=70 velocity=127 time=0.006696425000000001
EXTRACT: note_on channel=9 note=41 velocity=127 time=0
EXTRACT: note_on channel=9 note=47 velocity=127 time=0
EXTRACT: note_on channel=9 note=70 velocity=0 time=0.261160575
EXTRACT: note_on channel=9 note=41 velocity=0 time=0
EXTRACT: note_on channel=9 note=47 velocity=0 time=0
EXTRACT: note_on channel=9 note=70 velocity=127 time=0.006696425000000001
EXTRACT: note_on channel=9 note=41 velocity=127 time=0
EXTRACT: note_on channel=9 note=47 velocity=127 time=0
EXTRACT: note_on channel=9 note=70 velocity=0 time=0.261160575
EXTRACT: note_on channel=9 note=41 velocity=0 time=0
EXTRACT: note_on channel=9 note=47 velocity=0 time=0
EXTRACT: note_on channel=9 note=70 velocity=127 time=0.006696425000000001
EXTRACT: note_on channel=9 note=41 velocity=127 time=0
EXTRACT: note_on channel=9 note=47 velocity=127 time=0
EXTRACT: note_on channel=1 note=59 velocity=0 time=0.1339285
EXTRACT: note_on channel=2 note=42 velocity=0 time=0
EXTRACT: note_on channel=5 note=59 velocity=0 time=0
EXTRACT: note_on channel=10 note=59 velocity=0 time=0
EXTRACT: note_on channel=6 note=42 velocity=0 time=0
EXTRACT: note_on channel=9 note=70 velocity=0 time=0.127232075
EXTRACT: note_on channel=9 note=41 velocity=0 time=0
EXTRACT: note_on channel=9 note=47 velocity=0 time=0
EXTRACT: note_on channel=1 note=54 velocity=110 time=0.006696425000000001
EXTRACT: note_on channel=1 note=56 velocity=110 time=0
EXTRACT: note_on channel=1 note=59 velocity=110 time=0
EXTRACT: note_on channel=2 note=44 velocity=110 time=0
EXTRACT: note_on channel=9 note=70 velocity=127 time=0
EXTRACT: note_on channel=9 note=41 velocity=127 time=0
EXTRACT: note_on channel=9 note=47 velocity=127 time=0
EXTRACT: note_on channel=5 note=54 velocity=90 time=0
EXTRACT: note_on channel=5 note=56 velocity=90 time=0
EXTRACT: note_on channel=5 note=59 velocity=90 time=0
EXTRACT: note_on channel=10 note=54 velocity=90 time=0
EXTRACT: note_on channel=10 note=56 velocity=90 time=0
EXTRACT: note_on channel=10 note=59 velocity=90 time=0
EXTRACT: note_on channel=6 note=44 velocity=90 time=0
EXTRACT: note_on channel=9 note=70 velocity=0 time=0.060267825000000004
EXTRACT: note_on channel=9 note=41 velocity=0 time=0
EXTRACT: note_on channel=9 note=47 velocity=0 time=0
EXTRACT: note_on channel=9 note=70 velocity=127 time=0.006696425000000001
EXTRACT: note_on channel=9 note=41 velocity=127 time=0
EXTRACT: note_on channel=9 note=47 velocity=127 time=0
EXTRACT: note_on channel=9 note=70 velocity=0 time=0.060267825000000004
EXTRACT: note_on channel=9 note=41 velocity=0 time=0
EXTRACT: note_on channel=9 note=47 velocity=0 time=0
EXTRACT: note_on channel=9 note=70 velocity=127 time=0.006696425000000001
EXTRACT: note_on channel=9 note=41 velocity=127 time=0
EXTRACT: note_on channel=9 note=47 velocity=127 time=0
EXTRACT: note_on channel=9 note=70 velocity=0 time=0.261160575
EXTRACT: note_on channel=9 note=41 velocity=0 time=0
EXTRACT: note_on channel=9 note=47 velocity=0 time=0
EXTRACT: note_on channel=9 note=70 velocity=127 time=0.006696425000000001
EXTRACT: note_on channel=9 note=41 velocity=127 time=0
EXTRACT: note_on channel=9 note=47 velocity=127 time=0
EXTRACT: note_on channel=9 note=70 velocity=0 time=0.261160575
EXTRACT: note_on channel=9 note=41 velocity=0 time=0
EXTRACT: note_on channel=9 note=47 velocity=0 time=0
EXTRACT: note_on channel=9 note=70 velocity=127 time=0.006696425000000001
EXTRACT: note_on channel=9 note=41 velocity=127 time=0
EXTRACT: note_on channel=9 note=47 velocity=127 time=0
EXTRACT: note_on channel=9 note=70 velocity=0 time=0.261160575
EXTRACT: note_on channel=9 note=41 velocity=0 time=0
EXTRACT: note_on channel=9 note=47 velocity=0 time=0
EXTRACT: note_on channel=1 note=54 velocity=0 time=0.006696425000000001
EXTRACT: note_on channel=1 note=56 velocity=0 time=0
EXTRACT: note_on channel=1 note=59 velocity=0 time=0
EXTRACT: note_on channel=2 note=44 velocity=0 time=0
EXTRACT: note_on channel=9 note=70 velocity=127 time=0
EXTRACT: note_on channel=9 note=41 velocity=127 time=0
EXTRACT: note_on channel=9 note=47 velocity=127 time=0
EXTRACT: note_on channel=5 note=54 velocity=0 time=0
EXTRACT: note_on channel=5 note=56 velocity=0 time=0
EXTRACT: note_on channel=5 note=59 velocity=0 time=0
EXTRACT: note_on channel=10 note=54 velocity=0 time=0
EXTRACT: note_on channel=10 note=56 velocity=0 time=0
EXTRACT: note_on channel=10 note=59 velocity=0 time=0
EXTRACT: note_on channel=6 note=44 velocity=0 time=0
EXTRACT: note_on channel=9 note=70 velocity=0 time=0.127232075
EXTRACT: note_on channel=9 note=41 velocity=0 time=0
EXTRACT: note_on channel=9 note=47 velocity=0 time=0
EXTRACT: note_on channel=1 note=54 velocity=110 time=0.006696425000000001
EXTRACT: note_on channel=1 note=56 velocity=110 time=0
EXTRACT: note_on channel=2 note=37 velocity=110 time=0
EXTRACT: note_on channel=9 note=70 velocity=127 time=0
EXTRACT: note_on channel=9 note=41 velocity=127 time=0
EXTRACT: note_on channel=9 note=47 velocity=127 time=0
EXTRACT: note_on channel=5 note=54 velocity=90 time=0
EXTRACT: note_on channel=5 note=56 velocity=90 time=0
EXTRACT: note_on channel=10 note=54 velocity=90 time=0
EXTRACT: note_on channel=10 note=56 velocity=90 time=0
EXTRACT: note_on channel=6 note=37 velocity=90 time=0
EXTRACT: note_on channel=9 note=70 velocity=0 time=0.261160575
EXTRACT: note_on channel=9 note=41 velocity=0 time=0
EXTRACT: note_on channel=9 note=47 velocity=0 time=0
EXTRACT: note_on channel=9 note=70 velocity=127 time=0.006696425000000001
EXTRACT: note_on channel=9 note=41 velocity=127 time=0
EXTRACT: note_on channel=9 note=47 velocity=127 time=0
EXTRACT: note_on channel=9 note=70 velocity=0 time=0.261160575
EXTRACT: note_on channel=9 note=41 velocity=0 time=0
EXTRACT: note_on channel=9 note=47 velocity=0 time=0
EXTRACT: note_on channel=9 note=70 velocity=127 time=0.006696425000000001
EXTRACT: note_on channel=9 note=41 velocity=127 time=0
EXTRACT: note_on channel=9 note=47 velocity=127 time=0
EXTRACT: note_on channel=1 note=54 velocity=0 time=0.17857133333333333
EXTRACT: note_on channel=1 note=56 velocity=0 time=0
EXTRACT: note_on channel=5 note=54 velocity=0 time=0
EXTRACT: note_on channel=5 note=56 velocity=0 time=0
EXTRACT: note_on channel=10 note=54 velocity=0 time=0
EXTRACT: note_on channel=10 note=56 velocity=0 time=0
EXTRACT: note_on channel=9 note=70 velocity=0 time=0.08258924166666667
EXTRACT: note_on channel=9 note=41 velocity=0 time=0
EXTRACT: note_on channel=9 note=47 velocity=0 time=0
EXTRACT: note_on channel=0 note=61 velocity=110 time=0.006696425000000001
EXTRACT: note_on channel=1 note=61 velocity=110 time=0
EXTRACT: note_on channel=9 note=70 velocity=127 time=0
EXTRACT: note_on channel=9 note=41 velocity=127 time=0
EXTRACT: note_on channel=9 note=47 velocity=127 time=0
EXTRACT: note_on channel=5 note=61 velocity=90 time=0
EXTRACT: note_on channel=10 note=61 velocity=90 time=0
EXTRACT: note_on channel=2 note=37 velocity=0 time=0.1339285
EXTRACT: note_on channel=6 note=37 velocity=0 time=0
EXTRACT: note_on channel=0 note=61 velocity=0 time=0.127232075
EXTRACT: note_on channel=1 note=61 velocity=0 time=0
EXTRACT: note_on channel=9 note=70 velocity=0 time=0
EXTRACT: note_on channel=9 note=41 velocity=0 time=0
EXTRACT: note_on channel=9 note=47 velocity=0 time=0
EXTRACT: note_on channel=5 note=61 velocity=0 time=0
EXTRACT: note_on channel=10 note=61 velocity=0 time=0
EXTRACT: note_on channel=0 note=70 velocity=110 time=0.006696425000000001
EXTRACT: note_on channel=1 note=61 velocity=110 time=0
EXTRACT: note_on channel=1 note=66 velocity=110 time=0
EXTRACT: note_on channel=1 note=70 velocity=110 time=0
EXTRACT: note_on channel=2 note=42 velocity=110 time=0
EXTRACT: note_on channel=9 note=70 velocity=127 time=0
EXTRACT: note_on channel=9 note=41 velocity=127 time=0
EXTRACT: note_on channel=9 note=47 velocity=127 time=0
EXTRACT: note_on channel=5 note=61 velocity=90 time=0
EXTRACT: note_on channel=5 note=66 velocity=90 time=0
EXTRACT: note_on channel=5 note=70 velocity=90 time=0
EXTRACT: note_on channel=10 note=61 velocity=90 time=0
EXTRACT: note_on channel=10 note=66 velocity=90 time=0
EXTRACT: note_on channel=10 note=70 velocity=90 time=0
EXTRACT: note_on channel=6 note=42 velocity=90 time=0
EXTRACT: note_on channel=9 note=70 velocity=0 time=0.060267825000000004
EXTRACT: note_on channel=9 note=41 velocity=0 time=0
EXTRACT: note_on channel=9 note=47 velocity=0 time=0
EXTRACT: note_on channel=9 note=70 velocity=127 time=0.006696425000000001
EXTRACT: note_on channel=9 note=41 velocity=127 time=0
EXTRACT: note_on channel=9 note=47 velocity=127 time=0
EXTRACT: note_on channel=9 note=70 velocity=0 time=0.060267825000000004
EXTRACT: note_on channel=9 note=41 velocity=0 time=0
EXTRACT: note_on channel=9 note=47 velocity=0 time=0
EXTRACT: note_on channel=9 note=70 velocity=127 time=0.006696425000000001
EXTRACT: note_on channel=9 note=41 velocity=127 time=0
EXTRACT: note_on channel=9 note=47 velocity=127 time=0
EXTRACT: note_on channel=0 note=70 velocity=0 time=0.127232075
EXTRACT: note_on channel=1 note=61 velocity=0 time=0
EXTRACT: note_on channel=1 note=66 velocity=0 time=0
EXTRACT: note_on channel=1 note=70 velocity=0 time=0
EXTRACT: note_on channel=5 note=61 velocity=0 time=0
EXTRACT: note_on channel=5 note=66 velocity=0 time=0
EXTRACT: note_on channel=5 note=70 velocity=0 time=0
EXTRACT: note_on channel=10 note=61 velocity=0 time=0
EXTRACT: note_on channel=10 note=66 velocity=0 time=0
EXTRACT: note_on channel=10 note=70 velocity=0 time=0
EXTRACT: note_on channel=0 note=70 velocity=110 time=0.006696425000000001
EXTRACT: note_on channel=1 note=70 velocity=110 time=0
EXTRACT: note_on channel=5 note=70 velocity=90 time=0
EXTRACT: note_on channel=10 note=70 velocity=90 time=0
EXTRACT: note_on channel=0 note=70 velocity=0 time=0.127232075
EXTRACT: note_on channel=1 note=70 velocity=0 time=0
EXTRACT: note_on channel=9 note=70 velocity=0 time=0
EXTRACT: note_on channel=9 note=41 velocity=0 time=0
EXTRACT: note_on channel=9 note=47 velocity=0 time=0
EXTRACT: note_on channel=5 note=70 velocity=0 time=0
EXTRACT: note_on channel=10 note=70 velocity=0 time=0
EXTRACT: note_on channel=0 note=70 velocity=110 time=0.006696425000000001
EXTRACT: note_on channel=1 note=70 velocity=110 time=0
EXTRACT: note_on channel=9 note=70 velocity=127 time=0
EXTRACT: note_on channel=9 note=41 velocity=127 time=0
EXTRACT: note_on channel=9 note=47 velocity=127 time=0
EXTRACT: note_on channel=5 note=70 velocity=90 time=0
EXTRACT: note_on channel=10 note=70 velocity=90 time=0
EXTRACT: note_on channel=9 note=70 velocity=0 time=0.261160575
EXTRACT: note_on channel=9 note=41 velocity=0 time=0
EXTRACT: note_on channel=9 note=47 velocity=0 time=0
EXTRACT: note_on channel=9 note=70 velocity=127 time=0.006696425000000001
EXTRACT: note_on channel=9 note=41 velocity=127 time=0
EXTRACT: note_on channel=9 note=47 velocity=127 time=0
EXTRACT: note_on channel=0 note=70 velocity=0 time=0.127232075
EXTRACT: note_on channel=1 note=70 velocity=0 time=0
EXTRACT: note_on channel=5 note=70 velocity=0 time=0
EXTRACT: note_on channel=10 note=70 velocity=0 time=0
EXTRACT: note_on channel=0 note=70 velocity=110 time=0.006696425000000001
EXTRACT: note_on channel=1 note=70 velocity=110 time=0
EXTRACT: note_on channel=5 note=70 velocity=90 time=0
EXTRACT: note_on channel=10 note=70 velocity=90 time=0
EXTRACT: note_on channel=9 note=70 velocity=0 time=0.127232075
EXTRACT: note_on channel=9 note=41 velocity=0 time=0
EXTRACT: note_on channel=9 note=47 velocity=0 time=0
EXTRACT: note_on channel=2 note=42 velocity=0 time=0.006696425000000001
EXTRACT: note_on channel=9 note=70 velocity=127 time=0
EXTRACT: note_on channel=9 note=41 velocity=127 time=0
EXTRACT: note_on channel=9 note=47 velocity=127 time=0
EXTRACT: note_on channel=6 note=42 velocity=0 time=0
EXTRACT: note_on channel=0 note=70 velocity=0 time=0.127232075
EXTRACT: note_on channel=1 note=70 velocity=0 time=0
EXTRACT: note_on channel=9 note=70 velocity=0 time=0
EXTRACT: note_on channel=9 note=41 velocity=0 time=0
EXTRACT: note_on channel=9 note=47 velocity=0 time=0
EXTRACT: note_on channel=5 note=70 velocity=0 time=0
EXTRACT: note_on channel=10 note=70 velocity=0 time=0
EXTRACT: note_on channel=0 note=70 velocity=110 time=0.006696425000000001
EXTRACT: note_on channel=1 note=70 velocity=110 time=0
EXTRACT: note_on channel=2 note=42 velocity=110 time=0
EXTRACT: note_on channel=9 note=70 velocity=127 time=0
EXTRACT: note_on channel=9 note=41 velocity=127 time=0
EXTRACT: note_on channel=9 note=47 velocity=127 time=0
EXTRACT: note_on channel=5 note=70 velocity=90 time=0
EXTRACT: note_on channel=10 note=70 velocity=90 time=0
EXTRACT: note_on channel=6 note=42 velocity=90 time=0
EXTRACT: note_on channel=0 note=70 velocity=0 time=0.127232075
EXTRACT: note_on channel=1 note=70 velocity=0 time=0
EXTRACT: note_on channel=5 note=70 velocity=0 time=0
EXTRACT: note_on channel=10 note=70 velocity=0 time=0
EXTRACT: note_on channel=0 note=71 velocity=110 time=0.006696425000000001
EXTRACT: note_on channel=1 note=71 velocity=110 time=0
EXTRACT: note_on channel=5 note=71 velocity=90 time=0
EXTRACT: note_on channel=10 note=71 velocity=90 time=0
EXTRACT: note_on channel=9 note=70 velocity=0 time=0.127232075
EXTRACT: note_on channel=9 note=41 velocity=0 time=0
EXTRACT: note_on channel=9 note=47 velocity=0 time=0
EXTRACT: note_on channel=9 note=70 velocity=127 time=0.006696425000000001
EXTRACT: note_on channel=9 note=41 velocity=127 time=0
EXTRACT: note_on channel=9 note=47 velocity=127 time=0
EXTRACT: note_on channel=0 note=71 velocity=0 time=0.127232075
EXTRACT: note_on channel=1 note=71 velocity=0 time=0
EXTRACT: note_on channel=5 note=71 velocity=0 time=0
EXTRACT: note_on channel=10 note=71 velocity=0 time=0
EXTRACT: note_on channel=0 note=71 velocity=110 time=0.006696425000000001
EXTRACT: note_on channel=1 note=71 velocity=110 time=0
EXTRACT: note_on channel=5 note=71 velocity=90 time=0
EXTRACT: note_on channel=10 note=71 velocity=90 time=0
EXTRACT: note_on channel=9 note=70 velocity=0 time=0.127232075
EXTRACT: note_on channel=9 note=41 velocity=0 time=0
EXTRACT: note_on channel=9 note=47 velocity=0 time=0
EXTRACT: note_on channel=9 note=70 velocity=127 time=0.006696425000000001
EXTRACT: note_on channel=9 note=41 velocity=127 time=0
EXTRACT: note_on channel=9 note=47 velocity=127 time=0
EXTRACT: note_on channel=0 note=71 velocity=0 time=0.261160575
EXTRACT: note_on channel=1 note=71 velocity=0 time=0
EXTRACT: note_on channel=9 note=70 velocity=0 time=0
EXTRACT: note_on channel=9 note=41 velocity=0 time=0
EXTRACT: note_on channel=9 note=47 velocity=0 time=0
EXTRACT: note_on channel=5 note=71 velocity=0 time=0
EXTRACT: note_on channel=10 note=71 velocity=0 time=0
EXTRACT: note_on channel=0 note=70 velocity=110 time=0.006696425000000001
EXTRACT: note_on channel=1 note=70 velocity=110 time=0
EXTRACT: note_on channel=9 note=70 velocity=127 time=0
EXTRACT: note_on channel=9 note=41 velocity=127 time=0
EXTRACT: note_on channel=9 note=47 velocity=127 time=0
EXTRACT: note_on channel=5 note=70 velocity=90 time=0
EXTRACT: note_on channel=10 note=70 velocity=90 time=0
EXTRACT: note_on channel=2 note=42 velocity=0 time=0.1339285
EXTRACT: note_on channel=6 note=42 velocity=0 time=0
EXTRACT: note_on channel=0 note=70 velocity=0 time=0.127232075
EXTRACT: note_on channel=1 note=70 velocity=0 time=0
EXTRACT: note_on channel=9 note=70 velocity=0 time=0
EXTRACT: note_on channel=9 note=41 velocity=0 time=0
EXTRACT: note_on channel=9 note=47 velocity=0 time=0
EXTRACT: note_on channel=5 note=70 velocity=0 time=0
EXTRACT: note_on channel=10 note=70 velocity=0 time=0
EXTRACT: note_on channel=0 note=70 velocity=110 time=0.006696425000000001
EXTRACT: note_on channel=1 note=59 velocity=110 time=0
EXTRACT: note_on channel=1 note=63 velocity=110 time=0
EXTRACT: note_on channel=1 note=70 velocity=110 time=0
EXTRACT: note_on channel=2 note=44 velocity=110 time=0
EXTRACT: note_on channel=9 note=70 velocity=127 time=0
EXTRACT: note_on channel=9 note=41 velocity=127 time=0
EXTRACT: note_on channel=9 note=47 velocity=127 time=0
EXTRACT: note_on channel=5 note=59 velocity=90 time=0
EXTRACT: note_on channel=5 note=63 velocity=90 time=0
EXTRACT: note_on channel=5 note=70 velocity=90 time=0
EXTRACT: note_on channel=10 note=59 velocity=90 time=0
EXTRACT: note_on channel=10 note=63 velocity=90 time=0
EXTRACT: note_on channel=10 note=70 velocity=90 time=0
EXTRACT: note_on channel=6 note=44 velocity=90 time=0
EXTRACT: note_on channel=9 note=70 velocity=0 time=0.060267825000000004
EXTRACT: note_on channel=9 note=41 velocity=0 time=0
EXTRACT: note_on channel=9 note=47 velocity=0 time=0
EXTRACT: note_on channel=9 note=70 velocity=127 time=0.006696425000000001
EXTRACT: note_on channel=9 note=41 velocity=127 time=0
EXTRACT: note_on channel=9 note=47 velocity=127 time=0
EXTRACT: note_on channel=0 note=70 velocity=0 time=0.060267825000000004
EXTRACT: note_on channel=1 note=59 velocity=0 time=0
EXTRACT: note_on channel=1 note=63 velocity=0 time=0
EXTRACT: note_on channel=1 note=70 velocity=0 time=0
EXTRACT: note_on channel=9 note=70 velocity=0 time=0
EXTRACT: note_on channel=9 note=41 velocity=0 time=0
EXTRACT: note_on channel=9 note=47 velocity=0 time=0
EXTRACT: note_on channel=5 note=59 velocity=0 time=0
EXTRACT: note_on channel=5 note=63 velocity=0 time=0
EXTRACT: note_on channel=5 note=70 velocity=0 time=0
EXTRACT: note_on channel=10 note=59 velocity=0 time=0
EXTRACT: note_on channel=10 note=63 velocity=0 time=0
EXTRACT: note_on channel=10 note=70 velocity=0 time=0
EXTRACT: note_on channel=0 note=68 velocity=110 time=0.006696425000000001
EXTRACT: note_on channel=1 note=68 velocity=110 time=0
EXTRACT: note_on channel=9 note=70 velocity=127 time=0
EXTRACT: note_on channel=9 note=41 velocity=127 time=0
EXTRACT: note_on channel=9 note=47 velocity=127 time=0
EXTRACT: note_on channel=5 note=68 velocity=90 time=0
EXTRACT: note_on channel=10 note=68 velocity=90 time=0
EXTRACT: note_on channel=0 note=68 velocity=0 time=0.261160575
EXTRACT: note_on channel=1 note=68 velocity=0 time=0
EXTRACT: note_on channel=9 note=70 velocity=0 time=0
EXTRACT: note_on channel=9 note=41 velocity=0 time=0
EXTRACT: note_on channel=9 note=47 velocity=0 time=0
EXTRACT: note_on channel=5 note=68 velocity=0 time=0
EXTRACT: note_on channel=10 note=68 velocity=0 time=0
EXTRACT: note_on channel=0 note=68 velocity=110 time=0.006696425000000001
EXTRACT: note_on channel=1 note=68 velocity=110 time=0
EXTRACT: note_on channel=9 note=70 velocity=127 time=0
EXTRACT: note_on channel=9 note=41 velocity=127 time=0
EXTRACT: note_on channel=9 note=47 velocity=127 time=0
EXTRACT: note_on channel=5 note=68 velocity=90 time=0
EXTRACT: note_on channel=10 note=68 velocity=90 time=0
EXTRACT: note_on channel=0 note=68 velocity=0 time=0.261160575
EXTRACT: note_on channel=1 note=68 velocity=0 time=0
EXTRACT: note_on channel=9 note=70 velocity=0 time=0
EXTRACT: note_on channel=9 note=41 velocity=0 time=0
EXTRACT: note_on channel=9 note=47 velocity=0 time=0
EXTRACT: note_on channel=5 note=68 velocity=0 time=0
EXTRACT: note_on channel=10 note=68 velocity=0 time=0
EXTRACT: note_on channel=0 note=66 velocity=110 time=0.006696425000000001
EXTRACT: note_on channel=1 note=66 velocity=110 time=0
EXTRACT: note_on channel=9 note=70 velocity=127 time=0
EXTRACT: note_on channel=9 note=41 velocity=127 time=0
EXTRACT: note_on channel=9 note=47 velocity=127 time=0
EXTRACT: note_on channel=5 note=66 velocity=90 time=0
EXTRACT: note_on channel=10 note=66 velocity=90 time=0
EXTRACT: note_on channel=0 note=66 velocity=0 time=0.261160575
EXTRACT: note_on channel=1 note=66 velocity=0 time=0
EXTRACT: note_on channel=9 note=70 velocity=0 time=0
EXTRACT: note_on channel=9 note=41 velocity=0 time=0
EXTRACT: note_on channel=9 note=47 velocity=0 time=0
EXTRACT: note_on channel=5 note=66 velocity=0 time=0
EXTRACT: note_on channel=10 note=66 velocity=0 time=0
EXTRACT: note_on channel=0 note=68 velocity=110 time=0.006696425000000001
EXTRACT: note_on channel=1 note=61 velocity=110 time=0
EXTRACT: note_on channel=1 note=66 velocity=110 time=0
EXTRACT: note_on channel=1 note=68 velocity=110 time=0
EXTRACT: note_on channel=2 note=44 velocity=0 time=0
EXTRACT: note_on channel=9 note=70 velocity=127 time=0
EXTRACT: note_on channel=9 note=41 velocity=127 time=0
EXTRACT: note_on channel=9 note=47 velocity=127 time=0
EXTRACT: note_on channel=5 note=61 velocity=90 time=0
EXTRACT: note_on channel=5 note=66 velocity=90 time=0
EXTRACT: note_on channel=5 note=68 velocity=90 time=0
EXTRACT: note_on channel=10 note=61 velocity=90 time=0
EXTRACT: note_on channel=10 note=66 velocity=90 time=0
EXTRACT: note_on channel=10 note=68 velocity=90 time=0
EXTRACT: note_on channel=6 note=44 velocity=0 time=0
EXTRACT: note_on channel=9 note=70 velocity=0 time=0.127232075
EXTRACT: note_on channel=9 note=41 velocity=0 time=0
EXTRACT: note_on channel=9 note=47 velocity=0 time=0
EXTRACT: note_on channel=2 note=37 velocity=110 time=0.006696425000000001
EXTRACT: note_on channel=9 note=70 velocity=127 time=0
EXTRACT: note_on channel=9 note=41 velocity=127 time=0
EXTRACT: note_on channel=9 note=47 velocity=127 time=0
EXTRACT: note_on channel=6 note=37 velocity=90 time=0
EXTRACT: note_on channel=9 note=70 velocity=0 time=0.261160575
EXTRACT: note_on channel=9 note=41 velocity=0 time=0
EXTRACT: note_on channel=9 note=47 velocity=0 time=0
EXTRACT: note_on channel=9 note=70 velocity=127 time=0.006696425000000001
EXTRACT: note_on channel=9 note=41 velocity=127 time=0
EXTRACT: note_on channel=9 note=47 velocity=127 time=0
EXTRACT: note_on channel=0 note=68 velocity=0 time=0.17857133333333333
EXTRACT: note_on channel=9 note=70 velocity=0 time=0.08258924166666667
EXTRACT: note_on channel=9 note=41 velocity=0 time=0
EXTRACT: note_on channel=9 note=47 velocity=0 time=0
EXTRACT: note_on channel=9 note=70 velocity=127 time=0.006696425000000001
EXTRACT: note_on channel=9 note=41 velocity=127 time=0
EXTRACT: note_on channel=9 note=47 velocity=127 time=0
EXTRACT: note_on channel=9 note=70 velocity=0 time=0.261160575
EXTRACT: note_on channel=9 note=41 velocity=0 time=0
EXTRACT: note_on channel=9 note=47 velocity=0 time=0
EXTRACT: note_on channel=9 note=70 velocity=127 time=0.006696425000000001
EXTRACT: note_on channel=9 note=41 velocity=127 time=0
EXTRACT: note_on channel=9 note=47 velocity=127 time=0
EXTRACT: note_on channel=1 note=61 velocity=0 time=0.127232075
EXTRACT: note_on channel=1 note=66 velocity=0 time=0
EXTRACT: note_on channel=1 note=68 velocity=0 time=0
EXTRACT: note_on channel=5 note=61 velocity=0 time=0
EXTRACT: note_on channel=5 note=66 velocity=0 time=0
EXTRACT: note_on channel=5 note=68 velocity=0 time=0
EXTRACT: note_on channel=10 note=61 velocity=0 time=0
EXTRACT: note_on channel=10 note=66 velocity=0 time=0
EXTRACT: note_on channel=10 note=68 velocity=0 time=0
EXTRACT: note_on channel=0 note=61 velocity=110 time=0.006696425000000001
EXTRACT: note_on channel=1 note=61 velocity=110 time=0
EXTRACT: note_on channel=2 note=37 velocity=0 time=0
EXTRACT: note_on channel=5 note=61 velocity=90 time=0
EXTRACT: note_on channel=10 note=61 velocity=90 time=0
EXTRACT: note_on channel=6 note=37 velocity=0 time=0
EXTRACT: note_on channel=0 note=61 velocity=0 time=0.127232075
EXTRACT: note_on channel=1 note=61 velocity=0 time=0
EXTRACT: note_on channel=9 note=70 velocity=0 time=0
EXTRACT: note_on channel=9 note=41 velocity=0 time=0
EXTRACT: note_on channel=9 note=47 velocity=0 time=0
EXTRACT: note_on channel=5 note=61 velocity=0 time=0
EXTRACT: note_on channel=10 note=61 velocity=0 time=0
EXTRACT: note_on channel=0 note=70 velocity=110 time=0.006696425000000001
EXTRACT: note_on channel=1 note=61 velocity=110 time=0
EXTRACT: note_on channel=1 note=66 velocity=110 time=0
EXTRACT: note_on channel=1 note=70 velocity=110 time=0
EXTRACT: note_on channel=2 note=42 velocity=110 time=0
EXTRACT: note_on channel=9 note=70 velocity=127 time=0
EXTRACT: note_on channel=9 note=41 velocity=127 time=0
EXTRACT: note_on channel=9 note=47 velocity=127 time=0
EXTRACT: note_on channel=5 note=61 velocity=90 time=0
EXTRACT: note_on channel=5 note=66 velocity=90 time=0
EXTRACT: note_on channel=5 note=70 velocity=90 time=0
EXTRACT: note_on channel=10 note=61 velocity=90 time=0
EXTRACT: note_on channel=10 note=66 velocity=90 time=0
EXTRACT: note_on channel=10 note=70 velocity=90 time=0
EXTRACT: note_on channel=6 note=42 velocity=90 time=0
EXTRACT: note_on channel=9 note=70 velocity=0 time=0.060267825000000004
EXTRACT: note_on channel=9 note=41 velocity=0 time=0
EXTRACT: note_on channel=9 note=47 velocity=0 time=0
EXTRACT: note_on channel=9 note=70 velocity=127 time=0.006696425000000001
EXTRACT: note_on channel=9 note=41 velocity=127 time=0
EXTRACT: note_on channel=9 note=47 velocity=127 time=0
EXTRACT: note_on channel=0 note=70 velocity=0 time=0.060267825000000004
EXTRACT: note_on channel=1 note=61 velocity=0 time=0
EXTRACT: note_on channel=1 note=66 velocity=0 time=0
EXTRACT: note_on channel=1 note=70 velocity=0 time=0
EXTRACT: note_on channel=9 note=70 velocity=0 time=0
EXTRACT: note_on channel=9 note=41 velocity=0 time=0
EXTRACT: note_on channel=9 note=47 velocity=0 time=0
EXTRACT: note_on channel=5 note=61 velocity=0 time=0
EXTRACT: note_on channel=5 note=66 velocity=0 time=0
EXTRACT: note_on channel=5 note=70 velocity=0 time=0
EXTRACT: note_on channel=10 note=61 velocity=0 time=0
EXTRACT: note_on channel=10 note=66 velocity=0 time=0
EXTRACT: note_on channel=10 note=70 velocity=0 time=0
EXTRACT: note_on channel=0 note=70 velocity=110 time=0.006696425000000001
EXTRACT: note_on channel=1 note=70 velocity=110 time=0
EXTRACT: note_on channel=9 note=70 velocity=127 time=0
EXTRACT: note_on channel=9 note=41 velocity=127 time=0
EXTRACT: note_on channel=9 note=47 velocity=127 time=0
EXTRACT: note_on channel=5 note=70 velocity=90 time=0
EXTRACT: note_on channel=10 note=70 velocity=90 time=0
EXTRACT: note_on channel=0 note=70 velocity=0 time=0.261160575
EXTRACT: note_on channel=1 note=70 velocity=0 time=0
EXTRACT: note_on channel=9 note=70 velocity=0 time=0
EXTRACT: note_on channel=9 note=41 velocity=0 time=0
EXTRACT: note_on channel=9 note=47 velocity=0 time=0
EXTRACT: note_on channel=5 note=70 velocity=0 time=0
EXTRACT: note_on channel=10 note=70 velocity=0 time=0
EXTRACT: note_on channel=0 note=70 velocity=110 time=0.006696425000000001
EXTRACT: note_on channel=1 note=70 velocity=110 time=0
EXTRACT: note_on channel=9 note=70 velocity=127 time=0
EXTRACT: note_on channel=9 note=41 velocity=127 time=0
EXTRACT: note_on channel=9 note=47 velocity=127 time=0
EXTRACT: note_on channel=5 note=70 velocity=90 time=0
EXTRACT: note_on channel=10 note=70 velocity=90 time=0
EXTRACT: note_on channel=0 note=70 velocity=0 time=0.261160575
EXTRACT: note_on channel=1 note=70 velocity=0 time=0
EXTRACT: note_on channel=9 note=70 velocity=0 time=0
EXTRACT: note_on channel=9 note=41 velocity=0 time=0
EXTRACT: note_on channel=9 note=47 velocity=0 time=0
EXTRACT: note_on channel=5 note=70 velocity=0 time=0
EXTRACT: note_on channel=10 note=70 velocity=0 time=0
EXTRACT: note_on channel=0 note=70 velocity=110 time=0.006696425000000001
EXTRACT: note_on channel=1 note=70 velocity=110 time=0
EXTRACT: note_on channel=9 note=70 velocity=127 time=0
EXTRACT: note_on channel=9 note=41 velocity=127 time=0
EXTRACT: note_on channel=9 note=47 velocity=127 time=0
EXTRACT: note_on channel=5 note=70 velocity=90 time=0
EXTRACT: note_on channel=10 note=70 velocity=90 time=0
EXTRACT: note_on channel=0 note=70 velocity=0 time=0.261160575
EXTRACT: note_on channel=1 note=70 velocity=0 time=0
EXTRACT: note_on channel=9 note=70 velocity=0 time=0
EXTRACT: note_on channel=9 note=41 velocity=0 time=0
EXTRACT: note_on channel=9 note=47 velocity=0 time=0
EXTRACT: note_on channel=5 note=70 velocity=0 time=0
EXTRACT: note_on channel=10 note=70 velocity=0 time=0
EXTRACT: note_on channel=0 note=71 velocity=110 time=0.006696425000000001
EXTRACT: note_on channel=1 note=71 velocity=110 time=0
EXTRACT: note_on channel=2 note=42 velocity=0 time=0
EXTRACT: note_on channel=9 note=70 velocity=127 time=0
EXTRACT: note_on channel=9 note=41 velocity=127 time=0
EXTRACT: note_on channel=9 note=47 velocity=127 time=0
EXTRACT: note_on channel=5 note=71 velocity=90 time=0
EXTRACT: note_on channel=10 note=71 velocity=90 time=0
EXTRACT: note_on channel=6 note=42 velocity=0 time=0
EXTRACT: note_on channel=9 note=70 velocity=0 time=0.127232075
EXTRACT: note_on channel=9 note=41 velocity=0 time=0
EXTRACT: note_on channel=9 note=47 velocity=0 time=0
EXTRACT: note_on channel=2 note=42 velocity=110 time=0.006696425000000001
EXTRACT: note_on channel=9 note=70 velocity=127 time=0
EXTRACT: note_on channel=9 note=41 velocity=127 time=0
EXTRACT: note_on channel=9 note=47 velocity=127 time=0
EXTRACT: note_on channel=6 note=42 velocity=90 time=0
EXTRACT: note_on channel=0 note=71 velocity=0 time=0.127232075
EXTRACT: note_on channel=1 note=71 velocity=0 time=0
EXTRACT: note_on channel=5 note=71 velocity=0 time=0
EXTRACT: note_on channel=10 note=71 velocity=0 time=0
EXTRACT: note_on channel=0 note=71 velocity=110 time=0.006696425000000001
EXTRACT: note_on channel=1 note=71 velocity=110 time=0
EXTRACT: note_on channel=5 note=71 velocity=90 time=0
EXTRACT: note_on channel=10 note=71 velocity=90 time=0
EXTRACT: note_on channel=9 note=70 velocity=0 time=0.127232075
EXTRACT: note_on channel=9 note=41 velocity=0 time=0
EXTRACT: note_on channel=9 note=47 velocity=0 time=0
EXTRACT: note_on channel=9 note=70 velocity=127 time=0.006696425000000001
EXTRACT: note_on channel=9 note=41 velocity=127 time=0
EXTRACT: note_on channel=9 note=47 velocity=127 time=0
EXTRACT: note_on channel=0 note=71 velocity=0 time=0.127232075
EXTRACT: note_on channel=1 note=71 velocity=0 time=0
EXTRACT: note_on channel=5 note=71 velocity=0 time=0
EXTRACT: note_on channel=10 note=71 velocity=0 time=0
EXTRACT: note_on channel=0 note=71 velocity=110 time=0.006696425000000001
EXTRACT: note_on channel=1 note=71 velocity=110 time=0
EXTRACT: note_on channel=5 note=71 velocity=90 time=0
EXTRACT: note_on channel=10 note=71 velocity=90 time=0
EXTRACT: note_on channel=9 note=70 velocity=0 time=0.127232075
EXTRACT: note_on channel=9 note=41 velocity=0 time=0
EXTRACT: note_on channel=9 note=47 velocity=0 time=0
EXTRACT: note_on channel=9 note=70 velocity=127 time=0.006696425000000001
EXTRACT: note_on channel=9 note=41 velocity=127 time=0
EXTRACT: note_on channel=9 note=47 velocity=127 time=0
EXTRACT: note_on channel=0 note=71 velocity=0 time=0.127232075
EXTRACT: note_on channel=1 note=71 velocity=0 time=0
EXTRACT: note_on channel=5 note=71 velocity=0 time=0
EXTRACT: note_on channel=10 note=71 velocity=0 time=0
EXTRACT: note_on channel=0 note=70 velocity=110 time=0.006696425000000001
EXTRACT: note_on channel=1 note=70 velocity=110 time=0
EXTRACT: note_on channel=5 note=70 velocity=90 time=0
EXTRACT: note_on channel=10 note=70 velocity=90 time=0
EXTRACT: note_on channel=9 note=70 velocity=0 time=0.127232075
EXTRACT: note_on channel=9 note=41 velocity=0 time=0
EXTRACT: note_on channel=9 note=47 velocity=0 time=0
EXTRACT: note_on channel=9 note=70 velocity=127 time=0.006696425000000001
EXTRACT: note_on channel=9 note=41 velocity=127 time=0
EXTRACT: note_on channel=9 note=47 velocity=127 time=0
EXTRACT: note_on channel=0 note=70 velocity=0 time=0.127232075
EXTRACT: note_on channel=1 note=70 velocity=0 time=0
EXTRACT: note_on channel=5 note=70 velocity=0 time=0
EXTRACT: note_on channel=10 note=70 velocity=0 time=0
EXTRACT: note_on channel=0 note=70 velocity=110 time=0.006696425000000001
EXTRACT: note_on channel=1 note=59 velocity=110 time=0
EXTRACT: note_on channel=1 note=63 velocity=110 time=0
EXTRACT: note_on channel=1 note=70 velocity=110 time=0
EXTRACT: note_on channel=2 note=42 velocity=0 time=0
EXTRACT: note_on channel=5 note=59 velocity=90 time=0
EXTRACT: note_on channel=5 note=63 velocity=90 time=0
EXTRACT: note_on channel=5 note=70 velocity=90 time=0
EXTRACT: note_on channel=10 note=59 velocity=90 time=0
EXTRACT: note_on channel=10 note=63 velocity=90 time=0
EXTRACT: note_on channel=10 note=70 velocity=90 time=0
EXTRACT: note_on channel=6 note=42 velocity=0 time=0
EXTRACT: note_on channel=9 note=70 velocity=0 time=0.127232075
EXTRACT: note_on channel=9 note=41 velocity=0 time=0
EXTRACT: note_on channel=9 note=47 velocity=0 time=0
EXTRACT: note_on channel=2 note=44 velocity=110 time=0.006696425000000001
EXTRACT: note_on channel=9 note=70 velocity=127 time=0
EXTRACT: note_on channel=9 note=41 velocity=127 time=0
EXTRACT: note_on channel=9 note=47 velocity=127 time=0
EXTRACT: note_on channel=6 note=44 velocity=90 time=0
EXTRACT: note_on channel=9 note=70 velocity=0 time=0.060267825000000004
EXTRACT: note_on channel=9 note=41 velocity=0 time=0
EXTRACT: note_on channel=9 note=47 velocity=0 time=0
EXTRACT: note_on channel=9 note=70 velocity=127 time=0.006696425000000001
EXTRACT: note_on channel=9 note=41 velocity=127 time=0
EXTRACT: note_on channel=9 note=47 velocity=127 time=0
EXTRACT: note_on channel=0 note=70 velocity=0 time=0.060267825000000004
EXTRACT: note_on channel=1 note=59 velocity=0 time=0
EXTRACT: note_on channel=1 note=63 velocity=0 time=0
EXTRACT: note_on channel=1 note=70 velocity=0 time=0
EXTRACT: note_on channel=9 note=70 velocity=0 time=0
EXTRACT: note_on channel=9 note=41 velocity=0 time=0
EXTRACT: note_on channel=9 note=47 velocity=0 time=0
EXTRACT: note_on channel=5 note=59 velocity=0 time=0
EXTRACT: note_on channel=5 note=63 velocity=0 time=0
EXTRACT: note_on channel=5 note=70 velocity=0 time=0
EXTRACT: note_on channel=10 note=59 velocity=0 time=0
EXTRACT: note_on channel=10 note=63 velocity=0 time=0
EXTRACT: note_on channel=10 note=70 velocity=0 time=0
EXTRACT: note_on channel=0 note=68 velocity=110 time=0.006696425000000001
EXTRACT: note_on channel=1 note=68 velocity=110 time=0
EXTRACT: note_on channel=9 note=70 velocity=127 time=0
EXTRACT: note_on channel=9 note=41 velocity=127 time=0
EXTRACT: note_on channel=9 note=47 velocity=127 time=0
EXTRACT: note_on channel=5 note=68 velocity=90 time=0
EXTRACT: note_on channel=10 note=68 velocity=90 time=0
EXTRACT: note_on channel=0 note=68 velocity=0 time=0.261160575
EXTRACT: note_on channel=1 note=68 velocity=0 time=0
EXTRACT: note_on channel=9 note=70 velocity=0 time=0
EXTRACT: note_on channel=9 note=41 velocity=0 time=0
EXTRACT: note_on channel=9 note=47 velocity=0 time=0
EXTRACT: note_on channel=5 note=68 velocity=0 time=0
EXTRACT: note_on channel=10 note=68 velocity=0 time=0
EXTRACT: note_on channel=0 note=68 velocity=110 time=0.006696425000000001
EXTRACT: note_on channel=1 note=68 velocity=110 time=0
EXTRACT: note_on channel=9 note=70 velocity=127 time=0
EXTRACT: note_on channel=9 note=41 velocity=127 time=0
EXTRACT: note_on channel=9 note=47 velocity=127 time=0
EXTRACT: note_on channel=5 note=68 velocity=90 time=0
EXTRACT: note_on channel=10 note=68 velocity=90 time=0
EXTRACT: note_on channel=0 note=68 velocity=0 time=0.261160575
EXTRACT: note_on channel=1 note=68 velocity=0 time=0
EXTRACT: note_on channel=9 note=70 velocity=0 time=0
EXTRACT: note_on channel=9 note=41 velocity=0 time=0
EXTRACT: note_on channel=9 note=47 velocity=0 time=0
EXTRACT: note_on channel=5 note=68 velocity=0 time=0
EXTRACT: note_on channel=10 note=68 velocity=0 time=0
EXTRACT: note_on channel=0 note=70 velocity=110 time=0.006696425000000001
EXTRACT: note_on channel=1 note=70 velocity=110 time=0
EXTRACT: note_on channel=9 note=70 velocity=127 time=0
EXTRACT: note_on channel=9 note=41 velocity=127 time=0
EXTRACT: note_on channel=9 note=47 velocity=127 time=0
EXTRACT: note_on channel=5 note=70 velocity=90 time=0
EXTRACT: note_on channel=10 note=70 velocity=90 time=0
EXTRACT: note_on channel=0 note=70 velocity=0 time=0.261160575
EXTRACT: note_on channel=1 note=70 velocity=0 time=0
EXTRACT: note_on channel=9 note=70 velocity=0 time=0
EXTRACT: note_on channel=9 note=41 velocity=0 time=0
EXTRACT: note_on channel=9 note=47 velocity=0 time=0
EXTRACT: note_on channel=5 note=70 velocity=0 time=0
EXTRACT: note_on channel=10 note=70 velocity=0 time=0
EXTRACT: note_on channel=0 note=68 velocity=110 time=0.006696425000000001
EXTRACT: note_on channel=1 note=61 velocity=110 time=0
EXTRACT: note_on channel=1 note=66 velocity=110 time=0
EXTRACT: note_on channel=1 note=68 velocity=110 time=0
EXTRACT: note_on channel=2 note=44 velocity=0 time=0
EXTRACT: note_on channel=9 note=70 velocity=127 time=0
EXTRACT: note_on channel=9 note=41 velocity=127 time=0
EXTRACT: note_on channel=9 note=47 velocity=127 time=0
EXTRACT: note_on channel=5 note=61 velocity=90 time=0
EXTRACT: note_on channel=5 note=66 velocity=90 time=0
EXTRACT: note_on channel=5 note=68 velocity=90 time=0
EXTRACT: note_on channel=10 note=61 velocity=90 time=0
EXTRACT: note_on channel=10 note=66 velocity=90 time=0
EXTRACT: note_on channel=10 note=68 velocity=90 time=0
EXTRACT: note_on channel=6 note=44 velocity=0 time=0
EXTRACT: note_on channel=9 note=70 velocity=0 time=0.127232075
EXTRACT: note_on channel=9 note=41 velocity=0 time=0
EXTRACT: note_on channel=9 note=47 velocity=0 time=0
EXTRACT: note_on channel=2 note=37 velocity=110 time=0.006696425000000001
EXTRACT: note_on channel=9 note=70 velocity=127 time=0
EXTRACT: note_on channel=9 note=41 velocity=127 time=0
EXTRACT: note_on channel=9 note=47 velocity=127 time=0
EXTRACT: note_on channel=6 note=37 velocity=90 time=0
EXTRACT: note_on channel=9 note=70 velocity=0 time=0.261160575
EXTRACT: note_on channel=9 note=41 velocity=0 time=0
EXTRACT: note_on channel=9 note=47 velocity=0 time=0
EXTRACT: note_on channel=9 note=70 velocity=127 time=0.006696425000000001
EXTRACT: note_on channel=9 note=41 velocity=127 time=0
EXTRACT: note_on channel=9 note=47 velocity=127 time=0
EXTRACT: note_on channel=0 note=68 velocity=0 time=0.17857133333333333
EXTRACT: note_on channel=1 note=61 velocity=0 time=0
EXTRACT: note_on channel=1 note=66 velocity=0 time=0
EXTRACT: note_on channel=1 note=68 velocity=0 time=0
EXTRACT: note_on channel=5 note=61 velocity=0 time=0
EXTRACT: note_on channel=5 note=66 velocity=0 time=0
EXTRACT: note_on channel=5 note=68 velocity=0 time=0
EXTRACT: note_on channel=10 note=61 velocity=0 time=0
EXTRACT: note_on channel=10 note=66 velocity=0 time=0
EXTRACT: note_on channel=10 note=68 velocity=0 time=0
EXTRACT: note_on channel=9 note=70 velocity=0 time=0.08258924166666667
EXTRACT: note_on channel=9 note=41 velocity=0 time=0
EXTRACT: note_on channel=9 note=47 velocity=0 time=0
EXTRACT: note_on channel=1 note=61 velocity=110 time=0.006696425000000001
EXTRACT: note_on channel=1 note=66 velocity=110 time=0
EXTRACT: note_on channel=1 note=68 velocity=110 time=0
EXTRACT: note_on channel=9 note=70 velocity=127 time=0
EXTRACT: note_on channel=9 note=41 velocity=127 time=0
EXTRACT: note_on channel=9 note=47 velocity=127 time=0
EXTRACT: note_on channel=5 note=61 velocity=90 time=0
EXTRACT: note_on channel=5 note=66 velocity=90 time=0
EXTRACT: note_on channel=5 note=68 velocity=90 time=0
EXTRACT: note_on channel=10 note=61 velocity=90 time=0
EXTRACT: note_on channel=10 note=66 velocity=90 time=0
EXTRACT: note_on channel=10 note=68 velocity=90 time=0
EXTRACT: note_on channel=9 note=70 velocity=0 time=0.261160575
EXTRACT: note_on channel=9 note=41 velocity=0 time=0
EXTRACT: note_on channel=9 note=47 velocity=0 time=0
EXTRACT: note_on channel=9 note=70 velocity=127 time=0.006696425000000001
EXTRACT: note_on channel=9 note=41 velocity=127 time=0
EXTRACT: note_on channel=9 note=47 velocity=127 time=0
EXTRACT: note_on channel=2 note=37 velocity=0 time=0.1339285
EXTRACT: note_on channel=6 note=37 velocity=0 time=0
EXTRACT: note_on channel=1 note=61 velocity=0 time=0.04464283333333333
EXTRACT: note_on channel=1 note=66 velocity=0 time=0
EXTRACT: note_on channel=1 note=68 velocity=0 time=0
EXTRACT: note_on channel=5 note=61 velocity=0 time=0
EXTRACT: note_on channel=5 note=66 velocity=0 time=0
EXTRACT: note_on channel=5 note=68 velocity=0 time=0
EXTRACT: note_on channel=10 note=61 velocity=0 time=0
EXTRACT: note_on channel=10 note=66 velocity=0 time=0
EXTRACT: note_on channel=10 note=68 velocity=0 time=0
EXTRACT: note_on channel=9 note=70 velocity=0 time=0.08258924166666667
EXTRACT: note_on channel=9 note=41 velocity=0 time=0
EXTRACT: note_on channel=9 note=47 velocity=0 time=0
EXTRACT: note_on channel=0 note=68 velocity=110 time=0.006696425000000001
EXTRACT: note_on channel=1 note=61 velocity=110 time=0
EXTRACT: note_on channel=1 note=66 velocity=110 time=0
EXTRACT: note_on channel=1 note=68 velocity=110 time=0
EXTRACT: note_on channel=2 note=42 velocity=110 time=0
EXTRACT: note_on channel=9 note=70 velocity=127 time=0
EXTRACT: note_on channel=9 note=41 velocity=127 time=0
EXTRACT: note_on channel=9 note=47 velocity=127 time=0
EXTRACT: note_on channel=5 note=61 velocity=90 time=0
EXTRACT: note_on channel=5 note=66 velocity=90 time=0
EXTRACT: note_on channel=5 note=68 velocity=90 time=0
EXTRACT: note_on channel=10 note=61 velocity=90 time=0
EXTRACT: note_on channel=10 note=66 velocity=90 time=0
EXTRACT: note_on channel=10 note=68 velocity=90 time=0
EXTRACT: note_on channel=6 note=42 velocity=90 time=0
EXTRACT: note_on channel=9 note=70 velocity=0 time=0.060267825000000004
EXTRACT: note_on channel=9 note=41 velocity=0 time=0
EXTRACT: note_on channel=9 note=47 velocity=0 time=0
EXTRACT: note_on channel=9 note=70 velocity=127 time=0.006696425000000001
EXTRACT: note_on channel=9 note=41 velocity=127 time=0
EXTRACT: note_on channel=9 note=47 velocity=127 time=0
EXTRACT: note_on channel=9 note=70 velocity=0 time=0.060267825000000004
EXTRACT: note_on channel=9 note=41 velocity=0 time=0
EXTRACT: note_on channel=9 note=47 velocity=0 time=0
EXTRACT: note_on channel=9 note=70 velocity=127 time=0.006696425000000001
EXTRACT: note_on channel=9 note=41 velocity=127 time=0
EXTRACT: note_on channel=9 note=47 velocity=127 time=0
EXTRACT: note_on channel=0 note=68 velocity=0 time=0.127232075
EXTRACT: note_on channel=1 note=61 velocity=0 time=0
EXTRACT: note_on channel=1 note=66 velocity=0 time=0
EXTRACT: note_on channel=1 note=68 velocity=0 time=0
EXTRACT: note_on channel=5 note=61 velocity=0 time=0
EXTRACT: note_on channel=5 note=66 velocity=0 time=0
EXTRACT: note_on channel=5 note=68 velocity=0 time=0
EXTRACT: note_on channel=10 note=61 velocity=0 time=0
EXTRACT: note_on channel=10 note=66 velocity=0 time=0
EXTRACT: note_on channel=10 note=68 velocity=0 time=0
EXTRACT: note_on channel=0 note=70 velocity=110 time=0.006696425000000001
EXTRACT: note_on channel=1 note=70 velocity=110 time=0
EXTRACT: note_on channel=5 note=70 velocity=90 time=0
EXTRACT: note_on channel=10 note=70 velocity=90 time=0
EXTRACT: note_on channel=9 note=70 velocity=0 time=0.127232075
EXTRACT: note_on channel=9 note=41 velocity=0 time=0
EXTRACT: note_on channel=9 note=47 velocity=0 time=0
EXTRACT: note_on channel=9 note=70 velocity=127 time=0.006696425000000001
EXTRACT: note_on channel=9 note=41 velocity=127 time=0
EXTRACT: note_on channel=9 note=47 velocity=127 time=0
EXTRACT: note_on channel=0 note=70 velocity=0 time=0.127232075
EXTRACT: note_on channel=1 note=70 velocity=0 time=0
EXTRACT: note_on channel=5 note=70 velocity=0 time=0
EXTRACT: note_on channel=10 note=70 velocity=0 time=0
EXTRACT: note_on channel=0 note=70 velocity=110 time=0.006696425000000001
EXTRACT: note_on channel=1 note=70 velocity=110 time=0
EXTRACT: note_on channel=5 note=70 velocity=90 time=0
EXTRACT: note_on channel=10 note=70 velocity=90 time=0
EXTRACT: note_on channel=0 note=70 velocity=0 time=0.127232075
EXTRACT: note_on channel=1 note=70 velocity=0 time=0
EXTRACT: note_on channel=9 note=70 velocity=0 time=0
EXTRACT: note_on channel=9 note=41 velocity=0 time=0
EXTRACT: note_on channel=9 note=47 velocity=0 time=0
EXTRACT: note_on channel=5 note=70 velocity=0 time=0
EXTRACT: note_on channel=10 note=70 velocity=0 time=0
EXTRACT: note_on channel=0 note=70 velocity=110 time=0.006696425000000001
EXTRACT: note_on channel=1 note=70 velocity=110 time=0
EXTRACT: note_on channel=9 note=70 velocity=127 time=0
EXTRACT: note_on channel=9 note=41 velocity=127 time=0
EXTRACT: note_on channel=9 note=47 velocity=127 time=0
EXTRACT: note_on channel=5 note=70 velocity=90 time=0
EXTRACT: note_on channel=10 note=70 velocity=90 time=0
EXTRACT: note_on channel=9 note=70 velocity=0 time=0.261160575
EXTRACT: note_on channel=9 note=41 velocity=0 time=0
EXTRACT: note_on channel=9 note=47 velocity=0 time=0
EXTRACT: note_on channel=2 note=42 velocity=0 time=0.006696425000000001
EXTRACT: note_on channel=9 note=70 velocity=127 time=0
EXTRACT: note_on channel=9 note=41 velocity=127 time=0
EXTRACT: note_on channel=9 note=47 velocity=127 time=0
EXTRACT: note_on channel=6 note=42 velocity=0 time=0
EXTRACT: note_on channel=0 note=70 velocity=0 time=0.127232075
EXTRACT: note_on channel=1 note=70 velocity=0 time=0
EXTRACT: note_on channel=9 note=70 velocity=0 time=0
EXTRACT: note_on channel=9 note=41 velocity=0 time=0
EXTRACT: note_on channel=9 note=47 velocity=0 time=0
EXTRACT: note_on channel=5 note=70 velocity=0 time=0
EXTRACT: note_on channel=10 note=70 velocity=0 time=0
EXTRACT: note_on channel=0 note=71 velocity=110 time=0.006696425000000001
EXTRACT: note_on channel=1 note=61 velocity=110 time=0
EXTRACT: note_on channel=1 note=66 velocity=110 time=0
EXTRACT: note_on channel=1 note=71 velocity=110 time=0
EXTRACT: note_on channel=2 note=42 velocity=110 time=0
EXTRACT: note_on channel=9 note=70 velocity=127 time=0
EXTRACT: note_on channel=9 note=41 velocity=127 time=0
EXTRACT: note_on channel=9 note=47 velocity=127 time=0
EXTRACT: note_on channel=5 note=61 velocity=90 time=0
EXTRACT: note_on channel=5 note=66 velocity=90 time=0
EXTRACT: note_on channel=5 note=71 velocity=90 time=0
EXTRACT: note_on channel=10 note=61 velocity=90 time=0
EXTRACT: note_on channel=10 note=66 velocity=90 time=0
EXTRACT: note_on channel=10 note=71 velocity=90 time=0
EXTRACT: note_on channel=6 note=42 velocity=90 time=0
EXTRACT: note_on channel=0 note=71 velocity=0 time=0.261160575
EXTRACT: note_on channel=1 note=61 velocity=0 time=0
EXTRACT: note_on channel=1 note=66 velocity=0 time=0
EXTRACT: note_on channel=1 note=71 velocity=0 time=0
EXTRACT: note_on channel=9 note=70 velocity=0 time=0
EXTRACT: note_on channel=9 note=41 velocity=0 time=0
EXTRACT: note_on channel=9 note=47 velocity=0 time=0
EXTRACT: note_on channel=5 note=61 velocity=0 time=0
EXTRACT: note_on channel=5 note=66 velocity=0 time=0
EXTRACT: note_on channel=5 note=71 velocity=0 time=0
EXTRACT: note_on channel=10 note=61 velocity=0 time=0
EXTRACT: note_on channel=10 note=66 velocity=0 time=0
EXTRACT: note_on channel=10 note=71 velocity=0 time=0
EXTRACT: note_on channel=0 note=71 velocity=110 time=0.006696425000000001
EXTRACT: note_on channel=1 note=71 velocity=110 time=0
EXTRACT: note_on channel=9 note=70 velocity=127 time=0
EXTRACT: note_on channel=9 note=41 velocity=127 time=0
EXTRACT: note_on channel=9 note=47 velocity=127 time=0
EXTRACT: note_on channel=5 note=71 velocity=90 time=0
EXTRACT: note_on channel=10 note=71 velocity=90 time=0
EXTRACT: note_on channel=0 note=71 velocity=0 time=0.261160575
EXTRACT: note_on channel=1 note=71 velocity=0 time=0
EXTRACT: note_on channel=9 note=70 velocity=0 time=0
EXTRACT: note_on channel=9 note=41 velocity=0 time=0
EXTRACT: note_on channel=9 note=47 velocity=0 time=0
EXTRACT: note_on channel=5 note=71 velocity=0 time=0
EXTRACT: note_on channel=10 note=71 velocity=0 time=0
EXTRACT: note_on channel=0 note=71 velocity=110 time=0.006696425000000001
EXTRACT: note_on channel=1 note=71 velocity=110 time=0
EXTRACT: note_on channel=9 note=70 velocity=127 time=0
EXTRACT: note_on channel=9 note=41 velocity=127 time=0
EXTRACT: note_on channel=9 note=47 velocity=127 time=0
EXTRACT: note_on channel=5 note=71 velocity=90 time=0
EXTRACT: note_on channel=10 note=71 velocity=90 time=0
EXTRACT: note_on channel=0 note=71 velocity=0 time=0.261160575
EXTRACT: note_on channel=1 note=71 velocity=0 time=0
EXTRACT: note_on channel=9 note=70 velocity=0 time=0
EXTRACT: note_on channel=9 note=41 velocity=0 time=0
EXTRACT: note_on channel=9 note=47 velocity=0 time=0
EXTRACT: note_on channel=5 note=71 velocity=0 time=0
EXTRACT: note_on channel=10 note=71 velocity=0 time=0
EXTRACT: note_on channel=0 note=71 velocity=110 time=0.006696425000000001
EXTRACT: note_on channel=1 note=71 velocity=110 time=0
EXTRACT: note_on channel=9 note=70 velocity=127 time=0
EXTRACT: note_on channel=9 note=41 velocity=127 time=0
EXTRACT: note_on channel=9 note=47 velocity=127 time=0
EXTRACT: note_on channel=5 note=71 velocity=90 time=0
EXTRACT: note_on channel=10 note=71 velocity=90 time=0
EXTRACT: note_on channel=2 note=42 velocity=0 time=0.1339285
EXTRACT: note_on channel=6 note=42 velocity=0 time=0
EXTRACT: note_on channel=0 note=71 velocity=0 time=0.127232075
EXTRACT: note_on channel=1 note=71 velocity=0 time=0
EXTRACT: note_on channel=9 note=70 velocity=0 time=0
EXTRACT: note_on channel=9 note=41 velocity=0 time=0
EXTRACT: note_on channel=9 note=47 velocity=0 time=0
EXTRACT: note_on channel=5 note=71 velocity=0 time=0
EXTRACT: note_on channel=10 note=71 velocity=0 time=0
EXTRACT: note_on channel=0 note=71 velocity=110 time=0.006696425000000001
EXTRACT: note_on channel=1 note=63 velocity=110 time=0
EXTRACT: note_on channel=1 note=66 velocity=110 time=0
EXTRACT: note_on channel=1 note=71 velocity=110 time=0
EXTRACT: note_on channel=2 note=44 velocity=110 time=0
EXTRACT: note_on channel=9 note=70 velocity=127 time=0
EXTRACT: note_on channel=9 note=41 velocity=127 time=0
EXTRACT: note_on channel=9 note=47 velocity=127 time=0
EXTRACT: note_on channel=5 note=63 velocity=90 time=0
EXTRACT: note_on channel=5 note=66 velocity=90 time=0
EXTRACT: note_on channel=5 note=71 velocity=90 time=0
EXTRACT: note_on channel=10 note=63 velocity=90 time=0
EXTRACT: note_on channel=10 note=66 velocity=90 time=0
EXTRACT: note_on channel=10 note=71 velocity=90 time=0
EXTRACT: note_on channel=6 note=44 velocity=90 time=0
EXTRACT: note_on channel=9 note=70 velocity=0 time=0.060267825000000004
EXTRACT: note_on channel=9 note=41 velocity=0 time=0
EXTRACT: note_on channel=9 note=47 velocity=0 time=0
EXTRACT: note_on channel=9 note=70 velocity=127 time=0.006696425000000001
EXTRACT: note_on channel=9 note=41 velocity=127 time=0
EXTRACT: note_on channel=9 note=47 velocity=127 time=0
EXTRACT: note_on channel=0 note=71 velocity=0 time=0.060267825000000004
EXTRACT: note_on channel=1 note=63 velocity=0 time=0
EXTRACT: note_on channel=1 note=66 velocity=0 time=0
EXTRACT: note_on channel=1 note=71 velocity=0 time=0
EXTRACT: note_on channel=9 note=70 velocity=0 time=0
EXTRACT: note_on channel=9 note=41 velocity=0 time=0
EXTRACT: note_on channel=9 note=47 velocity=0 time=0
EXTRACT: note_on channel=5 note=63 velocity=0 time=0
EXTRACT: note_on channel=5 note=66 velocity=0 time=0
EXTRACT: note_on channel=5 note=71 velocity=0 time=0
EXTRACT: note_on channel=10 note=63 velocity=0 time=0
EXTRACT: note_on channel=10 note=66 velocity=0 time=0
EXTRACT: note_on channel=10 note=71 velocity=0 time=0
EXTRACT: note_on channel=0 note=73 velocity=110 time=0.006696425000000001
EXTRACT: note_on channel=1 note=73 velocity=110 time=0
EXTRACT: note_on channel=9 note=70 velocity=127 time=0
EXTRACT: note_on channel=9 note=41 velocity=127 time=0
EXTRACT: note_on channel=9 note=47 velocity=127 time=0
EXTRACT: note_on channel=5 note=73 velocity=90 time=0
EXTRACT: note_on channel=10 note=73 velocity=90 time=0
EXTRACT: note_on channel=0 note=73 velocity=0 time=0.261160575
EXTRACT: note_on channel=1 note=73 velocity=0 time=0
EXTRACT: note_on channel=9 note=70 velocity=0 time=0
EXTRACT: note_on channel=9 note=41 velocity=0 time=0
EXTRACT: note_on channel=9 note=47 velocity=0 time=0
EXTRACT: note_on channel=5 note=73 velocity=0 time=0
EXTRACT: note_on channel=10 note=73 velocity=0 time=0
EXTRACT: note_on channel=0 note=73 velocity=110 time=0.006696425000000001
EXTRACT: note_on channel=1 note=73 velocity=110 time=0
EXTRACT: note_on channel=9 note=70 velocity=127 time=0
EXTRACT: note_on channel=9 note=41 velocity=127 time=0
EXTRACT: note_on channel=9 note=47 velocity=127 time=0
EXTRACT: note_on channel=5 note=73 velocity=90 time=0
EXTRACT: note_on channel=10 note=73 velocity=90 time=0
EXTRACT: note_on channel=0 note=73 velocity=0 time=0.261160575
EXTRACT: note_on channel=1 note=73 velocity=0 time=0
EXTRACT: note_on channel=9 note=70 velocity=0 time=0
EXTRACT: note_on channel=9 note=41 velocity=0 time=0
EXTRACT: note_on channel=9 note=47 velocity=0 time=0
EXTRACT: note_on channel=5 note=73 velocity=0 time=0
EXTRACT: note_on channel=10 note=73 velocity=0 time=0
EXTRACT: note_on channel=0 note=75 velocity=110 time=0.006696425000000001
EXTRACT: note_on channel=1 note=75 velocity=110 time=0
EXTRACT: note_on channel=9 note=70 velocity=127 time=0
EXTRACT: note_on channel=9 note=41 velocity=127 time=0
EXTRACT: note_on channel=9 note=47 velocity=127 time=0
EXTRACT: note_on channel=5 note=75 velocity=90 time=0
EXTRACT: note_on channel=10 note=75 velocity=90 time=0
EXTRACT: note_on channel=9 note=70 velocity=0 time=0.261160575
EXTRACT: note_on channel=9 note=41 velocity=0 time=0
EXTRACT: note_on channel=9 note=47 velocity=0 time=0
EXTRACT: note_on channel=2 note=44 velocity=0 time=0.006696425000000001
EXTRACT: note_on channel=9 note=70 velocity=127 time=0
EXTRACT: note_on channel=9 note=41 velocity=127 time=0
EXTRACT: note_on channel=9 note=47 velocity=127 time=0
EXTRACT: note_on channel=6 note=44 velocity=0 time=0
EXTRACT: note_on channel=0 note=75 velocity=0 time=0.127232075
EXTRACT: note_on channel=1 note=75 velocity=0 time=0
EXTRACT: note_on channel=9 note=70 velocity=0 time=0
EXTRACT: note_on channel=9 note=41 velocity=0 time=0
EXTRACT: note_on channel=9 note=47 velocity=0 time=0
EXTRACT: note_on channel=5 note=75 velocity=0 time=0
EXTRACT: note_on channel=10 note=75 velocity=0 time=0
EXTRACT: note_on channel=0 note=73 velocity=110 time=0.006696425000000001
EXTRACT: note_on channel=1 note=66 velocity=110 time=0
EXTRACT: note_on channel=1 note=68 velocity=110 time=0
EXTRACT: note_on channel=1 note=73 velocity=110 time=0
EXTRACT: note_on channel=2 note=37 velocity=110 time=0
EXTRACT: note_on channel=9 note=70 velocity=127 time=0
EXTRACT: note_on channel=9 note=41 velocity=127 time=0
EXTRACT: note_on channel=9 note=47 velocity=127 time=0
EXTRACT: note_on channel=5 note=66 velocity=90 time=0
EXTRACT: note_on channel=5 note=68 velocity=90 time=0
EXTRACT: note_on channel=5 note=73 velocity=90 time=0
EXTRACT: note_on channel=10 note=66 velocity=90 time=0
EXTRACT: note_on channel=10 note=68 velocity=90 time=0
EXTRACT: note_on channel=10 note=73 velocity=90 time=0
EXTRACT: note_on channel=6 note=37 velocity=90 time=0
EXTRACT: note_on channel=9 note=70 velocity=0 time=0.261160575
EXTRACT: note_on channel=9 note=41 velocity=0 time=0
EXTRACT: note_on channel=9 note=47 velocity=0 time=0
EXTRACT: note_on channel=9 note=70 velocity=127 time=0.006696425000000001
EXTRACT: note_on channel=9 note=41 velocity=127 time=0
EXTRACT: note_on channel=9 note=47 velocity=127 time=0
EXTRACT: note_on channel=0 note=73 velocity=0 time=0.17857133333333333
EXTRACT: note_on channel=1 note=66 velocity=0 time=0
EXTRACT: note_on channel=1 note=68 velocity=0 time=0
EXTRACT: note_on channel=1 note=73 velocity=0 time=0
EXTRACT: note_on channel=5 note=66 velocity=0 time=0
EXTRACT: note_on channel=5 note=68 velocity=0 time=0
EXTRACT: note_on channel=5 note=73 velocity=0 time=0
EXTRACT: note_on channel=10 note=66 velocity=0 time=0
EXTRACT: note_on channel=10 note=68 velocity=0 time=0
EXTRACT: note_on channel=10 note=73 velocity=0 time=0
EXTRACT: note_on channel=9 note=70 velocity=0 time=0.08258924166666667
EXTRACT: note_on channel=9 note=41 velocity=0 time=0
EXTRACT: note_on channel=9 note=47 velocity=0 time=0
EXTRACT: note_on channel=1 note=66 velocity=110 time=0.006696425000000001
EXTRACT: note_on channel=1 note=68 velocity=110 time=0
EXTRACT: note_on channel=1 note=73 velocity=110 time=0
EXTRACT: note_on channel=9 note=70 velocity=127 time=0
EXTRACT: note_on channel=9 note=41 velocity=127 time=0
EXTRACT: note_on channel=9 note=47 velocity=127 time=0
EXTRACT: note_on channel=5 note=66 velocity=90 time=0
EXTRACT: note_on channel=5 note=68 velocity=90 time=0
EXTRACT: note_on channel=5 note=73 velocity=90 time=0
EXTRACT: note_on channel=10 note=66 velocity=90 time=0
EXTRACT: note_on channel=10 note=68 velocity=90 time=0
EXTRACT: note_on channel=10 note=73 velocity=90 time=0
EXTRACT: note_on channel=9 note=70 velocity=0 time=0.261160575
EXTRACT: note_on channel=9 note=41 velocity=0 time=0
EXTRACT: note_on channel=9 note=47 velocity=0 time=0
EXTRACT: note_on channel=9 note=70 velocity=127 time=0.006696425000000001
EXTRACT: note_on channel=9 note=41 velocity=127 time=0
EXTRACT: note_on channel=9 note=47 velocity=127 time=0
EXTRACT: note_on channel=1 note=66 velocity=0 time=0.127232075
EXTRACT: note_on channel=1 note=68 velocity=0 time=0
EXTRACT: note_on channel=1 note=73 velocity=0 time=0
EXTRACT: note_on channel=5 note=66 velocity=0 time=0
EXTRACT: note_on channel=5 note=68 velocity=0 time=0
EXTRACT: note_on channel=5 note=73 velocity=0 time=0
EXTRACT: note_on channel=10 note=66 velocity=0 time=0
EXTRACT: note_on channel=10 note=68 velocity=0 time=0
EXTRACT: note_on channel=10 note=73 velocity=0 time=0
EXTRACT: note_on channel=0 note=66 velocity=110 time=0.006696425000000001
EXTRACT: note_on channel=1 note=66 velocity=110 time=0
EXTRACT: note_on channel=2 note=37 velocity=0 time=0
EXTRACT: note_on channel=5 note=66 velocity=90 time=0
EXTRACT: note_on channel=10 note=66 velocity=90 time=0
EXTRACT: note_on channel=6 note=37 velocity=0 time=0
EXTRACT: note_on channel=0 note=66 velocity=0 time=0.127232075
EXTRACT: note_on channel=1 note=66 velocity=0 time=0
EXTRACT: note_on channel=9 note=70 velocity=0 time=0
EXTRACT: note_on channel=9 note=41 velocity=0 time=0
EXTRACT: note_on channel=9 note=47 velocity=0 time=0
EXTRACT: note_on channel=5 note=66 velocity=0 time=0
EXTRACT: note_on channel=10 note=66 velocity=0 time=0
EXTRACT: note_on channel=0 note=70 velocity=110 time=0.006696425000000001
EXTRACT: note_on channel=1 note=61 velocity=110 time=0
EXTRACT: note_on channel=1 note=66 velocity=110 time=0
EXTRACT: note_on channel=1 note=70 velocity=110 time=0
EXTRACT: note_on channel=2 note=42 velocity=110 time=0
EXTRACT: note_on channel=9 note=70 velocity=127 time=0
EXTRACT: note_on channel=9 note=41 velocity=127 time=0
EXTRACT: note_on channel=9 note=47 velocity=127 time=0
EXTRACT: note_on channel=5 note=61 velocity=90 time=0
EXTRACT: note_on channel=5 note=66 velocity=90 time=0
EXTRACT: note_on channel=5 note=70 velocity=90 time=0
EXTRACT: note_on channel=10 note=61 velocity=90 time=0
EXTRACT: note_on channel=10 note=66 velocity=90 time=0
EXTRACT: note_on channel=10 note=70 velocity=90 time=0
EXTRACT: note_on channel=6 note=42 velocity=90 time=0
EXTRACT: note_on channel=9 note=70 velocity=0 time=0.060267825000000004
EXTRACT: note_on channel=9 note=41 velocity=0 time=0
EXTRACT: note_on channel=9 note=47 velocity=0 time=0
EXTRACT: note_on channel=9 note=70 velocity=127 time=0.006696425000000001
EXTRACT: note_on channel=9 note=41 velocity=127 time=0
EXTRACT: note_on channel=9 note=47 velocity=127 time=0
EXTRACT: note_on channel=9 note=70 velocity=0 time=0.060267825000000004
EXTRACT: note_on channel=9 note=41 velocity=0 time=0
EXTRACT: note_on channel=9 note=47 velocity=0 time=0
EXTRACT: note_on channel=9 note=70 velocity=127 time=0.006696425000000001
EXTRACT: note_on channel=9 note=41 velocity=127 time=0
EXTRACT: note_on channel=9 note=47 velocity=127 time=0
EXTRACT: note_on channel=0 note=70 velocity=0 time=0.127232075
EXTRACT: note_on channel=1 note=61 velocity=0 time=0
EXTRACT: note_on channel=1 note=66 velocity=0 time=0
EXTRACT: note_on channel=1 note=70 velocity=0 time=0
EXTRACT: note_on channel=5 note=61 velocity=0 time=0
EXTRACT: note_on channel=5 note=66 velocity=0 time=0
EXTRACT: note_on channel=5 note=70 velocity=0 time=0
EXTRACT: note_on channel=10 note=61 velocity=0 time=0
EXTRACT: note_on channel=10 note=66 velocity=0 time=0
EXTRACT: note_on channel=10 note=70 velocity=0 time=0
EXTRACT: note_on channel=0 note=70 velocity=110 time=0.006696425000000001
EXTRACT: note_on channel=1 note=70 velocity=110 time=0
EXTRACT: note_on channel=5 note=70 velocity=90 time=0
EXTRACT: note_on channel=10 note=70 velocity=90 time=0
EXTRACT: note_on channel=9 note=70 velocity=0 time=0.127232075
EXTRACT: note_on channel=9 note=41 velocity=0 time=0
EXTRACT: note_on channel=9 note=47 velocity=0 time=0
EXTRACT: note_on channel=9 note=70 velocity=127 time=0.006696425000000001
EXTRACT: note_on channel=9 note=41 velocity=127 time=0
EXTRACT: note_on channel=9 note=47 velocity=127 time=0
EXTRACT: note_on channel=0 note=70 velocity=0 time=0.127232075
EXTRACT: note_on channel=1 note=70 velocity=0 time=0
EXTRACT: note_on channel=5 note=70 velocity=0 time=0
EXTRACT: note_on channel=10 note=70 velocity=0 time=0
EXTRACT: note_on channel=0 note=70 velocity=110 time=0.006696425000000001
EXTRACT: note_on channel=1 note=70 velocity=110 time=0
EXTRACT: note_on channel=5 note=70 velocity=90 time=0
EXTRACT: note_on channel=10 note=70 velocity=90 time=0
EXTRACT: note_on channel=9 note=70 velocity=0 time=0.127232075
EXTRACT: note_on channel=9 note=41 velocity=0 time=0
EXTRACT: note_on channel=9 note=47 velocity=0 time=0
EXTRACT: note_on channel=9 note=70 velocity=127 time=0.006696425000000001
EXTRACT: note_on channel=9 note=41 velocity=127 time=0
EXTRACT: note_on channel=9 note=47 velocity=127 time=0
EXTRACT: note_on channel=0 note=70 velocity=0 time=0.127232075
EXTRACT: note_on channel=1 note=70 velocity=0 time=0
EXTRACT: note_on channel=5 note=70 velocity=0 time=0
EXTRACT: note_on channel=10 note=70 velocity=0 time=0
EXTRACT: note_on channel=0 note=70 velocity=110 time=0.006696425000000001
EXTRACT: note_on channel=1 note=70 velocity=110 time=0
EXTRACT: note_on channel=5 note=70 velocity=90 time=0
EXTRACT: note_on channel=10 note=70 velocity=90 time=0
EXTRACT: note_on channel=0 note=70 velocity=0 time=0.127232075
EXTRACT: note_on channel=1 note=70 velocity=0 time=0
EXTRACT: note_on channel=9 note=70 velocity=0 time=0
EXTRACT: note_on channel=9 note=41 velocity=0 time=0
EXTRACT: note_on channel=9 note=47 velocity=0 time=0
EXTRACT: note_on channel=5 note=70 velocity=0 time=0
EXTRACT: note_on channel=10 note=70 velocity=0 time=0
EXTRACT: note_on channel=0 note=71 velocity=110 time=0.006696425000000001
EXTRACT: note_on channel=1 note=71 velocity=110 time=0
EXTRACT: note_on channel=2 note=42 velocity=0 time=0
EXTRACT: note_on channel=9 note=70 velocity=127 time=0
EXTRACT: note_on channel=9 note=41 velocity=127 time=0
EXTRACT: note_on channel=9 note=47 velocity=127 time=0
EXTRACT: note_on channel=5 note=71 velocity=90 time=0
EXTRACT: note_on channel=10 note=71 velocity=90 time=0
EXTRACT: note_on channel=6 note=42 velocity=0 time=0
EXTRACT: note_on channel=9 note=70 velocity=0 time=0.127232075
EXTRACT: note_on channel=9 note=41 velocity=0 time=0
EXTRACT: note_on channel=9 note=47 velocity=0 time=0
EXTRACT: note_on channel=2 note=42 velocity=110 time=0.006696425000000001
EXTRACT: note_on channel=9 note=70 velocity=127 time=0
EXTRACT: note_on channel=9 note=41 velocity=127 time=0
EXTRACT: note_on channel=9 note=47 velocity=127 time=0
EXTRACT: note_on channel=6 note=42 velocity=90 time=0
EXTRACT: note_on channel=0 note=71 velocity=0 time=0.261160575
EXTRACT: note_on channel=1 note=71 velocity=0 time=0
EXTRACT: note_on channel=9 note=70 velocity=0 time=0
EXTRACT: note_on channel=9 note=41 velocity=0 time=0
EXTRACT: note_on channel=9 note=47 velocity=0 time=0
EXTRACT: note_on channel=5 note=71 velocity=0 time=0
EXTRACT: note_on channel=10 note=71 velocity=0 time=0
EXTRACT: note_on channel=0 note=71 velocity=110 time=0.006696425000000001
EXTRACT: note_on channel=1 note=71 velocity=110 time=0
EXTRACT: note_on channel=9 note=70 velocity=127 time=0
EXTRACT: note_on channel=9 note=41 velocity=127 time=0
EXTRACT: note_on channel=9 note=47 velocity=127 time=0
EXTRACT: note_on channel=5 note=71 velocity=90 time=0
EXTRACT: note_on channel=10 note=71 velocity=90 time=0
EXTRACT: note_on channel=0 note=71 velocity=0 time=0.261160575
EXTRACT: note_on channel=1 note=71 velocity=0 time=0
EXTRACT: note_on channel=9 note=70 velocity=0 time=0
EXTRACT: note_on channel=9 note=41 velocity=0 time=0
EXTRACT: note_on channel=9 note=47 velocity=0 time=0
EXTRACT: note_on channel=5 note=71 velocity=0 time=0
EXTRACT: note_on channel=10 note=71 velocity=0 time=0
EXTRACT: note_on channel=0 note=71 velocity=110 time=0.006696425000000001
EXTRACT: note_on channel=1 note=71 velocity=110 time=0
EXTRACT: note_on channel=9 note=70 velocity=127 time=0
EXTRACT: note_on channel=9 note=41 velocity=127 time=0
EXTRACT: note_on channel=9 note=47 velocity=127 time=0
EXTRACT: note_on channel=5 note=71 velocity=90 time=0
EXTRACT: note_on channel=10 note=71 velocity=90 time=0
EXTRACT: note_on channel=0 note=71 velocity=0 time=0.261160575
EXTRACT: note_on channel=1 note=71 velocity=0 time=0
EXTRACT: note_on channel=9 note=70 velocity=0 time=0
EXTRACT: note_on channel=9 note=41 velocity=0 time=0
EXTRACT: note_on channel=9 note=47 velocity=0 time=0
EXTRACT: note_on channel=5 note=71 velocity=0 time=0
EXTRACT: note_on channel=10 note=71 velocity=0 time=0
EXTRACT: note_on channel=0 note=71 velocity=110 time=0.006696425000000001
EXTRACT: note_on channel=1 note=71 velocity=110 time=0
EXTRACT: note_on channel=9 note=70 velocity=127 time=0
EXTRACT: note_on channel=9 note=41 velocity=127 time=0
EXTRACT: note_on channel=9 note=47 velocity=127 time=0
EXTRACT: note_on channel=5 note=71 velocity=90 time=0
EXTRACT: note_on channel=10 note=71 velocity=90 time=0
EXTRACT: note_on channel=2 note=42 velocity=0 time=0.1339285
EXTRACT: note_on channel=6 note=42 velocity=0 time=0
EXTRACT: note_on channel=0 note=71 velocity=0 time=0.127232075
EXTRACT: note_on channel=1 note=71 velocity=0 time=0
EXTRACT: note_on channel=9 note=70 velocity=0 time=0
EXTRACT: note_on channel=9 note=41 velocity=0 time=0
EXTRACT: note_on channel=9 note=47 velocity=0 time=0
EXTRACT: note_on channel=5 note=71 velocity=0 time=0
EXTRACT: note_on channel=10 note=71 velocity=0 time=0
EXTRACT: note_on channel=0 note=73 velocity=110 time=0.006696425000000001
EXTRACT: note_on channel=1 note=63 velocity=110 time=0
EXTRACT: note_on channel=1 note=66 velocity=110 time=0
EXTRACT: note_on channel=1 note=73 velocity=110 time=0
EXTRACT: note_on channel=2 note=44 velocity=110 time=0
EXTRACT: note_on channel=9 note=70 velocity=127 time=0
EXTRACT: note_on channel=9 note=41 velocity=127 time=0
EXTRACT: note_on channel=9 note=47 velocity=127 time=0
EXTRACT: note_on channel=5 note=63 velocity=90 time=0
EXTRACT: note_on channel=5 note=66 velocity=90 time=0
EXTRACT: note_on channel=5 note=73 velocity=90 time=0
EXTRACT: note_on channel=10 note=63 velocity=90 time=0
EXTRACT: note_on channel=10 note=66 velocity=90 time=0
EXTRACT: note_on channel=10 note=73 velocity=90 time=0
EXTRACT: note_on channel=6 note=44 velocity=90 time=0
EXTRACT: note_on channel=9 note=70 velocity=0 time=0.060267825000000004
EXTRACT: note_on channel=9 note=41 velocity=0 time=0
EXTRACT: note_on channel=9 note=47 velocity=0 time=0
EXTRACT: note_on channel=9 note=70 velocity=127 time=0.006696425000000001
EXTRACT: note_on channel=9 note=41 velocity=127 time=0
EXTRACT: note_on channel=9 note=47 velocity=127 time=0
EXTRACT: note_on channel=9 note=70 velocity=0 time=0.060267825000000004
EXTRACT: note_on channel=9 note=41 velocity=0 time=0
EXTRACT: note_on channel=9 note=47 velocity=0 time=0
EXTRACT: note_on channel=9 note=70 velocity=127 time=0.006696425000000001
EXTRACT: note_on channel=9 note=41 velocity=127 time=0
EXTRACT: note_on channel=9 note=47 velocity=127 time=0
EXTRACT: note_on channel=0 note=73 velocity=0 time=0.261160575
EXTRACT: note_on channel=1 note=63 velocity=0 time=0
EXTRACT: note_on channel=1 note=66 velocity=0 time=0
EXTRACT: note_on channel=1 note=73 velocity=0 time=0
EXTRACT: note_on channel=9 note=70 velocity=0 time=0
EXTRACT: note_on channel=9 note=41 velocity=0 time=0
EXTRACT: note_on channel=9 note=47 velocity=0 time=0
EXTRACT: note_on channel=5 note=63 velocity=0 time=0
EXTRACT: note_on channel=5 note=66 velocity=0 time=0
EXTRACT: note_on channel=5 note=73 velocity=0 time=0
EXTRACT: note_on channel=10 note=63 velocity=0 time=0
EXTRACT: note_on channel=10 note=66 velocity=0 time=0
EXTRACT: note_on channel=10 note=73 velocity=0 time=0
EXTRACT: note_on channel=0 note=73 velocity=110 time=0.006696425000000001
EXTRACT: note_on channel=1 note=73 velocity=110 time=0
EXTRACT: note_on channel=9 note=70 velocity=127 time=0
EXTRACT: note_on channel=9 note=41 velocity=127 time=0
EXTRACT: note_on channel=9 note=47 velocity=127 time=0
EXTRACT: note_on channel=5 note=73 velocity=90 time=0
EXTRACT: note_on channel=10 note=73 velocity=90 time=0
EXTRACT: note_on channel=9 note=70 velocity=0 time=0.261160575
EXTRACT: note_on channel=9 note=41 velocity=0 time=0
EXTRACT: note_on channel=9 note=47 velocity=0 time=0
EXTRACT: note_on channel=9 note=70 velocity=127 time=0.006696425000000001
EXTRACT: note_on channel=9 note=41 velocity=127 time=0
EXTRACT: note_on channel=9 note=47 velocity=127 time=0
EXTRACT: note_on channel=0 note=73 velocity=0 time=0.127232075
EXTRACT: note_on channel=1 note=73 velocity=0 time=0
EXTRACT: note_on channel=5 note=73 velocity=0 time=0
EXTRACT: note_on channel=10 note=73 velocity=0 time=0
EXTRACT: note_on channel=0 note=75 velocity=110 time=0.006696425000000001
EXTRACT: note_on channel=1 note=75 velocity=110 time=0
EXTRACT: note_on channel=5 note=75 velocity=90 time=0
EXTRACT: note_on channel=10 note=75 velocity=90 time=0
EXTRACT: note_on channel=9 note=70 velocity=0 time=0.127232075
EXTRACT: note_on channel=9 note=41 velocity=0 time=0
EXTRACT: note_on channel=9 note=47 velocity=0 time=0
EXTRACT: note_on channel=2 note=44 velocity=0 time=0.006696425000000001
EXTRACT: note_on channel=9 note=70 velocity=127 time=0
EXTRACT: note_on channel=9 note=41 velocity=127 time=0
EXTRACT: note_on channel=9 note=47 velocity=127 time=0
EXTRACT: note_on channel=6 note=44 velocity=0 time=0
EXTRACT: note_on channel=0 note=75 velocity=0 time=0.127232075
EXTRACT: note_on channel=1 note=75 velocity=0 time=0
EXTRACT: note_on channel=9 note=70 velocity=0 time=0
EXTRACT: note_on channel=9 note=41 velocity=0 time=0
EXTRACT: note_on channel=9 note=47 velocity=0 time=0
EXTRACT: note_on channel=5 note=75 velocity=0 time=0
EXTRACT: note_on channel=10 note=75 velocity=0 time=0
EXTRACT: note_on channel=0 note=73 velocity=110 time=0.006696425000000001
EXTRACT: note_on channel=1 note=66 velocity=110 time=0
EXTRACT: note_on channel=1 note=68 velocity=110 time=0
EXTRACT: note_on channel=1 note=73 velocity=110 time=0
EXTRACT: note_on channel=2 note=37 velocity=110 time=0
EXTRACT: note_on channel=9 note=70 velocity=127 time=0
EXTRACT: note_on channel=9 note=41 velocity=127 time=0
EXTRACT: note_on channel=9 note=47 velocity=127 time=0
EXTRACT: note_on channel=5 note=66 velocity=90 time=0
EXTRACT: note_on channel=5 note=68 velocity=90 time=0
EXTRACT: note_on channel=5 note=73 velocity=90 time=0
EXTRACT: note_on channel=10 note=66 velocity=90 time=0
EXTRACT: note_on channel=10 note=68 velocity=90 time=0
EXTRACT: note_on channel=10 note=73 velocity=90 time=0
EXTRACT: note_on channel=6 note=37 velocity=90 time=0
EXTRACT: note_on channel=9 note=70 velocity=0 time=0.127232075
EXTRACT: note_on channel=9 note=41 velocity=0 time=0
EXTRACT: note_on channel=9 note=47 velocity=0 time=0
EXTRACT: note_on channel=9 note=70 velocity=127 time=0.006696425000000001
EXTRACT: note_on channel=9 note=41 velocity=127 time=0
EXTRACT: note_on channel=9 note=47 velocity=127 time=0
EXTRACT: note_on channel=9 note=70 velocity=0 time=0.127232075
EXTRACT: note_on channel=9 note=41 velocity=0 time=0
EXTRACT: note_on channel=9 note=47 velocity=0 time=0
EXTRACT: note_on channel=9 note=70 velocity=127 time=0.006696425000000001
EXTRACT: note_on channel=9 note=41 velocity=127 time=0
EXTRACT: note_on channel=9 note=47 velocity=127 time=0
EXTRACT: note_on channel=0 note=73 velocity=0 time=0.127232075
EXTRACT: note_on channel=1 note=66 velocity=0 time=0
EXTRACT: note_on channel=1 note=68 velocity=0 time=0
EXTRACT: note_on channel=1 note=73 velocity=0 time=0
EXTRACT: note_on channel=9 note=70 velocity=0 time=0
EXTRACT: note_on channel=9 note=41 velocity=0 time=0
EXTRACT: note_on channel=9 note=47 velocity=0 time=0
EXTRACT: note_on channel=5 note=66 velocity=0 time=0
EXTRACT: note_on channel=5 note=68 velocity=0 time=0
EXTRACT: note_on channel=5 note=73 velocity=0 time=0
EXTRACT: note_on channel=10 note=66 velocity=0 time=0
EXTRACT: note_on channel=10 note=68 velocity=0 time=0
EXTRACT: note_on channel=10 note=73 velocity=0 time=0
EXTRACT: note_on channel=0 note=73 velocity=110 time=0.006696425000000001
EXTRACT: note_on channel=1 note=66 velocity=110 time=0
EXTRACT: note_on channel=1 note=68 velocity=110 time=0
EXTRACT: note_on channel=1 note=73 velocity=110 time=0
EXTRACT: note_on channel=9 note=70 velocity=127 time=0
EXTRACT: note_on channel=9 note=41 velocity=127 time=0
EXTRACT: note_on channel=9 note=47 velocity=127 time=0
EXTRACT: note_on channel=5 note=66 velocity=90 time=0
EXTRACT: note_on channel=5 note=68 velocity=90 time=0
EXTRACT: note_on channel=5 note=73 velocity=90 time=0
EXTRACT: note_on channel=10 note=66 velocity=90 time=0
EXTRACT: note_on channel=10 note=68 velocity=90 time=0
EXTRACT: note_on channel=10 note=73 velocity=90 time=0
EXTRACT: note_on channel=9 note=70 velocity=0 time=0.127232075
EXTRACT: note_on channel=9 note=41 velocity=0 time=0
EXTRACT: note_on channel=9 note=47 velocity=0 time=0
EXTRACT: note_on channel=9 note=70 velocity=127 time=0.006696425000000001
EXTRACT: note_on channel=9 note=41 velocity=127 time=0
EXTRACT: note_on channel=9 note=47 velocity=127 time=0
EXTRACT: note_on channel=9 note=70 velocity=0 time=0.127232075
EXTRACT: note_on channel=9 note=41 velocity=0 time=0
EXTRACT: note_on channel=9 note=47 velocity=0 time=0
EXTRACT: note_on channel=9 note=70 velocity=127 time=0.006696425000000001
EXTRACT: note_on channel=9 note=41 velocity=127 time=0
EXTRACT: note_on channel=9 note=47 velocity=127 time=0
EXTRACT: note_on channel=0 note=73 velocity=0 time=0.127232075
EXTRACT: note_on channel=1 note=66 velocity=0 time=0
EXTRACT: note_on channel=1 note=68 velocity=0 time=0
EXTRACT: note_on channel=1 note=73 velocity=0 time=0
EXTRACT: note_on channel=9 note=70 velocity=0 time=0
EXTRACT: note_on channel=9 note=41 velocity=0 time=0
EXTRACT: note_on channel=9 note=47 velocity=0 time=0
EXTRACT: note_on channel=5 note=66 velocity=0 time=0
EXTRACT: note_on channel=5 note=68 velocity=0 time=0
EXTRACT: note_on channel=5 note=73 velocity=0 time=0
EXTRACT: note_on channel=10 note=66 velocity=0 time=0
EXTRACT: note_on channel=10 note=68 velocity=0 time=0
EXTRACT: note_on channel=10 note=73 velocity=0 time=0
EXTRACT: note_on channel=0 note=77 velocity=110 time=0.006696425000000001
EXTRACT: note_on channel=1 note=77 velocity=110 time=0
EXTRACT: note_on channel=9 note=70 velocity=127 time=0
EXTRACT: note_on channel=9 note=41 velocity=127 time=0
EXTRACT: note_on channel=9 note=47 velocity=127 time=0
EXTRACT: note_on channel=5 note=77 velocity=90 time=0
EXTRACT: note_on channel=10 note=77 velocity=90 time=0
EXTRACT: note_on channel=9 note=70 velocity=0 time=0.127232075
EXTRACT: note_on channel=9 note=41 velocity=0 time=0
EXTRACT: note_on channel=9 note=47 velocity=0 time=0
EXTRACT: note_on channel=2 note=37 velocity=0 time=0.006696425000000001
EXTRACT: note_on channel=9 note=70 velocity=127 time=0
EXTRACT: note_on channel=9 note=41 velocity=127 time=0
EXTRACT: note_on channel=9 note=47 velocity=127 time=0
EXTRACT: note_on channel=6 note=37 velocity=0 time=0
EXTRACT: note_on channel=0 note=77 velocity=0 time=0.127232075
EXTRACT: note_on channel=1 note=77 velocity=0 time=0
EXTRACT: note_on channel=9 note=70 velocity=0 time=0
EXTRACT: note_on channel=9 note=41 velocity=0 time=0
EXTRACT: note_on channel=9 note=47 velocity=0 time=0
EXTRACT: note_on channel=5 note=77 velocity=0 time=0
EXTRACT: note_on channel=10 note=77 velocity=0 time=0
EXTRACT: note_on channel=0 note=78 velocity=110 time=0.006696425000000001
EXTRACT: note_on channel=1 note=70 velocity=110 time=0
EXTRACT: note_on channel=1 note=73 velocity=110 time=0
EXTRACT: note_on channel=1 note=78 velocity=110 time=0
EXTRACT: note_on channel=2 note=42 velocity=110 time=0
EXTRACT: note_on channel=9 note=70 velocity=75 time=0
EXTRACT: note_on channel=9 note=41 velocity=75 time=0
EXTRACT: note_on channel=9 note=47 velocity=75 time=0
EXTRACT: note_on channel=9 note=40 velocity=110 time=0
EXTRACT: note_on channel=9 note=44 velocity=110 time=0
EXTRACT: note_on channel=9 note=47 velocity=110 time=0
EXTRACT: note_on channel=9 note=51 velocity=110 time=0
EXTRACT: note_on channel=9 note=54 velocity=110 time=0
EXTRACT: note_on channel=9 note=57 velocity=110 time=0
EXTRACT: note_on channel=9 note=41 velocity=127 time=0
EXTRACT: note_on channel=9 note=47 velocity=127 time=0
EXTRACT: note_on channel=5 note=70 velocity=90 time=0
EXTRACT: note_on channel=5 note=73 velocity=90 time=0
EXTRACT: note_on channel=5 note=78 velocity=90 time=0
EXTRACT: note_on channel=10 note=70 velocity=90 time=0
EXTRACT: note_on channel=10 note=73 velocity=90 time=0
EXTRACT: note_on channel=10 note=78 velocity=90 time=0
EXTRACT: note_on channel=6 note=42 velocity=90 time=0
EXTRACT: note_on channel=9 note=70 velocity=0 time=0.261160575
EXTRACT: note_on channel=9 note=41 velocity=0 time=0
EXTRACT: note_on channel=9 note=47 velocity=0 time=0
EXTRACT: note_on channel=9 note=41 velocity=0 time=0
EXTRACT: note_on channel=9 note=47 velocity=0 time=0
EXTRACT: note_on channel=9 note=70 velocity=75 time=0.006696425000000001
EXTRACT: note_on channel=9 note=41 velocity=75 time=0
EXTRACT: note_on channel=9 note=47 velocity=75 time=0
EXTRACT: note_on channel=9 note=70 velocity=0 time=0.127232075
EXTRACT: note_on channel=9 note=41 velocity=0 time=0
EXTRACT: note_on channel=9 note=47 velocity=0 time=0
EXTRACT: note_on channel=9 note=70 velocity=75 time=0.006696425000000001
EXTRACT: note_on channel=9 note=41 velocity=75 time=0
EXTRACT: note_on channel=9 note=47 velocity=75 time=0
EXTRACT: note_on channel=9 note=41 velocity=127 time=0.1339285
EXTRACT: note_on channel=9 note=47 velocity=127 time=0
EXTRACT: note_on channel=9 note=70 velocity=0 time=0.127232075
EXTRACT: note_on channel=9 note=41 velocity=0 time=0
EXTRACT: note_on channel=9 note=47 velocity=0 time=0
EXTRACT: note_on channel=9 note=70 velocity=75 time=0.006696425000000001
EXTRACT: note_on channel=9 note=41 velocity=75 time=0
EXTRACT: note_on channel=9 note=47 velocity=75 time=0
EXTRACT: note_on channel=9 note=70 velocity=0 time=0.127232075
EXTRACT: note_on channel=9 note=41 velocity=0 time=0
EXTRACT: note_on channel=9 note=47 velocity=0 time=0
EXTRACT: note_on channel=9 note=41 velocity=0 time=0
EXTRACT: note_on channel=9 note=47 velocity=0 time=0
EXTRACT: note_on channel=9 note=70 velocity=75 time=0.006696425000000001
EXTRACT: note_on channel=9 note=41 velocity=75 time=0
EXTRACT: note_on channel=9 note=47 velocity=75 time=0
EXTRACT: note_on channel=0 note=78 velocity=0 time=0.1339285
EXTRACT: note_on channel=1 note=70 velocity=0 time=0
EXTRACT: note_on channel=1 note=73 velocity=0 time=0
EXTRACT: note_on channel=1 note=78 velocity=0 time=0
EXTRACT: note_on channel=2 note=42 velocity=0 time=0
EXTRACT: note_on channel=5 note=70 velocity=0 time=0
EXTRACT: note_on channel=5 note=73 velocity=0 time=0
EXTRACT: note_on channel=5 note=78 velocity=0 time=0
EXTRACT: note_on channel=10 note=70 velocity=0 time=0
EXTRACT: note_on channel=10 note=73 velocity=0 time=0
EXTRACT: note_on channel=10 note=78 velocity=0 time=0
EXTRACT: note_on channel=6 note=42 velocity=0 time=0
EXTRACT: note_on channel=9 note=70 velocity=0 time=0.127232075
EXTRACT: note_on channel=9 note=41 velocity=0 time=0
EXTRACT: note_on channel=9 note=47 velocity=0 time=0
EXTRACT: note_on channel=1 note=71 velocity=110 time=0.006696425000000001
EXTRACT: note_on channel=1 note=75 velocity=110 time=0
EXTRACT: note_on channel=1 note=78 velocity=110 time=0
EXTRACT: note_on channel=2 note=47 velocity=110 time=0
EXTRACT: note_on channel=3 note=71 velocity=110 time=0
EXTRACT: note_on channel=9 note=70 velocity=75 time=0
EXTRACT: note_on channel=9 note=41 velocity=75 time=0
EXTRACT: note_on channel=9 note=47 velocity=75 time=0
EXTRACT: note_on channel=9 note=41 velocity=127 time=0
EXTRACT: note_on channel=9 note=47 velocity=127 time=0
EXTRACT: note_on channel=5 note=71 velocity=90 time=0
EXTRACT: note_on channel=5 note=75 velocity=90 time=0
EXTRACT: note_on channel=5 note=78 velocity=90 time=0
EXTRACT: note_on channel=10 note=71 velocity=90 time=0
EXTRACT: note_on channel=10 note=75 velocity=90 time=0
EXTRACT: note_on channel=10 note=78 velocity=90 time=0
EXTRACT: note_on channel=6 note=47 velocity=90 time=0
EXTRACT: note_on channel=9 note=70 velocity=0 time=0.261160575
EXTRACT: note_on channel=9 note=41 velocity=0 time=0
EXTRACT: note_on channel=9 note=47 velocity=0 time=0
EXTRACT: note_on channel=9 note=41 velocity=0 time=0
EXTRACT: note_on channel=9 note=47 velocity=0 time=0
EXTRACT: note_on channel=9 note=70 velocity=75 time=0.006696425000000001
EXTRACT: note_on channel=9 note=41 velocity=75 time=0
EXTRACT: note_on channel=9 note=47 velocity=75 time=0
EXTRACT: note_on channel=9 note=70 velocity=0 time=0.127232075
EXTRACT: note_on channel=9 note=41 velocity=0 time=0
EXTRACT: note_on channel=9 note=47 velocity=0 time=0
EXTRACT: note_on channel=9 note=70 velocity=75 time=0.006696425000000001
EXTRACT: note_on channel=9 note=41 velocity=75 time=0
EXTRACT: note_on channel=9 note=47 velocity=75 time=0
EXTRACT: note_on channel=2 note=47 velocity=0 time=0.04464283333333333
EXTRACT: note_on channel=6 note=47 velocity=0 time=0
EXTRACT: note_on channel=2 note=46 velocity=110 time=0.08928566666666667
EXTRACT: note_on channel=9 note=41 velocity=127 time=0
EXTRACT: note_on channel=9 note=47 velocity=127 time=0
EXTRACT: note_on channel=6 note=46 velocity=90 time=0
EXTRACT: note_on channel=9 note=70 velocity=0 time=0.127232075
EXTRACT: note_on channel=9 note=41 velocity=0 time=0
EXTRACT: note_on channel=9 note=47 velocity=0 time=0
EXTRACT: note_on channel=9 note=70 velocity=75 time=0.006696425000000001
EXTRACT: note_on channel=9 note=41 velocity=75 time=0
EXTRACT: note_on channel=9 note=47 velocity=75 time=0
EXTRACT: note_on channel=9 note=70 velocity=0 time=0.127232075
EXTRACT: note_on channel=9 note=41 velocity=0 time=0
EXTRACT: note_on channel=9 note=47 velocity=0 time=0
EXTRACT: note_on channel=9 note=41 velocity=0 time=0
EXTRACT: note_on channel=9 note=47 velocity=0 time=0
EXTRACT: note_on channel=9 note=70 velocity=75 time=0.006696425000000001
EXTRACT: note_on channel=9 note=41 velocity=75 time=0
EXTRACT: note_on channel=9 note=47 velocity=75 time=0
EXTRACT: note_on channel=1 note=71 velocity=0 time=0.1339285
EXTRACT: note_on channel=1 note=75 velocity=0 time=0
EXTRACT: note_on channel=1 note=78 velocity=0 time=0
EXTRACT: note_on channel=3 note=71 velocity=0 time=0
EXTRACT: note_on channel=9 note=40 velocity=0 time=0
EXTRACT: note_on channel=9 note=44 velocity=0 time=0
EXTRACT: note_on channel=9 note=47 velocity=0 time=0
EXTRACT: note_on channel=9 note=51 velocity=0 time=0
EXTRACT: note_on channel=9 note=54 velocity=0 time=0
EXTRACT: note_on channel=9 note=57 velocity=0 time=0
EXTRACT: note_on channel=5 note=71 velocity=0 time=0
EXTRACT: note_on channel=5 note=75 velocity=0 time=0
EXTRACT: note_on channel=5 note=78 velocity=0 time=0
EXTRACT: note_on channel=10 note=71 velocity=0 time=0
EXTRACT: note_on channel=10 note=75 velocity=0 time=0
EXTRACT: note_on channel=10 note=78 velocity=0 time=0
EXTRACT: note_on channel=2 note=46 velocity=0 time=0.04464283333333333
EXTRACT: note_on channel=6 note=46 velocity=0 time=0
EXTRACT: note_on channel=9 note=70 velocity=0 time=0.08258924166666667
EXTRACT: note_on channel=9 note=41 velocity=0 time=0
EXTRACT: note_on channel=9 note=47 velocity=0 time=0
EXTRACT: note_on channel=1 note=70 velocity=110 time=0.006696425000000001
EXTRACT: note_on channel=1 note=75 velocity=110 time=0
EXTRACT: note_on channel=1 note=78 velocity=110 time=0
EXTRACT: note_on channel=2 note=44 velocity=110 time=0
EXTRACT: note_on channel=3 note=70 velocity=110 time=0
EXTRACT: note_on channel=9 note=70 velocity=75 time=0
EXTRACT: note_on channel=9 note=41 velocity=75 time=0
EXTRACT: note_on channel=9 note=47 velocity=75 time=0
EXTRACT: note_on channel=9 note=41 velocity=127 time=0
EXTRACT: note_on channel=9 note=47 velocity=127 time=0
EXTRACT: note_on channel=5 note=70 velocity=90 time=0
EXTRACT: note_on channel=5 note=75 velocity=90 time=0
EXTRACT: note_on channel=5 note=78 velocity=90 time=0
EXTRACT: note_on channel=10 note=70 velocity=90 time=0
EXTRACT: note_on channel=10 note=75 velocity=90 time=0
EXTRACT: note_on channel=10 note=78 velocity=90 time=0
EXTRACT: note_on channel=6 note=44 velocity=90 time=0
EXTRACT: note_on channel=1 note=70 velocity=0 time=0.261160575
EXTRACT: note_on channel=1 note=75 velocity=0 time=0
EXTRACT: note_on channel=1 note=78 velocity=0 time=0
EXTRACT: note_on channel=3 note=70 velocity=0 time=0
EXTRACT: note_on channel=9 note=70 velocity=0 time=0
EXTRACT: note_on channel=9 note=41 velocity=0 time=0
EXTRACT: note_on channel=9 note=47 velocity=0 time=0
EXTRACT: note_on channel=9 note=41 velocity=0 time=0
EXTRACT: note_on channel=9 note=47 velocity=0 time=0
EXTRACT: note_on channel=5 note=70 velocity=0 time=0
EXTRACT: note_on channel=5 note=75 velocity=0 time=0
EXTRACT: note_on channel=5 note=78 velocity=0 time=0
EXTRACT: note_on channel=10 note=70 velocity=0 time=0
EXTRACT: note_on channel=10 note=75 velocity=0 time=0
EXTRACT: note_on channel=10 note=78 velocity=0 time=0
EXTRACT: note_on channel=1 note=68 velocity=110 time=0.006696425000000001
EXTRACT: note_on channel=1 note=73 velocity=110 time=0
EXTRACT: note_on channel=1 note=78 velocity=110 time=0
EXTRACT: note_on channel=3 note=68 velocity=110 time=0
EXTRACT: note_on channel=9 note=70 velocity=75 time=0
EXTRACT: note_on channel=9 note=41 velocity=75 time=0
EXTRACT: note_on channel=9 note=47 velocity=75 time=0
EXTRACT: note_on channel=5 note=68 velocity=90 time=0
EXTRACT: note_on channel=5 note=73 velocity=90 time=0
EXTRACT: note_on channel=5 note=78 velocity=90 time=0
EXTRACT: note_on channel=10 note=68 velocity=90 time=0
EXTRACT: note_on channel=10 note=73 velocity=90 time=0
EXTRACT: note_on channel=10 note=78 velocity=90 time=0
EXTRACT: note_on channel=9 note=70 velocity=0 time=0.127232075
EXTRACT: note_on channel=9 note=41 velocity=0 time=0
EXTRACT: note_on channel=9 note=47 velocity=0 time=0
EXTRACT: note_on channel=9 note=70 velocity=75 time=0.006696425000000001
EXTRACT: note_on channel=9 note=41 velocity=75 time=0
EXTRACT: note_on channel=9 note=47 velocity=75 time=0
EXTRACT: note_on channel=1 note=68 velocity=0 time=0.127232075
EXTRACT: note_on channel=1 note=73 velocity=0 time=0
EXTRACT: note_on channel=1 note=78 velocity=0 time=0
EXTRACT: note_on channel=3 note=68 velocity=0 time=0
EXTRACT: note_on channel=5 note=68 velocity=0 time=0
EXTRACT: note_on channel=5 note=73 velocity=0 time=0
EXTRACT: note_on channel=5 note=78 velocity=0 time=0
EXTRACT: note_on channel=10 note=68 velocity=0 time=0
EXTRACT: note_on channel=10 note=73 velocity=0 time=0
EXTRACT: note_on channel=10 note=78 velocity=0 time=0
EXTRACT: note_on channel=1 note=68 velocity=110 time=0.006696425000000001
EXTRACT: note_on channel=1 note=73 velocity=110 time=0
EXTRACT: note_on channel=1 note=78 velocity=110 time=0
EXTRACT: note_on channel=3 note=68 velocity=110 time=0
EXTRACT: note_on channel=9 note=41 velocity=127 time=0
EXTRACT: note_on channel=9 note=47 velocity=127 time=0
EXTRACT: note_on channel=5 note=68 velocity=90 time=0
EXTRACT: note_on channel=5 note=73 velocity=90 time=0
EXTRACT: note_on channel=5 note=78 velocity=90 time=0
EXTRACT: note_on channel=10 note=68 velocity=90 time=0
EXTRACT: note_on channel=10 note=73 velocity=90 time=0
EXTRACT: note_on channel=10 note=78 velocity=90 time=0
EXTRACT: note_on channel=9 note=70 velocity=0 time=0.127232075
EXTRACT: note_on channel=9 note=41 velocity=0 time=0
EXTRACT: note_on channel=9 note=47 velocity=0 time=0
EXTRACT: note_on channel=9 note=70 velocity=75 time=0.006696425000000001
EXTRACT: note_on channel=9 note=41 velocity=75 time=0
EXTRACT: note_on channel=9 note=47 velocity=75 time=0
EXTRACT: note_on channel=9 note=70 velocity=0 time=0.127232075
EXTRACT: note_on channel=9 note=41 velocity=0 time=0
EXTRACT: note_on channel=9 note=47 velocity=0 time=0
EXTRACT: note_on channel=9 note=41 velocity=0 time=0
EXTRACT: note_on channel=9 note=47 velocity=0 time=0
EXTRACT: note_on channel=9 note=70 velocity=75 time=0.006696425000000001
EXTRACT: note_on channel=9 note=41 velocity=75 time=0
EXTRACT: note_on channel=9 note=47 velocity=75 time=0
EXTRACT: note_on channel=2 note=44 velocity=0 time=0.1339285
EXTRACT: note_on channel=6 note=44 velocity=0 time=0
EXTRACT: note_on channel=1 note=68 velocity=0 time=0.04464283333333333
EXTRACT: note_on channel=1 note=73 velocity=0 time=0
EXTRACT: note_on channel=1 note=78 velocity=0 time=0
EXTRACT: note_on channel=3 note=68 velocity=0 time=0
EXTRACT: note_on channel=5 note=68 velocity=0 time=0
EXTRACT: note_on channel=5 note=73 velocity=0 time=0
EXTRACT: note_on channel=5 note=78 velocity=0 time=0
EXTRACT: note_on channel=10 note=68 velocity=0 time=0
EXTRACT: note_on channel=10 note=73 velocity=0 time=0
EXTRACT: note_on channel=10 note=78 velocity=0 time=0
EXTRACT: note_on channel=9 note=70 velocity=0 time=0.08258924166666667
EXTRACT: note_on channel=9 note=41 velocity=0 time=0
EXTRACT: note_on channel=9 note=47 velocity=0 time=0
EXTRACT: note_on channel=0 note=78 velocity=110 time=0.006696425000000001
EXTRACT: note_on channel=1 note=68 velocity=110 time=0
EXTRACT: note_on channel=1 note=73 velocity=110 time=0
EXTRACT: note_on channel=1 note=78 velocity=110 time=0
EXTRACT: note_on channel=2 note=49 velocity=110 time=0
EXTRACT: note_on channel=9 note=70 velocity=75 time=0
EXTRACT: note_on channel=9 note=41 velocity=75 time=0
EXTRACT: note_on channel=9 note=47 velocity=75 time=0
EXTRACT: note_on channel=9 note=41 velocity=127 time=0
EXTRACT: note_on channel=9 note=47 velocity=127 time=0
EXTRACT: note_on channel=5 note=68 velocity=90 time=0
EXTRACT: note_on channel=5 note=73 velocity=90 time=0
EXTRACT: note_on channel=5 note=78 velocity=90 time=0
EXTRACT: note_on channel=10 note=68 velocity=90 time=0
EXTRACT: note_on channel=10 note=73 velocity=90 time=0
EXTRACT: note_on channel=10 note=78 velocity=90 time=0
EXTRACT: note_on channel=6 note=49 velocity=90 time=0
EXTRACT: note_on channel=9 note=70 velocity=0 time=0.261160575
EXTRACT: note_on channel=9 note=41 velocity=0 time=0
EXTRACT: note_on channel=9 note=47 velocity=0 time=0
EXTRACT: note_on channel=9 note=41 velocity=0 time=0
EXTRACT: note_on channel=9 note=47 velocity=0 time=0
EXTRACT: note_on channel=9 note=70 velocity=75 time=0.006696425000000001
EXTRACT: note_on channel=9 note=41 velocity=75 time=0
EXTRACT: note_on channel=9 note=47 velocity=75 time=0
EXTRACT: note_on channel=0 note=78 velocity=0 time=0.127232075
EXTRACT: note_on channel=1 note=68 velocity=0 time=0
EXTRACT: note_on channel=1 note=73 velocity=0 time=0
EXTRACT: note_on channel=1 note=78 velocity=0 time=0
EXTRACT: note_on channel=9 note=70 velocity=0 time=0
EXTRACT: note_on channel=9 note=41 velocity=0 time=0
EXTRACT: note_on channel=9 note=47 velocity=0 time=0
EXTRACT: note_on channel=5 note=68 velocity=0 time=0
EXTRACT: note_on channel=5 note=73 velocity=0 time=0
EXTRACT: note_on channel=5 note=78 velocity=0 time=0
EXTRACT: note_on channel=10 note=68 velocity=0 time=0
EXTRACT: note_on channel=10 note=73 velocity=0 time=0
EXTRACT: note_on channel=10 note=78 velocity=0 time=0
EXTRACT: note_on channel=0 note=78 velocity=110 time=0.006696425000000001
EXTRACT: note_on channel=1 note=68 velocity=110 time=0
EXTRACT: note_on channel=1 note=73 velocity=110 time=0
EXTRACT: note_on channel=1 note=78 velocity=110 time=0
EXTRACT: note_on channel=9 note=70 velocity=75 time=0
EXTRACT: note_on channel=9 note=41 velocity=75 time=0
EXTRACT: note_on channel=9 note=47 velocity=75 time=0
EXTRACT: note_on channel=5 note=68 velocity=90 time=0
EXTRACT: note_on channel=5 note=73 velocity=90 time=0
EXTRACT: note_on channel=5 note=78 velocity=90 time=0
EXTRACT: note_on channel=10 note=68 velocity=90 time=0
EXTRACT: note_on channel=10 note=73 velocity=90 time=0
EXTRACT: note_on channel=10 note=78 velocity=90 time=0
EXTRACT: note_on channel=9 note=41 velocity=127 time=0.1339285
EXTRACT: note_on channel=9 note=47 velocity=127 time=0
EXTRACT: note_on channel=9 note=70 velocity=0 time=0.127232075
EXTRACT: note_on channel=9 note=41 velocity=0 time=0
EXTRACT: note_on channel=9 note=47 velocity=0 time=0
EXTRACT: note_on channel=9 note=70 velocity=75 time=0.006696425000000001
EXTRACT: note_on channel=9 note=41 velocity=75 time=0
EXTRACT: note_on channel=9 note=47 velocity=75 time=0
EXTRACT: note_on channel=0 note=78 velocity=0 time=0.127232075
EXTRACT: note_on channel=1 note=68 velocity=0 time=0
EXTRACT: note_on channel=1 note=73 velocity=0 time=0
EXTRACT: note_on channel=1 note=78 velocity=0 time=0
EXTRACT: note_on channel=9 note=70 velocity=0 time=0
EXTRACT: note_on channel=9 note=41 velocity=0 time=0
EXTRACT: note_on channel=9 note=47 velocity=0 time=0
EXTRACT: note_on channel=9 note=41 velocity=0 time=0
EXTRACT: note_on channel=9 note=47 velocity=0 time=0
EXTRACT: note_on channel=5 note=68 velocity=0 time=0
EXTRACT: note_on channel=5 note=73 velocity=0 time=0
EXTRACT: note_on channel=5 note=78 velocity=0 time=0
EXTRACT: note_on channel=10 note=68 velocity=0 time=0
EXTRACT: note_on channel=10 note=73 velocity=0 time=0
EXTRACT: note_on channel=10 note=78 velocity=0 time=0
EXTRACT: note_on channel=0 note=73 velocity=110 time=0.006696425000000001
EXTRACT: note_on channel=1 note=73 velocity=110 time=0
EXTRACT: note_on channel=9 note=70 velocity=75 time=0
EXTRACT: note_on channel=9 note=41 velocity=75 time=0
EXTRACT: note_on channel=9 note=47 velocity=75 time=0
EXTRACT: note_on channel=5 note=73 velocity=90 time=0
EXTRACT: note_on channel=10 note=73 velocity=90 time=0
EXTRACT: note_on channel=2 note=49 velocity=0 time=0.1339285
EXTRACT: note_on channel=6 note=49 velocity=0 time=0
EXTRACT: note_on channel=0 note=73 velocity=0 time=0.127232075
EXTRACT: note_on channel=1 note=73 velocity=0 time=0
EXTRACT: note_on channel=9 note=70 velocity=0 time=0
EXTRACT: note_on channel=9 note=41 velocity=0 time=0
EXTRACT: note_on channel=9 note=47 velocity=0 time=0
EXTRACT: note_on channel=5 note=73 velocity=0 time=0
EXTRACT: note_on channel=10 note=73 velocity=0 time=0
EXTRACT: note_on channel=0 note=75 velocity=110 time=0.006696425000000001
EXTRACT: note_on channel=1 note=66 velocity=110 time=0
EXTRACT: note_on channel=1 note=70 velocity=110 time=0
EXTRACT: note_on channel=1 note=75 velocity=110 time=0
EXTRACT: note_on channel=2 note=42 velocity=110 time=0
EXTRACT: note_on channel=9 note=70 velocity=75 time=0
EXTRACT: note_on channel=9 note=41 velocity=75 time=0
EXTRACT: note_on channel=9 note=47 velocity=75 time=0
EXTRACT: note_on channel=9 note=41 velocity=127 time=0
EXTRACT: note_on channel=9 note=47 velocity=127 time=0
EXTRACT: note_on channel=5 note=66 velocity=90 time=0
EXTRACT: note_on channel=5 note=70 velocity=90 time=0
EXTRACT: note_on channel=5 note=75 velocity=90 time=0
EXTRACT: note_on channel=10 note=66 velocity=90 time=0
EXTRACT: note_on channel=10 note=70 velocity=90 time=0
EXTRACT: note_on channel=10 note=75 velocity=90 time=0
EXTRACT: note_on channel=6 note=42 velocity=90 time=0
EXTRACT: note_on channel=9 note=70 velocity=0 time=0.261160575
EXTRACT: note_on channel=9 note=41 velocity=0 time=0
EXTRACT: note_on channel=9 note=47 velocity=0 time=0
EXTRACT: note_on channel=9 note=41 velocity=0 time=0
EXTRACT: note_on channel=9 note=47 velocity=0 time=0
EXTRACT: note_on channel=9 note=70 velocity=75 time=0.006696425000000001
EXTRACT: note_on channel=9 note=41 velocity=75 time=0
EXTRACT: note_on channel=9 note=47 velocity=75 time=0
EXTRACT: note_on channel=9 note=70 velocity=0 time=0.127232075
EXTRACT: note_on channel=9 note=41 velocity=0 time=0
EXTRACT: note_on channel=9 note=47 velocity=0 time=0
EXTRACT: note_on channel=9 note=70 velocity=75 time=0.006696425000000001
EXTRACT: note_on channel=9 note=41 velocity=75 time=0
EXTRACT: note_on channel=9 note=47 velocity=75 time=0
EXTRACT: note_on channel=0 note=75 velocity=0 time=0.04464283333333333
EXTRACT: note_on channel=1 note=66 velocity=0 time=0
EXTRACT: note_on channel=1 note=70 velocity=0 time=0
EXTRACT: note_on channel=1 note=75 velocity=0 time=0
EXTRACT: note_on channel=5 note=66 velocity=0 time=0
EXTRACT: note_on channel=5 note=70 velocity=0 time=0
EXTRACT: note_on channel=5 note=75 velocity=0 time=0
EXTRACT: note_on channel=10 note=66 velocity=0 time=0
EXTRACT: note_on channel=10 note=70 velocity=0 time=0
EXTRACT: note_on channel=10 note=75 velocity=0 time=0
EXTRACT: note_on channel=0 note=73 velocity=110 time=0.08928566666666667
EXTRACT: note_on channel=1 note=73 velocity=110 time=0
EXTRACT: note_on channel=9 note=41 velocity=127 time=0
EXTRACT: note_on channel=9 note=47 velocity=127 time=0
EXTRACT: note_on channel=5 note=73 velocity=90 time=0
EXTRACT: note_on channel=10 note=73 velocity=90 time=0
EXTRACT: note_on channel=9 note=70 velocity=0 time=0.127232075
EXTRACT: note_on channel=9 note=41 velocity=0 time=0
EXTRACT: note_on channel=9 note=47 velocity=0 time=0
EXTRACT: note_on channel=9 note=70 velocity=75 time=0.006696425000000001
EXTRACT: note_on channel=9 note=41 velocity=75 time=0
EXTRACT: note_on channel=9 note=47 velocity=75 time=0
EXTRACT: note_on channel=9 note=70 velocity=0 time=0.127232075
EXTRACT: note_on channel=9 note=41 velocity=0 time=0
EXTRACT: note_on channel=9 note=47 velocity=0 time=0
EXTRACT: note_on channel=9 note=41 velocity=0 time=0
EXTRACT: note_on channel=9 note=47 velocity=0 time=0
EXTRACT: note_on channel=9 note=70 velocity=75 time=0.006696425000000001
EXTRACT: note_on channel=9 note=41 velocity=75 time=0
EXTRACT: note_on channel=9 note=47 velocity=75 time=0
EXTRACT: note_on channel=2 note=42 velocity=0 time=0.1339285
EXTRACT: note_on channel=6 note=42 velocity=0 time=0
EXTRACT: note_on channel=0 note=73 velocity=0 time=0.04464283333333333
EXTRACT: note_on channel=1 note=73 velocity=0 time=0
EXTRACT: note_on channel=5 note=73 velocity=0 time=0
EXTRACT: note_on channel=10 note=73 velocity=0 time=0
EXTRACT: note_on channel=9 note=70 velocity=0 time=0.08258924166666667
EXTRACT: note_on channel=9 note=41 velocity=0 time=0
EXTRACT: note_on channel=9 note=47 velocity=0 time=0
EXTRACT: note_on channel=1 note=71 velocity=110 time=0.006696425000000001
EXTRACT: note_on channel=1 note=75 velocity=110 time=0
EXTRACT: note_on channel=1 note=78 velocity=110 time=0
EXTRACT: note_on channel=2 note=47 velocity=110 time=0
EXTRACT: note_on channel=3 note=71 velocity=110 time=0
EXTRACT: note_on channel=9 note=70 velocity=75 time=0
EXTRACT: note_on channel=9 note=41 velocity=75 time=0
EXTRACT: note_on channel=9 note=47 velocity=75 time=0
EXTRACT: note_on channel=9 note=41 velocity=127 time=0
EXTRACT: note_on channel=9 note=47 velocity=127 time=0
EXTRACT: note_on channel=5 note=71 velocity=90 time=0
EXTRACT: note_on channel=5 note=75 velocity=90 time=0
EXTRACT: note_on channel=5 note=78 velocity=90 time=0
EXTRACT: note_on channel=10 note=71 velocity=90 time=0
EXTRACT: note_on channel=10 note=75 velocity=90 time=0
EXTRACT: note_on channel=10 note=78 velocity=90 time=0
EXTRACT: note_on channel=6 note=47 velocity=90 time=0
EXTRACT: note_on channel=9 note=70 velocity=0 time=0.261160575
EXTRACT: note_on channel=9 note=41 velocity=0 time=0
EXTRACT: note_on channel=9 note=47 velocity=0 time=0
EXTRACT: note_on channel=9 note=41 velocity=0 time=0
EXTRACT: note_on channel=9 note=47 velocity=0 time=0
EXTRACT: note_on channel=9 note=70 velocity=75 time=0.006696425000000001
EXTRACT: note_on channel=9 note=41 velocity=75 time=0
EXTRACT: note_on channel=9 note=47 velocity=75 time=0
EXTRACT: note_on channel=9 note=70 velocity=0 time=0.127232075
EXTRACT: note_on channel=9 note=41 velocity=0 time=0
EXTRACT: note_on channel=9 note=47 velocity=0 time=0
EXTRACT: note_on channel=9 note=70 velocity=75 time=0.006696425000000001
EXTRACT: note_on channel=9 note=41 velocity=75 time=0
EXTRACT: note_on channel=9 note=47 velocity=75 time=0
EXTRACT: note_on channel=1 note=71 velocity=0 time=0.04464283333333333
EXTRACT: note_on channel=1 note=75 velocity=0 time=0
EXTRACT: note_on channel=1 note=78 velocity=0 time=0
EXTRACT: note_on channel=2 note=47 velocity=0 time=0
EXTRACT: note_on channel=3 note=71 velocity=0 time=0
EXTRACT: note_on channel=5 note=71 velocity=0 time=0
EXTRACT: note_on channel=5 note=75 velocity=0 time=0
EXTRACT: note_on channel=5 note=78 velocity=0 time=0
EXTRACT: note_on channel=10 note=71 velocity=0 time=0
EXTRACT: note_on channel=10 note=75 velocity=0 time=0
EXTRACT: note_on channel=10 note=78 velocity=0 time=0
EXTRACT: note_on channel=6 note=47 velocity=0 time=0
EXTRACT: note_on channel=1 note=70 velocity=110 time=0.08928566666666667
EXTRACT: note_on channel=2 note=46 velocity=110 time=0
EXTRACT: note_on channel=3 note=70 velocity=110 time=0
EXTRACT: note_on channel=9 note=41 velocity=127 time=0
EXTRACT: note_on channel=9 note=47 velocity=127 time=0
EXTRACT: note_on channel=5 note=70 velocity=90 time=0
EXTRACT: note_on channel=10 note=70 velocity=90 time=0
EXTRACT: note_on channel=6 note=46 velocity=90 time=0
EXTRACT: note_on channel=9 note=70 velocity=0 time=0.127232075
EXTRACT: note_on channel=9 note=41 velocity=0 time=0
EXTRACT: note_on channel=9 note=47 velocity=0 time=0
EXTRACT: note_on channel=9 note=70 velocity=75 time=0.006696425000000001
EXTRACT: note_on channel=9 note=41 velocity=75 time=0
EXTRACT: note_on channel=9 note=47 velocity=75 time=0
EXTRACT: note_on channel=9 note=70 velocity=0 time=0.127232075
EXTRACT: note_on channel=9 note=41 velocity=0 time=0
EXTRACT: note_on channel=9 note=47 velocity=0 time=0
EXTRACT: note_on channel=9 note=41 velocity=0 time=0
EXTRACT: note_on channel=9 note=47 velocity=0 time=0
EXTRACT: note_on channel=9 note=70 velocity=75 time=0.006696425000000001
EXTRACT: note_on channel=9 note=41 velocity=75 time=0
EXTRACT: note_on channel=9 note=47 velocity=75 time=0
EXTRACT: note_on channel=1 note=70 velocity=0 time=0.17857133333333333
EXTRACT: note_on channel=2 note=46 velocity=0 time=0
EXTRACT: note_on channel=3 note=70 velocity=0 time=0
EXTRACT: note_on channel=5 note=70 velocity=0 time=0
EXTRACT: note_on channel=10 note=70 velocity=0 time=0
EXTRACT: note_on channel=6 note=46 velocity=0 time=0
EXTRACT: note_on channel=9 note=70 velocity=0 time=0.08258924166666667
EXTRACT: note_on channel=9 note=41 velocity=0 time=0
EXTRACT: note_on channel=9 note=47 velocity=0 time=0
EXTRACT: note_on channel=1 note=70 velocity=110 time=0.006696425000000001
EXTRACT: note_on channel=1 note=75 velocity=110 time=0
EXTRACT: note_on channel=1 note=78 velocity=110 time=0
EXTRACT: note_on channel=2 note=44 velocity=110 time=0
EXTRACT: note_on channel=3 note=70 velocity=110 time=0
EXTRACT: note_on channel=9 note=70 velocity=75 time=0
EXTRACT: note_on channel=9 note=41 velocity=75 time=0
EXTRACT: note_on channel=9 note=47 velocity=75 time=0
EXTRACT: note_on channel=9 note=41 velocity=127 time=0
EXTRACT: note_on channel=9 note=47 velocity=127 time=0
EXTRACT: note_on channel=5 note=70 velocity=90 time=0
EXTRACT: note_on channel=5 note=75 velocity=90 time=0
EXTRACT: note_on channel=5 note=78 velocity=90 time=0
EXTRACT: note_on channel=10 note=70 velocity=90 time=0
EXTRACT: note_on channel=10 note=75 velocity=90 time=0
EXTRACT: note_on channel=10 note=78 velocity=90 time=0
EXTRACT: note_on channel=6 note=44 velocity=90 time=0
EXTRACT: note_on channel=1 note=70 velocity=0 time=0.261160575
EXTRACT: note_on channel=1 note=75 velocity=0 time=0
EXTRACT: note_on channel=1 note=78 velocity=0 time=0
EXTRACT: note_on channel=3 note=70 velocity=0 time=0
EXTRACT: note_on channel=9 note=70 velocity=0 time=0
EXTRACT: note_on channel=9 note=41 velocity=0 time=0
EXTRACT: note_on channel=9 note=47 velocity=0 time=0
EXTRACT: note_on channel=9 note=41 velocity=0 time=0
EXTRACT: note_on channel=9 note=47 velocity=0 time=0
EXTRACT: note_on channel=5 note=70 velocity=0 time=0
EXTRACT: note_on channel=5 note=75 velocity=0 time=0
EXTRACT: note_on channel=5 note=78 velocity=0 time=0
EXTRACT: note_on channel=10 note=70 velocity=0 time=0
EXTRACT: note_on channel=10 note=75 velocity=0 time=0
EXTRACT: note_on channel=10 note=78 velocity=0 time=0
EXTRACT: note_on channel=1 note=68 velocity=110 time=0.006696425000000001
EXTRACT: note_on channel=1 note=73 velocity=110 time=0
EXTRACT: note_on channel=1 note=78 velocity=110 time=0
EXTRACT: note_on channel=3 note=68 velocity=110 time=0
EXTRACT: note_on channel=9 note=70 velocity=75 time=0
EXTRACT: note_on channel=9 note=41 velocity=75 time=0
EXTRACT: note_on channel=9 note=47 velocity=75 time=0
EXTRACT: note_on channel=5 note=68 velocity=90 time=0
EXTRACT: note_on channel=5 note=73 velocity=90 time=0
EXTRACT: note_on channel=5 note=78 velocity=90 time=0
EXTRACT: note_on channel=10 note=68 velocity=90 time=0
EXTRACT: note_on channel=10 note=73 velocity=90 time=0
EXTRACT: note_on channel=10 note=78 velocity=90 time=0
EXTRACT: note_on channel=9 note=70 velocity=0 time=0.127232075
EXTRACT: note_on channel=9 note=41 velocity=0 time=0
EXTRACT: note_on channel=9 note=47 velocity=0 time=0
EXTRACT: note_on channel=9 note=70 velocity=75 time=0.006696425000000001
EXTRACT: note_on channel=9 note=41 velocity=75 time=0
EXTRACT: note_on channel=9 note=47 velocity=75 time=0
EXTRACT: note_on channel=1 note=68 velocity=0 time=0.127232075
EXTRACT: note_on channel=1 note=73 velocity=0 time=0
EXTRACT: note_on channel=1 note=78 velocity=0 time=0
EXTRACT: note_on channel=3 note=68 velocity=0 time=0
EXTRACT: note_on channel=5 note=68 velocity=0 time=0
EXTRACT: note_on channel=5 note=73 velocity=0 time=0
EXTRACT: note_on channel=5 note=78 velocity=0 time=0
EXTRACT: note_on channel=10 note=68 velocity=0 time=0
EXTRACT: note_on channel=10 note=73 velocity=0 time=0
EXTRACT: note_on channel=10 note=78 velocity=0 time=0
EXTRACT: note_on channel=1 note=68 velocity=110 time=0.006696425000000001
EXTRACT: note_on channel=1 note=73 velocity=110 time=0
EXTRACT: note_on channel=1 note=78 velocity=110 time=0
EXTRACT: note_on channel=3 note=68 velocity=110 time=0
EXTRACT: note_on channel=9 note=41 velocity=127 time=0
EXTRACT: note_on channel=9 note=47 velocity=127 time=0
EXTRACT: note_on channel=5 note=68 velocity=90 time=0
EXTRACT: note_on channel=5 note=73 velocity=90 time=0
EXTRACT: note_on channel=5 note=78 velocity=90 time=0
EXTRACT: note_on channel=10 note=68 velocity=90 time=0
EXTRACT: note_on channel=10 note=73 velocity=90 time=0
EXTRACT: note_on channel=10 note=78 velocity=90 time=0
EXTRACT: note_on channel=9 note=70 velocity=0 time=0.127232075
EXTRACT: note_on channel=9 note=41 velocity=0 time=0
EXTRACT: note_on channel=9 note=47 velocity=0 time=0
EXTRACT: note_on channel=9 note=70 velocity=75 time=0.006696425000000001
EXTRACT: note_on channel=9 note=41 velocity=75 time=0
EXTRACT: note_on channel=9 note=47 velocity=75 time=0
EXTRACT: note_on channel=9 note=70 velocity=0 time=0.127232075
EXTRACT: note_on channel=9 note=41 velocity=0 time=0
EXTRACT: note_on channel=9 note=47 velocity=0 time=0
EXTRACT: note_on channel=9 note=41 velocity=0 time=0
EXTRACT: note_on channel=9 note=47 velocity=0 time=0
EXTRACT: note_on channel=9 note=70 velocity=75 time=0.006696425000000001
EXTRACT: note_on channel=9 note=41 velocity=75 time=0
EXTRACT: note_on channel=9 note=47 velocity=75 time=0
EXTRACT: note_on channel=2 note=44 velocity=0 time=0.1339285
EXTRACT: note_on channel=6 note=44 velocity=0 time=0
EXTRACT: note_on channel=1 note=68 velocity=0 time=0.04464283333333333
EXTRACT: note_on channel=1 note=73 velocity=0 time=0
EXTRACT: note_on channel=1 note=78 velocity=0 time=0
EXTRACT: note_on channel=3 note=68 velocity=0 time=0
EXTRACT: note_on channel=5 note=68 velocity=0 time=0
EXTRACT: note_on channel=5 note=73 velocity=0 time=0
EXTRACT: note_on channel=5 note=78 velocity=0 time=0
EXTRACT: note_on channel=10 note=68 velocity=0 time=0
EXTRACT: note_on channel=10 note=73 velocity=0 time=0
EXTRACT: note_on channel=10 note=78 velocity=0 time=0
EXTRACT: note_on channel=9 note=70 velocity=0 time=0.08258924166666667
EXTRACT: note_on channel=9 note=41 velocity=0 time=0
EXTRACT: note_on channel=9 note=47 velocity=0 time=0
EXTRACT: note_on channel=0 note=73 velocity=110 time=0.006696425000000001
EXTRACT: note_on channel=1 note=66 velocity=110 time=0
EXTRACT: note_on channel=1 note=68 velocity=110 time=0
EXTRACT: note_on channel=1 note=73 velocity=110 time=0
EXTRACT: note_on channel=2 note=49 velocity=110 time=0
EXTRACT: note_on channel=9 note=70 velocity=75 time=0
EXTRACT: note_on channel=9 note=41 velocity=75 time=0
EXTRACT: note_on channel=9 note=47 velocity=75 time=0
EXTRACT: note_on channel=9 note=41 velocity=127 time=0
EXTRACT: note_on channel=9 note=47 velocity=127 time=0
EXTRACT: note_on channel=5 note=66 velocity=90 time=0
EXTRACT: note_on channel=5 note=68 velocity=90 time=0
EXTRACT: note_on channel=5 note=73 velocity=90 time=0
EXTRACT: note_on channel=10 note=66 velocity=90 time=0
EXTRACT: note_on channel=10 note=68 velocity=90 time=0
EXTRACT: note_on channel=10 note=73 velocity=90 time=0
EXTRACT: note_on channel=6 note=49 velocity=90 time=0
EXTRACT: note_on channel=9 note=70 velocity=0 time=0.261160575
EXTRACT: note_on channel=9 note=41 velocity=0 time=0
EXTRACT: note_on channel=9 note=47 velocity=0 time=0
EXTRACT: note_on channel=9 note=41 velocity=0 time=0
EXTRACT: note_on channel=9 note=47 velocity=0 time=0
EXTRACT: note_on channel=9 note=70 velocity=75 time=0.006696425000000001
EXTRACT: note_on channel=9 note=41 velocity=75 time=0
EXTRACT: note_on channel=9 note=47 velocity=75 time=0
EXTRACT: note_on channel=0 note=73 velocity=0 time=0.127232075
EXTRACT: note_on channel=1 note=66 velocity=0 time=0
EXTRACT: note_on channel=1 note=68 velocity=0 time=0
EXTRACT: note_on channel=1 note=73 velocity=0 time=0
EXTRACT: note_on channel=9 note=70 velocity=0 time=0
EXTRACT: note_on channel=9 note=41 velocity=0 time=0
EXTRACT: note_on channel=9 note=47 velocity=0 time=0
EXTRACT: note_on channel=5 note=66 velocity=0 time=0
EXTRACT: note_on channel=5 note=68 velocity=0 time=0
EXTRACT: note_on channel=5 note=73 velocity=0 time=0
EXTRACT: note_on channel=10 note=66 velocity=0 time=0
EXTRACT: note_on channel=10 note=68 velocity=0 time=0
EXTRACT: note_on channel=10 note=73 velocity=0 time=0
EXTRACT: note_on channel=0 note=73 velocity=110 time=0.006696425000000001
EXTRACT: note_on channel=1 note=66 velocity=110 time=0
EXTRACT: note_on channel=1 note=68 velocity=110 time=0
EXTRACT: note_on channel=1 note=73 velocity=110 time=0
EXTRACT: note_on channel=9 note=70 velocity=75 time=0
EXTRACT: note_on channel=9 note=41 velocity=75 time=0
EXTRACT: note_on channel=9 note=47 velocity=75 time=0
EXTRACT: note_on channel=5 note=66 velocity=90 time=0
EXTRACT: note_on channel=5 note=68 velocity=90 time=0
EXTRACT: note_on channel=5 note=73 velocity=90 time=0
EXTRACT: note_on channel=10 note=66 velocity=90 time=0
EXTRACT: note_on channel=10 note=68 velocity=90 time=0
EXTRACT: note_on channel=10 note=73 velocity=90 time=0
EXTRACT: note_on channel=9 note=41 velocity=127 time=0.1339285
EXTRACT: note_on channel=9 note=47 velocity=127 time=0
EXTRACT: note_on channel=9 note=70 velocity=0 time=0.127232075
EXTRACT: note_on channel=9 note=41 velocity=0 time=0
EXTRACT: note_on channel=9 note=47 velocity=0 time=0
EXTRACT: note_on channel=9 note=70 velocity=75 time=0.006696425000000001
EXTRACT: note_on channel=9 note=41 velocity=75 time=0
EXTRACT: note_on channel=9 note=47 velocity=75 time=0
EXTRACT: note_on channel=0 note=73 velocity=0 time=0.127232075
EXTRACT: note_on channel=1 note=66 velocity=0 time=0
EXTRACT: note_on channel=1 note=68 velocity=0 time=0
EXTRACT: note_on channel=1 note=73 velocity=0 time=0
EXTRACT: note_on channel=9 note=70 velocity=0 time=0
EXTRACT: note_on channel=9 note=41 velocity=0 time=0
EXTRACT: note_on channel=9 note=47 velocity=0 time=0
EXTRACT: note_on channel=9 note=41 velocity=0 time=0
EXTRACT: note_on channel=9 note=47 velocity=0 time=0
EXTRACT: note_on channel=5 note=66 velocity=0 time=0
EXTRACT: note_on channel=5 note=68 velocity=0 time=0
EXTRACT: note_on channel=5 note=73 velocity=0 time=0
EXTRACT: note_on channel=10 note=66 velocity=0 time=0
EXTRACT: note_on channel=10 note=68 velocity=0 time=0
EXTRACT: note_on channel=10 note=73 velocity=0 time=0
EXTRACT: note_on channel=0 note=77 velocity=110 time=0.006696425000000001
EXTRACT: note_on channel=1 note=77 velocity=110 time=0
EXTRACT: note_on channel=9 note=70 velocity=75 time=0
EXTRACT: note_on channel=9 note=41 velocity=75 time=0
EXTRACT: note_on channel=9 note=47 velocity=75 time=0
EXTRACT: note_on channel=5 note=77 velocity=90 time=0
EXTRACT: note_on channel=10 note=77 velocity=90 time=0
EXTRACT: note_on channel=2 note=49 velocity=0 time=0.1339285
EXTRACT: note_on channel=6 note=49 velocity=0 time=0
EXTRACT: note_on channel=0 note=77 velocity=0 time=0.127232075
EXTRACT: note_on channel=1 note=77 velocity=0 time=0
EXTRACT: note_on channel=9 note=70 velocity=0 time=0
EXTRACT: note_on channel=9 note=41 velocity=0 time=0
EXTRACT: note_on channel=9 note=47 velocity=0 time=0
EXTRACT: note_on channel=5 note=77 velocity=0 time=0
EXTRACT: note_on channel=10 note=77 velocity=0 time=0
EXTRACT: note_on channel=0 note=78 velocity=110 time=0.006696425000000001
EXTRACT: note_on channel=1 note=70 velocity=110 time=0
EXTRACT: note_on channel=1 note=73 velocity=110 time=0
EXTRACT: note_on channel=1 note=78 velocity=110 time=0
EXTRACT: note_on channel=2 note=42 velocity=110 time=0
EXTRACT: note_on channel=9 note=70 velocity=75 time=0
EXTRACT: note_on channel=9 note=41 velocity=75 time=0
EXTRACT: note_on channel=9 note=47 velocity=75 time=0
EXTRACT: note_on channel=9 note=41 velocity=127 time=0
EXTRACT: note_on channel=9 note=47 velocity=127 time=0
EXTRACT: note_on channel=5 note=70 velocity=90 time=0
EXTRACT: note_on channel=5 note=73 velocity=90 time=0
EXTRACT: note_on channel=5 note=78 velocity=90 time=0
EXTRACT: note_on channel=10 note=70 velocity=90 time=0
EXTRACT: note_on channel=10 note=73 velocity=90 time=0
EXTRACT: note_on channel=10 note=78 velocity=90 time=0
EXTRACT: note_on channel=6 note=42 velocity=90 time=0
EXTRACT: note_on channel=9 note=70 velocity=0 time=0.261160575
EXTRACT: note_on channel=9 note=41 velocity=0 time=0
EXTRACT: note_on channel=9 note=47 velocity=0 time=0
EXTRACT: note_on channel=9 note=41 velocity=0 time=0
EXTRACT: note_on channel=9 note=47 velocity=0 time=0
EXTRACT: note_on channel=9 note=70 velocity=75 time=0.006696425000000001
EXTRACT: note_on channel=9 note=41 velocity=75 time=0
EXTRACT: note_on channel=9 note=47 velocity=75 time=0
EXTRACT: note_on channel=9 note=70 velocity=0 time=0.127232075
EXTRACT: note_on channel=9 note=41 velocity=0 time=0
EXTRACT: note_on channel=9 note=47 velocity=0 time=0
EXTRACT: note_on channel=9 note=70 velocity=75 time=0.006696425000000001
EXTRACT: note_on channel=9 note=41 velocity=75 time=0
EXTRACT: note_on channel=9 note=47 velocity=75 time=0
EXTRACT: note_on channel=9 note=41 velocity=127 time=0.1339285
EXTRACT: note_on channel=9 note=47 velocity=127 time=0
EXTRACT: note_on channel=9 note=70 velocity=0 time=0.127232075
EXTRACT: note_on channel=9 note=41 velocity=0 time=0
EXTRACT: note_on channel=9 note=47 velocity=0 time=0
EXTRACT: note_on channel=9 note=70 velocity=75 time=0.006696425000000001
EXTRACT: note_on channel=9 note=41 velocity=75 time=0
EXTRACT: note_on channel=9 note=47 velocity=75 time=0
EXTRACT: note_on channel=9 note=70 velocity=0 time=0.127232075
EXTRACT: note_on channel=9 note=41 velocity=0 time=0
EXTRACT: note_on channel=9 note=47 velocity=0 time=0
EXTRACT: note_on channel=9 note=41 velocity=0 time=0
EXTRACT: note_on channel=9 note=47 velocity=0 time=0
EXTRACT: note_on channel=9 note=70 velocity=75 time=0.006696425000000001
EXTRACT: note_on channel=9 note=41 velocity=75 time=0
EXTRACT: note_on channel=9 note=47 velocity=75 time=0
EXTRACT: note_on channel=0 note=78 velocity=0 time=0.1339285
EXTRACT: note_on channel=1 note=70 velocity=0 time=0
EXTRACT: note_on channel=1 note=73 velocity=0 time=0
EXTRACT: note_on channel=1 note=78 velocity=0 time=0
EXTRACT: note_on channel=2 note=42 velocity=0 time=0
EXTRACT: note_on channel=5 note=70 velocity=0 time=0
EXTRACT: note_on channel=5 note=73 velocity=0 time=0
EXTRACT: note_on channel=5 note=78 velocity=0 time=0
EXTRACT: note_on channel=10 note=70 velocity=0 time=0
EXTRACT: note_on channel=10 note=73 velocity=0 time=0
EXTRACT: note_on channel=10 note=78 velocity=0 time=0
EXTRACT: note_on channel=6 note=42 velocity=0 time=0
EXTRACT: note_on channel=9 note=70 velocity=0 time=0.127232075
EXTRACT: note_on channel=9 note=41 velocity=0 time=0
EXTRACT: note_on channel=9 note=47 velocity=0 time=0
EXTRACT: note_on channel=0 note=73 velocity=110 time=0.006696425000000001
EXTRACT: note_on channel=1 note=63 velocity=110 time=0
EXTRACT: note_on channel=1 note=66 velocity=110 time=0
EXTRACT: note_on channel=1 note=73 velocity=110 time=0
EXTRACT: note_on channel=2 note=47 velocity=110 time=0
EXTRACT: note_on channel=9 note=70 velocity=75 time=0
EXTRACT: note_on channel=9 note=41 velocity=75 time=0
EXTRACT: note_on channel=9 note=47 velocity=75 time=0
EXTRACT: note_on channel=9 note=41 velocity=127 time=0
EXTRACT: note_on channel=9 note=47 velocity=127 time=0
EXTRACT: note_on channel=5 note=63 velocity=90 time=0
EXTRACT: note_on channel=5 note=66 velocity=90 time=0
EXTRACT: note_on channel=5 note=73 velocity=90 time=0
EXTRACT: note_on channel=10 note=63 velocity=90 time=0
EXTRACT: note_on channel=10 note=66 velocity=90 time=0
EXTRACT: note_on channel=10 note=73 velocity=90 time=0
EXTRACT: note_on channel=6 note=47 velocity=90 time=0
EXTRACT: note_on channel=9 note=70 velocity=0 time=0.261160575
EXTRACT: note_on channel=9 note=41 velocity=0 time=0
EXTRACT: note_on channel=9 note=47 velocity=0 time=0
EXTRACT: note_on channel=9 note=41 velocity=0 time=0
EXTRACT: note_on channel=9 note=47 velocity=0 time=0
EXTRACT: note_on channel=9 note=70 velocity=75 time=0.006696425000000001
EXTRACT: note_on channel=9 note=41 velocity=75 time=0
EXTRACT: note_on channel=9 note=47 velocity=75 time=0
EXTRACT: note_on channel=0 note=73 velocity=0 time=0.127232075
EXTRACT: note_on channel=1 note=63 velocity=0 time=0
EXTRACT: note_on channel=1 note=66 velocity=0 time=0
EXTRACT: note_on channel=1 note=73 velocity=0 time=0
EXTRACT: note_on channel=9 note=70 velocity=0 time=0
EXTRACT: note_on channel=9 note=41 velocity=0 time=0
EXTRACT: note_on channel=9 note=47 velocity=0 time=0
EXTRACT: note_on channel=5 note=63 velocity=0 time=0
EXTRACT: note_on channel=5 note=66 velocity=0 time=0
EXTRACT: note_on channel=5 note=73 velocity=0 time=0
EXTRACT: note_on channel=10 note=63 velocity=0 time=0
EXTRACT: note_on channel=10 note=66 velocity=0 time=0
EXTRACT: note_on channel=10 note=73 velocity=0 time=0
EXTRACT: note_on channel=0 note=73 velocity=110 time=0.006696425000000001
EXTRACT: note_on channel=1 note=73 velocity=110 time=0
EXTRACT: note_on channel=9 note=70 velocity=75 time=0
EXTRACT: note_on channel=9 note=41 velocity=75 time=0
EXTRACT: note_on channel=9 note=47 velocity=75 time=0
EXTRACT: note_on channel=5 note=73 velocity=90 time=0
EXTRACT: note_on channel=10 note=73 velocity=90 time=0
EXTRACT: note_on channel=2 note=47 velocity=0 time=0.04464283333333333
EXTRACT: note_on channel=6 note=47 velocity=0 time=0
EXTRACT: note_on channel=2 note=46 velocity=110 time=0.08928566666666667
EXTRACT: note_on channel=9 note=41 velocity=127 time=0
EXTRACT: note_on channel=9 note=47 velocity=127 time=0
EXTRACT: note_on channel=6 note=46 velocity=90 time=0
EXTRACT: note_on channel=9 note=70 velocity=0 time=0.127232075
EXTRACT: note_on channel=9 note=41 velocity=0 time=0
EXTRACT: note_on channel=9 note=47 velocity=0 time=0
EXTRACT: note_on channel=9 note=70 velocity=75 time=0.006696425000000001
EXTRACT: note_on channel=9 note=41 velocity=75 time=0
EXTRACT: note_on channel=9 note=47 velocity=75 time=0
EXTRACT: note_on channel=0 note=73 velocity=0 time=0.127232075
EXTRACT: note_on channel=1 note=73 velocity=0 time=0
EXTRACT: note_on channel=9 note=70 velocity=0 time=0
EXTRACT: note_on channel=9 note=41 velocity=0 time=0
EXTRACT: note_on channel=9 note=47 velocity=0 time=0
EXTRACT: note_on channel=9 note=41 velocity=0 time=0
EXTRACT: note_on channel=9 note=47 velocity=0 time=0
EXTRACT: note_on channel=5 note=73 velocity=0 time=0
EXTRACT: note_on channel=10 note=73 velocity=0 time=0
EXTRACT: note_on channel=0 note=73 velocity=110 time=0.006696425000000001
EXTRACT: note_on channel=1 note=73 velocity=110 time=0
EXTRACT: note_on channel=9 note=70 velocity=75 time=0
EXTRACT: note_on channel=9 note=41 velocity=75 time=0
EXTRACT: note_on channel=9 note=47 velocity=75 time=0
EXTRACT: note_on channel=5 note=73 velocity=90 time=0
EXTRACT: note_on channel=10 note=73 velocity=90 time=0
EXTRACT: note_on channel=2 note=46 velocity=0 time=0.17857133333333333
EXTRACT: note_on channel=6 note=46 velocity=0 time=0
EXTRACT: note_on channel=0 note=73 velocity=0 time=0.08258924166666667
EXTRACT: note_on channel=1 note=73 velocity=0 time=0
EXTRACT: note_on channel=9 note=70 velocity=0 time=0
EXTRACT: note_on channel=9 note=41 velocity=0 time=0
EXTRACT: note_on channel=9 note=47 velocity=0 time=0
EXTRACT: note_on channel=5 note=73 velocity=0 time=0
EXTRACT: note_on channel=10 note=73 velocity=0 time=0
EXTRACT: note_on channel=0 note=83 velocity=110 time=0.006696425000000001
EXTRACT: note_on channel=1 note=75 velocity=110 time=0
EXTRACT: note_on channel=1 note=78 velocity=110 time=0
EXTRACT: note_on channel=1 note=83 velocity=110 time=0
EXTRACT: note_on channel=2 note=44 velocity=110 time=0
EXTRACT: note_on channel=9 note=70 velocity=75 time=0
EXTRACT: note_on channel=9 note=41 velocity=75 time=0
EXTRACT: note_on channel=9 note=47 velocity=75 time=0
EXTRACT: note_on channel=9 note=41 velocity=127 time=0
EXTRACT: note_on channel=9 note=47 velocity=127 time=0
EXTRACT: note_on channel=5 note=75 velocity=90 time=0
EXTRACT: note_on channel=5 note=78 velocity=90 time=0
EXTRACT: note_on channel=5 note=83 velocity=90 time=0
EXTRACT: note_on channel=10 note=75 velocity=90 time=0
EXTRACT: note_on channel=10 note=78 velocity=90 time=0
EXTRACT: note_on channel=10 note=83 velocity=90 time=0
EXTRACT: note_on channel=6 note=44 velocity=90 time=0
EXTRACT: note_on channel=9 note=70 velocity=0 time=0.261160575
EXTRACT: note_on channel=9 note=41 velocity=0 time=0
EXTRACT: note_on channel=9 note=47 velocity=0 time=0
EXTRACT: note_on channel=9 note=41 velocity=0 time=0
EXTRACT: note_on channel=9 note=47 velocity=0 time=0
EXTRACT: note_on channel=9 note=70 velocity=75 time=0.006696425000000001
EXTRACT: note_on channel=9 note=41 velocity=75 time=0
EXTRACT: note_on channel=9 note=47 velocity=75 time=0
EXTRACT: note_on channel=0 note=83 velocity=0 time=0.127232075
EXTRACT: note_on channel=1 note=75 velocity=0 time=0
EXTRACT: note_on channel=1 note=78 velocity=0 time=0
EXTRACT: note_on channel=1 note=83 velocity=0 time=0
EXTRACT: note_on channel=9 note=70 velocity=0 time=0
EXTRACT: note_on channel=9 note=41 velocity=0 time=0
EXTRACT: note_on channel=9 note=47 velocity=0 time=0
EXTRACT: note_on channel=5 note=75 velocity=0 time=0
EXTRACT: note_on channel=5 note=78 velocity=0 time=0
EXTRACT: note_on channel=5 note=83 velocity=0 time=0
EXTRACT: note_on channel=10 note=75 velocity=0 time=0
EXTRACT: note_on channel=10 note=78 velocity=0 time=0
EXTRACT: note_on channel=10 note=83 velocity=0 time=0
EXTRACT: note_on channel=0 note=83 velocity=110 time=0.006696425000000001
EXTRACT: note_on channel=1 note=75 velocity=110 time=0
EXTRACT: note_on channel=1 note=78 velocity=110 time=0
EXTRACT: note_on channel=1 note=83 velocity=110 time=0
EXTRACT: note_on channel=9 note=70 velocity=75 time=0
EXTRACT: note_on channel=9 note=41 velocity=75 time=0
EXTRACT: note_on channel=9 note=47 velocity=75 time=0
EXTRACT: note_on channel=5 note=75 velocity=90 time=0
EXTRACT: note_on channel=5 note=78 velocity=90 time=0
EXTRACT: note_on channel=5 note=83 velocity=90 time=0
EXTRACT: note_on channel=10 note=75 velocity=90 time=0
EXTRACT: note_on channel=10 note=78 velocity=90 time=0
EXTRACT: note_on channel=10 note=83 velocity=90 time=0
EXTRACT: note_on channel=9 note=41 velocity=127 time=0.1339285
EXTRACT: note_on channel=9 note=47 velocity=127 time=0
EXTRACT: note_on channel=9 note=70 velocity=0 time=0.127232075
EXTRACT: note_on channel=9 note=41 velocity=0 time=0
EXTRACT: note_on channel=9 note=47 velocity=0 time=0
EXTRACT: note_on channel=9 note=70 velocity=75 time=0.006696425000000001
EXTRACT: note_on channel=9 note=41 velocity=75 time=0
EXTRACT: note_on channel=9 note=47 velocity=75 time=0
EXTRACT: note_on channel=0 note=83 velocity=0 time=0.127232075
EXTRACT: note_on channel=1 note=75 velocity=0 time=0
EXTRACT: note_on channel=1 note=78 velocity=0 time=0
EXTRACT: note_on channel=1 note=83 velocity=0 time=0
EXTRACT: note_on channel=9 note=70 velocity=0 time=0
EXTRACT: note_on channel=9 note=41 velocity=0 time=0
EXTRACT: note_on channel=9 note=47 velocity=0 time=0
EXTRACT: note_on channel=9 note=41 velocity=0 time=0
EXTRACT: note_on channel=9 note=47 velocity=0 time=0
EXTRACT: note_on channel=5 note=75 velocity=0 time=0
EXTRACT: note_on channel=5 note=78 velocity=0 time=0
EXTRACT: note_on channel=5 note=83 velocity=0 time=0
EXTRACT: note_on channel=10 note=75 velocity=0 time=0
EXTRACT: note_on channel=10 note=78 velocity=0 time=0
EXTRACT: note_on channel=10 note=83 velocity=0 time=0
EXTRACT: note_on channel=0 note=83 velocity=110 time=0.006696425000000001
EXTRACT: note_on channel=1 note=83 velocity=110 time=0
EXTRACT: note_on channel=9 note=70 velocity=75 time=0
EXTRACT: note_on channel=9 note=41 velocity=75 time=0
EXTRACT: note_on channel=9 note=47 velocity=75 time=0
EXTRACT: note_on channel=5 note=83 velocity=90 time=0
EXTRACT: note_on channel=10 note=83 velocity=90 time=0
EXTRACT: note_on channel=2 note=44 velocity=0 time=0.1339285
EXTRACT: note_on channel=6 note=44 velocity=0 time=0
EXTRACT: note_on channel=0 note=83 velocity=0 time=0.127232075
EXTRACT: note_on channel=1 note=83 velocity=0 time=0
EXTRACT: note_on channel=9 note=70 velocity=0 time=0
EXTRACT: note_on channel=9 note=41 velocity=0 time=0
EXTRACT: note_on channel=9 note=47 velocity=0 time=0
EXTRACT: note_on channel=5 note=83 velocity=0 time=0
EXTRACT: note_on channel=10 note=83 velocity=0 time=0
EXTRACT: note_on channel=0 note=83 velocity=110 time=0.006696425000000001
EXTRACT: note_on channel=1 note=73 velocity=110 time=0
EXTRACT: note_on channel=1 note=78 velocity=110 time=0
EXTRACT: note_on channel=1 note=83 velocity=110 time=0
EXTRACT: note_on channel=2 note=49 velocity=110 time=0
EXTRACT: note_on channel=9 note=70 velocity=75 time=0
EXTRACT: note_on channel=9 note=41 velocity=75 time=0
EXTRACT: note_on channel=9 note=47 velocity=75 time=0
EXTRACT: note_on channel=9 note=41 velocity=127 time=0
EXTRACT: note_on channel=9 note=47 velocity=127 time=0
EXTRACT: note_on channel=5 note=73 velocity=90 time=0
EXTRACT: note_on channel=5 note=78 velocity=90 time=0
EXTRACT: note_on channel=5 note=83 velocity=90 time=0
EXTRACT: note_on channel=10 note=73 velocity=90 time=0
EXTRACT: note_on channel=10 note=78 velocity=90 time=0
EXTRACT: note_on channel=10 note=83 velocity=90 time=0
EXTRACT: note_on channel=6 note=49 velocity=90 time=0
EXTRACT: note_on channel=9 note=70 velocity=0 time=0.261160575
EXTRACT: note_on channel=9 note=41 velocity=0 time=0
EXTRACT: note_on channel=9 note=47 velocity=0 time=0
EXTRACT: note_on channel=9 note=41 velocity=0 time=0
EXTRACT: note_on channel=9 note=47 velocity=0 time=0
EXTRACT: note_on channel=9 note=70 velocity=75 time=0.006696425000000001
EXTRACT: note_on channel=9 note=41 velocity=75 time=0
EXTRACT: note_on channel=9 note=47 velocity=75 time=0
EXTRACT: note_on channel=0 note=83 velocity=0 time=0.127232075
EXTRACT: note_on channel=1 note=73 velocity=0 time=0
EXTRACT: note_on channel=1 note=78 velocity=0 time=0
EXTRACT: note_on channel=1 note=83 velocity=0 time=0
EXTRACT: note_on channel=9 note=70 velocity=0 time=0
EXTRACT: note_on channel=9 note=41 velocity=0 time=0
EXTRACT: note_on channel=9 note=47 velocity=0 time=0
EXTRACT: note_on channel=5 note=73 velocity=0 time=0
EXTRACT: note_on channel=5 note=78 velocity=0 time=0
EXTRACT: note_on channel=5 note=83 velocity=0 time=0
EXTRACT: note_on channel=10 note=73 velocity=0 time=0
EXTRACT: note_on channel=10 note=78 velocity=0 time=0
EXTRACT: note_on channel=10 note=83 velocity=0 time=0
EXTRACT: note_on channel=0 note=82 velocity=110 time=0.006696425000000001
EXTRACT: note_on channel=1 note=82 velocity=110 time=0
EXTRACT: note_on channel=9 note=70 velocity=75 time=0
EXTRACT: note_on channel=9 note=41 velocity=75 time=0
EXTRACT: note_on channel=9 note=47 velocity=75 time=0
EXTRACT: note_on channel=5 note=82 velocity=90 time=0
EXTRACT: note_on channel=10 note=82 velocity=90 time=0
EXTRACT: note_on channel=9 note=41 velocity=127 time=0.1339285
EXTRACT: note_on channel=9 note=47 velocity=127 time=0
EXTRACT: note_on channel=9 note=70 velocity=0 time=0.127232075
EXTRACT: note_on channel=9 note=41 velocity=0 time=0
EXTRACT: note_on channel=9 note=47 velocity=0 time=0
EXTRACT: note_on channel=9 note=70 velocity=75 time=0.006696425000000001
EXTRACT: note_on channel=9 note=41 velocity=75 time=0
EXTRACT: note_on channel=9 note=47 velocity=75 time=0
EXTRACT: note_on channel=0 note=82 velocity=0 time=0.127232075
EXTRACT: note_on channel=1 note=82 velocity=0 time=0
EXTRACT: note_on channel=9 note=70 velocity=0 time=0
EXTRACT: note_on channel=9 note=41 velocity=0 time=0
EXTRACT: note_on channel=9 note=47 velocity=0 time=0
EXTRACT: note_on channel=9 note=41 velocity=0 time=0
EXTRACT: note_on channel=9 note=47 velocity=0 time=0
EXTRACT: note_on channel=5 note=82 velocity=0 time=0
EXTRACT: note_on channel=10 note=82 velocity=0 time=0
EXTRACT: note_on channel=0 note=82 velocity=110 time=0.006696425000000001
EXTRACT: note_on channel=1 note=82 velocity=110 time=0
EXTRACT: note_on channel=9 note=70 velocity=75 time=0
EXTRACT: note_on channel=9 note=41 velocity=75 time=0
EXTRACT: note_on channel=9 note=47 velocity=75 time=0
EXTRACT: note_on channel=5 note=82 velocity=90 time=0
EXTRACT: note_on channel=10 note=82 velocity=90 time=0
EXTRACT: note_on channel=2 note=49 velocity=0 time=0.1339285
EXTRACT: note_on channel=6 note=49 velocity=0 time=0
EXTRACT: note_on channel=0 note=82 velocity=0 time=0.127232075
EXTRACT: note_on channel=1 note=82 velocity=0 time=0
EXTRACT: note_on channel=9 note=70 velocity=0 time=0
EXTRACT: note_on channel=9 note=41 velocity=0 time=0
EXTRACT: note_on channel=9 note=47 velocity=0 time=0
EXTRACT: note_on channel=5 note=82 velocity=0 time=0
EXTRACT: note_on channel=10 note=82 velocity=0 time=0
EXTRACT: note_on channel=0 note=82 velocity=110 time=0.006696425000000001
EXTRACT: note_on channel=1 note=73 velocity=110 time=0
EXTRACT: note_on channel=1 note=78 velocity=110 time=0
EXTRACT: note_on channel=1 note=82 velocity=110 time=0
EXTRACT: note_on channel=2 note=51 velocity=110 time=0
EXTRACT: note_on channel=9 note=70 velocity=75 time=0
EXTRACT: note_on channel=9 note=41 velocity=75 time=0
EXTRACT: note_on channel=9 note=47 velocity=75 time=0
EXTRACT: note_on channel=9 note=41 velocity=127 time=0
EXTRACT: note_on channel=9 note=47 velocity=127 time=0
EXTRACT: note_on channel=5 note=73 velocity=90 time=0
EXTRACT: note_on channel=5 note=78 velocity=90 time=0
EXTRACT: note_on channel=5 note=82 velocity=90 time=0
EXTRACT: note_on channel=10 note=73 velocity=90 time=0
EXTRACT: note_on channel=10 note=78 velocity=90 time=0
EXTRACT: note_on channel=10 note=82 velocity=90 time=0
EXTRACT: note_on channel=6 note=51 velocity=90 time=0
EXTRACT: note_on channel=9 note=70 velocity=0 time=0.261160575
EXTRACT: note_on channel=9 note=41 velocity=0 time=0
EXTRACT: note_on channel=9 note=47 velocity=0 time=0
EXTRACT: note_on channel=9 note=41 velocity=0 time=0
EXTRACT: note_on channel=9 note=47 velocity=0 time=0
EXTRACT: note_on channel=9 note=70 velocity=75 time=0.006696425000000001
EXTRACT: note_on channel=9 note=41 velocity=75 time=0
EXTRACT: note_on channel=9 note=47 velocity=75 time=0
EXTRACT: note_on channel=0 note=82 velocity=0 time=0.127232075
EXTRACT: note_on channel=1 note=73 velocity=0 time=0
EXTRACT: note_on channel=1 note=78 velocity=0 time=0
EXTRACT: note_on channel=1 note=82 velocity=0 time=0
EXTRACT: note_on channel=9 note=70 velocity=0 time=0
EXTRACT: note_on channel=9 note=41 velocity=0 time=0
EXTRACT: note_on channel=9 note=47 velocity=0 time=0
EXTRACT: note_on channel=5 note=73 velocity=0 time=0
EXTRACT: note_on channel=5 note=78 velocity=0 time=0
EXTRACT: note_on channel=5 note=82 velocity=0 time=0
EXTRACT: note_on channel=10 note=73 velocity=0 time=0
EXTRACT: note_on channel=10 note=78 velocity=0 time=0
EXTRACT: note_on channel=10 note=82 velocity=0 time=0
EXTRACT: note_on channel=0 note=80 velocity=110 time=0.006696425000000001
EXTRACT: note_on channel=1 note=80 velocity=110 time=0
EXTRACT: note_on channel=9 note=70 velocity=75 time=0
EXTRACT: note_on channel=9 note=41 velocity=75 time=0
EXTRACT: note_on channel=9 note=47 velocity=75 time=0
EXTRACT: note_on channel=5 note=80 velocity=90 time=0
EXTRACT: note_on channel=10 note=80 velocity=90 time=0
EXTRACT: note_on channel=9 note=41 velocity=127 time=0.1339285
EXTRACT: note_on channel=9 note=47 velocity=127 time=0
EXTRACT: note_on channel=9 note=70 velocity=0 time=0.127232075
EXTRACT: note_on channel=9 note=41 velocity=0 time=0
EXTRACT: note_on channel=9 note=47 velocity=0 time=0
EXTRACT: note_on channel=9 note=70 velocity=75 time=0.006696425000000001
EXTRACT: note_on channel=9 note=41 velocity=75 time=0
EXTRACT: note_on channel=9 note=47 velocity=75 time=0
EXTRACT: note_on channel=0 note=80 velocity=0 time=0.127232075
EXTRACT: note_on channel=1 note=80 velocity=0 time=0
EXTRACT: note_on channel=9 note=70 velocity=0 time=0
EXTRACT: note_on channel=9 note=41 velocity=0 time=0
EXTRACT: note_on channel=9 note=47 velocity=0 time=0
EXTRACT: note_on channel=9 note=41 velocity=0 time=0
EXTRACT: note_on channel=9 note=47 velocity=0 time=0
EXTRACT: note_on channel=5 note=80 velocity=0 time=0
EXTRACT: note_on channel=10 note=80 velocity=0 time=0
EXTRACT: note_on channel=0 note=80 velocity=110 time=0.006696425000000001
EXTRACT: note_on channel=1 note=80 velocity=110 time=0
EXTRACT: note_on channel=9 note=70 velocity=75 time=0
EXTRACT: note_on channel=9 note=41 velocity=75 time=0
EXTRACT: note_on channel=9 note=47 velocity=75 time=0
EXTRACT: note_on channel=5 note=80 velocity=90 time=0
EXTRACT: note_on channel=10 note=80 velocity=90 time=0
EXTRACT: note_on channel=2 note=51 velocity=0 time=0.1339285
EXTRACT: note_on channel=6 note=51 velocity=0 time=0
EXTRACT: note_on channel=0 note=80 velocity=0 time=0.127232075
EXTRACT: note_on channel=1 note=80 velocity=0 time=0
EXTRACT: note_on channel=9 note=70 velocity=0 time=0
EXTRACT: note_on channel=9 note=41 velocity=0 time=0
EXTRACT: note_on channel=9 note=47 velocity=0 time=0
EXTRACT: note_on channel=5 note=80 velocity=0 time=0
EXTRACT: note_on channel=10 note=80 velocity=0 time=0
EXTRACT: note_on channel=0 note=80 velocity=110 time=0.006696425000000001
EXTRACT: note_on channel=1 note=73 velocity=110 time=0
EXTRACT: note_on channel=1 note=75 velocity=110 time=0
EXTRACT: note_on channel=1 note=80 velocity=110 time=0
EXTRACT: note_on channel=2 note=47 velocity=110 time=0
EXTRACT: note_on channel=9 note=70 velocity=75 time=0
EXTRACT: note_on channel=9 note=41 velocity=75 time=0
EXTRACT: note_on channel=9 note=47 velocity=75 time=0
EXTRACT: note_on channel=9 note=41 velocity=127 time=0
EXTRACT: note_on channel=9 note=47 velocity=127 time=0
EXTRACT: note_on channel=5 note=73 velocity=90 time=0
EXTRACT: note_on channel=5 note=75 velocity=90 time=0
EXTRACT: note_on channel=5 note=80 velocity=90 time=0
EXTRACT: note_on channel=10 note=73 velocity=90 time=0
EXTRACT: note_on channel=10 note=75 velocity=90 time=0
EXTRACT: note_on channel=10 note=80 velocity=90 time=0
EXTRACT: note_on channel=6 note=47 velocity=90 time=0
EXTRACT: note_on channel=9 note=70 velocity=0 time=0.261160575
EXTRACT: note_on channel=9 note=41 velocity=0 time=0
EXTRACT: note_on channel=9 note=47 velocity=0 time=0
EXTRACT: note_on channel=9 note=41 velocity=0 time=0
EXTRACT: note_on channel=9 note=47 velocity=0 time=0
EXTRACT: note_on channel=9 note=70 velocity=75 time=0.006696425000000001
EXTRACT: note_on channel=9 note=41 velocity=75 time=0
EXTRACT: note_on channel=9 note=47 velocity=75 time=0
EXTRACT: note_on channel=0 note=80 velocity=0 time=0.127232075
EXTRACT: note_on channel=1 note=73 velocity=0 time=0
EXTRACT: note_on channel=1 note=75 velocity=0 time=0
EXTRACT: note_on channel=1 note=80 velocity=0 time=0
EXTRACT: note_on channel=9 note=70 velocity=0 time=0
EXTRACT: note_on channel=9 note=41 velocity=0 time=0
EXTRACT: note_on channel=9 note=47 velocity=0 time=0
EXTRACT: note_on channel=5 note=73 velocity=0 time=0
EXTRACT: note_on channel=5 note=75 velocity=0 time=0
EXTRACT: note_on channel=5 note=80 velocity=0 time=0
EXTRACT: note_on channel=10 note=73 velocity=0 time=0
EXTRACT: note_on channel=10 note=75 velocity=0 time=0
EXTRACT: note_on channel=10 note=80 velocity=0 time=0
EXTRACT: note_on channel=0 note=78 velocity=110 time=0.006696425000000001
EXTRACT: note_on channel=1 note=78 velocity=110 time=0
EXTRACT: note_on channel=9 note=70 velocity=75 time=0
EXTRACT: note_on channel=9 note=41 velocity=75 time=0
EXTRACT: note_on channel=9 note=47 velocity=75 time=0
EXTRACT: note_on channel=5 note=78 velocity=90 time=0
EXTRACT: note_on channel=10 note=78 velocity=90 time=0
EXTRACT: note_on channel=9 note=41 velocity=127 time=0.1339285
EXTRACT: note_on channel=9 note=47 velocity=127 time=0
EXTRACT: note_on channel=9 note=70 velocity=0 time=0.127232075
EXTRACT: note_on channel=9 note=41 velocity=0 time=0
EXTRACT: note_on channel=9 note=47 velocity=0 time=0
EXTRACT: note_on channel=9 note=70 velocity=75 time=0.006696425000000001
EXTRACT: note_on channel=9 note=41 velocity=75 time=0
EXTRACT: note_on channel=9 note=47 velocity=75 time=0
EXTRACT: note_on channel=0 note=78 velocity=0 time=0.127232075
EXTRACT: note_on channel=1 note=78 velocity=0 time=0
EXTRACT: note_on channel=9 note=70 velocity=0 time=0
EXTRACT: note_on channel=9 note=41 velocity=0 time=0
EXTRACT: note_on channel=9 note=47 velocity=0 time=0
EXTRACT: note_on channel=9 note=41 velocity=0 time=0
EXTRACT: note_on channel=9 note=47 velocity=0 time=0
EXTRACT: note_on channel=5 note=78 velocity=0 time=0
EXTRACT: note_on channel=10 note=78 velocity=0 time=0
EXTRACT: note_on channel=0 note=77 velocity=110 time=0.006696425000000001
EXTRACT: note_on channel=1 note=77 velocity=110 time=0
EXTRACT: note_on channel=9 note=70 velocity=75 time=0
EXTRACT: note_on channel=9 note=41 velocity=75 time=0
EXTRACT: note_on channel=9 note=47 velocity=75 time=0
EXTRACT: note_on channel=5 note=77 velocity=90 time=0
EXTRACT: note_on channel=10 note=77 velocity=90 time=0
EXTRACT: note_on channel=2 note=47 velocity=0 time=0.1339285
EXTRACT: note_on channel=6 note=47 velocity=0 time=0
EXTRACT: note_on channel=0 note=77 velocity=0 time=0.127232075
EXTRACT: note_on channel=1 note=77 velocity=0 time=0
EXTRACT: note_on channel=9 note=70 velocity=0 time=0
EXTRACT: note_on channel=9 note=41 velocity=0 time=0
EXTRACT: note_on channel=9 note=47 velocity=0 time=0
EXTRACT: note_on channel=5 note=77 velocity=0 time=0
EXTRACT: note_on channel=10 note=77 velocity=0 time=0
EXTRACT: note_on channel=0 note=78 velocity=110 time=0.006696425000000001
EXTRACT: note_on channel=1 note=71 velocity=110 time=0
EXTRACT: note_on channel=1 note=75 velocity=110 time=0
EXTRACT: note_on channel=1 note=78 velocity=110 time=0
EXTRACT: note_on channel=2 note=44 velocity=110 time=0
EXTRACT: note_on channel=9 note=70 velocity=75 time=0
EXTRACT: note_on channel=9 note=41 velocity=75 time=0
EXTRACT: note_on channel=9 note=47 velocity=75 time=0
EXTRACT: note_on channel=9 note=41 velocity=127 time=0
EXTRACT: note_on channel=9 note=47 velocity=127 time=0
EXTRACT: note_on channel=5 note=71 velocity=90 time=0
EXTRACT: note_on channel=5 note=75 velocity=90 time=0
EXTRACT: note_on channel=5 note=78 velocity=90 time=0
EXTRACT: note_on channel=10 note=71 velocity=90 time=0
EXTRACT: note_on channel=10 note=75 velocity=90 time=0
EXTRACT: note_on channel=10 note=78 velocity=90 time=0
EXTRACT: note_on channel=6 note=44 velocity=90 time=0
EXTRACT: note_on channel=9 note=70 velocity=0 time=0.261160575
EXTRACT: note_on channel=9 note=41 velocity=0 time=0
EXTRACT: note_on channel=9 note=47 velocity=0 time=0
EXTRACT: note_on channel=9 note=41 velocity=0 time=0
EXTRACT: note_on channel=9 note=47 velocity=0 time=0
EXTRACT: note_on channel=9 note=70 velocity=75 time=0.006696425000000001
EXTRACT: note_on channel=9 note=41 velocity=75 time=0
EXTRACT: note_on channel=9 note=47 velocity=75 time=0
EXTRACT: note_on channel=0 note=78 velocity=0 time=0.127232075
EXTRACT: note_on channel=1 note=71 velocity=0 time=0
EXTRACT: note_on channel=1 note=75 velocity=0 time=0
EXTRACT: note_on channel=1 note=78 velocity=0 time=0
EXTRACT: note_on channel=9 note=70 velocity=0 time=0
EXTRACT: note_on channel=9 note=41 velocity=0 time=0
EXTRACT: note_on channel=9 note=47 velocity=0 time=0
EXTRACT: note_on channel=5 note=71 velocity=0 time=0
EXTRACT: note_on channel=5 note=75 velocity=0 time=0
EXTRACT: note_on channel=5 note=78 velocity=0 time=0
EXTRACT: note_on channel=10 note=71 velocity=0 time=0
EXTRACT: note_on channel=10 note=75 velocity=0 time=0
EXTRACT: note_on channel=10 note=78 velocity=0 time=0
EXTRACT: note_on channel=0 note=78 velocity=110 time=0.006696425000000001
EXTRACT: note_on channel=1 note=71 velocity=110 time=0
EXTRACT: note_on channel=1 note=75 velocity=110 time=0
EXTRACT: note_on channel=1 note=78 velocity=110 time=0
EXTRACT: note_on channel=9 note=70 velocity=75 time=0
EXTRACT: note_on channel=9 note=41 velocity=75 time=0
EXTRACT: note_on channel=9 note=47 velocity=75 time=0
EXTRACT: note_on channel=5 note=71 velocity=90 time=0
EXTRACT: note_on channel=5 note=75 velocity=90 time=0
EXTRACT: note_on channel=5 note=78 velocity=90 time=0
EXTRACT: note_on channel=10 note=71 velocity=90 time=0
EXTRACT: note_on channel=10 note=75 velocity=90 time=0
EXTRACT: note_on channel=10 note=78 velocity=90 time=0
EXTRACT: note_on channel=9 note=41 velocity=127 time=0.1339285
EXTRACT: note_on channel=9 note=47 velocity=127 time=0
EXTRACT: note_on channel=9 note=70 velocity=0 time=0.127232075
EXTRACT: note_on channel=9 note=41 velocity=0 time=0
EXTRACT: note_on channel=9 note=47 velocity=0 time=0
EXTRACT: note_on channel=9 note=70 velocity=75 time=0.006696425000000001
EXTRACT: note_on channel=9 note=41 velocity=75 time=0
EXTRACT: note_on channel=9 note=47 velocity=75 time=0
EXTRACT: note_on channel=0 note=78 velocity=0 time=0.127232075
EXTRACT: note_on channel=1 note=71 velocity=0 time=0
EXTRACT: note_on channel=1 note=75 velocity=0 time=0
EXTRACT: note_on channel=1 note=78 velocity=0 time=0
EXTRACT: note_on channel=9 note=70 velocity=0 time=0
EXTRACT: note_on channel=9 note=41 velocity=0 time=0
EXTRACT: note_on channel=9 note=47 velocity=0 time=0
EXTRACT: note_on channel=9 note=41 velocity=0 time=0
EXTRACT: note_on channel=9 note=47 velocity=0 time=0
EXTRACT: note_on channel=5 note=71 velocity=0 time=0
EXTRACT: note_on channel=5 note=75 velocity=0 time=0
EXTRACT: note_on channel=5 note=78 velocity=0 time=0
EXTRACT: note_on channel=10 note=71 velocity=0 time=0
EXTRACT: note_on channel=10 note=75 velocity=0 time=0
EXTRACT: note_on channel=10 note=78 velocity=0 time=0
EXTRACT: note_on channel=0 note=80 velocity=110 time=0.006696425000000001
EXTRACT: note_on channel=1 note=80 velocity=110 time=0
EXTRACT: note_on channel=9 note=70 velocity=75 time=0
EXTRACT: note_on channel=9 note=41 velocity=75 time=0
EXTRACT: note_on channel=9 note=47 velocity=75 time=0
EXTRACT: note_on channel=5 note=80 velocity=90 time=0
EXTRACT: note_on channel=10 note=80 velocity=90 time=0
EXTRACT: note_on channel=2 note=44 velocity=0 time=0.1339285
EXTRACT: note_on channel=6 note=44 velocity=0 time=0
EXTRACT: note_on channel=0 note=80 velocity=0 time=0.127232075
EXTRACT: note_on channel=1 note=80 velocity=0 time=0
EXTRACT: note_on channel=9 note=70 velocity=0 time=0
EXTRACT: note_on channel=9 note=41 velocity=0 time=0
EXTRACT: note_on channel=9 note=47 velocity=0 time=0
EXTRACT: note_on channel=5 note=80 velocity=0 time=0
EXTRACT: note_on channel=10 note=80 velocity=0 time=0
EXTRACT: note_on channel=0 note=80 velocity=110 time=0.006696425000000001
EXTRACT: note_on channel=1 note=73 velocity=110 time=0
EXTRACT: note_on channel=1 note=78 velocity=110 time=0
EXTRACT: note_on channel=1 note=80 velocity=110 time=0
EXTRACT: note_on channel=2 note=49 velocity=110 time=0
EXTRACT: note_on channel=9 note=70 velocity=75 time=0
EXTRACT: note_on channel=9 note=41 velocity=75 time=0
EXTRACT: note_on channel=9 note=47 velocity=75 time=0
EXTRACT: note_on channel=9 note=41 velocity=127 time=0
EXTRACT: note_on channel=9 note=47 velocity=127 time=0
EXTRACT: note_on channel=5 note=73 velocity=90 time=0
EXTRACT: note_on channel=5 note=78 velocity=90 time=0
EXTRACT: note_on channel=5 note=80 velocity=90 time=0
EXTRACT: note_on channel=10 note=73 velocity=90 time=0
EXTRACT: note_on channel=10 note=78 velocity=90 time=0
EXTRACT: note_on channel=10 note=80 velocity=90 time=0
EXTRACT: note_on channel=6 note=49 velocity=90 time=0
EXTRACT: note_on channel=9 note=70 velocity=0 time=0.261160575
EXTRACT: note_on channel=9 note=41 velocity=0 time=0
EXTRACT: note_on channel=9 note=47 velocity=0 time=0
EXTRACT: note_on channel=9 note=41 velocity=0 time=0
EXTRACT: note_on channel=9 note=47 velocity=0 time=0
EXTRACT: note_on channel=9 note=70 velocity=75 time=0.006696425000000001
EXTRACT: note_on channel=9 note=41 velocity=75 time=0
EXTRACT: note_on channel=9 note=47 velocity=75 time=0
EXTRACT: note_on channel=0 note=80 velocity=0 time=0.127232075
EXTRACT: note_on channel=1 note=73 velocity=0 time=0
EXTRACT: note_on channel=1 note=78 velocity=0 time=0
EXTRACT: note_on channel=1 note=80 velocity=0 time=0
EXTRACT: note_on channel=9 note=70 velocity=0 time=0
EXTRACT: note_on channel=9 note=41 velocity=0 time=0
EXTRACT: note_on channel=9 note=47 velocity=0 time=0
EXTRACT: note_on channel=5 note=73 velocity=0 time=0
EXTRACT: note_on channel=5 note=78 velocity=0 time=0
EXTRACT: note_on channel=5 note=80 velocity=0 time=0
EXTRACT: note_on channel=10 note=73 velocity=0 time=0
EXTRACT: note_on channel=10 note=78 velocity=0 time=0
EXTRACT: note_on channel=10 note=80 velocity=0 time=0
EXTRACT: note_on channel=0 note=78 velocity=110 time=0.006696425000000001
EXTRACT: note_on channel=1 note=78 velocity=110 time=0
EXTRACT: note_on channel=9 note=70 velocity=75 time=0
EXTRACT: note_on channel=9 note=41 velocity=75 time=0
EXTRACT: note_on channel=9 note=47 velocity=75 time=0
EXTRACT: note_on channel=5 note=78 velocity=90 time=0
EXTRACT: note_on channel=10 note=78 velocity=90 time=0
EXTRACT: note_on channel=9 note=41 velocity=127 time=0.1339285
EXTRACT: note_on channel=9 note=47 velocity=127 time=0
EXTRACT: note_on channel=9 note=70 velocity=0 time=0.127232075
EXTRACT: note_on channel=9 note=41 velocity=0 time=0
EXTRACT: note_on channel=9 note=47 velocity=0 time=0
EXTRACT: note_on channel=9 note=70 velocity=75 time=0.006696425000000001
EXTRACT: note_on channel=9 note=41 velocity=75 time=0
EXTRACT: note_on channel=9 note=47 velocity=75 time=0
EXTRACT: note_on channel=0 note=78 velocity=0 time=0.127232075
EXTRACT: note_on channel=1 note=78 velocity=0 time=0
EXTRACT: note_on channel=9 note=70 velocity=0 time=0
EXTRACT: note_on channel=9 note=41 velocity=0 time=0
EXTRACT: note_on channel=9 note=47 velocity=0 time=0
EXTRACT: note_on channel=9 note=41 velocity=0 time=0
EXTRACT: note_on channel=9 note=47 velocity=0 time=0
EXTRACT: note_on channel=5 note=78 velocity=0 time=0
EXTRACT: note_on channel=10 note=78 velocity=0 time=0
EXTRACT: note_on channel=0 note=77 velocity=110 time=0.006696425000000001
EXTRACT: note_on channel=1 note=77 velocity=110 time=0
EXTRACT: note_on channel=9 note=70 velocity=75 time=0
EXTRACT: note_on channel=9 note=41 velocity=75 time=0
EXTRACT: note_on channel=9 note=47 velocity=75 time=0
EXTRACT: note_on channel=5 note=77 velocity=90 time=0
EXTRACT: note_on channel=10 note=77 velocity=90 time=0
EXTRACT: note_on channel=2 note=49 velocity=0 time=0.1339285
EXTRACT: note_on channel=6 note=49 velocity=0 time=0
EXTRACT: note_on channel=0 note=77 velocity=0 time=0.127232075
EXTRACT: note_on channel=1 note=77 velocity=0 time=0
EXTRACT: note_on channel=9 note=70 velocity=0 time=0
EXTRACT: note_on channel=9 note=41 velocity=0 time=0
EXTRACT: note_on channel=9 note=47 velocity=0 time=0
EXTRACT: note_on channel=5 note=77 velocity=0 time=0
EXTRACT: note_on channel=10 note=77 velocity=0 time=0
EXTRACT: note_on channel=0 note=78 velocity=110 time=0.006696425000000001
EXTRACT: note_on channel=1 note=70 velocity=110 time=0
EXTRACT: note_on channel=1 note=73 velocity=110 time=0
EXTRACT: note_on channel=1 note=78 velocity=110 time=0
EXTRACT: note_on channel=2 note=42 velocity=110 time=0
EXTRACT: note_on channel=9 note=70 velocity=75 time=0
EXTRACT: note_on channel=9 note=41 velocity=75 time=0
EXTRACT: note_on channel=9 note=47 velocity=75 time=0
EXTRACT: note_on channel=9 note=41 velocity=127 time=0
EXTRACT: note_on channel=9 note=47 velocity=127 time=0
EXTRACT: note_on channel=5 note=70 velocity=90 time=0
EXTRACT: note_on channel=5 note=73 velocity=90 time=0
EXTRACT: note_on channel=5 note=78 velocity=90 time=0
EXTRACT: note_on channel=10 note=70 velocity=90 time=0
EXTRACT: note_on channel=10 note=73 velocity=90 time=0
EXTRACT: note_on channel=10 note=78 velocity=90 time=0
EXTRACT: note_on channel=6 note=42 velocity=90 time=0
EXTRACT: note_on channel=9 note=70 velocity=0 time=0.261160575
EXTRACT: note_on channel=9 note=41 velocity=0 time=0
EXTRACT: note_on channel=9 note=47 velocity=0 time=0
EXTRACT: note_on channel=9 note=41 velocity=0 time=0
EXTRACT: note_on channel=9 note=47 velocity=0 time=0
EXTRACT: note_on channel=9 note=70 velocity=75 time=0.006696425000000001
EXTRACT: note_on channel=9 note=41 velocity=75 time=0
EXTRACT: note_on channel=9 note=47 velocity=75 time=0
EXTRACT: note_on channel=9 note=70 velocity=0 time=0.127232075
EXTRACT: note_on channel=9 note=41 velocity=0 time=0
EXTRACT: note_on channel=9 note=47 velocity=0 time=0
EXTRACT: note_on channel=9 note=70 velocity=75 time=0.006696425000000001
EXTRACT: note_on channel=9 note=41 velocity=75 time=0
EXTRACT: note_on channel=9 note=47 velocity=75 time=0
EXTRACT: note_on channel=9 note=41 velocity=127 time=0.1339285
EXTRACT: note_on channel=9 note=47 velocity=127 time=0
EXTRACT: note_on channel=9 note=70 velocity=0 time=0.127232075
EXTRACT: note_on channel=9 note=41 velocity=0 time=0
EXTRACT: note_on channel=9 note=47 velocity=0 time=0
EXTRACT: note_on channel=9 note=70 velocity=75 time=0.006696425000000001
EXTRACT: note_on channel=9 note=41 velocity=75 time=0
EXTRACT: note_on channel=9 note=47 velocity=75 time=0
EXTRACT: note_on channel=9 note=70 velocity=0 time=0.127232075
EXTRACT: note_on channel=9 note=41 velocity=0 time=0
EXTRACT: note_on channel=9 note=47 velocity=0 time=0
EXTRACT: note_on channel=9 note=41 velocity=0 time=0
EXTRACT: note_on channel=9 note=47 velocity=0 time=0
EXTRACT: note_on channel=9 note=70 velocity=75 time=0.006696425000000001
EXTRACT: note_on channel=9 note=41 velocity=75 time=0
EXTRACT: note_on channel=9 note=47 velocity=75 time=0
EXTRACT: note_on channel=0 note=78 velocity=0 time=0.1339285
EXTRACT: note_on channel=1 note=70 velocity=0 time=0
EXTRACT: note_on channel=1 note=73 velocity=0 time=0
EXTRACT: note_on channel=1 note=78 velocity=0 time=0
EXTRACT: note_on channel=2 note=42 velocity=0 time=0
EXTRACT: note_on channel=5 note=70 velocity=0 time=0
EXTRACT: note_on channel=5 note=73 velocity=0 time=0
EXTRACT: note_on channel=5 note=78 velocity=0 time=0
EXTRACT: note_on channel=10 note=70 velocity=0 time=0
EXTRACT: note_on channel=10 note=73 velocity=0 time=0
EXTRACT: note_on channel=10 note=78 velocity=0 time=0
EXTRACT: note_on channel=6 note=42 velocity=0 time=0
EXTRACT: note_on channel=9 note=70 velocity=0 time=0.127232075
EXTRACT: note_on channel=9 note=41 velocity=0 time=0
EXTRACT: note_on channel=9 note=47 velocity=0 time=0
EXTRACT: note_on channel=1 note=71 velocity=110 time=0.006696425000000001
EXTRACT: note_on channel=1 note=75 velocity=110 time=0
EXTRACT: note_on channel=1 note=78 velocity=110 time=0
EXTRACT: note_on channel=2 note=42 velocity=110 time=0
EXTRACT: note_on channel=3 note=71 velocity=110 time=0
EXTRACT: note_on channel=3 note=75 velocity=110 time=0
EXTRACT: note_on channel=3 note=78 velocity=110 time=0
EXTRACT: note_on channel=9 note=70 velocity=75 time=0
EXTRACT: note_on channel=9 note=41 velocity=75 time=0
EXTRACT: note_on channel=9 note=47 velocity=75 time=0
EXTRACT: note_on channel=9 note=41 velocity=127 time=0
EXTRACT: note_on channel=9 note=47 velocity=127 time=0
EXTRACT: note_on channel=5 note=71 velocity=90 time=0
EXTRACT: note_on channel=5 note=75 velocity=90 time=0
EXTRACT: note_on channel=5 note=78 velocity=90 time=0
EXTRACT: note_on channel=10 note=71 velocity=90 time=0
EXTRACT: note_on channel=10 note=75 velocity=90 time=0
EXTRACT: note_on channel=10 note=78 velocity=90 time=0
EXTRACT: note_on channel=6 note=42 velocity=90 time=0
EXTRACT: note_on channel=9 note=70 velocity=0 time=0.261160575
EXTRACT: note_on channel=9 note=41 velocity=0 time=0
EXTRACT: note_on channel=9 note=47 velocity=0 time=0
EXTRACT: note_on channel=9 note=41 velocity=0 time=0
EXTRACT: note_on channel=9 note=47 velocity=0 time=0
EXTRACT: note_on channel=9 note=70 velocity=75 time=0.006696425000000001
EXTRACT: note_on channel=9 note=41 velocity=75 time=0
EXTRACT: note_on channel=9 note=47 velocity=75 time=0
EXTRACT: note_on channel=9 note=70 velocity=0 time=0.127232075
EXTRACT: note_on channel=9 note=41 velocity=0 time=0
EXTRACT: note_on channel=9 note=47 velocity=0 time=0
EXTRACT: note_on channel=9 note=70 velocity=75 time=0.006696425000000001
EXTRACT: note_on channel=9 note=41 velocity=75 time=0
EXTRACT: note_on channel=9 note=47 velocity=75 time=0
EXTRACT: note_on channel=1 note=71 velocity=0 time=0.04464283333333333
EXTRACT: note_on channel=1 note=75 velocity=0 time=0
EXTRACT: note_on channel=1 note=78 velocity=0 time=0
EXTRACT: note_on channel=3 note=71 velocity=0 time=0
EXTRACT: note_on channel=3 note=75 velocity=0 time=0
EXTRACT: note_on channel=3 note=78 velocity=0 time=0
EXTRACT: note_on channel=5 note=71 velocity=0 time=0
EXTRACT: note_on channel=5 note=75 velocity=0 time=0
EXTRACT: note_on channel=5 note=78 velocity=0 time=0
EXTRACT: note_on channel=10 note=71 velocity=0 time=0
EXTRACT: note_on channel=10 note=75 velocity=0 time=0
EXTRACT: note_on channel=10 note=78 velocity=0 time=0
EXTRACT: note_on channel=1 note=71 velocity=110 time=0.08928566666666667
EXTRACT: note_on channel=1 note=75 velocity=110 time=0
EXTRACT: note_on channel=1 note=78 velocity=110 time=0
EXTRACT: note_on channel=3 note=71 velocity=110 time=0
EXTRACT: note_on channel=3 note=75 velocity=110 time=0
EXTRACT: note_on channel=3 note=78 velocity=110 time=0
EXTRACT: note_on channel=9 note=41 velocity=127 time=0
EXTRACT: note_on channel=9 note=47 velocity=127 time=0
EXTRACT: note_on channel=5 note=71 velocity=90 time=0
EXTRACT: note_on channel=5 note=75 velocity=90 time=0
EXTRACT: note_on channel=5 note=78 velocity=90 time=0
EXTRACT: note_on channel=10 note=71 velocity=90 time=0
EXTRACT: note_on channel=10 note=75 velocity=90 time=0
EXTRACT: note_on channel=10 note=78 velocity=90 time=0
EXTRACT: note_on channel=9 note=70 velocity=0 time=0.127232075
EXTRACT: note_on channel=9 note=41 velocity=0 time=0
EXTRACT: note_on channel=9 note=47 velocity=0 time=0
EXTRACT: note_on channel=9 note=70 velocity=75 time=0.006696425000000001
EXTRACT: note_on channel=9 note=41 velocity=75 time=0
EXTRACT: note_on channel=9 note=47 velocity=75 time=0
EXTRACT: note_on channel=9 note=70 velocity=0 time=0.127232075
EXTRACT: note_on channel=9 note=41 velocity=0 time=0
EXTRACT: note_on channel=9 note=47 velocity=0 time=0
EXTRACT: note_on channel=9 note=41 velocity=0 time=0
EXTRACT: note_on channel=9 note=47 velocity=0 time=0
EXTRACT: note_on channel=9 note=70 velocity=75 time=0.006696425000000001
EXTRACT: note_on channel=9 note=41 velocity=75 time=0
EXTRACT: note_on channel=9 note=47 velocity=75 time=0
EXTRACT: note_on channel=2 note=42 velocity=0 time=0.1339285
EXTRACT: note_on channel=6 note=42 velocity=0 time=0
EXTRACT: note_on channel=1 note=71 velocity=0 time=0.04464283333333333
EXTRACT: note_on channel=1 note=75 velocity=0 time=0
EXTRACT: note_on channel=1 note=78 velocity=0 time=0
EXTRACT: note_on channel=3 note=71 velocity=0 time=0
EXTRACT: note_on channel=3 note=75 velocity=0 time=0
EXTRACT: note_on channel=3 note=78 velocity=0 time=0
EXTRACT: note_on channel=5 note=71 velocity=0 time=0
EXTRACT: note_on channel=5 note=75 velocity=0 time=0
EXTRACT: note_on channel=5 note=78 velocity=0 time=0
EXTRACT: note_on channel=10 note=71 velocity=0 time=0
EXTRACT: note_on channel=10 note=75 velocity=0 time=0
EXTRACT: note_on channel=10 note=78 velocity=0 time=0
EXTRACT: note_on channel=9 note=70 velocity=0 time=0.08258924166666667
EXTRACT: note_on channel=9 note=41 velocity=0 time=0
EXTRACT: note_on channel=9 note=47 velocity=0 time=0
EXTRACT: note_on channel=1 note=68 velocity=110 time=0.006696425000000001
EXTRACT: note_on channel=1 note=73 velocity=110 time=0
EXTRACT: note_on channel=1 note=77 velocity=110 time=0
EXTRACT: note_on channel=2 note=44 velocity=110 time=0
EXTRACT: note_on channel=3 note=68 velocity=110 time=0
EXTRACT: note_on channel=3 note=73 velocity=110 time=0
EXTRACT: note_on channel=3 note=77 velocity=110 time=0
EXTRACT: note_on channel=9 note=70 velocity=75 time=0
EXTRACT: note_on channel=9 note=41 velocity=75 time=0
EXTRACT: note_on channel=9 note=47 velocity=75 time=0
EXTRACT: note_on channel=9 note=41 velocity=127 time=0
EXTRACT: note_on channel=9 note=47 velocity=127 time=0
EXTRACT: note_on channel=5 note=68 velocity=90 time=0
EXTRACT: note_on channel=5 note=73 velocity=90 time=0
EXTRACT: note_on channel=5 note=77 velocity=90 time=0
EXTRACT: note_on channel=10 note=68 velocity=90 time=0
EXTRACT: note_on channel=10 note=73 velocity=90 time=0
EXTRACT: note_on channel=10 note=77 velocity=90 time=0
EXTRACT: note_on channel=6 note=44 velocity=90 time=0
EXTRACT: note_on channel=9 note=70 velocity=0 time=0.261160575
EXTRACT: note_on channel=9 note=41 velocity=0 time=0
EXTRACT: note_on channel=9 note=47 velocity=0 time=0
EXTRACT: note_on channel=9 note=41 velocity=0 time=0
EXTRACT: note_on channel=9 note=47 velocity=0 time=0
EXTRACT: note_on channel=9 note=70 velocity=75 time=0.006696425000000001
EXTRACT: note_on channel=9 note=41 velocity=75 time=0
EXTRACT: note_on channel=9 note=47 velocity=75 time=0
EXTRACT: note_on channel=9 note=70 velocity=0 time=0.127232075
EXTRACT: note_on channel=9 note=41 velocity=0 time=0
EXTRACT: note_on channel=9 note=47 velocity=0 time=0
EXTRACT: note_on channel=9 note=70 velocity=75 time=0.006696425000000001
EXTRACT: note_on channel=9 note=41 velocity=75 time=0
EXTRACT: note_on channel=9 note=47 velocity=75 time=0
EXTRACT: note_on channel=9 note=41 velocity=127 time=0.1339285
EXTRACT: note_on channel=9 note=47 velocity=127 time=0
EXTRACT: note_on channel=9 note=70 velocity=0 time=0.127232075
EXTRACT: note_on channel=9 note=41 velocity=0 time=0
EXTRACT: note_on channel=9 note=47 velocity=0 time=0
EXTRACT: note_on channel=9 note=70 velocity=75 time=0.006696425000000001
EXTRACT: note_on channel=9 note=41 velocity=75 time=0
EXTRACT: note_on channel=9 note=47 velocity=75 time=0
EXTRACT: note_on channel=9 note=70 velocity=0 time=0.127232075
EXTRACT: note_on channel=9 note=41 velocity=0 time=0
EXTRACT: note_on channel=9 note=47 velocity=0 time=0
EXTRACT: note_on channel=9 note=41 velocity=0 time=0
EXTRACT: note_on channel=9 note=47 velocity=0 time=0
EXTRACT: note_on channel=9 note=70 velocity=75 time=0.006696425000000001
EXTRACT: note_on channel=9 note=41 velocity=75 time=0
EXTRACT: note_on channel=9 note=47 velocity=75 time=0
EXTRACT: note_on channel=1 note=68 velocity=0 time=0.1339285
EXTRACT: note_on channel=1 note=73 velocity=0 time=0
EXTRACT: note_on channel=1 note=77 velocity=0 time=0
EXTRACT: note_on channel=2 note=44 velocity=0 time=0
EXTRACT: note_on channel=3 note=68 velocity=0 time=0
EXTRACT: note_on channel=3 note=73 velocity=0 time=0
EXTRACT: note_on channel=3 note=77 velocity=0 time=0
EXTRACT: note_on channel=5 note=68 velocity=0 time=0
EXTRACT: note_on channel=5 note=73 velocity=0 time=0
EXTRACT: note_on channel=5 note=77 velocity=0 time=0
EXTRACT: note_on channel=10 note=68 velocity=0 time=0
EXTRACT: note_on channel=10 note=73 velocity=0 time=0
EXTRACT: note_on channel=10 note=77 velocity=0 time=0
EXTRACT: note_on channel=6 note=44 velocity=0 time=0
EXTRACT: note_on channel=9 note=70 velocity=0 time=0.127232075
EXTRACT: note_on channel=9 note=41 velocity=0 time=0
EXTRACT: note_on channel=9 note=47 velocity=0 time=0
EXTRACT: note_on channel=1 note=73 velocity=110 time=0.006696425000000001
EXTRACT: note_on channel=1 note=77 velocity=110 time=0
EXTRACT: note_on channel=1 note=80 velocity=110 time=0
EXTRACT: note_on channel=2 note=49 velocity=110 time=0
EXTRACT: note_on channel=3 note=73 velocity=110 time=0
EXTRACT: note_on channel=3 note=77 velocity=110 time=0
EXTRACT: note_on channel=3 note=80 velocity=110 time=0
EXTRACT: note_on channel=9 note=70 velocity=75 time=0
EXTRACT: note_on channel=9 note=41 velocity=75 time=0
EXTRACT: note_on channel=9 note=47 velocity=75 time=0
EXTRACT: note_on channel=9 note=41 velocity=127 time=0
EXTRACT: note_on channel=9 note=47 velocity=127 time=0
EXTRACT: note_on channel=5 note=73 velocity=90 time=0
EXTRACT: note_on channel=5 note=77 velocity=90 time=0
EXTRACT: note_on channel=5 note=80 velocity=90 time=0
EXTRACT: note_on channel=10 note=73 velocity=90 time=0
EXTRACT: note_on channel=10 note=77 velocity=90 time=0
EXTRACT: note_on channel=10 note=80 velocity=90 time=0
EXTRACT: note_on channel=6 note=49 velocity=90 time=0
EXTRACT: note_on channel=9 note=70 velocity=0 time=0.261160575
EXTRACT: note_on channel=9 note=41 velocity=0 time=0
EXTRACT: note_on channel=9 note=47 velocity=0 time=0
EXTRACT: note_on channel=9 note=41 velocity=0 time=0
EXTRACT: note_on channel=9 note=47 velocity=0 time=0
EXTRACT: note_on channel=9 note=70 velocity=75 time=0.006696425000000001
EXTRACT: note_on channel=9 note=41 velocity=75 time=0
EXTRACT: note_on channel=9 note=47 velocity=75 time=0
EXTRACT: note_on channel=9 note=70 velocity=0 time=0.127232075
EXTRACT: note_on channel=9 note=41 velocity=0 time=0
EXTRACT: note_on channel=9 note=47 velocity=0 time=0
EXTRACT: note_on channel=9 note=70 velocity=75 time=0.006696425000000001
EXTRACT: note_on channel=9 note=41 velocity=75 time=0
EXTRACT: note_on channel=9 note=47 velocity=75 time=0
EXTRACT: note_on channel=9 note=41 velocity=127 time=0.1339285
EXTRACT: note_on channel=9 note=47 velocity=127 time=0
EXTRACT: note_on channel=9 note=70 velocity=0 time=0.127232075
EXTRACT: note_on channel=9 note=41 velocity=0 time=0
EXTRACT: note_on channel=9 note=47 velocity=0 time=0
EXTRACT: note_on channel=9 note=70 velocity=75 time=0.006696425000000001
EXTRACT: note_on channel=9 note=41 velocity=75 time=0
EXTRACT: note_on channel=9 note=47 velocity=75 time=0
EXTRACT: note_on channel=9 note=70 velocity=0 time=0.127232075
EXTRACT: note_on channel=9 note=41 velocity=0 time=0
EXTRACT: note_on channel=9 note=47 velocity=0 time=0
EXTRACT: note_on channel=9 note=41 velocity=0 time=0
EXTRACT: note_on channel=9 note=47 velocity=0 time=0
EXTRACT: note_on channel=9 note=70 velocity=75 time=0.006696425000000001
EXTRACT: note_on channel=9 note=41 velocity=75 time=0
EXTRACT: note_on channel=9 note=47 velocity=75 time=0
EXTRACT: note_on channel=1 note=73 velocity=0 time=0.1339285
EXTRACT: note_on channel=1 note=77 velocity=0 time=0
EXTRACT: note_on channel=1 note=80 velocity=0 time=0
EXTRACT: note_on channel=2 note=49 velocity=0 time=0
EXTRACT: note_on channel=3 note=73 velocity=0 time=0
EXTRACT: note_on channel=3 note=77 velocity=0 time=0
EXTRACT: note_on channel=3 note=80 velocity=0 time=0
EXTRACT: note_on channel=5 note=73 velocity=0 time=0
EXTRACT: note_on channel=5 note=77 velocity=0 time=0
EXTRACT: note_on channel=5 note=80 velocity=0 time=0
EXTRACT: note_on channel=10 note=73 velocity=0 time=0
EXTRACT: note_on channel=10 note=77 velocity=0 time=0
EXTRACT: note_on channel=10 note=80 velocity=0 time=0
EXTRACT: note_on channel=6 note=49 velocity=0 time=0
EXTRACT: note_on channel=9 note=70 velocity=0 time=0.127232075
EXTRACT: note_on channel=9 note=41 velocity=0 time=0
EXTRACT: note_on channel=9 note=47 velocity=0 time=0
EXTRACT: note_on channel=1 note=66 velocity=110 time=0.006696425000000001
EXTRACT: note_on channel=1 note=70 velocity=110 time=0
EXTRACT: note_on channel=1 note=73 velocity=110 time=0
EXTRACT: note_on channel=2 note=42 velocity=110 time=0
EXTRACT: note_on channel=9 note=70 velocity=75 time=0
EXTRACT: note_on channel=9 note=41 velocity=75 time=0
EXTRACT: note_on channel=9 note=47 velocity=75 time=0
EXTRACT: note_on channel=9 note=41 velocity=127 time=0
EXTRACT: note_on channel=9 note=47 velocity=127 time=0
EXTRACT: note_on channel=5 note=66 velocity=90 time=0
EXTRACT: note_on channel=5 note=70 velocity=90 time=0
EXTRACT: note_on channel=5 note=73 velocity=90 time=0
EXTRACT: note_on channel=10 note=66 velocity=90 time=0
EXTRACT: note_on channel=10 note=70 velocity=90 time=0
EXTRACT: note_on channel=10 note=73 velocity=90 time=0
EXTRACT: note_on channel=6 note=42 velocity=90 time=0
EXTRACT: note_on channel=9 note=70 velocity=0 time=0.261160575
EXTRACT: note_on channel=9 note=41 velocity=0 time=0
EXTRACT: note_on channel=9 note=47 velocity=0 time=0
EXTRACT: note_on channel=9 note=41 velocity=0 time=0
EXTRACT: note_on channel=9 note=47 velocity=0 time=0
EXTRACT: note_on channel=9 note=70 velocity=75 time=0.006696425000000001
EXTRACT: note_on channel=9 note=41 velocity=75 time=0
EXTRACT: note_on channel=9 note=47 velocity=75 time=0
EXTRACT: note_on channel=9 note=70 velocity=0 time=0.127232075
EXTRACT: note_on channel=9 note=41 velocity=0 time=0
EXTRACT: note_on channel=9 note=47 velocity=0 time=0
EXTRACT: note_on channel=9 note=70 velocity=75 time=0.006696425000000001
EXTRACT: note_on channel=9 note=41 velocity=75 time=0
EXTRACT: note_on channel=9 note=47 velocity=75 time=0
EXTRACT: note_on channel=9 note=41 velocity=127 time=0.1339285
EXTRACT: note_on channel=9 note=47 velocity=127 time=0
EXTRACT: note_on channel=9 note=70 velocity=0 time=0.127232075
EXTRACT: note_on channel=9 note=41 velocity=0 time=0
EXTRACT: note_on channel=9 note=47 velocity=0 time=0
EXTRACT: note_on channel=9 note=70 velocity=75 time=0.006696425000000001
EXTRACT: note_on channel=9 note=41 velocity=75 time=0
EXTRACT: note_on channel=9 note=47 velocity=75 time=0
EXTRACT: note_on channel=9 note=70 velocity=0 time=0.127232075
EXTRACT: note_on channel=9 note=41 velocity=0 time=0
EXTRACT: note_on channel=9 note=47 velocity=0 time=0
EXTRACT: note_on channel=9 note=41 velocity=0 time=0
EXTRACT: note_on channel=9 note=47 velocity=0 time=0
EXTRACT: note_on channel=9 note=70 velocity=75 time=0.006696425000000001
EXTRACT: note_on channel=9 note=41 velocity=75 time=0
EXTRACT: note_on channel=9 note=47 velocity=75 time=0
EXTRACT: note_on channel=1 note=66 velocity=0 time=0.1339285
EXTRACT: note_on channel=1 note=70 velocity=0 time=0
EXTRACT: note_on channel=1 note=73 velocity=0 time=0
EXTRACT: note_on channel=2 note=42 velocity=0 time=0
EXTRACT: note_on channel=5 note=66 velocity=0 time=0
EXTRACT: note_on channel=5 note=70 velocity=0 time=0
EXTRACT: note_on channel=5 note=73 velocity=0 time=0
EXTRACT: note_on channel=10 note=66 velocity=0 time=0
EXTRACT: note_on channel=10 note=70 velocity=0 time=0
EXTRACT: note_on channel=10 note=73 velocity=0 time=0
EXTRACT: note_on channel=6 note=42 velocity=0 time=0
EXTRACT: note_on channel=9 note=70 velocity=0 time=0.127232075
EXTRACT: note_on channel=9 note=41 velocity=0 time=0
EXTRACT: note_on channel=9 note=47 velocity=0 time=0
EXTRACT: note_on channel=1 note=71 velocity=110 time=0.006696425000000001
EXTRACT: note_on channel=1 note=75 velocity=110 time=0
EXTRACT: note_on channel=1 note=78 velocity=110 time=0
EXTRACT: note_on channel=2 note=42 velocity=110 time=0
EXTRACT: note_on channel=3 note=71 velocity=110 time=0
EXTRACT: note_on channel=3 note=75 velocity=110 time=0
EXTRACT: note_on channel=3 note=78 velocity=110 time=0
EXTRACT: note_on channel=9 note=70 velocity=75 time=0
EXTRACT: note_on channel=9 note=41 velocity=75 time=0
EXTRACT: note_on channel=9 note=47 velocity=75 time=0
EXTRACT: note_on channel=9 note=41 velocity=127 time=0
EXTRACT: note_on channel=9 note=47 velocity=127 time=0
EXTRACT: note_on channel=5 note=71 velocity=90 time=0
EXTRACT: note_on channel=5 note=75 velocity=90 time=0
EXTRACT: note_on channel=5 note=78 velocity=90 time=0
EXTRACT: note_on channel=10 note=71 velocity=90 time=0
EXTRACT: note_on channel=10 note=75 velocity=90 time=0
EXTRACT: note_on channel=10 note=78 velocity=90 time=0
EXTRACT: note_on channel=6 note=42 velocity=90 time=0
EXTRACT: note_on channel=9 note=70 velocity=0 time=0.261160575
EXTRACT: note_on channel=9 note=41 velocity=0 time=0
EXTRACT: note_on channel=9 note=47 velocity=0 time=0
EXTRACT: note_on channel=9 note=41 velocity=0 time=0
EXTRACT: note_on channel=9 note=47 velocity=0 time=0
EXTRACT: note_on channel=9 note=70 velocity=75 time=0.006696425000000001
EXTRACT: note_on channel=9 note=41 velocity=75 time=0
EXTRACT: note_on channel=9 note=47 velocity=75 time=0
EXTRACT: note_on channel=9 note=70 velocity=0 time=0.127232075
EXTRACT: note_on channel=9 note=41 velocity=0 time=0
EXTRACT: note_on channel=9 note=47 velocity=0 time=0
EXTRACT: note_on channel=9 note=70 velocity=75 time=0.006696425000000001
EXTRACT: note_on channel=9 note=41 velocity=75 time=0
EXTRACT: note_on channel=9 note=47 velocity=75 time=0
EXTRACT: note_on channel=1 note=71 velocity=0 time=0.04464283333333333
EXTRACT: note_on channel=1 note=75 velocity=0 time=0
EXTRACT: note_on channel=1 note=78 velocity=0 time=0
EXTRACT: note_on channel=3 note=71 velocity=0 time=0
EXTRACT: note_on channel=3 note=75 velocity=0 time=0
EXTRACT: note_on channel=3 note=78 velocity=0 time=0
EXTRACT: note_on channel=5 note=71 velocity=0 time=0
EXTRACT: note_on channel=5 note=75 velocity=0 time=0
EXTRACT: note_on channel=5 note=78 velocity=0 time=0
EXTRACT: note_on channel=10 note=71 velocity=0 time=0
EXTRACT: note_on channel=10 note=75 velocity=0 time=0
EXTRACT: note_on channel=10 note=78 velocity=0 time=0
EXTRACT: note_on channel=1 note=71 velocity=110 time=0.08928566666666667
EXTRACT: note_on channel=1 note=75 velocity=110 time=0
EXTRACT: note_on channel=1 note=78 velocity=110 time=0
EXTRACT: note_on channel=3 note=71 velocity=110 time=0
EXTRACT: note_on channel=3 note=75 velocity=110 time=0
EXTRACT: note_on channel=3 note=78 velocity=110 time=0
EXTRACT: note_on channel=9 note=41 velocity=127 time=0
EXTRACT: note_on channel=9 note=47 velocity=127 time=0
EXTRACT: note_on channel=5 note=71 velocity=90 time=0
EXTRACT: note_on channel=5 note=75 velocity=90 time=0
EXTRACT: note_on channel=5 note=78 velocity=90 time=0
EXTRACT: note_on channel=10 note=71 velocity=90 time=0
EXTRACT: note_on channel=10 note=75 velocity=90 time=0
EXTRACT: note_on channel=10 note=78 velocity=90 time=0
EXTRACT: note_on channel=9 note=70 velocity=0 time=0.127232075
EXTRACT: note_on channel=9 note=41 velocity=0 time=0
EXTRACT: note_on channel=9 note=47 velocity=0 time=0
EXTRACT: note_on channel=9 note=70 velocity=75 time=0.006696425000000001
EXTRACT: note_on channel=9 note=41 velocity=75 time=0
EXTRACT: note_on channel=9 note=47 velocity=75 time=0
EXTRACT: note_on channel=9 note=70 velocity=0 time=0.127232075
EXTRACT: note_on channel=9 note=41 velocity=0 time=0
EXTRACT: note_on channel=9 note=47 velocity=0 time=0
EXTRACT: note_on channel=9 note=41 velocity=0 time=0
EXTRACT: note_on channel=9 note=47 velocity=0 time=0
EXTRACT: note_on channel=9 note=70 velocity=75 time=0.006696425000000001
EXTRACT: note_on channel=9 note=41 velocity=75 time=0
EXTRACT: note_on channel=9 note=47 velocity=75 time=0
EXTRACT: note_on channel=2 note=42 velocity=0 time=0.1339285
EXTRACT: note_on channel=6 note=42 velocity=0 time=0
EXTRACT: note_on channel=1 note=71 velocity=0 time=0.04464283333333333
EXTRACT: note_on channel=1 note=75 velocity=0 time=0
EXTRACT: note_on channel=1 note=78 velocity=0 time=0
EXTRACT: note_on channel=3 note=71 velocity=0 time=0
EXTRACT: note_on channel=3 note=75 velocity=0 time=0
EXTRACT: note_on channel=3 note=78 velocity=0 time=0
EXTRACT: note_on channel=5 note=71 velocity=0 time=0
EXTRACT: note_on channel=5 note=75 velocity=0 time=0
EXTRACT: note_on channel=5 note=78 velocity=0 time=0
EXTRACT: note_on channel=10 note=71 velocity=0 time=0
EXTRACT: note_on channel=10 note=75 velocity=0 time=0
EXTRACT: note_on channel=10 note=78 velocity=0 time=0
EXTRACT: note_on channel=9 note=70 velocity=0 time=0.08258924166666667
EXTRACT: note_on channel=9 note=41 velocity=0 time=0
EXTRACT: note_on channel=9 note=47 velocity=0 time=0
EXTRACT: note_on channel=1 note=68 velocity=110 time=0.006696425000000001
EXTRACT: note_on channel=1 note=73 velocity=110 time=0
EXTRACT: note_on channel=1 note=77 velocity=110 time=0
EXTRACT: note_on channel=2 note=44 velocity=110 time=0
EXTRACT: note_on channel=3 note=68 velocity=110 time=0
EXTRACT: note_on channel=3 note=73 velocity=110 time=0
EXTRACT: note_on channel=3 note=77 velocity=110 time=0
EXTRACT: note_on channel=9 note=70 velocity=75 time=0
EXTRACT: note_on channel=9 note=41 velocity=75 time=0
EXTRACT: note_on channel=9 note=47 velocity=75 time=0
EXTRACT: note_on channel=9 note=41 velocity=127 time=0
EXTRACT: note_on channel=9 note=47 velocity=127 time=0
EXTRACT: note_on channel=5 note=68 velocity=90 time=0
EXTRACT: note_on channel=5 note=73 velocity=90 time=0
EXTRACT: note_on channel=5 note=77 velocity=90 time=0
EXTRACT: note_on channel=10 note=68 velocity=90 time=0
EXTRACT: note_on channel=10 note=73 velocity=90 time=0
EXTRACT: note_on channel=10 note=77 velocity=90 time=0
EXTRACT: note_on channel=6 note=44 velocity=90 time=0
EXTRACT: note_on channel=9 note=70 velocity=0 time=0.261160575
EXTRACT: note_on channel=9 note=41 velocity=0 time=0
EXTRACT: note_on channel=9 note=47 velocity=0 time=0
EXTRACT: note_on channel=9 note=41 velocity=0 time=0
EXTRACT: note_on channel=9 note=47 velocity=0 time=0
EXTRACT: note_on channel=9 note=70 velocity=75 time=0.006696425000000001
EXTRACT: note_on channel=9 note=41 velocity=75 time=0
EXTRACT: note_on channel=9 note=47 velocity=75 time=0
EXTRACT: note_on channel=9 note=70 velocity=0 time=0.127232075
EXTRACT: note_on channel=9 note=41 velocity=0 time=0
EXTRACT: note_on channel=9 note=47 velocity=0 time=0
EXTRACT: note_on channel=9 note=70 velocity=75 time=0.006696425000000001
EXTRACT: note_on channel=9 note=41 velocity=75 time=0
EXTRACT: note_on channel=9 note=47 velocity=75 time=0
EXTRACT: note_on channel=9 note=41 velocity=127 time=0.1339285
EXTRACT: note_on channel=9 note=47 velocity=127 time=0
EXTRACT: note_on channel=9 note=70 velocity=0 time=0.127232075
EXTRACT: note_on channel=9 note=41 velocity=0 time=0
EXTRACT: note_on channel=9 note=47 velocity=0 time=0
EXTRACT: note_on channel=9 note=70 velocity=75 time=0.006696425000000001
EXTRACT: note_on channel=9 note=41 velocity=75 time=0
EXTRACT: note_on channel=9 note=47 velocity=75 time=0
EXTRACT: note_on channel=9 note=70 velocity=0 time=0.127232075
EXTRACT: note_on channel=9 note=41 velocity=0 time=0
EXTRACT: note_on channel=9 note=47 velocity=0 time=0
EXTRACT: note_on channel=9 note=41 velocity=0 time=0
EXTRACT: note_on channel=9 note=47 velocity=0 time=0
EXTRACT: note_on channel=9 note=70 velocity=75 time=0.006696425000000001
EXTRACT: note_on channel=9 note=41 velocity=75 time=0
EXTRACT: note_on channel=9 note=47 velocity=75 time=0
EXTRACT: note_on channel=1 note=68 velocity=0 time=0.1339285
EXTRACT: note_on channel=1 note=73 velocity=0 time=0
EXTRACT: note_on channel=1 note=77 velocity=0 time=0
EXTRACT: note_on channel=2 note=44 velocity=0 time=0
EXTRACT: note_on channel=3 note=68 velocity=0 time=0
EXTRACT: note_on channel=3 note=73 velocity=0 time=0
EXTRACT: note_on channel=3 note=77 velocity=0 time=0
EXTRACT: note_on channel=5 note=68 velocity=0 time=0
EXTRACT: note_on channel=5 note=73 velocity=0 time=0
EXTRACT: note_on channel=5 note=77 velocity=0 time=0
EXTRACT: note_on channel=10 note=68 velocity=0 time=0
EXTRACT: note_on channel=10 note=73 velocity=0 time=0
EXTRACT: note_on channel=10 note=77 velocity=0 time=0
EXTRACT: note_on channel=6 note=44 velocity=0 time=0
EXTRACT: note_on channel=9 note=70 velocity=0 time=0.127232075
EXTRACT: note_on channel=9 note=41 velocity=0 time=0
EXTRACT: note_on channel=9 note=47 velocity=0 time=0
EXTRACT: note_on channel=1 note=73 velocity=110 time=0.006696425000000001
EXTRACT: note_on channel=1 note=77 velocity=110 time=0
EXTRACT: note_on channel=1 note=80 velocity=110 time=0
EXTRACT: note_on channel=2 note=49 velocity=110 time=0
EXTRACT: note_on channel=3 note=73 velocity=110 time=0
EXTRACT: note_on channel=3 note=77 velocity=110 time=0
EXTRACT: note_on channel=3 note=80 velocity=110 time=0
EXTRACT: note_on channel=9 note=70 velocity=75 time=0
EXTRACT: note_on channel=9 note=41 velocity=75 time=0
EXTRACT: note_on channel=9 note=47 velocity=75 time=0
EXTRACT: note_on channel=9 note=41 velocity=127 time=0
EXTRACT: note_on channel=9 note=47 velocity=127 time=0
EXTRACT: note_on channel=5 note=73 velocity=90 time=0
EXTRACT: note_on channel=5 note=77 velocity=90 time=0
EXTRACT: note_on channel=5 note=80 velocity=90 time=0
EXTRACT: note_on channel=10 note=73 velocity=90 time=0
EXTRACT: note_on channel=10 note=77 velocity=90 time=0
EXTRACT: note_on channel=10 note=80 velocity=90 time=0
EXTRACT: note_on channel=6 note=49 velocity=90 time=0
EXTRACT: note_on channel=9 note=70 velocity=0 time=0.261160575
EXTRACT: note_on channel=9 note=41 velocity=0 time=0
EXTRACT: note_on channel=9 note=47 velocity=0 time=0
EXTRACT: note_on channel=9 note=41 velocity=0 time=0
EXTRACT: note_on channel=9 note=47 velocity=0 time=0
EXTRACT: note_on channel=9 note=70 velocity=75 time=0.006696425000000001
EXTRACT: note_on channel=9 note=41 velocity=75 time=0
EXTRACT: note_on channel=9 note=47 velocity=75 time=0
EXTRACT: note_on channel=9 note=70 velocity=0 time=0.127232075
EXTRACT: note_on channel=9 note=41 velocity=0 time=0
EXTRACT: note_on channel=9 note=47 velocity=0 time=0
EXTRACT: note_on channel=9 note=70 velocity=75 time=0.006696425000000001
EXTRACT: note_on channel=9 note=41 velocity=75 time=0
EXTRACT: note_on channel=9 note=47 velocity=75 time=0
EXTRACT: note_on channel=9 note=41 velocity=127 time=0.1339285
EXTRACT: note_on channel=9 note=47 velocity=127 time=0
EXTRACT: note_on channel=9 note=70 velocity=0 time=0.127232075
EXTRACT: note_on channel=9 note=41 velocity=0 time=0
EXTRACT: note_on channel=9 note=47 velocity=0 time=0
EXTRACT: note_on channel=9 note=70 velocity=75 time=0.006696425000000001
EXTRACT: note_on channel=9 note=41 velocity=75 time=0
EXTRACT: note_on channel=9 note=47 velocity=75 time=0
EXTRACT: note_on channel=9 note=70 velocity=0 time=0.127232075
EXTRACT: note_on channel=9 note=41 velocity=0 time=0
EXTRACT: note_on channel=9 note=47 velocity=0 time=0
EXTRACT: note_on channel=9 note=41 velocity=0 time=0
EXTRACT: note_on channel=9 note=47 velocity=0 time=0
EXTRACT: note_on channel=9 note=70 velocity=75 time=0.006696425000000001
EXTRACT: note_on channel=9 note=41 velocity=75 time=0
EXTRACT: note_on channel=9 note=47 velocity=75 time=0
EXTRACT: note_on channel=1 note=73 velocity=0 time=0.1339285
EXTRACT: note_on channel=1 note=77 velocity=0 time=0
EXTRACT: note_on channel=1 note=80 velocity=0 time=0
EXTRACT: note_on channel=2 note=49 velocity=0 time=0
EXTRACT: note_on channel=3 note=73 velocity=0 time=0
EXTRACT: note_on channel=3 note=77 velocity=0 time=0
EXTRACT: note_on channel=3 note=80 velocity=0 time=0
EXTRACT: note_on channel=5 note=73 velocity=0 time=0
EXTRACT: note_on channel=5 note=77 velocity=0 time=0
EXTRACT: note_on channel=5 note=80 velocity=0 time=0
EXTRACT: note_on channel=10 note=73 velocity=0 time=0
EXTRACT: note_on channel=10 note=77 velocity=0 time=0
EXTRACT: note_on channel=10 note=80 velocity=0 time=0
EXTRACT: note_on channel=6 note=49 velocity=0 time=0
EXTRACT: note_on channel=9 note=70 velocity=0 time=0.127232075
EXTRACT: note_on channel=9 note=41 velocity=0 time=0
EXTRACT: note_on channel=9 note=47 velocity=0 time=0
EXTRACT: note_on channel=0 note=70 velocity=110 time=0.006696425000000001
EXTRACT: note_on channel=1 note=61 velocity=110 time=0
EXTRACT: note_on channel=1 note=66 velocity=110 time=0
EXTRACT: note_on channel=1 note=70 velocity=110 time=0
EXTRACT: note_on channel=2 note=42 velocity=110 time=0
EXTRACT: note_on channel=9 note=70 velocity=75 time=0
EXTRACT: note_on channel=9 note=41 velocity=75 time=0
EXTRACT: note_on channel=9 note=47 velocity=75 time=0
EXTRACT: note_on channel=9 note=41 velocity=127 time=0
EXTRACT: note_on channel=9 note=47 velocity=127 time=0
EXTRACT: note_on channel=5 note=61 velocity=90 time=0
EXTRACT: note_on channel=5 note=66 velocity=90 time=0
EXTRACT: note_on channel=5 note=70 velocity=90 time=0
EXTRACT: note_on channel=10 note=61 velocity=90 time=0
EXTRACT: note_on channel=10 note=66 velocity=90 time=0
EXTRACT: note_on channel=10 note=70 velocity=90 time=0
EXTRACT: note_on channel=6 note=42 velocity=90 time=0
EXTRACT: note_on channel=0 note=70 velocity=0 time=0.261160575
EXTRACT: note_on channel=1 note=61 velocity=0 time=0
EXTRACT: note_on channel=1 note=66 velocity=0 time=0
EXTRACT: note_on channel=1 note=70 velocity=0 time=0
EXTRACT: note_on channel=9 note=70 velocity=0 time=0
EXTRACT: note_on channel=9 note=41 velocity=0 time=0
EXTRACT: note_on channel=9 note=47 velocity=0 time=0
EXTRACT: note_on channel=9 note=41 velocity=0 time=0
EXTRACT: note_on channel=9 note=47 velocity=0 time=0
EXTRACT: note_on channel=5 note=61 velocity=0 time=0
EXTRACT: note_on channel=5 note=66 velocity=0 time=0
EXTRACT: note_on channel=5 note=70 velocity=0 time=0
EXTRACT: note_on channel=10 note=61 velocity=0 time=0
EXTRACT: note_on channel=10 note=66 velocity=0 time=0
EXTRACT: note_on channel=10 note=70 velocity=0 time=0
EXTRACT: note_on channel=0 note=70 velocity=110 time=0.006696425000000001
EXTRACT: note_on channel=1 note=70 velocity=110 time=0
EXTRACT: note_on channel=9 note=70 velocity=75 time=0
EXTRACT: note_on channel=9 note=41 velocity=75 time=0
EXTRACT: note_on channel=9 note=47 velocity=75 time=0
EXTRACT: note_on channel=5 note=70 velocity=90 time=0
EXTRACT: note_on channel=10 note=70 velocity=90 time=0
EXTRACT: note_on channel=9 note=70 velocity=0 time=0.127232075
EXTRACT: note_on channel=9 note=41 velocity=0 time=0
EXTRACT: note_on channel=9 note=47 velocity=0 time=0
EXTRACT: note_on channel=9 note=70 velocity=75 time=0.006696425000000001
EXTRACT: note_on channel=9 note=41 velocity=75 time=0
EXTRACT: note_on channel=9 note=47 velocity=75 time=0
EXTRACT: note_on channel=0 note=70 velocity=0 time=0.127232075
EXTRACT: note_on channel=1 note=70 velocity=0 time=0
EXTRACT: note_on channel=5 note=70 velocity=0 time=0
EXTRACT: note_on channel=10 note=70 velocity=0 time=0
EXTRACT: note_on channel=0 note=70 velocity=110 time=0.006696425000000001
EXTRACT: note_on channel=1 note=70 velocity=110 time=0
EXTRACT: note_on channel=9 note=41 velocity=127 time=0
EXTRACT: note_on channel=9 note=47 velocity=127 time=0
EXTRACT: note_on channel=5 note=70 velocity=90 time=0
EXTRACT: note_on channel=10 note=70 velocity=90 time=0
EXTRACT: note_on channel=9 note=70 velocity=0 time=0.127232075
EXTRACT: note_on channel=9 note=41 velocity=0 time=0
EXTRACT: note_on channel=9 note=47 velocity=0 time=0
EXTRACT: note_on channel=9 note=70 velocity=75 time=0.006696425000000001
EXTRACT: note_on channel=9 note=41 velocity=75 time=0
EXTRACT: note_on channel=9 note=47 velocity=75 time=0
EXTRACT: note_on channel=0 note=70 velocity=0 time=0.127232075
EXTRACT: note_on channel=1 note=70 velocity=0 time=0
EXTRACT: note_on channel=9 note=70 velocity=0 time=0
EXTRACT: note_on channel=9 note=41 velocity=0 time=0
EXTRACT: note_on channel=9 note=47 velocity=0 time=0
EXTRACT: note_on channel=9 note=41 velocity=0 time=0
EXTRACT: note_on channel=9 note=47 velocity=0 time=0
EXTRACT: note_on channel=5 note=70 velocity=0 time=0
EXTRACT: note_on channel=10 note=70 velocity=0 time=0
EXTRACT: note_on channel=0 note=70 velocity=110 time=0.006696425000000001
EXTRACT: note_on channel=1 note=70 velocity=110 time=0
EXTRACT: note_on channel=9 note=70 velocity=75 time=0
EXTRACT: note_on channel=9 note=41 velocity=75 time=0
EXTRACT: note_on channel=9 note=47 velocity=75 time=0
EXTRACT: note_on channel=5 note=70 velocity=90 time=0
EXTRACT: note_on channel=10 note=70 velocity=90 time=0
EXTRACT: note_on channel=2 note=42 velocity=0 time=0.1339285
EXTRACT: note_on channel=6 note=42 velocity=0 time=0
EXTRACT: note_on channel=0 note=70 velocity=0 time=0.127232075
EXTRACT: note_on channel=1 note=70 velocity=0 time=0
EXTRACT: note_on channel=9 note=70 velocity=0 time=0
EXTRACT: note_on channel=9 note=41 velocity=0 time=0
EXTRACT: note_on channel=9 note=47 velocity=0 time=0
EXTRACT: note_on channel=5 note=70 velocity=0 time=0
EXTRACT: note_on channel=10 note=70 velocity=0 time=0
EXTRACT: note_on channel=0 note=71 velocity=110 time=0.006696425000000001
EXTRACT: note_on channel=1 note=61 velocity=110 time=0
EXTRACT: note_on channel=1 note=66 velocity=110 time=0
EXTRACT: note_on channel=1 note=71 velocity=110 time=0
EXTRACT: note_on channel=2 note=42 velocity=110 time=0
EXTRACT: note_on channel=9 note=70 velocity=75 time=0
EXTRACT: note_on channel=9 note=41 velocity=75 time=0
EXTRACT: note_on channel=9 note=47 velocity=75 time=0
EXTRACT: note_on channel=9 note=41 velocity=127 time=0
EXTRACT: note_on channel=9 note=47 velocity=127 time=0
EXTRACT: note_on channel=5 note=61 velocity=90 time=0
EXTRACT: note_on channel=5 note=66 velocity=90 time=0
EXTRACT: note_on channel=5 note=71 velocity=90 time=0
EXTRACT: note_on channel=10 note=61 velocity=90 time=0
EXTRACT: note_on channel=10 note=66 velocity=90 time=0
EXTRACT: note_on channel=10 note=71 velocity=90 time=0
EXTRACT: note_on channel=6 note=42 velocity=90 time=0
EXTRACT: note_on channel=0 note=71 velocity=0 time=0.127232075
EXTRACT: note_on channel=1 note=61 velocity=0 time=0
EXTRACT: note_on channel=1 note=66 velocity=0 time=0
EXTRACT: note_on channel=1 note=71 velocity=0 time=0
EXTRACT: note_on channel=5 note=61 velocity=0 time=0
EXTRACT: note_on channel=5 note=66 velocity=0 time=0
EXTRACT: note_on channel=5 note=71 velocity=0 time=0
EXTRACT: note_on channel=10 note=61 velocity=0 time=0
EXTRACT: note_on channel=10 note=66 velocity=0 time=0
EXTRACT: note_on channel=10 note=71 velocity=0 time=0
EXTRACT: note_on channel=0 note=71 velocity=110 time=0.006696425000000001
EXTRACT: note_on channel=1 note=71 velocity=110 time=0
EXTRACT: note_on channel=5 note=71 velocity=90 time=0
EXTRACT: note_on channel=10 note=71 velocity=90 time=0
EXTRACT: note_on channel=9 note=70 velocity=0 time=0.127232075
EXTRACT: note_on channel=9 note=41 velocity=0 time=0
EXTRACT: note_on channel=9 note=47 velocity=0 time=0
EXTRACT: note_on channel=9 note=41 velocity=0 time=0
EXTRACT: note_on channel=9 note=47 velocity=0 time=0
EXTRACT: note_on channel=9 note=70 velocity=75 time=0.006696425000000001
EXTRACT: note_on channel=9 note=41 velocity=75 time=0
EXTRACT: note_on channel=9 note=47 velocity=75 time=0
EXTRACT: note_on channel=0 note=71 velocity=0 time=0.127232075
EXTRACT: note_on channel=1 note=71 velocity=0 time=0
EXTRACT: note_on channel=9 note=70 velocity=0 time=0
EXTRACT: note_on channel=9 note=41 velocity=0 time=0
EXTRACT: note_on channel=9 note=47 velocity=0 time=0
EXTRACT: note_on channel=5 note=71 velocity=0 time=0
EXTRACT: note_on channel=10 note=71 velocity=0 time=0
EXTRACT: note_on channel=0 note=71 velocity=110 time=0.006696425000000001
EXTRACT: note_on channel=1 note=71 velocity=110 time=0
EXTRACT: note_on channel=9 note=70 velocity=75 time=0
EXTRACT: note_on channel=9 note=41 velocity=75 time=0
EXTRACT: note_on channel=9 note=47 velocity=75 time=0
EXTRACT: note_on channel=5 note=71 velocity=90 time=0
EXTRACT: note_on channel=10 note=71 velocity=90 time=0
EXTRACT: note_on channel=9 note=41 velocity=127 time=0.1339285
EXTRACT: note_on channel=9 note=47 velocity=127 time=0
EXTRACT: note_on channel=9 note=70 velocity=0 time=0.127232075
EXTRACT: note_on channel=9 note=41 velocity=0 time=0
EXTRACT: note_on channel=9 note=47 velocity=0 time=0
EXTRACT: note_on channel=9 note=70 velocity=75 time=0.006696425000000001
EXTRACT: note_on channel=9 note=41 velocity=75 time=0
EXTRACT: note_on channel=9 note=47 velocity=75 time=0
EXTRACT: note_on channel=0 note=71 velocity=0 time=0.127232075
EXTRACT: note_on channel=1 note=71 velocity=0 time=0
EXTRACT: note_on channel=9 note=70 velocity=0 time=0
EXTRACT: note_on channel=9 note=41 velocity=0 time=0
EXTRACT: note_on channel=9 note=47 velocity=0 time=0
EXTRACT: note_on channel=9 note=41 velocity=0 time=0
EXTRACT: note_on channel=9 note=47 velocity=0 time=0
EXTRACT: note_on channel=5 note=71 velocity=0 time=0
EXTRACT: note_on channel=10 note=71 velocity=0 time=0
EXTRACT: note_on channel=0 note=70 velocity=110 time=0.006696425000000001
EXTRACT: note_on channel=1 note=70 velocity=110 time=0
EXTRACT: note_on channel=9 note=70 velocity=75 time=0
EXTRACT: note_on channel=9 note=41 velocity=75 time=0
EXTRACT: note_on channel=9 note=47 velocity=75 time=0
EXTRACT: note_on channel=5 note=70 velocity=90 time=0
EXTRACT: note_on channel=10 note=70 velocity=90 time=0
EXTRACT: note_on channel=2 note=42 velocity=0 time=0.1339285
EXTRACT: note_on channel=6 note=42 velocity=0 time=0
EXTRACT: note_on channel=0 note=70 velocity=0 time=0.127232075
EXTRACT: note_on channel=1 note=70 velocity=0 time=0
EXTRACT: note_on channel=9 note=70 velocity=0 time=0
EXTRACT: note_on channel=9 note=41 velocity=0 time=0
EXTRACT: note_on channel=9 note=47 velocity=0 time=0
EXTRACT: note_on channel=5 note=70 velocity=0 time=0
EXTRACT: note_on channel=10 note=70 velocity=0 time=0
EXTRACT: note_on channel=0 note=70 velocity=110 time=0.006696425000000001
EXTRACT: note_on channel=1 note=59 velocity=110 time=0
EXTRACT: note_on channel=1 note=63 velocity=110 time=0
EXTRACT: note_on channel=1 note=70 velocity=110 time=0
EXTRACT: note_on channel=2 note=44 velocity=110 time=0
EXTRACT: note_on channel=9 note=70 velocity=75 time=0
EXTRACT: note_on channel=9 note=41 velocity=75 time=0
EXTRACT: note_on channel=9 note=47 velocity=75 time=0
EXTRACT: note_on channel=9 note=41 velocity=127 time=0
EXTRACT: note_on channel=9 note=47 velocity=127 time=0
EXTRACT: note_on channel=5 note=59 velocity=90 time=0
EXTRACT: note_on channel=5 note=63 velocity=90 time=0
EXTRACT: note_on channel=5 note=70 velocity=90 time=0
EXTRACT: note_on channel=10 note=59 velocity=90 time=0
EXTRACT: note_on channel=10 note=63 velocity=90 time=0
EXTRACT: note_on channel=10 note=70 velocity=90 time=0
EXTRACT: note_on channel=6 note=44 velocity=90 time=0
EXTRACT: note_on channel=0 note=70 velocity=0 time=0.127232075
EXTRACT: note_on channel=1 note=59 velocity=0 time=0
EXTRACT: note_on channel=1 note=63 velocity=0 time=0
EXTRACT: note_on channel=1 note=70 velocity=0 time=0
EXTRACT: note_on channel=5 note=59 velocity=0 time=0
EXTRACT: note_on channel=5 note=63 velocity=0 time=0
EXTRACT: note_on channel=5 note=70 velocity=0 time=0
EXTRACT: note_on channel=10 note=59 velocity=0 time=0
EXTRACT: note_on channel=10 note=63 velocity=0 time=0
EXTRACT: note_on channel=10 note=70 velocity=0 time=0
EXTRACT: note_on channel=0 note=68 velocity=110 time=0.006696425000000001
EXTRACT: note_on channel=1 note=68 velocity=110 time=0
EXTRACT: note_on channel=5 note=68 velocity=90 time=0
EXTRACT: note_on channel=10 note=68 velocity=90 time=0
EXTRACT: note_on channel=9 note=70 velocity=0 time=0.127232075
EXTRACT: note_on channel=9 note=41 velocity=0 time=0
EXTRACT: note_on channel=9 note=47 velocity=0 time=0
EXTRACT: note_on channel=9 note=41 velocity=0 time=0
EXTRACT: note_on channel=9 note=47 velocity=0 time=0
EXTRACT: note_on channel=9 note=70 velocity=75 time=0.006696425000000001
EXTRACT: note_on channel=9 note=41 velocity=75 time=0
EXTRACT: note_on channel=9 note=47 velocity=75 time=0
EXTRACT: note_on channel=0 note=68 velocity=0 time=0.127232075
EXTRACT: note_on channel=1 note=68 velocity=0 time=0
EXTRACT: note_on channel=9 note=70 velocity=0 time=0
EXTRACT: note_on channel=9 note=41 velocity=0 time=0
EXTRACT: note_on channel=9 note=47 velocity=0 time=0
EXTRACT: note_on channel=5 note=68 velocity=0 time=0
EXTRACT: note_on channel=10 note=68 velocity=0 time=0
EXTRACT: note_on channel=0 note=68 velocity=110 time=0.006696425000000001
EXTRACT: note_on channel=1 note=68 velocity=110 time=0
EXTRACT: note_on channel=9 note=70 velocity=75 time=0
EXTRACT: note_on channel=9 note=41 velocity=75 time=0
EXTRACT: note_on channel=9 note=47 velocity=75 time=0
EXTRACT: note_on channel=5 note=68 velocity=90 time=0
EXTRACT: note_on channel=10 note=68 velocity=90 time=0
EXTRACT: note_on channel=9 note=41 velocity=127 time=0.1339285
EXTRACT: note_on channel=9 note=47 velocity=127 time=0
EXTRACT: note_on channel=9 note=70 velocity=0 time=0.127232075
EXTRACT: note_on channel=9 note=41 velocity=0 time=0
EXTRACT: note_on channel=9 note=47 velocity=0 time=0
EXTRACT: note_on channel=9 note=70 velocity=75 time=0.006696425000000001
EXTRACT: note_on channel=9 note=41 velocity=75 time=0
EXTRACT: note_on channel=9 note=47 velocity=75 time=0
EXTRACT: note_on channel=0 note=68 velocity=0 time=0.127232075
EXTRACT: note_on channel=1 note=68 velocity=0 time=0
EXTRACT: note_on channel=9 note=70 velocity=0 time=0
EXTRACT: note_on channel=9 note=41 velocity=0 time=0
EXTRACT: note_on channel=9 note=47 velocity=0 time=0
EXTRACT: note_on channel=9 note=41 velocity=0 time=0
EXTRACT: note_on channel=9 note=47 velocity=0 time=0
EXTRACT: note_on channel=5 note=68 velocity=0 time=0
EXTRACT: note_on channel=10 note=68 velocity=0 time=0
EXTRACT: note_on channel=0 note=66 velocity=110 time=0.006696425000000001
EXTRACT: note_on channel=1 note=66 velocity=110 time=0
EXTRACT: note_on channel=9 note=70 velocity=75 time=0
EXTRACT: note_on channel=9 note=41 velocity=75 time=0
EXTRACT: note_on channel=9 note=47 velocity=75 time=0
EXTRACT: note_on channel=5 note=66 velocity=90 time=0
EXTRACT: note_on channel=10 note=66 velocity=90 time=0
EXTRACT: note_on channel=2 note=44 velocity=0 time=0.1339285
EXTRACT: note_on channel=6 note=44 velocity=0 time=0
EXTRACT: note_on channel=0 note=66 velocity=0 time=0.127232075
EXTRACT: note_on channel=1 note=66 velocity=0 time=0
EXTRACT: note_on channel=9 note=70 velocity=0 time=0
EXTRACT: note_on channel=9 note=41 velocity=0 time=0
EXTRACT: note_on channel=9 note=47 velocity=0 time=0
EXTRACT: note_on channel=5 note=66 velocity=0 time=0
EXTRACT: note_on channel=10 note=66 velocity=0 time=0
EXTRACT: note_on channel=0 note=68 velocity=110 time=0.006696425000000001
EXTRACT: note_on channel=1 note=61 velocity=110 time=0
EXTRACT: note_on channel=1 note=66 velocity=110 time=0
EXTRACT: note_on channel=1 note=68 velocity=110 time=0
EXTRACT: note_on channel=2 note=49 velocity=110 time=0
EXTRACT: note_on channel=9 note=70 velocity=75 time=0
EXTRACT: note_on channel=9 note=41 velocity=75 time=0
EXTRACT: note_on channel=9 note=47 velocity=75 time=0
EXTRACT: note_on channel=9 note=41 velocity=127 time=0
EXTRACT: note_on channel=9 note=47 velocity=127 time=0
EXTRACT: note_on channel=5 note=61 velocity=90 time=0
EXTRACT: note_on channel=5 note=66 velocity=90 time=0
EXTRACT: note_on channel=5 note=68 velocity=90 time=0
EXTRACT: note_on channel=10 note=61 velocity=90 time=0
EXTRACT: note_on channel=10 note=66 velocity=90 time=0
EXTRACT: note_on channel=10 note=68 velocity=90 time=0
EXTRACT: note_on channel=6 note=49 velocity=90 time=0
EXTRACT: note_on channel=9 note=70 velocity=0 time=0.261160575
EXTRACT: note_on channel=9 note=41 velocity=0 time=0
EXTRACT: note_on channel=9 note=47 velocity=0 time=0
EXTRACT: note_on channel=9 note=41 velocity=0 time=0
EXTRACT: note_on channel=9 note=47 velocity=0 time=0
EXTRACT: note_on channel=9 note=70 velocity=75 time=0.006696425000000001
EXTRACT: note_on channel=9 note=41 velocity=75 time=0
EXTRACT: note_on channel=9 note=47 velocity=75 time=0
EXTRACT: note_on channel=9 note=70 velocity=0 time=0.127232075
EXTRACT: note_on channel=9 note=41 velocity=0 time=0
EXTRACT: note_on channel=9 note=47 velocity=0 time=0
EXTRACT: note_on channel=9 note=70 velocity=75 time=0.006696425000000001
EXTRACT: note_on channel=9 note=41 velocity=75 time=0
EXTRACT: note_on channel=9 note=47 velocity=75 time=0
EXTRACT: note_on channel=0 note=68 velocity=0 time=0.04464283333333333
EXTRACT: note_on channel=9 note=41 velocity=127 time=0.08928566666666667
EXTRACT: note_on channel=9 note=47 velocity=127 time=0
EXTRACT: note_on channel=9 note=70 velocity=0 time=0.127232075
EXTRACT: note_on channel=9 note=41 velocity=0 time=0
EXTRACT: note_on channel=9 note=47 velocity=0 time=0
EXTRACT: note_on channel=9 note=70 velocity=75 time=0.006696425000000001
EXTRACT: note_on channel=9 note=41 velocity=75 time=0
EXTRACT: note_on channel=9 note=47 velocity=75 time=0
EXTRACT: note_on channel=9 note=70 velocity=0 time=0.127232075
EXTRACT: note_on channel=9 note=41 velocity=0 time=0
EXTRACT: note_on channel=9 note=47 velocity=0 time=0
EXTRACT: note_on channel=9 note=41 velocity=0 time=0
EXTRACT: note_on channel=9 note=47 velocity=0 time=0
EXTRACT: note_on channel=9 note=70 velocity=75 time=0.006696425000000001
EXTRACT: note_on channel=9 note=41 velocity=75 time=0
EXTRACT: note_on channel=9 note=47 velocity=75 time=0
EXTRACT: note_on channel=1 note=61 velocity=0 time=0.1339285
EXTRACT: note_on channel=1 note=66 velocity=0 time=0
EXTRACT: note_on channel=1 note=68 velocity=0 time=0
EXTRACT: note_on channel=2 note=49 velocity=0 time=0
EXTRACT: note_on channel=5 note=61 velocity=0 time=0
EXTRACT: note_on channel=5 note=66 velocity=0 time=0
EXTRACT: note_on channel=5 note=68 velocity=0 time=0
EXTRACT: note_on channel=10 note=61 velocity=0 time=0
EXTRACT: note_on channel=10 note=66 velocity=0 time=0
EXTRACT: note_on channel=10 note=68 velocity=0 time=0
EXTRACT: note_on channel=6 note=49 velocity=0 time=0
EXTRACT: note_on channel=9 note=70 velocity=0 time=0.127232075
EXTRACT: note_on channel=9 note=41 velocity=0 time=0
EXTRACT: note_on channel=9 note=47 velocity=0 time=0
EXTRACT: note_on channel=0 note=70 velocity=110 time=0.006696425000000001
EXTRACT: note_on channel=1 note=61 velocity=110 time=0
EXTRACT: note_on channel=1 note=66 velocity=110 time=0
EXTRACT: note_on channel=1 note=70 velocity=110 time=0
EXTRACT: note_on channel=2 note=42 velocity=110 time=0
EXTRACT: note_on channel=9 note=70 velocity=75 time=0
EXTRACT: note_on channel=9 note=41 velocity=75 time=0
EXTRACT: note_on channel=9 note=47 velocity=75 time=0
EXTRACT: note_on channel=9 note=41 velocity=127 time=0
EXTRACT: note_on channel=9 note=47 velocity=127 time=0
EXTRACT: note_on channel=5 note=61 velocity=90 time=0
EXTRACT: note_on channel=5 note=66 velocity=90 time=0
EXTRACT: note_on channel=5 note=70 velocity=90 time=0
EXTRACT: note_on channel=10 note=61 velocity=90 time=0
EXTRACT: note_on channel=10 note=66 velocity=90 time=0
EXTRACT: note_on channel=10 note=70 velocity=90 time=0
EXTRACT: note_on channel=6 note=42 velocity=90 time=0
EXTRACT: note_on channel=0 note=70 velocity=0 time=0.261160575
EXTRACT: note_on channel=1 note=61 velocity=0 time=0
EXTRACT: note_on channel=1 note=66 velocity=0 time=0
EXTRACT: note_on channel=1 note=70 velocity=0 time=0
EXTRACT: note_on channel=9 note=70 velocity=0 time=0
EXTRACT: note_on channel=9 note=41 velocity=0 time=0
EXTRACT: note_on channel=9 note=47 velocity=0 time=0
EXTRACT: note_on channel=9 note=41 velocity=0 time=0
EXTRACT: note_on channel=9 note=47 velocity=0 time=0
EXTRACT: note_on channel=5 note=61 velocity=0 time=0
EXTRACT: note_on channel=5 note=66 velocity=0 time=0
EXTRACT: note_on channel=5 note=70 velocity=0 time=0
EXTRACT: note_on channel=10 note=61 velocity=0 time=0
EXTRACT: note_on channel=10 note=66 velocity=0 time=0
EXTRACT: note_on channel=10 note=70 velocity=0 time=0
EXTRACT: note_on channel=0 note=70 velocity=110 time=0.006696425000000001
EXTRACT: note_on channel=1 note=70 velocity=110 time=0
EXTRACT: note_on channel=9 note=70 velocity=75 time=0
EXTRACT: note_on channel=9 note=41 velocity=75 time=0
EXTRACT: note_on channel=9 note=47 velocity=75 time=0
EXTRACT: note_on channel=5 note=70 velocity=90 time=0
EXTRACT: note_on channel=10 note=70 velocity=90 time=0
EXTRACT: note_on channel=9 note=70 velocity=0 time=0.127232075
EXTRACT: note_on channel=9 note=41 velocity=0 time=0
EXTRACT: note_on channel=9 note=47 velocity=0 time=0
EXTRACT: note_on channel=9 note=70 velocity=75 time=0.006696425000000001
EXTRACT: note_on channel=9 note=41 velocity=75 time=0
EXTRACT: note_on channel=9 note=47 velocity=75 time=0
EXTRACT: note_on channel=0 note=70 velocity=0 time=0.127232075
EXTRACT: note_on channel=1 note=70 velocity=0 time=0
EXTRACT: note_on channel=5 note=70 velocity=0 time=0
EXTRACT: note_on channel=10 note=70 velocity=0 time=0
EXTRACT: note_on channel=0 note=70 velocity=110 time=0.006696425000000001
EXTRACT: note_on channel=1 note=70 velocity=110 time=0
EXTRACT: note_on channel=9 note=41 velocity=127 time=0
EXTRACT: note_on channel=9 note=47 velocity=127 time=0
EXTRACT: note_on channel=5 note=70 velocity=90 time=0
EXTRACT: note_on channel=10 note=70 velocity=90 time=0
EXTRACT: note_on channel=9 note=70 velocity=0 time=0.127232075
EXTRACT: note_on channel=9 note=41 velocity=0 time=0
EXTRACT: note_on channel=9 note=47 velocity=0 time=0
EXTRACT: note_on channel=9 note=70 velocity=75 time=0.006696425000000001
EXTRACT: note_on channel=9 note=41 velocity=75 time=0
EXTRACT: note_on channel=9 note=47 velocity=75 time=0
EXTRACT: note_on channel=0 note=70 velocity=0 time=0.127232075
EXTRACT: note_on channel=1 note=70 velocity=0 time=0
EXTRACT: note_on channel=9 note=70 velocity=0 time=0
EXTRACT: note_on channel=9 note=41 velocity=0 time=0
EXTRACT: note_on channel=9 note=47 velocity=0 time=0
EXTRACT: note_on channel=9 note=41 velocity=0 time=0
EXTRACT: note_on channel=9 note=47 velocity=0 time=0
EXTRACT: note_on channel=5 note=70 velocity=0 time=0
EXTRACT: note_on channel=10 note=70 velocity=0 time=0
EXTRACT: note_on channel=0 note=70 velocity=110 time=0.006696425000000001
EXTRACT: note_on channel=1 note=70 velocity=110 time=0
EXTRACT: note_on channel=9 note=70 velocity=75 time=0
EXTRACT: note_on channel=9 note=41 velocity=75 time=0
EXTRACT: note_on channel=9 note=47 velocity=75 time=0
EXTRACT: note_on channel=5 note=70 velocity=90 time=0
EXTRACT: note_on channel=10 note=70 velocity=90 time=0
EXTRACT: note_on channel=0 note=70 velocity=0 time=0.127232075
EXTRACT: note_on channel=1 note=70 velocity=0 time=0
EXTRACT: note_on channel=5 note=70 velocity=0 time=0
EXTRACT: note_on channel=10 note=70 velocity=0 time=0
EXTRACT: note_on channel=0 note=71 velocity=110 time=0.006696425000000001
EXTRACT: note_on channel=1 note=71 velocity=110 time=0
EXTRACT: note_on channel=2 note=42 velocity=0 time=0
EXTRACT: note_on channel=5 note=71 velocity=90 time=0
EXTRACT: note_on channel=10 note=71 velocity=90 time=0
EXTRACT: note_on channel=6 note=42 velocity=0 time=0
EXTRACT: note_on channel=9 note=70 velocity=0 time=0.127232075
EXTRACT: note_on channel=9 note=41 velocity=0 time=0
EXTRACT: note_on channel=9 note=47 velocity=0 time=0
EXTRACT: note_on channel=2 note=42 velocity=110 time=0.006696425000000001
EXTRACT: note_on channel=9 note=70 velocity=75 time=0
EXTRACT: note_on channel=9 note=41 velocity=75 time=0
EXTRACT: note_on channel=9 note=47 velocity=75 time=0
EXTRACT: note_on channel=9 note=41 velocity=127 time=0
EXTRACT: note_on channel=9 note=47 velocity=127 time=0
EXTRACT: note_on channel=6 note=42 velocity=90 time=0
EXTRACT: note_on channel=0 note=71 velocity=0 time=0.261160575
EXTRACT: note_on channel=1 note=71 velocity=0 time=0
EXTRACT: note_on channel=9 note=70 velocity=0 time=0
EXTRACT: note_on channel=9 note=41 velocity=0 time=0
EXTRACT: note_on channel=9 note=47 velocity=0 time=0
EXTRACT: note_on channel=9 note=41 velocity=0 time=0
EXTRACT: note_on channel=9 note=47 velocity=0 time=0
EXTRACT: note_on channel=5 note=71 velocity=0 time=0
EXTRACT: note_on channel=10 note=71 velocity=0 time=0
EXTRACT: note_on channel=0 note=71 velocity=110 time=0.006696425000000001
EXTRACT: note_on channel=1 note=71 velocity=110 time=0
EXTRACT: note_on channel=9 note=70 velocity=75 time=0
EXTRACT: note_on channel=9 note=41 velocity=75 time=0
EXTRACT: note_on channel=9 note=47 velocity=75 time=0
EXTRACT: note_on channel=5 note=71 velocity=90 time=0
EXTRACT: note_on channel=10 note=71 velocity=90 time=0
EXTRACT: note_on channel=9 note=70 velocity=0 time=0.127232075
EXTRACT: note_on channel=9 note=41 velocity=0 time=0
EXTRACT: note_on channel=9 note=47 velocity=0 time=0
EXTRACT: note_on channel=9 note=70 velocity=75 time=0.006696425000000001
EXTRACT: note_on channel=9 note=41 velocity=75 time=0
EXTRACT: note_on channel=9 note=47 velocity=75 time=0
EXTRACT: note_on channel=0 note=71 velocity=0 time=0.127232075
EXTRACT: note_on channel=1 note=71 velocity=0 time=0
EXTRACT: note_on channel=5 note=71 velocity=0 time=0
EXTRACT: note_on channel=10 note=71 velocity=0 time=0
EXTRACT: note_on channel=0 note=71 velocity=110 time=0.006696425000000001
EXTRACT: note_on channel=1 note=71 velocity=110 time=0
EXTRACT: note_on channel=9 note=41 velocity=127 time=0
EXTRACT: note_on channel=9 note=47 velocity=127 time=0
EXTRACT: note_on channel=5 note=71 velocity=90 time=0
EXTRACT: note_on channel=10 note=71 velocity=90 time=0
EXTRACT: note_on channel=0 note=71 velocity=0 time=0.127232075
EXTRACT: note_on channel=1 note=71 velocity=0 time=0
EXTRACT: note_on channel=9 note=70 velocity=0 time=0
EXTRACT: note_on channel=9 note=41 velocity=0 time=0
EXTRACT: note_on channel=9 note=47 velocity=0 time=0
EXTRACT: note_on channel=5 note=71 velocity=0 time=0
EXTRACT: note_on channel=10 note=71 velocity=0 time=0
EXTRACT: note_on channel=0 note=70 velocity=110 time=0.006696425000000001
EXTRACT: note_on channel=1 note=70 velocity=110 time=0
EXTRACT: note_on channel=9 note=70 velocity=75 time=0
EXTRACT: note_on channel=9 note=41 velocity=75 time=0
EXTRACT: note_on channel=9 note=47 velocity=75 time=0
EXTRACT: note_on channel=5 note=70 velocity=90 time=0
EXTRACT: note_on channel=10 note=70 velocity=90 time=0
EXTRACT: note_on channel=9 note=70 velocity=0 time=0.127232075
EXTRACT: note_on channel=9 note=41 velocity=0 time=0
EXTRACT: note_on channel=9 note=47 velocity=0 time=0
EXTRACT: note_on channel=9 note=41 velocity=0 time=0
EXTRACT: note_on channel=9 note=47 velocity=0 time=0
EXTRACT: note_on channel=9 note=70 velocity=75 time=0.006696425000000001
EXTRACT: note_on channel=9 note=41 velocity=75 time=0
EXTRACT: note_on channel=9 note=47 velocity=75 time=0
EXTRACT: note_on channel=0 note=70 velocity=0 time=0.127232075
EXTRACT: note_on channel=1 note=70 velocity=0 time=0
EXTRACT: note_on channel=5 note=70 velocity=0 time=0
EXTRACT: note_on channel=10 note=70 velocity=0 time=0
EXTRACT: note_on channel=0 note=70 velocity=110 time=0.006696425000000001
EXTRACT: note_on channel=1 note=59 velocity=110 time=0
EXTRACT: note_on channel=1 note=63 velocity=110 time=0
EXTRACT: note_on channel=1 note=70 velocity=110 time=0
EXTRACT: note_on channel=2 note=42 velocity=0 time=0
EXTRACT: note_on channel=5 note=59 velocity=90 time=0
EXTRACT: note_on channel=5 note=63 velocity=90 time=0
EXTRACT: note_on channel=5 note=70 velocity=90 time=0
EXTRACT: note_on channel=10 note=59 velocity=90 time=0
EXTRACT: note_on channel=10 note=63 velocity=90 time=0
EXTRACT: note_on channel=10 note=70 velocity=90 time=0
EXTRACT: note_on channel=6 note=42 velocity=0 time=0
EXTRACT: note_on channel=9 note=70 velocity=0 time=0.127232075
EXTRACT: note_on channel=9 note=41 velocity=0 time=0
EXTRACT: note_on channel=9 note=47 velocity=0 time=0
EXTRACT: note_on channel=2 note=44 velocity=110 time=0.006696425000000001
EXTRACT: note_on channel=9 note=70 velocity=75 time=0
EXTRACT: note_on channel=9 note=41 velocity=75 time=0
EXTRACT: note_on channel=9 note=47 velocity=75 time=0
EXTRACT: note_on channel=9 note=41 velocity=127 time=0
EXTRACT: note_on channel=9 note=47 velocity=127 time=0
EXTRACT: note_on channel=6 note=44 velocity=90 time=0
EXTRACT: note_on channel=0 note=70 velocity=0 time=0.127232075
EXTRACT: note_on channel=1 note=59 velocity=0 time=0
EXTRACT: note_on channel=1 note=63 velocity=0 time=0
EXTRACT: note_on channel=1 note=70 velocity=0 time=0
EXTRACT: note_on channel=5 note=59 velocity=0 time=0
EXTRACT: note_on channel=5 note=63 velocity=0 time=0
EXTRACT: note_on channel=5 note=70 velocity=0 time=0
EXTRACT: note_on channel=10 note=59 velocity=0 time=0
EXTRACT: note_on channel=10 note=63 velocity=0 time=0
EXTRACT: note_on channel=10 note=70 velocity=0 time=0
EXTRACT: note_on channel=0 note=68 velocity=110 time=0.006696425000000001
EXTRACT: note_on channel=1 note=68 velocity=110 time=0
EXTRACT: note_on channel=5 note=68 velocity=90 time=0
EXTRACT: note_on channel=10 note=68 velocity=90 time=0
EXTRACT: note_on channel=9 note=70 velocity=0 time=0.127232075
EXTRACT: note_on channel=9 note=41 velocity=0 time=0
EXTRACT: note_on channel=9 note=47 velocity=0 time=0
EXTRACT: note_on channel=9 note=41 velocity=0 time=0
EXTRACT: note_on channel=9 note=47 velocity=0 time=0
EXTRACT: note_on channel=9 note=70 velocity=75 time=0.006696425000000001
EXTRACT: note_on channel=9 note=41 velocity=75 time=0
EXTRACT: note_on channel=9 note=47 velocity=75 time=0
EXTRACT: note_on channel=0 note=68 velocity=0 time=0.127232075
EXTRACT: note_on channel=1 note=68 velocity=0 time=0
EXTRACT: note_on channel=9 note=70 velocity=0 time=0
EXTRACT: note_on channel=9 note=41 velocity=0 time=0
EXTRACT: note_on channel=9 note=47 velocity=0 time=0
EXTRACT: note_on channel=5 note=68 velocity=0 time=0
EXTRACT: note_on channel=10 note=68 velocity=0 time=0
EXTRACT: note_on channel=0 note=68 velocity=110 time=0.006696425000000001
EXTRACT: note_on channel=1 note=68 velocity=110 time=0
EXTRACT: note_on channel=9 note=70 velocity=75 time=0
EXTRACT: note_on channel=9 note=41 velocity=75 time=0
EXTRACT: note_on channel=9 note=47 velocity=75 time=0
EXTRACT: note_on channel=5 note=68 velocity=90 time=0
EXTRACT: note_on channel=10 note=68 velocity=90 time=0
EXTRACT: note_on channel=9 note=41 velocity=127 time=0.1339285
EXTRACT: note_on channel=9 note=47 velocity=127 time=0
EXTRACT: note_on channel=0 note=68 velocity=0 time=0.127232075
EXTRACT: note_on channel=1 note=68 velocity=0 time=0
EXTRACT: note_on channel=9 note=70 velocity=0 time=0
EXTRACT: note_on channel=9 note=41 velocity=0 time=0
EXTRACT: note_on channel=9 note=47 velocity=0 time=0
EXTRACT: note_on channel=5 note=68 velocity=0 time=0
EXTRACT: note_on channel=10 note=68 velocity=0 time=0
EXTRACT: note_on channel=0 note=70 velocity=110 time=0.006696425000000001
EXTRACT: note_on channel=1 note=70 velocity=110 time=0
EXTRACT: note_on channel=9 note=70 velocity=75 time=0
EXTRACT: note_on channel=9 note=41 velocity=75 time=0
EXTRACT: note_on channel=9 note=47 velocity=75 time=0
EXTRACT: note_on channel=5 note=70 velocity=90 time=0
EXTRACT: note_on channel=10 note=70 velocity=90 time=0
EXTRACT: note_on channel=9 note=70 velocity=0 time=0.127232075
EXTRACT: note_on channel=9 note=41 velocity=0 time=0
EXTRACT: note_on channel=9 note=47 velocity=0 time=0
EXTRACT: note_on channel=9 note=41 velocity=0 time=0
EXTRACT: note_on channel=9 note=47 velocity=0 time=0
EXTRACT: note_on channel=9 note=70 velocity=75 time=0.006696425000000001
EXTRACT: note_on channel=9 note=41 velocity=75 time=0
EXTRACT: note_on channel=9 note=47 velocity=75 time=0
EXTRACT: note_on channel=0 note=70 velocity=0 time=0.127232075
EXTRACT: note_on channel=1 note=70 velocity=0 time=0
EXTRACT: note_on channel=5 note=70 velocity=0 time=0
EXTRACT: note_on channel=10 note=70 velocity=0 time=0
EXTRACT: note_on channel=0 note=68 velocity=110 time=0.006696425000000001
EXTRACT: note_on channel=1 note=61 velocity=110 time=0
EXTRACT: note_on channel=1 note=66 velocity=110 time=0
EXTRACT: note_on channel=1 note=68 velocity=110 time=0
EXTRACT: note_on channel=2 note=44 velocity=0 time=0
EXTRACT: note_on channel=5 note=61 velocity=90 time=0
EXTRACT: note_on channel=5 note=66 velocity=90 time=0
EXTRACT: note_on channel=5 note=68 velocity=90 time=0
EXTRACT: note_on channel=10 note=61 velocity=90 time=0
EXTRACT: note_on channel=10 note=66 velocity=90 time=0
EXTRACT: note_on channel=10 note=68 velocity=90 time=0
EXTRACT: note_on channel=6 note=44 velocity=0 time=0
EXTRACT: note_on channel=9 note=70 velocity=0 time=0.127232075
EXTRACT: note_on channel=9 note=41 velocity=0 time=0
EXTRACT: note_on channel=9 note=47 velocity=0 time=0
EXTRACT: note_on channel=2 note=49 velocity=110 time=0.006696425000000001
EXTRACT: note_on channel=9 note=70 velocity=75 time=0
EXTRACT: note_on channel=9 note=41 velocity=75 time=0
EXTRACT: note_on channel=9 note=47 velocity=75 time=0
EXTRACT: note_on channel=9 note=41 velocity=127 time=0
EXTRACT: note_on channel=9 note=47 velocity=127 time=0
EXTRACT: note_on channel=6 note=49 velocity=90 time=0
EXTRACT: note_on channel=9 note=70 velocity=0 time=0.261160575
EXTRACT: note_on channel=9 note=41 velocity=0 time=0
EXTRACT: note_on channel=9 note=47 velocity=0 time=0
EXTRACT: note_on channel=9 note=41 velocity=0 time=0
EXTRACT: note_on channel=9 note=47 velocity=0 time=0
EXTRACT: note_on channel=9 note=70 velocity=75 time=0.006696425000000001
EXTRACT: note_on channel=9 note=41 velocity=75 time=0
EXTRACT: note_on channel=9 note=47 velocity=75 time=0
EXTRACT: note_on channel=9 note=70 velocity=0 time=0.127232075
EXTRACT: note_on channel=9 note=41 velocity=0 time=0
EXTRACT: note_on channel=9 note=47 velocity=0 time=0
EXTRACT: note_on channel=9 note=70 velocity=75 time=0.006696425000000001
EXTRACT: note_on channel=9 note=41 velocity=75 time=0
EXTRACT: note_on channel=9 note=47 velocity=75 time=0
EXTRACT: note_on channel=0 note=68 velocity=0 time=0.04464283333333333
EXTRACT: note_on channel=9 note=41 velocity=127 time=0.08928566666666667
EXTRACT: note_on channel=9 note=47 velocity=127 time=0
EXTRACT: note_on channel=9 note=70 velocity=0 time=0.127232075
EXTRACT: note_on channel=9 note=41 velocity=0 time=0
EXTRACT: note_on channel=9 note=47 velocity=0 time=0
EXTRACT: note_on channel=9 note=70 velocity=75 time=0.006696425000000001
EXTRACT: note_on channel=9 note=41 velocity=75 time=0
EXTRACT: note_on channel=9 note=47 velocity=75 time=0
EXTRACT: note_on channel=9 note=70 velocity=0 time=0.127232075
EXTRACT: note_on channel=9 note=41 velocity=0 time=0
EXTRACT: note_on channel=9 note=47 velocity=0 time=0
EXTRACT: note_on channel=9 note=41 velocity=0 time=0
EXTRACT: note_on channel=9 note=47 velocity=0 time=0
EXTRACT: note_on channel=9 note=70 velocity=75 time=0.006696425000000001
EXTRACT: note_on channel=9 note=41 velocity=75 time=0
EXTRACT: note_on channel=9 note=47 velocity=75 time=0
EXTRACT: note_on channel=1 note=61 velocity=0 time=0.1339285
EXTRACT: note_on channel=1 note=66 velocity=0 time=0
EXTRACT: note_on channel=1 note=68 velocity=0 time=0
EXTRACT: note_on channel=2 note=49 velocity=0 time=0
EXTRACT: note_on channel=5 note=61 velocity=0 time=0
EXTRACT: note_on channel=5 note=66 velocity=0 time=0
EXTRACT: note_on channel=5 note=68 velocity=0 time=0
EXTRACT: note_on channel=10 note=61 velocity=0 time=0
EXTRACT: note_on channel=10 note=66 velocity=0 time=0
EXTRACT: note_on channel=10 note=68 velocity=0 time=0
EXTRACT: note_on channel=6 note=49 velocity=0 time=0
EXTRACT: note_on channel=9 note=70 velocity=0 time=0.127232075
EXTRACT: note_on channel=9 note=41 velocity=0 time=0
EXTRACT: note_on channel=9 note=47 velocity=0 time=0
EXTRACT: note_on channel=0 note=70 velocity=110 time=0.006696425000000001
EXTRACT: note_on channel=1 note=61 velocity=110 time=0
EXTRACT: note_on channel=1 note=66 velocity=110 time=0
EXTRACT: note_on channel=1 note=70 velocity=110 time=0
EXTRACT: note_on channel=2 note=42 velocity=110 time=0
EXTRACT: note_on channel=9 note=70 velocity=75 time=0
EXTRACT: note_on channel=9 note=41 velocity=75 time=0
EXTRACT: note_on channel=9 note=47 velocity=75 time=0
EXTRACT: note_on channel=9 note=41 velocity=127 time=0
EXTRACT: note_on channel=9 note=47 velocity=127 time=0
EXTRACT: note_on channel=5 note=61 velocity=90 time=0
EXTRACT: note_on channel=5 note=66 velocity=90 time=0
EXTRACT: note_on channel=5 note=70 velocity=90 time=0
EXTRACT: note_on channel=10 note=61 velocity=90 time=0
EXTRACT: note_on channel=10 note=66 velocity=90 time=0
EXTRACT: note_on channel=10 note=70 velocity=90 time=0
EXTRACT: note_on channel=6 note=42 velocity=90 time=0
EXTRACT: note_on channel=0 note=70 velocity=0 time=0.127232075
EXTRACT: note_on channel=1 note=61 velocity=0 time=0
EXTRACT: note_on channel=1 note=66 velocity=0 time=0
EXTRACT: note_on channel=1 note=70 velocity=0 time=0
EXTRACT: note_on channel=5 note=61 velocity=0 time=0
EXTRACT: note_on channel=5 note=66 velocity=0 time=0
EXTRACT: note_on channel=5 note=70 velocity=0 time=0
EXTRACT: note_on channel=10 note=61 velocity=0 time=0
EXTRACT: note_on channel=10 note=66 velocity=0 time=0
EXTRACT: note_on channel=10 note=70 velocity=0 time=0
EXTRACT: note_on channel=0 note=70 velocity=110 time=0.006696425000000001
EXTRACT: note_on channel=1 note=70 velocity=110 time=0
EXTRACT: note_on channel=5 note=70 velocity=90 time=0
EXTRACT: note_on channel=10 note=70 velocity=90 time=0
EXTRACT: note_on channel=9 note=70 velocity=0 time=0.127232075
EXTRACT: note_on channel=9 note=41 velocity=0 time=0
EXTRACT: note_on channel=9 note=47 velocity=0 time=0
EXTRACT: note_on channel=9 note=41 velocity=0 time=0
EXTRACT: note_on channel=9 note=47 velocity=0 time=0
EXTRACT: note_on channel=9 note=70 velocity=75 time=0.006696425000000001
EXTRACT: note_on channel=9 note=41 velocity=75 time=0
EXTRACT: note_on channel=9 note=47 velocity=75 time=0
EXTRACT: note_on channel=0 note=70 velocity=0 time=0.127232075
EXTRACT: note_on channel=1 note=70 velocity=0 time=0
EXTRACT: note_on channel=9 note=70 velocity=0 time=0
EXTRACT: note_on channel=9 note=41 velocity=0 time=0
EXTRACT: note_on channel=9 note=47 velocity=0 time=0
EXTRACT: note_on channel=5 note=70 velocity=0 time=0
EXTRACT: note_on channel=10 note=70 velocity=0 time=0
EXTRACT: note_on channel=0 note=70 velocity=110 time=0.006696425000000001
EXTRACT: note_on channel=1 note=70 velocity=110 time=0
EXTRACT: note_on channel=9 note=70 velocity=75 time=0
EXTRACT: note_on channel=9 note=41 velocity=75 time=0
EXTRACT: note_on channel=9 note=47 velocity=75 time=0
EXTRACT: note_on channel=5 note=70 velocity=90 time=0
EXTRACT: note_on channel=10 note=70 velocity=90 time=0
EXTRACT: note_on channel=9 note=41 velocity=127 time=0.1339285
EXTRACT: note_on channel=9 note=47 velocity=127 time=0
EXTRACT: note_on channel=0 note=70 velocity=0 time=0.127232075
EXTRACT: note_on channel=1 note=70 velocity=0 time=0
EXTRACT: note_on channel=9 note=70 velocity=0 time=0
EXTRACT: note_on channel=9 note=41 velocity=0 time=0
EXTRACT: note_on channel=9 note=47 velocity=0 time=0
EXTRACT: note_on channel=5 note=70 velocity=0 time=0
EXTRACT: note_on channel=10 note=70 velocity=0 time=0
EXTRACT: note_on channel=0 note=70 velocity=110 time=0.006696425000000001
EXTRACT: note_on channel=1 note=70 velocity=110 time=0
EXTRACT: note_on channel=9 note=70 velocity=75 time=0
EXTRACT: note_on channel=9 note=41 velocity=75 time=0
EXTRACT: note_on channel=9 note=47 velocity=75 time=0
EXTRACT: note_on channel=5 note=70 velocity=90 time=0
EXTRACT: note_on channel=10 note=70 velocity=90 time=0
EXTRACT: note_on channel=9 note=70 velocity=0 time=0.127232075
EXTRACT: note_on channel=9 note=41 velocity=0 time=0
EXTRACT: note_on channel=9 note=47 velocity=0 time=0
EXTRACT: note_on channel=9 note=41 velocity=0 time=0
EXTRACT: note_on channel=9 note=47 velocity=0 time=0
EXTRACT: note_on channel=9 note=70 velocity=75 time=0.006696425000000001
EXTRACT: note_on channel=9 note=41 velocity=75 time=0
EXTRACT: note_on channel=9 note=47 velocity=75 time=0
EXTRACT: note_on channel=0 note=70 velocity=0 time=0.127232075
EXTRACT: note_on channel=1 note=70 velocity=0 time=0
EXTRACT: note_on channel=5 note=70 velocity=0 time=0
EXTRACT: note_on channel=10 note=70 velocity=0 time=0
EXTRACT: note_on channel=0 note=71 velocity=110 time=0.006696425000000001
EXTRACT: note_on channel=1 note=71 velocity=110 time=0
EXTRACT: note_on channel=2 note=42 velocity=0 time=0
EXTRACT: note_on channel=5 note=71 velocity=90 time=0
EXTRACT: note_on channel=10 note=71 velocity=90 time=0
EXTRACT: note_on channel=6 note=42 velocity=0 time=0
EXTRACT: note_on channel=9 note=70 velocity=0 time=0.127232075
EXTRACT: note_on channel=9 note=41 velocity=0 time=0
EXTRACT: note_on channel=9 note=47 velocity=0 time=0
EXTRACT: note_on channel=2 note=42 velocity=110 time=0.006696425000000001
EXTRACT: note_on channel=9 note=70 velocity=75 time=0
EXTRACT: note_on channel=9 note=41 velocity=75 time=0
EXTRACT: note_on channel=9 note=47 velocity=75 time=0
EXTRACT: note_on channel=9 note=41 velocity=127 time=0
EXTRACT: note_on channel=9 note=47 velocity=127 time=0
EXTRACT: note_on channel=6 note=42 velocity=90 time=0
EXTRACT: note_on channel=0 note=71 velocity=0 time=0.261160575
EXTRACT: note_on channel=1 note=71 velocity=0 time=0
EXTRACT: note_on channel=9 note=70 velocity=0 time=0
EXTRACT: note_on channel=9 note=41 velocity=0 time=0
EXTRACT: note_on channel=9 note=47 velocity=0 time=0
EXTRACT: note_on channel=9 note=41 velocity=0 time=0
EXTRACT: note_on channel=9 note=47 velocity=0 time=0
EXTRACT: note_on channel=5 note=71 velocity=0 time=0
EXTRACT: note_on channel=10 note=71 velocity=0 time=0
EXTRACT: note_on channel=0 note=71 velocity=110 time=0.006696425000000001
EXTRACT: note_on channel=1 note=71 velocity=110 time=0
EXTRACT: note_on channel=9 note=70 velocity=75 time=0
EXTRACT: note_on channel=9 note=41 velocity=75 time=0
EXTRACT: note_on channel=9 note=47 velocity=75 time=0
EXTRACT: note_on channel=5 note=71 velocity=90 time=0
EXTRACT: note_on channel=10 note=71 velocity=90 time=0
EXTRACT: note_on channel=9 note=70 velocity=0 time=0.127232075
EXTRACT: note_on channel=9 note=41 velocity=0 time=0
EXTRACT: note_on channel=9 note=47 velocity=0 time=0
EXTRACT: note_on channel=9 note=70 velocity=75 time=0.006696425000000001
EXTRACT: note_on channel=9 note=41 velocity=75 time=0
EXTRACT: note_on channel=9 note=47 velocity=75 time=0
EXTRACT: note_on channel=0 note=71 velocity=0 time=0.127232075
EXTRACT: note_on channel=1 note=71 velocity=0 time=0
EXTRACT: note_on channel=5 note=71 velocity=0 time=0
EXTRACT: note_on channel=10 note=71 velocity=0 time=0
EXTRACT: note_on channel=0 note=71 velocity=110 time=0.006696425000000001
EXTRACT: note_on channel=1 note=71 velocity=110 time=0
EXTRACT: note_on channel=9 note=41 velocity=127 time=0
EXTRACT: note_on channel=9 note=47 velocity=127 time=0
EXTRACT: note_on channel=5 note=71 velocity=90 time=0
EXTRACT: note_on channel=10 note=71 velocity=90 time=0
EXTRACT: note_on channel=9 note=70 velocity=0 time=0.127232075
EXTRACT: note_on channel=9 note=41 velocity=0 time=0
EXTRACT: note_on channel=9 note=47 velocity=0 time=0
EXTRACT: note_on channel=9 note=70 velocity=75 time=0.006696425000000001
EXTRACT: note_on channel=9 note=41 velocity=75 time=0
EXTRACT: note_on channel=9 note=47 velocity=75 time=0
EXTRACT: note_on channel=0 note=71 velocity=0 time=0.127232075
EXTRACT: note_on channel=1 note=71 velocity=0 time=0
EXTRACT: note_on channel=9 note=70 velocity=0 time=0
EXTRACT: note_on channel=9 note=41 velocity=0 time=0
EXTRACT: note_on channel=9 note=47 velocity=0 time=0
EXTRACT: note_on channel=9 note=41 velocity=0 time=0
EXTRACT: note_on channel=9 note=47 velocity=0 time=0
EXTRACT: note_on channel=5 note=71 velocity=0 time=0
EXTRACT: note_on channel=10 note=71 velocity=0 time=0
EXTRACT: note_on channel=0 note=71 velocity=110 time=0.006696425000000001
EXTRACT: note_on channel=1 note=71 velocity=110 time=0
EXTRACT: note_on channel=9 note=70 velocity=75 time=0
EXTRACT: note_on channel=9 note=41 velocity=75 time=0
EXTRACT: note_on channel=9 note=47 velocity=75 time=0
EXTRACT: note_on channel=5 note=71 velocity=90 time=0
EXTRACT: note_on channel=10 note=71 velocity=90 time=0
EXTRACT: note_on channel=0 note=71 velocity=0 time=0.127232075
EXTRACT: note_on channel=1 note=71 velocity=0 time=0
EXTRACT: note_on channel=5 note=71 velocity=0 time=0
EXTRACT: note_on channel=10 note=71 velocity=0 time=0
EXTRACT: note_on channel=0 note=73 velocity=110 time=0.006696425000000001
EXTRACT: note_on channel=1 note=63 velocity=110 time=0
EXTRACT: note_on channel=1 note=66 velocity=110 time=0
EXTRACT: note_on channel=1 note=73 velocity=110 time=0
EXTRACT: note_on channel=2 note=42 velocity=0 time=0
EXTRACT: note_on channel=5 note=63 velocity=90 time=0
EXTRACT: note_on channel=5 note=66 velocity=90 time=0
EXTRACT: note_on channel=5 note=73 velocity=90 time=0
EXTRACT: note_on channel=10 note=63 velocity=90 time=0
EXTRACT: note_on channel=10 note=66 velocity=90 time=0
EXTRACT: note_on channel=10 note=73 velocity=90 time=0
EXTRACT: note_on channel=6 note=42 velocity=0 time=0
EXTRACT: note_on channel=9 note=70 velocity=0 time=0.127232075
EXTRACT: note_on channel=9 note=41 velocity=0 time=0
EXTRACT: note_on channel=9 note=47 velocity=0 time=0
EXTRACT: note_on channel=2 note=44 velocity=110 time=0.006696425000000001
EXTRACT: note_on channel=9 note=70 velocity=75 time=0
EXTRACT: note_on channel=9 note=41 velocity=75 time=0
EXTRACT: note_on channel=9 note=47 velocity=75 time=0
EXTRACT: note_on channel=9 note=41 velocity=127 time=0
EXTRACT: note_on channel=9 note=47 velocity=127 time=0
EXTRACT: note_on channel=6 note=44 velocity=90 time=0
EXTRACT: note_on channel=0 note=73 velocity=0 time=0.261160575
EXTRACT: note_on channel=1 note=63 velocity=0 time=0
EXTRACT: note_on channel=1 note=66 velocity=0 time=0
EXTRACT: note_on channel=1 note=73 velocity=0 time=0
EXTRACT: note_on channel=9 note=70 velocity=0 time=0
EXTRACT: note_on channel=9 note=41 velocity=0 time=0
EXTRACT: note_on channel=9 note=47 velocity=0 time=0
EXTRACT: note_on channel=9 note=41 velocity=0 time=0
EXTRACT: note_on channel=9 note=47 velocity=0 time=0
EXTRACT: note_on channel=5 note=63 velocity=0 time=0
EXTRACT: note_on channel=5 note=66 velocity=0 time=0
EXTRACT: note_on channel=5 note=73 velocity=0 time=0
EXTRACT: note_on channel=10 note=63 velocity=0 time=0
EXTRACT: note_on channel=10 note=66 velocity=0 time=0
EXTRACT: note_on channel=10 note=73 velocity=0 time=0
EXTRACT: note_on channel=0 note=73 velocity=110 time=0.006696425000000001
EXTRACT: note_on channel=1 note=73 velocity=110 time=0
EXTRACT: note_on channel=9 note=70 velocity=75 time=0
EXTRACT: note_on channel=9 note=41 velocity=75 time=0
EXTRACT: note_on channel=9 note=47 velocity=75 time=0
EXTRACT: note_on channel=5 note=73 velocity=90 time=0
EXTRACT: note_on channel=10 note=73 velocity=90 time=0
EXTRACT: note_on channel=9 note=70 velocity=0 time=0.127232075
EXTRACT: note_on channel=9 note=41 velocity=0 time=0
EXTRACT: note_on channel=9 note=47 velocity=0 time=0
EXTRACT: note_on channel=9 note=70 velocity=75 time=0.006696425000000001
EXTRACT: note_on channel=9 note=41 velocity=75 time=0
EXTRACT: note_on channel=9 note=47 velocity=75 time=0
EXTRACT: note_on channel=0 note=73 velocity=0 time=0.127232075
EXTRACT: note_on channel=1 note=73 velocity=0 time=0
EXTRACT: note_on channel=5 note=73 velocity=0 time=0
EXTRACT: note_on channel=10 note=73 velocity=0 time=0
EXTRACT: note_on channel=0 note=73 velocity=110 time=0.006696425000000001
EXTRACT: note_on channel=1 note=73 velocity=110 time=0
EXTRACT: note_on channel=9 note=41 velocity=127 time=0
EXTRACT: note_on channel=9 note=47 velocity=127 time=0
EXTRACT: note_on channel=5 note=73 velocity=90 time=0
EXTRACT: note_on channel=10 note=73 velocity=90 time=0
EXTRACT: note_on channel=0 note=73 velocity=0 time=0.127232075
EXTRACT: note_on channel=1 note=73 velocity=0 time=0
EXTRACT: note_on channel=9 note=70 velocity=0 time=0
EXTRACT: note_on channel=9 note=41 velocity=0 time=0
EXTRACT: note_on channel=9 note=47 velocity=0 time=0
EXTRACT: note_on channel=5 note=73 velocity=0 time=0
EXTRACT: note_on channel=10 note=73 velocity=0 time=0
EXTRACT: note_on channel=0 note=75 velocity=110 time=0.006696425000000001
EXTRACT: note_on channel=1 note=75 velocity=110 time=0
EXTRACT: note_on channel=9 note=70 velocity=75 time=0
EXTRACT: note_on channel=9 note=41 velocity=75 time=0
EXTRACT: note_on channel=9 note=47 velocity=75 time=0
EXTRACT: note_on channel=5 note=75 velocity=90 time=0
EXTRACT: note_on channel=10 note=75 velocity=90 time=0
EXTRACT: note_on channel=9 note=70 velocity=0 time=0.127232075
EXTRACT: note_on channel=9 note=41 velocity=0 time=0
EXTRACT: note_on channel=9 note=47 velocity=0 time=0
EXTRACT: note_on channel=9 note=41 velocity=0 time=0
EXTRACT: note_on channel=9 note=47 velocity=0 time=0
EXTRACT: note_on channel=9 note=70 velocity=75 time=0.006696425000000001
EXTRACT: note_on channel=9 note=41 velocity=75 time=0
EXTRACT: note_on channel=9 note=47 velocity=75 time=0
EXTRACT: note_on channel=2 note=44 velocity=0 time=0.1339285
EXTRACT: note_on channel=6 note=44 velocity=0 time=0
EXTRACT: note_on channel=0 note=75 velocity=0 time=0.127232075
EXTRACT: note_on channel=1 note=75 velocity=0 time=0
EXTRACT: note_on channel=9 note=70 velocity=0 time=0
EXTRACT: note_on channel=9 note=41 velocity=0 time=0
EXTRACT: note_on channel=9 note=47 velocity=0 time=0
EXTRACT: note_on channel=5 note=75 velocity=0 time=0
EXTRACT: note_on channel=10 note=75 velocity=0 time=0
EXTRACT: note_on channel=0 note=73 velocity=110 time=0.006696425000000001
EXTRACT: note_on channel=1 note=63 velocity=110 time=0
EXTRACT: note_on channel=1 note=66 velocity=110 time=0
EXTRACT: note_on channel=1 note=68 velocity=110 time=0
EXTRACT: note_on channel=1 note=73 velocity=110 time=0
EXTRACT: note_on channel=2 note=49 velocity=110 time=0
EXTRACT: note_on channel=9 note=70 velocity=75 time=0
EXTRACT: note_on channel=9 note=41 velocity=75 time=0
EXTRACT: note_on channel=9 note=47 velocity=75 time=0
EXTRACT: note_on channel=9 note=41 velocity=127 time=0
EXTRACT: note_on channel=9 note=47 velocity=127 time=0
EXTRACT: note_on channel=5 note=63 velocity=90 time=0
EXTRACT: note_on channel=5 note=66 velocity=90 time=0
EXTRACT: note_on channel=5 note=68 velocity=90 time=0
EXTRACT: note_on channel=5 note=73 velocity=90 time=0
EXTRACT: note_on channel=10 note=63 velocity=90 time=0
EXTRACT: note_on channel=10 note=66 velocity=90 time=0
EXTRACT: note_on channel=10 note=68 velocity=90 time=0
EXTRACT: note_on channel=10 note=73 velocity=90 time=0
EXTRACT: note_on channel=6 note=49 velocity=90 time=0
EXTRACT: note_on channel=9 note=70 velocity=0 time=0.261160575
EXTRACT: note_on channel=9 note=41 velocity=0 time=0
EXTRACT: note_on channel=9 note=47 velocity=0 time=0
EXTRACT: note_on channel=9 note=41 velocity=0 time=0
EXTRACT: note_on channel=9 note=47 velocity=0 time=0
EXTRACT: note_on channel=9 note=70 velocity=75 time=0.006696425000000001
EXTRACT: note_on channel=9 note=41 velocity=75 time=0
EXTRACT: note_on channel=9 note=47 velocity=75 time=0
EXTRACT: note_on channel=9 note=70 velocity=0 time=0.127232075
EXTRACT: note_on channel=9 note=41 velocity=0 time=0
EXTRACT: note_on channel=9 note=47 velocity=0 time=0
EXTRACT: note_on channel=9 note=70 velocity=75 time=0.006696425000000001
EXTRACT: note_on channel=9 note=41 velocity=75 time=0
EXTRACT: note_on channel=9 note=47 velocity=75 time=0
EXTRACT: note_on channel=0 note=73 velocity=0 time=0.04464283333333333
EXTRACT: note_on channel=9 note=41 velocity=127 time=0.08928566666666667
EXTRACT: note_on channel=9 note=47 velocity=127 time=0
EXTRACT: note_on channel=9 note=70 velocity=0 time=0.127232075
EXTRACT: note_on channel=9 note=41 velocity=0 time=0
EXTRACT: note_on channel=9 note=47 velocity=0 time=0
EXTRACT: note_on channel=9 note=70 velocity=75 time=0.006696425000000001
EXTRACT: note_on channel=9 note=41 velocity=75 time=0
EXTRACT: note_on channel=9 note=47 velocity=75 time=0
EXTRACT: note_on channel=9 note=70 velocity=0 time=0.127232075
EXTRACT: note_on channel=9 note=41 velocity=0 time=0
EXTRACT: note_on channel=9 note=47 velocity=0 time=0
EXTRACT: note_on channel=9 note=41 velocity=0 time=0
EXTRACT: note_on channel=9 note=47 velocity=0 time=0
EXTRACT: note_on channel=9 note=70 velocity=75 time=0.006696425000000001
EXTRACT: note_on channel=9 note=41 velocity=75 time=0
EXTRACT: note_on channel=9 note=47 velocity=75 time=0
EXTRACT: note_on channel=1 note=63 velocity=0 time=0.1339285
EXTRACT: note_on channel=1 note=66 velocity=0 time=0
EXTRACT: note_on channel=1 note=68 velocity=0 time=0
EXTRACT: note_on channel=1 note=73 velocity=0 time=0
EXTRACT: note_on channel=2 note=49 velocity=0 time=0
EXTRACT: note_on channel=5 note=63 velocity=0 time=0
EXTRACT: note_on channel=5 note=66 velocity=0 time=0
EXTRACT: note_on channel=5 note=68 velocity=0 time=0
EXTRACT: note_on channel=5 note=73 velocity=0 time=0
EXTRACT: note_on channel=10 note=63 velocity=0 time=0
EXTRACT: note_on channel=10 note=66 velocity=0 time=0
EXTRACT: note_on channel=10 note=68 velocity=0 time=0
EXTRACT: note_on channel=10 note=73 velocity=0 time=0
EXTRACT: note_on channel=6 note=49 velocity=0 time=0
EXTRACT: note_on channel=9 note=70 velocity=0 time=0.127232075
EXTRACT: note_on channel=9 note=41 velocity=0 time=0
EXTRACT: note_on channel=9 note=47 velocity=0 time=0
EXTRACT: note_on channel=0 note=70 velocity=110 time=0.006696425000000001
EXTRACT: note_on channel=1 note=61 velocity=110 time=0
EXTRACT: note_on channel=1 note=66 velocity=110 time=0
EXTRACT: note_on channel=1 note=70 velocity=110 time=0
EXTRACT: note_on channel=2 note=42 velocity=110 time=0
EXTRACT: note_on channel=9 note=70 velocity=75 time=0
EXTRACT: note_on channel=9 note=41 velocity=75 time=0
EXTRACT: note_on channel=9 note=47 velocity=75 time=0
EXTRACT: note_on channel=9 note=41 velocity=127 time=0
EXTRACT: note_on channel=9 note=47 velocity=127 time=0
EXTRACT: note_on channel=5 note=61 velocity=90 time=0
EXTRACT: note_on channel=5 note=66 velocity=90 time=0
EXTRACT: note_on channel=5 note=70 velocity=90 time=0
EXTRACT: note_on channel=10 note=61 velocity=90 time=0
EXTRACT: note_on channel=10 note=66 velocity=90 time=0
EXTRACT: note_on channel=10 note=70 velocity=90 time=0
EXTRACT: note_on channel=6 note=42 velocity=90 time=0
EXTRACT: note_on channel=0 note=70 velocity=0 time=0.261160575
EXTRACT: note_on channel=1 note=61 velocity=0 time=0
EXTRACT: note_on channel=1 note=66 velocity=0 time=0
EXTRACT: note_on channel=1 note=70 velocity=0 time=0
EXTRACT: note_on channel=9 note=70 velocity=0 time=0
EXTRACT: note_on channel=9 note=41 velocity=0 time=0
EXTRACT: note_on channel=9 note=47 velocity=0 time=0
EXTRACT: note_on channel=9 note=41 velocity=0 time=0
EXTRACT: note_on channel=9 note=47 velocity=0 time=0
EXTRACT: note_on channel=5 note=61 velocity=0 time=0
EXTRACT: note_on channel=5 note=66 velocity=0 time=0
EXTRACT: note_on channel=5 note=70 velocity=0 time=0
EXTRACT: note_on channel=10 note=61 velocity=0 time=0
EXTRACT: note_on channel=10 note=66 velocity=0 time=0
EXTRACT: note_on channel=10 note=70 velocity=0 time=0
EXTRACT: note_on channel=0 note=70 velocity=110 time=0.006696425000000001
EXTRACT: note_on channel=1 note=70 velocity=110 time=0
EXTRACT: note_on channel=9 note=70 velocity=75 time=0
EXTRACT: note_on channel=9 note=41 velocity=75 time=0
EXTRACT: note_on channel=9 note=47 velocity=75 time=0
EXTRACT: note_on channel=5 note=70 velocity=90 time=0
EXTRACT: note_on channel=10 note=70 velocity=90 time=0
EXTRACT: note_on channel=9 note=70 velocity=0 time=0.127232075
EXTRACT: note_on channel=9 note=41 velocity=0 time=0
EXTRACT: note_on channel=9 note=47 velocity=0 time=0
EXTRACT: note_on channel=9 note=70 velocity=75 time=0.006696425000000001
EXTRACT: note_on channel=9 note=41 velocity=75 time=0
EXTRACT: note_on channel=9 note=47 velocity=75 time=0
EXTRACT: note_on channel=0 note=70 velocity=0 time=0.127232075
EXTRACT: note_on channel=1 note=70 velocity=0 time=0
EXTRACT: note_on channel=5 note=70 velocity=0 time=0
EXTRACT: note_on channel=10 note=70 velocity=0 time=0
EXTRACT: note_on channel=0 note=70 velocity=110 time=0.006696425000000001
EXTRACT: note_on channel=1 note=70 velocity=110 time=0
EXTRACT: note_on channel=9 note=41 velocity=127 time=0
EXTRACT: note_on channel=9 note=47 velocity=127 time=0
EXTRACT: note_on channel=5 note=70 velocity=90 time=0
EXTRACT: note_on channel=10 note=70 velocity=90 time=0
EXTRACT: note_on channel=9 note=70 velocity=0 time=0.127232075
EXTRACT: note_on channel=9 note=41 velocity=0 time=0
EXTRACT: note_on channel=9 note=47 velocity=0 time=0
EXTRACT: note_on channel=9 note=70 velocity=75 time=0.006696425000000001
EXTRACT: note_on channel=9 note=41 velocity=75 time=0
EXTRACT: note_on channel=9 note=47 velocity=75 time=0
EXTRACT: note_on channel=0 note=70 velocity=0 time=0.127232075
EXTRACT: note_on channel=1 note=70 velocity=0 time=0
EXTRACT: note_on channel=9 note=70 velocity=0 time=0
EXTRACT: note_on channel=9 note=41 velocity=0 time=0
EXTRACT: note_on channel=9 note=47 velocity=0 time=0
EXTRACT: note_on channel=9 note=41 velocity=0 time=0
EXTRACT: note_on channel=9 note=47 velocity=0 time=0
EXTRACT: note_on channel=5 note=70 velocity=0 time=0
EXTRACT: note_on channel=10 note=70 velocity=0 time=0
EXTRACT: note_on channel=0 note=70 velocity=110 time=0.006696425000000001
EXTRACT: note_on channel=1 note=70 velocity=110 time=0
EXTRACT: note_on channel=9 note=70 velocity=75 time=0
EXTRACT: note_on channel=9 note=41 velocity=75 time=0
EXTRACT: note_on channel=9 note=47 velocity=75 time=0
EXTRACT: note_on channel=5 note=70 velocity=90 time=0
EXTRACT: note_on channel=10 note=70 velocity=90 time=0
EXTRACT: note_on channel=2 note=42 velocity=0 time=0.1339285
EXTRACT: note_on channel=6 note=42 velocity=0 time=0
EXTRACT: note_on channel=0 note=70 velocity=0 time=0.127232075
EXTRACT: note_on channel=1 note=70 velocity=0 time=0
EXTRACT: note_on channel=9 note=70 velocity=0 time=0
EXTRACT: note_on channel=9 note=41 velocity=0 time=0
EXTRACT: note_on channel=9 note=47 velocity=0 time=0
EXTRACT: note_on channel=5 note=70 velocity=0 time=0
EXTRACT: note_on channel=10 note=70 velocity=0 time=0
EXTRACT: note_on channel=0 note=71 velocity=110 time=0.006696425000000001
EXTRACT: note_on channel=1 note=61 velocity=110 time=0
EXTRACT: note_on channel=1 note=66 velocity=110 time=0
EXTRACT: note_on channel=1 note=71 velocity=110 time=0
EXTRACT: note_on channel=2 note=42 velocity=110 time=0
EXTRACT: note_on channel=9 note=70 velocity=75 time=0
EXTRACT: note_on channel=9 note=41 velocity=75 time=0
EXTRACT: note_on channel=9 note=47 velocity=75 time=0
EXTRACT: note_on channel=9 note=41 velocity=127 time=0
EXTRACT: note_on channel=9 note=47 velocity=127 time=0
EXTRACT: note_on channel=5 note=61 velocity=90 time=0
EXTRACT: note_on channel=5 note=66 velocity=90 time=0
EXTRACT: note_on channel=5 note=71 velocity=90 time=0
EXTRACT: note_on channel=10 note=61 velocity=90 time=0
EXTRACT: note_on channel=10 note=66 velocity=90 time=0
EXTRACT: note_on channel=10 note=71 velocity=90 time=0
EXTRACT: note_on channel=6 note=42 velocity=90 time=0
EXTRACT: note_on channel=0 note=71 velocity=0 time=0.261160575
EXTRACT: note_on channel=1 note=61 velocity=0 time=0
EXTRACT: note_on channel=1 note=66 velocity=0 time=0
EXTRACT: note_on channel=1 note=71 velocity=0 time=0
EXTRACT: note_on channel=9 note=70 velocity=0 time=0
EXTRACT: note_on channel=9 note=41 velocity=0 time=0
EXTRACT: note_on channel=9 note=47 velocity=0 time=0
EXTRACT: note_on channel=9 note=41 velocity=0 time=0
EXTRACT: note_on channel=9 note=47 velocity=0 time=0
EXTRACT: note_on channel=5 note=61 velocity=0 time=0
EXTRACT: note_on channel=5 note=66 velocity=0 time=0
EXTRACT: note_on channel=5 note=71 velocity=0 time=0
EXTRACT: note_on channel=10 note=61 velocity=0 time=0
EXTRACT: note_on channel=10 note=66 velocity=0 time=0
EXTRACT: note_on channel=10 note=71 velocity=0 time=0
EXTRACT: note_on channel=0 note=71 velocity=110 time=0.006696425000000001
EXTRACT: note_on channel=1 note=71 velocity=110 time=0
EXTRACT: note_on channel=9 note=70 velocity=75 time=0
EXTRACT: note_on channel=9 note=41 velocity=75 time=0
EXTRACT: note_on channel=9 note=47 velocity=75 time=0
EXTRACT: note_on channel=5 note=71 velocity=90 time=0
EXTRACT: note_on channel=10 note=71 velocity=90 time=0
EXTRACT: note_on channel=9 note=70 velocity=0 time=0.127232075
EXTRACT: note_on channel=9 note=41 velocity=0 time=0
EXTRACT: note_on channel=9 note=47 velocity=0 time=0
EXTRACT: note_on channel=9 note=70 velocity=75 time=0.006696425000000001
EXTRACT: note_on channel=9 note=41 velocity=75 time=0
EXTRACT: note_on channel=9 note=47 velocity=75 time=0
EXTRACT: note_on channel=0 note=71 velocity=0 time=0.127232075
EXTRACT: note_on channel=1 note=71 velocity=0 time=0
EXTRACT: note_on channel=5 note=71 velocity=0 time=0
EXTRACT: note_on channel=10 note=71 velocity=0 time=0
EXTRACT: note_on channel=0 note=71 velocity=110 time=0.006696425000000001
EXTRACT: note_on channel=1 note=71 velocity=110 time=0
EXTRACT: note_on channel=9 note=41 velocity=127 time=0
EXTRACT: note_on channel=9 note=47 velocity=127 time=0
EXTRACT: note_on channel=5 note=71 velocity=90 time=0
EXTRACT: note_on channel=10 note=71 velocity=90 time=0
EXTRACT: note_on channel=9 note=70 velocity=0 time=0.127232075
EXTRACT: note_on channel=9 note=41 velocity=0 time=0
EXTRACT: note_on channel=9 note=47 velocity=0 time=0
EXTRACT: note_on channel=9 note=70 velocity=75 time=0.006696425000000001
EXTRACT: note_on channel=9 note=41 velocity=75 time=0
EXTRACT: note_on channel=9 note=47 velocity=75 time=0
EXTRACT: note_on channel=0 note=71 velocity=0 time=0.127232075
EXTRACT: note_on channel=1 note=71 velocity=0 time=0
EXTRACT: note_on channel=9 note=70 velocity=0 time=0
EXTRACT: note_on channel=9 note=41 velocity=0 time=0
EXTRACT: note_on channel=9 note=47 velocity=0 time=0
EXTRACT: note_on channel=9 note=41 velocity=0 time=0
EXTRACT: note_on channel=9 note=47 velocity=0 time=0
EXTRACT: note_on channel=5 note=71 velocity=0 time=0
EXTRACT: note_on channel=10 note=71 velocity=0 time=0
EXTRACT: note_on channel=0 note=71 velocity=110 time=0.006696425000000001
EXTRACT: note_on channel=1 note=71 velocity=110 time=0
EXTRACT: note_on channel=9 note=70 velocity=75 time=0
EXTRACT: note_on channel=9 note=41 velocity=75 time=0
EXTRACT: note_on channel=9 note=47 velocity=75 time=0
EXTRACT: note_on channel=5 note=71 velocity=90 time=0
EXTRACT: note_on channel=10 note=71 velocity=90 time=0
EXTRACT: note_on channel=0 note=71 velocity=0 time=0.127232075
EXTRACT: note_on channel=1 note=71 velocity=0 time=0
EXTRACT: note_on channel=5 note=71 velocity=0 time=0
EXTRACT: note_on channel=10 note=71 velocity=0 time=0
EXTRACT: note_on channel=0 note=73 velocity=110 time=0.006696425000000001
EXTRACT: note_on channel=1 note=63 velocity=110 time=0
EXTRACT: note_on channel=1 note=66 velocity=110 time=0
EXTRACT: note_on channel=1 note=73 velocity=110 time=0
EXTRACT: note_on channel=2 note=42 velocity=0 time=0
EXTRACT: note_on channel=5 note=63 velocity=90 time=0
EXTRACT: note_on channel=5 note=66 velocity=90 time=0
EXTRACT: note_on channel=5 note=73 velocity=90 time=0
EXTRACT: note_on channel=10 note=63 velocity=90 time=0
EXTRACT: note_on channel=10 note=66 velocity=90 time=0
EXTRACT: note_on channel=10 note=73 velocity=90 time=0
EXTRACT: note_on channel=6 note=42 velocity=0 time=0
EXTRACT: note_on channel=9 note=70 velocity=0 time=0.127232075
EXTRACT: note_on channel=9 note=41 velocity=0 time=0
EXTRACT: note_on channel=9 note=47 velocity=0 time=0
EXTRACT: note_on channel=2 note=44 velocity=110 time=0.006696425000000001
EXTRACT: note_on channel=9 note=70 velocity=75 time=0
EXTRACT: note_on channel=9 note=41 velocity=75 time=0
EXTRACT: note_on channel=9 note=47 velocity=75 time=0
EXTRACT: note_on channel=9 note=41 velocity=127 time=0
EXTRACT: note_on channel=9 note=47 velocity=127 time=0
EXTRACT: note_on channel=6 note=44 velocity=90 time=0
EXTRACT: note_on channel=0 note=73 velocity=0 time=0.261160575
EXTRACT: note_on channel=1 note=63 velocity=0 time=0
EXTRACT: note_on channel=1 note=66 velocity=0 time=0
EXTRACT: note_on channel=1 note=73 velocity=0 time=0
EXTRACT: note_on channel=9 note=70 velocity=0 time=0
EXTRACT: note_on channel=9 note=41 velocity=0 time=0
EXTRACT: note_on channel=9 note=47 velocity=0 time=0
EXTRACT: note_on channel=9 note=41 velocity=0 time=0
EXTRACT: note_on channel=9 note=47 velocity=0 time=0
EXTRACT: note_on channel=5 note=63 velocity=0 time=0
EXTRACT: note_on channel=5 note=66 velocity=0 time=0
EXTRACT: note_on channel=5 note=73 velocity=0 time=0
EXTRACT: note_on channel=10 note=63 velocity=0 time=0
EXTRACT: note_on channel=10 note=66 velocity=0 time=0
EXTRACT: note_on channel=10 note=73 velocity=0 time=0
EXTRACT: note_on channel=0 note=73 velocity=110 time=0.006696425000000001
EXTRACT: note_on channel=1 note=73 velocity=110 time=0
EXTRACT: note_on channel=9 note=70 velocity=75 time=0
EXTRACT: note_on channel=9 note=41 velocity=75 time=0
EXTRACT: note_on channel=9 note=47 velocity=75 time=0
EXTRACT: note_on channel=5 note=73 velocity=90 time=0
EXTRACT: note_on channel=10 note=73 velocity=90 time=0
EXTRACT: note_on channel=9 note=70 velocity=0 time=0.127232075
EXTRACT: note_on channel=9 note=41 velocity=0 time=0
EXTRACT: note_on channel=9 note=47 velocity=0 time=0
EXTRACT: note_on channel=9 note=70 velocity=75 time=0.006696425000000001
EXTRACT: note_on channel=9 note=41 velocity=75 time=0
EXTRACT: note_on channel=9 note=47 velocity=75 time=0
EXTRACT: note_on channel=0 note=73 velocity=0 time=0.127232075
EXTRACT: note_on channel=1 note=73 velocity=0 time=0
EXTRACT: note_on channel=5 note=73 velocity=0 time=0
EXTRACT: note_on channel=10 note=73 velocity=0 time=0
EXTRACT: note_on channel=0 note=73 velocity=110 time=0.006696425000000001
EXTRACT: note_on channel=1 note=73 velocity=110 time=0
EXTRACT: note_on channel=9 note=41 velocity=127 time=0
EXTRACT: note_on channel=9 note=47 velocity=127 time=0
EXTRACT: note_on channel=5 note=73 velocity=90 time=0
EXTRACT: note_on channel=10 note=73 velocity=90 time=0
EXTRACT: note_on channel=9 note=70 velocity=0 time=0.127232075
EXTRACT: note_on channel=9 note=41 velocity=0 time=0
EXTRACT: note_on channel=9 note=47 velocity=0 time=0
EXTRACT: note_on channel=9 note=70 velocity=75 time=0.006696425000000001
EXTRACT: note_on channel=9 note=41 velocity=75 time=0
EXTRACT: note_on channel=9 note=47 velocity=75 time=0
EXTRACT: note_on channel=0 note=73 velocity=0 time=0.127232075
EXTRACT: note_on channel=1 note=73 velocity=0 time=0
EXTRACT: note_on channel=9 note=70 velocity=0 time=0
EXTRACT: note_on channel=9 note=41 velocity=0 time=0
EXTRACT: note_on channel=9 note=47 velocity=0 time=0
EXTRACT: note_on channel=9 note=41 velocity=0 time=0
EXTRACT: note_on channel=9 note=47 velocity=0 time=0
EXTRACT: note_on channel=5 note=73 velocity=0 time=0
EXTRACT: note_on channel=10 note=73 velocity=0 time=0
EXTRACT: note_on channel=0 note=70 velocity=110 time=0.006696425000000001
EXTRACT: note_on channel=1 note=70 velocity=110 time=0
EXTRACT: note_on channel=9 note=70 velocity=75 time=0
EXTRACT: note_on channel=9 note=41 velocity=75 time=0
EXTRACT: note_on channel=9 note=47 velocity=75 time=0
EXTRACT: note_on channel=5 note=70 velocity=90 time=0
EXTRACT: note_on channel=10 note=70 velocity=90 time=0
EXTRACT: note_on channel=0 note=70 velocity=0 time=0.127232075
EXTRACT: note_on channel=1 note=70 velocity=0 time=0
EXTRACT: note_on channel=5 note=70 velocity=0 time=0
EXTRACT: note_on channel=10 note=70 velocity=0 time=0
EXTRACT: note_on channel=0 note=75 velocity=110 time=0.006696425000000001
EXTRACT: note_on channel=1 note=66 velocity=110 time=0
EXTRACT: note_on channel=1 note=71 velocity=110 time=0
EXTRACT: note_on channel=1 note=75 velocity=110 time=0
EXTRACT: note_on channel=2 note=44 velocity=0 time=0
EXTRACT: note_on channel=5 note=66 velocity=90 time=0
EXTRACT: note_on channel=5 note=71 velocity=90 time=0
EXTRACT: note_on channel=5 note=75 velocity=90 time=0
EXTRACT: note_on channel=10 note=66 velocity=90 time=0
EXTRACT: note_on channel=10 note=71 velocity=90 time=0
EXTRACT: note_on channel=10 note=75 velocity=90 time=0
EXTRACT: note_on channel=6 note=44 velocity=0 time=0
EXTRACT: note_on channel=9 note=70 velocity=0 time=0.127232075
EXTRACT: note_on channel=9 note=41 velocity=0 time=0
EXTRACT: note_on channel=9 note=47 velocity=0 time=0
EXTRACT: note_on channel=2 note=49 velocity=110 time=0.006696425000000001
EXTRACT: note_on channel=9 note=70 velocity=75 time=0
EXTRACT: note_on channel=9 note=41 velocity=75 time=0
EXTRACT: note_on channel=9 note=47 velocity=75 time=0
EXTRACT: note_on channel=9 note=41 velocity=127 time=0
EXTRACT: note_on channel=9 note=47 velocity=127 time=0
EXTRACT: note_on channel=6 note=49 velocity=90 time=0
EXTRACT: note_on channel=0 note=75 velocity=0 time=0.127232075
EXTRACT: note_on channel=1 note=66 velocity=0 time=0
EXTRACT: note_on channel=1 note=71 velocity=0 time=0
EXTRACT: note_on channel=1 note=75 velocity=0 time=0
EXTRACT: note_on channel=5 note=66 velocity=0 time=0
EXTRACT: note_on channel=5 note=71 velocity=0 time=0
EXTRACT: note_on channel=5 note=75 velocity=0 time=0
EXTRACT: note_on channel=10 note=66 velocity=0 time=0
EXTRACT: note_on channel=10 note=71 velocity=0 time=0
EXTRACT: note_on channel=10 note=75 velocity=0 time=0
EXTRACT: note_on channel=0 note=73 velocity=110 time=0.006696425000000001
EXTRACT: note_on channel=1 note=73 velocity=110 time=0
EXTRACT: note_on channel=5 note=73 velocity=90 time=0
EXTRACT: note_on channel=10 note=73 velocity=90 time=0
EXTRACT: note_on channel=9 note=70 velocity=0 time=0.127232075
EXTRACT: note_on channel=9 note=41 velocity=0 time=0
EXTRACT: note_on channel=9 note=47 velocity=0 time=0
EXTRACT: note_on channel=9 note=41 velocity=0 time=0
EXTRACT: note_on channel=9 note=47 velocity=0 time=0
EXTRACT: note_on channel=9 note=70 velocity=75 time=0.006696425000000001
EXTRACT: note_on channel=9 note=41 velocity=75 time=0
EXTRACT: note_on channel=9 note=47 velocity=75 time=0
EXTRACT: note_on channel=9 note=70 velocity=0 time=0.127232075
EXTRACT: note_on channel=9 note=41 velocity=0 time=0
EXTRACT: note_on channel=9 note=47 velocity=0 time=0
EXTRACT: note_on channel=9 note=70 velocity=75 time=0.006696425000000001
EXTRACT: note_on channel=9 note=41 velocity=75 time=0
EXTRACT: note_on channel=9 note=47 velocity=75 time=0
EXTRACT: note_on channel=0 note=73 velocity=0 time=0.127232075
EXTRACT: note_on channel=1 note=73 velocity=0 time=0
EXTRACT: note_on channel=5 note=73 velocity=0 time=0
EXTRACT: note_on channel=10 note=73 velocity=0 time=0
EXTRACT: note_on channel=1 note=66 velocity=110 time=0.006696425000000001
EXTRACT: note_on channel=1 note=68 velocity=110 time=0
EXTRACT: note_on channel=1 note=73 velocity=110 time=0
EXTRACT: note_on channel=9 note=41 velocity=127 time=0
EXTRACT: note_on channel=9 note=47 velocity=127 time=0
EXTRACT: note_on channel=5 note=66 velocity=90 time=0
EXTRACT: note_on channel=5 note=68 velocity=90 time=0
EXTRACT: note_on channel=5 note=73 velocity=90 time=0
EXTRACT: note_on channel=10 note=66 velocity=90 time=0
EXTRACT: note_on channel=10 note=68 velocity=90 time=0
EXTRACT: note_on channel=10 note=73 velocity=90 time=0
EXTRACT: note_on channel=9 note=70 velocity=0 time=0.127232075
EXTRACT: note_on channel=9 note=41 velocity=0 time=0
EXTRACT: note_on channel=9 note=47 velocity=0 time=0
EXTRACT: note_on channel=9 note=70 velocity=75 time=0.006696425000000001
EXTRACT: note_on channel=9 note=41 velocity=75 time=0
EXTRACT: note_on channel=9 note=47 velocity=75 time=0
EXTRACT: note_on channel=9 note=70 velocity=0 time=0.127232075
EXTRACT: note_on channel=9 note=41 velocity=0 time=0
EXTRACT: note_on channel=9 note=47 velocity=0 time=0
EXTRACT: note_on channel=9 note=41 velocity=0 time=0
EXTRACT: note_on channel=9 note=47 velocity=0 time=0
EXTRACT: note_on channel=9 note=70 velocity=75 time=0.006696425000000001
EXTRACT: note_on channel=9 note=41 velocity=75 time=0
EXTRACT: note_on channel=9 note=47 velocity=75 time=0
EXTRACT: note_on channel=2 note=49 velocity=0 time=0.1339285
EXTRACT: note_on channel=6 note=49 velocity=0 time=0
EXTRACT: note_on channel=1 note=66 velocity=0 time=0.04464283333333333
EXTRACT: note_on channel=1 note=68 velocity=0 time=0
EXTRACT: note_on channel=1 note=73 velocity=0 time=0
EXTRACT: note_on channel=5 note=66 velocity=0 time=0
EXTRACT: note_on channel=5 note=68 velocity=0 time=0
EXTRACT: note_on channel=5 note=73 velocity=0 time=0
EXTRACT: note_on channel=10 note=66 velocity=0 time=0
EXTRACT: note_on channel=10 note=68 velocity=0 time=0
EXTRACT: note_on channel=10 note=73 velocity=0 time=0
EXTRACT: note_on channel=9 note=70 velocity=0 time=0.08258924166666667
EXTRACT: note_on channel=9 note=41 velocity=0 time=0
EXTRACT: note_on channel=9 note=47 velocity=0 time=0
EXTRACT: note_on channel=1 note=70 velocity=110 time=0.006696425000000001
EXTRACT: note_on channel=1 note=73 velocity=110 time=0
EXTRACT: note_on channel=2 note=42 velocity=110 time=0
EXTRACT: note_on channel=9 note=70 velocity=75 time=0
EXTRACT: note_on channel=9 note=41 velocity=75 time=0
EXTRACT: note_on channel=9 note=47 velocity=75 time=0
EXTRACT: note_on channel=9 note=41 velocity=127 time=0
EXTRACT: note_on channel=9 note=47 velocity=127 time=0
EXTRACT: note_on channel=5 note=70 velocity=90 time=0
EXTRACT: note_on channel=5 note=73 velocity=90 time=0
EXTRACT: note_on channel=10 note=70 velocity=90 time=0
EXTRACT: note_on channel=10 note=73 velocity=90 time=0
EXTRACT: note_on channel=6 note=42 velocity=90 time=0
EXTRACT: note_on channel=1 note=70 velocity=0 time=0.261160575
EXTRACT: note_on channel=1 note=73 velocity=0 time=0
EXTRACT: note_on channel=9 note=70 velocity=0 time=0
EXTRACT: note_on channel=9 note=41 velocity=0 time=0
EXTRACT: note_on channel=9 note=47 velocity=0 time=0
EXTRACT: note_on channel=9 note=41 velocity=0 time=0
EXTRACT: note_on channel=9 note=47 velocity=0 time=0
EXTRACT: note_on channel=5 note=70 velocity=0 time=0
EXTRACT: note_on channel=5 note=73 velocity=0 time=0
EXTRACT: note_on channel=10 note=70 velocity=0 time=0
EXTRACT: note_on channel=10 note=73 velocity=0 time=0
EXTRACT: note_on channel=0 note=78 velocity=110 time=0.006696425000000001
EXTRACT: note_on channel=1 note=78 velocity=110 time=0
EXTRACT: note_on channel=9 note=70 velocity=75 time=0
EXTRACT: note_on channel=9 note=41 velocity=75 time=0
EXTRACT: note_on channel=9 note=47 velocity=75 time=0
EXTRACT: note_on channel=5 note=78 velocity=90 time=0
EXTRACT: note_on channel=10 note=78 velocity=90 time=0
EXTRACT: note_on channel=9 note=70 velocity=0 time=0.127232075
EXTRACT: note_on channel=9 note=41 velocity=0 time=0
EXTRACT: note_on channel=9 note=47 velocity=0 time=0
EXTRACT: note_on channel=9 note=70 velocity=75 time=0.006696425000000001
EXTRACT: note_on channel=9 note=41 velocity=75 time=0
EXTRACT: note_on channel=9 note=47 velocity=75 time=0
EXTRACT: note_on channel=0 note=78 velocity=0 time=0.127232075
EXTRACT: note_on channel=1 note=78 velocity=0 time=0
EXTRACT: note_on channel=5 note=78 velocity=0 time=0
EXTRACT: note_on channel=10 note=78 velocity=0 time=0
EXTRACT: note_on channel=0 note=78 velocity=110 time=0.006696425000000001
EXTRACT: note_on channel=1 note=78 velocity=110 time=0
EXTRACT: note_on channel=9 note=41 velocity=127 time=0
EXTRACT: note_on channel=9 note=47 velocity=127 time=0
EXTRACT: note_on channel=5 note=78 velocity=90 time=0
EXTRACT: note_on channel=10 note=78 velocity=90 time=0
EXTRACT: note_on channel=9 note=70 velocity=0 time=0.127232075
EXTRACT: note_on channel=9 note=41 velocity=0 time=0
EXTRACT: note_on channel=9 note=47 velocity=0 time=0
EXTRACT: note_on channel=9 note=70 velocity=75 time=0.006696425000000001
EXTRACT: note_on channel=9 note=41 velocity=75 time=0
EXTRACT: note_on channel=9 note=47 velocity=75 time=0
EXTRACT: note_on channel=0 note=78 velocity=0 time=0.127232075
EXTRACT: note_on channel=1 note=78 velocity=0 time=0
EXTRACT: note_on channel=9 note=70 velocity=0 time=0
EXTRACT: note_on channel=9 note=41 velocity=0 time=0
EXTRACT: note_on channel=9 note=47 velocity=0 time=0
EXTRACT: note_on channel=9 note=41 velocity=0 time=0
EXTRACT: note_on channel=9 note=47 velocity=0 time=0
EXTRACT: note_on channel=5 note=78 velocity=0 time=0
EXTRACT: note_on channel=10 note=78 velocity=0 time=0
EXTRACT: note_on channel=0 note=73 velocity=110 time=0.006696425000000001
EXTRACT: note_on channel=1 note=73 velocity=110 time=0
EXTRACT: note_on channel=9 note=70 velocity=75 time=0
EXTRACT: note_on channel=9 note=41 velocity=75 time=0
EXTRACT: note_on channel=9 note=47 velocity=75 time=0
EXTRACT: note_on channel=5 note=73 velocity=90 time=0
EXTRACT: note_on channel=10 note=73 velocity=90 time=0
EXTRACT: note_on channel=2 note=42 velocity=0 time=0.1339285
EXTRACT: note_on channel=6 note=42 velocity=0 time=0
EXTRACT: note_on channel=0 note=73 velocity=0 time=0.127232075
EXTRACT: note_on channel=1 note=73 velocity=0 time=0
EXTRACT: note_on channel=9 note=70 velocity=0 time=0
EXTRACT: note_on channel=9 note=41 velocity=0 time=0
EXTRACT: note_on channel=9 note=47 velocity=0 time=0
EXTRACT: note_on channel=5 note=73 velocity=0 time=0
EXTRACT: note_on channel=10 note=73 velocity=0 time=0
EXTRACT: note_on channel=0 note=73 velocity=110 time=0.006696425000000001
EXTRACT: note_on channel=1 note=66 velocity=110 time=0
EXTRACT: note_on channel=1 note=73 velocity=110 time=0
EXTRACT: note_on channel=2 note=47 velocity=110 time=0
EXTRACT: note_on channel=9 note=70 velocity=75 time=0
EXTRACT: note_on channel=9 note=41 velocity=75 time=0
EXTRACT: note_on channel=9 note=47 velocity=75 time=0
EXTRACT: note_on channel=9 note=41 velocity=127 time=0
EXTRACT: note_on channel=9 note=47 velocity=127 time=0
EXTRACT: note_on channel=5 note=66 velocity=90 time=0
EXTRACT: note_on channel=5 note=73 velocity=90 time=0
EXTRACT: note_on channel=10 note=66 velocity=90 time=0
EXTRACT: note_on channel=10 note=73 velocity=90 time=0
EXTRACT: note_on channel=6 note=47 velocity=90 time=0
EXTRACT: note_on channel=0 note=73 velocity=0 time=0.261160575
EXTRACT: note_on channel=1 note=66 velocity=0 time=0
EXTRACT: note_on channel=1 note=73 velocity=0 time=0
EXTRACT: note_on channel=9 note=70 velocity=0 time=0
EXTRACT: note_on channel=9 note=41 velocity=0 time=0
EXTRACT: note_on channel=9 note=47 velocity=0 time=0
EXTRACT: note_on channel=9 note=41 velocity=0 time=0
EXTRACT: note_on channel=9 note=47 velocity=0 time=0
EXTRACT: note_on channel=5 note=66 velocity=0 time=0
EXTRACT: note_on channel=5 note=73 velocity=0 time=0
EXTRACT: note_on channel=10 note=66 velocity=0 time=0
EXTRACT: note_on channel=10 note=73 velocity=0 time=0
EXTRACT: note_on channel=0 note=73 velocity=110 time=0.006696425000000001
EXTRACT: note_on channel=1 note=73 velocity=110 time=0
EXTRACT: note_on channel=9 note=70 velocity=75 time=0
EXTRACT: note_on channel=9 note=41 velocity=75 time=0
EXTRACT: note_on channel=9 note=47 velocity=75 time=0
EXTRACT: note_on channel=5 note=73 velocity=90 time=0
EXTRACT: note_on channel=10 note=73 velocity=90 time=0
EXTRACT: note_on channel=0 note=73 velocity=0 time=0.127232075
EXTRACT: note_on channel=1 note=73 velocity=0 time=0
EXTRACT: note_on channel=9 note=70 velocity=0 time=0
EXTRACT: note_on channel=9 note=41 velocity=0 time=0
EXTRACT: note_on channel=9 note=47 velocity=0 time=0
EXTRACT: note_on channel=5 note=73 velocity=0 time=0
EXTRACT: note_on channel=10 note=73 velocity=0 time=0
EXTRACT: note_on channel=0 note=75 velocity=110 time=0.006696425000000001
EXTRACT: note_on channel=1 note=75 velocity=110 time=0
EXTRACT: note_on channel=9 note=70 velocity=75 time=0
EXTRACT: note_on channel=9 note=41 velocity=75 time=0
EXTRACT: note_on channel=9 note=47 velocity=75 time=0
EXTRACT: note_on channel=5 note=75 velocity=90 time=0
EXTRACT: note_on channel=10 note=75 velocity=90 time=0
EXTRACT: note_on channel=2 note=47 velocity=0 time=0.04464283333333333
EXTRACT: note_on channel=6 note=47 velocity=0 time=0
EXTRACT: note_on channel=2 note=46 velocity=110 time=0.08928566666666667
EXTRACT: note_on channel=9 note=41 velocity=127 time=0
EXTRACT: note_on channel=9 note=47 velocity=127 time=0
EXTRACT: note_on channel=6 note=46 velocity=90 time=0
EXTRACT: note_on channel=9 note=70 velocity=0 time=0.127232075
EXTRACT: note_on channel=9 note=41 velocity=0 time=0
EXTRACT: note_on channel=9 note=47 velocity=0 time=0
EXTRACT: note_on channel=9 note=70 velocity=75 time=0.006696425000000001
EXTRACT: note_on channel=9 note=41 velocity=75 time=0
EXTRACT: note_on channel=9 note=47 velocity=75 time=0
EXTRACT: note_on channel=0 note=75 velocity=0 time=0.127232075
EXTRACT: note_on channel=1 note=75 velocity=0 time=0
EXTRACT: note_on channel=9 note=70 velocity=0 time=0
EXTRACT: note_on channel=9 note=41 velocity=0 time=0
EXTRACT: note_on channel=9 note=47 velocity=0 time=0
EXTRACT: note_on channel=9 note=41 velocity=0 time=0
EXTRACT: note_on channel=9 note=47 velocity=0 time=0
EXTRACT: note_on channel=5 note=75 velocity=0 time=0
EXTRACT: note_on channel=10 note=75 velocity=0 time=0
EXTRACT: note_on channel=0 note=73 velocity=110 time=0.006696425000000001
EXTRACT: note_on channel=1 note=73 velocity=110 time=0
EXTRACT: note_on channel=9 note=70 velocity=75 time=0
EXTRACT: note_on channel=9 note=41 velocity=75 time=0
EXTRACT: note_on channel=9 note=47 velocity=75 time=0
EXTRACT: note_on channel=5 note=73 velocity=90 time=0
EXTRACT: note_on channel=10 note=73 velocity=90 time=0
EXTRACT: note_on channel=2 note=46 velocity=0 time=0.17857133333333333
EXTRACT: note_on channel=6 note=46 velocity=0 time=0
EXTRACT: note_on channel=0 note=73 velocity=0 time=0.08258924166666667
EXTRACT: note_on channel=1 note=73 velocity=0 time=0
EXTRACT: note_on channel=9 note=70 velocity=0 time=0
EXTRACT: note_on channel=9 note=41 velocity=0 time=0
EXTRACT: note_on channel=9 note=47 velocity=0 time=0
EXTRACT: note_on channel=5 note=73 velocity=0 time=0
EXTRACT: note_on channel=10 note=73 velocity=0 time=0
EXTRACT: note_on channel=1 note=65 velocity=110 time=0.006696425000000001
EXTRACT: note_on channel=1 note=68 velocity=110 time=0
EXTRACT: note_on channel=2 note=44 velocity=110 time=0
EXTRACT: note_on channel=9 note=70 velocity=75 time=0
EXTRACT: note_on channel=9 note=41 velocity=75 time=0
EXTRACT: note_on channel=9 note=47 velocity=75 time=0
EXTRACT: note_on channel=9 note=41 velocity=127 time=0
EXTRACT: note_on channel=9 note=47 velocity=127 time=0
EXTRACT: note_on channel=5 note=65 velocity=90 time=0
EXTRACT: note_on channel=5 note=68 velocity=90 time=0
EXTRACT: note_on channel=10 note=65 velocity=90 time=0
EXTRACT: note_on channel=10 note=68 velocity=90 time=0
EXTRACT: note_on channel=6 note=44 velocity=90 time=0
EXTRACT: note_on channel=1 note=65 velocity=0 time=0.261160575
EXTRACT: note_on channel=1 note=68 velocity=0 time=0
EXTRACT: note_on channel=9 note=70 velocity=0 time=0
EXTRACT: note_on channel=9 note=41 velocity=0 time=0
EXTRACT: note_on channel=9 note=47 velocity=0 time=0
EXTRACT: note_on channel=9 note=41 velocity=0 time=0
EXTRACT: note_on channel=9 note=47 velocity=0 time=0
EXTRACT: note_on channel=5 note=65 velocity=0 time=0
EXTRACT: note_on channel=5 note=68 velocity=0 time=0
EXTRACT: note_on channel=10 note=65 velocity=0 time=0
EXTRACT: note_on channel=10 note=68 velocity=0 time=0
EXTRACT: note_on channel=0 note=78 velocity=110 time=0.006696425000000001
EXTRACT: note_on channel=1 note=78 velocity=110 time=0
EXTRACT: note_on channel=9 note=70 velocity=75 time=0
EXTRACT: note_on channel=9 note=41 velocity=75 time=0
EXTRACT: note_on channel=9 note=47 velocity=75 time=0
EXTRACT: note_on channel=5 note=78 velocity=90 time=0
EXTRACT: note_on channel=10 note=78 velocity=90 time=0
EXTRACT: note_on channel=9 note=70 velocity=0 time=0.127232075
EXTRACT: note_on channel=9 note=41 velocity=0 time=0
EXTRACT: note_on channel=9 note=47 velocity=0 time=0
EXTRACT: note_on channel=9 note=70 velocity=75 time=0.006696425000000001
EXTRACT: note_on channel=9 note=41 velocity=75 time=0
EXTRACT: note_on channel=9 note=47 velocity=75 time=0
EXTRACT: note_on channel=0 note=78 velocity=0 time=0.127232075
EXTRACT: note_on channel=1 note=78 velocity=0 time=0
EXTRACT: note_on channel=5 note=78 velocity=0 time=0
EXTRACT: note_on channel=10 note=78 velocity=0 time=0
EXTRACT: note_on channel=0 note=78 velocity=110 time=0.006696425000000001
EXTRACT: note_on channel=1 note=78 velocity=110 time=0
EXTRACT: note_on channel=9 note=41 velocity=127 time=0
EXTRACT: note_on channel=9 note=47 velocity=127 time=0
EXTRACT: note_on channel=5 note=78 velocity=90 time=0
EXTRACT: note_on channel=10 note=78 velocity=90 time=0
EXTRACT: note_on channel=9 note=70 velocity=0 time=0.127232075
EXTRACT: note_on channel=9 note=41 velocity=0 time=0
EXTRACT: note_on channel=9 note=47 velocity=0 time=0
EXTRACT: note_on channel=9 note=70 velocity=75 time=0.006696425000000001
EXTRACT: note_on channel=9 note=41 velocity=75 time=0
EXTRACT: note_on channel=9 note=47 velocity=75 time=0
EXTRACT: note_on channel=0 note=78 velocity=0 time=0.127232075
EXTRACT: note_on channel=1 note=78 velocity=0 time=0
EXTRACT: note_on channel=9 note=70 velocity=0 time=0
EXTRACT: note_on channel=9 note=41 velocity=0 time=0
EXTRACT: note_on channel=9 note=47 velocity=0 time=0
EXTRACT: note_on channel=9 note=41 velocity=0 time=0
EXTRACT: note_on channel=9 note=47 velocity=0 time=0
EXTRACT: note_on channel=5 note=78 velocity=0 time=0
EXTRACT: note_on channel=10 note=78 velocity=0 time=0
EXTRACT: note_on channel=0 note=73 velocity=110 time=0.006696425000000001
EXTRACT: note_on channel=1 note=73 velocity=110 time=0
EXTRACT: note_on channel=9 note=70 velocity=75 time=0
EXTRACT: note_on channel=9 note=41 velocity=75 time=0
EXTRACT: note_on channel=9 note=47 velocity=75 time=0
EXTRACT: note_on channel=5 note=73 velocity=90 time=0
EXTRACT: note_on channel=10 note=73 velocity=90 time=0
EXTRACT: note_on channel=2 note=44 velocity=0 time=0.1339285
EXTRACT: note_on channel=6 note=44 velocity=0 time=0
EXTRACT: note_on channel=0 note=73 velocity=0 time=0.127232075
EXTRACT: note_on channel=1 note=73 velocity=0 time=0
EXTRACT: note_on channel=9 note=70 velocity=0 time=0
EXTRACT: note_on channel=9 note=41 velocity=0 time=0
EXTRACT: note_on channel=9 note=47 velocity=0 time=0
EXTRACT: note_on channel=5 note=73 velocity=0 time=0
EXTRACT: note_on channel=10 note=73 velocity=0 time=0
EXTRACT: note_on channel=0 note=73 velocity=110 time=0.006696425000000001
EXTRACT: note_on channel=1 note=66 velocity=110 time=0
EXTRACT: note_on channel=1 note=68 velocity=110 time=0
EXTRACT: note_on channel=1 note=73 velocity=110 time=0
EXTRACT: note_on channel=2 note=49 velocity=110 time=0
EXTRACT: note_on channel=9 note=70 velocity=75 time=0
EXTRACT: note_on channel=9 note=41 velocity=75 time=0
EXTRACT: note_on channel=9 note=47 velocity=75 time=0
EXTRACT: note_on channel=9 note=41 velocity=127 time=0
EXTRACT: note_on channel=9 note=47 velocity=127 time=0
EXTRACT: note_on channel=5 note=66 velocity=90 time=0
EXTRACT: note_on channel=5 note=68 velocity=90 time=0
EXTRACT: note_on channel=5 note=73 velocity=90 time=0
EXTRACT: note_on channel=10 note=66 velocity=90 time=0
EXTRACT: note_on channel=10 note=68 velocity=90 time=0
EXTRACT: note_on channel=10 note=73 velocity=90 time=0
EXTRACT: note_on channel=6 note=49 velocity=90 time=0
EXTRACT: note_on channel=9 note=70 velocity=0 time=0.261160575
EXTRACT: note_on channel=9 note=41 velocity=0 time=0
EXTRACT: note_on channel=9 note=47 velocity=0 time=0
EXTRACT: note_on channel=9 note=41 velocity=0 time=0
EXTRACT: note_on channel=9 note=47 velocity=0 time=0
EXTRACT: note_on channel=9 note=70 velocity=75 time=0.006696425000000001
EXTRACT: note_on channel=9 note=41 velocity=75 time=0
EXTRACT: note_on channel=9 note=47 velocity=75 time=0
EXTRACT: note_on channel=0 note=73 velocity=0 time=0.127232075
EXTRACT: note_on channel=1 note=66 velocity=0 time=0
EXTRACT: note_on channel=1 note=68 velocity=0 time=0
EXTRACT: note_on channel=1 note=73 velocity=0 time=0
EXTRACT: note_on channel=9 note=70 velocity=0 time=0
EXTRACT: note_on channel=9 note=41 velocity=0 time=0
EXTRACT: note_on channel=9 note=47 velocity=0 time=0
EXTRACT: note_on channel=5 note=66 velocity=0 time=0
EXTRACT: note_on channel=5 note=68 velocity=0 time=0
EXTRACT: note_on channel=5 note=73 velocity=0 time=0
EXTRACT: note_on channel=10 note=66 velocity=0 time=0
EXTRACT: note_on channel=10 note=68 velocity=0 time=0
EXTRACT: note_on channel=10 note=73 velocity=0 time=0
EXTRACT: note_on channel=0 note=75 velocity=110 time=0.006696425000000001
EXTRACT: note_on channel=1 note=75 velocity=110 time=0
EXTRACT: note_on channel=9 note=70 velocity=75 time=0
EXTRACT: note_on channel=9 note=41 velocity=75 time=0
EXTRACT: note_on channel=9 note=47 velocity=75 time=0
EXTRACT: note_on channel=5 note=75 velocity=90 time=0
EXTRACT: note_on channel=10 note=75 velocity=90 time=0
EXTRACT: note_on channel=9 note=41 velocity=127 time=0.1339285
EXTRACT: note_on channel=9 note=47 velocity=127 time=0
EXTRACT: note_on channel=9 note=70 velocity=0 time=0.127232075
EXTRACT: note_on channel=9 note=41 velocity=0 time=0
EXTRACT: note_on channel=9 note=47 velocity=0 time=0
EXTRACT: note_on channel=9 note=70 velocity=75 time=0.006696425000000001
EXTRACT: note_on channel=9 note=41 velocity=75 time=0
EXTRACT: note_on channel=9 note=47 velocity=75 time=0
EXTRACT: note_on channel=0 note=75 velocity=0 time=0.127232075
EXTRACT: note_on channel=1 note=75 velocity=0 time=0
EXTRACT: note_on channel=9 note=70 velocity=0 time=0
EXTRACT: note_on channel=9 note=41 velocity=0 time=0
EXTRACT: note_on channel=9 note=47 velocity=0 time=0
EXTRACT: note_on channel=9 note=41 velocity=0 time=0
EXTRACT: note_on channel=9 note=47 velocity=0 time=0
EXTRACT: note_on channel=5 note=75 velocity=0 time=0
EXTRACT: note_on channel=10 note=75 velocity=0 time=0
EXTRACT: note_on channel=0 note=73 velocity=110 time=0.006696425000000001
EXTRACT: note_on channel=1 note=73 velocity=110 time=0
EXTRACT: note_on channel=9 note=70 velocity=75 time=0
EXTRACT: note_on channel=9 note=41 velocity=75 time=0
EXTRACT: note_on channel=9 note=47 velocity=75 time=0
EXTRACT: note_on channel=5 note=73 velocity=90 time=0
EXTRACT: note_on channel=10 note=73 velocity=90 time=0
EXTRACT: note_on channel=0 note=73 velocity=0 time=0.127232075
EXTRACT: note_on channel=1 note=73 velocity=0 time=0
EXTRACT: note_on channel=5 note=73 velocity=0 time=0
EXTRACT: note_on channel=10 note=73 velocity=0 time=0
EXTRACT: note_on channel=0 note=71 velocity=110 time=0.006696425000000001
EXTRACT: note_on channel=1 note=71 velocity=110 time=0
EXTRACT: note_on channel=2 note=49 velocity=0 time=0
EXTRACT: note_on channel=5 note=71 velocity=90 time=0
EXTRACT: note_on channel=10 note=71 velocity=90 time=0
EXTRACT: note_on channel=6 note=49 velocity=0 time=0
EXTRACT: note_on channel=0 note=71 velocity=0 time=0.127232075
EXTRACT: note_on channel=1 note=71 velocity=0 time=0
EXTRACT: note_on channel=9 note=70 velocity=0 time=0
EXTRACT: note_on channel=9 note=41 velocity=0 time=0
EXTRACT: note_on channel=9 note=47 velocity=0 time=0
EXTRACT: note_on channel=5 note=71 velocity=0 time=0
EXTRACT: note_on channel=10 note=71 velocity=0 time=0
EXTRACT: note_on channel=0 note=70 velocity=110 time=0.006696425000000001
EXTRACT: note_on channel=1 note=61 velocity=110 time=0
EXTRACT: note_on channel=1 note=66 velocity=110 time=0
EXTRACT: note_on channel=1 note=70 velocity=110 time=0
EXTRACT: note_on channel=2 note=42 velocity=110 time=0
EXTRACT: note_on channel=9 note=70 velocity=75 time=0
EXTRACT: note_on channel=9 note=41 velocity=75 time=0
EXTRACT: note_on channel=9 note=47 velocity=75 time=0
EXTRACT: note_on channel=9 note=41 velocity=127 time=0
EXTRACT: note_on channel=9 note=47 velocity=127 time=0
EXTRACT: note_on channel=5 note=61 velocity=90 time=0
EXTRACT: note_on channel=5 note=66 velocity=90 time=0
EXTRACT: note_on channel=5 note=70 velocity=90 time=0
EXTRACT: note_on channel=10 note=61 velocity=90 time=0
EXTRACT: note_on channel=10 note=66 velocity=90 time=0
EXTRACT: note_on channel=10 note=70 velocity=90 time=0
EXTRACT: note_on channel=6 note=42 velocity=90 time=0
EXTRACT: note_on channel=9 note=70 velocity=0 time=0.261160575
EXTRACT: note_on channel=9 note=41 velocity=0 time=0
EXTRACT: note_on channel=9 note=47 velocity=0 time=0
EXTRACT: note_on channel=9 note=41 velocity=0 time=0
EXTRACT: note_on channel=9 note=47 velocity=0 time=0
EXTRACT: note_on channel=9 note=70 velocity=75 time=0.006696425000000001
EXTRACT: note_on channel=9 note=41 velocity=75 time=0
EXTRACT: note_on channel=9 note=47 velocity=75 time=0
EXTRACT: note_on channel=1 note=61 velocity=0 time=0.127232075
EXTRACT: note_on channel=1 note=66 velocity=0 time=0
EXTRACT: note_on channel=1 note=70 velocity=0 time=0
EXTRACT: note_on channel=9 note=70 velocity=0 time=0
EXTRACT: note_on channel=9 note=41 velocity=0 time=0
EXTRACT: note_on channel=9 note=47 velocity=0 time=0
EXTRACT: note_on channel=5 note=61 velocity=0 time=0
EXTRACT: note_on channel=5 note=66 velocity=0 time=0
EXTRACT: note_on channel=5 note=70 velocity=0 time=0
EXTRACT: note_on channel=10 note=61 velocity=0 time=0
EXTRACT: note_on channel=10 note=66 velocity=0 time=0
EXTRACT: note_on channel=10 note=70 velocity=0 time=0
EXTRACT: note_on channel=1 note=61 velocity=110 time=0.006696425000000001
EXTRACT: note_on channel=1 note=66 velocity=110 time=0
EXTRACT: note_on channel=1 note=70 velocity=110 time=0
EXTRACT: note_on channel=9 note=70 velocity=75 time=0
EXTRACT: note_on channel=9 note=41 velocity=75 time=0
EXTRACT: note_on channel=9 note=47 velocity=75 time=0
EXTRACT: note_on channel=5 note=61 velocity=90 time=0
EXTRACT: note_on channel=5 note=66 velocity=90 time=0
EXTRACT: note_on channel=5 note=70 velocity=90 time=0
EXTRACT: note_on channel=10 note=61 velocity=90 time=0
EXTRACT: note_on channel=10 note=66 velocity=90 time=0
EXTRACT: note_on channel=10 note=70 velocity=90 time=0
EXTRACT: note_on channel=9 note=41 velocity=127 time=0.1339285
EXTRACT: note_on channel=9 note=47 velocity=127 time=0
EXTRACT: note_on channel=9 note=70 velocity=0 time=0.127232075
EXTRACT: note_on channel=9 note=41 velocity=0 time=0
EXTRACT: note_on channel=9 note=47 velocity=0 time=0
EXTRACT: note_on channel=9 note=70 velocity=75 time=0.006696425000000001
EXTRACT: note_on channel=9 note=41 velocity=75 time=0
EXTRACT: note_on channel=9 note=47 velocity=75 time=0
EXTRACT: note_on channel=0 note=70 velocity=0 time=0.04464283333333333
EXTRACT: note_on channel=1 note=61 velocity=0 time=0.08258924166666667
EXTRACT: note_on channel=1 note=66 velocity=0 time=0
EXTRACT: note_on channel=1 note=70 velocity=0 time=0
EXTRACT: note_on channel=9 note=70 velocity=0 time=0
EXTRACT: note_on channel=9 note=41 velocity=0 time=0
EXTRACT: note_on channel=9 note=47 velocity=0 time=0
EXTRACT: note_on channel=9 note=41 velocity=0 time=0
EXTRACT: note_on channel=9 note=47 velocity=0 time=0
EXTRACT: note_on channel=5 note=61 velocity=0 time=0
EXTRACT: note_on channel=5 note=66 velocity=0 time=0
EXTRACT: note_on channel=5 note=70 velocity=0 time=0
EXTRACT: note_on channel=10 note=61 velocity=0 time=0
EXTRACT: note_on channel=10 note=66 velocity=0 time=0
EXTRACT: note_on channel=10 note=70 velocity=0 time=0
EXTRACT: note_on channel=0 note=70 velocity=110 time=0.006696425000000001
EXTRACT: note_on channel=1 note=61 velocity=110 time=0
EXTRACT: note_on channel=1 note=66 velocity=110 time=0
EXTRACT: note_on channel=1 note=70 velocity=110 time=0
EXTRACT: note_on channel=9 note=70 velocity=75 time=0
EXTRACT: note_on channel=9 note=41 velocity=75 time=0
EXTRACT: note_on channel=9 note=47 velocity=75 time=0
EXTRACT: note_on channel=5 note=61 velocity=90 time=0
EXTRACT: note_on channel=5 note=66 velocity=90 time=0
EXTRACT: note_on channel=5 note=70 velocity=90 time=0
EXTRACT: note_on channel=10 note=61 velocity=90 time=0
EXTRACT: note_on channel=10 note=66 velocity=90 time=0
EXTRACT: note_on channel=10 note=70 velocity=90 time=0
EXTRACT: note_on channel=2 note=42 velocity=0 time=0.1339285
EXTRACT: note_on channel=6 note=42 velocity=0 time=0
EXTRACT: note_on channel=0 note=70 velocity=0 time=0.127232075
EXTRACT: note_on channel=1 note=61 velocity=0 time=0
EXTRACT: note_on channel=1 note=66 velocity=0 time=0
EXTRACT: note_on channel=1 note=70 velocity=0 time=0
EXTRACT: note_on channel=9 note=70 velocity=0 time=0
EXTRACT: note_on channel=9 note=41 velocity=0 time=0
EXTRACT: note_on channel=9 note=47 velocity=0 time=0
EXTRACT: note_on channel=5 note=61 velocity=0 time=0
EXTRACT: note_on channel=5 note=66 velocity=0 time=0
EXTRACT: note_on channel=5 note=70 velocity=0 time=0
EXTRACT: note_on channel=10 note=61 velocity=0 time=0
EXTRACT: note_on channel=10 note=66 velocity=0 time=0
EXTRACT: note_on channel=10 note=70 velocity=0 time=0
EXTRACT: note_on channel=0 note=66 velocity=110 time=0.006696425000000001
EXTRACT: note_on channel=1 note=63 velocity=110 time=0
EXTRACT: note_on channel=1 note=66 velocity=110 time=0
EXTRACT: note_on channel=1 note=71 velocity=110 time=0
EXTRACT: note_on channel=2 note=47 velocity=110 time=0
EXTRACT: note_on channel=9 note=70 velocity=75 time=0
EXTRACT: note_on channel=9 note=41 velocity=75 time=0
EXTRACT: note_on channel=9 note=47 velocity=75 time=0
EXTRACT: note_on channel=9 note=41 velocity=127 time=0
EXTRACT: note_on channel=9 note=47 velocity=127 time=0
EXTRACT: note_on channel=5 note=63 velocity=90 time=0
EXTRACT: note_on channel=5 note=66 velocity=90 time=0
EXTRACT: note_on channel=5 note=71 velocity=90 time=0
EXTRACT: note_on channel=10 note=63 velocity=90 time=0
EXTRACT: note_on channel=10 note=66 velocity=90 time=0
EXTRACT: note_on channel=10 note=71 velocity=90 time=0
EXTRACT: note_on channel=6 note=47 velocity=90 time=0
EXTRACT: note_on channel=9 note=70 velocity=0 time=0.261160575
EXTRACT: note_on channel=9 note=41 velocity=0 time=0
EXTRACT: note_on channel=9 note=47 velocity=0 time=0
EXTRACT: note_on channel=9 note=41 velocity=0 time=0
EXTRACT: note_on channel=9 note=47 velocity=0 time=0
EXTRACT: note_on channel=9 note=70 velocity=75 time=0.006696425000000001
EXTRACT: note_on channel=9 note=41 velocity=75 time=0
EXTRACT: note_on channel=9 note=47 velocity=75 time=0
EXTRACT: note_on channel=1 note=63 velocity=0 time=0.127232075
EXTRACT: note_on channel=1 note=66 velocity=0 time=0
EXTRACT: note_on channel=1 note=71 velocity=0 time=0
EXTRACT: note_on channel=9 note=70 velocity=0 time=0
EXTRACT: note_on channel=9 note=41 velocity=0 time=0
EXTRACT: note_on channel=9 note=47 velocity=0 time=0
EXTRACT: note_on channel=5 note=63 velocity=0 time=0
EXTRACT: note_on channel=5 note=66 velocity=0 time=0
EXTRACT: note_on channel=5 note=71 velocity=0 time=0
EXTRACT: note_on channel=10 note=63 velocity=0 time=0
EXTRACT: note_on channel=10 note=66 velocity=0 time=0
EXTRACT: note_on channel=10 note=71 velocity=0 time=0
EXTRACT: note_on channel=1 note=63 velocity=110 time=0.006696425000000001
EXTRACT: note_on channel=1 note=66 velocity=110 time=0
EXTRACT: note_on channel=1 note=71 velocity=110 time=0
EXTRACT: note_on channel=9 note=70 velocity=75 time=0
EXTRACT: note_on channel=9 note=41 velocity=75 time=0
EXTRACT: note_on channel=9 note=47 velocity=75 time=0
EXTRACT: note_on channel=5 note=63 velocity=90 time=0
EXTRACT: note_on channel=5 note=66 velocity=90 time=0
EXTRACT: note_on channel=5 note=71 velocity=90 time=0
EXTRACT: note_on channel=10 note=63 velocity=90 time=0
EXTRACT: note_on channel=10 note=66 velocity=90 time=0
EXTRACT: note_on channel=10 note=71 velocity=90 time=0
EXTRACT: note_on channel=2 note=47 velocity=0 time=0.04464283333333333
EXTRACT: note_on channel=6 note=47 velocity=0 time=0
EXTRACT: note_on channel=2 note=46 velocity=110 time=0.08928566666666667
EXTRACT: note_on channel=9 note=41 velocity=127 time=0
EXTRACT: note_on channel=9 note=47 velocity=127 time=0
EXTRACT: note_on channel=6 note=46 velocity=90 time=0
EXTRACT: note_on channel=9 note=70 velocity=0 time=0.127232075
EXTRACT: note_on channel=9 note=41 velocity=0 time=0
EXTRACT: note_on channel=9 note=47 velocity=0 time=0
EXTRACT: note_on channel=9 note=70 velocity=75 time=0.006696425000000001
EXTRACT: note_on channel=9 note=41 velocity=75 time=0
EXTRACT: note_on channel=9 note=47 velocity=75 time=0
EXTRACT: note_on channel=1 note=63 velocity=0 time=0.127232075
EXTRACT: note_on channel=1 note=66 velocity=0 time=0
EXTRACT: note_on channel=1 note=71 velocity=0 time=0
EXTRACT: note_on channel=9 note=70 velocity=0 time=0
EXTRACT: note_on channel=9 note=41 velocity=0 time=0
EXTRACT: note_on channel=9 note=47 velocity=0 time=0
EXTRACT: note_on channel=9 note=41 velocity=0 time=0
EXTRACT: note_on channel=9 note=47 velocity=0 time=0
EXTRACT: note_on channel=5 note=63 velocity=0 time=0
EXTRACT: note_on channel=5 note=66 velocity=0 time=0
EXTRACT: note_on channel=5 note=71 velocity=0 time=0
EXTRACT: note_on channel=10 note=63 velocity=0 time=0
EXTRACT: note_on channel=10 note=66 velocity=0 time=0
EXTRACT: note_on channel=10 note=71 velocity=0 time=0
EXTRACT: note_on channel=1 note=70 velocity=110 time=0.006696425000000001
EXTRACT: note_on channel=9 note=70 velocity=75 time=0
EXTRACT: note_on channel=9 note=41 velocity=75 time=0
EXTRACT: note_on channel=9 note=47 velocity=75 time=0
EXTRACT: note_on channel=5 note=70 velocity=90 time=0
EXTRACT: note_on channel=10 note=70 velocity=90 time=0
EXTRACT: note_on channel=0 note=66 velocity=0 time=0.1339285
EXTRACT: note_on channel=2 note=46 velocity=0 time=0.04464283333333333
EXTRACT: note_on channel=6 note=46 velocity=0 time=0
EXTRACT: note_on channel=1 note=70 velocity=0 time=0.08258924166666667
EXTRACT: note_on channel=9 note=70 velocity=0 time=0
EXTRACT: note_on channel=9 note=41 velocity=0 time=0
EXTRACT: note_on channel=9 note=47 velocity=0 time=0
EXTRACT: note_on channel=5 note=70 velocity=0 time=0
EXTRACT: note_on channel=10 note=70 velocity=0 time=0
EXTRACT: note_on channel=1 note=59 velocity=110 time=0.006696425000000001
EXTRACT: note_on channel=1 note=63 velocity=110 time=0
EXTRACT: note_on channel=1 note=66 velocity=110 time=0
EXTRACT: note_on channel=2 note=44 velocity=110 time=0
EXTRACT: note_on channel=9 note=70 velocity=75 time=0
EXTRACT: note_on channel=9 note=41 velocity=75 time=0
EXTRACT: note_on channel=9 note=47 velocity=75 time=0
EXTRACT: note_on channel=9 note=41 velocity=127 time=0
EXTRACT: note_on channel=9 note=47 velocity=127 time=0
EXTRACT: note_on channel=5 note=59 velocity=90 time=0
EXTRACT: note_on channel=5 note=63 velocity=90 time=0
EXTRACT: note_on channel=5 note=66 velocity=90 time=0
EXTRACT: note_on channel=10 note=59 velocity=90 time=0
EXTRACT: note_on channel=10 note=63 velocity=90 time=0
EXTRACT: note_on channel=10 note=66 velocity=90 time=0
EXTRACT: note_on channel=6 note=44 velocity=90 time=0
EXTRACT: note_on channel=9 note=70 velocity=0 time=0.261160575
EXTRACT: note_on channel=9 note=41 velocity=0 time=0
EXTRACT: note_on channel=9 note=47 velocity=0 time=0
EXTRACT: note_on channel=9 note=41 velocity=0 time=0
EXTRACT: note_on channel=9 note=47 velocity=0 time=0
EXTRACT: note_on channel=9 note=70 velocity=75 time=0.006696425000000001
EXTRACT: note_on channel=9 note=41 velocity=75 time=0
EXTRACT: note_on channel=9 note=47 velocity=75 time=0
EXTRACT: note_on channel=1 note=59 velocity=0 time=0.127232075
EXTRACT: note_on channel=1 note=63 velocity=0 time=0
EXTRACT: note_on channel=1 note=66 velocity=0 time=0
EXTRACT: note_on channel=9 note=70 velocity=0 time=0
EXTRACT: note_on channel=9 note=41 velocity=0 time=0
EXTRACT: note_on channel=9 note=47 velocity=0 time=0
EXTRACT: note_on channel=5 note=59 velocity=0 time=0
EXTRACT: note_on channel=5 note=63 velocity=0 time=0
EXTRACT: note_on channel=5 note=66 velocity=0 time=0
EXTRACT: note_on channel=10 note=59 velocity=0 time=0
EXTRACT: note_on channel=10 note=63 velocity=0 time=0
EXTRACT: note_on channel=10 note=66 velocity=0 time=0
EXTRACT: note_on channel=1 note=59 velocity=110 time=0.006696425000000001
EXTRACT: note_on channel=1 note=63 velocity=110 time=0
EXTRACT: note_on channel=1 note=66 velocity=110 time=0
EXTRACT: note_on channel=9 note=70 velocity=75 time=0
EXTRACT: note_on channel=9 note=41 velocity=75 time=0
EXTRACT: note_on channel=9 note=47 velocity=75 time=0
EXTRACT: note_on channel=5 note=59 velocity=90 time=0
EXTRACT: note_on channel=5 note=63 velocity=90 time=0
EXTRACT: note_on channel=5 note=66 velocity=90 time=0
EXTRACT: note_on channel=10 note=59 velocity=90 time=0
EXTRACT: note_on channel=10 note=63 velocity=90 time=0
EXTRACT: note_on channel=10 note=66 velocity=90 time=0
EXTRACT: note_on channel=9 note=41 velocity=127 time=0.1339285
EXTRACT: note_on channel=9 note=47 velocity=127 time=0
EXTRACT: note_on channel=9 note=70 velocity=0 time=0.127232075
EXTRACT: note_on channel=9 note=41 velocity=0 time=0
EXTRACT: note_on channel=9 note=47 velocity=0 time=0
EXTRACT: note_on channel=9 note=70 velocity=75 time=0.006696425000000001
EXTRACT: note_on channel=9 note=41 velocity=75 time=0
EXTRACT: note_on channel=9 note=47 velocity=75 time=0
EXTRACT: note_on channel=1 note=59 velocity=0 time=0.127232075
EXTRACT: note_on channel=1 note=63 velocity=0 time=0
EXTRACT: note_on channel=1 note=66 velocity=0 time=0
EXTRACT: note_on channel=9 note=70 velocity=0 time=0
EXTRACT: note_on channel=9 note=41 velocity=0 time=0
EXTRACT: note_on channel=9 note=47 velocity=0 time=0
EXTRACT: note_on channel=9 note=41 velocity=0 time=0
EXTRACT: note_on channel=9 note=47 velocity=0 time=0
EXTRACT: note_on channel=5 note=59 velocity=0 time=0
EXTRACT: note_on channel=5 note=63 velocity=0 time=0
EXTRACT: note_on channel=5 note=66 velocity=0 time=0
EXTRACT: note_on channel=10 note=59 velocity=0 time=0
EXTRACT: note_on channel=10 note=63 velocity=0 time=0
EXTRACT: note_on channel=10 note=66 velocity=0 time=0
EXTRACT: note_on channel=1 note=59 velocity=110 time=0.006696425000000001
EXTRACT: note_on channel=1 note=63 velocity=110 time=0
EXTRACT: note_on channel=1 note=66 velocity=110 time=0
EXTRACT: note_on channel=9 note=70 velocity=75 time=0
EXTRACT: note_on channel=9 note=41 velocity=75 time=0
EXTRACT: note_on channel=9 note=47 velocity=75 time=0
EXTRACT: note_on channel=5 note=59 velocity=90 time=0
EXTRACT: note_on channel=5 note=63 velocity=90 time=0
EXTRACT: note_on channel=5 note=66 velocity=90 time=0
EXTRACT: note_on channel=10 note=59 velocity=90 time=0
EXTRACT: note_on channel=10 note=63 velocity=90 time=0
EXTRACT: note_on channel=10 note=66 velocity=90 time=0
EXTRACT: note_on channel=2 note=44 velocity=0 time=0.1339285
EXTRACT: note_on channel=6 note=44 velocity=0 time=0
EXTRACT: note_on channel=1 note=59 velocity=0 time=0.127232075
EXTRACT: note_on channel=1 note=63 velocity=0 time=0
EXTRACT: note_on channel=1 note=66 velocity=0 time=0
EXTRACT: note_on channel=9 note=70 velocity=0 time=0
EXTRACT: note_on channel=9 note=41 velocity=0 time=0
EXTRACT: note_on channel=9 note=47 velocity=0 time=0
EXTRACT: note_on channel=5 note=59 velocity=0 time=0
EXTRACT: note_on channel=5 note=63 velocity=0 time=0
EXTRACT: note_on channel=5 note=66 velocity=0 time=0
EXTRACT: note_on channel=10 note=59 velocity=0 time=0
EXTRACT: note_on channel=10 note=63 velocity=0 time=0
EXTRACT: note_on channel=10 note=66 velocity=0 time=0
EXTRACT: note_on channel=1 note=59 velocity=110 time=0.006696425000000001
EXTRACT: note_on channel=1 note=61 velocity=110 time=0
EXTRACT: note_on channel=1 note=66 velocity=110 time=0
EXTRACT: note_on channel=2 note=49 velocity=110 time=0
EXTRACT: note_on channel=9 note=70 velocity=75 time=0
EXTRACT: note_on channel=9 note=41 velocity=75 time=0
EXTRACT: note_on channel=9 note=47 velocity=75 time=0
EXTRACT: note_on channel=9 note=41 velocity=127 time=0
EXTRACT: note_on channel=9 note=47 velocity=127 time=0
EXTRACT: note_on channel=5 note=59 velocity=90 time=0
EXTRACT: note_on channel=5 note=61 velocity=90 time=0
EXTRACT: note_on channel=5 note=66 velocity=90 time=0
EXTRACT: note_on channel=10 note=59 velocity=90 time=0
EXTRACT: note_on channel=10 note=61 velocity=90 time=0
EXTRACT: note_on channel=10 note=66 velocity=90 time=0
EXTRACT: note_on channel=6 note=49 velocity=90 time=0
EXTRACT: note_on channel=9 note=70 velocity=0 time=0.261160575
EXTRACT: note_on channel=9 note=41 velocity=0 time=0
EXTRACT: note_on channel=9 note=47 velocity=0 time=0
EXTRACT: note_on channel=9 note=41 velocity=0 time=0
EXTRACT: note_on channel=9 note=47 velocity=0 time=0
EXTRACT: note_on channel=9 note=70 velocity=75 time=0.006696425000000001
EXTRACT: note_on channel=9 note=41 velocity=75 time=0
EXTRACT: note_on channel=9 note=47 velocity=75 time=0
EXTRACT: note_on channel=1 note=59 velocity=0 time=0.127232075
EXTRACT: note_on channel=1 note=61 velocity=0 time=0
EXTRACT: note_on channel=1 note=66 velocity=0 time=0
EXTRACT: note_on channel=9 note=70 velocity=0 time=0
EXTRACT: note_on channel=9 note=41 velocity=0 time=0
EXTRACT: note_on channel=9 note=47 velocity=0 time=0
EXTRACT: note_on channel=5 note=59 velocity=0 time=0
EXTRACT: note_on channel=5 note=61 velocity=0 time=0
EXTRACT: note_on channel=5 note=66 velocity=0 time=0
EXTRACT: note_on channel=10 note=59 velocity=0 time=0
EXTRACT: note_on channel=10 note=61 velocity=0 time=0
EXTRACT: note_on channel=10 note=66 velocity=0 time=0
EXTRACT: note_on channel=1 note=59 velocity=110 time=0.006696425000000001
EXTRACT: note_on channel=1 note=61 velocity=110 time=0
EXTRACT: note_on channel=1 note=66 velocity=110 time=0
EXTRACT: note_on channel=9 note=70 velocity=75 time=0
EXTRACT: note_on channel=9 note=41 velocity=75 time=0
EXTRACT: note_on channel=9 note=47 velocity=75 time=0
EXTRACT: note_on channel=5 note=59 velocity=90 time=0
EXTRACT: note_on channel=5 note=61 velocity=90 time=0
EXTRACT: note_on channel=5 note=66 velocity=90 time=0
EXTRACT: note_on channel=10 note=59 velocity=90 time=0
EXTRACT: note_on channel=10 note=61 velocity=90 time=0
EXTRACT: note_on channel=10 note=66 velocity=90 time=0
EXTRACT: note_on channel=9 note=41 velocity=127 time=0.1339285
EXTRACT: note_on channel=9 note=47 velocity=127 time=0
EXTRACT: note_on channel=9 note=70 velocity=0 time=0.127232075
EXTRACT: note_on channel=9 note=41 velocity=0 time=0
EXTRACT: note_on channel=9 note=47 velocity=0 time=0
EXTRACT: note_on channel=9 note=70 velocity=75 time=0.006696425000000001
EXTRACT: note_on channel=9 note=41 velocity=75 time=0
EXTRACT: note_on channel=9 note=47 velocity=75 time=0
EXTRACT: note_on channel=1 note=59 velocity=0 time=0.127232075
EXTRACT: note_on channel=1 note=61 velocity=0 time=0
EXTRACT: note_on channel=1 note=66 velocity=0 time=0
EXTRACT: note_on channel=9 note=70 velocity=0 time=0
EXTRACT: note_on channel=9 note=41 velocity=0 time=0
EXTRACT: note_on channel=9 note=47 velocity=0 time=0
EXTRACT: note_on channel=9 note=41 velocity=0 time=0
EXTRACT: note_on channel=9 note=47 velocity=0 time=0
EXTRACT: note_on channel=5 note=59 velocity=0 time=0
EXTRACT: note_on channel=5 note=61 velocity=0 time=0
EXTRACT: note_on channel=5 note=66 velocity=0 time=0
EXTRACT: note_on channel=10 note=59 velocity=0 time=0
EXTRACT: note_on channel=10 note=61 velocity=0 time=0
EXTRACT: note_on channel=10 note=66 velocity=0 time=0
EXTRACT: note_on channel=1 note=59 velocity=110 time=0.006696425000000001
EXTRACT: note_on channel=1 note=61 velocity=110 time=0
EXTRACT: note_on channel=1 note=65 velocity=110 time=0
EXTRACT: note_on channel=9 note=70 velocity=75 time=0
EXTRACT: note_on channel=9 note=41 velocity=75 time=0
EXTRACT: note_on channel=9 note=47 velocity=75 time=0
EXTRACT: note_on channel=5 note=59 velocity=90 time=0
EXTRACT: note_on channel=5 note=61 velocity=90 time=0
EXTRACT: note_on channel=5 note=65 velocity=90 time=0
EXTRACT: note_on channel=10 note=59 velocity=90 time=0
EXTRACT: note_on channel=10 note=61 velocity=90 time=0
EXTRACT: note_on channel=10 note=65 velocity=90 time=0
EXTRACT: note_on channel=2 note=49 velocity=0 time=0.1339285
EXTRACT: note_on channel=6 note=49 velocity=0 time=0
EXTRACT: note_on channel=1 note=59 velocity=0 time=0.127232075
EXTRACT: note_on channel=1 note=61 velocity=0 time=0
EXTRACT: note_on channel=1 note=65 velocity=0 time=0
EXTRACT: note_on channel=9 note=70 velocity=0 time=0
EXTRACT: note_on channel=9 note=41 velocity=0 time=0
EXTRACT: note_on channel=9 note=47 velocity=0 time=0
EXTRACT: note_on channel=5 note=59 velocity=0 time=0
EXTRACT: note_on channel=5 note=61 velocity=0 time=0
EXTRACT: note_on channel=5 note=65 velocity=0 time=0
EXTRACT: note_on channel=10 note=59 velocity=0 time=0
EXTRACT: note_on channel=10 note=61 velocity=0 time=0
EXTRACT: note_on channel=10 note=65 velocity=0 time=0
EXTRACT: note_on channel=1 note=66 velocity=110 time=0.006696425000000001
EXTRACT: note_on channel=1 note=70 velocity=110 time=0
EXTRACT: note_on channel=2 note=42 velocity=110 time=0
EXTRACT: note_on channel=9 note=70 velocity=75 time=0
EXTRACT: note_on channel=9 note=41 velocity=75 time=0
EXTRACT: note_on channel=9 note=47 velocity=75 time=0
EXTRACT: note_on channel=9 note=41 velocity=127 time=0
EXTRACT: note_on channel=9 note=47 velocity=127 time=0
EXTRACT: note_on channel=5 note=66 velocity=90 time=0
EXTRACT: note_on channel=5 note=70 velocity=90 time=0
EXTRACT: note_on channel=10 note=66 velocity=90 time=0
EXTRACT: note_on channel=10 note=70 velocity=90 time=0
EXTRACT: note_on channel=6 note=42 velocity=90 time=0
EXTRACT: note_on channel=1 note=66 velocity=0 time=0.261160575
EXTRACT: note_on channel=1 note=70 velocity=0 time=0
EXTRACT: note_on channel=9 note=70 velocity=0 time=0
EXTRACT: note_on channel=9 note=41 velocity=0 time=0
EXTRACT: note_on channel=9 note=47 velocity=0 time=0
EXTRACT: note_on channel=9 note=41 velocity=0 time=0
EXTRACT: note_on channel=9 note=47 velocity=0 time=0
EXTRACT: note_on channel=5 note=66 velocity=0 time=0
EXTRACT: note_on channel=5 note=70 velocity=0 time=0
EXTRACT: note_on channel=10 note=66 velocity=0 time=0
EXTRACT: note_on channel=10 note=70 velocity=0 time=0
EXTRACT: note_on channel=0 note=78 velocity=110 time=0.006696425000000001
EXTRACT: note_on channel=1 note=78 velocity=110 time=0
EXTRACT: note_on channel=9 note=70 velocity=75 time=0
EXTRACT: note_on channel=9 note=41 velocity=75 time=0
EXTRACT: note_on channel=9 note=47 velocity=75 time=0
EXTRACT: note_on channel=5 note=78 velocity=90 time=0
EXTRACT: note_on channel=10 note=78 velocity=90 time=0
EXTRACT: note_on channel=0 note=78 velocity=0 time=0.127232075
EXTRACT: note_on channel=1 note=78 velocity=0 time=0
EXTRACT: note_on channel=9 note=70 velocity=0 time=0
EXTRACT: note_on channel=9 note=41 velocity=0 time=0
EXTRACT: note_on channel=9 note=47 velocity=0 time=0
EXTRACT: note_on channel=5 note=78 velocity=0 time=0
EXTRACT: note_on channel=10 note=78 velocity=0 time=0
EXTRACT: note_on channel=0 note=78 velocity=110 time=0.006696425000000001
EXTRACT: note_on channel=1 note=78 velocity=110 time=0
EXTRACT: note_on channel=9 note=70 velocity=75 time=0
EXTRACT: note_on channel=9 note=41 velocity=75 time=0
EXTRACT: note_on channel=9 note=47 velocity=75 time=0
EXTRACT: note_on channel=5 note=78 velocity=90 time=0
EXTRACT: note_on channel=10 note=78 velocity=90 time=0
EXTRACT: note_on channel=0 note=78 velocity=0 time=0.127232075
EXTRACT: note_on channel=1 note=78 velocity=0 time=0
EXTRACT: note_on channel=5 note=78 velocity=0 time=0
EXTRACT: note_on channel=10 note=78 velocity=0 time=0
EXTRACT: note_on channel=0 note=78 velocity=110 time=0.006696425000000001
EXTRACT: note_on channel=1 note=78 velocity=110 time=0
EXTRACT: note_on channel=9 note=41 velocity=127 time=0
EXTRACT: note_on channel=9 note=47 velocity=127 time=0
EXTRACT: note_on channel=5 note=78 velocity=90 time=0
EXTRACT: note_on channel=10 note=78 velocity=90 time=0
EXTRACT: note_on channel=9 note=70 velocity=0 time=0.127232075
EXTRACT: note_on channel=9 note=41 velocity=0 time=0
EXTRACT: note_on channel=9 note=47 velocity=0 time=0
EXTRACT: note_on channel=9 note=70 velocity=75 time=0.006696425000000001
EXTRACT: note_on channel=9 note=41 velocity=75 time=0
EXTRACT: note_on channel=9 note=47 velocity=75 time=0
EXTRACT: note_on channel=0 note=78 velocity=0 time=0.127232075
EXTRACT: note_on channel=1 note=78 velocity=0 time=0
EXTRACT: note_on channel=9 note=70 velocity=0 time=0
EXTRACT: note_on channel=9 note=41 velocity=0 time=0
EXTRACT: note_on channel=9 note=47 velocity=0 time=0
EXTRACT: note_on channel=9 note=41 velocity=0 time=0
EXTRACT: note_on channel=9 note=47 velocity=0 time=0
EXTRACT: note_on channel=5 note=78 velocity=0 time=0
EXTRACT: note_on channel=10 note=78 velocity=0 time=0
EXTRACT: note_on channel=0 note=73 velocity=110 time=0.006696425000000001
EXTRACT: note_on channel=1 note=73 velocity=110 time=0
EXTRACT: note_on channel=9 note=70 velocity=75 time=0
EXTRACT: note_on channel=9 note=41 velocity=75 time=0
EXTRACT: note_on channel=9 note=47 velocity=75 time=0
EXTRACT: note_on channel=5 note=73 velocity=90 time=0
EXTRACT: note_on channel=10 note=73 velocity=90 time=0
EXTRACT: note_on channel=2 note=42 velocity=0 time=0.1339285
EXTRACT: note_on channel=6 note=42 velocity=0 time=0
EXTRACT: note_on channel=0 note=73 velocity=0 time=0.127232075
EXTRACT: note_on channel=1 note=73 velocity=0 time=0
EXTRACT: note_on channel=9 note=70 velocity=0 time=0
EXTRACT: note_on channel=9 note=41 velocity=0 time=0
EXTRACT: note_on channel=9 note=47 velocity=0 time=0
EXTRACT: note_on channel=5 note=73 velocity=0 time=0
EXTRACT: note_on channel=10 note=73 velocity=0 time=0
EXTRACT: note_on channel=0 note=73 velocity=110 time=0.006696425000000001
EXTRACT: note_on channel=1 note=66 velocity=110 time=0
EXTRACT: note_on channel=1 note=73 velocity=110 time=0
EXTRACT: note_on channel=2 note=47 velocity=110 time=0
EXTRACT: note_on channel=9 note=70 velocity=75 time=0
EXTRACT: note_on channel=9 note=41 velocity=75 time=0
EXTRACT: note_on channel=9 note=47 velocity=75 time=0
EXTRACT: note_on channel=9 note=41 velocity=127 time=0
EXTRACT: note_on channel=9 note=47 velocity=127 time=0
EXTRACT: note_on channel=5 note=66 velocity=90 time=0
EXTRACT: note_on channel=5 note=73 velocity=90 time=0
EXTRACT: note_on channel=10 note=66 velocity=90 time=0
EXTRACT: note_on channel=10 note=73 velocity=90 time=0
EXTRACT: note_on channel=6 note=47 velocity=90 time=0
EXTRACT: note_on channel=0 note=73 velocity=0 time=0.261160575
EXTRACT: note_on channel=1 note=66 velocity=0 time=0
EXTRACT: note_on channel=1 note=73 velocity=0 time=0
EXTRACT: note_on channel=9 note=70 velocity=0 time=0
EXTRACT: note_on channel=9 note=41 velocity=0 time=0
EXTRACT: note_on channel=9 note=47 velocity=0 time=0
EXTRACT: note_on channel=9 note=41 velocity=0 time=0
EXTRACT: note_on channel=9 note=47 velocity=0 time=0
EXTRACT: note_on channel=5 note=66 velocity=0 time=0
EXTRACT: note_on channel=5 note=73 velocity=0 time=0
EXTRACT: note_on channel=10 note=66 velocity=0 time=0
EXTRACT: note_on channel=10 note=73 velocity=0 time=0
EXTRACT: note_on channel=0 note=73 velocity=110 time=0.006696425000000001
EXTRACT: note_on channel=1 note=73 velocity=110 time=0
EXTRACT: note_on channel=9 note=70 velocity=75 time=0
EXTRACT: note_on channel=9 note=41 velocity=75 time=0
EXTRACT: note_on channel=9 note=47 velocity=75 time=0
EXTRACT: note_on channel=5 note=73 velocity=90 time=0
EXTRACT: note_on channel=10 note=73 velocity=90 time=0
EXTRACT: note_on channel=0 note=73 velocity=0 time=0.127232075
EXTRACT: note_on channel=1 note=73 velocity=0 time=0
EXTRACT: note_on channel=9 note=70 velocity=0 time=0
EXTRACT: note_on channel=9 note=41 velocity=0 time=0
EXTRACT: note_on channel=9 note=47 velocity=0 time=0
EXTRACT: note_on channel=5 note=73 velocity=0 time=0
EXTRACT: note_on channel=10 note=73 velocity=0 time=0
EXTRACT: note_on channel=0 note=75 velocity=110 time=0.006696425000000001
EXTRACT: note_on channel=1 note=75 velocity=110 time=0
EXTRACT: note_on channel=9 note=70 velocity=75 time=0
EXTRACT: note_on channel=9 note=41 velocity=75 time=0
EXTRACT: note_on channel=9 note=47 velocity=75 time=0
EXTRACT: note_on channel=5 note=75 velocity=90 time=0
EXTRACT: note_on channel=10 note=75 velocity=90 time=0
EXTRACT: note_on channel=2 note=47 velocity=0 time=0.04464283333333333
EXTRACT: note_on channel=6 note=47 velocity=0 time=0
EXTRACT: note_on channel=2 note=46 velocity=110 time=0.08928566666666667
EXTRACT: note_on channel=9 note=41 velocity=127 time=0
EXTRACT: note_on channel=9 note=47 velocity=127 time=0
EXTRACT: note_on channel=6 note=46 velocity=90 time=0
EXTRACT: note_on channel=0 note=75 velocity=0 time=0.127232075
EXTRACT: note_on channel=1 note=75 velocity=0 time=0
EXTRACT: note_on channel=9 note=70 velocity=0 time=0
EXTRACT: note_on channel=9 note=41 velocity=0 time=0
EXTRACT: note_on channel=9 note=47 velocity=0 time=0
EXTRACT: note_on channel=5 note=75 velocity=0 time=0
EXTRACT: note_on channel=10 note=75 velocity=0 time=0
EXTRACT: note_on channel=0 note=75 velocity=110 time=0.006696425000000001
EXTRACT: note_on channel=1 note=75 velocity=110 time=0
EXTRACT: note_on channel=9 note=70 velocity=75 time=0
EXTRACT: note_on channel=9 note=41 velocity=75 time=0
EXTRACT: note_on channel=9 note=47 velocity=75 time=0
EXTRACT: note_on channel=5 note=75 velocity=90 time=0
EXTRACT: note_on channel=10 note=75 velocity=90 time=0
EXTRACT: note_on channel=0 note=75 velocity=0 time=0.127232075
EXTRACT: note_on channel=1 note=75 velocity=0 time=0
EXTRACT: note_on channel=9 note=70 velocity=0 time=0
EXTRACT: note_on channel=9 note=41 velocity=0 time=0
EXTRACT: note_on channel=9 note=47 velocity=0 time=0
EXTRACT: note_on channel=9 note=41 velocity=0 time=0
EXTRACT: note_on channel=9 note=47 velocity=0 time=0
EXTRACT: note_on channel=5 note=75 velocity=0 time=0
EXTRACT: note_on channel=10 note=75 velocity=0 time=0
EXTRACT: note_on channel=0 note=73 velocity=110 time=0.006696425000000001
EXTRACT: note_on channel=1 note=73 velocity=110 time=0
EXTRACT: note_on channel=9 note=70 velocity=75 time=0
EXTRACT: note_on channel=9 note=41 velocity=75 time=0
EXTRACT: note_on channel=9 note=47 velocity=75 time=0
EXTRACT: note_on channel=5 note=73 velocity=90 time=0
EXTRACT: note_on channel=10 note=73 velocity=90 time=0
EXTRACT: note_on channel=2 note=46 velocity=0 time=0.17857133333333333
EXTRACT: note_on channel=6 note=46 velocity=0 time=0
EXTRACT: note_on channel=0 note=73 velocity=0 time=0.08258924166666667
EXTRACT: note_on channel=1 note=73 velocity=0 time=0
EXTRACT: note_on channel=9 note=70 velocity=0 time=0
EXTRACT: note_on channel=9 note=41 velocity=0 time=0
EXTRACT: note_on channel=9 note=47 velocity=0 time=0
EXTRACT: note_on channel=5 note=73 velocity=0 time=0
EXTRACT: note_on channel=10 note=73 velocity=0 time=0
EXTRACT: note_on channel=1 note=68 velocity=110 time=0.006696425000000001
EXTRACT: note_on channel=1 note=71 velocity=110 time=0
EXTRACT: note_on channel=2 note=44 velocity=110 time=0
EXTRACT: note_on channel=9 note=70 velocity=75 time=0
EXTRACT: note_on channel=9 note=41 velocity=75 time=0
EXTRACT: note_on channel=9 note=47 velocity=75 time=0
EXTRACT: note_on channel=9 note=41 velocity=127 time=0
EXTRACT: note_on channel=9 note=47 velocity=127 time=0
EXTRACT: note_on channel=5 note=68 velocity=90 time=0
EXTRACT: note_on channel=5 note=71 velocity=90 time=0
EXTRACT: note_on channel=10 note=68 velocity=90 time=0
EXTRACT: note_on channel=10 note=71 velocity=90 time=0
EXTRACT: note_on channel=6 note=44 velocity=90 time=0
EXTRACT: note_on channel=1 note=68 velocity=0 time=0.261160575
EXTRACT: note_on channel=1 note=71 velocity=0 time=0
EXTRACT: note_on channel=9 note=70 velocity=0 time=0
EXTRACT: note_on channel=9 note=41 velocity=0 time=0
EXTRACT: note_on channel=9 note=47 velocity=0 time=0
EXTRACT: note_on channel=9 note=41 velocity=0 time=0
EXTRACT: note_on channel=9 note=47 velocity=0 time=0
EXTRACT: note_on channel=5 note=68 velocity=0 time=0
EXTRACT: note_on channel=5 note=71 velocity=0 time=0
EXTRACT: note_on channel=10 note=68 velocity=0 time=0
EXTRACT: note_on channel=10 note=71 velocity=0 time=0
EXTRACT: note_on channel=0 note=78 velocity=110 time=0.006696425000000001
EXTRACT: note_on channel=1 note=78 velocity=110 time=0
EXTRACT: note_on channel=9 note=70 velocity=75 time=0
EXTRACT: note_on channel=9 note=41 velocity=75 time=0
EXTRACT: note_on channel=9 note=47 velocity=75 time=0
EXTRACT: note_on channel=5 note=78 velocity=90 time=0
EXTRACT: note_on channel=10 note=78 velocity=90 time=0
EXTRACT: note_on channel=0 note=78 velocity=0 time=0.127232075
EXTRACT: note_on channel=1 note=78 velocity=0 time=0
EXTRACT: note_on channel=9 note=70 velocity=0 time=0
EXTRACT: note_on channel=9 note=41 velocity=0 time=0
EXTRACT: note_on channel=9 note=47 velocity=0 time=0
EXTRACT: note_on channel=5 note=78 velocity=0 time=0
EXTRACT: note_on channel=10 note=78 velocity=0 time=0
EXTRACT: note_on channel=0 note=78 velocity=110 time=0.006696425000000001
EXTRACT: note_on channel=1 note=78 velocity=110 time=0
EXTRACT: note_on channel=9 note=70 velocity=75 time=0
EXTRACT: note_on channel=9 note=41 velocity=75 time=0
EXTRACT: note_on channel=9 note=47 velocity=75 time=0
EXTRACT: note_on channel=5 note=78 velocity=90 time=0
EXTRACT: note_on channel=10 note=78 velocity=90 time=0
EXTRACT: note_on channel=0 note=78 velocity=0 time=0.127232075
EXTRACT: note_on channel=1 note=78 velocity=0 time=0
EXTRACT: note_on channel=5 note=78 velocity=0 time=0
EXTRACT: note_on channel=10 note=78 velocity=0 time=0
EXTRACT: note_on channel=0 note=78 velocity=110 time=0.006696425000000001
EXTRACT: note_on channel=1 note=78 velocity=110 time=0
EXTRACT: note_on channel=9 note=41 velocity=127 time=0
EXTRACT: note_on channel=9 note=47 velocity=127 time=0
EXTRACT: note_on channel=5 note=78 velocity=90 time=0
EXTRACT: note_on channel=10 note=78 velocity=90 time=0
EXTRACT: note_on channel=9 note=70 velocity=0 time=0.127232075
EXTRACT: note_on channel=9 note=41 velocity=0 time=0
EXTRACT: note_on channel=9 note=47 velocity=0 time=0
EXTRACT: note_on channel=9 note=70 velocity=75 time=0.006696425000000001
EXTRACT: note_on channel=9 note=41 velocity=75 time=0
EXTRACT: note_on channel=9 note=47 velocity=75 time=0
EXTRACT: note_on channel=0 note=78 velocity=0 time=0.127232075
EXTRACT: note_on channel=1 note=78 velocity=0 time=0
EXTRACT: note_on channel=9 note=70 velocity=0 time=0
EXTRACT: note_on channel=9 note=41 velocity=0 time=0
EXTRACT: note_on channel=9 note=47 velocity=0 time=0
EXTRACT: note_on channel=9 note=41 velocity=0 time=0
EXTRACT: note_on channel=9 note=47 velocity=0 time=0
EXTRACT: note_on channel=5 note=78 velocity=0 time=0
EXTRACT: note_on channel=10 note=78 velocity=0 time=0
EXTRACT: note_on channel=0 note=73 velocity=110 time=0.006696425000000001
EXTRACT: note_on channel=1 note=73 velocity=110 time=0
EXTRACT: note_on channel=9 note=70 velocity=75 time=0
EXTRACT: note_on channel=9 note=41 velocity=75 time=0
EXTRACT: note_on channel=9 note=47 velocity=75 time=0
EXTRACT: note_on channel=5 note=73 velocity=90 time=0
EXTRACT: note_on channel=10 note=73 velocity=90 time=0
EXTRACT: note_on channel=2 note=44 velocity=0 time=0.1339285
EXTRACT: note_on channel=6 note=44 velocity=0 time=0
EXTRACT: note_on channel=0 note=73 velocity=0 time=0.127232075
EXTRACT: note_on channel=1 note=73 velocity=0 time=0
EXTRACT: note_on channel=9 note=70 velocity=0 time=0
EXTRACT: note_on channel=9 note=41 velocity=0 time=0
EXTRACT: note_on channel=9 note=47 velocity=0 time=0
EXTRACT: note_on channel=5 note=73 velocity=0 time=0
EXTRACT: note_on channel=10 note=73 velocity=0 time=0
EXTRACT: note_on channel=0 note=73 velocity=110 time=0.006696425000000001
EXTRACT: note_on channel=1 note=66 velocity=110 time=0
EXTRACT: note_on channel=1 note=68 velocity=110 time=0
EXTRACT: note_on channel=1 note=73 velocity=110 time=0
EXTRACT: note_on channel=2 note=49 velocity=110 time=0
EXTRACT: note_on channel=9 note=70 velocity=75 time=0
EXTRACT: note_on channel=9 note=41 velocity=75 time=0
EXTRACT: note_on channel=9 note=47 velocity=75 time=0
EXTRACT: note_on channel=9 note=41 velocity=127 time=0
EXTRACT: note_on channel=9 note=47 velocity=127 time=0
EXTRACT: note_on channel=5 note=66 velocity=90 time=0
EXTRACT: note_on channel=5 note=68 velocity=90 time=0
EXTRACT: note_on channel=5 note=73 velocity=90 time=0
EXTRACT: note_on channel=10 note=66 velocity=90 time=0
EXTRACT: note_on channel=10 note=68 velocity=90 time=0
EXTRACT: note_on channel=10 note=73 velocity=90 time=0
EXTRACT: note_on channel=6 note=49 velocity=90 time=0
EXTRACT: note_on channel=9 note=70 velocity=0 time=0.261160575
EXTRACT: note_on channel=9 note=41 velocity=0 time=0
EXTRACT: note_on channel=9 note=47 velocity=0 time=0
EXTRACT: note_on channel=9 note=41 velocity=0 time=0
EXTRACT: note_on channel=9 note=47 velocity=0 time=0
EXTRACT: note_on channel=9 note=70 velocity=75 time=0.006696425000000001
EXTRACT: note_on channel=9 note=41 velocity=75 time=0
EXTRACT: note_on channel=9 note=47 velocity=75 time=0
EXTRACT: note_on channel=0 note=73 velocity=0 time=0.127232075
EXTRACT: note_on channel=1 note=66 velocity=0 time=0
EXTRACT: note_on channel=1 note=68 velocity=0 time=0
EXTRACT: note_on channel=1 note=73 velocity=0 time=0
EXTRACT: note_on channel=9 note=70 velocity=0 time=0
EXTRACT: note_on channel=9 note=41 velocity=0 time=0
EXTRACT: note_on channel=9 note=47 velocity=0 time=0
EXTRACT: note_on channel=5 note=66 velocity=0 time=0
EXTRACT: note_on channel=5 note=68 velocity=0 time=0
EXTRACT: note_on channel=5 note=73 velocity=0 time=0
EXTRACT: note_on channel=10 note=66 velocity=0 time=0
EXTRACT: note_on channel=10 note=68 velocity=0 time=0
EXTRACT: note_on channel=10 note=73 velocity=0 time=0
EXTRACT: note_on channel=0 note=73 velocity=110 time=0.006696425000000001
EXTRACT: note_on channel=1 note=73 velocity=110 time=0
EXTRACT: note_on channel=9 note=70 velocity=75 time=0
EXTRACT: note_on channel=9 note=41 velocity=75 time=0
EXTRACT: note_on channel=9 note=47 velocity=75 time=0
EXTRACT: note_on channel=5 note=73 velocity=90 time=0
EXTRACT: note_on channel=10 note=73 velocity=90 time=0
EXTRACT: note_on channel=9 note=41 velocity=127 time=0.1339285
EXTRACT: note_on channel=9 note=47 velocity=127 time=0
EXTRACT: note_on channel=9 note=70 velocity=0 time=0.127232075
EXTRACT: note_on channel=9 note=41 velocity=0 time=0
EXTRACT: note_on channel=9 note=47 velocity=0 time=0
EXTRACT: note_on channel=9 note=70 velocity=75 time=0.006696425000000001
EXTRACT: note_on channel=9 note=41 velocity=75 time=0
EXTRACT: note_on channel=9 note=47 velocity=75 time=0
EXTRACT: note_on channel=0 note=73 velocity=0 time=0.127232075
EXTRACT: note_on channel=1 note=73 velocity=0 time=0
EXTRACT: note_on channel=9 note=70 velocity=0 time=0
EXTRACT: note_on channel=9 note=41 velocity=0 time=0
EXTRACT: note_on channel=9 note=47 velocity=0 time=0
EXTRACT: note_on channel=9 note=41 velocity=0 time=0
EXTRACT: note_on channel=9 note=47 velocity=0 time=0
EXTRACT: note_on channel=5 note=73 velocity=0 time=0
EXTRACT: note_on channel=10 note=73 velocity=0 time=0
EXTRACT: note_on channel=0 note=83 velocity=110 time=0.006696425000000001
EXTRACT: note_on channel=1 note=83 velocity=110 time=0
EXTRACT: note_on channel=9 note=70 velocity=75 time=0
EXTRACT: note_on channel=9 note=41 velocity=75 time=0
EXTRACT: note_on channel=9 note=47 velocity=75 time=0
EXTRACT: note_on channel=5 note=83 velocity=90 time=0
EXTRACT: note_on channel=10 note=83 velocity=90 time=0
EXTRACT: note_on channel=2 note=49 velocity=0 time=0.1339285
EXTRACT: note_on channel=6 note=49 velocity=0 time=0
EXTRACT: note_on channel=0 note=83 velocity=0 time=0.127232075
EXTRACT: note_on channel=1 note=83 velocity=0 time=0
EXTRACT: note_on channel=9 note=70 velocity=0 time=0
EXTRACT: note_on channel=9 note=41 velocity=0 time=0
EXTRACT: note_on channel=9 note=47 velocity=0 time=0
EXTRACT: note_on channel=5 note=83 velocity=0 time=0
EXTRACT: note_on channel=10 note=83 velocity=0 time=0
EXTRACT: note_on channel=0 note=82 velocity=110 time=0.006696425000000001
EXTRACT: note_on channel=1 note=73 velocity=110 time=0
EXTRACT: note_on channel=1 note=78 velocity=110 time=0
EXTRACT: note_on channel=1 note=82 velocity=110 time=0
EXTRACT: note_on channel=2 note=42 velocity=110 time=0
EXTRACT: note_on channel=9 note=70 velocity=75 time=0
EXTRACT: note_on channel=9 note=41 velocity=75 time=0
EXTRACT: note_on channel=9 note=47 velocity=75 time=0
EXTRACT: note_on channel=9 note=41 velocity=127 time=0
EXTRACT: note_on channel=9 note=47 velocity=127 time=0
EXTRACT: note_on channel=5 note=73 velocity=90 time=0
EXTRACT: note_on channel=5 note=78 velocity=90 time=0
EXTRACT: note_on channel=5 note=82 velocity=90 time=0
EXTRACT: note_on channel=10 note=73 velocity=90 time=0
EXTRACT: note_on channel=10 note=78 velocity=90 time=0
EXTRACT: note_on channel=10 note=82 velocity=90 time=0
EXTRACT: note_on channel=6 note=42 velocity=90 time=0
EXTRACT: note_on channel=9 note=70 velocity=0 time=0.261160575
EXTRACT: note_on channel=9 note=41 velocity=0 time=0
EXTRACT: note_on channel=9 note=47 velocity=0 time=0
EXTRACT: note_on channel=9 note=41 velocity=0 time=0
EXTRACT: note_on channel=9 note=47 velocity=0 time=0
EXTRACT: note_on channel=9 note=70 velocity=75 time=0.006696425000000001
EXTRACT: note_on channel=9 note=41 velocity=75 time=0
EXTRACT: note_on channel=9 note=47 velocity=75 time=0
EXTRACT: note_on channel=9 note=70 velocity=0 time=0.127232075
EXTRACT: note_on channel=9 note=41 velocity=0 time=0
EXTRACT: note_on channel=9 note=47 velocity=0 time=0
EXTRACT: note_on channel=9 note=70 velocity=75 time=0.006696425000000001
EXTRACT: note_on channel=9 note=41 velocity=75 time=0
EXTRACT: note_on channel=9 note=47 velocity=75 time=0
EXTRACT: note_on channel=9 note=41 velocity=127 time=0.1339285
EXTRACT: note_on channel=9 note=47 velocity=127 time=0
EXTRACT: note_on channel=9 note=70 velocity=0 time=0.127232075
EXTRACT: note_on channel=9 note=41 velocity=0 time=0
EXTRACT: note_on channel=9 note=47 velocity=0 time=0
EXTRACT: note_on channel=9 note=70 velocity=75 time=0.006696425000000001
EXTRACT: note_on channel=9 note=41 velocity=75 time=0
EXTRACT: note_on channel=9 note=47 velocity=75 time=0
EXTRACT: note_on channel=9 note=70 velocity=0 time=0.127232075
EXTRACT: note_on channel=9 note=41 velocity=0 time=0
EXTRACT: note_on channel=9 note=47 velocity=0 time=0
EXTRACT: note_on channel=9 note=41 velocity=0 time=0
EXTRACT: note_on channel=9 note=47 velocity=0 time=0
EXTRACT: note_on channel=9 note=70 velocity=75 time=0.006696425000000001
EXTRACT: note_on channel=9 note=41 velocity=75 time=0
EXTRACT: note_on channel=9 note=47 velocity=75 time=0
EXTRACT: note_on channel=0 note=82 velocity=0 time=0.1339285
EXTRACT: note_on channel=1 note=73 velocity=0 time=0
EXTRACT: note_on channel=1 note=78 velocity=0 time=0
EXTRACT: note_on channel=1 note=82 velocity=0 time=0
EXTRACT: note_on channel=2 note=42 velocity=0 time=0
EXTRACT: note_on channel=5 note=73 velocity=0 time=0
EXTRACT: note_on channel=5 note=78 velocity=0 time=0
EXTRACT: note_on channel=5 note=82 velocity=0 time=0
EXTRACT: note_on channel=10 note=73 velocity=0 time=0
EXTRACT: note_on channel=10 note=78 velocity=0 time=0
EXTRACT: note_on channel=10 note=82 velocity=0 time=0
EXTRACT: note_on channel=6 note=42 velocity=0 time=0
EXTRACT: note_on channel=9 note=70 velocity=0 time=0.127232075
EXTRACT: note_on channel=9 note=41 velocity=0 time=0
EXTRACT: note_on channel=9 note=47 velocity=0 time=0
EXTRACT: note_on channel=1 note=75 velocity=110 time=0.006696425000000001
EXTRACT: note_on channel=1 note=78 velocity=110 time=0
EXTRACT: note_on channel=2 note=47 velocity=110 time=0
EXTRACT: note_on channel=9 note=70 velocity=75 time=0
EXTRACT: note_on channel=9 note=41 velocity=75 time=0
EXTRACT: note_on channel=9 note=47 velocity=75 time=0
EXTRACT: note_on channel=9 note=41 velocity=127 time=0
EXTRACT: note_on channel=9 note=47 velocity=127 time=0
EXTRACT: note_on channel=5 note=75 velocity=90 time=0
EXTRACT: note_on channel=5 note=78 velocity=90 time=0
EXTRACT: note_on channel=10 note=75 velocity=90 time=0
EXTRACT: note_on channel=10 note=78 velocity=90 time=0
EXTRACT: note_on channel=6 note=47 velocity=90 time=0
EXTRACT: note_on channel=1 note=75 velocity=0 time=0.261160575
EXTRACT: note_on channel=1 note=78 velocity=0 time=0
EXTRACT: note_on channel=9 note=70 velocity=0 time=0
EXTRACT: note_on channel=9 note=41 velocity=0 time=0
EXTRACT: note_on channel=9 note=47 velocity=0 time=0
EXTRACT: note_on channel=9 note=41 velocity=0 time=0
EXTRACT: note_on channel=9 note=47 velocity=0 time=0
EXTRACT: note_on channel=5 note=75 velocity=0 time=0
EXTRACT: note_on channel=5 note=78 velocity=0 time=0
EXTRACT: note_on channel=10 note=75 velocity=0 time=0
EXTRACT: note_on channel=10 note=78 velocity=0 time=0
EXTRACT: note_on channel=0 note=85 velocity=110 time=0.006696425000000001
EXTRACT: note_on channel=1 note=85 velocity=110 time=0
EXTRACT: note_on channel=9 note=70 velocity=75 time=0
EXTRACT: note_on channel=9 note=41 velocity=75 time=0
EXTRACT: note_on channel=9 note=47 velocity=75 time=0
EXTRACT: note_on channel=5 note=85 velocity=90 time=0
EXTRACT: note_on channel=10 note=85 velocity=90 time=0
EXTRACT: note_on channel=9 note=70 velocity=0 time=0.127232075
EXTRACT: note_on channel=9 note=41 velocity=0 time=0
EXTRACT: note_on channel=9 note=47 velocity=0 time=0
EXTRACT: note_on channel=9 note=70 velocity=75 time=0.006696425000000001
EXTRACT: note_on channel=9 note=41 velocity=75 time=0
EXTRACT: note_on channel=9 note=47 velocity=75 time=0
EXTRACT: note_on channel=2 note=47 velocity=0 time=0.04464283333333333
EXTRACT: note_on channel=6 note=47 velocity=0 time=0
EXTRACT: note_on channel=2 note=46 velocity=110 time=0.08928566666666667
EXTRACT: note_on channel=9 note=41 velocity=127 time=0
EXTRACT: note_on channel=9 note=47 velocity=127 time=0
EXTRACT: note_on channel=6 note=46 velocity=90 time=0
EXTRACT: note_on channel=9 note=70 velocity=0 time=0.127232075
EXTRACT: note_on channel=9 note=41 velocity=0 time=0
EXTRACT: note_on channel=9 note=47 velocity=0 time=0
EXTRACT: note_on channel=9 note=70 velocity=75 time=0.006696425000000001
EXTRACT: note_on channel=9 note=41 velocity=75 time=0
EXTRACT: note_on channel=9 note=47 velocity=75 time=0
EXTRACT: note_on channel=0 note=85 velocity=0 time=0.127232075
EXTRACT: note_on channel=1 note=85 velocity=0 time=0
EXTRACT: note_on channel=9 note=70 velocity=0 time=0
EXTRACT: note_on channel=9 note=41 velocity=0 time=0
EXTRACT: note_on channel=9 note=47 velocity=0 time=0
EXTRACT: note_on channel=9 note=41 velocity=0 time=0
EXTRACT: note_on channel=9 note=47 velocity=0 time=0
EXTRACT: note_on channel=5 note=85 velocity=0 time=0
EXTRACT: note_on channel=10 note=85 velocity=0 time=0
EXTRACT: note_on channel=0 note=82 velocity=110 time=0.006696425000000001
EXTRACT: note_on channel=1 note=82 velocity=110 time=0
EXTRACT: note_on channel=9 note=70 velocity=75 time=0
EXTRACT: note_on channel=9 note=41 velocity=75 time=0
EXTRACT: note_on channel=9 note=47 velocity=75 time=0
EXTRACT: note_on channel=5 note=82 velocity=90 time=0
EXTRACT: note_on channel=10 note=82 velocity=90 time=0
EXTRACT: note_on channel=2 note=46 velocity=0 time=0.17857133333333333
EXTRACT: note_on channel=6 note=46 velocity=0 time=0
EXTRACT: note_on channel=0 note=82 velocity=0 time=0.08258924166666667
EXTRACT: note_on channel=1 note=82 velocity=0 time=0
EXTRACT: note_on channel=9 note=70 velocity=0 time=0
EXTRACT: note_on channel=9 note=41 velocity=0 time=0
EXTRACT: note_on channel=9 note=47 velocity=0 time=0
EXTRACT: note_on channel=5 note=82 velocity=0 time=0
EXTRACT: note_on channel=10 note=82 velocity=0 time=0
EXTRACT: note_on channel=0 note=80 velocity=110 time=0.006696425000000001
EXTRACT: note_on channel=1 note=71 velocity=110 time=0
EXTRACT: note_on channel=1 note=75 velocity=110 time=0
EXTRACT: note_on channel=1 note=80 velocity=110 time=0
EXTRACT: note_on channel=2 note=44 velocity=110 time=0
EXTRACT: note_on channel=9 note=70 velocity=75 time=0
EXTRACT: note_on channel=9 note=41 velocity=75 time=0
EXTRACT: note_on channel=9 note=47 velocity=75 time=0
EXTRACT: note_on channel=9 note=41 velocity=127 time=0
EXTRACT: note_on channel=9 note=47 velocity=127 time=0
EXTRACT: note_on channel=5 note=71 velocity=90 time=0
EXTRACT: note_on channel=5 note=75 velocity=90 time=0
EXTRACT: note_on channel=5 note=80 velocity=90 time=0
EXTRACT: note_on channel=10 note=71 velocity=90 time=0
EXTRACT: note_on channel=10 note=75 velocity=90 time=0
EXTRACT: note_on channel=10 note=80 velocity=90 time=0
EXTRACT: note_on channel=6 note=44 velocity=90 time=0
EXTRACT: note_on channel=9 note=70 velocity=0 time=0.060267825000000004
EXTRACT: note_on channel=9 note=41 velocity=0 time=0
EXTRACT: note_on channel=9 note=47 velocity=0 time=0
EXTRACT: note_on channel=9 note=70 velocity=75 time=0.006696425000000001
EXTRACT: note_on channel=9 note=41 velocity=75 time=0
EXTRACT: note_on channel=9 note=47 velocity=75 time=0
EXTRACT: note_on channel=9 note=70 velocity=0 time=0.060267825000000004
EXTRACT: note_on channel=9 note=41 velocity=0 time=0
EXTRACT: note_on channel=9 note=47 velocity=0 time=0
EXTRACT: note_on channel=9 note=70 velocity=75 time=0.006696425000000001
EXTRACT: note_on channel=9 note=41 velocity=75 time=0
EXTRACT: note_on channel=9 note=47 velocity=75 time=0
EXTRACT: note_on channel=9 note=41 velocity=0 time=0.127232075
EXTRACT: note_on channel=9 note=47 velocity=0 time=0
EXTRACT: note_on channel=9 note=70 velocity=0 time=0.1339285
EXTRACT: note_on channel=9 note=41 velocity=0 time=0
EXTRACT: note_on channel=9 note=47 velocity=0 time=0
EXTRACT: note_on channel=9 note=70 velocity=75 time=0.006696425000000001
EXTRACT: note_on channel=9 note=41 velocity=75 time=0
EXTRACT: note_on channel=9 note=47 velocity=75 time=0
EXTRACT: note_on channel=0 note=80 velocity=0 time=0.04464283333333333
EXTRACT: note_on channel=9 note=41 velocity=127 time=0.08928566666666667
EXTRACT: note_on channel=9 note=47 velocity=127 time=0
EXTRACT: note_on channel=9 note=70 velocity=0 time=0.127232075
EXTRACT: note_on channel=9 note=41 velocity=0 time=0
EXTRACT: note_on channel=9 note=47 velocity=0 time=0
EXTRACT: note_on channel=9 note=70 velocity=75 time=0.006696425000000001
EXTRACT: note_on channel=9 note=41 velocity=75 time=0
EXTRACT: note_on channel=9 note=47 velocity=75 time=0
EXTRACT: note_on channel=9 note=41 velocity=0 time=0.127232075
EXTRACT: note_on channel=9 note=47 velocity=0 time=0
EXTRACT: note_on channel=1 note=71 velocity=0 time=0.1339285
EXTRACT: note_on channel=1 note=75 velocity=0 time=0
EXTRACT: note_on channel=1 note=80 velocity=0 time=0
EXTRACT: note_on channel=9 note=70 velocity=0 time=0
EXTRACT: note_on channel=9 note=41 velocity=0 time=0
EXTRACT: note_on channel=9 note=47 velocity=0 time=0
EXTRACT: note_on channel=5 note=71 velocity=0 time=0
EXTRACT: note_on channel=5 note=75 velocity=0 time=0
EXTRACT: note_on channel=5 note=80 velocity=0 time=0
EXTRACT: note_on channel=10 note=71 velocity=0 time=0
EXTRACT: note_on channel=10 note=75 velocity=0 time=0
EXTRACT: note_on channel=10 note=80 velocity=0 time=0
EXTRACT: note_on channel=0 note=73 velocity=110 time=0.006696425000000001
EXTRACT: note_on channel=1 note=73 velocity=110 time=0
EXTRACT: note_on channel=2 note=44 velocity=0 time=0
EXTRACT: note_on channel=9 note=70 velocity=75 time=0
EXTRACT: note_on channel=9 note=41 velocity=75 time=0
EXTRACT: note_on channel=9 note=47 velocity=75 time=0
EXTRACT: note_on channel=5 note=73 velocity=90 time=0
EXTRACT: note_on channel=10 note=73 velocity=90 time=0
EXTRACT: note_on channel=6 note=44 velocity=0 time=0
EXTRACT: note_on channel=0 note=73 velocity=0 time=0.127232075
EXTRACT: note_on channel=1 note=73 velocity=0 time=0
EXTRACT: note_on channel=9 note=70 velocity=0 time=0
EXTRACT: note_on channel=9 note=41 velocity=0 time=0
EXTRACT: note_on channel=9 note=47 velocity=0 time=0
EXTRACT: note_on channel=5 note=73 velocity=0 time=0
EXTRACT: note_on channel=10 note=73 velocity=0 time=0
EXTRACT: note_on channel=0 note=73 velocity=110 time=0.006696425000000001
EXTRACT: note_on channel=1 note=66 velocity=110 time=0
EXTRACT: note_on channel=1 note=68 velocity=110 time=0
EXTRACT: note_on channel=1 note=73 velocity=110 time=0
EXTRACT: note_on channel=2 note=49 velocity=110 time=0
EXTRACT: note_on channel=9 note=70 velocity=75 time=0
EXTRACT: note_on channel=9 note=41 velocity=75 time=0
EXTRACT: note_on channel=9 note=47 velocity=75 time=0
EXTRACT: note_on channel=9 note=41 velocity=127 time=0
EXTRACT: note_on channel=9 note=47 velocity=127 time=0
EXTRACT: note_on channel=5 note=66 velocity=90 time=0
EXTRACT: note_on channel=5 note=68 velocity=90 time=0
EXTRACT: note_on channel=5 note=73 velocity=90 time=0
EXTRACT: note_on channel=10 note=66 velocity=90 time=0
EXTRACT: note_on channel=10 note=68 velocity=90 time=0
EXTRACT: note_on channel=10 note=73 velocity=90 time=0
EXTRACT: note_on channel=6 note=49 velocity=90 time=0
EXTRACT: note_on channel=9 note=70 velocity=0 time=0.127232075
EXTRACT: note_on channel=9 note=41 velocity=0 time=0
EXTRACT: note_on channel=9 note=47 velocity=0 time=0
EXTRACT: note_on channel=9 note=70 velocity=75 time=0.006696425000000001
EXTRACT: note_on channel=9 note=41 velocity=75 time=0
EXTRACT: note_on channel=9 note=47 velocity=75 time=0
EXTRACT: note_on channel=9 note=70 velocity=0 time=0.127232075
EXTRACT: note_on channel=9 note=41 velocity=0 time=0
EXTRACT: note_on channel=9 note=47 velocity=0 time=0
EXTRACT: note_on channel=9 note=41 velocity=0 time=0
EXTRACT: note_on channel=9 note=47 velocity=0 time=0
EXTRACT: note_on channel=9 note=70 velocity=75 time=0.006696425000000001
EXTRACT: note_on channel=9 note=41 velocity=75 time=0
EXTRACT: note_on channel=9 note=47 velocity=75 time=0
EXTRACT: note_on channel=0 note=73 velocity=0 time=0.127232075
EXTRACT: note_on channel=1 note=66 velocity=0 time=0
EXTRACT: note_on channel=1 note=68 velocity=0 time=0
EXTRACT: note_on channel=1 note=73 velocity=0 time=0
EXTRACT: note_on channel=9 note=70 velocity=0 time=0
EXTRACT: note_on channel=9 note=41 velocity=0 time=0
EXTRACT: note_on channel=9 note=47 velocity=0 time=0
EXTRACT: note_on channel=5 note=66 velocity=0 time=0
EXTRACT: note_on channel=5 note=68 velocity=0 time=0
EXTRACT: note_on channel=5 note=73 velocity=0 time=0
EXTRACT: note_on channel=10 note=66 velocity=0 time=0
EXTRACT: note_on channel=10 note=68 velocity=0 time=0
EXTRACT: note_on channel=10 note=73 velocity=0 time=0
EXTRACT: note_on channel=0 note=73 velocity=110 time=0.006696425000000001
EXTRACT: note_on channel=1 note=66 velocity=110 time=0
EXTRACT: note_on channel=1 note=68 velocity=110 time=0
EXTRACT: note_on channel=1 note=73 velocity=110 time=0
EXTRACT: note_on channel=9 note=70 velocity=75 time=0
EXTRACT: note_on channel=9 note=41 velocity=75 time=0
EXTRACT: note_on channel=9 note=47 velocity=75 time=0
EXTRACT: note_on channel=5 note=66 velocity=90 time=0
EXTRACT: note_on channel=5 note=68 velocity=90 time=0
EXTRACT: note_on channel=5 note=73 velocity=90 time=0
EXTRACT: note_on channel=10 note=66 velocity=90 time=0
EXTRACT: note_on channel=10 note=68 velocity=90 time=0
EXTRACT: note_on channel=10 note=73 velocity=90 time=0
EXTRACT: note_on channel=9 note=70 velocity=0 time=0.127232075
EXTRACT: note_on channel=9 note=41 velocity=0 time=0
EXTRACT: note_on channel=9 note=47 velocity=0 time=0
EXTRACT: note_on channel=9 note=70 velocity=75 time=0.006696425000000001
EXTRACT: note_on channel=9 note=41 velocity=75 time=0
EXTRACT: note_on channel=9 note=47 velocity=75 time=0
EXTRACT: note_on channel=9 note=41 velocity=127 time=0
EXTRACT: note_on channel=9 note=47 velocity=127 time=0
EXTRACT: note_on channel=9 note=70 velocity=0 time=0.127232075
EXTRACT: note_on channel=9 note=41 velocity=0 time=0
EXTRACT: note_on channel=9 note=47 velocity=0 time=0
EXTRACT: note_on channel=9 note=70 velocity=75 time=0.006696425000000001
EXTRACT: note_on channel=9 note=41 velocity=75 time=0
EXTRACT: note_on channel=9 note=47 velocity=75 time=0
EXTRACT: note_on channel=0 note=73 velocity=0 time=0.127232075
EXTRACT: note_on channel=1 note=66 velocity=0 time=0
EXTRACT: note_on channel=1 note=68 velocity=0 time=0
EXTRACT: note_on channel=1 note=73 velocity=0 time=0
EXTRACT: note_on channel=9 note=70 velocity=0 time=0
EXTRACT: note_on channel=9 note=41 velocity=0 time=0
EXTRACT: note_on channel=9 note=47 velocity=0 time=0
EXTRACT: note_on channel=9 note=41 velocity=0 time=0
EXTRACT: note_on channel=9 note=47 velocity=0 time=0
EXTRACT: note_on channel=5 note=66 velocity=0 time=0
EXTRACT: note_on channel=5 note=68 velocity=0 time=0
EXTRACT: note_on channel=5 note=73 velocity=0 time=0
EXTRACT: note_on channel=10 note=66 velocity=0 time=0
EXTRACT: note_on channel=10 note=68 velocity=0 time=0
EXTRACT: note_on channel=10 note=73 velocity=0 time=0
EXTRACT: note_on channel=0 note=77 velocity=110 time=0.006696425000000001
EXTRACT: note_on channel=1 note=77 velocity=110 time=0
EXTRACT: note_on channel=9 note=70 velocity=75 time=0
EXTRACT: note_on channel=9 note=41 velocity=75 time=0
EXTRACT: note_on channel=9 note=47 velocity=75 time=0
EXTRACT: note_on channel=5 note=77 velocity=90 time=0
EXTRACT: note_on channel=10 note=77 velocity=90 time=0
EXTRACT: note_on channel=9 note=70 velocity=0 time=0.127232075
EXTRACT: note_on channel=9 note=41 velocity=0 time=0
EXTRACT: note_on channel=9 note=47 velocity=0 time=0
EXTRACT: note_on channel=2 note=49 velocity=0 time=0.006696425000000001
EXTRACT: note_on channel=9 note=70 velocity=75 time=0
EXTRACT: note_on channel=9 note=41 velocity=75 time=0
EXTRACT: note_on channel=9 note=47 velocity=75 time=0
EXTRACT: note_on channel=6 note=49 velocity=0 time=0
EXTRACT: note_on channel=0 note=77 velocity=0 time=0.127232075
EXTRACT: note_on channel=1 note=77 velocity=0 time=0
EXTRACT: note_on channel=9 note=70 velocity=0 time=0
EXTRACT: note_on channel=9 note=41 velocity=0 time=0
EXTRACT: note_on channel=9 note=47 velocity=0 time=0
EXTRACT: note_on channel=5 note=77 velocity=0 time=0
EXTRACT: note_on channel=10 note=77 velocity=0 time=0
EXTRACT: note_on channel=0 note=78 velocity=110 time=0.006696425000000001
EXTRACT: note_on channel=1 note=70 velocity=110 time=0
EXTRACT: note_on channel=1 note=73 velocity=110 time=0
EXTRACT: note_on channel=1 note=78 velocity=110 time=0
EXTRACT: note_on channel=2 note=42 velocity=110 time=0
EXTRACT: note_on channel=9 note=70 velocity=75 time=0
EXTRACT: note_on channel=9 note=41 velocity=75 time=0
EXTRACT: note_on channel=9 note=47 velocity=75 time=0
EXTRACT: note_on channel=9 note=40 velocity=110 time=0
EXTRACT: note_on channel=9 note=44 velocity=110 time=0
EXTRACT: note_on channel=9 note=47 velocity=110 time=0
EXTRACT: note_on channel=9 note=51 velocity=110 time=0
EXTRACT: note_on channel=9 note=54 velocity=110 time=0
EXTRACT: note_on channel=9 note=57 velocity=110 time=0
EXTRACT: note_on channel=9 note=41 velocity=127 time=0
EXTRACT: note_on channel=9 note=47 velocity=127 time=0
EXTRACT: note_on channel=5 note=70 velocity=90 time=0
EXTRACT: note_on channel=5 note=73 velocity=90 time=0
EXTRACT: note_on channel=5 note=78 velocity=90 time=0
EXTRACT: note_on channel=10 note=70 velocity=90 time=0
EXTRACT: note_on channel=10 note=73 velocity=90 time=0
EXTRACT: note_on channel=10 note=78 velocity=90 time=0
EXTRACT: note_on channel=6 note=42 velocity=90 time=0
EXTRACT: note_on channel=9 note=70 velocity=0 time=0.261160575
EXTRACT: note_on channel=9 note=41 velocity=0 time=0
EXTRACT: note_on channel=9 note=47 velocity=0 time=0
EXTRACT: note_on channel=9 note=41 velocity=0 time=0
EXTRACT: note_on channel=9 note=47 velocity=0 time=0
EXTRACT: note_on channel=9 note=70 velocity=75 time=0.006696425000000001
EXTRACT: note_on channel=9 note=41 velocity=75 time=0
EXTRACT: note_on channel=9 note=47 velocity=75 time=0
EXTRACT: note_on channel=9 note=70 velocity=0 time=0.127232075
EXTRACT: note_on channel=9 note=41 velocity=0 time=0
EXTRACT: note_on channel=9 note=47 velocity=0 time=0
EXTRACT: note_on channel=9 note=70 velocity=75 time=0.006696425000000001
EXTRACT: note_on channel=9 note=41 velocity=75 time=0
EXTRACT: note_on channel=9 note=47 velocity=75 time=0
EXTRACT: note_on channel=9 note=41 velocity=127 time=0.1339285
EXTRACT: note_on channel=9 note=47 velocity=127 time=0
EXTRACT: note_on channel=9 note=70 velocity=0 time=0.127232075
EXTRACT: note_on channel=9 note=41 velocity=0 time=0
EXTRACT: note_on channel=9 note=47 velocity=0 time=0
EXTRACT: note_on channel=9 note=70 velocity=75 time=0.006696425000000001
EXTRACT: note_on channel=9 note=41 velocity=75 time=0
EXTRACT: note_on channel=9 note=47 velocity=75 time=0
EXTRACT: note_on channel=9 note=70 velocity=0 time=0.127232075
EXTRACT: note_on channel=9 note=41 velocity=0 time=0
EXTRACT: note_on channel=9 note=47 velocity=0 time=0
EXTRACT: note_on channel=9 note=41 velocity=0 time=0
EXTRACT: note_on channel=9 note=47 velocity=0 time=0
EXTRACT: note_on channel=9 note=70 velocity=75 time=0.006696425000000001
EXTRACT: note_on channel=9 note=41 velocity=75 time=0
EXTRACT: note_on channel=9 note=47 velocity=75 time=0
EXTRACT: note_on channel=0 note=78 velocity=0 time=0.1339285
EXTRACT: note_on channel=1 note=70 velocity=0 time=0
EXTRACT: note_on channel=1 note=73 velocity=0 time=0
EXTRACT: note_on channel=1 note=78 velocity=0 time=0
EXTRACT: note_on channel=2 note=42 velocity=0 time=0
EXTRACT: note_on channel=5 note=70 velocity=0 time=0
EXTRACT: note_on channel=5 note=73 velocity=0 time=0
EXTRACT: note_on channel=5 note=78 velocity=0 time=0
EXTRACT: note_on channel=10 note=70 velocity=0 time=0
EXTRACT: note_on channel=10 note=73 velocity=0 time=0
EXTRACT: note_on channel=10 note=78 velocity=0 time=0
EXTRACT: note_on channel=6 note=42 velocity=0 time=0
EXTRACT: note_on channel=9 note=70 velocity=0 time=0.127232075
EXTRACT: note_on channel=9 note=41 velocity=0 time=0
EXTRACT: note_on channel=9 note=47 velocity=0 time=0
EXTRACT: note_on channel=1 note=71 velocity=110 time=0.006696425000000001
EXTRACT: note_on channel=1 note=75 velocity=110 time=0
EXTRACT: note_on channel=1 note=78 velocity=110 time=0
EXTRACT: note_on channel=2 note=47 velocity=110 time=0
EXTRACT: note_on channel=3 note=71 velocity=110 time=0
EXTRACT: note_on channel=9 note=70 velocity=75 time=0
EXTRACT: note_on channel=9 note=41 velocity=75 time=0
EXTRACT: note_on channel=9 note=47 velocity=75 time=0
EXTRACT: note_on channel=9 note=41 velocity=127 time=0
EXTRACT: note_on channel=9 note=47 velocity=127 time=0
EXTRACT: note_on channel=5 note=71 velocity=90 time=0
EXTRACT: note_on channel=5 note=75 velocity=90 time=0
EXTRACT: note_on channel=5 note=78 velocity=90 time=0
EXTRACT: note_on channel=10 note=71 velocity=90 time=0
EXTRACT: note_on channel=10 note=75 velocity=90 time=0
EXTRACT: note_on channel=10 note=78 velocity=90 time=0
EXTRACT: note_on channel=6 note=47 velocity=90 time=0
EXTRACT: note_on channel=9 note=70 velocity=0 time=0.261160575
EXTRACT: note_on channel=9 note=41 velocity=0 time=0
EXTRACT: note_on channel=9 note=47 velocity=0 time=0
EXTRACT: note_on channel=9 note=41 velocity=0 time=0
EXTRACT: note_on channel=9 note=47 velocity=0 time=0
EXTRACT: note_on channel=9 note=70 velocity=75 time=0.006696425000000001
EXTRACT: note_on channel=9 note=41 velocity=75 time=0
EXTRACT: note_on channel=9 note=47 velocity=75 time=0
EXTRACT: note_on channel=9 note=70 velocity=0 time=0.127232075
EXTRACT: note_on channel=9 note=41 velocity=0 time=0
EXTRACT: note_on channel=9 note=47 velocity=0 time=0
EXTRACT: note_on channel=9 note=70 velocity=75 time=0.006696425000000001
EXTRACT: note_on channel=9 note=41 velocity=75 time=0
EXTRACT: note_on channel=9 note=47 velocity=75 time=0
EXTRACT: note_on channel=2 note=47 velocity=0 time=0.04464283333333333
EXTRACT: note_on channel=6 note=47 velocity=0 time=0
EXTRACT: note_on channel=2 note=46 velocity=110 time=0.08928566666666667
EXTRACT: note_on channel=9 note=41 velocity=127 time=0
EXTRACT: note_on channel=9 note=47 velocity=127 time=0
EXTRACT: note_on channel=6 note=46 velocity=90 time=0
EXTRACT: note_on channel=9 note=70 velocity=0 time=0.127232075
EXTRACT: note_on channel=9 note=41 velocity=0 time=0
EXTRACT: note_on channel=9 note=47 velocity=0 time=0
EXTRACT: note_on channel=9 note=70 velocity=75 time=0.006696425000000001
EXTRACT: note_on channel=9 note=41 velocity=75 time=0
EXTRACT: note_on channel=9 note=47 velocity=75 time=0
EXTRACT: note_on channel=9 note=70 velocity=0 time=0.127232075
EXTRACT: note_on channel=9 note=41 velocity=0 time=0
EXTRACT: note_on channel=9 note=47 velocity=0 time=0
EXTRACT: note_on channel=9 note=41 velocity=0 time=0
EXTRACT: note_on channel=9 note=47 velocity=0 time=0
EXTRACT: note_on channel=9 note=70 velocity=75 time=0.006696425000000001
EXTRACT: note_on channel=9 note=41 velocity=75 time=0
EXTRACT: note_on channel=9 note=47 velocity=75 time=0
EXTRACT: note_on channel=1 note=71 velocity=0 time=0.1339285
EXTRACT: note_on channel=1 note=75 velocity=0 time=0
EXTRACT: note_on channel=1 note=78 velocity=0 time=0
EXTRACT: note_on channel=3 note=71 velocity=0 time=0
EXTRACT: note_on channel=9 note=40 velocity=0 time=0
EXTRACT: note_on channel=9 note=44 velocity=0 time=0
EXTRACT: note_on channel=9 note=47 velocity=0 time=0
EXTRACT: note_on channel=9 note=51 velocity=0 time=0
EXTRACT: note_on channel=9 note=54 velocity=0 time=0
EXTRACT: note_on channel=9 note=57 velocity=0 time=0
EXTRACT: note_on channel=5 note=71 velocity=0 time=0
EXTRACT: note_on channel=5 note=75 velocity=0 time=0
EXTRACT: note_on channel=5 note=78 velocity=0 time=0
EXTRACT: note_on channel=10 note=71 velocity=0 time=0
EXTRACT: note_on channel=10 note=75 velocity=0 time=0
EXTRACT: note_on channel=10 note=78 velocity=0 time=0
EXTRACT: note_on channel=2 note=46 velocity=0 time=0.04464283333333333
EXTRACT: note_on channel=6 note=46 velocity=0 time=0
EXTRACT: note_on channel=9 note=70 velocity=0 time=0.08258924166666667
EXTRACT: note_on channel=9 note=41 velocity=0 time=0
EXTRACT: note_on channel=9 note=47 velocity=0 time=0
EXTRACT: note_on channel=1 note=70 velocity=110 time=0.006696425000000001
EXTRACT: note_on channel=1 note=75 velocity=110 time=0
EXTRACT: note_on channel=1 note=78 velocity=110 time=0
EXTRACT: note_on channel=2 note=44 velocity=110 time=0
EXTRACT: note_on channel=3 note=70 velocity=110 time=0
EXTRACT: note_on channel=9 note=70 velocity=75 time=0
EXTRACT: note_on channel=9 note=41 velocity=75 time=0
EXTRACT: note_on channel=9 note=47 velocity=75 time=0
EXTRACT: note_on channel=9 note=41 velocity=127 time=0
EXTRACT: note_on channel=9 note=47 velocity=127 time=0
EXTRACT: note_on channel=5 note=70 velocity=90 time=0
EXTRACT: note_on channel=5 note=75 velocity=90 time=0
EXTRACT: note_on channel=5 note=78 velocity=90 time=0
EXTRACT: note_on channel=10 note=70 velocity=90 time=0
EXTRACT: note_on channel=10 note=75 velocity=90 time=0
EXTRACT: note_on channel=10 note=78 velocity=90 time=0
EXTRACT: note_on channel=6 note=44 velocity=90 time=0
EXTRACT: note_on channel=1 note=70 velocity=0 time=0.261160575
EXTRACT: note_on channel=1 note=75 velocity=0 time=0
EXTRACT: note_on channel=1 note=78 velocity=0 time=0
EXTRACT: note_on channel=3 note=70 velocity=0 time=0
EXTRACT: note_on channel=9 note=70 velocity=0 time=0
EXTRACT: note_on channel=9 note=41 velocity=0 time=0
EXTRACT: note_on channel=9 note=47 velocity=0 time=0
EXTRACT: note_on channel=9 note=41 velocity=0 time=0
EXTRACT: note_on channel=9 note=47 velocity=0 time=0
EXTRACT: note_on channel=5 note=70 velocity=0 time=0
EXTRACT: note_on channel=5 note=75 velocity=0 time=0
EXTRACT: note_on channel=5 note=78 velocity=0 time=0
EXTRACT: note_on channel=10 note=70 velocity=0 time=0
EXTRACT: note_on channel=10 note=75 velocity=0 time=0
EXTRACT: note_on channel=10 note=78 velocity=0 time=0
EXTRACT: note_on channel=1 note=68 velocity=110 time=0.006696425000000001
EXTRACT: note_on channel=1 note=73 velocity=110 time=0
EXTRACT: note_on channel=1 note=78 velocity=110 time=0
EXTRACT: note_on channel=3 note=68 velocity=110 time=0
EXTRACT: note_on channel=9 note=70 velocity=75 time=0
EXTRACT: note_on channel=9 note=41 velocity=75 time=0
EXTRACT: note_on channel=9 note=47 velocity=75 time=0
EXTRACT: note_on channel=5 note=68 velocity=90 time=0
EXTRACT: note_on channel=5 note=73 velocity=90 time=0
EXTRACT: note_on channel=5 note=78 velocity=90 time=0
EXTRACT: note_on channel=10 note=68 velocity=90 time=0
EXTRACT: note_on channel=10 note=73 velocity=90 time=0
EXTRACT: note_on channel=10 note=78 velocity=90 time=0
EXTRACT: note_on channel=9 note=70 velocity=0 time=0.127232075
EXTRACT: note_on channel=9 note=41 velocity=0 time=0
EXTRACT: note_on channel=9 note=47 velocity=0 time=0
EXTRACT: note_on channel=9 note=70 velocity=75 time=0.006696425000000001
EXTRACT: note_on channel=9 note=41 velocity=75 time=0
EXTRACT: note_on channel=9 note=47 velocity=75 time=0
EXTRACT: note_on channel=1 note=68 velocity=0 time=0.127232075
EXTRACT: note_on channel=1 note=73 velocity=0 time=0
EXTRACT: note_on channel=1 note=78 velocity=0 time=0
EXTRACT: note_on channel=3 note=68 velocity=0 time=0
EXTRACT: note_on channel=5 note=68 velocity=0 time=0
EXTRACT: note_on channel=5 note=73 velocity=0 time=0
EXTRACT: note_on channel=5 note=78 velocity=0 time=0
EXTRACT: note_on channel=10 note=68 velocity=0 time=0
EXTRACT: note_on channel=10 note=73 velocity=0 time=0
EXTRACT: note_on channel=10 note=78 velocity=0 time=0
EXTRACT: note_on channel=1 note=68 velocity=110 time=0.006696425000000001
EXTRACT: note_on channel=1 note=73 velocity=110 time=0
EXTRACT: note_on channel=1 note=78 velocity=110 time=0
EXTRACT: note_on channel=3 note=68 velocity=110 time=0
EXTRACT: note_on channel=9 note=41 velocity=127 time=0
EXTRACT: note_on channel=9 note=47 velocity=127 time=0
EXTRACT: note_on channel=5 note=68 velocity=90 time=0
EXTRACT: note_on channel=5 note=73 velocity=90 time=0
EXTRACT: note_on channel=5 note=78 velocity=90 time=0
EXTRACT: note_on channel=10 note=68 velocity=90 time=0
EXTRACT: note_on channel=10 note=73 velocity=90 time=0
EXTRACT: note_on channel=10 note=78 velocity=90 time=0
EXTRACT: note_on channel=9 note=70 velocity=0 time=0.127232075
EXTRACT: note_on channel=9 note=41 velocity=0 time=0
EXTRACT: note_on channel=9 note=47 velocity=0 time=0
EXTRACT: note_on channel=9 note=70 velocity=75 time=0.006696425000000001
EXTRACT: note_on channel=9 note=41 velocity=75 time=0
EXTRACT: note_on channel=9 note=47 velocity=75 time=0
EXTRACT: note_on channel=9 note=70 velocity=0 time=0.127232075
EXTRACT: note_on channel=9 note=41 velocity=0 time=0
EXTRACT: note_on channel=9 note=47 velocity=0 time=0
EXTRACT: note_on channel=9 note=41 velocity=0 time=0
EXTRACT: note_on channel=9 note=47 velocity=0 time=0
EXTRACT: note_on channel=9 note=70 velocity=75 time=0.006696425000000001
EXTRACT: note_on channel=9 note=41 velocity=75 time=0
EXTRACT: note_on channel=9 note=47 velocity=75 time=0
EXTRACT: note_on channel=2 note=44 velocity=0 time=0.1339285
EXTRACT: note_on channel=6 note=44 velocity=0 time=0
EXTRACT: note_on channel=1 note=68 velocity=0 time=0.04464283333333333
EXTRACT: note_on channel=1 note=73 velocity=0 time=0
EXTRACT: note_on channel=1 note=78 velocity=0 time=0
EXTRACT: note_on channel=3 note=68 velocity=0 time=0
EXTRACT: note_on channel=5 note=68 velocity=0 time=0
EXTRACT: note_on channel=5 note=73 velocity=0 time=0
EXTRACT: note_on channel=5 note=78 velocity=0 time=0
EXTRACT: note_on channel=10 note=68 velocity=0 time=0
EXTRACT: note_on channel=10 note=73 velocity=0 time=0
EXTRACT: note_on channel=10 note=78 velocity=0 time=0
EXTRACT: note_on channel=9 note=70 velocity=0 time=0.08258924166666667
EXTRACT: note_on channel=9 note=41 velocity=0 time=0
EXTRACT: note_on channel=9 note=47 velocity=0 time=0
EXTRACT: note_on channel=0 note=78 velocity=110 time=0.006696425000000001
EXTRACT: note_on channel=1 note=68 velocity=110 time=0
EXTRACT: note_on channel=1 note=73 velocity=110 time=0
EXTRACT: note_on channel=1 note=78 velocity=110 time=0
EXTRACT: note_on channel=2 note=49 velocity=110 time=0
EXTRACT: note_on channel=9 note=70 velocity=75 time=0
EXTRACT: note_on channel=9 note=41 velocity=75 time=0
EXTRACT: note_on channel=9 note=47 velocity=75 time=0
EXTRACT: note_on channel=9 note=41 velocity=127 time=0
EXTRACT: note_on channel=9 note=47 velocity=127 time=0
EXTRACT: note_on channel=5 note=68 velocity=90 time=0
EXTRACT: note_on channel=5 note=73 velocity=90 time=0
EXTRACT: note_on channel=5 note=78 velocity=90 time=0
EXTRACT: note_on channel=10 note=68 velocity=90 time=0
EXTRACT: note_on channel=10 note=73 velocity=90 time=0
EXTRACT: note_on channel=10 note=78 velocity=90 time=0
EXTRACT: note_on channel=6 note=49 velocity=90 time=0
EXTRACT: note_on channel=9 note=70 velocity=0 time=0.261160575
EXTRACT: note_on channel=9 note=41 velocity=0 time=0
EXTRACT: note_on channel=9 note=47 velocity=0 time=0
EXTRACT: note_on channel=9 note=41 velocity=0 time=0
EXTRACT: note_on channel=9 note=47 velocity=0 time=0
EXTRACT: note_on channel=9 note=70 velocity=75 time=0.006696425000000001
EXTRACT: note_on channel=9 note=41 velocity=75 time=0
EXTRACT: note_on channel=9 note=47 velocity=75 time=0
EXTRACT: note_on channel=0 note=78 velocity=0 time=0.127232075
EXTRACT: note_on channel=1 note=68 velocity=0 time=0
EXTRACT: note_on channel=1 note=73 velocity=0 time=0
EXTRACT: note_on channel=1 note=78 velocity=0 time=0
EXTRACT: note_on channel=9 note=70 velocity=0 time=0
EXTRACT: note_on channel=9 note=41 velocity=0 time=0
EXTRACT: note_on channel=9 note=47 velocity=0 time=0
EXTRACT: note_on channel=5 note=68 velocity=0 time=0
EXTRACT: note_on channel=5 note=73 velocity=0 time=0
EXTRACT: note_on channel=5 note=78 velocity=0 time=0
EXTRACT: note_on channel=10 note=68 velocity=0 time=0
EXTRACT: note_on channel=10 note=73 velocity=0 time=0
EXTRACT: note_on channel=10 note=78 velocity=0 time=0
EXTRACT: note_on channel=0 note=78 velocity=110 time=0.006696425000000001
EXTRACT: note_on channel=1 note=68 velocity=110 time=0
EXTRACT: note_on channel=1 note=73 velocity=110 time=0
EXTRACT: note_on channel=1 note=78 velocity=110 time=0
EXTRACT: note_on channel=9 note=70 velocity=75 time=0
EXTRACT: note_on channel=9 note=41 velocity=75 time=0
EXTRACT: note_on channel=9 note=47 velocity=75 time=0
EXTRACT: note_on channel=5 note=68 velocity=90 time=0
EXTRACT: note_on channel=5 note=73 velocity=90 time=0
EXTRACT: note_on channel=5 note=78 velocity=90 time=0
EXTRACT: note_on channel=10 note=68 velocity=90 time=0
EXTRACT: note_on channel=10 note=73 velocity=90 time=0
EXTRACT: note_on channel=10 note=78 velocity=90 time=0
EXTRACT: note_on channel=9 note=41 velocity=127 time=0.1339285
EXTRACT: note_on channel=9 note=47 velocity=127 time=0
EXTRACT: note_on channel=9 note=70 velocity=0 time=0.127232075
EXTRACT: note_on channel=9 note=41 velocity=0 time=0
EXTRACT: note_on channel=9 note=47 velocity=0 time=0
EXTRACT: note_on channel=9 note=70 velocity=75 time=0.006696425000000001
EXTRACT: note_on channel=9 note=41 velocity=75 time=0
EXTRACT: note_on channel=9 note=47 velocity=75 time=0
EXTRACT: note_on channel=0 note=78 velocity=0 time=0.127232075
EXTRACT: note_on channel=1 note=68 velocity=0 time=0
EXTRACT: note_on channel=1 note=73 velocity=0 time=0
EXTRACT: note_on channel=1 note=78 velocity=0 time=0
EXTRACT: note_on channel=9 note=70 velocity=0 time=0
EXTRACT: note_on channel=9 note=41 velocity=0 time=0
EXTRACT: note_on channel=9 note=47 velocity=0 time=0
EXTRACT: note_on channel=9 note=41 velocity=0 time=0
EXTRACT: note_on channel=9 note=47 velocity=0 time=0
EXTRACT: note_on channel=5 note=68 velocity=0 time=0
EXTRACT: note_on channel=5 note=73 velocity=0 time=0
EXTRACT: note_on channel=5 note=78 velocity=0 time=0
EXTRACT: note_on channel=10 note=68 velocity=0 time=0
EXTRACT: note_on channel=10 note=73 velocity=0 time=0
EXTRACT: note_on channel=10 note=78 velocity=0 time=0
EXTRACT: note_on channel=0 note=73 velocity=110 time=0.006696425000000001
EXTRACT: note_on channel=1 note=73 velocity=110 time=0
EXTRACT: note_on channel=9 note=70 velocity=75 time=0
EXTRACT: note_on channel=9 note=41 velocity=75 time=0
EXTRACT: note_on channel=9 note=47 velocity=75 time=0
EXTRACT: note_on channel=5 note=73 velocity=90 time=0
EXTRACT: note_on channel=10 note=73 velocity=90 time=0
EXTRACT: note_on channel=2 note=49 velocity=0 time=0.1339285
EXTRACT: note_on channel=6 note=49 velocity=0 time=0
EXTRACT: note_on channel=0 note=73 velocity=0 time=0.127232075
EXTRACT: note_on channel=1 note=73 velocity=0 time=0
EXTRACT: note_on channel=9 note=70 velocity=0 time=0
EXTRACT: note_on channel=9 note=41 velocity=0 time=0
EXTRACT: note_on channel=9 note=47 velocity=0 time=0
EXTRACT: note_on channel=5 note=73 velocity=0 time=0
EXTRACT: note_on channel=10 note=73 velocity=0 time=0
EXTRACT: note_on channel=0 note=75 velocity=110 time=0.006696425000000001
EXTRACT: note_on channel=1 note=66 velocity=110 time=0
EXTRACT: note_on channel=1 note=70 velocity=110 time=0
EXTRACT: note_on channel=1 note=75 velocity=110 time=0
EXTRACT: note_on channel=2 note=42 velocity=110 time=0
EXTRACT: note_on channel=9 note=70 velocity=75 time=0
EXTRACT: note_on channel=9 note=41 velocity=75 time=0
EXTRACT: note_on channel=9 note=47 velocity=75 time=0
EXTRACT: note_on channel=9 note=41 velocity=127 time=0
EXTRACT: note_on channel=9 note=47 velocity=127 time=0
EXTRACT: note_on channel=5 note=66 velocity=90 time=0
EXTRACT: note_on channel=5 note=70 velocity=90 time=0
EXTRACT: note_on channel=5 note=75 velocity=90 time=0
EXTRACT: note_on channel=10 note=66 velocity=90 time=0
EXTRACT: note_on channel=10 note=70 velocity=90 time=0
EXTRACT: note_on channel=10 note=75 velocity=90 time=0
EXTRACT: note_on channel=6 note=42 velocity=90 time=0
EXTRACT: note_on channel=9 note=70 velocity=0 time=0.261160575
EXTRACT: note_on channel=9 note=41 velocity=0 time=0
EXTRACT: note_on channel=9 note=47 velocity=0 time=0
EXTRACT: note_on channel=9 note=41 velocity=0 time=0
EXTRACT: note_on channel=9 note=47 velocity=0 time=0
EXTRACT: note_on channel=9 note=70 velocity=75 time=0.006696425000000001
EXTRACT: note_on channel=9 note=41 velocity=75 time=0
EXTRACT: note_on channel=9 note=47 velocity=75 time=0
EXTRACT: note_on channel=9 note=70 velocity=0 time=0.127232075
EXTRACT: note_on channel=9 note=41 velocity=0 time=0
EXTRACT: note_on channel=9 note=47 velocity=0 time=0
EXTRACT: note_on channel=9 note=70 velocity=75 time=0.006696425000000001
EXTRACT: note_on channel=9 note=41 velocity=75 time=0
EXTRACT: note_on channel=9 note=47 velocity=75 time=0
EXTRACT: note_on channel=0 note=75 velocity=0 time=0.04464283333333333
EXTRACT: note_on channel=1 note=66 velocity=0 time=0
EXTRACT: note_on channel=1 note=70 velocity=0 time=0
EXTRACT: note_on channel=1 note=75 velocity=0 time=0
EXTRACT: note_on channel=5 note=66 velocity=0 time=0
EXTRACT: note_on channel=5 note=70 velocity=0 time=0
EXTRACT: note_on channel=5 note=75 velocity=0 time=0
EXTRACT: note_on channel=10 note=66 velocity=0 time=0
EXTRACT: note_on channel=10 note=70 velocity=0 time=0
EXTRACT: note_on channel=10 note=75 velocity=0 time=0
EXTRACT: note_on channel=0 note=73 velocity=110 time=0.08928566666666667
EXTRACT: note_on channel=1 note=73 velocity=110 time=0
EXTRACT: note_on channel=9 note=41 velocity=127 time=0
EXTRACT: note_on channel=9 note=47 velocity=127 time=0
EXTRACT: note_on channel=5 note=73 velocity=90 time=0
EXTRACT: note_on channel=10 note=73 velocity=90 time=0
EXTRACT: note_on channel=9 note=70 velocity=0 time=0.127232075
EXTRACT: note_on channel=9 note=41 velocity=0 time=0
EXTRACT: note_on channel=9 note=47 velocity=0 time=0
EXTRACT: note_on channel=9 note=70 velocity=75 time=0.006696425000000001
EXTRACT: note_on channel=9 note=41 velocity=75 time=0
EXTRACT: note_on channel=9 note=47 velocity=75 time=0
EXTRACT: note_on channel=9 note=70 velocity=0 time=0.127232075
EXTRACT: note_on channel=9 note=41 velocity=0 time=0
EXTRACT: note_on channel=9 note=47 velocity=0 time=0
EXTRACT: note_on channel=9 note=41 velocity=0 time=0
EXTRACT: note_on channel=9 note=47 velocity=0 time=0
EXTRACT: note_on channel=9 note=70 velocity=75 time=0.006696425000000001
EXTRACT: note_on channel=9 note=41 velocity=75 time=0
EXTRACT: note_on channel=9 note=47 velocity=75 time=0
EXTRACT: note_on channel=2 note=42 velocity=0 time=0.1339285
EXTRACT: note_on channel=6 note=42 velocity=0 time=0
EXTRACT: note_on channel=0 note=73 velocity=0 time=0.04464283333333333
EXTRACT: note_on channel=1 note=73 velocity=0 time=0
EXTRACT: note_on channel=5 note=73 velocity=0 time=0
EXTRACT: note_on channel=10 note=73 velocity=0 time=0
EXTRACT: note_on channel=9 note=70 velocity=0 time=0.08258924166666667
EXTRACT: note_on channel=9 note=41 velocity=0 time=0
EXTRACT: note_on channel=9 note=47 velocity=0 time=0
EXTRACT: note_on channel=1 note=71 velocity=110 time=0.006696425000000001
EXTRACT: note_on channel=1 note=75 velocity=110 time=0
EXTRACT: note_on channel=1 note=78 velocity=110 time=0
EXTRACT: note_on channel=2 note=47 velocity=110 time=0
EXTRACT: note_on channel=3 note=71 velocity=110 time=0
EXTRACT: note_on channel=9 note=70 velocity=75 time=0
EXTRACT: note_on channel=9 note=41 velocity=75 time=0
EXTRACT: note_on channel=9 note=47 velocity=75 time=0
EXTRACT: note_on channel=9 note=41 velocity=127 time=0
EXTRACT: note_on channel=9 note=47 velocity=127 time=0
EXTRACT: note_on channel=5 note=71 velocity=90 time=0
EXTRACT: note_on channel=5 note=75 velocity=90 time=0
EXTRACT: note_on channel=5 note=78 velocity=90 time=0
EXTRACT: note_on channel=10 note=71 velocity=90 time=0
EXTRACT: note_on channel=10 note=75 velocity=90 time=0
EXTRACT: note_on channel=10 note=78 velocity=90 time=0
EXTRACT: note_on channel=6 note=47 velocity=90 time=0
EXTRACT: note_on channel=9 note=70 velocity=0 time=0.261160575
EXTRACT: note_on channel=9 note=41 velocity=0 time=0
EXTRACT: note_on channel=9 note=47 velocity=0 time=0
EXTRACT: note_on channel=9 note=41 velocity=0 time=0
EXTRACT: note_on channel=9 note=47 velocity=0 time=0
EXTRACT: note_on channel=9 note=70 velocity=75 time=0.006696425000000001
EXTRACT: note_on channel=9 note=41 velocity=75 time=0
EXTRACT: note_on channel=9 note=47 velocity=75 time=0
EXTRACT: note_on channel=9 note=70 velocity=0 time=0.127232075
EXTRACT: note_on channel=9 note=41 velocity=0 time=0
EXTRACT: note_on channel=9 note=47 velocity=0 time=0
EXTRACT: note_on channel=9 note=70 velocity=75 time=0.006696425000000001
EXTRACT: note_on channel=9 note=41 velocity=75 time=0
EXTRACT: note_on channel=9 note=47 velocity=75 time=0
EXTRACT: note_on channel=1 note=71 velocity=0 time=0.04464283333333333
EXTRACT: note_on channel=1 note=75 velocity=0 time=0
EXTRACT: note_on channel=1 note=78 velocity=0 time=0
EXTRACT: note_on channel=2 note=47 velocity=0 time=0
EXTRACT: note_on channel=3 note=71 velocity=0 time=0
EXTRACT: note_on channel=5 note=71 velocity=0 time=0
EXTRACT: note_on channel=5 note=75 velocity=0 time=0
EXTRACT: note_on channel=5 note=78 velocity=0 time=0
EXTRACT: note_on channel=10 note=71 velocity=0 time=0
EXTRACT: note_on channel=10 note=75 velocity=0 time=0
EXTRACT: note_on channel=10 note=78 velocity=0 time=0
EXTRACT: note_on channel=6 note=47 velocity=0 time=0
EXTRACT: note_on channel=1 note=70 velocity=110 time=0.08928566666666667
EXTRACT: note_on channel=2 note=46 velocity=110 time=0
EXTRACT: note_on channel=3 note=70 velocity=110 time=0
EXTRACT: note_on channel=9 note=41 velocity=127 time=0
EXTRACT: note_on channel=9 note=47 velocity=127 time=0
EXTRACT: note_on channel=5 note=70 velocity=90 time=0
EXTRACT: note_on channel=10 note=70 velocity=90 time=0
EXTRACT: note_on channel=6 note=46 velocity=90 time=0
EXTRACT: note_on channel=9 note=70 velocity=0 time=0.127232075
EXTRACT: note_on channel=9 note=41 velocity=0 time=0
EXTRACT: note_on channel=9 note=47 velocity=0 time=0
EXTRACT: note_on channel=9 note=70 velocity=75 time=0.006696425000000001
EXTRACT: note_on channel=9 note=41 velocity=75 time=0
EXTRACT: note_on channel=9 note=47 velocity=75 time=0
EXTRACT: note_on channel=9 note=70 velocity=0 time=0.127232075
EXTRACT: note_on channel=9 note=41 velocity=0 time=0
EXTRACT: note_on channel=9 note=47 velocity=0 time=0
EXTRACT: note_on channel=9 note=41 velocity=0 time=0
EXTRACT: note_on channel=9 note=47 velocity=0 time=0
EXTRACT: note_on channel=9 note=70 velocity=75 time=0.006696425000000001
EXTRACT: note_on channel=9 note=41 velocity=75 time=0
EXTRACT: note_on channel=9 note=47 velocity=75 time=0
EXTRACT: note_on channel=1 note=70 velocity=0 time=0.17857133333333333
EXTRACT: note_on channel=2 note=46 velocity=0 time=0
EXTRACT: note_on channel=3 note=70 velocity=0 time=0
EXTRACT: note_on channel=5 note=70 velocity=0 time=0
EXTRACT: note_on channel=10 note=70 velocity=0 time=0
EXTRACT: note_on channel=6 note=46 velocity=0 time=0
EXTRACT: note_on channel=9 note=70 velocity=0 time=0.08258924166666667
EXTRACT: note_on channel=9 note=41 velocity=0 time=0
EXTRACT: note_on channel=9 note=47 velocity=0 time=0
EXTRACT: note_on channel=1 note=70 velocity=110 time=0.006696425000000001
EXTRACT: note_on channel=1 note=75 velocity=110 time=0
EXTRACT: note_on channel=1 note=78 velocity=110 time=0
EXTRACT: note_on channel=2 note=44 velocity=110 time=0
EXTRACT: note_on channel=3 note=70 velocity=110 time=0
EXTRACT: note_on channel=9 note=70 velocity=75 time=0
EXTRACT: note_on channel=9 note=41 velocity=75 time=0
EXTRACT: note_on channel=9 note=47 velocity=75 time=0
EXTRACT: note_on channel=9 note=41 velocity=127 time=0
EXTRACT: note_on channel=9 note=47 velocity=127 time=0
EXTRACT: note_on channel=5 note=70 velocity=90 time=0
EXTRACT: note_on channel=5 note=75 velocity=90 time=0
EXTRACT: note_on channel=5 note=78 velocity=90 time=0
EXTRACT: note_on channel=10 note=70 velocity=90 time=0
EXTRACT: note_on channel=10 note=75 velocity=90 time=0
EXTRACT: note_on channel=10 note=78 velocity=90 time=0
EXTRACT: note_on channel=6 note=44 velocity=90 time=0
EXTRACT: note_on channel=1 note=70 velocity=0 time=0.261160575
EXTRACT: note_on channel=1 note=75 velocity=0 time=0
EXTRACT: note_on channel=1 note=78 velocity=0 time=0
EXTRACT: note_on channel=3 note=70 velocity=0 time=0
EXTRACT: note_on channel=9 note=70 velocity=0 time=0
EXTRACT: note_on channel=9 note=41 velocity=0 time=0
EXTRACT: note_on channel=9 note=47 velocity=0 time=0
EXTRACT: note_on channel=9 note=41 velocity=0 time=0
EXTRACT: note_on channel=9 note=47 velocity=0 time=0
EXTRACT: note_on channel=5 note=70 velocity=0 time=0
EXTRACT: note_on channel=5 note=75 velocity=0 time=0
EXTRACT: note_on channel=5 note=78 velocity=0 time=0
EXTRACT: note_on channel=10 note=70 velocity=0 time=0
EXTRACT: note_on channel=10 note=75 velocity=0 time=0
EXTRACT: note_on channel=10 note=78 velocity=0 time=0
EXTRACT: note_on channel=1 note=68 velocity=110 time=0.006696425000000001
EXTRACT: note_on channel=1 note=73 velocity=110 time=0
EXTRACT: note_on channel=1 note=78 velocity=110 time=0
EXTRACT: note_on channel=3 note=68 velocity=110 time=0
EXTRACT: note_on channel=9 note=70 velocity=75 time=0
EXTRACT: note_on channel=9 note=41 velocity=75 time=0
EXTRACT: note_on channel=9 note=47 velocity=75 time=0
EXTRACT: note_on channel=5 note=68 velocity=90 time=0
EXTRACT: note_on channel=5 note=73 velocity=90 time=0
EXTRACT: note_on channel=5 note=78 velocity=90 time=0
EXTRACT: note_on channel=10 note=68 velocity=90 time=0
EXTRACT: note_on channel=10 note=73 velocity=90 time=0
EXTRACT: note_on channel=10 note=78 velocity=90 time=0
EXTRACT: note_on channel=9 note=70 velocity=0 time=0.127232075
EXTRACT: note_on channel=9 note=41 velocity=0 time=0
EXTRACT: note_on channel=9 note=47 velocity=0 time=0
EXTRACT: note_on channel=9 note=70 velocity=75 time=0.006696425000000001
EXTRACT: note_on channel=9 note=41 velocity=75 time=0
EXTRACT: note_on channel=9 note=47 velocity=75 time=0
EXTRACT: note_on channel=1 note=68 velocity=0 time=0.127232075
EXTRACT: note_on channel=1 note=73 velocity=0 time=0
EXTRACT: note_on channel=1 note=78 velocity=0 time=0
EXTRACT: note_on channel=3 note=68 velocity=0 time=0
EXTRACT: note_on channel=5 note=68 velocity=0 time=0
EXTRACT: note_on channel=5 note=73 velocity=0 time=0
EXTRACT: note_on channel=5 note=78 velocity=0 time=0
EXTRACT: note_on channel=10 note=68 velocity=0 time=0
EXTRACT: note_on channel=10 note=73 velocity=0 time=0
EXTRACT: note_on channel=10 note=78 velocity=0 time=0
EXTRACT: note_on channel=1 note=68 velocity=110 time=0.006696425000000001
EXTRACT: note_on channel=1 note=73 velocity=110 time=0
EXTRACT: note_on channel=1 note=78 velocity=110 time=0
EXTRACT: note_on channel=3 note=68 velocity=110 time=0
EXTRACT: note_on channel=9 note=41 velocity=127 time=0
EXTRACT: note_on channel=9 note=47 velocity=127 time=0
EXTRACT: note_on channel=5 note=68 velocity=90 time=0
EXTRACT: note_on channel=5 note=73 velocity=90 time=0
EXTRACT: note_on channel=5 note=78 velocity=90 time=0
EXTRACT: note_on channel=10 note=68 velocity=90 time=0
EXTRACT: note_on channel=10 note=73 velocity=90 time=0
EXTRACT: note_on channel=10 note=78 velocity=90 time=0
EXTRACT: note_on channel=9 note=70 velocity=0 time=0.127232075
EXTRACT: note_on channel=9 note=41 velocity=0 time=0
EXTRACT: note_on channel=9 note=47 velocity=0 time=0
EXTRACT: note_on channel=9 note=70 velocity=75 time=0.006696425000000001
EXTRACT: note_on channel=9 note=41 velocity=75 time=0
EXTRACT: note_on channel=9 note=47 velocity=75 time=0
EXTRACT: note_on channel=9 note=70 velocity=0 time=0.127232075
EXTRACT: note_on channel=9 note=41 velocity=0 time=0
EXTRACT: note_on channel=9 note=47 velocity=0 time=0
EXTRACT: note_on channel=9 note=41 velocity=0 time=0
EXTRACT: note_on channel=9 note=47 velocity=0 time=0
EXTRACT: note_on channel=9 note=70 velocity=75 time=0.006696425000000001
EXTRACT: note_on channel=9 note=41 velocity=75 time=0
EXTRACT: note_on channel=9 note=47 velocity=75 time=0
EXTRACT: note_on channel=2 note=44 velocity=0 time=0.1339285
EXTRACT: note_on channel=6 note=44 velocity=0 time=0
EXTRACT: note_on channel=1 note=68 velocity=0 time=0.04464283333333333
EXTRACT: note_on channel=1 note=73 velocity=0 time=0
EXTRACT: note_on channel=1 note=78 velocity=0 time=0
EXTRACT: note_on channel=3 note=68 velocity=0 time=0
EXTRACT: note_on channel=5 note=68 velocity=0 time=0
EXTRACT: note_on channel=5 note=73 velocity=0 time=0
EXTRACT: note_on channel=5 note=78 velocity=0 time=0
EXTRACT: note_on channel=10 note=68 velocity=0 time=0
EXTRACT: note_on channel=10 note=73 velocity=0 time=0
EXTRACT: note_on channel=10 note=78 velocity=0 time=0
EXTRACT: note_on channel=9 note=70 velocity=0 time=0.08258924166666667
EXTRACT: note_on channel=9 note=41 velocity=0 time=0
EXTRACT: note_on channel=9 note=47 velocity=0 time=0
EXTRACT: note_on channel=0 note=73 velocity=110 time=0.006696425000000001
EXTRACT: note_on channel=1 note=66 velocity=110 time=0
EXTRACT: note_on channel=1 note=68 velocity=110 time=0
EXTRACT: note_on channel=1 note=73 velocity=110 time=0
EXTRACT: note_on channel=2 note=49 velocity=110 time=0
EXTRACT: note_on channel=9 note=70 velocity=75 time=0
EXTRACT: note_on channel=9 note=41 velocity=75 time=0
EXTRACT: note_on channel=9 note=47 velocity=75 time=0
EXTRACT: note_on channel=9 note=41 velocity=127 time=0
EXTRACT: note_on channel=9 note=47 velocity=127 time=0
EXTRACT: note_on channel=5 note=66 velocity=90 time=0
EXTRACT: note_on channel=5 note=68 velocity=90 time=0
EXTRACT: note_on channel=5 note=73 velocity=90 time=0
EXTRACT: note_on channel=10 note=66 velocity=90 time=0
EXTRACT: note_on channel=10 note=68 velocity=90 time=0
EXTRACT: note_on channel=10 note=73 velocity=90 time=0
EXTRACT: note_on channel=6 note=49 velocity=90 time=0
EXTRACT: note_on channel=9 note=70 velocity=0 time=0.261160575
EXTRACT: note_on channel=9 note=41 velocity=0 time=0
EXTRACT: note_on channel=9 note=47 velocity=0 time=0
EXTRACT: note_on channel=9 note=41 velocity=0 time=0
EXTRACT: note_on channel=9 note=47 velocity=0 time=0
EXTRACT: note_on channel=9 note=70 velocity=75 time=0.006696425000000001
EXTRACT: note_on channel=9 note=41 velocity=75 time=0
EXTRACT: note_on channel=9 note=47 velocity=75 time=0
EXTRACT: note_on channel=0 note=73 velocity=0 time=0.127232075
EXTRACT: note_on channel=1 note=66 velocity=0 time=0
EXTRACT: note_on channel=1 note=68 velocity=0 time=0
EXTRACT: note_on channel=1 note=73 velocity=0 time=0
EXTRACT: note_on channel=9 note=70 velocity=0 time=0
EXTRACT: note_on channel=9 note=41 velocity=0 time=0
EXTRACT: note_on channel=9 note=47 velocity=0 time=0
EXTRACT: note_on channel=5 note=66 velocity=0 time=0
EXTRACT: note_on channel=5 note=68 velocity=0 time=0
EXTRACT: note_on channel=5 note=73 velocity=0 time=0
EXTRACT: note_on channel=10 note=66 velocity=0 time=0
EXTRACT: note_on channel=10 note=68 velocity=0 time=0
EXTRACT: note_on channel=10 note=73 velocity=0 time=0
EXTRACT: note_on channel=0 note=73 velocity=110 time=0.006696425000000001
EXTRACT: note_on channel=1 note=66 velocity=110 time=0
EXTRACT: note_on channel=1 note=68 velocity=110 time=0
EXTRACT: note_on channel=1 note=73 velocity=110 time=0
EXTRACT: note_on channel=9 note=70 velocity=75 time=0
EXTRACT: note_on channel=9 note=41 velocity=75 time=0
EXTRACT: note_on channel=9 note=47 velocity=75 time=0
EXTRACT: note_on channel=5 note=66 velocity=90 time=0
EXTRACT: note_on channel=5 note=68 velocity=90 time=0
EXTRACT: note_on channel=5 note=73 velocity=90 time=0
EXTRACT: note_on channel=10 note=66 velocity=90 time=0
EXTRACT: note_on channel=10 note=68 velocity=90 time=0
EXTRACT: note_on channel=10 note=73 velocity=90 time=0
EXTRACT: note_on channel=9 note=41 velocity=127 time=0.1339285
EXTRACT: note_on channel=9 note=47 velocity=127 time=0
EXTRACT: note_on channel=9 note=70 velocity=0 time=0.127232075
EXTRACT: note_on channel=9 note=41 velocity=0 time=0
EXTRACT: note_on channel=9 note=47 velocity=0 time=0
EXTRACT: note_on channel=9 note=70 velocity=75 time=0.006696425000000001
EXTRACT: note_on channel=9 note=41 velocity=75 time=0
EXTRACT: note_on channel=9 note=47 velocity=75 time=0
EXTRACT: note_on channel=0 note=73 velocity=0 time=0.127232075
EXTRACT: note_on channel=1 note=66 velocity=0 time=0
EXTRACT: note_on channel=1 note=68 velocity=0 time=0
EXTRACT: note_on channel=1 note=73 velocity=0 time=0
EXTRACT: note_on channel=9 note=70 velocity=0 time=0
EXTRACT: note_on channel=9 note=41 velocity=0 time=0
EXTRACT: note_on channel=9 note=47 velocity=0 time=0
EXTRACT: note_on channel=9 note=41 velocity=0 time=0
EXTRACT: note_on channel=9 note=47 velocity=0 time=0
EXTRACT: note_on channel=5 note=66 velocity=0 time=0
EXTRACT: note_on channel=5 note=68 velocity=0 time=0
EXTRACT: note_on channel=5 note=73 velocity=0 time=0
EXTRACT: note_on channel=10 note=66 velocity=0 time=0
EXTRACT: note_on channel=10 note=68 velocity=0 time=0
EXTRACT: note_on channel=10 note=73 velocity=0 time=0
EXTRACT: note_on channel=0 note=77 velocity=110 time=0.006696425000000001
EXTRACT: note_on channel=1 note=77 velocity=110 time=0
EXTRACT: note_on channel=9 note=70 velocity=75 time=0
EXTRACT: note_on channel=9 note=41 velocity=75 time=0
EXTRACT: note_on channel=9 note=47 velocity=75 time=0
EXTRACT: note_on channel=5 note=77 velocity=90 time=0
EXTRACT: note_on channel=10 note=77 velocity=90 time=0
EXTRACT: note_on channel=2 note=49 velocity=0 time=0.1339285
EXTRACT: note_on channel=6 note=49 velocity=0 time=0
EXTRACT: note_on channel=0 note=77 velocity=0 time=0.127232075
EXTRACT: note_on channel=1 note=77 velocity=0 time=0
EXTRACT: note_on channel=9 note=70 velocity=0 time=0
EXTRACT: note_on channel=9 note=41 velocity=0 time=0
EXTRACT: note_on channel=9 note=47 velocity=0 time=0
EXTRACT: note_on channel=5 note=77 velocity=0 time=0
EXTRACT: note_on channel=10 note=77 velocity=0 time=0
EXTRACT: note_on channel=0 note=78 velocity=110 time=0.006696425000000001
EXTRACT: note_on channel=1 note=70 velocity=127 time=0
EXTRACT: note_on channel=1 note=73 velocity=127 time=0
EXTRACT: note_on channel=1 note=78 velocity=127 time=0
EXTRACT: note_on channel=2 note=42 velocity=127 time=0
EXTRACT: note_on channel=9 note=70 velocity=75 time=0
EXTRACT: note_on channel=9 note=41 velocity=75 time=0
EXTRACT: note_on channel=9 note=47 velocity=75 time=0
EXTRACT: note_on channel=9 note=41 velocity=127 time=0
EXTRACT: note_on channel=9 note=47 velocity=127 time=0
EXTRACT: note_on channel=5 note=70 velocity=107 time=0
EXTRACT: note_on channel=5 note=73 velocity=107 time=0
EXTRACT: note_on channel=5 note=78 velocity=107 time=0
EXTRACT: note_on channel=10 note=70 velocity=107 time=0
EXTRACT: note_on channel=10 note=73 velocity=107 time=0
EXTRACT: note_on channel=10 note=78 velocity=107 time=0
EXTRACT: note_on channel=6 note=42 velocity=107 time=0
EXTRACT: note_on channel=9 note=70 velocity=0 time=0.261160575
EXTRACT: note_on channel=9 note=41 velocity=0 time=0
EXTRACT: note_on channel=9 note=47 velocity=0 time=0
EXTRACT: note_on channel=9 note=41 velocity=0 time=0
EXTRACT: note_on channel=9 note=47 velocity=0 time=0
EXTRACT: note_on channel=9 note=70 velocity=75 time=0.006696425000000001
EXTRACT: note_on channel=9 note=41 velocity=75 time=0
EXTRACT: note_on channel=9 note=47 velocity=75 time=0
EXTRACT: note_on channel=9 note=70 velocity=0 time=0.127232075
EXTRACT: note_on channel=9 note=41 velocity=0 time=0
EXTRACT: note_on channel=9 note=47 velocity=0 time=0
EXTRACT: note_on channel=9 note=70 velocity=75 time=0.006696425000000001
EXTRACT: note_on channel=9 note=41 velocity=75 time=0
EXTRACT: note_on channel=9 note=47 velocity=75 time=0
EXTRACT: note_on channel=9 note=41 velocity=127 time=0.1339285
EXTRACT: note_on channel=9 note=47 velocity=127 time=0
EXTRACT: note_on channel=9 note=70 velocity=0 time=0.127232075
EXTRACT: note_on channel=9 note=41 velocity=0 time=0
EXTRACT: note_on channel=9 note=47 velocity=0 time=0
EXTRACT: note_on channel=9 note=70 velocity=75 time=0.006696425000000001
EXTRACT: note_on channel=9 note=41 velocity=75 time=0
EXTRACT: note_on channel=9 note=47 velocity=75 time=0
EXTRACT: note_on channel=9 note=70 velocity=0 time=0.127232075
EXTRACT: note_on channel=9 note=41 velocity=0 time=0
EXTRACT: note_on channel=9 note=47 velocity=0 time=0
EXTRACT: note_on channel=9 note=41 velocity=0 time=0
EXTRACT: note_on channel=9 note=47 velocity=0 time=0
EXTRACT: note_on channel=9 note=70 velocity=75 time=0.006696425000000001
EXTRACT: note_on channel=9 note=41 velocity=75 time=0
EXTRACT: note_on channel=9 note=47 velocity=75 time=0
EXTRACT: note_on channel=0 note=78 velocity=0 time=0.1339285
EXTRACT: note_on channel=1 note=70 velocity=0 time=0
EXTRACT: note_on channel=1 note=73 velocity=0 time=0
EXTRACT: note_on channel=1 note=78 velocity=0 time=0
EXTRACT: note_on channel=2 note=42 velocity=0 time=0
EXTRACT: note_on channel=5 note=70 velocity=0 time=0
EXTRACT: note_on channel=5 note=73 velocity=0 time=0
EXTRACT: note_on channel=5 note=78 velocity=0 time=0
EXTRACT: note_on channel=10 note=70 velocity=0 time=0
EXTRACT: note_on channel=10 note=73 velocity=0 time=0
EXTRACT: note_on channel=10 note=78 velocity=0 time=0
EXTRACT: note_on channel=6 note=42 velocity=0 time=0
EXTRACT: note_on channel=9 note=70 velocity=0 time=0.127232075
EXTRACT: note_on channel=9 note=41 velocity=0 time=0
EXTRACT: note_on channel=9 note=47 velocity=0 time=0
EXTRACT: note_on channel=0 note=73 velocity=110 time=0.006696425000000001
EXTRACT: note_on channel=1 note=63 velocity=127 time=0
EXTRACT: note_on channel=1 note=66 velocity=127 time=0
EXTRACT: note_on channel=1 note=73 velocity=127 time=0
EXTRACT: note_on channel=2 note=47 velocity=127 time=0
EXTRACT: note_on channel=9 note=70 velocity=75 time=0
EXTRACT: note_on channel=9 note=41 velocity=75 time=0
EXTRACT: note_on channel=9 note=47 velocity=75 time=0
EXTRACT: note_on channel=9 note=41 velocity=127 time=0
EXTRACT: note_on channel=9 note=47 velocity=127 time=0
EXTRACT: note_on channel=5 note=63 velocity=107 time=0
EXTRACT: note_on channel=5 note=66 velocity=107 time=0
EXTRACT: note_on channel=5 note=73 velocity=107 time=0
EXTRACT: note_on channel=10 note=63 velocity=107 time=0
EXTRACT: note_on channel=10 note=66 velocity=107 time=0
EXTRACT: note_on channel=10 note=73 velocity=107 time=0
EXTRACT: note_on channel=6 note=47 velocity=107 time=0
EXTRACT: note_on channel=9 note=70 velocity=0 time=0.261160575
EXTRACT: note_on channel=9 note=41 velocity=0 time=0
EXTRACT: note_on channel=9 note=47 velocity=0 time=0
EXTRACT: note_on channel=9 note=41 velocity=0 time=0
EXTRACT: note_on channel=9 note=47 velocity=0 time=0
EXTRACT: note_on channel=9 note=70 velocity=75 time=0.006696425000000001
EXTRACT: note_on channel=9 note=41 velocity=75 time=0
EXTRACT: note_on channel=9 note=47 velocity=75 time=0
EXTRACT: note_on channel=0 note=73 velocity=0 time=0.127232075
EXTRACT: note_on channel=1 note=63 velocity=0 time=0
EXTRACT: note_on channel=1 note=66 velocity=0 time=0
EXTRACT: note_on channel=1 note=73 velocity=0 time=0
EXTRACT: note_on channel=9 note=70 velocity=0 time=0
EXTRACT: note_on channel=9 note=41 velocity=0 time=0
EXTRACT: note_on channel=9 note=47 velocity=0 time=0
EXTRACT: note_on channel=5 note=63 velocity=0 time=0
EXTRACT: note_on channel=5 note=66 velocity=0 time=0
EXTRACT: note_on channel=5 note=73 velocity=0 time=0
EXTRACT: note_on channel=10 note=63 velocity=0 time=0
EXTRACT: note_on channel=10 note=66 velocity=0 time=0
EXTRACT: note_on channel=10 note=73 velocity=0 time=0
EXTRACT: note_on channel=0 note=73 velocity=110 time=0.006696425000000001
EXTRACT: note_on channel=1 note=73 velocity=110 time=0
EXTRACT: note_on channel=9 note=70 velocity=75 time=0
EXTRACT: note_on channel=9 note=41 velocity=75 time=0
EXTRACT: note_on channel=9 note=47 velocity=75 time=0
EXTRACT: note_on channel=5 note=73 velocity=90 time=0
EXTRACT: note_on channel=10 note=73 velocity=90 time=0
EXTRACT: note_on channel=2 note=47 velocity=0 time=0.04464283333333333
EXTRACT: note_on channel=6 note=47 velocity=0 time=0
EXTRACT: note_on channel=2 note=46 velocity=127 time=0.08928566666666667
EXTRACT: note_on channel=9 note=41 velocity=127 time=0
EXTRACT: note_on channel=9 note=47 velocity=127 time=0
EXTRACT: note_on channel=6 note=46 velocity=107 time=0
EXTRACT: note_on channel=9 note=70 velocity=0 time=0.127232075
EXTRACT: note_on channel=9 note=41 velocity=0 time=0
EXTRACT: note_on channel=9 note=47 velocity=0 time=0
EXTRACT: note_on channel=9 note=70 velocity=75 time=0.006696425000000001
EXTRACT: note_on channel=9 note=41 velocity=75 time=0
EXTRACT: note_on channel=9 note=47 velocity=75 time=0
EXTRACT: note_on channel=0 note=73 velocity=0 time=0.127232075
EXTRACT: note_on channel=1 note=73 velocity=0 time=0
EXTRACT: note_on channel=9 note=70 velocity=0 time=0
EXTRACT: note_on channel=9 note=41 velocity=0 time=0
EXTRACT: note_on channel=9 note=47 velocity=0 time=0
EXTRACT: note_on channel=9 note=41 velocity=0 time=0
EXTRACT: note_on channel=9 note=47 velocity=0 time=0
EXTRACT: note_on channel=5 note=73 velocity=0 time=0
EXTRACT: note_on channel=10 note=73 velocity=0 time=0
EXTRACT: note_on channel=0 note=73 velocity=110 time=0.006696425000000001
EXTRACT: note_on channel=1 note=73 velocity=110 time=0
EXTRACT: note_on channel=9 note=70 velocity=75 time=0
EXTRACT: note_on channel=9 note=41 velocity=75 time=0
EXTRACT: note_on channel=9 note=47 velocity=75 time=0
EXTRACT: note_on channel=5 note=73 velocity=90 time=0
EXTRACT: note_on channel=10 note=73 velocity=90 time=0
EXTRACT: note_on channel=2 note=46 velocity=0 time=0.17857133333333333
EXTRACT: note_on channel=6 note=46 velocity=0 time=0
EXTRACT: note_on channel=0 note=73 velocity=0 time=0.08258924166666667
EXTRACT: note_on channel=1 note=73 velocity=0 time=0
EXTRACT: note_on channel=9 note=70 velocity=0 time=0
EXTRACT: note_on channel=9 note=41 velocity=0 time=0
EXTRACT: note_on channel=9 note=47 velocity=0 time=0
EXTRACT: note_on channel=5 note=73 velocity=0 time=0
EXTRACT: note_on channel=10 note=73 velocity=0 time=0
EXTRACT: note_on channel=0 note=83 velocity=110 time=0.006696425000000001
EXTRACT: note_on channel=1 note=75 velocity=127 time=0
EXTRACT: note_on channel=1 note=78 velocity=127 time=0
EXTRACT: note_on channel=1 note=83 velocity=127 time=0
EXTRACT: note_on channel=2 note=44 velocity=127 time=0
EXTRACT: note_on channel=9 note=70 velocity=75 time=0
EXTRACT: note_on channel=9 note=41 velocity=75 time=0
EXTRACT: note_on channel=9 note=47 velocity=75 time=0
EXTRACT: note_on channel=9 note=41 velocity=127 time=0
EXTRACT: note_on channel=9 note=47 velocity=127 time=0
EXTRACT: note_on channel=5 note=75 velocity=107 time=0
EXTRACT: note_on channel=5 note=78 velocity=107 time=0
EXTRACT: note_on channel=5 note=83 velocity=107 time=0
EXTRACT: note_on channel=10 note=75 velocity=107 time=0
EXTRACT: note_on channel=10 note=78 velocity=107 time=0
EXTRACT: note_on channel=10 note=83 velocity=107 time=0
EXTRACT: note_on channel=6 note=44 velocity=107 time=0
EXTRACT: note_on channel=9 note=70 velocity=0 time=0.261160575
EXTRACT: note_on channel=9 note=41 velocity=0 time=0
EXTRACT: note_on channel=9 note=47 velocity=0 time=0
EXTRACT: note_on channel=9 note=41 velocity=0 time=0
EXTRACT: note_on channel=9 note=47 velocity=0 time=0
EXTRACT: note_on channel=9 note=70 velocity=75 time=0.006696425000000001
EXTRACT: note_on channel=9 note=41 velocity=75 time=0
EXTRACT: note_on channel=9 note=47 velocity=75 time=0
EXTRACT: note_on channel=0 note=83 velocity=0 time=0.127232075
EXTRACT: note_on channel=1 note=75 velocity=0 time=0
EXTRACT: note_on channel=1 note=78 velocity=0 time=0
EXTRACT: note_on channel=1 note=83 velocity=0 time=0
EXTRACT: note_on channel=9 note=70 velocity=0 time=0
EXTRACT: note_on channel=9 note=41 velocity=0 time=0
EXTRACT: note_on channel=9 note=47 velocity=0 time=0
EXTRACT: note_on channel=5 note=75 velocity=0 time=0
EXTRACT: note_on channel=5 note=78 velocity=0 time=0
EXTRACT: note_on channel=5 note=83 velocity=0 time=0
EXTRACT: note_on channel=10 note=75 velocity=0 time=0
EXTRACT: note_on channel=10 note=78 velocity=0 time=0
EXTRACT: note_on channel=10 note=83 velocity=0 time=0
EXTRACT: note_on channel=0 note=83 velocity=110 time=0.006696425000000001
EXTRACT: note_on channel=1 note=75 velocity=127 time=0
EXTRACT: note_on channel=1 note=78 velocity=127 time=0
EXTRACT: note_on channel=1 note=83 velocity=127 time=0
EXTRACT: note_on channel=9 note=70 velocity=75 time=0
EXTRACT: note_on channel=9 note=41 velocity=75 time=0
EXTRACT: note_on channel=9 note=47 velocity=75 time=0
EXTRACT: note_on channel=5 note=75 velocity=107 time=0
EXTRACT: note_on channel=5 note=78 velocity=107 time=0
EXTRACT: note_on channel=5 note=83 velocity=107 time=0
EXTRACT: note_on channel=10 note=75 velocity=107 time=0
EXTRACT: note_on channel=10 note=78 velocity=107 time=0
EXTRACT: note_on channel=10 note=83 velocity=107 time=0
EXTRACT: note_on channel=9 note=41 velocity=127 time=0.1339285
EXTRACT: note_on channel=9 note=47 velocity=127 time=0
EXTRACT: note_on channel=9 note=70 velocity=0 time=0.127232075
EXTRACT: note_on channel=9 note=41 velocity=0 time=0
EXTRACT: note_on channel=9 note=47 velocity=0 time=0
EXTRACT: note_on channel=9 note=70 velocity=75 time=0.006696425000000001
EXTRACT: note_on channel=9 note=41 velocity=75 time=0
EXTRACT: note_on channel=9 note=47 velocity=75 time=0
EXTRACT: note_on channel=0 note=83 velocity=0 time=0.127232075
EXTRACT: note_on channel=1 note=75 velocity=0 time=0
EXTRACT: note_on channel=1 note=78 velocity=0 time=0
EXTRACT: note_on channel=1 note=83 velocity=0 time=0
EXTRACT: note_on channel=9 note=70 velocity=0 time=0
EXTRACT: note_on channel=9 note=41 velocity=0 time=0
EXTRACT: note_on channel=9 note=47 velocity=0 time=0
EXTRACT: note_on channel=9 note=41 velocity=0 time=0
EXTRACT: note_on channel=9 note=47 velocity=0 time=0
EXTRACT: note_on channel=5 note=75 velocity=0 time=0
EXTRACT: note_on channel=5 note=78 velocity=0 time=0
EXTRACT: note_on channel=5 note=83 velocity=0 time=0
EXTRACT: note_on channel=10 note=75 velocity=0 time=0
EXTRACT: note_on channel=10 note=78 velocity=0 time=0
EXTRACT: note_on channel=10 note=83 velocity=0 time=0
EXTRACT: note_on channel=0 note=83 velocity=110 time=0.006696425000000001
EXTRACT: note_on channel=1 note=83 velocity=110 time=0
EXTRACT: note_on channel=9 note=70 velocity=75 time=0
EXTRACT: note_on channel=9 note=41 velocity=75 time=0
EXTRACT: note_on channel=9 note=47 velocity=75 time=0
EXTRACT: note_on channel=5 note=83 velocity=90 time=0
EXTRACT: note_on channel=10 note=83 velocity=90 time=0
EXTRACT: note_on channel=2 note=44 velocity=0 time=0.1339285
EXTRACT: note_on channel=6 note=44 velocity=0 time=0
EXTRACT: note_on channel=0 note=83 velocity=0 time=0.127232075
EXTRACT: note_on channel=1 note=83 velocity=0 time=0
EXTRACT: note_on channel=9 note=70 velocity=0 time=0
EXTRACT: note_on channel=9 note=41 velocity=0 time=0
EXTRACT: note_on channel=9 note=47 velocity=0 time=0
EXTRACT: note_on channel=5 note=83 velocity=0 time=0
EXTRACT: note_on channel=10 note=83 velocity=0 time=0
EXTRACT: note_on channel=0 note=83 velocity=110 time=0.006696425000000001
EXTRACT: note_on channel=1 note=73 velocity=127 time=0
EXTRACT: note_on channel=1 note=78 velocity=127 time=0
EXTRACT: note_on channel=1 note=83 velocity=127 time=0
EXTRACT: note_on channel=2 note=49 velocity=127 time=0
EXTRACT: note_on channel=9 note=70 velocity=75 time=0
EXTRACT: note_on channel=9 note=41 velocity=75 time=0
EXTRACT: note_on channel=9 note=47 velocity=75 time=0
EXTRACT: note_on channel=9 note=41 velocity=127 time=0
EXTRACT: note_on channel=9 note=47 velocity=127 time=0
EXTRACT: note_on channel=5 note=73 velocity=107 time=0
EXTRACT: note_on channel=5 note=78 velocity=107 time=0
EXTRACT: note_on channel=5 note=83 velocity=107 time=0
EXTRACT: note_on channel=10 note=73 velocity=107 time=0
EXTRACT: note_on channel=10 note=78 velocity=107 time=0
EXTRACT: note_on channel=10 note=83 velocity=107 time=0
EXTRACT: note_on channel=6 note=49 velocity=107 time=0
EXTRACT: note_on channel=9 note=70 velocity=0 time=0.261160575
EXTRACT: note_on channel=9 note=41 velocity=0 time=0
EXTRACT: note_on channel=9 note=47 velocity=0 time=0
EXTRACT: note_on channel=9 note=41 velocity=0 time=0
EXTRACT: note_on channel=9 note=47 velocity=0 time=0
EXTRACT: note_on channel=9 note=70 velocity=75 time=0.006696425000000001
EXTRACT: note_on channel=9 note=41 velocity=75 time=0
EXTRACT: note_on channel=9 note=47 velocity=75 time=0
EXTRACT: note_on channel=0 note=83 velocity=0 time=0.127232075
EXTRACT: note_on channel=1 note=73 velocity=0 time=0
EXTRACT: note_on channel=1 note=78 velocity=0 time=0
EXTRACT: note_on channel=1 note=83 velocity=0 time=0
EXTRACT: note_on channel=9 note=70 velocity=0 time=0
EXTRACT: note_on channel=9 note=41 velocity=0 time=0
EXTRACT: note_on channel=9 note=47 velocity=0 time=0
EXTRACT: note_on channel=5 note=73 velocity=0 time=0
EXTRACT: note_on channel=5 note=78 velocity=0 time=0
EXTRACT: note_on channel=5 note=83 velocity=0 time=0
EXTRACT: note_on channel=10 note=73 velocity=0 time=0
EXTRACT: note_on channel=10 note=78 velocity=0 time=0
EXTRACT: note_on channel=10 note=83 velocity=0 time=0
EXTRACT: note_on channel=0 note=82 velocity=110 time=0.006696425000000001
EXTRACT: note_on channel=1 note=82 velocity=110 time=0
EXTRACT: note_on channel=9 note=70 velocity=75 time=0
EXTRACT: note_on channel=9 note=41 velocity=75 time=0
EXTRACT: note_on channel=9 note=47 velocity=75 time=0
EXTRACT: note_on channel=5 note=82 velocity=90 time=0
EXTRACT: note_on channel=10 note=82 velocity=90 time=0
EXTRACT: note_on channel=9 note=41 velocity=127 time=0.1339285
EXTRACT: note_on channel=9 note=47 velocity=127 time=0
EXTRACT: note_on channel=9 note=70 velocity=0 time=0.127232075
EXTRACT: note_on channel=9 note=41 velocity=0 time=0
EXTRACT: note_on channel=9 note=47 velocity=0 time=0
EXTRACT: note_on channel=9 note=70 velocity=75 time=0.006696425000000001
EXTRACT: note_on channel=9 note=41 velocity=75 time=0
EXTRACT: note_on channel=9 note=47 velocity=75 time=0
EXTRACT: note_on channel=0 note=82 velocity=0 time=0.127232075
EXTRACT: note_on channel=1 note=82 velocity=0 time=0
EXTRACT: note_on channel=9 note=70 velocity=0 time=0
EXTRACT: note_on channel=9 note=41 velocity=0 time=0
EXTRACT: note_on channel=9 note=47 velocity=0 time=0
EXTRACT: note_on channel=9 note=41 velocity=0 time=0
EXTRACT: note_on channel=9 note=47 velocity=0 time=0
EXTRACT: note_on channel=5 note=82 velocity=0 time=0
EXTRACT: note_on channel=10 note=82 velocity=0 time=0
EXTRACT: note_on channel=0 note=82 velocity=110 time=0.006696425000000001
EXTRACT: note_on channel=1 note=82 velocity=110 time=0
EXTRACT: note_on channel=9 note=70 velocity=75 time=0
EXTRACT: note_on channel=9 note=41 velocity=75 time=0
EXTRACT: note_on channel=9 note=47 velocity=75 time=0
EXTRACT: note_on channel=5 note=82 velocity=90 time=0
EXTRACT: note_on channel=10 note=82 velocity=90 time=0
EXTRACT: note_on channel=2 note=49 velocity=0 time=0.1339285
EXTRACT: note_on channel=6 note=49 velocity=0 time=0
EXTRACT: note_on channel=0 note=82 velocity=0 time=0.127232075
EXTRACT: note_on channel=1 note=82 velocity=0 time=0
EXTRACT: note_on channel=9 note=70 velocity=0 time=0
EXTRACT: note_on channel=9 note=41 velocity=0 time=0
EXTRACT: note_on channel=9 note=47 velocity=0 time=0
EXTRACT: note_on channel=5 note=82 velocity=0 time=0
EXTRACT: note_on channel=10 note=82 velocity=0 time=0
EXTRACT: note_on channel=0 note=82 velocity=110 time=0.006696425000000001
EXTRACT: note_on channel=1 note=73 velocity=127 time=0
EXTRACT: note_on channel=1 note=78 velocity=127 time=0
EXTRACT: note_on channel=1 note=82 velocity=127 time=0
EXTRACT: note_on channel=2 note=51 velocity=127 time=0
EXTRACT: note_on channel=9 note=70 velocity=75 time=0
EXTRACT: note_on channel=9 note=41 velocity=75 time=0
EXTRACT: note_on channel=9 note=47 velocity=75 time=0
EXTRACT: note_on channel=9 note=41 velocity=127 time=0
EXTRACT: note_on channel=9 note=47 velocity=127 time=0
EXTRACT: note_on channel=5 note=73 velocity=107 time=0
EXTRACT: note_on channel=5 note=78 velocity=107 time=0
EXTRACT: note_on channel=5 note=82 velocity=107 time=0
EXTRACT: note_on channel=10 note=73 velocity=107 time=0
EXTRACT: note_on channel=10 note=78 velocity=107 time=0
EXTRACT: note_on channel=10 note=82 velocity=107 time=0
EXTRACT: note_on channel=6 note=51 velocity=107 time=0
EXTRACT: note_on channel=9 note=70 velocity=0 time=0.261160575
EXTRACT: note_on channel=9 note=41 velocity=0 time=0
EXTRACT: note_on channel=9 note=47 velocity=0 time=0
EXTRACT: note_on channel=9 note=41 velocity=0 time=0
EXTRACT: note_on channel=9 note=47 velocity=0 time=0
EXTRACT: note_on channel=9 note=70 velocity=75 time=0.006696425000000001
EXTRACT: note_on channel=9 note=41 velocity=75 time=0
EXTRACT: note_on channel=9 note=47 velocity=75 time=0
EXTRACT: note_on channel=0 note=82 velocity=0 time=0.127232075
EXTRACT: note_on channel=1 note=73 velocity=0 time=0
EXTRACT: note_on channel=1 note=78 velocity=0 time=0
EXTRACT: note_on channel=1 note=82 velocity=0 time=0
EXTRACT: note_on channel=9 note=70 velocity=0 time=0
EXTRACT: note_on channel=9 note=41 velocity=0 time=0
EXTRACT: note_on channel=9 note=47 velocity=0 time=0
EXTRACT: note_on channel=5 note=73 velocity=0 time=0
EXTRACT: note_on channel=5 note=78 velocity=0 time=0
EXTRACT: note_on channel=5 note=82 velocity=0 time=0
EXTRACT: note_on channel=10 note=73 velocity=0 time=0
EXTRACT: note_on channel=10 note=78 velocity=0 time=0
EXTRACT: note_on channel=10 note=82 velocity=0 time=0
EXTRACT: note_on channel=0 note=80 velocity=110 time=0.006696425000000001
EXTRACT: note_on channel=1 note=80 velocity=110 time=0
EXTRACT: note_on channel=9 note=70 velocity=75 time=0
EXTRACT: note_on channel=9 note=41 velocity=75 time=0
EXTRACT: note_on channel=9 note=47 velocity=75 time=0
EXTRACT: note_on channel=5 note=80 velocity=90 time=0
EXTRACT: note_on channel=10 note=80 velocity=90 time=0
EXTRACT: note_on channel=9 note=41 velocity=127 time=0.1339285
EXTRACT: note_on channel=9 note=47 velocity=127 time=0
EXTRACT: note_on channel=9 note=70 velocity=0 time=0.127232075
EXTRACT: note_on channel=9 note=41 velocity=0 time=0
EXTRACT: note_on channel=9 note=47 velocity=0 time=0
EXTRACT: note_on channel=9 note=70 velocity=75 time=0.006696425000000001
EXTRACT: note_on channel=9 note=41 velocity=75 time=0
EXTRACT: note_on channel=9 note=47 velocity=75 time=0
EXTRACT: note_on channel=0 note=80 velocity=0 time=0.127232075
EXTRACT: note_on channel=1 note=80 velocity=0 time=0
EXTRACT: note_on channel=9 note=70 velocity=0 time=0
EXTRACT: note_on channel=9 note=41 velocity=0 time=0
EXTRACT: note_on channel=9 note=47 velocity=0 time=0
EXTRACT: note_on channel=9 note=41 velocity=0 time=0
EXTRACT: note_on channel=9 note=47 velocity=0 time=0
EXTRACT: note_on channel=5 note=80 velocity=0 time=0
EXTRACT: note_on channel=10 note=80 velocity=0 time=0
EXTRACT: note_on channel=0 note=80 velocity=110 time=0.006696425000000001
EXTRACT: note_on channel=1 note=80 velocity=110 time=0
EXTRACT: note_on channel=9 note=70 velocity=75 time=0
EXTRACT: note_on channel=9 note=41 velocity=75 time=0
EXTRACT: note_on channel=9 note=47 velocity=75 time=0
EXTRACT: note_on channel=5 note=80 velocity=90 time=0
EXTRACT: note_on channel=10 note=80 velocity=90 time=0
EXTRACT: note_on channel=2 note=51 velocity=0 time=0.1339285
EXTRACT: note_on channel=6 note=51 velocity=0 time=0
EXTRACT: note_on channel=0 note=80 velocity=0 time=0.127232075
EXTRACT: note_on channel=1 note=80 velocity=0 time=0
EXTRACT: note_on channel=9 note=70 velocity=0 time=0
EXTRACT: note_on channel=9 note=41 velocity=0 time=0
EXTRACT: note_on channel=9 note=47 velocity=0 time=0
EXTRACT: note_on channel=5 note=80 velocity=0 time=0
EXTRACT: note_on channel=10 note=80 velocity=0 time=0
EXTRACT: note_on channel=0 note=80 velocity=110 time=0.006696425000000001
EXTRACT: note_on channel=1 note=73 velocity=127 time=0
EXTRACT: note_on channel=1 note=75 velocity=127 time=0
EXTRACT: note_on channel=1 note=80 velocity=127 time=0
EXTRACT: note_on channel=2 note=47 velocity=127 time=0
EXTRACT: note_on channel=9 note=70 velocity=75 time=0
EXTRACT: note_on channel=9 note=41 velocity=75 time=0
EXTRACT: note_on channel=9 note=47 velocity=75 time=0
EXTRACT: note_on channel=9 note=41 velocity=127 time=0
EXTRACT: note_on channel=9 note=47 velocity=127 time=0
EXTRACT: note_on channel=5 note=73 velocity=107 time=0
EXTRACT: note_on channel=5 note=75 velocity=107 time=0
EXTRACT: note_on channel=5 note=80 velocity=107 time=0
EXTRACT: note_on channel=10 note=73 velocity=107 time=0
EXTRACT: note_on channel=10 note=75 velocity=107 time=0
EXTRACT: note_on channel=10 note=80 velocity=107 time=0
EXTRACT: note_on channel=6 note=47 velocity=107 time=0
EXTRACT: note_on channel=9 note=70 velocity=0 time=0.261160575
EXTRACT: note_on channel=9 note=41 velocity=0 time=0
EXTRACT: note_on channel=9 note=47 velocity=0 time=0
EXTRACT: note_on channel=9 note=41 velocity=0 time=0
EXTRACT: note_on channel=9 note=47 velocity=0 time=0
EXTRACT: note_on channel=9 note=70 velocity=75 time=0.006696425000000001
EXTRACT: note_on channel=9 note=41 velocity=75 time=0
EXTRACT: note_on channel=9 note=47 velocity=75 time=0
EXTRACT: note_on channel=0 note=80 velocity=0 time=0.127232075
EXTRACT: note_on channel=1 note=73 velocity=0 time=0
EXTRACT: note_on channel=1 note=75 velocity=0 time=0
EXTRACT: note_on channel=1 note=80 velocity=0 time=0
EXTRACT: note_on channel=9 note=70 velocity=0 time=0
EXTRACT: note_on channel=9 note=41 velocity=0 time=0
EXTRACT: note_on channel=9 note=47 velocity=0 time=0
EXTRACT: note_on channel=5 note=73 velocity=0 time=0
EXTRACT: note_on channel=5 note=75 velocity=0 time=0
EXTRACT: note_on channel=5 note=80 velocity=0 time=0
EXTRACT: note_on channel=10 note=73 velocity=0 time=0
EXTRACT: note_on channel=10 note=75 velocity=0 time=0
EXTRACT: note_on channel=10 note=80 velocity=0 time=0
EXTRACT: note_on channel=0 note=78 velocity=110 time=0.006696425000000001
EXTRACT: note_on channel=1 note=78 velocity=110 time=0
EXTRACT: note_on channel=9 note=70 velocity=75 time=0
EXTRACT: note_on channel=9 note=41 velocity=75 time=0
EXTRACT: note_on channel=9 note=47 velocity=75 time=0
EXTRACT: note_on channel=5 note=78 velocity=90 time=0
EXTRACT: note_on channel=10 note=78 velocity=90 time=0
EXTRACT: note_on channel=9 note=41 velocity=127 time=0.1339285
EXTRACT: note_on channel=9 note=47 velocity=127 time=0
EXTRACT: note_on channel=9 note=70 velocity=0 time=0.127232075
EXTRACT: note_on channel=9 note=41 velocity=0 time=0
EXTRACT: note_on channel=9 note=47 velocity=0 time=0
EXTRACT: note_on channel=9 note=70 velocity=75 time=0.006696425000000001
EXTRACT: note_on channel=9 note=41 velocity=75 time=0
EXTRACT: note_on channel=9 note=47 velocity=75 time=0
EXTRACT: note_on channel=0 note=78 velocity=0 time=0.127232075
EXTRACT: note_on channel=1 note=78 velocity=0 time=0
EXTRACT: note_on channel=9 note=70 velocity=0 time=0
EXTRACT: note_on channel=9 note=41 velocity=0 time=0
EXTRACT: note_on channel=9 note=47 velocity=0 time=0
EXTRACT: note_on channel=9 note=41 velocity=0 time=0
EXTRACT: note_on channel=9 note=47 velocity=0 time=0
EXTRACT: note_on channel=5 note=78 velocity=0 time=0
EXTRACT: note_on channel=10 note=78 velocity=0 time=0
EXTRACT: note_on channel=0 note=77 velocity=110 time=0.006696425000000001
EXTRACT: note_on channel=1 note=77 velocity=110 time=0
EXTRACT: note_on channel=9 note=70 velocity=75 time=0
EXTRACT: note_on channel=9 note=41 velocity=75 time=0
EXTRACT: note_on channel=9 note=47 velocity=75 time=0
EXTRACT: note_on channel=5 note=77 velocity=90 time=0
EXTRACT: note_on channel=10 note=77 velocity=90 time=0
EXTRACT: note_on channel=2 note=47 velocity=0 time=0.1339285
EXTRACT: note_on channel=6 note=47 velocity=0 time=0
EXTRACT: note_on channel=0 note=77 velocity=0 time=0.127232075
EXTRACT: note_on channel=1 note=77 velocity=0 time=0
EXTRACT: note_on channel=9 note=70 velocity=0 time=0
EXTRACT: note_on channel=9 note=41 velocity=0 time=0
EXTRACT: note_on channel=9 note=47 velocity=0 time=0
EXTRACT: note_on channel=5 note=77 velocity=0 time=0
EXTRACT: note_on channel=10 note=77 velocity=0 time=0
EXTRACT: note_on channel=0 note=78 velocity=110 time=0.006696425000000001
EXTRACT: note_on channel=1 note=71 velocity=127 time=0
EXTRACT: note_on channel=1 note=75 velocity=127 time=0
EXTRACT: note_on channel=1 note=78 velocity=127 time=0
EXTRACT: note_on channel=2 note=44 velocity=127 time=0
EXTRACT: note_on channel=9 note=70 velocity=75 time=0
EXTRACT: note_on channel=9 note=41 velocity=75 time=0
EXTRACT: note_on channel=9 note=47 velocity=75 time=0
EXTRACT: note_on channel=9 note=41 velocity=127 time=0
EXTRACT: note_on channel=9 note=47 velocity=127 time=0
EXTRACT: note_on channel=5 note=71 velocity=107 time=0
EXTRACT: note_on channel=5 note=75 velocity=107 time=0
EXTRACT: note_on channel=5 note=78 velocity=107 time=0
EXTRACT: note_on channel=10 note=71 velocity=107 time=0
EXTRACT: note_on channel=10 note=75 velocity=107 time=0
EXTRACT: note_on channel=10 note=78 velocity=107 time=0
EXTRACT: note_on channel=6 note=44 velocity=107 time=0
EXTRACT: note_on channel=9 note=70 velocity=0 time=0.261160575
EXTRACT: note_on channel=9 note=41 velocity=0 time=0
EXTRACT: note_on channel=9 note=47 velocity=0 time=0
EXTRACT: note_on channel=9 note=41 velocity=0 time=0
EXTRACT: note_on channel=9 note=47 velocity=0 time=0
EXTRACT: note_on channel=9 note=70 velocity=75 time=0.006696425000000001
EXTRACT: note_on channel=9 note=41 velocity=75 time=0
EXTRACT: note_on channel=9 note=47 velocity=75 time=0
EXTRACT: note_on channel=0 note=78 velocity=0 time=0.127232075
EXTRACT: note_on channel=1 note=71 velocity=0 time=0
EXTRACT: note_on channel=1 note=75 velocity=0 time=0
EXTRACT: note_on channel=1 note=78 velocity=0 time=0
EXTRACT: note_on channel=9 note=70 velocity=0 time=0
EXTRACT: note_on channel=9 note=41 velocity=0 time=0
EXTRACT: note_on channel=9 note=47 velocity=0 time=0
EXTRACT: note_on channel=5 note=71 velocity=0 time=0
EXTRACT: note_on channel=5 note=75 velocity=0 time=0
EXTRACT: note_on channel=5 note=78 velocity=0 time=0
EXTRACT: note_on channel=10 note=71 velocity=0 time=0
EXTRACT: note_on channel=10 note=75 velocity=0 time=0
EXTRACT: note_on channel=10 note=78 velocity=0 time=0
EXTRACT: note_on channel=0 note=78 velocity=110 time=0.006696425000000001
EXTRACT: note_on channel=1 note=71 velocity=127 time=0
EXTRACT: note_on channel=1 note=75 velocity=127 time=0
EXTRACT: note_on channel=1 note=78 velocity=127 time=0
EXTRACT: note_on channel=9 note=70 velocity=75 time=0
EXTRACT: note_on channel=9 note=41 velocity=75 time=0
EXTRACT: note_on channel=9 note=47 velocity=75 time=0
EXTRACT: note_on channel=5 note=71 velocity=107 time=0
EXTRACT: note_on channel=5 note=75 velocity=107 time=0
EXTRACT: note_on channel=5 note=78 velocity=107 time=0
EXTRACT: note_on channel=10 note=71 velocity=107 time=0
EXTRACT: note_on channel=10 note=75 velocity=107 time=0
EXTRACT: note_on channel=10 note=78 velocity=107 time=0
EXTRACT: note_on channel=9 note=41 velocity=127 time=0.1339285
EXTRACT: note_on channel=9 note=47 velocity=127 time=0
EXTRACT: note_on channel=9 note=70 velocity=0 time=0.127232075
EXTRACT: note_on channel=9 note=41 velocity=0 time=0
EXTRACT: note_on channel=9 note=47 velocity=0 time=0
EXTRACT: note_on channel=9 note=70 velocity=75 time=0.006696425000000001
EXTRACT: note_on channel=9 note=41 velocity=75 time=0
EXTRACT: note_on channel=9 note=47 velocity=75 time=0
EXTRACT: note_on channel=0 note=78 velocity=0 time=0.127232075
EXTRACT: note_on channel=1 note=71 velocity=0 time=0
EXTRACT: note_on channel=1 note=75 velocity=0 time=0
EXTRACT: note_on channel=1 note=78 velocity=0 time=0
EXTRACT: note_on channel=9 note=70 velocity=0 time=0
EXTRACT: note_on channel=9 note=41 velocity=0 time=0
EXTRACT: note_on channel=9 note=47 velocity=0 time=0
EXTRACT: note_on channel=9 note=41 velocity=0 time=0
EXTRACT: note_on channel=9 note=47 velocity=0 time=0
EXTRACT: note_on channel=5 note=71 velocity=0 time=0
EXTRACT: note_on channel=5 note=75 velocity=0 time=0
EXTRACT: note_on channel=5 note=78 velocity=0 time=0
EXTRACT: note_on channel=10 note=71 velocity=0 time=0
EXTRACT: note_on channel=10 note=75 velocity=0 time=0
EXTRACT: note_on channel=10 note=78 velocity=0 time=0
EXTRACT: note_on channel=0 note=80 velocity=110 time=0.006696425000000001
EXTRACT: note_on channel=1 note=80 velocity=110 time=0
EXTRACT: note_on channel=9 note=70 velocity=75 time=0
EXTRACT: note_on channel=9 note=41 velocity=75 time=0
EXTRACT: note_on channel=9 note=47 velocity=75 time=0
EXTRACT: note_on channel=5 note=80 velocity=90 time=0
EXTRACT: note_on channel=10 note=80 velocity=90 time=0
EXTRACT: note_on channel=2 note=44 velocity=0 time=0.1339285
EXTRACT: note_on channel=6 note=44 velocity=0 time=0
EXTRACT: note_on channel=0 note=80 velocity=0 time=0.127232075
EXTRACT: note_on channel=1 note=80 velocity=0 time=0
EXTRACT: note_on channel=9 note=70 velocity=0 time=0
EXTRACT: note_on channel=9 note=41 velocity=0 time=0
EXTRACT: note_on channel=9 note=47 velocity=0 time=0
EXTRACT: note_on channel=5 note=80 velocity=0 time=0
EXTRACT: note_on channel=10 note=80 velocity=0 time=0
EXTRACT: note_on channel=0 note=80 velocity=110 time=0.006696425000000001
EXTRACT: note_on channel=1 note=73 velocity=127 time=0
EXTRACT: note_on channel=1 note=78 velocity=127 time=0
EXTRACT: note_on channel=1 note=80 velocity=127 time=0
EXTRACT: note_on channel=2 note=49 velocity=127 time=0
EXTRACT: note_on channel=9 note=70 velocity=75 time=0
EXTRACT: note_on channel=9 note=41 velocity=75 time=0
EXTRACT: note_on channel=9 note=47 velocity=75 time=0
EXTRACT: note_on channel=9 note=41 velocity=127 time=0
EXTRACT: note_on channel=9 note=47 velocity=127 time=0
EXTRACT: note_on channel=5 note=73 velocity=107 time=0
EXTRACT: note_on channel=5 note=78 velocity=107 time=0
EXTRACT: note_on channel=5 note=80 velocity=107 time=0
EXTRACT: note_on channel=10 note=73 velocity=107 time=0
EXTRACT: note_on channel=10 note=78 velocity=107 time=0
EXTRACT: note_on channel=10 note=80 velocity=107 time=0
EXTRACT: note_on channel=6 note=49 velocity=107 time=0
EXTRACT: note_on channel=9 note=70 velocity=0 time=0.261160575
EXTRACT: note_on channel=9 note=41 velocity=0 time=0
EXTRACT: note_on channel=9 note=47 velocity=0 time=0
EXTRACT: note_on channel=9 note=41 velocity=0 time=0
EXTRACT: note_on channel=9 note=47 velocity=0 time=0
EXTRACT: note_on channel=9 note=70 velocity=75 time=0.006696425000000001
EXTRACT: note_on channel=9 note=41 velocity=75 time=0
EXTRACT: note_on channel=9 note=47 velocity=75 time=0
EXTRACT: note_on channel=9 note=70 velocity=0 time=0.127232075
EXTRACT: note_on channel=9 note=41 velocity=0 time=0
EXTRACT: note_on channel=9 note=47 velocity=0 time=0
EXTRACT: note_on channel=9 note=70 velocity=75 time=0.006696425000000001
EXTRACT: note_on channel=9 note=41 velocity=75 time=0
EXTRACT: note_on channel=9 note=47 velocity=75 time=0
EXTRACT: note_on channel=9 note=41 velocity=127 time=0.1339285
EXTRACT: note_on channel=9 note=47 velocity=127 time=0
EXTRACT: note_on channel=9 note=70 velocity=0 time=0.127232075
EXTRACT: note_on channel=9 note=41 velocity=0 time=0
EXTRACT: note_on channel=9 note=47 velocity=0 time=0
EXTRACT: note_on channel=9 note=70 velocity=75 time=0.006696425000000001
EXTRACT: note_on channel=9 note=41 velocity=75 time=0
EXTRACT: note_on channel=9 note=47 velocity=75 time=0
EXTRACT: note_on channel=9 note=70 velocity=0 time=0.127232075
EXTRACT: note_on channel=9 note=41 velocity=0 time=0
EXTRACT: note_on channel=9 note=47 velocity=0 time=0
EXTRACT: note_on channel=9 note=41 velocity=0 time=0
EXTRACT: note_on channel=9 note=47 velocity=0 time=0
EXTRACT: note_on channel=9 note=70 velocity=75 time=0.006696425000000001
EXTRACT: note_on channel=9 note=41 velocity=75 time=0
EXTRACT: note_on channel=9 note=47 velocity=75 time=0
EXTRACT: note_on channel=1 note=73 velocity=0 time=0.1339285
EXTRACT: note_on channel=1 note=78 velocity=0 time=0
EXTRACT: note_on channel=1 note=80 velocity=0 time=0
EXTRACT: note_on channel=2 note=49 velocity=0 time=0
EXTRACT: note_on channel=5 note=73 velocity=0 time=0
EXTRACT: note_on channel=5 note=78 velocity=0 time=0
EXTRACT: note_on channel=5 note=80 velocity=0 time=0
EXTRACT: note_on channel=10 note=73 velocity=0 time=0
EXTRACT: note_on channel=10 note=78 velocity=0 time=0
EXTRACT: note_on channel=10 note=80 velocity=0 time=0
EXTRACT: note_on channel=6 note=49 velocity=0 time=0
EXTRACT: note_on channel=9 note=70 velocity=0 time=0.127232075
EXTRACT: note_on channel=9 note=41 velocity=0 time=0
EXTRACT: note_on channel=9 note=47 velocity=0 time=0
EXTRACT: note_on channel=0 note=80 velocity=0 time=0.006696425000000001
EXTRACT: note_on channel=0 note=82 velocity=110 time=0
EXTRACT: note_on channel=1 note=66 velocity=110 time=0
EXTRACT: note_on channel=1 note=70 velocity=110 time=0
EXTRACT: note_on channel=2 note=51 velocity=110 time=0
EXTRACT: note_on channel=9 note=70 velocity=75 time=0
EXTRACT: note_on channel=9 note=41 velocity=75 time=0
EXTRACT: note_on channel=9 note=47 velocity=75 time=0
EXTRACT: note_on channel=9 note=41 velocity=127 time=0
EXTRACT: note_on channel=9 note=47 velocity=127 time=0
EXTRACT: note_on channel=5 note=66 velocity=90 time=0
EXTRACT: note_on channel=5 note=70 velocity=90 time=0
EXTRACT: note_on channel=10 note=66 velocity=90 time=0
EXTRACT: note_on channel=10 note=70 velocity=90 time=0
EXTRACT: note_on channel=6 note=51 velocity=90 time=0
EXTRACT: note_on channel=0 note=82 velocity=0 time=0.1339285
EXTRACT: note_on channel=0 note=80 velocity=110 time=0
EXTRACT: note_on channel=9 note=70 velocity=0 time=0.127232075
EXTRACT: note_on channel=9 note=41 velocity=0 time=0
EXTRACT: note_on channel=9 note=47 velocity=0 time=0
EXTRACT: note_on channel=9 note=41 velocity=0 time=0
EXTRACT: note_on channel=9 note=47 velocity=0 time=0
EXTRACT: note_on channel=0 note=80 velocity=0 time=0.006696425000000001
EXTRACT: note_on channel=0 note=78 velocity=110 time=0
EXTRACT: note_on channel=9 note=70 velocity=75 time=0
EXTRACT: note_on channel=9 note=41 velocity=75 time=0
EXTRACT: note_on channel=9 note=47 velocity=75 time=0
EXTRACT: note_on channel=1 note=66 velocity=0 time=0.127232075
EXTRACT: note_on channel=1 note=70 velocity=0 time=0
EXTRACT: note_on channel=2 note=51 velocity=0 time=0
EXTRACT: note_on channel=9 note=70 velocity=0 time=0
EXTRACT: note_on channel=9 note=41 velocity=0 time=0
EXTRACT: note_on channel=9 note=47 velocity=0 time=0
EXTRACT: note_on channel=5 note=66 velocity=0 time=0
EXTRACT: note_on channel=5 note=70 velocity=0 time=0
EXTRACT: note_on channel=10 note=66 velocity=0 time=0
EXTRACT: note_on channel=10 note=70 velocity=0 time=0
EXTRACT: note_on channel=6 note=51 velocity=0 time=0
EXTRACT: note_on channel=1 note=66 velocity=110 time=0.006696425000000001
EXTRACT: note_on channel=1 note=70 velocity=110 time=0
EXTRACT: note_on channel=2 note=51 velocity=110 time=0
EXTRACT: note_on channel=9 note=70 velocity=75 time=0
EXTRACT: note_on channel=9 note=41 velocity=75 time=0
EXTRACT: note_on channel=9 note=47 velocity=75 time=0
EXTRACT: note_on channel=5 note=66 velocity=90 time=0
EXTRACT: note_on channel=5 note=70 velocity=90 time=0
EXTRACT: note_on channel=10 note=66 velocity=90 time=0
EXTRACT: note_on channel=10 note=70 velocity=90 time=0
EXTRACT: note_on channel=6 note=51 velocity=90 time=0
EXTRACT: note_on channel=0 note=78 velocity=0 time=0.127232075
EXTRACT: note_on channel=9 note=41 velocity=127 time=0.006696425000000001
EXTRACT: note_on channel=9 note=47 velocity=127 time=0
EXTRACT: note_on channel=9 note=70 velocity=0 time=0.127232075
EXTRACT: note_on channel=9 note=41 velocity=0 time=0
EXTRACT: note_on channel=9 note=47 velocity=0 time=0
EXTRACT: note_on channel=9 note=70 velocity=75 time=0.006696425000000001
EXTRACT: note_on channel=9 note=41 velocity=75 time=0
EXTRACT: note_on channel=9 note=47 velocity=75 time=0
EXTRACT: note_on channel=1 note=66 velocity=0 time=0.127232075
EXTRACT: note_on channel=1 note=70 velocity=0 time=0
EXTRACT: note_on channel=2 note=51 velocity=0 time=0
EXTRACT: note_on channel=9 note=70 velocity=0 time=0
EXTRACT: note_on channel=9 note=41 velocity=0 time=0
EXTRACT: note_on channel=9 note=47 velocity=0 time=0
EXTRACT: note_on channel=9 note=41 velocity=0 time=0
EXTRACT: note_on channel=9 note=47 velocity=0 time=0
EXTRACT: note_on channel=5 note=66 velocity=0 time=0
EXTRACT: note_on channel=5 note=70 velocity=0 time=0
EXTRACT: note_on channel=10 note=66 velocity=0 time=0
EXTRACT: note_on channel=10 note=70 velocity=0 time=0
EXTRACT: note_on channel=6 note=51 velocity=0 time=0
EXTRACT: note_on channel=1 note=66 velocity=110 time=0.006696425000000001
EXTRACT: note_on channel=1 note=70 velocity=110 time=0
EXTRACT: note_on channel=1 note=73 velocity=110 time=0
EXTRACT: note_on channel=2 note=49 velocity=110 time=0
EXTRACT: note_on channel=9 note=70 velocity=75 time=0
EXTRACT: note_on channel=9 note=41 velocity=75 time=0
EXTRACT: note_on channel=9 note=47 velocity=75 time=0
EXTRACT: note_on channel=5 note=66 velocity=90 time=0
EXTRACT: note_on channel=5 note=70 velocity=90 time=0
EXTRACT: note_on channel=5 note=73 velocity=90 time=0
EXTRACT: note_on channel=10 note=66 velocity=90 time=0
EXTRACT: note_on channel=10 note=70 velocity=90 time=0
EXTRACT: note_on channel=10 note=73 velocity=90 time=0
EXTRACT: note_on channel=6 note=49 velocity=90 time=0
EXTRACT: note_on channel=2 note=49 velocity=0 time=0.127232075
EXTRACT: note_on channel=6 note=49 velocity=0 time=0
EXTRACT: note_on channel=2 note=51 velocity=110 time=0.006696425000000001
EXTRACT: note_on channel=6 note=51 velocity=90 time=0
EXTRACT: note_on channel=9 note=70 velocity=0 time=0.127232075
EXTRACT: note_on channel=9 note=41 velocity=0 time=0
EXTRACT: note_on channel=9 note=47 velocity=0 time=0
EXTRACT: note_on channel=9 note=70 velocity=75 time=0.006696425000000001
EXTRACT: note_on channel=9 note=41 velocity=75 time=0
EXTRACT: note_on channel=9 note=47 velocity=75 time=0
EXTRACT: note_on channel=9 note=41 velocity=127 time=0
EXTRACT: note_on channel=9 note=47 velocity=127 time=0
EXTRACT: note_on channel=2 note=51 velocity=0 time=0.127232075
EXTRACT: note_on channel=6 note=51 velocity=0 time=0
EXTRACT: note_on channel=2 note=51 velocity=110 time=0.006696425000000001
EXTRACT: note_on channel=6 note=51 velocity=90 time=0
EXTRACT: note_on channel=2 note=51 velocity=0 time=0.127232075
EXTRACT: note_on channel=9 note=70 velocity=0 time=0
EXTRACT: note_on channel=9 note=41 velocity=0 time=0
EXTRACT: note_on channel=9 note=47 velocity=0 time=0
EXTRACT: note_on channel=9 note=41 velocity=0 time=0
EXTRACT: note_on channel=9 note=47 velocity=0 time=0
EXTRACT: note_on channel=6 note=51 velocity=0 time=0
EXTRACT: note_on channel=2 note=49 velocity=110 time=0.006696425000000001
EXTRACT: note_on channel=9 note=70 velocity=75 time=0
EXTRACT: note_on channel=9 note=41 velocity=75 time=0
EXTRACT: note_on channel=9 note=47 velocity=75 time=0
EXTRACT: note_on channel=6 note=49 velocity=90 time=0
EXTRACT: note_on channel=9 note=70 velocity=0 time=0.127232075
EXTRACT: note_on channel=9 note=41 velocity=0 time=0
EXTRACT: note_on channel=9 note=47 velocity=0 time=0
EXTRACT: note_on channel=9 note=70 velocity=75 time=0.006696425000000001
EXTRACT: note_on channel=9 note=41 velocity=75 time=0
EXTRACT: note_on channel=9 note=47 velocity=75 time=0
EXTRACT: note_on channel=1 note=66 velocity=0 time=0.04464283333333333
EXTRACT: note_on channel=1 note=70 velocity=0 time=0
EXTRACT: note_on channel=1 note=73 velocity=0 time=0
EXTRACT: note_on channel=5 note=66 velocity=0 time=0
EXTRACT: note_on channel=5 note=70 velocity=0 time=0
EXTRACT: note_on channel=5 note=73 velocity=0 time=0
EXTRACT: note_on channel=10 note=66 velocity=0 time=0
EXTRACT: note_on channel=10 note=70 velocity=0 time=0
EXTRACT: note_on channel=10 note=73 velocity=0 time=0
EXTRACT: note_on channel=2 note=49 velocity=0 time=0.08258924166666667
EXTRACT: note_on channel=6 note=49 velocity=0 time=0
EXTRACT: note_on channel=1 note=66 velocity=110 time=0.006696425000000001
EXTRACT: note_on channel=1 note=70 velocity=110 time=0
EXTRACT: note_on channel=1 note=73 velocity=110 time=0
EXTRACT: note_on channel=2 note=51 velocity=110 time=0
EXTRACT: note_on channel=9 note=41 velocity=127 time=0
EXTRACT: note_on channel=9 note=47 velocity=127 time=0
EXTRACT: note_on channel=5 note=66 velocity=90 time=0
EXTRACT: note_on channel=5 note=70 velocity=90 time=0
EXTRACT: note_on channel=5 note=73 velocity=90 time=0
EXTRACT: note_on channel=10 note=66 velocity=90 time=0
EXTRACT: note_on channel=10 note=70 velocity=90 time=0
EXTRACT: note_on channel=10 note=73 velocity=90 time=0
EXTRACT: note_on channel=6 note=51 velocity=90 time=0
EXTRACT: note_on channel=9 note=70 velocity=0 time=0.127232075
EXTRACT: note_on channel=9 note=41 velocity=0 time=0
EXTRACT: note_on channel=9 note=47 velocity=0 time=0
EXTRACT: note_on channel=9 note=70 velocity=75 time=0.006696425000000001
EXTRACT: note_on channel=9 note=41 velocity=75 time=0
EXTRACT: note_on channel=9 note=47 velocity=75 time=0
EXTRACT: note_on channel=2 note=51 velocity=0 time=0.127232075
EXTRACT: note_on channel=9 note=70 velocity=0 time=0
EXTRACT: note_on channel=9 note=41 velocity=0 time=0
EXTRACT: note_on channel=9 note=47 velocity=0 time=0
EXTRACT: note_on channel=9 note=41 velocity=0 time=0
EXTRACT: note_on channel=9 note=47 velocity=0 time=0
EXTRACT: note_on channel=6 note=51 velocity=0 time=0
EXTRACT: note_on channel=2 note=54 velocity=110 time=0.006696425000000001
EXTRACT: note_on channel=9 note=70 velocity=75 time=0
EXTRACT: note_on channel=9 note=41 velocity=75 time=0
EXTRACT: note_on channel=9 note=47 velocity=75 time=0
EXTRACT: note_on channel=6 note=54 velocity=90 time=0
EXTRACT: note_on channel=1 note=66 velocity=0 time=0.17857133333333333
EXTRACT: note_on channel=1 note=70 velocity=0 time=0
EXTRACT: note_on channel=1 note=73 velocity=0 time=0
EXTRACT: note_on channel=5 note=66 velocity=0 time=0
EXTRACT: note_on channel=5 note=70 velocity=0 time=0
EXTRACT: note_on channel=5 note=73 velocity=0 time=0
EXTRACT: note_on channel=10 note=66 velocity=0 time=0
EXTRACT: note_on channel=10 note=70 velocity=0 time=0
EXTRACT: note_on channel=10 note=73 velocity=0 time=0
EXTRACT: note_on channel=2 note=54 velocity=0 time=0.08258924166666667
EXTRACT: note_on channel=9 note=70 velocity=0 time=0
EXTRACT: note_on channel=9 note=41 velocity=0 time=0
EXTRACT: note_on channel=9 note=47 velocity=0 time=0
EXTRACT: note_on channel=6 note=54 velocity=0 time=0
EXTRACT: note_on channel=1 note=66 velocity=110 time=0.006696425000000001
EXTRACT: note_on channel=1 note=70 velocity=110 time=0
EXTRACT: note_on channel=2 note=51 velocity=110 time=0
EXTRACT: note_on channel=9 note=70 velocity=75 time=0
EXTRACT: note_on channel=9 note=41 velocity=75 time=0
EXTRACT: note_on channel=9 note=47 velocity=75 time=0
EXTRACT: note_on channel=9 note=41 velocity=127 time=0
EXTRACT: note_on channel=9 note=47 velocity=127 time=0
EXTRACT: note_on channel=5 note=66 velocity=90 time=0
EXTRACT: note_on channel=5 note=70 velocity=90 time=0
EXTRACT: note_on channel=10 note=66 velocity=90 time=0
EXTRACT: note_on channel=10 note=70 velocity=90 time=0
EXTRACT: note_on channel=6 note=51 velocity=90 time=0
EXTRACT: note_on channel=2 note=51 velocity=0 time=0.127232075
EXTRACT: note_on channel=6 note=51 velocity=0 time=0
EXTRACT: note_on channel=2 note=51 velocity=110 time=0.006696425000000001
EXTRACT: note_on channel=6 note=51 velocity=90 time=0
EXTRACT: note_on channel=9 note=70 velocity=0 time=0.127232075
EXTRACT: note_on channel=9 note=41 velocity=0 time=0
EXTRACT: note_on channel=9 note=47 velocity=0 time=0
EXTRACT: note_on channel=9 note=41 velocity=0 time=0
EXTRACT: note_on channel=9 note=47 velocity=0 time=0
EXTRACT: note_on channel=9 note=70 velocity=75 time=0.006696425000000001
EXTRACT: note_on channel=9 note=41 velocity=75 time=0
EXTRACT: note_on channel=9 note=47 velocity=75 time=0
EXTRACT: note_on channel=1 note=66 velocity=0 time=0.127232075
EXTRACT: note_on channel=1 note=70 velocity=0 time=0
EXTRACT: note_on channel=2 note=51 velocity=0 time=0
EXTRACT: note_on channel=9 note=70 velocity=0 time=0
EXTRACT: note_on channel=9 note=41 velocity=0 time=0
EXTRACT: note_on channel=9 note=47 velocity=0 time=0
EXTRACT: note_on channel=5 note=66 velocity=0 time=0
EXTRACT: note_on channel=5 note=70 velocity=0 time=0
EXTRACT: note_on channel=10 note=66 velocity=0 time=0
EXTRACT: note_on channel=10 note=70 velocity=0 time=0
EXTRACT: note_on channel=6 note=51 velocity=0 time=0
EXTRACT: note_on channel=1 note=66 velocity=110 time=0.006696425000000001
EXTRACT: note_on channel=1 note=70 velocity=110 time=0
EXTRACT: note_on channel=2 note=51 velocity=110 time=0
EXTRACT: note_on channel=9 note=70 velocity=75 time=0
EXTRACT: note_on channel=9 note=41 velocity=75 time=0
EXTRACT: note_on channel=9 note=47 velocity=75 time=0
EXTRACT: note_on channel=5 note=66 velocity=90 time=0
EXTRACT: note_on channel=5 note=70 velocity=90 time=0
EXTRACT: note_on channel=10 note=66 velocity=90 time=0
EXTRACT: note_on channel=10 note=70 velocity=90 time=0
EXTRACT: note_on channel=6 note=51 velocity=90 time=0
EXTRACT: note_on channel=2 note=51 velocity=0 time=0.127232075
EXTRACT: note_on channel=6 note=51 velocity=0 time=0
EXTRACT: note_on channel=2 note=51 velocity=110 time=0.006696425000000001
EXTRACT: note_on channel=9 note=41 velocity=127 time=0
EXTRACT: note_on channel=9 note=47 velocity=127 time=0
EXTRACT: note_on channel=6 note=51 velocity=90 time=0
EXTRACT: note_on channel=9 note=70 velocity=0 time=0.127232075
EXTRACT: note_on channel=9 note=41 velocity=0 time=0
EXTRACT: note_on channel=9 note=47 velocity=0 time=0
EXTRACT: note_on channel=9 note=70 velocity=75 time=0.006696425000000001
EXTRACT: note_on channel=9 note=41 velocity=75 time=0
EXTRACT: note_on channel=9 note=47 velocity=75 time=0
EXTRACT: note_on channel=1 note=66 velocity=0 time=0.127232075
EXTRACT: note_on channel=1 note=70 velocity=0 time=0
EXTRACT: note_on channel=2 note=51 velocity=0 time=0
EXTRACT: note_on channel=9 note=70 velocity=0 time=0
EXTRACT: note_on channel=9 note=41 velocity=0 time=0
EXTRACT: note_on channel=9 note=47 velocity=0 time=0
EXTRACT: note_on channel=9 note=41 velocity=0 time=0
EXTRACT: note_on channel=9 note=47 velocity=0 time=0
EXTRACT: note_on channel=5 note=66 velocity=0 time=0
EXTRACT: note_on channel=5 note=70 velocity=0 time=0
EXTRACT: note_on channel=10 note=66 velocity=0 time=0
EXTRACT: note_on channel=10 note=70 velocity=0 time=0
EXTRACT: note_on channel=6 note=51 velocity=0 time=0
EXTRACT: note_on channel=1 note=66 velocity=110 time=0.006696425000000001
EXTRACT: note_on channel=1 note=70 velocity=110 time=0
EXTRACT: note_on channel=1 note=73 velocity=110 time=0
EXTRACT: note_on channel=2 note=49 velocity=110 time=0
EXTRACT: note_on channel=9 note=70 velocity=75 time=0
EXTRACT: note_on channel=9 note=41 velocity=75 time=0
EXTRACT: note_on channel=9 note=47 velocity=75 time=0
EXTRACT: note_on channel=5 note=66 velocity=90 time=0
EXTRACT: note_on channel=5 note=70 velocity=90 time=0
EXTRACT: note_on channel=5 note=73 velocity=90 time=0
EXTRACT: note_on channel=10 note=66 velocity=90 time=0
EXTRACT: note_on channel=10 note=70 velocity=90 time=0
EXTRACT: note_on channel=10 note=73 velocity=90 time=0
EXTRACT: note_on channel=6 note=49 velocity=90 time=0
EXTRACT: note_on channel=2 note=49 velocity=0 time=0.127232075
EXTRACT: note_on channel=6 note=49 velocity=0 time=0
EXTRACT: note_on channel=2 note=51 velocity=110 time=0.006696425000000001
EXTRACT: note_on channel=6 note=51 velocity=90 time=0
EXTRACT: note_on channel=9 note=70 velocity=0 time=0.127232075
EXTRACT: note_on channel=9 note=41 velocity=0 time=0
EXTRACT: note_on channel=9 note=47 velocity=0 time=0
EXTRACT: note_on channel=9 note=70 velocity=75 time=0.006696425000000001
EXTRACT: note_on channel=9 note=41 velocity=75 time=0
EXTRACT: note_on channel=9 note=47 velocity=75 time=0
EXTRACT: note_on channel=9 note=41 velocity=127 time=0
EXTRACT: note_on channel=9 note=47 velocity=127 time=0
EXTRACT: note_on channel=2 note=51 velocity=0 time=0.127232075
EXTRACT: note_on channel=6 note=51 velocity=0 time=0
EXTRACT: note_on channel=2 note=51 velocity=110 time=0.006696425000000001
EXTRACT: note_on channel=6 note=51 velocity=90 time=0
EXTRACT: note_on channel=2 note=51 velocity=0 time=0.127232075
EXTRACT: note_on channel=9 note=70 velocity=0 time=0
EXTRACT: note_on channel=9 note=41 velocity=0 time=0
EXTRACT: note_on channel=9 note=47 velocity=0 time=0
EXTRACT: note_on channel=9 note=41 velocity=0 time=0
EXTRACT: note_on channel=9 note=47 velocity=0 time=0
EXTRACT: note_on channel=6 note=51 velocity=0 time=0
EXTRACT: note_on channel=2 note=46 velocity=110 time=0.006696425000000001
EXTRACT: note_on channel=9 note=70 velocity=75 time=0
EXTRACT: note_on channel=9 note=41 velocity=75 time=0
EXTRACT: note_on channel=9 note=47 velocity=75 time=0
EXTRACT: note_on channel=6 note=46 velocity=90 time=0
EXTRACT: note_on channel=9 note=70 velocity=0 time=0.127232075
EXTRACT: note_on channel=9 note=41 velocity=0 time=0
EXTRACT: note_on channel=9 note=47 velocity=0 time=0
EXTRACT: note_on channel=9 note=70 velocity=75 time=0.006696425000000001
EXTRACT: note_on channel=9 note=41 velocity=75 time=0
EXTRACT: note_on channel=9 note=47 velocity=75 time=0
EXTRACT: note_on channel=1 note=66 velocity=0 time=0.04464283333333333
EXTRACT: note_on channel=1 note=70 velocity=0 time=0
EXTRACT: note_on channel=1 note=73 velocity=0 time=0
EXTRACT: note_on channel=5 note=66 velocity=0 time=0
EXTRACT: note_on channel=5 note=70 velocity=0 time=0
EXTRACT: note_on channel=5 note=73 velocity=0 time=0
EXTRACT: note_on channel=10 note=66 velocity=0 time=0
EXTRACT: note_on channel=10 note=70 velocity=0 time=0
EXTRACT: note_on channel=10 note=73 velocity=0 time=0
EXTRACT: note_on channel=2 note=46 velocity=0 time=0.08258924166666667
EXTRACT: note_on channel=6 note=46 velocity=0 time=0
EXTRACT: note_on channel=1 note=66 velocity=110 time=0.006696425000000001
EXTRACT: note_on channel=1 note=70 velocity=110 time=0
EXTRACT: note_on channel=1 note=73 velocity=110 time=0
EXTRACT: note_on channel=2 note=49 velocity=110 time=0
EXTRACT: note_on channel=9 note=41 velocity=127 time=0
EXTRACT: note_on channel=9 note=47 velocity=127 time=0
EXTRACT: note_on channel=5 note=66 velocity=90 time=0
EXTRACT: note_on channel=5 note=70 velocity=90 time=0
EXTRACT: note_on channel=5 note=73 velocity=90 time=0
EXTRACT: note_on channel=10 note=66 velocity=90 time=0
EXTRACT: note_on channel=10 note=70 velocity=90 time=0
EXTRACT: note_on channel=10 note=73 velocity=90 time=0
EXTRACT: note_on channel=6 note=49 velocity=90 time=0
EXTRACT: note_on channel=9 note=70 velocity=0 time=0.127232075
EXTRACT: note_on channel=9 note=41 velocity=0 time=0
EXTRACT: note_on channel=9 note=47 velocity=0 time=0
EXTRACT: note_on channel=9 note=70 velocity=75 time=0.006696425000000001
EXTRACT: note_on channel=9 note=41 velocity=75 time=0
EXTRACT: note_on channel=9 note=47 velocity=75 time=0
EXTRACT: note_on channel=2 note=49 velocity=0 time=0.127232075
EXTRACT: note_on channel=9 note=70 velocity=0 time=0
EXTRACT: note_on channel=9 note=41 velocity=0 time=0
EXTRACT: note_on channel=9 note=47 velocity=0 time=0
EXTRACT: note_on channel=9 note=41 velocity=0 time=0
EXTRACT: note_on channel=9 note=47 velocity=0 time=0
EXTRACT: note_on channel=6 note=49 velocity=0 time=0
EXTRACT: note_on channel=2 note=51 velocity=110 time=0.006696425000000001
EXTRACT: note_on channel=9 note=70 velocity=75 time=0
EXTRACT: note_on channel=9 note=41 velocity=75 time=0
EXTRACT: note_on channel=9 note=47 velocity=75 time=0
EXTRACT: note_on channel=6 note=51 velocity=90 time=0
EXTRACT: note_on channel=1 note=66 velocity=0 time=0.17857133333333333
EXTRACT: note_on channel=1 note=70 velocity=0 time=0
EXTRACT: note_on channel=1 note=73 velocity=0 time=0
EXTRACT: note_on channel=5 note=66 velocity=0 time=0
EXTRACT: note_on channel=5 note=70 velocity=0 time=0
EXTRACT: note_on channel=5 note=73 velocity=0 time=0
EXTRACT: note_on channel=10 note=66 velocity=0 time=0
EXTRACT: note_on channel=10 note=70 velocity=0 time=0
EXTRACT: note_on channel=10 note=73 velocity=0 time=0
EXTRACT: note_on channel=2 note=51 velocity=0 time=0.08258924166666667
EXTRACT: note_on channel=9 note=70 velocity=0 time=0
EXTRACT: note_on channel=9 note=41 velocity=0 time=0
EXTRACT: note_on channel=9 note=47 velocity=0 time=0
EXTRACT: note_on channel=6 note=51 velocity=0 time=0
EXTRACT: note_on channel=1 note=66 velocity=110 time=0.006696425000000001
EXTRACT: note_on channel=1 note=73 velocity=110 time=0
EXTRACT: note_on channel=2 note=42 velocity=110 time=0
EXTRACT: note_on channel=9 note=70 velocity=75 time=0
EXTRACT: note_on channel=9 note=41 velocity=75 time=0
EXTRACT: note_on channel=9 note=47 velocity=75 time=0
EXTRACT: note_on channel=9 note=41 velocity=127 time=0
EXTRACT: note_on channel=9 note=47 velocity=127 time=0
EXTRACT: note_on channel=5 note=66 velocity=90 time=0
EXTRACT: note_on channel=5 note=73 velocity=90 time=0
EXTRACT: note_on channel=10 note=66 velocity=90 time=0
EXTRACT: note_on channel=10 note=73 velocity=90 time=0
EXTRACT: note_on channel=6 note=42 velocity=90 time=0
EXTRACT: note_on channel=1 note=66 velocity=0 time=0.261160575
EXTRACT: note_on channel=1 note=73 velocity=0 time=0
EXTRACT: note_on channel=9 note=70 velocity=0 time=0
EXTRACT: note_on channel=9 note=41 velocity=0 time=0
EXTRACT: note_on channel=9 note=47 velocity=0 time=0
EXTRACT: note_on channel=9 note=41 velocity=0 time=0
EXTRACT: note_on channel=9 note=47 velocity=0 time=0
EXTRACT: note_on channel=5 note=66 velocity=0 time=0
EXTRACT: note_on channel=5 note=73 velocity=0 time=0
EXTRACT: note_on channel=10 note=66 velocity=0 time=0
EXTRACT: note_on channel=10 note=73 velocity=0 time=0
EXTRACT: note_on channel=0 note=73 velocity=110 time=0.006696425000000001
EXTRACT: note_on channel=1 note=73 velocity=110 time=0
EXTRACT: note_on channel=9 note=70 velocity=75 time=0
EXTRACT: note_on channel=9 note=41 velocity=75 time=0
EXTRACT: note_on channel=9 note=47 velocity=75 time=0
EXTRACT: note_on channel=5 note=73 velocity=90 time=0
EXTRACT: note_on channel=10 note=73 velocity=90 time=0
EXTRACT: note_on channel=2 note=42 velocity=0 time=0.127232075
EXTRACT: note_on channel=9 note=70 velocity=0 time=0
EXTRACT: note_on channel=9 note=41 velocity=0 time=0
EXTRACT: note_on channel=9 note=47 velocity=0 time=0
EXTRACT: note_on channel=6 note=42 velocity=0 time=0
EXTRACT: note_on channel=2 note=42 velocity=110 time=0.006696425000000001
EXTRACT: note_on channel=9 note=70 velocity=75 time=0
EXTRACT: note_on channel=9 note=41 velocity=75 time=0
EXTRACT: note_on channel=9 note=47 velocity=75 time=0
EXTRACT: note_on channel=6 note=42 velocity=90 time=0
EXTRACT: note_on channel=0 note=73 velocity=0 time=0.127232075
EXTRACT: note_on channel=1 note=73 velocity=0 time=0
EXTRACT: note_on channel=5 note=73 velocity=0 time=0
EXTRACT: note_on channel=10 note=73 velocity=0 time=0
EXTRACT: note_on channel=0 note=73 velocity=110 time=0.006696425000000001
EXTRACT: note_on channel=1 note=73 velocity=110 time=0
EXTRACT: note_on channel=9 note=41 velocity=127 time=0
EXTRACT: note_on channel=9 note=47 velocity=127 time=0
EXTRACT: note_on channel=5 note=73 velocity=90 time=0
EXTRACT: note_on channel=10 note=73 velocity=90 time=0
EXTRACT: note_on channel=9 note=70 velocity=0 time=0.127232075
EXTRACT: note_on channel=9 note=41 velocity=0 time=0
EXTRACT: note_on channel=9 note=47 velocity=0 time=0
EXTRACT: note_on channel=9 note=70 velocity=75 time=0.006696425000000001
EXTRACT: note_on channel=9 note=41 velocity=75 time=0
EXTRACT: note_on channel=9 note=47 velocity=75 time=0
EXTRACT: note_on channel=0 note=73 velocity=0 time=0.127232075
EXTRACT: note_on channel=1 note=73 velocity=0 time=0
EXTRACT: note_on channel=2 note=42 velocity=0 time=0
EXTRACT: note_on channel=9 note=70 velocity=0 time=0
EXTRACT: note_on channel=9 note=41 velocity=0 time=0
EXTRACT: note_on channel=9 note=47 velocity=0 time=0
EXTRACT: note_on channel=9 note=41 velocity=0 time=0
EXTRACT: note_on channel=9 note=47 velocity=0 time=0
EXTRACT: note_on channel=5 note=73 velocity=0 time=0
EXTRACT: note_on channel=10 note=73 velocity=0 time=0
EXTRACT: note_on channel=6 note=42 velocity=0 time=0
EXTRACT: note_on channel=0 note=70 velocity=110 time=0.006696425000000001
EXTRACT: note_on channel=1 note=70 velocity=110 time=0
EXTRACT: note_on channel=2 note=42 velocity=110 time=0
EXTRACT: note_on channel=9 note=70 velocity=75 time=0
EXTRACT: note_on channel=9 note=41 velocity=75 time=0
EXTRACT: note_on channel=9 note=47 velocity=75 time=0
EXTRACT: note_on channel=5 note=70 velocity=90 time=0
EXTRACT: note_on channel=10 note=70 velocity=90 time=0
EXTRACT: note_on channel=6 note=42 velocity=90 time=0
EXTRACT: note_on channel=0 note=70 velocity=0 time=0.261160575
EXTRACT: note_on channel=1 note=70 velocity=0 time=0
EXTRACT: note_on channel=9 note=70 velocity=0 time=0
EXTRACT: note_on channel=9 note=41 velocity=0 time=0
EXTRACT: note_on channel=9 note=47 velocity=0 time=0
EXTRACT: note_on channel=5 note=70 velocity=0 time=0
EXTRACT: note_on channel=10 note=70 velocity=0 time=0
EXTRACT: note_on channel=0 note=75 velocity=110 time=0.006696425000000001
EXTRACT: note_on channel=1 note=66 velocity=110 time=0
EXTRACT: note_on channel=1 note=75 velocity=110 time=0
EXTRACT: note_on channel=9 note=70 velocity=75 time=0
EXTRACT: note_on channel=9 note=41 velocity=75 time=0
EXTRACT: note_on channel=9 note=47 velocity=75 time=0
EXTRACT: note_on channel=9 note=41 velocity=127 time=0
EXTRACT: note_on channel=9 note=47 velocity=127 time=0
EXTRACT: note_on channel=5 note=66 velocity=90 time=0
EXTRACT: note_on channel=5 note=75 velocity=90 time=0
EXTRACT: note_on channel=10 note=66 velocity=90 time=0
EXTRACT: note_on channel=10 note=75 velocity=90 time=0
EXTRACT: note_on channel=9 note=70 velocity=0 time=0.261160575
EXTRACT: note_on channel=9 note=41 velocity=0 time=0
EXTRACT: note_on channel=9 note=47 velocity=0 time=0
EXTRACT: note_on channel=9 note=41 velocity=0 time=0
EXTRACT: note_on channel=9 note=47 velocity=0 time=0
EXTRACT: note_on channel=9 note=70 velocity=75 time=0.006696425000000001
EXTRACT: note_on channel=9 note=41 velocity=75 time=0
EXTRACT: note_on channel=9 note=47 velocity=75 time=0
EXTRACT: note_on channel=9 note=70 velocity=0 time=0.127232075
EXTRACT: note_on channel=9 note=41 velocity=0 time=0
EXTRACT: note_on channel=9 note=47 velocity=0 time=0
EXTRACT: note_on channel=9 note=70 velocity=75 time=0.006696425000000001
EXTRACT: note_on channel=9 note=41 velocity=75 time=0
EXTRACT: note_on channel=9 note=47 velocity=75 time=0
EXTRACT: note_on channel=0 note=75 velocity=0 time=0.04464283333333333
EXTRACT: note_on channel=1 note=66 velocity=0 time=0
EXTRACT: note_on channel=1 note=75 velocity=0 time=0
EXTRACT: note_on channel=5 note=66 velocity=0 time=0
EXTRACT: note_on channel=5 note=75 velocity=0 time=0
EXTRACT: note_on channel=10 note=66 velocity=0 time=0
EXTRACT: note_on channel=10 note=75 velocity=0 time=0
EXTRACT: note_on channel=0 note=73 velocity=110 time=0.08928566666666667
EXTRACT: note_on channel=1 note=73 velocity=110 time=0
EXTRACT: note_on channel=9 note=41 velocity=127 time=0
EXTRACT: note_on channel=9 note=47 velocity=127 time=0
EXTRACT: note_on channel=5 note=73 velocity=90 time=0
EXTRACT: note_on channel=10 note=73 velocity=90 time=0
EXTRACT: note_on channel=9 note=70 velocity=0 time=0.127232075
EXTRACT: note_on channel=9 note=41 velocity=0 time=0
EXTRACT: note_on channel=9 note=47 velocity=0 time=0
EXTRACT: note_on channel=9 note=70 velocity=75 time=0.006696425000000001
EXTRACT: note_on channel=9 note=41 velocity=75 time=0
EXTRACT: note_on channel=9 note=47 velocity=75 time=0
EXTRACT: note_on channel=0 note=73 velocity=0 time=0.127232075
EXTRACT: note_on channel=1 note=73 velocity=0 time=0
EXTRACT: note_on channel=9 note=70 velocity=0 time=0
EXTRACT: note_on channel=9 note=41 velocity=0 time=0
EXTRACT: note_on channel=9 note=47 velocity=0 time=0
EXTRACT: note_on channel=9 note=41 velocity=0 time=0
EXTRACT: note_on channel=9 note=47 velocity=0 time=0
EXTRACT: note_on channel=5 note=73 velocity=0 time=0
EXTRACT: note_on channel=10 note=73 velocity=0 time=0
EXTRACT: note_on channel=0 note=73 velocity=110 time=0.006696425000000001
EXTRACT: note_on channel=1 note=73 velocity=110 time=0
EXTRACT: note_on channel=9 note=70 velocity=75 time=0
EXTRACT: note_on channel=9 note=41 velocity=75 time=0
EXTRACT: note_on channel=9 note=47 velocity=75 time=0
EXTRACT: note_on channel=5 note=73 velocity=90 time=0
EXTRACT: note_on channel=10 note=73 velocity=90 time=0
EXTRACT: note_on channel=2 note=42 velocity=0 time=0.1339285
EXTRACT: note_on channel=6 note=42 velocity=0 time=0
EXTRACT: note_on channel=0 note=73 velocity=0 time=0.127232075
EXTRACT: note_on channel=1 note=73 velocity=0 time=0
EXTRACT: note_on channel=9 note=70 velocity=0 time=0
EXTRACT: note_on channel=9 note=41 velocity=0 time=0
EXTRACT: note_on channel=9 note=47 velocity=0 time=0
EXTRACT: note_on channel=5 note=73 velocity=0 time=0
EXTRACT: note_on channel=10 note=73 velocity=0 time=0
EXTRACT: note_on channel=0 note=70 velocity=110 time=0.006696425000000001
EXTRACT: note_on channel=1 note=70 velocity=110 time=0
EXTRACT: note_on channel=2 note=42 velocity=110 time=0
EXTRACT: note_on channel=9 note=70 velocity=75 time=0
EXTRACT: note_on channel=9 note=41 velocity=75 time=0
EXTRACT: note_on channel=9 note=47 velocity=75 time=0
EXTRACT: note_on channel=9 note=41 velocity=127 time=0
EXTRACT: note_on channel=9 note=47 velocity=127 time=0
EXTRACT: note_on channel=5 note=70 velocity=90 time=0
EXTRACT: note_on channel=10 note=70 velocity=90 time=0
EXTRACT: note_on channel=6 note=42 velocity=90 time=0
EXTRACT: note_on channel=0 note=70 velocity=0 time=0.261160575
EXTRACT: note_on channel=1 note=70 velocity=0 time=0
EXTRACT: note_on channel=9 note=70 velocity=0 time=0
EXTRACT: note_on channel=9 note=41 velocity=0 time=0
EXTRACT: note_on channel=9 note=47 velocity=0 time=0
EXTRACT: note_on channel=9 note=41 velocity=0 time=0
EXTRACT: note_on channel=9 note=47 velocity=0 time=0
EXTRACT: note_on channel=5 note=70 velocity=0 time=0
EXTRACT: note_on channel=10 note=70 velocity=0 time=0
EXTRACT: note_on channel=0 note=70 velocity=110 time=0.006696425000000001
EXTRACT: note_on channel=1 note=70 velocity=110 time=0
EXTRACT: note_on channel=9 note=70 velocity=75 time=0
EXTRACT: note_on channel=9 note=41 velocity=75 time=0
EXTRACT: note_on channel=9 note=47 velocity=75 time=0
EXTRACT: note_on channel=5 note=70 velocity=90 time=0
EXTRACT: note_on channel=10 note=70 velocity=90 time=0
EXTRACT: note_on channel=1 note=70 velocity=0 time=0.127232075
EXTRACT: note_on channel=2 note=42 velocity=0 time=0
EXTRACT: note_on channel=9 note=70 velocity=0 time=0
EXTRACT: note_on channel=9 note=41 velocity=0 time=0
EXTRACT: note_on channel=9 note=47 velocity=0 time=0
EXTRACT: note_on channel=5 note=70 velocity=0 time=0
EXTRACT: note_on channel=10 note=70 velocity=0 time=0
EXTRACT: note_on channel=6 note=42 velocity=0 time=0
EXTRACT: note_on channel=0 note=70 velocity=0 time=0.006696425000000001
EXTRACT: note_on channel=0 note=68 velocity=110 time=0
EXTRACT: note_on channel=1 note=68 velocity=110 time=0
EXTRACT: note_on channel=2 note=42 velocity=110 time=0
EXTRACT: note_on channel=9 note=70 velocity=75 time=0
EXTRACT: note_on channel=9 note=41 velocity=75 time=0
EXTRACT: note_on channel=9 note=47 velocity=75 time=0
EXTRACT: note_on channel=5 note=68 velocity=90 time=0
EXTRACT: note_on channel=10 note=68 velocity=90 time=0
EXTRACT: note_on channel=6 note=42 velocity=90 time=0
EXTRACT: note_on channel=1 note=68 velocity=0 time=0.127232075
EXTRACT: note_on channel=5 note=68 velocity=0 time=0
EXTRACT: note_on channel=10 note=68 velocity=0 time=0
EXTRACT: note_on channel=0 note=68 velocity=0 time=0.006696425000000001
EXTRACT: note_on channel=0 note=66 velocity=110 time=0
EXTRACT: note_on channel=1 note=66 velocity=110 time=0
EXTRACT: note_on channel=9 note=41 velocity=127 time=0
EXTRACT: note_on channel=9 note=47 velocity=127 time=0
EXTRACT: note_on channel=5 note=66 velocity=90 time=0
EXTRACT: note_on channel=10 note=66 velocity=90 time=0
EXTRACT: note_on channel=9 note=70 velocity=0 time=0.127232075
EXTRACT: note_on channel=9 note=41 velocity=0 time=0
EXTRACT: note_on channel=9 note=47 velocity=0 time=0
EXTRACT: note_on channel=9 note=70 velocity=75 time=0.006696425000000001
EXTRACT: note_on channel=9 note=41 velocity=75 time=0
EXTRACT: note_on channel=9 note=47 velocity=75 time=0
EXTRACT: note_on channel=2 note=42 velocity=0 time=0.127232075
EXTRACT: note_on channel=9 note=70 velocity=0 time=0
EXTRACT: note_on channel=9 note=41 velocity=0 time=0
EXTRACT: note_on channel=9 note=47 velocity=0 time=0
EXTRACT: note_on channel=9 note=41 velocity=0 time=0
EXTRACT: note_on channel=9 note=47 velocity=0 time=0
EXTRACT: note_on channel=6 note=42 velocity=0 time=0
EXTRACT: note_on channel=2 note=42 velocity=110 time=0.006696425000000001
EXTRACT: note_on channel=9 note=70 velocity=75 time=0
EXTRACT: note_on channel=9 note=41 velocity=75 time=0
EXTRACT: note_on channel=9 note=47 velocity=75 time=0
EXTRACT: note_on channel=6 note=42 velocity=90 time=0
EXTRACT: note_on channel=0 note=66 velocity=0 time=0.17857133333333333
EXTRACT: note_on channel=1 note=66 velocity=0 time=0
EXTRACT: note_on channel=5 note=66 velocity=0 time=0
EXTRACT: note_on channel=10 note=66 velocity=0 time=0
EXTRACT: note_on channel=9 note=70 velocity=0 time=0.08258924166666667
EXTRACT: note_on channel=9 note=41 velocity=0 time=0
EXTRACT: note_on channel=9 note=47 velocity=0 time=0
EXTRACT: note_on channel=1 note=66 velocity=110 time=0.006696425000000001
EXTRACT: note_on channel=1 note=73 velocity=110 time=0
EXTRACT: note_on channel=9 note=70 velocity=75 time=0
EXTRACT: note_on channel=9 note=41 velocity=75 time=0
EXTRACT: note_on channel=9 note=47 velocity=75 time=0
EXTRACT: note_on channel=9 note=41 velocity=127 time=0
EXTRACT: note_on channel=9 note=47 velocity=127 time=0
EXTRACT: note_on channel=5 note=66 velocity=90 time=0
EXTRACT: note_on channel=5 note=73 velocity=90 time=0
EXTRACT: note_on channel=10 note=66 velocity=90 time=0
EXTRACT: note_on channel=10 note=73 velocity=90 time=0
EXTRACT: note_on channel=2 note=42 velocity=0 time=0.261160575
EXTRACT: note_on channel=9 note=70 velocity=0 time=0
EXTRACT: note_on channel=9 note=41 velocity=0 time=0
EXTRACT: note_on channel=9 note=47 velocity=0 time=0
EXTRACT: note_on channel=9 note=41 velocity=0 time=0
EXTRACT: note_on channel=9 note=47 velocity=0 time=0
EXTRACT: note_on channel=6 note=42 velocity=0 time=0
EXTRACT: note_on channel=2 note=42 velocity=110 time=0.006696425000000001
EXTRACT: note_on channel=9 note=70 velocity=75 time=0
EXTRACT: note_on channel=9 note=41 velocity=75 time=0
EXTRACT: note_on channel=9 note=47 velocity=75 time=0
EXTRACT: note_on channel=6 note=42 velocity=90 time=0
EXTRACT: note_on channel=1 note=66 velocity=0 time=0.127232075
EXTRACT: note_on channel=1 note=73 velocity=0 time=0
EXTRACT: note_on channel=9 note=70 velocity=0 time=0
EXTRACT: note_on channel=9 note=41 velocity=0 time=0
EXTRACT: note_on channel=9 note=47 velocity=0 time=0
EXTRACT: note_on channel=5 note=66 velocity=0 time=0
EXTRACT: note_on channel=5 note=73 velocity=0 time=0
EXTRACT: note_on channel=10 note=66 velocity=0 time=0
EXTRACT: note_on channel=10 note=73 velocity=0 time=0
EXTRACT: note_on channel=1 note=66 velocity=110 time=0.006696425000000001
EXTRACT: note_on channel=1 note=73 velocity=110 time=0
EXTRACT: note_on channel=9 note=70 velocity=75 time=0
EXTRACT: note_on channel=9 note=41 velocity=75 time=0
EXTRACT: note_on channel=9 note=47 velocity=75 time=0
EXTRACT: note_on channel=5 note=66 velocity=90 time=0
EXTRACT: note_on channel=5 note=73 velocity=90 time=0
EXTRACT: note_on channel=10 note=66 velocity=90 time=0
EXTRACT: note_on channel=10 note=73 velocity=90 time=0
EXTRACT: note_on channel=1 note=66 velocity=0 time=0.127232075
EXTRACT: note_on channel=1 note=73 velocity=0 time=0
EXTRACT: note_on channel=2 note=42 velocity=0 time=0
EXTRACT: note_on channel=5 note=66 velocity=0 time=0
EXTRACT: note_on channel=5 note=73 velocity=0 time=0
EXTRACT: note_on channel=10 note=66 velocity=0 time=0
EXTRACT: note_on channel=10 note=73 velocity=0 time=0
EXTRACT: note_on channel=6 note=42 velocity=0 time=0
EXTRACT: note_on channel=1 note=66 velocity=110 time=0.006696425000000001
EXTRACT: note_on channel=1 note=73 velocity=110 time=0
EXTRACT: note_on channel=2 note=46 velocity=110 time=0
EXTRACT: note_on channel=9 note=41 velocity=127 time=0
EXTRACT: note_on channel=9 note=47 velocity=127 time=0
EXTRACT: note_on channel=5 note=66 velocity=90 time=0
EXTRACT: note_on channel=5 note=73 velocity=90 time=0
EXTRACT: note_on channel=10 note=66 velocity=90 time=0
EXTRACT: note_on channel=10 note=73 velocity=90 time=0
EXTRACT: note_on channel=6 note=46 velocity=90 time=0
EXTRACT: note_on channel=9 note=70 velocity=0 time=0.127232075
EXTRACT: note_on channel=9 note=41 velocity=0 time=0
EXTRACT: note_on channel=9 note=47 velocity=0 time=0
EXTRACT: note_on channel=9 note=70 velocity=75 time=0.006696425000000001
EXTRACT: note_on channel=9 note=41 velocity=75 time=0
EXTRACT: note_on channel=9 note=47 velocity=75 time=0
EXTRACT: note_on channel=1 note=66 velocity=0 time=0.127232075
EXTRACT: note_on channel=1 note=73 velocity=0 time=0
EXTRACT: note_on channel=2 note=46 velocity=0 time=0
EXTRACT: note_on channel=9 note=70 velocity=0 time=0
EXTRACT: note_on channel=9 note=41 velocity=0 time=0
EXTRACT: note_on channel=9 note=47 velocity=0 time=0
EXTRACT: note_on channel=9 note=41 velocity=0 time=0
EXTRACT: note_on channel=9 note=47 velocity=0 time=0
EXTRACT: note_on channel=5 note=66 velocity=0 time=0
EXTRACT: note_on channel=5 note=73 velocity=0 time=0
EXTRACT: note_on channel=10 note=66 velocity=0 time=0
EXTRACT: note_on channel=10 note=73 velocity=0 time=0
EXTRACT: note_on channel=6 note=46 velocity=0 time=0
EXTRACT: note_on channel=1 note=66 velocity=110 time=0.006696425000000001
EXTRACT: note_on channel=1 note=73 velocity=110 time=0
EXTRACT: note_on channel=2 note=49 velocity=110 time=0
EXTRACT: note_on channel=9 note=70 velocity=75 time=0
EXTRACT: note_on channel=9 note=41 velocity=75 time=0
EXTRACT: note_on channel=9 note=47 velocity=75 time=0
EXTRACT: note_on channel=5 note=66 velocity=90 time=0
EXTRACT: note_on channel=5 note=73 velocity=90 time=0
EXTRACT: note_on channel=10 note=66 velocity=90 time=0
EXTRACT: note_on channel=10 note=73 velocity=90 time=0
EXTRACT: note_on channel=6 note=49 velocity=90 time=0
EXTRACT: note_on channel=1 note=66 velocity=0 time=0.261160575
EXTRACT: note_on channel=1 note=73 velocity=0 time=0
EXTRACT: note_on channel=2 note=49 velocity=0 time=0
EXTRACT: note_on channel=9 note=70 velocity=0 time=0
EXTRACT: note_on channel=9 note=41 velocity=0 time=0
EXTRACT: note_on channel=9 note=47 velocity=0 time=0
EXTRACT: note_on channel=5 note=66 velocity=0 time=0
EXTRACT: note_on channel=5 note=73 velocity=0 time=0
EXTRACT: note_on channel=10 note=66 velocity=0 time=0
EXTRACT: note_on channel=10 note=73 velocity=0 time=0
EXTRACT: note_on channel=6 note=49 velocity=0 time=0
EXTRACT: note_on channel=1 note=66 velocity=110 time=0.006696425000000001
EXTRACT: note_on channel=1 note=70 velocity=110 time=0
EXTRACT: note_on channel=1 note=73 velocity=110 time=0
EXTRACT: note_on channel=2 note=39 velocity=110 time=0
EXTRACT: note_on channel=9 note=70 velocity=75 time=0
EXTRACT: note_on channel=9 note=41 velocity=75 time=0
EXTRACT: note_on channel=9 note=47 velocity=75 time=0
EXTRACT: note_on channel=9 note=41 velocity=127 time=0
EXTRACT: note_on channel=9 note=47 velocity=127 time=0
EXTRACT: note_on channel=5 note=66 velocity=90 time=0
EXTRACT: note_on channel=5 note=70 velocity=90 time=0
EXTRACT: note_on channel=5 note=73 velocity=90 time=0
EXTRACT: note_on channel=10 note=66 velocity=90 time=0
EXTRACT: note_on channel=10 note=70 velocity=90 time=0
EXTRACT: note_on channel=10 note=73 velocity=90 time=0
EXTRACT: note_on channel=6 note=39 velocity=90 time=0
EXTRACT: note_on channel=9 note=70 velocity=0 time=0.261160575
EXTRACT: note_on channel=9 note=41 velocity=0 time=0
EXTRACT: note_on channel=9 note=47 velocity=0 time=0
EXTRACT: note_on channel=9 note=41 velocity=0 time=0
EXTRACT: note_on channel=9 note=47 velocity=0 time=0
EXTRACT: note_on channel=9 note=70 velocity=75 time=0.006696425000000001
EXTRACT: note_on channel=9 note=41 velocity=75 time=0
EXTRACT: note_on channel=9 note=47 velocity=75 time=0
EXTRACT: note_on channel=2 note=39 velocity=0 time=0.127232075
EXTRACT: note_on channel=9 note=70 velocity=0 time=0
EXTRACT: note_on channel=9 note=41 velocity=0 time=0
EXTRACT: note_on channel=9 note=47 velocity=0 time=0
EXTRACT: note_on channel=6 note=39 velocity=0 time=0
EXTRACT: note_on channel=2 note=39 velocity=110 time=0.006696425000000001
EXTRACT: note_on channel=9 note=70 velocity=75 time=0
EXTRACT: note_on channel=9 note=41 velocity=75 time=0
EXTRACT: note_on channel=9 note=47 velocity=75 time=0
EXTRACT: note_on channel=6 note=39 velocity=90 time=0
EXTRACT: note_on channel=9 note=41 velocity=127 time=0.1339285
EXTRACT: note_on channel=9 note=47 velocity=127 time=0
EXTRACT: note_on channel=9 note=70 velocity=0 time=0.127232075
EXTRACT: note_on channel=9 note=41 velocity=0 time=0
EXTRACT: note_on channel=9 note=47 velocity=0 time=0
EXTRACT: note_on channel=9 note=70 velocity=75 time=0.006696425000000001
EXTRACT: note_on channel=9 note=41 velocity=75 time=0
EXTRACT: note_on channel=9 note=47 velocity=75 time=0
EXTRACT: note_on channel=2 note=39 velocity=0 time=0.127232075
EXTRACT: note_on channel=9 note=70 velocity=0 time=0
EXTRACT: note_on channel=9 note=41 velocity=0 time=0
EXTRACT: note_on channel=9 note=47 velocity=0 time=0
EXTRACT: note_on channel=9 note=41 velocity=0 time=0
EXTRACT: note_on channel=9 note=47 velocity=0 time=0
EXTRACT: note_on channel=6 note=39 velocity=0 time=0
EXTRACT: note_on channel=2 note=39 velocity=110 time=0.006696425000000001
EXTRACT: note_on channel=9 note=70 velocity=75 time=0
EXTRACT: note_on channel=9 note=41 velocity=75 time=0
EXTRACT: note_on channel=9 note=47 velocity=75 time=0
EXTRACT: note_on channel=6 note=39 velocity=90 time=0
EXTRACT: note_on channel=9 note=70 velocity=0 time=0.261160575
EXTRACT: note_on channel=9 note=41 velocity=0 time=0
EXTRACT: note_on channel=9 note=47 velocity=0 time=0
EXTRACT: note_on channel=9 note=70 velocity=75 time=0.006696425000000001
EXTRACT: note_on channel=9 note=41 velocity=75 time=0
EXTRACT: note_on channel=9 note=47 velocity=75 time=0
EXTRACT: note_on channel=9 note=41 velocity=127 time=0
EXTRACT: note_on channel=9 note=47 velocity=127 time=0
EXTRACT: note_on channel=2 note=39 velocity=0 time=0.127232075
EXTRACT: note_on channel=6 note=39 velocity=0 time=0
EXTRACT: note_on channel=2 note=39 velocity=110 time=0.006696425000000001
EXTRACT: note_on channel=6 note=39 velocity=90 time=0
EXTRACT: note_on channel=1 note=66 velocity=0 time=0.127232075
EXTRACT: note_on channel=1 note=70 velocity=0 time=0
EXTRACT: note_on channel=1 note=73 velocity=0 time=0
EXTRACT: note_on channel=2 note=39 velocity=0 time=0
EXTRACT: note_on channel=9 note=70 velocity=0 time=0
EXTRACT: note_on channel=9 note=41 velocity=0 time=0
EXTRACT: note_on channel=9 note=47 velocity=0 time=0
EXTRACT: note_on channel=9 note=41 velocity=0 time=0
EXTRACT: note_on channel=9 note=47 velocity=0 time=0
EXTRACT: note_on channel=5 note=66 velocity=0 time=0
EXTRACT: note_on channel=5 note=70 velocity=0 time=0
EXTRACT: note_on channel=5 note=73 velocity=0 time=0
EXTRACT: note_on channel=10 note=66 velocity=0 time=0
EXTRACT: note_on channel=10 note=70 velocity=0 time=0
EXTRACT: note_on channel=10 note=73 velocity=0 time=0
EXTRACT: note_on channel=6 note=39 velocity=0 time=0
EXTRACT: note_on channel=0 note=66 velocity=110 time=0.006696425000000001
EXTRACT: note_on channel=1 note=66 velocity=110 time=0
EXTRACT: note_on channel=2 note=37 velocity=110 time=0
EXTRACT: note_on channel=9 note=70 velocity=75 time=0
EXTRACT: note_on channel=9 note=41 velocity=75 time=0
EXTRACT: note_on channel=9 note=47 velocity=75 time=0
EXTRACT: note_on channel=5 note=66 velocity=90 time=0
EXTRACT: note_on channel=10 note=66 velocity=90 time=0
EXTRACT: note_on channel=6 note=37 velocity=90 time=0
EXTRACT: note_on channel=9 note=70 velocity=0 time=0.127232075
EXTRACT: note_on channel=9 note=41 velocity=0 time=0
EXTRACT: note_on channel=9 note=47 velocity=0 time=0
EXTRACT: note_on channel=9 note=70 velocity=75 time=0.006696425000000001
EXTRACT: note_on channel=9 note=41 velocity=75 time=0
EXTRACT: note_on channel=9 note=47 velocity=75 time=0
EXTRACT: note_on channel=0 note=66 velocity=0 time=0.127232075
EXTRACT: note_on channel=1 note=66 velocity=0 time=0
EXTRACT: note_on channel=2 note=37 velocity=0 time=0
EXTRACT: note_on channel=5 note=66 velocity=0 time=0
EXTRACT: note_on channel=10 note=66 velocity=0 time=0
EXTRACT: note_on channel=6 note=37 velocity=0 time=0
EXTRACT: note_on channel=0 note=78 velocity=110 time=0.006696425000000001
EXTRACT: note_on channel=1 note=78 velocity=110 time=0
EXTRACT: note_on channel=2 note=39 velocity=110 time=0
EXTRACT: note_on channel=9 note=41 velocity=127 time=0
EXTRACT: note_on channel=9 note=47 velocity=127 time=0
EXTRACT: note_on channel=5 note=78 velocity=90 time=0
EXTRACT: note_on channel=10 note=78 velocity=90 time=0
EXTRACT: note_on channel=6 note=39 velocity=90 time=0
EXTRACT: note_on channel=9 note=70 velocity=0 time=0.127232075
EXTRACT: note_on channel=9 note=41 velocity=0 time=0
EXTRACT: note_on channel=9 note=47 velocity=0 time=0
EXTRACT: note_on channel=9 note=70 velocity=75 time=0.006696425000000001
EXTRACT: note_on channel=9 note=41 velocity=75 time=0
EXTRACT: note_on channel=9 note=47 velocity=75 time=0
EXTRACT: note_on channel=0 note=78 velocity=0 time=0.127232075
EXTRACT: note_on channel=1 note=78 velocity=0 time=0
EXTRACT: note_on channel=2 note=39 velocity=0 time=0
EXTRACT: note_on channel=9 note=70 velocity=0 time=0
EXTRACT: note_on channel=9 note=41 velocity=0 time=0
EXTRACT: note_on channel=9 note=47 velocity=0 time=0
EXTRACT: note_on channel=9 note=41 velocity=0 time=0
EXTRACT: note_on channel=9 note=47 velocity=0 time=0
EXTRACT: note_on channel=5 note=78 velocity=0 time=0
EXTRACT: note_on channel=10 note=78 velocity=0 time=0
EXTRACT: note_on channel=6 note=39 velocity=0 time=0
EXTRACT: note_on channel=0 note=78 velocity=110 time=0.006696425000000001
EXTRACT: note_on channel=1 note=78 velocity=110 time=0
EXTRACT: note_on channel=2 note=42 velocity=110 time=0
EXTRACT: note_on channel=9 note=70 velocity=75 time=0
EXTRACT: note_on channel=9 note=41 velocity=75 time=0
EXTRACT: note_on channel=9 note=47 velocity=75 time=0
EXTRACT: note_on channel=5 note=78 velocity=90 time=0
EXTRACT: note_on channel=10 note=78 velocity=90 time=0
EXTRACT: note_on channel=6 note=42 velocity=90 time=0
EXTRACT: note_on channel=0 note=78 velocity=0 time=0.261160575
EXTRACT: note_on channel=1 note=78 velocity=0 time=0
EXTRACT: note_on channel=2 note=42 velocity=0 time=0
EXTRACT: note_on channel=9 note=70 velocity=0 time=0
EXTRACT: note_on channel=9 note=41 velocity=0 time=0
EXTRACT: note_on channel=9 note=47 velocity=0 time=0
EXTRACT: note_on channel=5 note=78 velocity=0 time=0
EXTRACT: note_on channel=10 note=78 velocity=0 time=0
EXTRACT: note_on channel=6 note=42 velocity=0 time=0
EXTRACT: note_on channel=0 note=75 velocity=110 time=0.006696425000000001
EXTRACT: note_on channel=1 note=66 velocity=110 time=0
EXTRACT: note_on channel=1 note=70 velocity=110 time=0
EXTRACT: note_on channel=1 note=75 velocity=110 time=0
EXTRACT: note_on channel=2 note=39 velocity=110 time=0
EXTRACT: note_on channel=9 note=70 velocity=75 time=0
EXTRACT: note_on channel=9 note=41 velocity=75 time=0
EXTRACT: note_on channel=9 note=47 velocity=75 time=0
EXTRACT: note_on channel=9 note=41 velocity=127 time=0
EXTRACT: note_on channel=9 note=47 velocity=127 time=0
EXTRACT: note_on channel=5 note=66 velocity=90 time=0
EXTRACT: note_on channel=5 note=70 velocity=90 time=0
EXTRACT: note_on channel=5 note=75 velocity=90 time=0
EXTRACT: note_on channel=10 note=66 velocity=90 time=0
EXTRACT: note_on channel=10 note=70 velocity=90 time=0
EXTRACT: note_on channel=10 note=75 velocity=90 time=0
EXTRACT: note_on channel=6 note=39 velocity=90 time=0
EXTRACT: note_on channel=9 note=70 velocity=0 time=0.261160575
EXTRACT: note_on channel=9 note=41 velocity=0 time=0
EXTRACT: note_on channel=9 note=47 velocity=0 time=0
EXTRACT: note_on channel=9 note=41 velocity=0 time=0
EXTRACT: note_on channel=9 note=47 velocity=0 time=0
EXTRACT: note_on channel=9 note=70 velocity=75 time=0.006696425000000001
EXTRACT: note_on channel=9 note=41 velocity=75 time=0
EXTRACT: note_on channel=9 note=47 velocity=75 time=0
EXTRACT: note_on channel=1 note=66 velocity=0 time=0.127232075
EXTRACT: note_on channel=1 note=70 velocity=0 time=0
EXTRACT: note_on channel=1 note=75 velocity=0 time=0
EXTRACT: note_on channel=2 note=39 velocity=0 time=0
EXTRACT: note_on channel=9 note=70 velocity=0 time=0
EXTRACT: note_on channel=9 note=41 velocity=0 time=0
EXTRACT: note_on channel=9 note=47 velocity=0 time=0
EXTRACT: note_on channel=5 note=66 velocity=0 time=0
EXTRACT: note_on channel=5 note=70 velocity=0 time=0
EXTRACT: note_on channel=5 note=75 velocity=0 time=0
EXTRACT: note_on channel=10 note=66 velocity=0 time=0
EXTRACT: note_on channel=10 note=70 velocity=0 time=0
EXTRACT: note_on channel=10 note=75 velocity=0 time=0
EXTRACT: note_on channel=6 note=39 velocity=0 time=0
EXTRACT: note_on channel=0 note=75 velocity=0 time=0.006696425000000001
EXTRACT: note_on channel=0 note=73 velocity=110 time=0
EXTRACT: note_on channel=1 note=73 velocity=110 time=0
EXTRACT: note_on channel=2 note=39 velocity=110 time=0
EXTRACT: note_on channel=9 note=70 velocity=75 time=0
EXTRACT: note_on channel=9 note=41 velocity=75 time=0
EXTRACT: note_on channel=9 note=47 velocity=75 time=0
EXTRACT: note_on channel=5 note=73 velocity=90 time=0
EXTRACT: note_on channel=10 note=73 velocity=90 time=0
EXTRACT: note_on channel=6 note=39 velocity=90 time=0
EXTRACT: note_on channel=9 note=41 velocity=127 time=0.1339285
EXTRACT: note_on channel=9 note=47 velocity=127 time=0
EXTRACT: note_on channel=9 note=70 velocity=0 time=0.127232075
EXTRACT: note_on channel=9 note=41 velocity=0 time=0
EXTRACT: note_on channel=9 note=47 velocity=0 time=0
EXTRACT: note_on channel=9 note=70 velocity=75 time=0.006696425000000001
EXTRACT: note_on channel=9 note=41 velocity=75 time=0
EXTRACT: note_on channel=9 note=47 velocity=75 time=0
EXTRACT: note_on channel=0 note=73 velocity=0 time=0.127232075
EXTRACT: note_on channel=1 note=73 velocity=0 time=0
EXTRACT: note_on channel=2 note=39 velocity=0 time=0
EXTRACT: note_on channel=9 note=70 velocity=0 time=0
EXTRACT: note_on channel=9 note=41 velocity=0 time=0
EXTRACT: note_on channel=9 note=47 velocity=0 time=0
EXTRACT: note_on channel=9 note=41 velocity=0 time=0
EXTRACT: note_on channel=9 note=47 velocity=0 time=0
EXTRACT: note_on channel=5 note=73 velocity=0 time=0
EXTRACT: note_on channel=10 note=73 velocity=0 time=0
EXTRACT: note_on channel=6 note=39 velocity=0 time=0
EXTRACT: note_on channel=0 note=73 velocity=110 time=0.006696425000000001
EXTRACT: note_on channel=1 note=73 velocity=110 time=0
EXTRACT: note_on channel=2 note=39 velocity=110 time=0
EXTRACT: note_on channel=9 note=70 velocity=75 time=0
EXTRACT: note_on channel=9 note=41 velocity=75 time=0
EXTRACT: note_on channel=9 note=47 velocity=75 time=0
EXTRACT: note_on channel=5 note=73 velocity=90 time=0
EXTRACT: note_on channel=10 note=73 velocity=90 time=0
EXTRACT: note_on channel=6 note=39 velocity=90 time=0
EXTRACT: note_on channel=9 note=70 velocity=0 time=0.261160575
EXTRACT: note_on channel=9 note=41 velocity=0 time=0
EXTRACT: note_on channel=9 note=47 velocity=0 time=0
EXTRACT: note_on channel=9 note=70 velocity=75 time=0.006696425000000001
EXTRACT: note_on channel=9 note=41 velocity=75 time=0
EXTRACT: note_on channel=9 note=47 velocity=75 time=0
EXTRACT: note_on channel=9 note=41 velocity=127 time=0
EXTRACT: note_on channel=9 note=47 velocity=127 time=0
EXTRACT: note_on channel=0 note=73 velocity=0 time=0.261160575
EXTRACT: note_on channel=1 note=73 velocity=0 time=0
EXTRACT: note_on channel=2 note=39 velocity=0 time=0
EXTRACT: note_on channel=9 note=70 velocity=0 time=0
EXTRACT: note_on channel=9 note=41 velocity=0 time=0
EXTRACT: note_on channel=9 note=47 velocity=0 time=0
EXTRACT: note_on channel=9 note=41 velocity=0 time=0
EXTRACT: note_on channel=9 note=47 velocity=0 time=0
EXTRACT: note_on channel=5 note=73 velocity=0 time=0
EXTRACT: note_on channel=10 note=73 velocity=0 time=0
EXTRACT: note_on channel=6 note=39 velocity=0 time=0
EXTRACT: note_on channel=0 note=66 velocity=110 time=0.006696425000000001
EXTRACT: note_on channel=1 note=66 velocity=110 time=0
EXTRACT: note_on channel=2 note=37 velocity=110 time=0
EXTRACT: note_on channel=9 note=70 velocity=75 time=0
EXTRACT: note_on channel=9 note=41 velocity=75 time=0
EXTRACT: note_on channel=9 note=47 velocity=75 time=0
EXTRACT: note_on channel=5 note=66 velocity=90 time=0
EXTRACT: note_on channel=10 note=66 velocity=90 time=0
EXTRACT: note_on channel=6 note=37 velocity=90 time=0
EXTRACT: note_on channel=9 note=70 velocity=0 time=0.127232075
EXTRACT: note_on channel=9 note=41 velocity=0 time=0
EXTRACT: note_on channel=9 note=47 velocity=0 time=0
EXTRACT: note_on channel=9 note=70 velocity=75 time=0.006696425000000001
EXTRACT: note_on channel=9 note=41 velocity=75 time=0
EXTRACT: note_on channel=9 note=47 velocity=75 time=0
EXTRACT: note_on channel=0 note=66 velocity=0 time=0.127232075
EXTRACT: note_on channel=1 note=66 velocity=0 time=0
EXTRACT: note_on channel=2 note=37 velocity=0 time=0
EXTRACT: note_on channel=5 note=66 velocity=0 time=0
EXTRACT: note_on channel=10 note=66 velocity=0 time=0
EXTRACT: note_on channel=6 note=37 velocity=0 time=0
EXTRACT: note_on channel=0 note=78 velocity=110 time=0.006696425000000001
EXTRACT: note_on channel=1 note=78 velocity=110 time=0
EXTRACT: note_on channel=2 note=37 velocity=110 time=0
EXTRACT: note_on channel=9 note=41 velocity=127 time=0
EXTRACT: note_on channel=9 note=47 velocity=127 time=0
EXTRACT: note_on channel=5 note=78 velocity=90 time=0
EXTRACT: note_on channel=10 note=78 velocity=90 time=0
EXTRACT: note_on channel=6 note=37 velocity=90 time=0
EXTRACT: note_on channel=9 note=70 velocity=0 time=0.127232075
EXTRACT: note_on channel=9 note=41 velocity=0 time=0
EXTRACT: note_on channel=9 note=47 velocity=0 time=0
EXTRACT: note_on channel=9 note=70 velocity=75 time=0.006696425000000001
EXTRACT: note_on channel=9 note=41 velocity=75 time=0
EXTRACT: note_on channel=9 note=47 velocity=75 time=0
EXTRACT: note_on channel=0 note=78 velocity=0 time=0.127232075
EXTRACT: note_on channel=1 note=78 velocity=0 time=0
EXTRACT: note_on channel=9 note=70 velocity=0 time=0
EXTRACT: note_on channel=9 note=41 velocity=0 time=0
EXTRACT: note_on channel=9 note=47 velocity=0 time=0
EXTRACT: note_on channel=9 note=41 velocity=0 time=0
EXTRACT: note_on channel=9 note=47 velocity=0 time=0
EXTRACT: note_on channel=5 note=78 velocity=0 time=0
EXTRACT: note_on channel=10 note=78 velocity=0 time=0
EXTRACT: note_on channel=0 note=78 velocity=110 time=0.006696425000000001
EXTRACT: note_on channel=1 note=78 velocity=110 time=0
EXTRACT: note_on channel=9 note=70 velocity=75 time=0
EXTRACT: note_on channel=9 note=41 velocity=75 time=0
EXTRACT: note_on channel=9 note=47 velocity=75 time=0
EXTRACT: note_on channel=5 note=78 velocity=90 time=0
EXTRACT: note_on channel=10 note=78 velocity=90 time=0
EXTRACT: note_on channel=0 note=78 velocity=0 time=0.127232075
EXTRACT: note_on channel=1 note=78 velocity=0 time=0
EXTRACT: note_on channel=5 note=78 velocity=0 time=0
EXTRACT: note_on channel=10 note=78 velocity=0 time=0
EXTRACT: note_on channel=0 note=78 velocity=110 time=0.006696425000000001
EXTRACT: note_on channel=1 note=78 velocity=110 time=0
EXTRACT: note_on channel=5 note=78 velocity=90 time=0
EXTRACT: note_on channel=10 note=78 velocity=90 time=0
EXTRACT: note_on channel=2 note=37 velocity=0 time=0.04464283333333333
EXTRACT: note_on channel=6 note=37 velocity=0 time=0
EXTRACT: note_on channel=0 note=78 velocity=0 time=0.08258924166666667
EXTRACT: note_on channel=1 note=78 velocity=0 time=0
EXTRACT: note_on channel=9 note=70 velocity=0 time=0
EXTRACT: note_on channel=9 note=41 velocity=0 time=0
EXTRACT: note_on channel=9 note=47 velocity=0 time=0
EXTRACT: note_on channel=5 note=78 velocity=0 time=0
EXTRACT: note_on channel=10 note=78 velocity=0 time=0
EXTRACT: note_on channel=0 note=75 velocity=110 time=0.006696425000000001
EXTRACT: note_on channel=1 note=66 velocity=110 time=0
EXTRACT: note_on channel=1 note=75 velocity=110 time=0
EXTRACT: note_on channel=2 note=42 velocity=110 time=0
EXTRACT: note_on channel=9 note=70 velocity=75 time=0
EXTRACT: note_on channel=9 note=41 velocity=75 time=0
EXTRACT: note_on channel=9 note=47 velocity=75 time=0
EXTRACT: note_on channel=9 note=41 velocity=127 time=0
EXTRACT: note_on channel=9 note=47 velocity=127 time=0
EXTRACT: note_on channel=5 note=66 velocity=90 time=0
EXTRACT: note_on channel=5 note=75 velocity=90 time=0
EXTRACT: note_on channel=10 note=66 velocity=90 time=0
EXTRACT: note_on channel=10 note=75 velocity=90 time=0
EXTRACT: note_on channel=6 note=42 velocity=90 time=0
EXTRACT: note_on channel=9 note=70 velocity=0 time=0.261160575
EXTRACT: note_on channel=9 note=41 velocity=0 time=0
EXTRACT: note_on channel=9 note=47 velocity=0 time=0
EXTRACT: note_on channel=9 note=41 velocity=0 time=0
EXTRACT: note_on channel=9 note=47 velocity=0 time=0
EXTRACT: note_on channel=9 note=70 velocity=75 time=0.006696425000000001
EXTRACT: note_on channel=9 note=41 velocity=75 time=0
EXTRACT: note_on channel=9 note=47 velocity=75 time=0
EXTRACT: note_on channel=1 note=66 velocity=0 time=0.127232075
EXTRACT: note_on channel=1 note=75 velocity=0 time=0
EXTRACT: note_on channel=2 note=42 velocity=0 time=0
EXTRACT: note_on channel=9 note=70 velocity=0 time=0
EXTRACT: note_on channel=9 note=41 velocity=0 time=0
EXTRACT: note_on channel=9 note=47 velocity=0 time=0
EXTRACT: note_on channel=5 note=66 velocity=0 time=0
EXTRACT: note_on channel=5 note=75 velocity=0 time=0
EXTRACT: note_on channel=10 note=66 velocity=0 time=0
EXTRACT: note_on channel=10 note=75 velocity=0 time=0
EXTRACT: note_on channel=6 note=42 velocity=0 time=0
EXTRACT: note_on channel=0 note=75 velocity=0 time=0.006696425000000001
EXTRACT: note_on channel=0 note=73 velocity=110 time=0
EXTRACT: note_on channel=1 note=73 velocity=110 time=0
EXTRACT: note_on channel=2 note=42 velocity=110 time=0
EXTRACT: note_on channel=9 note=70 velocity=75 time=0
EXTRACT: note_on channel=9 note=41 velocity=75 time=0
EXTRACT: note_on channel=9 note=47 velocity=75 time=0
EXTRACT: note_on channel=5 note=73 velocity=90 time=0
EXTRACT: note_on channel=10 note=73 velocity=90 time=0
EXTRACT: note_on channel=6 note=42 velocity=90 time=0
EXTRACT: note_on channel=9 note=41 velocity=127 time=0.1339285
EXTRACT: note_on channel=9 note=47 velocity=127 time=0
EXTRACT: note_on channel=9 note=70 velocity=0 time=0.127232075
EXTRACT: note_on channel=9 note=41 velocity=0 time=0
EXTRACT: note_on channel=9 note=47 velocity=0 time=0
EXTRACT: note_on channel=9 note=70 velocity=75 time=0.006696425000000001
EXTRACT: note_on channel=9 note=41 velocity=75 time=0
EXTRACT: note_on channel=9 note=47 velocity=75 time=0
EXTRACT: note_on channel=0 note=73 velocity=0 time=0.127232075
EXTRACT: note_on channel=1 note=73 velocity=0 time=0
EXTRACT: note_on channel=2 note=42 velocity=0 time=0
EXTRACT: note_on channel=9 note=70 velocity=0 time=0
EXTRACT: note_on channel=9 note=41 velocity=0 time=0
EXTRACT: note_on channel=9 note=47 velocity=0 time=0
EXTRACT: note_on channel=9 note=41 velocity=0 time=0
EXTRACT: note_on channel=9 note=47 velocity=0 time=0
EXTRACT: note_on channel=5 note=73 velocity=0 time=0
EXTRACT: note_on channel=10 note=73 velocity=0 time=0
EXTRACT: note_on channel=6 note=42 velocity=0 time=0
EXTRACT: note_on channel=0 note=70 velocity=110 time=0.006696425000000001
EXTRACT: note_on channel=1 note=70 velocity=110 time=0
EXTRACT: note_on channel=2 note=42 velocity=110 time=0
EXTRACT: note_on channel=9 note=70 velocity=75 time=0
EXTRACT: note_on channel=9 note=41 velocity=75 time=0
EXTRACT: note_on channel=9 note=47 velocity=75 time=0
EXTRACT: note_on channel=5 note=70 velocity=90 time=0
EXTRACT: note_on channel=10 note=70 velocity=90 time=0
EXTRACT: note_on channel=6 note=42 velocity=90 time=0
EXTRACT: note_on channel=0 note=70 velocity=0 time=0.261160575
EXTRACT: note_on channel=1 note=70 velocity=0 time=0
EXTRACT: note_on channel=9 note=70 velocity=0 time=0
EXTRACT: note_on channel=9 note=41 velocity=0 time=0
EXTRACT: note_on channel=9 note=47 velocity=0 time=0
EXTRACT: note_on channel=5 note=70 velocity=0 time=0
EXTRACT: note_on channel=10 note=70 velocity=0 time=0
EXTRACT: note_on channel=0 note=75 velocity=110 time=0.006696425000000001
EXTRACT: note_on channel=1 note=66 velocity=110 time=0
EXTRACT: note_on channel=1 note=75 velocity=110 time=0
EXTRACT: note_on channel=9 note=70 velocity=75 time=0
EXTRACT: note_on channel=9 note=41 velocity=75 time=0
EXTRACT: note_on channel=9 note=47 velocity=75 time=0
EXTRACT: note_on channel=9 note=41 velocity=127 time=0
EXTRACT: note_on channel=9 note=47 velocity=127 time=0
EXTRACT: note_on channel=5 note=66 velocity=90 time=0
EXTRACT: note_on channel=5 note=75 velocity=90 time=0
EXTRACT: note_on channel=10 note=66 velocity=90 time=0
EXTRACT: note_on channel=10 note=75 velocity=90 time=0
EXTRACT: note_on channel=9 note=70 velocity=0 time=0.261160575
EXTRACT: note_on channel=9 note=41 velocity=0 time=0
EXTRACT: note_on channel=9 note=47 velocity=0 time=0
EXTRACT: note_on channel=9 note=41 velocity=0 time=0
EXTRACT: note_on channel=9 note=47 velocity=0 time=0
EXTRACT: note_on channel=9 note=70 velocity=75 time=0.006696425000000001
EXTRACT: note_on channel=9 note=41 velocity=75 time=0
EXTRACT: note_on channel=9 note=47 velocity=75 time=0
EXTRACT: note_on channel=0 note=75 velocity=0 time=0.127232075
EXTRACT: note_on channel=1 note=66 velocity=0 time=0
EXTRACT: note_on channel=1 note=75 velocity=0 time=0
EXTRACT: note_on channel=9 note=70 velocity=0 time=0
EXTRACT: note_on channel=9 note=41 velocity=0 time=0
EXTRACT: note_on channel=9 note=47 velocity=0 time=0
EXTRACT: note_on channel=5 note=66 velocity=0 time=0
EXTRACT: note_on channel=5 note=75 velocity=0 time=0
EXTRACT: note_on channel=10 note=66 velocity=0 time=0
EXTRACT: note_on channel=10 note=75 velocity=0 time=0
EXTRACT: note_on channel=0 note=73 velocity=110 time=0.006696425000000001
EXTRACT: note_on channel=1 note=73 velocity=110 time=0
EXTRACT: note_on channel=9 note=70 velocity=75 time=0
EXTRACT: note_on channel=9 note=41 velocity=75 time=0
EXTRACT: note_on channel=9 note=47 velocity=75 time=0
EXTRACT: note_on channel=5 note=73 velocity=90 time=0
EXTRACT: note_on channel=10 note=73 velocity=90 time=0
EXTRACT: note_on channel=9 note=41 velocity=127 time=0.1339285
EXTRACT: note_on channel=9 note=47 velocity=127 time=0
EXTRACT: note_on channel=9 note=70 velocity=0 time=0.127232075
EXTRACT: note_on channel=9 note=41 velocity=0 time=0
EXTRACT: note_on channel=9 note=47 velocity=0 time=0
EXTRACT: note_on channel=9 note=70 velocity=75 time=0.006696425000000001
EXTRACT: note_on channel=9 note=41 velocity=75 time=0
EXTRACT: note_on channel=9 note=47 velocity=75 time=0
EXTRACT: note_on channel=9 note=70 velocity=0 time=0.127232075
EXTRACT: note_on channel=9 note=41 velocity=0 time=0
EXTRACT: note_on channel=9 note=47 velocity=0 time=0
EXTRACT: note_on channel=9 note=41 velocity=0 time=0
EXTRACT: note_on channel=9 note=47 velocity=0 time=0
EXTRACT: note_on channel=9 note=70 velocity=75 time=0.006696425000000001
EXTRACT: note_on channel=9 note=41 velocity=75 time=0
EXTRACT: note_on channel=9 note=47 velocity=75 time=0
EXTRACT: note_on channel=2 note=42 velocity=0 time=0.1339285
EXTRACT: note_on channel=6 note=42 velocity=0 time=0
EXTRACT: note_on channel=0 note=73 velocity=0 time=0.04464283333333333
EXTRACT: note_on channel=1 note=73 velocity=0 time=0
EXTRACT: note_on channel=5 note=73 velocity=0 time=0
EXTRACT: note_on channel=10 note=73 velocity=0 time=0
EXTRACT: note_on channel=9 note=70 velocity=0 time=0.08258924166666667
EXTRACT: note_on channel=9 note=41 velocity=0 time=0
EXTRACT: note_on channel=9 note=47 velocity=0 time=0
EXTRACT: note_on channel=1 note=66 velocity=110 time=0.006696425000000001
EXTRACT: note_on channel=1 note=73 velocity=110 time=0
EXTRACT: note_on channel=2 note=42 velocity=110 time=0
EXTRACT: note_on channel=9 note=70 velocity=75 time=0
EXTRACT: note_on channel=9 note=41 velocity=75 time=0
EXTRACT: note_on channel=9 note=47 velocity=75 time=0
EXTRACT: note_on channel=9 note=41 velocity=127 time=0
EXTRACT: note_on channel=9 note=47 velocity=127 time=0
EXTRACT: note_on channel=5 note=66 velocity=90 time=0
EXTRACT: note_on channel=5 note=73 velocity=90 time=0
EXTRACT: note_on channel=10 note=66 velocity=90 time=0
EXTRACT: note_on channel=10 note=73 velocity=90 time=0
EXTRACT: note_on channel=6 note=42 velocity=90 time=0
EXTRACT: note_on channel=9 note=70 velocity=0 time=0.261160575
EXTRACT: note_on channel=9 note=41 velocity=0 time=0
EXTRACT: note_on channel=9 note=47 velocity=0 time=0
EXTRACT: note_on channel=9 note=41 velocity=0 time=0
EXTRACT: note_on channel=9 note=47 velocity=0 time=0
EXTRACT: note_on channel=9 note=70 velocity=75 time=0.006696425000000001
EXTRACT: note_on channel=9 note=41 velocity=75 time=0
EXTRACT: note_on channel=9 note=47 velocity=75 time=0
EXTRACT: note_on channel=1 note=66 velocity=0 time=0.127232075
EXTRACT: note_on channel=1 note=73 velocity=0 time=0
EXTRACT: note_on channel=2 note=42 velocity=0 time=0
EXTRACT: note_on channel=9 note=70 velocity=0 time=0
EXTRACT: note_on channel=9 note=41 velocity=0 time=0
EXTRACT: note_on channel=9 note=47 velocity=0 time=0
EXTRACT: note_on channel=5 note=66 velocity=0 time=0
EXTRACT: note_on channel=5 note=73 velocity=0 time=0
EXTRACT: note_on channel=10 note=66 velocity=0 time=0
EXTRACT: note_on channel=10 note=73 velocity=0 time=0
EXTRACT: note_on channel=6 note=42 velocity=0 time=0
EXTRACT: note_on channel=1 note=66 velocity=110 time=0.006696425000000001
EXTRACT: note_on channel=1 note=73 velocity=110 time=0
EXTRACT: note_on channel=2 note=42 velocity=110 time=0
EXTRACT: note_on channel=9 note=70 velocity=75 time=0
EXTRACT: note_on channel=9 note=41 velocity=75 time=0
EXTRACT: note_on channel=9 note=47 velocity=75 time=0
EXTRACT: note_on channel=5 note=66 velocity=90 time=0
EXTRACT: note_on channel=5 note=73 velocity=90 time=0
EXTRACT: note_on channel=10 note=66 velocity=90 time=0
EXTRACT: note_on channel=10 note=73 velocity=90 time=0
EXTRACT: note_on channel=6 note=42 velocity=90 time=0
EXTRACT: note_on channel=9 note=41 velocity=127 time=0.1339285
EXTRACT: note_on channel=9 note=47 velocity=127 time=0
EXTRACT: note_on channel=9 note=70 velocity=0 time=0.127232075
EXTRACT: note_on channel=9 note=41 velocity=0 time=0
EXTRACT: note_on channel=9 note=47 velocity=0 time=0
EXTRACT: note_on channel=9 note=70 velocity=75 time=0.006696425000000001
EXTRACT: note_on channel=9 note=41 velocity=75 time=0
EXTRACT: note_on channel=9 note=47 velocity=75 time=0
EXTRACT: note_on channel=1 note=66 velocity=0 time=0.127232075
EXTRACT: note_on channel=1 note=73 velocity=0 time=0
EXTRACT: note_on channel=2 note=42 velocity=0 time=0
EXTRACT: note_on channel=9 note=70 velocity=0 time=0
EXTRACT: note_on channel=9 note=41 velocity=0 time=0
EXTRACT: note_on channel=9 note=47 velocity=0 time=0
EXTRACT: note_on channel=9 note=41 velocity=0 time=0
EXTRACT: note_on channel=9 note=47 velocity=0 time=0
EXTRACT: note_on channel=5 note=66 velocity=0 time=0
EXTRACT: note_on channel=5 note=73 velocity=0 time=0
EXTRACT: note_on channel=10 note=66 velocity=0 time=0
EXTRACT: note_on channel=10 note=73 velocity=0 time=0
EXTRACT: note_on channel=6 note=42 velocity=0 time=0
EXTRACT: note_on channel=1 note=66 velocity=110 time=0.006696425000000001
EXTRACT: note_on channel=1 note=73 velocity=110 time=0
EXTRACT: note_on channel=2 note=42 velocity=110 time=0
EXTRACT: note_on channel=9 note=70 velocity=75 time=0
EXTRACT: note_on channel=9 note=41 velocity=75 time=0
EXTRACT: note_on channel=9 note=47 velocity=75 time=0
EXTRACT: note_on channel=5 note=66 velocity=90 time=0
EXTRACT: note_on channel=5 note=73 velocity=90 time=0
EXTRACT: note_on channel=10 note=66 velocity=90 time=0
EXTRACT: note_on channel=10 note=73 velocity=90 time=0
EXTRACT: note_on channel=6 note=42 velocity=90 time=0
EXTRACT: note_on channel=9 note=70 velocity=0 time=0.261160575
EXTRACT: note_on channel=9 note=41 velocity=0 time=0
EXTRACT: note_on channel=9 note=47 velocity=0 time=0
EXTRACT: note_on channel=9 note=70 velocity=75 time=0.006696425000000001
EXTRACT: note_on channel=9 note=41 velocity=75 time=0
EXTRACT: note_on channel=9 note=47 velocity=75 time=0
EXTRACT: note_on channel=9 note=41 velocity=127 time=0
EXTRACT: note_on channel=9 note=47 velocity=127 time=0
EXTRACT: note_on channel=2 note=42 velocity=0 time=0.261160575
EXTRACT: note_on channel=9 note=70 velocity=0 time=0
EXTRACT: note_on channel=9 note=41 velocity=0 time=0
EXTRACT: note_on channel=9 note=47 velocity=0 time=0
EXTRACT: note_on channel=9 note=41 velocity=0 time=0
EXTRACT: note_on channel=9 note=47 velocity=0 time=0
EXTRACT: note_on channel=6 note=42 velocity=0 time=0
EXTRACT: note_on channel=2 note=42 velocity=110 time=0.006696425000000001
EXTRACT: note_on channel=9 note=70 velocity=75 time=0
EXTRACT: note_on channel=9 note=41 velocity=75 time=0
EXTRACT: note_on channel=9 note=47 velocity=75 time=0
EXTRACT: note_on channel=6 note=42 velocity=90 time=0
EXTRACT: note_on channel=9 note=70 velocity=0 time=0.127232075
EXTRACT: note_on channel=9 note=41 velocity=0 time=0
EXTRACT: note_on channel=9 note=47 velocity=0 time=0
EXTRACT: note_on channel=0 note=78 velocity=110 time=0.006696425000000001
EXTRACT: note_on channel=9 note=70 velocity=75 time=0
EXTRACT: note_on channel=9 note=41 velocity=75 time=0
EXTRACT: note_on channel=9 note=47 velocity=75 time=0
EXTRACT: note_on channel=1 note=66 velocity=0 time=0.04464283333333333
EXTRACT: note_on channel=1 note=73 velocity=0 time=0
EXTRACT: note_on channel=5 note=66 velocity=0 time=0
EXTRACT: note_on channel=5 note=73 velocity=0 time=0
EXTRACT: note_on channel=10 note=66 velocity=0 time=0
EXTRACT: note_on channel=10 note=73 velocity=0 time=0
EXTRACT: note_on channel=0 note=78 velocity=0 time=0.08258924166666667
EXTRACT: note_on channel=2 note=42 velocity=0 time=0
EXTRACT: note_on channel=6 note=42 velocity=0 time=0
EXTRACT: note_on channel=0 note=78 velocity=110 time=0.006696425000000001
EXTRACT: note_on channel=1 note=66 velocity=110 time=0
EXTRACT: note_on channel=2 note=46 velocity=110 time=0
EXTRACT: note_on channel=9 note=41 velocity=127 time=0
EXTRACT: note_on channel=9 note=47 velocity=127 time=0
EXTRACT: note_on channel=5 note=66 velocity=90 time=0
EXTRACT: note_on channel=10 note=66 velocity=90 time=0
EXTRACT: note_on channel=6 note=46 velocity=90 time=0
EXTRACT: note_on channel=0 note=78 velocity=0 time=0.127232075
EXTRACT: note_on channel=1 note=66 velocity=0 time=0
EXTRACT: note_on channel=9 note=70 velocity=0 time=0
EXTRACT: note_on channel=9 note=41 velocity=0 time=0
EXTRACT: note_on channel=9 note=47 velocity=0 time=0
EXTRACT: note_on channel=5 note=66 velocity=0 time=0
EXTRACT: note_on channel=10 note=66 velocity=0 time=0
EXTRACT: note_on channel=0 note=78 velocity=110 time=0.006696425000000001
EXTRACT: note_on channel=1 note=66 velocity=110 time=0
EXTRACT: note_on channel=9 note=70 velocity=75 time=0
EXTRACT: note_on channel=9 note=41 velocity=75 time=0
EXTRACT: note_on channel=9 note=47 velocity=75 time=0
EXTRACT: note_on channel=5 note=66 velocity=90 time=0
EXTRACT: note_on channel=10 note=66 velocity=90 time=0
EXTRACT: note_on channel=2 note=46 velocity=0 time=0.127232075
EXTRACT: note_on channel=9 note=70 velocity=0 time=0
EXTRACT: note_on channel=9 note=41 velocity=0 time=0
EXTRACT: note_on channel=9 note=47 velocity=0 time=0
EXTRACT: note_on channel=9 note=41 velocity=0 time=0
EXTRACT: note_on channel=9 note=47 velocity=0 time=0
EXTRACT: note_on channel=6 note=46 velocity=0 time=0
EXTRACT: note_on channel=2 note=49 velocity=110 time=0.006696425000000001
EXTRACT: note_on channel=9 note=70 velocity=75 time=0
EXTRACT: note_on channel=9 note=41 velocity=75 time=0
EXTRACT: note_on channel=9 note=47 velocity=75 time=0
EXTRACT: note_on channel=6 note=49 velocity=90 time=0
EXTRACT: note_on channel=0 note=78 velocity=0 time=0.261160575
EXTRACT: note_on channel=1 note=66 velocity=0 time=0
EXTRACT: note_on channel=2 note=49 velocity=0 time=0
EXTRACT: note_on channel=9 note=70 velocity=0 time=0
EXTRACT: note_on channel=9 note=41 velocity=0 time=0
EXTRACT: note_on channel=9 note=47 velocity=0 time=0
EXTRACT: note_on channel=5 note=66 velocity=0 time=0
EXTRACT: note_on channel=10 note=66 velocity=0 time=0
EXTRACT: note_on channel=6 note=49 velocity=0 time=0
EXTRACT: note_on channel=0 note=80 velocity=110 time=0.006696425000000001
EXTRACT: note_on channel=1 note=61 velocity=110 time=0
EXTRACT: note_on channel=1 note=66 velocity=110 time=0
EXTRACT: note_on channel=1 note=68 velocity=110 time=0
EXTRACT: note_on channel=2 note=39 velocity=110 time=0
EXTRACT: note_on channel=9 note=70 velocity=75 time=0
EXTRACT: note_on channel=9 note=41 velocity=75 time=0
EXTRACT: note_on channel=9 note=47 velocity=75 time=0
EXTRACT: note_on channel=9 note=41 velocity=127 time=0
EXTRACT: note_on channel=9 note=47 velocity=127 time=0
EXTRACT: note_on channel=5 note=61 velocity=90 time=0
EXTRACT: note_on channel=5 note=66 velocity=90 time=0
EXTRACT: note_on channel=5 note=68 velocity=90 time=0
EXTRACT: note_on channel=10 note=61 velocity=90 time=0
EXTRACT: note_on channel=10 note=66 velocity=90 time=0
EXTRACT: note_on channel=10 note=68 velocity=90 time=0
EXTRACT: note_on channel=6 note=39 velocity=90 time=0
EXTRACT: note_on channel=0 note=80 velocity=0 time=0.261160575
EXTRACT: note_on channel=1 note=68 velocity=0 time=0
EXTRACT: note_on channel=9 note=70 velocity=0 time=0
EXTRACT: note_on channel=9 note=41 velocity=0 time=0
EXTRACT: note_on channel=9 note=47 velocity=0 time=0
EXTRACT: note_on channel=9 note=41 velocity=0 time=0
EXTRACT: note_on channel=9 note=47 velocity=0 time=0
EXTRACT: note_on channel=5 note=68 velocity=0 time=0
EXTRACT: note_on channel=10 note=68 velocity=0 time=0
EXTRACT: note_on channel=0 note=82 velocity=110 time=0.006696425000000001
EXTRACT: note_on channel=1 note=70 velocity=110 time=0
EXTRACT: note_on channel=9 note=70 velocity=75 time=0
EXTRACT: note_on channel=9 note=41 velocity=75 time=0
EXTRACT: note_on channel=9 note=47 velocity=75 time=0
EXTRACT: note_on channel=5 note=70 velocity=90 time=0
EXTRACT: note_on channel=10 note=70 velocity=90 time=0
EXTRACT: note_on channel=2 note=39 velocity=0 time=0.127232075
EXTRACT: note_on channel=9 note=70 velocity=0 time=0
EXTRACT: note_on channel=9 note=41 velocity=0 time=0
EXTRACT: note_on channel=9 note=47 velocity=0 time=0
EXTRACT: note_on channel=6 note=39 velocity=0 time=0
EXTRACT: note_on channel=2 note=39 velocity=110 time=0.006696425000000001
EXTRACT: note_on channel=9 note=70 velocity=75 time=0
EXTRACT: note_on channel=9 note=41 velocity=75 time=0
EXTRACT: note_on channel=9 note=47 velocity=75 time=0
EXTRACT: note_on channel=6 note=39 velocity=90 time=0
EXTRACT: note_on channel=0 note=82 velocity=0 time=0.127232075
EXTRACT: note_on channel=9 note=41 velocity=127 time=0.006696425000000001
EXTRACT: note_on channel=9 note=47 velocity=127 time=0
EXTRACT: note_on channel=9 note=70 velocity=0 time=0.127232075
EXTRACT: note_on channel=9 note=41 velocity=0 time=0
EXTRACT: note_on channel=9 note=47 velocity=0 time=0
EXTRACT: note_on channel=9 note=70 velocity=75 time=0.006696425000000001
EXTRACT: note_on channel=9 note=41 velocity=75 time=0
EXTRACT: note_on channel=9 note=47 velocity=75 time=0
EXTRACT: note_on channel=2 note=39 velocity=0 time=0.127232075
EXTRACT: note_on channel=9 note=70 velocity=0 time=0
EXTRACT: note_on channel=9 note=41 velocity=0 time=0
EXTRACT: note_on channel=9 note=47 velocity=0 time=0
EXTRACT: note_on channel=9 note=41 velocity=0 time=0
EXTRACT: note_on channel=9 note=47 velocity=0 time=0
EXTRACT: note_on channel=6 note=39 velocity=0 time=0
EXTRACT: note_on channel=2 note=39 velocity=110 time=0.006696425000000001
EXTRACT: note_on channel=9 note=70 velocity=75 time=0
EXTRACT: note_on channel=9 note=41 velocity=75 time=0
EXTRACT: note_on channel=9 note=47 velocity=75 time=0
EXTRACT: note_on channel=6 note=39 velocity=90 time=0
EXTRACT: note_on channel=9 note=70 velocity=0 time=0.261160575
EXTRACT: note_on channel=9 note=41 velocity=0 time=0
EXTRACT: note_on channel=9 note=47 velocity=0 time=0
EXTRACT: note_on channel=9 note=70 velocity=75 time=0.006696425000000001
EXTRACT: note_on channel=9 note=41 velocity=75 time=0
EXTRACT: note_on channel=9 note=47 velocity=75 time=0
EXTRACT: note_on channel=9 note=41 velocity=127 time=0
EXTRACT: note_on channel=9 note=47 velocity=127 time=0
EXTRACT: note_on channel=2 note=39 velocity=0 time=0.127232075
EXTRACT: note_on channel=6 note=39 velocity=0 time=0
EXTRACT: note_on channel=2 note=39 velocity=110 time=0.006696425000000001
EXTRACT: note_on channel=6 note=39 velocity=90 time=0
EXTRACT: note_on channel=2 note=39 velocity=0 time=0.127232075
EXTRACT: note_on channel=9 note=70 velocity=0 time=0
EXTRACT: note_on channel=9 note=41 velocity=0 time=0
EXTRACT: note_on channel=9 note=47 velocity=0 time=0
EXTRACT: note_on channel=9 note=41 velocity=0 time=0
EXTRACT: note_on channel=9 note=47 velocity=0 time=0
EXTRACT: note_on channel=6 note=39 velocity=0 time=0
EXTRACT: note_on channel=2 note=37 velocity=110 time=0.006696425000000001
EXTRACT: note_on channel=9 note=70 velocity=75 time=0
EXTRACT: note_on channel=9 note=41 velocity=75 time=0
EXTRACT: note_on channel=9 note=47 velocity=75 time=0
EXTRACT: note_on channel=6 note=37 velocity=90 time=0
EXTRACT: note_on channel=1 note=61 velocity=0 time=0.127232075
EXTRACT: note_on channel=1 note=66 velocity=0 time=0
EXTRACT: note_on channel=1 note=70 velocity=0 time=0
EXTRACT: note_on channel=9 note=70 velocity=0 time=0
EXTRACT: note_on channel=9 note=41 velocity=0 time=0
EXTRACT: note_on channel=9 note=47 velocity=0 time=0
EXTRACT: note_on channel=5 note=61 velocity=0 time=0
EXTRACT: note_on channel=5 note=66 velocity=0 time=0
EXTRACT: note_on channel=5 note=70 velocity=0 time=0
EXTRACT: note_on channel=10 note=61 velocity=0 time=0
EXTRACT: note_on channel=10 note=66 velocity=0 time=0
EXTRACT: note_on channel=10 note=70 velocity=0 time=0
EXTRACT: note_on channel=0 note=78 velocity=110 time=0.006696425000000001
EXTRACT: note_on channel=1 note=66 velocity=110 time=0
EXTRACT: note_on channel=9 note=70 velocity=75 time=0
EXTRACT: note_on channel=9 note=41 velocity=75 time=0
EXTRACT: note_on channel=9 note=47 velocity=75 time=0
EXTRACT: note_on channel=5 note=66 velocity=90 time=0
EXTRACT: note_on channel=10 note=66 velocity=90 time=0
EXTRACT: note_on channel=0 note=78 velocity=0 time=0.127232075
EXTRACT: note_on channel=1 note=66 velocity=0 time=0
EXTRACT: note_on channel=2 note=37 velocity=0 time=0
EXTRACT: note_on channel=5 note=66 velocity=0 time=0
EXTRACT: note_on channel=10 note=66 velocity=0 time=0
EXTRACT: note_on channel=6 note=37 velocity=0 time=0
EXTRACT: note_on channel=0 note=78 velocity=110 time=0.006696425000000001
EXTRACT: note_on channel=1 note=66 velocity=110 time=0
EXTRACT: note_on channel=2 note=39 velocity=110 time=0
EXTRACT: note_on channel=9 note=41 velocity=127 time=0
EXTRACT: note_on channel=9 note=47 velocity=127 time=0
EXTRACT: note_on channel=5 note=66 velocity=90 time=0
EXTRACT: note_on channel=10 note=66 velocity=90 time=0
EXTRACT: note_on channel=6 note=39 velocity=90 time=0
EXTRACT: note_on channel=9 note=70 velocity=0 time=0.127232075
EXTRACT: note_on channel=9 note=41 velocity=0 time=0
EXTRACT: note_on channel=9 note=47 velocity=0 time=0
EXTRACT: note_on channel=9 note=70 velocity=75 time=0.006696425000000001
EXTRACT: note_on channel=9 note=41 velocity=75 time=0
EXTRACT: note_on channel=9 note=47 velocity=75 time=0
EXTRACT: note_on channel=0 note=78 velocity=0 time=0.127232075
EXTRACT: note_on channel=1 note=66 velocity=0 time=0
EXTRACT: note_on channel=2 note=39 velocity=0 time=0
EXTRACT: note_on channel=9 note=70 velocity=0 time=0
EXTRACT: note_on channel=9 note=41 velocity=0 time=0
EXTRACT: note_on channel=9 note=47 velocity=0 time=0
EXTRACT: note_on channel=9 note=41 velocity=0 time=0
EXTRACT: note_on channel=9 note=47 velocity=0 time=0
EXTRACT: note_on channel=5 note=66 velocity=0 time=0
EXTRACT: note_on channel=10 note=66 velocity=0 time=0
EXTRACT: note_on channel=6 note=39 velocity=0 time=0
EXTRACT: note_on channel=0 note=78 velocity=110 time=0.006696425000000001
EXTRACT: note_on channel=1 note=66 velocity=110 time=0
EXTRACT: note_on channel=2 note=42 velocity=110 time=0
EXTRACT: note_on channel=9 note=70 velocity=75 time=0
EXTRACT: note_on channel=9 note=41 velocity=75 time=0
EXTRACT: note_on channel=9 note=47 velocity=75 time=0
EXTRACT: note_on channel=5 note=66 velocity=90 time=0
EXTRACT: note_on channel=10 note=66 velocity=90 time=0
EXTRACT: note_on channel=6 note=42 velocity=90 time=0
EXTRACT: note_on channel=0 note=78 velocity=0 time=0.261160575
EXTRACT: note_on channel=1 note=66 velocity=0 time=0
EXTRACT: note_on channel=2 note=42 velocity=0 time=0
EXTRACT: note_on channel=9 note=70 velocity=0 time=0
EXTRACT: note_on channel=9 note=41 velocity=0 time=0
EXTRACT: note_on channel=9 note=47 velocity=0 time=0
EXTRACT: note_on channel=5 note=66 velocity=0 time=0
EXTRACT: note_on channel=10 note=66 velocity=0 time=0
EXTRACT: note_on channel=6 note=42 velocity=0 time=0
EXTRACT: note_on channel=1 note=66 velocity=110 time=0.006696425000000001
EXTRACT: note_on channel=1 note=70 velocity=110 time=0
EXTRACT: note_on channel=2 note=39 velocity=110 time=0
EXTRACT: note_on channel=9 note=70 velocity=75 time=0
EXTRACT: note_on channel=9 note=41 velocity=75 time=0
EXTRACT: note_on channel=9 note=47 velocity=75 time=0
EXTRACT: note_on channel=9 note=41 velocity=127 time=0
EXTRACT: note_on channel=9 note=47 velocity=127 time=0
EXTRACT: note_on channel=5 note=66 velocity=90 time=0
EXTRACT: note_on channel=5 note=70 velocity=90 time=0
EXTRACT: note_on channel=10 note=66 velocity=90 time=0
EXTRACT: note_on channel=10 note=70 velocity=90 time=0
EXTRACT: note_on channel=6 note=39 velocity=90 time=0
EXTRACT: note_on channel=1 note=66 velocity=0 time=0.261160575
EXTRACT: note_on channel=1 note=70 velocity=0 time=0
EXTRACT: note_on channel=9 note=70 velocity=0 time=0
EXTRACT: note_on channel=9 note=41 velocity=0 time=0
EXTRACT: note_on channel=9 note=47 velocity=0 time=0
EXTRACT: note_on channel=9 note=41 velocity=0 time=0
EXTRACT: note_on channel=9 note=47 velocity=0 time=0
EXTRACT: note_on channel=5 note=66 velocity=0 time=0
EXTRACT: note_on channel=5 note=70 velocity=0 time=0
EXTRACT: note_on channel=10 note=66 velocity=0 time=0
EXTRACT: note_on channel=10 note=70 velocity=0 time=0
EXTRACT: note_on channel=0 note=87 velocity=110 time=0.006696425000000001
EXTRACT: note_on channel=1 note=75 velocity=110 time=0
EXTRACT: note_on channel=9 note=70 velocity=75 time=0
EXTRACT: note_on channel=9 note=41 velocity=75 time=0
EXTRACT: note_on channel=9 note=47 velocity=75 time=0
EXTRACT: note_on channel=5 note=75 velocity=90 time=0
EXTRACT: note_on channel=10 note=75 velocity=90 time=0
EXTRACT: note_on channel=2 note=39 velocity=0 time=0.127232075
EXTRACT: note_on channel=9 note=70 velocity=0 time=0
EXTRACT: note_on channel=9 note=41 velocity=0 time=0
EXTRACT: note_on channel=9 note=47 velocity=0 time=0
EXTRACT: note_on channel=6 note=39 velocity=0 time=0
EXTRACT: note_on channel=2 note=39 velocity=110 time=0.006696425000000001
EXTRACT: note_on channel=9 note=70 velocity=75 time=0
EXTRACT: note_on channel=9 note=41 velocity=75 time=0
EXTRACT: note_on channel=9 note=47 velocity=75 time=0
EXTRACT: note_on channel=6 note=39 velocity=90 time=0
EXTRACT: note_on channel=1 note=75 velocity=0 time=0.127232075
EXTRACT: note_on channel=5 note=75 velocity=0 time=0
EXTRACT: note_on channel=10 note=75 velocity=0 time=0
EXTRACT: note_on channel=0 note=87 velocity=0 time=0.006696425000000001
EXTRACT: note_on channel=0 note=85 velocity=110 time=0
EXTRACT: note_on channel=1 note=73 velocity=110 time=0
EXTRACT: note_on channel=9 note=41 velocity=127 time=0
EXTRACT: note_on channel=9 note=47 velocity=127 time=0
EXTRACT: note_on channel=5 note=73 velocity=90 time=0
EXTRACT: note_on channel=10 note=73 velocity=90 time=0
EXTRACT: note_on channel=9 note=70 velocity=0 time=0.127232075
EXTRACT: note_on channel=9 note=41 velocity=0 time=0
EXTRACT: note_on channel=9 note=47 velocity=0 time=0
EXTRACT: note_on channel=9 note=70 velocity=75 time=0.006696425000000001
EXTRACT: note_on channel=9 note=41 velocity=75 time=0
EXTRACT: note_on channel=9 note=47 velocity=75 time=0
EXTRACT: note_on channel=0 note=85 velocity=0 time=0.127232075
EXTRACT: note_on channel=1 note=73 velocity=0 time=0
EXTRACT: note_on channel=2 note=39 velocity=0 time=0
EXTRACT: note_on channel=9 note=70 velocity=0 time=0
EXTRACT: note_on channel=9 note=41 velocity=0 time=0
EXTRACT: note_on channel=9 note=47 velocity=0 time=0
EXTRACT: note_on channel=9 note=41 velocity=0 time=0
EXTRACT: note_on channel=9 note=47 velocity=0 time=0
EXTRACT: note_on channel=5 note=73 velocity=0 time=0
EXTRACT: note_on channel=10 note=73 velocity=0 time=0
EXTRACT: note_on channel=6 note=39 velocity=0 time=0
EXTRACT: note_on channel=0 note=85 velocity=110 time=0.006696425000000001
EXTRACT: note_on channel=1 note=73 velocity=110 time=0
EXTRACT: note_on channel=2 note=39 velocity=110 time=0
EXTRACT: note_on channel=9 note=70 velocity=75 time=0
EXTRACT: note_on channel=9 note=41 velocity=75 time=0
EXTRACT: note_on channel=9 note=47 velocity=75 time=0
EXTRACT: note_on channel=5 note=73 velocity=90 time=0
EXTRACT: note_on channel=10 note=73 velocity=90 time=0
EXTRACT: note_on channel=6 note=39 velocity=90 time=0
EXTRACT: note_on channel=0 note=85 velocity=0 time=0.261160575
EXTRACT: note_on channel=1 note=73 velocity=0 time=0
EXTRACT: note_on channel=9 note=70 velocity=0 time=0
EXTRACT: note_on channel=9 note=41 velocity=0 time=0
EXTRACT: note_on channel=9 note=47 velocity=0 time=0
EXTRACT: note_on channel=5 note=73 velocity=0 time=0
EXTRACT: note_on channel=10 note=73 velocity=0 time=0
EXTRACT: note_on channel=0 note=82 velocity=110 time=0.006696425000000001
EXTRACT: note_on channel=1 note=66 velocity=110 time=0
EXTRACT: note_on channel=1 note=70 velocity=110 time=0
EXTRACT: note_on channel=9 note=70 velocity=75 time=0
EXTRACT: note_on channel=9 note=41 velocity=75 time=0
EXTRACT: note_on channel=9 note=47 velocity=75 time=0
EXTRACT: note_on channel=9 note=41 velocity=127 time=0
EXTRACT: note_on channel=9 note=47 velocity=127 time=0
EXTRACT: note_on channel=5 note=66 velocity=90 time=0
EXTRACT: note_on channel=5 note=70 velocity=90 time=0
EXTRACT: note_on channel=10 note=66 velocity=90 time=0
EXTRACT: note_on channel=10 note=70 velocity=90 time=0
EXTRACT: note_on channel=0 note=82 velocity=0 time=0.261160575
EXTRACT: note_on channel=1 note=66 velocity=0 time=0
EXTRACT: note_on channel=1 note=70 velocity=0 time=0
EXTRACT: note_on channel=2 note=39 velocity=0 time=0
EXTRACT: note_on channel=9 note=70 velocity=0 time=0
EXTRACT: note_on channel=9 note=41 velocity=0 time=0
EXTRACT: note_on channel=9 note=47 velocity=0 time=0
EXTRACT: note_on channel=9 note=41 velocity=0 time=0
EXTRACT: note_on channel=9 note=47 velocity=0 time=0
EXTRACT: note_on channel=5 note=66 velocity=0 time=0
EXTRACT: note_on channel=5 note=70 velocity=0 time=0
EXTRACT: note_on channel=10 note=66 velocity=0 time=0
EXTRACT: note_on channel=10 note=70 velocity=0 time=0
EXTRACT: note_on channel=6 note=39 velocity=0 time=0
EXTRACT: note_on channel=0 note=82 velocity=110 time=0.006696425000000001
EXTRACT: note_on channel=1 note=70 velocity=110 time=0
EXTRACT: note_on channel=2 note=37 velocity=110 time=0
EXTRACT: note_on channel=9 note=70 velocity=75 time=0
EXTRACT: note_on channel=9 note=41 velocity=75 time=0
EXTRACT: note_on channel=9 note=47 velocity=75 time=0
EXTRACT: note_on channel=5 note=70 velocity=90 time=0
EXTRACT: note_on channel=10 note=70 velocity=90 time=0
EXTRACT: note_on channel=6 note=37 velocity=90 time=0
EXTRACT: note_on channel=9 note=70 velocity=0 time=0.127232075
EXTRACT: note_on channel=9 note=41 velocity=0 time=0
EXTRACT: note_on channel=9 note=47 velocity=0 time=0
EXTRACT: note_on channel=9 note=70 velocity=75 time=0.006696425000000001
EXTRACT: note_on channel=9 note=41 velocity=75 time=0
EXTRACT: note_on channel=9 note=47 velocity=75 time=0
EXTRACT: note_on channel=2 note=37 velocity=0 time=0.127232075
EXTRACT: note_on channel=6 note=37 velocity=0 time=0
EXTRACT: note_on channel=2 note=37 velocity=110 time=0.006696425000000001
EXTRACT: note_on channel=9 note=41 velocity=127 time=0
EXTRACT: note_on channel=9 note=47 velocity=127 time=0
EXTRACT: note_on channel=6 note=37 velocity=90 time=0
EXTRACT: note_on channel=9 note=70 velocity=0 time=0.127232075
EXTRACT: note_on channel=9 note=41 velocity=0 time=0
EXTRACT: note_on channel=9 note=47 velocity=0 time=0
EXTRACT: note_on channel=9 note=70 velocity=75 time=0.006696425000000001
EXTRACT: note_on channel=9 note=41 velocity=75 time=0
EXTRACT: note_on channel=9 note=47 velocity=75 time=0
EXTRACT: note_on channel=0 note=82 velocity=0 time=0.04464283333333333
EXTRACT: note_on channel=1 note=70 velocity=0 time=0
EXTRACT: note_on channel=5 note=70 velocity=0 time=0
EXTRACT: note_on channel=10 note=70 velocity=0 time=0
EXTRACT: note_on channel=9 note=70 velocity=0 time=0.08258924166666667
EXTRACT: note_on channel=9 note=41 velocity=0 time=0
EXTRACT: note_on channel=9 note=47 velocity=0 time=0
EXTRACT: note_on channel=9 note=41 velocity=0 time=0
EXTRACT: note_on channel=9 note=47 velocity=0 time=0
EXTRACT: note_on channel=0 note=82 velocity=110 time=0.006696425000000001
EXTRACT: note_on channel=1 note=70 velocity=110 time=0
EXTRACT: note_on channel=9 note=70 velocity=75 time=0
EXTRACT: note_on channel=9 note=41 velocity=75 time=0
EXTRACT: note_on channel=9 note=47 velocity=75 time=0
EXTRACT: note_on channel=5 note=70 velocity=90 time=0
EXTRACT: note_on channel=10 note=70 velocity=90 time=0
EXTRACT: note_on channel=2 note=37 velocity=0 time=0.17857133333333333
EXTRACT: note_on channel=6 note=37 velocity=0 time=0
EXTRACT: note_on channel=1 note=70 velocity=0 time=0.08258924166666667
EXTRACT: note_on channel=9 note=70 velocity=0 time=0
EXTRACT: note_on channel=9 note=41 velocity=0 time=0
EXTRACT: note_on channel=9 note=47 velocity=0 time=0
EXTRACT: note_on channel=5 note=70 velocity=0 time=0
EXTRACT: note_on channel=10 note=70 velocity=0 time=0
EXTRACT: note_on channel=1 note=61 velocity=110 time=0.006696425000000001
EXTRACT: note_on channel=1 note=68 velocity=110 time=0
EXTRACT: note_on channel=2 note=42 velocity=110 time=0
EXTRACT: note_on channel=9 note=70 velocity=75 time=0
EXTRACT: note_on channel=5 note=61 velocity=90 time=0
EXTRACT: note_on channel=5 note=68 velocity=90 time=0
EXTRACT: note_on channel=10 note=61 velocity=90 time=0
EXTRACT: note_on channel=10 note=68 velocity=90 time=0
EXTRACT: note_on channel=6 note=42 velocity=90 time=0
EXTRACT: note_on channel=0 note=82 velocity=0 time=0.261160575
EXTRACT: note_on channel=9 note=70 velocity=0 time=0
EXTRACT: note_on channel=0 note=85 velocity=110 time=0.006696425000000001
EXTRACT: note_on channel=9 note=70 velocity=75 time=0
EXTRACT: note_on channel=1 note=61 velocity=0 time=0.127232075
EXTRACT: note_on channel=1 note=68 velocity=0 time=0
EXTRACT: note_on channel=9 note=70 velocity=0 time=0
EXTRACT: note_on channel=5 note=61 velocity=0 time=0
EXTRACT: note_on channel=5 note=68 velocity=0 time=0
EXTRACT: note_on channel=10 note=61 velocity=0 time=0
EXTRACT: note_on channel=10 note=68 velocity=0 time=0
EXTRACT: note_on channel=1 note=61 velocity=110 time=0.006696425000000001
EXTRACT: note_on channel=1 note=68 velocity=110 time=0
EXTRACT: note_on channel=9 note=70 velocity=75 time=0
EXTRACT: note_on channel=5 note=61 velocity=90 time=0
EXTRACT: note_on channel=5 note=68 velocity=90 time=0
EXTRACT: note_on channel=10 note=61 velocity=90 time=0
EXTRACT: note_on channel=10 note=68 velocity=90 time=0
EXTRACT: note_on channel=9 note=70 velocity=0 time=0.261160575
EXTRACT: note_on channel=9 note=70 velocity=75 time=0.006696425000000001
EXTRACT: note_on channel=1 note=61 velocity=0 time=0.127232075
EXTRACT: note_on channel=1 note=68 velocity=0 time=0
EXTRACT: note_on channel=9 note=70 velocity=0 time=0
EXTRACT: note_on channel=5 note=61 velocity=0 time=0
EXTRACT: note_on channel=5 note=68 velocity=0 time=0
EXTRACT: note_on channel=10 note=61 velocity=0 time=0
EXTRACT: note_on channel=10 note=68 velocity=0 time=0
EXTRACT: note_on channel=1 note=61 velocity=110 time=0.006696425000000001
EXTRACT: note_on channel=1 note=66 velocity=110 time=0
EXTRACT: note_on channel=9 note=70 velocity=75 time=0
EXTRACT: note_on channel=5 note=61 velocity=90 time=0
EXTRACT: note_on channel=5 note=66 velocity=90 time=0
EXTRACT: note_on channel=10 note=61 velocity=90 time=0
EXTRACT: note_on channel=10 note=66 velocity=90 time=0
EXTRACT: note_on channel=9 note=70 velocity=0 time=0.261160575
EXTRACT: note_on channel=9 note=70 velocity=75 time=0.006696425000000001
EXTRACT: note_on channel=1 note=61 velocity=0 time=0.261160575
EXTRACT: note_on channel=1 note=66 velocity=0 time=0
EXTRACT: note_on channel=9 note=70 velocity=0 time=0
EXTRACT: note_on channel=5 note=61 velocity=0 time=0
EXTRACT: note_on channel=5 note=66 velocity=0 time=0
EXTRACT: note_on channel=10 note=61 velocity=0 time=0
EXTRACT: note_on channel=10 note=66 velocity=0 time=0
EXTRACT: note_on channel=1 note=61 velocity=110 time=0.006696425000000001
EXTRACT: note_on channel=1 note=66 velocity=110 time=0
EXTRACT: note_on channel=9 note=70 velocity=75 time=0
EXTRACT: note_on channel=5 note=61 velocity=90 time=0
EXTRACT: note_on channel=5 note=66 velocity=90 time=0
EXTRACT: note_on channel=10 note=61 velocity=90 time=0
EXTRACT: note_on channel=10 note=66 velocity=90 time=0
EXTRACT: note_on channel=9 note=70 velocity=0 time=0.127232075
EXTRACT: note_on channel=9 note=70 velocity=75 time=0.006696425000000001
EXTRACT: note_on channel=1 note=61 velocity=0 time=0.127232075
EXTRACT: note_on channel=1 note=66 velocity=0 time=0
EXTRACT: note_on channel=5 note=61 velocity=0 time=0
EXTRACT: note_on channel=5 note=66 velocity=0 time=0
EXTRACT: note_on channel=10 note=61 velocity=0 time=0
EXTRACT: note_on channel=10 note=66 velocity=0 time=0
EXTRACT: note_on channel=1 note=61 velocity=110 time=0.006696425000000001
EXTRACT: note_on channel=1 note=66 velocity=110 time=0
EXTRACT: note_on channel=5 note=61 velocity=90 time=0
EXTRACT: note_on channel=5 note=66 velocity=90 time=0
EXTRACT: note_on channel=10 note=61 velocity=90 time=0
EXTRACT: note_on channel=10 note=66 velocity=90 time=0
EXTRACT: note_on channel=9 note=70 velocity=0 time=0.127232075
EXTRACT: note_on channel=9 note=70 velocity=75 time=0.006696425000000001
EXTRACT: note_on channel=9 note=70 velocity=0 time=0.127232075
EXTRACT: note_on channel=9 note=70 velocity=75 time=0.006696425000000001
EXTRACT: note_on channel=2 note=42 velocity=0 time=0.1339285
EXTRACT: note_on channel=6 note=42 velocity=0 time=0
EXTRACT: note_on channel=1 note=61 velocity=0 time=0.04464283333333333
EXTRACT: note_on channel=1 note=66 velocity=0 time=0
EXTRACT: note_on channel=5 note=61 velocity=0 time=0
EXTRACT: note_on channel=5 note=66 velocity=0 time=0
EXTRACT: note_on channel=10 note=61 velocity=0 time=0
EXTRACT: note_on channel=10 note=66 velocity=0 time=0
EXTRACT: note_on channel=9 note=70 velocity=0 time=0.08258924166666667
EXTRACT: note_on channel=1 note=61 velocity=110 time=0.006696425000000001
EXTRACT: note_on channel=1 note=68 velocity=110 time=0
EXTRACT: note_on channel=2 note=42 velocity=110 time=0
EXTRACT: note_on channel=9 note=70 velocity=75 time=0
EXTRACT: note_on channel=5 note=61 velocity=90 time=0
EXTRACT: note_on channel=5 note=68 velocity=90 time=0
EXTRACT: note_on channel=10 note=61 velocity=90 time=0
EXTRACT: note_on channel=10 note=68 velocity=90 time=0
EXTRACT: note_on channel=6 note=42 velocity=90 time=0
EXTRACT: note_on channel=9 note=70 velocity=0 time=0.261160575
EXTRACT: note_on channel=9 note=70 velocity=75 time=0.006696425000000001
EXTRACT: note_on channel=1 note=61 velocity=0 time=0.127232075
EXTRACT: note_on channel=1 note=68 velocity=0 time=0
EXTRACT: note_on channel=9 note=70 velocity=0 time=0
EXTRACT: note_on channel=5 note=61 velocity=0 time=0
EXTRACT: note_on channel=5 note=68 velocity=0 time=0
EXTRACT: note_on channel=10 note=61 velocity=0 time=0
EXTRACT: note_on channel=10 note=68 velocity=0 time=0
EXTRACT: note_on channel=1 note=61 velocity=110 time=0.006696425000000001
EXTRACT: note_on channel=1 note=68 velocity=110 time=0
EXTRACT: note_on channel=9 note=70 velocity=75 time=0
EXTRACT: note_on channel=5 note=61 velocity=90 time=0
EXTRACT: note_on channel=5 note=68 velocity=90 time=0
EXTRACT: note_on channel=10 note=61 velocity=90 time=0
EXTRACT: note_on channel=10 note=68 velocity=90 time=0
EXTRACT: note_on channel=9 note=70 velocity=0 time=0.261160575
EXTRACT: note_on channel=9 note=70 velocity=75 time=0.006696425000000001
EXTRACT: note_on channel=1 note=61 velocity=0 time=0.127232075
EXTRACT: note_on channel=1 note=68 velocity=0 time=0
EXTRACT: note_on channel=9 note=70 velocity=0 time=0
EXTRACT: note_on channel=5 note=61 velocity=0 time=0
EXTRACT: note_on channel=5 note=68 velocity=0 time=0
EXTRACT: note_on channel=10 note=61 velocity=0 time=0
EXTRACT: note_on channel=10 note=68 velocity=0 time=0
EXTRACT: note_on channel=1 note=61 velocity=110 time=0.006696425000000001
EXTRACT: note_on channel=1 note=66 velocity=110 time=0
EXTRACT: note_on channel=9 note=70 velocity=75 time=0
EXTRACT: note_on channel=5 note=61 velocity=90 time=0
EXTRACT: note_on channel=5 note=66 velocity=90 time=0
EXTRACT: note_on channel=10 note=61 velocity=90 time=0
EXTRACT: note_on channel=10 note=66 velocity=90 time=0
EXTRACT: note_on channel=9 note=70 velocity=0 time=0.261160575
EXTRACT: note_on channel=9 note=70 velocity=75 time=0.006696425000000001
EXTRACT: note_on channel=1 note=61 velocity=0 time=0.261160575
EXTRACT: note_on channel=1 note=66 velocity=0 time=0
EXTRACT: note_on channel=9 note=70 velocity=0 time=0
EXTRACT: note_on channel=5 note=61 velocity=0 time=0
EXTRACT: note_on channel=5 note=66 velocity=0 time=0
EXTRACT: note_on channel=10 note=61 velocity=0 time=0
EXTRACT: note_on channel=10 note=66 velocity=0 time=0
EXTRACT: note_on channel=1 note=61 velocity=110 time=0.006696425000000001
EXTRACT: note_on channel=1 note=66 velocity=110 time=0
EXTRACT: note_on channel=9 note=70 velocity=75 time=0
EXTRACT: note_on channel=5 note=61 velocity=90 time=0
EXTRACT: note_on channel=5 note=66 velocity=90 time=0
EXTRACT: note_on channel=10 note=61 velocity=90 time=0
EXTRACT: note_on channel=10 note=66 velocity=90 time=0
EXTRACT: note_on channel=9 note=70 velocity=0 time=0.127232075
EXTRACT: note_on channel=9 note=70 velocity=75 time=0.006696425000000001
EXTRACT: note_on channel=1 note=61 velocity=0 time=0.127232075
EXTRACT: note_on channel=1 note=66 velocity=0 time=0
EXTRACT: note_on channel=5 note=61 velocity=0 time=0
EXTRACT: note_on channel=5 note=66 velocity=0 time=0
EXTRACT: note_on channel=10 note=61 velocity=0 time=0
EXTRACT: note_on channel=10 note=66 velocity=0 time=0
EXTRACT: note_on channel=1 note=61 velocity=110 time=0.006696425000000001
EXTRACT: note_on channel=1 note=66 velocity=110 time=0
EXTRACT: note_on channel=5 note=61 velocity=90 time=0
EXTRACT: note_on channel=5 note=66 velocity=90 time=0
EXTRACT: note_on channel=10 note=61 velocity=90 time=0
EXTRACT: note_on channel=10 note=66 velocity=90 time=0
EXTRACT: note_on channel=9 note=70 velocity=0 time=0.127232075
EXTRACT: note_on channel=9 note=70 velocity=75 time=0.006696425000000001
EXTRACT: note_on channel=9 note=70 velocity=0 time=0.127232075
EXTRACT: note_on channel=9 note=70 velocity=75 time=0.006696425000000001
EXTRACT: note_on channel=2 note=42 velocity=0 time=0.1339285
EXTRACT: note_on channel=6 note=42 velocity=0 time=0
EXTRACT: note_on channel=1 note=61 velocity=0 time=0.04464283333333333
EXTRACT: note_on channel=1 note=66 velocity=0 time=0
EXTRACT: note_on channel=5 note=61 velocity=0 time=0
EXTRACT: note_on channel=5 note=66 velocity=0 time=0
EXTRACT: note_on channel=10 note=61 velocity=0 time=0
EXTRACT: note_on channel=10 note=66 velocity=0 time=0
EXTRACT: note_on channel=9 note=70 velocity=0 time=0.08258924166666667
EXTRACT: note_on channel=9 note=70 velocity=75 time=0.006696425000000001
EXTRACT: note_on channel=9 note=41 velocity=127 time=0
EXTRACT: note_on channel=9 note=47 velocity=127 time=0
EXTRACT: note_on channel=9 note=41 velocity=127 time=0
EXTRACT: note_on channel=9 note=47 velocity=127 time=0
EXTRACT: note_on channel=9 note=70 velocity=0 time=0.261160575
EXTRACT: note_on channel=9 note=41 velocity=0 time=0
EXTRACT: note_on channel=9 note=47 velocity=0 time=0
EXTRACT: note_on channel=9 note=41 velocity=0 time=0
EXTRACT: note_on channel=9 note=47 velocity=0 time=0
EXTRACT: note_on channel=9 note=70 velocity=75 time=0.006696425000000001
EXTRACT: note_on channel=9 note=41 velocity=127 time=0
EXTRACT: note_on channel=9 note=47 velocity=127 time=0
EXTRACT: note_on channel=9 note=70 velocity=0 time=0.127232075
EXTRACT: note_on channel=9 note=41 velocity=0 time=0
EXTRACT: note_on channel=9 note=47 velocity=0 time=0
EXTRACT: note_on channel=9 note=70 velocity=75 time=0.006696425000000001
EXTRACT: note_on channel=9 note=41 velocity=127 time=0
EXTRACT: note_on channel=9 note=47 velocity=127 time=0
EXTRACT: note_on channel=9 note=41 velocity=127 time=0.1339285
EXTRACT: note_on channel=9 note=47 velocity=127 time=0
EXTRACT: note_on channel=9 note=70 velocity=0 time=0.127232075
EXTRACT: note_on channel=9 note=41 velocity=0 time=0
EXTRACT: note_on channel=9 note=47 velocity=0 time=0
EXTRACT: note_on channel=9 note=70 velocity=75 time=0.006696425000000001
EXTRACT: note_on channel=9 note=41 velocity=127 time=0
EXTRACT: note_on channel=9 note=47 velocity=127 time=0
EXTRACT: note_on channel=9 note=70 velocity=0 time=0.127232075
EXTRACT: note_on channel=9 note=41 velocity=0 time=0
EXTRACT: note_on channel=9 note=47 velocity=0 time=0
EXTRACT: note_on channel=9 note=41 velocity=0 time=0
EXTRACT: note_on channel=9 note=47 velocity=0 time=0
EXTRACT: note_on channel=9 note=70 velocity=75 time=0.006696425000000001
EXTRACT: note_on channel=9 note=41 velocity=127 time=0
EXTRACT: note_on channel=9 note=47 velocity=127 time=0
EXTRACT: note_on channel=0 note=85 velocity=0 time=0.1339285
EXTRACT: note_on channel=9 note=70 velocity=0 time=0.127232075
EXTRACT: note_on channel=9 note=41 velocity=0 time=0
EXTRACT: note_on channel=9 note=47 velocity=0 time=0
EXTRACT: note_on channel=1 note=70 velocity=110 time=0.006696425000000001
EXTRACT: note_on channel=1 note=75 velocity=110 time=0
EXTRACT: note_on channel=1 note=78 velocity=110 time=0
EXTRACT: note_on channel=3 note=70 velocity=110 time=0
EXTRACT: note_on channel=3 note=75 velocity=110 time=0
EXTRACT: note_on channel=3 note=78 velocity=110 time=0
EXTRACT: note_on channel=9 note=70 velocity=75 time=0
EXTRACT: note_on channel=9 note=41 velocity=127 time=0
EXTRACT: note_on channel=9 note=47 velocity=127 time=0
EXTRACT: note_on channel=9 note=41 velocity=127 time=0
EXTRACT: note_on channel=9 note=47 velocity=127 time=0
EXTRACT: note_on channel=5 note=70 velocity=90 time=0
EXTRACT: note_on channel=5 note=75 velocity=90 time=0
EXTRACT: note_on channel=5 note=78 velocity=90 time=0
EXTRACT: note_on channel=10 note=70 velocity=90 time=0
EXTRACT: note_on channel=10 note=75 velocity=90 time=0
EXTRACT: note_on channel=10 note=78 velocity=90 time=0
EXTRACT: note_on channel=9 note=70 velocity=0 time=0.261160575
EXTRACT: note_on channel=9 note=41 velocity=0 time=0
EXTRACT: note_on channel=9 note=47 velocity=0 time=0
EXTRACT: note_on channel=9 note=41 velocity=0 time=0
EXTRACT: note_on channel=9 note=47 velocity=0 time=0
EXTRACT: note_on channel=9 note=70 velocity=75 time=0.006696425000000001
EXTRACT: note_on channel=9 note=41 velocity=127 time=0
EXTRACT: note_on channel=9 note=47 velocity=127 time=0
EXTRACT: note_on channel=9 note=70 velocity=0 time=0.127232075
EXTRACT: note_on channel=9 note=41 velocity=0 time=0
EXTRACT: note_on channel=9 note=47 velocity=0 time=0
EXTRACT: note_on channel=9 note=70 velocity=75 time=0.006696425000000001
EXTRACT: note_on channel=9 note=41 velocity=127 time=0
EXTRACT: note_on channel=9 note=47 velocity=127 time=0
EXTRACT: note_on channel=1 note=70 velocity=0 time=0.04464283333333333
EXTRACT: note_on channel=1 note=75 velocity=0 time=0
EXTRACT: note_on channel=1 note=78 velocity=0 time=0
EXTRACT: note_on channel=3 note=70 velocity=0 time=0
EXTRACT: note_on channel=3 note=75 velocity=0 time=0
EXTRACT: note_on channel=3 note=78 velocity=0 time=0
EXTRACT: note_on channel=5 note=70 velocity=0 time=0
EXTRACT: note_on channel=5 note=75 velocity=0 time=0
EXTRACT: note_on channel=5 note=78 velocity=0 time=0
EXTRACT: note_on channel=10 note=70 velocity=0 time=0
EXTRACT: note_on channel=10 note=75 velocity=0 time=0
EXTRACT: note_on channel=10 note=78 velocity=0 time=0
EXTRACT: note_on channel=1 note=70 velocity=110 time=0.08928566666666667
EXTRACT: note_on channel=1 note=75 velocity=110 time=0
EXTRACT: note_on channel=1 note=78 velocity=110 time=0
EXTRACT: note_on channel=3 note=70 velocity=110 time=0
EXTRACT: note_on channel=3 note=75 velocity=110 time=0
EXTRACT: note_on channel=3 note=78 velocity=110 time=0
EXTRACT: note_on channel=9 note=41 velocity=127 time=0
EXTRACT: note_on channel=9 note=47 velocity=127 time=0
EXTRACT: note_on channel=5 note=70 velocity=90 time=0
EXTRACT: note_on channel=5 note=75 velocity=90 time=0
EXTRACT: note_on channel=5 note=78 velocity=90 time=0
EXTRACT: note_on channel=10 note=70 velocity=90 time=0
EXTRACT: note_on channel=10 note=75 velocity=90 time=0
EXTRACT: note_on channel=10 note=78 velocity=90 time=0
EXTRACT: note_on channel=9 note=70 velocity=0 time=0.127232075
EXTRACT: note_on channel=9 note=41 velocity=0 time=0
EXTRACT: note_on channel=9 note=47 velocity=0 time=0
EXTRACT: note_on channel=9 note=70 velocity=75 time=0.006696425000000001
EXTRACT: note_on channel=9 note=41 velocity=127 time=0
EXTRACT: note_on channel=9 note=47 velocity=127 time=0
EXTRACT: note_on channel=9 note=70 velocity=0 time=0.127232075
EXTRACT: note_on channel=9 note=41 velocity=0 time=0
EXTRACT: note_on channel=9 note=47 velocity=0 time=0
EXTRACT: note_on channel=9 note=41 velocity=0 time=0
EXTRACT: note_on channel=9 note=47 velocity=0 time=0
EXTRACT: note_on channel=9 note=70 velocity=75 time=0.006696425000000001
EXTRACT: note_on channel=9 note=41 velocity=127 time=0
EXTRACT: note_on channel=9 note=47 velocity=127 time=0
EXTRACT: note_on channel=1 note=70 velocity=0 time=0.17857133333333333
EXTRACT: note_on channel=1 note=75 velocity=0 time=0
EXTRACT: note_on channel=1 note=78 velocity=0 time=0
EXTRACT: note_on channel=3 note=70 velocity=0 time=0
EXTRACT: note_on channel=3 note=75 velocity=0 time=0
EXTRACT: note_on channel=3 note=78 velocity=0 time=0
EXTRACT: note_on channel=5 note=70 velocity=0 time=0
EXTRACT: note_on channel=5 note=75 velocity=0 time=0
EXTRACT: note_on channel=5 note=78 velocity=0 time=0
EXTRACT: note_on channel=10 note=70 velocity=0 time=0
EXTRACT: note_on channel=10 note=75 velocity=0 time=0
EXTRACT: note_on channel=10 note=78 velocity=0 time=0
EXTRACT: note_on channel=9 note=70 velocity=0 time=0.08258924166666667
EXTRACT: note_on channel=9 note=41 velocity=0 time=0
EXTRACT: note_on channel=9 note=47 velocity=0 time=0
EXTRACT: note_on channel=1 note=68 velocity=110 time=0.006696425000000001
EXTRACT: note_on channel=1 note=73 velocity=110 time=0
EXTRACT: note_on channel=1 note=77 velocity=110 time=0
EXTRACT: note_on channel=3 note=68 velocity=110 time=0
EXTRACT: note_on channel=3 note=73 velocity=110 time=0
EXTRACT: note_on channel=3 note=77 velocity=110 time=0
EXTRACT: note_on channel=9 note=70 velocity=75 time=0
EXTRACT: note_on channel=9 note=41 velocity=127 time=0
EXTRACT: note_on channel=9 note=47 velocity=127 time=0
EXTRACT: note_on channel=9 note=41 velocity=127 time=0
EXTRACT: note_on channel=9 note=47 velocity=127 time=0
EXTRACT: note_on channel=5 note=68 velocity=90 time=0
EXTRACT: note_on channel=5 note=73 velocity=90 time=0
EXTRACT: note_on channel=5 note=77 velocity=90 time=0
EXTRACT: note_on channel=10 note=68 velocity=90 time=0
EXTRACT: note_on channel=10 note=73 velocity=90 time=0
EXTRACT: note_on channel=10 note=77 velocity=90 time=0
EXTRACT: note_on channel=9 note=70 velocity=0 time=0.261160575
EXTRACT: note_on channel=9 note=41 velocity=0 time=0
EXTRACT: note_on channel=9 note=47 velocity=0 time=0
EXTRACT: note_on channel=9 note=41 velocity=0 time=0
EXTRACT: note_on channel=9 note=47 velocity=0 time=0
EXTRACT: note_on channel=9 note=70 velocity=75 time=0.006696425000000001
EXTRACT: note_on channel=9 note=41 velocity=127 time=0
EXTRACT: note_on channel=9 note=47 velocity=127 time=0
EXTRACT: note_on channel=9 note=70 velocity=0 time=0.127232075
EXTRACT: note_on channel=9 note=41 velocity=0 time=0
EXTRACT: note_on channel=9 note=47 velocity=0 time=0
EXTRACT: note_on channel=9 note=70 velocity=75 time=0.006696425000000001
EXTRACT: note_on channel=9 note=41 velocity=127 time=0
EXTRACT: note_on channel=9 note=47 velocity=127 time=0
EXTRACT: note_on channel=9 note=41 velocity=127 time=0.1339285
EXTRACT: note_on channel=9 note=47 velocity=127 time=0
EXTRACT: note_on channel=9 note=70 velocity=0 time=0.127232075
EXTRACT: note_on channel=9 note=41 velocity=0 time=0
EXTRACT: note_on channel=9 note=47 velocity=0 time=0
EXTRACT: note_on channel=9 note=70 velocity=75 time=0.006696425000000001
EXTRACT: note_on channel=9 note=41 velocity=127 time=0
EXTRACT: note_on channel=9 note=47 velocity=127 time=0
EXTRACT: note_on channel=9 note=70 velocity=0 time=0.127232075
EXTRACT: note_on channel=9 note=41 velocity=0 time=0
EXTRACT: note_on channel=9 note=47 velocity=0 time=0
EXTRACT: note_on channel=9 note=41 velocity=0 time=0
EXTRACT: note_on channel=9 note=47 velocity=0 time=0
EXTRACT: note_on channel=9 note=70 velocity=75 time=0.006696425000000001
EXTRACT: note_on channel=9 note=41 velocity=127 time=0
EXTRACT: note_on channel=9 note=47 velocity=127 time=0
EXTRACT: note_on channel=1 note=68 velocity=0 time=0.1339285
EXTRACT: note_on channel=1 note=73 velocity=0 time=0
EXTRACT: note_on channel=1 note=77 velocity=0 time=0
EXTRACT: note_on channel=3 note=68 velocity=0 time=0
EXTRACT: note_on channel=3 note=73 velocity=0 time=0
EXTRACT: note_on channel=3 note=77 velocity=0 time=0
EXTRACT: note_on channel=5 note=68 velocity=0 time=0
EXTRACT: note_on channel=5 note=73 velocity=0 time=0
EXTRACT: note_on channel=5 note=77 velocity=0 time=0
EXTRACT: note_on channel=10 note=68 velocity=0 time=0
EXTRACT: note_on channel=10 note=73 velocity=0 time=0
EXTRACT: note_on channel=10 note=77 velocity=0 time=0
EXTRACT: note_on channel=9 note=70 velocity=0 time=0.127232075
EXTRACT: note_on channel=9 note=41 velocity=0 time=0
EXTRACT: note_on channel=9 note=47 velocity=0 time=0
EXTRACT: note_on channel=1 note=73 velocity=110 time=0.006696425000000001
EXTRACT: note_on channel=1 note=77 velocity=110 time=0
EXTRACT: note_on channel=1 note=80 velocity=110 time=0
EXTRACT: note_on channel=3 note=73 velocity=110 time=0
EXTRACT: note_on channel=3 note=77 velocity=110 time=0
EXTRACT: note_on channel=3 note=80 velocity=110 time=0
EXTRACT: note_on channel=9 note=70 velocity=75 time=0
EXTRACT: note_on channel=9 note=41 velocity=127 time=0
EXTRACT: note_on channel=9 note=47 velocity=127 time=0
EXTRACT: note_on channel=9 note=41 velocity=127 time=0
EXTRACT: note_on channel=9 note=47 velocity=127 time=0
EXTRACT: note_on channel=5 note=73 velocity=90 time=0
EXTRACT: note_on channel=5 note=77 velocity=90 time=0
EXTRACT: note_on channel=5 note=80 velocity=90 time=0
EXTRACT: note_on channel=10 note=73 velocity=90 time=0
EXTRACT: note_on channel=10 note=77 velocity=90 time=0
EXTRACT: note_on channel=10 note=80 velocity=90 time=0
EXTRACT: note_on channel=9 note=70 velocity=0 time=0.261160575
EXTRACT: note_on channel=9 note=41 velocity=0 time=0
EXTRACT: note_on channel=9 note=47 velocity=0 time=0
EXTRACT: note_on channel=9 note=41 velocity=0 time=0
EXTRACT: note_on channel=9 note=47 velocity=0 time=0
EXTRACT: note_on channel=9 note=70 velocity=75 time=0.006696425000000001
EXTRACT: note_on channel=9 note=41 velocity=127 time=0
EXTRACT: note_on channel=9 note=47 velocity=127 time=0
EXTRACT: note_on channel=9 note=70 velocity=0 time=0.127232075
EXTRACT: note_on channel=9 note=41 velocity=0 time=0
EXTRACT: note_on channel=9 note=47 velocity=0 time=0
EXTRACT: note_on channel=9 note=70 velocity=75 time=0.006696425000000001
EXTRACT: note_on channel=9 note=41 velocity=127 time=0
EXTRACT: note_on channel=9 note=47 velocity=127 time=0
EXTRACT: note_on channel=9 note=41 velocity=127 time=0.1339285
EXTRACT: note_on channel=9 note=47 velocity=127 time=0
EXTRACT: note_on channel=9 note=70 velocity=0 time=0.127232075
EXTRACT: note_on channel=9 note=41 velocity=0 time=0
EXTRACT: note_on channel=9 note=47 velocity=0 time=0
EXTRACT: note_on channel=9 note=70 velocity=75 time=0.006696425000000001
EXTRACT: note_on channel=9 note=41 velocity=127 time=0
EXTRACT: note_on channel=9 note=47 velocity=127 time=0
EXTRACT: note_on channel=9 note=70 velocity=0 time=0.127232075
EXTRACT: note_on channel=9 note=41 velocity=0 time=0
EXTRACT: note_on channel=9 note=47 velocity=0 time=0
EXTRACT: note_on channel=9 note=41 velocity=0 time=0
EXTRACT: note_on channel=9 note=47 velocity=0 time=0
EXTRACT: note_on channel=9 note=70 velocity=75 time=0.006696425000000001
EXTRACT: note_on channel=9 note=41 velocity=127 time=0
EXTRACT: note_on channel=9 note=47 velocity=127 time=0
EXTRACT: note_on channel=1 note=73 velocity=0 time=0.1339285
EXTRACT: note_on channel=1 note=77 velocity=0 time=0
EXTRACT: note_on channel=1 note=80 velocity=0 time=0
EXTRACT: note_on channel=3 note=73 velocity=0 time=0
EXTRACT: note_on channel=3 note=77 velocity=0 time=0
EXTRACT: note_on channel=3 note=80 velocity=0 time=0
EXTRACT: note_on channel=5 note=73 velocity=0 time=0
EXTRACT: note_on channel=5 note=77 velocity=0 time=0
EXTRACT: note_on channel=5 note=80 velocity=0 time=0
EXTRACT: note_on channel=10 note=73 velocity=0 time=0
EXTRACT: note_on channel=10 note=77 velocity=0 time=0
EXTRACT: note_on channel=10 note=80 velocity=0 time=0
EXTRACT: note_on channel=9 note=70 velocity=0 time=0.127232075
EXTRACT: note_on channel=9 note=41 velocity=0 time=0
EXTRACT: note_on channel=9 note=47 velocity=0 time=0
EXTRACT: note_on channel=9 note=70 velocity=75 time=0.006696425000000001
EXTRACT: note_on channel=9 note=41 velocity=127 time=0
EXTRACT: note_on channel=9 note=47 velocity=127 time=0
EXTRACT: note_on channel=9 note=41 velocity=127 time=0
EXTRACT: note_on channel=9 note=47 velocity=127 time=0
EXTRACT: note_on channel=9 note=70 velocity=0 time=0.261160575
EXTRACT: note_on channel=9 note=41 velocity=0 time=0
EXTRACT: note_on channel=9 note=47 velocity=0 time=0
EXTRACT: note_on channel=9 note=41 velocity=0 time=0
EXTRACT: note_on channel=9 note=47 velocity=0 time=0
EXTRACT: note_on channel=9 note=70 velocity=75 time=0.006696425000000001
EXTRACT: note_on channel=9 note=41 velocity=127 time=0
EXTRACT: note_on channel=9 note=47 velocity=127 time=0
EXTRACT: note_on channel=9 note=70 velocity=0 time=0.127232075
EXTRACT: note_on channel=9 note=41 velocity=0 time=0
EXTRACT: note_on channel=9 note=47 velocity=0 time=0
EXTRACT: note_on channel=9 note=70 velocity=75 time=0.006696425000000001
EXTRACT: note_on channel=9 note=41 velocity=127 time=0
EXTRACT: note_on channel=9 note=47 velocity=127 time=0
EXTRACT: note_on channel=9 note=41 velocity=127 time=0.1339285
EXTRACT: note_on channel=9 note=47 velocity=127 time=0
EXTRACT: note_on channel=9 note=70 velocity=0 time=0.127232075
EXTRACT: note_on channel=9 note=41 velocity=0 time=0
EXTRACT: note_on channel=9 note=47 velocity=0 time=0
EXTRACT: note_on channel=9 note=70 velocity=75 time=0.006696425000000001
EXTRACT: note_on channel=9 note=41 velocity=127 time=0
EXTRACT: note_on channel=9 note=47 velocity=127 time=0
EXTRACT: note_on channel=9 note=70 velocity=0 time=0.127232075
EXTRACT: note_on channel=9 note=41 velocity=0 time=0
EXTRACT: note_on channel=9 note=47 velocity=0 time=0
EXTRACT: note_on channel=9 note=41 velocity=0 time=0
EXTRACT: note_on channel=9 note=47 velocity=0 time=0
EXTRACT: note_on channel=9 note=70 velocity=75 time=0.006696425000000001
EXTRACT: note_on channel=9 note=41 velocity=127 time=0
EXTRACT: note_on channel=9 note=47 velocity=127 time=0
EXTRACT: note_on channel=9 note=70 velocity=0 time=0.261160575
EXTRACT: note_on channel=9 note=41 velocity=0 time=0
EXTRACT: note_on channel=9 note=47 velocity=0 time=0
EXTRACT: note_on channel=1 note=70 velocity=110 time=0.006696425000000001
EXTRACT: note_on channel=1 note=75 velocity=110 time=0
EXTRACT: note_on channel=1 note=78 velocity=110 time=0
EXTRACT: note_on channel=3 note=70 velocity=110 time=0
EXTRACT: note_on channel=3 note=75 velocity=110 time=0
EXTRACT: note_on channel=3 note=78 velocity=110 time=0
EXTRACT: note_on channel=9 note=70 velocity=75 time=0
EXTRACT: note_on channel=9 note=41 velocity=127 time=0
EXTRACT: note_on channel=9 note=47 velocity=127 time=0
EXTRACT: note_on channel=9 note=41 velocity=127 time=0
EXTRACT: note_on channel=9 note=47 velocity=127 time=0
EXTRACT: note_on channel=5 note=70 velocity=90 time=0
EXTRACT: note_on channel=5 note=75 velocity=90 time=0
EXTRACT: note_on channel=5 note=78 velocity=90 time=0
EXTRACT: note_on channel=10 note=70 velocity=90 time=0
EXTRACT: note_on channel=10 note=75 velocity=90 time=0
EXTRACT: note_on channel=10 note=78 velocity=90 time=0
EXTRACT: note_on channel=9 note=70 velocity=0 time=0.261160575
EXTRACT: note_on channel=9 note=41 velocity=0 time=0
EXTRACT: note_on channel=9 note=47 velocity=0 time=0
EXTRACT: note_on channel=9 note=41 velocity=0 time=0
EXTRACT: note_on channel=9 note=47 velocity=0 time=0
EXTRACT: note_on channel=9 note=70 velocity=75 time=0.006696425000000001
EXTRACT: note_on channel=9 note=41 velocity=127 time=0
EXTRACT: note_on channel=9 note=47 velocity=127 time=0
EXTRACT: note_on channel=9 note=70 velocity=0 time=0.127232075
EXTRACT: note_on channel=9 note=41 velocity=0 time=0
EXTRACT: note_on channel=9 note=47 velocity=0 time=0
EXTRACT: note_on channel=9 note=70 velocity=75 time=0.006696425000000001
EXTRACT: note_on channel=9 note=41 velocity=127 time=0
EXTRACT: note_on channel=9 note=47 velocity=127 time=0
EXTRACT: note_on channel=1 note=70 velocity=0 time=0.04464283333333333
EXTRACT: note_on channel=1 note=75 velocity=0 time=0
EXTRACT: note_on channel=1 note=78 velocity=0 time=0
EXTRACT: note_on channel=3 note=70 velocity=0 time=0
EXTRACT: note_on channel=3 note=75 velocity=0 time=0
EXTRACT: note_on channel=3 note=78 velocity=0 time=0
EXTRACT: note_on channel=5 note=70 velocity=0 time=0
EXTRACT: note_on channel=5 note=75 velocity=0 time=0
EXTRACT: note_on channel=5 note=78 velocity=0 time=0
EXTRACT: note_on channel=10 note=70 velocity=0 time=0
EXTRACT: note_on channel=10 note=75 velocity=0 time=0
EXTRACT: note_on channel=10 note=78 velocity=0 time=0
EXTRACT: note_on channel=1 note=70 velocity=110 time=0.08928566666666667
EXTRACT: note_on channel=1 note=75 velocity=110 time=0
EXTRACT: note_on channel=1 note=78 velocity=110 time=0
EXTRACT: note_on channel=3 note=70 velocity=110 time=0
EXTRACT: note_on channel=3 note=75 velocity=110 time=0
EXTRACT: note_on channel=3 note=78 velocity=110 time=0
EXTRACT: note_on channel=9 note=41 velocity=127 time=0
EXTRACT: note_on channel=9 note=47 velocity=127 time=0
EXTRACT: note_on channel=5 note=70 velocity=90 time=0
EXTRACT: note_on channel=5 note=75 velocity=90 time=0
EXTRACT: note_on channel=5 note=78 velocity=90 time=0
EXTRACT: note_on channel=10 note=70 velocity=90 time=0
EXTRACT: note_on channel=10 note=75 velocity=90 time=0
EXTRACT: note_on channel=10 note=78 velocity=90 time=0
EXTRACT: note_on channel=9 note=70 velocity=0 time=0.127232075
EXTRACT: note_on channel=9 note=41 velocity=0 time=0
EXTRACT: note_on channel=9 note=47 velocity=0 time=0
EXTRACT: note_on channel=9 note=70 velocity=75 time=0.006696425000000001
EXTRACT: note_on channel=9 note=41 velocity=127 time=0
EXTRACT: note_on channel=9 note=47 velocity=127 time=0
EXTRACT: note_on channel=9 note=70 velocity=0 time=0.127232075
EXTRACT: note_on channel=9 note=41 velocity=0 time=0
EXTRACT: note_on channel=9 note=47 velocity=0 time=0
EXTRACT: note_on channel=9 note=41 velocity=0 time=0
EXTRACT: note_on channel=9 note=47 velocity=0 time=0
EXTRACT: note_on channel=9 note=70 velocity=75 time=0.006696425000000001
EXTRACT: note_on channel=9 note=41 velocity=127 time=0
EXTRACT: note_on channel=9 note=47 velocity=127 time=0
EXTRACT: note_on channel=1 note=70 velocity=0 time=0.17857133333333333
EXTRACT: note_on channel=1 note=75 velocity=0 time=0
EXTRACT: note_on channel=1 note=78 velocity=0 time=0
EXTRACT: note_on channel=3 note=70 velocity=0 time=0
EXTRACT: note_on channel=3 note=75 velocity=0 time=0
EXTRACT: note_on channel=3 note=78 velocity=0 time=0
EXTRACT: note_on channel=5 note=70 velocity=0 time=0
EXTRACT: note_on channel=5 note=75 velocity=0 time=0
EXTRACT: note_on channel=5 note=78 velocity=0 time=0
EXTRACT: note_on channel=10 note=70 velocity=0 time=0
EXTRACT: note_on channel=10 note=75 velocity=0 time=0
EXTRACT: note_on channel=10 note=78 velocity=0 time=0
EXTRACT: note_on channel=9 note=70 velocity=0 time=0.08258924166666667
EXTRACT: note_on channel=9 note=41 velocity=0 time=0
EXTRACT: note_on channel=9 note=47 velocity=0 time=0
EXTRACT: note_on channel=1 note=68 velocity=110 time=0.006696425000000001
EXTRACT: note_on channel=1 note=73 velocity=110 time=0
EXTRACT: note_on channel=1 note=77 velocity=110 time=0
EXTRACT: note_on channel=3 note=68 velocity=110 time=0
EXTRACT: note_on channel=3 note=73 velocity=110 time=0
EXTRACT: note_on channel=3 note=77 velocity=110 time=0
EXTRACT: note_on channel=9 note=70 velocity=75 time=0
EXTRACT: note_on channel=9 note=41 velocity=127 time=0
EXTRACT: note_on channel=9 note=47 velocity=127 time=0
EXTRACT: note_on channel=9 note=41 velocity=127 time=0
EXTRACT: note_on channel=9 note=47 velocity=127 time=0
EXTRACT: note_on channel=5 note=68 velocity=90 time=0
EXTRACT: note_on channel=5 note=73 velocity=90 time=0
EXTRACT: note_on channel=5 note=77 velocity=90 time=0
EXTRACT: note_on channel=10 note=68 velocity=90 time=0
EXTRACT: note_on channel=10 note=73 velocity=90 time=0
EXTRACT: note_on channel=10 note=77 velocity=90 time=0
EXTRACT: note_on channel=9 note=70 velocity=0 time=0.261160575
EXTRACT: note_on channel=9 note=41 velocity=0 time=0
EXTRACT: note_on channel=9 note=47 velocity=0 time=0
EXTRACT: note_on channel=9 note=41 velocity=0 time=0
EXTRACT: note_on channel=9 note=47 velocity=0 time=0
EXTRACT: note_on channel=9 note=70 velocity=75 time=0.006696425000000001
EXTRACT: note_on channel=9 note=41 velocity=127 time=0
EXTRACT: note_on channel=9 note=47 velocity=127 time=0
EXTRACT: note_on channel=9 note=70 velocity=0 time=0.127232075
EXTRACT: note_on channel=9 note=41 velocity=0 time=0
EXTRACT: note_on channel=9 note=47 velocity=0 time=0
EXTRACT: note_on channel=9 note=70 velocity=75 time=0.006696425000000001
EXTRACT: note_on channel=9 note=41 velocity=127 time=0
EXTRACT: note_on channel=9 note=47 velocity=127 time=0
EXTRACT: note_on channel=9 note=41 velocity=127 time=0.1339285
EXTRACT: note_on channel=9 note=47 velocity=127 time=0
EXTRACT: note_on channel=9 note=70 velocity=0 time=0.127232075
EXTRACT: note_on channel=9 note=41 velocity=0 time=0
EXTRACT: note_on channel=9 note=47 velocity=0 time=0
EXTRACT: note_on channel=9 note=70 velocity=75 time=0.006696425000000001
EXTRACT: note_on channel=9 note=41 velocity=127 time=0
EXTRACT: note_on channel=9 note=47 velocity=127 time=0
EXTRACT: note_on channel=9 note=70 velocity=0 time=0.127232075
EXTRACT: note_on channel=9 note=41 velocity=0 time=0
EXTRACT: note_on channel=9 note=47 velocity=0 time=0
EXTRACT: note_on channel=9 note=41 velocity=0 time=0
EXTRACT: note_on channel=9 note=47 velocity=0 time=0
EXTRACT: note_on channel=9 note=70 velocity=75 time=0.006696425000000001
EXTRACT: note_on channel=9 note=41 velocity=127 time=0
EXTRACT: note_on channel=9 note=47 velocity=127 time=0
EXTRACT: note_on channel=1 note=68 velocity=0 time=0.1339285
EXTRACT: note_on channel=1 note=73 velocity=0 time=0
EXTRACT: note_on channel=1 note=77 velocity=0 time=0
EXTRACT: note_on channel=3 note=68 velocity=0 time=0
EXTRACT: note_on channel=3 note=73 velocity=0 time=0
EXTRACT: note_on channel=3 note=77 velocity=0 time=0
EXTRACT: note_on channel=5 note=68 velocity=0 time=0
EXTRACT: note_on channel=5 note=73 velocity=0 time=0
EXTRACT: note_on channel=5 note=77 velocity=0 time=0
EXTRACT: note_on channel=10 note=68 velocity=0 time=0
EXTRACT: note_on channel=10 note=73 velocity=0 time=0
EXTRACT: note_on channel=10 note=77 velocity=0 time=0
EXTRACT: note_on channel=9 note=70 velocity=0 time=0.127232075
EXTRACT: note_on channel=9 note=41 velocity=0 time=0
EXTRACT: note_on channel=9 note=47 velocity=0 time=0
EXTRACT: note_on channel=1 note=73 velocity=110 time=0.006696425000000001
EXTRACT: note_on channel=1 note=77 velocity=110 time=0
EXTRACT: note_on channel=1 note=80 velocity=110 time=0
EXTRACT: note_on channel=3 note=73 velocity=110 time=0
EXTRACT: note_on channel=3 note=77 velocity=110 time=0
EXTRACT: note_on channel=3 note=80 velocity=110 time=0
EXTRACT: note_on channel=9 note=70 velocity=75 time=0
EXTRACT: note_on channel=9 note=41 velocity=127 time=0
EXTRACT: note_on channel=9 note=47 velocity=127 time=0
EXTRACT: note_on channel=4 note=78 velocity=110 time=0
EXTRACT: note_on channel=9 note=41 velocity=127 time=0
EXTRACT: note_on channel=9 note=47 velocity=127 time=0
EXTRACT: note_on channel=5 note=73 velocity=90 time=0
EXTRACT: note_on channel=5 note=77 velocity=90 time=0
EXTRACT: note_on channel=5 note=80 velocity=90 time=0
EXTRACT: note_on channel=10 note=73 velocity=90 time=0
EXTRACT: note_on channel=10 note=77 velocity=90 time=0
EXTRACT: note_on channel=10 note=80 velocity=90 time=0
EXTRACT: note_on channel=9 note=70 velocity=0 time=0.261160575
EXTRACT: note_on channel=9 note=41 velocity=0 time=0
EXTRACT: note_on channel=9 note=47 velocity=0 time=0
EXTRACT: note_on channel=9 note=41 velocity=0 time=0
EXTRACT: note_on channel=9 note=47 velocity=0 time=0
EXTRACT: note_on channel=9 note=70 velocity=75 time=0.006696425000000001
EXTRACT: note_on channel=9 note=41 velocity=127 time=0
EXTRACT: note_on channel=9 note=47 velocity=127 time=0
EXTRACT: note_on channel=9 note=70 velocity=0 time=0.127232075
EXTRACT: note_on channel=9 note=41 velocity=0 time=0
EXTRACT: note_on channel=9 note=47 velocity=0 time=0
EXTRACT: note_on channel=9 note=70 velocity=75 time=0.006696425000000001
EXTRACT: note_on channel=9 note=41 velocity=127 time=0
EXTRACT: note_on channel=9 note=47 velocity=127 time=0
EXTRACT: note_on channel=9 note=41 velocity=127 time=0.1339285
EXTRACT: note_on channel=9 note=47 velocity=127 time=0
EXTRACT: note_on channel=9 note=70 velocity=0 time=0.127232075
EXTRACT: note_on channel=9 note=41 velocity=0 time=0
EXTRACT: note_on channel=9 note=47 velocity=0 time=0
EXTRACT: note_on channel=9 note=70 velocity=75 time=0.006696425000000001
EXTRACT: note_on channel=9 note=41 velocity=127 time=0
EXTRACT: note_on channel=9 note=47 velocity=127 time=0
EXTRACT: note_on channel=1 note=73 velocity=0 time=0.04464283333333333
EXTRACT: note_on channel=1 note=77 velocity=0 time=0
EXTRACT: note_on channel=1 note=80 velocity=0 time=0
EXTRACT: note_on channel=3 note=73 velocity=0 time=0
EXTRACT: note_on channel=3 note=77 velocity=0 time=0
EXTRACT: note_on channel=3 note=80 velocity=0 time=0
EXTRACT: note_on channel=5 note=73 velocity=0 time=0
EXTRACT: note_on channel=5 note=77 velocity=0 time=0
EXTRACT: note_on channel=5 note=80 velocity=0 time=0
EXTRACT: note_on channel=10 note=73 velocity=0 time=0
EXTRACT: note_on channel=10 note=77 velocity=0 time=0
EXTRACT: note_on channel=10 note=80 velocity=0 time=0
EXTRACT: note_on channel=9 note=70 velocity=0 time=0.08258924166666667
EXTRACT: note_on channel=9 note=41 velocity=0 time=0
EXTRACT: note_on channel=9 note=47 velocity=0 time=0
EXTRACT: note_on channel=9 note=41 velocity=0 time=0
EXTRACT: note_on channel=9 note=47 velocity=0 time=0
EXTRACT: note_on channel=0 note=61 velocity=110 time=0.006696425000000001
EXTRACT: note_on channel=1 note=61 velocity=110 time=0
EXTRACT: note_on channel=9 note=70 velocity=75 time=0
EXTRACT: note_on channel=9 note=41 velocity=127 time=0
EXTRACT: note_on channel=9 note=47 velocity=127 time=0
EXTRACT: note_on channel=5 note=61 velocity=90 time=0
EXTRACT: note_on channel=10 note=61 velocity=90 time=0
EXTRACT: note_on channel=0 note=61 velocity=0 time=0.261160575
EXTRACT: note_on channel=1 note=61 velocity=0 time=0
EXTRACT: note_on channel=9 note=70 velocity=0 time=0
EXTRACT: note_on channel=9 note=41 velocity=0 time=0
EXTRACT: note_on channel=9 note=47 velocity=0 time=0
EXTRACT: note_on channel=5 note=61 velocity=0 time=0
EXTRACT: note_on channel=10 note=61 velocity=0 time=0
EXTRACT: note_on channel=0 note=70 velocity=110 time=0.006696425000000001
EXTRACT: note_on channel=1 note=61 velocity=110 time=0
EXTRACT: note_on channel=1 note=66 velocity=110 time=0
EXTRACT: note_on channel=1 note=70 velocity=110 time=0
EXTRACT: note_on channel=2 note=42 velocity=110 time=0
EXTRACT: note_on channel=9 note=70 velocity=75 time=0
EXTRACT: note_on channel=9 note=41 velocity=10 time=0
EXTRACT: note_on channel=9 note=47 velocity=10 time=0
EXTRACT: note_on channel=9 note=41 velocity=14 time=0
EXTRACT: note_on channel=9 note=47 velocity=14 time=0
EXTRACT: note_on channel=5 note=61 velocity=90 time=0
EXTRACT: note_on channel=5 note=66 velocity=90 time=0
EXTRACT: note_on channel=5 note=70 velocity=90 time=0
EXTRACT: note_on channel=10 note=61 velocity=90 time=0
EXTRACT: note_on channel=10 note=66 velocity=90 time=0
EXTRACT: note_on channel=10 note=70 velocity=90 time=0
EXTRACT: note_on channel=6 note=42 velocity=90 time=0
EXTRACT: note_on channel=0 note=70 velocity=0 time=0.261160575
EXTRACT: note_on channel=1 note=61 velocity=0 time=0
EXTRACT: note_on channel=1 note=66 velocity=0 time=0
EXTRACT: note_on channel=1 note=70 velocity=0 time=0
EXTRACT: note_on channel=9 note=70 velocity=0 time=0
EXTRACT: note_on channel=9 note=41 velocity=0 time=0
EXTRACT: note_on channel=9 note=47 velocity=0 time=0
EXTRACT: note_on channel=4 note=78 velocity=0 time=0
EXTRACT: note_on channel=9 note=41 velocity=0 time=0
EXTRACT: note_on channel=9 note=47 velocity=0 time=0
EXTRACT: note_on channel=5 note=61 velocity=0 time=0
EXTRACT: note_on channel=5 note=66 velocity=0 time=0
EXTRACT: note_on channel=5 note=70 velocity=0 time=0
EXTRACT: note_on channel=10 note=61 velocity=0 time=0
EXTRACT: note_on channel=10 note=66 velocity=0 time=0
EXTRACT: note_on channel=10 note=70 velocity=0 time=0
EXTRACT: note_on channel=0 note=70 velocity=110 time=0.006696425000000001
EXTRACT: note_on channel=1 note=70 velocity=110 time=0
EXTRACT: note_on channel=9 note=70 velocity=75 time=0
EXTRACT: note_on channel=9 note=41 velocity=10 time=0
EXTRACT: note_on channel=9 note=47 velocity=10 time=0
EXTRACT: note_on channel=5 note=70 velocity=90 time=0
EXTRACT: note_on channel=10 note=70 velocity=90 time=0
EXTRACT: note_on channel=9 note=70 velocity=0 time=0.127232075
EXTRACT: note_on channel=9 note=41 velocity=0 time=0
EXTRACT: note_on channel=9 note=47 velocity=0 time=0
EXTRACT: note_on channel=9 note=70 velocity=75 time=0.006696425000000001
EXTRACT: note_on channel=9 note=41 velocity=10 time=0
EXTRACT: note_on channel=9 note=47 velocity=10 time=0
EXTRACT: note_on channel=0 note=70 velocity=0 time=0.127232075
EXTRACT: note_on channel=1 note=70 velocity=0 time=0
EXTRACT: note_on channel=5 note=70 velocity=0 time=0
EXTRACT: note_on channel=10 note=70 velocity=0 time=0
EXTRACT: note_on channel=0 note=70 velocity=110 time=0.006696425000000001
EXTRACT: note_on channel=1 note=70 velocity=110 time=0
EXTRACT: note_on channel=9 note=41 velocity=14 time=0
EXTRACT: note_on channel=9 note=47 velocity=14 time=0
EXTRACT: note_on channel=5 note=70 velocity=90 time=0
EXTRACT: note_on channel=10 note=70 velocity=90 time=0
EXTRACT: note_on channel=9 note=70 velocity=0 time=0.127232075
EXTRACT: note_on channel=9 note=41 velocity=0 time=0
EXTRACT: note_on channel=9 note=47 velocity=0 time=0
EXTRACT: note_on channel=9 note=70 velocity=75 time=0.006696425000000001
EXTRACT: note_on channel=9 note=41 velocity=10 time=0
EXTRACT: note_on channel=9 note=47 velocity=10 time=0
EXTRACT: note_on channel=0 note=70 velocity=0 time=0.127232075
EXTRACT: note_on channel=1 note=70 velocity=0 time=0
EXTRACT: note_on channel=9 note=70 velocity=0 time=0
EXTRACT: note_on channel=9 note=41 velocity=0 time=0
EXTRACT: note_on channel=9 note=47 velocity=0 time=0
EXTRACT: note_on channel=9 note=41 velocity=0 time=0
EXTRACT: note_on channel=9 note=47 velocity=0 time=0
EXTRACT: note_on channel=5 note=70 velocity=0 time=0
EXTRACT: note_on channel=10 note=70 velocity=0 time=0
EXTRACT: note_on channel=0 note=70 velocity=110 time=0.006696425000000001
EXTRACT: note_on channel=1 note=70 velocity=110 time=0
EXTRACT: note_on channel=9 note=70 velocity=75 time=0
EXTRACT: note_on channel=9 note=41 velocity=10 time=0
EXTRACT: note_on channel=9 note=47 velocity=10 time=0
EXTRACT: note_on channel=5 note=70 velocity=90 time=0
EXTRACT: note_on channel=10 note=70 velocity=90 time=0
EXTRACT: note_on channel=2 note=42 velocity=0 time=0.1339285
EXTRACT: note_on channel=6 note=42 velocity=0 time=0
EXTRACT: note_on channel=0 note=70 velocity=0 time=0.127232075
EXTRACT: note_on channel=1 note=70 velocity=0 time=0
EXTRACT: note_on channel=9 note=70 velocity=0 time=0
EXTRACT: note_on channel=9 note=41 velocity=0 time=0
EXTRACT: note_on channel=9 note=47 velocity=0 time=0
EXTRACT: note_on channel=5 note=70 velocity=0 time=0
EXTRACT: note_on channel=10 note=70 velocity=0 time=0
EXTRACT: note_on channel=0 note=71 velocity=110 time=0.006696425000000001
EXTRACT: note_on channel=1 note=61 velocity=110 time=0
EXTRACT: note_on channel=1 note=66 velocity=110 time=0
EXTRACT: note_on channel=1 note=71 velocity=110 time=0
EXTRACT: note_on channel=2 note=42 velocity=110 time=0
EXTRACT: note_on channel=9 note=70 velocity=75 time=0
EXTRACT: note_on channel=9 note=41 velocity=10 time=0
EXTRACT: note_on channel=9 note=47 velocity=10 time=0
EXTRACT: note_on channel=9 note=41 velocity=14 time=0
EXTRACT: note_on channel=9 note=47 velocity=14 time=0
EXTRACT: note_on channel=5 note=61 velocity=90 time=0
EXTRACT: note_on channel=5 note=66 velocity=90 time=0
EXTRACT: note_on channel=5 note=71 velocity=90 time=0
EXTRACT: note_on channel=10 note=61 velocity=90 time=0
EXTRACT: note_on channel=10 note=66 velocity=90 time=0
EXTRACT: note_on channel=10 note=71 velocity=90 time=0
EXTRACT: note_on channel=6 note=42 velocity=90 time=0
EXTRACT: note_on channel=0 note=71 velocity=0 time=0.127232075
EXTRACT: note_on channel=1 note=61 velocity=0 time=0
EXTRACT: note_on channel=1 note=66 velocity=0 time=0
EXTRACT: note_on channel=1 note=71 velocity=0 time=0
EXTRACT: note_on channel=5 note=61 velocity=0 time=0
EXTRACT: note_on channel=5 note=66 velocity=0 time=0
EXTRACT: note_on channel=5 note=71 velocity=0 time=0
EXTRACT: note_on channel=10 note=61 velocity=0 time=0
EXTRACT: note_on channel=10 note=66 velocity=0 time=0
EXTRACT: note_on channel=10 note=71 velocity=0 time=0
EXTRACT: note_on channel=0 note=71 velocity=110 time=0.006696425000000001
EXTRACT: note_on channel=1 note=71 velocity=110 time=0
EXTRACT: note_on channel=5 note=71 velocity=90 time=0
EXTRACT: note_on channel=10 note=71 velocity=90 time=0
EXTRACT: note_on channel=9 note=70 velocity=0 time=0.127232075
EXTRACT: note_on channel=9 note=41 velocity=0 time=0
EXTRACT: note_on channel=9 note=47 velocity=0 time=0
EXTRACT: note_on channel=9 note=41 velocity=0 time=0
EXTRACT: note_on channel=9 note=47 velocity=0 time=0
EXTRACT: note_on channel=9 note=70 velocity=75 time=0.006696425000000001
EXTRACT: note_on channel=9 note=41 velocity=10 time=0
EXTRACT: note_on channel=9 note=47 velocity=10 time=0
EXTRACT: note_on channel=0 note=71 velocity=0 time=0.127232075
EXTRACT: note_on channel=1 note=71 velocity=0 time=0
EXTRACT: note_on channel=9 note=70 velocity=0 time=0
EXTRACT: note_on channel=9 note=41 velocity=0 time=0
EXTRACT: note_on channel=9 note=47 velocity=0 time=0
EXTRACT: note_on channel=5 note=71 velocity=0 time=0
EXTRACT: note_on channel=10 note=71 velocity=0 time=0
EXTRACT: note_on channel=0 note=71 velocity=110 time=0.006696425000000001
EXTRACT: note_on channel=1 note=71 velocity=110 time=0
EXTRACT: note_on channel=9 note=70 velocity=75 time=0
EXTRACT: note_on channel=9 note=41 velocity=10 time=0
EXTRACT: note_on channel=9 note=47 velocity=10 time=0
EXTRACT: note_on channel=5 note=71 velocity=90 time=0
EXTRACT: note_on channel=10 note=71 velocity=90 time=0
EXTRACT: note_on channel=9 note=41 velocity=14 time=0.1339285
EXTRACT: note_on channel=9 note=47 velocity=14 time=0
EXTRACT: note_on channel=9 note=70 velocity=0 time=0.127232075
EXTRACT: note_on channel=9 note=41 velocity=0 time=0
EXTRACT: note_on channel=9 note=47 velocity=0 time=0
EXTRACT: note_on channel=9 note=70 velocity=75 time=0.006696425000000001
EXTRACT: note_on channel=9 note=41 velocity=10 time=0
EXTRACT: note_on channel=9 note=47 velocity=10 time=0
EXTRACT: note_on channel=0 note=71 velocity=0 time=0.127232075
EXTRACT: note_on channel=1 note=71 velocity=0 time=0
EXTRACT: note_on channel=9 note=70 velocity=0 time=0
EXTRACT: note_on channel=9 note=41 velocity=0 time=0
EXTRACT: note_on channel=9 note=47 velocity=0 time=0
EXTRACT: note_on channel=9 note=41 velocity=0 time=0
EXTRACT: note_on channel=9 note=47 velocity=0 time=0
EXTRACT: note_on channel=5 note=71 velocity=0 time=0
EXTRACT: note_on channel=10 note=71 velocity=0 time=0
EXTRACT: note_on channel=0 note=70 velocity=110 time=0.006696425000000001
EXTRACT: note_on channel=1 note=70 velocity=110 time=0
EXTRACT: note_on channel=9 note=70 velocity=75 time=0
EXTRACT: note_on channel=9 note=41 velocity=10 time=0
EXTRACT: note_on channel=9 note=47 velocity=10 time=0
EXTRACT: note_on channel=5 note=70 velocity=90 time=0
EXTRACT: note_on channel=10 note=70 velocity=90 time=0
EXTRACT: note_on channel=2 note=42 velocity=0 time=0.1339285
EXTRACT: note_on channel=6 note=42 velocity=0 time=0
EXTRACT: note_on channel=0 note=70 velocity=0 time=0.127232075
EXTRACT: note_on channel=1 note=70 velocity=0 time=0
EXTRACT: note_on channel=9 note=70 velocity=0 time=0
EXTRACT: note_on channel=9 note=41 velocity=0 time=0
EXTRACT: note_on channel=9 note=47 velocity=0 time=0
EXTRACT: note_on channel=5 note=70 velocity=0 time=0
EXTRACT: note_on channel=10 note=70 velocity=0 time=0
EXTRACT: note_on channel=0 note=70 velocity=110 time=0.006696425000000001
EXTRACT: note_on channel=1 note=59 velocity=110 time=0
EXTRACT: note_on channel=1 note=63 velocity=110 time=0
EXTRACT: note_on channel=1 note=70 velocity=110 time=0
EXTRACT: note_on channel=2 note=44 velocity=110 time=0
EXTRACT: note_on channel=9 note=70 velocity=75 time=0
EXTRACT: note_on channel=9 note=41 velocity=10 time=0
EXTRACT: note_on channel=9 note=47 velocity=10 time=0
EXTRACT: note_on channel=9 note=41 velocity=14 time=0
EXTRACT: note_on channel=9 note=47 velocity=14 time=0
EXTRACT: note_on channel=5 note=59 velocity=90 time=0
EXTRACT: note_on channel=5 note=63 velocity=90 time=0
EXTRACT: note_on channel=5 note=70 velocity=90 time=0
EXTRACT: note_on channel=10 note=59 velocity=90 time=0
EXTRACT: note_on channel=10 note=63 velocity=90 time=0
EXTRACT: note_on channel=10 note=70 velocity=90 time=0
EXTRACT: note_on channel=6 note=44 velocity=90 time=0
EXTRACT: note_on channel=0 note=70 velocity=0 time=0.127232075
EXTRACT: note_on channel=1 note=59 velocity=0 time=0
EXTRACT: note_on channel=1 note=63 velocity=0 time=0
EXTRACT: note_on channel=1 note=70 velocity=0 time=0
EXTRACT: note_on channel=5 note=59 velocity=0 time=0
EXTRACT: note_on channel=5 note=63 velocity=0 time=0
EXTRACT: note_on channel=5 note=70 velocity=0 time=0
EXTRACT: note_on channel=10 note=59 velocity=0 time=0
EXTRACT: note_on channel=10 note=63 velocity=0 time=0
EXTRACT: note_on channel=10 note=70 velocity=0 time=0
EXTRACT: note_on channel=0 note=68 velocity=110 time=0.006696425000000001
EXTRACT: note_on channel=1 note=68 velocity=110 time=0
EXTRACT: note_on channel=5 note=68 velocity=90 time=0
EXTRACT: note_on channel=10 note=68 velocity=90 time=0
EXTRACT: note_on channel=9 note=70 velocity=0 time=0.127232075
EXTRACT: note_on channel=9 note=41 velocity=0 time=0
EXTRACT: note_on channel=9 note=47 velocity=0 time=0
EXTRACT: note_on channel=9 note=41 velocity=0 time=0
EXTRACT: note_on channel=9 note=47 velocity=0 time=0
EXTRACT: note_on channel=9 note=70 velocity=75 time=0.006696425000000001
EXTRACT: note_on channel=9 note=41 velocity=10 time=0
EXTRACT: note_on channel=9 note=47 velocity=10 time=0
EXTRACT: note_on channel=0 note=68 velocity=0 time=0.127232075
EXTRACT: note_on channel=1 note=68 velocity=0 time=0
EXTRACT: note_on channel=9 note=70 velocity=0 time=0
EXTRACT: note_on channel=9 note=41 velocity=0 time=0
EXTRACT: note_on channel=9 note=47 velocity=0 time=0
EXTRACT: note_on channel=5 note=68 velocity=0 time=0
EXTRACT: note_on channel=10 note=68 velocity=0 time=0
EXTRACT: note_on channel=0 note=68 velocity=110 time=0.006696425000000001
EXTRACT: note_on channel=1 note=68 velocity=110 time=0
EXTRACT: note_on channel=9 note=70 velocity=75 time=0
EXTRACT: note_on channel=9 note=41 velocity=10 time=0
EXTRACT: note_on channel=9 note=47 velocity=10 time=0
EXTRACT: note_on channel=5 note=68 velocity=90 time=0
EXTRACT: note_on channel=10 note=68 velocity=90 time=0
EXTRACT: note_on channel=9 note=41 velocity=14 time=0.1339285
EXTRACT: note_on channel=9 note=47 velocity=14 time=0
EXTRACT: note_on channel=9 note=70 velocity=0 time=0.127232075
EXTRACT: note_on channel=9 note=41 velocity=0 time=0
EXTRACT: note_on channel=9 note=47 velocity=0 time=0
EXTRACT: note_on channel=9 note=70 velocity=75 time=0.006696425000000001
EXTRACT: note_on channel=9 note=41 velocity=10 time=0
EXTRACT: note_on channel=9 note=47 velocity=10 time=0
EXTRACT: note_on channel=0 note=68 velocity=0 time=0.127232075
EXTRACT: note_on channel=1 note=68 velocity=0 time=0
EXTRACT: note_on channel=9 note=70 velocity=0 time=0
EXTRACT: note_on channel=9 note=41 velocity=0 time=0
EXTRACT: note_on channel=9 note=47 velocity=0 time=0
EXTRACT: note_on channel=9 note=41 velocity=0 time=0
EXTRACT: note_on channel=9 note=47 velocity=0 time=0
EXTRACT: note_on channel=5 note=68 velocity=0 time=0
EXTRACT: note_on channel=10 note=68 velocity=0 time=0
EXTRACT: note_on channel=0 note=66 velocity=110 time=0.006696425000000001
EXTRACT: note_on channel=1 note=66 velocity=110 time=0
EXTRACT: note_on channel=9 note=70 velocity=75 time=0
EXTRACT: note_on channel=9 note=41 velocity=10 time=0
EXTRACT: note_on channel=9 note=47 velocity=10 time=0
EXTRACT: note_on channel=5 note=66 velocity=90 time=0
EXTRACT: note_on channel=10 note=66 velocity=90 time=0
EXTRACT: note_on channel=2 note=44 velocity=0 time=0.1339285
EXTRACT: note_on channel=6 note=44 velocity=0 time=0
EXTRACT: note_on channel=0 note=66 velocity=0 time=0.127232075
EXTRACT: note_on channel=1 note=66 velocity=0 time=0
EXTRACT: note_on channel=9 note=70 velocity=0 time=0
EXTRACT: note_on channel=9 note=41 velocity=0 time=0
EXTRACT: note_on channel=9 note=47 velocity=0 time=0
EXTRACT: note_on channel=5 note=66 velocity=0 time=0
EXTRACT: note_on channel=10 note=66 velocity=0 time=0
EXTRACT: note_on channel=0 note=68 velocity=110 time=0.006696425000000001
EXTRACT: note_on channel=1 note=61 velocity=110 time=0
EXTRACT: note_on channel=1 note=66 velocity=110 time=0
EXTRACT: note_on channel=1 note=68 velocity=110 time=0
EXTRACT: note_on channel=2 note=49 velocity=110 time=0
EXTRACT: note_on channel=9 note=70 velocity=75 time=0
EXTRACT: note_on channel=9 note=41 velocity=10 time=0
EXTRACT: note_on channel=9 note=47 velocity=10 time=0
EXTRACT: note_on channel=9 note=41 velocity=14 time=0
EXTRACT: note_on channel=9 note=47 velocity=14 time=0
EXTRACT: note_on channel=5 note=61 velocity=90 time=0
EXTRACT: note_on channel=5 note=66 velocity=90 time=0
EXTRACT: note_on channel=5 note=68 velocity=90 time=0
EXTRACT: note_on channel=10 note=61 velocity=90 time=0
EXTRACT: note_on channel=10 note=66 velocity=90 time=0
EXTRACT: note_on channel=10 note=68 velocity=90 time=0
EXTRACT: note_on channel=6 note=49 velocity=90 time=0
EXTRACT: note_on channel=9 note=70 velocity=0 time=0.261160575
EXTRACT: note_on channel=9 note=41 velocity=0 time=0
EXTRACT: note_on channel=9 note=47 velocity=0 time=0
EXTRACT: note_on channel=9 note=41 velocity=0 time=0
EXTRACT: note_on channel=9 note=47 velocity=0 time=0
EXTRACT: note_on channel=9 note=70 velocity=75 time=0.006696425000000001
EXTRACT: note_on channel=9 note=41 velocity=10 time=0
EXTRACT: note_on channel=9 note=47 velocity=10 time=0
EXTRACT: note_on channel=9 note=70 velocity=0 time=0.127232075
EXTRACT: note_on channel=9 note=41 velocity=0 time=0
EXTRACT: note_on channel=9 note=47 velocity=0 time=0
EXTRACT: note_on channel=9 note=70 velocity=75 time=0.006696425000000001
EXTRACT: note_on channel=9 note=41 velocity=10 time=0
EXTRACT: note_on channel=9 note=47 velocity=10 time=0
EXTRACT: note_on channel=0 note=68 velocity=0 time=0.04464283333333333
EXTRACT: note_on channel=9 note=41 velocity=14 time=0.08928566666666667
EXTRACT: note_on channel=9 note=47 velocity=14 time=0
EXTRACT: note_on channel=9 note=70 velocity=0 time=0.127232075
EXTRACT: note_on channel=9 note=41 velocity=0 time=0
EXTRACT: note_on channel=9 note=47 velocity=0 time=0
EXTRACT: note_on channel=9 note=70 velocity=75 time=0.006696425000000001
EXTRACT: note_on channel=9 note=41 velocity=10 time=0
EXTRACT: note_on channel=9 note=47 velocity=10 time=0
EXTRACT: note_on channel=9 note=70 velocity=0 time=0.127232075
EXTRACT: note_on channel=9 note=41 velocity=0 time=0
EXTRACT: note_on channel=9 note=47 velocity=0 time=0
EXTRACT: note_on channel=9 note=41 velocity=0 time=0
EXTRACT: note_on channel=9 note=47 velocity=0 time=0
EXTRACT: note_on channel=9 note=70 velocity=75 time=0.006696425000000001
EXTRACT: note_on channel=9 note=41 velocity=10 time=0
EXTRACT: note_on channel=9 note=47 velocity=10 time=0
EXTRACT: note_on channel=1 note=61 velocity=0 time=0.1339285
EXTRACT: note_on channel=1 note=66 velocity=0 time=0
EXTRACT: note_on channel=1 note=68 velocity=0 time=0
EXTRACT: note_on channel=2 note=49 velocity=0 time=0
EXTRACT: note_on channel=5 note=61 velocity=0 time=0
EXTRACT: note_on channel=5 note=66 velocity=0 time=0
EXTRACT: note_on channel=5 note=68 velocity=0 time=0
EXTRACT: note_on channel=10 note=61 velocity=0 time=0
EXTRACT: note_on channel=10 note=66 velocity=0 time=0
EXTRACT: note_on channel=10 note=68 velocity=0 time=0
EXTRACT: note_on channel=6 note=49 velocity=0 time=0
EXTRACT: note_on channel=9 note=70 velocity=0 time=0.127232075
EXTRACT: note_on channel=9 note=41 velocity=0 time=0
EXTRACT: note_on channel=9 note=47 velocity=0 time=0
EXTRACT: note_on channel=0 note=70 velocity=110 time=0.006696425000000001
EXTRACT: note_on channel=1 note=61 velocity=110 time=0
EXTRACT: note_on channel=1 note=66 velocity=110 time=0
EXTRACT: note_on channel=1 note=70 velocity=110 time=0
EXTRACT: note_on channel=2 note=42 velocity=110 time=0
EXTRACT: note_on channel=9 note=70 velocity=75 time=0
EXTRACT: note_on channel=9 note=41 velocity=10 time=0
EXTRACT: note_on channel=9 note=47 velocity=10 time=0
EXTRACT: note_on channel=9 note=41 velocity=14 time=0
EXTRACT: note_on channel=9 note=47 velocity=14 time=0
EXTRACT: note_on channel=5 note=61 velocity=90 time=0
EXTRACT: note_on channel=5 note=66 velocity=90 time=0
EXTRACT: note_on channel=5 note=70 velocity=90 time=0
EXTRACT: note_on channel=10 note=61 velocity=90 time=0
EXTRACT: note_on channel=10 note=66 velocity=90 time=0
EXTRACT: note_on channel=10 note=70 velocity=90 time=0
EXTRACT: note_on channel=6 note=42 velocity=90 time=0
EXTRACT: note_on channel=0 note=70 velocity=0 time=0.261160575
EXTRACT: note_on channel=1 note=61 velocity=0 time=0
EXTRACT: note_on channel=1 note=66 velocity=0 time=0
EXTRACT: note_on channel=1 note=70 velocity=0 time=0
EXTRACT: note_on channel=9 note=70 velocity=0 time=0
EXTRACT: note_on channel=9 note=41 velocity=0 time=0
EXTRACT: note_on channel=9 note=47 velocity=0 time=0
EXTRACT: note_on channel=9 note=41 velocity=0 time=0
EXTRACT: note_on channel=9 note=47 velocity=0 time=0
EXTRACT: note_on channel=5 note=61 velocity=0 time=0
EXTRACT: note_on channel=5 note=66 velocity=0 time=0
EXTRACT: note_on channel=5 note=70 velocity=0 time=0
EXTRACT: note_on channel=10 note=61 velocity=0 time=0
EXTRACT: note_on channel=10 note=66 velocity=0 time=0
EXTRACT: note_on channel=10 note=70 velocity=0 time=0
EXTRACT: note_on channel=0 note=70 velocity=110 time=0.006696425000000001
EXTRACT: note_on channel=1 note=70 velocity=110 time=0
EXTRACT: note_on channel=9 note=70 velocity=75 time=0
EXTRACT: note_on channel=9 note=41 velocity=10 time=0
EXTRACT: note_on channel=9 note=47 velocity=10 time=0
EXTRACT: note_on channel=5 note=70 velocity=90 time=0
EXTRACT: note_on channel=10 note=70 velocity=90 time=0
EXTRACT: note_on channel=9 note=70 velocity=0 time=0.127232075
EXTRACT: note_on channel=9 note=41 velocity=0 time=0
EXTRACT: note_on channel=9 note=47 velocity=0 time=0
EXTRACT: note_on channel=9 note=70 velocity=75 time=0.006696425000000001
EXTRACT: note_on channel=9 note=41 velocity=10 time=0
EXTRACT: note_on channel=9 note=47 velocity=10 time=0
EXTRACT: note_on channel=0 note=70 velocity=0 time=0.127232075
EXTRACT: note_on channel=1 note=70 velocity=0 time=0
EXTRACT: note_on channel=5 note=70 velocity=0 time=0
EXTRACT: note_on channel=10 note=70 velocity=0 time=0
EXTRACT: note_on channel=0 note=70 velocity=110 time=0.006696425000000001
EXTRACT: note_on channel=1 note=70 velocity=110 time=0
EXTRACT: note_on channel=9 note=41 velocity=14 time=0
EXTRACT: note_on channel=9 note=47 velocity=14 time=0
EXTRACT: note_on channel=5 note=70 velocity=90 time=0
EXTRACT: note_on channel=10 note=70 velocity=90 time=0
EXTRACT: note_on channel=9 note=70 velocity=0 time=0.127232075
EXTRACT: note_on channel=9 note=41 velocity=0 time=0
EXTRACT: note_on channel=9 note=47 velocity=0 time=0
EXTRACT: note_on channel=9 note=70 velocity=75 time=0.006696425000000001
EXTRACT: note_on channel=9 note=41 velocity=10 time=0
EXTRACT: note_on channel=9 note=47 velocity=10 time=0
EXTRACT: note_on channel=0 note=70 velocity=0 time=0.127232075
EXTRACT: note_on channel=1 note=70 velocity=0 time=0
EXTRACT: note_on channel=9 note=70 velocity=0 time=0
EXTRACT: note_on channel=9 note=41 velocity=0 time=0
EXTRACT: note_on channel=9 note=47 velocity=0 time=0
EXTRACT: note_on channel=9 note=41 velocity=0 time=0
EXTRACT: note_on channel=9 note=47 velocity=0 time=0
EXTRACT: note_on channel=5 note=70 velocity=0 time=0
EXTRACT: note_on channel=10 note=70 velocity=0 time=0
EXTRACT: note_on channel=0 note=70 velocity=110 time=0.006696425000000001
EXTRACT: note_on channel=1 note=70 velocity=110 time=0
EXTRACT: note_on channel=9 note=70 velocity=75 time=0
EXTRACT: note_on channel=9 note=41 velocity=10 time=0
EXTRACT: note_on channel=9 note=47 velocity=10 time=0
EXTRACT: note_on channel=5 note=70 velocity=90 time=0
EXTRACT: note_on channel=10 note=70 velocity=90 time=0
EXTRACT: note_on channel=0 note=70 velocity=0 time=0.127232075
EXTRACT: note_on channel=1 note=70 velocity=0 time=0
EXTRACT: note_on channel=5 note=70 velocity=0 time=0
EXTRACT: note_on channel=10 note=70 velocity=0 time=0
EXTRACT: note_on channel=0 note=71 velocity=110 time=0.006696425000000001
EXTRACT: note_on channel=1 note=71 velocity=110 time=0
EXTRACT: note_on channel=2 note=42 velocity=0 time=0
EXTRACT: note_on channel=5 note=71 velocity=90 time=0
EXTRACT: note_on channel=10 note=71 velocity=90 time=0
EXTRACT: note_on channel=6 note=42 velocity=0 time=0
EXTRACT: note_on channel=9 note=70 velocity=0 time=0.127232075
EXTRACT: note_on channel=9 note=41 velocity=0 time=0
EXTRACT: note_on channel=9 note=47 velocity=0 time=0
EXTRACT: note_on channel=2 note=42 velocity=110 time=0.006696425000000001
EXTRACT: note_on channel=9 note=70 velocity=75 time=0
EXTRACT: note_on channel=9 note=41 velocity=10 time=0
EXTRACT: note_on channel=9 note=47 velocity=10 time=0
EXTRACT: note_on channel=9 note=41 velocity=14 time=0
EXTRACT: note_on channel=9 note=47 velocity=14 time=0
EXTRACT: note_on channel=6 note=42 velocity=90 time=0
EXTRACT: note_on channel=0 note=71 velocity=0 time=0.261160575
EXTRACT: note_on channel=1 note=71 velocity=0 time=0
EXTRACT: note_on channel=9 note=70 velocity=0 time=0
EXTRACT: note_on channel=9 note=41 velocity=0 time=0
EXTRACT: note_on channel=9 note=47 velocity=0 time=0
EXTRACT: note_on channel=9 note=41 velocity=0 time=0
EXTRACT: note_on channel=9 note=47 velocity=0 time=0
EXTRACT: note_on channel=5 note=71 velocity=0 time=0
EXTRACT: note_on channel=10 note=71 velocity=0 time=0
EXTRACT: note_on channel=0 note=71 velocity=110 time=0.006696425000000001
EXTRACT: note_on channel=1 note=71 velocity=110 time=0
EXTRACT: note_on channel=9 note=70 velocity=75 time=0
EXTRACT: note_on channel=9 note=41 velocity=10 time=0
EXTRACT: note_on channel=9 note=47 velocity=10 time=0
EXTRACT: note_on channel=5 note=71 velocity=90 time=0
EXTRACT: note_on channel=10 note=71 velocity=90 time=0
EXTRACT: note_on channel=9 note=70 velocity=0 time=0.127232075
EXTRACT: note_on channel=9 note=41 velocity=0 time=0
EXTRACT: note_on channel=9 note=47 velocity=0 time=0
EXTRACT: note_on channel=9 note=70 velocity=75 time=0.006696425000000001
EXTRACT: note_on channel=9 note=41 velocity=10 time=0
EXTRACT: note_on channel=9 note=47 velocity=10 time=0
EXTRACT: note_on channel=0 note=71 velocity=0 time=0.127232075
EXTRACT: note_on channel=1 note=71 velocity=0 time=0
EXTRACT: note_on channel=5 note=71 velocity=0 time=0
EXTRACT: note_on channel=10 note=71 velocity=0 time=0
EXTRACT: note_on channel=0 note=71 velocity=110 time=0.006696425000000001
EXTRACT: note_on channel=1 note=71 velocity=110 time=0
EXTRACT: note_on channel=9 note=41 velocity=14 time=0
EXTRACT: note_on channel=9 note=47 velocity=14 time=0
EXTRACT: note_on channel=5 note=71 velocity=90 time=0
EXTRACT: note_on channel=10 note=71 velocity=90 time=0
EXTRACT: note_on channel=0 note=71 velocity=0 time=0.127232075
EXTRACT: note_on channel=1 note=71 velocity=0 time=0
EXTRACT: note_on channel=9 note=70 velocity=0 time=0
EXTRACT: note_on channel=9 note=41 velocity=0 time=0
EXTRACT: note_on channel=9 note=47 velocity=0 time=0
EXTRACT: note_on channel=5 note=71 velocity=0 time=0
EXTRACT: note_on channel=10 note=71 velocity=0 time=0
EXTRACT: note_on channel=0 note=70 velocity=110 time=0.006696425000000001
EXTRACT: note_on channel=1 note=70 velocity=110 time=0
EXTRACT: note_on channel=9 note=70 velocity=75 time=0
EXTRACT: note_on channel=9 note=41 velocity=10 time=0
EXTRACT: note_on channel=9 note=47 velocity=10 time=0
EXTRACT: note_on channel=5 note=70 velocity=90 time=0
EXTRACT: note_on channel=10 note=70 velocity=90 time=0
EXTRACT: note_on channel=9 note=70 velocity=0 time=0.127232075
EXTRACT: note_on channel=9 note=41 velocity=0 time=0
EXTRACT: note_on channel=9 note=47 velocity=0 time=0
EXTRACT: note_on channel=9 note=41 velocity=0 time=0
EXTRACT: note_on channel=9 note=47 velocity=0 time=0
EXTRACT: note_on channel=9 note=70 velocity=75 time=0.006696425000000001
EXTRACT: note_on channel=9 note=41 velocity=10 time=0
EXTRACT: note_on channel=9 note=47 velocity=10 time=0
EXTRACT: note_on channel=0 note=70 velocity=0 time=0.127232075
EXTRACT: note_on channel=1 note=70 velocity=0 time=0
EXTRACT: note_on channel=5 note=70 velocity=0 time=0
EXTRACT: note_on channel=10 note=70 velocity=0 time=0
EXTRACT: note_on channel=0 note=70 velocity=110 time=0.006696425000000001
EXTRACT: note_on channel=1 note=59 velocity=110 time=0
EXTRACT: note_on channel=1 note=63 velocity=110 time=0
EXTRACT: note_on channel=1 note=70 velocity=110 time=0
EXTRACT: note_on channel=2 note=42 velocity=0 time=0
EXTRACT: note_on channel=5 note=59 velocity=90 time=0
EXTRACT: note_on channel=5 note=63 velocity=90 time=0
EXTRACT: note_on channel=5 note=70 velocity=90 time=0
EXTRACT: note_on channel=10 note=59 velocity=90 time=0
EXTRACT: note_on channel=10 note=63 velocity=90 time=0
EXTRACT: note_on channel=10 note=70 velocity=90 time=0
EXTRACT: note_on channel=6 note=42 velocity=0 time=0
EXTRACT: note_on channel=9 note=70 velocity=0 time=0.127232075
EXTRACT: note_on channel=9 note=41 velocity=0 time=0
EXTRACT: note_on channel=9 note=47 velocity=0 time=0
EXTRACT: note_on channel=2 note=44 velocity=110 time=0.006696425000000001
EXTRACT: note_on channel=9 note=70 velocity=75 time=0
EXTRACT: note_on channel=9 note=41 velocity=10 time=0
EXTRACT: note_on channel=9 note=47 velocity=10 time=0
EXTRACT: note_on channel=9 note=41 velocity=14 time=0
EXTRACT: note_on channel=9 note=47 velocity=14 time=0
EXTRACT: note_on channel=6 note=44 velocity=90 time=0
EXTRACT: note_on channel=0 note=70 velocity=0 time=0.127232075
EXTRACT: note_on channel=1 note=59 velocity=0 time=0
EXTRACT: note_on channel=1 note=63 velocity=0 time=0
EXTRACT: note_on channel=1 note=70 velocity=0 time=0
EXTRACT: note_on channel=5 note=59 velocity=0 time=0
EXTRACT: note_on channel=5 note=63 velocity=0 time=0
EXTRACT: note_on channel=5 note=70 velocity=0 time=0
EXTRACT: note_on channel=10 note=59 velocity=0 time=0
EXTRACT: note_on channel=10 note=63 velocity=0 time=0
EXTRACT: note_on channel=10 note=70 velocity=0 time=0
EXTRACT: note_on channel=0 note=68 velocity=110 time=0.006696425000000001
EXTRACT: note_on channel=1 note=68 velocity=110 time=0
EXTRACT: note_on channel=5 note=68 velocity=90 time=0
EXTRACT: note_on channel=10 note=68 velocity=90 time=0
EXTRACT: note_on channel=9 note=70 velocity=0 time=0.127232075
EXTRACT: note_on channel=9 note=41 velocity=0 time=0
EXTRACT: note_on channel=9 note=47 velocity=0 time=0
EXTRACT: note_on channel=9 note=41 velocity=0 time=0
EXTRACT: note_on channel=9 note=47 velocity=0 time=0
EXTRACT: note_on channel=9 note=70 velocity=75 time=0.006696425000000001
EXTRACT: note_on channel=9 note=41 velocity=10 time=0
EXTRACT: note_on channel=9 note=47 velocity=10 time=0
EXTRACT: note_on channel=0 note=68 velocity=0 time=0.127232075
EXTRACT: note_on channel=1 note=68 velocity=0 time=0
EXTRACT: note_on channel=9 note=70 velocity=0 time=0
EXTRACT: note_on channel=9 note=41 velocity=0 time=0
EXTRACT: note_on channel=9 note=47 velocity=0 time=0
EXTRACT: note_on channel=5 note=68 velocity=0 time=0
EXTRACT: note_on channel=10 note=68 velocity=0 time=0
EXTRACT: note_on channel=0 note=68 velocity=110 time=0.006696425000000001
EXTRACT: note_on channel=1 note=68 velocity=110 time=0
EXTRACT: note_on channel=9 note=70 velocity=75 time=0
EXTRACT: note_on channel=9 note=41 velocity=10 time=0
EXTRACT: note_on channel=9 note=47 velocity=10 time=0
EXTRACT: note_on channel=5 note=68 velocity=90 time=0
EXTRACT: note_on channel=10 note=68 velocity=90 time=0
EXTRACT: note_on channel=9 note=41 velocity=14 time=0.1339285
EXTRACT: note_on channel=9 note=47 velocity=14 time=0
EXTRACT: note_on channel=0 note=68 velocity=0 time=0.127232075
EXTRACT: note_on channel=1 note=68 velocity=0 time=0
EXTRACT: note_on channel=9 note=70 velocity=0 time=0
EXTRACT: note_on channel=9 note=41 velocity=0 time=0
EXTRACT: note_on channel=9 note=47 velocity=0 time=0
EXTRACT: note_on channel=5 note=68 velocity=0 time=0
EXTRACT: note_on channel=10 note=68 velocity=0 time=0
EXTRACT: note_on channel=0 note=70 velocity=110 time=0.006696425000000001
EXTRACT: note_on channel=1 note=70 velocity=110 time=0
EXTRACT: note_on channel=9 note=70 velocity=75 time=0
EXTRACT: note_on channel=9 note=41 velocity=10 time=0
EXTRACT: note_on channel=9 note=47 velocity=10 time=0
EXTRACT: note_on channel=5 note=70 velocity=90 time=0
EXTRACT: note_on channel=10 note=70 velocity=90 time=0
EXTRACT: note_on channel=9 note=70 velocity=0 time=0.127232075
EXTRACT: note_on channel=9 note=41 velocity=0 time=0
EXTRACT: note_on channel=9 note=47 velocity=0 time=0
EXTRACT: note_on channel=9 note=41 velocity=0 time=0
EXTRACT: note_on channel=9 note=47 velocity=0 time=0
EXTRACT: note_on channel=9 note=70 velocity=75 time=0.006696425000000001
EXTRACT: note_on channel=9 note=41 velocity=10 time=0
EXTRACT: note_on channel=9 note=47 velocity=10 time=0
EXTRACT: note_on channel=0 note=70 velocity=0 time=0.127232075
EXTRACT: note_on channel=1 note=70 velocity=0 time=0
EXTRACT: note_on channel=5 note=70 velocity=0 time=0
EXTRACT: note_on channel=10 note=70 velocity=0 time=0
EXTRACT: note_on channel=0 note=68 velocity=110 time=0.006696425000000001
EXTRACT: note_on channel=1 note=61 velocity=110 time=0
EXTRACT: note_on channel=1 note=66 velocity=110 time=0
EXTRACT: note_on channel=1 note=68 velocity=110 time=0
EXTRACT: note_on channel=2 note=44 velocity=0 time=0
EXTRACT: note_on channel=5 note=61 velocity=90 time=0
EXTRACT: note_on channel=5 note=66 velocity=90 time=0
EXTRACT: note_on channel=5 note=68 velocity=90 time=0
EXTRACT: note_on channel=10 note=61 velocity=90 time=0
EXTRACT: note_on channel=10 note=66 velocity=90 time=0
EXTRACT: note_on channel=10 note=68 velocity=90 time=0
EXTRACT: note_on channel=6 note=44 velocity=0 time=0
EXTRACT: note_on channel=9 note=70 velocity=0 time=0.127232075
EXTRACT: note_on channel=9 note=41 velocity=0 time=0
EXTRACT: note_on channel=9 note=47 velocity=0 time=0
EXTRACT: note_on channel=2 note=49 velocity=110 time=0.006696425000000001
EXTRACT: note_on channel=9 note=70 velocity=75 time=0
EXTRACT: note_on channel=9 note=41 velocity=10 time=0
EXTRACT: note_on channel=9 note=47 velocity=10 time=0
EXTRACT: note_on channel=9 note=41 velocity=14 time=0
EXTRACT: note_on channel=9 note=47 velocity=14 time=0
EXTRACT: note_on channel=6 note=49 velocity=90 time=0
EXTRACT: note_on channel=9 note=70 velocity=0 time=0.261160575
EXTRACT: note_on channel=9 note=41 velocity=0 time=0
EXTRACT: note_on channel=9 note=47 velocity=0 time=0
EXTRACT: note_on channel=9 note=41 velocity=0 time=0
EXTRACT: note_on channel=9 note=47 velocity=0 time=0
EXTRACT: note_on channel=9 note=70 velocity=75 time=0.006696425000000001
EXTRACT: note_on channel=9 note=41 velocity=10 time=0
EXTRACT: note_on channel=9 note=47 velocity=10 time=0
EXTRACT: note_on channel=9 note=70 velocity=0 time=0.127232075
EXTRACT: note_on channel=9 note=41 velocity=0 time=0
EXTRACT: note_on channel=9 note=47 velocity=0 time=0
EXTRACT: note_on channel=9 note=70 velocity=75 time=0.006696425000000001
EXTRACT: note_on channel=9 note=41 velocity=10 time=0
EXTRACT: note_on channel=9 note=47 velocity=10 time=0
EXTRACT: note_on channel=0 note=68 velocity=0 time=0.04464283333333333
EXTRACT: note_on channel=9 note=41 velocity=14 time=0.08928566666666667
EXTRACT: note_on channel=9 note=47 velocity=14 time=0
EXTRACT: note_on channel=9 note=70 velocity=0 time=0.127232075
EXTRACT: note_on channel=9 note=41 velocity=0 time=0
EXTRACT: note_on channel=9 note=47 velocity=0 time=0
EXTRACT: note_on channel=9 note=70 velocity=75 time=0.006696425000000001
EXTRACT: note_on channel=9 note=41 velocity=10 time=0
EXTRACT: note_on channel=9 note=47 velocity=10 time=0
EXTRACT: note_on channel=9 note=70 velocity=0 time=0.127232075
EXTRACT: note_on channel=9 note=41 velocity=0 time=0
EXTRACT: note_on channel=9 note=47 velocity=0 time=0
EXTRACT: note_on channel=9 note=41 velocity=0 time=0
EXTRACT: note_on channel=9 note=47 velocity=0 time=0
EXTRACT: note_on channel=9 note=70 velocity=75 time=0.006696425000000001
EXTRACT: note_on channel=9 note=41 velocity=10 time=0
EXTRACT: note_on channel=9 note=47 velocity=10 time=0
EXTRACT: note_on channel=1 note=61 velocity=0 time=0.1339285
EXTRACT: note_on channel=1 note=66 velocity=0 time=0
EXTRACT: note_on channel=1 note=68 velocity=0 time=0
EXTRACT: note_on channel=2 note=49 velocity=0 time=0
EXTRACT: note_on channel=5 note=61 velocity=0 time=0
EXTRACT: note_on channel=5 note=66 velocity=0 time=0
EXTRACT: note_on channel=5 note=68 velocity=0 time=0
EXTRACT: note_on channel=10 note=61 velocity=0 time=0
EXTRACT: note_on channel=10 note=66 velocity=0 time=0
EXTRACT: note_on channel=10 note=68 velocity=0 time=0
EXTRACT: note_on channel=6 note=49 velocity=0 time=0
EXTRACT: note_on channel=9 note=70 velocity=0 time=0.127232075
EXTRACT: note_on channel=9 note=41 velocity=0 time=0
EXTRACT: note_on channel=9 note=47 velocity=0 time=0
EXTRACT: note_on channel=0 note=70 velocity=110 time=0.006696425000000001
EXTRACT: note_on channel=1 note=61 velocity=110 time=0
EXTRACT: note_on channel=1 note=66 velocity=110 time=0
EXTRACT: note_on channel=1 note=70 velocity=110 time=0
EXTRACT: note_on channel=2 note=42 velocity=110 time=0
EXTRACT: note_on channel=9 note=70 velocity=75 time=0
EXTRACT: note_on channel=9 note=41 velocity=10 time=0
EXTRACT: note_on channel=9 note=47 velocity=10 time=0
EXTRACT: note_on channel=9 note=41 velocity=14 time=0
EXTRACT: note_on channel=9 note=47 velocity=14 time=0
EXTRACT: note_on channel=5 note=61 velocity=90 time=0
EXTRACT: note_on channel=5 note=66 velocity=90 time=0
EXTRACT: note_on channel=5 note=70 velocity=90 time=0
EXTRACT: note_on channel=10 note=61 velocity=90 time=0
EXTRACT: note_on channel=10 note=66 velocity=90 time=0
EXTRACT: note_on channel=10 note=70 velocity=90 time=0
EXTRACT: note_on channel=6 note=42 velocity=90 time=0
EXTRACT: note_on channel=0 note=70 velocity=0 time=0.127232075
EXTRACT: note_on channel=1 note=61 velocity=0 time=0
EXTRACT: note_on channel=1 note=66 velocity=0 time=0
EXTRACT: note_on channel=1 note=70 velocity=0 time=0
EXTRACT: note_on channel=5 note=61 velocity=0 time=0
EXTRACT: note_on channel=5 note=66 velocity=0 time=0
EXTRACT: note_on channel=5 note=70 velocity=0 time=0
EXTRACT: note_on channel=10 note=61 velocity=0 time=0
EXTRACT: note_on channel=10 note=66 velocity=0 time=0
EXTRACT: note_on channel=10 note=70 velocity=0 time=0
EXTRACT: note_on channel=0 note=70 velocity=110 time=0.006696425000000001
EXTRACT: note_on channel=1 note=70 velocity=110 time=0
EXTRACT: note_on channel=5 note=70 velocity=90 time=0
EXTRACT: note_on channel=10 note=70 velocity=90 time=0
EXTRACT: note_on channel=9 note=70 velocity=0 time=0.127232075
EXTRACT: note_on channel=9 note=41 velocity=0 time=0
EXTRACT: note_on channel=9 note=47 velocity=0 time=0
EXTRACT: note_on channel=9 note=41 velocity=0 time=0
EXTRACT: note_on channel=9 note=47 velocity=0 time=0
EXTRACT: note_on channel=9 note=70 velocity=75 time=0.006696425000000001
EXTRACT: note_on channel=9 note=41 velocity=10 time=0
EXTRACT: note_on channel=9 note=47 velocity=10 time=0
EXTRACT: note_on channel=0 note=70 velocity=0 time=0.127232075
EXTRACT: note_on channel=1 note=70 velocity=0 time=0
EXTRACT: note_on channel=9 note=70 velocity=0 time=0
EXTRACT: note_on channel=9 note=41 velocity=0 time=0
EXTRACT: note_on channel=9 note=47 velocity=0 time=0
EXTRACT: note_on channel=5 note=70 velocity=0 time=0
EXTRACT: note_on channel=10 note=70 velocity=0 time=0
EXTRACT: note_on channel=0 note=70 velocity=110 time=0.006696425000000001
EXTRACT: note_on channel=1 note=70 velocity=110 time=0
EXTRACT: note_on channel=9 note=70 velocity=75 time=0
EXTRACT: note_on channel=9 note=41 velocity=10 time=0
EXTRACT: note_on channel=9 note=47 velocity=10 time=0
EXTRACT: note_on channel=5 note=70 velocity=90 time=0
EXTRACT: note_on channel=10 note=70 velocity=90 time=0
EXTRACT: note_on channel=9 note=41 velocity=14 time=0.1339285
EXTRACT: note_on channel=9 note=47 velocity=14 time=0
EXTRACT: note_on channel=0 note=70 velocity=0 time=0.127232075
EXTRACT: note_on channel=1 note=70 velocity=0 time=0
EXTRACT: note_on channel=9 note=70 velocity=0 time=0
EXTRACT: note_on channel=9 note=41 velocity=0 time=0
EXTRACT: note_on channel=9 note=47 velocity=0 time=0
EXTRACT: note_on channel=5 note=70 velocity=0 time=0
EXTRACT: note_on channel=10 note=70 velocity=0 time=0
EXTRACT: note_on channel=0 note=70 velocity=110 time=0.006696425000000001
EXTRACT: note_on channel=1 note=70 velocity=110 time=0
EXTRACT: note_on channel=9 note=70 velocity=75 time=0
EXTRACT: note_on channel=9 note=41 velocity=10 time=0
EXTRACT: note_on channel=9 note=47 velocity=10 time=0
EXTRACT: note_on channel=5 note=70 velocity=90 time=0
EXTRACT: note_on channel=10 note=70 velocity=90 time=0
EXTRACT: note_on channel=9 note=70 velocity=0 time=0.127232075
EXTRACT: note_on channel=9 note=41 velocity=0 time=0
EXTRACT: note_on channel=9 note=47 velocity=0 time=0
EXTRACT: note_on channel=9 note=41 velocity=0 time=0
EXTRACT: note_on channel=9 note=47 velocity=0 time=0
EXTRACT: note_on channel=9 note=70 velocity=75 time=0.006696425000000001
EXTRACT: note_on channel=9 note=41 velocity=10 time=0
EXTRACT: note_on channel=9 note=47 velocity=10 time=0
EXTRACT: note_on channel=0 note=70 velocity=0 time=0.127232075
EXTRACT: note_on channel=1 note=70 velocity=0 time=0
EXTRACT: note_on channel=5 note=70 velocity=0 time=0
EXTRACT: note_on channel=10 note=70 velocity=0 time=0
EXTRACT: note_on channel=0 note=71 velocity=110 time=0.006696425000000001
EXTRACT: note_on channel=1 note=71 velocity=110 time=0
EXTRACT: note_on channel=2 note=42 velocity=0 time=0
EXTRACT: note_on channel=5 note=71 velocity=90 time=0
EXTRACT: note_on channel=10 note=71 velocity=90 time=0
EXTRACT: note_on channel=6 note=42 velocity=0 time=0
EXTRACT: note_on channel=9 note=70 velocity=0 time=0.127232075
EXTRACT: note_on channel=9 note=41 velocity=0 time=0
EXTRACT: note_on channel=9 note=47 velocity=0 time=0
EXTRACT: note_on channel=2 note=42 velocity=110 time=0.006696425000000001
EXTRACT: note_on channel=9 note=70 velocity=75 time=0
EXTRACT: note_on channel=9 note=41 velocity=10 time=0
EXTRACT: note_on channel=9 note=47 velocity=10 time=0
EXTRACT: note_on channel=9 note=41 velocity=14 time=0
EXTRACT: note_on channel=9 note=47 velocity=14 time=0
EXTRACT: note_on channel=6 note=42 velocity=90 time=0
EXTRACT: note_on channel=0 note=71 velocity=0 time=0.261160575
EXTRACT: note_on channel=1 note=71 velocity=0 time=0
EXTRACT: note_on channel=9 note=70 velocity=0 time=0
EXTRACT: note_on channel=9 note=41 velocity=0 time=0
EXTRACT: note_on channel=9 note=47 velocity=0 time=0
EXTRACT: note_on channel=9 note=41 velocity=0 time=0
EXTRACT: note_on channel=9 note=47 velocity=0 time=0
EXTRACT: note_on channel=5 note=71 velocity=0 time=0
EXTRACT: note_on channel=10 note=71 velocity=0 time=0
EXTRACT: note_on channel=0 note=71 velocity=110 time=0.006696425000000001
EXTRACT: note_on channel=1 note=71 velocity=110 time=0
EXTRACT: note_on channel=9 note=70 velocity=75 time=0
EXTRACT: note_on channel=9 note=41 velocity=10 time=0
EXTRACT: note_on channel=9 note=47 velocity=10 time=0
EXTRACT: note_on channel=5 note=71 velocity=90 time=0
EXTRACT: note_on channel=10 note=71 velocity=90 time=0
EXTRACT: note_on channel=9 note=70 velocity=0 time=0.127232075
EXTRACT: note_on channel=9 note=41 velocity=0 time=0
EXTRACT: note_on channel=9 note=47 velocity=0 time=0
EXTRACT: note_on channel=9 note=70 velocity=75 time=0.006696425000000001
EXTRACT: note_on channel=9 note=41 velocity=10 time=0
EXTRACT: note_on channel=9 note=47 velocity=10 time=0
EXTRACT: note_on channel=0 note=71 velocity=0 time=0.127232075
EXTRACT: note_on channel=1 note=71 velocity=0 time=0
EXTRACT: note_on channel=5 note=71 velocity=0 time=0
EXTRACT: note_on channel=10 note=71 velocity=0 time=0
EXTRACT: note_on channel=0 note=71 velocity=110 time=0.006696425000000001
EXTRACT: note_on channel=1 note=71 velocity=110 time=0
EXTRACT: note_on channel=9 note=41 velocity=14 time=0
EXTRACT: note_on channel=9 note=47 velocity=14 time=0
EXTRACT: note_on channel=5 note=71 velocity=90 time=0
EXTRACT: note_on channel=10 note=71 velocity=90 time=0
EXTRACT: note_on channel=9 note=70 velocity=0 time=0.127232075
EXTRACT: note_on channel=9 note=41 velocity=0 time=0
EXTRACT: note_on channel=9 note=47 velocity=0 time=0
EXTRACT: note_on channel=9 note=70 velocity=75 time=0.006696425000000001
EXTRACT: note_on channel=9 note=41 velocity=10 time=0
EXTRACT: note_on channel=9 note=47 velocity=10 time=0
EXTRACT: note_on channel=0 note=71 velocity=0 time=0.127232075
EXTRACT: note_on channel=1 note=71 velocity=0 time=0
EXTRACT: note_on channel=9 note=70 velocity=0 time=0
EXTRACT: note_on channel=9 note=41 velocity=0 time=0
EXTRACT: note_on channel=9 note=47 velocity=0 time=0
EXTRACT: note_on channel=9 note=41 velocity=0 time=0
EXTRACT: note_on channel=9 note=47 velocity=0 time=0
EXTRACT: note_on channel=5 note=71 velocity=0 time=0
EXTRACT: note_on channel=10 note=71 velocity=0 time=0
EXTRACT: note_on channel=0 note=71 velocity=110 time=0.006696425000000001
EXTRACT: note_on channel=1 note=71 velocity=110 time=0
EXTRACT: note_on channel=9 note=70 velocity=75 time=0
EXTRACT: note_on channel=9 note=41 velocity=10 time=0
EXTRACT: note_on channel=9 note=47 velocity=10 time=0
EXTRACT: note_on channel=5 note=71 velocity=90 time=0
EXTRACT: note_on channel=10 note=71 velocity=90 time=0
EXTRACT: note_on channel=0 note=71 velocity=0 time=0.127232075
EXTRACT: note_on channel=1 note=71 velocity=0 time=0
EXTRACT: note_on channel=5 note=71 velocity=0 time=0
EXTRACT: note_on channel=10 note=71 velocity=0 time=0
EXTRACT: note_on channel=0 note=73 velocity=110 time=0.006696425000000001
EXTRACT: note_on channel=1 note=63 velocity=110 time=0
EXTRACT: note_on channel=1 note=66 velocity=110 time=0
EXTRACT: note_on channel=1 note=73 velocity=110 time=0
EXTRACT: note_on channel=2 note=42 velocity=0 time=0
EXTRACT: note_on channel=5 note=63 velocity=90 time=0
EXTRACT: note_on channel=5 note=66 velocity=90 time=0
EXTRACT: note_on channel=5 note=73 velocity=90 time=0
EXTRACT: note_on channel=10 note=63 velocity=90 time=0
EXTRACT: note_on channel=10 note=66 velocity=90 time=0
EXTRACT: note_on channel=10 note=73 velocity=90 time=0
EXTRACT: note_on channel=6 note=42 velocity=0 time=0
EXTRACT: note_on channel=9 note=70 velocity=0 time=0.127232075
EXTRACT: note_on channel=9 note=41 velocity=0 time=0
EXTRACT: note_on channel=9 note=47 velocity=0 time=0
EXTRACT: note_on channel=2 note=44 velocity=110 time=0.006696425000000001
EXTRACT: note_on channel=9 note=70 velocity=75 time=0
EXTRACT: note_on channel=9 note=41 velocity=10 time=0
EXTRACT: note_on channel=9 note=47 velocity=10 time=0
EXTRACT: note_on channel=9 note=41 velocity=14 time=0
EXTRACT: note_on channel=9 note=47 velocity=14 time=0
EXTRACT: note_on channel=6 note=44 velocity=90 time=0
EXTRACT: note_on channel=0 note=73 velocity=0 time=0.261160575
EXTRACT: note_on channel=1 note=63 velocity=0 time=0
EXTRACT: note_on channel=1 note=66 velocity=0 time=0
EXTRACT: note_on channel=1 note=73 velocity=0 time=0
EXTRACT: note_on channel=9 note=70 velocity=0 time=0
EXTRACT: note_on channel=9 note=41 velocity=0 time=0
EXTRACT: note_on channel=9 note=47 velocity=0 time=0
EXTRACT: note_on channel=9 note=41 velocity=0 time=0
EXTRACT: note_on channel=9 note=47 velocity=0 time=0
EXTRACT: note_on channel=5 note=63 velocity=0 time=0
EXTRACT: note_on channel=5 note=66 velocity=0 time=0
EXTRACT: note_on channel=5 note=73 velocity=0 time=0
EXTRACT: note_on channel=10 note=63 velocity=0 time=0
EXTRACT: note_on channel=10 note=66 velocity=0 time=0
EXTRACT: note_on channel=10 note=73 velocity=0 time=0
EXTRACT: note_on channel=0 note=73 velocity=110 time=0.006696425000000001
EXTRACT: note_on channel=1 note=73 velocity=110 time=0
EXTRACT: note_on channel=9 note=70 velocity=75 time=0
EXTRACT: note_on channel=9 note=41 velocity=10 time=0
EXTRACT: note_on channel=9 note=47 velocity=10 time=0
EXTRACT: note_on channel=5 note=73 velocity=90 time=0
EXTRACT: note_on channel=10 note=73 velocity=90 time=0
EXTRACT: note_on channel=9 note=70 velocity=0 time=0.127232075
EXTRACT: note_on channel=9 note=41 velocity=0 time=0
EXTRACT: note_on channel=9 note=47 velocity=0 time=0
EXTRACT: note_on channel=9 note=70 velocity=75 time=0.006696425000000001
EXTRACT: note_on channel=9 note=41 velocity=10 time=0
EXTRACT: note_on channel=9 note=47 velocity=10 time=0
EXTRACT: note_on channel=0 note=73 velocity=0 time=0.127232075
EXTRACT: note_on channel=1 note=73 velocity=0 time=0
EXTRACT: note_on channel=5 note=73 velocity=0 time=0
EXTRACT: note_on channel=10 note=73 velocity=0 time=0
EXTRACT: note_on channel=0 note=73 velocity=110 time=0.006696425000000001
EXTRACT: note_on channel=1 note=73 velocity=110 time=0
EXTRACT: note_on channel=9 note=41 velocity=14 time=0
EXTRACT: note_on channel=9 note=47 velocity=14 time=0
EXTRACT: note_on channel=5 note=73 velocity=90 time=0
EXTRACT: note_on channel=10 note=73 velocity=90 time=0
EXTRACT: note_on channel=0 note=73 velocity=0 time=0.127232075
EXTRACT: note_on channel=1 note=73 velocity=0 time=0
EXTRACT: note_on channel=9 note=70 velocity=0 time=0
EXTRACT: note_on channel=9 note=41 velocity=0 time=0
EXTRACT: note_on channel=9 note=47 velocity=0 time=0
EXTRACT: note_on channel=5 note=73 velocity=0 time=0
EXTRACT: note_on channel=10 note=73 velocity=0 time=0
EXTRACT: note_on channel=0 note=75 velocity=110 time=0.006696425000000001
EXTRACT: note_on channel=1 note=75 velocity=110 time=0
EXTRACT: note_on channel=9 note=70 velocity=75 time=0
EXTRACT: note_on channel=9 note=41 velocity=10 time=0
EXTRACT: note_on channel=9 note=47 velocity=10 time=0
EXTRACT: note_on channel=5 note=75 velocity=90 time=0
EXTRACT: note_on channel=10 note=75 velocity=90 time=0
EXTRACT: note_on channel=9 note=70 velocity=0 time=0.127232075
EXTRACT: note_on channel=9 note=41 velocity=0 time=0
EXTRACT: note_on channel=9 note=47 velocity=0 time=0
EXTRACT: note_on channel=9 note=41 velocity=0 time=0
EXTRACT: note_on channel=9 note=47 velocity=0 time=0
EXTRACT: note_on channel=9 note=70 velocity=75 time=0.006696425000000001
EXTRACT: note_on channel=9 note=41 velocity=10 time=0
EXTRACT: note_on channel=9 note=47 velocity=10 time=0
EXTRACT: note_on channel=2 note=44 velocity=0 time=0.1339285
EXTRACT: note_on channel=6 note=44 velocity=0 time=0
EXTRACT: note_on channel=0 note=75 velocity=0 time=0.127232075
EXTRACT: note_on channel=1 note=75 velocity=0 time=0
EXTRACT: note_on channel=9 note=70 velocity=0 time=0
EXTRACT: note_on channel=9 note=41 velocity=0 time=0
EXTRACT: note_on channel=9 note=47 velocity=0 time=0
EXTRACT: note_on channel=5 note=75 velocity=0 time=0
EXTRACT: note_on channel=10 note=75 velocity=0 time=0
EXTRACT: note_on channel=0 note=73 velocity=110 time=0.006696425000000001
EXTRACT: note_on channel=1 note=63 velocity=110 time=0
EXTRACT: note_on channel=1 note=66 velocity=110 time=0
EXTRACT: note_on channel=1 note=68 velocity=110 time=0
EXTRACT: note_on channel=1 note=73 velocity=110 time=0
EXTRACT: note_on channel=2 note=49 velocity=110 time=0
EXTRACT: note_on channel=9 note=70 velocity=75 time=0
EXTRACT: note_on channel=9 note=41 velocity=10 time=0
EXTRACT: note_on channel=9 note=47 velocity=10 time=0
EXTRACT: note_on channel=9 note=41 velocity=14 time=0
EXTRACT: note_on channel=9 note=47 velocity=14 time=0
EXTRACT: note_on channel=5 note=63 velocity=90 time=0
EXTRACT: note_on channel=5 note=66 velocity=90 time=0
EXTRACT: note_on channel=5 note=68 velocity=90 time=0
EXTRACT: note_on channel=5 note=73 velocity=90 time=0
EXTRACT: note_on channel=10 note=63 velocity=90 time=0
EXTRACT: note_on channel=10 note=66 velocity=90 time=0
EXTRACT: note_on channel=10 note=68 velocity=90 time=0
EXTRACT: note_on channel=10 note=73 velocity=90 time=0
EXTRACT: note_on channel=6 note=49 velocity=90 time=0
EXTRACT: note_on channel=9 note=70 velocity=0 time=0.261160575
EXTRACT: note_on channel=9 note=41 velocity=0 time=0
EXTRACT: note_on channel=9 note=47 velocity=0 time=0
EXTRACT: note_on channel=9 note=41 velocity=0 time=0
EXTRACT: note_on channel=9 note=47 velocity=0 time=0
EXTRACT: note_on channel=9 note=70 velocity=75 time=0.006696425000000001
EXTRACT: note_on channel=9 note=41 velocity=10 time=0
EXTRACT: note_on channel=9 note=47 velocity=10 time=0
EXTRACT: note_on channel=9 note=70 velocity=0 time=0.127232075
EXTRACT: note_on channel=9 note=41 velocity=0 time=0
EXTRACT: note_on channel=9 note=47 velocity=0 time=0
EXTRACT: note_on channel=9 note=70 velocity=75 time=0.006696425000000001
EXTRACT: note_on channel=9 note=41 velocity=10 time=0
EXTRACT: note_on channel=9 note=47 velocity=10 time=0
EXTRACT: note_on channel=0 note=73 velocity=0 time=0.04464283333333333
EXTRACT: note_on channel=9 note=41 velocity=14 time=0.08928566666666667
EXTRACT: note_on channel=9 note=47 velocity=14 time=0
EXTRACT: note_on channel=9 note=70 velocity=0 time=0.127232075
EXTRACT: note_on channel=9 note=41 velocity=0 time=0
EXTRACT: note_on channel=9 note=47 velocity=0 time=0
EXTRACT: note_on channel=9 note=70 velocity=75 time=0.006696425000000001
EXTRACT: note_on channel=9 note=41 velocity=10 time=0
EXTRACT: note_on channel=9 note=47 velocity=10 time=0
EXTRACT: note_on channel=9 note=70 velocity=0 time=0.127232075
EXTRACT: note_on channel=9 note=41 velocity=0 time=0
EXTRACT: note_on channel=9 note=47 velocity=0 time=0
EXTRACT: note_on channel=9 note=41 velocity=0 time=0
EXTRACT: note_on channel=9 note=47 velocity=0 time=0
EXTRACT: note_on channel=9 note=70 velocity=75 time=0.006696425000000001
EXTRACT: note_on channel=9 note=41 velocity=10 time=0
EXTRACT: note_on channel=9 note=47 velocity=10 time=0
EXTRACT: note_on channel=1 note=63 velocity=0 time=0.1339285
EXTRACT: note_on channel=1 note=66 velocity=0 time=0
EXTRACT: note_on channel=1 note=68 velocity=0 time=0
EXTRACT: note_on channel=1 note=73 velocity=0 time=0
EXTRACT: note_on channel=2 note=49 velocity=0 time=0
EXTRACT: note_on channel=5 note=63 velocity=0 time=0
EXTRACT: note_on channel=5 note=66 velocity=0 time=0
EXTRACT: note_on channel=5 note=68 velocity=0 time=0
EXTRACT: note_on channel=5 note=73 velocity=0 time=0
EXTRACT: note_on channel=10 note=63 velocity=0 time=0
EXTRACT: note_on channel=10 note=66 velocity=0 time=0
EXTRACT: note_on channel=10 note=68 velocity=0 time=0
EXTRACT: note_on channel=10 note=73 velocity=0 time=0
EXTRACT: note_on channel=6 note=49 velocity=0 time=0
EXTRACT: note_on channel=9 note=70 velocity=0 time=0.127232075
EXTRACT: note_on channel=9 note=41 velocity=0 time=0
EXTRACT: note_on channel=9 note=47 velocity=0 time=0
EXTRACT: note_on channel=0 note=70 velocity=110 time=0.006696425000000001
EXTRACT: note_on channel=1 note=61 velocity=110 time=0
EXTRACT: note_on channel=1 note=66 velocity=110 time=0
EXTRACT: note_on channel=1 note=70 velocity=110 time=0
EXTRACT: note_on channel=2 note=42 velocity=110 time=0
EXTRACT: note_on channel=9 note=70 velocity=75 time=0
EXTRACT: note_on channel=9 note=41 velocity=10 time=0
EXTRACT: note_on channel=9 note=47 velocity=10 time=0
EXTRACT: note_on channel=9 note=41 velocity=14 time=0
EXTRACT: note_on channel=9 note=47 velocity=14 time=0
EXTRACT: note_on channel=5 note=61 velocity=90 time=0
EXTRACT: note_on channel=5 note=66 velocity=90 time=0
EXTRACT: note_on channel=5 note=70 velocity=90 time=0
EXTRACT: note_on channel=10 note=61 velocity=90 time=0
EXTRACT: note_on channel=10 note=66 velocity=90 time=0
EXTRACT: note_on channel=10 note=70 velocity=90 time=0
EXTRACT: note_on channel=6 note=42 velocity=90 time=0
EXTRACT: note_on channel=0 note=70 velocity=0 time=0.261160575
EXTRACT: note_on channel=1 note=61 velocity=0 time=0
EXTRACT: note_on channel=1 note=66 velocity=0 time=0
EXTRACT: note_on channel=1 note=70 velocity=0 time=0
EXTRACT: note_on channel=9 note=70 velocity=0 time=0
EXTRACT: note_on channel=9 note=41 velocity=0 time=0
EXTRACT: note_on channel=9 note=47 velocity=0 time=0
EXTRACT: note_on channel=9 note=41 velocity=0 time=0
EXTRACT: note_on channel=9 note=47 velocity=0 time=0
EXTRACT: note_on channel=5 note=61 velocity=0 time=0
EXTRACT: note_on channel=5 note=66 velocity=0 time=0
EXTRACT: note_on channel=5 note=70 velocity=0 time=0
EXTRACT: note_on channel=10 note=61 velocity=0 time=0
EXTRACT: note_on channel=10 note=66 velocity=0 time=0
EXTRACT: note_on channel=10 note=70 velocity=0 time=0
EXTRACT: note_on channel=0 note=70 velocity=110 time=0.006696425000000001
EXTRACT: note_on channel=1 note=70 velocity=110 time=0
EXTRACT: note_on channel=9 note=70 velocity=75 time=0
EXTRACT: note_on channel=9 note=41 velocity=10 time=0
EXTRACT: note_on channel=9 note=47 velocity=10 time=0
EXTRACT: note_on channel=5 note=70 velocity=90 time=0
EXTRACT: note_on channel=10 note=70 velocity=90 time=0
EXTRACT: note_on channel=9 note=70 velocity=0 time=0.127232075
EXTRACT: note_on channel=9 note=41 velocity=0 time=0
EXTRACT: note_on channel=9 note=47 velocity=0 time=0
EXTRACT: note_on channel=9 note=70 velocity=75 time=0.006696425000000001
EXTRACT: note_on channel=9 note=41 velocity=10 time=0
EXTRACT: note_on channel=9 note=47 velocity=10 time=0
EXTRACT: note_on channel=0 note=70 velocity=0 time=0.127232075
EXTRACT: note_on channel=1 note=70 velocity=0 time=0
EXTRACT: note_on channel=5 note=70 velocity=0 time=0
EXTRACT: note_on channel=10 note=70 velocity=0 time=0
EXTRACT: note_on channel=0 note=70 velocity=110 time=0.006696425000000001
EXTRACT: note_on channel=1 note=70 velocity=110 time=0
EXTRACT: note_on channel=9 note=41 velocity=14 time=0
EXTRACT: note_on channel=9 note=47 velocity=14 time=0
EXTRACT: note_on channel=5 note=70 velocity=90 time=0
EXTRACT: note_on channel=10 note=70 velocity=90 time=0
EXTRACT: note_on channel=9 note=70 velocity=0 time=0.127232075
EXTRACT: note_on channel=9 note=41 velocity=0 time=0
EXTRACT: note_on channel=9 note=47 velocity=0 time=0
EXTRACT: note_on channel=9 note=70 velocity=75 time=0.006696425000000001
EXTRACT: note_on channel=9 note=41 velocity=10 time=0
EXTRACT: note_on channel=9 note=47 velocity=10 time=0
EXTRACT: note_on channel=0 note=70 velocity=0 time=0.127232075
EXTRACT: note_on channel=1 note=70 velocity=0 time=0
EXTRACT: note_on channel=9 note=70 velocity=0 time=0
EXTRACT: note_on channel=9 note=41 velocity=0 time=0
EXTRACT: note_on channel=9 note=47 velocity=0 time=0
EXTRACT: note_on channel=9 note=41 velocity=0 time=0
EXTRACT: note_on channel=9 note=47 velocity=0 time=0
EXTRACT: note_on channel=5 note=70 velocity=0 time=0
EXTRACT: note_on channel=10 note=70 velocity=0 time=0
EXTRACT: note_on channel=0 note=70 velocity=110 time=0.006696425000000001
EXTRACT: note_on channel=1 note=70 velocity=110 time=0
EXTRACT: note_on channel=9 note=70 velocity=75 time=0
EXTRACT: note_on channel=9 note=41 velocity=10 time=0
EXTRACT: note_on channel=9 note=47 velocity=10 time=0
EXTRACT: note_on channel=5 note=70 velocity=90 time=0
EXTRACT: note_on channel=10 note=70 velocity=90 time=0
EXTRACT: note_on channel=2 note=42 velocity=0 time=0.1339285
EXTRACT: note_on channel=6 note=42 velocity=0 time=0
EXTRACT: note_on channel=0 note=70 velocity=0 time=0.127232075
EXTRACT: note_on channel=1 note=70 velocity=0 time=0
EXTRACT: note_on channel=9 note=70 velocity=0 time=0
EXTRACT: note_on channel=9 note=41 velocity=0 time=0
EXTRACT: note_on channel=9 note=47 velocity=0 time=0
EXTRACT: note_on channel=5 note=70 velocity=0 time=0
EXTRACT: note_on channel=10 note=70 velocity=0 time=0
EXTRACT: note_on channel=0 note=71 velocity=110 time=0.006696425000000001
EXTRACT: note_on channel=1 note=61 velocity=110 time=0
EXTRACT: note_on channel=1 note=66 velocity=110 time=0
EXTRACT: note_on channel=1 note=71 velocity=110 time=0
EXTRACT: note_on channel=2 note=42 velocity=110 time=0
EXTRACT: note_on channel=9 note=70 velocity=75 time=0
EXTRACT: note_on channel=9 note=41 velocity=10 time=0
EXTRACT: note_on channel=9 note=47 velocity=10 time=0
EXTRACT: note_on channel=9 note=41 velocity=14 time=0
EXTRACT: note_on channel=9 note=47 velocity=14 time=0
EXTRACT: note_on channel=5 note=61 velocity=90 time=0
EXTRACT: note_on channel=5 note=66 velocity=90 time=0
EXTRACT: note_on channel=5 note=71 velocity=90 time=0
EXTRACT: note_on channel=10 note=61 velocity=90 time=0
EXTRACT: note_on channel=10 note=66 velocity=90 time=0
EXTRACT: note_on channel=10 note=71 velocity=90 time=0
EXTRACT: note_on channel=6 note=42 velocity=90 time=0
EXTRACT: note_on channel=0 note=71 velocity=0 time=0.261160575
EXTRACT: note_on channel=1 note=61 velocity=0 time=0
EXTRACT: note_on channel=1 note=66 velocity=0 time=0
EXTRACT: note_on channel=1 note=71 velocity=0 time=0
EXTRACT: note_on channel=9 note=70 velocity=0 time=0
EXTRACT: note_on channel=9 note=41 velocity=0 time=0
EXTRACT: note_on channel=9 note=47 velocity=0 time=0
EXTRACT: note_on channel=9 note=41 velocity=0 time=0
EXTRACT: note_on channel=9 note=47 velocity=0 time=0
EXTRACT: note_on channel=5 note=61 velocity=0 time=0
EXTRACT: note_on channel=5 note=66 velocity=0 time=0
EXTRACT: note_on channel=5 note=71 velocity=0 time=0
EXTRACT: note_on channel=10 note=61 velocity=0 time=0
EXTRACT: note_on channel=10 note=66 velocity=0 time=0
EXTRACT: note_on channel=10 note=71 velocity=0 time=0
EXTRACT: note_on channel=0 note=71 velocity=110 time=0.006696425000000001
EXTRACT: note_on channel=1 note=71 velocity=110 time=0
EXTRACT: note_on channel=9 note=70 velocity=75 time=0
EXTRACT: note_on channel=9 note=41 velocity=10 time=0
EXTRACT: note_on channel=9 note=47 velocity=10 time=0
EXTRACT: note_on channel=5 note=71 velocity=90 time=0
EXTRACT: note_on channel=10 note=71 velocity=90 time=0
EXTRACT: note_on channel=9 note=70 velocity=0 time=0.127232075
EXTRACT: note_on channel=9 note=41 velocity=0 time=0
EXTRACT: note_on channel=9 note=47 velocity=0 time=0
EXTRACT: note_on channel=9 note=70 velocity=75 time=0.006696425000000001
EXTRACT: note_on channel=9 note=41 velocity=10 time=0
EXTRACT: note_on channel=9 note=47 velocity=10 time=0
EXTRACT: note_on channel=0 note=71 velocity=0 time=0.127232075
EXTRACT: note_on channel=1 note=71 velocity=0 time=0
EXTRACT: note_on channel=5 note=71 velocity=0 time=0
EXTRACT: note_on channel=10 note=71 velocity=0 time=0
EXTRACT: note_on channel=0 note=71 velocity=110 time=0.006696425000000001
EXTRACT: note_on channel=1 note=71 velocity=110 time=0
EXTRACT: note_on channel=9 note=41 velocity=14 time=0
EXTRACT: note_on channel=9 note=47 velocity=14 time=0
EXTRACT: note_on channel=5 note=71 velocity=90 time=0
EXTRACT: note_on channel=10 note=71 velocity=90 time=0
EXTRACT: note_on channel=9 note=70 velocity=0 time=0.127232075
EXTRACT: note_on channel=9 note=41 velocity=0 time=0
EXTRACT: note_on channel=9 note=47 velocity=0 time=0
EXTRACT: note_on channel=9 note=70 velocity=75 time=0.006696425000000001
EXTRACT: note_on channel=9 note=41 velocity=10 time=0
EXTRACT: note_on channel=9 note=47 velocity=10 time=0
EXTRACT: note_on channel=0 note=71 velocity=0 time=0.127232075
EXTRACT: note_on channel=1 note=71 velocity=0 time=0
EXTRACT: note_on channel=9 note=70 velocity=0 time=0
EXTRACT: note_on channel=9 note=41 velocity=0 time=0
EXTRACT: note_on channel=9 note=47 velocity=0 time=0
EXTRACT: note_on channel=9 note=41 velocity=0 time=0
EXTRACT: note_on channel=9 note=47 velocity=0 time=0
EXTRACT: note_on channel=5 note=71 velocity=0 time=0
EXTRACT: note_on channel=10 note=71 velocity=0 time=0
EXTRACT: note_on channel=0 note=71 velocity=110 time=0.006696425000000001
EXTRACT: note_on channel=1 note=71 velocity=110 time=0
EXTRACT: note_on channel=9 note=70 velocity=75 time=0
EXTRACT: note_on channel=9 note=41 velocity=10 time=0
EXTRACT: note_on channel=9 note=47 velocity=10 time=0
EXTRACT: note_on channel=5 note=71 velocity=90 time=0
EXTRACT: note_on channel=10 note=71 velocity=90 time=0
EXTRACT: note_on channel=0 note=71 velocity=0 time=0.127232075
EXTRACT: note_on channel=1 note=71 velocity=0 time=0
EXTRACT: note_on channel=5 note=71 velocity=0 time=0
EXTRACT: note_on channel=10 note=71 velocity=0 time=0
EXTRACT: note_on channel=0 note=73 velocity=110 time=0.006696425000000001
EXTRACT: note_on channel=1 note=63 velocity=110 time=0
EXTRACT: note_on channel=1 note=66 velocity=110 time=0
EXTRACT: note_on channel=1 note=73 velocity=110 time=0
EXTRACT: note_on channel=2 note=42 velocity=0 time=0
EXTRACT: note_on channel=5 note=63 velocity=90 time=0
EXTRACT: note_on channel=5 note=66 velocity=90 time=0
EXTRACT: note_on channel=5 note=73 velocity=90 time=0
EXTRACT: note_on channel=10 note=63 velocity=90 time=0
EXTRACT: note_on channel=10 note=66 velocity=90 time=0
EXTRACT: note_on channel=10 note=73 velocity=90 time=0
EXTRACT: note_on channel=6 note=42 velocity=0 time=0
EXTRACT: note_on channel=9 note=70 velocity=0 time=0.127232075
EXTRACT: note_on channel=9 note=41 velocity=0 time=0
EXTRACT: note_on channel=9 note=47 velocity=0 time=0
EXTRACT: note_on channel=2 note=44 velocity=110 time=0.006696425000000001
EXTRACT: note_on channel=9 note=70 velocity=75 time=0
EXTRACT: note_on channel=9 note=41 velocity=10 time=0
EXTRACT: note_on channel=9 note=47 velocity=10 time=0
EXTRACT: note_on channel=9 note=41 velocity=14 time=0
EXTRACT: note_on channel=9 note=47 velocity=14 time=0
EXTRACT: note_on channel=6 note=44 velocity=90 time=0
EXTRACT: note_on channel=9 note=70 velocity=0 time=0.060267825000000004
EXTRACT: note_on channel=9 note=41 velocity=0 time=0
EXTRACT: note_on channel=9 note=47 velocity=0 time=0
EXTRACT: note_on channel=9 note=70 velocity=75 time=0.006696425000000001
EXTRACT: note_on channel=9 note=41 velocity=10 time=0
EXTRACT: note_on channel=9 note=47 velocity=10 time=0
EXTRACT: note_on channel=9 note=70 velocity=0 time=0.060267825000000004
EXTRACT: note_on channel=9 note=41 velocity=0 time=0
EXTRACT: note_on channel=9 note=47 velocity=0 time=0
EXTRACT: note_on channel=9 note=70 velocity=75 time=0.006696425000000001
EXTRACT: note_on channel=9 note=41 velocity=10 time=0
EXTRACT: note_on channel=9 note=47 velocity=10 time=0
EXTRACT: note_on channel=0 note=73 velocity=0 time=0.127232075
EXTRACT: note_on channel=1 note=63 velocity=0 time=0
EXTRACT: note_on channel=1 note=66 velocity=0 time=0
EXTRACT: note_on channel=1 note=73 velocity=0 time=0
EXTRACT: note_on channel=9 note=41 velocity=0 time=0
EXTRACT: note_on channel=9 note=47 velocity=0 time=0
EXTRACT: note_on channel=5 note=63 velocity=0 time=0
EXTRACT: note_on channel=5 note=66 velocity=0 time=0
EXTRACT: note_on channel=5 note=73 velocity=0 time=0
EXTRACT: note_on channel=10 note=63 velocity=0 time=0
EXTRACT: note_on channel=10 note=66 velocity=0 time=0
EXTRACT: note_on channel=10 note=73 velocity=0 time=0
EXTRACT: note_on channel=0 note=73 velocity=110 time=0.006696425000000001
EXTRACT: note_on channel=1 note=73 velocity=110 time=0
EXTRACT: note_on channel=5 note=73 velocity=90 time=0
EXTRACT: note_on channel=10 note=73 velocity=90 time=0
EXTRACT: note_on channel=9 note=70 velocity=0 time=0.127232075
EXTRACT: note_on channel=9 note=41 velocity=0 time=0
EXTRACT: note_on channel=9 note=47 velocity=0 time=0
EXTRACT: note_on channel=9 note=70 velocity=75 time=0.006696425000000001
EXTRACT: note_on channel=9 note=41 velocity=10 time=0
EXTRACT: note_on channel=9 note=47 velocity=10 time=0
EXTRACT: note_on channel=0 note=73 velocity=0 time=0.127232075
EXTRACT: note_on channel=1 note=73 velocity=0 time=0
EXTRACT: note_on channel=5 note=73 velocity=0 time=0
EXTRACT: note_on channel=10 note=73 velocity=0 time=0
EXTRACT: note_on channel=0 note=73 velocity=110 time=0.006696425000000001
EXTRACT: note_on channel=1 note=73 velocity=110 time=0
EXTRACT: note_on channel=9 note=41 velocity=14 time=0
EXTRACT: note_on channel=9 note=47 velocity=14 time=0
EXTRACT: note_on channel=5 note=73 velocity=90 time=0
EXTRACT: note_on channel=10 note=73 velocity=90 time=0
EXTRACT: note_on channel=9 note=70 velocity=0 time=0.127232075
EXTRACT: note_on channel=9 note=41 velocity=0 time=0
EXTRACT: note_on channel=9 note=47 velocity=0 time=0
EXTRACT: note_on channel=9 note=70 velocity=75 time=0.006696425000000001
EXTRACT: note_on channel=9 note=41 velocity=10 time=0
EXTRACT: note_on channel=9 note=47 velocity=10 time=0
EXTRACT: note_on channel=0 note=73 velocity=0 time=0.127232075
EXTRACT: note_on channel=1 note=73 velocity=0 time=0
EXTRACT: note_on channel=9 note=41 velocity=0 time=0
EXTRACT: note_on channel=9 note=47 velocity=0 time=0
EXTRACT: note_on channel=5 note=73 velocity=0 time=0
EXTRACT: note_on channel=10 note=73 velocity=0 time=0
EXTRACT: note_on channel=0 note=70 velocity=110 time=0.006696425000000001
EXTRACT: note_on channel=1 note=70 velocity=110 time=0
EXTRACT: note_on channel=5 note=70 velocity=90 time=0
EXTRACT: note_on channel=10 note=70 velocity=90 time=0
EXTRACT: note_on channel=0 note=70 velocity=0 time=0.127232075
EXTRACT: note_on channel=1 note=70 velocity=0 time=0
EXTRACT: note_on channel=9 note=70 velocity=0 time=0
EXTRACT: note_on channel=9 note=41 velocity=0 time=0
EXTRACT: note_on channel=9 note=47 velocity=0 time=0
EXTRACT: note_on channel=5 note=70 velocity=0 time=0
EXTRACT: note_on channel=10 note=70 velocity=0 time=0
EXTRACT: note_on channel=0 note=75 velocity=110 time=0.006696425000000001
EXTRACT: note_on channel=1 note=66 velocity=110 time=0
EXTRACT: note_on channel=1 note=71 velocity=110 time=0
EXTRACT: note_on channel=1 note=75 velocity=110 time=0
EXTRACT: note_on channel=2 note=44 velocity=0 time=0
EXTRACT: note_on channel=9 note=70 velocity=75 time=0
EXTRACT: note_on channel=9 note=41 velocity=10 time=0
EXTRACT: note_on channel=9 note=47 velocity=10 time=0
EXTRACT: note_on channel=5 note=66 velocity=90 time=0
EXTRACT: note_on channel=5 note=71 velocity=90 time=0
EXTRACT: note_on channel=5 note=75 velocity=90 time=0
EXTRACT: note_on channel=10 note=66 velocity=90 time=0
EXTRACT: note_on channel=10 note=71 velocity=90 time=0
EXTRACT: note_on channel=10 note=75 velocity=90 time=0
EXTRACT: note_on channel=6 note=44 velocity=0 time=0
EXTRACT: note_on channel=9 note=70 velocity=0 time=0.127232075
EXTRACT: note_on channel=9 note=41 velocity=0 time=0
EXTRACT: note_on channel=9 note=47 velocity=0 time=0
EXTRACT: note_on channel=2 note=49 velocity=110 time=0.006696425000000001
EXTRACT: note_on channel=9 note=70 velocity=75 time=0
EXTRACT: note_on channel=9 note=41 velocity=92 time=0
EXTRACT: note_on channel=9 note=47 velocity=92 time=0
EXTRACT: note_on channel=9 note=41 velocity=127 time=0
EXTRACT: note_on channel=9 note=47 velocity=127 time=0
EXTRACT: note_on channel=6 note=49 velocity=90 time=0
EXTRACT: note_on channel=0 note=75 velocity=0 time=0.127232075
EXTRACT: note_on channel=1 note=66 velocity=0 time=0
EXTRACT: note_on channel=1 note=71 velocity=0 time=0
EXTRACT: note_on channel=1 note=75 velocity=0 time=0
EXTRACT: note_on channel=9 note=70 velocity=0 time=0
EXTRACT: note_on channel=9 note=41 velocity=0 time=0
EXTRACT: note_on channel=9 note=47 velocity=0 time=0
EXTRACT: note_on channel=5 note=66 velocity=0 time=0
EXTRACT: note_on channel=5 note=71 velocity=0 time=0
EXTRACT: note_on channel=5 note=75 velocity=0 time=0
EXTRACT: note_on channel=10 note=66 velocity=0 time=0
EXTRACT: note_on channel=10 note=71 velocity=0 time=0
EXTRACT: note_on channel=10 note=75 velocity=0 time=0
EXTRACT: note_on channel=0 note=73 velocity=110 time=0.006696425000000001
EXTRACT: note_on channel=1 note=73 velocity=110 time=0
EXTRACT: note_on channel=9 note=70 velocity=75 time=0
EXTRACT: note_on channel=9 note=41 velocity=92 time=0
EXTRACT: note_on channel=9 note=47 velocity=92 time=0
EXTRACT: note_on channel=5 note=73 velocity=90 time=0
EXTRACT: note_on channel=10 note=73 velocity=90 time=0
EXTRACT: note_on channel=9 note=70 velocity=0 time=0.127232075
EXTRACT: note_on channel=9 note=41 velocity=0 time=0
EXTRACT: note_on channel=9 note=47 velocity=0 time=0
EXTRACT: note_on channel=9 note=41 velocity=0 time=0
EXTRACT: note_on channel=9 note=47 velocity=0 time=0
EXTRACT: note_on channel=9 note=70 velocity=75 time=0.006696425000000001
EXTRACT: note_on channel=9 note=41 velocity=92 time=0
EXTRACT: note_on channel=9 note=47 velocity=92 time=0
EXTRACT: note_on channel=9 note=70 velocity=0 time=0.127232075
EXTRACT: note_on channel=9 note=41 velocity=0 time=0
EXTRACT: note_on channel=9 note=47 velocity=0 time=0
EXTRACT: note_on channel=9 note=70 velocity=75 time=0.006696425000000001
EXTRACT: note_on channel=9 note=41 velocity=92 time=0
EXTRACT: note_on channel=9 note=47 velocity=92 time=0
EXTRACT: note_on channel=0 note=73 velocity=0 time=0.127232075
EXTRACT: note_on channel=1 note=73 velocity=0 time=0
EXTRACT: note_on channel=9 note=70 velocity=0 time=0
EXTRACT: note_on channel=9 note=41 velocity=0 time=0
EXTRACT: note_on channel=9 note=47 velocity=0 time=0
EXTRACT: note_on channel=5 note=73 velocity=0 time=0
EXTRACT: note_on channel=10 note=73 velocity=0 time=0
EXTRACT: note_on channel=1 note=66 velocity=110 time=0.006696425000000001
EXTRACT: note_on channel=1 note=68 velocity=110 time=0
EXTRACT: note_on channel=1 note=73 velocity=110 time=0
EXTRACT: note_on channel=9 note=70 velocity=75 time=0
EXTRACT: note_on channel=9 note=41 velocity=92 time=0
EXTRACT: note_on channel=9 note=47 velocity=92 time=0
EXTRACT: note_on channel=9 note=41 velocity=127 time=0
EXTRACT: note_on channel=9 note=47 velocity=127 time=0
EXTRACT: note_on channel=5 note=66 velocity=90 time=0
EXTRACT: note_on channel=5 note=68 velocity=90 time=0
EXTRACT: note_on channel=5 note=73 velocity=90 time=0
EXTRACT: note_on channel=10 note=66 velocity=90 time=0
EXTRACT: note_on channel=10 note=68 velocity=90 time=0
EXTRACT: note_on channel=10 note=73 velocity=90 time=0
EXTRACT: note_on channel=9 note=70 velocity=0 time=0.127232075
EXTRACT: note_on channel=9 note=41 velocity=0 time=0
EXTRACT: note_on channel=9 note=47 velocity=0 time=0
EXTRACT: note_on channel=9 note=70 velocity=75 time=0.006696425000000001
EXTRACT: note_on channel=9 note=41 velocity=92 time=0
EXTRACT: note_on channel=9 note=47 velocity=92 time=0
EXTRACT: note_on channel=9 note=70 velocity=0 time=0.127232075
EXTRACT: note_on channel=9 note=41 velocity=0 time=0
EXTRACT: note_on channel=9 note=47 velocity=0 time=0
EXTRACT: note_on channel=9 note=41 velocity=0 time=0
EXTRACT: note_on channel=9 note=47 velocity=0 time=0
EXTRACT: note_on channel=9 note=70 velocity=75 time=0.006696425000000001
EXTRACT: note_on channel=9 note=41 velocity=92 time=0
EXTRACT: note_on channel=9 note=47 velocity=92 time=0
EXTRACT: note_on channel=9 note=70 velocity=0 time=0.127232075
EXTRACT: note_on channel=9 note=41 velocity=0 time=0
EXTRACT: note_on channel=9 note=47 velocity=0 time=0
EXTRACT: note_on channel=2 note=49 velocity=0 time=0.006696425000000001
EXTRACT: note_on channel=9 note=70 velocity=75 time=0
EXTRACT: note_on channel=9 note=41 velocity=92 time=0
EXTRACT: note_on channel=9 note=47 velocity=92 time=0
EXTRACT: note_on channel=6 note=49 velocity=0 time=0
EXTRACT: note_on channel=1 note=66 velocity=0 time=0.04464283333333333
EXTRACT: note_on channel=1 note=68 velocity=0 time=0
EXTRACT: note_on channel=1 note=73 velocity=0 time=0
EXTRACT: note_on channel=5 note=66 velocity=0 time=0
EXTRACT: note_on channel=5 note=68 velocity=0 time=0
EXTRACT: note_on channel=5 note=73 velocity=0 time=0
EXTRACT: note_on channel=10 note=66 velocity=0 time=0
EXTRACT: note_on channel=10 note=68 velocity=0 time=0
EXTRACT: note_on channel=10 note=73 velocity=0 time=0
EXTRACT: note_on channel=9 note=40 velocity=110 time=0.022321416666666666
EXTRACT: note_on channel=9 note=44 velocity=110 time=0
EXTRACT: note_on channel=9 note=47 velocity=110 time=0
EXTRACT: note_on channel=9 note=51 velocity=110 time=0
EXTRACT: note_on channel=9 note=54 velocity=110 time=0
EXTRACT: note_on channel=9 note=57 velocity=110 time=0
EXTRACT: note_on channel=9 note=70 velocity=0 time=0.060267825000000004
EXTRACT: note_on channel=9 note=41 velocity=0 time=0
EXTRACT: note_on channel=9 note=47 velocity=0 time=0
EXTRACT: note_on channel=1 note=70 velocity=110 time=0.006696425000000001
EXTRACT: note_on channel=1 note=73 velocity=110 time=0
EXTRACT: note_on channel=2 note=42 velocity=110 time=0
EXTRACT: note_on channel=9 note=70 velocity=75 time=0
EXTRACT: note_on channel=9 note=41 velocity=92 time=0
EXTRACT: note_on channel=9 note=47 velocity=92 time=0
EXTRACT: note_on channel=9 note=41 velocity=127 time=0
EXTRACT: note_on channel=9 note=47 velocity=127 time=0
EXTRACT: note_on channel=5 note=70 velocity=90 time=0
EXTRACT: note_on channel=5 note=73 velocity=90 time=0
EXTRACT: note_on channel=10 note=70 velocity=90 time=0
EXTRACT: note_on channel=10 note=73 velocity=90 time=0
EXTRACT: note_on channel=6 note=42 velocity=90 time=0
EXTRACT: note_on channel=1 note=70 velocity=0 time=0.261160575
EXTRACT: note_on channel=1 note=73 velocity=0 time=0
EXTRACT: note_on channel=9 note=70 velocity=0 time=0
EXTRACT: note_on channel=9 note=41 velocity=0 time=0
EXTRACT: note_on channel=9 note=47 velocity=0 time=0
EXTRACT: note_on channel=9 note=41 velocity=0 time=0
EXTRACT: note_on channel=9 note=47 velocity=0 time=0
EXTRACT: note_on channel=5 note=70 velocity=0 time=0
EXTRACT: note_on channel=5 note=73 velocity=0 time=0
EXTRACT: note_on channel=10 note=70 velocity=0 time=0
EXTRACT: note_on channel=10 note=73 velocity=0 time=0
EXTRACT: note_on channel=0 note=78 velocity=110 time=0.006696425000000001
EXTRACT: note_on channel=1 note=78 velocity=110 time=0
EXTRACT: note_on channel=9 note=70 velocity=75 time=0
EXTRACT: note_on channel=9 note=41 velocity=92 time=0
EXTRACT: note_on channel=9 note=47 velocity=92 time=0
EXTRACT: note_on channel=5 note=78 velocity=90 time=0
EXTRACT: note_on channel=10 note=78 velocity=90 time=0
EXTRACT: note_on channel=9 note=70 velocity=0 time=0.127232075
EXTRACT: note_on channel=9 note=41 velocity=0 time=0
EXTRACT: note_on channel=9 note=47 velocity=0 time=0
EXTRACT: note_on channel=9 note=70 velocity=75 time=0.006696425000000001
EXTRACT: note_on channel=9 note=41 velocity=92 time=0
EXTRACT: note_on channel=9 note=47 velocity=92 time=0
EXTRACT: note_on channel=0 note=78 velocity=0 time=0.127232075
EXTRACT: note_on channel=1 note=78 velocity=0 time=0
EXTRACT: note_on channel=5 note=78 velocity=0 time=0
EXTRACT: note_on channel=10 note=78 velocity=0 time=0
EXTRACT: note_on channel=0 note=78 velocity=110 time=0.006696425000000001
EXTRACT: note_on channel=1 note=78 velocity=110 time=0
EXTRACT: note_on channel=9 note=41 velocity=127 time=0
EXTRACT: note_on channel=9 note=47 velocity=127 time=0
EXTRACT: note_on channel=5 note=78 velocity=90 time=0
EXTRACT: note_on channel=10 note=78 velocity=90 time=0
EXTRACT: note_on channel=9 note=70 velocity=0 time=0.127232075
EXTRACT: note_on channel=9 note=41 velocity=0 time=0
EXTRACT: note_on channel=9 note=47 velocity=0 time=0
EXTRACT: note_on channel=9 note=70 velocity=75 time=0.006696425000000001
EXTRACT: note_on channel=9 note=41 velocity=92 time=0
EXTRACT: note_on channel=9 note=47 velocity=92 time=0
EXTRACT: note_on channel=0 note=78 velocity=0 time=0.127232075
EXTRACT: note_on channel=1 note=78 velocity=0 time=0
EXTRACT: note_on channel=9 note=70 velocity=0 time=0
EXTRACT: note_on channel=9 note=41 velocity=0 time=0
EXTRACT: note_on channel=9 note=47 velocity=0 time=0
EXTRACT: note_on channel=9 note=41 velocity=0 time=0
EXTRACT: note_on channel=9 note=47 velocity=0 time=0
EXTRACT: note_on channel=5 note=78 velocity=0 time=0
EXTRACT: note_on channel=10 note=78 velocity=0 time=0
EXTRACT: note_on channel=0 note=73 velocity=110 time=0.006696425000000001
EXTRACT: note_on channel=1 note=73 velocity=110 time=0
EXTRACT: note_on channel=9 note=70 velocity=75 time=0
EXTRACT: note_on channel=9 note=41 velocity=92 time=0
EXTRACT: note_on channel=9 note=47 velocity=92 time=0
EXTRACT: note_on channel=5 note=73 velocity=90 time=0
EXTRACT: note_on channel=10 note=73 velocity=90 time=0
EXTRACT: note_on channel=2 note=42 velocity=0 time=0.1339285
EXTRACT: note_on channel=6 note=42 velocity=0 time=0
EXTRACT: note_on channel=0 note=73 velocity=0 time=0.127232075
EXTRACT: note_on channel=1 note=73 velocity=0 time=0
EXTRACT: note_on channel=9 note=70 velocity=0 time=0
EXTRACT: note_on channel=9 note=41 velocity=0 time=0
EXTRACT: note_on channel=9 note=47 velocity=0 time=0
EXTRACT: note_on channel=5 note=73 velocity=0 time=0
EXTRACT: note_on channel=10 note=73 velocity=0 time=0
EXTRACT: note_on channel=0 note=73 velocity=110 time=0.006696425000000001
EXTRACT: note_on channel=1 note=66 velocity=110 time=0
EXTRACT: note_on channel=1 note=73 velocity=110 time=0
EXTRACT: note_on channel=2 note=47 velocity=110 time=0
EXTRACT: note_on channel=9 note=70 velocity=75 time=0
EXTRACT: note_on channel=9 note=41 velocity=92 time=0
EXTRACT: note_on channel=9 note=47 velocity=92 time=0
EXTRACT: note_on channel=9 note=41 velocity=127 time=0
EXTRACT: note_on channel=9 note=47 velocity=127 time=0
EXTRACT: note_on channel=5 note=66 velocity=90 time=0
EXTRACT: note_on channel=5 note=73 velocity=90 time=0
EXTRACT: note_on channel=10 note=66 velocity=90 time=0
EXTRACT: note_on channel=10 note=73 velocity=90 time=0
EXTRACT: note_on channel=6 note=47 velocity=90 time=0
EXTRACT: note_on channel=0 note=73 velocity=0 time=0.261160575
EXTRACT: note_on channel=1 note=66 velocity=0 time=0
EXTRACT: note_on channel=1 note=73 velocity=0 time=0
EXTRACT: note_on channel=9 note=70 velocity=0 time=0
EXTRACT: note_on channel=9 note=41 velocity=0 time=0
EXTRACT: note_on channel=9 note=47 velocity=0 time=0
EXTRACT: note_on channel=9 note=41 velocity=0 time=0
EXTRACT: note_on channel=9 note=47 velocity=0 time=0
EXTRACT: note_on channel=5 note=66 velocity=0 time=0
EXTRACT: note_on channel=5 note=73 velocity=0 time=0
EXTRACT: note_on channel=10 note=66 velocity=0 time=0
EXTRACT: note_on channel=10 note=73 velocity=0 time=0
EXTRACT: note_on channel=0 note=73 velocity=110 time=0.006696425000000001
EXTRACT: note_on channel=1 note=73 velocity=110 time=0
EXTRACT: note_on channel=9 note=70 velocity=75 time=0
EXTRACT: note_on channel=9 note=41 velocity=92 time=0
EXTRACT: note_on channel=9 note=47 velocity=92 time=0
EXTRACT: note_on channel=5 note=73 velocity=90 time=0
EXTRACT: note_on channel=10 note=73 velocity=90 time=0
EXTRACT: note_on channel=0 note=73 velocity=0 time=0.127232075
EXTRACT: note_on channel=1 note=73 velocity=0 time=0
EXTRACT: note_on channel=9 note=70 velocity=0 time=0
EXTRACT: note_on channel=9 note=41 velocity=0 time=0
EXTRACT: note_on channel=9 note=47 velocity=0 time=0
EXTRACT: note_on channel=5 note=73 velocity=0 time=0
EXTRACT: note_on channel=10 note=73 velocity=0 time=0
EXTRACT: note_on channel=0 note=75 velocity=110 time=0.006696425000000001
EXTRACT: note_on channel=1 note=75 velocity=110 time=0
EXTRACT: note_on channel=9 note=70 velocity=75 time=0
EXTRACT: note_on channel=9 note=41 velocity=92 time=0
EXTRACT: note_on channel=9 note=47 velocity=92 time=0
EXTRACT: note_on channel=5 note=75 velocity=90 time=0
EXTRACT: note_on channel=10 note=75 velocity=90 time=0
EXTRACT: note_on channel=2 note=47 velocity=0 time=0.04464283333333333
EXTRACT: note_on channel=6 note=47 velocity=0 time=0
EXTRACT: note_on channel=2 note=46 velocity=110 time=0.08928566666666667
EXTRACT: note_on channel=9 note=41 velocity=127 time=0
EXTRACT: note_on channel=9 note=47 velocity=127 time=0
EXTRACT: note_on channel=6 note=46 velocity=90 time=0
EXTRACT: note_on channel=9 note=70 velocity=0 time=0.127232075
EXTRACT: note_on channel=9 note=41 velocity=0 time=0
EXTRACT: note_on channel=9 note=47 velocity=0 time=0
EXTRACT: note_on channel=9 note=70 velocity=75 time=0.006696425000000001
EXTRACT: note_on channel=9 note=41 velocity=92 time=0
EXTRACT: note_on channel=9 note=47 velocity=92 time=0
EXTRACT: note_on channel=0 note=75 velocity=0 time=0.127232075
EXTRACT: note_on channel=1 note=75 velocity=0 time=0
EXTRACT: note_on channel=9 note=70 velocity=0 time=0
EXTRACT: note_on channel=9 note=41 velocity=0 time=0
EXTRACT: note_on channel=9 note=47 velocity=0 time=0
EXTRACT: note_on channel=9 note=41 velocity=0 time=0
EXTRACT: note_on channel=9 note=47 velocity=0 time=0
EXTRACT: note_on channel=5 note=75 velocity=0 time=0
EXTRACT: note_on channel=10 note=75 velocity=0 time=0
EXTRACT: note_on channel=0 note=73 velocity=110 time=0.006696425000000001
EXTRACT: note_on channel=1 note=73 velocity=110 time=0
EXTRACT: note_on channel=9 note=70 velocity=75 time=0
EXTRACT: note_on channel=9 note=41 velocity=92 time=0
EXTRACT: note_on channel=9 note=47 velocity=92 time=0
EXTRACT: note_on channel=5 note=73 velocity=90 time=0
EXTRACT: note_on channel=10 note=73 velocity=90 time=0
EXTRACT: note_on channel=9 note=40 velocity=0 time=0.1339285
EXTRACT: note_on channel=9 note=44 velocity=0 time=0
EXTRACT: note_on channel=9 note=47 velocity=0 time=0
EXTRACT: note_on channel=9 note=51 velocity=0 time=0
EXTRACT: note_on channel=9 note=54 velocity=0 time=0
EXTRACT: note_on channel=9 note=57 velocity=0 time=0
EXTRACT: note_on channel=2 note=46 velocity=0 time=0.04464283333333333
EXTRACT: note_on channel=6 note=46 velocity=0 time=0
EXTRACT: note_on channel=0 note=73 velocity=0 time=0.08258924166666667
EXTRACT: note_on channel=1 note=73 velocity=0 time=0
EXTRACT: note_on channel=9 note=70 velocity=0 time=0
EXTRACT: note_on channel=9 note=41 velocity=0 time=0
EXTRACT: note_on channel=9 note=47 velocity=0 time=0
EXTRACT: note_on channel=5 note=73 velocity=0 time=0
EXTRACT: note_on channel=10 note=73 velocity=0 time=0
EXTRACT: note_on channel=1 note=65 velocity=110 time=0.006696425000000001
EXTRACT: note_on channel=1 note=68 velocity=110 time=0
EXTRACT: note_on channel=2 note=44 velocity=110 time=0
EXTRACT: note_on channel=9 note=70 velocity=75 time=0
EXTRACT: note_on channel=9 note=41 velocity=92 time=0
EXTRACT: note_on channel=9 note=47 velocity=92 time=0
EXTRACT: note_on channel=9 note=41 velocity=127 time=0
EXTRACT: note_on channel=9 note=47 velocity=127 time=0
EXTRACT: note_on channel=5 note=65 velocity=90 time=0
EXTRACT: note_on channel=5 note=68 velocity=90 time=0
EXTRACT: note_on channel=10 note=65 velocity=90 time=0
EXTRACT: note_on channel=10 note=68 velocity=90 time=0
EXTRACT: note_on channel=6 note=44 velocity=90 time=0
EXTRACT: note_on channel=1 note=65 velocity=0 time=0.261160575
EXTRACT: note_on channel=1 note=68 velocity=0 time=0
EXTRACT: note_on channel=9 note=70 velocity=0 time=0
EXTRACT: note_on channel=9 note=41 velocity=0 time=0
EXTRACT: note_on channel=9 note=47 velocity=0 time=0
EXTRACT: note_on channel=9 note=41 velocity=0 time=0
EXTRACT: note_on channel=9 note=47 velocity=0 time=0
EXTRACT: note_on channel=5 note=65 velocity=0 time=0
EXTRACT: note_on channel=5 note=68 velocity=0 time=0
EXTRACT: note_on channel=10 note=65 velocity=0 time=0
EXTRACT: note_on channel=10 note=68 velocity=0 time=0
EXTRACT: note_on channel=0 note=78 velocity=110 time=0.006696425000000001
EXTRACT: note_on channel=1 note=78 velocity=110 time=0
EXTRACT: note_on channel=9 note=70 velocity=75 time=0
EXTRACT: note_on channel=9 note=41 velocity=92 time=0
EXTRACT: note_on channel=9 note=47 velocity=92 time=0
EXTRACT: note_on channel=5 note=78 velocity=90 time=0
EXTRACT: note_on channel=10 note=78 velocity=90 time=0
EXTRACT: note_on channel=9 note=70 velocity=0 time=0.127232075
EXTRACT: note_on channel=9 note=41 velocity=0 time=0
EXTRACT: note_on channel=9 note=47 velocity=0 time=0
EXTRACT: note_on channel=9 note=70 velocity=75 time=0.006696425000000001
EXTRACT: note_on channel=9 note=41 velocity=92 time=0
EXTRACT: note_on channel=9 note=47 velocity=92 time=0
EXTRACT: note_on channel=0 note=78 velocity=0 time=0.127232075
EXTRACT: note_on channel=1 note=78 velocity=0 time=0
EXTRACT: note_on channel=5 note=78 velocity=0 time=0
EXTRACT: note_on channel=10 note=78 velocity=0 time=0
EXTRACT: note_on channel=0 note=78 velocity=110 time=0.006696425000000001
EXTRACT: note_on channel=1 note=78 velocity=110 time=0
EXTRACT: note_on channel=9 note=41 velocity=127 time=0
EXTRACT: note_on channel=9 note=47 velocity=127 time=0
EXTRACT: note_on channel=5 note=78 velocity=90 time=0
EXTRACT: note_on channel=10 note=78 velocity=90 time=0
EXTRACT: note_on channel=9 note=70 velocity=0 time=0.127232075
EXTRACT: note_on channel=9 note=41 velocity=0 time=0
EXTRACT: note_on channel=9 note=47 velocity=0 time=0
EXTRACT: note_on channel=9 note=70 velocity=75 time=0.006696425000000001
EXTRACT: note_on channel=9 note=41 velocity=92 time=0
EXTRACT: note_on channel=9 note=47 velocity=92 time=0
EXTRACT: note_on channel=0 note=78 velocity=0 time=0.127232075
EXTRACT: note_on channel=1 note=78 velocity=0 time=0
EXTRACT: note_on channel=9 note=70 velocity=0 time=0
EXTRACT: note_on channel=9 note=41 velocity=0 time=0
EXTRACT: note_on channel=9 note=47 velocity=0 time=0
EXTRACT: note_on channel=9 note=41 velocity=0 time=0
EXTRACT: note_on channel=9 note=47 velocity=0 time=0
EXTRACT: note_on channel=5 note=78 velocity=0 time=0
EXTRACT: note_on channel=10 note=78 velocity=0 time=0
EXTRACT: note_on channel=0 note=73 velocity=110 time=0.006696425000000001
EXTRACT: note_on channel=1 note=73 velocity=110 time=0
EXTRACT: note_on channel=9 note=70 velocity=75 time=0
EXTRACT: note_on channel=9 note=41 velocity=92 time=0
EXTRACT: note_on channel=9 note=47 velocity=92 time=0
EXTRACT: note_on channel=5 note=73 velocity=90 time=0
EXTRACT: note_on channel=10 note=73 velocity=90 time=0
EXTRACT: note_on channel=2 note=44 velocity=0 time=0.1339285
EXTRACT: note_on channel=6 note=44 velocity=0 time=0
EXTRACT: note_on channel=0 note=73 velocity=0 time=0.127232075
EXTRACT: note_on channel=1 note=73 velocity=0 time=0
EXTRACT: note_on channel=9 note=70 velocity=0 time=0
EXTRACT: note_on channel=9 note=41 velocity=0 time=0
EXTRACT: note_on channel=9 note=47 velocity=0 time=0
EXTRACT: note_on channel=5 note=73 velocity=0 time=0
EXTRACT: note_on channel=10 note=73 velocity=0 time=0
EXTRACT: note_on channel=0 note=73 velocity=110 time=0.006696425000000001
EXTRACT: note_on channel=1 note=66 velocity=110 time=0
EXTRACT: note_on channel=1 note=68 velocity=110 time=0
EXTRACT: note_on channel=1 note=73 velocity=110 time=0
EXTRACT: note_on channel=2 note=49 velocity=110 time=0
EXTRACT: note_on channel=9 note=70 velocity=75 time=0
EXTRACT: note_on channel=9 note=41 velocity=92 time=0
EXTRACT: note_on channel=9 note=47 velocity=92 time=0
EXTRACT: note_on channel=9 note=41 velocity=127 time=0
EXTRACT: note_on channel=9 note=47 velocity=127 time=0
EXTRACT: note_on channel=5 note=66 velocity=90 time=0
EXTRACT: note_on channel=5 note=68 velocity=90 time=0
EXTRACT: note_on channel=5 note=73 velocity=90 time=0
EXTRACT: note_on channel=10 note=66 velocity=90 time=0
EXTRACT: note_on channel=10 note=68 velocity=90 time=0
EXTRACT: note_on channel=10 note=73 velocity=90 time=0
EXTRACT: note_on channel=6 note=49 velocity=90 time=0
EXTRACT: note_on channel=9 note=70 velocity=0 time=0.261160575
EXTRACT: note_on channel=9 note=41 velocity=0 time=0
EXTRACT: note_on channel=9 note=47 velocity=0 time=0
EXTRACT: note_on channel=9 note=41 velocity=0 time=0
EXTRACT: note_on channel=9 note=47 velocity=0 time=0
EXTRACT: note_on channel=9 note=70 velocity=75 time=0.006696425000000001
EXTRACT: note_on channel=9 note=41 velocity=92 time=0
EXTRACT: note_on channel=9 note=47 velocity=92 time=0
EXTRACT: note_on channel=0 note=73 velocity=0 time=0.127232075
EXTRACT: note_on channel=1 note=66 velocity=0 time=0
EXTRACT: note_on channel=1 note=68 velocity=0 time=0
EXTRACT: note_on channel=1 note=73 velocity=0 time=0
EXTRACT: note_on channel=9 note=70 velocity=0 time=0
EXTRACT: note_on channel=9 note=41 velocity=0 time=0
EXTRACT: note_on channel=9 note=47 velocity=0 time=0
EXTRACT: note_on channel=5 note=66 velocity=0 time=0
EXTRACT: note_on channel=5 note=68 velocity=0 time=0
EXTRACT: note_on channel=5 note=73 velocity=0 time=0
EXTRACT: note_on channel=10 note=66 velocity=0 time=0
EXTRACT: note_on channel=10 note=68 velocity=0 time=0
EXTRACT: note_on channel=10 note=73 velocity=0 time=0
EXTRACT: note_on channel=0 note=75 velocity=110 time=0.006696425000000001
EXTRACT: note_on channel=1 note=75 velocity=110 time=0
EXTRACT: note_on channel=9 note=70 velocity=75 time=0
EXTRACT: note_on channel=9 note=41 velocity=92 time=0
EXTRACT: note_on channel=9 note=47 velocity=92 time=0
EXTRACT: note_on channel=5 note=75 velocity=90 time=0
EXTRACT: note_on channel=10 note=75 velocity=90 time=0
EXTRACT: note_on channel=9 note=41 velocity=127 time=0.1339285
EXTRACT: note_on channel=9 note=47 velocity=127 time=0
EXTRACT: note_on channel=9 note=70 velocity=0 time=0.127232075
EXTRACT: note_on channel=9 note=41 velocity=0 time=0
EXTRACT: note_on channel=9 note=47 velocity=0 time=0
EXTRACT: note_on channel=9 note=70 velocity=75 time=0.006696425000000001
EXTRACT: note_on channel=9 note=41 velocity=92 time=0
EXTRACT: note_on channel=9 note=47 velocity=92 time=0
EXTRACT: note_on channel=0 note=75 velocity=0 time=0.127232075
EXTRACT: note_on channel=1 note=75 velocity=0 time=0
EXTRACT: note_on channel=9 note=70 velocity=0 time=0
EXTRACT: note_on channel=9 note=41 velocity=0 time=0
EXTRACT: note_on channel=9 note=47 velocity=0 time=0
EXTRACT: note_on channel=9 note=41 velocity=0 time=0
EXTRACT: note_on channel=9 note=47 velocity=0 time=0
EXTRACT: note_on channel=5 note=75 velocity=0 time=0
EXTRACT: note_on channel=10 note=75 velocity=0 time=0
EXTRACT: note_on channel=0 note=73 velocity=110 time=0.006696425000000001
EXTRACT: note_on channel=1 note=73 velocity=110 time=0
EXTRACT: note_on channel=9 note=70 velocity=75 time=0
EXTRACT: note_on channel=9 note=41 velocity=92 time=0
EXTRACT: note_on channel=9 note=47 velocity=92 time=0
EXTRACT: note_on channel=5 note=73 velocity=90 time=0
EXTRACT: note_on channel=10 note=73 velocity=90 time=0
EXTRACT: note_on channel=0 note=73 velocity=0 time=0.127232075
EXTRACT: note_on channel=1 note=73 velocity=0 time=0
EXTRACT: note_on channel=5 note=73 velocity=0 time=0
EXTRACT: note_on channel=10 note=73 velocity=0 time=0
EXTRACT: note_on channel=0 note=71 velocity=110 time=0.006696425000000001
EXTRACT: note_on channel=1 note=71 velocity=110 time=0
EXTRACT: note_on channel=2 note=49 velocity=0 time=0
EXTRACT: note_on channel=5 note=71 velocity=90 time=0
EXTRACT: note_on channel=10 note=71 velocity=90 time=0
EXTRACT: note_on channel=6 note=49 velocity=0 time=0
EXTRACT: note_on channel=0 note=71 velocity=0 time=0.127232075
EXTRACT: note_on channel=1 note=71 velocity=0 time=0
EXTRACT: note_on channel=9 note=70 velocity=0 time=0
EXTRACT: note_on channel=9 note=41 velocity=0 time=0
EXTRACT: note_on channel=9 note=47 velocity=0 time=0
EXTRACT: note_on channel=5 note=71 velocity=0 time=0
EXTRACT: note_on channel=10 note=71 velocity=0 time=0
EXTRACT: note_on channel=0 note=70 velocity=110 time=0.006696425000000001
EXTRACT: note_on channel=1 note=61 velocity=110 time=0
EXTRACT: note_on channel=1 note=66 velocity=110 time=0
EXTRACT: note_on channel=1 note=70 velocity=110 time=0
EXTRACT: note_on channel=2 note=42 velocity=110 time=0
EXTRACT: note_on channel=9 note=70 velocity=75 time=0
EXTRACT: note_on channel=9 note=41 velocity=92 time=0
EXTRACT: note_on channel=9 note=47 velocity=92 time=0
EXTRACT: note_on channel=9 note=41 velocity=127 time=0
EXTRACT: note_on channel=9 note=47 velocity=127 time=0
EXTRACT: note_on channel=5 note=61 velocity=90 time=0
EXTRACT: note_on channel=5 note=66 velocity=90 time=0
EXTRACT: note_on channel=5 note=70 velocity=90 time=0
EXTRACT: note_on channel=10 note=61 velocity=90 time=0
EXTRACT: note_on channel=10 note=66 velocity=90 time=0
EXTRACT: note_on channel=10 note=70 velocity=90 time=0
EXTRACT: note_on channel=6 note=42 velocity=90 time=0
EXTRACT: note_on channel=9 note=70 velocity=0 time=0.261160575
EXTRACT: note_on channel=9 note=41 velocity=0 time=0
EXTRACT: note_on channel=9 note=47 velocity=0 time=0
EXTRACT: note_on channel=9 note=41 velocity=0 time=0
EXTRACT: note_on channel=9 note=47 velocity=0 time=0
EXTRACT: note_on channel=9 note=70 velocity=75 time=0.006696425000000001
EXTRACT: note_on channel=9 note=41 velocity=92 time=0
EXTRACT: note_on channel=9 note=47 velocity=92 time=0
EXTRACT: note_on channel=1 note=61 velocity=0 time=0.127232075
EXTRACT: note_on channel=1 note=66 velocity=0 time=0
EXTRACT: note_on channel=1 note=70 velocity=0 time=0
EXTRACT: note_on channel=9 note=70 velocity=0 time=0
EXTRACT: note_on channel=9 note=41 velocity=0 time=0
EXTRACT: note_on channel=9 note=47 velocity=0 time=0
EXTRACT: note_on channel=5 note=61 velocity=0 time=0
EXTRACT: note_on channel=5 note=66 velocity=0 time=0
EXTRACT: note_on channel=5 note=70 velocity=0 time=0
EXTRACT: note_on channel=10 note=61 velocity=0 time=0
EXTRACT: note_on channel=10 note=66 velocity=0 time=0
EXTRACT: note_on channel=10 note=70 velocity=0 time=0
EXTRACT: note_on channel=1 note=61 velocity=110 time=0.006696425000000001
EXTRACT: note_on channel=1 note=66 velocity=110 time=0
EXTRACT: note_on channel=1 note=70 velocity=110 time=0
EXTRACT: note_on channel=9 note=70 velocity=75 time=0
EXTRACT: note_on channel=9 note=41 velocity=92 time=0
EXTRACT: note_on channel=9 note=47 velocity=92 time=0
EXTRACT: note_on channel=5 note=61 velocity=90 time=0
EXTRACT: note_on channel=5 note=66 velocity=90 time=0
EXTRACT: note_on channel=5 note=70 velocity=90 time=0
EXTRACT: note_on channel=10 note=61 velocity=90 time=0
EXTRACT: note_on channel=10 note=66 velocity=90 time=0
EXTRACT: note_on channel=10 note=70 velocity=90 time=0
EXTRACT: note_on channel=9 note=41 velocity=127 time=0.1339285
EXTRACT: note_on channel=9 note=47 velocity=127 time=0
EXTRACT: note_on channel=9 note=70 velocity=0 time=0.127232075
EXTRACT: note_on channel=9 note=41 velocity=0 time=0
EXTRACT: note_on channel=9 note=47 velocity=0 time=0
EXTRACT: note_on channel=9 note=70 velocity=75 time=0.006696425000000001
EXTRACT: note_on channel=9 note=41 velocity=92 time=0
EXTRACT: note_on channel=9 note=47 velocity=92 time=0
EXTRACT: note_on channel=0 note=70 velocity=0 time=0.04464283333333333
EXTRACT: note_on channel=1 note=61 velocity=0 time=0.08258924166666667
EXTRACT: note_on channel=1 note=66 velocity=0 time=0
EXTRACT: note_on channel=1 note=70 velocity=0 time=0
EXTRACT: note_on channel=9 note=70 velocity=0 time=0
EXTRACT: note_on channel=9 note=41 velocity=0 time=0
EXTRACT: note_on channel=9 note=47 velocity=0 time=0
EXTRACT: note_on channel=9 note=41 velocity=0 time=0
EXTRACT: note_on channel=9 note=47 velocity=0 time=0
EXTRACT: note_on channel=5 note=61 velocity=0 time=0
EXTRACT: note_on channel=5 note=66 velocity=0 time=0
EXTRACT: note_on channel=5 note=70 velocity=0 time=0
EXTRACT: note_on channel=10 note=61 velocity=0 time=0
EXTRACT: note_on channel=10 note=66 velocity=0 time=0
EXTRACT: note_on channel=10 note=70 velocity=0 time=0
EXTRACT: note_on channel=0 note=70 velocity=110 time=0.006696425000000001
EXTRACT: note_on channel=1 note=61 velocity=110 time=0
EXTRACT: note_on channel=1 note=66 velocity=110 time=0
EXTRACT: note_on channel=1 note=70 velocity=110 time=0
EXTRACT: note_on channel=9 note=70 velocity=75 time=0
EXTRACT: note_on channel=9 note=41 velocity=92 time=0
EXTRACT: note_on channel=9 note=47 velocity=92 time=0
EXTRACT: note_on channel=5 note=61 velocity=90 time=0
EXTRACT: note_on channel=5 note=66 velocity=90 time=0
EXTRACT: note_on channel=5 note=70 velocity=90 time=0
EXTRACT: note_on channel=10 note=61 velocity=90 time=0
EXTRACT: note_on channel=10 note=66 velocity=90 time=0
EXTRACT: note_on channel=10 note=70 velocity=90 time=0
EXTRACT: note_on channel=2 note=42 velocity=0 time=0.1339285
EXTRACT: note_on channel=6 note=42 velocity=0 time=0
EXTRACT: note_on channel=0 note=70 velocity=0 time=0.127232075
EXTRACT: note_on channel=1 note=61 velocity=0 time=0
EXTRACT: note_on channel=1 note=66 velocity=0 time=0
EXTRACT: note_on channel=1 note=70 velocity=0 time=0
EXTRACT: note_on channel=9 note=70 velocity=0 time=0
EXTRACT: note_on channel=9 note=41 velocity=0 time=0
EXTRACT: note_on channel=9 note=47 velocity=0 time=0
EXTRACT: note_on channel=5 note=61 velocity=0 time=0
EXTRACT: note_on channel=5 note=66 velocity=0 time=0
EXTRACT: note_on channel=5 note=70 velocity=0 time=0
EXTRACT: note_on channel=10 note=61 velocity=0 time=0
EXTRACT: note_on channel=10 note=66 velocity=0 time=0
EXTRACT: note_on channel=10 note=70 velocity=0 time=0
EXTRACT: note_on channel=0 note=66 velocity=110 time=0.006696425000000001
EXTRACT: note_on channel=1 note=63 velocity=110 time=0
EXTRACT: note_on channel=1 note=66 velocity=110 time=0
EXTRACT: note_on channel=1 note=71 velocity=110 time=0
EXTRACT: note_on channel=2 note=47 velocity=110 time=0
EXTRACT: note_on channel=9 note=70 velocity=75 time=0
EXTRACT: note_on channel=9 note=41 velocity=92 time=0
EXTRACT: note_on channel=9 note=47 velocity=92 time=0
EXTRACT: note_on channel=9 note=41 velocity=127 time=0
EXTRACT: note_on channel=9 note=47 velocity=127 time=0
EXTRACT: note_on channel=5 note=63 velocity=90 time=0
EXTRACT: note_on channel=5 note=66 velocity=90 time=0
EXTRACT: note_on channel=5 note=71 velocity=90 time=0
EXTRACT: note_on channel=10 note=63 velocity=90 time=0
EXTRACT: note_on channel=10 note=66 velocity=90 time=0
EXTRACT: note_on channel=10 note=71 velocity=90 time=0
EXTRACT: note_on channel=6 note=47 velocity=90 time=0
EXTRACT: note_on channel=9 note=70 velocity=0 time=0.261160575
EXTRACT: note_on channel=9 note=41 velocity=0 time=0
EXTRACT: note_on channel=9 note=47 velocity=0 time=0
EXTRACT: note_on channel=9 note=41 velocity=0 time=0
EXTRACT: note_on channel=9 note=47 velocity=0 time=0
EXTRACT: note_on channel=9 note=70 velocity=75 time=0.006696425000000001
EXTRACT: note_on channel=9 note=41 velocity=92 time=0
EXTRACT: note_on channel=9 note=47 velocity=92 time=0
EXTRACT: note_on channel=1 note=63 velocity=0 time=0.127232075
EXTRACT: note_on channel=1 note=66 velocity=0 time=0
EXTRACT: note_on channel=1 note=71 velocity=0 time=0
EXTRACT: note_on channel=9 note=70 velocity=0 time=0
EXTRACT: note_on channel=9 note=41 velocity=0 time=0
EXTRACT: note_on channel=9 note=47 velocity=0 time=0
EXTRACT: note_on channel=5 note=63 velocity=0 time=0
EXTRACT: note_on channel=5 note=66 velocity=0 time=0
EXTRACT: note_on channel=5 note=71 velocity=0 time=0
EXTRACT: note_on channel=10 note=63 velocity=0 time=0
EXTRACT: note_on channel=10 note=66 velocity=0 time=0
EXTRACT: note_on channel=10 note=71 velocity=0 time=0
EXTRACT: note_on channel=1 note=63 velocity=110 time=0.006696425000000001
EXTRACT: note_on channel=1 note=66 velocity=110 time=0
EXTRACT: note_on channel=1 note=71 velocity=110 time=0
EXTRACT: note_on channel=9 note=70 velocity=75 time=0
EXTRACT: note_on channel=9 note=41 velocity=92 time=0
EXTRACT: note_on channel=9 note=47 velocity=92 time=0
EXTRACT: note_on channel=5 note=63 velocity=90 time=0
EXTRACT: note_on channel=5 note=66 velocity=90 time=0
EXTRACT: note_on channel=5 note=71 velocity=90 time=0
EXTRACT: note_on channel=10 note=63 velocity=90 time=0
EXTRACT: note_on channel=10 note=66 velocity=90 time=0
EXTRACT: note_on channel=10 note=71 velocity=90 time=0
EXTRACT: note_on channel=2 note=47 velocity=0 time=0.04464283333333333
EXTRACT: note_on channel=6 note=47 velocity=0 time=0
EXTRACT: note_on channel=2 note=46 velocity=110 time=0.08928566666666667
EXTRACT: note_on channel=9 note=41 velocity=127 time=0
EXTRACT: note_on channel=9 note=47 velocity=127 time=0
EXTRACT: note_on channel=6 note=46 velocity=90 time=0
EXTRACT: note_on channel=9 note=70 velocity=0 time=0.127232075
EXTRACT: note_on channel=9 note=41 velocity=0 time=0
EXTRACT: note_on channel=9 note=47 velocity=0 time=0
EXTRACT: note_on channel=9 note=70 velocity=75 time=0.006696425000000001
EXTRACT: note_on channel=9 note=41 velocity=92 time=0
EXTRACT: note_on channel=9 note=47 velocity=92 time=0
EXTRACT: note_on channel=1 note=63 velocity=0 time=0.127232075
EXTRACT: note_on channel=1 note=66 velocity=0 time=0
EXTRACT: note_on channel=1 note=71 velocity=0 time=0
EXTRACT: note_on channel=9 note=70 velocity=0 time=0
EXTRACT: note_on channel=9 note=41 velocity=0 time=0
EXTRACT: note_on channel=9 note=47 velocity=0 time=0
EXTRACT: note_on channel=9 note=41 velocity=0 time=0
EXTRACT: note_on channel=9 note=47 velocity=0 time=0
EXTRACT: note_on channel=5 note=63 velocity=0 time=0
EXTRACT: note_on channel=5 note=66 velocity=0 time=0
EXTRACT: note_on channel=5 note=71 velocity=0 time=0
EXTRACT: note_on channel=10 note=63 velocity=0 time=0
EXTRACT: note_on channel=10 note=66 velocity=0 time=0
EXTRACT: note_on channel=10 note=71 velocity=0 time=0
EXTRACT: note_on channel=1 note=70 velocity=110 time=0.006696425000000001
EXTRACT: note_on channel=9 note=70 velocity=75 time=0
EXTRACT: note_on channel=9 note=41 velocity=92 time=0
EXTRACT: note_on channel=9 note=47 velocity=92 time=0
EXTRACT: note_on channel=5 note=70 velocity=90 time=0
EXTRACT: note_on channel=10 note=70 velocity=90 time=0
EXTRACT: note_on channel=0 note=66 velocity=0 time=0.1339285
EXTRACT: note_on channel=2 note=46 velocity=0 time=0.04464283333333333
EXTRACT: note_on channel=6 note=46 velocity=0 time=0
EXTRACT: note_on channel=1 note=70 velocity=0 time=0.08258924166666667
EXTRACT: note_on channel=9 note=70 velocity=0 time=0
EXTRACT: note_on channel=9 note=41 velocity=0 time=0
EXTRACT: note_on channel=9 note=47 velocity=0 time=0
EXTRACT: note_on channel=5 note=70 velocity=0 time=0
EXTRACT: note_on channel=10 note=70 velocity=0 time=0
EXTRACT: note_on channel=1 note=59 velocity=110 time=0.006696425000000001
EXTRACT: note_on channel=1 note=63 velocity=110 time=0
EXTRACT: note_on channel=1 note=66 velocity=110 time=0
EXTRACT: note_on channel=2 note=44 velocity=110 time=0
EXTRACT: note_on channel=9 note=70 velocity=75 time=0
EXTRACT: note_on channel=9 note=41 velocity=92 time=0
EXTRACT: note_on channel=9 note=47 velocity=92 time=0
EXTRACT: note_on channel=9 note=41 velocity=127 time=0
EXTRACT: note_on channel=9 note=47 velocity=127 time=0
EXTRACT: note_on channel=5 note=59 velocity=90 time=0
EXTRACT: note_on channel=5 note=63 velocity=90 time=0
EXTRACT: note_on channel=5 note=66 velocity=90 time=0
EXTRACT: note_on channel=10 note=59 velocity=90 time=0
EXTRACT: note_on channel=10 note=63 velocity=90 time=0
EXTRACT: note_on channel=10 note=66 velocity=90 time=0
EXTRACT: note_on channel=6 note=44 velocity=90 time=0
EXTRACT: note_on channel=9 note=70 velocity=0 time=0.261160575
EXTRACT: note_on channel=9 note=41 velocity=0 time=0
EXTRACT: note_on channel=9 note=47 velocity=0 time=0
EXTRACT: note_on channel=9 note=41 velocity=0 time=0
EXTRACT: note_on channel=9 note=47 velocity=0 time=0
EXTRACT: note_on channel=9 note=70 velocity=75 time=0.006696425000000001
EXTRACT: note_on channel=9 note=41 velocity=92 time=0
EXTRACT: note_on channel=9 note=47 velocity=92 time=0
EXTRACT: note_on channel=1 note=59 velocity=0 time=0.127232075
EXTRACT: note_on channel=1 note=63 velocity=0 time=0
EXTRACT: note_on channel=1 note=66 velocity=0 time=0
EXTRACT: note_on channel=9 note=70 velocity=0 time=0
EXTRACT: note_on channel=9 note=41 velocity=0 time=0
EXTRACT: note_on channel=9 note=47 velocity=0 time=0
EXTRACT: note_on channel=5 note=59 velocity=0 time=0
EXTRACT: note_on channel=5 note=63 velocity=0 time=0
EXTRACT: note_on channel=5 note=66 velocity=0 time=0
EXTRACT: note_on channel=10 note=59 velocity=0 time=0
EXTRACT: note_on channel=10 note=63 velocity=0 time=0
EXTRACT: note_on channel=10 note=66 velocity=0 time=0
EXTRACT: note_on channel=1 note=59 velocity=110 time=0.006696425000000001
EXTRACT: note_on channel=1 note=63 velocity=110 time=0
EXTRACT: note_on channel=1 note=66 velocity=110 time=0
EXTRACT: note_on channel=9 note=70 velocity=75 time=0
EXTRACT: note_on channel=9 note=41 velocity=92 time=0
EXTRACT: note_on channel=9 note=47 velocity=92 time=0
EXTRACT: note_on channel=5 note=59 velocity=90 time=0
EXTRACT: note_on channel=5 note=63 velocity=90 time=0
EXTRACT: note_on channel=5 note=66 velocity=90 time=0
EXTRACT: note_on channel=10 note=59 velocity=90 time=0
EXTRACT: note_on channel=10 note=63 velocity=90 time=0
EXTRACT: note_on channel=10 note=66 velocity=90 time=0
EXTRACT: note_on channel=9 note=41 velocity=127 time=0.1339285
EXTRACT: note_on channel=9 note=47 velocity=127 time=0
EXTRACT: note_on channel=9 note=70 velocity=0 time=0.127232075
EXTRACT: note_on channel=9 note=41 velocity=0 time=0
EXTRACT: note_on channel=9 note=47 velocity=0 time=0
EXTRACT: note_on channel=9 note=70 velocity=75 time=0.006696425000000001
EXTRACT: note_on channel=9 note=41 velocity=92 time=0
EXTRACT: note_on channel=9 note=47 velocity=92 time=0
EXTRACT: note_on channel=1 note=59 velocity=0 time=0.127232075
EXTRACT: note_on channel=1 note=63 velocity=0 time=0
EXTRACT: note_on channel=1 note=66 velocity=0 time=0
EXTRACT: note_on channel=9 note=70 velocity=0 time=0
EXTRACT: note_on channel=9 note=41 velocity=0 time=0
EXTRACT: note_on channel=9 note=47 velocity=0 time=0
EXTRACT: note_on channel=9 note=41 velocity=0 time=0
EXTRACT: note_on channel=9 note=47 velocity=0 time=0
EXTRACT: note_on channel=5 note=59 velocity=0 time=0
EXTRACT: note_on channel=5 note=63 velocity=0 time=0
EXTRACT: note_on channel=5 note=66 velocity=0 time=0
EXTRACT: note_on channel=10 note=59 velocity=0 time=0
EXTRACT: note_on channel=10 note=63 velocity=0 time=0
EXTRACT: note_on channel=10 note=66 velocity=0 time=0
EXTRACT: note_on channel=1 note=59 velocity=110 time=0.006696425000000001
EXTRACT: note_on channel=1 note=63 velocity=110 time=0
EXTRACT: note_on channel=1 note=66 velocity=110 time=0
EXTRACT: note_on channel=9 note=70 velocity=75 time=0
EXTRACT: note_on channel=9 note=41 velocity=92 time=0
EXTRACT: note_on channel=9 note=47 velocity=92 time=0
EXTRACT: note_on channel=5 note=59 velocity=90 time=0
EXTRACT: note_on channel=5 note=63 velocity=90 time=0
EXTRACT: note_on channel=5 note=66 velocity=90 time=0
EXTRACT: note_on channel=10 note=59 velocity=90 time=0
EXTRACT: note_on channel=10 note=63 velocity=90 time=0
EXTRACT: note_on channel=10 note=66 velocity=90 time=0
EXTRACT: note_on channel=2 note=44 velocity=0 time=0.1339285
EXTRACT: note_on channel=6 note=44 velocity=0 time=0
EXTRACT: note_on channel=1 note=59 velocity=0 time=0.127232075
EXTRACT: note_on channel=1 note=63 velocity=0 time=0
EXTRACT: note_on channel=1 note=66 velocity=0 time=0
EXTRACT: note_on channel=9 note=70 velocity=0 time=0
EXTRACT: note_on channel=9 note=41 velocity=0 time=0
EXTRACT: note_on channel=9 note=47 velocity=0 time=0
EXTRACT: note_on channel=5 note=59 velocity=0 time=0
EXTRACT: note_on channel=5 note=63 velocity=0 time=0
EXTRACT: note_on channel=5 note=66 velocity=0 time=0
EXTRACT: note_on channel=10 note=59 velocity=0 time=0
EXTRACT: note_on channel=10 note=63 velocity=0 time=0
EXTRACT: note_on channel=10 note=66 velocity=0 time=0
EXTRACT: note_on channel=1 note=59 velocity=110 time=0.006696425000000001
EXTRACT: note_on channel=1 note=61 velocity=110 time=0
EXTRACT: note_on channel=1 note=66 velocity=110 time=0
EXTRACT: note_on channel=2 note=49 velocity=110 time=0
EXTRACT: note_on channel=9 note=70 velocity=75 time=0
EXTRACT: note_on channel=9 note=41 velocity=92 time=0
EXTRACT: note_on channel=9 note=47 velocity=92 time=0
EXTRACT: note_on channel=9 note=41 velocity=127 time=0
EXTRACT: note_on channel=9 note=47 velocity=127 time=0
EXTRACT: note_on channel=5 note=59 velocity=90 time=0
EXTRACT: note_on channel=5 note=61 velocity=90 time=0
EXTRACT: note_on channel=5 note=66 velocity=90 time=0
EXTRACT: note_on channel=10 note=59 velocity=90 time=0
EXTRACT: note_on channel=10 note=61 velocity=90 time=0
EXTRACT: note_on channel=10 note=66 velocity=90 time=0
EXTRACT: note_on channel=6 note=49 velocity=90 time=0
EXTRACT: note_on channel=9 note=70 velocity=0 time=0.261160575
EXTRACT: note_on channel=9 note=41 velocity=0 time=0
EXTRACT: note_on channel=9 note=47 velocity=0 time=0
EXTRACT: note_on channel=9 note=41 velocity=0 time=0
EXTRACT: note_on channel=9 note=47 velocity=0 time=0
EXTRACT: note_on channel=9 note=70 velocity=75 time=0.006696425000000001
EXTRACT: note_on channel=9 note=41 velocity=92 time=0
EXTRACT: note_on channel=9 note=47 velocity=92 time=0
EXTRACT: note_on channel=1 note=59 velocity=0 time=0.127232075
EXTRACT: note_on channel=1 note=61 velocity=0 time=0
EXTRACT: note_on channel=1 note=66 velocity=0 time=0
EXTRACT: note_on channel=9 note=70 velocity=0 time=0
EXTRACT: note_on channel=9 note=41 velocity=0 time=0
EXTRACT: note_on channel=9 note=47 velocity=0 time=0
EXTRACT: note_on channel=5 note=59 velocity=0 time=0
EXTRACT: note_on channel=5 note=61 velocity=0 time=0
EXTRACT: note_on channel=5 note=66 velocity=0 time=0
EXTRACT: note_on channel=10 note=59 velocity=0 time=0
EXTRACT: note_on channel=10 note=61 velocity=0 time=0
EXTRACT: note_on channel=10 note=66 velocity=0 time=0
EXTRACT: note_on channel=1 note=59 velocity=110 time=0.006696425000000001
EXTRACT: note_on channel=1 note=61 velocity=110 time=0
EXTRACT: note_on channel=1 note=66 velocity=110 time=0
EXTRACT: note_on channel=9 note=70 velocity=75 time=0
EXTRACT: note_on channel=9 note=41 velocity=92 time=0
EXTRACT: note_on channel=9 note=47 velocity=92 time=0
EXTRACT: note_on channel=5 note=59 velocity=90 time=0
EXTRACT: note_on channel=5 note=61 velocity=90 time=0
EXTRACT: note_on channel=5 note=66 velocity=90 time=0
EXTRACT: note_on channel=10 note=59 velocity=90 time=0
EXTRACT: note_on channel=10 note=61 velocity=90 time=0
EXTRACT: note_on channel=10 note=66 velocity=90 time=0
EXTRACT: note_on channel=9 note=41 velocity=127 time=0.1339285
EXTRACT: note_on channel=9 note=47 velocity=127 time=0
EXTRACT: note_on channel=9 note=70 velocity=0 time=0.127232075
EXTRACT: note_on channel=9 note=41 velocity=0 time=0
EXTRACT: note_on channel=9 note=47 velocity=0 time=0
EXTRACT: note_on channel=9 note=70 velocity=75 time=0.006696425000000001
EXTRACT: note_on channel=9 note=41 velocity=92 time=0
EXTRACT: note_on channel=9 note=47 velocity=92 time=0
EXTRACT: note_on channel=1 note=59 velocity=0 time=0.127232075
EXTRACT: note_on channel=1 note=61 velocity=0 time=0
EXTRACT: note_on channel=1 note=66 velocity=0 time=0
EXTRACT: note_on channel=9 note=70 velocity=0 time=0
EXTRACT: note_on channel=9 note=41 velocity=0 time=0
EXTRACT: note_on channel=9 note=47 velocity=0 time=0
EXTRACT: note_on channel=9 note=41 velocity=0 time=0
EXTRACT: note_on channel=9 note=47 velocity=0 time=0
EXTRACT: note_on channel=5 note=59 velocity=0 time=0
EXTRACT: note_on channel=5 note=61 velocity=0 time=0
EXTRACT: note_on channel=5 note=66 velocity=0 time=0
EXTRACT: note_on channel=10 note=59 velocity=0 time=0
EXTRACT: note_on channel=10 note=61 velocity=0 time=0
EXTRACT: note_on channel=10 note=66 velocity=0 time=0
EXTRACT: note_on channel=1 note=59 velocity=110 time=0.006696425000000001
EXTRACT: note_on channel=1 note=61 velocity=110 time=0
EXTRACT: note_on channel=1 note=65 velocity=110 time=0
EXTRACT: note_on channel=9 note=70 velocity=75 time=0
EXTRACT: note_on channel=9 note=41 velocity=92 time=0
EXTRACT: note_on channel=9 note=47 velocity=92 time=0
EXTRACT: note_on channel=5 note=59 velocity=90 time=0
EXTRACT: note_on channel=5 note=61 velocity=90 time=0
EXTRACT: note_on channel=5 note=65 velocity=90 time=0
EXTRACT: note_on channel=10 note=59 velocity=90 time=0
EXTRACT: note_on channel=10 note=61 velocity=90 time=0
EXTRACT: note_on channel=10 note=65 velocity=90 time=0
EXTRACT: note_on channel=2 note=49 velocity=0 time=0.1339285
EXTRACT: note_on channel=6 note=49 velocity=0 time=0
EXTRACT: note_on channel=1 note=59 velocity=0 time=0.127232075
EXTRACT: note_on channel=1 note=61 velocity=0 time=0
EXTRACT: note_on channel=1 note=65 velocity=0 time=0
EXTRACT: note_on channel=9 note=70 velocity=0 time=0
EXTRACT: note_on channel=9 note=41 velocity=0 time=0
EXTRACT: note_on channel=9 note=47 velocity=0 time=0
EXTRACT: note_on channel=5 note=59 velocity=0 time=0
EXTRACT: note_on channel=5 note=61 velocity=0 time=0
EXTRACT: note_on channel=5 note=65 velocity=0 time=0
EXTRACT: note_on channel=10 note=59 velocity=0 time=0
EXTRACT: note_on channel=10 note=61 velocity=0 time=0
EXTRACT: note_on channel=10 note=65 velocity=0 time=0
EXTRACT: note_on channel=1 note=66 velocity=110 time=0.006696425000000001
EXTRACT: note_on channel=1 note=70 velocity=110 time=0
EXTRACT: note_on channel=2 note=42 velocity=110 time=0
EXTRACT: note_on channel=9 note=70 velocity=75 time=0
EXTRACT: note_on channel=9 note=41 velocity=92 time=0
EXTRACT: note_on channel=9 note=47 velocity=92 time=0
EXTRACT: note_on channel=9 note=41 velocity=127 time=0
EXTRACT: note_on channel=9 note=47 velocity=127 time=0
EXTRACT: note_on channel=5 note=66 velocity=90 time=0
EXTRACT: note_on channel=5 note=70 velocity=90 time=0
EXTRACT: note_on channel=10 note=66 velocity=90 time=0
EXTRACT: note_on channel=10 note=70 velocity=90 time=0
EXTRACT: note_on channel=6 note=42 velocity=90 time=0
EXTRACT: note_on channel=1 note=66 velocity=0 time=0.261160575
EXTRACT: note_on channel=1 note=70 velocity=0 time=0
EXTRACT: note_on channel=9 note=70 velocity=0 time=0
EXTRACT: note_on channel=9 note=41 velocity=0 time=0
EXTRACT: note_on channel=9 note=47 velocity=0 time=0
EXTRACT: note_on channel=9 note=41 velocity=0 time=0
EXTRACT: note_on channel=9 note=47 velocity=0 time=0
EXTRACT: note_on channel=5 note=66 velocity=0 time=0
EXTRACT: note_on channel=5 note=70 velocity=0 time=0
EXTRACT: note_on channel=10 note=66 velocity=0 time=0
EXTRACT: note_on channel=10 note=70 velocity=0 time=0
EXTRACT: note_on channel=0 note=78 velocity=110 time=0.006696425000000001
EXTRACT: note_on channel=1 note=78 velocity=110 time=0
EXTRACT: note_on channel=9 note=70 velocity=75 time=0
EXTRACT: note_on channel=9 note=41 velocity=92 time=0
EXTRACT: note_on channel=9 note=47 velocity=92 time=0
EXTRACT: note_on channel=5 note=78 velocity=90 time=0
EXTRACT: note_on channel=10 note=78 velocity=90 time=0
EXTRACT: note_on channel=0 note=78 velocity=0 time=0.127232075
EXTRACT: note_on channel=1 note=78 velocity=0 time=0
EXTRACT: note_on channel=9 note=70 velocity=0 time=0
EXTRACT: note_on channel=9 note=41 velocity=0 time=0
EXTRACT: note_on channel=9 note=47 velocity=0 time=0
EXTRACT: note_on channel=5 note=78 velocity=0 time=0
EXTRACT: note_on channel=10 note=78 velocity=0 time=0
EXTRACT: note_on channel=0 note=78 velocity=110 time=0.006696425000000001
EXTRACT: note_on channel=1 note=78 velocity=110 time=0
EXTRACT: note_on channel=9 note=70 velocity=75 time=0
EXTRACT: note_on channel=9 note=41 velocity=92 time=0
EXTRACT: note_on channel=9 note=47 velocity=92 time=0
EXTRACT: note_on channel=5 note=78 velocity=90 time=0
EXTRACT: note_on channel=10 note=78 velocity=90 time=0
EXTRACT: note_on channel=0 note=78 velocity=0 time=0.127232075
EXTRACT: note_on channel=1 note=78 velocity=0 time=0
EXTRACT: note_on channel=5 note=78 velocity=0 time=0
EXTRACT: note_on channel=10 note=78 velocity=0 time=0
EXTRACT: note_on channel=0 note=78 velocity=110 time=0.006696425000000001
EXTRACT: note_on channel=1 note=78 velocity=110 time=0
EXTRACT: note_on channel=9 note=41 velocity=127 time=0
EXTRACT: note_on channel=9 note=47 velocity=127 time=0
EXTRACT: note_on channel=5 note=78 velocity=90 time=0
EXTRACT: note_on channel=10 note=78 velocity=90 time=0
EXTRACT: note_on channel=9 note=70 velocity=0 time=0.127232075
EXTRACT: note_on channel=9 note=41 velocity=0 time=0
EXTRACT: note_on channel=9 note=47 velocity=0 time=0
EXTRACT: note_on channel=9 note=70 velocity=75 time=0.006696425000000001
EXTRACT: note_on channel=9 note=41 velocity=92 time=0
EXTRACT: note_on channel=9 note=47 velocity=92 time=0
EXTRACT: note_on channel=0 note=78 velocity=0 time=0.127232075
EXTRACT: note_on channel=1 note=78 velocity=0 time=0
EXTRACT: note_on channel=9 note=70 velocity=0 time=0
EXTRACT: note_on channel=9 note=41 velocity=0 time=0
EXTRACT: note_on channel=9 note=47 velocity=0 time=0
EXTRACT: note_on channel=9 note=41 velocity=0 time=0
EXTRACT: note_on channel=9 note=47 velocity=0 time=0
EXTRACT: note_on channel=5 note=78 velocity=0 time=0
EXTRACT: note_on channel=10 note=78 velocity=0 time=0
EXTRACT: note_on channel=0 note=73 velocity=110 time=0.006696425000000001
EXTRACT: note_on channel=1 note=73 velocity=110 time=0
EXTRACT: note_on channel=9 note=70 velocity=75 time=0
EXTRACT: note_on channel=9 note=41 velocity=92 time=0
EXTRACT: note_on channel=9 note=47 velocity=92 time=0
EXTRACT: note_on channel=5 note=73 velocity=90 time=0
EXTRACT: note_on channel=10 note=73 velocity=90 time=0
EXTRACT: note_on channel=2 note=42 velocity=0 time=0.1339285
EXTRACT: note_on channel=6 note=42 velocity=0 time=0
EXTRACT: note_on channel=0 note=73 velocity=0 time=0.127232075
EXTRACT: note_on channel=1 note=73 velocity=0 time=0
EXTRACT: note_on channel=9 note=70 velocity=0 time=0
EXTRACT: note_on channel=9 note=41 velocity=0 time=0
EXTRACT: note_on channel=9 note=47 velocity=0 time=0
EXTRACT: note_on channel=5 note=73 velocity=0 time=0
EXTRACT: note_on channel=10 note=73 velocity=0 time=0
EXTRACT: note_on channel=0 note=73 velocity=110 time=0.006696425000000001
EXTRACT: note_on channel=1 note=66 velocity=110 time=0
EXTRACT: note_on channel=1 note=73 velocity=110 time=0
EXTRACT: note_on channel=2 note=47 velocity=110 time=0
EXTRACT: note_on channel=9 note=70 velocity=75 time=0
EXTRACT: note_on channel=9 note=41 velocity=92 time=0
EXTRACT: note_on channel=9 note=47 velocity=92 time=0
EXTRACT: note_on channel=9 note=41 velocity=127 time=0
EXTRACT: note_on channel=9 note=47 velocity=127 time=0
EXTRACT: note_on channel=5 note=66 velocity=90 time=0
EXTRACT: note_on channel=5 note=73 velocity=90 time=0
EXTRACT: note_on channel=10 note=66 velocity=90 time=0
EXTRACT: note_on channel=10 note=73 velocity=90 time=0
EXTRACT: note_on channel=6 note=47 velocity=90 time=0
EXTRACT: note_on channel=0 note=73 velocity=0 time=0.261160575
EXTRACT: note_on channel=1 note=66 velocity=0 time=0
EXTRACT: note_on channel=1 note=73 velocity=0 time=0
EXTRACT: note_on channel=9 note=70 velocity=0 time=0
EXTRACT: note_on channel=9 note=41 velocity=0 time=0
EXTRACT: note_on channel=9 note=47 velocity=0 time=0
EXTRACT: note_on channel=9 note=41 velocity=0 time=0
EXTRACT: note_on channel=9 note=47 velocity=0 time=0
EXTRACT: note_on channel=5 note=66 velocity=0 time=0
EXTRACT: note_on channel=5 note=73 velocity=0 time=0
EXTRACT: note_on channel=10 note=66 velocity=0 time=0
EXTRACT: note_on channel=10 note=73 velocity=0 time=0
EXTRACT: note_on channel=0 note=73 velocity=110 time=0.006696425000000001
EXTRACT: note_on channel=1 note=73 velocity=110 time=0
EXTRACT: note_on channel=9 note=70 velocity=75 time=0
EXTRACT: note_on channel=9 note=41 velocity=92 time=0
EXTRACT: note_on channel=9 note=47 velocity=92 time=0
EXTRACT: note_on channel=5 note=73 velocity=90 time=0
EXTRACT: note_on channel=10 note=73 velocity=90 time=0
EXTRACT: note_on channel=0 note=73 velocity=0 time=0.127232075
EXTRACT: note_on channel=1 note=73 velocity=0 time=0
EXTRACT: note_on channel=9 note=70 velocity=0 time=0
EXTRACT: note_on channel=9 note=41 velocity=0 time=0
EXTRACT: note_on channel=9 note=47 velocity=0 time=0
EXTRACT: note_on channel=5 note=73 velocity=0 time=0
EXTRACT: note_on channel=10 note=73 velocity=0 time=0
EXTRACT: note_on channel=0 note=75 velocity=110 time=0.006696425000000001
EXTRACT: note_on channel=1 note=75 velocity=110 time=0
EXTRACT: note_on channel=9 note=70 velocity=75 time=0
EXTRACT: note_on channel=9 note=41 velocity=92 time=0
EXTRACT: note_on channel=9 note=47 velocity=92 time=0
EXTRACT: note_on channel=5 note=75 velocity=90 time=0
EXTRACT: note_on channel=10 note=75 velocity=90 time=0
EXTRACT: note_on channel=2 note=47 velocity=0 time=0.04464283333333333
EXTRACT: note_on channel=6 note=47 velocity=0 time=0
EXTRACT: note_on channel=2 note=46 velocity=110 time=0.08928566666666667
EXTRACT: note_on channel=9 note=41 velocity=127 time=0
EXTRACT: note_on channel=9 note=47 velocity=127 time=0
EXTRACT: note_on channel=6 note=46 velocity=90 time=0
EXTRACT: note_on channel=0 note=75 velocity=0 time=0.127232075
EXTRACT: note_on channel=1 note=75 velocity=0 time=0
EXTRACT: note_on channel=9 note=70 velocity=0 time=0
EXTRACT: note_on channel=9 note=41 velocity=0 time=0
EXTRACT: note_on channel=9 note=47 velocity=0 time=0
EXTRACT: note_on channel=5 note=75 velocity=0 time=0
EXTRACT: note_on channel=10 note=75 velocity=0 time=0
EXTRACT: note_on channel=0 note=75 velocity=110 time=0.006696425000000001
EXTRACT: note_on channel=1 note=75 velocity=110 time=0
EXTRACT: note_on channel=9 note=70 velocity=75 time=0
EXTRACT: note_on channel=9 note=41 velocity=92 time=0
EXTRACT: note_on channel=9 note=47 velocity=92 time=0
EXTRACT: note_on channel=5 note=75 velocity=90 time=0
EXTRACT: note_on channel=10 note=75 velocity=90 time=0
EXTRACT: note_on channel=0 note=75 velocity=0 time=0.127232075
EXTRACT: note_on channel=1 note=75 velocity=0 time=0
EXTRACT: note_on channel=9 note=70 velocity=0 time=0
EXTRACT: note_on channel=9 note=41 velocity=0 time=0
EXTRACT: note_on channel=9 note=47 velocity=0 time=0
EXTRACT: note_on channel=9 note=41 velocity=0 time=0
EXTRACT: note_on channel=9 note=47 velocity=0 time=0
EXTRACT: note_on channel=5 note=75 velocity=0 time=0
EXTRACT: note_on channel=10 note=75 velocity=0 time=0
EXTRACT: note_on channel=0 note=73 velocity=110 time=0.006696425000000001
EXTRACT: note_on channel=1 note=73 velocity=110 time=0
EXTRACT: note_on channel=9 note=70 velocity=75 time=0
EXTRACT: note_on channel=9 note=41 velocity=92 time=0
EXTRACT: note_on channel=9 note=47 velocity=92 time=0
EXTRACT: note_on channel=5 note=73 velocity=90 time=0
EXTRACT: note_on channel=10 note=73 velocity=90 time=0
EXTRACT: note_on channel=2 note=46 velocity=0 time=0.17857133333333333
EXTRACT: note_on channel=6 note=46 velocity=0 time=0
EXTRACT: note_on channel=0 note=73 velocity=0 time=0.08258924166666667
EXTRACT: note_on channel=1 note=73 velocity=0 time=0
EXTRACT: note_on channel=9 note=70 velocity=0 time=0
EXTRACT: note_on channel=9 note=41 velocity=0 time=0
EXTRACT: note_on channel=9 note=47 velocity=0 time=0
EXTRACT: note_on channel=5 note=73 velocity=0 time=0
EXTRACT: note_on channel=10 note=73 velocity=0 time=0
EXTRACT: note_on channel=1 note=68 velocity=110 time=0.006696425000000001
EXTRACT: note_on channel=1 note=71 velocity=110 time=0
EXTRACT: note_on channel=2 note=44 velocity=110 time=0
EXTRACT: note_on channel=9 note=70 velocity=75 time=0
EXTRACT: note_on channel=9 note=41 velocity=92 time=0
EXTRACT: note_on channel=9 note=47 velocity=92 time=0
EXTRACT: note_on channel=9 note=41 velocity=127 time=0
EXTRACT: note_on channel=9 note=47 velocity=127 time=0
EXTRACT: note_on channel=5 note=68 velocity=90 time=0
EXTRACT: note_on channel=5 note=71 velocity=90 time=0
EXTRACT: note_on channel=10 note=68 velocity=90 time=0
EXTRACT: note_on channel=10 note=71 velocity=90 time=0
EXTRACT: note_on channel=6 note=44 velocity=90 time=0
EXTRACT: note_on channel=1 note=68 velocity=0 time=0.261160575
EXTRACT: note_on channel=1 note=71 velocity=0 time=0
EXTRACT: note_on channel=9 note=70 velocity=0 time=0
EXTRACT: note_on channel=9 note=41 velocity=0 time=0
EXTRACT: note_on channel=9 note=47 velocity=0 time=0
EXTRACT: note_on channel=9 note=41 velocity=0 time=0
EXTRACT: note_on channel=9 note=47 velocity=0 time=0
EXTRACT: note_on channel=5 note=68 velocity=0 time=0
EXTRACT: note_on channel=5 note=71 velocity=0 time=0
EXTRACT: note_on channel=10 note=68 velocity=0 time=0
EXTRACT: note_on channel=10 note=71 velocity=0 time=0
EXTRACT: note_on channel=0 note=78 velocity=110 time=0.006696425000000001
EXTRACT: note_on channel=1 note=78 velocity=110 time=0
EXTRACT: note_on channel=9 note=70 velocity=75 time=0
EXTRACT: note_on channel=9 note=41 velocity=92 time=0
EXTRACT: note_on channel=9 note=47 velocity=92 time=0
EXTRACT: note_on channel=5 note=78 velocity=90 time=0
EXTRACT: note_on channel=10 note=78 velocity=90 time=0
EXTRACT: note_on channel=0 note=78 velocity=0 time=0.127232075
EXTRACT: note_on channel=1 note=78 velocity=0 time=0
EXTRACT: note_on channel=9 note=70 velocity=0 time=0
EXTRACT: note_on channel=9 note=41 velocity=0 time=0
EXTRACT: note_on channel=9 note=47 velocity=0 time=0
EXTRACT: note_on channel=5 note=78 velocity=0 time=0
EXTRACT: note_on channel=10 note=78 velocity=0 time=0
EXTRACT: note_on channel=0 note=78 velocity=110 time=0.006696425000000001
EXTRACT: note_on channel=1 note=78 velocity=110 time=0
EXTRACT: note_on channel=9 note=70 velocity=75 time=0
EXTRACT: note_on channel=9 note=41 velocity=92 time=0
EXTRACT: note_on channel=9 note=47 velocity=92 time=0
EXTRACT: note_on channel=5 note=78 velocity=90 time=0
EXTRACT: note_on channel=10 note=78 velocity=90 time=0
EXTRACT: note_on channel=0 note=78 velocity=0 time=0.127232075
EXTRACT: note_on channel=1 note=78 velocity=0 time=0
EXTRACT: note_on channel=5 note=78 velocity=0 time=0
EXTRACT: note_on channel=10 note=78 velocity=0 time=0
EXTRACT: note_on channel=0 note=78 velocity=110 time=0.006696425000000001
EXTRACT: note_on channel=1 note=78 velocity=110 time=0
EXTRACT: note_on channel=9 note=41 velocity=127 time=0
EXTRACT: note_on channel=9 note=47 velocity=127 time=0
EXTRACT: note_on channel=5 note=78 velocity=90 time=0
EXTRACT: note_on channel=10 note=78 velocity=90 time=0
EXTRACT: note_on channel=9 note=70 velocity=0 time=0.127232075
EXTRACT: note_on channel=9 note=41 velocity=0 time=0
EXTRACT: note_on channel=9 note=47 velocity=0 time=0
EXTRACT: note_on channel=9 note=70 velocity=75 time=0.006696425000000001
EXTRACT: note_on channel=9 note=41 velocity=92 time=0
EXTRACT: note_on channel=9 note=47 velocity=92 time=0
EXTRACT: note_on channel=0 note=78 velocity=0 time=0.127232075
EXTRACT: note_on channel=1 note=78 velocity=0 time=0
EXTRACT: note_on channel=9 note=70 velocity=0 time=0
EXTRACT: note_on channel=9 note=41 velocity=0 time=0
EXTRACT: note_on channel=9 note=47 velocity=0 time=0
EXTRACT: note_on channel=9 note=41 velocity=0 time=0
EXTRACT: note_on channel=9 note=47 velocity=0 time=0
EXTRACT: note_on channel=5 note=78 velocity=0 time=0
EXTRACT: note_on channel=10 note=78 velocity=0 time=0
EXTRACT: note_on channel=0 note=73 velocity=110 time=0.006696425000000001
EXTRACT: note_on channel=1 note=73 velocity=110 time=0
EXTRACT: note_on channel=9 note=70 velocity=75 time=0
EXTRACT: note_on channel=9 note=41 velocity=92 time=0
EXTRACT: note_on channel=9 note=47 velocity=92 time=0
EXTRACT: note_on channel=5 note=73 velocity=90 time=0
EXTRACT: note_on channel=10 note=73 velocity=90 time=0
EXTRACT: note_on channel=2 note=44 velocity=0 time=0.1339285
EXTRACT: note_on channel=6 note=44 velocity=0 time=0
EXTRACT: note_on channel=0 note=73 velocity=0 time=0.127232075
EXTRACT: note_on channel=1 note=73 velocity=0 time=0
EXTRACT: note_on channel=9 note=70 velocity=0 time=0
EXTRACT: note_on channel=9 note=41 velocity=0 time=0
EXTRACT: note_on channel=9 note=47 velocity=0 time=0
EXTRACT: note_on channel=5 note=73 velocity=0 time=0
EXTRACT: note_on channel=10 note=73 velocity=0 time=0
EXTRACT: note_on channel=0 note=73 velocity=110 time=0.006696425000000001
EXTRACT: note_on channel=1 note=66 velocity=110 time=0
EXTRACT: note_on channel=1 note=68 velocity=110 time=0
EXTRACT: note_on channel=1 note=73 velocity=110 time=0
EXTRACT: note_on channel=2 note=49 velocity=110 time=0
EXTRACT: note_on channel=9 note=70 velocity=75 time=0
EXTRACT: note_on channel=9 note=41 velocity=92 time=0
EXTRACT: note_on channel=9 note=47 velocity=92 time=0
EXTRACT: note_on channel=9 note=41 velocity=127 time=0
EXTRACT: note_on channel=9 note=47 velocity=127 time=0
EXTRACT: note_on channel=5 note=66 velocity=90 time=0
EXTRACT: note_on channel=5 note=68 velocity=90 time=0
EXTRACT: note_on channel=5 note=73 velocity=90 time=0
EXTRACT: note_on channel=10 note=66 velocity=90 time=0
EXTRACT: note_on channel=10 note=68 velocity=90 time=0
EXTRACT: note_on channel=10 note=73 velocity=90 time=0
EXTRACT: note_on channel=6 note=49 velocity=90 time=0
EXTRACT: note_on channel=9 note=70 velocity=0 time=0.261160575
EXTRACT: note_on channel=9 note=41 velocity=0 time=0
EXTRACT: note_on channel=9 note=47 velocity=0 time=0
EXTRACT: note_on channel=9 note=41 velocity=0 time=0
EXTRACT: note_on channel=9 note=47 velocity=0 time=0
EXTRACT: note_on channel=9 note=70 velocity=75 time=0.006696425000000001
EXTRACT: note_on channel=9 note=41 velocity=92 time=0
EXTRACT: note_on channel=9 note=47 velocity=92 time=0
EXTRACT: note_on channel=0 note=73 velocity=0 time=0.127232075
EXTRACT: note_on channel=1 note=66 velocity=0 time=0
EXTRACT: note_on channel=1 note=68 velocity=0 time=0
EXTRACT: note_on channel=1 note=73 velocity=0 time=0
EXTRACT: note_on channel=9 note=70 velocity=0 time=0
EXTRACT: note_on channel=9 note=41 velocity=0 time=0
EXTRACT: note_on channel=9 note=47 velocity=0 time=0
EXTRACT: note_on channel=5 note=66 velocity=0 time=0
EXTRACT: note_on channel=5 note=68 velocity=0 time=0
EXTRACT: note_on channel=5 note=73 velocity=0 time=0
EXTRACT: note_on channel=10 note=66 velocity=0 time=0
EXTRACT: note_on channel=10 note=68 velocity=0 time=0
EXTRACT: note_on channel=10 note=73 velocity=0 time=0
EXTRACT: note_on channel=0 note=73 velocity=110 time=0.006696425000000001
EXTRACT: note_on channel=1 note=73 velocity=110 time=0
EXTRACT: note_on channel=9 note=70 velocity=75 time=0
EXTRACT: note_on channel=9 note=41 velocity=92 time=0
EXTRACT: note_on channel=9 note=47 velocity=92 time=0
EXTRACT: note_on channel=5 note=73 velocity=90 time=0
EXTRACT: note_on channel=10 note=73 velocity=90 time=0
EXTRACT: note_on channel=9 note=41 velocity=127 time=0.1339285
EXTRACT: note_on channel=9 note=47 velocity=127 time=0
EXTRACT: note_on channel=9 note=70 velocity=0 time=0.127232075
EXTRACT: note_on channel=9 note=41 velocity=0 time=0
EXTRACT: note_on channel=9 note=47 velocity=0 time=0
EXTRACT: note_on channel=9 note=70 velocity=75 time=0.006696425000000001
EXTRACT: note_on channel=9 note=41 velocity=92 time=0
EXTRACT: note_on channel=9 note=47 velocity=92 time=0
EXTRACT: note_on channel=0 note=73 velocity=0 time=0.127232075
EXTRACT: note_on channel=1 note=73 velocity=0 time=0
EXTRACT: note_on channel=9 note=70 velocity=0 time=0
EXTRACT: note_on channel=9 note=41 velocity=0 time=0
EXTRACT: note_on channel=9 note=47 velocity=0 time=0
EXTRACT: note_on channel=9 note=41 velocity=0 time=0
EXTRACT: note_on channel=9 note=47 velocity=0 time=0
EXTRACT: note_on channel=5 note=73 velocity=0 time=0
EXTRACT: note_on channel=10 note=73 velocity=0 time=0
EXTRACT: note_on channel=0 note=83 velocity=110 time=0.006696425000000001
EXTRACT: note_on channel=1 note=83 velocity=110 time=0
EXTRACT: note_on channel=9 note=70 velocity=75 time=0
EXTRACT: note_on channel=9 note=41 velocity=92 time=0
EXTRACT: note_on channel=9 note=47 velocity=92 time=0
EXTRACT: note_on channel=5 note=83 velocity=90 time=0
EXTRACT: note_on channel=10 note=83 velocity=90 time=0
EXTRACT: note_on channel=2 note=49 velocity=0 time=0.1339285
EXTRACT: note_on channel=6 note=49 velocity=0 time=0
EXTRACT: note_on channel=0 note=83 velocity=0 time=0.127232075
EXTRACT: note_on channel=1 note=83 velocity=0 time=0
EXTRACT: note_on channel=9 note=70 velocity=0 time=0
EXTRACT: note_on channel=9 note=41 velocity=0 time=0
EXTRACT: note_on channel=9 note=47 velocity=0 time=0
EXTRACT: note_on channel=5 note=83 velocity=0 time=0
EXTRACT: note_on channel=10 note=83 velocity=0 time=0
EXTRACT: note_on channel=0 note=82 velocity=110 time=0.006696425000000001
EXTRACT: note_on channel=1 note=73 velocity=110 time=0
EXTRACT: note_on channel=1 note=78 velocity=110 time=0
EXTRACT: note_on channel=1 note=82 velocity=110 time=0
EXTRACT: note_on channel=2 note=42 velocity=110 time=0
EXTRACT: note_on channel=9 note=70 velocity=75 time=0
EXTRACT: note_on channel=9 note=41 velocity=92 time=0
EXTRACT: note_on channel=9 note=47 velocity=92 time=0
EXTRACT: note_on channel=9 note=41 velocity=127 time=0
EXTRACT: note_on channel=9 note=47 velocity=127 time=0
EXTRACT: note_on channel=5 note=73 velocity=90 time=0
EXTRACT: note_on channel=5 note=78 velocity=90 time=0
EXTRACT: note_on channel=5 note=82 velocity=90 time=0
EXTRACT: note_on channel=10 note=73 velocity=90 time=0
EXTRACT: note_on channel=10 note=78 velocity=90 time=0
EXTRACT: note_on channel=10 note=82 velocity=90 time=0
EXTRACT: note_on channel=6 note=42 velocity=90 time=0
EXTRACT: note_on channel=9 note=70 velocity=0 time=0.261160575
EXTRACT: note_on channel=9 note=41 velocity=0 time=0
EXTRACT: note_on channel=9 note=47 velocity=0 time=0
EXTRACT: note_on channel=9 note=41 velocity=0 time=0
EXTRACT: note_on channel=9 note=47 velocity=0 time=0
EXTRACT: note_on channel=9 note=70 velocity=75 time=0.006696425000000001
EXTRACT: note_on channel=9 note=41 velocity=92 time=0
EXTRACT: note_on channel=9 note=47 velocity=92 time=0
EXTRACT: note_on channel=9 note=70 velocity=0 time=0.127232075
EXTRACT: note_on channel=9 note=41 velocity=0 time=0
EXTRACT: note_on channel=9 note=47 velocity=0 time=0
EXTRACT: note_on channel=9 note=70 velocity=75 time=0.006696425000000001
EXTRACT: note_on channel=9 note=41 velocity=92 time=0
EXTRACT: note_on channel=9 note=47 velocity=92 time=0
EXTRACT: note_on channel=9 note=41 velocity=127 time=0.1339285
EXTRACT: note_on channel=9 note=47 velocity=127 time=0
EXTRACT: note_on channel=9 note=70 velocity=0 time=0.127232075
EXTRACT: note_on channel=9 note=41 velocity=0 time=0
EXTRACT: note_on channel=9 note=47 velocity=0 time=0
EXTRACT: note_on channel=9 note=70 velocity=75 time=0.006696425000000001
EXTRACT: note_on channel=9 note=41 velocity=92 time=0
EXTRACT: note_on channel=9 note=47 velocity=92 time=0
EXTRACT: note_on channel=9 note=70 velocity=0 time=0.127232075
EXTRACT: note_on channel=9 note=41 velocity=0 time=0
EXTRACT: note_on channel=9 note=47 velocity=0 time=0
EXTRACT: note_on channel=9 note=41 velocity=0 time=0
EXTRACT: note_on channel=9 note=47 velocity=0 time=0
EXTRACT: note_on channel=9 note=70 velocity=75 time=0.006696425000000001
EXTRACT: note_on channel=9 note=41 velocity=92 time=0
EXTRACT: note_on channel=9 note=47 velocity=92 time=0
EXTRACT: note_on channel=0 note=82 velocity=0 time=0.1339285
EXTRACT: note_on channel=1 note=73 velocity=0 time=0
EXTRACT: note_on channel=1 note=78 velocity=0 time=0
EXTRACT: note_on channel=1 note=82 velocity=0 time=0
EXTRACT: note_on channel=2 note=42 velocity=0 time=0
EXTRACT: note_on channel=5 note=73 velocity=0 time=0
EXTRACT: note_on channel=5 note=78 velocity=0 time=0
EXTRACT: note_on channel=5 note=82 velocity=0 time=0
EXTRACT: note_on channel=10 note=73 velocity=0 time=0
EXTRACT: note_on channel=10 note=78 velocity=0 time=0
EXTRACT: note_on channel=10 note=82 velocity=0 time=0
EXTRACT: note_on channel=6 note=42 velocity=0 time=0
EXTRACT: note_on channel=9 note=70 velocity=0 time=0.127232075
EXTRACT: note_on channel=9 note=41 velocity=0 time=0
EXTRACT: note_on channel=9 note=47 velocity=0 time=0
EXTRACT: note_on channel=1 note=75 velocity=110 time=0.006696425000000001
EXTRACT: note_on channel=1 note=78 velocity=110 time=0
EXTRACT: note_on channel=2 note=47 velocity=110 time=0
EXTRACT: note_on channel=9 note=70 velocity=75 time=0
EXTRACT: note_on channel=9 note=41 velocity=92 time=0
EXTRACT: note_on channel=9 note=47 velocity=92 time=0
EXTRACT: note_on channel=9 note=41 velocity=127 time=0
EXTRACT: note_on channel=9 note=47 velocity=127 time=0
EXTRACT: note_on channel=5 note=75 velocity=90 time=0
EXTRACT: note_on channel=5 note=78 velocity=90 time=0
EXTRACT: note_on channel=10 note=75 velocity=90 time=0
EXTRACT: note_on channel=10 note=78 velocity=90 time=0
EXTRACT: note_on channel=6 note=47 velocity=90 time=0
EXTRACT: note_on channel=1 note=75 velocity=0 time=0.261160575
EXTRACT: note_on channel=1 note=78 velocity=0 time=0
EXTRACT: note_on channel=9 note=70 velocity=0 time=0
EXTRACT: note_on channel=9 note=41 velocity=0 time=0
EXTRACT: note_on channel=9 note=47 velocity=0 time=0
EXTRACT: note_on channel=9 note=41 velocity=0 time=0
EXTRACT: note_on channel=9 note=47 velocity=0 time=0
EXTRACT: note_on channel=5 note=75 velocity=0 time=0
EXTRACT: note_on channel=5 note=78 velocity=0 time=0
EXTRACT: note_on channel=10 note=75 velocity=0 time=0
EXTRACT: note_on channel=10 note=78 velocity=0 time=0
EXTRACT: note_on channel=0 note=85 velocity=110 time=0.006696425000000001
EXTRACT: note_on channel=1 note=85 velocity=110 time=0
EXTRACT: note_on channel=9 note=70 velocity=75 time=0
EXTRACT: note_on channel=9 note=41 velocity=92 time=0
EXTRACT: note_on channel=9 note=47 velocity=92 time=0
EXTRACT: note_on channel=5 note=85 velocity=90 time=0
EXTRACT: note_on channel=10 note=85 velocity=90 time=0
EXTRACT: note_on channel=9 note=70 velocity=0 time=0.127232075
EXTRACT: note_on channel=9 note=41 velocity=0 time=0
EXTRACT: note_on channel=9 note=47 velocity=0 time=0
EXTRACT: note_on channel=9 note=70 velocity=75 time=0.006696425000000001
EXTRACT: note_on channel=9 note=41 velocity=92 time=0
EXTRACT: note_on channel=9 note=47 velocity=92 time=0
EXTRACT: note_on channel=2 note=47 velocity=0 time=0.04464283333333333
EXTRACT: note_on channel=6 note=47 velocity=0 time=0
EXTRACT: note_on channel=2 note=46 velocity=110 time=0.08928566666666667
EXTRACT: note_on channel=9 note=41 velocity=127 time=0
EXTRACT: note_on channel=9 note=47 velocity=127 time=0
EXTRACT: note_on channel=6 note=46 velocity=90 time=0
EXTRACT: note_on channel=9 note=70 velocity=0 time=0.127232075
EXTRACT: note_on channel=9 note=41 velocity=0 time=0
EXTRACT: note_on channel=9 note=47 velocity=0 time=0
EXTRACT: note_on channel=9 note=70 velocity=75 time=0.006696425000000001
EXTRACT: note_on channel=9 note=41 velocity=92 time=0
EXTRACT: note_on channel=9 note=47 velocity=92 time=0
EXTRACT: note_on channel=0 note=85 velocity=0 time=0.127232075
EXTRACT: note_on channel=1 note=85 velocity=0 time=0
EXTRACT: note_on channel=9 note=70 velocity=0 time=0
EXTRACT: note_on channel=9 note=41 velocity=0 time=0
EXTRACT: note_on channel=9 note=47 velocity=0 time=0
EXTRACT: note_on channel=9 note=41 velocity=0 time=0
EXTRACT: note_on channel=9 note=47 velocity=0 time=0
EXTRACT: note_on channel=5 note=85 velocity=0 time=0
EXTRACT: note_on channel=10 note=85 velocity=0 time=0
EXTRACT: note_on channel=0 note=82 velocity=110 time=0.006696425000000001
EXTRACT: note_on channel=1 note=82 velocity=110 time=0
EXTRACT: note_on channel=9 note=70 velocity=75 time=0
EXTRACT: note_on channel=9 note=41 velocity=92 time=0
EXTRACT: note_on channel=9 note=47 velocity=92 time=0
EXTRACT: note_on channel=5 note=82 velocity=90 time=0
EXTRACT: note_on channel=10 note=82 velocity=90 time=0
EXTRACT: note_on channel=2 note=46 velocity=0 time=0.17857133333333333
EXTRACT: note_on channel=6 note=46 velocity=0 time=0
EXTRACT: note_on channel=0 note=82 velocity=0 time=0.08258924166666667
EXTRACT: note_on channel=1 note=82 velocity=0 time=0
EXTRACT: note_on channel=9 note=70 velocity=0 time=0
EXTRACT: note_on channel=9 note=41 velocity=0 time=0
EXTRACT: note_on channel=9 note=47 velocity=0 time=0
EXTRACT: note_on channel=5 note=82 velocity=0 time=0
EXTRACT: note_on channel=10 note=82 velocity=0 time=0
EXTRACT: note_on channel=0 note=80 velocity=110 time=0.006696425000000001
EXTRACT: note_on channel=1 note=71 velocity=110 time=0
EXTRACT: note_on channel=1 note=75 velocity=110 time=0
EXTRACT: note_on channel=1 note=80 velocity=110 time=0
EXTRACT: note_on channel=2 note=44 velocity=110 time=0
EXTRACT: note_on channel=9 note=70 velocity=75 time=0
EXTRACT: note_on channel=9 note=41 velocity=92 time=0
EXTRACT: note_on channel=9 note=47 velocity=92 time=0
EXTRACT: note_on channel=9 note=41 velocity=127 time=0
EXTRACT: note_on channel=9 note=47 velocity=127 time=0
EXTRACT: note_on channel=5 note=71 velocity=90 time=0
EXTRACT: note_on channel=5 note=75 velocity=90 time=0
EXTRACT: note_on channel=5 note=80 velocity=90 time=0
EXTRACT: note_on channel=10 note=71 velocity=90 time=0
EXTRACT: note_on channel=10 note=75 velocity=90 time=0
EXTRACT: note_on channel=10 note=80 velocity=90 time=0
EXTRACT: note_on channel=6 note=44 velocity=90 time=0
EXTRACT: note_on channel=9 note=70 velocity=0 time=0.060267825000000004
EXTRACT: note_on channel=9 note=41 velocity=0 time=0
EXTRACT: note_on channel=9 note=47 velocity=0 time=0
EXTRACT: note_on channel=9 note=70 velocity=75 time=0.006696425000000001
EXTRACT: note_on channel=9 note=41 velocity=92 time=0
EXTRACT: note_on channel=9 note=47 velocity=92 time=0
EXTRACT: note_on channel=9 note=70 velocity=0 time=0.060267825000000004
EXTRACT: note_on channel=9 note=41 velocity=0 time=0
EXTRACT: note_on channel=9 note=47 velocity=0 time=0
EXTRACT: note_on channel=9 note=70 velocity=75 time=0.006696425000000001
EXTRACT: note_on channel=9 note=41 velocity=92 time=0
EXTRACT: note_on channel=9 note=47 velocity=92 time=0
EXTRACT: note_on channel=9 note=41 velocity=0 time=0.127232075
EXTRACT: note_on channel=9 note=47 velocity=0 time=0
EXTRACT: note_on channel=9 note=70 velocity=0 time=0.1339285
EXTRACT: note_on channel=9 note=41 velocity=0 time=0
EXTRACT: note_on channel=9 note=47 velocity=0 time=0
EXTRACT: note_on channel=9 note=70 velocity=75 time=0.006696425000000001
EXTRACT: note_on channel=9 note=41 velocity=92 time=0
EXTRACT: note_on channel=9 note=47 velocity=92 time=0
EXTRACT: note_on channel=0 note=80 velocity=0 time=0.04464283333333333
EXTRACT: note_on channel=9 note=41 velocity=127 time=0.08928566666666667
EXTRACT: note_on channel=9 note=47 velocity=127 time=0
EXTRACT: note_on channel=9 note=70 velocity=0 time=0.127232075
EXTRACT: note_on channel=9 note=41 velocity=0 time=0
EXTRACT: note_on channel=9 note=47 velocity=0 time=0
EXTRACT: note_on channel=9 note=70 velocity=75 time=0.006696425000000001
EXTRACT: note_on channel=9 note=41 velocity=92 time=0
EXTRACT: note_on channel=9 note=47 velocity=92 time=0
EXTRACT: note_on channel=9 note=41 velocity=0 time=0.127232075
EXTRACT: note_on channel=9 note=47 velocity=0 time=0
EXTRACT: note_on channel=1 note=71 velocity=0 time=0.1339285
EXTRACT: note_on channel=1 note=75 velocity=0 time=0
EXTRACT: note_on channel=1 note=80 velocity=0 time=0
EXTRACT: note_on channel=9 note=70 velocity=0 time=0
EXTRACT: note_on channel=9 note=41 velocity=0 time=0
EXTRACT: note_on channel=9 note=47 velocity=0 time=0
EXTRACT: note_on channel=5 note=71 velocity=0 time=0
EXTRACT: note_on channel=5 note=75 velocity=0 time=0
EXTRACT: note_on channel=5 note=80 velocity=0 time=0
EXTRACT: note_on channel=10 note=71 velocity=0 time=0
EXTRACT: note_on channel=10 note=75 velocity=0 time=0
EXTRACT: note_on channel=10 note=80 velocity=0 time=0
EXTRACT: note_on channel=0 note=73 velocity=110 time=0.006696425000000001
EXTRACT: note_on channel=1 note=73 velocity=110 time=0
EXTRACT: note_on channel=2 note=44 velocity=0 time=0
EXTRACT: note_on channel=9 note=70 velocity=75 time=0
EXTRACT: note_on channel=9 note=41 velocity=92 time=0
EXTRACT: note_on channel=9 note=47 velocity=92 time=0
EXTRACT: note_on channel=5 note=73 velocity=90 time=0
EXTRACT: note_on channel=10 note=73 velocity=90 time=0
EXTRACT: note_on channel=6 note=44 velocity=0 time=0
EXTRACT: note_on channel=0 note=73 velocity=0 time=0.127232075
EXTRACT: note_on channel=1 note=73 velocity=0 time=0
EXTRACT: note_on channel=9 note=70 velocity=0 time=0
EXTRACT: note_on channel=9 note=41 velocity=0 time=0
EXTRACT: note_on channel=9 note=47 velocity=0 time=0
EXTRACT: note_on channel=5 note=73 velocity=0 time=0
EXTRACT: note_on channel=10 note=73 velocity=0 time=0
EXTRACT: note_on channel=0 note=73 velocity=110 time=0.006696425000000001
EXTRACT: note_on channel=1 note=66 velocity=110 time=0
EXTRACT: note_on channel=1 note=68 velocity=110 time=0
EXTRACT: note_on channel=1 note=73 velocity=110 time=0
EXTRACT: note_on channel=2 note=49 velocity=110 time=0
EXTRACT: note_on channel=9 note=70 velocity=75 time=0
EXTRACT: note_on channel=9 note=41 velocity=92 time=0
EXTRACT: note_on channel=9 note=47 velocity=92 time=0
EXTRACT: note_on channel=9 note=41 velocity=127 time=0
EXTRACT: note_on channel=9 note=47 velocity=127 time=0
EXTRACT: note_on channel=5 note=66 velocity=90 time=0
EXTRACT: note_on channel=5 note=68 velocity=90 time=0
EXTRACT: note_on channel=5 note=73 velocity=90 time=0
EXTRACT: note_on channel=10 note=66 velocity=90 time=0
EXTRACT: note_on channel=10 note=68 velocity=90 time=0
EXTRACT: note_on channel=10 note=73 velocity=90 time=0
EXTRACT: note_on channel=6 note=49 velocity=90 time=0
EXTRACT: note_on channel=9 note=70 velocity=0 time=0.127232075
EXTRACT: note_on channel=9 note=41 velocity=0 time=0
EXTRACT: note_on channel=9 note=47 velocity=0 time=0
EXTRACT: note_on channel=9 note=70 velocity=75 time=0.006696425000000001
EXTRACT: note_on channel=9 note=41 velocity=92 time=0
EXTRACT: note_on channel=9 note=47 velocity=92 time=0
EXTRACT: note_on channel=9 note=70 velocity=0 time=0.127232075
EXTRACT: note_on channel=9 note=41 velocity=0 time=0
EXTRACT: note_on channel=9 note=47 velocity=0 time=0
EXTRACT: note_on channel=9 note=41 velocity=0 time=0
EXTRACT: note_on channel=9 note=47 velocity=0 time=0
EXTRACT: note_on channel=9 note=70 velocity=75 time=0.006696425000000001
EXTRACT: note_on channel=9 note=41 velocity=92 time=0
EXTRACT: note_on channel=9 note=47 velocity=92 time=0
EXTRACT: note_on channel=0 note=73 velocity=0 time=0.127232075
EXTRACT: note_on channel=1 note=66 velocity=0 time=0
EXTRACT: note_on channel=1 note=68 velocity=0 time=0
EXTRACT: note_on channel=1 note=73 velocity=0 time=0
EXTRACT: note_on channel=9 note=70 velocity=0 time=0
EXTRACT: note_on channel=9 note=41 velocity=0 time=0
EXTRACT: note_on channel=9 note=47 velocity=0 time=0
EXTRACT: note_on channel=5 note=66 velocity=0 time=0
EXTRACT: note_on channel=5 note=68 velocity=0 time=0
EXTRACT: note_on channel=5 note=73 velocity=0 time=0
EXTRACT: note_on channel=10 note=66 velocity=0 time=0
EXTRACT: note_on channel=10 note=68 velocity=0 time=0
EXTRACT: note_on channel=10 note=73 velocity=0 time=0
EXTRACT: note_on channel=0 note=73 velocity=110 time=0.006696425000000001
EXTRACT: note_on channel=1 note=66 velocity=110 time=0
EXTRACT: note_on channel=1 note=68 velocity=110 time=0
EXTRACT: note_on channel=1 note=73 velocity=110 time=0
EXTRACT: note_on channel=9 note=70 velocity=75 time=0
EXTRACT: note_on channel=9 note=41 velocity=92 time=0
EXTRACT: note_on channel=9 note=47 velocity=92 time=0
EXTRACT: note_on channel=5 note=66 velocity=90 time=0
EXTRACT: note_on channel=5 note=68 velocity=90 time=0
EXTRACT: note_on channel=5 note=73 velocity=90 time=0
EXTRACT: note_on channel=10 note=66 velocity=90 time=0
EXTRACT: note_on channel=10 note=68 velocity=90 time=0
EXTRACT: note_on channel=10 note=73 velocity=90 time=0
EXTRACT: note_on channel=9 note=70 velocity=0 time=0.127232075
EXTRACT: note_on channel=9 note=41 velocity=0 time=0
EXTRACT: note_on channel=9 note=47 velocity=0 time=0
EXTRACT: note_on channel=9 note=70 velocity=75 time=0.006696425000000001
EXTRACT: note_on channel=9 note=41 velocity=92 time=0
EXTRACT: note_on channel=9 note=47 velocity=92 time=0
EXTRACT: note_on channel=9 note=41 velocity=127 time=0
EXTRACT: note_on channel=9 note=47 velocity=127 time=0
EXTRACT: note_on channel=9 note=70 velocity=0 time=0.127232075
EXTRACT: note_on channel=9 note=41 velocity=0 time=0
EXTRACT: note_on channel=9 note=47 velocity=0 time=0
EXTRACT: note_on channel=9 note=70 velocity=75 time=0.006696425000000001
EXTRACT: note_on channel=9 note=41 velocity=92 time=0
EXTRACT: note_on channel=9 note=47 velocity=92 time=0
EXTRACT: note_on channel=0 note=73 velocity=0 time=0.127232075
EXTRACT: note_on channel=1 note=66 velocity=0 time=0
EXTRACT: note_on channel=1 note=68 velocity=0 time=0
EXTRACT: note_on channel=1 note=73 velocity=0 time=0
EXTRACT: note_on channel=9 note=70 velocity=0 time=0
EXTRACT: note_on channel=9 note=41 velocity=0 time=0
EXTRACT: note_on channel=9 note=47 velocity=0 time=0
EXTRACT: note_on channel=9 note=41 velocity=0 time=0
EXTRACT: note_on channel=9 note=47 velocity=0 time=0
EXTRACT: note_on channel=5 note=66 velocity=0 time=0
EXTRACT: note_on channel=5 note=68 velocity=0 time=0
EXTRACT: note_on channel=5 note=73 velocity=0 time=0
EXTRACT: note_on channel=10 note=66 velocity=0 time=0
EXTRACT: note_on channel=10 note=68 velocity=0 time=0
EXTRACT: note_on channel=10 note=73 velocity=0 time=0
EXTRACT: note_on channel=0 note=77 velocity=110 time=0.006696425000000001
EXTRACT: note_on channel=1 note=77 velocity=110 time=0
EXTRACT: note_on channel=9 note=70 velocity=75 time=0
EXTRACT: note_on channel=9 note=41 velocity=92 time=0
EXTRACT: note_on channel=9 note=47 velocity=92 time=0
EXTRACT: note_on channel=5 note=77 velocity=90 time=0
EXTRACT: note_on channel=10 note=77 velocity=90 time=0
EXTRACT: note_on channel=9 note=70 velocity=0 time=0.127232075
EXTRACT: note_on channel=9 note=41 velocity=0 time=0
EXTRACT: note_on channel=9 note=47 velocity=0 time=0
EXTRACT: note_on channel=2 note=49 velocity=0 time=0.006696425000000001
EXTRACT: note_on channel=9 note=70 velocity=75 time=0
EXTRACT: note_on channel=9 note=41 velocity=92 time=0
EXTRACT: note_on channel=9 note=47 velocity=92 time=0
EXTRACT: note_on channel=6 note=49 velocity=0 time=0
EXTRACT: note_on channel=0 note=77 velocity=0 time=0.127232075
EXTRACT: note_on channel=1 note=77 velocity=0 time=0
EXTRACT: note_on channel=9 note=70 velocity=0 time=0
EXTRACT: note_on channel=9 note=41 velocity=0 time=0
EXTRACT: note_on channel=9 note=47 velocity=0 time=0
EXTRACT: note_on channel=5 note=77 velocity=0 time=0
EXTRACT: note_on channel=10 note=77 velocity=0 time=0
EXTRACT: note_on channel=0 note=78 velocity=110 time=0.006696425000000001
EXTRACT: note_on channel=1 note=70 velocity=110 time=0
EXTRACT: note_on channel=1 note=73 velocity=110 time=0
EXTRACT: note_on channel=1 note=78 velocity=110 time=0
EXTRACT: note_on channel=2 note=42 velocity=110 time=0
EXTRACT: note_on channel=9 note=70 velocity=75 time=0
EXTRACT: note_on channel=9 note=41 velocity=92 time=0
EXTRACT: note_on channel=9 note=47 velocity=92 time=0
EXTRACT: note_on channel=9 note=40 velocity=110 time=0
EXTRACT: note_on channel=9 note=44 velocity=110 time=0
EXTRACT: note_on channel=9 note=47 velocity=110 time=0
EXTRACT: note_on channel=9 note=51 velocity=110 time=0
EXTRACT: note_on channel=9 note=54 velocity=110 time=0
EXTRACT: note_on channel=9 note=57 velocity=110 time=0
EXTRACT: note_on channel=9 note=41 velocity=127 time=0
EXTRACT: note_on channel=9 note=47 velocity=127 time=0
EXTRACT: note_on channel=5 note=70 velocity=90 time=0
EXTRACT: note_on channel=5 note=73 velocity=90 time=0
EXTRACT: note_on channel=5 note=78 velocity=90 time=0
EXTRACT: note_on channel=10 note=70 velocity=90 time=0
EXTRACT: note_on channel=10 note=73 velocity=90 time=0
EXTRACT: note_on channel=10 note=78 velocity=90 time=0
EXTRACT: note_on channel=6 note=42 velocity=90 time=0
EXTRACT: note_on channel=9 note=70 velocity=0 time=0.261160575
EXTRACT: note_on channel=9 note=41 velocity=0 time=0
EXTRACT: note_on channel=9 note=47 velocity=0 time=0
EXTRACT: note_on channel=9 note=41 velocity=0 time=0
EXTRACT: note_on channel=9 note=47 velocity=0 time=0
EXTRACT: note_on channel=9 note=70 velocity=75 time=0.006696425000000001
EXTRACT: note_on channel=9 note=41 velocity=92 time=0
EXTRACT: note_on channel=9 note=47 velocity=92 time=0
EXTRACT: note_on channel=9 note=70 velocity=0 time=0.127232075
EXTRACT: note_on channel=9 note=41 velocity=0 time=0
EXTRACT: note_on channel=9 note=47 velocity=0 time=0
EXTRACT: note_on channel=9 note=70 velocity=75 time=0.006696425000000001
EXTRACT: note_on channel=9 note=41 velocity=92 time=0
EXTRACT: note_on channel=9 note=47 velocity=92 time=0
EXTRACT: note_on channel=9 note=41 velocity=127 time=0.1339285
EXTRACT: note_on channel=9 note=47 velocity=127 time=0
EXTRACT: note_on channel=9 note=70 velocity=0 time=0.127232075
EXTRACT: note_on channel=9 note=41 velocity=0 time=0
EXTRACT: note_on channel=9 note=47 velocity=0 time=0
EXTRACT: note_on channel=9 note=70 velocity=75 time=0.006696425000000001
EXTRACT: note_on channel=9 note=41 velocity=92 time=0
EXTRACT: note_on channel=9 note=47 velocity=92 time=0
EXTRACT: note_on channel=9 note=70 velocity=0 time=0.127232075
EXTRACT: note_on channel=9 note=41 velocity=0 time=0
EXTRACT: note_on channel=9 note=47 velocity=0 time=0
EXTRACT: note_on channel=9 note=41 velocity=0 time=0
EXTRACT: note_on channel=9 note=47 velocity=0 time=0
EXTRACT: note_on channel=9 note=70 velocity=75 time=0.006696425000000001
EXTRACT: note_on channel=9 note=41 velocity=92 time=0
EXTRACT: note_on channel=9 note=47 velocity=92 time=0
EXTRACT: note_on channel=0 note=78 velocity=0 time=0.1339285
EXTRACT: note_on channel=1 note=70 velocity=0 time=0
EXTRACT: note_on channel=1 note=73 velocity=0 time=0
EXTRACT: note_on channel=1 note=78 velocity=0 time=0
EXTRACT: note_on channel=2 note=42 velocity=0 time=0
EXTRACT: note_on channel=5 note=70 velocity=0 time=0
EXTRACT: note_on channel=5 note=73 velocity=0 time=0
EXTRACT: note_on channel=5 note=78 velocity=0 time=0
EXTRACT: note_on channel=10 note=70 velocity=0 time=0
EXTRACT: note_on channel=10 note=73 velocity=0 time=0
EXTRACT: note_on channel=10 note=78 velocity=0 time=0
EXTRACT: note_on channel=6 note=42 velocity=0 time=0
EXTRACT: note_on channel=9 note=70 velocity=0 time=0.127232075
EXTRACT: note_on channel=9 note=41 velocity=0 time=0
EXTRACT: note_on channel=9 note=47 velocity=0 time=0
EXTRACT: note_on channel=1 note=71 velocity=110 time=0.006696425000000001
EXTRACT: note_on channel=1 note=75 velocity=110 time=0
EXTRACT: note_on channel=1 note=78 velocity=110 time=0
EXTRACT: note_on channel=2 note=47 velocity=110 time=0
EXTRACT: note_on channel=3 note=71 velocity=110 time=0
EXTRACT: note_on channel=9 note=70 velocity=75 time=0
EXTRACT: note_on channel=9 note=41 velocity=92 time=0
EXTRACT: note_on channel=9 note=47 velocity=92 time=0
EXTRACT: note_on channel=9 note=41 velocity=127 time=0
EXTRACT: note_on channel=9 note=47 velocity=127 time=0
EXTRACT: note_on channel=5 note=71 velocity=90 time=0
EXTRACT: note_on channel=5 note=75 velocity=90 time=0
EXTRACT: note_on channel=5 note=78 velocity=90 time=0
EXTRACT: note_on channel=10 note=71 velocity=90 time=0
EXTRACT: note_on channel=10 note=75 velocity=90 time=0
EXTRACT: note_on channel=10 note=78 velocity=90 time=0
EXTRACT: note_on channel=6 note=47 velocity=90 time=0
EXTRACT: note_on channel=9 note=70 velocity=0 time=0.261160575
EXTRACT: note_on channel=9 note=41 velocity=0 time=0
EXTRACT: note_on channel=9 note=47 velocity=0 time=0
EXTRACT: note_on channel=9 note=41 velocity=0 time=0
EXTRACT: note_on channel=9 note=47 velocity=0 time=0
EXTRACT: note_on channel=9 note=70 velocity=75 time=0.006696425000000001
EXTRACT: note_on channel=9 note=41 velocity=92 time=0
EXTRACT: note_on channel=9 note=47 velocity=92 time=0
EXTRACT: note_on channel=9 note=70 velocity=0 time=0.127232075
EXTRACT: note_on channel=9 note=41 velocity=0 time=0
EXTRACT: note_on channel=9 note=47 velocity=0 time=0
EXTRACT: note_on channel=9 note=70 velocity=75 time=0.006696425000000001
EXTRACT: note_on channel=9 note=41 velocity=92 time=0
EXTRACT: note_on channel=9 note=47 velocity=92 time=0
EXTRACT: note_on channel=2 note=47 velocity=0 time=0.04464283333333333
EXTRACT: note_on channel=6 note=47 velocity=0 time=0
EXTRACT: note_on channel=2 note=46 velocity=110 time=0.08928566666666667
EXTRACT: note_on channel=9 note=41 velocity=127 time=0
EXTRACT: note_on channel=9 note=47 velocity=127 time=0
EXTRACT: note_on channel=6 note=46 velocity=90 time=0
EXTRACT: note_on channel=9 note=70 velocity=0 time=0.127232075
EXTRACT: note_on channel=9 note=41 velocity=0 time=0
EXTRACT: note_on channel=9 note=47 velocity=0 time=0
EXTRACT: note_on channel=9 note=70 velocity=75 time=0.006696425000000001
EXTRACT: note_on channel=9 note=41 velocity=92 time=0
EXTRACT: note_on channel=9 note=47 velocity=92 time=0
EXTRACT: note_on channel=9 note=70 velocity=0 time=0.127232075
EXTRACT: note_on channel=9 note=41 velocity=0 time=0
EXTRACT: note_on channel=9 note=47 velocity=0 time=0
EXTRACT: note_on channel=9 note=41 velocity=0 time=0
EXTRACT: note_on channel=9 note=47 velocity=0 time=0
EXTRACT: note_on channel=9 note=70 velocity=75 time=0.006696425000000001
EXTRACT: note_on channel=9 note=41 velocity=92 time=0
EXTRACT: note_on channel=9 note=47 velocity=92 time=0
EXTRACT: note_on channel=1 note=71 velocity=0 time=0.1339285
EXTRACT: note_on channel=1 note=75 velocity=0 time=0
EXTRACT: note_on channel=1 note=78 velocity=0 time=0
EXTRACT: note_on channel=3 note=71 velocity=0 time=0
EXTRACT: note_on channel=9 note=40 velocity=0 time=0
EXTRACT: note_on channel=9 note=44 velocity=0 time=0
EXTRACT: note_on channel=9 note=47 velocity=0 time=0
EXTRACT: note_on channel=9 note=51 velocity=0 time=0
EXTRACT: note_on channel=9 note=54 velocity=0 time=0
EXTRACT: note_on channel=9 note=57 velocity=0 time=0
EXTRACT: note_on channel=5 note=71 velocity=0 time=0
EXTRACT: note_on channel=5 note=75 velocity=0 time=0
EXTRACT: note_on channel=5 note=78 velocity=0 time=0
EXTRACT: note_on channel=10 note=71 velocity=0 time=0
EXTRACT: note_on channel=10 note=75 velocity=0 time=0
EXTRACT: note_on channel=10 note=78 velocity=0 time=0
EXTRACT: note_on channel=2 note=46 velocity=0 time=0.04464283333333333
EXTRACT: note_on channel=6 note=46 velocity=0 time=0
EXTRACT: note_on channel=9 note=70 velocity=0 time=0.08258924166666667
EXTRACT: note_on channel=9 note=41 velocity=0 time=0
EXTRACT: note_on channel=9 note=47 velocity=0 time=0
EXTRACT: note_on channel=1 note=70 velocity=110 time=0.006696425000000001
EXTRACT: note_on channel=1 note=75 velocity=110 time=0
EXTRACT: note_on channel=1 note=78 velocity=110 time=0
EXTRACT: note_on channel=2 note=44 velocity=110 time=0
EXTRACT: note_on channel=3 note=70 velocity=110 time=0
EXTRACT: note_on channel=9 note=70 velocity=75 time=0
EXTRACT: note_on channel=9 note=41 velocity=92 time=0
EXTRACT: note_on channel=9 note=47 velocity=92 time=0
EXTRACT: note_on channel=9 note=41 velocity=127 time=0
EXTRACT: note_on channel=9 note=47 velocity=127 time=0
EXTRACT: note_on channel=5 note=70 velocity=90 time=0
EXTRACT: note_on channel=5 note=75 velocity=90 time=0
EXTRACT: note_on channel=5 note=78 velocity=90 time=0
EXTRACT: note_on channel=10 note=70 velocity=90 time=0
EXTRACT: note_on channel=10 note=75 velocity=90 time=0
EXTRACT: note_on channel=10 note=78 velocity=90 time=0
EXTRACT: note_on channel=6 note=44 velocity=90 time=0
EXTRACT: note_on channel=1 note=70 velocity=0 time=0.261160575
EXTRACT: note_on channel=1 note=75 velocity=0 time=0
EXTRACT: note_on channel=1 note=78 velocity=0 time=0
EXTRACT: note_on channel=3 note=70 velocity=0 time=0
EXTRACT: note_on channel=9 note=70 velocity=0 time=0
EXTRACT: note_on channel=9 note=41 velocity=0 time=0
EXTRACT: note_on channel=9 note=47 velocity=0 time=0
EXTRACT: note_on channel=9 note=41 velocity=0 time=0
EXTRACT: note_on channel=9 note=47 velocity=0 time=0
EXTRACT: note_on channel=5 note=70 velocity=0 time=0
EXTRACT: note_on channel=5 note=75 velocity=0 time=0
EXTRACT: note_on channel=5 note=78 velocity=0 time=0
EXTRACT: note_on channel=10 note=70 velocity=0 time=0
EXTRACT: note_on channel=10 note=75 velocity=0 time=0
EXTRACT: note_on channel=10 note=78 velocity=0 time=0
EXTRACT: note_on channel=1 note=68 velocity=110 time=0.006696425000000001
EXTRACT: note_on channel=1 note=73 velocity=110 time=0
EXTRACT: note_on channel=1 note=78 velocity=110 time=0
EXTRACT: note_on channel=3 note=68 velocity=110 time=0
EXTRACT: note_on channel=9 note=70 velocity=75 time=0
EXTRACT: note_on channel=9 note=41 velocity=92 time=0
EXTRACT: note_on channel=9 note=47 velocity=92 time=0
EXTRACT: note_on channel=5 note=68 velocity=90 time=0
EXTRACT: note_on channel=5 note=73 velocity=90 time=0
EXTRACT: note_on channel=5 note=78 velocity=90 time=0
EXTRACT: note_on channel=10 note=68 velocity=90 time=0
EXTRACT: note_on channel=10 note=73 velocity=90 time=0
EXTRACT: note_on channel=10 note=78 velocity=90 time=0
EXTRACT: note_on channel=9 note=70 velocity=0 time=0.127232075
EXTRACT: note_on channel=9 note=41 velocity=0 time=0
EXTRACT: note_on channel=9 note=47 velocity=0 time=0
EXTRACT: note_on channel=9 note=70 velocity=75 time=0.006696425000000001
EXTRACT: note_on channel=9 note=41 velocity=92 time=0
EXTRACT: note_on channel=9 note=47 velocity=92 time=0
EXTRACT: note_on channel=1 note=68 velocity=0 time=0.127232075
EXTRACT: note_on channel=1 note=73 velocity=0 time=0
EXTRACT: note_on channel=1 note=78 velocity=0 time=0
EXTRACT: note_on channel=3 note=68 velocity=0 time=0
EXTRACT: note_on channel=5 note=68 velocity=0 time=0
EXTRACT: note_on channel=5 note=73 velocity=0 time=0
EXTRACT: note_on channel=5 note=78 velocity=0 time=0
EXTRACT: note_on channel=10 note=68 velocity=0 time=0
EXTRACT: note_on channel=10 note=73 velocity=0 time=0
EXTRACT: note_on channel=10 note=78 velocity=0 time=0
EXTRACT: note_on channel=1 note=68 velocity=110 time=0.006696425000000001
EXTRACT: note_on channel=1 note=73 velocity=110 time=0
EXTRACT: note_on channel=1 note=78 velocity=110 time=0
EXTRACT: note_on channel=3 note=68 velocity=110 time=0
EXTRACT: note_on channel=9 note=41 velocity=127 time=0
EXTRACT: note_on channel=9 note=47 velocity=127 time=0
EXTRACT: note_on channel=5 note=68 velocity=90 time=0
EXTRACT: note_on channel=5 note=73 velocity=90 time=0
EXTRACT: note_on channel=5 note=78 velocity=90 time=0
EXTRACT: note_on channel=10 note=68 velocity=90 time=0
EXTRACT: note_on channel=10 note=73 velocity=90 time=0
EXTRACT: note_on channel=10 note=78 velocity=90 time=0
EXTRACT: note_on channel=9 note=70 velocity=0 time=0.127232075
EXTRACT: note_on channel=9 note=41 velocity=0 time=0
EXTRACT: note_on channel=9 note=47 velocity=0 time=0
EXTRACT: note_on channel=9 note=70 velocity=75 time=0.006696425000000001
EXTRACT: note_on channel=9 note=41 velocity=92 time=0
EXTRACT: note_on channel=9 note=47 velocity=92 time=0
EXTRACT: note_on channel=9 note=70 velocity=0 time=0.127232075
EXTRACT: note_on channel=9 note=41 velocity=0 time=0
EXTRACT: note_on channel=9 note=47 velocity=0 time=0
EXTRACT: note_on channel=9 note=41 velocity=0 time=0
EXTRACT: note_on channel=9 note=47 velocity=0 time=0
EXTRACT: note_on channel=9 note=70 velocity=75 time=0.006696425000000001
EXTRACT: note_on channel=9 note=41 velocity=92 time=0
EXTRACT: note_on channel=9 note=47 velocity=92 time=0
EXTRACT: note_on channel=2 note=44 velocity=0 time=0.1339285
EXTRACT: note_on channel=6 note=44 velocity=0 time=0
EXTRACT: note_on channel=1 note=68 velocity=0 time=0.04464283333333333
EXTRACT: note_on channel=1 note=73 velocity=0 time=0
EXTRACT: note_on channel=1 note=78 velocity=0 time=0
EXTRACT: note_on channel=3 note=68 velocity=0 time=0
EXTRACT: note_on channel=5 note=68 velocity=0 time=0
EXTRACT: note_on channel=5 note=73 velocity=0 time=0
EXTRACT: note_on channel=5 note=78 velocity=0 time=0
EXTRACT: note_on channel=10 note=68 velocity=0 time=0
EXTRACT: note_on channel=10 note=73 velocity=0 time=0
EXTRACT: note_on channel=10 note=78 velocity=0 time=0
EXTRACT: note_on channel=9 note=70 velocity=0 time=0.08258924166666667
EXTRACT: note_on channel=9 note=41 velocity=0 time=0
EXTRACT: note_on channel=9 note=47 velocity=0 time=0
EXTRACT: note_on channel=0 note=78 velocity=110 time=0.006696425000000001
EXTRACT: note_on channel=1 note=68 velocity=110 time=0
EXTRACT: note_on channel=1 note=73 velocity=110 time=0
EXTRACT: note_on channel=1 note=78 velocity=110 time=0
EXTRACT: note_on channel=2 note=49 velocity=110 time=0
EXTRACT: note_on channel=9 note=70 velocity=75 time=0
EXTRACT: note_on channel=9 note=41 velocity=92 time=0
EXTRACT: note_on channel=9 note=47 velocity=92 time=0
EXTRACT: note_on channel=9 note=41 velocity=127 time=0
EXTRACT: note_on channel=9 note=47 velocity=127 time=0
EXTRACT: note_on channel=5 note=68 velocity=90 time=0
EXTRACT: note_on channel=5 note=73 velocity=90 time=0
EXTRACT: note_on channel=5 note=78 velocity=90 time=0
EXTRACT: note_on channel=10 note=68 velocity=90 time=0
EXTRACT: note_on channel=10 note=73 velocity=90 time=0
EXTRACT: note_on channel=10 note=78 velocity=90 time=0
EXTRACT: note_on channel=6 note=49 velocity=90 time=0
EXTRACT: note_on channel=9 note=70 velocity=0 time=0.261160575
EXTRACT: note_on channel=9 note=41 velocity=0 time=0
EXTRACT: note_on channel=9 note=47 velocity=0 time=0
EXTRACT: note_on channel=9 note=41 velocity=0 time=0
EXTRACT: note_on channel=9 note=47 velocity=0 time=0
EXTRACT: note_on channel=9 note=70 velocity=75 time=0.006696425000000001
EXTRACT: note_on channel=9 note=41 velocity=92 time=0
EXTRACT: note_on channel=9 note=47 velocity=92 time=0
EXTRACT: note_on channel=0 note=78 velocity=0 time=0.127232075
EXTRACT: note_on channel=1 note=68 velocity=0 time=0
EXTRACT: note_on channel=1 note=73 velocity=0 time=0
EXTRACT: note_on channel=1 note=78 velocity=0 time=0
EXTRACT: note_on channel=9 note=70 velocity=0 time=0
EXTRACT: note_on channel=9 note=41 velocity=0 time=0
EXTRACT: note_on channel=9 note=47 velocity=0 time=0
EXTRACT: note_on channel=5 note=68 velocity=0 time=0
EXTRACT: note_on channel=5 note=73 velocity=0 time=0
EXTRACT: note_on channel=5 note=78 velocity=0 time=0
EXTRACT: note_on channel=10 note=68 velocity=0 time=0
EXTRACT: note_on channel=10 note=73 velocity=0 time=0
EXTRACT: note_on channel=10 note=78 velocity=0 time=0
EXTRACT: note_on channel=0 note=78 velocity=110 time=0.006696425000000001
EXTRACT: note_on channel=1 note=68 velocity=110 time=0
EXTRACT: note_on channel=1 note=73 velocity=110 time=0
EXTRACT: note_on channel=1 note=78 velocity=110 time=0
EXTRACT: note_on channel=9 note=70 velocity=75 time=0
EXTRACT: note_on channel=9 note=41 velocity=92 time=0
EXTRACT: note_on channel=9 note=47 velocity=92 time=0
EXTRACT: note_on channel=5 note=68 velocity=90 time=0
EXTRACT: note_on channel=5 note=73 velocity=90 time=0
EXTRACT: note_on channel=5 note=78 velocity=90 time=0
EXTRACT: note_on channel=10 note=68 velocity=90 time=0
EXTRACT: note_on channel=10 note=73 velocity=90 time=0
EXTRACT: note_on channel=10 note=78 velocity=90 time=0
EXTRACT: note_on channel=9 note=41 velocity=127 time=0.1339285
EXTRACT: note_on channel=9 note=47 velocity=127 time=0
EXTRACT: note_on channel=9 note=70 velocity=0 time=0.127232075
EXTRACT: note_on channel=9 note=41 velocity=0 time=0
EXTRACT: note_on channel=9 note=47 velocity=0 time=0
EXTRACT: note_on channel=9 note=70 velocity=75 time=0.006696425000000001
EXTRACT: note_on channel=9 note=41 velocity=92 time=0
EXTRACT: note_on channel=9 note=47 velocity=92 time=0
EXTRACT: note_on channel=0 note=78 velocity=0 time=0.127232075
EXTRACT: note_on channel=1 note=68 velocity=0 time=0
EXTRACT: note_on channel=1 note=73 velocity=0 time=0
EXTRACT: note_on channel=1 note=78 velocity=0 time=0
EXTRACT: note_on channel=9 note=70 velocity=0 time=0
EXTRACT: note_on channel=9 note=41 velocity=0 time=0
EXTRACT: note_on channel=9 note=47 velocity=0 time=0
EXTRACT: note_on channel=9 note=41 velocity=0 time=0
EXTRACT: note_on channel=9 note=47 velocity=0 time=0
EXTRACT: note_on channel=5 note=68 velocity=0 time=0
EXTRACT: note_on channel=5 note=73 velocity=0 time=0
EXTRACT: note_on channel=5 note=78 velocity=0 time=0
EXTRACT: note_on channel=10 note=68 velocity=0 time=0
EXTRACT: note_on channel=10 note=73 velocity=0 time=0
EXTRACT: note_on channel=10 note=78 velocity=0 time=0
EXTRACT: note_on channel=0 note=73 velocity=110 time=0.006696425000000001
EXTRACT: note_on channel=1 note=73 velocity=110 time=0
EXTRACT: note_on channel=9 note=70 velocity=75 time=0
EXTRACT: note_on channel=9 note=41 velocity=92 time=0
EXTRACT: note_on channel=9 note=47 velocity=92 time=0
EXTRACT: note_on channel=5 note=73 velocity=90 time=0
EXTRACT: note_on channel=10 note=73 velocity=90 time=0
EXTRACT: note_on channel=2 note=49 velocity=0 time=0.1339285
EXTRACT: note_on channel=6 note=49 velocity=0 time=0
EXTRACT: note_on channel=0 note=73 velocity=0 time=0.127232075
EXTRACT: note_on channel=1 note=73 velocity=0 time=0
EXTRACT: note_on channel=9 note=70 velocity=0 time=0
EXTRACT: note_on channel=9 note=41 velocity=0 time=0
EXTRACT: note_on channel=9 note=47 velocity=0 time=0
EXTRACT: note_on channel=5 note=73 velocity=0 time=0
EXTRACT: note_on channel=10 note=73 velocity=0 time=0
EXTRACT: note_on channel=0 note=75 velocity=110 time=0.006696425000000001
EXTRACT: note_on channel=1 note=66 velocity=110 time=0
EXTRACT: note_on channel=1 note=70 velocity=110 time=0
EXTRACT: note_on channel=1 note=75 velocity=110 time=0
EXTRACT: note_on channel=2 note=42 velocity=110 time=0
EXTRACT: note_on channel=9 note=70 velocity=75 time=0
EXTRACT: note_on channel=9 note=41 velocity=92 time=0
EXTRACT: note_on channel=9 note=47 velocity=92 time=0
EXTRACT: note_on channel=9 note=41 velocity=127 time=0
EXTRACT: note_on channel=9 note=47 velocity=127 time=0
EXTRACT: note_on channel=5 note=66 velocity=90 time=0
EXTRACT: note_on channel=5 note=70 velocity=90 time=0
EXTRACT: note_on channel=5 note=75 velocity=90 time=0
EXTRACT: note_on channel=10 note=66 velocity=90 time=0
EXTRACT: note_on channel=10 note=70 velocity=90 time=0
EXTRACT: note_on channel=10 note=75 velocity=90 time=0
EXTRACT: note_on channel=6 note=42 velocity=90 time=0
EXTRACT: note_on channel=9 note=70 velocity=0 time=0.261160575
EXTRACT: note_on channel=9 note=41 velocity=0 time=0
EXTRACT: note_on channel=9 note=47 velocity=0 time=0
EXTRACT: note_on channel=9 note=41 velocity=0 time=0
EXTRACT: note_on channel=9 note=47 velocity=0 time=0
EXTRACT: note_on channel=9 note=70 velocity=75 time=0.006696425000000001
EXTRACT: note_on channel=9 note=41 velocity=92 time=0
EXTRACT: note_on channel=9 note=47 velocity=92 time=0
EXTRACT: note_on channel=9 note=70 velocity=0 time=0.127232075
EXTRACT: note_on channel=9 note=41 velocity=0 time=0
EXTRACT: note_on channel=9 note=47 velocity=0 time=0
EXTRACT: note_on channel=9 note=70 velocity=75 time=0.006696425000000001
EXTRACT: note_on channel=9 note=41 velocity=92 time=0
EXTRACT: note_on channel=9 note=47 velocity=92 time=0
EXTRACT: note_on channel=0 note=75 velocity=0 time=0.04464283333333333
EXTRACT: note_on channel=1 note=66 velocity=0 time=0
EXTRACT: note_on channel=1 note=70 velocity=0 time=0
EXTRACT: note_on channel=1 note=75 velocity=0 time=0
EXTRACT: note_on channel=5 note=66 velocity=0 time=0
EXTRACT: note_on channel=5 note=70 velocity=0 time=0
EXTRACT: note_on channel=5 note=75 velocity=0 time=0
EXTRACT: note_on channel=10 note=66 velocity=0 time=0
EXTRACT: note_on channel=10 note=70 velocity=0 time=0
EXTRACT: note_on channel=10 note=75 velocity=0 time=0
EXTRACT: note_on channel=0 note=73 velocity=110 time=0.08928566666666667
EXTRACT: note_on channel=1 note=73 velocity=110 time=0
EXTRACT: note_on channel=9 note=41 velocity=127 time=0
EXTRACT: note_on channel=9 note=47 velocity=127 time=0
EXTRACT: note_on channel=5 note=73 velocity=90 time=0
EXTRACT: note_on channel=10 note=73 velocity=90 time=0
EXTRACT: note_on channel=9 note=70 velocity=0 time=0.127232075
EXTRACT: note_on channel=9 note=41 velocity=0 time=0
EXTRACT: note_on channel=9 note=47 velocity=0 time=0
EXTRACT: note_on channel=9 note=70 velocity=75 time=0.006696425000000001
EXTRACT: note_on channel=9 note=41 velocity=92 time=0
EXTRACT: note_on channel=9 note=47 velocity=92 time=0
EXTRACT: note_on channel=9 note=70 velocity=0 time=0.127232075
EXTRACT: note_on channel=9 note=41 velocity=0 time=0
EXTRACT: note_on channel=9 note=47 velocity=0 time=0
EXTRACT: note_on channel=9 note=41 velocity=0 time=0
EXTRACT: note_on channel=9 note=47 velocity=0 time=0
EXTRACT: note_on channel=9 note=70 velocity=75 time=0.006696425000000001
EXTRACT: note_on channel=9 note=41 velocity=92 time=0
EXTRACT: note_on channel=9 note=47 velocity=92 time=0
EXTRACT: note_on channel=2 note=42 velocity=0 time=0.1339285
EXTRACT: note_on channel=6 note=42 velocity=0 time=0
EXTRACT: note_on channel=0 note=73 velocity=0 time=0.04464283333333333
EXTRACT: note_on channel=1 note=73 velocity=0 time=0
EXTRACT: note_on channel=5 note=73 velocity=0 time=0
EXTRACT: note_on channel=10 note=73 velocity=0 time=0
EXTRACT: note_on channel=9 note=70 velocity=0 time=0.08258924166666667
EXTRACT: note_on channel=9 note=41 velocity=0 time=0
EXTRACT: note_on channel=9 note=47 velocity=0 time=0
EXTRACT: note_on channel=1 note=71 velocity=110 time=0.006696425000000001
EXTRACT: note_on channel=1 note=75 velocity=110 time=0
EXTRACT: note_on channel=1 note=78 velocity=110 time=0
EXTRACT: note_on channel=2 note=47 velocity=110 time=0
EXTRACT: note_on channel=3 note=71 velocity=110 time=0
EXTRACT: note_on channel=9 note=70 velocity=75 time=0
EXTRACT: note_on channel=9 note=41 velocity=92 time=0
EXTRACT: note_on channel=9 note=47 velocity=92 time=0
EXTRACT: note_on channel=9 note=41 velocity=127 time=0
EXTRACT: note_on channel=9 note=47 velocity=127 time=0
EXTRACT: note_on channel=5 note=71 velocity=90 time=0
EXTRACT: note_on channel=5 note=75 velocity=90 time=0
EXTRACT: note_on channel=5 note=78 velocity=90 time=0
EXTRACT: note_on channel=10 note=71 velocity=90 time=0
EXTRACT: note_on channel=10 note=75 velocity=90 time=0
EXTRACT: note_on channel=10 note=78 velocity=90 time=0
EXTRACT: note_on channel=6 note=47 velocity=90 time=0
EXTRACT: note_on channel=9 note=70 velocity=0 time=0.261160575
EXTRACT: note_on channel=9 note=41 velocity=0 time=0
EXTRACT: note_on channel=9 note=47 velocity=0 time=0
EXTRACT: note_on channel=9 note=41 velocity=0 time=0
EXTRACT: note_on channel=9 note=47 velocity=0 time=0
EXTRACT: note_on channel=9 note=70 velocity=75 time=0.006696425000000001
EXTRACT: note_on channel=9 note=41 velocity=92 time=0
EXTRACT: note_on channel=9 note=47 velocity=92 time=0
EXTRACT: note_on channel=9 note=70 velocity=0 time=0.127232075
EXTRACT: note_on channel=9 note=41 velocity=0 time=0
EXTRACT: note_on channel=9 note=47 velocity=0 time=0
EXTRACT: note_on channel=9 note=70 velocity=75 time=0.006696425000000001
EXTRACT: note_on channel=9 note=41 velocity=92 time=0
EXTRACT: note_on channel=9 note=47 velocity=92 time=0
EXTRACT: note_on channel=1 note=71 velocity=0 time=0.04464283333333333
EXTRACT: note_on channel=1 note=75 velocity=0 time=0
EXTRACT: note_on channel=1 note=78 velocity=0 time=0
EXTRACT: note_on channel=2 note=47 velocity=0 time=0
EXTRACT: note_on channel=3 note=71 velocity=0 time=0
EXTRACT: note_on channel=5 note=71 velocity=0 time=0
EXTRACT: note_on channel=5 note=75 velocity=0 time=0
EXTRACT: note_on channel=5 note=78 velocity=0 time=0
EXTRACT: note_on channel=10 note=71 velocity=0 time=0
EXTRACT: note_on channel=10 note=75 velocity=0 time=0
EXTRACT: note_on channel=10 note=78 velocity=0 time=0
EXTRACT: note_on channel=6 note=47 velocity=0 time=0
EXTRACT: note_on channel=1 note=70 velocity=110 time=0.08928566666666667
EXTRACT: note_on channel=2 note=46 velocity=110 time=0
EXTRACT: note_on channel=3 note=70 velocity=110 time=0
EXTRACT: note_on channel=9 note=41 velocity=127 time=0
EXTRACT: note_on channel=9 note=47 velocity=127 time=0
EXTRACT: note_on channel=5 note=70 velocity=90 time=0
EXTRACT: note_on channel=10 note=70 velocity=90 time=0
EXTRACT: note_on channel=6 note=46 velocity=90 time=0
EXTRACT: note_on channel=9 note=70 velocity=0 time=0.127232075
EXTRACT: note_on channel=9 note=41 velocity=0 time=0
EXTRACT: note_on channel=9 note=47 velocity=0 time=0
EXTRACT: note_on channel=9 note=70 velocity=75 time=0.006696425000000001
EXTRACT: note_on channel=9 note=41 velocity=92 time=0
EXTRACT: note_on channel=9 note=47 velocity=92 time=0
EXTRACT: note_on channel=9 note=70 velocity=0 time=0.127232075
EXTRACT: note_on channel=9 note=41 velocity=0 time=0
EXTRACT: note_on channel=9 note=47 velocity=0 time=0
EXTRACT: note_on channel=9 note=41 velocity=0 time=0
EXTRACT: note_on channel=9 note=47 velocity=0 time=0
EXTRACT: note_on channel=9 note=70 velocity=75 time=0.006696425000000001
EXTRACT: note_on channel=9 note=41 velocity=92 time=0
EXTRACT: note_on channel=9 note=47 velocity=92 time=0
EXTRACT: note_on channel=1 note=70 velocity=0 time=0.17857133333333333
EXTRACT: note_on channel=2 note=46 velocity=0 time=0
EXTRACT: note_on channel=3 note=70 velocity=0 time=0
EXTRACT: note_on channel=5 note=70 velocity=0 time=0
EXTRACT: note_on channel=10 note=70 velocity=0 time=0
EXTRACT: note_on channel=6 note=46 velocity=0 time=0
EXTRACT: note_on channel=9 note=70 velocity=0 time=0.08258924166666667
EXTRACT: note_on channel=9 note=41 velocity=0 time=0
EXTRACT: note_on channel=9 note=47 velocity=0 time=0
EXTRACT: note_on channel=1 note=70 velocity=110 time=0.006696425000000001
EXTRACT: note_on channel=1 note=75 velocity=110 time=0
EXTRACT: note_on channel=1 note=78 velocity=110 time=0
EXTRACT: note_on channel=2 note=44 velocity=110 time=0
EXTRACT: note_on channel=3 note=70 velocity=110 time=0
EXTRACT: note_on channel=9 note=70 velocity=75 time=0
EXTRACT: note_on channel=9 note=41 velocity=92 time=0
EXTRACT: note_on channel=9 note=47 velocity=92 time=0
EXTRACT: note_on channel=9 note=41 velocity=127 time=0
EXTRACT: note_on channel=9 note=47 velocity=127 time=0
EXTRACT: note_on channel=5 note=70 velocity=90 time=0
EXTRACT: note_on channel=5 note=75 velocity=90 time=0
EXTRACT: note_on channel=5 note=78 velocity=90 time=0
EXTRACT: note_on channel=10 note=70 velocity=90 time=0
EXTRACT: note_on channel=10 note=75 velocity=90 time=0
EXTRACT: note_on channel=10 note=78 velocity=90 time=0
EXTRACT: note_on channel=6 note=44 velocity=90 time=0
EXTRACT: note_on channel=1 note=70 velocity=0 time=0.261160575
EXTRACT: note_on channel=1 note=75 velocity=0 time=0
EXTRACT: note_on channel=1 note=78 velocity=0 time=0
EXTRACT: note_on channel=3 note=70 velocity=0 time=0
EXTRACT: note_on channel=9 note=70 velocity=0 time=0
EXTRACT: note_on channel=9 note=41 velocity=0 time=0
EXTRACT: note_on channel=9 note=47 velocity=0 time=0
EXTRACT: note_on channel=9 note=41 velocity=0 time=0
EXTRACT: note_on channel=9 note=47 velocity=0 time=0
EXTRACT: note_on channel=5 note=70 velocity=0 time=0
EXTRACT: note_on channel=5 note=75 velocity=0 time=0
EXTRACT: note_on channel=5 note=78 velocity=0 time=0
EXTRACT: note_on channel=10 note=70 velocity=0 time=0
EXTRACT: note_on channel=10 note=75 velocity=0 time=0
EXTRACT: note_on channel=10 note=78 velocity=0 time=0
EXTRACT: note_on channel=1 note=68 velocity=110 time=0.006696425000000001
EXTRACT: note_on channel=1 note=73 velocity=110 time=0
EXTRACT: note_on channel=1 note=78 velocity=110 time=0
EXTRACT: note_on channel=3 note=68 velocity=110 time=0
EXTRACT: note_on channel=9 note=70 velocity=75 time=0
EXTRACT: note_on channel=9 note=41 velocity=92 time=0
EXTRACT: note_on channel=9 note=47 velocity=92 time=0
EXTRACT: note_on channel=5 note=68 velocity=90 time=0
EXTRACT: note_on channel=5 note=73 velocity=90 time=0
EXTRACT: note_on channel=5 note=78 velocity=90 time=0
EXTRACT: note_on channel=10 note=68 velocity=90 time=0
EXTRACT: note_on channel=10 note=73 velocity=90 time=0
EXTRACT: note_on channel=10 note=78 velocity=90 time=0
EXTRACT: note_on channel=9 note=70 velocity=0 time=0.127232075
EXTRACT: note_on channel=9 note=41 velocity=0 time=0
EXTRACT: note_on channel=9 note=47 velocity=0 time=0
EXTRACT: note_on channel=9 note=70 velocity=75 time=0.006696425000000001
EXTRACT: note_on channel=9 note=41 velocity=92 time=0
EXTRACT: note_on channel=9 note=47 velocity=92 time=0
EXTRACT: note_on channel=1 note=68 velocity=0 time=0.127232075
EXTRACT: note_on channel=1 note=73 velocity=0 time=0
EXTRACT: note_on channel=1 note=78 velocity=0 time=0
EXTRACT: note_on channel=3 note=68 velocity=0 time=0
EXTRACT: note_on channel=5 note=68 velocity=0 time=0
EXTRACT: note_on channel=5 note=73 velocity=0 time=0
EXTRACT: note_on channel=5 note=78 velocity=0 time=0
EXTRACT: note_on channel=10 note=68 velocity=0 time=0
EXTRACT: note_on channel=10 note=73 velocity=0 time=0
EXTRACT: note_on channel=10 note=78 velocity=0 time=0
EXTRACT: note_on channel=1 note=68 velocity=110 time=0.006696425000000001
EXTRACT: note_on channel=1 note=73 velocity=110 time=0
EXTRACT: note_on channel=1 note=78 velocity=110 time=0
EXTRACT: note_on channel=3 note=68 velocity=110 time=0
EXTRACT: note_on channel=9 note=41 velocity=127 time=0
EXTRACT: note_on channel=9 note=47 velocity=127 time=0
EXTRACT: note_on channel=5 note=68 velocity=90 time=0
EXTRACT: note_on channel=5 note=73 velocity=90 time=0
EXTRACT: note_on channel=5 note=78 velocity=90 time=0
EXTRACT: note_on channel=10 note=68 velocity=90 time=0
EXTRACT: note_on channel=10 note=73 velocity=90 time=0
EXTRACT: note_on channel=10 note=78 velocity=90 time=0
EXTRACT: note_on channel=9 note=70 velocity=0 time=0.127232075
EXTRACT: note_on channel=9 note=41 velocity=0 time=0
EXTRACT: note_on channel=9 note=47 velocity=0 time=0
EXTRACT: note_on channel=9 note=70 velocity=75 time=0.006696425000000001
EXTRACT: note_on channel=9 note=41 velocity=92 time=0
EXTRACT: note_on channel=9 note=47 velocity=92 time=0
EXTRACT: note_on channel=9 note=70 velocity=0 time=0.127232075
EXTRACT: note_on channel=9 note=41 velocity=0 time=0
EXTRACT: note_on channel=9 note=47 velocity=0 time=0
EXTRACT: note_on channel=9 note=41 velocity=0 time=0
EXTRACT: note_on channel=9 note=47 velocity=0 time=0
EXTRACT: note_on channel=9 note=70 velocity=75 time=0.006696425000000001
EXTRACT: note_on channel=9 note=41 velocity=92 time=0
EXTRACT: note_on channel=9 note=47 velocity=92 time=0
EXTRACT: note_on channel=2 note=44 velocity=0 time=0.1339285
EXTRACT: note_on channel=6 note=44 velocity=0 time=0
EXTRACT: note_on channel=1 note=68 velocity=0 time=0.04464283333333333
EXTRACT: note_on channel=1 note=73 velocity=0 time=0
EXTRACT: note_on channel=1 note=78 velocity=0 time=0
EXTRACT: note_on channel=3 note=68 velocity=0 time=0
EXTRACT: note_on channel=5 note=68 velocity=0 time=0
EXTRACT: note_on channel=5 note=73 velocity=0 time=0
EXTRACT: note_on channel=5 note=78 velocity=0 time=0
EXTRACT: note_on channel=10 note=68 velocity=0 time=0
EXTRACT: note_on channel=10 note=73 velocity=0 time=0
EXTRACT: note_on channel=10 note=78 velocity=0 time=0
EXTRACT: note_on channel=9 note=70 velocity=0 time=0.08258924166666667
EXTRACT: note_on channel=9 note=41 velocity=0 time=0
EXTRACT: note_on channel=9 note=47 velocity=0 time=0
EXTRACT: note_on channel=0 note=73 velocity=110 time=0.006696425000000001
EXTRACT: note_on channel=1 note=66 velocity=110 time=0
EXTRACT: note_on channel=1 note=68 velocity=110 time=0
EXTRACT: note_on channel=1 note=73 velocity=110 time=0
EXTRACT: note_on channel=2 note=49 velocity=110 time=0
EXTRACT: note_on channel=9 note=70 velocity=75 time=0
EXTRACT: note_on channel=9 note=41 velocity=92 time=0
EXTRACT: note_on channel=9 note=47 velocity=92 time=0
EXTRACT: note_on channel=9 note=41 velocity=127 time=0
EXTRACT: note_on channel=9 note=47 velocity=127 time=0
EXTRACT: note_on channel=5 note=66 velocity=90 time=0
EXTRACT: note_on channel=5 note=68 velocity=90 time=0
EXTRACT: note_on channel=5 note=73 velocity=90 time=0
EXTRACT: note_on channel=10 note=66 velocity=90 time=0
EXTRACT: note_on channel=10 note=68 velocity=90 time=0
EXTRACT: note_on channel=10 note=73 velocity=90 time=0
EXTRACT: note_on channel=6 note=49 velocity=90 time=0
EXTRACT: note_on channel=9 note=70 velocity=0 time=0.261160575
EXTRACT: note_on channel=9 note=41 velocity=0 time=0
EXTRACT: note_on channel=9 note=47 velocity=0 time=0
EXTRACT: note_on channel=9 note=41 velocity=0 time=0
EXTRACT: note_on channel=9 note=47 velocity=0 time=0
EXTRACT: note_on channel=9 note=70 velocity=75 time=0.006696425000000001
EXTRACT: note_on channel=9 note=41 velocity=92 time=0
EXTRACT: note_on channel=9 note=47 velocity=92 time=0
EXTRACT: note_on channel=0 note=73 velocity=0 time=0.127232075
EXTRACT: note_on channel=1 note=66 velocity=0 time=0
EXTRACT: note_on channel=1 note=68 velocity=0 time=0
EXTRACT: note_on channel=1 note=73 velocity=0 time=0
EXTRACT: note_on channel=9 note=70 velocity=0 time=0
EXTRACT: note_on channel=9 note=41 velocity=0 time=0
EXTRACT: note_on channel=9 note=47 velocity=0 time=0
EXTRACT: note_on channel=5 note=66 velocity=0 time=0
EXTRACT: note_on channel=5 note=68 velocity=0 time=0
EXTRACT: note_on channel=5 note=73 velocity=0 time=0
EXTRACT: note_on channel=10 note=66 velocity=0 time=0
EXTRACT: note_on channel=10 note=68 velocity=0 time=0
EXTRACT: note_on channel=10 note=73 velocity=0 time=0
EXTRACT: note_on channel=0 note=73 velocity=110 time=0.006696425000000001
EXTRACT: note_on channel=1 note=66 velocity=110 time=0
EXTRACT: note_on channel=1 note=68 velocity=110 time=0
EXTRACT: note_on channel=1 note=73 velocity=110 time=0
EXTRACT: note_on channel=9 note=70 velocity=75 time=0
EXTRACT: note_on channel=9 note=41 velocity=92 time=0
EXTRACT: note_on channel=9 note=47 velocity=92 time=0
EXTRACT: note_on channel=5 note=66 velocity=90 time=0
EXTRACT: note_on channel=5 note=68 velocity=90 time=0
EXTRACT: note_on channel=5 note=73 velocity=90 time=0
EXTRACT: note_on channel=10 note=66 velocity=90 time=0
EXTRACT: note_on channel=10 note=68 velocity=90 time=0
EXTRACT: note_on channel=10 note=73 velocity=90 time=0
EXTRACT: note_on channel=9 note=41 velocity=127 time=0.1339285
EXTRACT: note_on channel=9 note=47 velocity=127 time=0
EXTRACT: note_on channel=9 note=70 velocity=0 time=0.127232075
EXTRACT: note_on channel=9 note=41 velocity=0 time=0
EXTRACT: note_on channel=9 note=47 velocity=0 time=0
EXTRACT: note_on channel=9 note=70 velocity=75 time=0.006696425000000001
EXTRACT: note_on channel=9 note=41 velocity=92 time=0
EXTRACT: note_on channel=9 note=47 velocity=92 time=0
EXTRACT: note_on channel=0 note=73 velocity=0 time=0.127232075
EXTRACT: note_on channel=1 note=66 velocity=0 time=0
EXTRACT: note_on channel=1 note=68 velocity=0 time=0
EXTRACT: note_on channel=1 note=73 velocity=0 time=0
EXTRACT: note_on channel=9 note=70 velocity=0 time=0
EXTRACT: note_on channel=9 note=41 velocity=0 time=0
EXTRACT: note_on channel=9 note=47 velocity=0 time=0
EXTRACT: note_on channel=9 note=41 velocity=0 time=0
EXTRACT: note_on channel=9 note=47 velocity=0 time=0
EXTRACT: note_on channel=5 note=66 velocity=0 time=0
EXTRACT: note_on channel=5 note=68 velocity=0 time=0
EXTRACT: note_on channel=5 note=73 velocity=0 time=0
EXTRACT: note_on channel=10 note=66 velocity=0 time=0
EXTRACT: note_on channel=10 note=68 velocity=0 time=0
EXTRACT: note_on channel=10 note=73 velocity=0 time=0
EXTRACT: note_on channel=0 note=77 velocity=110 time=0.006696425000000001
EXTRACT: note_on channel=1 note=77 velocity=110 time=0
EXTRACT: note_on channel=9 note=70 velocity=75 time=0
EXTRACT: note_on channel=9 note=41 velocity=92 time=0
EXTRACT: note_on channel=9 note=47 velocity=92 time=0
EXTRACT: note_on channel=5 note=77 velocity=90 time=0
EXTRACT: note_on channel=10 note=77 velocity=90 time=0
EXTRACT: note_on channel=2 note=49 velocity=0 time=0.1339285
EXTRACT: note_on channel=6 note=49 velocity=0 time=0
EXTRACT: note_on channel=0 note=77 velocity=0 time=0.127232075
EXTRACT: note_on channel=1 note=77 velocity=0 time=0
EXTRACT: note_on channel=9 note=70 velocity=0 time=0
EXTRACT: note_on channel=9 note=41 velocity=0 time=0
EXTRACT: note_on channel=9 note=47 velocity=0 time=0
EXTRACT: note_on channel=5 note=77 velocity=0 time=0
EXTRACT: note_on channel=10 note=77 velocity=0 time=0
EXTRACT: note_on channel=0 note=78 velocity=110 time=0.006696425000000001
EXTRACT: note_on channel=1 note=70 velocity=127 time=0
EXTRACT: note_on channel=1 note=73 velocity=127 time=0
EXTRACT: note_on channel=1 note=78 velocity=127 time=0
EXTRACT: note_on channel=2 note=42 velocity=127 time=0
EXTRACT: note_on channel=9 note=70 velocity=75 time=0
EXTRACT: note_on channel=9 note=41 velocity=92 time=0
EXTRACT: note_on channel=9 note=47 velocity=92 time=0
EXTRACT: note_on channel=9 note=41 velocity=127 time=0
EXTRACT: note_on channel=9 note=47 velocity=127 time=0
EXTRACT: note_on channel=5 note=70 velocity=107 time=0
EXTRACT: note_on channel=5 note=73 velocity=107 time=0
EXTRACT: note_on channel=5 note=78 velocity=107 time=0
EXTRACT: note_on channel=10 note=70 velocity=107 time=0
EXTRACT: note_on channel=10 note=73 velocity=107 time=0
EXTRACT: note_on channel=10 note=78 velocity=107 time=0
EXTRACT: note_on channel=6 note=42 velocity=107 time=0
EXTRACT: note_on channel=9 note=70 velocity=0 time=0.261160575
EXTRACT: note_on channel=9 note=41 velocity=0 time=0
EXTRACT: note_on channel=9 note=47 velocity=0 time=0
EXTRACT: note_on channel=9 note=41 velocity=0 time=0
EXTRACT: note_on channel=9 note=47 velocity=0 time=0
EXTRACT: note_on channel=9 note=70 velocity=75 time=0.006696425000000001
EXTRACT: note_on channel=9 note=41 velocity=92 time=0
EXTRACT: note_on channel=9 note=47 velocity=92 time=0
EXTRACT: note_on channel=9 note=70 velocity=0 time=0.127232075
EXTRACT: note_on channel=9 note=41 velocity=0 time=0
EXTRACT: note_on channel=9 note=47 velocity=0 time=0
EXTRACT: note_on channel=9 note=70 velocity=75 time=0.006696425000000001
EXTRACT: note_on channel=9 note=41 velocity=92 time=0
EXTRACT: note_on channel=9 note=47 velocity=92 time=0
EXTRACT: note_on channel=9 note=41 velocity=127 time=0.1339285
EXTRACT: note_on channel=9 note=47 velocity=127 time=0
EXTRACT: note_on channel=9 note=70 velocity=0 time=0.127232075
EXTRACT: note_on channel=9 note=41 velocity=0 time=0
EXTRACT: note_on channel=9 note=47 velocity=0 time=0
EXTRACT: note_on channel=9 note=70 velocity=75 time=0.006696425000000001
EXTRACT: note_on channel=9 note=41 velocity=92 time=0
EXTRACT: note_on channel=9 note=47 velocity=92 time=0
EXTRACT: note_on channel=9 note=70 velocity=0 time=0.127232075
EXTRACT: note_on channel=9 note=41 velocity=0 time=0
EXTRACT: note_on channel=9 note=47 velocity=0 time=0
EXTRACT: note_on channel=9 note=41 velocity=0 time=0
EXTRACT: note_on channel=9 note=47 velocity=0 time=0
EXTRACT: note_on channel=9 note=70 velocity=75 time=0.006696425000000001
EXTRACT: note_on channel=9 note=41 velocity=92 time=0
EXTRACT: note_on channel=9 note=47 velocity=92 time=0
EXTRACT: note_on channel=0 note=78 velocity=0 time=0.1339285
EXTRACT: note_on channel=1 note=70 velocity=0 time=0
EXTRACT: note_on channel=1 note=73 velocity=0 time=0
EXTRACT: note_on channel=1 note=78 velocity=0 time=0
EXTRACT: note_on channel=2 note=42 velocity=0 time=0
EXTRACT: note_on channel=5 note=70 velocity=0 time=0
EXTRACT: note_on channel=5 note=73 velocity=0 time=0
EXTRACT: note_on channel=5 note=78 velocity=0 time=0
EXTRACT: note_on channel=10 note=70 velocity=0 time=0
EXTRACT: note_on channel=10 note=73 velocity=0 time=0
EXTRACT: note_on channel=10 note=78 velocity=0 time=0
EXTRACT: note_on channel=6 note=42 velocity=0 time=0
EXTRACT: note_on channel=9 note=70 velocity=0 time=0.127232075
EXTRACT: note_on channel=9 note=41 velocity=0 time=0
EXTRACT: note_on channel=9 note=47 velocity=0 time=0
EXTRACT: note_on channel=0 note=73 velocity=110 time=0.006696425000000001
EXTRACT: note_on channel=1 note=63 velocity=127 time=0
EXTRACT: note_on channel=1 note=66 velocity=127 time=0
EXTRACT: note_on channel=1 note=73 velocity=127 time=0
EXTRACT: note_on channel=2 note=47 velocity=127 time=0
EXTRACT: note_on channel=9 note=70 velocity=75 time=0
EXTRACT: note_on channel=9 note=41 velocity=92 time=0
EXTRACT: note_on channel=9 note=47 velocity=92 time=0
EXTRACT: note_on channel=9 note=41 velocity=127 time=0
EXTRACT: note_on channel=9 note=47 velocity=127 time=0
EXTRACT: note_on channel=5 note=63 velocity=107 time=0
EXTRACT: note_on channel=5 note=66 velocity=107 time=0
EXTRACT: note_on channel=5 note=73 velocity=107 time=0
EXTRACT: note_on channel=10 note=63 velocity=107 time=0
EXTRACT: note_on channel=10 note=66 velocity=107 time=0
EXTRACT: note_on channel=10 note=73 velocity=107 time=0
EXTRACT: note_on channel=6 note=47 velocity=107 time=0
EXTRACT: note_on channel=9 note=70 velocity=0 time=0.261160575
EXTRACT: note_on channel=9 note=41 velocity=0 time=0
EXTRACT: note_on channel=9 note=47 velocity=0 time=0
EXTRACT: note_on channel=9 note=41 velocity=0 time=0
EXTRACT: note_on channel=9 note=47 velocity=0 time=0
EXTRACT: note_on channel=9 note=70 velocity=75 time=0.006696425000000001
EXTRACT: note_on channel=9 note=41 velocity=92 time=0
EXTRACT: note_on channel=9 note=47 velocity=92 time=0
EXTRACT: note_on channel=0 note=73 velocity=0 time=0.127232075
EXTRACT: note_on channel=1 note=63 velocity=0 time=0
EXTRACT: note_on channel=1 note=66 velocity=0 time=0
EXTRACT: note_on channel=1 note=73 velocity=0 time=0
EXTRACT: note_on channel=9 note=70 velocity=0 time=0
EXTRACT: note_on channel=9 note=41 velocity=0 time=0
EXTRACT: note_on channel=9 note=47 velocity=0 time=0
EXTRACT: note_on channel=5 note=63 velocity=0 time=0
EXTRACT: note_on channel=5 note=66 velocity=0 time=0
EXTRACT: note_on channel=5 note=73 velocity=0 time=0
EXTRACT: note_on channel=10 note=63 velocity=0 time=0
EXTRACT: note_on channel=10 note=66 velocity=0 time=0
EXTRACT: note_on channel=10 note=73 velocity=0 time=0
EXTRACT: note_on channel=0 note=73 velocity=110 time=0.006696425000000001
EXTRACT: note_on channel=1 note=73 velocity=110 time=0
EXTRACT: note_on channel=9 note=70 velocity=75 time=0
EXTRACT: note_on channel=9 note=41 velocity=92 time=0
EXTRACT: note_on channel=9 note=47 velocity=92 time=0
EXTRACT: note_on channel=5 note=73 velocity=90 time=0
EXTRACT: note_on channel=10 note=73 velocity=90 time=0
EXTRACT: note_on channel=2 note=47 velocity=0 time=0.04464283333333333
EXTRACT: note_on channel=6 note=47 velocity=0 time=0
EXTRACT: note_on channel=2 note=46 velocity=127 time=0.08928566666666667
EXTRACT: note_on channel=9 note=41 velocity=127 time=0
EXTRACT: note_on channel=9 note=47 velocity=127 time=0
EXTRACT: note_on channel=6 note=46 velocity=107 time=0
EXTRACT: note_on channel=9 note=70 velocity=0 time=0.127232075
EXTRACT: note_on channel=9 note=41 velocity=0 time=0
EXTRACT: note_on channel=9 note=47 velocity=0 time=0
EXTRACT: note_on channel=9 note=70 velocity=75 time=0.006696425000000001
EXTRACT: note_on channel=9 note=41 velocity=92 time=0
EXTRACT: note_on channel=9 note=47 velocity=92 time=0
EXTRACT: note_on channel=0 note=73 velocity=0 time=0.127232075
EXTRACT: note_on channel=1 note=73 velocity=0 time=0
EXTRACT: note_on channel=9 note=70 velocity=0 time=0
EXTRACT: note_on channel=9 note=41 velocity=0 time=0
EXTRACT: note_on channel=9 note=47 velocity=0 time=0
EXTRACT: note_on channel=9 note=41 velocity=0 time=0
EXTRACT: note_on channel=9 note=47 velocity=0 time=0
EXTRACT: note_on channel=5 note=73 velocity=0 time=0
EXTRACT: note_on channel=10 note=73 velocity=0 time=0
EXTRACT: note_on channel=0 note=73 velocity=110 time=0.006696425000000001
EXTRACT: note_on channel=1 note=73 velocity=110 time=0
EXTRACT: note_on channel=9 note=70 velocity=75 time=0
EXTRACT: note_on channel=9 note=41 velocity=92 time=0
EXTRACT: note_on channel=9 note=47 velocity=92 time=0
EXTRACT: note_on channel=5 note=73 velocity=90 time=0
EXTRACT: note_on channel=10 note=73 velocity=90 time=0
EXTRACT: note_on channel=2 note=46 velocity=0 time=0.17857133333333333
EXTRACT: note_on channel=6 note=46 velocity=0 time=0
EXTRACT: note_on channel=0 note=73 velocity=0 time=0.08258924166666667
EXTRACT: note_on channel=1 note=73 velocity=0 time=0
EXTRACT: note_on channel=9 note=70 velocity=0 time=0
EXTRACT: note_on channel=9 note=41 velocity=0 time=0
EXTRACT: note_on channel=9 note=47 velocity=0 time=0
EXTRACT: note_on channel=5 note=73 velocity=0 time=0
EXTRACT: note_on channel=10 note=73 velocity=0 time=0
EXTRACT: note_on channel=0 note=83 velocity=110 time=0.006696425000000001
EXTRACT: note_on channel=1 note=75 velocity=127 time=0
EXTRACT: note_on channel=1 note=78 velocity=127 time=0
EXTRACT: note_on channel=1 note=83 velocity=127 time=0
EXTRACT: note_on channel=2 note=44 velocity=127 time=0
EXTRACT: note_on channel=9 note=70 velocity=75 time=0
EXTRACT: note_on channel=9 note=41 velocity=92 time=0
EXTRACT: note_on channel=9 note=47 velocity=92 time=0
EXTRACT: note_on channel=9 note=41 velocity=127 time=0
EXTRACT: note_on channel=9 note=47 velocity=127 time=0
EXTRACT: note_on channel=5 note=75 velocity=107 time=0
EXTRACT: note_on channel=5 note=78 velocity=107 time=0
EXTRACT: note_on channel=5 note=83 velocity=107 time=0
EXTRACT: note_on channel=10 note=75 velocity=107 time=0
EXTRACT: note_on channel=10 note=78 velocity=107 time=0
EXTRACT: note_on channel=10 note=83 velocity=107 time=0
EXTRACT: note_on channel=6 note=44 velocity=107 time=0
EXTRACT: note_on channel=9 note=70 velocity=0 time=0.261160575
EXTRACT: note_on channel=9 note=41 velocity=0 time=0
EXTRACT: note_on channel=9 note=47 velocity=0 time=0
EXTRACT: note_on channel=9 note=41 velocity=0 time=0
EXTRACT: note_on channel=9 note=47 velocity=0 time=0
EXTRACT: note_on channel=9 note=70 velocity=75 time=0.006696425000000001
EXTRACT: note_on channel=9 note=41 velocity=92 time=0
EXTRACT: note_on channel=9 note=47 velocity=92 time=0
EXTRACT: note_on channel=0 note=83 velocity=0 time=0.127232075
EXTRACT: note_on channel=1 note=75 velocity=0 time=0
EXTRACT: note_on channel=1 note=78 velocity=0 time=0
EXTRACT: note_on channel=1 note=83 velocity=0 time=0
EXTRACT: note_on channel=9 note=70 velocity=0 time=0
EXTRACT: note_on channel=9 note=41 velocity=0 time=0
EXTRACT: note_on channel=9 note=47 velocity=0 time=0
EXTRACT: note_on channel=5 note=75 velocity=0 time=0
EXTRACT: note_on channel=5 note=78 velocity=0 time=0
EXTRACT: note_on channel=5 note=83 velocity=0 time=0
EXTRACT: note_on channel=10 note=75 velocity=0 time=0
EXTRACT: note_on channel=10 note=78 velocity=0 time=0
EXTRACT: note_on channel=10 note=83 velocity=0 time=0
EXTRACT: note_on channel=0 note=83 velocity=110 time=0.006696425000000001
EXTRACT: note_on channel=1 note=75 velocity=127 time=0
EXTRACT: note_on channel=1 note=78 velocity=127 time=0
EXTRACT: note_on channel=1 note=83 velocity=127 time=0
EXTRACT: note_on channel=9 note=70 velocity=75 time=0
EXTRACT: note_on channel=9 note=41 velocity=92 time=0
EXTRACT: note_on channel=9 note=47 velocity=92 time=0
EXTRACT: note_on channel=5 note=75 velocity=107 time=0
EXTRACT: note_on channel=5 note=78 velocity=107 time=0
EXTRACT: note_on channel=5 note=83 velocity=107 time=0
EXTRACT: note_on channel=10 note=75 velocity=107 time=0
EXTRACT: note_on channel=10 note=78 velocity=107 time=0
EXTRACT: note_on channel=10 note=83 velocity=107 time=0
EXTRACT: note_on channel=9 note=41 velocity=127 time=0.1339285
EXTRACT: note_on channel=9 note=47 velocity=127 time=0
EXTRACT: note_on channel=9 note=70 velocity=0 time=0.127232075
EXTRACT: note_on channel=9 note=41 velocity=0 time=0
EXTRACT: note_on channel=9 note=47 velocity=0 time=0
EXTRACT: note_on channel=9 note=70 velocity=75 time=0.006696425000000001
EXTRACT: note_on channel=9 note=41 velocity=92 time=0
EXTRACT: note_on channel=9 note=47 velocity=92 time=0
EXTRACT: note_on channel=0 note=83 velocity=0 time=0.127232075
EXTRACT: note_on channel=1 note=75 velocity=0 time=0
EXTRACT: note_on channel=1 note=78 velocity=0 time=0
EXTRACT: note_on channel=1 note=83 velocity=0 time=0
EXTRACT: note_on channel=9 note=70 velocity=0 time=0
EXTRACT: note_on channel=9 note=41 velocity=0 time=0
EXTRACT: note_on channel=9 note=47 velocity=0 time=0
EXTRACT: note_on channel=9 note=41 velocity=0 time=0
EXTRACT: note_on channel=9 note=47 velocity=0 time=0
EXTRACT: note_on channel=5 note=75 velocity=0 time=0
EXTRACT: note_on channel=5 note=78 velocity=0 time=0
EXTRACT: note_on channel=5 note=83 velocity=0 time=0
EXTRACT: note_on channel=10 note=75 velocity=0 time=0
EXTRACT: note_on channel=10 note=78 velocity=0 time=0
EXTRACT: note_on channel=10 note=83 velocity=0 time=0
EXTRACT: note_on channel=0 note=83 velocity=110 time=0.006696425000000001
EXTRACT: note_on channel=1 note=83 velocity=110 time=0
EXTRACT: note_on channel=9 note=70 velocity=75 time=0
EXTRACT: note_on channel=9 note=41 velocity=92 time=0
EXTRACT: note_on channel=9 note=47 velocity=92 time=0
EXTRACT: note_on channel=5 note=83 velocity=90 time=0
EXTRACT: note_on channel=10 note=83 velocity=90 time=0
EXTRACT: note_on channel=2 note=44 velocity=0 time=0.1339285
EXTRACT: note_on channel=6 note=44 velocity=0 time=0
EXTRACT: note_on channel=0 note=83 velocity=0 time=0.127232075
EXTRACT: note_on channel=1 note=83 velocity=0 time=0
EXTRACT: note_on channel=9 note=70 velocity=0 time=0
EXTRACT: note_on channel=9 note=41 velocity=0 time=0
EXTRACT: note_on channel=9 note=47 velocity=0 time=0
EXTRACT: note_on channel=5 note=83 velocity=0 time=0
EXTRACT: note_on channel=10 note=83 velocity=0 time=0
EXTRACT: note_on channel=0 note=83 velocity=110 time=0.006696425000000001
EXTRACT: note_on channel=1 note=73 velocity=127 time=0
EXTRACT: note_on channel=1 note=78 velocity=127 time=0
EXTRACT: note_on channel=1 note=83 velocity=127 time=0
EXTRACT: note_on channel=2 note=49 velocity=127 time=0
EXTRACT: note_on channel=9 note=70 velocity=75 time=0
EXTRACT: note_on channel=9 note=41 velocity=92 time=0
EXTRACT: note_on channel=9 note=47 velocity=92 time=0
EXTRACT: note_on channel=9 note=41 velocity=127 time=0
EXTRACT: note_on channel=9 note=47 velocity=127 time=0
EXTRACT: note_on channel=5 note=73 velocity=107 time=0
EXTRACT: note_on channel=5 note=78 velocity=107 time=0
EXTRACT: note_on channel=5 note=83 velocity=107 time=0
EXTRACT: note_on channel=10 note=73 velocity=107 time=0
EXTRACT: note_on channel=10 note=78 velocity=107 time=0
EXTRACT: note_on channel=10 note=83 velocity=107 time=0
EXTRACT: note_on channel=6 note=49 velocity=107 time=0
EXTRACT: note_on channel=9 note=70 velocity=0 time=0.261160575
EXTRACT: note_on channel=9 note=41 velocity=0 time=0
EXTRACT: note_on channel=9 note=47 velocity=0 time=0
EXTRACT: note_on channel=9 note=41 velocity=0 time=0
EXTRACT: note_on channel=9 note=47 velocity=0 time=0
EXTRACT: note_on channel=9 note=70 velocity=75 time=0.006696425000000001
EXTRACT: note_on channel=9 note=41 velocity=92 time=0
EXTRACT: note_on channel=9 note=47 velocity=92 time=0
EXTRACT: note_on channel=0 note=83 velocity=0 time=0.127232075
EXTRACT: note_on channel=1 note=73 velocity=0 time=0
EXTRACT: note_on channel=1 note=78 velocity=0 time=0
EXTRACT: note_on channel=1 note=83 velocity=0 time=0
EXTRACT: note_on channel=9 note=70 velocity=0 time=0
EXTRACT: note_on channel=9 note=41 velocity=0 time=0
EXTRACT: note_on channel=9 note=47 velocity=0 time=0
EXTRACT: note_on channel=5 note=73 velocity=0 time=0
EXTRACT: note_on channel=5 note=78 velocity=0 time=0
EXTRACT: note_on channel=5 note=83 velocity=0 time=0
EXTRACT: note_on channel=10 note=73 velocity=0 time=0
EXTRACT: note_on channel=10 note=78 velocity=0 time=0
EXTRACT: note_on channel=10 note=83 velocity=0 time=0
EXTRACT: note_on channel=0 note=82 velocity=110 time=0.006696425000000001
EXTRACT: note_on channel=1 note=82 velocity=110 time=0
EXTRACT: note_on channel=9 note=70 velocity=75 time=0
EXTRACT: note_on channel=9 note=41 velocity=92 time=0
EXTRACT: note_on channel=9 note=47 velocity=92 time=0
EXTRACT: note_on channel=5 note=82 velocity=90 time=0
EXTRACT: note_on channel=10 note=82 velocity=90 time=0
EXTRACT: note_on channel=9 note=41 velocity=127 time=0.1339285
EXTRACT: note_on channel=9 note=47 velocity=127 time=0
EXTRACT: note_on channel=9 note=70 velocity=0 time=0.127232075
EXTRACT: note_on channel=9 note=41 velocity=0 time=0
EXTRACT: note_on channel=9 note=47 velocity=0 time=0
EXTRACT: note_on channel=9 note=70 velocity=75 time=0.006696425000000001
EXTRACT: note_on channel=9 note=41 velocity=92 time=0
EXTRACT: note_on channel=9 note=47 velocity=92 time=0
EXTRACT: note_on channel=0 note=82 velocity=0 time=0.127232075
EXTRACT: note_on channel=1 note=82 velocity=0 time=0
EXTRACT: note_on channel=9 note=70 velocity=0 time=0
EXTRACT: note_on channel=9 note=41 velocity=0 time=0
EXTRACT: note_on channel=9 note=47 velocity=0 time=0
EXTRACT: note_on channel=9 note=41 velocity=0 time=0
EXTRACT: note_on channel=9 note=47 velocity=0 time=0
EXTRACT: note_on channel=5 note=82 velocity=0 time=0
EXTRACT: note_on channel=10 note=82 velocity=0 time=0
EXTRACT: note_on channel=0 note=82 velocity=110 time=0.006696425000000001
EXTRACT: note_on channel=1 note=82 velocity=110 time=0
EXTRACT: note_on channel=9 note=70 velocity=75 time=0
EXTRACT: note_on channel=9 note=41 velocity=92 time=0
EXTRACT: note_on channel=9 note=47 velocity=92 time=0
EXTRACT: note_on channel=5 note=82 velocity=90 time=0
EXTRACT: note_on channel=10 note=82 velocity=90 time=0
EXTRACT: note_on channel=2 note=49 velocity=0 time=0.1339285
EXTRACT: note_on channel=6 note=49 velocity=0 time=0
EXTRACT: note_on channel=0 note=82 velocity=0 time=0.127232075
EXTRACT: note_on channel=1 note=82 velocity=0 time=0
EXTRACT: note_on channel=9 note=70 velocity=0 time=0
EXTRACT: note_on channel=9 note=41 velocity=0 time=0
EXTRACT: note_on channel=9 note=47 velocity=0 time=0
EXTRACT: note_on channel=5 note=82 velocity=0 time=0
EXTRACT: note_on channel=10 note=82 velocity=0 time=0
EXTRACT: note_on channel=0 note=82 velocity=110 time=0.006696425000000001
EXTRACT: note_on channel=1 note=73 velocity=127 time=0
EXTRACT: note_on channel=1 note=78 velocity=127 time=0
EXTRACT: note_on channel=1 note=82 velocity=127 time=0
EXTRACT: note_on channel=2 note=51 velocity=127 time=0
EXTRACT: note_on channel=9 note=70 velocity=75 time=0
EXTRACT: note_on channel=9 note=41 velocity=92 time=0
EXTRACT: note_on channel=9 note=47 velocity=92 time=0
EXTRACT: note_on channel=9 note=41 velocity=127 time=0
EXTRACT: note_on channel=9 note=47 velocity=127 time=0
EXTRACT: note_on channel=5 note=73 velocity=107 time=0
EXTRACT: note_on channel=5 note=78 velocity=107 time=0
EXTRACT: note_on channel=5 note=82 velocity=107 time=0
EXTRACT: note_on channel=10 note=73 velocity=107 time=0
EXTRACT: note_on channel=10 note=78 velocity=107 time=0
EXTRACT: note_on channel=10 note=82 velocity=107 time=0
EXTRACT: note_on channel=6 note=51 velocity=107 time=0
EXTRACT: note_on channel=9 note=70 velocity=0 time=0.261160575
EXTRACT: note_on channel=9 note=41 velocity=0 time=0
EXTRACT: note_on channel=9 note=47 velocity=0 time=0
EXTRACT: note_on channel=9 note=41 velocity=0 time=0
EXTRACT: note_on channel=9 note=47 velocity=0 time=0
EXTRACT: note_on channel=9 note=70 velocity=75 time=0.006696425000000001
EXTRACT: note_on channel=9 note=41 velocity=92 time=0
EXTRACT: note_on channel=9 note=47 velocity=92 time=0
EXTRACT: note_on channel=0 note=82 velocity=0 time=0.127232075
EXTRACT: note_on channel=1 note=73 velocity=0 time=0
EXTRACT: note_on channel=1 note=78 velocity=0 time=0
EXTRACT: note_on channel=1 note=82 velocity=0 time=0
EXTRACT: note_on channel=9 note=70 velocity=0 time=0
EXTRACT: note_on channel=9 note=41 velocity=0 time=0
EXTRACT: note_on channel=9 note=47 velocity=0 time=0
EXTRACT: note_on channel=5 note=73 velocity=0 time=0
EXTRACT: note_on channel=5 note=78 velocity=0 time=0
EXTRACT: note_on channel=5 note=82 velocity=0 time=0
EXTRACT: note_on channel=10 note=73 velocity=0 time=0
EXTRACT: note_on channel=10 note=78 velocity=0 time=0
EXTRACT: note_on channel=10 note=82 velocity=0 time=0
EXTRACT: note_on channel=0 note=80 velocity=110 time=0.006696425000000001
EXTRACT: note_on channel=1 note=80 velocity=110 time=0
EXTRACT: note_on channel=9 note=70 velocity=75 time=0
EXTRACT: note_on channel=9 note=41 velocity=92 time=0
EXTRACT: note_on channel=9 note=47 velocity=92 time=0
EXTRACT: note_on channel=5 note=80 velocity=90 time=0
EXTRACT: note_on channel=10 note=80 velocity=90 time=0
EXTRACT: note_on channel=9 note=41 velocity=127 time=0.1339285
EXTRACT: note_on channel=9 note=47 velocity=127 time=0
EXTRACT: note_on channel=9 note=70 velocity=0 time=0.127232075
EXTRACT: note_on channel=9 note=41 velocity=0 time=0
EXTRACT: note_on channel=9 note=47 velocity=0 time=0
EXTRACT: note_on channel=9 note=70 velocity=75 time=0.006696425000000001
EXTRACT: note_on channel=9 note=41 velocity=92 time=0
EXTRACT: note_on channel=9 note=47 velocity=92 time=0
EXTRACT: note_on channel=0 note=80 velocity=0 time=0.127232075
EXTRACT: note_on channel=1 note=80 velocity=0 time=0
EXTRACT: note_on channel=9 note=70 velocity=0 time=0
EXTRACT: note_on channel=9 note=41 velocity=0 time=0
EXTRACT: note_on channel=9 note=47 velocity=0 time=0
EXTRACT: note_on channel=9 note=41 velocity=0 time=0
EXTRACT: note_on channel=9 note=47 velocity=0 time=0
EXTRACT: note_on channel=5 note=80 velocity=0 time=0
EXTRACT: note_on channel=10 note=80 velocity=0 time=0
EXTRACT: note_on channel=0 note=80 velocity=110 time=0.006696425000000001
EXTRACT: note_on channel=1 note=80 velocity=110 time=0
EXTRACT: note_on channel=9 note=70 velocity=75 time=0
EXTRACT: note_on channel=9 note=41 velocity=92 time=0
EXTRACT: note_on channel=9 note=47 velocity=92 time=0
EXTRACT: note_on channel=5 note=80 velocity=90 time=0
EXTRACT: note_on channel=10 note=80 velocity=90 time=0
EXTRACT: note_on channel=2 note=51 velocity=0 time=0.1339285
EXTRACT: note_on channel=6 note=51 velocity=0 time=0
EXTRACT: note_on channel=0 note=80 velocity=0 time=0.127232075
EXTRACT: note_on channel=1 note=80 velocity=0 time=0
EXTRACT: note_on channel=9 note=70 velocity=0 time=0
EXTRACT: note_on channel=9 note=41 velocity=0 time=0
EXTRACT: note_on channel=9 note=47 velocity=0 time=0
EXTRACT: note_on channel=5 note=80 velocity=0 time=0
EXTRACT: note_on channel=10 note=80 velocity=0 time=0
EXTRACT: note_on channel=0 note=80 velocity=110 time=0.006696425000000001
EXTRACT: note_on channel=1 note=73 velocity=127 time=0
EXTRACT: note_on channel=1 note=75 velocity=127 time=0
EXTRACT: note_on channel=1 note=80 velocity=127 time=0
EXTRACT: note_on channel=2 note=47 velocity=127 time=0
EXTRACT: note_on channel=9 note=70 velocity=75 time=0
EXTRACT: note_on channel=9 note=41 velocity=92 time=0
EXTRACT: note_on channel=9 note=47 velocity=92 time=0
EXTRACT: note_on channel=9 note=41 velocity=127 time=0
EXTRACT: note_on channel=9 note=47 velocity=127 time=0
EXTRACT: note_on channel=5 note=73 velocity=107 time=0
EXTRACT: note_on channel=5 note=75 velocity=107 time=0
EXTRACT: note_on channel=5 note=80 velocity=107 time=0
EXTRACT: note_on channel=10 note=73 velocity=107 time=0
EXTRACT: note_on channel=10 note=75 velocity=107 time=0
EXTRACT: note_on channel=10 note=80 velocity=107 time=0
EXTRACT: note_on channel=6 note=47 velocity=107 time=0
EXTRACT: note_on channel=9 note=70 velocity=0 time=0.261160575
EXTRACT: note_on channel=9 note=41 velocity=0 time=0
EXTRACT: note_on channel=9 note=47 velocity=0 time=0
EXTRACT: note_on channel=9 note=41 velocity=0 time=0
EXTRACT: note_on channel=9 note=47 velocity=0 time=0
EXTRACT: note_on channel=9 note=70 velocity=75 time=0.006696425000000001
EXTRACT: note_on channel=9 note=41 velocity=92 time=0
EXTRACT: note_on channel=9 note=47 velocity=92 time=0
EXTRACT: note_on channel=0 note=80 velocity=0 time=0.127232075
EXTRACT: note_on channel=1 note=73 velocity=0 time=0
EXTRACT: note_on channel=1 note=75 velocity=0 time=0
EXTRACT: note_on channel=1 note=80 velocity=0 time=0
EXTRACT: note_on channel=9 note=70 velocity=0 time=0
EXTRACT: note_on channel=9 note=41 velocity=0 time=0
EXTRACT: note_on channel=9 note=47 velocity=0 time=0
EXTRACT: note_on channel=5 note=73 velocity=0 time=0
EXTRACT: note_on channel=5 note=75 velocity=0 time=0
EXTRACT: note_on channel=5 note=80 velocity=0 time=0
EXTRACT: note_on channel=10 note=73 velocity=0 time=0
EXTRACT: note_on channel=10 note=75 velocity=0 time=0
EXTRACT: note_on channel=10 note=80 velocity=0 time=0
EXTRACT: note_on channel=0 note=78 velocity=110 time=0.006696425000000001
EXTRACT: note_on channel=1 note=78 velocity=110 time=0
EXTRACT: note_on channel=9 note=70 velocity=75 time=0
EXTRACT: note_on channel=9 note=41 velocity=92 time=0
EXTRACT: note_on channel=9 note=47 velocity=92 time=0
EXTRACT: note_on channel=5 note=78 velocity=90 time=0
EXTRACT: note_on channel=10 note=78 velocity=90 time=0
EXTRACT: note_on channel=9 note=41 velocity=127 time=0.1339285
EXTRACT: note_on channel=9 note=47 velocity=127 time=0
EXTRACT: note_on channel=9 note=70 velocity=0 time=0.127232075
EXTRACT: note_on channel=9 note=41 velocity=0 time=0
EXTRACT: note_on channel=9 note=47 velocity=0 time=0
EXTRACT: note_on channel=9 note=70 velocity=75 time=0.006696425000000001
EXTRACT: note_on channel=9 note=41 velocity=92 time=0
EXTRACT: note_on channel=9 note=47 velocity=92 time=0
EXTRACT: note_on channel=0 note=78 velocity=0 time=0.127232075
EXTRACT: note_on channel=1 note=78 velocity=0 time=0
EXTRACT: note_on channel=9 note=70 velocity=0 time=0
EXTRACT: note_on channel=9 note=41 velocity=0 time=0
EXTRACT: note_on channel=9 note=47 velocity=0 time=0
EXTRACT: note_on channel=9 note=41 velocity=0 time=0
EXTRACT: note_on channel=9 note=47 velocity=0 time=0
EXTRACT: note_on channel=5 note=78 velocity=0 time=0
EXTRACT: note_on channel=10 note=78 velocity=0 time=0
EXTRACT: note_on channel=0 note=77 velocity=110 time=0.006696425000000001
EXTRACT: note_on channel=1 note=77 velocity=110 time=0
EXTRACT: note_on channel=9 note=70 velocity=75 time=0
EXTRACT: note_on channel=9 note=41 velocity=92 time=0
EXTRACT: note_on channel=9 note=47 velocity=92 time=0
EXTRACT: note_on channel=5 note=77 velocity=90 time=0
EXTRACT: note_on channel=10 note=77 velocity=90 time=0
EXTRACT: note_on channel=2 note=47 velocity=0 time=0.1339285
EXTRACT: note_on channel=6 note=47 velocity=0 time=0
EXTRACT: note_on channel=0 note=77 velocity=0 time=0.127232075
EXTRACT: note_on channel=1 note=77 velocity=0 time=0
EXTRACT: note_on channel=9 note=70 velocity=0 time=0
EXTRACT: note_on channel=9 note=41 velocity=0 time=0
EXTRACT: note_on channel=9 note=47 velocity=0 time=0
EXTRACT: note_on channel=5 note=77 velocity=0 time=0
EXTRACT: note_on channel=10 note=77 velocity=0 time=0
EXTRACT: note_on channel=0 note=78 velocity=110 time=0.006696425000000001
EXTRACT: note_on channel=1 note=71 velocity=110 time=0
EXTRACT: note_on channel=1 note=75 velocity=110 time=0
EXTRACT: note_on channel=1 note=78 velocity=110 time=0
EXTRACT: note_on channel=2 note=44 velocity=110 time=0
EXTRACT: note_on channel=9 note=70 velocity=75 time=0
EXTRACT: note_on channel=9 note=41 velocity=92 time=0
EXTRACT: note_on channel=9 note=47 velocity=92 time=0
EXTRACT: note_on channel=9 note=41 velocity=127 time=0
EXTRACT: note_on channel=9 note=47 velocity=127 time=0
EXTRACT: note_on channel=5 note=71 velocity=90 time=0
EXTRACT: note_on channel=5 note=75 velocity=90 time=0
EXTRACT: note_on channel=5 note=78 velocity=90 time=0
EXTRACT: note_on channel=10 note=71 velocity=90 time=0
EXTRACT: note_on channel=10 note=75 velocity=90 time=0
EXTRACT: note_on channel=10 note=78 velocity=90 time=0
EXTRACT: note_on channel=6 note=44 velocity=90 time=0
EXTRACT: note_on channel=9 note=70 velocity=0 time=0.261160575
EXTRACT: note_on channel=9 note=41 velocity=0 time=0
EXTRACT: note_on channel=9 note=47 velocity=0 time=0
EXTRACT: note_on channel=9 note=41 velocity=0 time=0
EXTRACT: note_on channel=9 note=47 velocity=0 time=0
EXTRACT: note_on channel=9 note=70 velocity=75 time=0.006696425000000001
EXTRACT: note_on channel=9 note=41 velocity=92 time=0
EXTRACT: note_on channel=9 note=47 velocity=92 time=0
EXTRACT: note_on channel=0 note=78 velocity=0 time=0.127232075
EXTRACT: note_on channel=1 note=71 velocity=0 time=0
EXTRACT: note_on channel=1 note=75 velocity=0 time=0
EXTRACT: note_on channel=1 note=78 velocity=0 time=0
EXTRACT: note_on channel=9 note=70 velocity=0 time=0
EXTRACT: note_on channel=9 note=41 velocity=0 time=0
EXTRACT: note_on channel=9 note=47 velocity=0 time=0
EXTRACT: note_on channel=5 note=71 velocity=0 time=0
EXTRACT: note_on channel=5 note=75 velocity=0 time=0
EXTRACT: note_on channel=5 note=78 velocity=0 time=0
EXTRACT: note_on channel=10 note=71 velocity=0 time=0
EXTRACT: note_on channel=10 note=75 velocity=0 time=0
EXTRACT: note_on channel=10 note=78 velocity=0 time=0
EXTRACT: note_on channel=0 note=78 velocity=110 time=0.006696425000000001
EXTRACT: note_on channel=1 note=71 velocity=110 time=0
EXTRACT: note_on channel=1 note=75 velocity=110 time=0
EXTRACT: note_on channel=1 note=78 velocity=110 time=0
EXTRACT: note_on channel=9 note=70 velocity=75 time=0
EXTRACT: note_on channel=9 note=41 velocity=92 time=0
EXTRACT: note_on channel=9 note=47 velocity=92 time=0
EXTRACT: note_on channel=5 note=71 velocity=90 time=0
EXTRACT: note_on channel=5 note=75 velocity=90 time=0
EXTRACT: note_on channel=5 note=78 velocity=90 time=0
EXTRACT: note_on channel=10 note=71 velocity=90 time=0
EXTRACT: note_on channel=10 note=75 velocity=90 time=0
EXTRACT: note_on channel=10 note=78 velocity=90 time=0
EXTRACT: note_on channel=9 note=41 velocity=127 time=0.1339285
EXTRACT: note_on channel=9 note=47 velocity=127 time=0
EXTRACT: note_on channel=9 note=70 velocity=0 time=0.127232075
EXTRACT: note_on channel=9 note=41 velocity=0 time=0
EXTRACT: note_on channel=9 note=47 velocity=0 time=0
EXTRACT: note_on channel=9 note=70 velocity=75 time=0.006696425000000001
EXTRACT: note_on channel=9 note=41 velocity=92 time=0
EXTRACT: note_on channel=9 note=47 velocity=92 time=0
EXTRACT: note_on channel=0 note=78 velocity=0 time=0.127232075
EXTRACT: note_on channel=1 note=71 velocity=0 time=0
EXTRACT: note_on channel=1 note=75 velocity=0 time=0
EXTRACT: note_on channel=1 note=78 velocity=0 time=0
EXTRACT: note_on channel=9 note=70 velocity=0 time=0
EXTRACT: note_on channel=9 note=41 velocity=0 time=0
EXTRACT: note_on channel=9 note=47 velocity=0 time=0
EXTRACT: note_on channel=9 note=41 velocity=0 time=0
EXTRACT: note_on channel=9 note=47 velocity=0 time=0
EXTRACT: note_on channel=5 note=71 velocity=0 time=0
EXTRACT: note_on channel=5 note=75 velocity=0 time=0
EXTRACT: note_on channel=5 note=78 velocity=0 time=0
EXTRACT: note_on channel=10 note=71 velocity=0 time=0
EXTRACT: note_on channel=10 note=75 velocity=0 time=0
EXTRACT: note_on channel=10 note=78 velocity=0 time=0
EXTRACT: note_on channel=0 note=80 velocity=110 time=0.006696425000000001
EXTRACT: note_on channel=1 note=80 velocity=110 time=0
EXTRACT: note_on channel=9 note=70 velocity=75 time=0
EXTRACT: note_on channel=9 note=41 velocity=92 time=0
EXTRACT: note_on channel=9 note=47 velocity=92 time=0
EXTRACT: note_on channel=5 note=80 velocity=90 time=0
EXTRACT: note_on channel=10 note=80 velocity=90 time=0
EXTRACT: note_on channel=2 note=44 velocity=0 time=0.1339285
EXTRACT: note_on channel=6 note=44 velocity=0 time=0
EXTRACT: note_on channel=0 note=80 velocity=0 time=0.127232075
EXTRACT: note_on channel=1 note=80 velocity=0 time=0
EXTRACT: note_on channel=9 note=70 velocity=0 time=0
EXTRACT: note_on channel=9 note=41 velocity=0 time=0
EXTRACT: note_on channel=9 note=47 velocity=0 time=0
EXTRACT: note_on channel=5 note=80 velocity=0 time=0
EXTRACT: note_on channel=10 note=80 velocity=0 time=0
EXTRACT: note_on channel=0 note=73 velocity=110 time=0.006696425000000001
EXTRACT: note_on channel=0 note=80 velocity=110 time=0
EXTRACT: note_on channel=1 note=73 velocity=110 time=0
EXTRACT: note_on channel=1 note=78 velocity=110 time=0
EXTRACT: note_on channel=1 note=80 velocity=110 time=0
EXTRACT: note_on channel=2 note=49 velocity=110 time=0
EXTRACT: note_on channel=9 note=70 velocity=75 time=0
EXTRACT: note_on channel=9 note=41 velocity=92 time=0
EXTRACT: note_on channel=9 note=47 velocity=92 time=0
EXTRACT: note_on channel=9 note=41 velocity=127 time=0
EXTRACT: note_on channel=9 note=47 velocity=127 time=0
EXTRACT: note_on channel=5 note=73 velocity=90 time=0
EXTRACT: note_on channel=5 note=78 velocity=90 time=0
EXTRACT: note_on channel=5 note=80 velocity=90 time=0
EXTRACT: note_on channel=10 note=73 velocity=90 time=0
EXTRACT: note_on channel=10 note=78 velocity=90 time=0
EXTRACT: note_on channel=10 note=80 velocity=90 time=0
EXTRACT: note_on channel=6 note=49 velocity=90 time=0
EXTRACT: note_on channel=9 note=70 velocity=0 time=0.261160575
EXTRACT: note_on channel=9 note=41 velocity=0 time=0
EXTRACT: note_on channel=9 note=47 velocity=0 time=0
EXTRACT: note_on channel=9 note=41 velocity=0 time=0
EXTRACT: note_on channel=9 note=47 velocity=0 time=0
EXTRACT: note_on channel=9 note=70 velocity=75 time=0.006696425000000001
EXTRACT: note_on channel=9 note=41 velocity=92 time=0
EXTRACT: note_on channel=9 note=47 velocity=92 time=0
EXTRACT: note_on channel=0 note=73 velocity=0 time=0.127232075
EXTRACT: note_on channel=1 note=73 velocity=0 time=0
EXTRACT: note_on channel=1 note=78 velocity=0 time=0
EXTRACT: note_on channel=1 note=80 velocity=0 time=0
EXTRACT: note_on channel=9 note=70 velocity=0 time=0
EXTRACT: note_on channel=9 note=41 velocity=0 time=0
EXTRACT: note_on channel=9 note=47 velocity=0 time=0
EXTRACT: note_on channel=5 note=73 velocity=0 time=0
EXTRACT: note_on channel=5 note=78 velocity=0 time=0
EXTRACT: note_on channel=5 note=80 velocity=0 time=0
EXTRACT: note_on channel=10 note=73 velocity=0 time=0
EXTRACT: note_on channel=10 note=78 velocity=0 time=0
EXTRACT: note_on channel=10 note=80 velocity=0 time=0
EXTRACT: note_on channel=0 note=73 velocity=110 time=0.006696425000000001
EXTRACT: note_on channel=1 note=73 velocity=110 time=0
EXTRACT: note_on channel=9 note=70 velocity=75 time=0
EXTRACT: note_on channel=9 note=41 velocity=92 time=0
EXTRACT: note_on channel=9 note=47 velocity=92 time=0
EXTRACT: note_on channel=5 note=73 velocity=90 time=0
EXTRACT: note_on channel=10 note=73 velocity=90 time=0
EXTRACT: note_on channel=9 note=41 velocity=127 time=0.1339285
EXTRACT: note_on channel=9 note=47 velocity=127 time=0
EXTRACT: note_on channel=9 note=70 velocity=0 time=0.127232075
EXTRACT: note_on channel=9 note=41 velocity=0 time=0
EXTRACT: note_on channel=9 note=47 velocity=0 time=0
EXTRACT: note_on channel=9 note=70 velocity=75 time=0.006696425000000001
EXTRACT: note_on channel=9 note=41 velocity=92 time=0
EXTRACT: note_on channel=9 note=47 velocity=92 time=0
EXTRACT: note_on channel=0 note=73 velocity=0 time=0.127232075
EXTRACT: note_on channel=1 note=73 velocity=0 time=0
EXTRACT: note_on channel=9 note=70 velocity=0 time=0
EXTRACT: note_on channel=9 note=41 velocity=0 time=0
EXTRACT: note_on channel=9 note=47 velocity=0 time=0
EXTRACT: note_on channel=9 note=41 velocity=0 time=0
EXTRACT: note_on channel=9 note=47 velocity=0 time=0
EXTRACT: note_on channel=5 note=73 velocity=0 time=0
EXTRACT: note_on channel=10 note=73 velocity=0 time=0
EXTRACT: note_on channel=0 note=77 velocity=110 time=0.006696425000000001
EXTRACT: note_on channel=1 note=77 velocity=110 time=0
EXTRACT: note_on channel=9 note=70 velocity=75 time=0
EXTRACT: note_on channel=9 note=41 velocity=92 time=0
EXTRACT: note_on channel=9 note=47 velocity=92 time=0
EXTRACT: note_on channel=5 note=77 velocity=90 time=0
EXTRACT: note_on channel=10 note=77 velocity=90 time=0
EXTRACT: note_on channel=0 note=80 velocity=0 time=0.1339285
EXTRACT: note_on channel=2 note=49 velocity=0 time=0
EXTRACT: note_on channel=6 note=49 velocity=0 time=0
EXTRACT: note_on channel=0 note=77 velocity=0 time=0.127232075
EXTRACT: note_on channel=1 note=77 velocity=0 time=0
EXTRACT: note_on channel=9 note=70 velocity=0 time=0
EXTRACT: note_on channel=9 note=41 velocity=0 time=0
EXTRACT: note_on channel=9 note=47 velocity=0 time=0
EXTRACT: note_on channel=5 note=77 velocity=0 time=0
EXTRACT: note_on channel=10 note=77 velocity=0 time=0
EXTRACT: note_on channel=0 note=78 velocity=110 time=0.006696425000000001
EXTRACT: note_on channel=1 note=70 velocity=110 time=0
EXTRACT: note_on channel=1 note=73 velocity=110 time=0
EXTRACT: note_on channel=1 note=78 velocity=110 time=0
EXTRACT: note_on channel=2 note=42 velocity=110 time=0
EXTRACT: note_on channel=9 note=70 velocity=75 time=0
EXTRACT: note_on channel=9 note=41 velocity=92 time=0
EXTRACT: note_on channel=9 note=47 velocity=92 time=0
EXTRACT: note_on channel=9 note=41 velocity=127 time=0
EXTRACT: note_on channel=9 note=47 velocity=127 time=0
EXTRACT: note_on channel=5 note=70 velocity=90 time=0
EXTRACT: note_on channel=5 note=73 velocity=90 time=0
EXTRACT: note_on channel=5 note=78 velocity=90 time=0
EXTRACT: note_on channel=10 note=70 velocity=90 time=0
EXTRACT: note_on channel=10 note=73 velocity=90 time=0
EXTRACT: note_on channel=10 note=78 velocity=90 time=0
EXTRACT: note_on channel=6 note=42 velocity=90 time=0
EXTRACT: note_on channel=9 note=70 velocity=0 time=0.261160575
EXTRACT: note_on channel=9 note=41 velocity=0 time=0
EXTRACT: note_on channel=9 note=47 velocity=0 time=0
EXTRACT: note_on channel=9 note=41 velocity=0 time=0
EXTRACT: note_on channel=9 note=47 velocity=0 time=0
EXTRACT: note_on channel=9 note=70 velocity=75 time=0.006696425000000001
EXTRACT: note_on channel=9 note=41 velocity=92 time=0
EXTRACT: note_on channel=9 note=47 velocity=92 time=0
EXTRACT: note_on channel=9 note=70 velocity=0 time=0.127232075
EXTRACT: note_on channel=9 note=41 velocity=0 time=0
EXTRACT: note_on channel=9 note=47 velocity=0 time=0
EXTRACT: note_on channel=9 note=70 velocity=75 time=0.006696425000000001
EXTRACT: note_on channel=9 note=41 velocity=92 time=0
EXTRACT: note_on channel=9 note=47 velocity=92 time=0
EXTRACT: note_on channel=9 note=41 velocity=127 time=0.1339285
EXTRACT: note_on channel=9 note=47 velocity=127 time=0
EXTRACT: note_on channel=9 note=70 velocity=0 time=0.127232075
EXTRACT: note_on channel=9 note=41 velocity=0 time=0
EXTRACT: note_on channel=9 note=47 velocity=0 time=0
EXTRACT: note_on channel=9 note=70 velocity=75 time=0.006696425000000001
EXTRACT: note_on channel=9 note=41 velocity=92 time=0
EXTRACT: note_on channel=9 note=47 velocity=92 time=0
EXTRACT: note_on channel=9 note=70 velocity=0 time=0.127232075
EXTRACT: note_on channel=9 note=41 velocity=0 time=0
EXTRACT: note_on channel=9 note=47 velocity=0 time=0
EXTRACT: note_on channel=9 note=41 velocity=0 time=0
EXTRACT: note_on channel=9 note=47 velocity=0 time=0
EXTRACT: note_on channel=9 note=70 velocity=75 time=0.006696425000000001
EXTRACT: note_on channel=9 note=41 velocity=92 time=0
EXTRACT: note_on channel=9 note=47 velocity=92 time=0
EXTRACT: note_on channel=0 note=78 velocity=0 time=0.1339285
EXTRACT: note_on channel=1 note=70 velocity=0 time=0
EXTRACT: note_on channel=1 note=73 velocity=0 time=0
EXTRACT: note_on channel=1 note=78 velocity=0 time=0
EXTRACT: note_on channel=2 note=42 velocity=0 time=0
EXTRACT: note_on channel=5 note=70 velocity=0 time=0
EXTRACT: note_on channel=5 note=73 velocity=0 time=0
EXTRACT: note_on channel=5 note=78 velocity=0 time=0
EXTRACT: note_on channel=10 note=70 velocity=0 time=0
EXTRACT: note_on channel=10 note=73 velocity=0 time=0
EXTRACT: note_on channel=10 note=78 velocity=0 time=0
EXTRACT: note_on channel=6 note=42 velocity=0 time=0
EXTRACT: note_on channel=9 note=70 velocity=0 time=0.127232075
EXTRACT: note_on channel=9 note=41 velocity=0 time=0
EXTRACT: note_on channel=9 note=47 velocity=0 time=0
EXTRACT: note_on channel=1 note=71 velocity=110 time=0.006696425000000001
EXTRACT: note_on channel=1 note=75 velocity=110 time=0
EXTRACT: note_on channel=1 note=78 velocity=110 time=0
EXTRACT: note_on channel=2 note=47 velocity=110 time=0
EXTRACT: note_on channel=3 note=71 velocity=110 time=0
EXTRACT: note_on channel=9 note=70 velocity=75 time=0
EXTRACT: note_on channel=9 note=41 velocity=92 time=0
EXTRACT: note_on channel=9 note=47 velocity=92 time=0
EXTRACT: note_on channel=9 note=41 velocity=127 time=0
EXTRACT: note_on channel=9 note=47 velocity=127 time=0
EXTRACT: note_on channel=5 note=71 velocity=90 time=0
EXTRACT: note_on channel=5 note=75 velocity=90 time=0
EXTRACT: note_on channel=5 note=78 velocity=90 time=0
EXTRACT: note_on channel=10 note=71 velocity=90 time=0
EXTRACT: note_on channel=10 note=75 velocity=90 time=0
EXTRACT: note_on channel=10 note=78 velocity=90 time=0
EXTRACT: note_on channel=6 note=47 velocity=90 time=0
EXTRACT: note_on channel=9 note=70 velocity=0 time=0.261160575
EXTRACT: note_on channel=9 note=41 velocity=0 time=0
EXTRACT: note_on channel=9 note=47 velocity=0 time=0
EXTRACT: note_on channel=9 note=41 velocity=0 time=0
EXTRACT: note_on channel=9 note=47 velocity=0 time=0
EXTRACT: note_on channel=9 note=70 velocity=75 time=0.006696425000000001
EXTRACT: note_on channel=9 note=41 velocity=92 time=0
EXTRACT: note_on channel=9 note=47 velocity=92 time=0
EXTRACT: note_on channel=9 note=70 velocity=0 time=0.127232075
EXTRACT: note_on channel=9 note=41 velocity=0 time=0
EXTRACT: note_on channel=9 note=47 velocity=0 time=0
EXTRACT: note_on channel=9 note=70 velocity=75 time=0.006696425000000001
EXTRACT: note_on channel=9 note=41 velocity=92 time=0
EXTRACT: note_on channel=9 note=47 velocity=92 time=0
EXTRACT: note_on channel=2 note=47 velocity=0 time=0.04464283333333333
EXTRACT: note_on channel=6 note=47 velocity=0 time=0
EXTRACT: note_on channel=2 note=46 velocity=110 time=0.08928566666666667
EXTRACT: note_on channel=9 note=41 velocity=127 time=0
EXTRACT: note_on channel=9 note=47 velocity=127 time=0
EXTRACT: note_on channel=6 note=46 velocity=90 time=0
EXTRACT: note_on channel=9 note=70 velocity=0 time=0.127232075
EXTRACT: note_on channel=9 note=41 velocity=0 time=0
EXTRACT: note_on channel=9 note=47 velocity=0 time=0
EXTRACT: note_on channel=9 note=70 velocity=75 time=0.006696425000000001
EXTRACT: note_on channel=9 note=41 velocity=92 time=0
EXTRACT: note_on channel=9 note=47 velocity=92 time=0
EXTRACT: note_on channel=9 note=70 velocity=0 time=0.127232075
EXTRACT: note_on channel=9 note=41 velocity=0 time=0
EXTRACT: note_on channel=9 note=47 velocity=0 time=0
EXTRACT: note_on channel=9 note=41 velocity=0 time=0
EXTRACT: note_on channel=9 note=47 velocity=0 time=0
EXTRACT: note_on channel=9 note=70 velocity=75 time=0.006696425000000001
EXTRACT: note_on channel=9 note=41 velocity=92 time=0
EXTRACT: note_on channel=9 note=47 velocity=92 time=0
EXTRACT: note_on channel=1 note=71 velocity=0 time=0.1339285
EXTRACT: note_on channel=1 note=75 velocity=0 time=0
EXTRACT: note_on channel=1 note=78 velocity=0 time=0
EXTRACT: note_on channel=3 note=71 velocity=0 time=0
EXTRACT: note_on channel=5 note=71 velocity=0 time=0
EXTRACT: note_on channel=5 note=75 velocity=0 time=0
EXTRACT: note_on channel=5 note=78 velocity=0 time=0
EXTRACT: note_on channel=10 note=71 velocity=0 time=0
EXTRACT: note_on channel=10 note=75 velocity=0 time=0
EXTRACT: note_on channel=10 note=78 velocity=0 time=0
EXTRACT: note_on channel=2 note=46 velocity=0 time=0.04464283333333333
EXTRACT: note_on channel=6 note=46 velocity=0 time=0
EXTRACT: note_on channel=9 note=70 velocity=0 time=0.08258924166666667
EXTRACT: note_on channel=9 note=41 velocity=0 time=0
EXTRACT: note_on channel=9 note=47 velocity=0 time=0
EXTRACT: note_on channel=1 note=70 velocity=110 time=0.006696425000000001
EXTRACT: note_on channel=1 note=75 velocity=110 time=0
EXTRACT: note_on channel=1 note=78 velocity=110 time=0
EXTRACT: note_on channel=2 note=44 velocity=110 time=0
EXTRACT: note_on channel=3 note=70 velocity=110 time=0
EXTRACT: note_on channel=9 note=70 velocity=75 time=0
EXTRACT: note_on channel=9 note=41 velocity=92 time=0
EXTRACT: note_on channel=9 note=47 velocity=92 time=0
EXTRACT: note_on channel=9 note=41 velocity=127 time=0
EXTRACT: note_on channel=9 note=47 velocity=127 time=0
EXTRACT: note_on channel=5 note=70 velocity=90 time=0
EXTRACT: note_on channel=5 note=75 velocity=90 time=0
EXTRACT: note_on channel=5 note=78 velocity=90 time=0
EXTRACT: note_on channel=10 note=70 velocity=90 time=0
EXTRACT: note_on channel=10 note=75 velocity=90 time=0
EXTRACT: note_on channel=10 note=78 velocity=90 time=0
EXTRACT: note_on channel=6 note=44 velocity=90 time=0
EXTRACT: note_on channel=1 note=70 velocity=0 time=0.261160575
EXTRACT: note_on channel=1 note=75 velocity=0 time=0
EXTRACT: note_on channel=1 note=78 velocity=0 time=0
EXTRACT: note_on channel=3 note=70 velocity=0 time=0
EXTRACT: note_on channel=9 note=70 velocity=0 time=0
EXTRACT: note_on channel=9 note=41 velocity=0 time=0
EXTRACT: note_on channel=9 note=47 velocity=0 time=0
EXTRACT: note_on channel=9 note=41 velocity=0 time=0
EXTRACT: note_on channel=9 note=47 velocity=0 time=0
EXTRACT: note_on channel=5 note=70 velocity=0 time=0
EXTRACT: note_on channel=5 note=75 velocity=0 time=0
EXTRACT: note_on channel=5 note=78 velocity=0 time=0
EXTRACT: note_on channel=10 note=70 velocity=0 time=0
EXTRACT: note_on channel=10 note=75 velocity=0 time=0
EXTRACT: note_on channel=10 note=78 velocity=0 time=0
EXTRACT: note_on channel=1 note=68 velocity=110 time=0.006696425000000001
EXTRACT: note_on channel=1 note=73 velocity=110 time=0
EXTRACT: note_on channel=1 note=78 velocity=110 time=0
EXTRACT: note_on channel=3 note=68 velocity=110 time=0
EXTRACT: note_on channel=9 note=70 velocity=75 time=0
EXTRACT: note_on channel=9 note=41 velocity=92 time=0
EXTRACT: note_on channel=9 note=47 velocity=92 time=0
EXTRACT: note_on channel=5 note=68 velocity=90 time=0
EXTRACT: note_on channel=5 note=73 velocity=90 time=0
EXTRACT: note_on channel=5 note=78 velocity=90 time=0
EXTRACT: note_on channel=10 note=68 velocity=90 time=0
EXTRACT: note_on channel=10 note=73 velocity=90 time=0
EXTRACT: note_on channel=10 note=78 velocity=90 time=0
EXTRACT: note_on channel=9 note=70 velocity=0 time=0.127232075
EXTRACT: note_on channel=9 note=41 velocity=0 time=0
EXTRACT: note_on channel=9 note=47 velocity=0 time=0
EXTRACT: note_on channel=9 note=70 velocity=75 time=0.006696425000000001
EXTRACT: note_on channel=9 note=41 velocity=92 time=0
EXTRACT: note_on channel=9 note=47 velocity=92 time=0
EXTRACT: note_on channel=1 note=68 velocity=0 time=0.127232075
EXTRACT: note_on channel=1 note=73 velocity=0 time=0
EXTRACT: note_on channel=1 note=78 velocity=0 time=0
EXTRACT: note_on channel=3 note=68 velocity=0 time=0
EXTRACT: note_on channel=5 note=68 velocity=0 time=0
EXTRACT: note_on channel=5 note=73 velocity=0 time=0
EXTRACT: note_on channel=5 note=78 velocity=0 time=0
EXTRACT: note_on channel=10 note=68 velocity=0 time=0
EXTRACT: note_on channel=10 note=73 velocity=0 time=0
EXTRACT: note_on channel=10 note=78 velocity=0 time=0
EXTRACT: note_on channel=1 note=68 velocity=110 time=0.006696425000000001
EXTRACT: note_on channel=1 note=73 velocity=110 time=0
EXTRACT: note_on channel=1 note=78 velocity=110 time=0
EXTRACT: note_on channel=3 note=68 velocity=110 time=0
EXTRACT: note_on channel=9 note=41 velocity=127 time=0
EXTRACT: note_on channel=9 note=47 velocity=127 time=0
EXTRACT: note_on channel=5 note=68 velocity=90 time=0
EXTRACT: note_on channel=5 note=73 velocity=90 time=0
EXTRACT: note_on channel=5 note=78 velocity=90 time=0
EXTRACT: note_on channel=10 note=68 velocity=90 time=0
EXTRACT: note_on channel=10 note=73 velocity=90 time=0
EXTRACT: note_on channel=10 note=78 velocity=90 time=0
EXTRACT: note_on channel=9 note=70 velocity=0 time=0.127232075
EXTRACT: note_on channel=9 note=41 velocity=0 time=0
EXTRACT: note_on channel=9 note=47 velocity=0 time=0
EXTRACT: note_on channel=9 note=70 velocity=75 time=0.006696425000000001
EXTRACT: note_on channel=9 note=41 velocity=92 time=0
EXTRACT: note_on channel=9 note=47 velocity=92 time=0
EXTRACT: note_on channel=9 note=70 velocity=0 time=0.127232075
EXTRACT: note_on channel=9 note=41 velocity=0 time=0
EXTRACT: note_on channel=9 note=47 velocity=0 time=0
EXTRACT: note_on channel=9 note=41 velocity=0 time=0
EXTRACT: note_on channel=9 note=47 velocity=0 time=0
EXTRACT: note_on channel=9 note=70 velocity=75 time=0.006696425000000001
EXTRACT: note_on channel=9 note=41 velocity=92 time=0
EXTRACT: note_on channel=9 note=47 velocity=92 time=0
EXTRACT: note_on channel=2 note=44 velocity=0 time=0.1339285
EXTRACT: note_on channel=6 note=44 velocity=0 time=0
EXTRACT: note_on channel=1 note=68 velocity=0 time=0.04464283333333333
EXTRACT: note_on channel=1 note=73 velocity=0 time=0
EXTRACT: note_on channel=1 note=78 velocity=0 time=0
EXTRACT: note_on channel=3 note=68 velocity=0 time=0
EXTRACT: note_on channel=5 note=68 velocity=0 time=0
EXTRACT: note_on channel=5 note=73 velocity=0 time=0
EXTRACT: note_on channel=5 note=78 velocity=0 time=0
EXTRACT: note_on channel=10 note=68 velocity=0 time=0
EXTRACT: note_on channel=10 note=73 velocity=0 time=0
EXTRACT: note_on channel=10 note=78 velocity=0 time=0
EXTRACT: note_on channel=9 note=70 velocity=0 time=0.08258924166666667
EXTRACT: note_on channel=9 note=41 velocity=0 time=0
EXTRACT: note_on channel=9 note=47 velocity=0 time=0
EXTRACT: note_on channel=0 note=78 velocity=110 time=0.006696425000000001
EXTRACT: note_on channel=1 note=68 velocity=110 time=0
EXTRACT: note_on channel=1 note=73 velocity=110 time=0
EXTRACT: note_on channel=1 note=78 velocity=110 time=0
EXTRACT: note_on channel=2 note=49 velocity=110 time=0
EXTRACT: note_on channel=9 note=70 velocity=75 time=0
EXTRACT: note_on channel=9 note=41 velocity=92 time=0
EXTRACT: note_on channel=9 note=47 velocity=92 time=0
EXTRACT: note_on channel=9 note=41 velocity=127 time=0
EXTRACT: note_on channel=9 note=47 velocity=127 time=0
EXTRACT: note_on channel=5 note=68 velocity=90 time=0
EXTRACT: note_on channel=5 note=73 velocity=90 time=0
EXTRACT: note_on channel=5 note=78 velocity=90 time=0
EXTRACT: note_on channel=10 note=68 velocity=90 time=0
EXTRACT: note_on channel=10 note=73 velocity=90 time=0
EXTRACT: note_on channel=10 note=78 velocity=90 time=0
EXTRACT: note_on channel=6 note=49 velocity=90 time=0
EXTRACT: note_on channel=9 note=70 velocity=0 time=0.261160575
EXTRACT: note_on channel=9 note=41 velocity=0 time=0
EXTRACT: note_on channel=9 note=47 velocity=0 time=0
EXTRACT: note_on channel=9 note=41 velocity=0 time=0
EXTRACT: note_on channel=9 note=47 velocity=0 time=0
EXTRACT: note_on channel=9 note=70 velocity=75 time=0.006696425000000001
EXTRACT: note_on channel=9 note=41 velocity=92 time=0
EXTRACT: note_on channel=9 note=47 velocity=92 time=0
EXTRACT: note_on channel=0 note=78 velocity=0 time=0.127232075
EXTRACT: note_on channel=1 note=68 velocity=0 time=0
EXTRACT: note_on channel=1 note=73 velocity=0 time=0
EXTRACT: note_on channel=1 note=78 velocity=0 time=0
EXTRACT: note_on channel=9 note=70 velocity=0 time=0
EXTRACT: note_on channel=9 note=41 velocity=0 time=0
EXTRACT: note_on channel=9 note=47 velocity=0 time=0
EXTRACT: note_on channel=5 note=68 velocity=0 time=0
EXTRACT: note_on channel=5 note=73 velocity=0 time=0
EXTRACT: note_on channel=5 note=78 velocity=0 time=0
EXTRACT: note_on channel=10 note=68 velocity=0 time=0
EXTRACT: note_on channel=10 note=73 velocity=0 time=0
EXTRACT: note_on channel=10 note=78 velocity=0 time=0
EXTRACT: note_on channel=0 note=78 velocity=110 time=0.006696425000000001
EXTRACT: note_on channel=1 note=68 velocity=110 time=0
EXTRACT: note_on channel=1 note=73 velocity=110 time=0
EXTRACT: note_on channel=1 note=78 velocity=110 time=0
EXTRACT: note_on channel=9 note=70 velocity=75 time=0
EXTRACT: note_on channel=9 note=41 velocity=92 time=0
EXTRACT: note_on channel=9 note=47 velocity=92 time=0
EXTRACT: note_on channel=5 note=68 velocity=90 time=0
EXTRACT: note_on channel=5 note=73 velocity=90 time=0
EXTRACT: note_on channel=5 note=78 velocity=90 time=0
EXTRACT: note_on channel=10 note=68 velocity=90 time=0
EXTRACT: note_on channel=10 note=73 velocity=90 time=0
EXTRACT: note_on channel=10 note=78 velocity=90 time=0
EXTRACT: note_on channel=9 note=41 velocity=127 time=0.1339285
EXTRACT: note_on channel=9 note=47 velocity=127 time=0
EXTRACT: note_on channel=9 note=70 velocity=0 time=0.127232075
EXTRACT: note_on channel=9 note=41 velocity=0 time=0
EXTRACT: note_on channel=9 note=47 velocity=0 time=0
EXTRACT: note_on channel=9 note=70 velocity=75 time=0.006696425000000001
EXTRACT: note_on channel=9 note=41 velocity=92 time=0
EXTRACT: note_on channel=9 note=47 velocity=92 time=0
EXTRACT: note_on channel=0 note=78 velocity=0 time=0.127232075
EXTRACT: note_on channel=1 note=68 velocity=0 time=0
EXTRACT: note_on channel=1 note=73 velocity=0 time=0
EXTRACT: note_on channel=1 note=78 velocity=0 time=0
EXTRACT: note_on channel=9 note=70 velocity=0 time=0
EXTRACT: note_on channel=9 note=41 velocity=0 time=0
EXTRACT: note_on channel=9 note=47 velocity=0 time=0
EXTRACT: note_on channel=9 note=41 velocity=0 time=0
EXTRACT: note_on channel=9 note=47 velocity=0 time=0
EXTRACT: note_on channel=5 note=68 velocity=0 time=0
EXTRACT: note_on channel=5 note=73 velocity=0 time=0
EXTRACT: note_on channel=5 note=78 velocity=0 time=0
EXTRACT: note_on channel=10 note=68 velocity=0 time=0
EXTRACT: note_on channel=10 note=73 velocity=0 time=0
EXTRACT: note_on channel=10 note=78 velocity=0 time=0
EXTRACT: note_on channel=0 note=73 velocity=110 time=0.006696425000000001
EXTRACT: note_on channel=1 note=73 velocity=110 time=0
EXTRACT: note_on channel=9 note=70 velocity=75 time=0
EXTRACT: note_on channel=9 note=41 velocity=92 time=0
EXTRACT: note_on channel=9 note=47 velocity=92 time=0
EXTRACT: note_on channel=5 note=73 velocity=90 time=0
EXTRACT: note_on channel=10 note=73 velocity=90 time=0
EXTRACT: note_on channel=2 note=49 velocity=0 time=0.1339285
EXTRACT: note_on channel=6 note=49 velocity=0 time=0
EXTRACT: note_on channel=0 note=73 velocity=0 time=0.127232075
EXTRACT: note_on channel=1 note=73 velocity=0 time=0
EXTRACT: note_on channel=9 note=70 velocity=0 time=0
EXTRACT: note_on channel=9 note=41 velocity=0 time=0
EXTRACT: note_on channel=9 note=47 velocity=0 time=0
EXTRACT: note_on channel=5 note=73 velocity=0 time=0
EXTRACT: note_on channel=10 note=73 velocity=0 time=0
EXTRACT: note_on channel=0 note=75 velocity=110 time=0.006696425000000001
EXTRACT: note_on channel=1 note=66 velocity=110 time=0
EXTRACT: note_on channel=1 note=70 velocity=110 time=0
EXTRACT: note_on channel=1 note=75 velocity=110 time=0
EXTRACT: note_on channel=2 note=42 velocity=110 time=0
EXTRACT: note_on channel=9 note=70 velocity=75 time=0
EXTRACT: note_on channel=9 note=41 velocity=92 time=0
EXTRACT: note_on channel=9 note=47 velocity=92 time=0
EXTRACT: note_on channel=9 note=41 velocity=127 time=0
EXTRACT: note_on channel=9 note=47 velocity=127 time=0
EXTRACT: note_on channel=5 note=66 velocity=90 time=0
EXTRACT: note_on channel=5 note=70 velocity=90 time=0
EXTRACT: note_on channel=5 note=75 velocity=90 time=0
EXTRACT: note_on channel=10 note=66 velocity=90 time=0
EXTRACT: note_on channel=10 note=70 velocity=90 time=0
EXTRACT: note_on channel=10 note=75 velocity=90 time=0
EXTRACT: note_on channel=6 note=42 velocity=90 time=0
EXTRACT: note_on channel=9 note=70 velocity=0 time=0.261160575
EXTRACT: note_on channel=9 note=41 velocity=0 time=0
EXTRACT: note_on channel=9 note=47 velocity=0 time=0
EXTRACT: note_on channel=9 note=41 velocity=0 time=0
EXTRACT: note_on channel=9 note=47 velocity=0 time=0
EXTRACT: note_on channel=9 note=70 velocity=75 time=0.006696425000000001
EXTRACT: note_on channel=9 note=41 velocity=92 time=0
EXTRACT: note_on channel=9 note=47 velocity=92 time=0
EXTRACT: note_on channel=9 note=70 velocity=0 time=0.127232075
EXTRACT: note_on channel=9 note=41 velocity=0 time=0
EXTRACT: note_on channel=9 note=47 velocity=0 time=0
EXTRACT: note_on channel=9 note=70 velocity=75 time=0.006696425000000001
EXTRACT: note_on channel=9 note=41 velocity=92 time=0
EXTRACT: note_on channel=9 note=47 velocity=92 time=0
EXTRACT: note_on channel=1 note=66 velocity=0 time=0.04464283333333333
EXTRACT: note_on channel=1 note=70 velocity=0 time=0
EXTRACT: note_on channel=1 note=75 velocity=0 time=0
EXTRACT: note_on channel=5 note=66 velocity=0 time=0
EXTRACT: note_on channel=5 note=70 velocity=0 time=0
EXTRACT: note_on channel=5 note=75 velocity=0 time=0
EXTRACT: note_on channel=10 note=66 velocity=0 time=0
EXTRACT: note_on channel=10 note=70 velocity=0 time=0
EXTRACT: note_on channel=10 note=75 velocity=0 time=0
EXTRACT: note_on channel=0 note=75 velocity=0 time=0.08928566666666667
EXTRACT: note_on channel=0 note=73 velocity=110 time=0
EXTRACT: note_on channel=1 note=73 velocity=110 time=0
EXTRACT: note_on channel=9 note=41 velocity=127 time=0
EXTRACT: note_on channel=9 note=47 velocity=127 time=0
EXTRACT: note_on channel=5 note=73 velocity=90 time=0
EXTRACT: note_on channel=10 note=73 velocity=90 time=0
EXTRACT: note_on channel=9 note=70 velocity=0 time=0.127232075
EXTRACT: note_on channel=9 note=41 velocity=0 time=0
EXTRACT: note_on channel=9 note=47 velocity=0 time=0
EXTRACT: note_on channel=9 note=70 velocity=75 time=0.006696425000000001
EXTRACT: note_on channel=9 note=41 velocity=92 time=0
EXTRACT: note_on channel=9 note=47 velocity=92 time=0
EXTRACT: note_on channel=9 note=70 velocity=0 time=0.127232075
EXTRACT: note_on channel=9 note=41 velocity=0 time=0
EXTRACT: note_on channel=9 note=47 velocity=0 time=0
EXTRACT: note_on channel=9 note=41 velocity=0 time=0
EXTRACT: note_on channel=9 note=47 velocity=0 time=0
EXTRACT: note_on channel=9 note=70 velocity=75 time=0.006696425000000001
EXTRACT: note_on channel=9 note=41 velocity=92 time=0
EXTRACT: note_on channel=9 note=47 velocity=92 time=0
EXTRACT: note_on channel=2 note=42 velocity=0 time=0.1339285
EXTRACT: note_on channel=6 note=42 velocity=0 time=0
EXTRACT: note_on channel=0 note=73 velocity=0 time=0.04464283333333333
EXTRACT: note_on channel=1 note=73 velocity=0 time=0
EXTRACT: note_on channel=5 note=73 velocity=0 time=0
EXTRACT: note_on channel=10 note=73 velocity=0 time=0
EXTRACT: note_on channel=9 note=70 velocity=0 time=0.08258924166666667
EXTRACT: note_on channel=9 note=41 velocity=0 time=0
EXTRACT: note_on channel=9 note=47 velocity=0 time=0
EXTRACT: note_on channel=1 note=71 velocity=110 time=0.006696425000000001
EXTRACT: note_on channel=1 note=75 velocity=110 time=0
EXTRACT: note_on channel=1 note=78 velocity=110 time=0
EXTRACT: note_on channel=2 note=47 velocity=110 time=0
EXTRACT: note_on channel=3 note=71 velocity=110 time=0
EXTRACT: note_on channel=9 note=70 velocity=75 time=0
EXTRACT: note_on channel=9 note=41 velocity=92 time=0
EXTRACT: note_on channel=9 note=47 velocity=92 time=0
EXTRACT: note_on channel=9 note=41 velocity=127 time=0
EXTRACT: note_on channel=9 note=47 velocity=127 time=0
EXTRACT: note_on channel=5 note=71 velocity=90 time=0
EXTRACT: note_on channel=5 note=75 velocity=90 time=0
EXTRACT: note_on channel=5 note=78 velocity=90 time=0
EXTRACT: note_on channel=10 note=71 velocity=90 time=0
EXTRACT: note_on channel=10 note=75 velocity=90 time=0
EXTRACT: note_on channel=10 note=78 velocity=90 time=0
EXTRACT: note_on channel=6 note=47 velocity=90 time=0
EXTRACT: note_on channel=9 note=70 velocity=0 time=0.261160575
EXTRACT: note_on channel=9 note=41 velocity=0 time=0
EXTRACT: note_on channel=9 note=47 velocity=0 time=0
EXTRACT: note_on channel=9 note=41 velocity=0 time=0
EXTRACT: note_on channel=9 note=47 velocity=0 time=0
EXTRACT: note_on channel=9 note=70 velocity=75 time=0.006696425000000001
EXTRACT: note_on channel=9 note=41 velocity=92 time=0
EXTRACT: note_on channel=9 note=47 velocity=92 time=0
EXTRACT: note_on channel=9 note=70 velocity=0 time=0.127232075
EXTRACT: note_on channel=9 note=41 velocity=0 time=0
EXTRACT: note_on channel=9 note=47 velocity=0 time=0
EXTRACT: note_on channel=9 note=70 velocity=75 time=0.006696425000000001
EXTRACT: note_on channel=9 note=41 velocity=92 time=0
EXTRACT: note_on channel=9 note=47 velocity=92 time=0
EXTRACT: note_on channel=1 note=71 velocity=0 time=0.04464283333333333
EXTRACT: note_on channel=2 note=47 velocity=0 time=0
EXTRACT: note_on channel=5 note=71 velocity=0 time=0
EXTRACT: note_on channel=10 note=71 velocity=0 time=0
EXTRACT: note_on channel=6 note=47 velocity=0 time=0
EXTRACT: note_on channel=1 note=70 velocity=110 time=0.08928566666666667
EXTRACT: note_on channel=2 note=46 velocity=110 time=0
EXTRACT: note_on channel=3 note=71 velocity=0 time=0
EXTRACT: note_on channel=3 note=70 velocity=110 time=0
EXTRACT: note_on channel=9 note=41 velocity=127 time=0
EXTRACT: note_on channel=9 note=47 velocity=127 time=0
EXTRACT: note_on channel=5 note=70 velocity=90 time=0
EXTRACT: note_on channel=10 note=70 velocity=90 time=0
EXTRACT: note_on channel=6 note=46 velocity=90 time=0
EXTRACT: note_on channel=9 note=70 velocity=0 time=0.127232075
EXTRACT: note_on channel=9 note=41 velocity=0 time=0
EXTRACT: note_on channel=9 note=47 velocity=0 time=0
EXTRACT: note_on channel=9 note=70 velocity=75 time=0.006696425000000001
EXTRACT: note_on channel=9 note=41 velocity=92 time=0
EXTRACT: note_on channel=9 note=47 velocity=92 time=0
EXTRACT: note_on channel=9 note=70 velocity=0 time=0.127232075
EXTRACT: note_on channel=9 note=41 velocity=0 time=0
EXTRACT: note_on channel=9 note=47 velocity=0 time=0
EXTRACT: note_on channel=9 note=41 velocity=0 time=0
EXTRACT: note_on channel=9 note=47 velocity=0 time=0
EXTRACT: note_on channel=9 note=70 velocity=75 time=0.006696425000000001
EXTRACT: note_on channel=9 note=41 velocity=92 time=0
EXTRACT: note_on channel=9 note=47 velocity=92 time=0
EXTRACT: note_on channel=1 note=75 velocity=0 time=0.1339285
EXTRACT: note_on channel=1 note=78 velocity=0 time=0
EXTRACT: note_on channel=5 note=75 velocity=0 time=0
EXTRACT: note_on channel=5 note=78 velocity=0 time=0
EXTRACT: note_on channel=10 note=75 velocity=0 time=0
EXTRACT: note_on channel=10 note=78 velocity=0 time=0
EXTRACT: note_on channel=1 note=70 velocity=0 time=0.04464283333333333
EXTRACT: note_on channel=2 note=46 velocity=0 time=0
EXTRACT: note_on channel=3 note=70 velocity=0 time=0
EXTRACT: note_on channel=5 note=70 velocity=0 time=0
EXTRACT: note_on channel=10 note=70 velocity=0 time=0
EXTRACT: note_on channel=6 note=46 velocity=0 time=0
EXTRACT: note_on channel=9 note=70 velocity=0 time=0.08258924166666667
EXTRACT: note_on channel=9 note=41 velocity=0 time=0
EXTRACT: note_on channel=9 note=47 velocity=0 time=0
EXTRACT: note_on channel=1 note=70 velocity=110 time=0.006696425000000001
EXTRACT: note_on channel=1 note=75 velocity=110 time=0
EXTRACT: note_on channel=1 note=78 velocity=110 time=0
EXTRACT: note_on channel=2 note=44 velocity=110 time=0
EXTRACT: note_on channel=3 note=70 velocity=110 time=0
EXTRACT: note_on channel=9 note=70 velocity=75 time=0
EXTRACT: note_on channel=9 note=41 velocity=92 time=0
EXTRACT: note_on channel=9 note=47 velocity=92 time=0
EXTRACT: note_on channel=9 note=41 velocity=127 time=0
EXTRACT: note_on channel=9 note=47 velocity=127 time=0
EXTRACT: note_on channel=5 note=70 velocity=90 time=0
EXTRACT: note_on channel=5 note=75 velocity=90 time=0
EXTRACT: note_on channel=5 note=78 velocity=90 time=0
EXTRACT: note_on channel=10 note=70 velocity=90 time=0
EXTRACT: note_on channel=10 note=75 velocity=90 time=0
EXTRACT: note_on channel=10 note=78 velocity=90 time=0
EXTRACT: note_on channel=6 note=44 velocity=90 time=0
EXTRACT: note_on channel=1 note=70 velocity=0 time=0.261160575
EXTRACT: note_on channel=1 note=75 velocity=0 time=0
EXTRACT: note_on channel=1 note=78 velocity=0 time=0
EXTRACT: note_on channel=3 note=70 velocity=0 time=0
EXTRACT: note_on channel=9 note=70 velocity=0 time=0
EXTRACT: note_on channel=9 note=41 velocity=0 time=0
EXTRACT: note_on channel=9 note=47 velocity=0 time=0
EXTRACT: note_on channel=9 note=41 velocity=0 time=0
EXTRACT: note_on channel=9 note=47 velocity=0 time=0
EXTRACT: note_on channel=5 note=70 velocity=0 time=0
EXTRACT: note_on channel=5 note=75 velocity=0 time=0
EXTRACT: note_on channel=5 note=78 velocity=0 time=0
EXTRACT: note_on channel=10 note=70 velocity=0 time=0
EXTRACT: note_on channel=10 note=75 velocity=0 time=0
EXTRACT: note_on channel=10 note=78 velocity=0 time=0
EXTRACT: note_on channel=1 note=70 velocity=110 time=0.006696425000000001
EXTRACT: note_on channel=1 note=75 velocity=110 time=0
EXTRACT: note_on channel=1 note=78 velocity=110 time=0
EXTRACT: note_on channel=3 note=68 velocity=110 time=0
EXTRACT: note_on channel=9 note=70 velocity=75 time=0
EXTRACT: note_on channel=9 note=41 velocity=92 time=0
EXTRACT: note_on channel=9 note=47 velocity=92 time=0
EXTRACT: note_on channel=5 note=70 velocity=90 time=0
EXTRACT: note_on channel=5 note=75 velocity=90 time=0
EXTRACT: note_on channel=5 note=78 velocity=90 time=0
EXTRACT: note_on channel=10 note=70 velocity=90 time=0
EXTRACT: note_on channel=10 note=75 velocity=90 time=0
EXTRACT: note_on channel=10 note=78 velocity=90 time=0
EXTRACT: note_on channel=9 note=70 velocity=0 time=0.127232075
EXTRACT: note_on channel=9 note=41 velocity=0 time=0
EXTRACT: note_on channel=9 note=47 velocity=0 time=0
EXTRACT: note_on channel=9 note=70 velocity=75 time=0.006696425000000001
EXTRACT: note_on channel=9 note=41 velocity=92 time=0
EXTRACT: note_on channel=9 note=47 velocity=92 time=0
EXTRACT: note_on channel=1 note=70 velocity=0 time=0.127232075
EXTRACT: note_on channel=1 note=75 velocity=0 time=0
EXTRACT: note_on channel=1 note=78 velocity=0 time=0
EXTRACT: note_on channel=3 note=68 velocity=0 time=0
EXTRACT: note_on channel=5 note=70 velocity=0 time=0
EXTRACT: note_on channel=5 note=75 velocity=0 time=0
EXTRACT: note_on channel=5 note=78 velocity=0 time=0
EXTRACT: note_on channel=10 note=70 velocity=0 time=0
EXTRACT: note_on channel=10 note=75 velocity=0 time=0
EXTRACT: note_on channel=10 note=78 velocity=0 time=0
EXTRACT: note_on channel=1 note=70 velocity=110 time=0.006696425000000001
EXTRACT: note_on channel=1 note=75 velocity=110 time=0
EXTRACT: note_on channel=1 note=78 velocity=110 time=0
EXTRACT: note_on channel=3 note=68 velocity=110 time=0
EXTRACT: note_on channel=9 note=41 velocity=127 time=0
EXTRACT: note_on channel=9 note=47 velocity=127 time=0
EXTRACT: note_on channel=5 note=70 velocity=90 time=0
EXTRACT: note_on channel=5 note=75 velocity=90 time=0
EXTRACT: note_on channel=5 note=78 velocity=90 time=0
EXTRACT: note_on channel=10 note=70 velocity=90 time=0
EXTRACT: note_on channel=10 note=75 velocity=90 time=0
EXTRACT: note_on channel=10 note=78 velocity=90 time=0
EXTRACT: note_on channel=9 note=70 velocity=0 time=0.127232075
EXTRACT: note_on channel=9 note=41 velocity=0 time=0
EXTRACT: note_on channel=9 note=47 velocity=0 time=0
EXTRACT: note_on channel=9 note=70 velocity=75 time=0.006696425000000001
EXTRACT: note_on channel=9 note=41 velocity=92 time=0
EXTRACT: note_on channel=9 note=47 velocity=92 time=0
EXTRACT: note_on channel=9 note=70 velocity=0 time=0.127232075
EXTRACT: note_on channel=9 note=41 velocity=0 time=0
EXTRACT: note_on channel=9 note=47 velocity=0 time=0
EXTRACT: note_on channel=9 note=41 velocity=0 time=0
EXTRACT: note_on channel=9 note=47 velocity=0 time=0
EXTRACT: note_on channel=9 note=70 velocity=75 time=0.006696425000000001
EXTRACT: note_on channel=9 note=41 velocity=92 time=0
EXTRACT: note_on channel=9 note=47 velocity=92 time=0
EXTRACT: note_on channel=2 note=44 velocity=0 time=0.1339285
EXTRACT: note_on channel=6 note=44 velocity=0 time=0
EXTRACT: note_on channel=1 note=70 velocity=0 time=0.04464283333333333
EXTRACT: note_on channel=1 note=75 velocity=0 time=0
EXTRACT: note_on channel=1 note=78 velocity=0 time=0
EXTRACT: note_on channel=3 note=68 velocity=0 time=0
EXTRACT: note_on channel=5 note=70 velocity=0 time=0
EXTRACT: note_on channel=5 note=75 velocity=0 time=0
EXTRACT: note_on channel=5 note=78 velocity=0 time=0
EXTRACT: note_on channel=10 note=70 velocity=0 time=0
EXTRACT: note_on channel=10 note=75 velocity=0 time=0
EXTRACT: note_on channel=10 note=78 velocity=0 time=0
EXTRACT: note_on channel=9 note=70 velocity=0 time=0.08258924166666667
EXTRACT: note_on channel=9 note=41 velocity=0 time=0
EXTRACT: note_on channel=9 note=47 velocity=0 time=0
EXTRACT: note_on channel=0 note=73 velocity=110 time=0.006696425000000001
EXTRACT: note_on channel=1 note=66 velocity=110 time=0
EXTRACT: note_on channel=1 note=68 velocity=110 time=0
EXTRACT: note_on channel=1 note=73 velocity=110 time=0
EXTRACT: note_on channel=2 note=49 velocity=110 time=0
EXTRACT: note_on channel=9 note=70 velocity=75 time=0
EXTRACT: note_on channel=9 note=41 velocity=92 time=0
EXTRACT: note_on channel=9 note=47 velocity=92 time=0
EXTRACT: note_on channel=9 note=41 velocity=127 time=0
EXTRACT: note_on channel=9 note=47 velocity=127 time=0
EXTRACT: note_on channel=5 note=66 velocity=90 time=0
EXTRACT: note_on channel=5 note=68 velocity=90 time=0
EXTRACT: note_on channel=5 note=73 velocity=90 time=0
EXTRACT: note_on channel=10 note=66 velocity=90 time=0
EXTRACT: note_on channel=10 note=68 velocity=90 time=0
EXTRACT: note_on channel=10 note=73 velocity=90 time=0
EXTRACT: note_on channel=6 note=49 velocity=90 time=0
EXTRACT: note_on channel=9 note=70 velocity=0 time=0.261160575
EXTRACT: note_on channel=9 note=41 velocity=0 time=0
EXTRACT: note_on channel=9 note=47 velocity=0 time=0
EXTRACT: note_on channel=9 note=41 velocity=0 time=0
EXTRACT: note_on channel=9 note=47 velocity=0 time=0
EXTRACT: note_on channel=9 note=70 velocity=75 time=0.006696425000000001
EXTRACT: note_on channel=9 note=41 velocity=92 time=0
EXTRACT: note_on channel=9 note=47 velocity=92 time=0
EXTRACT: note_on channel=0 note=73 velocity=0 time=0.127232075
EXTRACT: note_on channel=1 note=66 velocity=0 time=0
EXTRACT: note_on channel=1 note=68 velocity=0 time=0
EXTRACT: note_on channel=1 note=73 velocity=0 time=0
EXTRACT: note_on channel=9 note=70 velocity=0 time=0
EXTRACT: note_on channel=9 note=41 velocity=0 time=0
EXTRACT: note_on channel=9 note=47 velocity=0 time=0
EXTRACT: note_on channel=5 note=66 velocity=0 time=0
EXTRACT: note_on channel=5 note=68 velocity=0 time=0
EXTRACT: note_on channel=5 note=73 velocity=0 time=0
EXTRACT: note_on channel=10 note=66 velocity=0 time=0
EXTRACT: note_on channel=10 note=68 velocity=0 time=0
EXTRACT: note_on channel=10 note=73 velocity=0 time=0
EXTRACT: note_on channel=0 note=73 velocity=110 time=0.006696425000000001
EXTRACT: note_on channel=1 note=66 velocity=110 time=0
EXTRACT: note_on channel=1 note=68 velocity=110 time=0
EXTRACT: note_on channel=1 note=73 velocity=110 time=0
EXTRACT: note_on channel=9 note=70 velocity=75 time=0
EXTRACT: note_on channel=9 note=41 velocity=92 time=0
EXTRACT: note_on channel=9 note=47 velocity=92 time=0
EXTRACT: note_on channel=5 note=66 velocity=90 time=0
EXTRACT: note_on channel=5 note=68 velocity=90 time=0
EXTRACT: note_on channel=5 note=73 velocity=90 time=0
EXTRACT: note_on channel=10 note=66 velocity=90 time=0
EXTRACT: note_on channel=10 note=68 velocity=90 time=0
EXTRACT: note_on channel=10 note=73 velocity=90 time=0
EXTRACT: note_on channel=1 note=66 velocity=0 time=0.127232075
EXTRACT: note_on channel=1 note=68 velocity=0 time=0
EXTRACT: note_on channel=1 note=73 velocity=0 time=0
EXTRACT: note_on channel=5 note=66 velocity=0 time=0
EXTRACT: note_on channel=5 note=68 velocity=0 time=0
EXTRACT: note_on channel=5 note=73 velocity=0 time=0
EXTRACT: note_on channel=10 note=66 velocity=0 time=0
EXTRACT: note_on channel=10 note=68 velocity=0 time=0
EXTRACT: note_on channel=10 note=73 velocity=0 time=0
EXTRACT: note_on channel=1 note=66 velocity=110 time=0.006696425000000001
EXTRACT: note_on channel=1 note=68 velocity=110 time=0
EXTRACT: note_on channel=1 note=73 velocity=110 time=0
EXTRACT: note_on channel=9 note=41 velocity=127 time=0
EXTRACT: note_on channel=9 note=47 velocity=127 time=0
EXTRACT: note_on channel=5 note=66 velocity=90 time=0
EXTRACT: note_on channel=5 note=68 velocity=90 time=0
EXTRACT: note_on channel=5 note=73 velocity=90 time=0
EXTRACT: note_on channel=10 note=66 velocity=90 time=0
EXTRACT: note_on channel=10 note=68 velocity=90 time=0
EXTRACT: note_on channel=10 note=73 velocity=90 time=0
EXTRACT: note_on channel=9 note=70 velocity=0 time=0.127232075
EXTRACT: note_on channel=9 note=41 velocity=0 time=0
EXTRACT: note_on channel=9 note=47 velocity=0 time=0
EXTRACT: note_on channel=9 note=70 velocity=75 time=0.006696425000000001
EXTRACT: note_on channel=9 note=41 velocity=92 time=0
EXTRACT: note_on channel=9 note=47 velocity=92 time=0
EXTRACT: note_on channel=0 note=73 velocity=0 time=0.127232075
EXTRACT: note_on channel=1 note=66 velocity=0 time=0
EXTRACT: note_on channel=1 note=68 velocity=0 time=0
EXTRACT: note_on channel=1 note=73 velocity=0 time=0
EXTRACT: note_on channel=9 note=70 velocity=0 time=0
EXTRACT: note_on channel=9 note=41 velocity=0 time=0
EXTRACT: note_on channel=9 note=47 velocity=0 time=0
EXTRACT: note_on channel=9 note=41 velocity=0 time=0
EXTRACT: note_on channel=9 note=47 velocity=0 time=0
EXTRACT: note_on channel=5 note=66 velocity=0 time=0
EXTRACT: note_on channel=5 note=68 velocity=0 time=0
EXTRACT: note_on channel=5 note=73 velocity=0 time=0
EXTRACT: note_on channel=10 note=66 velocity=0 time=0
EXTRACT: note_on channel=10 note=68 velocity=0 time=0
EXTRACT: note_on channel=10 note=73 velocity=0 time=0
EXTRACT: note_on channel=0 note=77 velocity=110 time=0.006696425000000001
EXTRACT: note_on channel=1 note=77 velocity=110 time=0
EXTRACT: note_on channel=9 note=70 velocity=75 time=0
EXTRACT: note_on channel=9 note=41 velocity=92 time=0
EXTRACT: note_on channel=9 note=47 velocity=92 time=0
EXTRACT: note_on channel=5 note=77 velocity=90 time=0
EXTRACT: note_on channel=10 note=77 velocity=90 time=0
EXTRACT: note_on channel=2 note=49 velocity=0 time=0.1339285
EXTRACT: note_on channel=6 note=49 velocity=0 time=0
EXTRACT: note_on channel=0 note=77 velocity=0 time=0.127232075
EXTRACT: note_on channel=1 note=77 velocity=0 time=0
EXTRACT: note_on channel=9 note=70 velocity=0 time=0
EXTRACT: note_on channel=9 note=41 velocity=0 time=0
EXTRACT: note_on channel=9 note=47 velocity=0 time=0
EXTRACT: note_on channel=5 note=77 velocity=0 time=0
EXTRACT: note_on channel=10 note=77 velocity=0 time=0
EXTRACT: note_on channel=0 note=78 velocity=110 time=0.006696425000000001
EXTRACT: note_on channel=1 note=70 velocity=110 time=0
EXTRACT: note_on channel=1 note=73 velocity=110 time=0
EXTRACT: note_on channel=1 note=78 velocity=110 time=0
EXTRACT: note_on channel=2 note=42 velocity=110 time=0
EXTRACT: note_on channel=9 note=70 velocity=75 time=0
EXTRACT: note_on channel=9 note=41 velocity=92 time=0
EXTRACT: note_on channel=9 note=47 velocity=92 time=0
EXTRACT: note_on channel=9 note=41 velocity=127 time=0
EXTRACT: note_on channel=9 note=47 velocity=127 time=0
EXTRACT: note_on channel=5 note=70 velocity=90 time=0
EXTRACT: note_on channel=5 note=73 velocity=90 time=0
EXTRACT: note_on channel=5 note=78 velocity=90 time=0
EXTRACT: note_on channel=10 note=70 velocity=90 time=0
EXTRACT: note_on channel=10 note=73 velocity=90 time=0
EXTRACT: note_on channel=10 note=78 velocity=90 time=0
EXTRACT: note_on channel=6 note=42 velocity=90 time=0
EXTRACT: note_on channel=9 note=70 velocity=0 time=0.261160575
EXTRACT: note_on channel=9 note=41 velocity=0 time=0
EXTRACT: note_on channel=9 note=47 velocity=0 time=0
EXTRACT: note_on channel=9 note=41 velocity=0 time=0
EXTRACT: note_on channel=9 note=47 velocity=0 time=0
EXTRACT: note_on channel=9 note=70 velocity=75 time=0.006696425000000001
EXTRACT: note_on channel=9 note=41 velocity=92 time=0
EXTRACT: note_on channel=9 note=47 velocity=92 time=0
EXTRACT: note_on channel=9 note=70 velocity=0 time=0.127232075
EXTRACT: note_on channel=9 note=41 velocity=0 time=0
EXTRACT: note_on channel=9 note=47 velocity=0 time=0
EXTRACT: note_on channel=9 note=70 velocity=75 time=0.006696425000000001
EXTRACT: note_on channel=9 note=41 velocity=92 time=0
EXTRACT: note_on channel=9 note=47 velocity=92 time=0
EXTRACT: note_on channel=9 note=41 velocity=127 time=0.1339285
EXTRACT: note_on channel=9 note=47 velocity=127 time=0
EXTRACT: note_on channel=9 note=70 velocity=0 time=0.127232075
EXTRACT: note_on channel=9 note=41 velocity=0 time=0
EXTRACT: note_on channel=9 note=47 velocity=0 time=0
EXTRACT: note_on channel=9 note=70 velocity=75 time=0.006696425000000001
EXTRACT: note_on channel=9 note=41 velocity=92 time=0
EXTRACT: note_on channel=9 note=47 velocity=92 time=0
EXTRACT: note_on channel=9 note=70 velocity=0 time=0.127232075
EXTRACT: note_on channel=9 note=41 velocity=0 time=0
EXTRACT: note_on channel=9 note=47 velocity=0 time=0
EXTRACT: note_on channel=9 note=41 velocity=0 time=0
EXTRACT: note_on channel=9 note=47 velocity=0 time=0
EXTRACT: note_on channel=9 note=70 velocity=75 time=0.006696425000000001
EXTRACT: note_on channel=9 note=41 velocity=92 time=0
EXTRACT: note_on channel=9 note=47 velocity=92 time=0
EXTRACT: note_on channel=0 note=78 velocity=0 time=0.1339285
EXTRACT: note_on channel=1 note=70 velocity=0 time=0
EXTRACT: note_on channel=1 note=73 velocity=0 time=0
EXTRACT: note_on channel=1 note=78 velocity=0 time=0
EXTRACT: note_on channel=2 note=42 velocity=0 time=0
EXTRACT: note_on channel=5 note=70 velocity=0 time=0
EXTRACT: note_on channel=5 note=73 velocity=0 time=0
EXTRACT: note_on channel=5 note=78 velocity=0 time=0
EXTRACT: note_on channel=10 note=70 velocity=0 time=0
EXTRACT: note_on channel=10 note=73 velocity=0 time=0
EXTRACT: note_on channel=10 note=78 velocity=0 time=0
EXTRACT: note_on channel=6 note=42 velocity=0 time=0
EXTRACT: note_on channel=9 note=70 velocity=0 time=0.127232075
EXTRACT: note_on channel=9 note=41 velocity=0 time=0
EXTRACT: note_on channel=9 note=47 velocity=0 time=0
EXTRACT: note_on channel=0 note=73 velocity=110 time=0.006696425000000001
EXTRACT: note_on channel=1 note=63 velocity=110 time=0
EXTRACT: note_on channel=1 note=66 velocity=110 time=0
EXTRACT: note_on channel=1 note=73 velocity=110 time=0
EXTRACT: note_on channel=2 note=47 velocity=110 time=0
EXTRACT: note_on channel=9 note=70 velocity=75 time=0
EXTRACT: note_on channel=9 note=41 velocity=92 time=0
EXTRACT: note_on channel=9 note=47 velocity=92 time=0
EXTRACT: note_on channel=9 note=41 velocity=127 time=0
EXTRACT: note_on channel=9 note=47 velocity=127 time=0
EXTRACT: note_on channel=5 note=63 velocity=90 time=0
EXTRACT: note_on channel=5 note=66 velocity=90 time=0
EXTRACT: note_on channel=5 note=73 velocity=90 time=0
EXTRACT: note_on channel=10 note=63 velocity=90 time=0
EXTRACT: note_on channel=10 note=66 velocity=90 time=0
EXTRACT: note_on channel=10 note=73 velocity=90 time=0
EXTRACT: note_on channel=6 note=47 velocity=90 time=0
EXTRACT: note_on channel=9 note=70 velocity=0 time=0.261160575
EXTRACT: note_on channel=9 note=41 velocity=0 time=0
EXTRACT: note_on channel=9 note=47 velocity=0 time=0
EXTRACT: note_on channel=9 note=41 velocity=0 time=0
EXTRACT: note_on channel=9 note=47 velocity=0 time=0
EXTRACT: note_on channel=9 note=70 velocity=75 time=0.006696425000000001
EXTRACT: note_on channel=9 note=41 velocity=92 time=0
EXTRACT: note_on channel=9 note=47 velocity=92 time=0
EXTRACT: note_on channel=0 note=73 velocity=0 time=0.127232075
EXTRACT: note_on channel=1 note=63 velocity=0 time=0
EXTRACT: note_on channel=1 note=66 velocity=0 time=0
EXTRACT: note_on channel=1 note=73 velocity=0 time=0
EXTRACT: note_on channel=9 note=70 velocity=0 time=0
EXTRACT: note_on channel=9 note=41 velocity=0 time=0
EXTRACT: note_on channel=9 note=47 velocity=0 time=0
EXTRACT: note_on channel=5 note=63 velocity=0 time=0
EXTRACT: note_on channel=5 note=66 velocity=0 time=0
EXTRACT: note_on channel=5 note=73 velocity=0 time=0
EXTRACT: note_on channel=10 note=63 velocity=0 time=0
EXTRACT: note_on channel=10 note=66 velocity=0 time=0
EXTRACT: note_on channel=10 note=73 velocity=0 time=0
EXTRACT: note_on channel=0 note=73 velocity=110 time=0.006696425000000001
EXTRACT: note_on channel=1 note=73 velocity=110 time=0
EXTRACT: note_on channel=9 note=70 velocity=75 time=0
EXTRACT: note_on channel=9 note=41 velocity=92 time=0
EXTRACT: note_on channel=9 note=47 velocity=92 time=0
EXTRACT: note_on channel=5 note=73 velocity=90 time=0
EXTRACT: note_on channel=10 note=73 velocity=90 time=0
EXTRACT: note_on channel=2 note=47 velocity=0 time=0.04464283333333333
EXTRACT: note_on channel=6 note=47 velocity=0 time=0
EXTRACT: note_on channel=2 note=46 velocity=110 time=0.08928566666666667
EXTRACT: note_on channel=9 note=41 velocity=127 time=0
EXTRACT: note_on channel=9 note=47 velocity=127 time=0
EXTRACT: note_on channel=6 note=46 velocity=90 time=0
EXTRACT: note_on channel=9 note=70 velocity=0 time=0.127232075
EXTRACT: note_on channel=9 note=41 velocity=0 time=0
EXTRACT: note_on channel=9 note=47 velocity=0 time=0
EXTRACT: note_on channel=9 note=70 velocity=75 time=0.006696425000000001
EXTRACT: note_on channel=9 note=41 velocity=92 time=0
EXTRACT: note_on channel=9 note=47 velocity=92 time=0
EXTRACT: note_on channel=0 note=73 velocity=0 time=0.127232075
EXTRACT: note_on channel=1 note=73 velocity=0 time=0
EXTRACT: note_on channel=9 note=70 velocity=0 time=0
EXTRACT: note_on channel=9 note=41 velocity=0 time=0
EXTRACT: note_on channel=9 note=47 velocity=0 time=0
EXTRACT: note_on channel=9 note=41 velocity=0 time=0
EXTRACT: note_on channel=9 note=47 velocity=0 time=0
EXTRACT: note_on channel=5 note=73 velocity=0 time=0
EXTRACT: note_on channel=10 note=73 velocity=0 time=0
EXTRACT: note_on channel=0 note=73 velocity=110 time=0.006696425000000001
EXTRACT: note_on channel=1 note=73 velocity=110 time=0
EXTRACT: note_on channel=9 note=70 velocity=75 time=0
EXTRACT: note_on channel=9 note=41 velocity=92 time=0
EXTRACT: note_on channel=9 note=47 velocity=92 time=0
EXTRACT: note_on channel=5 note=73 velocity=90 time=0
EXTRACT: note_on channel=10 note=73 velocity=90 time=0
EXTRACT: note_on channel=2 note=46 velocity=0 time=0.17857133333333333
EXTRACT: note_on channel=6 note=46 velocity=0 time=0
EXTRACT: note_on channel=0 note=73 velocity=0 time=0.08258924166666667
EXTRACT: note_on channel=1 note=73 velocity=0 time=0
EXTRACT: note_on channel=9 note=70 velocity=0 time=0
EXTRACT: note_on channel=9 note=41 velocity=0 time=0
EXTRACT: note_on channel=9 note=47 velocity=0 time=0
EXTRACT: note_on channel=5 note=73 velocity=0 time=0
EXTRACT: note_on channel=10 note=73 velocity=0 time=0
EXTRACT: note_on channel=0 note=83 velocity=110 time=0.006696425000000001
EXTRACT: note_on channel=1 note=75 velocity=110 time=0
EXTRACT: note_on channel=1 note=78 velocity=110 time=0
EXTRACT: note_on channel=1 note=83 velocity=110 time=0
EXTRACT: note_on channel=2 note=44 velocity=110 time=0
EXTRACT: note_on channel=9 note=70 velocity=75 time=0
EXTRACT: note_on channel=9 note=41 velocity=92 time=0
EXTRACT: note_on channel=9 note=47 velocity=92 time=0
EXTRACT: note_on channel=9 note=41 velocity=127 time=0
EXTRACT: note_on channel=9 note=47 velocity=127 time=0
EXTRACT: note_on channel=5 note=75 velocity=90 time=0
EXTRACT: note_on channel=5 note=78 velocity=90 time=0
EXTRACT: note_on channel=5 note=83 velocity=90 time=0
EXTRACT: note_on channel=10 note=75 velocity=90 time=0
EXTRACT: note_on channel=10 note=78 velocity=90 time=0
EXTRACT: note_on channel=10 note=83 velocity=90 time=0
EXTRACT: note_on channel=6 note=44 velocity=90 time=0
EXTRACT: note_on channel=9 note=70 velocity=0 time=0.261160575
EXTRACT: note_on channel=9 note=41 velocity=0 time=0
EXTRACT: note_on channel=9 note=47 velocity=0 time=0
EXTRACT: note_on channel=9 note=41 velocity=0 time=0
EXTRACT: note_on channel=9 note=47 velocity=0 time=0
EXTRACT: note_on channel=9 note=70 velocity=75 time=0.006696425000000001
EXTRACT: note_on channel=9 note=41 velocity=92 time=0
EXTRACT: note_on channel=9 note=47 velocity=92 time=0
EXTRACT: note_on channel=0 note=83 velocity=0 time=0.127232075
EXTRACT: note_on channel=1 note=75 velocity=0 time=0
EXTRACT: note_on channel=1 note=78 velocity=0 time=0
EXTRACT: note_on channel=1 note=83 velocity=0 time=0
EXTRACT: note_on channel=9 note=70 velocity=0 time=0
EXTRACT: note_on channel=9 note=41 velocity=0 time=0
EXTRACT: note_on channel=9 note=47 velocity=0 time=0
EXTRACT: note_on channel=5 note=75 velocity=0 time=0
EXTRACT: note_on channel=5 note=78 velocity=0 time=0
EXTRACT: note_on channel=5 note=83 velocity=0 time=0
EXTRACT: note_on channel=10 note=75 velocity=0 time=0
EXTRACT: note_on channel=10 note=78 velocity=0 time=0
EXTRACT: note_on channel=10 note=83 velocity=0 time=0
EXTRACT: note_on channel=0 note=83 velocity=110 time=0.006696425000000001
EXTRACT: note_on channel=1 note=75 velocity=110 time=0
EXTRACT: note_on channel=1 note=78 velocity=110 time=0
EXTRACT: note_on channel=1 note=83 velocity=110 time=0
EXTRACT: note_on channel=9 note=70 velocity=75 time=0
EXTRACT: note_on channel=9 note=41 velocity=92 time=0
EXTRACT: note_on channel=9 note=47 velocity=92 time=0
EXTRACT: note_on channel=5 note=75 velocity=90 time=0
EXTRACT: note_on channel=5 note=78 velocity=90 time=0
EXTRACT: note_on channel=5 note=83 velocity=90 time=0
EXTRACT: note_on channel=10 note=75 velocity=90 time=0
EXTRACT: note_on channel=10 note=78 velocity=90 time=0
EXTRACT: note_on channel=10 note=83 velocity=90 time=0
EXTRACT: note_on channel=9 note=41 velocity=127 time=0.1339285
EXTRACT: note_on channel=9 note=47 velocity=127 time=0
EXTRACT: note_on channel=9 note=70 velocity=0 time=0.127232075
EXTRACT: note_on channel=9 note=41 velocity=0 time=0
EXTRACT: note_on channel=9 note=47 velocity=0 time=0
EXTRACT: note_on channel=9 note=70 velocity=75 time=0.006696425000000001
EXTRACT: note_on channel=9 note=41 velocity=92 time=0
EXTRACT: note_on channel=9 note=47 velocity=92 time=0
EXTRACT: note_on channel=0 note=83 velocity=0 time=0.127232075
EXTRACT: note_on channel=1 note=75 velocity=0 time=0
EXTRACT: note_on channel=1 note=78 velocity=0 time=0
EXTRACT: note_on channel=1 note=83 velocity=0 time=0
EXTRACT: note_on channel=9 note=70 velocity=0 time=0
EXTRACT: note_on channel=9 note=41 velocity=0 time=0
EXTRACT: note_on channel=9 note=47 velocity=0 time=0
EXTRACT: note_on channel=9 note=41 velocity=0 time=0
EXTRACT: note_on channel=9 note=47 velocity=0 time=0
EXTRACT: note_on channel=5 note=75 velocity=0 time=0
EXTRACT: note_on channel=5 note=78 velocity=0 time=0
EXTRACT: note_on channel=5 note=83 velocity=0 time=0
EXTRACT: note_on channel=10 note=75 velocity=0 time=0
EXTRACT: note_on channel=10 note=78 velocity=0 time=0
EXTRACT: note_on channel=10 note=83 velocity=0 time=0
EXTRACT: note_on channel=0 note=83 velocity=110 time=0.006696425000000001
EXTRACT: note_on channel=1 note=83 velocity=110 time=0
EXTRACT: note_on channel=9 note=70 velocity=75 time=0
EXTRACT: note_on channel=9 note=41 velocity=92 time=0
EXTRACT: note_on channel=9 note=47 velocity=92 time=0
EXTRACT: note_on channel=5 note=83 velocity=90 time=0
EXTRACT: note_on channel=10 note=83 velocity=90 time=0
EXTRACT: note_on channel=2 note=44 velocity=0 time=0.1339285
EXTRACT: note_on channel=6 note=44 velocity=0 time=0
EXTRACT: note_on channel=0 note=83 velocity=0 time=0.127232075
EXTRACT: note_on channel=1 note=83 velocity=0 time=0
EXTRACT: note_on channel=9 note=70 velocity=0 time=0
EXTRACT: note_on channel=9 note=41 velocity=0 time=0
EXTRACT: note_on channel=9 note=47 velocity=0 time=0
EXTRACT: note_on channel=5 note=83 velocity=0 time=0
EXTRACT: note_on channel=10 note=83 velocity=0 time=0
EXTRACT: note_on channel=0 note=83 velocity=110 time=0.006696425000000001
EXTRACT: note_on channel=1 note=73 velocity=110 time=0
EXTRACT: note_on channel=1 note=78 velocity=110 time=0
EXTRACT: note_on channel=1 note=83 velocity=110 time=0
EXTRACT: note_on channel=2 note=49 velocity=110 time=0
EXTRACT: note_on channel=9 note=70 velocity=75 time=0
EXTRACT: note_on channel=9 note=41 velocity=92 time=0
EXTRACT: note_on channel=9 note=47 velocity=92 time=0
EXTRACT: note_on channel=9 note=41 velocity=127 time=0
EXTRACT: note_on channel=9 note=47 velocity=127 time=0
EXTRACT: note_on channel=5 note=73 velocity=90 time=0
EXTRACT: note_on channel=5 note=78 velocity=90 time=0
EXTRACT: note_on channel=5 note=83 velocity=90 time=0
EXTRACT: note_on channel=10 note=73 velocity=90 time=0
EXTRACT: note_on channel=10 note=78 velocity=90 time=0
EXTRACT: note_on channel=10 note=83 velocity=90 time=0
EXTRACT: note_on channel=6 note=49 velocity=90 time=0
EXTRACT: note_on channel=9 note=70 velocity=0 time=0.261160575
EXTRACT: note_on channel=9 note=41 velocity=0 time=0
EXTRACT: note_on channel=9 note=47 velocity=0 time=0
EXTRACT: note_on channel=9 note=41 velocity=0 time=0
EXTRACT: note_on channel=9 note=47 velocity=0 time=0
EXTRACT: note_on channel=9 note=70 velocity=75 time=0.006696425000000001
EXTRACT: note_on channel=9 note=41 velocity=92 time=0
EXTRACT: note_on channel=9 note=47 velocity=92 time=0
EXTRACT: note_on channel=0 note=83 velocity=0 time=0.127232075
EXTRACT: note_on channel=1 note=73 velocity=0 time=0
EXTRACT: note_on channel=1 note=78 velocity=0 time=0
EXTRACT: note_on channel=1 note=83 velocity=0 time=0
EXTRACT: note_on channel=9 note=70 velocity=0 time=0
EXTRACT: note_on channel=9 note=41 velocity=0 time=0
EXTRACT: note_on channel=9 note=47 velocity=0 time=0
EXTRACT: note_on channel=5 note=73 velocity=0 time=0
EXTRACT: note_on channel=5 note=78 velocity=0 time=0
EXTRACT: note_on channel=5 note=83 velocity=0 time=0
EXTRACT: note_on channel=10 note=73 velocity=0 time=0
EXTRACT: note_on channel=10 note=78 velocity=0 time=0
EXTRACT: note_on channel=10 note=83 velocity=0 time=0
EXTRACT: note_on channel=0 note=82 velocity=110 time=0.006696425000000001
EXTRACT: note_on channel=1 note=82 velocity=110 time=0
EXTRACT: note_on channel=9 note=70 velocity=75 time=0
EXTRACT: note_on channel=9 note=41 velocity=92 time=0
EXTRACT: note_on channel=9 note=47 velocity=92 time=0
EXTRACT: note_on channel=5 note=82 velocity=90 time=0
EXTRACT: note_on channel=10 note=82 velocity=90 time=0
EXTRACT: note_on channel=9 note=41 velocity=127 time=0.1339285
EXTRACT: note_on channel=9 note=47 velocity=127 time=0
EXTRACT: note_on channel=9 note=70 velocity=0 time=0.127232075
EXTRACT: note_on channel=9 note=41 velocity=0 time=0
EXTRACT: note_on channel=9 note=47 velocity=0 time=0
EXTRACT: note_on channel=9 note=70 velocity=75 time=0.006696425000000001
EXTRACT: note_on channel=9 note=41 velocity=92 time=0
EXTRACT: note_on channel=9 note=47 velocity=92 time=0
EXTRACT: note_on channel=0 note=82 velocity=0 time=0.127232075
EXTRACT: note_on channel=1 note=82 velocity=0 time=0
EXTRACT: note_on channel=9 note=70 velocity=0 time=0
EXTRACT: note_on channel=9 note=41 velocity=0 time=0
EXTRACT: note_on channel=9 note=47 velocity=0 time=0
EXTRACT: note_on channel=9 note=41 velocity=0 time=0
EXTRACT: note_on channel=9 note=47 velocity=0 time=0
EXTRACT: note_on channel=5 note=82 velocity=0 time=0
EXTRACT: note_on channel=10 note=82 velocity=0 time=0
EXTRACT: note_on channel=0 note=82 velocity=110 time=0.006696425000000001
EXTRACT: note_on channel=1 note=82 velocity=110 time=0
EXTRACT: note_on channel=9 note=70 velocity=75 time=0
EXTRACT: note_on channel=9 note=41 velocity=92 time=0
EXTRACT: note_on channel=9 note=47 velocity=92 time=0
EXTRACT: note_on channel=5 note=82 velocity=90 time=0
EXTRACT: note_on channel=10 note=82 velocity=90 time=0
EXTRACT: note_on channel=2 note=49 velocity=0 time=0.1339285
EXTRACT: note_on channel=6 note=49 velocity=0 time=0
EXTRACT: note_on channel=0 note=82 velocity=0 time=0.127232075
EXTRACT: note_on channel=1 note=82 velocity=0 time=0
EXTRACT: note_on channel=9 note=70 velocity=0 time=0
EXTRACT: note_on channel=9 note=41 velocity=0 time=0
EXTRACT: note_on channel=9 note=47 velocity=0 time=0
EXTRACT: note_on channel=5 note=82 velocity=0 time=0
EXTRACT: note_on channel=10 note=82 velocity=0 time=0
EXTRACT: note_on channel=0 note=82 velocity=110 time=0.006696425000000001
EXTRACT: note_on channel=1 note=73 velocity=110 time=0
EXTRACT: note_on channel=1 note=78 velocity=110 time=0
EXTRACT: note_on channel=1 note=82 velocity=110 time=0
EXTRACT: note_on channel=2 note=51 velocity=110 time=0
EXTRACT: note_on channel=9 note=70 velocity=75 time=0
EXTRACT: note_on channel=9 note=41 velocity=92 time=0
EXTRACT: note_on channel=9 note=47 velocity=92 time=0
EXTRACT: note_on channel=9 note=41 velocity=127 time=0
EXTRACT: note_on channel=9 note=47 velocity=127 time=0
EXTRACT: note_on channel=5 note=73 velocity=90 time=0
EXTRACT: note_on channel=5 note=78 velocity=90 time=0
EXTRACT: note_on channel=5 note=82 velocity=90 time=0
EXTRACT: note_on channel=10 note=73 velocity=90 time=0
EXTRACT: note_on channel=10 note=78 velocity=90 time=0
EXTRACT: note_on channel=10 note=82 velocity=90 time=0
EXTRACT: note_on channel=6 note=51 velocity=90 time=0
EXTRACT: note_on channel=9 note=70 velocity=0 time=0.261160575
EXTRACT: note_on channel=9 note=41 velocity=0 time=0
EXTRACT: note_on channel=9 note=47 velocity=0 time=0
EXTRACT: note_on channel=9 note=41 velocity=0 time=0
EXTRACT: note_on channel=9 note=47 velocity=0 time=0
EXTRACT: note_on channel=9 note=70 velocity=75 time=0.006696425000000001
EXTRACT: note_on channel=9 note=41 velocity=92 time=0
EXTRACT: note_on channel=9 note=47 velocity=92 time=0
EXTRACT: note_on channel=0 note=82 velocity=0 time=0.127232075
EXTRACT: note_on channel=1 note=73 velocity=0 time=0
EXTRACT: note_on channel=1 note=78 velocity=0 time=0
EXTRACT: note_on channel=1 note=82 velocity=0 time=0
EXTRACT: note_on channel=9 note=70 velocity=0 time=0
EXTRACT: note_on channel=9 note=41 velocity=0 time=0
EXTRACT: note_on channel=9 note=47 velocity=0 time=0
EXTRACT: note_on channel=5 note=73 velocity=0 time=0
EXTRACT: note_on channel=5 note=78 velocity=0 time=0
EXTRACT: note_on channel=5 note=82 velocity=0 time=0
EXTRACT: note_on channel=10 note=73 velocity=0 time=0
EXTRACT: note_on channel=10 note=78 velocity=0 time=0
EXTRACT: note_on channel=10 note=82 velocity=0 time=0
EXTRACT: note_on channel=0 note=80 velocity=110 time=0.006696425000000001
EXTRACT: note_on channel=1 note=80 velocity=110 time=0
EXTRACT: note_on channel=9 note=70 velocity=75 time=0
EXTRACT: note_on channel=9 note=41 velocity=92 time=0
EXTRACT: note_on channel=9 note=47 velocity=92 time=0
EXTRACT: note_on channel=5 note=80 velocity=90 time=0
EXTRACT: note_on channel=10 note=80 velocity=90 time=0
EXTRACT: note_on channel=9 note=41 velocity=127 time=0.1339285
EXTRACT: note_on channel=9 note=47 velocity=127 time=0
EXTRACT: note_on channel=9 note=70 velocity=0 time=0.127232075
EXTRACT: note_on channel=9 note=41 velocity=0 time=0
EXTRACT: note_on channel=9 note=47 velocity=0 time=0
EXTRACT: note_on channel=9 note=70 velocity=75 time=0.006696425000000001
EXTRACT: note_on channel=9 note=41 velocity=92 time=0
EXTRACT: note_on channel=9 note=47 velocity=92 time=0
EXTRACT: note_on channel=0 note=80 velocity=0 time=0.127232075
EXTRACT: note_on channel=1 note=80 velocity=0 time=0
EXTRACT: note_on channel=9 note=70 velocity=0 time=0
EXTRACT: note_on channel=9 note=41 velocity=0 time=0
EXTRACT: note_on channel=9 note=47 velocity=0 time=0
EXTRACT: note_on channel=9 note=41 velocity=0 time=0
EXTRACT: note_on channel=9 note=47 velocity=0 time=0
EXTRACT: note_on channel=5 note=80 velocity=0 time=0
EXTRACT: note_on channel=10 note=80 velocity=0 time=0
EXTRACT: note_on channel=0 note=80 velocity=110 time=0.006696425000000001
EXTRACT: note_on channel=1 note=80 velocity=110 time=0
EXTRACT: note_on channel=9 note=70 velocity=75 time=0
EXTRACT: note_on channel=9 note=41 velocity=92 time=0
EXTRACT: note_on channel=9 note=47 velocity=92 time=0
EXTRACT: note_on channel=5 note=80 velocity=90 time=0
EXTRACT: note_on channel=10 note=80 velocity=90 time=0
EXTRACT: note_on channel=2 note=51 velocity=0 time=0.1339285
EXTRACT: note_on channel=6 note=51 velocity=0 time=0
EXTRACT: note_on channel=0 note=80 velocity=0 time=0.127232075
EXTRACT: note_on channel=1 note=80 velocity=0 time=0
EXTRACT: note_on channel=9 note=70 velocity=0 time=0
EXTRACT: note_on channel=9 note=41 velocity=0 time=0
EXTRACT: note_on channel=9 note=47 velocity=0 time=0
EXTRACT: note_on channel=5 note=80 velocity=0 time=0
EXTRACT: note_on channel=10 note=80 velocity=0 time=0
EXTRACT: note_on channel=0 note=80 velocity=110 time=0.006696425000000001
EXTRACT: note_on channel=1 note=73 velocity=110 time=0
EXTRACT: note_on channel=1 note=75 velocity=110 time=0
EXTRACT: note_on channel=1 note=80 velocity=110 time=0
EXTRACT: note_on channel=2 note=47 velocity=110 time=0
EXTRACT: note_on channel=9 note=70 velocity=75 time=0
EXTRACT: note_on channel=9 note=41 velocity=92 time=0
EXTRACT: note_on channel=9 note=47 velocity=92 time=0
EXTRACT: note_on channel=9 note=41 velocity=127 time=0
EXTRACT: note_on channel=9 note=47 velocity=127 time=0
EXTRACT: note_on channel=5 note=73 velocity=90 time=0
EXTRACT: note_on channel=5 note=75 velocity=90 time=0
EXTRACT: note_on channel=5 note=80 velocity=90 time=0
EXTRACT: note_on channel=10 note=73 velocity=90 time=0
EXTRACT: note_on channel=10 note=75 velocity=90 time=0
EXTRACT: note_on channel=10 note=80 velocity=90 time=0
EXTRACT: note_on channel=6 note=47 velocity=90 time=0
EXTRACT: note_on channel=9 note=70 velocity=0 time=0.261160575
EXTRACT: note_on channel=9 note=41 velocity=0 time=0
EXTRACT: note_on channel=9 note=47 velocity=0 time=0
EXTRACT: note_on channel=9 note=41 velocity=0 time=0
EXTRACT: note_on channel=9 note=47 velocity=0 time=0
EXTRACT: note_on channel=9 note=70 velocity=75 time=0.006696425000000001
EXTRACT: note_on channel=9 note=41 velocity=92 time=0
EXTRACT: note_on channel=9 note=47 velocity=92 time=0
EXTRACT: note_on channel=0 note=80 velocity=0 time=0.127232075
EXTRACT: note_on channel=1 note=73 velocity=0 time=0
EXTRACT: note_on channel=1 note=75 velocity=0 time=0
EXTRACT: note_on channel=1 note=80 velocity=0 time=0
EXTRACT: note_on channel=9 note=70 velocity=0 time=0
EXTRACT: note_on channel=9 note=41 velocity=0 time=0
EXTRACT: note_on channel=9 note=47 velocity=0 time=0
EXTRACT: note_on channel=5 note=73 velocity=0 time=0
EXTRACT: note_on channel=5 note=75 velocity=0 time=0
EXTRACT: note_on channel=5 note=80 velocity=0 time=0
EXTRACT: note_on channel=10 note=73 velocity=0 time=0
EXTRACT: note_on channel=10 note=75 velocity=0 time=0
EXTRACT: note_on channel=10 note=80 velocity=0 time=0
EXTRACT: note_on channel=0 note=78 velocity=110 time=0.006696425000000001
EXTRACT: note_on channel=1 note=78 velocity=110 time=0
EXTRACT: note_on channel=9 note=70 velocity=75 time=0
EXTRACT: note_on channel=9 note=41 velocity=92 time=0
EXTRACT: note_on channel=9 note=47 velocity=92 time=0
EXTRACT: note_on channel=5 note=78 velocity=90 time=0
EXTRACT: note_on channel=10 note=78 velocity=90 time=0
EXTRACT: note_on channel=9 note=41 velocity=127 time=0.1339285
EXTRACT: note_on channel=9 note=47 velocity=127 time=0
EXTRACT: note_on channel=9 note=70 velocity=0 time=0.127232075
EXTRACT: note_on channel=9 note=41 velocity=0 time=0
EXTRACT: note_on channel=9 note=47 velocity=0 time=0
EXTRACT: note_on channel=9 note=70 velocity=75 time=0.006696425000000001
EXTRACT: note_on channel=9 note=41 velocity=92 time=0
EXTRACT: note_on channel=9 note=47 velocity=92 time=0
EXTRACT: note_on channel=0 note=78 velocity=0 time=0.127232075
EXTRACT: note_on channel=1 note=78 velocity=0 time=0
EXTRACT: note_on channel=9 note=70 velocity=0 time=0
EXTRACT: note_on channel=9 note=41 velocity=0 time=0
EXTRACT: note_on channel=9 note=47 velocity=0 time=0
EXTRACT: note_on channel=9 note=41 velocity=0 time=0
EXTRACT: note_on channel=9 note=47 velocity=0 time=0
EXTRACT: note_on channel=5 note=78 velocity=0 time=0
EXTRACT: note_on channel=10 note=78 velocity=0 time=0
EXTRACT: note_on channel=0 note=77 velocity=110 time=0.006696425000000001
EXTRACT: note_on channel=1 note=77 velocity=110 time=0
EXTRACT: note_on channel=9 note=70 velocity=75 time=0
EXTRACT: note_on channel=9 note=41 velocity=92 time=0
EXTRACT: note_on channel=9 note=47 velocity=92 time=0
EXTRACT: note_on channel=5 note=77 velocity=90 time=0
EXTRACT: note_on channel=10 note=77 velocity=90 time=0
EXTRACT: note_on channel=2 note=47 velocity=0 time=0.1339285
EXTRACT: note_on channel=6 note=47 velocity=0 time=0
EXTRACT: note_on channel=0 note=77 velocity=0 time=0.127232075
EXTRACT: note_on channel=1 note=77 velocity=0 time=0
EXTRACT: note_on channel=9 note=70 velocity=0 time=0
EXTRACT: note_on channel=9 note=41 velocity=0 time=0
EXTRACT: note_on channel=9 note=47 velocity=0 time=0
EXTRACT: note_on channel=5 note=77 velocity=0 time=0
EXTRACT: note_on channel=10 note=77 velocity=0 time=0
EXTRACT: note_on channel=0 note=78 velocity=110 time=0.006696425000000001
EXTRACT: note_on channel=1 note=71 velocity=110 time=0
EXTRACT: note_on channel=1 note=75 velocity=110 time=0
EXTRACT: note_on channel=1 note=78 velocity=110 time=0
EXTRACT: note_on channel=2 note=44 velocity=110 time=0
EXTRACT: note_on channel=9 note=70 velocity=75 time=0
EXTRACT: note_on channel=9 note=41 velocity=92 time=0
EXTRACT: note_on channel=9 note=47 velocity=92 time=0
EXTRACT: note_on channel=9 note=41 velocity=127 time=0
EXTRACT: note_on channel=9 note=47 velocity=127 time=0
EXTRACT: note_on channel=5 note=71 velocity=90 time=0
EXTRACT: note_on channel=5 note=75 velocity=90 time=0
EXTRACT: note_on channel=5 note=78 velocity=90 time=0
EXTRACT: note_on channel=10 note=71 velocity=90 time=0
EXTRACT: note_on channel=10 note=75 velocity=90 time=0
EXTRACT: note_on channel=10 note=78 velocity=90 time=0
EXTRACT: note_on channel=6 note=44 velocity=90 time=0
EXTRACT: note_on channel=9 note=70 velocity=0 time=0.261160575
EXTRACT: note_on channel=9 note=41 velocity=0 time=0
EXTRACT: note_on channel=9 note=47 velocity=0 time=0
EXTRACT: note_on channel=9 note=41 velocity=0 time=0
EXTRACT: note_on channel=9 note=47 velocity=0 time=0
EXTRACT: note_on channel=9 note=70 velocity=75 time=0.006696425000000001
EXTRACT: note_on channel=9 note=41 velocity=92 time=0
EXTRACT: note_on channel=9 note=47 velocity=92 time=0
EXTRACT: note_on channel=0 note=78 velocity=0 time=0.127232075
EXTRACT: note_on channel=1 note=71 velocity=0 time=0
EXTRACT: note_on channel=1 note=75 velocity=0 time=0
EXTRACT: note_on channel=1 note=78 velocity=0 time=0
EXTRACT: note_on channel=9 note=70 velocity=0 time=0
EXTRACT: note_on channel=9 note=41 velocity=0 time=0
EXTRACT: note_on channel=9 note=47 velocity=0 time=0
EXTRACT: note_on channel=5 note=71 velocity=0 time=0
EXTRACT: note_on channel=5 note=75 velocity=0 time=0
EXTRACT: note_on channel=5 note=78 velocity=0 time=0
EXTRACT: note_on channel=10 note=71 velocity=0 time=0
EXTRACT: note_on channel=10 note=75 velocity=0 time=0
EXTRACT: note_on channel=10 note=78 velocity=0 time=0
EXTRACT: note_on channel=0 note=78 velocity=110 time=0.006696425000000001
EXTRACT: note_on channel=1 note=71 velocity=110 time=0
EXTRACT: note_on channel=1 note=75 velocity=110 time=0
EXTRACT: note_on channel=1 note=78 velocity=110 time=0
EXTRACT: note_on channel=9 note=70 velocity=75 time=0
EXTRACT: note_on channel=9 note=41 velocity=92 time=0
EXTRACT: note_on channel=9 note=47 velocity=92 time=0
EXTRACT: note_on channel=5 note=71 velocity=90 time=0
EXTRACT: note_on channel=5 note=75 velocity=90 time=0
EXTRACT: note_on channel=5 note=78 velocity=90 time=0
EXTRACT: note_on channel=10 note=71 velocity=90 time=0
EXTRACT: note_on channel=10 note=75 velocity=90 time=0
EXTRACT: note_on channel=10 note=78 velocity=90 time=0
EXTRACT: note_on channel=9 note=41 velocity=127 time=0.1339285
EXTRACT: note_on channel=9 note=47 velocity=127 time=0
EXTRACT: note_on channel=9 note=70 velocity=0 time=0.127232075
EXTRACT: note_on channel=9 note=41 velocity=0 time=0
EXTRACT: note_on channel=9 note=47 velocity=0 time=0
EXTRACT: note_on channel=9 note=70 velocity=75 time=0.006696425000000001
EXTRACT: note_on channel=9 note=41 velocity=92 time=0
EXTRACT: note_on channel=9 note=47 velocity=92 time=0
EXTRACT: note_on channel=0 note=78 velocity=0 time=0.127232075
EXTRACT: note_on channel=1 note=71 velocity=0 time=0
EXTRACT: note_on channel=1 note=75 velocity=0 time=0
EXTRACT: note_on channel=1 note=78 velocity=0 time=0
EXTRACT: note_on channel=9 note=70 velocity=0 time=0
EXTRACT: note_on channel=9 note=41 velocity=0 time=0
EXTRACT: note_on channel=9 note=47 velocity=0 time=0
EXTRACT: note_on channel=9 note=41 velocity=0 time=0
EXTRACT: note_on channel=9 note=47 velocity=0 time=0
EXTRACT: note_on channel=5 note=71 velocity=0 time=0
EXTRACT: note_on channel=5 note=75 velocity=0 time=0
EXTRACT: note_on channel=5 note=78 velocity=0 time=0
EXTRACT: note_on channel=10 note=71 velocity=0 time=0
EXTRACT: note_on channel=10 note=75 velocity=0 time=0
EXTRACT: note_on channel=10 note=78 velocity=0 time=0
EXTRACT: note_on channel=0 note=80 velocity=110 time=0.006696425000000001
EXTRACT: note_on channel=1 note=80 velocity=110 time=0
EXTRACT: note_on channel=9 note=70 velocity=75 time=0
EXTRACT: note_on channel=9 note=41 velocity=92 time=0
EXTRACT: note_on channel=9 note=47 velocity=92 time=0
EXTRACT: note_on channel=5 note=80 velocity=90 time=0
EXTRACT: note_on channel=10 note=80 velocity=90 time=0
EXTRACT: note_on channel=2 note=44 velocity=0 time=0.1339285
EXTRACT: note_on channel=6 note=44 velocity=0 time=0
EXTRACT: note_on channel=0 note=80 velocity=0 time=0.127232075
EXTRACT: note_on channel=1 note=80 velocity=0 time=0
EXTRACT: note_on channel=9 note=70 velocity=0 time=0
EXTRACT: note_on channel=9 note=41 velocity=0 time=0
EXTRACT: note_on channel=9 note=47 velocity=0 time=0
EXTRACT: note_on channel=5 note=80 velocity=0 time=0
EXTRACT: note_on channel=10 note=80 velocity=0 time=0
EXTRACT: note_on channel=0 note=73 velocity=110 time=0.006696425000000001
EXTRACT: note_on channel=0 note=80 velocity=110 time=0
EXTRACT: note_on channel=1 note=73 velocity=110 time=0
EXTRACT: note_on channel=1 note=78 velocity=110 time=0
EXTRACT: note_on channel=1 note=80 velocity=110 time=0
EXTRACT: note_on channel=2 note=49 velocity=110 time=0
EXTRACT: note_on channel=9 note=70 velocity=75 time=0
EXTRACT: note_on channel=9 note=41 velocity=92 time=0
EXTRACT: note_on channel=9 note=47 velocity=92 time=0
EXTRACT: note_on channel=9 note=41 velocity=127 time=0
EXTRACT: note_on channel=9 note=47 velocity=127 time=0
EXTRACT: note_on channel=5 note=73 velocity=90 time=0
EXTRACT: note_on channel=5 note=78 velocity=90 time=0
EXTRACT: note_on channel=5 note=80 velocity=90 time=0
EXTRACT: note_on channel=10 note=73 velocity=90 time=0
EXTRACT: note_on channel=10 note=78 velocity=90 time=0
EXTRACT: note_on channel=10 note=80 velocity=90 time=0
EXTRACT: note_on channel=6 note=49 velocity=90 time=0
EXTRACT: note_on channel=9 note=70 velocity=0 time=0.261160575
EXTRACT: note_on channel=9 note=41 velocity=0 time=0
EXTRACT: note_on channel=9 note=47 velocity=0 time=0
EXTRACT: note_on channel=9 note=41 velocity=0 time=0
EXTRACT: note_on channel=9 note=47 velocity=0 time=0
EXTRACT: note_on channel=9 note=70 velocity=75 time=0.006696425000000001
EXTRACT: note_on channel=9 note=41 velocity=92 time=0
EXTRACT: note_on channel=9 note=47 velocity=92 time=0
EXTRACT: note_on channel=0 note=73 velocity=0 time=0.127232075
EXTRACT: note_on channel=1 note=73 velocity=0 time=0
EXTRACT: note_on channel=1 note=78 velocity=0 time=0
EXTRACT: note_on channel=1 note=80 velocity=0 time=0
EXTRACT: note_on channel=9 note=70 velocity=0 time=0
EXTRACT: note_on channel=9 note=41 velocity=0 time=0
EXTRACT: note_on channel=9 note=47 velocity=0 time=0
EXTRACT: note_on channel=5 note=73 velocity=0 time=0
EXTRACT: note_on channel=5 note=78 velocity=0 time=0
EXTRACT: note_on channel=5 note=80 velocity=0 time=0
EXTRACT: note_on channel=10 note=73 velocity=0 time=0
EXTRACT: note_on channel=10 note=78 velocity=0 time=0
EXTRACT: note_on channel=10 note=80 velocity=0 time=0
EXTRACT: note_on channel=0 note=73 velocity=110 time=0.006696425000000001
EXTRACT: note_on channel=1 note=73 velocity=110 time=0
EXTRACT: note_on channel=9 note=70 velocity=75 time=0
EXTRACT: note_on channel=9 note=41 velocity=92 time=0
EXTRACT: note_on channel=9 note=47 velocity=92 time=0
EXTRACT: note_on channel=5 note=73 velocity=90 time=0
EXTRACT: note_on channel=10 note=73 velocity=90 time=0
EXTRACT: note_on channel=9 note=41 velocity=127 time=0.1339285
EXTRACT: note_on channel=9 note=47 velocity=127 time=0
EXTRACT: note_on channel=9 note=70 velocity=0 time=0.127232075
EXTRACT: note_on channel=9 note=41 velocity=0 time=0
EXTRACT: note_on channel=9 note=47 velocity=0 time=0
EXTRACT: note_on channel=9 note=70 velocity=75 time=0.006696425000000001
EXTRACT: note_on channel=9 note=41 velocity=92 time=0
EXTRACT: note_on channel=9 note=47 velocity=92 time=0
EXTRACT: note_on channel=0 note=73 velocity=0 time=0.127232075
EXTRACT: note_on channel=1 note=73 velocity=0 time=0
EXTRACT: note_on channel=9 note=70 velocity=0 time=0
EXTRACT: note_on channel=9 note=41 velocity=0 time=0
EXTRACT: note_on channel=9 note=47 velocity=0 time=0
EXTRACT: note_on channel=9 note=41 velocity=0 time=0
EXTRACT: note_on channel=9 note=47 velocity=0 time=0
EXTRACT: note_on channel=5 note=73 velocity=0 time=0
EXTRACT: note_on channel=10 note=73 velocity=0 time=0
EXTRACT: note_on channel=0 note=77 velocity=110 time=0.006696425000000001
EXTRACT: note_on channel=1 note=77 velocity=110 time=0
EXTRACT: note_on channel=9 note=70 velocity=75 time=0
EXTRACT: note_on channel=9 note=41 velocity=92 time=0
EXTRACT: note_on channel=9 note=47 velocity=92 time=0
EXTRACT: note_on channel=5 note=77 velocity=90 time=0
EXTRACT: note_on channel=10 note=77 velocity=90 time=0
EXTRACT: note_on channel=0 note=80 velocity=0 time=0.1339285
EXTRACT: note_on channel=2 note=49 velocity=0 time=0
EXTRACT: note_on channel=6 note=49 velocity=0 time=0
EXTRACT: note_on channel=0 note=77 velocity=0 time=0.127232075
EXTRACT: note_on channel=1 note=77 velocity=0 time=0
EXTRACT: note_on channel=9 note=70 velocity=0 time=0
EXTRACT: note_on channel=9 note=41 velocity=0 time=0
EXTRACT: note_on channel=9 note=47 velocity=0 time=0
EXTRACT: note_on channel=5 note=77 velocity=0 time=0
EXTRACT: note_on channel=10 note=77 velocity=0 time=0
EXTRACT: note_on channel=0 note=78 velocity=110 time=0.006696425000000001
EXTRACT: note_on channel=1 note=70 velocity=110 time=0
EXTRACT: note_on channel=1 note=73 velocity=110 time=0
EXTRACT: note_on channel=1 note=78 velocity=110 time=0
EXTRACT: note_on channel=2 note=42 velocity=110 time=0
EXTRACT: note_on channel=9 note=70 velocity=75 time=0
EXTRACT: note_on channel=9 note=41 velocity=92 time=0
EXTRACT: note_on channel=9 note=47 velocity=92 time=0
EXTRACT: note_on channel=9 note=41 velocity=127 time=0
EXTRACT: note_on channel=9 note=47 velocity=127 time=0
EXTRACT: note_on channel=5 note=70 velocity=90 time=0
EXTRACT: note_on channel=5 note=73 velocity=90 time=0
EXTRACT: note_on channel=5 note=78 velocity=90 time=0
EXTRACT: note_on channel=10 note=70 velocity=90 time=0
EXTRACT: note_on channel=10 note=73 velocity=90 time=0
EXTRACT: note_on channel=10 note=78 velocity=90 time=0
EXTRACT: note_on channel=6 note=42 velocity=90 time=0
EXTRACT: note_on channel=9 note=70 velocity=0 time=0.261160575
EXTRACT: note_on channel=9 note=41 velocity=0 time=0
EXTRACT: note_on channel=9 note=47 velocity=0 time=0
EXTRACT: note_on channel=9 note=41 velocity=0 time=0
EXTRACT: note_on channel=9 note=47 velocity=0 time=0
EXTRACT: note_on channel=9 note=70 velocity=75 time=0.006696425000000001
EXTRACT: note_on channel=9 note=41 velocity=92 time=0
EXTRACT: note_on channel=9 note=47 velocity=92 time=0
EXTRACT: note_on channel=9 note=70 velocity=0 time=0.127232075
EXTRACT: note_on channel=9 note=41 velocity=0 time=0
EXTRACT: note_on channel=9 note=47 velocity=0 time=0
EXTRACT: note_on channel=9 note=70 velocity=75 time=0.006696425000000001
EXTRACT: note_on channel=9 note=41 velocity=92 time=0
EXTRACT: note_on channel=9 note=47 velocity=92 time=0
EXTRACT: note_on channel=9 note=41 velocity=127 time=0.1339285
EXTRACT: note_on channel=9 note=47 velocity=127 time=0
EXTRACT: note_on channel=9 note=70 velocity=0 time=0.127232075
EXTRACT: note_on channel=9 note=41 velocity=0 time=0
EXTRACT: note_on channel=9 note=47 velocity=0 time=0
EXTRACT: note_on channel=9 note=70 velocity=75 time=0.006696425000000001
EXTRACT: note_on channel=9 note=41 velocity=92 time=0
EXTRACT: note_on channel=9 note=47 velocity=92 time=0
EXTRACT: note_on channel=9 note=70 velocity=0 time=0.127232075
EXTRACT: note_on channel=9 note=41 velocity=0 time=0
EXTRACT: note_on channel=9 note=47 velocity=0 time=0
EXTRACT: note_on channel=9 note=41 velocity=0 time=0
EXTRACT: note_on channel=9 note=47 velocity=0 time=0
EXTRACT: note_on channel=9 note=70 velocity=75 time=0.006696425000000001
EXTRACT: note_on channel=9 note=41 velocity=92 time=0
EXTRACT: note_on channel=9 note=47 velocity=92 time=0
EXTRACT: note_on channel=0 note=78 velocity=0 time=0.1339285
EXTRACT: note_on channel=1 note=70 velocity=0 time=0
EXTRACT: note_on channel=1 note=73 velocity=0 time=0
EXTRACT: note_on channel=1 note=78 velocity=0 time=0
EXTRACT: note_on channel=2 note=42 velocity=0 time=0
EXTRACT: note_on channel=5 note=70 velocity=0 time=0
EXTRACT: note_on channel=5 note=73 velocity=0 time=0
EXTRACT: note_on channel=5 note=78 velocity=0 time=0
EXTRACT: note_on channel=10 note=70 velocity=0 time=0
EXTRACT: note_on channel=10 note=73 velocity=0 time=0
EXTRACT: note_on channel=10 note=78 velocity=0 time=0
EXTRACT: note_on channel=6 note=42 velocity=0 time=0
EXTRACT: note_on channel=9 note=70 velocity=0 time=0.127232075
EXTRACT: note_on channel=9 note=41 velocity=0 time=0
EXTRACT: note_on channel=9 note=47 velocity=0 time=0
EXTRACT: note_on channel=1 note=71 velocity=110 time=0.006696425000000001
EXTRACT: note_on channel=1 note=75 velocity=110 time=0
EXTRACT: note_on channel=1 note=78 velocity=110 time=0
EXTRACT: note_on channel=2 note=47 velocity=110 time=0
EXTRACT: note_on channel=3 note=71 velocity=110 time=0
EXTRACT: note_on channel=9 note=70 velocity=75 time=0
EXTRACT: note_on channel=9 note=41 velocity=92 time=0
EXTRACT: note_on channel=9 note=47 velocity=92 time=0
EXTRACT: note_on channel=9 note=41 velocity=127 time=0
EXTRACT: note_on channel=9 note=47 velocity=127 time=0
EXTRACT: note_on channel=5 note=71 velocity=90 time=0
EXTRACT: note_on channel=5 note=75 velocity=90 time=0
EXTRACT: note_on channel=5 note=78 velocity=90 time=0
EXTRACT: note_on channel=10 note=71 velocity=90 time=0
EXTRACT: note_on channel=10 note=75 velocity=90 time=0
EXTRACT: note_on channel=10 note=78 velocity=90 time=0
EXTRACT: note_on channel=6 note=47 velocity=90 time=0
EXTRACT: note_on channel=9 note=70 velocity=0 time=0.261160575
EXTRACT: note_on channel=9 note=41 velocity=0 time=0
EXTRACT: note_on channel=9 note=47 velocity=0 time=0
EXTRACT: note_on channel=9 note=41 velocity=0 time=0
EXTRACT: note_on channel=9 note=47 velocity=0 time=0
EXTRACT: note_on channel=9 note=70 velocity=75 time=0.006696425000000001
EXTRACT: note_on channel=9 note=41 velocity=92 time=0
EXTRACT: note_on channel=9 note=47 velocity=92 time=0
EXTRACT: note_on channel=9 note=70 velocity=0 time=0.127232075
EXTRACT: note_on channel=9 note=41 velocity=0 time=0
EXTRACT: note_on channel=9 note=47 velocity=0 time=0
EXTRACT: note_on channel=9 note=70 velocity=75 time=0.006696425000000001
EXTRACT: note_on channel=9 note=41 velocity=92 time=0
EXTRACT: note_on channel=9 note=47 velocity=92 time=0
EXTRACT: note_on channel=2 note=47 velocity=0 time=0.04464283333333333
EXTRACT: note_on channel=6 note=47 velocity=0 time=0
EXTRACT: note_on channel=2 note=46 velocity=110 time=0.08928566666666667
EXTRACT: note_on channel=9 note=41 velocity=127 time=0
EXTRACT: note_on channel=9 note=47 velocity=127 time=0
EXTRACT: note_on channel=6 note=46 velocity=90 time=0
EXTRACT: note_on channel=9 note=70 velocity=0 time=0.127232075
EXTRACT: note_on channel=9 note=41 velocity=0 time=0
EXTRACT: note_on channel=9 note=47 velocity=0 time=0
EXTRACT: note_on channel=9 note=70 velocity=75 time=0.006696425000000001
EXTRACT: note_on channel=9 note=41 velocity=92 time=0
EXTRACT: note_on channel=9 note=47 velocity=92 time=0
EXTRACT: note_on channel=9 note=70 velocity=0 time=0.127232075
EXTRACT: note_on channel=9 note=41 velocity=0 time=0
EXTRACT: note_on channel=9 note=47 velocity=0 time=0
EXTRACT: note_on channel=9 note=41 velocity=0 time=0
EXTRACT: note_on channel=9 note=47 velocity=0 time=0
EXTRACT: note_on channel=9 note=70 velocity=75 time=0.006696425000000001
EXTRACT: note_on channel=9 note=41 velocity=92 time=0
EXTRACT: note_on channel=9 note=47 velocity=92 time=0
EXTRACT: note_on channel=1 note=71 velocity=0 time=0.1339285
EXTRACT: note_on channel=1 note=75 velocity=0 time=0
EXTRACT: note_on channel=1 note=78 velocity=0 time=0
EXTRACT: note_on channel=3 note=71 velocity=0 time=0
EXTRACT: note_on channel=5 note=71 velocity=0 time=0
EXTRACT: note_on channel=5 note=75 velocity=0 time=0
EXTRACT: note_on channel=5 note=78 velocity=0 time=0
EXTRACT: note_on channel=10 note=71 velocity=0 time=0
EXTRACT: note_on channel=10 note=75 velocity=0 time=0
EXTRACT: note_on channel=10 note=78 velocity=0 time=0
EXTRACT: note_on channel=2 note=46 velocity=0 time=0.04464283333333333
EXTRACT: note_on channel=6 note=46 velocity=0 time=0
EXTRACT: note_on channel=9 note=70 velocity=0 time=0.08258924166666667
EXTRACT: note_on channel=9 note=41 velocity=0 time=0
EXTRACT: note_on channel=9 note=47 velocity=0 time=0
EXTRACT: note_on channel=1 note=70 velocity=110 time=0.006696425000000001
EXTRACT: note_on channel=1 note=75 velocity=110 time=0
EXTRACT: note_on channel=1 note=78 velocity=110 time=0
EXTRACT: note_on channel=2 note=44 velocity=110 time=0
EXTRACT: note_on channel=3 note=70 velocity=110 time=0
EXTRACT: note_on channel=9 note=70 velocity=75 time=0
EXTRACT: note_on channel=9 note=41 velocity=92 time=0
EXTRACT: note_on channel=9 note=47 velocity=92 time=0
EXTRACT: note_on channel=9 note=41 velocity=127 time=0
EXTRACT: note_on channel=9 note=47 velocity=127 time=0
EXTRACT: note_on channel=5 note=70 velocity=90 time=0
EXTRACT: note_on channel=5 note=75 velocity=90 time=0
EXTRACT: note_on channel=5 note=78 velocity=90 time=0
EXTRACT: note_on channel=10 note=70 velocity=90 time=0
EXTRACT: note_on channel=10 note=75 velocity=90 time=0
EXTRACT: note_on channel=10 note=78 velocity=90 time=0
EXTRACT: note_on channel=6 note=44 velocity=90 time=0
EXTRACT: note_on channel=1 note=70 velocity=0 time=0.261160575
EXTRACT: note_on channel=1 note=75 velocity=0 time=0
EXTRACT: note_on channel=1 note=78 velocity=0 time=0
EXTRACT: note_on channel=3 note=70 velocity=0 time=0
EXTRACT: note_on channel=9 note=70 velocity=0 time=0
EXTRACT: note_on channel=9 note=41 velocity=0 time=0
EXTRACT: note_on channel=9 note=47 velocity=0 time=0
EXTRACT: note_on channel=9 note=41 velocity=0 time=0
EXTRACT: note_on channel=9 note=47 velocity=0 time=0
EXTRACT: note_on channel=5 note=70 velocity=0 time=0
EXTRACT: note_on channel=5 note=75 velocity=0 time=0
EXTRACT: note_on channel=5 note=78 velocity=0 time=0
EXTRACT: note_on channel=10 note=70 velocity=0 time=0
EXTRACT: note_on channel=10 note=75 velocity=0 time=0
EXTRACT: note_on channel=10 note=78 velocity=0 time=0
EXTRACT: note_on channel=1 note=68 velocity=110 time=0.006696425000000001
EXTRACT: note_on channel=1 note=73 velocity=110 time=0
EXTRACT: note_on channel=1 note=78 velocity=110 time=0
EXTRACT: note_on channel=3 note=68 velocity=110 time=0
EXTRACT: note_on channel=9 note=70 velocity=75 time=0
EXTRACT: note_on channel=9 note=41 velocity=92 time=0
EXTRACT: note_on channel=9 note=47 velocity=92 time=0
EXTRACT: note_on channel=5 note=68 velocity=90 time=0
EXTRACT: note_on channel=5 note=73 velocity=90 time=0
EXTRACT: note_on channel=5 note=78 velocity=90 time=0
EXTRACT: note_on channel=10 note=68 velocity=90 time=0
EXTRACT: note_on channel=10 note=73 velocity=90 time=0
EXTRACT: note_on channel=10 note=78 velocity=90 time=0
EXTRACT: note_on channel=9 note=70 velocity=0 time=0.127232075
EXTRACT: note_on channel=9 note=41 velocity=0 time=0
EXTRACT: note_on channel=9 note=47 velocity=0 time=0
EXTRACT: note_on channel=9 note=70 velocity=75 time=0.006696425000000001
EXTRACT: note_on channel=9 note=41 velocity=92 time=0
EXTRACT: note_on channel=9 note=47 velocity=92 time=0
EXTRACT: note_on channel=1 note=68 velocity=0 time=0.127232075
EXTRACT: note_on channel=1 note=73 velocity=0 time=0
EXTRACT: note_on channel=1 note=78 velocity=0 time=0
EXTRACT: note_on channel=3 note=68 velocity=0 time=0
EXTRACT: note_on channel=5 note=68 velocity=0 time=0
EXTRACT: note_on channel=5 note=73 velocity=0 time=0
EXTRACT: note_on channel=5 note=78 velocity=0 time=0
EXTRACT: note_on channel=10 note=68 velocity=0 time=0
EXTRACT: note_on channel=10 note=73 velocity=0 time=0
EXTRACT: note_on channel=10 note=78 velocity=0 time=0
EXTRACT: note_on channel=1 note=68 velocity=110 time=0.006696425000000001
EXTRACT: note_on channel=1 note=73 velocity=110 time=0
EXTRACT: note_on channel=1 note=78 velocity=110 time=0
EXTRACT: note_on channel=3 note=68 velocity=110 time=0
EXTRACT: note_on channel=9 note=41 velocity=127 time=0
EXTRACT: note_on channel=9 note=47 velocity=127 time=0
EXTRACT: note_on channel=5 note=68 velocity=90 time=0
EXTRACT: note_on channel=5 note=73 velocity=90 time=0
EXTRACT: note_on channel=5 note=78 velocity=90 time=0
EXTRACT: note_on channel=10 note=68 velocity=90 time=0
EXTRACT: note_on channel=10 note=73 velocity=90 time=0
EXTRACT: note_on channel=10 note=78 velocity=90 time=0
EXTRACT: note_on channel=9 note=70 velocity=0 time=0.127232075
EXTRACT: note_on channel=9 note=41 velocity=0 time=0
EXTRACT: note_on channel=9 note=47 velocity=0 time=0
EXTRACT: note_on channel=9 note=70 velocity=75 time=0.006696425000000001
EXTRACT: note_on channel=9 note=41 velocity=92 time=0
EXTRACT: note_on channel=9 note=47 velocity=92 time=0
EXTRACT: note_on channel=9 note=70 velocity=0 time=0.127232075
EXTRACT: note_on channel=9 note=41 velocity=0 time=0
EXTRACT: note_on channel=9 note=47 velocity=0 time=0
EXTRACT: note_on channel=9 note=41 velocity=0 time=0
EXTRACT: note_on channel=9 note=47 velocity=0 time=0
EXTRACT: note_on channel=9 note=70 velocity=75 time=0.006696425000000001
EXTRACT: note_on channel=9 note=41 velocity=92 time=0
EXTRACT: note_on channel=9 note=47 velocity=92 time=0
EXTRACT: note_on channel=2 note=44 velocity=0 time=0.1339285
EXTRACT: note_on channel=6 note=44 velocity=0 time=0
EXTRACT: note_on channel=1 note=68 velocity=0 time=0.04464283333333333
EXTRACT: note_on channel=1 note=73 velocity=0 time=0
EXTRACT: note_on channel=1 note=78 velocity=0 time=0
EXTRACT: note_on channel=3 note=68 velocity=0 time=0
EXTRACT: note_on channel=5 note=68 velocity=0 time=0
EXTRACT: note_on channel=5 note=73 velocity=0 time=0
EXTRACT: note_on channel=5 note=78 velocity=0 time=0
EXTRACT: note_on channel=10 note=68 velocity=0 time=0
EXTRACT: note_on channel=10 note=73 velocity=0 time=0
EXTRACT: note_on channel=10 note=78 velocity=0 time=0
EXTRACT: note_on channel=9 note=70 velocity=0 time=0.08258924166666667
EXTRACT: note_on channel=9 note=41 velocity=0 time=0
EXTRACT: note_on channel=9 note=47 velocity=0 time=0
EXTRACT: note_on channel=0 note=78 velocity=110 time=0.006696425000000001
EXTRACT: note_on channel=1 note=68 velocity=110 time=0
EXTRACT: note_on channel=1 note=73 velocity=110 time=0
EXTRACT: note_on channel=1 note=78 velocity=110 time=0
EXTRACT: note_on channel=2 note=49 velocity=110 time=0
EXTRACT: note_on channel=9 note=70 velocity=75 time=0
EXTRACT: note_on channel=9 note=41 velocity=92 time=0
EXTRACT: note_on channel=9 note=47 velocity=92 time=0
EXTRACT: note_on channel=9 note=41 velocity=127 time=0
EXTRACT: note_on channel=9 note=47 velocity=127 time=0
EXTRACT: note_on channel=5 note=68 velocity=90 time=0
EXTRACT: note_on channel=5 note=73 velocity=90 time=0
EXTRACT: note_on channel=5 note=78 velocity=90 time=0
EXTRACT: note_on channel=10 note=68 velocity=90 time=0
EXTRACT: note_on channel=10 note=73 velocity=90 time=0
EXTRACT: note_on channel=10 note=78 velocity=90 time=0
EXTRACT: note_on channel=6 note=49 velocity=90 time=0
EXTRACT: note_on channel=9 note=70 velocity=0 time=0.261160575
EXTRACT: note_on channel=9 note=41 velocity=0 time=0
EXTRACT: note_on channel=9 note=47 velocity=0 time=0
EXTRACT: note_on channel=9 note=41 velocity=0 time=0
EXTRACT: note_on channel=9 note=47 velocity=0 time=0
EXTRACT: note_on channel=9 note=70 velocity=75 time=0.006696425000000001
EXTRACT: note_on channel=9 note=41 velocity=92 time=0
EXTRACT: note_on channel=9 note=47 velocity=92 time=0
EXTRACT: note_on channel=0 note=78 velocity=0 time=0.127232075
EXTRACT: note_on channel=1 note=68 velocity=0 time=0
EXTRACT: note_on channel=1 note=73 velocity=0 time=0
EXTRACT: note_on channel=1 note=78 velocity=0 time=0
EXTRACT: note_on channel=9 note=70 velocity=0 time=0
EXTRACT: note_on channel=9 note=41 velocity=0 time=0
EXTRACT: note_on channel=9 note=47 velocity=0 time=0
EXTRACT: note_on channel=5 note=68 velocity=0 time=0
EXTRACT: note_on channel=5 note=73 velocity=0 time=0
EXTRACT: note_on channel=5 note=78 velocity=0 time=0
EXTRACT: note_on channel=10 note=68 velocity=0 time=0
EXTRACT: note_on channel=10 note=73 velocity=0 time=0
EXTRACT: note_on channel=10 note=78 velocity=0 time=0
EXTRACT: note_on channel=0 note=78 velocity=110 time=0.006696425000000001
EXTRACT: note_on channel=1 note=68 velocity=110 time=0
EXTRACT: note_on channel=1 note=73 velocity=110 time=0
EXTRACT: note_on channel=1 note=78 velocity=110 time=0
EXTRACT: note_on channel=9 note=70 velocity=75 time=0
EXTRACT: note_on channel=9 note=41 velocity=92 time=0
EXTRACT: note_on channel=9 note=47 velocity=92 time=0
EXTRACT: note_on channel=5 note=68 velocity=90 time=0
EXTRACT: note_on channel=5 note=73 velocity=90 time=0
EXTRACT: note_on channel=5 note=78 velocity=90 time=0
EXTRACT: note_on channel=10 note=68 velocity=90 time=0
EXTRACT: note_on channel=10 note=73 velocity=90 time=0
EXTRACT: note_on channel=10 note=78 velocity=90 time=0
EXTRACT: note_on channel=9 note=41 velocity=127 time=0.1339285
EXTRACT: note_on channel=9 note=47 velocity=127 time=0
EXTRACT: note_on channel=9 note=70 velocity=0 time=0.127232075
EXTRACT: note_on channel=9 note=41 velocity=0 time=0
EXTRACT: note_on channel=9 note=47 velocity=0 time=0
EXTRACT: note_on channel=9 note=70 velocity=75 time=0.006696425000000001
EXTRACT: note_on channel=9 note=41 velocity=92 time=0
EXTRACT: note_on channel=9 note=47 velocity=92 time=0
EXTRACT: note_on channel=0 note=78 velocity=0 time=0.127232075
EXTRACT: note_on channel=1 note=68 velocity=0 time=0
EXTRACT: note_on channel=1 note=73 velocity=0 time=0
EXTRACT: note_on channel=1 note=78 velocity=0 time=0
EXTRACT: note_on channel=9 note=70 velocity=0 time=0
EXTRACT: note_on channel=9 note=41 velocity=0 time=0
EXTRACT: note_on channel=9 note=47 velocity=0 time=0
EXTRACT: note_on channel=9 note=41 velocity=0 time=0
EXTRACT: note_on channel=9 note=47 velocity=0 time=0
EXTRACT: note_on channel=5 note=68 velocity=0 time=0
EXTRACT: note_on channel=5 note=73 velocity=0 time=0
EXTRACT: note_on channel=5 note=78 velocity=0 time=0
EXTRACT: note_on channel=10 note=68 velocity=0 time=0
EXTRACT: note_on channel=10 note=73 velocity=0 time=0
EXTRACT: note_on channel=10 note=78 velocity=0 time=0
EXTRACT: note_on channel=0 note=73 velocity=110 time=0.006696425000000001
EXTRACT: note_on channel=1 note=73 velocity=110 time=0
EXTRACT: note_on channel=9 note=70 velocity=75 time=0
EXTRACT: note_on channel=9 note=41 velocity=92 time=0
EXTRACT: note_on channel=9 note=47 velocity=92 time=0
EXTRACT: note_on channel=5 note=73 velocity=90 time=0
EXTRACT: note_on channel=10 note=73 velocity=90 time=0
EXTRACT: note_on channel=2 note=49 velocity=0 time=0.1339285
EXTRACT: note_on channel=6 note=49 velocity=0 time=0
EXTRACT: note_on channel=0 note=73 velocity=0 time=0.127232075
EXTRACT: note_on channel=1 note=73 velocity=0 time=0
EXTRACT: note_on channel=9 note=70 velocity=0 time=0
EXTRACT: note_on channel=9 note=41 velocity=0 time=0
EXTRACT: note_on channel=9 note=47 velocity=0 time=0
EXTRACT: note_on channel=5 note=73 velocity=0 time=0
EXTRACT: note_on channel=10 note=73 velocity=0 time=0
EXTRACT: note_on channel=0 note=75 velocity=110 time=0.006696425000000001
EXTRACT: note_on channel=1 note=66 velocity=110 time=0
EXTRACT: note_on channel=1 note=70 velocity=110 time=0
EXTRACT: note_on channel=1 note=75 velocity=110 time=0
EXTRACT: note_on channel=2 note=42 velocity=110 time=0
EXTRACT: note_on channel=9 note=70 velocity=75 time=0
EXTRACT: note_on channel=9 note=41 velocity=92 time=0
EXTRACT: note_on channel=9 note=47 velocity=92 time=0
EXTRACT: note_on channel=9 note=41 velocity=127 time=0
EXTRACT: note_on channel=9 note=47 velocity=127 time=0
EXTRACT: note_on channel=5 note=66 velocity=90 time=0
EXTRACT: note_on channel=5 note=70 velocity=90 time=0
EXTRACT: note_on channel=5 note=75 velocity=90 time=0
EXTRACT: note_on channel=10 note=66 velocity=90 time=0
EXTRACT: note_on channel=10 note=70 velocity=90 time=0
EXTRACT: note_on channel=10 note=75 velocity=90 time=0
EXTRACT: note_on channel=6 note=42 velocity=90 time=0
EXTRACT: note_on channel=9 note=70 velocity=0 time=0.261160575
EXTRACT: note_on channel=9 note=41 velocity=0 time=0
EXTRACT: note_on channel=9 note=47 velocity=0 time=0
EXTRACT: note_on channel=9 note=41 velocity=0 time=0
EXTRACT: note_on channel=9 note=47 velocity=0 time=0
EXTRACT: note_on channel=9 note=70 velocity=75 time=0.006696425000000001
EXTRACT: note_on channel=9 note=41 velocity=92 time=0
EXTRACT: note_on channel=9 note=47 velocity=92 time=0
EXTRACT: note_on channel=9 note=70 velocity=0 time=0.127232075
EXTRACT: note_on channel=9 note=41 velocity=0 time=0
EXTRACT: note_on channel=9 note=47 velocity=0 time=0
EXTRACT: note_on channel=9 note=70 velocity=75 time=0.006696425000000001
EXTRACT: note_on channel=9 note=41 velocity=92 time=0
EXTRACT: note_on channel=9 note=47 velocity=92 time=0
EXTRACT: note_on channel=1 note=66 velocity=0 time=0.04464283333333333
EXTRACT: note_on channel=1 note=70 velocity=0 time=0
EXTRACT: note_on channel=1 note=75 velocity=0 time=0
EXTRACT: note_on channel=5 note=66 velocity=0 time=0
EXTRACT: note_on channel=5 note=70 velocity=0 time=0
EXTRACT: note_on channel=5 note=75 velocity=0 time=0
EXTRACT: note_on channel=10 note=66 velocity=0 time=0
EXTRACT: note_on channel=10 note=70 velocity=0 time=0
EXTRACT: note_on channel=10 note=75 velocity=0 time=0
EXTRACT: note_on channel=0 note=75 velocity=0 time=0.08928566666666667
EXTRACT: note_on channel=0 note=73 velocity=110 time=0
EXTRACT: note_on channel=1 note=73 velocity=110 time=0
EXTRACT: note_on channel=9 note=41 velocity=127 time=0
EXTRACT: note_on channel=9 note=47 velocity=127 time=0
EXTRACT: note_on channel=5 note=73 velocity=90 time=0
EXTRACT: note_on channel=10 note=73 velocity=90 time=0
EXTRACT: note_on channel=9 note=70 velocity=0 time=0.127232075
EXTRACT: note_on channel=9 note=41 velocity=0 time=0
EXTRACT: note_on channel=9 note=47 velocity=0 time=0
EXTRACT: note_on channel=9 note=70 velocity=75 time=0.006696425000000001
EXTRACT: note_on channel=9 note=41 velocity=92 time=0
EXTRACT: note_on channel=9 note=47 velocity=92 time=0
EXTRACT: note_on channel=9 note=70 velocity=0 time=0.127232075
EXTRACT: note_on channel=9 note=41 velocity=0 time=0
EXTRACT: note_on channel=9 note=47 velocity=0 time=0
EXTRACT: note_on channel=9 note=41 velocity=0 time=0
EXTRACT: note_on channel=9 note=47 velocity=0 time=0
EXTRACT: note_on channel=9 note=70 velocity=75 time=0.006696425000000001
EXTRACT: note_on channel=9 note=41 velocity=92 time=0
EXTRACT: note_on channel=9 note=47 velocity=92 time=0
EXTRACT: note_on channel=2 note=42 velocity=0 time=0.1339285
EXTRACT: note_on channel=6 note=42 velocity=0 time=0
EXTRACT: note_on channel=0 note=73 velocity=0 time=0.04464283333333333
EXTRACT: note_on channel=1 note=73 velocity=0 time=0
EXTRACT: note_on channel=5 note=73 velocity=0 time=0
EXTRACT: note_on channel=10 note=73 velocity=0 time=0
EXTRACT: note_on channel=9 note=70 velocity=0 time=0.08258924166666667
EXTRACT: note_on channel=9 note=41 velocity=0 time=0
EXTRACT: note_on channel=9 note=47 velocity=0 time=0
EXTRACT: note_on channel=1 note=71 velocity=110 time=0.006696425000000001
EXTRACT: note_on channel=1 note=75 velocity=110 time=0
EXTRACT: note_on channel=1 note=78 velocity=110 time=0
EXTRACT: note_on channel=2 note=47 velocity=110 time=0
EXTRACT: note_on channel=3 note=71 velocity=110 time=0
EXTRACT: note_on channel=9 note=70 velocity=75 time=0
EXTRACT: note_on channel=9 note=41 velocity=92 time=0
EXTRACT: note_on channel=9 note=47 velocity=92 time=0
EXTRACT: note_on channel=9 note=41 velocity=127 time=0
EXTRACT: note_on channel=9 note=47 velocity=127 time=0
EXTRACT: note_on channel=5 note=71 velocity=90 time=0
EXTRACT: note_on channel=5 note=75 velocity=90 time=0
EXTRACT: note_on channel=5 note=78 velocity=90 time=0
EXTRACT: note_on channel=10 note=71 velocity=90 time=0
EXTRACT: note_on channel=10 note=75 velocity=90 time=0
EXTRACT: note_on channel=10 note=78 velocity=90 time=0
EXTRACT: note_on channel=6 note=47 velocity=90 time=0
EXTRACT: note_on channel=9 note=70 velocity=0 time=0.261160575
EXTRACT: note_on channel=9 note=41 velocity=0 time=0
EXTRACT: note_on channel=9 note=47 velocity=0 time=0
EXTRACT: note_on channel=9 note=41 velocity=0 time=0
EXTRACT: note_on channel=9 note=47 velocity=0 time=0
EXTRACT: note_on channel=9 note=70 velocity=75 time=0.006696425000000001
EXTRACT: note_on channel=9 note=41 velocity=92 time=0
EXTRACT: note_on channel=9 note=47 velocity=92 time=0
EXTRACT: note_on channel=9 note=70 velocity=0 time=0.127232075
EXTRACT: note_on channel=9 note=41 velocity=0 time=0
EXTRACT: note_on channel=9 note=47 velocity=0 time=0
EXTRACT: note_on channel=9 note=70 velocity=75 time=0.006696425000000001
EXTRACT: note_on channel=9 note=41 velocity=92 time=0
EXTRACT: note_on channel=9 note=47 velocity=92 time=0
EXTRACT: note_on channel=1 note=71 velocity=0 time=0.04464283333333333
EXTRACT: note_on channel=2 note=47 velocity=0 time=0
EXTRACT: note_on channel=5 note=71 velocity=0 time=0
EXTRACT: note_on channel=10 note=71 velocity=0 time=0
EXTRACT: note_on channel=6 note=47 velocity=0 time=0
EXTRACT: note_on channel=1 note=70 velocity=110 time=0.08928566666666667
EXTRACT: note_on channel=2 note=46 velocity=110 time=0
EXTRACT: note_on channel=3 note=71 velocity=0 time=0
EXTRACT: note_on channel=3 note=70 velocity=110 time=0
EXTRACT: note_on channel=9 note=41 velocity=127 time=0
EXTRACT: note_on channel=9 note=47 velocity=127 time=0
EXTRACT: note_on channel=5 note=70 velocity=90 time=0
EXTRACT: note_on channel=10 note=70 velocity=90 time=0
EXTRACT: note_on channel=6 note=46 velocity=90 time=0
EXTRACT: note_on channel=9 note=70 velocity=0 time=0.127232075
EXTRACT: note_on channel=9 note=41 velocity=0 time=0
EXTRACT: note_on channel=9 note=47 velocity=0 time=0
EXTRACT: note_on channel=9 note=70 velocity=75 time=0.006696425000000001
EXTRACT: note_on channel=9 note=41 velocity=92 time=0
EXTRACT: note_on channel=9 note=47 velocity=92 time=0
EXTRACT: note_on channel=9 note=70 velocity=0 time=0.127232075
EXTRACT: note_on channel=9 note=41 velocity=0 time=0
EXTRACT: note_on channel=9 note=47 velocity=0 time=0
EXTRACT: note_on channel=9 note=41 velocity=0 time=0
EXTRACT: note_on channel=9 note=47 velocity=0 time=0
EXTRACT: note_on channel=9 note=70 velocity=75 time=0.006696425000000001
EXTRACT: note_on channel=9 note=41 velocity=92 time=0
EXTRACT: note_on channel=9 note=47 velocity=92 time=0
EXTRACT: note_on channel=1 note=75 velocity=0 time=0.1339285
EXTRACT: note_on channel=1 note=78 velocity=0 time=0
EXTRACT: note_on channel=5 note=75 velocity=0 time=0
EXTRACT: note_on channel=5 note=78 velocity=0 time=0
EXTRACT: note_on channel=10 note=75 velocity=0 time=0
EXTRACT: note_on channel=10 note=78 velocity=0 time=0
EXTRACT: note_on channel=1 note=70 velocity=0 time=0.04464283333333333
EXTRACT: note_on channel=2 note=46 velocity=0 time=0
EXTRACT: note_on channel=3 note=70 velocity=0 time=0
EXTRACT: note_on channel=5 note=70 velocity=0 time=0
EXTRACT: note_on channel=10 note=70 velocity=0 time=0
EXTRACT: note_on channel=6 note=46 velocity=0 time=0
EXTRACT: note_on channel=9 note=70 velocity=0 time=0.08258924166666667
EXTRACT: note_on channel=9 note=41 velocity=0 time=0
EXTRACT: note_on channel=9 note=47 velocity=0 time=0
EXTRACT: note_on channel=1 note=70 velocity=110 time=0.006696425000000001
EXTRACT: note_on channel=1 note=75 velocity=110 time=0
EXTRACT: note_on channel=1 note=78 velocity=110 time=0
EXTRACT: note_on channel=2 note=44 velocity=110 time=0
EXTRACT: note_on channel=3 note=70 velocity=110 time=0
EXTRACT: note_on channel=9 note=70 velocity=75 time=0
EXTRACT: note_on channel=9 note=41 velocity=92 time=0
EXTRACT: note_on channel=9 note=47 velocity=92 time=0
EXTRACT: note_on channel=9 note=41 velocity=127 time=0
EXTRACT: note_on channel=9 note=47 velocity=127 time=0
EXTRACT: note_on channel=5 note=70 velocity=90 time=0
EXTRACT: note_on channel=5 note=75 velocity=90 time=0
EXTRACT: note_on channel=5 note=78 velocity=90 time=0
EXTRACT: note_on channel=10 note=70 velocity=90 time=0
EXTRACT: note_on channel=10 note=75 velocity=90 time=0
EXTRACT: note_on channel=10 note=78 velocity=90 time=0
EXTRACT: note_on channel=6 note=44 velocity=90 time=0
EXTRACT: note_on channel=1 note=70 velocity=0 time=0.261160575
EXTRACT: note_on channel=1 note=75 velocity=0 time=0
EXTRACT: note_on channel=1 note=78 velocity=0 time=0
EXTRACT: note_on channel=3 note=70 velocity=0 time=0
EXTRACT: note_on channel=9 note=70 velocity=0 time=0
EXTRACT: note_on channel=9 note=41 velocity=0 time=0
EXTRACT: note_on channel=9 note=47 velocity=0 time=0
EXTRACT: note_on channel=9 note=41 velocity=0 time=0
EXTRACT: note_on channel=9 note=47 velocity=0 time=0
EXTRACT: note_on channel=5 note=70 velocity=0 time=0
EXTRACT: note_on channel=5 note=75 velocity=0 time=0
EXTRACT: note_on channel=5 note=78 velocity=0 time=0
EXTRACT: note_on channel=10 note=70 velocity=0 time=0
EXTRACT: note_on channel=10 note=75 velocity=0 time=0
EXTRACT: note_on channel=10 note=78 velocity=0 time=0
EXTRACT: note_on channel=1 note=70 velocity=110 time=0.006696425000000001
EXTRACT: note_on channel=1 note=75 velocity=110 time=0
EXTRACT: note_on channel=1 note=78 velocity=110 time=0
EXTRACT: note_on channel=3 note=68 velocity=110 time=0
EXTRACT: note_on channel=9 note=70 velocity=75 time=0
EXTRACT: note_on channel=9 note=41 velocity=92 time=0
EXTRACT: note_on channel=9 note=47 velocity=92 time=0
EXTRACT: note_on channel=5 note=70 velocity=90 time=0
EXTRACT: note_on channel=5 note=75 velocity=90 time=0
EXTRACT: note_on channel=5 note=78 velocity=90 time=0
EXTRACT: note_on channel=10 note=70 velocity=90 time=0
EXTRACT: note_on channel=10 note=75 velocity=90 time=0
EXTRACT: note_on channel=10 note=78 velocity=90 time=0
EXTRACT: note_on channel=9 note=70 velocity=0 time=0.127232075
EXTRACT: note_on channel=9 note=41 velocity=0 time=0
EXTRACT: note_on channel=9 note=47 velocity=0 time=0
EXTRACT: note_on channel=9 note=70 velocity=75 time=0.006696425000000001
EXTRACT: note_on channel=9 note=41 velocity=92 time=0
EXTRACT: note_on channel=9 note=47 velocity=92 time=0
EXTRACT: note_on channel=1 note=70 velocity=0 time=0.127232075
EXTRACT: note_on channel=1 note=75 velocity=0 time=0
EXTRACT: note_on channel=1 note=78 velocity=0 time=0
EXTRACT: note_on channel=3 note=68 velocity=0 time=0
EXTRACT: note_on channel=5 note=70 velocity=0 time=0
EXTRACT: note_on channel=5 note=75 velocity=0 time=0
EXTRACT: note_on channel=5 note=78 velocity=0 time=0
EXTRACT: note_on channel=10 note=70 velocity=0 time=0
EXTRACT: note_on channel=10 note=75 velocity=0 time=0
EXTRACT: note_on channel=10 note=78 velocity=0 time=0
EXTRACT: note_on channel=1 note=70 velocity=110 time=0.006696425000000001
EXTRACT: note_on channel=1 note=75 velocity=110 time=0
EXTRACT: note_on channel=1 note=78 velocity=110 time=0
EXTRACT: note_on channel=3 note=68 velocity=110 time=0
EXTRACT: note_on channel=9 note=41 velocity=127 time=0
EXTRACT: note_on channel=9 note=47 velocity=127 time=0
EXTRACT: note_on channel=5 note=70 velocity=90 time=0
EXTRACT: note_on channel=5 note=75 velocity=90 time=0
EXTRACT: note_on channel=5 note=78 velocity=90 time=0
EXTRACT: note_on channel=10 note=70 velocity=90 time=0
EXTRACT: note_on channel=10 note=75 velocity=90 time=0
EXTRACT: note_on channel=10 note=78 velocity=90 time=0
EXTRACT: note_on channel=9 note=70 velocity=0 time=0.127232075
EXTRACT: note_on channel=9 note=41 velocity=0 time=0
EXTRACT: note_on channel=9 note=47 velocity=0 time=0
EXTRACT: note_on channel=9 note=70 velocity=75 time=0.006696425000000001
EXTRACT: note_on channel=9 note=41 velocity=92 time=0
EXTRACT: note_on channel=9 note=47 velocity=92 time=0
EXTRACT: note_on channel=9 note=70 velocity=0 time=0.127232075
EXTRACT: note_on channel=9 note=41 velocity=0 time=0
EXTRACT: note_on channel=9 note=47 velocity=0 time=0
EXTRACT: note_on channel=9 note=41 velocity=0 time=0
EXTRACT: note_on channel=9 note=47 velocity=0 time=0
EXTRACT: note_on channel=9 note=70 velocity=75 time=0.006696425000000001
EXTRACT: note_on channel=9 note=41 velocity=92 time=0
EXTRACT: note_on channel=9 note=47 velocity=92 time=0
EXTRACT: note_on channel=2 note=44 velocity=0 time=0.1339285
EXTRACT: note_on channel=6 note=44 velocity=0 time=0
EXTRACT: note_on channel=1 note=70 velocity=0 time=0.04464283333333333
EXTRACT: note_on channel=1 note=75 velocity=0 time=0
EXTRACT: note_on channel=1 note=78 velocity=0 time=0
EXTRACT: note_on channel=3 note=68 velocity=0 time=0
EXTRACT: note_on channel=5 note=70 velocity=0 time=0
EXTRACT: note_on channel=5 note=75 velocity=0 time=0
EXTRACT: note_on channel=5 note=78 velocity=0 time=0
EXTRACT: note_on channel=10 note=70 velocity=0 time=0
EXTRACT: note_on channel=10 note=75 velocity=0 time=0
EXTRACT: note_on channel=10 note=78 velocity=0 time=0
EXTRACT: note_on channel=9 note=70 velocity=0 time=0.08258924166666667
EXTRACT: note_on channel=9 note=41 velocity=0 time=0
EXTRACT: note_on channel=9 note=47 velocity=0 time=0
EXTRACT: note_on channel=0 note=73 velocity=110 time=0.006696425000000001
EXTRACT: note_on channel=1 note=66 velocity=110 time=0
EXTRACT: note_on channel=1 note=68 velocity=110 time=0
EXTRACT: note_on channel=1 note=73 velocity=110 time=0
EXTRACT: note_on channel=2 note=49 velocity=110 time=0
EXTRACT: note_on channel=9 note=70 velocity=75 time=0
EXTRACT: note_on channel=9 note=41 velocity=92 time=0
EXTRACT: note_on channel=9 note=47 velocity=92 time=0
EXTRACT: note_on channel=9 note=41 velocity=127 time=0
EXTRACT: note_on channel=9 note=47 velocity=127 time=0
EXTRACT: note_on channel=5 note=66 velocity=90 time=0
EXTRACT: note_on channel=5 note=68 velocity=90 time=0
EXTRACT: note_on channel=5 note=73 velocity=90 time=0
EXTRACT: note_on channel=10 note=66 velocity=90 time=0
EXTRACT: note_on channel=10 note=68 velocity=90 time=0
EXTRACT: note_on channel=10 note=73 velocity=90 time=0
EXTRACT: note_on channel=6 note=49 velocity=90 time=0
EXTRACT: note_on channel=9 note=70 velocity=0 time=0.261160575
EXTRACT: note_on channel=9 note=41 velocity=0 time=0
EXTRACT: note_on channel=9 note=47 velocity=0 time=0
EXTRACT: note_on channel=9 note=41 velocity=0 time=0
EXTRACT: note_on channel=9 note=47 velocity=0 time=0
EXTRACT: note_on channel=9 note=70 velocity=75 time=0.006696425000000001
EXTRACT: note_on channel=9 note=41 velocity=92 time=0
EXTRACT: note_on channel=9 note=47 velocity=92 time=0
EXTRACT: note_on channel=0 note=73 velocity=0 time=0.127232075
EXTRACT: note_on channel=1 note=66 velocity=0 time=0
EXTRACT: note_on channel=1 note=68 velocity=0 time=0
EXTRACT: note_on channel=1 note=73 velocity=0 time=0
EXTRACT: note_on channel=9 note=70 velocity=0 time=0
EXTRACT: note_on channel=9 note=41 velocity=0 time=0
EXTRACT: note_on channel=9 note=47 velocity=0 time=0
EXTRACT: note_on channel=5 note=66 velocity=0 time=0
EXTRACT: note_on channel=5 note=68 velocity=0 time=0
EXTRACT: note_on channel=5 note=73 velocity=0 time=0
EXTRACT: note_on channel=10 note=66 velocity=0 time=0
EXTRACT: note_on channel=10 note=68 velocity=0 time=0
EXTRACT: note_on channel=10 note=73 velocity=0 time=0
EXTRACT: note_on channel=0 note=73 velocity=110 time=0.006696425000000001
EXTRACT: note_on channel=1 note=66 velocity=110 time=0
EXTRACT: note_on channel=1 note=68 velocity=110 time=0
EXTRACT: note_on channel=1 note=73 velocity=110 time=0
EXTRACT: note_on channel=9 note=70 velocity=75 time=0
EXTRACT: note_on channel=9 note=41 velocity=92 time=0
EXTRACT: note_on channel=9 note=47 velocity=92 time=0
EXTRACT: note_on channel=5 note=66 velocity=90 time=0
EXTRACT: note_on channel=5 note=68 velocity=90 time=0
EXTRACT: note_on channel=5 note=73 velocity=90 time=0
EXTRACT: note_on channel=10 note=66 velocity=90 time=0
EXTRACT: note_on channel=10 note=68 velocity=90 time=0
EXTRACT: note_on channel=10 note=73 velocity=90 time=0
EXTRACT: note_on channel=1 note=66 velocity=0 time=0.127232075
EXTRACT: note_on channel=1 note=68 velocity=0 time=0
EXTRACT: note_on channel=1 note=73 velocity=0 time=0
EXTRACT: note_on channel=5 note=66 velocity=0 time=0
EXTRACT: note_on channel=5 note=68 velocity=0 time=0
EXTRACT: note_on channel=5 note=73 velocity=0 time=0
EXTRACT: note_on channel=10 note=66 velocity=0 time=0
EXTRACT: note_on channel=10 note=68 velocity=0 time=0
EXTRACT: note_on channel=10 note=73 velocity=0 time=0
EXTRACT: note_on channel=1 note=66 velocity=110 time=0.006696425000000001
EXTRACT: note_on channel=1 note=68 velocity=110 time=0
EXTRACT: note_on channel=1 note=73 velocity=110 time=0
EXTRACT: note_on channel=9 note=41 velocity=127 time=0
EXTRACT: note_on channel=9 note=47 velocity=127 time=0
EXTRACT: note_on channel=5 note=66 velocity=90 time=0
EXTRACT: note_on channel=5 note=68 velocity=90 time=0
EXTRACT: note_on channel=5 note=73 velocity=90 time=0
EXTRACT: note_on channel=10 note=66 velocity=90 time=0
EXTRACT: note_on channel=10 note=68 velocity=90 time=0
EXTRACT: note_on channel=10 note=73 velocity=90 time=0
EXTRACT: note_on channel=9 note=70 velocity=0 time=0.127232075
EXTRACT: note_on channel=9 note=41 velocity=0 time=0
EXTRACT: note_on channel=9 note=47 velocity=0 time=0
EXTRACT: note_on channel=9 note=70 velocity=75 time=0.006696425000000001
EXTRACT: note_on channel=9 note=41 velocity=92 time=0
EXTRACT: note_on channel=9 note=47 velocity=92 time=0
EXTRACT: note_on channel=0 note=73 velocity=0 time=0.127232075
EXTRACT: note_on channel=1 note=66 velocity=0 time=0
EXTRACT: note_on channel=1 note=68 velocity=0 time=0
EXTRACT: note_on channel=1 note=73 velocity=0 time=0
EXTRACT: note_on channel=9 note=70 velocity=0 time=0
EXTRACT: note_on channel=9 note=41 velocity=0 time=0
EXTRACT: note_on channel=9 note=47 velocity=0 time=0
EXTRACT: note_on channel=9 note=41 velocity=0 time=0
EXTRACT: note_on channel=9 note=47 velocity=0 time=0
EXTRACT: note_on channel=5 note=66 velocity=0 time=0
EXTRACT: note_on channel=5 note=68 velocity=0 time=0
EXTRACT: note_on channel=5 note=73 velocity=0 time=0
EXTRACT: note_on channel=10 note=66 velocity=0 time=0
EXTRACT: note_on channel=10 note=68 velocity=0 time=0
EXTRACT: note_on channel=10 note=73 velocity=0 time=0
EXTRACT: note_on channel=0 note=77 velocity=110 time=0.006696425000000001
EXTRACT: note_on channel=1 note=77 velocity=110 time=0
EXTRACT: note_on channel=9 note=70 velocity=75 time=0
EXTRACT: note_on channel=9 note=41 velocity=92 time=0
EXTRACT: note_on channel=9 note=47 velocity=92 time=0
EXTRACT: note_on channel=5 note=77 velocity=90 time=0
EXTRACT: note_on channel=10 note=77 velocity=90 time=0
EXTRACT: note_on channel=2 note=49 velocity=0 time=0.1339285
EXTRACT: note_on channel=6 note=49 velocity=0 time=0
EXTRACT: note_on channel=0 note=77 velocity=0 time=0.127232075
EXTRACT: note_on channel=1 note=77 velocity=0 time=0
EXTRACT: note_on channel=9 note=70 velocity=0 time=0
EXTRACT: note_on channel=9 note=41 velocity=0 time=0
EXTRACT: note_on channel=9 note=47 velocity=0 time=0
EXTRACT: note_on channel=5 note=77 velocity=0 time=0
EXTRACT: note_on channel=10 note=77 velocity=0 time=0
EXTRACT: note_on channel=0 note=78 velocity=110 time=0.006696425000000001
EXTRACT: note_on channel=1 note=70 velocity=110 time=0
EXTRACT: note_on channel=1 note=73 velocity=110 time=0
EXTRACT: note_on channel=1 note=78 velocity=110 time=0
EXTRACT: note_on channel=2 note=42 velocity=110 time=0
EXTRACT: note_on channel=9 note=70 velocity=75 time=0
EXTRACT: note_on channel=9 note=41 velocity=92 time=0
EXTRACT: note_on channel=9 note=47 velocity=92 time=0
EXTRACT: note_on channel=9 note=41 velocity=127 time=0
EXTRACT: note_on channel=9 note=47 velocity=127 time=0
EXTRACT: note_on channel=5 note=70 velocity=90 time=0
EXTRACT: note_on channel=5 note=73 velocity=90 time=0
EXTRACT: note_on channel=5 note=78 velocity=90 time=0
EXTRACT: note_on channel=10 note=70 velocity=90 time=0
EXTRACT: note_on channel=10 note=73 velocity=90 time=0
EXTRACT: note_on channel=10 note=78 velocity=90 time=0
EXTRACT: note_on channel=6 note=42 velocity=90 time=0
EXTRACT: note_on channel=9 note=70 velocity=0 time=0.261160575
EXTRACT: note_on channel=9 note=41 velocity=0 time=0
EXTRACT: note_on channel=9 note=47 velocity=0 time=0
EXTRACT: note_on channel=9 note=41 velocity=0 time=0
EXTRACT: note_on channel=9 note=47 velocity=0 time=0
EXTRACT: note_on channel=9 note=70 velocity=75 time=0.006696425000000001
EXTRACT: note_on channel=9 note=41 velocity=92 time=0
EXTRACT: note_on channel=9 note=47 velocity=92 time=0
EXTRACT: note_on channel=9 note=70 velocity=0 time=0.127232075
EXTRACT: note_on channel=9 note=41 velocity=0 time=0
EXTRACT: note_on channel=9 note=47 velocity=0 time=0
EXTRACT: note_on channel=9 note=70 velocity=75 time=0.006696425000000001
EXTRACT: note_on channel=9 note=41 velocity=92 time=0
EXTRACT: note_on channel=9 note=47 velocity=92 time=0
EXTRACT: note_on channel=9 note=41 velocity=127 time=0.1339285
EXTRACT: note_on channel=9 note=47 velocity=127 time=0
EXTRACT: note_on channel=9 note=70 velocity=0 time=0.127232075
EXTRACT: note_on channel=9 note=41 velocity=0 time=0
EXTRACT: note_on channel=9 note=47 velocity=0 time=0
EXTRACT: note_on channel=9 note=70 velocity=75 time=0.006696425000000001
EXTRACT: note_on channel=9 note=41 velocity=92 time=0
EXTRACT: note_on channel=9 note=47 velocity=92 time=0
EXTRACT: note_on channel=9 note=70 velocity=0 time=0.127232075
EXTRACT: note_on channel=9 note=41 velocity=0 time=0
EXTRACT: note_on channel=9 note=47 velocity=0 time=0
EXTRACT: note_on channel=9 note=41 velocity=0 time=0
EXTRACT: note_on channel=9 note=47 velocity=0 time=0
EXTRACT: note_on channel=9 note=70 velocity=75 time=0.006696425000000001
EXTRACT: note_on channel=9 note=41 velocity=92 time=0
EXTRACT: note_on channel=9 note=47 velocity=92 time=0
EXTRACT: note_on channel=0 note=78 velocity=0 time=0.1339285
EXTRACT: note_on channel=1 note=70 velocity=0 time=0
EXTRACT: note_on channel=1 note=73 velocity=0 time=0
EXTRACT: note_on channel=1 note=78 velocity=0 time=0
EXTRACT: note_on channel=2 note=42 velocity=0 time=0
EXTRACT: note_on channel=5 note=70 velocity=0 time=0
EXTRACT: note_on channel=5 note=73 velocity=0 time=0
EXTRACT: note_on channel=5 note=78 velocity=0 time=0
EXTRACT: note_on channel=10 note=70 velocity=0 time=0
EXTRACT: note_on channel=10 note=73 velocity=0 time=0
EXTRACT: note_on channel=10 note=78 velocity=0 time=0
EXTRACT: note_on channel=6 note=42 velocity=0 time=0
EXTRACT: note_on channel=9 note=70 velocity=0 time=0.127232075
EXTRACT: note_on channel=9 note=41 velocity=0 time=0
EXTRACT: note_on channel=9 note=47 velocity=0 time=0
EXTRACT: note_on channel=0 note=73 velocity=110 time=0.006696425000000001
EXTRACT: note_on channel=1 note=63 velocity=110 time=0
EXTRACT: note_on channel=1 note=66 velocity=110 time=0
EXTRACT: note_on channel=1 note=73 velocity=110 time=0
EXTRACT: note_on channel=2 note=47 velocity=110 time=0
EXTRACT: note_on channel=9 note=70 velocity=75 time=0
EXTRACT: note_on channel=9 note=41 velocity=92 time=0
EXTRACT: note_on channel=9 note=47 velocity=92 time=0
EXTRACT: note_on channel=9 note=41 velocity=127 time=0
EXTRACT: note_on channel=9 note=47 velocity=127 time=0
EXTRACT: note_on channel=5 note=63 velocity=90 time=0
EXTRACT: note_on channel=5 note=66 velocity=90 time=0
EXTRACT: note_on channel=5 note=73 velocity=90 time=0
EXTRACT: note_on channel=10 note=63 velocity=90 time=0
EXTRACT: note_on channel=10 note=66 velocity=90 time=0
EXTRACT: note_on channel=10 note=73 velocity=90 time=0
EXTRACT: note_on channel=6 note=47 velocity=90 time=0
EXTRACT: note_on channel=9 note=70 velocity=0 time=0.261160575
EXTRACT: note_on channel=9 note=41 velocity=0 time=0
EXTRACT: note_on channel=9 note=47 velocity=0 time=0
EXTRACT: note_on channel=9 note=41 velocity=0 time=0
EXTRACT: note_on channel=9 note=47 velocity=0 time=0
EXTRACT: note_on channel=9 note=70 velocity=75 time=0.006696425000000001
EXTRACT: note_on channel=9 note=41 velocity=92 time=0
EXTRACT: note_on channel=9 note=47 velocity=92 time=0
EXTRACT: note_on channel=0 note=73 velocity=0 time=0.127232075
EXTRACT: note_on channel=1 note=63 velocity=0 time=0
EXTRACT: note_on channel=1 note=66 velocity=0 time=0
EXTRACT: note_on channel=1 note=73 velocity=0 time=0
EXTRACT: note_on channel=9 note=70 velocity=0 time=0
EXTRACT: note_on channel=9 note=41 velocity=0 time=0
EXTRACT: note_on channel=9 note=47 velocity=0 time=0
EXTRACT: note_on channel=5 note=63 velocity=0 time=0
EXTRACT: note_on channel=5 note=66 velocity=0 time=0
EXTRACT: note_on channel=5 note=73 velocity=0 time=0
EXTRACT: note_on channel=10 note=63 velocity=0 time=0
EXTRACT: note_on channel=10 note=66 velocity=0 time=0
EXTRACT: note_on channel=10 note=73 velocity=0 time=0
EXTRACT: note_on channel=0 note=73 velocity=110 time=0.006696425000000001
EXTRACT: note_on channel=1 note=73 velocity=110 time=0
EXTRACT: note_on channel=9 note=70 velocity=75 time=0
EXTRACT: note_on channel=9 note=41 velocity=92 time=0
EXTRACT: note_on channel=9 note=47 velocity=92 time=0
EXTRACT: note_on channel=5 note=73 velocity=90 time=0
EXTRACT: note_on channel=10 note=73 velocity=90 time=0
EXTRACT: note_on channel=2 note=47 velocity=0 time=0.04464283333333333
EXTRACT: note_on channel=6 note=47 velocity=0 time=0
EXTRACT: note_on channel=2 note=46 velocity=110 time=0.08928566666666667
EXTRACT: note_on channel=9 note=41 velocity=127 time=0
EXTRACT: note_on channel=9 note=47 velocity=127 time=0
EXTRACT: note_on channel=6 note=46 velocity=90 time=0
EXTRACT: note_on channel=9 note=70 velocity=0 time=0.127232075
EXTRACT: note_on channel=9 note=41 velocity=0 time=0
EXTRACT: note_on channel=9 note=47 velocity=0 time=0
EXTRACT: note_on channel=9 note=70 velocity=75 time=0.006696425000000001
EXTRACT: note_on channel=9 note=41 velocity=92 time=0
EXTRACT: note_on channel=9 note=47 velocity=92 time=0
EXTRACT: note_on channel=0 note=73 velocity=0 time=0.127232075
EXTRACT: note_on channel=1 note=73 velocity=0 time=0
EXTRACT: note_on channel=9 note=70 velocity=0 time=0
EXTRACT: note_on channel=9 note=41 velocity=0 time=0
EXTRACT: note_on channel=9 note=47 velocity=0 time=0
EXTRACT: note_on channel=9 note=41 velocity=0 time=0
EXTRACT: note_on channel=9 note=47 velocity=0 time=0
EXTRACT: note_on channel=5 note=73 velocity=0 time=0
EXTRACT: note_on channel=10 note=73 velocity=0 time=0
EXTRACT: note_on channel=0 note=73 velocity=110 time=0.006696425000000001
EXTRACT: note_on channel=1 note=73 velocity=110 time=0
EXTRACT: note_on channel=9 note=70 velocity=75 time=0
EXTRACT: note_on channel=9 note=41 velocity=92 time=0
EXTRACT: note_on channel=9 note=47 velocity=92 time=0
EXTRACT: note_on channel=5 note=73 velocity=90 time=0
EXTRACT: note_on channel=10 note=73 velocity=90 time=0
EXTRACT: note_on channel=2 note=46 velocity=0 time=0.17857133333333333
EXTRACT: note_on channel=6 note=46 velocity=0 time=0
EXTRACT: note_on channel=0 note=73 velocity=0 time=0.08258924166666667
EXTRACT: note_on channel=1 note=73 velocity=0 time=0
EXTRACT: note_on channel=9 note=70 velocity=0 time=0
EXTRACT: note_on channel=9 note=41 velocity=0 time=0
EXTRACT: note_on channel=9 note=47 velocity=0 time=0
EXTRACT: note_on channel=5 note=73 velocity=0 time=0
EXTRACT: note_on channel=10 note=73 velocity=0 time=0
EXTRACT: note_on channel=0 note=83 velocity=110 time=0.006696425000000001
EXTRACT: note_on channel=1 note=75 velocity=110 time=0
EXTRACT: note_on channel=1 note=78 velocity=110 time=0
EXTRACT: note_on channel=1 note=83 velocity=110 time=0
EXTRACT: note_on channel=2 note=44 velocity=110 time=0
EXTRACT: note_on channel=9 note=70 velocity=75 time=0
EXTRACT: note_on channel=9 note=41 velocity=92 time=0
EXTRACT: note_on channel=9 note=47 velocity=92 time=0
EXTRACT: note_on channel=9 note=41 velocity=127 time=0
EXTRACT: note_on channel=9 note=47 velocity=127 time=0
EXTRACT: note_on channel=5 note=75 velocity=90 time=0
EXTRACT: note_on channel=5 note=78 velocity=90 time=0
EXTRACT: note_on channel=5 note=83 velocity=90 time=0
EXTRACT: note_on channel=10 note=75 velocity=90 time=0
EXTRACT: note_on channel=10 note=78 velocity=90 time=0
EXTRACT: note_on channel=10 note=83 velocity=90 time=0
EXTRACT: note_on channel=6 note=44 velocity=90 time=0
EXTRACT: note_on channel=9 note=70 velocity=0 time=0.261160575
EXTRACT: note_on channel=9 note=41 velocity=0 time=0
EXTRACT: note_on channel=9 note=47 velocity=0 time=0
EXTRACT: note_on channel=9 note=41 velocity=0 time=0
EXTRACT: note_on channel=9 note=47 velocity=0 time=0
EXTRACT: note_on channel=9 note=70 velocity=75 time=0.006696425000000001
EXTRACT: note_on channel=9 note=41 velocity=92 time=0
EXTRACT: note_on channel=9 note=47 velocity=92 time=0
EXTRACT: note_on channel=0 note=83 velocity=0 time=0.127232075
EXTRACT: note_on channel=1 note=75 velocity=0 time=0
EXTRACT: note_on channel=1 note=78 velocity=0 time=0
EXTRACT: note_on channel=1 note=83 velocity=0 time=0
EXTRACT: note_on channel=9 note=70 velocity=0 time=0
EXTRACT: note_on channel=9 note=41 velocity=0 time=0
EXTRACT: note_on channel=9 note=47 velocity=0 time=0
EXTRACT: note_on channel=5 note=75 velocity=0 time=0
EXTRACT: note_on channel=5 note=78 velocity=0 time=0
EXTRACT: note_on channel=5 note=83 velocity=0 time=0
EXTRACT: note_on channel=10 note=75 velocity=0 time=0
EXTRACT: note_on channel=10 note=78 velocity=0 time=0
EXTRACT: note_on channel=10 note=83 velocity=0 time=0
EXTRACT: note_on channel=0 note=83 velocity=110 time=0.006696425000000001
EXTRACT: note_on channel=1 note=75 velocity=110 time=0
EXTRACT: note_on channel=1 note=78 velocity=110 time=0
EXTRACT: note_on channel=1 note=83 velocity=110 time=0
EXTRACT: note_on channel=9 note=70 velocity=75 time=0
EXTRACT: note_on channel=9 note=41 velocity=92 time=0
EXTRACT: note_on channel=9 note=47 velocity=92 time=0
EXTRACT: note_on channel=5 note=75 velocity=90 time=0
EXTRACT: note_on channel=5 note=78 velocity=90 time=0
EXTRACT: note_on channel=5 note=83 velocity=90 time=0
EXTRACT: note_on channel=10 note=75 velocity=90 time=0
EXTRACT: note_on channel=10 note=78 velocity=90 time=0
EXTRACT: note_on channel=10 note=83 velocity=90 time=0
EXTRACT: note_on channel=9 note=41 velocity=127 time=0.1339285
EXTRACT: note_on channel=9 note=47 velocity=127 time=0
EXTRACT: note_on channel=9 note=70 velocity=0 time=0.127232075
EXTRACT: note_on channel=9 note=41 velocity=0 time=0
EXTRACT: note_on channel=9 note=47 velocity=0 time=0
EXTRACT: note_on channel=9 note=70 velocity=75 time=0.006696425000000001
EXTRACT: note_on channel=9 note=41 velocity=92 time=0
EXTRACT: note_on channel=9 note=47 velocity=92 time=0
EXTRACT: note_on channel=0 note=83 velocity=0 time=0.127232075
EXTRACT: note_on channel=1 note=75 velocity=0 time=0
EXTRACT: note_on channel=1 note=78 velocity=0 time=0
EXTRACT: note_on channel=1 note=83 velocity=0 time=0
EXTRACT: note_on channel=9 note=70 velocity=0 time=0
EXTRACT: note_on channel=9 note=41 velocity=0 time=0
EXTRACT: note_on channel=9 note=47 velocity=0 time=0
EXTRACT: note_on channel=9 note=41 velocity=0 time=0
EXTRACT: note_on channel=9 note=47 velocity=0 time=0
EXTRACT: note_on channel=5 note=75 velocity=0 time=0
EXTRACT: note_on channel=5 note=78 velocity=0 time=0
EXTRACT: note_on channel=5 note=83 velocity=0 time=0
EXTRACT: note_on channel=10 note=75 velocity=0 time=0
EXTRACT: note_on channel=10 note=78 velocity=0 time=0
EXTRACT: note_on channel=10 note=83 velocity=0 time=0
EXTRACT: note_on channel=0 note=83 velocity=110 time=0.006696425000000001
EXTRACT: note_on channel=1 note=83 velocity=110 time=0
EXTRACT: note_on channel=9 note=70 velocity=75 time=0
EXTRACT: note_on channel=9 note=41 velocity=92 time=0
EXTRACT: note_on channel=9 note=47 velocity=92 time=0
EXTRACT: note_on channel=5 note=83 velocity=90 time=0
EXTRACT: note_on channel=10 note=83 velocity=90 time=0
EXTRACT: note_on channel=2 note=44 velocity=0 time=0.1339285
EXTRACT: note_on channel=6 note=44 velocity=0 time=0
EXTRACT: note_on channel=0 note=83 velocity=0 time=0.127232075
EXTRACT: note_on channel=1 note=83 velocity=0 time=0
EXTRACT: note_on channel=9 note=70 velocity=0 time=0
EXTRACT: note_on channel=9 note=41 velocity=0 time=0
EXTRACT: note_on channel=9 note=47 velocity=0 time=0
EXTRACT: note_on channel=5 note=83 velocity=0 time=0
EXTRACT: note_on channel=10 note=83 velocity=0 time=0
EXTRACT: note_on channel=0 note=83 velocity=110 time=0.006696425000000001
EXTRACT: note_on channel=1 note=73 velocity=110 time=0
EXTRACT: note_on channel=1 note=78 velocity=110 time=0
EXTRACT: note_on channel=1 note=83 velocity=110 time=0
EXTRACT: note_on channel=2 note=49 velocity=110 time=0
EXTRACT: note_on channel=9 note=70 velocity=75 time=0
EXTRACT: note_on channel=9 note=41 velocity=92 time=0
EXTRACT: note_on channel=9 note=47 velocity=92 time=0
EXTRACT: note_on channel=9 note=41 velocity=127 time=0
EXTRACT: note_on channel=9 note=47 velocity=127 time=0
EXTRACT: note_on channel=5 note=73 velocity=90 time=0
EXTRACT: note_on channel=5 note=78 velocity=90 time=0
EXTRACT: note_on channel=5 note=83 velocity=90 time=0
EXTRACT: note_on channel=10 note=73 velocity=90 time=0
EXTRACT: note_on channel=10 note=78 velocity=90 time=0
EXTRACT: note_on channel=10 note=83 velocity=90 time=0
EXTRACT: note_on channel=6 note=49 velocity=90 time=0
EXTRACT: note_on channel=9 note=70 velocity=0 time=0.261160575
EXTRACT: note_on channel=9 note=41 velocity=0 time=0
EXTRACT: note_on channel=9 note=47 velocity=0 time=0
EXTRACT: note_on channel=9 note=41 velocity=0 time=0
EXTRACT: note_on channel=9 note=47 velocity=0 time=0
EXTRACT: note_on channel=9 note=70 velocity=75 time=0.006696425000000001
EXTRACT: note_on channel=9 note=41 velocity=92 time=0
EXTRACT: note_on channel=9 note=47 velocity=92 time=0
EXTRACT: note_on channel=0 note=83 velocity=0 time=0.127232075
EXTRACT: note_on channel=1 note=73 velocity=0 time=0
EXTRACT: note_on channel=1 note=78 velocity=0 time=0
EXTRACT: note_on channel=1 note=83 velocity=0 time=0
EXTRACT: note_on channel=9 note=70 velocity=0 time=0
EXTRACT: note_on channel=9 note=41 velocity=0 time=0
EXTRACT: note_on channel=9 note=47 velocity=0 time=0
EXTRACT: note_on channel=5 note=73 velocity=0 time=0
EXTRACT: note_on channel=5 note=78 velocity=0 time=0
EXTRACT: note_on channel=5 note=83 velocity=0 time=0
EXTRACT: note_on channel=10 note=73 velocity=0 time=0
EXTRACT: note_on channel=10 note=78 velocity=0 time=0
EXTRACT: note_on channel=10 note=83 velocity=0 time=0
EXTRACT: note_on channel=0 note=82 velocity=110 time=0.006696425000000001
EXTRACT: note_on channel=1 note=82 velocity=110 time=0
EXTRACT: note_on channel=9 note=70 velocity=75 time=0
EXTRACT: note_on channel=9 note=41 velocity=92 time=0
EXTRACT: note_on channel=9 note=47 velocity=92 time=0
EXTRACT: note_on channel=5 note=82 velocity=90 time=0
EXTRACT: note_on channel=10 note=82 velocity=90 time=0
EXTRACT: note_on channel=9 note=41 velocity=127 time=0.1339285
EXTRACT: note_on channel=9 note=47 velocity=127 time=0
EXTRACT: note_on channel=9 note=70 velocity=0 time=0.127232075
EXTRACT: note_on channel=9 note=41 velocity=0 time=0
EXTRACT: note_on channel=9 note=47 velocity=0 time=0
EXTRACT: note_on channel=9 note=70 velocity=75 time=0.006696425000000001
EXTRACT: note_on channel=9 note=41 velocity=92 time=0
EXTRACT: note_on channel=9 note=47 velocity=92 time=0
EXTRACT: note_on channel=0 note=82 velocity=0 time=0.127232075
EXTRACT: note_on channel=1 note=82 velocity=0 time=0
EXTRACT: note_on channel=9 note=70 velocity=0 time=0
EXTRACT: note_on channel=9 note=41 velocity=0 time=0
EXTRACT: note_on channel=9 note=47 velocity=0 time=0
EXTRACT: note_on channel=9 note=41 velocity=0 time=0
EXTRACT: note_on channel=9 note=47 velocity=0 time=0
EXTRACT: note_on channel=5 note=82 velocity=0 time=0
EXTRACT: note_on channel=10 note=82 velocity=0 time=0
EXTRACT: note_on channel=0 note=82 velocity=110 time=0.006696425000000001
EXTRACT: note_on channel=1 note=82 velocity=110 time=0
EXTRACT: note_on channel=9 note=70 velocity=75 time=0
EXTRACT: note_on channel=9 note=41 velocity=92 time=0
EXTRACT: note_on channel=9 note=47 velocity=92 time=0
EXTRACT: note_on channel=5 note=82 velocity=90 time=0
EXTRACT: note_on channel=10 note=82 velocity=90 time=0
EXTRACT: note_on channel=2 note=49 velocity=0 time=0.1339285
EXTRACT: note_on channel=6 note=49 velocity=0 time=0
EXTRACT: note_on channel=0 note=82 velocity=0 time=0.127232075
EXTRACT: note_on channel=1 note=82 velocity=0 time=0
EXTRACT: note_on channel=9 note=70 velocity=0 time=0
EXTRACT: note_on channel=9 note=41 velocity=0 time=0
EXTRACT: note_on channel=9 note=47 velocity=0 time=0
EXTRACT: note_on channel=5 note=82 velocity=0 time=0
EXTRACT: note_on channel=10 note=82 velocity=0 time=0
EXTRACT: note_on channel=0 note=82 velocity=110 time=0.006696425000000001
EXTRACT: note_on channel=1 note=73 velocity=110 time=0
EXTRACT: note_on channel=1 note=78 velocity=110 time=0
EXTRACT: note_on channel=1 note=82 velocity=110 time=0
EXTRACT: note_on channel=2 note=51 velocity=110 time=0
EXTRACT: note_on channel=9 note=70 velocity=75 time=0
EXTRACT: note_on channel=9 note=41 velocity=92 time=0
EXTRACT: note_on channel=9 note=47 velocity=92 time=0
EXTRACT: note_on channel=9 note=41 velocity=127 time=0
EXTRACT: note_on channel=9 note=47 velocity=127 time=0
EXTRACT: note_on channel=5 note=73 velocity=90 time=0
EXTRACT: note_on channel=5 note=78 velocity=90 time=0
EXTRACT: note_on channel=5 note=82 velocity=90 time=0
EXTRACT: note_on channel=10 note=73 velocity=90 time=0
EXTRACT: note_on channel=10 note=78 velocity=90 time=0
EXTRACT: note_on channel=10 note=82 velocity=90 time=0
EXTRACT: note_on channel=6 note=51 velocity=90 time=0
EXTRACT: note_on channel=9 note=70 velocity=0 time=0.261160575
EXTRACT: note_on channel=9 note=41 velocity=0 time=0
EXTRACT: note_on channel=9 note=47 velocity=0 time=0
EXTRACT: note_on channel=9 note=41 velocity=0 time=0
EXTRACT: note_on channel=9 note=47 velocity=0 time=0
EXTRACT: note_on channel=9 note=70 velocity=75 time=0.006696425000000001
EXTRACT: note_on channel=9 note=41 velocity=92 time=0
EXTRACT: note_on channel=9 note=47 velocity=92 time=0
EXTRACT: note_on channel=0 note=82 velocity=0 time=0.127232075
EXTRACT: note_on channel=1 note=73 velocity=0 time=0
EXTRACT: note_on channel=1 note=78 velocity=0 time=0
EXTRACT: note_on channel=1 note=82 velocity=0 time=0
EXTRACT: note_on channel=9 note=70 velocity=0 time=0
EXTRACT: note_on channel=9 note=41 velocity=0 time=0
EXTRACT: note_on channel=9 note=47 velocity=0 time=0
EXTRACT: note_on channel=5 note=73 velocity=0 time=0
EXTRACT: note_on channel=5 note=78 velocity=0 time=0
EXTRACT: note_on channel=5 note=82 velocity=0 time=0
EXTRACT: note_on channel=10 note=73 velocity=0 time=0
EXTRACT: note_on channel=10 note=78 velocity=0 time=0
EXTRACT: note_on channel=10 note=82 velocity=0 time=0
EXTRACT: note_on channel=0 note=80 velocity=110 time=0.006696425000000001
EXTRACT: note_on channel=1 note=80 velocity=110 time=0
EXTRACT: note_on channel=9 note=70 velocity=75 time=0
EXTRACT: note_on channel=9 note=41 velocity=92 time=0
EXTRACT: note_on channel=9 note=47 velocity=92 time=0
EXTRACT: note_on channel=5 note=80 velocity=90 time=0
EXTRACT: note_on channel=10 note=80 velocity=90 time=0
EXTRACT: note_on channel=9 note=41 velocity=127 time=0.1339285
EXTRACT: note_on channel=9 note=47 velocity=127 time=0
EXTRACT: note_on channel=9 note=70 velocity=0 time=0.127232075
EXTRACT: note_on channel=9 note=41 velocity=0 time=0
EXTRACT: note_on channel=9 note=47 velocity=0 time=0
EXTRACT: note_on channel=9 note=70 velocity=75 time=0.006696425000000001
EXTRACT: note_on channel=9 note=41 velocity=92 time=0
EXTRACT: note_on channel=9 note=47 velocity=92 time=0
EXTRACT: note_on channel=0 note=80 velocity=0 time=0.127232075
EXTRACT: note_on channel=1 note=80 velocity=0 time=0
EXTRACT: note_on channel=9 note=70 velocity=0 time=0
EXTRACT: note_on channel=9 note=41 velocity=0 time=0
EXTRACT: note_on channel=9 note=47 velocity=0 time=0
EXTRACT: note_on channel=9 note=41 velocity=0 time=0
EXTRACT: note_on channel=9 note=47 velocity=0 time=0
EXTRACT: note_on channel=5 note=80 velocity=0 time=0
EXTRACT: note_on channel=10 note=80 velocity=0 time=0
EXTRACT: note_on channel=0 note=80 velocity=110 time=0.006696425000000001
EXTRACT: note_on channel=1 note=80 velocity=110 time=0
EXTRACT: note_on channel=9 note=70 velocity=75 time=0
EXTRACT: note_on channel=9 note=41 velocity=92 time=0
EXTRACT: note_on channel=9 note=47 velocity=92 time=0
EXTRACT: note_on channel=5 note=80 velocity=90 time=0
EXTRACT: note_on channel=10 note=80 velocity=90 time=0
EXTRACT: note_on channel=2 note=51 velocity=0 time=0.1339285
EXTRACT: note_on channel=6 note=51 velocity=0 time=0
EXTRACT: note_on channel=0 note=80 velocity=0 time=0.127232075
EXTRACT: note_on channel=1 note=80 velocity=0 time=0
EXTRACT: note_on channel=9 note=70 velocity=0 time=0
EXTRACT: note_on channel=9 note=41 velocity=0 time=0
EXTRACT: note_on channel=9 note=47 velocity=0 time=0
EXTRACT: note_on channel=5 note=80 velocity=0 time=0
EXTRACT: note_on channel=10 note=80 velocity=0 time=0
EXTRACT: note_on channel=0 note=80 velocity=110 time=0.006696425000000001
EXTRACT: note_on channel=1 note=73 velocity=110 time=0
EXTRACT: note_on channel=1 note=75 velocity=110 time=0
EXTRACT: note_on channel=1 note=80 velocity=110 time=0
EXTRACT: note_on channel=2 note=47 velocity=110 time=0
EXTRACT: note_on channel=9 note=70 velocity=75 time=0
EXTRACT: note_on channel=9 note=41 velocity=92 time=0
EXTRACT: note_on channel=9 note=47 velocity=92 time=0
EXTRACT: note_on channel=9 note=41 velocity=127 time=0
EXTRACT: note_on channel=9 note=47 velocity=127 time=0
EXTRACT: note_on channel=5 note=73 velocity=90 time=0
EXTRACT: note_on channel=5 note=75 velocity=90 time=0
EXTRACT: note_on channel=5 note=80 velocity=90 time=0
EXTRACT: note_on channel=10 note=73 velocity=90 time=0
EXTRACT: note_on channel=10 note=75 velocity=90 time=0
EXTRACT: note_on channel=10 note=80 velocity=90 time=0
EXTRACT: note_on channel=6 note=47 velocity=90 time=0
EXTRACT: note_on channel=9 note=70 velocity=0 time=0.261160575
EXTRACT: note_on channel=9 note=41 velocity=0 time=0
EXTRACT: note_on channel=9 note=47 velocity=0 time=0
EXTRACT: note_on channel=9 note=41 velocity=0 time=0
EXTRACT: note_on channel=9 note=47 velocity=0 time=0
EXTRACT: note_on channel=9 note=70 velocity=75 time=0.006696425000000001
EXTRACT: note_on channel=9 note=41 velocity=92 time=0
EXTRACT: note_on channel=9 note=47 velocity=92 time=0
EXTRACT: note_on channel=0 note=80 velocity=0 time=0.127232075
EXTRACT: note_on channel=1 note=73 velocity=0 time=0
EXTRACT: note_on channel=1 note=75 velocity=0 time=0
EXTRACT: note_on channel=1 note=80 velocity=0 time=0
EXTRACT: note_on channel=9 note=70 velocity=0 time=0
EXTRACT: note_on channel=9 note=41 velocity=0 time=0
EXTRACT: note_on channel=9 note=47 velocity=0 time=0
EXTRACT: note_on channel=5 note=73 velocity=0 time=0
EXTRACT: note_on channel=5 note=75 velocity=0 time=0
EXTRACT: note_on channel=5 note=80 velocity=0 time=0
EXTRACT: note_on channel=10 note=73 velocity=0 time=0
EXTRACT: note_on channel=10 note=75 velocity=0 time=0
EXTRACT: note_on channel=10 note=80 velocity=0 time=0
EXTRACT: note_on channel=0 note=78 velocity=110 time=0.006696425000000001
EXTRACT: note_on channel=1 note=78 velocity=110 time=0
EXTRACT: note_on channel=9 note=70 velocity=75 time=0
EXTRACT: note_on channel=9 note=41 velocity=92 time=0
EXTRACT: note_on channel=9 note=47 velocity=92 time=0
EXTRACT: note_on channel=5 note=78 velocity=90 time=0
EXTRACT: note_on channel=10 note=78 velocity=90 time=0
EXTRACT: note_on channel=9 note=41 velocity=127 time=0.1339285
EXTRACT: note_on channel=9 note=47 velocity=127 time=0
EXTRACT: note_on channel=9 note=70 velocity=0 time=0.127232075
EXTRACT: note_on channel=9 note=41 velocity=0 time=0
EXTRACT: note_on channel=9 note=47 velocity=0 time=0
EXTRACT: note_on channel=9 note=70 velocity=75 time=0.006696425000000001
EXTRACT: note_on channel=9 note=41 velocity=92 time=0
EXTRACT: note_on channel=9 note=47 velocity=92 time=0
EXTRACT: note_on channel=0 note=78 velocity=0 time=0.127232075
EXTRACT: note_on channel=1 note=78 velocity=0 time=0
EXTRACT: note_on channel=9 note=70 velocity=0 time=0
EXTRACT: note_on channel=9 note=41 velocity=0 time=0
EXTRACT: note_on channel=9 note=47 velocity=0 time=0
EXTRACT: note_on channel=9 note=41 velocity=0 time=0
EXTRACT: note_on channel=9 note=47 velocity=0 time=0
EXTRACT: note_on channel=5 note=78 velocity=0 time=0
EXTRACT: note_on channel=10 note=78 velocity=0 time=0
EXTRACT: note_on channel=0 note=77 velocity=110 time=0.006696425000000001
EXTRACT: note_on channel=1 note=77 velocity=110 time=0
EXTRACT: note_on channel=9 note=70 velocity=75 time=0
EXTRACT: note_on channel=9 note=41 velocity=92 time=0
EXTRACT: note_on channel=9 note=47 velocity=92 time=0
EXTRACT: note_on channel=5 note=77 velocity=90 time=0
EXTRACT: note_on channel=10 note=77 velocity=90 time=0
EXTRACT: note_on channel=2 note=47 velocity=0 time=0.1339285
EXTRACT: note_on channel=6 note=47 velocity=0 time=0
EXTRACT: note_on channel=0 note=77 velocity=0 time=0.127232075
EXTRACT: note_on channel=1 note=77 velocity=0 time=0
EXTRACT: note_on channel=9 note=70 velocity=0 time=0
EXTRACT: note_on channel=9 note=41 velocity=0 time=0
EXTRACT: note_on channel=9 note=47 velocity=0 time=0
EXTRACT: note_on channel=5 note=77 velocity=0 time=0
EXTRACT: note_on channel=10 note=77 velocity=0 time=0
EXTRACT: note_on channel=0 note=78 velocity=110 time=0.006696425000000001
EXTRACT: note_on channel=1 note=71 velocity=110 time=0
EXTRACT: note_on channel=1 note=75 velocity=110 time=0
EXTRACT: note_on channel=1 note=78 velocity=110 time=0
EXTRACT: note_on channel=2 note=44 velocity=110 time=0
EXTRACT: note_on channel=9 note=70 velocity=75 time=0
EXTRACT: note_on channel=9 note=41 velocity=92 time=0
EXTRACT: note_on channel=9 note=47 velocity=92 time=0
EXTRACT: note_on channel=9 note=41 velocity=127 time=0
EXTRACT: note_on channel=9 note=47 velocity=127 time=0
EXTRACT: note_on channel=5 note=71 velocity=90 time=0
EXTRACT: note_on channel=5 note=75 velocity=90 time=0
EXTRACT: note_on channel=5 note=78 velocity=90 time=0
EXTRACT: note_on channel=10 note=71 velocity=90 time=0
EXTRACT: note_on channel=10 note=75 velocity=90 time=0
EXTRACT: note_on channel=10 note=78 velocity=90 time=0
EXTRACT: note_on channel=6 note=44 velocity=90 time=0
EXTRACT: note_on channel=9 note=70 velocity=0 time=0.261160575
EXTRACT: note_on channel=9 note=41 velocity=0 time=0
EXTRACT: note_on channel=9 note=47 velocity=0 time=0
EXTRACT: note_on channel=9 note=41 velocity=0 time=0
EXTRACT: note_on channel=9 note=47 velocity=0 time=0
EXTRACT: note_on channel=9 note=70 velocity=75 time=0.006696425000000001
EXTRACT: note_on channel=9 note=41 velocity=92 time=0
EXTRACT: note_on channel=9 note=47 velocity=92 time=0
EXTRACT: note_on channel=0 note=78 velocity=0 time=0.127232075
EXTRACT: note_on channel=1 note=71 velocity=0 time=0
EXTRACT: note_on channel=1 note=75 velocity=0 time=0
EXTRACT: note_on channel=1 note=78 velocity=0 time=0
EXTRACT: note_on channel=9 note=70 velocity=0 time=0
EXTRACT: note_on channel=9 note=41 velocity=0 time=0
EXTRACT: note_on channel=9 note=47 velocity=0 time=0
EXTRACT: note_on channel=5 note=71 velocity=0 time=0
EXTRACT: note_on channel=5 note=75 velocity=0 time=0
EXTRACT: note_on channel=5 note=78 velocity=0 time=0
EXTRACT: note_on channel=10 note=71 velocity=0 time=0
EXTRACT: note_on channel=10 note=75 velocity=0 time=0
EXTRACT: note_on channel=10 note=78 velocity=0 time=0
EXTRACT: note_on channel=0 note=78 velocity=110 time=0.006696425000000001
EXTRACT: note_on channel=1 note=71 velocity=110 time=0
EXTRACT: note_on channel=1 note=75 velocity=110 time=0
EXTRACT: note_on channel=1 note=78 velocity=110 time=0
EXTRACT: note_on channel=9 note=70 velocity=75 time=0
EXTRACT: note_on channel=9 note=41 velocity=92 time=0
EXTRACT: note_on channel=9 note=47 velocity=92 time=0
EXTRACT: note_on channel=5 note=71 velocity=90 time=0
EXTRACT: note_on channel=5 note=75 velocity=90 time=0
EXTRACT: note_on channel=5 note=78 velocity=90 time=0
EXTRACT: note_on channel=10 note=71 velocity=90 time=0
EXTRACT: note_on channel=10 note=75 velocity=90 time=0
EXTRACT: note_on channel=10 note=78 velocity=90 time=0
EXTRACT: note_on channel=9 note=41 velocity=127 time=0.1339285
EXTRACT: note_on channel=9 note=47 velocity=127 time=0
EXTRACT: note_on channel=9 note=70 velocity=0 time=0.127232075
EXTRACT: note_on channel=9 note=41 velocity=0 time=0
EXTRACT: note_on channel=9 note=47 velocity=0 time=0
EXTRACT: note_on channel=9 note=70 velocity=75 time=0.006696425000000001
EXTRACT: note_on channel=9 note=41 velocity=92 time=0
EXTRACT: note_on channel=9 note=47 velocity=92 time=0
EXTRACT: note_on channel=0 note=78 velocity=0 time=0.127232075
EXTRACT: note_on channel=1 note=71 velocity=0 time=0
EXTRACT: note_on channel=1 note=75 velocity=0 time=0
EXTRACT: note_on channel=1 note=78 velocity=0 time=0
EXTRACT: note_on channel=9 note=70 velocity=0 time=0
EXTRACT: note_on channel=9 note=41 velocity=0 time=0
EXTRACT: note_on channel=9 note=47 velocity=0 time=0
EXTRACT: note_on channel=9 note=41 velocity=0 time=0
EXTRACT: note_on channel=9 note=47 velocity=0 time=0
EXTRACT: note_on channel=5 note=71 velocity=0 time=0
EXTRACT: note_on channel=5 note=75 velocity=0 time=0
EXTRACT: note_on channel=5 note=78 velocity=0 time=0
EXTRACT: note_on channel=10 note=71 velocity=0 time=0
EXTRACT: note_on channel=10 note=75 velocity=0 time=0
EXTRACT: note_on channel=10 note=78 velocity=0 time=0
EXTRACT: note_on channel=0 note=80 velocity=110 time=0.006696425000000001
EXTRACT: note_on channel=1 note=80 velocity=110 time=0
EXTRACT: note_on channel=9 note=70 velocity=75 time=0
EXTRACT: note_on channel=9 note=41 velocity=92 time=0
EXTRACT: note_on channel=9 note=47 velocity=92 time=0
EXTRACT: note_on channel=5 note=80 velocity=90 time=0
EXTRACT: note_on channel=10 note=80 velocity=90 time=0
EXTRACT: note_on channel=2 note=44 velocity=0 time=0.1339285
EXTRACT: note_on channel=6 note=44 velocity=0 time=0
EXTRACT: note_on channel=0 note=80 velocity=0 time=0.127232075
EXTRACT: note_on channel=1 note=80 velocity=0 time=0
EXTRACT: note_on channel=9 note=70 velocity=0 time=0
EXTRACT: note_on channel=9 note=41 velocity=0 time=0
EXTRACT: note_on channel=9 note=47 velocity=0 time=0
EXTRACT: note_on channel=5 note=80 velocity=0 time=0
EXTRACT: note_on channel=10 note=80 velocity=0 time=0
EXTRACT: note_on channel=0 note=73 velocity=110 time=0.006696425000000001
EXTRACT: note_on channel=0 note=80 velocity=110 time=0
EXTRACT: note_on channel=1 note=73 velocity=110 time=0
EXTRACT: note_on channel=1 note=78 velocity=110 time=0
EXTRACT: note_on channel=1 note=80 velocity=110 time=0
EXTRACT: note_on channel=2 note=49 velocity=110 time=0
EXTRACT: note_on channel=9 note=70 velocity=75 time=0
EXTRACT: note_on channel=9 note=41 velocity=92 time=0
EXTRACT: note_on channel=9 note=47 velocity=92 time=0
EXTRACT: note_on channel=9 note=41 velocity=127 time=0
EXTRACT: note_on channel=9 note=47 velocity=127 time=0
EXTRACT: note_on channel=5 note=73 velocity=90 time=0
EXTRACT: note_on channel=5 note=78 velocity=90 time=0
EXTRACT: note_on channel=5 note=80 velocity=90 time=0
EXTRACT: note_on channel=10 note=73 velocity=90 time=0
EXTRACT: note_on channel=10 note=78 velocity=90 time=0
EXTRACT: note_on channel=10 note=80 velocity=90 time=0
EXTRACT: note_on channel=6 note=49 velocity=90 time=0
EXTRACT: note_on channel=9 note=70 velocity=0 time=0.261160575
EXTRACT: note_on channel=9 note=41 velocity=0 time=0
EXTRACT: note_on channel=9 note=47 velocity=0 time=0
EXTRACT: note_on channel=9 note=41 velocity=0 time=0
EXTRACT: note_on channel=9 note=47 velocity=0 time=0
EXTRACT: note_on channel=9 note=70 velocity=75 time=0.006696425000000001
EXTRACT: note_on channel=9 note=41 velocity=92 time=0
EXTRACT: note_on channel=9 note=47 velocity=92 time=0
EXTRACT: note_on channel=0 note=73 velocity=0 time=0.127232075
EXTRACT: note_on channel=1 note=73 velocity=0 time=0
EXTRACT: note_on channel=1 note=78 velocity=0 time=0
EXTRACT: note_on channel=1 note=80 velocity=0 time=0
EXTRACT: note_on channel=9 note=70 velocity=0 time=0
EXTRACT: note_on channel=9 note=41 velocity=0 time=0
EXTRACT: note_on channel=9 note=47 velocity=0 time=0
EXTRACT: note_on channel=5 note=73 velocity=0 time=0
EXTRACT: note_on channel=5 note=78 velocity=0 time=0
EXTRACT: note_on channel=5 note=80 velocity=0 time=0
EXTRACT: note_on channel=10 note=73 velocity=0 time=0
EXTRACT: note_on channel=10 note=78 velocity=0 time=0
EXTRACT: note_on channel=10 note=80 velocity=0 time=0
EXTRACT: note_on channel=0 note=73 velocity=110 time=0.006696425000000001
EXTRACT: note_on channel=1 note=73 velocity=110 time=0
EXTRACT: note_on channel=9 note=70 velocity=75 time=0
EXTRACT: note_on channel=9 note=41 velocity=92 time=0
EXTRACT: note_on channel=9 note=47 velocity=92 time=0
EXTRACT: note_on channel=5 note=73 velocity=90 time=0
EXTRACT: note_on channel=10 note=73 velocity=90 time=0
EXTRACT: note_on channel=9 note=41 velocity=127 time=0.1339285
EXTRACT: note_on channel=9 note=47 velocity=127 time=0
EXTRACT: note_on channel=9 note=70 velocity=0 time=0.127232075
EXTRACT: note_on channel=9 note=41 velocity=0 time=0
EXTRACT: note_on channel=9 note=47 velocity=0 time=0
EXTRACT: note_on channel=9 note=70 velocity=75 time=0.006696425000000001
EXTRACT: note_on channel=9 note=41 velocity=92 time=0
EXTRACT: note_on channel=9 note=47 velocity=92 time=0
EXTRACT: note_on channel=0 note=73 velocity=0 time=0.127232075
EXTRACT: note_on channel=1 note=73 velocity=0 time=0
EXTRACT: note_on channel=9 note=70 velocity=0 time=0
EXTRACT: note_on channel=9 note=41 velocity=0 time=0
EXTRACT: note_on channel=9 note=47 velocity=0 time=0
EXTRACT: note_on channel=9 note=41 velocity=0 time=0
EXTRACT: note_on channel=9 note=47 velocity=0 time=0
EXTRACT: note_on channel=5 note=73 velocity=0 time=0
EXTRACT: note_on channel=10 note=73 velocity=0 time=0
EXTRACT: note_on channel=0 note=77 velocity=110 time=0.006696425000000001
EXTRACT: note_on channel=1 note=77 velocity=110 time=0
EXTRACT: note_on channel=9 note=70 velocity=75 time=0
EXTRACT: note_on channel=9 note=41 velocity=92 time=0
EXTRACT: note_on channel=9 note=47 velocity=92 time=0
EXTRACT: note_on channel=5 note=77 velocity=90 time=0
EXTRACT: note_on channel=10 note=77 velocity=90 time=0
EXTRACT: note_on channel=0 note=80 velocity=0 time=0.1339285
EXTRACT: note_on channel=2 note=49 velocity=0 time=0
EXTRACT: note_on channel=6 note=49 velocity=0 time=0
EXTRACT: note_on channel=0 note=77 velocity=0 time=0.127232075
EXTRACT: note_on channel=1 note=77 velocity=0 time=0
EXTRACT: note_on channel=9 note=70 velocity=0 time=0
EXTRACT: note_on channel=9 note=41 velocity=0 time=0
EXTRACT: note_on channel=9 note=47 velocity=0 time=0
EXTRACT: note_on channel=5 note=77 velocity=0 time=0
EXTRACT: note_on channel=10 note=77 velocity=0 time=0
EXTRACT: note_on channel=0 note=78 velocity=75 time=0.006696425000000001
EXTRACT: note_on channel=1 note=70 velocity=92 time=0
EXTRACT: note_on channel=1 note=73 velocity=92 time=0
EXTRACT: note_on channel=1 note=78 velocity=92 time=0
EXTRACT: note_on channel=2 note=42 velocity=92 time=0
EXTRACT: note_on channel=9 note=70 velocity=92 time=0
EXTRACT: note_on channel=9 note=41 velocity=92 time=0
EXTRACT: note_on channel=9 note=47 velocity=92 time=0
EXTRACT: note_on channel=9 note=41 velocity=127 time=0
EXTRACT: note_on channel=9 note=47 velocity=127 time=0
EXTRACT: note_on channel=5 note=70 velocity=72 time=0
EXTRACT: note_on channel=5 note=73 velocity=72 time=0
EXTRACT: note_on channel=5 note=78 velocity=72 time=0
EXTRACT: note_on channel=10 note=70 velocity=72 time=0
EXTRACT: note_on channel=10 note=73 velocity=72 time=0
EXTRACT: note_on channel=10 note=78 velocity=72 time=0
EXTRACT: note_on channel=6 note=42 velocity=72 time=0
EXTRACT: note_on channel=9 note=70 velocity=0 time=0.261160575
EXTRACT: note_on channel=9 note=41 velocity=0 time=0
EXTRACT: note_on channel=9 note=47 velocity=0 time=0
EXTRACT: note_on channel=9 note=41 velocity=0 time=0
EXTRACT: note_on channel=9 note=47 velocity=0 time=0
EXTRACT: note_on channel=9 note=70 velocity=92 time=0.006696425000000001
EXTRACT: note_on channel=9 note=41 velocity=92 time=0
EXTRACT: note_on channel=9 note=47 velocity=92 time=0
EXTRACT: note_on channel=9 note=70 velocity=0 time=0.127232075
EXTRACT: note_on channel=9 note=41 velocity=0 time=0
EXTRACT: note_on channel=9 note=47 velocity=0 time=0
EXTRACT: note_on channel=9 note=70 velocity=92 time=0.006696425000000001
EXTRACT: note_on channel=9 note=41 velocity=92 time=0
EXTRACT: note_on channel=9 note=47 velocity=92 time=0
EXTRACT: note_on channel=9 note=41 velocity=127 time=0.1339285
EXTRACT: note_on channel=9 note=47 velocity=127 time=0
EXTRACT: note_on channel=9 note=70 velocity=0 time=0.127232075
EXTRACT: note_on channel=9 note=41 velocity=0 time=0
EXTRACT: note_on channel=9 note=47 velocity=0 time=0
EXTRACT: note_on channel=9 note=70 velocity=92 time=0.006696425000000001
EXTRACT: note_on channel=9 note=41 velocity=92 time=0
EXTRACT: note_on channel=9 note=47 velocity=92 time=0
EXTRACT: note_on channel=9 note=70 velocity=0 time=0.127232075
EXTRACT: note_on channel=9 note=41 velocity=0 time=0
EXTRACT: note_on channel=9 note=47 velocity=0 time=0
EXTRACT: note_on channel=9 note=41 velocity=0 time=0
EXTRACT: note_on channel=9 note=47 velocity=0 time=0
EXTRACT: note_on channel=9 note=70 velocity=92 time=0.006696425000000001
EXTRACT: note_on channel=9 note=41 velocity=92 time=0
EXTRACT: note_on channel=9 note=47 velocity=92 time=0
EXTRACT: note_on channel=0 note=78 velocity=0 time=0.1339285
EXTRACT: note_on channel=1 note=70 velocity=0 time=0
EXTRACT: note_on channel=1 note=73 velocity=0 time=0
EXTRACT: note_on channel=1 note=78 velocity=0 time=0
EXTRACT: note_on channel=2 note=42 velocity=0 time=0
EXTRACT: note_on channel=5 note=70 velocity=0 time=0
EXTRACT: note_on channel=5 note=73 velocity=0 time=0
EXTRACT: note_on channel=5 note=78 velocity=0 time=0
EXTRACT: note_on channel=10 note=70 velocity=0 time=0
EXTRACT: note_on channel=10 note=73 velocity=0 time=0
EXTRACT: note_on channel=10 note=78 velocity=0 time=0
EXTRACT: note_on channel=6 note=42 velocity=0 time=0
EXTRACT: note_on channel=9 note=70 velocity=0 time=0.127232075
EXTRACT: note_on channel=9 note=41 velocity=0 time=0
EXTRACT: note_on channel=9 note=47 velocity=0 time=0
EXTRACT: note_on channel=1 note=71 velocity=92 time=0.006696425000000001
EXTRACT: note_on channel=1 note=75 velocity=92 time=0
EXTRACT: note_on channel=1 note=78 velocity=92 time=0
EXTRACT: note_on channel=2 note=47 velocity=92 time=0
EXTRACT: note_on channel=3 note=71 velocity=92 time=0
EXTRACT: note_on channel=9 note=70 velocity=92 time=0
EXTRACT: note_on channel=9 note=41 velocity=92 time=0
EXTRACT: note_on channel=9 note=47 velocity=92 time=0
EXTRACT: note_on channel=9 note=41 velocity=127 time=0
EXTRACT: note_on channel=9 note=47 velocity=127 time=0
EXTRACT: note_on channel=5 note=71 velocity=72 time=0
EXTRACT: note_on channel=5 note=75 velocity=72 time=0
EXTRACT: note_on channel=5 note=78 velocity=72 time=0
EXTRACT: note_on channel=10 note=71 velocity=72 time=0
EXTRACT: note_on channel=10 note=75 velocity=72 time=0
EXTRACT: note_on channel=10 note=78 velocity=72 time=0
EXTRACT: note_on channel=6 note=47 velocity=72 time=0
EXTRACT: note_on channel=9 note=70 velocity=0 time=0.261160575
EXTRACT: note_on channel=9 note=41 velocity=0 time=0
EXTRACT: note_on channel=9 note=47 velocity=0 time=0
EXTRACT: note_on channel=9 note=41 velocity=0 time=0
EXTRACT: note_on channel=9 note=47 velocity=0 time=0
EXTRACT: note_on channel=9 note=70 velocity=92 time=0.006696425000000001
EXTRACT: note_on channel=9 note=41 velocity=92 time=0
EXTRACT: note_on channel=9 note=47 velocity=92 time=0
EXTRACT: note_on channel=9 note=70 velocity=0 time=0.127232075
EXTRACT: note_on channel=9 note=41 velocity=0 time=0
EXTRACT: note_on channel=9 note=47 velocity=0 time=0
EXTRACT: note_on channel=9 note=70 velocity=92 time=0.006696425000000001
EXTRACT: note_on channel=9 note=41 velocity=92 time=0
EXTRACT: note_on channel=9 note=47 velocity=92 time=0
EXTRACT: note_on channel=2 note=47 velocity=0 time=0.04464283333333333
EXTRACT: note_on channel=6 note=47 velocity=0 time=0
EXTRACT: note_on channel=2 note=46 velocity=92 time=0.08928566666666667
EXTRACT: note_on channel=9 note=41 velocity=127 time=0
EXTRACT: note_on channel=9 note=47 velocity=127 time=0
EXTRACT: note_on channel=6 note=46 velocity=72 time=0
EXTRACT: note_on channel=9 note=70 velocity=0 time=0.127232075
EXTRACT: note_on channel=9 note=41 velocity=0 time=0
EXTRACT: note_on channel=9 note=47 velocity=0 time=0
EXTRACT: note_on channel=9 note=70 velocity=92 time=0.006696425000000001
EXTRACT: note_on channel=9 note=41 velocity=92 time=0
EXTRACT: note_on channel=9 note=47 velocity=92 time=0
EXTRACT: note_on channel=9 note=70 velocity=0 time=0.127232075
EXTRACT: note_on channel=9 note=41 velocity=0 time=0
EXTRACT: note_on channel=9 note=47 velocity=0 time=0
EXTRACT: note_on channel=9 note=41 velocity=0 time=0
EXTRACT: note_on channel=9 note=47 velocity=0 time=0
EXTRACT: note_on channel=9 note=70 velocity=92 time=0.006696425000000001
EXTRACT: note_on channel=9 note=41 velocity=92 time=0
EXTRACT: note_on channel=9 note=47 velocity=92 time=0
EXTRACT: note_on channel=1 note=71 velocity=0 time=0.1339285
EXTRACT: note_on channel=1 note=75 velocity=0 time=0
EXTRACT: note_on channel=1 note=78 velocity=0 time=0
EXTRACT: note_on channel=3 note=71 velocity=0 time=0
EXTRACT: note_on channel=5 note=71 velocity=0 time=0
EXTRACT: note_on channel=5 note=75 velocity=0 time=0
EXTRACT: note_on channel=5 note=78 velocity=0 time=0
EXTRACT: note_on channel=10 note=71 velocity=0 time=0
EXTRACT: note_on channel=10 note=75 velocity=0 time=0
EXTRACT: note_on channel=10 note=78 velocity=0 time=0
EXTRACT: note_on channel=2 note=46 velocity=0 time=0.04464283333333333
EXTRACT: note_on channel=6 note=46 velocity=0 time=0
EXTRACT: note_on channel=9 note=70 velocity=0 time=0.08258924166666667
EXTRACT: note_on channel=9 note=41 velocity=0 time=0
EXTRACT: note_on channel=9 note=47 velocity=0 time=0
EXTRACT: note_on channel=1 note=70 velocity=92 time=0.006696425000000001
EXTRACT: note_on channel=1 note=75 velocity=92 time=0
EXTRACT: note_on channel=1 note=78 velocity=92 time=0
EXTRACT: note_on channel=2 note=44 velocity=92 time=0
EXTRACT: note_on channel=3 note=70 velocity=92 time=0
EXTRACT: note_on channel=9 note=70 velocity=92 time=0
EXTRACT: note_on channel=9 note=41 velocity=92 time=0
EXTRACT: note_on channel=9 note=47 velocity=92 time=0
EXTRACT: note_on channel=9 note=41 velocity=127 time=0
EXTRACT: note_on channel=9 note=47 velocity=127 time=0
EXTRACT: note_on channel=5 note=70 velocity=72 time=0
EXTRACT: note_on channel=5 note=75 velocity=72 time=0
EXTRACT: note_on channel=5 note=78 velocity=72 time=0
EXTRACT: note_on channel=10 note=70 velocity=72 time=0
EXTRACT: note_on channel=10 note=75 velocity=72 time=0
EXTRACT: note_on channel=10 note=78 velocity=72 time=0
EXTRACT: note_on channel=6 note=44 velocity=72 time=0
EXTRACT: note_on channel=1 note=70 velocity=0 time=0.261160575
EXTRACT: note_on channel=1 note=75 velocity=0 time=0
EXTRACT: note_on channel=1 note=78 velocity=0 time=0
EXTRACT: note_on channel=3 note=70 velocity=0 time=0
EXTRACT: note_on channel=9 note=70 velocity=0 time=0
EXTRACT: note_on channel=9 note=41 velocity=0 time=0
EXTRACT: note_on channel=9 note=47 velocity=0 time=0
EXTRACT: note_on channel=9 note=41 velocity=0 time=0
EXTRACT: note_on channel=9 note=47 velocity=0 time=0
EXTRACT: note_on channel=5 note=70 velocity=0 time=0
EXTRACT: note_on channel=5 note=75 velocity=0 time=0
EXTRACT: note_on channel=5 note=78 velocity=0 time=0
EXTRACT: note_on channel=10 note=70 velocity=0 time=0
EXTRACT: note_on channel=10 note=75 velocity=0 time=0
EXTRACT: note_on channel=10 note=78 velocity=0 time=0
EXTRACT: note_on channel=1 note=68 velocity=92 time=0.006696425000000001
EXTRACT: note_on channel=1 note=73 velocity=92 time=0
EXTRACT: note_on channel=1 note=78 velocity=92 time=0
EXTRACT: note_on channel=3 note=68 velocity=92 time=0
EXTRACT: note_on channel=9 note=70 velocity=92 time=0
EXTRACT: note_on channel=9 note=41 velocity=92 time=0
EXTRACT: note_on channel=9 note=47 velocity=92 time=0
EXTRACT: note_on channel=5 note=68 velocity=72 time=0
EXTRACT: note_on channel=5 note=73 velocity=72 time=0
EXTRACT: note_on channel=5 note=78 velocity=72 time=0
EXTRACT: note_on channel=10 note=68 velocity=72 time=0
EXTRACT: note_on channel=10 note=73 velocity=72 time=0
EXTRACT: note_on channel=10 note=78 velocity=72 time=0
EXTRACT: note_on channel=9 note=70 velocity=0 time=0.127232075
EXTRACT: note_on channel=9 note=41 velocity=0 time=0
EXTRACT: note_on channel=9 note=47 velocity=0 time=0
EXTRACT: note_on channel=9 note=70 velocity=92 time=0.006696425000000001
EXTRACT: note_on channel=9 note=41 velocity=92 time=0
EXTRACT: note_on channel=9 note=47 velocity=92 time=0
EXTRACT: note_on channel=1 note=68 velocity=0 time=0.127232075
EXTRACT: note_on channel=1 note=73 velocity=0 time=0
EXTRACT: note_on channel=1 note=78 velocity=0 time=0
EXTRACT: note_on channel=3 note=68 velocity=0 time=0
EXTRACT: note_on channel=5 note=68 velocity=0 time=0
EXTRACT: note_on channel=5 note=73 velocity=0 time=0
EXTRACT: note_on channel=5 note=78 velocity=0 time=0
EXTRACT: note_on channel=10 note=68 velocity=0 time=0
EXTRACT: note_on channel=10 note=73 velocity=0 time=0
EXTRACT: note_on channel=10 note=78 velocity=0 time=0
EXTRACT: note_on channel=1 note=68 velocity=92 time=0.006696425000000001
EXTRACT: note_on channel=1 note=73 velocity=92 time=0
EXTRACT: note_on channel=1 note=78 velocity=92 time=0
EXTRACT: note_on channel=3 note=68 velocity=92 time=0
EXTRACT: note_on channel=9 note=41 velocity=127 time=0
EXTRACT: note_on channel=9 note=47 velocity=127 time=0
EXTRACT: note_on channel=5 note=68 velocity=72 time=0
EXTRACT: note_on channel=5 note=73 velocity=72 time=0
EXTRACT: note_on channel=5 note=78 velocity=72 time=0
EXTRACT: note_on channel=10 note=68 velocity=72 time=0
EXTRACT: note_on channel=10 note=73 velocity=72 time=0
EXTRACT: note_on channel=10 note=78 velocity=72 time=0
EXTRACT: note_on channel=9 note=70 velocity=0 time=0.127232075
EXTRACT: note_on channel=9 note=41 velocity=0 time=0
EXTRACT: note_on channel=9 note=47 velocity=0 time=0
EXTRACT: note_on channel=9 note=70 velocity=92 time=0.006696425000000001
EXTRACT: note_on channel=9 note=41 velocity=92 time=0
EXTRACT: note_on channel=9 note=47 velocity=92 time=0
EXTRACT: note_on channel=9 note=70 velocity=0 time=0.127232075
EXTRACT: note_on channel=9 note=41 velocity=0 time=0
EXTRACT: note_on channel=9 note=47 velocity=0 time=0
EXTRACT: note_on channel=9 note=41 velocity=0 time=0
EXTRACT: note_on channel=9 note=47 velocity=0 time=0
EXTRACT: note_on channel=9 note=70 velocity=92 time=0.006696425000000001
EXTRACT: note_on channel=9 note=41 velocity=92 time=0
EXTRACT: note_on channel=9 note=47 velocity=92 time=0
EXTRACT: note_on channel=2 note=44 velocity=0 time=0.1339285
EXTRACT: note_on channel=6 note=44 velocity=0 time=0
EXTRACT: note_on channel=1 note=68 velocity=0 time=0.04464283333333333
EXTRACT: note_on channel=1 note=73 velocity=0 time=0
EXTRACT: note_on channel=1 note=78 velocity=0 time=0
EXTRACT: note_on channel=3 note=68 velocity=0 time=0
EXTRACT: note_on channel=5 note=68 velocity=0 time=0
EXTRACT: note_on channel=5 note=73 velocity=0 time=0
EXTRACT: note_on channel=5 note=78 velocity=0 time=0
EXTRACT: note_on channel=10 note=68 velocity=0 time=0
EXTRACT: note_on channel=10 note=73 velocity=0 time=0
EXTRACT: note_on channel=10 note=78 velocity=0 time=0
EXTRACT: note_on channel=9 note=70 velocity=0 time=0.08258924166666667
EXTRACT: note_on channel=9 note=41 velocity=0 time=0
EXTRACT: note_on channel=9 note=47 velocity=0 time=0
EXTRACT: note_on channel=0 note=78 velocity=75 time=0.006696425000000001
EXTRACT: note_on channel=1 note=68 velocity=92 time=0
EXTRACT: note_on channel=1 note=73 velocity=92 time=0
EXTRACT: note_on channel=1 note=78 velocity=92 time=0
EXTRACT: note_on channel=2 note=49 velocity=92 time=0
EXTRACT: note_on channel=9 note=70 velocity=92 time=0
EXTRACT: note_on channel=9 note=41 velocity=92 time=0
EXTRACT: note_on channel=9 note=47 velocity=92 time=0
EXTRACT: note_on channel=9 note=41 velocity=127 time=0
EXTRACT: note_on channel=9 note=47 velocity=127 time=0
EXTRACT: note_on channel=5 note=68 velocity=72 time=0
EXTRACT: note_on channel=5 note=73 velocity=72 time=0
EXTRACT: note_on channel=5 note=78 velocity=72 time=0
EXTRACT: note_on channel=10 note=68 velocity=72 time=0
EXTRACT: note_on channel=10 note=73 velocity=72 time=0
EXTRACT: note_on channel=10 note=78 velocity=72 time=0
EXTRACT: note_on channel=6 note=49 velocity=72 time=0
EXTRACT: note_on channel=9 note=70 velocity=0 time=0.261160575
EXTRACT: note_on channel=9 note=41 velocity=0 time=0
EXTRACT: note_on channel=9 note=47 velocity=0 time=0
EXTRACT: note_on channel=9 note=41 velocity=0 time=0
EXTRACT: note_on channel=9 note=47 velocity=0 time=0
EXTRACT: note_on channel=9 note=70 velocity=92 time=0.006696425000000001
EXTRACT: note_on channel=9 note=41 velocity=92 time=0
EXTRACT: note_on channel=9 note=47 velocity=92 time=0
EXTRACT: note_on channel=0 note=78 velocity=0 time=0.127232075
EXTRACT: note_on channel=1 note=68 velocity=0 time=0
EXTRACT: note_on channel=1 note=73 velocity=0 time=0
EXTRACT: note_on channel=1 note=78 velocity=0 time=0
EXTRACT: note_on channel=9 note=70 velocity=0 time=0
EXTRACT: note_on channel=9 note=41 velocity=0 time=0
EXTRACT: note_on channel=9 note=47 velocity=0 time=0
EXTRACT: note_on channel=5 note=68 velocity=0 time=0
EXTRACT: note_on channel=5 note=73 velocity=0 time=0
EXTRACT: note_on channel=5 note=78 velocity=0 time=0
EXTRACT: note_on channel=10 note=68 velocity=0 time=0
EXTRACT: note_on channel=10 note=73 velocity=0 time=0
EXTRACT: note_on channel=10 note=78 velocity=0 time=0
EXTRACT: note_on channel=0 note=78 velocity=75 time=0.006696425000000001
EXTRACT: note_on channel=1 note=68 velocity=92 time=0
EXTRACT: note_on channel=1 note=73 velocity=92 time=0
EXTRACT: note_on channel=1 note=78 velocity=92 time=0
EXTRACT: note_on channel=9 note=70 velocity=92 time=0
EXTRACT: note_on channel=9 note=41 velocity=92 time=0
EXTRACT: note_on channel=9 note=47 velocity=92 time=0
EXTRACT: note_on channel=5 note=68 velocity=72 time=0
EXTRACT: note_on channel=5 note=73 velocity=72 time=0
EXTRACT: note_on channel=5 note=78 velocity=72 time=0
EXTRACT: note_on channel=10 note=68 velocity=72 time=0
EXTRACT: note_on channel=10 note=73 velocity=72 time=0
EXTRACT: note_on channel=10 note=78 velocity=72 time=0
EXTRACT: note_on channel=9 note=41 velocity=127 time=0.1339285
EXTRACT: note_on channel=9 note=47 velocity=127 time=0
EXTRACT: note_on channel=9 note=70 velocity=0 time=0.127232075
EXTRACT: note_on channel=9 note=41 velocity=0 time=0
EXTRACT: note_on channel=9 note=47 velocity=0 time=0
EXTRACT: note_on channel=9 note=70 velocity=92 time=0.006696425000000001
EXTRACT: note_on channel=9 note=41 velocity=92 time=0
EXTRACT: note_on channel=9 note=47 velocity=92 time=0
EXTRACT: note_on channel=0 note=78 velocity=0 time=0.127232075
EXTRACT: note_on channel=1 note=68 velocity=0 time=0
EXTRACT: note_on channel=1 note=73 velocity=0 time=0
EXTRACT: note_on channel=1 note=78 velocity=0 time=0
EXTRACT: note_on channel=9 note=70 velocity=0 time=0
EXTRACT: note_on channel=9 note=41 velocity=0 time=0
EXTRACT: note_on channel=9 note=47 velocity=0 time=0
EXTRACT: note_on channel=9 note=41 velocity=0 time=0
EXTRACT: note_on channel=9 note=47 velocity=0 time=0
EXTRACT: note_on channel=5 note=68 velocity=0 time=0
EXTRACT: note_on channel=5 note=73 velocity=0 time=0
EXTRACT: note_on channel=5 note=78 velocity=0 time=0
EXTRACT: note_on channel=10 note=68 velocity=0 time=0
EXTRACT: note_on channel=10 note=73 velocity=0 time=0
EXTRACT: note_on channel=10 note=78 velocity=0 time=0
EXTRACT: note_on channel=0 note=73 velocity=75 time=0.006696425000000001
EXTRACT: note_on channel=1 note=73 velocity=92 time=0
EXTRACT: note_on channel=9 note=70 velocity=92 time=0
EXTRACT: note_on channel=9 note=41 velocity=92 time=0
EXTRACT: note_on channel=9 note=47 velocity=92 time=0
EXTRACT: note_on channel=5 note=73 velocity=72 time=0
EXTRACT: note_on channel=10 note=73 velocity=72 time=0
EXTRACT: note_on channel=2 note=49 velocity=0 time=0.1339285
EXTRACT: note_on channel=6 note=49 velocity=0 time=0
EXTRACT: note_on channel=0 note=73 velocity=0 time=0.127232075
EXTRACT: note_on channel=1 note=73 velocity=0 time=0
EXTRACT: note_on channel=9 note=70 velocity=0 time=0
EXTRACT: note_on channel=9 note=41 velocity=0 time=0
EXTRACT: note_on channel=9 note=47 velocity=0 time=0
EXTRACT: note_on channel=5 note=73 velocity=0 time=0
EXTRACT: note_on channel=10 note=73 velocity=0 time=0
EXTRACT: note_on channel=0 note=75 velocity=75 time=0.006696425000000001
EXTRACT: note_on channel=1 note=66 velocity=92 time=0
EXTRACT: note_on channel=1 note=70 velocity=92 time=0
EXTRACT: note_on channel=1 note=75 velocity=92 time=0
EXTRACT: note_on channel=2 note=42 velocity=92 time=0
EXTRACT: note_on channel=9 note=70 velocity=92 time=0
EXTRACT: note_on channel=9 note=41 velocity=92 time=0
EXTRACT: note_on channel=9 note=47 velocity=92 time=0
EXTRACT: note_on channel=9 note=41 velocity=127 time=0
EXTRACT: note_on channel=9 note=47 velocity=127 time=0
EXTRACT: note_on channel=5 note=66 velocity=72 time=0
EXTRACT: note_on channel=5 note=70 velocity=72 time=0
EXTRACT: note_on channel=5 note=75 velocity=72 time=0
EXTRACT: note_on channel=10 note=66 velocity=72 time=0
EXTRACT: note_on channel=10 note=70 velocity=72 time=0
EXTRACT: note_on channel=10 note=75 velocity=72 time=0
EXTRACT: note_on channel=6 note=42 velocity=72 time=0
EXTRACT: note_on channel=9 note=70 velocity=0 time=0.261160575
EXTRACT: note_on channel=9 note=41 velocity=0 time=0
EXTRACT: note_on channel=9 note=47 velocity=0 time=0
EXTRACT: note_on channel=9 note=41 velocity=0 time=0
EXTRACT: note_on channel=9 note=47 velocity=0 time=0
EXTRACT: note_on channel=9 note=70 velocity=92 time=0.006696425000000001
EXTRACT: note_on channel=9 note=41 velocity=92 time=0
EXTRACT: note_on channel=9 note=47 velocity=92 time=0
EXTRACT: note_on channel=9 note=70 velocity=0 time=0.127232075
EXTRACT: note_on channel=9 note=41 velocity=0 time=0
EXTRACT: note_on channel=9 note=47 velocity=0 time=0
EXTRACT: note_on channel=9 note=70 velocity=92 time=0.006696425000000001
EXTRACT: note_on channel=9 note=41 velocity=92 time=0
EXTRACT: note_on channel=9 note=47 velocity=92 time=0
EXTRACT: note_on channel=1 note=66 velocity=0 time=0.04464283333333333
EXTRACT: note_on channel=1 note=70 velocity=0 time=0
EXTRACT: note_on channel=1 note=75 velocity=0 time=0
EXTRACT: note_on channel=5 note=66 velocity=0 time=0
EXTRACT: note_on channel=5 note=70 velocity=0 time=0
EXTRACT: note_on channel=5 note=75 velocity=0 time=0
EXTRACT: note_on channel=10 note=66 velocity=0 time=0
EXTRACT: note_on channel=10 note=70 velocity=0 time=0
EXTRACT: note_on channel=10 note=75 velocity=0 time=0
EXTRACT: note_on channel=0 note=75 velocity=0 time=0.08928566666666667
EXTRACT: note_on channel=0 note=73 velocity=75 time=0
EXTRACT: note_on channel=1 note=73 velocity=92 time=0
EXTRACT: note_on channel=9 note=41 velocity=127 time=0
EXTRACT: note_on channel=9 note=47 velocity=127 time=0
EXTRACT: note_on channel=5 note=73 velocity=72 time=0
EXTRACT: note_on channel=10 note=73 velocity=72 time=0
EXTRACT: note_on channel=9 note=70 velocity=0 time=0.127232075
EXTRACT: note_on channel=9 note=41 velocity=0 time=0
EXTRACT: note_on channel=9 note=47 velocity=0 time=0
EXTRACT: note_on channel=9 note=70 velocity=92 time=0.006696425000000001
EXTRACT: note_on channel=9 note=41 velocity=92 time=0
EXTRACT: note_on channel=9 note=47 velocity=92 time=0
EXTRACT: note_on channel=9 note=70 velocity=0 time=0.127232075
EXTRACT: note_on channel=9 note=41 velocity=0 time=0
EXTRACT: note_on channel=9 note=47 velocity=0 time=0
EXTRACT: note_on channel=9 note=41 velocity=0 time=0
EXTRACT: note_on channel=9 note=47 velocity=0 time=0
EXTRACT: note_on channel=9 note=70 velocity=92 time=0.006696425000000001
EXTRACT: note_on channel=9 note=41 velocity=92 time=0
EXTRACT: note_on channel=9 note=47 velocity=92 time=0
EXTRACT: note_on channel=2 note=42 velocity=0 time=0.1339285
EXTRACT: note_on channel=6 note=42 velocity=0 time=0
EXTRACT: note_on channel=0 note=73 velocity=0 time=0.04464283333333333
EXTRACT: note_on channel=1 note=73 velocity=0 time=0
EXTRACT: note_on channel=5 note=73 velocity=0 time=0
EXTRACT: note_on channel=10 note=73 velocity=0 time=0
EXTRACT: note_on channel=9 note=70 velocity=0 time=0.08258924166666667
EXTRACT: note_on channel=9 note=41 velocity=0 time=0
EXTRACT: note_on channel=9 note=47 velocity=0 time=0
EXTRACT: note_on channel=1 note=71 velocity=92 time=0.006696425000000001
EXTRACT: note_on channel=1 note=75 velocity=92 time=0
EXTRACT: note_on channel=1 note=78 velocity=92 time=0
EXTRACT: note_on channel=2 note=47 velocity=92 time=0
EXTRACT: note_on channel=3 note=71 velocity=92 time=0
EXTRACT: note_on channel=9 note=70 velocity=92 time=0
EXTRACT: note_on channel=9 note=41 velocity=92 time=0
EXTRACT: note_on channel=9 note=47 velocity=92 time=0
EXTRACT: note_on channel=9 note=41 velocity=127 time=0
EXTRACT: note_on channel=9 note=47 velocity=127 time=0
EXTRACT: note_on channel=5 note=71 velocity=72 time=0
EXTRACT: note_on channel=5 note=75 velocity=72 time=0
EXTRACT: note_on channel=5 note=78 velocity=72 time=0
EXTRACT: note_on channel=10 note=71 velocity=72 time=0
EXTRACT: note_on channel=10 note=75 velocity=72 time=0
EXTRACT: note_on channel=10 note=78 velocity=72 time=0
EXTRACT: note_on channel=6 note=47 velocity=72 time=0
EXTRACT: note_on channel=9 note=70 velocity=0 time=0.261160575
EXTRACT: note_on channel=9 note=41 velocity=0 time=0
EXTRACT: note_on channel=9 note=47 velocity=0 time=0
EXTRACT: note_on channel=9 note=41 velocity=0 time=0
EXTRACT: note_on channel=9 note=47 velocity=0 time=0
EXTRACT: note_on channel=9 note=70 velocity=92 time=0.006696425000000001
EXTRACT: note_on channel=9 note=41 velocity=92 time=0
EXTRACT: note_on channel=9 note=47 velocity=92 time=0
EXTRACT: note_on channel=9 note=70 velocity=0 time=0.127232075
EXTRACT: note_on channel=9 note=41 velocity=0 time=0
EXTRACT: note_on channel=9 note=47 velocity=0 time=0
EXTRACT: note_on channel=9 note=70 velocity=92 time=0.006696425000000001
EXTRACT: note_on channel=9 note=41 velocity=92 time=0
EXTRACT: note_on channel=9 note=47 velocity=92 time=0
EXTRACT: note_on channel=1 note=71 velocity=0 time=0.04464283333333333
EXTRACT: note_on channel=2 note=47 velocity=0 time=0
EXTRACT: note_on channel=5 note=71 velocity=0 time=0
EXTRACT: note_on channel=10 note=71 velocity=0 time=0
EXTRACT: note_on channel=6 note=47 velocity=0 time=0
EXTRACT: note_on channel=1 note=70 velocity=92 time=0.08928566666666667
EXTRACT: note_on channel=2 note=46 velocity=92 time=0
EXTRACT: note_on channel=3 note=71 velocity=0 time=0
EXTRACT: note_on channel=3 note=70 velocity=92 time=0
EXTRACT: note_on channel=9 note=41 velocity=127 time=0
EXTRACT: note_on channel=9 note=47 velocity=127 time=0
EXTRACT: note_on channel=5 note=70 velocity=72 time=0
EXTRACT: note_on channel=10 note=70 velocity=72 time=0
EXTRACT: note_on channel=6 note=46 velocity=72 time=0
EXTRACT: note_on channel=9 note=70 velocity=0 time=0.127232075
EXTRACT: note_on channel=9 note=41 velocity=0 time=0
EXTRACT: note_on channel=9 note=47 velocity=0 time=0
EXTRACT: note_on channel=9 note=70 velocity=92 time=0.006696425000000001
EXTRACT: note_on channel=9 note=41 velocity=92 time=0
EXTRACT: note_on channel=9 note=47 velocity=92 time=0
EXTRACT: note_on channel=9 note=70 velocity=0 time=0.127232075
EXTRACT: note_on channel=9 note=41 velocity=0 time=0
EXTRACT: note_on channel=9 note=47 velocity=0 time=0
EXTRACT: note_on channel=9 note=41 velocity=0 time=0
EXTRACT: note_on channel=9 note=47 velocity=0 time=0
EXTRACT: note_on channel=9 note=70 velocity=92 time=0.006696425000000001
EXTRACT: note_on channel=9 note=41 velocity=92 time=0
EXTRACT: note_on channel=9 note=47 velocity=92 time=0
EXTRACT: note_on channel=1 note=75 velocity=0 time=0.1339285
EXTRACT: note_on channel=1 note=78 velocity=0 time=0
EXTRACT: note_on channel=5 note=75 velocity=0 time=0
EXTRACT: note_on channel=5 note=78 velocity=0 time=0
EXTRACT: note_on channel=10 note=75 velocity=0 time=0
EXTRACT: note_on channel=10 note=78 velocity=0 time=0
EXTRACT: note_on channel=1 note=70 velocity=0 time=0.04464283333333333
EXTRACT: note_on channel=2 note=46 velocity=0 time=0
EXTRACT: note_on channel=3 note=70 velocity=0 time=0
EXTRACT: note_on channel=5 note=70 velocity=0 time=0
EXTRACT: note_on channel=10 note=70 velocity=0 time=0
EXTRACT: note_on channel=6 note=46 velocity=0 time=0
EXTRACT: note_on channel=9 note=70 velocity=0 time=0.08258924166666667
EXTRACT: note_on channel=9 note=41 velocity=0 time=0
EXTRACT: note_on channel=9 note=47 velocity=0 time=0
EXTRACT: note_on channel=1 note=70 velocity=92 time=0.006696425000000001
EXTRACT: note_on channel=1 note=75 velocity=92 time=0
EXTRACT: note_on channel=1 note=78 velocity=92 time=0
EXTRACT: note_on channel=2 note=44 velocity=92 time=0
EXTRACT: note_on channel=3 note=70 velocity=92 time=0
EXTRACT: note_on channel=9 note=70 velocity=92 time=0
EXTRACT: note_on channel=9 note=41 velocity=92 time=0
EXTRACT: note_on channel=9 note=47 velocity=92 time=0
EXTRACT: note_on channel=9 note=41 velocity=127 time=0
EXTRACT: note_on channel=9 note=47 velocity=127 time=0
EXTRACT: note_on channel=5 note=70 velocity=72 time=0
EXTRACT: note_on channel=5 note=75 velocity=72 time=0
EXTRACT: note_on channel=5 note=78 velocity=72 time=0
EXTRACT: note_on channel=10 note=70 velocity=72 time=0
EXTRACT: note_on channel=10 note=75 velocity=72 time=0
EXTRACT: note_on channel=10 note=78 velocity=72 time=0
EXTRACT: note_on channel=6 note=44 velocity=72 time=0
EXTRACT: note_on channel=1 note=70 velocity=0 time=0.261160575
EXTRACT: note_on channel=1 note=75 velocity=0 time=0
EXTRACT: note_on channel=1 note=78 velocity=0 time=0
EXTRACT: note_on channel=3 note=70 velocity=0 time=0
EXTRACT: note_on channel=9 note=70 velocity=0 time=0
EXTRACT: note_on channel=9 note=41 velocity=0 time=0
EXTRACT: note_on channel=9 note=47 velocity=0 time=0
EXTRACT: note_on channel=9 note=41 velocity=0 time=0
EXTRACT: note_on channel=9 note=47 velocity=0 time=0
EXTRACT: note_on channel=5 note=70 velocity=0 time=0
EXTRACT: note_on channel=5 note=75 velocity=0 time=0
EXTRACT: note_on channel=5 note=78 velocity=0 time=0
EXTRACT: note_on channel=10 note=70 velocity=0 time=0
EXTRACT: note_on channel=10 note=75 velocity=0 time=0
EXTRACT: note_on channel=10 note=78 velocity=0 time=0
EXTRACT: note_on channel=1 note=70 velocity=92 time=0.006696425000000001
EXTRACT: note_on channel=1 note=75 velocity=92 time=0
EXTRACT: note_on channel=1 note=78 velocity=92 time=0
EXTRACT: note_on channel=3 note=68 velocity=92 time=0
EXTRACT: note_on channel=9 note=70 velocity=92 time=0
EXTRACT: note_on channel=9 note=41 velocity=92 time=0
EXTRACT: note_on channel=9 note=47 velocity=92 time=0
EXTRACT: note_on channel=5 note=70 velocity=72 time=0
EXTRACT: note_on channel=5 note=75 velocity=72 time=0
EXTRACT: note_on channel=5 note=78 velocity=72 time=0
EXTRACT: note_on channel=10 note=70 velocity=72 time=0
EXTRACT: note_on channel=10 note=75 velocity=72 time=0
EXTRACT: note_on channel=10 note=78 velocity=72 time=0
EXTRACT: note_on channel=9 note=70 velocity=0 time=0.127232075
EXTRACT: note_on channel=9 note=41 velocity=0 time=0
EXTRACT: note_on channel=9 note=47 velocity=0 time=0
EXTRACT: note_on channel=9 note=70 velocity=92 time=0.006696425000000001
EXTRACT: note_on channel=9 note=41 velocity=92 time=0
EXTRACT: note_on channel=9 note=47 velocity=92 time=0
EXTRACT: note_on channel=1 note=70 velocity=0 time=0.127232075
EXTRACT: note_on channel=1 note=75 velocity=0 time=0
EXTRACT: note_on channel=1 note=78 velocity=0 time=0
EXTRACT: note_on channel=3 note=68 velocity=0 time=0
EXTRACT: note_on channel=5 note=70 velocity=0 time=0
EXTRACT: note_on channel=5 note=75 velocity=0 time=0
EXTRACT: note_on channel=5 note=78 velocity=0 time=0
EXTRACT: note_on channel=10 note=70 velocity=0 time=0
EXTRACT: note_on channel=10 note=75 velocity=0 time=0
EXTRACT: note_on channel=10 note=78 velocity=0 time=0
EXTRACT: note_on channel=1 note=70 velocity=92 time=0.006696425000000001
EXTRACT: note_on channel=1 note=75 velocity=92 time=0
EXTRACT: note_on channel=1 note=78 velocity=92 time=0
EXTRACT: note_on channel=3 note=68 velocity=92 time=0
EXTRACT: note_on channel=9 note=41 velocity=127 time=0
EXTRACT: note_on channel=9 note=47 velocity=127 time=0
EXTRACT: note_on channel=5 note=70 velocity=72 time=0
EXTRACT: note_on channel=5 note=75 velocity=72 time=0
EXTRACT: note_on channel=5 note=78 velocity=72 time=0
EXTRACT: note_on channel=10 note=70 velocity=72 time=0
EXTRACT: note_on channel=10 note=75 velocity=72 time=0
EXTRACT: note_on channel=10 note=78 velocity=72 time=0
EXTRACT: note_on channel=9 note=70 velocity=0 time=0.127232075
EXTRACT: note_on channel=9 note=41 velocity=0 time=0
EXTRACT: note_on channel=9 note=47 velocity=0 time=0
EXTRACT: note_on channel=9 note=70 velocity=92 time=0.006696425000000001
EXTRACT: note_on channel=9 note=41 velocity=92 time=0
EXTRACT: note_on channel=9 note=47 velocity=92 time=0
EXTRACT: note_on channel=9 note=70 velocity=0 time=0.127232075
EXTRACT: note_on channel=9 note=41 velocity=0 time=0
EXTRACT: note_on channel=9 note=47 velocity=0 time=0
EXTRACT: note_on channel=9 note=41 velocity=0 time=0
EXTRACT: note_on channel=9 note=47 velocity=0 time=0
EXTRACT: note_on channel=9 note=70 velocity=92 time=0.006696425000000001
EXTRACT: note_on channel=9 note=41 velocity=92 time=0
EXTRACT: note_on channel=9 note=47 velocity=92 time=0
EXTRACT: note_on channel=2 note=44 velocity=0 time=0.1339285
EXTRACT: note_on channel=6 note=44 velocity=0 time=0
EXTRACT: note_on channel=1 note=70 velocity=0 time=0.04464283333333333
EXTRACT: note_on channel=1 note=75 velocity=0 time=0
EXTRACT: note_on channel=1 note=78 velocity=0 time=0
EXTRACT: note_on channel=3 note=68 velocity=0 time=0
EXTRACT: note_on channel=5 note=70 velocity=0 time=0
EXTRACT: note_on channel=5 note=75 velocity=0 time=0
EXTRACT: note_on channel=5 note=78 velocity=0 time=0
EXTRACT: note_on channel=10 note=70 velocity=0 time=0
EXTRACT: note_on channel=10 note=75 velocity=0 time=0
EXTRACT: note_on channel=10 note=78 velocity=0 time=0
EXTRACT: note_on channel=9 note=70 velocity=0 time=0.08258924166666667
EXTRACT: note_on channel=9 note=41 velocity=0 time=0
EXTRACT: note_on channel=9 note=47 velocity=0 time=0
EXTRACT: note_on channel=0 note=73 velocity=75 time=0.006696425000000001
EXTRACT: note_on channel=1 note=66 velocity=92 time=0
EXTRACT: note_on channel=1 note=68 velocity=92 time=0
EXTRACT: note_on channel=1 note=73 velocity=92 time=0
EXTRACT: note_on channel=2 note=49 velocity=92 time=0
EXTRACT: note_on channel=9 note=70 velocity=92 time=0
EXTRACT: note_on channel=9 note=41 velocity=92 time=0
EXTRACT: note_on channel=9 note=47 velocity=92 time=0
EXTRACT: note_on channel=9 note=41 velocity=127 time=0
EXTRACT: note_on channel=9 note=47 velocity=127 time=0
EXTRACT: note_on channel=5 note=66 velocity=72 time=0
EXTRACT: note_on channel=5 note=68 velocity=72 time=0
EXTRACT: note_on channel=5 note=73 velocity=72 time=0
EXTRACT: note_on channel=10 note=66 velocity=72 time=0
EXTRACT: note_on channel=10 note=68 velocity=72 time=0
EXTRACT: note_on channel=10 note=73 velocity=72 time=0
EXTRACT: note_on channel=6 note=49 velocity=72 time=0
EXTRACT: note_on channel=9 note=70 velocity=0 time=0.261160575
EXTRACT: note_on channel=9 note=41 velocity=0 time=0
EXTRACT: note_on channel=9 note=47 velocity=0 time=0
EXTRACT: note_on channel=9 note=41 velocity=0 time=0
EXTRACT: note_on channel=9 note=47 velocity=0 time=0
EXTRACT: note_on channel=9 note=70 velocity=92 time=0.006696425000000001
EXTRACT: note_on channel=9 note=41 velocity=92 time=0
EXTRACT: note_on channel=9 note=47 velocity=92 time=0
EXTRACT: note_on channel=0 note=73 velocity=0 time=0.127232075
EXTRACT: note_on channel=1 note=66 velocity=0 time=0
EXTRACT: note_on channel=1 note=68 velocity=0 time=0
EXTRACT: note_on channel=1 note=73 velocity=0 time=0
EXTRACT: note_on channel=9 note=70 velocity=0 time=0
EXTRACT: note_on channel=9 note=41 velocity=0 time=0
EXTRACT: note_on channel=9 note=47 velocity=0 time=0
EXTRACT: note_on channel=5 note=66 velocity=0 time=0
EXTRACT: note_on channel=5 note=68 velocity=0 time=0
EXTRACT: note_on channel=5 note=73 velocity=0 time=0
EXTRACT: note_on channel=10 note=66 velocity=0 time=0
EXTRACT: note_on channel=10 note=68 velocity=0 time=0
EXTRACT: note_on channel=10 note=73 velocity=0 time=0
EXTRACT: note_on channel=0 note=73 velocity=75 time=0.006696425000000001
EXTRACT: note_on channel=1 note=66 velocity=92 time=0
EXTRACT: note_on channel=1 note=68 velocity=92 time=0
EXTRACT: note_on channel=1 note=73 velocity=92 time=0
EXTRACT: note_on channel=9 note=70 velocity=92 time=0
EXTRACT: note_on channel=9 note=41 velocity=92 time=0
EXTRACT: note_on channel=9 note=47 velocity=92 time=0
EXTRACT: note_on channel=5 note=66 velocity=72 time=0
EXTRACT: note_on channel=5 note=68 velocity=72 time=0
EXTRACT: note_on channel=5 note=73 velocity=72 time=0
EXTRACT: note_on channel=10 note=66 velocity=72 time=0
EXTRACT: note_on channel=10 note=68 velocity=72 time=0
EXTRACT: note_on channel=10 note=73 velocity=72 time=0
EXTRACT: note_on channel=1 note=66 velocity=0 time=0.127232075
EXTRACT: note_on channel=1 note=68 velocity=0 time=0
EXTRACT: note_on channel=1 note=73 velocity=0 time=0
EXTRACT: note_on channel=5 note=66 velocity=0 time=0
EXTRACT: note_on channel=5 note=68 velocity=0 time=0
EXTRACT: note_on channel=5 note=73 velocity=0 time=0
EXTRACT: note_on channel=10 note=66 velocity=0 time=0
EXTRACT: note_on channel=10 note=68 velocity=0 time=0
EXTRACT: note_on channel=10 note=73 velocity=0 time=0
EXTRACT: note_on channel=1 note=66 velocity=92 time=0.006696425000000001
EXTRACT: note_on channel=1 note=68 velocity=92 time=0
EXTRACT: note_on channel=1 note=73 velocity=92 time=0
EXTRACT: note_on channel=9 note=41 velocity=127 time=0
EXTRACT: note_on channel=9 note=47 velocity=127 time=0
EXTRACT: note_on channel=5 note=66 velocity=72 time=0
EXTRACT: note_on channel=5 note=68 velocity=72 time=0
EXTRACT: note_on channel=5 note=73 velocity=72 time=0
EXTRACT: note_on channel=10 note=66 velocity=72 time=0
EXTRACT: note_on channel=10 note=68 velocity=72 time=0
EXTRACT: note_on channel=10 note=73 velocity=72 time=0
EXTRACT: note_on channel=9 note=70 velocity=0 time=0.127232075
EXTRACT: note_on channel=9 note=41 velocity=0 time=0
EXTRACT: note_on channel=9 note=47 velocity=0 time=0
EXTRACT: note_on channel=9 note=70 velocity=92 time=0.006696425000000001
EXTRACT: note_on channel=9 note=41 velocity=92 time=0
EXTRACT: note_on channel=9 note=47 velocity=92 time=0
EXTRACT: note_on channel=0 note=73 velocity=0 time=0.127232075
EXTRACT: note_on channel=1 note=66 velocity=0 time=0
EXTRACT: note_on channel=1 note=68 velocity=0 time=0
EXTRACT: note_on channel=1 note=73 velocity=0 time=0
EXTRACT: note_on channel=9 note=70 velocity=0 time=0
EXTRACT: note_on channel=9 note=41 velocity=0 time=0
EXTRACT: note_on channel=9 note=47 velocity=0 time=0
EXTRACT: note_on channel=9 note=41 velocity=0 time=0
EXTRACT: note_on channel=9 note=47 velocity=0 time=0
EXTRACT: note_on channel=5 note=66 velocity=0 time=0
EXTRACT: note_on channel=5 note=68 velocity=0 time=0
EXTRACT: note_on channel=5 note=73 velocity=0 time=0
EXTRACT: note_on channel=10 note=66 velocity=0 time=0
EXTRACT: note_on channel=10 note=68 velocity=0 time=0
EXTRACT: note_on channel=10 note=73 velocity=0 time=0
EXTRACT: note_on channel=0 note=77 velocity=75 time=0.006696425000000001
EXTRACT: note_on channel=1 note=77 velocity=92 time=0
EXTRACT: note_on channel=9 note=70 velocity=92 time=0
EXTRACT: note_on channel=9 note=41 velocity=92 time=0
EXTRACT: note_on channel=9 note=47 velocity=92 time=0
EXTRACT: note_on channel=5 note=77 velocity=72 time=0
EXTRACT: note_on channel=10 note=77 velocity=72 time=0
EXTRACT: note_on channel=2 note=49 velocity=0 time=0.1339285
EXTRACT: note_on channel=6 note=49 velocity=0 time=0
EXTRACT: note_on channel=0 note=77 velocity=0 time=0.127232075
EXTRACT: note_on channel=1 note=77 velocity=0 time=0
EXTRACT: note_on channel=9 note=70 velocity=0 time=0
EXTRACT: note_on channel=9 note=41 velocity=0 time=0
EXTRACT: note_on channel=9 note=47 velocity=0 time=0
EXTRACT: note_on channel=5 note=77 velocity=0 time=0
EXTRACT: note_on channel=10 note=77 velocity=0 time=0
EXTRACT: note_on channel=0 note=78 velocity=75 time=0.006696425000000001
EXTRACT: note_on channel=1 note=70 velocity=75 time=0
EXTRACT: note_on channel=1 note=73 velocity=75 time=0
EXTRACT: note_on channel=1 note=78 velocity=75 time=0
EXTRACT: note_on channel=2 note=42 velocity=75 time=0
EXTRACT: note_on channel=9 note=70 velocity=75 time=0
EXTRACT: note_on channel=9 note=41 velocity=75 time=0
EXTRACT: note_on channel=9 note=47 velocity=75 time=0
EXTRACT: note_on channel=9 note=41 velocity=127 time=0
EXTRACT: note_on channel=9 note=47 velocity=127 time=0
EXTRACT: note_on channel=5 note=70 velocity=55 time=0
EXTRACT: note_on channel=5 note=73 velocity=55 time=0
EXTRACT: note_on channel=5 note=78 velocity=55 time=0
EXTRACT: note_on channel=10 note=70 velocity=55 time=0
EXTRACT: note_on channel=10 note=73 velocity=55 time=0
EXTRACT: note_on channel=10 note=78 velocity=55 time=0
EXTRACT: note_on channel=6 note=42 velocity=55 time=0
EXTRACT: note_on channel=9 note=70 velocity=0 time=0.261160575
EXTRACT: note_on channel=9 note=41 velocity=0 time=0
EXTRACT: note_on channel=9 note=47 velocity=0 time=0
EXTRACT: note_on channel=9 note=41 velocity=0 time=0
EXTRACT: note_on channel=9 note=47 velocity=0 time=0
EXTRACT: note_on channel=9 note=70 velocity=75 time=0.006696425000000001
EXTRACT: note_on channel=9 note=41 velocity=75 time=0
EXTRACT: note_on channel=9 note=47 velocity=75 time=0
EXTRACT: note_on channel=9 note=70 velocity=0 time=0.127232075
EXTRACT: note_on channel=9 note=41 velocity=0 time=0
EXTRACT: note_on channel=9 note=47 velocity=0 time=0
EXTRACT: note_on channel=9 note=70 velocity=75 time=0.006696425000000001
EXTRACT: note_on channel=9 note=41 velocity=75 time=0
EXTRACT: note_on channel=9 note=47 velocity=75 time=0
EXTRACT: note_on channel=9 note=41 velocity=127 time=0.1339285
EXTRACT: note_on channel=9 note=47 velocity=127 time=0
EXTRACT: note_on channel=9 note=70 velocity=0 time=0.127232075
EXTRACT: note_on channel=9 note=41 velocity=0 time=0
EXTRACT: note_on channel=9 note=47 velocity=0 time=0
EXTRACT: note_on channel=9 note=70 velocity=75 time=0.006696425000000001
EXTRACT: note_on channel=9 note=41 velocity=75 time=0
EXTRACT: note_on channel=9 note=47 velocity=75 time=0
EXTRACT: note_on channel=9 note=70 velocity=0 time=0.127232075
EXTRACT: note_on channel=9 note=41 velocity=0 time=0
EXTRACT: note_on channel=9 note=47 velocity=0 time=0
EXTRACT: note_on channel=9 note=41 velocity=0 time=0
EXTRACT: note_on channel=9 note=47 velocity=0 time=0
EXTRACT: note_on channel=9 note=70 velocity=75 time=0.006696425000000001
EXTRACT: note_on channel=9 note=41 velocity=75 time=0
EXTRACT: note_on channel=9 note=47 velocity=75 time=0
EXTRACT: note_on channel=0 note=78 velocity=0 time=0.1339285
EXTRACT: note_on channel=1 note=70 velocity=0 time=0
EXTRACT: note_on channel=1 note=73 velocity=0 time=0
EXTRACT: note_on channel=1 note=78 velocity=0 time=0
EXTRACT: note_on channel=2 note=42 velocity=0 time=0
EXTRACT: note_on channel=5 note=70 velocity=0 time=0
EXTRACT: note_on channel=5 note=73 velocity=0 time=0
EXTRACT: note_on channel=5 note=78 velocity=0 time=0
EXTRACT: note_on channel=10 note=70 velocity=0 time=0
EXTRACT: note_on channel=10 note=73 velocity=0 time=0
EXTRACT: note_on channel=10 note=78 velocity=0 time=0
EXTRACT: note_on channel=6 note=42 velocity=0 time=0
EXTRACT: note_on channel=9 note=70 velocity=0 time=0.127232075
EXTRACT: note_on channel=9 note=41 velocity=0 time=0
EXTRACT: note_on channel=9 note=47 velocity=0 time=0
EXTRACT: note_on channel=0 note=73 velocity=75 time=0.006696425000000001
EXTRACT: note_on channel=1 note=63 velocity=75 time=0
EXTRACT: note_on channel=1 note=66 velocity=75 time=0
EXTRACT: note_on channel=1 note=73 velocity=75 time=0
EXTRACT: note_on channel=2 note=47 velocity=75 time=0
EXTRACT: note_on channel=9 note=70 velocity=75 time=0
EXTRACT: note_on channel=9 note=41 velocity=75 time=0
EXTRACT: note_on channel=9 note=47 velocity=75 time=0
EXTRACT: note_on channel=9 note=41 velocity=127 time=0
EXTRACT: note_on channel=9 note=47 velocity=127 time=0
EXTRACT: note_on channel=5 note=63 velocity=55 time=0
EXTRACT: note_on channel=5 note=66 velocity=55 time=0
EXTRACT: note_on channel=5 note=73 velocity=55 time=0
EXTRACT: note_on channel=10 note=63 velocity=55 time=0
EXTRACT: note_on channel=10 note=66 velocity=55 time=0
EXTRACT: note_on channel=10 note=73 velocity=55 time=0
EXTRACT: note_on channel=6 note=47 velocity=55 time=0
EXTRACT: note_on channel=9 note=70 velocity=0 time=0.261160575
EXTRACT: note_on channel=9 note=41 velocity=0 time=0
EXTRACT: note_on channel=9 note=47 velocity=0 time=0
EXTRACT: note_on channel=9 note=41 velocity=0 time=0
EXTRACT: note_on channel=9 note=47 velocity=0 time=0
EXTRACT: note_on channel=9 note=70 velocity=75 time=0.006696425000000001
EXTRACT: note_on channel=9 note=41 velocity=75 time=0
EXTRACT: note_on channel=9 note=47 velocity=75 time=0
EXTRACT: note_on channel=0 note=73 velocity=0 time=0.127232075
EXTRACT: note_on channel=1 note=63 velocity=0 time=0
EXTRACT: note_on channel=1 note=66 velocity=0 time=0
EXTRACT: note_on channel=1 note=73 velocity=0 time=0
EXTRACT: note_on channel=9 note=70 velocity=0 time=0
EXTRACT: note_on channel=9 note=41 velocity=0 time=0
EXTRACT: note_on channel=9 note=47 velocity=0 time=0
EXTRACT: note_on channel=5 note=63 velocity=0 time=0
EXTRACT: note_on channel=5 note=66 velocity=0 time=0
EXTRACT: note_on channel=5 note=73 velocity=0 time=0
EXTRACT: note_on channel=10 note=63 velocity=0 time=0
EXTRACT: note_on channel=10 note=66 velocity=0 time=0
EXTRACT: note_on channel=10 note=73 velocity=0 time=0
EXTRACT: note_on channel=0 note=73 velocity=75 time=0.006696425000000001
EXTRACT: note_on channel=1 note=73 velocity=75 time=0
EXTRACT: note_on channel=9 note=70 velocity=75 time=0
EXTRACT: note_on channel=9 note=41 velocity=75 time=0
EXTRACT: note_on channel=9 note=47 velocity=75 time=0
EXTRACT: note_on channel=5 note=73 velocity=55 time=0
EXTRACT: note_on channel=10 note=73 velocity=55 time=0
EXTRACT: note_on channel=2 note=47 velocity=0 time=0.04464283333333333
EXTRACT: note_on channel=6 note=47 velocity=0 time=0
EXTRACT: note_on channel=2 note=46 velocity=75 time=0.08928566666666667
EXTRACT: note_on channel=9 note=41 velocity=127 time=0
EXTRACT: note_on channel=9 note=47 velocity=127 time=0
EXTRACT: note_on channel=6 note=46 velocity=55 time=0
EXTRACT: note_on channel=9 note=70 velocity=0 time=0.127232075
EXTRACT: note_on channel=9 note=41 velocity=0 time=0
EXTRACT: note_on channel=9 note=47 velocity=0 time=0
EXTRACT: note_on channel=9 note=70 velocity=75 time=0.006696425000000001
EXTRACT: note_on channel=9 note=41 velocity=75 time=0
EXTRACT: note_on channel=9 note=47 velocity=75 time=0
EXTRACT: note_on channel=0 note=73 velocity=0 time=0.127232075
EXTRACT: note_on channel=1 note=73 velocity=0 time=0
EXTRACT: note_on channel=9 note=70 velocity=0 time=0
EXTRACT: note_on channel=9 note=41 velocity=0 time=0
EXTRACT: note_on channel=9 note=47 velocity=0 time=0
EXTRACT: note_on channel=9 note=41 velocity=0 time=0
EXTRACT: note_on channel=9 note=47 velocity=0 time=0
EXTRACT: note_on channel=5 note=73 velocity=0 time=0
EXTRACT: note_on channel=10 note=73 velocity=0 time=0
EXTRACT: note_on channel=0 note=73 velocity=75 time=0.006696425000000001
EXTRACT: note_on channel=1 note=73 velocity=75 time=0
EXTRACT: note_on channel=9 note=70 velocity=75 time=0
EXTRACT: note_on channel=9 note=41 velocity=75 time=0
EXTRACT: note_on channel=9 note=47 velocity=75 time=0
EXTRACT: note_on channel=5 note=73 velocity=55 time=0
EXTRACT: note_on channel=10 note=73 velocity=55 time=0
EXTRACT: note_on channel=2 note=46 velocity=0 time=0.17857133333333333
EXTRACT: note_on channel=6 note=46 velocity=0 time=0
EXTRACT: note_on channel=0 note=73 velocity=0 time=0.08258924166666667
EXTRACT: note_on channel=1 note=73 velocity=0 time=0
EXTRACT: note_on channel=9 note=70 velocity=0 time=0
EXTRACT: note_on channel=9 note=41 velocity=0 time=0
EXTRACT: note_on channel=9 note=47 velocity=0 time=0
EXTRACT: note_on channel=5 note=73 velocity=0 time=0
EXTRACT: note_on channel=10 note=73 velocity=0 time=0
EXTRACT: note_on channel=0 note=83 velocity=75 time=0.006696425000000001
EXTRACT: note_on channel=1 note=75 velocity=75 time=0
EXTRACT: note_on channel=1 note=78 velocity=75 time=0
EXTRACT: note_on channel=1 note=83 velocity=75 time=0
EXTRACT: note_on channel=2 note=44 velocity=75 time=0
EXTRACT: note_on channel=9 note=70 velocity=75 time=0
EXTRACT: note_on channel=9 note=41 velocity=75 time=0
EXTRACT: note_on channel=9 note=47 velocity=75 time=0
EXTRACT: note_on channel=9 note=41 velocity=127 time=0
EXTRACT: note_on channel=9 note=47 velocity=127 time=0
EXTRACT: note_on channel=5 note=75 velocity=55 time=0
EXTRACT: note_on channel=5 note=78 velocity=55 time=0
EXTRACT: note_on channel=5 note=83 velocity=55 time=0
EXTRACT: note_on channel=10 note=75 velocity=55 time=0
EXTRACT: note_on channel=10 note=78 velocity=55 time=0
EXTRACT: note_on channel=10 note=83 velocity=55 time=0
EXTRACT: note_on channel=6 note=44 velocity=55 time=0
EXTRACT: note_on channel=9 note=70 velocity=0 time=0.261160575
EXTRACT: note_on channel=9 note=41 velocity=0 time=0
EXTRACT: note_on channel=9 note=47 velocity=0 time=0
EXTRACT: note_on channel=9 note=41 velocity=0 time=0
EXTRACT: note_on channel=9 note=47 velocity=0 time=0
EXTRACT: note_on channel=9 note=70 velocity=75 time=0.006696425000000001
EXTRACT: note_on channel=9 note=41 velocity=75 time=0
EXTRACT: note_on channel=9 note=47 velocity=75 time=0
EXTRACT: note_on channel=0 note=83 velocity=0 time=0.127232075
EXTRACT: note_on channel=1 note=75 velocity=0 time=0
EXTRACT: note_on channel=1 note=78 velocity=0 time=0
EXTRACT: note_on channel=1 note=83 velocity=0 time=0
EXTRACT: note_on channel=9 note=70 velocity=0 time=0
EXTRACT: note_on channel=9 note=41 velocity=0 time=0
EXTRACT: note_on channel=9 note=47 velocity=0 time=0
EXTRACT: note_on channel=5 note=75 velocity=0 time=0
EXTRACT: note_on channel=5 note=78 velocity=0 time=0
EXTRACT: note_on channel=5 note=83 velocity=0 time=0
EXTRACT: note_on channel=10 note=75 velocity=0 time=0
EXTRACT: note_on channel=10 note=78 velocity=0 time=0
EXTRACT: note_on channel=10 note=83 velocity=0 time=0
EXTRACT: note_on channel=0 note=83 velocity=75 time=0.006696425000000001
EXTRACT: note_on channel=1 note=75 velocity=75 time=0
EXTRACT: note_on channel=1 note=78 velocity=75 time=0
EXTRACT: note_on channel=1 note=83 velocity=75 time=0
EXTRACT: note_on channel=9 note=70 velocity=75 time=0
EXTRACT: note_on channel=9 note=41 velocity=75 time=0
EXTRACT: note_on channel=9 note=47 velocity=75 time=0
EXTRACT: note_on channel=5 note=75 velocity=55 time=0
EXTRACT: note_on channel=5 note=78 velocity=55 time=0
EXTRACT: note_on channel=5 note=83 velocity=55 time=0
EXTRACT: note_on channel=10 note=75 velocity=55 time=0
EXTRACT: note_on channel=10 note=78 velocity=55 time=0
EXTRACT: note_on channel=10 note=83 velocity=55 time=0
EXTRACT: note_on channel=9 note=41 velocity=127 time=0.1339285
EXTRACT: note_on channel=9 note=47 velocity=127 time=0
EXTRACT: note_on channel=9 note=70 velocity=0 time=0.127232075
EXTRACT: note_on channel=9 note=41 velocity=0 time=0
EXTRACT: note_on channel=9 note=47 velocity=0 time=0
EXTRACT: note_on channel=9 note=70 velocity=75 time=0.006696425000000001
EXTRACT: note_on channel=9 note=41 velocity=75 time=0
EXTRACT: note_on channel=9 note=47 velocity=75 time=0
EXTRACT: note_on channel=0 note=83 velocity=0 time=0.127232075
EXTRACT: note_on channel=1 note=75 velocity=0 time=0
EXTRACT: note_on channel=1 note=78 velocity=0 time=0
EXTRACT: note_on channel=1 note=83 velocity=0 time=0
EXTRACT: note_on channel=9 note=70 velocity=0 time=0
EXTRACT: note_on channel=9 note=41 velocity=0 time=0
EXTRACT: note_on channel=9 note=47 velocity=0 time=0
EXTRACT: note_on channel=9 note=41 velocity=0 time=0
EXTRACT: note_on channel=9 note=47 velocity=0 time=0
EXTRACT: note_on channel=5 note=75 velocity=0 time=0
EXTRACT: note_on channel=5 note=78 velocity=0 time=0
EXTRACT: note_on channel=5 note=83 velocity=0 time=0
EXTRACT: note_on channel=10 note=75 velocity=0 time=0
EXTRACT: note_on channel=10 note=78 velocity=0 time=0
EXTRACT: note_on channel=10 note=83 velocity=0 time=0
EXTRACT: note_on channel=0 note=83 velocity=75 time=0.006696425000000001
EXTRACT: note_on channel=1 note=83 velocity=75 time=0
EXTRACT: note_on channel=9 note=70 velocity=75 time=0
EXTRACT: note_on channel=9 note=41 velocity=75 time=0
EXTRACT: note_on channel=9 note=47 velocity=75 time=0
EXTRACT: note_on channel=5 note=83 velocity=55 time=0
EXTRACT: note_on channel=10 note=83 velocity=55 time=0
EXTRACT: note_on channel=2 note=44 velocity=0 time=0.1339285
EXTRACT: note_on channel=6 note=44 velocity=0 time=0
EXTRACT: note_on channel=0 note=83 velocity=0 time=0.127232075
EXTRACT: note_on channel=1 note=83 velocity=0 time=0
EXTRACT: note_on channel=9 note=70 velocity=0 time=0
EXTRACT: note_on channel=9 note=41 velocity=0 time=0
EXTRACT: note_on channel=9 note=47 velocity=0 time=0
EXTRACT: note_on channel=5 note=83 velocity=0 time=0
EXTRACT: note_on channel=10 note=83 velocity=0 time=0
EXTRACT: note_on channel=0 note=83 velocity=75 time=0.006696425000000001
EXTRACT: note_on channel=1 note=73 velocity=75 time=0
EXTRACT: note_on channel=1 note=78 velocity=75 time=0
EXTRACT: note_on channel=1 note=83 velocity=75 time=0
EXTRACT: note_on channel=2 note=49 velocity=75 time=0
EXTRACT: note_on channel=9 note=70 velocity=75 time=0
EXTRACT: note_on channel=9 note=41 velocity=75 time=0
EXTRACT: note_on channel=9 note=47 velocity=75 time=0
EXTRACT: note_on channel=9 note=41 velocity=127 time=0
EXTRACT: note_on channel=9 note=47 velocity=127 time=0
EXTRACT: note_on channel=5 note=73 velocity=55 time=0
EXTRACT: note_on channel=5 note=78 velocity=55 time=0
EXTRACT: note_on channel=5 note=83 velocity=55 time=0
EXTRACT: note_on channel=10 note=73 velocity=55 time=0
EXTRACT: note_on channel=10 note=78 velocity=55 time=0
EXTRACT: note_on channel=10 note=83 velocity=55 time=0
EXTRACT: note_on channel=6 note=49 velocity=55 time=0
EXTRACT: note_on channel=9 note=70 velocity=0 time=0.261160575
EXTRACT: note_on channel=9 note=41 velocity=0 time=0
EXTRACT: note_on channel=9 note=47 velocity=0 time=0
EXTRACT: note_on channel=9 note=41 velocity=0 time=0
EXTRACT: note_on channel=9 note=47 velocity=0 time=0
EXTRACT: note_on channel=9 note=70 velocity=75 time=0.006696425000000001
EXTRACT: note_on channel=9 note=41 velocity=75 time=0
EXTRACT: note_on channel=9 note=47 velocity=75 time=0
EXTRACT: note_on channel=0 note=83 velocity=0 time=0.127232075
EXTRACT: note_on channel=1 note=73 velocity=0 time=0
EXTRACT: note_on channel=1 note=78 velocity=0 time=0
EXTRACT: note_on channel=1 note=83 velocity=0 time=0
EXTRACT: note_on channel=9 note=70 velocity=0 time=0
EXTRACT: note_on channel=9 note=41 velocity=0 time=0
EXTRACT: note_on channel=9 note=47 velocity=0 time=0
EXTRACT: note_on channel=5 note=73 velocity=0 time=0
EXTRACT: note_on channel=5 note=78 velocity=0 time=0
EXTRACT: note_on channel=5 note=83 velocity=0 time=0
EXTRACT: note_on channel=10 note=73 velocity=0 time=0
EXTRACT: note_on channel=10 note=78 velocity=0 time=0
EXTRACT: note_on channel=10 note=83 velocity=0 time=0
EXTRACT: note_on channel=0 note=82 velocity=75 time=0.006696425000000001
EXTRACT: note_on channel=1 note=82 velocity=75 time=0
EXTRACT: note_on channel=9 note=70 velocity=75 time=0
EXTRACT: note_on channel=9 note=41 velocity=75 time=0
EXTRACT: note_on channel=9 note=47 velocity=75 time=0
EXTRACT: note_on channel=5 note=82 velocity=55 time=0
EXTRACT: note_on channel=10 note=82 velocity=55 time=0
EXTRACT: note_on channel=9 note=41 velocity=127 time=0.1339285
EXTRACT: note_on channel=9 note=47 velocity=127 time=0
EXTRACT: note_on channel=9 note=70 velocity=0 time=0.127232075
EXTRACT: note_on channel=9 note=41 velocity=0 time=0
EXTRACT: note_on channel=9 note=47 velocity=0 time=0
EXTRACT: note_on channel=9 note=70 velocity=75 time=0.006696425000000001
EXTRACT: note_on channel=9 note=41 velocity=75 time=0
EXTRACT: note_on channel=9 note=47 velocity=75 time=0
EXTRACT: note_on channel=0 note=82 velocity=0 time=0.127232075
EXTRACT: note_on channel=1 note=82 velocity=0 time=0
EXTRACT: note_on channel=9 note=70 velocity=0 time=0
EXTRACT: note_on channel=9 note=41 velocity=0 time=0
EXTRACT: note_on channel=9 note=47 velocity=0 time=0
EXTRACT: note_on channel=9 note=41 velocity=0 time=0
EXTRACT: note_on channel=9 note=47 velocity=0 time=0
EXTRACT: note_on channel=5 note=82 velocity=0 time=0
EXTRACT: note_on channel=10 note=82 velocity=0 time=0
EXTRACT: note_on channel=0 note=82 velocity=75 time=0.006696425000000001
EXTRACT: note_on channel=1 note=82 velocity=75 time=0
EXTRACT: note_on channel=9 note=70 velocity=75 time=0
EXTRACT: note_on channel=9 note=41 velocity=75 time=0
EXTRACT: note_on channel=9 note=47 velocity=75 time=0
EXTRACT: note_on channel=5 note=82 velocity=55 time=0
EXTRACT: note_on channel=10 note=82 velocity=55 time=0
EXTRACT: note_on channel=2 note=49 velocity=0 time=0.1339285
EXTRACT: note_on channel=6 note=49 velocity=0 time=0
EXTRACT: note_on channel=0 note=82 velocity=0 time=0.127232075
EXTRACT: note_on channel=1 note=82 velocity=0 time=0
EXTRACT: note_on channel=9 note=70 velocity=0 time=0
EXTRACT: note_on channel=9 note=41 velocity=0 time=0
EXTRACT: note_on channel=9 note=47 velocity=0 time=0
EXTRACT: note_on channel=5 note=82 velocity=0 time=0
EXTRACT: note_on channel=10 note=82 velocity=0 time=0
EXTRACT: note_on channel=0 note=82 velocity=75 time=0.006696425000000001
EXTRACT: note_on channel=1 note=73 velocity=75 time=0
EXTRACT: note_on channel=1 note=78 velocity=75 time=0
EXTRACT: note_on channel=1 note=82 velocity=75 time=0
EXTRACT: note_on channel=2 note=51 velocity=75 time=0
EXTRACT: note_on channel=9 note=70 velocity=75 time=0
EXTRACT: note_on channel=9 note=41 velocity=75 time=0
EXTRACT: note_on channel=9 note=47 velocity=75 time=0
EXTRACT: note_on channel=9 note=41 velocity=127 time=0
EXTRACT: note_on channel=9 note=47 velocity=127 time=0
EXTRACT: note_on channel=5 note=73 velocity=55 time=0
EXTRACT: note_on channel=5 note=78 velocity=55 time=0
EXTRACT: note_on channel=5 note=82 velocity=55 time=0
EXTRACT: note_on channel=10 note=73 velocity=55 time=0
EXTRACT: note_on channel=10 note=78 velocity=55 time=0
EXTRACT: note_on channel=10 note=82 velocity=55 time=0
EXTRACT: note_on channel=6 note=51 velocity=55 time=0
EXTRACT: note_on channel=9 note=70 velocity=0 time=0.261160575
EXTRACT: note_on channel=9 note=41 velocity=0 time=0
EXTRACT: note_on channel=9 note=47 velocity=0 time=0
EXTRACT: note_on channel=9 note=41 velocity=0 time=0
EXTRACT: note_on channel=9 note=47 velocity=0 time=0
EXTRACT: note_on channel=9 note=70 velocity=75 time=0.006696425000000001
EXTRACT: note_on channel=9 note=41 velocity=75 time=0
EXTRACT: note_on channel=9 note=47 velocity=75 time=0
EXTRACT: note_on channel=0 note=82 velocity=0 time=0.127232075
EXTRACT: note_on channel=1 note=73 velocity=0 time=0
EXTRACT: note_on channel=1 note=78 velocity=0 time=0
EXTRACT: note_on channel=1 note=82 velocity=0 time=0
EXTRACT: note_on channel=9 note=70 velocity=0 time=0
EXTRACT: note_on channel=9 note=41 velocity=0 time=0
EXTRACT: note_on channel=9 note=47 velocity=0 time=0
EXTRACT: note_on channel=5 note=73 velocity=0 time=0
EXTRACT: note_on channel=5 note=78 velocity=0 time=0
EXTRACT: note_on channel=5 note=82 velocity=0 time=0
EXTRACT: note_on channel=10 note=73 velocity=0 time=0
EXTRACT: note_on channel=10 note=78 velocity=0 time=0
EXTRACT: note_on channel=10 note=82 velocity=0 time=0
EXTRACT: note_on channel=0 note=80 velocity=75 time=0.006696425000000001
EXTRACT: note_on channel=1 note=80 velocity=75 time=0
EXTRACT: note_on channel=9 note=70 velocity=75 time=0
EXTRACT: note_on channel=9 note=41 velocity=75 time=0
EXTRACT: note_on channel=9 note=47 velocity=75 time=0
EXTRACT: note_on channel=5 note=80 velocity=55 time=0
EXTRACT: note_on channel=10 note=80 velocity=55 time=0
EXTRACT: note_on channel=9 note=41 velocity=127 time=0.1339285
EXTRACT: note_on channel=9 note=47 velocity=127 time=0
EXTRACT: note_on channel=9 note=70 velocity=0 time=0.127232075
EXTRACT: note_on channel=9 note=41 velocity=0 time=0
EXTRACT: note_on channel=9 note=47 velocity=0 time=0
EXTRACT: note_on channel=9 note=70 velocity=75 time=0.006696425000000001
EXTRACT: note_on channel=9 note=41 velocity=75 time=0
EXTRACT: note_on channel=9 note=47 velocity=75 time=0
EXTRACT: note_on channel=0 note=80 velocity=0 time=0.127232075
EXTRACT: note_on channel=1 note=80 velocity=0 time=0
EXTRACT: note_on channel=9 note=70 velocity=0 time=0
EXTRACT: note_on channel=9 note=41 velocity=0 time=0
EXTRACT: note_on channel=9 note=47 velocity=0 time=0
EXTRACT: note_on channel=9 note=41 velocity=0 time=0
EXTRACT: note_on channel=9 note=47 velocity=0 time=0
EXTRACT: note_on channel=5 note=80 velocity=0 time=0
EXTRACT: note_on channel=10 note=80 velocity=0 time=0
EXTRACT: note_on channel=0 note=80 velocity=75 time=0.006696425000000001
EXTRACT: note_on channel=1 note=80 velocity=75 time=0
EXTRACT: note_on channel=9 note=70 velocity=75 time=0
EXTRACT: note_on channel=9 note=41 velocity=75 time=0
EXTRACT: note_on channel=9 note=47 velocity=75 time=0
EXTRACT: note_on channel=5 note=80 velocity=55 time=0
EXTRACT: note_on channel=10 note=80 velocity=55 time=0
EXTRACT: note_on channel=2 note=51 velocity=0 time=0.1339285
EXTRACT: note_on channel=6 note=51 velocity=0 time=0
EXTRACT: note_on channel=0 note=80 velocity=0 time=0.127232075
EXTRACT: note_on channel=1 note=80 velocity=0 time=0
EXTRACT: note_on channel=9 note=70 velocity=0 time=0
EXTRACT: note_on channel=9 note=41 velocity=0 time=0
EXTRACT: note_on channel=9 note=47 velocity=0 time=0
EXTRACT: note_on channel=5 note=80 velocity=0 time=0
EXTRACT: note_on channel=10 note=80 velocity=0 time=0
EXTRACT: note_on channel=0 note=80 velocity=75 time=0.006696425000000001
EXTRACT: note_on channel=1 note=73 velocity=75 time=0
EXTRACT: note_on channel=1 note=75 velocity=75 time=0
EXTRACT: note_on channel=1 note=80 velocity=75 time=0
EXTRACT: note_on channel=2 note=47 velocity=75 time=0
EXTRACT: note_on channel=9 note=70 velocity=75 time=0
EXTRACT: note_on channel=9 note=41 velocity=75 time=0
EXTRACT: note_on channel=9 note=47 velocity=75 time=0
EXTRACT: note_on channel=9 note=41 velocity=127 time=0
EXTRACT: note_on channel=9 note=47 velocity=127 time=0
EXTRACT: note_on channel=5 note=73 velocity=55 time=0
EXTRACT: note_on channel=5 note=75 velocity=55 time=0
EXTRACT: note_on channel=5 note=80 velocity=55 time=0
EXTRACT: note_on channel=10 note=73 velocity=55 time=0
EXTRACT: note_on channel=10 note=75 velocity=55 time=0
EXTRACT: note_on channel=10 note=80 velocity=55 time=0
EXTRACT: note_on channel=6 note=47 velocity=55 time=0
EXTRACT: note_on channel=9 note=70 velocity=0 time=0.261160575
EXTRACT: note_on channel=9 note=41 velocity=0 time=0
EXTRACT: note_on channel=9 note=47 velocity=0 time=0
EXTRACT: note_on channel=9 note=41 velocity=0 time=0
EXTRACT: note_on channel=9 note=47 velocity=0 time=0
EXTRACT: note_on channel=9 note=70 velocity=75 time=0.006696425000000001
EXTRACT: note_on channel=9 note=41 velocity=75 time=0
EXTRACT: note_on channel=9 note=47 velocity=75 time=0
EXTRACT: note_on channel=0 note=80 velocity=0 time=0.127232075
EXTRACT: note_on channel=1 note=73 velocity=0 time=0
EXTRACT: note_on channel=1 note=75 velocity=0 time=0
EXTRACT: note_on channel=1 note=80 velocity=0 time=0
EXTRACT: note_on channel=9 note=70 velocity=0 time=0
EXTRACT: note_on channel=9 note=41 velocity=0 time=0
EXTRACT: note_on channel=9 note=47 velocity=0 time=0
EXTRACT: note_on channel=5 note=73 velocity=0 time=0
EXTRACT: note_on channel=5 note=75 velocity=0 time=0
EXTRACT: note_on channel=5 note=80 velocity=0 time=0
EXTRACT: note_on channel=10 note=73 velocity=0 time=0
EXTRACT: note_on channel=10 note=75 velocity=0 time=0
EXTRACT: note_on channel=10 note=80 velocity=0 time=0
EXTRACT: note_on channel=0 note=78 velocity=75 time=0.006696425000000001
EXTRACT: note_on channel=1 note=78 velocity=75 time=0
EXTRACT: note_on channel=9 note=70 velocity=75 time=0
EXTRACT: note_on channel=9 note=41 velocity=75 time=0
EXTRACT: note_on channel=9 note=47 velocity=75 time=0
EXTRACT: note_on channel=5 note=78 velocity=55 time=0
EXTRACT: note_on channel=10 note=78 velocity=55 time=0
EXTRACT: note_on channel=9 note=41 velocity=127 time=0.1339285
EXTRACT: note_on channel=9 note=47 velocity=127 time=0
EXTRACT: note_on channel=9 note=70 velocity=0 time=0.127232075
EXTRACT: note_on channel=9 note=41 velocity=0 time=0
EXTRACT: note_on channel=9 note=47 velocity=0 time=0
EXTRACT: note_on channel=9 note=70 velocity=75 time=0.006696425000000001
EXTRACT: note_on channel=9 note=41 velocity=75 time=0
EXTRACT: note_on channel=9 note=47 velocity=75 time=0
EXTRACT: note_on channel=0 note=78 velocity=0 time=0.127232075
EXTRACT: note_on channel=1 note=78 velocity=0 time=0
EXTRACT: note_on channel=9 note=70 velocity=0 time=0
EXTRACT: note_on channel=9 note=41 velocity=0 time=0
EXTRACT: note_on channel=9 note=47 velocity=0 time=0
EXTRACT: note_on channel=9 note=41 velocity=0 time=0
EXTRACT: note_on channel=9 note=47 velocity=0 time=0
EXTRACT: note_on channel=5 note=78 velocity=0 time=0
EXTRACT: note_on channel=10 note=78 velocity=0 time=0
EXTRACT: note_on channel=0 note=77 velocity=75 time=0.006696425000000001
EXTRACT: note_on channel=1 note=77 velocity=75 time=0
EXTRACT: note_on channel=9 note=70 velocity=75 time=0
EXTRACT: note_on channel=9 note=41 velocity=75 time=0
EXTRACT: note_on channel=9 note=47 velocity=75 time=0
EXTRACT: note_on channel=5 note=77 velocity=55 time=0
EXTRACT: note_on channel=10 note=77 velocity=55 time=0
EXTRACT: note_on channel=2 note=47 velocity=0 time=0.1339285
EXTRACT: note_on channel=6 note=47 velocity=0 time=0
EXTRACT: note_on channel=0 note=77 velocity=0 time=0.127232075
EXTRACT: note_on channel=1 note=77 velocity=0 time=0
EXTRACT: note_on channel=9 note=70 velocity=0 time=0
EXTRACT: note_on channel=9 note=41 velocity=0 time=0
EXTRACT: note_on channel=9 note=47 velocity=0 time=0
EXTRACT: note_on channel=5 note=77 velocity=0 time=0
EXTRACT: note_on channel=10 note=77 velocity=0 time=0
EXTRACT: note_on channel=0 note=78 velocity=75 time=0.006696425000000001
EXTRACT: note_on channel=1 note=71 velocity=75 time=0
EXTRACT: note_on channel=1 note=75 velocity=75 time=0
EXTRACT: note_on channel=1 note=78 velocity=75 time=0
EXTRACT: note_on channel=2 note=44 velocity=75 time=0
EXTRACT: note_on channel=9 note=70 velocity=75 time=0
EXTRACT: note_on channel=9 note=41 velocity=75 time=0
EXTRACT: note_on channel=9 note=47 velocity=75 time=0
EXTRACT: note_on channel=9 note=41 velocity=127 time=0
EXTRACT: note_on channel=9 note=47 velocity=127 time=0
EXTRACT: note_on channel=5 note=71 velocity=55 time=0
EXTRACT: note_on channel=5 note=75 velocity=55 time=0
EXTRACT: note_on channel=5 note=78 velocity=55 time=0
EXTRACT: note_on channel=10 note=71 velocity=55 time=0
EXTRACT: note_on channel=10 note=75 velocity=55 time=0
EXTRACT: note_on channel=10 note=78 velocity=55 time=0
EXTRACT: note_on channel=6 note=44 velocity=55 time=0
EXTRACT: note_on channel=9 note=70 velocity=0 time=0.261160575
EXTRACT: note_on channel=9 note=41 velocity=0 time=0
EXTRACT: note_on channel=9 note=47 velocity=0 time=0
EXTRACT: note_on channel=9 note=41 velocity=0 time=0
EXTRACT: note_on channel=9 note=47 velocity=0 time=0
EXTRACT: note_on channel=9 note=70 velocity=75 time=0.006696425000000001
EXTRACT: note_on channel=9 note=41 velocity=75 time=0
EXTRACT: note_on channel=9 note=47 velocity=75 time=0
EXTRACT: note_on channel=0 note=78 velocity=0 time=0.127232075
EXTRACT: note_on channel=1 note=71 velocity=0 time=0
EXTRACT: note_on channel=1 note=75 velocity=0 time=0
EXTRACT: note_on channel=1 note=78 velocity=0 time=0
EXTRACT: note_on channel=9 note=70 velocity=0 time=0
EXTRACT: note_on channel=9 note=41 velocity=0 time=0
EXTRACT: note_on channel=9 note=47 velocity=0 time=0
EXTRACT: note_on channel=5 note=71 velocity=0 time=0
EXTRACT: note_on channel=5 note=75 velocity=0 time=0
EXTRACT: note_on channel=5 note=78 velocity=0 time=0
EXTRACT: note_on channel=10 note=71 velocity=0 time=0
EXTRACT: note_on channel=10 note=75 velocity=0 time=0
EXTRACT: note_on channel=10 note=78 velocity=0 time=0
EXTRACT: note_on channel=0 note=78 velocity=75 time=0.006696425000000001
EXTRACT: note_on channel=1 note=71 velocity=75 time=0
EXTRACT: note_on channel=1 note=75 velocity=75 time=0
EXTRACT: note_on channel=1 note=78 velocity=75 time=0
EXTRACT: note_on channel=9 note=70 velocity=75 time=0
EXTRACT: note_on channel=9 note=41 velocity=75 time=0
EXTRACT: note_on channel=9 note=47 velocity=75 time=0
EXTRACT: note_on channel=5 note=71 velocity=55 time=0
EXTRACT: note_on channel=5 note=75 velocity=55 time=0
EXTRACT: note_on channel=5 note=78 velocity=55 time=0
EXTRACT: note_on channel=10 note=71 velocity=55 time=0
EXTRACT: note_on channel=10 note=75 velocity=55 time=0
EXTRACT: note_on channel=10 note=78 velocity=55 time=0
EXTRACT: note_on channel=9 note=41 velocity=127 time=0.1339285
EXTRACT: note_on channel=9 note=47 velocity=127 time=0
EXTRACT: note_on channel=9 note=70 velocity=0 time=0.127232075
EXTRACT: note_on channel=9 note=41 velocity=0 time=0
EXTRACT: note_on channel=9 note=47 velocity=0 time=0
EXTRACT: note_on channel=9 note=70 velocity=75 time=0.006696425000000001
EXTRACT: note_on channel=9 note=41 velocity=75 time=0
EXTRACT: note_on channel=9 note=47 velocity=75 time=0
EXTRACT: note_on channel=0 note=78 velocity=0 time=0.127232075
EXTRACT: note_on channel=1 note=71 velocity=0 time=0
EXTRACT: note_on channel=1 note=75 velocity=0 time=0
EXTRACT: note_on channel=1 note=78 velocity=0 time=0
EXTRACT: note_on channel=9 note=70 velocity=0 time=0
EXTRACT: note_on channel=9 note=41 velocity=0 time=0
EXTRACT: note_on channel=9 note=47 velocity=0 time=0
EXTRACT: note_on channel=9 note=41 velocity=0 time=0
EXTRACT: note_on channel=9 note=47 velocity=0 time=0
EXTRACT: note_on channel=5 note=71 velocity=0 time=0
EXTRACT: note_on channel=5 note=75 velocity=0 time=0
EXTRACT: note_on channel=5 note=78 velocity=0 time=0
EXTRACT: note_on channel=10 note=71 velocity=0 time=0
EXTRACT: note_on channel=10 note=75 velocity=0 time=0
EXTRACT: note_on channel=10 note=78 velocity=0 time=0
EXTRACT: note_on channel=0 note=80 velocity=75 time=0.006696425000000001
EXTRACT: note_on channel=1 note=80 velocity=75 time=0
EXTRACT: note_on channel=9 note=70 velocity=75 time=0
EXTRACT: note_on channel=9 note=41 velocity=75 time=0
EXTRACT: note_on channel=9 note=47 velocity=75 time=0
EXTRACT: note_on channel=5 note=80 velocity=55 time=0
EXTRACT: note_on channel=10 note=80 velocity=55 time=0
EXTRACT: note_on channel=2 note=44 velocity=0 time=0.1339285
EXTRACT: note_on channel=6 note=44 velocity=0 time=0
EXTRACT: note_on channel=0 note=80 velocity=0 time=0.127232075
EXTRACT: note_on channel=1 note=80 velocity=0 time=0
EXTRACT: note_on channel=9 note=70 velocity=0 time=0
EXTRACT: note_on channel=9 note=41 velocity=0 time=0
EXTRACT: note_on channel=9 note=47 velocity=0 time=0
EXTRACT: note_on channel=5 note=80 velocity=0 time=0
EXTRACT: note_on channel=10 note=80 velocity=0 time=0
EXTRACT: note_on channel=0 note=73 velocity=75 time=0.006696425000000001
EXTRACT: note_on channel=0 note=80 velocity=75 time=0
EXTRACT: note_on channel=1 note=73 velocity=75 time=0
EXTRACT: note_on channel=1 note=78 velocity=75 time=0
EXTRACT: note_on channel=1 note=80 velocity=75 time=0
EXTRACT: note_on channel=2 note=49 velocity=75 time=0
EXTRACT: note_on channel=9 note=70 velocity=75 time=0
EXTRACT: note_on channel=9 note=41 velocity=75 time=0
EXTRACT: note_on channel=9 note=47 velocity=75 time=0
EXTRACT: note_on channel=9 note=41 velocity=127 time=0
EXTRACT: note_on channel=9 note=47 velocity=127 time=0
EXTRACT: note_on channel=5 note=73 velocity=55 time=0
EXTRACT: note_on channel=5 note=78 velocity=55 time=0
EXTRACT: note_on channel=5 note=80 velocity=55 time=0
EXTRACT: note_on channel=10 note=73 velocity=55 time=0
EXTRACT: note_on channel=10 note=78 velocity=55 time=0
EXTRACT: note_on channel=10 note=80 velocity=55 time=0
EXTRACT: note_on channel=6 note=49 velocity=55 time=0
EXTRACT: note_on channel=9 note=70 velocity=0 time=0.261160575
EXTRACT: note_on channel=9 note=41 velocity=0 time=0
EXTRACT: note_on channel=9 note=47 velocity=0 time=0
EXTRACT: note_on channel=9 note=41 velocity=0 time=0
EXTRACT: note_on channel=9 note=47 velocity=0 time=0
EXTRACT: note_on channel=9 note=70 velocity=75 time=0.006696425000000001
EXTRACT: note_on channel=9 note=41 velocity=75 time=0
EXTRACT: note_on channel=9 note=47 velocity=75 time=0
EXTRACT: note_on channel=0 note=73 velocity=0 time=0.127232075
EXTRACT: note_on channel=1 note=73 velocity=0 time=0
EXTRACT: note_on channel=1 note=78 velocity=0 time=0
EXTRACT: note_on channel=1 note=80 velocity=0 time=0
EXTRACT: note_on channel=9 note=70 velocity=0 time=0
EXTRACT: note_on channel=9 note=41 velocity=0 time=0
EXTRACT: note_on channel=9 note=47 velocity=0 time=0
EXTRACT: note_on channel=5 note=73 velocity=0 time=0
EXTRACT: note_on channel=5 note=78 velocity=0 time=0
EXTRACT: note_on channel=5 note=80 velocity=0 time=0
EXTRACT: note_on channel=10 note=73 velocity=0 time=0
EXTRACT: note_on channel=10 note=78 velocity=0 time=0
EXTRACT: note_on channel=10 note=80 velocity=0 time=0
EXTRACT: note_on channel=0 note=73 velocity=75 time=0.006696425000000001
EXTRACT: note_on channel=1 note=73 velocity=75 time=0
EXTRACT: note_on channel=9 note=70 velocity=75 time=0
EXTRACT: note_on channel=9 note=41 velocity=75 time=0
EXTRACT: note_on channel=9 note=47 velocity=75 time=0
EXTRACT: note_on channel=5 note=73 velocity=55 time=0
EXTRACT: note_on channel=10 note=73 velocity=55 time=0
EXTRACT: note_on channel=9 note=41 velocity=127 time=0.1339285
EXTRACT: note_on channel=9 note=47 velocity=127 time=0
EXTRACT: note_on channel=9 note=70 velocity=0 time=0.127232075
EXTRACT: note_on channel=9 note=41 velocity=0 time=0
EXTRACT: note_on channel=9 note=47 velocity=0 time=0
EXTRACT: note_on channel=9 note=70 velocity=75 time=0.006696425000000001
EXTRACT: note_on channel=9 note=41 velocity=75 time=0
EXTRACT: note_on channel=9 note=47 velocity=75 time=0
EXTRACT: note_on channel=0 note=73 velocity=0 time=0.127232075
EXTRACT: note_on channel=1 note=73 velocity=0 time=0
EXTRACT: note_on channel=9 note=70 velocity=0 time=0
EXTRACT: note_on channel=9 note=41 velocity=0 time=0
EXTRACT: note_on channel=9 note=47 velocity=0 time=0
EXTRACT: note_on channel=9 note=41 velocity=0 time=0
EXTRACT: note_on channel=9 note=47 velocity=0 time=0
EXTRACT: note_on channel=5 note=73 velocity=0 time=0
EXTRACT: note_on channel=10 note=73 velocity=0 time=0
EXTRACT: note_on channel=0 note=77 velocity=75 time=0.006696425000000001
EXTRACT: note_on channel=1 note=77 velocity=75 time=0
EXTRACT: note_on channel=9 note=70 velocity=75 time=0
EXTRACT: note_on channel=9 note=41 velocity=75 time=0
EXTRACT: note_on channel=9 note=47 velocity=75 time=0
EXTRACT: note_on channel=5 note=77 velocity=55 time=0
EXTRACT: note_on channel=10 note=77 velocity=55 time=0
EXTRACT: note_on channel=0 note=80 velocity=0 time=0.1339285
EXTRACT: note_on channel=2 note=49 velocity=0 time=0
EXTRACT: note_on channel=6 note=49 velocity=0 time=0
EXTRACT: note_on channel=0 note=77 velocity=0 time=0.127232075
EXTRACT: note_on channel=1 note=77 velocity=0 time=0
EXTRACT: note_on channel=9 note=70 velocity=0 time=0
EXTRACT: note_on channel=9 note=41 velocity=0 time=0
EXTRACT: note_on channel=9 note=47 velocity=0 time=0
EXTRACT: note_on channel=5 note=77 velocity=0 time=0
EXTRACT: note_on channel=10 note=77 velocity=0 time=0
EXTRACT: note_on channel=0 note=78 velocity=60 time=0.006696425000000001
EXTRACT: note_on channel=1 note=70 velocity=60 time=0
EXTRACT: note_on channel=1 note=73 velocity=60 time=0
EXTRACT: note_on channel=1 note=78 velocity=60 time=0
EXTRACT: note_on channel=2 note=42 velocity=60 time=0
EXTRACT: note_on channel=9 note=70 velocity=60 time=0
EXTRACT: note_on channel=9 note=41 velocity=60 time=0
EXTRACT: note_on channel=9 note=47 velocity=60 time=0
EXTRACT: note_on channel=9 note=41 velocity=105 time=0
EXTRACT: note_on channel=9 note=47 velocity=105 time=0
EXTRACT: note_on channel=5 note=70 velocity=40 time=0
EXTRACT: note_on channel=5 note=73 velocity=40 time=0
EXTRACT: note_on channel=5 note=78 velocity=40 time=0
EXTRACT: note_on channel=10 note=70 velocity=40 time=0
EXTRACT: note_on channel=10 note=73 velocity=40 time=0
EXTRACT: note_on channel=10 note=78 velocity=40 time=0
EXTRACT: note_on channel=6 note=42 velocity=40 time=0
EXTRACT: note_on channel=9 note=70 velocity=0 time=0.261160575
EXTRACT: note_on channel=9 note=41 velocity=0 time=0
EXTRACT: note_on channel=9 note=47 velocity=0 time=0
EXTRACT: note_on channel=9 note=41 velocity=0 time=0
EXTRACT: note_on channel=9 note=47 velocity=0 time=0
EXTRACT: note_on channel=9 note=70 velocity=60 time=0.006696425000000001
EXTRACT: note_on channel=9 note=41 velocity=60 time=0
EXTRACT: note_on channel=9 note=47 velocity=60 time=0
EXTRACT: note_on channel=9 note=70 velocity=0 time=0.127232075
EXTRACT: note_on channel=9 note=41 velocity=0 time=0
EXTRACT: note_on channel=9 note=47 velocity=0 time=0
EXTRACT: note_on channel=9 note=70 velocity=60 time=0.006696425000000001
EXTRACT: note_on channel=9 note=41 velocity=60 time=0
EXTRACT: note_on channel=9 note=47 velocity=60 time=0
EXTRACT: note_on channel=9 note=41 velocity=105 time=0.1339285
EXTRACT: note_on channel=9 note=47 velocity=105 time=0
EXTRACT: note_on channel=9 note=70 velocity=0 time=0.127232075
EXTRACT: note_on channel=9 note=41 velocity=0 time=0
EXTRACT: note_on channel=9 note=47 velocity=0 time=0
EXTRACT: note_on channel=9 note=70 velocity=60 time=0.006696425000000001
EXTRACT: note_on channel=9 note=41 velocity=60 time=0
EXTRACT: note_on channel=9 note=47 velocity=60 time=0
EXTRACT: note_on channel=9 note=70 velocity=0 time=0.127232075
EXTRACT: note_on channel=9 note=41 velocity=0 time=0
EXTRACT: note_on channel=9 note=47 velocity=0 time=0
EXTRACT: note_on channel=9 note=41 velocity=0 time=0
EXTRACT: note_on channel=9 note=47 velocity=0 time=0
EXTRACT: note_on channel=9 note=70 velocity=60 time=0.006696425000000001
EXTRACT: note_on channel=9 note=41 velocity=60 time=0
EXTRACT: note_on channel=9 note=47 velocity=60 time=0
EXTRACT: note_on channel=0 note=78 velocity=0 time=0.1339285
EXTRACT: note_on channel=1 note=70 velocity=0 time=0
EXTRACT: note_on channel=1 note=73 velocity=0 time=0
EXTRACT: note_on channel=1 note=78 velocity=0 time=0
EXTRACT: note_on channel=2 note=42 velocity=0 time=0
EXTRACT: note_on channel=5 note=70 velocity=0 time=0
EXTRACT: note_on channel=5 note=73 velocity=0 time=0
EXTRACT: note_on channel=5 note=78 velocity=0 time=0
EXTRACT: note_on channel=10 note=70 velocity=0 time=0
EXTRACT: note_on channel=10 note=73 velocity=0 time=0
EXTRACT: note_on channel=10 note=78 velocity=0 time=0
EXTRACT: note_on channel=6 note=42 velocity=0 time=0
EXTRACT: note_on channel=9 note=70 velocity=0 time=0.127232075
EXTRACT: note_on channel=9 note=41 velocity=0 time=0
EXTRACT: note_on channel=9 note=47 velocity=0 time=0
EXTRACT: note_on channel=1 note=71 velocity=60 time=0.006696425000000001
EXTRACT: note_on channel=1 note=75 velocity=60 time=0
EXTRACT: note_on channel=1 note=78 velocity=60 time=0
EXTRACT: note_on channel=2 note=47 velocity=60 time=0
EXTRACT: note_on channel=3 note=71 velocity=60 time=0
EXTRACT: note_on channel=9 note=70 velocity=60 time=0
EXTRACT: note_on channel=9 note=41 velocity=60 time=0
EXTRACT: note_on channel=9 note=47 velocity=60 time=0
EXTRACT: note_on channel=9 note=41 velocity=105 time=0
EXTRACT: note_on channel=9 note=47 velocity=105 time=0
EXTRACT: note_on channel=5 note=71 velocity=40 time=0
EXTRACT: note_on channel=5 note=75 velocity=40 time=0
EXTRACT: note_on channel=5 note=78 velocity=40 time=0
EXTRACT: note_on channel=10 note=71 velocity=40 time=0
EXTRACT: note_on channel=10 note=75 velocity=40 time=0
EXTRACT: note_on channel=10 note=78 velocity=40 time=0
EXTRACT: note_on channel=6 note=47 velocity=40 time=0
EXTRACT: note_on channel=9 note=70 velocity=0 time=0.261160575
EXTRACT: note_on channel=9 note=41 velocity=0 time=0
EXTRACT: note_on channel=9 note=47 velocity=0 time=0
EXTRACT: note_on channel=9 note=41 velocity=0 time=0
EXTRACT: note_on channel=9 note=47 velocity=0 time=0
EXTRACT: note_on channel=9 note=70 velocity=60 time=0.006696425000000001
EXTRACT: note_on channel=9 note=41 velocity=60 time=0
EXTRACT: note_on channel=9 note=47 velocity=60 time=0
EXTRACT: note_on channel=9 note=70 velocity=0 time=0.127232075
EXTRACT: note_on channel=9 note=41 velocity=0 time=0
EXTRACT: note_on channel=9 note=47 velocity=0 time=0
EXTRACT: note_on channel=9 note=70 velocity=60 time=0.006696425000000001
EXTRACT: note_on channel=9 note=41 velocity=60 time=0
EXTRACT: note_on channel=9 note=47 velocity=60 time=0
EXTRACT: note_on channel=2 note=47 velocity=0 time=0.04464283333333333
EXTRACT: note_on channel=6 note=47 velocity=0 time=0
EXTRACT: note_on channel=2 note=46 velocity=60 time=0.08928566666666667
EXTRACT: note_on channel=9 note=41 velocity=105 time=0
EXTRACT: note_on channel=9 note=47 velocity=105 time=0
EXTRACT: note_on channel=6 note=46 velocity=40 time=0
EXTRACT: note_on channel=9 note=70 velocity=0 time=0.127232075
EXTRACT: note_on channel=9 note=41 velocity=0 time=0
EXTRACT: note_on channel=9 note=47 velocity=0 time=0
EXTRACT: note_on channel=9 note=70 velocity=60 time=0.006696425000000001
EXTRACT: note_on channel=9 note=41 velocity=60 time=0
EXTRACT: note_on channel=9 note=47 velocity=60 time=0
EXTRACT: note_on channel=9 note=70 velocity=0 time=0.127232075
EXTRACT: note_on channel=9 note=41 velocity=0 time=0
EXTRACT: note_on channel=9 note=47 velocity=0 time=0
EXTRACT: note_on channel=9 note=41 velocity=0 time=0
EXTRACT: note_on channel=9 note=47 velocity=0 time=0
EXTRACT: note_on channel=9 note=70 velocity=60 time=0.006696425000000001
EXTRACT: note_on channel=9 note=41 velocity=60 time=0
EXTRACT: note_on channel=9 note=47 velocity=60 time=0
EXTRACT: note_on channel=1 note=71 velocity=0 time=0.1339285
EXTRACT: note_on channel=1 note=75 velocity=0 time=0
EXTRACT: note_on channel=1 note=78 velocity=0 time=0
EXTRACT: note_on channel=3 note=71 velocity=0 time=0
EXTRACT: note_on channel=5 note=71 velocity=0 time=0
EXTRACT: note_on channel=5 note=75 velocity=0 time=0
EXTRACT: note_on channel=5 note=78 velocity=0 time=0
EXTRACT: note_on channel=10 note=71 velocity=0 time=0
EXTRACT: note_on channel=10 note=75 velocity=0 time=0
EXTRACT: note_on channel=10 note=78 velocity=0 time=0
EXTRACT: note_on channel=2 note=46 velocity=0 time=0.04464283333333333
EXTRACT: note_on channel=6 note=46 velocity=0 time=0
EXTRACT: note_on channel=9 note=70 velocity=0 time=0.08258924166666667
EXTRACT: note_on channel=9 note=41 velocity=0 time=0
EXTRACT: note_on channel=9 note=47 velocity=0 time=0
EXTRACT: note_on channel=1 note=70 velocity=60 time=0.006696425000000001
EXTRACT: note_on channel=1 note=75 velocity=60 time=0
EXTRACT: note_on channel=1 note=78 velocity=60 time=0
EXTRACT: note_on channel=2 note=44 velocity=60 time=0
EXTRACT: note_on channel=3 note=70 velocity=60 time=0
EXTRACT: note_on channel=9 note=70 velocity=60 time=0
EXTRACT: note_on channel=9 note=41 velocity=60 time=0
EXTRACT: note_on channel=9 note=47 velocity=60 time=0
EXTRACT: note_on channel=9 note=41 velocity=105 time=0
EXTRACT: note_on channel=9 note=47 velocity=105 time=0
EXTRACT: note_on channel=5 note=70 velocity=40 time=0
EXTRACT: note_on channel=5 note=75 velocity=40 time=0
EXTRACT: note_on channel=5 note=78 velocity=40 time=0
EXTRACT: note_on channel=10 note=70 velocity=40 time=0
EXTRACT: note_on channel=10 note=75 velocity=40 time=0
EXTRACT: note_on channel=10 note=78 velocity=40 time=0
EXTRACT: note_on channel=6 note=44 velocity=40 time=0
EXTRACT: note_on channel=1 note=70 velocity=0 time=0.261160575
EXTRACT: note_on channel=1 note=75 velocity=0 time=0
EXTRACT: note_on channel=1 note=78 velocity=0 time=0
EXTRACT: note_on channel=3 note=70 velocity=0 time=0
EXTRACT: note_on channel=9 note=70 velocity=0 time=0
EXTRACT: note_on channel=9 note=41 velocity=0 time=0
EXTRACT: note_on channel=9 note=47 velocity=0 time=0
EXTRACT: note_on channel=9 note=41 velocity=0 time=0
EXTRACT: note_on channel=9 note=47 velocity=0 time=0
EXTRACT: note_on channel=5 note=70 velocity=0 time=0
EXTRACT: note_on channel=5 note=75 velocity=0 time=0
EXTRACT: note_on channel=5 note=78 velocity=0 time=0
EXTRACT: note_on channel=10 note=70 velocity=0 time=0
EXTRACT: note_on channel=10 note=75 velocity=0 time=0
EXTRACT: note_on channel=10 note=78 velocity=0 time=0
EXTRACT: note_on channel=1 note=68 velocity=60 time=0.006696425000000001
EXTRACT: note_on channel=1 note=73 velocity=60 time=0
EXTRACT: note_on channel=1 note=78 velocity=60 time=0
EXTRACT: note_on channel=3 note=68 velocity=60 time=0
EXTRACT: note_on channel=9 note=70 velocity=60 time=0
EXTRACT: note_on channel=9 note=41 velocity=60 time=0
EXTRACT: note_on channel=9 note=47 velocity=60 time=0
EXTRACT: note_on channel=5 note=68 velocity=40 time=0
EXTRACT: note_on channel=5 note=73 velocity=40 time=0
EXTRACT: note_on channel=5 note=78 velocity=40 time=0
EXTRACT: note_on channel=10 note=68 velocity=40 time=0
EXTRACT: note_on channel=10 note=73 velocity=40 time=0
EXTRACT: note_on channel=10 note=78 velocity=40 time=0
EXTRACT: note_on channel=9 note=70 velocity=0 time=0.127232075
EXTRACT: note_on channel=9 note=41 velocity=0 time=0
EXTRACT: note_on channel=9 note=47 velocity=0 time=0
EXTRACT: note_on channel=9 note=70 velocity=60 time=0.006696425000000001
EXTRACT: note_on channel=9 note=41 velocity=60 time=0
EXTRACT: note_on channel=9 note=47 velocity=60 time=0
EXTRACT: note_on channel=1 note=68 velocity=0 time=0.127232075
EXTRACT: note_on channel=1 note=73 velocity=0 time=0
EXTRACT: note_on channel=1 note=78 velocity=0 time=0
EXTRACT: note_on channel=3 note=68 velocity=0 time=0
EXTRACT: note_on channel=5 note=68 velocity=0 time=0
EXTRACT: note_on channel=5 note=73 velocity=0 time=0
EXTRACT: note_on channel=5 note=78 velocity=0 time=0
EXTRACT: note_on channel=10 note=68 velocity=0 time=0
EXTRACT: note_on channel=10 note=73 velocity=0 time=0
EXTRACT: note_on channel=10 note=78 velocity=0 time=0
EXTRACT: note_on channel=1 note=68 velocity=60 time=0.006696425000000001
EXTRACT: note_on channel=1 note=73 velocity=60 time=0
EXTRACT: note_on channel=1 note=78 velocity=60 time=0
EXTRACT: note_on channel=3 note=68 velocity=60 time=0
EXTRACT: note_on channel=9 note=41 velocity=105 time=0
EXTRACT: note_on channel=9 note=47 velocity=105 time=0
EXTRACT: note_on channel=5 note=68 velocity=40 time=0
EXTRACT: note_on channel=5 note=73 velocity=40 time=0
EXTRACT: note_on channel=5 note=78 velocity=40 time=0
EXTRACT: note_on channel=10 note=68 velocity=40 time=0
EXTRACT: note_on channel=10 note=73 velocity=40 time=0
EXTRACT: note_on channel=10 note=78 velocity=40 time=0
EXTRACT: note_on channel=9 note=70 velocity=0 time=0.127232075
EXTRACT: note_on channel=9 note=41 velocity=0 time=0
EXTRACT: note_on channel=9 note=47 velocity=0 time=0
EXTRACT: note_on channel=9 note=70 velocity=60 time=0.006696425000000001
EXTRACT: note_on channel=9 note=41 velocity=60 time=0
EXTRACT: note_on channel=9 note=47 velocity=60 time=0
EXTRACT: note_on channel=9 note=70 velocity=0 time=0.127232075
EXTRACT: note_on channel=9 note=41 velocity=0 time=0
EXTRACT: note_on channel=9 note=47 velocity=0 time=0
EXTRACT: note_on channel=9 note=41 velocity=0 time=0
EXTRACT: note_on channel=9 note=47 velocity=0 time=0
EXTRACT: note_on channel=9 note=70 velocity=60 time=0.006696425000000001
EXTRACT: note_on channel=9 note=41 velocity=60 time=0
EXTRACT: note_on channel=9 note=47 velocity=60 time=0
EXTRACT: note_on channel=2 note=44 velocity=0 time=0.1339285
EXTRACT: note_on channel=6 note=44 velocity=0 time=0
EXTRACT: note_on channel=1 note=68 velocity=0 time=0.04464283333333333
EXTRACT: note_on channel=1 note=73 velocity=0 time=0
EXTRACT: note_on channel=1 note=78 velocity=0 time=0
EXTRACT: note_on channel=3 note=68 velocity=0 time=0
EXTRACT: note_on channel=5 note=68 velocity=0 time=0
EXTRACT: note_on channel=5 note=73 velocity=0 time=0
EXTRACT: note_on channel=5 note=78 velocity=0 time=0
EXTRACT: note_on channel=10 note=68 velocity=0 time=0
EXTRACT: note_on channel=10 note=73 velocity=0 time=0
EXTRACT: note_on channel=10 note=78 velocity=0 time=0
EXTRACT: note_on channel=9 note=70 velocity=0 time=0.08258924166666667
EXTRACT: note_on channel=9 note=41 velocity=0 time=0
EXTRACT: note_on channel=9 note=47 velocity=0 time=0
EXTRACT: note_on channel=0 note=78 velocity=60 time=0.006696425000000001
EXTRACT: note_on channel=1 note=68 velocity=60 time=0
EXTRACT: note_on channel=1 note=73 velocity=60 time=0
EXTRACT: note_on channel=1 note=78 velocity=60 time=0
EXTRACT: note_on channel=2 note=49 velocity=60 time=0
EXTRACT: note_on channel=9 note=70 velocity=60 time=0
EXTRACT: note_on channel=9 note=41 velocity=60 time=0
EXTRACT: note_on channel=9 note=47 velocity=60 time=0
EXTRACT: note_on channel=9 note=41 velocity=105 time=0
EXTRACT: note_on channel=9 note=47 velocity=105 time=0
EXTRACT: note_on channel=5 note=68 velocity=40 time=0
EXTRACT: note_on channel=5 note=73 velocity=40 time=0
EXTRACT: note_on channel=5 note=78 velocity=40 time=0
EXTRACT: note_on channel=10 note=68 velocity=40 time=0
EXTRACT: note_on channel=10 note=73 velocity=40 time=0
EXTRACT: note_on channel=10 note=78 velocity=40 time=0
EXTRACT: note_on channel=6 note=49 velocity=40 time=0
EXTRACT: note_on channel=9 note=70 velocity=0 time=0.261160575
EXTRACT: note_on channel=9 note=41 velocity=0 time=0
EXTRACT: note_on channel=9 note=47 velocity=0 time=0
EXTRACT: note_on channel=9 note=41 velocity=0 time=0
EXTRACT: note_on channel=9 note=47 velocity=0 time=0
EXTRACT: note_on channel=9 note=70 velocity=60 time=0.006696425000000001
EXTRACT: note_on channel=9 note=41 velocity=60 time=0
EXTRACT: note_on channel=9 note=47 velocity=60 time=0
EXTRACT: note_on channel=0 note=78 velocity=0 time=0.127232075
EXTRACT: note_on channel=1 note=68 velocity=0 time=0
EXTRACT: note_on channel=1 note=73 velocity=0 time=0
EXTRACT: note_on channel=1 note=78 velocity=0 time=0
EXTRACT: note_on channel=9 note=70 velocity=0 time=0
EXTRACT: note_on channel=9 note=41 velocity=0 time=0
EXTRACT: note_on channel=9 note=47 velocity=0 time=0
EXTRACT: note_on channel=5 note=68 velocity=0 time=0
EXTRACT: note_on channel=5 note=73 velocity=0 time=0
EXTRACT: note_on channel=5 note=78 velocity=0 time=0
EXTRACT: note_on channel=10 note=68 velocity=0 time=0
EXTRACT: note_on channel=10 note=73 velocity=0 time=0
EXTRACT: note_on channel=10 note=78 velocity=0 time=0
EXTRACT: note_on channel=0 note=78 velocity=60 time=0.006696425000000001
EXTRACT: note_on channel=1 note=68 velocity=60 time=0
EXTRACT: note_on channel=1 note=73 velocity=60 time=0
EXTRACT: note_on channel=1 note=78 velocity=60 time=0
EXTRACT: note_on channel=9 note=70 velocity=60 time=0
EXTRACT: note_on channel=9 note=41 velocity=60 time=0
EXTRACT: note_on channel=9 note=47 velocity=60 time=0
EXTRACT: note_on channel=5 note=68 velocity=40 time=0
EXTRACT: note_on channel=5 note=73 velocity=40 time=0
EXTRACT: note_on channel=5 note=78 velocity=40 time=0
EXTRACT: note_on channel=10 note=68 velocity=40 time=0
EXTRACT: note_on channel=10 note=73 velocity=40 time=0
EXTRACT: note_on channel=10 note=78 velocity=40 time=0
EXTRACT: note_on channel=9 note=41 velocity=105 time=0.1339285
EXTRACT: note_on channel=9 note=47 velocity=105 time=0
EXTRACT: note_on channel=9 note=70 velocity=0 time=0.127232075
EXTRACT: note_on channel=9 note=41 velocity=0 time=0
EXTRACT: note_on channel=9 note=47 velocity=0 time=0
EXTRACT: note_on channel=9 note=70 velocity=60 time=0.006696425000000001
EXTRACT: note_on channel=9 note=41 velocity=60 time=0
EXTRACT: note_on channel=9 note=47 velocity=60 time=0
EXTRACT: note_on channel=0 note=78 velocity=0 time=0.127232075
EXTRACT: note_on channel=1 note=68 velocity=0 time=0
EXTRACT: note_on channel=1 note=73 velocity=0 time=0
EXTRACT: note_on channel=1 note=78 velocity=0 time=0
EXTRACT: note_on channel=9 note=70 velocity=0 time=0
EXTRACT: note_on channel=9 note=41 velocity=0 time=0
EXTRACT: note_on channel=9 note=47 velocity=0 time=0
EXTRACT: note_on channel=9 note=41 velocity=0 time=0
EXTRACT: note_on channel=9 note=47 velocity=0 time=0
EXTRACT: note_on channel=5 note=68 velocity=0 time=0
EXTRACT: note_on channel=5 note=73 velocity=0 time=0
EXTRACT: note_on channel=5 note=78 velocity=0 time=0
EXTRACT: note_on channel=10 note=68 velocity=0 time=0
EXTRACT: note_on channel=10 note=73 velocity=0 time=0
EXTRACT: note_on channel=10 note=78 velocity=0 time=0
EXTRACT: note_on channel=0 note=73 velocity=60 time=0.006696425000000001
EXTRACT: note_on channel=1 note=73 velocity=60 time=0
EXTRACT: note_on channel=9 note=70 velocity=60 time=0
EXTRACT: note_on channel=9 note=41 velocity=60 time=0
EXTRACT: note_on channel=9 note=47 velocity=60 time=0
EXTRACT: note_on channel=5 note=73 velocity=40 time=0
EXTRACT: note_on channel=10 note=73 velocity=40 time=0
EXTRACT: note_on channel=2 note=49 velocity=0 time=0.1339285
EXTRACT: note_on channel=6 note=49 velocity=0 time=0
EXTRACT: note_on channel=0 note=73 velocity=0 time=0.127232075
EXTRACT: note_on channel=1 note=73 velocity=0 time=0
EXTRACT: note_on channel=9 note=70 velocity=0 time=0
EXTRACT: note_on channel=9 note=41 velocity=0 time=0
EXTRACT: note_on channel=9 note=47 velocity=0 time=0
EXTRACT: note_on channel=5 note=73 velocity=0 time=0
EXTRACT: note_on channel=10 note=73 velocity=0 time=0
EXTRACT: note_on channel=0 note=75 velocity=60 time=0.006696425000000001
EXTRACT: note_on channel=1 note=66 velocity=60 time=0
EXTRACT: note_on channel=1 note=70 velocity=60 time=0
EXTRACT: note_on channel=1 note=75 velocity=60 time=0
EXTRACT: note_on channel=2 note=42 velocity=60 time=0
EXTRACT: note_on channel=9 note=70 velocity=60 time=0
EXTRACT: note_on channel=9 note=41 velocity=60 time=0
EXTRACT: note_on channel=9 note=47 velocity=60 time=0
EXTRACT: note_on channel=9 note=41 velocity=105 time=0
EXTRACT: note_on channel=9 note=47 velocity=105 time=0
EXTRACT: note_on channel=5 note=66 velocity=40 time=0
EXTRACT: note_on channel=5 note=70 velocity=40 time=0
EXTRACT: note_on channel=5 note=75 velocity=40 time=0
EXTRACT: note_on channel=10 note=66 velocity=40 time=0
EXTRACT: note_on channel=10 note=70 velocity=40 time=0
EXTRACT: note_on channel=10 note=75 velocity=40 time=0
EXTRACT: note_on channel=6 note=42 velocity=40 time=0
EXTRACT: note_on channel=9 note=70 velocity=0 time=0.261160575
EXTRACT: note_on channel=9 note=41 velocity=0 time=0
EXTRACT: note_on channel=9 note=47 velocity=0 time=0
EXTRACT: note_on channel=9 note=41 velocity=0 time=0
EXTRACT: note_on channel=9 note=47 velocity=0 time=0
EXTRACT: note_on channel=9 note=70 velocity=60 time=0.006696425000000001
EXTRACT: note_on channel=9 note=41 velocity=60 time=0
EXTRACT: note_on channel=9 note=47 velocity=60 time=0
EXTRACT: note_on channel=9 note=70 velocity=0 time=0.127232075
EXTRACT: note_on channel=9 note=41 velocity=0 time=0
EXTRACT: note_on channel=9 note=47 velocity=0 time=0
EXTRACT: note_on channel=9 note=70 velocity=60 time=0.006696425000000001
EXTRACT: note_on channel=9 note=41 velocity=60 time=0
EXTRACT: note_on channel=9 note=47 velocity=60 time=0
EXTRACT: note_on channel=1 note=66 velocity=0 time=0.04464283333333333
EXTRACT: note_on channel=1 note=70 velocity=0 time=0
EXTRACT: note_on channel=1 note=75 velocity=0 time=0
EXTRACT: note_on channel=5 note=66 velocity=0 time=0
EXTRACT: note_on channel=5 note=70 velocity=0 time=0
EXTRACT: note_on channel=5 note=75 velocity=0 time=0
EXTRACT: note_on channel=10 note=66 velocity=0 time=0
EXTRACT: note_on channel=10 note=70 velocity=0 time=0
EXTRACT: note_on channel=10 note=75 velocity=0 time=0
EXTRACT: note_on channel=0 note=75 velocity=0 time=0.08928566666666667
EXTRACT: note_on channel=0 note=73 velocity=60 time=0
EXTRACT: note_on channel=1 note=73 velocity=60 time=0
EXTRACT: note_on channel=9 note=41 velocity=105 time=0
EXTRACT: note_on channel=9 note=47 velocity=105 time=0
EXTRACT: note_on channel=5 note=73 velocity=40 time=0
EXTRACT: note_on channel=10 note=73 velocity=40 time=0
EXTRACT: note_on channel=9 note=70 velocity=0 time=0.127232075
EXTRACT: note_on channel=9 note=41 velocity=0 time=0
EXTRACT: note_on channel=9 note=47 velocity=0 time=0
EXTRACT: note_on channel=9 note=70 velocity=60 time=0.006696425000000001
EXTRACT: note_on channel=9 note=41 velocity=60 time=0
EXTRACT: note_on channel=9 note=47 velocity=60 time=0
EXTRACT: note_on channel=9 note=70 velocity=0 time=0.127232075
EXTRACT: note_on channel=9 note=41 velocity=0 time=0
EXTRACT: note_on channel=9 note=47 velocity=0 time=0
EXTRACT: note_on channel=9 note=41 velocity=0 time=0
EXTRACT: note_on channel=9 note=47 velocity=0 time=0
EXTRACT: note_on channel=9 note=70 velocity=60 time=0.006696425000000001
EXTRACT: note_on channel=9 note=41 velocity=60 time=0
EXTRACT: note_on channel=9 note=47 velocity=60 time=0
EXTRACT: note_on channel=2 note=42 velocity=0 time=0.1339285
EXTRACT: note_on channel=6 note=42 velocity=0 time=0
EXTRACT: note_on channel=0 note=73 velocity=0 time=0.04464283333333333
EXTRACT: note_on channel=1 note=73 velocity=0 time=0
EXTRACT: note_on channel=5 note=73 velocity=0 time=0
EXTRACT: note_on channel=10 note=73 velocity=0 time=0
EXTRACT: note_on channel=9 note=70 velocity=0 time=0.08258924166666667
EXTRACT: note_on channel=9 note=41 velocity=0 time=0
EXTRACT: note_on channel=9 note=47 velocity=0 time=0
EXTRACT: note_on channel=1 note=71 velocity=60 time=0.006696425000000001
EXTRACT: note_on channel=1 note=75 velocity=60 time=0
EXTRACT: note_on channel=1 note=78 velocity=60 time=0
EXTRACT: note_on channel=2 note=47 velocity=60 time=0
EXTRACT: note_on channel=3 note=71 velocity=60 time=0
EXTRACT: note_on channel=9 note=70 velocity=60 time=0
EXTRACT: note_on channel=9 note=41 velocity=60 time=0
EXTRACT: note_on channel=9 note=47 velocity=60 time=0
EXTRACT: note_on channel=9 note=41 velocity=105 time=0
EXTRACT: note_on channel=9 note=47 velocity=105 time=0
EXTRACT: note_on channel=5 note=71 velocity=40 time=0
EXTRACT: note_on channel=5 note=75 velocity=40 time=0
EXTRACT: note_on channel=5 note=78 velocity=40 time=0
EXTRACT: note_on channel=10 note=71 velocity=40 time=0
EXTRACT: note_on channel=10 note=75 velocity=40 time=0
EXTRACT: note_on channel=10 note=78 velocity=40 time=0
EXTRACT: note_on channel=6 note=47 velocity=40 time=0
EXTRACT: note_on channel=9 note=70 velocity=0 time=0.261160575
EXTRACT: note_on channel=9 note=41 velocity=0 time=0
EXTRACT: note_on channel=9 note=47 velocity=0 time=0
EXTRACT: note_on channel=9 note=41 velocity=0 time=0
EXTRACT: note_on channel=9 note=47 velocity=0 time=0
EXTRACT: note_on channel=9 note=70 velocity=60 time=0.006696425000000001
EXTRACT: note_on channel=9 note=41 velocity=60 time=0
EXTRACT: note_on channel=9 note=47 velocity=60 time=0
EXTRACT: note_on channel=9 note=70 velocity=0 time=0.127232075
EXTRACT: note_on channel=9 note=41 velocity=0 time=0
EXTRACT: note_on channel=9 note=47 velocity=0 time=0
EXTRACT: note_on channel=9 note=70 velocity=60 time=0.006696425000000001
EXTRACT: note_on channel=9 note=41 velocity=60 time=0
EXTRACT: note_on channel=9 note=47 velocity=60 time=0
EXTRACT: note_on channel=1 note=71 velocity=0 time=0.04464283333333333
EXTRACT: note_on channel=2 note=47 velocity=0 time=0
EXTRACT: note_on channel=5 note=71 velocity=0 time=0
EXTRACT: note_on channel=10 note=71 velocity=0 time=0
EXTRACT: note_on channel=6 note=47 velocity=0 time=0
EXTRACT: note_on channel=1 note=70 velocity=60 time=0.08928566666666667
EXTRACT: note_on channel=2 note=46 velocity=60 time=0
EXTRACT: note_on channel=3 note=71 velocity=0 time=0
EXTRACT: note_on channel=3 note=70 velocity=60 time=0
EXTRACT: note_on channel=9 note=41 velocity=105 time=0
EXTRACT: note_on channel=9 note=47 velocity=105 time=0
EXTRACT: note_on channel=5 note=70 velocity=40 time=0
EXTRACT: note_on channel=10 note=70 velocity=40 time=0
EXTRACT: note_on channel=6 note=46 velocity=40 time=0
EXTRACT: note_on channel=9 note=70 velocity=0 time=0.127232075
EXTRACT: note_on channel=9 note=41 velocity=0 time=0
EXTRACT: note_on channel=9 note=47 velocity=0 time=0
EXTRACT: note_on channel=9 note=70 velocity=60 time=0.006696425000000001
EXTRACT: note_on channel=9 note=41 velocity=60 time=0
EXTRACT: note_on channel=9 note=47 velocity=60 time=0
EXTRACT: note_on channel=9 note=70 velocity=0 time=0.127232075
EXTRACT: note_on channel=9 note=41 velocity=0 time=0
EXTRACT: note_on channel=9 note=47 velocity=0 time=0
EXTRACT: note_on channel=9 note=41 velocity=0 time=0
EXTRACT: note_on channel=9 note=47 velocity=0 time=0
EXTRACT: note_on channel=9 note=70 velocity=60 time=0.006696425000000001
EXTRACT: note_on channel=9 note=41 velocity=60 time=0
EXTRACT: note_on channel=9 note=47 velocity=60 time=0
EXTRACT: note_on channel=1 note=75 velocity=0 time=0.1339285
EXTRACT: note_on channel=1 note=78 velocity=0 time=0
EXTRACT: note_on channel=5 note=75 velocity=0 time=0
EXTRACT: note_on channel=5 note=78 velocity=0 time=0
EXTRACT: note_on channel=10 note=75 velocity=0 time=0
EXTRACT: note_on channel=10 note=78 velocity=0 time=0
EXTRACT: note_on channel=1 note=70 velocity=0 time=0.04464283333333333
EXTRACT: note_on channel=2 note=46 velocity=0 time=0
EXTRACT: note_on channel=3 note=70 velocity=0 time=0
EXTRACT: note_on channel=5 note=70 velocity=0 time=0
EXTRACT: note_on channel=10 note=70 velocity=0 time=0
EXTRACT: note_on channel=6 note=46 velocity=0 time=0
EXTRACT: note_on channel=9 note=70 velocity=0 time=0.08258924166666667
EXTRACT: note_on channel=9 note=41 velocity=0 time=0
EXTRACT: note_on channel=9 note=47 velocity=0 time=0
EXTRACT: note_on channel=1 note=70 velocity=60 time=0.006696425000000001
EXTRACT: note_on channel=1 note=75 velocity=60 time=0
EXTRACT: note_on channel=1 note=78 velocity=60 time=0
EXTRACT: note_on channel=2 note=44 velocity=60 time=0
EXTRACT: note_on channel=3 note=70 velocity=60 time=0
EXTRACT: note_on channel=9 note=70 velocity=60 time=0
EXTRACT: note_on channel=9 note=41 velocity=60 time=0
EXTRACT: note_on channel=9 note=47 velocity=60 time=0
EXTRACT: note_on channel=9 note=41 velocity=105 time=0
EXTRACT: note_on channel=9 note=47 velocity=105 time=0
EXTRACT: note_on channel=5 note=70 velocity=40 time=0
EXTRACT: note_on channel=5 note=75 velocity=40 time=0
EXTRACT: note_on channel=5 note=78 velocity=40 time=0
EXTRACT: note_on channel=10 note=70 velocity=40 time=0
EXTRACT: note_on channel=10 note=75 velocity=40 time=0
EXTRACT: note_on channel=10 note=78 velocity=40 time=0
EXTRACT: note_on channel=6 note=44 velocity=40 time=0
EXTRACT: note_on channel=1 note=70 velocity=0 time=0.261160575
EXTRACT: note_on channel=1 note=75 velocity=0 time=0
EXTRACT: note_on channel=1 note=78 velocity=0 time=0
EXTRACT: note_on channel=3 note=70 velocity=0 time=0
EXTRACT: note_on channel=9 note=70 velocity=0 time=0
EXTRACT: note_on channel=9 note=41 velocity=0 time=0
EXTRACT: note_on channel=9 note=47 velocity=0 time=0
EXTRACT: note_on channel=9 note=41 velocity=0 time=0
EXTRACT: note_on channel=9 note=47 velocity=0 time=0
EXTRACT: note_on channel=5 note=70 velocity=0 time=0
EXTRACT: note_on channel=5 note=75 velocity=0 time=0
EXTRACT: note_on channel=5 note=78 velocity=0 time=0
EXTRACT: note_on channel=10 note=70 velocity=0 time=0
EXTRACT: note_on channel=10 note=75 velocity=0 time=0
EXTRACT: note_on channel=10 note=78 velocity=0 time=0
EXTRACT: note_on channel=1 note=70 velocity=60 time=0.006696425000000001
EXTRACT: note_on channel=1 note=75 velocity=60 time=0
EXTRACT: note_on channel=1 note=78 velocity=60 time=0
EXTRACT: note_on channel=3 note=68 velocity=60 time=0
EXTRACT: note_on channel=9 note=70 velocity=60 time=0
EXTRACT: note_on channel=9 note=41 velocity=60 time=0
EXTRACT: note_on channel=9 note=47 velocity=60 time=0
EXTRACT: note_on channel=5 note=70 velocity=40 time=0
EXTRACT: note_on channel=5 note=75 velocity=40 time=0
EXTRACT: note_on channel=5 note=78 velocity=40 time=0
EXTRACT: note_on channel=10 note=70 velocity=40 time=0
EXTRACT: note_on channel=10 note=75 velocity=40 time=0
EXTRACT: note_on channel=10 note=78 velocity=40 time=0
EXTRACT: note_on channel=9 note=70 velocity=0 time=0.127232075
EXTRACT: note_on channel=9 note=41 velocity=0 time=0
EXTRACT: note_on channel=9 note=47 velocity=0 time=0
EXTRACT: note_on channel=9 note=70 velocity=60 time=0.006696425000000001
EXTRACT: note_on channel=9 note=41 velocity=60 time=0
EXTRACT: note_on channel=9 note=47 velocity=60 time=0
EXTRACT: note_on channel=1 note=70 velocity=0 time=0.127232075
EXTRACT: note_on channel=1 note=75 velocity=0 time=0
EXTRACT: note_on channel=1 note=78 velocity=0 time=0
EXTRACT: note_on channel=3 note=68 velocity=0 time=0
EXTRACT: note_on channel=5 note=70 velocity=0 time=0
EXTRACT: note_on channel=5 note=75 velocity=0 time=0
EXTRACT: note_on channel=5 note=78 velocity=0 time=0
EXTRACT: note_on channel=10 note=70 velocity=0 time=0
EXTRACT: note_on channel=10 note=75 velocity=0 time=0
EXTRACT: note_on channel=10 note=78 velocity=0 time=0
EXTRACT: note_on channel=1 note=70 velocity=60 time=0.006696425000000001
EXTRACT: note_on channel=1 note=75 velocity=60 time=0
EXTRACT: note_on channel=1 note=78 velocity=60 time=0
EXTRACT: note_on channel=3 note=68 velocity=60 time=0
EXTRACT: note_on channel=9 note=41 velocity=105 time=0
EXTRACT: note_on channel=9 note=47 velocity=105 time=0
EXTRACT: note_on channel=5 note=70 velocity=40 time=0
EXTRACT: note_on channel=5 note=75 velocity=40 time=0
EXTRACT: note_on channel=5 note=78 velocity=40 time=0
EXTRACT: note_on channel=10 note=70 velocity=40 time=0
EXTRACT: note_on channel=10 note=75 velocity=40 time=0
EXTRACT: note_on channel=10 note=78 velocity=40 time=0
EXTRACT: note_on channel=9 note=70 velocity=0 time=0.127232075
EXTRACT: note_on channel=9 note=41 velocity=0 time=0
EXTRACT: note_on channel=9 note=47 velocity=0 time=0
EXTRACT: note_on channel=9 note=70 velocity=60 time=0.006696425000000001
EXTRACT: note_on channel=9 note=41 velocity=60 time=0
EXTRACT: note_on channel=9 note=47 velocity=60 time=0
EXTRACT: note_on channel=9 note=70 velocity=0 time=0.127232075
EXTRACT: note_on channel=9 note=41 velocity=0 time=0
EXTRACT: note_on channel=9 note=47 velocity=0 time=0
EXTRACT: note_on channel=9 note=41 velocity=0 time=0
EXTRACT: note_on channel=9 note=47 velocity=0 time=0
EXTRACT: note_on channel=9 note=70 velocity=60 time=0.006696425000000001
EXTRACT: note_on channel=9 note=41 velocity=60 time=0
EXTRACT: note_on channel=9 note=47 velocity=60 time=0
EXTRACT: note_on channel=2 note=44 velocity=0 time=0.1339285
EXTRACT: note_on channel=6 note=44 velocity=0 time=0
EXTRACT: note_on channel=1 note=70 velocity=0 time=0.04464283333333333
EXTRACT: note_on channel=1 note=75 velocity=0 time=0
EXTRACT: note_on channel=1 note=78 velocity=0 time=0
EXTRACT: note_on channel=3 note=68 velocity=0 time=0
EXTRACT: note_on channel=5 note=70 velocity=0 time=0
EXTRACT: note_on channel=5 note=75 velocity=0 time=0
EXTRACT: note_on channel=5 note=78 velocity=0 time=0
EXTRACT: note_on channel=10 note=70 velocity=0 time=0
EXTRACT: note_on channel=10 note=75 velocity=0 time=0
EXTRACT: note_on channel=10 note=78 velocity=0 time=0
EXTRACT: note_on channel=9 note=70 velocity=0 time=0.08258924166666667
EXTRACT: note_on channel=9 note=41 velocity=0 time=0
EXTRACT: note_on channel=9 note=47 velocity=0 time=0
EXTRACT: note_on channel=0 note=73 velocity=60 time=0.006696425000000001
EXTRACT: note_on channel=1 note=66 velocity=60 time=0
EXTRACT: note_on channel=1 note=68 velocity=60 time=0
EXTRACT: note_on channel=1 note=73 velocity=60 time=0
EXTRACT: note_on channel=2 note=49 velocity=60 time=0
EXTRACT: note_on channel=9 note=70 velocity=60 time=0
EXTRACT: note_on channel=9 note=41 velocity=60 time=0
EXTRACT: note_on channel=9 note=47 velocity=60 time=0
EXTRACT: note_on channel=9 note=41 velocity=105 time=0
EXTRACT: note_on channel=9 note=47 velocity=105 time=0
EXTRACT: note_on channel=5 note=66 velocity=40 time=0
EXTRACT: note_on channel=5 note=68 velocity=40 time=0
EXTRACT: note_on channel=5 note=73 velocity=40 time=0
EXTRACT: note_on channel=10 note=66 velocity=40 time=0
EXTRACT: note_on channel=10 note=68 velocity=40 time=0
EXTRACT: note_on channel=10 note=73 velocity=40 time=0
EXTRACT: note_on channel=6 note=49 velocity=40 time=0
EXTRACT: note_on channel=9 note=70 velocity=0 time=0.261160575
EXTRACT: note_on channel=9 note=41 velocity=0 time=0
EXTRACT: note_on channel=9 note=47 velocity=0 time=0
EXTRACT: note_on channel=9 note=41 velocity=0 time=0
EXTRACT: note_on channel=9 note=47 velocity=0 time=0
EXTRACT: note_on channel=9 note=70 velocity=60 time=0.006696425000000001
EXTRACT: note_on channel=9 note=41 velocity=60 time=0
EXTRACT: note_on channel=9 note=47 velocity=60 time=0
EXTRACT: note_on channel=0 note=73 velocity=0 time=0.127232075
EXTRACT: note_on channel=1 note=66 velocity=0 time=0
EXTRACT: note_on channel=1 note=68 velocity=0 time=0
EXTRACT: note_on channel=1 note=73 velocity=0 time=0
EXTRACT: note_on channel=9 note=70 velocity=0 time=0
EXTRACT: note_on channel=9 note=41 velocity=0 time=0
EXTRACT: note_on channel=9 note=47 velocity=0 time=0
EXTRACT: note_on channel=5 note=66 velocity=0 time=0
EXTRACT: note_on channel=5 note=68 velocity=0 time=0
EXTRACT: note_on channel=5 note=73 velocity=0 time=0
EXTRACT: note_on channel=10 note=66 velocity=0 time=0
EXTRACT: note_on channel=10 note=68 velocity=0 time=0
EXTRACT: note_on channel=10 note=73 velocity=0 time=0
EXTRACT: note_on channel=0 note=73 velocity=60 time=0.006696425000000001
EXTRACT: note_on channel=1 note=66 velocity=60 time=0
EXTRACT: note_on channel=1 note=68 velocity=60 time=0
EXTRACT: note_on channel=1 note=73 velocity=60 time=0
EXTRACT: note_on channel=9 note=70 velocity=60 time=0
EXTRACT: note_on channel=9 note=41 velocity=60 time=0
EXTRACT: note_on channel=9 note=47 velocity=60 time=0
EXTRACT: note_on channel=5 note=66 velocity=40 time=0
EXTRACT: note_on channel=5 note=68 velocity=40 time=0
EXTRACT: note_on channel=5 note=73 velocity=40 time=0
EXTRACT: note_on channel=10 note=66 velocity=40 time=0
EXTRACT: note_on channel=10 note=68 velocity=40 time=0
EXTRACT: note_on channel=10 note=73 velocity=40 time=0
EXTRACT: note_on channel=1 note=66 velocity=0 time=0.127232075
EXTRACT: note_on channel=1 note=68 velocity=0 time=0
EXTRACT: note_on channel=1 note=73 velocity=0 time=0
EXTRACT: note_on channel=5 note=66 velocity=0 time=0
EXTRACT: note_on channel=5 note=68 velocity=0 time=0
EXTRACT: note_on channel=5 note=73 velocity=0 time=0
EXTRACT: note_on channel=10 note=66 velocity=0 time=0
EXTRACT: note_on channel=10 note=68 velocity=0 time=0
EXTRACT: note_on channel=10 note=73 velocity=0 time=0
EXTRACT: note_on channel=1 note=66 velocity=60 time=0.006696425000000001
EXTRACT: note_on channel=1 note=68 velocity=60 time=0
EXTRACT: note_on channel=1 note=73 velocity=60 time=0
EXTRACT: note_on channel=9 note=41 velocity=105 time=0
EXTRACT: note_on channel=9 note=47 velocity=105 time=0
EXTRACT: note_on channel=5 note=66 velocity=40 time=0
EXTRACT: note_on channel=5 note=68 velocity=40 time=0
EXTRACT: note_on channel=5 note=73 velocity=40 time=0
EXTRACT: note_on channel=10 note=66 velocity=40 time=0
EXTRACT: note_on channel=10 note=68 velocity=40 time=0
EXTRACT: note_on channel=10 note=73 velocity=40 time=0
EXTRACT: note_on channel=9 note=70 velocity=0 time=0.127232075
EXTRACT: note_on channel=9 note=41 velocity=0 time=0
EXTRACT: note_on channel=9 note=47 velocity=0 time=0
EXTRACT: note_on channel=9 note=70 velocity=60 time=0.006696425000000001
EXTRACT: note_on channel=9 note=41 velocity=60 time=0
EXTRACT: note_on channel=9 note=47 velocity=60 time=0
EXTRACT: note_on channel=0 note=73 velocity=0 time=0.127232075
EXTRACT: note_on channel=1 note=66 velocity=0 time=0
EXTRACT: note_on channel=1 note=68 velocity=0 time=0
EXTRACT: note_on channel=1 note=73 velocity=0 time=0
EXTRACT: note_on channel=9 note=70 velocity=0 time=0
EXTRACT: note_on channel=9 note=41 velocity=0 time=0
EXTRACT: note_on channel=9 note=47 velocity=0 time=0
EXTRACT: note_on channel=9 note=41 velocity=0 time=0
EXTRACT: note_on channel=9 note=47 velocity=0 time=0
EXTRACT: note_on channel=5 note=66 velocity=0 time=0
EXTRACT: note_on channel=5 note=68 velocity=0 time=0
EXTRACT: note_on channel=5 note=73 velocity=0 time=0
EXTRACT: note_on channel=10 note=66 velocity=0 time=0
EXTRACT: note_on channel=10 note=68 velocity=0 time=0
EXTRACT: note_on channel=10 note=73 velocity=0 time=0
EXTRACT: note_on channel=0 note=77 velocity=60 time=0.006696425000000001
EXTRACT: note_on channel=1 note=77 velocity=60 time=0
EXTRACT: note_on channel=9 note=70 velocity=60 time=0
EXTRACT: note_on channel=9 note=41 velocity=60 time=0
EXTRACT: note_on channel=9 note=47 velocity=60 time=0
EXTRACT: note_on channel=5 note=77 velocity=40 time=0
EXTRACT: note_on channel=10 note=77 velocity=40 time=0
EXTRACT: note_on channel=2 note=49 velocity=0 time=0.1339285
EXTRACT: note_on channel=6 note=49 velocity=0 time=0
EXTRACT: note_on channel=0 note=77 velocity=0 time=0.127232075
EXTRACT: note_on channel=1 note=77 velocity=0 time=0
EXTRACT: note_on channel=9 note=70 velocity=0 time=0
EXTRACT: note_on channel=9 note=41 velocity=0 time=0
EXTRACT: note_on channel=9 note=47 velocity=0 time=0
EXTRACT: note_on channel=5 note=77 velocity=0 time=0
EXTRACT: note_on channel=10 note=77 velocity=0 time=0
EXTRACT: note_on channel=0 note=78 velocity=45 time=0.006696425000000001
EXTRACT: note_on channel=1 note=70 velocity=45 time=0
EXTRACT: note_on channel=1 note=73 velocity=45 time=0
EXTRACT: note_on channel=1 note=78 velocity=45 time=0
EXTRACT: note_on channel=2 note=42 velocity=45 time=0
EXTRACT: note_on channel=9 note=70 velocity=45 time=0
EXTRACT: note_on channel=9 note=41 velocity=45 time=0
EXTRACT: note_on channel=9 note=47 velocity=45 time=0
EXTRACT: note_on channel=9 note=41 velocity=84 time=0
EXTRACT: note_on channel=9 note=47 velocity=84 time=0
EXTRACT: note_on channel=5 note=70 velocity=25 time=0
EXTRACT: note_on channel=5 note=73 velocity=25 time=0
EXTRACT: note_on channel=5 note=78 velocity=25 time=0
EXTRACT: note_on channel=10 note=70 velocity=25 time=0
EXTRACT: note_on channel=10 note=73 velocity=25 time=0
EXTRACT: note_on channel=10 note=78 velocity=25 time=0
EXTRACT: note_on channel=6 note=42 velocity=25 time=0
EXTRACT: note_on channel=9 note=70 velocity=0 time=0.261160575
EXTRACT: note_on channel=9 note=41 velocity=0 time=0
EXTRACT: note_on channel=9 note=47 velocity=0 time=0
EXTRACT: note_on channel=9 note=41 velocity=0 time=0
EXTRACT: note_on channel=9 note=47 velocity=0 time=0
EXTRACT: note_on channel=9 note=70 velocity=45 time=0.006696425000000001
EXTRACT: note_on channel=9 note=41 velocity=45 time=0
EXTRACT: note_on channel=9 note=47 velocity=45 time=0
EXTRACT: note_on channel=9 note=70 velocity=0 time=0.127232075
EXTRACT: note_on channel=9 note=41 velocity=0 time=0
EXTRACT: note_on channel=9 note=47 velocity=0 time=0
EXTRACT: note_on channel=9 note=70 velocity=45 time=0.006696425000000001
EXTRACT: note_on channel=9 note=41 velocity=45 time=0
EXTRACT: note_on channel=9 note=47 velocity=45 time=0
EXTRACT: note_on channel=9 note=41 velocity=84 time=0.1339285
EXTRACT: note_on channel=9 note=47 velocity=84 time=0
EXTRACT: note_on channel=9 note=70 velocity=0 time=0.127232075
EXTRACT: note_on channel=9 note=41 velocity=0 time=0
EXTRACT: note_on channel=9 note=47 velocity=0 time=0
EXTRACT: note_on channel=9 note=70 velocity=45 time=0.006696425000000001
EXTRACT: note_on channel=9 note=41 velocity=45 time=0
EXTRACT: note_on channel=9 note=47 velocity=45 time=0
EXTRACT: note_on channel=9 note=70 velocity=0 time=0.127232075
EXTRACT: note_on channel=9 note=41 velocity=0 time=0
EXTRACT: note_on channel=9 note=47 velocity=0 time=0
EXTRACT: note_on channel=9 note=41 velocity=0 time=0
EXTRACT: note_on channel=9 note=47 velocity=0 time=0
EXTRACT: note_on channel=9 note=70 velocity=45 time=0.006696425000000001
EXTRACT: note_on channel=9 note=41 velocity=45 time=0
EXTRACT: note_on channel=9 note=47 velocity=45 time=0
EXTRACT: note_on channel=0 note=78 velocity=0 time=0.1339285
EXTRACT: note_on channel=1 note=70 velocity=0 time=0
EXTRACT: note_on channel=1 note=73 velocity=0 time=0
EXTRACT: note_on channel=1 note=78 velocity=0 time=0
EXTRACT: note_on channel=2 note=42 velocity=0 time=0
EXTRACT: note_on channel=5 note=70 velocity=0 time=0
EXTRACT: note_on channel=5 note=73 velocity=0 time=0
EXTRACT: note_on channel=5 note=78 velocity=0 time=0
EXTRACT: note_on channel=10 note=70 velocity=0 time=0
EXTRACT: note_on channel=10 note=73 velocity=0 time=0
EXTRACT: note_on channel=10 note=78 velocity=0 time=0
EXTRACT: note_on channel=6 note=42 velocity=0 time=0
EXTRACT: note_on channel=9 note=70 velocity=0 time=0.127232075
EXTRACT: note_on channel=9 note=41 velocity=0 time=0
EXTRACT: note_on channel=9 note=47 velocity=0 time=0
EXTRACT: note_on channel=0 note=73 velocity=45 time=0.006696425000000001
EXTRACT: note_on channel=1 note=63 velocity=45 time=0
EXTRACT: note_on channel=1 note=66 velocity=45 time=0
EXTRACT: note_on channel=1 note=73 velocity=45 time=0
EXTRACT: note_on channel=2 note=47 velocity=45 time=0
EXTRACT: note_on channel=9 note=70 velocity=45 time=0
EXTRACT: note_on channel=9 note=41 velocity=45 time=0
EXTRACT: note_on channel=9 note=47 velocity=45 time=0
EXTRACT: note_on channel=9 note=41 velocity=84 time=0
EXTRACT: note_on channel=9 note=47 velocity=84 time=0
EXTRACT: note_on channel=5 note=63 velocity=25 time=0
EXTRACT: note_on channel=5 note=66 velocity=25 time=0
EXTRACT: note_on channel=5 note=73 velocity=25 time=0
EXTRACT: note_on channel=10 note=63 velocity=25 time=0
EXTRACT: note_on channel=10 note=66 velocity=25 time=0
EXTRACT: note_on channel=10 note=73 velocity=25 time=0
EXTRACT: note_on channel=6 note=47 velocity=25 time=0
EXTRACT: note_on channel=9 note=70 velocity=0 time=0.261160575
EXTRACT: note_on channel=9 note=41 velocity=0 time=0
EXTRACT: note_on channel=9 note=47 velocity=0 time=0
EXTRACT: note_on channel=9 note=41 velocity=0 time=0
EXTRACT: note_on channel=9 note=47 velocity=0 time=0
EXTRACT: note_on channel=9 note=70 velocity=45 time=0.006696425000000001
EXTRACT: note_on channel=9 note=41 velocity=45 time=0
EXTRACT: note_on channel=9 note=47 velocity=45 time=0
EXTRACT: note_on channel=0 note=73 velocity=0 time=0.127232075
EXTRACT: note_on channel=1 note=63 velocity=0 time=0
EXTRACT: note_on channel=1 note=66 velocity=0 time=0
EXTRACT: note_on channel=1 note=73 velocity=0 time=0
EXTRACT: note_on channel=9 note=70 velocity=0 time=0
EXTRACT: note_on channel=9 note=41 velocity=0 time=0
EXTRACT: note_on channel=9 note=47 velocity=0 time=0
EXTRACT: note_on channel=5 note=63 velocity=0 time=0
EXTRACT: note_on channel=5 note=66 velocity=0 time=0
EXTRACT: note_on channel=5 note=73 velocity=0 time=0
EXTRACT: note_on channel=10 note=63 velocity=0 time=0
EXTRACT: note_on channel=10 note=66 velocity=0 time=0
EXTRACT: note_on channel=10 note=73 velocity=0 time=0
EXTRACT: note_on channel=0 note=73 velocity=45 time=0.006696425000000001
EXTRACT: note_on channel=1 note=73 velocity=45 time=0
EXTRACT: note_on channel=9 note=70 velocity=45 time=0
EXTRACT: note_on channel=9 note=41 velocity=45 time=0
EXTRACT: note_on channel=9 note=47 velocity=45 time=0
EXTRACT: note_on channel=5 note=73 velocity=25 time=0
EXTRACT: note_on channel=10 note=73 velocity=25 time=0
EXTRACT: note_on channel=2 note=47 velocity=0 time=0.04464283333333333
EXTRACT: note_on channel=6 note=47 velocity=0 time=0
EXTRACT: note_on channel=2 note=46 velocity=45 time=0.08928566666666667
EXTRACT: note_on channel=9 note=41 velocity=84 time=0
EXTRACT: note_on channel=9 note=47 velocity=84 time=0
EXTRACT: note_on channel=6 note=46 velocity=25 time=0
EXTRACT: note_on channel=9 note=70 velocity=0 time=0.127232075
EXTRACT: note_on channel=9 note=41 velocity=0 time=0
EXTRACT: note_on channel=9 note=47 velocity=0 time=0
EXTRACT: note_on channel=9 note=70 velocity=45 time=0.006696425000000001
EXTRACT: note_on channel=9 note=41 velocity=45 time=0
EXTRACT: note_on channel=9 note=47 velocity=45 time=0
EXTRACT: note_on channel=0 note=73 velocity=0 time=0.127232075
EXTRACT: note_on channel=1 note=73 velocity=0 time=0
EXTRACT: note_on channel=9 note=70 velocity=0 time=0
EXTRACT: note_on channel=9 note=41 velocity=0 time=0
EXTRACT: note_on channel=9 note=47 velocity=0 time=0
EXTRACT: note_on channel=9 note=41 velocity=0 time=0
EXTRACT: note_on channel=9 note=47 velocity=0 time=0
EXTRACT: note_on channel=5 note=73 velocity=0 time=0
EXTRACT: note_on channel=10 note=73 velocity=0 time=0
EXTRACT: note_on channel=0 note=73 velocity=45 time=0.006696425000000001
EXTRACT: note_on channel=1 note=73 velocity=45 time=0
EXTRACT: note_on channel=9 note=70 velocity=45 time=0
EXTRACT: note_on channel=9 note=41 velocity=45 time=0
EXTRACT: note_on channel=9 note=47 velocity=45 time=0
EXTRACT: note_on channel=5 note=73 velocity=25 time=0
EXTRACT: note_on channel=10 note=73 velocity=25 time=0
EXTRACT: note_on channel=2 note=46 velocity=0 time=0.17857133333333333
EXTRACT: note_on channel=6 note=46 velocity=0 time=0
EXTRACT: note_on channel=0 note=73 velocity=0 time=0.08258924166666667
EXTRACT: note_on channel=1 note=73 velocity=0 time=0
EXTRACT: note_on channel=9 note=70 velocity=0 time=0
EXTRACT: note_on channel=9 note=41 velocity=0 time=0
EXTRACT: note_on channel=9 note=47 velocity=0 time=0
EXTRACT: note_on channel=5 note=73 velocity=0 time=0
EXTRACT: note_on channel=10 note=73 velocity=0 time=0
EXTRACT: note_on channel=0 note=83 velocity=45 time=0.006696425000000001
EXTRACT: note_on channel=1 note=75 velocity=45 time=0
EXTRACT: note_on channel=1 note=78 velocity=45 time=0
EXTRACT: note_on channel=1 note=83 velocity=45 time=0
EXTRACT: note_on channel=2 note=44 velocity=45 time=0
EXTRACT: note_on channel=9 note=70 velocity=45 time=0
EXTRACT: note_on channel=9 note=41 velocity=45 time=0
EXTRACT: note_on channel=9 note=47 velocity=45 time=0
EXTRACT: note_on channel=9 note=41 velocity=63 time=0
EXTRACT: note_on channel=9 note=47 velocity=63 time=0
EXTRACT: note_on channel=5 note=75 velocity=25 time=0
EXTRACT: note_on channel=5 note=78 velocity=25 time=0
EXTRACT: note_on channel=5 note=83 velocity=25 time=0
EXTRACT: note_on channel=10 note=75 velocity=25 time=0
EXTRACT: note_on channel=10 note=78 velocity=25 time=0
EXTRACT: note_on channel=10 note=83 velocity=25 time=0
EXTRACT: note_on channel=6 note=44 velocity=25 time=0
EXTRACT: note_on channel=9 note=70 velocity=0 time=0.261160575
EXTRACT: note_on channel=9 note=41 velocity=0 time=0
EXTRACT: note_on channel=9 note=47 velocity=0 time=0
EXTRACT: note_on channel=9 note=41 velocity=0 time=0
EXTRACT: note_on channel=9 note=47 velocity=0 time=0
EXTRACT: note_on channel=9 note=70 velocity=45 time=0.006696425000000001
EXTRACT: note_on channel=9 note=41 velocity=45 time=0
EXTRACT: note_on channel=9 note=47 velocity=45 time=0
EXTRACT: note_on channel=0 note=83 velocity=0 time=0.127232075
EXTRACT: note_on channel=1 note=75 velocity=0 time=0
EXTRACT: note_on channel=1 note=78 velocity=0 time=0
EXTRACT: note_on channel=1 note=83 velocity=0 time=0
EXTRACT: note_on channel=9 note=70 velocity=0 time=0
EXTRACT: note_on channel=9 note=41 velocity=0 time=0
EXTRACT: note_on channel=9 note=47 velocity=0 time=0
EXTRACT: note_on channel=5 note=75 velocity=0 time=0
EXTRACT: note_on channel=5 note=78 velocity=0 time=0
EXTRACT: note_on channel=5 note=83 velocity=0 time=0
EXTRACT: note_on channel=10 note=75 velocity=0 time=0
EXTRACT: note_on channel=10 note=78 velocity=0 time=0
EXTRACT: note_on channel=10 note=83 velocity=0 time=0
EXTRACT: note_on channel=0 note=83 velocity=45 time=0.006696425000000001
EXTRACT: note_on channel=1 note=75 velocity=45 time=0
EXTRACT: note_on channel=1 note=78 velocity=45 time=0
EXTRACT: note_on channel=1 note=83 velocity=45 time=0
EXTRACT: note_on channel=9 note=70 velocity=45 time=0
EXTRACT: note_on channel=9 note=41 velocity=45 time=0
EXTRACT: note_on channel=9 note=47 velocity=45 time=0
EXTRACT: note_on channel=5 note=75 velocity=25 time=0
EXTRACT: note_on channel=5 note=78 velocity=25 time=0
EXTRACT: note_on channel=5 note=83 velocity=25 time=0
EXTRACT: note_on channel=10 note=75 velocity=25 time=0
EXTRACT: note_on channel=10 note=78 velocity=25 time=0
EXTRACT: note_on channel=10 note=83 velocity=25 time=0
EXTRACT: note_on channel=9 note=41 velocity=63 time=0.1339285
EXTRACT: note_on channel=9 note=47 velocity=63 time=0
EXTRACT: note_on channel=9 note=70 velocity=0 time=0.127232075
EXTRACT: note_on channel=9 note=41 velocity=0 time=0
EXTRACT: note_on channel=9 note=47 velocity=0 time=0
EXTRACT: note_on channel=9 note=70 velocity=45 time=0.006696425000000001
EXTRACT: note_on channel=9 note=41 velocity=45 time=0
EXTRACT: note_on channel=9 note=47 velocity=45 time=0
EXTRACT: note_on channel=0 note=83 velocity=0 time=0.127232075
EXTRACT: note_on channel=1 note=75 velocity=0 time=0
EXTRACT: note_on channel=1 note=78 velocity=0 time=0
EXTRACT: note_on channel=1 note=83 velocity=0 time=0
EXTRACT: note_on channel=9 note=70 velocity=0 time=0
EXTRACT: note_on channel=9 note=41 velocity=0 time=0
EXTRACT: note_on channel=9 note=47 velocity=0 time=0
EXTRACT: note_on channel=9 note=41 velocity=0 time=0
EXTRACT: note_on channel=9 note=47 velocity=0 time=0
EXTRACT: note_on channel=5 note=75 velocity=0 time=0
EXTRACT: note_on channel=5 note=78 velocity=0 time=0
EXTRACT: note_on channel=5 note=83 velocity=0 time=0
EXTRACT: note_on channel=10 note=75 velocity=0 time=0
EXTRACT: note_on channel=10 note=78 velocity=0 time=0
EXTRACT: note_on channel=10 note=83 velocity=0 time=0
EXTRACT: note_on channel=0 note=83 velocity=45 time=0.006696425000000001
EXTRACT: note_on channel=1 note=83 velocity=45 time=0
EXTRACT: note_on channel=9 note=70 velocity=45 time=0
EXTRACT: note_on channel=9 note=41 velocity=45 time=0
EXTRACT: note_on channel=9 note=47 velocity=45 time=0
EXTRACT: note_on channel=5 note=83 velocity=25 time=0
EXTRACT: note_on channel=10 note=83 velocity=25 time=0
EXTRACT: note_on channel=2 note=44 velocity=0 time=0.1339285
EXTRACT: note_on channel=6 note=44 velocity=0 time=0
EXTRACT: note_on channel=0 note=83 velocity=0 time=0.127232075
EXTRACT: note_on channel=1 note=83 velocity=0 time=0
EXTRACT: note_on channel=9 note=70 velocity=0 time=0
EXTRACT: note_on channel=9 note=41 velocity=0 time=0
EXTRACT: note_on channel=9 note=47 velocity=0 time=0
EXTRACT: note_on channel=5 note=83 velocity=0 time=0
EXTRACT: note_on channel=10 note=83 velocity=0 time=0
EXTRACT: note_on channel=0 note=83 velocity=45 time=0.006696425000000001
EXTRACT: note_on channel=1 note=73 velocity=45 time=0
EXTRACT: note_on channel=1 note=78 velocity=45 time=0
EXTRACT: note_on channel=1 note=83 velocity=45 time=0
EXTRACT: note_on channel=2 note=49 velocity=45 time=0
EXTRACT: note_on channel=9 note=70 velocity=45 time=0
EXTRACT: note_on channel=9 note=41 velocity=45 time=0
EXTRACT: note_on channel=9 note=47 velocity=45 time=0
EXTRACT: note_on channel=9 note=41 velocity=63 time=0
EXTRACT: note_on channel=9 note=47 velocity=63 time=0
EXTRACT: note_on channel=5 note=73 velocity=25 time=0
EXTRACT: note_on channel=5 note=78 velocity=25 time=0
EXTRACT: note_on channel=5 note=83 velocity=25 time=0
EXTRACT: note_on channel=10 note=73 velocity=25 time=0
EXTRACT: note_on channel=10 note=78 velocity=25 time=0
EXTRACT: note_on channel=10 note=83 velocity=25 time=0
EXTRACT: note_on channel=6 note=49 velocity=25 time=0
EXTRACT: note_on channel=9 note=70 velocity=0 time=0.261160575
EXTRACT: note_on channel=9 note=41 velocity=0 time=0
EXTRACT: note_on channel=9 note=47 velocity=0 time=0
EXTRACT: note_on channel=9 note=41 velocity=0 time=0
EXTRACT: note_on channel=9 note=47 velocity=0 time=0
EXTRACT: note_on channel=9 note=70 velocity=45 time=0.006696425000000001
EXTRACT: note_on channel=9 note=41 velocity=45 time=0
EXTRACT: note_on channel=9 note=47 velocity=45 time=0
EXTRACT: note_on channel=0 note=83 velocity=0 time=0.127232075
EXTRACT: note_on channel=1 note=73 velocity=0 time=0
EXTRACT: note_on channel=1 note=78 velocity=0 time=0
EXTRACT: note_on channel=1 note=83 velocity=0 time=0
EXTRACT: note_on channel=9 note=70 velocity=0 time=0
EXTRACT: note_on channel=9 note=41 velocity=0 time=0
EXTRACT: note_on channel=9 note=47 velocity=0 time=0
EXTRACT: note_on channel=5 note=73 velocity=0 time=0
EXTRACT: note_on channel=5 note=78 velocity=0 time=0
EXTRACT: note_on channel=5 note=83 velocity=0 time=0
EXTRACT: note_on channel=10 note=73 velocity=0 time=0
EXTRACT: note_on channel=10 note=78 velocity=0 time=0
EXTRACT: note_on channel=10 note=83 velocity=0 time=0
EXTRACT: note_on channel=0 note=82 velocity=45 time=0.006696425000000001
EXTRACT: note_on channel=1 note=82 velocity=45 time=0
EXTRACT: note_on channel=9 note=70 velocity=45 time=0
EXTRACT: note_on channel=9 note=41 velocity=45 time=0
EXTRACT: note_on channel=9 note=47 velocity=45 time=0
EXTRACT: note_on channel=5 note=82 velocity=25 time=0
EXTRACT: note_on channel=10 note=82 velocity=25 time=0
EXTRACT: note_on channel=9 note=41 velocity=63 time=0.1339285
EXTRACT: note_on channel=9 note=47 velocity=63 time=0
EXTRACT: note_on channel=9 note=70 velocity=0 time=0.127232075
EXTRACT: note_on channel=9 note=41 velocity=0 time=0
EXTRACT: note_on channel=9 note=47 velocity=0 time=0
EXTRACT: note_on channel=9 note=70 velocity=45 time=0.006696425000000001
EXTRACT: note_on channel=9 note=41 velocity=45 time=0
EXTRACT: note_on channel=9 note=47 velocity=45 time=0
EXTRACT: note_on channel=0 note=82 velocity=0 time=0.127232075
EXTRACT: note_on channel=1 note=82 velocity=0 time=0
EXTRACT: note_on channel=9 note=70 velocity=0 time=0
EXTRACT: note_on channel=9 note=41 velocity=0 time=0
EXTRACT: note_on channel=9 note=47 velocity=0 time=0
EXTRACT: note_on channel=9 note=41 velocity=0 time=0
EXTRACT: note_on channel=9 note=47 velocity=0 time=0
EXTRACT: note_on channel=5 note=82 velocity=0 time=0
EXTRACT: note_on channel=10 note=82 velocity=0 time=0
EXTRACT: note_on channel=0 note=82 velocity=45 time=0.006696425000000001
EXTRACT: note_on channel=1 note=82 velocity=45 time=0
EXTRACT: note_on channel=9 note=70 velocity=45 time=0
EXTRACT: note_on channel=9 note=41 velocity=45 time=0
EXTRACT: note_on channel=9 note=47 velocity=45 time=0
EXTRACT: note_on channel=5 note=82 velocity=25 time=0
EXTRACT: note_on channel=10 note=82 velocity=25 time=0
EXTRACT: note_on channel=2 note=49 velocity=0 time=0.1339285
EXTRACT: note_on channel=6 note=49 velocity=0 time=0
EXTRACT: note_on channel=0 note=82 velocity=0 time=0.127232075
EXTRACT: note_on channel=1 note=82 velocity=0 time=0
EXTRACT: note_on channel=9 note=70 velocity=0 time=0
EXTRACT: note_on channel=9 note=41 velocity=0 time=0
EXTRACT: note_on channel=9 note=47 velocity=0 time=0
EXTRACT: note_on channel=5 note=82 velocity=0 time=0
EXTRACT: note_on channel=10 note=82 velocity=0 time=0
EXTRACT: note_on channel=0 note=82 velocity=45 time=0.006696425000000001
EXTRACT: note_on channel=1 note=73 velocity=30 time=0
EXTRACT: note_on channel=1 note=78 velocity=30 time=0
EXTRACT: note_on channel=1 note=82 velocity=30 time=0
EXTRACT: note_on channel=2 note=51 velocity=30 time=0
EXTRACT: note_on channel=9 note=70 velocity=30 time=0
EXTRACT: note_on channel=9 note=41 velocity=30 time=0
EXTRACT: note_on channel=9 note=47 velocity=30 time=0
EXTRACT: note_on channel=9 note=41 velocity=42 time=0
EXTRACT: note_on channel=9 note=47 velocity=42 time=0
EXTRACT: note_on channel=5 note=73 velocity=10 time=0
EXTRACT: note_on channel=5 note=78 velocity=10 time=0
EXTRACT: note_on channel=5 note=82 velocity=10 time=0
EXTRACT: note_on channel=10 note=73 velocity=10 time=0
EXTRACT: note_on channel=10 note=78 velocity=10 time=0
EXTRACT: note_on channel=10 note=82 velocity=10 time=0
EXTRACT: note_on channel=6 note=51 velocity=10 time=0
EXTRACT: note_on channel=9 note=70 velocity=0 time=0.261160575
EXTRACT: note_on channel=9 note=41 velocity=0 time=0
EXTRACT: note_on channel=9 note=47 velocity=0 time=0
EXTRACT: note_on channel=9 note=41 velocity=0 time=0
EXTRACT: note_on channel=9 note=47 velocity=0 time=0
EXTRACT: note_on channel=9 note=70 velocity=30 time=0.006696425000000001
EXTRACT: note_on channel=9 note=41 velocity=30 time=0
EXTRACT: note_on channel=9 note=47 velocity=30 time=0
EXTRACT: note_on channel=0 note=82 velocity=0 time=0.127232075
EXTRACT: note_on channel=1 note=73 velocity=0 time=0
EXTRACT: note_on channel=1 note=78 velocity=0 time=0
EXTRACT: note_on channel=1 note=82 velocity=0 time=0
EXTRACT: note_on channel=9 note=70 velocity=0 time=0
EXTRACT: note_on channel=9 note=41 velocity=0 time=0
EXTRACT: note_on channel=9 note=47 velocity=0 time=0
EXTRACT: note_on channel=5 note=73 velocity=0 time=0
EXTRACT: note_on channel=5 note=78 velocity=0 time=0
EXTRACT: note_on channel=5 note=82 velocity=0 time=0
EXTRACT: note_on channel=10 note=73 velocity=0 time=0
EXTRACT: note_on channel=10 note=78 velocity=0 time=0
EXTRACT: note_on channel=10 note=82 velocity=0 time=0
EXTRACT: note_on channel=0 note=80 velocity=45 time=0.006696425000000001
EXTRACT: note_on channel=1 note=80 velocity=30 time=0
EXTRACT: note_on channel=9 note=70 velocity=30 time=0
EXTRACT: note_on channel=9 note=41 velocity=30 time=0
EXTRACT: note_on channel=9 note=47 velocity=30 time=0
EXTRACT: note_on channel=5 note=80 velocity=10 time=0
EXTRACT: note_on channel=10 note=80 velocity=10 time=0
EXTRACT: note_on channel=9 note=41 velocity=42 time=0.1339285
EXTRACT: note_on channel=9 note=47 velocity=42 time=0
EXTRACT: note_on channel=9 note=70 velocity=0 time=0.127232075
EXTRACT: note_on channel=9 note=41 velocity=0 time=0
EXTRACT: note_on channel=9 note=47 velocity=0 time=0
EXTRACT: note_on channel=9 note=70 velocity=30 time=0.006696425000000001
EXTRACT: note_on channel=9 note=41 velocity=30 time=0
EXTRACT: note_on channel=9 note=47 velocity=30 time=0
EXTRACT: note_on channel=0 note=80 velocity=0 time=0.127232075
EXTRACT: note_on channel=1 note=80 velocity=0 time=0
EXTRACT: note_on channel=9 note=70 velocity=0 time=0
EXTRACT: note_on channel=9 note=41 velocity=0 time=0
EXTRACT: note_on channel=9 note=47 velocity=0 time=0
EXTRACT: note_on channel=9 note=41 velocity=0 time=0
EXTRACT: note_on channel=9 note=47 velocity=0 time=0
EXTRACT: note_on channel=5 note=80 velocity=0 time=0
EXTRACT: note_on channel=10 note=80 velocity=0 time=0
EXTRACT: note_on channel=0 note=80 velocity=45 time=0.006696425000000001
EXTRACT: note_on channel=1 note=80 velocity=30 time=0
EXTRACT: note_on channel=9 note=70 velocity=30 time=0
EXTRACT: note_on channel=9 note=41 velocity=30 time=0
EXTRACT: note_on channel=9 note=47 velocity=30 time=0
EXTRACT: note_on channel=5 note=80 velocity=10 time=0
EXTRACT: note_on channel=10 note=80 velocity=10 time=0
EXTRACT: note_on channel=2 note=51 velocity=0 time=0.1339285
EXTRACT: note_on channel=6 note=51 velocity=0 time=0
EXTRACT: note_on channel=0 note=80 velocity=0 time=0.127232075
EXTRACT: note_on channel=1 note=80 velocity=0 time=0
EXTRACT: note_on channel=9 note=70 velocity=0 time=0
EXTRACT: note_on channel=9 note=41 velocity=0 time=0
EXTRACT: note_on channel=9 note=47 velocity=0 time=0
EXTRACT: note_on channel=5 note=80 velocity=0 time=0
EXTRACT: note_on channel=10 note=80 velocity=0 time=0
EXTRACT: note_on channel=0 note=80 velocity=45 time=0.006696425000000001
EXTRACT: note_on channel=1 note=73 velocity=30 time=0
EXTRACT: note_on channel=1 note=75 velocity=30 time=0
EXTRACT: note_on channel=1 note=80 velocity=30 time=0
EXTRACT: note_on channel=2 note=47 velocity=30 time=0
EXTRACT: note_on channel=9 note=70 velocity=30 time=0
EXTRACT: note_on channel=9 note=41 velocity=30 time=0
EXTRACT: note_on channel=9 note=47 velocity=30 time=0
EXTRACT: note_on channel=9 note=41 velocity=42 time=0
EXTRACT: note_on channel=9 note=47 velocity=42 time=0
EXTRACT: note_on channel=5 note=73 velocity=10 time=0
EXTRACT: note_on channel=5 note=75 velocity=10 time=0
EXTRACT: note_on channel=5 note=80 velocity=10 time=0
EXTRACT: note_on channel=10 note=73 velocity=10 time=0
EXTRACT: note_on channel=10 note=75 velocity=10 time=0
EXTRACT: note_on channel=10 note=80 velocity=10 time=0
EXTRACT: note_on channel=6 note=47 velocity=10 time=0
EXTRACT: note_on channel=9 note=70 velocity=0 time=0.261160575
EXTRACT: note_on channel=9 note=41 velocity=0 time=0
EXTRACT: note_on channel=9 note=47 velocity=0 time=0
EXTRACT: note_on channel=9 note=41 velocity=0 time=0
EXTRACT: note_on channel=9 note=47 velocity=0 time=0
EXTRACT: note_on channel=9 note=70 velocity=30 time=0.006696425000000001
EXTRACT: note_on channel=9 note=41 velocity=30 time=0
EXTRACT: note_on channel=9 note=47 velocity=30 time=0
EXTRACT: note_on channel=0 note=80 velocity=0 time=0.127232075
EXTRACT: note_on channel=1 note=73 velocity=0 time=0
EXTRACT: note_on channel=1 note=75 velocity=0 time=0
EXTRACT: note_on channel=1 note=80 velocity=0 time=0
EXTRACT: note_on channel=9 note=70 velocity=0 time=0
EXTRACT: note_on channel=9 note=41 velocity=0 time=0
EXTRACT: note_on channel=9 note=47 velocity=0 time=0
EXTRACT: note_on channel=5 note=73 velocity=0 time=0
EXTRACT: note_on channel=5 note=75 velocity=0 time=0
EXTRACT: note_on channel=5 note=80 velocity=0 time=0
EXTRACT: note_on channel=10 note=73 velocity=0 time=0
EXTRACT: note_on channel=10 note=75 velocity=0 time=0
EXTRACT: note_on channel=10 note=80 velocity=0 time=0
EXTRACT: note_on channel=0 note=78 velocity=45 time=0.006696425000000001
EXTRACT: note_on channel=1 note=78 velocity=30 time=0
EXTRACT: note_on channel=9 note=70 velocity=30 time=0
EXTRACT: note_on channel=9 note=41 velocity=30 time=0
EXTRACT: note_on channel=9 note=47 velocity=30 time=0
EXTRACT: note_on channel=5 note=78 velocity=10 time=0
EXTRACT: note_on channel=10 note=78 velocity=10 time=0
EXTRACT: note_on channel=9 note=41 velocity=42 time=0.1339285
EXTRACT: note_on channel=9 note=47 velocity=42 time=0
EXTRACT: note_on channel=9 note=70 velocity=0 time=0.127232075
EXTRACT: note_on channel=9 note=41 velocity=0 time=0
EXTRACT: note_on channel=9 note=47 velocity=0 time=0
EXTRACT: note_on channel=9 note=70 velocity=30 time=0.006696425000000001
EXTRACT: note_on channel=9 note=41 velocity=30 time=0
EXTRACT: note_on channel=9 note=47 velocity=30 time=0
EXTRACT: note_on channel=0 note=78 velocity=0 time=0.127232075
EXTRACT: note_on channel=1 note=78 velocity=0 time=0
EXTRACT: note_on channel=9 note=70 velocity=0 time=0
EXTRACT: note_on channel=9 note=41 velocity=0 time=0
EXTRACT: note_on channel=9 note=47 velocity=0 time=0
EXTRACT: note_on channel=9 note=41 velocity=0 time=0
EXTRACT: note_on channel=9 note=47 velocity=0 time=0
EXTRACT: note_on channel=5 note=78 velocity=0 time=0
EXTRACT: note_on channel=10 note=78 velocity=0 time=0
EXTRACT: note_on channel=0 note=77 velocity=45 time=0.006696425000000001
EXTRACT: note_on channel=1 note=77 velocity=30 time=0
EXTRACT: note_on channel=9 note=70 velocity=30 time=0
EXTRACT: note_on channel=9 note=41 velocity=30 time=0
EXTRACT: note_on channel=9 note=47 velocity=30 time=0
EXTRACT: note_on channel=5 note=77 velocity=10 time=0
EXTRACT: note_on channel=10 note=77 velocity=10 time=0
EXTRACT: note_on channel=2 note=47 velocity=0 time=0.1339285
EXTRACT: note_on channel=6 note=47 velocity=0 time=0
EXTRACT: note_on channel=0 note=77 velocity=0 time=0.127232075
EXTRACT: note_on channel=1 note=77 velocity=0 time=0
EXTRACT: note_on channel=9 note=70 velocity=0 time=0
EXTRACT: note_on channel=9 note=41 velocity=0 time=0
EXTRACT: note_on channel=9 note=47 velocity=0 time=0
EXTRACT: note_on channel=5 note=77 velocity=0 time=0
EXTRACT: note_on channel=10 note=77 velocity=0 time=0
EXTRACT: note_on channel=0 note=78 velocity=10 time=0.006696425000000001
EXTRACT: note_on channel=1 note=71 velocity=10 time=0
EXTRACT: note_on channel=1 note=75 velocity=10 time=0
EXTRACT: note_on channel=1 note=78 velocity=10 time=0
EXTRACT: note_on channel=2 note=44 velocity=10 time=0
EXTRACT: note_on channel=9 note=70 velocity=10 time=0
EXTRACT: note_on channel=9 note=41 velocity=10 time=0
EXTRACT: note_on channel=9 note=47 velocity=10 time=0
EXTRACT: note_on channel=9 note=41 velocity=14 time=0
EXTRACT: note_on channel=9 note=47 velocity=14 time=0
EXTRACT: note_on channel=5 note=71 velocity=0 time=0
EXTRACT: note_on channel=5 note=75 velocity=0 time=0
EXTRACT: note_on channel=5 note=78 velocity=0 time=0
EXTRACT: note_on channel=10 note=71 velocity=0 time=0
EXTRACT: note_on channel=10 note=75 velocity=0 time=0
EXTRACT: note_on channel=10 note=78 velocity=0 time=0
EXTRACT: note_on channel=6 note=44 velocity=0 time=0
EXTRACT: note_on channel=9 note=70 velocity=0 time=0.261160575
EXTRACT: note_on channel=9 note=41 velocity=0 time=0
EXTRACT: note_on channel=9 note=47 velocity=0 time=0
EXTRACT: note_on channel=9 note=41 velocity=0 time=0
EXTRACT: note_on channel=9 note=47 velocity=0 time=0
EXTRACT: note_on channel=9 note=70 velocity=10 time=0.006696425000000001
EXTRACT: note_on channel=9 note=41 velocity=10 time=0
EXTRACT: note_on channel=9 note=47 velocity=10 time=0
EXTRACT: note_on channel=0 note=78 velocity=0 time=0.127232075
EXTRACT: note_on channel=1 note=71 velocity=0 time=0
EXTRACT: note_on channel=1 note=75 velocity=0 time=0
EXTRACT: note_on channel=1 note=78 velocity=0 time=0
EXTRACT: note_on channel=9 note=70 velocity=0 time=0
EXTRACT: note_on channel=9 note=41 velocity=0 time=0
EXTRACT: note_on channel=9 note=47 velocity=0 time=0
EXTRACT: note_on channel=5 note=71 velocity=0 time=0
EXTRACT: note_on channel=5 note=75 velocity=0 time=0
EXTRACT: note_on channel=5 note=78 velocity=0 time=0
EXTRACT: note_on channel=10 note=71 velocity=0 time=0
EXTRACT: note_on channel=10 note=75 velocity=0 time=0
EXTRACT: note_on channel=10 note=78 velocity=0 time=0
EXTRACT: note_on channel=0 note=78 velocity=10 time=0.006696425000000001
EXTRACT: note_on channel=1 note=71 velocity=10 time=0
EXTRACT: note_on channel=1 note=75 velocity=10 time=0
EXTRACT: note_on channel=1 note=78 velocity=10 time=0
EXTRACT: note_on channel=9 note=70 velocity=10 time=0
EXTRACT: note_on channel=9 note=41 velocity=10 time=0
EXTRACT: note_on channel=9 note=47 velocity=10 time=0
EXTRACT: note_on channel=5 note=71 velocity=0 time=0
EXTRACT: note_on channel=5 note=75 velocity=0 time=0
EXTRACT: note_on channel=5 note=78 velocity=0 time=0
EXTRACT: note_on channel=10 note=71 velocity=0 time=0
EXTRACT: note_on channel=10 note=75 velocity=0 time=0
EXTRACT: note_on channel=10 note=78 velocity=0 time=0
EXTRACT: note_on channel=9 note=41 velocity=14 time=0.1339285
EXTRACT: note_on channel=9 note=47 velocity=14 time=0
EXTRACT: note_on channel=9 note=70 velocity=0 time=0.127232075
EXTRACT: note_on channel=9 note=41 velocity=0 time=0
EXTRACT: note_on channel=9 note=47 velocity=0 time=0
EXTRACT: note_on channel=9 note=70 velocity=10 time=0.006696425000000001
EXTRACT: note_on channel=9 note=41 velocity=10 time=0
EXTRACT: note_on channel=9 note=47 velocity=10 time=0
EXTRACT: note_on channel=0 note=78 velocity=0 time=0.127232075
EXTRACT: note_on channel=1 note=71 velocity=0 time=0
EXTRACT: note_on channel=1 note=75 velocity=0 time=0
EXTRACT: note_on channel=1 note=78 velocity=0 time=0
EXTRACT: note_on channel=9 note=70 velocity=0 time=0
EXTRACT: note_on channel=9 note=41 velocity=0 time=0
EXTRACT: note_on channel=9 note=47 velocity=0 time=0
EXTRACT: note_on channel=9 note=41 velocity=0 time=0
EXTRACT: note_on channel=9 note=47 velocity=0 time=0
EXTRACT: note_on channel=5 note=71 velocity=0 time=0
EXTRACT: note_on channel=5 note=75 velocity=0 time=0
EXTRACT: note_on channel=5 note=78 velocity=0 time=0
EXTRACT: note_on channel=10 note=71 velocity=0 time=0
EXTRACT: note_on channel=10 note=75 velocity=0 time=0
EXTRACT: note_on channel=10 note=78 velocity=0 time=0
EXTRACT: note_on channel=0 note=80 velocity=10 time=0.006696425000000001
EXTRACT: note_on channel=1 note=80 velocity=10 time=0
EXTRACT: note_on channel=9 note=70 velocity=10 time=0
EXTRACT: note_on channel=9 note=41 velocity=10 time=0
EXTRACT: note_on channel=9 note=47 velocity=10 time=0
EXTRACT: note_on channel=5 note=80 velocity=0 time=0
EXTRACT: note_on channel=10 note=80 velocity=0 time=0
EXTRACT: note_on channel=2 note=44 velocity=0 time=0.1339285
EXTRACT: note_on channel=6 note=44 velocity=0 time=0
EXTRACT: note_on channel=0 note=80 velocity=0 time=0.127232075
EXTRACT: note_on channel=1 note=80 velocity=0 time=0
EXTRACT: note_on channel=9 note=70 velocity=0 time=0
EXTRACT: note_on channel=9 note=41 velocity=0 time=0
EXTRACT: note_on channel=9 note=47 velocity=0 time=0
EXTRACT: note_on channel=5 note=80 velocity=0 time=0
EXTRACT: note_on channel=10 note=80 velocity=0 time=0
EXTRACT: note_on channel=0 note=80 velocity=10 time=0.006696425000000001
EXTRACT: note_on channel=1 note=73 velocity=10 time=0
EXTRACT: note_on channel=1 note=78 velocity=10 time=0
EXTRACT: note_on channel=1 note=80 velocity=10 time=0
EXTRACT: note_on channel=2 note=49 velocity=10 time=0
EXTRACT: note_on channel=9 note=70 velocity=10 time=0
EXTRACT: note_on channel=9 note=41 velocity=10 time=0
EXTRACT: note_on channel=9 note=47 velocity=10 time=0
EXTRACT: note_on channel=9 note=41 velocity=14 time=0
EXTRACT: note_on channel=9 note=47 velocity=14 time=0
EXTRACT: note_on channel=5 note=73 velocity=0 time=0
EXTRACT: note_on channel=5 note=78 velocity=0 time=0
EXTRACT: note_on channel=5 note=80 velocity=0 time=0
EXTRACT: note_on channel=10 note=73 velocity=0 time=0
EXTRACT: note_on channel=10 note=78 velocity=0 time=0
EXTRACT: note_on channel=10 note=80 velocity=0 time=0
EXTRACT: note_on channel=6 note=49 velocity=0 time=0
EXTRACT: note_on channel=9 note=70 velocity=0 time=0.261160575
EXTRACT: note_on channel=9 note=41 velocity=0 time=0
EXTRACT: note_on channel=9 note=47 velocity=0 time=0
EXTRACT: note_on channel=9 note=41 velocity=0 time=0
EXTRACT: note_on channel=9 note=47 velocity=0 time=0
EXTRACT: note_on channel=9 note=70 velocity=10 time=0.006696425000000001
EXTRACT: note_on channel=9 note=41 velocity=10 time=0
EXTRACT: note_on channel=9 note=47 velocity=10 time=0
EXTRACT: note_on channel=9 note=70 velocity=0 time=0.127232075
EXTRACT: note_on channel=9 note=41 velocity=0 time=0
EXTRACT: note_on channel=9 note=47 velocity=0 time=0
EXTRACT: note_on channel=9 note=70 velocity=10 time=0.006696425000000001
EXTRACT: note_on channel=9 note=41 velocity=10 time=0
EXTRACT: note_on channel=9 note=47 velocity=10 time=0
EXTRACT: note_on channel=9 note=41 velocity=14 time=0.1339285
EXTRACT: note_on channel=9 note=47 velocity=14 time=0
EXTRACT: note_on channel=9 note=70 velocity=0 time=0.127232075
EXTRACT: note_on channel=9 note=41 velocity=0 time=0
EXTRACT: note_on channel=9 note=47 velocity=0 time=0
EXTRACT: note_on channel=9 note=70 velocity=10 time=0.006696425000000001
EXTRACT: note_on channel=9 note=41 velocity=10 time=0
EXTRACT: note_on channel=9 note=47 velocity=10 time=0
EXTRACT: note_on channel=9 note=70 velocity=0 time=0.127232075
EXTRACT: note_on channel=9 note=41 velocity=0 time=0
EXTRACT: note_on channel=9 note=47 velocity=0 time=0
EXTRACT: note_on channel=9 note=41 velocity=0 time=0
EXTRACT: note_on channel=9 note=47 velocity=0 time=0
EXTRACT: note_on channel=9 note=70 velocity=10 time=0.006696425000000001
EXTRACT: note_on channel=9 note=41 velocity=10 time=0
EXTRACT: note_on channel=9 note=47 velocity=10 time=0
EXTRACT: note_on channel=0 note=80 velocity=0 time=0.1339285
EXTRACT: note_on channel=1 note=73 velocity=0 time=0
EXTRACT: note_on channel=1 note=78 velocity=0 time=0
EXTRACT: note_on channel=1 note=80 velocity=0 time=0
EXTRACT: note_on channel=2 note=49 velocity=0 time=0
EXTRACT: note_on channel=5 note=73 velocity=0 time=0
EXTRACT: note_on channel=5 note=78 velocity=0 time=0
EXTRACT: note_on channel=5 note=80 velocity=0 time=0
EXTRACT: note_on channel=10 note=73 velocity=0 time=0
EXTRACT: note_on channel=10 note=78 velocity=0 time=0
EXTRACT: note_on channel=10 note=80 velocity=0 time=0
EXTRACT: note_on channel=6 note=49 velocity=0 time=0
EXTRACT: note_on channel=9 note=70 velocity=0 time=0.127232075
EXTRACT: note_on channel=9 note=41 velocity=0 time=0
EXTRACT: note_on channel=9 note=47 velocity=0 time=0
INTERVALS83 - AnimalSong.mid
unison738
2m59
2M103
3m18
3M23
4m34
4M0
5m17
5M1
6m4
7m9
7M0