EXTRACT: program_change channel=0 program=0 time=0
EXTRACT: control_change channel=0 control=7 value=100 time=0
EXTRACT: control_change channel=0 control=10 value=60 time=0
EXTRACT: program_change channel=1 program=42 time=0
EXTRACT: control_change channel=1 control=7 value=100 time=0
EXTRACT: control_change channel=1 control=10 value=70 time=0
EXTRACT: program_change channel=2 program=62 time=0
EXTRACT: control_change channel=2 control=7 value=100 time=0
EXTRACT: control_change channel=2 control=10 value=50 time=0
EXTRACT: program_change channel=3 program=61 time=0
EXTRACT: control_change channel=3 control=7 value=100 time=0
EXTRACT: control_change channel=3 control=10 value=80 time=0
EXTRACT: program_change channel=4 program=54 time=0
EXTRACT: control_change channel=4 control=7 value=110 time=0
EXTRACT: control_change channel=4 control=10 value=40 time=0
EXTRACT: program_change channel=5 program=52 time=0
EXTRACT: control_change channel=5 control=7 value=90 time=0
EXTRACT: control_change channel=5 control=10 value=80 time=0
EXTRACT: program_change channel=9 program=0 time=0
EXTRACT: control_change channel=9 control=7 value=127 time=0
EXTRACT: control_change channel=9 control=10 value=60 time=0
EXTRACT: note_on channel=0 note=41 velocity=100 time=1.8260864999999997
EXTRACT: note_on channel=0 note=41 velocity=0 time=0.2608695
EXTRACT: note_on channel=0 note=46 velocity=100 time=0
EXTRACT: note_on channel=1 note=70 velocity=100 time=0
EXTRACT: note_on channel=0 note=46 velocity=0 time=0.2608695
EXTRACT: note_on channel=0 note=49 velocity=100 time=0
EXTRACT: note_on channel=0 note=49 velocity=0 time=0.2608695
EXTRACT: note_on channel=1 note=70 velocity=0 time=0
EXTRACT: note_on channel=0 note=58 velocity=100 time=0
EXTRACT: note_on channel=0 note=61 velocity=100 time=0
EXTRACT: note_on channel=0 note=53 velocity=100 time=0
EXTRACT: note_on channel=0 note=53 velocity=0 time=0.2608695
EXTRACT: note_on channel=0 note=61 velocity=0 time=0
EXTRACT: note_on channel=0 note=58 velocity=0 time=0
EXTRACT: note_on channel=1 note=73 velocity=100 time=0.2608695
EXTRACT: note_on channel=0 note=58 velocity=100 time=0.2608695
EXTRACT: note_on channel=0 note=61 velocity=100 time=0
EXTRACT: note_on channel=0 note=61 velocity=0 time=0.2608695
EXTRACT: note_on channel=0 note=58 velocity=0 time=0
EXTRACT: note_on channel=1 note=73 velocity=0 time=0
EXTRACT: note_on channel=0 note=53 velocity=100 time=0.2608695
EXTRACT: note_on channel=0 note=53 velocity=0 time=0.2608695
EXTRACT: note_on channel=0 note=48 velocity=100 time=0
EXTRACT: note_on channel=1 note=72 velocity=100 time=0
EXTRACT: note_on channel=0 note=48 velocity=0 time=0.2608695
EXTRACT: note_on channel=0 note=53 velocity=100 time=0
EXTRACT: note_on channel=0 note=53 velocity=0 time=0.2608695
EXTRACT: note_on channel=1 note=72 velocity=0 time=0
EXTRACT: note_on channel=0 note=60 velocity=100 time=0
EXTRACT: note_on channel=0 note=57 velocity=100 time=0
EXTRACT: note_on channel=0 note=57 velocity=0 time=0.2608695
EXTRACT: note_on channel=0 note=60 velocity=0 time=0
EXTRACT: note_on channel=0 note=57 velocity=100 time=0
EXTRACT: note_on channel=0 note=66 velocity=100 time=0
EXTRACT: note_on channel=0 note=66 velocity=0 time=0.2608695
EXTRACT: note_on channel=0 note=57 velocity=0 time=0
EXTRACT: note_on channel=0 note=57 velocity=100 time=0
EXTRACT: note_on channel=0 note=65 velocity=100 time=0
EXTRACT: note_on channel=1 note=75 velocity=100 time=0
EXTRACT: note_on channel=0 note=65 velocity=0 time=0.2608695
EXTRACT: note_on channel=0 note=57 velocity=0 time=0
EXTRACT: note_on channel=1 note=75 velocity=0 time=0.2608695
EXTRACT: note_on channel=0 note=65 velocity=100 time=0.2608695
EXTRACT: note_on channel=0 note=65 velocity=0 time=0.2608695
EXTRACT: note_on channel=0 note=48 velocity=100 time=0
EXTRACT: note_on channel=0 note=57 velocity=100 time=0
EXTRACT: note_on channel=1 note=69 velocity=100 time=0
EXTRACT: note_on channel=0 note=57 velocity=0 time=0.2608695
EXTRACT: note_on channel=0 note=48 velocity=0 time=0
EXTRACT: note_on channel=0 note=60 velocity=100 time=0
EXTRACT: note_on channel=0 note=63 velocity=100 time=0
EXTRACT: note_on channel=0 note=53 velocity=100 time=0
EXTRACT: note_on channel=0 note=53 velocity=0 time=0.2608695
EXTRACT: note_on channel=1 note=69 velocity=0 time=0
EXTRACT: note_on channel=0 note=60 velocity=0 time=0
EXTRACT: note_on channel=0 note=63 velocity=0 time=0
EXTRACT: note_on channel=0 note=60 velocity=100 time=0
EXTRACT: note_on channel=0 note=63 velocity=100 time=0
EXTRACT: note_on channel=0 note=57 velocity=100 time=0
EXTRACT: note_on channel=0 note=57 velocity=0 time=0.2608695
EXTRACT: note_on channel=0 note=63 velocity=0 time=0
EXTRACT: note_on channel=0 note=60 velocity=0 time=0
EXTRACT: note_on channel=1 note=72 velocity=100 time=0.2608695
EXTRACT: note_on channel=0 note=57 velocity=100 time=0.2608695
EXTRACT: note_on channel=0 note=60 velocity=100 time=0
EXTRACT: note_on channel=0 note=63 velocity=100 time=0
EXTRACT: note_on channel=0 note=63 velocity=0 time=0.2608695
EXTRACT: note_on channel=1 note=72 velocity=0 time=0
EXTRACT: note_on channel=0 note=57 velocity=0 time=0
EXTRACT: note_on channel=0 note=60 velocity=0 time=0
EXTRACT: note_on channel=0 note=53 velocity=100 time=0.2608695
EXTRACT: note_on channel=0 note=53 velocity=0 time=0.2608695
EXTRACT: note_on channel=0 note=61 velocity=100 time=0
EXTRACT: note_on channel=0 note=58 velocity=100 time=0
EXTRACT: note_on channel=1 note=70 velocity=100 time=0
EXTRACT: note_on channel=9 note=45 velocity=100 time=0
EXTRACT: note_on channel=9 note=40 velocity=100 time=0
EXTRACT: note_on channel=9 note=35 velocity=100 time=0
EXTRACT: note_on channel=9 note=35 velocity=0 time=0.2608695
EXTRACT: note_on channel=9 note=45 velocity=0 time=0
EXTRACT: note_on channel=0 note=58 velocity=0 time=0
EXTRACT: note_on channel=0 note=61 velocity=0 time=0
EXTRACT: note_on channel=9 note=40 velocity=0 time=0
EXTRACT: note_on channel=0 note=58 velocity=100 time=0
EXTRACT: note_on channel=0 note=61 velocity=100 time=0
EXTRACT: note_on channel=9 note=45 velocity=100 time=0
EXTRACT: note_on channel=9 note=40 velocity=100 time=0
EXTRACT: note_on channel=9 note=35 velocity=100 time=0
EXTRACT: note_on channel=9 note=35 velocity=0 time=0.2608695
EXTRACT: note_on channel=0 note=58 velocity=0 time=0
EXTRACT: note_on channel=0 note=61 velocity=0 time=0
EXTRACT: note_on channel=1 note=70 velocity=0 time=0
EXTRACT: note_on channel=9 note=40 velocity=0 time=0
EXTRACT: note_on channel=9 note=45 velocity=0 time=0
EXTRACT: note_on channel=0 note=58 velocity=100 time=0
EXTRACT: note_on channel=0 note=61 velocity=100 time=0
EXTRACT: note_on channel=9 note=45 velocity=100 time=0
EXTRACT: note_on channel=9 note=40 velocity=100 time=0
EXTRACT: note_on channel=9 note=35 velocity=100 time=0
EXTRACT: note_on channel=9 note=35 velocity=0 time=0.2608695
EXTRACT: note_on channel=9 note=45 velocity=0 time=0
EXTRACT: note_on channel=0 note=58 velocity=0 time=0
EXTRACT: note_on channel=0 note=61 velocity=0 time=0
EXTRACT: note_on channel=9 note=40 velocity=0 time=0
EXTRACT: note_on channel=1 note=73 velocity=100 time=0.2608695
EXTRACT: note_on channel=9 note=56 velocity=100 time=0
EXTRACT: note_on channel=0 note=58 velocity=100 time=0.2608695
EXTRACT: note_on channel=0 note=61 velocity=100 time=0
EXTRACT: note_on channel=9 note=45 velocity=100 time=0
EXTRACT: note_on channel=9 note=40 velocity=100 time=0
EXTRACT: note_on channel=9 note=35 velocity=100 time=0
EXTRACT: note_on channel=9 note=35 velocity=0 time=0.2608695
EXTRACT: note_on channel=9 note=45 velocity=0 time=0
EXTRACT: note_on channel=9 note=56 velocity=0 time=0
EXTRACT: note_on channel=0 note=58 velocity=0 time=0
EXTRACT: note_on channel=1 note=73 velocity=0 time=0
EXTRACT: note_on channel=9 note=40 velocity=0 time=0
EXTRACT: note_on channel=0 note=61 velocity=0 time=0
EXTRACT: note_on channel=0 note=58 velocity=100 time=0
EXTRACT: note_on channel=0 note=61 velocity=100 time=0
EXTRACT: note_on channel=9 note=45 velocity=100 time=0
EXTRACT: note_on channel=9 note=40 velocity=100 time=0
EXTRACT: note_on channel=9 note=35 velocity=100 time=0
EXTRACT: note_on channel=9 note=56 velocity=100 time=0
EXTRACT: note_on channel=9 note=35 velocity=0 time=0.2608695
EXTRACT: note_on channel=9 note=40 velocity=0 time=0
EXTRACT: note_on channel=9 note=45 velocity=0 time=0
EXTRACT: note_on channel=0 note=58 velocity=0 time=0
EXTRACT: note_on channel=0 note=61 velocity=0 time=0
EXTRACT: note_on channel=9 note=56 velocity=0 time=0.2608695
EXTRACT: note_on channel=0 note=46 velocity=100 time=0
EXTRACT: note_on channel=1 note=70 velocity=100 time=0
EXTRACT: note_on channel=2 note=77 velocity=100 time=0
EXTRACT: note_on channel=3 note=77 velocity=100 time=0
EXTRACT: note_on channel=9 note=35 velocity=100 time=0
EXTRACT: note_on channel=9 note=56 velocity=100 time=0
EXTRACT: note_on channel=3 note=77 velocity=0 time=0.13043475
EXTRACT: note_on channel=2 note=77 velocity=0 time=0
EXTRACT: note_on channel=9 note=35 velocity=0 time=0.13043475
EXTRACT: note_on channel=0 note=46 velocity=0 time=0
EXTRACT: note_on channel=0 note=49 velocity=100 time=0
EXTRACT: note_on channel=2 note=77 velocity=100 time=0
EXTRACT: note_on channel=3 note=77 velocity=100 time=0
EXTRACT: note_on channel=0 note=49 velocity=0 time=0.2608695
EXTRACT: note_on channel=9 note=56 velocity=0 time=0
EXTRACT: note_on channel=1 note=70 velocity=0 time=0
EXTRACT: note_on channel=0 note=58 velocity=100 time=0
EXTRACT: note_on channel=0 note=61 velocity=100 time=0
EXTRACT: note_on channel=0 note=53 velocity=100 time=0
EXTRACT: note_on channel=9 note=40 velocity=100 time=0
EXTRACT: note_on channel=9 note=45 velocity=100 time=0
EXTRACT: note_on channel=9 note=56 velocity=100 time=0
EXTRACT: note_on channel=9 note=45 velocity=0 time=0.2608695
EXTRACT: note_on channel=0 note=61 velocity=0 time=0
EXTRACT: note_on channel=0 note=53 velocity=0 time=0
EXTRACT: note_on channel=0 note=58 velocity=0 time=0
EXTRACT: note_on channel=9 note=40 velocity=0 time=0
EXTRACT: note_on channel=9 note=56 velocity=0 time=0.2608695
EXTRACT: note_on channel=1 note=73 velocity=100 time=0
EXTRACT: note_on channel=9 note=56 velocity=100 time=0
EXTRACT: note_on channel=3 note=77 velocity=0 time=0.2608695
EXTRACT: note_on channel=2 note=77 velocity=0 time=0
EXTRACT: note_on channel=0 note=58 velocity=100 time=0
EXTRACT: note_on channel=0 note=61 velocity=100 time=0
EXTRACT: note_on channel=9 note=35 velocity=100 time=0
EXTRACT: note_on channel=9 note=35 velocity=0 time=0.2608695
EXTRACT: note_on channel=0 note=58 velocity=0 time=0
EXTRACT: note_on channel=9 note=56 velocity=0 time=0
EXTRACT: note_on channel=1 note=73 velocity=0 time=0
EXTRACT: note_on channel=0 note=61 velocity=0 time=0
EXTRACT: note_on channel=2 note=77 velocity=100 time=0
EXTRACT: note_on channel=3 note=77 velocity=100 time=0
EXTRACT: note_on channel=9 note=40 velocity=100 time=0
EXTRACT: note_on channel=9 note=45 velocity=100 time=0
EXTRACT: note_on channel=9 note=56 velocity=100 time=0
EXTRACT: note_on channel=9 note=45 velocity=0 time=0.2608695
EXTRACT: note_on channel=9 note=40 velocity=0 time=0
EXTRACT: note_on channel=2 note=77 velocity=0 time=0
EXTRACT: note_on channel=3 note=77 velocity=0 time=0
EXTRACT: note_on channel=0 note=53 velocity=100 time=0
EXTRACT: note_on channel=2 note=75 velocity=100 time=0
EXTRACT: note_on channel=3 note=75 velocity=100 time=0
EXTRACT: note_on channel=9 note=35 velocity=100 time=0
EXTRACT: note_on channel=9 note=35 velocity=0 time=0.2608695
EXTRACT: note_on channel=2 note=75 velocity=0 time=0
EXTRACT: note_on channel=9 note=56 velocity=0 time=0
EXTRACT: note_on channel=0 note=53 velocity=0 time=0
EXTRACT: note_on channel=3 note=75 velocity=0 time=0
EXTRACT: note_on channel=0 note=48 velocity=100 time=0
EXTRACT: note_on channel=1 note=72 velocity=100 time=0
EXTRACT: note_on channel=9 note=56 velocity=100 time=0
EXTRACT: note_on channel=0 note=48 velocity=0 time=0.2608695
EXTRACT: note_on channel=0 note=53 velocity=100 time=0
EXTRACT: note_on channel=2 note=77 velocity=100 time=0
EXTRACT: note_on channel=3 note=77 velocity=100 time=0
EXTRACT: note_on channel=0 note=53 velocity=0 time=0.2608695
EXTRACT: note_on channel=1 note=72 velocity=0 time=0
EXTRACT: note_on channel=9 note=56 velocity=0 time=0
EXTRACT: note_on channel=0 note=60 velocity=100 time=0
EXTRACT: note_on channel=0 note=57 velocity=100 time=0
EXTRACT: note_on channel=9 note=40 velocity=100 time=0
EXTRACT: note_on channel=9 note=45 velocity=100 time=0
EXTRACT: note_on channel=9 note=56 velocity=100 time=0
EXTRACT: note_on channel=9 note=45 velocity=0 time=0.2608695
EXTRACT: note_on channel=0 note=57 velocity=0 time=0
EXTRACT: note_on channel=0 note=60 velocity=0 time=0
EXTRACT: note_on channel=9 note=40 velocity=0 time=0
EXTRACT: note_on channel=0 note=57 velocity=100 time=0
EXTRACT: note_on channel=0 note=66 velocity=100 time=0
EXTRACT: note_on channel=0 note=66 velocity=0 time=0.2608695
EXTRACT: note_on channel=9 note=56 velocity=0 time=0
EXTRACT: note_on channel=0 note=57 velocity=0 time=0
EXTRACT: note_on channel=0 note=57 velocity=100 time=0
EXTRACT: note_on channel=0 note=65 velocity=100 time=0
EXTRACT: note_on channel=1 note=75 velocity=100 time=0
EXTRACT: note_on channel=9 note=56 velocity=100 time=0
EXTRACT: note_on channel=0 note=65 velocity=0 time=0.2608695
EXTRACT: note_on channel=0 note=57 velocity=0 time=0
EXTRACT: note_on channel=3 note=77 velocity=0 time=0
EXTRACT: note_on channel=2 note=77 velocity=0 time=0
EXTRACT: note_on channel=9 note=58 velocity=100 time=0
EXTRACT: note_on channel=9 note=35 velocity=100 time=0
EXTRACT: note_on channel=9 note=35 velocity=0 time=0.2608695
EXTRACT: note_on channel=1 note=75 velocity=0 time=0
EXTRACT: note_on channel=9 note=56 velocity=0 time=0
EXTRACT: note_on channel=2 note=78 velocity=100 time=0
EXTRACT: note_on channel=3 note=78 velocity=100 time=0
EXTRACT: note_on channel=9 note=40 velocity=100 time=0
EXTRACT: note_on channel=9 note=45 velocity=100 time=0
EXTRACT: note_on channel=9 note=56 velocity=100 time=0
EXTRACT: note_on channel=9 note=45 velocity=0 time=0.2608695
EXTRACT: note_on channel=9 note=40 velocity=0 time=0
EXTRACT: note_on channel=3 note=78 velocity=0 time=0
EXTRACT: note_on channel=9 note=58 velocity=0 time=0
EXTRACT: note_on channel=2 note=78 velocity=0 time=0
EXTRACT: note_on channel=0 note=65 velocity=100 time=0
EXTRACT: note_on channel=2 note=77 velocity=100 time=0
EXTRACT: note_on channel=3 note=77 velocity=100 time=0
EXTRACT: note_on channel=3 note=77 velocity=0 time=0.2608695
EXTRACT: note_on channel=9 note=56 velocity=0 time=0
EXTRACT: note_on channel=0 note=65 velocity=0 time=0
EXTRACT: note_on channel=2 note=77 velocity=0 time=0
EXTRACT: note_on channel=0 note=48 velocity=100 time=0
EXTRACT: note_on channel=0 note=57 velocity=100 time=0
EXTRACT: note_on channel=1 note=69 velocity=100 time=0
EXTRACT: note_on channel=2 note=77 velocity=100 time=0
EXTRACT: note_on channel=3 note=77 velocity=100 time=0
EXTRACT: note_on channel=9 note=35 velocity=100 time=0
EXTRACT: note_on channel=9 note=56 velocity=100 time=0
EXTRACT: note_on channel=3 note=77 velocity=0 time=0.13043475
EXTRACT: note_on channel=2 note=77 velocity=0 time=0
EXTRACT: note_on channel=0 note=48 velocity=0 time=0.13043475
EXTRACT: note_on channel=0 note=57 velocity=0 time=0
EXTRACT: note_on channel=9 note=35 velocity=0 time=0
EXTRACT: note_on channel=0 note=60 velocity=100 time=0
EXTRACT: note_on channel=0 note=63 velocity=100 time=0
EXTRACT: note_on channel=0 note=53 velocity=100 time=0
EXTRACT: note_on channel=2 note=77 velocity=100 time=0
EXTRACT: note_on channel=3 note=77 velocity=100 time=0
EXTRACT: note_on channel=0 note=53 velocity=0 time=0.2608695
EXTRACT: note_on channel=0 note=63 velocity=0 time=0
EXTRACT: note_on channel=1 note=69 velocity=0 time=0
EXTRACT: note_on channel=0 note=60 velocity=0 time=0
EXTRACT: note_on channel=9 note=56 velocity=0 time=0
EXTRACT: note_on channel=0 note=60 velocity=100 time=0
EXTRACT: note_on channel=0 note=63 velocity=100 time=0
EXTRACT: note_on channel=0 note=57 velocity=100 time=0
EXTRACT: note_on channel=9 note=56 velocity=100 time=0
EXTRACT: note_on channel=9 note=45 velocity=100 time=0
EXTRACT: note_on channel=9 note=40 velocity=100 time=0
EXTRACT: note_on channel=9 note=40 velocity=0 time=0.2608695
EXTRACT: note_on channel=9 note=45 velocity=0 time=0
EXTRACT: note_on channel=0 note=63 velocity=0 time=0
EXTRACT: note_on channel=0 note=60 velocity=0 time=0
EXTRACT: note_on channel=0 note=57 velocity=0 time=0
EXTRACT: note_on channel=9 note=56 velocity=0 time=0.2608695
EXTRACT: note_on channel=1 note=72 velocity=100 time=0
EXTRACT: note_on channel=9 note=56 velocity=100 time=0
EXTRACT: note_on channel=3 note=77 velocity=0 time=0.2608695
EXTRACT: note_on channel=2 note=77 velocity=0 time=0
EXTRACT: note_on channel=0 note=57 velocity=100 time=0
EXTRACT: note_on channel=0 note=60 velocity=100 time=0
EXTRACT: note_on channel=0 note=63 velocity=100 time=0
EXTRACT: note_on channel=9 note=35 velocity=100 time=0
EXTRACT: note_on channel=9 note=35 velocity=0 time=0.2608695
EXTRACT: note_on channel=1 note=72 velocity=0 time=0
EXTRACT: note_on channel=0 note=57 velocity=0 time=0
EXTRACT: note_on channel=9 note=56 velocity=0 time=0
EXTRACT: note_on channel=0 note=63 velocity=0 time=0
EXTRACT: note_on channel=0 note=60 velocity=0 time=0
EXTRACT: note_on channel=2 note=77 velocity=100 time=0
EXTRACT: note_on channel=3 note=77 velocity=100 time=0
EXTRACT: note_on channel=9 note=40 velocity=100 time=0
EXTRACT: note_on channel=9 note=45 velocity=100 time=0
EXTRACT: note_on channel=9 note=56 velocity=100 time=0
EXTRACT: note_on channel=9 note=45 velocity=0 time=0.2608695
EXTRACT: note_on channel=9 note=40 velocity=0 time=0
EXTRACT: note_on channel=2 note=77 velocity=0 time=0
EXTRACT: note_on channel=3 note=77 velocity=0 time=0
EXTRACT: note_on channel=0 note=53 velocity=100 time=0
EXTRACT: note_on channel=2 note=75 velocity=100 time=0
EXTRACT: note_on channel=3 note=75 velocity=100 time=0
EXTRACT: note_on channel=9 note=35 velocity=100 time=0
EXTRACT: note_on channel=9 note=35 velocity=0 time=0.2608695
EXTRACT: note_on channel=2 note=75 velocity=0 time=0
EXTRACT: note_on channel=9 note=56 velocity=0 time=0
EXTRACT: note_on channel=0 note=53 velocity=0 time=0
EXTRACT: note_on channel=3 note=75 velocity=0 time=0
EXTRACT: note_on channel=0 note=61 velocity=100 time=0
EXTRACT: note_on channel=0 note=58 velocity=100 time=0
EXTRACT: note_on channel=1 note=70 velocity=100 time=0
EXTRACT: note_on channel=9 note=56 velocity=100 time=0
EXTRACT: note_on channel=9 note=35 velocity=100 time=0
EXTRACT: note_on channel=9 note=40 velocity=100 time=0
EXTRACT: note_on channel=9 note=45 velocity=100 time=0
EXTRACT: note_on channel=9 note=45 velocity=0 time=0.2608695
EXTRACT: note_on channel=9 note=35 velocity=0 time=0
EXTRACT: note_on channel=0 note=58 velocity=0 time=0
EXTRACT: note_on channel=0 note=61 velocity=0 time=0
EXTRACT: note_on channel=9 note=40 velocity=0 time=0
EXTRACT: note_on channel=0 note=58 velocity=100 time=0
EXTRACT: note_on channel=0 note=61 velocity=100 time=0
EXTRACT: note_on channel=2 note=77 velocity=100 time=0
EXTRACT: note_on channel=3 note=77 velocity=100 time=0
EXTRACT: note_on channel=9 note=45 velocity=100 time=0
EXTRACT: note_on channel=9 note=40 velocity=100 time=0
EXTRACT: note_on channel=9 note=35 velocity=100 time=0
EXTRACT: note_on channel=9 note=35 velocity=0 time=0.2608695
EXTRACT: note_on channel=0 note=58 velocity=0 time=0
EXTRACT: note_on channel=1 note=70 velocity=0 time=0
EXTRACT: note_on channel=9 note=56 velocity=0 time=0
EXTRACT: note_on channel=9 note=40 velocity=0 time=0
EXTRACT: note_on channel=9 note=45 velocity=0 time=0
EXTRACT: note_on channel=0 note=61 velocity=0 time=0
EXTRACT: note_on channel=0 note=58 velocity=100 time=0
EXTRACT: note_on channel=0 note=61 velocity=100 time=0
EXTRACT: note_on channel=9 note=45 velocity=100 time=0
EXTRACT: note_on channel=9 note=40 velocity=100 time=0
EXTRACT: note_on channel=9 note=56 velocity=100 time=0
EXTRACT: note_on channel=9 note=35 velocity=100 time=0
EXTRACT: note_on channel=9 note=35 velocity=0 time=0.2608695
EXTRACT: note_on channel=9 note=40 velocity=0 time=0
EXTRACT: note_on channel=0 note=61 velocity=0 time=0
EXTRACT: note_on channel=0 note=58 velocity=0 time=0
EXTRACT: note_on channel=9 note=45 velocity=0 time=0
EXTRACT: note_on channel=9 note=56 velocity=0 time=0.2608695
EXTRACT: note_on channel=1 note=73 velocity=100 time=0
EXTRACT: note_on channel=9 note=56 velocity=100 time=0
EXTRACT: note_on channel=3 note=77 velocity=0 time=0.2608695
EXTRACT: note_on channel=2 note=77 velocity=0 time=0
EXTRACT: note_on channel=0 note=58 velocity=100 time=0
EXTRACT: note_on channel=0 note=61 velocity=100 time=0
EXTRACT: note_on channel=9 note=45 velocity=100 time=0
EXTRACT: note_on channel=9 note=40 velocity=100 time=0
EXTRACT: note_on channel=9 note=35 velocity=100 time=0
EXTRACT: note_on channel=9 note=35 velocity=0 time=0.2608695
EXTRACT: note_on channel=9 note=45 velocity=0 time=0
EXTRACT: note_on channel=1 note=73 velocity=0 time=0
EXTRACT: note_on channel=0 note=58 velocity=0 time=0
EXTRACT: note_on channel=9 note=56 velocity=0 time=0
EXTRACT: note_on channel=9 note=40 velocity=0 time=0
EXTRACT: note_on channel=0 note=61 velocity=0 time=0
EXTRACT: note_on channel=0 note=58 velocity=100 time=0
EXTRACT: note_on channel=0 note=61 velocity=100 time=0
EXTRACT: note_on channel=2 note=78 velocity=100 time=0
EXTRACT: note_on channel=3 note=78 velocity=100 time=0
EXTRACT: note_on channel=9 note=40 velocity=100 time=0
EXTRACT: note_on channel=9 note=35 velocity=100 time=0
EXTRACT: note_on channel=9 note=56 velocity=100 time=0
EXTRACT: note_on channel=9 note=45 velocity=100 time=0
EXTRACT: note_on channel=9 note=45 velocity=0 time=0.2608695
EXTRACT: note_on channel=0 note=58 velocity=0 time=0
EXTRACT: note_on channel=9 note=35 velocity=0 time=0
EXTRACT: note_on channel=0 note=61 velocity=0 time=0
EXTRACT: note_on channel=2 note=78 velocity=0 time=0
EXTRACT: note_on channel=3 note=78 velocity=0 time=0
EXTRACT: note_on channel=9 note=40 velocity=0 time=0
EXTRACT: note_on channel=0 note=53 velocity=100 time=0
EXTRACT: note_on channel=2 note=77 velocity=100 time=0
EXTRACT: note_on channel=3 note=77 velocity=100 time=0
EXTRACT: note_on channel=3 note=77 velocity=0 time=0
EXTRACT: note_on channel=9 note=56 velocity=0 time=0
EXTRACT: note_on channel=0 note=53 velocity=0 time=0
EXTRACT: note_on channel=2 note=77 velocity=0 time=0
EXTRACT: note_on channel=0 note=65 velocity=100 time=0
EXTRACT: note_on channel=0 note=58 velocity=100 time=0
EXTRACT: note_on channel=9 note=35 velocity=100 time=0
EXTRACT: note_on channel=9 note=56 velocity=100 time=0
EXTRACT: note_on channel=0 note=58 velocity=0 time=0.2608695
EXTRACT: note_on channel=0 note=65 velocity=0 time=0
EXTRACT: note_on channel=0 note=53 velocity=100 time=0
EXTRACT: note_on channel=0 note=61 velocity=100 time=0
EXTRACT: note_on channel=4 note=73 velocity=100 time=0
EXTRACT: note_on channel=4 note=73 velocity=0 time=0.2608695
EXTRACT: note_on channel=0 note=53 velocity=0 time=0
EXTRACT: note_on channel=9 note=56 velocity=0 time=0
EXTRACT: note_on channel=9 note=35 velocity=0 time=0
EXTRACT: note_on channel=0 note=61 velocity=0 time=0
EXTRACT: note_on channel=0 note=65 velocity=100 time=0
EXTRACT: note_on channel=4 note=73 velocity=100 time=0
EXTRACT: note_on channel=9 note=40 velocity=100 time=0
EXTRACT: note_on channel=9 note=56 velocity=100 time=0
EXTRACT: note_on channel=9 note=40 velocity=0 time=0.2608695
EXTRACT: note_on channel=0 note=65 velocity=0 time=0
EXTRACT: note_on channel=4 note=73 velocity=0 time=0
EXTRACT: note_on channel=0 note=66 velocity=100 time=0
EXTRACT: note_on channel=4 note=73 velocity=100 time=0
EXTRACT: note_on channel=4 note=73 velocity=0 time=0.13043475
EXTRACT: note_on channel=4 note=73 velocity=100 time=0
EXTRACT: note_on channel=0 note=66 velocity=0 time=0.13043475
EXTRACT: note_on channel=9 note=56 velocity=0 time=0
EXTRACT: note_on channel=0 note=65 velocity=100 time=0
EXTRACT: note_on channel=9 note=56 velocity=100 time=0
EXTRACT: note_on channel=4 note=73 velocity=0 time=0.13043475
EXTRACT: note_on channel=0 note=65 velocity=0 time=0.13043475
EXTRACT: note_on channel=0 note=65 velocity=100 time=0
EXTRACT: note_on channel=0 note=61 velocity=100 time=0
EXTRACT: note_on channel=4 note=73 velocity=100 time=0
EXTRACT: note_on channel=9 note=35 velocity=100 time=0
EXTRACT: note_on channel=9 note=35 velocity=0 time=0.2608695
EXTRACT: note_on channel=0 note=61 velocity=0 time=0
EXTRACT: note_on channel=9 note=56 velocity=0 time=0
EXTRACT: note_on channel=0 note=65 velocity=0 time=0
EXTRACT: note_on channel=4 note=73 velocity=0 time=0
EXTRACT: note_on channel=4 note=73 velocity=100 time=0
EXTRACT: note_on channel=9 note=40 velocity=100 time=0
EXTRACT: note_on channel=9 note=56 velocity=100 time=0
EXTRACT: note_on channel=9 note=40 velocity=0 time=0.2608695
EXTRACT: note_on channel=4 note=73 velocity=0 time=0
EXTRACT: note_on channel=0 note=53 velocity=100 time=0
EXTRACT: note_on channel=0 note=65 velocity=100 time=0
EXTRACT: note_on channel=4 note=73 velocity=100 time=0
EXTRACT: note_on channel=9 note=35 velocity=100 time=0
EXTRACT: note_on channel=9 note=35 velocity=0 time=0.2608695
EXTRACT: note_on channel=0 note=65 velocity=0 time=0
EXTRACT: note_on channel=9 note=56 velocity=0 time=0
EXTRACT: note_on channel=0 note=53 velocity=0 time=0
EXTRACT: note_on channel=4 note=73 velocity=0 time=0
EXTRACT: note_on channel=0 note=65 velocity=100 time=0
EXTRACT: note_on channel=0 note=57 velocity=100 time=0
EXTRACT: note_on channel=4 note=75 velocity=100 time=0
EXTRACT: note_on channel=9 note=56 velocity=100 time=0
EXTRACT: note_on channel=4 note=75 velocity=0 time=0.2608695
EXTRACT: note_on channel=0 note=65 velocity=0 time=0
EXTRACT: note_on channel=0 note=57 velocity=0 time=0
EXTRACT: note_on channel=0 note=60 velocity=100 time=0
EXTRACT: note_on channel=4 note=75 velocity=100 time=0.13043475
EXTRACT: note_on channel=4 note=75 velocity=0 time=0.13043475
EXTRACT: note_on channel=0 note=60 velocity=0 time=0
EXTRACT: note_on channel=9 note=56 velocity=0 time=0
EXTRACT: note_on channel=0 note=65 velocity=100 time=0
EXTRACT: note_on channel=4 note=75 velocity=100 time=0
EXTRACT: note_on channel=9 note=40 velocity=100 time=0
EXTRACT: note_on channel=9 note=56 velocity=100 time=0
EXTRACT: note_on channel=9 note=40 velocity=0 time=0.2608695
EXTRACT: note_on channel=0 note=65 velocity=0 time=0
EXTRACT: note_on channel=4 note=75 velocity=0 time=0
EXTRACT: note_on channel=0 note=66 velocity=100 time=0
EXTRACT: note_on channel=0 note=66 velocity=0 time=0.2608695
EXTRACT: note_on channel=9 note=56 velocity=0 time=0
EXTRACT: note_on channel=0 note=65 velocity=100 time=0
EXTRACT: note_on channel=9 note=56 velocity=100 time=0
EXTRACT: note_on channel=0 note=65 velocity=0 time=0.2608695
EXTRACT: note_on channel=9 note=35 velocity=100 time=0
EXTRACT: note_on channel=9 note=35 velocity=0 time=0.2608695
EXTRACT: note_on channel=9 note=56 velocity=0 time=0
EXTRACT: note_on channel=9 note=58 velocity=100 time=0
EXTRACT: note_on channel=9 note=40 velocity=100 time=0
EXTRACT: note_on channel=9 note=56 velocity=100 time=0
EXTRACT: note_on channel=9 note=40 velocity=0 time=0.2608695
EXTRACT: note_on channel=0 note=53 velocity=100 time=0
EXTRACT: note_on channel=0 note=65 velocity=100 time=0
EXTRACT: note_on channel=0 note=65 velocity=0 time=0.2608695
EXTRACT: note_on channel=9 note=58 velocity=0 time=0
EXTRACT: note_on channel=9 note=56 velocity=0 time=0
EXTRACT: note_on channel=0 note=53 velocity=0 time=0
EXTRACT: note_on channel=0 note=65 velocity=100 time=0
EXTRACT: note_on channel=0 note=57 velocity=100 time=0
EXTRACT: note_on channel=9 note=56 velocity=100 time=0
EXTRACT: note_on channel=9 note=35 velocity=100 time=0
EXTRACT: note_on channel=0 note=57 velocity=0 time=0.2608695
EXTRACT: note_on channel=0 note=65 velocity=0 time=0
EXTRACT: note_on channel=0 note=60 velocity=100 time=0
EXTRACT: note_on channel=4 note=75 velocity=100 time=0
EXTRACT: note_on channel=4 note=75 velocity=0 time=0.2608695
EXTRACT: note_on channel=9 note=35 velocity=0 time=0
EXTRACT: note_on channel=9 note=56 velocity=0 time=0
EXTRACT: note_on channel=0 note=60 velocity=0 time=0
EXTRACT: note_on channel=0 note=65 velocity=100 time=0
EXTRACT: note_on channel=4 note=75 velocity=100 time=0
EXTRACT: note_on channel=9 note=56 velocity=100 time=0
EXTRACT: note_on channel=9 note=40 velocity=100 time=0
EXTRACT: note_on channel=9 note=40 velocity=0 time=0.2608695
EXTRACT: note_on channel=0 note=65 velocity=0 time=0
EXTRACT: note_on channel=4 note=75 velocity=0 time=0
EXTRACT: note_on channel=0 note=66 velocity=100 time=0
EXTRACT: note_on channel=4 note=75 velocity=100 time=0
EXTRACT: note_on channel=4 note=75 velocity=0 time=0.2608695
EXTRACT: note_on channel=0 note=66 velocity=0 time=0
EXTRACT: note_on channel=9 note=56 velocity=0 time=0
EXTRACT: note_on channel=0 note=65 velocity=100 time=0
EXTRACT: note_on channel=4 note=75 velocity=100 time=0
EXTRACT: note_on channel=9 note=56 velocity=100 time=0
EXTRACT: note_on channel=4 note=75 velocity=0 time=0.2608695
EXTRACT: note_on channel=0 note=65 velocity=0 time=0
EXTRACT: note_on channel=0 note=63 velocity=100 time=0
EXTRACT: note_on channel=0 note=60 velocity=100 time=0
EXTRACT: note_on channel=4 note=75 velocity=100 time=0
EXTRACT: note_on channel=9 note=35 velocity=100 time=0
EXTRACT: note_on channel=9 note=35 velocity=0 time=0.2608695
EXTRACT: note_on channel=0 note=60 velocity=0 time=0
EXTRACT: note_on channel=9 note=56 velocity=0 time=0
EXTRACT: note_on channel=0 note=63 velocity=0 time=0
EXTRACT: note_on channel=4 note=75 velocity=0 time=0
EXTRACT: note_on channel=4 note=75 velocity=100 time=0
EXTRACT: note_on channel=9 note=56 velocity=100 time=0
EXTRACT: note_on channel=9 note=40 velocity=100 time=0
EXTRACT: note_on channel=9 note=40 velocity=0 time=0.2608695
EXTRACT: note_on channel=4 note=75 velocity=0 time=0
EXTRACT: note_on channel=0 note=53 velocity=100 time=0
EXTRACT: note_on channel=0 note=65 velocity=100 time=0
EXTRACT: note_on channel=4 note=73 velocity=100 time=0
EXTRACT: note_on channel=9 note=35 velocity=100 time=0
EXTRACT: note_on channel=9 note=35 velocity=0 time=0.2608695
EXTRACT: note_on channel=0 note=65 velocity=0 time=0
EXTRACT: note_on channel=9 note=56 velocity=0 time=0
EXTRACT: note_on channel=0 note=53 velocity=0 time=0
EXTRACT: note_on channel=4 note=73 velocity=0 time=0
EXTRACT: note_on channel=0 note=65 velocity=100 time=0
EXTRACT: note_on channel=0 note=58 velocity=100 time=0
EXTRACT: note_on channel=4 note=77 velocity=100 time=0
EXTRACT: note_on channel=9 note=56 velocity=100 time=0
EXTRACT: note_on channel=4 note=77 velocity=0 time=0.2608695
EXTRACT: note_on channel=0 note=65 velocity=0 time=0
EXTRACT: note_on channel=0 note=58 velocity=0 time=0
EXTRACT: note_on channel=0 note=61 velocity=100 time=0
EXTRACT: note_on channel=4 note=77 velocity=100 time=0
EXTRACT: note_on channel=4 note=77 velocity=0 time=0.2608695
EXTRACT: note_on channel=0 note=61 velocity=0 time=0
EXTRACT: note_on channel=9 note=56 velocity=0 time=0
EXTRACT: note_on channel=0 note=65 velocity=100 time=0
EXTRACT: note_on channel=4 note=77 velocity=100 time=0
EXTRACT: note_on channel=9 note=56 velocity=100 time=0
EXTRACT: note_on channel=9 note=40 velocity=100 time=0
EXTRACT: note_on channel=9 note=40 velocity=0 time=0.2608695
EXTRACT: note_on channel=0 note=65 velocity=0 time=0
EXTRACT: note_on channel=4 note=77 velocity=0 time=0
EXTRACT: note_on channel=0 note=66 velocity=100 time=0
EXTRACT: note_on channel=0 note=66 velocity=0 time=0.2608695
EXTRACT: note_on channel=9 note=56 velocity=0 time=0
EXTRACT: note_on channel=0 note=65 velocity=100 time=0
EXTRACT: note_on channel=9 note=56 velocity=100 time=0
EXTRACT: note_on channel=0 note=65 velocity=0 time=0.2608695
EXTRACT: note_on channel=9 note=35 velocity=100 time=0
EXTRACT: note_on channel=9 note=35 velocity=0 time=0.2608695
EXTRACT: note_on channel=9 note=56 velocity=0 time=0
EXTRACT: note_on channel=9 note=56 velocity=100 time=0
EXTRACT: note_on channel=9 note=40 velocity=100 time=0
EXTRACT: note_on channel=9 note=40 velocity=0 time=0.2608695
EXTRACT: note_on channel=0 note=53 velocity=100 time=0
EXTRACT: note_on channel=0 note=65 velocity=100 time=0
EXTRACT: note_on channel=0 note=65 velocity=0 time=0.2608695
EXTRACT: note_on channel=0 note=53 velocity=0 time=0
EXTRACT: note_on channel=9 note=56 velocity=0 time=0
EXTRACT: note_on channel=0 note=65 velocity=100 time=0
EXTRACT: note_on channel=0 note=58 velocity=100 time=0
EXTRACT: note_on channel=9 note=56 velocity=100 time=0
EXTRACT: note_on channel=9 note=35 velocity=100 time=0
EXTRACT: note_on channel=0 note=58 velocity=0 time=0.2608695
EXTRACT: note_on channel=0 note=65 velocity=0 time=0
EXTRACT: note_on channel=0 note=61 velocity=100 time=0
EXTRACT: note_on channel=4 note=73 velocity=100 time=0
EXTRACT: note_on channel=4 note=73 velocity=0 time=0.2608695
EXTRACT: note_on channel=9 note=35 velocity=0 time=0
EXTRACT: note_on channel=9 note=56 velocity=0 time=0
EXTRACT: note_on channel=0 note=61 velocity=0 time=0
EXTRACT: note_on channel=0 note=65 velocity=100 time=0
EXTRACT: note_on channel=4 note=73 velocity=100 time=0
EXTRACT: note_on channel=9 note=40 velocity=100 time=0
EXTRACT: note_on channel=9 note=56 velocity=100 time=0
EXTRACT: note_on channel=9 note=40 velocity=0 time=0.2608695
EXTRACT: note_on channel=0 note=65 velocity=0 time=0
EXTRACT: note_on channel=4 note=73 velocity=0 time=0
EXTRACT: note_on channel=0 note=66 velocity=100 time=0
EXTRACT: note_on channel=4 note=73 velocity=100 time=0
EXTRACT: note_on channel=4 note=73 velocity=0 time=0.2608695
EXTRACT: note_on channel=0 note=66 velocity=0 time=0
EXTRACT: note_on channel=9 note=56 velocity=0 time=0
EXTRACT: note_on channel=0 note=65 velocity=100 time=0
EXTRACT: note_on channel=4 note=73 velocity=100 time=0
EXTRACT: note_on channel=9 note=56 velocity=100 time=0
EXTRACT: note_on channel=4 note=73 velocity=0 time=0.2608695
EXTRACT: note_on channel=0 note=65 velocity=0 time=0
EXTRACT: note_on channel=0 note=65 velocity=100 time=0
EXTRACT: note_on channel=0 note=61 velocity=100 time=0
EXTRACT: note_on channel=4 note=73 velocity=100 time=0
EXTRACT: note_on channel=9 note=35 velocity=100 time=0
EXTRACT: note_on channel=9 note=35 velocity=0 time=0.2608695
EXTRACT: note_on channel=0 note=61 velocity=0 time=0
EXTRACT: note_on channel=9 note=56 velocity=0 time=0
EXTRACT: note_on channel=0 note=65 velocity=0 time=0
EXTRACT: note_on channel=4 note=73 velocity=0 time=0
EXTRACT: note_on channel=4 note=73 velocity=100 time=0
EXTRACT: note_on channel=9 note=40 velocity=100 time=0
EXTRACT: note_on channel=9 note=56 velocity=100 time=0
EXTRACT: note_on channel=9 note=40 velocity=0 time=0.2608695
EXTRACT: note_on channel=4 note=73 velocity=0 time=0
EXTRACT: note_on channel=0 note=53 velocity=100 time=0
EXTRACT: note_on channel=0 note=65 velocity=100 time=0
EXTRACT: note_on channel=4 note=73 velocity=100 time=0
EXTRACT: note_on channel=9 note=35 velocity=100 time=0
EXTRACT: note_on channel=9 note=35 velocity=0 time=0.2608695
EXTRACT: note_on channel=0 note=65 velocity=0 time=0
EXTRACT: note_on channel=9 note=56 velocity=0 time=0
EXTRACT: note_on channel=0 note=53 velocity=0 time=0
EXTRACT: note_on channel=4 note=73 velocity=0 time=0
EXTRACT: note_on channel=0 note=65 velocity=100 time=0
EXTRACT: note_on channel=0 note=57 velocity=100 time=0
EXTRACT: note_on channel=4 note=75 velocity=100 time=0
EXTRACT: note_on channel=9 note=56 velocity=100 time=0
EXTRACT: note_on channel=4 note=75 velocity=0 time=0.2608695
EXTRACT: note_on channel=0 note=65 velocity=0 time=0
EXTRACT: note_on channel=0 note=57 velocity=0 time=0
EXTRACT: note_on channel=0 note=60 velocity=100 time=0
EXTRACT: note_on channel=4 note=75 velocity=100 time=0
EXTRACT: note_on channel=4 note=75 velocity=0 time=0.2608695
EXTRACT: note_on channel=0 note=60 velocity=0 time=0
EXTRACT: note_on channel=9 note=56 velocity=0 time=0
EXTRACT: note_on channel=0 note=65 velocity=100 time=0
EXTRACT: note_on channel=4 note=75 velocity=100 time=0
EXTRACT: note_on channel=9 note=40 velocity=100 time=0
EXTRACT: note_on channel=9 note=56 velocity=100 time=0
EXTRACT: note_on channel=9 note=40 velocity=0 time=0.2608695
EXTRACT: note_on channel=0 note=65 velocity=0 time=0
EXTRACT: note_on channel=4 note=75 velocity=0 time=0
EXTRACT: note_on channel=0 note=66 velocity=100 time=0
EXTRACT: note_on channel=0 note=66 velocity=0 time=0.2608695
EXTRACT: note_on channel=9 note=56 velocity=0 time=0
EXTRACT: note_on channel=0 note=65 velocity=100 time=0
EXTRACT: note_on channel=9 note=56 velocity=100 time=0
EXTRACT: note_on channel=0 note=65 velocity=0 time=0.2608695
EXTRACT: note_on channel=9 note=35 velocity=100 time=0
EXTRACT: note_on channel=9 note=35 velocity=0 time=0.2608695
EXTRACT: note_on channel=9 note=56 velocity=0 time=0
EXTRACT: note_on channel=9 note=58 velocity=100 time=0
EXTRACT: note_on channel=9 note=40 velocity=100 time=0
EXTRACT: note_on channel=9 note=56 velocity=100 time=0
EXTRACT: note_on channel=9 note=40 velocity=0 time=0.2608695
EXTRACT: note_on channel=0 note=53 velocity=100 time=0
EXTRACT: note_on channel=0 note=65 velocity=100 time=0
EXTRACT: note_on channel=0 note=65 velocity=0 time=0.2608695
EXTRACT: note_on channel=9 note=58 velocity=0 time=0
EXTRACT: note_on channel=9 note=56 velocity=0 time=0
EXTRACT: note_on channel=0 note=53 velocity=0 time=0
EXTRACT: note_on channel=0 note=65 velocity=100 time=0
EXTRACT: note_on channel=0 note=57 velocity=100 time=0
EXTRACT: note_on channel=9 note=56 velocity=100 time=0
EXTRACT: note_on channel=9 note=35 velocity=100 time=0.004347825
EXTRACT: note_on channel=0 note=57 velocity=0 time=0.256521675
EXTRACT: note_on channel=0 note=65 velocity=0 time=0
EXTRACT: note_on channel=0 note=60 velocity=100 time=0
EXTRACT: note_on channel=4 note=75 velocity=100 time=0
EXTRACT: note_on channel=4 note=75 velocity=0 time=0.2608695
EXTRACT: note_on channel=0 note=60 velocity=0 time=0
EXTRACT: note_on channel=9 note=56 velocity=0 time=0
EXTRACT: note_on channel=0 note=65 velocity=100 time=0
EXTRACT: note_on channel=4 note=75 velocity=100 time=0
EXTRACT: note_on channel=9 note=56 velocity=100 time=0
EXTRACT: note_on channel=9 note=35 velocity=0 time=0.004347825
EXTRACT: note_on channel=9 note=40 velocity=100 time=0
EXTRACT: note_on channel=0 note=65 velocity=0 time=0.256521675
EXTRACT: note_on channel=4 note=75 velocity=0 time=0
EXTRACT: note_on channel=0 note=66 velocity=100 time=0
EXTRACT: note_on channel=4 note=75 velocity=100 time=0
EXTRACT: note_on channel=9 note=40 velocity=0 time=0.004347825
EXTRACT: note_on channel=9 note=56 velocity=0 time=0.256521675
EXTRACT: note_on channel=0 note=66 velocity=0 time=0
EXTRACT: note_on channel=4 note=75 velocity=0 time=0
EXTRACT: note_on channel=0 note=65 velocity=100 time=0
EXTRACT: note_on channel=4 note=75 velocity=100 time=0
EXTRACT: note_on channel=9 note=56 velocity=100 time=0
EXTRACT: note_on channel=4 note=75 velocity=0 time=0.2608695
EXTRACT: note_on channel=0 note=65 velocity=0 time=0
EXTRACT: note_on channel=0 note=63 velocity=100 time=0
EXTRACT: note_on channel=0 note=60 velocity=100 time=0
EXTRACT: note_on channel=4 note=75 velocity=100 time=0
EXTRACT: note_on channel=9 note=35 velocity=100 time=0.004347825
EXTRACT: note_on channel=4 note=75 velocity=0 time=0.256521675
EXTRACT: note_on channel=0 note=60 velocity=0 time=0
EXTRACT: note_on channel=9 note=56 velocity=0 time=0
EXTRACT: note_on channel=0 note=63 velocity=0 time=0
EXTRACT: note_on channel=4 note=75 velocity=100 time=0
EXTRACT: note_on channel=9 note=56 velocity=100 time=0
EXTRACT: note_on channel=9 note=35 velocity=0 time=0.004347825
EXTRACT: note_on channel=9 note=40 velocity=100 time=0
EXTRACT: note_on channel=4 note=75 velocity=0 time=0.256521675
EXTRACT: note_on channel=0 note=53 velocity=100 time=0
EXTRACT: note_on channel=0 note=65 velocity=100 time=0
EXTRACT: note_on channel=4 note=73 velocity=100 time=0
EXTRACT: note_on channel=9 note=40 velocity=0 time=0.004347825
EXTRACT: note_on channel=9 note=35 velocity=100 time=0
EXTRACT: note_on channel=0 note=65 velocity=0 time=0.256521675
EXTRACT: note_on channel=4 note=73 velocity=0 time=0
EXTRACT: note_on channel=9 note=56 velocity=0 time=0
EXTRACT: note_on channel=0 note=53 velocity=0 time=0
EXTRACT: note_on channel=0 note=53 velocity=100 time=0
EXTRACT: note_on channel=0 note=65 velocity=100 time=0
EXTRACT: note_on channel=0 note=58 velocity=100 time=0
EXTRACT: note_on channel=4 note=77 velocity=100 time=0
EXTRACT: note_on channel=9 note=40 velocity=100 time=0
EXTRACT: note_on channel=9 note=35 velocity=100 time=0
EXTRACT: note_on channel=9 note=56 velocity=100 time=0
EXTRACT: note_on channel=9 note=35 velocity=0 time=0.004347825
EXTRACT: note_on channel=4 note=77 velocity=0 time=0.256521675
EXTRACT: note_on channel=9 note=40 velocity=0 time=0
EXTRACT: note_on channel=0 note=65 velocity=0 time=0
EXTRACT: note_on channel=0 note=58 velocity=0 time=0
EXTRACT: note_on channel=0 note=53 velocity=0 time=0
EXTRACT: note_on channel=9 note=35 velocity=0 time=0
EXTRACT: note_on channel=0 note=53 velocity=100 time=0
EXTRACT: note_on channel=0 note=58 velocity=100 time=0
EXTRACT: note_on channel=0 note=65 velocity=100 time=0
EXTRACT: note_on channel=4 note=78 velocity=100 time=0
EXTRACT: note_on channel=9 note=40 velocity=100 time=0
EXTRACT: note_on channel=9 note=35 velocity=100 time=0
EXTRACT: note_on channel=9 note=35 velocity=0 time=0.2608695
EXTRACT: note_on channel=4 note=78 velocity=0 time=0
EXTRACT: note_on channel=0 note=53 velocity=0 time=0
EXTRACT: note_on channel=0 note=58 velocity=0 time=0
EXTRACT: note_on channel=9 note=56 velocity=0 time=0
EXTRACT: note_on channel=9 note=40 velocity=0 time=0
EXTRACT: note_on channel=0 note=65 velocity=0 time=0
EXTRACT: note_on channel=0 note=53 velocity=100 time=0
EXTRACT: note_on channel=0 note=58 velocity=100 time=0
EXTRACT: note_on channel=0 note=65 velocity=100 time=0
EXTRACT: note_on channel=4 note=77 velocity=100 time=0
EXTRACT: note_on channel=9 note=35 velocity=100 time=0
EXTRACT: note_on channel=9 note=56 velocity=100 time=0
EXTRACT: note_on channel=9 note=40 velocity=100 time=0.004347825
EXTRACT: note_on channel=9 note=35 velocity=0 time=0.256521675
EXTRACT: note_on channel=0 note=65 velocity=0 time=0
EXTRACT: note_on channel=0 note=53 velocity=0 time=0
EXTRACT: note_on channel=0 note=58 velocity=0 time=0
EXTRACT: note_on channel=9 note=40 velocity=0 time=0.004347825
EXTRACT: note_on channel=4 note=77 velocity=0 time=0.126086925
EXTRACT: note_on channel=9 note=56 velocity=0 time=0.13043475
EXTRACT: note_on channel=9 note=56 velocity=100 time=0
EXTRACT: note_on channel=0 note=53 velocity=100 time=0.2608695
EXTRACT: note_on channel=0 note=58 velocity=100 time=0
EXTRACT: note_on channel=0 note=65 velocity=100 time=0
EXTRACT: note_on channel=4 note=77 velocity=100 time=0
EXTRACT: note_on channel=9 note=40 velocity=100 time=0
EXTRACT: note_on channel=9 note=35 velocity=100 time=0.004347825
EXTRACT: note_on channel=9 note=40 velocity=0 time=0.256521675
EXTRACT: note_on channel=0 note=58 velocity=0 time=0
EXTRACT: note_on channel=0 note=53 velocity=0 time=0
EXTRACT: note_on channel=9 note=56 velocity=0 time=0
EXTRACT: note_on channel=0 note=65 velocity=0 time=0
EXTRACT: note_on channel=0 note=53 velocity=100 time=0
EXTRACT: note_on channel=0 note=58 velocity=100 time=0
EXTRACT: note_on channel=0 note=65 velocity=100 time=0
EXTRACT: note_on channel=9 note=35 velocity=100 time=0
EXTRACT: note_on channel=9 note=56 velocity=100 time=0
EXTRACT: note_on channel=9 note=35 velocity=0 time=0.004347825
EXTRACT: note_on channel=9 note=40 velocity=100 time=0
EXTRACT: note_on channel=4 note=77 velocity=0 time=0.039130424999999996
EXTRACT: note_on channel=0 note=58 velocity=0 time=0.21739124999999998
EXTRACT: note_on channel=0 note=53 velocity=0 time=0
EXTRACT: note_on channel=0 note=65 velocity=0 time=0
EXTRACT: note_on channel=9 note=35 velocity=0 time=0
EXTRACT: note_on channel=4 note=77 velocity=100 time=0
EXTRACT: note_on channel=5 note=77 velocity=100 time=0
EXTRACT: note_on channel=5 note=73 velocity=100 time=0
EXTRACT: note_on channel=9 note=40 velocity=0 time=0.004347825
EXTRACT: note_on channel=9 note=56 velocity=0 time=0
EXTRACT: note_on channel=4 note=77 velocity=0 time=0
EXTRACT: note_on channel=0 note=46 velocity=100 time=0
EXTRACT: note_on channel=1 note=70 velocity=100 time=0
EXTRACT: note_on channel=4 note=77 velocity=100 time=0
EXTRACT: note_on channel=9 note=56 velocity=100 time=0
EXTRACT: note_on channel=9 note=35 velocity=100 time=0
EXTRACT: note_on channel=9 note=35 velocity=0 time=0.2608695
EXTRACT: note_on channel=5 note=77 velocity=0 time=0
EXTRACT: note_on channel=0 note=46 velocity=0 time=0
EXTRACT: note_on channel=5 note=73 velocity=0 time=0
EXTRACT: note_on channel=4 note=77 velocity=0 time=0
EXTRACT: note_on channel=0 note=49 velocity=100 time=0
EXTRACT: note_on channel=4 note=77 velocity=100 time=0
EXTRACT: note_on channel=5 note=77 velocity=100 time=0
EXTRACT: note_on channel=5 note=73 velocity=100 time=0
EXTRACT: note_on channel=5 note=73 velocity=0 time=0.2608695
EXTRACT: note_on channel=1 note=70 velocity=0 time=0
EXTRACT: note_on channel=0 note=49 velocity=0 time=0
EXTRACT: note_on channel=9 note=56 velocity=0 time=0
EXTRACT: note_on channel=5 note=77 velocity=0 time=0
EXTRACT: note_on channel=4 note=77 velocity=0 time=0
EXTRACT: note_on channel=0 note=58 velocity=100 time=0
EXTRACT: note_on channel=0 note=61 velocity=100 time=0
EXTRACT: note_on channel=0 note=53 velocity=100 time=0
EXTRACT: note_on channel=4 note=77 velocity=100 time=0
EXTRACT: note_on channel=5 note=77 velocity=100 time=0
EXTRACT: note_on channel=5 note=73 velocity=100 time=0
EXTRACT: note_on channel=9 note=40 velocity=100 time=0
EXTRACT: note_on channel=9 note=45 velocity=100 time=0
EXTRACT: note_on channel=9 note=56 velocity=100 time=0
EXTRACT: note_on channel=9 note=45 velocity=0 time=0.2608695
EXTRACT: note_on channel=9 note=40 velocity=0 time=0
EXTRACT: note_on channel=4 note=77 velocity=0 time=0
EXTRACT: note_on channel=5 note=77 velocity=0 time=0
EXTRACT: note_on channel=0 note=61 velocity=0 time=0
EXTRACT: note_on channel=0 note=53 velocity=0 time=0
EXTRACT: note_on channel=0 note=58 velocity=0 time=0
EXTRACT: note_on channel=5 note=73 velocity=0 time=0
EXTRACT: note_on channel=5 note=77 velocity=100 time=0
EXTRACT: note_on channel=5 note=73 velocity=100 time=0
EXTRACT: note_on channel=5 note=73 velocity=0 time=0.2608695
EXTRACT: note_on channel=5 note=77 velocity=0 time=0
EXTRACT: note_on channel=9 note=56 velocity=0 time=0
EXTRACT: note_on channel=1 note=73 velocity=100 time=0
EXTRACT: note_on channel=5 note=77 velocity=100 time=0
EXTRACT: note_on channel=5 note=73 velocity=100 time=0
EXTRACT: note_on channel=9 note=56 velocity=100 time=0
EXTRACT: note_on channel=5 note=73 velocity=0 time=0.2608695
EXTRACT: note_on channel=5 note=77 velocity=0 time=0
EXTRACT: note_on channel=0 note=58 velocity=100 time=0
EXTRACT: note_on channel=0 note=61 velocity=100 time=0
EXTRACT: note_on channel=5 note=77 velocity=100 time=0
EXTRACT: note_on channel=5 note=73 velocity=100 time=0
EXTRACT: note_on channel=9 note=35 velocity=100 time=0
EXTRACT: note_on channel=9 note=35 velocity=0 time=0.2608695
EXTRACT: note_on channel=5 note=77 velocity=0 time=0
EXTRACT: note_on channel=1 note=73 velocity=0 time=0
EXTRACT: note_on channel=0 note=58 velocity=0 time=0
EXTRACT: note_on channel=9 note=56 velocity=0 time=0
EXTRACT: note_on channel=5 note=73 velocity=0 time=0
EXTRACT: note_on channel=0 note=61 velocity=0 time=0
EXTRACT: note_on channel=5 note=77 velocity=100 time=0
EXTRACT: note_on channel=5 note=73 velocity=100 time=0
EXTRACT: note_on channel=9 note=40 velocity=100 time=0
EXTRACT: note_on channel=9 note=56 velocity=100 time=0
EXTRACT: note_on channel=9 note=45 velocity=100 time=0
EXTRACT: note_on channel=9 note=45 velocity=0 time=0.2608695
EXTRACT: note_on channel=5 note=77 velocity=0 time=0
EXTRACT: note_on channel=9 note=40 velocity=0 time=0
EXTRACT: note_on channel=5 note=73 velocity=0 time=0
EXTRACT: note_on channel=0 note=53 velocity=100 time=0
EXTRACT: note_on channel=5 note=78 velocity=100 time=0
EXTRACT: note_on channel=5 note=75 velocity=100 time=0
EXTRACT: note_on channel=9 note=35 velocity=100 time=0
EXTRACT: note_on channel=9 note=35 velocity=0 time=0.2608695
EXTRACT: note_on channel=5 note=78 velocity=0 time=0
EXTRACT: note_on channel=9 note=56 velocity=0 time=0
EXTRACT: note_on channel=0 note=53 velocity=0 time=0
EXTRACT: note_on channel=5 note=75 velocity=0 time=0
EXTRACT: note_on channel=0 note=48 velocity=100 time=0
EXTRACT: note_on channel=1 note=72 velocity=100 time=0
EXTRACT: note_on channel=4 note=77 velocity=100 time=0
EXTRACT: note_on channel=5 note=77 velocity=100 time=0
EXTRACT: note_on channel=5 note=73 velocity=100 time=0
EXTRACT: note_on channel=9 note=56 velocity=100 time=0
EXTRACT: note_on channel=5 note=77 velocity=0 time=0.2608695
EXTRACT: note_on channel=4 note=77 velocity=0 time=0
EXTRACT: note_on channel=0 note=48 velocity=0 time=0
EXTRACT: note_on channel=0 note=53 velocity=100 time=0
EXTRACT: note_on channel=0 note=53 velocity=0 time=0.2608695
EXTRACT: note_on channel=9 note=56 velocity=0 time=0
EXTRACT: note_on channel=5 note=73 velocity=0 time=0
EXTRACT: note_on channel=1 note=72 velocity=0 time=0
EXTRACT: note_on channel=0 note=60 velocity=100 time=0
EXTRACT: note_on channel=0 note=57 velocity=100 time=0
EXTRACT: note_on channel=5 note=75 velocity=100 time=0
EXTRACT: note_on channel=5 note=72 velocity=100 time=0
EXTRACT: note_on channel=9 note=56 velocity=100 time=0
EXTRACT: note_on channel=9 note=40 velocity=100 time=0
EXTRACT: note_on channel=9 note=45 velocity=100 time=0
EXTRACT: note_on channel=9 note=45 velocity=0 time=0.2608695
EXTRACT: note_on channel=5 note=75 velocity=0 time=0
EXTRACT: note_on channel=0 note=57 velocity=0 time=0
EXTRACT: note_on channel=0 note=60 velocity=0 time=0
EXTRACT: note_on channel=9 note=40 velocity=0 time=0
EXTRACT: note_on channel=0 note=57 velocity=100 time=0
EXTRACT: note_on channel=0 note=66 velocity=100 time=0
EXTRACT: note_on channel=0 note=66 velocity=0 time=0.2608695
EXTRACT: note_on channel=9 note=56 velocity=0 time=0
EXTRACT: note_on channel=5 note=72 velocity=0 time=0
EXTRACT: note_on channel=0 note=57 velocity=0 time=0
EXTRACT: note_on channel=0 note=57 velocity=100 time=0
EXTRACT: note_on channel=0 note=65 velocity=100 time=0
EXTRACT: note_on channel=1 note=75 velocity=100 time=0
EXTRACT: note_on channel=5 note=78 velocity=100 time=0
EXTRACT: note_on channel=5 note=75 velocity=100 time=0
EXTRACT: note_on channel=9 note=56 velocity=100 time=0
EXTRACT: note_on channel=5 note=78 velocity=0 time=0.2608695
EXTRACT: note_on channel=0 note=65 velocity=0 time=0
EXTRACT: note_on channel=0 note=57 velocity=0 time=0
EXTRACT: note_on channel=9 note=35 velocity=100 time=0
EXTRACT: note_on channel=9 note=35 velocity=0 time=0.2608695
EXTRACT: note_on channel=5 note=75 velocity=0 time=0
EXTRACT: note_on channel=9 note=56 velocity=0 time=0
EXTRACT: note_on channel=1 note=75 velocity=0 time=0
EXTRACT: note_on channel=9 note=58 velocity=100 time=0
EXTRACT: note_on channel=9 note=45 velocity=100 time=0
EXTRACT: note_on channel=9 note=40 velocity=100 time=0
EXTRACT: note_on channel=9 note=56 velocity=100 time=0
EXTRACT: note_on channel=9 note=40 velocity=0 time=0.2608695
EXTRACT: note_on channel=9 note=45 velocity=0 time=0
EXTRACT: note_on channel=0 note=65 velocity=100 time=0
EXTRACT: note_on channel=5 note=75 velocity=100 time=0
EXTRACT: note_on channel=5 note=72 velocity=100 time=0
EXTRACT: note_on channel=0 note=65 velocity=0 time=0.2608695
EXTRACT: note_on channel=9 note=56 velocity=0 time=0
EXTRACT: note_on channel=9 note=58 velocity=0 time=0
EXTRACT: note_on channel=0 note=48 velocity=100 time=0
EXTRACT: note_on channel=0 note=57 velocity=100 time=0
EXTRACT: note_on channel=1 note=69 velocity=100 time=0
EXTRACT: note_on channel=9 note=56 velocity=100 time=0
EXTRACT: note_on channel=9 note=35 velocity=100 time=0
EXTRACT: note_on channel=9 note=35 velocity=0 time=0.2608695
EXTRACT: note_on channel=5 note=75 velocity=0 time=0
EXTRACT: note_on channel=0 note=48 velocity=0 time=0
EXTRACT: note_on channel=5 note=72 velocity=0 time=0
EXTRACT: note_on channel=0 note=57 velocity=0 time=0
EXTRACT: note_on channel=0 note=60 velocity=100 time=0
EXTRACT: note_on channel=0 note=63 velocity=100 time=0
EXTRACT: note_on channel=0 note=53 velocity=100 time=0
EXTRACT: note_on channel=5 note=75 velocity=100 time=0
EXTRACT: note_on channel=5 note=72 velocity=100 time=0
EXTRACT: note_on channel=5 note=72 velocity=0 time=0.2608695
EXTRACT: note_on channel=0 note=53 velocity=0 time=0
EXTRACT: note_on channel=9 note=56 velocity=0 time=0
EXTRACT: note_on channel=0 note=60 velocity=0 time=0
EXTRACT: note_on channel=1 note=69 velocity=0 time=0
EXTRACT: note_on channel=5 note=75 velocity=0 time=0
EXTRACT: note_on channel=0 note=63 velocity=0 time=0
EXTRACT: note_on channel=0 note=60 velocity=100 time=0
EXTRACT: note_on channel=0 note=63 velocity=100 time=0
EXTRACT: note_on channel=0 note=57 velocity=100 time=0
EXTRACT: note_on channel=5 note=75 velocity=100 time=0
EXTRACT: note_on channel=5 note=72 velocity=100 time=0
EXTRACT: note_on channel=9 note=56 velocity=100 time=0
EXTRACT: note_on channel=9 note=45 velocity=100 time=0
EXTRACT: note_on channel=9 note=40 velocity=100 time=0
EXTRACT: note_on channel=9 note=40 velocity=0 time=0.2608695
EXTRACT: note_on channel=0 note=60 velocity=0 time=0
EXTRACT: note_on channel=0 note=63 velocity=0 time=0
EXTRACT: note_on channel=9 note=45 velocity=0 time=0
EXTRACT: note_on channel=0 note=57 velocity=0 time=0
EXTRACT: note_on channel=5 note=75 velocity=0 time=0
EXTRACT: note_on channel=5 note=72 velocity=0 time=0
EXTRACT: note_on channel=5 note=75 velocity=100 time=0
EXTRACT: note_on channel=5 note=72 velocity=100 time=0
EXTRACT: note_on channel=5 note=72 velocity=0 time=0.2608695
EXTRACT: note_on channel=5 note=75 velocity=0 time=0
EXTRACT: note_on channel=9 note=56 velocity=0 time=0
EXTRACT: note_on channel=1 note=72 velocity=100 time=0
EXTRACT: note_on channel=5 note=75 velocity=100 time=0
EXTRACT: note_on channel=5 note=72 velocity=100 time=0
EXTRACT: note_on channel=9 note=56 velocity=100 time=0
EXTRACT: note_on channel=5 note=72 velocity=0 time=0.2608695
EXTRACT: note_on channel=5 note=75 velocity=0 time=0
EXTRACT: note_on channel=0 note=57 velocity=100 time=0
EXTRACT: note_on channel=0 note=60 velocity=100 time=0
EXTRACT: note_on channel=0 note=63 velocity=100 time=0
EXTRACT: note_on channel=5 note=75 velocity=100 time=0
EXTRACT: note_on channel=5 note=72 velocity=100 time=0
EXTRACT: note_on channel=9 note=35 velocity=100 time=0
EXTRACT: note_on channel=9 note=35 velocity=0 time=0.2608695
EXTRACT: note_on channel=9 note=56 velocity=0 time=0
EXTRACT: note_on channel=0 note=63 velocity=0 time=0
EXTRACT: note_on channel=1 note=72 velocity=0 time=0
EXTRACT: note_on channel=0 note=57 velocity=0 time=0
EXTRACT: note_on channel=0 note=60 velocity=0 time=0
EXTRACT: note_on channel=5 note=75 velocity=0 time=0
EXTRACT: note_on channel=5 note=72 velocity=0 time=0
EXTRACT: note_on channel=5 note=75 velocity=100 time=0
EXTRACT: note_on channel=5 note=72 velocity=100 time=0
EXTRACT: note_on channel=9 note=45 velocity=100 time=0
EXTRACT: note_on channel=9 note=40 velocity=100 time=0
EXTRACT: note_on channel=9 note=56 velocity=100 time=0
EXTRACT: note_on channel=9 note=40 velocity=0 time=0.2608695
EXTRACT: note_on channel=9 note=45 velocity=0 time=0
EXTRACT: note_on channel=5 note=75 velocity=0 time=0
EXTRACT: note_on channel=5 note=72 velocity=0 time=0
EXTRACT: note_on channel=0 note=53 velocity=100 time=0
EXTRACT: note_on channel=5 note=77 velocity=100 time=0
EXTRACT: note_on channel=5 note=73 velocity=100 time=0
EXTRACT: note_on channel=9 note=35 velocity=100 time=0
EXTRACT: note_on channel=9 note=35 velocity=0 time=0.2608695
EXTRACT: note_on channel=5 note=77 velocity=0 time=0
EXTRACT: note_on channel=9 note=56 velocity=0 time=0
EXTRACT: note_on channel=0 note=53 velocity=0 time=0
EXTRACT: note_on channel=5 note=73 velocity=0 time=0
EXTRACT: note_on channel=0 note=61 velocity=100 time=0
EXTRACT: note_on channel=0 note=58 velocity=100 time=0
EXTRACT: note_on channel=1 note=70 velocity=100 time=0
EXTRACT: note_on channel=5 note=75 velocity=100 time=0
EXTRACT: note_on channel=5 note=72 velocity=100 time=0
EXTRACT: note_on channel=9 note=35 velocity=100 time=0
EXTRACT: note_on channel=9 note=56 velocity=100 time=0
EXTRACT: note_on channel=9 note=35 velocity=0 time=0.2608695
EXTRACT: note_on channel=0 note=61 velocity=0 time=0
EXTRACT: note_on channel=0 note=58 velocity=0 time=0
EXTRACT: note_on channel=0 note=58 velocity=100 time=0
EXTRACT: note_on channel=0 note=61 velocity=100 time=0
EXTRACT: note_on channel=0 note=61 velocity=0 time=0.2608695
EXTRACT: note_on channel=1 note=70 velocity=0 time=0
EXTRACT: note_on channel=9 note=56 velocity=0 time=0
EXTRACT: note_on channel=5 note=75 velocity=0 time=0
EXTRACT: note_on channel=0 note=58 velocity=0 time=0
EXTRACT: note_on channel=5 note=72 velocity=0 time=0
EXTRACT: note_on channel=0 note=58 velocity=100 time=0
EXTRACT: note_on channel=0 note=61 velocity=100 time=0
EXTRACT: note_on channel=5 note=73 velocity=100 time=0
EXTRACT: note_on channel=5 note=70 velocity=100 time=0
EXTRACT: note_on channel=9 note=45 velocity=100 time=0
EXTRACT: note_on channel=9 note=40 velocity=100 time=0
EXTRACT: note_on channel=9 note=56 velocity=100 time=0
EXTRACT: note_on channel=9 note=40 velocity=0 time=0.2608695
EXTRACT: note_on channel=5 note=73 velocity=0 time=0
EXTRACT: note_on channel=0 note=61 velocity=0 time=0
EXTRACT: note_on channel=0 note=58 velocity=0 time=0
EXTRACT: note_on channel=9 note=45 velocity=0 time=0
EXTRACT: note_on channel=4 note=77 velocity=100 time=0
EXTRACT: note_on channel=4 note=77 velocity=0 time=0.2608695
EXTRACT: note_on channel=5 note=70 velocity=0 time=0
EXTRACT: note_on channel=9 note=56 velocity=0 time=0
EXTRACT: note_on channel=1 note=73 velocity=100 time=0
EXTRACT: note_on channel=4 note=77 velocity=100 time=0
EXTRACT: note_on channel=5 note=73 velocity=100 time=0
EXTRACT: note_on channel=5 note=70 velocity=100 time=0
EXTRACT: note_on channel=9 note=56 velocity=100 time=0
EXTRACT: note_on channel=5 note=73 velocity=0 time=0.2608695
EXTRACT: note_on channel=4 note=77 velocity=0 time=0
EXTRACT: note_on channel=0 note=58 velocity=100 time=0
EXTRACT: note_on channel=0 note=61 velocity=100 time=0
EXTRACT: note_on channel=4 note=77 velocity=100 time=0
EXTRACT: note_on channel=9 note=35 velocity=100 time=0
EXTRACT: note_on channel=9 note=35 velocity=0 time=0.2608695
EXTRACT: note_on channel=0 note=61 velocity=0 time=0
EXTRACT: note_on channel=5 note=70 velocity=0 time=0
EXTRACT: note_on channel=1 note=73 velocity=0 time=0
EXTRACT: note_on channel=9 note=56 velocity=0 time=0
EXTRACT: note_on channel=4 note=77 velocity=0 time=0
EXTRACT: note_on channel=0 note=58 velocity=0 time=0
EXTRACT: note_on channel=0 note=58 velocity=100 time=0
EXTRACT: note_on channel=0 note=61 velocity=100 time=0
EXTRACT: note_on channel=4 note=77 velocity=100 time=0
EXTRACT: note_on channel=9 note=45 velocity=100 time=0
EXTRACT: note_on channel=9 note=35 velocity=100 time=0
EXTRACT: note_on channel=9 note=40 velocity=100 time=0
EXTRACT: note_on channel=9 note=56 velocity=100 time=0
EXTRACT: note_on channel=9 note=40 velocity=0 time=0.2608695
EXTRACT: note_on channel=9 note=45 velocity=0 time=0
EXTRACT: note_on channel=0 note=61 velocity=0 time=0
EXTRACT: note_on channel=4 note=77 velocity=0 time=0
EXTRACT: note_on channel=0 note=58 velocity=0 time=0
EXTRACT: note_on channel=9 note=35 velocity=0 time=0
EXTRACT: note_on channel=0 note=53 velocity=100 time=0
EXTRACT: note_on channel=4 note=78 velocity=100 time=0
EXTRACT: note_on channel=5 note=77 velocity=100 time=0
EXTRACT: note_on channel=5 note=73 velocity=100 time=0
EXTRACT: note_on channel=4 note=78 velocity=0 time=0.2608695
EXTRACT: note_on channel=9 note=56 velocity=0 time=0
EXTRACT: note_on channel=0 note=53 velocity=0 time=0
EXTRACT: note_on channel=0 note=46 velocity=100 time=0
EXTRACT: note_on channel=1 note=70 velocity=100 time=0
EXTRACT: note_on channel=4 note=77 velocity=100 time=0
EXTRACT: note_on channel=9 note=56 velocity=100 time=0
EXTRACT: note_on channel=9 note=35 velocity=100 time=0
EXTRACT: note_on channel=9 note=35 velocity=0 time=0.2608695
EXTRACT: note_on channel=5 note=77 velocity=0 time=0
EXTRACT: note_on channel=0 note=46 velocity=0 time=0
EXTRACT: note_on channel=5 note=73 velocity=0 time=0
EXTRACT: note_on channel=4 note=77 velocity=0 time=0
EXTRACT: note_on channel=0 note=49 velocity=100 time=0
EXTRACT: note_on channel=4 note=75 velocity=100 time=0
EXTRACT: note_on channel=5 note=77 velocity=100 time=0
EXTRACT: note_on channel=5 note=73 velocity=100 time=0
EXTRACT: note_on channel=5 note=73 velocity=0 time=0.2608695
EXTRACT: note_on channel=1 note=70 velocity=0 time=0
EXTRACT: note_on channel=0 note=49 velocity=0 time=0
EXTRACT: note_on channel=9 note=56 velocity=0 time=0
EXTRACT: note_on channel=5 note=77 velocity=0 time=0
EXTRACT: note_on channel=4 note=75 velocity=0 time=0
EXTRACT: note_on channel=0 note=58 velocity=100 time=0
EXTRACT: note_on channel=0 note=61 velocity=100 time=0
EXTRACT: note_on channel=0 note=53 velocity=100 time=0
EXTRACT: note_on channel=5 note=77 velocity=100 time=0
EXTRACT: note_on channel=5 note=73 velocity=100 time=0
EXTRACT: note_on channel=9 note=56 velocity=100 time=0
EXTRACT: note_on channel=9 note=40 velocity=100 time=0
EXTRACT: note_on channel=9 note=45 velocity=100 time=0
EXTRACT: note_on channel=9 note=45 velocity=0 time=0.2608695
EXTRACT: note_on channel=0 note=58 velocity=0 time=0
EXTRACT: note_on channel=0 note=61 velocity=0 time=0
EXTRACT: note_on channel=9 note=40 velocity=0 time=0
EXTRACT: note_on channel=0 note=53 velocity=0 time=0
EXTRACT: note_on channel=5 note=77 velocity=0 time=0
EXTRACT: note_on channel=5 note=73 velocity=0 time=0
EXTRACT: note_on channel=4 note=77 velocity=100 time=0
EXTRACT: note_on channel=5 note=77 velocity=100 time=0
EXTRACT: note_on channel=5 note=73 velocity=100 time=0
EXTRACT: note_on channel=5 note=73 velocity=0 time=0.2608695
EXTRACT: note_on channel=9 note=56 velocity=0 time=0
EXTRACT: note_on channel=4 note=77 velocity=0 time=0
EXTRACT: note_on channel=5 note=77 velocity=0 time=0
EXTRACT: note_on channel=1 note=73 velocity=100 time=0
EXTRACT: note_on channel=5 note=77 velocity=100 time=0
EXTRACT: note_on channel=5 note=73 velocity=100 time=0
EXTRACT: note_on channel=9 note=56 velocity=100 time=0
EXTRACT: note_on channel=5 note=73 velocity=0 time=0.2608695
EXTRACT: note_on channel=5 note=77 velocity=0 time=0
EXTRACT: note_on channel=0 note=58 velocity=100 time=0
EXTRACT: note_on channel=0 note=61 velocity=100 time=0
EXTRACT: note_on channel=5 note=77 velocity=100 time=0
EXTRACT: note_on channel=5 note=73 velocity=100 time=0
EXTRACT: note_on channel=9 note=35 velocity=100 time=0
EXTRACT: note_on channel=9 note=35 velocity=0 time=0.2608695
EXTRACT: note_on channel=5 note=77 velocity=0 time=0
EXTRACT: note_on channel=1 note=73 velocity=0 time=0
EXTRACT: note_on channel=0 note=58 velocity=0 time=0
EXTRACT: note_on channel=9 note=56 velocity=0 time=0
EXTRACT: note_on channel=5 note=73 velocity=0 time=0
EXTRACT: note_on channel=0 note=61 velocity=0 time=0
EXTRACT: note_on channel=4 note=75 velocity=100 time=0
EXTRACT: note_on channel=5 note=77 velocity=100 time=0
EXTRACT: note_on channel=5 note=73 velocity=100 time=0
EXTRACT: note_on channel=9 note=56 velocity=100 time=0
EXTRACT: note_on channel=9 note=45 velocity=100 time=0
EXTRACT: note_on channel=9 note=40 velocity=100 time=0
EXTRACT: note_on channel=9 note=40 velocity=0 time=0.2608695
EXTRACT: note_on channel=5 note=77 velocity=0 time=0
EXTRACT: note_on channel=4 note=75 velocity=0 time=0
EXTRACT: note_on channel=5 note=73 velocity=0 time=0
EXTRACT: note_on channel=9 note=45 velocity=0 time=0
EXTRACT: note_on channel=0 note=53 velocity=100 time=0
EXTRACT: note_on channel=4 note=72 velocity=100 time=0
EXTRACT: note_on channel=5 note=78 velocity=100 time=0
EXTRACT: note_on channel=5 note=75 velocity=100 time=0
EXTRACT: note_on channel=9 note=35 velocity=100 time=0
EXTRACT: note_on channel=9 note=35 velocity=0 time=0.2608695
EXTRACT: note_on channel=0 note=53 velocity=0 time=0
EXTRACT: note_on channel=4 note=72 velocity=0 time=0
EXTRACT: note_on channel=9 note=56 velocity=0 time=0
EXTRACT: note_on channel=5 note=75 velocity=0 time=0
EXTRACT: note_on channel=5 note=78 velocity=0 time=0
EXTRACT: note_on channel=0 note=48 velocity=100 time=0
EXTRACT: note_on channel=1 note=72 velocity=100 time=0
EXTRACT: note_on channel=4 note=72 velocity=100 time=0
EXTRACT: note_on channel=5 note=77 velocity=100 time=0
EXTRACT: note_on channel=5 note=73 velocity=100 time=0
EXTRACT: note_on channel=9 note=56 velocity=100 time=0
EXTRACT: note_on channel=5 note=77 velocity=0 time=0.2608695
EXTRACT: note_on channel=4 note=72 velocity=0 time=0
EXTRACT: note_on channel=0 note=48 velocity=0 time=0
EXTRACT: note_on channel=0 note=53 velocity=100 time=0
EXTRACT: note_on channel=0 note=53 velocity=0 time=0.2608695
EXTRACT: note_on channel=9 note=56 velocity=0 time=0
EXTRACT: note_on channel=5 note=73 velocity=0 time=0
EXTRACT: note_on channel=1 note=72 velocity=0 time=0
EXTRACT: note_on channel=0 note=60 velocity=100 time=0
EXTRACT: note_on channel=0 note=57 velocity=100 time=0
EXTRACT: note_on channel=5 note=75 velocity=100 time=0
EXTRACT: note_on channel=5 note=72 velocity=100 time=0
EXTRACT: note_on channel=9 note=40 velocity=100 time=0
EXTRACT: note_on channel=9 note=45 velocity=100 time=0
EXTRACT: note_on channel=9 note=56 velocity=100 time=0
EXTRACT: note_on channel=9 note=45 velocity=0 time=0.2608695
EXTRACT: note_on channel=5 note=75 velocity=0 time=0
EXTRACT: note_on channel=0 note=57 velocity=0 time=0
EXTRACT: note_on channel=0 note=60 velocity=0 time=0
EXTRACT: note_on channel=9 note=40 velocity=0 time=0
EXTRACT: note_on channel=0 note=57 velocity=100 time=0
EXTRACT: note_on channel=0 note=66 velocity=100 time=0
EXTRACT: note_on channel=0 note=66 velocity=0 time=0.2608695
EXTRACT: note_on channel=9 note=56 velocity=0 time=0
EXTRACT: note_on channel=5 note=72 velocity=0 time=0
EXTRACT: note_on channel=0 note=57 velocity=0 time=0
EXTRACT: note_on channel=0 note=57 velocity=100 time=0
EXTRACT: note_on channel=0 note=65 velocity=100 time=0
EXTRACT: note_on channel=1 note=75 velocity=100 time=0
EXTRACT: note_on channel=5 note=78 velocity=100 time=0
EXTRACT: note_on channel=5 note=75 velocity=100 time=0
EXTRACT: note_on channel=9 note=58 velocity=100 time=0
EXTRACT: note_on channel=9 note=56 velocity=100 time=0
EXTRACT: note_on channel=5 note=78 velocity=0 time=0.2608695
EXTRACT: note_on channel=0 note=65 velocity=0 time=0
EXTRACT: note_on channel=0 note=57 velocity=0 time=0
EXTRACT: note_on channel=9 note=35 velocity=100 time=0
EXTRACT: note_on channel=9 note=35 velocity=0 time=0.2608695
EXTRACT: note_on channel=1 note=75 velocity=0 time=0
EXTRACT: note_on channel=9 note=58 velocity=0 time=0
EXTRACT: note_on channel=9 note=56 velocity=0 time=0
EXTRACT: note_on channel=5 note=75 velocity=0 time=0
EXTRACT: note_on channel=9 note=45 velocity=100 time=0
EXTRACT: note_on channel=9 note=40 velocity=100 time=0
EXTRACT: note_on channel=9 note=56 velocity=100 time=0
EXTRACT: note_on channel=9 note=40 velocity=0 time=0.2608695
EXTRACT: note_on channel=9 note=45 velocity=0 time=0
EXTRACT: note_on channel=0 note=65 velocity=100 time=0
EXTRACT: note_on channel=5 note=75 velocity=100 time=0
EXTRACT: note_on channel=5 note=72 velocity=100 time=0
EXTRACT: note_on channel=0 note=65 velocity=0 time=0.2608695
EXTRACT: note_on channel=9 note=56 velocity=0 time=0
EXTRACT: note_on channel=0 note=48 velocity=100 time=0
EXTRACT: note_on channel=0 note=57 velocity=100 time=0
EXTRACT: note_on channel=1 note=69 velocity=100 time=0
EXTRACT: note_on channel=9 note=56 velocity=100 time=0
EXTRACT: note_on channel=9 note=35 velocity=100 time=0
EXTRACT: note_on channel=9 note=35 velocity=0 time=0.2608695
EXTRACT: note_on channel=5 note=75 velocity=0 time=0
EXTRACT: note_on channel=0 note=48 velocity=0 time=0
EXTRACT: note_on channel=5 note=72 velocity=0 time=0
EXTRACT: note_on channel=0 note=57 velocity=0 time=0
EXTRACT: note_on channel=0 note=60 velocity=100 time=0
EXTRACT: note_on channel=0 note=63 velocity=100 time=0
EXTRACT: note_on channel=0 note=53 velocity=100 time=0
EXTRACT: note_on channel=5 note=75 velocity=100 time=0
EXTRACT: note_on channel=5 note=72 velocity=100 time=0
EXTRACT: note_on channel=5 note=72 velocity=0 time=0.2608695
EXTRACT: note_on channel=0 note=53 velocity=0 time=0
EXTRACT: note_on channel=9 note=56 velocity=0 time=0
EXTRACT: note_on channel=0 note=60 velocity=0 time=0
EXTRACT: note_on channel=1 note=69 velocity=0 time=0
EXTRACT: note_on channel=5 note=75 velocity=0 time=0
EXTRACT: note_on channel=0 note=63 velocity=0 time=0
EXTRACT: note_on channel=0 note=60 velocity=100 time=0
EXTRACT: note_on channel=0 note=63 velocity=100 time=0
EXTRACT: note_on channel=0 note=57 velocity=100 time=0
EXTRACT: note_on channel=5 note=75 velocity=100 time=0
EXTRACT: note_on channel=5 note=72 velocity=100 time=0
EXTRACT: note_on channel=9 note=56 velocity=100 time=0
EXTRACT: note_on channel=9 note=40 velocity=100 time=0
EXTRACT: note_on channel=9 note=45 velocity=100 time=0
EXTRACT: note_on channel=9 note=45 velocity=0 time=0.2608695
EXTRACT: note_on channel=0 note=60 velocity=0 time=0
EXTRACT: note_on channel=0 note=63 velocity=0 time=0
EXTRACT: note_on channel=9 note=40 velocity=0 time=0
EXTRACT: note_on channel=0 note=57 velocity=0 time=0
EXTRACT: note_on channel=5 note=75 velocity=0 time=0
EXTRACT: note_on channel=5 note=72 velocity=0 time=0
EXTRACT: note_on channel=5 note=75 velocity=100 time=0
EXTRACT: note_on channel=5 note=72 velocity=100 time=0
EXTRACT: note_on channel=5 note=72 velocity=0 time=0.2608695
EXTRACT: note_on channel=5 note=75 velocity=0 time=0
EXTRACT: note_on channel=9 note=56 velocity=0 time=0
EXTRACT: note_on channel=1 note=72 velocity=100 time=0
EXTRACT: note_on channel=5 note=75 velocity=100 time=0
EXTRACT: note_on channel=5 note=72 velocity=100 time=0
EXTRACT: note_on channel=9 note=56 velocity=100 time=0
EXTRACT: note_on channel=5 note=72 velocity=0 time=0.2608695
EXTRACT: note_on channel=5 note=75 velocity=0 time=0
EXTRACT: note_on channel=0 note=57 velocity=100 time=0
EXTRACT: note_on channel=0 note=60 velocity=100 time=0
EXTRACT: note_on channel=0 note=63 velocity=100 time=0
EXTRACT: note_on channel=5 note=75 velocity=100 time=0
EXTRACT: note_on channel=5 note=72 velocity=100 time=0
EXTRACT: note_on channel=9 note=35 velocity=100 time=0
EXTRACT: note_on channel=9 note=35 velocity=0 time=0.2608695
EXTRACT: note_on channel=9 note=56 velocity=0 time=0
EXTRACT: note_on channel=0 note=63 velocity=0 time=0
EXTRACT: note_on channel=1 note=72 velocity=0 time=0
EXTRACT: note_on channel=0 note=57 velocity=0 time=0
EXTRACT: note_on channel=0 note=60 velocity=0 time=0
EXTRACT: note_on channel=5 note=75 velocity=0 time=0
EXTRACT: note_on channel=5 note=72 velocity=0 time=0
EXTRACT: note_on channel=5 note=75 velocity=100 time=0
EXTRACT: note_on channel=5 note=72 velocity=100 time=0
EXTRACT: note_on channel=9 note=40 velocity=100 time=0
EXTRACT: note_on channel=9 note=45 velocity=100 time=0
EXTRACT: note_on channel=9 note=56 velocity=100 time=0
EXTRACT: note_on channel=9 note=45 velocity=0 time=0.2608695
EXTRACT: note_on channel=9 note=40 velocity=0 time=0
EXTRACT: note_on channel=5 note=75 velocity=0 time=0
EXTRACT: note_on channel=5 note=72 velocity=0 time=0
EXTRACT: note_on channel=0 note=53 velocity=100 time=0
EXTRACT: note_on channel=5 note=77 velocity=100 time=0
EXTRACT: note_on channel=5 note=73 velocity=100 time=0
EXTRACT: note_on channel=9 note=35 velocity=100 time=0
EXTRACT: note_on channel=9 note=35 velocity=0 time=0.2608695
EXTRACT: note_on channel=5 note=77 velocity=0 time=0
EXTRACT: note_on channel=9 note=56 velocity=0 time=0
EXTRACT: note_on channel=0 note=53 velocity=0 time=0
EXTRACT: note_on channel=5 note=73 velocity=0 time=0
EXTRACT: note_on channel=0 note=61 velocity=100 time=0
EXTRACT: note_on channel=0 note=58 velocity=100 time=0
EXTRACT: note_on channel=1 note=70 velocity=100 time=0
EXTRACT: note_on channel=5 note=75 velocity=100 time=0
EXTRACT: note_on channel=5 note=72 velocity=100 time=0
EXTRACT: note_on channel=9 note=35 velocity=100 time=0
EXTRACT: note_on channel=9 note=40 velocity=100 time=0
EXTRACT: note_on channel=9 note=56 velocity=100 time=0
EXTRACT: note_on channel=9 note=45 velocity=100 time=0
EXTRACT: note_on channel=9 note=45 velocity=0 time=0.2608695
EXTRACT: note_on channel=9 note=40 velocity=0 time=0
EXTRACT: note_on channel=0 note=61 velocity=0 time=0
EXTRACT: note_on channel=0 note=58 velocity=0 time=0
EXTRACT: note_on channel=9 note=35 velocity=0 time=0
EXTRACT: note_on channel=0 note=58 velocity=100 time=0
EXTRACT: note_on channel=0 note=61 velocity=100 time=0
EXTRACT: note_on channel=9 note=40 velocity=100 time=0
EXTRACT: note_on channel=9 note=45 velocity=100 time=0
EXTRACT: note_on channel=9 note=35 velocity=100 time=0
EXTRACT: note_on channel=9 note=35 velocity=0 time=0.2608695
EXTRACT: note_on channel=5 note=72 velocity=0 time=0
EXTRACT: note_on channel=9 note=56 velocity=0 time=0
EXTRACT: note_on channel=0 note=58 velocity=0 time=0
EXTRACT: note_on channel=1 note=70 velocity=0 time=0
EXTRACT: note_on channel=5 note=75 velocity=0 time=0
EXTRACT: note_on channel=9 note=40 velocity=0 time=0
EXTRACT: note_on channel=0 note=61 velocity=0 time=0
EXTRACT: note_on channel=9 note=45 velocity=0 time=0
EXTRACT: note_on channel=0 note=58 velocity=100 time=0
EXTRACT: note_on channel=0 note=61 velocity=100 time=0
EXTRACT: note_on channel=4 note=82 velocity=100 time=0
EXTRACT: note_on channel=5 note=73 velocity=100 time=0
EXTRACT: note_on channel=5 note=70 velocity=100 time=0
EXTRACT: note_on channel=9 note=56 velocity=100 time=0
EXTRACT: note_on channel=9 note=45 velocity=100 time=0
EXTRACT: note_on channel=9 note=40 velocity=100 time=0
EXTRACT: note_on channel=9 note=35 velocity=100 time=0
EXTRACT: note_on channel=9 note=35 velocity=0 time=0.2608695
EXTRACT: note_on channel=0 note=58 velocity=0 time=0
EXTRACT: note_on channel=9 note=40 velocity=0 time=0
EXTRACT: note_on channel=9 note=45 velocity=0 time=0
EXTRACT: note_on channel=0 note=61 velocity=0 time=0
EXTRACT: note_on channel=5 note=70 velocity=0 time=0.2608695
EXTRACT: note_on channel=5 note=73 velocity=0 time=0
EXTRACT: note_on channel=4 note=82 velocity=0 time=0
EXTRACT: note_on channel=9 note=56 velocity=0 time=0
EXTRACT: note_on channel=1 note=73 velocity=100 time=0
EXTRACT: note_on channel=4 note=80 velocity=100 time=0
EXTRACT: note_on channel=5 note=73 velocity=100 time=0
EXTRACT: note_on channel=5 note=70 velocity=100 time=0
EXTRACT: note_on channel=9 note=56 velocity=100 time=0
EXTRACT: note_on channel=5 note=70 velocity=0 time=0.2608695
EXTRACT: note_on channel=5 note=73 velocity=0 time=0
EXTRACT: note_on channel=0 note=58 velocity=100 time=0
EXTRACT: note_on channel=0 note=61 velocity=100 time=0
EXTRACT: note_on channel=5 note=70 velocity=100 time=0
EXTRACT: note_on channel=5 note=73 velocity=100 time=0
EXTRACT: note_on channel=9 note=45 velocity=100 time=0
EXTRACT: note_on channel=9 note=40 velocity=100 time=0
EXTRACT: note_on channel=9 note=35 velocity=100 time=0
EXTRACT: note_on channel=9 note=35 velocity=0 time=0.2608695
EXTRACT: note_on channel=1 note=73 velocity=0 time=0
EXTRACT: note_on channel=0 note=58 velocity=0 time=0
EXTRACT: note_on channel=9 note=56 velocity=0 time=0
EXTRACT: note_on channel=0 note=61 velocity=0 time=0
EXTRACT: note_on channel=4 note=80 velocity=0 time=0
EXTRACT: note_on channel=9 note=45 velocity=0 time=0
EXTRACT: note_on channel=5 note=73 velocity=0 time=0
EXTRACT: note_on channel=5 note=70 velocity=0 time=0
EXTRACT: note_on channel=9 note=40 velocity=0 time=0
EXTRACT: note_on channel=0 note=58 velocity=100 time=0
EXTRACT: note_on channel=0 note=61 velocity=100 time=0
EXTRACT: note_on channel=4 note=78 velocity=100 time=0
EXTRACT: note_on channel=5 note=70 velocity=100 time=0
EXTRACT: note_on channel=5 note=73 velocity=100 time=0
EXTRACT: note_on channel=9 note=56 velocity=100 time=0
EXTRACT: note_on channel=9 note=35 velocity=100 time=0
EXTRACT: note_on channel=9 note=40 velocity=100 time=0
EXTRACT: note_on channel=9 note=45 velocity=100 time=0
EXTRACT: note_on channel=9 note=45 velocity=0 time=0.2608695
EXTRACT: note_on channel=5 note=70 velocity=0 time=0
EXTRACT: note_on channel=0 note=58 velocity=0 time=0
EXTRACT: note_on channel=9 note=40 velocity=0 time=0
EXTRACT: note_on channel=9 note=35 velocity=0 time=0
EXTRACT: note_on channel=0 note=61 velocity=0 time=0
EXTRACT: note_on channel=5 note=73 velocity=0 time=0
EXTRACT: note_on channel=0 note=53 velocity=100 time=0
EXTRACT: note_on channel=5 note=63 velocity=100 time=0
EXTRACT: note_on channel=5 note=72 velocity=100 time=0
EXTRACT: note_on channel=5 note=75 velocity=100 time=0
EXTRACT: note_on channel=5 note=75 velocity=0 time=0
EXTRACT: note_on channel=9 note=56 velocity=0 time=0
EXTRACT: note_on channel=0 note=53 velocity=0 time=0
EXTRACT: note_on channel=4 note=78 velocity=0 time=0
EXTRACT: note_on channel=5 note=72 velocity=0 time=0
EXTRACT: note_on channel=5 note=63 velocity=0 time=0
EXTRACT: note_on channel=0 note=46 velocity=100 time=0
EXTRACT: note_on channel=1 note=70 velocity=100 time=0
EXTRACT: note_on channel=2 note=77 velocity=100 time=0
EXTRACT: note_on channel=3 note=77 velocity=100 time=0
EXTRACT: note_on channel=4 note=77 velocity=100 time=0
EXTRACT: note_on channel=5 note=61 velocity=100 time=0
EXTRACT: note_on channel=5 note=70 velocity=100 time=0
EXTRACT: note_on channel=5 note=73 velocity=100 time=0
EXTRACT: note_on channel=9 note=56 velocity=100 time=0
EXTRACT: note_on channel=9 note=35 velocity=100 time=0
EXTRACT: note_on channel=3 note=77 velocity=0 time=0.13043475
EXTRACT: note_on channel=2 note=77 velocity=0 time=0
EXTRACT: note_on channel=5 note=73 velocity=0 time=0.13043475
EXTRACT: note_on channel=9 note=35 velocity=0 time=0
EXTRACT: note_on channel=5 note=61 velocity=0 time=0
EXTRACT: note_on channel=0 note=46 velocity=0 time=0
EXTRACT: note_on channel=5 note=70 velocity=0 time=0
EXTRACT: note_on channel=0 note=49 velocity=100 time=0
EXTRACT: note_on channel=2 note=77 velocity=100 time=0
EXTRACT: note_on channel=3 note=77 velocity=100 time=0
EXTRACT: note_on channel=5 note=61 velocity=100 time=0
EXTRACT: note_on channel=5 note=70 velocity=100 time=0
EXTRACT: note_on channel=5 note=73 velocity=100 time=0
EXTRACT: note_on channel=0 note=49 velocity=0 time=0.2608695
EXTRACT: note_on channel=4 note=77 velocity=0 time=0
EXTRACT: note_on channel=1 note=70 velocity=0 time=0
EXTRACT: note_on channel=9 note=56 velocity=0 time=0
EXTRACT: note_on channel=0 note=58 velocity=100 time=0
EXTRACT: note_on channel=0 note=61 velocity=100 time=0
EXTRACT: note_on channel=0 note=53 velocity=100 time=0
EXTRACT: note_on channel=9 note=56 velocity=100 time=0
EXTRACT: note_on channel=9 note=45 velocity=100 time=0
EXTRACT: note_on channel=9 note=40 velocity=100 time=0
EXTRACT: note_on channel=9 note=40 velocity=0 time=0.2608695
EXTRACT: note_on channel=0 note=61 velocity=0 time=0
EXTRACT: note_on channel=9 note=45 velocity=0 time=0
EXTRACT: note_on channel=0 note=53 velocity=0 time=0
EXTRACT: note_on channel=0 note=58 velocity=0 time=0
EXTRACT: note_on channel=5 note=70 velocity=0 time=0.2608695
EXTRACT: note_on channel=5 note=73 velocity=0 time=0
EXTRACT: note_on channel=9 note=56 velocity=0 time=0
EXTRACT: note_on channel=5 note=61 velocity=0 time=0
EXTRACT: note_on channel=1 note=73 velocity=100 time=0
EXTRACT: note_on channel=9 note=56 velocity=100 time=0
EXTRACT: note_on channel=3 note=77 velocity=0 time=0.2608695
EXTRACT: note_on channel=2 note=77 velocity=0 time=0
EXTRACT: note_on channel=0 note=58 velocity=100 time=0
EXTRACT: note_on channel=0 note=61 velocity=100 time=0
EXTRACT: note_on channel=9 note=35 velocity=100 time=0
EXTRACT: note_on channel=9 note=35 velocity=0 time=0.2608695
EXTRACT: note_on channel=0 note=58 velocity=0 time=0
EXTRACT: note_on channel=9 note=56 velocity=0 time=0
EXTRACT: note_on channel=1 note=73 velocity=0 time=0
EXTRACT: note_on channel=0 note=61 velocity=0 time=0
EXTRACT: note_on channel=2 note=77 velocity=100 time=0
EXTRACT: note_on channel=3 note=77 velocity=100 time=0
EXTRACT: note_on channel=5 note=61 velocity=100 time=0
EXTRACT: note_on channel=5 note=70 velocity=100 time=0
EXTRACT: note_on channel=5 note=73 velocity=100 time=0
EXTRACT: note_on channel=9 note=45 velocity=100 time=0
EXTRACT: note_on channel=9 note=40 velocity=100 time=0
EXTRACT: note_on channel=9 note=56 velocity=100 time=0
EXTRACT: note_on channel=9 note=40 velocity=0 time=0.2608695
EXTRACT: note_on channel=5 note=70 velocity=0 time=0
EXTRACT: note_on channel=5 note=73 velocity=0 time=0
EXTRACT: note_on channel=3 note=77 velocity=0 time=0
EXTRACT: note_on channel=5 note=61 velocity=0 time=0
EXTRACT: note_on channel=2 note=77 velocity=0 time=0
EXTRACT: note_on channel=9 note=45 velocity=0 time=0
EXTRACT: note_on channel=0 note=53 velocity=100 time=0
EXTRACT: note_on channel=2 note=75 velocity=100 time=0
EXTRACT: note_on channel=3 note=75 velocity=100 time=0
EXTRACT: note_on channel=5 note=63 velocity=100 time=0
EXTRACT: note_on channel=5 note=72 velocity=100 time=0
EXTRACT: note_on channel=5 note=75 velocity=100 time=0
EXTRACT: note_on channel=9 note=35 velocity=100 time=0
EXTRACT: note_on channel=9 note=35 velocity=0 time=0.2608695
EXTRACT: note_on channel=9 note=56 velocity=0 time=0
EXTRACT: note_on channel=5 note=63 velocity=0 time=0
EXTRACT: note_on channel=0 note=53 velocity=0 time=0
EXTRACT: note_on channel=2 note=75 velocity=0 time=0
EXTRACT: note_on channel=3 note=75 velocity=0 time=0
EXTRACT: note_on channel=5 note=72 velocity=0 time=0
EXTRACT: note_on channel=5 note=75 velocity=0 time=0
EXTRACT: note_on channel=0 note=48 velocity=100 time=0
EXTRACT: note_on channel=1 note=72 velocity=100 time=0
EXTRACT: note_on channel=5 note=60 velocity=100 time=0
EXTRACT: note_on channel=5 note=69 velocity=100 time=0
EXTRACT: note_on channel=5 note=72 velocity=100 time=0
EXTRACT: note_on channel=9 note=56 velocity=100 time=0
EXTRACT: note_on channel=5 note=72 velocity=0 time=0.2608695
EXTRACT: note_on channel=5 note=69 velocity=0 time=0
EXTRACT: note_on channel=5 note=60 velocity=0 time=0
EXTRACT: note_on channel=0 note=48 velocity=0 time=0
EXTRACT: note_on channel=0 note=53 velocity=100 time=0
EXTRACT: note_on channel=2 note=77 velocity=100 time=0
EXTRACT: note_on channel=3 note=77 velocity=100 time=0
EXTRACT: note_on channel=5 note=60 velocity=100 time=0
EXTRACT: note_on channel=5 note=69 velocity=100 time=0
EXTRACT: note_on channel=5 note=72 velocity=100 time=0
EXTRACT: note_on channel=0 note=53 velocity=0 time=0.2608695
EXTRACT: note_on channel=9 note=56 velocity=0 time=0
EXTRACT: note_on channel=1 note=72 velocity=0 time=0
EXTRACT: note_on channel=0 note=60 velocity=100 time=0
EXTRACT: note_on channel=0 note=57 velocity=100 time=0
EXTRACT: note_on channel=9 note=56 velocity=100 time=0
EXTRACT: note_on channel=9 note=40 velocity=100 time=0
EXTRACT: note_on channel=9 note=45 velocity=100 time=0
EXTRACT: note_on channel=9 note=45 velocity=0 time=0.2608695
EXTRACT: note_on channel=9 note=40 velocity=0 time=0
EXTRACT: note_on channel=0 note=57 velocity=0 time=0
EXTRACT: note_on channel=0 note=60 velocity=0 time=0
EXTRACT: note_on channel=0 note=57 velocity=100 time=0
EXTRACT: note_on channel=0 note=66 velocity=100 time=0
EXTRACT: note_on channel=0 note=66 velocity=0 time=0.2608695
EXTRACT: note_on channel=9 note=56 velocity=0 time=0
EXTRACT: note_on channel=5 note=69 velocity=0 time=0
EXTRACT: note_on channel=0 note=57 velocity=0 time=0
EXTRACT: note_on channel=5 note=72 velocity=0 time=0
EXTRACT: note_on channel=5 note=60 velocity=0 time=0
EXTRACT: note_on channel=0 note=57 velocity=100 time=0
EXTRACT: note_on channel=0 note=65 velocity=100 time=0
EXTRACT: note_on channel=1 note=75 velocity=100 time=0
EXTRACT: note_on channel=9 note=56 velocity=100 time=0
EXTRACT: note_on channel=0 note=65 velocity=0 time=0.2608695
EXTRACT: note_on channel=0 note=57 velocity=0 time=0
EXTRACT: note_on channel=3 note=77 velocity=0 time=0
EXTRACT: note_on channel=2 note=77 velocity=0 time=0
EXTRACT: note_on channel=9 note=35 velocity=100 time=0
EXTRACT: note_on channel=9 note=35 velocity=0 time=0.2608695
EXTRACT: note_on channel=9 note=56 velocity=0 time=0
EXTRACT: note_on channel=1 note=75 velocity=0 time=0
EXTRACT: note_on channel=2 note=78 velocity=100 time=0
EXTRACT: note_on channel=3 note=78 velocity=100 time=0
EXTRACT: note_on channel=9 note=58 velocity=100 time=0
EXTRACT: note_on channel=9 note=56 velocity=100 time=0
EXTRACT: note_on channel=9 note=40 velocity=100 time=0
EXTRACT: note_on channel=9 note=45 velocity=100 time=0
EXTRACT: note_on channel=9 note=45 velocity=0 time=0.2608695
EXTRACT: note_on channel=3 note=78 velocity=0 time=0
EXTRACT: note_on channel=2 note=78 velocity=0 time=0
EXTRACT: note_on channel=9 note=40 velocity=0 time=0
EXTRACT: note_on channel=0 note=65 velocity=100 time=0
EXTRACT: note_on channel=2 note=77 velocity=100 time=0
EXTRACT: note_on channel=3 note=77 velocity=100 time=0
EXTRACT: note_on channel=5 note=75 velocity=100 time=0
EXTRACT: note_on channel=5 note=63 velocity=100 time=0
EXTRACT: note_on channel=5 note=72 velocity=100 time=0
EXTRACT: note_on channel=3 note=77 velocity=0 time=0.2608695
EXTRACT: note_on channel=2 note=77 velocity=0 time=0
EXTRACT: note_on channel=9 note=58 velocity=0 time=0
EXTRACT: note_on channel=0 note=65 velocity=0 time=0
EXTRACT: note_on channel=9 note=56 velocity=0 time=0
EXTRACT: note_on channel=0 note=48 velocity=100 time=0
EXTRACT: note_on channel=0 note=57 velocity=100 time=0
EXTRACT: note_on channel=1 note=69 velocity=100 time=0
EXTRACT: note_on channel=2 note=77 velocity=100 time=0
EXTRACT: note_on channel=3 note=77 velocity=100 time=0
EXTRACT: note_on channel=9 note=56 velocity=100 time=0
EXTRACT: note_on channel=9 note=35 velocity=100 time=0
EXTRACT: note_on channel=3 note=77 velocity=0 time=0.13043475
EXTRACT: note_on channel=2 note=77 velocity=0 time=0
EXTRACT: note_on channel=5 note=72 velocity=0 time=0.13043475
EXTRACT: note_on channel=0 note=48 velocity=0 time=0
EXTRACT: note_on channel=5 note=63 velocity=0 time=0
EXTRACT: note_on channel=5 note=75 velocity=0 time=0
EXTRACT: note_on channel=9 note=35 velocity=0 time=0
EXTRACT: note_on channel=0 note=57 velocity=0 time=0
EXTRACT: note_on channel=0 note=60 velocity=100 time=0
EXTRACT: note_on channel=0 note=63 velocity=100 time=0
EXTRACT: note_on channel=0 note=53 velocity=100 time=0
EXTRACT: note_on channel=2 note=77 velocity=100 time=0
EXTRACT: note_on channel=3 note=77 velocity=100 time=0
EXTRACT: note_on channel=5 note=75 velocity=100 time=0
EXTRACT: note_on channel=5 note=63 velocity=100 time=0
EXTRACT: note_on channel=5 note=72 velocity=100 time=0
EXTRACT: note_on channel=5 note=72 velocity=0 time=0.2608695
EXTRACT: note_on channel=0 note=60 velocity=0 time=0
EXTRACT: note_on channel=0 note=63 velocity=0 time=0
EXTRACT: note_on channel=1 note=69 velocity=0 time=0
EXTRACT: note_on channel=5 note=63 velocity=0 time=0
EXTRACT: note_on channel=0 note=53 velocity=0 time=0
EXTRACT: note_on channel=5 note=75 velocity=0 time=0
EXTRACT: note_on channel=9 note=56 velocity=0 time=0
EXTRACT: note_on channel=0 note=60 velocity=100 time=0
EXTRACT: note_on channel=0 note=63 velocity=100 time=0
EXTRACT: note_on channel=0 note=57 velocity=100 time=0
EXTRACT: note_on channel=5 note=75 velocity=100 time=0
EXTRACT: note_on channel=5 note=63 velocity=100 time=0
EXTRACT: note_on channel=5 note=72 velocity=100 time=0
EXTRACT: note_on channel=9 note=56 velocity=100 time=0
EXTRACT: note_on channel=9 note=45 velocity=100 time=0
EXTRACT: note_on channel=9 note=40 velocity=100 time=0
EXTRACT: note_on channel=9 note=40 velocity=0 time=0.2608695
EXTRACT: note_on channel=5 note=63 velocity=0 time=0
EXTRACT: note_on channel=0 note=60 velocity=0 time=0
EXTRACT: note_on channel=9 note=45 velocity=0 time=0
EXTRACT: note_on channel=0 note=63 velocity=0 time=0
EXTRACT: note_on channel=0 note=57 velocity=0 time=0
EXTRACT: note_on channel=5 note=72 velocity=0 time=0
EXTRACT: note_on channel=5 note=75 velocity=0 time=0
EXTRACT: note_on channel=5 note=75 velocity=100 time=0
EXTRACT: note_on channel=5 note=63 velocity=100 time=0
EXTRACT: note_on channel=5 note=72 velocity=100 time=0
EXTRACT: note_on channel=5 note=72 velocity=0 time=0.2608695
EXTRACT: note_on channel=5 note=75 velocity=0 time=0
EXTRACT: note_on channel=9 note=56 velocity=0 time=0
EXTRACT: note_on channel=5 note=63 velocity=0 time=0
EXTRACT: note_on channel=1 note=72 velocity=100 time=0
EXTRACT: note_on channel=5 note=75 velocity=100 time=0
EXTRACT: note_on channel=5 note=63 velocity=100 time=0
EXTRACT: note_on channel=5 note=72 velocity=100 time=0
EXTRACT: note_on channel=9 note=56 velocity=100 time=0
EXTRACT: note_on channel=5 note=72 velocity=0 time=0.2608695
EXTRACT: note_on channel=3 note=77 velocity=0 time=0
EXTRACT: note_on channel=2 note=77 velocity=0 time=0
EXTRACT: note_on channel=5 note=63 velocity=0 time=0
EXTRACT: note_on channel=0 note=57 velocity=100 time=0
EXTRACT: note_on channel=0 note=60 velocity=100 time=0
EXTRACT: note_on channel=0 note=63 velocity=100 time=0
EXTRACT: note_on channel=9 note=35 velocity=100 time=0
EXTRACT: note_on channel=9 note=35 velocity=0 time=0.2608695
EXTRACT: note_on channel=0 note=60 velocity=0 time=0
EXTRACT: note_on channel=9 note=56 velocity=0 time=0
EXTRACT: note_on channel=5 note=75 velocity=0 time=0
EXTRACT: note_on channel=1 note=72 velocity=0 time=0
EXTRACT: note_on channel=0 note=63 velocity=0 time=0
EXTRACT: note_on channel=0 note=57 velocity=0 time=0
EXTRACT: note_on channel=2 note=77 velocity=100 time=0
EXTRACT: note_on channel=3 note=77 velocity=100 time=0
EXTRACT: note_on channel=5 note=75 velocity=100 time=0
EXTRACT: note_on channel=5 note=63 velocity=100 time=0
EXTRACT: note_on channel=5 note=72 velocity=100 time=0
EXTRACT: note_on channel=9 note=40 velocity=100 time=0
EXTRACT: note_on channel=9 note=56 velocity=100 time=0
EXTRACT: note_on channel=9 note=45 velocity=100 time=0
EXTRACT: note_on channel=9 note=45 velocity=0 time=0.2608695
EXTRACT: note_on channel=2 note=77 velocity=0 time=0
EXTRACT: note_on channel=9 note=40 velocity=0 time=0
EXTRACT: note_on channel=3 note=77 velocity=0 time=0
EXTRACT: note_on channel=5 note=75 velocity=0 time=0
EXTRACT: note_on channel=5 note=63 velocity=0 time=0
EXTRACT: note_on channel=5 note=72 velocity=0 time=0
EXTRACT: note_on channel=0 note=53 velocity=100 time=0
EXTRACT: note_on channel=2 note=75 velocity=100 time=0
EXTRACT: note_on channel=3 note=75 velocity=100 time=0
EXTRACT: note_on channel=5 note=77 velocity=100 time=0
EXTRACT: note_on channel=5 note=65 velocity=100 time=0
EXTRACT: note_on channel=5 note=73 velocity=100 time=0
EXTRACT: note_on channel=9 note=35 velocity=100 time=0
EXTRACT: note_on channel=9 note=35 velocity=0 time=0.2608695
EXTRACT: note_on channel=9 note=56 velocity=0 time=0
EXTRACT: note_on channel=5 note=77 velocity=0 time=0
EXTRACT: note_on channel=0 note=53 velocity=0 time=0
EXTRACT: note_on channel=2 note=75 velocity=0 time=0
EXTRACT: note_on channel=3 note=75 velocity=0 time=0
EXTRACT: note_on channel=5 note=65 velocity=0 time=0
EXTRACT: note_on channel=5 note=73 velocity=0 time=0
EXTRACT: note_on channel=0 note=61 velocity=100 time=0
EXTRACT: note_on channel=0 note=58 velocity=100 time=0
EXTRACT: note_on channel=1 note=70 velocity=100 time=0
EXTRACT: note_on channel=5 note=63 velocity=100 time=0
EXTRACT: note_on channel=5 note=72 velocity=100 time=0
EXTRACT: note_on channel=5 note=75 velocity=100 time=0
EXTRACT: note_on channel=9 note=35 velocity=100 time=0
EXTRACT: note_on channel=9 note=56 velocity=100 time=0
EXTRACT: note_on channel=9 note=45 velocity=100 time=0
EXTRACT: note_on channel=9 note=40 velocity=100 time=0
EXTRACT: note_on channel=9 note=40 velocity=0 time=0.2608695
EXTRACT: note_on channel=0 note=58 velocity=0 time=0
EXTRACT: note_on channel=0 note=61 velocity=0 time=0
EXTRACT: note_on channel=9 note=45 velocity=0 time=0
EXTRACT: note_on channel=5 note=63 velocity=0 time=0
EXTRACT: note_on channel=9 note=35 velocity=0 time=0
EXTRACT: note_on channel=5 note=72 velocity=0 time=0
EXTRACT: note_on channel=0 note=58 velocity=100 time=0
EXTRACT: note_on channel=0 note=61 velocity=100 time=0
EXTRACT: note_on channel=2 note=77 velocity=100 time=0
EXTRACT: note_on channel=3 note=77 velocity=100 time=0
EXTRACT: note_on channel=9 note=40 velocity=100 time=0
EXTRACT: note_on channel=9 note=35 velocity=100 time=0
EXTRACT: note_on channel=9 note=45 velocity=100 time=0
EXTRACT: note_on channel=9 note=45 velocity=0 time=0.2608695
EXTRACT: note_on channel=9 note=56 velocity=0 time=0
EXTRACT: note_on channel=0 note=58 velocity=0 time=0
EXTRACT: note_on channel=1 note=70 velocity=0 time=0
EXTRACT: note_on channel=9 note=35 velocity=0 time=0
EXTRACT: note_on channel=0 note=61 velocity=0 time=0
EXTRACT: note_on channel=9 note=40 velocity=0 time=0
EXTRACT: note_on channel=5 note=75 velocity=0 time=0
EXTRACT: note_on channel=0 note=58 velocity=100 time=0
EXTRACT: note_on channel=0 note=61 velocity=100 time=0
EXTRACT: note_on channel=4 note=82 velocity=100 time=0
EXTRACT: note_on channel=5 note=61 velocity=100 time=0
EXTRACT: note_on channel=5 note=70 velocity=100 time=0
EXTRACT: note_on channel=5 note=70 velocity=100 time=0
EXTRACT: note_on channel=9 note=45 velocity=100 time=0
EXTRACT: note_on channel=9 note=56 velocity=100 time=0
EXTRACT: note_on channel=9 note=35 velocity=100 time=0
EXTRACT: note_on channel=9 note=40 velocity=100 time=0
EXTRACT: note_on channel=9 note=40 velocity=0 time=0.2608695
EXTRACT: note_on channel=9 note=45 velocity=0 time=0
EXTRACT: note_on channel=5 note=61 velocity=0 time=0
EXTRACT: note_on channel=0 note=58 velocity=0 time=0
EXTRACT: note_on channel=5 note=70 velocity=0 time=0
EXTRACT: note_on channel=9 note=35 velocity=0 time=0
EXTRACT: note_on channel=0 note=61 velocity=0 time=0
EXTRACT: note_on channel=4 note=82 velocity=0 time=0.08695649999999999
EXTRACT: note_on channel=9 note=56 velocity=0 time=0.17391299999999998
EXTRACT: note_on channel=5 note=70 velocity=0 time=0
EXTRACT: note_on channel=1 note=73 velocity=100 time=0
EXTRACT: note_on channel=4 note=80 velocity=100 time=0
EXTRACT: note_on channel=5 note=61 velocity=100 time=0
EXTRACT: note_on channel=5 note=73 velocity=100 time=0
EXTRACT: note_on channel=5 note=70 velocity=100 time=0
EXTRACT: note_on channel=9 note=56 velocity=100 time=0
EXTRACT: note_on channel=5 note=70 velocity=0 time=0.2608695
EXTRACT: note_on channel=3 note=77 velocity=0 time=0
EXTRACT: note_on channel=2 note=77 velocity=0 time=0
EXTRACT: note_on channel=5 note=61 velocity=0 time=0
EXTRACT: note_on channel=0 note=58 velocity=100 time=0
EXTRACT: note_on channel=0 note=61 velocity=100 time=0
EXTRACT: note_on channel=9 note=45 velocity=100 time=0
EXTRACT: note_on channel=9 note=40 velocity=100 time=0
EXTRACT: note_on channel=9 note=35 velocity=100 time=0
EXTRACT: note_on channel=4 note=80 velocity=0 time=0.08695649999999999
EXTRACT: note_on channel=0 note=58 velocity=0 time=0.17391299999999998
EXTRACT: note_on channel=5 note=73 velocity=0 time=0
EXTRACT: note_on channel=0 note=61 velocity=0 time=0
EXTRACT: note_on channel=1 note=73 velocity=0 time=0
EXTRACT: note_on channel=9 note=56 velocity=0 time=0
EXTRACT: note_on channel=9 note=40 velocity=0 time=0
EXTRACT: note_on channel=9 note=45 velocity=0 time=0
EXTRACT: note_on channel=9 note=35 velocity=0 time=0
EXTRACT: note_on channel=0 note=58 velocity=100 time=0
EXTRACT: note_on channel=0 note=61 velocity=100 time=0
EXTRACT: note_on channel=2 note=78 velocity=100 time=0
EXTRACT: note_on channel=3 note=78 velocity=100 time=0
EXTRACT: note_on channel=4 note=78 velocity=100 time=0
EXTRACT: note_on channel=5 note=73 velocity=100 time=0
EXTRACT: note_on channel=5 note=70 velocity=100 time=0
EXTRACT: note_on channel=9 note=56 velocity=100 time=0
EXTRACT: note_on channel=9 note=35 velocity=100 time=0
EXTRACT: note_on channel=9 note=45 velocity=100 time=0
EXTRACT: note_on channel=9 note=40 velocity=100 time=0
EXTRACT: note_on channel=9 note=40 velocity=0 time=0.2608695
EXTRACT: note_on channel=5 note=70 velocity=0 time=0
EXTRACT: note_on channel=2 note=78 velocity=0 time=0
EXTRACT: note_on channel=0 note=58 velocity=0 time=0
EXTRACT: note_on channel=9 note=45 velocity=0 time=0
EXTRACT: note_on channel=4 note=78 velocity=0 time=0
EXTRACT: note_on channel=0 note=61 velocity=0 time=0
EXTRACT: note_on channel=9 note=35 velocity=0 time=0
EXTRACT: note_on channel=3 note=78 velocity=0 time=0
EXTRACT: note_on channel=5 note=73 velocity=0 time=0
EXTRACT: note_on channel=0 note=53 velocity=100 time=0
EXTRACT: note_on channel=2 note=77 velocity=100 time=0
EXTRACT: note_on channel=3 note=77 velocity=100 time=0
EXTRACT: note_on channel=5 note=72 velocity=100 time=0
EXTRACT: note_on channel=5 note=75 velocity=100 time=0
EXTRACT: note_on channel=5 note=63 velocity=100 time=0
EXTRACT: note_on channel=5 note=63 velocity=0 time=0.2608695
EXTRACT: note_on channel=5 note=72 velocity=0 time=0
EXTRACT: note_on channel=0 note=53 velocity=0 time=0
EXTRACT: note_on channel=2 note=77 velocity=0 time=0
EXTRACT: note_on channel=9 note=56 velocity=0 time=0
EXTRACT: note_on channel=5 note=75 velocity=0 time=0
EXTRACT: note_on channel=3 note=77 velocity=0 time=0
EXTRACT: note_on channel=0 note=46 velocity=100 time=0
EXTRACT: note_on channel=1 note=70 velocity=100 time=0
EXTRACT: note_on channel=2 note=77 velocity=100 time=0
EXTRACT: note_on channel=3 note=77 velocity=100 time=0
EXTRACT: note_on channel=4 note=77 velocity=100 time=0
EXTRACT: note_on channel=5 note=70 velocity=100 time=0
EXTRACT: note_on channel=5 note=73 velocity=100 time=0
EXTRACT: note_on channel=5 note=61 velocity=100 time=0
EXTRACT: note_on channel=9 note=56 velocity=100 time=0
EXTRACT: note_on channel=9 note=35 velocity=100 time=0
EXTRACT: note_on channel=3 note=77 velocity=0 time=0.13043475
EXTRACT: note_on channel=2 note=77 velocity=0 time=0
EXTRACT: note_on channel=5 note=61 velocity=0 time=0.13043475
EXTRACT: note_on channel=9 note=35 velocity=0 time=0
EXTRACT: note_on channel=5 note=70 velocity=0 time=0
EXTRACT: note_on channel=0 note=46 velocity=0 time=0
EXTRACT: note_on channel=5 note=73 velocity=0 time=0
EXTRACT: note_on channel=0 note=49 velocity=100 time=0
EXTRACT: note_on channel=2 note=77 velocity=100 time=0
EXTRACT: note_on channel=3 note=77 velocity=100 time=0
EXTRACT: note_on channel=5 note=70 velocity=100 time=0
EXTRACT: note_on channel=5 note=73 velocity=100 time=0
EXTRACT: note_on channel=5 note=61 velocity=100 time=0
EXTRACT: note_on channel=4 note=77 velocity=0 time=0.13043475
EXTRACT: note_on channel=0 note=49 velocity=0 time=0.13043475
EXTRACT: note_on channel=1 note=70 velocity=0 time=0
EXTRACT: note_on channel=9 note=56 velocity=0 time=0
EXTRACT: note_on channel=0 note=58 velocity=100 time=0
EXTRACT: note_on channel=0 note=61 velocity=100 time=0
EXTRACT: note_on channel=0 note=53 velocity=100 time=0
EXTRACT: note_on channel=9 note=56 velocity=100 time=0
EXTRACT: note_on channel=9 note=45 velocity=100 time=0
EXTRACT: note_on channel=9 note=40 velocity=100 time=0
EXTRACT: note_on channel=9 note=40 velocity=0 time=0.2608695
EXTRACT: note_on channel=0 note=61 velocity=0 time=0
EXTRACT: note_on channel=9 note=45 velocity=0 time=0
EXTRACT: note_on channel=0 note=53 velocity=0 time=0
EXTRACT: note_on channel=0 note=58 velocity=0 time=0
EXTRACT: note_on channel=5 note=73 velocity=0 time=0.2608695
EXTRACT: note_on channel=5 note=61 velocity=0 time=0
EXTRACT: note_on channel=9 note=56 velocity=0 time=0
EXTRACT: note_on channel=5 note=70 velocity=0 time=0
EXTRACT: note_on channel=1 note=73 velocity=100 time=0
EXTRACT: note_on channel=9 note=56 velocity=100 time=0
EXTRACT: note_on channel=3 note=77 velocity=0 time=0.2608695
EXTRACT: note_on channel=2 note=77 velocity=0 time=0
EXTRACT: note_on channel=0 note=58 velocity=100 time=0
EXTRACT: note_on channel=0 note=61 velocity=100 time=0
EXTRACT: note_on channel=9 note=35 velocity=100 time=0
EXTRACT: note_on channel=9 note=35 velocity=0 time=0.2608695
EXTRACT: note_on channel=0 note=58 velocity=0 time=0
EXTRACT: note_on channel=9 note=56 velocity=0 time=0
EXTRACT: note_on channel=1 note=73 velocity=0 time=0
EXTRACT: note_on channel=0 note=61 velocity=0 time=0
EXTRACT: note_on channel=2 note=77 velocity=100 time=0
EXTRACT: note_on channel=3 note=77 velocity=100 time=0
EXTRACT: note_on channel=5 note=61 velocity=100 time=0
EXTRACT: note_on channel=5 note=73 velocity=100 time=0
EXTRACT: note_on channel=5 note=70 velocity=100 time=0
EXTRACT: note_on channel=9 note=45 velocity=100 time=0
EXTRACT: note_on channel=9 note=40 velocity=100 time=0
EXTRACT: note_on channel=9 note=56 velocity=100 time=0
EXTRACT: note_on channel=9 note=40 velocity=0 time=0.2608695
EXTRACT: note_on channel=5 note=73 velocity=0 time=0
EXTRACT: note_on channel=5 note=70 velocity=0 time=0
EXTRACT: note_on channel=3 note=77 velocity=0 time=0
EXTRACT: note_on channel=5 note=61 velocity=0 time=0
EXTRACT: note_on channel=2 note=77 velocity=0 time=0
EXTRACT: note_on channel=9 note=45 velocity=0 time=0
EXTRACT: note_on channel=0 note=53 velocity=100 time=0
EXTRACT: note_on channel=2 note=75 velocity=100 time=0
EXTRACT: note_on channel=3 note=75 velocity=100 time=0
EXTRACT: note_on channel=5 note=63 velocity=100 time=0
EXTRACT: note_on channel=5 note=75 velocity=100 time=0
EXTRACT: note_on channel=5 note=72 velocity=100 time=0
EXTRACT: note_on channel=9 note=35 velocity=100 time=0
EXTRACT: note_on channel=9 note=35 velocity=0 time=0.2608695
EXTRACT: note_on channel=9 note=56 velocity=0 time=0
EXTRACT: note_on channel=5 note=63 velocity=0 time=0
EXTRACT: note_on channel=0 note=53 velocity=0 time=0
EXTRACT: note_on channel=2 note=75 velocity=0 time=0
EXTRACT: note_on channel=3 note=75 velocity=0 time=0
EXTRACT: note_on channel=5 note=75 velocity=0 time=0
EXTRACT: note_on channel=5 note=72 velocity=0 time=0
EXTRACT: note_on channel=0 note=48 velocity=100 time=0
EXTRACT: note_on channel=1 note=72 velocity=100 time=0
EXTRACT: note_on channel=5 note=69 velocity=100 time=0
EXTRACT: note_on channel=5 note=72 velocity=100 time=0
EXTRACT: note_on channel=5 note=60 velocity=100 time=0
EXTRACT: note_on channel=9 note=56 velocity=100 time=0
EXTRACT: note_on channel=5 note=60 velocity=0 time=0.2608695
EXTRACT: note_on channel=5 note=72 velocity=0 time=0
EXTRACT: note_on channel=5 note=69 velocity=0 time=0
EXTRACT: note_on channel=0 note=48 velocity=0 time=0
EXTRACT: note_on channel=0 note=53 velocity=100 time=0
EXTRACT: note_on channel=2 note=77 velocity=100 time=0
EXTRACT: note_on channel=3 note=77 velocity=100 time=0
EXTRACT: note_on channel=5 note=69 velocity=100 time=0
EXTRACT: note_on channel=5 note=72 velocity=100 time=0
EXTRACT: note_on channel=5 note=60 velocity=100 time=0
EXTRACT: note_on channel=0 note=53 velocity=0 time=0.2608695
EXTRACT: note_on channel=9 note=56 velocity=0 time=0
EXTRACT: note_on channel=1 note=72 velocity=0 time=0
EXTRACT: note_on channel=0 note=60 velocity=100 time=0
EXTRACT: note_on channel=0 note=57 velocity=100 time=0
EXTRACT: note_on channel=9 note=56 velocity=100 time=0
EXTRACT: note_on channel=9 note=40 velocity=100 time=0
EXTRACT: note_on channel=9 note=45 velocity=100 time=0
EXTRACT: note_on channel=9 note=45 velocity=0 time=0.2608695
EXTRACT: note_on channel=9 note=40 velocity=0 time=0
EXTRACT: note_on channel=0 note=57 velocity=0 time=0
EXTRACT: note_on channel=0 note=60 velocity=0 time=0
EXTRACT: note_on channel=0 note=57 velocity=100 time=0
EXTRACT: note_on channel=0 note=66 velocity=100 time=0
EXTRACT: note_on channel=0 note=66 velocity=0 time=0.2608695
EXTRACT: note_on channel=9 note=56 velocity=0 time=0
EXTRACT: note_on channel=5 note=72 velocity=0 time=0
EXTRACT: note_on channel=0 note=57 velocity=0 time=0
EXTRACT: note_on channel=5 note=60 velocity=0 time=0
EXTRACT: note_on channel=5 note=69 velocity=0 time=0
EXTRACT: note_on channel=0 note=57 velocity=100 time=0
EXTRACT: note_on channel=0 note=65 velocity=100 time=0
EXTRACT: note_on channel=1 note=75 velocity=100 time=0
EXTRACT: note_on channel=9 note=56 velocity=100 time=0
EXTRACT: note_on channel=0 note=65 velocity=0 time=0.2608695
EXTRACT: note_on channel=0 note=57 velocity=0 time=0
EXTRACT: note_on channel=3 note=77 velocity=0 time=0
EXTRACT: note_on channel=2 note=77 velocity=0 time=0
EXTRACT: note_on channel=9 note=35 velocity=100 time=0
EXTRACT: note_on channel=9 note=35 velocity=0 time=0.2608695
EXTRACT: note_on channel=9 note=56 velocity=0 time=0
EXTRACT: note_on channel=1 note=75 velocity=0 time=0
EXTRACT: note_on channel=2 note=78 velocity=100 time=0
EXTRACT: note_on channel=3 note=78 velocity=100 time=0
EXTRACT: note_on channel=9 note=58 velocity=100 time=0
EXTRACT: note_on channel=9 note=56 velocity=100 time=0
EXTRACT: note_on channel=9 note=40 velocity=100 time=0
EXTRACT: note_on channel=9 note=45 velocity=100 time=0
EXTRACT: note_on channel=9 note=45 velocity=0 time=0.2608695
EXTRACT: note_on channel=3 note=78 velocity=0 time=0
EXTRACT: note_on channel=2 note=78 velocity=0 time=0
EXTRACT: note_on channel=9 note=40 velocity=0 time=0
EXTRACT: note_on channel=0 note=65 velocity=100 time=0
EXTRACT: note_on channel=2 note=77 velocity=100 time=0
EXTRACT: note_on channel=3 note=77 velocity=100 time=0
EXTRACT: note_on channel=5 note=75 velocity=100 time=0
EXTRACT: note_on channel=5 note=63 velocity=100 time=0
EXTRACT: note_on channel=5 note=72 velocity=100 time=0
EXTRACT: note_on channel=3 note=77 velocity=0 time=0.2608695
EXTRACT: note_on channel=2 note=77 velocity=0 time=0
EXTRACT: note_on channel=9 note=58 velocity=0 time=0
EXTRACT: note_on channel=0 note=65 velocity=0 time=0
EXTRACT: note_on channel=9 note=56 velocity=0 time=0
EXTRACT: note_on channel=0 note=48 velocity=100 time=0
EXTRACT: note_on channel=0 note=57 velocity=100 time=0
EXTRACT: note_on channel=1 note=69 velocity=100 time=0
EXTRACT: note_on channel=2 note=77 velocity=100 time=0
EXTRACT: note_on channel=3 note=77 velocity=100 time=0
EXTRACT: note_on channel=9 note=35 velocity=100 time=0
EXTRACT: note_on channel=9 note=56 velocity=100 time=0
EXTRACT: note_on channel=3 note=77 velocity=0 time=0.13043475
EXTRACT: note_on channel=2 note=77 velocity=0 time=0
EXTRACT: note_on channel=0 note=48 velocity=0 time=0.13043475
EXTRACT: note_on channel=9 note=35 velocity=0 time=0
EXTRACT: note_on channel=5 note=63 velocity=0 time=0
EXTRACT: note_on channel=5 note=75 velocity=0 time=0
EXTRACT: note_on channel=5 note=72 velocity=0 time=0
EXTRACT: note_on channel=0 note=57 velocity=0 time=0
EXTRACT: note_on channel=0 note=60 velocity=100 time=0
EXTRACT: note_on channel=0 note=63 velocity=100 time=0
EXTRACT: note_on channel=0 note=53 velocity=100 time=0
EXTRACT: note_on channel=2 note=77 velocity=100 time=0
EXTRACT: note_on channel=3 note=77 velocity=100 time=0
EXTRACT: note_on channel=5 note=63 velocity=100 time=0
EXTRACT: note_on channel=5 note=75 velocity=100 time=0
EXTRACT: note_on channel=5 note=72 velocity=100 time=0
EXTRACT: note_on channel=5 note=72 velocity=0 time=0.2608695
EXTRACT: note_on channel=0 note=60 velocity=0 time=0
EXTRACT: note_on channel=0 note=63 velocity=0 time=0
EXTRACT: note_on channel=1 note=69 velocity=0 time=0
EXTRACT: note_on channel=5 note=75 velocity=0 time=0
EXTRACT: note_on channel=0 note=53 velocity=0 time=0
EXTRACT: note_on channel=5 note=63 velocity=0 time=0
EXTRACT: note_on channel=9 note=56 velocity=0 time=0
EXTRACT: note_on channel=0 note=60 velocity=100 time=0
EXTRACT: note_on channel=0 note=63 velocity=100 time=0
EXTRACT: note_on channel=0 note=57 velocity=100 time=0
EXTRACT: note_on channel=5 note=63 velocity=100 time=0
EXTRACT: note_on channel=5 note=75 velocity=100 time=0
EXTRACT: note_on channel=5 note=72 velocity=100 time=0
EXTRACT: note_on channel=9 note=56 velocity=100 time=0
EXTRACT: note_on channel=9 note=40 velocity=100 time=0
EXTRACT: note_on channel=9 note=45 velocity=100 time=0
EXTRACT: note_on channel=9 note=45 velocity=0 time=0.2608695
EXTRACT: note_on channel=5 note=75 velocity=0 time=0
EXTRACT: note_on channel=0 note=60 velocity=0 time=0
EXTRACT: note_on channel=9 note=40 velocity=0 time=0
EXTRACT: note_on channel=0 note=63 velocity=0 time=0
EXTRACT: note_on channel=0 note=57 velocity=0 time=0
EXTRACT: note_on channel=5 note=72 velocity=0 time=0
EXTRACT: note_on channel=5 note=63 velocity=0 time=0
EXTRACT: note_on channel=5 note=72 velocity=100 time=0
EXTRACT: note_on channel=5 note=75 velocity=100 time=0
EXTRACT: note_on channel=5 note=63 velocity=100 time=0
EXTRACT: note_on channel=5 note=63 velocity=0 time=0.2608695
EXTRACT: note_on channel=5 note=72 velocity=0 time=0
EXTRACT: note_on channel=9 note=56 velocity=0 time=0
EXTRACT: note_on channel=5 note=75 velocity=0 time=0
EXTRACT: note_on channel=1 note=72 velocity=100 time=0
EXTRACT: note_on channel=5 note=72 velocity=100 time=0
EXTRACT: note_on channel=5 note=75 velocity=100 time=0
EXTRACT: note_on channel=5 note=63 velocity=100 time=0
EXTRACT: note_on channel=9 note=56 velocity=100 time=0
EXTRACT: note_on channel=5 note=63 velocity=0 time=0.2608695
EXTRACT: note_on channel=3 note=77 velocity=0 time=0
EXTRACT: note_on channel=2 note=77 velocity=0 time=0
EXTRACT: note_on channel=5 note=72 velocity=0 time=0
EXTRACT: note_on channel=0 note=57 velocity=100 time=0
EXTRACT: note_on channel=0 note=60 velocity=100 time=0
EXTRACT: note_on channel=0 note=63 velocity=100 time=0
EXTRACT: note_on channel=9 note=35 velocity=100 time=0
EXTRACT: note_on channel=9 note=35 velocity=0 time=0.2608695
EXTRACT: note_on channel=0 note=60 velocity=0 time=0
EXTRACT: note_on channel=5 note=75 velocity=0 time=0
EXTRACT: note_on channel=9 note=56 velocity=0 time=0
EXTRACT: note_on channel=1 note=72 velocity=0 time=0
EXTRACT: note_on channel=0 note=63 velocity=0 time=0
EXTRACT: note_on channel=0 note=57 velocity=0 time=0
EXTRACT: note_on channel=2 note=77 velocity=100 time=0
EXTRACT: note_on channel=3 note=77 velocity=100 time=0
EXTRACT: note_on channel=5 note=72 velocity=100 time=0
EXTRACT: note_on channel=5 note=75 velocity=100 time=0
EXTRACT: note_on channel=5 note=63 velocity=100 time=0
EXTRACT: note_on channel=9 note=40 velocity=100 time=0
EXTRACT: note_on channel=9 note=45 velocity=100 time=0
EXTRACT: note_on channel=9 note=56 velocity=100 time=0
EXTRACT: note_on channel=9 note=45 velocity=0 time=0.2608695
EXTRACT: note_on channel=5 note=75 velocity=0 time=0
EXTRACT: note_on channel=5 note=63 velocity=0 time=0
EXTRACT: note_on channel=3 note=77 velocity=0 time=0
EXTRACT: note_on channel=5 note=72 velocity=0 time=0
EXTRACT: note_on channel=2 note=77 velocity=0 time=0
EXTRACT: note_on channel=9 note=40 velocity=0 time=0
EXTRACT: note_on channel=0 note=53 velocity=100 time=0
EXTRACT: note_on channel=2 note=75 velocity=100 time=0
EXTRACT: note_on channel=3 note=75 velocity=100 time=0
EXTRACT: note_on channel=5 note=65 velocity=100 time=0
EXTRACT: note_on channel=5 note=77 velocity=100 time=0
EXTRACT: note_on channel=5 note=73 velocity=100 time=0
EXTRACT: note_on channel=9 note=35 velocity=100 time=0
EXTRACT: note_on channel=9 note=35 velocity=0 time=0.2608695
EXTRACT: note_on channel=9 note=56 velocity=0 time=0
EXTRACT: note_on channel=5 note=65 velocity=0 time=0
EXTRACT: note_on channel=0 note=53 velocity=0 time=0
EXTRACT: note_on channel=2 note=75 velocity=0 time=0
EXTRACT: note_on channel=3 note=75 velocity=0 time=0
EXTRACT: note_on channel=5 note=77 velocity=0 time=0
EXTRACT: note_on channel=5 note=73 velocity=0 time=0
EXTRACT: note_on channel=0 note=61 velocity=100 time=0
EXTRACT: note_on channel=0 note=58 velocity=100 time=0
EXTRACT: note_on channel=1 note=70 velocity=100 time=0
EXTRACT: note_on channel=5 note=63 velocity=100 time=0
EXTRACT: note_on channel=5 note=75 velocity=100 time=0
EXTRACT: note_on channel=5 note=72 velocity=100 time=0
EXTRACT: note_on channel=9 note=40 velocity=100 time=0
EXTRACT: note_on channel=9 note=35 velocity=100 time=0
EXTRACT: note_on channel=9 note=56 velocity=100 time=0
EXTRACT: note_on channel=9 note=45 velocity=100 time=0
EXTRACT: note_on channel=9 note=45 velocity=0 time=0.2608695
EXTRACT: note_on channel=9 note=35 velocity=0 time=0
EXTRACT: note_on channel=0 note=58 velocity=0 time=0
EXTRACT: note_on channel=0 note=61 velocity=0 time=0
EXTRACT: note_on channel=5 note=63 velocity=0 time=0
EXTRACT: note_on channel=9 note=40 velocity=0 time=0
EXTRACT: note_on channel=5 note=72 velocity=0 time=0
EXTRACT: note_on channel=0 note=58 velocity=100 time=0
EXTRACT: note_on channel=0 note=61 velocity=100 time=0
EXTRACT: note_on channel=2 note=77 velocity=100 time=0
EXTRACT: note_on channel=3 note=77 velocity=100 time=0
EXTRACT: note_on channel=9 note=35 velocity=100 time=0
EXTRACT: note_on channel=9 note=40 velocity=100 time=0
EXTRACT: note_on channel=9 note=45 velocity=100 time=0
EXTRACT: note_on channel=9 note=45 velocity=0 time=0.2608695
EXTRACT: note_on channel=9 note=56 velocity=0 time=0
EXTRACT: note_on channel=0 note=58 velocity=0 time=0
EXTRACT: note_on channel=1 note=70 velocity=0 time=0
EXTRACT: note_on channel=9 note=40 velocity=0 time=0
EXTRACT: note_on channel=0 note=61 velocity=0 time=0
EXTRACT: note_on channel=9 note=35 velocity=0 time=0
EXTRACT: note_on channel=5 note=75 velocity=0 time=0
EXTRACT: note_on channel=0 note=58 velocity=100 time=0
EXTRACT: note_on channel=0 note=61 velocity=100 time=0
EXTRACT: note_on channel=5 note=73 velocity=100 time=0
EXTRACT: note_on channel=5 note=73 velocity=100 time=0
EXTRACT: note_on channel=5 note=61 velocity=100 time=0
EXTRACT: note_on channel=9 note=45 velocity=100 time=0
EXTRACT: note_on channel=9 note=40 velocity=100 time=0
EXTRACT: note_on channel=9 note=35 velocity=100 time=0
EXTRACT: note_on channel=9 note=56 velocity=100 time=0
EXTRACT: note_on channel=9 note=35 velocity=0 time=0.2608695
EXTRACT: note_on channel=9 note=40 velocity=0 time=0
EXTRACT: note_on channel=0 note=58 velocity=0 time=0
EXTRACT: note_on channel=5 note=61 velocity=0 time=0
EXTRACT: note_on channel=0 note=61 velocity=0 time=0
EXTRACT: note_on channel=9 note=45 velocity=0 time=0
EXTRACT: note_on channel=5 note=73 velocity=0 time=0
EXTRACT: note_on channel=5 note=73 velocity=0 time=0.2608695
EXTRACT: note_on channel=9 note=56 velocity=0 time=0
EXTRACT: note_on channel=1 note=73 velocity=100 time=0
EXTRACT: note_on channel=5 note=73 velocity=100 time=0
EXTRACT: note_on channel=5 note=77 velocity=100 time=0
EXTRACT: note_on channel=5 note=61 velocity=100 time=0
EXTRACT: note_on channel=9 note=56 velocity=100 time=0
EXTRACT: note_on channel=5 note=61 velocity=0 time=0.2608695
EXTRACT: note_on channel=3 note=77 velocity=0 time=0
EXTRACT: note_on channel=2 note=77 velocity=0 time=0
EXTRACT: note_on channel=5 note=73 velocity=0 time=0
EXTRACT: note_on channel=0 note=58 velocity=100 time=0
EXTRACT: note_on channel=0 note=61 velocity=100 time=0
EXTRACT: note_on channel=9 note=40 velocity=100 time=0
EXTRACT: note_on channel=9 note=35 velocity=100 time=0
EXTRACT: note_on channel=9 note=45 velocity=100 time=0
EXTRACT: note_on channel=9 note=45 velocity=0 time=0.2608695
EXTRACT: note_on channel=1 note=73 velocity=0 time=0
EXTRACT: note_on channel=0 note=61 velocity=0 time=0
EXTRACT: note_on channel=5 note=77 velocity=0 time=0
EXTRACT: note_on channel=9 note=56 velocity=0 time=0
EXTRACT: note_on channel=0 note=58 velocity=0 time=0
EXTRACT: note_on channel=9 note=40 velocity=0 time=0
EXTRACT: note_on channel=9 note=35 velocity=0 time=0
EXTRACT: note_on channel=0 note=58 velocity=100 time=0
EXTRACT: note_on channel=0 note=61 velocity=100 time=0
EXTRACT: note_on channel=2 note=78 velocity=100 time=0
EXTRACT: note_on channel=3 note=78 velocity=100 time=0
EXTRACT: note_on channel=9 note=56 velocity=100 time=0
EXTRACT: note_on channel=9 note=45 velocity=100 time=0
EXTRACT: note_on channel=9 note=35 velocity=100 time=0
EXTRACT: note_on channel=9 note=40 velocity=100 time=0
EXTRACT: note_on channel=9 note=40 velocity=0 time=0.2608695
EXTRACT: note_on channel=0 note=58 velocity=0 time=0
EXTRACT: note_on channel=3 note=78 velocity=0 time=0
EXTRACT: note_on channel=0 note=61 velocity=0 time=0
EXTRACT: note_on channel=9 note=35 velocity=0 time=0
EXTRACT: note_on channel=2 note=78 velocity=0 time=0
EXTRACT: note_on channel=9 note=45 velocity=0 time=0
EXTRACT: note_on channel=0 note=53 velocity=100 time=0
EXTRACT: note_on channel=2 note=77 velocity=100 time=0
EXTRACT: note_on channel=3 note=77 velocity=100 time=0
EXTRACT: note_on channel=3 note=77 velocity=0 time=0.2608695
EXTRACT: note_on channel=9 note=56 velocity=0 time=0
EXTRACT: note_on channel=0 note=53 velocity=0 time=0
EXTRACT: note_on channel=2 note=77 velocity=0 time=0
EXTRACT: note_on channel=0 note=65 velocity=100 time=0
EXTRACT: note_on channel=0 note=58 velocity=100 time=0
EXTRACT: note_on channel=1 note=70 velocity=100 time=0
EXTRACT: note_on channel=0 note=58 velocity=0 time=0.2608695
EXTRACT: note_on channel=0 note=65 velocity=0 time=0
EXTRACT: note_on channel=0 note=53 velocity=100 time=0
EXTRACT: note_on channel=0 note=61 velocity=100 time=0
EXTRACT: note_on channel=4 note=73 velocity=100 time=0
EXTRACT: note_on channel=4 note=73 velocity=0 time=0.2608695
EXTRACT: note_on channel=1 note=70 velocity=0 time=0
EXTRACT: note_on channel=0 note=53 velocity=0 time=0
EXTRACT: note_on channel=0 note=61 velocity=0 time=0
EXTRACT: note_on channel=0 note=65 velocity=100 time=0
EXTRACT: note_on channel=4 note=73 velocity=100 time=0
EXTRACT: note_on channel=4 note=73 velocity=0 time=0.2608695
EXTRACT: note_on channel=0 note=65 velocity=0 time=0
EXTRACT: note_on channel=0 note=66 velocity=100 time=0
EXTRACT: note_on channel=4 note=73 velocity=100 time=0
EXTRACT: note_on channel=4 note=73 velocity=0 time=0.2608695
EXTRACT: note_on channel=0 note=66 velocity=0 time=0
EXTRACT: note_on channel=0 note=65 velocity=100 time=0
EXTRACT: note_on channel=1 note=73 velocity=100 time=0
EXTRACT: note_on channel=4 note=73 velocity=100 time=0
EXTRACT: note_on channel=4 note=73 velocity=0 time=0.2608695
EXTRACT: note_on channel=0 note=65 velocity=0 time=0
EXTRACT: note_on channel=0 note=65 velocity=100 time=0
EXTRACT: note_on channel=0 note=61 velocity=100 time=0
EXTRACT: note_on channel=4 note=73 velocity=100 time=0
EXTRACT: note_on channel=4 note=73 velocity=0 time=0.2608695
EXTRACT: note_on channel=1 note=73 velocity=0 time=0
EXTRACT: note_on channel=0 note=65 velocity=0 time=0
EXTRACT: note_on channel=0 note=61 velocity=0 time=0
EXTRACT: note_on channel=4 note=73 velocity=100 time=0
EXTRACT: note_on channel=4 note=73 velocity=0 time=0.2608695
EXTRACT: note_on channel=0 note=53 velocity=100 time=0
EXTRACT: note_on channel=0 note=65 velocity=100 time=0
EXTRACT: note_on channel=4 note=73 velocity=100 time=0
EXTRACT: note_on channel=4 note=73 velocity=0 time=0.2608695
EXTRACT: note_on channel=0 note=65 velocity=0 time=0
EXTRACT: note_on channel=0 note=53 velocity=0 time=0
EXTRACT: note_on channel=0 note=65 velocity=100 time=0
EXTRACT: note_on channel=0 note=57 velocity=100 time=0
EXTRACT: note_on channel=1 note=72 velocity=100 time=0
EXTRACT: note_on channel=4 note=75 velocity=100 time=0
EXTRACT: note_on channel=4 note=75 velocity=0 time=0.2608695
EXTRACT: note_on channel=0 note=65 velocity=0 time=0
EXTRACT: note_on channel=0 note=57 velocity=0 time=0
EXTRACT: note_on channel=0 note=60 velocity=100 time=0
EXTRACT: note_on channel=4 note=75 velocity=100 time=0.13043475
EXTRACT: note_on channel=4 note=75 velocity=0 time=0.13043475
EXTRACT: note_on channel=0 note=60 velocity=0 time=0
EXTRACT: note_on channel=1 note=72 velocity=0 time=0
EXTRACT: note_on channel=0 note=65 velocity=100 time=0
EXTRACT: note_on channel=4 note=75 velocity=100 time=0
EXTRACT: note_on channel=4 note=75 velocity=0 time=0.2608695
EXTRACT: note_on channel=0 note=65 velocity=0 time=0
EXTRACT: note_on channel=0 note=66 velocity=100 time=0
EXTRACT: note_on channel=0 note=66 velocity=0 time=0.2608695
EXTRACT: note_on channel=0 note=65 velocity=100 time=0
EXTRACT: note_on channel=1 note=75 velocity=100 time=0
EXTRACT: note_on channel=0 note=65 velocity=0 time=0.2608695
EXTRACT: note_on channel=1 note=75 velocity=0 time=0.2608695
EXTRACT: note_on channel=0 note=53 velocity=100 time=0.2608695
EXTRACT: note_on channel=0 note=65 velocity=100 time=0
EXTRACT: note_on channel=0 note=65 velocity=0 time=0.2608695
EXTRACT: note_on channel=0 note=53 velocity=0 time=0
EXTRACT: note_on channel=0 note=65 velocity=100 time=0
EXTRACT: note_on channel=0 note=57 velocity=100 time=0
EXTRACT: note_on channel=1 note=69 velocity=100 time=0
EXTRACT: note_on channel=0 note=57 velocity=0 time=0.2608695
EXTRACT: note_on channel=0 note=65 velocity=0 time=0
EXTRACT: note_on channel=0 note=60 velocity=100 time=0
EXTRACT: note_on channel=4 note=75 velocity=100 time=0
EXTRACT: note_on channel=4 note=75 velocity=0 time=0.2608695
EXTRACT: note_on channel=0 note=60 velocity=0 time=0
EXTRACT: note_on channel=1 note=69 velocity=0 time=0
EXTRACT: note_on channel=0 note=65 velocity=100 time=0
EXTRACT: note_on channel=4 note=75 velocity=100 time=0
EXTRACT: note_on channel=4 note=75 velocity=0 time=0.2608695
EXTRACT: note_on channel=0 note=65 velocity=0 time=0
EXTRACT: note_on channel=0 note=66 velocity=100 time=0
EXTRACT: note_on channel=4 note=75 velocity=100 time=0
EXTRACT: note_on channel=4 note=75 velocity=0 time=0.2608695
EXTRACT: note_on channel=0 note=66 velocity=0 time=0
EXTRACT: note_on channel=0 note=65 velocity=100 time=0
EXTRACT: note_on channel=1 note=72 velocity=100 time=0
EXTRACT: note_on channel=4 note=75 velocity=100 time=0
EXTRACT: note_on channel=4 note=75 velocity=0 time=0.2608695
EXTRACT: note_on channel=0 note=65 velocity=0 time=0
EXTRACT: note_on channel=0 note=63 velocity=100 time=0
EXTRACT: note_on channel=0 note=60 velocity=100 time=0
EXTRACT: note_on channel=4 note=75 velocity=100 time=0
EXTRACT: note_on channel=4 note=75 velocity=0 time=0.2608695
EXTRACT: note_on channel=1 note=72 velocity=0 time=0
EXTRACT: note_on channel=0 note=63 velocity=0 time=0
EXTRACT: note_on channel=0 note=60 velocity=0 time=0
EXTRACT: note_on channel=4 note=75 velocity=100 time=0
EXTRACT: note_on channel=4 note=75 velocity=0 time=0.2608695
EXTRACT: note_on channel=0 note=53 velocity=100 time=0
EXTRACT: note_on channel=0 note=65 velocity=100 time=0
EXTRACT: note_on channel=4 note=73 velocity=100 time=0
EXTRACT: note_on channel=4 note=73 velocity=0 time=0.2608695
EXTRACT: note_on channel=0 note=65 velocity=0 time=0
EXTRACT: note_on channel=0 note=53 velocity=0 time=0
EXTRACT: note_on channel=0 note=65 velocity=100 time=0
EXTRACT: note_on channel=0 note=58 velocity=100 time=0
EXTRACT: note_on channel=1 note=70 velocity=100 time=0
EXTRACT: note_on channel=4 note=77 velocity=100 time=0
EXTRACT: note_on channel=4 note=77 velocity=0 time=0.2608695
EXTRACT: note_on channel=0 note=65 velocity=0 time=0
EXTRACT: note_on channel=0 note=58 velocity=0 time=0
EXTRACT: note_on channel=0 note=61 velocity=100 time=0
EXTRACT: note_on channel=4 note=78 velocity=100 time=0
EXTRACT: note_on channel=4 note=78 velocity=0 time=0.2608695
EXTRACT: note_on channel=0 note=61 velocity=0 time=0
EXTRACT: note_on channel=1 note=70 velocity=0 time=0
EXTRACT: note_on channel=0 note=65 velocity=100 time=0
EXTRACT: note_on channel=4 note=77 velocity=100 time=0
EXTRACT: note_on channel=4 note=77 velocity=0 time=0.2608695
EXTRACT: note_on channel=0 note=65 velocity=0 time=0
EXTRACT: note_on channel=0 note=66 velocity=100 time=0
EXTRACT: note_on channel=0 note=66 velocity=0 time=0.2608695
EXTRACT: note_on channel=0 note=65 velocity=100 time=0
EXTRACT: note_on channel=1 note=73 velocity=100 time=0
EXTRACT: note_on channel=0 note=65 velocity=0 time=0.2608695
EXTRACT: note_on channel=1 note=73 velocity=0 time=0.2608695
EXTRACT: note_on channel=0 note=53 velocity=100 time=0.2608695
EXTRACT: note_on channel=0 note=65 velocity=100 time=0
EXTRACT: note_on channel=0 note=65 velocity=0 time=0.2608695
EXTRACT: note_on channel=0 note=53 velocity=0 time=0
EXTRACT: note_on channel=0 note=65 velocity=100 time=0
EXTRACT: note_on channel=0 note=58 velocity=100 time=0
EXTRACT: note_on channel=1 note=70 velocity=100 time=0
EXTRACT: note_on channel=0 note=58 velocity=0 time=0.2608695
EXTRACT: note_on channel=0 note=65 velocity=0 time=0
EXTRACT: note_on channel=0 note=61 velocity=100 time=0
EXTRACT: note_on channel=4 note=73 velocity=100 time=0
EXTRACT: note_on channel=4 note=73 velocity=0 time=0.2608695
EXTRACT: note_on channel=0 note=61 velocity=0 time=0
EXTRACT: note_on channel=1 note=70 velocity=0 time=0
EXTRACT: note_on channel=0 note=65 velocity=100 time=0
EXTRACT: note_on channel=4 note=73 velocity=100 time=0
EXTRACT: note_on channel=4 note=73 velocity=0 time=0.2608695
EXTRACT: note_on channel=0 note=65 velocity=0 time=0
EXTRACT: note_on channel=0 note=66 velocity=100 time=0
EXTRACT: note_on channel=4 note=73 velocity=100 time=0
EXTRACT: note_on channel=4 note=73 velocity=0 time=0.2608695
EXTRACT: note_on channel=0 note=66 velocity=0 time=0
EXTRACT: note_on channel=0 note=65 velocity=100 time=0
EXTRACT: note_on channel=1 note=73 velocity=100 time=0
EXTRACT: note_on channel=4 note=73 velocity=100 time=0
EXTRACT: note_on channel=4 note=73 velocity=0 time=0.2608695
EXTRACT: note_on channel=0 note=65 velocity=0 time=0
EXTRACT: note_on channel=0 note=65 velocity=100 time=0
EXTRACT: note_on channel=0 note=61 velocity=100 time=0
EXTRACT: note_on channel=4 note=73 velocity=100 time=0
EXTRACT: note_on channel=4 note=73 velocity=0 time=0.2608695
EXTRACT: note_on channel=1 note=73 velocity=0 time=0
EXTRACT: note_on channel=0 note=65 velocity=0 time=0
EXTRACT: note_on channel=0 note=61 velocity=0 time=0
EXTRACT: note_on channel=4 note=73 velocity=100 time=0
EXTRACT: note_on channel=4 note=73 velocity=0 time=0.2608695
EXTRACT: note_on channel=0 note=53 velocity=100 time=0
EXTRACT: note_on channel=0 note=65 velocity=100 time=0
EXTRACT: note_on channel=4 note=73 velocity=100 time=0
EXTRACT: note_on channel=4 note=73 velocity=0 time=0.2608695
EXTRACT: note_on channel=0 note=65 velocity=0 time=0
EXTRACT: note_on channel=0 note=53 velocity=0 time=0
EXTRACT: note_on channel=0 note=65 velocity=100 time=0
EXTRACT: note_on channel=0 note=57 velocity=100 time=0
EXTRACT: note_on channel=1 note=72 velocity=100 time=0
EXTRACT: note_on channel=4 note=75 velocity=100 time=0
EXTRACT: note_on channel=4 note=75 velocity=0 time=0.2608695
EXTRACT: note_on channel=0 note=65 velocity=0 time=0
EXTRACT: note_on channel=0 note=57 velocity=0 time=0
EXTRACT: note_on channel=0 note=60 velocity=100 time=0
EXTRACT: note_on channel=4 note=75 velocity=100 time=0
EXTRACT: note_on channel=4 note=75 velocity=0 time=0.2608695
EXTRACT: note_on channel=0 note=60 velocity=0 time=0
EXTRACT: note_on channel=1 note=72 velocity=0 time=0
EXTRACT: note_on channel=0 note=65 velocity=100 time=0
EXTRACT: note_on channel=4 note=75 velocity=100 time=0
EXTRACT: note_on channel=4 note=75 velocity=0 time=0.2608695
EXTRACT: note_on channel=0 note=65 velocity=0 time=0
EXTRACT: note_on channel=0 note=66 velocity=100 time=0
EXTRACT: note_on channel=4 note=73 velocity=100 time=0.11304344999999999
EXTRACT: note_on channel=4 note=73 velocity=0 time=0.13043475
EXTRACT: note_on channel=0 note=66 velocity=0 time=0.0173913
EXTRACT: note_on channel=0 note=65 velocity=100 time=0
EXTRACT: note_on channel=1 note=75 velocity=100 time=0
EXTRACT: note_on channel=4 note=72 velocity=100 time=0
EXTRACT: note_on channel=4 note=72 velocity=0 time=0.2608695
EXTRACT: note_on channel=0 note=65 velocity=0 time=0
EXTRACT: note_on channel=1 note=75 velocity=0 time=0.2608695
EXTRACT: note_on channel=0 note=53 velocity=100 time=0.2608695
EXTRACT: note_on channel=0 note=65 velocity=100 time=0
EXTRACT: note_on channel=0 note=65 velocity=0 time=0.2608695
EXTRACT: note_on channel=0 note=53 velocity=0 time=0
EXTRACT: note_on channel=0 note=65 velocity=100 time=0
EXTRACT: note_on channel=0 note=57 velocity=100 time=0
EXTRACT: note_on channel=1 note=69 velocity=100 time=0
EXTRACT: note_on channel=0 note=57 velocity=0 time=0.2608695
EXTRACT: note_on channel=0 note=65 velocity=0 time=0
EXTRACT: note_on channel=0 note=60 velocity=100 time=0
EXTRACT: note_on channel=4 note=75 velocity=100 time=0
EXTRACT: note_on channel=4 note=75 velocity=0 time=0.2608695
EXTRACT: note_on channel=0 note=60 velocity=0 time=0
EXTRACT: note_on channel=1 note=69 velocity=0 time=0
EXTRACT: note_on channel=0 note=65 velocity=100 time=0
EXTRACT: note_on channel=4 note=75 velocity=100 time=0
EXTRACT: note_on channel=4 note=75 velocity=0 time=0.2608695
EXTRACT: note_on channel=0 note=65 velocity=0 time=0
EXTRACT: note_on channel=0 note=66 velocity=100 time=0
EXTRACT: note_on channel=4 note=75 velocity=100 time=0
EXTRACT: note_on channel=4 note=75 velocity=0 time=0.2608695
EXTRACT: note_on channel=0 note=66 velocity=0 time=0
EXTRACT: note_on channel=0 note=65 velocity=100 time=0
EXTRACT: note_on channel=1 note=72 velocity=100 time=0
EXTRACT: note_on channel=4 note=75 velocity=100 time=0
EXTRACT: note_on channel=4 note=75 velocity=0 time=0.2608695
EXTRACT: note_on channel=0 note=65 velocity=0 time=0
EXTRACT: note_on channel=0 note=63 velocity=100 time=0
EXTRACT: note_on channel=0 note=60 velocity=100 time=0
EXTRACT: note_on channel=4 note=75 velocity=100 time=0
EXTRACT: note_on channel=4 note=75 velocity=0 time=0.2608695
EXTRACT: note_on channel=1 note=72 velocity=0 time=0
EXTRACT: note_on channel=0 note=63 velocity=0 time=0
EXTRACT: note_on channel=0 note=60 velocity=0 time=0
EXTRACT: note_on channel=4 note=75 velocity=100 time=0
EXTRACT: note_on channel=4 note=75 velocity=0 time=0.2608695
EXTRACT: note_on channel=0 note=53 velocity=100 time=0
EXTRACT: note_on channel=0 note=65 velocity=100 time=0
EXTRACT: note_on channel=4 note=73 velocity=100 time=0
EXTRACT: note_on channel=4 note=73 velocity=0 time=0.2608695
EXTRACT: note_on channel=0 note=65 velocity=0 time=0
EXTRACT: note_on channel=0 note=53 velocity=0 time=0
EXTRACT: note_on channel=0 note=53 velocity=100 time=0
EXTRACT: note_on channel=0 note=65 velocity=100 time=0
EXTRACT: note_on channel=0 note=58 velocity=100 time=0
EXTRACT: note_on channel=1 note=70 velocity=100 time=0
EXTRACT: note_on channel=4 note=77 velocity=100 time=0
EXTRACT: note_on channel=9 note=56 velocity=100 time=0
EXTRACT: note_on channel=9 note=45 velocity=100 time=0
EXTRACT: note_on channel=9 note=40 velocity=100 time=0
EXTRACT: note_on channel=9 note=35 velocity=100 time=0
EXTRACT: note_on channel=9 note=35 velocity=0 time=0.2608695
EXTRACT: note_on channel=0 note=58 velocity=0 time=0
EXTRACT: note_on channel=9 note=40 velocity=0 time=0
EXTRACT: note_on channel=0 note=65 velocity=0 time=0
EXTRACT: note_on channel=9 note=45 velocity=0 time=0
EXTRACT: note_on channel=0 note=53 velocity=0 time=0
EXTRACT: note_on channel=4 note=77 velocity=0 time=0
EXTRACT: note_on channel=0 note=53 velocity=100 time=0
EXTRACT: note_on channel=0 note=58 velocity=100 time=0
EXTRACT: note_on channel=0 note=65 velocity=100 time=0
EXTRACT: note_on channel=4 note=78 velocity=100 time=0
EXTRACT: note_on channel=9 note=45 velocity=100 time=0
EXTRACT: note_on channel=9 note=40 velocity=100 time=0
EXTRACT: note_on channel=9 note=35 velocity=100 time=0
EXTRACT: note_on channel=9 note=35 velocity=0 time=0.2608695
EXTRACT: note_on channel=0 note=58 velocity=0 time=0
EXTRACT: note_on channel=9 note=56 velocity=0 time=0
EXTRACT: note_on channel=0 note=65 velocity=0 time=0
EXTRACT: note_on channel=1 note=70 velocity=0 time=0
EXTRACT: note_on channel=0 note=53 velocity=0 time=0
EXTRACT: note_on channel=9 note=45 velocity=0 time=0
EXTRACT: note_on channel=4 note=78 velocity=0 time=0
EXTRACT: note_on channel=9 note=40 velocity=0 time=0
EXTRACT: note_on channel=0 note=53 velocity=100 time=0
EXTRACT: note_on channel=0 note=58 velocity=100 time=0
EXTRACT: note_on channel=0 note=65 velocity=100 time=0
EXTRACT: note_on channel=4 note=77 velocity=100 time=0
EXTRACT: note_on channel=9 note=45 velocity=100 time=0
EXTRACT: note_on channel=9 note=56 velocity=100 time=0
EXTRACT: note_on channel=9 note=35 velocity=100 time=0
EXTRACT: note_on channel=9 note=40 velocity=100 time=0
EXTRACT: note_on channel=9 note=40 velocity=0 time=0.2608695
EXTRACT: note_on channel=9 note=35 velocity=0 time=0
EXTRACT: note_on channel=0 note=58 velocity=0 time=0
EXTRACT: note_on channel=0 note=65 velocity=0 time=0
EXTRACT: note_on channel=0 note=53 velocity=0 time=0
EXTRACT: note_on channel=9 note=45 velocity=0 time=0
EXTRACT: note_on channel=4 note=77 velocity=0 time=0.13043475
EXTRACT: note_on channel=9 note=56 velocity=0 time=0.13043475
EXTRACT: note_on channel=1 note=73 velocity=100 time=0
EXTRACT: note_on channel=9 note=56 velocity=100 time=0
EXTRACT: note_on channel=0 note=53 velocity=100 time=0.2608695
EXTRACT: note_on channel=0 note=58 velocity=100 time=0
EXTRACT: note_on channel=0 note=65 velocity=100 time=0
EXTRACT: note_on channel=4 note=77 velocity=100 time=0
EXTRACT: note_on channel=9 note=40 velocity=100 time=0
EXTRACT: note_on channel=9 note=45 velocity=100 time=0
EXTRACT: note_on channel=9 note=35 velocity=100 time=0
EXTRACT: note_on channel=9 note=35 velocity=0 time=0.2608695
EXTRACT: note_on channel=0 note=58 velocity=0 time=0
EXTRACT: note_on channel=1 note=73 velocity=0 time=0
EXTRACT: note_on channel=9 note=56 velocity=0 time=0
EXTRACT: note_on channel=9 note=45 velocity=0 time=0
EXTRACT: note_on channel=0 note=53 velocity=0 time=0
EXTRACT: note_on channel=9 note=40 velocity=0 time=0
EXTRACT: note_on channel=0 note=65 velocity=0 time=0
EXTRACT: note_on channel=0 note=53 velocity=100 time=0
EXTRACT: note_on channel=0 note=58 velocity=100 time=0
EXTRACT: note_on channel=0 note=65 velocity=100 time=0
EXTRACT: note_on channel=9 note=40 velocity=100 time=0
EXTRACT: note_on channel=9 note=45 velocity=100 time=0
EXTRACT: note_on channel=9 note=56 velocity=100 time=0
EXTRACT: note_on channel=9 note=35 velocity=100 time=0
EXTRACT: note_on channel=4 note=77 velocity=0 time=0.043478249999999996
EXTRACT: note_on channel=0 note=53 velocity=0 time=0.21739124999999998
EXTRACT: note_on channel=9 note=35 velocity=0 time=0
EXTRACT: note_on channel=0 note=58 velocity=0 time=0
EXTRACT: note_on channel=0 note=65 velocity=0 time=0
EXTRACT: note_on channel=9 note=40 velocity=0 time=0
EXTRACT: note_on channel=9 note=45 velocity=0 time=0
EXTRACT: note_on channel=4 note=77 velocity=100 time=0
EXTRACT: note_on channel=5 note=77 velocity=100 time=0
EXTRACT: note_on channel=5 note=73 velocity=100 time=0
EXTRACT: note_on channel=4 note=77 velocity=0 time=0
EXTRACT: note_on channel=9 note=56 velocity=0 time=0
EXTRACT: note_on channel=0 note=46 velocity=100 time=0
EXTRACT: note_on channel=1 note=70 velocity=100 time=0
EXTRACT: note_on channel=4 note=77 velocity=100 time=0
EXTRACT: note_on channel=9 note=56 velocity=100 time=0
EXTRACT: note_on channel=9 note=35 velocity=100 time=0
EXTRACT: note_on channel=9 note=35 velocity=0 time=0.2608695
EXTRACT: note_on channel=5 note=77 velocity=0 time=0
EXTRACT: note_on channel=0 note=46 velocity=0 time=0
EXTRACT: note_on channel=5 note=73 velocity=0 time=0
EXTRACT: note_on channel=4 note=77 velocity=0 time=0
EXTRACT: note_on channel=0 note=49 velocity=100 time=0
EXTRACT: note_on channel=4 note=77 velocity=100 time=0
EXTRACT: note_on channel=5 note=73 velocity=100 time=0
EXTRACT: note_on channel=5 note=77 velocity=100 time=0
EXTRACT: note_on channel=5 note=77 velocity=0 time=0.2608695
EXTRACT: note_on channel=1 note=70 velocity=0 time=0
EXTRACT: note_on channel=0 note=49 velocity=0 time=0
EXTRACT: note_on channel=9 note=56 velocity=0 time=0
EXTRACT: note_on channel=5 note=73 velocity=0 time=0
EXTRACT: note_on channel=4 note=77 velocity=0 time=0
EXTRACT: note_on channel=0 note=58 velocity=100 time=0
EXTRACT: note_on channel=0 note=61 velocity=100 time=0
EXTRACT: note_on channel=0 note=53 velocity=100 time=0
EXTRACT: note_on channel=4 note=77 velocity=100 time=0
EXTRACT: note_on channel=5 note=77 velocity=100 time=0
EXTRACT: note_on channel=5 note=73 velocity=100 time=0
EXTRACT: note_on channel=9 note=40 velocity=100 time=0
EXTRACT: note_on channel=9 note=56 velocity=100 time=0
EXTRACT: note_on channel=9 note=45 velocity=100 time=0
EXTRACT: note_on channel=9 note=45 velocity=0 time=0.2608695
EXTRACT: note_on channel=0 note=58 velocity=0 time=0
EXTRACT: note_on channel=9 note=40 velocity=0 time=0
EXTRACT: note_on channel=5 note=77 velocity=0 time=0
EXTRACT: note_on channel=0 note=61 velocity=0 time=0
EXTRACT: note_on channel=0 note=53 velocity=0 time=0
EXTRACT: note_on channel=4 note=77 velocity=0 time=0
EXTRACT: note_on channel=5 note=73 velocity=0 time=0
EXTRACT: note_on channel=5 note=73 velocity=100 time=0
EXTRACT: note_on channel=5 note=77 velocity=100 time=0
EXTRACT: note_on channel=5 note=77 velocity=0 time=0.2608695
EXTRACT: note_on channel=5 note=73 velocity=0 time=0
EXTRACT: note_on channel=9 note=56 velocity=0 time=0
EXTRACT: note_on channel=1 note=73 velocity=100 time=0
EXTRACT: note_on channel=5 note=73 velocity=100 time=0
EXTRACT: note_on channel=5 note=77 velocity=100 time=0
EXTRACT: note_on channel=9 note=56 velocity=100 time=0
EXTRACT: note_on channel=5 note=77 velocity=0 time=0.2608695
EXTRACT: note_on channel=5 note=73 velocity=0 time=0
EXTRACT: note_on channel=0 note=58 velocity=100 time=0
EXTRACT: note_on channel=0 note=61 velocity=100 time=0
EXTRACT: note_on channel=5 note=77 velocity=100 time=0
EXTRACT: note_on channel=5 note=73 velocity=100 time=0
EXTRACT: note_on channel=9 note=35 velocity=100 time=0
EXTRACT: note_on channel=9 note=35 velocity=0 time=0.2608695
EXTRACT: note_on channel=5 note=77 velocity=0 time=0
EXTRACT: note_on channel=1 note=73 velocity=0 time=0
EXTRACT: note_on channel=0 note=58 velocity=0 time=0
EXTRACT: note_on channel=9 note=56 velocity=0 time=0
EXTRACT: note_on channel=5 note=73 velocity=0 time=0
EXTRACT: note_on channel=0 note=61 velocity=0 time=0
EXTRACT: note_on channel=5 note=77 velocity=100 time=0
EXTRACT: note_on channel=5 note=73 velocity=100 time=0
EXTRACT: note_on channel=9 note=56 velocity=100 time=0
EXTRACT: note_on channel=9 note=40 velocity=100 time=0
EXTRACT: note_on channel=9 note=45 velocity=100 time=0
EXTRACT: note_on channel=9 note=45 velocity=0 time=0.2608695
EXTRACT: note_on channel=5 note=73 velocity=0 time=0
EXTRACT: note_on channel=5 note=77 velocity=0 time=0
EXTRACT: note_on channel=9 note=40 velocity=0 time=0
EXTRACT: note_on channel=0 note=53 velocity=100 time=0
EXTRACT: note_on channel=5 note=75 velocity=100 time=0
EXTRACT: note_on channel=5 note=78 velocity=100 time=0
EXTRACT: note_on channel=9 note=35 velocity=100 time=0
EXTRACT: note_on channel=9 note=35 velocity=0 time=0.2608695
EXTRACT: note_on channel=5 note=75 velocity=0 time=0
EXTRACT: note_on channel=9 note=56 velocity=0 time=0
EXTRACT: note_on channel=0 note=53 velocity=0 time=0
EXTRACT: note_on channel=5 note=78 velocity=0 time=0
EXTRACT: note_on channel=0 note=48 velocity=100 time=0
EXTRACT: note_on channel=1 note=72 velocity=100 time=0
EXTRACT: note_on channel=4 note=77 velocity=100 time=0
EXTRACT: note_on channel=5 note=77 velocity=100 time=0
EXTRACT: note_on channel=5 note=73 velocity=100 time=0
EXTRACT: note_on channel=9 note=56 velocity=100 time=0
EXTRACT: note_on channel=5 note=77 velocity=0 time=0.2608695
EXTRACT: note_on channel=4 note=77 velocity=0 time=0
EXTRACT: note_on channel=0 note=48 velocity=0 time=0
EXTRACT: note_on channel=0 note=53 velocity=100 time=0
EXTRACT: note_on channel=0 note=53 velocity=0 time=0.2608695
EXTRACT: note_on channel=9 note=56 velocity=0 time=0
EXTRACT: note_on channel=5 note=73 velocity=0 time=0
EXTRACT: note_on channel=1 note=72 velocity=0 time=0
EXTRACT: note_on channel=0 note=60 velocity=100 time=0
EXTRACT: note_on channel=0 note=57 velocity=100 time=0
EXTRACT: note_on channel=5 note=72 velocity=100 time=0
EXTRACT: note_on channel=5 note=75 velocity=100 time=0
EXTRACT: note_on channel=9 note=45 velocity=100 time=0
EXTRACT: note_on channel=9 note=40 velocity=100 time=0
EXTRACT: note_on channel=9 note=56 velocity=100 time=0
EXTRACT: note_on channel=9 note=40 velocity=0 time=0.2608695
EXTRACT: note_on channel=0 note=57 velocity=0 time=0
EXTRACT: note_on channel=0 note=60 velocity=0 time=0
EXTRACT: note_on channel=9 note=45 velocity=0 time=0
EXTRACT: note_on channel=0 note=57 velocity=100 time=0
EXTRACT: note_on channel=0 note=66 velocity=100 time=0
EXTRACT: note_on channel=0 note=66 velocity=0 time=0.2608695
EXTRACT: note_on channel=5 note=75 velocity=0 time=0
EXTRACT: note_on channel=5 note=72 velocity=0 time=0
EXTRACT: note_on channel=9 note=56 velocity=0 time=0
EXTRACT: note_on channel=0 note=57 velocity=0 time=0
EXTRACT: note_on channel=0 note=57 velocity=100 time=0
EXTRACT: note_on channel=0 note=65 velocity=100 time=0
EXTRACT: note_on channel=1 note=75 velocity=100 time=0
EXTRACT: note_on channel=5 note=78 velocity=100 time=0
EXTRACT: note_on channel=5 note=75 velocity=100 time=0
EXTRACT: note_on channel=9 note=56 velocity=100 time=0
EXTRACT: note_on channel=5 note=78 velocity=0 time=0.2608695
EXTRACT: note_on channel=0 note=65 velocity=0 time=0
EXTRACT: note_on channel=0 note=57 velocity=0 time=0
EXTRACT: note_on channel=9 note=35 velocity=100 time=0
EXTRACT: note_on channel=9 note=35 velocity=0 time=0.2608695
EXTRACT: note_on channel=5 note=75 velocity=0 time=0
EXTRACT: note_on channel=9 note=56 velocity=0 time=0
EXTRACT: note_on channel=1 note=75 velocity=0 time=0
EXTRACT: note_on channel=9 note=58 velocity=100 time=0
EXTRACT: note_on channel=9 note=40 velocity=100 time=0
EXTRACT: note_on channel=9 note=45 velocity=100 time=0
EXTRACT: note_on channel=9 note=56 velocity=100 time=0
EXTRACT: note_on channel=9 note=45 velocity=0 time=0.2608695
EXTRACT: note_on channel=9 note=40 velocity=0 time=0
EXTRACT: note_on channel=0 note=65 velocity=100 time=0
EXTRACT: note_on channel=5 note=75 velocity=100 time=0
EXTRACT: note_on channel=5 note=72 velocity=100 time=0
EXTRACT: note_on channel=0 note=65 velocity=0 time=0.2608695
EXTRACT: note_on channel=9 note=56 velocity=0 time=0
EXTRACT: note_on channel=9 note=58 velocity=0 time=0
EXTRACT: note_on channel=0 note=48 velocity=100 time=0
EXTRACT: note_on channel=0 note=57 velocity=100 time=0
EXTRACT: note_on channel=1 note=69 velocity=100 time=0
EXTRACT: note_on channel=9 note=56 velocity=100 time=0
EXTRACT: note_on channel=9 note=35 velocity=100 time=0
EXTRACT: note_on channel=9 note=35 velocity=0 time=0.2608695
EXTRACT: note_on channel=5 note=75 velocity=0 time=0
EXTRACT: note_on channel=0 note=48 velocity=0 time=0
EXTRACT: note_on channel=5 note=72 velocity=0 time=0
EXTRACT: note_on channel=0 note=57 velocity=0 time=0
EXTRACT: note_on channel=0 note=60 velocity=100 time=0
EXTRACT: note_on channel=0 note=63 velocity=100 time=0
EXTRACT: note_on channel=0 note=53 velocity=100 time=0
EXTRACT: note_on channel=5 note=75 velocity=100 time=0
EXTRACT: note_on channel=5 note=72 velocity=100 time=0
EXTRACT: note_on channel=5 note=72 velocity=0 time=0.2608695
EXTRACT: note_on channel=0 note=53 velocity=0 time=0
EXTRACT: note_on channel=9 note=56 velocity=0 time=0
EXTRACT: note_on channel=0 note=60 velocity=0 time=0
EXTRACT: note_on channel=1 note=69 velocity=0 time=0
EXTRACT: note_on channel=5 note=75 velocity=0 time=0
EXTRACT: note_on channel=0 note=63 velocity=0 time=0
EXTRACT: note_on channel=0 note=60 velocity=100 time=0
EXTRACT: note_on channel=0 note=63 velocity=100 time=0
EXTRACT: note_on channel=0 note=57 velocity=100 time=0
EXTRACT: note_on channel=5 note=75 velocity=100 time=0
EXTRACT: note_on channel=5 note=72 velocity=100 time=0
EXTRACT: note_on channel=9 note=56 velocity=100 time=0
EXTRACT: note_on channel=9 note=40 velocity=100 time=0
EXTRACT: note_on channel=9 note=45 velocity=100 time=0
EXTRACT: note_on channel=9 note=45 velocity=0 time=0.2608695
EXTRACT: note_on channel=0 note=60 velocity=0 time=0
EXTRACT: note_on channel=0 note=63 velocity=0 time=0
EXTRACT: note_on channel=9 note=40 velocity=0 time=0
EXTRACT: note_on channel=0 note=57 velocity=0 time=0
EXTRACT: note_on channel=5 note=75 velocity=0 time=0
EXTRACT: note_on channel=5 note=72 velocity=0 time=0
EXTRACT: note_on channel=5 note=72 velocity=100 time=0
EXTRACT: note_on channel=5 note=75 velocity=100 time=0
EXTRACT: note_on channel=5 note=75 velocity=0 time=0.2608695
EXTRACT: note_on channel=5 note=72 velocity=0 time=0
EXTRACT: note_on channel=9 note=56 velocity=0 time=0
EXTRACT: note_on channel=1 note=72 velocity=100 time=0
EXTRACT: note_on channel=5 note=72 velocity=100 time=0
EXTRACT: note_on channel=5 note=75 velocity=100 time=0
EXTRACT: note_on channel=9 note=56 velocity=100 time=0
EXTRACT: note_on channel=5 note=75 velocity=0 time=0.2608695
EXTRACT: note_on channel=5 note=72 velocity=0 time=0
EXTRACT: note_on channel=0 note=57 velocity=100 time=0
EXTRACT: note_on channel=0 note=60 velocity=100 time=0
EXTRACT: note_on channel=0 note=63 velocity=100 time=0
EXTRACT: note_on channel=5 note=75 velocity=100 time=0
EXTRACT: note_on channel=5 note=72 velocity=100 time=0
EXTRACT: note_on channel=9 note=35 velocity=100 time=0
EXTRACT: note_on channel=9 note=35 velocity=0 time=0.2608695
EXTRACT: note_on channel=9 note=56 velocity=0 time=0
EXTRACT: note_on channel=0 note=63 velocity=0 time=0
EXTRACT: note_on channel=1 note=72 velocity=0 time=0
EXTRACT: note_on channel=0 note=57 velocity=0 time=0
EXTRACT: note_on channel=0 note=60 velocity=0 time=0
EXTRACT: note_on channel=5 note=75 velocity=0 time=0
EXTRACT: note_on channel=5 note=72 velocity=0 time=0
EXTRACT: note_on channel=5 note=75 velocity=100 time=0
EXTRACT: note_on channel=5 note=72 velocity=100 time=0
EXTRACT: note_on channel=9 note=45 velocity=100 time=0
EXTRACT: note_on channel=9 note=40 velocity=100 time=0
EXTRACT: note_on channel=9 note=56 velocity=100 time=0
EXTRACT: note_on channel=9 note=40 velocity=0 time=0.2608695
EXTRACT: note_on channel=9 note=45 velocity=0 time=0
EXTRACT: note_on channel=5 note=75 velocity=0 time=0
EXTRACT: note_on channel=5 note=72 velocity=0 time=0
EXTRACT: note_on channel=0 note=53 velocity=100 time=0
EXTRACT: note_on channel=5 note=73 velocity=100 time=0
EXTRACT: note_on channel=5 note=77 velocity=100 time=0
EXTRACT: note_on channel=9 note=35 velocity=100 time=0
EXTRACT: note_on channel=9 note=35 velocity=0 time=0.2608695
EXTRACT: note_on channel=5 note=73 velocity=0 time=0
EXTRACT: note_on channel=9 note=56 velocity=0 time=0
EXTRACT: note_on channel=0 note=53 velocity=0 time=0
EXTRACT: note_on channel=5 note=77 velocity=0 time=0
EXTRACT: note_on channel=0 note=61 velocity=100 time=0
EXTRACT: note_on channel=0 note=58 velocity=100 time=0
EXTRACT: note_on channel=1 note=70 velocity=100 time=0
EXTRACT: note_on channel=5 note=75 velocity=100 time=0
EXTRACT: note_on channel=5 note=72 velocity=100 time=0
EXTRACT: note_on channel=9 note=56 velocity=100 time=0
EXTRACT: note_on channel=0 note=58 velocity=0 time=0.2608695
EXTRACT: note_on channel=0 note=61 velocity=0 time=0
EXTRACT: note_on channel=0 note=58 velocity=100 time=0
EXTRACT: note_on channel=0 note=61 velocity=100 time=0
EXTRACT: note_on channel=0 note=61 velocity=0 time=0.2608695
EXTRACT: note_on channel=9 note=56 velocity=0 time=0
EXTRACT: note_on channel=1 note=70 velocity=0 time=0
EXTRACT: note_on channel=5 note=75 velocity=0 time=0
EXTRACT: note_on channel=0 note=58 velocity=0 time=0
EXTRACT: note_on channel=5 note=72 velocity=0 time=0
EXTRACT: note_on channel=0 note=58 velocity=100 time=0
EXTRACT: note_on channel=0 note=61 velocity=100 time=0
EXTRACT: note_on channel=5 note=70 velocity=100 time=0
EXTRACT: note_on channel=5 note=73 velocity=100 time=0
EXTRACT: note_on channel=9 note=56 velocity=100 time=0
EXTRACT: note_on channel=9 note=45 velocity=100 time=0
EXTRACT: note_on channel=9 note=40 velocity=100 time=0
EXTRACT: note_on channel=9 note=40 velocity=0 time=0.2608695
EXTRACT: note_on channel=0 note=61 velocity=0 time=0
EXTRACT: note_on channel=0 note=58 velocity=0 time=0
EXTRACT: note_on channel=9 note=45 velocity=0 time=0
EXTRACT: note_on channel=4 note=77 velocity=100 time=0
EXTRACT: note_on channel=4 note=77 velocity=0 time=0.2608695
EXTRACT: note_on channel=5 note=70 velocity=0 time=0
EXTRACT: note_on channel=9 note=56 velocity=0 time=0
EXTRACT: note_on channel=5 note=73 velocity=0 time=0
EXTRACT: note_on channel=1 note=73 velocity=100 time=0
EXTRACT: note_on channel=4 note=77 velocity=100 time=0
EXTRACT: note_on channel=5 note=73 velocity=100 time=0
EXTRACT: note_on channel=5 note=70 velocity=100 time=0
EXTRACT: note_on channel=9 note=56 velocity=100 time=0
EXTRACT: note_on channel=5 note=73 velocity=0 time=0.2608695
EXTRACT: note_on channel=4 note=77 velocity=0 time=0
EXTRACT: note_on channel=0 note=58 velocity=100 time=0
EXTRACT: note_on channel=0 note=61 velocity=100 time=0
EXTRACT: note_on channel=4 note=77 velocity=100 time=0
EXTRACT: note_on channel=9 note=35 velocity=100 time=0
EXTRACT: note_on channel=9 note=35 velocity=0 time=0.2608695
EXTRACT: note_on channel=0 note=61 velocity=0 time=0
EXTRACT: note_on channel=5 note=70 velocity=0 time=0
EXTRACT: note_on channel=1 note=73 velocity=0 time=0
EXTRACT: note_on channel=9 note=56 velocity=0 time=0
EXTRACT: note_on channel=4 note=77 velocity=0 time=0
EXTRACT: note_on channel=0 note=58 velocity=0 time=0
EXTRACT: note_on channel=0 note=58 velocity=100 time=0
EXTRACT: note_on channel=0 note=61 velocity=100 time=0
EXTRACT: note_on channel=4 note=77 velocity=100 time=0
EXTRACT: note_on channel=9 note=56 velocity=100 time=0
EXTRACT: note_on channel=9 note=40 velocity=100 time=0
EXTRACT: note_on channel=9 note=45 velocity=100 time=0
EXTRACT: note_on channel=9 note=45 velocity=0 time=0.2608695
EXTRACT: note_on channel=0 note=61 velocity=0 time=0
EXTRACT: note_on channel=0 note=58 velocity=0 time=0
EXTRACT: note_on channel=4 note=77 velocity=0 time=0
EXTRACT: note_on channel=9 note=40 velocity=0 time=0
EXTRACT: note_on channel=0 note=53 velocity=100 time=0
EXTRACT: note_on channel=4 note=78 velocity=100 time=0
EXTRACT: note_on channel=5 note=73 velocity=100 time=0
EXTRACT: note_on channel=5 note=77 velocity=100 time=0
EXTRACT: note_on channel=4 note=78 velocity=0 time=0.2608695
EXTRACT: note_on channel=9 note=56 velocity=0 time=0
EXTRACT: note_on channel=0 note=53 velocity=0 time=0
EXTRACT: note_on channel=0 note=46 velocity=100 time=0
EXTRACT: note_on channel=1 note=70 velocity=100 time=0
EXTRACT: note_on channel=4 note=77 velocity=100 time=0
EXTRACT: note_on channel=9 note=56 velocity=100 time=0
EXTRACT: note_on channel=9 note=35 velocity=100 time=0
EXTRACT: note_on channel=9 note=35 velocity=0 time=0.2608695
EXTRACT: note_on channel=5 note=73 velocity=0 time=0
EXTRACT: note_on channel=0 note=46 velocity=0 time=0
EXTRACT: note_on channel=5 note=77 velocity=0 time=0
EXTRACT: note_on channel=4 note=77 velocity=0 time=0
EXTRACT: note_on channel=0 note=49 velocity=100 time=0
EXTRACT: note_on channel=4 note=75 velocity=100 time=0
EXTRACT: note_on channel=5 note=73 velocity=100 time=0
EXTRACT: note_on channel=5 note=77 velocity=100 time=0
EXTRACT: note_on channel=5 note=77 velocity=0 time=0.2608695
EXTRACT: note_on channel=1 note=70 velocity=0 time=0
EXTRACT: note_on channel=0 note=49 velocity=0 time=0
EXTRACT: note_on channel=9 note=56 velocity=0 time=0
EXTRACT: note_on channel=5 note=73 velocity=0 time=0
EXTRACT: note_on channel=4 note=75 velocity=0 time=0
EXTRACT: note_on channel=0 note=58 velocity=100 time=0
EXTRACT: note_on channel=0 note=61 velocity=100 time=0
EXTRACT: note_on channel=0 note=53 velocity=100 time=0
EXTRACT: note_on channel=5 note=77 velocity=100 time=0
EXTRACT: note_on channel=5 note=73 velocity=100 time=0
EXTRACT: note_on channel=9 note=56 velocity=100 time=0
EXTRACT: note_on channel=9 note=45 velocity=100 time=0
EXTRACT: note_on channel=9 note=40 velocity=100 time=0
EXTRACT: note_on channel=9 note=40 velocity=0 time=0.2608695
EXTRACT: note_on channel=0 note=58 velocity=0 time=0
EXTRACT: note_on channel=0 note=61 velocity=0 time=0
EXTRACT: note_on channel=9 note=45 velocity=0 time=0
EXTRACT: note_on channel=0 note=53 velocity=0 time=0
EXTRACT: note_on channel=5 note=77 velocity=0 time=0
EXTRACT: note_on channel=5 note=73 velocity=0 time=0
EXTRACT: note_on channel=4 note=77 velocity=100 time=0
EXTRACT: note_on channel=5 note=77 velocity=100 time=0
EXTRACT: note_on channel=5 note=73 velocity=100 time=0
EXTRACT: note_on channel=5 note=73 velocity=0 time=0.2608695
EXTRACT: note_on channel=9 note=56 velocity=0 time=0
EXTRACT: note_on channel=4 note=77 velocity=0 time=0
EXTRACT: note_on channel=5 note=77 velocity=0 time=0
EXTRACT: note_on channel=1 note=73 velocity=100 time=0
EXTRACT: note_on channel=5 note=73 velocity=100 time=0
EXTRACT: note_on channel=5 note=77 velocity=100 time=0
EXTRACT: note_on channel=9 note=56 velocity=100 time=0
EXTRACT: note_on channel=5 note=77 velocity=0 time=0.2608695
EXTRACT: note_on channel=5 note=73 velocity=0 time=0
EXTRACT: note_on channel=0 note=58 velocity=100 time=0
EXTRACT: note_on channel=0 note=61 velocity=100 time=0
EXTRACT: note_on channel=5 note=77 velocity=100 time=0
EXTRACT: note_on channel=5 note=73 velocity=100 time=0
EXTRACT: note_on channel=9 note=35 velocity=100 time=0
EXTRACT: note_on channel=9 note=35 velocity=0 time=0.2608695
EXTRACT: note_on channel=5 note=77 velocity=0 time=0
EXTRACT: note_on channel=1 note=73 velocity=0 time=0
EXTRACT: note_on channel=0 note=58 velocity=0 time=0
EXTRACT: note_on channel=9 note=56 velocity=0 time=0
EXTRACT: note_on channel=5 note=73 velocity=0 time=0
EXTRACT: note_on channel=0 note=61 velocity=0 time=0
EXTRACT: note_on channel=4 note=75 velocity=100 time=0
EXTRACT: note_on channel=5 note=77 velocity=100 time=0
EXTRACT: note_on channel=5 note=73 velocity=100 time=0
EXTRACT: note_on channel=9 note=45 velocity=100 time=0
EXTRACT: note_on channel=9 note=56 velocity=100 time=0
EXTRACT: note_on channel=9 note=40 velocity=100 time=0
EXTRACT: note_on channel=9 note=40 velocity=0 time=0.2608695
EXTRACT: note_on channel=5 note=77 velocity=0 time=0
EXTRACT: note_on channel=5 note=73 velocity=0 time=0
EXTRACT: note_on channel=4 note=75 velocity=0 time=0
EXTRACT: note_on channel=9 note=45 velocity=0 time=0
EXTRACT: note_on channel=0 note=53 velocity=100 time=0
EXTRACT: note_on channel=4 note=72 velocity=100 time=0
EXTRACT: note_on channel=5 note=75 velocity=100 time=0
EXTRACT: note_on channel=5 note=78 velocity=100 time=0
EXTRACT: note_on channel=9 note=35 velocity=100 time=0
EXTRACT: note_on channel=9 note=35 velocity=0 time=0.2608695
EXTRACT: note_on channel=0 note=53 velocity=0 time=0
EXTRACT: note_on channel=4 note=72 velocity=0 time=0
EXTRACT: note_on channel=9 note=56 velocity=0 time=0
EXTRACT: note_on channel=5 note=78 velocity=0 time=0
EXTRACT: note_on channel=5 note=75 velocity=0 time=0
EXTRACT: note_on channel=0 note=48 velocity=100 time=0
EXTRACT: note_on channel=1 note=72 velocity=100 time=0
EXTRACT: note_on channel=4 note=72 velocity=100 time=0
EXTRACT: note_on channel=5 note=77 velocity=100 time=0
EXTRACT: note_on channel=5 note=73 velocity=100 time=0
EXTRACT: note_on channel=9 note=56 velocity=100 time=0
EXTRACT: note_on channel=4 note=72 velocity=0 time=0.2608695
EXTRACT: note_on channel=0 note=48 velocity=0 time=0
EXTRACT: note_on channel=0 note=53 velocity=100 time=0
EXTRACT: note_on channel=0 note=53 velocity=0 time=0.2608695
EXTRACT: note_on channel=5 note=73 velocity=0 time=0
EXTRACT: note_on channel=1 note=72 velocity=0 time=0
EXTRACT: note_on channel=9 note=56 velocity=0 time=0
EXTRACT: note_on channel=5 note=77 velocity=0 time=0
EXTRACT: note_on channel=0 note=60 velocity=100 time=0
EXTRACT: note_on channel=0 note=57 velocity=100 time=0
EXTRACT: note_on channel=5 note=75 velocity=100 time=0
EXTRACT: note_on channel=5 note=72 velocity=100 time=0
EXTRACT: note_on channel=9 note=56 velocity=100 time=0
EXTRACT: note_on channel=9 note=45 velocity=100 time=0
EXTRACT: note_on channel=9 note=40 velocity=100 time=0
EXTRACT: note_on channel=9 note=40 velocity=0 time=0.2608695
EXTRACT: note_on channel=0 note=57 velocity=0 time=0
EXTRACT: note_on channel=0 note=60 velocity=0 time=0
EXTRACT: note_on channel=9 note=45 velocity=0 time=0
EXTRACT: note_on channel=0 note=57 velocity=100 time=0
EXTRACT: note_on channel=0 note=66 velocity=100 time=0
EXTRACT: note_on channel=0 note=66 velocity=0 time=0.2608695
EXTRACT: note_on channel=5 note=72 velocity=0 time=0
EXTRACT: note_on channel=5 note=75 velocity=0 time=0
EXTRACT: note_on channel=9 note=56 velocity=0 time=0
EXTRACT: note_on channel=0 note=57 velocity=0 time=0
EXTRACT: note_on channel=0 note=57 velocity=100 time=0
EXTRACT: note_on channel=0 note=65 velocity=100 time=0
EXTRACT: note_on channel=1 note=75 velocity=100 time=0
EXTRACT: note_on channel=5 note=75 velocity=100 time=0
EXTRACT: note_on channel=5 note=78 velocity=100 time=0
EXTRACT: note_on channel=9 note=56 velocity=100 time=0
EXTRACT: note_on channel=0 note=65 velocity=0 time=0.2608695
EXTRACT: note_on channel=0 note=57 velocity=0 time=0
EXTRACT: note_on channel=9 note=35 velocity=100 time=0
EXTRACT: note_on channel=9 note=35 velocity=0 time=0.2608695
EXTRACT: note_on channel=1 note=75 velocity=0 time=0
EXTRACT: note_on channel=5 note=75 velocity=0 time=0
EXTRACT: note_on channel=9 note=56 velocity=0 time=0
EXTRACT: note_on channel=5 note=78 velocity=0 time=0
EXTRACT: note_on channel=9 note=58 velocity=100 time=0
EXTRACT: note_on channel=9 note=40 velocity=100 time=0
EXTRACT: note_on channel=9 note=56 velocity=100 time=0
EXTRACT: note_on channel=9 note=45 velocity=100 time=0
EXTRACT: note_on channel=9 note=45 velocity=0 time=0.2608695
EXTRACT: note_on channel=9 note=40 velocity=0 time=0
EXTRACT: note_on channel=0 note=65 velocity=100 time=0
EXTRACT: note_on channel=5 note=75 velocity=100 time=0
EXTRACT: note_on channel=5 note=72 velocity=100 time=0
EXTRACT: note_on channel=0 note=65 velocity=0 time=0.2608695
EXTRACT: note_on channel=9 note=58 velocity=0 time=0
EXTRACT: note_on channel=9 note=56 velocity=0 time=0
EXTRACT: note_on channel=0 note=48 velocity=100 time=0
EXTRACT: note_on channel=0 note=57 velocity=100 time=0
EXTRACT: note_on channel=1 note=69 velocity=100 time=0
EXTRACT: note_on channel=9 note=56 velocity=100 time=0
EXTRACT: note_on channel=9 note=35 velocity=100 time=0
EXTRACT: note_on channel=9 note=35 velocity=0 time=0.2608695
EXTRACT: note_on channel=5 note=75 velocity=0 time=0
EXTRACT: note_on channel=0 note=48 velocity=0 time=0
EXTRACT: note_on channel=5 note=72 velocity=0 time=0
EXTRACT: note_on channel=0 note=57 velocity=0 time=0
EXTRACT: note_on channel=0 note=60 velocity=100 time=0
EXTRACT: note_on channel=0 note=63 velocity=100 time=0
EXTRACT: note_on channel=0 note=53 velocity=100 time=0
EXTRACT: note_on channel=5 note=75 velocity=100 time=0
EXTRACT: note_on channel=5 note=72 velocity=100 time=0
EXTRACT: note_on channel=5 note=72 velocity=0 time=0.2608695
EXTRACT: note_on channel=0 note=53 velocity=0 time=0
EXTRACT: note_on channel=9 note=56 velocity=0 time=0
EXTRACT: note_on channel=0 note=60 velocity=0 time=0
EXTRACT: note_on channel=1 note=69 velocity=0 time=0
EXTRACT: note_on channel=5 note=75 velocity=0 time=0
EXTRACT: note_on channel=0 note=63 velocity=0 time=0
EXTRACT: note_on channel=0 note=60 velocity=100 time=0
EXTRACT: note_on channel=0 note=63 velocity=100 time=0
EXTRACT: note_on channel=0 note=57 velocity=100 time=0
EXTRACT: note_on channel=5 note=72 velocity=100 time=0
EXTRACT: note_on channel=5 note=75 velocity=100 time=0
EXTRACT: note_on channel=9 note=45 velocity=100 time=0
EXTRACT: note_on channel=9 note=40 velocity=100 time=0
EXTRACT: note_on channel=9 note=56 velocity=100 time=0
EXTRACT: note_on channel=9 note=40 velocity=0 time=0.2608695
EXTRACT: note_on channel=5 note=72 velocity=0 time=0
EXTRACT: note_on channel=5 note=75 velocity=0 time=0
EXTRACT: note_on channel=0 note=63 velocity=0 time=0
EXTRACT: note_on channel=0 note=57 velocity=0 time=0
EXTRACT: note_on channel=0 note=60 velocity=0 time=0
EXTRACT: note_on channel=9 note=45 velocity=0 time=0
EXTRACT: note_on channel=5 note=75 velocity=100 time=0
EXTRACT: note_on channel=5 note=72 velocity=100 time=0
EXTRACT: note_on channel=5 note=72 velocity=0 time=0.2608695
EXTRACT: note_on channel=5 note=75 velocity=0 time=0
EXTRACT: note_on channel=9 note=56 velocity=0 time=0
EXTRACT: note_on channel=1 note=72 velocity=100 time=0
EXTRACT: note_on channel=5 note=75 velocity=100 time=0
EXTRACT: note_on channel=5 note=72 velocity=100 time=0
EXTRACT: note_on channel=9 note=56 velocity=100 time=0
EXTRACT: note_on channel=5 note=72 velocity=0 time=0.2608695
EXTRACT: note_on channel=5 note=75 velocity=0 time=0
EXTRACT: note_on channel=0 note=57 velocity=100 time=0
EXTRACT: note_on channel=0 note=60 velocity=100 time=0
EXTRACT: note_on channel=0 note=63 velocity=100 time=0
EXTRACT: note_on channel=5 note=72 velocity=100 time=0
EXTRACT: note_on channel=5 note=75 velocity=100 time=0
EXTRACT: note_on channel=9 note=35 velocity=100 time=0
EXTRACT: note_on channel=9 note=35 velocity=0 time=0.2608695
EXTRACT: note_on channel=9 note=56 velocity=0 time=0
EXTRACT: note_on channel=0 note=63 velocity=0 time=0
EXTRACT: note_on channel=1 note=72 velocity=0 time=0
EXTRACT: note_on channel=0 note=57 velocity=0 time=0
EXTRACT: note_on channel=0 note=60 velocity=0 time=0
EXTRACT: note_on channel=5 note=72 velocity=0 time=0
EXTRACT: note_on channel=5 note=75 velocity=0 time=0
EXTRACT: note_on channel=5 note=75 velocity=100 time=0
EXTRACT: note_on channel=5 note=72 velocity=100 time=0
EXTRACT: note_on channel=9 note=56 velocity=100 time=0
EXTRACT: note_on channel=9 note=45 velocity=100 time=0
EXTRACT: note_on channel=9 note=40 velocity=100 time=0
EXTRACT: note_on channel=9 note=40 velocity=0 time=0.2608695
EXTRACT: note_on channel=5 note=72 velocity=0 time=0
EXTRACT: note_on channel=5 note=75 velocity=0 time=0
EXTRACT: note_on channel=9 note=45 velocity=0 time=0
EXTRACT: note_on channel=0 note=53 velocity=100 time=0
EXTRACT: note_on channel=5 note=77 velocity=100 time=0
EXTRACT: note_on channel=5 note=73 velocity=100 time=0
EXTRACT: note_on channel=9 note=35 velocity=100 time=0
EXTRACT: note_on channel=9 note=35 velocity=0 time=0.2608695
EXTRACT: note_on channel=5 note=77 velocity=0 time=0
EXTRACT: note_on channel=9 note=56 velocity=0 time=0
EXTRACT: note_on channel=0 note=53 velocity=0 time=0
EXTRACT: note_on channel=5 note=73 velocity=0 time=0
EXTRACT: note_on channel=0 note=61 velocity=100 time=0
EXTRACT: note_on channel=0 note=58 velocity=100 time=0
EXTRACT: note_on channel=1 note=70 velocity=100 time=0
EXTRACT: note_on channel=5 note=72 velocity=100 time=0
EXTRACT: note_on channel=5 note=75 velocity=100 time=0
EXTRACT: note_on channel=9 note=56 velocity=100 time=0
EXTRACT: note_on channel=9 note=35 velocity=100 time=0
EXTRACT: note_on channel=9 note=40 velocity=100 time=0
EXTRACT: note_on channel=9 note=45 velocity=100 time=0
EXTRACT: note_on channel=9 note=45 velocity=0 time=0.2608695
EXTRACT: note_on channel=0 note=61 velocity=0 time=0
EXTRACT: note_on channel=9 note=40 velocity=0 time=0
EXTRACT: note_on channel=9 note=35 velocity=0 time=0
EXTRACT: note_on channel=0 note=58 velocity=0 time=0
EXTRACT: note_on channel=0 note=58 velocity=100 time=0
EXTRACT: note_on channel=0 note=61 velocity=100 time=0
EXTRACT: note_on channel=9 note=40 velocity=100 time=0
EXTRACT: note_on channel=9 note=35 velocity=100 time=0
EXTRACT: note_on channel=9 note=45 velocity=100 time=0
EXTRACT: note_on channel=9 note=45 velocity=0 time=0.2608695
EXTRACT: note_on channel=5 note=75 velocity=0 time=0
EXTRACT: note_on channel=5 note=72 velocity=0 time=0
EXTRACT: note_on channel=0 note=58 velocity=0 time=0
EXTRACT: note_on channel=1 note=70 velocity=0 time=0
EXTRACT: note_on channel=9 note=56 velocity=0 time=0
EXTRACT: note_on channel=9 note=40 velocity=0 time=0
EXTRACT: note_on channel=0 note=61 velocity=0 time=0
EXTRACT: note_on channel=9 note=35 velocity=0 time=0
EXTRACT: note_on channel=0 note=58 velocity=100 time=0
EXTRACT: note_on channel=0 note=61 velocity=100 time=0
EXTRACT: note_on channel=4 note=82 velocity=100 time=0
EXTRACT: note_on channel=5 note=73 velocity=100 time=0
EXTRACT: note_on channel=5 note=70 velocity=100 time=0
EXTRACT: note_on channel=9 note=40 velocity=100 time=0
EXTRACT: note_on channel=9 note=45 velocity=100 time=0
EXTRACT: note_on channel=9 note=35 velocity=100 time=0
EXTRACT: note_on channel=9 note=56 velocity=100 time=0
EXTRACT: note_on channel=9 note=35 velocity=0 time=0.2608695
EXTRACT: note_on channel=9 note=45 velocity=0 time=0
EXTRACT: note_on channel=0 note=58 velocity=0 time=0
EXTRACT: note_on channel=0 note=61 velocity=0 time=0
EXTRACT: note_on channel=9 note=40 velocity=0 time=0
EXTRACT: note_on channel=4 note=82 velocity=0 time=0.08695649999999999
EXTRACT: note_on channel=9 note=56 velocity=0 time=0.17391299999999998
EXTRACT: note_on channel=5 note=70 velocity=0 time=0
EXTRACT: note_on channel=5 note=73 velocity=0 time=0
EXTRACT: note_on channel=1 note=73 velocity=100 time=0
EXTRACT: note_on channel=4 note=80 velocity=100 time=0
EXTRACT: note_on channel=5 note=73 velocity=100 time=0
EXTRACT: note_on channel=5 note=70 velocity=100 time=0
EXTRACT: note_on channel=9 note=56 velocity=100 time=0
EXTRACT: note_on channel=0 note=58 velocity=100 time=0.2608695
EXTRACT: note_on channel=0 note=61 velocity=100 time=0
EXTRACT: note_on channel=9 note=40 velocity=100 time=0
EXTRACT: note_on channel=9 note=45 velocity=100 time=0
EXTRACT: note_on channel=9 note=35 velocity=100 time=0
EXTRACT: note_on channel=4 note=80 velocity=0 time=0.08695649999999999
EXTRACT: note_on channel=5 note=70 velocity=0 time=0.17391299999999998
EXTRACT: note_on channel=9 note=56 velocity=0 time=0
EXTRACT: note_on channel=1 note=73 velocity=0 time=0
EXTRACT: note_on channel=0 note=58 velocity=0 time=0
EXTRACT: note_on channel=5 note=73 velocity=0 time=0
EXTRACT: note_on channel=9 note=45 velocity=0 time=0
EXTRACT: note_on channel=9 note=40 velocity=0 time=0
EXTRACT: note_on channel=0 note=61 velocity=0 time=0
EXTRACT: note_on channel=9 note=35 velocity=0 time=0
EXTRACT: note_on channel=0 note=58 velocity=100 time=0
EXTRACT: note_on channel=0 note=61 velocity=100 time=0
EXTRACT: note_on channel=4 note=78 velocity=100 time=0
EXTRACT: note_on channel=5 note=73 velocity=100 time=0
EXTRACT: note_on channel=5 note=70 velocity=100 time=0
EXTRACT: note_on channel=9 note=45 velocity=100 time=0
EXTRACT: note_on channel=9 note=35 velocity=100 time=0
EXTRACT: note_on channel=9 note=40 velocity=100 time=0
EXTRACT: note_on channel=9 note=56 velocity=100 time=0
EXTRACT: note_on channel=9 note=40 velocity=0 time=0.2608695
EXTRACT: note_on channel=9 note=35 velocity=0 time=0
EXTRACT: note_on channel=5 note=73 velocity=0 time=0
EXTRACT: note_on channel=5 note=70 velocity=0 time=0
EXTRACT: note_on channel=0 note=61 velocity=0 time=0
EXTRACT: note_on channel=4 note=78 velocity=0 time=0
EXTRACT: note_on channel=0 note=58 velocity=0 time=0
EXTRACT: note_on channel=9 note=45 velocity=0 time=0
EXTRACT: note_on channel=0 note=53 velocity=100 time=0
EXTRACT: note_on channel=5 note=63 velocity=100 time=0
EXTRACT: note_on channel=5 note=75 velocity=100 time=0
EXTRACT: note_on channel=5 note=72 velocity=100 time=0
EXTRACT: note_on channel=5 note=72 velocity=0 time=0
EXTRACT: note_on channel=5 note=63 velocity=0 time=0
EXTRACT: note_on channel=9 note=56 velocity=0 time=0
EXTRACT: note_on channel=0 note=53 velocity=0 time=0
EXTRACT: note_on channel=5 note=75 velocity=0 time=0
EXTRACT: note_on channel=0 note=46 velocity=100 time=0
EXTRACT: note_on channel=1 note=70 velocity=100 time=0
EXTRACT: note_on channel=2 note=77 velocity=100 time=0
EXTRACT: note_on channel=3 note=77 velocity=100 time=0
EXTRACT: note_on channel=4 note=77 velocity=100 time=0
EXTRACT: note_on channel=5 note=61 velocity=100 time=0
EXTRACT: note_on channel=5 note=73 velocity=100 time=0
EXTRACT: note_on channel=5 note=70 velocity=100 time=0
EXTRACT: note_on channel=9 note=56 velocity=100 time=0
EXTRACT: note_on channel=9 note=35 velocity=100 time=0
EXTRACT: note_on channel=3 note=77 velocity=0 time=0.13043475
EXTRACT: note_on channel=2 note=77 velocity=0 time=0
EXTRACT: note_on channel=5 note=70 velocity=0 time=0.13043475
EXTRACT: note_on channel=9 note=35 velocity=0 time=0
EXTRACT: note_on channel=5 note=61 velocity=0 time=0
EXTRACT: note_on channel=0 note=46 velocity=0 time=0
EXTRACT: note_on channel=5 note=73 velocity=0 time=0
EXTRACT: note_on channel=0 note=49 velocity=100 time=0
EXTRACT: note_on channel=2 note=77 velocity=100 time=0
EXTRACT: note_on channel=3 note=77 velocity=100 time=0
EXTRACT: note_on channel=5 note=61 velocity=100 time=0
EXTRACT: note_on channel=5 note=73 velocity=100 time=0
EXTRACT: note_on channel=5 note=70 velocity=100 time=0
EXTRACT: note_on channel=4 note=77 velocity=0 time=0.13043475
EXTRACT: note_on channel=0 note=49 velocity=0 time=0.13043475
EXTRACT: note_on channel=1 note=70 velocity=0 time=0
EXTRACT: note_on channel=9 note=56 velocity=0 time=0
EXTRACT: note_on channel=0 note=58 velocity=100 time=0
EXTRACT: note_on channel=0 note=61 velocity=100 time=0
EXTRACT: note_on channel=0 note=53 velocity=100 time=0
EXTRACT: note_on channel=9 note=56 velocity=100 time=0
EXTRACT: note_on channel=9 note=45 velocity=100 time=0
EXTRACT: note_on channel=9 note=40 velocity=100 time=0
EXTRACT: note_on channel=9 note=40 velocity=0 time=0.2608695
EXTRACT: note_on channel=0 note=61 velocity=0 time=0
EXTRACT: note_on channel=9 note=45 velocity=0 time=0
EXTRACT: note_on channel=0 note=53 velocity=0 time=0
EXTRACT: note_on channel=0 note=58 velocity=0 time=0
EXTRACT: note_on channel=5 note=73 velocity=0 time=0.2608695
EXTRACT: note_on channel=5 note=70 velocity=0 time=0
EXTRACT: note_on channel=9 note=56 velocity=0 time=0
EXTRACT: note_on channel=5 note=61 velocity=0 time=0
EXTRACT: note_on channel=1 note=73 velocity=100 time=0
EXTRACT: note_on channel=9 note=56 velocity=100 time=0
EXTRACT: note_on channel=3 note=77 velocity=0 time=0.2608695
EXTRACT: note_on channel=2 note=77 velocity=0 time=0
EXTRACT: note_on channel=0 note=58 velocity=100 time=0
EXTRACT: note_on channel=0 note=61 velocity=100 time=0
EXTRACT: note_on channel=9 note=35 velocity=100 time=0
EXTRACT: note_on channel=9 note=35 velocity=0 time=0.2608695
EXTRACT: note_on channel=0 note=58 velocity=0 time=0
EXTRACT: note_on channel=9 note=56 velocity=0 time=0
EXTRACT: note_on channel=1 note=73 velocity=0 time=0
EXTRACT: note_on channel=0 note=61 velocity=0 time=0
EXTRACT: note_on channel=2 note=77 velocity=100 time=0
EXTRACT: note_on channel=3 note=77 velocity=100 time=0
EXTRACT: note_on channel=5 note=61 velocity=100 time=0
EXTRACT: note_on channel=5 note=70 velocity=100 time=0
EXTRACT: note_on channel=5 note=73 velocity=100 time=0
EXTRACT: note_on channel=9 note=56 velocity=100 time=0
EXTRACT: note_on channel=9 note=45 velocity=100 time=0
EXTRACT: note_on channel=9 note=40 velocity=100 time=0
EXTRACT: note_on channel=9 note=40 velocity=0 time=0.2608695
EXTRACT: note_on channel=2 note=77 velocity=0 time=0
EXTRACT: note_on channel=3 note=77 velocity=0 time=0
EXTRACT: note_on channel=9 note=45 velocity=0 time=0
EXTRACT: note_on channel=5 note=61 velocity=0 time=0
EXTRACT: note_on channel=5 note=70 velocity=0 time=0
EXTRACT: note_on channel=5 note=73 velocity=0 time=0
EXTRACT: note_on channel=0 note=53 velocity=100 time=0
EXTRACT: note_on channel=2 note=75 velocity=100 time=0
EXTRACT: note_on channel=3 note=75 velocity=100 time=0
EXTRACT: note_on channel=5 note=63 velocity=100 time=0
EXTRACT: note_on channel=5 note=72 velocity=100 time=0
EXTRACT: note_on channel=5 note=75 velocity=100 time=0
EXTRACT: note_on channel=9 note=35 velocity=100 time=0
EXTRACT: note_on channel=9 note=35 velocity=0 time=0.2608695
EXTRACT: note_on channel=9 note=56 velocity=0 time=0
EXTRACT: note_on channel=5 note=63 velocity=0 time=0
EXTRACT: note_on channel=0 note=53 velocity=0 time=0
EXTRACT: note_on channel=2 note=75 velocity=0 time=0
EXTRACT: note_on channel=3 note=75 velocity=0 time=0
EXTRACT: note_on channel=5 note=72 velocity=0 time=0
EXTRACT: note_on channel=5 note=75 velocity=0 time=0
EXTRACT: note_on channel=0 note=48 velocity=100 time=0
EXTRACT: note_on channel=1 note=72 velocity=100 time=0
EXTRACT: note_on channel=5 note=60 velocity=100 time=0
EXTRACT: note_on channel=5 note=69 velocity=100 time=0
EXTRACT: note_on channel=5 note=72 velocity=100 time=0
EXTRACT: note_on channel=9 note=56 velocity=100 time=0
EXTRACT: note_on channel=5 note=72 velocity=0 time=0.2608695
EXTRACT: note_on channel=5 note=69 velocity=0 time=0
EXTRACT: note_on channel=5 note=60 velocity=0 time=0
EXTRACT: note_on channel=0 note=48 velocity=0 time=0
EXTRACT: note_on channel=0 note=53 velocity=100 time=0
EXTRACT: note_on channel=2 note=77 velocity=100 time=0
EXTRACT: note_on channel=3 note=77 velocity=100 time=0
EXTRACT: note_on channel=5 note=60 velocity=100 time=0
EXTRACT: note_on channel=5 note=69 velocity=100 time=0
EXTRACT: note_on channel=5 note=72 velocity=100 time=0
EXTRACT: note_on channel=0 note=53 velocity=0 time=0.2608695
EXTRACT: note_on channel=9 note=56 velocity=0 time=0
EXTRACT: note_on channel=1 note=72 velocity=0 time=0
EXTRACT: note_on channel=0 note=60 velocity=100 time=0
EXTRACT: note_on channel=0 note=57 velocity=100 time=0
EXTRACT: note_on channel=9 note=45 velocity=100 time=0
EXTRACT: note_on channel=9 note=40 velocity=100 time=0
EXTRACT: note_on channel=9 note=56 velocity=100 time=0
EXTRACT: note_on channel=9 note=40 velocity=0 time=0.2608695
EXTRACT: note_on channel=9 note=45 velocity=0 time=0
EXTRACT: note_on channel=0 note=57 velocity=0 time=0
EXTRACT: note_on channel=0 note=60 velocity=0 time=0
EXTRACT: note_on channel=0 note=57 velocity=100 time=0
EXTRACT: note_on channel=0 note=66 velocity=100 time=0
EXTRACT: note_on channel=0 note=66 velocity=0 time=0.2608695
EXTRACT: note_on channel=0 note=57 velocity=0 time=0
EXTRACT: note_on channel=5 note=69 velocity=0 time=0
EXTRACT: note_on channel=5 note=72 velocity=0 time=0
EXTRACT: note_on channel=9 note=56 velocity=0 time=0
EXTRACT: note_on channel=5 note=60 velocity=0 time=0
EXTRACT: note_on channel=0 note=57 velocity=100 time=0
EXTRACT: note_on channel=0 note=65 velocity=100 time=0
EXTRACT: note_on channel=1 note=75 velocity=100 time=0
EXTRACT: note_on channel=9 note=56 velocity=100 time=0
EXTRACT: note_on channel=0 note=65 velocity=0 time=0.2608695
EXTRACT: note_on channel=0 note=57 velocity=0 time=0
EXTRACT: note_on channel=2 note=77 velocity=0 time=0
EXTRACT: note_on channel=3 note=77 velocity=0 time=0
EXTRACT: note_on channel=9 note=35 velocity=100 time=0
EXTRACT: note_on channel=9 note=35 velocity=0 time=0.2608695
EXTRACT: note_on channel=9 note=56 velocity=0 time=0
EXTRACT: note_on channel=1 note=75 velocity=0 time=0
EXTRACT: note_on channel=2 note=78 velocity=100 time=0
EXTRACT: note_on channel=3 note=78 velocity=100 time=0
EXTRACT: note_on channel=9 note=58 velocity=100 time=0
EXTRACT: note_on channel=9 note=56 velocity=100 time=0
EXTRACT: note_on channel=9 note=40 velocity=100 time=0
EXTRACT: note_on channel=9 note=45 velocity=100 time=0
EXTRACT: note_on channel=9 note=45 velocity=0 time=0.2608695
EXTRACT: note_on channel=3 note=78 velocity=0 time=0
EXTRACT: note_on channel=2 note=78 velocity=0 time=0
EXTRACT: note_on channel=9 note=40 velocity=0 time=0
EXTRACT: note_on channel=0 note=65 velocity=100 time=0
EXTRACT: note_on channel=2 note=77 velocity=100 time=0
EXTRACT: note_on channel=3 note=77 velocity=100 time=0
EXTRACT: note_on channel=5 note=60 velocity=100 time=0
EXTRACT: note_on channel=5 note=72 velocity=100 time=0
EXTRACT: note_on channel=5 note=75 velocity=100 time=0
EXTRACT: note_on channel=3 note=77 velocity=0 time=0.2608695
EXTRACT: note_on channel=2 note=77 velocity=0 time=0
EXTRACT: note_on channel=9 note=58 velocity=0 time=0
EXTRACT: note_on channel=0 note=65 velocity=0 time=0
EXTRACT: note_on channel=9 note=56 velocity=0 time=0
EXTRACT: note_on channel=0 note=48 velocity=100 time=0
EXTRACT: note_on channel=0 note=57 velocity=100 time=0
EXTRACT: note_on channel=1 note=69 velocity=100 time=0
EXTRACT: note_on channel=2 note=77 velocity=100 time=0
EXTRACT: note_on channel=3 note=77 velocity=100 time=0
EXTRACT: note_on channel=9 note=35 velocity=100 time=0
EXTRACT: note_on channel=9 note=56 velocity=100 time=0
EXTRACT: note_on channel=3 note=77 velocity=0 time=0.13043475
EXTRACT: note_on channel=2 note=77 velocity=0 time=0
EXTRACT: note_on channel=0 note=48 velocity=0 time=0.13043475
EXTRACT: note_on channel=9 note=35 velocity=0 time=0
EXTRACT: note_on channel=5 note=72 velocity=0 time=0
EXTRACT: note_on channel=5 note=60 velocity=0 time=0
EXTRACT: note_on channel=5 note=75 velocity=0 time=0
EXTRACT: note_on channel=0 note=57 velocity=0 time=0
EXTRACT: note_on channel=0 note=60 velocity=100 time=0
EXTRACT: note_on channel=0 note=63 velocity=100 time=0
EXTRACT: note_on channel=0 note=53 velocity=100 time=0
EXTRACT: note_on channel=2 note=77 velocity=100 time=0
EXTRACT: note_on channel=3 note=77 velocity=100 time=0
EXTRACT: note_on channel=5 note=60 velocity=100 time=0
EXTRACT: note_on channel=5 note=72 velocity=100 time=0
EXTRACT: note_on channel=5 note=75 velocity=100 time=0
EXTRACT: note_on channel=5 note=75 velocity=0 time=0.2608695
EXTRACT: note_on channel=0 note=60 velocity=0 time=0
EXTRACT: note_on channel=0 note=63 velocity=0 time=0
EXTRACT: note_on channel=1 note=69 velocity=0 time=0
EXTRACT: note_on channel=5 note=72 velocity=0 time=0
EXTRACT: note_on channel=0 note=53 velocity=0 time=0
EXTRACT: note_on channel=5 note=60 velocity=0 time=0
EXTRACT: note_on channel=9 note=56 velocity=0 time=0
EXTRACT: note_on channel=0 note=60 velocity=100 time=0
EXTRACT: note_on channel=0 note=63 velocity=100 time=0
EXTRACT: note_on channel=0 note=57 velocity=100 time=0
EXTRACT: note_on channel=5 note=72 velocity=100 time=0
EXTRACT: note_on channel=5 note=60 velocity=100 time=0
EXTRACT: note_on channel=5 note=75 velocity=100 time=0
EXTRACT: note_on channel=9 note=40 velocity=100 time=0
EXTRACT: note_on channel=9 note=45 velocity=100 time=0
EXTRACT: note_on channel=9 note=56 velocity=100 time=0
EXTRACT: note_on channel=9 note=45 velocity=0 time=0.2608695
EXTRACT: note_on channel=9 note=40 velocity=0 time=0
EXTRACT: note_on channel=0 note=60 velocity=0 time=0
EXTRACT: note_on channel=5 note=60 velocity=0 time=0
EXTRACT: note_on channel=0 note=63 velocity=0 time=0
EXTRACT: note_on channel=0 note=57 velocity=0 time=0
EXTRACT: note_on channel=5 note=75 velocity=0 time=0
EXTRACT: note_on channel=5 note=72 velocity=0 time=0
EXTRACT: note_on channel=5 note=60 velocity=100 time=0
EXTRACT: note_on channel=5 note=72 velocity=100 time=0
EXTRACT: note_on channel=5 note=75 velocity=100 time=0
EXTRACT: note_on channel=5 note=75 velocity=0 time=0.2608695
EXTRACT: note_on channel=5 note=60 velocity=0 time=0
EXTRACT: note_on channel=9 note=56 velocity=0 time=0
EXTRACT: note_on channel=5 note=72 velocity=0 time=0
EXTRACT: note_on channel=1 note=72 velocity=100 time=0
EXTRACT: note_on channel=5 note=60 velocity=100 time=0
EXTRACT: note_on channel=5 note=72 velocity=100 time=0
EXTRACT: note_on channel=5 note=75 velocity=100 time=0
EXTRACT: note_on channel=9 note=56 velocity=100 time=0
EXTRACT: note_on channel=5 note=72 velocity=0 time=0.2608695
EXTRACT: note_on channel=5 note=60 velocity=0 time=0
EXTRACT: note_on channel=2 note=77 velocity=0 time=0
EXTRACT: note_on channel=3 note=77 velocity=0 time=0
EXTRACT: note_on channel=0 note=57 velocity=100 time=0
EXTRACT: note_on channel=0 note=60 velocity=100 time=0
EXTRACT: note_on channel=0 note=63 velocity=100 time=0
EXTRACT: note_on channel=9 note=35 velocity=100 time=0
EXTRACT: note_on channel=9 note=35 velocity=0 time=0.2608695
EXTRACT: note_on channel=0 note=60 velocity=0 time=0
EXTRACT: note_on channel=9 note=56 velocity=0 time=0
EXTRACT: note_on channel=5 note=75 velocity=0 time=0
EXTRACT: note_on channel=1 note=72 velocity=0 time=0
EXTRACT: note_on channel=0 note=63 velocity=0 time=0
EXTRACT: note_on channel=0 note=57 velocity=0 time=0
EXTRACT: note_on channel=2 note=77 velocity=100 time=0
EXTRACT: note_on channel=3 note=77 velocity=100 time=0
EXTRACT: note_on channel=5 note=72 velocity=100 time=0
EXTRACT: note_on channel=5 note=60 velocity=100 time=0
EXTRACT: note_on channel=5 note=75 velocity=100 time=0
EXTRACT: note_on channel=9 note=40 velocity=100 time=0
EXTRACT: note_on channel=9 note=56 velocity=100 time=0
EXTRACT: note_on channel=9 note=45 velocity=100 time=0
EXTRACT: note_on channel=9 note=45 velocity=0 time=0.2608695
EXTRACT: note_on channel=2 note=77 velocity=0 time=0
EXTRACT: note_on channel=9 note=40 velocity=0 time=0
EXTRACT: note_on channel=3 note=77 velocity=0 time=0
EXTRACT: note_on channel=5 note=72 velocity=0 time=0
EXTRACT: note_on channel=5 note=60 velocity=0 time=0
EXTRACT: note_on channel=5 note=75 velocity=0 time=0
EXTRACT: note_on channel=0 note=53 velocity=100 time=0
EXTRACT: note_on channel=2 note=75 velocity=100 time=0
EXTRACT: note_on channel=3 note=75 velocity=100 time=0
EXTRACT: note_on channel=5 note=61 velocity=100 time=0
EXTRACT: note_on channel=5 note=73 velocity=100 time=0
EXTRACT: note_on channel=5 note=77 velocity=100 time=0
EXTRACT: note_on channel=9 note=35 velocity=100 time=0
EXTRACT: note_on channel=9 note=35 velocity=0 time=0.2608695
EXTRACT: note_on channel=9 note=56 velocity=0 time=0
EXTRACT: note_on channel=5 note=61 velocity=0 time=0
EXTRACT: note_on channel=0 note=53 velocity=0 time=0
EXTRACT: note_on channel=2 note=75 velocity=0 time=0
EXTRACT: note_on channel=3 note=75 velocity=0 time=0
EXTRACT: note_on channel=5 note=73 velocity=0 time=0
EXTRACT: note_on channel=5 note=77 velocity=0 time=0
EXTRACT: note_on channel=0 note=61 velocity=100 time=0
EXTRACT: note_on channel=0 note=58 velocity=100 time=0
EXTRACT: note_on channel=1 note=70 velocity=100 time=0
EXTRACT: note_on channel=5 note=60 velocity=100 time=0
EXTRACT: note_on channel=5 note=72 velocity=100 time=0
EXTRACT: note_on channel=5 note=75 velocity=100 time=0
EXTRACT: note_on channel=9 note=56 velocity=100 time=0
EXTRACT: note_on channel=9 note=35 velocity=100 time=0
EXTRACT: note_on channel=9 note=35 velocity=0 time=0.2608695
EXTRACT: note_on channel=0 note=61 velocity=0 time=0
EXTRACT: note_on channel=5 note=72 velocity=0 time=0
EXTRACT: note_on channel=5 note=60 velocity=0 time=0
EXTRACT: note_on channel=0 note=58 velocity=0 time=0
EXTRACT: note_on channel=0 note=58 velocity=100 time=0
EXTRACT: note_on channel=0 note=61 velocity=100 time=0
EXTRACT: note_on channel=2 note=77 velocity=100 time=0
EXTRACT: note_on channel=3 note=77 velocity=100 time=0
EXTRACT: note_on channel=0 note=61 velocity=0 time=0.2608695
EXTRACT: note_on channel=0 note=58 velocity=0 time=0
EXTRACT: note_on channel=1 note=70 velocity=0 time=0
EXTRACT: note_on channel=5 note=75 velocity=0 time=0
EXTRACT: note_on channel=9 note=56 velocity=0 time=0
EXTRACT: note_on channel=0 note=58 velocity=100 time=0
EXTRACT: note_on channel=0 note=61 velocity=100 time=0
EXTRACT: note_on channel=4 note=82 velocity=100 time=0
EXTRACT: note_on channel=5 note=58 velocity=100 time=0
EXTRACT: note_on channel=5 note=70 velocity=100 time=0
EXTRACT: note_on channel=5 note=73 velocity=100 time=0
EXTRACT: note_on channel=9 note=56 velocity=100 time=0
EXTRACT: note_on channel=9 note=40 velocity=100 time=0
EXTRACT: note_on channel=9 note=45 velocity=100 time=0
EXTRACT: note_on channel=9 note=45 velocity=0 time=0.2608695
EXTRACT: note_on channel=0 note=58 velocity=0 time=0
EXTRACT: note_on channel=9 note=40 velocity=0 time=0
EXTRACT: note_on channel=5 note=70 velocity=0 time=0
EXTRACT: note_on channel=5 note=58 velocity=0 time=0
EXTRACT: note_on channel=0 note=61 velocity=0 time=0
EXTRACT: note_on channel=5 note=73 velocity=0 time=0.2608695
EXTRACT: note_on channel=4 note=82 velocity=0 time=0
EXTRACT: note_on channel=9 note=56 velocity=0 time=0
EXTRACT: note_on channel=1 note=73 velocity=100 time=0
EXTRACT: note_on channel=4 note=80 velocity=100 time=0
EXTRACT: note_on channel=5 note=61 velocity=100 time=0
EXTRACT: note_on channel=5 note=70 velocity=100 time=0
EXTRACT: note_on channel=5 note=73 velocity=100 time=0
EXTRACT: note_on channel=9 note=56 velocity=100 time=0
EXTRACT: note_on channel=5 note=70 velocity=0 time=0.2608695
EXTRACT: note_on channel=2 note=77 velocity=0 time=0
EXTRACT: note_on channel=3 note=77 velocity=0 time=0
EXTRACT: note_on channel=5 note=61 velocity=0 time=0
EXTRACT: note_on channel=0 note=58 velocity=100 time=0
EXTRACT: note_on channel=0 note=61 velocity=100 time=0
EXTRACT: note_on channel=9 note=35 velocity=100 time=0
EXTRACT: note_on channel=4 note=80 velocity=0 time=0.13043475
EXTRACT: note_on channel=0 note=61 velocity=0 time=0.13043475
EXTRACT: note_on channel=1 note=73 velocity=0 time=0
EXTRACT: note_on channel=9 note=56 velocity=0 time=0
EXTRACT: note_on channel=5 note=73 velocity=0 time=0
EXTRACT: note_on channel=9 note=35 velocity=0 time=0
EXTRACT: note_on channel=0 note=58 velocity=0 time=0
EXTRACT: note_on channel=0 note=58 velocity=100 time=0
EXTRACT: note_on channel=0 note=61 velocity=100 time=0
EXTRACT: note_on channel=2 note=78 velocity=100 time=0
EXTRACT: note_on channel=3 note=78 velocity=100 time=0
EXTRACT: note_on channel=4 note=78 velocity=100 time=0
EXTRACT: note_on channel=5 note=73 velocity=100 time=0
EXTRACT: note_on channel=5 note=70 velocity=100 time=0
EXTRACT: note_on channel=9 note=35 velocity=100 time=0
EXTRACT: note_on channel=9 note=45 velocity=100 time=0
EXTRACT: note_on channel=9 note=40 velocity=100 time=0
EXTRACT: note_on channel=9 note=56 velocity=100 time=0
EXTRACT: note_on channel=9 note=40 velocity=0 time=0.2608695
EXTRACT: note_on channel=9 note=45 velocity=0 time=0
EXTRACT: note_on channel=5 note=70 velocity=0 time=0
EXTRACT: note_on channel=0 note=58 velocity=0 time=0
EXTRACT: note_on channel=2 note=78 velocity=0 time=0
EXTRACT: note_on channel=3 note=78 velocity=0 time=0
EXTRACT: note_on channel=0 note=61 velocity=0 time=0
EXTRACT: note_on channel=9 note=35 velocity=0 time=0
EXTRACT: note_on channel=5 note=73 velocity=0 time=0
EXTRACT: note_on channel=0 note=53 velocity=100 time=0
EXTRACT: note_on channel=2 note=77 velocity=100 time=0
EXTRACT: note_on channel=3 note=77 velocity=100 time=0
EXTRACT: note_on channel=5 note=75 velocity=100 time=0
EXTRACT: note_on channel=5 note=63 velocity=100 time=0
EXTRACT: note_on channel=5 note=72 velocity=100 time=0
EXTRACT: note_on channel=4 note=78 velocity=0 time=0.13043475
EXTRACT: note_on channel=9 note=56 velocity=0 time=0.13043475
EXTRACT: note_on channel=5 note=75 velocity=0 time=0
EXTRACT: note_on channel=0 note=53 velocity=0 time=0
EXTRACT: note_on channel=2 note=77 velocity=0 time=0
EXTRACT: note_on channel=3 note=77 velocity=0 time=0
EXTRACT: note_on channel=5 note=63 velocity=0 time=0
EXTRACT: note_on channel=5 note=72 velocity=0 time=0
EXTRACT: note_on channel=0 note=46 velocity=100 time=0
EXTRACT: note_on channel=1 note=70 velocity=100 time=0
EXTRACT: note_on channel=2 note=77 velocity=100 time=0
EXTRACT: note_on channel=3 note=77 velocity=100 time=0
EXTRACT: note_on channel=4 note=77 velocity=100 time=0
EXTRACT: note_on channel=5 note=73 velocity=100 time=0
EXTRACT: note_on channel=5 note=61 velocity=100 time=0
EXTRACT: note_on channel=5 note=70 velocity=100 time=0
EXTRACT: note_on channel=9 note=35 velocity=100 time=0
EXTRACT: note_on channel=9 note=56 velocity=100 time=0
EXTRACT: note_on channel=3 note=77 velocity=0 time=0.13043475
EXTRACT: note_on channel=2 note=77 velocity=0 time=0
EXTRACT: note_on channel=9 note=35 velocity=0 time=0.13043475
EXTRACT: note_on channel=5 note=70 velocity=0 time=0
EXTRACT: note_on channel=5 note=73 velocity=0 time=0
EXTRACT: note_on channel=0 note=46 velocity=0 time=0
EXTRACT: note_on channel=5 note=61 velocity=0 time=0
EXTRACT: note_on channel=0 note=49 velocity=100 time=0
EXTRACT: note_on channel=2 note=77 velocity=100 time=0
EXTRACT: note_on channel=3 note=77 velocity=100 time=0
EXTRACT: note_on channel=5 note=73 velocity=100 time=0
EXTRACT: note_on channel=5 note=61 velocity=100 time=0
EXTRACT: note_on channel=5 note=70 velocity=100 time=0
EXTRACT: note_on channel=0 note=49 velocity=0 time=0.2608695
EXTRACT: note_on channel=4 note=77 velocity=0 time=0
EXTRACT: note_on channel=1 note=70 velocity=0 time=0
EXTRACT: note_on channel=9 note=56 velocity=0 time=0
EXTRACT: note_on channel=0 note=58 velocity=100 time=0
EXTRACT: note_on channel=0 note=61 velocity=100 time=0
EXTRACT: note_on channel=0 note=53 velocity=100 time=0
EXTRACT: note_on channel=9 note=56 velocity=100 time=0
EXTRACT: note_on channel=9 note=40 velocity=100 time=0
EXTRACT: note_on channel=9 note=45 velocity=100 time=0
EXTRACT: note_on channel=9 note=45 velocity=0 time=0.2608695
EXTRACT: note_on channel=0 note=61 velocity=0 time=0
EXTRACT: note_on channel=9 note=40 velocity=0 time=0
EXTRACT: note_on channel=0 note=53 velocity=0 time=0
EXTRACT: note_on channel=0 note=58 velocity=0 time=0
EXTRACT: note_on channel=5 note=61 velocity=0 time=0.2608695
EXTRACT: note_on channel=5 note=70 velocity=0 time=0
EXTRACT: note_on channel=9 note=56 velocity=0 time=0
EXTRACT: note_on channel=5 note=73 velocity=0 time=0
EXTRACT: note_on channel=1 note=73 velocity=100 time=0
EXTRACT: note_on channel=9 note=56 velocity=100 time=0
EXTRACT: note_on channel=3 note=77 velocity=0 time=0.2608695
EXTRACT: note_on channel=2 note=77 velocity=0 time=0
EXTRACT: note_on channel=0 note=58 velocity=100 time=0
EXTRACT: note_on channel=0 note=61 velocity=100 time=0
EXTRACT: note_on channel=9 note=35 velocity=100 time=0
EXTRACT: note_on channel=9 note=35 velocity=0 time=0.2608695
EXTRACT: note_on channel=0 note=58 velocity=0 time=0
EXTRACT: note_on channel=9 note=56 velocity=0 time=0
EXTRACT: note_on channel=1 note=73 velocity=0 time=0
EXTRACT: note_on channel=0 note=61 velocity=0 time=0
EXTRACT: note_on channel=2 note=77 velocity=100 time=0
EXTRACT: note_on channel=3 note=77 velocity=100 time=0
EXTRACT: note_on channel=5 note=73 velocity=100 time=0
EXTRACT: note_on channel=5 note=70 velocity=100 time=0
EXTRACT: note_on channel=5 note=61 velocity=100 time=0
EXTRACT: note_on channel=9 note=45 velocity=100 time=0
EXTRACT: note_on channel=9 note=56 velocity=100 time=0
EXTRACT: note_on channel=9 note=40 velocity=100 time=0
EXTRACT: note_on channel=9 note=40 velocity=0 time=0.2608695
EXTRACT: note_on channel=2 note=77 velocity=0 time=0
EXTRACT: note_on channel=9 note=45 velocity=0 time=0
EXTRACT: note_on channel=3 note=77 velocity=0 time=0
EXTRACT: note_on channel=5 note=73 velocity=0 time=0
EXTRACT: note_on channel=5 note=70 velocity=0 time=0
EXTRACT: note_on channel=5 note=61 velocity=0 time=0
EXTRACT: note_on channel=0 note=53 velocity=100 time=0
EXTRACT: note_on channel=2 note=75 velocity=100 time=0
EXTRACT: note_on channel=3 note=75 velocity=100 time=0
EXTRACT: note_on channel=5 note=75 velocity=100 time=0
EXTRACT: note_on channel=5 note=72 velocity=100 time=0
EXTRACT: note_on channel=5 note=63 velocity=100 time=0
EXTRACT: note_on channel=9 note=35 velocity=100 time=0
EXTRACT: note_on channel=9 note=35 velocity=0 time=0.2608695
EXTRACT: note_on channel=9 note=56 velocity=0 time=0
EXTRACT: note_on channel=5 note=75 velocity=0 time=0
EXTRACT: note_on channel=0 note=53 velocity=0 time=0
EXTRACT: note_on channel=2 note=75 velocity=0 time=0
EXTRACT: note_on channel=3 note=75 velocity=0 time=0
EXTRACT: note_on channel=5 note=72 velocity=0 time=0
EXTRACT: note_on channel=5 note=63 velocity=0 time=0
EXTRACT: note_on channel=0 note=48 velocity=100 time=0
EXTRACT: note_on channel=1 note=72 velocity=100 time=0
EXTRACT: note_on channel=5 note=72 velocity=100 time=0
EXTRACT: note_on channel=5 note=60 velocity=100 time=0
EXTRACT: note_on channel=5 note=69 velocity=100 time=0
EXTRACT: note_on channel=9 note=56 velocity=100 time=0
EXTRACT: note_on channel=5 note=69 velocity=0 time=0.2608695
EXTRACT: note_on channel=5 note=60 velocity=0 time=0
EXTRACT: note_on channel=5 note=72 velocity=0 time=0
EXTRACT: note_on channel=0 note=48 velocity=0 time=0
EXTRACT: note_on channel=0 note=53 velocity=100 time=0
EXTRACT: note_on channel=2 note=77 velocity=100 time=0
EXTRACT: note_on channel=3 note=77 velocity=100 time=0
EXTRACT: note_on channel=5 note=72 velocity=100 time=0
EXTRACT: note_on channel=5 note=60 velocity=100 time=0
EXTRACT: note_on channel=5 note=69 velocity=100 time=0
EXTRACT: note_on channel=0 note=53 velocity=0 time=0.2608695
EXTRACT: note_on channel=9 note=56 velocity=0 time=0
EXTRACT: note_on channel=1 note=72 velocity=0 time=0
EXTRACT: note_on channel=0 note=60 velocity=100 time=0
EXTRACT: note_on channel=0 note=57 velocity=100 time=0
EXTRACT: note_on channel=9 note=40 velocity=100 time=0
EXTRACT: note_on channel=9 note=45 velocity=100 time=0
EXTRACT: note_on channel=9 note=56 velocity=100 time=0
EXTRACT: note_on channel=9 note=45 velocity=0 time=0.2608695
EXTRACT: note_on channel=9 note=40 velocity=0 time=0
EXTRACT: note_on channel=0 note=57 velocity=0 time=0
EXTRACT: note_on channel=0 note=60 velocity=0 time=0
EXTRACT: note_on channel=0 note=57 velocity=100 time=0
EXTRACT: note_on channel=0 note=66 velocity=100 time=0
EXTRACT: note_on channel=0 note=66 velocity=0 time=0.2608695
EXTRACT: note_on channel=0 note=57 velocity=0 time=0
EXTRACT: note_on channel=5 note=60 velocity=0 time=0
EXTRACT: note_on channel=5 note=69 velocity=0 time=0
EXTRACT: note_on channel=9 note=56 velocity=0 time=0
EXTRACT: note_on channel=5 note=72 velocity=0 time=0
EXTRACT: note_on channel=0 note=57 velocity=100 time=0
EXTRACT: note_on channel=0 note=65 velocity=100 time=0
EXTRACT: note_on channel=1 note=75 velocity=100 time=0
EXTRACT: note_on channel=9 note=56 velocity=100 time=0
EXTRACT: note_on channel=0 note=65 velocity=0 time=0.2608695
EXTRACT: note_on channel=0 note=57 velocity=0 time=0
EXTRACT: note_on channel=2 note=77 velocity=0 time=0
EXTRACT: note_on channel=3 note=77 velocity=0 time=0
EXTRACT: note_on channel=9 note=35 velocity=100 time=0
EXTRACT: note_on channel=9 note=35 velocity=0 time=0.2608695
EXTRACT: note_on channel=9 note=56 velocity=0 time=0
EXTRACT: note_on channel=1 note=75 velocity=0 time=0
EXTRACT: note_on channel=2 note=78 velocity=100 time=0
EXTRACT: note_on channel=3 note=78 velocity=100 time=0
EXTRACT: note_on channel=9 note=58 velocity=100 time=0
EXTRACT: note_on channel=9 note=40 velocity=100 time=0
EXTRACT: note_on channel=9 note=56 velocity=100 time=0
EXTRACT: note_on channel=9 note=45 velocity=100 time=0
EXTRACT: note_on channel=9 note=45 velocity=0 time=0.2608695
EXTRACT: note_on channel=3 note=78 velocity=0 time=0
EXTRACT: note_on channel=2 note=78 velocity=0 time=0
EXTRACT: note_on channel=9 note=40 velocity=0 time=0
EXTRACT: note_on channel=0 note=65 velocity=100 time=0
EXTRACT: note_on channel=2 note=77 velocity=100 time=0
EXTRACT: note_on channel=3 note=77 velocity=100 time=0
EXTRACT: note_on channel=5 note=75 velocity=100 time=0
EXTRACT: note_on channel=5 note=63 velocity=100 time=0
EXTRACT: note_on channel=5 note=72 velocity=100 time=0
EXTRACT: note_on channel=3 note=77 velocity=0 time=0.2608695
EXTRACT: note_on channel=2 note=77 velocity=0 time=0
EXTRACT: note_on channel=9 note=56 velocity=0 time=0
EXTRACT: note_on channel=0 note=65 velocity=0 time=0
EXTRACT: note_on channel=9 note=58 velocity=0 time=0
EXTRACT: note_on channel=0 note=48 velocity=100 time=0
EXTRACT: note_on channel=0 note=57 velocity=100 time=0
EXTRACT: note_on channel=1 note=69 velocity=100 time=0
EXTRACT: note_on channel=2 note=77 velocity=100 time=0
EXTRACT: note_on channel=3 note=77 velocity=100 time=0
EXTRACT: note_on channel=9 note=56 velocity=100 time=0
EXTRACT: note_on channel=9 note=35 velocity=100 time=0
EXTRACT: note_on channel=3 note=77 velocity=0 time=0.13043475
EXTRACT: note_on channel=2 note=77 velocity=0 time=0
EXTRACT: note_on channel=5 note=72 velocity=0 time=0.13043475
EXTRACT: note_on channel=0 note=48 velocity=0 time=0
EXTRACT: note_on channel=5 note=63 velocity=0 time=0
EXTRACT: note_on channel=5 note=75 velocity=0 time=0
EXTRACT: note_on channel=9 note=35 velocity=0 time=0
EXTRACT: note_on channel=0 note=57 velocity=0 time=0
EXTRACT: note_on channel=0 note=60 velocity=100 time=0
EXTRACT: note_on channel=0 note=63 velocity=100 time=0
EXTRACT: note_on channel=0 note=53 velocity=100 time=0
EXTRACT: note_on channel=2 note=77 velocity=100 time=0
EXTRACT: note_on channel=3 note=77 velocity=100 time=0
EXTRACT: note_on channel=5 note=75 velocity=100 time=0
EXTRACT: note_on channel=5 note=72 velocity=100 time=0
EXTRACT: note_on channel=5 note=63 velocity=100 time=0
EXTRACT: note_on channel=5 note=63 velocity=0 time=0.2608695
EXTRACT: note_on channel=0 note=60 velocity=0 time=0
EXTRACT: note_on channel=0 note=63 velocity=0 time=0
EXTRACT: note_on channel=1 note=69 velocity=0 time=0
EXTRACT: note_on channel=5 note=72 velocity=0 time=0
EXTRACT: note_on channel=0 note=53 velocity=0 time=0
EXTRACT: note_on channel=5 note=75 velocity=0 time=0
EXTRACT: note_on channel=9 note=56 velocity=0 time=0
EXTRACT: note_on channel=0 note=60 velocity=100 time=0
EXTRACT: note_on channel=0 note=63 velocity=100 time=0
EXTRACT: note_on channel=0 note=57 velocity=100 time=0
EXTRACT: note_on channel=5 note=75 velocity=100 time=0
EXTRACT: note_on channel=5 note=72 velocity=100 time=0
EXTRACT: note_on channel=5 note=63 velocity=100 time=0
EXTRACT: note_on channel=9 note=40 velocity=100 time=0
EXTRACT: note_on channel=9 note=45 velocity=100 time=0
EXTRACT: note_on channel=9 note=56 velocity=100 time=0
EXTRACT: note_on channel=9 note=45 velocity=0 time=0.2608695
EXTRACT: note_on channel=9 note=40 velocity=0 time=0
EXTRACT: note_on channel=0 note=60 velocity=0 time=0
EXTRACT: note_on channel=5 note=72 velocity=0 time=0
EXTRACT: note_on channel=0 note=63 velocity=0 time=0
EXTRACT: note_on channel=0 note=57 velocity=0 time=0
EXTRACT: note_on channel=5 note=63 velocity=0 time=0
EXTRACT: note_on channel=5 note=75 velocity=0 time=0
EXTRACT: note_on channel=5 note=75 velocity=100 time=0
EXTRACT: note_on channel=5 note=63 velocity=100 time=0
EXTRACT: note_on channel=5 note=72 velocity=100 time=0
EXTRACT: note_on channel=5 note=72 velocity=0 time=0.2608695
EXTRACT: note_on channel=5 note=75 velocity=0 time=0
EXTRACT: note_on channel=9 note=56 velocity=0 time=0
EXTRACT: note_on channel=5 note=63 velocity=0 time=0
EXTRACT: note_on channel=1 note=72 velocity=100 time=0
EXTRACT: note_on channel=5 note=75 velocity=100 time=0
EXTRACT: note_on channel=5 note=63 velocity=100 time=0
EXTRACT: note_on channel=5 note=72 velocity=100 time=0
EXTRACT: note_on channel=9 note=56 velocity=100 time=0
EXTRACT: note_on channel=5 note=72 velocity=0 time=0.2608695
EXTRACT: note_on channel=3 note=77 velocity=0 time=0
EXTRACT: note_on channel=2 note=77 velocity=0 time=0
EXTRACT: note_on channel=5 note=63 velocity=0 time=0
EXTRACT: note_on channel=0 note=57 velocity=100 time=0
EXTRACT: note_on channel=0 note=60 velocity=100 time=0
EXTRACT: note_on channel=0 note=63 velocity=100 time=0
EXTRACT: note_on channel=9 note=35 velocity=100 time=0
EXTRACT: note_on channel=9 note=35 velocity=0 time=0.2608695
EXTRACT: note_on channel=0 note=60 velocity=0 time=0
EXTRACT: note_on channel=9 note=56 velocity=0 time=0
EXTRACT: note_on channel=5 note=75 velocity=0 time=0
EXTRACT: note_on channel=1 note=72 velocity=0 time=0
EXTRACT: note_on channel=0 note=63 velocity=0 time=0
EXTRACT: note_on channel=0 note=57 velocity=0 time=0
EXTRACT: note_on channel=2 note=77 velocity=100 time=0
EXTRACT: note_on channel=3 note=77 velocity=100 time=0
EXTRACT: note_on channel=5 note=75 velocity=100 time=0
EXTRACT: note_on channel=5 note=63 velocity=100 time=0
EXTRACT: note_on channel=5 note=72 velocity=100 time=0
EXTRACT: note_on channel=9 note=40 velocity=100 time=0
EXTRACT: note_on channel=9 note=45 velocity=100 time=0
EXTRACT: note_on channel=9 note=56 velocity=100 time=0
EXTRACT: note_on channel=9 note=45 velocity=0 time=0.2608695
EXTRACT: note_on channel=5 note=63 velocity=0 time=0
EXTRACT: note_on channel=5 note=72 velocity=0 time=0
EXTRACT: note_on channel=3 note=77 velocity=0 time=0
EXTRACT: note_on channel=5 note=75 velocity=0 time=0
EXTRACT: note_on channel=2 note=77 velocity=0 time=0
EXTRACT: note_on channel=9 note=40 velocity=0 time=0
EXTRACT: note_on channel=0 note=53 velocity=100 time=0
EXTRACT: note_on channel=2 note=75 velocity=100 time=0
EXTRACT: note_on channel=3 note=75 velocity=100 time=0
EXTRACT: note_on channel=5 note=77 velocity=100 time=0
EXTRACT: note_on channel=5 note=73 velocity=100 time=0
EXTRACT: note_on channel=5 note=65 velocity=100 time=0
EXTRACT: note_on channel=9 note=35 velocity=100 time=0
EXTRACT: note_on channel=9 note=35 velocity=0 time=0.2608695
EXTRACT: note_on channel=9 note=56 velocity=0 time=0
EXTRACT: note_on channel=5 note=77 velocity=0 time=0
EXTRACT: note_on channel=0 note=53 velocity=0 time=0
EXTRACT: note_on channel=2 note=75 velocity=0 time=0
EXTRACT: note_on channel=3 note=75 velocity=0 time=0
EXTRACT: note_on channel=5 note=73 velocity=0 time=0
EXTRACT: note_on channel=5 note=65 velocity=0 time=0
EXTRACT: note_on channel=0 note=61 velocity=100 time=0
EXTRACT: note_on channel=0 note=58 velocity=100 time=0
EXTRACT: note_on channel=1 note=70 velocity=100 time=0
EXTRACT: note_on channel=5 note=75 velocity=100 time=0
EXTRACT: note_on channel=5 note=72 velocity=100 time=0
EXTRACT: note_on channel=5 note=63 velocity=100 time=0
EXTRACT: note_on channel=9 note=56 velocity=100 time=0
EXTRACT: note_on channel=9 note=35 velocity=100 time=0
EXTRACT: note_on channel=9 note=35 velocity=0 time=0.2608695
EXTRACT: note_on channel=5 note=63 velocity=0 time=0
EXTRACT: note_on channel=0 note=58 velocity=0 time=0
EXTRACT: note_on channel=0 note=61 velocity=0 time=0
EXTRACT: note_on channel=5 note=72 velocity=0 time=0
EXTRACT: note_on channel=0 note=58 velocity=100 time=0
EXTRACT: note_on channel=0 note=61 velocity=100 time=0
EXTRACT: note_on channel=2 note=77 velocity=100 time=0
EXTRACT: note_on channel=3 note=77 velocity=100 time=0
EXTRACT: note_on channel=0 note=61 velocity=0 time=0.2608695
EXTRACT: note_on channel=0 note=58 velocity=0 time=0
EXTRACT: note_on channel=1 note=70 velocity=0 time=0
EXTRACT: note_on channel=5 note=75 velocity=0 time=0
EXTRACT: note_on channel=9 note=56 velocity=0 time=0
EXTRACT: note_on channel=0 note=58 velocity=100 time=0
EXTRACT: note_on channel=0 note=61 velocity=100 time=0
EXTRACT: note_on channel=5 note=73 velocity=100 time=0
EXTRACT: note_on channel=5 note=61 velocity=100 time=0
EXTRACT: note_on channel=5 note=73 velocity=100 time=0
EXTRACT: note_on channel=9 note=45 velocity=100 time=0
EXTRACT: note_on channel=9 note=40 velocity=100 time=0
EXTRACT: note_on channel=9 note=56 velocity=100 time=0
EXTRACT: note_on channel=9 note=40 velocity=0 time=0.2608695
EXTRACT: note_on channel=9 note=45 velocity=0 time=0
EXTRACT: note_on channel=5 note=73 velocity=0 time=0
EXTRACT: note_on channel=0 note=58 velocity=0 time=0
EXTRACT: note_on channel=0 note=61 velocity=0 time=0
EXTRACT: note_on channel=5 note=61 velocity=0 time=0
EXTRACT: note_on channel=9 note=56 velocity=0 time=0.2608695
EXTRACT: note_on channel=5 note=73 velocity=0 time=0
EXTRACT: note_on channel=1 note=73 velocity=100 time=0
EXTRACT: note_on channel=5 note=77 velocity=100 time=0
EXTRACT: note_on channel=5 note=61 velocity=100 time=0
EXTRACT: note_on channel=5 note=73 velocity=100 time=0
EXTRACT: note_on channel=9 note=56 velocity=100 time=0
EXTRACT: note_on channel=5 note=73 velocity=0 time=0.2608695
EXTRACT: note_on channel=3 note=77 velocity=0 time=0
EXTRACT: note_on channel=2 note=77 velocity=0 time=0
EXTRACT: note_on channel=5 note=61 velocity=0 time=0
EXTRACT: note_on channel=0 note=58 velocity=100 time=0
EXTRACT: note_on channel=0 note=61 velocity=100 time=0
EXTRACT: note_on channel=9 note=35 velocity=100 time=0
EXTRACT: note_on channel=9 note=35 velocity=0 time=0.2608695
EXTRACT: note_on channel=9 note=56 velocity=0 time=0
EXTRACT: note_on channel=5 note=77 velocity=0 time=0
EXTRACT: note_on channel=1 note=73 velocity=0 time=0
EXTRACT: note_on channel=0 note=61 velocity=0 time=0
EXTRACT: note_on channel=0 note=58 velocity=0 time=0
EXTRACT: note_on channel=0 note=58 velocity=100 time=0
EXTRACT: note_on channel=0 note=61 velocity=100 time=0
EXTRACT: note_on channel=2 note=78 velocity=100 time=0
EXTRACT: note_on channel=3 note=78 velocity=100 time=0
EXTRACT: note_on channel=5 note=73 velocity=100 time=0
EXTRACT: note_on channel=5 note=70 velocity=100 time=0
EXTRACT: note_on channel=9 note=45 velocity=100 time=0
EXTRACT: note_on channel=9 note=56 velocity=100 time=0
EXTRACT: note_on channel=9 note=40 velocity=100 time=0
EXTRACT: note_on channel=9 note=35 velocity=100 time=0
EXTRACT: note_on channel=9 note=35 velocity=0 time=0.2608695
EXTRACT: note_on channel=2 note=78 velocity=0 time=0
EXTRACT: note_on channel=0 note=58 velocity=0 time=0
EXTRACT: note_on channel=9 note=40 velocity=0 time=0
EXTRACT: note_on channel=5 note=73 velocity=0 time=0
EXTRACT: note_on channel=0 note=61 velocity=0 time=0
EXTRACT: note_on channel=9 note=45 velocity=0 time=0
EXTRACT: note_on channel=3 note=78 velocity=0 time=0
EXTRACT: note_on channel=5 note=70 velocity=0 time=0
EXTRACT: note_on channel=0 note=53 velocity=100 time=0
EXTRACT: note_on channel=2 note=77 velocity=100 time=0
EXTRACT: note_on channel=3 note=77 velocity=100 time=0
EXTRACT: note_on channel=5 note=63 velocity=100 time=0
EXTRACT: note_on channel=5 note=75 velocity=100 time=0
EXTRACT: note_on channel=5 note=72 velocity=100 time=0
EXTRACT: note_on channel=5 note=72 velocity=0 time=0.2608695
EXTRACT: note_on channel=5 note=63 velocity=0 time=0
EXTRACT: note_on channel=0 note=53 velocity=0 time=0
EXTRACT: note_on channel=2 note=77 velocity=0 time=0
EXTRACT: note_on channel=9 note=56 velocity=0 time=0
EXTRACT: note_on channel=5 note=75 velocity=0 time=0
EXTRACT: note_on channel=3 note=77 velocity=0 time=0
EXTRACT: note_on channel=0 note=46 velocity=100 time=0
EXTRACT: note_on channel=1 note=70 velocity=100 time=0
EXTRACT: note_on channel=5 note=61 velocity=100 time=0
EXTRACT: note_on channel=5 note=73 velocity=100 time=0
EXTRACT: note_on channel=5 note=70 velocity=100 time=0
EXTRACT: note_on channel=9 note=56 velocity=100 time=0
EXTRACT: note_on channel=9 note=35 velocity=100 time=0
EXTRACT: note_on channel=2 note=77 velocity=100 time=0.004347825
EXTRACT: note_on channel=3 note=77 velocity=100 time=0
EXTRACT: note_on channel=3 note=77 velocity=0 time=0.13043475
EXTRACT: note_on channel=2 note=77 velocity=0 time=0
EXTRACT: note_on channel=5 note=73 velocity=0 time=0.126086925
EXTRACT: note_on channel=0 note=46 velocity=0 time=0
EXTRACT: note_on channel=9 note=35 velocity=0 time=0
EXTRACT: note_on channel=5 note=61 velocity=0 time=0
EXTRACT: note_on channel=5 note=70 velocity=0 time=0
EXTRACT: note_on channel=0 note=49 velocity=100 time=0
EXTRACT: note_on channel=5 note=61 velocity=100 time=0
EXTRACT: note_on channel=5 note=73 velocity=100 time=0
EXTRACT: note_on channel=5 note=70 velocity=100 time=0
EXTRACT: note_on channel=2 note=77 velocity=100 time=0.004347825
EXTRACT: note_on channel=3 note=77 velocity=100 time=0
EXTRACT: note_on channel=0 note=49 velocity=0 time=0.256521675
EXTRACT: note_on channel=9 note=56 velocity=0 time=0
EXTRACT: note_on channel=1 note=70 velocity=0 time=0
EXTRACT: note_on channel=0 note=58 velocity=100 time=0
EXTRACT: note_on channel=0 note=61 velocity=100 time=0
EXTRACT: note_on channel=0 note=53 velocity=100 time=0
EXTRACT: note_on channel=9 note=45 velocity=100 time=0
EXTRACT: note_on channel=9 note=40 velocity=100 time=0
EXTRACT: note_on channel=9 note=56 velocity=100 time=0
EXTRACT: note_on channel=9 note=40 velocity=0 time=0.2608695
EXTRACT: note_on channel=9 note=45 velocity=0 time=0
EXTRACT: note_on channel=0 note=61 velocity=0 time=0
EXTRACT: note_on channel=0 note=53 velocity=0 time=0
EXTRACT: note_on channel=0 note=58 velocity=0 time=0
EXTRACT: note_on channel=5 note=61 velocity=0 time=0.2608695
EXTRACT: note_on channel=5 note=73 velocity=0 time=0
EXTRACT: note_on channel=9 note=56 velocity=0 time=0
EXTRACT: note_on channel=5 note=70 velocity=0 time=0
EXTRACT: note_on channel=1 note=73 velocity=100 time=0
EXTRACT: note_on channel=9 note=56 velocity=100 time=0
EXTRACT: note_on channel=0 note=58 velocity=100 time=0.2608695
EXTRACT: note_on channel=0 note=61 velocity=100 time=0
EXTRACT: note_on channel=9 note=35 velocity=100 time=0
EXTRACT: note_on channel=3 note=77 velocity=0 time=0.004347825
EXTRACT: note_on channel=2 note=77 velocity=0 time=0
EXTRACT: note_on channel=1 note=73 velocity=0 time=0.256521675
EXTRACT: note_on channel=0 note=58 velocity=0 time=0
EXTRACT: note_on channel=9 note=56 velocity=0 time=0
EXTRACT: note_on channel=9 note=35 velocity=0 time=0
EXTRACT: note_on channel=0 note=61 velocity=0 time=0
EXTRACT: note_on channel=5 note=61 velocity=100 time=0
EXTRACT: note_on channel=5 note=70 velocity=100 time=0
EXTRACT: note_on channel=5 note=73 velocity=100 time=0
EXTRACT: note_on channel=9 note=56 velocity=100 time=0
EXTRACT: note_on channel=9 note=40 velocity=100 time=0
EXTRACT: note_on channel=9 note=45 velocity=100 time=0
EXTRACT: note_on channel=2 note=77 velocity=100 time=0.004347825
EXTRACT: note_on channel=3 note=77 velocity=100 time=0
EXTRACT: note_on channel=9 note=45 velocity=0 time=0.256521675
EXTRACT: note_on channel=5 note=73 velocity=0 time=0
EXTRACT: note_on channel=5 note=61 velocity=0 time=0
EXTRACT: note_on channel=5 note=70 velocity=0 time=0
EXTRACT: note_on channel=9 note=40 velocity=0 time=0
EXTRACT: note_on channel=0 note=53 velocity=100 time=0
EXTRACT: note_on channel=5 note=63 velocity=100 time=0
EXTRACT: note_on channel=5 note=72 velocity=100 time=0
EXTRACT: note_on channel=5 note=75 velocity=100 time=0
EXTRACT: note_on channel=9 note=35 velocity=100 time=0
EXTRACT: note_on channel=3 note=77 velocity=0 time=0.004347825
EXTRACT: note_on channel=2 note=77 velocity=0 time=0
EXTRACT: note_on channel=2 note=75 velocity=100 time=0
EXTRACT: note_on channel=3 note=75 velocity=100 time=0
EXTRACT: note_on channel=5 note=72 velocity=0 time=0.256521675
EXTRACT: note_on channel=0 note=53 velocity=0 time=0
EXTRACT: note_on channel=9 note=35 velocity=0 time=0
EXTRACT: note_on channel=9 note=56 velocity=0 time=0
EXTRACT: note_on channel=5 note=63 velocity=0 time=0
EXTRACT: note_on channel=5 note=75 velocity=0 time=0
EXTRACT: note_on channel=0 note=48 velocity=100 time=0
EXTRACT: note_on channel=1 note=72 velocity=100 time=0
EXTRACT: note_on channel=5 note=60 velocity=100 time=0
EXTRACT: note_on channel=5 note=69 velocity=100 time=0
EXTRACT: note_on channel=5 note=72 velocity=100 time=0
EXTRACT: note_on channel=9 note=56 velocity=100 time=0
EXTRACT: note_on channel=3 note=75 velocity=0 time=0.004347825
EXTRACT: note_on channel=2 note=75 velocity=0 time=0
EXTRACT: note_on channel=5 note=69 velocity=0 time=0.256521675
EXTRACT: note_on channel=0 note=48 velocity=0 time=0
EXTRACT: note_on channel=5 note=60 velocity=0 time=0
EXTRACT: note_on channel=5 note=72 velocity=0 time=0
EXTRACT: note_on channel=0 note=53 velocity=100 time=0
EXTRACT: note_on channel=5 note=60 velocity=100 time=0
EXTRACT: note_on channel=5 note=69 velocity=100 time=0
EXTRACT: note_on channel=5 note=72 velocity=100 time=0
EXTRACT: note_on channel=2 note=77 velocity=100 time=0.004347825
EXTRACT: note_on channel=3 note=77 velocity=100 time=0
EXTRACT: note_on channel=0 note=53 velocity=0 time=0.256521675
EXTRACT: note_on channel=1 note=72 velocity=0 time=0
EXTRACT: note_on channel=9 note=56 velocity=0 time=0
EXTRACT: note_on channel=0 note=60 velocity=100 time=0
EXTRACT: note_on channel=0 note=57 velocity=100 time=0
EXTRACT: note_on channel=9 note=40 velocity=100 time=0
EXTRACT: note_on channel=9 note=45 velocity=100 time=0
EXTRACT: note_on channel=9 note=56 velocity=100 time=0
EXTRACT: note_on channel=9 note=45 velocity=0 time=0.2608695
EXTRACT: note_on channel=9 note=40 velocity=0 time=0
EXTRACT: note_on channel=0 note=57 velocity=0 time=0
EXTRACT: note_on channel=0 note=60 velocity=0 time=0
EXTRACT: note_on channel=0 note=57 velocity=100 time=0
EXTRACT: note_on channel=0 note=66 velocity=100 time=0
EXTRACT: note_on channel=0 note=66 velocity=0 time=0.2608695
EXTRACT: note_on channel=0 note=57 velocity=0 time=0
EXTRACT: note_on channel=5 note=72 velocity=0 time=0
EXTRACT: note_on channel=5 note=69 velocity=0 time=0
EXTRACT: note_on channel=9 note=56 velocity=0 time=0
EXTRACT: note_on channel=5 note=60 velocity=0 time=0
EXTRACT: note_on channel=0 note=57 velocity=100 time=0
EXTRACT: note_on channel=0 note=65 velocity=100 time=0
EXTRACT: note_on channel=1 note=75 velocity=100 time=0
EXTRACT: note_on channel=9 note=56 velocity=100 time=0
EXTRACT: note_on channel=0 note=65 velocity=0 time=0.2608695
EXTRACT: note_on channel=0 note=57 velocity=0 time=0
EXTRACT: note_on channel=9 note=35 velocity=100 time=0
EXTRACT: note_on channel=3 note=77 velocity=0 time=0.004347825
EXTRACT: note_on channel=2 note=77 velocity=0 time=0
EXTRACT: note_on channel=9 note=56 velocity=0 time=0.256521675
EXTRACT: note_on channel=1 note=75 velocity=0 time=0
EXTRACT: note_on channel=9 note=35 velocity=0 time=0
EXTRACT: note_on channel=9 note=56 velocity=100 time=0
EXTRACT: note_on channel=9 note=40 velocity=100 time=0
EXTRACT: note_on channel=9 note=45 velocity=100 time=0
EXTRACT: note_on channel=2 note=78 velocity=100 time=0.004347825
EXTRACT: note_on channel=3 note=78 velocity=100 time=0
EXTRACT: note_on channel=9 note=45 velocity=0 time=0.256521675
EXTRACT: note_on channel=9 note=40 velocity=0 time=0
EXTRACT: note_on channel=0 note=65 velocity=100 time=0
EXTRACT: note_on channel=5 note=72 velocity=100 time=0
EXTRACT: note_on channel=5 note=75 velocity=100 time=0
EXTRACT: note_on channel=5 note=63 velocity=100 time=0
EXTRACT: note_on channel=3 note=78 velocity=0 time=0.004347825
EXTRACT: note_on channel=2 note=78 velocity=0 time=0
EXTRACT: note_on channel=2 note=77 velocity=100 time=0
EXTRACT: note_on channel=3 note=77 velocity=100 time=0
EXTRACT: note_on channel=0 note=65 velocity=0 time=0.256521675
EXTRACT: note_on channel=9 note=56 velocity=0 time=0
EXTRACT: note_on channel=0 note=48 velocity=100 time=0
EXTRACT: note_on channel=0 note=57 velocity=100 time=0
EXTRACT: note_on channel=1 note=69 velocity=100 time=0
EXTRACT: note_on channel=9 note=56 velocity=100 time=0
EXTRACT: note_on channel=9 note=35 velocity=100 time=0
EXTRACT: note_on channel=2 note=77 velocity=0 time=0.004347825
EXTRACT: note_on channel=3 note=77 velocity=0 time=0
EXTRACT: note_on channel=2 note=77 velocity=100 time=0
EXTRACT: note_on channel=3 note=77 velocity=100 time=0
EXTRACT: note_on channel=3 note=77 velocity=0 time=0.13043475
EXTRACT: note_on channel=2 note=77 velocity=0 time=0
EXTRACT: note_on channel=5 note=63 velocity=0 time=0.126086925
EXTRACT: note_on channel=5 note=75 velocity=0 time=0
EXTRACT: note_on channel=0 note=57 velocity=0 time=0
EXTRACT: note_on channel=0 note=48 velocity=0 time=0
EXTRACT: note_on channel=9 note=35 velocity=0 time=0
EXTRACT: note_on channel=5 note=72 velocity=0 time=0
EXTRACT: note_on channel=0 note=60 velocity=100 time=0
EXTRACT: note_on channel=0 note=63 velocity=100 time=0
EXTRACT: note_on channel=0 note=53 velocity=100 time=0
EXTRACT: note_on channel=5 note=72 velocity=100 time=0
EXTRACT: note_on channel=5 note=75 velocity=100 time=0
EXTRACT: note_on channel=5 note=63 velocity=100 time=0
EXTRACT: note_on channel=2 note=77 velocity=100 time=0.004347825
EXTRACT: note_on channel=3 note=77 velocity=100 time=0
EXTRACT: note_on channel=5 note=63 velocity=0 time=0.256521675
EXTRACT: note_on channel=5 note=75 velocity=0 time=0
EXTRACT: note_on channel=0 note=63 velocity=0 time=0
EXTRACT: note_on channel=1 note=69 velocity=0 time=0
EXTRACT: note_on channel=0 note=53 velocity=0 time=0
EXTRACT: note_on channel=9 note=56 velocity=0 time=0
EXTRACT: note_on channel=0 note=60 velocity=0 time=0
EXTRACT: note_on channel=5 note=72 velocity=0 time=0
EXTRACT: note_on channel=0 note=60 velocity=100 time=0
EXTRACT: note_on channel=0 note=63 velocity=100 time=0
EXTRACT: note_on channel=0 note=57 velocity=100 time=0
EXTRACT: note_on channel=5 note=75 velocity=100 time=0
EXTRACT: note_on channel=5 note=63 velocity=100 time=0
EXTRACT: note_on channel=5 note=72 velocity=100 time=0
EXTRACT: note_on channel=9 note=40 velocity=100 time=0
EXTRACT: note_on channel=9 note=45 velocity=100 time=0
EXTRACT: note_on channel=9 note=56 velocity=100 time=0
EXTRACT: note_on channel=9 note=45 velocity=0 time=0.2608695
EXTRACT: note_on channel=9 note=40 velocity=0 time=0
EXTRACT: note_on channel=0 note=60 velocity=0 time=0
EXTRACT: note_on channel=5 note=63 velocity=0 time=0
EXTRACT: note_on channel=0 note=63 velocity=0 time=0
EXTRACT: note_on channel=0 note=57 velocity=0 time=0
EXTRACT: note_on channel=5 note=72 velocity=0 time=0
EXTRACT: note_on channel=5 note=75 velocity=0 time=0
EXTRACT: note_on channel=5 note=75 velocity=100 time=0
EXTRACT: note_on channel=5 note=63 velocity=100 time=0
EXTRACT: note_on channel=5 note=72 velocity=100 time=0
EXTRACT: note_on channel=5 note=72 velocity=0 time=0.2608695
EXTRACT: note_on channel=5 note=75 velocity=0 time=0
EXTRACT: note_on channel=9 note=56 velocity=0 time=0
EXTRACT: note_on channel=5 note=63 velocity=0 time=0
EXTRACT: note_on channel=1 note=72 velocity=100 time=0
EXTRACT: note_on channel=5 note=72 velocity=100 time=0
EXTRACT: note_on channel=5 note=75 velocity=100 time=0
EXTRACT: note_on channel=5 note=63 velocity=100 time=0
EXTRACT: note_on channel=9 note=56 velocity=100 time=0
EXTRACT: note_on channel=5 note=63 velocity=0 time=0.2608695
EXTRACT: note_on channel=5 note=72 velocity=0 time=0
EXTRACT: note_on channel=0 note=57 velocity=100 time=0
EXTRACT: note_on channel=0 note=60 velocity=100 time=0
EXTRACT: note_on channel=0 note=63 velocity=100 time=0
EXTRACT: note_on channel=9 note=35 velocity=100 time=0
EXTRACT: note_on channel=2 note=77 velocity=0 time=0.004347825
EXTRACT: note_on channel=3 note=77 velocity=0 time=0
EXTRACT: note_on channel=1 note=72 velocity=0 time=0.256521675
EXTRACT: note_on channel=0 note=57 velocity=0 time=0
EXTRACT: note_on channel=9 note=56 velocity=0 time=0
EXTRACT: note_on channel=5 note=75 velocity=0 time=0
EXTRACT: note_on channel=9 note=35 velocity=0 time=0
EXTRACT: note_on channel=0 note=60 velocity=0 time=0
EXTRACT: note_on channel=0 note=63 velocity=0 time=0
EXTRACT: note_on channel=5 note=75 velocity=100 time=0
EXTRACT: note_on channel=5 note=72 velocity=100 time=0
EXTRACT: note_on channel=5 note=63 velocity=100 time=0
EXTRACT: note_on channel=9 note=40 velocity=100 time=0
EXTRACT: note_on channel=9 note=45 velocity=100 time=0
EXTRACT: note_on channel=9 note=56 velocity=100 time=0
EXTRACT: note_on channel=2 note=77 velocity=100 time=0.004347825
EXTRACT: note_on channel=3 note=77 velocity=100 time=0
EXTRACT: note_on channel=9 note=45 velocity=0 time=0.256521675
EXTRACT: note_on channel=9 note=40 velocity=0 time=0
EXTRACT: note_on channel=5 note=75 velocity=0 time=0
EXTRACT: note_on channel=5 note=63 velocity=0 time=0
EXTRACT: note_on channel=5 note=72 velocity=0 time=0
EXTRACT: note_on channel=0 note=53 velocity=100 time=0
EXTRACT: note_on channel=5 note=65 velocity=100 time=0
EXTRACT: note_on channel=5 note=73 velocity=100 time=0
EXTRACT: note_on channel=5 note=77 velocity=100 time=0
EXTRACT: note_on channel=9 note=35 velocity=100 time=0
EXTRACT: note_on channel=3 note=77 velocity=0 time=0.004347825
EXTRACT: note_on channel=2 note=77 velocity=0 time=0
EXTRACT: note_on channel=2 note=75 velocity=100 time=0
EXTRACT: note_on channel=3 note=75 velocity=100 time=0
EXTRACT: note_on channel=5 note=77 velocity=0 time=0.256521675
EXTRACT: note_on channel=9 note=35 velocity=0 time=0
EXTRACT: note_on channel=5 note=65 velocity=0 time=0
EXTRACT: note_on channel=5 note=73 velocity=0 time=0
EXTRACT: note_on channel=0 note=53 velocity=0 time=0
EXTRACT: note_on channel=9 note=56 velocity=0 time=0
EXTRACT: note_on channel=0 note=61 velocity=100 time=0
EXTRACT: note_on channel=0 note=58 velocity=100 time=0
EXTRACT: note_on channel=1 note=70 velocity=100 time=0
EXTRACT: note_on channel=5 note=72 velocity=100 time=0
EXTRACT: note_on channel=5 note=63 velocity=100 time=0
EXTRACT: note_on channel=5 note=75 velocity=100 time=0
EXTRACT: note_on channel=9 note=56 velocity=100 time=0
EXTRACT: note_on channel=9 note=40 velocity=100 time=0
EXTRACT: note_on channel=9 note=45 velocity=100 time=0
EXTRACT: note_on channel=9 note=35 velocity=100 time=0
EXTRACT: note_on channel=3 note=75 velocity=0 time=0.004347825
EXTRACT: note_on channel=2 note=75 velocity=0 time=0
EXTRACT: note_on channel=9 note=40 velocity=0 time=0.256521675
EXTRACT: note_on channel=0 note=61 velocity=0 time=0
EXTRACT: note_on channel=0 note=58 velocity=0 time=0
EXTRACT: note_on channel=9 note=45 velocity=0 time=0
EXTRACT: note_on channel=5 note=72 velocity=0 time=0
EXTRACT: note_on channel=5 note=63 velocity=0 time=0
EXTRACT: note_on channel=9 note=35 velocity=0 time=0
EXTRACT: note_on channel=0 note=58 velocity=100 time=0
EXTRACT: note_on channel=0 note=61 velocity=100 time=0
EXTRACT: note_on channel=9 note=40 velocity=100 time=0
EXTRACT: note_on channel=9 note=35 velocity=100 time=0
EXTRACT: note_on channel=9 note=45 velocity=100 time=0
EXTRACT: note_on channel=2 note=77 velocity=100 time=0.004347825
EXTRACT: note_on channel=3 note=77 velocity=100 time=0
EXTRACT: note_on channel=9 note=45 velocity=0 time=0.256521675
EXTRACT: note_on channel=9 note=35 velocity=0 time=0
EXTRACT: note_on channel=0 note=58 velocity=0 time=0
EXTRACT: note_on channel=5 note=75 velocity=0 time=0
EXTRACT: note_on channel=0 note=61 velocity=0 time=0
EXTRACT: note_on channel=9 note=56 velocity=0 time=0
EXTRACT: note_on channel=1 note=70 velocity=0 time=0
EXTRACT: note_on channel=9 note=40 velocity=0 time=0
EXTRACT: note_on channel=0 note=58 velocity=100 time=0
EXTRACT: note_on channel=0 note=61 velocity=100 time=0
EXTRACT: note_on channel=5 note=61 velocity=100 time=0
EXTRACT: note_on channel=5 note=73 velocity=100 time=0
EXTRACT: note_on channel=5 note=70 velocity=100 time=0
EXTRACT: note_on channel=9 note=56 velocity=100 time=0
EXTRACT: note_on channel=9 note=40 velocity=100 time=0
EXTRACT: note_on channel=9 note=45 velocity=100 time=0
EXTRACT: note_on channel=9 note=35 velocity=100 time=0
EXTRACT: note_on channel=9 note=35 velocity=0 time=0.2608695
EXTRACT: note_on channel=5 note=70 velocity=0 time=0
EXTRACT: note_on channel=0 note=58 velocity=0 time=0
EXTRACT: note_on channel=9 note=45 velocity=0 time=0
EXTRACT: note_on channel=0 note=61 velocity=0 time=0
EXTRACT: note_on channel=9 note=40 velocity=0 time=0
EXTRACT: note_on channel=5 note=61 velocity=0 time=0
EXTRACT: note_on channel=5 note=73 velocity=0 time=0.2608695
EXTRACT: note_on channel=9 note=56 velocity=0 time=0
EXTRACT: note_on channel=1 note=73 velocity=100 time=0
EXTRACT: note_on channel=5 note=61 velocity=100 time=0
EXTRACT: note_on channel=5 note=70 velocity=100 time=0
EXTRACT: note_on channel=5 note=73 velocity=100 time=0
EXTRACT: note_on channel=9 note=56 velocity=100 time=0
EXTRACT: note_on channel=5 note=70 velocity=0 time=0.2608695
EXTRACT: note_on channel=5 note=61 velocity=0 time=0
EXTRACT: note_on channel=0 note=58 velocity=100 time=0
EXTRACT: note_on channel=0 note=61 velocity=100 time=0
EXTRACT: note_on channel=9 note=35 velocity=100 time=0
EXTRACT: note_on channel=9 note=40 velocity=100 time=0
EXTRACT: note_on channel=9 note=45 velocity=100 time=0
EXTRACT: note_on channel=3 note=77 velocity=0 time=0.004347825
EXTRACT: note_on channel=2 note=77 velocity=0 time=0
EXTRACT: note_on channel=9 note=35 velocity=0 time=0.256521675
EXTRACT: note_on channel=5 note=73 velocity=0 time=0
EXTRACT: note_on channel=0 note=58 velocity=0 time=0
EXTRACT: note_on channel=9 note=56 velocity=0 time=0
EXTRACT: note_on channel=9 note=45 velocity=0 time=0
EXTRACT: note_on channel=9 note=40 velocity=0 time=0
EXTRACT: note_on channel=0 note=61 velocity=0 time=0
EXTRACT: note_on channel=1 note=73 velocity=0 time=0
EXTRACT: note_on channel=0 note=58 velocity=100 time=0
EXTRACT: note_on channel=0 note=61 velocity=100 time=0
EXTRACT: note_on channel=9 note=45 velocity=100 time=0
EXTRACT: note_on channel=9 note=35 velocity=100 time=0
EXTRACT: note_on channel=9 note=40 velocity=100 time=0
EXTRACT: note_on channel=9 note=56 velocity=100 time=0
EXTRACT: note_on channel=2 note=78 velocity=100 time=0.004347825
EXTRACT: note_on channel=3 note=78 velocity=100 time=0
EXTRACT: note_on channel=9 note=40 velocity=0 time=0.256521675
EXTRACT: note_on channel=9 note=35 velocity=0 time=0
EXTRACT: note_on channel=0 note=58 velocity=0 time=0
EXTRACT: note_on channel=9 note=45 velocity=0 time=0
EXTRACT: note_on channel=0 note=61 velocity=0 time=0
EXTRACT: note_on channel=0 note=53 velocity=100 time=0
EXTRACT: note_on channel=5 note=77 velocity=100 time=0
EXTRACT: note_on channel=5 note=73 velocity=100 time=0
EXTRACT: note_on channel=3 note=78 velocity=0 time=0.004347825
EXTRACT: note_on channel=2 note=78 velocity=0 time=0
EXTRACT: note_on channel=2 note=77 velocity=100 time=0
EXTRACT: note_on channel=3 note=77 velocity=100 time=0
EXTRACT: note_on channel=0 note=53 velocity=0 time=0
EXTRACT: note_on channel=9 note=56 velocity=0 time=0
EXTRACT: note_on channel=0 note=46 velocity=100 time=0
EXTRACT: note_on channel=1 note=70 velocity=100 time=0
EXTRACT: note_on channel=9 note=35 velocity=100 time=0
EXTRACT: note_on channel=9 note=56 velocity=100 time=0
EXTRACT: note_on channel=2 note=77 velocity=0 time=0.004347825
EXTRACT: note_on channel=3 note=77 velocity=0 time=0
EXTRACT: note_on channel=2 note=77 velocity=100 time=0
EXTRACT: note_on channel=3 note=77 velocity=100 time=0
EXTRACT: note_on channel=3 note=77 velocity=0 time=0.13043475
EXTRACT: note_on channel=2 note=77 velocity=0 time=0
EXTRACT: note_on channel=9 note=35 velocity=0 time=0.126086925
EXTRACT: note_on channel=5 note=77 velocity=0 time=0
EXTRACT: note_on channel=5 note=73 velocity=0 time=0
EXTRACT: note_on channel=0 note=46 velocity=0 time=0
EXTRACT: note_on channel=0 note=49 velocity=100 time=0
EXTRACT: note_on channel=5 note=73 velocity=100 time=0
EXTRACT: note_on channel=5 note=77 velocity=100 time=0
EXTRACT: note_on channel=2 note=77 velocity=100 time=0.004347825
EXTRACT: note_on channel=3 note=77 velocity=100 time=0
EXTRACT: note_on channel=5 note=77 velocity=0 time=0.256521675
EXTRACT: note_on channel=5 note=73 velocity=0 time=0
EXTRACT: note_on channel=1 note=70 velocity=0 time=0
EXTRACT: note_on channel=0 note=49 velocity=0 time=0
EXTRACT: note_on channel=9 note=56 velocity=0 time=0
EXTRACT: note_on channel=0 note=58 velocity=100 time=0
EXTRACT: note_on channel=0 note=61 velocity=100 time=0
EXTRACT: note_on channel=0 note=53 velocity=100 time=0
EXTRACT: note_on channel=5 note=77 velocity=100 time=0
EXTRACT: note_on channel=5 note=73 velocity=100 time=0
EXTRACT: note_on channel=9 note=45 velocity=100 time=0
EXTRACT: note_on channel=9 note=40 velocity=100 time=0
EXTRACT: note_on channel=9 note=56 velocity=100 time=0
EXTRACT: note_on channel=9 note=40 velocity=0 time=0.2608695
EXTRACT: note_on channel=9 note=45 velocity=0 time=0
EXTRACT: note_on channel=5 note=73 velocity=0 time=0
EXTRACT: note_on channel=0 note=61 velocity=0 time=0
EXTRACT: note_on channel=0 note=53 velocity=0 time=0
EXTRACT: note_on channel=0 note=58 velocity=0 time=0
EXTRACT: note_on channel=5 note=77 velocity=0 time=0
EXTRACT: note_on channel=5 note=73 velocity=100 time=0
EXTRACT: note_on channel=5 note=77 velocity=100 time=0
EXTRACT: note_on channel=5 note=77 velocity=0 time=0.2608695
EXTRACT: note_on channel=9 note=56 velocity=0 time=0
EXTRACT: note_on channel=5 note=73 velocity=0 time=0
EXTRACT: note_on channel=1 note=73 velocity=100 time=0
EXTRACT: note_on channel=5 note=73 velocity=100 time=0
EXTRACT: note_on channel=5 note=77 velocity=100 time=0
EXTRACT: note_on channel=9 note=56 velocity=100 time=0
EXTRACT: note_on channel=5 note=77 velocity=0 time=0.2608695
EXTRACT: note_on channel=5 note=73 velocity=0 time=0
EXTRACT: note_on channel=0 note=58 velocity=100 time=0
EXTRACT: note_on channel=0 note=61 velocity=100 time=0
EXTRACT: note_on channel=5 note=77 velocity=100 time=0
EXTRACT: note_on channel=5 note=73 velocity=100 time=0
EXTRACT: note_on channel=9 note=35 velocity=100 time=0
EXTRACT: note_on channel=2 note=77 velocity=0 time=0.004347825
EXTRACT: note_on channel=3 note=77 velocity=0 time=0
EXTRACT: note_on channel=1 note=73 velocity=0 time=0.256521675
EXTRACT: note_on channel=0 note=61 velocity=0 time=0
EXTRACT: note_on channel=9 note=56 velocity=0 time=0
EXTRACT: note_on channel=0 note=58 velocity=0 time=0
EXTRACT: note_on channel=9 note=35 velocity=0 time=0
EXTRACT: note_on channel=5 note=77 velocity=0 time=0
EXTRACT: note_on channel=5 note=73 velocity=0 time=0
EXTRACT: note_on channel=5 note=77 velocity=100 time=0
EXTRACT: note_on channel=5 note=73 velocity=100 time=0
EXTRACT: note_on channel=9 note=45 velocity=100 time=0
EXTRACT: note_on channel=9 note=56 velocity=100 time=0
EXTRACT: note_on channel=9 note=40 velocity=100 time=0
EXTRACT: note_on channel=2 note=77 velocity=100 time=0.004347825
EXTRACT: note_on channel=3 note=77 velocity=100 time=0
EXTRACT: note_on channel=9 note=40 velocity=0 time=0.256521675
EXTRACT: note_on channel=9 note=45 velocity=0 time=0
EXTRACT: note_on channel=5 note=77 velocity=0 time=0
EXTRACT: note_on channel=5 note=73 velocity=0 time=0
EXTRACT: note_on channel=0 note=53 velocity=100 time=0
EXTRACT: note_on channel=5 note=75 velocity=100 time=0
EXTRACT: note_on channel=5 note=78 velocity=100 time=0
EXTRACT: note_on channel=9 note=35 velocity=100 time=0
EXTRACT: note_on channel=2 note=77 velocity=0 time=0.004347825
EXTRACT: note_on channel=3 note=77 velocity=0 time=0
EXTRACT: note_on channel=2 note=75 velocity=100 time=0
EXTRACT: note_on channel=3 note=75 velocity=100 time=0
EXTRACT: note_on channel=5 note=78 velocity=0 time=0.256521675
EXTRACT: note_on channel=5 note=75 velocity=0 time=0
EXTRACT: note_on channel=9 note=56 velocity=0 time=0
EXTRACT: note_on channel=0 note=53 velocity=0 time=0
EXTRACT: note_on channel=9 note=35 velocity=0 time=0
EXTRACT: note_on channel=0 note=48 velocity=100 time=0
EXTRACT: note_on channel=1 note=72 velocity=100 time=0
EXTRACT: note_on channel=5 note=77 velocity=100 time=0
EXTRACT: note_on channel=5 note=73 velocity=100 time=0
EXTRACT: note_on channel=9 note=56 velocity=100 time=0
EXTRACT: note_on channel=3 note=75 velocity=0 time=0.004347825
EXTRACT: note_on channel=2 note=75 velocity=0 time=0
EXTRACT: note_on channel=5 note=77 velocity=0 time=0.256521675
EXTRACT: note_on channel=0 note=48 velocity=0 time=0
EXTRACT: note_on channel=0 note=53 velocity=100 time=0
EXTRACT: note_on channel=2 note=77 velocity=100 time=0.004347825
EXTRACT: note_on channel=3 note=77 velocity=100 time=0
EXTRACT: note_on channel=0 note=53 velocity=0 time=0.256521675
EXTRACT: note_on channel=1 note=72 velocity=0 time=0
EXTRACT: note_on channel=5 note=73 velocity=0 time=0
EXTRACT: note_on channel=9 note=56 velocity=0 time=0
EXTRACT: note_on channel=0 note=60 velocity=100 time=0
EXTRACT: note_on channel=0 note=57 velocity=100 time=0
EXTRACT: note_on channel=5 note=72 velocity=100 time=0
EXTRACT: note_on channel=5 note=75 velocity=100 time=0
EXTRACT: note_on channel=9 note=45 velocity=100 time=0
EXTRACT: note_on channel=9 note=40 velocity=100 time=0
EXTRACT: note_on channel=9 note=56 velocity=100 time=0
EXTRACT: note_on channel=9 note=40 velocity=0 time=0.2608695
EXTRACT: note_on channel=9 note=45 velocity=0 time=0
EXTRACT: note_on channel=0 note=60 velocity=0 time=0
EXTRACT: note_on channel=0 note=57 velocity=0 time=0
EXTRACT: note_on channel=0 note=57 velocity=100 time=0
EXTRACT: note_on channel=0 note=66 velocity=100 time=0
EXTRACT: note_on channel=0 note=66 velocity=0 time=0.2608695
EXTRACT: note_on channel=9 note=56 velocity=0 time=0
EXTRACT: note_on channel=5 note=75 velocity=0 time=0
EXTRACT: note_on channel=5 note=72 velocity=0 time=0
EXTRACT: note_on channel=0 note=57 velocity=0 time=0
EXTRACT: note_on channel=0 note=57 velocity=100 time=0
EXTRACT: note_on channel=0 note=65 velocity=100 time=0
EXTRACT: note_on channel=1 note=75 velocity=100 time=0
EXTRACT: note_on channel=5 note=78 velocity=100 time=0
EXTRACT: note_on channel=5 note=75 velocity=100 time=0
EXTRACT: note_on channel=9 note=56 velocity=100 time=0
EXTRACT: note_on channel=5 note=78 velocity=0 time=0.2608695
EXTRACT: note_on channel=0 note=57 velocity=0 time=0
EXTRACT: note_on channel=0 note=65 velocity=0 time=0
EXTRACT: note_on channel=9 note=35 velocity=100 time=0
EXTRACT: note_on channel=3 note=77 velocity=0 time=0.004347825
EXTRACT: note_on channel=2 note=77 velocity=0 time=0
EXTRACT: note_on channel=1 note=75 velocity=0 time=0.256521675
EXTRACT: note_on channel=9 note=56 velocity=0 time=0
EXTRACT: note_on channel=9 note=35 velocity=0 time=0
EXTRACT: note_on channel=5 note=75 velocity=0 time=0
EXTRACT: note_on channel=9 note=56 velocity=100 time=0
EXTRACT: note_on channel=9 note=40 velocity=100 time=0
EXTRACT: note_on channel=9 note=45 velocity=100 time=0
EXTRACT: note_on channel=2 note=78 velocity=100 time=0.004347825
EXTRACT: note_on channel=3 note=78 velocity=100 time=0
EXTRACT: note_on channel=9 note=45 velocity=0 time=0.256521675
EXTRACT: note_on channel=9 note=40 velocity=0 time=0
EXTRACT: note_on channel=0 note=65 velocity=100 time=0
EXTRACT: note_on channel=5 note=75 velocity=100 time=0
EXTRACT: note_on channel=5 note=72 velocity=100 time=0
EXTRACT: note_on channel=3 note=78 velocity=0 time=0.004347825
EXTRACT: note_on channel=2 note=78 velocity=0 time=0
EXTRACT: note_on channel=2 note=77 velocity=100 time=0
EXTRACT: note_on channel=3 note=77 velocity=100 time=0
EXTRACT: note_on channel=0 note=65 velocity=0 time=0.256521675
EXTRACT: note_on channel=9 note=56 velocity=0 time=0
EXTRACT: note_on channel=0 note=48 velocity=100 time=0
EXTRACT: note_on channel=0 note=57 velocity=100 time=0
EXTRACT: note_on channel=1 note=69 velocity=100 time=0
EXTRACT: note_on channel=9 note=56 velocity=100 time=0
EXTRACT: note_on channel=9 note=35 velocity=100 time=0
EXTRACT: note_on channel=2 note=77 velocity=0 time=0.004347825
EXTRACT: note_on channel=3 note=77 velocity=0 time=0
EXTRACT: note_on channel=2 note=77 velocity=100 time=0
EXTRACT: note_on channel=3 note=77 velocity=100 time=0
EXTRACT: note_on channel=3 note=77 velocity=0 time=0.13043475
EXTRACT: note_on channel=2 note=77 velocity=0 time=0
EXTRACT: note_on channel=0 note=48 velocity=0 time=0.126086925
EXTRACT: note_on channel=9 note=35 velocity=0 time=0
EXTRACT: note_on channel=0 note=57 velocity=0 time=0
EXTRACT: note_on channel=5 note=72 velocity=0 time=0
EXTRACT: note_on channel=5 note=75 velocity=0 time=0
EXTRACT: note_on channel=0 note=60 velocity=100 time=0
EXTRACT: note_on channel=0 note=63 velocity=100 time=0
EXTRACT: note_on channel=0 note=53 velocity=100 time=0
EXTRACT: note_on channel=5 note=75 velocity=100 time=0
EXTRACT: note_on channel=5 note=72 velocity=100 time=0
EXTRACT: note_on channel=2 note=77 velocity=100 time=0.004347825
EXTRACT: note_on channel=3 note=77 velocity=100 time=0
EXTRACT: note_on channel=5 note=72 velocity=0 time=0.256521675
EXTRACT: note_on channel=0 note=63 velocity=0 time=0
EXTRACT: note_on channel=1 note=69 velocity=0 time=0
EXTRACT: note_on channel=0 note=53 velocity=0 time=0
EXTRACT: note_on channel=9 note=56 velocity=0 time=0
EXTRACT: note_on channel=0 note=60 velocity=0 time=0
EXTRACT: note_on channel=5 note=75 velocity=0 time=0
EXTRACT: note_on channel=0 note=60 velocity=100 time=0
EXTRACT: note_on channel=0 note=63 velocity=100 time=0
EXTRACT: note_on channel=0 note=57 velocity=100 time=0
EXTRACT: note_on channel=5 note=75 velocity=100 time=0
EXTRACT: note_on channel=5 note=72 velocity=100 time=0
EXTRACT: note_on channel=9 note=56 velocity=100 time=0
EXTRACT: note_on channel=9 note=40 velocity=100 time=0
EXTRACT: note_on channel=9 note=45 velocity=100 time=0
EXTRACT: note_on channel=9 note=45 velocity=0 time=0.2608695
EXTRACT: note_on channel=0 note=60 velocity=0 time=0
EXTRACT: note_on channel=9 note=40 velocity=0 time=0
EXTRACT: note_on channel=0 note=63 velocity=0 time=0
EXTRACT: note_on channel=0 note=57 velocity=0 time=0
EXTRACT: note_on channel=5 note=72 velocity=0 time=0
EXTRACT: note_on channel=5 note=75 velocity=0 time=0
EXTRACT: note_on channel=5 note=72 velocity=100 time=0
EXTRACT: note_on channel=5 note=75 velocity=100 time=0
EXTRACT: note_on channel=5 note=75 velocity=0 time=0.2608695
EXTRACT: note_on channel=9 note=56 velocity=0 time=0
EXTRACT: note_on channel=5 note=72 velocity=0 time=0
EXTRACT: note_on channel=1 note=72 velocity=100 time=0
EXTRACT: note_on channel=5 note=72 velocity=100 time=0
EXTRACT: note_on channel=5 note=75 velocity=100 time=0
EXTRACT: note_on channel=9 note=56 velocity=100 time=0
EXTRACT: note_on channel=5 note=75 velocity=0 time=0.2608695
EXTRACT: note_on channel=5 note=72 velocity=0 time=0
EXTRACT: note_on channel=0 note=57 velocity=100 time=0
EXTRACT: note_on channel=0 note=60 velocity=100 time=0
EXTRACT: note_on channel=0 note=63 velocity=100 time=0
EXTRACT: note_on channel=5 note=75 velocity=100 time=0
EXTRACT: note_on channel=5 note=72 velocity=100 time=0
EXTRACT: note_on channel=9 note=35 velocity=100 time=0
EXTRACT: note_on channel=2 note=77 velocity=0 time=0.004347825
EXTRACT: note_on channel=3 note=77 velocity=0 time=0
EXTRACT: note_on channel=5 note=75 velocity=0 time=0.256521675
EXTRACT: note_on channel=1 note=72 velocity=0 time=0
EXTRACT: note_on channel=0 note=60 velocity=0 time=0
EXTRACT: note_on channel=9 note=56 velocity=0 time=0
EXTRACT: note_on channel=9 note=35 velocity=0 time=0
EXTRACT: note_on channel=5 note=72 velocity=0 time=0
EXTRACT: note_on channel=0 note=63 velocity=0 time=0
EXTRACT: note_on channel=0 note=57 velocity=0 time=0
EXTRACT: note_on channel=5 note=75 velocity=100 time=0
EXTRACT: note_on channel=5 note=72 velocity=100 time=0
EXTRACT: note_on channel=9 note=56 velocity=100 time=0
EXTRACT: note_on channel=9 note=40 velocity=100 time=0
EXTRACT: note_on channel=9 note=45 velocity=100 time=0
EXTRACT: note_on channel=2 note=77 velocity=100 time=0.004347825
EXTRACT: note_on channel=3 note=77 velocity=100 time=0
EXTRACT: note_on channel=9 note=45 velocity=0 time=0.256521675
EXTRACT: note_on channel=9 note=40 velocity=0 time=0
EXTRACT: note_on channel=5 note=75 velocity=0 time=0
EXTRACT: note_on channel=5 note=72 velocity=0 time=0
EXTRACT: note_on channel=0 note=53 velocity=100 time=0
EXTRACT: note_on channel=5 note=73 velocity=100 time=0
EXTRACT: note_on channel=5 note=77 velocity=100 time=0
EXTRACT: note_on channel=9 note=35 velocity=100 time=0
EXTRACT: note_on channel=2 note=77 velocity=0 time=0.004347825
EXTRACT: note_on channel=3 note=77 velocity=0 time=0
EXTRACT: note_on channel=2 note=75 velocity=100 time=0
EXTRACT: note_on channel=3 note=75 velocity=100 time=0
EXTRACT: note_on channel=5 note=77 velocity=0 time=0.256521675
EXTRACT: note_on channel=5 note=73 velocity=0 time=0
EXTRACT: note_on channel=9 note=56 velocity=0 time=0
EXTRACT: note_on channel=0 note=53 velocity=0 time=0
EXTRACT: note_on channel=9 note=35 velocity=0 time=0
EXTRACT: note_on channel=0 note=61 velocity=100 time=0
EXTRACT: note_on channel=0 note=58 velocity=100 time=0
EXTRACT: note_on channel=1 note=70 velocity=100 time=0
EXTRACT: note_on channel=5 note=75 velocity=100 time=0
EXTRACT: note_on channel=5 note=72 velocity=100 time=0
EXTRACT: note_on channel=9 note=56 velocity=100 time=0
EXTRACT: note_on channel=9 note=35 velocity=100 time=0
EXTRACT: note_on channel=3 note=75 velocity=0 time=0.004347825
EXTRACT: note_on channel=2 note=75 velocity=0 time=0
EXTRACT: note_on channel=0 note=58 velocity=0 time=0.256521675
EXTRACT: note_on channel=9 note=35 velocity=0 time=0
EXTRACT: note_on channel=0 note=61 velocity=0 time=0
EXTRACT: note_on channel=0 note=58 velocity=100 time=0
EXTRACT: note_on channel=0 note=61 velocity=100 time=0
EXTRACT: note_on channel=2 note=77 velocity=100 time=0.004347825
EXTRACT: note_on channel=3 note=77 velocity=100 time=0
EXTRACT: note_on channel=0 note=61 velocity=0 time=0.256521675
EXTRACT: note_on channel=1 note=70 velocity=0 time=0
EXTRACT: note_on channel=9 note=56 velocity=0 time=0
EXTRACT: note_on channel=5 note=75 velocity=0 time=0
EXTRACT: note_on channel=5 note=72 velocity=0 time=0
EXTRACT: note_on channel=0 note=58 velocity=0 time=0
EXTRACT: note_on channel=0 note=58 velocity=100 time=0
EXTRACT: note_on channel=0 note=61 velocity=100 time=0
EXTRACT: note_on channel=5 note=70 velocity=100 time=0
EXTRACT: note_on channel=5 note=73 velocity=100 time=0
EXTRACT: note_on channel=9 note=56 velocity=100 time=0
EXTRACT: note_on channel=9 note=45 velocity=100 time=0
EXTRACT: note_on channel=9 note=40 velocity=100 time=0
EXTRACT: note_on channel=9 note=40 velocity=0 time=0.2608695
EXTRACT: note_on channel=0 note=58 velocity=0 time=0
EXTRACT: note_on channel=9 note=45 velocity=0 time=0
EXTRACT: note_on channel=0 note=61 velocity=0 time=0
EXTRACT: note_on channel=5 note=73 velocity=0 time=0.2608695
EXTRACT: note_on channel=5 note=70 velocity=0 time=0
EXTRACT: note_on channel=9 note=56 velocity=0 time=0
EXTRACT: note_on channel=1 note=73 velocity=100 time=0
EXTRACT: note_on channel=5 note=73 velocity=100 time=0
EXTRACT: note_on channel=5 note=70 velocity=100 time=0
EXTRACT: note_on channel=9 note=56 velocity=100 time=0
EXTRACT: note_on channel=5 note=73 velocity=0 time=0.2608695
EXTRACT: note_on channel=0 note=58 velocity=100 time=0
EXTRACT: note_on channel=0 note=61 velocity=100 time=0
EXTRACT: note_on channel=9 note=35 velocity=100 time=0
EXTRACT: note_on channel=2 note=77 velocity=0 time=0.004347825
EXTRACT: note_on channel=3 note=77 velocity=0 time=0
EXTRACT: note_on channel=0 note=58 velocity=0 time=0.256521675
EXTRACT: note_on channel=9 note=56 velocity=0 time=0
EXTRACT: note_on channel=5 note=70 velocity=0 time=0
EXTRACT: note_on channel=9 note=35 velocity=0 time=0
EXTRACT: note_on channel=0 note=61 velocity=0 time=0
EXTRACT: note_on channel=1 note=73 velocity=0 time=0
EXTRACT: note_on channel=0 note=58 velocity=100 time=0
EXTRACT: note_on channel=0 note=61 velocity=100 time=0
EXTRACT: note_on channel=9 note=58 velocity=100 time=0
EXTRACT: note_on channel=9 note=56 velocity=100 time=0
EXTRACT: note_on channel=9 note=45 velocity=100 time=0
EXTRACT: note_on channel=9 note=35 velocity=100 time=0
EXTRACT: note_on channel=9 note=40 velocity=100 time=0
EXTRACT: note_on channel=2 note=78 velocity=100 time=0.004347825
EXTRACT: note_on channel=3 note=78 velocity=100 time=0
EXTRACT: note_on channel=9 note=40 velocity=0 time=0.256521675
EXTRACT: note_on channel=0 note=61 velocity=0 time=0
EXTRACT: note_on channel=0 note=58 velocity=0 time=0
EXTRACT: note_on channel=9 note=45 velocity=0 time=0
EXTRACT: note_on channel=9 note=35 velocity=0 time=0
EXTRACT: note_on channel=0 note=53 velocity=100 time=0
EXTRACT: note_on channel=5 note=73 velocity=100 time=0
EXTRACT: note_on channel=5 note=77 velocity=100 time=0
EXTRACT: note_on channel=2 note=78 velocity=0 time=0.004347825
EXTRACT: note_on channel=3 note=78 velocity=0 time=0
EXTRACT: note_on channel=2 note=77 velocity=100 time=0
EXTRACT: note_on channel=3 note=77 velocity=100 time=0
EXTRACT: note_on channel=9 note=56 velocity=0 time=0.256521675
EXTRACT: note_on channel=0 note=53 velocity=0 time=0
EXTRACT: note_on channel=9 note=58 velocity=0 time=0
EXTRACT: note_on channel=0 note=46 velocity=100 time=0
EXTRACT: note_on channel=1 note=70 velocity=100 time=0
EXTRACT: note_on channel=2 note=77 velocity=100 time=0
EXTRACT: note_on channel=3 note=77 velocity=100 time=0
EXTRACT: note_on channel=9 note=35 velocity=100 time=0
EXTRACT: note_on channel=9 note=56 velocity=100 time=0
EXTRACT: note_on channel=3 note=77 velocity=0 time=0.004347825
EXTRACT: note_on channel=2 note=77 velocity=0 time=0
EXTRACT: note_on channel=3 note=77 velocity=0 time=0.126086925
EXTRACT: note_on channel=2 note=77 velocity=0 time=0
EXTRACT: note_on channel=0 note=46 velocity=0 time=0.13043475
EXTRACT: note_on channel=9 note=35 velocity=0 time=0
EXTRACT: note_on channel=5 note=73 velocity=0 time=0
EXTRACT: note_on channel=5 note=77 velocity=0 time=0
EXTRACT: note_on channel=0 note=49 velocity=100 time=0
EXTRACT: note_on channel=2 note=77 velocity=100 time=0
EXTRACT: note_on channel=3 note=77 velocity=100 time=0
EXTRACT: note_on channel=5 note=73 velocity=100 time=0
EXTRACT: note_on channel=5 note=77 velocity=100 time=0
EXTRACT: note_on channel=5 note=77 velocity=0 time=0.2608695
EXTRACT: note_on channel=0 note=49 velocity=0 time=0
EXTRACT: note_on channel=9 note=56 velocity=0 time=0
EXTRACT: note_on channel=1 note=70 velocity=0 time=0
EXTRACT: note_on channel=5 note=73 velocity=0 time=0
EXTRACT: note_on channel=0 note=58 velocity=100 time=0
EXTRACT: note_on channel=0 note=61 velocity=100 time=0
EXTRACT: note_on channel=0 note=53 velocity=100 time=0
EXTRACT: note_on channel=5 note=77 velocity=100 time=0
EXTRACT: note_on channel=5 note=73 velocity=100 time=0
EXTRACT: note_on channel=9 note=45 velocity=100 time=0
EXTRACT: note_on channel=9 note=40 velocity=100 time=0
EXTRACT: note_on channel=9 note=56 velocity=100 time=0
EXTRACT: note_on channel=9 note=40 velocity=0 time=0.2608695
EXTRACT: note_on channel=9 note=45 velocity=0 time=0
EXTRACT: note_on channel=5 note=73 velocity=0 time=0
EXTRACT: note_on channel=0 note=61 velocity=0 time=0
EXTRACT: note_on channel=0 note=53 velocity=0 time=0
EXTRACT: note_on channel=0 note=58 velocity=0 time=0
EXTRACT: note_on channel=5 note=77 velocity=0 time=0
EXTRACT: note_on channel=5 note=77 velocity=100 time=0
EXTRACT: note_on channel=5 note=73 velocity=100 time=0
EXTRACT: note_on channel=5 note=73 velocity=0 time=0.2608695
EXTRACT: note_on channel=9 note=56 velocity=0 time=0
EXTRACT: note_on channel=5 note=77 velocity=0 time=0
EXTRACT: note_on channel=1 note=73 velocity=100 time=0
EXTRACT: note_on channel=5 note=73 velocity=100 time=0
EXTRACT: note_on channel=5 note=77 velocity=100 time=0
EXTRACT: note_on channel=9 note=56 velocity=100 time=0
EXTRACT: note_on channel=5 note=77 velocity=0 time=0.2608695
EXTRACT: note_on channel=5 note=73 velocity=0 time=0
EXTRACT: note_on channel=3 note=77 velocity=0 time=0
EXTRACT: note_on channel=2 note=77 velocity=0 time=0
EXTRACT: note_on channel=0 note=58 velocity=100 time=0
EXTRACT: note_on channel=0 note=61 velocity=100 time=0
EXTRACT: note_on channel=5 note=77 velocity=100 time=0
EXTRACT: note_on channel=5 note=73 velocity=100 time=0
EXTRACT: note_on channel=9 note=35 velocity=100 time=0
EXTRACT: note_on channel=9 note=35 velocity=0 time=0.2608695
EXTRACT: note_on channel=5 note=77 velocity=0 time=0
EXTRACT: note_on channel=9 note=56 velocity=0 time=0
EXTRACT: note_on channel=0 note=58 velocity=0 time=0
EXTRACT: note_on channel=1 note=73 velocity=0 time=0
EXTRACT: note_on channel=5 note=73 velocity=0 time=0
EXTRACT: note_on channel=0 note=61 velocity=0 time=0
EXTRACT: note_on channel=2 note=77 velocity=100 time=0
EXTRACT: note_on channel=3 note=77 velocity=100 time=0
EXTRACT: note_on channel=5 note=77 velocity=100 time=0
EXTRACT: note_on channel=5 note=73 velocity=100 time=0
EXTRACT: note_on channel=9 note=45 velocity=100 time=0
EXTRACT: note_on channel=9 note=56 velocity=100 time=0
EXTRACT: note_on channel=9 note=40 velocity=100 time=0
EXTRACT: note_on channel=9 note=40 velocity=0 time=0.2608695
EXTRACT: note_on channel=3 note=77 velocity=0 time=0
EXTRACT: note_on channel=5 note=73 velocity=0 time=0
EXTRACT: note_on channel=5 note=77 velocity=0 time=0
EXTRACT: note_on channel=2 note=77 velocity=0 time=0
EXTRACT: note_on channel=9 note=45 velocity=0 time=0
EXTRACT: note_on channel=0 note=53 velocity=100 time=0
EXTRACT: note_on channel=2 note=75 velocity=100 time=0
EXTRACT: note_on channel=3 note=75 velocity=100 time=0
EXTRACT: note_on channel=5 note=75 velocity=100 time=0
EXTRACT: note_on channel=5 note=78 velocity=100 time=0
EXTRACT: note_on channel=9 note=35 velocity=100 time=0
EXTRACT: note_on channel=9 note=35 velocity=0 time=0.2608695
EXTRACT: note_on channel=5 note=75 velocity=0 time=0
EXTRACT: note_on channel=0 note=53 velocity=0 time=0
EXTRACT: note_on channel=2 note=75 velocity=0 time=0
EXTRACT: note_on channel=9 note=56 velocity=0 time=0
EXTRACT: note_on channel=5 note=78 velocity=0 time=0
EXTRACT: note_on channel=3 note=75 velocity=0 time=0
EXTRACT: note_on channel=0 note=48 velocity=100 time=0
EXTRACT: note_on channel=1 note=72 velocity=100 time=0
EXTRACT: note_on channel=5 note=77 velocity=100 time=0
EXTRACT: note_on channel=5 note=73 velocity=100 time=0
EXTRACT: note_on channel=9 note=56 velocity=100 time=0
EXTRACT: note_on channel=0 note=48 velocity=0 time=0.2608695
EXTRACT: note_on channel=0 note=53 velocity=100 time=0
EXTRACT: note_on channel=2 note=77 velocity=100 time=0
EXTRACT: note_on channel=3 note=77 velocity=100 time=0
EXTRACT: note_on channel=0 note=53 velocity=0 time=0.2608695
EXTRACT: note_on channel=5 note=73 velocity=0 time=0
EXTRACT: note_on channel=1 note=72 velocity=0 time=0
EXTRACT: note_on channel=9 note=56 velocity=0 time=0
EXTRACT: note_on channel=5 note=77 velocity=0 time=0
EXTRACT: note_on channel=0 note=60 velocity=100 time=0
EXTRACT: note_on channel=0 note=57 velocity=100 time=0
EXTRACT: note_on channel=5 note=75 velocity=100 time=0
EXTRACT: note_on channel=5 note=72 velocity=100 time=0
EXTRACT: note_on channel=9 note=45 velocity=100 time=0
EXTRACT: note_on channel=9 note=40 velocity=100 time=0
EXTRACT: note_on channel=9 note=56 velocity=100 time=0
EXTRACT: note_on channel=9 note=40 velocity=0 time=0.2608695
EXTRACT: note_on channel=9 note=45 velocity=0 time=0
EXTRACT: note_on channel=0 note=60 velocity=0 time=0
EXTRACT: note_on channel=0 note=57 velocity=0 time=0
EXTRACT: note_on channel=0 note=57 velocity=100 time=0
EXTRACT: note_on channel=0 note=66 velocity=100 time=0
EXTRACT: note_on channel=0 note=66 velocity=0 time=0.2608695
EXTRACT: note_on channel=9 note=56 velocity=0 time=0
EXTRACT: note_on channel=5 note=72 velocity=0 time=0
EXTRACT: note_on channel=5 note=75 velocity=0 time=0
EXTRACT: note_on channel=0 note=57 velocity=0 time=0
EXTRACT: note_on channel=0 note=57 velocity=100 time=0
EXTRACT: note_on channel=0 note=65 velocity=100 time=0
EXTRACT: note_on channel=1 note=75 velocity=100 time=0
EXTRACT: note_on channel=5 note=75 velocity=100 time=0
EXTRACT: note_on channel=5 note=78 velocity=100 time=0
EXTRACT: note_on channel=9 note=56 velocity=100 time=0
EXTRACT: note_on channel=0 note=65 velocity=0 time=0.2608695
EXTRACT: note_on channel=0 note=57 velocity=0 time=0
EXTRACT: note_on channel=3 note=77 velocity=0 time=0
EXTRACT: note_on channel=2 note=77 velocity=0 time=0
EXTRACT: note_on channel=9 note=35 velocity=100 time=0
EXTRACT: note_on channel=9 note=35 velocity=0 time=0.2608695
EXTRACT: note_on channel=5 note=78 velocity=0 time=0
EXTRACT: note_on channel=9 note=56 velocity=0 time=0
EXTRACT: note_on channel=5 note=75 velocity=0 time=0
EXTRACT: note_on channel=1 note=75 velocity=0 time=0
EXTRACT: note_on channel=2 note=78 velocity=100 time=0
EXTRACT: note_on channel=3 note=78 velocity=100 time=0
EXTRACT: note_on channel=9 note=56 velocity=100 time=0
EXTRACT: note_on channel=9 note=40 velocity=100 time=0
EXTRACT: note_on channel=9 note=45 velocity=100 time=0
EXTRACT: note_on channel=9 note=45 velocity=0 time=0.2608695
EXTRACT: note_on channel=3 note=78 velocity=0 time=0
EXTRACT: note_on channel=2 note=78 velocity=0 time=0
EXTRACT: note_on channel=9 note=40 velocity=0 time=0
EXTRACT: note_on channel=0 note=65 velocity=100 time=0
EXTRACT: note_on channel=2 note=77 velocity=100 time=0
EXTRACT: note_on channel=3 note=77 velocity=100 time=0
EXTRACT: note_on channel=5 note=75 velocity=100 time=0
EXTRACT: note_on channel=5 note=72 velocity=100 time=0
EXTRACT: note_on channel=3 note=77 velocity=0 time=0.2608695
EXTRACT: note_on channel=2 note=77 velocity=0 time=0
EXTRACT: note_on channel=9 note=56 velocity=0 time=0
EXTRACT: note_on channel=0 note=65 velocity=0 time=0
EXTRACT: note_on channel=0 note=48 velocity=100 time=0
EXTRACT: note_on channel=0 note=57 velocity=100 time=0
EXTRACT: note_on channel=1 note=69 velocity=100 time=0
EXTRACT: note_on channel=2 note=77 velocity=100 time=0
EXTRACT: note_on channel=3 note=77 velocity=100 time=0
EXTRACT: note_on channel=9 note=35 velocity=100 time=0
EXTRACT: note_on channel=3 note=77 velocity=0 time=0.13043475
EXTRACT: note_on channel=2 note=77 velocity=0 time=0
EXTRACT: note_on channel=0 note=57 velocity=0 time=0.13043475
EXTRACT: note_on channel=5 note=72 velocity=0 time=0
EXTRACT: note_on channel=9 note=35 velocity=0 time=0
EXTRACT: note_on channel=0 note=48 velocity=0 time=0
EXTRACT: note_on channel=5 note=75 velocity=0 time=0
EXTRACT: note_on channel=0 note=60 velocity=100 time=0
EXTRACT: note_on channel=0 note=63 velocity=100 time=0
EXTRACT: note_on channel=0 note=53 velocity=100 time=0
EXTRACT: note_on channel=2 note=77 velocity=100 time=0
EXTRACT: note_on channel=3 note=77 velocity=100 time=0
EXTRACT: note_on channel=5 note=75 velocity=100 time=0
EXTRACT: note_on channel=5 note=72 velocity=100 time=0
EXTRACT: note_on channel=5 note=72 velocity=0 time=0.2608695
EXTRACT: note_on channel=1 note=69 velocity=0 time=0
EXTRACT: note_on channel=0 note=60 velocity=0 time=0
EXTRACT: note_on channel=5 note=75 velocity=0 time=0
EXTRACT: note_on channel=0 note=63 velocity=0 time=0
EXTRACT: note_on channel=0 note=53 velocity=0 time=0
EXTRACT: note_on channel=0 note=60 velocity=100 time=0
EXTRACT: note_on channel=0 note=63 velocity=100 time=0
EXTRACT: note_on channel=0 note=57 velocity=100 time=0
EXTRACT: note_on channel=5 note=72 velocity=100 time=0
EXTRACT: note_on channel=5 note=75 velocity=100 time=0
EXTRACT: note_on channel=9 note=40 velocity=100 time=0
EXTRACT: note_on channel=9 note=45 velocity=100 time=0
EXTRACT: note_on channel=9 note=45 velocity=0 time=0.2608695
EXTRACT: note_on channel=0 note=63 velocity=0 time=0
EXTRACT: note_on channel=9 note=40 velocity=0 time=0
EXTRACT: note_on channel=0 note=57 velocity=0 time=0
EXTRACT: note_on channel=5 note=75 velocity=0 time=0
EXTRACT: note_on channel=0 note=60 velocity=0 time=0
EXTRACT: note_on channel=5 note=72 velocity=0 time=0
EXTRACT: note_on channel=5 note=75 velocity=100 time=0
EXTRACT: note_on channel=5 note=72 velocity=100 time=0
EXTRACT: note_on channel=5 note=72 velocity=0 time=0.2608695
EXTRACT: note_on channel=5 note=75 velocity=0 time=0
EXTRACT: note_on channel=1 note=72 velocity=100 time=0
EXTRACT: note_on channel=5 note=75 velocity=100 time=0
EXTRACT: note_on channel=5 note=72 velocity=100 time=0
EXTRACT: note_on channel=5 note=72 velocity=0 time=0.2608695
EXTRACT: note_on channel=2 note=77 velocity=0 time=0
EXTRACT: note_on channel=3 note=77 velocity=0 time=0
EXTRACT: note_on channel=5 note=75 velocity=0 time=0
EXTRACT: note_on channel=0 note=57 velocity=100 time=0
EXTRACT: note_on channel=0 note=60 velocity=100 time=0
EXTRACT: note_on channel=0 note=63 velocity=100 time=0
EXTRACT: note_on channel=5 note=72 velocity=100 time=0
EXTRACT: note_on channel=5 note=75 velocity=100 time=0
EXTRACT: note_on channel=9 note=35 velocity=100 time=0
EXTRACT: note_on channel=9 note=35 velocity=0 time=0.2608695
EXTRACT: note_on channel=5 note=72 velocity=0 time=0
EXTRACT: note_on channel=0 note=57 velocity=0 time=0
EXTRACT: note_on channel=0 note=60 velocity=0 time=0
EXTRACT: note_on channel=1 note=72 velocity=0 time=0
EXTRACT: note_on channel=5 note=75 velocity=0 time=0
EXTRACT: note_on channel=0 note=63 velocity=0 time=0
EXTRACT: note_on channel=2 note=77 velocity=100 time=0
EXTRACT: note_on channel=3 note=77 velocity=100 time=0
EXTRACT: note_on channel=5 note=75 velocity=100 time=0
EXTRACT: note_on channel=5 note=72 velocity=100 time=0
EXTRACT: note_on channel=9 note=40 velocity=100 time=0
EXTRACT: note_on channel=9 note=45 velocity=100 time=0
EXTRACT: note_on channel=9 note=45 velocity=0 time=0.2608695
EXTRACT: note_on channel=3 note=77 velocity=0 time=0
EXTRACT: note_on channel=5 note=75 velocity=0 time=0
EXTRACT: note_on channel=2 note=77 velocity=0 time=0
EXTRACT: note_on channel=9 note=40 velocity=0 time=0
EXTRACT: note_on channel=5 note=72 velocity=0 time=0
EXTRACT: note_on channel=0 note=53 velocity=100 time=0
EXTRACT: note_on channel=2 note=75 velocity=100 time=0
EXTRACT: note_on channel=3 note=75 velocity=100 time=0
EXTRACT: note_on channel=5 note=77 velocity=100 time=0
EXTRACT: note_on channel=5 note=73 velocity=100 time=0
EXTRACT: note_on channel=9 note=35 velocity=100 time=0
EXTRACT: note_on channel=9 note=35 velocity=0 time=0.2608695
EXTRACT: note_on channel=2 note=75 velocity=0 time=0
EXTRACT: note_on channel=3 note=75 velocity=0 time=0
EXTRACT: note_on channel=0 note=53 velocity=0 time=0
EXTRACT: note_on channel=5 note=73 velocity=0 time=0
EXTRACT: note_on channel=5 note=77 velocity=0 time=0
EXTRACT: note_on channel=0 note=61 velocity=100 time=0
EXTRACT: note_on channel=0 note=58 velocity=100 time=0
EXTRACT: note_on channel=1 note=70 velocity=100 time=0
EXTRACT: note_on channel=5 note=72 velocity=100 time=0
EXTRACT: note_on channel=5 note=75 velocity=100 time=0
EXTRACT: note_on channel=9 note=40 velocity=100 time=0
EXTRACT: note_on channel=9 note=35 velocity=100 time=0
EXTRACT: note_on channel=9 note=45 velocity=100 time=0
EXTRACT: note_on channel=9 note=45 velocity=0 time=0.2608695
EXTRACT: note_on channel=9 note=35 velocity=0 time=0
EXTRACT: note_on channel=0 note=58 velocity=0 time=0
EXTRACT: note_on channel=0 note=61 velocity=0 time=0
EXTRACT: note_on channel=9 note=40 velocity=0 time=0
EXTRACT: note_on channel=0 note=58 velocity=100 time=0
EXTRACT: note_on channel=0 note=61 velocity=100 time=0
EXTRACT: note_on channel=2 note=77 velocity=100 time=0
EXTRACT: note_on channel=3 note=77 velocity=100 time=0
EXTRACT: note_on channel=9 note=35 velocity=100 time=0
EXTRACT: note_on channel=9 note=40 velocity=100 time=0
EXTRACT: note_on channel=9 note=45 velocity=100 time=0
EXTRACT: note_on channel=9 note=45 velocity=0 time=0.2608695
EXTRACT: note_on channel=5 note=72 velocity=0 time=0
EXTRACT: note_on channel=0 note=58 velocity=0 time=0
EXTRACT: note_on channel=1 note=70 velocity=0 time=0
EXTRACT: note_on channel=9 note=40 velocity=0 time=0
EXTRACT: note_on channel=0 note=61 velocity=0 time=0
EXTRACT: note_on channel=9 note=35 velocity=0 time=0
EXTRACT: note_on channel=5 note=75 velocity=0 time=0
EXTRACT: note_on channel=0 note=58 velocity=100 time=0
EXTRACT: note_on channel=0 note=61 velocity=100 time=0
EXTRACT: note_on channel=5 note=73 velocity=100 time=0
EXTRACT: note_on channel=5 note=70 velocity=100 time=0
EXTRACT: note_on channel=9 note=45 velocity=100 time=0
EXTRACT: note_on channel=9 note=40 velocity=100 time=0
EXTRACT: note_on channel=9 note=35 velocity=100 time=0
EXTRACT: note_on channel=9 note=35 velocity=0 time=0.2608695
EXTRACT: note_on channel=0 note=58 velocity=0 time=0
EXTRACT: note_on channel=9 note=40 velocity=0 time=0
EXTRACT: note_on channel=9 note=45 velocity=0 time=0
EXTRACT: note_on channel=0 note=61 velocity=0 time=0
EXTRACT: note_on channel=5 note=73 velocity=0 time=0.2608695
EXTRACT: note_on channel=5 note=70 velocity=0 time=0
EXTRACT: note_on channel=1 note=73 velocity=100 time=0
EXTRACT: note_on channel=5 note=73 velocity=100 time=0
EXTRACT: note_on channel=5 note=70 velocity=100 time=0
EXTRACT: note_on channel=3 note=77 velocity=0 time=0.2608695
EXTRACT: note_on channel=2 note=77 velocity=0 time=0
EXTRACT: note_on channel=0 note=58 velocity=100 time=0
EXTRACT: note_on channel=0 note=61 velocity=100 time=0
EXTRACT: note_on channel=9 note=40 velocity=100 time=0
EXTRACT: note_on channel=9 note=35 velocity=100 time=0
EXTRACT: note_on channel=9 note=45 velocity=100 time=0
EXTRACT: note_on channel=9 note=45 velocity=0 time=0.2608695
EXTRACT: note_on channel=5 note=70 velocity=0 time=0
EXTRACT: note_on channel=0 note=61 velocity=0 time=0
EXTRACT: note_on channel=1 note=73 velocity=0 time=0
EXTRACT: note_on channel=5 note=73 velocity=0 time=0
EXTRACT: note_on channel=0 note=58 velocity=0 time=0
EXTRACT: note_on channel=9 note=40 velocity=0 time=0
EXTRACT: note_on channel=9 note=35 velocity=0 time=0
EXTRACT: note_on channel=0 note=58 velocity=100 time=0
EXTRACT: note_on channel=0 note=61 velocity=100 time=0
EXTRACT: note_on channel=2 note=78 velocity=100 time=0
EXTRACT: note_on channel=3 note=78 velocity=100 time=0
EXTRACT: note_on channel=5 note=73 velocity=100 time=0
EXTRACT: note_on channel=5 note=70 velocity=100 time=0
EXTRACT: note_on channel=9 note=45 velocity=100 time=0
EXTRACT: note_on channel=9 note=35 velocity=100 time=0
EXTRACT: note_on channel=9 note=40 velocity=100 time=0
EXTRACT: note_on channel=9 note=40 velocity=0 time=0.2608695
EXTRACT: note_on channel=3 note=78 velocity=0 time=0
EXTRACT: note_on channel=0 note=58 velocity=0 time=0
EXTRACT: note_on channel=5 note=73 velocity=0 time=0
EXTRACT: note_on channel=0 note=61 velocity=0 time=0
EXTRACT: note_on channel=2 note=78 velocity=0 time=0
EXTRACT: note_on channel=9 note=45 velocity=0 time=0
EXTRACT: note_on channel=5 note=70 velocity=0 time=0
EXTRACT: note_on channel=9 note=35 velocity=0 time=0
EXTRACT: note_on channel=0 note=53 velocity=100 time=0
EXTRACT: note_on channel=2 note=77 velocity=100 time=0
EXTRACT: note_on channel=3 note=77 velocity=100 time=0
EXTRACT: note_on channel=5 note=63 velocity=100 time=0
EXTRACT: note_on channel=5 note=75 velocity=100 time=0
EXTRACT: note_on channel=5 note=72 velocity=100 time=0
EXTRACT: note_on channel=5 note=72 velocity=0 time=0.2608695
EXTRACT: note_on channel=2 note=77 velocity=0 time=0
EXTRACT: note_on channel=3 note=77 velocity=0 time=0
EXTRACT: note_on channel=0 note=53 velocity=0 time=0
EXTRACT: note_on channel=5 note=75 velocity=0 time=0
EXTRACT: note_on channel=5 note=63 velocity=0 time=0
EXTRACT: note_on channel=0 note=46 velocity=100 time=0
EXTRACT: note_on channel=5 note=61 velocity=100 time=0
EXTRACT: note_on channel=5 note=73 velocity=100 time=0
EXTRACT: note_on channel=5 note=70 velocity=100 time=0
EXTRACT: note_on channel=9 note=57 velocity=100 time=0
EXTRACT: note_on channel=5 note=70 velocity=0 time=0.2608695
EXTRACT: note_on channel=5 note=73 velocity=0 time=0
EXTRACT: note_on channel=0 note=46 velocity=0 time=0
EXTRACT: note_on channel=5 note=61 velocity=0 time=0
EXTRACT: note_on channel=0 note=49 velocity=100 time=0
EXTRACT: note_on channel=5 note=61 velocity=100 time=0
EXTRACT: note_on channel=5 note=73 velocity=100 time=0
EXTRACT: note_on channel=5 note=70 velocity=100 time=0
EXTRACT: note_on channel=0 note=49 velocity=0 time=0.2608695
EXTRACT: note_on channel=9 note=57 velocity=0 time=0
EXTRACT: note_on channel=0 note=58 velocity=100 time=0
EXTRACT: note_on channel=0 note=61 velocity=100 time=0
EXTRACT: note_on channel=0 note=53 velocity=100 time=0
EXTRACT: note_on channel=0 note=53 velocity=0 time=0.2608695
EXTRACT: note_on channel=0 note=58 velocity=0 time=0
EXTRACT: note_on channel=0 note=61 velocity=0 time=0
EXTRACT: note_on channel=4 note=73 velocity=100 time=0
EXTRACT: note_on channel=4 note=73 velocity=0 time=0.2608695
EXTRACT: note_on channel=5 note=61 velocity=0 time=0
EXTRACT: note_on channel=5 note=73 velocity=0 time=0
EXTRACT: note_on channel=5 note=70 velocity=0 time=0
EXTRACT: note_on channel=4 note=73 velocity=100 time=0
EXTRACT: note_on channel=4 note=73 velocity=0 time=0.2608695
EXTRACT: note_on channel=4 note=73 velocity=100 time=0
EXTRACT: note_on channel=4 note=73 velocity=0 time=0.2608695
EXTRACT: note_on channel=4 note=73 velocity=100 time=0
EXTRACT: note_on channel=5 note=61 velocity=100 time=0
EXTRACT: note_on channel=5 note=70 velocity=100 time=0
EXTRACT: note_on channel=5 note=73 velocity=100 time=0
EXTRACT: note_on channel=5 note=73 velocity=0 time=0.2608695
EXTRACT: note_on channel=4 note=73 velocity=0 time=0
EXTRACT: note_on channel=5 note=61 velocity=0 time=0
EXTRACT: note_on channel=5 note=70 velocity=0 time=0
EXTRACT: note_on channel=4 note=75 velocity=100 time=0
EXTRACT: note_on channel=5 note=63 velocity=100 time=0
EXTRACT: note_on channel=5 note=72 velocity=100 time=0
EXTRACT: note_on channel=5 note=75 velocity=100 time=0
EXTRACT: note_on channel=5 note=75 velocity=0 time=0.2608695
EXTRACT: note_on channel=4 note=75 velocity=0 time=0
EXTRACT: note_on channel=5 note=63 velocity=0 time=0
EXTRACT: note_on channel=5 note=72 velocity=0 time=0
EXTRACT: note_on channel=4 note=75 velocity=100 time=0
EXTRACT: note_on channel=5 note=60 velocity=100 time=0
EXTRACT: note_on channel=5 note=69 velocity=100 time=0
EXTRACT: note_on channel=5 note=72 velocity=100 time=0
EXTRACT: note_on channel=5 note=72 velocity=0 time=0.2608695
EXTRACT: note_on channel=4 note=75 velocity=0 time=0
EXTRACT: note_on channel=5 note=60 velocity=0 time=0
EXTRACT: note_on channel=5 note=69 velocity=0 time=0
EXTRACT: note_on channel=4 note=72 velocity=100 time=0
EXTRACT: note_on channel=5 note=60 velocity=100 time=0
EXTRACT: note_on channel=5 note=69 velocity=100 time=0
EXTRACT: note_on channel=5 note=72 velocity=100 time=0
EXTRACT: note_on channel=4 note=72 velocity=0 time=0.2608695
EXTRACT: note_on channel=5 note=60 velocity=0 time=0.521739
EXTRACT: note_on channel=5 note=69 velocity=0 time=0
EXTRACT: note_on channel=5 note=72 velocity=0 time=0
EXTRACT: note_on channel=5 note=60 velocity=100 time=0.7826084999999999
EXTRACT: note_on channel=5 note=72 velocity=100 time=0
EXTRACT: note_on channel=5 note=75 velocity=100 time=0
EXTRACT: note_on channel=5 note=75 velocity=0 time=0.521739
EXTRACT: note_on channel=5 note=72 velocity=0 time=0
EXTRACT: note_on channel=5 note=60 velocity=0 time=0
EXTRACT: note_on channel=5 note=60 velocity=100 time=0
EXTRACT: note_on channel=5 note=72 velocity=100 time=0
EXTRACT: note_on channel=5 note=75 velocity=100 time=0
EXTRACT: note_on channel=5 note=75 velocity=0 time=0.2608695
EXTRACT: note_on channel=5 note=72 velocity=0 time=0
EXTRACT: note_on channel=5 note=60 velocity=0 time=0
EXTRACT: note_on channel=5 note=72 velocity=100 time=0
EXTRACT: note_on channel=5 note=60 velocity=100 time=0
EXTRACT: note_on channel=5 note=75 velocity=100 time=0
EXTRACT: note_on channel=5 note=75 velocity=0 time=0.2608695
EXTRACT: note_on channel=5 note=60 velocity=0 time=0
EXTRACT: note_on channel=5 note=72 velocity=0 time=0
EXTRACT: note_on channel=5 note=60 velocity=100 time=0
EXTRACT: note_on channel=5 note=72 velocity=100 time=0
EXTRACT: note_on channel=5 note=75 velocity=100 time=0
EXTRACT: note_on channel=5 note=75 velocity=0 time=0.2608695
EXTRACT: note_on channel=5 note=72 velocity=0 time=0
EXTRACT: note_on channel=5 note=60 velocity=0 time=0
EXTRACT: note_on channel=5 note=60 velocity=100 time=0
EXTRACT: note_on channel=5 note=72 velocity=100 time=0
EXTRACT: note_on channel=5 note=75 velocity=100 time=0
EXTRACT: note_on channel=5 note=72 velocity=0 time=0.2608695
EXTRACT: note_on channel=5 note=60 velocity=0 time=0
EXTRACT: note_on channel=5 note=75 velocity=0 time=0.2608695
EXTRACT: note_on channel=5 note=72 velocity=100 time=0
EXTRACT: note_on channel=5 note=60 velocity=100 time=0
EXTRACT: note_on channel=5 note=75 velocity=100 time=0
EXTRACT: note_on channel=5 note=75 velocity=0 time=0.2608695
EXTRACT: note_on channel=5 note=60 velocity=0 time=0
EXTRACT: note_on channel=5 note=72 velocity=0 time=0
EXTRACT: note_on channel=5 note=61 velocity=100 time=0
EXTRACT: note_on channel=5 note=73 velocity=100 time=0
EXTRACT: note_on channel=5 note=77 velocity=100 time=0
EXTRACT: note_on channel=5 note=77 velocity=0 time=0.2608695
EXTRACT: note_on channel=5 note=73 velocity=0 time=0
EXTRACT: note_on channel=5 note=61 velocity=0 time=0
EXTRACT: note_on channel=5 note=60 velocity=100 time=0
EXTRACT: note_on channel=5 note=72 velocity=100 time=0
EXTRACT: note_on channel=5 note=75 velocity=100 time=0
EXTRACT: note_on channel=5 note=72 velocity=0 time=0.2608695
EXTRACT: note_on channel=5 note=60 velocity=0 time=0
EXTRACT: note_on channel=5 note=75 velocity=0 time=0.2608695
EXTRACT: note_on channel=5 note=58 velocity=100 time=0
EXTRACT: note_on channel=5 note=70 velocity=100 time=0
EXTRACT: note_on channel=5 note=73 velocity=100 time=0
EXTRACT: note_on channel=5 note=70 velocity=0 time=0.2608695
EXTRACT: note_on channel=5 note=58 velocity=0 time=0
EXTRACT: note_on channel=5 note=73 velocity=0 time=0.2608695
EXTRACT: note_on channel=5 note=61 velocity=100 time=0
EXTRACT: note_on channel=5 note=70 velocity=100 time=0
EXTRACT: note_on channel=5 note=77 velocity=100 time=0
EXTRACT: note_on channel=5 note=70 velocity=0 time=0.2608695
EXTRACT: note_on channel=5 note=61 velocity=0 time=0
EXTRACT: note_on channel=5 note=77 velocity=0 time=0.2608695
EXTRACT: note_on channel=5 note=73 velocity=100 time=0
EXTRACT: note_on channel=5 note=70 velocity=100 time=0
EXTRACT: note_on channel=5 note=70 velocity=0 time=0.2608695
EXTRACT: note_on channel=5 note=73 velocity=0 time=0
EXTRACT: note_on channel=5 note=75 velocity=100 time=0
EXTRACT: note_on channel=5 note=63 velocity=100 time=0
EXTRACT: note_on channel=5 note=72 velocity=100 time=0
EXTRACT: note_on channel=5 note=72 velocity=0 time=0.2608695
EXTRACT: note_on channel=5 note=63 velocity=0 time=0
EXTRACT: note_on channel=5 note=75 velocity=0 time=0
EXTRACT: note_on channel=5 note=73 velocity=100 time=0
EXTRACT: note_on channel=5 note=61 velocity=100 time=0
EXTRACT: note_on channel=5 note=70 velocity=100 time=0
EXTRACT: note_on channel=5 note=70 velocity=0 time=0.2608695
EXTRACT: note_on channel=5 note=61 velocity=0 time=0
EXTRACT: note_on channel=5 note=73 velocity=0 time=0
EXTRACT: note_on channel=5 note=73 velocity=100 time=0
EXTRACT: note_on channel=5 note=61 velocity=100 time=0
EXTRACT: note_on channel=5 note=70 velocity=100 time=0
EXTRACT: note_on channel=4 note=73 velocity=100 time=0.521739
EXTRACT: note_on channel=4 note=73 velocity=0 time=0.2608695
EXTRACT: note_on channel=5 note=73 velocity=0 time=0
EXTRACT: note_on channel=5 note=61 velocity=0 time=0
EXTRACT: note_on channel=5 note=70 velocity=0 time=0
EXTRACT: note_on channel=4 note=73 velocity=100 time=0
EXTRACT: note_on channel=4 note=73 velocity=0 time=0.2608695
EXTRACT: note_on channel=4 note=73 velocity=100 time=0
EXTRACT: note_on channel=4 note=73 velocity=0 time=0.2608695
EXTRACT: note_on channel=4 note=73 velocity=100 time=0
EXTRACT: note_on channel=5 note=73 velocity=100 time=0
EXTRACT: note_on channel=5 note=70 velocity=100 time=0
EXTRACT: note_on channel=5 note=61 velocity=100 time=0
EXTRACT: note_on channel=5 note=61 velocity=0 time=0.2608695
EXTRACT: note_on channel=4 note=73 velocity=0 time=0
EXTRACT: note_on channel=5 note=73 velocity=0 time=0
EXTRACT: note_on channel=5 note=70 velocity=0 time=0
EXTRACT: note_on channel=4 note=75 velocity=100 time=0
EXTRACT: note_on channel=5 note=75 velocity=100 time=0
EXTRACT: note_on channel=5 note=72 velocity=100 time=0
EXTRACT: note_on channel=5 note=63 velocity=100 time=0
EXTRACT: note_on channel=5 note=63 velocity=0 time=0.2608695
EXTRACT: note_on channel=4 note=75 velocity=0 time=0
EXTRACT: note_on channel=5 note=75 velocity=0 time=0
EXTRACT: note_on channel=5 note=72 velocity=0 time=0
EXTRACT: note_on channel=4 note=75 velocity=100 time=0
EXTRACT: note_on channel=5 note=72 velocity=100 time=0
EXTRACT: note_on channel=5 note=60 velocity=100 time=0
EXTRACT: note_on channel=5 note=69 velocity=100 time=0
EXTRACT: note_on channel=5 note=69 velocity=0 time=0.2608695
EXTRACT: note_on channel=4 note=75 velocity=0 time=0
EXTRACT: note_on channel=5 note=72 velocity=0 time=0
EXTRACT: note_on channel=5 note=60 velocity=0 time=0
EXTRACT: note_on channel=4 note=72 velocity=100 time=0
EXTRACT: note_on channel=5 note=72 velocity=100 time=0
EXTRACT: note_on channel=5 note=60 velocity=100 time=0
EXTRACT: note_on channel=5 note=69 velocity=100 time=0
EXTRACT: note_on channel=4 note=72 velocity=0 time=0.2608695
EXTRACT: note_on channel=5 note=72 velocity=0 time=0.521739
EXTRACT: note_on channel=5 note=60 velocity=0 time=0
EXTRACT: note_on channel=5 note=69 velocity=0 time=0
EXTRACT: note_on channel=5 note=75 velocity=100 time=0.7826084999999999
EXTRACT: note_on channel=5 note=63 velocity=100 time=0
EXTRACT: note_on channel=5 note=72 velocity=100 time=0
EXTRACT: note_on channel=5 note=72 velocity=0 time=0.521739
EXTRACT: note_on channel=5 note=63 velocity=0 time=0
EXTRACT: note_on channel=5 note=75 velocity=0 time=0
EXTRACT: note_on channel=5 note=75 velocity=100 time=0
EXTRACT: note_on channel=5 note=72 velocity=100 time=0
EXTRACT: note_on channel=5 note=63 velocity=100 time=0
EXTRACT: note_on channel=5 note=63 velocity=0 time=0.2608695
EXTRACT: note_on channel=5 note=72 velocity=0 time=0
EXTRACT: note_on channel=5 note=75 velocity=0 time=0
EXTRACT: note_on channel=5 note=75 velocity=100 time=0
EXTRACT: note_on channel=5 note=72 velocity=100 time=0
EXTRACT: note_on channel=5 note=63 velocity=100 time=0
EXTRACT: note_on channel=5 note=63 velocity=0 time=0.2608695
EXTRACT: note_on channel=5 note=72 velocity=0 time=0
EXTRACT: note_on channel=5 note=75 velocity=0 time=0
EXTRACT: note_on channel=5 note=75 velocity=100 time=0
EXTRACT: note_on channel=5 note=63 velocity=100 time=0
EXTRACT: note_on channel=5 note=72 velocity=100 time=0
EXTRACT: note_on channel=5 note=72 velocity=0 time=0.2608695
EXTRACT: note_on channel=5 note=63 velocity=0 time=0
EXTRACT: note_on channel=5 note=75 velocity=0 time=0
EXTRACT: note_on channel=5 note=75 velocity=100 time=0
EXTRACT: note_on channel=5 note=63 velocity=100 time=0
EXTRACT: note_on channel=5 note=72 velocity=100 time=0
EXTRACT: note_on channel=5 note=72 velocity=0 time=0.2608695
EXTRACT: note_on channel=5 note=63 velocity=0 time=0
EXTRACT: note_on channel=5 note=75 velocity=0 time=0.2608695
EXTRACT: note_on channel=5 note=75 velocity=100 time=0
EXTRACT: note_on channel=5 note=63 velocity=100 time=0
EXTRACT: note_on channel=5 note=72 velocity=100 time=0
EXTRACT: note_on channel=5 note=72 velocity=0 time=0.2608695
EXTRACT: note_on channel=5 note=63 velocity=0 time=0
EXTRACT: note_on channel=5 note=75 velocity=0 time=0
EXTRACT: note_on channel=5 note=77 velocity=100 time=0
EXTRACT: note_on channel=5 note=73 velocity=100 time=0
EXTRACT: note_on channel=5 note=65 velocity=100 time=0
EXTRACT: note_on channel=5 note=65 velocity=0 time=0.2608695
EXTRACT: note_on channel=5 note=73 velocity=0 time=0
EXTRACT: note_on channel=5 note=77 velocity=0 time=0
EXTRACT: note_on channel=5 note=75 velocity=100 time=0
EXTRACT: note_on channel=5 note=72 velocity=100 time=0
EXTRACT: note_on channel=5 note=63 velocity=100 time=0
EXTRACT: note_on channel=5 note=63 velocity=0 time=0.2608695
EXTRACT: note_on channel=5 note=72 velocity=0 time=0
EXTRACT: note_on channel=5 note=75 velocity=0 time=0.2608695
EXTRACT: note_on channel=5 note=73 velocity=100 time=0
EXTRACT: note_on channel=5 note=61 velocity=100 time=0
EXTRACT: note_on channel=5 note=73 velocity=100 time=0
EXTRACT: note_on channel=5 note=73 velocity=0 time=0.2608695
EXTRACT: note_on channel=5 note=61 velocity=0 time=0
EXTRACT: note_on channel=5 note=73 velocity=0 time=0.2608695
EXTRACT: note_on channel=5 note=58 velocity=100 time=0
EXTRACT: note_on channel=5 note=77 velocity=100 time=0
EXTRACT: note_on channel=5 note=61 velocity=100 time=0
EXTRACT: note_on channel=5 note=73 velocity=100 time=0
EXTRACT: note_on channel=5 note=73 velocity=0 time=0.2608695
EXTRACT: note_on channel=5 note=61 velocity=0 time=0
EXTRACT: note_on channel=5 note=77 velocity=0 time=0.2608695
EXTRACT: note_on channel=5 note=58 velocity=0 time=0
INTERVALS89 - INeedToKnow1.mid
unison337
2m28
2M4
3m23
3M451
4m77
4M42
5m84
5M135
6m76
7m27
7M0