EXTRACT: control_change channel=0 control=121 value=0 time=0
EXTRACT: program_change channel=0 program=65 time=0
EXTRACT: control_change channel=0 control=7 value=100 time=0
EXTRACT: control_change channel=0 control=10 value=64 time=0
EXTRACT: control_change channel=0 control=91 value=0 time=0
EXTRACT: control_change channel=0 control=93 value=0 time=0
EXTRACT: control_change channel=1 control=121 value=0 time=0
EXTRACT: program_change channel=1 program=65 time=0
EXTRACT: control_change channel=1 control=7 value=100 time=0
EXTRACT: control_change channel=1 control=10 value=64 time=0
EXTRACT: control_change channel=1 control=91 value=0 time=0
EXTRACT: control_change channel=1 control=93 value=0 time=0
EXTRACT: control_change channel=2 control=121 value=0 time=0
EXTRACT: program_change channel=2 program=66 time=0
EXTRACT: control_change channel=2 control=7 value=100 time=0
EXTRACT: control_change channel=2 control=10 value=64 time=0
EXTRACT: control_change channel=2 control=91 value=0 time=0
EXTRACT: control_change channel=2 control=93 value=0 time=0
EXTRACT: control_change channel=3 control=121 value=0 time=0
EXTRACT: program_change channel=3 program=0 time=0
EXTRACT: control_change channel=3 control=7 value=100 time=0
EXTRACT: control_change channel=3 control=10 value=64 time=0
EXTRACT: control_change channel=3 control=91 value=0 time=0
EXTRACT: control_change channel=3 control=93 value=0 time=0
EXTRACT: control_change channel=9 control=121 value=0 time=0
EXTRACT: program_change channel=9 program=0 time=0
EXTRACT: control_change channel=9 control=7 value=100 time=0
EXTRACT: control_change channel=9 control=10 value=64 time=0
EXTRACT: control_change channel=9 control=91 value=0 time=0
EXTRACT: control_change channel=9 control=93 value=0 time=0
EXTRACT: control_change channel=9 control=121 value=0 time=0
EXTRACT: program_change channel=9 program=0 time=0
EXTRACT: control_change channel=9 control=7 value=100 time=0
EXTRACT: control_change channel=9 control=10 value=64 time=0
EXTRACT: control_change channel=9 control=91 value=0 time=0
EXTRACT: control_change channel=9 control=93 value=0 time=0
EXTRACT: note_on channel=9 note=77 velocity=80 time=0
EXTRACT: note_on channel=9 note=77 velocity=0 time=0.49895833333333334
EXTRACT: note_on channel=9 note=77 velocity=80 time=0.0010416666666666667
EXTRACT: note_on channel=9 note=77 velocity=0 time=0.49895833333333334
EXTRACT: note_on channel=9 note=77 velocity=80 time=0.0010416666666666667
EXTRACT: note_on channel=9 note=77 velocity=0 time=0.49895833333333334
EXTRACT: note_on channel=9 note=77 velocity=80 time=0.0010416666666666667
EXTRACT: note_on channel=9 note=77 velocity=0 time=0.49895833333333334
EXTRACT: note_on channel=1 note=67 velocity=64 time=0.0010416666666666667
EXTRACT: note_on channel=2 note=63 velocity=64 time=0
EXTRACT: note_on channel=3 note=67 velocity=64 time=0
EXTRACT: note_on channel=3 note=48 velocity=64 time=0
EXTRACT: note_on channel=9 note=77 velocity=80 time=0
EXTRACT: note_on channel=9 note=77 velocity=0 time=0.24895833333333334
EXTRACT: note_on channel=0 note=60 velocity=80 time=0.5010416666666666
EXTRACT: note_on channel=0 note=60 velocity=0 time=0.24895833333333334
EXTRACT: note_on channel=0 note=63 velocity=80 time=0.0010416666666666667
EXTRACT: note_on channel=0 note=63 velocity=0 time=0.49895833333333334
EXTRACT: note_on channel=0 note=67 velocity=80 time=0.0010416666666666667
EXTRACT: note_on channel=3 note=67 velocity=0 time=0.3989583333333333
EXTRACT: note_on channel=3 note=48 velocity=0 time=0
EXTRACT: note_on channel=0 note=67 velocity=0 time=0.1
EXTRACT: note_on channel=1 note=67 velocity=0 time=0
EXTRACT: note_on channel=2 note=63 velocity=0 time=0
EXTRACT: note_on channel=0 note=68 velocity=80 time=0.0010416666666666667
EXTRACT: note_on channel=1 note=68 velocity=64 time=0
EXTRACT: note_on channel=2 note=63 velocity=64 time=0
EXTRACT: note_on channel=3 note=68 velocity=64 time=0
EXTRACT: note_on channel=3 note=48 velocity=64 time=0
EXTRACT: note_on channel=9 note=75 velocity=80 time=0
EXTRACT: note_on channel=9 note=77 velocity=80 time=0
EXTRACT: note_on channel=9 note=77 velocity=0 time=0.24895833333333334
EXTRACT: note_on channel=9 note=75 velocity=0 time=0.125
EXTRACT: note_on channel=9 note=75 velocity=80 time=0.0010416666666666667
EXTRACT: note_on channel=0 note=68 velocity=0 time=0.12395833333333334
EXTRACT: note_on channel=9 note=75 velocity=0 time=0
EXTRACT: note_on channel=0 note=60 velocity=80 time=0.25104166666666666
EXTRACT: note_on channel=9 note=75 velocity=80 time=0
EXTRACT: note_on channel=0 note=60 velocity=0 time=0.24895833333333334
EXTRACT: note_on channel=9 note=75 velocity=0 time=0
EXTRACT: note_on channel=0 note=63 velocity=80 time=0.0010416666666666667
EXTRACT: note_on channel=9 note=75 velocity=80 time=0.25
EXTRACT: note_on channel=0 note=63 velocity=0 time=0.24895833333333334
EXTRACT: note_on channel=9 note=75 velocity=0 time=0
EXTRACT: note_on channel=0 note=68 velocity=80 time=0.0010416666666666667
EXTRACT: note_on channel=9 note=75 velocity=80 time=0
EXTRACT: note_on channel=3 note=68 velocity=0 time=0.3989583333333333
EXTRACT: note_on channel=3 note=48 velocity=0 time=0
EXTRACT: note_on channel=0 note=68 velocity=0 time=0.1
EXTRACT: note_on channel=1 note=68 velocity=0 time=0
EXTRACT: note_on channel=2 note=63 velocity=0 time=0
EXTRACT: note_on channel=9 note=75 velocity=0 time=0
EXTRACT: note_on channel=0 note=67 velocity=80 time=0.0010416666666666667
EXTRACT: note_on channel=1 note=67 velocity=64 time=0
EXTRACT: note_on channel=2 note=63 velocity=64 time=0
EXTRACT: note_on channel=3 note=67 velocity=64 time=0
EXTRACT: note_on channel=3 note=51 velocity=64 time=0
EXTRACT: note_on channel=9 note=75 velocity=80 time=0
EXTRACT: note_on channel=9 note=77 velocity=80 time=0
EXTRACT: note_on channel=9 note=77 velocity=0 time=0.24895833333333334
EXTRACT: note_on channel=9 note=75 velocity=0 time=0.125
EXTRACT: note_on channel=9 note=75 velocity=80 time=0.0010416666666666667
EXTRACT: note_on channel=0 note=67 velocity=0 time=0.12395833333333334
EXTRACT: note_on channel=9 note=75 velocity=0 time=0
EXTRACT: note_on channel=0 note=63 velocity=80 time=0.25104166666666666
EXTRACT: note_on channel=9 note=75 velocity=80 time=0
EXTRACT: note_on channel=0 note=63 velocity=0 time=0.24895833333333334
EXTRACT: note_on channel=9 note=75 velocity=0 time=0
EXTRACT: note_on channel=0 note=63 velocity=80 time=0.0010416666666666667
EXTRACT: note_on channel=9 note=75 velocity=80 time=0.25
EXTRACT: note_on channel=0 note=63 velocity=0 time=0.24895833333333334
EXTRACT: note_on channel=9 note=75 velocity=0 time=0
EXTRACT: note_on channel=0 note=67 velocity=80 time=0.0010416666666666667
EXTRACT: note_on channel=9 note=75 velocity=80 time=0
EXTRACT: note_on channel=3 note=67 velocity=0 time=0.3989583333333333
EXTRACT: note_on channel=3 note=51 velocity=0 time=0
EXTRACT: note_on channel=0 note=67 velocity=0 time=0.1
EXTRACT: note_on channel=1 note=67 velocity=0 time=0
EXTRACT: note_on channel=2 note=63 velocity=0 time=0
EXTRACT: note_on channel=9 note=75 velocity=0 time=0
EXTRACT: note_on channel=0 note=65 velocity=80 time=0.0010416666666666667
EXTRACT: note_on channel=1 note=65 velocity=64 time=0
EXTRACT: note_on channel=2 note=62 velocity=64 time=0
EXTRACT: note_on channel=3 note=65 velocity=64 time=0
EXTRACT: note_on channel=3 note=46 velocity=64 time=0
EXTRACT: note_on channel=9 note=75 velocity=80 time=0
EXTRACT: note_on channel=9 note=77 velocity=80 time=0
EXTRACT: note_on channel=9 note=77 velocity=0 time=0.24895833333333334
EXTRACT: note_on channel=9 note=75 velocity=0 time=0.125
EXTRACT: note_on channel=9 note=75 velocity=80 time=0.0010416666666666667
EXTRACT: note_on channel=9 note=75 velocity=0 time=0.12395833333333334
EXTRACT: note_on channel=0 note=65 velocity=0 time=0.25
EXTRACT: note_on channel=0 note=65 velocity=80 time=0.0010416666666666667
EXTRACT: note_on channel=9 note=75 velocity=80 time=0
EXTRACT: note_on channel=3 note=65 velocity=0 time=0.19895833333333332
EXTRACT: note_on channel=3 note=46 velocity=0 time=0
EXTRACT: note_on channel=0 note=65 velocity=0 time=0.05
EXTRACT: note_on channel=1 note=65 velocity=0 time=0
EXTRACT: note_on channel=2 note=62 velocity=0 time=0
EXTRACT: note_on channel=9 note=75 velocity=0 time=0
EXTRACT: note_on channel=0 note=65 velocity=80 time=0.0010416666666666667
EXTRACT: note_on channel=1 note=65 velocity=64 time=0
EXTRACT: note_on channel=2 note=62 velocity=64 time=0
EXTRACT: note_on channel=3 note=65 velocity=64 time=0
EXTRACT: note_on channel=3 note=46 velocity=64 time=0
EXTRACT: note_on channel=9 note=77 velocity=80 time=0
EXTRACT: note_on channel=9 note=75 velocity=80 time=0.25
EXTRACT: note_on channel=3 note=65 velocity=0 time=0.10520833333333333
EXTRACT: note_on channel=3 note=46 velocity=0 time=0
EXTRACT: note_on channel=0 note=65 velocity=0 time=0.01875
EXTRACT: note_on channel=1 note=65 velocity=0 time=0
EXTRACT: note_on channel=2 note=62 velocity=0 time=0
EXTRACT: note_on channel=9 note=77 velocity=0 time=0
EXTRACT: note_on channel=0 note=63 velocity=80 time=0.0010416666666666667
EXTRACT: note_on channel=1 note=63 velocity=64 time=0
EXTRACT: note_on channel=2 note=60 velocity=64 time=0
EXTRACT: note_on channel=3 note=63 velocity=64 time=0
EXTRACT: note_on channel=3 note=50 velocity=64 time=0
EXTRACT: note_on channel=9 note=77 velocity=80 time=0
EXTRACT: note_on channel=9 note=75 velocity=0 time=0.12395833333333334
EXTRACT: note_on channel=9 note=75 velocity=80 time=0.0010416666666666667
EXTRACT: note_on channel=3 note=63 velocity=0 time=0.11145833333333333
EXTRACT: note_on channel=3 note=50 velocity=0 time=0
EXTRACT: note_on channel=0 note=63 velocity=0 time=0.0125
EXTRACT: note_on channel=1 note=63 velocity=0 time=0
EXTRACT: note_on channel=2 note=60 velocity=0 time=0
EXTRACT: note_on channel=9 note=77 velocity=0 time=0
EXTRACT: note_on channel=0 note=62 velocity=80 time=0.0010416666666666667
EXTRACT: note_on channel=1 note=62 velocity=64 time=0
EXTRACT: note_on channel=2 note=58 velocity=64 time=0
EXTRACT: note_on channel=3 note=62 velocity=64 time=0
EXTRACT: note_on channel=3 note=51 velocity=64 time=0
EXTRACT: note_on channel=9 note=77 velocity=80 time=0
EXTRACT: note_on channel=3 note=62 velocity=0 time=0.35520833333333335
EXTRACT: note_on channel=3 note=51 velocity=0 time=0
EXTRACT: note_on channel=0 note=62 velocity=0 time=0.01875
EXTRACT: note_on channel=1 note=62 velocity=0 time=0
EXTRACT: note_on channel=2 note=58 velocity=0 time=0
EXTRACT: note_on channel=9 note=75 velocity=0 time=0
EXTRACT: note_on channel=9 note=77 velocity=0 time=0
EXTRACT: note_on channel=0 note=60 velocity=80 time=0.0010416666666666667
EXTRACT: note_on channel=1 note=67 velocity=80 time=0
EXTRACT: note_on channel=2 note=63 velocity=80 time=0
EXTRACT: note_on channel=3 note=67 velocity=80 time=0
EXTRACT: note_on channel=3 note=48 velocity=80 time=0
EXTRACT: note_on channel=9 note=75 velocity=80 time=0
EXTRACT: note_on channel=9 note=77 velocity=80 time=0
EXTRACT: note_on channel=9 note=77 velocity=0 time=0.24895833333333334
EXTRACT: note_on channel=9 note=75 velocity=0 time=0.125
EXTRACT: note_on channel=9 note=75 velocity=80 time=0.0010416666666666667
EXTRACT: note_on channel=0 note=60 velocity=0 time=0.12395833333333334
EXTRACT: note_on channel=9 note=75 velocity=0 time=0
EXTRACT: note_on channel=0 note=60 velocity=80 time=0.25104166666666666
EXTRACT: note_on channel=9 note=75 velocity=80 time=0
EXTRACT: note_on channel=0 note=60 velocity=0 time=0.24895833333333334
EXTRACT: note_on channel=9 note=75 velocity=0 time=0
EXTRACT: note_on channel=0 note=63 velocity=80 time=0.0010416666666666667
EXTRACT: note_on channel=9 note=75 velocity=80 time=0.25
EXTRACT: note_on channel=0 note=63 velocity=0 time=0.24895833333333334
EXTRACT: note_on channel=9 note=75 velocity=0 time=0
EXTRACT: note_on channel=0 note=67 velocity=80 time=0.0010416666666666667
EXTRACT: note_on channel=9 note=75 velocity=80 time=0
EXTRACT: note_on channel=3 note=67 velocity=0 time=0.3989583333333333
EXTRACT: note_on channel=3 note=48 velocity=0 time=0
EXTRACT: note_on channel=0 note=67 velocity=0 time=0.1
EXTRACT: note_on channel=1 note=67 velocity=0 time=0
EXTRACT: note_on channel=2 note=63 velocity=0 time=0
EXTRACT: note_on channel=9 note=75 velocity=0 time=0
EXTRACT: note_on channel=0 note=68 velocity=80 time=0.0010416666666666667
EXTRACT: note_on channel=1 note=68 velocity=80 time=0
EXTRACT: note_on channel=2 note=63 velocity=80 time=0
EXTRACT: note_on channel=3 note=68 velocity=80 time=0
EXTRACT: note_on channel=3 note=48 velocity=80 time=0
EXTRACT: note_on channel=9 note=75 velocity=80 time=0
EXTRACT: note_on channel=9 note=77 velocity=80 time=0
EXTRACT: note_on channel=9 note=77 velocity=0 time=0.24895833333333334
EXTRACT: note_on channel=9 note=75 velocity=0 time=0.125
EXTRACT: note_on channel=9 note=75 velocity=80 time=0.0010416666666666667
EXTRACT: note_on channel=0 note=68 velocity=0 time=0.12395833333333334
EXTRACT: note_on channel=9 note=75 velocity=0 time=0
EXTRACT: note_on channel=0 note=68 velocity=80 time=0.25104166666666666
EXTRACT: note_on channel=9 note=75 velocity=80 time=0
EXTRACT: note_on channel=0 note=68 velocity=0 time=0.24895833333333334
EXTRACT: note_on channel=9 note=75 velocity=0 time=0
EXTRACT: note_on channel=0 note=68 velocity=80 time=0.0010416666666666667
EXTRACT: note_on channel=0 note=68 velocity=0 time=0.24895833333333334
EXTRACT: note_on channel=0 note=65 velocity=80 time=0.0010416666666666667
EXTRACT: note_on channel=9 note=75 velocity=80 time=0
EXTRACT: note_on channel=0 note=65 velocity=0 time=0.24895833333333334
EXTRACT: note_on channel=9 note=75 velocity=0 time=0
EXTRACT: note_on channel=0 note=65 velocity=80 time=0.0010416666666666667
EXTRACT: note_on channel=9 note=75 velocity=80 time=0
EXTRACT: note_on channel=0 note=65 velocity=0 time=0.24895833333333334
EXTRACT: note_on channel=0 note=68 velocity=80 time=0.0010416666666666667
EXTRACT: note_on channel=3 note=68 velocity=0 time=0.14895833333333333
EXTRACT: note_on channel=3 note=48 velocity=0 time=0
EXTRACT: note_on channel=0 note=68 velocity=0 time=0.1
EXTRACT: note_on channel=1 note=68 velocity=0 time=0
EXTRACT: note_on channel=2 note=63 velocity=0 time=0
EXTRACT: note_on channel=9 note=75 velocity=0 time=0
EXTRACT: note_on channel=0 note=67 velocity=80 time=0.0010416666666666667
EXTRACT: note_on channel=1 note=67 velocity=80 time=0
EXTRACT: note_on channel=2 note=63 velocity=80 time=0
EXTRACT: note_on channel=3 note=67 velocity=80 time=0
EXTRACT: note_on channel=3 note=51 velocity=80 time=0
EXTRACT: note_on channel=9 note=75 velocity=80 time=0
EXTRACT: note_on channel=9 note=77 velocity=80 time=0
EXTRACT: note_on channel=9 note=77 velocity=0 time=0.24895833333333334
EXTRACT: note_on channel=9 note=75 velocity=0 time=0.125
EXTRACT: note_on channel=9 note=75 velocity=80 time=0.0010416666666666667
EXTRACT: note_on channel=0 note=67 velocity=0 time=0.12395833333333334
EXTRACT: note_on channel=9 note=75 velocity=0 time=0
EXTRACT: note_on channel=0 note=63 velocity=80 time=0.25104166666666666
EXTRACT: note_on channel=9 note=75 velocity=80 time=0
EXTRACT: note_on channel=0 note=63 velocity=0 time=0.24895833333333334
EXTRACT: note_on channel=9 note=75 velocity=0 time=0
EXTRACT: note_on channel=0 note=63 velocity=80 time=0.0010416666666666667
EXTRACT: note_on channel=9 note=75 velocity=80 time=0.25
EXTRACT: note_on channel=0 note=63 velocity=0 time=0.24895833333333334
EXTRACT: note_on channel=9 note=75 velocity=0 time=0
EXTRACT: note_on channel=0 note=67 velocity=80 time=0.0010416666666666667
EXTRACT: note_on channel=9 note=75 velocity=80 time=0
EXTRACT: note_on channel=3 note=67 velocity=0 time=0.3989583333333333
EXTRACT: note_on channel=3 note=51 velocity=0 time=0
EXTRACT: note_on channel=0 note=67 velocity=0 time=0.1
EXTRACT: note_on channel=1 note=67 velocity=0 time=0
EXTRACT: note_on channel=2 note=63 velocity=0 time=0
EXTRACT: note_on channel=9 note=75 velocity=0 time=0
EXTRACT: note_on channel=0 note=65 velocity=80 time=0.0010416666666666667
EXTRACT: note_on channel=1 note=65 velocity=80 time=0
EXTRACT: note_on channel=2 note=62 velocity=80 time=0
EXTRACT: note_on channel=3 note=65 velocity=80 time=0
EXTRACT: note_on channel=3 note=46 velocity=80 time=0
EXTRACT: note_on channel=9 note=75 velocity=80 time=0
EXTRACT: note_on channel=9 note=77 velocity=80 time=0
EXTRACT: note_on channel=9 note=77 velocity=0 time=0.24895833333333334
EXTRACT: note_on channel=9 note=75 velocity=0 time=0.125
EXTRACT: note_on channel=9 note=75 velocity=80 time=0.0010416666666666667
EXTRACT: note_on channel=9 note=75 velocity=0 time=0.12395833333333334
EXTRACT: note_on channel=0 note=65 velocity=0 time=0.25
EXTRACT: note_on channel=0 note=65 velocity=80 time=0.0010416666666666667
EXTRACT: note_on channel=9 note=75 velocity=80 time=0
EXTRACT: note_on channel=3 note=65 velocity=0 time=0.19895833333333332
EXTRACT: note_on channel=3 note=46 velocity=0 time=0
EXTRACT: note_on channel=0 note=65 velocity=0 time=0.05
EXTRACT: note_on channel=1 note=65 velocity=0 time=0
EXTRACT: note_on channel=2 note=62 velocity=0 time=0
EXTRACT: note_on channel=9 note=75 velocity=0 time=0
EXTRACT: note_on channel=0 note=65 velocity=80 time=0.0010416666666666667
EXTRACT: note_on channel=1 note=65 velocity=80 time=0
EXTRACT: note_on channel=2 note=62 velocity=80 time=0
EXTRACT: note_on channel=3 note=65 velocity=80 time=0
EXTRACT: note_on channel=3 note=46 velocity=80 time=0
EXTRACT: note_on channel=9 note=77 velocity=80 time=0
EXTRACT: note_on channel=9 note=75 velocity=80 time=0.25
EXTRACT: note_on channel=3 note=65 velocity=0 time=0.10520833333333333
EXTRACT: note_on channel=3 note=46 velocity=0 time=0
EXTRACT: note_on channel=0 note=65 velocity=0 time=0.01875
EXTRACT: note_on channel=1 note=65 velocity=0 time=0
EXTRACT: note_on channel=2 note=62 velocity=0 time=0
EXTRACT: note_on channel=9 note=77 velocity=0 time=0
EXTRACT: note_on channel=0 note=63 velocity=80 time=0.0010416666666666667
EXTRACT: note_on channel=1 note=63 velocity=80 time=0
EXTRACT: note_on channel=2 note=60 velocity=80 time=0
EXTRACT: note_on channel=3 note=63 velocity=80 time=0
EXTRACT: note_on channel=3 note=50 velocity=80 time=0
EXTRACT: note_on channel=9 note=77 velocity=80 time=0
EXTRACT: note_on channel=9 note=75 velocity=0 time=0.12395833333333334
EXTRACT: note_on channel=9 note=75 velocity=80 time=0.0010416666666666667
EXTRACT: note_on channel=3 note=63 velocity=0 time=0.11145833333333333
EXTRACT: note_on channel=3 note=50 velocity=0 time=0
EXTRACT: note_on channel=0 note=63 velocity=0 time=0.0125
EXTRACT: note_on channel=1 note=63 velocity=0 time=0
EXTRACT: note_on channel=2 note=60 velocity=0 time=0
EXTRACT: note_on channel=9 note=77 velocity=0 time=0
EXTRACT: note_on channel=0 note=62 velocity=80 time=0.0010416666666666667
EXTRACT: note_on channel=1 note=62 velocity=80 time=0
EXTRACT: note_on channel=2 note=58 velocity=80 time=0
EXTRACT: note_on channel=3 note=62 velocity=80 time=0
EXTRACT: note_on channel=3 note=51 velocity=80 time=0
EXTRACT: note_on channel=9 note=77 velocity=80 time=0
EXTRACT: note_on channel=3 note=62 velocity=0 time=0.35520833333333335
EXTRACT: note_on channel=3 note=51 velocity=0 time=0
EXTRACT: note_on channel=0 note=62 velocity=0 time=0.01875
EXTRACT: note_on channel=1 note=62 velocity=0 time=0
EXTRACT: note_on channel=2 note=58 velocity=0 time=0
EXTRACT: note_on channel=9 note=75 velocity=0 time=0
EXTRACT: note_on channel=9 note=77 velocity=0 time=0
EXTRACT: note_on channel=0 note=60 velocity=96 time=0.0010416666666666667
EXTRACT: note_on channel=2 note=60 velocity=96 time=0
EXTRACT: note_on channel=3 note=48 velocity=96 time=0
EXTRACT: note_on channel=9 note=75 velocity=80 time=0
EXTRACT: note_on channel=9 note=77 velocity=80 time=0
EXTRACT: note_on channel=0 note=60 velocity=0 time=0.24895833333333334
EXTRACT: note_on channel=2 note=60 velocity=0 time=0
EXTRACT: note_on channel=0 note=60 velocity=96 time=0.0010416666666666667
EXTRACT: note_on channel=2 note=60 velocity=96 time=0
EXTRACT: note_on channel=9 note=75 velocity=0 time=0.12395833333333334
EXTRACT: note_on channel=9 note=75 velocity=80 time=0.0010416666666666667
EXTRACT: note_on channel=0 note=60 velocity=0 time=0.12395833333333334
EXTRACT: note_on channel=2 note=60 velocity=0 time=0
EXTRACT: note_on channel=9 note=75 velocity=0 time=0
EXTRACT: note_on channel=9 note=77 velocity=0 time=0
EXTRACT: note_on channel=0 note=60 velocity=96 time=0.0010416666666666667
EXTRACT: note_on channel=2 note=60 velocity=96 time=0
EXTRACT: note_on channel=0 note=60 velocity=0 time=0.24895833333333334
EXTRACT: note_on channel=2 note=60 velocity=0 time=0
EXTRACT: note_on channel=0 note=62 velocity=96 time=0.0010416666666666667
EXTRACT: note_on channel=2 note=62 velocity=96 time=0
EXTRACT: note_on channel=9 note=75 velocity=80 time=0
EXTRACT: note_on channel=9 note=77 velocity=80 time=0
EXTRACT: note_on channel=0 note=62 velocity=0 time=0.24895833333333334
EXTRACT: note_on channel=2 note=62 velocity=0 time=0
EXTRACT: note_on channel=9 note=75 velocity=0 time=0
EXTRACT: note_on channel=9 note=77 velocity=0 time=0
EXTRACT: note_on channel=0 note=63 velocity=96 time=0.0010416666666666667
EXTRACT: note_on channel=2 note=63 velocity=96 time=0
EXTRACT: note_on channel=0 note=63 velocity=0 time=0.24895833333333334
EXTRACT: note_on channel=2 note=63 velocity=0 time=0
EXTRACT: note_on channel=0 note=63 velocity=96 time=0.0010416666666666667
EXTRACT: note_on channel=2 note=63 velocity=96 time=0
EXTRACT: note_on channel=9 note=75 velocity=80 time=0
EXTRACT: note_on channel=9 note=77 velocity=80 time=0
EXTRACT: note_on channel=0 note=63 velocity=0 time=0.24895833333333334
EXTRACT: note_on channel=2 note=63 velocity=0 time=0
EXTRACT: note_on channel=9 note=75 velocity=0 time=0
EXTRACT: note_on channel=9 note=77 velocity=0 time=0
EXTRACT: note_on channel=0 note=60 velocity=96 time=0.0010416666666666667
EXTRACT: note_on channel=2 note=60 velocity=96 time=0
EXTRACT: note_on channel=9 note=75 velocity=80 time=0
EXTRACT: note_on channel=0 note=60 velocity=0 time=0.24895833333333334
EXTRACT: note_on channel=2 note=60 velocity=0 time=0
EXTRACT: note_on channel=0 note=63 velocity=96 time=0.0010416666666666667
EXTRACT: note_on channel=2 note=63 velocity=96 time=0
EXTRACT: note_on channel=3 note=48 velocity=0 time=0.14895833333333333
EXTRACT: note_on channel=9 note=75 velocity=0 time=0.1
EXTRACT: note_on channel=3 note=51 velocity=96 time=0.0010416666666666667
EXTRACT: note_on channel=9 note=75 velocity=80 time=0
EXTRACT: note_on channel=9 note=77 velocity=80 time=0
EXTRACT: note_on channel=0 note=63 velocity=0 time=0.24895833333333334
EXTRACT: note_on channel=2 note=63 velocity=0 time=0
EXTRACT: note_on channel=0 note=63 velocity=96 time=0.0010416666666666667
EXTRACT: note_on channel=2 note=63 velocity=96 time=0
EXTRACT: note_on channel=9 note=75 velocity=0 time=0.12395833333333334
EXTRACT: note_on channel=9 note=75 velocity=80 time=0.0010416666666666667
EXTRACT: note_on channel=9 note=75 velocity=0 time=0.12395833333333334
EXTRACT: note_on channel=9 note=77 velocity=0 time=0
EXTRACT: note_on channel=9 note=75 velocity=80 time=0.25104166666666666
EXTRACT: note_on channel=9 note=77 velocity=80 time=0
EXTRACT: note_on channel=0 note=63 velocity=0 time=0.24895833333333334
EXTRACT: note_on channel=2 note=63 velocity=0 time=0
EXTRACT: note_on channel=9 note=75 velocity=0 time=0
EXTRACT: note_on channel=9 note=77 velocity=0 time=0
EXTRACT: note_on channel=9 note=75 velocity=80 time=0.25104166666666666
EXTRACT: note_on channel=9 note=77 velocity=80 time=0
EXTRACT: note_on channel=9 note=75 velocity=0 time=0.24895833333333334
EXTRACT: note_on channel=9 note=77 velocity=0 time=0
EXTRACT: note_on channel=9 note=75 velocity=80 time=0.0010416666666666667
EXTRACT: note_on channel=3 note=51 velocity=0 time=0.3989583333333333
EXTRACT: note_on channel=9 note=75 velocity=0 time=0.1
EXTRACT: note_on channel=3 note=55 velocity=96 time=0.0010416666666666667
EXTRACT: note_on channel=9 note=75 velocity=80 time=0
EXTRACT: note_on channel=9 note=77 velocity=80 time=0
EXTRACT: note_on channel=1 note=63 velocity=96 time=0.25
EXTRACT: note_on channel=2 note=63 velocity=96 time=0
EXTRACT: note_on channel=9 note=75 velocity=0 time=0.12395833333333334
EXTRACT: note_on channel=9 note=75 velocity=80 time=0.0010416666666666667
EXTRACT: note_on channel=1 note=63 velocity=0 time=0.12395833333333334
EXTRACT: note_on channel=2 note=63 velocity=0 time=0
EXTRACT: note_on channel=9 note=75 velocity=0 time=0
EXTRACT: note_on channel=9 note=77 velocity=0 time=0
EXTRACT: note_on channel=1 note=63 velocity=96 time=0.0010416666666666667
EXTRACT: note_on channel=2 note=63 velocity=96 time=0
EXTRACT: note_on channel=1 note=63 velocity=0 time=0.24895833333333334
EXTRACT: note_on channel=2 note=63 velocity=0 time=0
EXTRACT: note_on channel=1 note=60 velocity=96 time=0.0010416666666666667
EXTRACT: note_on channel=2 note=60 velocity=96 time=0
EXTRACT: note_on channel=9 note=75 velocity=80 time=0
EXTRACT: note_on channel=9 note=77 velocity=80 time=0
EXTRACT: note_on channel=1 note=60 velocity=0 time=0.24895833333333334
EXTRACT: note_on channel=2 note=60 velocity=0 time=0
EXTRACT: note_on channel=9 note=75 velocity=0 time=0
EXTRACT: note_on channel=9 note=77 velocity=0 time=0
EXTRACT: note_on channel=1 note=63 velocity=96 time=0.0010416666666666667
EXTRACT: note_on channel=2 note=63 velocity=96 time=0
EXTRACT: note_on channel=1 note=63 velocity=0 time=0.24895833333333334
EXTRACT: note_on channel=2 note=63 velocity=0 time=0
EXTRACT: note_on channel=1 note=63 velocity=96 time=0.0010416666666666667
EXTRACT: note_on channel=2 note=63 velocity=96 time=0
EXTRACT: note_on channel=9 note=75 velocity=80 time=0
EXTRACT: note_on channel=9 note=77 velocity=80 time=0
EXTRACT: note_on channel=1 note=63 velocity=0 time=0.24895833333333334
EXTRACT: note_on channel=2 note=63 velocity=0 time=0
EXTRACT: note_on channel=9 note=75 velocity=0 time=0
EXTRACT: note_on channel=9 note=77 velocity=0 time=0
EXTRACT: note_on channel=1 note=60 velocity=96 time=0.0010416666666666667
EXTRACT: note_on channel=2 note=60 velocity=96 time=0
EXTRACT: note_on channel=9 note=75 velocity=80 time=0
EXTRACT: note_on channel=1 note=60 velocity=0 time=0.24895833333333334
EXTRACT: note_on channel=2 note=60 velocity=0 time=0
EXTRACT: note_on channel=1 note=63 velocity=96 time=0.0010416666666666667
EXTRACT: note_on channel=2 note=63 velocity=96 time=0
EXTRACT: note_on channel=3 note=55 velocity=0 time=0.14895833333333333
EXTRACT: note_on channel=9 note=75 velocity=0 time=0.1
EXTRACT: note_on channel=3 note=53 velocity=96 time=0.0010416666666666667
EXTRACT: note_on channel=9 note=75 velocity=80 time=0
EXTRACT: note_on channel=9 note=77 velocity=80 time=0
EXTRACT: note_on channel=1 note=63 velocity=0 time=0.24895833333333334
EXTRACT: note_on channel=2 note=63 velocity=0 time=0
EXTRACT: note_on channel=1 note=63 velocity=96 time=0.0010416666666666667
EXTRACT: note_on channel=2 note=63 velocity=96 time=0
EXTRACT: note_on channel=3 note=53 velocity=0 time=0.065625
EXTRACT: note_on channel=3 note=51 velocity=96 time=0.017708333333333333
EXTRACT: note_on channel=9 note=75 velocity=0 time=0.040625
EXTRACT: note_on channel=9 note=75 velocity=80 time=0.0010416666666666667
EXTRACT: note_on channel=1 note=63 velocity=0 time=0.12395833333333334
EXTRACT: note_on channel=2 note=63 velocity=0 time=0
EXTRACT: note_on channel=9 note=75 velocity=0 time=0
EXTRACT: note_on channel=9 note=77 velocity=0 time=0
EXTRACT: note_on channel=1 note=62 velocity=96 time=0.0010416666666666667
EXTRACT: note_on channel=2 note=62 velocity=96 time=0
EXTRACT: note_on channel=3 note=51 velocity=0 time=0.14895833333333333
EXTRACT: note_on channel=3 note=50 velocity=96 time=0.017708333333333333
EXTRACT: note_on channel=9 note=75 velocity=80 time=0.08333333333333333
EXTRACT: note_on channel=9 note=77 velocity=80 time=0
EXTRACT: note_on channel=1 note=62 velocity=0 time=0.24895833333333334
EXTRACT: note_on channel=2 note=62 velocity=0 time=0
EXTRACT: note_on channel=9 note=75 velocity=0 time=0
EXTRACT: note_on channel=9 note=77 velocity=0 time=0
EXTRACT: note_on channel=9 note=75 velocity=80 time=0.25104166666666666
EXTRACT: note_on channel=9 note=77 velocity=80 time=0
EXTRACT: note_on channel=9 note=75 velocity=0 time=0.24895833333333334
EXTRACT: note_on channel=9 note=77 velocity=0 time=0
EXTRACT: note_on channel=9 note=75 velocity=80 time=0.0010416666666666667
EXTRACT: note_on channel=3 note=50 velocity=0 time=0.4322916666666667
EXTRACT: note_on channel=9 note=75 velocity=0 time=0.06666666666666667
EXTRACT: note_on channel=3 note=48 velocity=96 time=0.0010416666666666667
EXTRACT: note_on channel=9 note=75 velocity=80 time=0
EXTRACT: note_on channel=9 note=77 velocity=80 time=0
EXTRACT: note_on channel=0 note=60 velocity=96 time=0.25
EXTRACT: note_on channel=2 note=60 velocity=96 time=0
EXTRACT: note_on channel=9 note=75 velocity=0 time=0.12395833333333334
EXTRACT: note_on channel=9 note=75 velocity=80 time=0.0010416666666666667
EXTRACT: note_on channel=0 note=60 velocity=0 time=0.12395833333333334
EXTRACT: note_on channel=2 note=60 velocity=0 time=0
EXTRACT: note_on channel=9 note=75 velocity=0 time=0
EXTRACT: note_on channel=9 note=77 velocity=0 time=0
EXTRACT: note_on channel=0 note=60 velocity=96 time=0.0010416666666666667
EXTRACT: note_on channel=2 note=60 velocity=96 time=0
EXTRACT: note_on channel=0 note=60 velocity=0 time=0.24895833333333334
EXTRACT: note_on channel=2 note=60 velocity=0 time=0
EXTRACT: note_on channel=0 note=62 velocity=96 time=0.0010416666666666667
EXTRACT: note_on channel=2 note=62 velocity=96 time=0
EXTRACT: note_on channel=9 note=75 velocity=80 time=0
EXTRACT: note_on channel=9 note=77 velocity=80 time=0
EXTRACT: note_on channel=0 note=62 velocity=0 time=0.24895833333333334
EXTRACT: note_on channel=2 note=62 velocity=0 time=0
EXTRACT: note_on channel=9 note=75 velocity=0 time=0
EXTRACT: note_on channel=9 note=77 velocity=0 time=0
EXTRACT: note_on channel=0 note=63 velocity=96 time=0.0010416666666666667
EXTRACT: note_on channel=2 note=63 velocity=96 time=0
EXTRACT: note_on channel=0 note=63 velocity=0 time=0.24895833333333334
EXTRACT: note_on channel=2 note=63 velocity=0 time=0
EXTRACT: note_on channel=0 note=62 velocity=96 time=0.0010416666666666667
EXTRACT: note_on channel=2 note=62 velocity=96 time=0
EXTRACT: note_on channel=9 note=75 velocity=80 time=0
EXTRACT: note_on channel=9 note=77 velocity=80 time=0
EXTRACT: note_on channel=0 note=62 velocity=0 time=0.24895833333333334
EXTRACT: note_on channel=2 note=62 velocity=0 time=0
EXTRACT: note_on channel=9 note=75 velocity=0 time=0
EXTRACT: note_on channel=9 note=77 velocity=0 time=0
EXTRACT: note_on channel=0 note=60 velocity=96 time=0.0010416666666666667
EXTRACT: note_on channel=2 note=60 velocity=96 time=0
EXTRACT: note_on channel=9 note=75 velocity=80 time=0
EXTRACT: note_on channel=0 note=60 velocity=0 time=0.24895833333333334
EXTRACT: note_on channel=2 note=60 velocity=0 time=0
EXTRACT: note_on channel=0 note=60 velocity=96 time=0.0010416666666666667
EXTRACT: note_on channel=2 note=60 velocity=96 time=0
EXTRACT: note_on channel=3 note=48 velocity=0 time=0.14895833333333333
EXTRACT: note_on channel=9 note=75 velocity=0 time=0.1
EXTRACT: note_on channel=3 note=44 velocity=96 time=0.0010416666666666667
EXTRACT: note_on channel=9 note=75 velocity=80 time=0
EXTRACT: note_on channel=9 note=77 velocity=80 time=0
EXTRACT: note_on channel=0 note=60 velocity=0 time=0.12395833333333334
EXTRACT: note_on channel=2 note=60 velocity=0 time=0
EXTRACT: note_on channel=0 note=60 velocity=96 time=0.0010416666666666667
EXTRACT: note_on channel=2 note=60 velocity=96 time=0
EXTRACT: note_on channel=0 note=60 velocity=0 time=0.24895833333333334
EXTRACT: note_on channel=2 note=60 velocity=0 time=0
EXTRACT: note_on channel=9 note=75 velocity=0 time=0
EXTRACT: note_on channel=0 note=58 velocity=96 time=0.0010416666666666667
EXTRACT: note_on channel=2 note=58 velocity=96 time=0
EXTRACT: note_on channel=9 note=75 velocity=80 time=0
EXTRACT: note_on channel=0 note=58 velocity=0 time=0.12395833333333334
EXTRACT: note_on channel=2 note=58 velocity=0 time=0
EXTRACT: note_on channel=9 note=75 velocity=0 time=0
EXTRACT: note_on channel=9 note=77 velocity=0 time=0
EXTRACT: note_on channel=0 note=60 velocity=96 time=0.0010416666666666667
EXTRACT: note_on channel=2 note=60 velocity=96 time=0
EXTRACT: note_on channel=0 note=60 velocity=0 time=0.12395833333333334
EXTRACT: note_on channel=2 note=60 velocity=0 time=0
EXTRACT: note_on channel=0 note=58 velocity=96 time=0.0010416666666666667
EXTRACT: note_on channel=2 note=58 velocity=96 time=0
EXTRACT: note_on channel=0 note=58 velocity=0 time=0.12395833333333334
EXTRACT: note_on channel=2 note=58 velocity=0 time=0
EXTRACT: note_on channel=0 note=56 velocity=96 time=0.0010416666666666667
EXTRACT: note_on channel=2 note=56 velocity=96 time=0
EXTRACT: note_on channel=9 note=75 velocity=80 time=0
EXTRACT: note_on channel=9 note=77 velocity=80 time=0
EXTRACT: note_on channel=9 note=75 velocity=0 time=0.24895833333333334
EXTRACT: note_on channel=9 note=77 velocity=0 time=0
EXTRACT: note_on channel=9 note=75 velocity=80 time=0.25104166666666666
EXTRACT: note_on channel=9 note=77 velocity=80 time=0
EXTRACT: note_on channel=0 note=56 velocity=0 time=0.24895833333333334
EXTRACT: note_on channel=2 note=56 velocity=0 time=0
EXTRACT: note_on channel=9 note=75 velocity=0 time=0
EXTRACT: note_on channel=9 note=77 velocity=0 time=0
EXTRACT: note_on channel=9 note=75 velocity=80 time=0.0010416666666666667
EXTRACT: note_on channel=3 note=44 velocity=0 time=0.3989583333333333
EXTRACT: note_on channel=9 note=75 velocity=0 time=0.1
EXTRACT: note_on channel=3 note=51 velocity=96 time=0.0010416666666666667
EXTRACT: note_on channel=9 note=75 velocity=80 time=0
EXTRACT: note_on channel=9 note=77 velocity=80 time=0
EXTRACT: note_on channel=1 note=63 velocity=96 time=0.25
EXTRACT: note_on channel=2 note=63 velocity=96 time=0
EXTRACT: note_on channel=9 note=75 velocity=0 time=0.12395833333333334
EXTRACT: note_on channel=9 note=75 velocity=80 time=0.0010416666666666667
EXTRACT: note_on channel=1 note=63 velocity=0 time=0.12395833333333334
EXTRACT: note_on channel=2 note=63 velocity=0 time=0
EXTRACT: note_on channel=9 note=75 velocity=0 time=0
EXTRACT: note_on channel=9 note=77 velocity=0 time=0
EXTRACT: note_on channel=1 note=63 velocity=96 time=0.0010416666666666667
EXTRACT: note_on channel=2 note=63 velocity=96 time=0
EXTRACT: note_on channel=1 note=63 velocity=0 time=0.24895833333333334
EXTRACT: note_on channel=2 note=63 velocity=0 time=0
EXTRACT: note_on channel=1 note=63 velocity=96 time=0.0010416666666666667
EXTRACT: note_on channel=2 note=63 velocity=96 time=0
EXTRACT: note_on channel=9 note=75 velocity=80 time=0
EXTRACT: note_on channel=9 note=77 velocity=80 time=0
EXTRACT: note_on channel=1 note=63 velocity=0 time=0.24895833333333334
EXTRACT: note_on channel=2 note=63 velocity=0 time=0
EXTRACT: note_on channel=9 note=75 velocity=0 time=0
EXTRACT: note_on channel=9 note=77 velocity=0 time=0
EXTRACT: note_on channel=1 note=63 velocity=96 time=0.0010416666666666667
EXTRACT: note_on channel=2 note=63 velocity=96 time=0
EXTRACT: note_on channel=1 note=63 velocity=0 time=0.24895833333333334
EXTRACT: note_on channel=2 note=63 velocity=0 time=0
EXTRACT: note_on channel=1 note=63 velocity=96 time=0.0010416666666666667
EXTRACT: note_on channel=2 note=63 velocity=96 time=0
EXTRACT: note_on channel=9 note=75 velocity=80 time=0
EXTRACT: note_on channel=9 note=77 velocity=80 time=0
EXTRACT: note_on channel=1 note=63 velocity=0 time=0.24895833333333334
EXTRACT: note_on channel=2 note=63 velocity=0 time=0
EXTRACT: note_on channel=9 note=75 velocity=0 time=0
EXTRACT: note_on channel=9 note=77 velocity=0 time=0
EXTRACT: note_on channel=1 note=60 velocity=96 time=0.0010416666666666667
EXTRACT: note_on channel=2 note=60 velocity=96 time=0
EXTRACT: note_on channel=9 note=75 velocity=80 time=0
EXTRACT: note_on channel=1 note=60 velocity=0 time=0.24895833333333334
EXTRACT: note_on channel=2 note=60 velocity=0 time=0
EXTRACT: note_on channel=1 note=63 velocity=96 time=0.0010416666666666667
EXTRACT: note_on channel=2 note=63 velocity=96 time=0
EXTRACT: note_on channel=3 note=51 velocity=0 time=0.14895833333333333
EXTRACT: note_on channel=9 note=75 velocity=0 time=0.1
EXTRACT: note_on channel=3 note=53 velocity=96 time=0.0010416666666666667
EXTRACT: note_on channel=9 note=75 velocity=80 time=0
EXTRACT: note_on channel=9 note=77 velocity=80 time=0
EXTRACT: note_on channel=1 note=63 velocity=0 time=0.24895833333333334
EXTRACT: note_on channel=2 note=63 velocity=0 time=0
EXTRACT: note_on channel=1 note=63 velocity=96 time=0.0010416666666666667
EXTRACT: note_on channel=2 note=63 velocity=96 time=0
EXTRACT: note_on channel=3 note=53 velocity=0 time=0.065625
EXTRACT: note_on channel=3 note=51 velocity=96 time=0.017708333333333333
EXTRACT: note_on channel=9 note=75 velocity=0 time=0.040625
EXTRACT: note_on channel=9 note=75 velocity=80 time=0.0010416666666666667
EXTRACT: note_on channel=1 note=63 velocity=0 time=0.12395833333333334
EXTRACT: note_on channel=2 note=63 velocity=0 time=0
EXTRACT: note_on channel=9 note=75 velocity=0 time=0
EXTRACT: note_on channel=9 note=77 velocity=0 time=0
EXTRACT: note_on channel=1 note=65 velocity=96 time=0.0010416666666666667
EXTRACT: note_on channel=2 note=65 velocity=96 time=0
EXTRACT: note_on channel=3 note=51 velocity=0 time=0.14895833333333333
EXTRACT: note_on channel=3 note=50 velocity=96 time=0.017708333333333333
EXTRACT: note_on channel=1 note=65 velocity=0 time=0.08229166666666667
EXTRACT: note_on channel=2 note=65 velocity=0 time=0
EXTRACT: note_on channel=9 note=75 velocity=80 time=0.0010416666666666667
EXTRACT: note_on channel=9 note=77 velocity=80 time=0
EXTRACT: note_on channel=9 note=75 velocity=0 time=0.24895833333333334
EXTRACT: note_on channel=9 note=77 velocity=0 time=0
EXTRACT: note_on channel=0 note=60 velocity=96 time=0.25104166666666666
EXTRACT: note_on channel=2 note=60 velocity=96 time=0
EXTRACT: note_on channel=9 note=75 velocity=80 time=0
EXTRACT: note_on channel=9 note=77 velocity=80 time=0
EXTRACT: note_on channel=0 note=60 velocity=0 time=0.24895833333333334
EXTRACT: note_on channel=2 note=60 velocity=0 time=0
EXTRACT: note_on channel=9 note=75 velocity=0 time=0
EXTRACT: note_on channel=9 note=77 velocity=0 time=0
EXTRACT: note_on channel=0 note=63 velocity=96 time=0.0010416666666666667
EXTRACT: note_on channel=2 note=63 velocity=96 time=0
EXTRACT: note_on channel=9 note=75 velocity=80 time=0
EXTRACT: note_on channel=0 note=63 velocity=0 time=0.24895833333333334
EXTRACT: note_on channel=2 note=63 velocity=0 time=0
EXTRACT: note_on channel=0 note=62 velocity=96 time=0.0010416666666666667
EXTRACT: note_on channel=2 note=62 velocity=96 time=0
EXTRACT: note_on channel=3 note=50 velocity=0 time=0.18229166666666666
EXTRACT: note_on channel=0 note=62 velocity=0 time=0.06666666666666667
EXTRACT: note_on channel=2 note=62 velocity=0 time=0
EXTRACT: note_on channel=9 note=75 velocity=0 time=0
EXTRACT: note_on channel=0 note=63 velocity=96 time=0.0010416666666666667
EXTRACT: note_on channel=2 note=63 velocity=96 time=0
EXTRACT: note_on channel=3 note=48 velocity=96 time=0
EXTRACT: note_on channel=9 note=75 velocity=80 time=0
EXTRACT: note_on channel=9 note=77 velocity=80 time=0
EXTRACT: note_on channel=3 note=48 velocity=0 time=0.23645833333333333
EXTRACT: note_on channel=3 note=51 velocity=96 time=0.013541666666666667
EXTRACT: note_on channel=9 note=75 velocity=0 time=0.12395833333333334
EXTRACT: note_on channel=9 note=75 velocity=80 time=0.0010416666666666667
EXTRACT: note_on channel=3 note=51 velocity=0 time=0.11145833333333333
EXTRACT: note_on channel=0 note=63 velocity=0 time=0.0125
EXTRACT: note_on channel=2 note=63 velocity=0 time=0
EXTRACT: note_on channel=9 note=75 velocity=0 time=0
EXTRACT: note_on channel=9 note=77 velocity=0 time=0
EXTRACT: note_on channel=3 note=55 velocity=96 time=0.0010416666666666667
EXTRACT: note_on channel=3 note=55 velocity=0 time=0.23645833333333333
EXTRACT: note_on channel=0 note=62 velocity=96 time=0.013541666666666667
EXTRACT: note_on channel=2 note=62 velocity=96 time=0
EXTRACT: note_on channel=3 note=51 velocity=96 time=0
EXTRACT: note_on channel=9 note=75 velocity=80 time=0
EXTRACT: note_on channel=9 note=77 velocity=80 time=0
EXTRACT: note_on channel=3 note=51 velocity=0 time=0.23645833333333333
EXTRACT: note_on channel=0 note=62 velocity=0 time=0.0125
EXTRACT: note_on channel=2 note=62 velocity=0 time=0
EXTRACT: note_on channel=9 note=75 velocity=0 time=0
EXTRACT: note_on channel=9 note=77 velocity=0 time=0
EXTRACT: note_on channel=0 note=63 velocity=96 time=0.0010416666666666667
EXTRACT: note_on channel=2 note=63 velocity=96 time=0
EXTRACT: note_on channel=3 note=48 velocity=96 time=0
EXTRACT: note_on channel=3 note=48 velocity=0 time=0.23645833333333333
EXTRACT: note_on channel=3 note=51 velocity=96 time=0.013541666666666667
EXTRACT: note_on channel=9 note=75 velocity=80 time=0
EXTRACT: note_on channel=9 note=77 velocity=80 time=0
EXTRACT: note_on channel=3 note=51 velocity=0 time=0.23645833333333333
EXTRACT: note_on channel=0 note=63 velocity=0 time=0.0125
EXTRACT: note_on channel=2 note=63 velocity=0 time=0
EXTRACT: note_on channel=9 note=75 velocity=0 time=0
EXTRACT: note_on channel=9 note=77 velocity=0 time=0
EXTRACT: note_on channel=3 note=56 velocity=96 time=0.0010416666666666667
EXTRACT: note_on channel=9 note=75 velocity=80 time=0
EXTRACT: note_on channel=3 note=56 velocity=0 time=0.23645833333333333
EXTRACT: note_on channel=0 note=62 velocity=96 time=0.013541666666666667
EXTRACT: note_on channel=2 note=62 velocity=96 time=0
EXTRACT: note_on channel=3 note=51 velocity=96 time=0
EXTRACT: note_on channel=3 note=51 velocity=0 time=0.23645833333333333
EXTRACT: note_on channel=0 note=62 velocity=0 time=0.0125
EXTRACT: note_on channel=2 note=62 velocity=0 time=0
EXTRACT: note_on channel=9 note=75 velocity=0 time=0
EXTRACT: note_on channel=0 note=63 velocity=96 time=0.0010416666666666667
EXTRACT: note_on channel=2 note=63 velocity=96 time=0
EXTRACT: note_on channel=3 note=44 velocity=96 time=0
EXTRACT: note_on channel=9 note=75 velocity=80 time=0
EXTRACT: note_on channel=9 note=77 velocity=80 time=0
EXTRACT: note_on channel=3 note=44 velocity=0 time=0.23645833333333333
EXTRACT: note_on channel=3 note=48 velocity=96 time=0.013541666666666667
EXTRACT: note_on channel=9 note=75 velocity=0 time=0.12395833333333334
EXTRACT: note_on channel=9 note=75 velocity=80 time=0.0010416666666666667
EXTRACT: note_on channel=3 note=48 velocity=0 time=0.11145833333333333
EXTRACT: note_on channel=0 note=63 velocity=0 time=0.0125
EXTRACT: note_on channel=2 note=63 velocity=0 time=0
EXTRACT: note_on channel=9 note=75 velocity=0 time=0
EXTRACT: note_on channel=9 note=77 velocity=0 time=0
EXTRACT: note_on channel=3 note=56 velocity=96 time=0.0010416666666666667
EXTRACT: note_on channel=3 note=56 velocity=0 time=0.23645833333333333
EXTRACT: note_on channel=0 note=63 velocity=96 time=0.013541666666666667
EXTRACT: note_on channel=2 note=63 velocity=96 time=0
EXTRACT: note_on channel=3 note=48 velocity=96 time=0
EXTRACT: note_on channel=9 note=75 velocity=80 time=0
EXTRACT: note_on channel=9 note=77 velocity=80 time=0
EXTRACT: note_on channel=3 note=48 velocity=0 time=0.23645833333333333
EXTRACT: note_on channel=0 note=63 velocity=0 time=0.0125
EXTRACT: note_on channel=2 note=63 velocity=0 time=0
EXTRACT: note_on channel=9 note=75 velocity=0 time=0
EXTRACT: note_on channel=9 note=77 velocity=0 time=0
EXTRACT: note_on channel=0 note=63 velocity=96 time=0.0010416666666666667
EXTRACT: note_on channel=2 note=63 velocity=96 time=0
EXTRACT: note_on channel=3 note=44 velocity=96 time=0
EXTRACT: note_on channel=3 note=44 velocity=0 time=0.23645833333333333
EXTRACT: note_on channel=0 note=63 velocity=0 time=0.0125
EXTRACT: note_on channel=2 note=63 velocity=0 time=0
EXTRACT: note_on channel=0 note=63 velocity=96 time=0.0010416666666666667
EXTRACT: note_on channel=2 note=63 velocity=96 time=0
EXTRACT: note_on channel=3 note=48 velocity=96 time=0
EXTRACT: note_on channel=9 note=75 velocity=80 time=0
EXTRACT: note_on channel=9 note=77 velocity=80 time=0
EXTRACT: note_on channel=3 note=48 velocity=0 time=0.23645833333333333
EXTRACT: note_on channel=0 note=63 velocity=0 time=0.0125
EXTRACT: note_on channel=2 note=63 velocity=0 time=0
EXTRACT: note_on channel=9 note=75 velocity=0 time=0
EXTRACT: note_on channel=9 note=77 velocity=0 time=0
EXTRACT: note_on channel=0 note=65 velocity=96 time=0.0010416666666666667
EXTRACT: note_on channel=2 note=65 velocity=96 time=0
EXTRACT: note_on channel=3 note=55 velocity=96 time=0
EXTRACT: note_on channel=9 note=75 velocity=80 time=0
EXTRACT: note_on channel=3 note=55 velocity=0 time=0.23645833333333333
EXTRACT: note_on channel=0 note=65 velocity=0 time=0.0125
EXTRACT: note_on channel=2 note=65 velocity=0 time=0
EXTRACT: note_on channel=0 note=67 velocity=96 time=0.0010416666666666667
EXTRACT: note_on channel=2 note=67 velocity=96 time=0
EXTRACT: note_on channel=3 note=48 velocity=96 time=0
EXTRACT: note_on channel=3 note=48 velocity=0 time=0.23645833333333333
EXTRACT: note_on channel=0 note=67 velocity=0 time=0.0125
EXTRACT: note_on channel=2 note=67 velocity=0 time=0
EXTRACT: note_on channel=9 note=75 velocity=0 time=0
EXTRACT: note_on channel=0 note=67 velocity=96 time=0.0010416666666666667
EXTRACT: note_on channel=2 note=67 velocity=96 time=0
EXTRACT: note_on channel=3 note=48 velocity=96 time=0
EXTRACT: note_on channel=9 note=75 velocity=80 time=0
EXTRACT: note_on channel=9 note=77 velocity=80 time=0
EXTRACT: note_on channel=3 note=48 velocity=0 time=0.315625
EXTRACT: note_on channel=0 note=67 velocity=0 time=0.016666666666666666
EXTRACT: note_on channel=2 note=67 velocity=0 time=0
EXTRACT: note_on channel=0 note=65 velocity=96 time=0.0010416666666666667
EXTRACT: note_on channel=2 note=65 velocity=96 time=0
EXTRACT: note_on channel=3 note=50 velocity=96 time=0
EXTRACT: note_on channel=9 note=75 velocity=0 time=0.040625
EXTRACT: note_on channel=9 note=75 velocity=80 time=0.0010416666666666667
EXTRACT: note_on channel=9 note=75 velocity=0 time=0.12395833333333334
EXTRACT: note_on channel=9 note=77 velocity=0 time=0
EXTRACT: note_on channel=3 note=50 velocity=0 time=0.15
EXTRACT: note_on channel=0 note=65 velocity=0 time=0.016666666666666666
EXTRACT: note_on channel=2 note=65 velocity=0 time=0
EXTRACT: note_on channel=0 note=63 velocity=96 time=0.0010416666666666667
EXTRACT: note_on channel=2 note=63 velocity=96 time=0
EXTRACT: note_on channel=3 note=51 velocity=96 time=0
EXTRACT: note_on channel=9 note=75 velocity=80 time=0.08333333333333333
EXTRACT: note_on channel=9 note=77 velocity=80 time=0
EXTRACT: note_on channel=0 note=63 velocity=0 time=0.24895833333333334
EXTRACT: note_on channel=2 note=63 velocity=0 time=0
EXTRACT: note_on channel=9 note=75 velocity=0 time=0
EXTRACT: note_on channel=9 note=77 velocity=0 time=0
EXTRACT: note_on channel=9 note=75 velocity=80 time=0.25104166666666666
EXTRACT: note_on channel=9 note=77 velocity=80 time=0
EXTRACT: note_on channel=9 note=75 velocity=0 time=0.24895833333333334
EXTRACT: note_on channel=9 note=77 velocity=0 time=0
EXTRACT: note_on channel=0 note=65 velocity=96 time=0.0010416666666666667
EXTRACT: note_on channel=2 note=65 velocity=96 time=0
EXTRACT: note_on channel=9 note=75 velocity=80 time=0
EXTRACT: note_on channel=0 note=65 velocity=0 time=0.24895833333333334
EXTRACT: note_on channel=2 note=65 velocity=0 time=0
EXTRACT: note_on channel=0 note=65 velocity=96 time=0.0010416666666666667
EXTRACT: note_on channel=2 note=65 velocity=96 time=0
EXTRACT: note_on channel=3 note=51 velocity=0 time=0.18229166666666666
EXTRACT: note_on channel=0 note=65 velocity=0 time=0.06666666666666667
EXTRACT: note_on channel=2 note=65 velocity=0 time=0
EXTRACT: note_on channel=9 note=75 velocity=0 time=0
EXTRACT: note_on channel=0 note=65 velocity=96 time=0.0010416666666666667
EXTRACT: note_on channel=2 note=65 velocity=96 time=0
EXTRACT: note_on channel=3 note=53 velocity=96 time=0
EXTRACT: note_on channel=9 note=75 velocity=80 time=0
EXTRACT: note_on channel=9 note=77 velocity=80 time=0
EXTRACT: note_on channel=3 note=53 velocity=0 time=0.315625
EXTRACT: note_on channel=0 note=65 velocity=0 time=0.016666666666666666
EXTRACT: note_on channel=2 note=65 velocity=0 time=0
EXTRACT: note_on channel=0 note=63 velocity=96 time=0.0010416666666666667
EXTRACT: note_on channel=2 note=63 velocity=96 time=0
EXTRACT: note_on channel=3 note=51 velocity=96 time=0
EXTRACT: note_on channel=9 note=75 velocity=0 time=0.040625
EXTRACT: note_on channel=9 note=75 velocity=80 time=0.0010416666666666667
EXTRACT: note_on channel=9 note=75 velocity=0 time=0.12395833333333334
EXTRACT: note_on channel=9 note=77 velocity=0 time=0
EXTRACT: note_on channel=3 note=51 velocity=0 time=0.15
EXTRACT: note_on channel=0 note=63 velocity=0 time=0.016666666666666666
EXTRACT: note_on channel=2 note=63 velocity=0 time=0
EXTRACT: note_on channel=0 note=62 velocity=96 time=0.0010416666666666667
EXTRACT: note_on channel=2 note=62 velocity=96 time=0
EXTRACT: note_on channel=3 note=50 velocity=96 time=0
EXTRACT: note_on channel=9 note=75 velocity=80 time=0.08333333333333333
EXTRACT: note_on channel=9 note=77 velocity=80 time=0
EXTRACT: note_on channel=0 note=62 velocity=0 time=0.24895833333333334
EXTRACT: note_on channel=2 note=62 velocity=0 time=0
EXTRACT: note_on channel=9 note=75 velocity=0 time=0
EXTRACT: note_on channel=9 note=77 velocity=0 time=0
EXTRACT: note_on channel=1 note=60 velocity=96 time=0.25104166666666666
EXTRACT: note_on channel=2 note=60 velocity=96 time=0
EXTRACT: note_on channel=9 note=75 velocity=80 time=0
EXTRACT: note_on channel=9 note=77 velocity=80 time=0
EXTRACT: note_on channel=1 note=60 velocity=0 time=0.24895833333333334
EXTRACT: note_on channel=2 note=60 velocity=0 time=0
EXTRACT: note_on channel=9 note=75 velocity=0 time=0
EXTRACT: note_on channel=9 note=77 velocity=0 time=0
EXTRACT: note_on channel=1 note=63 velocity=96 time=0.0010416666666666667
EXTRACT: note_on channel=2 note=63 velocity=96 time=0
EXTRACT: note_on channel=9 note=75 velocity=80 time=0
EXTRACT: note_on channel=1 note=63 velocity=0 time=0.24895833333333334
EXTRACT: note_on channel=2 note=63 velocity=0 time=0
EXTRACT: note_on channel=1 note=62 velocity=96 time=0.0010416666666666667
EXTRACT: note_on channel=2 note=62 velocity=96 time=0
EXTRACT: note_on channel=3 note=50 velocity=0 time=0.18229166666666666
EXTRACT: note_on channel=1 note=62 velocity=0 time=0.06666666666666667
EXTRACT: note_on channel=2 note=62 velocity=0 time=0
EXTRACT: note_on channel=9 note=75 velocity=0 time=0
EXTRACT: note_on channel=1 note=63 velocity=96 time=0.0010416666666666667
EXTRACT: note_on channel=2 note=63 velocity=96 time=0
EXTRACT: note_on channel=3 note=48 velocity=96 time=0
EXTRACT: note_on channel=9 note=75 velocity=80 time=0
EXTRACT: note_on channel=9 note=77 velocity=80 time=0
EXTRACT: note_on channel=3 note=48 velocity=0 time=0.23645833333333333
EXTRACT: note_on channel=3 note=51 velocity=96 time=0.013541666666666667
EXTRACT: note_on channel=9 note=75 velocity=0 time=0.12395833333333334
EXTRACT: note_on channel=9 note=75 velocity=80 time=0.0010416666666666667
EXTRACT: note_on channel=3 note=51 velocity=0 time=0.11145833333333333
EXTRACT: note_on channel=1 note=63 velocity=0 time=0.0125
EXTRACT: note_on channel=2 note=63 velocity=0 time=0
EXTRACT: note_on channel=9 note=75 velocity=0 time=0
EXTRACT: note_on channel=9 note=77 velocity=0 time=0
EXTRACT: note_on channel=3 note=55 velocity=96 time=0.0010416666666666667
EXTRACT: note_on channel=3 note=55 velocity=0 time=0.23645833333333333
EXTRACT: note_on channel=1 note=62 velocity=96 time=0.013541666666666667
EXTRACT: note_on channel=2 note=62 velocity=96 time=0
EXTRACT: note_on channel=3 note=51 velocity=96 time=0
EXTRACT: note_on channel=9 note=75 velocity=80 time=0
EXTRACT: note_on channel=9 note=77 velocity=80 time=0
EXTRACT: note_on channel=3 note=51 velocity=0 time=0.23645833333333333
EXTRACT: note_on channel=1 note=62 velocity=0 time=0.0125
EXTRACT: note_on channel=2 note=62 velocity=0 time=0
EXTRACT: note_on channel=9 note=75 velocity=0 time=0
EXTRACT: note_on channel=9 note=77 velocity=0 time=0
EXTRACT: note_on channel=1 note=63 velocity=96 time=0.0010416666666666667
EXTRACT: note_on channel=2 note=63 velocity=96 time=0
EXTRACT: note_on channel=3 note=48 velocity=96 time=0
EXTRACT: note_on channel=3 note=48 velocity=0 time=0.23645833333333333
EXTRACT: note_on channel=3 note=51 velocity=96 time=0.013541666666666667
EXTRACT: note_on channel=9 note=75 velocity=80 time=0
EXTRACT: note_on channel=9 note=77 velocity=80 time=0
EXTRACT: note_on channel=3 note=51 velocity=0 time=0.23645833333333333
EXTRACT: note_on channel=1 note=63 velocity=0 time=0.0125
EXTRACT: note_on channel=2 note=63 velocity=0 time=0
EXTRACT: note_on channel=9 note=75 velocity=0 time=0
EXTRACT: note_on channel=9 note=77 velocity=0 time=0
EXTRACT: note_on channel=3 note=56 velocity=96 time=0.0010416666666666667
EXTRACT: note_on channel=9 note=75 velocity=80 time=0
EXTRACT: note_on channel=3 note=56 velocity=0 time=0.23645833333333333
EXTRACT: note_on channel=1 note=62 velocity=96 time=0.013541666666666667
EXTRACT: note_on channel=2 note=62 velocity=96 time=0
EXTRACT: note_on channel=3 note=51 velocity=96 time=0
EXTRACT: note_on channel=3 note=51 velocity=0 time=0.23645833333333333
EXTRACT: note_on channel=1 note=62 velocity=0 time=0.0125
EXTRACT: note_on channel=2 note=62 velocity=0 time=0
EXTRACT: note_on channel=9 note=75 velocity=0 time=0
EXTRACT: note_on channel=1 note=63 velocity=96 time=0.0010416666666666667
EXTRACT: note_on channel=2 note=63 velocity=96 time=0
EXTRACT: note_on channel=3 note=44 velocity=96 time=0
EXTRACT: note_on channel=9 note=75 velocity=80 time=0
EXTRACT: note_on channel=9 note=77 velocity=80 time=0
EXTRACT: note_on channel=3 note=44 velocity=0 time=0.23645833333333333
EXTRACT: note_on channel=3 note=48 velocity=96 time=0.013541666666666667
EXTRACT: note_on channel=9 note=75 velocity=0 time=0.12395833333333334
EXTRACT: note_on channel=9 note=75 velocity=80 time=0.0010416666666666667
EXTRACT: note_on channel=3 note=48 velocity=0 time=0.11145833333333333
EXTRACT: note_on channel=1 note=63 velocity=0 time=0.0125
EXTRACT: note_on channel=2 note=63 velocity=0 time=0
EXTRACT: note_on channel=9 note=75 velocity=0 time=0
EXTRACT: note_on channel=9 note=77 velocity=0 time=0
EXTRACT: note_on channel=3 note=56 velocity=96 time=0.0010416666666666667
EXTRACT: note_on channel=3 note=56 velocity=0 time=0.23645833333333333
EXTRACT: note_on channel=1 note=63 velocity=96 time=0.013541666666666667
EXTRACT: note_on channel=2 note=63 velocity=96 time=0
EXTRACT: note_on channel=3 note=48 velocity=96 time=0
EXTRACT: note_on channel=9 note=75 velocity=80 time=0
EXTRACT: note_on channel=9 note=77 velocity=80 time=0
EXTRACT: note_on channel=3 note=48 velocity=0 time=0.23645833333333333
EXTRACT: note_on channel=1 note=63 velocity=0 time=0.0125
EXTRACT: note_on channel=2 note=63 velocity=0 time=0
EXTRACT: note_on channel=9 note=75 velocity=0 time=0
EXTRACT: note_on channel=9 note=77 velocity=0 time=0
EXTRACT: note_on channel=1 note=63 velocity=96 time=0.0010416666666666667
EXTRACT: note_on channel=2 note=63 velocity=96 time=0
EXTRACT: note_on channel=3 note=44 velocity=96 time=0
EXTRACT: note_on channel=3 note=44 velocity=0 time=0.23645833333333333
EXTRACT: note_on channel=1 note=63 velocity=0 time=0.0125
EXTRACT: note_on channel=2 note=63 velocity=0 time=0
EXTRACT: note_on channel=1 note=63 velocity=96 time=0.0010416666666666667
EXTRACT: note_on channel=2 note=63 velocity=96 time=0
EXTRACT: note_on channel=3 note=48 velocity=96 time=0
EXTRACT: note_on channel=9 note=75 velocity=80 time=0
EXTRACT: note_on channel=9 note=77 velocity=80 time=0
EXTRACT: note_on channel=3 note=48 velocity=0 time=0.23645833333333333
EXTRACT: note_on channel=1 note=63 velocity=0 time=0.0125
EXTRACT: note_on channel=2 note=63 velocity=0 time=0
EXTRACT: note_on channel=9 note=75 velocity=0 time=0
EXTRACT: note_on channel=9 note=77 velocity=0 time=0
EXTRACT: note_on channel=1 note=65 velocity=96 time=0.0010416666666666667
EXTRACT: note_on channel=2 note=65 velocity=96 time=0
EXTRACT: note_on channel=3 note=55 velocity=96 time=0
EXTRACT: note_on channel=9 note=75 velocity=80 time=0
EXTRACT: note_on channel=3 note=55 velocity=0 time=0.23645833333333333
EXTRACT: note_on channel=1 note=65 velocity=0 time=0.0125
EXTRACT: note_on channel=2 note=65 velocity=0 time=0
EXTRACT: note_on channel=1 note=67 velocity=96 time=0.0010416666666666667
EXTRACT: note_on channel=2 note=67 velocity=96 time=0
EXTRACT: note_on channel=3 note=48 velocity=96 time=0
EXTRACT: note_on channel=3 note=48 velocity=0 time=0.23645833333333333
EXTRACT: note_on channel=1 note=67 velocity=0 time=0.0125
EXTRACT: note_on channel=2 note=67 velocity=0 time=0
EXTRACT: note_on channel=9 note=75 velocity=0 time=0
EXTRACT: note_on channel=1 note=67 velocity=96 time=0.0010416666666666667
EXTRACT: note_on channel=2 note=67 velocity=96 time=0
EXTRACT: note_on channel=3 note=48 velocity=96 time=0
EXTRACT: note_on channel=9 note=75 velocity=80 time=0
EXTRACT: note_on channel=9 note=77 velocity=80 time=0
EXTRACT: note_on channel=3 note=48 velocity=0 time=0.315625
EXTRACT: note_on channel=1 note=67 velocity=0 time=0.016666666666666666
EXTRACT: note_on channel=2 note=67 velocity=0 time=0
EXTRACT: note_on channel=1 note=65 velocity=96 time=0.0010416666666666667
EXTRACT: note_on channel=2 note=65 velocity=96 time=0
EXTRACT: note_on channel=3 note=50 velocity=96 time=0
EXTRACT: note_on channel=9 note=75 velocity=0 time=0.040625
EXTRACT: note_on channel=9 note=75 velocity=80 time=0.0010416666666666667
EXTRACT: note_on channel=9 note=75 velocity=0 time=0.12395833333333334
EXTRACT: note_on channel=9 note=77 velocity=0 time=0
EXTRACT: note_on channel=3 note=50 velocity=0 time=0.15
EXTRACT: note_on channel=1 note=65 velocity=0 time=0.016666666666666666
EXTRACT: note_on channel=2 note=65 velocity=0 time=0
EXTRACT: note_on channel=1 note=63 velocity=96 time=0.0010416666666666667
EXTRACT: note_on channel=2 note=63 velocity=96 time=0
EXTRACT: note_on channel=3 note=51 velocity=96 time=0
EXTRACT: note_on channel=9 note=75 velocity=80 time=0.08333333333333333
EXTRACT: note_on channel=9 note=77 velocity=80 time=0
EXTRACT: note_on channel=1 note=63 velocity=0 time=0.24895833333333334
EXTRACT: note_on channel=2 note=63 velocity=0 time=0
EXTRACT: note_on channel=9 note=75 velocity=0 time=0
EXTRACT: note_on channel=9 note=77 velocity=0 time=0
EXTRACT: note_on channel=9 note=75 velocity=80 time=0.25104166666666666
EXTRACT: note_on channel=9 note=77 velocity=80 time=0
EXTRACT: note_on channel=9 note=75 velocity=0 time=0.24895833333333334
EXTRACT: note_on channel=9 note=77 velocity=0 time=0
EXTRACT: note_on channel=1 note=63 velocity=96 time=0.0010416666666666667
EXTRACT: note_on channel=2 note=63 velocity=96 time=0
EXTRACT: note_on channel=9 note=75 velocity=80 time=0
EXTRACT: note_on channel=1 note=63 velocity=0 time=0.24895833333333334
EXTRACT: note_on channel=2 note=63 velocity=0 time=0
EXTRACT: note_on channel=1 note=65 velocity=96 time=0.0010416666666666667
EXTRACT: note_on channel=2 note=65 velocity=96 time=0
EXTRACT: note_on channel=3 note=51 velocity=0 time=0.18229166666666666
EXTRACT: note_on channel=1 note=65 velocity=0 time=0.06666666666666667
EXTRACT: note_on channel=2 note=65 velocity=0 time=0
EXTRACT: note_on channel=9 note=75 velocity=0 time=0
EXTRACT: note_on channel=1 note=65 velocity=96 time=0.0010416666666666667
EXTRACT: note_on channel=2 note=65 velocity=96 time=0
EXTRACT: note_on channel=3 note=53 velocity=96 time=0
EXTRACT: note_on channel=9 note=75 velocity=80 time=0
EXTRACT: note_on channel=9 note=77 velocity=80 time=0
EXTRACT: note_on channel=3 note=53 velocity=0 time=0.315625
EXTRACT: note_on channel=3 note=51 velocity=96 time=0.017708333333333333
EXTRACT: note_on channel=9 note=75 velocity=0 time=0.040625
EXTRACT: note_on channel=9 note=75 velocity=80 time=0.0010416666666666667
EXTRACT: note_on channel=1 note=65 velocity=0 time=0.12395833333333334
EXTRACT: note_on channel=2 note=65 velocity=0 time=0
EXTRACT: note_on channel=9 note=75 velocity=0 time=0
EXTRACT: note_on channel=9 note=77 velocity=0 time=0
EXTRACT: note_on channel=1 note=63 velocity=96 time=0.0010416666666666667
EXTRACT: note_on channel=2 note=63 velocity=96 time=0
EXTRACT: note_on channel=3 note=51 velocity=0 time=0.14895833333333333
EXTRACT: note_on channel=3 note=50 velocity=96 time=0.017708333333333333
EXTRACT: note_on channel=9 note=75 velocity=80 time=0.08333333333333333
EXTRACT: note_on channel=9 note=77 velocity=80 time=0
EXTRACT: note_on channel=1 note=63 velocity=0 time=0.24895833333333334
EXTRACT: note_on channel=2 note=63 velocity=0 time=0
EXTRACT: note_on channel=9 note=75 velocity=0 time=0
EXTRACT: note_on channel=9 note=77 velocity=0 time=0
EXTRACT: note_on channel=1 note=62 velocity=96 time=0.0010416666666666667
EXTRACT: note_on channel=2 note=62 velocity=96 time=0
EXTRACT: note_on channel=9 note=75 velocity=80 time=0.25
EXTRACT: note_on channel=9 note=77 velocity=80 time=0
EXTRACT: note_on channel=1 note=62 velocity=0 time=0.24895833333333334
EXTRACT: note_on channel=2 note=62 velocity=0 time=0
EXTRACT: note_on channel=9 note=75 velocity=0 time=0
EXTRACT: note_on channel=9 note=77 velocity=0 time=0
EXTRACT: note_on channel=1 note=63 velocity=96 time=0.0010416666666666667
EXTRACT: note_on channel=2 note=63 velocity=96 time=0
EXTRACT: note_on channel=9 note=75 velocity=80 time=0
EXTRACT: note_on channel=1 note=63 velocity=0 time=0.24895833333333334
EXTRACT: note_on channel=2 note=63 velocity=0 time=0
EXTRACT: note_on channel=1 note=62 velocity=96 time=0.0010416666666666667
EXTRACT: note_on channel=2 note=62 velocity=96 time=0
EXTRACT: note_on channel=3 note=50 velocity=0 time=0.18229166666666666
EXTRACT: note_on channel=1 note=62 velocity=0 time=0.06666666666666667
EXTRACT: note_on channel=2 note=62 velocity=0 time=0
EXTRACT: note_on channel=9 note=75 velocity=0 time=0
EXTRACT: note_on channel=1 note=63 velocity=64 time=0.0010416666666666667
EXTRACT: note_on channel=2 note=63 velocity=64 time=0
EXTRACT: note_on channel=3 note=67 velocity=64 time=0
EXTRACT: note_on channel=3 note=48 velocity=64 time=0
EXTRACT: note_on channel=9 note=77 velocity=80 time=0
EXTRACT: note_on channel=9 note=77 velocity=0 time=0.24895833333333334
EXTRACT: note_on channel=1 note=63 velocity=0 time=0.25
EXTRACT: note_on channel=1 note=67 velocity=64 time=0.0010416666666666667
EXTRACT: note_on channel=0 note=60 velocity=96 time=0.25
EXTRACT: note_on channel=0 note=60 velocity=0 time=0.24895833333333334
EXTRACT: note_on channel=0 note=63 velocity=96 time=0.0010416666666666667
EXTRACT: note_on channel=0 note=63 velocity=0 time=0.49895833333333334
EXTRACT: note_on channel=0 note=67 velocity=96 time=0.0010416666666666667
EXTRACT: note_on channel=3 note=67 velocity=0 time=0.3989583333333333
EXTRACT: note_on channel=3 note=48 velocity=0 time=0
EXTRACT: note_on channel=0 note=67 velocity=0 time=0.1
EXTRACT: note_on channel=1 note=67 velocity=0 time=0
EXTRACT: note_on channel=2 note=63 velocity=0 time=0
EXTRACT: note_on channel=0 note=68 velocity=96 time=0.0010416666666666667
EXTRACT: note_on channel=1 note=68 velocity=64 time=0
EXTRACT: note_on channel=2 note=63 velocity=64 time=0
EXTRACT: note_on channel=3 note=68 velocity=64 time=0
EXTRACT: note_on channel=3 note=48 velocity=64 time=0
EXTRACT: note_on channel=9 note=75 velocity=80 time=0
EXTRACT: note_on channel=9 note=77 velocity=80 time=0
EXTRACT: note_on channel=9 note=77 velocity=0 time=0.24895833333333334
EXTRACT: note_on channel=9 note=75 velocity=0 time=0.125
EXTRACT: note_on channel=9 note=75 velocity=80 time=0.0010416666666666667
EXTRACT: note_on channel=0 note=68 velocity=0 time=0.12395833333333334
EXTRACT: note_on channel=9 note=75 velocity=0 time=0
EXTRACT: note_on channel=0 note=60 velocity=96 time=0.25104166666666666
EXTRACT: note_on channel=9 note=75 velocity=80 time=0
EXTRACT: note_on channel=0 note=60 velocity=0 time=0.24895833333333334
EXTRACT: note_on channel=9 note=75 velocity=0 time=0
EXTRACT: note_on channel=0 note=63 velocity=96 time=0.0010416666666666667
EXTRACT: note_on channel=9 note=75 velocity=80 time=0.25
EXTRACT: note_on channel=0 note=63 velocity=0 time=0.24895833333333334
EXTRACT: note_on channel=9 note=75 velocity=0 time=0
EXTRACT: note_on channel=0 note=68 velocity=96 time=0.0010416666666666667
EXTRACT: note_on channel=9 note=75 velocity=80 time=0
EXTRACT: note_on channel=3 note=68 velocity=0 time=0.3989583333333333
EXTRACT: note_on channel=3 note=48 velocity=0 time=0
EXTRACT: note_on channel=0 note=68 velocity=0 time=0.1
EXTRACT: note_on channel=1 note=68 velocity=0 time=0
EXTRACT: note_on channel=2 note=63 velocity=0 time=0
EXTRACT: note_on channel=9 note=75 velocity=0 time=0
EXTRACT: note_on channel=0 note=67 velocity=96 time=0.0010416666666666667
EXTRACT: note_on channel=1 note=67 velocity=64 time=0
EXTRACT: note_on channel=2 note=63 velocity=64 time=0
EXTRACT: note_on channel=3 note=67 velocity=64 time=0
EXTRACT: note_on channel=3 note=51 velocity=64 time=0
EXTRACT: note_on channel=9 note=75 velocity=80 time=0
EXTRACT: note_on channel=9 note=77 velocity=80 time=0
EXTRACT: note_on channel=9 note=77 velocity=0 time=0.24895833333333334
EXTRACT: note_on channel=9 note=75 velocity=0 time=0.125
EXTRACT: note_on channel=9 note=75 velocity=80 time=0.0010416666666666667
EXTRACT: note_on channel=0 note=67 velocity=0 time=0.12395833333333334
EXTRACT: note_on channel=9 note=75 velocity=0 time=0
EXTRACT: note_on channel=0 note=63 velocity=96 time=0.25104166666666666
EXTRACT: note_on channel=9 note=75 velocity=80 time=0
EXTRACT: note_on channel=0 note=63 velocity=0 time=0.24895833333333334
EXTRACT: note_on channel=9 note=75 velocity=0 time=0
EXTRACT: note_on channel=0 note=63 velocity=96 time=0.0010416666666666667
EXTRACT: note_on channel=9 note=75 velocity=80 time=0.25
EXTRACT: note_on channel=0 note=63 velocity=0 time=0.24895833333333334
EXTRACT: note_on channel=9 note=75 velocity=0 time=0
EXTRACT: note_on channel=0 note=67 velocity=96 time=0.0010416666666666667
EXTRACT: note_on channel=9 note=75 velocity=80 time=0
EXTRACT: note_on channel=3 note=67 velocity=0 time=0.3989583333333333
EXTRACT: note_on channel=3 note=51 velocity=0 time=0
EXTRACT: note_on channel=0 note=67 velocity=0 time=0.1
EXTRACT: note_on channel=1 note=67 velocity=0 time=0
EXTRACT: note_on channel=2 note=63 velocity=0 time=0
EXTRACT: note_on channel=9 note=75 velocity=0 time=0
EXTRACT: note_on channel=0 note=65 velocity=96 time=0.0010416666666666667
EXTRACT: note_on channel=1 note=65 velocity=64 time=0
EXTRACT: note_on channel=2 note=62 velocity=64 time=0
EXTRACT: note_on channel=3 note=65 velocity=64 time=0
EXTRACT: note_on channel=3 note=46 velocity=64 time=0
EXTRACT: note_on channel=9 note=75 velocity=80 time=0
EXTRACT: note_on channel=9 note=77 velocity=80 time=0
EXTRACT: note_on channel=9 note=77 velocity=0 time=0.24895833333333334
EXTRACT: note_on channel=9 note=75 velocity=0 time=0.125
EXTRACT: note_on channel=9 note=75 velocity=80 time=0.0010416666666666667
EXTRACT: note_on channel=9 note=75 velocity=0 time=0.12395833333333334
EXTRACT: note_on channel=0 note=65 velocity=0 time=0.25
EXTRACT: note_on channel=0 note=65 velocity=96 time=0.0010416666666666667
EXTRACT: note_on channel=9 note=75 velocity=80 time=0
EXTRACT: note_on channel=3 note=65 velocity=0 time=0.19895833333333332
EXTRACT: note_on channel=3 note=46 velocity=0 time=0
EXTRACT: note_on channel=0 note=65 velocity=0 time=0.05
EXTRACT: note_on channel=1 note=65 velocity=0 time=0
EXTRACT: note_on channel=2 note=62 velocity=0 time=0
EXTRACT: note_on channel=9 note=75 velocity=0 time=0
EXTRACT: note_on channel=0 note=65 velocity=96 time=0.0010416666666666667
EXTRACT: note_on channel=1 note=65 velocity=64 time=0
EXTRACT: note_on channel=2 note=62 velocity=64 time=0
EXTRACT: note_on channel=3 note=65 velocity=64 time=0
EXTRACT: note_on channel=3 note=46 velocity=64 time=0
EXTRACT: note_on channel=9 note=77 velocity=80 time=0
EXTRACT: note_on channel=9 note=75 velocity=80 time=0.25
EXTRACT: note_on channel=3 note=65 velocity=0 time=0.10520833333333333
EXTRACT: note_on channel=3 note=46 velocity=0 time=0
EXTRACT: note_on channel=0 note=65 velocity=0 time=0.01875
EXTRACT: note_on channel=1 note=65 velocity=0 time=0
EXTRACT: note_on channel=2 note=62 velocity=0 time=0
EXTRACT: note_on channel=9 note=77 velocity=0 time=0
EXTRACT: note_on channel=0 note=63 velocity=96 time=0.0010416666666666667
EXTRACT: note_on channel=1 note=63 velocity=64 time=0
EXTRACT: note_on channel=2 note=60 velocity=64 time=0
EXTRACT: note_on channel=3 note=63 velocity=64 time=0
EXTRACT: note_on channel=3 note=50 velocity=64 time=0
EXTRACT: note_on channel=9 note=77 velocity=80 time=0
EXTRACT: note_on channel=9 note=75 velocity=0 time=0.12395833333333334
EXTRACT: note_on channel=9 note=75 velocity=80 time=0.0010416666666666667
EXTRACT: note_on channel=3 note=63 velocity=0 time=0.11145833333333333
EXTRACT: note_on channel=3 note=50 velocity=0 time=0
EXTRACT: note_on channel=0 note=63 velocity=0 time=0.0125
EXTRACT: note_on channel=1 note=63 velocity=0 time=0
EXTRACT: note_on channel=2 note=60 velocity=0 time=0
EXTRACT: note_on channel=9 note=77 velocity=0 time=0
EXTRACT: note_on channel=0 note=62 velocity=96 time=0.0010416666666666667
EXTRACT: note_on channel=1 note=62 velocity=64 time=0
EXTRACT: note_on channel=2 note=58 velocity=64 time=0
EXTRACT: note_on channel=3 note=62 velocity=64 time=0
EXTRACT: note_on channel=3 note=51 velocity=64 time=0
EXTRACT: note_on channel=9 note=77 velocity=80 time=0
EXTRACT: note_on channel=3 note=62 velocity=0 time=0.35520833333333335
EXTRACT: note_on channel=3 note=51 velocity=0 time=0
EXTRACT: note_on channel=0 note=62 velocity=0 time=0.01875
EXTRACT: note_on channel=1 note=62 velocity=0 time=0
EXTRACT: note_on channel=2 note=58 velocity=0 time=0
EXTRACT: note_on channel=9 note=75 velocity=0 time=0
EXTRACT: note_on channel=9 note=77 velocity=0 time=0
EXTRACT: note_on channel=0 note=60 velocity=96 time=0.0010416666666666667
EXTRACT: note_on channel=1 note=67 velocity=80 time=0
EXTRACT: note_on channel=2 note=63 velocity=80 time=0
EXTRACT: note_on channel=3 note=67 velocity=80 time=0
EXTRACT: note_on channel=3 note=48 velocity=80 time=0
EXTRACT: note_on channel=9 note=75 velocity=80 time=0
EXTRACT: note_on channel=9 note=77 velocity=80 time=0
EXTRACT: note_on channel=9 note=77 velocity=0 time=0.24895833333333334
EXTRACT: note_on channel=9 note=75 velocity=0 time=0.125
EXTRACT: note_on channel=9 note=75 velocity=80 time=0.0010416666666666667
EXTRACT: note_on channel=0 note=60 velocity=0 time=0.12395833333333334
EXTRACT: note_on channel=9 note=75 velocity=0 time=0
EXTRACT: note_on channel=0 note=60 velocity=96 time=0.25104166666666666
EXTRACT: note_on channel=9 note=75 velocity=80 time=0
EXTRACT: note_on channel=0 note=60 velocity=0 time=0.24895833333333334
EXTRACT: note_on channel=9 note=75 velocity=0 time=0
EXTRACT: note_on channel=0 note=63 velocity=96 time=0.0010416666666666667
EXTRACT: note_on channel=9 note=75 velocity=80 time=0.25
EXTRACT: note_on channel=0 note=63 velocity=0 time=0.24895833333333334
EXTRACT: note_on channel=9 note=75 velocity=0 time=0
EXTRACT: note_on channel=0 note=67 velocity=96 time=0.0010416666666666667
EXTRACT: note_on channel=9 note=75 velocity=80 time=0
EXTRACT: note_on channel=3 note=67 velocity=0 time=0.3989583333333333
EXTRACT: note_on channel=3 note=48 velocity=0 time=0
EXTRACT: note_on channel=0 note=67 velocity=0 time=0.1
EXTRACT: note_on channel=1 note=67 velocity=0 time=0
EXTRACT: note_on channel=2 note=63 velocity=0 time=0
EXTRACT: note_on channel=9 note=75 velocity=0 time=0
EXTRACT: note_on channel=0 note=68 velocity=96 time=0.0010416666666666667
EXTRACT: note_on channel=1 note=68 velocity=80 time=0
EXTRACT: note_on channel=2 note=63 velocity=80 time=0
EXTRACT: note_on channel=3 note=68 velocity=80 time=0
EXTRACT: note_on channel=3 note=48 velocity=80 time=0
EXTRACT: note_on channel=9 note=75 velocity=80 time=0
EXTRACT: note_on channel=9 note=77 velocity=80 time=0
EXTRACT: note_on channel=9 note=77 velocity=0 time=0.24895833333333334
EXTRACT: note_on channel=9 note=75 velocity=0 time=0.125
EXTRACT: note_on channel=9 note=75 velocity=80 time=0.0010416666666666667
EXTRACT: note_on channel=0 note=68 velocity=0 time=0.12395833333333334
EXTRACT: note_on channel=9 note=75 velocity=0 time=0
EXTRACT: note_on channel=0 note=68 velocity=96 time=0.25104166666666666
EXTRACT: note_on channel=9 note=75 velocity=80 time=0
EXTRACT: note_on channel=0 note=68 velocity=0 time=0.24895833333333334
EXTRACT: note_on channel=9 note=75 velocity=0 time=0
EXTRACT: note_on channel=0 note=68 velocity=96 time=0.0010416666666666667
EXTRACT: note_on channel=0 note=68 velocity=0 time=0.24895833333333334
EXTRACT: note_on channel=0 note=65 velocity=96 time=0.0010416666666666667
EXTRACT: note_on channel=9 note=75 velocity=80 time=0
EXTRACT: note_on channel=0 note=65 velocity=0 time=0.24895833333333334
EXTRACT: note_on channel=9 note=75 velocity=0 time=0
EXTRACT: note_on channel=0 note=65 velocity=96 time=0.0010416666666666667
EXTRACT: note_on channel=9 note=75 velocity=80 time=0
EXTRACT: note_on channel=0 note=65 velocity=0 time=0.24895833333333334
EXTRACT: note_on channel=0 note=68 velocity=96 time=0.0010416666666666667
EXTRACT: note_on channel=3 note=68 velocity=0 time=0.14895833333333333
EXTRACT: note_on channel=3 note=48 velocity=0 time=0
EXTRACT: note_on channel=0 note=68 velocity=0 time=0.1
EXTRACT: note_on channel=1 note=68 velocity=0 time=0
EXTRACT: note_on channel=2 note=63 velocity=0 time=0
EXTRACT: note_on channel=9 note=75 velocity=0 time=0
EXTRACT: note_on channel=0 note=67 velocity=96 time=0.0010416666666666667
EXTRACT: note_on channel=1 note=67 velocity=80 time=0
EXTRACT: note_on channel=2 note=63 velocity=80 time=0
EXTRACT: note_on channel=3 note=67 velocity=80 time=0
EXTRACT: note_on channel=3 note=51 velocity=80 time=0
EXTRACT: note_on channel=9 note=75 velocity=80 time=0
EXTRACT: note_on channel=9 note=77 velocity=80 time=0
EXTRACT: note_on channel=9 note=77 velocity=0 time=0.24895833333333334
EXTRACT: note_on channel=9 note=75 velocity=0 time=0.125
EXTRACT: note_on channel=9 note=75 velocity=80 time=0.0010416666666666667
EXTRACT: note_on channel=0 note=67 velocity=0 time=0.12395833333333334
EXTRACT: note_on channel=9 note=75 velocity=0 time=0
EXTRACT: note_on channel=0 note=63 velocity=96 time=0.25104166666666666
EXTRACT: note_on channel=9 note=75 velocity=80 time=0
EXTRACT: note_on channel=0 note=63 velocity=0 time=0.24895833333333334
EXTRACT: note_on channel=9 note=75 velocity=0 time=0
EXTRACT: note_on channel=0 note=63 velocity=96 time=0.0010416666666666667
EXTRACT: note_on channel=9 note=75 velocity=80 time=0.25
EXTRACT: note_on channel=0 note=63 velocity=0 time=0.24895833333333334
EXTRACT: note_on channel=9 note=75 velocity=0 time=0
EXTRACT: note_on channel=0 note=67 velocity=96 time=0.0010416666666666667
EXTRACT: note_on channel=9 note=75 velocity=80 time=0
EXTRACT: note_on channel=3 note=67 velocity=0 time=0.3989583333333333
EXTRACT: note_on channel=3 note=51 velocity=0 time=0
EXTRACT: note_on channel=0 note=67 velocity=0 time=0.1
EXTRACT: note_on channel=1 note=67 velocity=0 time=0
EXTRACT: note_on channel=2 note=63 velocity=0 time=0
EXTRACT: note_on channel=9 note=75 velocity=0 time=0
EXTRACT: note_on channel=0 note=65 velocity=96 time=0.0010416666666666667
EXTRACT: note_on channel=1 note=65 velocity=80 time=0
EXTRACT: note_on channel=2 note=62 velocity=80 time=0
EXTRACT: note_on channel=3 note=65 velocity=80 time=0
EXTRACT: note_on channel=3 note=46 velocity=80 time=0
EXTRACT: note_on channel=9 note=75 velocity=80 time=0
EXTRACT: note_on channel=9 note=77 velocity=80 time=0
EXTRACT: note_on channel=9 note=77 velocity=0 time=0.24895833333333334
EXTRACT: note_on channel=9 note=75 velocity=0 time=0.125
EXTRACT: note_on channel=9 note=75 velocity=80 time=0.0010416666666666667
EXTRACT: note_on channel=9 note=75 velocity=0 time=0.12395833333333334
EXTRACT: note_on channel=0 note=65 velocity=0 time=0.25
EXTRACT: note_on channel=0 note=65 velocity=96 time=0.0010416666666666667
EXTRACT: note_on channel=9 note=75 velocity=80 time=0
EXTRACT: note_on channel=3 note=65 velocity=0 time=0.19895833333333332
EXTRACT: note_on channel=3 note=46 velocity=0 time=0
EXTRACT: note_on channel=0 note=65 velocity=0 time=0.05
EXTRACT: note_on channel=1 note=65 velocity=0 time=0
EXTRACT: note_on channel=2 note=62 velocity=0 time=0
EXTRACT: note_on channel=9 note=75 velocity=0 time=0
EXTRACT: note_on channel=0 note=65 velocity=96 time=0.0010416666666666667
EXTRACT: note_on channel=1 note=65 velocity=80 time=0
EXTRACT: note_on channel=2 note=62 velocity=80 time=0
EXTRACT: note_on channel=3 note=65 velocity=80 time=0
EXTRACT: note_on channel=3 note=46 velocity=80 time=0
EXTRACT: note_on channel=9 note=77 velocity=80 time=0
EXTRACT: note_on channel=9 note=75 velocity=80 time=0.25
EXTRACT: note_on channel=3 note=65 velocity=0 time=0.10520833333333333
EXTRACT: note_on channel=3 note=46 velocity=0 time=0
EXTRACT: note_on channel=0 note=65 velocity=0 time=0.01875
EXTRACT: note_on channel=1 note=65 velocity=0 time=0
EXTRACT: note_on channel=2 note=62 velocity=0 time=0
EXTRACT: note_on channel=9 note=77 velocity=0 time=0
EXTRACT: note_on channel=0 note=63 velocity=96 time=0.0010416666666666667
EXTRACT: note_on channel=1 note=63 velocity=80 time=0
EXTRACT: note_on channel=2 note=60 velocity=80 time=0
EXTRACT: note_on channel=3 note=63 velocity=80 time=0
EXTRACT: note_on channel=3 note=50 velocity=80 time=0
EXTRACT: note_on channel=9 note=77 velocity=80 time=0
EXTRACT: note_on channel=9 note=75 velocity=0 time=0.12395833333333334
EXTRACT: note_on channel=9 note=75 velocity=80 time=0.0010416666666666667
EXTRACT: note_on channel=3 note=63 velocity=0 time=0.11145833333333333
EXTRACT: note_on channel=3 note=50 velocity=0 time=0
EXTRACT: note_on channel=0 note=63 velocity=0 time=0.0125
EXTRACT: note_on channel=1 note=63 velocity=0 time=0
EXTRACT: note_on channel=2 note=60 velocity=0 time=0
EXTRACT: note_on channel=9 note=77 velocity=0 time=0
EXTRACT: note_on channel=0 note=62 velocity=96 time=0.0010416666666666667
EXTRACT: note_on channel=1 note=62 velocity=80 time=0
EXTRACT: note_on channel=2 note=58 velocity=80 time=0
EXTRACT: note_on channel=3 note=62 velocity=80 time=0
EXTRACT: note_on channel=3 note=51 velocity=80 time=0
EXTRACT: note_on channel=9 note=77 velocity=80 time=0
EXTRACT: note_on channel=3 note=62 velocity=0 time=0.35520833333333335
EXTRACT: note_on channel=3 note=51 velocity=0 time=0
EXTRACT: note_on channel=0 note=62 velocity=0 time=0.01875
EXTRACT: note_on channel=1 note=62 velocity=0 time=0
EXTRACT: note_on channel=2 note=58 velocity=0 time=0
EXTRACT: note_on channel=9 note=75 velocity=0 time=0
EXTRACT: note_on channel=9 note=77 velocity=0 time=0
EXTRACT: note_on channel=0 note=60 velocity=64 time=0.0010416666666666667
EXTRACT: note_on channel=1 note=67 velocity=64 time=0
EXTRACT: note_on channel=2 note=63 velocity=64 time=0
EXTRACT: note_on channel=3 note=67 velocity=64 time=0
EXTRACT: note_on channel=3 note=48 velocity=64 time=0
EXTRACT: note_on channel=9 note=75 velocity=112 time=0
EXTRACT: note_on channel=9 note=75 velocity=0 time=0.37395833333333334
EXTRACT: note_on channel=9 note=75 velocity=112 time=0.0010416666666666667
EXTRACT: note_on channel=9 note=75 velocity=0 time=0.12395833333333334
EXTRACT: note_on channel=9 note=75 velocity=112 time=0.25104166666666666
EXTRACT: note_on channel=9 note=75 velocity=0 time=0.24895833333333334
EXTRACT: note_on channel=9 note=75 velocity=112 time=0.25104166666666666
EXTRACT: note_on channel=9 note=75 velocity=0 time=0.24895833333333334
EXTRACT: note_on channel=9 note=75 velocity=112 time=0.0010416666666666667
EXTRACT: note_on channel=3 note=67 velocity=0 time=0.3989583333333333
EXTRACT: note_on channel=3 note=48 velocity=0 time=0
EXTRACT: note_on channel=0 note=60 velocity=0 time=0.1
EXTRACT: note_on channel=1 note=67 velocity=0 time=0
EXTRACT: note_on channel=2 note=63 velocity=0 time=0
EXTRACT: note_on channel=9 note=75 velocity=0 time=0
INTERVALS90 - Vivir_Mi_Vida_by_Marc_Anthony.mid
unison146
2m22
2M26
3m13
3M14
4m2
4M0
5m0
5M2
6m0
7m0
7M0