EXTRACT: sysex data=(65,16,66,18,64,0,127,0,65) time=0
EXTRACT: program_change channel=9 program=0 time=0
EXTRACT: note_on channel=9 note=31 velocity=50 time=0
EXTRACT: control_change channel=9 control=121 value=0 time=0
EXTRACT: program_change channel=1 program=35 time=0
EXTRACT: control_change channel=1 control=121 value=0 time=0
EXTRACT: program_change channel=2 program=25 time=0
EXTRACT: control_change channel=2 control=121 value=0 time=0
EXTRACT: program_change channel=3 program=25 time=0
EXTRACT: control_change channel=3 control=121 value=0 time=0
EXTRACT: program_change channel=4 program=27 time=0
EXTRACT: control_change channel=4 control=121 value=0 time=0
EXTRACT: program_change channel=5 program=48 time=0
EXTRACT: control_change channel=5 control=121 value=0 time=0
EXTRACT: program_change channel=6 program=48 time=0
EXTRACT: control_change channel=6 control=121 value=0 time=0
EXTRACT: program_change channel=7 program=27 time=0
EXTRACT: control_change channel=7 control=121 value=0 time=0
EXTRACT: program_change channel=8 program=26 time=0
EXTRACT: control_change channel=8 control=121 value=0 time=0
EXTRACT: program_change channel=10 program=11 time=0
EXTRACT: control_change channel=10 control=121 value=0 time=0
EXTRACT: program_change channel=11 program=53 time=0
EXTRACT: control_change channel=11 control=121 value=0 time=0
EXTRACT: control_change channel=9 control=0 value=0 time=0.005263149999999999
EXTRACT: control_change channel=1 control=0 value=0 time=0
EXTRACT: control_change channel=2 control=0 value=0 time=0
EXTRACT: control_change channel=3 control=0 value=0 time=0
EXTRACT: control_change channel=4 control=0 value=0 time=0
EXTRACT: control_change channel=5 control=0 value=0 time=0
EXTRACT: control_change channel=6 control=0 value=0 time=0
EXTRACT: control_change channel=7 control=0 value=0 time=0
EXTRACT: control_change channel=8 control=0 value=0 time=0
EXTRACT: control_change channel=10 control=0 value=0 time=0
EXTRACT: control_change channel=11 control=0 value=0 time=0
EXTRACT: control_change channel=9 control=32 value=0 time=0.005263149999999999
EXTRACT: control_change channel=1 control=32 value=0 time=0
EXTRACT: control_change channel=2 control=32 value=0 time=0
EXTRACT: control_change channel=3 control=32 value=0 time=0
EXTRACT: control_change channel=4 control=32 value=0 time=0
EXTRACT: control_change channel=5 control=32 value=0 time=0
EXTRACT: control_change channel=6 control=32 value=0 time=0
EXTRACT: control_change channel=7 control=32 value=0 time=0
EXTRACT: control_change channel=8 control=32 value=0 time=0
EXTRACT: control_change channel=10 control=32 value=0 time=0
EXTRACT: control_change channel=11 control=32 value=0 time=0
EXTRACT: program_change channel=9 program=0 time=0.005263149999999999
EXTRACT: program_change channel=1 program=35 time=0
EXTRACT: program_change channel=2 program=25 time=0
EXTRACT: program_change channel=3 program=25 time=0
EXTRACT: program_change channel=4 program=27 time=0
EXTRACT: program_change channel=5 program=48 time=0
EXTRACT: program_change channel=6 program=48 time=0
EXTRACT: program_change channel=7 program=27 time=0
EXTRACT: program_change channel=8 program=26 time=0
EXTRACT: program_change channel=10 program=11 time=0
EXTRACT: program_change channel=11 program=53 time=0
EXTRACT: control_change channel=9 control=7 value=127 time=0.005263149999999999
EXTRACT: control_change channel=1 control=7 value=110 time=0
EXTRACT: control_change channel=2 control=7 value=100 time=0
EXTRACT: control_change channel=3 control=7 value=70 time=0
EXTRACT: control_change channel=4 control=7 value=100 time=0
EXTRACT: control_change channel=5 control=7 value=60 time=0
EXTRACT: control_change channel=6 control=7 value=70 time=0
EXTRACT: control_change channel=7 control=7 value=80 time=0
EXTRACT: control_change channel=8 control=7 value=127 time=0
EXTRACT: control_change channel=10 control=7 value=105 time=0
EXTRACT: control_change channel=11 control=7 value=100 time=0
EXTRACT: control_change channel=9 control=11 value=127 time=0.005263149999999999
EXTRACT: control_change channel=1 control=11 value=127 time=0
EXTRACT: control_change channel=2 control=11 value=127 time=0
EXTRACT: control_change channel=3 control=11 value=127 time=0
EXTRACT: control_change channel=4 control=11 value=127 time=0
EXTRACT: control_change channel=5 control=11 value=127 time=0
EXTRACT: control_change channel=6 control=11 value=127 time=0
EXTRACT: control_change channel=7 control=11 value=127 time=0
EXTRACT: control_change channel=8 control=11 value=127 time=0
EXTRACT: control_change channel=10 control=11 value=127 time=0
EXTRACT: control_change channel=11 control=11 value=127 time=0
EXTRACT: control_change channel=9 control=10 value=64 time=0.005263149999999999
EXTRACT: control_change channel=1 control=10 value=55 time=0
EXTRACT: control_change channel=2 control=10 value=1 time=0
EXTRACT: control_change channel=3 control=10 value=127 time=0
EXTRACT: control_change channel=4 control=10 value=75 time=0
EXTRACT: control_change channel=5 control=10 value=127 time=0
EXTRACT: control_change channel=6 control=10 value=1 time=0
EXTRACT: control_change channel=7 control=10 value=20 time=0
EXTRACT: control_change channel=8 control=10 value=64 time=0
EXTRACT: control_change channel=10 control=10 value=100 time=0
EXTRACT: control_change channel=11 control=10 value=20 time=0
EXTRACT: control_change channel=9 control=91 value=110 time=0.005263149999999999
EXTRACT: control_change channel=1 control=91 value=64 time=0
EXTRACT: control_change channel=2 control=91 value=64 time=0
EXTRACT: control_change channel=3 control=91 value=64 time=0
EXTRACT: control_change channel=4 control=91 value=100 time=0
EXTRACT: control_change channel=5 control=91 value=100 time=0
EXTRACT: control_change channel=6 control=91 value=100 time=0
EXTRACT: control_change channel=7 control=91 value=100 time=0
EXTRACT: control_change channel=8 control=91 value=64 time=0
EXTRACT: control_change channel=10 control=91 value=64 time=0
EXTRACT: control_change channel=11 control=91 value=100 time=0
EXTRACT: control_change channel=9 control=93 value=0 time=0.005263149999999999
EXTRACT: control_change channel=1 control=93 value=64 time=0
EXTRACT: control_change channel=2 control=93 value=0 time=0
EXTRACT: control_change channel=3 control=93 value=0 time=0
EXTRACT: control_change channel=4 control=93 value=100 time=0
EXTRACT: control_change channel=5 control=93 value=100 time=0
EXTRACT: control_change channel=6 control=93 value=100 time=0
EXTRACT: control_change channel=7 control=93 value=100 time=0
EXTRACT: control_change channel=8 control=93 value=64 time=0
EXTRACT: control_change channel=10 control=93 value=64 time=0
EXTRACT: control_change channel=11 control=93 value=100 time=0
EXTRACT: control_change channel=2 control=101 value=0 time=0.005263149999999999
EXTRACT: control_change channel=6 control=101 value=0 time=0
EXTRACT: control_change channel=8 control=101 value=0 time=0
EXTRACT: control_change channel=10 control=101 value=0 time=0
EXTRACT: note_on channel=9 note=31 velocity=0 time=0.005263149999999999
EXTRACT: control_change channel=2 control=100 value=0 time=0
EXTRACT: control_change channel=6 control=100 value=0 time=0
EXTRACT: control_change channel=8 control=100 value=0 time=0
EXTRACT: control_change channel=10 control=100 value=0 time=0
EXTRACT: control_change channel=2 control=6 value=12 time=0.005263149999999999
EXTRACT: control_change channel=6 control=6 value=2 time=0
EXTRACT: control_change channel=8 control=6 value=12 time=0
EXTRACT: control_change channel=10 control=6 value=12 time=0
EXTRACT: control_change channel=2 control=101 value=127 time=0.005263149999999999
EXTRACT: control_change channel=6 control=101 value=127 time=0
EXTRACT: control_change channel=8 control=101 value=127 time=0
EXTRACT: control_change channel=10 control=101 value=127 time=0
EXTRACT: control_change channel=2 control=100 value=127 time=0.005263149999999999
EXTRACT: control_change channel=6 control=100 value=127 time=0
EXTRACT: control_change channel=8 control=100 value=127 time=0
EXTRACT: control_change channel=10 control=100 value=127 time=0
EXTRACT: note_on channel=9 note=31 velocity=60 time=0.5631570499999999
EXTRACT: note_on channel=9 note=31 velocity=0 time=0.0526315
EXTRACT: note_on channel=9 note=31 velocity=70 time=0.5789464999999999
EXTRACT: note_on channel=9 note=31 velocity=0 time=0.0526315
EXTRACT: note_on channel=9 note=31 velocity=80 time=0.5789464999999999
EXTRACT: note_on channel=9 note=31 velocity=0 time=0.0526315
EXTRACT: note_on channel=2 note=47 velocity=125 time=0.5736833499999999
EXTRACT: note_on channel=2 note=62 velocity=121 time=0.315789
EXTRACT: note_on channel=3 note=62 velocity=123 time=0.010526299999999999
EXTRACT: note_on channel=2 note=66 velocity=122 time=0.14736819999999998
EXTRACT: note_on channel=3 note=62 velocity=0 time=0.16842079999999998
EXTRACT: note_on channel=2 note=62 velocity=118 time=0.14736819999999998
EXTRACT: note_on channel=3 note=62 velocity=113 time=0.010526299999999999
EXTRACT: note_on channel=3 note=62 velocity=0 time=0.1578945
EXTRACT: note_on channel=3 note=61 velocity=118 time=0
EXTRACT: note_on channel=2 note=59 velocity=126 time=0.14736819999999998
EXTRACT: note_on channel=3 note=61 velocity=0 time=0.010526299999999999
EXTRACT: note_on channel=3 note=59 velocity=112 time=0
EXTRACT: note_on channel=3 note=59 velocity=0 time=0.1578945
EXTRACT: note_on channel=2 note=62 velocity=119 time=0.14736819999999998
EXTRACT: note_on channel=3 note=62 velocity=119 time=0.010526299999999999
EXTRACT: note_on channel=3 note=62 velocity=0 time=0.1578945
EXTRACT: note_on channel=2 note=66 velocity=106 time=0.14736819999999998
EXTRACT: note_on channel=3 note=62 velocity=112 time=0.010526299999999999
EXTRACT: note_on channel=2 note=66 velocity=107 time=0.14736819999999998
EXTRACT: note_on channel=2 note=62 velocity=125 time=0.315789
EXTRACT: note_on channel=2 note=47 velocity=0 time=0.315789
EXTRACT: note_on channel=2 note=62 velocity=0 time=0
EXTRACT: note_on channel=2 note=66 velocity=0 time=0
EXTRACT: note_on channel=2 note=62 velocity=0 time=0
EXTRACT: note_on channel=2 note=59 velocity=0 time=0
EXTRACT: note_on channel=2 note=62 velocity=0 time=0
EXTRACT: note_on channel=2 note=66 velocity=0 time=0
EXTRACT: note_on channel=2 note=66 velocity=0 time=0
EXTRACT: note_on channel=2 note=47 velocity=124 time=0
EXTRACT: note_on channel=3 note=62 velocity=0 time=0.010526299999999999
EXTRACT: note_on channel=2 note=62 velocity=0 time=0.30526269999999994
EXTRACT: note_on channel=2 note=62 velocity=115 time=0
EXTRACT: note_on channel=3 note=62 velocity=104 time=0.010526299999999999
EXTRACT: note_on channel=2 note=66 velocity=109 time=0.14736819999999998
EXTRACT: note_on channel=3 note=62 velocity=0 time=0.16842079999999998
EXTRACT: note_on channel=2 note=62 velocity=114 time=0.14736819999999998
EXTRACT: note_on channel=3 note=62 velocity=113 time=0.010526299999999999
EXTRACT: note_on channel=3 note=62 velocity=0 time=0.1578945
EXTRACT: note_on channel=3 note=61 velocity=127 time=0
EXTRACT: note_on channel=2 note=59 velocity=122 time=0.14736819999999998
EXTRACT: note_on channel=3 note=61 velocity=0 time=0.010526299999999999
EXTRACT: note_on channel=3 note=59 velocity=107 time=0
EXTRACT: note_on channel=3 note=59 velocity=0 time=0.1578945
EXTRACT: note_on channel=2 note=62 velocity=119 time=0.14736819999999998
EXTRACT: note_on channel=3 note=62 velocity=113 time=0.010526299999999999
EXTRACT: note_on channel=3 note=62 velocity=0 time=0.1578945
EXTRACT: note_on channel=2 note=66 velocity=106 time=0.14736819999999998
EXTRACT: note_on channel=3 note=62 velocity=113 time=0.010526299999999999
EXTRACT: note_on channel=2 note=66 velocity=116 time=0.14736819999999998
EXTRACT: note_on channel=2 note=62 velocity=109 time=0.315789
EXTRACT: note_on channel=2 note=47 velocity=0 time=0.315789
EXTRACT: note_on channel=2 note=62 velocity=0 time=0
EXTRACT: note_on channel=2 note=66 velocity=0 time=0
EXTRACT: note_on channel=2 note=62 velocity=0 time=0
EXTRACT: note_on channel=2 note=59 velocity=0 time=0
EXTRACT: note_on channel=2 note=62 velocity=0 time=0
EXTRACT: note_on channel=2 note=66 velocity=0 time=0
EXTRACT: note_on channel=2 note=66 velocity=0 time=0
EXTRACT: note_on channel=2 note=62 velocity=0 time=0
EXTRACT: note_on channel=2 note=40 velocity=107 time=0
EXTRACT: note_on channel=3 note=62 velocity=0 time=0.010526299999999999
EXTRACT: note_on channel=2 note=62 velocity=108 time=0.30526269999999994
EXTRACT: note_on channel=3 note=62 velocity=104 time=0.010526299999999999
EXTRACT: note_on channel=2 note=67 velocity=115 time=0.14736819999999998
EXTRACT: note_on channel=3 note=62 velocity=0 time=0.16842079999999998
EXTRACT: note_on channel=2 note=62 velocity=116 time=0.14736819999999998
EXTRACT: note_on channel=3 note=62 velocity=102 time=0.010526299999999999
EXTRACT: note_on channel=3 note=62 velocity=0 time=0.1578945
EXTRACT: note_on channel=3 note=61 velocity=108 time=0
EXTRACT: note_on channel=2 note=59 velocity=110 time=0.14736819999999998
EXTRACT: note_on channel=3 note=61 velocity=0 time=0.010526299999999999
EXTRACT: note_on channel=3 note=59 velocity=114 time=0
EXTRACT: note_on channel=3 note=59 velocity=0 time=0.1578945
EXTRACT: note_on channel=2 note=62 velocity=112 time=0.14736819999999998
EXTRACT: note_on channel=3 note=62 velocity=122 time=0.010526299999999999
EXTRACT: note_on channel=3 note=62 velocity=0 time=0.1578945
EXTRACT: note_on channel=2 note=67 velocity=113 time=0.14736819999999998
EXTRACT: note_on channel=3 note=62 velocity=116 time=0.010526299999999999
EXTRACT: note_on channel=2 note=67 velocity=120 time=0.14736819999999998
EXTRACT: note_on channel=2 note=62 velocity=118 time=0.315789
EXTRACT: note_on channel=2 note=40 velocity=0 time=0.315789
EXTRACT: note_on channel=2 note=62 velocity=0 time=0
EXTRACT: note_on channel=2 note=67 velocity=0 time=0
EXTRACT: note_on channel=2 note=62 velocity=0 time=0
EXTRACT: note_on channel=2 note=59 velocity=0 time=0
EXTRACT: note_on channel=2 note=62 velocity=0 time=0
EXTRACT: note_on channel=2 note=67 velocity=0 time=0
EXTRACT: note_on channel=2 note=67 velocity=0 time=0
EXTRACT: note_on channel=2 note=62 velocity=0 time=0
EXTRACT: note_on channel=2 note=57 velocity=98 time=0
EXTRACT: note_on channel=2 note=54 velocity=115 time=0
EXTRACT: note_on channel=3 note=62 velocity=0 time=0.010526299999999999
EXTRACT: note_on channel=2 note=61 velocity=110 time=0.30526269999999994
EXTRACT: note_on channel=3 note=61 velocity=122 time=0.010526299999999999
EXTRACT: note_on channel=2 note=64 velocity=120 time=0.14736819999999998
EXTRACT: note_on channel=3 note=61 velocity=0 time=0.16842079999999998
EXTRACT: note_on channel=2 note=61 velocity=103 time=0.14736819999999998
EXTRACT: note_on channel=3 note=61 velocity=118 time=0.010526299999999999
EXTRACT: note_on channel=2 note=57 velocity=120 time=0.30526269999999994
EXTRACT: note_on channel=3 note=61 velocity=0 time=0.010526299999999999
EXTRACT: note_on channel=2 note=61 velocity=107 time=0.14736819999999998
EXTRACT: note_on channel=3 note=61 velocity=105 time=0.010526299999999999
EXTRACT: note_on channel=2 note=64 velocity=104 time=0.14736819999999998
EXTRACT: note_on channel=2 note=66 velocity=121 time=0.1578945
EXTRACT: note_on channel=2 note=69 velocity=118 time=0.1578945
EXTRACT: note_on channel=5 note=83 velocity=98 time=0.47894665
EXTRACT: note_on channel=5 note=71 velocity=112 time=0
EXTRACT: note_on channel=6 note=45 velocity=87 time=0
EXTRACT: note_on channel=3 note=61 velocity=106 time=0.005263149999999999
EXTRACT: note_on channel=5 note=83 velocity=0 time=0.15263134999999997
EXTRACT: note_on channel=5 note=71 velocity=0 time=0
EXTRACT: note_on channel=5 note=86 velocity=105 time=0
EXTRACT: note_on channel=5 note=74 velocity=109 time=0
EXTRACT: note_on channel=2 note=57 velocity=0 time=0.15263134999999997
EXTRACT: note_on channel=2 note=54 velocity=0 time=0
EXTRACT: note_on channel=2 note=61 velocity=0 time=0
EXTRACT: note_on channel=2 note=64 velocity=0 time=0
EXTRACT: note_on channel=2 note=61 velocity=0 time=0
EXTRACT: note_on channel=2 note=57 velocity=0 time=0
EXTRACT: note_on channel=2 note=61 velocity=0 time=0
EXTRACT: note_on channel=2 note=64 velocity=0 time=0
EXTRACT: note_on channel=2 note=66 velocity=0 time=0
EXTRACT: note_on channel=2 note=69 velocity=0 time=0
EXTRACT: note_on channel=2 note=47 velocity=112 time=0
EXTRACT: note_on channel=1 note=35 velocity=80 time=0.005263149999999999
EXTRACT: note_on channel=4 note=47 velocity=101 time=0
EXTRACT: note_on channel=4 note=59 velocity=104 time=0
EXTRACT: note_on channel=5 note=86 velocity=0 time=0
EXTRACT: note_on channel=5 note=74 velocity=0 time=0
EXTRACT: note_on channel=5 note=85 velocity=109 time=0
EXTRACT: note_on channel=5 note=73 velocity=103 time=0
EXTRACT: note_on channel=6 note=45 velocity=0 time=0
EXTRACT: note_on channel=6 note=35 velocity=105 time=0
EXTRACT: note_on channel=6 note=47 velocity=88 time=0
EXTRACT: note_on channel=3 note=61 velocity=0 time=0.005263149999999999
EXTRACT: note_on channel=3 note=61 velocity=0 time=0
EXTRACT: note_on channel=2 note=62 velocity=105 time=0.30526269999999994
EXTRACT: note_on channel=1 note=35 velocity=0 time=0.005263149999999999
EXTRACT: note_on channel=4 note=47 velocity=0 time=0
EXTRACT: note_on channel=4 note=59 velocity=0 time=0
EXTRACT: note_on channel=3 note=62 velocity=102 time=0.005263149999999999
EXTRACT: note_on channel=2 note=66 velocity=115 time=0.14736819999999998
EXTRACT: note_on channel=1 note=35 velocity=80 time=0.005263149999999999
EXTRACT: note_on channel=4 note=47 velocity=117 time=0
EXTRACT: note_on channel=4 note=59 velocity=95 time=0
EXTRACT: note_on channel=9 note=69 velocity=62 time=0.1578945
EXTRACT: note_on channel=1 note=35 velocity=0 time=0
EXTRACT: note_on channel=4 note=47 velocity=0 time=0
EXTRACT: note_on channel=4 note=59 velocity=0 time=0
EXTRACT: note_on channel=6 note=35 velocity=0 time=0
EXTRACT: note_on channel=6 note=47 velocity=0 time=0
EXTRACT: note_on channel=3 note=62 velocity=0 time=0.005263149999999999
EXTRACT: note_on channel=9 note=69 velocity=0 time=0.04736835
EXTRACT: note_on channel=2 note=62 velocity=110 time=0.09999984999999999
EXTRACT: note_on channel=9 note=69 velocity=70 time=0.005263149999999999
EXTRACT: note_on channel=3 note=62 velocity=115 time=0.005263149999999999
EXTRACT: note_on channel=9 note=69 velocity=0 time=0.04736835
EXTRACT: note_on channel=6 note=61 velocity=117 time=0.105263
EXTRACT: note_on channel=3 note=62 velocity=0 time=0.005263149999999999
EXTRACT: note_on channel=3 note=61 velocity=126 time=0
EXTRACT: note_on channel=2 note=59 velocity=121 time=0.14736819999999998
EXTRACT: note_on channel=9 note=69 velocity=62 time=0.005263149999999999
EXTRACT: note_on channel=3 note=61 velocity=0 time=0.005263149999999999
EXTRACT: note_on channel=3 note=59 velocity=107 time=0
EXTRACT: note_on channel=9 note=69 velocity=0 time=0.04736835
EXTRACT: note_on channel=3 note=59 velocity=0 time=0.11052614999999999
EXTRACT: note_on channel=2 note=62 velocity=111 time=0.14736819999999998
EXTRACT: note_on channel=9 note=69 velocity=73 time=0.005263149999999999
EXTRACT: note_on channel=3 note=62 velocity=112 time=0.005263149999999999
EXTRACT: note_on channel=9 note=69 velocity=0 time=0.04736835
EXTRACT: note_on channel=9 note=69 velocity=78 time=0.105263
EXTRACT: note_on channel=4 note=47 velocity=93 time=0
EXTRACT: note_on channel=4 note=59 velocity=116 time=0
EXTRACT: note_on channel=6 note=61 velocity=0 time=0
EXTRACT: note_on channel=6 note=62 velocity=112 time=0
EXTRACT: note_on channel=3 note=62 velocity=0 time=0.005263149999999999
EXTRACT: note_on channel=9 note=69 velocity=0 time=0.04736835
EXTRACT: note_on channel=2 note=66 velocity=123 time=0.09999984999999999
EXTRACT: note_on channel=4 note=47 velocity=0 time=0.005263149999999999
EXTRACT: note_on channel=4 note=59 velocity=0 time=0
EXTRACT: note_on channel=3 note=62 velocity=122 time=0.005263149999999999
EXTRACT: note_on channel=2 note=66 velocity=106 time=0.14736819999999998
EXTRACT: note_on channel=9 note=69 velocity=66 time=0.005263149999999999
EXTRACT: note_on channel=5 note=85 velocity=0 time=0
EXTRACT: note_on channel=5 note=73 velocity=0 time=0
EXTRACT: note_on channel=5 note=81 velocity=107 time=0
EXTRACT: note_on channel=5 note=69 velocity=113 time=0
EXTRACT: note_on channel=6 note=62 velocity=0 time=0
EXTRACT: note_on channel=6 note=61 velocity=115 time=0
EXTRACT: note_on channel=9 note=69 velocity=0 time=0.0526315
EXTRACT: note_on channel=2 note=62 velocity=115 time=0.25789435
EXTRACT: note_on channel=6 note=61 velocity=0 time=0.005263149999999999
EXTRACT: note_on channel=6 note=57 velocity=113 time=0
EXTRACT: note_on channel=2 note=47 velocity=0 time=0.31052585
EXTRACT: note_on channel=2 note=62 velocity=0 time=0
EXTRACT: note_on channel=2 note=66 velocity=0 time=0
EXTRACT: note_on channel=2 note=62 velocity=0 time=0
EXTRACT: note_on channel=2 note=59 velocity=0 time=0
EXTRACT: note_on channel=2 note=62 velocity=0 time=0
EXTRACT: note_on channel=2 note=66 velocity=0 time=0
EXTRACT: note_on channel=2 note=66 velocity=0 time=0
EXTRACT: note_on channel=2 note=47 velocity=124 time=0
EXTRACT: note_on channel=1 note=35 velocity=80 time=0.005263149999999999
EXTRACT: note_on channel=4 note=47 velocity=97 time=0
EXTRACT: note_on channel=4 note=59 velocity=109 time=0
EXTRACT: note_on channel=5 note=81 velocity=0 time=0
EXTRACT: note_on channel=5 note=69 velocity=0 time=0
EXTRACT: note_on channel=5 note=78 velocity=101 time=0
EXTRACT: note_on channel=5 note=66 velocity=107 time=0
EXTRACT: note_on channel=6 note=57 velocity=0 time=0
EXTRACT: note_on channel=6 note=35 velocity=91 time=0
EXTRACT: note_on channel=6 note=47 velocity=108 time=0
EXTRACT: note_on channel=6 note=54 velocity=116 time=0
EXTRACT: note_on channel=3 note=62 velocity=0 time=0.005263149999999999
EXTRACT: note_on channel=2 note=62 velocity=0 time=0.30526269999999994
EXTRACT: note_on channel=2 note=62 velocity=115 time=0
EXTRACT: note_on channel=1 note=35 velocity=0 time=0.005263149999999999
EXTRACT: note_on channel=4 note=47 velocity=0 time=0
EXTRACT: note_on channel=4 note=59 velocity=0 time=0
EXTRACT: note_on channel=3 note=62 velocity=106 time=0.005263149999999999
EXTRACT: note_on channel=2 note=66 velocity=106 time=0.14736819999999998
EXTRACT: note_on channel=1 note=35 velocity=80 time=0.005263149999999999
EXTRACT: note_on channel=4 note=47 velocity=92 time=0
EXTRACT: note_on channel=4 note=59 velocity=110 time=0
EXTRACT: note_on channel=9 note=69 velocity=76 time=0.1578945
EXTRACT: note_on channel=1 note=35 velocity=0 time=0
EXTRACT: note_on channel=4 note=47 velocity=0 time=0
EXTRACT: note_on channel=4 note=59 velocity=0 time=0
EXTRACT: note_on channel=6 note=35 velocity=0 time=0
EXTRACT: note_on channel=6 note=47 velocity=0 time=0
EXTRACT: note_on channel=6 note=54 velocity=0 time=0
EXTRACT: note_on channel=3 note=62 velocity=0 time=0.005263149999999999
EXTRACT: note_on channel=9 note=69 velocity=0 time=0.04736835
EXTRACT: note_on channel=2 note=62 velocity=126 time=0.09999984999999999
EXTRACT: note_on channel=9 note=69 velocity=82 time=0.005263149999999999
EXTRACT: note_on channel=3 note=62 velocity=116 time=0.005263149999999999
EXTRACT: note_on channel=9 note=69 velocity=0 time=0.04736835
EXTRACT: note_on channel=9 note=69 velocity=68 time=0.105263
EXTRACT: note_on channel=6 note=61 velocity=117 time=0
EXTRACT: note_on channel=3 note=62 velocity=0 time=0.005263149999999999
EXTRACT: note_on channel=3 note=61 velocity=105 time=0
EXTRACT: note_on channel=9 note=69 velocity=0 time=0.04736835
EXTRACT: note_on channel=2 note=59 velocity=122 time=0.09999984999999999
EXTRACT: note_on channel=9 note=69 velocity=82 time=0.005263149999999999
EXTRACT: note_on channel=3 note=61 velocity=0 time=0.005263149999999999
EXTRACT: note_on channel=3 note=59 velocity=123 time=0
EXTRACT: note_on channel=9 note=69 velocity=0 time=0.04736835
EXTRACT: note_on channel=3 note=59 velocity=0 time=0.11052614999999999
EXTRACT: note_on channel=2 note=62 velocity=113 time=0.14736819999999998
EXTRACT: note_on channel=9 note=69 velocity=64 time=0.005263149999999999
EXTRACT: note_on channel=3 note=62 velocity=115 time=0.005263149999999999
EXTRACT: note_on channel=9 note=69 velocity=0 time=0.04736835
EXTRACT: note_on channel=9 note=69 velocity=66 time=0.105263
EXTRACT: note_on channel=4 note=47 velocity=115 time=0
EXTRACT: note_on channel=4 note=59 velocity=113 time=0
EXTRACT: note_on channel=6 note=61 velocity=0 time=0
EXTRACT: note_on channel=6 note=62 velocity=122 time=0
EXTRACT: note_on channel=3 note=62 velocity=0 time=0.005263149999999999
EXTRACT: note_on channel=9 note=69 velocity=0 time=0.04736835
EXTRACT: note_on channel=2 note=66 velocity=118 time=0.09999984999999999
EXTRACT: note_on channel=4 note=47 velocity=0 time=0.005263149999999999
EXTRACT: note_on channel=4 note=59 velocity=0 time=0
EXTRACT: note_on channel=3 note=62 velocity=108 time=0.005263149999999999
EXTRACT: note_on channel=2 note=66 velocity=102 time=0.14736819999999998
EXTRACT: note_on channel=9 note=69 velocity=82 time=0.005263149999999999
EXTRACT: note_on channel=6 note=62 velocity=0 time=0
EXTRACT: note_on channel=6 note=61 velocity=125 time=0
EXTRACT: note_on channel=9 note=69 velocity=0 time=0.0526315
EXTRACT: note_on channel=2 note=62 velocity=105 time=0.25789435
EXTRACT: note_on channel=6 note=61 velocity=0 time=0.005263149999999999
EXTRACT: note_on channel=6 note=57 velocity=119 time=0
EXTRACT: note_on channel=2 note=47 velocity=0 time=0.31052585
EXTRACT: note_on channel=2 note=62 velocity=0 time=0
EXTRACT: note_on channel=2 note=66 velocity=0 time=0
EXTRACT: note_on channel=2 note=62 velocity=0 time=0
EXTRACT: note_on channel=2 note=59 velocity=0 time=0
EXTRACT: note_on channel=2 note=62 velocity=0 time=0
EXTRACT: note_on channel=2 note=66 velocity=0 time=0
EXTRACT: note_on channel=2 note=66 velocity=0 time=0
EXTRACT: note_on channel=2 note=62 velocity=0 time=0
EXTRACT: note_on channel=2 note=40 velocity=118 time=0
EXTRACT: note_on channel=1 note=28 velocity=80 time=0.005263149999999999
EXTRACT: note_on channel=4 note=52 velocity=111 time=0
EXTRACT: note_on channel=4 note=64 velocity=100 time=0
EXTRACT: note_on channel=5 note=78 velocity=0 time=0
EXTRACT: note_on channel=5 note=66 velocity=0 time=0
EXTRACT: note_on channel=5 note=83 velocity=100 time=0
EXTRACT: note_on channel=5 note=71 velocity=103 time=0
EXTRACT: note_on channel=6 note=57 velocity=0 time=0
EXTRACT: note_on channel=6 note=40 velocity=117 time=0
EXTRACT: note_on channel=6 note=28 velocity=116 time=0
EXTRACT: note_on channel=3 note=62 velocity=0 time=0.005263149999999999
EXTRACT: note_on channel=4 note=52 velocity=0 time=0.15263134999999997
EXTRACT: note_on channel=4 note=64 velocity=0 time=0
EXTRACT: note_on channel=2 note=62 velocity=105 time=0.15263134999999997
EXTRACT: note_on channel=1 note=28 velocity=0 time=0.005263149999999999
EXTRACT: note_on channel=3 note=62 velocity=118 time=0.005263149999999999
EXTRACT: note_on channel=2 note=67 velocity=124 time=0.14736819999999998
EXTRACT: note_on channel=1 note=28 velocity=80 time=0.005263149999999999
EXTRACT: note_on channel=4 note=52 velocity=105 time=0
EXTRACT: note_on channel=4 note=64 velocity=98 time=0
EXTRACT: note_on channel=9 note=69 velocity=62 time=0.1578945
EXTRACT: note_on channel=1 note=28 velocity=0 time=0
EXTRACT: note_on channel=4 note=52 velocity=0 time=0
EXTRACT: note_on channel=4 note=64 velocity=0 time=0
EXTRACT: note_on channel=6 note=40 velocity=0 time=0
EXTRACT: note_on channel=6 note=28 velocity=0 time=0
EXTRACT: note_on channel=3 note=62 velocity=0 time=0.005263149999999999
EXTRACT: note_on channel=9 note=69 velocity=0 time=0.04736835
EXTRACT: note_on channel=2 note=62 velocity=123 time=0.09999984999999999
EXTRACT: note_on channel=9 note=69 velocity=70 time=0.005263149999999999
EXTRACT: note_on channel=3 note=62 velocity=126 time=0.005263149999999999
EXTRACT: note_on channel=9 note=69 velocity=0 time=0.04736835
EXTRACT: note_on channel=6 note=66 velocity=120 time=0.105263
EXTRACT: note_on channel=3 note=62 velocity=0 time=0.005263149999999999
EXTRACT: note_on channel=3 note=61 velocity=110 time=0
EXTRACT: note_on channel=2 note=59 velocity=107 time=0.14736819999999998
EXTRACT: note_on channel=9 note=69 velocity=62 time=0.005263149999999999
EXTRACT: note_on channel=3 note=61 velocity=0 time=0.005263149999999999
EXTRACT: note_on channel=3 note=59 velocity=104 time=0
EXTRACT: note_on channel=9 note=69 velocity=0 time=0.04736835
EXTRACT: note_on channel=3 note=59 velocity=0 time=0.11052614999999999
EXTRACT: note_on channel=2 note=62 velocity=115 time=0.14736819999999998
EXTRACT: note_on channel=9 note=69 velocity=73 time=0.005263149999999999
EXTRACT: note_on channel=3 note=62 velocity=125 time=0.005263149999999999
EXTRACT: note_on channel=9 note=69 velocity=0 time=0.04736835
EXTRACT: note_on channel=9 note=69 velocity=78 time=0.105263
EXTRACT: note_on channel=4 note=52 velocity=99 time=0
EXTRACT: note_on channel=4 note=64 velocity=93 time=0
EXTRACT: note_on channel=6 note=66 velocity=0 time=0
EXTRACT: note_on channel=6 note=67 velocity=125 time=0
EXTRACT: note_on channel=3 note=62 velocity=0 time=0.005263149999999999
EXTRACT: note_on channel=9 note=69 velocity=0 time=0.04736835
EXTRACT: note_on channel=2 note=67 velocity=106 time=0.09999984999999999
EXTRACT: note_on channel=4 note=52 velocity=0 time=0.005263149999999999
EXTRACT: note_on channel=4 note=64 velocity=0 time=0
EXTRACT: note_on channel=3 note=62 velocity=122 time=0.005263149999999999
EXTRACT: note_on channel=2 note=67 velocity=126 time=0.14736819999999998
EXTRACT: note_on channel=9 note=69 velocity=66 time=0.005263149999999999
EXTRACT: note_on channel=6 note=67 velocity=0 time=0
EXTRACT: note_on channel=6 note=66 velocity=126 time=0
EXTRACT: note_on channel=9 note=69 velocity=0 time=0.0526315
EXTRACT: note_on channel=2 note=62 velocity=114 time=0.25789435
EXTRACT: note_on channel=5 note=83 velocity=0 time=0.005263149999999999
EXTRACT: note_on channel=5 note=71 velocity=0 time=0
EXTRACT: note_on channel=5 note=85 velocity=117 time=0
EXTRACT: note_on channel=5 note=73 velocity=112 time=0
EXTRACT: note_on channel=6 note=66 velocity=0 time=0
EXTRACT: note_on channel=6 note=62 velocity=119 time=0
EXTRACT: note_on channel=2 note=40 velocity=0 time=0.31052585
EXTRACT: note_on channel=2 note=62 velocity=0 time=0
EXTRACT: note_on channel=2 note=67 velocity=0 time=0
EXTRACT: note_on channel=2 note=62 velocity=0 time=0
EXTRACT: note_on channel=2 note=59 velocity=0 time=0
EXTRACT: note_on channel=2 note=62 velocity=0 time=0
EXTRACT: note_on channel=2 note=67 velocity=0 time=0
EXTRACT: note_on channel=2 note=67 velocity=0 time=0
EXTRACT: note_on channel=2 note=62 velocity=0 time=0
EXTRACT: note_on channel=2 note=57 velocity=111 time=0
EXTRACT: note_on channel=2 note=54 velocity=126 time=0
EXTRACT: note_on channel=4 note=54 velocity=86 time=0.005263149999999999
EXTRACT: note_on channel=4 note=66 velocity=86 time=0
EXTRACT: note_on channel=5 note=85 velocity=0 time=0
EXTRACT: note_on channel=5 note=73 velocity=0 time=0
EXTRACT: note_on channel=5 note=86 velocity=108 time=0
EXTRACT: note_on channel=5 note=74 velocity=111 time=0
EXTRACT: note_on channel=6 note=62 velocity=0 time=0
EXTRACT: note_on channel=6 note=62 velocity=115 time=0
EXTRACT: note_on channel=3 note=62 velocity=0 time=0.005263149999999999
EXTRACT: note_on channel=4 note=54 velocity=0 time=0.15263134999999997
EXTRACT: note_on channel=4 note=66 velocity=0 time=0
EXTRACT: note_on channel=2 note=61 velocity=121 time=0.15263134999999997
EXTRACT: note_on channel=3 note=61 velocity=114 time=0.010526299999999999
EXTRACT: note_on channel=2 note=64 velocity=108 time=0.14736819999999998
EXTRACT: note_on channel=4 note=54 velocity=101 time=0.005263149999999999
EXTRACT: note_on channel=4 note=66 velocity=87 time=0
EXTRACT: note_on channel=9 note=69 velocity=76 time=0.1578945
EXTRACT: note_on channel=4 note=54 velocity=0 time=0
EXTRACT: note_on channel=4 note=66 velocity=0 time=0
EXTRACT: note_on channel=5 note=86 velocity=0 time=0
EXTRACT: note_on channel=5 note=74 velocity=0 time=0
EXTRACT: note_on channel=5 note=85 velocity=117 time=0
EXTRACT: note_on channel=5 note=73 velocity=114 time=0
EXTRACT: note_on channel=6 note=62 velocity=0 time=0
EXTRACT: note_on channel=6 note=61 velocity=122 time=0
EXTRACT: note_on channel=3 note=61 velocity=0 time=0.005263149999999999
EXTRACT: note_on channel=9 note=69 velocity=0 time=0.04736835
EXTRACT: note_on channel=2 note=61 velocity=102 time=0.09999984999999999
EXTRACT: note_on channel=9 note=69 velocity=82 time=0.005263149999999999
EXTRACT: note_on channel=3 note=61 velocity=118 time=0.005263149999999999
EXTRACT: note_on channel=9 note=69 velocity=0 time=0.04736835
EXTRACT: note_on channel=9 note=69 velocity=68 time=0.105263
EXTRACT: note_on channel=9 note=69 velocity=0 time=0.0526315
EXTRACT: note_on channel=2 note=57 velocity=115 time=0.09999984999999999
EXTRACT: note_on channel=9 note=69 velocity=82 time=0.005263149999999999
EXTRACT: note_on channel=3 note=61 velocity=0 time=0.005263149999999999
EXTRACT: note_on channel=9 note=69 velocity=0 time=0.04736835
EXTRACT: note_on channel=2 note=61 velocity=127 time=0.09999984999999999
EXTRACT: note_on channel=9 note=36 velocity=120 time=0.005263149999999999
EXTRACT: note_on channel=5 note=85 velocity=0 time=0
EXTRACT: note_on channel=5 note=73 velocity=0 time=0
EXTRACT: note_on channel=5 note=83 velocity=112 time=0
EXTRACT: note_on channel=5 note=71 velocity=105 time=0
EXTRACT: note_on channel=6 note=61 velocity=0 time=0
EXTRACT: note_on channel=6 note=59 velocity=122 time=0
EXTRACT: note_on channel=3 note=61 velocity=107 time=0.005263149999999999
EXTRACT: note_on channel=9 note=36 velocity=0 time=0.04736835
EXTRACT: note_on channel=2 note=64 velocity=111 time=0.09999984999999999
EXTRACT: note_on channel=9 note=69 velocity=64 time=0.005263149999999999
EXTRACT: note_on channel=9 note=69 velocity=0 time=0.0526315
EXTRACT: note_on channel=2 note=66 velocity=123 time=0.09999984999999999
EXTRACT: note_on channel=9 note=36 velocity=120 time=0.005263149999999999
EXTRACT: note_on channel=9 note=69 velocity=66 time=0
EXTRACT: note_on channel=4 note=54 velocity=97 time=0
EXTRACT: note_on channel=4 note=66 velocity=90 time=0
EXTRACT: note_on channel=9 note=36 velocity=0 time=0.0526315
EXTRACT: note_on channel=9 note=69 velocity=0 time=0
EXTRACT: note_on channel=2 note=69 velocity=121 time=0.09999984999999999
EXTRACT: note_on channel=4 note=54 velocity=0 time=0.005263149999999999
EXTRACT: note_on channel=4 note=66 velocity=0 time=0
EXTRACT: note_on channel=9 note=40 velocity=127 time=0.1578945
EXTRACT: note_on channel=9 note=69 velocity=82 time=0
EXTRACT: note_on channel=1 note=38 velocity=124 time=0
EXTRACT: note_on channel=9 note=40 velocity=0 time=0.0526315
EXTRACT: note_on channel=9 note=69 velocity=0 time=0
EXTRACT: note_on channel=1 note=38 velocity=0 time=0.25789435
EXTRACT: note_on channel=9 note=36 velocity=90 time=0.005263149999999999
EXTRACT: note_on channel=1 note=37 velocity=124 time=0
EXTRACT: note_on channel=5 note=83 velocity=0 time=0
EXTRACT: note_on channel=5 note=71 velocity=0 time=0
EXTRACT: note_on channel=5 note=81 velocity=105 time=0
EXTRACT: note_on channel=5 note=69 velocity=115 time=0
EXTRACT: note_on channel=6 note=59 velocity=0 time=0
EXTRACT: note_on channel=6 note=57 velocity=117 time=0
EXTRACT: note_on channel=8 note=54 velocity=99 time=0
EXTRACT: note_on channel=8 note=66 velocity=116 time=0
EXTRACT: note_on channel=3 note=61 velocity=106 time=0.005263149999999999
EXTRACT: note_on channel=9 note=36 velocity=0 time=0.04736835
EXTRACT: note_on channel=9 note=40 velocity=127 time=0.105263
EXTRACT: note_on channel=1 note=37 velocity=0 time=0
EXTRACT: note_on channel=9 note=40 velocity=0 time=0.0526315
EXTRACT: note_on channel=2 note=57 velocity=0 time=0.09999984999999999
EXTRACT: note_on channel=2 note=54 velocity=0 time=0
EXTRACT: note_on channel=2 note=61 velocity=0 time=0
EXTRACT: note_on channel=2 note=64 velocity=0 time=0
EXTRACT: note_on channel=2 note=61 velocity=0 time=0
EXTRACT: note_on channel=2 note=57 velocity=0 time=0
EXTRACT: note_on channel=2 note=61 velocity=0 time=0
EXTRACT: note_on channel=2 note=64 velocity=0 time=0
EXTRACT: note_on channel=2 note=66 velocity=0 time=0
EXTRACT: note_on channel=2 note=69 velocity=0 time=0
EXTRACT: control_change channel=2 control=11 value=80 time=0
EXTRACT: note_on channel=2 note=47 velocity=125 time=0
EXTRACT: note_on channel=9 note=49 velocity=100 time=0.005263149999999999
EXTRACT: note_on channel=9 note=36 velocity=120 time=0
EXTRACT: note_on channel=1 note=35 velocity=125 time=0
EXTRACT: control_change channel=4 control=11 value=80 time=0
EXTRACT: note_on channel=4 note=66 velocity=105 time=0
EXTRACT: note_on channel=4 note=62 velocity=111 time=0
EXTRACT: note_on channel=4 note=59 velocity=105 time=0
EXTRACT: note_on channel=4 note=54 velocity=104 time=0
EXTRACT: note_on channel=4 note=47 velocity=86 time=0
EXTRACT: note_on channel=5 note=81 velocity=0 time=0
EXTRACT: note_on channel=5 note=69 velocity=0 time=0
EXTRACT: control_change channel=5 control=11 value=60 time=0
EXTRACT: note_on channel=5 note=90 velocity=100 time=0
EXTRACT: note_on channel=5 note=78 velocity=117 time=0
EXTRACT: note_on channel=6 note=57 velocity=0 time=0
EXTRACT: control_change channel=6 control=11 value=40 time=0
EXTRACT: note_on channel=6 note=59 velocity=120 time=0
EXTRACT: note_on channel=6 note=62 velocity=125 time=0
EXTRACT: note_on channel=6 note=66 velocity=122 time=0
EXTRACT: note_on channel=7 note=66 velocity=91 time=0
EXTRACT: note_on channel=7 note=62 velocity=86 time=0
EXTRACT: note_on channel=7 note=59 velocity=92 time=0
EXTRACT: note_on channel=7 note=54 velocity=74 time=0
EXTRACT: note_on channel=7 note=47 velocity=106 time=0
EXTRACT: note_on channel=3 note=61 velocity=0 time=0.005263149999999999
EXTRACT: note_on channel=3 note=61 velocity=0 time=0
EXTRACT: control_change channel=3 control=11 value=80 time=0
EXTRACT: control_change channel=5 control=11 value=61 time=0.015789449999999997
EXTRACT: control_change channel=6 control=11 value=41 time=0.010526299999999999
EXTRACT: control_change channel=5 control=11 value=62 time=0.005263149999999999
EXTRACT: note_on channel=9 note=49 velocity=0 time=0.015789449999999997
EXTRACT: note_on channel=9 note=36 velocity=0 time=0
EXTRACT: control_change channel=5 control=11 value=63 time=0.005263149999999999
EXTRACT: control_change channel=6 control=11 value=42 time=0.005263149999999999
EXTRACT: control_change channel=5 control=11 value=64 time=0.010526299999999999
EXTRACT: control_change channel=5 control=11 value=65 time=0.021052599999999998
EXTRACT: control_change channel=6 control=11 value=43 time=0
EXTRACT: control_change channel=5 control=11 value=66 time=0.015789449999999997
EXTRACT: control_change channel=6 control=11 value=44 time=0.015789449999999997
EXTRACT: control_change channel=5 control=11 value=67 time=0.005263149999999999
EXTRACT: note_on channel=1 note=35 velocity=0 time=0.021052599999999998
EXTRACT: control_change channel=5 control=11 value=68 time=0
EXTRACT: note_on channel=1 note=35 velocity=119 time=0.005263149999999999
EXTRACT: control_change channel=6 control=11 value=45 time=0
EXTRACT: control_change channel=5 control=11 value=69 time=0.010526299999999999
EXTRACT: control_change channel=5 control=11 value=70 time=0.021052599999999998
EXTRACT: control_change channel=6 control=11 value=46 time=0
EXTRACT: control_change channel=5 control=11 value=71 time=0.015789449999999997
EXTRACT: control_change channel=6 control=11 value=47 time=0.015789449999999997
EXTRACT: control_change channel=5 control=11 value=72 time=0.005263149999999999
EXTRACT: control_change channel=5 control=11 value=73 time=0.021052599999999998
EXTRACT: control_change channel=6 control=11 value=48 time=0.005263149999999999
EXTRACT: control_change channel=5 control=11 value=74 time=0.010526299999999999
EXTRACT: control_change channel=5 control=11 value=75 time=0.021052599999999998
EXTRACT: control_change channel=6 control=11 value=49 time=0
EXTRACT: control_change channel=5 control=11 value=76 time=0.015789449999999997
EXTRACT: note_on channel=2 note=62 velocity=126 time=0.010526299999999999
EXTRACT: note_on channel=9 note=42 velocity=107 time=0.005263149999999999
EXTRACT: note_on channel=1 note=35 velocity=0 time=0
EXTRACT: note_on channel=4 note=66 velocity=0 time=0
EXTRACT: note_on channel=4 note=62 velocity=0 time=0
EXTRACT: note_on channel=4 note=59 velocity=0 time=0
EXTRACT: note_on channel=4 note=54 velocity=0 time=0
EXTRACT: note_on channel=4 note=47 velocity=0 time=0
EXTRACT: control_change channel=6 control=11 value=50 time=0
EXTRACT: note_on channel=7 note=66 velocity=0 time=0
EXTRACT: note_on channel=7 note=62 velocity=0 time=0
EXTRACT: note_on channel=7 note=59 velocity=0 time=0
EXTRACT: note_on channel=7 note=54 velocity=0 time=0
EXTRACT: note_on channel=7 note=47 velocity=0 time=0
EXTRACT: note_on channel=8 note=54 velocity=0 time=0
EXTRACT: note_on channel=8 note=66 velocity=0 time=0
EXTRACT: note_on channel=8 note=57 velocity=92 time=0
EXTRACT: note_on channel=8 note=69 velocity=114 time=0
EXTRACT: note_on channel=3 note=62 velocity=103 time=0.005263149999999999
EXTRACT: control_change channel=5 control=11 value=77 time=0
EXTRACT: control_change channel=5 control=11 value=78 time=0.015789449999999997
EXTRACT: control_change channel=6 control=11 value=51 time=0.010526299999999999
EXTRACT: control_change channel=5 control=11 value=79 time=0.010526299999999999
EXTRACT: note_on channel=9 note=42 velocity=0 time=0.010526299999999999
EXTRACT: control_change channel=5 control=11 value=80 time=0.010526299999999999
EXTRACT: control_change channel=6 control=11 value=52 time=0
EXTRACT: control_change channel=5 control=11 value=81 time=0.015789449999999997
EXTRACT: control_change channel=6 control=11 value=53 time=0.015789449999999997
EXTRACT: control_change channel=5 control=11 value=82 time=0.005263149999999999
EXTRACT: control_change channel=5 control=11 value=83 time=0.015789449999999997
EXTRACT: control_change channel=6 control=11 value=54 time=0.010526299999999999
EXTRACT: control_change channel=5 control=11 value=84 time=0.010526299999999999
EXTRACT: note_on channel=2 note=66 velocity=117 time=0.015789449999999997
EXTRACT: note_on channel=1 note=42 velocity=116 time=0.005263149999999999
EXTRACT: note_on channel=4 note=66 velocity=116 time=0
EXTRACT: note_on channel=4 note=62 velocity=97 time=0
EXTRACT: note_on channel=4 note=59 velocity=102 time=0
EXTRACT: note_on channel=4 note=54 velocity=112 time=0
EXTRACT: note_on channel=4 note=47 velocity=92 time=0
EXTRACT: control_change channel=5 control=11 value=85 time=0
EXTRACT: control_change channel=6 control=11 value=55 time=0
EXTRACT: note_on channel=7 note=66 velocity=89 time=0
EXTRACT: note_on channel=7 note=62 velocity=91 time=0
EXTRACT: note_on channel=7 note=59 velocity=110 time=0
EXTRACT: note_on channel=7 note=54 velocity=78 time=0
EXTRACT: note_on channel=7 note=47 velocity=76 time=0
EXTRACT: note_on channel=8 note=57 velocity=0 time=0
EXTRACT: note_on channel=8 note=69 velocity=0 time=0
EXTRACT: control_change channel=5 control=11 value=86 time=0.015789449999999997
EXTRACT: control_change channel=6 control=11 value=56 time=0.015789449999999997
EXTRACT: control_change channel=5 control=11 value=87 time=0.005263149999999999
EXTRACT: control_change channel=5 control=11 value=88 time=0.015789449999999997
EXTRACT: control_change channel=6 control=11 value=57 time=0.010526299999999999
EXTRACT: control_change channel=5 control=11 value=89 time=0.010526299999999999
EXTRACT: control_change channel=5 control=11 value=90 time=0.015789449999999997
EXTRACT: control_change channel=6 control=11 value=58 time=0.005263149999999999
EXTRACT: control_change channel=5 control=11 value=91 time=0.015789449999999997
EXTRACT: control_change channel=6 control=11 value=59 time=0.015789449999999997
EXTRACT: control_change channel=5 control=11 value=92 time=0.005263149999999999
EXTRACT: control_change channel=5 control=11 value=93 time=0.015789449999999997
EXTRACT: note_on channel=9 note=42 velocity=106 time=0.010526299999999999
EXTRACT: note_on channel=9 note=40 velocity=127 time=0
EXTRACT: note_on channel=9 note=69 velocity=62 time=0
EXTRACT: note_on channel=1 note=42 velocity=0 time=0
EXTRACT: note_on channel=4 note=66 velocity=0 time=0
EXTRACT: note_on channel=4 note=62 velocity=0 time=0
EXTRACT: note_on channel=4 note=59 velocity=0 time=0
EXTRACT: note_on channel=4 note=54 velocity=0 time=0
EXTRACT: note_on channel=4 note=47 velocity=0 time=0
EXTRACT: control_change channel=6 control=11 value=60 time=0
EXTRACT: note_on channel=7 note=66 velocity=0 time=0
EXTRACT: note_on channel=7 note=62 velocity=0 time=0
EXTRACT: note_on channel=7 note=59 velocity=0 time=0
EXTRACT: note_on channel=7 note=54 velocity=0 time=0
EXTRACT: note_on channel=7 note=47 velocity=0 time=0
EXTRACT: note_on channel=8 note=55 velocity=83 time=0
EXTRACT: note_on channel=8 note=67 velocity=122 time=0
EXTRACT: note_on channel=3 note=62 velocity=0 time=0.005263149999999999
EXTRACT: control_change channel=5 control=11 value=94 time=0.005263149999999999
EXTRACT: control_change channel=5 control=11 value=95 time=0.015789449999999997
EXTRACT: control_change channel=6 control=11 value=61 time=0.005263149999999999
EXTRACT: control_change channel=5 control=11 value=96 time=0.015789449999999997
EXTRACT: note_on channel=9 note=42 velocity=0 time=0.005263149999999999
EXTRACT: note_on channel=9 note=40 velocity=0 time=0
EXTRACT: note_on channel=9 note=69 velocity=0 time=0
EXTRACT: control_change channel=6 control=11 value=62 time=0.010526299999999999
EXTRACT: control_change channel=5 control=11 value=97 time=0.005263149999999999
EXTRACT: control_change channel=5 control=11 value=98 time=0.015789449999999997
EXTRACT: control_change channel=6 control=11 value=63 time=0.010526299999999999
EXTRACT: control_change channel=5 control=11 value=99 time=0.010526299999999999
EXTRACT: control_change channel=5 control=11 value=100 time=0.015789449999999997
EXTRACT: control_change channel=6 control=11 value=64 time=0.005263149999999999
EXTRACT: control_change channel=5 control=11 value=101 time=0.015789449999999997
EXTRACT: note_on channel=2 note=62 velocity=113 time=0.010526299999999999
EXTRACT: note_on channel=9 note=69 velocity=70 time=0.005263149999999999
EXTRACT: note_on channel=1 note=42 velocity=111 time=0
EXTRACT: note_on channel=4 note=66 velocity=78 time=0
EXTRACT: note_on channel=4 note=62 velocity=63 time=0
EXTRACT: note_on channel=4 note=59 velocity=77 time=0
EXTRACT: note_on channel=4 note=54 velocity=74 time=0
EXTRACT: note_on channel=4 note=47 velocity=79 time=0
EXTRACT: control_change channel=5 control=11 value=102 time=0
EXTRACT: control_change channel=6 control=11 value=65 time=0
EXTRACT: note_on channel=8 note=55 velocity=0 time=0
EXTRACT: note_on channel=8 note=67 velocity=0 time=0
EXTRACT: note_on channel=3 note=62 velocity=127 time=0.005263149999999999
EXTRACT: control_change channel=5 control=11 value=103 time=0.015789449999999997
EXTRACT: control_change channel=6 control=11 value=66 time=0.010526299999999999
EXTRACT: control_change channel=5 control=11 value=104 time=0.010526299999999999
EXTRACT: note_on channel=9 note=69 velocity=0 time=0.010526299999999999
EXTRACT: control_change channel=5 control=11 value=105 time=0.005263149999999999
EXTRACT: control_change channel=6 control=11 value=67 time=0.005263149999999999
EXTRACT: note_on channel=4 note=66 velocity=0 time=0.015789449999999997
EXTRACT: note_on channel=4 note=62 velocity=0 time=0
EXTRACT: note_on channel=4 note=59 velocity=0 time=0
EXTRACT: note_on channel=4 note=54 velocity=0 time=0
EXTRACT: note_on channel=4 note=47 velocity=0 time=0
EXTRACT: control_change channel=5 control=11 value=106 time=0
EXTRACT: control_change channel=5 control=11 value=107 time=0.015789449999999997
EXTRACT: control_change channel=6 control=11 value=68 time=0
EXTRACT: control_change channel=5 control=11 value=108 time=0.021052599999999998
EXTRACT: control_change channel=6 control=11 value=69 time=0.010526299999999999
EXTRACT: control_change channel=5 control=11 value=109 time=0.010526299999999999
EXTRACT: note_on channel=1 note=42 velocity=0 time=0.015789449999999997
EXTRACT: control_change channel=5 control=11 value=110 time=0
EXTRACT: note_on channel=9 note=42 velocity=97 time=0.005263149999999999
EXTRACT: note_on channel=1 note=38 velocity=119 time=0
EXTRACT: note_on channel=4 note=66 velocity=64 time=0
EXTRACT: note_on channel=4 note=62 velocity=71 time=0
EXTRACT: note_on channel=4 note=59 velocity=66 time=0
EXTRACT: control_change channel=6 control=11 value=70 time=0
EXTRACT: note_on channel=8 note=54 velocity=101 time=0
EXTRACT: note_on channel=8 note=66 velocity=116 time=0
EXTRACT: note_on channel=3 note=62 velocity=0 time=0.005263149999999999
EXTRACT: note_on channel=3 note=61 velocity=114 time=0
EXTRACT: control_change channel=5 control=11 value=111 time=0.010526299999999999
EXTRACT: control_change channel=5 control=11 value=112 time=0.015789449999999997
EXTRACT: control_change channel=6 control=11 value=71 time=0
EXTRACT: note_on channel=9 note=42 velocity=0 time=0.021052599999999998
EXTRACT: control_change channel=5 control=11 value=113 time=0
EXTRACT: control_change channel=6 control=11 value=72 time=0.010526299999999999
EXTRACT: control_change channel=5 control=11 value=114 time=0.005263149999999999
EXTRACT: note_on channel=4 note=66 velocity=0 time=0.010526299999999999
EXTRACT: note_on channel=4 note=62 velocity=0 time=0
EXTRACT: note_on channel=4 note=59 velocity=0 time=0
EXTRACT: control_change channel=5 control=11 value=115 time=0.010526299999999999
EXTRACT: control_change channel=6 control=11 value=73 time=0.005263149999999999
EXTRACT: control_change channel=5 control=11 value=116 time=0.015789449999999997
EXTRACT: control_change channel=5 control=11 value=117 time=0.015789449999999997
EXTRACT: control_change channel=6 control=11 value=74 time=0
EXTRACT: control_change channel=5 control=11 value=118 time=0.021052599999999998
EXTRACT: note_on channel=2 note=59 velocity=127 time=0.005263149999999999
EXTRACT: note_on channel=9 note=69 velocity=62 time=0.005263149999999999
EXTRACT: note_on channel=1 note=38 velocity=0 time=0
EXTRACT: note_on channel=4 note=66 velocity=86 time=0
EXTRACT: note_on channel=4 note=62 velocity=61 time=0
EXTRACT: note_on channel=4 note=59 velocity=55 time=0
EXTRACT: note_on channel=4 note=54 velocity=86 time=0
EXTRACT: note_on channel=4 note=47 velocity=86 time=0
EXTRACT: control_change channel=6 control=11 value=75 time=0
EXTRACT: note_on channel=8 note=54 velocity=0 time=0
EXTRACT: note_on channel=8 note=66 velocity=0 time=0
EXTRACT: note_on channel=3 note=61 velocity=0 time=0.005263149999999999
EXTRACT: note_on channel=3 note=59 velocity=104 time=0
EXTRACT: control_change channel=5 control=11 value=119 time=0
EXTRACT: control_change channel=5 control=11 value=120 time=0.021052599999999998
EXTRACT: control_change channel=6 control=11 value=76 time=0.005263149999999999
EXTRACT: control_change channel=5 control=11 value=121 time=0.015789449999999997
EXTRACT: note_on channel=9 note=69 velocity=0 time=0.005263149999999999
EXTRACT: control_change channel=5 control=11 value=122 time=0.010526299999999999
EXTRACT: control_change channel=6 control=11 value=77 time=0
EXTRACT: note_on channel=4 note=66 velocity=0 time=0.015789449999999997
EXTRACT: note_on channel=4 note=62 velocity=0 time=0
EXTRACT: note_on channel=4 note=59 velocity=0 time=0
EXTRACT: note_on channel=4 note=54 velocity=0 time=0
EXTRACT: note_on channel=4 note=47 velocity=0 time=0
EXTRACT: control_change channel=5 control=11 value=123 time=0.005263149999999999
EXTRACT: control_change channel=6 control=11 value=78 time=0.010526299999999999
EXTRACT: control_change channel=5 control=11 value=124 time=0.005263149999999999
EXTRACT: control_change channel=5 control=11 value=125 time=0.021052599999999998
EXTRACT: control_change channel=6 control=11 value=79 time=0.005263149999999999
EXTRACT: control_change channel=5 control=11 value=126 time=0.010526299999999999
EXTRACT: note_on channel=9 note=36 velocity=120 time=0.021052599999999998
EXTRACT: note_on channel=9 note=42 velocity=97 time=0
EXTRACT: note_on channel=1 note=35 velocity=114 time=0
EXTRACT: note_on channel=4 note=66 velocity=55 time=0
EXTRACT: note_on channel=4 note=62 velocity=45 time=0
EXTRACT: note_on channel=4 note=59 velocity=69 time=0
EXTRACT: control_change channel=5 control=11 value=127 time=0
EXTRACT: control_change channel=6 control=11 value=80 time=0
EXTRACT: note_on channel=8 note=52 velocity=89 time=0
EXTRACT: note_on channel=8 note=64 velocity=117 time=0
EXTRACT: note_on channel=3 note=59 velocity=0 time=0.005263149999999999
EXTRACT: note_on channel=9 note=36 velocity=0 time=0.04736835
EXTRACT: note_on channel=9 note=42 velocity=0 time=0
EXTRACT: note_on channel=4 note=66 velocity=0 time=0.02631575
EXTRACT: note_on channel=4 note=62 velocity=0 time=0
EXTRACT: note_on channel=4 note=59 velocity=0 time=0
EXTRACT: note_on channel=2 note=62 velocity=120 time=0.07368409999999999
EXTRACT: note_on channel=9 note=69 velocity=73 time=0.005263149999999999
EXTRACT: note_on channel=3 note=62 velocity=122 time=0.005263149999999999
EXTRACT: note_on channel=9 note=69 velocity=0 time=0.04736835
EXTRACT: note_on channel=9 note=42 velocity=109 time=0.105263
EXTRACT: note_on channel=9 note=69 velocity=78 time=0
EXTRACT: note_on channel=1 note=35 velocity=0 time=0
EXTRACT: note_on channel=4 note=66 velocity=97 time=0
EXTRACT: note_on channel=4 note=62 velocity=92 time=0
EXTRACT: note_on channel=4 note=59 velocity=100 time=0
EXTRACT: note_on channel=4 note=54 velocity=99 time=0
EXTRACT: note_on channel=4 note=47 velocity=86 time=0
EXTRACT: note_on channel=7 note=66 velocity=94 time=0
EXTRACT: note_on channel=7 note=62 velocity=98 time=0
EXTRACT: note_on channel=7 note=59 velocity=93 time=0
EXTRACT: note_on channel=7 note=54 velocity=98 time=0
EXTRACT: note_on channel=7 note=47 velocity=78 time=0
EXTRACT: note_on channel=8 note=52 velocity=0 time=0
EXTRACT: note_on channel=8 note=64 velocity=0 time=0
EXTRACT: note_on channel=8 note=50 velocity=90 time=0
EXTRACT: note_on channel=8 note=62 velocity=126 time=0
EXTRACT: note_on channel=3 note=62 velocity=0 time=0.005263149999999999
EXTRACT: note_on channel=9 note=42 velocity=0 time=0.04736835
EXTRACT: note_on channel=9 note=69 velocity=0 time=0
EXTRACT: note_on channel=2 note=66 velocity=126 time=0.09999984999999999
EXTRACT: note_on channel=4 note=66 velocity=0 time=0.005263149999999999
EXTRACT: note_on channel=4 note=62 velocity=0 time=0
EXTRACT: note_on channel=4 note=59 velocity=0 time=0
EXTRACT: note_on channel=4 note=54 velocity=0 time=0
EXTRACT: note_on channel=4 note=47 velocity=0 time=0
EXTRACT: note_on channel=7 note=66 velocity=0 time=0
EXTRACT: note_on channel=7 note=62 velocity=0 time=0
EXTRACT: note_on channel=7 note=59 velocity=0 time=0
EXTRACT: note_on channel=7 note=54 velocity=0 time=0
EXTRACT: note_on channel=7 note=47 velocity=0 time=0
EXTRACT: note_on channel=8 note=50 velocity=0 time=0
EXTRACT: note_on channel=8 note=62 velocity=0 time=0
EXTRACT: note_on channel=3 note=62 velocity=102 time=0.005263149999999999
EXTRACT: note_on channel=2 note=66 velocity=106 time=0.14736819999999998
EXTRACT: note_on channel=9 note=40 velocity=127 time=0.005263149999999999
EXTRACT: note_on channel=9 note=42 velocity=97 time=0
EXTRACT: note_on channel=9 note=69 velocity=66 time=0
EXTRACT: note_on channel=8 note=52 velocity=85 time=0
EXTRACT: note_on channel=8 note=64 velocity=127 time=0
EXTRACT: note_on channel=9 note=40 velocity=0 time=0.0526315
EXTRACT: note_on channel=9 note=42 velocity=0 time=0
EXTRACT: note_on channel=9 note=69 velocity=0 time=0
EXTRACT: note_on channel=4 note=66 velocity=59 time=0.105263
EXTRACT: note_on channel=4 note=62 velocity=46 time=0
EXTRACT: note_on channel=4 note=59 velocity=69 time=0
EXTRACT: note_on channel=8 note=52 velocity=0 time=0
EXTRACT: note_on channel=8 note=64 velocity=0 time=0
EXTRACT: note_on channel=4 note=66 velocity=0 time=0.07894725
EXTRACT: note_on channel=4 note=62 velocity=0 time=0
EXTRACT: note_on channel=4 note=59 velocity=0 time=0
EXTRACT: note_on channel=2 note=62 velocity=123 time=0.07368409999999999
EXTRACT: note_on channel=9 note=42 velocity=105 time=0.005263149999999999
EXTRACT: note_on channel=1 note=30 velocity=111 time=0
EXTRACT: note_on channel=4 note=66 velocity=90 time=0
EXTRACT: note_on channel=4 note=62 velocity=78 time=0
EXTRACT: note_on channel=4 note=59 velocity=54 time=0
EXTRACT: note_on channel=4 note=54 velocity=61 time=0
EXTRACT: note_on channel=4 note=47 velocity=61 time=0
EXTRACT: note_on channel=8 note=54 velocity=98 time=0
EXTRACT: note_on channel=8 note=66 velocity=115 time=0
EXTRACT: note_on channel=9 note=42 velocity=0 time=0.0526315
EXTRACT: note_on channel=4 note=66 velocity=0 time=0.02631575
EXTRACT: note_on channel=4 note=62 velocity=0 time=0
EXTRACT: note_on channel=4 note=59 velocity=0 time=0
EXTRACT: note_on channel=4 note=54 velocity=0 time=0
EXTRACT: note_on channel=4 note=47 velocity=0 time=0
EXTRACT: note_on channel=1 note=30 velocity=0 time=0.07894725
EXTRACT: note_on channel=2 note=47 velocity=0 time=0.15263134999999997
EXTRACT: note_on channel=2 note=62 velocity=0 time=0
EXTRACT: note_on channel=2 note=66 velocity=0 time=0
EXTRACT: note_on channel=2 note=62 velocity=0 time=0
EXTRACT: note_on channel=2 note=59 velocity=0 time=0
EXTRACT: note_on channel=2 note=62 velocity=0 time=0
EXTRACT: note_on channel=2 note=66 velocity=0 time=0
EXTRACT: note_on channel=2 note=66 velocity=0 time=0
EXTRACT: note_on channel=2 note=47 velocity=120 time=0
EXTRACT: note_on channel=9 note=42 velocity=92 time=0.005263149999999999
EXTRACT: note_on channel=9 note=36 velocity=120 time=0
EXTRACT: note_on channel=1 note=35 velocity=119 time=0
EXTRACT: note_on channel=4 note=66 velocity=103 time=0
EXTRACT: note_on channel=4 note=62 velocity=111 time=0
EXTRACT: note_on channel=4 note=59 velocity=99 time=0
EXTRACT: note_on channel=4 note=54 velocity=113 time=0
EXTRACT: note_on channel=4 note=47 velocity=110 time=0
EXTRACT: note_on channel=7 note=66 velocity=110 time=0
EXTRACT: note_on channel=7 note=62 velocity=83 time=0
EXTRACT: note_on channel=7 note=59 velocity=78 time=0
EXTRACT: note_on channel=7 note=54 velocity=78 time=0
EXTRACT: note_on channel=7 note=47 velocity=93 time=0
EXTRACT: note_on channel=3 note=62 velocity=0 time=0.005263149999999999
EXTRACT: note_on channel=9 note=42 velocity=0 time=0.04736835
EXTRACT: note_on channel=9 note=36 velocity=0 time=0
EXTRACT: note_on channel=1 note=35 velocity=0 time=0.18421025
EXTRACT: note_on channel=2 note=62 velocity=0 time=0.07368409999999999
EXTRACT: note_on channel=2 note=62 velocity=103 time=0
EXTRACT: note_on channel=9 note=42 velocity=110 time=0.005263149999999999
EXTRACT: note_on channel=4 note=66 velocity=0 time=0
EXTRACT: note_on channel=4 note=62 velocity=0 time=0
EXTRACT: note_on channel=4 note=59 velocity=0 time=0
EXTRACT: note_on channel=4 note=54 velocity=0 time=0
EXTRACT: note_on channel=4 note=47 velocity=0 time=0
EXTRACT: note_on channel=7 note=66 velocity=0 time=0
EXTRACT: note_on channel=7 note=62 velocity=0 time=0
EXTRACT: note_on channel=7 note=59 velocity=0 time=0
EXTRACT: note_on channel=7 note=54 velocity=0 time=0
EXTRACT: note_on channel=7 note=47 velocity=0 time=0
EXTRACT: note_on channel=8 note=54 velocity=0 time=0
EXTRACT: note_on channel=8 note=66 velocity=0 time=0
EXTRACT: note_on channel=8 note=57 velocity=88 time=0
EXTRACT: note_on channel=8 note=69 velocity=127 time=0
EXTRACT: note_on channel=3 note=62 velocity=115 time=0.005263149999999999
EXTRACT: note_on channel=9 note=42 velocity=0 time=0.04736835
EXTRACT: note_on channel=2 note=66 velocity=118 time=0.09999984999999999
EXTRACT: note_on channel=1 note=35 velocity=125 time=0.005263149999999999
EXTRACT: note_on channel=4 note=66 velocity=100 time=0
EXTRACT: note_on channel=4 note=62 velocity=95 time=0
EXTRACT: note_on channel=4 note=59 velocity=111 time=0
EXTRACT: note_on channel=4 note=54 velocity=110 time=0
EXTRACT: note_on channel=4 note=47 velocity=93 time=0
EXTRACT: note_on channel=7 note=66 velocity=80 time=0
EXTRACT: note_on channel=7 note=62 velocity=78 time=0
EXTRACT: note_on channel=7 note=59 velocity=81 time=0
EXTRACT: note_on channel=7 note=54 velocity=102 time=0
EXTRACT: note_on channel=7 note=47 velocity=100 time=0
EXTRACT: note_on channel=8 note=57 velocity=0 time=0
EXTRACT: note_on channel=8 note=69 velocity=0 time=0
EXTRACT: note_on channel=9 note=42 velocity=92 time=0.1578945
EXTRACT: note_on channel=9 note=40 velocity=127 time=0
EXTRACT: note_on channel=9 note=69 velocity=62 time=0
EXTRACT: note_on channel=1 note=35 velocity=0 time=0
EXTRACT: note_on channel=4 note=66 velocity=0 time=0
EXTRACT: note_on channel=4 note=62 velocity=0 time=0
EXTRACT: note_on channel=4 note=59 velocity=0 time=0
EXTRACT: note_on channel=4 note=54 velocity=0 time=0
EXTRACT: note_on channel=4 note=47 velocity=0 time=0
EXTRACT: note_on channel=7 note=66 velocity=0 time=0
EXTRACT: note_on channel=7 note=62 velocity=0 time=0
EXTRACT: note_on channel=7 note=59 velocity=0 time=0
EXTRACT: note_on channel=7 note=54 velocity=0 time=0
EXTRACT: note_on channel=7 note=47 velocity=0 time=0
EXTRACT: note_on channel=8 note=55 velocity=93 time=0
EXTRACT: note_on channel=8 note=67 velocity=116 time=0
EXTRACT: note_on channel=3 note=62 velocity=0 time=0.005263149999999999
EXTRACT: note_on channel=9 note=42 velocity=0 time=0.04736835
EXTRACT: note_on channel=9 note=40 velocity=0 time=0
EXTRACT: note_on channel=9 note=69 velocity=0 time=0
EXTRACT: note_on channel=2 note=62 velocity=102 time=0.09999984999999999
EXTRACT: note_on channel=9 note=69 velocity=70 time=0.005263149999999999
EXTRACT: note_on channel=4 note=66 velocity=91 time=0
EXTRACT: note_on channel=4 note=62 velocity=90 time=0
EXTRACT: note_on channel=4 note=59 velocity=89 time=0
EXTRACT: note_on channel=4 note=54 velocity=71 time=0
EXTRACT: note_on channel=4 note=47 velocity=61 time=0
EXTRACT: note_on channel=8 note=55 velocity=0 time=0
EXTRACT: note_on channel=8 note=67 velocity=0 time=0
EXTRACT: note_on channel=3 note=62 velocity=120 time=0.005263149999999999
EXTRACT: note_on channel=9 note=69 velocity=0 time=0.04736835
EXTRACT: note_on channel=4 note=66 velocity=0 time=0.02631575
EXTRACT: note_on channel=4 note=62 velocity=0 time=0
EXTRACT: note_on channel=4 note=59 velocity=0 time=0
EXTRACT: note_on channel=4 note=54 velocity=0 time=0
EXTRACT: note_on channel=4 note=47 velocity=0 time=0
EXTRACT: note_on channel=9 note=42 velocity=108 time=0.07894725
EXTRACT: note_on channel=4 note=66 velocity=56 time=0
EXTRACT: note_on channel=4 note=62 velocity=62 time=0
EXTRACT: note_on channel=4 note=59 velocity=40 time=0
EXTRACT: note_on channel=8 note=54 velocity=86 time=0
EXTRACT: note_on channel=8 note=66 velocity=126 time=0
EXTRACT: note_on channel=3 note=62 velocity=0 time=0.005263149999999999
EXTRACT: note_on channel=3 note=61 velocity=120 time=0
EXTRACT: note_on channel=9 note=42 velocity=0 time=0.04736835
EXTRACT: note_on channel=4 note=66 velocity=0 time=0.02631575
EXTRACT: note_on channel=4 note=62 velocity=0 time=0
EXTRACT: note_on channel=4 note=59 velocity=0 time=0
EXTRACT: note_on channel=2 note=59 velocity=120 time=0.07368409999999999
EXTRACT: note_on channel=9 note=69 velocity=62 time=0.005263149999999999
EXTRACT: note_on channel=4 note=66 velocity=79 time=0
EXTRACT: note_on channel=4 note=62 velocity=89 time=0
EXTRACT: note_on channel=4 note=59 velocity=75 time=0
EXTRACT: note_on channel=4 note=54 velocity=63 time=0
EXTRACT: note_on channel=4 note=47 velocity=71 time=0
EXTRACT: note_on channel=8 note=54 velocity=0 time=0
EXTRACT: note_on channel=8 note=66 velocity=0 time=0
EXTRACT: note_on channel=3 note=61 velocity=0 time=0.005263149999999999
EXTRACT: note_on channel=3 note=59 velocity=116 time=0
EXTRACT: note_on channel=9 note=69 velocity=0 time=0.04736835
EXTRACT: note_on channel=4 note=66 velocity=0 time=0.02631575
EXTRACT: note_on channel=4 note=62 velocity=0 time=0
EXTRACT: note_on channel=4 note=59 velocity=0 time=0
EXTRACT: note_on channel=4 note=54 velocity=0 time=0
EXTRACT: note_on channel=4 note=47 velocity=0 time=0
EXTRACT: note_on channel=9 note=36 velocity=120 time=0.07894725
EXTRACT: note_on channel=9 note=42 velocity=94 time=0
EXTRACT: note_on channel=4 note=66 velocity=46 time=0
EXTRACT: note_on channel=4 note=62 velocity=69 time=0
EXTRACT: note_on channel=4 note=59 velocity=51 time=0
EXTRACT: note_on channel=8 note=52 velocity=100 time=0
EXTRACT: note_on channel=8 note=64 velocity=116 time=0
EXTRACT: note_on channel=3 note=59 velocity=0 time=0.005263149999999999
EXTRACT: note_on channel=9 note=36 velocity=0 time=0.04736835
EXTRACT: note_on channel=9 note=42 velocity=0 time=0
EXTRACT: note_on channel=4 note=66 velocity=0 time=0.02631575
EXTRACT: note_on channel=4 note=62 velocity=0 time=0
EXTRACT: note_on channel=4 note=59 velocity=0 time=0
EXTRACT: note_on channel=2 note=62 velocity=112 time=0.07368409999999999
EXTRACT: note_on channel=9 note=69 velocity=73 time=0.005263149999999999
EXTRACT: note_on channel=3 note=62 velocity=105 time=0.005263149999999999
EXTRACT: note_on channel=9 note=69 velocity=0 time=0.04736835
EXTRACT: note_on channel=9 note=42 velocity=98 time=0.105263
EXTRACT: note_on channel=9 note=69 velocity=78 time=0
EXTRACT: note_on channel=1 note=35 velocity=120 time=0
EXTRACT: note_on channel=4 note=66 velocity=108 time=0
EXTRACT: note_on channel=4 note=62 velocity=101 time=0
EXTRACT: note_on channel=4 note=59 velocity=91 time=0
EXTRACT: note_on channel=4 note=54 velocity=108 time=0
EXTRACT: note_on channel=4 note=47 velocity=98 time=0
EXTRACT: note_on channel=7 note=66 velocity=87 time=0
EXTRACT: note_on channel=7 note=62 velocity=99 time=0
EXTRACT: note_on channel=7 note=59 velocity=84 time=0
EXTRACT: note_on channel=7 note=54 velocity=112 time=0
EXTRACT: note_on channel=7 note=47 velocity=100 time=0
EXTRACT: note_on channel=8 note=52 velocity=0 time=0
EXTRACT: note_on channel=8 note=64 velocity=0 time=0
EXTRACT: note_on channel=8 note=50 velocity=100 time=0
EXTRACT: note_on channel=8 note=62 velocity=126 time=0
EXTRACT: note_on channel=3 note=62 velocity=0 time=0.005263149999999999
EXTRACT: note_on channel=9 note=42 velocity=0 time=0.04736835
EXTRACT: note_on channel=9 note=69 velocity=0 time=0
EXTRACT: note_on channel=2 note=66 velocity=108 time=0.09999984999999999
EXTRACT: note_on channel=1 note=35 velocity=0 time=0.005263149999999999
EXTRACT: note_on channel=4 note=66 velocity=0 time=0
EXTRACT: note_on channel=4 note=62 velocity=0 time=0
EXTRACT: note_on channel=4 note=59 velocity=0 time=0
EXTRACT: note_on channel=4 note=54 velocity=0 time=0
EXTRACT: note_on channel=4 note=47 velocity=0 time=0
EXTRACT: note_on channel=7 note=66 velocity=0 time=0
EXTRACT: note_on channel=7 note=62 velocity=0 time=0
EXTRACT: note_on channel=7 note=59 velocity=0 time=0
EXTRACT: note_on channel=7 note=54 velocity=0 time=0
EXTRACT: note_on channel=7 note=47 velocity=0 time=0
EXTRACT: note_on channel=8 note=50 velocity=0 time=0
EXTRACT: note_on channel=8 note=62 velocity=0 time=0
EXTRACT: note_on channel=3 note=62 velocity=109 time=0.005263149999999999
EXTRACT: note_on channel=2 note=66 velocity=110 time=0.14736819999999998
EXTRACT: note_on channel=9 note=40 velocity=127 time=0.005263149999999999
EXTRACT: note_on channel=9 note=42 velocity=106 time=0
EXTRACT: note_on channel=9 note=69 velocity=66 time=0
EXTRACT: note_on channel=8 note=54 velocity=87 time=0
EXTRACT: note_on channel=8 note=66 velocity=117 time=0
EXTRACT: note_on channel=9 note=40 velocity=0 time=0.0526315
EXTRACT: note_on channel=9 note=42 velocity=0 time=0
EXTRACT: note_on channel=9 note=69 velocity=0 time=0
EXTRACT: note_on channel=4 note=66 velocity=49 time=0.105263
EXTRACT: note_on channel=4 note=62 velocity=57 time=0
EXTRACT: note_on channel=4 note=59 velocity=69 time=0
EXTRACT: note_on channel=8 note=54 velocity=0 time=0
EXTRACT: note_on channel=8 note=66 velocity=0 time=0
EXTRACT: note_on channel=4 note=66 velocity=0 time=0.07894725
EXTRACT: note_on channel=4 note=62 velocity=0 time=0
EXTRACT: note_on channel=4 note=59 velocity=0 time=0
EXTRACT: note_on channel=2 note=62 velocity=125 time=0.07368409999999999
EXTRACT: note_on channel=9 note=36 velocity=90 time=0.005263149999999999
EXTRACT: note_on channel=9 note=42 velocity=96 time=0
EXTRACT: note_on channel=1 note=38 velocity=119 time=0
EXTRACT: note_on channel=4 note=66 velocity=74 time=0
EXTRACT: note_on channel=4 note=62 velocity=73 time=0
EXTRACT: note_on channel=4 note=59 velocity=79 time=0
EXTRACT: note_on channel=4 note=54 velocity=59 time=0
EXTRACT: note_on channel=4 note=47 velocity=60 time=0
EXTRACT: note_on channel=8 note=47 velocity=101 time=0
EXTRACT: note_on channel=8 note=59 velocity=123 time=0
EXTRACT: note_on channel=9 note=36 velocity=0 time=0.0526315
EXTRACT: note_on channel=9 note=42 velocity=0 time=0
EXTRACT: note_on channel=4 note=66 velocity=0 time=0.02631575
EXTRACT: note_on channel=4 note=62 velocity=0 time=0
EXTRACT: note_on channel=4 note=59 velocity=0 time=0
EXTRACT: note_on channel=4 note=54 velocity=0 time=0
EXTRACT: note_on channel=4 note=47 velocity=0 time=0
EXTRACT: note_on channel=9 note=40 velocity=127 time=0.07894725
EXTRACT: note_on channel=1 note=38 velocity=0 time=0
EXTRACT: note_on channel=9 note=40 velocity=0 time=0.0526315
EXTRACT: note_on channel=2 note=47 velocity=0 time=0.09999984999999999
EXTRACT: note_on channel=2 note=62 velocity=0 time=0
EXTRACT: note_on channel=2 note=66 velocity=0 time=0
EXTRACT: note_on channel=2 note=62 velocity=0 time=0
EXTRACT: note_on channel=2 note=59 velocity=0 time=0
EXTRACT: note_on channel=2 note=62 velocity=0 time=0
EXTRACT: note_on channel=2 note=66 velocity=0 time=0
EXTRACT: note_on channel=2 note=66 velocity=0 time=0
EXTRACT: note_on channel=2 note=62 velocity=0 time=0
EXTRACT: note_on channel=2 note=40 velocity=127 time=0
EXTRACT: note_on channel=9 note=42 velocity=102 time=0.005263149999999999
EXTRACT: note_on channel=9 note=36 velocity=120 time=0
EXTRACT: note_on channel=1 note=40 velocity=112 time=0
EXTRACT: note_on channel=4 note=67 velocity=91 time=0
EXTRACT: note_on channel=4 note=62 velocity=90 time=0
EXTRACT: note_on channel=4 note=59 velocity=106 time=0
EXTRACT: note_on channel=4 note=55 velocity=86 time=0
EXTRACT: note_on channel=4 note=47 velocity=108 time=0
EXTRACT: note_on channel=5 note=90 velocity=0 time=0
EXTRACT: note_on channel=5 note=78 velocity=0 time=0
EXTRACT: note_on channel=5 note=91 velocity=112 time=0
EXTRACT: note_on channel=5 note=79 velocity=103 time=0
EXTRACT: note_on channel=6 note=59 velocity=0 time=0
EXTRACT: note_on channel=6 note=62 velocity=0 time=0
EXTRACT: note_on channel=6 note=66 velocity=0 time=0
EXTRACT: note_on channel=6 note=59 velocity=117 time=0
EXTRACT: note_on channel=6 note=62 velocity=108 time=0
EXTRACT: note_on channel=6 note=67 velocity=125 time=0
EXTRACT: note_on channel=7 note=67 velocity=76 time=0
EXTRACT: note_on channel=7 note=62 velocity=78 time=0
EXTRACT: note_on channel=7 note=59 velocity=94 time=0
EXTRACT: note_on channel=7 note=55 velocity=102 time=0
EXTRACT: note_on channel=7 note=47 velocity=82 time=0
EXTRACT: note_on channel=3 note=62 velocity=0 time=0.005263149999999999
EXTRACT: note_on channel=9 note=42 velocity=0 time=0.04736835
EXTRACT: note_on channel=9 note=36 velocity=0 time=0
EXTRACT: note_on channel=1 note=40 velocity=0 time=0.07894725
EXTRACT: note_on channel=2 note=62 velocity=117 time=0.17894709999999997
EXTRACT: note_on channel=9 note=42 velocity=99 time=0.005263149999999999
EXTRACT: note_on channel=1 note=40 velocity=114 time=0
EXTRACT: note_on channel=4 note=67 velocity=0 time=0
EXTRACT: note_on channel=4 note=62 velocity=0 time=0
EXTRACT: note_on channel=4 note=59 velocity=0 time=0
EXTRACT: note_on channel=4 note=55 velocity=0 time=0
EXTRACT: note_on channel=4 note=47 velocity=0 time=0
EXTRACT: note_on channel=7 note=67 velocity=0 time=0
EXTRACT: note_on channel=7 note=62 velocity=0 time=0
EXTRACT: note_on channel=7 note=59 velocity=0 time=0
EXTRACT: note_on channel=7 note=55 velocity=0 time=0
EXTRACT: note_on channel=7 note=47 velocity=0 time=0
EXTRACT: note_on channel=8 note=47 velocity=0 time=0
EXTRACT: note_on channel=8 note=59 velocity=0 time=0
EXTRACT: note_on channel=8 note=52 velocity=99 time=0
EXTRACT: note_on channel=8 note=64 velocity=116 time=0
EXTRACT: note_on channel=3 note=62 velocity=108 time=0.005263149999999999
EXTRACT: note_on channel=9 note=42 velocity=0 time=0.04736835
EXTRACT: note_on channel=1 note=40 velocity=0 time=0.09999984999999999
EXTRACT: note_on channel=2 note=67 velocity=119 time=0
EXTRACT: note_on channel=1 note=35 velocity=119 time=0.005263149999999999
EXTRACT: note_on channel=4 note=67 velocity=91 time=0
EXTRACT: note_on channel=4 note=62 velocity=99 time=0
EXTRACT: note_on channel=4 note=59 velocity=110 time=0
EXTRACT: note_on channel=4 note=55 velocity=116 time=0
EXTRACT: note_on channel=4 note=47 velocity=113 time=0
EXTRACT: note_on channel=7 note=67 velocity=99 time=0
EXTRACT: note_on channel=7 note=62 velocity=89 time=0
EXTRACT: note_on channel=7 note=59 velocity=89 time=0
EXTRACT: note_on channel=7 note=55 velocity=103 time=0
EXTRACT: note_on channel=7 note=47 velocity=101 time=0
EXTRACT: note_on channel=8 note=52 velocity=0 time=0
EXTRACT: note_on channel=8 note=64 velocity=0 time=0
EXTRACT: note_on channel=9 note=42 velocity=107 time=0.1578945
EXTRACT: note_on channel=9 note=40 velocity=127 time=0
EXTRACT: note_on channel=9 note=69 velocity=62 time=0
EXTRACT: note_on channel=1 note=35 velocity=0 time=0
EXTRACT: note_on channel=4 note=67 velocity=0 time=0
EXTRACT: note_on channel=4 note=62 velocity=0 time=0
EXTRACT: note_on channel=4 note=59 velocity=0 time=0
EXTRACT: note_on channel=4 note=55 velocity=0 time=0
EXTRACT: note_on channel=4 note=47 velocity=0 time=0
EXTRACT: note_on channel=7 note=67 velocity=0 time=0
EXTRACT: note_on channel=7 note=62 velocity=0 time=0
EXTRACT: note_on channel=7 note=59 velocity=0 time=0
EXTRACT: note_on channel=7 note=55 velocity=0 time=0
EXTRACT: note_on channel=7 note=47 velocity=0 time=0
EXTRACT: note_on channel=8 note=52 velocity=96 time=0
EXTRACT: note_on channel=8 note=64 velocity=119 time=0
EXTRACT: note_on channel=3 note=62 velocity=0 time=0.005263149999999999
EXTRACT: note_on channel=9 note=42 velocity=0 time=0.04736835
EXTRACT: note_on channel=9 note=40 velocity=0 time=0
EXTRACT: note_on channel=9 note=69 velocity=0 time=0
EXTRACT: note_on channel=2 note=62 velocity=126 time=0.09999984999999999
EXTRACT: note_on channel=9 note=69 velocity=70 time=0.005263149999999999
EXTRACT: note_on channel=1 note=35 velocity=109 time=0
EXTRACT: note_on channel=4 note=67 velocity=71 time=0
EXTRACT: note_on channel=4 note=62 velocity=59 time=0
EXTRACT: note_on channel=4 note=59 velocity=73 time=0
EXTRACT: note_on channel=4 note=55 velocity=51 time=0
EXTRACT: note_on channel=4 note=47 velocity=68 time=0
EXTRACT: note_on channel=3 note=62 velocity=113 time=0.005263149999999999
EXTRACT: note_on channel=9 note=69 velocity=0 time=0.04736835
EXTRACT: note_on channel=4 note=67 velocity=0 time=0.02631575
EXTRACT: note_on channel=4 note=62 velocity=0 time=0
EXTRACT: note_on channel=4 note=59 velocity=0 time=0
EXTRACT: note_on channel=4 note=55 velocity=0 time=0
EXTRACT: note_on channel=4 note=47 velocity=0 time=0
EXTRACT: note_on channel=1 note=35 velocity=0 time=0.07368409999999999
EXTRACT: note_on channel=9 note=42 velocity=110 time=0.005263149999999999
EXTRACT: note_on channel=1 note=31 velocity=113 time=0
EXTRACT: note_on channel=4 note=67 velocity=70 time=0
EXTRACT: note_on channel=4 note=62 velocity=43 time=0
EXTRACT: note_on channel=4 note=59 velocity=60 time=0
EXTRACT: note_on channel=3 note=62 velocity=0 time=0.005263149999999999
EXTRACT: note_on channel=3 note=61 velocity=102 time=0
EXTRACT: note_on channel=9 note=42 velocity=0 time=0.04736835
EXTRACT: note_on channel=4 note=67 velocity=0 time=0.02631575
EXTRACT: note_on channel=4 note=62 velocity=0 time=0
EXTRACT: note_on channel=4 note=59 velocity=0 time=0
EXTRACT: note_on channel=2 note=59 velocity=118 time=0.07368409999999999
EXTRACT: note_on channel=9 note=69 velocity=62 time=0.005263149999999999
EXTRACT: note_on channel=1 note=31 velocity=0 time=0
EXTRACT: note_on channel=4 note=67 velocity=70 time=0
EXTRACT: note_on channel=4 note=62 velocity=54 time=0
EXTRACT: note_on channel=4 note=59 velocity=59 time=0
EXTRACT: note_on channel=4 note=55 velocity=91 time=0
EXTRACT: note_on channel=4 note=47 velocity=55 time=0
EXTRACT: note_on channel=3 note=61 velocity=0 time=0.005263149999999999
EXTRACT: note_on channel=3 note=59 velocity=120 time=0
EXTRACT: note_on channel=9 note=69 velocity=0 time=0.04736835
EXTRACT: note_on channel=4 note=67 velocity=0 time=0.02631575
EXTRACT: note_on channel=4 note=62 velocity=0 time=0
EXTRACT: note_on channel=4 note=59 velocity=0 time=0
EXTRACT: note_on channel=4 note=55 velocity=0 time=0
EXTRACT: note_on channel=4 note=47 velocity=0 time=0
EXTRACT: note_on channel=9 note=36 velocity=120 time=0.07894725
EXTRACT: note_on channel=9 note=42 velocity=110 time=0
EXTRACT: note_on channel=1 note=28 velocity=126 time=0
EXTRACT: note_on channel=4 note=67 velocity=43 time=0
EXTRACT: note_on channel=4 note=62 velocity=50 time=0
EXTRACT: note_on channel=4 note=59 velocity=48 time=0
EXTRACT: note_on channel=3 note=59 velocity=0 time=0.005263149999999999
EXTRACT: note_on channel=9 note=36 velocity=0 time=0.04736835
EXTRACT: note_on channel=9 note=42 velocity=0 time=0
EXTRACT: note_on channel=4 note=67 velocity=0 time=0.02631575
EXTRACT: note_on channel=4 note=62 velocity=0 time=0
EXTRACT: note_on channel=4 note=59 velocity=0 time=0
EXTRACT: note_on channel=2 note=62 velocity=113 time=0.07368409999999999
EXTRACT: note_on channel=9 note=69 velocity=73 time=0.005263149999999999
EXTRACT: note_on channel=3 note=62 velocity=125 time=0.005263149999999999
EXTRACT: note_on channel=9 note=69 velocity=0 time=0.04736835
EXTRACT: note_on channel=9 note=42 velocity=105 time=0.105263
EXTRACT: note_on channel=9 note=69 velocity=78 time=0
EXTRACT: note_on channel=1 note=28 velocity=0 time=0
EXTRACT: note_on channel=4 note=67 velocity=95 time=0
EXTRACT: note_on channel=4 note=62 velocity=89 time=0
EXTRACT: note_on channel=4 note=59 velocity=111 time=0
EXTRACT: note_on channel=4 note=55 velocity=91 time=0
EXTRACT: note_on channel=4 note=47 velocity=107 time=0
EXTRACT: note_on channel=7 note=67 velocity=107 time=0
EXTRACT: note_on channel=7 note=62 velocity=94 time=0
EXTRACT: note_on channel=7 note=59 velocity=96 time=0
EXTRACT: note_on channel=7 note=55 velocity=100 time=0
EXTRACT: note_on channel=7 note=47 velocity=81 time=0
EXTRACT: note_on channel=3 note=62 velocity=0 time=0.005263149999999999
EXTRACT: note_on channel=9 note=42 velocity=0 time=0.04736835
EXTRACT: note_on channel=9 note=69 velocity=0 time=0
EXTRACT: note_on channel=2 note=67 velocity=108 time=0.09999984999999999
EXTRACT: note_on channel=4 note=67 velocity=0 time=0.005263149999999999
EXTRACT: note_on channel=4 note=62 velocity=0 time=0
EXTRACT: note_on channel=4 note=59 velocity=0 time=0
EXTRACT: note_on channel=4 note=55 velocity=0 time=0
EXTRACT: note_on channel=4 note=47 velocity=0 time=0
EXTRACT: note_on channel=7 note=67 velocity=0 time=0
EXTRACT: note_on channel=7 note=62 velocity=0 time=0
EXTRACT: note_on channel=7 note=59 velocity=0 time=0
EXTRACT: note_on channel=7 note=55 velocity=0 time=0
EXTRACT: note_on channel=7 note=47 velocity=0 time=0
EXTRACT: note_on channel=3 note=62 velocity=104 time=0.005263149999999999
EXTRACT: note_on channel=2 note=67 velocity=121 time=0.14736819999999998
EXTRACT: note_on channel=9 note=40 velocity=127 time=0.005263149999999999
EXTRACT: note_on channel=9 note=42 velocity=105 time=0
EXTRACT: note_on channel=9 note=69 velocity=66 time=0
EXTRACT: note_on channel=5 note=91 velocity=0 time=0
EXTRACT: note_on channel=5 note=79 velocity=0 time=0
EXTRACT: note_on channel=5 note=86 velocity=117 time=0
EXTRACT: note_on channel=5 note=74 velocity=116 time=0
EXTRACT: note_on channel=9 note=40 velocity=0 time=0.0526315
EXTRACT: note_on channel=9 note=42 velocity=0 time=0
EXTRACT: note_on channel=9 note=69 velocity=0 time=0
EXTRACT: note_on channel=4 note=67 velocity=49 time=0.105263
EXTRACT: note_on channel=4 note=62 velocity=43 time=0
EXTRACT: note_on channel=4 note=59 velocity=47 time=0
EXTRACT: note_on channel=5 note=86 velocity=0 time=0
EXTRACT: note_on channel=5 note=74 velocity=0 time=0
EXTRACT: note_on channel=5 note=73 velocity=109 time=0
EXTRACT: note_on channel=5 note=85 velocity=101 time=0
EXTRACT: note_on channel=4 note=67 velocity=0 time=0.07894725
EXTRACT: note_on channel=4 note=62 velocity=0 time=0
EXTRACT: note_on channel=4 note=59 velocity=0 time=0
EXTRACT: note_on channel=2 note=62 velocity=110 time=0.07368409999999999
EXTRACT: note_on channel=9 note=42 velocity=105 time=0.005263149999999999
EXTRACT: note_on channel=1 note=28 velocity=117 time=0
EXTRACT: note_on channel=4 note=67 velocity=86 time=0
EXTRACT: note_on channel=4 note=62 velocity=72 time=0
EXTRACT: note_on channel=4 note=59 velocity=53 time=0
EXTRACT: note_on channel=4 note=55 velocity=81 time=0
EXTRACT: note_on channel=4 note=47 velocity=63 time=0
EXTRACT: note_on channel=5 note=73 velocity=0 time=0
EXTRACT: note_on channel=5 note=85 velocity=0 time=0
EXTRACT: note_on channel=5 note=71 velocity=113 time=0
EXTRACT: note_on channel=5 note=83 velocity=117 time=0
EXTRACT: note_on channel=9 note=42 velocity=0 time=0.0526315
EXTRACT: note_on channel=4 note=67 velocity=0 time=0.02631575
EXTRACT: note_on channel=4 note=62 velocity=0 time=0
EXTRACT: note_on channel=4 note=59 velocity=0 time=0
EXTRACT: note_on channel=4 note=55 velocity=0 time=0
EXTRACT: note_on channel=4 note=47 velocity=0 time=0
EXTRACT: note_on channel=1 note=28 velocity=0 time=0.07894725
EXTRACT: note_on channel=5 note=71 velocity=0 time=0
EXTRACT: note_on channel=5 note=83 velocity=0 time=0
EXTRACT: note_on channel=5 note=85 velocity=110 time=0
EXTRACT: note_on channel=5 note=73 velocity=116 time=0
EXTRACT: note_on channel=2 note=40 velocity=0 time=0.15263134999999997
EXTRACT: note_on channel=2 note=62 velocity=0 time=0
EXTRACT: note_on channel=2 note=67 velocity=0 time=0
EXTRACT: note_on channel=2 note=62 velocity=0 time=0
EXTRACT: note_on channel=2 note=59 velocity=0 time=0
EXTRACT: note_on channel=2 note=62 velocity=0 time=0
EXTRACT: note_on channel=2 note=67 velocity=0 time=0
EXTRACT: note_on channel=2 note=67 velocity=0 time=0
EXTRACT: note_on channel=2 note=62 velocity=0 time=0
EXTRACT: note_on channel=2 note=57 velocity=92 time=0
EXTRACT: note_on channel=2 note=54 velocity=103 time=0
EXTRACT: note_on channel=9 note=42 velocity=100 time=0.005263149999999999
EXTRACT: note_on channel=9 note=36 velocity=120 time=0
EXTRACT: note_on channel=1 note=30 velocity=127 time=0
EXTRACT: note_on channel=4 note=64 velocity=89 time=0
EXTRACT: note_on channel=4 note=61 velocity=113 time=0
EXTRACT: note_on channel=4 note=57 velocity=88 time=0
EXTRACT: note_on channel=4 note=54 velocity=111 time=0
EXTRACT: note_on channel=5 note=85 velocity=0 time=0
EXTRACT: note_on channel=5 note=73 velocity=0 time=0
EXTRACT: note_on channel=5 note=74 velocity=111 time=0
EXTRACT: note_on channel=5 note=86 velocity=115 time=0
EXTRACT: note_on channel=6 note=59 velocity=0 time=0
EXTRACT: note_on channel=6 note=62 velocity=0 time=0
EXTRACT: note_on channel=6 note=67 velocity=0 time=0
EXTRACT: note_on channel=6 note=57 velocity=85 time=0
EXTRACT: note_on channel=6 note=61 velocity=110 time=0
EXTRACT: note_on channel=6 note=66 velocity=114 time=0
EXTRACT: note_on channel=7 note=64 velocity=81 time=0
EXTRACT: note_on channel=7 note=61 velocity=78 time=0
EXTRACT: note_on channel=7 note=57 velocity=88 time=0
EXTRACT: note_on channel=7 note=54 velocity=101 time=0
EXTRACT: note_on channel=8 note=52 velocity=0 time=0
EXTRACT: note_on channel=8 note=64 velocity=0 time=0
EXTRACT: note_on channel=3 note=62 velocity=0 time=0.005263149999999999
EXTRACT: note_on channel=9 note=42 velocity=0 time=0.04736835
EXTRACT: note_on channel=9 note=36 velocity=0 time=0
EXTRACT: note_on channel=1 note=30 velocity=0 time=0.15263134999999997
EXTRACT: note_on channel=1 note=30 velocity=120 time=0.005263149999999999
EXTRACT: note_on channel=2 note=61 velocity=103 time=0.09999984999999999
EXTRACT: note_on channel=9 note=42 velocity=90 time=0.005263149999999999
EXTRACT: note_on channel=4 note=64 velocity=0 time=0
EXTRACT: note_on channel=4 note=61 velocity=0 time=0
EXTRACT: note_on channel=4 note=57 velocity=0 time=0
EXTRACT: note_on channel=4 note=54 velocity=0 time=0
EXTRACT: note_on channel=7 note=64 velocity=0 time=0
EXTRACT: note_on channel=7 note=61 velocity=0 time=0
EXTRACT: note_on channel=7 note=57 velocity=0 time=0
EXTRACT: note_on channel=7 note=54 velocity=0 time=0
EXTRACT: note_on channel=3 note=61 velocity=126 time=0.005263149999999999
EXTRACT: note_on channel=9 note=42 velocity=0 time=0.04736835
EXTRACT: note_on channel=1 note=30 velocity=0 time=0.04736835
EXTRACT: note_on channel=1 note=30 velocity=115 time=0.005263149999999999
EXTRACT: note_on channel=2 note=64 velocity=116 time=0.04736835
EXTRACT: note_on channel=4 note=64 velocity=98 time=0.005263149999999999
EXTRACT: note_on channel=4 note=61 velocity=117 time=0
EXTRACT: note_on channel=4 note=57 velocity=94 time=0
EXTRACT: note_on channel=4 note=54 velocity=103 time=0
EXTRACT: note_on channel=7 note=64 velocity=104 time=0
EXTRACT: note_on channel=7 note=61 velocity=111 time=0
EXTRACT: note_on channel=7 note=57 velocity=104 time=0
EXTRACT: note_on channel=7 note=54 velocity=100 time=0
EXTRACT: note_on channel=1 note=30 velocity=0 time=0.15263134999999997
EXTRACT: note_on channel=9 note=42 velocity=103 time=0.005263149999999999
EXTRACT: note_on channel=9 note=40 velocity=127 time=0
EXTRACT: note_on channel=9 note=69 velocity=62 time=0
EXTRACT: note_on channel=1 note=37 velocity=114 time=0
EXTRACT: note_on channel=4 note=64 velocity=0 time=0
EXTRACT: note_on channel=4 note=61 velocity=0 time=0
EXTRACT: note_on channel=4 note=57 velocity=0 time=0
EXTRACT: note_on channel=4 note=54 velocity=0 time=0
EXTRACT: note_on channel=5 note=74 velocity=0 time=0
EXTRACT: note_on channel=5 note=86 velocity=0 time=0
EXTRACT: note_on channel=5 note=85 velocity=111 time=0
EXTRACT: note_on channel=5 note=73 velocity=99 time=0
EXTRACT: note_on channel=7 note=64 velocity=0 time=0
EXTRACT: note_on channel=7 note=61 velocity=0 time=0
EXTRACT: note_on channel=7 note=57 velocity=0 time=0
EXTRACT: note_on channel=7 note=54 velocity=0 time=0
EXTRACT: note_on channel=3 note=61 velocity=0 time=0.005263149999999999
EXTRACT: note_on channel=9 note=42 velocity=0 time=0.04736835
EXTRACT: note_on channel=9 note=40 velocity=0 time=0
EXTRACT: note_on channel=9 note=69 velocity=0 time=0
EXTRACT: note_on channel=2 note=61 velocity=121 time=0.09999984999999999
EXTRACT: note_on channel=9 note=69 velocity=70 time=0.005263149999999999
EXTRACT: note_on channel=4 note=64 velocity=73 time=0
EXTRACT: note_on channel=4 note=61 velocity=77 time=0
EXTRACT: note_on channel=4 note=57 velocity=61 time=0
EXTRACT: note_on channel=4 note=54 velocity=52 time=0
EXTRACT: note_on channel=3 note=61 velocity=103 time=0.005263149999999999
EXTRACT: note_on channel=9 note=69 velocity=0 time=0.04736835
EXTRACT: note_on channel=1 note=37 velocity=0 time=0.02631575
EXTRACT: note_on channel=4 note=64 velocity=0 time=0
EXTRACT: note_on channel=4 note=61 velocity=0 time=0
EXTRACT: note_on channel=4 note=57 velocity=0 time=0
EXTRACT: note_on channel=4 note=54 velocity=0 time=0
EXTRACT: note_on channel=9 note=42 velocity=110 time=0.07894725
EXTRACT: note_on channel=1 note=42 velocity=112 time=0
EXTRACT: note_on channel=4 note=64 velocity=61 time=0
EXTRACT: note_on channel=4 note=61 velocity=58 time=0
EXTRACT: note_on channel=4 note=57 velocity=50 time=0
EXTRACT: note_on channel=9 note=42 velocity=0 time=0.0526315
EXTRACT: note_on channel=4 note=64 velocity=0 time=0.02631575
EXTRACT: note_on channel=4 note=61 velocity=0 time=0
EXTRACT: note_on channel=4 note=57 velocity=0 time=0
EXTRACT: note_on channel=2 note=57 velocity=127 time=0.07368409999999999
EXTRACT: note_on channel=9 note=69 velocity=62 time=0.005263149999999999
EXTRACT: note_on channel=4 note=64 velocity=62 time=0
EXTRACT: note_on channel=4 note=61 velocity=73 time=0
EXTRACT: note_on channel=4 note=57 velocity=66 time=0
EXTRACT: note_on channel=4 note=54 velocity=85 time=0
EXTRACT: note_on channel=3 note=61 velocity=0 time=0.005263149999999999
EXTRACT: note_on channel=9 note=69 velocity=0 time=0.04736835
EXTRACT: note_on channel=1 note=42 velocity=0 time=0.02631575
EXTRACT: note_on channel=4 note=64 velocity=0 time=0
EXTRACT: note_on channel=4 note=61 velocity=0 time=0
EXTRACT: note_on channel=4 note=57 velocity=0 time=0
EXTRACT: note_on channel=4 note=54 velocity=0 time=0
EXTRACT: note_on channel=2 note=61 velocity=112 time=0.07368409999999999
EXTRACT: note_on channel=9 note=36 velocity=120 time=0.005263149999999999
EXTRACT: note_on channel=9 note=42 velocity=109 time=0
EXTRACT: note_on channel=1 note=37 velocity=120 time=0
EXTRACT: note_on channel=4 note=64 velocity=63 time=0
EXTRACT: note_on channel=4 note=61 velocity=67 time=0
EXTRACT: note_on channel=4 note=57 velocity=60 time=0
EXTRACT: note_on channel=5 note=85 velocity=0 time=0
EXTRACT: note_on channel=5 note=73 velocity=0 time=0
EXTRACT: note_on channel=5 note=71 velocity=98 time=0
EXTRACT: note_on channel=5 note=83 velocity=105 time=0
EXTRACT: note_on channel=3 note=61 velocity=113 time=0.005263149999999999
EXTRACT: note_on channel=9 note=36 velocity=0 time=0.04736835
EXTRACT: note_on channel=9 note=42 velocity=0 time=0
EXTRACT: note_on channel=4 note=64 velocity=0 time=0.02631575
EXTRACT: note_on channel=4 note=61 velocity=0 time=0
EXTRACT: note_on channel=4 note=57 velocity=0 time=0
EXTRACT: note_on channel=2 note=64 velocity=115 time=0.07368409999999999
EXTRACT: note_on channel=9 note=69 velocity=73 time=0.005263149999999999
EXTRACT: note_on channel=9 note=69 velocity=0 time=0.0526315
EXTRACT: note_on channel=2 note=66 velocity=104 time=0.09999984999999999
EXTRACT: note_on channel=9 note=36 velocity=120 time=0.005263149999999999
EXTRACT: note_on channel=9 note=42 velocity=96 time=0
EXTRACT: note_on channel=9 note=69 velocity=78 time=0
EXTRACT: note_on channel=4 note=64 velocity=98 time=0
EXTRACT: note_on channel=4 note=61 velocity=86 time=0
EXTRACT: note_on channel=4 note=57 velocity=101 time=0
EXTRACT: note_on channel=4 note=54 velocity=106 time=0
EXTRACT: note_on channel=7 note=64 velocity=107 time=0
EXTRACT: note_on channel=7 note=61 velocity=83 time=0
EXTRACT: note_on channel=7 note=57 velocity=88 time=0
EXTRACT: note_on channel=7 note=54 velocity=77 time=0
EXTRACT: note_on channel=9 note=36 velocity=0 time=0.0526315
EXTRACT: note_on channel=9 note=42 velocity=0 time=0
EXTRACT: note_on channel=9 note=69 velocity=0 time=0
EXTRACT: note_on channel=1 note=37 velocity=0 time=0.04736835
EXTRACT: note_on channel=1 note=42 velocity=118 time=0.005263149999999999
EXTRACT: note_on channel=2 note=69 velocity=114 time=0.04736835
EXTRACT: note_on channel=4 note=64 velocity=0 time=0.005263149999999999
EXTRACT: note_on channel=4 note=61 velocity=0 time=0
EXTRACT: note_on channel=4 note=57 velocity=0 time=0
EXTRACT: note_on channel=4 note=54 velocity=0 time=0
EXTRACT: note_on channel=7 note=64 velocity=0 time=0
EXTRACT: note_on channel=7 note=61 velocity=0 time=0
EXTRACT: note_on channel=7 note=57 velocity=0 time=0
EXTRACT: note_on channel=7 note=54 velocity=0 time=0
EXTRACT: note_on channel=9 note=40 velocity=127 time=0.1578945
EXTRACT: note_on channel=9 note=42 velocity=108 time=0
EXTRACT: note_on channel=9 note=69 velocity=66 time=0
EXTRACT: note_on channel=5 note=71 velocity=0 time=0
EXTRACT: note_on channel=5 note=83 velocity=0 time=0
EXTRACT: note_on channel=5 note=81 velocity=106 time=0
EXTRACT: note_on channel=5 note=69 velocity=116 time=0
EXTRACT: note_on channel=8 note=50 velocity=87 time=0
EXTRACT: note_on channel=8 note=62 velocity=116 time=0
EXTRACT: note_on channel=9 note=40 velocity=0 time=0.0526315
EXTRACT: note_on channel=9 note=42 velocity=0 time=0
EXTRACT: note_on channel=9 note=69 velocity=0 time=0
EXTRACT: note_on channel=4 note=64 velocity=42 time=0.105263
EXTRACT: note_on channel=4 note=61 velocity=64 time=0
EXTRACT: note_on channel=4 note=57 velocity=61 time=0
EXTRACT: note_on channel=8 note=50 velocity=0 time=0
EXTRACT: note_on channel=8 note=62 velocity=0 time=0
EXTRACT: note_on channel=1 note=42 velocity=0 time=0.04736835
EXTRACT: note_on channel=1 note=49 velocity=119 time=0.005263149999999999
EXTRACT: note_on channel=4 note=64 velocity=0 time=0.02631575
EXTRACT: note_on channel=4 note=61 velocity=0 time=0
EXTRACT: note_on channel=4 note=57 velocity=0 time=0
EXTRACT: note_on channel=9 note=36 velocity=90 time=0.07894725
EXTRACT: note_on channel=9 note=42 velocity=102 time=0
EXTRACT: note_on channel=4 note=64 velocity=72 time=0
EXTRACT: note_on channel=4 note=61 velocity=52 time=0
EXTRACT: note_on channel=4 note=57 velocity=63 time=0
EXTRACT: note_on channel=4 note=54 velocity=67 time=0
EXTRACT: note_on channel=8 note=54 velocity=87 time=0
EXTRACT: note_on channel=8 note=66 velocity=119 time=0
EXTRACT: note_on channel=3 note=61 velocity=93 time=0.005263149999999999
EXTRACT: note_on channel=9 note=36 velocity=0 time=0.04736835
EXTRACT: note_on channel=9 note=42 velocity=0 time=0
EXTRACT: note_on channel=4 note=64 velocity=0 time=0.02631575
EXTRACT: note_on channel=4 note=61 velocity=0 time=0
EXTRACT: note_on channel=4 note=57 velocity=0 time=0
EXTRACT: note_on channel=4 note=54 velocity=0 time=0
EXTRACT: note_on channel=9 note=40 velocity=127 time=0.07894725
EXTRACT: note_on channel=9 note=40 velocity=0 time=0.0526315
EXTRACT: note_on channel=1 note=49 velocity=0 time=0.09999984999999999
EXTRACT: note_on channel=2 note=57 velocity=0 time=0
EXTRACT: note_on channel=2 note=54 velocity=0 time=0
EXTRACT: note_on channel=2 note=61 velocity=0 time=0
EXTRACT: note_on channel=2 note=64 velocity=0 time=0
EXTRACT: note_on channel=2 note=61 velocity=0 time=0
EXTRACT: note_on channel=2 note=57 velocity=0 time=0
EXTRACT: note_on channel=2 note=61 velocity=0 time=0
EXTRACT: note_on channel=2 note=64 velocity=0 time=0
EXTRACT: note_on channel=2 note=66 velocity=0 time=0
EXTRACT: note_on channel=2 note=69 velocity=0 time=0
EXTRACT: note_on channel=2 note=47 velocity=117 time=0
EXTRACT: note_on channel=9 note=57 velocity=90 time=0.005263149999999999
EXTRACT: note_on channel=9 note=36 velocity=120 time=0
EXTRACT: note_on channel=1 note=35 velocity=122 time=0
EXTRACT: note_on channel=4 note=66 velocity=89 time=0
EXTRACT: note_on channel=4 note=62 velocity=116 time=0
EXTRACT: note_on channel=4 note=59 velocity=110 time=0
EXTRACT: note_on channel=4 note=54 velocity=96 time=0
EXTRACT: note_on channel=4 note=47 velocity=87 time=0
EXTRACT: note_on channel=5 note=81 velocity=0 time=0
EXTRACT: note_on channel=5 note=69 velocity=0 time=0
EXTRACT: note_on channel=5 note=90 velocity=108 time=0
EXTRACT: note_on channel=5 note=78 velocity=115 time=0
EXTRACT: note_on channel=6 note=57 velocity=0 time=0
EXTRACT: note_on channel=6 note=61 velocity=0 time=0
EXTRACT: note_on channel=6 note=66 velocity=0 time=0
EXTRACT: control_change channel=6 control=11 value=40 time=0
EXTRACT: note_on channel=6 note=59 velocity=112 time=0
EXTRACT: note_on channel=6 note=62 velocity=113 time=0
EXTRACT: note_on channel=6 note=66 velocity=108 time=0
EXTRACT: note_on channel=7 note=66 velocity=80 time=0
EXTRACT: note_on channel=7 note=62 velocity=77 time=0
EXTRACT: note_on channel=7 note=59 velocity=92 time=0
EXTRACT: note_on channel=7 note=54 velocity=75 time=0
EXTRACT: note_on channel=7 note=47 velocity=83 time=0
EXTRACT: note_on channel=3 note=61 velocity=0 time=0.005263149999999999
EXTRACT: note_on channel=3 note=61 velocity=0 time=0
EXTRACT: control_change channel=6 control=11 value=41 time=0.02631575
EXTRACT: note_on channel=9 note=57 velocity=0 time=0.021052599999999998
EXTRACT: note_on channel=9 note=36 velocity=0 time=0
EXTRACT: control_change channel=6 control=11 value=42 time=0.010526299999999999
EXTRACT: control_change channel=6 control=11 value=43 time=0.03157889999999999
EXTRACT: control_change channel=6 control=11 value=44 time=0.03157889999999999
EXTRACT: note_on channel=1 note=35 velocity=0 time=0.02631575
EXTRACT: note_on channel=1 note=35 velocity=110 time=0.005263149999999999
EXTRACT: control_change channel=6 control=11 value=45 time=0
EXTRACT: control_change channel=6 control=11 value=46 time=0.03157889999999999
EXTRACT: control_change channel=6 control=11 value=47 time=0.03157889999999999
EXTRACT: control_change channel=6 control=11 value=48 time=0.03157889999999999
EXTRACT: control_change channel=6 control=11 value=49 time=0.03157889999999999
EXTRACT: note_on channel=2 note=62 velocity=121 time=0.02631575
EXTRACT: note_on channel=9 note=42 velocity=110 time=0.005263149999999999
EXTRACT: note_on channel=1 note=35 velocity=0 time=0
EXTRACT: note_on channel=4 note=66 velocity=0 time=0
EXTRACT: note_on channel=4 note=62 velocity=0 time=0
EXTRACT: note_on channel=4 note=59 velocity=0 time=0
EXTRACT: note_on channel=4 note=54 velocity=0 time=0
EXTRACT: note_on channel=4 note=47 velocity=0 time=0
EXTRACT: control_change channel=6 control=11 value=50 time=0
EXTRACT: note_on channel=7 note=66 velocity=0 time=0
EXTRACT: note_on channel=7 note=62 velocity=0 time=0
EXTRACT: note_on channel=7 note=59 velocity=0 time=0
EXTRACT: note_on channel=7 note=54 velocity=0 time=0
EXTRACT: note_on channel=7 note=47 velocity=0 time=0
EXTRACT: note_on channel=8 note=54 velocity=0 time=0
EXTRACT: note_on channel=8 note=66 velocity=0 time=0
EXTRACT: note_on channel=8 note=57 velocity=83 time=0
EXTRACT: note_on channel=8 note=69 velocity=115 time=0
EXTRACT: note_on channel=3 note=62 velocity=127 time=0.005263149999999999
EXTRACT: control_change channel=6 control=11 value=51 time=0.02631575
EXTRACT: note_on channel=9 note=42 velocity=0 time=0.021052599999999998
EXTRACT: control_change channel=6 control=11 value=52 time=0.010526299999999999
EXTRACT: control_change channel=6 control=11 value=53 time=0.03157889999999999
EXTRACT: control_change channel=6 control=11 value=54 time=0.03157889999999999
EXTRACT: note_on channel=2 note=66 velocity=126 time=0.02631575
EXTRACT: note_on channel=1 note=42 velocity=111 time=0.005263149999999999
EXTRACT: note_on channel=4 note=66 velocity=98 time=0
EXTRACT: note_on channel=4 note=62 velocity=114 time=0
EXTRACT: note_on channel=4 note=59 velocity=115 time=0
EXTRACT: note_on channel=4 note=54 velocity=100 time=0
EXTRACT: note_on channel=4 note=47 velocity=117 time=0
EXTRACT: control_change channel=6 control=11 value=55 time=0
EXTRACT: note_on channel=7 note=66 velocity=107 time=0
EXTRACT: note_on channel=7 note=62 velocity=91 time=0
EXTRACT: note_on channel=7 note=59 velocity=109 time=0
EXTRACT: note_on channel=7 note=54 velocity=82 time=0
EXTRACT: note_on channel=7 note=47 velocity=108 time=0
EXTRACT: note_on channel=8 note=57 velocity=0 time=0
EXTRACT: note_on channel=8 note=69 velocity=0 time=0
EXTRACT: control_change channel=6 control=11 value=56 time=0.03157889999999999
EXTRACT: control_change channel=6 control=11 value=57 time=0.03157889999999999
EXTRACT: control_change channel=6 control=11 value=58 time=0.03157889999999999
EXTRACT: control_change channel=6 control=11 value=59 time=0.03157889999999999
EXTRACT: note_on channel=9 note=42 velocity=103 time=0.03157889999999999
EXTRACT: note_on channel=9 note=40 velocity=127 time=0
EXTRACT: note_on channel=9 note=69 velocity=62 time=0
EXTRACT: note_on channel=1 note=42 velocity=0 time=0
EXTRACT: note_on channel=4 note=66 velocity=0 time=0
EXTRACT: note_on channel=4 note=62 velocity=0 time=0
EXTRACT: note_on channel=4 note=59 velocity=0 time=0
EXTRACT: note_on channel=4 note=54 velocity=0 time=0
EXTRACT: note_on channel=4 note=47 velocity=0 time=0
EXTRACT: control_change channel=6 control=11 value=60 time=0
EXTRACT: note_on channel=7 note=66 velocity=0 time=0
EXTRACT: note_on channel=7 note=62 velocity=0 time=0
EXTRACT: note_on channel=7 note=59 velocity=0 time=0
EXTRACT: note_on channel=7 note=54 velocity=0 time=0
EXTRACT: note_on channel=7 note=47 velocity=0 time=0
EXTRACT: note_on channel=8 note=55 velocity=94 time=0
EXTRACT: note_on channel=8 note=67 velocity=124 time=0
EXTRACT: note_on channel=3 note=62 velocity=0 time=0.005263149999999999
EXTRACT: control_change channel=6 control=11 value=61 time=0.02631575
EXTRACT: note_on channel=9 note=42 velocity=0 time=0.021052599999999998
EXTRACT: note_on channel=9 note=40 velocity=0 time=0
EXTRACT: note_on channel=9 note=69 velocity=0 time=0
EXTRACT: control_change channel=6 control=11 value=62 time=0.010526299999999999
EXTRACT: control_change channel=6 control=11 value=63 time=0.03157889999999999
EXTRACT: control_change channel=6 control=11 value=64 time=0.03157889999999999
EXTRACT: note_on channel=2 note=62 velocity=102 time=0.02631575
EXTRACT: note_on channel=9 note=69 velocity=70 time=0.005263149999999999
EXTRACT: note_on channel=1 note=42 velocity=119 time=0
EXTRACT: note_on channel=4 note=66 velocity=84 time=0
EXTRACT: note_on channel=4 note=62 velocity=83 time=0
EXTRACT: note_on channel=4 note=59 velocity=78 time=0
EXTRACT: note_on channel=4 note=54 velocity=58 time=0
EXTRACT: note_on channel=4 note=47 velocity=58 time=0
EXTRACT: control_change channel=6 control=11 value=65 time=0
EXTRACT: note_on channel=8 note=55 velocity=0 time=0
EXTRACT: note_on channel=8 note=67 velocity=0 time=0
EXTRACT: note_on channel=3 note=62 velocity=123 time=0.005263149999999999
EXTRACT: control_change channel=6 control=11 value=66 time=0.02631575
EXTRACT: note_on channel=9 note=69 velocity=0 time=0.021052599999999998
EXTRACT: control_change channel=6 control=11 value=67 time=0.010526299999999999
EXTRACT: note_on channel=4 note=66 velocity=0 time=0.015789449999999997
EXTRACT: note_on channel=4 note=62 velocity=0 time=0
EXTRACT: note_on channel=4 note=59 velocity=0 time=0
EXTRACT: note_on channel=4 note=54 velocity=0 time=0
EXTRACT: note_on channel=4 note=47 velocity=0 time=0
EXTRACT: control_change channel=6 control=11 value=68 time=0.015789449999999997
EXTRACT: control_change channel=6 control=11 value=69 time=0.03157889999999999
EXTRACT: note_on channel=1 note=42 velocity=0 time=0.02631575
EXTRACT: note_on channel=9 note=42 velocity=99 time=0.005263149999999999
EXTRACT: note_on channel=1 note=38 velocity=113 time=0
EXTRACT: note_on channel=4 note=66 velocity=46 time=0
EXTRACT: note_on channel=4 note=62 velocity=62 time=0
EXTRACT: note_on channel=4 note=59 velocity=59 time=0
EXTRACT: control_change channel=6 control=11 value=70 time=0
EXTRACT: note_on channel=8 note=54 velocity=96 time=0
EXTRACT: note_on channel=8 note=66 velocity=118 time=0
EXTRACT: note_on channel=3 note=62 velocity=0 time=0.005263149999999999
EXTRACT: note_on channel=3 note=61 velocity=121 time=0
EXTRACT: control_change channel=6 control=11 value=71 time=0.02631575
EXTRACT: note_on channel=9 note=42 velocity=0 time=0.021052599999999998
EXTRACT: control_change channel=6 control=11 value=72 time=0.010526299999999999
EXTRACT: note_on channel=4 note=66 velocity=0 time=0.015789449999999997
EXTRACT: note_on channel=4 note=62 velocity=0 time=0
EXTRACT: note_on channel=4 note=59 velocity=0 time=0
EXTRACT: control_change channel=6 control=11 value=73 time=0.015789449999999997
EXTRACT: control_change channel=6 control=11 value=74 time=0.03157889999999999
EXTRACT: note_on channel=2 note=59 velocity=123 time=0.02631575
EXTRACT: note_on channel=9 note=69 velocity=62 time=0.005263149999999999
EXTRACT: note_on channel=1 note=38 velocity=0 time=0
EXTRACT: note_on channel=4 note=66 velocity=77 time=0
EXTRACT: note_on channel=4 note=62 velocity=81 time=0
EXTRACT: note_on channel=4 note=59 velocity=59 time=0
EXTRACT: note_on channel=4 note=54 velocity=75 time=0
EXTRACT: note_on channel=4 note=47 velocity=91 time=0
EXTRACT: control_change channel=6 control=11 value=75 time=0
EXTRACT: note_on channel=8 note=54 velocity=0 time=0
EXTRACT: note_on channel=8 note=66 velocity=0 time=0
EXTRACT: note_on channel=3 note=61 velocity=0 time=0.005263149999999999
EXTRACT: note_on channel=3 note=59 velocity=105 time=0
EXTRACT: control_change channel=6 control=11 value=76 time=0.02631575
EXTRACT: note_on channel=9 note=69 velocity=0 time=0.021052599999999998
EXTRACT: control_change channel=6 control=11 value=77 time=0.010526299999999999
EXTRACT: note_on channel=4 note=66 velocity=0 time=0.015789449999999997
EXTRACT: note_on channel=4 note=62 velocity=0 time=0
EXTRACT: note_on channel=4 note=59 velocity=0 time=0
EXTRACT: note_on channel=4 note=54 velocity=0 time=0
EXTRACT: note_on channel=4 note=47 velocity=0 time=0
EXTRACT: control_change channel=6 control=11 value=78 time=0.015789449999999997
EXTRACT: control_change channel=6 control=11 value=79 time=0.03157889999999999
EXTRACT: note_on channel=9 note=36 velocity=120 time=0.03157889999999999
EXTRACT: note_on channel=9 note=42 velocity=105 time=0
EXTRACT: note_on channel=1 note=35 velocity=116 time=0
EXTRACT: note_on channel=4 note=66 velocity=60 time=0
EXTRACT: note_on channel=4 note=62 velocity=59 time=0
EXTRACT: note_on channel=4 note=59 velocity=60 time=0
EXTRACT: control_change channel=6 control=11 value=80 time=0
EXTRACT: note_on channel=8 note=52 velocity=90 time=0
EXTRACT: note_on channel=8 note=64 velocity=125 time=0
EXTRACT: note_on channel=3 note=59 velocity=0 time=0.005263149999999999
EXTRACT: note_on channel=9 note=36 velocity=0 time=0.04736835
EXTRACT: note_on channel=9 note=42 velocity=0 time=0
EXTRACT: note_on channel=4 note=66 velocity=0 time=0.02631575
EXTRACT: note_on channel=4 note=62 velocity=0 time=0
EXTRACT: note_on channel=4 note=59 velocity=0 time=0
EXTRACT: note_on channel=2 note=62 velocity=119 time=0.07368409999999999
EXTRACT: note_on channel=9 note=69 velocity=73 time=0.005263149999999999
EXTRACT: note_on channel=3 note=62 velocity=115 time=0.005263149999999999
EXTRACT: note_on channel=9 note=69 velocity=0 time=0.04736835
EXTRACT: note_on channel=9 note=42 velocity=93 time=0.105263
EXTRACT: note_on channel=9 note=69 velocity=78 time=0
EXTRACT: note_on channel=1 note=35 velocity=0 time=0
EXTRACT: note_on channel=4 note=66 velocity=97 time=0
EXTRACT: note_on channel=4 note=62 velocity=99 time=0
EXTRACT: note_on channel=4 note=59 velocity=88 time=0
EXTRACT: note_on channel=4 note=54 velocity=116 time=0
EXTRACT: note_on channel=4 note=47 velocity=105 time=0
EXTRACT: note_on channel=7 note=66 velocity=84 time=0
EXTRACT: note_on channel=7 note=62 velocity=94 time=0
EXTRACT: note_on channel=7 note=59 velocity=102 time=0
EXTRACT: note_on channel=7 note=54 velocity=77 time=0
EXTRACT: note_on channel=7 note=47 velocity=95 time=0
EXTRACT: note_on channel=8 note=52 velocity=0 time=0
EXTRACT: note_on channel=8 note=64 velocity=0 time=0
EXTRACT: note_on channel=8 note=50 velocity=89 time=0
EXTRACT: note_on channel=8 note=62 velocity=122 time=0
EXTRACT: note_on channel=3 note=62 velocity=0 time=0.005263149999999999
EXTRACT: note_on channel=9 note=42 velocity=0 time=0.04736835
EXTRACT: note_on channel=9 note=69 velocity=0 time=0
EXTRACT: note_on channel=2 note=66 velocity=102 time=0.09999984999999999
EXTRACT: note_on channel=4 note=66 velocity=0 time=0.005263149999999999
EXTRACT: note_on channel=4 note=62 velocity=0 time=0
EXTRACT: note_on channel=4 note=59 velocity=0 time=0
EXTRACT: note_on channel=4 note=54 velocity=0 time=0
EXTRACT: note_on channel=4 note=47 velocity=0 time=0
EXTRACT: note_on channel=7 note=66 velocity=0 time=0
EXTRACT: note_on channel=7 note=62 velocity=0 time=0
EXTRACT: note_on channel=7 note=59 velocity=0 time=0
EXTRACT: note_on channel=7 note=54 velocity=0 time=0
EXTRACT: note_on channel=7 note=47 velocity=0 time=0
EXTRACT: note_on channel=8 note=50 velocity=0 time=0
EXTRACT: note_on channel=8 note=62 velocity=0 time=0
EXTRACT: note_on channel=3 note=62 velocity=119 time=0.005263149999999999
EXTRACT: note_on channel=2 note=66 velocity=126 time=0.14736819999999998
EXTRACT: note_on channel=9 note=40 velocity=127 time=0.005263149999999999
EXTRACT: note_on channel=9 note=42 velocity=100 time=0
EXTRACT: note_on channel=9 note=69 velocity=66 time=0
EXTRACT: note_on channel=8 note=52 velocity=96 time=0
EXTRACT: note_on channel=8 note=64 velocity=126 time=0
EXTRACT: note_on channel=9 note=40 velocity=0 time=0.0526315
EXTRACT: note_on channel=9 note=42 velocity=0 time=0
EXTRACT: note_on channel=9 note=69 velocity=0 time=0
EXTRACT: note_on channel=4 note=66 velocity=44 time=0.105263
EXTRACT: note_on channel=4 note=62 velocity=70 time=0
EXTRACT: note_on channel=4 note=59 velocity=46 time=0
EXTRACT: note_on channel=8 note=52 velocity=0 time=0
EXTRACT: note_on channel=8 note=64 velocity=0 time=0
EXTRACT: note_on channel=4 note=66 velocity=0 time=0.07894725
EXTRACT: note_on channel=4 note=62 velocity=0 time=0
EXTRACT: note_on channel=4 note=59 velocity=0 time=0
EXTRACT: note_on channel=2 note=62 velocity=126 time=0.07368409999999999
EXTRACT: note_on channel=9 note=42 velocity=106 time=0.005263149999999999
EXTRACT: note_on channel=1 note=30 velocity=121 time=0
EXTRACT: note_on channel=4 note=66 velocity=87 time=0
EXTRACT: note_on channel=4 note=62 velocity=63 time=0
EXTRACT: note_on channel=4 note=59 velocity=77 time=0
EXTRACT: note_on channel=4 note=54 velocity=67 time=0
EXTRACT: note_on channel=4 note=47 velocity=89 time=0
EXTRACT: note_on channel=8 note=54 velocity=90 time=0
EXTRACT: note_on channel=8 note=66 velocity=119 time=0
EXTRACT: note_on channel=9 note=42 velocity=0 time=0.0526315
EXTRACT: note_on channel=4 note=66 velocity=0 time=0.02631575
EXTRACT: note_on channel=4 note=62 velocity=0 time=0
EXTRACT: note_on channel=4 note=59 velocity=0 time=0
EXTRACT: note_on channel=4 note=54 velocity=0 time=0
EXTRACT: note_on channel=4 note=47 velocity=0 time=0
EXTRACT: note_on channel=1 note=30 velocity=0 time=0.07894725
EXTRACT: note_on channel=2 note=47 velocity=0 time=0.15263134999999997
EXTRACT: note_on channel=2 note=62 velocity=0 time=0
EXTRACT: note_on channel=2 note=66 velocity=0 time=0
EXTRACT: note_on channel=2 note=62 velocity=0 time=0
EXTRACT: note_on channel=2 note=59 velocity=0 time=0
EXTRACT: note_on channel=2 note=62 velocity=0 time=0
EXTRACT: note_on channel=2 note=66 velocity=0 time=0
EXTRACT: note_on channel=2 note=66 velocity=0 time=0
EXTRACT: note_on channel=2 note=47 velocity=112 time=0
EXTRACT: note_on channel=9 note=42 velocity=98 time=0.005263149999999999
EXTRACT: note_on channel=9 note=36 velocity=120 time=0
EXTRACT: note_on channel=1 note=35 velocity=108 time=0
EXTRACT: note_on channel=4 note=66 velocity=108 time=0
EXTRACT: note_on channel=4 note=62 velocity=117 time=0
EXTRACT: note_on channel=4 note=59 velocity=116 time=0
EXTRACT: note_on channel=4 note=54 velocity=104 time=0
EXTRACT: note_on channel=4 note=47 velocity=100 time=0
EXTRACT: note_on channel=7 note=66 velocity=78 time=0
EXTRACT: note_on channel=7 note=62 velocity=98 time=0
EXTRACT: note_on channel=7 note=59 velocity=108 time=0
EXTRACT: note_on channel=7 note=54 velocity=109 time=0
EXTRACT: note_on channel=7 note=47 velocity=106 time=0
EXTRACT: note_on channel=3 note=62 velocity=0 time=0.005263149999999999
EXTRACT: note_on channel=9 note=42 velocity=0 time=0.04736835
EXTRACT: note_on channel=9 note=36 velocity=0 time=0
EXTRACT: note_on channel=1 note=35 velocity=0 time=0.18421025
EXTRACT: note_on channel=2 note=62 velocity=0 time=0.07368409999999999
EXTRACT: note_on channel=2 note=62 velocity=122 time=0
EXTRACT: note_on channel=9 note=42 velocity=90 time=0.005263149999999999
EXTRACT: note_on channel=4 note=66 velocity=0 time=0
EXTRACT: note_on channel=4 note=62 velocity=0 time=0
EXTRACT: note_on channel=4 note=59 velocity=0 time=0
EXTRACT: note_on channel=4 note=54 velocity=0 time=0
EXTRACT: note_on channel=4 note=47 velocity=0 time=0
EXTRACT: note_on channel=7 note=66 velocity=0 time=0
EXTRACT: note_on channel=7 note=62 velocity=0 time=0
EXTRACT: note_on channel=7 note=59 velocity=0 time=0
EXTRACT: note_on channel=7 note=54 velocity=0 time=0
EXTRACT: note_on channel=7 note=47 velocity=0 time=0
EXTRACT: note_on channel=8 note=54 velocity=0 time=0
EXTRACT: note_on channel=8 note=66 velocity=0 time=0
EXTRACT: note_on channel=8 note=57 velocity=89 time=0
EXTRACT: note_on channel=8 note=69 velocity=119 time=0
EXTRACT: note_on channel=3 note=62 velocity=105 time=0.005263149999999999
EXTRACT: note_on channel=9 note=42 velocity=0 time=0.04736835
EXTRACT: note_on channel=2 note=66 velocity=102 time=0.09999984999999999
EXTRACT: note_on channel=1 note=35 velocity=111 time=0.005263149999999999
EXTRACT: note_on channel=4 note=66 velocity=116 time=0
EXTRACT: note_on channel=4 note=62 velocity=117 time=0
EXTRACT: note_on channel=4 note=59 velocity=107 time=0
EXTRACT: note_on channel=4 note=54 velocity=92 time=0
EXTRACT: note_on channel=4 note=47 velocity=115 time=0
EXTRACT: note_on channel=7 note=66 velocity=83 time=0
EXTRACT: note_on channel=7 note=62 velocity=96 time=0
EXTRACT: note_on channel=7 note=59 velocity=92 time=0
EXTRACT: note_on channel=7 note=54 velocity=107 time=0
EXTRACT: note_on channel=7 note=47 velocity=81 time=0
EXTRACT: note_on channel=8 note=57 velocity=0 time=0
EXTRACT: note_on channel=8 note=69 velocity=0 time=0
EXTRACT: note_on channel=9 note=42 velocity=103 time=0.1578945
EXTRACT: note_on channel=9 note=40 velocity=127 time=0
EXTRACT: note_on channel=9 note=69 velocity=62 time=0
EXTRACT: note_on channel=1 note=35 velocity=0 time=0
EXTRACT: note_on channel=4 note=66 velocity=0 time=0
EXTRACT: note_on channel=4 note=62 velocity=0 time=0
EXTRACT: note_on channel=4 note=59 velocity=0 time=0
EXTRACT: note_on channel=4 note=54 velocity=0 time=0
EXTRACT: note_on channel=4 note=47 velocity=0 time=0
EXTRACT: note_on channel=7 note=66 velocity=0 time=0
EXTRACT: note_on channel=7 note=62 velocity=0 time=0
EXTRACT: note_on channel=7 note=59 velocity=0 time=0
EXTRACT: note_on channel=7 note=54 velocity=0 time=0
EXTRACT: note_on channel=7 note=47 velocity=0 time=0
EXTRACT: note_on channel=8 note=55 velocity=97 time=0
EXTRACT: note_on channel=8 note=67 velocity=117 time=0
EXTRACT: note_on channel=3 note=62 velocity=0 time=0.005263149999999999
EXTRACT: note_on channel=9 note=42 velocity=0 time=0.04736835
EXTRACT: note_on channel=9 note=40 velocity=0 time=0
EXTRACT: note_on channel=9 note=69 velocity=0 time=0
EXTRACT: note_on channel=2 note=62 velocity=106 time=0.09999984999999999
EXTRACT: note_on channel=9 note=69 velocity=70 time=0.005263149999999999
EXTRACT: note_on channel=4 note=66 velocity=64 time=0
EXTRACT: note_on channel=4 note=62 velocity=53 time=0
EXTRACT: note_on channel=4 note=59 velocity=85 time=0
EXTRACT: note_on channel=4 note=54 velocity=72 time=0
EXTRACT: note_on channel=4 note=47 velocity=54 time=0
EXTRACT: note_on channel=8 note=55 velocity=0 time=0
EXTRACT: note_on channel=8 note=67 velocity=0 time=0
EXTRACT: note_on channel=3 note=62 velocity=108 time=0.005263149999999999
EXTRACT: note_on channel=9 note=69 velocity=0 time=0.04736835
EXTRACT: note_on channel=4 note=66 velocity=0 time=0.02631575
EXTRACT: note_on channel=4 note=62 velocity=0 time=0
EXTRACT: note_on channel=4 note=59 velocity=0 time=0
EXTRACT: note_on channel=4 note=54 velocity=0 time=0
EXTRACT: note_on channel=4 note=47 velocity=0 time=0
EXTRACT: note_on channel=9 note=42 velocity=105 time=0.07894725
EXTRACT: note_on channel=4 note=66 velocity=53 time=0
EXTRACT: note_on channel=4 note=62 velocity=59 time=0
EXTRACT: note_on channel=4 note=59 velocity=57 time=0
EXTRACT: note_on channel=8 note=54 velocity=99 time=0
EXTRACT: note_on channel=8 note=66 velocity=118 time=0
EXTRACT: note_on channel=3 note=62 velocity=0 time=0.005263149999999999
EXTRACT: note_on channel=3 note=61 velocity=119 time=0
EXTRACT: note_on channel=9 note=42 velocity=0 time=0.04736835
EXTRACT: note_on channel=4 note=66 velocity=0 time=0.02631575
EXTRACT: note_on channel=4 note=62 velocity=0 time=0
EXTRACT: note_on channel=4 note=59 velocity=0 time=0
EXTRACT: note_on channel=2 note=59 velocity=105 time=0.07368409999999999
EXTRACT: note_on channel=9 note=69 velocity=62 time=0.005263149999999999
EXTRACT: note_on channel=4 note=66 velocity=78 time=0
EXTRACT: note_on channel=4 note=62 velocity=86 time=0
EXTRACT: note_on channel=4 note=59 velocity=66 time=0
EXTRACT: note_on channel=4 note=54 velocity=66 time=0
EXTRACT: note_on channel=4 note=47 velocity=53 time=0
EXTRACT: note_on channel=8 note=54 velocity=0 time=0
EXTRACT: note_on channel=8 note=66 velocity=0 time=0
EXTRACT: note_on channel=3 note=61 velocity=0 time=0.005263149999999999
EXTRACT: note_on channel=3 note=59 velocity=112 time=0
EXTRACT: note_on channel=9 note=69 velocity=0 time=0.04736835
EXTRACT: note_on channel=4 note=66 velocity=0 time=0.02631575
EXTRACT: note_on channel=4 note=62 velocity=0 time=0
EXTRACT: note_on channel=4 note=59 velocity=0 time=0
EXTRACT: note_on channel=4 note=54 velocity=0 time=0
EXTRACT: note_on channel=4 note=47 velocity=0 time=0
EXTRACT: note_on channel=9 note=36 velocity=120 time=0.07894725
EXTRACT: note_on channel=9 note=42 velocity=95 time=0
EXTRACT: note_on channel=4 note=66 velocity=47 time=0
EXTRACT: note_on channel=4 note=62 velocity=53 time=0
EXTRACT: note_on channel=4 note=59 velocity=65 time=0
EXTRACT: note_on channel=8 note=52 velocity=89 time=0
EXTRACT: note_on channel=8 note=64 velocity=119 time=0
EXTRACT: note_on channel=3 note=59 velocity=0 time=0.005263149999999999
EXTRACT: note_on channel=9 note=36 velocity=0 time=0.04736835
EXTRACT: note_on channel=9 note=42 velocity=0 time=0
EXTRACT: note_on channel=4 note=66 velocity=0 time=0.02631575
EXTRACT: note_on channel=4 note=62 velocity=0 time=0
EXTRACT: note_on channel=4 note=59 velocity=0 time=0
EXTRACT: note_on channel=2 note=62 velocity=107 time=0.07368409999999999
EXTRACT: note_on channel=9 note=69 velocity=73 time=0.005263149999999999
EXTRACT: note_on channel=3 note=62 velocity=120 time=0.005263149999999999
EXTRACT: note_on channel=9 note=69 velocity=0 time=0.04736835
EXTRACT: note_on channel=9 note=42 velocity=90 time=0.105263
EXTRACT: note_on channel=9 note=69 velocity=78 time=0
EXTRACT: note_on channel=1 note=35 velocity=120 time=0
EXTRACT: note_on channel=4 note=66 velocity=87 time=0
EXTRACT: note_on channel=4 note=62 velocity=94 time=0
EXTRACT: note_on channel=4 note=59 velocity=111 time=0
EXTRACT: note_on channel=4 note=54 velocity=102 time=0
EXTRACT: note_on channel=4 note=47 velocity=97 time=0
EXTRACT: note_on channel=7 note=66 velocity=74 time=0
EXTRACT: note_on channel=7 note=62 velocity=104 time=0
EXTRACT: note_on channel=7 note=59 velocity=98 time=0
EXTRACT: note_on channel=7 note=54 velocity=86 time=0
EXTRACT: note_on channel=7 note=47 velocity=99 time=0
EXTRACT: note_on channel=8 note=52 velocity=0 time=0
EXTRACT: note_on channel=8 note=64 velocity=0 time=0
EXTRACT: note_on channel=8 note=50 velocity=92 time=0
EXTRACT: note_on channel=8 note=62 velocity=125 time=0
EXTRACT: note_on channel=3 note=62 velocity=0 time=0.005263149999999999
EXTRACT: note_on channel=9 note=42 velocity=0 time=0.04736835
EXTRACT: note_on channel=9 note=69 velocity=0 time=0
EXTRACT: note_on channel=2 note=66 velocity=121 time=0.09999984999999999
EXTRACT: note_on channel=1 note=35 velocity=0 time=0.005263149999999999
EXTRACT: note_on channel=4 note=66 velocity=0 time=0
EXTRACT: note_on channel=4 note=62 velocity=0 time=0
EXTRACT: note_on channel=4 note=59 velocity=0 time=0
EXTRACT: note_on channel=4 note=54 velocity=0 time=0
EXTRACT: note_on channel=4 note=47 velocity=0 time=0
EXTRACT: note_on channel=7 note=66 velocity=0 time=0
EXTRACT: note_on channel=7 note=62 velocity=0 time=0
EXTRACT: note_on channel=7 note=59 velocity=0 time=0
EXTRACT: note_on channel=7 note=54 velocity=0 time=0
EXTRACT: note_on channel=7 note=47 velocity=0 time=0
EXTRACT: note_on channel=8 note=50 velocity=0 time=0
EXTRACT: note_on channel=8 note=62 velocity=0 time=0
EXTRACT: note_on channel=3 note=62 velocity=105 time=0.005263149999999999
EXTRACT: note_on channel=2 note=66 velocity=127 time=0.14736819999999998
EXTRACT: note_on channel=9 note=40 velocity=127 time=0.005263149999999999
EXTRACT: note_on channel=9 note=42 velocity=97 time=0
EXTRACT: note_on channel=9 note=69 velocity=66 time=0
EXTRACT: note_on channel=8 note=54 velocity=100 time=0
EXTRACT: note_on channel=8 note=66 velocity=126 time=0
EXTRACT: note_on channel=9 note=40 velocity=0 time=0.0526315
EXTRACT: note_on channel=9 note=42 velocity=0 time=0
EXTRACT: note_on channel=9 note=69 velocity=0 time=0
EXTRACT: note_on channel=4 note=66 velocity=60 time=0.105263
EXTRACT: note_on channel=4 note=62 velocity=54 time=0
EXTRACT: note_on channel=4 note=59 velocity=53 time=0
EXTRACT: note_on channel=8 note=54 velocity=0 time=0
EXTRACT: note_on channel=8 note=66 velocity=0 time=0
EXTRACT: note_on channel=4 note=66 velocity=0 time=0.07894725
EXTRACT: note_on channel=4 note=62 velocity=0 time=0
EXTRACT: note_on channel=4 note=59 velocity=0 time=0
EXTRACT: note_on channel=2 note=62 velocity=102 time=0.07368409999999999
EXTRACT: note_on channel=9 note=36 velocity=90 time=0.005263149999999999
EXTRACT: note_on channel=9 note=42 velocity=105 time=0
EXTRACT: note_on channel=1 note=38 velocity=119 time=0
EXTRACT: note_on channel=4 note=66 velocity=53 time=0
EXTRACT: note_on channel=4 note=62 velocity=66 time=0
EXTRACT: note_on channel=4 note=59 velocity=69 time=0
EXTRACT: note_on channel=4 note=54 velocity=71 time=0
EXTRACT: note_on channel=4 note=47 velocity=85 time=0
EXTRACT: note_on channel=8 note=47 velocity=87 time=0
EXTRACT: note_on channel=8 note=59 velocity=121 time=0
EXTRACT: note_on channel=9 note=36 velocity=0 time=0.0526315
EXTRACT: note_on channel=9 note=42 velocity=0 time=0
EXTRACT: note_on channel=4 note=66 velocity=0 time=0.02631575
EXTRACT: note_on channel=4 note=62 velocity=0 time=0
EXTRACT: note_on channel=4 note=59 velocity=0 time=0
EXTRACT: note_on channel=4 note=54 velocity=0 time=0
EXTRACT: note_on channel=4 note=47 velocity=0 time=0
EXTRACT: note_on channel=9 note=40 velocity=127 time=0.07894725
EXTRACT: note_on channel=1 note=38 velocity=0 time=0
EXTRACT: note_on channel=9 note=40 velocity=0 time=0.0526315
EXTRACT: note_on channel=2 note=47 velocity=0 time=0.09999984999999999
EXTRACT: note_on channel=2 note=62 velocity=0 time=0
EXTRACT: note_on channel=2 note=66 velocity=0 time=0
EXTRACT: note_on channel=2 note=62 velocity=0 time=0
EXTRACT: note_on channel=2 note=59 velocity=0 time=0
EXTRACT: note_on channel=2 note=62 velocity=0 time=0
EXTRACT: note_on channel=2 note=66 velocity=0 time=0
EXTRACT: note_on channel=2 note=66 velocity=0 time=0
EXTRACT: note_on channel=2 note=62 velocity=0 time=0
EXTRACT: note_on channel=2 note=40 velocity=117 time=0
EXTRACT: note_on channel=9 note=42 velocity=105 time=0.005263149999999999
EXTRACT: note_on channel=9 note=36 velocity=120 time=0
EXTRACT: note_on channel=1 note=40 velocity=119 time=0
EXTRACT: note_on channel=4 note=67 velocity=99 time=0
EXTRACT: note_on channel=4 note=62 velocity=86 time=0
EXTRACT: note_on channel=4 note=59 velocity=113 time=0
EXTRACT: note_on channel=4 note=55 velocity=87 time=0
EXTRACT: note_on channel=4 note=47 velocity=107 time=0
EXTRACT: note_on channel=5 note=90 velocity=0 time=0
EXTRACT: note_on channel=5 note=78 velocity=0 time=0
EXTRACT: note_on channel=5 note=91 velocity=107 time=0
EXTRACT: note_on channel=5 note=79 velocity=107 time=0
EXTRACT: note_on channel=6 note=59 velocity=0 time=0
EXTRACT: note_on channel=6 note=62 velocity=0 time=0
EXTRACT: note_on channel=6 note=66 velocity=0 time=0
EXTRACT: note_on channel=6 note=59 velocity=117 time=0
EXTRACT: note_on channel=6 note=62 velocity=126 time=0
EXTRACT: note_on channel=6 note=67 velocity=115 time=0
EXTRACT: note_on channel=7 note=67 velocity=89 time=0
EXTRACT: note_on channel=7 note=62 velocity=100 time=0
EXTRACT: note_on channel=7 note=59 velocity=103 time=0
EXTRACT: note_on channel=7 note=55 velocity=76 time=0
EXTRACT: note_on channel=7 note=47 velocity=74 time=0
EXTRACT: note_on channel=3 note=62 velocity=0 time=0.005263149999999999
EXTRACT: note_on channel=9 note=42 velocity=0 time=0.04736835
EXTRACT: note_on channel=9 note=36 velocity=0 time=0
EXTRACT: note_on channel=1 note=40 velocity=0 time=0.07894725
EXTRACT: note_on channel=2 note=62 velocity=126 time=0.17894709999999997
EXTRACT: note_on channel=9 note=42 velocity=91 time=0.005263149999999999
EXTRACT: note_on channel=1 note=40 velocity=113 time=0
EXTRACT: note_on channel=4 note=67 velocity=0 time=0
EXTRACT: note_on channel=4 note=62 velocity=0 time=0
EXTRACT: note_on channel=4 note=59 velocity=0 time=0
EXTRACT: note_on channel=4 note=55 velocity=0 time=0
EXTRACT: note_on channel=4 note=47 velocity=0 time=0
EXTRACT: note_on channel=7 note=67 velocity=0 time=0
EXTRACT: note_on channel=7 note=62 velocity=0 time=0
EXTRACT: note_on channel=7 note=59 velocity=0 time=0
EXTRACT: note_on channel=7 note=55 velocity=0 time=0
EXTRACT: note_on channel=7 note=47 velocity=0 time=0
EXTRACT: note_on channel=8 note=47 velocity=0 time=0
EXTRACT: note_on channel=8 note=59 velocity=0 time=0
EXTRACT: note_on channel=8 note=52 velocity=88 time=0
EXTRACT: note_on channel=8 note=64 velocity=120 time=0
EXTRACT: note_on channel=3 note=62 velocity=118 time=0.005263149999999999
EXTRACT: note_on channel=9 note=42 velocity=0 time=0.04736835
EXTRACT: note_on channel=1 note=40 velocity=0 time=0.09999984999999999
EXTRACT: note_on channel=2 note=67 velocity=120 time=0
EXTRACT: note_on channel=1 note=35 velocity=117 time=0.005263149999999999
EXTRACT: note_on channel=4 note=67 velocity=103 time=0
EXTRACT: note_on channel=4 note=62 velocity=109 time=0
EXTRACT: note_on channel=4 note=59 velocity=94 time=0
EXTRACT: note_on channel=4 note=55 velocity=111 time=0
EXTRACT: note_on channel=4 note=47 velocity=91 time=0
EXTRACT: note_on channel=7 note=67 velocity=111 time=0
EXTRACT: note_on channel=7 note=62 velocity=98 time=0
EXTRACT: note_on channel=7 note=59 velocity=97 time=0
EXTRACT: note_on channel=7 note=55 velocity=74 time=0
EXTRACT: note_on channel=7 note=47 velocity=106 time=0
EXTRACT: note_on channel=8 note=52 velocity=0 time=0
EXTRACT: note_on channel=8 note=64 velocity=0 time=0
EXTRACT: note_on channel=9 note=42 velocity=109 time=0.1578945
EXTRACT: note_on channel=9 note=40 velocity=127 time=0
EXTRACT: note_on channel=9 note=69 velocity=62 time=0
EXTRACT: note_on channel=1 note=35 velocity=0 time=0
EXTRACT: note_on channel=4 note=67 velocity=0 time=0
EXTRACT: note_on channel=4 note=62 velocity=0 time=0
EXTRACT: note_on channel=4 note=59 velocity=0 time=0
EXTRACT: note_on channel=4 note=55 velocity=0 time=0
EXTRACT: note_on channel=4 note=47 velocity=0 time=0
EXTRACT: note_on channel=7 note=67 velocity=0 time=0
EXTRACT: note_on channel=7 note=62 velocity=0 time=0
EXTRACT: note_on channel=7 note=59 velocity=0 time=0
EXTRACT: note_on channel=7 note=55 velocity=0 time=0
EXTRACT: note_on channel=7 note=47 velocity=0 time=0
EXTRACT: note_on channel=8 note=52 velocity=94 time=0
EXTRACT: note_on channel=8 note=64 velocity=118 time=0
EXTRACT: note_on channel=3 note=62 velocity=0 time=0.005263149999999999
EXTRACT: note_on channel=9 note=42 velocity=0 time=0.04736835
EXTRACT: note_on channel=9 note=40 velocity=0 time=0
EXTRACT: note_on channel=9 note=69 velocity=0 time=0
EXTRACT: note_on channel=2 note=62 velocity=116 time=0.09999984999999999
EXTRACT: note_on channel=9 note=69 velocity=70 time=0.005263149999999999
EXTRACT: note_on channel=1 note=35 velocity=116 time=0
EXTRACT: note_on channel=4 note=67 velocity=84 time=0
EXTRACT: note_on channel=4 note=62 velocity=79 time=0
EXTRACT: note_on channel=4 note=59 velocity=71 time=0
EXTRACT: note_on channel=4 note=55 velocity=87 time=0
EXTRACT: note_on channel=4 note=47 velocity=65 time=0
EXTRACT: note_on channel=3 note=62 velocity=116 time=0.005263149999999999
EXTRACT: note_on channel=9 note=69 velocity=0 time=0.04736835
EXTRACT: note_on channel=4 note=67 velocity=0 time=0.02631575
EXTRACT: note_on channel=4 note=62 velocity=0 time=0
EXTRACT: note_on channel=4 note=59 velocity=0 time=0
EXTRACT: note_on channel=4 note=55 velocity=0 time=0
EXTRACT: note_on channel=4 note=47 velocity=0 time=0
EXTRACT: note_on channel=1 note=35 velocity=0 time=0.07368409999999999
EXTRACT: note_on channel=9 note=42 velocity=90 time=0.005263149999999999
EXTRACT: note_on channel=1 note=31 velocity=121 time=0
EXTRACT: note_on channel=4 note=67 velocity=55 time=0
EXTRACT: note_on channel=4 note=62 velocity=42 time=0
EXTRACT: note_on channel=4 note=59 velocity=61 time=0
EXTRACT: note_on channel=3 note=62 velocity=0 time=0.005263149999999999
EXTRACT: note_on channel=3 note=61 velocity=125 time=0
EXTRACT: note_on channel=9 note=42 velocity=0 time=0.04736835
EXTRACT: note_on channel=4 note=67 velocity=0 time=0.02631575
EXTRACT: note_on channel=4 note=62 velocity=0 time=0
EXTRACT: note_on channel=4 note=59 velocity=0 time=0
EXTRACT: note_on channel=2 note=59 velocity=108 time=0.07368409999999999
EXTRACT: note_on channel=9 note=69 velocity=62 time=0.005263149999999999
EXTRACT: note_on channel=1 note=31 velocity=0 time=0
EXTRACT: note_on channel=4 note=67 velocity=66 time=0
EXTRACT: note_on channel=4 note=62 velocity=91 time=0
EXTRACT: note_on channel=4 note=59 velocity=81 time=0
EXTRACT: note_on channel=4 note=55 velocity=73 time=0
EXTRACT: note_on channel=4 note=47 velocity=76 time=0
EXTRACT: note_on channel=3 note=61 velocity=0 time=0.005263149999999999
EXTRACT: note_on channel=3 note=59 velocity=104 time=0
EXTRACT: note_on channel=9 note=69 velocity=0 time=0.04736835
EXTRACT: note_on channel=4 note=67 velocity=0 time=0.02631575
EXTRACT: note_on channel=4 note=62 velocity=0 time=0
EXTRACT: note_on channel=4 note=59 velocity=0 time=0
EXTRACT: note_on channel=4 note=55 velocity=0 time=0
EXTRACT: note_on channel=4 note=47 velocity=0 time=0
EXTRACT: note_on channel=9 note=36 velocity=120 time=0.07894725
EXTRACT: note_on channel=9 note=42 velocity=100 time=0
EXTRACT: note_on channel=1 note=28 velocity=125 time=0
EXTRACT: note_on channel=4 note=67 velocity=57 time=0
EXTRACT: note_on channel=4 note=62 velocity=51 time=0
EXTRACT: note_on channel=4 note=59 velocity=62 time=0
EXTRACT: note_on channel=8 note=52 velocity=0 time=0
EXTRACT: note_on channel=8 note=64 velocity=0 time=0
EXTRACT: note_on channel=3 note=59 velocity=0 time=0.005263149999999999
EXTRACT: note_on channel=9 note=36 velocity=0 time=0.04736835
EXTRACT: note_on channel=9 note=42 velocity=0 time=0
EXTRACT: note_on channel=4 note=67 velocity=0 time=0.02631575
EXTRACT: note_on channel=4 note=62 velocity=0 time=0
EXTRACT: note_on channel=4 note=59 velocity=0 time=0
EXTRACT: note_on channel=2 note=62 velocity=113 time=0.07368409999999999
EXTRACT: note_on channel=9 note=69 velocity=73 time=0.005263149999999999
EXTRACT: note_on channel=3 note=62 velocity=121 time=0.005263149999999999
EXTRACT: note_on channel=9 note=69 velocity=0 time=0.04736835
EXTRACT: note_on channel=9 note=42 velocity=109 time=0.105263
EXTRACT: note_on channel=9 note=69 velocity=78 time=0
EXTRACT: note_on channel=1 note=28 velocity=0 time=0
EXTRACT: note_on channel=4 note=67 velocity=112 time=0
EXTRACT: note_on channel=4 note=62 velocity=86 time=0
EXTRACT: note_on channel=4 note=59 velocity=93 time=0
EXTRACT: note_on channel=4 note=55 velocity=89 time=0
EXTRACT: note_on channel=4 note=47 velocity=112 time=0
EXTRACT: note_on channel=7 note=67 velocity=100 time=0
EXTRACT: note_on channel=7 note=62 velocity=97 time=0
EXTRACT: note_on channel=7 note=59 velocity=88 time=0
EXTRACT: note_on channel=7 note=55 velocity=108 time=0
EXTRACT: note_on channel=7 note=47 velocity=105 time=0
EXTRACT: note_on channel=8 note=47 velocity=91 time=0
EXTRACT: note_on channel=8 note=59 velocity=117 time=0
EXTRACT: note_on channel=3 note=62 velocity=0 time=0.005263149999999999
EXTRACT: note_on channel=9 note=42 velocity=0 time=0.04736835
EXTRACT: note_on channel=9 note=69 velocity=0 time=0
EXTRACT: note_on channel=2 note=67 velocity=109 time=0.09999984999999999
EXTRACT: note_on channel=4 note=67 velocity=0 time=0.005263149999999999
EXTRACT: note_on channel=4 note=62 velocity=0 time=0
EXTRACT: note_on channel=4 note=59 velocity=0 time=0
EXTRACT: note_on channel=4 note=55 velocity=0 time=0
EXTRACT: note_on channel=4 note=47 velocity=0 time=0
EXTRACT: note_on channel=7 note=67 velocity=0 time=0
EXTRACT: note_on channel=7 note=62 velocity=0 time=0
EXTRACT: note_on channel=7 note=59 velocity=0 time=0
EXTRACT: note_on channel=7 note=55 velocity=0 time=0
EXTRACT: note_on channel=7 note=47 velocity=0 time=0
EXTRACT: note_on channel=8 note=47 velocity=0 time=0
EXTRACT: note_on channel=8 note=59 velocity=0 time=0
EXTRACT: note_on channel=3 note=62 velocity=124 time=0.005263149999999999
EXTRACT: note_on channel=2 note=67 velocity=106 time=0.14736819999999998
EXTRACT: note_on channel=9 note=40 velocity=127 time=0.005263149999999999
EXTRACT: note_on channel=9 note=42 velocity=110 time=0
EXTRACT: note_on channel=9 note=69 velocity=66 time=0
EXTRACT: note_on channel=5 note=91 velocity=0 time=0
EXTRACT: note_on channel=5 note=79 velocity=0 time=0
EXTRACT: note_on channel=5 note=86 velocity=103 time=0
EXTRACT: note_on channel=5 note=74 velocity=103 time=0
EXTRACT: note_on channel=8 note=47 velocity=84 time=0
EXTRACT: note_on channel=8 note=59 velocity=118 time=0
EXTRACT: note_on channel=9 note=40 velocity=0 time=0.0526315
EXTRACT: note_on channel=9 note=42 velocity=0 time=0
EXTRACT: note_on channel=9 note=69 velocity=0 time=0
EXTRACT: note_on channel=4 note=67 velocity=52 time=0.105263
EXTRACT: note_on channel=4 note=62 velocity=43 time=0
EXTRACT: note_on channel=4 note=59 velocity=58 time=0
EXTRACT: note_on channel=5 note=86 velocity=0 time=0
EXTRACT: note_on channel=5 note=74 velocity=0 time=0
EXTRACT: note_on channel=5 note=73 velocity=102 time=0
EXTRACT: note_on channel=5 note=85 velocity=106 time=0
EXTRACT: note_on channel=8 note=47 velocity=0 time=0
EXTRACT: note_on channel=8 note=59 velocity=0 time=0
EXTRACT: note_on channel=4 note=67 velocity=0 time=0.07894725
EXTRACT: note_on channel=4 note=62 velocity=0 time=0
EXTRACT: note_on channel=4 note=59 velocity=0 time=0
EXTRACT: note_on channel=2 note=62 velocity=112 time=0.07368409999999999
EXTRACT: note_on channel=9 note=42 velocity=102 time=0.005263149999999999
EXTRACT: note_on channel=1 note=28 velocity=111 time=0
EXTRACT: note_on channel=4 note=67 velocity=76 time=0
EXTRACT: note_on channel=4 note=62 velocity=60 time=0
EXTRACT: note_on channel=4 note=59 velocity=85 time=0
EXTRACT: note_on channel=4 note=55 velocity=69 time=0
EXTRACT: note_on channel=4 note=47 velocity=90 time=0
EXTRACT: note_on channel=5 note=73 velocity=0 time=0
EXTRACT: note_on channel=5 note=85 velocity=0 time=0
EXTRACT: note_on channel=5 note=71 velocity=104 time=0
EXTRACT: note_on channel=5 note=83 velocity=111 time=0
EXTRACT: note_on channel=8 note=47 velocity=96 time=0
EXTRACT: note_on channel=8 note=59 velocity=118 time=0
EXTRACT: note_on channel=9 note=42 velocity=0 time=0.0526315
EXTRACT: note_on channel=4 note=67 velocity=0 time=0.02631575
EXTRACT: note_on channel=4 note=62 velocity=0 time=0
EXTRACT: note_on channel=4 note=59 velocity=0 time=0
EXTRACT: note_on channel=4 note=55 velocity=0 time=0
EXTRACT: note_on channel=4 note=47 velocity=0 time=0
EXTRACT: note_on channel=1 note=28 velocity=0 time=0.07894725
EXTRACT: note_on channel=5 note=71 velocity=0 time=0
EXTRACT: note_on channel=5 note=83 velocity=0 time=0
EXTRACT: note_on channel=5 note=81 velocity=112 time=0
EXTRACT: note_on channel=5 note=69 velocity=116 time=0
EXTRACT: note_on channel=8 note=47 velocity=0 time=0
EXTRACT: note_on channel=8 note=59 velocity=0 time=0
EXTRACT: note_on channel=2 note=40 velocity=0 time=0.15263134999999997
EXTRACT: note_on channel=2 note=62 velocity=0 time=0
EXTRACT: note_on channel=2 note=67 velocity=0 time=0
EXTRACT: note_on channel=2 note=62 velocity=0 time=0
EXTRACT: note_on channel=2 note=59 velocity=0 time=0
EXTRACT: note_on channel=2 note=62 velocity=0 time=0
EXTRACT: note_on channel=2 note=67 velocity=0 time=0
EXTRACT: note_on channel=2 note=67 velocity=0 time=0
EXTRACT: note_on channel=2 note=62 velocity=0 time=0
EXTRACT: note_on channel=2 note=57 velocity=119 time=0
EXTRACT: note_on channel=2 note=54 velocity=108 time=0
EXTRACT: note_on channel=9 note=42 velocity=100 time=0.005263149999999999
EXTRACT: note_on channel=9 note=36 velocity=120 time=0
EXTRACT: note_on channel=1 note=30 velocity=112 time=0
EXTRACT: note_on channel=4 note=64 velocity=106 time=0
EXTRACT: note_on channel=4 note=61 velocity=112 time=0
EXTRACT: note_on channel=4 note=57 velocity=88 time=0
EXTRACT: note_on channel=4 note=54 velocity=102 time=0
EXTRACT: note_on channel=6 note=59 velocity=0 time=0
EXTRACT: note_on channel=6 note=62 velocity=0 time=0
EXTRACT: note_on channel=6 note=67 velocity=0 time=0
EXTRACT: note_on channel=6 note=57 velocity=103 time=0
EXTRACT: note_on channel=6 note=61 velocity=110 time=0
EXTRACT: note_on channel=6 note=66 velocity=116 time=0
EXTRACT: note_on channel=7 note=64 velocity=100 time=0
EXTRACT: note_on channel=7 note=61 velocity=101 time=0
EXTRACT: note_on channel=7 note=57 velocity=96 time=0
EXTRACT: note_on channel=7 note=54 velocity=95 time=0
EXTRACT: note_on channel=8 note=45 velocity=95 time=0
EXTRACT: note_on channel=8 note=57 velocity=114 time=0
EXTRACT: note_on channel=3 note=62 velocity=0 time=0.005263149999999999
EXTRACT: note_on channel=9 note=42 velocity=0 time=0.04736835
EXTRACT: note_on channel=9 note=36 velocity=0 time=0
EXTRACT: note_on channel=8 note=45 velocity=0 time=0.02631575
EXTRACT: note_on channel=8 note=57 velocity=0 time=0
EXTRACT: note_on channel=9 note=42 velocity=65 time=0.07894725
EXTRACT: note_on channel=8 note=57 velocity=85 time=0
EXTRACT: note_on channel=8 note=69 velocity=126 time=0
EXTRACT: note_on channel=1 note=30 velocity=0 time=0.04736835
EXTRACT: note_on channel=9 note=42 velocity=0 time=0.005263149999999999
EXTRACT: note_on channel=1 note=30 velocity=127 time=0
EXTRACT: note_on channel=2 note=61 velocity=106 time=0.09999984999999999
EXTRACT: note_on channel=9 note=42 velocity=74 time=0.005263149999999999
EXTRACT: note_on channel=9 note=42 velocity=91 time=0
EXTRACT: note_on channel=4 note=64 velocity=0 time=0
EXTRACT: note_on channel=4 note=61 velocity=0 time=0
EXTRACT: note_on channel=4 note=57 velocity=0 time=0
EXTRACT: note_on channel=4 note=54 velocity=0 time=0
EXTRACT: note_on channel=7 note=64 velocity=0 time=0
EXTRACT: note_on channel=7 note=61 velocity=0 time=0
EXTRACT: note_on channel=7 note=57 velocity=0 time=0
EXTRACT: note_on channel=7 note=54 velocity=0 time=0
EXTRACT: note_on channel=3 note=61 velocity=118 time=0.005263149999999999
EXTRACT: note_on channel=9 note=42 velocity=0 time=0.04736835
EXTRACT: note_on channel=9 note=42 velocity=0 time=0
EXTRACT: note_on channel=1 note=30 velocity=0 time=0.04736835
EXTRACT: note_on channel=1 note=30 velocity=112 time=0.005263149999999999
EXTRACT: note_on channel=2 note=64 velocity=116 time=0.04736835
EXTRACT: note_on channel=9 note=42 velocity=99 time=0.005263149999999999
EXTRACT: note_on channel=4 note=64 velocity=91 time=0
EXTRACT: note_on channel=4 note=61 velocity=108 time=0
EXTRACT: note_on channel=4 note=57 velocity=117 time=0
EXTRACT: note_on channel=4 note=54 velocity=104 time=0
EXTRACT: note_on channel=7 note=64 velocity=95 time=0
EXTRACT: note_on channel=7 note=61 velocity=110 time=0
EXTRACT: note_on channel=7 note=57 velocity=75 time=0
EXTRACT: note_on channel=7 note=54 velocity=95 time=0
EXTRACT: note_on channel=9 note=42 velocity=0 time=0.0526315
EXTRACT: note_on channel=1 note=30 velocity=0 time=0.09999984999999999
EXTRACT: note_on channel=9 note=36 velocity=120 time=0.005263149999999999
EXTRACT: note_on channel=9 note=42 velocity=103 time=0
EXTRACT: note_on channel=9 note=69 velocity=62 time=0
EXTRACT: note_on channel=1 note=37 velocity=127 time=0
EXTRACT: note_on channel=4 note=64 velocity=0 time=0
EXTRACT: note_on channel=4 note=61 velocity=0 time=0
EXTRACT: note_on channel=4 note=57 velocity=0 time=0
EXTRACT: note_on channel=4 note=54 velocity=0 time=0
EXTRACT: note_on channel=7 note=64 velocity=0 time=0
EXTRACT: note_on channel=7 note=61 velocity=0 time=0
EXTRACT: note_on channel=7 note=57 velocity=0 time=0
EXTRACT: note_on channel=7 note=54 velocity=0 time=0
EXTRACT: note_on channel=8 note=57 velocity=0 time=0
EXTRACT: note_on channel=8 note=69 velocity=0 time=0
EXTRACT: note_on channel=8 note=52 velocity=92 time=0
EXTRACT: note_on channel=8 note=64 velocity=114 time=0
EXTRACT: note_on channel=3 note=61 velocity=0 time=0.005263149999999999
EXTRACT: note_on channel=9 note=36 velocity=0 time=0.04736835
EXTRACT: note_on channel=9 note=42 velocity=0 time=0
EXTRACT: note_on channel=9 note=69 velocity=0 time=0
EXTRACT: note_on channel=2 note=61 velocity=102 time=0.09999984999999999
EXTRACT: note_on channel=9 note=69 velocity=70 time=0.005263149999999999
EXTRACT: note_on channel=4 note=64 velocity=87 time=0
EXTRACT: note_on channel=4 note=61 velocity=51 time=0
EXTRACT: note_on channel=4 note=57 velocity=84 time=0
EXTRACT: note_on channel=4 note=54 velocity=79 time=0
EXTRACT: note_on channel=3 note=61 velocity=118 time=0.005263149999999999
EXTRACT: note_on channel=9 note=69 velocity=0 time=0.04736835
EXTRACT: note_on channel=1 note=37 velocity=0 time=0.02631575
EXTRACT: note_on channel=4 note=64 velocity=0 time=0
EXTRACT: note_on channel=4 note=61 velocity=0 time=0
EXTRACT: note_on channel=4 note=57 velocity=0 time=0
EXTRACT: note_on channel=4 note=54 velocity=0 time=0
EXTRACT: note_on channel=9 note=42 velocity=91 time=0.07894725
EXTRACT: note_on channel=1 note=42 velocity=110 time=0
EXTRACT: note_on channel=4 note=64 velocity=62 time=0
EXTRACT: note_on channel=4 note=61 velocity=60 time=0
EXTRACT: note_on channel=4 note=57 velocity=52 time=0
EXTRACT: note_on channel=9 note=42 velocity=0 time=0.0526315
EXTRACT: note_on channel=4 note=64 velocity=0 time=0.02631575
EXTRACT: note_on channel=4 note=61 velocity=0 time=0
EXTRACT: note_on channel=4 note=57 velocity=0 time=0
EXTRACT: note_on channel=2 note=57 velocity=127 time=0.07368409999999999
EXTRACT: note_on channel=9 note=69 velocity=62 time=0.005263149999999999
EXTRACT: note_on channel=4 note=64 velocity=83 time=0
EXTRACT: note_on channel=4 note=61 velocity=58 time=0
EXTRACT: note_on channel=4 note=57 velocity=85 time=0
EXTRACT: note_on channel=4 note=54 velocity=88 time=0
EXTRACT: note_on channel=5 note=81 velocity=0 time=0
EXTRACT: note_on channel=5 note=69 velocity=0 time=0
EXTRACT: note_on channel=3 note=61 velocity=0 time=0.005263149999999999
EXTRACT: note_on channel=9 note=69 velocity=0 time=0.04736835
EXTRACT: note_on channel=1 note=42 velocity=0 time=0.02631575
EXTRACT: note_on channel=4 note=64 velocity=0 time=0
EXTRACT: note_on channel=4 note=61 velocity=0 time=0
EXTRACT: note_on channel=4 note=57 velocity=0 time=0
EXTRACT: note_on channel=4 note=54 velocity=0 time=0
EXTRACT: note_on channel=2 note=61 velocity=117 time=0.07368409999999999
EXTRACT: note_on channel=9 note=36 velocity=120 time=0.005263149999999999
EXTRACT: note_on channel=9 note=42 velocity=98 time=0
EXTRACT: note_on channel=1 note=37 velocity=118 time=0
EXTRACT: note_on channel=4 note=64 velocity=67 time=0
EXTRACT: note_on channel=4 note=61 velocity=56 time=0
EXTRACT: note_on channel=4 note=57 velocity=55 time=0
EXTRACT: note_on channel=5 note=78 velocity=116 time=0
EXTRACT: note_on channel=5 note=90 velocity=105 time=0
EXTRACT: note_on channel=3 note=61 velocity=110 time=0.005263149999999999
EXTRACT: note_on channel=9 note=36 velocity=0 time=0.04736835
EXTRACT: note_on channel=9 note=42 velocity=0 time=0
EXTRACT: note_on channel=4 note=64 velocity=0 time=0.02631575
EXTRACT: note_on channel=4 note=61 velocity=0 time=0
EXTRACT: note_on channel=4 note=57 velocity=0 time=0
EXTRACT: note_on channel=2 note=64 velocity=117 time=0.07368409999999999
EXTRACT: note_on channel=9 note=69 velocity=73 time=0.005263149999999999
EXTRACT: note_on channel=5 note=78 velocity=0 time=0
EXTRACT: note_on channel=5 note=90 velocity=0 time=0
EXTRACT: note_on channel=8 note=52 velocity=0 time=0
EXTRACT: note_on channel=8 note=64 velocity=0 time=0
EXTRACT: note_on channel=8 note=59 velocity=115 time=0
EXTRACT: note_on channel=9 note=69 velocity=0 time=0.0526315
EXTRACT: note_on channel=2 note=66 velocity=127 time=0.09999984999999999
EXTRACT: note_on channel=9 note=36 velocity=120 time=0.005263149999999999
EXTRACT: note_on channel=9 note=42 velocity=91 time=0
EXTRACT: note_on channel=9 note=69 velocity=78 time=0
EXTRACT: note_on channel=4 note=64 velocity=108 time=0
EXTRACT: note_on channel=4 note=61 velocity=86 time=0
EXTRACT: note_on channel=4 note=57 velocity=113 time=0
EXTRACT: note_on channel=4 note=54 velocity=92 time=0
EXTRACT: note_on channel=7 note=64 velocity=104 time=0
EXTRACT: note_on channel=7 note=61 velocity=88 time=0
EXTRACT: note_on channel=7 note=57 velocity=98 time=0
EXTRACT: note_on channel=7 note=54 velocity=79 time=0
EXTRACT: note_on channel=8 note=59 velocity=0 time=0
EXTRACT: note_on channel=8 note=59 velocity=127 time=0
EXTRACT: note_on channel=9 note=36 velocity=0 time=0.0526315
EXTRACT: note_on channel=9 note=42 velocity=0 time=0
EXTRACT: note_on channel=9 note=69 velocity=0 time=0
EXTRACT: note_on channel=1 note=37 velocity=0 time=0.04736835
EXTRACT: note_on channel=1 note=42 velocity=121 time=0.005263149999999999
EXTRACT: note_on channel=2 note=69 velocity=113 time=0.04736835
EXTRACT: note_on channel=4 note=64 velocity=0 time=0.005263149999999999
EXTRACT: note_on channel=4 note=61 velocity=0 time=0
EXTRACT: note_on channel=4 note=57 velocity=0 time=0
EXTRACT: note_on channel=4 note=54 velocity=0 time=0
EXTRACT: note_on channel=5 note=76 velocity=112 time=0
EXTRACT: note_on channel=5 note=88 velocity=117 time=0
EXTRACT: note_on channel=7 note=64 velocity=0 time=0
EXTRACT: note_on channel=7 note=61 velocity=0 time=0
EXTRACT: note_on channel=7 note=57 velocity=0 time=0
EXTRACT: note_on channel=7 note=54 velocity=0 time=0
EXTRACT: note_on channel=8 note=59 velocity=0 time=0
EXTRACT: note_on channel=8 note=59 velocity=114 time=0
EXTRACT: note_on channel=9 note=40 velocity=127 time=0.1578945
EXTRACT: note_on channel=9 note=42 velocity=110 time=0
EXTRACT: note_on channel=9 note=69 velocity=66 time=0
EXTRACT: note_on channel=5 note=76 velocity=0 time=0
EXTRACT: note_on channel=5 note=88 velocity=0 time=0
EXTRACT: note_on channel=8 note=59 velocity=0 time=0
EXTRACT: note_on channel=8 note=64 velocity=114 time=0
EXTRACT: note_on channel=9 note=40 velocity=0 time=0.0526315
EXTRACT: note_on channel=9 note=42 velocity=0 time=0
EXTRACT: note_on channel=9 note=69 velocity=0 time=0
EXTRACT: note_on channel=4 note=64 velocity=48 time=0.105263
EXTRACT: note_on channel=4 note=61 velocity=57 time=0
EXTRACT: note_on channel=4 note=57 velocity=55 time=0
EXTRACT: note_on channel=1 note=42 velocity=0 time=0.04736835
EXTRACT: note_on channel=1 note=49 velocity=110 time=0.005263149999999999
EXTRACT: note_on channel=4 note=64 velocity=0 time=0.02631575
EXTRACT: note_on channel=4 note=61 velocity=0 time=0
EXTRACT: note_on channel=4 note=57 velocity=0 time=0
EXTRACT: note_on channel=9 note=36 velocity=90 time=0.07894725
EXTRACT: note_on channel=9 note=42 velocity=96 time=0
EXTRACT: note_on channel=4 note=64 velocity=72 time=0
EXTRACT: note_on channel=4 note=61 velocity=60 time=0
EXTRACT: note_on channel=4 note=57 velocity=64 time=0
EXTRACT: note_on channel=4 note=54 velocity=81 time=0
EXTRACT: note_on channel=5 note=86 velocity=108 time=0
EXTRACT: note_on channel=5 note=74 velocity=113 time=0
EXTRACT: pitchwheel channel=8 pitch=1365 time=0
EXTRACT: note_on channel=3 note=61 velocity=117 time=0.005263149999999999
EXTRACT: note_on channel=9 note=36 velocity=0 time=0.04736835
EXTRACT: note_on channel=9 note=42 velocity=0 time=0
EXTRACT: note_on channel=4 note=64 velocity=0 time=0.02631575
EXTRACT: note_on channel=4 note=61 velocity=0 time=0
EXTRACT: note_on channel=4 note=57 velocity=0 time=0
EXTRACT: note_on channel=4 note=54 velocity=0 time=0
EXTRACT: note_on channel=9 note=40 velocity=127 time=0.07894725
EXTRACT: note_on channel=5 note=86 velocity=0 time=0
EXTRACT: note_on channel=5 note=74 velocity=0 time=0
EXTRACT: note_on channel=9 note=40 velocity=0 time=0.0526315
EXTRACT: note_on channel=1 note=49 velocity=0 time=0.09999984999999999
EXTRACT: note_on channel=2 note=57 velocity=0 time=0
EXTRACT: note_on channel=2 note=54 velocity=0 time=0
EXTRACT: note_on channel=2 note=61 velocity=0 time=0
EXTRACT: note_on channel=2 note=64 velocity=0 time=0
EXTRACT: note_on channel=2 note=61 velocity=0 time=0
EXTRACT: note_on channel=2 note=57 velocity=0 time=0
EXTRACT: note_on channel=2 note=61 velocity=0 time=0
EXTRACT: note_on channel=2 note=64 velocity=0 time=0
EXTRACT: note_on channel=2 note=66 velocity=0 time=0
EXTRACT: note_on channel=2 note=69 velocity=0 time=0
EXTRACT: note_on channel=2 note=47 velocity=105 time=0
EXTRACT: note_on channel=9 note=49 velocity=100 time=0.005263149999999999
EXTRACT: note_on channel=9 note=36 velocity=120 time=0
EXTRACT: note_on channel=1 note=35 velocity=117 time=0
EXTRACT: note_on channel=4 note=66 velocity=109 time=0
EXTRACT: note_on channel=4 note=62 velocity=88 time=0
EXTRACT: note_on channel=4 note=59 velocity=102 time=0
EXTRACT: note_on channel=4 note=54 velocity=97 time=0
EXTRACT: note_on channel=4 note=47 velocity=88 time=0
EXTRACT: note_on channel=6 note=57 velocity=0 time=0
EXTRACT: note_on channel=6 note=61 velocity=0 time=0
EXTRACT: note_on channel=6 note=66 velocity=0 time=0
EXTRACT: note_on channel=7 note=66 velocity=86 time=0
EXTRACT: note_on channel=7 note=62 velocity=102 time=0
EXTRACT: note_on channel=7 note=59 velocity=86 time=0
EXTRACT: note_on channel=7 note=54 velocity=112 time=0
EXTRACT: note_on channel=7 note=47 velocity=95 time=0
EXTRACT: note_on channel=8 note=64 velocity=0 time=0
EXTRACT: pitchwheel channel=8 pitch=0 time=0
EXTRACT: note_on channel=8 note=66 velocity=118 time=0
EXTRACT: note_on channel=3 note=61 velocity=0 time=0.005263149999999999
EXTRACT: note_on channel=3 note=61 velocity=0 time=0
EXTRACT: note_on channel=9 note=49 velocity=0 time=0.04736835
EXTRACT: note_on channel=9 note=36 velocity=0 time=0
EXTRACT: note_on channel=1 note=35 velocity=0 time=0.09999984999999999
EXTRACT: note_on channel=1 note=35 velocity=118 time=0.005263149999999999
EXTRACT: note_on channel=2 note=62 velocity=126 time=0.15263134999999997
EXTRACT: note_on channel=9 note=42 velocity=102 time=0.005263149999999999
EXTRACT: note_on channel=1 note=35 velocity=0 time=0
EXTRACT: note_on channel=4 note=66 velocity=0 time=0
EXTRACT: note_on channel=4 note=62 velocity=0 time=0
EXTRACT: note_on channel=4 note=59 velocity=0 time=0
EXTRACT: note_on channel=4 note=54 velocity=0 time=0
EXTRACT: note_on channel=4 note=47 velocity=0 time=0
EXTRACT: note_on channel=7 note=66 velocity=0 time=0
EXTRACT: note_on channel=7 note=62 velocity=0 time=0
EXTRACT: note_on channel=7 note=59 velocity=0 time=0
EXTRACT: note_on channel=7 note=54 velocity=0 time=0
EXTRACT: note_on channel=7 note=47 velocity=0 time=0
EXTRACT: note_on channel=3 note=62 velocity=105 time=0.005263149999999999
EXTRACT: note_on channel=9 note=42 velocity=0 time=0.04736835
EXTRACT: note_on channel=2 note=66 velocity=118 time=0.09999984999999999
EXTRACT: note_on channel=1 note=42 velocity=112 time=0.005263149999999999
EXTRACT: note_on channel=4 note=66 velocity=98 time=0
EXTRACT: note_on channel=4 note=62 velocity=91 time=0
EXTRACT: note_on channel=4 note=59 velocity=102 time=0
EXTRACT: note_on channel=4 note=54 velocity=107 time=0
EXTRACT: note_on channel=4 note=47 velocity=91 time=0
EXTRACT: note_on channel=7 note=66 velocity=78 time=0
EXTRACT: note_on channel=7 note=62 velocity=96 time=0
EXTRACT: note_on channel=7 note=59 velocity=106 time=0
EXTRACT: note_on channel=7 note=54 velocity=92 time=0
EXTRACT: note_on channel=7 note=47 velocity=111 time=0
EXTRACT: note_on channel=9 note=42 velocity=100 time=0.1578945
EXTRACT: note_on channel=9 note=40 velocity=127 time=0
EXTRACT: note_on channel=9 note=69 velocity=62 time=0
EXTRACT: note_on channel=1 note=42 velocity=0 time=0
EXTRACT: note_on channel=4 note=66 velocity=0 time=0
EXTRACT: note_on channel=4 note=62 velocity=0 time=0
EXTRACT: note_on channel=4 note=59 velocity=0 time=0
EXTRACT: note_on channel=4 note=54 velocity=0 time=0
EXTRACT: note_on channel=4 note=47 velocity=0 time=0
EXTRACT: note_on channel=7 note=66 velocity=0 time=0
EXTRACT: note_on channel=7 note=62 velocity=0 time=0
EXTRACT: note_on channel=7 note=59 velocity=0 time=0
EXTRACT: note_on channel=7 note=54 velocity=0 time=0
EXTRACT: note_on channel=7 note=47 velocity=0 time=0
EXTRACT: note_on channel=8 note=66 velocity=0 time=0
EXTRACT: note_on channel=3 note=62 velocity=0 time=0.005263149999999999
EXTRACT: note_on channel=9 note=42 velocity=0 time=0.04736835
EXTRACT: note_on channel=9 note=40 velocity=0 time=0
EXTRACT: note_on channel=9 note=69 velocity=0 time=0
EXTRACT: note_on channel=2 note=62 velocity=103 time=0.09999984999999999
EXTRACT: note_on channel=9 note=69 velocity=70 time=0.005263149999999999
EXTRACT: note_on channel=1 note=42 velocity=122 time=0
EXTRACT: note_on channel=4 note=66 velocity=91 time=0
EXTRACT: note_on channel=4 note=62 velocity=69 time=0
EXTRACT: note_on channel=4 note=59 velocity=52 time=0
EXTRACT: note_on channel=4 note=54 velocity=72 time=0
EXTRACT: note_on channel=4 note=47 velocity=88 time=0
EXTRACT: note_on channel=3 note=62 velocity=125 time=0.005263149999999999
EXTRACT: note_on channel=9 note=69 velocity=0 time=0.04736835
EXTRACT: note_on channel=4 note=66 velocity=0 time=0.02631575
EXTRACT: note_on channel=4 note=62 velocity=0 time=0
EXTRACT: note_on channel=4 note=59 velocity=0 time=0
EXTRACT: note_on channel=4 note=54 velocity=0 time=0
EXTRACT: note_on channel=4 note=47 velocity=0 time=0
EXTRACT: note_on channel=1 note=42 velocity=0 time=0.07368409999999999
EXTRACT: note_on channel=9 note=42 velocity=104 time=0.005263149999999999
EXTRACT: note_on channel=1 note=38 velocity=126 time=0
EXTRACT: note_on channel=4 note=66 velocity=58 time=0
EXTRACT: note_on channel=4 note=62 velocity=42 time=0
EXTRACT: note_on channel=4 note=59 velocity=55 time=0
EXTRACT: note_on channel=8 note=66 velocity=125 time=0
EXTRACT: note_on channel=3 note=62 velocity=0 time=0.005263149999999999
EXTRACT: note_on channel=3 note=61 velocity=126 time=0
EXTRACT: note_on channel=9 note=42 velocity=0 time=0.04736835
EXTRACT: note_on channel=4 note=66 velocity=0 time=0.02631575
EXTRACT: note_on channel=4 note=62 velocity=0 time=0
EXTRACT: note_on channel=4 note=59 velocity=0 time=0
EXTRACT: note_on channel=2 note=59 velocity=123 time=0.07368409999999999
EXTRACT: note_on channel=9 note=69 velocity=62 time=0.005263149999999999
EXTRACT: note_on channel=1 note=38 velocity=0 time=0
EXTRACT: note_on channel=4 note=66 velocity=52 time=0
EXTRACT: note_on channel=4 note=62 velocity=85 time=0
EXTRACT: note_on channel=4 note=59 velocity=70 time=0
EXTRACT: note_on channel=4 note=54 velocity=51 time=0
EXTRACT: note_on channel=4 note=47 velocity=79 time=0
EXTRACT: note_on channel=8 note=66 velocity=0 time=0
EXTRACT: note_on channel=8 note=66 velocity=119 time=0
EXTRACT: note_on channel=3 note=61 velocity=0 time=0.005263149999999999
EXTRACT: note_on channel=3 note=59 velocity=116 time=0
EXTRACT: note_on channel=9 note=69 velocity=0 time=0.04736835
EXTRACT: note_on channel=4 note=66 velocity=0 time=0.02631575
EXTRACT: note_on channel=4 note=62 velocity=0 time=0
EXTRACT: note_on channel=4 note=59 velocity=0 time=0
EXTRACT: note_on channel=4 note=54 velocity=0 time=0
EXTRACT: note_on channel=4 note=47 velocity=0 time=0
EXTRACT: note_on channel=9 note=36 velocity=120 time=0.07894725
EXTRACT: note_on channel=9 note=42 velocity=101 time=0
EXTRACT: note_on channel=1 note=35 velocity=123 time=0
EXTRACT: note_on channel=4 note=66 velocity=40 time=0
EXTRACT: note_on channel=4 note=62 velocity=43 time=0
EXTRACT: note_on channel=4 note=59 velocity=39 time=0
EXTRACT: note_on channel=8 note=66 velocity=0 time=0
EXTRACT: note_on channel=8 note=64 velocity=120 time=0
EXTRACT: note_on channel=3 note=59 velocity=0 time=0.005263149999999999
EXTRACT: note_on channel=9 note=36 velocity=0 time=0.04736835
EXTRACT: note_on channel=9 note=42 velocity=0 time=0
EXTRACT: note_on channel=4 note=66 velocity=0 time=0.02631575
EXTRACT: note_on channel=4 note=62 velocity=0 time=0
EXTRACT: note_on channel=4 note=59 velocity=0 time=0
EXTRACT: note_on channel=2 note=62 velocity=113 time=0.07368409999999999
EXTRACT: note_on channel=9 note=69 velocity=73 time=0.005263149999999999
EXTRACT: note_on channel=3 note=62 velocity=104 time=0.005263149999999999
EXTRACT: note_on channel=9 note=69 velocity=0 time=0.04736835
EXTRACT: note_on channel=9 note=42 velocity=101 time=0.105263
EXTRACT: note_on channel=9 note=69 velocity=78 time=0
EXTRACT: note_on channel=1 note=35 velocity=0 time=0
EXTRACT: note_on channel=4 note=66 velocity=96 time=0
EXTRACT: note_on channel=4 note=62 velocity=117 time=0
EXTRACT: note_on channel=4 note=59 velocity=95 time=0
EXTRACT: note_on channel=4 note=54 velocity=114 time=0
EXTRACT: note_on channel=4 note=47 velocity=116 time=0
EXTRACT: note_on channel=7 note=66 velocity=100 time=0
EXTRACT: note_on channel=7 note=62 velocity=95 time=0
EXTRACT: note_on channel=7 note=59 velocity=75 time=0
EXTRACT: note_on channel=7 note=54 velocity=102 time=0
EXTRACT: note_on channel=7 note=47 velocity=93 time=0
EXTRACT: note_on channel=8 note=64 velocity=0 time=0
EXTRACT: note_on channel=8 note=66 velocity=115 time=0
EXTRACT: note_on channel=3 note=62 velocity=0 time=0.005263149999999999
EXTRACT: note_on channel=9 note=42 velocity=0 time=0.04736835
EXTRACT: note_on channel=9 note=69 velocity=0 time=0
EXTRACT: note_on channel=2 note=66 velocity=105 time=0.09999984999999999
EXTRACT: note_on channel=4 note=66 velocity=0 time=0.005263149999999999
EXTRACT: note_on channel=4 note=62 velocity=0 time=0
EXTRACT: note_on channel=4 note=59 velocity=0 time=0
EXTRACT: note_on channel=4 note=54 velocity=0 time=0
EXTRACT: note_on channel=4 note=47 velocity=0 time=0
EXTRACT: note_on channel=7 note=66 velocity=0 time=0
EXTRACT: note_on channel=7 note=62 velocity=0 time=0
EXTRACT: note_on channel=7 note=59 velocity=0 time=0
EXTRACT: note_on channel=7 note=54 velocity=0 time=0
EXTRACT: note_on channel=7 note=47 velocity=0 time=0
EXTRACT: note_on channel=3 note=62 velocity=108 time=0.005263149999999999
EXTRACT: note_on channel=2 note=66 velocity=127 time=0.14736819999999998
EXTRACT: note_on channel=9 note=40 velocity=127 time=0.005263149999999999
EXTRACT: note_on channel=9 note=42 velocity=106 time=0
EXTRACT: note_on channel=9 note=69 velocity=66 time=0
EXTRACT: note_on channel=8 note=66 velocity=0 time=0
EXTRACT: note_on channel=8 note=62 velocity=123 time=0
EXTRACT: note_on channel=9 note=40 velocity=0 time=0.0526315
EXTRACT: note_on channel=9 note=42 velocity=0 time=0
EXTRACT: note_on channel=9 note=69 velocity=0 time=0
EXTRACT: note_on channel=4 note=66 velocity=46 time=0.105263
EXTRACT: note_on channel=4 note=62 velocity=40 time=0
EXTRACT: note_on channel=4 note=59 velocity=65 time=0
EXTRACT: note_on channel=8 note=62 velocity=0 time=0
EXTRACT: note_on channel=4 note=66 velocity=0 time=0.07894725
EXTRACT: note_on channel=4 note=62 velocity=0 time=0
EXTRACT: note_on channel=4 note=59 velocity=0 time=0
EXTRACT: note_on channel=2 note=62 velocity=116 time=0.07368409999999999
EXTRACT: note_on channel=9 note=42 velocity=106 time=0.005263149999999999
EXTRACT: note_on channel=1 note=30 velocity=108 time=0
EXTRACT: note_on channel=4 note=66 velocity=71 time=0
EXTRACT: note_on channel=4 note=62 velocity=64 time=0
EXTRACT: note_on channel=4 note=59 velocity=64 time=0
EXTRACT: note_on channel=4 note=54 velocity=76 time=0
EXTRACT: note_on channel=4 note=47 velocity=80 time=0
EXTRACT: note_on channel=8 note=61 velocity=125 time=0
EXTRACT: note_on channel=9 note=42 velocity=0 time=0.0526315
EXTRACT: note_on channel=4 note=66 velocity=0 time=0.02631575
EXTRACT: note_on channel=4 note=62 velocity=0 time=0
EXTRACT: note_on channel=4 note=59 velocity=0 time=0
EXTRACT: note_on channel=4 note=54 velocity=0 time=0
EXTRACT: note_on channel=4 note=47 velocity=0 time=0
EXTRACT: note_on channel=1 note=30 velocity=0 time=0.07894725
EXTRACT: note_on channel=2 note=47 velocity=0 time=0.15263134999999997
EXTRACT: note_on channel=2 note=62 velocity=0 time=0
EXTRACT: note_on channel=2 note=66 velocity=0 time=0
EXTRACT: note_on channel=2 note=62 velocity=0 time=0
EXTRACT: note_on channel=2 note=59 velocity=0 time=0
EXTRACT: note_on channel=2 note=62 velocity=0 time=0
EXTRACT: note_on channel=2 note=66 velocity=0 time=0
EXTRACT: note_on channel=2 note=66 velocity=0 time=0
EXTRACT: note_on channel=2 note=47 velocity=108 time=0
EXTRACT: note_on channel=9 note=42 velocity=106 time=0.005263149999999999
EXTRACT: note_on channel=9 note=36 velocity=120 time=0
EXTRACT: note_on channel=1 note=35 velocity=116 time=0
EXTRACT: note_on channel=4 note=66 velocity=93 time=0
EXTRACT: note_on channel=4 note=62 velocity=107 time=0
EXTRACT: note_on channel=4 note=59 velocity=108 time=0
EXTRACT: note_on channel=4 note=54 velocity=109 time=0
EXTRACT: note_on channel=4 note=47 velocity=106 time=0
EXTRACT: note_on channel=7 note=66 velocity=81 time=0
EXTRACT: note_on channel=7 note=62 velocity=108 time=0
EXTRACT: note_on channel=7 note=59 velocity=87 time=0
EXTRACT: note_on channel=7 note=54 velocity=111 time=0
EXTRACT: note_on channel=7 note=47 velocity=107 time=0
EXTRACT: note_on channel=8 note=61 velocity=0 time=0
EXTRACT: note_on channel=8 note=61 velocity=115 time=0
EXTRACT: note_on channel=3 note=62 velocity=0 time=0.005263149999999999
EXTRACT: note_on channel=9 note=42 velocity=0 time=0.04736835
EXTRACT: note_on channel=9 note=36 velocity=0 time=0
EXTRACT: note_on channel=1 note=35 velocity=0 time=0.18421025
EXTRACT: note_on channel=2 note=62 velocity=0 time=0.07368409999999999
EXTRACT: note_on channel=2 note=62 velocity=106 time=0
EXTRACT: note_on channel=9 note=42 velocity=98 time=0.005263149999999999
EXTRACT: note_on channel=4 note=66 velocity=0 time=0
EXTRACT: note_on channel=4 note=62 velocity=0 time=0
EXTRACT: note_on channel=4 note=59 velocity=0 time=0
EXTRACT: note_on channel=4 note=54 velocity=0 time=0
EXTRACT: note_on channel=4 note=47 velocity=0 time=0
EXTRACT: note_on channel=7 note=66 velocity=0 time=0
EXTRACT: note_on channel=7 note=62 velocity=0 time=0
EXTRACT: note_on channel=7 note=59 velocity=0 time=0
EXTRACT: note_on channel=7 note=54 velocity=0 time=0
EXTRACT: note_on channel=7 note=47 velocity=0 time=0
EXTRACT: note_on channel=3 note=62 velocity=108 time=0.005263149999999999
EXTRACT: note_on channel=9 note=42 velocity=0 time=0.04736835
EXTRACT: note_on channel=2 note=66 velocity=107 time=0.09999984999999999
EXTRACT: note_on channel=1 note=35 velocity=120 time=0.005263149999999999
EXTRACT: note_on channel=4 note=66 velocity=104 time=0
EXTRACT: note_on channel=4 note=62 velocity=90 time=0
EXTRACT: note_on channel=4 note=59 velocity=115 time=0
EXTRACT: note_on channel=4 note=54 velocity=92 time=0
EXTRACT: note_on channel=4 note=47 velocity=108 time=0
EXTRACT: note_on channel=7 note=66 velocity=111 time=0
EXTRACT: note_on channel=7 note=62 velocity=79 time=0
EXTRACT: note_on channel=7 note=59 velocity=89 time=0
EXTRACT: note_on channel=7 note=54 velocity=112 time=0
EXTRACT: note_on channel=7 note=47 velocity=99 time=0
EXTRACT: note_on channel=9 note=42 velocity=96 time=0.1578945
EXTRACT: note_on channel=9 note=40 velocity=127 time=0
EXTRACT: note_on channel=9 note=69 velocity=62 time=0
EXTRACT: note_on channel=1 note=35 velocity=0 time=0
EXTRACT: note_on channel=4 note=66 velocity=0 time=0
EXTRACT: note_on channel=4 note=62 velocity=0 time=0
EXTRACT: note_on channel=4 note=59 velocity=0 time=0
EXTRACT: note_on channel=4 note=54 velocity=0 time=0
EXTRACT: note_on channel=4 note=47 velocity=0 time=0
EXTRACT: note_on channel=7 note=66 velocity=0 time=0
EXTRACT: note_on channel=7 note=62 velocity=0 time=0
EXTRACT: note_on channel=7 note=59 velocity=0 time=0
EXTRACT: note_on channel=7 note=54 velocity=0 time=0
EXTRACT: note_on channel=7 note=47 velocity=0 time=0
EXTRACT: note_on channel=3 note=62 velocity=0 time=0.005263149999999999
EXTRACT: note_on channel=9 note=42 velocity=0 time=0.04736835
EXTRACT: note_on channel=9 note=40 velocity=0 time=0
EXTRACT: note_on channel=9 note=69 velocity=0 time=0
EXTRACT: note_on channel=2 note=62 velocity=121 time=0.09999984999999999
EXTRACT: note_on channel=9 note=69 velocity=70 time=0.005263149999999999
EXTRACT: note_on channel=4 note=66 velocity=86 time=0
EXTRACT: note_on channel=4 note=62 velocity=78 time=0
EXTRACT: note_on channel=4 note=59 velocity=62 time=0
EXTRACT: note_on channel=4 note=54 velocity=80 time=0
EXTRACT: note_on channel=4 note=47 velocity=74 time=0
EXTRACT: note_on channel=3 note=62 velocity=109 time=0.005263149999999999
EXTRACT: note_on channel=9 note=69 velocity=0 time=0.04736835
EXTRACT: note_on channel=4 note=66 velocity=0 time=0.02631575
EXTRACT: note_on channel=4 note=62 velocity=0 time=0
EXTRACT: note_on channel=4 note=59 velocity=0 time=0
EXTRACT: note_on channel=4 note=54 velocity=0 time=0
EXTRACT: note_on channel=4 note=47 velocity=0 time=0
EXTRACT: note_on channel=9 note=42 velocity=92 time=0.07894725
EXTRACT: note_on channel=4 note=66 velocity=69 time=0
EXTRACT: note_on channel=4 note=62 velocity=50 time=0
EXTRACT: note_on channel=4 note=59 velocity=43 time=0
EXTRACT: note_on channel=3 note=62 velocity=0 time=0.005263149999999999
EXTRACT: note_on channel=3 note=61 velocity=106 time=0
EXTRACT: note_on channel=9 note=42 velocity=0 time=0.04736835
EXTRACT: note_on channel=4 note=66 velocity=0 time=0.02631575
EXTRACT: note_on channel=4 note=62 velocity=0 time=0
EXTRACT: note_on channel=4 note=59 velocity=0 time=0
EXTRACT: note_on channel=2 note=59 velocity=121 time=0.07368409999999999
EXTRACT: note_on channel=9 note=69 velocity=62 time=0.005263149999999999
EXTRACT: note_on channel=4 note=66 velocity=52 time=0
EXTRACT: note_on channel=4 note=62 velocity=85 time=0
EXTRACT: note_on channel=4 note=59 velocity=91 time=0
EXTRACT: note_on channel=4 note=54 velocity=72 time=0
EXTRACT: note_on channel=4 note=47 velocity=73 time=0
EXTRACT: note_on channel=3 note=61 velocity=0 time=0.005263149999999999
EXTRACT: note_on channel=3 note=59 velocity=106 time=0
EXTRACT: note_on channel=9 note=69 velocity=0 time=0.04736835
EXTRACT: note_on channel=4 note=66 velocity=0 time=0.02631575
EXTRACT: note_on channel=4 note=62 velocity=0 time=0
EXTRACT: note_on channel=4 note=59 velocity=0 time=0
EXTRACT: note_on channel=4 note=54 velocity=0 time=0
EXTRACT: note_on channel=4 note=47 velocity=0 time=0
EXTRACT: note_on channel=9 note=36 velocity=120 time=0.07894725
EXTRACT: note_on channel=9 note=42 velocity=99 time=0
EXTRACT: note_on channel=4 note=66 velocity=41 time=0
EXTRACT: note_on channel=4 note=62 velocity=65 time=0
EXTRACT: note_on channel=4 note=59 velocity=62 time=0
EXTRACT: note_on channel=8 note=61 velocity=0 time=0
EXTRACT: note_on channel=8 note=59 velocity=127 time=0
EXTRACT: note_on channel=3 note=59 velocity=0 time=0.005263149999999999
EXTRACT: note_on channel=9 note=36 velocity=0 time=0.04736835
EXTRACT: note_on channel=9 note=42 velocity=0 time=0
EXTRACT: note_on channel=4 note=66 velocity=0 time=0.02631575
EXTRACT: note_on channel=4 note=62 velocity=0 time=0
EXTRACT: note_on channel=4 note=59 velocity=0 time=0
EXTRACT: note_on channel=2 note=62 velocity=108 time=0.07368409999999999
EXTRACT: note_on channel=9 note=69 velocity=73 time=0.005263149999999999
EXTRACT: note_on channel=3 note=62 velocity=105 time=0.005263149999999999
EXTRACT: note_on channel=9 note=69 velocity=0 time=0.04736835
EXTRACT: note_on channel=9 note=42 velocity=92 time=0.105263
EXTRACT: note_on channel=9 note=69 velocity=78 time=0
EXTRACT: note_on channel=1 note=35 velocity=121 time=0
EXTRACT: note_on channel=4 note=66 velocity=112 time=0
EXTRACT: note_on channel=4 note=62 velocity=112 time=0
EXTRACT: note_on channel=4 note=59 velocity=115 time=0
EXTRACT: note_on channel=4 note=54 velocity=95 time=0
EXTRACT: note_on channel=4 note=47 velocity=109 time=0
EXTRACT: note_on channel=7 note=66 velocity=107 time=0
EXTRACT: note_on channel=7 note=62 velocity=98 time=0
EXTRACT: note_on channel=7 note=59 velocity=82 time=0
EXTRACT: note_on channel=7 note=54 velocity=97 time=0
EXTRACT: note_on channel=7 note=47 velocity=88 time=0
EXTRACT: note_on channel=8 note=59 velocity=0 time=0
EXTRACT: note_on channel=8 note=61 velocity=125 time=0
EXTRACT: note_on channel=3 note=62 velocity=0 time=0.005263149999999999
EXTRACT: note_on channel=9 note=42 velocity=0 time=0.04736835
EXTRACT: note_on channel=9 note=69 velocity=0 time=0
EXTRACT: note_on channel=2 note=66 velocity=109 time=0.09999984999999999
EXTRACT: note_on channel=1 note=35 velocity=0 time=0.005263149999999999
EXTRACT: note_on channel=4 note=66 velocity=0 time=0
EXTRACT: note_on channel=4 note=62 velocity=0 time=0
EXTRACT: note_on channel=4 note=59 velocity=0 time=0
EXTRACT: note_on channel=4 note=54 velocity=0 time=0
EXTRACT: note_on channel=4 note=47 velocity=0 time=0
EXTRACT: note_on channel=7 note=66 velocity=0 time=0
EXTRACT: note_on channel=7 note=62 velocity=0 time=0
EXTRACT: note_on channel=7 note=59 velocity=0 time=0
EXTRACT: note_on channel=7 note=54 velocity=0 time=0
EXTRACT: note_on channel=7 note=47 velocity=0 time=0
EXTRACT: note_on channel=3 note=62 velocity=121 time=0.005263149999999999
EXTRACT: note_on channel=2 note=66 velocity=117 time=0.14736819999999998
EXTRACT: note_on channel=9 note=40 velocity=127 time=0.005263149999999999
EXTRACT: note_on channel=9 note=42 velocity=92 time=0
EXTRACT: note_on channel=9 note=69 velocity=66 time=0
EXTRACT: note_on channel=8 note=61 velocity=0 time=0
EXTRACT: note_on channel=8 note=62 velocity=115 time=0
EXTRACT: note_on channel=9 note=40 velocity=0 time=0.0526315
EXTRACT: note_on channel=9 note=42 velocity=0 time=0
EXTRACT: note_on channel=9 note=69 velocity=0 time=0
EXTRACT: note_on channel=4 note=66 velocity=49 time=0.105263
EXTRACT: note_on channel=4 note=62 velocity=56 time=0
EXTRACT: note_on channel=4 note=59 velocity=55 time=0
EXTRACT: note_on channel=4 note=66 velocity=0 time=0.07894725
EXTRACT: note_on channel=4 note=62 velocity=0 time=0
EXTRACT: note_on channel=4 note=59 velocity=0 time=0
EXTRACT: note_on channel=2 note=62 velocity=126 time=0.07368409999999999
EXTRACT: note_on channel=9 note=36 velocity=90 time=0.005263149999999999
EXTRACT: note_on channel=9 note=42 velocity=90 time=0
EXTRACT: note_on channel=1 note=38 velocity=120 time=0
EXTRACT: note_on channel=4 note=66 velocity=75 time=0
EXTRACT: note_on channel=4 note=62 velocity=84 time=0
EXTRACT: note_on channel=4 note=59 velocity=54 time=0
EXTRACT: note_on channel=4 note=54 velocity=79 time=0
EXTRACT: note_on channel=4 note=47 velocity=85 time=0
EXTRACT: note_on channel=8 note=62 velocity=0 time=0
EXTRACT: note_on channel=8 note=66 velocity=120 time=0
EXTRACT: note_on channel=9 note=36 velocity=0 time=0.0526315
EXTRACT: note_on channel=9 note=42 velocity=0 time=0
EXTRACT: note_on channel=4 note=66 velocity=0 time=0.02631575
EXTRACT: note_on channel=4 note=62 velocity=0 time=0
EXTRACT: note_on channel=4 note=59 velocity=0 time=0
EXTRACT: note_on channel=4 note=54 velocity=0 time=0
EXTRACT: note_on channel=4 note=47 velocity=0 time=0
EXTRACT: note_on channel=9 note=40 velocity=127 time=0.07894725
EXTRACT: note_on channel=1 note=38 velocity=0 time=0
EXTRACT: note_on channel=9 note=40 velocity=0 time=0.0526315
EXTRACT: note_on channel=2 note=47 velocity=0 time=0.09999984999999999
EXTRACT: note_on channel=2 note=62 velocity=0 time=0
EXTRACT: note_on channel=2 note=66 velocity=0 time=0
EXTRACT: note_on channel=2 note=62 velocity=0 time=0
EXTRACT: note_on channel=2 note=59 velocity=0 time=0
EXTRACT: note_on channel=2 note=62 velocity=0 time=0
EXTRACT: note_on channel=2 note=66 velocity=0 time=0
EXTRACT: note_on channel=2 note=66 velocity=0 time=0
EXTRACT: note_on channel=2 note=62 velocity=0 time=0
EXTRACT: note_on channel=2 note=40 velocity=126 time=0
EXTRACT: note_on channel=9 note=42 velocity=94 time=0.005263149999999999
EXTRACT: note_on channel=9 note=36 velocity=120 time=0
EXTRACT: note_on channel=1 note=40 velocity=108 time=0
EXTRACT: note_on channel=4 note=67 velocity=108 time=0
EXTRACT: note_on channel=4 note=62 velocity=104 time=0
EXTRACT: note_on channel=4 note=59 velocity=102 time=0
EXTRACT: note_on channel=4 note=55 velocity=95 time=0
EXTRACT: note_on channel=4 note=47 velocity=109 time=0
EXTRACT: note_on channel=7 note=67 velocity=74 time=0
EXTRACT: note_on channel=7 note=62 velocity=89 time=0
EXTRACT: note_on channel=7 note=59 velocity=87 time=0
EXTRACT: note_on channel=7 note=55 velocity=102 time=0
EXTRACT: note_on channel=7 note=47 velocity=107 time=0
EXTRACT: note_on channel=8 note=66 velocity=0 time=0
EXTRACT: note_on channel=8 note=62 velocity=116 time=0
EXTRACT: note_on channel=3 note=62 velocity=0 time=0.005263149999999999
EXTRACT: note_on channel=9 note=42 velocity=0 time=0.04736835
EXTRACT: note_on channel=9 note=36 velocity=0 time=0
EXTRACT: note_on channel=1 note=40 velocity=0 time=0.07894725
EXTRACT: note_on channel=2 note=62 velocity=110 time=0.17894709999999997
EXTRACT: note_on channel=9 note=42 velocity=102 time=0.005263149999999999
EXTRACT: note_on channel=1 note=40 velocity=123 time=0
EXTRACT: note_on channel=4 note=67 velocity=0 time=0
EXTRACT: note_on channel=4 note=62 velocity=0 time=0
EXTRACT: note_on channel=4 note=59 velocity=0 time=0
EXTRACT: note_on channel=4 note=55 velocity=0 time=0
EXTRACT: note_on channel=4 note=47 velocity=0 time=0
EXTRACT: note_on channel=7 note=67 velocity=0 time=0
EXTRACT: note_on channel=7 note=62 velocity=0 time=0
EXTRACT: note_on channel=7 note=59 velocity=0 time=0
EXTRACT: note_on channel=7 note=55 velocity=0 time=0
EXTRACT: note_on channel=7 note=47 velocity=0 time=0
EXTRACT: note_on channel=3 note=62 velocity=103 time=0.005263149999999999
EXTRACT: note_on channel=9 note=42 velocity=0 time=0.04736835
EXTRACT: note_on channel=1 note=40 velocity=0 time=0.09999984999999999
EXTRACT: note_on channel=2 note=67 velocity=124 time=0
EXTRACT: note_on channel=1 note=35 velocity=116 time=0.005263149999999999
EXTRACT: note_on channel=4 note=67 velocity=114 time=0
EXTRACT: note_on channel=4 note=62 velocity=115 time=0
EXTRACT: note_on channel=4 note=59 velocity=105 time=0
EXTRACT: note_on channel=4 note=55 velocity=95 time=0
EXTRACT: note_on channel=4 note=47 velocity=108 time=0
EXTRACT: note_on channel=7 note=67 velocity=85 time=0
EXTRACT: note_on channel=7 note=62 velocity=80 time=0
EXTRACT: note_on channel=7 note=59 velocity=97 time=0
EXTRACT: note_on channel=7 note=55 velocity=93 time=0
EXTRACT: note_on channel=7 note=47 velocity=98 time=0
EXTRACT: note_on channel=9 note=42 velocity=103 time=0.1578945
EXTRACT: note_on channel=9 note=40 velocity=127 time=0
EXTRACT: note_on channel=9 note=69 velocity=62 time=0
EXTRACT: note_on channel=1 note=35 velocity=0 time=0
EXTRACT: note_on channel=4 note=67 velocity=0 time=0
EXTRACT: note_on channel=4 note=62 velocity=0 time=0
EXTRACT: note_on channel=4 note=59 velocity=0 time=0
EXTRACT: note_on channel=4 note=55 velocity=0 time=0
EXTRACT: note_on channel=4 note=47 velocity=0 time=0
EXTRACT: note_on channel=7 note=67 velocity=0 time=0
EXTRACT: note_on channel=7 note=62 velocity=0 time=0
EXTRACT: note_on channel=7 note=59 velocity=0 time=0
EXTRACT: note_on channel=7 note=55 velocity=0 time=0
EXTRACT: note_on channel=7 note=47 velocity=0 time=0
EXTRACT: note_on channel=8 note=62 velocity=0 time=0
EXTRACT: note_on channel=8 note=69 velocity=115 time=0
EXTRACT: note_on channel=3 note=62 velocity=0 time=0.005263149999999999
EXTRACT: note_on channel=9 note=42 velocity=0 time=0.04736835
EXTRACT: note_on channel=9 note=40 velocity=0 time=0
EXTRACT: note_on channel=9 note=69 velocity=0 time=0
EXTRACT: note_on channel=2 note=62 velocity=109 time=0.09999984999999999
EXTRACT: note_on channel=9 note=69 velocity=70 time=0.005263149999999999
EXTRACT: note_on channel=1 note=35 velocity=119 time=0
EXTRACT: note_on channel=4 note=67 velocity=68 time=0
EXTRACT: note_on channel=4 note=62 velocity=56 time=0
EXTRACT: note_on channel=4 note=59 velocity=61 time=0
EXTRACT: note_on channel=4 note=55 velocity=61 time=0
EXTRACT: note_on channel=4 note=47 velocity=51 time=0
EXTRACT: note_on channel=8 note=69 velocity=0 time=0
EXTRACT: note_on channel=3 note=62 velocity=125 time=0.005263149999999999
EXTRACT: note_on channel=9 note=69 velocity=0 time=0.04736835
EXTRACT: note_on channel=4 note=67 velocity=0 time=0.02631575
EXTRACT: note_on channel=4 note=62 velocity=0 time=0
EXTRACT: note_on channel=4 note=59 velocity=0 time=0
EXTRACT: note_on channel=4 note=55 velocity=0 time=0
EXTRACT: note_on channel=4 note=47 velocity=0 time=0
EXTRACT: note_on channel=1 note=35 velocity=0 time=0.07368409999999999
EXTRACT: note_on channel=9 note=42 velocity=103 time=0.005263149999999999
EXTRACT: note_on channel=1 note=31 velocity=125 time=0
EXTRACT: note_on channel=4 note=67 velocity=58 time=0
EXTRACT: note_on channel=4 note=62 velocity=66 time=0
EXTRACT: note_on channel=4 note=59 velocity=47 time=0
EXTRACT: note_on channel=8 note=69 velocity=122 time=0
EXTRACT: note_on channel=3 note=62 velocity=0 time=0.005263149999999999
EXTRACT: note_on channel=3 note=61 velocity=112 time=0
EXTRACT: note_on channel=9 note=42 velocity=0 time=0.04736835
EXTRACT: note_on channel=4 note=67 velocity=0 time=0.02631575
EXTRACT: note_on channel=4 note=62 velocity=0 time=0
EXTRACT: note_on channel=4 note=59 velocity=0 time=0
EXTRACT: note_on channel=2 note=59 velocity=118 time=0.07368409999999999
EXTRACT: note_on channel=9 note=69 velocity=62 time=0.005263149999999999
EXTRACT: note_on channel=1 note=31 velocity=0 time=0
EXTRACT: note_on channel=4 note=67 velocity=52 time=0
EXTRACT: note_on channel=4 note=62 velocity=80 time=0
EXTRACT: note_on channel=4 note=59 velocity=77 time=0
EXTRACT: note_on channel=4 note=55 velocity=88 time=0
EXTRACT: note_on channel=4 note=47 velocity=51 time=0
EXTRACT: note_on channel=8 note=69 velocity=0 time=0
EXTRACT: note_on channel=3 note=61 velocity=0 time=0.005263149999999999
EXTRACT: note_on channel=3 note=59 velocity=111 time=0
EXTRACT: note_on channel=9 note=69 velocity=0 time=0.04736835
EXTRACT: note_on channel=4 note=67 velocity=0 time=0.02631575
EXTRACT: note_on channel=4 note=62 velocity=0 time=0
EXTRACT: note_on channel=4 note=59 velocity=0 time=0
EXTRACT: note_on channel=4 note=55 velocity=0 time=0
EXTRACT: note_on channel=4 note=47 velocity=0 time=0
EXTRACT: note_on channel=9 note=36 velocity=120 time=0.07894725
EXTRACT: note_on channel=9 note=42 velocity=95 time=0
EXTRACT: note_on channel=1 note=28 velocity=114 time=0
EXTRACT: note_on channel=4 note=67 velocity=59 time=0
EXTRACT: note_on channel=4 note=62 velocity=58 time=0
EXTRACT: note_on channel=4 note=59 velocity=48 time=0
EXTRACT: note_on channel=8 note=64 velocity=124 time=0
EXTRACT: note_on channel=3 note=59 velocity=0 time=0.005263149999999999
EXTRACT: note_on channel=9 note=36 velocity=0 time=0.04736835
EXTRACT: note_on channel=9 note=42 velocity=0 time=0
EXTRACT: note_on channel=4 note=67 velocity=0 time=0.02631575
EXTRACT: note_on channel=4 note=62 velocity=0 time=0
EXTRACT: note_on channel=4 note=59 velocity=0 time=0
EXTRACT: note_on channel=2 note=62 velocity=124 time=0.07368409999999999
EXTRACT: note_on channel=9 note=69 velocity=73 time=0.005263149999999999
EXTRACT: note_on channel=8 note=64 velocity=0 time=0
EXTRACT: note_on channel=3 note=62 velocity=127 time=0.005263149999999999
EXTRACT: note_on channel=9 note=69 velocity=0 time=0.04736835
EXTRACT: note_on channel=9 note=42 velocity=106 time=0.105263
EXTRACT: note_on channel=9 note=69 velocity=78 time=0
EXTRACT: note_on channel=1 note=28 velocity=0 time=0
EXTRACT: note_on channel=4 note=67 velocity=102 time=0
EXTRACT: note_on channel=4 note=62 velocity=104 time=0
EXTRACT: note_on channel=4 note=59 velocity=91 time=0
EXTRACT: note_on channel=4 note=55 velocity=113 time=0
EXTRACT: note_on channel=4 note=47 velocity=93 time=0
EXTRACT: note_on channel=7 note=67 velocity=75 time=0
EXTRACT: note_on channel=7 note=62 velocity=110 time=0
EXTRACT: note_on channel=7 note=59 velocity=92 time=0
EXTRACT: note_on channel=7 note=55 velocity=112 time=0
EXTRACT: note_on channel=7 note=47 velocity=99 time=0
EXTRACT: note_on channel=8 note=64 velocity=118 time=0
EXTRACT: note_on channel=3 note=62 velocity=0 time=0.005263149999999999
EXTRACT: note_on channel=9 note=42 velocity=0 time=0.04736835
EXTRACT: note_on channel=9 note=69 velocity=0 time=0
EXTRACT: note_on channel=2 note=67 velocity=102 time=0.09999984999999999
EXTRACT: note_on channel=4 note=67 velocity=0 time=0.005263149999999999
EXTRACT: note_on channel=4 note=62 velocity=0 time=0
EXTRACT: note_on channel=4 note=59 velocity=0 time=0
EXTRACT: note_on channel=4 note=55 velocity=0 time=0
EXTRACT: note_on channel=4 note=47 velocity=0 time=0
EXTRACT: note_on channel=7 note=67 velocity=0 time=0
EXTRACT: note_on channel=7 note=62 velocity=0 time=0
EXTRACT: note_on channel=7 note=59 velocity=0 time=0
EXTRACT: note_on channel=7 note=55 velocity=0 time=0
EXTRACT: note_on channel=7 note=47 velocity=0 time=0
EXTRACT: note_on channel=8 note=64 velocity=0 time=0
EXTRACT: note_on channel=3 note=62 velocity=123 time=0.005263149999999999
EXTRACT: note_on channel=2 note=67 velocity=119 time=0.14736819999999998
EXTRACT: note_on channel=9 note=40 velocity=127 time=0.005263149999999999
EXTRACT: note_on channel=9 note=42 velocity=100 time=0
EXTRACT: note_on channel=9 note=69 velocity=66 time=0
EXTRACT: note_on channel=8 note=62 velocity=120 time=0
EXTRACT: note_on channel=9 note=40 velocity=0 time=0.0526315
EXTRACT: note_on channel=9 note=42 velocity=0 time=0
EXTRACT: note_on channel=9 note=69 velocity=0 time=0
EXTRACT: note_on channel=4 note=67 velocity=49 time=0.105263
EXTRACT: note_on channel=4 note=62 velocity=47 time=0
EXTRACT: note_on channel=4 note=59 velocity=47 time=0
EXTRACT: note_on channel=8 note=62 velocity=0 time=0
EXTRACT: note_on channel=4 note=67 velocity=0 time=0.07894725
EXTRACT: note_on channel=4 note=62 velocity=0 time=0
EXTRACT: note_on channel=4 note=59 velocity=0 time=0
EXTRACT: note_on channel=2 note=62 velocity=116 time=0.07368409999999999
EXTRACT: note_on channel=9 note=42 velocity=90 time=0.005263149999999999
EXTRACT: note_on channel=1 note=28 velocity=127 time=0
EXTRACT: note_on channel=4 note=67 velocity=86 time=0
EXTRACT: note_on channel=4 note=62 velocity=58 time=0
EXTRACT: note_on channel=4 note=59 velocity=55 time=0
EXTRACT: note_on channel=4 note=55 velocity=72 time=0
EXTRACT: note_on channel=4 note=47 velocity=88 time=0
EXTRACT: note_on channel=8 note=66 velocity=123 time=0
EXTRACT: note_on channel=9 note=42 velocity=0 time=0.0526315
EXTRACT: note_on channel=4 note=67 velocity=0 time=0.02631575
EXTRACT: note_on channel=4 note=62 velocity=0 time=0
EXTRACT: note_on channel=4 note=59 velocity=0 time=0
EXTRACT: note_on channel=4 note=55 velocity=0 time=0
EXTRACT: note_on channel=4 note=47 velocity=0 time=0
EXTRACT: note_on channel=1 note=28 velocity=0 time=0.07894725
EXTRACT: note_on channel=8 note=66 velocity=0 time=0
EXTRACT: note_on channel=2 note=40 velocity=0 time=0.15263134999999997
EXTRACT: note_on channel=2 note=62 velocity=0 time=0
EXTRACT: note_on channel=2 note=67 velocity=0 time=0
EXTRACT: note_on channel=2 note=62 velocity=0 time=0
EXTRACT: note_on channel=2 note=59 velocity=0 time=0
EXTRACT: note_on channel=2 note=62 velocity=0 time=0
EXTRACT: note_on channel=2 note=67 velocity=0 time=0
EXTRACT: note_on channel=2 note=67 velocity=0 time=0
EXTRACT: note_on channel=2 note=62 velocity=0 time=0
EXTRACT: note_on channel=2 note=57 velocity=109 time=0
EXTRACT: note_on channel=2 note=54 velocity=117 time=0
EXTRACT: note_on channel=9 note=42 velocity=105 time=0.005263149999999999
EXTRACT: note_on channel=9 note=36 velocity=120 time=0
EXTRACT: note_on channel=1 note=30 velocity=122 time=0
EXTRACT: note_on channel=4 note=64 velocity=89 time=0
EXTRACT: note_on channel=4 note=61 velocity=85 time=0
EXTRACT: note_on channel=4 note=57 velocity=107 time=0
EXTRACT: note_on channel=4 note=54 velocity=85 time=0
EXTRACT: note_on channel=7 note=64 velocity=106 time=0
EXTRACT: note_on channel=7 note=61 velocity=79 time=0
EXTRACT: note_on channel=7 note=57 velocity=106 time=0
EXTRACT: note_on channel=7 note=54 velocity=99 time=0
EXTRACT: note_on channel=8 note=66 velocity=127 time=0
EXTRACT: note_on channel=3 note=62 velocity=0 time=0.005263149999999999
EXTRACT: note_on channel=9 note=42 velocity=0 time=0.04736835
EXTRACT: note_on channel=9 note=36 velocity=0 time=0
EXTRACT: note_on channel=1 note=30 velocity=0 time=0.15263134999999997
EXTRACT: note_on channel=1 note=30 velocity=120 time=0.005263149999999999
EXTRACT: note_on channel=2 note=61 velocity=125 time=0.09999984999999999
EXTRACT: note_on channel=9 note=42 velocity=95 time=0.005263149999999999
EXTRACT: note_on channel=4 note=64 velocity=0 time=0
EXTRACT: note_on channel=4 note=61 velocity=0 time=0
EXTRACT: note_on channel=4 note=57 velocity=0 time=0
EXTRACT: note_on channel=4 note=54 velocity=0 time=0
EXTRACT: note_on channel=7 note=64 velocity=0 time=0
EXTRACT: note_on channel=7 note=61 velocity=0 time=0
EXTRACT: note_on channel=7 note=57 velocity=0 time=0
EXTRACT: note_on channel=7 note=54 velocity=0 time=0
EXTRACT: note_on channel=8 note=66 velocity=0 time=0
EXTRACT: note_on channel=8 note=66 velocity=123 time=0
EXTRACT: note_on channel=3 note=61 velocity=120 time=0.005263149999999999
EXTRACT: note_on channel=9 note=42 velocity=0 time=0.04736835
EXTRACT: note_on channel=1 note=30 velocity=0 time=0.04736835
EXTRACT: note_on channel=1 note=30 velocity=110 time=0.005263149999999999
EXTRACT: note_on channel=2 note=64 velocity=110 time=0.04736835
EXTRACT: note_on channel=4 note=64 velocity=101 time=0.005263149999999999
EXTRACT: note_on channel=4 note=61 velocity=116 time=0
EXTRACT: note_on channel=4 note=57 velocity=112 time=0
EXTRACT: note_on channel=4 note=54 velocity=95 time=0
EXTRACT: note_on channel=7 note=64 velocity=96 time=0
EXTRACT: note_on channel=7 note=61 velocity=112 time=0
EXTRACT: note_on channel=7 note=57 velocity=107 time=0
EXTRACT: note_on channel=7 note=54 velocity=93 time=0
EXTRACT: note_on channel=8 note=66 velocity=0 time=0
EXTRACT: note_on channel=8 note=66 velocity=114 time=0
EXTRACT: note_on channel=1 note=30 velocity=0 time=0.15263134999999997
EXTRACT: note_on channel=9 note=42 velocity=90 time=0.005263149999999999
EXTRACT: note_on channel=9 note=40 velocity=127 time=0
EXTRACT: note_on channel=9 note=69 velocity=62 time=0
EXTRACT: note_on channel=1 note=37 velocity=114 time=0
EXTRACT: note_on channel=4 note=64 velocity=0 time=0
EXTRACT: note_on channel=4 note=61 velocity=0 time=0
EXTRACT: note_on channel=4 note=57 velocity=0 time=0
EXTRACT: note_on channel=4 note=54 velocity=0 time=0
EXTRACT: note_on channel=7 note=64 velocity=0 time=0
EXTRACT: note_on channel=7 note=61 velocity=0 time=0
EXTRACT: note_on channel=7 note=57 velocity=0 time=0
EXTRACT: note_on channel=7 note=54 velocity=0 time=0
EXTRACT: note_on channel=8 note=66 velocity=0 time=0
EXTRACT: note_on channel=8 note=64 velocity=114 time=0
EXTRACT: note_on channel=3 note=61 velocity=0 time=0.005263149999999999
EXTRACT: note_on channel=9 note=42 velocity=0 time=0.04736835
EXTRACT: note_on channel=9 note=40 velocity=0 time=0
EXTRACT: note_on channel=9 note=69 velocity=0 time=0
EXTRACT: note_on channel=2 note=61 velocity=122 time=0.09999984999999999
EXTRACT: note_on channel=9 note=69 velocity=70 time=0.005263149999999999
EXTRACT: note_on channel=4 note=64 velocity=75 time=0
EXTRACT: note_on channel=4 note=61 velocity=68 time=0
EXTRACT: note_on channel=4 note=57 velocity=69 time=0
EXTRACT: note_on channel=4 note=54 velocity=83 time=0
EXTRACT: note_on channel=3 note=61 velocity=115 time=0.005263149999999999
EXTRACT: note_on channel=9 note=69 velocity=0 time=0.04736835
EXTRACT: note_on channel=1 note=37 velocity=0 time=0.02631575
EXTRACT: note_on channel=4 note=64 velocity=0 time=0
EXTRACT: note_on channel=4 note=61 velocity=0 time=0
EXTRACT: note_on channel=4 note=57 velocity=0 time=0
EXTRACT: note_on channel=4 note=54 velocity=0 time=0
EXTRACT: note_on channel=9 note=42 velocity=91 time=0.07894725
EXTRACT: note_on channel=1 note=42 velocity=118 time=0
EXTRACT: note_on channel=4 note=64 velocity=71 time=0
EXTRACT: note_on channel=4 note=61 velocity=70 time=0
EXTRACT: note_on channel=4 note=57 velocity=65 time=0
EXTRACT: note_on channel=9 note=42 velocity=0 time=0.0526315
EXTRACT: note_on channel=4 note=64 velocity=0 time=0.02631575
EXTRACT: note_on channel=4 note=61 velocity=0 time=0
EXTRACT: note_on channel=4 note=57 velocity=0 time=0
EXTRACT: note_on channel=2 note=57 velocity=127 time=0.07368409999999999
EXTRACT: note_on channel=9 note=69 velocity=62 time=0.005263149999999999
EXTRACT: note_on channel=4 note=64 velocity=73 time=0
EXTRACT: note_on channel=4 note=61 velocity=85 time=0
EXTRACT: note_on channel=4 note=57 velocity=78 time=0
EXTRACT: note_on channel=4 note=54 velocity=56 time=0
EXTRACT: note_on channel=3 note=61 velocity=0 time=0.005263149999999999
EXTRACT: note_on channel=9 note=69 velocity=0 time=0.04736835
EXTRACT: note_on channel=1 note=42 velocity=0 time=0.02631575
EXTRACT: note_on channel=4 note=64 velocity=0 time=0
EXTRACT: note_on channel=4 note=61 velocity=0 time=0
EXTRACT: note_on channel=4 note=57 velocity=0 time=0
EXTRACT: note_on channel=4 note=54 velocity=0 time=0
EXTRACT: note_on channel=2 note=61 velocity=110 time=0.07368409999999999
EXTRACT: note_on channel=9 note=36 velocity=120 time=0.005263149999999999
EXTRACT: note_on channel=9 note=42 velocity=93 time=0
EXTRACT: note_on channel=1 note=37 velocity=116 time=0
EXTRACT: note_on channel=4 note=64 velocity=39 time=0
EXTRACT: note_on channel=4 note=61 velocity=68 time=0
EXTRACT: note_on channel=4 note=57 velocity=45 time=0
EXTRACT: note_on channel=8 note=64 velocity=0 time=0
EXTRACT: note_on channel=3 note=61 velocity=125 time=0.005263149999999999
EXTRACT: note_on channel=9 note=36 velocity=0 time=0.04736835
EXTRACT: note_on channel=9 note=42 velocity=0 time=0
EXTRACT: note_on channel=4 note=64 velocity=0 time=0.02631575
EXTRACT: note_on channel=4 note=61 velocity=0 time=0
EXTRACT: note_on channel=4 note=57 velocity=0 time=0
EXTRACT: note_on channel=2 note=64 velocity=112 time=0.07368409999999999
EXTRACT: note_on channel=9 note=69 velocity=73 time=0.005263149999999999
EXTRACT: note_on channel=9 note=69 velocity=0 time=0.0526315
EXTRACT: note_on channel=2 note=66 velocity=110 time=0.09999984999999999
EXTRACT: note_on channel=9 note=36 velocity=120 time=0.005263149999999999
EXTRACT: note_on channel=9 note=42 velocity=106 time=0
EXTRACT: note_on channel=9 note=69 velocity=78 time=0
EXTRACT: note_on channel=4 note=64 velocity=100 time=0
EXTRACT: note_on channel=4 note=61 velocity=114 time=0
EXTRACT: note_on channel=4 note=57 velocity=99 time=0
EXTRACT: note_on channel=4 note=54 velocity=101 time=0
EXTRACT: note_on channel=7 note=64 velocity=94 time=0
EXTRACT: note_on channel=7 note=61 velocity=83 time=0
EXTRACT: note_on channel=7 note=57 velocity=84 time=0
EXTRACT: note_on channel=7 note=54 velocity=78 time=0
EXTRACT: note_on channel=8 note=59 velocity=114 time=0
EXTRACT: note_on channel=9 note=36 velocity=0 time=0.0526315
EXTRACT: note_on channel=9 note=42 velocity=0 time=0
EXTRACT: note_on channel=9 note=69 velocity=0 time=0
EXTRACT: note_on channel=1 note=37 velocity=0 time=0.04736835
EXTRACT: note_on channel=1 note=42 velocity=115 time=0.005263149999999999
EXTRACT: note_on channel=2 note=69 velocity=126 time=0.04736835
EXTRACT: note_on channel=4 note=64 velocity=0 time=0.005263149999999999
EXTRACT: note_on channel=4 note=61 velocity=0 time=0
EXTRACT: note_on channel=4 note=57 velocity=0 time=0
EXTRACT: note_on channel=4 note=54 velocity=0 time=0
EXTRACT: note_on channel=7 note=64 velocity=0 time=0
EXTRACT: note_on channel=7 note=61 velocity=0 time=0
EXTRACT: note_on channel=7 note=57 velocity=0 time=0
EXTRACT: note_on channel=7 note=54 velocity=0 time=0
EXTRACT: note_on channel=8 note=59 velocity=0 time=0
EXTRACT: note_on channel=9 note=40 velocity=127 time=0.1578945
EXTRACT: note_on channel=9 note=42 velocity=95 time=0
EXTRACT: note_on channel=9 note=69 velocity=66 time=0
EXTRACT: note_on channel=8 note=62 velocity=127 time=0
EXTRACT: note_on channel=9 note=40 velocity=0 time=0.0526315
EXTRACT: note_on channel=9 note=42 velocity=0 time=0
EXTRACT: note_on channel=9 note=69 velocity=0 time=0
EXTRACT: note_on channel=4 note=64 velocity=68 time=0.105263
EXTRACT: note_on channel=4 note=61 velocity=50 time=0
EXTRACT: note_on channel=4 note=57 velocity=60 time=0
EXTRACT: note_on channel=8 note=62 velocity=0 time=0
EXTRACT: note_on channel=8 note=64 velocity=121 time=0
EXTRACT: note_on channel=1 note=42 velocity=0 time=0.04736835
EXTRACT: note_on channel=1 note=49 velocity=125 time=0.005263149999999999
EXTRACT: note_on channel=4 note=64 velocity=0 time=0.02631575
EXTRACT: note_on channel=4 note=61 velocity=0 time=0
EXTRACT: note_on channel=4 note=57 velocity=0 time=0
EXTRACT: note_on channel=9 note=36 velocity=90 time=0.07894725
EXTRACT: note_on channel=9 note=42 velocity=91 time=0
EXTRACT: note_on channel=4 note=64 velocity=63 time=0
EXTRACT: note_on channel=4 note=61 velocity=89 time=0
EXTRACT: note_on channel=4 note=57 velocity=77 time=0
EXTRACT: note_on channel=4 note=54 velocity=82 time=0
EXTRACT: note_on channel=8 note=64 velocity=0 time=0
EXTRACT: note_on channel=8 note=66 velocity=123 time=0
EXTRACT: note_on channel=3 note=61 velocity=119 time=0.005263149999999999
EXTRACT: note_on channel=9 note=36 velocity=0 time=0.04736835
EXTRACT: note_on channel=9 note=42 velocity=0 time=0
EXTRACT: note_on channel=4 note=64 velocity=0 time=0.02631575
EXTRACT: note_on channel=4 note=61 velocity=0 time=0
EXTRACT: note_on channel=4 note=57 velocity=0 time=0
EXTRACT: note_on channel=4 note=54 velocity=0 time=0
EXTRACT: note_on channel=9 note=40 velocity=127 time=0.07894725
EXTRACT: note_on channel=8 note=66 velocity=0 time=0
EXTRACT: note_on channel=9 note=40 velocity=0 time=0.0526315
EXTRACT: note_on channel=1 note=49 velocity=0 time=0.09999984999999999
EXTRACT: note_on channel=2 note=57 velocity=0 time=0
EXTRACT: note_on channel=2 note=54 velocity=0 time=0
EXTRACT: note_on channel=2 note=61 velocity=0 time=0
EXTRACT: note_on channel=2 note=64 velocity=0 time=0
EXTRACT: note_on channel=2 note=61 velocity=0 time=0
EXTRACT: note_on channel=2 note=57 velocity=0 time=0
EXTRACT: note_on channel=2 note=61 velocity=0 time=0
EXTRACT: note_on channel=2 note=64 velocity=0 time=0
EXTRACT: note_on channel=2 note=66 velocity=0 time=0
EXTRACT: note_on channel=2 note=69 velocity=0 time=0
EXTRACT: note_on channel=2 note=47 velocity=127 time=0
EXTRACT: note_on channel=9 note=57 velocity=90 time=0.005263149999999999
EXTRACT: note_on channel=9 note=36 velocity=120 time=0
EXTRACT: note_on channel=1 note=35 velocity=120 time=0
EXTRACT: note_on channel=4 note=66 velocity=107 time=0
EXTRACT: note_on channel=4 note=62 velocity=97 time=0
EXTRACT: note_on channel=4 note=59 velocity=115 time=0
EXTRACT: note_on channel=4 note=54 velocity=111 time=0
EXTRACT: note_on channel=4 note=47 velocity=108 time=0
EXTRACT: note_on channel=7 note=66 velocity=83 time=0
EXTRACT: note_on channel=7 note=62 velocity=102 time=0
EXTRACT: note_on channel=7 note=59 velocity=100 time=0
EXTRACT: note_on channel=7 note=54 velocity=97 time=0
EXTRACT: note_on channel=7 note=47 velocity=75 time=0
EXTRACT: note_on channel=8 note=66 velocity=124 time=0
EXTRACT: note_on channel=3 note=61 velocity=0 time=0.005263149999999999
EXTRACT: note_on channel=3 note=61 velocity=0 time=0
EXTRACT: note_on channel=9 note=57 velocity=0 time=0.04736835
EXTRACT: note_on channel=9 note=36 velocity=0 time=0
EXTRACT: note_on channel=1 note=35 velocity=0 time=0.09999984999999999
EXTRACT: note_on channel=1 note=35 velocity=115 time=0.005263149999999999
EXTRACT: note_on channel=2 note=62 velocity=116 time=0.15263134999999997
EXTRACT: note_on channel=9 note=42 velocity=102 time=0.005263149999999999
EXTRACT: note_on channel=1 note=35 velocity=0 time=0
EXTRACT: note_on channel=4 note=66 velocity=0 time=0
EXTRACT: note_on channel=4 note=62 velocity=0 time=0
EXTRACT: note_on channel=4 note=59 velocity=0 time=0
EXTRACT: note_on channel=4 note=54 velocity=0 time=0
EXTRACT: note_on channel=4 note=47 velocity=0 time=0
EXTRACT: note_on channel=7 note=66 velocity=0 time=0
EXTRACT: note_on channel=7 note=62 velocity=0 time=0
EXTRACT: note_on channel=7 note=59 velocity=0 time=0
EXTRACT: note_on channel=7 note=54 velocity=0 time=0
EXTRACT: note_on channel=7 note=47 velocity=0 time=0
EXTRACT: note_on channel=3 note=62 velocity=106 time=0.005263149999999999
EXTRACT: note_on channel=9 note=42 velocity=0 time=0.04736835
EXTRACT: note_on channel=2 note=66 velocity=115 time=0.09999984999999999
EXTRACT: note_on channel=1 note=42 velocity=125 time=0.005263149999999999
EXTRACT: note_on channel=4 note=66 velocity=86 time=0
EXTRACT: note_on channel=4 note=62 velocity=106 time=0
EXTRACT: note_on channel=4 note=59 velocity=95 time=0
EXTRACT: note_on channel=4 note=54 velocity=88 time=0
EXTRACT: note_on channel=4 note=47 velocity=96 time=0
EXTRACT: note_on channel=7 note=66 velocity=75 time=0
EXTRACT: note_on channel=7 note=62 velocity=107 time=0
EXTRACT: note_on channel=7 note=59 velocity=110 time=0
EXTRACT: note_on channel=7 note=54 velocity=110 time=0
EXTRACT: note_on channel=7 note=47 velocity=79 time=0
EXTRACT: note_on channel=9 note=42 velocity=99 time=0.1578945
EXTRACT: note_on channel=9 note=40 velocity=127 time=0
EXTRACT: note_on channel=9 note=69 velocity=62 time=0
EXTRACT: note_on channel=1 note=42 velocity=0 time=0
EXTRACT: note_on channel=4 note=66 velocity=0 time=0
EXTRACT: note_on channel=4 note=62 velocity=0 time=0
EXTRACT: note_on channel=4 note=59 velocity=0 time=0
EXTRACT: note_on channel=4 note=54 velocity=0 time=0
EXTRACT: note_on channel=4 note=47 velocity=0 time=0
EXTRACT: note_on channel=7 note=66 velocity=0 time=0
EXTRACT: note_on channel=7 note=62 velocity=0 time=0
EXTRACT: note_on channel=7 note=59 velocity=0 time=0
EXTRACT: note_on channel=7 note=54 velocity=0 time=0
EXTRACT: note_on channel=7 note=47 velocity=0 time=0
EXTRACT: note_on channel=8 note=66 velocity=0 time=0
EXTRACT: note_on channel=3 note=62 velocity=0 time=0.005263149999999999
EXTRACT: note_on channel=9 note=42 velocity=0 time=0.04736835
EXTRACT: note_on channel=9 note=40 velocity=0 time=0
EXTRACT: note_on channel=9 note=69 velocity=0 time=0
EXTRACT: note_on channel=2 note=62 velocity=105 time=0.09999984999999999
EXTRACT: note_on channel=9 note=69 velocity=70 time=0.005263149999999999
EXTRACT: note_on channel=1 note=42 velocity=108 time=0
EXTRACT: note_on channel=4 note=66 velocity=54 time=0
EXTRACT: note_on channel=4 note=62 velocity=55 time=0
EXTRACT: note_on channel=4 note=59 velocity=67 time=0
EXTRACT: note_on channel=4 note=54 velocity=51 time=0
EXTRACT: note_on channel=4 note=47 velocity=60 time=0
EXTRACT: note_on channel=3 note=62 velocity=120 time=0.005263149999999999
EXTRACT: note_on channel=9 note=69 velocity=0 time=0.04736835
EXTRACT: note_on channel=4 note=66 velocity=0 time=0.02631575
EXTRACT: note_on channel=4 note=62 velocity=0 time=0
EXTRACT: note_on channel=4 note=59 velocity=0 time=0
EXTRACT: note_on channel=4 note=54 velocity=0 time=0
EXTRACT: note_on channel=4 note=47 velocity=0 time=0
EXTRACT: note_on channel=1 note=42 velocity=0 time=0.07368409999999999
EXTRACT: note_on channel=9 note=42 velocity=110 time=0.005263149999999999
EXTRACT: note_on channel=1 note=38 velocity=120 time=0
EXTRACT: note_on channel=4 note=66 velocity=59 time=0
EXTRACT: note_on channel=4 note=62 velocity=46 time=0
EXTRACT: note_on channel=4 note=59 velocity=47 time=0
EXTRACT: note_on channel=8 note=66 velocity=122 time=0
EXTRACT: note_on channel=3 note=62 velocity=0 time=0.005263149999999999
EXTRACT: note_on channel=3 note=61 velocity=104 time=0
EXTRACT: note_on channel=9 note=42 velocity=0 time=0.04736835
EXTRACT: note_on channel=4 note=66 velocity=0 time=0.02631575
EXTRACT: note_on channel=4 note=62 velocity=0 time=0
EXTRACT: note_on channel=4 note=59 velocity=0 time=0
EXTRACT: note_on channel=2 note=59 velocity=117 time=0.07368409999999999
EXTRACT: note_on channel=9 note=69 velocity=62 time=0.005263149999999999
EXTRACT: note_on channel=1 note=38 velocity=0 time=0
EXTRACT: note_on channel=4 note=66 velocity=54 time=0
EXTRACT: note_on channel=4 note=62 velocity=57 time=0
EXTRACT: note_on channel=4 note=59 velocity=68 time=0
EXTRACT: note_on channel=4 note=54 velocity=77 time=0
EXTRACT: note_on channel=4 note=47 velocity=86 time=0
EXTRACT: note_on channel=8 note=66 velocity=0 time=0
EXTRACT: note_on channel=3 note=61 velocity=0 time=0.005263149999999999
EXTRACT: note_on channel=3 note=59 velocity=120 time=0
EXTRACT: note_on channel=9 note=69 velocity=0 time=0.04736835
EXTRACT: note_on channel=4 note=66 velocity=0 time=0.02631575
EXTRACT: note_on channel=4 note=62 velocity=0 time=0
EXTRACT: note_on channel=4 note=59 velocity=0 time=0
EXTRACT: note_on channel=4 note=54 velocity=0 time=0
EXTRACT: note_on channel=4 note=47 velocity=0 time=0
EXTRACT: note_on channel=9 note=36 velocity=120 time=0.07894725
EXTRACT: note_on channel=9 note=42 velocity=109 time=0
EXTRACT: note_on channel=1 note=35 velocity=124 time=0
EXTRACT: note_on channel=4 note=66 velocity=51 time=0
EXTRACT: note_on channel=4 note=62 velocity=52 time=0
EXTRACT: note_on channel=4 note=59 velocity=46 time=0
EXTRACT: note_on channel=8 note=64 velocity=119 time=0
EXTRACT: note_on channel=3 note=59 velocity=0 time=0.005263149999999999
EXTRACT: note_on channel=9 note=36 velocity=0 time=0.04736835
EXTRACT: note_on channel=9 note=42 velocity=0 time=0
EXTRACT: note_on channel=4 note=66 velocity=0 time=0.02631575
EXTRACT: note_on channel=4 note=62 velocity=0 time=0
EXTRACT: note_on channel=4 note=59 velocity=0 time=0
EXTRACT: note_on channel=2 note=62 velocity=108 time=0.07368409999999999
EXTRACT: note_on channel=9 note=69 velocity=73 time=0.005263149999999999
EXTRACT: note_on channel=8 note=64 velocity=0 time=0
EXTRACT: note_on channel=3 note=62 velocity=104 time=0.005263149999999999
EXTRACT: note_on channel=9 note=69 velocity=0 time=0.04736835
EXTRACT: note_on channel=9 note=42 velocity=103 time=0.105263
EXTRACT: note_on channel=9 note=69 velocity=78 time=0
EXTRACT: note_on channel=1 note=35 velocity=0 time=0
EXTRACT: note_on channel=4 note=66 velocity=88 time=0
EXTRACT: note_on channel=4 note=62 velocity=115 time=0
EXTRACT: note_on channel=4 note=59 velocity=106 time=0
EXTRACT: note_on channel=4 note=54 velocity=107 time=0
EXTRACT: note_on channel=4 note=47 velocity=90 time=0
EXTRACT: note_on channel=7 note=66 velocity=89 time=0
EXTRACT: note_on channel=7 note=62 velocity=107 time=0
EXTRACT: note_on channel=7 note=59 velocity=98 time=0
EXTRACT: note_on channel=7 note=54 velocity=98 time=0
EXTRACT: note_on channel=7 note=47 velocity=75 time=0
EXTRACT: note_on channel=8 note=66 velocity=127 time=0
EXTRACT: note_on channel=3 note=62 velocity=0 time=0.005263149999999999
EXTRACT: note_on channel=9 note=42 velocity=0 time=0.04736835
EXTRACT: note_on channel=9 note=69 velocity=0 time=0
EXTRACT: note_on channel=2 note=66 velocity=106 time=0.09999984999999999
EXTRACT: note_on channel=4 note=66 velocity=0 time=0.005263149999999999
EXTRACT: note_on channel=4 note=62 velocity=0 time=0
EXTRACT: note_on channel=4 note=59 velocity=0 time=0
EXTRACT: note_on channel=4 note=54 velocity=0 time=0
EXTRACT: note_on channel=4 note=47 velocity=0 time=0
EXTRACT: note_on channel=7 note=66 velocity=0 time=0
EXTRACT: note_on channel=7 note=62 velocity=0 time=0
EXTRACT: note_on channel=7 note=59 velocity=0 time=0
EXTRACT: note_on channel=7 note=54 velocity=0 time=0
EXTRACT: note_on channel=7 note=47 velocity=0 time=0
EXTRACT: note_on channel=8 note=66 velocity=0 time=0
EXTRACT: note_on channel=3 note=62 velocity=125 time=0.005263149999999999
EXTRACT: note_on channel=2 note=66 velocity=119 time=0.14736819999999998
EXTRACT: note_on channel=9 note=40 velocity=127 time=0.005263149999999999
EXTRACT: note_on channel=9 note=42 velocity=93 time=0
EXTRACT: note_on channel=9 note=69 velocity=66 time=0
EXTRACT: note_on channel=8 note=62 velocity=123 time=0
EXTRACT: note_on channel=9 note=40 velocity=0 time=0.0526315
EXTRACT: note_on channel=9 note=42 velocity=0 time=0
EXTRACT: note_on channel=9 note=69 velocity=0 time=0
EXTRACT: note_on channel=4 note=66 velocity=68 time=0.105263
EXTRACT: note_on channel=4 note=62 velocity=53 time=0
EXTRACT: note_on channel=4 note=59 velocity=54 time=0
EXTRACT: note_on channel=8 note=62 velocity=0 time=0
EXTRACT: note_on channel=4 note=66 velocity=0 time=0.07894725
EXTRACT: note_on channel=4 note=62 velocity=0 time=0
EXTRACT: note_on channel=4 note=59 velocity=0 time=0
EXTRACT: note_on channel=2 note=62 velocity=115 time=0.07368409999999999
EXTRACT: note_on channel=9 note=42 velocity=107 time=0.005263149999999999
EXTRACT: note_on channel=1 note=30 velocity=123 time=0
EXTRACT: note_on channel=4 note=66 velocity=91 time=0
EXTRACT: note_on channel=4 note=62 velocity=57 time=0
EXTRACT: note_on channel=4 note=59 velocity=68 time=0
EXTRACT: note_on channel=4 note=54 velocity=76 time=0
EXTRACT: note_on channel=4 note=47 velocity=83 time=0
EXTRACT: note_on channel=8 note=61 velocity=114 time=0
EXTRACT: note_on channel=9 note=42 velocity=0 time=0.0526315
EXTRACT: note_on channel=4 note=66 velocity=0 time=0.02631575
EXTRACT: note_on channel=4 note=62 velocity=0 time=0
EXTRACT: note_on channel=4 note=59 velocity=0 time=0
EXTRACT: note_on channel=4 note=54 velocity=0 time=0
EXTRACT: note_on channel=4 note=47 velocity=0 time=0
EXTRACT: note_on channel=1 note=30 velocity=0 time=0.07894725
EXTRACT: note_on channel=8 note=61 velocity=0 time=0
EXTRACT: note_on channel=2 note=47 velocity=0 time=0.15263134999999997
EXTRACT: note_on channel=2 note=62 velocity=0 time=0
EXTRACT: note_on channel=2 note=66 velocity=0 time=0
EXTRACT: note_on channel=2 note=62 velocity=0 time=0
EXTRACT: note_on channel=2 note=59 velocity=0 time=0
EXTRACT: note_on channel=2 note=62 velocity=0 time=0
EXTRACT: note_on channel=2 note=66 velocity=0 time=0
EXTRACT: note_on channel=2 note=66 velocity=0 time=0
EXTRACT: note_on channel=2 note=47 velocity=113 time=0
EXTRACT: note_on channel=9 note=42 velocity=104 time=0.005263149999999999
EXTRACT: note_on channel=9 note=36 velocity=120 time=0
EXTRACT: note_on channel=1 note=35 velocity=119 time=0
EXTRACT: note_on channel=4 note=66 velocity=108 time=0
EXTRACT: note_on channel=4 note=62 velocity=86 time=0
EXTRACT: note_on channel=4 note=59 velocity=117 time=0
EXTRACT: note_on channel=4 note=54 velocity=99 time=0
EXTRACT: note_on channel=4 note=47 velocity=101 time=0
EXTRACT: note_on channel=7 note=66 velocity=89 time=0
EXTRACT: note_on channel=7 note=62 velocity=109 time=0
EXTRACT: note_on channel=7 note=59 velocity=104 time=0
EXTRACT: note_on channel=7 note=54 velocity=86 time=0
EXTRACT: note_on channel=7 note=47 velocity=96 time=0
EXTRACT: note_on channel=8 note=61 velocity=118 time=0
EXTRACT: note_on channel=3 note=62 velocity=0 time=0.005263149999999999
EXTRACT: note_on channel=9 note=42 velocity=0 time=0.04736835
EXTRACT: note_on channel=9 note=36 velocity=0 time=0
EXTRACT: note_on channel=1 note=35 velocity=0 time=0.18421025
EXTRACT: note_on channel=2 note=62 velocity=0 time=0.07368409999999999
EXTRACT: note_on channel=2 note=62 velocity=114 time=0
EXTRACT: note_on channel=9 note=42 velocity=90 time=0.005263149999999999
EXTRACT: note_on channel=4 note=66 velocity=0 time=0
EXTRACT: note_on channel=4 note=62 velocity=0 time=0
EXTRACT: note_on channel=4 note=59 velocity=0 time=0
EXTRACT: note_on channel=4 note=54 velocity=0 time=0
EXTRACT: note_on channel=4 note=47 velocity=0 time=0
EXTRACT: note_on channel=7 note=66 velocity=0 time=0
EXTRACT: note_on channel=7 note=62 velocity=0 time=0
EXTRACT: note_on channel=7 note=59 velocity=0 time=0
EXTRACT: note_on channel=7 note=54 velocity=0 time=0
EXTRACT: note_on channel=7 note=47 velocity=0 time=0
EXTRACT: note_on channel=3 note=62 velocity=121 time=0.005263149999999999
EXTRACT: note_on channel=9 note=42 velocity=0 time=0.04736835
EXTRACT: note_on channel=2 note=66 velocity=102 time=0.09999984999999999
EXTRACT: note_on channel=1 note=35 velocity=122 time=0.005263149999999999
EXTRACT: note_on channel=4 note=66 velocity=100 time=0
EXTRACT: note_on channel=4 note=62 velocity=109 time=0
EXTRACT: note_on channel=4 note=59 velocity=100 time=0
EXTRACT: note_on channel=4 note=54 velocity=116 time=0
EXTRACT: note_on channel=4 note=47 velocity=98 time=0
EXTRACT: note_on channel=7 note=66 velocity=98 time=0
EXTRACT: note_on channel=7 note=62 velocity=76 time=0
EXTRACT: note_on channel=7 note=59 velocity=104 time=0
EXTRACT: note_on channel=7 note=54 velocity=80 time=0
EXTRACT: note_on channel=7 note=47 velocity=89 time=0
EXTRACT: note_on channel=9 note=42 velocity=99 time=0.1578945
EXTRACT: note_on channel=9 note=40 velocity=127 time=0
EXTRACT: note_on channel=9 note=69 velocity=62 time=0
EXTRACT: note_on channel=1 note=35 velocity=0 time=0
EXTRACT: note_on channel=4 note=66 velocity=0 time=0
EXTRACT: note_on channel=4 note=62 velocity=0 time=0
EXTRACT: note_on channel=4 note=59 velocity=0 time=0
EXTRACT: note_on channel=4 note=54 velocity=0 time=0
EXTRACT: note_on channel=4 note=47 velocity=0 time=0
EXTRACT: note_on channel=7 note=66 velocity=0 time=0
EXTRACT: note_on channel=7 note=62 velocity=0 time=0
EXTRACT: note_on channel=7 note=59 velocity=0 time=0
EXTRACT: note_on channel=7 note=54 velocity=0 time=0
EXTRACT: note_on channel=7 note=47 velocity=0 time=0
EXTRACT: note_on channel=3 note=62 velocity=0 time=0.005263149999999999
EXTRACT: note_on channel=9 note=42 velocity=0 time=0.04736835
EXTRACT: note_on channel=9 note=40 velocity=0 time=0
EXTRACT: note_on channel=9 note=69 velocity=0 time=0
EXTRACT: note_on channel=2 note=62 velocity=103 time=0.09999984999999999
EXTRACT: note_on channel=9 note=69 velocity=70 time=0.005263149999999999
EXTRACT: note_on channel=4 note=66 velocity=64 time=0
EXTRACT: note_on channel=4 note=62 velocity=84 time=0
EXTRACT: note_on channel=4 note=59 velocity=69 time=0
EXTRACT: note_on channel=4 note=54 velocity=81 time=0
EXTRACT: note_on channel=4 note=47 velocity=71 time=0
EXTRACT: note_on channel=3 note=62 velocity=114 time=0.005263149999999999
EXTRACT: note_on channel=9 note=69 velocity=0 time=0.04736835
EXTRACT: note_on channel=4 note=66 velocity=0 time=0.02631575
EXTRACT: note_on channel=4 note=62 velocity=0 time=0
EXTRACT: note_on channel=4 note=59 velocity=0 time=0
EXTRACT: note_on channel=4 note=54 velocity=0 time=0
EXTRACT: note_on channel=4 note=47 velocity=0 time=0
EXTRACT: note_on channel=9 note=42 velocity=103 time=0.07894725
EXTRACT: note_on channel=4 note=66 velocity=40 time=0
EXTRACT: note_on channel=4 note=62 velocity=53 time=0
EXTRACT: note_on channel=4 note=59 velocity=71 time=0
EXTRACT: note_on channel=3 note=62 velocity=0 time=0.005263149999999999
EXTRACT: note_on channel=3 note=61 velocity=116 time=0
EXTRACT: note_on channel=9 note=42 velocity=0 time=0.04736835
EXTRACT: note_on channel=4 note=66 velocity=0 time=0.02631575
EXTRACT: note_on channel=4 note=62 velocity=0 time=0
EXTRACT: note_on channel=4 note=59 velocity=0 time=0
EXTRACT: note_on channel=2 note=59 velocity=127 time=0.07368409999999999
EXTRACT: note_on channel=9 note=69 velocity=62 time=0.005263149999999999
EXTRACT: note_on channel=4 note=66 velocity=53 time=0
EXTRACT: note_on channel=4 note=62 velocity=73 time=0
EXTRACT: note_on channel=4 note=59 velocity=58 time=0
EXTRACT: note_on channel=4 note=54 velocity=62 time=0
EXTRACT: note_on channel=4 note=47 velocity=54 time=0
EXTRACT: note_on channel=3 note=61 velocity=0 time=0.005263149999999999
EXTRACT: note_on channel=3 note=59 velocity=118 time=0
EXTRACT: note_on channel=9 note=69 velocity=0 time=0.04736835
EXTRACT: note_on channel=4 note=66 velocity=0 time=0.02631575
EXTRACT: note_on channel=4 note=62 velocity=0 time=0
EXTRACT: note_on channel=4 note=59 velocity=0 time=0
EXTRACT: note_on channel=4 note=54 velocity=0 time=0
EXTRACT: note_on channel=4 note=47 velocity=0 time=0
EXTRACT: note_on channel=9 note=36 velocity=120 time=0.07894725
EXTRACT: note_on channel=9 note=42 velocity=102 time=0
EXTRACT: note_on channel=4 note=66 velocity=64 time=0
EXTRACT: note_on channel=4 note=62 velocity=56 time=0
EXTRACT: note_on channel=4 note=59 velocity=39 time=0
EXTRACT: note_on channel=8 note=61 velocity=0 time=0
EXTRACT: note_on channel=8 note=59 velocity=119 time=0
EXTRACT: note_on channel=3 note=59 velocity=0 time=0.005263149999999999
EXTRACT: note_on channel=9 note=36 velocity=0 time=0.04736835
EXTRACT: note_on channel=9 note=42 velocity=0 time=0
EXTRACT: note_on channel=4 note=66 velocity=0 time=0.02631575
EXTRACT: note_on channel=4 note=62 velocity=0 time=0
EXTRACT: note_on channel=4 note=59 velocity=0 time=0
EXTRACT: note_on channel=2 note=62 velocity=102 time=0.07368409999999999
EXTRACT: note_on channel=9 note=69 velocity=73 time=0.005263149999999999
EXTRACT: note_on channel=3 note=62 velocity=121 time=0.005263149999999999
EXTRACT: note_on channel=9 note=69 velocity=0 time=0.04736835
EXTRACT: note_on channel=9 note=42 velocity=98 time=0.105263
EXTRACT: note_on channel=9 note=69 velocity=78 time=0
EXTRACT: note_on channel=1 note=35 velocity=115 time=0
EXTRACT: note_on channel=4 note=66 velocity=93 time=0
EXTRACT: note_on channel=4 note=62 velocity=115 time=0
EXTRACT: note_on channel=4 note=59 velocity=90 time=0
EXTRACT: note_on channel=4 note=54 velocity=97 time=0
EXTRACT: note_on channel=4 note=47 velocity=102 time=0
EXTRACT: note_on channel=7 note=66 velocity=110 time=0
EXTRACT: note_on channel=7 note=62 velocity=102 time=0
EXTRACT: note_on channel=7 note=59 velocity=74 time=0
EXTRACT: note_on channel=7 note=54 velocity=83 time=0
EXTRACT: note_on channel=7 note=47 velocity=87 time=0
EXTRACT: note_on channel=8 note=59 velocity=0 time=0
EXTRACT: note_on channel=8 note=61 velocity=118 time=0
EXTRACT: note_on channel=3 note=62 velocity=0 time=0.005263149999999999
EXTRACT: note_on channel=9 note=42 velocity=0 time=0.04736835
EXTRACT: note_on channel=9 note=69 velocity=0 time=0
EXTRACT: note_on channel=2 note=66 velocity=115 time=0.09999984999999999
EXTRACT: note_on channel=1 note=35 velocity=0 time=0.005263149999999999
EXTRACT: note_on channel=4 note=66 velocity=0 time=0
EXTRACT: note_on channel=4 note=62 velocity=0 time=0
EXTRACT: note_on channel=4 note=59 velocity=0 time=0
EXTRACT: note_on channel=4 note=54 velocity=0 time=0
EXTRACT: note_on channel=4 note=47 velocity=0 time=0
EXTRACT: note_on channel=7 note=66 velocity=0 time=0
EXTRACT: note_on channel=7 note=62 velocity=0 time=0
EXTRACT: note_on channel=7 note=59 velocity=0 time=0
EXTRACT: note_on channel=7 note=54 velocity=0 time=0
EXTRACT: note_on channel=7 note=47 velocity=0 time=0
EXTRACT: note_on channel=3 note=62 velocity=116 time=0.005263149999999999
EXTRACT: note_on channel=2 note=66 velocity=125 time=0.14736819999999998
EXTRACT: note_on channel=9 note=40 velocity=127 time=0.005263149999999999
EXTRACT: note_on channel=9 note=42 velocity=105 time=0
EXTRACT: note_on channel=9 note=69 velocity=66 time=0
EXTRACT: note_on channel=8 note=61 velocity=0 time=0
EXTRACT: note_on channel=8 note=62 velocity=114 time=0
EXTRACT: note_on channel=9 note=40 velocity=0 time=0.0526315
EXTRACT: note_on channel=9 note=42 velocity=0 time=0
EXTRACT: note_on channel=9 note=69 velocity=0 time=0
EXTRACT: note_on channel=4 note=66 velocity=45 time=0.105263
EXTRACT: note_on channel=4 note=62 velocity=71 time=0
EXTRACT: note_on channel=4 note=59 velocity=56 time=0
EXTRACT: note_on channel=4 note=66 velocity=0 time=0.07894725
EXTRACT: note_on channel=4 note=62 velocity=0 time=0
EXTRACT: note_on channel=4 note=59 velocity=0 time=0
EXTRACT: note_on channel=2 note=62 velocity=107 time=0.07368409999999999
EXTRACT: note_on channel=9 note=36 velocity=90 time=0.005263149999999999
EXTRACT: note_on channel=9 note=42 velocity=108 time=0
EXTRACT: note_on channel=1 note=38 velocity=124 time=0
EXTRACT: note_on channel=4 note=66 velocity=69 time=0
EXTRACT: note_on channel=4 note=62 velocity=80 time=0
EXTRACT: note_on channel=4 note=59 velocity=72 time=0
EXTRACT: note_on channel=4 note=54 velocity=68 time=0
EXTRACT: note_on channel=4 note=47 velocity=52 time=0
EXTRACT: note_on channel=8 note=62 velocity=0 time=0
EXTRACT: note_on channel=8 note=66 velocity=116 time=0
EXTRACT: note_on channel=9 note=36 velocity=0 time=0.0526315
EXTRACT: note_on channel=9 note=42 velocity=0 time=0
EXTRACT: note_on channel=4 note=66 velocity=0 time=0.02631575
EXTRACT: note_on channel=4 note=62 velocity=0 time=0
EXTRACT: note_on channel=4 note=59 velocity=0 time=0
EXTRACT: note_on channel=4 note=54 velocity=0 time=0
EXTRACT: note_on channel=4 note=47 velocity=0 time=0
EXTRACT: note_on channel=9 note=40 velocity=127 time=0.07894725
EXTRACT: note_on channel=1 note=38 velocity=0 time=0
EXTRACT: note_on channel=9 note=40 velocity=0 time=0.0526315
EXTRACT: note_on channel=2 note=47 velocity=0 time=0.09999984999999999
EXTRACT: note_on channel=2 note=62 velocity=0 time=0
EXTRACT: note_on channel=2 note=66 velocity=0 time=0
EXTRACT: note_on channel=2 note=62 velocity=0 time=0
EXTRACT: note_on channel=2 note=59 velocity=0 time=0
EXTRACT: note_on channel=2 note=62 velocity=0 time=0
EXTRACT: note_on channel=2 note=66 velocity=0 time=0
EXTRACT: note_on channel=2 note=66 velocity=0 time=0
EXTRACT: note_on channel=2 note=62 velocity=0 time=0
EXTRACT: note_on channel=2 note=40 velocity=121 time=0
EXTRACT: note_on channel=9 note=42 velocity=101 time=0.005263149999999999
EXTRACT: note_on channel=9 note=36 velocity=120 time=0
EXTRACT: note_on channel=1 note=40 velocity=109 time=0
EXTRACT: note_on channel=4 note=67 velocity=111 time=0
EXTRACT: note_on channel=4 note=62 velocity=101 time=0
EXTRACT: note_on channel=4 note=59 velocity=116 time=0
EXTRACT: note_on channel=4 note=55 velocity=108 time=0
EXTRACT: note_on channel=4 note=47 velocity=89 time=0
EXTRACT: note_on channel=7 note=67 velocity=85 time=0
EXTRACT: note_on channel=7 note=62 velocity=103 time=0
EXTRACT: note_on channel=7 note=59 velocity=77 time=0
EXTRACT: note_on channel=7 note=55 velocity=102 time=0
EXTRACT: note_on channel=7 note=47 velocity=101 time=0
EXTRACT: note_on channel=8 note=66 velocity=0 time=0
EXTRACT: note_on channel=8 note=62 velocity=127 time=0
EXTRACT: note_on channel=3 note=62 velocity=0 time=0.005263149999999999
EXTRACT: note_on channel=9 note=42 velocity=0 time=0.04736835
EXTRACT: note_on channel=9 note=36 velocity=0 time=0
EXTRACT: note_on channel=1 note=40 velocity=0 time=0.07894725
EXTRACT: note_on channel=2 note=62 velocity=123 time=0.17894709999999997
EXTRACT: note_on channel=9 note=42 velocity=104 time=0.005263149999999999
EXTRACT: note_on channel=1 note=40 velocity=108 time=0
EXTRACT: note_on channel=4 note=67 velocity=0 time=0
EXTRACT: note_on channel=4 note=62 velocity=0 time=0
EXTRACT: note_on channel=4 note=59 velocity=0 time=0
EXTRACT: note_on channel=4 note=55 velocity=0 time=0
EXTRACT: note_on channel=4 note=47 velocity=0 time=0
EXTRACT: note_on channel=7 note=67 velocity=0 time=0
EXTRACT: note_on channel=7 note=62 velocity=0 time=0
EXTRACT: note_on channel=7 note=59 velocity=0 time=0
EXTRACT: note_on channel=7 note=55 velocity=0 time=0
EXTRACT: note_on channel=7 note=47 velocity=0 time=0
EXTRACT: note_on channel=3 note=62 velocity=103 time=0.005263149999999999
EXTRACT: note_on channel=9 note=42 velocity=0 time=0.04736835
EXTRACT: note_on channel=1 note=40 velocity=0 time=0.09999984999999999
EXTRACT: note_on channel=2 note=67 velocity=125 time=0
EXTRACT: note_on channel=1 note=35 velocity=122 time=0.005263149999999999
EXTRACT: note_on channel=4 note=67 velocity=95 time=0
EXTRACT: note_on channel=4 note=62 velocity=92 time=0
EXTRACT: note_on channel=4 note=59 velocity=100 time=0
EXTRACT: note_on channel=4 note=55 velocity=85 time=0
EXTRACT: note_on channel=4 note=47 velocity=89 time=0
EXTRACT: note_on channel=7 note=67 velocity=108 time=0
EXTRACT: note_on channel=7 note=62 velocity=76 time=0
EXTRACT: note_on channel=7 note=59 velocity=101 time=0
EXTRACT: note_on channel=7 note=55 velocity=94 time=0
EXTRACT: note_on channel=7 note=47 velocity=87 time=0
EXTRACT: note_on channel=9 note=42 velocity=96 time=0.1578945
EXTRACT: note_on channel=9 note=40 velocity=127 time=0
EXTRACT: note_on channel=9 note=69 velocity=62 time=0
EXTRACT: note_on channel=1 note=35 velocity=0 time=0
EXTRACT: note_on channel=4 note=67 velocity=0 time=0
EXTRACT: note_on channel=4 note=62 velocity=0 time=0
EXTRACT: note_on channel=4 note=59 velocity=0 time=0
EXTRACT: note_on channel=4 note=55 velocity=0 time=0
EXTRACT: note_on channel=4 note=47 velocity=0 time=0
EXTRACT: note_on channel=7 note=67 velocity=0 time=0
EXTRACT: note_on channel=7 note=62 velocity=0 time=0
EXTRACT: note_on channel=7 note=59 velocity=0 time=0
EXTRACT: note_on channel=7 note=55 velocity=0 time=0
EXTRACT: note_on channel=7 note=47 velocity=0 time=0
EXTRACT: note_on channel=8 note=62 velocity=0 time=0
EXTRACT: note_on channel=8 note=69 velocity=120 time=0
EXTRACT: note_on channel=3 note=62 velocity=0 time=0.005263149999999999
EXTRACT: note_on channel=9 note=42 velocity=0 time=0.04736835
EXTRACT: note_on channel=9 note=40 velocity=0 time=0
EXTRACT: note_on channel=9 note=69 velocity=0 time=0
EXTRACT: note_on channel=2 note=62 velocity=106 time=0.09999984999999999
EXTRACT: note_on channel=9 note=69 velocity=70 time=0.005263149999999999
EXTRACT: note_on channel=1 note=35 velocity=111 time=0
EXTRACT: note_on channel=4 note=67 velocity=59 time=0
EXTRACT: note_on channel=4 note=62 velocity=64 time=0
EXTRACT: note_on channel=4 note=59 velocity=71 time=0
EXTRACT: note_on channel=4 note=55 velocity=70 time=0
EXTRACT: note_on channel=4 note=47 velocity=53 time=0
EXTRACT: note_on channel=8 note=69 velocity=0 time=0
EXTRACT: note_on channel=3 note=62 velocity=127 time=0.005263149999999999
EXTRACT: note_on channel=9 note=69 velocity=0 time=0.04736835
EXTRACT: note_on channel=4 note=67 velocity=0 time=0.02631575
EXTRACT: note_on channel=4 note=62 velocity=0 time=0
EXTRACT: note_on channel=4 note=59 velocity=0 time=0
EXTRACT: note_on channel=4 note=55 velocity=0 time=0
EXTRACT: note_on channel=4 note=47 velocity=0 time=0
EXTRACT: note_on channel=1 note=35 velocity=0 time=0.07368409999999999
EXTRACT: note_on channel=9 note=42 velocity=96 time=0.005263149999999999
EXTRACT: note_on channel=1 note=31 velocity=121 time=0
EXTRACT: note_on channel=4 note=67 velocity=51 time=0
EXTRACT: note_on channel=4 note=62 velocity=65 time=0
EXTRACT: note_on channel=4 note=59 velocity=53 time=0
EXTRACT: note_on channel=8 note=69 velocity=126 time=0
EXTRACT: note_on channel=3 note=62 velocity=0 time=0.005263149999999999
EXTRACT: note_on channel=3 note=61 velocity=127 time=0
EXTRACT: note_on channel=9 note=42 velocity=0 time=0.04736835
EXTRACT: note_on channel=4 note=67 velocity=0 time=0.02631575
EXTRACT: note_on channel=4 note=62 velocity=0 time=0
EXTRACT: note_on channel=4 note=59 velocity=0 time=0
EXTRACT: note_on channel=2 note=59 velocity=118 time=0.07368409999999999
EXTRACT: note_on channel=9 note=69 velocity=62 time=0.005263149999999999
EXTRACT: note_on channel=1 note=31 velocity=0 time=0
EXTRACT: note_on channel=4 note=67 velocity=75 time=0
EXTRACT: note_on channel=4 note=62 velocity=75 time=0
EXTRACT: note_on channel=4 note=59 velocity=65 time=0
EXTRACT: note_on channel=4 note=55 velocity=84 time=0
EXTRACT: note_on channel=4 note=47 velocity=51 time=0
EXTRACT: note_on channel=8 note=69 velocity=0 time=0
EXTRACT: note_on channel=3 note=61 velocity=0 time=0.005263149999999999
EXTRACT: note_on channel=3 note=59 velocity=116 time=0
EXTRACT: note_on channel=9 note=69 velocity=0 time=0.04736835
EXTRACT: note_on channel=4 note=67 velocity=0 time=0.02631575
EXTRACT: note_on channel=4 note=62 velocity=0 time=0
EXTRACT: note_on channel=4 note=59 velocity=0 time=0
EXTRACT: note_on channel=4 note=55 velocity=0 time=0
EXTRACT: note_on channel=4 note=47 velocity=0 time=0
EXTRACT: note_on channel=9 note=36 velocity=120 time=0.07894725
EXTRACT: note_on channel=9 note=42 velocity=104 time=0
EXTRACT: note_on channel=1 note=28 velocity=124 time=0
EXTRACT: note_on channel=4 note=67 velocity=44 time=0
EXTRACT: note_on channel=4 note=62 velocity=39 time=0
EXTRACT: note_on channel=4 note=59 velocity=54 time=0
EXTRACT: note_on channel=8 note=64 velocity=124 time=0
EXTRACT: note_on channel=3 note=59 velocity=0 time=0.005263149999999999
EXTRACT: note_on channel=9 note=36 velocity=0 time=0.04736835
EXTRACT: note_on channel=9 note=42 velocity=0 time=0
EXTRACT: note_on channel=4 note=67 velocity=0 time=0.02631575
EXTRACT: note_on channel=4 note=62 velocity=0 time=0
EXTRACT: note_on channel=4 note=59 velocity=0 time=0
EXTRACT: note_on channel=2 note=62 velocity=123 time=0.07368409999999999
EXTRACT: note_on channel=9 note=69 velocity=73 time=0.005263149999999999
EXTRACT: note_on channel=8 note=64 velocity=0 time=0
EXTRACT: note_on channel=3 note=62 velocity=124 time=0.005263149999999999
EXTRACT: note_on channel=9 note=69 velocity=0 time=0.04736835
EXTRACT: note_on channel=9 note=42 velocity=102 time=0.105263
EXTRACT: note_on channel=9 note=69 velocity=78 time=0
EXTRACT: note_on channel=1 note=28 velocity=0 time=0
EXTRACT: note_on channel=4 note=67 velocity=111 time=0
EXTRACT: note_on channel=4 note=62 velocity=115 time=0
EXTRACT: note_on channel=4 note=59 velocity=92 time=0
EXTRACT: note_on channel=4 note=55 velocity=102 time=0
EXTRACT: note_on channel=4 note=47 velocity=91 time=0
EXTRACT: note_on channel=7 note=67 velocity=87 time=0
EXTRACT: note_on channel=7 note=62 velocity=103 time=0
EXTRACT: note_on channel=7 note=59 velocity=87 time=0
EXTRACT: note_on channel=7 note=55 velocity=80 time=0
EXTRACT: note_on channel=7 note=47 velocity=99 time=0
EXTRACT: note_on channel=8 note=64 velocity=127 time=0
EXTRACT: note_on channel=3 note=62 velocity=0 time=0.005263149999999999
EXTRACT: note_on channel=9 note=42 velocity=0 time=0.04736835
EXTRACT: note_on channel=9 note=69 velocity=0 time=0
EXTRACT: note_on channel=2 note=67 velocity=127 time=0.09999984999999999
EXTRACT: note_on channel=4 note=67 velocity=0 time=0.005263149999999999
EXTRACT: note_on channel=4 note=62 velocity=0 time=0
EXTRACT: note_on channel=4 note=59 velocity=0 time=0
EXTRACT: note_on channel=4 note=55 velocity=0 time=0
EXTRACT: note_on channel=4 note=47 velocity=0 time=0
EXTRACT: note_on channel=7 note=67 velocity=0 time=0
EXTRACT: note_on channel=7 note=62 velocity=0 time=0
EXTRACT: note_on channel=7 note=59 velocity=0 time=0
EXTRACT: note_on channel=7 note=55 velocity=0 time=0
EXTRACT: note_on channel=7 note=47 velocity=0 time=0
EXTRACT: note_on channel=8 note=64 velocity=0 time=0
EXTRACT: note_on channel=3 note=62 velocity=104 time=0.005263149999999999
EXTRACT: note_on channel=2 note=67 velocity=116 time=0.14736819999999998
EXTRACT: note_on channel=9 note=40 velocity=127 time=0.005263149999999999
EXTRACT: note_on channel=9 note=42 velocity=106 time=0
EXTRACT: note_on channel=9 note=69 velocity=66 time=0
EXTRACT: note_on channel=8 note=62 velocity=119 time=0
EXTRACT: note_on channel=9 note=40 velocity=0 time=0.0526315
EXTRACT: note_on channel=9 note=42 velocity=0 time=0
EXTRACT: note_on channel=9 note=69 velocity=0 time=0
EXTRACT: note_on channel=4 note=67 velocity=63 time=0.105263
EXTRACT: note_on channel=4 note=62 velocity=70 time=0
EXTRACT: note_on channel=4 note=59 velocity=59 time=0
EXTRACT: note_on channel=8 note=62 velocity=0 time=0
EXTRACT: note_on channel=4 note=67 velocity=0 time=0.07894725
EXTRACT: note_on channel=4 note=62 velocity=0 time=0
EXTRACT: note_on channel=4 note=59 velocity=0 time=0
EXTRACT: note_on channel=2 note=62 velocity=102 time=0.07368409999999999
EXTRACT: note_on channel=9 note=42 velocity=97 time=0.005263149999999999
EXTRACT: note_on channel=1 note=28 velocity=126 time=0
EXTRACT: note_on channel=4 note=67 velocity=52 time=0
EXTRACT: note_on channel=4 note=62 velocity=61 time=0
EXTRACT: note_on channel=4 note=59 velocity=86 time=0
EXTRACT: note_on channel=4 note=55 velocity=82 time=0
EXTRACT: note_on channel=4 note=47 velocity=61 time=0
EXTRACT: note_on channel=8 note=66 velocity=123 time=0
EXTRACT: note_on channel=9 note=42 velocity=0 time=0.0526315
EXTRACT: note_on channel=4 note=67 velocity=0 time=0.02631575
EXTRACT: note_on channel=4 note=62 velocity=0 time=0
EXTRACT: note_on channel=4 note=59 velocity=0 time=0
EXTRACT: note_on channel=4 note=55 velocity=0 time=0
EXTRACT: note_on channel=4 note=47 velocity=0 time=0
EXTRACT: note_on channel=1 note=28 velocity=0 time=0.07894725
EXTRACT: note_on channel=8 note=66 velocity=0 time=0
EXTRACT: note_on channel=2 note=40 velocity=0 time=0.15263134999999997
EXTRACT: note_on channel=2 note=62 velocity=0 time=0
EXTRACT: note_on channel=2 note=67 velocity=0 time=0
EXTRACT: note_on channel=2 note=62 velocity=0 time=0
EXTRACT: note_on channel=2 note=59 velocity=0 time=0
EXTRACT: note_on channel=2 note=62 velocity=0 time=0
EXTRACT: note_on channel=2 note=67 velocity=0 time=0
EXTRACT: note_on channel=2 note=67 velocity=0 time=0
EXTRACT: note_on channel=2 note=62 velocity=0 time=0
EXTRACT: note_on channel=2 note=57 velocity=102 time=0
EXTRACT: note_on channel=2 note=54 velocity=107 time=0
EXTRACT: note_on channel=9 note=42 velocity=94 time=0.005263149999999999
EXTRACT: note_on channel=9 note=36 velocity=120 time=0
EXTRACT: note_on channel=1 note=30 velocity=124 time=0
EXTRACT: note_on channel=4 note=64 velocity=95 time=0
EXTRACT: note_on channel=4 note=61 velocity=114 time=0
EXTRACT: note_on channel=4 note=57 velocity=92 time=0
EXTRACT: note_on channel=4 note=54 velocity=89 time=0
EXTRACT: note_on channel=7 note=64 velocity=100 time=0
EXTRACT: note_on channel=7 note=61 velocity=91 time=0
EXTRACT: note_on channel=7 note=57 velocity=75 time=0
EXTRACT: note_on channel=7 note=54 velocity=88 time=0
EXTRACT: note_on channel=8 note=66 velocity=117 time=0
EXTRACT: note_on channel=3 note=62 velocity=0 time=0.005263149999999999
EXTRACT: note_on channel=9 note=42 velocity=0 time=0.04736835
EXTRACT: note_on channel=9 note=36 velocity=0 time=0
EXTRACT: note_on channel=1 note=30 velocity=0 time=0.15263134999999997
EXTRACT: note_on channel=1 note=30 velocity=121 time=0.005263149999999999
EXTRACT: note_on channel=2 note=61 velocity=112 time=0.09999984999999999
EXTRACT: note_on channel=9 note=42 velocity=82 time=0.005263149999999999
EXTRACT: note_on channel=9 note=42 velocity=108 time=0
EXTRACT: note_on channel=4 note=64 velocity=0 time=0
EXTRACT: note_on channel=4 note=61 velocity=0 time=0
EXTRACT: note_on channel=4 note=57 velocity=0 time=0
EXTRACT: note_on channel=4 note=54 velocity=0 time=0
EXTRACT: note_on channel=7 note=64 velocity=0 time=0
EXTRACT: note_on channel=7 note=61 velocity=0 time=0
EXTRACT: note_on channel=7 note=57 velocity=0 time=0
EXTRACT: note_on channel=7 note=54 velocity=0 time=0
EXTRACT: note_on channel=8 note=66 velocity=0 time=0
EXTRACT: note_on channel=8 note=66 velocity=121 time=0
EXTRACT: note_on channel=3 note=61 velocity=113 time=0.005263149999999999
EXTRACT: note_on channel=9 note=42 velocity=0 time=0.04736835
EXTRACT: note_on channel=9 note=42 velocity=0 time=0
EXTRACT: note_on channel=1 note=30 velocity=0 time=0.04736835
EXTRACT: note_on channel=1 note=30 velocity=111 time=0.005263149999999999
EXTRACT: note_on channel=2 note=64 velocity=115 time=0.04736835
EXTRACT: note_on channel=4 note=64 velocity=117 time=0.005263149999999999
EXTRACT: note_on channel=4 note=61 velocity=93 time=0
EXTRACT: note_on channel=4 note=57 velocity=114 time=0
EXTRACT: note_on channel=4 note=54 velocity=104 time=0
EXTRACT: note_on channel=7 note=64 velocity=90 time=0
EXTRACT: note_on channel=7 note=61 velocity=82 time=0
EXTRACT: note_on channel=7 note=57 velocity=93 time=0
EXTRACT: note_on channel=7 note=54 velocity=103 time=0
EXTRACT: note_on channel=8 note=66 velocity=0 time=0
EXTRACT: note_on channel=8 note=66 velocity=124 time=0
EXTRACT: note_on channel=1 note=30 velocity=0 time=0.15263134999999997
EXTRACT: note_on channel=9 note=40 velocity=127 time=0.005263149999999999
EXTRACT: note_on channel=9 note=42 velocity=93 time=0
EXTRACT: note_on channel=9 note=69 velocity=62 time=0
EXTRACT: note_on channel=1 note=37 velocity=121 time=0
EXTRACT: note_on channel=4 note=64 velocity=0 time=0
EXTRACT: note_on channel=4 note=61 velocity=0 time=0
EXTRACT: note_on channel=4 note=57 velocity=0 time=0
EXTRACT: note_on channel=4 note=54 velocity=0 time=0
EXTRACT: note_on channel=7 note=64 velocity=0 time=0
EXTRACT: note_on channel=7 note=61 velocity=0 time=0
EXTRACT: note_on channel=7 note=57 velocity=0 time=0
EXTRACT: note_on channel=7 note=54 velocity=0 time=0
EXTRACT: note_on channel=8 note=66 velocity=0 time=0
EXTRACT: note_on channel=8 note=64 velocity=123 time=0
EXTRACT: note_on channel=3 note=61 velocity=0 time=0.005263149999999999
EXTRACT: note_on channel=9 note=40 velocity=0 time=0.04736835
EXTRACT: note_on channel=9 note=42 velocity=0 time=0
EXTRACT: note_on channel=9 note=69 velocity=0 time=0
EXTRACT: note_on channel=2 note=61 velocity=118 time=0.09999984999999999
EXTRACT: note_on channel=9 note=69 velocity=70 time=0.005263149999999999
EXTRACT: note_on channel=4 note=64 velocity=74 time=0
EXTRACT: note_on channel=4 note=61 velocity=84 time=0
EXTRACT: note_on channel=4 note=57 velocity=57 time=0
EXTRACT: note_on channel=4 note=54 velocity=87 time=0
EXTRACT: note_on channel=3 note=61 velocity=119 time=0.005263149999999999
EXTRACT: note_on channel=9 note=69 velocity=0 time=0.04736835
EXTRACT: note_on channel=1 note=37 velocity=0 time=0.02631575
EXTRACT: note_on channel=4 note=64 velocity=0 time=0
EXTRACT: note_on channel=4 note=61 velocity=0 time=0
EXTRACT: note_on channel=4 note=57 velocity=0 time=0
EXTRACT: note_on channel=4 note=54 velocity=0 time=0
EXTRACT: note_on channel=9 note=42 velocity=100 time=0.07894725
EXTRACT: note_on channel=1 note=42 velocity=121 time=0
EXTRACT: note_on channel=4 note=64 velocity=68 time=0
EXTRACT: note_on channel=4 note=61 velocity=66 time=0
EXTRACT: note_on channel=4 note=57 velocity=58 time=0
EXTRACT: note_on channel=9 note=42 velocity=0 time=0.0526315
EXTRACT: note_on channel=4 note=64 velocity=0 time=0.02631575
EXTRACT: note_on channel=4 note=61 velocity=0 time=0
EXTRACT: note_on channel=4 note=57 velocity=0 time=0
EXTRACT: note_on channel=2 note=57 velocity=103 time=0.07368409999999999
EXTRACT: note_on channel=9 note=69 velocity=62 time=0.005263149999999999
EXTRACT: note_on channel=4 note=64 velocity=55 time=0
EXTRACT: note_on channel=4 note=61 velocity=57 time=0
EXTRACT: note_on channel=4 note=57 velocity=89 time=0
EXTRACT: note_on channel=4 note=54 velocity=83 time=0
EXTRACT: note_on channel=3 note=61 velocity=0 time=0.005263149999999999
EXTRACT: note_on channel=9 note=69 velocity=0 time=0.04736835
EXTRACT: note_on channel=1 note=42 velocity=0 time=0.02631575
EXTRACT: note_on channel=4 note=64 velocity=0 time=0
EXTRACT: note_on channel=4 note=61 velocity=0 time=0
EXTRACT: note_on channel=4 note=57 velocity=0 time=0
EXTRACT: note_on channel=4 note=54 velocity=0 time=0
EXTRACT: note_on channel=2 note=61 velocity=112 time=0.07368409999999999
EXTRACT: note_on channel=9 note=36 velocity=120 time=0.005263149999999999
EXTRACT: note_on channel=9 note=42 velocity=103 time=0
EXTRACT: note_on channel=1 note=37 velocity=111 time=0
EXTRACT: note_on channel=4 note=64 velocity=44 time=0
EXTRACT: note_on channel=4 note=61 velocity=60 time=0
EXTRACT: note_on channel=4 note=57 velocity=60 time=0
EXTRACT: note_on channel=8 note=64 velocity=0 time=0
EXTRACT: note_on channel=3 note=61 velocity=115 time=0.005263149999999999
EXTRACT: note_on channel=9 note=36 velocity=0 time=0.04736835
EXTRACT: note_on channel=9 note=42 velocity=0 time=0
EXTRACT: note_on channel=4 note=64 velocity=0 time=0.02631575
EXTRACT: note_on channel=4 note=61 velocity=0 time=0
EXTRACT: note_on channel=4 note=57 velocity=0 time=0
EXTRACT: note_on channel=2 note=64 velocity=109 time=0.07368409999999999
EXTRACT: note_on channel=9 note=69 velocity=73 time=0.005263149999999999
EXTRACT: note_on channel=9 note=69 velocity=0 time=0.0526315
EXTRACT: note_on channel=2 note=66 velocity=105 time=0.09999984999999999
EXTRACT: note_on channel=9 note=36 velocity=120 time=0.005263149999999999
EXTRACT: note_on channel=9 note=42 velocity=100 time=0
EXTRACT: note_on channel=9 note=69 velocity=78 time=0
EXTRACT: note_on channel=4 note=64 velocity=110 time=0
EXTRACT: note_on channel=4 note=61 velocity=105 time=0
EXTRACT: note_on channel=4 note=57 velocity=103 time=0
EXTRACT: note_on channel=4 note=54 velocity=109 time=0
EXTRACT: note_on channel=7 note=64 velocity=93 time=0
EXTRACT: note_on channel=7 note=61 velocity=87 time=0
EXTRACT: note_on channel=7 note=57 velocity=78 time=0
EXTRACT: note_on channel=7 note=54 velocity=77 time=0
EXTRACT: note_on channel=9 note=36 velocity=0 time=0.0526315
EXTRACT: note_on channel=9 note=42 velocity=0 time=0
EXTRACT: note_on channel=9 note=69 velocity=0 time=0
EXTRACT: note_on channel=1 note=37 velocity=0 time=0.04736835
EXTRACT: note_on channel=1 note=42 velocity=115 time=0.005263149999999999
EXTRACT: note_on channel=2 note=69 velocity=121 time=0.04736835
EXTRACT: note_on channel=4 note=64 velocity=0 time=0.005263149999999999
EXTRACT: note_on channel=4 note=61 velocity=0 time=0
EXTRACT: note_on channel=4 note=57 velocity=0 time=0
EXTRACT: note_on channel=4 note=54 velocity=0 time=0
EXTRACT: note_on channel=7 note=64 velocity=0 time=0
EXTRACT: note_on channel=7 note=61 velocity=0 time=0
EXTRACT: note_on channel=7 note=57 velocity=0 time=0
EXTRACT: note_on channel=7 note=54 velocity=0 time=0
EXTRACT: note_on channel=9 note=40 velocity=127 time=0.1578945
EXTRACT: note_on channel=9 note=42 velocity=110 time=0
EXTRACT: note_on channel=9 note=69 velocity=66 time=0
EXTRACT: note_on channel=9 note=40 velocity=0 time=0.0526315
EXTRACT: note_on channel=9 note=42 velocity=0 time=0
EXTRACT: note_on channel=9 note=69 velocity=0 time=0
EXTRACT: note_on channel=4 note=64 velocity=50 time=0.105263
EXTRACT: note_on channel=4 note=61 velocity=50 time=0
EXTRACT: note_on channel=4 note=57 velocity=54 time=0
EXTRACT: note_on channel=1 note=42 velocity=0 time=0.04736835
EXTRACT: note_on channel=1 note=49 velocity=119 time=0.005263149999999999
EXTRACT: note_on channel=4 note=64 velocity=0 time=0.02631575
EXTRACT: note_on channel=4 note=61 velocity=0 time=0
EXTRACT: note_on channel=4 note=57 velocity=0 time=0
EXTRACT: note_on channel=9 note=36 velocity=90 time=0.07894725
EXTRACT: note_on channel=9 note=42 velocity=106 time=0
EXTRACT: note_on channel=4 note=64 velocity=81 time=0
EXTRACT: note_on channel=4 note=61 velocity=62 time=0
EXTRACT: note_on channel=4 note=57 velocity=70 time=0
EXTRACT: note_on channel=4 note=54 velocity=56 time=0
EXTRACT: note_on channel=10 note=74 velocity=126 time=0
EXTRACT: note_on channel=3 note=61 velocity=83 time=0.005263149999999999
EXTRACT: note_on channel=9 note=36 velocity=0 time=0.04736835
EXTRACT: note_on channel=9 note=42 velocity=0 time=0
EXTRACT: note_on channel=4 note=64 velocity=0 time=0.02631575
EXTRACT: note_on channel=4 note=61 velocity=0 time=0
EXTRACT: note_on channel=4 note=57 velocity=0 time=0
EXTRACT: note_on channel=4 note=54 velocity=0 time=0
EXTRACT: note_on channel=9 note=40 velocity=127 time=0.07894725
EXTRACT: note_on channel=9 note=40 velocity=0 time=0.0526315
EXTRACT: note_on channel=1 note=49 velocity=0 time=0.09999984999999999
EXTRACT: note_on channel=2 note=57 velocity=0 time=0
EXTRACT: note_on channel=2 note=54 velocity=0 time=0
EXTRACT: note_on channel=2 note=61 velocity=0 time=0
EXTRACT: note_on channel=2 note=64 velocity=0 time=0
EXTRACT: note_on channel=2 note=61 velocity=0 time=0
EXTRACT: note_on channel=2 note=57 velocity=0 time=0
EXTRACT: note_on channel=2 note=61 velocity=0 time=0
EXTRACT: note_on channel=2 note=64 velocity=0 time=0
EXTRACT: note_on channel=2 note=66 velocity=0 time=0
EXTRACT: note_on channel=2 note=69 velocity=0 time=0
EXTRACT: note_on channel=2 note=47 velocity=111 time=0
EXTRACT: note_on channel=1 note=35 velocity=109 time=0.005263149999999999
EXTRACT: note_on channel=4 note=66 velocity=101 time=0
EXTRACT: note_on channel=4 note=62 velocity=105 time=0
EXTRACT: note_on channel=4 note=59 velocity=110 time=0
EXTRACT: note_on channel=4 note=54 velocity=87 time=0
EXTRACT: note_on channel=4 note=47 velocity=98 time=0
EXTRACT: control_change channel=6 control=11 value=40 time=0
EXTRACT: note_on channel=6 note=59 velocity=120 time=0
EXTRACT: note_on channel=6 note=62 velocity=112 time=0
EXTRACT: note_on channel=6 note=66 velocity=126 time=0
EXTRACT: note_on channel=7 note=66 velocity=97 time=0
EXTRACT: note_on channel=7 note=62 velocity=79 time=0
EXTRACT: note_on channel=7 note=59 velocity=86 time=0
EXTRACT: note_on channel=7 note=54 velocity=86 time=0
EXTRACT: note_on channel=7 note=47 velocity=90 time=0
EXTRACT: note_on channel=11 note=59 velocity=102 time=0
EXTRACT: note_on channel=3 note=61 velocity=0 time=0.005263149999999999
EXTRACT: note_on channel=3 note=61 velocity=0 time=0
EXTRACT: control_change channel=6 control=11 value=41 time=0.02631575
EXTRACT: control_change channel=6 control=11 value=42 time=0.03157889999999999
EXTRACT: control_change channel=6 control=11 value=43 time=0.03157889999999999
EXTRACT: control_change channel=6 control=11 value=44 time=0.03157889999999999
EXTRACT: note_on channel=1 note=35 velocity=0 time=0.02631575
EXTRACT: note_on channel=1 note=35 velocity=114 time=0.005263149999999999
EXTRACT: control_change channel=6 control=11 value=45 time=0
EXTRACT: control_change channel=6 control=11 value=46 time=0.03157889999999999
EXTRACT: control_change channel=6 control=11 value=47 time=0.03157889999999999
EXTRACT: control_change channel=6 control=11 value=48 time=0.03157889999999999
EXTRACT: control_change channel=6 control=11 value=49 time=0.03157889999999999
EXTRACT: note_on channel=2 note=62 velocity=116 time=0.02631575
EXTRACT: note_on channel=1 note=35 velocity=0 time=0.005263149999999999
EXTRACT: note_on channel=4 note=66 velocity=0 time=0
EXTRACT: note_on channel=4 note=62 velocity=0 time=0
EXTRACT: note_on channel=4 note=59 velocity=0 time=0
EXTRACT: note_on channel=4 note=54 velocity=0 time=0
EXTRACT: note_on channel=4 note=47 velocity=0 time=0
EXTRACT: control_change channel=6 control=11 value=50 time=0
EXTRACT: note_on channel=7 note=66 velocity=0 time=0
EXTRACT: note_on channel=7 note=62 velocity=0 time=0
EXTRACT: note_on channel=7 note=59 velocity=0 time=0
EXTRACT: note_on channel=7 note=54 velocity=0 time=0
EXTRACT: note_on channel=7 note=47 velocity=0 time=0
EXTRACT: note_on channel=10 note=74 velocity=0 time=0
EXTRACT: note_on channel=10 note=71 velocity=122 time=0
EXTRACT: note_on channel=3 note=62 velocity=109 time=0.005263149999999999
EXTRACT: control_change channel=6 control=11 value=51 time=0.02631575
EXTRACT: control_change channel=6 control=11 value=52 time=0.03157889999999999
EXTRACT: control_change channel=6 control=11 value=53 time=0.03157889999999999
EXTRACT: control_change channel=6 control=11 value=54 time=0.03157889999999999
EXTRACT: note_on channel=2 note=66 velocity=120 time=0.02631575
EXTRACT: note_on channel=1 note=42 velocity=108 time=0.005263149999999999
EXTRACT: note_on channel=4 note=66 velocity=99 time=0
EXTRACT: note_on channel=4 note=62 velocity=94 time=0
EXTRACT: note_on channel=4 note=59 velocity=102 time=0
EXTRACT: note_on channel=4 note=54 velocity=98 time=0
EXTRACT: note_on channel=4 note=47 velocity=110 time=0
EXTRACT: control_change channel=6 control=11 value=55 time=0
EXTRACT: note_on channel=7 note=66 velocity=94 time=0
EXTRACT: note_on channel=7 note=62 velocity=86 time=0
EXTRACT: note_on channel=7 note=59 velocity=106 time=0
EXTRACT: note_on channel=7 note=54 velocity=84 time=0
EXTRACT: note_on channel=7 note=47 velocity=88 time=0
EXTRACT: note_on channel=11 note=59 velocity=0 time=0
EXTRACT: note_on channel=11 note=59 velocity=105 time=0
EXTRACT: control_change channel=6 control=11 value=56 time=0.03157889999999999
EXTRACT: control_change channel=6 control=11 value=57 time=0.03157889999999999
EXTRACT: note_on channel=10 note=71 velocity=0 time=0.015789449999999997
EXTRACT: control_change channel=6 control=11 value=58 time=0.015789449999999997
EXTRACT: control_change channel=6 control=11 value=59 time=0.03157889999999999
EXTRACT: note_on channel=1 note=42 velocity=0 time=0.03157889999999999
EXTRACT: note_on channel=4 note=66 velocity=0 time=0
EXTRACT: note_on channel=4 note=62 velocity=0 time=0
EXTRACT: note_on channel=4 note=59 velocity=0 time=0
EXTRACT: note_on channel=4 note=54 velocity=0 time=0
EXTRACT: note_on channel=4 note=47 velocity=0 time=0
EXTRACT: control_change channel=6 control=11 value=60 time=0
EXTRACT: note_on channel=7 note=66 velocity=0 time=0
EXTRACT: note_on channel=7 note=62 velocity=0 time=0
EXTRACT: note_on channel=7 note=59 velocity=0 time=0
EXTRACT: note_on channel=7 note=54 velocity=0 time=0
EXTRACT: note_on channel=7 note=47 velocity=0 time=0
EXTRACT: note_on channel=10 note=71 velocity=124 time=0
EXTRACT: note_on channel=3 note=62 velocity=0 time=0.005263149999999999
EXTRACT: control_change channel=6 control=11 value=61 time=0.02631575
EXTRACT: control_change channel=6 control=11 value=62 time=0.03157889999999999
EXTRACT: control_change channel=6 control=11 value=63 time=0.03157889999999999
EXTRACT: control_change channel=6 control=11 value=64 time=0.03157889999999999
EXTRACT: note_on channel=2 note=62 velocity=103 time=0.02631575
EXTRACT: note_on channel=1 note=42 velocity=112 time=0.005263149999999999
EXTRACT: note_on channel=4 note=66 velocity=54 time=0
EXTRACT: note_on channel=4 note=62 velocity=58 time=0
EXTRACT: note_on channel=4 note=59 velocity=82 time=0
EXTRACT: note_on channel=4 note=54 velocity=69 time=0
EXTRACT: note_on channel=4 note=47 velocity=80 time=0
EXTRACT: control_change channel=6 control=11 value=65 time=0
EXTRACT: note_on channel=3 note=62 velocity=123 time=0.005263149999999999
EXTRACT: control_change channel=6 control=11 value=66 time=0.02631575
EXTRACT: control_change channel=6 control=11 value=67 time=0.03157889999999999
EXTRACT: note_on channel=4 note=66 velocity=0 time=0.015789449999999997
EXTRACT: note_on channel=4 note=62 velocity=0 time=0
EXTRACT: note_on channel=4 note=59 velocity=0 time=0
EXTRACT: note_on channel=4 note=54 velocity=0 time=0
EXTRACT: note_on channel=4 note=47 velocity=0 time=0
EXTRACT: control_change channel=6 control=11 value=68 time=0.015789449999999997
EXTRACT: control_change channel=6 control=11 value=69 time=0.03157889999999999
EXTRACT: note_on channel=1 note=42 velocity=0 time=0.02631575
EXTRACT: note_on channel=1 note=38 velocity=122 time=0.005263149999999999
EXTRACT: note_on channel=4 note=66 velocity=57 time=0
EXTRACT: note_on channel=4 note=62 velocity=51 time=0
EXTRACT: note_on channel=4 note=59 velocity=62 time=0
EXTRACT: control_change channel=6 control=11 value=70 time=0
EXTRACT: note_on channel=10 note=71 velocity=0 time=0
EXTRACT: note_on channel=10 note=69 velocity=113 time=0
EXTRACT: note_on channel=11 note=59 velocity=0 time=0
EXTRACT: note_on channel=11 note=59 velocity=108 time=0
EXTRACT: note_on channel=3 note=62 velocity=0 time=0.005263149999999999
EXTRACT: note_on channel=3 note=61 velocity=117 time=0
EXTRACT: control_change channel=6 control=11 value=71 time=0.02631575
EXTRACT: control_change channel=6 control=11 value=72 time=0.03157889999999999
EXTRACT: note_on channel=4 note=66 velocity=0 time=0.015789449999999997
EXTRACT: note_on channel=4 note=62 velocity=0 time=0
EXTRACT: note_on channel=4 note=59 velocity=0 time=0
EXTRACT: control_change channel=6 control=11 value=73 time=0.015789449999999997
EXTRACT: control_change channel=6 control=11 value=74 time=0.03157889999999999
EXTRACT: note_on channel=2 note=59 velocity=122 time=0.02631575
EXTRACT: note_on channel=1 note=38 velocity=0 time=0.005263149999999999
EXTRACT: note_on channel=4 note=66 velocity=86 time=0
EXTRACT: note_on channel=4 note=62 velocity=51 time=0
EXTRACT: note_on channel=4 note=59 velocity=53 time=0
EXTRACT: note_on channel=4 note=54 velocity=71 time=0
EXTRACT: note_on channel=4 note=47 velocity=58 time=0
EXTRACT: control_change channel=6 control=11 value=75 time=0
EXTRACT: note_on channel=11 note=59 velocity=0 time=0
EXTRACT: note_on channel=3 note=61 velocity=0 time=0.005263149999999999
EXTRACT: note_on channel=3 note=59 velocity=118 time=0
EXTRACT: control_change channel=6 control=11 value=76 time=0.02631575
EXTRACT: control_change channel=6 control=11 value=77 time=0.03157889999999999
EXTRACT: note_on channel=4 note=66 velocity=0 time=0.015789449999999997
EXTRACT: note_on channel=4 note=62 velocity=0 time=0
EXTRACT: note_on channel=4 note=59 velocity=0 time=0
EXTRACT: note_on channel=4 note=54 velocity=0 time=0
EXTRACT: note_on channel=4 note=47 velocity=0 time=0
EXTRACT: control_change channel=6 control=11 value=78 time=0.015789449999999997
EXTRACT: control_change channel=6 control=11 value=79 time=0.03157889999999999
EXTRACT: note_on channel=1 note=35 velocity=112 time=0.03157889999999999
EXTRACT: note_on channel=4 note=66 velocity=39 time=0
EXTRACT: note_on channel=4 note=62 velocity=44 time=0
EXTRACT: note_on channel=4 note=59 velocity=55 time=0
EXTRACT: control_change channel=6 control=11 value=80 time=0
EXTRACT: note_on channel=11 note=62 velocity=121 time=0
EXTRACT: note_on channel=3 note=59 velocity=0 time=0.005263149999999999
EXTRACT: note_on channel=4 note=66 velocity=0 time=0.07368409999999999
EXTRACT: note_on channel=4 note=62 velocity=0 time=0
EXTRACT: note_on channel=4 note=59 velocity=0 time=0
EXTRACT: note_on channel=2 note=62 velocity=127 time=0.07368409999999999
EXTRACT: note_on channel=11 note=62 velocity=0 time=0.005263149999999999
EXTRACT: note_on channel=3 note=62 velocity=120 time=0.005263149999999999
EXTRACT: note_on channel=1 note=35 velocity=0 time=0.15263134999999997
EXTRACT: note_on channel=4 note=66 velocity=90 time=0
EXTRACT: note_on channel=4 note=62 velocity=96 time=0
EXTRACT: note_on channel=4 note=59 velocity=96 time=0
EXTRACT: note_on channel=4 note=54 velocity=108 time=0
EXTRACT: note_on channel=4 note=47 velocity=111 time=0
EXTRACT: note_on channel=7 note=66 velocity=86 time=0
EXTRACT: note_on channel=7 note=62 velocity=89 time=0
EXTRACT: note_on channel=7 note=59 velocity=75 time=0
EXTRACT: note_on channel=7 note=54 velocity=91 time=0
EXTRACT: note_on channel=7 note=47 velocity=79 time=0
EXTRACT: note_on channel=11 note=59 velocity=104 time=0
EXTRACT: note_on channel=3 note=62 velocity=0 time=0.005263149999999999
EXTRACT: note_on channel=2 note=66 velocity=112 time=0.14736819999999998
EXTRACT: note_on channel=4 note=66 velocity=0 time=0.005263149999999999
EXTRACT: note_on channel=4 note=62 velocity=0 time=0
EXTRACT: note_on channel=4 note=59 velocity=0 time=0
EXTRACT: note_on channel=4 note=54 velocity=0 time=0
EXTRACT: note_on channel=4 note=47 velocity=0 time=0
EXTRACT: note_on channel=7 note=66 velocity=0 time=0
EXTRACT: note_on channel=7 note=62 velocity=0 time=0
EXTRACT: note_on channel=7 note=59 velocity=0 time=0
EXTRACT: note_on channel=7 note=54 velocity=0 time=0
EXTRACT: note_on channel=7 note=47 velocity=0 time=0
EXTRACT: note_on channel=11 note=59 velocity=0 time=0
EXTRACT: note_on channel=3 note=62 velocity=103 time=0.005263149999999999
EXTRACT: note_on channel=2 note=66 velocity=114 time=0.14736819999999998
EXTRACT: note_on channel=9 note=40 velocity=127 time=0.005263149999999999
EXTRACT: note_on channel=10 note=69 velocity=0 time=0
EXTRACT: note_on channel=10 note=66 velocity=111 time=0
EXTRACT: note_on channel=11 note=59 velocity=124 time=0
EXTRACT: note_on channel=9 note=40 velocity=0 time=0.0526315
EXTRACT: note_on channel=4 note=66 velocity=49 time=0.105263
EXTRACT: note_on channel=4 note=62 velocity=48 time=0
EXTRACT: note_on channel=4 note=59 velocity=54 time=0
EXTRACT: note_on channel=4 note=66 velocity=0 time=0.07894725
EXTRACT: note_on channel=4 note=62 velocity=0 time=0
EXTRACT: note_on channel=4 note=59 velocity=0 time=0
EXTRACT: note_on channel=2 note=62 velocity=122 time=0.07368409999999999
EXTRACT: note_on channel=1 note=30 velocity=117 time=0.005263149999999999
EXTRACT: note_on channel=4 note=66 velocity=58 time=0
EXTRACT: note_on channel=4 note=62 velocity=80 time=0
EXTRACT: note_on channel=4 note=59 velocity=90 time=0
EXTRACT: note_on channel=4 note=54 velocity=52 time=0
EXTRACT: note_on channel=4 note=47 velocity=64 time=0
EXTRACT: note_on channel=10 note=66 velocity=0 time=0
EXTRACT: note_on channel=10 note=74 velocity=124 time=0
EXTRACT: note_on channel=11 note=59 velocity=0 time=0
EXTRACT: note_on channel=4 note=66 velocity=0 time=0.07894725
EXTRACT: note_on channel=4 note=62 velocity=0 time=0
EXTRACT: note_on channel=4 note=59 velocity=0 time=0
EXTRACT: note_on channel=4 note=54 velocity=0 time=0
EXTRACT: note_on channel=4 note=47 velocity=0 time=0
EXTRACT: note_on channel=1 note=30 velocity=0 time=0.07894725
EXTRACT: note_on channel=2 note=47 velocity=0 time=0.15263134999999997
EXTRACT: note_on channel=2 note=62 velocity=0 time=0
EXTRACT: note_on channel=2 note=66 velocity=0 time=0
EXTRACT: note_on channel=2 note=62 velocity=0 time=0
EXTRACT: note_on channel=2 note=59 velocity=0 time=0
EXTRACT: note_on channel=2 note=62 velocity=0 time=0
EXTRACT: note_on channel=2 note=66 velocity=0 time=0
EXTRACT: note_on channel=2 note=66 velocity=0 time=0
EXTRACT: note_on channel=2 note=47 velocity=119 time=0
EXTRACT: note_on channel=9 note=42 velocity=90 time=0.005263149999999999
EXTRACT: note_on channel=9 note=36 velocity=120 time=0
EXTRACT: note_on channel=1 note=35 velocity=115 time=0
EXTRACT: note_on channel=4 note=66 velocity=117 time=0
EXTRACT: note_on channel=4 note=62 velocity=99 time=0
EXTRACT: note_on channel=4 note=59 velocity=92 time=0
EXTRACT: note_on channel=4 note=54 velocity=117 time=0
EXTRACT: note_on channel=4 note=47 velocity=85 time=0
EXTRACT: note_on channel=7 note=66 velocity=74 time=0
EXTRACT: note_on channel=7 note=62 velocity=78 time=0
EXTRACT: note_on channel=7 note=59 velocity=74 time=0
EXTRACT: note_on channel=7 note=54 velocity=102 time=0
EXTRACT: note_on channel=7 note=47 velocity=108 time=0
EXTRACT: note_on channel=11 note=59 velocity=117 time=0
EXTRACT: note_on channel=3 note=62 velocity=0 time=0.005263149999999999
EXTRACT: note_on channel=9 note=42 velocity=0 time=0.04736835
EXTRACT: note_on channel=9 note=36 velocity=0 time=0
EXTRACT: note_on channel=1 note=35 velocity=0 time=0.18421025
EXTRACT: note_on channel=2 note=62 velocity=0 time=0.07368409999999999
EXTRACT: note_on channel=2 note=62 velocity=114 time=0
EXTRACT: note_on channel=9 note=42 velocity=106 time=0.005263149999999999
EXTRACT: note_on channel=4 note=66 velocity=0 time=0
EXTRACT: note_on channel=4 note=62 velocity=0 time=0
EXTRACT: note_on channel=4 note=59 velocity=0 time=0
EXTRACT: note_on channel=4 note=54 velocity=0 time=0
EXTRACT: note_on channel=4 note=47 velocity=0 time=0
EXTRACT: note_on channel=7 note=66 velocity=0 time=0
EXTRACT: note_on channel=7 note=62 velocity=0 time=0
EXTRACT: note_on channel=7 note=59 velocity=0 time=0
EXTRACT: note_on channel=7 note=54 velocity=0 time=0
EXTRACT: note_on channel=7 note=47 velocity=0 time=0
EXTRACT: note_on channel=10 note=74 velocity=0 time=0
EXTRACT: note_on channel=10 note=71 velocity=104 time=0
EXTRACT: note_on channel=3 note=62 velocity=117 time=0.005263149999999999
EXTRACT: note_on channel=9 note=42 velocity=0 time=0.04736835
EXTRACT: note_on channel=2 note=66 velocity=117 time=0.09999984999999999
EXTRACT: note_on channel=1 note=35 velocity=108 time=0.005263149999999999
EXTRACT: note_on channel=4 note=66 velocity=99 time=0
EXTRACT: note_on channel=4 note=62 velocity=109 time=0
EXTRACT: note_on channel=4 note=59 velocity=88 time=0
EXTRACT: note_on channel=4 note=54 velocity=106 time=0
EXTRACT: note_on channel=4 note=47 velocity=96 time=0
EXTRACT: note_on channel=7 note=66 velocity=107 time=0
EXTRACT: note_on channel=7 note=62 velocity=109 time=0
EXTRACT: note_on channel=7 note=59 velocity=90 time=0
EXTRACT: note_on channel=7 note=54 velocity=84 time=0
EXTRACT: note_on channel=7 note=47 velocity=88 time=0
EXTRACT: note_on channel=10 note=71 velocity=0 time=0
EXTRACT: note_on channel=10 note=69 velocity=110 time=0
EXTRACT: note_on channel=11 note=59 velocity=0 time=0
EXTRACT: note_on channel=11 note=59 velocity=112 time=0
EXTRACT: note_on channel=9 note=42 velocity=96 time=0.1578945
EXTRACT: note_on channel=9 note=40 velocity=127 time=0
EXTRACT: note_on channel=9 note=69 velocity=62 time=0
EXTRACT: note_on channel=1 note=35 velocity=0 time=0
EXTRACT: note_on channel=4 note=66 velocity=0 time=0
EXTRACT: note_on channel=4 note=62 velocity=0 time=0
EXTRACT: note_on channel=4 note=59 velocity=0 time=0
EXTRACT: note_on channel=4 note=54 velocity=0 time=0
EXTRACT: note_on channel=4 note=47 velocity=0 time=0
EXTRACT: note_on channel=7 note=66 velocity=0 time=0
EXTRACT: note_on channel=7 note=62 velocity=0 time=0
EXTRACT: note_on channel=7 note=59 velocity=0 time=0
EXTRACT: note_on channel=7 note=54 velocity=0 time=0
EXTRACT: note_on channel=7 note=47 velocity=0 time=0
EXTRACT: note_on channel=10 note=69 velocity=0 time=0
EXTRACT: note_on channel=10 note=71 velocity=111 time=0
EXTRACT: note_on channel=3 note=62 velocity=0 time=0.005263149999999999
EXTRACT: note_on channel=9 note=42 velocity=0 time=0.04736835
EXTRACT: note_on channel=9 note=40 velocity=0 time=0
EXTRACT: note_on channel=9 note=69 velocity=0 time=0
EXTRACT: note_on channel=2 note=62 velocity=113 time=0.09999984999999999
EXTRACT: note_on channel=9 note=69 velocity=70 time=0.005263149999999999
EXTRACT: note_on channel=4 note=66 velocity=59 time=0
EXTRACT: note_on channel=4 note=62 velocity=61 time=0
EXTRACT: note_on channel=4 note=59 velocity=68 time=0
EXTRACT: note_on channel=4 note=54 velocity=87 time=0
EXTRACT: note_on channel=4 note=47 velocity=86 time=0
EXTRACT: note_on channel=10 note=71 velocity=0 time=0
EXTRACT: note_on channel=3 note=62 velocity=102 time=0.005263149999999999
EXTRACT: note_on channel=9 note=69 velocity=0 time=0.04736835
EXTRACT: note_on channel=4 note=66 velocity=0 time=0.02631575
EXTRACT: note_on channel=4 note=62 velocity=0 time=0
EXTRACT: note_on channel=4 note=59 velocity=0 time=0
EXTRACT: note_on channel=4 note=54 velocity=0 time=0
EXTRACT: note_on channel=4 note=47 velocity=0 time=0
EXTRACT: note_on channel=9 note=42 velocity=98 time=0.07894725
EXTRACT: note_on channel=4 note=66 velocity=45 time=0
EXTRACT: note_on channel=4 note=62 velocity=54 time=0
EXTRACT: note_on channel=4 note=59 velocity=49 time=0
EXTRACT: note_on channel=10 note=71 velocity=121 time=0
EXTRACT: note_on channel=11 note=59 velocity=0 time=0
EXTRACT: note_on channel=11 note=59 velocity=113 time=0
EXTRACT: note_on channel=3 note=62 velocity=0 time=0.005263149999999999
EXTRACT: note_on channel=3 note=61 velocity=122 time=0
EXTRACT: note_on channel=9 note=42 velocity=0 time=0.04736835
EXTRACT: note_on channel=4 note=66 velocity=0 time=0.02631575
EXTRACT: note_on channel=4 note=62 velocity=0 time=0
EXTRACT: note_on channel=4 note=59 velocity=0 time=0
EXTRACT: note_on channel=2 note=59 velocity=123 time=0.07368409999999999
EXTRACT: note_on channel=9 note=69 velocity=62 time=0.005263149999999999
EXTRACT: note_on channel=4 note=66 velocity=72 time=0
EXTRACT: note_on channel=4 note=62 velocity=60 time=0
EXTRACT: note_on channel=4 note=59 velocity=74 time=0
EXTRACT: note_on channel=4 note=54 velocity=57 time=0
EXTRACT: note_on channel=4 note=47 velocity=70 time=0
EXTRACT: note_on channel=10 note=71 velocity=0 time=0
EXTRACT: note_on channel=11 note=59 velocity=0 time=0
EXTRACT: note_on channel=3 note=61 velocity=0 time=0.005263149999999999
EXTRACT: note_on channel=3 note=59 velocity=118 time=0
EXTRACT: note_on channel=9 note=69 velocity=0 time=0.04736835
EXTRACT: note_on channel=4 note=66 velocity=0 time=0.02631575
EXTRACT: note_on channel=4 note=62 velocity=0 time=0
EXTRACT: note_on channel=4 note=59 velocity=0 time=0
EXTRACT: note_on channel=4 note=54 velocity=0 time=0
EXTRACT: note_on channel=4 note=47 velocity=0 time=0
EXTRACT: note_on channel=9 note=36 velocity=120 time=0.07894725
EXTRACT: note_on channel=9 note=42 velocity=100 time=0
EXTRACT: note_on channel=4 note=66 velocity=52 time=0
EXTRACT: note_on channel=4 note=62 velocity=59 time=0
EXTRACT: note_on channel=4 note=59 velocity=51 time=0
EXTRACT: note_on channel=11 note=62 velocity=122 time=0
EXTRACT: note_on channel=3 note=59 velocity=0 time=0.005263149999999999
EXTRACT: note_on channel=9 note=36 velocity=0 time=0.04736835
EXTRACT: note_on channel=9 note=42 velocity=0 time=0
EXTRACT: note_on channel=4 note=66 velocity=0 time=0.02631575
EXTRACT: note_on channel=4 note=62 velocity=0 time=0
EXTRACT: note_on channel=4 note=59 velocity=0 time=0
EXTRACT: note_on channel=2 note=62 velocity=123 time=0.07368409999999999
EXTRACT: note_on channel=9 note=69 velocity=73 time=0.005263149999999999
EXTRACT: note_on channel=11 note=62 velocity=0 time=0
EXTRACT: note_on channel=3 note=62 velocity=122 time=0.005263149999999999
EXTRACT: note_on channel=9 note=69 velocity=0 time=0.04736835
EXTRACT: note_on channel=9 note=42 velocity=102 time=0.105263
EXTRACT: note_on channel=9 note=69 velocity=78 time=0
EXTRACT: note_on channel=1 note=35 velocity=117 time=0
EXTRACT: note_on channel=4 note=66 velocity=88 time=0
EXTRACT: note_on channel=4 note=62 velocity=99 time=0
EXTRACT: note_on channel=4 note=59 velocity=89 time=0
EXTRACT: note_on channel=4 note=54 velocity=96 time=0
EXTRACT: note_on channel=4 note=47 velocity=105 time=0
EXTRACT: note_on channel=7 note=66 velocity=99 time=0
EXTRACT: note_on channel=7 note=62 velocity=106 time=0
EXTRACT: note_on channel=7 note=59 velocity=112 time=0
EXTRACT: note_on channel=7 note=54 velocity=104 time=0
EXTRACT: note_on channel=7 note=47 velocity=104 time=0
EXTRACT: note_on channel=10 note=66 velocity=116 time=0
EXTRACT: note_on channel=11 note=59 velocity=112 time=0
EXTRACT: note_on channel=3 note=62 velocity=0 time=0.005263149999999999
EXTRACT: note_on channel=9 note=42 velocity=0 time=0.04736835
EXTRACT: note_on channel=9 note=69 velocity=0 time=0
EXTRACT: note_on channel=2 note=66 velocity=109 time=0.09999984999999999
EXTRACT: note_on channel=1 note=35 velocity=0 time=0.005263149999999999
EXTRACT: note_on channel=4 note=66 velocity=0 time=0
EXTRACT: note_on channel=4 note=62 velocity=0 time=0
EXTRACT: note_on channel=4 note=59 velocity=0 time=0
EXTRACT: note_on channel=4 note=54 velocity=0 time=0
EXTRACT: note_on channel=4 note=47 velocity=0 time=0
EXTRACT: note_on channel=7 note=66 velocity=0 time=0
EXTRACT: note_on channel=7 note=62 velocity=0 time=0
EXTRACT: note_on channel=7 note=59 velocity=0 time=0
EXTRACT: note_on channel=7 note=54 velocity=0 time=0
EXTRACT: note_on channel=7 note=47 velocity=0 time=0
EXTRACT: note_on channel=10 note=66 velocity=0 time=0
EXTRACT: note_on channel=11 note=59 velocity=0 time=0
EXTRACT: note_on channel=3 note=62 velocity=111 time=0.005263149999999999
EXTRACT: note_on channel=2 note=66 velocity=105 time=0.14736819999999998
EXTRACT: note_on channel=9 note=40 velocity=127 time=0.005263149999999999
EXTRACT: note_on channel=9 note=42 velocity=96 time=0
EXTRACT: note_on channel=9 note=69 velocity=66 time=0
EXTRACT: note_on channel=10 note=69 velocity=106 time=0
EXTRACT: note_on channel=11 note=59 velocity=126 time=0
EXTRACT: note_on channel=9 note=40 velocity=0 time=0.0526315
EXTRACT: note_on channel=9 note=42 velocity=0 time=0
EXTRACT: note_on channel=9 note=69 velocity=0 time=0
EXTRACT: note_on channel=4 note=66 velocity=58 time=0.105263
EXTRACT: note_on channel=4 note=62 velocity=51 time=0
EXTRACT: note_on channel=4 note=59 velocity=66 time=0
EXTRACT: note_on channel=10 note=69 velocity=0 time=0
EXTRACT: note_on channel=4 note=66 velocity=0 time=0.07894725
EXTRACT: note_on channel=4 note=62 velocity=0 time=0
EXTRACT: note_on channel=4 note=59 velocity=0 time=0
EXTRACT: note_on channel=2 note=62 velocity=118 time=0.07368409999999999
EXTRACT: note_on channel=9 note=36 velocity=90 time=0.005263149999999999
EXTRACT: note_on channel=9 note=42 velocity=92 time=0
EXTRACT: note_on channel=1 note=38 velocity=123 time=0
EXTRACT: note_on channel=4 note=66 velocity=52 time=0
EXTRACT: note_on channel=4 note=62 velocity=83 time=0
EXTRACT: note_on channel=4 note=59 velocity=74 time=0
EXTRACT: note_on channel=4 note=54 velocity=53 time=0
EXTRACT: note_on channel=4 note=47 velocity=63 time=0
EXTRACT: note_on channel=10 note=71 velocity=127 time=0
EXTRACT: note_on channel=11 note=59 velocity=0 time=0
EXTRACT: note_on channel=9 note=36 velocity=0 time=0.0526315
EXTRACT: note_on channel=9 note=42 velocity=0 time=0
EXTRACT: note_on channel=4 note=66 velocity=0 time=0.02631575
EXTRACT: note_on channel=4 note=62 velocity=0 time=0
EXTRACT: note_on channel=4 note=59 velocity=0 time=0
EXTRACT: note_on channel=4 note=54 velocity=0 time=0
EXTRACT: note_on channel=4 note=47 velocity=0 time=0
EXTRACT: note_on channel=9 note=40 velocity=127 time=0.07894725
EXTRACT: note_on channel=1 note=38 velocity=0 time=0
EXTRACT: note_on channel=9 note=40 velocity=0 time=0.0526315
EXTRACT: note_on channel=2 note=47 velocity=0 time=0.09999984999999999
EXTRACT: note_on channel=2 note=62 velocity=0 time=0
EXTRACT: note_on channel=2 note=66 velocity=0 time=0
EXTRACT: note_on channel=2 note=62 velocity=0 time=0
EXTRACT: note_on channel=2 note=59 velocity=0 time=0
EXTRACT: note_on channel=2 note=62 velocity=0 time=0
EXTRACT: note_on channel=2 note=66 velocity=0 time=0
EXTRACT: note_on channel=2 note=66 velocity=0 time=0
EXTRACT: note_on channel=2 note=62 velocity=0 time=0
EXTRACT: note_on channel=2 note=40 velocity=117 time=0
EXTRACT: note_on channel=9 note=42 velocity=92 time=0.005263149999999999
EXTRACT: note_on channel=9 note=36 velocity=120 time=0
EXTRACT: note_on channel=1 note=40 velocity=111 time=0
EXTRACT: note_on channel=4 note=67 velocity=112 time=0
EXTRACT: note_on channel=4 note=62 velocity=88 time=0
EXTRACT: note_on channel=4 note=59 velocity=101 time=0
EXTRACT: note_on channel=4 note=55 velocity=101 time=0
EXTRACT: note_on channel=4 note=47 velocity=106 time=0
EXTRACT: note_on channel=6 note=59 velocity=0 time=0
EXTRACT: note_on channel=6 note=62 velocity=0 time=0
EXTRACT: note_on channel=6 note=66 velocity=0 time=0
EXTRACT: note_on channel=6 note=59 velocity=112 time=0
EXTRACT: note_on channel=6 note=62 velocity=122 time=0
EXTRACT: note_on channel=6 note=67 velocity=119 time=0
EXTRACT: note_on channel=7 note=67 velocity=95 time=0
EXTRACT: note_on channel=7 note=62 velocity=107 time=0
EXTRACT: note_on channel=7 note=59 velocity=93 time=0
EXTRACT: note_on channel=7 note=55 velocity=97 time=0
EXTRACT: note_on channel=7 note=47 velocity=88 time=0
EXTRACT: note_on channel=11 note=59 velocity=122 time=0
EXTRACT: note_on channel=3 note=62 velocity=0 time=0.005263149999999999
EXTRACT: note_on channel=9 note=42 velocity=0 time=0.04736835
EXTRACT: note_on channel=9 note=36 velocity=0 time=0
EXTRACT: note_on channel=1 note=40 velocity=0 time=0.07894725
EXTRACT: note_on channel=11 note=59 velocity=0 time=0.02631575
EXTRACT: note_on channel=2 note=62 velocity=111 time=0.15263134999999997
EXTRACT: note_on channel=9 note=42 velocity=93 time=0.005263149999999999
EXTRACT: note_on channel=1 note=40 velocity=120 time=0
EXTRACT: note_on channel=4 note=67 velocity=0 time=0
EXTRACT: note_on channel=4 note=62 velocity=0 time=0
EXTRACT: note_on channel=4 note=59 velocity=0 time=0
EXTRACT: note_on channel=4 note=55 velocity=0 time=0
EXTRACT: note_on channel=4 note=47 velocity=0 time=0
EXTRACT: note_on channel=7 note=67 velocity=0 time=0
EXTRACT: note_on channel=7 note=62 velocity=0 time=0
EXTRACT: note_on channel=7 note=59 velocity=0 time=0
EXTRACT: note_on channel=7 note=55 velocity=0 time=0
EXTRACT: note_on channel=7 note=47 velocity=0 time=0
EXTRACT: note_on channel=10 note=71 velocity=0 time=0
EXTRACT: note_on channel=10 note=66 velocity=103 time=0
EXTRACT: note_on channel=11 note=59 velocity=110 time=0
EXTRACT: note_on channel=3 note=62 velocity=110 time=0.005263149999999999
EXTRACT: note_on channel=9 note=42 velocity=0 time=0.04736835
EXTRACT: note_on channel=1 note=40 velocity=0 time=0.09999984999999999
EXTRACT: note_on channel=2 note=67 velocity=108 time=0
EXTRACT: note_on channel=1 note=35 velocity=116 time=0.005263149999999999
EXTRACT: note_on channel=4 note=67 velocity=96 time=0
EXTRACT: note_on channel=4 note=62 velocity=86 time=0
EXTRACT: note_on channel=4 note=59 velocity=86 time=0
EXTRACT: note_on channel=4 note=55 velocity=107 time=0
EXTRACT: note_on channel=4 note=47 velocity=86 time=0
EXTRACT: note_on channel=7 note=67 velocity=94 time=0
EXTRACT: note_on channel=7 note=62 velocity=100 time=0
EXTRACT: note_on channel=7 note=59 velocity=74 time=0
EXTRACT: note_on channel=7 note=55 velocity=88 time=0
EXTRACT: note_on channel=7 note=47 velocity=89 time=0
EXTRACT: note_on channel=11 note=59 velocity=0 time=0
EXTRACT: note_on channel=9 note=42 velocity=95 time=0.1578945
EXTRACT: note_on channel=9 note=40 velocity=127 time=0
EXTRACT: note_on channel=9 note=69 velocity=62 time=0
EXTRACT: note_on channel=1 note=35 velocity=0 time=0
EXTRACT: note_on channel=4 note=67 velocity=0 time=0
EXTRACT: note_on channel=4 note=62 velocity=0 time=0
EXTRACT: note_on channel=4 note=59 velocity=0 time=0
EXTRACT: note_on channel=4 note=55 velocity=0 time=0
EXTRACT: note_on channel=4 note=47 velocity=0 time=0
EXTRACT: note_on channel=7 note=67 velocity=0 time=0
EXTRACT: note_on channel=7 note=62 velocity=0 time=0
EXTRACT: note_on channel=7 note=59 velocity=0 time=0
EXTRACT: note_on channel=7 note=55 velocity=0 time=0
EXTRACT: note_on channel=7 note=47 velocity=0 time=0
EXTRACT: note_on channel=10 note=66 velocity=0 time=0
EXTRACT: note_on channel=11 note=59 velocity=116 time=0
EXTRACT: note_on channel=3 note=62 velocity=0 time=0.005263149999999999
EXTRACT: note_on channel=9 note=42 velocity=0 time=0.04736835
EXTRACT: note_on channel=9 note=40 velocity=0 time=0
EXTRACT: note_on channel=9 note=69 velocity=0 time=0
EXTRACT: note_on channel=2 note=62 velocity=126 time=0.09999984999999999
EXTRACT: note_on channel=9 note=69 velocity=70 time=0.005263149999999999
EXTRACT: note_on channel=1 note=35 velocity=118 time=0
EXTRACT: note_on channel=4 note=67 velocity=70 time=0
EXTRACT: note_on channel=4 note=62 velocity=76 time=0
EXTRACT: note_on channel=4 note=59 velocity=83 time=0
EXTRACT: note_on channel=4 note=55 velocity=64 time=0
EXTRACT: note_on channel=4 note=47 velocity=76 time=0
EXTRACT: note_on channel=11 note=59 velocity=0 time=0
EXTRACT: note_on channel=3 note=62 velocity=107 time=0.005263149999999999
EXTRACT: note_on channel=9 note=69 velocity=0 time=0.04736835
EXTRACT: note_on channel=4 note=67 velocity=0 time=0.02631575
EXTRACT: note_on channel=4 note=62 velocity=0 time=0
EXTRACT: note_on channel=4 note=59 velocity=0 time=0
EXTRACT: note_on channel=4 note=55 velocity=0 time=0
EXTRACT: note_on channel=4 note=47 velocity=0 time=0
EXTRACT: note_on channel=1 note=35 velocity=0 time=0.07368409999999999
EXTRACT: note_on channel=9 note=42 velocity=100 time=0.005263149999999999
EXTRACT: note_on channel=1 note=31 velocity=123 time=0
EXTRACT: note_on channel=4 note=67 velocity=50 time=0
EXTRACT: note_on channel=4 note=62 velocity=62 time=0
EXTRACT: note_on channel=4 note=59 velocity=43 time=0
EXTRACT: note_on channel=10 note=64 velocity=105 time=0
EXTRACT: note_on channel=11 note=59 velocity=112 time=0
EXTRACT: note_on channel=3 note=62 velocity=0 time=0.005263149999999999
EXTRACT: note_on channel=3 note=61 velocity=108 time=0
EXTRACT: note_on channel=9 note=42 velocity=0 time=0.04736835
EXTRACT: note_on channel=4 note=67 velocity=0 time=0.02631575
EXTRACT: note_on channel=4 note=62 velocity=0 time=0
EXTRACT: note_on channel=4 note=59 velocity=0 time=0
EXTRACT: note_on channel=2 note=59 velocity=127 time=0.07368409999999999
EXTRACT: note_on channel=9 note=69 velocity=62 time=0.005263149999999999
EXTRACT: note_on channel=1 note=31 velocity=0 time=0
EXTRACT: note_on channel=4 note=67 velocity=70 time=0
EXTRACT: note_on channel=4 note=62 velocity=53 time=0
EXTRACT: note_on channel=4 note=59 velocity=74 time=0
EXTRACT: note_on channel=4 note=55 velocity=76 time=0
EXTRACT: note_on channel=4 note=47 velocity=65 time=0
EXTRACT: note_on channel=11 note=59 velocity=0 time=0
EXTRACT: note_on channel=3 note=61 velocity=0 time=0.005263149999999999
EXTRACT: note_on channel=3 note=59 velocity=112 time=0
EXTRACT: note_on channel=9 note=69 velocity=0 time=0.04736835
EXTRACT: note_on channel=4 note=67 velocity=0 time=0.02631575
EXTRACT: note_on channel=4 note=62 velocity=0 time=0
EXTRACT: note_on channel=4 note=59 velocity=0 time=0
EXTRACT: note_on channel=4 note=55 velocity=0 time=0
EXTRACT: note_on channel=4 note=47 velocity=0 time=0
EXTRACT: note_on channel=9 note=36 velocity=120 time=0.07894725
EXTRACT: note_on channel=9 note=42 velocity=106 time=0
EXTRACT: note_on channel=1 note=28 velocity=109 time=0
EXTRACT: note_on channel=4 note=67 velocity=40 time=0
EXTRACT: note_on channel=4 note=62 velocity=66 time=0
EXTRACT: note_on channel=4 note=59 velocity=41 time=0
EXTRACT: note_on channel=10 note=64 velocity=0 time=0
EXTRACT: note_on channel=3 note=59 velocity=0 time=0.005263149999999999
EXTRACT: note_on channel=9 note=36 velocity=0 time=0.04736835
EXTRACT: note_on channel=9 note=42 velocity=0 time=0
EXTRACT: note_on channel=4 note=67 velocity=0 time=0.02631575
EXTRACT: note_on channel=4 note=62 velocity=0 time=0
EXTRACT: note_on channel=4 note=59 velocity=0 time=0
EXTRACT: note_on channel=2 note=62 velocity=120 time=0.07368409999999999
EXTRACT: note_on channel=9 note=69 velocity=73 time=0.005263149999999999
EXTRACT: note_on channel=3 note=62 velocity=120 time=0.005263149999999999
EXTRACT: note_on channel=9 note=69 velocity=0 time=0.04736835
EXTRACT: note_on channel=9 note=42 velocity=95 time=0.105263
EXTRACT: note_on channel=9 note=69 velocity=78 time=0
EXTRACT: note_on channel=1 note=28 velocity=0 time=0
EXTRACT: note_on channel=4 note=67 velocity=106 time=0
EXTRACT: note_on channel=4 note=62 velocity=102 time=0
EXTRACT: note_on channel=4 note=59 velocity=95 time=0
EXTRACT: note_on channel=4 note=55 velocity=104 time=0
EXTRACT: note_on channel=4 note=47 velocity=107 time=0
EXTRACT: note_on channel=7 note=67 velocity=83 time=0
EXTRACT: note_on channel=7 note=62 velocity=77 time=0
EXTRACT: note_on channel=7 note=59 velocity=87 time=0
EXTRACT: note_on channel=7 note=55 velocity=79 time=0
EXTRACT: note_on channel=7 note=47 velocity=78 time=0
EXTRACT: note_on channel=3 note=62 velocity=0 time=0.005263149999999999
EXTRACT: note_on channel=9 note=42 velocity=0 time=0.04736835
EXTRACT: note_on channel=9 note=69 velocity=0 time=0
EXTRACT: note_on channel=2 note=67 velocity=112 time=0.09999984999999999
EXTRACT: note_on channel=4 note=67 velocity=0 time=0.005263149999999999
EXTRACT: note_on channel=4 note=62 velocity=0 time=0
EXTRACT: note_on channel=4 note=59 velocity=0 time=0
EXTRACT: note_on channel=4 note=55 velocity=0 time=0
EXTRACT: note_on channel=4 note=47 velocity=0 time=0
EXTRACT: note_on channel=7 note=67 velocity=0 time=0
EXTRACT: note_on channel=7 note=62 velocity=0 time=0
EXTRACT: note_on channel=7 note=59 velocity=0 time=0
EXTRACT: note_on channel=7 note=55 velocity=0 time=0
EXTRACT: note_on channel=7 note=47 velocity=0 time=0
EXTRACT: note_on channel=3 note=62 velocity=125 time=0.005263149999999999
EXTRACT: note_on channel=2 note=67 velocity=102 time=0.14736819999999998
EXTRACT: note_on channel=9 note=40 velocity=127 time=0.005263149999999999
EXTRACT: note_on channel=9 note=42 velocity=101 time=0
EXTRACT: note_on channel=9 note=69 velocity=66 time=0
EXTRACT: note_on channel=11 note=59 velocity=126 time=0
EXTRACT: note_on channel=9 note=40 velocity=0 time=0.0526315
EXTRACT: note_on channel=9 note=42 velocity=0 time=0
EXTRACT: note_on channel=9 note=69 velocity=0 time=0
EXTRACT: note_on channel=4 note=67 velocity=53 time=0.105263
EXTRACT: note_on channel=4 note=62 velocity=62 time=0
EXTRACT: note_on channel=4 note=59 velocity=68 time=0
EXTRACT: note_on channel=11 note=59 velocity=0 time=0
EXTRACT: note_on channel=4 note=67 velocity=0 time=0.07894725
EXTRACT: note_on channel=4 note=62 velocity=0 time=0
EXTRACT: note_on channel=4 note=59 velocity=0 time=0
EXTRACT: note_on channel=2 note=62 velocity=109 time=0.07368409999999999
EXTRACT: note_on channel=9 note=42 velocity=94 time=0.005263149999999999
EXTRACT: note_on channel=1 note=28 velocity=117 time=0
EXTRACT: note_on channel=4 note=67 velocity=56 time=0
EXTRACT: note_on channel=4 note=62 velocity=90 time=0
EXTRACT: note_on channel=4 note=59 velocity=66 time=0
EXTRACT: note_on channel=4 note=55 velocity=65 time=0
EXTRACT: note_on channel=4 note=47 velocity=81 time=0
EXTRACT: note_on channel=10 note=62 velocity=109 time=0
EXTRACT: note_on channel=11 note=59 velocity=112 time=0
EXTRACT: note_on channel=9 note=42 velocity=0 time=0.0526315
EXTRACT: note_on channel=4 note=67 velocity=0 time=0.02631575
EXTRACT: note_on channel=4 note=62 velocity=0 time=0
EXTRACT: note_on channel=4 note=59 velocity=0 time=0
EXTRACT: note_on channel=4 note=55 velocity=0 time=0
EXTRACT: note_on channel=4 note=47 velocity=0 time=0
EXTRACT: note_on channel=1 note=28 velocity=0 time=0.07894725
EXTRACT: note_on channel=11 note=59 velocity=0 time=0
EXTRACT: note_on channel=10 note=62 velocity=0 time=0.07894725
EXTRACT: note_on channel=2 note=40 velocity=0 time=0.07368409999999999
EXTRACT: note_on channel=2 note=62 velocity=0 time=0
EXTRACT: note_on channel=2 note=67 velocity=0 time=0
EXTRACT: note_on channel=2 note=62 velocity=0 time=0
EXTRACT: note_on channel=2 note=59 velocity=0 time=0
EXTRACT: note_on channel=2 note=62 velocity=0 time=0
EXTRACT: note_on channel=2 note=67 velocity=0 time=0
EXTRACT: note_on channel=2 note=67 velocity=0 time=0
EXTRACT: note_on channel=2 note=62 velocity=0 time=0
EXTRACT: note_on channel=2 note=57 velocity=89 time=0
EXTRACT: note_on channel=2 note=54 velocity=112 time=0
EXTRACT: note_on channel=9 note=42 velocity=95 time=0.005263149999999999
EXTRACT: note_on channel=9 note=36 velocity=120 time=0
EXTRACT: note_on channel=1 note=30 velocity=120 time=0
EXTRACT: note_on channel=4 note=64 velocity=87 time=0
EXTRACT: note_on channel=4 note=61 velocity=102 time=0
EXTRACT: note_on channel=4 note=57 velocity=111 time=0
EXTRACT: note_on channel=4 note=54 velocity=86 time=0
EXTRACT: note_on channel=6 note=59 velocity=0 time=0
EXTRACT: note_on channel=6 note=62 velocity=0 time=0
EXTRACT: note_on channel=6 note=67 velocity=0 time=0
EXTRACT: note_on channel=6 note=57 velocity=99 time=0
EXTRACT: note_on channel=6 note=61 velocity=112 time=0
EXTRACT: note_on channel=6 note=66 velocity=112 time=0
EXTRACT: note_on channel=7 note=64 velocity=101 time=0
EXTRACT: note_on channel=7 note=61 velocity=89 time=0
EXTRACT: note_on channel=7 note=57 velocity=107 time=0
EXTRACT: note_on channel=7 note=54 velocity=90 time=0
EXTRACT: note_on channel=10 note=62 velocity=107 time=0
EXTRACT: note_on channel=11 note=62 velocity=110 time=0
EXTRACT: note_on channel=3 note=62 velocity=0 time=0.005263149999999999
EXTRACT: note_on channel=9 note=42 velocity=0 time=0.04736835
EXTRACT: note_on channel=9 note=36 velocity=0 time=0
EXTRACT: note_on channel=10 note=62 velocity=0 time=0.105263
EXTRACT: note_on channel=10 note=64 velocity=109 time=0
EXTRACT: note_on channel=11 note=62 velocity=0 time=0
EXTRACT: note_on channel=1 note=30 velocity=0 time=0.04736835
EXTRACT: note_on channel=1 note=30 velocity=122 time=0.005263149999999999
EXTRACT: note_on channel=2 note=61 velocity=127 time=0.09999984999999999
EXTRACT: note_on channel=9 note=42 velocity=99 time=0.005263149999999999
EXTRACT: note_on channel=4 note=64 velocity=0 time=0
EXTRACT: note_on channel=4 note=61 velocity=0 time=0
EXTRACT: note_on channel=4 note=57 velocity=0 time=0
EXTRACT: note_on channel=4 note=54 velocity=0 time=0
EXTRACT: note_on channel=7 note=64 velocity=0 time=0
EXTRACT: note_on channel=7 note=61 velocity=0 time=0
EXTRACT: note_on channel=7 note=57 velocity=0 time=0
EXTRACT: note_on channel=7 note=54 velocity=0 time=0
EXTRACT: note_on channel=10 note=64 velocity=0 time=0
EXTRACT: note_on channel=11 note=59 velocity=112 time=0
EXTRACT: note_on channel=3 note=61 velocity=116 time=0.005263149999999999
EXTRACT: note_on channel=9 note=42 velocity=0 time=0.04736835
EXTRACT: note_on channel=1 note=30 velocity=0 time=0.04736835
EXTRACT: note_on channel=1 note=30 velocity=127 time=0.005263149999999999
EXTRACT: note_on channel=2 note=64 velocity=104 time=0.04736835
EXTRACT: note_on channel=4 note=64 velocity=106 time=0.005263149999999999
EXTRACT: note_on channel=4 note=61 velocity=105 time=0
EXTRACT: note_on channel=4 note=57 velocity=97 time=0
EXTRACT: note_on channel=4 note=54 velocity=116 time=0
EXTRACT: note_on channel=7 note=64 velocity=75 time=0
EXTRACT: note_on channel=7 note=61 velocity=87 time=0
EXTRACT: note_on channel=7 note=57 velocity=79 time=0
EXTRACT: note_on channel=7 note=54 velocity=110 time=0
EXTRACT: note_on channel=10 note=64 velocity=125 time=0
EXTRACT: note_on channel=11 note=59 velocity=0 time=0
EXTRACT: note_on channel=1 note=30 velocity=0 time=0.15263134999999997
EXTRACT: note_on channel=9 note=42 velocity=95 time=0.005263149999999999
EXTRACT: note_on channel=9 note=40 velocity=127 time=0
EXTRACT: note_on channel=9 note=69 velocity=62 time=0
EXTRACT: note_on channel=1 note=37 velocity=119 time=0
EXTRACT: note_on channel=4 note=64 velocity=0 time=0
EXTRACT: note_on channel=4 note=61 velocity=0 time=0
EXTRACT: note_on channel=4 note=57 velocity=0 time=0
EXTRACT: note_on channel=4 note=54 velocity=0 time=0
EXTRACT: note_on channel=7 note=64 velocity=0 time=0
EXTRACT: note_on channel=7 note=61 velocity=0 time=0
EXTRACT: note_on channel=7 note=57 velocity=0 time=0
EXTRACT: note_on channel=7 note=54 velocity=0 time=0
EXTRACT: note_on channel=10 note=64 velocity=0 time=0
EXTRACT: note_on channel=11 note=59 velocity=106 time=0
EXTRACT: note_on channel=3 note=61 velocity=0 time=0.005263149999999999
EXTRACT: note_on channel=9 note=42 velocity=0 time=0.04736835
EXTRACT: note_on channel=9 note=40 velocity=0 time=0
EXTRACT: note_on channel=9 note=69 velocity=0 time=0
EXTRACT: note_on channel=2 note=61 velocity=124 time=0.09999984999999999
EXTRACT: note_on channel=9 note=69 velocity=70 time=0.005263149999999999
EXTRACT: note_on channel=4 note=64 velocity=75 time=0
EXTRACT: note_on channel=4 note=61 velocity=70 time=0
EXTRACT: note_on channel=4 note=57 velocity=60 time=0
EXTRACT: note_on channel=4 note=54 velocity=89 time=0
EXTRACT: note_on channel=11 note=59 velocity=0 time=0
EXTRACT: note_on channel=3 note=61 velocity=109 time=0.005263149999999999
EXTRACT: note_on channel=9 note=69 velocity=0 time=0.04736835
EXTRACT: note_on channel=1 note=37 velocity=0 time=0.02631575
EXTRACT: note_on channel=4 note=64 velocity=0 time=0
EXTRACT: note_on channel=4 note=61 velocity=0 time=0
EXTRACT: note_on channel=4 note=57 velocity=0 time=0
EXTRACT: note_on channel=4 note=54 velocity=0 time=0
EXTRACT: note_on channel=9 note=42 velocity=110 time=0.07894725
EXTRACT: note_on channel=1 note=42 velocity=121 time=0
EXTRACT: note_on channel=4 note=64 velocity=41 time=0
EXTRACT: note_on channel=4 note=61 velocity=64 time=0
EXTRACT: note_on channel=4 note=57 velocity=55 time=0
EXTRACT: note_on channel=10 note=62 velocity=121 time=0
EXTRACT: note_on channel=11 note=59 velocity=121 time=0
EXTRACT: note_on channel=9 note=42 velocity=0 time=0.0526315
EXTRACT: note_on channel=4 note=64 velocity=0 time=0.02631575
EXTRACT: note_on channel=4 note=61 velocity=0 time=0
EXTRACT: note_on channel=4 note=57 velocity=0 time=0
EXTRACT: note_on channel=2 note=57 velocity=107 time=0.07368409999999999
EXTRACT: note_on channel=9 note=69 velocity=62 time=0.005263149999999999
EXTRACT: note_on channel=4 note=64 velocity=58 time=0
EXTRACT: note_on channel=4 note=61 velocity=57 time=0
EXTRACT: note_on channel=4 note=57 velocity=69 time=0
EXTRACT: note_on channel=4 note=54 velocity=61 time=0
EXTRACT: note_on channel=10 note=62 velocity=0 time=0
EXTRACT: note_on channel=11 note=59 velocity=0 time=0
EXTRACT: note_on channel=3 note=61 velocity=0 time=0.005263149999999999
EXTRACT: note_on channel=9 note=69 velocity=0 time=0.04736835
EXTRACT: note_on channel=1 note=42 velocity=0 time=0.02631575
EXTRACT: note_on channel=4 note=64 velocity=0 time=0
EXTRACT: note_on channel=4 note=61 velocity=0 time=0
EXTRACT: note_on channel=4 note=57 velocity=0 time=0
EXTRACT: note_on channel=4 note=54 velocity=0 time=0
EXTRACT: note_on channel=2 note=61 velocity=126 time=0.07368409999999999
EXTRACT: note_on channel=9 note=36 velocity=120 time=0.005263149999999999
EXTRACT: note_on channel=9 note=42 velocity=91 time=0
EXTRACT: note_on channel=1 note=37 velocity=115 time=0
EXTRACT: note_on channel=4 note=64 velocity=43 time=0
EXTRACT: note_on channel=4 note=61 velocity=60 time=0
EXTRACT: note_on channel=4 note=57 velocity=66 time=0
EXTRACT: note_on channel=10 note=62 velocity=113 time=0
EXTRACT: note_on channel=11 note=62 velocity=122 time=0
EXTRACT: note_on channel=3 note=61 velocity=122 time=0.005263149999999999
EXTRACT: note_on channel=9 note=36 velocity=0 time=0.04736835
EXTRACT: note_on channel=9 note=42 velocity=0 time=0
EXTRACT: note_on channel=4 note=64 velocity=0 time=0.02631575
EXTRACT: note_on channel=4 note=61 velocity=0 time=0
EXTRACT: note_on channel=4 note=57 velocity=0 time=0
EXTRACT: note_on channel=2 note=64 velocity=125 time=0.07368409999999999
EXTRACT: note_on channel=9 note=69 velocity=73 time=0.005263149999999999
EXTRACT: note_on channel=10 note=62 velocity=0 time=0
EXTRACT: note_on channel=10 note=64 velocity=107 time=0
EXTRACT: note_on channel=11 note=62 velocity=0 time=0
EXTRACT: note_on channel=11 note=61 velocity=108 time=0
EXTRACT: note_on channel=9 note=69 velocity=0 time=0.0526315
EXTRACT: note_on channel=2 note=66 velocity=122 time=0.09999984999999999
EXTRACT: note_on channel=9 note=36 velocity=120 time=0.005263149999999999
EXTRACT: note_on channel=9 note=42 velocity=96 time=0
EXTRACT: note_on channel=9 note=69 velocity=78 time=0
EXTRACT: note_on channel=4 note=64 velocity=98 time=0
EXTRACT: note_on channel=4 note=61 velocity=95 time=0
EXTRACT: note_on channel=4 note=57 velocity=114 time=0
EXTRACT: note_on channel=4 note=54 velocity=112 time=0
EXTRACT: note_on channel=7 note=64 velocity=111 time=0
EXTRACT: note_on channel=7 note=61 velocity=105 time=0
EXTRACT: note_on channel=7 note=57 velocity=112 time=0
EXTRACT: note_on channel=7 note=54 velocity=110 time=0
EXTRACT: note_on channel=10 note=64 velocity=0 time=0
EXTRACT: note_on channel=10 note=73 velocity=126 time=0
EXTRACT: note_on channel=11 note=61 velocity=0 time=0
EXTRACT: note_on channel=11 note=59 velocity=106 time=0
EXTRACT: note_on channel=9 note=36 velocity=0 time=0.0526315
EXTRACT: note_on channel=9 note=42 velocity=0 time=0
EXTRACT: note_on channel=9 note=69 velocity=0 time=0
EXTRACT: note_on channel=1 note=37 velocity=0 time=0.04736835
EXTRACT: note_on channel=1 note=42 velocity=113 time=0.005263149999999999
EXTRACT: note_on channel=2 note=69 velocity=115 time=0.04736835
EXTRACT: note_on channel=4 note=64 velocity=0 time=0.005263149999999999
EXTRACT: note_on channel=4 note=61 velocity=0 time=0
EXTRACT: note_on channel=4 note=57 velocity=0 time=0
EXTRACT: note_on channel=4 note=54 velocity=0 time=0
EXTRACT: note_on channel=7 note=64 velocity=0 time=0
EXTRACT: note_on channel=7 note=61 velocity=0 time=0
EXTRACT: note_on channel=7 note=57 velocity=0 time=0
EXTRACT: note_on channel=7 note=54 velocity=0 time=0
EXTRACT: note_on channel=10 note=73 velocity=0 time=0
EXTRACT: note_on channel=10 note=69 velocity=117 time=0
EXTRACT: note_on channel=11 note=59 velocity=0 time=0
EXTRACT: note_on channel=9 note=40 velocity=127 time=0.1578945
EXTRACT: note_on channel=9 note=42 velocity=97 time=0
EXTRACT: note_on channel=9 note=69 velocity=66 time=0
EXTRACT: note_on channel=10 note=69 velocity=0 time=0
EXTRACT: note_on channel=11 note=59 velocity=105 time=0
EXTRACT: note_on channel=9 note=40 velocity=0 time=0.0526315
EXTRACT: note_on channel=9 note=42 velocity=0 time=0
EXTRACT: note_on channel=9 note=69 velocity=0 time=0
EXTRACT: note_on channel=4 note=64 velocity=51 time=0.105263
EXTRACT: note_on channel=4 note=61 velocity=46 time=0
EXTRACT: note_on channel=4 note=57 velocity=44 time=0
EXTRACT: note_on channel=1 note=42 velocity=0 time=0.04736835
EXTRACT: note_on channel=1 note=49 velocity=113 time=0.005263149999999999
EXTRACT: note_on channel=4 note=64 velocity=0 time=0.02631575
EXTRACT: note_on channel=4 note=61 velocity=0 time=0
EXTRACT: note_on channel=4 note=57 velocity=0 time=0
EXTRACT: note_on channel=9 note=36 velocity=90 time=0.07894725
EXTRACT: note_on channel=9 note=42 velocity=90 time=0
EXTRACT: note_on channel=4 note=64 velocity=84 time=0
EXTRACT: note_on channel=4 note=61 velocity=56 time=0
EXTRACT: note_on channel=4 note=57 velocity=75 time=0
EXTRACT: note_on channel=4 note=54 velocity=53 time=0
EXTRACT: note_on channel=10 note=69 velocity=106 time=0
EXTRACT: note_on channel=11 note=59 velocity=0 time=0
EXTRACT: note_on channel=3 note=61 velocity=91 time=0.005263149999999999
EXTRACT: note_on channel=9 note=36 velocity=0 time=0.04736835
EXTRACT: note_on channel=9 note=42 velocity=0 time=0
EXTRACT: note_on channel=4 note=64 velocity=0 time=0.02631575
EXTRACT: note_on channel=4 note=61 velocity=0 time=0
EXTRACT: note_on channel=4 note=57 velocity=0 time=0
EXTRACT: note_on channel=4 note=54 velocity=0 time=0
EXTRACT: note_on channel=9 note=40 velocity=127 time=0.07894725
EXTRACT: note_on channel=10 note=69 velocity=0 time=0
EXTRACT: note_on channel=9 note=40 velocity=0 time=0.0526315
EXTRACT: note_on channel=1 note=49 velocity=0 time=0.09999984999999999
EXTRACT: note_on channel=2 note=57 velocity=0 time=0
EXTRACT: note_on channel=2 note=54 velocity=0 time=0
EXTRACT: note_on channel=2 note=61 velocity=0 time=0
EXTRACT: note_on channel=2 note=64 velocity=0 time=0
EXTRACT: note_on channel=2 note=61 velocity=0 time=0
EXTRACT: note_on channel=2 note=57 velocity=0 time=0
EXTRACT: note_on channel=2 note=61 velocity=0 time=0
EXTRACT: note_on channel=2 note=64 velocity=0 time=0
EXTRACT: note_on channel=2 note=66 velocity=0 time=0
EXTRACT: note_on channel=2 note=69 velocity=0 time=0
EXTRACT: note_on channel=2 note=47 velocity=110 time=0
EXTRACT: note_on channel=9 note=57 velocity=90 time=0.005263149999999999
EXTRACT: note_on channel=9 note=36 velocity=120 time=0
EXTRACT: note_on channel=1 note=35 velocity=127 time=0
EXTRACT: note_on channel=4 note=66 velocity=94 time=0
EXTRACT: note_on channel=4 note=62 velocity=103 time=0
EXTRACT: note_on channel=4 note=59 velocity=103 time=0
EXTRACT: note_on channel=4 note=54 velocity=91 time=0
EXTRACT: note_on channel=4 note=47 velocity=86 time=0
EXTRACT: note_on channel=6 note=57 velocity=0 time=0
EXTRACT: note_on channel=6 note=61 velocity=0 time=0
EXTRACT: note_on channel=6 note=66 velocity=0 time=0
EXTRACT: control_change channel=6 control=11 value=40 time=0
EXTRACT: note_on channel=6 note=59 velocity=116 time=0
EXTRACT: note_on channel=6 note=62 velocity=123 time=0
EXTRACT: note_on channel=6 note=66 velocity=125 time=0
EXTRACT: note_on channel=7 note=66 velocity=112 time=0
EXTRACT: note_on channel=7 note=62 velocity=96 time=0
EXTRACT: note_on channel=7 note=59 velocity=84 time=0
EXTRACT: note_on channel=7 note=54 velocity=81 time=0
EXTRACT: note_on channel=7 note=47 velocity=97 time=0
EXTRACT: note_on channel=11 note=59 velocity=118 time=0
EXTRACT: note_on channel=3 note=61 velocity=0 time=0.005263149999999999
EXTRACT: note_on channel=3 note=61 velocity=0 time=0
EXTRACT: control_change channel=6 control=11 value=41 time=0.02631575
EXTRACT: note_on channel=9 note=57 velocity=0 time=0.021052599999999998
EXTRACT: note_on channel=9 note=36 velocity=0 time=0
EXTRACT: control_change channel=6 control=11 value=42 time=0.010526299999999999
EXTRACT: control_change channel=6 control=11 value=43 time=0.03157889999999999
EXTRACT: control_change channel=6 control=11 value=44 time=0.03157889999999999
EXTRACT: note_on channel=1 note=35 velocity=0 time=0.02631575
EXTRACT: note_on channel=1 note=35 velocity=122 time=0.005263149999999999
EXTRACT: control_change channel=6 control=11 value=45 time=0
EXTRACT: note_on channel=10 note=71 velocity=118 time=0
EXTRACT: control_change channel=6 control=11 value=46 time=0.03157889999999999
EXTRACT: control_change channel=6 control=11 value=47 time=0.03157889999999999
EXTRACT: control_change channel=6 control=11 value=48 time=0.03157889999999999
EXTRACT: control_change channel=6 control=11 value=49 time=0.03157889999999999
EXTRACT: note_on channel=2 note=62 velocity=102 time=0.02631575
EXTRACT: note_on channel=9 note=42 velocity=107 time=0.005263149999999999
EXTRACT: note_on channel=1 note=35 velocity=0 time=0
EXTRACT: note_on channel=4 note=66 velocity=0 time=0
EXTRACT: note_on channel=4 note=62 velocity=0 time=0
EXTRACT: note_on channel=4 note=59 velocity=0 time=0
EXTRACT: note_on channel=4 note=54 velocity=0 time=0
EXTRACT: note_on channel=4 note=47 velocity=0 time=0
EXTRACT: control_change channel=6 control=11 value=50 time=0
EXTRACT: note_on channel=7 note=66 velocity=0 time=0
EXTRACT: note_on channel=7 note=62 velocity=0 time=0
EXTRACT: note_on channel=7 note=59 velocity=0 time=0
EXTRACT: note_on channel=7 note=54 velocity=0 time=0
EXTRACT: note_on channel=7 note=47 velocity=0 time=0
EXTRACT: note_on channel=10 note=71 velocity=0 time=0
EXTRACT: note_on channel=3 note=62 velocity=118 time=0.005263149999999999
EXTRACT: control_change channel=6 control=11 value=51 time=0.02631575
EXTRACT: note_on channel=9 note=42 velocity=0 time=0.021052599999999998
EXTRACT: control_change channel=6 control=11 value=52 time=0.010526299999999999
EXTRACT: control_change channel=6 control=11 value=53 time=0.03157889999999999
EXTRACT: control_change channel=6 control=11 value=54 time=0.03157889999999999
EXTRACT: note_on channel=2 note=66 velocity=107 time=0.02631575
EXTRACT: note_on channel=1 note=42 velocity=125 time=0.005263149999999999
EXTRACT: note_on channel=4 note=66 velocity=87 time=0
EXTRACT: note_on channel=4 note=62 velocity=97 time=0
EXTRACT: note_on channel=4 note=59 velocity=116 time=0
EXTRACT: note_on channel=4 note=54 velocity=104 time=0
EXTRACT: note_on channel=4 note=47 velocity=106 time=0
EXTRACT: control_change channel=6 control=11 value=55 time=0
EXTRACT: note_on channel=7 note=66 velocity=112 time=0
EXTRACT: note_on channel=7 note=62 velocity=109 time=0
EXTRACT: note_on channel=7 note=59 velocity=110 time=0
EXTRACT: note_on channel=7 note=54 velocity=93 time=0
EXTRACT: note_on channel=7 note=47 velocity=86 time=0
EXTRACT: note_on channel=11 note=59 velocity=0 time=0
EXTRACT: note_on channel=11 note=59 velocity=109 time=0
EXTRACT: control_change channel=6 control=11 value=56 time=0.03157889999999999
EXTRACT: control_change channel=6 control=11 value=57 time=0.03157889999999999
EXTRACT: control_change channel=6 control=11 value=58 time=0.03157889999999999
EXTRACT: control_change channel=6 control=11 value=59 time=0.03157889999999999
EXTRACT: note_on channel=9 note=42 velocity=99 time=0.03157889999999999
EXTRACT: note_on channel=9 note=40 velocity=127 time=0
EXTRACT: note_on channel=9 note=69 velocity=62 time=0
EXTRACT: note_on channel=1 note=42 velocity=0 time=0
EXTRACT: note_on channel=4 note=66 velocity=0 time=0
EXTRACT: note_on channel=4 note=62 velocity=0 time=0
EXTRACT: note_on channel=4 note=59 velocity=0 time=0
EXTRACT: note_on channel=4 note=54 velocity=0 time=0
EXTRACT: note_on channel=4 note=47 velocity=0 time=0
EXTRACT: control_change channel=6 control=11 value=60 time=0
EXTRACT: note_on channel=7 note=66 velocity=0 time=0
EXTRACT: note_on channel=7 note=62 velocity=0 time=0
EXTRACT: note_on channel=7 note=59 velocity=0 time=0
EXTRACT: note_on channel=7 note=54 velocity=0 time=0
EXTRACT: note_on channel=7 note=47 velocity=0 time=0
EXTRACT: note_on channel=10 note=71 velocity=116 time=0
EXTRACT: note_on channel=3 note=62 velocity=0 time=0.005263149999999999
EXTRACT: control_change channel=6 control=11 value=61 time=0.02631575
EXTRACT: note_on channel=9 note=42 velocity=0 time=0.021052599999999998
EXTRACT: note_on channel=9 note=40 velocity=0 time=0
EXTRACT: note_on channel=9 note=69 velocity=0 time=0
EXTRACT: control_change channel=6 control=11 value=62 time=0.010526299999999999
EXTRACT: control_change channel=6 control=11 value=63 time=0.03157889999999999
EXTRACT: control_change channel=6 control=11 value=64 time=0.03157889999999999
EXTRACT: note_on channel=2 note=62 velocity=107 time=0.02631575
EXTRACT: note_on channel=9 note=69 velocity=70 time=0.005263149999999999
EXTRACT: note_on channel=1 note=42 velocity=127 time=0
EXTRACT: note_on channel=4 note=66 velocity=84 time=0
EXTRACT: note_on channel=4 note=62 velocity=55 time=0
EXTRACT: note_on channel=4 note=59 velocity=53 time=0
EXTRACT: note_on channel=4 note=54 velocity=61 time=0
EXTRACT: note_on channel=4 note=47 velocity=66 time=0
EXTRACT: control_change channel=6 control=11 value=65 time=0
EXTRACT: note_on channel=10 note=71 velocity=0 time=0
EXTRACT: note_on channel=3 note=62 velocity=126 time=0.005263149999999999
EXTRACT: control_change channel=6 control=11 value=66 time=0.02631575
EXTRACT: note_on channel=9 note=69 velocity=0 time=0.021052599999999998
EXTRACT: control_change channel=6 control=11 value=67 time=0.010526299999999999
EXTRACT: note_on channel=4 note=66 velocity=0 time=0.015789449999999997
EXTRACT: note_on channel=4 note=62 velocity=0 time=0
EXTRACT: note_on channel=4 note=59 velocity=0 time=0
EXTRACT: note_on channel=4 note=54 velocity=0 time=0
EXTRACT: note_on channel=4 note=47 velocity=0 time=0
EXTRACT: control_change channel=6 control=11 value=68 time=0.015789449999999997
EXTRACT: control_change channel=6 control=11 value=69 time=0.03157889999999999
EXTRACT: note_on channel=1 note=42 velocity=0 time=0.02631575
EXTRACT: note_on channel=9 note=42 velocity=108 time=0.005263149999999999
EXTRACT: note_on channel=1 note=38 velocity=116 time=0
EXTRACT: note_on channel=4 note=66 velocity=61 time=0
EXTRACT: note_on channel=4 note=62 velocity=62 time=0
EXTRACT: note_on channel=4 note=59 velocity=68 time=0
EXTRACT: control_change channel=6 control=11 value=70 time=0
EXTRACT: note_on channel=11 note=59 velocity=0 time=0
EXTRACT: note_on channel=11 note=59 velocity=108 time=0
EXTRACT: note_on channel=3 note=62 velocity=0 time=0.005263149999999999
EXTRACT: note_on channel=3 note=61 velocity=105 time=0
EXTRACT: control_change channel=6 control=11 value=71 time=0.02631575
EXTRACT: note_on channel=9 note=42 velocity=0 time=0.021052599999999998
EXTRACT: control_change channel=6 control=11 value=72 time=0.010526299999999999
EXTRACT: note_on channel=4 note=66 velocity=0 time=0.015789449999999997
EXTRACT: note_on channel=4 note=62 velocity=0 time=0
EXTRACT: note_on channel=4 note=59 velocity=0 time=0
EXTRACT: control_change channel=6 control=11 value=73 time=0.015789449999999997
EXTRACT: control_change channel=6 control=11 value=74 time=0.03157889999999999
EXTRACT: note_on channel=2 note=59 velocity=102 time=0.02631575
EXTRACT: note_on channel=9 note=69 velocity=62 time=0.005263149999999999
EXTRACT: note_on channel=1 note=38 velocity=0 time=0
EXTRACT: note_on channel=4 note=66 velocity=76 time=0
EXTRACT: note_on channel=4 note=62 velocity=55 time=0
EXTRACT: note_on channel=4 note=59 velocity=57 time=0
EXTRACT: note_on channel=4 note=54 velocity=88 time=0
EXTRACT: note_on channel=4 note=47 velocity=84 time=0
EXTRACT: control_change channel=6 control=11 value=75 time=0
EXTRACT: note_on channel=11 note=59 velocity=0 time=0
EXTRACT: note_on channel=3 note=61 velocity=0 time=0.005263149999999999
EXTRACT: note_on channel=3 note=59 velocity=110 time=0
EXTRACT: control_change channel=6 control=11 value=76 time=0.02631575
EXTRACT: note_on channel=9 note=69 velocity=0 time=0.021052599999999998
EXTRACT: control_change channel=6 control=11 value=77 time=0.010526299999999999
EXTRACT: note_on channel=4 note=66 velocity=0 time=0.015789449999999997
EXTRACT: note_on channel=4 note=62 velocity=0 time=0
EXTRACT: note_on channel=4 note=59 velocity=0 time=0
EXTRACT: note_on channel=4 note=54 velocity=0 time=0
EXTRACT: note_on channel=4 note=47 velocity=0 time=0
EXTRACT: control_change channel=6 control=11 value=78 time=0.015789449999999997
EXTRACT: control_change channel=6 control=11 value=79 time=0.03157889999999999
EXTRACT: note_on channel=9 note=36 velocity=120 time=0.03157889999999999
EXTRACT: note_on channel=9 note=42 velocity=95 time=0
EXTRACT: note_on channel=1 note=35 velocity=121 time=0
EXTRACT: note_on channel=4 note=66 velocity=67 time=0
EXTRACT: note_on channel=4 note=62 velocity=57 time=0
EXTRACT: note_on channel=4 note=59 velocity=43 time=0
EXTRACT: control_change channel=6 control=11 value=80 time=0
EXTRACT: note_on channel=11 note=62 velocity=103 time=0
EXTRACT: note_on channel=3 note=59 velocity=0 time=0.005263149999999999
EXTRACT: note_on channel=9 note=36 velocity=0 time=0.04736835
EXTRACT: note_on channel=9 note=42 velocity=0 time=0
EXTRACT: note_on channel=4 note=66 velocity=0 time=0.02631575
EXTRACT: note_on channel=4 note=62 velocity=0 time=0
EXTRACT: note_on channel=4 note=59 velocity=0 time=0
EXTRACT: note_on channel=2 note=62 velocity=121 time=0.07368409999999999
EXTRACT: note_on channel=9 note=69 velocity=73 time=0.005263149999999999
EXTRACT: note_on channel=11 note=62 velocity=0 time=0
EXTRACT: note_on channel=3 note=62 velocity=124 time=0.005263149999999999
EXTRACT: note_on channel=9 note=69 velocity=0 time=0.04736835
EXTRACT: note_on channel=9 note=42 velocity=91 time=0.105263
EXTRACT: note_on channel=9 note=69 velocity=78 time=0
EXTRACT: note_on channel=1 note=35 velocity=0 time=0
EXTRACT: note_on channel=4 note=66 velocity=96 time=0
EXTRACT: note_on channel=4 note=62 velocity=117 time=0
EXTRACT: note_on channel=4 note=59 velocity=95 time=0
EXTRACT: note_on channel=4 note=54 velocity=98 time=0
EXTRACT: note_on channel=4 note=47 velocity=107 time=0
EXTRACT: note_on channel=7 note=66 velocity=88 time=0
EXTRACT: note_on channel=7 note=62 velocity=109 time=0
EXTRACT: note_on channel=7 note=59 velocity=87 time=0
EXTRACT: note_on channel=7 note=54 velocity=90 time=0
EXTRACT: note_on channel=7 note=47 velocity=79 time=0
EXTRACT: note_on channel=11 note=59 velocity=121 time=0
EXTRACT: note_on channel=3 note=62 velocity=0 time=0.005263149999999999
EXTRACT: note_on channel=9 note=42 velocity=0 time=0.04736835
EXTRACT: note_on channel=9 note=69 velocity=0 time=0
EXTRACT: note_on channel=2 note=66 velocity=118 time=0.09999984999999999
EXTRACT: note_on channel=4 note=66 velocity=0 time=0.005263149999999999
EXTRACT: note_on channel=4 note=62 velocity=0 time=0
EXTRACT: note_on channel=4 note=59 velocity=0 time=0
EXTRACT: note_on channel=4 note=54 velocity=0 time=0
EXTRACT: note_on channel=4 note=47 velocity=0 time=0
EXTRACT: note_on channel=7 note=66 velocity=0 time=0
EXTRACT: note_on channel=7 note=62 velocity=0 time=0
EXTRACT: note_on channel=7 note=59 velocity=0 time=0
EXTRACT: note_on channel=7 note=54 velocity=0 time=0
EXTRACT: note_on channel=7 note=47 velocity=0 time=0
EXTRACT: note_on channel=11 note=59 velocity=0 time=0
EXTRACT: note_on channel=3 note=62 velocity=104 time=0.005263149999999999
EXTRACT: note_on channel=2 note=66 velocity=112 time=0.14736819999999998
EXTRACT: note_on channel=9 note=40 velocity=127 time=0.005263149999999999
EXTRACT: note_on channel=9 note=42 velocity=107 time=0
EXTRACT: note_on channel=9 note=69 velocity=66 time=0
EXTRACT: note_on channel=10 note=66 velocity=106 time=0
EXTRACT: note_on channel=11 note=59 velocity=125 time=0
EXTRACT: note_on channel=9 note=40 velocity=0 time=0.0526315
EXTRACT: note_on channel=9 note=42 velocity=0 time=0
EXTRACT: note_on channel=9 note=69 velocity=0 time=0
EXTRACT: note_on channel=4 note=66 velocity=71 time=0.105263
EXTRACT: note_on channel=4 note=62 velocity=49 time=0
EXTRACT: note_on channel=4 note=59 velocity=71 time=0
EXTRACT: note_on channel=10 note=66 velocity=0 time=0
EXTRACT: note_on channel=4 note=66 velocity=0 time=0.07894725
EXTRACT: note_on channel=4 note=62 velocity=0 time=0
EXTRACT: note_on channel=4 note=59 velocity=0 time=0
EXTRACT: note_on channel=2 note=62 velocity=107 time=0.07368409999999999
EXTRACT: note_on channel=9 note=42 velocity=90 time=0.005263149999999999
EXTRACT: note_on channel=1 note=30 velocity=119 time=0
EXTRACT: note_on channel=4 note=66 velocity=79 time=0
EXTRACT: note_on channel=4 note=62 velocity=74 time=0
EXTRACT: note_on channel=4 note=59 velocity=86 time=0
EXTRACT: note_on channel=4 note=54 velocity=66 time=0
EXTRACT: note_on channel=4 note=47 velocity=87 time=0
EXTRACT: note_on channel=10 note=74 velocity=126 time=0
EXTRACT: note_on channel=11 note=59 velocity=0 time=0
EXTRACT: note_on channel=9 note=42 velocity=0 time=0.0526315
EXTRACT: note_on channel=4 note=66 velocity=0 time=0.02631575
EXTRACT: note_on channel=4 note=62 velocity=0 time=0
EXTRACT: note_on channel=4 note=59 velocity=0 time=0
EXTRACT: note_on channel=4 note=54 velocity=0 time=0
EXTRACT: note_on channel=4 note=47 velocity=0 time=0
EXTRACT: note_on channel=1 note=30 velocity=0 time=0.07894725
EXTRACT: note_on channel=2 note=47 velocity=0 time=0.15263134999999997
EXTRACT: note_on channel=2 note=62 velocity=0 time=0
EXTRACT: note_on channel=2 note=66 velocity=0 time=0
EXTRACT: note_on channel=2 note=62 velocity=0 time=0
EXTRACT: note_on channel=2 note=59 velocity=0 time=0
EXTRACT: note_on channel=2 note=62 velocity=0 time=0
EXTRACT: note_on channel=2 note=66 velocity=0 time=0
EXTRACT: note_on channel=2 note=66 velocity=0 time=0
EXTRACT: note_on channel=2 note=47 velocity=112 time=0
EXTRACT: note_on channel=9 note=42 velocity=99 time=0.005263149999999999
EXTRACT: note_on channel=9 note=36 velocity=120 time=0
EXTRACT: note_on channel=1 note=35 velocity=115 time=0
EXTRACT: note_on channel=4 note=66 velocity=104 time=0
EXTRACT: note_on channel=4 note=62 velocity=97 time=0
EXTRACT: note_on channel=4 note=59 velocity=99 time=0
EXTRACT: note_on channel=4 note=54 velocity=110 time=0
EXTRACT: note_on channel=4 note=47 velocity=95 time=0
EXTRACT: note_on channel=7 note=66 velocity=106 time=0
EXTRACT: note_on channel=7 note=62 velocity=98 time=0
EXTRACT: note_on channel=7 note=59 velocity=75 time=0
EXTRACT: note_on channel=7 note=54 velocity=100 time=0
EXTRACT: note_on channel=7 note=47 velocity=111 time=0
EXTRACT: note_on channel=11 note=64 velocity=114 time=0
EXTRACT: note_on channel=3 note=62 velocity=0 time=0.005263149999999999
EXTRACT: note_on channel=9 note=42 velocity=0 time=0.04736835
EXTRACT: note_on channel=9 note=36 velocity=0 time=0
EXTRACT: note_on channel=10 note=74 velocity=0 time=0.0526315
EXTRACT: note_on channel=11 note=64 velocity=0 time=0.0526315
EXTRACT: note_on channel=10 note=71 velocity=119 time=0.0526315
EXTRACT: note_on channel=1 note=35 velocity=0 time=0.02631575
EXTRACT: note_on channel=2 note=62 velocity=0 time=0.07368409999999999
EXTRACT: note_on channel=2 note=62 velocity=117 time=0
EXTRACT: note_on channel=9 note=42 velocity=97 time=0.005263149999999999
EXTRACT: note_on channel=4 note=66 velocity=0 time=0
EXTRACT: note_on channel=4 note=62 velocity=0 time=0
EXTRACT: note_on channel=4 note=59 velocity=0 time=0
EXTRACT: note_on channel=4 note=54 velocity=0 time=0
EXTRACT: note_on channel=4 note=47 velocity=0 time=0
EXTRACT: note_on channel=7 note=66 velocity=0 time=0
EXTRACT: note_on channel=7 note=62 velocity=0 time=0
EXTRACT: note_on channel=7 note=59 velocity=0 time=0
EXTRACT: note_on channel=7 note=54 velocity=0 time=0
EXTRACT: note_on channel=7 note=47 velocity=0 time=0
EXTRACT: note_on channel=11 note=64 velocity=105 time=0
EXTRACT: note_on channel=3 note=62 velocity=102 time=0.005263149999999999
EXTRACT: note_on channel=9 note=42 velocity=0 time=0.04736835
EXTRACT: note_on channel=10 note=71 velocity=0 time=0.0526315
EXTRACT: note_on channel=2 note=66 velocity=127 time=0.04736835
EXTRACT: note_on channel=1 note=35 velocity=109 time=0.005263149999999999
EXTRACT: note_on channel=4 note=66 velocity=105 time=0
EXTRACT: note_on channel=4 note=62 velocity=97 time=0
EXTRACT: note_on channel=4 note=59 velocity=115 time=0
EXTRACT: note_on channel=4 note=54 velocity=96 time=0
EXTRACT: note_on channel=4 note=47 velocity=104 time=0
EXTRACT: note_on channel=7 note=66 velocity=95 time=0
EXTRACT: note_on channel=7 note=62 velocity=92 time=0
EXTRACT: note_on channel=7 note=59 velocity=104 time=0
EXTRACT: note_on channel=7 note=54 velocity=94 time=0
EXTRACT: note_on channel=7 note=47 velocity=111 time=0
EXTRACT: note_on channel=11 note=64 velocity=0 time=0
EXTRACT: note_on channel=11 note=64 velocity=125 time=0
EXTRACT: note_on channel=9 note=42 velocity=107 time=0.1578945
EXTRACT: note_on channel=9 note=40 velocity=127 time=0
EXTRACT: note_on channel=9 note=69 velocity=62 time=0
EXTRACT: note_on channel=1 note=35 velocity=0 time=0
EXTRACT: note_on channel=4 note=66 velocity=0 time=0
EXTRACT: note_on channel=4 note=62 velocity=0 time=0
EXTRACT: note_on channel=4 note=59 velocity=0 time=0
EXTRACT: note_on channel=4 note=54 velocity=0 time=0
EXTRACT: note_on channel=4 note=47 velocity=0 time=0
EXTRACT: note_on channel=7 note=66 velocity=0 time=0
EXTRACT: note_on channel=7 note=62 velocity=0 time=0
EXTRACT: note_on channel=7 note=59 velocity=0 time=0
EXTRACT: note_on channel=7 note=54 velocity=0 time=0
EXTRACT: note_on channel=7 note=47 velocity=0 time=0
EXTRACT: note_on channel=10 note=71 velocity=108 time=0
EXTRACT: note_on channel=11 note=64 velocity=0 time=0
EXTRACT: note_on channel=3 note=62 velocity=0 time=0.005263149999999999
EXTRACT: note_on channel=9 note=42 velocity=0 time=0.04736835
EXTRACT: note_on channel=9 note=40 velocity=0 time=0
EXTRACT: note_on channel=9 note=69 velocity=0 time=0
EXTRACT: note_on channel=2 note=62 velocity=117 time=0.09999984999999999
EXTRACT: note_on channel=9 note=69 velocity=70 time=0.005263149999999999
EXTRACT: note_on channel=4 note=66 velocity=86 time=0
EXTRACT: note_on channel=4 note=62 velocity=77 time=0
EXTRACT: note_on channel=4 note=59 velocity=63 time=0
EXTRACT: note_on channel=4 note=54 velocity=75 time=0
EXTRACT: note_on channel=4 note=47 velocity=74 time=0
EXTRACT: note_on channel=3 note=62 velocity=105 time=0.005263149999999999
EXTRACT: note_on channel=9 note=69 velocity=0 time=0.04736835
EXTRACT: note_on channel=10 note=71 velocity=0 time=0
EXTRACT: note_on channel=4 note=66 velocity=0 time=0.02631575
EXTRACT: note_on channel=4 note=62 velocity=0 time=0
EXTRACT: note_on channel=4 note=59 velocity=0 time=0
EXTRACT: note_on channel=4 note=54 velocity=0 time=0
EXTRACT: note_on channel=4 note=47 velocity=0 time=0
EXTRACT: note_on channel=9 note=42 velocity=98 time=0.07894725
EXTRACT: note_on channel=4 note=66 velocity=68 time=0
EXTRACT: note_on channel=4 note=62 velocity=71 time=0
EXTRACT: note_on channel=4 note=59 velocity=55 time=0
EXTRACT: note_on channel=11 note=64 velocity=124 time=0
EXTRACT: note_on channel=3 note=62 velocity=0 time=0.005263149999999999
EXTRACT: note_on channel=3 note=61 velocity=114 time=0
EXTRACT: note_on channel=9 note=42 velocity=0 time=0.04736835
EXTRACT: note_on channel=4 note=66 velocity=0 time=0.02631575
EXTRACT: note_on channel=4 note=62 velocity=0 time=0
EXTRACT: note_on channel=4 note=59 velocity=0 time=0
EXTRACT: note_on channel=2 note=59 velocity=105 time=0.07368409999999999
EXTRACT: note_on channel=9 note=69 velocity=62 time=0.005263149999999999
EXTRACT: note_on channel=4 note=66 velocity=59 time=0
EXTRACT: note_on channel=4 note=62 velocity=80 time=0
EXTRACT: note_on channel=4 note=59 velocity=64 time=0
EXTRACT: note_on channel=4 note=54 velocity=61 time=0
EXTRACT: note_on channel=4 note=47 velocity=89 time=0
EXTRACT: note_on channel=11 note=64 velocity=0 time=0
EXTRACT: note_on channel=11 note=64 velocity=120 time=0
EXTRACT: note_on channel=3 note=61 velocity=0 time=0.005263149999999999
EXTRACT: note_on channel=3 note=59 velocity=104 time=0
EXTRACT: note_on channel=9 note=69 velocity=0 time=0.04736835
EXTRACT: note_on channel=4 note=66 velocity=0 time=0.02631575
EXTRACT: note_on channel=4 note=62 velocity=0 time=0
EXTRACT: note_on channel=4 note=59 velocity=0 time=0
EXTRACT: note_on channel=4 note=54 velocity=0 time=0
EXTRACT: note_on channel=4 note=47 velocity=0 time=0
EXTRACT: note_on channel=9 note=36 velocity=120 time=0.07894725
EXTRACT: note_on channel=9 note=42 velocity=110 time=0
EXTRACT: note_on channel=4 note=66 velocity=50 time=0
EXTRACT: note_on channel=4 note=62 velocity=64 time=0
EXTRACT: note_on channel=4 note=59 velocity=63 time=0
EXTRACT: note_on channel=10 note=66 velocity=112 time=0
EXTRACT: note_on channel=11 note=64 velocity=0 time=0
EXTRACT: note_on channel=11 note=62 velocity=110 time=0
EXTRACT: note_on channel=3 note=59 velocity=0 time=0.005263149999999999
EXTRACT: note_on channel=9 note=36 velocity=0 time=0.04736835
EXTRACT: note_on channel=9 note=42 velocity=0 time=0
EXTRACT: note_on channel=4 note=66 velocity=0 time=0.02631575
EXTRACT: note_on channel=4 note=62 velocity=0 time=0
EXTRACT: note_on channel=4 note=59 velocity=0 time=0
EXTRACT: note_on channel=2 note=62 velocity=126 time=0.07368409999999999
EXTRACT: note_on channel=9 note=69 velocity=73 time=0.005263149999999999
EXTRACT: note_on channel=10 note=66 velocity=0 time=0
EXTRACT: note_on channel=11 note=62 velocity=0 time=0
EXTRACT: note_on channel=3 note=62 velocity=109 time=0.005263149999999999
EXTRACT: note_on channel=9 note=69 velocity=0 time=0.04736835
EXTRACT: note_on channel=9 note=42 velocity=94 time=0.105263
EXTRACT: note_on channel=9 note=69 velocity=78 time=0
EXTRACT: note_on channel=1 note=35 velocity=111 time=0
EXTRACT: note_on channel=4 note=66 velocity=103 time=0
EXTRACT: note_on channel=4 note=62 velocity=94 time=0
EXTRACT: note_on channel=4 note=59 velocity=109 time=0
EXTRACT: note_on channel=4 note=54 velocity=98 time=0
EXTRACT: note_on channel=4 note=47 velocity=111 time=0
EXTRACT: note_on channel=7 note=66 velocity=112 time=0
EXTRACT: note_on channel=7 note=62 velocity=74 time=0
EXTRACT: note_on channel=7 note=59 velocity=79 time=0
EXTRACT: note_on channel=7 note=54 velocity=105 time=0
EXTRACT: note_on channel=7 note=47 velocity=90 time=0
EXTRACT: note_on channel=10 note=66 velocity=113 time=0
EXTRACT: note_on channel=11 note=59 velocity=123 time=0
EXTRACT: note_on channel=3 note=62 velocity=0 time=0.005263149999999999
EXTRACT: note_on channel=9 note=42 velocity=0 time=0.04736835
EXTRACT: note_on channel=9 note=69 velocity=0 time=0
EXTRACT: note_on channel=2 note=66 velocity=122 time=0.09999984999999999
EXTRACT: note_on channel=1 note=35 velocity=0 time=0.005263149999999999
EXTRACT: note_on channel=4 note=66 velocity=0 time=0
EXTRACT: note_on channel=4 note=62 velocity=0 time=0
EXTRACT: note_on channel=4 note=59 velocity=0 time=0
EXTRACT: note_on channel=4 note=54 velocity=0 time=0
EXTRACT: note_on channel=4 note=47 velocity=0 time=0
EXTRACT: note_on channel=7 note=66 velocity=0 time=0
EXTRACT: note_on channel=7 note=62 velocity=0 time=0
EXTRACT: note_on channel=7 note=59 velocity=0 time=0
EXTRACT: note_on channel=7 note=54 velocity=0 time=0
EXTRACT: note_on channel=7 note=47 velocity=0 time=0
EXTRACT: note_on channel=10 note=66 velocity=0 time=0
EXTRACT: note_on channel=11 note=59 velocity=0 time=0
EXTRACT: note_on channel=3 note=62 velocity=114 time=0.005263149999999999
EXTRACT: note_on channel=2 note=66 velocity=108 time=0.14736819999999998
EXTRACT: note_on channel=9 note=40 velocity=127 time=0.005263149999999999
EXTRACT: note_on channel=9 note=42 velocity=109 time=0
EXTRACT: note_on channel=9 note=69 velocity=66 time=0
EXTRACT: note_on channel=10 note=69 velocity=106 time=0
EXTRACT: note_on channel=11 note=59 velocity=117 time=0
EXTRACT: note_on channel=9 note=40 velocity=0 time=0.0526315
EXTRACT: note_on channel=9 note=42 velocity=0 time=0
EXTRACT: note_on channel=9 note=69 velocity=0 time=0
EXTRACT: note_on channel=4 note=66 velocity=55 time=0.105263
EXTRACT: note_on channel=4 note=62 velocity=42 time=0
EXTRACT: note_on channel=4 note=59 velocity=47 time=0
EXTRACT: note_on channel=10 note=69 velocity=0 time=0
EXTRACT: note_on channel=4 note=66 velocity=0 time=0.07894725
EXTRACT: note_on channel=4 note=62 velocity=0 time=0
EXTRACT: note_on channel=4 note=59 velocity=0 time=0
EXTRACT: note_on channel=2 note=62 velocity=108 time=0.07368409999999999
EXTRACT: note_on channel=9 note=36 velocity=90 time=0.005263149999999999
EXTRACT: note_on channel=9 note=42 velocity=103 time=0
EXTRACT: note_on channel=1 note=38 velocity=110 time=0
EXTRACT: note_on channel=4 note=66 velocity=91 time=0
EXTRACT: note_on channel=4 note=62 velocity=52 time=0
EXTRACT: note_on channel=4 note=59 velocity=52 time=0
EXTRACT: note_on channel=4 note=54 velocity=74 time=0
EXTRACT: note_on channel=4 note=47 velocity=70 time=0
EXTRACT: note_on channel=10 note=71 velocity=126 time=0
EXTRACT: note_on channel=11 note=59 velocity=0 time=0
EXTRACT: note_on channel=9 note=36 velocity=0 time=0.0526315
EXTRACT: note_on channel=9 note=42 velocity=0 time=0
EXTRACT: note_on channel=4 note=66 velocity=0 time=0.02631575
EXTRACT: note_on channel=4 note=62 velocity=0 time=0
EXTRACT: note_on channel=4 note=59 velocity=0 time=0
EXTRACT: note_on channel=4 note=54 velocity=0 time=0
EXTRACT: note_on channel=4 note=47 velocity=0 time=0
EXTRACT: note_on channel=9 note=40 velocity=127 time=0.07894725
EXTRACT: note_on channel=1 note=38 velocity=0 time=0
EXTRACT: note_on channel=10 note=71 velocity=0 time=0
EXTRACT: note_on channel=9 note=40 velocity=0 time=0.0526315
EXTRACT: note_on channel=2 note=47 velocity=0 time=0.09999984999999999
EXTRACT: note_on channel=2 note=62 velocity=0 time=0
EXTRACT: note_on channel=2 note=66 velocity=0 time=0
EXTRACT: note_on channel=2 note=62 velocity=0 time=0
EXTRACT: note_on channel=2 note=59 velocity=0 time=0
EXTRACT: note_on channel=2 note=62 velocity=0 time=0
EXTRACT: note_on channel=2 note=66 velocity=0 time=0
EXTRACT: note_on channel=2 note=66 velocity=0 time=0
EXTRACT: note_on channel=2 note=62 velocity=0 time=0
EXTRACT: note_on channel=2 note=40 velocity=107 time=0
EXTRACT: note_on channel=9 note=42 velocity=107 time=0.005263149999999999
EXTRACT: note_on channel=9 note=36 velocity=120 time=0
EXTRACT: note_on channel=1 note=40 velocity=120 time=0
EXTRACT: note_on channel=4 note=67 velocity=92 time=0
EXTRACT: note_on channel=4 note=62 velocity=113 time=0
EXTRACT: note_on channel=4 note=59 velocity=112 time=0
EXTRACT: note_on channel=4 note=55 velocity=110 time=0
EXTRACT: note_on channel=4 note=47 velocity=112 time=0
EXTRACT: note_on channel=6 note=59 velocity=0 time=0
EXTRACT: note_on channel=6 note=62 velocity=0 time=0
EXTRACT: note_on channel=6 note=66 velocity=0 time=0
EXTRACT: note_on channel=6 note=59 velocity=127 time=0
EXTRACT: note_on channel=6 note=62 velocity=109 time=0
EXTRACT: note_on channel=6 note=67 velocity=120 time=0
EXTRACT: note_on channel=7 note=67 velocity=88 time=0
EXTRACT: note_on channel=7 note=62 velocity=100 time=0
EXTRACT: note_on channel=7 note=59 velocity=108 time=0
EXTRACT: note_on channel=7 note=55 velocity=91 time=0
EXTRACT: note_on channel=7 note=47 velocity=106 time=0
EXTRACT: note_on channel=11 note=59 velocity=102 time=0
EXTRACT: note_on channel=3 note=62 velocity=0 time=0.005263149999999999
EXTRACT: note_on channel=9 note=42 velocity=0 time=0.04736835
EXTRACT: note_on channel=9 note=36 velocity=0 time=0
EXTRACT: note_on channel=1 note=40 velocity=0 time=0.07894725
EXTRACT: note_on channel=10 note=66 velocity=111 time=0.02631575
EXTRACT: note_on channel=11 note=59 velocity=0 time=0
EXTRACT: note_on channel=2 note=62 velocity=124 time=0.15263134999999997
EXTRACT: note_on channel=9 note=42 velocity=104 time=0.005263149999999999
EXTRACT: note_on channel=1 note=40 velocity=121 time=0
EXTRACT: note_on channel=4 note=67 velocity=0 time=0
EXTRACT: note_on channel=4 note=62 velocity=0 time=0
EXTRACT: note_on channel=4 note=59 velocity=0 time=0
EXTRACT: note_on channel=4 note=55 velocity=0 time=0
EXTRACT: note_on channel=4 note=47 velocity=0 time=0
EXTRACT: note_on channel=7 note=67 velocity=0 time=0
EXTRACT: note_on channel=7 note=62 velocity=0 time=0
EXTRACT: note_on channel=7 note=59 velocity=0 time=0
EXTRACT: note_on channel=7 note=55 velocity=0 time=0
EXTRACT: note_on channel=7 note=47 velocity=0 time=0
EXTRACT: note_on channel=11 note=59 velocity=127 time=0
EXTRACT: note_on channel=3 note=62 velocity=125 time=0.005263149999999999
EXTRACT: note_on channel=9 note=42 velocity=0 time=0.04736835
EXTRACT: note_on channel=1 note=40 velocity=0 time=0.09999984999999999
EXTRACT: note_on channel=2 note=67 velocity=118 time=0
EXTRACT: note_on channel=1 note=35 velocity=110 time=0.005263149999999999
EXTRACT: note_on channel=4 note=67 velocity=94 time=0
EXTRACT: note_on channel=4 note=62 velocity=117 time=0
EXTRACT: note_on channel=4 note=59 velocity=99 time=0
EXTRACT: note_on channel=4 note=55 velocity=93 time=0
EXTRACT: note_on channel=4 note=47 velocity=97 time=0
EXTRACT: note_on channel=7 note=67 velocity=76 time=0
EXTRACT: note_on channel=7 note=62 velocity=82 time=0
EXTRACT: note_on channel=7 note=59 velocity=83 time=0
EXTRACT: note_on channel=7 note=55 velocity=88 time=0
EXTRACT: note_on channel=7 note=47 velocity=111 time=0
EXTRACT: note_on channel=11 note=59 velocity=0 time=0
EXTRACT: note_on channel=10 note=66 velocity=0 time=0.07894725
EXTRACT: note_on channel=9 note=42 velocity=109 time=0.07894725
EXTRACT: note_on channel=9 note=40 velocity=127 time=0
EXTRACT: note_on channel=9 note=69 velocity=62 time=0
EXTRACT: note_on channel=1 note=35 velocity=0 time=0
EXTRACT: note_on channel=4 note=67 velocity=0 time=0
EXTRACT: note_on channel=4 note=62 velocity=0 time=0
EXTRACT: note_on channel=4 note=59 velocity=0 time=0
EXTRACT: note_on channel=4 note=55 velocity=0 time=0
EXTRACT: note_on channel=4 note=47 velocity=0 time=0
EXTRACT: note_on channel=7 note=67 velocity=0 time=0
EXTRACT: note_on channel=7 note=62 velocity=0 time=0
EXTRACT: note_on channel=7 note=59 velocity=0 time=0
EXTRACT: note_on channel=7 note=55 velocity=0 time=0
EXTRACT: note_on channel=7 note=47 velocity=0 time=0
EXTRACT: note_on channel=10 note=66 velocity=111 time=0
EXTRACT: note_on channel=11 note=59 velocity=108 time=0
EXTRACT: note_on channel=3 note=62 velocity=0 time=0.005263149999999999
EXTRACT: note_on channel=9 note=42 velocity=0 time=0.04736835
EXTRACT: note_on channel=9 note=40 velocity=0 time=0
EXTRACT: note_on channel=9 note=69 velocity=0 time=0
EXTRACT: note_on channel=2 note=62 velocity=126 time=0.09999984999999999
EXTRACT: note_on channel=9 note=69 velocity=70 time=0.005263149999999999
EXTRACT: note_on channel=1 note=35 velocity=108 time=0
EXTRACT: note_on channel=4 note=67 velocity=74 time=0
EXTRACT: note_on channel=4 note=62 velocity=85 time=0
EXTRACT: note_on channel=4 note=59 velocity=58 time=0
EXTRACT: note_on channel=4 note=55 velocity=70 time=0
EXTRACT: note_on channel=4 note=47 velocity=52 time=0
EXTRACT: note_on channel=11 note=59 velocity=0 time=0
EXTRACT: note_on channel=3 note=62 velocity=120 time=0.005263149999999999
EXTRACT: note_on channel=9 note=69 velocity=0 time=0.04736835
EXTRACT: note_on channel=4 note=67 velocity=0 time=0.02631575
EXTRACT: note_on channel=4 note=62 velocity=0 time=0
EXTRACT: note_on channel=4 note=59 velocity=0 time=0
EXTRACT: note_on channel=4 note=55 velocity=0 time=0
EXTRACT: note_on channel=4 note=47 velocity=0 time=0
EXTRACT: note_on channel=10 note=66 velocity=0 time=0
EXTRACT: note_on channel=1 note=35 velocity=0 time=0.07368409999999999
EXTRACT: note_on channel=9 note=42 velocity=103 time=0.005263149999999999
EXTRACT: note_on channel=1 note=31 velocity=123 time=0
EXTRACT: note_on channel=4 note=67 velocity=61 time=0
EXTRACT: note_on channel=4 note=62 velocity=53 time=0
EXTRACT: note_on channel=4 note=59 velocity=49 time=0
EXTRACT: note_on channel=10 note=64 velocity=121 time=0
EXTRACT: note_on channel=11 note=59 velocity=120 time=0
EXTRACT: note_on channel=3 note=62 velocity=0 time=0.005263149999999999
EXTRACT: note_on channel=3 note=61 velocity=115 time=0
EXTRACT: note_on channel=9 note=42 velocity=0 time=0.04736835
EXTRACT: note_on channel=4 note=67 velocity=0 time=0.02631575
EXTRACT: note_on channel=4 note=62 velocity=0 time=0
EXTRACT: note_on channel=4 note=59 velocity=0 time=0
EXTRACT: note_on channel=2 note=59 velocity=126 time=0.07368409999999999
EXTRACT: note_on channel=9 note=69 velocity=62 time=0.005263149999999999
EXTRACT: note_on channel=1 note=31 velocity=0 time=0
EXTRACT: note_on channel=4 note=67 velocity=70 time=0
EXTRACT: note_on channel=4 note=62 velocity=74 time=0
EXTRACT: note_on channel=4 note=59 velocity=63 time=0
EXTRACT: note_on channel=4 note=55 velocity=68 time=0
EXTRACT: note_on channel=4 note=47 velocity=72 time=0
EXTRACT: note_on channel=11 note=59 velocity=0 time=0
EXTRACT: note_on channel=3 note=61 velocity=0 time=0.005263149999999999
EXTRACT: note_on channel=3 note=59 velocity=116 time=0
EXTRACT: note_on channel=9 note=69 velocity=0 time=0.04736835
EXTRACT: note_on channel=4 note=67 velocity=0 time=0.02631575
EXTRACT: note_on channel=4 note=62 velocity=0 time=0
EXTRACT: note_on channel=4 note=59 velocity=0 time=0
EXTRACT: note_on channel=4 note=55 velocity=0 time=0
EXTRACT: note_on channel=4 note=47 velocity=0 time=0
EXTRACT: note_on channel=10 note=64 velocity=0 time=0
EXTRACT: note_on channel=9 note=36 velocity=120 time=0.07894725
EXTRACT: note_on channel=9 note=42 velocity=107 time=0
EXTRACT: note_on channel=1 note=28 velocity=123 time=0
EXTRACT: note_on channel=4 note=67 velocity=53 time=0
EXTRACT: note_on channel=4 note=62 velocity=40 time=0
EXTRACT: note_on channel=4 note=59 velocity=59 time=0
EXTRACT: note_on channel=10 note=64 velocity=119 time=0
EXTRACT: note_on channel=3 note=59 velocity=0 time=0.005263149999999999
EXTRACT: note_on channel=9 note=36 velocity=0 time=0.04736835
EXTRACT: note_on channel=9 note=42 velocity=0 time=0
EXTRACT: note_on channel=4 note=67 velocity=0 time=0.02631575
EXTRACT: note_on channel=4 note=62 velocity=0 time=0
EXTRACT: note_on channel=4 note=59 velocity=0 time=0
EXTRACT: note_on channel=2 note=62 velocity=119 time=0.07368409999999999
EXTRACT: note_on channel=9 note=69 velocity=73 time=0.005263149999999999
EXTRACT: note_on channel=3 note=62 velocity=107 time=0.005263149999999999
EXTRACT: note_on channel=9 note=69 velocity=0 time=0.04736835
EXTRACT: note_on channel=9 note=42 velocity=109 time=0.105263
EXTRACT: note_on channel=9 note=69 velocity=78 time=0
EXTRACT: note_on channel=1 note=28 velocity=0 time=0
EXTRACT: note_on channel=4 note=67 velocity=86 time=0
EXTRACT: note_on channel=4 note=62 velocity=85 time=0
EXTRACT: note_on channel=4 note=59 velocity=105 time=0
EXTRACT: note_on channel=4 note=55 velocity=112 time=0
EXTRACT: note_on channel=4 note=47 velocity=88 time=0
EXTRACT: note_on channel=7 note=67 velocity=111 time=0
EXTRACT: note_on channel=7 note=62 velocity=91 time=0
EXTRACT: note_on channel=7 note=59 velocity=75 time=0
EXTRACT: note_on channel=7 note=55 velocity=87 time=0
EXTRACT: note_on channel=7 note=47 velocity=104 time=0
EXTRACT: note_on channel=10 note=64 velocity=0 time=0
EXTRACT: note_on channel=3 note=62 velocity=0 time=0.005263149999999999
EXTRACT: note_on channel=9 note=42 velocity=0 time=0.04736835
EXTRACT: note_on channel=9 note=69 velocity=0 time=0
EXTRACT: note_on channel=2 note=67 velocity=118 time=0.09999984999999999
EXTRACT: note_on channel=4 note=67 velocity=0 time=0.005263149999999999
EXTRACT: note_on channel=4 note=62 velocity=0 time=0
EXTRACT: note_on channel=4 note=59 velocity=0 time=0
EXTRACT: note_on channel=4 note=55 velocity=0 time=0
EXTRACT: note_on channel=4 note=47 velocity=0 time=0
EXTRACT: note_on channel=7 note=67 velocity=0 time=0
EXTRACT: note_on channel=7 note=62 velocity=0 time=0
EXTRACT: note_on channel=7 note=59 velocity=0 time=0
EXTRACT: note_on channel=7 note=55 velocity=0 time=0
EXTRACT: note_on channel=7 note=47 velocity=0 time=0
EXTRACT: note_on channel=3 note=62 velocity=108 time=0.005263149999999999
EXTRACT: note_on channel=2 note=67 velocity=125 time=0.14736819999999998
EXTRACT: note_on channel=9 note=40 velocity=127 time=0.005263149999999999
EXTRACT: note_on channel=9 note=42 velocity=92 time=0
EXTRACT: note_on channel=9 note=69 velocity=66 time=0
EXTRACT: note_on channel=11 note=59 velocity=110 time=0
EXTRACT: note_on channel=9 note=40 velocity=0 time=0.0526315
EXTRACT: note_on channel=9 note=42 velocity=0 time=0
EXTRACT: note_on channel=9 note=69 velocity=0 time=0
EXTRACT: note_on channel=4 note=67 velocity=46 time=0.105263
EXTRACT: note_on channel=4 note=62 velocity=70 time=0
EXTRACT: note_on channel=4 note=59 velocity=67 time=0
EXTRACT: note_on channel=11 note=59 velocity=0 time=0
EXTRACT: note_on channel=4 note=67 velocity=0 time=0.07894725
EXTRACT: note_on channel=4 note=62 velocity=0 time=0
EXTRACT: note_on channel=4 note=59 velocity=0 time=0
EXTRACT: note_on channel=2 note=62 velocity=121 time=0.07368409999999999
EXTRACT: note_on channel=9 note=42 velocity=107 time=0.005263149999999999
EXTRACT: note_on channel=1 note=28 velocity=119 time=0
EXTRACT: note_on channel=4 note=67 velocity=91 time=0
EXTRACT: note_on channel=4 note=62 velocity=55 time=0
EXTRACT: note_on channel=4 note=59 velocity=91 time=0
EXTRACT: note_on channel=4 note=55 velocity=88 time=0
EXTRACT: note_on channel=4 note=47 velocity=79 time=0
EXTRACT: note_on channel=10 note=69 velocity=103 time=0
EXTRACT: note_on channel=11 note=59 velocity=106 time=0
EXTRACT: note_on channel=9 note=42 velocity=0 time=0.0526315
EXTRACT: note_on channel=4 note=67 velocity=0 time=0.02631575
EXTRACT: note_on channel=4 note=62 velocity=0 time=0
EXTRACT: note_on channel=4 note=59 velocity=0 time=0
EXTRACT: note_on channel=4 note=55 velocity=0 time=0
EXTRACT: note_on channel=4 note=47 velocity=0 time=0
EXTRACT: note_on channel=1 note=28 velocity=0 time=0.07894725
EXTRACT: note_on channel=10 note=69 velocity=0 time=0
EXTRACT: note_on channel=10 note=69 velocity=108 time=0
EXTRACT: note_on channel=11 note=59 velocity=0 time=0
EXTRACT: note_on channel=2 note=40 velocity=0 time=0.15263134999999997
EXTRACT: note_on channel=2 note=62 velocity=0 time=0
EXTRACT: note_on channel=2 note=67 velocity=0 time=0
EXTRACT: note_on channel=2 note=62 velocity=0 time=0
EXTRACT: note_on channel=2 note=59 velocity=0 time=0
EXTRACT: note_on channel=2 note=62 velocity=0 time=0
EXTRACT: note_on channel=2 note=67 velocity=0 time=0
EXTRACT: note_on channel=2 note=67 velocity=0 time=0
EXTRACT: note_on channel=2 note=62 velocity=0 time=0
EXTRACT: note_on channel=2 note=57 velocity=106 time=0
EXTRACT: note_on channel=2 note=54 velocity=126 time=0
EXTRACT: note_on channel=9 note=42 velocity=100 time=0.005263149999999999
EXTRACT: note_on channel=9 note=36 velocity=120 time=0
EXTRACT: note_on channel=1 note=30 velocity=123 time=0
EXTRACT: note_on channel=4 note=64 velocity=89 time=0
EXTRACT: note_on channel=4 note=61 velocity=99 time=0
EXTRACT: note_on channel=4 note=57 velocity=103 time=0
EXTRACT: note_on channel=4 note=54 velocity=114 time=0
EXTRACT: note_on channel=6 note=59 velocity=0 time=0
EXTRACT: note_on channel=6 note=62 velocity=0 time=0
EXTRACT: note_on channel=6 note=67 velocity=0 time=0
EXTRACT: note_on channel=6 note=57 velocity=101 time=0
EXTRACT: note_on channel=6 note=61 velocity=127 time=0
EXTRACT: note_on channel=6 note=66 velocity=120 time=0
EXTRACT: note_on channel=7 note=64 velocity=108 time=0
EXTRACT: note_on channel=7 note=61 velocity=107 time=0
EXTRACT: note_on channel=7 note=57 velocity=92 time=0
EXTRACT: note_on channel=7 note=54 velocity=74 time=0
EXTRACT: note_on channel=10 note=69 velocity=0 time=0
EXTRACT: note_on channel=10 note=69 velocity=118 time=0
EXTRACT: note_on channel=3 note=62 velocity=0 time=0.005263149999999999
EXTRACT: note_on channel=9 note=42 velocity=0 time=0.04736835
EXTRACT: note_on channel=9 note=36 velocity=0 time=0
EXTRACT: note_on channel=10 note=69 velocity=0 time=0.105263
EXTRACT: note_on channel=1 note=30 velocity=0 time=0.04736835
EXTRACT: note_on channel=1 note=30 velocity=113 time=0.005263149999999999
EXTRACT: note_on channel=2 note=61 velocity=111 time=0.09999984999999999
EXTRACT: note_on channel=4 note=64 velocity=0 time=0.005263149999999999
EXTRACT: note_on channel=4 note=61 velocity=0 time=0
EXTRACT: note_on channel=4 note=57 velocity=0 time=0
EXTRACT: note_on channel=4 note=54 velocity=0 time=0
EXTRACT: note_on channel=7 note=64 velocity=0 time=0
EXTRACT: note_on channel=7 note=61 velocity=0 time=0
EXTRACT: note_on channel=7 note=57 velocity=0 time=0
EXTRACT: note_on channel=7 note=54 velocity=0 time=0
EXTRACT: note_on channel=10 note=69 velocity=113 time=0
EXTRACT: note_on channel=3 note=61 velocity=124 time=0.005263149999999999
EXTRACT: note_on channel=1 note=30 velocity=0 time=0.0947367
EXTRACT: note_on channel=1 note=30 velocity=120 time=0.005263149999999999
EXTRACT: note_on channel=2 note=64 velocity=117 time=0.04736835
EXTRACT: note_on channel=4 note=64 velocity=106 time=0.005263149999999999
EXTRACT: note_on channel=4 note=61 velocity=94 time=0
EXTRACT: note_on channel=4 note=57 velocity=110 time=0
EXTRACT: note_on channel=4 note=54 velocity=88 time=0
EXTRACT: note_on channel=7 note=64 velocity=79 time=0
EXTRACT: note_on channel=7 note=61 velocity=95 time=0
EXTRACT: note_on channel=7 note=57 velocity=101 time=0
EXTRACT: note_on channel=7 note=54 velocity=84 time=0
EXTRACT: note_on channel=10 note=69 velocity=0 time=0
EXTRACT: note_on channel=1 note=30 velocity=0 time=0.15263134999999997
EXTRACT: note_on channel=9 note=42 velocity=95 time=0.005263149999999999
EXTRACT: note_on channel=1 note=37 velocity=124 time=0
EXTRACT: note_on channel=4 note=64 velocity=0 time=0
EXTRACT: note_on channel=4 note=61 velocity=0 time=0
EXTRACT: note_on channel=4 note=57 velocity=0 time=0
EXTRACT: note_on channel=4 note=54 velocity=0 time=0
EXTRACT: note_on channel=7 note=64 velocity=0 time=0
EXTRACT: note_on channel=7 note=61 velocity=0 time=0
EXTRACT: note_on channel=7 note=57 velocity=0 time=0
EXTRACT: note_on channel=7 note=54 velocity=0 time=0
EXTRACT: note_on channel=10 note=73 velocity=117 time=0
EXTRACT: note_on channel=3 note=61 velocity=0 time=0.005263149999999999
EXTRACT: note_on channel=9 note=42 velocity=0 time=0.04736835
EXTRACT: note_on channel=2 note=61 velocity=124 time=0.09999984999999999
EXTRACT: note_on channel=4 note=64 velocity=72 time=0.005263149999999999
EXTRACT: note_on channel=4 note=61 velocity=57 time=0
EXTRACT: note_on channel=4 note=57 velocity=72 time=0
EXTRACT: note_on channel=4 note=54 velocity=57 time=0
EXTRACT: note_on channel=3 note=61 velocity=127 time=0.005263149999999999
EXTRACT: note_on channel=1 note=37 velocity=0 time=0.07368409999999999
EXTRACT: note_on channel=4 note=64 velocity=0 time=0
EXTRACT: note_on channel=4 note=61 velocity=0 time=0
EXTRACT: note_on channel=4 note=57 velocity=0 time=0
EXTRACT: note_on channel=4 note=54 velocity=0 time=0
EXTRACT: note_on channel=1 note=42 velocity=124 time=0.07894725
EXTRACT: note_on channel=4 note=64 velocity=46 time=0
EXTRACT: note_on channel=4 note=61 velocity=66 time=0
EXTRACT: note_on channel=4 note=57 velocity=71 time=0
EXTRACT: note_on channel=4 note=64 velocity=0 time=0.07894725
EXTRACT: note_on channel=4 note=61 velocity=0 time=0
EXTRACT: note_on channel=4 note=57 velocity=0 time=0
EXTRACT: note_on channel=2 note=57 velocity=120 time=0.07368409999999999
EXTRACT: note_on channel=4 note=64 velocity=74 time=0.005263149999999999
EXTRACT: note_on channel=4 note=61 velocity=89 time=0
EXTRACT: note_on channel=4 note=57 velocity=59 time=0
EXTRACT: note_on channel=4 note=54 velocity=78 time=0
EXTRACT: note_on channel=3 note=61 velocity=0 time=0.005263149999999999
EXTRACT: note_on channel=1 note=42 velocity=0 time=0.07368409999999999
EXTRACT: note_on channel=4 note=64 velocity=0 time=0
EXTRACT: note_on channel=4 note=61 velocity=0 time=0
EXTRACT: note_on channel=4 note=57 velocity=0 time=0
EXTRACT: note_on channel=4 note=54 velocity=0 time=0
EXTRACT: note_on channel=2 note=61 velocity=103 time=0.07368409999999999
EXTRACT: note_on channel=9 note=36 velocity=120 time=0.005263149999999999
EXTRACT: note_on channel=9 note=42 velocity=107 time=0
EXTRACT: note_on channel=1 note=37 velocity=127 time=0
EXTRACT: note_on channel=4 note=64 velocity=64 time=0
EXTRACT: note_on channel=4 note=61 velocity=56 time=0
EXTRACT: note_on channel=4 note=57 velocity=41 time=0
EXTRACT: note_on channel=10 note=73 velocity=0 time=0
EXTRACT: note_on channel=10 note=76 velocity=104 time=0
EXTRACT: note_on channel=3 note=61 velocity=112 time=0.005263149999999999
EXTRACT: note_on channel=9 note=36 velocity=0 time=0.04736835
EXTRACT: note_on channel=9 note=42 velocity=0 time=0
EXTRACT: note_on channel=4 note=64 velocity=0 time=0.02631575
EXTRACT: note_on channel=4 note=61 velocity=0 time=0
EXTRACT: note_on channel=4 note=57 velocity=0 time=0
EXTRACT: note_on channel=2 note=64 velocity=112 time=0.07368409999999999
EXTRACT: note_on channel=9 note=69 velocity=73 time=0.005263149999999999
EXTRACT: note_on channel=9 note=69 velocity=0 time=0.0526315
EXTRACT: note_on channel=2 note=66 velocity=125 time=0.09999984999999999
EXTRACT: note_on channel=9 note=36 velocity=120 time=0.005263149999999999
EXTRACT: note_on channel=9 note=42 velocity=96 time=0
EXTRACT: note_on channel=9 note=69 velocity=78 time=0
EXTRACT: note_on channel=4 note=64 velocity=101 time=0
EXTRACT: note_on channel=4 note=61 velocity=96 time=0
EXTRACT: note_on channel=4 note=57 velocity=97 time=0
EXTRACT: note_on channel=4 note=54 velocity=95 time=0
EXTRACT: note_on channel=7 note=64 velocity=82 time=0
EXTRACT: note_on channel=7 note=61 velocity=101 time=0
EXTRACT: note_on channel=7 note=57 velocity=81 time=0
EXTRACT: note_on channel=7 note=54 velocity=79 time=0
EXTRACT: note_on channel=9 note=36 velocity=0 time=0.0526315
EXTRACT: note_on channel=9 note=42 velocity=0 time=0
EXTRACT: note_on channel=9 note=69 velocity=0 time=0
EXTRACT: note_on channel=1 note=37 velocity=0 time=0.04736835
EXTRACT: note_on channel=1 note=42 velocity=122 time=0.005263149999999999
EXTRACT: note_on channel=2 note=69 velocity=114 time=0.04736835
EXTRACT: note_on channel=4 note=64 velocity=0 time=0.005263149999999999
EXTRACT: note_on channel=4 note=61 velocity=0 time=0
EXTRACT: note_on channel=4 note=57 velocity=0 time=0
EXTRACT: note_on channel=4 note=54 velocity=0 time=0
EXTRACT: note_on channel=7 note=64 velocity=0 time=0
EXTRACT: note_on channel=7 note=61 velocity=0 time=0
EXTRACT: note_on channel=7 note=57 velocity=0 time=0
EXTRACT: note_on channel=7 note=54 velocity=0 time=0
EXTRACT: note_on channel=9 note=40 velocity=127 time=0.1578945
EXTRACT: note_on channel=9 note=42 velocity=108 time=0
EXTRACT: note_on channel=9 note=69 velocity=66 time=0
EXTRACT: note_on channel=10 note=76 velocity=0 time=0
EXTRACT: note_on channel=10 note=74 velocity=98 time=0
EXTRACT: note_on channel=9 note=40 velocity=0 time=0.0526315
EXTRACT: note_on channel=9 note=42 velocity=0 time=0
EXTRACT: note_on channel=9 note=69 velocity=0 time=0
EXTRACT: note_on channel=4 note=64 velocity=67 time=0.105263
EXTRACT: note_on channel=4 note=61 velocity=49 time=0
EXTRACT: note_on channel=4 note=57 velocity=45 time=0
EXTRACT: note_on channel=1 note=42 velocity=0 time=0.04736835
EXTRACT: note_on channel=1 note=49 velocity=116 time=0.005263149999999999
EXTRACT: note_on channel=4 note=64 velocity=0 time=0.02631575
EXTRACT: note_on channel=4 note=61 velocity=0 time=0
EXTRACT: note_on channel=4 note=57 velocity=0 time=0
EXTRACT: note_on channel=9 note=36 velocity=90 time=0.07894725
EXTRACT: note_on channel=9 note=42 velocity=93 time=0
EXTRACT: note_on channel=4 note=64 velocity=91 time=0
EXTRACT: note_on channel=4 note=61 velocity=76 time=0
EXTRACT: note_on channel=4 note=57 velocity=74 time=0
EXTRACT: note_on channel=4 note=54 velocity=88 time=0
EXTRACT: note_on channel=8 note=54 velocity=91 time=0
EXTRACT: note_on channel=8 note=66 velocity=123 time=0
EXTRACT: note_on channel=3 note=61 velocity=95 time=0.005263149999999999
EXTRACT: note_on channel=9 note=36 velocity=0 time=0.04736835
EXTRACT: note_on channel=9 note=42 velocity=0 time=0
EXTRACT: note_on channel=4 note=64 velocity=0 time=0.02631575
EXTRACT: note_on channel=4 note=61 velocity=0 time=0
EXTRACT: note_on channel=4 note=57 velocity=0 time=0
EXTRACT: note_on channel=4 note=54 velocity=0 time=0
EXTRACT: note_on channel=9 note=40 velocity=127 time=0.07894725
EXTRACT: note_on channel=9 note=40 velocity=0 time=0.0526315
EXTRACT: note_on channel=1 note=49 velocity=0 time=0.09999984999999999
EXTRACT: note_on channel=2 note=57 velocity=0 time=0
EXTRACT: note_on channel=2 note=54 velocity=0 time=0
EXTRACT: note_on channel=2 note=61 velocity=0 time=0
EXTRACT: note_on channel=2 note=64 velocity=0 time=0
EXTRACT: note_on channel=2 note=61 velocity=0 time=0
EXTRACT: note_on channel=2 note=57 velocity=0 time=0
EXTRACT: note_on channel=2 note=61 velocity=0 time=0
EXTRACT: note_on channel=2 note=64 velocity=0 time=0
EXTRACT: note_on channel=2 note=66 velocity=0 time=0
EXTRACT: note_on channel=2 note=69 velocity=0 time=0
EXTRACT: note_on channel=2 note=47 velocity=125 time=0
EXTRACT: note_on channel=9 note=49 velocity=100 time=0.005263149999999999
EXTRACT: note_on channel=9 note=36 velocity=120 time=0
EXTRACT: note_on channel=1 note=35 velocity=109 time=0
EXTRACT: note_on channel=4 note=66 velocity=111 time=0
EXTRACT: note_on channel=4 note=62 velocity=103 time=0
EXTRACT: note_on channel=4 note=59 velocity=113 time=0
EXTRACT: note_on channel=4 note=54 velocity=106 time=0
EXTRACT: note_on channel=4 note=47 velocity=90 time=0
EXTRACT: control_change channel=5 control=11 value=60 time=0
EXTRACT: note_on channel=5 note=90 velocity=105 time=0
EXTRACT: note_on channel=5 note=78 velocity=105 time=0
EXTRACT: note_on channel=6 note=57 velocity=0 time=0
EXTRACT: note_on channel=6 note=61 velocity=0 time=0
EXTRACT: note_on channel=6 note=66 velocity=0 time=0
EXTRACT: control_change channel=6 control=11 value=40 time=0
EXTRACT: note_on channel=6 note=59 velocity=114 time=0
EXTRACT: note_on channel=6 note=62 velocity=115 time=0
EXTRACT: note_on channel=6 note=66 velocity=118 time=0
EXTRACT: note_on channel=7 note=66 velocity=101 time=0
EXTRACT: note_on channel=7 note=62 velocity=105 time=0
EXTRACT: note_on channel=7 note=59 velocity=84 time=0
EXTRACT: note_on channel=7 note=54 velocity=81 time=0
EXTRACT: note_on channel=7 note=47 velocity=86 time=0
EXTRACT: note_on channel=10 note=74 velocity=0 time=0
EXTRACT: note_on channel=3 note=61 velocity=0 time=0.005263149999999999
EXTRACT: note_on channel=3 note=61 velocity=0 time=0
EXTRACT: control_change channel=5 control=11 value=61 time=0.015789449999999997
EXTRACT: control_change channel=6 control=11 value=41 time=0.010526299999999999
EXTRACT: control_change channel=5 control=11 value=62 time=0.005263149999999999
EXTRACT: note_on channel=9 note=49 velocity=0 time=0.015789449999999997
EXTRACT: note_on channel=9 note=36 velocity=0 time=0
EXTRACT: control_change channel=5 control=11 value=63 time=0.005263149999999999
EXTRACT: control_change channel=6 control=11 value=42 time=0.005263149999999999
EXTRACT: control_change channel=5 control=11 value=64 time=0.010526299999999999
EXTRACT: control_change channel=5 control=11 value=65 time=0.021052599999999998
EXTRACT: control_change channel=6 control=11 value=43 time=0
EXTRACT: control_change channel=5 control=11 value=66 time=0.015789449999999997
EXTRACT: control_change channel=6 control=11 value=44 time=0.015789449999999997
EXTRACT: control_change channel=5 control=11 value=67 time=0.005263149999999999
EXTRACT: note_on channel=1 note=35 velocity=0 time=0.021052599999999998
EXTRACT: control_change channel=5 control=11 value=68 time=0
EXTRACT: note_on channel=1 note=35 velocity=109 time=0.005263149999999999
EXTRACT: control_change channel=6 control=11 value=45 time=0
EXTRACT: control_change channel=5 control=11 value=69 time=0.010526299999999999
EXTRACT: control_change channel=5 control=11 value=70 time=0.021052599999999998
EXTRACT: control_change channel=6 control=11 value=46 time=0
EXTRACT: control_change channel=5 control=11 value=71 time=0.015789449999999997
EXTRACT: control_change channel=6 control=11 value=47 time=0.015789449999999997
EXTRACT: control_change channel=5 control=11 value=72 time=0.005263149999999999
EXTRACT: control_change channel=5 control=11 value=73 time=0.021052599999999998
EXTRACT: control_change channel=6 control=11 value=48 time=0.005263149999999999
EXTRACT: control_change channel=5 control=11 value=74 time=0.010526299999999999
EXTRACT: control_change channel=5 control=11 value=75 time=0.021052599999999998
EXTRACT: control_change channel=6 control=11 value=49 time=0
EXTRACT: control_change channel=5 control=11 value=76 time=0.015789449999999997
EXTRACT: note_on channel=2 note=62 velocity=105 time=0.010526299999999999
EXTRACT: note_on channel=9 note=42 velocity=100 time=0.005263149999999999
EXTRACT: note_on channel=1 note=35 velocity=0 time=0
EXTRACT: note_on channel=4 note=66 velocity=0 time=0
EXTRACT: note_on channel=4 note=62 velocity=0 time=0
EXTRACT: note_on channel=4 note=59 velocity=0 time=0
EXTRACT: note_on channel=4 note=54 velocity=0 time=0
EXTRACT: note_on channel=4 note=47 velocity=0 time=0
EXTRACT: control_change channel=6 control=11 value=50 time=0
EXTRACT: note_on channel=7 note=66 velocity=0 time=0
EXTRACT: note_on channel=7 note=62 velocity=0 time=0
EXTRACT: note_on channel=7 note=59 velocity=0 time=0
EXTRACT: note_on channel=7 note=54 velocity=0 time=0
EXTRACT: note_on channel=7 note=47 velocity=0 time=0
EXTRACT: note_on channel=8 note=54 velocity=0 time=0
EXTRACT: note_on channel=8 note=66 velocity=0 time=0
EXTRACT: note_on channel=8 note=57 velocity=85 time=0
EXTRACT: note_on channel=8 note=69 velocity=123 time=0
EXTRACT: note_on channel=3 note=62 velocity=119 time=0.005263149999999999
EXTRACT: control_change channel=5 control=11 value=77 time=0
EXTRACT: control_change channel=5 control=11 value=78 time=0.015789449999999997
EXTRACT: control_change channel=6 control=11 value=51 time=0.010526299999999999
EXTRACT: control_change channel=5 control=11 value=79 time=0.010526299999999999
EXTRACT: note_on channel=9 note=42 velocity=0 time=0.010526299999999999
EXTRACT: control_change channel=5 control=11 value=80 time=0.010526299999999999
EXTRACT: control_change channel=6 control=11 value=52 time=0
EXTRACT: control_change channel=5 control=11 value=81 time=0.015789449999999997
EXTRACT: control_change channel=6 control=11 value=53 time=0.015789449999999997
EXTRACT: control_change channel=5 control=11 value=82 time=0.005263149999999999
EXTRACT: control_change channel=5 control=11 value=83 time=0.015789449999999997
EXTRACT: control_change channel=6 control=11 value=54 time=0.010526299999999999
EXTRACT: control_change channel=5 control=11 value=84 time=0.010526299999999999
EXTRACT: note_on channel=2 note=66 velocity=122 time=0.015789449999999997
EXTRACT: note_on channel=1 note=42 velocity=123 time=0.005263149999999999
EXTRACT: note_on channel=4 note=66 velocity=114 time=0
EXTRACT: note_on channel=4 note=62 velocity=114 time=0
EXTRACT: note_on channel=4 note=59 velocity=104 time=0
EXTRACT: note_on channel=4 note=54 velocity=87 time=0
EXTRACT: note_on channel=4 note=47 velocity=90 time=0
EXTRACT: control_change channel=5 control=11 value=85 time=0
EXTRACT: control_change channel=6 control=11 value=55 time=0
EXTRACT: note_on channel=7 note=66 velocity=99 time=0
EXTRACT: note_on channel=7 note=62 velocity=90 time=0
EXTRACT: note_on channel=7 note=59 velocity=85 time=0
EXTRACT: note_on channel=7 note=54 velocity=100 time=0
EXTRACT: note_on channel=7 note=47 velocity=77 time=0
EXTRACT: note_on channel=8 note=57 velocity=0 time=0
EXTRACT: note_on channel=8 note=69 velocity=0 time=0
EXTRACT: control_change channel=5 control=11 value=86 time=0.015789449999999997
EXTRACT: control_change channel=6 control=11 value=56 time=0.015789449999999997
EXTRACT: control_change channel=5 control=11 value=87 time=0.005263149999999999
EXTRACT: control_change channel=5 control=11 value=88 time=0.015789449999999997
EXTRACT: control_change channel=6 control=11 value=57 time=0.010526299999999999
EXTRACT: control_change channel=5 control=11 value=89 time=0.010526299999999999
EXTRACT: control_change channel=5 control=11 value=90 time=0.015789449999999997
EXTRACT: control_change channel=6 control=11 value=58 time=0.005263149999999999
EXTRACT: control_change channel=5 control=11 value=91 time=0.015789449999999997
EXTRACT: control_change channel=6 control=11 value=59 time=0.015789449999999997
EXTRACT: control_change channel=5 control=11 value=92 time=0.005263149999999999
EXTRACT: control_change channel=5 control=11 value=93 time=0.015789449999999997
EXTRACT: note_on channel=9 note=42 velocity=99 time=0.010526299999999999
EXTRACT: note_on channel=9 note=40 velocity=127 time=0
EXTRACT: note_on channel=9 note=69 velocity=62 time=0
EXTRACT: note_on channel=1 note=42 velocity=0 time=0
EXTRACT: note_on channel=4 note=66 velocity=0 time=0
EXTRACT: note_on channel=4 note=62 velocity=0 time=0
EXTRACT: note_on channel=4 note=59 velocity=0 time=0
EXTRACT: note_on channel=4 note=54 velocity=0 time=0
EXTRACT: note_on channel=4 note=47 velocity=0 time=0
EXTRACT: control_change channel=6 control=11 value=60 time=0
EXTRACT: note_on channel=7 note=66 velocity=0 time=0
EXTRACT: note_on channel=7 note=62 velocity=0 time=0
EXTRACT: note_on channel=7 note=59 velocity=0 time=0
EXTRACT: note_on channel=7 note=54 velocity=0 time=0
EXTRACT: note_on channel=7 note=47 velocity=0 time=0
EXTRACT: note_on channel=8 note=55 velocity=85 time=0
EXTRACT: note_on channel=8 note=67 velocity=127 time=0
EXTRACT: note_on channel=3 note=62 velocity=0 time=0.005263149999999999
EXTRACT: control_change channel=5 control=11 value=94 time=0.005263149999999999
EXTRACT: control_change channel=5 control=11 value=95 time=0.015789449999999997
EXTRACT: control_change channel=6 control=11 value=61 time=0.005263149999999999
EXTRACT: control_change channel=5 control=11 value=96 time=0.015789449999999997
EXTRACT: note_on channel=9 note=42 velocity=0 time=0.005263149999999999
EXTRACT: note_on channel=9 note=40 velocity=0 time=0
EXTRACT: note_on channel=9 note=69 velocity=0 time=0
EXTRACT: control_change channel=6 control=11 value=62 time=0.010526299999999999
EXTRACT: control_change channel=5 control=11 value=97 time=0.005263149999999999
EXTRACT: control_change channel=5 control=11 value=98 time=0.015789449999999997
EXTRACT: control_change channel=6 control=11 value=63 time=0.010526299999999999
EXTRACT: control_change channel=5 control=11 value=99 time=0.010526299999999999
EXTRACT: control_change channel=5 control=11 value=100 time=0.015789449999999997
EXTRACT: control_change channel=6 control=11 value=64 time=0.005263149999999999
EXTRACT: control_change channel=5 control=11 value=101 time=0.015789449999999997
EXTRACT: note_on channel=2 note=62 velocity=108 time=0.010526299999999999
EXTRACT: note_on channel=9 note=69 velocity=70 time=0.005263149999999999
EXTRACT: note_on channel=1 note=42 velocity=123 time=0
EXTRACT: note_on channel=4 note=66 velocity=58 time=0
EXTRACT: note_on channel=4 note=62 velocity=69 time=0
EXTRACT: note_on channel=4 note=59 velocity=56 time=0
EXTRACT: note_on channel=4 note=54 velocity=73 time=0
EXTRACT: note_on channel=4 note=47 velocity=67 time=0
EXTRACT: control_change channel=5 control=11 value=102 time=0
EXTRACT: control_change channel=6 control=11 value=65 time=0
EXTRACT: note_on channel=8 note=55 velocity=0 time=0
EXTRACT: note_on channel=8 note=67 velocity=0 time=0
EXTRACT: note_on channel=3 note=62 velocity=110 time=0.005263149999999999
EXTRACT: control_change channel=5 control=11 value=103 time=0.015789449999999997
EXTRACT: control_change channel=6 control=11 value=66 time=0.010526299999999999
EXTRACT: control_change channel=5 control=11 value=104 time=0.010526299999999999
EXTRACT: note_on channel=9 note=69 velocity=0 time=0.010526299999999999
EXTRACT: control_change channel=5 control=11 value=105 time=0.005263149999999999
EXTRACT: control_change channel=6 control=11 value=67 time=0.005263149999999999
EXTRACT: note_on channel=4 note=66 velocity=0 time=0.015789449999999997
EXTRACT: note_on channel=4 note=62 velocity=0 time=0
EXTRACT: note_on channel=4 note=59 velocity=0 time=0
EXTRACT: note_on channel=4 note=54 velocity=0 time=0
EXTRACT: note_on channel=4 note=47 velocity=0 time=0
EXTRACT: control_change channel=5 control=11 value=106 time=0
EXTRACT: control_change channel=5 control=11 value=107 time=0.015789449999999997
EXTRACT: control_change channel=6 control=11 value=68 time=0
EXTRACT: control_change channel=5 control=11 value=108 time=0.021052599999999998
EXTRACT: control_change channel=6 control=11 value=69 time=0.010526299999999999
EXTRACT: control_change channel=5 control=11 value=109 time=0.010526299999999999
EXTRACT: note_on channel=1 note=42 velocity=0 time=0.015789449999999997
EXTRACT: control_change channel=5 control=11 value=110 time=0
EXTRACT: note_on channel=9 note=42 velocity=90 time=0.005263149999999999
EXTRACT: note_on channel=1 note=38 velocity=113 time=0
EXTRACT: note_on channel=4 note=66 velocity=57 time=0
EXTRACT: note_on channel=4 note=62 velocity=60 time=0
EXTRACT: note_on channel=4 note=59 velocity=45 time=0
EXTRACT: control_change channel=6 control=11 value=70 time=0
EXTRACT: note_on channel=8 note=54 velocity=96 time=0
EXTRACT: note_on channel=8 note=66 velocity=116 time=0
EXTRACT: note_on channel=3 note=62 velocity=0 time=0.005263149999999999
EXTRACT: note_on channel=3 note=61 velocity=122 time=0
EXTRACT: control_change channel=5 control=11 value=111 time=0.010526299999999999
EXTRACT: control_change channel=5 control=11 value=112 time=0.015789449999999997
EXTRACT: control_change channel=6 control=11 value=71 time=0
EXTRACT: note_on channel=9 note=42 velocity=0 time=0.021052599999999998
EXTRACT: control_change channel=5 control=11 value=113 time=0
EXTRACT: control_change channel=6 control=11 value=72 time=0.010526299999999999
EXTRACT: control_change channel=5 control=11 value=114 time=0.005263149999999999
EXTRACT: note_on channel=4 note=66 velocity=0 time=0.010526299999999999
EXTRACT: note_on channel=4 note=62 velocity=0 time=0
EXTRACT: note_on channel=4 note=59 velocity=0 time=0
EXTRACT: control_change channel=5 control=11 value=115 time=0.010526299999999999
EXTRACT: control_change channel=6 control=11 value=73 time=0.005263149999999999
EXTRACT: control_change channel=5 control=11 value=116 time=0.015789449999999997
EXTRACT: control_change channel=5 control=11 value=117 time=0.015789449999999997
EXTRACT: control_change channel=6 control=11 value=74 time=0
EXTRACT: control_change channel=5 control=11 value=118 time=0.021052599999999998
EXTRACT: note_on channel=2 note=59 velocity=111 time=0.005263149999999999
EXTRACT: note_on channel=9 note=69 velocity=62 time=0.005263149999999999
EXTRACT: note_on channel=1 note=38 velocity=0 time=0
EXTRACT: note_on channel=4 note=66 velocity=80 time=0
EXTRACT: note_on channel=4 note=62 velocity=90 time=0
EXTRACT: note_on channel=4 note=59 velocity=75 time=0
EXTRACT: note_on channel=4 note=54 velocity=89 time=0
EXTRACT: note_on channel=4 note=47 velocity=72 time=0
EXTRACT: control_change channel=6 control=11 value=75 time=0
EXTRACT: note_on channel=8 note=54 velocity=0 time=0
EXTRACT: note_on channel=8 note=66 velocity=0 time=0
EXTRACT: note_on channel=3 note=61 velocity=0 time=0.005263149999999999
EXTRACT: note_on channel=3 note=59 velocity=118 time=0
EXTRACT: control_change channel=5 control=11 value=119 time=0
EXTRACT: control_change channel=5 control=11 value=120 time=0.021052599999999998
EXTRACT: control_change channel=6 control=11 value=76 time=0.005263149999999999
EXTRACT: control_change channel=5 control=11 value=121 time=0.015789449999999997
EXTRACT: note_on channel=9 note=69 velocity=0 time=0.005263149999999999
EXTRACT: control_change channel=5 control=11 value=122 time=0.010526299999999999
EXTRACT: control_change channel=6 control=11 value=77 time=0
EXTRACT: note_on channel=4 note=66 velocity=0 time=0.015789449999999997
EXTRACT: note_on channel=4 note=62 velocity=0 time=0
EXTRACT: note_on channel=4 note=59 velocity=0 time=0
EXTRACT: note_on channel=4 note=54 velocity=0 time=0
EXTRACT: note_on channel=4 note=47 velocity=0 time=0
EXTRACT: control_change channel=5 control=11 value=123 time=0.005263149999999999
EXTRACT: control_change channel=6 control=11 value=78 time=0.010526299999999999
EXTRACT: control_change channel=5 control=11 value=124 time=0.005263149999999999
EXTRACT: control_change channel=5 control=11 value=125 time=0.021052599999999998
EXTRACT: control_change channel=6 control=11 value=79 time=0.005263149999999999
EXTRACT: control_change channel=5 control=11 value=126 time=0.010526299999999999
EXTRACT: note_on channel=9 note=36 velocity=120 time=0.021052599999999998
EXTRACT: note_on channel=9 note=42 velocity=95 time=0
EXTRACT: note_on channel=1 note=35 velocity=111 time=0
EXTRACT: note_on channel=4 note=66 velocity=63 time=0
EXTRACT: note_on channel=4 note=62 velocity=66 time=0
EXTRACT: note_on channel=4 note=59 velocity=54 time=0
EXTRACT: control_change channel=5 control=11 value=127 time=0
EXTRACT: control_change channel=6 control=11 value=80 time=0
EXTRACT: note_on channel=8 note=52 velocity=86 time=0
EXTRACT: note_on channel=8 note=64 velocity=127 time=0
EXTRACT: note_on channel=3 note=59 velocity=0 time=0.005263149999999999
EXTRACT: note_on channel=9 note=36 velocity=0 time=0.04736835
EXTRACT: note_on channel=9 note=42 velocity=0 time=0
EXTRACT: note_on channel=4 note=66 velocity=0 time=0.02631575
EXTRACT: note_on channel=4 note=62 velocity=0 time=0
EXTRACT: note_on channel=4 note=59 velocity=0 time=0
EXTRACT: note_on channel=2 note=62 velocity=107 time=0.07368409999999999
EXTRACT: note_on channel=9 note=69 velocity=73 time=0.005263149999999999
EXTRACT: note_on channel=3 note=62 velocity=103 time=0.005263149999999999
EXTRACT: note_on channel=9 note=69 velocity=0 time=0.04736835
EXTRACT: note_on channel=9 note=42 velocity=104 time=0.105263
EXTRACT: note_on channel=9 note=69 velocity=78 time=0
EXTRACT: note_on channel=1 note=35 velocity=0 time=0
EXTRACT: note_on channel=4 note=66 velocity=113 time=0
EXTRACT: note_on channel=4 note=62 velocity=90 time=0
EXTRACT: note_on channel=4 note=59 velocity=116 time=0
EXTRACT: note_on channel=4 note=54 velocity=106 time=0
EXTRACT: note_on channel=4 note=47 velocity=117 time=0
EXTRACT: note_on channel=7 note=66 velocity=102 time=0
EXTRACT: note_on channel=7 note=62 velocity=83 time=0
EXTRACT: note_on channel=7 note=59 velocity=95 time=0
EXTRACT: note_on channel=7 note=54 velocity=86 time=0
EXTRACT: note_on channel=7 note=47 velocity=89 time=0
EXTRACT: note_on channel=8 note=52 velocity=0 time=0
EXTRACT: note_on channel=8 note=64 velocity=0 time=0
EXTRACT: note_on channel=8 note=50 velocity=89 time=0
EXTRACT: note_on channel=8 note=62 velocity=117 time=0
EXTRACT: note_on channel=3 note=62 velocity=0 time=0.005263149999999999
EXTRACT: note_on channel=9 note=42 velocity=0 time=0.04736835
EXTRACT: note_on channel=9 note=69 velocity=0 time=0
EXTRACT: note_on channel=2 note=66 velocity=112 time=0.09999984999999999
EXTRACT: note_on channel=4 note=66 velocity=0 time=0.005263149999999999
EXTRACT: note_on channel=4 note=62 velocity=0 time=0
EXTRACT: note_on channel=4 note=59 velocity=0 time=0
EXTRACT: note_on channel=4 note=54 velocity=0 time=0
EXTRACT: note_on channel=4 note=47 velocity=0 time=0
EXTRACT: note_on channel=7 note=66 velocity=0 time=0
EXTRACT: note_on channel=7 note=62 velocity=0 time=0
EXTRACT: note_on channel=7 note=59 velocity=0 time=0
EXTRACT: note_on channel=7 note=54 velocity=0 time=0
EXTRACT: note_on channel=7 note=47 velocity=0 time=0
EXTRACT: note_on channel=8 note=50 velocity=0 time=0
EXTRACT: note_on channel=8 note=62 velocity=0 time=0
EXTRACT: note_on channel=3 note=62 velocity=120 time=0.005263149999999999
EXTRACT: note_on channel=2 note=66 velocity=112 time=0.14736819999999998
EXTRACT: note_on channel=9 note=40 velocity=127 time=0.005263149999999999
EXTRACT: note_on channel=9 note=42 velocity=92 time=0
EXTRACT: note_on channel=9 note=69 velocity=66 time=0
EXTRACT: note_on channel=8 note=52 velocity=83 time=0
EXTRACT: note_on channel=8 note=64 velocity=120 time=0
EXTRACT: note_on channel=9 note=40 velocity=0 time=0.0526315
EXTRACT: note_on channel=9 note=42 velocity=0 time=0
EXTRACT: note_on channel=9 note=69 velocity=0 time=0
EXTRACT: note_on channel=4 note=66 velocity=56 time=0.105263
EXTRACT: note_on channel=4 note=62 velocity=62 time=0
EXTRACT: note_on channel=4 note=59 velocity=67 time=0
EXTRACT: note_on channel=8 note=52 velocity=0 time=0
EXTRACT: note_on channel=8 note=64 velocity=0 time=0
EXTRACT: note_on channel=4 note=66 velocity=0 time=0.07894725
EXTRACT: note_on channel=4 note=62 velocity=0 time=0
EXTRACT: note_on channel=4 note=59 velocity=0 time=0
EXTRACT: note_on channel=2 note=62 velocity=125 time=0.07368409999999999
EXTRACT: note_on channel=9 note=42 velocity=101 time=0.005263149999999999
EXTRACT: note_on channel=1 note=30 velocity=120 time=0
EXTRACT: note_on channel=4 note=66 velocity=59 time=0
EXTRACT: note_on channel=4 note=62 velocity=54 time=0
EXTRACT: note_on channel=4 note=59 velocity=75 time=0
EXTRACT: note_on channel=4 note=54 velocity=76 time=0
EXTRACT: note_on channel=4 note=47 velocity=84 time=0
EXTRACT: note_on channel=8 note=54 velocity=87 time=0
EXTRACT: note_on channel=8 note=66 velocity=117 time=0
EXTRACT: note_on channel=9 note=42 velocity=0 time=0.0526315
EXTRACT: note_on channel=4 note=66 velocity=0 time=0.02631575
EXTRACT: note_on channel=4 note=62 velocity=0 time=0
EXTRACT: note_on channel=4 note=59 velocity=0 time=0
EXTRACT: note_on channel=4 note=54 velocity=0 time=0
EXTRACT: note_on channel=4 note=47 velocity=0 time=0
EXTRACT: note_on channel=1 note=30 velocity=0 time=0.07894725
EXTRACT: note_on channel=2 note=47 velocity=0 time=0.15263134999999997
EXTRACT: note_on channel=2 note=62 velocity=0 time=0
EXTRACT: note_on channel=2 note=66 velocity=0 time=0
EXTRACT: note_on channel=2 note=62 velocity=0 time=0
EXTRACT: note_on channel=2 note=59 velocity=0 time=0
EXTRACT: note_on channel=2 note=62 velocity=0 time=0
EXTRACT: note_on channel=2 note=66 velocity=0 time=0
EXTRACT: note_on channel=2 note=66 velocity=0 time=0
EXTRACT: note_on channel=2 note=47 velocity=103 time=0
EXTRACT: note_on channel=9 note=42 velocity=110 time=0.005263149999999999
EXTRACT: note_on channel=9 note=36 velocity=120 time=0
EXTRACT: note_on channel=1 note=35 velocity=119 time=0
EXTRACT: note_on channel=4 note=66 velocity=115 time=0
EXTRACT: note_on channel=4 note=62 velocity=90 time=0
EXTRACT: note_on channel=4 note=59 velocity=117 time=0
EXTRACT: note_on channel=4 note=54 velocity=110 time=0
EXTRACT: note_on channel=4 note=47 velocity=87 time=0
EXTRACT: note_on channel=7 note=66 velocity=75 time=0
EXTRACT: note_on channel=7 note=62 velocity=78 time=0
EXTRACT: note_on channel=7 note=59 velocity=88 time=0
EXTRACT: note_on channel=7 note=54 velocity=104 time=0
EXTRACT: note_on channel=7 note=47 velocity=77 time=0
EXTRACT: note_on channel=3 note=62 velocity=0 time=0.005263149999999999
EXTRACT: note_on channel=9 note=42 velocity=0 time=0.04736835
EXTRACT: note_on channel=9 note=36 velocity=0 time=0
EXTRACT: note_on channel=1 note=35 velocity=0 time=0.18421025
EXTRACT: note_on channel=2 note=62 velocity=0 time=0.07368409999999999
EXTRACT: note_on channel=2 note=62 velocity=117 time=0
EXTRACT: note_on channel=9 note=42 velocity=109 time=0.005263149999999999
EXTRACT: note_on channel=4 note=66 velocity=0 time=0
EXTRACT: note_on channel=4 note=62 velocity=0 time=0
EXTRACT: note_on channel=4 note=59 velocity=0 time=0
EXTRACT: note_on channel=4 note=54 velocity=0 time=0
EXTRACT: note_on channel=4 note=47 velocity=0 time=0
EXTRACT: note_on channel=7 note=66 velocity=0 time=0
EXTRACT: note_on channel=7 note=62 velocity=0 time=0
EXTRACT: note_on channel=7 note=59 velocity=0 time=0
EXTRACT: note_on channel=7 note=54 velocity=0 time=0
EXTRACT: note_on channel=7 note=47 velocity=0 time=0
EXTRACT: note_on channel=8 note=54 velocity=0 time=0
EXTRACT: note_on channel=8 note=66 velocity=0 time=0
EXTRACT: note_on channel=8 note=57 velocity=101 time=0
EXTRACT: note_on channel=8 note=69 velocity=116 time=0
EXTRACT: note_on channel=3 note=62 velocity=119 time=0.005263149999999999
EXTRACT: note_on channel=9 note=42 velocity=0 time=0.04736835
EXTRACT: note_on channel=2 note=66 velocity=108 time=0.09999984999999999
EXTRACT: note_on channel=1 note=35 velocity=122 time=0.005263149999999999
EXTRACT: note_on channel=4 note=66 velocity=104 time=0
EXTRACT: note_on channel=4 note=62 velocity=115 time=0
EXTRACT: note_on channel=4 note=59 velocity=99 time=0
EXTRACT: note_on channel=4 note=54 velocity=90 time=0
EXTRACT: note_on channel=4 note=47 velocity=114 time=0
EXTRACT: note_on channel=7 note=66 velocity=74 time=0
EXTRACT: note_on channel=7 note=62 velocity=106 time=0
EXTRACT: note_on channel=7 note=59 velocity=107 time=0
EXTRACT: note_on channel=7 note=54 velocity=100 time=0
EXTRACT: note_on channel=7 note=47 velocity=75 time=0
EXTRACT: note_on channel=8 note=57 velocity=0 time=0
EXTRACT: note_on channel=8 note=69 velocity=0 time=0
EXTRACT: note_on channel=9 note=42 velocity=101 time=0.1578945
EXTRACT: note_on channel=9 note=40 velocity=127 time=0
EXTRACT: note_on channel=9 note=69 velocity=62 time=0
EXTRACT: note_on channel=1 note=35 velocity=0 time=0
EXTRACT: note_on channel=4 note=66 velocity=0 time=0
EXTRACT: note_on channel=4 note=62 velocity=0 time=0
EXTRACT: note_on channel=4 note=59 velocity=0 time=0
EXTRACT: note_on channel=4 note=54 velocity=0 time=0
EXTRACT: note_on channel=4 note=47 velocity=0 time=0
EXTRACT: note_on channel=7 note=66 velocity=0 time=0
EXTRACT: note_on channel=7 note=62 velocity=0 time=0
EXTRACT: note_on channel=7 note=59 velocity=0 time=0
EXTRACT: note_on channel=7 note=54 velocity=0 time=0
EXTRACT: note_on channel=7 note=47 velocity=0 time=0
EXTRACT: note_on channel=8 note=55 velocity=92 time=0
EXTRACT: note_on channel=8 note=67 velocity=119 time=0
EXTRACT: note_on channel=3 note=62 velocity=0 time=0.005263149999999999
EXTRACT: note_on channel=9 note=42 velocity=0 time=0.04736835
EXTRACT: note_on channel=9 note=40 velocity=0 time=0
EXTRACT: note_on channel=9 note=69 velocity=0 time=0
EXTRACT: note_on channel=2 note=62 velocity=107 time=0.09999984999999999
EXTRACT: note_on channel=9 note=69 velocity=70 time=0.005263149999999999
EXTRACT: note_on channel=4 note=66 velocity=77 time=0
EXTRACT: note_on channel=4 note=62 velocity=70 time=0
EXTRACT: note_on channel=4 note=59 velocity=90 time=0
EXTRACT: note_on channel=4 note=54 velocity=53 time=0
EXTRACT: note_on channel=4 note=47 velocity=65 time=0
EXTRACT: note_on channel=8 note=55 velocity=0 time=0
EXTRACT: note_on channel=8 note=67 velocity=0 time=0
EXTRACT: note_on channel=3 note=62 velocity=103 time=0.005263149999999999
EXTRACT: note_on channel=9 note=69 velocity=0 time=0.04736835
EXTRACT: note_on channel=4 note=66 velocity=0 time=0.02631575
EXTRACT: note_on channel=4 note=62 velocity=0 time=0
EXTRACT: note_on channel=4 note=59 velocity=0 time=0
EXTRACT: note_on channel=4 note=54 velocity=0 time=0
EXTRACT: note_on channel=4 note=47 velocity=0 time=0
EXTRACT: note_on channel=9 note=42 velocity=91 time=0.07894725
EXTRACT: note_on channel=4 note=66 velocity=67 time=0
EXTRACT: note_on channel=4 note=62 velocity=48 time=0
EXTRACT: note_on channel=4 note=59 velocity=51 time=0
EXTRACT: note_on channel=8 note=54 velocity=92 time=0
EXTRACT: note_on channel=8 note=66 velocity=115 time=0
EXTRACT: note_on channel=3 note=62 velocity=0 time=0.005263149999999999
EXTRACT: note_on channel=3 note=61 velocity=115 time=0
EXTRACT: note_on channel=9 note=42 velocity=0 time=0.04736835
EXTRACT: note_on channel=4 note=66 velocity=0 time=0.02631575
EXTRACT: note_on channel=4 note=62 velocity=0 time=0
EXTRACT: note_on channel=4 note=59 velocity=0 time=0
EXTRACT: note_on channel=2 note=59 velocity=106 time=0.07368409999999999
EXTRACT: note_on channel=9 note=69 velocity=62 time=0.005263149999999999
EXTRACT: note_on channel=4 note=66 velocity=56 time=0
EXTRACT: note_on channel=4 note=62 velocity=71 time=0
EXTRACT: note_on channel=4 note=59 velocity=51 time=0
EXTRACT: note_on channel=4 note=54 velocity=53 time=0
EXTRACT: note_on channel=4 note=47 velocity=86 time=0
EXTRACT: note_on channel=8 note=54 velocity=0 time=0
EXTRACT: note_on channel=8 note=66 velocity=0 time=0
EXTRACT: note_on channel=3 note=61 velocity=0 time=0.005263149999999999
EXTRACT: note_on channel=3 note=59 velocity=125 time=0
EXTRACT: note_on channel=9 note=69 velocity=0 time=0.04736835
EXTRACT: note_on channel=4 note=66 velocity=0 time=0.02631575
EXTRACT: note_on channel=4 note=62 velocity=0 time=0
EXTRACT: note_on channel=4 note=59 velocity=0 time=0
EXTRACT: note_on channel=4 note=54 velocity=0 time=0
EXTRACT: note_on channel=4 note=47 velocity=0 time=0
EXTRACT: note_on channel=9 note=36 velocity=120 time=0.07894725
EXTRACT: note_on channel=9 note=42 velocity=90 time=0
EXTRACT: note_on channel=4 note=66 velocity=67 time=0
EXTRACT: note_on channel=4 note=62 velocity=50 time=0
EXTRACT: note_on channel=4 note=59 velocity=51 time=0
EXTRACT: note_on channel=8 note=52 velocity=85 time=0
EXTRACT: note_on channel=8 note=64 velocity=116 time=0
EXTRACT: note_on channel=3 note=59 velocity=0 time=0.005263149999999999
EXTRACT: note_on channel=9 note=36 velocity=0 time=0.04736835
EXTRACT: note_on channel=9 note=42 velocity=0 time=0
EXTRACT: note_on channel=4 note=66 velocity=0 time=0.02631575
EXTRACT: note_on channel=4 note=62 velocity=0 time=0
EXTRACT: note_on channel=4 note=59 velocity=0 time=0
EXTRACT: note_on channel=2 note=62 velocity=102 time=0.07368409999999999
EXTRACT: note_on channel=9 note=69 velocity=73 time=0.005263149999999999
EXTRACT: note_on channel=3 note=62 velocity=113 time=0.005263149999999999
EXTRACT: note_on channel=9 note=69 velocity=0 time=0.04736835
EXTRACT: note_on channel=9 note=42 velocity=101 time=0.105263
EXTRACT: note_on channel=9 note=69 velocity=78 time=0
EXTRACT: note_on channel=1 note=35 velocity=119 time=0
EXTRACT: note_on channel=4 note=66 velocity=97 time=0
EXTRACT: note_on channel=4 note=62 velocity=112 time=0
EXTRACT: note_on channel=4 note=59 velocity=103 time=0
EXTRACT: note_on channel=4 note=54 velocity=85 time=0
EXTRACT: note_on channel=4 note=47 velocity=117 time=0
EXTRACT: note_on channel=7 note=66 velocity=91 time=0
EXTRACT: note_on channel=7 note=62 velocity=90 time=0
EXTRACT: note_on channel=7 note=59 velocity=81 time=0
EXTRACT: note_on channel=7 note=54 velocity=104 time=0
EXTRACT: note_on channel=7 note=47 velocity=89 time=0
EXTRACT: note_on channel=8 note=52 velocity=0 time=0
EXTRACT: note_on channel=8 note=64 velocity=0 time=0
EXTRACT: note_on channel=8 note=50 velocity=97 time=0
EXTRACT: note_on channel=8 note=62 velocity=121 time=0
EXTRACT: note_on channel=3 note=62 velocity=0 time=0.005263149999999999
EXTRACT: note_on channel=9 note=42 velocity=0 time=0.04736835
EXTRACT: note_on channel=9 note=69 velocity=0 time=0
EXTRACT: note_on channel=2 note=66 velocity=119 time=0.09999984999999999
EXTRACT: note_on channel=1 note=35 velocity=0 time=0.005263149999999999
EXTRACT: note_on channel=4 note=66 velocity=0 time=0
EXTRACT: note_on channel=4 note=62 velocity=0 time=0
EXTRACT: note_on channel=4 note=59 velocity=0 time=0
EXTRACT: note_on channel=4 note=54 velocity=0 time=0
EXTRACT: note_on channel=4 note=47 velocity=0 time=0
EXTRACT: note_on channel=7 note=66 velocity=0 time=0
EXTRACT: note_on channel=7 note=62 velocity=0 time=0
EXTRACT: note_on channel=7 note=59 velocity=0 time=0
EXTRACT: note_on channel=7 note=54 velocity=0 time=0
EXTRACT: note_on channel=7 note=47 velocity=0 time=0
EXTRACT: note_on channel=8 note=50 velocity=0 time=0
EXTRACT: note_on channel=8 note=62 velocity=0 time=0
EXTRACT: note_on channel=3 note=62 velocity=118 time=0.005263149999999999
EXTRACT: note_on channel=2 note=66 velocity=108 time=0.14736819999999998
EXTRACT: note_on channel=9 note=40 velocity=127 time=0.005263149999999999
EXTRACT: note_on channel=9 note=42 velocity=95 time=0
EXTRACT: note_on channel=9 note=69 velocity=66 time=0
EXTRACT: note_on channel=8 note=54 velocity=92 time=0
EXTRACT: note_on channel=8 note=66 velocity=115 time=0
EXTRACT: note_on channel=9 note=40 velocity=0 time=0.0526315
EXTRACT: note_on channel=9 note=42 velocity=0 time=0
EXTRACT: note_on channel=9 note=69 velocity=0 time=0
EXTRACT: note_on channel=4 note=66 velocity=50 time=0.105263
EXTRACT: note_on channel=4 note=62 velocity=65 time=0
EXTRACT: note_on channel=4 note=59 velocity=65 time=0
EXTRACT: note_on channel=8 note=54 velocity=0 time=0
EXTRACT: note_on channel=8 note=66 velocity=0 time=0
EXTRACT: note_on channel=4 note=66 velocity=0 time=0.07894725
EXTRACT: note_on channel=4 note=62 velocity=0 time=0
EXTRACT: note_on channel=4 note=59 velocity=0 time=0
EXTRACT: note_on channel=2 note=62 velocity=115 time=0.07368409999999999
EXTRACT: note_on channel=9 note=36 velocity=90 time=0.005263149999999999
EXTRACT: note_on channel=9 note=42 velocity=92 time=0
EXTRACT: note_on channel=1 note=38 velocity=115 time=0
EXTRACT: note_on channel=4 note=66 velocity=81 time=0
EXTRACT: note_on channel=4 note=62 velocity=86 time=0
EXTRACT: note_on channel=4 note=59 velocity=80 time=0
EXTRACT: note_on channel=4 note=54 velocity=80 time=0
EXTRACT: note_on channel=4 note=47 velocity=75 time=0
EXTRACT: note_on channel=8 note=47 velocity=85 time=0
EXTRACT: note_on channel=8 note=59 velocity=119 time=0
EXTRACT: note_on channel=9 note=36 velocity=0 time=0.0526315
EXTRACT: note_on channel=9 note=42 velocity=0 time=0
EXTRACT: note_on channel=4 note=66 velocity=0 time=0.02631575
EXTRACT: note_on channel=4 note=62 velocity=0 time=0
EXTRACT: note_on channel=4 note=59 velocity=0 time=0
EXTRACT: note_on channel=4 note=54 velocity=0 time=0
EXTRACT: note_on channel=4 note=47 velocity=0 time=0
EXTRACT: note_on channel=9 note=40 velocity=127 time=0.07894725
EXTRACT: note_on channel=1 note=38 velocity=0 time=0
EXTRACT: note_on channel=9 note=40 velocity=0 time=0.0526315
EXTRACT: note_on channel=2 note=47 velocity=0 time=0.09999984999999999
EXTRACT: note_on channel=2 note=62 velocity=0 time=0
EXTRACT: note_on channel=2 note=66 velocity=0 time=0
EXTRACT: note_on channel=2 note=62 velocity=0 time=0
EXTRACT: note_on channel=2 note=59 velocity=0 time=0
EXTRACT: note_on channel=2 note=62 velocity=0 time=0
EXTRACT: note_on channel=2 note=66 velocity=0 time=0
EXTRACT: note_on channel=2 note=66 velocity=0 time=0
EXTRACT: note_on channel=2 note=62 velocity=0 time=0
EXTRACT: note_on channel=2 note=40 velocity=122 time=0
EXTRACT: note_on channel=9 note=42 velocity=93 time=0.005263149999999999
EXTRACT: note_on channel=9 note=36 velocity=120 time=0
EXTRACT: note_on channel=1 note=40 velocity=125 time=0
EXTRACT: note_on channel=4 note=67 velocity=103 time=0
EXTRACT: note_on channel=4 note=62 velocity=88 time=0
EXTRACT: note_on channel=4 note=59 velocity=94 time=0
EXTRACT: note_on channel=4 note=55 velocity=115 time=0
EXTRACT: note_on channel=4 note=47 velocity=112 time=0
EXTRACT: note_on channel=5 note=90 velocity=0 time=0
EXTRACT: note_on channel=5 note=78 velocity=0 time=0
EXTRACT: note_on channel=5 note=91 velocity=115 time=0
EXTRACT: note_on channel=5 note=79 velocity=99 time=0
EXTRACT: note_on channel=6 note=59 velocity=0 time=0
EXTRACT: note_on channel=6 note=62 velocity=0 time=0
EXTRACT: note_on channel=6 note=66 velocity=0 time=0
EXTRACT: note_on channel=6 note=59 velocity=110 time=0
EXTRACT: note_on channel=6 note=62 velocity=122 time=0
EXTRACT: note_on channel=6 note=67 velocity=126 time=0
EXTRACT: note_on channel=7 note=67 velocity=106 time=0
EXTRACT: note_on channel=7 note=62 velocity=101 time=0
EXTRACT: note_on channel=7 note=59 velocity=102 time=0
EXTRACT: note_on channel=7 note=55 velocity=93 time=0
EXTRACT: note_on channel=7 note=47 velocity=97 time=0
EXTRACT: note_on channel=3 note=62 velocity=0 time=0.005263149999999999
EXTRACT: note_on channel=9 note=42 velocity=0 time=0.04736835
EXTRACT: note_on channel=9 note=36 velocity=0 time=0
EXTRACT: note_on channel=1 note=40 velocity=0 time=0.07894725
EXTRACT: note_on channel=2 note=62 velocity=115 time=0.17894709999999997
EXTRACT: note_on channel=9 note=42 velocity=106 time=0.005263149999999999
EXTRACT: note_on channel=1 note=40 velocity=109 time=0
EXTRACT: note_on channel=4 note=67 velocity=0 time=0
EXTRACT: note_on channel=4 note=62 velocity=0 time=0
EXTRACT: note_on channel=4 note=59 velocity=0 time=0
EXTRACT: note_on channel=4 note=55 velocity=0 time=0
EXTRACT: note_on channel=4 note=47 velocity=0 time=0
EXTRACT: note_on channel=7 note=67 velocity=0 time=0
EXTRACT: note_on channel=7 note=62 velocity=0 time=0
EXTRACT: note_on channel=7 note=59 velocity=0 time=0
EXTRACT: note_on channel=7 note=55 velocity=0 time=0
EXTRACT: note_on channel=7 note=47 velocity=0 time=0
EXTRACT: note_on channel=8 note=47 velocity=0 time=0
EXTRACT: note_on channel=8 note=59 velocity=0 time=0
EXTRACT: note_on channel=8 note=52 velocity=90 time=0
EXTRACT: note_on channel=8 note=64 velocity=126 time=0
EXTRACT: note_on channel=3 note=62 velocity=114 time=0.005263149999999999
EXTRACT: note_on channel=9 note=42 velocity=0 time=0.04736835
EXTRACT: note_on channel=1 note=40 velocity=0 time=0.09999984999999999
EXTRACT: note_on channel=2 note=67 velocity=121 time=0
EXTRACT: note_on channel=1 note=35 velocity=114 time=0.005263149999999999
EXTRACT: note_on channel=4 note=67 velocity=103 time=0
EXTRACT: note_on channel=4 note=62 velocity=117 time=0
EXTRACT: note_on channel=4 note=59 velocity=88 time=0
EXTRACT: note_on channel=4 note=55 velocity=102 time=0
EXTRACT: note_on channel=4 note=47 velocity=116 time=0
EXTRACT: note_on channel=7 note=67 velocity=89 time=0
EXTRACT: note_on channel=7 note=62 velocity=93 time=0
EXTRACT: note_on channel=7 note=59 velocity=98 time=0
EXTRACT: note_on channel=7 note=55 velocity=83 time=0
EXTRACT: note_on channel=7 note=47 velocity=95 time=0
EXTRACT: note_on channel=8 note=52 velocity=0 time=0
EXTRACT: note_on channel=8 note=64 velocity=0 time=0
EXTRACT: note_on channel=9 note=42 velocity=105 time=0.1578945
EXTRACT: note_on channel=9 note=40 velocity=127 time=0
EXTRACT: note_on channel=9 note=69 velocity=62 time=0
EXTRACT: note_on channel=1 note=35 velocity=0 time=0
EXTRACT: note_on channel=4 note=67 velocity=0 time=0
EXTRACT: note_on channel=4 note=62 velocity=0 time=0
EXTRACT: note_on channel=4 note=59 velocity=0 time=0
EXTRACT: note_on channel=4 note=55 velocity=0 time=0
EXTRACT: note_on channel=4 note=47 velocity=0 time=0
EXTRACT: note_on channel=7 note=67 velocity=0 time=0
EXTRACT: note_on channel=7 note=62 velocity=0 time=0
EXTRACT: note_on channel=7 note=59 velocity=0 time=0
EXTRACT: note_on channel=7 note=55 velocity=0 time=0
EXTRACT: note_on channel=7 note=47 velocity=0 time=0
EXTRACT: note_on channel=8 note=52 velocity=90 time=0
EXTRACT: note_on channel=8 note=64 velocity=127 time=0
EXTRACT: note_on channel=3 note=62 velocity=0 time=0.005263149999999999
EXTRACT: note_on channel=9 note=42 velocity=0 time=0.04736835
EXTRACT: note_on channel=9 note=40 velocity=0 time=0
EXTRACT: note_on channel=9 note=69 velocity=0 time=0
EXTRACT: note_on channel=2 note=62 velocity=124 time=0.09999984999999999
EXTRACT: note_on channel=9 note=69 velocity=70 time=0.005263149999999999
EXTRACT: note_on channel=1 note=35 velocity=115 time=0
EXTRACT: note_on channel=4 note=67 velocity=64 time=0
EXTRACT: note_on channel=4 note=62 velocity=63 time=0
EXTRACT: note_on channel=4 note=59 velocity=81 time=0
EXTRACT: note_on channel=4 note=55 velocity=70 time=0
EXTRACT: note_on channel=4 note=47 velocity=78 time=0
EXTRACT: note_on channel=3 note=62 velocity=112 time=0.005263149999999999
EXTRACT: note_on channel=9 note=69 velocity=0 time=0.04736835
EXTRACT: note_on channel=4 note=67 velocity=0 time=0.02631575
EXTRACT: note_on channel=4 note=62 velocity=0 time=0
EXTRACT: note_on channel=4 note=59 velocity=0 time=0
EXTRACT: note_on channel=4 note=55 velocity=0 time=0
EXTRACT: note_on channel=4 note=47 velocity=0 time=0
EXTRACT: note_on channel=1 note=35 velocity=0 time=0.07368409999999999
EXTRACT: note_on channel=9 note=42 velocity=104 time=0.005263149999999999
EXTRACT: note_on channel=1 note=31 velocity=113 time=0
EXTRACT: note_on channel=4 note=67 velocity=69 time=0
EXTRACT: note_on channel=4 note=62 velocity=59 time=0
EXTRACT: note_on channel=4 note=59 velocity=49 time=0
EXTRACT: note_on channel=3 note=62 velocity=0 time=0.005263149999999999
EXTRACT: note_on channel=3 note=61 velocity=114 time=0
EXTRACT: note_on channel=9 note=42 velocity=0 time=0.04736835
EXTRACT: note_on channel=4 note=67 velocity=0 time=0.02631575
EXTRACT: note_on channel=4 note=62 velocity=0 time=0
EXTRACT: note_on channel=4 note=59 velocity=0 time=0
EXTRACT: note_on channel=2 note=59 velocity=120 time=0.07368409999999999
EXTRACT: note_on channel=9 note=69 velocity=62 time=0.005263149999999999
EXTRACT: note_on channel=1 note=31 velocity=0 time=0
EXTRACT: note_on channel=4 note=67 velocity=87 time=0
EXTRACT: note_on channel=4 note=62 velocity=68 time=0
EXTRACT: note_on channel=4 note=59 velocity=91 time=0
EXTRACT: note_on channel=4 note=55 velocity=51 time=0
EXTRACT: note_on channel=4 note=47 velocity=70 time=0
EXTRACT: note_on channel=3 note=61 velocity=0 time=0.005263149999999999
EXTRACT: note_on channel=3 note=59 velocity=124 time=0
EXTRACT: note_on channel=9 note=69 velocity=0 time=0.04736835
EXTRACT: note_on channel=4 note=67 velocity=0 time=0.02631575
EXTRACT: note_on channel=4 note=62 velocity=0 time=0
EXTRACT: note_on channel=4 note=59 velocity=0 time=0
EXTRACT: note_on channel=4 note=55 velocity=0 time=0
EXTRACT: note_on channel=4 note=47 velocity=0 time=0
EXTRACT: note_on channel=9 note=36 velocity=120 time=0.07894725
EXTRACT: note_on channel=9 note=42 velocity=101 time=0
EXTRACT: note_on channel=1 note=28 velocity=114 time=0
EXTRACT: note_on channel=4 note=67 velocity=44 time=0
EXTRACT: note_on channel=4 note=62 velocity=39 time=0
EXTRACT: note_on channel=4 note=59 velocity=53 time=0
EXTRACT: note_on channel=3 note=59 velocity=0 time=0.005263149999999999
EXTRACT: note_on channel=9 note=36 velocity=0 time=0.04736835
EXTRACT: note_on channel=9 note=42 velocity=0 time=0
EXTRACT: note_on channel=4 note=67 velocity=0 time=0.02631575
EXTRACT: note_on channel=4 note=62 velocity=0 time=0
EXTRACT: note_on channel=4 note=59 velocity=0 time=0
EXTRACT: note_on channel=2 note=62 velocity=109 time=0.07368409999999999
EXTRACT: note_on channel=9 note=69 velocity=73 time=0.005263149999999999
EXTRACT: note_on channel=3 note=62 velocity=123 time=0.005263149999999999
EXTRACT: note_on channel=9 note=69 velocity=0 time=0.04736835
EXTRACT: note_on channel=9 note=42 velocity=96 time=0.105263
EXTRACT: note_on channel=9 note=69 velocity=78 time=0
EXTRACT: note_on channel=1 note=28 velocity=0 time=0
EXTRACT: note_on channel=4 note=67 velocity=110 time=0
EXTRACT: note_on channel=4 note=62 velocity=88 time=0
EXTRACT: note_on channel=4 note=59 velocity=90 time=0
EXTRACT: note_on channel=4 note=55 velocity=112 time=0
EXTRACT: note_on channel=4 note=47 velocity=91 time=0
EXTRACT: note_on channel=7 note=67 velocity=84 time=0
EXTRACT: note_on channel=7 note=62 velocity=96 time=0
EXTRACT: note_on channel=7 note=59 velocity=95 time=0
EXTRACT: note_on channel=7 note=55 velocity=87 time=0
EXTRACT: note_on channel=7 note=47 velocity=95 time=0
EXTRACT: note_on channel=3 note=62 velocity=0 time=0.005263149999999999
EXTRACT: note_on channel=9 note=42 velocity=0 time=0.04736835
EXTRACT: note_on channel=9 note=69 velocity=0 time=0
EXTRACT: note_on channel=2 note=67 velocity=107 time=0.09999984999999999
EXTRACT: note_on channel=4 note=67 velocity=0 time=0.005263149999999999
EXTRACT: note_on channel=4 note=62 velocity=0 time=0
EXTRACT: note_on channel=4 note=59 velocity=0 time=0
EXTRACT: note_on channel=4 note=55 velocity=0 time=0
EXTRACT: note_on channel=4 note=47 velocity=0 time=0
EXTRACT: note_on channel=7 note=67 velocity=0 time=0
EXTRACT: note_on channel=7 note=62 velocity=0 time=0
EXTRACT: note_on channel=7 note=59 velocity=0 time=0
EXTRACT: note_on channel=7 note=55 velocity=0 time=0
EXTRACT: note_on channel=7 note=47 velocity=0 time=0
EXTRACT: note_on channel=3 note=62 velocity=108 time=0.005263149999999999
EXTRACT: note_on channel=2 note=67 velocity=120 time=0.14736819999999998
EXTRACT: note_on channel=9 note=40 velocity=127 time=0.005263149999999999
EXTRACT: note_on channel=9 note=42 velocity=101 time=0
EXTRACT: note_on channel=9 note=69 velocity=66 time=0
EXTRACT: note_on channel=5 note=91 velocity=0 time=0
EXTRACT: note_on channel=5 note=79 velocity=0 time=0
EXTRACT: note_on channel=5 note=86 velocity=109 time=0
EXTRACT: note_on channel=5 note=74 velocity=107 time=0
EXTRACT: note_on channel=9 note=40 velocity=0 time=0.0526315
EXTRACT: note_on channel=9 note=42 velocity=0 time=0
EXTRACT: note_on channel=9 note=69 velocity=0 time=0
EXTRACT: note_on channel=4 note=67 velocity=64 time=0.105263
EXTRACT: note_on channel=4 note=62 velocity=45 time=0
EXTRACT: note_on channel=4 note=59 velocity=52 time=0
EXTRACT: note_on channel=5 note=86 velocity=0 time=0
EXTRACT: note_on channel=5 note=74 velocity=0 time=0
EXTRACT: note_on channel=5 note=73 velocity=107 time=0
EXTRACT: note_on channel=5 note=85 velocity=107 time=0
EXTRACT: note_on channel=4 note=67 velocity=0 time=0.07894725
EXTRACT: note_on channel=4 note=62 velocity=0 time=0
EXTRACT: note_on channel=4 note=59 velocity=0 time=0
EXTRACT: note_on channel=2 note=62 velocity=124 time=0.07368409999999999
EXTRACT: note_on channel=9 note=42 velocity=100 time=0.005263149999999999
EXTRACT: note_on channel=1 note=28 velocity=115 time=0
EXTRACT: note_on channel=4 note=67 velocity=58 time=0
EXTRACT: note_on channel=4 note=62 velocity=66 time=0
EXTRACT: note_on channel=4 note=59 velocity=88 time=0
EXTRACT: note_on channel=4 note=55 velocity=55 time=0
EXTRACT: note_on channel=4 note=47 velocity=70 time=0
EXTRACT: note_on channel=5 note=73 velocity=0 time=0
EXTRACT: note_on channel=5 note=85 velocity=0 time=0
EXTRACT: note_on channel=5 note=71 velocity=104 time=0
EXTRACT: note_on channel=5 note=83 velocity=109 time=0
EXTRACT: note_on channel=9 note=42 velocity=0 time=0.0526315
EXTRACT: note_on channel=4 note=67 velocity=0 time=0.02631575
EXTRACT: note_on channel=4 note=62 velocity=0 time=0
EXTRACT: note_on channel=4 note=59 velocity=0 time=0
EXTRACT: note_on channel=4 note=55 velocity=0 time=0
EXTRACT: note_on channel=4 note=47 velocity=0 time=0
EXTRACT: note_on channel=1 note=28 velocity=0 time=0.07894725
EXTRACT: note_on channel=5 note=71 velocity=0 time=0
EXTRACT: note_on channel=5 note=83 velocity=0 time=0
EXTRACT: note_on channel=5 note=85 velocity=106 time=0
EXTRACT: note_on channel=5 note=73 velocity=112 time=0
EXTRACT: note_on channel=2 note=40 velocity=0 time=0.15263134999999997
EXTRACT: note_on channel=2 note=62 velocity=0 time=0
EXTRACT: note_on channel=2 note=67 velocity=0 time=0
EXTRACT: note_on channel=2 note=62 velocity=0 time=0
EXTRACT: note_on channel=2 note=59 velocity=0 time=0
EXTRACT: note_on channel=2 note=62 velocity=0 time=0
EXTRACT: note_on channel=2 note=67 velocity=0 time=0
EXTRACT: note_on channel=2 note=67 velocity=0 time=0
EXTRACT: note_on channel=2 note=62 velocity=0 time=0
EXTRACT: note_on channel=2 note=57 velocity=86 time=0
EXTRACT: note_on channel=2 note=54 velocity=114 time=0
EXTRACT: note_on channel=9 note=42 velocity=109 time=0.005263149999999999
EXTRACT: note_on channel=9 note=36 velocity=120 time=0
EXTRACT: note_on channel=1 note=30 velocity=127 time=0
EXTRACT: note_on channel=4 note=64 velocity=109 time=0
EXTRACT: note_on channel=4 note=61 velocity=111 time=0
EXTRACT: note_on channel=4 note=57 velocity=111 time=0
EXTRACT: note_on channel=4 note=54 velocity=96 time=0
EXTRACT: note_on channel=5 note=85 velocity=0 time=0
EXTRACT: note_on channel=5 note=73 velocity=0 time=0
EXTRACT: note_on channel=5 note=74 velocity=108 time=0
EXTRACT: note_on channel=5 note=86 velocity=117 time=0
EXTRACT: note_on channel=6 note=59 velocity=0 time=0
EXTRACT: note_on channel=6 note=62 velocity=0 time=0
EXTRACT: note_on channel=6 note=67 velocity=0 time=0
EXTRACT: note_on channel=6 note=57 velocity=104 time=0
EXTRACT: note_on channel=6 note=61 velocity=119 time=0
EXTRACT: note_on channel=6 note=66 velocity=108 time=0
EXTRACT: note_on channel=7 note=64 velocity=106 time=0
EXTRACT: note_on channel=7 note=61 velocity=106 time=0
EXTRACT: note_on channel=7 note=57 velocity=94 time=0
EXTRACT: note_on channel=7 note=54 velocity=107 time=0
EXTRACT: note_on channel=8 note=52 velocity=0 time=0
EXTRACT: note_on channel=8 note=64 velocity=0 time=0
EXTRACT: note_on channel=3 note=62 velocity=0 time=0.005263149999999999
EXTRACT: note_on channel=9 note=42 velocity=0 time=0.04736835
EXTRACT: note_on channel=9 note=36 velocity=0 time=0
EXTRACT: note_on channel=1 note=30 velocity=0 time=0.15263134999999997
EXTRACT: note_on channel=1 note=30 velocity=125 time=0.005263149999999999
EXTRACT: note_on channel=2 note=61 velocity=110 time=0.09999984999999999
EXTRACT: note_on channel=9 note=42 velocity=102 time=0.005263149999999999
EXTRACT: note_on channel=4 note=64 velocity=0 time=0
EXTRACT: note_on channel=4 note=61 velocity=0 time=0
EXTRACT: note_on channel=4 note=57 velocity=0 time=0
EXTRACT: note_on channel=4 note=54 velocity=0 time=0
EXTRACT: note_on channel=7 note=64 velocity=0 time=0
EXTRACT: note_on channel=7 note=61 velocity=0 time=0
EXTRACT: note_on channel=7 note=57 velocity=0 time=0
EXTRACT: note_on channel=7 note=54 velocity=0 time=0
EXTRACT: note_on channel=3 note=61 velocity=111 time=0.005263149999999999
EXTRACT: note_on channel=9 note=42 velocity=0 time=0.04736835
EXTRACT: note_on channel=1 note=30 velocity=0 time=0.04736835
EXTRACT: note_on channel=1 note=30 velocity=109 time=0.005263149999999999
EXTRACT: note_on channel=2 note=64 velocity=105 time=0.04736835
EXTRACT: note_on channel=4 note=64 velocity=97 time=0.005263149999999999
EXTRACT: note_on channel=4 note=61 velocity=85 time=0
EXTRACT: note_on channel=4 note=57 velocity=92 time=0
EXTRACT: note_on channel=4 note=54 velocity=93 time=0
EXTRACT: note_on channel=7 note=64 velocity=112 time=0
EXTRACT: note_on channel=7 note=61 velocity=93 time=0
EXTRACT: note_on channel=7 note=57 velocity=96 time=0
EXTRACT: note_on channel=7 note=54 velocity=112 time=0
EXTRACT: note_on channel=1 note=30 velocity=0 time=0.15263134999999997
EXTRACT: note_on channel=9 note=42 velocity=102 time=0.005263149999999999
EXTRACT: note_on channel=9 note=40 velocity=127 time=0
EXTRACT: note_on channel=9 note=69 velocity=62 time=0
EXTRACT: note_on channel=1 note=37 velocity=115 time=0
EXTRACT: note_on channel=4 note=64 velocity=0 time=0
EXTRACT: note_on channel=4 note=61 velocity=0 time=0
EXTRACT: note_on channel=4 note=57 velocity=0 time=0
EXTRACT: note_on channel=4 note=54 velocity=0 time=0
EXTRACT: note_on channel=5 note=74 velocity=0 time=0
EXTRACT: note_on channel=5 note=86 velocity=0 time=0
EXTRACT: note_on channel=5 note=85 velocity=116 time=0
EXTRACT: note_on channel=5 note=73 velocity=100 time=0
EXTRACT: note_on channel=7 note=64 velocity=0 time=0
EXTRACT: note_on channel=7 note=61 velocity=0 time=0
EXTRACT: note_on channel=7 note=57 velocity=0 time=0
EXTRACT: note_on channel=7 note=54 velocity=0 time=0
EXTRACT: note_on channel=3 note=61 velocity=0 time=0.005263149999999999
EXTRACT: note_on channel=9 note=42 velocity=0 time=0.04736835
EXTRACT: note_on channel=9 note=40 velocity=0 time=0
EXTRACT: note_on channel=9 note=69 velocity=0 time=0
EXTRACT: note_on channel=2 note=61 velocity=124 time=0.09999984999999999
EXTRACT: note_on channel=9 note=69 velocity=70 time=0.005263149999999999
EXTRACT: note_on channel=4 note=64 velocity=56 time=0
EXTRACT: note_on channel=4 note=61 velocity=58 time=0
EXTRACT: note_on channel=4 note=57 velocity=91 time=0
EXTRACT: note_on channel=4 note=54 velocity=61 time=0
EXTRACT: note_on channel=3 note=61 velocity=119 time=0.005263149999999999
EXTRACT: note_on channel=9 note=69 velocity=0 time=0.04736835
EXTRACT: note_on channel=1 note=37 velocity=0 time=0.02631575
EXTRACT: note_on channel=4 note=64 velocity=0 time=0
EXTRACT: note_on channel=4 note=61 velocity=0 time=0
EXTRACT: note_on channel=4 note=57 velocity=0 time=0
EXTRACT: note_on channel=4 note=54 velocity=0 time=0
EXTRACT: note_on channel=9 note=42 velocity=101 time=0.07894725
EXTRACT: note_on channel=1 note=42 velocity=124 time=0
EXTRACT: note_on channel=4 note=64 velocity=68 time=0
EXTRACT: note_on channel=4 note=61 velocity=43 time=0
EXTRACT: note_on channel=4 note=57 velocity=63 time=0
EXTRACT: note_on channel=9 note=42 velocity=0 time=0.0526315
EXTRACT: note_on channel=4 note=64 velocity=0 time=0.02631575
EXTRACT: note_on channel=4 note=61 velocity=0 time=0
EXTRACT: note_on channel=4 note=57 velocity=0 time=0
EXTRACT: note_on channel=2 note=57 velocity=102 time=0.07368409999999999
EXTRACT: note_on channel=9 note=69 velocity=62 time=0.005263149999999999
EXTRACT: note_on channel=4 note=64 velocity=80 time=0
EXTRACT: note_on channel=4 note=61 velocity=77 time=0
EXTRACT: note_on channel=4 note=57 velocity=60 time=0
EXTRACT: note_on channel=4 note=54 velocity=58 time=0
EXTRACT: note_on channel=3 note=61 velocity=0 time=0.005263149999999999
EXTRACT: note_on channel=9 note=69 velocity=0 time=0.04736835
EXTRACT: note_on channel=1 note=42 velocity=0 time=0.02631575
EXTRACT: note_on channel=4 note=64 velocity=0 time=0
EXTRACT: note_on channel=4 note=61 velocity=0 time=0
EXTRACT: note_on channel=4 note=57 velocity=0 time=0
EXTRACT: note_on channel=4 note=54 velocity=0 time=0
EXTRACT: note_on channel=2 note=61 velocity=106 time=0.07368409999999999
EXTRACT: note_on channel=9 note=36 velocity=120 time=0.005263149999999999
EXTRACT: note_on channel=9 note=42 velocity=103 time=0
EXTRACT: note_on channel=1 note=37 velocity=114 time=0
EXTRACT: note_on channel=4 note=64 velocity=44 time=0
EXTRACT: note_on channel=4 note=61 velocity=60 time=0
EXTRACT: note_on channel=4 note=57 velocity=44 time=0
EXTRACT: note_on channel=5 note=85 velocity=0 time=0
EXTRACT: note_on channel=5 note=73 velocity=0 time=0
EXTRACT: note_on channel=5 note=71 velocity=100 time=0
EXTRACT: note_on channel=5 note=83 velocity=113 time=0
EXTRACT: note_on channel=3 note=61 velocity=120 time=0.005263149999999999
EXTRACT: note_on channel=9 note=36 velocity=0 time=0.04736835
EXTRACT: note_on channel=9 note=42 velocity=0 time=0
EXTRACT: note_on channel=4 note=64 velocity=0 time=0.02631575
EXTRACT: note_on channel=4 note=61 velocity=0 time=0
EXTRACT: note_on channel=4 note=57 velocity=0 time=0
EXTRACT: note_on channel=2 note=64 velocity=116 time=0.07368409999999999
EXTRACT: note_on channel=9 note=69 velocity=73 time=0.005263149999999999
EXTRACT: note_on channel=9 note=69 velocity=0 time=0.0526315
EXTRACT: note_on channel=2 note=66 velocity=117 time=0.09999984999999999
EXTRACT: note_on channel=9 note=36 velocity=120 time=0.005263149999999999
EXTRACT: note_on channel=9 note=42 velocity=109 time=0
EXTRACT: note_on channel=9 note=69 velocity=78 time=0
EXTRACT: note_on channel=4 note=64 velocity=108 time=0
EXTRACT: note_on channel=4 note=61 velocity=112 time=0
EXTRACT: note_on channel=4 note=57 velocity=97 time=0
EXTRACT: note_on channel=4 note=54 velocity=94 time=0
EXTRACT: note_on channel=7 note=64 velocity=104 time=0
EXTRACT: note_on channel=7 note=61 velocity=112 time=0
EXTRACT: note_on channel=7 note=57 velocity=87 time=0
EXTRACT: note_on channel=7 note=54 velocity=102 time=0
EXTRACT: note_on channel=9 note=36 velocity=0 time=0.0526315
EXTRACT: note_on channel=9 note=42 velocity=0 time=0
EXTRACT: note_on channel=9 note=69 velocity=0 time=0
EXTRACT: note_on channel=1 note=37 velocity=0 time=0.04736835
EXTRACT: note_on channel=1 note=42 velocity=117 time=0.005263149999999999
EXTRACT: note_on channel=2 note=69 velocity=125 time=0.04736835
EXTRACT: note_on channel=4 note=64 velocity=0 time=0.005263149999999999
EXTRACT: note_on channel=4 note=61 velocity=0 time=0
EXTRACT: note_on channel=4 note=57 velocity=0 time=0
EXTRACT: note_on channel=4 note=54 velocity=0 time=0
EXTRACT: note_on channel=7 note=64 velocity=0 time=0
EXTRACT: note_on channel=7 note=61 velocity=0 time=0
EXTRACT: note_on channel=7 note=57 velocity=0 time=0
EXTRACT: note_on channel=7 note=54 velocity=0 time=0
EXTRACT: note_on channel=9 note=40 velocity=127 time=0.1578945
EXTRACT: note_on channel=9 note=42 velocity=110 time=0
EXTRACT: note_on channel=9 note=69 velocity=66 time=0
EXTRACT: note_on channel=5 note=71 velocity=0 time=0
EXTRACT: note_on channel=5 note=83 velocity=0 time=0
EXTRACT: note_on channel=5 note=81 velocity=101 time=0
EXTRACT: note_on channel=5 note=69 velocity=101 time=0
EXTRACT: note_on channel=8 note=50 velocity=83 time=0
EXTRACT: note_on channel=8 note=62 velocity=124 time=0
EXTRACT: note_on channel=9 note=40 velocity=0 time=0.0526315
EXTRACT: note_on channel=9 note=42 velocity=0 time=0
EXTRACT: note_on channel=9 note=69 velocity=0 time=0
EXTRACT: note_on channel=4 note=64 velocity=59 time=0.105263
EXTRACT: note_on channel=4 note=61 velocity=63 time=0
EXTRACT: note_on channel=4 note=57 velocity=65 time=0
EXTRACT: note_on channel=8 note=50 velocity=0 time=0
EXTRACT: note_on channel=8 note=62 velocity=0 time=0
EXTRACT: note_on channel=1 note=42 velocity=0 time=0.04736835
EXTRACT: note_on channel=1 note=49 velocity=122 time=0.005263149999999999
EXTRACT: note_on channel=4 note=64 velocity=0 time=0.02631575
EXTRACT: note_on channel=4 note=61 velocity=0 time=0
EXTRACT: note_on channel=4 note=57 velocity=0 time=0
EXTRACT: note_on channel=9 note=36 velocity=90 time=0.07894725
EXTRACT: note_on channel=9 note=42 velocity=97 time=0
EXTRACT: note_on channel=4 note=64 velocity=54 time=0
EXTRACT: note_on channel=4 note=61 velocity=63 time=0
EXTRACT: note_on channel=4 note=57 velocity=64 time=0
EXTRACT: note_on channel=4 note=54 velocity=55 time=0
EXTRACT: note_on channel=8 note=54 velocity=94 time=0
EXTRACT: note_on channel=8 note=66 velocity=114 time=0
EXTRACT: note_on channel=3 note=61 velocity=102 time=0.005263149999999999
EXTRACT: note_on channel=9 note=36 velocity=0 time=0.04736835
EXTRACT: note_on channel=9 note=42 velocity=0 time=0
EXTRACT: note_on channel=4 note=64 velocity=0 time=0.02631575
EXTRACT: note_on channel=4 note=61 velocity=0 time=0
EXTRACT: note_on channel=4 note=57 velocity=0 time=0
EXTRACT: note_on channel=4 note=54 velocity=0 time=0
EXTRACT: note_on channel=9 note=40 velocity=127 time=0.07894725
EXTRACT: note_on channel=9 note=40 velocity=0 time=0.0526315
EXTRACT: note_on channel=1 note=49 velocity=0 time=0.09999984999999999
EXTRACT: note_on channel=2 note=57 velocity=0 time=0
EXTRACT: note_on channel=2 note=54 velocity=0 time=0
EXTRACT: note_on channel=2 note=61 velocity=0 time=0
EXTRACT: note_on channel=2 note=64 velocity=0 time=0
EXTRACT: note_on channel=2 note=61 velocity=0 time=0
EXTRACT: note_on channel=2 note=57 velocity=0 time=0
EXTRACT: note_on channel=2 note=61 velocity=0 time=0
EXTRACT: note_on channel=2 note=64 velocity=0 time=0
EXTRACT: note_on channel=2 note=66 velocity=0 time=0
EXTRACT: note_on channel=2 note=69 velocity=0 time=0
EXTRACT: note_on channel=2 note=47 velocity=104 time=0
EXTRACT: note_on channel=9 note=57 velocity=90 time=0.005263149999999999
EXTRACT: note_on channel=9 note=36 velocity=120 time=0
EXTRACT: note_on channel=1 note=35 velocity=118 time=0
EXTRACT: note_on channel=4 note=66 velocity=115 time=0
EXTRACT: note_on channel=4 note=62 velocity=117 time=0
EXTRACT: note_on channel=4 note=59 velocity=103 time=0
EXTRACT: note_on channel=4 note=54 velocity=108 time=0
EXTRACT: note_on channel=4 note=47 velocity=96 time=0
EXTRACT: note_on channel=5 note=81 velocity=0 time=0
EXTRACT: note_on channel=5 note=69 velocity=0 time=0
EXTRACT: note_on channel=5 note=90 velocity=100 time=0
EXTRACT: note_on channel=5 note=78 velocity=111 time=0
EXTRACT: note_on channel=6 note=57 velocity=0 time=0
EXTRACT: note_on channel=6 note=61 velocity=0 time=0
EXTRACT: note_on channel=6 note=66 velocity=0 time=0
EXTRACT: control_change channel=6 control=11 value=40 time=0
EXTRACT: note_on channel=6 note=59 velocity=125 time=0
EXTRACT: note_on channel=6 note=62 velocity=109 time=0
EXTRACT: note_on channel=6 note=66 velocity=119 time=0
EXTRACT: note_on channel=7 note=66 velocity=88 time=0
EXTRACT: note_on channel=7 note=62 velocity=83 time=0
EXTRACT: note_on channel=7 note=59 velocity=104 time=0
EXTRACT: note_on channel=7 note=54 velocity=104 time=0
EXTRACT: note_on channel=7 note=47 velocity=98 time=0
EXTRACT: note_on channel=3 note=61 velocity=0 time=0.005263149999999999
EXTRACT: note_on channel=3 note=61 velocity=0 time=0
EXTRACT: control_change channel=6 control=11 value=41 time=0.02631575
EXTRACT: note_on channel=9 note=57 velocity=0 time=0.021052599999999998
EXTRACT: note_on channel=9 note=36 velocity=0 time=0
EXTRACT: control_change channel=6 control=11 value=42 time=0.010526299999999999
EXTRACT: control_change channel=6 control=11 value=43 time=0.03157889999999999
EXTRACT: control_change channel=6 control=11 value=44 time=0.03157889999999999
EXTRACT: note_on channel=1 note=35 velocity=0 time=0.02631575
EXTRACT: note_on channel=1 note=35 velocity=108 time=0.005263149999999999
EXTRACT: control_change channel=6 control=11 value=45 time=0
EXTRACT: control_change channel=6 control=11 value=46 time=0.03157889999999999
EXTRACT: control_change channel=6 control=11 value=47 time=0.03157889999999999
EXTRACT: control_change channel=6 control=11 value=48 time=0.03157889999999999
EXTRACT: control_change channel=6 control=11 value=49 time=0.03157889999999999
EXTRACT: note_on channel=2 note=62 velocity=110 time=0.02631575
EXTRACT: note_on channel=9 note=42 velocity=102 time=0.005263149999999999
EXTRACT: note_on channel=1 note=35 velocity=0 time=0
EXTRACT: note_on channel=4 note=66 velocity=0 time=0
EXTRACT: note_on channel=4 note=62 velocity=0 time=0
EXTRACT: note_on channel=4 note=59 velocity=0 time=0
EXTRACT: note_on channel=4 note=54 velocity=0 time=0
EXTRACT: note_on channel=4 note=47 velocity=0 time=0
EXTRACT: control_change channel=6 control=11 value=50 time=0
EXTRACT: note_on channel=7 note=66 velocity=0 time=0
EXTRACT: note_on channel=7 note=62 velocity=0 time=0
EXTRACT: note_on channel=7 note=59 velocity=0 time=0
EXTRACT: note_on channel=7 note=54 velocity=0 time=0
EXTRACT: note_on channel=7 note=47 velocity=0 time=0
EXTRACT: note_on channel=8 note=54 velocity=0 time=0
EXTRACT: note_on channel=8 note=66 velocity=0 time=0
EXTRACT: note_on channel=8 note=57 velocity=84 time=0
EXTRACT: note_on channel=8 note=69 velocity=124 time=0
EXTRACT: note_on channel=3 note=62 velocity=121 time=0.005263149999999999
EXTRACT: control_change channel=6 control=11 value=51 time=0.02631575
EXTRACT: note_on channel=9 note=42 velocity=0 time=0.021052599999999998
EXTRACT: control_change channel=6 control=11 value=52 time=0.010526299999999999
EXTRACT: control_change channel=6 control=11 value=53 time=0.03157889999999999
EXTRACT: control_change channel=6 control=11 value=54 time=0.03157889999999999
EXTRACT: note_on channel=2 note=66 velocity=127 time=0.02631575
EXTRACT: note_on channel=1 note=42 velocity=116 time=0.005263149999999999
EXTRACT: note_on channel=4 note=66 velocity=107 time=0
EXTRACT: note_on channel=4 note=62 velocity=99 time=0
EXTRACT: note_on channel=4 note=59 velocity=100 time=0
EXTRACT: note_on channel=4 note=54 velocity=116 time=0
EXTRACT: note_on channel=4 note=47 velocity=99 time=0
EXTRACT: control_change channel=6 control=11 value=55 time=0
EXTRACT: note_on channel=7 note=66 velocity=100 time=0
EXTRACT: note_on channel=7 note=62 velocity=101 time=0
EXTRACT: note_on channel=7 note=59 velocity=90 time=0
EXTRACT: note_on channel=7 note=54 velocity=103 time=0
EXTRACT: note_on channel=7 note=47 velocity=111 time=0
EXTRACT: note_on channel=8 note=57 velocity=0 time=0
EXTRACT: note_on channel=8 note=69 velocity=0 time=0
EXTRACT: control_change channel=6 control=11 value=56 time=0.03157889999999999
EXTRACT: control_change channel=6 control=11 value=57 time=0.03157889999999999
EXTRACT: control_change channel=6 control=11 value=58 time=0.03157889999999999
EXTRACT: control_change channel=6 control=11 value=59 time=0.03157889999999999
EXTRACT: note_on channel=9 note=42 velocity=107 time=0.03157889999999999
EXTRACT: note_on channel=9 note=40 velocity=127 time=0
EXTRACT: note_on channel=9 note=69 velocity=62 time=0
EXTRACT: note_on channel=1 note=42 velocity=0 time=0
EXTRACT: note_on channel=4 note=66 velocity=0 time=0
EXTRACT: note_on channel=4 note=62 velocity=0 time=0
EXTRACT: note_on channel=4 note=59 velocity=0 time=0
EXTRACT: note_on channel=4 note=54 velocity=0 time=0
EXTRACT: note_on channel=4 note=47 velocity=0 time=0
EXTRACT: control_change channel=6 control=11 value=60 time=0
EXTRACT: note_on channel=7 note=66 velocity=0 time=0
EXTRACT: note_on channel=7 note=62 velocity=0 time=0
EXTRACT: note_on channel=7 note=59 velocity=0 time=0
EXTRACT: note_on channel=7 note=54 velocity=0 time=0
EXTRACT: note_on channel=7 note=47 velocity=0 time=0
EXTRACT: note_on channel=8 note=55 velocity=98 time=0
EXTRACT: note_on channel=8 note=67 velocity=119 time=0
EXTRACT: note_on channel=3 note=62 velocity=0 time=0.005263149999999999
EXTRACT: control_change channel=6 control=11 value=61 time=0.02631575
EXTRACT: note_on channel=9 note=42 velocity=0 time=0.021052599999999998
EXTRACT: note_on channel=9 note=40 velocity=0 time=0
EXTRACT: note_on channel=9 note=69 velocity=0 time=0
EXTRACT: control_change channel=6 control=11 value=62 time=0.010526299999999999
EXTRACT: control_change channel=6 control=11 value=63 time=0.03157889999999999
EXTRACT: control_change channel=6 control=11 value=64 time=0.03157889999999999
EXTRACT: note_on channel=2 note=62 velocity=110 time=0.02631575
EXTRACT: note_on channel=9 note=69 velocity=70 time=0.005263149999999999
EXTRACT: note_on channel=1 note=42 velocity=119 time=0
EXTRACT: note_on channel=4 note=66 velocity=63 time=0
EXTRACT: note_on channel=4 note=62 velocity=91 time=0
EXTRACT: note_on channel=4 note=59 velocity=51 time=0
EXTRACT: note_on channel=4 note=54 velocity=63 time=0
EXTRACT: note_on channel=4 note=47 velocity=53 time=0
EXTRACT: control_change channel=6 control=11 value=65 time=0
EXTRACT: note_on channel=8 note=55 velocity=0 time=0
EXTRACT: note_on channel=8 note=67 velocity=0 time=0
EXTRACT: note_on channel=3 note=62 velocity=113 time=0.005263149999999999
EXTRACT: control_change channel=6 control=11 value=66 time=0.02631575
EXTRACT: note_on channel=9 note=69 velocity=0 time=0.021052599999999998
EXTRACT: control_change channel=6 control=11 value=67 time=0.010526299999999999
EXTRACT: note_on channel=4 note=66 velocity=0 time=0.015789449999999997
EXTRACT: note_on channel=4 note=62 velocity=0 time=0
EXTRACT: note_on channel=4 note=59 velocity=0 time=0
EXTRACT: note_on channel=4 note=54 velocity=0 time=0
EXTRACT: note_on channel=4 note=47 velocity=0 time=0
EXTRACT: control_change channel=6 control=11 value=68 time=0.015789449999999997
EXTRACT: control_change channel=6 control=11 value=69 time=0.03157889999999999
EXTRACT: note_on channel=1 note=42 velocity=0 time=0.02631575
EXTRACT: note_on channel=9 note=42 velocity=94 time=0.005263149999999999
EXTRACT: note_on channel=1 note=38 velocity=114 time=0
EXTRACT: note_on channel=4 note=66 velocity=39 time=0
EXTRACT: note_on channel=4 note=62 velocity=58 time=0
EXTRACT: note_on channel=4 note=59 velocity=56 time=0
EXTRACT: control_change channel=6 control=11 value=70 time=0
EXTRACT: note_on channel=8 note=54 velocity=89 time=0
EXTRACT: note_on channel=8 note=66 velocity=123 time=0
EXTRACT: note_on channel=3 note=62 velocity=0 time=0.005263149999999999
EXTRACT: note_on channel=3 note=61 velocity=109 time=0
EXTRACT: control_change channel=6 control=11 value=71 time=0.02631575
EXTRACT: note_on channel=9 note=42 velocity=0 time=0.021052599999999998
EXTRACT: control_change channel=6 control=11 value=72 time=0.010526299999999999
EXTRACT: note_on channel=4 note=66 velocity=0 time=0.015789449999999997
EXTRACT: note_on channel=4 note=62 velocity=0 time=0
EXTRACT: note_on channel=4 note=59 velocity=0 time=0
EXTRACT: control_change channel=6 control=11 value=73 time=0.015789449999999997
EXTRACT: control_change channel=6 control=11 value=74 time=0.03157889999999999
EXTRACT: note_on channel=2 note=59 velocity=111 time=0.02631575
EXTRACT: note_on channel=9 note=69 velocity=62 time=0.005263149999999999
EXTRACT: note_on channel=1 note=38 velocity=0 time=0
EXTRACT: note_on channel=4 note=66 velocity=74 time=0
EXTRACT: note_on channel=4 note=62 velocity=91 time=0
EXTRACT: note_on channel=4 note=59 velocity=55 time=0
EXTRACT: note_on channel=4 note=54 velocity=70 time=0
EXTRACT: note_on channel=4 note=47 velocity=73 time=0
EXTRACT: control_change channel=6 control=11 value=75 time=0
EXTRACT: note_on channel=8 note=54 velocity=0 time=0
EXTRACT: note_on channel=8 note=66 velocity=0 time=0
EXTRACT: note_on channel=3 note=61 velocity=0 time=0.005263149999999999
EXTRACT: note_on channel=3 note=59 velocity=121 time=0
EXTRACT: control_change channel=6 control=11 value=76 time=0.02631575
EXTRACT: note_on channel=9 note=69 velocity=0 time=0.021052599999999998
EXTRACT: control_change channel=6 control=11 value=77 time=0.010526299999999999
EXTRACT: note_on channel=4 note=66 velocity=0 time=0.015789449999999997
EXTRACT: note_on channel=4 note=62 velocity=0 time=0
EXTRACT: note_on channel=4 note=59 velocity=0 time=0
EXTRACT: note_on channel=4 note=54 velocity=0 time=0
EXTRACT: note_on channel=4 note=47 velocity=0 time=0
EXTRACT: control_change channel=6 control=11 value=78 time=0.015789449999999997
EXTRACT: control_change channel=6 control=11 value=79 time=0.03157889999999999
EXTRACT: note_on channel=9 note=36 velocity=120 time=0.03157889999999999
EXTRACT: note_on channel=9 note=42 velocity=108 time=0
EXTRACT: note_on channel=1 note=35 velocity=112 time=0
EXTRACT: note_on channel=4 note=66 velocity=39 time=0
EXTRACT: note_on channel=4 note=62 velocity=48 time=0
EXTRACT: note_on channel=4 note=59 velocity=67 time=0
EXTRACT: control_change channel=6 control=11 value=80 time=0
EXTRACT: note_on channel=8 note=52 velocity=87 time=0
EXTRACT: note_on channel=8 note=64 velocity=123 time=0
EXTRACT: note_on channel=3 note=59 velocity=0 time=0.005263149999999999
EXTRACT: note_on channel=9 note=36 velocity=0 time=0.04736835
EXTRACT: note_on channel=9 note=42 velocity=0 time=0
EXTRACT: note_on channel=4 note=66 velocity=0 time=0.02631575
EXTRACT: note_on channel=4 note=62 velocity=0 time=0
EXTRACT: note_on channel=4 note=59 velocity=0 time=0
EXTRACT: note_on channel=2 note=62 velocity=102 time=0.07368409999999999
EXTRACT: note_on channel=9 note=69 velocity=73 time=0.005263149999999999
EXTRACT: note_on channel=3 note=62 velocity=120 time=0.005263149999999999
EXTRACT: note_on channel=9 note=69 velocity=0 time=0.04736835
EXTRACT: note_on channel=9 note=42 velocity=109 time=0.105263
EXTRACT: note_on channel=9 note=69 velocity=78 time=0
EXTRACT: note_on channel=1 note=35 velocity=0 time=0
EXTRACT: note_on channel=4 note=66 velocity=86 time=0
EXTRACT: note_on channel=4 note=62 velocity=99 time=0
EXTRACT: note_on channel=4 note=59 velocity=116 time=0
EXTRACT: note_on channel=4 note=54 velocity=89 time=0
EXTRACT: note_on channel=4 note=47 velocity=116 time=0
EXTRACT: note_on channel=7 note=66 velocity=87 time=0
EXTRACT: note_on channel=7 note=62 velocity=105 time=0
EXTRACT: note_on channel=7 note=59 velocity=93 time=0
EXTRACT: note_on channel=7 note=54 velocity=93 time=0
EXTRACT: note_on channel=7 note=47 velocity=85 time=0
EXTRACT: note_on channel=8 note=52 velocity=0 time=0
EXTRACT: note_on channel=8 note=64 velocity=0 time=0
EXTRACT: note_on channel=8 note=50 velocity=88 time=0
EXTRACT: note_on channel=8 note=62 velocity=122 time=0
EXTRACT: note_on channel=3 note=62 velocity=0 time=0.005263149999999999
EXTRACT: note_on channel=9 note=42 velocity=0 time=0.04736835
EXTRACT: note_on channel=9 note=69 velocity=0 time=0
EXTRACT: note_on channel=2 note=66 velocity=106 time=0.09999984999999999
EXTRACT: note_on channel=4 note=66 velocity=0 time=0.005263149999999999
EXTRACT: note_on channel=4 note=62 velocity=0 time=0
EXTRACT: note_on channel=4 note=59 velocity=0 time=0
EXTRACT: note_on channel=4 note=54 velocity=0 time=0
EXTRACT: note_on channel=4 note=47 velocity=0 time=0
EXTRACT: note_on channel=7 note=66 velocity=0 time=0
EXTRACT: note_on channel=7 note=62 velocity=0 time=0
EXTRACT: note_on channel=7 note=59 velocity=0 time=0
EXTRACT: note_on channel=7 note=54 velocity=0 time=0
EXTRACT: note_on channel=7 note=47 velocity=0 time=0
EXTRACT: note_on channel=8 note=50 velocity=0 time=0
EXTRACT: note_on channel=8 note=62 velocity=0 time=0
EXTRACT: note_on channel=3 note=62 velocity=123 time=0.005263149999999999
EXTRACT: note_on channel=2 note=66 velocity=114 time=0.14736819999999998
EXTRACT: note_on channel=9 note=40 velocity=127 time=0.005263149999999999
EXTRACT: note_on channel=9 note=42 velocity=99 time=0
EXTRACT: note_on channel=9 note=69 velocity=66 time=0
EXTRACT: note_on channel=8 note=52 velocity=95 time=0
EXTRACT: note_on channel=8 note=64 velocity=122 time=0
EXTRACT: note_on channel=9 note=40 velocity=0 time=0.0526315
EXTRACT: note_on channel=9 note=42 velocity=0 time=0
EXTRACT: note_on channel=9 note=69 velocity=0 time=0
EXTRACT: note_on channel=4 note=66 velocity=42 time=0.105263
EXTRACT: note_on channel=4 note=62 velocity=44 time=0
EXTRACT: note_on channel=4 note=59 velocity=63 time=0
EXTRACT: note_on channel=8 note=52 velocity=0 time=0
EXTRACT: note_on channel=8 note=64 velocity=0 time=0
EXTRACT: note_on channel=4 note=66 velocity=0 time=0.07894725
EXTRACT: note_on channel=4 note=62 velocity=0 time=0
EXTRACT: note_on channel=4 note=59 velocity=0 time=0
EXTRACT: note_on channel=2 note=62 velocity=107 time=0.07368409999999999
EXTRACT: note_on channel=9 note=42 velocity=91 time=0.005263149999999999
EXTRACT: note_on channel=1 note=30 velocity=118 time=0
EXTRACT: note_on channel=4 note=66 velocity=67 time=0
EXTRACT: note_on channel=4 note=62 velocity=76 time=0
EXTRACT: note_on channel=4 note=59 velocity=79 time=0
EXTRACT: note_on channel=4 note=54 velocity=56 time=0
EXTRACT: note_on channel=4 note=47 velocity=51 time=0
EXTRACT: note_on channel=8 note=54 velocity=86 time=0
EXTRACT: note_on channel=8 note=66 velocity=121 time=0
EXTRACT: note_on channel=9 note=42 velocity=0 time=0.0526315
EXTRACT: note_on channel=4 note=66 velocity=0 time=0.02631575
EXTRACT: note_on channel=4 note=62 velocity=0 time=0
EXTRACT: note_on channel=4 note=59 velocity=0 time=0
EXTRACT: note_on channel=4 note=54 velocity=0 time=0
EXTRACT: note_on channel=4 note=47 velocity=0 time=0
EXTRACT: note_on channel=1 note=30 velocity=0 time=0.07894725
EXTRACT: note_on channel=2 note=47 velocity=0 time=0.15263134999999997
EXTRACT: note_on channel=2 note=62 velocity=0 time=0
EXTRACT: note_on channel=2 note=66 velocity=0 time=0
EXTRACT: note_on channel=2 note=62 velocity=0 time=0
EXTRACT: note_on channel=2 note=59 velocity=0 time=0
EXTRACT: note_on channel=2 note=62 velocity=0 time=0
EXTRACT: note_on channel=2 note=66 velocity=0 time=0
EXTRACT: note_on channel=2 note=66 velocity=0 time=0
EXTRACT: note_on channel=2 note=47 velocity=121 time=0
EXTRACT: note_on channel=9 note=42 velocity=100 time=0.005263149999999999
EXTRACT: note_on channel=9 note=36 velocity=120 time=0
EXTRACT: note_on channel=1 note=35 velocity=122 time=0
EXTRACT: note_on channel=4 note=66 velocity=106 time=0
EXTRACT: note_on channel=4 note=62 velocity=116 time=0
EXTRACT: note_on channel=4 note=59 velocity=95 time=0
EXTRACT: note_on channel=4 note=54 velocity=113 time=0
EXTRACT: note_on channel=4 note=47 velocity=101 time=0
EXTRACT: note_on channel=7 note=66 velocity=103 time=0
EXTRACT: note_on channel=7 note=62 velocity=78 time=0
EXTRACT: note_on channel=7 note=59 velocity=109 time=0
EXTRACT: note_on channel=7 note=54 velocity=82 time=0
EXTRACT: note_on channel=7 note=47 velocity=84 time=0
EXTRACT: note_on channel=3 note=62 velocity=0 time=0.005263149999999999
EXTRACT: note_on channel=9 note=42 velocity=0 time=0.04736835
EXTRACT: note_on channel=9 note=36 velocity=0 time=0
EXTRACT: note_on channel=1 note=35 velocity=0 time=0.18421025
EXTRACT: note_on channel=2 note=62 velocity=0 time=0.07368409999999999
EXTRACT: note_on channel=2 note=62 velocity=102 time=0
EXTRACT: note_on channel=9 note=42 velocity=101 time=0.005263149999999999
EXTRACT: note_on channel=4 note=66 velocity=0 time=0
EXTRACT: note_on channel=4 note=62 velocity=0 time=0
EXTRACT: note_on channel=4 note=59 velocity=0 time=0
EXTRACT: note_on channel=4 note=54 velocity=0 time=0
EXTRACT: note_on channel=4 note=47 velocity=0 time=0
EXTRACT: note_on channel=7 note=66 velocity=0 time=0
EXTRACT: note_on channel=7 note=62 velocity=0 time=0
EXTRACT: note_on channel=7 note=59 velocity=0 time=0
EXTRACT: note_on channel=7 note=54 velocity=0 time=0
EXTRACT: note_on channel=7 note=47 velocity=0 time=0
EXTRACT: note_on channel=8 note=54 velocity=0 time=0
EXTRACT: note_on channel=8 note=66 velocity=0 time=0
EXTRACT: note_on channel=8 note=57 velocity=95 time=0
EXTRACT: note_on channel=8 note=69 velocity=126 time=0
EXTRACT: note_on channel=3 note=62 velocity=126 time=0.005263149999999999
EXTRACT: note_on channel=9 note=42 velocity=0 time=0.04736835
EXTRACT: note_on channel=2 note=66 velocity=109 time=0.09999984999999999
EXTRACT: note_on channel=1 note=35 velocity=119 time=0.005263149999999999
EXTRACT: note_on channel=4 note=66 velocity=106 time=0
EXTRACT: note_on channel=4 note=62 velocity=106 time=0
EXTRACT: note_on channel=4 note=59 velocity=102 time=0
EXTRACT: note_on channel=4 note=54 velocity=88 time=0
EXTRACT: note_on channel=4 note=47 velocity=103 time=0
EXTRACT: note_on channel=7 note=66 velocity=108 time=0
EXTRACT: note_on channel=7 note=62 velocity=98 time=0
EXTRACT: note_on channel=7 note=59 velocity=78 time=0
EXTRACT: note_on channel=7 note=54 velocity=89 time=0
EXTRACT: note_on channel=7 note=47 velocity=79 time=0
EXTRACT: note_on channel=8 note=57 velocity=0 time=0
EXTRACT: note_on channel=8 note=69 velocity=0 time=0
EXTRACT: note_on channel=9 note=42 velocity=105 time=0.1578945
EXTRACT: note_on channel=9 note=40 velocity=127 time=0
EXTRACT: note_on channel=9 note=69 velocity=62 time=0
EXTRACT: note_on channel=1 note=35 velocity=0 time=0
EXTRACT: note_on channel=4 note=66 velocity=0 time=0
EXTRACT: note_on channel=4 note=62 velocity=0 time=0
EXTRACT: note_on channel=4 note=59 velocity=0 time=0
EXTRACT: note_on channel=4 note=54 velocity=0 time=0
EXTRACT: note_on channel=4 note=47 velocity=0 time=0
EXTRACT: note_on channel=7 note=66 velocity=0 time=0
EXTRACT: note_on channel=7 note=62 velocity=0 time=0
EXTRACT: note_on channel=7 note=59 velocity=0 time=0
EXTRACT: note_on channel=7 note=54 velocity=0 time=0
EXTRACT: note_on channel=7 note=47 velocity=0 time=0
EXTRACT: note_on channel=8 note=55 velocity=93 time=0
EXTRACT: note_on channel=8 note=67 velocity=124 time=0
EXTRACT: note_on channel=3 note=62 velocity=0 time=0.005263149999999999
EXTRACT: note_on channel=9 note=42 velocity=0 time=0.04736835
EXTRACT: note_on channel=9 note=40 velocity=0 time=0
EXTRACT: note_on channel=9 note=69 velocity=0 time=0
EXTRACT: note_on channel=2 note=62 velocity=108 time=0.09999984999999999
EXTRACT: note_on channel=9 note=69 velocity=70 time=0.005263149999999999
EXTRACT: note_on channel=4 note=66 velocity=89 time=0
EXTRACT: note_on channel=4 note=62 velocity=87 time=0
EXTRACT: note_on channel=4 note=59 velocity=77 time=0
EXTRACT: note_on channel=4 note=54 velocity=51 time=0
EXTRACT: note_on channel=4 note=47 velocity=52 time=0
EXTRACT: note_on channel=8 note=55 velocity=0 time=0
EXTRACT: note_on channel=8 note=67 velocity=0 time=0
EXTRACT: note_on channel=3 note=62 velocity=112 time=0.005263149999999999
EXTRACT: note_on channel=9 note=69 velocity=0 time=0.04736835
EXTRACT: note_on channel=4 note=66 velocity=0 time=0.02631575
EXTRACT: note_on channel=4 note=62 velocity=0 time=0
EXTRACT: note_on channel=4 note=59 velocity=0 time=0
EXTRACT: note_on channel=4 note=54 velocity=0 time=0
EXTRACT: note_on channel=4 note=47 velocity=0 time=0
EXTRACT: note_on channel=9 note=42 velocity=102 time=0.07894725
EXTRACT: note_on channel=4 note=66 velocity=54 time=0
EXTRACT: note_on channel=4 note=62 velocity=40 time=0
EXTRACT: note_on channel=4 note=59 velocity=45 time=0
EXTRACT: note_on channel=8 note=54 velocity=86 time=0
EXTRACT: note_on channel=8 note=66 velocity=119 time=0
EXTRACT: note_on channel=3 note=62 velocity=0 time=0.005263149999999999
EXTRACT: note_on channel=3 note=61 velocity=103 time=0
EXTRACT: note_on channel=9 note=42 velocity=0 time=0.04736835
EXTRACT: note_on channel=4 note=66 velocity=0 time=0.02631575
EXTRACT: note_on channel=4 note=62 velocity=0 time=0
EXTRACT: note_on channel=4 note=59 velocity=0 time=0
EXTRACT: note_on channel=2 note=59 velocity=122 time=0.07368409999999999
EXTRACT: note_on channel=9 note=69 velocity=62 time=0.005263149999999999
EXTRACT: note_on channel=4 note=66 velocity=87 time=0
EXTRACT: note_on channel=4 note=62 velocity=52 time=0
EXTRACT: note_on channel=4 note=59 velocity=91 time=0
EXTRACT: note_on channel=4 note=54 velocity=68 time=0
EXTRACT: note_on channel=4 note=47 velocity=89 time=0
EXTRACT: note_on channel=8 note=54 velocity=0 time=0
EXTRACT: note_on channel=8 note=66 velocity=0 time=0
EXTRACT: note_on channel=3 note=61 velocity=0 time=0.005263149999999999
EXTRACT: note_on channel=3 note=59 velocity=116 time=0
EXTRACT: note_on channel=9 note=69 velocity=0 time=0.04736835
EXTRACT: note_on channel=4 note=66 velocity=0 time=0.02631575
EXTRACT: note_on channel=4 note=62 velocity=0 time=0
EXTRACT: note_on channel=4 note=59 velocity=0 time=0
EXTRACT: note_on channel=4 note=54 velocity=0 time=0
EXTRACT: note_on channel=4 note=47 velocity=0 time=0
EXTRACT: note_on channel=9 note=36 velocity=120 time=0.07894725
EXTRACT: note_on channel=9 note=42 velocity=97 time=0
EXTRACT: note_on channel=4 note=66 velocity=53 time=0
EXTRACT: note_on channel=4 note=62 velocity=70 time=0
EXTRACT: note_on channel=4 note=59 velocity=65 time=0
EXTRACT: note_on channel=8 note=52 velocity=100 time=0
EXTRACT: note_on channel=8 note=64 velocity=115 time=0
EXTRACT: note_on channel=3 note=59 velocity=0 time=0.005263149999999999
EXTRACT: note_on channel=9 note=36 velocity=0 time=0.04736835
EXTRACT: note_on channel=9 note=42 velocity=0 time=0
EXTRACT: note_on channel=4 note=66 velocity=0 time=0.02631575
EXTRACT: note_on channel=4 note=62 velocity=0 time=0
EXTRACT: note_on channel=4 note=59 velocity=0 time=0
EXTRACT: note_on channel=2 note=62 velocity=105 time=0.07368409999999999
EXTRACT: note_on channel=9 note=69 velocity=73 time=0.005263149999999999
EXTRACT: note_on channel=3 note=62 velocity=109 time=0.005263149999999999
EXTRACT: note_on channel=9 note=69 velocity=0 time=0.04736835
EXTRACT: note_on channel=9 note=42 velocity=90 time=0.105263
EXTRACT: note_on channel=9 note=69 velocity=78 time=0
EXTRACT: note_on channel=1 note=35 velocity=123 time=0
EXTRACT: note_on channel=4 note=66 velocity=97 time=0
EXTRACT: note_on channel=4 note=62 velocity=111 time=0
EXTRACT: note_on channel=4 note=59 velocity=95 time=0
EXTRACT: note_on channel=4 note=54 velocity=106 time=0
EXTRACT: note_on channel=4 note=47 velocity=107 time=0
EXTRACT: note_on channel=7 note=66 velocity=86 time=0
EXTRACT: note_on channel=7 note=62 velocity=83 time=0
EXTRACT: note_on channel=7 note=59 velocity=106 time=0
EXTRACT: note_on channel=7 note=54 velocity=107 time=0
EXTRACT: note_on channel=7 note=47 velocity=76 time=0
EXTRACT: note_on channel=8 note=52 velocity=0 time=0
EXTRACT: note_on channel=8 note=64 velocity=0 time=0
EXTRACT: note_on channel=8 note=50 velocity=96 time=0
EXTRACT: note_on channel=8 note=62 velocity=114 time=0
EXTRACT: note_on channel=3 note=62 velocity=0 time=0.005263149999999999
EXTRACT: note_on channel=9 note=42 velocity=0 time=0.04736835
EXTRACT: note_on channel=9 note=69 velocity=0 time=0
EXTRACT: note_on channel=2 note=66 velocity=107 time=0.09999984999999999
EXTRACT: note_on channel=1 note=35 velocity=0 time=0.005263149999999999
EXTRACT: note_on channel=4 note=66 velocity=0 time=0
EXTRACT: note_on channel=4 note=62 velocity=0 time=0
EXTRACT: note_on channel=4 note=59 velocity=0 time=0
EXTRACT: note_on channel=4 note=54 velocity=0 time=0
EXTRACT: note_on channel=4 note=47 velocity=0 time=0
EXTRACT: note_on channel=7 note=66 velocity=0 time=0
EXTRACT: note_on channel=7 note=62 velocity=0 time=0
EXTRACT: note_on channel=7 note=59 velocity=0 time=0
EXTRACT: note_on channel=7 note=54 velocity=0 time=0
EXTRACT: note_on channel=7 note=47 velocity=0 time=0
EXTRACT: note_on channel=8 note=50 velocity=0 time=0
EXTRACT: note_on channel=8 note=62 velocity=0 time=0
EXTRACT: note_on channel=3 note=62 velocity=108 time=0.005263149999999999
EXTRACT: note_on channel=2 note=66 velocity=107 time=0.14736819999999998
EXTRACT: note_on channel=9 note=40 velocity=127 time=0.005263149999999999
EXTRACT: note_on channel=9 note=42 velocity=99 time=0
EXTRACT: note_on channel=9 note=69 velocity=66 time=0
EXTRACT: note_on channel=8 note=54 velocity=91 time=0
EXTRACT: note_on channel=8 note=66 velocity=119 time=0
EXTRACT: note_on channel=9 note=40 velocity=0 time=0.0526315
EXTRACT: note_on channel=9 note=42 velocity=0 time=0
EXTRACT: note_on channel=9 note=69 velocity=0 time=0
EXTRACT: note_on channel=4 note=66 velocity=67 time=0.105263
EXTRACT: note_on channel=4 note=62 velocity=43 time=0
EXTRACT: note_on channel=4 note=59 velocity=60 time=0
EXTRACT: note_on channel=8 note=54 velocity=0 time=0
EXTRACT: note_on channel=8 note=66 velocity=0 time=0
EXTRACT: note_on channel=4 note=66 velocity=0 time=0.07894725
EXTRACT: note_on channel=4 note=62 velocity=0 time=0
EXTRACT: note_on channel=4 note=59 velocity=0 time=0
EXTRACT: note_on channel=2 note=62 velocity=118 time=0.07368409999999999
EXTRACT: note_on channel=9 note=36 velocity=90 time=0.005263149999999999
EXTRACT: note_on channel=9 note=42 velocity=103 time=0
EXTRACT: note_on channel=1 note=38 velocity=119 time=0
EXTRACT: note_on channel=4 note=66 velocity=89 time=0
EXTRACT: note_on channel=4 note=62 velocity=73 time=0
EXTRACT: note_on channel=4 note=59 velocity=73 time=0
EXTRACT: note_on channel=4 note=54 velocity=62 time=0
EXTRACT: note_on channel=4 note=47 velocity=51 time=0
EXTRACT: note_on channel=8 note=47 velocity=89 time=0
EXTRACT: note_on channel=8 note=59 velocity=126 time=0
EXTRACT: note_on channel=9 note=36 velocity=0 time=0.0526315
EXTRACT: note_on channel=9 note=42 velocity=0 time=0
EXTRACT: note_on channel=4 note=66 velocity=0 time=0.02631575
EXTRACT: note_on channel=4 note=62 velocity=0 time=0
EXTRACT: note_on channel=4 note=59 velocity=0 time=0
EXTRACT: note_on channel=4 note=54 velocity=0 time=0
EXTRACT: note_on channel=4 note=47 velocity=0 time=0
EXTRACT: note_on channel=9 note=40 velocity=127 time=0.07894725
EXTRACT: note_on channel=1 note=38 velocity=0 time=0
EXTRACT: note_on channel=9 note=40 velocity=0 time=0.0526315
EXTRACT: note_on channel=2 note=47 velocity=0 time=0.09999984999999999
EXTRACT: note_on channel=2 note=62 velocity=0 time=0
EXTRACT: note_on channel=2 note=66 velocity=0 time=0
EXTRACT: note_on channel=2 note=62 velocity=0 time=0
EXTRACT: note_on channel=2 note=59 velocity=0 time=0
EXTRACT: note_on channel=2 note=62 velocity=0 time=0
EXTRACT: note_on channel=2 note=66 velocity=0 time=0
EXTRACT: note_on channel=2 note=66 velocity=0 time=0
EXTRACT: note_on channel=2 note=62 velocity=0 time=0
EXTRACT: note_on channel=2 note=40 velocity=118 time=0
EXTRACT: note_on channel=9 note=42 velocity=103 time=0.005263149999999999
EXTRACT: note_on channel=9 note=36 velocity=120 time=0
EXTRACT: note_on channel=1 note=40 velocity=123 time=0
EXTRACT: note_on channel=4 note=67 velocity=108 time=0
EXTRACT: note_on channel=4 note=62 velocity=117 time=0
EXTRACT: note_on channel=4 note=59 velocity=109 time=0
EXTRACT: note_on channel=4 note=55 velocity=85 time=0
EXTRACT: note_on channel=4 note=47 velocity=100 time=0
EXTRACT: note_on channel=5 note=90 velocity=0 time=0
EXTRACT: note_on channel=5 note=78 velocity=0 time=0
EXTRACT: note_on channel=5 note=91 velocity=107 time=0
EXTRACT: note_on channel=5 note=79 velocity=108 time=0
EXTRACT: note_on channel=6 note=59 velocity=0 time=0
EXTRACT: note_on channel=6 note=62 velocity=0 time=0
EXTRACT: note_on channel=6 note=66 velocity=0 time=0
EXTRACT: note_on channel=6 note=59 velocity=109 time=0
EXTRACT: note_on channel=6 note=62 velocity=124 time=0
EXTRACT: note_on channel=6 note=67 velocity=119 time=0
EXTRACT: note_on channel=7 note=67 velocity=76 time=0
EXTRACT: note_on channel=7 note=62 velocity=108 time=0
EXTRACT: note_on channel=7 note=59 velocity=92 time=0
EXTRACT: note_on channel=7 note=55 velocity=84 time=0
EXTRACT: note_on channel=7 note=47 velocity=96 time=0
EXTRACT: note_on channel=3 note=62 velocity=0 time=0.005263149999999999
EXTRACT: note_on channel=9 note=42 velocity=0 time=0.04736835
EXTRACT: note_on channel=9 note=36 velocity=0 time=0
EXTRACT: note_on channel=1 note=40 velocity=0 time=0.07894725
EXTRACT: note_on channel=2 note=62 velocity=120 time=0.17894709999999997
EXTRACT: note_on channel=9 note=42 velocity=108 time=0.005263149999999999
EXTRACT: note_on channel=1 note=40 velocity=115 time=0
EXTRACT: note_on channel=4 note=67 velocity=0 time=0
EXTRACT: note_on channel=4 note=62 velocity=0 time=0
EXTRACT: note_on channel=4 note=59 velocity=0 time=0
EXTRACT: note_on channel=4 note=55 velocity=0 time=0
EXTRACT: note_on channel=4 note=47 velocity=0 time=0
EXTRACT: note_on channel=7 note=67 velocity=0 time=0
EXTRACT: note_on channel=7 note=62 velocity=0 time=0
EXTRACT: note_on channel=7 note=59 velocity=0 time=0
EXTRACT: note_on channel=7 note=55 velocity=0 time=0
EXTRACT: note_on channel=7 note=47 velocity=0 time=0
EXTRACT: note_on channel=8 note=47 velocity=0 time=0
EXTRACT: note_on channel=8 note=59 velocity=0 time=0
EXTRACT: note_on channel=8 note=52 velocity=88 time=0
EXTRACT: note_on channel=8 note=64 velocity=127 time=0
EXTRACT: note_on channel=3 note=62 velocity=107 time=0.005263149999999999
EXTRACT: note_on channel=9 note=42 velocity=0 time=0.04736835
EXTRACT: note_on channel=1 note=40 velocity=0 time=0.09999984999999999
EXTRACT: note_on channel=2 note=67 velocity=121 time=0
EXTRACT: note_on channel=1 note=35 velocity=122 time=0.005263149999999999
EXTRACT: note_on channel=4 note=67 velocity=88 time=0
EXTRACT: note_on channel=4 note=62 velocity=107 time=0
EXTRACT: note_on channel=4 note=59 velocity=92 time=0
EXTRACT: note_on channel=4 note=55 velocity=111 time=0
EXTRACT: note_on channel=4 note=47 velocity=99 time=0
EXTRACT: note_on channel=7 note=67 velocity=79 time=0
EXTRACT: note_on channel=7 note=62 velocity=79 time=0
EXTRACT: note_on channel=7 note=59 velocity=103 time=0
EXTRACT: note_on channel=7 note=55 velocity=109 time=0
EXTRACT: note_on channel=7 note=47 velocity=85 time=0
EXTRACT: note_on channel=8 note=52 velocity=0 time=0
EXTRACT: note_on channel=8 note=64 velocity=0 time=0
EXTRACT: note_on channel=9 note=42 velocity=109 time=0.1578945
EXTRACT: note_on channel=9 note=40 velocity=127 time=0
EXTRACT: note_on channel=9 note=69 velocity=62 time=0
EXTRACT: note_on channel=1 note=35 velocity=0 time=0
EXTRACT: note_on channel=4 note=67 velocity=0 time=0
EXTRACT: note_on channel=4 note=62 velocity=0 time=0
EXTRACT: note_on channel=4 note=59 velocity=0 time=0
EXTRACT: note_on channel=4 note=55 velocity=0 time=0
EXTRACT: note_on channel=4 note=47 velocity=0 time=0
EXTRACT: note_on channel=7 note=67 velocity=0 time=0
EXTRACT: note_on channel=7 note=62 velocity=0 time=0
EXTRACT: note_on channel=7 note=59 velocity=0 time=0
EXTRACT: note_on channel=7 note=55 velocity=0 time=0
EXTRACT: note_on channel=7 note=47 velocity=0 time=0
EXTRACT: note_on channel=8 note=52 velocity=101 time=0
EXTRACT: note_on channel=8 note=64 velocity=117 time=0
EXTRACT: note_on channel=3 note=62 velocity=0 time=0.005263149999999999
EXTRACT: note_on channel=9 note=42 velocity=0 time=0.04736835
EXTRACT: note_on channel=9 note=40 velocity=0 time=0
EXTRACT: note_on channel=9 note=69 velocity=0 time=0
EXTRACT: note_on channel=2 note=62 velocity=119 time=0.09999984999999999
EXTRACT: note_on channel=9 note=69 velocity=70 time=0.005263149999999999
EXTRACT: note_on channel=1 note=35 velocity=115 time=0
EXTRACT: note_on channel=4 note=67 velocity=68 time=0
EXTRACT: note_on channel=4 note=62 velocity=90 time=0
EXTRACT: note_on channel=4 note=59 velocity=74 time=0
EXTRACT: note_on channel=4 note=55 velocity=76 time=0
EXTRACT: note_on channel=4 note=47 velocity=78 time=0
EXTRACT: note_on channel=3 note=62 velocity=121 time=0.005263149999999999
EXTRACT: note_on channel=9 note=69 velocity=0 time=0.04736835
EXTRACT: note_on channel=4 note=67 velocity=0 time=0.02631575
EXTRACT: note_on channel=4 note=62 velocity=0 time=0
EXTRACT: note_on channel=4 note=59 velocity=0 time=0
EXTRACT: note_on channel=4 note=55 velocity=0 time=0
EXTRACT: note_on channel=4 note=47 velocity=0 time=0
EXTRACT: note_on channel=1 note=35 velocity=0 time=0.07368409999999999
EXTRACT: note_on channel=9 note=42 velocity=95 time=0.005263149999999999
EXTRACT: note_on channel=1 note=31 velocity=113 time=0
EXTRACT: note_on channel=4 note=67 velocity=52 time=0
EXTRACT: note_on channel=4 note=62 velocity=53 time=0
EXTRACT: note_on channel=4 note=59 velocity=40 time=0
EXTRACT: note_on channel=3 note=62 velocity=0 time=0.005263149999999999
EXTRACT: note_on channel=3 note=61 velocity=104 time=0
EXTRACT: note_on channel=9 note=42 velocity=0 time=0.04736835
EXTRACT: note_on channel=4 note=67 velocity=0 time=0.02631575
EXTRACT: note_on channel=4 note=62 velocity=0 time=0
EXTRACT: note_on channel=4 note=59 velocity=0 time=0
EXTRACT: note_on channel=2 note=59 velocity=115 time=0.07368409999999999
EXTRACT: note_on channel=9 note=69 velocity=62 time=0.005263149999999999
EXTRACT: note_on channel=1 note=31 velocity=0 time=0
EXTRACT: note_on channel=4 note=67 velocity=56 time=0
EXTRACT: note_on channel=4 note=62 velocity=60 time=0
EXTRACT: note_on channel=4 note=59 velocity=51 time=0
EXTRACT: note_on channel=4 note=55 velocity=51 time=0
EXTRACT: note_on channel=4 note=47 velocity=77 time=0
EXTRACT: note_on channel=3 note=61 velocity=0 time=0.005263149999999999
EXTRACT: note_on channel=3 note=59 velocity=103 time=0
EXTRACT: note_on channel=9 note=69 velocity=0 time=0.04736835
EXTRACT: note_on channel=4 note=67 velocity=0 time=0.02631575
EXTRACT: note_on channel=4 note=62 velocity=0 time=0
EXTRACT: note_on channel=4 note=59 velocity=0 time=0
EXTRACT: note_on channel=4 note=55 velocity=0 time=0
EXTRACT: note_on channel=4 note=47 velocity=0 time=0
EXTRACT: note_on channel=9 note=36 velocity=120 time=0.07894725
EXTRACT: note_on channel=9 note=42 velocity=104 time=0
EXTRACT: note_on channel=1 note=28 velocity=109 time=0
EXTRACT: note_on channel=4 note=67 velocity=48 time=0
EXTRACT: note_on channel=4 note=62 velocity=40 time=0
EXTRACT: note_on channel=4 note=59 velocity=39 time=0
EXTRACT: note_on channel=8 note=52 velocity=0 time=0
EXTRACT: note_on channel=8 note=64 velocity=0 time=0
EXTRACT: note_on channel=3 note=59 velocity=0 time=0.005263149999999999
EXTRACT: note_on channel=9 note=36 velocity=0 time=0.04736835
EXTRACT: note_on channel=9 note=42 velocity=0 time=0
EXTRACT: note_on channel=4 note=67 velocity=0 time=0.02631575
EXTRACT: note_on channel=4 note=62 velocity=0 time=0
EXTRACT: note_on channel=4 note=59 velocity=0 time=0
EXTRACT: note_on channel=2 note=62 velocity=105 time=0.07368409999999999
EXTRACT: note_on channel=9 note=69 velocity=73 time=0.005263149999999999
EXTRACT: note_on channel=3 note=62 velocity=127 time=0.005263149999999999
EXTRACT: note_on channel=9 note=69 velocity=0 time=0.04736835
EXTRACT: note_on channel=9 note=42 velocity=97 time=0.105263
EXTRACT: note_on channel=9 note=69 velocity=78 time=0
EXTRACT: note_on channel=1 note=28 velocity=0 time=0
EXTRACT: note_on channel=4 note=67 velocity=117 time=0
EXTRACT: note_on channel=4 note=62 velocity=88 time=0
EXTRACT: note_on channel=4 note=59 velocity=115 time=0
EXTRACT: note_on channel=4 note=55 velocity=111 time=0
EXTRACT: note_on channel=4 note=47 velocity=101 time=0
EXTRACT: note_on channel=7 note=67 velocity=112 time=0
EXTRACT: note_on channel=7 note=62 velocity=98 time=0
EXTRACT: note_on channel=7 note=59 velocity=93 time=0
EXTRACT: note_on channel=7 note=55 velocity=112 time=0
EXTRACT: note_on channel=7 note=47 velocity=108 time=0
EXTRACT: note_on channel=8 note=47 velocity=96 time=0
EXTRACT: note_on channel=8 note=59 velocity=118 time=0
EXTRACT: note_on channel=3 note=62 velocity=0 time=0.005263149999999999
EXTRACT: note_on channel=9 note=42 velocity=0 time=0.04736835
EXTRACT: note_on channel=9 note=69 velocity=0 time=0
EXTRACT: note_on channel=2 note=67 velocity=112 time=0.09999984999999999
EXTRACT: note_on channel=4 note=67 velocity=0 time=0.005263149999999999
EXTRACT: note_on channel=4 note=62 velocity=0 time=0
EXTRACT: note_on channel=4 note=59 velocity=0 time=0
EXTRACT: note_on channel=4 note=55 velocity=0 time=0
EXTRACT: note_on channel=4 note=47 velocity=0 time=0
EXTRACT: note_on channel=7 note=67 velocity=0 time=0
EXTRACT: note_on channel=7 note=62 velocity=0 time=0
EXTRACT: note_on channel=7 note=59 velocity=0 time=0
EXTRACT: note_on channel=7 note=55 velocity=0 time=0
EXTRACT: note_on channel=7 note=47 velocity=0 time=0
EXTRACT: note_on channel=8 note=47 velocity=0 time=0
EXTRACT: note_on channel=8 note=59 velocity=0 time=0
EXTRACT: note_on channel=3 note=62 velocity=123 time=0.005263149999999999
EXTRACT: note_on channel=2 note=67 velocity=125 time=0.14736819999999998
EXTRACT: note_on channel=9 note=40 velocity=127 time=0.005263149999999999
EXTRACT: note_on channel=9 note=42 velocity=106 time=0
EXTRACT: note_on channel=9 note=69 velocity=66 time=0
EXTRACT: note_on channel=5 note=91 velocity=0 time=0
EXTRACT: note_on channel=5 note=79 velocity=0 time=0
EXTRACT: note_on channel=5 note=86 velocity=113 time=0
EXTRACT: note_on channel=5 note=74 velocity=104 time=0
EXTRACT: note_on channel=8 note=47 velocity=92 time=0
EXTRACT: note_on channel=8 note=59 velocity=126 time=0
EXTRACT: note_on channel=9 note=40 velocity=0 time=0.0526315
EXTRACT: note_on channel=9 note=42 velocity=0 time=0
EXTRACT: note_on channel=9 note=69 velocity=0 time=0
EXTRACT: note_on channel=4 note=67 velocity=71 time=0.105263
EXTRACT: note_on channel=4 note=62 velocity=69 time=0
EXTRACT: note_on channel=4 note=59 velocity=67 time=0
EXTRACT: note_on channel=5 note=86 velocity=0 time=0
EXTRACT: note_on channel=5 note=74 velocity=0 time=0
EXTRACT: note_on channel=5 note=73 velocity=111 time=0
EXTRACT: note_on channel=5 note=85 velocity=115 time=0
EXTRACT: note_on channel=8 note=47 velocity=0 time=0
EXTRACT: note_on channel=8 note=59 velocity=0 time=0
EXTRACT: note_on channel=4 note=67 velocity=0 time=0.07894725
EXTRACT: note_on channel=4 note=62 velocity=0 time=0
EXTRACT: note_on channel=4 note=59 velocity=0 time=0
EXTRACT: note_on channel=2 note=62 velocity=116 time=0.07368409999999999
EXTRACT: note_on channel=9 note=42 velocity=94 time=0.005263149999999999
EXTRACT: note_on channel=1 note=28 velocity=120 time=0
EXTRACT: note_on channel=4 note=67 velocity=76 time=0
EXTRACT: note_on channel=4 note=62 velocity=68 time=0
EXTRACT: note_on channel=4 note=59 velocity=91 time=0
EXTRACT: note_on channel=4 note=55 velocity=82 time=0
EXTRACT: note_on channel=4 note=47 velocity=75 time=0
EXTRACT: note_on channel=5 note=73 velocity=0 time=0
EXTRACT: note_on channel=5 note=85 velocity=0 time=0
EXTRACT: note_on channel=5 note=71 velocity=109 time=0
EXTRACT: note_on channel=5 note=83 velocity=109 time=0
EXTRACT: note_on channel=8 note=47 velocity=87 time=0
EXTRACT: note_on channel=8 note=59 velocity=127 time=0
EXTRACT: note_on channel=9 note=42 velocity=0 time=0.0526315
EXTRACT: note_on channel=4 note=67 velocity=0 time=0.02631575
EXTRACT: note_on channel=4 note=62 velocity=0 time=0
EXTRACT: note_on channel=4 note=59 velocity=0 time=0
EXTRACT: note_on channel=4 note=55 velocity=0 time=0
EXTRACT: note_on channel=4 note=47 velocity=0 time=0
EXTRACT: note_on channel=1 note=28 velocity=0 time=0.07894725
EXTRACT: note_on channel=5 note=71 velocity=0 time=0
EXTRACT: note_on channel=5 note=83 velocity=0 time=0
EXTRACT: note_on channel=5 note=81 velocity=107 time=0
EXTRACT: note_on channel=5 note=69 velocity=108 time=0
EXTRACT: note_on channel=8 note=47 velocity=0 time=0
EXTRACT: note_on channel=8 note=59 velocity=0 time=0
EXTRACT: note_on channel=2 note=40 velocity=0 time=0.15263134999999997
EXTRACT: note_on channel=2 note=62 velocity=0 time=0
EXTRACT: note_on channel=2 note=67 velocity=0 time=0
EXTRACT: note_on channel=2 note=62 velocity=0 time=0
EXTRACT: note_on channel=2 note=59 velocity=0 time=0
EXTRACT: note_on channel=2 note=62 velocity=0 time=0
EXTRACT: note_on channel=2 note=67 velocity=0 time=0
EXTRACT: note_on channel=2 note=67 velocity=0 time=0
EXTRACT: note_on channel=2 note=62 velocity=0 time=0
EXTRACT: note_on channel=2 note=57 velocity=114 time=0
EXTRACT: note_on channel=2 note=54 velocity=118 time=0
EXTRACT: note_on channel=9 note=42 velocity=98 time=0.005263149999999999
EXTRACT: note_on channel=9 note=36 velocity=120 time=0
EXTRACT: note_on channel=1 note=30 velocity=113 time=0
EXTRACT: note_on channel=4 note=64 velocity=104 time=0
EXTRACT: note_on channel=4 note=61 velocity=115 time=0
EXTRACT: note_on channel=4 note=57 velocity=115 time=0
EXTRACT: note_on channel=4 note=54 velocity=86 time=0
EXTRACT: note_on channel=6 note=59 velocity=0 time=0
EXTRACT: note_on channel=6 note=62 velocity=0 time=0
EXTRACT: note_on channel=6 note=67 velocity=0 time=0
EXTRACT: note_on channel=6 note=57 velocity=89 time=0
EXTRACT: note_on channel=6 note=61 velocity=126 time=0
EXTRACT: note_on channel=6 note=66 velocity=111 time=0
EXTRACT: note_on channel=7 note=64 velocity=106 time=0
EXTRACT: note_on channel=7 note=61 velocity=92 time=0
EXTRACT: note_on channel=7 note=57 velocity=90 time=0
EXTRACT: note_on channel=7 note=54 velocity=102 time=0
EXTRACT: note_on channel=8 note=45 velocity=90 time=0
EXTRACT: note_on channel=8 note=57 velocity=121 time=0
EXTRACT: note_on channel=3 note=62 velocity=0 time=0.005263149999999999
EXTRACT: note_on channel=9 note=42 velocity=0 time=0.04736835
EXTRACT: note_on channel=9 note=36 velocity=0 time=0
EXTRACT: note_on channel=8 note=45 velocity=0 time=0.02631575
EXTRACT: note_on channel=8 note=57 velocity=0 time=0
EXTRACT: note_on channel=8 note=57 velocity=90 time=0.07894725
EXTRACT: note_on channel=8 note=69 velocity=125 time=0
EXTRACT: note_on channel=1 note=30 velocity=0 time=0.04736835
EXTRACT: note_on channel=1 note=30 velocity=125 time=0.005263149999999999
EXTRACT: note_on channel=2 note=61 velocity=109 time=0.09999984999999999
EXTRACT: note_on channel=9 note=42 velocity=82 time=0.005263149999999999
EXTRACT: note_on channel=9 note=42 velocity=108 time=0
EXTRACT: note_on channel=4 note=64 velocity=0 time=0
EXTRACT: note_on channel=4 note=61 velocity=0 time=0
EXTRACT: note_on channel=4 note=57 velocity=0 time=0
EXTRACT: note_on channel=4 note=54 velocity=0 time=0
EXTRACT: note_on channel=7 note=64 velocity=0 time=0
EXTRACT: note_on channel=7 note=61 velocity=0 time=0
EXTRACT: note_on channel=7 note=57 velocity=0 time=0
EXTRACT: note_on channel=7 note=54 velocity=0 time=0
EXTRACT: note_on channel=3 note=61 velocity=123 time=0.005263149999999999
EXTRACT: note_on channel=9 note=42 velocity=0 time=0.04736835
EXTRACT: note_on channel=9 note=42 velocity=0 time=0
EXTRACT: note_on channel=1 note=30 velocity=0 time=0.04736835
EXTRACT: note_on channel=1 note=30 velocity=122 time=0.005263149999999999
EXTRACT: note_on channel=2 note=64 velocity=106 time=0.04736835
EXTRACT: note_on channel=4 note=64 velocity=116 time=0.005263149999999999
EXTRACT: note_on channel=4 note=61 velocity=99 time=0
EXTRACT: note_on channel=4 note=57 velocity=116 time=0
EXTRACT: note_on channel=4 note=54 velocity=87 time=0
EXTRACT: note_on channel=7 note=64 velocity=80 time=0
EXTRACT: note_on channel=7 note=61 velocity=101 time=0
EXTRACT: note_on channel=7 note=57 velocity=79 time=0
EXTRACT: note_on channel=7 note=54 velocity=90 time=0
EXTRACT: note_on channel=1 note=30 velocity=0 time=0.15263134999999997
EXTRACT: note_on channel=9 note=40 velocity=127 time=0.005263149999999999
EXTRACT: note_on channel=9 note=42 velocity=106 time=0
EXTRACT: note_on channel=9 note=69 velocity=62 time=0
EXTRACT: note_on channel=1 note=37 velocity=124 time=0
EXTRACT: note_on channel=4 note=64 velocity=0 time=0
EXTRACT: note_on channel=4 note=61 velocity=0 time=0
EXTRACT: note_on channel=4 note=57 velocity=0 time=0
EXTRACT: note_on channel=4 note=54 velocity=0 time=0
EXTRACT: note_on channel=7 note=64 velocity=0 time=0
EXTRACT: note_on channel=7 note=61 velocity=0 time=0
EXTRACT: note_on channel=7 note=57 velocity=0 time=0
EXTRACT: note_on channel=7 note=54 velocity=0 time=0
EXTRACT: note_on channel=8 note=57 velocity=0 time=0
EXTRACT: note_on channel=8 note=69 velocity=0 time=0
EXTRACT: note_on channel=8 note=52 velocity=101 time=0
EXTRACT: note_on channel=8 note=64 velocity=114 time=0
EXTRACT: note_on channel=3 note=61 velocity=0 time=0.005263149999999999
EXTRACT: note_on channel=9 note=40 velocity=0 time=0.04736835
EXTRACT: note_on channel=9 note=42 velocity=0 time=0
EXTRACT: note_on channel=9 note=69 velocity=0 time=0
EXTRACT: note_on channel=2 note=61 velocity=112 time=0.09999984999999999
EXTRACT: note_on channel=9 note=69 velocity=70 time=0.005263149999999999
EXTRACT: note_on channel=4 note=64 velocity=72 time=0
EXTRACT: note_on channel=4 note=61 velocity=65 time=0
EXTRACT: note_on channel=4 note=57 velocity=90 time=0
EXTRACT: note_on channel=4 note=54 velocity=71 time=0
EXTRACT: note_on channel=3 note=61 velocity=103 time=0.005263149999999999
EXTRACT: note_on channel=9 note=69 velocity=0 time=0.04736835
EXTRACT: note_on channel=1 note=37 velocity=0 time=0.02631575
EXTRACT: note_on channel=4 note=64 velocity=0 time=0
EXTRACT: note_on channel=4 note=61 velocity=0 time=0
EXTRACT: note_on channel=4 note=57 velocity=0 time=0
EXTRACT: note_on channel=4 note=54 velocity=0 time=0
EXTRACT: note_on channel=9 note=42 velocity=92 time=0.07894725
EXTRACT: note_on channel=1 note=42 velocity=111 time=0
EXTRACT: note_on channel=4 note=64 velocity=65 time=0
EXTRACT: note_on channel=4 note=61 velocity=61 time=0
EXTRACT: note_on channel=4 note=57 velocity=68 time=0
EXTRACT: note_on channel=9 note=42 velocity=0 time=0.0526315
EXTRACT: note_on channel=4 note=64 velocity=0 time=0.02631575
EXTRACT: note_on channel=4 note=61 velocity=0 time=0
EXTRACT: note_on channel=4 note=57 velocity=0 time=0
EXTRACT: note_on channel=2 note=57 velocity=125 time=0.07368409999999999
EXTRACT: note_on channel=9 note=69 velocity=62 time=0.005263149999999999
EXTRACT: note_on channel=4 note=64 velocity=86 time=0
EXTRACT: note_on channel=4 note=61 velocity=78 time=0
EXTRACT: note_on channel=4 note=57 velocity=82 time=0
EXTRACT: note_on channel=4 note=54 velocity=57 time=0
EXTRACT: note_on channel=5 note=81 velocity=0 time=0
EXTRACT: note_on channel=5 note=69 velocity=0 time=0
EXTRACT: note_on channel=3 note=61 velocity=0 time=0.005263149999999999
EXTRACT: note_on channel=9 note=69 velocity=0 time=0.04736835
EXTRACT: note_on channel=1 note=42 velocity=0 time=0.02631575
EXTRACT: note_on channel=4 note=64 velocity=0 time=0
EXTRACT: note_on channel=4 note=61 velocity=0 time=0
EXTRACT: note_on channel=4 note=57 velocity=0 time=0
EXTRACT: note_on channel=4 note=54 velocity=0 time=0
EXTRACT: note_on channel=2 note=61 velocity=123 time=0.07368409999999999
EXTRACT: note_on channel=9 note=36 velocity=120 time=0.005263149999999999
EXTRACT: note_on channel=9 note=42 velocity=108 time=0
EXTRACT: note_on channel=1 note=37 velocity=122 time=0
EXTRACT: note_on channel=4 note=64 velocity=56 time=0
EXTRACT: note_on channel=4 note=61 velocity=46 time=0
EXTRACT: note_on channel=4 note=57 velocity=54 time=0
EXTRACT: note_on channel=5 note=78 velocity=111 time=0
EXTRACT: note_on channel=5 note=90 velocity=109 time=0
EXTRACT: note_on channel=3 note=61 velocity=121 time=0.005263149999999999
EXTRACT: note_on channel=9 note=36 velocity=0 time=0.04736835
EXTRACT: note_on channel=9 note=42 velocity=0 time=0
EXTRACT: note_on channel=4 note=64 velocity=0 time=0.02631575
EXTRACT: note_on channel=4 note=61 velocity=0 time=0
EXTRACT: note_on channel=4 note=57 velocity=0 time=0
EXTRACT: note_on channel=2 note=64 velocity=109 time=0.07368409999999999
EXTRACT: note_on channel=9 note=69 velocity=73 time=0.005263149999999999
EXTRACT: note_on channel=5 note=78 velocity=0 time=0
EXTRACT: note_on channel=5 note=90 velocity=0 time=0
EXTRACT: note_on channel=8 note=52 velocity=0 time=0
EXTRACT: note_on channel=8 note=64 velocity=0 time=0
EXTRACT: note_on channel=8 note=59 velocity=115 time=0
EXTRACT: note_on channel=9 note=69 velocity=0 time=0.0526315
EXTRACT: note_on channel=2 note=66 velocity=126 time=0.09999984999999999
EXTRACT: note_on channel=9 note=36 velocity=120 time=0.005263149999999999
EXTRACT: note_on channel=9 note=42 velocity=106 time=0
EXTRACT: note_on channel=9 note=69 velocity=78 time=0
EXTRACT: note_on channel=4 note=64 velocity=97 time=0
EXTRACT: note_on channel=4 note=61 velocity=87 time=0
EXTRACT: note_on channel=4 note=57 velocity=100 time=0
EXTRACT: note_on channel=4 note=54 velocity=87 time=0
EXTRACT: note_on channel=7 note=64 velocity=110 time=0
EXTRACT: note_on channel=7 note=61 velocity=84 time=0
EXTRACT: note_on channel=7 note=57 velocity=95 time=0
EXTRACT: note_on channel=7 note=54 velocity=106 time=0
EXTRACT: note_on channel=8 note=59 velocity=0 time=0
EXTRACT: note_on channel=8 note=59 velocity=120 time=0
EXTRACT: note_on channel=9 note=36 velocity=0 time=0.0526315
EXTRACT: note_on channel=9 note=42 velocity=0 time=0
EXTRACT: note_on channel=9 note=69 velocity=0 time=0
EXTRACT: note_on channel=1 note=37 velocity=0 time=0.04736835
EXTRACT: note_on channel=1 note=42 velocity=127 time=0.005263149999999999
EXTRACT: note_on channel=2 note=69 velocity=127 time=0.04736835
EXTRACT: note_on channel=4 note=64 velocity=0 time=0.005263149999999999
EXTRACT: note_on channel=4 note=61 velocity=0 time=0
EXTRACT: note_on channel=4 note=57 velocity=0 time=0
EXTRACT: note_on channel=4 note=54 velocity=0 time=0
EXTRACT: note_on channel=5 note=76 velocity=99 time=0
EXTRACT: note_on channel=5 note=88 velocity=109 time=0
EXTRACT: note_on channel=7 note=64 velocity=0 time=0
EXTRACT: note_on channel=7 note=61 velocity=0 time=0
EXTRACT: note_on channel=7 note=57 velocity=0 time=0
EXTRACT: note_on channel=7 note=54 velocity=0 time=0
EXTRACT: note_on channel=8 note=59 velocity=0 time=0
EXTRACT: note_on channel=8 note=59 velocity=116 time=0
EXTRACT: note_on channel=9 note=40 velocity=127 time=0.1578945
EXTRACT: note_on channel=9 note=42 velocity=105 time=0
EXTRACT: note_on channel=9 note=69 velocity=66 time=0
EXTRACT: note_on channel=5 note=76 velocity=0 time=0
EXTRACT: note_on channel=5 note=88 velocity=0 time=0
EXTRACT: note_on channel=8 note=59 velocity=0 time=0
EXTRACT: note_on channel=8 note=64 velocity=114 time=0
EXTRACT: note_on channel=9 note=40 velocity=0 time=0.0526315
EXTRACT: note_on channel=9 note=42 velocity=0 time=0
EXTRACT: note_on channel=9 note=69 velocity=0 time=0
EXTRACT: note_on channel=4 note=64 velocity=44 time=0.105263
EXTRACT: note_on channel=4 note=61 velocity=66 time=0
EXTRACT: note_on channel=4 note=57 velocity=69 time=0
EXTRACT: note_on channel=1 note=42 velocity=0 time=0.04736835
EXTRACT: note_on channel=1 note=49 velocity=109 time=0.005263149999999999
EXTRACT: note_on channel=4 note=64 velocity=0 time=0.02631575
EXTRACT: note_on channel=4 note=61 velocity=0 time=0
EXTRACT: note_on channel=4 note=57 velocity=0 time=0
EXTRACT: note_on channel=9 note=36 velocity=90 time=0.07894725
EXTRACT: note_on channel=9 note=42 velocity=104 time=0
EXTRACT: note_on channel=4 note=64 velocity=75 time=0
EXTRACT: note_on channel=4 note=61 velocity=52 time=0
EXTRACT: note_on channel=4 note=57 velocity=56 time=0
EXTRACT: note_on channel=4 note=54 velocity=73 time=0
EXTRACT: note_on channel=5 note=86 velocity=101 time=0
EXTRACT: note_on channel=5 note=74 velocity=117 time=0
EXTRACT: pitchwheel channel=8 pitch=1365 time=0
EXTRACT: note_on channel=3 note=61 velocity=102 time=0.005263149999999999
EXTRACT: note_on channel=9 note=36 velocity=0 time=0.04736835
EXTRACT: note_on channel=9 note=42 velocity=0 time=0
EXTRACT: note_on channel=4 note=64 velocity=0 time=0.02631575
EXTRACT: note_on channel=4 note=61 velocity=0 time=0
EXTRACT: note_on channel=4 note=57 velocity=0 time=0
EXTRACT: note_on channel=4 note=54 velocity=0 time=0
EXTRACT: note_on channel=9 note=40 velocity=127 time=0.07894725
EXTRACT: note_on channel=5 note=86 velocity=0 time=0
EXTRACT: note_on channel=5 note=74 velocity=0 time=0
EXTRACT: note_on channel=9 note=40 velocity=0 time=0.0526315
EXTRACT: note_on channel=2 note=57 velocity=0 time=0.09999984999999999
EXTRACT: note_on channel=2 note=54 velocity=0 time=0
EXTRACT: note_on channel=2 note=61 velocity=0 time=0
EXTRACT: note_on channel=2 note=64 velocity=0 time=0
EXTRACT: note_on channel=2 note=61 velocity=0 time=0
EXTRACT: note_on channel=2 note=57 velocity=0 time=0
EXTRACT: note_on channel=2 note=61 velocity=0 time=0
EXTRACT: note_on channel=2 note=64 velocity=0 time=0
EXTRACT: note_on channel=2 note=66 velocity=0 time=0
EXTRACT: note_on channel=2 note=69 velocity=0 time=0
EXTRACT: note_on channel=2 note=47 velocity=111 time=0
EXTRACT: note_on channel=9 note=49 velocity=64 time=0.005263149999999999
EXTRACT: note_on channel=9 note=36 velocity=120 time=0
EXTRACT: note_on channel=1 note=49 velocity=0 time=0
EXTRACT: note_on channel=4 note=66 velocity=96 time=0
EXTRACT: note_on channel=4 note=62 velocity=116 time=0
EXTRACT: note_on channel=4 note=59 velocity=102 time=0
EXTRACT: note_on channel=4 note=54 velocity=97 time=0
EXTRACT: note_on channel=4 note=47 velocity=93 time=0
EXTRACT: note_on channel=6 note=57 velocity=0 time=0
EXTRACT: note_on channel=6 note=61 velocity=0 time=0
EXTRACT: note_on channel=6 note=66 velocity=0 time=0
EXTRACT: note_on channel=7 note=66 velocity=96 time=0
EXTRACT: note_on channel=7 note=62 velocity=96 time=0
EXTRACT: note_on channel=7 note=59 velocity=95 time=0
EXTRACT: note_on channel=7 note=54 velocity=101 time=0
EXTRACT: note_on channel=7 note=47 velocity=98 time=0
EXTRACT: note_on channel=8 note=64 velocity=0 time=0
EXTRACT: pitchwheel channel=8 pitch=0 time=0
EXTRACT: note_on channel=8 note=66 velocity=123 time=0
EXTRACT: note_on channel=3 note=61 velocity=0 time=0.005263149999999999
EXTRACT: note_on channel=3 note=61 velocity=0 time=0
EXTRACT: note_on channel=9 note=49 velocity=0 time=0.04736835
EXTRACT: note_on channel=9 note=36 velocity=0 time=0
EXTRACT: note_on channel=2 note=62 velocity=124 time=0.25789435
EXTRACT: note_on channel=4 note=66 velocity=0 time=0.005263149999999999
EXTRACT: note_on channel=4 note=62 velocity=0 time=0
EXTRACT: note_on channel=4 note=59 velocity=0 time=0
EXTRACT: note_on channel=4 note=54 velocity=0 time=0
EXTRACT: note_on channel=4 note=47 velocity=0 time=0
EXTRACT: note_on channel=7 note=66 velocity=0 time=0
EXTRACT: note_on channel=7 note=62 velocity=0 time=0
EXTRACT: note_on channel=7 note=59 velocity=0 time=0
EXTRACT: note_on channel=7 note=54 velocity=0 time=0
EXTRACT: note_on channel=7 note=47 velocity=0 time=0
EXTRACT: note_on channel=3 note=62 velocity=107 time=0.005263149999999999
EXTRACT: note_on channel=2 note=66 velocity=116 time=0.14736819999999998
EXTRACT: note_on channel=4 note=66 velocity=85 time=0.005263149999999999
EXTRACT: note_on channel=4 note=62 velocity=96 time=0
EXTRACT: note_on channel=4 note=59 velocity=104 time=0
EXTRACT: note_on channel=4 note=54 velocity=89 time=0
EXTRACT: note_on channel=4 note=47 velocity=101 time=0
EXTRACT: note_on channel=7 note=66 velocity=82 time=0
EXTRACT: note_on channel=7 note=62 velocity=104 time=0
EXTRACT: note_on channel=7 note=59 velocity=76 time=0
EXTRACT: note_on channel=7 note=54 velocity=99 time=0
EXTRACT: note_on channel=7 note=47 velocity=78 time=0
EXTRACT: note_on channel=9 note=42 velocity=97 time=0.1578945
EXTRACT: note_on channel=4 note=66 velocity=0 time=0
EXTRACT: note_on channel=4 note=62 velocity=0 time=0
EXTRACT: note_on channel=4 note=59 velocity=0 time=0
EXTRACT: note_on channel=4 note=54 velocity=0 time=0
EXTRACT: note_on channel=4 note=47 velocity=0 time=0
EXTRACT: note_on channel=7 note=66 velocity=0 time=0
EXTRACT: note_on channel=7 note=62 velocity=0 time=0
EXTRACT: note_on channel=7 note=59 velocity=0 time=0
EXTRACT: note_on channel=7 note=54 velocity=0 time=0
EXTRACT: note_on channel=7 note=47 velocity=0 time=0
EXTRACT: note_on channel=8 note=66 velocity=0 time=0
EXTRACT: note_on channel=3 note=62 velocity=0 time=0.005263149999999999
EXTRACT: note_on channel=9 note=42 velocity=0 time=0.04736835
EXTRACT: note_on channel=2 note=62 velocity=102 time=0.09999984999999999
EXTRACT: note_on channel=4 note=66 velocity=60 time=0.005263149999999999
EXTRACT: note_on channel=4 note=62 velocity=75 time=0
EXTRACT: note_on channel=4 note=59 velocity=86 time=0
EXTRACT: note_on channel=4 note=54 velocity=53 time=0
EXTRACT: note_on channel=4 note=47 velocity=61 time=0
EXTRACT: note_on channel=3 note=62 velocity=108 time=0.005263149999999999
EXTRACT: note_on channel=4 note=66 velocity=0 time=0.07368409999999999
EXTRACT: note_on channel=4 note=62 velocity=0 time=0
EXTRACT: note_on channel=4 note=59 velocity=0 time=0
EXTRACT: note_on channel=4 note=54 velocity=0 time=0
EXTRACT: note_on channel=4 note=47 velocity=0 time=0
EXTRACT: note_on channel=4 note=66 velocity=54 time=0.07894725
EXTRACT: note_on channel=4 note=62 velocity=49 time=0
EXTRACT: note_on channel=4 note=59 velocity=40 time=0
EXTRACT: note_on channel=8 note=66 velocity=120 time=0
EXTRACT: note_on channel=3 note=62 velocity=0 time=0.005263149999999999
EXTRACT: note_on channel=3 note=61 velocity=106 time=0
EXTRACT: note_on channel=4 note=66 velocity=0 time=0.07368409999999999
EXTRACT: note_on channel=4 note=62 velocity=0 time=0
EXTRACT: note_on channel=4 note=59 velocity=0 time=0
EXTRACT: note_on channel=2 note=59 velocity=118 time=0.07368409999999999
EXTRACT: note_on channel=4 note=66 velocity=61 time=0.005263149999999999
EXTRACT: note_on channel=4 note=62 velocity=63 time=0
EXTRACT: note_on channel=4 note=59 velocity=70 time=0
EXTRACT: note_on channel=4 note=54 velocity=81 time=0
EXTRACT: note_on channel=4 note=47 velocity=54 time=0
EXTRACT: note_on channel=8 note=66 velocity=0 time=0
EXTRACT: note_on channel=8 note=66 velocity=119 time=0
EXTRACT: note_on channel=3 note=61 velocity=0 time=0.005263149999999999
EXTRACT: note_on channel=3 note=59 velocity=127 time=0
EXTRACT: note_on channel=4 note=66 velocity=0 time=0.07368409999999999
EXTRACT: note_on channel=4 note=62 velocity=0 time=0
EXTRACT: note_on channel=4 note=59 velocity=0 time=0
EXTRACT: note_on channel=4 note=54 velocity=0 time=0
EXTRACT: note_on channel=4 note=47 velocity=0 time=0
EXTRACT: note_on channel=9 note=42 velocity=90 time=0.07894725
EXTRACT: note_on channel=4 note=66 velocity=62 time=0
EXTRACT: note_on channel=4 note=62 velocity=61 time=0
EXTRACT: note_on channel=4 note=59 velocity=57 time=0
EXTRACT: note_on channel=8 note=66 velocity=0 time=0
EXTRACT: note_on channel=8 note=64 velocity=118 time=0
EXTRACT: note_on channel=3 note=59 velocity=0 time=0.005263149999999999
EXTRACT: note_on channel=9 note=42 velocity=0 time=0.04736835
EXTRACT: note_on channel=4 note=66 velocity=0 time=0.02631575
EXTRACT: note_on channel=4 note=62 velocity=0 time=0
EXTRACT: note_on channel=4 note=59 velocity=0 time=0
EXTRACT: note_on channel=2 note=62 velocity=103 time=0.07368409999999999
EXTRACT: note_on channel=3 note=62 velocity=120 time=0.010526299999999999
EXTRACT: note_on channel=4 note=66 velocity=115 time=0.15263134999999997
EXTRACT: note_on channel=4 note=62 velocity=95 time=0
EXTRACT: note_on channel=4 note=59 velocity=109 time=0
EXTRACT: note_on channel=4 note=54 velocity=94 time=0
EXTRACT: note_on channel=4 note=47 velocity=96 time=0
EXTRACT: note_on channel=7 note=66 velocity=83 time=0
EXTRACT: note_on channel=7 note=62 velocity=96 time=0
EXTRACT: note_on channel=7 note=59 velocity=104 time=0
EXTRACT: note_on channel=7 note=54 velocity=74 time=0
EXTRACT: note_on channel=7 note=47 velocity=112 time=0
EXTRACT: note_on channel=8 note=64 velocity=0 time=0
EXTRACT: note_on channel=8 note=66 velocity=115 time=0
EXTRACT: note_on channel=3 note=62 velocity=0 time=0.005263149999999999
EXTRACT: note_on channel=2 note=66 velocity=124 time=0.14736819999999998
EXTRACT: note_on channel=4 note=66 velocity=0 time=0.005263149999999999
EXTRACT: note_on channel=4 note=62 velocity=0 time=0
EXTRACT: note_on channel=4 note=59 velocity=0 time=0
EXTRACT: note_on channel=4 note=54 velocity=0 time=0
EXTRACT: note_on channel=4 note=47 velocity=0 time=0
EXTRACT: note_on channel=7 note=66 velocity=0 time=0
EXTRACT: note_on channel=7 note=62 velocity=0 time=0
EXTRACT: note_on channel=7 note=59 velocity=0 time=0
EXTRACT: note_on channel=7 note=54 velocity=0 time=0
EXTRACT: note_on channel=7 note=47 velocity=0 time=0
EXTRACT: note_on channel=3 note=62 velocity=105 time=0.005263149999999999
EXTRACT: note_on channel=2 note=66 velocity=107 time=0.14736819999999998
EXTRACT: note_on channel=9 note=40 velocity=127 time=0.005263149999999999
EXTRACT: note_on channel=8 note=66 velocity=0 time=0
EXTRACT: note_on channel=8 note=62 velocity=122 time=0
EXTRACT: note_on channel=9 note=40 velocity=0 time=0.0526315
EXTRACT: note_on channel=4 note=66 velocity=52 time=0.105263
EXTRACT: note_on channel=4 note=62 velocity=62 time=0
EXTRACT: note_on channel=4 note=59 velocity=60 time=0
EXTRACT: note_on channel=8 note=62 velocity=0 time=0
EXTRACT: note_on channel=4 note=66 velocity=0 time=0.07894725
EXTRACT: note_on channel=4 note=62 velocity=0 time=0
EXTRACT: note_on channel=4 note=59 velocity=0 time=0
EXTRACT: note_on channel=2 note=62 velocity=105 time=0.07368409999999999
EXTRACT: note_on channel=4 note=66 velocity=88 time=0.005263149999999999
EXTRACT: note_on channel=4 note=62 velocity=58 time=0
EXTRACT: note_on channel=4 note=59 velocity=73 time=0
EXTRACT: note_on channel=4 note=54 velocity=65 time=0
EXTRACT: note_on channel=4 note=47 velocity=70 time=0
EXTRACT: note_on channel=8 note=61 velocity=115 time=0
EXTRACT: note_on channel=4 note=66 velocity=0 time=0.07894725
EXTRACT: note_on channel=4 note=62 velocity=0 time=0
EXTRACT: note_on channel=4 note=59 velocity=0 time=0
EXTRACT: note_on channel=4 note=54 velocity=0 time=0
EXTRACT: note_on channel=4 note=47 velocity=0 time=0
EXTRACT: note_on channel=2 note=47 velocity=0 time=0.23157859999999997
EXTRACT: note_on channel=2 note=62 velocity=0 time=0
EXTRACT: note_on channel=2 note=66 velocity=0 time=0
EXTRACT: note_on channel=2 note=62 velocity=0 time=0
EXTRACT: note_on channel=2 note=59 velocity=0 time=0
EXTRACT: note_on channel=2 note=62 velocity=0 time=0
EXTRACT: note_on channel=2 note=66 velocity=0 time=0
EXTRACT: note_on channel=2 note=66 velocity=0 time=0
EXTRACT: note_on channel=2 note=47 velocity=109 time=0
EXTRACT: note_on channel=9 note=42 velocity=108 time=0.005263149999999999
EXTRACT: note_on channel=9 note=36 velocity=120 time=0
EXTRACT: note_on channel=1 note=35 velocity=111 time=0
EXTRACT: note_on channel=4 note=66 velocity=94 time=0
EXTRACT: note_on channel=4 note=62 velocity=98 time=0
EXTRACT: note_on channel=4 note=59 velocity=105 time=0
EXTRACT: note_on channel=4 note=54 velocity=106 time=0
EXTRACT: note_on channel=4 note=47 velocity=92 time=0
EXTRACT: note_on channel=7 note=66 velocity=83 time=0
EXTRACT: note_on channel=7 note=62 velocity=92 time=0
EXTRACT: note_on channel=7 note=59 velocity=110 time=0
EXTRACT: note_on channel=7 note=54 velocity=101 time=0
EXTRACT: note_on channel=7 note=47 velocity=108 time=0
EXTRACT: note_on channel=8 note=61 velocity=0 time=0
EXTRACT: note_on channel=8 note=61 velocity=125 time=0
EXTRACT: note_on channel=3 note=62 velocity=0 time=0.005263149999999999
EXTRACT: note_on channel=9 note=42 velocity=0 time=0.04736835
EXTRACT: note_on channel=9 note=36 velocity=0 time=0
EXTRACT: note_on channel=1 note=35 velocity=0 time=0.18421025
EXTRACT: note_on channel=2 note=62 velocity=0 time=0.07368409999999999
EXTRACT: note_on channel=2 note=62 velocity=104 time=0
EXTRACT: note_on channel=9 note=42 velocity=100 time=0.005263149999999999
EXTRACT: note_on channel=4 note=66 velocity=0 time=0
EXTRACT: note_on channel=4 note=62 velocity=0 time=0
EXTRACT: note_on channel=4 note=59 velocity=0 time=0
EXTRACT: note_on channel=4 note=54 velocity=0 time=0
EXTRACT: note_on channel=4 note=47 velocity=0 time=0
EXTRACT: note_on channel=7 note=66 velocity=0 time=0
EXTRACT: note_on channel=7 note=62 velocity=0 time=0
EXTRACT: note_on channel=7 note=59 velocity=0 time=0
EXTRACT: note_on channel=7 note=54 velocity=0 time=0
EXTRACT: note_on channel=7 note=47 velocity=0 time=0
EXTRACT: note_on channel=3 note=62 velocity=112 time=0.005263149999999999
EXTRACT: note_on channel=9 note=42 velocity=0 time=0.04736835
EXTRACT: note_on channel=2 note=66 velocity=116 time=0.09999984999999999
EXTRACT: note_on channel=1 note=35 velocity=113 time=0.005263149999999999
EXTRACT: note_on channel=4 note=66 velocity=117 time=0
EXTRACT: note_on channel=4 note=62 velocity=104 time=0
EXTRACT: note_on channel=4 note=59 velocity=102 time=0
EXTRACT: note_on channel=4 note=54 velocity=86 time=0
EXTRACT: note_on channel=4 note=47 velocity=92 time=0
EXTRACT: note_on channel=7 note=66 velocity=77 time=0
EXTRACT: note_on channel=7 note=62 velocity=91 time=0
EXTRACT: note_on channel=7 note=59 velocity=77 time=0
EXTRACT: note_on channel=7 note=54 velocity=97 time=0
EXTRACT: note_on channel=7 note=47 velocity=103 time=0
EXTRACT: note_on channel=9 note=42 velocity=108 time=0.1578945
EXTRACT: note_on channel=9 note=40 velocity=127 time=0
EXTRACT: note_on channel=9 note=69 velocity=62 time=0
EXTRACT: note_on channel=1 note=35 velocity=0 time=0
EXTRACT: note_on channel=4 note=66 velocity=0 time=0
EXTRACT: note_on channel=4 note=62 velocity=0 time=0
EXTRACT: note_on channel=4 note=59 velocity=0 time=0
EXTRACT: note_on channel=4 note=54 velocity=0 time=0
EXTRACT: note_on channel=4 note=47 velocity=0 time=0
EXTRACT: note_on channel=7 note=66 velocity=0 time=0
EXTRACT: note_on channel=7 note=62 velocity=0 time=0
EXTRACT: note_on channel=7 note=59 velocity=0 time=0
EXTRACT: note_on channel=7 note=54 velocity=0 time=0
EXTRACT: note_on channel=7 note=47 velocity=0 time=0
EXTRACT: note_on channel=3 note=62 velocity=0 time=0.005263149999999999
EXTRACT: note_on channel=9 note=42 velocity=0 time=0.04736835
EXTRACT: note_on channel=9 note=40 velocity=0 time=0
EXTRACT: note_on channel=9 note=69 velocity=0 time=0
EXTRACT: note_on channel=2 note=62 velocity=126 time=0.09999984999999999
EXTRACT: note_on channel=9 note=69 velocity=70 time=0.005263149999999999
EXTRACT: note_on channel=4 note=66 velocity=88 time=0
EXTRACT: note_on channel=4 note=62 velocity=80 time=0
EXTRACT: note_on channel=4 note=59 velocity=88 time=0
EXTRACT: note_on channel=4 note=54 velocity=57 time=0
EXTRACT: note_on channel=4 note=47 velocity=89 time=0
EXTRACT: note_on channel=3 note=62 velocity=116 time=0.005263149999999999
EXTRACT: note_on channel=9 note=69 velocity=0 time=0.04736835
EXTRACT: note_on channel=4 note=66 velocity=0 time=0.02631575
EXTRACT: note_on channel=4 note=62 velocity=0 time=0
EXTRACT: note_on channel=4 note=59 velocity=0 time=0
EXTRACT: note_on channel=4 note=54 velocity=0 time=0
EXTRACT: note_on channel=4 note=47 velocity=0 time=0
EXTRACT: note_on channel=9 note=42 velocity=100 time=0.07894725
EXTRACT: note_on channel=4 note=66 velocity=67 time=0
EXTRACT: note_on channel=4 note=62 velocity=47 time=0
EXTRACT: note_on channel=4 note=59 velocity=70 time=0
EXTRACT: note_on channel=3 note=62 velocity=0 time=0.005263149999999999
EXTRACT: note_on channel=3 note=61 velocity=103 time=0
EXTRACT: note_on channel=9 note=42 velocity=0 time=0.04736835
EXTRACT: note_on channel=4 note=66 velocity=0 time=0.02631575
EXTRACT: note_on channel=4 note=62 velocity=0 time=0
EXTRACT: note_on channel=4 note=59 velocity=0 time=0
EXTRACT: note_on channel=2 note=59 velocity=119 time=0.07368409999999999
EXTRACT: note_on channel=9 note=69 velocity=62 time=0.005263149999999999
EXTRACT: note_on channel=4 note=66 velocity=86 time=0
EXTRACT: note_on channel=4 note=62 velocity=73 time=0
EXTRACT: note_on channel=4 note=59 velocity=72 time=0
EXTRACT: note_on channel=4 note=54 velocity=64 time=0
EXTRACT: note_on channel=4 note=47 velocity=82 time=0
EXTRACT: note_on channel=3 note=61 velocity=0 time=0.005263149999999999
EXTRACT: note_on channel=3 note=59 velocity=126 time=0
EXTRACT: note_on channel=9 note=69 velocity=0 time=0.04736835
EXTRACT: note_on channel=4 note=66 velocity=0 time=0.02631575
EXTRACT: note_on channel=4 note=62 velocity=0 time=0
EXTRACT: note_on channel=4 note=59 velocity=0 time=0
EXTRACT: note_on channel=4 note=54 velocity=0 time=0
EXTRACT: note_on channel=4 note=47 velocity=0 time=0
EXTRACT: note_on channel=9 note=36 velocity=120 time=0.07894725
EXTRACT: note_on channel=9 note=42 velocity=97 time=0
EXTRACT: note_on channel=4 note=66 velocity=40 time=0
EXTRACT: note_on channel=4 note=62 velocity=46 time=0
EXTRACT: note_on channel=4 note=59 velocity=66 time=0
EXTRACT: note_on channel=8 note=61 velocity=0 time=0
EXTRACT: note_on channel=8 note=59 velocity=122 time=0
EXTRACT: note_on channel=3 note=59 velocity=0 time=0.005263149999999999
EXTRACT: note_on channel=9 note=36 velocity=0 time=0.04736835
EXTRACT: note_on channel=9 note=42 velocity=0 time=0
EXTRACT: note_on channel=4 note=66 velocity=0 time=0.02631575
EXTRACT: note_on channel=4 note=62 velocity=0 time=0
EXTRACT: note_on channel=4 note=59 velocity=0 time=0
EXTRACT: note_on channel=2 note=62 velocity=108 time=0.07368409999999999
EXTRACT: note_on channel=9 note=69 velocity=73 time=0.005263149999999999
EXTRACT: note_on channel=3 note=62 velocity=111 time=0.005263149999999999
EXTRACT: note_on channel=9 note=69 velocity=0 time=0.04736835
EXTRACT: note_on channel=9 note=42 velocity=94 time=0.105263
EXTRACT: note_on channel=9 note=69 velocity=78 time=0
EXTRACT: note_on channel=1 note=35 velocity=121 time=0
EXTRACT: note_on channel=4 note=66 velocity=113 time=0
EXTRACT: note_on channel=4 note=62 velocity=110 time=0
EXTRACT: note_on channel=4 note=59 velocity=85 time=0
EXTRACT: note_on channel=4 note=54 velocity=108 time=0
EXTRACT: note_on channel=4 note=47 velocity=115 time=0
EXTRACT: note_on channel=7 note=66 velocity=99 time=0
EXTRACT: note_on channel=7 note=62 velocity=111 time=0
EXTRACT: note_on channel=7 note=59 velocity=88 time=0
EXTRACT: note_on channel=7 note=54 velocity=97 time=0
EXTRACT: note_on channel=7 note=47 velocity=86 time=0
EXTRACT: note_on channel=8 note=59 velocity=0 time=0
EXTRACT: note_on channel=8 note=61 velocity=123 time=0
EXTRACT: note_on channel=3 note=62 velocity=0 time=0.005263149999999999
EXTRACT: note_on channel=9 note=42 velocity=0 time=0.04736835
EXTRACT: note_on channel=9 note=69 velocity=0 time=0
EXTRACT: note_on channel=2 note=66 velocity=123 time=0.09999984999999999
EXTRACT: note_on channel=1 note=35 velocity=0 time=0.005263149999999999
EXTRACT: note_on channel=4 note=66 velocity=0 time=0
EXTRACT: note_on channel=4 note=62 velocity=0 time=0
EXTRACT: note_on channel=4 note=59 velocity=0 time=0
EXTRACT: note_on channel=4 note=54 velocity=0 time=0
EXTRACT: note_on channel=4 note=47 velocity=0 time=0
EXTRACT: note_on channel=7 note=66 velocity=0 time=0
EXTRACT: note_on channel=7 note=62 velocity=0 time=0
EXTRACT: note_on channel=7 note=59 velocity=0 time=0
EXTRACT: note_on channel=7 note=54 velocity=0 time=0
EXTRACT: note_on channel=7 note=47 velocity=0 time=0
EXTRACT: note_on channel=3 note=62 velocity=103 time=0.005263149999999999
EXTRACT: note_on channel=2 note=66 velocity=109 time=0.14736819999999998
EXTRACT: note_on channel=9 note=40 velocity=127 time=0.005263149999999999
EXTRACT: note_on channel=9 note=42 velocity=105 time=0
EXTRACT: note_on channel=9 note=69 velocity=66 time=0
EXTRACT: note_on channel=8 note=61 velocity=0 time=0
EXTRACT: note_on channel=8 note=62 velocity=114 time=0
EXTRACT: note_on channel=9 note=40 velocity=0 time=0.0526315
EXTRACT: note_on channel=9 note=42 velocity=0 time=0
EXTRACT: note_on channel=9 note=69 velocity=0 time=0
EXTRACT: note_on channel=4 note=66 velocity=59 time=0.105263
EXTRACT: note_on channel=4 note=62 velocity=57 time=0
EXTRACT: note_on channel=4 note=59 velocity=53 time=0
EXTRACT: note_on channel=4 note=66 velocity=0 time=0.07894725
EXTRACT: note_on channel=4 note=62 velocity=0 time=0
EXTRACT: note_on channel=4 note=59 velocity=0 time=0
EXTRACT: note_on channel=2 note=62 velocity=109 time=0.07368409999999999
EXTRACT: note_on channel=9 note=36 velocity=90 time=0.005263149999999999
EXTRACT: note_on channel=9 note=42 velocity=91 time=0
EXTRACT: note_on channel=1 note=38 velocity=117 time=0
EXTRACT: note_on channel=4 note=66 velocity=73 time=0
EXTRACT: note_on channel=4 note=62 velocity=56 time=0
EXTRACT: note_on channel=4 note=59 velocity=67 time=0
EXTRACT: note_on channel=4 note=54 velocity=87 time=0
EXTRACT: note_on channel=4 note=47 velocity=71 time=0
EXTRACT: note_on channel=8 note=62 velocity=0 time=0
EXTRACT: note_on channel=8 note=66 velocity=118 time=0
EXTRACT: note_on channel=9 note=36 velocity=0 time=0.0526315
EXTRACT: note_on channel=9 note=42 velocity=0 time=0
EXTRACT: note_on channel=4 note=66 velocity=0 time=0.02631575
EXTRACT: note_on channel=4 note=62 velocity=0 time=0
EXTRACT: note_on channel=4 note=59 velocity=0 time=0
EXTRACT: note_on channel=4 note=54 velocity=0 time=0
EXTRACT: note_on channel=4 note=47 velocity=0 time=0
EXTRACT: note_on channel=9 note=40 velocity=127 time=0.07894725
EXTRACT: note_on channel=1 note=38 velocity=0 time=0
EXTRACT: note_on channel=9 note=40 velocity=0 time=0.0526315
EXTRACT: note_on channel=2 note=47 velocity=0 time=0.09999984999999999
EXTRACT: note_on channel=2 note=62 velocity=0 time=0
EXTRACT: note_on channel=2 note=66 velocity=0 time=0
EXTRACT: note_on channel=2 note=62 velocity=0 time=0
EXTRACT: note_on channel=2 note=59 velocity=0 time=0
EXTRACT: note_on channel=2 note=62 velocity=0 time=0
EXTRACT: note_on channel=2 note=66 velocity=0 time=0
EXTRACT: note_on channel=2 note=66 velocity=0 time=0
EXTRACT: note_on channel=2 note=62 velocity=0 time=0
EXTRACT: note_on channel=2 note=40 velocity=117 time=0
EXTRACT: note_on channel=9 note=42 velocity=101 time=0.005263149999999999
EXTRACT: note_on channel=9 note=36 velocity=120 time=0
EXTRACT: note_on channel=1 note=40 velocity=116 time=0
EXTRACT: note_on channel=4 note=67 velocity=89 time=0
EXTRACT: note_on channel=4 note=62 velocity=108 time=0
EXTRACT: note_on channel=4 note=59 velocity=87 time=0
EXTRACT: note_on channel=4 note=55 velocity=109 time=0
EXTRACT: note_on channel=4 note=47 velocity=85 time=0
EXTRACT: note_on channel=7 note=67 velocity=83 time=0
EXTRACT: note_on channel=7 note=62 velocity=104 time=0
EXTRACT: note_on channel=7 note=59 velocity=78 time=0
EXTRACT: note_on channel=7 note=55 velocity=100 time=0
EXTRACT: note_on channel=7 note=47 velocity=111 time=0
EXTRACT: note_on channel=8 note=66 velocity=0 time=0
EXTRACT: note_on channel=8 note=62 velocity=118 time=0
EXTRACT: note_on channel=3 note=62 velocity=0 time=0.005263149999999999
EXTRACT: note_on channel=9 note=42 velocity=0 time=0.04736835
EXTRACT: note_on channel=9 note=36 velocity=0 time=0
EXTRACT: note_on channel=1 note=40 velocity=0 time=0.07894725
EXTRACT: note_on channel=2 note=62 velocity=107 time=0.17894709999999997
EXTRACT: note_on channel=9 note=42 velocity=105 time=0.005263149999999999
EXTRACT: note_on channel=1 note=40 velocity=116 time=0
EXTRACT: note_on channel=4 note=67 velocity=0 time=0
EXTRACT: note_on channel=4 note=62 velocity=0 time=0
EXTRACT: note_on channel=4 note=59 velocity=0 time=0
EXTRACT: note_on channel=4 note=55 velocity=0 time=0
EXTRACT: note_on channel=4 note=47 velocity=0 time=0
EXTRACT: note_on channel=7 note=67 velocity=0 time=0
EXTRACT: note_on channel=7 note=62 velocity=0 time=0
EXTRACT: note_on channel=7 note=59 velocity=0 time=0
EXTRACT: note_on channel=7 note=55 velocity=0 time=0
EXTRACT: note_on channel=7 note=47 velocity=0 time=0
EXTRACT: note_on channel=3 note=62 velocity=111 time=0.005263149999999999
EXTRACT: note_on channel=9 note=42 velocity=0 time=0.04736835
EXTRACT: note_on channel=1 note=40 velocity=0 time=0.09999984999999999
EXTRACT: note_on channel=2 note=67 velocity=125 time=0
EXTRACT: note_on channel=1 note=35 velocity=126 time=0.005263149999999999
EXTRACT: note_on channel=4 note=67 velocity=91 time=0
EXTRACT: note_on channel=4 note=62 velocity=107 time=0
EXTRACT: note_on channel=4 note=59 velocity=98 time=0
EXTRACT: note_on channel=4 note=55 velocity=86 time=0
EXTRACT: note_on channel=4 note=47 velocity=117 time=0
EXTRACT: note_on channel=7 note=67 velocity=90 time=0
EXTRACT: note_on channel=7 note=62 velocity=90 time=0
EXTRACT: note_on channel=7 note=59 velocity=94 time=0
EXTRACT: note_on channel=7 note=55 velocity=88 time=0
EXTRACT: note_on channel=7 note=47 velocity=102 time=0
EXTRACT: note_on channel=9 note=42 velocity=105 time=0.1578945
EXTRACT: note_on channel=9 note=40 velocity=127 time=0
EXTRACT: note_on channel=9 note=69 velocity=62 time=0
EXTRACT: note_on channel=1 note=35 velocity=0 time=0
EXTRACT: note_on channel=4 note=67 velocity=0 time=0
EXTRACT: note_on channel=4 note=62 velocity=0 time=0
EXTRACT: note_on channel=4 note=59 velocity=0 time=0
EXTRACT: note_on channel=4 note=55 velocity=0 time=0
EXTRACT: note_on channel=4 note=47 velocity=0 time=0
EXTRACT: note_on channel=7 note=67 velocity=0 time=0
EXTRACT: note_on channel=7 note=62 velocity=0 time=0
EXTRACT: note_on channel=7 note=59 velocity=0 time=0
EXTRACT: note_on channel=7 note=55 velocity=0 time=0
EXTRACT: note_on channel=7 note=47 velocity=0 time=0
EXTRACT: note_on channel=8 note=62 velocity=0 time=0
EXTRACT: note_on channel=8 note=69 velocity=127 time=0
EXTRACT: note_on channel=3 note=62 velocity=0 time=0.005263149999999999
EXTRACT: note_on channel=9 note=42 velocity=0 time=0.04736835
EXTRACT: note_on channel=9 note=40 velocity=0 time=0
EXTRACT: note_on channel=9 note=69 velocity=0 time=0
EXTRACT: note_on channel=2 note=62 velocity=112 time=0.09999984999999999
EXTRACT: note_on channel=9 note=69 velocity=70 time=0.005263149999999999
EXTRACT: note_on channel=1 note=35 velocity=117 time=0
EXTRACT: note_on channel=4 note=67 velocity=81 time=0
EXTRACT: note_on channel=4 note=62 velocity=57 time=0
EXTRACT: note_on channel=4 note=59 velocity=62 time=0
EXTRACT: note_on channel=4 note=55 velocity=72 time=0
EXTRACT: note_on channel=4 note=47 velocity=76 time=0
EXTRACT: note_on channel=8 note=69 velocity=0 time=0
EXTRACT: note_on channel=3 note=62 velocity=102 time=0.005263149999999999
EXTRACT: note_on channel=9 note=69 velocity=0 time=0.04736835
EXTRACT: note_on channel=4 note=67 velocity=0 time=0.02631575
EXTRACT: note_on channel=4 note=62 velocity=0 time=0
EXTRACT: note_on channel=4 note=59 velocity=0 time=0
EXTRACT: note_on channel=4 note=55 velocity=0 time=0
EXTRACT: note_on channel=4 note=47 velocity=0 time=0
EXTRACT: note_on channel=1 note=35 velocity=0 time=0.07368409999999999
EXTRACT: note_on channel=9 note=42 velocity=101 time=0.005263149999999999
EXTRACT: note_on channel=1 note=31 velocity=115 time=0
EXTRACT: note_on channel=4 note=67 velocity=63 time=0
EXTRACT: note_on channel=4 note=62 velocity=68 time=0
EXTRACT: note_on channel=4 note=59 velocity=68 time=0
EXTRACT: note_on channel=8 note=69 velocity=117 time=0
EXTRACT: note_on channel=3 note=62 velocity=0 time=0.005263149999999999
EXTRACT: note_on channel=3 note=61 velocity=124 time=0
EXTRACT: note_on channel=9 note=42 velocity=0 time=0.04736835
EXTRACT: note_on channel=4 note=67 velocity=0 time=0.02631575
EXTRACT: note_on channel=4 note=62 velocity=0 time=0
EXTRACT: note_on channel=4 note=59 velocity=0 time=0
EXTRACT: note_on channel=2 note=59 velocity=118 time=0.07368409999999999
EXTRACT: note_on channel=9 note=69 velocity=62 time=0.005263149999999999
EXTRACT: note_on channel=1 note=31 velocity=0 time=0
EXTRACT: note_on channel=4 note=67 velocity=76 time=0
EXTRACT: note_on channel=4 note=62 velocity=55 time=0
EXTRACT: note_on channel=4 note=59 velocity=56 time=0
EXTRACT: note_on channel=4 note=55 velocity=54 time=0
EXTRACT: note_on channel=4 note=47 velocity=54 time=0
EXTRACT: note_on channel=8 note=69 velocity=0 time=0
EXTRACT: note_on channel=3 note=61 velocity=0 time=0.005263149999999999
EXTRACT: note_on channel=3 note=59 velocity=116 time=0
EXTRACT: note_on channel=9 note=69 velocity=0 time=0.04736835
EXTRACT: note_on channel=4 note=67 velocity=0 time=0.02631575
EXTRACT: note_on channel=4 note=62 velocity=0 time=0
EXTRACT: note_on channel=4 note=59 velocity=0 time=0
EXTRACT: note_on channel=4 note=55 velocity=0 time=0
EXTRACT: note_on channel=4 note=47 velocity=0 time=0
EXTRACT: note_on channel=9 note=36 velocity=120 time=0.07894725
EXTRACT: note_on channel=9 note=42 velocity=94 time=0
EXTRACT: note_on channel=1 note=28 velocity=114 time=0
EXTRACT: note_on channel=4 note=67 velocity=44 time=0
EXTRACT: note_on channel=4 note=62 velocity=49 time=0
EXTRACT: note_on channel=4 note=59 velocity=63 time=0
EXTRACT: note_on channel=8 note=64 velocity=123 time=0
EXTRACT: note_on channel=3 note=59 velocity=0 time=0.005263149999999999
EXTRACT: note_on channel=9 note=36 velocity=0 time=0.04736835
EXTRACT: note_on channel=9 note=42 velocity=0 time=0
EXTRACT: note_on channel=4 note=67 velocity=0 time=0.02631575
EXTRACT: note_on channel=4 note=62 velocity=0 time=0
EXTRACT: note_on channel=4 note=59 velocity=0 time=0
EXTRACT: note_on channel=2 note=62 velocity=111 time=0.07368409999999999
EXTRACT: note_on channel=9 note=69 velocity=73 time=0.005263149999999999
EXTRACT: note_on channel=8 note=64 velocity=0 time=0
EXTRACT: note_on channel=3 note=62 velocity=105 time=0.005263149999999999
EXTRACT: note_on channel=9 note=69 velocity=0 time=0.04736835
EXTRACT: note_on channel=9 note=42 velocity=107 time=0.105263
EXTRACT: note_on channel=9 note=69 velocity=78 time=0
EXTRACT: note_on channel=1 note=28 velocity=0 time=0
EXTRACT: note_on channel=4 note=67 velocity=89 time=0
EXTRACT: note_on channel=4 note=62 velocity=107 time=0
EXTRACT: note_on channel=4 note=59 velocity=86 time=0
EXTRACT: note_on channel=4 note=55 velocity=113 time=0
EXTRACT: note_on channel=4 note=47 velocity=110 time=0
EXTRACT: note_on channel=7 note=67 velocity=95 time=0
EXTRACT: note_on channel=7 note=62 velocity=78 time=0
EXTRACT: note_on channel=7 note=59 velocity=106 time=0
EXTRACT: note_on channel=7 note=55 velocity=98 time=0
EXTRACT: note_on channel=7 note=47 velocity=85 time=0
EXTRACT: note_on channel=8 note=64 velocity=118 time=0
EXTRACT: note_on channel=3 note=62 velocity=0 time=0.005263149999999999
EXTRACT: note_on channel=9 note=42 velocity=0 time=0.04736835
EXTRACT: note_on channel=9 note=69 velocity=0 time=0
EXTRACT: note_on channel=2 note=67 velocity=125 time=0.09999984999999999
EXTRACT: note_on channel=4 note=67 velocity=0 time=0.005263149999999999
EXTRACT: note_on channel=4 note=62 velocity=0 time=0
EXTRACT: note_on channel=4 note=59 velocity=0 time=0
EXTRACT: note_on channel=4 note=55 velocity=0 time=0
EXTRACT: note_on channel=4 note=47 velocity=0 time=0
EXTRACT: note_on channel=7 note=67 velocity=0 time=0
EXTRACT: note_on channel=7 note=62 velocity=0 time=0
EXTRACT: note_on channel=7 note=59 velocity=0 time=0
EXTRACT: note_on channel=7 note=55 velocity=0 time=0
EXTRACT: note_on channel=7 note=47 velocity=0 time=0
EXTRACT: note_on channel=8 note=64 velocity=0 time=0
EXTRACT: note_on channel=3 note=62 velocity=102 time=0.005263149999999999
EXTRACT: note_on channel=2 note=67 velocity=107 time=0.14736819999999998
EXTRACT: note_on channel=9 note=40 velocity=127 time=0.005263149999999999
EXTRACT: note_on channel=9 note=42 velocity=95 time=0
EXTRACT: note_on channel=9 note=69 velocity=66 time=0
EXTRACT: note_on channel=8 note=62 velocity=117 time=0
EXTRACT: note_on channel=9 note=40 velocity=0 time=0.0526315
EXTRACT: note_on channel=9 note=42 velocity=0 time=0
EXTRACT: note_on channel=9 note=69 velocity=0 time=0
EXTRACT: note_on channel=4 note=67 velocity=64 time=0.105263
EXTRACT: note_on channel=4 note=62 velocity=49 time=0
EXTRACT: note_on channel=4 note=59 velocity=55 time=0
EXTRACT: note_on channel=8 note=62 velocity=0 time=0
EXTRACT: note_on channel=4 note=67 velocity=0 time=0.07894725
EXTRACT: note_on channel=4 note=62 velocity=0 time=0
EXTRACT: note_on channel=4 note=59 velocity=0 time=0
EXTRACT: note_on channel=2 note=62 velocity=119 time=0.07368409999999999
EXTRACT: note_on channel=9 note=42 velocity=102 time=0.005263149999999999
EXTRACT: note_on channel=1 note=28 velocity=119 time=0
EXTRACT: note_on channel=4 note=67 velocity=75 time=0
EXTRACT: note_on channel=4 note=62 velocity=55 time=0
EXTRACT: note_on channel=4 note=59 velocity=77 time=0
EXTRACT: note_on channel=4 note=55 velocity=87 time=0
EXTRACT: note_on channel=4 note=47 velocity=91 time=0
EXTRACT: note_on channel=8 note=66 velocity=121 time=0
EXTRACT: note_on channel=9 note=42 velocity=0 time=0.0526315
EXTRACT: note_on channel=4 note=67 velocity=0 time=0.02631575
EXTRACT: note_on channel=4 note=62 velocity=0 time=0
EXTRACT: note_on channel=4 note=59 velocity=0 time=0
EXTRACT: note_on channel=4 note=55 velocity=0 time=0
EXTRACT: note_on channel=4 note=47 velocity=0 time=0
EXTRACT: note_on channel=1 note=28 velocity=0 time=0.07894725
EXTRACT: note_on channel=8 note=66 velocity=0 time=0
EXTRACT: note_on channel=2 note=40 velocity=0 time=0.15263134999999997
EXTRACT: note_on channel=2 note=62 velocity=0 time=0
EXTRACT: note_on channel=2 note=67 velocity=0 time=0
EXTRACT: note_on channel=2 note=62 velocity=0 time=0
EXTRACT: note_on channel=2 note=59 velocity=0 time=0
EXTRACT: note_on channel=2 note=62 velocity=0 time=0
EXTRACT: note_on channel=2 note=67 velocity=0 time=0
EXTRACT: note_on channel=2 note=67 velocity=0 time=0
EXTRACT: note_on channel=2 note=62 velocity=0 time=0
EXTRACT: note_on channel=2 note=57 velocity=117 time=0
EXTRACT: note_on channel=2 note=54 velocity=107 time=0
EXTRACT: note_on channel=9 note=42 velocity=100 time=0.005263149999999999
EXTRACT: note_on channel=9 note=36 velocity=120 time=0
EXTRACT: note_on channel=1 note=30 velocity=127 time=0
EXTRACT: note_on channel=4 note=64 velocity=85 time=0
EXTRACT: note_on channel=4 note=61 velocity=100 time=0
EXTRACT: note_on channel=4 note=57 velocity=90 time=0
EXTRACT: note_on channel=4 note=54 velocity=102 time=0
EXTRACT: note_on channel=7 note=64 velocity=92 time=0
EXTRACT: note_on channel=7 note=61 velocity=84 time=0
EXTRACT: note_on channel=7 note=57 velocity=88 time=0
EXTRACT: note_on channel=7 note=54 velocity=106 time=0
EXTRACT: note_on channel=8 note=66 velocity=120 time=0
EXTRACT: note_on channel=3 note=62 velocity=0 time=0.005263149999999999
EXTRACT: note_on channel=9 note=42 velocity=0 time=0.04736835
EXTRACT: note_on channel=9 note=36 velocity=0 time=0
EXTRACT: note_on channel=1 note=30 velocity=0 time=0.15263134999999997
EXTRACT: note_on channel=1 note=30 velocity=113 time=0.005263149999999999
EXTRACT: note_on channel=2 note=61 velocity=108 time=0.09999984999999999
EXTRACT: note_on channel=9 note=42 velocity=93 time=0.005263149999999999
EXTRACT: note_on channel=4 note=64 velocity=0 time=0
EXTRACT: note_on channel=4 note=61 velocity=0 time=0
EXTRACT: note_on channel=4 note=57 velocity=0 time=0
EXTRACT: note_on channel=4 note=54 velocity=0 time=0
EXTRACT: note_on channel=7 note=64 velocity=0 time=0
EXTRACT: note_on channel=7 note=61 velocity=0 time=0
EXTRACT: note_on channel=7 note=57 velocity=0 time=0
EXTRACT: note_on channel=7 note=54 velocity=0 time=0
EXTRACT: note_on channel=8 note=66 velocity=0 time=0
EXTRACT: note_on channel=8 note=66 velocity=123 time=0
EXTRACT: note_on channel=3 note=61 velocity=104 time=0.005263149999999999
EXTRACT: note_on channel=9 note=42 velocity=0 time=0.04736835
EXTRACT: note_on channel=1 note=30 velocity=0 time=0.04736835
EXTRACT: note_on channel=1 note=30 velocity=123 time=0.005263149999999999
EXTRACT: note_on channel=2 note=64 velocity=112 time=0.04736835
EXTRACT: note_on channel=4 note=64 velocity=108 time=0.005263149999999999
EXTRACT: note_on channel=4 note=61 velocity=110 time=0
EXTRACT: note_on channel=4 note=57 velocity=96 time=0
EXTRACT: note_on channel=4 note=54 velocity=95 time=0
EXTRACT: note_on channel=7 note=64 velocity=83 time=0
EXTRACT: note_on channel=7 note=61 velocity=93 time=0
EXTRACT: note_on channel=7 note=57 velocity=76 time=0
EXTRACT: note_on channel=7 note=54 velocity=90 time=0
EXTRACT: note_on channel=8 note=66 velocity=0 time=0
EXTRACT: note_on channel=8 note=66 velocity=123 time=0
EXTRACT: note_on channel=1 note=30 velocity=0 time=0.15263134999999997
EXTRACT: note_on channel=9 note=42 velocity=108 time=0.005263149999999999
EXTRACT: note_on channel=9 note=40 velocity=127 time=0
EXTRACT: note_on channel=9 note=69 velocity=62 time=0
EXTRACT: note_on channel=1 note=37 velocity=114 time=0
EXTRACT: note_on channel=4 note=64 velocity=0 time=0
EXTRACT: note_on channel=4 note=61 velocity=0 time=0
EXTRACT: note_on channel=4 note=57 velocity=0 time=0
EXTRACT: note_on channel=4 note=54 velocity=0 time=0
EXTRACT: note_on channel=7 note=64 velocity=0 time=0
EXTRACT: note_on channel=7 note=61 velocity=0 time=0
EXTRACT: note_on channel=7 note=57 velocity=0 time=0
EXTRACT: note_on channel=7 note=54 velocity=0 time=0
EXTRACT: note_on channel=8 note=66 velocity=0 time=0
EXTRACT: note_on channel=8 note=64 velocity=123 time=0
EXTRACT: note_on channel=3 note=61 velocity=0 time=0.005263149999999999
EXTRACT: note_on channel=9 note=42 velocity=0 time=0.04736835
EXTRACT: note_on channel=9 note=40 velocity=0 time=0
EXTRACT: note_on channel=9 note=69 velocity=0 time=0
EXTRACT: note_on channel=2 note=61 velocity=111 time=0.09999984999999999
EXTRACT: note_on channel=9 note=69 velocity=70 time=0.005263149999999999
EXTRACT: note_on channel=4 note=64 velocity=68 time=0
EXTRACT: note_on channel=4 note=61 velocity=59 time=0
EXTRACT: note_on channel=4 note=57 velocity=58 time=0
EXTRACT: note_on channel=4 note=54 velocity=57 time=0
EXTRACT: note_on channel=3 note=61 velocity=123 time=0.005263149999999999
EXTRACT: note_on channel=9 note=69 velocity=0 time=0.04736835
EXTRACT: note_on channel=1 note=37 velocity=0 time=0.02631575
EXTRACT: note_on channel=4 note=64 velocity=0 time=0
EXTRACT: note_on channel=4 note=61 velocity=0 time=0
EXTRACT: note_on channel=4 note=57 velocity=0 time=0
EXTRACT: note_on channel=4 note=54 velocity=0 time=0
EXTRACT: note_on channel=9 note=42 velocity=90 time=0.07894725
EXTRACT: note_on channel=1 note=42 velocity=110 time=0
EXTRACT: note_on channel=4 note=64 velocity=59 time=0
EXTRACT: note_on channel=4 note=61 velocity=59 time=0
EXTRACT: note_on channel=4 note=57 velocity=43 time=0
EXTRACT: note_on channel=9 note=42 velocity=0 time=0.0526315
EXTRACT: note_on channel=4 note=64 velocity=0 time=0.02631575
EXTRACT: note_on channel=4 note=61 velocity=0 time=0
EXTRACT: note_on channel=4 note=57 velocity=0 time=0
EXTRACT: note_on channel=2 note=57 velocity=125 time=0.07368409999999999
EXTRACT: note_on channel=9 note=69 velocity=62 time=0.005263149999999999
EXTRACT: note_on channel=4 note=64 velocity=86 time=0
EXTRACT: note_on channel=4 note=61 velocity=88 time=0
EXTRACT: note_on channel=4 note=57 velocity=62 time=0
EXTRACT: note_on channel=4 note=54 velocity=69 time=0
EXTRACT: note_on channel=3 note=61 velocity=0 time=0.005263149999999999
EXTRACT: note_on channel=9 note=69 velocity=0 time=0.04736835
EXTRACT: note_on channel=1 note=42 velocity=0 time=0.02631575
EXTRACT: note_on channel=4 note=64 velocity=0 time=0
EXTRACT: note_on channel=4 note=61 velocity=0 time=0
EXTRACT: note_on channel=4 note=57 velocity=0 time=0
EXTRACT: note_on channel=4 note=54 velocity=0 time=0
EXTRACT: note_on channel=2 note=61 velocity=103 time=0.07368409999999999
EXTRACT: note_on channel=9 note=36 velocity=120 time=0.005263149999999999
EXTRACT: note_on channel=9 note=42 velocity=94 time=0
EXTRACT: note_on channel=1 note=37 velocity=122 time=0
EXTRACT: note_on channel=4 note=64 velocity=39 time=0
EXTRACT: note_on channel=4 note=61 velocity=59 time=0
EXTRACT: note_on channel=4 note=57 velocity=65 time=0
EXTRACT: note_on channel=8 note=64 velocity=0 time=0
EXTRACT: note_on channel=3 note=61 velocity=112 time=0.005263149999999999
EXTRACT: note_on channel=9 note=36 velocity=0 time=0.04736835
EXTRACT: note_on channel=9 note=42 velocity=0 time=0
EXTRACT: note_on channel=4 note=64 velocity=0 time=0.02631575
EXTRACT: note_on channel=4 note=61 velocity=0 time=0
EXTRACT: note_on channel=4 note=57 velocity=0 time=0
EXTRACT: note_on channel=2 note=64 velocity=120 time=0.07368409999999999
EXTRACT: note_on channel=9 note=69 velocity=73 time=0.005263149999999999
EXTRACT: note_on channel=9 note=69 velocity=0 time=0.0526315
EXTRACT: note_on channel=2 note=66 velocity=115 time=0.09999984999999999
EXTRACT: note_on channel=9 note=36 velocity=120 time=0.005263149999999999
EXTRACT: note_on channel=9 note=42 velocity=98 time=0
EXTRACT: note_on channel=9 note=69 velocity=78 time=0
EXTRACT: note_on channel=4 note=64 velocity=101 time=0
EXTRACT: note_on channel=4 note=61 velocity=94 time=0
EXTRACT: note_on channel=4 note=57 velocity=94 time=0
EXTRACT: note_on channel=4 note=54 velocity=88 time=0
EXTRACT: note_on channel=7 note=64 velocity=104 time=0
EXTRACT: note_on channel=7 note=61 velocity=84 time=0
EXTRACT: note_on channel=7 note=57 velocity=80 time=0
EXTRACT: note_on channel=7 note=54 velocity=76 time=0
EXTRACT: note_on channel=8 note=59 velocity=124 time=0
EXTRACT: note_on channel=9 note=36 velocity=0 time=0.0526315
EXTRACT: note_on channel=9 note=42 velocity=0 time=0
EXTRACT: note_on channel=9 note=69 velocity=0 time=0
EXTRACT: note_on channel=1 note=37 velocity=0 time=0.04736835
EXTRACT: note_on channel=1 note=42 velocity=110 time=0.005263149999999999
EXTRACT: note_on channel=2 note=69 velocity=127 time=0.04736835
EXTRACT: note_on channel=4 note=64 velocity=0 time=0.005263149999999999
EXTRACT: note_on channel=4 note=61 velocity=0 time=0
EXTRACT: note_on channel=4 note=57 velocity=0 time=0
EXTRACT: note_on channel=4 note=54 velocity=0 time=0
EXTRACT: note_on channel=7 note=64 velocity=0 time=0
EXTRACT: note_on channel=7 note=61 velocity=0 time=0
EXTRACT: note_on channel=7 note=57 velocity=0 time=0
EXTRACT: note_on channel=7 note=54 velocity=0 time=0
EXTRACT: note_on channel=8 note=59 velocity=0 time=0
EXTRACT: note_on channel=9 note=40 velocity=127 time=0.1578945
EXTRACT: note_on channel=9 note=42 velocity=101 time=0
EXTRACT: note_on channel=9 note=69 velocity=66 time=0
EXTRACT: note_on channel=8 note=62 velocity=125 time=0
EXTRACT: note_on channel=9 note=40 velocity=0 time=0.0526315
EXTRACT: note_on channel=9 note=42 velocity=0 time=0
EXTRACT: note_on channel=9 note=69 velocity=0 time=0
EXTRACT: note_on channel=4 note=64 velocity=50 time=0.105263
EXTRACT: note_on channel=4 note=61 velocity=63 time=0
EXTRACT: note_on channel=4 note=57 velocity=52 time=0
EXTRACT: note_on channel=8 note=62 velocity=0 time=0
EXTRACT: note_on channel=8 note=64 velocity=126 time=0
EXTRACT: note_on channel=1 note=42 velocity=0 time=0.04736835
EXTRACT: note_on channel=1 note=49 velocity=108 time=0.005263149999999999
EXTRACT: note_on channel=4 note=64 velocity=0 time=0.02631575
EXTRACT: note_on channel=4 note=61 velocity=0 time=0
EXTRACT: note_on channel=4 note=57 velocity=0 time=0
EXTRACT: note_on channel=9 note=36 velocity=90 time=0.07894725
EXTRACT: note_on channel=9 note=42 velocity=107 time=0
EXTRACT: note_on channel=4 note=64 velocity=81 time=0
EXTRACT: note_on channel=4 note=61 velocity=62 time=0
EXTRACT: note_on channel=4 note=57 velocity=52 time=0
EXTRACT: note_on channel=4 note=54 velocity=57 time=0
EXTRACT: note_on channel=8 note=64 velocity=0 time=0
EXTRACT: note_on channel=8 note=66 velocity=117 time=0
EXTRACT: note_on channel=3 note=61 velocity=98 time=0.005263149999999999
EXTRACT: note_on channel=9 note=36 velocity=0 time=0.04736835
EXTRACT: note_on channel=9 note=42 velocity=0 time=0
EXTRACT: note_on channel=4 note=64 velocity=0 time=0.02631575
EXTRACT: note_on channel=4 note=61 velocity=0 time=0
EXTRACT: note_on channel=4 note=57 velocity=0 time=0
EXTRACT: note_on channel=4 note=54 velocity=0 time=0
EXTRACT: note_on channel=9 note=40 velocity=127 time=0.07894725
EXTRACT: note_on channel=8 note=66 velocity=0 time=0
EXTRACT: note_on channel=9 note=40 velocity=0 time=0.0526315
EXTRACT: note_on channel=1 note=49 velocity=0 time=0.09999984999999999
EXTRACT: note_on channel=2 note=57 velocity=0 time=0
EXTRACT: note_on channel=2 note=54 velocity=0 time=0
EXTRACT: note_on channel=2 note=61 velocity=0 time=0
EXTRACT: note_on channel=2 note=64 velocity=0 time=0
EXTRACT: note_on channel=2 note=61 velocity=0 time=0
EXTRACT: note_on channel=2 note=57 velocity=0 time=0
EXTRACT: note_on channel=2 note=61 velocity=0 time=0
EXTRACT: note_on channel=2 note=64 velocity=0 time=0
EXTRACT: note_on channel=2 note=66 velocity=0 time=0
EXTRACT: note_on channel=2 note=69 velocity=0 time=0
EXTRACT: note_on channel=2 note=47 velocity=119 time=0
EXTRACT: note_on channel=9 note=57 velocity=90 time=0.005263149999999999
EXTRACT: note_on channel=9 note=36 velocity=120 time=0
EXTRACT: note_on channel=1 note=35 velocity=118 time=0
EXTRACT: note_on channel=4 note=66 velocity=93 time=0
EXTRACT: note_on channel=4 note=62 velocity=95 time=0
EXTRACT: note_on channel=4 note=59 velocity=97 time=0
EXTRACT: note_on channel=4 note=54 velocity=115 time=0
EXTRACT: note_on channel=4 note=47 velocity=107 time=0
EXTRACT: note_on channel=7 note=66 velocity=75 time=0
EXTRACT: note_on channel=7 note=62 velocity=109 time=0
EXTRACT: note_on channel=7 note=59 velocity=95 time=0
EXTRACT: note_on channel=7 note=54 velocity=85 time=0
EXTRACT: note_on channel=7 note=47 velocity=90 time=0
EXTRACT: note_on channel=8 note=66 velocity=119 time=0
EXTRACT: note_on channel=3 note=61 velocity=0 time=0.005263149999999999
EXTRACT: note_on channel=3 note=61 velocity=0 time=0
EXTRACT: note_on channel=9 note=57 velocity=0 time=0.04736835
EXTRACT: note_on channel=9 note=36 velocity=0 time=0
EXTRACT: note_on channel=1 note=35 velocity=0 time=0.09999984999999999
EXTRACT: note_on channel=1 note=35 velocity=118 time=0.005263149999999999
EXTRACT: note_on channel=2 note=62 velocity=109 time=0.15263134999999997
EXTRACT: note_on channel=9 note=42 velocity=103 time=0.005263149999999999
EXTRACT: note_on channel=1 note=35 velocity=0 time=0
EXTRACT: note_on channel=4 note=66 velocity=0 time=0
EXTRACT: note_on channel=4 note=62 velocity=0 time=0
EXTRACT: note_on channel=4 note=59 velocity=0 time=0
EXTRACT: note_on channel=4 note=54 velocity=0 time=0
EXTRACT: note_on channel=4 note=47 velocity=0 time=0
EXTRACT: note_on channel=7 note=66 velocity=0 time=0
EXTRACT: note_on channel=7 note=62 velocity=0 time=0
EXTRACT: note_on channel=7 note=59 velocity=0 time=0
EXTRACT: note_on channel=7 note=54 velocity=0 time=0
EXTRACT: note_on channel=7 note=47 velocity=0 time=0
EXTRACT: note_on channel=3 note=62 velocity=103 time=0.005263149999999999
EXTRACT: note_on channel=9 note=42 velocity=0 time=0.04736835
EXTRACT: note_on channel=2 note=66 velocity=113 time=0.09999984999999999
EXTRACT: note_on channel=1 note=42 velocity=124 time=0.005263149999999999
EXTRACT: note_on channel=4 note=66 velocity=90 time=0
EXTRACT: note_on channel=4 note=62 velocity=98 time=0
EXTRACT: note_on channel=4 note=59 velocity=115 time=0
EXTRACT: note_on channel=4 note=54 velocity=90 time=0
EXTRACT: note_on channel=4 note=47 velocity=106 time=0
EXTRACT: note_on channel=7 note=66 velocity=98 time=0
EXTRACT: note_on channel=7 note=62 velocity=88 time=0
EXTRACT: note_on channel=7 note=59 velocity=85 time=0
EXTRACT: note_on channel=7 note=54 velocity=81 time=0
EXTRACT: note_on channel=7 note=47 velocity=104 time=0
EXTRACT: note_on channel=9 note=42 velocity=105 time=0.1578945
EXTRACT: note_on channel=9 note=40 velocity=127 time=0
EXTRACT: note_on channel=9 note=69 velocity=62 time=0
EXTRACT: note_on channel=1 note=42 velocity=0 time=0
EXTRACT: note_on channel=4 note=66 velocity=0 time=0
EXTRACT: note_on channel=4 note=62 velocity=0 time=0
EXTRACT: note_on channel=4 note=59 velocity=0 time=0
EXTRACT: note_on channel=4 note=54 velocity=0 time=0
EXTRACT: note_on channel=4 note=47 velocity=0 time=0
EXTRACT: note_on channel=7 note=66 velocity=0 time=0
EXTRACT: note_on channel=7 note=62 velocity=0 time=0
EXTRACT: note_on channel=7 note=59 velocity=0 time=0
EXTRACT: note_on channel=7 note=54 velocity=0 time=0
EXTRACT: note_on channel=7 note=47 velocity=0 time=0
EXTRACT: note_on channel=8 note=66 velocity=0 time=0
EXTRACT: note_on channel=3 note=62 velocity=0 time=0.005263149999999999
EXTRACT: note_on channel=9 note=42 velocity=0 time=0.04736835
EXTRACT: note_on channel=9 note=40 velocity=0 time=0
EXTRACT: note_on channel=9 note=69 velocity=0 time=0
EXTRACT: note_on channel=2 note=62 velocity=122 time=0.09999984999999999
EXTRACT: note_on channel=9 note=69 velocity=70 time=0.005263149999999999
EXTRACT: note_on channel=1 note=42 velocity=121 time=0
EXTRACT: note_on channel=4 note=66 velocity=77 time=0
EXTRACT: note_on channel=4 note=62 velocity=66 time=0
EXTRACT: note_on channel=4 note=59 velocity=61 time=0
EXTRACT: note_on channel=4 note=54 velocity=71 time=0
EXTRACT: note_on channel=4 note=47 velocity=56 time=0
EXTRACT: note_on channel=3 note=62 velocity=117 time=0.005263149999999999
EXTRACT: note_on channel=9 note=69 velocity=0 time=0.04736835
EXTRACT: note_on channel=4 note=66 velocity=0 time=0.02631575
EXTRACT: note_on channel=4 note=62 velocity=0 time=0
EXTRACT: note_on channel=4 note=59 velocity=0 time=0
EXTRACT: note_on channel=4 note=54 velocity=0 time=0
EXTRACT: note_on channel=4 note=47 velocity=0 time=0
EXTRACT: note_on channel=1 note=42 velocity=0 time=0.07368409999999999
EXTRACT: note_on channel=9 note=42 velocity=107 time=0.005263149999999999
EXTRACT: note_on channel=1 note=38 velocity=112 time=0
EXTRACT: note_on channel=4 note=66 velocity=56 time=0
EXTRACT: note_on channel=4 note=62 velocity=57 time=0
EXTRACT: note_on channel=4 note=59 velocity=60 time=0
EXTRACT: note_on channel=8 note=66 velocity=122 time=0
EXTRACT: note_on channel=3 note=62 velocity=0 time=0.005263149999999999
EXTRACT: note_on channel=3 note=61 velocity=102 time=0
EXTRACT: note_on channel=9 note=42 velocity=0 time=0.04736835
EXTRACT: note_on channel=4 note=66 velocity=0 time=0.02631575
EXTRACT: note_on channel=4 note=62 velocity=0 time=0
EXTRACT: note_on channel=4 note=59 velocity=0 time=0
EXTRACT: note_on channel=2 note=59 velocity=103 time=0.07368409999999999
EXTRACT: note_on channel=9 note=69 velocity=62 time=0.005263149999999999
EXTRACT: note_on channel=1 note=38 velocity=0 time=0
EXTRACT: note_on channel=4 note=66 velocity=64 time=0
EXTRACT: note_on channel=4 note=62 velocity=58 time=0
EXTRACT: note_on channel=4 note=59 velocity=84 time=0
EXTRACT: note_on channel=4 note=54 velocity=59 time=0
EXTRACT: note_on channel=4 note=47 velocity=67 time=0
EXTRACT: note_on channel=8 note=66 velocity=0 time=0
EXTRACT: note_on channel=3 note=61 velocity=0 time=0.005263149999999999
EXTRACT: note_on channel=3 note=59 velocity=102 time=0
EXTRACT: note_on channel=9 note=69 velocity=0 time=0.04736835
EXTRACT: note_on channel=4 note=66 velocity=0 time=0.02631575
EXTRACT: note_on channel=4 note=62 velocity=0 time=0
EXTRACT: note_on channel=4 note=59 velocity=0 time=0
EXTRACT: note_on channel=4 note=54 velocity=0 time=0
EXTRACT: note_on channel=4 note=47 velocity=0 time=0
EXTRACT: note_on channel=9 note=36 velocity=120 time=0.07894725
EXTRACT: note_on channel=9 note=42 velocity=110 time=0
EXTRACT: note_on channel=1 note=35 velocity=109 time=0
EXTRACT: note_on channel=4 note=66 velocity=71 time=0
EXTRACT: note_on channel=4 note=62 velocity=46 time=0
EXTRACT: note_on channel=4 note=59 velocity=69 time=0
EXTRACT: note_on channel=8 note=64 velocity=117 time=0
EXTRACT: note_on channel=3 note=59 velocity=0 time=0.005263149999999999
EXTRACT: note_on channel=9 note=36 velocity=0 time=0.04736835
EXTRACT: note_on channel=9 note=42 velocity=0 time=0
EXTRACT: note_on channel=4 note=66 velocity=0 time=0.02631575
EXTRACT: note_on channel=4 note=62 velocity=0 time=0
EXTRACT: note_on channel=4 note=59 velocity=0 time=0
EXTRACT: note_on channel=2 note=62 velocity=119 time=0.07368409999999999
EXTRACT: note_on channel=9 note=69 velocity=73 time=0.005263149999999999
EXTRACT: note_on channel=8 note=64 velocity=0 time=0
EXTRACT: note_on channel=3 note=62 velocity=108 time=0.005263149999999999
EXTRACT: note_on channel=9 note=69 velocity=0 time=0.04736835
EXTRACT: note_on channel=9 note=42 velocity=90 time=0.105263
EXTRACT: note_on channel=9 note=69 velocity=78 time=0
EXTRACT: note_on channel=1 note=35 velocity=0 time=0
EXTRACT: note_on channel=4 note=66 velocity=100 time=0
EXTRACT: note_on channel=4 note=62 velocity=107 time=0
EXTRACT: note_on channel=4 note=59 velocity=114 time=0
EXTRACT: note_on channel=4 note=54 velocity=93 time=0
EXTRACT: note_on channel=4 note=47 velocity=103 time=0
EXTRACT: note_on channel=7 note=66 velocity=93 time=0
EXTRACT: note_on channel=7 note=62 velocity=92 time=0
EXTRACT: note_on channel=7 note=59 velocity=75 time=0
EXTRACT: note_on channel=7 note=54 velocity=83 time=0
EXTRACT: note_on channel=7 note=47 velocity=83 time=0
EXTRACT: note_on channel=8 note=66 velocity=127 time=0
EXTRACT: note_on channel=3 note=62 velocity=0 time=0.005263149999999999
EXTRACT: note_on channel=9 note=42 velocity=0 time=0.04736835
EXTRACT: note_on channel=9 note=69 velocity=0 time=0
EXTRACT: note_on channel=2 note=66 velocity=108 time=0.09999984999999999
EXTRACT: note_on channel=4 note=66 velocity=0 time=0.005263149999999999
EXTRACT: note_on channel=4 note=62 velocity=0 time=0
EXTRACT: note_on channel=4 note=59 velocity=0 time=0
EXTRACT: note_on channel=4 note=54 velocity=0 time=0
EXTRACT: note_on channel=4 note=47 velocity=0 time=0
EXTRACT: note_on channel=7 note=66 velocity=0 time=0
EXTRACT: note_on channel=7 note=62 velocity=0 time=0
EXTRACT: note_on channel=7 note=59 velocity=0 time=0
EXTRACT: note_on channel=7 note=54 velocity=0 time=0
EXTRACT: note_on channel=7 note=47 velocity=0 time=0
EXTRACT: note_on channel=8 note=66 velocity=0 time=0
EXTRACT: note_on channel=3 note=62 velocity=123 time=0.005263149999999999
EXTRACT: note_on channel=2 note=66 velocity=108 time=0.14736819999999998
EXTRACT: note_on channel=9 note=40 velocity=127 time=0.005263149999999999
EXTRACT: note_on channel=9 note=42 velocity=102 time=0
EXTRACT: note_on channel=9 note=69 velocity=66 time=0
EXTRACT: note_on channel=8 note=62 velocity=122 time=0
EXTRACT: note_on channel=9 note=40 velocity=0 time=0.0526315
EXTRACT: note_on channel=9 note=42 velocity=0 time=0
EXTRACT: note_on channel=9 note=69 velocity=0 time=0
EXTRACT: note_on channel=4 note=66 velocity=59 time=0.105263
EXTRACT: note_on channel=4 note=62 velocity=67 time=0
EXTRACT: note_on channel=4 note=59 velocity=48 time=0
EXTRACT: note_on channel=8 note=62 velocity=0 time=0
EXTRACT: note_on channel=4 note=66 velocity=0 time=0.07894725
EXTRACT: note_on channel=4 note=62 velocity=0 time=0
EXTRACT: note_on channel=4 note=59 velocity=0 time=0
EXTRACT: note_on channel=2 note=62 velocity=103 time=0.07368409999999999
EXTRACT: note_on channel=9 note=42 velocity=104 time=0.005263149999999999
EXTRACT: note_on channel=1 note=30 velocity=125 time=0
EXTRACT: note_on channel=4 note=66 velocity=55 time=0
EXTRACT: note_on channel=4 note=62 velocity=70 time=0
EXTRACT: note_on channel=4 note=59 velocity=78 time=0
EXTRACT: note_on channel=4 note=54 velocity=58 time=0
EXTRACT: note_on channel=4 note=47 velocity=67 time=0
EXTRACT: note_on channel=8 note=61 velocity=123 time=0
EXTRACT: note_on channel=9 note=42 velocity=0 time=0.0526315
EXTRACT: note_on channel=4 note=66 velocity=0 time=0.02631575
EXTRACT: note_on channel=4 note=62 velocity=0 time=0
EXTRACT: note_on channel=4 note=59 velocity=0 time=0
EXTRACT: note_on channel=4 note=54 velocity=0 time=0
EXTRACT: note_on channel=4 note=47 velocity=0 time=0
EXTRACT: note_on channel=1 note=30 velocity=0 time=0.07894725
EXTRACT: note_on channel=8 note=61 velocity=0 time=0
EXTRACT: note_on channel=2 note=47 velocity=0 time=0.15263134999999997
EXTRACT: note_on channel=2 note=62 velocity=0 time=0
EXTRACT: note_on channel=2 note=66 velocity=0 time=0
EXTRACT: note_on channel=2 note=62 velocity=0 time=0
EXTRACT: note_on channel=2 note=59 velocity=0 time=0
EXTRACT: note_on channel=2 note=62 velocity=0 time=0
EXTRACT: note_on channel=2 note=66 velocity=0 time=0
EXTRACT: note_on channel=2 note=66 velocity=0 time=0
EXTRACT: note_on channel=2 note=47 velocity=107 time=0
EXTRACT: note_on channel=9 note=42 velocity=94 time=0.005263149999999999
EXTRACT: note_on channel=9 note=36 velocity=120 time=0
EXTRACT: note_on channel=1 note=35 velocity=108 time=0
EXTRACT: note_on channel=4 note=66 velocity=98 time=0
EXTRACT: note_on channel=4 note=62 velocity=107 time=0
EXTRACT: note_on channel=4 note=59 velocity=107 time=0
EXTRACT: note_on channel=4 note=54 velocity=100 time=0
EXTRACT: note_on channel=4 note=47 velocity=117 time=0
EXTRACT: note_on channel=7 note=66 velocity=80 time=0
EXTRACT: note_on channel=7 note=62 velocity=87 time=0
EXTRACT: note_on channel=7 note=59 velocity=76 time=0
EXTRACT: note_on channel=7 note=54 velocity=105 time=0
EXTRACT: note_on channel=7 note=47 velocity=96 time=0
EXTRACT: note_on channel=8 note=61 velocity=122 time=0
EXTRACT: note_on channel=3 note=62 velocity=0 time=0.005263149999999999
EXTRACT: note_on channel=9 note=42 velocity=0 time=0.04736835
EXTRACT: note_on channel=9 note=36 velocity=0 time=0
EXTRACT: note_on channel=1 note=35 velocity=0 time=0.18421025
EXTRACT: note_on channel=2 note=62 velocity=0 time=0.07368409999999999
EXTRACT: note_on channel=2 note=62 velocity=109 time=0
EXTRACT: note_on channel=9 note=42 velocity=94 time=0.005263149999999999
EXTRACT: note_on channel=4 note=66 velocity=0 time=0
EXTRACT: note_on channel=4 note=62 velocity=0 time=0
EXTRACT: note_on channel=4 note=59 velocity=0 time=0
EXTRACT: note_on channel=4 note=54 velocity=0 time=0
EXTRACT: note_on channel=4 note=47 velocity=0 time=0
EXTRACT: note_on channel=7 note=66 velocity=0 time=0
EXTRACT: note_on channel=7 note=62 velocity=0 time=0
EXTRACT: note_on channel=7 note=59 velocity=0 time=0
EXTRACT: note_on channel=7 note=54 velocity=0 time=0
EXTRACT: note_on channel=7 note=47 velocity=0 time=0
EXTRACT: note_on channel=3 note=62 velocity=104 time=0.005263149999999999
EXTRACT: note_on channel=9 note=42 velocity=0 time=0.04736835
EXTRACT: note_on channel=2 note=66 velocity=121 time=0.09999984999999999
EXTRACT: note_on channel=1 note=35 velocity=120 time=0.005263149999999999
EXTRACT: note_on channel=4 note=66 velocity=108 time=0
EXTRACT: note_on channel=4 note=62 velocity=88 time=0
EXTRACT: note_on channel=4 note=59 velocity=114 time=0
EXTRACT: note_on channel=4 note=54 velocity=111 time=0
EXTRACT: note_on channel=4 note=47 velocity=98 time=0
EXTRACT: note_on channel=7 note=66 velocity=97 time=0
EXTRACT: note_on channel=7 note=62 velocity=76 time=0
EXTRACT: note_on channel=7 note=59 velocity=107 time=0
EXTRACT: note_on channel=7 note=54 velocity=96 time=0
EXTRACT: note_on channel=7 note=47 velocity=101 time=0
EXTRACT: note_on channel=9 note=42 velocity=91 time=0.1578945
EXTRACT: note_on channel=9 note=40 velocity=127 time=0
EXTRACT: note_on channel=9 note=69 velocity=62 time=0
EXTRACT: note_on channel=1 note=35 velocity=0 time=0
EXTRACT: note_on channel=4 note=66 velocity=0 time=0
EXTRACT: note_on channel=4 note=62 velocity=0 time=0
EXTRACT: note_on channel=4 note=59 velocity=0 time=0
EXTRACT: note_on channel=4 note=54 velocity=0 time=0
EXTRACT: note_on channel=4 note=47 velocity=0 time=0
EXTRACT: note_on channel=7 note=66 velocity=0 time=0
EXTRACT: note_on channel=7 note=62 velocity=0 time=0
EXTRACT: note_on channel=7 note=59 velocity=0 time=0
EXTRACT: note_on channel=7 note=54 velocity=0 time=0
EXTRACT: note_on channel=7 note=47 velocity=0 time=0
EXTRACT: note_on channel=3 note=62 velocity=0 time=0.005263149999999999
EXTRACT: note_on channel=9 note=42 velocity=0 time=0.04736835
EXTRACT: note_on channel=9 note=40 velocity=0 time=0
EXTRACT: note_on channel=9 note=69 velocity=0 time=0
EXTRACT: note_on channel=2 note=62 velocity=122 time=0.09999984999999999
EXTRACT: note_on channel=9 note=69 velocity=70 time=0.005263149999999999
EXTRACT: note_on channel=4 note=66 velocity=77 time=0
EXTRACT: note_on channel=4 note=62 velocity=86 time=0
EXTRACT: note_on channel=4 note=59 velocity=66 time=0
EXTRACT: note_on channel=4 note=54 velocity=71 time=0
EXTRACT: note_on channel=4 note=47 velocity=91 time=0
EXTRACT: note_on channel=3 note=62 velocity=110 time=0.005263149999999999
EXTRACT: note_on channel=9 note=69 velocity=0 time=0.04736835
EXTRACT: note_on channel=4 note=66 velocity=0 time=0.02631575
EXTRACT: note_on channel=4 note=62 velocity=0 time=0
EXTRACT: note_on channel=4 note=59 velocity=0 time=0
EXTRACT: note_on channel=4 note=54 velocity=0 time=0
EXTRACT: note_on channel=4 note=47 velocity=0 time=0
EXTRACT: note_on channel=9 note=42 velocity=90 time=0.07894725
EXTRACT: note_on channel=4 note=66 velocity=55 time=0
EXTRACT: note_on channel=4 note=62 velocity=60 time=0
EXTRACT: note_on channel=4 note=59 velocity=48 time=0
EXTRACT: note_on channel=3 note=62 velocity=0 time=0.005263149999999999
EXTRACT: note_on channel=3 note=61 velocity=106 time=0
EXTRACT: note_on channel=9 note=42 velocity=0 time=0.04736835
EXTRACT: note_on channel=4 note=66 velocity=0 time=0.02631575
EXTRACT: note_on channel=4 note=62 velocity=0 time=0
EXTRACT: note_on channel=4 note=59 velocity=0 time=0
EXTRACT: note_on channel=2 note=59 velocity=112 time=0.07368409999999999
EXTRACT: note_on channel=9 note=69 velocity=62 time=0.005263149999999999
EXTRACT: note_on channel=4 note=66 velocity=86 time=0
EXTRACT: note_on channel=4 note=62 velocity=51 time=0
EXTRACT: note_on channel=4 note=59 velocity=77 time=0
EXTRACT: note_on channel=4 note=54 velocity=59 time=0
EXTRACT: note_on channel=4 note=47 velocity=62 time=0
EXTRACT: note_on channel=3 note=61 velocity=0 time=0.005263149999999999
EXTRACT: note_on channel=3 note=59 velocity=112 time=0
EXTRACT: note_on channel=9 note=69 velocity=0 time=0.04736835
EXTRACT: note_on channel=4 note=66 velocity=0 time=0.02631575
EXTRACT: note_on channel=4 note=62 velocity=0 time=0
EXTRACT: note_on channel=4 note=59 velocity=0 time=0
EXTRACT: note_on channel=4 note=54 velocity=0 time=0
EXTRACT: note_on channel=4 note=47 velocity=0 time=0
EXTRACT: note_on channel=9 note=36 velocity=120 time=0.07894725
EXTRACT: note_on channel=9 note=42 velocity=106 time=0
EXTRACT: note_on channel=4 note=66 velocity=47 time=0
EXTRACT: note_on channel=4 note=62 velocity=60 time=0
EXTRACT: note_on channel=4 note=59 velocity=68 time=0
EXTRACT: note_on channel=8 note=61 velocity=0 time=0
EXTRACT: note_on channel=8 note=59 velocity=115 time=0
EXTRACT: note_on channel=3 note=59 velocity=0 time=0.005263149999999999
EXTRACT: note_on channel=9 note=36 velocity=0 time=0.04736835
EXTRACT: note_on channel=9 note=42 velocity=0 time=0
EXTRACT: note_on channel=4 note=66 velocity=0 time=0.02631575
EXTRACT: note_on channel=4 note=62 velocity=0 time=0
EXTRACT: note_on channel=4 note=59 velocity=0 time=0
EXTRACT: note_on channel=2 note=62 velocity=113 time=0.07368409999999999
EXTRACT: note_on channel=9 note=69 velocity=73 time=0.005263149999999999
EXTRACT: note_on channel=3 note=62 velocity=126 time=0.005263149999999999
EXTRACT: note_on channel=9 note=69 velocity=0 time=0.04736835
EXTRACT: note_on channel=9 note=42 velocity=91 time=0.105263
EXTRACT: note_on channel=9 note=69 velocity=78 time=0
EXTRACT: note_on channel=1 note=35 velocity=114 time=0
EXTRACT: note_on channel=4 note=66 velocity=96 time=0
EXTRACT: note_on channel=4 note=62 velocity=87 time=0
EXTRACT: note_on channel=4 note=59 velocity=93 time=0
EXTRACT: note_on channel=4 note=54 velocity=99 time=0
EXTRACT: note_on channel=4 note=47 velocity=106 time=0
EXTRACT: note_on channel=7 note=66 velocity=105 time=0
EXTRACT: note_on channel=7 note=62 velocity=91 time=0
EXTRACT: note_on channel=7 note=59 velocity=85 time=0
EXTRACT: note_on channel=7 note=54 velocity=91 time=0
EXTRACT: note_on channel=7 note=47 velocity=78 time=0
EXTRACT: note_on channel=8 note=59 velocity=0 time=0
EXTRACT: note_on channel=8 note=61 velocity=126 time=0
EXTRACT: note_on channel=3 note=62 velocity=0 time=0.005263149999999999
EXTRACT: note_on channel=9 note=42 velocity=0 time=0.04736835
EXTRACT: note_on channel=9 note=69 velocity=0 time=0
EXTRACT: note_on channel=2 note=66 velocity=115 time=0.09999984999999999
EXTRACT: note_on channel=1 note=35 velocity=0 time=0.005263149999999999
EXTRACT: note_on channel=4 note=66 velocity=0 time=0
EXTRACT: note_on channel=4 note=62 velocity=0 time=0
EXTRACT: note_on channel=4 note=59 velocity=0 time=0
EXTRACT: note_on channel=4 note=54 velocity=0 time=0
EXTRACT: note_on channel=4 note=47 velocity=0 time=0
EXTRACT: note_on channel=7 note=66 velocity=0 time=0
EXTRACT: note_on channel=7 note=62 velocity=0 time=0
EXTRACT: note_on channel=7 note=59 velocity=0 time=0
EXTRACT: note_on channel=7 note=54 velocity=0 time=0
EXTRACT: note_on channel=7 note=47 velocity=0 time=0
EXTRACT: note_on channel=3 note=62 velocity=104 time=0.005263149999999999
EXTRACT: note_on channel=2 note=66 velocity=124 time=0.14736819999999998
EXTRACT: note_on channel=9 note=40 velocity=127 time=0.005263149999999999
EXTRACT: note_on channel=9 note=42 velocity=107 time=0
EXTRACT: note_on channel=9 note=69 velocity=66 time=0
EXTRACT: note_on channel=8 note=61 velocity=0 time=0
EXTRACT: note_on channel=8 note=62 velocity=119 time=0
EXTRACT: note_on channel=9 note=40 velocity=0 time=0.0526315
EXTRACT: note_on channel=9 note=42 velocity=0 time=0
EXTRACT: note_on channel=9 note=69 velocity=0 time=0
EXTRACT: note_on channel=4 note=66 velocity=42 time=0.105263
EXTRACT: note_on channel=4 note=62 velocity=67 time=0
EXTRACT: note_on channel=4 note=59 velocity=51 time=0
EXTRACT: note_on channel=4 note=66 velocity=0 time=0.07894725
EXTRACT: note_on channel=4 note=62 velocity=0 time=0
EXTRACT: note_on channel=4 note=59 velocity=0 time=0
EXTRACT: note_on channel=2 note=62 velocity=109 time=0.07368409999999999
EXTRACT: note_on channel=9 note=36 velocity=90 time=0.005263149999999999
EXTRACT: note_on channel=9 note=42 velocity=97 time=0
EXTRACT: note_on channel=1 note=38 velocity=118 time=0
EXTRACT: note_on channel=4 note=66 velocity=72 time=0
EXTRACT: note_on channel=4 note=62 velocity=54 time=0
EXTRACT: note_on channel=4 note=59 velocity=84 time=0
EXTRACT: note_on channel=4 note=54 velocity=54 time=0
EXTRACT: note_on channel=4 note=47 velocity=69 time=0
EXTRACT: note_on channel=8 note=62 velocity=0 time=0
EXTRACT: note_on channel=8 note=66 velocity=116 time=0
EXTRACT: note_on channel=9 note=36 velocity=0 time=0.0526315
EXTRACT: note_on channel=9 note=42 velocity=0 time=0
EXTRACT: note_on channel=4 note=66 velocity=0 time=0.02631575
EXTRACT: note_on channel=4 note=62 velocity=0 time=0
EXTRACT: note_on channel=4 note=59 velocity=0 time=0
EXTRACT: note_on channel=4 note=54 velocity=0 time=0
EXTRACT: note_on channel=4 note=47 velocity=0 time=0
EXTRACT: note_on channel=9 note=40 velocity=127 time=0.07894725
EXTRACT: note_on channel=1 note=38 velocity=0 time=0
EXTRACT: note_on channel=9 note=40 velocity=0 time=0.0526315
EXTRACT: note_on channel=2 note=47 velocity=0 time=0.09999984999999999
EXTRACT: note_on channel=2 note=62 velocity=0 time=0
EXTRACT: note_on channel=2 note=66 velocity=0 time=0
EXTRACT: note_on channel=2 note=62 velocity=0 time=0
EXTRACT: note_on channel=2 note=59 velocity=0 time=0
EXTRACT: note_on channel=2 note=62 velocity=0 time=0
EXTRACT: note_on channel=2 note=66 velocity=0 time=0
EXTRACT: note_on channel=2 note=66 velocity=0 time=0
EXTRACT: note_on channel=2 note=62 velocity=0 time=0
EXTRACT: note_on channel=2 note=40 velocity=104 time=0
EXTRACT: note_on channel=9 note=42 velocity=101 time=0.005263149999999999
EXTRACT: note_on channel=9 note=36 velocity=120 time=0
EXTRACT: note_on channel=1 note=40 velocity=111 time=0
EXTRACT: note_on channel=4 note=67 velocity=117 time=0
EXTRACT: note_on channel=4 note=62 velocity=116 time=0
EXTRACT: note_on channel=4 note=59 velocity=98 time=0
EXTRACT: note_on channel=4 note=55 velocity=85 time=0
EXTRACT: note_on channel=4 note=47 velocity=87 time=0
EXTRACT: note_on channel=7 note=67 velocity=74 time=0
EXTRACT: note_on channel=7 note=62 velocity=95 time=0
EXTRACT: note_on channel=7 note=59 velocity=110 time=0
EXTRACT: note_on channel=7 note=55 velocity=96 time=0
EXTRACT: note_on channel=7 note=47 velocity=104 time=0
EXTRACT: note_on channel=8 note=66 velocity=0 time=0
EXTRACT: note_on channel=8 note=62 velocity=117 time=0
EXTRACT: note_on channel=3 note=62 velocity=0 time=0.005263149999999999
EXTRACT: note_on channel=9 note=42 velocity=0 time=0.04736835
EXTRACT: note_on channel=9 note=36 velocity=0 time=0
EXTRACT: note_on channel=1 note=40 velocity=0 time=0.07894725
EXTRACT: note_on channel=2 note=62 velocity=123 time=0.17894709999999997
EXTRACT: note_on channel=9 note=42 velocity=107 time=0.005263149999999999
EXTRACT: note_on channel=1 note=40 velocity=113 time=0
EXTRACT: note_on channel=4 note=67 velocity=0 time=0
EXTRACT: note_on channel=4 note=62 velocity=0 time=0
EXTRACT: note_on channel=4 note=59 velocity=0 time=0
EXTRACT: note_on channel=4 note=55 velocity=0 time=0
EXTRACT: note_on channel=4 note=47 velocity=0 time=0
EXTRACT: note_on channel=7 note=67 velocity=0 time=0
EXTRACT: note_on channel=7 note=62 velocity=0 time=0
EXTRACT: note_on channel=7 note=59 velocity=0 time=0
EXTRACT: note_on channel=7 note=55 velocity=0 time=0
EXTRACT: note_on channel=7 note=47 velocity=0 time=0
EXTRACT: note_on channel=3 note=62 velocity=116 time=0.005263149999999999
EXTRACT: note_on channel=9 note=42 velocity=0 time=0.04736835
EXTRACT: note_on channel=1 note=40 velocity=0 time=0.09999984999999999
EXTRACT: note_on channel=2 note=67 velocity=104 time=0
EXTRACT: note_on channel=1 note=35 velocity=125 time=0.005263149999999999
EXTRACT: note_on channel=4 note=67 velocity=98 time=0
EXTRACT: note_on channel=4 note=62 velocity=94 time=0
EXTRACT: note_on channel=4 note=59 velocity=115 time=0
EXTRACT: note_on channel=4 note=55 velocity=98 time=0
EXTRACT: note_on channel=4 note=47 velocity=88 time=0
EXTRACT: note_on channel=7 note=67 velocity=91 time=0
EXTRACT: note_on channel=7 note=62 velocity=95 time=0
EXTRACT: note_on channel=7 note=59 velocity=109 time=0
EXTRACT: note_on channel=7 note=55 velocity=101 time=0
EXTRACT: note_on channel=7 note=47 velocity=112 time=0
EXTRACT: note_on channel=9 note=42 velocity=96 time=0.1578945
EXTRACT: note_on channel=9 note=40 velocity=127 time=0
EXTRACT: note_on channel=9 note=69 velocity=62 time=0
EXTRACT: note_on channel=1 note=35 velocity=0 time=0
EXTRACT: note_on channel=4 note=67 velocity=0 time=0
EXTRACT: note_on channel=4 note=62 velocity=0 time=0
EXTRACT: note_on channel=4 note=59 velocity=0 time=0
EXTRACT: note_on channel=4 note=55 velocity=0 time=0
EXTRACT: note_on channel=4 note=47 velocity=0 time=0
EXTRACT: note_on channel=7 note=67 velocity=0 time=0
EXTRACT: note_on channel=7 note=62 velocity=0 time=0
EXTRACT: note_on channel=7 note=59 velocity=0 time=0
EXTRACT: note_on channel=7 note=55 velocity=0 time=0
EXTRACT: note_on channel=7 note=47 velocity=0 time=0
EXTRACT: note_on channel=8 note=62 velocity=0 time=0
EXTRACT: note_on channel=8 note=69 velocity=118 time=0
EXTRACT: note_on channel=3 note=62 velocity=0 time=0.005263149999999999
EXTRACT: note_on channel=9 note=42 velocity=0 time=0.04736835
EXTRACT: note_on channel=9 note=40 velocity=0 time=0
EXTRACT: note_on channel=9 note=69 velocity=0 time=0
EXTRACT: note_on channel=2 note=62 velocity=123 time=0.09999984999999999
EXTRACT: note_on channel=9 note=69 velocity=70 time=0.005263149999999999
EXTRACT: note_on channel=1 note=35 velocity=126 time=0
EXTRACT: note_on channel=4 note=67 velocity=72 time=0
EXTRACT: note_on channel=4 note=62 velocity=72 time=0
EXTRACT: note_on channel=4 note=59 velocity=78 time=0
EXTRACT: note_on channel=4 note=55 velocity=81 time=0
EXTRACT: note_on channel=4 note=47 velocity=64 time=0
EXTRACT: note_on channel=8 note=69 velocity=0 time=0
EXTRACT: note_on channel=3 note=62 velocity=105 time=0.005263149999999999
EXTRACT: note_on channel=9 note=69 velocity=0 time=0.04736835
EXTRACT: note_on channel=4 note=67 velocity=0 time=0.02631575
EXTRACT: note_on channel=4 note=62 velocity=0 time=0
EXTRACT: note_on channel=4 note=59 velocity=0 time=0
EXTRACT: note_on channel=4 note=55 velocity=0 time=0
EXTRACT: note_on channel=4 note=47 velocity=0 time=0
EXTRACT: note_on channel=1 note=35 velocity=0 time=0.07368409999999999
EXTRACT: note_on channel=9 note=42 velocity=91 time=0.005263149999999999
EXTRACT: note_on channel=1 note=31 velocity=119 time=0
EXTRACT: note_on channel=4 note=67 velocity=51 time=0
EXTRACT: note_on channel=4 note=62 velocity=62 time=0
EXTRACT: note_on channel=4 note=59 velocity=71 time=0
EXTRACT: note_on channel=8 note=69 velocity=117 time=0
EXTRACT: note_on channel=3 note=62 velocity=0 time=0.005263149999999999
EXTRACT: note_on channel=3 note=61 velocity=122 time=0
EXTRACT: note_on channel=9 note=42 velocity=0 time=0.04736835
EXTRACT: note_on channel=4 note=67 velocity=0 time=0.02631575
EXTRACT: note_on channel=4 note=62 velocity=0 time=0
EXTRACT: note_on channel=4 note=59 velocity=0 time=0
EXTRACT: note_on channel=2 note=59 velocity=104 time=0.07368409999999999
EXTRACT: note_on channel=9 note=69 velocity=62 time=0.005263149999999999
EXTRACT: note_on channel=1 note=31 velocity=0 time=0
EXTRACT: note_on channel=4 note=67 velocity=64 time=0
EXTRACT: note_on channel=4 note=62 velocity=90 time=0
EXTRACT: note_on channel=4 note=59 velocity=65 time=0
EXTRACT: note_on channel=4 note=55 velocity=62 time=0
EXTRACT: note_on channel=4 note=47 velocity=77 time=0
EXTRACT: note_on channel=8 note=69 velocity=0 time=0
EXTRACT: note_on channel=3 note=61 velocity=0 time=0.005263149999999999
EXTRACT: note_on channel=3 note=59 velocity=106 time=0
EXTRACT: note_on channel=9 note=69 velocity=0 time=0.04736835
EXTRACT: note_on channel=4 note=67 velocity=0 time=0.02631575
EXTRACT: note_on channel=4 note=62 velocity=0 time=0
EXTRACT: note_on channel=4 note=59 velocity=0 time=0
EXTRACT: note_on channel=4 note=55 velocity=0 time=0
EXTRACT: note_on channel=4 note=47 velocity=0 time=0
EXTRACT: note_on channel=9 note=36 velocity=120 time=0.07894725
EXTRACT: note_on channel=9 note=42 velocity=100 time=0
EXTRACT: note_on channel=1 note=28 velocity=112 time=0
EXTRACT: note_on channel=4 note=67 velocity=39 time=0
EXTRACT: note_on channel=4 note=62 velocity=64 time=0
EXTRACT: note_on channel=4 note=59 velocity=51 time=0
EXTRACT: note_on channel=8 note=64 velocity=120 time=0
EXTRACT: note_on channel=3 note=59 velocity=0 time=0.005263149999999999
EXTRACT: note_on channel=9 note=36 velocity=0 time=0.04736835
EXTRACT: note_on channel=9 note=42 velocity=0 time=0
EXTRACT: note_on channel=4 note=67 velocity=0 time=0.02631575
EXTRACT: note_on channel=4 note=62 velocity=0 time=0
EXTRACT: note_on channel=4 note=59 velocity=0 time=0
EXTRACT: note_on channel=2 note=62 velocity=103 time=0.07368409999999999
EXTRACT: note_on channel=9 note=69 velocity=73 time=0.005263149999999999
EXTRACT: note_on channel=8 note=64 velocity=0 time=0
EXTRACT: note_on channel=3 note=62 velocity=123 time=0.005263149999999999
EXTRACT: note_on channel=9 note=69 velocity=0 time=0.04736835
EXTRACT: note_on channel=9 note=42 velocity=102 time=0.105263
EXTRACT: note_on channel=9 note=69 velocity=78 time=0
EXTRACT: note_on channel=1 note=28 velocity=0 time=0
EXTRACT: note_on channel=4 note=67 velocity=108 time=0
EXTRACT: note_on channel=4 note=62 velocity=91 time=0
EXTRACT: note_on channel=4 note=59 velocity=90 time=0
EXTRACT: note_on channel=4 note=55 velocity=115 time=0
EXTRACT: note_on channel=4 note=47 velocity=85 time=0
EXTRACT: note_on channel=7 note=67 velocity=89 time=0
EXTRACT: note_on channel=7 note=62 velocity=99 time=0
EXTRACT: note_on channel=7 note=59 velocity=110 time=0
EXTRACT: note_on channel=7 note=55 velocity=77 time=0
EXTRACT: note_on channel=7 note=47 velocity=78 time=0
EXTRACT: note_on channel=8 note=64 velocity=124 time=0
EXTRACT: note_on channel=3 note=62 velocity=0 time=0.005263149999999999
EXTRACT: note_on channel=9 note=42 velocity=0 time=0.04736835
EXTRACT: note_on channel=9 note=69 velocity=0 time=0
EXTRACT: note_on channel=2 note=67 velocity=122 time=0.09999984999999999
EXTRACT: note_on channel=4 note=67 velocity=0 time=0.005263149999999999
EXTRACT: note_on channel=4 note=62 velocity=0 time=0
EXTRACT: note_on channel=4 note=59 velocity=0 time=0
EXTRACT: note_on channel=4 note=55 velocity=0 time=0
EXTRACT: note_on channel=4 note=47 velocity=0 time=0
EXTRACT: note_on channel=7 note=67 velocity=0 time=0
EXTRACT: note_on channel=7 note=62 velocity=0 time=0
EXTRACT: note_on channel=7 note=59 velocity=0 time=0
EXTRACT: note_on channel=7 note=55 velocity=0 time=0
EXTRACT: note_on channel=7 note=47 velocity=0 time=0
EXTRACT: note_on channel=8 note=64 velocity=0 time=0
EXTRACT: note_on channel=3 note=62 velocity=109 time=0.005263149999999999
EXTRACT: note_on channel=2 note=67 velocity=111 time=0.14736819999999998
EXTRACT: note_on channel=9 note=40 velocity=127 time=0.005263149999999999
EXTRACT: note_on channel=9 note=42 velocity=100 time=0
EXTRACT: note_on channel=9 note=69 velocity=66 time=0
EXTRACT: note_on channel=8 note=62 velocity=124 time=0
EXTRACT: note_on channel=9 note=40 velocity=0 time=0.0526315
EXTRACT: note_on channel=9 note=42 velocity=0 time=0
EXTRACT: note_on channel=9 note=69 velocity=0 time=0
EXTRACT: note_on channel=4 note=67 velocity=59 time=0.105263
EXTRACT: note_on channel=4 note=62 velocity=44 time=0
EXTRACT: note_on channel=4 note=59 velocity=60 time=0
EXTRACT: note_on channel=8 note=62 velocity=0 time=0
EXTRACT: note_on channel=4 note=67 velocity=0 time=0.07894725
EXTRACT: note_on channel=4 note=62 velocity=0 time=0
EXTRACT: note_on channel=4 note=59 velocity=0 time=0
EXTRACT: note_on channel=2 note=62 velocity=112 time=0.07368409999999999
EXTRACT: note_on channel=9 note=42 velocity=99 time=0.005263149999999999
EXTRACT: note_on channel=1 note=28 velocity=122 time=0
EXTRACT: note_on channel=4 note=67 velocity=65 time=0
EXTRACT: note_on channel=4 note=62 velocity=82 time=0
EXTRACT: note_on channel=4 note=59 velocity=54 time=0
EXTRACT: note_on channel=4 note=55 velocity=79 time=0
EXTRACT: note_on channel=4 note=47 velocity=78 time=0
EXTRACT: note_on channel=8 note=66 velocity=126 time=0
EXTRACT: note_on channel=9 note=42 velocity=0 time=0.0526315
EXTRACT: note_on channel=4 note=67 velocity=0 time=0.02631575
EXTRACT: note_on channel=4 note=62 velocity=0 time=0
EXTRACT: note_on channel=4 note=59 velocity=0 time=0
EXTRACT: note_on channel=4 note=55 velocity=0 time=0
EXTRACT: note_on channel=4 note=47 velocity=0 time=0
EXTRACT: note_on channel=1 note=28 velocity=0 time=0.07894725
EXTRACT: note_on channel=8 note=66 velocity=0 time=0
EXTRACT: note_on channel=2 note=40 velocity=0 time=0.15263134999999997
EXTRACT: note_on channel=2 note=62 velocity=0 time=0
EXTRACT: note_on channel=2 note=67 velocity=0 time=0
EXTRACT: note_on channel=2 note=62 velocity=0 time=0
EXTRACT: note_on channel=2 note=59 velocity=0 time=0
EXTRACT: note_on channel=2 note=62 velocity=0 time=0
EXTRACT: note_on channel=2 note=67 velocity=0 time=0
EXTRACT: note_on channel=2 note=67 velocity=0 time=0
EXTRACT: note_on channel=2 note=62 velocity=0 time=0
EXTRACT: note_on channel=2 note=57 velocity=114 time=0
EXTRACT: note_on channel=2 note=54 velocity=107 time=0
EXTRACT: note_on channel=9 note=42 velocity=95 time=0.005263149999999999
EXTRACT: note_on channel=9 note=36 velocity=120 time=0
EXTRACT: note_on channel=1 note=30 velocity=118 time=0
EXTRACT: note_on channel=4 note=64 velocity=91 time=0
EXTRACT: note_on channel=4 note=61 velocity=92 time=0
EXTRACT: note_on channel=4 note=57 velocity=86 time=0
EXTRACT: note_on channel=4 note=54 velocity=86 time=0
EXTRACT: note_on channel=7 note=64 velocity=96 time=0
EXTRACT: note_on channel=7 note=61 velocity=94 time=0
EXTRACT: note_on channel=7 note=57 velocity=99 time=0
EXTRACT: note_on channel=7 note=54 velocity=96 time=0
EXTRACT: note_on channel=8 note=66 velocity=121 time=0
EXTRACT: note_on channel=3 note=62 velocity=0 time=0.005263149999999999
EXTRACT: note_on channel=9 note=42 velocity=0 time=0.04736835
EXTRACT: note_on channel=9 note=36 velocity=0 time=0
EXTRACT: note_on channel=1 note=30 velocity=0 time=0.15263134999999997
EXTRACT: note_on channel=1 note=30 velocity=127 time=0.005263149999999999
EXTRACT: note_on channel=2 note=61 velocity=104 time=0.09999984999999999
EXTRACT: note_on channel=9 note=42 velocity=78 time=0.005263149999999999
EXTRACT: note_on channel=9 note=42 velocity=102 time=0
EXTRACT: note_on channel=4 note=64 velocity=0 time=0
EXTRACT: note_on channel=4 note=61 velocity=0 time=0
EXTRACT: note_on channel=4 note=57 velocity=0 time=0
EXTRACT: note_on channel=4 note=54 velocity=0 time=0
EXTRACT: note_on channel=7 note=64 velocity=0 time=0
EXTRACT: note_on channel=7 note=61 velocity=0 time=0
EXTRACT: note_on channel=7 note=57 velocity=0 time=0
EXTRACT: note_on channel=7 note=54 velocity=0 time=0
EXTRACT: note_on channel=8 note=66 velocity=0 time=0
EXTRACT: note_on channel=8 note=66 velocity=124 time=0
EXTRACT: note_on channel=3 note=61 velocity=119 time=0.005263149999999999
EXTRACT: note_on channel=9 note=42 velocity=0 time=0.04736835
EXTRACT: note_on channel=9 note=42 velocity=0 time=0
EXTRACT: note_on channel=1 note=30 velocity=0 time=0.04736835
EXTRACT: note_on channel=1 note=30 velocity=126 time=0.005263149999999999
EXTRACT: note_on channel=2 note=64 velocity=121 time=0.04736835
EXTRACT: note_on channel=4 note=64 velocity=88 time=0.005263149999999999
EXTRACT: note_on channel=4 note=61 velocity=114 time=0
EXTRACT: note_on channel=4 note=57 velocity=91 time=0
EXTRACT: note_on channel=4 note=54 velocity=98 time=0
EXTRACT: note_on channel=7 note=64 velocity=92 time=0
EXTRACT: note_on channel=7 note=61 velocity=101 time=0
EXTRACT: note_on channel=7 note=57 velocity=99 time=0
EXTRACT: note_on channel=7 note=54 velocity=95 time=0
EXTRACT: note_on channel=8 note=66 velocity=0 time=0
EXTRACT: note_on channel=8 note=66 velocity=124 time=0
EXTRACT: note_on channel=1 note=30 velocity=0 time=0.15263134999999997
EXTRACT: note_on channel=9 note=40 velocity=127 time=0.005263149999999999
EXTRACT: note_on channel=9 note=42 velocity=109 time=0
EXTRACT: note_on channel=9 note=69 velocity=62 time=0
EXTRACT: note_on channel=1 note=37 velocity=116 time=0
EXTRACT: note_on channel=4 note=64 velocity=0 time=0
EXTRACT: note_on channel=4 note=61 velocity=0 time=0
EXTRACT: note_on channel=4 note=57 velocity=0 time=0
EXTRACT: note_on channel=4 note=54 velocity=0 time=0
EXTRACT: note_on channel=7 note=64 velocity=0 time=0
EXTRACT: note_on channel=7 note=61 velocity=0 time=0
EXTRACT: note_on channel=7 note=57 velocity=0 time=0
EXTRACT: note_on channel=7 note=54 velocity=0 time=0
EXTRACT: note_on channel=8 note=66 velocity=0 time=0
EXTRACT: note_on channel=8 note=64 velocity=114 time=0
EXTRACT: note_on channel=3 note=61 velocity=0 time=0.005263149999999999
EXTRACT: note_on channel=9 note=40 velocity=0 time=0.04736835
EXTRACT: note_on channel=9 note=42 velocity=0 time=0
EXTRACT: note_on channel=9 note=69 velocity=0 time=0
EXTRACT: note_on channel=2 note=61 velocity=123 time=0.09999984999999999
EXTRACT: note_on channel=9 note=69 velocity=70 time=0.005263149999999999
EXTRACT: note_on channel=4 note=64 velocity=58 time=0
EXTRACT: note_on channel=4 note=61 velocity=65 time=0
EXTRACT: note_on channel=4 note=57 velocity=82 time=0
EXTRACT: note_on channel=4 note=54 velocity=64 time=0
EXTRACT: note_on channel=3 note=61 velocity=118 time=0.005263149999999999
EXTRACT: note_on channel=9 note=69 velocity=0 time=0.04736835
EXTRACT: note_on channel=1 note=37 velocity=0 time=0.02631575
EXTRACT: note_on channel=4 note=64 velocity=0 time=0
EXTRACT: note_on channel=4 note=61 velocity=0 time=0
EXTRACT: note_on channel=4 note=57 velocity=0 time=0
EXTRACT: note_on channel=4 note=54 velocity=0 time=0
EXTRACT: note_on channel=9 note=42 velocity=106 time=0.07894725
EXTRACT: note_on channel=1 note=42 velocity=114 time=0
EXTRACT: note_on channel=4 note=64 velocity=40 time=0
EXTRACT: note_on channel=4 note=61 velocity=58 time=0
EXTRACT: note_on channel=4 note=57 velocity=67 time=0
EXTRACT: note_on channel=9 note=42 velocity=0 time=0.0526315
EXTRACT: note_on channel=4 note=64 velocity=0 time=0.02631575
EXTRACT: note_on channel=4 note=61 velocity=0 time=0
EXTRACT: note_on channel=4 note=57 velocity=0 time=0
EXTRACT: note_on channel=2 note=57 velocity=108 time=0.07368409999999999
EXTRACT: note_on channel=9 note=69 velocity=62 time=0.005263149999999999
EXTRACT: note_on channel=4 note=64 velocity=53 time=0
EXTRACT: note_on channel=4 note=61 velocity=78 time=0
EXTRACT: note_on channel=4 note=57 velocity=90 time=0
EXTRACT: note_on channel=4 note=54 velocity=86 time=0
EXTRACT: note_on channel=3 note=61 velocity=0 time=0.005263149999999999
EXTRACT: note_on channel=9 note=69 velocity=0 time=0.04736835
EXTRACT: note_on channel=1 note=42 velocity=0 time=0.02631575
EXTRACT: note_on channel=4 note=64 velocity=0 time=0
EXTRACT: note_on channel=4 note=61 velocity=0 time=0
EXTRACT: note_on channel=4 note=57 velocity=0 time=0
EXTRACT: note_on channel=4 note=54 velocity=0 time=0
EXTRACT: note_on channel=2 note=61 velocity=113 time=0.07368409999999999
EXTRACT: note_on channel=9 note=36 velocity=120 time=0.005263149999999999
EXTRACT: note_on channel=9 note=42 velocity=101 time=0
EXTRACT: note_on channel=1 note=37 velocity=119 time=0
EXTRACT: note_on channel=4 note=64 velocity=68 time=0
EXTRACT: note_on channel=4 note=61 velocity=58 time=0
EXTRACT: note_on channel=4 note=57 velocity=54 time=0
EXTRACT: note_on channel=8 note=64 velocity=0 time=0
EXTRACT: note_on channel=3 note=61 velocity=117 time=0.005263149999999999
EXTRACT: note_on channel=9 note=36 velocity=0 time=0.04736835
EXTRACT: note_on channel=9 note=42 velocity=0 time=0
EXTRACT: note_on channel=4 note=64 velocity=0 time=0.02631575
EXTRACT: note_on channel=4 note=61 velocity=0 time=0
EXTRACT: note_on channel=4 note=57 velocity=0 time=0
EXTRACT: note_on channel=2 note=64 velocity=123 time=0.07368409999999999
EXTRACT: note_on channel=9 note=69 velocity=73 time=0.005263149999999999
EXTRACT: note_on channel=9 note=69 velocity=0 time=0.0526315
EXTRACT: note_on channel=2 note=66 velocity=104 time=0.09999984999999999
EXTRACT: note_on channel=9 note=36 velocity=120 time=0.005263149999999999
EXTRACT: note_on channel=9 note=42 velocity=96 time=0
EXTRACT: note_on channel=9 note=69 velocity=78 time=0
EXTRACT: note_on channel=4 note=64 velocity=86 time=0
EXTRACT: note_on channel=4 note=61 velocity=107 time=0
EXTRACT: note_on channel=4 note=57 velocity=93 time=0
EXTRACT: note_on channel=4 note=54 velocity=89 time=0
EXTRACT: note_on channel=7 note=64 velocity=92 time=0
EXTRACT: note_on channel=7 note=61 velocity=108 time=0
EXTRACT: note_on channel=7 note=57 velocity=77 time=0
EXTRACT: note_on channel=7 note=54 velocity=75 time=0
EXTRACT: note_on channel=9 note=36 velocity=0 time=0.0526315
EXTRACT: note_on channel=9 note=42 velocity=0 time=0
EXTRACT: note_on channel=9 note=69 velocity=0 time=0
EXTRACT: note_on channel=1 note=37 velocity=0 time=0.04736835
EXTRACT: note_on channel=1 note=42 velocity=126 time=0.005263149999999999
EXTRACT: note_on channel=2 note=69 velocity=121 time=0.04736835
EXTRACT: note_on channel=4 note=64 velocity=0 time=0.005263149999999999
EXTRACT: note_on channel=4 note=61 velocity=0 time=0
EXTRACT: note_on channel=4 note=57 velocity=0 time=0
EXTRACT: note_on channel=4 note=54 velocity=0 time=0
EXTRACT: note_on channel=7 note=64 velocity=0 time=0
EXTRACT: note_on channel=7 note=61 velocity=0 time=0
EXTRACT: note_on channel=7 note=57 velocity=0 time=0
EXTRACT: note_on channel=7 note=54 velocity=0 time=0
EXTRACT: note_on channel=9 note=40 velocity=127 time=0.1578945
EXTRACT: note_on channel=9 note=42 velocity=94 time=0
EXTRACT: note_on channel=9 note=69 velocity=66 time=0
EXTRACT: note_on channel=9 note=40 velocity=0 time=0.0526315
EXTRACT: note_on channel=9 note=42 velocity=0 time=0
EXTRACT: note_on channel=9 note=69 velocity=0 time=0
EXTRACT: note_on channel=4 note=64 velocity=41 time=0.105263
EXTRACT: note_on channel=4 note=61 velocity=49 time=0
EXTRACT: note_on channel=4 note=57 velocity=43 time=0
EXTRACT: note_on channel=1 note=42 velocity=0 time=0.04736835
EXTRACT: note_on channel=1 note=49 velocity=114 time=0.005263149999999999
EXTRACT: note_on channel=4 note=64 velocity=0 time=0.02631575
EXTRACT: note_on channel=4 note=61 velocity=0 time=0
EXTRACT: note_on channel=4 note=57 velocity=0 time=0
EXTRACT: note_on channel=9 note=36 velocity=90 time=0.07894725
EXTRACT: note_on channel=9 note=42 velocity=96 time=0
EXTRACT: note_on channel=4 note=64 velocity=77 time=0
EXTRACT: note_on channel=4 note=61 velocity=85 time=0
EXTRACT: note_on channel=4 note=57 velocity=53 time=0
EXTRACT: note_on channel=4 note=54 velocity=52 time=0
EXTRACT: note_on channel=10 note=74 velocity=113 time=0
EXTRACT: note_on channel=3 note=61 velocity=98 time=0.005263149999999999
EXTRACT: note_on channel=9 note=36 velocity=0 time=0.04736835
EXTRACT: note_on channel=9 note=42 velocity=0 time=0
EXTRACT: note_on channel=4 note=64 velocity=0 time=0.02631575
EXTRACT: note_on channel=4 note=61 velocity=0 time=0
EXTRACT: note_on channel=4 note=57 velocity=0 time=0
EXTRACT: note_on channel=4 note=54 velocity=0 time=0
EXTRACT: note_on channel=9 note=40 velocity=127 time=0.07894725
EXTRACT: note_on channel=9 note=40 velocity=0 time=0.0526315
EXTRACT: note_on channel=1 note=49 velocity=0 time=0.09999984999999999
EXTRACT: note_on channel=2 note=57 velocity=0 time=0
EXTRACT: note_on channel=2 note=54 velocity=0 time=0
EXTRACT: note_on channel=2 note=61 velocity=0 time=0
EXTRACT: note_on channel=2 note=64 velocity=0 time=0
EXTRACT: note_on channel=2 note=61 velocity=0 time=0
EXTRACT: note_on channel=2 note=57 velocity=0 time=0
EXTRACT: note_on channel=2 note=61 velocity=0 time=0
EXTRACT: note_on channel=2 note=64 velocity=0 time=0
EXTRACT: note_on channel=2 note=66 velocity=0 time=0
EXTRACT: note_on channel=2 note=69 velocity=0 time=0
EXTRACT: note_on channel=2 note=47 velocity=113 time=0
EXTRACT: note_on channel=1 note=35 velocity=113 time=0.005263149999999999
EXTRACT: note_on channel=4 note=66 velocity=104 time=0
EXTRACT: note_on channel=4 note=62 velocity=91 time=0
EXTRACT: note_on channel=4 note=59 velocity=107 time=0
EXTRACT: note_on channel=4 note=54 velocity=106 time=0
EXTRACT: note_on channel=4 note=47 velocity=93 time=0
EXTRACT: control_change channel=6 control=11 value=40 time=0
EXTRACT: note_on channel=6 note=59 velocity=125 time=0
EXTRACT: note_on channel=6 note=62 velocity=122 time=0
EXTRACT: note_on channel=6 note=66 velocity=120 time=0
EXTRACT: note_on channel=7 note=66 velocity=109 time=0
EXTRACT: note_on channel=7 note=62 velocity=92 time=0
EXTRACT: note_on channel=7 note=59 velocity=87 time=0
EXTRACT: note_on channel=7 note=54 velocity=102 time=0
EXTRACT: note_on channel=7 note=47 velocity=90 time=0
EXTRACT: note_on channel=11 note=59 velocity=126 time=0
EXTRACT: note_on channel=3 note=61 velocity=0 time=0.005263149999999999
EXTRACT: note_on channel=3 note=61 velocity=0 time=0
EXTRACT: control_change channel=6 control=11 value=41 time=0.02631575
EXTRACT: control_change channel=6 control=11 value=42 time=0.03157889999999999
EXTRACT: control_change channel=6 control=11 value=43 time=0.03157889999999999
EXTRACT: control_change channel=6 control=11 value=44 time=0.03157889999999999
EXTRACT: note_on channel=1 note=35 velocity=0 time=0.02631575
EXTRACT: note_on channel=1 note=35 velocity=111 time=0.005263149999999999
EXTRACT: control_change channel=6 control=11 value=45 time=0
EXTRACT: control_change channel=6 control=11 value=46 time=0.03157889999999999
EXTRACT: control_change channel=6 control=11 value=47 time=0.03157889999999999
EXTRACT: control_change channel=6 control=11 value=48 time=0.03157889999999999
EXTRACT: control_change channel=6 control=11 value=49 time=0.03157889999999999
EXTRACT: note_on channel=2 note=62 velocity=110 time=0.02631575
EXTRACT: note_on channel=1 note=35 velocity=0 time=0.005263149999999999
EXTRACT: note_on channel=4 note=66 velocity=0 time=0
EXTRACT: note_on channel=4 note=62 velocity=0 time=0
EXTRACT: note_on channel=4 note=59 velocity=0 time=0
EXTRACT: note_on channel=4 note=54 velocity=0 time=0
EXTRACT: note_on channel=4 note=47 velocity=0 time=0
EXTRACT: control_change channel=6 control=11 value=50 time=0
EXTRACT: note_on channel=7 note=66 velocity=0 time=0
EXTRACT: note_on channel=7 note=62 velocity=0 time=0
EXTRACT: note_on channel=7 note=59 velocity=0 time=0
EXTRACT: note_on channel=7 note=54 velocity=0 time=0
EXTRACT: note_on channel=7 note=47 velocity=0 time=0
EXTRACT: note_on channel=10 note=74 velocity=0 time=0
EXTRACT: note_on channel=10 note=71 velocity=124 time=0
EXTRACT: note_on channel=3 note=62 velocity=121 time=0.005263149999999999
EXTRACT: control_change channel=6 control=11 value=51 time=0.02631575
EXTRACT: control_change channel=6 control=11 value=52 time=0.03157889999999999
EXTRACT: control_change channel=6 control=11 value=53 time=0.03157889999999999
EXTRACT: control_change channel=6 control=11 value=54 time=0.03157889999999999
EXTRACT: note_on channel=2 note=66 velocity=113 time=0.02631575
EXTRACT: note_on channel=1 note=42 velocity=120 time=0.005263149999999999
EXTRACT: note_on channel=4 note=66 velocity=111 time=0
EXTRACT: note_on channel=4 note=62 velocity=88 time=0
EXTRACT: note_on channel=4 note=59 velocity=114 time=0
EXTRACT: note_on channel=4 note=54 velocity=103 time=0
EXTRACT: note_on channel=4 note=47 velocity=105 time=0
EXTRACT: control_change channel=6 control=11 value=55 time=0
EXTRACT: note_on channel=7 note=66 velocity=111 time=0
EXTRACT: note_on channel=7 note=62 velocity=98 time=0
EXTRACT: note_on channel=7 note=59 velocity=91 time=0
EXTRACT: note_on channel=7 note=54 velocity=111 time=0
EXTRACT: note_on channel=7 note=47 velocity=107 time=0
EXTRACT: note_on channel=11 note=59 velocity=0 time=0
EXTRACT: note_on channel=11 note=59 velocity=119 time=0
EXTRACT: control_change channel=6 control=11 value=56 time=0.03157889999999999
EXTRACT: control_change channel=6 control=11 value=57 time=0.03157889999999999
EXTRACT: note_on channel=10 note=71 velocity=0 time=0.015789449999999997
EXTRACT: control_change channel=6 control=11 value=58 time=0.015789449999999997
EXTRACT: control_change channel=6 control=11 value=59 time=0.03157889999999999
EXTRACT: note_on channel=1 note=42 velocity=0 time=0.03157889999999999
EXTRACT: note_on channel=4 note=66 velocity=0 time=0
EXTRACT: note_on channel=4 note=62 velocity=0 time=0
EXTRACT: note_on channel=4 note=59 velocity=0 time=0
EXTRACT: note_on channel=4 note=54 velocity=0 time=0
EXTRACT: note_on channel=4 note=47 velocity=0 time=0
EXTRACT: control_change channel=6 control=11 value=60 time=0
EXTRACT: note_on channel=7 note=66 velocity=0 time=0
EXTRACT: note_on channel=7 note=62 velocity=0 time=0
EXTRACT: note_on channel=7 note=59 velocity=0 time=0
EXTRACT: note_on channel=7 note=54 velocity=0 time=0
EXTRACT: note_on channel=7 note=47 velocity=0 time=0
EXTRACT: note_on channel=10 note=71 velocity=109 time=0
EXTRACT: note_on channel=3 note=62 velocity=0 time=0.005263149999999999
EXTRACT: control_change channel=6 control=11 value=61 time=0.02631575
EXTRACT: control_change channel=6 control=11 value=62 time=0.03157889999999999
EXTRACT: control_change channel=6 control=11 value=63 time=0.03157889999999999
EXTRACT: control_change channel=6 control=11 value=64 time=0.03157889999999999
EXTRACT: note_on channel=2 note=62 velocity=117 time=0.02631575
EXTRACT: note_on channel=1 note=42 velocity=127 time=0.005263149999999999
EXTRACT: note_on channel=4 note=66 velocity=66 time=0
EXTRACT: note_on channel=4 note=62 velocity=81 time=0
EXTRACT: note_on channel=4 note=59 velocity=55 time=0
EXTRACT: note_on channel=4 note=54 velocity=69 time=0
EXTRACT: note_on channel=4 note=47 velocity=66 time=0
EXTRACT: control_change channel=6 control=11 value=65 time=0
EXTRACT: note_on channel=3 note=62 velocity=118 time=0.005263149999999999
EXTRACT: control_change channel=6 control=11 value=66 time=0.02631575
EXTRACT: control_change channel=6 control=11 value=67 time=0.03157889999999999
EXTRACT: note_on channel=4 note=66 velocity=0 time=0.015789449999999997
EXTRACT: note_on channel=4 note=62 velocity=0 time=0
EXTRACT: note_on channel=4 note=59 velocity=0 time=0
EXTRACT: note_on channel=4 note=54 velocity=0 time=0
EXTRACT: note_on channel=4 note=47 velocity=0 time=0
EXTRACT: control_change channel=6 control=11 value=68 time=0.015789449999999997
EXTRACT: control_change channel=6 control=11 value=69 time=0.03157889999999999
EXTRACT: note_on channel=1 note=42 velocity=0 time=0.02631575
EXTRACT: note_on channel=1 note=38 velocity=121 time=0.005263149999999999
EXTRACT: note_on channel=4 note=66 velocity=43 time=0
EXTRACT: note_on channel=4 note=62 velocity=63 time=0
EXTRACT: note_on channel=4 note=59 velocity=47 time=0
EXTRACT: control_change channel=6 control=11 value=70 time=0
EXTRACT: note_on channel=10 note=71 velocity=0 time=0
EXTRACT: note_on channel=10 note=69 velocity=116 time=0
EXTRACT: note_on channel=11 note=59 velocity=0 time=0
EXTRACT: note_on channel=11 note=59 velocity=110 time=0
EXTRACT: note_on channel=3 note=62 velocity=0 time=0.005263149999999999
EXTRACT: note_on channel=3 note=61 velocity=122 time=0
EXTRACT: control_change channel=6 control=11 value=71 time=0.02631575
EXTRACT: control_change channel=6 control=11 value=72 time=0.03157889999999999
EXTRACT: note_on channel=4 note=66 velocity=0 time=0.015789449999999997
EXTRACT: note_on channel=4 note=62 velocity=0 time=0
EXTRACT: note_on channel=4 note=59 velocity=0 time=0
EXTRACT: control_change channel=6 control=11 value=73 time=0.015789449999999997
EXTRACT: control_change channel=6 control=11 value=74 time=0.03157889999999999
EXTRACT: note_on channel=2 note=59 velocity=102 time=0.02631575
EXTRACT: note_on channel=1 note=38 velocity=0 time=0.005263149999999999
EXTRACT: note_on channel=4 note=66 velocity=87 time=0
EXTRACT: note_on channel=4 note=62 velocity=69 time=0
EXTRACT: note_on channel=4 note=59 velocity=87 time=0
EXTRACT: note_on channel=4 note=54 velocity=78 time=0
EXTRACT: note_on channel=4 note=47 velocity=81 time=0
EXTRACT: control_change channel=6 control=11 value=75 time=0
EXTRACT: note_on channel=11 note=59 velocity=0 time=0
EXTRACT: note_on channel=3 note=61 velocity=0 time=0.005263149999999999
EXTRACT: note_on channel=3 note=59 velocity=116 time=0
EXTRACT: control_change channel=6 control=11 value=76 time=0.02631575
EXTRACT: control_change channel=6 control=11 value=77 time=0.03157889999999999
EXTRACT: note_on channel=4 note=66 velocity=0 time=0.015789449999999997
EXTRACT: note_on channel=4 note=62 velocity=0 time=0
EXTRACT: note_on channel=4 note=59 velocity=0 time=0
EXTRACT: note_on channel=4 note=54 velocity=0 time=0
EXTRACT: note_on channel=4 note=47 velocity=0 time=0
EXTRACT: control_change channel=6 control=11 value=78 time=0.015789449999999997
EXTRACT: control_change channel=6 control=11 value=79 time=0.03157889999999999
EXTRACT: note_on channel=1 note=35 velocity=125 time=0.03157889999999999
EXTRACT: note_on channel=4 note=66 velocity=59 time=0
EXTRACT: note_on channel=4 note=62 velocity=51 time=0
EXTRACT: note_on channel=4 note=59 velocity=64 time=0
EXTRACT: control_change channel=6 control=11 value=80 time=0
EXTRACT: note_on channel=11 note=62 velocity=109 time=0
EXTRACT: note_on channel=3 note=59 velocity=0 time=0.005263149999999999
EXTRACT: note_on channel=4 note=66 velocity=0 time=0.07368409999999999
EXTRACT: note_on channel=4 note=62 velocity=0 time=0
EXTRACT: note_on channel=4 note=59 velocity=0 time=0
EXTRACT: note_on channel=2 note=62 velocity=127 time=0.07368409999999999
EXTRACT: note_on channel=11 note=62 velocity=0 time=0.005263149999999999
EXTRACT: note_on channel=3 note=62 velocity=126 time=0.005263149999999999
EXTRACT: note_on channel=1 note=35 velocity=0 time=0.15263134999999997
EXTRACT: note_on channel=4 note=66 velocity=106 time=0
EXTRACT: note_on channel=4 note=62 velocity=108 time=0
EXTRACT: note_on channel=4 note=59 velocity=89 time=0
EXTRACT: note_on channel=4 note=54 velocity=107 time=0
EXTRACT: note_on channel=4 note=47 velocity=85 time=0
EXTRACT: note_on channel=7 note=66 velocity=83 time=0
EXTRACT: note_on channel=7 note=62 velocity=92 time=0
EXTRACT: note_on channel=7 note=59 velocity=93 time=0
EXTRACT: note_on channel=7 note=54 velocity=96 time=0
EXTRACT: note_on channel=7 note=47 velocity=96 time=0
EXTRACT: note_on channel=11 note=59 velocity=119 time=0
EXTRACT: note_on channel=3 note=62 velocity=0 time=0.005263149999999999
EXTRACT: note_on channel=2 note=66 velocity=125 time=0.14736819999999998
EXTRACT: note_on channel=4 note=66 velocity=0 time=0.005263149999999999
EXTRACT: note_on channel=4 note=62 velocity=0 time=0
EXTRACT: note_on channel=4 note=59 velocity=0 time=0
EXTRACT: note_on channel=4 note=54 velocity=0 time=0
EXTRACT: note_on channel=4 note=47 velocity=0 time=0
EXTRACT: note_on channel=7 note=66 velocity=0 time=0
EXTRACT: note_on channel=7 note=62 velocity=0 time=0
EXTRACT: note_on channel=7 note=59 velocity=0 time=0
EXTRACT: note_on channel=7 note=54 velocity=0 time=0
EXTRACT: note_on channel=7 note=47 velocity=0 time=0
EXTRACT: note_on channel=11 note=59 velocity=0 time=0
EXTRACT: note_on channel=3 note=62 velocity=116 time=0.005263149999999999
EXTRACT: note_on channel=2 note=66 velocity=105 time=0.14736819999999998
EXTRACT: note_on channel=9 note=40 velocity=127 time=0.005263149999999999
EXTRACT: note_on channel=10 note=69 velocity=0 time=0
EXTRACT: note_on channel=10 note=66 velocity=106 time=0
EXTRACT: note_on channel=11 note=59 velocity=115 time=0
EXTRACT: note_on channel=9 note=40 velocity=0 time=0.0526315
EXTRACT: note_on channel=4 note=66 velocity=63 time=0.105263
EXTRACT: note_on channel=4 note=62 velocity=53 time=0
EXTRACT: note_on channel=4 note=59 velocity=46 time=0
EXTRACT: note_on channel=4 note=66 velocity=0 time=0.07894725
EXTRACT: note_on channel=4 note=62 velocity=0 time=0
EXTRACT: note_on channel=4 note=59 velocity=0 time=0
EXTRACT: note_on channel=2 note=62 velocity=122 time=0.07368409999999999
EXTRACT: note_on channel=1 note=30 velocity=111 time=0.005263149999999999
EXTRACT: note_on channel=4 note=66 velocity=51 time=0
EXTRACT: note_on channel=4 note=62 velocity=53 time=0
EXTRACT: note_on channel=4 note=59 velocity=73 time=0
EXTRACT: note_on channel=4 note=54 velocity=56 time=0
EXTRACT: note_on channel=4 note=47 velocity=74 time=0
EXTRACT: note_on channel=10 note=66 velocity=0 time=0
EXTRACT: note_on channel=10 note=74 velocity=122 time=0
EXTRACT: note_on channel=11 note=59 velocity=0 time=0
EXTRACT: note_on channel=4 note=66 velocity=0 time=0.07894725
EXTRACT: note_on channel=4 note=62 velocity=0 time=0
EXTRACT: note_on channel=4 note=59 velocity=0 time=0
EXTRACT: note_on channel=4 note=54 velocity=0 time=0
EXTRACT: note_on channel=4 note=47 velocity=0 time=0
EXTRACT: note_on channel=1 note=30 velocity=0 time=0.07894725
EXTRACT: note_on channel=2 note=47 velocity=0 time=0.15263134999999997
EXTRACT: note_on channel=2 note=62 velocity=0 time=0
EXTRACT: note_on channel=2 note=66 velocity=0 time=0
EXTRACT: note_on channel=2 note=62 velocity=0 time=0
EXTRACT: note_on channel=2 note=59 velocity=0 time=0
EXTRACT: note_on channel=2 note=62 velocity=0 time=0
EXTRACT: note_on channel=2 note=66 velocity=0 time=0
EXTRACT: note_on channel=2 note=66 velocity=0 time=0
EXTRACT: note_on channel=2 note=47 velocity=127 time=0
EXTRACT: note_on channel=9 note=42 velocity=96 time=0.005263149999999999
EXTRACT: note_on channel=9 note=36 velocity=120 time=0
EXTRACT: note_on channel=1 note=35 velocity=113 time=0
EXTRACT: note_on channel=4 note=66 velocity=93 time=0
EXTRACT: note_on channel=4 note=62 velocity=102 time=0
EXTRACT: note_on channel=4 note=59 velocity=104 time=0
EXTRACT: note_on channel=4 note=54 velocity=91 time=0
EXTRACT: note_on channel=4 note=47 velocity=105 time=0
EXTRACT: note_on channel=7 note=66 velocity=78 time=0
EXTRACT: note_on channel=7 note=62 velocity=76 time=0
EXTRACT: note_on channel=7 note=59 velocity=81 time=0
EXTRACT: note_on channel=7 note=54 velocity=106 time=0
EXTRACT: note_on channel=7 note=47 velocity=90 time=0
EXTRACT: note_on channel=11 note=59 velocity=112 time=0
EXTRACT: note_on channel=3 note=62 velocity=0 time=0.005263149999999999
EXTRACT: note_on channel=9 note=42 velocity=0 time=0.04736835
EXTRACT: note_on channel=9 note=36 velocity=0 time=0
EXTRACT: note_on channel=1 note=35 velocity=0 time=0.18421025
EXTRACT: note_on channel=2 note=62 velocity=0 time=0.07368409999999999
EXTRACT: note_on channel=2 note=62 velocity=125 time=0
EXTRACT: note_on channel=9 note=42 velocity=102 time=0.005263149999999999
EXTRACT: note_on channel=4 note=66 velocity=0 time=0
EXTRACT: note_on channel=4 note=62 velocity=0 time=0
EXTRACT: note_on channel=4 note=59 velocity=0 time=0
EXTRACT: note_on channel=4 note=54 velocity=0 time=0
EXTRACT: note_on channel=4 note=47 velocity=0 time=0
EXTRACT: note_on channel=7 note=66 velocity=0 time=0
EXTRACT: note_on channel=7 note=62 velocity=0 time=0
EXTRACT: note_on channel=7 note=59 velocity=0 time=0
EXTRACT: note_on channel=7 note=54 velocity=0 time=0
EXTRACT: note_on channel=7 note=47 velocity=0 time=0
EXTRACT: note_on channel=10 note=74 velocity=0 time=0
EXTRACT: note_on channel=10 note=71 velocity=102 time=0
EXTRACT: note_on channel=3 note=62 velocity=127 time=0.005263149999999999
EXTRACT: note_on channel=9 note=42 velocity=0 time=0.04736835
EXTRACT: note_on channel=2 note=66 velocity=123 time=0.09999984999999999
EXTRACT: note_on channel=1 note=35 velocity=109 time=0.005263149999999999
EXTRACT: note_on channel=4 note=66 velocity=113 time=0
EXTRACT: note_on channel=4 note=62 velocity=109 time=0
EXTRACT: note_on channel=4 note=59 velocity=96 time=0
EXTRACT: note_on channel=4 note=54 velocity=87 time=0
EXTRACT: note_on channel=4 note=47 velocity=101 time=0
EXTRACT: note_on channel=7 note=66 velocity=83 time=0
EXTRACT: note_on channel=7 note=62 velocity=104 time=0
EXTRACT: note_on channel=7 note=59 velocity=83 time=0
EXTRACT: note_on channel=7 note=54 velocity=104 time=0
EXTRACT: note_on channel=7 note=47 velocity=110 time=0
EXTRACT: note_on channel=10 note=71 velocity=0 time=0
EXTRACT: note_on channel=10 note=69 velocity=112 time=0
EXTRACT: note_on channel=11 note=59 velocity=0 time=0
EXTRACT: note_on channel=11 note=59 velocity=127 time=0
EXTRACT: note_on channel=9 note=42 velocity=90 time=0.1578945
EXTRACT: note_on channel=9 note=40 velocity=127 time=0
EXTRACT: note_on channel=9 note=69 velocity=62 time=0
EXTRACT: note_on channel=1 note=35 velocity=0 time=0
EXTRACT: note_on channel=4 note=66 velocity=0 time=0
EXTRACT: note_on channel=4 note=62 velocity=0 time=0
EXTRACT: note_on channel=4 note=59 velocity=0 time=0
EXTRACT: note_on channel=4 note=54 velocity=0 time=0
EXTRACT: note_on channel=4 note=47 velocity=0 time=0
EXTRACT: note_on channel=7 note=66 velocity=0 time=0
EXTRACT: note_on channel=7 note=62 velocity=0 time=0
EXTRACT: note_on channel=7 note=59 velocity=0 time=0
EXTRACT: note_on channel=7 note=54 velocity=0 time=0
EXTRACT: note_on channel=7 note=47 velocity=0 time=0
EXTRACT: note_on channel=10 note=69 velocity=0 time=0
EXTRACT: note_on channel=10 note=71 velocity=126 time=0
EXTRACT: note_on channel=3 note=62 velocity=0 time=0.005263149999999999
EXTRACT: note_on channel=9 note=42 velocity=0 time=0.04736835
EXTRACT: note_on channel=9 note=40 velocity=0 time=0
EXTRACT: note_on channel=9 note=69 velocity=0 time=0
EXTRACT: note_on channel=2 note=62 velocity=108 time=0.09999984999999999
EXTRACT: note_on channel=9 note=69 velocity=70 time=0.005263149999999999
EXTRACT: note_on channel=4 note=66 velocity=68 time=0
EXTRACT: note_on channel=4 note=62 velocity=68 time=0
EXTRACT: note_on channel=4 note=59 velocity=61 time=0
EXTRACT: note_on channel=4 note=54 velocity=72 time=0
EXTRACT: note_on channel=4 note=47 velocity=89 time=0
EXTRACT: note_on channel=10 note=71 velocity=0 time=0
EXTRACT: note_on channel=3 note=62 velocity=103 time=0.005263149999999999
EXTRACT: note_on channel=9 note=69 velocity=0 time=0.04736835
EXTRACT: note_on channel=4 note=66 velocity=0 time=0.02631575
EXTRACT: note_on channel=4 note=62 velocity=0 time=0
EXTRACT: note_on channel=4 note=59 velocity=0 time=0
EXTRACT: note_on channel=4 note=54 velocity=0 time=0
EXTRACT: note_on channel=4 note=47 velocity=0 time=0
EXTRACT: note_on channel=9 note=42 velocity=103 time=0.07894725
EXTRACT: note_on channel=4 note=66 velocity=51 time=0
EXTRACT: note_on channel=4 note=62 velocity=55 time=0
EXTRACT: note_on channel=4 note=59 velocity=52 time=0
EXTRACT: note_on channel=10 note=71 velocity=114 time=0
EXTRACT: note_on channel=11 note=59 velocity=0 time=0
EXTRACT: note_on channel=11 note=59 velocity=113 time=0
EXTRACT: note_on channel=3 note=62 velocity=0 time=0.005263149999999999
EXTRACT: note_on channel=3 note=61 velocity=110 time=0
EXTRACT: note_on channel=9 note=42 velocity=0 time=0.04736835
EXTRACT: note_on channel=4 note=66 velocity=0 time=0.02631575
EXTRACT: note_on channel=4 note=62 velocity=0 time=0
EXTRACT: note_on channel=4 note=59 velocity=0 time=0
EXTRACT: note_on channel=2 note=59 velocity=111 time=0.07368409999999999
EXTRACT: note_on channel=9 note=69 velocity=62 time=0.005263149999999999
EXTRACT: note_on channel=4 note=66 velocity=85 time=0
EXTRACT: note_on channel=4 note=62 velocity=91 time=0
EXTRACT: note_on channel=4 note=59 velocity=69 time=0
EXTRACT: note_on channel=4 note=54 velocity=76 time=0
EXTRACT: note_on channel=4 note=47 velocity=61 time=0
EXTRACT: note_on channel=10 note=71 velocity=0 time=0
EXTRACT: note_on channel=11 note=59 velocity=0 time=0
EXTRACT: note_on channel=3 note=61 velocity=0 time=0.005263149999999999
EXTRACT: note_on channel=3 note=59 velocity=124 time=0
EXTRACT: note_on channel=9 note=69 velocity=0 time=0.04736835
EXTRACT: note_on channel=4 note=66 velocity=0 time=0.02631575
EXTRACT: note_on channel=4 note=62 velocity=0 time=0
EXTRACT: note_on channel=4 note=59 velocity=0 time=0
EXTRACT: note_on channel=4 note=54 velocity=0 time=0
EXTRACT: note_on channel=4 note=47 velocity=0 time=0
EXTRACT: note_on channel=9 note=36 velocity=120 time=0.07894725
EXTRACT: note_on channel=9 note=42 velocity=92 time=0
EXTRACT: note_on channel=4 note=66 velocity=71 time=0
EXTRACT: note_on channel=4 note=62 velocity=62 time=0
EXTRACT: note_on channel=4 note=59 velocity=41 time=0
EXTRACT: note_on channel=11 note=62 velocity=114 time=0
EXTRACT: note_on channel=3 note=59 velocity=0 time=0.005263149999999999
EXTRACT: note_on channel=9 note=36 velocity=0 time=0.04736835
EXTRACT: note_on channel=9 note=42 velocity=0 time=0
EXTRACT: note_on channel=4 note=66 velocity=0 time=0.02631575
EXTRACT: note_on channel=4 note=62 velocity=0 time=0
EXTRACT: note_on channel=4 note=59 velocity=0 time=0
EXTRACT: note_on channel=2 note=62 velocity=126 time=0.07368409999999999
EXTRACT: note_on channel=9 note=69 velocity=73 time=0.005263149999999999
EXTRACT: note_on channel=11 note=62 velocity=0 time=0
EXTRACT: note_on channel=3 note=62 velocity=122 time=0.005263149999999999
EXTRACT: note_on channel=9 note=69 velocity=0 time=0.04736835
EXTRACT: note_on channel=9 note=42 velocity=98 time=0.105263
EXTRACT: note_on channel=9 note=69 velocity=78 time=0
EXTRACT: note_on channel=1 note=35 velocity=120 time=0
EXTRACT: note_on channel=4 note=66 velocity=107 time=0
EXTRACT: note_on channel=4 note=62 velocity=98 time=0
EXTRACT: note_on channel=4 note=59 velocity=86 time=0
EXTRACT: note_on channel=4 note=54 velocity=105 time=0
EXTRACT: note_on channel=4 note=47 velocity=100 time=0
EXTRACT: note_on channel=7 note=66 velocity=104 time=0
EXTRACT: note_on channel=7 note=62 velocity=89 time=0
EXTRACT: note_on channel=7 note=59 velocity=85 time=0
EXTRACT: note_on channel=7 note=54 velocity=99 time=0
EXTRACT: note_on channel=7 note=47 velocity=88 time=0
EXTRACT: note_on channel=10 note=66 velocity=122 time=0
EXTRACT: note_on channel=11 note=59 velocity=123 time=0
EXTRACT: note_on channel=3 note=62 velocity=0 time=0.005263149999999999
EXTRACT: note_on channel=9 note=42 velocity=0 time=0.04736835
EXTRACT: note_on channel=9 note=69 velocity=0 time=0
EXTRACT: note_on channel=2 note=66 velocity=116 time=0.09999984999999999
EXTRACT: note_on channel=1 note=35 velocity=0 time=0.005263149999999999
EXTRACT: note_on channel=4 note=66 velocity=0 time=0
EXTRACT: note_on channel=4 note=62 velocity=0 time=0
EXTRACT: note_on channel=4 note=59 velocity=0 time=0
EXTRACT: note_on channel=4 note=54 velocity=0 time=0
EXTRACT: note_on channel=4 note=47 velocity=0 time=0
EXTRACT: note_on channel=7 note=66 velocity=0 time=0
EXTRACT: note_on channel=7 note=62 velocity=0 time=0
EXTRACT: note_on channel=7 note=59 velocity=0 time=0
EXTRACT: note_on channel=7 note=54 velocity=0 time=0
EXTRACT: note_on channel=7 note=47 velocity=0 time=0
EXTRACT: note_on channel=10 note=66 velocity=0 time=0
EXTRACT: note_on channel=11 note=59 velocity=0 time=0
EXTRACT: note_on channel=3 note=62 velocity=122 time=0.005263149999999999
EXTRACT: note_on channel=2 note=66 velocity=109 time=0.14736819999999998
EXTRACT: note_on channel=9 note=40 velocity=127 time=0.005263149999999999
EXTRACT: note_on channel=9 note=42 velocity=91 time=0
EXTRACT: note_on channel=9 note=69 velocity=66 time=0
EXTRACT: note_on channel=10 note=69 velocity=112 time=0
EXTRACT: note_on channel=11 note=59 velocity=103 time=0
EXTRACT: note_on channel=9 note=40 velocity=0 time=0.0526315
EXTRACT: note_on channel=9 note=42 velocity=0 time=0
EXTRACT: note_on channel=9 note=69 velocity=0 time=0
EXTRACT: note_on channel=4 note=66 velocity=57 time=0.105263
EXTRACT: note_on channel=4 note=62 velocity=60 time=0
EXTRACT: note_on channel=4 note=59 velocity=52 time=0
EXTRACT: note_on channel=10 note=69 velocity=0 time=0
EXTRACT: note_on channel=4 note=66 velocity=0 time=0.07894725
EXTRACT: note_on channel=4 note=62 velocity=0 time=0
EXTRACT: note_on channel=4 note=59 velocity=0 time=0
EXTRACT: note_on channel=2 note=62 velocity=127 time=0.07368409999999999
EXTRACT: note_on channel=9 note=36 velocity=90 time=0.005263149999999999
EXTRACT: note_on channel=9 note=42 velocity=105 time=0
EXTRACT: note_on channel=1 note=38 velocity=117 time=0
EXTRACT: note_on channel=4 note=66 velocity=61 time=0
EXTRACT: note_on channel=4 note=62 velocity=83 time=0
EXTRACT: note_on channel=4 note=59 velocity=69 time=0
EXTRACT: note_on channel=4 note=54 velocity=70 time=0
EXTRACT: note_on channel=4 note=47 velocity=74 time=0
EXTRACT: note_on channel=10 note=71 velocity=121 time=0
EXTRACT: note_on channel=11 note=59 velocity=0 time=0
EXTRACT: note_on channel=9 note=36 velocity=0 time=0.0526315
EXTRACT: note_on channel=9 note=42 velocity=0 time=0
EXTRACT: note_on channel=4 note=66 velocity=0 time=0.02631575
EXTRACT: note_on channel=4 note=62 velocity=0 time=0
EXTRACT: note_on channel=4 note=59 velocity=0 time=0
EXTRACT: note_on channel=4 note=54 velocity=0 time=0
EXTRACT: note_on channel=4 note=47 velocity=0 time=0
EXTRACT: note_on channel=9 note=40 velocity=127 time=0.07894725
EXTRACT: note_on channel=1 note=38 velocity=0 time=0
EXTRACT: note_on channel=9 note=40 velocity=0 time=0.0526315
EXTRACT: note_on channel=2 note=47 velocity=0 time=0.09999984999999999
EXTRACT: note_on channel=2 note=62 velocity=0 time=0
EXTRACT: note_on channel=2 note=66 velocity=0 time=0
EXTRACT: note_on channel=2 note=62 velocity=0 time=0
EXTRACT: note_on channel=2 note=59 velocity=0 time=0
EXTRACT: note_on channel=2 note=62 velocity=0 time=0
EXTRACT: note_on channel=2 note=66 velocity=0 time=0
EXTRACT: note_on channel=2 note=66 velocity=0 time=0
EXTRACT: note_on channel=2 note=62 velocity=0 time=0
EXTRACT: note_on channel=2 note=40 velocity=103 time=0
EXTRACT: note_on channel=9 note=42 velocity=106 time=0.005263149999999999
EXTRACT: note_on channel=9 note=36 velocity=120 time=0
EXTRACT: note_on channel=1 note=40 velocity=118 time=0
EXTRACT: note_on channel=4 note=67 velocity=108 time=0
EXTRACT: note_on channel=4 note=62 velocity=88 time=0
EXTRACT: note_on channel=4 note=59 velocity=85 time=0
EXTRACT: note_on channel=4 note=55 velocity=91 time=0
EXTRACT: note_on channel=4 note=47 velocity=85 time=0
EXTRACT: note_on channel=6 note=59 velocity=0 time=0
EXTRACT: note_on channel=6 note=62 velocity=0 time=0
EXTRACT: note_on channel=6 note=66 velocity=0 time=0
EXTRACT: note_on channel=6 note=59 velocity=126 time=0
EXTRACT: note_on channel=6 note=62 velocity=124 time=0
EXTRACT: note_on channel=6 note=67 velocity=121 time=0
EXTRACT: note_on channel=7 note=67 velocity=84 time=0
EXTRACT: note_on channel=7 note=62 velocity=98 time=0
EXTRACT: note_on channel=7 note=59 velocity=74 time=0
EXTRACT: note_on channel=7 note=55 velocity=76 time=0
EXTRACT: note_on channel=7 note=47 velocity=94 time=0
EXTRACT: note_on channel=11 note=59 velocity=122 time=0
EXTRACT: note_on channel=3 note=62 velocity=0 time=0.005263149999999999
EXTRACT: note_on channel=9 note=42 velocity=0 time=0.04736835
EXTRACT: note_on channel=9 note=36 velocity=0 time=0
EXTRACT: note_on channel=1 note=40 velocity=0 time=0.07894725
EXTRACT: note_on channel=11 note=59 velocity=0 time=0.02631575
EXTRACT: note_on channel=2 note=62 velocity=127 time=0.15263134999999997
EXTRACT: note_on channel=9 note=42 velocity=109 time=0.005263149999999999
EXTRACT: note_on channel=1 note=40 velocity=111 time=0
EXTRACT: note_on channel=4 note=67 velocity=0 time=0
EXTRACT: note_on channel=4 note=62 velocity=0 time=0
EXTRACT: note_on channel=4 note=59 velocity=0 time=0
EXTRACT: note_on channel=4 note=55 velocity=0 time=0
EXTRACT: note_on channel=4 note=47 velocity=0 time=0
EXTRACT: note_on channel=7 note=67 velocity=0 time=0
EXTRACT: note_on channel=7 note=62 velocity=0 time=0
EXTRACT: note_on channel=7 note=59 velocity=0 time=0
EXTRACT: note_on channel=7 note=55 velocity=0 time=0
EXTRACT: note_on channel=7 note=47 velocity=0 time=0
EXTRACT: note_on channel=10 note=71 velocity=0 time=0
EXTRACT: note_on channel=10 note=66 velocity=127 time=0
EXTRACT: note_on channel=11 note=59 velocity=125 time=0
EXTRACT: note_on channel=3 note=62 velocity=122 time=0.005263149999999999
EXTRACT: note_on channel=9 note=42 velocity=0 time=0.04736835
EXTRACT: note_on channel=1 note=40 velocity=0 time=0.09999984999999999
EXTRACT: note_on channel=2 note=67 velocity=118 time=0
EXTRACT: note_on channel=1 note=35 velocity=112 time=0.005263149999999999
EXTRACT: note_on channel=4 note=67 velocity=98 time=0
EXTRACT: note_on channel=4 note=62 velocity=103 time=0
EXTRACT: note_on channel=4 note=59 velocity=109 time=0
EXTRACT: note_on channel=4 note=55 velocity=94 time=0
EXTRACT: note_on channel=4 note=47 velocity=94 time=0
EXTRACT: note_on channel=7 note=67 velocity=84 time=0
EXTRACT: note_on channel=7 note=62 velocity=98 time=0
EXTRACT: note_on channel=7 note=59 velocity=74 time=0
EXTRACT: note_on channel=7 note=55 velocity=105 time=0
EXTRACT: note_on channel=7 note=47 velocity=102 time=0
EXTRACT: note_on channel=11 note=59 velocity=0 time=0
EXTRACT: note_on channel=9 note=42 velocity=99 time=0.1578945
EXTRACT: note_on channel=9 note=40 velocity=127 time=0
EXTRACT: note_on channel=9 note=69 velocity=62 time=0
EXTRACT: note_on channel=1 note=35 velocity=0 time=0
EXTRACT: note_on channel=4 note=67 velocity=0 time=0
EXTRACT: note_on channel=4 note=62 velocity=0 time=0
EXTRACT: note_on channel=4 note=59 velocity=0 time=0
EXTRACT: note_on channel=4 note=55 velocity=0 time=0
EXTRACT: note_on channel=4 note=47 velocity=0 time=0
EXTRACT: note_on channel=7 note=67 velocity=0 time=0
EXTRACT: note_on channel=7 note=62 velocity=0 time=0
EXTRACT: note_on channel=7 note=59 velocity=0 time=0
EXTRACT: note_on channel=7 note=55 velocity=0 time=0
EXTRACT: note_on channel=7 note=47 velocity=0 time=0
EXTRACT: note_on channel=10 note=66 velocity=0 time=0
EXTRACT: note_on channel=11 note=59 velocity=111 time=0
EXTRACT: note_on channel=3 note=62 velocity=0 time=0.005263149999999999
EXTRACT: note_on channel=9 note=42 velocity=0 time=0.04736835
EXTRACT: note_on channel=9 note=40 velocity=0 time=0
EXTRACT: note_on channel=9 note=69 velocity=0 time=0
EXTRACT: note_on channel=2 note=62 velocity=111 time=0.09999984999999999
EXTRACT: note_on channel=9 note=69 velocity=70 time=0.005263149999999999
EXTRACT: note_on channel=1 note=35 velocity=125 time=0
EXTRACT: note_on channel=4 note=67 velocity=70 time=0
EXTRACT: note_on channel=4 note=62 velocity=81 time=0
EXTRACT: note_on channel=4 note=59 velocity=57 time=0
EXTRACT: note_on channel=4 note=55 velocity=76 time=0
EXTRACT: note_on channel=4 note=47 velocity=80 time=0
EXTRACT: note_on channel=11 note=59 velocity=0 time=0
EXTRACT: note_on channel=3 note=62 velocity=127 time=0.005263149999999999
EXTRACT: note_on channel=9 note=69 velocity=0 time=0.04736835
EXTRACT: note_on channel=4 note=67 velocity=0 time=0.02631575
EXTRACT: note_on channel=4 note=62 velocity=0 time=0
EXTRACT: note_on channel=4 note=59 velocity=0 time=0
EXTRACT: note_on channel=4 note=55 velocity=0 time=0
EXTRACT: note_on channel=4 note=47 velocity=0 time=0
EXTRACT: note_on channel=1 note=35 velocity=0 time=0.07368409999999999
EXTRACT: note_on channel=9 note=42 velocity=96 time=0.005263149999999999
EXTRACT: note_on channel=1 note=31 velocity=115 time=0
EXTRACT: note_on channel=4 note=67 velocity=65 time=0
EXTRACT: note_on channel=4 note=62 velocity=55 time=0
EXTRACT: note_on channel=4 note=59 velocity=52 time=0
EXTRACT: note_on channel=10 note=64 velocity=122 time=0
EXTRACT: note_on channel=11 note=59 velocity=121 time=0
EXTRACT: note_on channel=3 note=62 velocity=0 time=0.005263149999999999
EXTRACT: note_on channel=3 note=61 velocity=102 time=0
EXTRACT: note_on channel=9 note=42 velocity=0 time=0.04736835
EXTRACT: note_on channel=4 note=67 velocity=0 time=0.02631575
EXTRACT: note_on channel=4 note=62 velocity=0 time=0
EXTRACT: note_on channel=4 note=59 velocity=0 time=0
EXTRACT: note_on channel=2 note=59 velocity=111 time=0.07368409999999999
EXTRACT: note_on channel=9 note=69 velocity=62 time=0.005263149999999999
EXTRACT: note_on channel=1 note=31 velocity=0 time=0
EXTRACT: note_on channel=4 note=67 velocity=62 time=0
EXTRACT: note_on channel=4 note=62 velocity=55 time=0
EXTRACT: note_on channel=4 note=59 velocity=51 time=0
EXTRACT: note_on channel=4 note=55 velocity=54 time=0
EXTRACT: note_on channel=4 note=47 velocity=70 time=0
EXTRACT: note_on channel=11 note=59 velocity=0 time=0
EXTRACT: note_on channel=3 note=61 velocity=0 time=0.005263149999999999
EXTRACT: note_on channel=3 note=59 velocity=126 time=0
EXTRACT: note_on channel=9 note=69 velocity=0 time=0.04736835
EXTRACT: note_on channel=4 note=67 velocity=0 time=0.02631575
EXTRACT: note_on channel=4 note=62 velocity=0 time=0
EXTRACT: note_on channel=4 note=59 velocity=0 time=0
EXTRACT: note_on channel=4 note=55 velocity=0 time=0
EXTRACT: note_on channel=4 note=47 velocity=0 time=0
EXTRACT: note_on channel=9 note=36 velocity=120 time=0.07894725
EXTRACT: note_on channel=9 note=42 velocity=103 time=0
EXTRACT: note_on channel=1 note=28 velocity=117 time=0
EXTRACT: note_on channel=4 note=67 velocity=64 time=0
EXTRACT: note_on channel=4 note=62 velocity=47 time=0
EXTRACT: note_on channel=4 note=59 velocity=71 time=0
EXTRACT: note_on channel=10 note=64 velocity=0 time=0
EXTRACT: note_on channel=3 note=59 velocity=0 time=0.005263149999999999
EXTRACT: note_on channel=9 note=36 velocity=0 time=0.04736835
EXTRACT: note_on channel=9 note=42 velocity=0 time=0
EXTRACT: note_on channel=4 note=67 velocity=0 time=0.02631575
EXTRACT: note_on channel=4 note=62 velocity=0 time=0
EXTRACT: note_on channel=4 note=59 velocity=0 time=0
EXTRACT: note_on channel=2 note=62 velocity=115 time=0.07368409999999999
EXTRACT: note_on channel=9 note=69 velocity=73 time=0.005263149999999999
EXTRACT: note_on channel=3 note=62 velocity=111 time=0.005263149999999999
EXTRACT: note_on channel=9 note=69 velocity=0 time=0.04736835
EXTRACT: note_on channel=9 note=42 velocity=97 time=0.105263
EXTRACT: note_on channel=9 note=69 velocity=78 time=0
EXTRACT: note_on channel=1 note=28 velocity=0 time=0
EXTRACT: note_on channel=4 note=67 velocity=93 time=0
EXTRACT: note_on channel=4 note=62 velocity=103 time=0
EXTRACT: note_on channel=4 note=59 velocity=97 time=0
EXTRACT: note_on channel=4 note=55 velocity=101 time=0
EXTRACT: note_on channel=4 note=47 velocity=91 time=0
EXTRACT: note_on channel=7 note=67 velocity=89 time=0
EXTRACT: note_on channel=7 note=62 velocity=92 time=0
EXTRACT: note_on channel=7 note=59 velocity=97 time=0
EXTRACT: note_on channel=7 note=55 velocity=107 time=0
EXTRACT: note_on channel=7 note=47 velocity=109 time=0
EXTRACT: note_on channel=3 note=62 velocity=0 time=0.005263149999999999
EXTRACT: note_on channel=9 note=42 velocity=0 time=0.04736835
EXTRACT: note_on channel=9 note=69 velocity=0 time=0
EXTRACT: note_on channel=2 note=67 velocity=119 time=0.09999984999999999
EXTRACT: note_on channel=4 note=67 velocity=0 time=0.005263149999999999
EXTRACT: note_on channel=4 note=62 velocity=0 time=0
EXTRACT: note_on channel=4 note=59 velocity=0 time=0
EXTRACT: note_on channel=4 note=55 velocity=0 time=0
EXTRACT: note_on channel=4 note=47 velocity=0 time=0
EXTRACT: note_on channel=7 note=67 velocity=0 time=0
EXTRACT: note_on channel=7 note=62 velocity=0 time=0
EXTRACT: note_on channel=7 note=59 velocity=0 time=0
EXTRACT: note_on channel=7 note=55 velocity=0 time=0
EXTRACT: note_on channel=7 note=47 velocity=0 time=0
EXTRACT: note_on channel=3 note=62 velocity=104 time=0.005263149999999999
EXTRACT: note_on channel=2 note=67 velocity=124 time=0.14736819999999998
EXTRACT: note_on channel=9 note=40 velocity=127 time=0.005263149999999999
EXTRACT: note_on channel=9 note=42 velocity=108 time=0
EXTRACT: note_on channel=9 note=69 velocity=66 time=0
EXTRACT: note_on channel=11 note=59 velocity=125 time=0
EXTRACT: note_on channel=9 note=40 velocity=0 time=0.0526315
EXTRACT: note_on channel=9 note=42 velocity=0 time=0
EXTRACT: note_on channel=9 note=69 velocity=0 time=0
EXTRACT: note_on channel=4 note=67 velocity=40 time=0.105263
EXTRACT: note_on channel=4 note=62 velocity=48 time=0
EXTRACT: note_on channel=4 note=59 velocity=40 time=0
EXTRACT: note_on channel=11 note=59 velocity=0 time=0
EXTRACT: note_on channel=4 note=67 velocity=0 time=0.07894725
EXTRACT: note_on channel=4 note=62 velocity=0 time=0
EXTRACT: note_on channel=4 note=59 velocity=0 time=0
EXTRACT: note_on channel=2 note=62 velocity=124 time=0.07368409999999999
EXTRACT: note_on channel=9 note=42 velocity=102 time=0.005263149999999999
EXTRACT: note_on channel=1 note=28 velocity=124 time=0
EXTRACT: note_on channel=4 note=67 velocity=69 time=0
EXTRACT: note_on channel=4 note=62 velocity=65 time=0
EXTRACT: note_on channel=4 note=59 velocity=87 time=0
EXTRACT: note_on channel=4 note=55 velocity=54 time=0
EXTRACT: note_on channel=4 note=47 velocity=63 time=0
EXTRACT: note_on channel=10 note=62 velocity=120 time=0
EXTRACT: note_on channel=11 note=59 velocity=124 time=0
EXTRACT: note_on channel=9 note=42 velocity=0 time=0.0526315
EXTRACT: note_on channel=4 note=67 velocity=0 time=0.02631575
EXTRACT: note_on channel=4 note=62 velocity=0 time=0
EXTRACT: note_on channel=4 note=59 velocity=0 time=0
EXTRACT: note_on channel=4 note=55 velocity=0 time=0
EXTRACT: note_on channel=4 note=47 velocity=0 time=0
EXTRACT: note_on channel=1 note=28 velocity=0 time=0.07894725
EXTRACT: note_on channel=11 note=59 velocity=0 time=0
EXTRACT: note_on channel=10 note=62 velocity=0 time=0.07894725
EXTRACT: note_on channel=2 note=40 velocity=0 time=0.07368409999999999
EXTRACT: note_on channel=2 note=62 velocity=0 time=0
EXTRACT: note_on channel=2 note=67 velocity=0 time=0
EXTRACT: note_on channel=2 note=62 velocity=0 time=0
EXTRACT: note_on channel=2 note=59 velocity=0 time=0
EXTRACT: note_on channel=2 note=62 velocity=0 time=0
EXTRACT: note_on channel=2 note=67 velocity=0 time=0
EXTRACT: note_on channel=2 note=67 velocity=0 time=0
EXTRACT: note_on channel=2 note=62 velocity=0 time=0
EXTRACT: note_on channel=2 note=57 velocity=108 time=0
EXTRACT: note_on channel=2 note=54 velocity=124 time=0
EXTRACT: note_on channel=9 note=42 velocity=90 time=0.005263149999999999
EXTRACT: note_on channel=9 note=36 velocity=120 time=0
EXTRACT: note_on channel=1 note=30 velocity=110 time=0
EXTRACT: note_on channel=4 note=64 velocity=105 time=0
EXTRACT: note_on channel=4 note=61 velocity=107 time=0
EXTRACT: note_on channel=4 note=57 velocity=116 time=0
EXTRACT: note_on channel=4 note=54 velocity=111 time=0
EXTRACT: note_on channel=6 note=59 velocity=0 time=0
EXTRACT: note_on channel=6 note=62 velocity=0 time=0
EXTRACT: note_on channel=6 note=67 velocity=0 time=0
EXTRACT: note_on channel=6 note=57 velocity=101 time=0
EXTRACT: note_on channel=6 note=61 velocity=110 time=0
EXTRACT: note_on channel=6 note=66 velocity=126 time=0
EXTRACT: note_on channel=7 note=64 velocity=92 time=0
EXTRACT: note_on channel=7 note=61 velocity=112 time=0
EXTRACT: note_on channel=7 note=57 velocity=103 time=0
EXTRACT: note_on channel=7 note=54 velocity=91 time=0
EXTRACT: note_on channel=10 note=62 velocity=127 time=0
EXTRACT: note_on channel=11 note=62 velocity=113 time=0
EXTRACT: note_on channel=3 note=62 velocity=0 time=0.005263149999999999
EXTRACT: note_on channel=9 note=42 velocity=0 time=0.04736835
EXTRACT: note_on channel=9 note=36 velocity=0 time=0
EXTRACT: note_on channel=10 note=62 velocity=0 time=0.105263
EXTRACT: note_on channel=10 note=64 velocity=102 time=0
EXTRACT: note_on channel=11 note=62 velocity=0 time=0
EXTRACT: note_on channel=1 note=30 velocity=0 time=0.04736835
EXTRACT: note_on channel=1 note=30 velocity=119 time=0.005263149999999999
EXTRACT: note_on channel=2 note=61 velocity=105 time=0.09999984999999999
EXTRACT: note_on channel=9 note=42 velocity=108 time=0.005263149999999999
EXTRACT: note_on channel=4 note=64 velocity=0 time=0
EXTRACT: note_on channel=4 note=61 velocity=0 time=0
EXTRACT: note_on channel=4 note=57 velocity=0 time=0
EXTRACT: note_on channel=4 note=54 velocity=0 time=0
EXTRACT: note_on channel=7 note=64 velocity=0 time=0
EXTRACT: note_on channel=7 note=61 velocity=0 time=0
EXTRACT: note_on channel=7 note=57 velocity=0 time=0
EXTRACT: note_on channel=7 note=54 velocity=0 time=0
EXTRACT: note_on channel=10 note=64 velocity=0 time=0
EXTRACT: note_on channel=11 note=59 velocity=121 time=0
EXTRACT: note_on channel=3 note=61 velocity=124 time=0.005263149999999999
EXTRACT: note_on channel=9 note=42 velocity=0 time=0.04736835
EXTRACT: note_on channel=1 note=30 velocity=0 time=0.04736835
EXTRACT: note_on channel=1 note=30 velocity=116 time=0.005263149999999999
EXTRACT: note_on channel=2 note=64 velocity=127 time=0.04736835
EXTRACT: note_on channel=4 note=64 velocity=100 time=0.005263149999999999
EXTRACT: note_on channel=4 note=61 velocity=96 time=0
EXTRACT: note_on channel=4 note=57 velocity=111 time=0
EXTRACT: note_on channel=4 note=54 velocity=110 time=0
EXTRACT: note_on channel=7 note=64 velocity=79 time=0
EXTRACT: note_on channel=7 note=61 velocity=94 time=0
EXTRACT: note_on channel=7 note=57 velocity=75 time=0
EXTRACT: note_on channel=7 note=54 velocity=103 time=0
EXTRACT: note_on channel=10 note=64 velocity=119 time=0
EXTRACT: note_on channel=11 note=59 velocity=0 time=0
EXTRACT: note_on channel=1 note=30 velocity=0 time=0.15263134999999997
EXTRACT: note_on channel=9 note=42 velocity=102 time=0.005263149999999999
EXTRACT: note_on channel=9 note=40 velocity=127 time=0
EXTRACT: note_on channel=9 note=69 velocity=62 time=0
EXTRACT: note_on channel=1 note=37 velocity=119 time=0
EXTRACT: note_on channel=4 note=64 velocity=0 time=0
EXTRACT: note_on channel=4 note=61 velocity=0 time=0
EXTRACT: note_on channel=4 note=57 velocity=0 time=0
EXTRACT: note_on channel=4 note=54 velocity=0 time=0
EXTRACT: note_on channel=7 note=64 velocity=0 time=0
EXTRACT: note_on channel=7 note=61 velocity=0 time=0
EXTRACT: note_on channel=7 note=57 velocity=0 time=0
EXTRACT: note_on channel=7 note=54 velocity=0 time=0
EXTRACT: note_on channel=10 note=64 velocity=0 time=0
EXTRACT: note_on channel=11 note=59 velocity=115 time=0
EXTRACT: note_on channel=3 note=61 velocity=0 time=0.005263149999999999
EXTRACT: note_on channel=9 note=42 velocity=0 time=0.04736835
EXTRACT: note_on channel=9 note=40 velocity=0 time=0
EXTRACT: note_on channel=9 note=69 velocity=0 time=0
EXTRACT: note_on channel=2 note=61 velocity=127 time=0.09999984999999999
EXTRACT: note_on channel=9 note=69 velocity=70 time=0.005263149999999999
EXTRACT: note_on channel=4 note=64 velocity=79 time=0
EXTRACT: note_on channel=4 note=61 velocity=55 time=0
EXTRACT: note_on channel=4 note=57 velocity=67 time=0
EXTRACT: note_on channel=4 note=54 velocity=57 time=0
EXTRACT: note_on channel=11 note=59 velocity=0 time=0
EXTRACT: note_on channel=3 note=61 velocity=107 time=0.005263149999999999
EXTRACT: note_on channel=9 note=69 velocity=0 time=0.04736835
EXTRACT: note_on channel=1 note=37 velocity=0 time=0.02631575
EXTRACT: note_on channel=4 note=64 velocity=0 time=0
EXTRACT: note_on channel=4 note=61 velocity=0 time=0
EXTRACT: note_on channel=4 note=57 velocity=0 time=0
EXTRACT: note_on channel=4 note=54 velocity=0 time=0
EXTRACT: note_on channel=9 note=42 velocity=101 time=0.07894725
EXTRACT: note_on channel=1 note=42 velocity=116 time=0
EXTRACT: note_on channel=4 note=64 velocity=41 time=0
EXTRACT: note_on channel=4 note=61 velocity=62 time=0
EXTRACT: note_on channel=4 note=57 velocity=57 time=0
EXTRACT: note_on channel=10 note=62 velocity=113 time=0
EXTRACT: note_on channel=11 note=59 velocity=121 time=0
EXTRACT: note_on channel=9 note=42 velocity=0 time=0.0526315
EXTRACT: note_on channel=4 note=64 velocity=0 time=0.02631575
EXTRACT: note_on channel=4 note=61 velocity=0 time=0
EXTRACT: note_on channel=4 note=57 velocity=0 time=0
EXTRACT: note_on channel=2 note=57 velocity=108 time=0.07368409999999999
EXTRACT: note_on channel=9 note=69 velocity=62 time=0.005263149999999999
EXTRACT: note_on channel=4 note=64 velocity=62 time=0
EXTRACT: note_on channel=4 note=61 velocity=79 time=0
EXTRACT: note_on channel=4 note=57 velocity=65 time=0
EXTRACT: note_on channel=4 note=54 velocity=82 time=0
EXTRACT: note_on channel=10 note=62 velocity=0 time=0
EXTRACT: note_on channel=11 note=59 velocity=0 time=0
EXTRACT: note_on channel=3 note=61 velocity=0 time=0.005263149999999999
EXTRACT: note_on channel=9 note=69 velocity=0 time=0.04736835
EXTRACT: note_on channel=1 note=42 velocity=0 time=0.02631575
EXTRACT: note_on channel=4 note=64 velocity=0 time=0
EXTRACT: note_on channel=4 note=61 velocity=0 time=0
EXTRACT: note_on channel=4 note=57 velocity=0 time=0
EXTRACT: note_on channel=4 note=54 velocity=0 time=0
EXTRACT: note_on channel=2 note=61 velocity=111 time=0.07368409999999999
EXTRACT: note_on channel=9 note=36 velocity=120 time=0.005263149999999999
EXTRACT: note_on channel=9 note=42 velocity=94 time=0
EXTRACT: note_on channel=1 note=37 velocity=127 time=0
EXTRACT: note_on channel=4 note=64 velocity=69 time=0
EXTRACT: note_on channel=4 note=61 velocity=70 time=0
EXTRACT: note_on channel=4 note=57 velocity=56 time=0
EXTRACT: note_on channel=10 note=62 velocity=121 time=0
EXTRACT: note_on channel=11 note=62 velocity=109 time=0
EXTRACT: note_on channel=3 note=61 velocity=114 time=0.005263149999999999
EXTRACT: note_on channel=9 note=36 velocity=0 time=0.04736835
EXTRACT: note_on channel=9 note=42 velocity=0 time=0
EXTRACT: note_on channel=4 note=64 velocity=0 time=0.02631575
EXTRACT: note_on channel=4 note=61 velocity=0 time=0
EXTRACT: note_on channel=4 note=57 velocity=0 time=0
EXTRACT: note_on channel=2 note=64 velocity=117 time=0.07368409999999999
EXTRACT: note_on channel=9 note=69 velocity=73 time=0.005263149999999999
EXTRACT: note_on channel=10 note=62 velocity=0 time=0
EXTRACT: note_on channel=10 note=64 velocity=125 time=0
EXTRACT: note_on channel=11 note=62 velocity=0 time=0
EXTRACT: note_on channel=11 note=61 velocity=104 time=0
EXTRACT: note_on channel=9 note=69 velocity=0 time=0.0526315
EXTRACT: note_on channel=2 note=66 velocity=126 time=0.09999984999999999
EXTRACT: note_on channel=9 note=36 velocity=120 time=0.005263149999999999
EXTRACT: note_on channel=9 note=42 velocity=106 time=0
EXTRACT: note_on channel=9 note=69 velocity=78 time=0
EXTRACT: note_on channel=4 note=64 velocity=91 time=0
EXTRACT: note_on channel=4 note=61 velocity=113 time=0
EXTRACT: note_on channel=4 note=57 velocity=100 time=0
EXTRACT: note_on channel=4 note=54 velocity=113 time=0
EXTRACT: note_on channel=7 note=64 velocity=88 time=0
EXTRACT: note_on channel=7 note=61 velocity=80 time=0
EXTRACT: note_on channel=7 note=57 velocity=109 time=0
EXTRACT: note_on channel=7 note=54 velocity=106 time=0
EXTRACT: note_on channel=10 note=64 velocity=0 time=0
EXTRACT: note_on channel=10 note=73 velocity=115 time=0
EXTRACT: note_on channel=11 note=61 velocity=0 time=0
EXTRACT: note_on channel=11 note=59 velocity=107 time=0
EXTRACT: note_on channel=9 note=36 velocity=0 time=0.0526315
EXTRACT: note_on channel=9 note=42 velocity=0 time=0
EXTRACT: note_on channel=9 note=69 velocity=0 time=0
EXTRACT: note_on channel=1 note=37 velocity=0 time=0.04736835
EXTRACT: note_on channel=1 note=42 velocity=114 time=0.005263149999999999
EXTRACT: note_on channel=2 note=69 velocity=110 time=0.04736835
EXTRACT: note_on channel=4 note=64 velocity=0 time=0.005263149999999999
EXTRACT: note_on channel=4 note=61 velocity=0 time=0
EXTRACT: note_on channel=4 note=57 velocity=0 time=0
EXTRACT: note_on channel=4 note=54 velocity=0 time=0
EXTRACT: note_on channel=7 note=64 velocity=0 time=0
EXTRACT: note_on channel=7 note=61 velocity=0 time=0
EXTRACT: note_on channel=7 note=57 velocity=0 time=0
EXTRACT: note_on channel=7 note=54 velocity=0 time=0
EXTRACT: note_on channel=10 note=73 velocity=0 time=0
EXTRACT: note_on channel=10 note=69 velocity=102 time=0
EXTRACT: note_on channel=11 note=59 velocity=0 time=0
EXTRACT: note_on channel=9 note=40 velocity=127 time=0.1578945
EXTRACT: note_on channel=9 note=42 velocity=106 time=0
EXTRACT: note_on channel=9 note=69 velocity=66 time=0
EXTRACT: note_on channel=10 note=69 velocity=0 time=0
EXTRACT: note_on channel=11 note=59 velocity=123 time=0
EXTRACT: note_on channel=9 note=40 velocity=0 time=0.0526315
EXTRACT: note_on channel=9 note=42 velocity=0 time=0
EXTRACT: note_on channel=9 note=69 velocity=0 time=0
EXTRACT: note_on channel=4 note=64 velocity=61 time=0.105263
EXTRACT: note_on channel=4 note=61 velocity=52 time=0
EXTRACT: note_on channel=4 note=57 velocity=59 time=0
EXTRACT: note_on channel=1 note=42 velocity=0 time=0.04736835
EXTRACT: note_on channel=1 note=49 velocity=108 time=0.005263149999999999
EXTRACT: note_on channel=4 note=64 velocity=0 time=0.02631575
EXTRACT: note_on channel=4 note=61 velocity=0 time=0
EXTRACT: note_on channel=4 note=57 velocity=0 time=0
EXTRACT: note_on channel=9 note=36 velocity=90 time=0.07894725
EXTRACT: note_on channel=9 note=42 velocity=106 time=0
EXTRACT: note_on channel=4 note=64 velocity=54 time=0
EXTRACT: note_on channel=4 note=61 velocity=64 time=0
EXTRACT: note_on channel=4 note=57 velocity=62 time=0
EXTRACT: note_on channel=4 note=54 velocity=85 time=0
EXTRACT: note_on channel=10 note=69 velocity=105 time=0
EXTRACT: note_on channel=11 note=59 velocity=0 time=0
EXTRACT: note_on channel=3 note=61 velocity=107 time=0.005263149999999999
EXTRACT: note_on channel=9 note=36 velocity=0 time=0.04736835
EXTRACT: note_on channel=9 note=42 velocity=0 time=0
EXTRACT: note_on channel=4 note=64 velocity=0 time=0.02631575
EXTRACT: note_on channel=4 note=61 velocity=0 time=0
EXTRACT: note_on channel=4 note=57 velocity=0 time=0
EXTRACT: note_on channel=4 note=54 velocity=0 time=0
EXTRACT: note_on channel=9 note=40 velocity=127 time=0.07894725
EXTRACT: note_on channel=10 note=69 velocity=0 time=0
EXTRACT: note_on channel=9 note=40 velocity=0 time=0.0526315
EXTRACT: note_on channel=1 note=49 velocity=0 time=0.09999984999999999
EXTRACT: note_on channel=2 note=57 velocity=0 time=0
EXTRACT: note_on channel=2 note=54 velocity=0 time=0
EXTRACT: note_on channel=2 note=61 velocity=0 time=0
EXTRACT: note_on channel=2 note=64 velocity=0 time=0
EXTRACT: note_on channel=2 note=61 velocity=0 time=0
EXTRACT: note_on channel=2 note=57 velocity=0 time=0
EXTRACT: note_on channel=2 note=61 velocity=0 time=0
EXTRACT: note_on channel=2 note=64 velocity=0 time=0
EXTRACT: note_on channel=2 note=66 velocity=0 time=0
EXTRACT: note_on channel=2 note=69 velocity=0 time=0
EXTRACT: note_on channel=2 note=47 velocity=105 time=0
EXTRACT: note_on channel=9 note=57 velocity=90 time=0.005263149999999999
EXTRACT: note_on channel=9 note=36 velocity=120 time=0
EXTRACT: note_on channel=1 note=35 velocity=125 time=0
EXTRACT: note_on channel=4 note=66 velocity=96 time=0
EXTRACT: note_on channel=4 note=62 velocity=86 time=0
EXTRACT: note_on channel=4 note=59 velocity=103 time=0
EXTRACT: note_on channel=4 note=54 velocity=97 time=0
EXTRACT: note_on channel=4 note=47 velocity=116 time=0
EXTRACT: note_on channel=6 note=57 velocity=0 time=0
EXTRACT: note_on channel=6 note=61 velocity=0 time=0
EXTRACT: note_on channel=6 note=66 velocity=0 time=0
EXTRACT: control_change channel=6 control=11 value=40 time=0
EXTRACT: note_on channel=6 note=59 velocity=118 time=0
EXTRACT: note_on channel=6 note=62 velocity=111 time=0
EXTRACT: note_on channel=6 note=66 velocity=124 time=0
EXTRACT: note_on channel=7 note=66 velocity=93 time=0
EXTRACT: note_on channel=7 note=62 velocity=88 time=0
EXTRACT: note_on channel=7 note=59 velocity=97 time=0
EXTRACT: note_on channel=7 note=54 velocity=112 time=0
EXTRACT: note_on channel=7 note=47 velocity=109 time=0
EXTRACT: note_on channel=11 note=59 velocity=105 time=0
EXTRACT: note_on channel=3 note=61 velocity=0 time=0.005263149999999999
EXTRACT: note_on channel=3 note=61 velocity=0 time=0
EXTRACT: control_change channel=6 control=11 value=41 time=0.02631575
EXTRACT: note_on channel=9 note=57 velocity=0 time=0.021052599999999998
EXTRACT: note_on channel=9 note=36 velocity=0 time=0
EXTRACT: control_change channel=6 control=11 value=42 time=0.010526299999999999
EXTRACT: control_change channel=6 control=11 value=43 time=0.03157889999999999
EXTRACT: control_change channel=6 control=11 value=44 time=0.03157889999999999
EXTRACT: note_on channel=1 note=35 velocity=0 time=0.02631575
EXTRACT: note_on channel=1 note=35 velocity=117 time=0.005263149999999999
EXTRACT: control_change channel=6 control=11 value=45 time=0
EXTRACT: note_on channel=10 note=71 velocity=116 time=0
EXTRACT: control_change channel=6 control=11 value=46 time=0.03157889999999999
EXTRACT: control_change channel=6 control=11 value=47 time=0.03157889999999999
EXTRACT: control_change channel=6 control=11 value=48 time=0.03157889999999999
EXTRACT: control_change channel=6 control=11 value=49 time=0.03157889999999999
EXTRACT: note_on channel=2 note=62 velocity=120 time=0.02631575
EXTRACT: note_on channel=9 note=42 velocity=99 time=0.005263149999999999
EXTRACT: note_on channel=1 note=35 velocity=0 time=0
EXTRACT: note_on channel=4 note=66 velocity=0 time=0
EXTRACT: note_on channel=4 note=62 velocity=0 time=0
EXTRACT: note_on channel=4 note=59 velocity=0 time=0
EXTRACT: note_on channel=4 note=54 velocity=0 time=0
EXTRACT: note_on channel=4 note=47 velocity=0 time=0
EXTRACT: control_change channel=6 control=11 value=50 time=0
EXTRACT: note_on channel=7 note=66 velocity=0 time=0
EXTRACT: note_on channel=7 note=62 velocity=0 time=0
EXTRACT: note_on channel=7 note=59 velocity=0 time=0
EXTRACT: note_on channel=7 note=54 velocity=0 time=0
EXTRACT: note_on channel=7 note=47 velocity=0 time=0
EXTRACT: note_on channel=10 note=71 velocity=0 time=0
EXTRACT: note_on channel=3 note=62 velocity=115 time=0.005263149999999999
EXTRACT: control_change channel=6 control=11 value=51 time=0.02631575
EXTRACT: note_on channel=9 note=42 velocity=0 time=0.021052599999999998
EXTRACT: control_change channel=6 control=11 value=52 time=0.010526299999999999
EXTRACT: control_change channel=6 control=11 value=53 time=0.03157889999999999
EXTRACT: control_change channel=6 control=11 value=54 time=0.03157889999999999
EXTRACT: note_on channel=2 note=66 velocity=106 time=0.02631575
EXTRACT: note_on channel=1 note=42 velocity=120 time=0.005263149999999999
EXTRACT: note_on channel=4 note=66 velocity=114 time=0
EXTRACT: note_on channel=4 note=62 velocity=109 time=0
EXTRACT: note_on channel=4 note=59 velocity=106 time=0
EXTRACT: note_on channel=4 note=54 velocity=97 time=0
EXTRACT: note_on channel=4 note=47 velocity=95 time=0
EXTRACT: control_change channel=6 control=11 value=55 time=0
EXTRACT: note_on channel=7 note=66 velocity=94 time=0
EXTRACT: note_on channel=7 note=62 velocity=91 time=0
EXTRACT: note_on channel=7 note=59 velocity=84 time=0
EXTRACT: note_on channel=7 note=54 velocity=97 time=0
EXTRACT: note_on channel=7 note=47 velocity=76 time=0
EXTRACT: note_on channel=11 note=59 velocity=0 time=0
EXTRACT: note_on channel=11 note=59 velocity=108 time=0
EXTRACT: control_change channel=6 control=11 value=56 time=0.03157889999999999
EXTRACT: control_change channel=6 control=11 value=57 time=0.03157889999999999
EXTRACT: control_change channel=6 control=11 value=58 time=0.03157889999999999
EXTRACT: control_change channel=6 control=11 value=59 time=0.03157889999999999
EXTRACT: note_on channel=9 note=42 velocity=102 time=0.03157889999999999
EXTRACT: note_on channel=9 note=40 velocity=127 time=0
EXTRACT: note_on channel=9 note=69 velocity=62 time=0
EXTRACT: note_on channel=1 note=42 velocity=0 time=0
EXTRACT: note_on channel=4 note=66 velocity=0 time=0
EXTRACT: note_on channel=4 note=62 velocity=0 time=0
EXTRACT: note_on channel=4 note=59 velocity=0 time=0
EXTRACT: note_on channel=4 note=54 velocity=0 time=0
EXTRACT: note_on channel=4 note=47 velocity=0 time=0
EXTRACT: control_change channel=6 control=11 value=60 time=0
EXTRACT: note_on channel=7 note=66 velocity=0 time=0
EXTRACT: note_on channel=7 note=62 velocity=0 time=0
EXTRACT: note_on channel=7 note=59 velocity=0 time=0
EXTRACT: note_on channel=7 note=54 velocity=0 time=0
EXTRACT: note_on channel=7 note=47 velocity=0 time=0
EXTRACT: note_on channel=10 note=71 velocity=107 time=0
EXTRACT: note_on channel=3 note=62 velocity=0 time=0.005263149999999999
EXTRACT: control_change channel=6 control=11 value=61 time=0.02631575
EXTRACT: note_on channel=9 note=42 velocity=0 time=0.021052599999999998
EXTRACT: note_on channel=9 note=40 velocity=0 time=0
EXTRACT: note_on channel=9 note=69 velocity=0 time=0
EXTRACT: control_change channel=6 control=11 value=62 time=0.010526299999999999
EXTRACT: control_change channel=6 control=11 value=63 time=0.03157889999999999
EXTRACT: control_change channel=6 control=11 value=64 time=0.03157889999999999
EXTRACT: note_on channel=2 note=62 velocity=125 time=0.02631575
EXTRACT: note_on channel=9 note=69 velocity=70 time=0.005263149999999999
EXTRACT: note_on channel=1 note=42 velocity=119 time=0
EXTRACT: note_on channel=4 note=66 velocity=60 time=0
EXTRACT: note_on channel=4 note=62 velocity=90 time=0
EXTRACT: note_on channel=4 note=59 velocity=57 time=0
EXTRACT: note_on channel=4 note=54 velocity=78 time=0
EXTRACT: note_on channel=4 note=47 velocity=65 time=0
EXTRACT: control_change channel=6 control=11 value=65 time=0
EXTRACT: note_on channel=10 note=71 velocity=0 time=0
EXTRACT: note_on channel=3 note=62 velocity=126 time=0.005263149999999999
EXTRACT: control_change channel=6 control=11 value=66 time=0.02631575
EXTRACT: note_on channel=9 note=69 velocity=0 time=0.021052599999999998
EXTRACT: control_change channel=6 control=11 value=67 time=0.010526299999999999
EXTRACT: note_on channel=4 note=66 velocity=0 time=0.015789449999999997
EXTRACT: note_on channel=4 note=62 velocity=0 time=0
EXTRACT: note_on channel=4 note=59 velocity=0 time=0
EXTRACT: note_on channel=4 note=54 velocity=0 time=0
EXTRACT: note_on channel=4 note=47 velocity=0 time=0
EXTRACT: control_change channel=6 control=11 value=68 time=0.015789449999999997
EXTRACT: control_change channel=6 control=11 value=69 time=0.03157889999999999
EXTRACT: note_on channel=1 note=42 velocity=0 time=0.02631575
EXTRACT: note_on channel=9 note=42 velocity=96 time=0.005263149999999999
EXTRACT: note_on channel=1 note=38 velocity=120 time=0
EXTRACT: note_on channel=4 note=66 velocity=59 time=0
EXTRACT: note_on channel=4 note=62 velocity=43 time=0
EXTRACT: note_on channel=4 note=59 velocity=42 time=0
EXTRACT: control_change channel=6 control=11 value=70 time=0
EXTRACT: note_on channel=11 note=59 velocity=0 time=0
EXTRACT: note_on channel=11 note=59 velocity=118 time=0
EXTRACT: note_on channel=3 note=62 velocity=0 time=0.005263149999999999
EXTRACT: note_on channel=3 note=61 velocity=104 time=0
EXTRACT: control_change channel=6 control=11 value=71 time=0.02631575
EXTRACT: note_on channel=9 note=42 velocity=0 time=0.021052599999999998
EXTRACT: control_change channel=6 control=11 value=72 time=0.010526299999999999
EXTRACT: note_on channel=4 note=66 velocity=0 time=0.015789449999999997
EXTRACT: note_on channel=4 note=62 velocity=0 time=0
EXTRACT: note_on channel=4 note=59 velocity=0 time=0
EXTRACT: control_change channel=6 control=11 value=73 time=0.015789449999999997
EXTRACT: control_change channel=6 control=11 value=74 time=0.03157889999999999
EXTRACT: note_on channel=2 note=59 velocity=121 time=0.02631575
EXTRACT: note_on channel=9 note=69 velocity=62 time=0.005263149999999999
EXTRACT: note_on channel=1 note=38 velocity=0 time=0
EXTRACT: note_on channel=4 note=66 velocity=61 time=0
EXTRACT: note_on channel=4 note=62 velocity=62 time=0
EXTRACT: note_on channel=4 note=59 velocity=52 time=0
EXTRACT: note_on channel=4 note=54 velocity=66 time=0
EXTRACT: note_on channel=4 note=47 velocity=52 time=0
EXTRACT: control_change channel=6 control=11 value=75 time=0
EXTRACT: note_on channel=11 note=59 velocity=0 time=0
EXTRACT: note_on channel=3 note=61 velocity=0 time=0.005263149999999999
EXTRACT: note_on channel=3 note=59 velocity=110 time=0
EXTRACT: control_change channel=6 control=11 value=76 time=0.02631575
EXTRACT: note_on channel=9 note=69 velocity=0 time=0.021052599999999998
EXTRACT: control_change channel=6 control=11 value=77 time=0.010526299999999999
EXTRACT: note_on channel=4 note=66 velocity=0 time=0.015789449999999997
EXTRACT: note_on channel=4 note=62 velocity=0 time=0
EXTRACT: note_on channel=4 note=59 velocity=0 time=0
EXTRACT: note_on channel=4 note=54 velocity=0 time=0
EXTRACT: note_on channel=4 note=47 velocity=0 time=0
EXTRACT: control_change channel=6 control=11 value=78 time=0.015789449999999997
EXTRACT: control_change channel=6 control=11 value=79 time=0.03157889999999999
EXTRACT: note_on channel=9 note=36 velocity=120 time=0.03157889999999999
EXTRACT: note_on channel=9 note=42 velocity=106 time=0
EXTRACT: note_on channel=1 note=35 velocity=118 time=0
EXTRACT: note_on channel=4 note=66 velocity=48 time=0
EXTRACT: note_on channel=4 note=62 velocity=46 time=0
EXTRACT: note_on channel=4 note=59 velocity=70 time=0
EXTRACT: control_change channel=6 control=11 value=80 time=0
EXTRACT: note_on channel=11 note=62 velocity=121 time=0
EXTRACT: note_on channel=3 note=59 velocity=0 time=0.005263149999999999
EXTRACT: note_on channel=9 note=36 velocity=0 time=0.04736835
EXTRACT: note_on channel=9 note=42 velocity=0 time=0
EXTRACT: note_on channel=4 note=66 velocity=0 time=0.02631575
EXTRACT: note_on channel=4 note=62 velocity=0 time=0
EXTRACT: note_on channel=4 note=59 velocity=0 time=0
EXTRACT: note_on channel=2 note=62 velocity=124 time=0.07368409999999999
EXTRACT: note_on channel=9 note=69 velocity=73 time=0.005263149999999999
EXTRACT: note_on channel=11 note=62 velocity=0 time=0
EXTRACT: note_on channel=3 note=62 velocity=123 time=0.005263149999999999
EXTRACT: note_on channel=9 note=69 velocity=0 time=0.04736835
EXTRACT: note_on channel=9 note=42 velocity=102 time=0.105263
EXTRACT: note_on channel=9 note=69 velocity=78 time=0
EXTRACT: note_on channel=1 note=35 velocity=0 time=0
EXTRACT: note_on channel=4 note=66 velocity=113 time=0
EXTRACT: note_on channel=4 note=62 velocity=107 time=0
EXTRACT: note_on channel=4 note=59 velocity=98 time=0
EXTRACT: note_on channel=4 note=54 velocity=116 time=0
EXTRACT: note_on channel=4 note=47 velocity=87 time=0
EXTRACT: note_on channel=7 note=66 velocity=110 time=0
EXTRACT: note_on channel=7 note=62 velocity=104 time=0
EXTRACT: note_on channel=7 note=59 velocity=90 time=0
EXTRACT: note_on channel=7 note=54 velocity=95 time=0
EXTRACT: note_on channel=7 note=47 velocity=78 time=0
EXTRACT: note_on channel=11 note=59 velocity=121 time=0
EXTRACT: note_on channel=3 note=62 velocity=0 time=0.005263149999999999
EXTRACT: note_on channel=9 note=42 velocity=0 time=0.04736835
EXTRACT: note_on channel=9 note=69 velocity=0 time=0
EXTRACT: note_on channel=2 note=66 velocity=120 time=0.09999984999999999
EXTRACT: note_on channel=4 note=66 velocity=0 time=0.005263149999999999
EXTRACT: note_on channel=4 note=62 velocity=0 time=0
EXTRACT: note_on channel=4 note=59 velocity=0 time=0
EXTRACT: note_on channel=4 note=54 velocity=0 time=0
EXTRACT: note_on channel=4 note=47 velocity=0 time=0
EXTRACT: note_on channel=7 note=66 velocity=0 time=0
EXTRACT: note_on channel=7 note=62 velocity=0 time=0
EXTRACT: note_on channel=7 note=59 velocity=0 time=0
EXTRACT: note_on channel=7 note=54 velocity=0 time=0
EXTRACT: note_on channel=7 note=47 velocity=0 time=0
EXTRACT: note_on channel=11 note=59 velocity=0 time=0
EXTRACT: note_on channel=3 note=62 velocity=103 time=0.005263149999999999
EXTRACT: note_on channel=2 note=66 velocity=116 time=0.14736819999999998
EXTRACT: note_on channel=9 note=40 velocity=127 time=0.005263149999999999
EXTRACT: note_on channel=9 note=42 velocity=107 time=0
EXTRACT: note_on channel=9 note=69 velocity=66 time=0
EXTRACT: note_on channel=10 note=66 velocity=121 time=0
EXTRACT: note_on channel=11 note=59 velocity=117 time=0
EXTRACT: note_on channel=9 note=40 velocity=0 time=0.0526315
EXTRACT: note_on channel=9 note=42 velocity=0 time=0
EXTRACT: note_on channel=9 note=69 velocity=0 time=0
EXTRACT: note_on channel=4 note=66 velocity=52 time=0.105263
EXTRACT: note_on channel=4 note=62 velocity=54 time=0
EXTRACT: note_on channel=4 note=59 velocity=61 time=0
EXTRACT: note_on channel=10 note=66 velocity=0 time=0
EXTRACT: note_on channel=4 note=66 velocity=0 time=0.07894725
EXTRACT: note_on channel=4 note=62 velocity=0 time=0
EXTRACT: note_on channel=4 note=59 velocity=0 time=0
EXTRACT: note_on channel=2 note=62 velocity=120 time=0.07368409999999999
EXTRACT: note_on channel=9 note=42 velocity=104 time=0.005263149999999999
EXTRACT: note_on channel=1 note=30 velocity=108 time=0
EXTRACT: note_on channel=4 note=66 velocity=78 time=0
EXTRACT: note_on channel=4 note=62 velocity=66 time=0
EXTRACT: note_on channel=4 note=59 velocity=77 time=0
EXTRACT: note_on channel=4 note=54 velocity=56 time=0
EXTRACT: note_on channel=4 note=47 velocity=59 time=0
EXTRACT: note_on channel=10 note=74 velocity=102 time=0
EXTRACT: note_on channel=11 note=59 velocity=0 time=0
EXTRACT: note_on channel=9 note=42 velocity=0 time=0.0526315
EXTRACT: note_on channel=4 note=66 velocity=0 time=0.02631575
EXTRACT: note_on channel=4 note=62 velocity=0 time=0
EXTRACT: note_on channel=4 note=59 velocity=0 time=0
EXTRACT: note_on channel=4 note=54 velocity=0 time=0
EXTRACT: note_on channel=4 note=47 velocity=0 time=0
EXTRACT: note_on channel=1 note=30 velocity=0 time=0.07894725
EXTRACT: note_on channel=2 note=47 velocity=0 time=0.15263134999999997
EXTRACT: note_on channel=2 note=62 velocity=0 time=0
EXTRACT: note_on channel=2 note=66 velocity=0 time=0
EXTRACT: note_on channel=2 note=62 velocity=0 time=0
EXTRACT: note_on channel=2 note=59 velocity=0 time=0
EXTRACT: note_on channel=2 note=62 velocity=0 time=0
EXTRACT: note_on channel=2 note=66 velocity=0 time=0
EXTRACT: note_on channel=2 note=66 velocity=0 time=0
EXTRACT: note_on channel=2 note=47 velocity=115 time=0
EXTRACT: note_on channel=9 note=42 velocity=108 time=0.005263149999999999
EXTRACT: note_on channel=9 note=36 velocity=120 time=0
EXTRACT: note_on channel=1 note=35 velocity=108 time=0
EXTRACT: note_on channel=4 note=66 velocity=99 time=0
EXTRACT: note_on channel=4 note=62 velocity=112 time=0
EXTRACT: note_on channel=4 note=59 velocity=113 time=0
EXTRACT: note_on channel=4 note=54 velocity=97 time=0
EXTRACT: note_on channel=4 note=47 velocity=93 time=0
EXTRACT: note_on channel=7 note=66 velocity=100 time=0
EXTRACT: note_on channel=7 note=62 velocity=84 time=0
EXTRACT: note_on channel=7 note=59 velocity=84 time=0
EXTRACT: note_on channel=7 note=54 velocity=79 time=0
EXTRACT: note_on channel=7 note=47 velocity=106 time=0
EXTRACT: note_on channel=11 note=64 velocity=111 time=0
EXTRACT: note_on channel=3 note=62 velocity=0 time=0.005263149999999999
EXTRACT: note_on channel=9 note=42 velocity=0 time=0.04736835
EXTRACT: note_on channel=9 note=36 velocity=0 time=0
EXTRACT: note_on channel=10 note=74 velocity=0 time=0.0526315
EXTRACT: note_on channel=11 note=64 velocity=0 time=0.0526315
EXTRACT: note_on channel=10 note=71 velocity=117 time=0.0526315
EXTRACT: note_on channel=1 note=35 velocity=0 time=0.02631575
EXTRACT: note_on channel=2 note=62 velocity=0 time=0.07368409999999999
EXTRACT: note_on channel=2 note=62 velocity=116 time=0
EXTRACT: note_on channel=9 note=42 velocity=94 time=0.005263149999999999
EXTRACT: note_on channel=4 note=66 velocity=0 time=0
EXTRACT: note_on channel=4 note=62 velocity=0 time=0
EXTRACT: note_on channel=4 note=59 velocity=0 time=0
EXTRACT: note_on channel=4 note=54 velocity=0 time=0
EXTRACT: note_on channel=4 note=47 velocity=0 time=0
EXTRACT: note_on channel=7 note=66 velocity=0 time=0
EXTRACT: note_on channel=7 note=62 velocity=0 time=0
EXTRACT: note_on channel=7 note=59 velocity=0 time=0
EXTRACT: note_on channel=7 note=54 velocity=0 time=0
EXTRACT: note_on channel=7 note=47 velocity=0 time=0
EXTRACT: note_on channel=11 note=64 velocity=112 time=0
EXTRACT: note_on channel=3 note=62 velocity=120 time=0.005263149999999999
EXTRACT: note_on channel=9 note=42 velocity=0 time=0.04736835
EXTRACT: note_on channel=10 note=71 velocity=0 time=0.0526315
EXTRACT: note_on channel=2 note=66 velocity=124 time=0.04736835
EXTRACT: note_on channel=1 note=35 velocity=114 time=0.005263149999999999
EXTRACT: note_on channel=4 note=66 velocity=111 time=0
EXTRACT: note_on channel=4 note=62 velocity=98 time=0
EXTRACT: note_on channel=4 note=59 velocity=88 time=0
EXTRACT: note_on channel=4 note=54 velocity=106 time=0
EXTRACT: note_on channel=4 note=47 velocity=96 time=0
EXTRACT: note_on channel=7 note=66 velocity=98 time=0
EXTRACT: note_on channel=7 note=62 velocity=97 time=0
EXTRACT: note_on channel=7 note=59 velocity=84 time=0
EXTRACT: note_on channel=7 note=54 velocity=77 time=0
EXTRACT: note_on channel=7 note=47 velocity=78 time=0
EXTRACT: note_on channel=11 note=64 velocity=0 time=0
EXTRACT: note_on channel=11 note=64 velocity=121 time=0
EXTRACT: note_on channel=9 note=42 velocity=104 time=0.1578945
EXTRACT: note_on channel=9 note=40 velocity=127 time=0
EXTRACT: note_on channel=9 note=69 velocity=62 time=0
EXTRACT: note_on channel=1 note=35 velocity=0 time=0
EXTRACT: note_on channel=4 note=66 velocity=0 time=0
EXTRACT: note_on channel=4 note=62 velocity=0 time=0
EXTRACT: note_on channel=4 note=59 velocity=0 time=0
EXTRACT: note_on channel=4 note=54 velocity=0 time=0
EXTRACT: note_on channel=4 note=47 velocity=0 time=0
EXTRACT: note_on channel=7 note=66 velocity=0 time=0
EXTRACT: note_on channel=7 note=62 velocity=0 time=0
EXTRACT: note_on channel=7 note=59 velocity=0 time=0
EXTRACT: note_on channel=7 note=54 velocity=0 time=0
EXTRACT: note_on channel=7 note=47 velocity=0 time=0
EXTRACT: note_on channel=10 note=71 velocity=122 time=0
EXTRACT: note_on channel=11 note=64 velocity=0 time=0
EXTRACT: note_on channel=3 note=62 velocity=0 time=0.005263149999999999
EXTRACT: note_on channel=9 note=42 velocity=0 time=0.04736835
EXTRACT: note_on channel=9 note=40 velocity=0 time=0
EXTRACT: note_on channel=9 note=69 velocity=0 time=0
EXTRACT: note_on channel=2 note=62 velocity=122 time=0.09999984999999999
EXTRACT: note_on channel=9 note=69 velocity=70 time=0.005263149999999999
EXTRACT: note_on channel=4 note=66 velocity=77 time=0
EXTRACT: note_on channel=4 note=62 velocity=88 time=0
EXTRACT: note_on channel=4 note=59 velocity=87 time=0
EXTRACT: note_on channel=4 note=54 velocity=89 time=0
EXTRACT: note_on channel=4 note=47 velocity=61 time=0
EXTRACT: note_on channel=3 note=62 velocity=122 time=0.005263149999999999
EXTRACT: note_on channel=9 note=69 velocity=0 time=0.04736835
EXTRACT: note_on channel=10 note=71 velocity=0 time=0
EXTRACT: note_on channel=4 note=66 velocity=0 time=0.02631575
EXTRACT: note_on channel=4 note=62 velocity=0 time=0
EXTRACT: note_on channel=4 note=59 velocity=0 time=0
EXTRACT: note_on channel=4 note=54 velocity=0 time=0
EXTRACT: note_on channel=4 note=47 velocity=0 time=0
EXTRACT: note_on channel=9 note=42 velocity=97 time=0.07894725
EXTRACT: note_on channel=4 note=66 velocity=67 time=0
EXTRACT: note_on channel=4 note=62 velocity=45 time=0
EXTRACT: note_on channel=4 note=59 velocity=46 time=0
EXTRACT: note_on channel=11 note=64 velocity=119 time=0
EXTRACT: note_on channel=3 note=62 velocity=0 time=0.005263149999999999
EXTRACT: note_on channel=3 note=61 velocity=104 time=0
EXTRACT: note_on channel=9 note=42 velocity=0 time=0.04736835
EXTRACT: note_on channel=4 note=66 velocity=0 time=0.02631575
EXTRACT: note_on channel=4 note=62 velocity=0 time=0
EXTRACT: note_on channel=4 note=59 velocity=0 time=0
EXTRACT: note_on channel=2 note=59 velocity=104 time=0.07368409999999999
EXTRACT: note_on channel=9 note=69 velocity=62 time=0.005263149999999999
EXTRACT: note_on channel=4 note=66 velocity=86 time=0
EXTRACT: note_on channel=4 note=62 velocity=55 time=0
EXTRACT: note_on channel=4 note=59 velocity=58 time=0
EXTRACT: note_on channel=4 note=54 velocity=69 time=0
EXTRACT: note_on channel=4 note=47 velocity=78 time=0
EXTRACT: note_on channel=11 note=64 velocity=0 time=0
EXTRACT: note_on channel=11 note=64 velocity=121 time=0
EXTRACT: note_on channel=3 note=61 velocity=0 time=0.005263149999999999
EXTRACT: note_on channel=3 note=59 velocity=126 time=0
EXTRACT: note_on channel=9 note=69 velocity=0 time=0.04736835
EXTRACT: note_on channel=4 note=66 velocity=0 time=0.02631575
EXTRACT: note_on channel=4 note=62 velocity=0 time=0
EXTRACT: note_on channel=4 note=59 velocity=0 time=0
EXTRACT: note_on channel=4 note=54 velocity=0 time=0
EXTRACT: note_on channel=4 note=47 velocity=0 time=0
EXTRACT: note_on channel=9 note=36 velocity=120 time=0.07894725
EXTRACT: note_on channel=9 note=42 velocity=103 time=0
EXTRACT: note_on channel=4 note=66 velocity=55 time=0
EXTRACT: note_on channel=4 note=62 velocity=71 time=0
EXTRACT: note_on channel=4 note=59 velocity=67 time=0
EXTRACT: note_on channel=10 note=66 velocity=114 time=0
EXTRACT: note_on channel=11 note=64 velocity=0 time=0
EXTRACT: note_on channel=11 note=62 velocity=112 time=0
EXTRACT: note_on channel=3 note=59 velocity=0 time=0.005263149999999999
EXTRACT: note_on channel=9 note=36 velocity=0 time=0.04736835
EXTRACT: note_on channel=9 note=42 velocity=0 time=0
EXTRACT: note_on channel=4 note=66 velocity=0 time=0.02631575
EXTRACT: note_on channel=4 note=62 velocity=0 time=0
EXTRACT: note_on channel=4 note=59 velocity=0 time=0
EXTRACT: note_on channel=2 note=62 velocity=121 time=0.07368409999999999
EXTRACT: note_on channel=9 note=69 velocity=73 time=0.005263149999999999
EXTRACT: note_on channel=10 note=66 velocity=0 time=0
EXTRACT: note_on channel=11 note=62 velocity=0 time=0
EXTRACT: note_on channel=3 note=62 velocity=127 time=0.005263149999999999
EXTRACT: note_on channel=9 note=69 velocity=0 time=0.04736835
EXTRACT: note_on channel=9 note=42 velocity=92 time=0.105263
EXTRACT: note_on channel=9 note=69 velocity=78 time=0
EXTRACT: note_on channel=1 note=35 velocity=112 time=0
EXTRACT: note_on channel=4 note=66 velocity=104 time=0
EXTRACT: note_on channel=4 note=62 velocity=86 time=0
EXTRACT: note_on channel=4 note=59 velocity=109 time=0
EXTRACT: note_on channel=4 note=54 velocity=96 time=0
EXTRACT: note_on channel=4 note=47 velocity=89 time=0
EXTRACT: note_on channel=7 note=66 velocity=85 time=0
EXTRACT: note_on channel=7 note=62 velocity=84 time=0
EXTRACT: note_on channel=7 note=59 velocity=83 time=0
EXTRACT: note_on channel=7 note=54 velocity=107 time=0
EXTRACT: note_on channel=7 note=47 velocity=98 time=0
EXTRACT: note_on channel=10 note=66 velocity=116 time=0
EXTRACT: note_on channel=11 note=59 velocity=109 time=0
EXTRACT: note_on channel=3 note=62 velocity=0 time=0.005263149999999999
EXTRACT: note_on channel=9 note=42 velocity=0 time=0.04736835
EXTRACT: note_on channel=9 note=69 velocity=0 time=0
EXTRACT: note_on channel=2 note=66 velocity=102 time=0.09999984999999999
EXTRACT: note_on channel=1 note=35 velocity=0 time=0.005263149999999999
EXTRACT: note_on channel=4 note=66 velocity=0 time=0
EXTRACT: note_on channel=4 note=62 velocity=0 time=0
EXTRACT: note_on channel=4 note=59 velocity=0 time=0
EXTRACT: note_on channel=4 note=54 velocity=0 time=0
EXTRACT: note_on channel=4 note=47 velocity=0 time=0
EXTRACT: note_on channel=7 note=66 velocity=0 time=0
EXTRACT: note_on channel=7 note=62 velocity=0 time=0
EXTRACT: note_on channel=7 note=59 velocity=0 time=0
EXTRACT: note_on channel=7 note=54 velocity=0 time=0
EXTRACT: note_on channel=7 note=47 velocity=0 time=0
EXTRACT: note_on channel=10 note=66 velocity=0 time=0
EXTRACT: note_on channel=11 note=59 velocity=0 time=0
EXTRACT: note_on channel=3 note=62 velocity=121 time=0.005263149999999999
EXTRACT: note_on channel=2 note=66 velocity=123 time=0.14736819999999998
EXTRACT: note_on channel=9 note=40 velocity=127 time=0.005263149999999999
EXTRACT: note_on channel=9 note=42 velocity=105 time=0
EXTRACT: note_on channel=9 note=69 velocity=66 time=0
EXTRACT: note_on channel=10 note=69 velocity=108 time=0
EXTRACT: note_on channel=11 note=59 velocity=111 time=0
EXTRACT: note_on channel=9 note=40 velocity=0 time=0.0526315
EXTRACT: note_on channel=9 note=42 velocity=0 time=0
EXTRACT: note_on channel=9 note=69 velocity=0 time=0
EXTRACT: note_on channel=4 note=66 velocity=51 time=0.105263
EXTRACT: note_on channel=4 note=62 velocity=42 time=0
EXTRACT: note_on channel=4 note=59 velocity=41 time=0
EXTRACT: note_on channel=10 note=69 velocity=0 time=0
EXTRACT: note_on channel=4 note=66 velocity=0 time=0.07894725
EXTRACT: note_on channel=4 note=62 velocity=0 time=0
EXTRACT: note_on channel=4 note=59 velocity=0 time=0
EXTRACT: note_on channel=2 note=62 velocity=117 time=0.07368409999999999
EXTRACT: note_on channel=9 note=36 velocity=90 time=0.005263149999999999
EXTRACT: note_on channel=9 note=42 velocity=96 time=0
EXTRACT: note_on channel=1 note=38 velocity=117 time=0
EXTRACT: note_on channel=4 note=66 velocity=85 time=0
EXTRACT: note_on channel=4 note=62 velocity=90 time=0
EXTRACT: note_on channel=4 note=59 velocity=61 time=0
EXTRACT: note_on channel=4 note=54 velocity=84 time=0
EXTRACT: note_on channel=4 note=47 velocity=76 time=0
EXTRACT: note_on channel=10 note=71 velocity=119 time=0
EXTRACT: note_on channel=11 note=59 velocity=0 time=0
EXTRACT: note_on channel=9 note=36 velocity=0 time=0.0526315
EXTRACT: note_on channel=9 note=42 velocity=0 time=0
EXTRACT: note_on channel=4 note=66 velocity=0 time=0.02631575
EXTRACT: note_on channel=4 note=62 velocity=0 time=0
EXTRACT: note_on channel=4 note=59 velocity=0 time=0
EXTRACT: note_on channel=4 note=54 velocity=0 time=0
EXTRACT: note_on channel=4 note=47 velocity=0 time=0
EXTRACT: note_on channel=9 note=40 velocity=127 time=0.07894725
EXTRACT: note_on channel=1 note=38 velocity=0 time=0
EXTRACT: note_on channel=10 note=71 velocity=0 time=0
EXTRACT: note_on channel=9 note=40 velocity=0 time=0.0526315
EXTRACT: note_on channel=2 note=47 velocity=0 time=0.09999984999999999
EXTRACT: note_on channel=2 note=62 velocity=0 time=0
EXTRACT: note_on channel=2 note=66 velocity=0 time=0
EXTRACT: note_on channel=2 note=62 velocity=0 time=0
EXTRACT: note_on channel=2 note=59 velocity=0 time=0
EXTRACT: note_on channel=2 note=62 velocity=0 time=0
EXTRACT: note_on channel=2 note=66 velocity=0 time=0
EXTRACT: note_on channel=2 note=66 velocity=0 time=0
EXTRACT: note_on channel=2 note=62 velocity=0 time=0
EXTRACT: note_on channel=2 note=40 velocity=126 time=0
EXTRACT: note_on channel=9 note=42 velocity=99 time=0.005263149999999999
EXTRACT: note_on channel=9 note=36 velocity=120 time=0
EXTRACT: note_on channel=1 note=40 velocity=127 time=0
EXTRACT: note_on channel=4 note=67 velocity=90 time=0
EXTRACT: note_on channel=4 note=62 velocity=102 time=0
EXTRACT: note_on channel=4 note=59 velocity=93 time=0
EXTRACT: note_on channel=4 note=55 velocity=105 time=0
EXTRACT: note_on channel=4 note=47 velocity=101 time=0
EXTRACT: note_on channel=6 note=59 velocity=0 time=0
EXTRACT: note_on channel=6 note=62 velocity=0 time=0
EXTRACT: note_on channel=6 note=66 velocity=0 time=0
EXTRACT: note_on channel=6 note=59 velocity=113 time=0
EXTRACT: note_on channel=6 note=62 velocity=116 time=0
EXTRACT: note_on channel=6 note=67 velocity=123 time=0
EXTRACT: note_on channel=7 note=67 velocity=76 time=0
EXTRACT: note_on channel=7 note=62 velocity=106 time=0
EXTRACT: note_on channel=7 note=59 velocity=82 time=0
EXTRACT: note_on channel=7 note=55 velocity=109 time=0
EXTRACT: note_on channel=7 note=47 velocity=77 time=0
EXTRACT: note_on channel=11 note=59 velocity=121 time=0
EXTRACT: note_on channel=3 note=62 velocity=0 time=0.005263149999999999
EXTRACT: note_on channel=9 note=42 velocity=0 time=0.04736835
EXTRACT: note_on channel=9 note=36 velocity=0 time=0
EXTRACT: note_on channel=1 note=40 velocity=0 time=0.07894725
EXTRACT: note_on channel=10 note=66 velocity=109 time=0.02631575
EXTRACT: note_on channel=11 note=59 velocity=0 time=0
EXTRACT: note_on channel=2 note=62 velocity=107 time=0.15263134999999997
EXTRACT: note_on channel=9 note=42 velocity=105 time=0.005263149999999999
EXTRACT: note_on channel=1 note=40 velocity=125 time=0
EXTRACT: note_on channel=4 note=67 velocity=0 time=0
EXTRACT: note_on channel=4 note=62 velocity=0 time=0
EXTRACT: note_on channel=4 note=59 velocity=0 time=0
EXTRACT: note_on channel=4 note=55 velocity=0 time=0
EXTRACT: note_on channel=4 note=47 velocity=0 time=0
EXTRACT: note_on channel=7 note=67 velocity=0 time=0
EXTRACT: note_on channel=7 note=62 velocity=0 time=0
EXTRACT: note_on channel=7 note=59 velocity=0 time=0
EXTRACT: note_on channel=7 note=55 velocity=0 time=0
EXTRACT: note_on channel=7 note=47 velocity=0 time=0
EXTRACT: note_on channel=11 note=59 velocity=107 time=0
EXTRACT: note_on channel=3 note=62 velocity=103 time=0.005263149999999999
EXTRACT: note_on channel=9 note=42 velocity=0 time=0.04736835
EXTRACT: note_on channel=1 note=40 velocity=0 time=0.09999984999999999
EXTRACT: note_on channel=2 note=67 velocity=105 time=0
EXTRACT: note_on channel=1 note=35 velocity=111 time=0.005263149999999999
EXTRACT: note_on channel=4 note=67 velocity=104 time=0
EXTRACT: note_on channel=4 note=62 velocity=103 time=0
EXTRACT: note_on channel=4 note=59 velocity=93 time=0
EXTRACT: note_on channel=4 note=55 velocity=90 time=0
EXTRACT: note_on channel=4 note=47 velocity=89 time=0
EXTRACT: note_on channel=7 note=67 velocity=111 time=0
EXTRACT: note_on channel=7 note=62 velocity=106 time=0
EXTRACT: note_on channel=7 note=59 velocity=104 time=0
EXTRACT: note_on channel=7 note=55 velocity=112 time=0
EXTRACT: note_on channel=7 note=47 velocity=97 time=0
EXTRACT: note_on channel=11 note=59 velocity=0 time=0
EXTRACT: note_on channel=10 note=66 velocity=0 time=0.07894725
EXTRACT: note_on channel=9 note=42 velocity=101 time=0.07894725
EXTRACT: note_on channel=9 note=40 velocity=127 time=0
EXTRACT: note_on channel=9 note=69 velocity=62 time=0
EXTRACT: note_on channel=1 note=35 velocity=0 time=0
EXTRACT: note_on channel=4 note=67 velocity=0 time=0
EXTRACT: note_on channel=4 note=62 velocity=0 time=0
EXTRACT: note_on channel=4 note=59 velocity=0 time=0
EXTRACT: note_on channel=4 note=55 velocity=0 time=0
EXTRACT: note_on channel=4 note=47 velocity=0 time=0
EXTRACT: note_on channel=7 note=67 velocity=0 time=0
EXTRACT: note_on channel=7 note=62 velocity=0 time=0
EXTRACT: note_on channel=7 note=59 velocity=0 time=0
EXTRACT: note_on channel=7 note=55 velocity=0 time=0
EXTRACT: note_on channel=7 note=47 velocity=0 time=0
EXTRACT: note_on channel=10 note=66 velocity=124 time=0
EXTRACT: note_on channel=11 note=59 velocity=116 time=0
EXTRACT: note_on channel=3 note=62 velocity=0 time=0.005263149999999999
EXTRACT: note_on channel=9 note=42 velocity=0 time=0.04736835
EXTRACT: note_on channel=9 note=40 velocity=0 time=0
EXTRACT: note_on channel=9 note=69 velocity=0 time=0
EXTRACT: note_on channel=2 note=62 velocity=114 time=0.09999984999999999
EXTRACT: note_on channel=9 note=69 velocity=70 time=0.005263149999999999
EXTRACT: note_on channel=1 note=35 velocity=113 time=0
EXTRACT: note_on channel=4 note=67 velocity=78 time=0
EXTRACT: note_on channel=4 note=62 velocity=70 time=0
EXTRACT: note_on channel=4 note=59 velocity=89 time=0
EXTRACT: note_on channel=4 note=55 velocity=79 time=0
EXTRACT: note_on channel=4 note=47 velocity=70 time=0
EXTRACT: note_on channel=11 note=59 velocity=0 time=0
EXTRACT: note_on channel=3 note=62 velocity=108 time=0.005263149999999999
EXTRACT: note_on channel=9 note=69 velocity=0 time=0.04736835
EXTRACT: note_on channel=4 note=67 velocity=0 time=0.02631575
EXTRACT: note_on channel=4 note=62 velocity=0 time=0
EXTRACT: note_on channel=4 note=59 velocity=0 time=0
EXTRACT: note_on channel=4 note=55 velocity=0 time=0
EXTRACT: note_on channel=4 note=47 velocity=0 time=0
EXTRACT: note_on channel=10 note=66 velocity=0 time=0
EXTRACT: note_on channel=1 note=35 velocity=0 time=0.07368409999999999
EXTRACT: note_on channel=9 note=42 velocity=93 time=0.005263149999999999
EXTRACT: note_on channel=1 note=31 velocity=124 time=0
EXTRACT: note_on channel=4 note=67 velocity=70 time=0
EXTRACT: note_on channel=4 note=62 velocity=51 time=0
EXTRACT: note_on channel=4 note=59 velocity=70 time=0
EXTRACT: note_on channel=10 note=64 velocity=102 time=0
EXTRACT: note_on channel=11 note=59 velocity=124 time=0
EXTRACT: note_on channel=3 note=62 velocity=0 time=0.005263149999999999
EXTRACT: note_on channel=3 note=61 velocity=106 time=0
EXTRACT: note_on channel=9 note=42 velocity=0 time=0.04736835
EXTRACT: note_on channel=4 note=67 velocity=0 time=0.02631575
EXTRACT: note_on channel=4 note=62 velocity=0 time=0
EXTRACT: note_on channel=4 note=59 velocity=0 time=0
EXTRACT: note_on channel=2 note=59 velocity=115 time=0.07368409999999999
EXTRACT: note_on channel=9 note=69 velocity=62 time=0.005263149999999999
EXTRACT: note_on channel=1 note=31 velocity=0 time=0
EXTRACT: note_on channel=4 note=67 velocity=82 time=0
EXTRACT: note_on channel=4 note=62 velocity=52 time=0
EXTRACT: note_on channel=4 note=59 velocity=71 time=0
EXTRACT: note_on channel=4 note=55 velocity=61 time=0
EXTRACT: note_on channel=4 note=47 velocity=63 time=0
EXTRACT: note_on channel=11 note=59 velocity=0 time=0
EXTRACT: note_on channel=3 note=61 velocity=0 time=0.005263149999999999
EXTRACT: note_on channel=3 note=59 velocity=111 time=0
EXTRACT: note_on channel=9 note=69 velocity=0 time=0.04736835
EXTRACT: note_on channel=4 note=67 velocity=0 time=0.02631575
EXTRACT: note_on channel=4 note=62 velocity=0 time=0
EXTRACT: note_on channel=4 note=59 velocity=0 time=0
EXTRACT: note_on channel=4 note=55 velocity=0 time=0
EXTRACT: note_on channel=4 note=47 velocity=0 time=0
EXTRACT: note_on channel=10 note=64 velocity=0 time=0
EXTRACT: note_on channel=9 note=36 velocity=120 time=0.07894725
EXTRACT: note_on channel=9 note=42 velocity=94 time=0
EXTRACT: note_on channel=1 note=28 velocity=125 time=0
EXTRACT: note_on channel=4 note=67 velocity=63 time=0
EXTRACT: note_on channel=4 note=62 velocity=44 time=0
EXTRACT: note_on channel=4 note=59 velocity=70 time=0
EXTRACT: note_on channel=10 note=64 velocity=123 time=0
EXTRACT: note_on channel=3 note=59 velocity=0 time=0.005263149999999999
EXTRACT: note_on channel=9 note=36 velocity=0 time=0.04736835
EXTRACT: note_on channel=9 note=42 velocity=0 time=0
EXTRACT: note_on channel=4 note=67 velocity=0 time=0.02631575
EXTRACT: note_on channel=4 note=62 velocity=0 time=0
EXTRACT: note_on channel=4 note=59 velocity=0 time=0
EXTRACT: note_on channel=2 note=62 velocity=117 time=0.07368409999999999
EXTRACT: note_on channel=9 note=69 velocity=73 time=0.005263149999999999
EXTRACT: note_on channel=3 note=62 velocity=113 time=0.005263149999999999
EXTRACT: note_on channel=9 note=69 velocity=0 time=0.04736835
EXTRACT: note_on channel=9 note=42 velocity=108 time=0.105263
EXTRACT: note_on channel=9 note=69 velocity=78 time=0
EXTRACT: note_on channel=1 note=28 velocity=0 time=0
EXTRACT: note_on channel=4 note=67 velocity=108 time=0
EXTRACT: note_on channel=4 note=62 velocity=86 time=0
EXTRACT: note_on channel=4 note=59 velocity=104 time=0
EXTRACT: note_on channel=4 note=55 velocity=95 time=0
EXTRACT: note_on channel=4 note=47 velocity=90 time=0
EXTRACT: note_on channel=7 note=67 velocity=108 time=0
EXTRACT: note_on channel=7 note=62 velocity=90 time=0
EXTRACT: note_on channel=7 note=59 velocity=76 time=0
EXTRACT: note_on channel=7 note=55 velocity=97 time=0
EXTRACT: note_on channel=7 note=47 velocity=96 time=0
EXTRACT: note_on channel=10 note=64 velocity=0 time=0
EXTRACT: note_on channel=3 note=62 velocity=0 time=0.005263149999999999
EXTRACT: note_on channel=9 note=42 velocity=0 time=0.04736835
EXTRACT: note_on channel=9 note=69 velocity=0 time=0
EXTRACT: note_on channel=2 note=67 velocity=104 time=0.09999984999999999
EXTRACT: note_on channel=4 note=67 velocity=0 time=0.005263149999999999
EXTRACT: note_on channel=4 note=62 velocity=0 time=0
EXTRACT: note_on channel=4 note=59 velocity=0 time=0
EXTRACT: note_on channel=4 note=55 velocity=0 time=0
EXTRACT: note_on channel=4 note=47 velocity=0 time=0
EXTRACT: note_on channel=7 note=67 velocity=0 time=0
EXTRACT: note_on channel=7 note=62 velocity=0 time=0
EXTRACT: note_on channel=7 note=59 velocity=0 time=0
EXTRACT: note_on channel=7 note=55 velocity=0 time=0
EXTRACT: note_on channel=7 note=47 velocity=0 time=0
EXTRACT: note_on channel=3 note=62 velocity=105 time=0.005263149999999999
EXTRACT: note_on channel=2 note=67 velocity=119 time=0.14736819999999998
EXTRACT: note_on channel=9 note=40 velocity=127 time=0.005263149999999999
EXTRACT: note_on channel=9 note=42 velocity=105 time=0
EXTRACT: note_on channel=9 note=69 velocity=66 time=0
EXTRACT: note_on channel=11 note=59 velocity=126 time=0
EXTRACT: note_on channel=9 note=40 velocity=0 time=0.0526315
EXTRACT: note_on channel=9 note=42 velocity=0 time=0
EXTRACT: note_on channel=9 note=69 velocity=0 time=0
EXTRACT: note_on channel=4 note=67 velocity=71 time=0.105263
EXTRACT: note_on channel=4 note=62 velocity=45 time=0
EXTRACT: note_on channel=4 note=59 velocity=63 time=0
EXTRACT: note_on channel=11 note=59 velocity=0 time=0
EXTRACT: note_on channel=4 note=67 velocity=0 time=0.07894725
EXTRACT: note_on channel=4 note=62 velocity=0 time=0
EXTRACT: note_on channel=4 note=59 velocity=0 time=0
EXTRACT: note_on channel=2 note=62 velocity=118 time=0.07368409999999999
EXTRACT: note_on channel=9 note=42 velocity=102 time=0.005263149999999999
EXTRACT: note_on channel=1 note=28 velocity=126 time=0
EXTRACT: note_on channel=4 note=67 velocity=77 time=0
EXTRACT: note_on channel=4 note=62 velocity=87 time=0
EXTRACT: note_on channel=4 note=59 velocity=71 time=0
EXTRACT: note_on channel=4 note=55 velocity=77 time=0
EXTRACT: note_on channel=4 note=47 velocity=70 time=0
EXTRACT: note_on channel=10 note=69 velocity=125 time=0
EXTRACT: note_on channel=11 note=59 velocity=104 time=0
EXTRACT: note_on channel=9 note=42 velocity=0 time=0.0526315
EXTRACT: note_on channel=4 note=67 velocity=0 time=0.02631575
EXTRACT: note_on channel=4 note=62 velocity=0 time=0
EXTRACT: note_on channel=4 note=59 velocity=0 time=0
EXTRACT: note_on channel=4 note=55 velocity=0 time=0
EXTRACT: note_on channel=4 note=47 velocity=0 time=0
EXTRACT: note_on channel=1 note=28 velocity=0 time=0.07894725
EXTRACT: note_on channel=10 note=69 velocity=0 time=0
EXTRACT: note_on channel=10 note=69 velocity=121 time=0
EXTRACT: note_on channel=11 note=59 velocity=0 time=0
EXTRACT: note_on channel=2 note=40 velocity=0 time=0.15263134999999997
EXTRACT: note_on channel=2 note=62 velocity=0 time=0
EXTRACT: note_on channel=2 note=67 velocity=0 time=0
EXTRACT: note_on channel=2 note=62 velocity=0 time=0
EXTRACT: note_on channel=2 note=59 velocity=0 time=0
EXTRACT: note_on channel=2 note=62 velocity=0 time=0
EXTRACT: note_on channel=2 note=67 velocity=0 time=0
EXTRACT: note_on channel=2 note=67 velocity=0 time=0
EXTRACT: note_on channel=2 note=62 velocity=0 time=0
EXTRACT: note_on channel=2 note=57 velocity=90 time=0
EXTRACT: note_on channel=2 note=54 velocity=119 time=0
EXTRACT: note_on channel=9 note=42 velocity=99 time=0.005263149999999999
EXTRACT: note_on channel=9 note=36 velocity=120 time=0
EXTRACT: note_on channel=1 note=30 velocity=118 time=0
EXTRACT: note_on channel=4 note=64 velocity=91 time=0
EXTRACT: note_on channel=4 note=61 velocity=96 time=0
EXTRACT: note_on channel=4 note=57 velocity=89 time=0
EXTRACT: note_on channel=4 note=54 velocity=98 time=0
EXTRACT: note_on channel=6 note=59 velocity=0 time=0
EXTRACT: note_on channel=6 note=62 velocity=0 time=0
EXTRACT: note_on channel=6 note=67 velocity=0 time=0
EXTRACT: note_on channel=6 note=57 velocity=101 time=0
EXTRACT: note_on channel=6 note=61 velocity=124 time=0
EXTRACT: note_on channel=6 note=66 velocity=113 time=0
EXTRACT: note_on channel=7 note=64 velocity=87 time=0
EXTRACT: note_on channel=7 note=61 velocity=111 time=0
EXTRACT: note_on channel=7 note=57 velocity=110 time=0
EXTRACT: note_on channel=7 note=54 velocity=109 time=0
EXTRACT: note_on channel=10 note=69 velocity=0 time=0
EXTRACT: note_on channel=10 note=69 velocity=102 time=0
EXTRACT: note_on channel=3 note=62 velocity=0 time=0.005263149999999999
EXTRACT: note_on channel=9 note=42 velocity=0 time=0.04736835
EXTRACT: note_on channel=9 note=36 velocity=0 time=0
EXTRACT: note_on channel=10 note=69 velocity=0 time=0.105263
EXTRACT: note_on channel=1 note=30 velocity=0 time=0.04736835
EXTRACT: note_on channel=1 note=30 velocity=114 time=0.005263149999999999
EXTRACT: note_on channel=2 note=61 velocity=102 time=0.09999984999999999
EXTRACT: note_on channel=4 note=64 velocity=0 time=0.005263149999999999
EXTRACT: note_on channel=4 note=61 velocity=0 time=0
EXTRACT: note_on channel=4 note=57 velocity=0 time=0
EXTRACT: note_on channel=4 note=54 velocity=0 time=0
EXTRACT: note_on channel=7 note=64 velocity=0 time=0
EXTRACT: note_on channel=7 note=61 velocity=0 time=0
EXTRACT: note_on channel=7 note=57 velocity=0 time=0
EXTRACT: note_on channel=7 note=54 velocity=0 time=0
EXTRACT: note_on channel=10 note=69 velocity=124 time=0
EXTRACT: note_on channel=3 note=61 velocity=113 time=0.005263149999999999
EXTRACT: note_on channel=1 note=30 velocity=0 time=0.0947367
EXTRACT: note_on channel=1 note=30 velocity=109 time=0.005263149999999999
EXTRACT: note_on channel=2 note=64 velocity=126 time=0.04736835
EXTRACT: note_on channel=4 note=64 velocity=116 time=0.005263149999999999
EXTRACT: note_on channel=4 note=61 velocity=100 time=0
EXTRACT: note_on channel=4 note=57 velocity=110 time=0
EXTRACT: note_on channel=4 note=54 velocity=105 time=0
EXTRACT: note_on channel=7 note=64 velocity=102 time=0
EXTRACT: note_on channel=7 note=61 velocity=98 time=0
EXTRACT: note_on channel=7 note=57 velocity=75 time=0
EXTRACT: note_on channel=7 note=54 velocity=112 time=0
EXTRACT: note_on channel=10 note=69 velocity=0 time=0
EXTRACT: note_on channel=1 note=30 velocity=0 time=0.15263134999999997
EXTRACT: note_on channel=9 note=42 velocity=108 time=0.005263149999999999
EXTRACT: note_on channel=1 note=37 velocity=108 time=0
EXTRACT: note_on channel=4 note=64 velocity=0 time=0
EXTRACT: note_on channel=4 note=61 velocity=0 time=0
EXTRACT: note_on channel=4 note=57 velocity=0 time=0
EXTRACT: note_on channel=4 note=54 velocity=0 time=0
EXTRACT: note_on channel=7 note=64 velocity=0 time=0
EXTRACT: note_on channel=7 note=61 velocity=0 time=0
EXTRACT: note_on channel=7 note=57 velocity=0 time=0
EXTRACT: note_on channel=7 note=54 velocity=0 time=0
EXTRACT: note_on channel=10 note=73 velocity=105 time=0
EXTRACT: note_on channel=3 note=61 velocity=0 time=0.005263149999999999
EXTRACT: note_on channel=9 note=42 velocity=0 time=0.04736835
EXTRACT: note_on channel=2 note=61 velocity=121 time=0.09999984999999999
EXTRACT: note_on channel=4 note=64 velocity=58 time=0.005263149999999999
EXTRACT: note_on channel=4 note=61 velocity=84 time=0
EXTRACT: note_on channel=4 note=57 velocity=66 time=0
EXTRACT: note_on channel=4 note=54 velocity=51 time=0
EXTRACT: note_on channel=3 note=61 velocity=123 time=0.005263149999999999
EXTRACT: note_on channel=1 note=37 velocity=0 time=0.07368409999999999
EXTRACT: note_on channel=4 note=64 velocity=0 time=0
EXTRACT: note_on channel=4 note=61 velocity=0 time=0
EXTRACT: note_on channel=4 note=57 velocity=0 time=0
EXTRACT: note_on channel=4 note=54 velocity=0 time=0
EXTRACT: note_on channel=1 note=42 velocity=108 time=0.07894725
EXTRACT: note_on channel=4 note=64 velocity=67 time=0
EXTRACT: note_on channel=4 note=61 velocity=60 time=0
EXTRACT: note_on channel=4 note=57 velocity=43 time=0
EXTRACT: note_on channel=4 note=64 velocity=0 time=0.07894725
EXTRACT: note_on channel=4 note=61 velocity=0 time=0
EXTRACT: note_on channel=4 note=57 velocity=0 time=0
EXTRACT: note_on channel=2 note=57 velocity=109 time=0.07368409999999999
EXTRACT: note_on channel=4 note=64 velocity=89 time=0.005263149999999999
EXTRACT: note_on channel=4 note=61 velocity=60 time=0
EXTRACT: note_on channel=4 note=57 velocity=53 time=0
EXTRACT: note_on channel=4 note=54 velocity=66 time=0
EXTRACT: note_on channel=3 note=61 velocity=0 time=0.005263149999999999
EXTRACT: note_on channel=1 note=42 velocity=0 time=0.07368409999999999
EXTRACT: note_on channel=4 note=64 velocity=0 time=0
EXTRACT: note_on channel=4 note=61 velocity=0 time=0
EXTRACT: note_on channel=4 note=57 velocity=0 time=0
EXTRACT: note_on channel=4 note=54 velocity=0 time=0
EXTRACT: note_on channel=2 note=61 velocity=102 time=0.07368409999999999
EXTRACT: note_on channel=9 note=36 velocity=120 time=0.005263149999999999
EXTRACT: note_on channel=9 note=42 velocity=110 time=0
EXTRACT: note_on channel=1 note=37 velocity=127 time=0
EXTRACT: note_on channel=4 note=64 velocity=50 time=0
EXTRACT: note_on channel=4 note=61 velocity=55 time=0
EXTRACT: note_on channel=4 note=57 velocity=52 time=0
EXTRACT: note_on channel=10 note=73 velocity=0 time=0
EXTRACT: note_on channel=10 note=76 velocity=125 time=0
EXTRACT: note_on channel=3 note=61 velocity=121 time=0.005263149999999999
EXTRACT: note_on channel=9 note=36 velocity=0 time=0.04736835
EXTRACT: note_on channel=9 note=42 velocity=0 time=0
EXTRACT: note_on channel=4 note=64 velocity=0 time=0.02631575
EXTRACT: note_on channel=4 note=61 velocity=0 time=0
EXTRACT: note_on channel=4 note=57 velocity=0 time=0
EXTRACT: note_on channel=2 note=64 velocity=115 time=0.07368409999999999
EXTRACT: note_on channel=9 note=69 velocity=73 time=0.005263149999999999
EXTRACT: note_on channel=9 note=69 velocity=0 time=0.0526315
EXTRACT: note_on channel=2 note=66 velocity=119 time=0.09999984999999999
EXTRACT: note_on channel=9 note=36 velocity=120 time=0.005263149999999999
EXTRACT: note_on channel=9 note=42 velocity=94 time=0
EXTRACT: note_on channel=9 note=69 velocity=78 time=0
EXTRACT: note_on channel=4 note=64 velocity=108 time=0
EXTRACT: note_on channel=4 note=61 velocity=104 time=0
EXTRACT: note_on channel=4 note=57 velocity=117 time=0
EXTRACT: note_on channel=4 note=54 velocity=88 time=0
EXTRACT: note_on channel=7 note=64 velocity=89 time=0
EXTRACT: note_on channel=7 note=61 velocity=84 time=0
EXTRACT: note_on channel=7 note=57 velocity=79 time=0
EXTRACT: note_on channel=7 note=54 velocity=109 time=0
EXTRACT: note_on channel=9 note=36 velocity=0 time=0.0526315
EXTRACT: note_on channel=9 note=42 velocity=0 time=0
EXTRACT: note_on channel=9 note=69 velocity=0 time=0
EXTRACT: note_on channel=1 note=37 velocity=0 time=0.04736835
EXTRACT: note_on channel=1 note=42 velocity=117 time=0.005263149999999999
EXTRACT: note_on channel=2 note=69 velocity=126 time=0.04736835
EXTRACT: note_on channel=4 note=64 velocity=0 time=0.005263149999999999
EXTRACT: note_on channel=4 note=61 velocity=0 time=0
EXTRACT: note_on channel=4 note=57 velocity=0 time=0
EXTRACT: note_on channel=4 note=54 velocity=0 time=0
EXTRACT: note_on channel=7 note=64 velocity=0 time=0
EXTRACT: note_on channel=7 note=61 velocity=0 time=0
EXTRACT: note_on channel=7 note=57 velocity=0 time=0
EXTRACT: note_on channel=7 note=54 velocity=0 time=0
EXTRACT: note_on channel=9 note=40 velocity=127 time=0.1578945
EXTRACT: note_on channel=9 note=42 velocity=99 time=0
EXTRACT: note_on channel=9 note=69 velocity=66 time=0
EXTRACT: note_on channel=10 note=76 velocity=0 time=0
EXTRACT: note_on channel=10 note=74 velocity=109 time=0
EXTRACT: note_on channel=9 note=40 velocity=0 time=0.0526315
EXTRACT: note_on channel=9 note=42 velocity=0 time=0
EXTRACT: note_on channel=9 note=69 velocity=0 time=0
EXTRACT: note_on channel=4 note=64 velocity=55 time=0.105263
EXTRACT: note_on channel=4 note=61 velocity=67 time=0
EXTRACT: note_on channel=4 note=57 velocity=65 time=0
EXTRACT: note_on channel=1 note=42 velocity=0 time=0.04736835
EXTRACT: note_on channel=1 note=49 velocity=112 time=0.005263149999999999
EXTRACT: note_on channel=4 note=64 velocity=0 time=0.02631575
EXTRACT: note_on channel=4 note=61 velocity=0 time=0
EXTRACT: note_on channel=4 note=57 velocity=0 time=0
EXTRACT: note_on channel=9 note=36 velocity=90 time=0.07894725
EXTRACT: note_on channel=9 note=42 velocity=98 time=0
EXTRACT: note_on channel=4 note=64 velocity=61 time=0
EXTRACT: note_on channel=4 note=61 velocity=79 time=0
EXTRACT: note_on channel=4 note=57 velocity=73 time=0
EXTRACT: note_on channel=4 note=54 velocity=61 time=0
EXTRACT: note_on channel=8 note=54 velocity=90 time=0
EXTRACT: note_on channel=8 note=66 velocity=121 time=0
EXTRACT: note_on channel=3 note=61 velocity=108 time=0.005263149999999999
EXTRACT: note_on channel=9 note=36 velocity=0 time=0.04736835
EXTRACT: note_on channel=9 note=42 velocity=0 time=0
EXTRACT: note_on channel=4 note=64 velocity=0 time=0.02631575
EXTRACT: note_on channel=4 note=61 velocity=0 time=0
EXTRACT: note_on channel=4 note=57 velocity=0 time=0
EXTRACT: note_on channel=4 note=54 velocity=0 time=0
EXTRACT: note_on channel=9 note=40 velocity=127 time=0.07894725
EXTRACT: note_on channel=9 note=40 velocity=0 time=0.0526315
EXTRACT: note_on channel=1 note=49 velocity=0 time=0.09999984999999999
EXTRACT: note_on channel=2 note=57 velocity=0 time=0
EXTRACT: note_on channel=2 note=54 velocity=0 time=0
EXTRACT: note_on channel=2 note=61 velocity=0 time=0
EXTRACT: note_on channel=2 note=64 velocity=0 time=0
EXTRACT: note_on channel=2 note=61 velocity=0 time=0
EXTRACT: note_on channel=2 note=57 velocity=0 time=0
EXTRACT: note_on channel=2 note=61 velocity=0 time=0
EXTRACT: note_on channel=2 note=64 velocity=0 time=0
EXTRACT: note_on channel=2 note=66 velocity=0 time=0
EXTRACT: note_on channel=2 note=69 velocity=0 time=0
EXTRACT: note_on channel=2 note=47 velocity=124 time=0
EXTRACT: note_on channel=9 note=49 velocity=100 time=0.005263149999999999
EXTRACT: note_on channel=9 note=36 velocity=120 time=0
EXTRACT: note_on channel=1 note=35 velocity=112 time=0
EXTRACT: note_on channel=4 note=66 velocity=102 time=0
EXTRACT: note_on channel=4 note=62 velocity=102 time=0
EXTRACT: note_on channel=4 note=59 velocity=97 time=0
EXTRACT: note_on channel=4 note=54 velocity=102 time=0
EXTRACT: note_on channel=4 note=47 velocity=92 time=0
EXTRACT: control_change channel=5 control=11 value=60 time=0
EXTRACT: note_on channel=5 note=90 velocity=116 time=0
EXTRACT: note_on channel=5 note=78 velocity=99 time=0
EXTRACT: note_on channel=6 note=57 velocity=0 time=0
EXTRACT: note_on channel=6 note=61 velocity=0 time=0
EXTRACT: note_on channel=6 note=66 velocity=0 time=0
EXTRACT: control_change channel=6 control=11 value=40 time=0
EXTRACT: note_on channel=6 note=59 velocity=117 time=0
EXTRACT: note_on channel=6 note=62 velocity=113 time=0
EXTRACT: note_on channel=6 note=66 velocity=117 time=0
EXTRACT: note_on channel=7 note=66 velocity=92 time=0
EXTRACT: note_on channel=7 note=62 velocity=106 time=0
EXTRACT: note_on channel=7 note=59 velocity=93 time=0
EXTRACT: note_on channel=7 note=54 velocity=74 time=0
EXTRACT: note_on channel=7 note=47 velocity=108 time=0
EXTRACT: note_on channel=10 note=74 velocity=0 time=0
EXTRACT: note_on channel=3 note=61 velocity=0 time=0.005263149999999999
EXTRACT: note_on channel=3 note=61 velocity=0 time=0
EXTRACT: control_change channel=5 control=11 value=61 time=0.015789449999999997
EXTRACT: control_change channel=6 control=11 value=41 time=0.010526299999999999
EXTRACT: control_change channel=5 control=11 value=62 time=0.005263149999999999
EXTRACT: note_on channel=9 note=49 velocity=0 time=0.015789449999999997
EXTRACT: note_on channel=9 note=36 velocity=0 time=0
EXTRACT: control_change channel=5 control=11 value=63 time=0.005263149999999999
EXTRACT: control_change channel=6 control=11 value=42 time=0.005263149999999999
EXTRACT: control_change channel=5 control=11 value=64 time=0.010526299999999999
EXTRACT: control_change channel=5 control=11 value=65 time=0.021052599999999998
EXTRACT: control_change channel=6 control=11 value=43 time=0
EXTRACT: control_change channel=5 control=11 value=66 time=0.015789449999999997
EXTRACT: control_change channel=6 control=11 value=44 time=0.015789449999999997
EXTRACT: control_change channel=5 control=11 value=67 time=0.005263149999999999
EXTRACT: note_on channel=1 note=35 velocity=0 time=0.021052599999999998
EXTRACT: control_change channel=5 control=11 value=68 time=0
EXTRACT: note_on channel=1 note=35 velocity=109 time=0.005263149999999999
EXTRACT: control_change channel=6 control=11 value=45 time=0
EXTRACT: control_change channel=5 control=11 value=69 time=0.010526299999999999
EXTRACT: control_change channel=5 control=11 value=70 time=0.021052599999999998
EXTRACT: control_change channel=6 control=11 value=46 time=0
EXTRACT: control_change channel=5 control=11 value=71 time=0.015789449999999997
EXTRACT: control_change channel=6 control=11 value=47 time=0.015789449999999997
EXTRACT: control_change channel=5 control=11 value=72 time=0.005263149999999999
EXTRACT: control_change channel=5 control=11 value=73 time=0.021052599999999998
EXTRACT: control_change channel=6 control=11 value=48 time=0.005263149999999999
EXTRACT: control_change channel=5 control=11 value=74 time=0.010526299999999999
EXTRACT: control_change channel=5 control=11 value=75 time=0.021052599999999998
EXTRACT: control_change channel=6 control=11 value=49 time=0
EXTRACT: control_change channel=5 control=11 value=76 time=0.015789449999999997
EXTRACT: note_on channel=2 note=62 velocity=114 time=0.010526299999999999
EXTRACT: note_on channel=9 note=42 velocity=96 time=0.005263149999999999
EXTRACT: note_on channel=1 note=35 velocity=0 time=0
EXTRACT: note_on channel=4 note=66 velocity=0 time=0
EXTRACT: note_on channel=4 note=62 velocity=0 time=0
EXTRACT: note_on channel=4 note=59 velocity=0 time=0
EXTRACT: note_on channel=4 note=54 velocity=0 time=0
EXTRACT: note_on channel=4 note=47 velocity=0 time=0
EXTRACT: control_change channel=6 control=11 value=50 time=0
EXTRACT: note_on channel=7 note=66 velocity=0 time=0
EXTRACT: note_on channel=7 note=62 velocity=0 time=0
EXTRACT: note_on channel=7 note=59 velocity=0 time=0
EXTRACT: note_on channel=7 note=54 velocity=0 time=0
EXTRACT: note_on channel=7 note=47 velocity=0 time=0
EXTRACT: note_on channel=8 note=54 velocity=0 time=0
EXTRACT: note_on channel=8 note=66 velocity=0 time=0
EXTRACT: note_on channel=8 note=57 velocity=100 time=0
EXTRACT: note_on channel=8 note=69 velocity=119 time=0
EXTRACT: note_on channel=3 note=62 velocity=108 time=0.005263149999999999
EXTRACT: control_change channel=5 control=11 value=77 time=0
EXTRACT: control_change channel=5 control=11 value=78 time=0.015789449999999997
EXTRACT: control_change channel=6 control=11 value=51 time=0.010526299999999999
EXTRACT: control_change channel=5 control=11 value=79 time=0.010526299999999999
EXTRACT: note_on channel=9 note=42 velocity=0 time=0.010526299999999999
EXTRACT: control_change channel=5 control=11 value=80 time=0.010526299999999999
EXTRACT: control_change channel=6 control=11 value=52 time=0
EXTRACT: control_change channel=5 control=11 value=81 time=0.015789449999999997
EXTRACT: control_change channel=6 control=11 value=53 time=0.015789449999999997
EXTRACT: control_change channel=5 control=11 value=82 time=0.005263149999999999
EXTRACT: control_change channel=5 control=11 value=83 time=0.015789449999999997
EXTRACT: control_change channel=6 control=11 value=54 time=0.010526299999999999
EXTRACT: control_change channel=5 control=11 value=84 time=0.010526299999999999
EXTRACT: note_on channel=2 note=66 velocity=121 time=0.015789449999999997
EXTRACT: note_on channel=1 note=42 velocity=126 time=0.005263149999999999
EXTRACT: note_on channel=4 note=66 velocity=115 time=0
EXTRACT: note_on channel=4 note=62 velocity=108 time=0
EXTRACT: note_on channel=4 note=59 velocity=100 time=0
EXTRACT: note_on channel=4 note=54 velocity=117 time=0
EXTRACT: note_on channel=4 note=47 velocity=88 time=0
EXTRACT: control_change channel=5 control=11 value=85 time=0
EXTRACT: control_change channel=6 control=11 value=55 time=0
EXTRACT: note_on channel=7 note=66 velocity=87 time=0
EXTRACT: note_on channel=7 note=62 velocity=74 time=0
EXTRACT: note_on channel=7 note=59 velocity=86 time=0
EXTRACT: note_on channel=7 note=54 velocity=79 time=0
EXTRACT: note_on channel=7 note=47 velocity=83 time=0
EXTRACT: note_on channel=8 note=57 velocity=0 time=0
EXTRACT: note_on channel=8 note=69 velocity=0 time=0
EXTRACT: control_change channel=5 control=11 value=86 time=0.015789449999999997
EXTRACT: control_change channel=6 control=11 value=56 time=0.015789449999999997
EXTRACT: control_change channel=5 control=11 value=87 time=0.005263149999999999
EXTRACT: control_change channel=5 control=11 value=88 time=0.015789449999999997
EXTRACT: control_change channel=6 control=11 value=57 time=0.010526299999999999
EXTRACT: control_change channel=5 control=11 value=89 time=0.010526299999999999
EXTRACT: control_change channel=5 control=11 value=90 time=0.015789449999999997
EXTRACT: control_change channel=6 control=11 value=58 time=0.005263149999999999
EXTRACT: control_change channel=5 control=11 value=91 time=0.015789449999999997
EXTRACT: control_change channel=6 control=11 value=59 time=0.015789449999999997
EXTRACT: control_change channel=5 control=11 value=92 time=0.005263149999999999
EXTRACT: control_change channel=5 control=11 value=93 time=0.015789449999999997
EXTRACT: note_on channel=9 note=42 velocity=109 time=0.010526299999999999
EXTRACT: note_on channel=9 note=40 velocity=127 time=0
EXTRACT: note_on channel=9 note=69 velocity=62 time=0
EXTRACT: note_on channel=1 note=42 velocity=0 time=0
EXTRACT: note_on channel=4 note=66 velocity=0 time=0
EXTRACT: note_on channel=4 note=62 velocity=0 time=0
EXTRACT: note_on channel=4 note=59 velocity=0 time=0
EXTRACT: note_on channel=4 note=54 velocity=0 time=0
EXTRACT: note_on channel=4 note=47 velocity=0 time=0
EXTRACT: control_change channel=6 control=11 value=60 time=0
EXTRACT: note_on channel=7 note=66 velocity=0 time=0
EXTRACT: note_on channel=7 note=62 velocity=0 time=0
EXTRACT: note_on channel=7 note=59 velocity=0 time=0
EXTRACT: note_on channel=7 note=54 velocity=0 time=0
EXTRACT: note_on channel=7 note=47 velocity=0 time=0
EXTRACT: note_on channel=8 note=55 velocity=94 time=0
EXTRACT: note_on channel=8 note=67 velocity=118 time=0
EXTRACT: note_on channel=3 note=62 velocity=0 time=0.005263149999999999
EXTRACT: control_change channel=5 control=11 value=94 time=0.005263149999999999
EXTRACT: control_change channel=5 control=11 value=95 time=0.015789449999999997
EXTRACT: control_change channel=6 control=11 value=61 time=0.005263149999999999
EXTRACT: control_change channel=5 control=11 value=96 time=0.015789449999999997
EXTRACT: note_on channel=9 note=42 velocity=0 time=0.005263149999999999
EXTRACT: note_on channel=9 note=40 velocity=0 time=0
EXTRACT: note_on channel=9 note=69 velocity=0 time=0
EXTRACT: control_change channel=6 control=11 value=62 time=0.010526299999999999
EXTRACT: control_change channel=5 control=11 value=97 time=0.005263149999999999
EXTRACT: control_change channel=5 control=11 value=98 time=0.015789449999999997
EXTRACT: control_change channel=6 control=11 value=63 time=0.010526299999999999
EXTRACT: control_change channel=5 control=11 value=99 time=0.010526299999999999
EXTRACT: control_change channel=5 control=11 value=100 time=0.015789449999999997
EXTRACT: control_change channel=6 control=11 value=64 time=0.005263149999999999
EXTRACT: control_change channel=5 control=11 value=101 time=0.015789449999999997
EXTRACT: note_on channel=2 note=62 velocity=114 time=0.010526299999999999
EXTRACT: note_on channel=9 note=69 velocity=70 time=0.005263149999999999
EXTRACT: note_on channel=1 note=42 velocity=112 time=0
EXTRACT: note_on channel=4 note=66 velocity=88 time=0
EXTRACT: note_on channel=4 note=62 velocity=71 time=0
EXTRACT: note_on channel=4 note=59 velocity=54 time=0
EXTRACT: note_on channel=4 note=54 velocity=52 time=0
EXTRACT: note_on channel=4 note=47 velocity=51 time=0
EXTRACT: control_change channel=5 control=11 value=102 time=0
EXTRACT: control_change channel=6 control=11 value=65 time=0
EXTRACT: note_on channel=8 note=55 velocity=0 time=0
EXTRACT: note_on channel=8 note=67 velocity=0 time=0
EXTRACT: note_on channel=3 note=62 velocity=112 time=0.005263149999999999
EXTRACT: control_change channel=5 control=11 value=103 time=0.015789449999999997
EXTRACT: control_change channel=6 control=11 value=66 time=0.010526299999999999
EXTRACT: control_change channel=5 control=11 value=104 time=0.010526299999999999
EXTRACT: note_on channel=9 note=69 velocity=0 time=0.010526299999999999
EXTRACT: control_change channel=5 control=11 value=105 time=0.005263149999999999
EXTRACT: control_change channel=6 control=11 value=67 time=0.005263149999999999
EXTRACT: note_on channel=4 note=66 velocity=0 time=0.015789449999999997
EXTRACT: note_on channel=4 note=62 velocity=0 time=0
EXTRACT: note_on channel=4 note=59 velocity=0 time=0
EXTRACT: note_on channel=4 note=54 velocity=0 time=0
EXTRACT: note_on channel=4 note=47 velocity=0 time=0
EXTRACT: control_change channel=5 control=11 value=106 time=0
EXTRACT: control_change channel=5 control=11 value=107 time=0.015789449999999997
EXTRACT: control_change channel=6 control=11 value=68 time=0
EXTRACT: control_change channel=5 control=11 value=108 time=0.021052599999999998
EXTRACT: control_change channel=6 control=11 value=69 time=0.010526299999999999
EXTRACT: control_change channel=5 control=11 value=109 time=0.010526299999999999
EXTRACT: note_on channel=1 note=42 velocity=0 time=0.015789449999999997
EXTRACT: control_change channel=5 control=11 value=110 time=0
EXTRACT: note_on channel=9 note=42 velocity=97 time=0.005263149999999999
EXTRACT: note_on channel=1 note=38 velocity=114 time=0
EXTRACT: note_on channel=4 note=66 velocity=43 time=0
EXTRACT: note_on channel=4 note=62 velocity=46 time=0
EXTRACT: note_on channel=4 note=59 velocity=39 time=0
EXTRACT: control_change channel=6 control=11 value=70 time=0
EXTRACT: note_on channel=8 note=54 velocity=96 time=0
EXTRACT: note_on channel=8 note=66 velocity=123 time=0
EXTRACT: note_on channel=3 note=62 velocity=0 time=0.005263149999999999
EXTRACT: note_on channel=3 note=61 velocity=114 time=0
EXTRACT: control_change channel=5 control=11 value=111 time=0.010526299999999999
EXTRACT: control_change channel=5 control=11 value=112 time=0.015789449999999997
EXTRACT: control_change channel=6 control=11 value=71 time=0
EXTRACT: note_on channel=9 note=42 velocity=0 time=0.021052599999999998
EXTRACT: control_change channel=5 control=11 value=113 time=0
EXTRACT: control_change channel=6 control=11 value=72 time=0.010526299999999999
EXTRACT: control_change channel=5 control=11 value=114 time=0.005263149999999999
EXTRACT: note_on channel=4 note=66 velocity=0 time=0.010526299999999999
EXTRACT: note_on channel=4 note=62 velocity=0 time=0
EXTRACT: note_on channel=4 note=59 velocity=0 time=0
EXTRACT: control_change channel=5 control=11 value=115 time=0.010526299999999999
EXTRACT: control_change channel=6 control=11 value=73 time=0.005263149999999999
EXTRACT: control_change channel=5 control=11 value=116 time=0.015789449999999997
EXTRACT: control_change channel=5 control=11 value=117 time=0.015789449999999997
EXTRACT: control_change channel=6 control=11 value=74 time=0
EXTRACT: control_change channel=5 control=11 value=118 time=0.021052599999999998
EXTRACT: note_on channel=2 note=59 velocity=112 time=0.005263149999999999
EXTRACT: note_on channel=9 note=69 velocity=62 time=0.005263149999999999
EXTRACT: note_on channel=1 note=38 velocity=0 time=0
EXTRACT: note_on channel=4 note=66 velocity=75 time=0
EXTRACT: note_on channel=4 note=62 velocity=57 time=0
EXTRACT: note_on channel=4 note=59 velocity=86 time=0
EXTRACT: note_on channel=4 note=54 velocity=76 time=0
EXTRACT: note_on channel=4 note=47 velocity=74 time=0
EXTRACT: control_change channel=6 control=11 value=75 time=0
EXTRACT: note_on channel=8 note=54 velocity=0 time=0
EXTRACT: note_on channel=8 note=66 velocity=0 time=0
EXTRACT: note_on channel=3 note=61 velocity=0 time=0.005263149999999999
EXTRACT: note_on channel=3 note=59 velocity=115 time=0
EXTRACT: control_change channel=5 control=11 value=119 time=0
EXTRACT: control_change channel=5 control=11 value=120 time=0.021052599999999998
EXTRACT: control_change channel=6 control=11 value=76 time=0.005263149999999999
EXTRACT: control_change channel=5 control=11 value=121 time=0.015789449999999997
EXTRACT: note_on channel=9 note=69 velocity=0 time=0.005263149999999999
EXTRACT: control_change channel=5 control=11 value=122 time=0.010526299999999999
EXTRACT: control_change channel=6 control=11 value=77 time=0
EXTRACT: note_on channel=4 note=66 velocity=0 time=0.015789449999999997
EXTRACT: note_on channel=4 note=62 velocity=0 time=0
EXTRACT: note_on channel=4 note=59 velocity=0 time=0
EXTRACT: note_on channel=4 note=54 velocity=0 time=0
EXTRACT: note_on channel=4 note=47 velocity=0 time=0
EXTRACT: control_change channel=5 control=11 value=123 time=0.005263149999999999
EXTRACT: control_change channel=6 control=11 value=78 time=0.010526299999999999
EXTRACT: control_change channel=5 control=11 value=124 time=0.005263149999999999
EXTRACT: control_change channel=5 control=11 value=125 time=0.021052599999999998
EXTRACT: control_change channel=6 control=11 value=79 time=0.005263149999999999
EXTRACT: control_change channel=5 control=11 value=126 time=0.010526299999999999
EXTRACT: note_on channel=9 note=36 velocity=120 time=0.021052599999999998
EXTRACT: note_on channel=9 note=42 velocity=109 time=0
EXTRACT: note_on channel=1 note=35 velocity=124 time=0
EXTRACT: note_on channel=4 note=66 velocity=70 time=0
EXTRACT: note_on channel=4 note=62 velocity=67 time=0
EXTRACT: note_on channel=4 note=59 velocity=61 time=0
EXTRACT: control_change channel=5 control=11 value=127 time=0
EXTRACT: control_change channel=6 control=11 value=80 time=0
EXTRACT: note_on channel=8 note=52 velocity=96 time=0
EXTRACT: note_on channel=8 note=64 velocity=120 time=0
EXTRACT: note_on channel=3 note=59 velocity=0 time=0.005263149999999999
EXTRACT: note_on channel=9 note=36 velocity=0 time=0.04736835
EXTRACT: note_on channel=9 note=42 velocity=0 time=0
EXTRACT: note_on channel=4 note=66 velocity=0 time=0.02631575
EXTRACT: note_on channel=4 note=62 velocity=0 time=0
EXTRACT: note_on channel=4 note=59 velocity=0 time=0
EXTRACT: note_on channel=2 note=62 velocity=111 time=0.07368409999999999
EXTRACT: note_on channel=9 note=69 velocity=73 time=0.005263149999999999
EXTRACT: note_on channel=3 note=62 velocity=109 time=0.005263149999999999
EXTRACT: note_on channel=9 note=69 velocity=0 time=0.04736835
EXTRACT: note_on channel=9 note=42 velocity=93 time=0.105263
EXTRACT: note_on channel=9 note=69 velocity=78 time=0
EXTRACT: note_on channel=1 note=35 velocity=0 time=0
EXTRACT: note_on channel=4 note=66 velocity=106 time=0
EXTRACT: note_on channel=4 note=62 velocity=96 time=0
EXTRACT: note_on channel=4 note=59 velocity=85 time=0
EXTRACT: note_on channel=4 note=54 velocity=114 time=0
EXTRACT: note_on channel=4 note=47 velocity=115 time=0
EXTRACT: note_on channel=7 note=66 velocity=81 time=0
EXTRACT: note_on channel=7 note=62 velocity=79 time=0
EXTRACT: note_on channel=7 note=59 velocity=93 time=0
EXTRACT: note_on channel=7 note=54 velocity=88 time=0
EXTRACT: note_on channel=7 note=47 velocity=111 time=0
EXTRACT: note_on channel=8 note=52 velocity=0 time=0
EXTRACT: note_on channel=8 note=64 velocity=0 time=0
EXTRACT: note_on channel=8 note=50 velocity=84 time=0
EXTRACT: note_on channel=8 note=62 velocity=121 time=0
EXTRACT: note_on channel=3 note=62 velocity=0 time=0.005263149999999999
EXTRACT: note_on channel=9 note=42 velocity=0 time=0.04736835
EXTRACT: note_on channel=9 note=69 velocity=0 time=0
EXTRACT: note_on channel=2 note=66 velocity=118 time=0.09999984999999999
EXTRACT: note_on channel=4 note=66 velocity=0 time=0.005263149999999999
EXTRACT: note_on channel=4 note=62 velocity=0 time=0
EXTRACT: note_on channel=4 note=59 velocity=0 time=0
EXTRACT: note_on channel=4 note=54 velocity=0 time=0
EXTRACT: note_on channel=4 note=47 velocity=0 time=0
EXTRACT: note_on channel=7 note=66 velocity=0 time=0
EXTRACT: note_on channel=7 note=62 velocity=0 time=0
EXTRACT: note_on channel=7 note=59 velocity=0 time=0
EXTRACT: note_on channel=7 note=54 velocity=0 time=0
EXTRACT: note_on channel=7 note=47 velocity=0 time=0
EXTRACT: note_on channel=8 note=50 velocity=0 time=0
EXTRACT: note_on channel=8 note=62 velocity=0 time=0
EXTRACT: note_on channel=3 note=62 velocity=122 time=0.005263149999999999
EXTRACT: note_on channel=2 note=66 velocity=111 time=0.14736819999999998
EXTRACT: note_on channel=9 note=40 velocity=127 time=0.005263149999999999
EXTRACT: note_on channel=9 note=42 velocity=105 time=0
EXTRACT: note_on channel=9 note=69 velocity=66 time=0
EXTRACT: note_on channel=8 note=52 velocity=97 time=0
EXTRACT: note_on channel=8 note=64 velocity=118 time=0
EXTRACT: note_on channel=9 note=40 velocity=0 time=0.0526315
EXTRACT: note_on channel=9 note=42 velocity=0 time=0
EXTRACT: note_on channel=9 note=69 velocity=0 time=0
EXTRACT: note_on channel=4 note=66 velocity=68 time=0.105263
EXTRACT: note_on channel=4 note=62 velocity=52 time=0
EXTRACT: note_on channel=4 note=59 velocity=66 time=0
EXTRACT: note_on channel=8 note=52 velocity=0 time=0
EXTRACT: note_on channel=8 note=64 velocity=0 time=0
EXTRACT: note_on channel=4 note=66 velocity=0 time=0.07894725
EXTRACT: note_on channel=4 note=62 velocity=0 time=0
EXTRACT: note_on channel=4 note=59 velocity=0 time=0
EXTRACT: note_on channel=2 note=62 velocity=111 time=0.07368409999999999
EXTRACT: note_on channel=9 note=42 velocity=90 time=0.005263149999999999
EXTRACT: note_on channel=1 note=30 velocity=113 time=0
EXTRACT: note_on channel=4 note=66 velocity=66 time=0
EXTRACT: note_on channel=4 note=62 velocity=70 time=0
EXTRACT: note_on channel=4 note=59 velocity=55 time=0
EXTRACT: note_on channel=4 note=54 velocity=74 time=0
EXTRACT: note_on channel=4 note=47 velocity=68 time=0
EXTRACT: note_on channel=8 note=54 velocity=83 time=0
EXTRACT: note_on channel=8 note=66 velocity=115 time=0
EXTRACT: note_on channel=9 note=42 velocity=0 time=0.0526315
EXTRACT: note_on channel=4 note=66 velocity=0 time=0.02631575
EXTRACT: note_on channel=4 note=62 velocity=0 time=0
EXTRACT: note_on channel=4 note=59 velocity=0 time=0
EXTRACT: note_on channel=4 note=54 velocity=0 time=0
EXTRACT: note_on channel=4 note=47 velocity=0 time=0
EXTRACT: note_on channel=1 note=30 velocity=0 time=0.07894725
EXTRACT: note_on channel=2 note=47 velocity=0 time=0.15263134999999997
EXTRACT: note_on channel=2 note=62 velocity=0 time=0
EXTRACT: note_on channel=2 note=66 velocity=0 time=0
EXTRACT: note_on channel=2 note=62 velocity=0 time=0
EXTRACT: note_on channel=2 note=59 velocity=0 time=0
EXTRACT: note_on channel=2 note=62 velocity=0 time=0
EXTRACT: note_on channel=2 note=66 velocity=0 time=0
EXTRACT: note_on channel=2 note=66 velocity=0 time=0
EXTRACT: note_on channel=2 note=47 velocity=105 time=0
EXTRACT: note_on channel=9 note=42 velocity=91 time=0.005263149999999999
EXTRACT: note_on channel=9 note=36 velocity=120 time=0
EXTRACT: note_on channel=1 note=35 velocity=123 time=0
EXTRACT: note_on channel=4 note=66 velocity=111 time=0
EXTRACT: note_on channel=4 note=62 velocity=90 time=0
EXTRACT: note_on channel=4 note=59 velocity=103 time=0
EXTRACT: note_on channel=4 note=54 velocity=93 time=0
EXTRACT: note_on channel=4 note=47 velocity=85 time=0
EXTRACT: note_on channel=7 note=66 velocity=81 time=0
EXTRACT: note_on channel=7 note=62 velocity=87 time=0
EXTRACT: note_on channel=7 note=59 velocity=82 time=0
EXTRACT: note_on channel=7 note=54 velocity=90 time=0
EXTRACT: note_on channel=7 note=47 velocity=79 time=0
EXTRACT: note_on channel=3 note=62 velocity=0 time=0.005263149999999999
EXTRACT: note_on channel=9 note=42 velocity=0 time=0.04736835
EXTRACT: note_on channel=9 note=36 velocity=0 time=0
EXTRACT: note_on channel=1 note=35 velocity=0 time=0.18421025
EXTRACT: note_on channel=2 note=62 velocity=0 time=0.07368409999999999
EXTRACT: note_on channel=2 note=62 velocity=116 time=0
EXTRACT: note_on channel=9 note=42 velocity=105 time=0.005263149999999999
EXTRACT: note_on channel=4 note=66 velocity=0 time=0
EXTRACT: note_on channel=4 note=62 velocity=0 time=0
EXTRACT: note_on channel=4 note=59 velocity=0 time=0
EXTRACT: note_on channel=4 note=54 velocity=0 time=0
EXTRACT: note_on channel=4 note=47 velocity=0 time=0
EXTRACT: note_on channel=7 note=66 velocity=0 time=0
EXTRACT: note_on channel=7 note=62 velocity=0 time=0
EXTRACT: note_on channel=7 note=59 velocity=0 time=0
EXTRACT: note_on channel=7 note=54 velocity=0 time=0
EXTRACT: note_on channel=7 note=47 velocity=0 time=0
EXTRACT: note_on channel=8 note=54 velocity=0 time=0
EXTRACT: note_on channel=8 note=66 velocity=0 time=0
EXTRACT: note_on channel=8 note=57 velocity=85 time=0
EXTRACT: note_on channel=8 note=69 velocity=116 time=0
EXTRACT: note_on channel=3 note=62 velocity=113 time=0.005263149999999999
EXTRACT: note_on channel=9 note=42 velocity=0 time=0.04736835
EXTRACT: note_on channel=2 note=66 velocity=126 time=0.09999984999999999
EXTRACT: note_on channel=1 note=35 velocity=113 time=0.005263149999999999
EXTRACT: note_on channel=4 note=66 velocity=93 time=0
EXTRACT: note_on channel=4 note=62 velocity=89 time=0
EXTRACT: note_on channel=4 note=59 velocity=102 time=0
EXTRACT: note_on channel=4 note=54 velocity=96 time=0
EXTRACT: note_on channel=4 note=47 velocity=100 time=0
EXTRACT: note_on channel=7 note=66 velocity=101 time=0
EXTRACT: note_on channel=7 note=62 velocity=99 time=0
EXTRACT: note_on channel=7 note=59 velocity=102 time=0
EXTRACT: note_on channel=7 note=54 velocity=110 time=0
EXTRACT: note_on channel=7 note=47 velocity=83 time=0
EXTRACT: note_on channel=8 note=57 velocity=0 time=0
EXTRACT: note_on channel=8 note=69 velocity=0 time=0
EXTRACT: note_on channel=9 note=42 velocity=109 time=0.1578945
EXTRACT: note_on channel=9 note=40 velocity=127 time=0
EXTRACT: note_on channel=9 note=69 velocity=62 time=0
EXTRACT: note_on channel=1 note=35 velocity=0 time=0
EXTRACT: note_on channel=4 note=66 velocity=0 time=0
EXTRACT: note_on channel=4 note=62 velocity=0 time=0
EXTRACT: note_on channel=4 note=59 velocity=0 time=0
EXTRACT: note_on channel=4 note=54 velocity=0 time=0
EXTRACT: note_on channel=4 note=47 velocity=0 time=0
EXTRACT: note_on channel=7 note=66 velocity=0 time=0
EXTRACT: note_on channel=7 note=62 velocity=0 time=0
EXTRACT: note_on channel=7 note=59 velocity=0 time=0
EXTRACT: note_on channel=7 note=54 velocity=0 time=0
EXTRACT: note_on channel=7 note=47 velocity=0 time=0
EXTRACT: note_on channel=8 note=55 velocity=83 time=0
EXTRACT: note_on channel=8 note=67 velocity=118 time=0
EXTRACT: note_on channel=3 note=62 velocity=0 time=0.005263149999999999
EXTRACT: note_on channel=9 note=42 velocity=0 time=0.04736835
EXTRACT: note_on channel=9 note=40 velocity=0 time=0
EXTRACT: note_on channel=9 note=69 velocity=0 time=0
EXTRACT: note_on channel=2 note=62 velocity=117 time=0.09999984999999999
EXTRACT: note_on channel=9 note=69 velocity=70 time=0.005263149999999999
EXTRACT: note_on channel=4 note=66 velocity=83 time=0
EXTRACT: note_on channel=4 note=62 velocity=56 time=0
EXTRACT: note_on channel=4 note=59 velocity=57 time=0
EXTRACT: note_on channel=4 note=54 velocity=84 time=0
EXTRACT: note_on channel=4 note=47 velocity=61 time=0
EXTRACT: note_on channel=8 note=55 velocity=0 time=0
EXTRACT: note_on channel=8 note=67 velocity=0 time=0
EXTRACT: note_on channel=3 note=62 velocity=107 time=0.005263149999999999
EXTRACT: note_on channel=9 note=69 velocity=0 time=0.04736835
EXTRACT: note_on channel=4 note=66 velocity=0 time=0.02631575
EXTRACT: note_on channel=4 note=62 velocity=0 time=0
EXTRACT: note_on channel=4 note=59 velocity=0 time=0
EXTRACT: note_on channel=4 note=54 velocity=0 time=0
EXTRACT: note_on channel=4 note=47 velocity=0 time=0
EXTRACT: note_on channel=9 note=42 velocity=110 time=0.07894725
EXTRACT: note_on channel=4 note=66 velocity=50 time=0
EXTRACT: note_on channel=4 note=62 velocity=40 time=0
EXTRACT: note_on channel=4 note=59 velocity=60 time=0
EXTRACT: note_on channel=8 note=54 velocity=94 time=0
EXTRACT: note_on channel=8 note=66 velocity=115 time=0
EXTRACT: note_on channel=3 note=62 velocity=0 time=0.005263149999999999
EXTRACT: note_on channel=3 note=61 velocity=103 time=0
EXTRACT: note_on channel=9 note=42 velocity=0 time=0.04736835
EXTRACT: note_on channel=4 note=66 velocity=0 time=0.02631575
EXTRACT: note_on channel=4 note=62 velocity=0 time=0
EXTRACT: note_on channel=4 note=59 velocity=0 time=0
EXTRACT: note_on channel=2 note=59 velocity=109 time=0.07368409999999999
EXTRACT: note_on channel=9 note=69 velocity=62 time=0.005263149999999999
EXTRACT: note_on channel=4 note=66 velocity=86 time=0
EXTRACT: note_on channel=4 note=62 velocity=68 time=0
EXTRACT: note_on channel=4 note=59 velocity=55 time=0
EXTRACT: note_on channel=4 note=54 velocity=89 time=0
EXTRACT: note_on channel=4 note=47 velocity=87 time=0
EXTRACT: note_on channel=8 note=54 velocity=0 time=0
EXTRACT: note_on channel=8 note=66 velocity=0 time=0
EXTRACT: note_on channel=3 note=61 velocity=0 time=0.005263149999999999
EXTRACT: note_on channel=3 note=59 velocity=114 time=0
EXTRACT: note_on channel=9 note=69 velocity=0 time=0.04736835
EXTRACT: note_on channel=4 note=66 velocity=0 time=0.02631575
EXTRACT: note_on channel=4 note=62 velocity=0 time=0
EXTRACT: note_on channel=4 note=59 velocity=0 time=0
EXTRACT: note_on channel=4 note=54 velocity=0 time=0
EXTRACT: note_on channel=4 note=47 velocity=0 time=0
EXTRACT: note_on channel=9 note=36 velocity=120 time=0.07894725
EXTRACT: note_on channel=9 note=42 velocity=110 time=0
EXTRACT: note_on channel=4 note=66 velocity=69 time=0
EXTRACT: note_on channel=4 note=62 velocity=68 time=0
EXTRACT: note_on channel=4 note=59 velocity=52 time=0
EXTRACT: note_on channel=8 note=52 velocity=90 time=0
EXTRACT: note_on channel=8 note=64 velocity=123 time=0
EXTRACT: note_on channel=3 note=59 velocity=0 time=0.005263149999999999
EXTRACT: note_on channel=9 note=36 velocity=0 time=0.04736835
EXTRACT: note_on channel=9 note=42 velocity=0 time=0
EXTRACT: note_on channel=4 note=66 velocity=0 time=0.02631575
EXTRACT: note_on channel=4 note=62 velocity=0 time=0
EXTRACT: note_on channel=4 note=59 velocity=0 time=0
EXTRACT: note_on channel=2 note=62 velocity=110 time=0.07368409999999999
EXTRACT: note_on channel=9 note=69 velocity=73 time=0.005263149999999999
EXTRACT: note_on channel=3 note=62 velocity=105 time=0.005263149999999999
EXTRACT: note_on channel=9 note=69 velocity=0 time=0.04736835
EXTRACT: note_on channel=9 note=42 velocity=101 time=0.105263
EXTRACT: note_on channel=9 note=69 velocity=78 time=0
EXTRACT: note_on channel=1 note=35 velocity=126 time=0
EXTRACT: note_on channel=4 note=66 velocity=109 time=0
EXTRACT: note_on channel=4 note=62 velocity=97 time=0
EXTRACT: note_on channel=4 note=59 velocity=92 time=0
EXTRACT: note_on channel=4 note=54 velocity=100 time=0
EXTRACT: note_on channel=4 note=47 velocity=89 time=0
EXTRACT: note_on channel=7 note=66 velocity=90 time=0
EXTRACT: note_on channel=7 note=62 velocity=93 time=0
EXTRACT: note_on channel=7 note=59 velocity=77 time=0
EXTRACT: note_on channel=7 note=54 velocity=105 time=0
EXTRACT: note_on channel=7 note=47 velocity=107 time=0
EXTRACT: note_on channel=8 note=52 velocity=0 time=0
EXTRACT: note_on channel=8 note=64 velocity=0 time=0
EXTRACT: note_on channel=8 note=50 velocity=95 time=0
EXTRACT: note_on channel=8 note=62 velocity=124 time=0
EXTRACT: note_on channel=3 note=62 velocity=0 time=0.005263149999999999
EXTRACT: note_on channel=9 note=42 velocity=0 time=0.04736835
EXTRACT: note_on channel=9 note=69 velocity=0 time=0
EXTRACT: note_on channel=2 note=66 velocity=103 time=0.09999984999999999
EXTRACT: note_on channel=1 note=35 velocity=0 time=0.005263149999999999
EXTRACT: note_on channel=4 note=66 velocity=0 time=0
EXTRACT: note_on channel=4 note=62 velocity=0 time=0
EXTRACT: note_on channel=4 note=59 velocity=0 time=0
EXTRACT: note_on channel=4 note=54 velocity=0 time=0
EXTRACT: note_on channel=4 note=47 velocity=0 time=0
EXTRACT: note_on channel=7 note=66 velocity=0 time=0
EXTRACT: note_on channel=7 note=62 velocity=0 time=0
EXTRACT: note_on channel=7 note=59 velocity=0 time=0
EXTRACT: note_on channel=7 note=54 velocity=0 time=0
EXTRACT: note_on channel=7 note=47 velocity=0 time=0
EXTRACT: note_on channel=8 note=50 velocity=0 time=0
EXTRACT: note_on channel=8 note=62 velocity=0 time=0
EXTRACT: note_on channel=3 note=62 velocity=103 time=0.005263149999999999
EXTRACT: note_on channel=2 note=66 velocity=123 time=0.14736819999999998
EXTRACT: note_on channel=9 note=40 velocity=127 time=0.005263149999999999
EXTRACT: note_on channel=9 note=42 velocity=98 time=0
EXTRACT: note_on channel=9 note=69 velocity=66 time=0
EXTRACT: note_on channel=8 note=54 velocity=101 time=0
EXTRACT: note_on channel=8 note=66 velocity=121 time=0
EXTRACT: note_on channel=9 note=40 velocity=0 time=0.0526315
EXTRACT: note_on channel=9 note=42 velocity=0 time=0
EXTRACT: note_on channel=9 note=69 velocity=0 time=0
EXTRACT: note_on channel=4 note=66 velocity=41 time=0.105263
EXTRACT: note_on channel=4 note=62 velocity=40 time=0
EXTRACT: note_on channel=4 note=59 velocity=67 time=0
EXTRACT: note_on channel=8 note=54 velocity=0 time=0
EXTRACT: note_on channel=8 note=66 velocity=0 time=0
EXTRACT: note_on channel=4 note=66 velocity=0 time=0.07894725
EXTRACT: note_on channel=4 note=62 velocity=0 time=0
EXTRACT: note_on channel=4 note=59 velocity=0 time=0
EXTRACT: note_on channel=2 note=62 velocity=117 time=0.07368409999999999
EXTRACT: note_on channel=9 note=36 velocity=90 time=0.005263149999999999
EXTRACT: note_on channel=9 note=42 velocity=94 time=0
EXTRACT: note_on channel=1 note=38 velocity=110 time=0
EXTRACT: note_on channel=4 note=66 velocity=90 time=0
EXTRACT: note_on channel=4 note=62 velocity=68 time=0
EXTRACT: note_on channel=4 note=59 velocity=89 time=0
EXTRACT: note_on channel=4 note=54 velocity=70 time=0
EXTRACT: note_on channel=4 note=47 velocity=89 time=0
EXTRACT: note_on channel=8 note=47 velocity=88 time=0
EXTRACT: note_on channel=8 note=59 velocity=120 time=0
EXTRACT: note_on channel=9 note=36 velocity=0 time=0.0526315
EXTRACT: note_on channel=9 note=42 velocity=0 time=0
EXTRACT: note_on channel=4 note=66 velocity=0 time=0.02631575
EXTRACT: note_on channel=4 note=62 velocity=0 time=0
EXTRACT: note_on channel=4 note=59 velocity=0 time=0
EXTRACT: note_on channel=4 note=54 velocity=0 time=0
EXTRACT: note_on channel=4 note=47 velocity=0 time=0
EXTRACT: note_on channel=9 note=40 velocity=127 time=0.07894725
EXTRACT: note_on channel=1 note=38 velocity=0 time=0
EXTRACT: note_on channel=9 note=40 velocity=0 time=0.0526315
EXTRACT: note_on channel=2 note=47 velocity=0 time=0.09999984999999999
EXTRACT: note_on channel=2 note=62 velocity=0 time=0
EXTRACT: note_on channel=2 note=66 velocity=0 time=0
EXTRACT: note_on channel=2 note=62 velocity=0 time=0
EXTRACT: note_on channel=2 note=59 velocity=0 time=0
EXTRACT: note_on channel=2 note=62 velocity=0 time=0
EXTRACT: note_on channel=2 note=66 velocity=0 time=0
EXTRACT: note_on channel=2 note=66 velocity=0 time=0
EXTRACT: note_on channel=2 note=62 velocity=0 time=0
EXTRACT: note_on channel=2 note=40 velocity=108 time=0
EXTRACT: note_on channel=9 note=42 velocity=92 time=0.005263149999999999
EXTRACT: note_on channel=9 note=36 velocity=120 time=0
EXTRACT: note_on channel=1 note=40 velocity=122 time=0
EXTRACT: note_on channel=4 note=67 velocity=110 time=0
EXTRACT: note_on channel=4 note=62 velocity=87 time=0
EXTRACT: note_on channel=4 note=59 velocity=92 time=0
EXTRACT: note_on channel=4 note=55 velocity=108 time=0
EXTRACT: note_on channel=4 note=47 velocity=104 time=0
EXTRACT: note_on channel=5 note=90 velocity=0 time=0
EXTRACT: note_on channel=5 note=78 velocity=0 time=0
EXTRACT: note_on channel=5 note=91 velocity=101 time=0
EXTRACT: note_on channel=5 note=79 velocity=107 time=0
EXTRACT: note_on channel=6 note=59 velocity=0 time=0
EXTRACT: note_on channel=6 note=62 velocity=0 time=0
EXTRACT: note_on channel=6 note=66 velocity=0 time=0
EXTRACT: note_on channel=6 note=59 velocity=126 time=0
EXTRACT: note_on channel=6 note=62 velocity=118 time=0
EXTRACT: note_on channel=6 note=67 velocity=127 time=0
EXTRACT: note_on channel=7 note=67 velocity=102 time=0
EXTRACT: note_on channel=7 note=62 velocity=105 time=0
EXTRACT: note_on channel=7 note=59 velocity=101 time=0
EXTRACT: note_on channel=7 note=55 velocity=101 time=0
EXTRACT: note_on channel=7 note=47 velocity=110 time=0
EXTRACT: note_on channel=3 note=62 velocity=0 time=0.005263149999999999
EXTRACT: note_on channel=9 note=42 velocity=0 time=0.04736835
EXTRACT: note_on channel=9 note=36 velocity=0 time=0
EXTRACT: note_on channel=1 note=40 velocity=0 time=0.07894725
EXTRACT: note_on channel=2 note=62 velocity=109 time=0.17894709999999997
EXTRACT: note_on channel=9 note=42 velocity=105 time=0.005263149999999999
EXTRACT: note_on channel=1 note=40 velocity=121 time=0
EXTRACT: note_on channel=4 note=67 velocity=0 time=0
EXTRACT: note_on channel=4 note=62 velocity=0 time=0
EXTRACT: note_on channel=4 note=59 velocity=0 time=0
EXTRACT: note_on channel=4 note=55 velocity=0 time=0
EXTRACT: note_on channel=4 note=47 velocity=0 time=0
EXTRACT: note_on channel=7 note=67 velocity=0 time=0
EXTRACT: note_on channel=7 note=62 velocity=0 time=0
EXTRACT: note_on channel=7 note=59 velocity=0 time=0
EXTRACT: note_on channel=7 note=55 velocity=0 time=0
EXTRACT: note_on channel=7 note=47 velocity=0 time=0
EXTRACT: note_on channel=8 note=47 velocity=0 time=0
EXTRACT: note_on channel=8 note=59 velocity=0 time=0
EXTRACT: note_on channel=8 note=52 velocity=89 time=0
EXTRACT: note_on channel=8 note=64 velocity=117 time=0
EXTRACT: note_on channel=3 note=62 velocity=122 time=0.005263149999999999
EXTRACT: note_on channel=9 note=42 velocity=0 time=0.04736835
EXTRACT: note_on channel=1 note=40 velocity=0 time=0.09999984999999999
EXTRACT: note_on channel=2 note=67 velocity=126 time=0
EXTRACT: note_on channel=1 note=35 velocity=120 time=0.005263149999999999
EXTRACT: note_on channel=4 note=67 velocity=107 time=0
EXTRACT: note_on channel=4 note=62 velocity=101 time=0
EXTRACT: note_on channel=4 note=59 velocity=109 time=0
EXTRACT: note_on channel=4 note=55 velocity=116 time=0
EXTRACT: note_on channel=4 note=47 velocity=93 time=0
EXTRACT: note_on channel=7 note=67 velocity=106 time=0
EXTRACT: note_on channel=7 note=62 velocity=83 time=0
EXTRACT: note_on channel=7 note=59 velocity=112 time=0
EXTRACT: note_on channel=7 note=55 velocity=108 time=0
EXTRACT: note_on channel=7 note=47 velocity=77 time=0
EXTRACT: note_on channel=8 note=52 velocity=0 time=0
EXTRACT: note_on channel=8 note=64 velocity=0 time=0
EXTRACT: note_on channel=9 note=42 velocity=98 time=0.1578945
EXTRACT: note_on channel=9 note=40 velocity=127 time=0
EXTRACT: note_on channel=9 note=69 velocity=62 time=0
EXTRACT: note_on channel=1 note=35 velocity=0 time=0
EXTRACT: note_on channel=4 note=67 velocity=0 time=0
EXTRACT: note_on channel=4 note=62 velocity=0 time=0
EXTRACT: note_on channel=4 note=59 velocity=0 time=0
EXTRACT: note_on channel=4 note=55 velocity=0 time=0
EXTRACT: note_on channel=4 note=47 velocity=0 time=0
EXTRACT: note_on channel=7 note=67 velocity=0 time=0
EXTRACT: note_on channel=7 note=62 velocity=0 time=0
EXTRACT: note_on channel=7 note=59 velocity=0 time=0
EXTRACT: note_on channel=7 note=55 velocity=0 time=0
EXTRACT: note_on channel=7 note=47 velocity=0 time=0
EXTRACT: note_on channel=8 note=52 velocity=89 time=0
EXTRACT: note_on channel=8 note=64 velocity=115 time=0
EXTRACT: note_on channel=3 note=62 velocity=0 time=0.005263149999999999
EXTRACT: note_on channel=9 note=42 velocity=0 time=0.04736835
EXTRACT: note_on channel=9 note=40 velocity=0 time=0
EXTRACT: note_on channel=9 note=69 velocity=0 time=0
EXTRACT: note_on channel=2 note=62 velocity=122 time=0.09999984999999999
EXTRACT: note_on channel=9 note=69 velocity=70 time=0.005263149999999999
EXTRACT: note_on channel=1 note=35 velocity=114 time=0
EXTRACT: note_on channel=4 note=67 velocity=79 time=0
EXTRACT: note_on channel=4 note=62 velocity=66 time=0
EXTRACT: note_on channel=4 note=59 velocity=91 time=0
EXTRACT: note_on channel=4 note=55 velocity=58 time=0
EXTRACT: note_on channel=4 note=47 velocity=53 time=0
EXTRACT: note_on channel=3 note=62 velocity=121 time=0.005263149999999999
EXTRACT: note_on channel=9 note=69 velocity=0 time=0.04736835
EXTRACT: note_on channel=4 note=67 velocity=0 time=0.02631575
EXTRACT: note_on channel=4 note=62 velocity=0 time=0
EXTRACT: note_on channel=4 note=59 velocity=0 time=0
EXTRACT: note_on channel=4 note=55 velocity=0 time=0
EXTRACT: note_on channel=4 note=47 velocity=0 time=0
EXTRACT: note_on channel=1 note=35 velocity=0 time=0.07368409999999999
EXTRACT: note_on channel=9 note=42 velocity=98 time=0.005263149999999999
EXTRACT: note_on channel=1 note=31 velocity=110 time=0
EXTRACT: note_on channel=4 note=67 velocity=62 time=0
EXTRACT: note_on channel=4 note=62 velocity=48 time=0
EXTRACT: note_on channel=4 note=59 velocity=51 time=0
EXTRACT: note_on channel=3 note=62 velocity=0 time=0.005263149999999999
EXTRACT: note_on channel=3 note=61 velocity=115 time=0
EXTRACT: note_on channel=9 note=42 velocity=0 time=0.04736835
EXTRACT: note_on channel=4 note=67 velocity=0 time=0.02631575
EXTRACT: note_on channel=4 note=62 velocity=0 time=0
EXTRACT: note_on channel=4 note=59 velocity=0 time=0
EXTRACT: note_on channel=2 note=59 velocity=127 time=0.07368409999999999
EXTRACT: note_on channel=9 note=69 velocity=62 time=0.005263149999999999
EXTRACT: note_on channel=1 note=31 velocity=0 time=0
EXTRACT: note_on channel=4 note=67 velocity=69 time=0
EXTRACT: note_on channel=4 note=62 velocity=56 time=0
EXTRACT: note_on channel=4 note=59 velocity=61 time=0
EXTRACT: note_on channel=4 note=55 velocity=59 time=0
EXTRACT: note_on channel=4 note=47 velocity=89 time=0
EXTRACT: note_on channel=3 note=61 velocity=0 time=0.005263149999999999
EXTRACT: note_on channel=3 note=59 velocity=126 time=0
EXTRACT: note_on channel=9 note=69 velocity=0 time=0.04736835
EXTRACT: note_on channel=4 note=67 velocity=0 time=0.02631575
EXTRACT: note_on channel=4 note=62 velocity=0 time=0
EXTRACT: note_on channel=4 note=59 velocity=0 time=0
EXTRACT: note_on channel=4 note=55 velocity=0 time=0
EXTRACT: note_on channel=4 note=47 velocity=0 time=0
EXTRACT: note_on channel=9 note=36 velocity=120 time=0.07894725
EXTRACT: note_on channel=9 note=42 velocity=105 time=0
EXTRACT: note_on channel=1 note=28 velocity=109 time=0
EXTRACT: note_on channel=4 note=67 velocity=70 time=0
EXTRACT: note_on channel=4 note=62 velocity=67 time=0
EXTRACT: note_on channel=4 note=59 velocity=66 time=0
EXTRACT: note_on channel=3 note=59 velocity=0 time=0.005263149999999999
EXTRACT: note_on channel=9 note=36 velocity=0 time=0.04736835
EXTRACT: note_on channel=9 note=42 velocity=0 time=0
EXTRACT: note_on channel=4 note=67 velocity=0 time=0.02631575
EXTRACT: note_on channel=4 note=62 velocity=0 time=0
EXTRACT: note_on channel=4 note=59 velocity=0 time=0
EXTRACT: note_on channel=2 note=62 velocity=107 time=0.07368409999999999
EXTRACT: note_on channel=9 note=69 velocity=73 time=0.005263149999999999
EXTRACT: note_on channel=3 note=62 velocity=105 time=0.005263149999999999
EXTRACT: note_on channel=9 note=69 velocity=0 time=0.04736835
EXTRACT: note_on channel=9 note=42 velocity=104 time=0.105263
EXTRACT: note_on channel=9 note=69 velocity=78 time=0
EXTRACT: note_on channel=1 note=28 velocity=0 time=0
EXTRACT: note_on channel=4 note=67 velocity=107 time=0
EXTRACT: note_on channel=4 note=62 velocity=91 time=0
EXTRACT: note_on channel=4 note=59 velocity=93 time=0
EXTRACT: note_on channel=4 note=55 velocity=101 time=0
EXTRACT: note_on channel=4 note=47 velocity=85 time=0
EXTRACT: note_on channel=7 note=67 velocity=110 time=0
EXTRACT: note_on channel=7 note=62 velocity=86 time=0
EXTRACT: note_on channel=7 note=59 velocity=90 time=0
EXTRACT: note_on channel=7 note=55 velocity=95 time=0
EXTRACT: note_on channel=7 note=47 velocity=98 time=0
EXTRACT: note_on channel=3 note=62 velocity=0 time=0.005263149999999999
EXTRACT: note_on channel=9 note=42 velocity=0 time=0.04736835
EXTRACT: note_on channel=9 note=69 velocity=0 time=0
EXTRACT: note_on channel=2 note=67 velocity=104 time=0.09999984999999999
EXTRACT: note_on channel=4 note=67 velocity=0 time=0.005263149999999999
EXTRACT: note_on channel=4 note=62 velocity=0 time=0
EXTRACT: note_on channel=4 note=59 velocity=0 time=0
EXTRACT: note_on channel=4 note=55 velocity=0 time=0
EXTRACT: note_on channel=4 note=47 velocity=0 time=0
EXTRACT: note_on channel=7 note=67 velocity=0 time=0
EXTRACT: note_on channel=7 note=62 velocity=0 time=0
EXTRACT: note_on channel=7 note=59 velocity=0 time=0
EXTRACT: note_on channel=7 note=55 velocity=0 time=0
EXTRACT: note_on channel=7 note=47 velocity=0 time=0
EXTRACT: note_on channel=3 note=62 velocity=119 time=0.005263149999999999
EXTRACT: note_on channel=2 note=67 velocity=108 time=0.14736819999999998
EXTRACT: note_on channel=9 note=40 velocity=127 time=0.005263149999999999
EXTRACT: note_on channel=9 note=42 velocity=96 time=0
EXTRACT: note_on channel=9 note=69 velocity=66 time=0
EXTRACT: note_on channel=5 note=91 velocity=0 time=0
EXTRACT: note_on channel=5 note=79 velocity=0 time=0
EXTRACT: note_on channel=5 note=86 velocity=100 time=0
EXTRACT: note_on channel=5 note=74 velocity=109 time=0
EXTRACT: note_on channel=9 note=40 velocity=0 time=0.0526315
EXTRACT: note_on channel=9 note=42 velocity=0 time=0
EXTRACT: note_on channel=9 note=69 velocity=0 time=0
EXTRACT: note_on channel=4 note=67 velocity=56 time=0.105263
EXTRACT: note_on channel=4 note=62 velocity=46 time=0
EXTRACT: note_on channel=4 note=59 velocity=67 time=0
EXTRACT: note_on channel=5 note=86 velocity=0 time=0
EXTRACT: note_on channel=5 note=74 velocity=0 time=0
EXTRACT: note_on channel=5 note=73 velocity=110 time=0
EXTRACT: note_on channel=5 note=85 velocity=100 time=0
EXTRACT: note_on channel=4 note=67 velocity=0 time=0.07894725
EXTRACT: note_on channel=4 note=62 velocity=0 time=0
EXTRACT: note_on channel=4 note=59 velocity=0 time=0
EXTRACT: note_on channel=2 note=62 velocity=102 time=0.07368409999999999
EXTRACT: note_on channel=9 note=42 velocity=103 time=0.005263149999999999
EXTRACT: note_on channel=1 note=28 velocity=124 time=0
EXTRACT: note_on channel=4 note=67 velocity=73 time=0
EXTRACT: note_on channel=4 note=62 velocity=51 time=0
EXTRACT: note_on channel=4 note=59 velocity=78 time=0
EXTRACT: note_on channel=4 note=55 velocity=89 time=0
EXTRACT: note_on channel=4 note=47 velocity=75 time=0
EXTRACT: note_on channel=5 note=73 velocity=0 time=0
EXTRACT: note_on channel=5 note=85 velocity=0 time=0
EXTRACT: note_on channel=5 note=71 velocity=106 time=0
EXTRACT: note_on channel=5 note=83 velocity=104 time=0
EXTRACT: note_on channel=9 note=42 velocity=0 time=0.0526315
EXTRACT: note_on channel=4 note=67 velocity=0 time=0.02631575
EXTRACT: note_on channel=4 note=62 velocity=0 time=0
EXTRACT: note_on channel=4 note=59 velocity=0 time=0
EXTRACT: note_on channel=4 note=55 velocity=0 time=0
EXTRACT: note_on channel=4 note=47 velocity=0 time=0
EXTRACT: note_on channel=1 note=28 velocity=0 time=0.07894725
EXTRACT: note_on channel=5 note=71 velocity=0 time=0
EXTRACT: note_on channel=5 note=83 velocity=0 time=0
EXTRACT: note_on channel=5 note=85 velocity=105 time=0
EXTRACT: note_on channel=5 note=73 velocity=112 time=0
EXTRACT: note_on channel=2 note=40 velocity=0 time=0.15263134999999997
EXTRACT: note_on channel=2 note=62 velocity=0 time=0
EXTRACT: note_on channel=2 note=67 velocity=0 time=0
EXTRACT: note_on channel=2 note=62 velocity=0 time=0
EXTRACT: note_on channel=2 note=59 velocity=0 time=0
EXTRACT: note_on channel=2 note=62 velocity=0 time=0
EXTRACT: note_on channel=2 note=67 velocity=0 time=0
EXTRACT: note_on channel=2 note=67 velocity=0 time=0
EXTRACT: note_on channel=2 note=62 velocity=0 time=0
EXTRACT: note_on channel=2 note=57 velocity=98 time=0
EXTRACT: note_on channel=2 note=54 velocity=118 time=0
EXTRACT: note_on channel=9 note=42 velocity=110 time=0.005263149999999999
EXTRACT: note_on channel=9 note=36 velocity=120 time=0
EXTRACT: note_on channel=1 note=30 velocity=121 time=0
EXTRACT: note_on channel=4 note=64 velocity=90 time=0
EXTRACT: note_on channel=4 note=61 velocity=91 time=0
EXTRACT: note_on channel=4 note=57 velocity=97 time=0
EXTRACT: note_on channel=4 note=54 velocity=101 time=0
EXTRACT: note_on channel=5 note=85 velocity=0 time=0
EXTRACT: note_on channel=5 note=73 velocity=0 time=0
EXTRACT: note_on channel=5 note=74 velocity=110 time=0
EXTRACT: note_on channel=5 note=86 velocity=108 time=0
EXTRACT: note_on channel=6 note=59 velocity=0 time=0
EXTRACT: note_on channel=6 note=62 velocity=0 time=0
EXTRACT: note_on channel=6 note=67 velocity=0 time=0
EXTRACT: note_on channel=6 note=57 velocity=111 time=0
EXTRACT: note_on channel=6 note=61 velocity=121 time=0
EXTRACT: note_on channel=6 note=66 velocity=123 time=0
EXTRACT: note_on channel=7 note=64 velocity=84 time=0
EXTRACT: note_on channel=7 note=61 velocity=75 time=0
EXTRACT: note_on channel=7 note=57 velocity=83 time=0
EXTRACT: note_on channel=7 note=54 velocity=107 time=0
EXTRACT: note_on channel=8 note=52 velocity=0 time=0
EXTRACT: note_on channel=8 note=64 velocity=0 time=0
EXTRACT: note_on channel=3 note=62 velocity=0 time=0.005263149999999999
EXTRACT: note_on channel=9 note=42 velocity=0 time=0.04736835
EXTRACT: note_on channel=9 note=36 velocity=0 time=0
EXTRACT: note_on channel=1 note=30 velocity=0 time=0.15263134999999997
EXTRACT: note_on channel=1 note=30 velocity=113 time=0.005263149999999999
EXTRACT: note_on channel=2 note=61 velocity=114 time=0.09999984999999999
EXTRACT: note_on channel=9 note=42 velocity=110 time=0.005263149999999999
EXTRACT: note_on channel=4 note=64 velocity=0 time=0
EXTRACT: note_on channel=4 note=61 velocity=0 time=0
EXTRACT: note_on channel=4 note=57 velocity=0 time=0
EXTRACT: note_on channel=4 note=54 velocity=0 time=0
EXTRACT: note_on channel=7 note=64 velocity=0 time=0
EXTRACT: note_on channel=7 note=61 velocity=0 time=0
EXTRACT: note_on channel=7 note=57 velocity=0 time=0
EXTRACT: note_on channel=7 note=54 velocity=0 time=0
EXTRACT: note_on channel=3 note=61 velocity=105 time=0.005263149999999999
EXTRACT: note_on channel=9 note=42 velocity=0 time=0.04736835
EXTRACT: note_on channel=1 note=30 velocity=0 time=0.04736835
EXTRACT: note_on channel=1 note=30 velocity=124 time=0.005263149999999999
EXTRACT: note_on channel=2 note=64 velocity=125 time=0.04736835
EXTRACT: note_on channel=4 note=64 velocity=90 time=0.005263149999999999
EXTRACT: note_on channel=4 note=61 velocity=108 time=0
EXTRACT: note_on channel=4 note=57 velocity=94 time=0
EXTRACT: note_on channel=4 note=54 velocity=95 time=0
EXTRACT: note_on channel=7 note=64 velocity=86 time=0
EXTRACT: note_on channel=7 note=61 velocity=83 time=0
EXTRACT: note_on channel=7 note=57 velocity=110 time=0
EXTRACT: note_on channel=7 note=54 velocity=79 time=0
EXTRACT: note_on channel=1 note=30 velocity=0 time=0.15263134999999997
EXTRACT: note_on channel=9 note=42 velocity=101 time=0.005263149999999999
EXTRACT: note_on channel=9 note=40 velocity=127 time=0
EXTRACT: note_on channel=9 note=69 velocity=62 time=0
EXTRACT: note_on channel=1 note=37 velocity=116 time=0
EXTRACT: note_on channel=4 note=64 velocity=0 time=0
EXTRACT: note_on channel=4 note=61 velocity=0 time=0
EXTRACT: note_on channel=4 note=57 velocity=0 time=0
EXTRACT: note_on channel=4 note=54 velocity=0 time=0
EXTRACT: note_on channel=5 note=74 velocity=0 time=0
EXTRACT: note_on channel=5 note=86 velocity=0 time=0
EXTRACT: note_on channel=5 note=85 velocity=101 time=0
EXTRACT: note_on channel=5 note=73 velocity=113 time=0
EXTRACT: note_on channel=7 note=64 velocity=0 time=0
EXTRACT: note_on channel=7 note=61 velocity=0 time=0
EXTRACT: note_on channel=7 note=57 velocity=0 time=0
EXTRACT: note_on channel=7 note=54 velocity=0 time=0
EXTRACT: note_on channel=3 note=61 velocity=0 time=0.005263149999999999
EXTRACT: note_on channel=9 note=42 velocity=0 time=0.04736835
EXTRACT: note_on channel=9 note=40 velocity=0 time=0
EXTRACT: note_on channel=9 note=69 velocity=0 time=0
EXTRACT: note_on channel=2 note=61 velocity=122 time=0.09999984999999999
EXTRACT: note_on channel=9 note=69 velocity=70 time=0.005263149999999999
EXTRACT: note_on channel=4 note=64 velocity=86 time=0
EXTRACT: note_on channel=4 note=61 velocity=85 time=0
EXTRACT: note_on channel=4 note=57 velocity=84 time=0
EXTRACT: note_on channel=4 note=54 velocity=61 time=0
EXTRACT: note_on channel=3 note=61 velocity=110 time=0.005263149999999999
EXTRACT: note_on channel=9 note=69 velocity=0 time=0.04736835
EXTRACT: note_on channel=1 note=37 velocity=0 time=0.02631575
EXTRACT: note_on channel=4 note=64 velocity=0 time=0
EXTRACT: note_on channel=4 note=61 velocity=0 time=0
EXTRACT: note_on channel=4 note=57 velocity=0 time=0
EXTRACT: note_on channel=4 note=54 velocity=0 time=0
EXTRACT: note_on channel=9 note=42 velocity=95 time=0.07894725
EXTRACT: note_on channel=1 note=42 velocity=118 time=0
EXTRACT: note_on channel=4 note=64 velocity=43 time=0
EXTRACT: note_on channel=4 note=61 velocity=71 time=0
EXTRACT: note_on channel=4 note=57 velocity=71 time=0
EXTRACT: note_on channel=9 note=42 velocity=0 time=0.0526315
EXTRACT: note_on channel=4 note=64 velocity=0 time=0.02631575
EXTRACT: note_on channel=4 note=61 velocity=0 time=0
EXTRACT: note_on channel=4 note=57 velocity=0 time=0
EXTRACT: note_on channel=2 note=57 velocity=105 time=0.07368409999999999
EXTRACT: note_on channel=9 note=69 velocity=62 time=0.005263149999999999
EXTRACT: note_on channel=4 note=64 velocity=77 time=0
EXTRACT: note_on channel=4 note=61 velocity=66 time=0
EXTRACT: note_on channel=4 note=57 velocity=79 time=0
EXTRACT: note_on channel=4 note=54 velocity=75 time=0
EXTRACT: note_on channel=3 note=61 velocity=0 time=0.005263149999999999
EXTRACT: note_on channel=9 note=69 velocity=0 time=0.04736835
EXTRACT: note_on channel=1 note=42 velocity=0 time=0.02631575
EXTRACT: note_on channel=4 note=64 velocity=0 time=0
EXTRACT: note_on channel=4 note=61 velocity=0 time=0
EXTRACT: note_on channel=4 note=57 velocity=0 time=0
EXTRACT: note_on channel=4 note=54 velocity=0 time=0
EXTRACT: note_on channel=2 note=61 velocity=116 time=0.07368409999999999
EXTRACT: note_on channel=9 note=36 velocity=120 time=0.005263149999999999
EXTRACT: note_on channel=9 note=42 velocity=94 time=0
EXTRACT: note_on channel=1 note=37 velocity=123 time=0
EXTRACT: note_on channel=4 note=64 velocity=50 time=0
EXTRACT: note_on channel=4 note=61 velocity=68 time=0
EXTRACT: note_on channel=4 note=57 velocity=43 time=0
EXTRACT: note_on channel=5 note=85 velocity=0 time=0
EXTRACT: note_on channel=5 note=73 velocity=0 time=0
EXTRACT: note_on channel=5 note=71 velocity=103 time=0
EXTRACT: note_on channel=5 note=83 velocity=112 time=0
EXTRACT: note_on channel=3 note=61 velocity=108 time=0.005263149999999999
EXTRACT: note_on channel=9 note=36 velocity=0 time=0.04736835
EXTRACT: note_on channel=9 note=42 velocity=0 time=0
EXTRACT: note_on channel=4 note=64 velocity=0 time=0.02631575
EXTRACT: note_on channel=4 note=61 velocity=0 time=0
EXTRACT: note_on channel=4 note=57 velocity=0 time=0
EXTRACT: note_on channel=2 note=64 velocity=104 time=0.07368409999999999
EXTRACT: note_on channel=9 note=69 velocity=73 time=0.005263149999999999
EXTRACT: note_on channel=9 note=69 velocity=0 time=0.0526315
EXTRACT: note_on channel=2 note=66 velocity=126 time=0.09999984999999999
EXTRACT: note_on channel=9 note=36 velocity=120 time=0.005263149999999999
EXTRACT: note_on channel=9 note=42 velocity=108 time=0
EXTRACT: note_on channel=9 note=69 velocity=78 time=0
EXTRACT: note_on channel=4 note=64 velocity=98 time=0
EXTRACT: note_on channel=4 note=61 velocity=117 time=0
EXTRACT: note_on channel=4 note=57 velocity=98 time=0
EXTRACT: note_on channel=4 note=54 velocity=109 time=0
EXTRACT: note_on channel=7 note=64 velocity=102 time=0
EXTRACT: note_on channel=7 note=61 velocity=110 time=0
EXTRACT: note_on channel=7 note=57 velocity=109 time=0
EXTRACT: note_on channel=7 note=54 velocity=104 time=0
EXTRACT: note_on channel=9 note=36 velocity=0 time=0.0526315
EXTRACT: note_on channel=9 note=42 velocity=0 time=0
EXTRACT: note_on channel=9 note=69 velocity=0 time=0
EXTRACT: note_on channel=1 note=37 velocity=0 time=0.04736835
EXTRACT: note_on channel=1 note=42 velocity=124 time=0.005263149999999999
EXTRACT: note_on channel=2 note=69 velocity=122 time=0.04736835
EXTRACT: note_on channel=4 note=64 velocity=0 time=0.005263149999999999
EXTRACT: note_on channel=4 note=61 velocity=0 time=0
EXTRACT: note_on channel=4 note=57 velocity=0 time=0
EXTRACT: note_on channel=4 note=54 velocity=0 time=0
EXTRACT: note_on channel=7 note=64 velocity=0 time=0
EXTRACT: note_on channel=7 note=61 velocity=0 time=0
EXTRACT: note_on channel=7 note=57 velocity=0 time=0
EXTRACT: note_on channel=7 note=54 velocity=0 time=0
EXTRACT: note_on channel=9 note=40 velocity=127 time=0.1578945
EXTRACT: note_on channel=9 note=42 velocity=100 time=0
EXTRACT: note_on channel=9 note=69 velocity=66 time=0
EXTRACT: note_on channel=5 note=71 velocity=0 time=0
EXTRACT: note_on channel=5 note=83 velocity=0 time=0
EXTRACT: note_on channel=5 note=81 velocity=114 time=0
EXTRACT: note_on channel=5 note=69 velocity=105 time=0
EXTRACT: note_on channel=8 note=50 velocity=89 time=0
EXTRACT: note_on channel=8 note=62 velocity=115 time=0
EXTRACT: note_on channel=9 note=40 velocity=0 time=0.0526315
EXTRACT: note_on channel=9 note=42 velocity=0 time=0
EXTRACT: note_on channel=9 note=69 velocity=0 time=0
EXTRACT: note_on channel=4 note=64 velocity=57 time=0.105263
EXTRACT: note_on channel=4 note=61 velocity=44 time=0
EXTRACT: note_on channel=4 note=57 velocity=46 time=0
EXTRACT: note_on channel=8 note=50 velocity=0 time=0
EXTRACT: note_on channel=8 note=62 velocity=0 time=0
EXTRACT: note_on channel=1 note=42 velocity=0 time=0.04736835
EXTRACT: note_on channel=1 note=49 velocity=117 time=0.005263149999999999
EXTRACT: note_on channel=4 note=64 velocity=0 time=0.02631575
EXTRACT: note_on channel=4 note=61 velocity=0 time=0
EXTRACT: note_on channel=4 note=57 velocity=0 time=0
EXTRACT: note_on channel=9 note=36 velocity=90 time=0.07894725
EXTRACT: note_on channel=9 note=42 velocity=102 time=0
EXTRACT: note_on channel=4 note=64 velocity=52 time=0
EXTRACT: note_on channel=4 note=61 velocity=63 time=0
EXTRACT: note_on channel=4 note=57 velocity=54 time=0
EXTRACT: note_on channel=4 note=54 velocity=73 time=0
EXTRACT: note_on channel=8 note=54 velocity=83 time=0
EXTRACT: note_on channel=8 note=66 velocity=121 time=0
EXTRACT: note_on channel=3 note=61 velocity=94 time=0.005263149999999999
EXTRACT: note_on channel=9 note=36 velocity=0 time=0.04736835
EXTRACT: note_on channel=9 note=42 velocity=0 time=0
EXTRACT: note_on channel=4 note=64 velocity=0 time=0.02631575
EXTRACT: note_on channel=4 note=61 velocity=0 time=0
EXTRACT: note_on channel=4 note=57 velocity=0 time=0
EXTRACT: note_on channel=4 note=54 velocity=0 time=0
EXTRACT: note_on channel=9 note=40 velocity=127 time=0.07894725
EXTRACT: note_on channel=9 note=40 velocity=0 time=0.0526315
EXTRACT: note_on channel=1 note=49 velocity=0 time=0.09999984999999999
EXTRACT: note_on channel=2 note=57 velocity=0 time=0
EXTRACT: note_on channel=2 note=54 velocity=0 time=0
EXTRACT: note_on channel=2 note=61 velocity=0 time=0
EXTRACT: note_on channel=2 note=64 velocity=0 time=0
EXTRACT: note_on channel=2 note=61 velocity=0 time=0
EXTRACT: note_on channel=2 note=57 velocity=0 time=0
EXTRACT: note_on channel=2 note=61 velocity=0 time=0
EXTRACT: note_on channel=2 note=64 velocity=0 time=0
EXTRACT: note_on channel=2 note=66 velocity=0 time=0
EXTRACT: note_on channel=2 note=69 velocity=0 time=0
EXTRACT: note_on channel=2 note=47 velocity=115 time=0
EXTRACT: note_on channel=9 note=57 velocity=90 time=0.005263149999999999
EXTRACT: note_on channel=9 note=36 velocity=120 time=0
EXTRACT: note_on channel=1 note=35 velocity=111 time=0
EXTRACT: note_on channel=4 note=66 velocity=104 time=0
EXTRACT: note_on channel=4 note=62 velocity=86 time=0
EXTRACT: note_on channel=4 note=59 velocity=103 time=0
EXTRACT: note_on channel=4 note=54 velocity=117 time=0
EXTRACT: note_on channel=4 note=47 velocity=101 time=0
EXTRACT: note_on channel=5 note=81 velocity=0 time=0
EXTRACT: note_on channel=5 note=69 velocity=0 time=0
EXTRACT: note_on channel=5 note=90 velocity=98 time=0
EXTRACT: note_on channel=5 note=78 velocity=98 time=0
EXTRACT: note_on channel=6 note=57 velocity=0 time=0
EXTRACT: note_on channel=6 note=61 velocity=0 time=0
EXTRACT: note_on channel=6 note=66 velocity=0 time=0
EXTRACT: control_change channel=6 control=11 value=40 time=0
EXTRACT: note_on channel=6 note=59 velocity=108 time=0
EXTRACT: note_on channel=6 note=62 velocity=115 time=0
EXTRACT: note_on channel=6 note=66 velocity=123 time=0
EXTRACT: note_on channel=7 note=66 velocity=92 time=0
EXTRACT: note_on channel=7 note=62 velocity=85 time=0
EXTRACT: note_on channel=7 note=59 velocity=86 time=0
EXTRACT: note_on channel=7 note=54 velocity=105 time=0
EXTRACT: note_on channel=7 note=47 velocity=104 time=0
EXTRACT: note_on channel=3 note=61 velocity=0 time=0.005263149999999999
EXTRACT: note_on channel=3 note=61 velocity=0 time=0
EXTRACT: control_change channel=6 control=11 value=41 time=0.02631575
EXTRACT: note_on channel=9 note=57 velocity=0 time=0.021052599999999998
EXTRACT: note_on channel=9 note=36 velocity=0 time=0
EXTRACT: control_change channel=6 control=11 value=42 time=0.010526299999999999
EXTRACT: control_change channel=6 control=11 value=43 time=0.03157889999999999
EXTRACT: control_change channel=6 control=11 value=44 time=0.03157889999999999
EXTRACT: note_on channel=1 note=35 velocity=0 time=0.02631575
EXTRACT: note_on channel=1 note=35 velocity=125 time=0.005263149999999999
EXTRACT: control_change channel=6 control=11 value=45 time=0
EXTRACT: control_change channel=6 control=11 value=46 time=0.03157889999999999
EXTRACT: control_change channel=6 control=11 value=47 time=0.03157889999999999
EXTRACT: control_change channel=6 control=11 value=48 time=0.03157889999999999
EXTRACT: control_change channel=6 control=11 value=49 time=0.03157889999999999
EXTRACT: note_on channel=2 note=62 velocity=127 time=0.02631575
EXTRACT: note_on channel=9 note=42 velocity=99 time=0.005263149999999999
EXTRACT: note_on channel=1 note=35 velocity=0 time=0
EXTRACT: note_on channel=4 note=66 velocity=0 time=0
EXTRACT: note_on channel=4 note=62 velocity=0 time=0
EXTRACT: note_on channel=4 note=59 velocity=0 time=0
EXTRACT: note_on channel=4 note=54 velocity=0 time=0
EXTRACT: note_on channel=4 note=47 velocity=0 time=0
EXTRACT: control_change channel=6 control=11 value=50 time=0
EXTRACT: note_on channel=7 note=66 velocity=0 time=0
EXTRACT: note_on channel=7 note=62 velocity=0 time=0
EXTRACT: note_on channel=7 note=59 velocity=0 time=0
EXTRACT: note_on channel=7 note=54 velocity=0 time=0
EXTRACT: note_on channel=7 note=47 velocity=0 time=0
EXTRACT: note_on channel=8 note=54 velocity=0 time=0
EXTRACT: note_on channel=8 note=66 velocity=0 time=0
EXTRACT: note_on channel=8 note=57 velocity=96 time=0
EXTRACT: note_on channel=8 note=69 velocity=127 time=0
EXTRACT: note_on channel=3 note=62 velocity=122 time=0.005263149999999999
EXTRACT: control_change channel=6 control=11 value=51 time=0.02631575
EXTRACT: note_on channel=9 note=42 velocity=0 time=0.021052599999999998
EXTRACT: control_change channel=6 control=11 value=52 time=0.010526299999999999
EXTRACT: control_change channel=6 control=11 value=53 time=0.03157889999999999
EXTRACT: control_change channel=6 control=11 value=54 time=0.03157889999999999
EXTRACT: note_on channel=2 note=66 velocity=107 time=0.02631575
EXTRACT: note_on channel=1 note=42 velocity=115 time=0.005263149999999999
EXTRACT: note_on channel=4 note=66 velocity=109 time=0
EXTRACT: note_on channel=4 note=62 velocity=101 time=0
EXTRACT: note_on channel=4 note=59 velocity=95 time=0
EXTRACT: note_on channel=4 note=54 velocity=112 time=0
EXTRACT: note_on channel=4 note=47 velocity=117 time=0
EXTRACT: control_change channel=6 control=11 value=55 time=0
EXTRACT: note_on channel=7 note=66 velocity=104 time=0
EXTRACT: note_on channel=7 note=62 velocity=93 time=0
EXTRACT: note_on channel=7 note=59 velocity=107 time=0
EXTRACT: note_on channel=7 note=54 velocity=84 time=0
EXTRACT: note_on channel=7 note=47 velocity=97 time=0
EXTRACT: note_on channel=8 note=57 velocity=0 time=0
EXTRACT: note_on channel=8 note=69 velocity=0 time=0
EXTRACT: control_change channel=6 control=11 value=56 time=0.03157889999999999
EXTRACT: control_change channel=6 control=11 value=57 time=0.03157889999999999
EXTRACT: control_change channel=6 control=11 value=58 time=0.03157889999999999
EXTRACT: control_change channel=6 control=11 value=59 time=0.03157889999999999
EXTRACT: note_on channel=9 note=42 velocity=96 time=0.03157889999999999
EXTRACT: note_on channel=9 note=40 velocity=127 time=0
EXTRACT: note_on channel=9 note=69 velocity=62 time=0
EXTRACT: note_on channel=1 note=42 velocity=0 time=0
EXTRACT: note_on channel=4 note=66 velocity=0 time=0
EXTRACT: note_on channel=4 note=62 velocity=0 time=0
EXTRACT: note_on channel=4 note=59 velocity=0 time=0
EXTRACT: note_on channel=4 note=54 velocity=0 time=0
EXTRACT: note_on channel=4 note=47 velocity=0 time=0
EXTRACT: control_change channel=6 control=11 value=60 time=0
EXTRACT: note_on channel=7 note=66 velocity=0 time=0
EXTRACT: note_on channel=7 note=62 velocity=0 time=0
EXTRACT: note_on channel=7 note=59 velocity=0 time=0
EXTRACT: note_on channel=7 note=54 velocity=0 time=0
EXTRACT: note_on channel=7 note=47 velocity=0 time=0
EXTRACT: note_on channel=8 note=55 velocity=93 time=0
EXTRACT: note_on channel=8 note=67 velocity=118 time=0
EXTRACT: note_on channel=3 note=62 velocity=0 time=0.005263149999999999
EXTRACT: control_change channel=6 control=11 value=61 time=0.02631575
EXTRACT: note_on channel=9 note=42 velocity=0 time=0.021052599999999998
EXTRACT: note_on channel=9 note=40 velocity=0 time=0
EXTRACT: note_on channel=9 note=69 velocity=0 time=0
EXTRACT: control_change channel=6 control=11 value=62 time=0.010526299999999999
EXTRACT: control_change channel=6 control=11 value=63 time=0.03157889999999999
EXTRACT: control_change channel=6 control=11 value=64 time=0.03157889999999999
EXTRACT: note_on channel=2 note=62 velocity=106 time=0.02631575
EXTRACT: note_on channel=9 note=69 velocity=70 time=0.005263149999999999
EXTRACT: note_on channel=1 note=42 velocity=119 time=0
EXTRACT: note_on channel=4 note=66 velocity=53 time=0
EXTRACT: note_on channel=4 note=62 velocity=55 time=0
EXTRACT: note_on channel=4 note=59 velocity=69 time=0
EXTRACT: note_on channel=4 note=54 velocity=58 time=0
EXTRACT: note_on channel=4 note=47 velocity=54 time=0
EXTRACT: control_change channel=6 control=11 value=65 time=0
EXTRACT: note_on channel=8 note=55 velocity=0 time=0
EXTRACT: note_on channel=8 note=67 velocity=0 time=0
EXTRACT: note_on channel=3 note=62 velocity=108 time=0.005263149999999999
EXTRACT: control_change channel=6 control=11 value=66 time=0.02631575
EXTRACT: note_on channel=9 note=69 velocity=0 time=0.021052599999999998
EXTRACT: control_change channel=6 control=11 value=67 time=0.010526299999999999
EXTRACT: note_on channel=4 note=66 velocity=0 time=0.015789449999999997
EXTRACT: note_on channel=4 note=62 velocity=0 time=0
EXTRACT: note_on channel=4 note=59 velocity=0 time=0
EXTRACT: note_on channel=4 note=54 velocity=0 time=0
EXTRACT: note_on channel=4 note=47 velocity=0 time=0
EXTRACT: control_change channel=6 control=11 value=68 time=0.015789449999999997
EXTRACT: control_change channel=6 control=11 value=69 time=0.03157889999999999
EXTRACT: note_on channel=1 note=42 velocity=0 time=0.02631575
EXTRACT: note_on channel=9 note=42 velocity=107 time=0.005263149999999999
EXTRACT: note_on channel=1 note=38 velocity=114 time=0
EXTRACT: note_on channel=4 note=66 velocity=60 time=0
EXTRACT: note_on channel=4 note=62 velocity=48 time=0
EXTRACT: note_on channel=4 note=59 velocity=61 time=0
EXTRACT: control_change channel=6 control=11 value=70 time=0
EXTRACT: note_on channel=8 note=54 velocity=101 time=0
EXTRACT: note_on channel=8 note=66 velocity=120 time=0
EXTRACT: note_on channel=3 note=62 velocity=0 time=0.005263149999999999
EXTRACT: note_on channel=3 note=61 velocity=126 time=0
EXTRACT: control_change channel=6 control=11 value=71 time=0.02631575
EXTRACT: note_on channel=9 note=42 velocity=0 time=0.021052599999999998
EXTRACT: control_change channel=6 control=11 value=72 time=0.010526299999999999
EXTRACT: note_on channel=4 note=66 velocity=0 time=0.015789449999999997
EXTRACT: note_on channel=4 note=62 velocity=0 time=0
EXTRACT: note_on channel=4 note=59 velocity=0 time=0
EXTRACT: control_change channel=6 control=11 value=73 time=0.015789449999999997
EXTRACT: control_change channel=6 control=11 value=74 time=0.03157889999999999
EXTRACT: note_on channel=2 note=59 velocity=106 time=0.02631575
EXTRACT: note_on channel=9 note=69 velocity=62 time=0.005263149999999999
EXTRACT: note_on channel=1 note=38 velocity=0 time=0
EXTRACT: note_on channel=4 note=66 velocity=82 time=0
EXTRACT: note_on channel=4 note=62 velocity=64 time=0
EXTRACT: note_on channel=4 note=59 velocity=90 time=0
EXTRACT: note_on channel=4 note=54 velocity=91 time=0
EXTRACT: note_on channel=4 note=47 velocity=65 time=0
EXTRACT: control_change channel=6 control=11 value=75 time=0
EXTRACT: note_on channel=8 note=54 velocity=0 time=0
EXTRACT: note_on channel=8 note=66 velocity=0 time=0
EXTRACT: note_on channel=3 note=61 velocity=0 time=0.005263149999999999
EXTRACT: note_on channel=3 note=59 velocity=113 time=0
EXTRACT: control_change channel=6 control=11 value=76 time=0.02631575
EXTRACT: note_on channel=9 note=69 velocity=0 time=0.021052599999999998
EXTRACT: control_change channel=6 control=11 value=77 time=0.010526299999999999
EXTRACT: note_on channel=4 note=66 velocity=0 time=0.015789449999999997
EXTRACT: note_on channel=4 note=62 velocity=0 time=0
EXTRACT: note_on channel=4 note=59 velocity=0 time=0
EXTRACT: note_on channel=4 note=54 velocity=0 time=0
EXTRACT: note_on channel=4 note=47 velocity=0 time=0
EXTRACT: control_change channel=6 control=11 value=78 time=0.015789449999999997
EXTRACT: control_change channel=6 control=11 value=79 time=0.03157889999999999
EXTRACT: note_on channel=9 note=36 velocity=120 time=0.03157889999999999
EXTRACT: note_on channel=9 note=42 velocity=98 time=0
EXTRACT: note_on channel=1 note=35 velocity=119 time=0
EXTRACT: note_on channel=4 note=66 velocity=53 time=0
EXTRACT: note_on channel=4 note=62 velocity=50 time=0
EXTRACT: note_on channel=4 note=59 velocity=51 time=0
EXTRACT: control_change channel=6 control=11 value=80 time=0
EXTRACT: note_on channel=8 note=52 velocity=99 time=0
EXTRACT: note_on channel=8 note=64 velocity=117 time=0
EXTRACT: note_on channel=3 note=59 velocity=0 time=0.005263149999999999
EXTRACT: note_on channel=9 note=36 velocity=0 time=0.04736835
EXTRACT: note_on channel=9 note=42 velocity=0 time=0
EXTRACT: note_on channel=4 note=66 velocity=0 time=0.02631575
EXTRACT: note_on channel=4 note=62 velocity=0 time=0
EXTRACT: note_on channel=4 note=59 velocity=0 time=0
EXTRACT: note_on channel=2 note=62 velocity=105 time=0.07368409999999999
EXTRACT: note_on channel=9 note=69 velocity=73 time=0.005263149999999999
EXTRACT: note_on channel=3 note=62 velocity=112 time=0.005263149999999999
EXTRACT: note_on channel=9 note=69 velocity=0 time=0.04736835
EXTRACT: note_on channel=9 note=42 velocity=103 time=0.105263
EXTRACT: note_on channel=9 note=69 velocity=78 time=0
EXTRACT: note_on channel=1 note=35 velocity=0 time=0
EXTRACT: note_on channel=4 note=66 velocity=99 time=0
EXTRACT: note_on channel=4 note=62 velocity=116 time=0
EXTRACT: note_on channel=4 note=59 velocity=98 time=0
EXTRACT: note_on channel=4 note=54 velocity=89 time=0
EXTRACT: note_on channel=4 note=47 velocity=99 time=0
EXTRACT: note_on channel=7 note=66 velocity=93 time=0
EXTRACT: note_on channel=7 note=62 velocity=111 time=0
EXTRACT: note_on channel=7 note=59 velocity=85 time=0
EXTRACT: note_on channel=7 note=54 velocity=86 time=0
EXTRACT: note_on channel=7 note=47 velocity=104 time=0
EXTRACT: note_on channel=8 note=52 velocity=0 time=0
EXTRACT: note_on channel=8 note=64 velocity=0 time=0
EXTRACT: note_on channel=8 note=50 velocity=97 time=0
EXTRACT: note_on channel=8 note=62 velocity=124 time=0
EXTRACT: note_on channel=3 note=62 velocity=0 time=0.005263149999999999
EXTRACT: note_on channel=9 note=42 velocity=0 time=0.04736835
EXTRACT: note_on channel=9 note=69 velocity=0 time=0
EXTRACT: note_on channel=2 note=66 velocity=103 time=0.09999984999999999
EXTRACT: note_on channel=4 note=66 velocity=0 time=0.005263149999999999
EXTRACT: note_on channel=4 note=62 velocity=0 time=0
EXTRACT: note_on channel=4 note=59 velocity=0 time=0
EXTRACT: note_on channel=4 note=54 velocity=0 time=0
EXTRACT: note_on channel=4 note=47 velocity=0 time=0
EXTRACT: note_on channel=7 note=66 velocity=0 time=0
EXTRACT: note_on channel=7 note=62 velocity=0 time=0
EXTRACT: note_on channel=7 note=59 velocity=0 time=0
EXTRACT: note_on channel=7 note=54 velocity=0 time=0
EXTRACT: note_on channel=7 note=47 velocity=0 time=0
EXTRACT: note_on channel=8 note=50 velocity=0 time=0
EXTRACT: note_on channel=8 note=62 velocity=0 time=0
EXTRACT: note_on channel=3 note=62 velocity=102 time=0.005263149999999999
EXTRACT: note_on channel=2 note=66 velocity=112 time=0.14736819999999998
EXTRACT: note_on channel=9 note=40 velocity=127 time=0.005263149999999999
EXTRACT: note_on channel=9 note=42 velocity=96 time=0
EXTRACT: note_on channel=9 note=69 velocity=66 time=0
EXTRACT: note_on channel=8 note=52 velocity=98 time=0
EXTRACT: note_on channel=8 note=64 velocity=123 time=0
EXTRACT: note_on channel=9 note=40 velocity=0 time=0.0526315
EXTRACT: note_on channel=9 note=42 velocity=0 time=0
EXTRACT: note_on channel=9 note=69 velocity=0 time=0
EXTRACT: note_on channel=4 note=66 velocity=68 time=0.105263
EXTRACT: note_on channel=4 note=62 velocity=54 time=0
EXTRACT: note_on channel=4 note=59 velocity=62 time=0
EXTRACT: note_on channel=8 note=52 velocity=0 time=0
EXTRACT: note_on channel=8 note=64 velocity=0 time=0
EXTRACT: note_on channel=4 note=66 velocity=0 time=0.07894725
EXTRACT: note_on channel=4 note=62 velocity=0 time=0
EXTRACT: note_on channel=4 note=59 velocity=0 time=0
EXTRACT: note_on channel=2 note=62 velocity=102 time=0.07368409999999999
EXTRACT: note_on channel=9 note=42 velocity=91 time=0.005263149999999999
EXTRACT: note_on channel=1 note=30 velocity=115 time=0
EXTRACT: note_on channel=4 note=66 velocity=75 time=0
EXTRACT: note_on channel=4 note=62 velocity=59 time=0
EXTRACT: note_on channel=4 note=59 velocity=81 time=0
EXTRACT: note_on channel=4 note=54 velocity=65 time=0
EXTRACT: note_on channel=4 note=47 velocity=65 time=0
EXTRACT: note_on channel=8 note=54 velocity=88 time=0
EXTRACT: note_on channel=8 note=66 velocity=120 time=0
EXTRACT: note_on channel=9 note=42 velocity=0 time=0.0526315
EXTRACT: note_on channel=4 note=66 velocity=0 time=0.02631575
EXTRACT: note_on channel=4 note=62 velocity=0 time=0
EXTRACT: note_on channel=4 note=59 velocity=0 time=0
EXTRACT: note_on channel=4 note=54 velocity=0 time=0
EXTRACT: note_on channel=4 note=47 velocity=0 time=0
EXTRACT: note_on channel=1 note=30 velocity=0 time=0.07894725
EXTRACT: note_on channel=2 note=47 velocity=0 time=0.15263134999999997
EXTRACT: note_on channel=2 note=62 velocity=0 time=0
EXTRACT: note_on channel=2 note=66 velocity=0 time=0
EXTRACT: note_on channel=2 note=62 velocity=0 time=0
EXTRACT: note_on channel=2 note=59 velocity=0 time=0
EXTRACT: note_on channel=2 note=62 velocity=0 time=0
EXTRACT: note_on channel=2 note=66 velocity=0 time=0
EXTRACT: note_on channel=2 note=66 velocity=0 time=0
EXTRACT: note_on channel=2 note=47 velocity=114 time=0
EXTRACT: note_on channel=9 note=42 velocity=97 time=0.005263149999999999
EXTRACT: note_on channel=9 note=36 velocity=120 time=0
EXTRACT: note_on channel=1 note=35 velocity=110 time=0
EXTRACT: note_on channel=4 note=66 velocity=100 time=0
EXTRACT: note_on channel=4 note=62 velocity=107 time=0
EXTRACT: note_on channel=4 note=59 velocity=85 time=0
EXTRACT: note_on channel=4 note=54 velocity=112 time=0
EXTRACT: note_on channel=4 note=47 velocity=101 time=0
EXTRACT: note_on channel=7 note=66 velocity=110 time=0
EXTRACT: note_on channel=7 note=62 velocity=90 time=0
EXTRACT: note_on channel=7 note=59 velocity=97 time=0
EXTRACT: note_on channel=7 note=54 velocity=93 time=0
EXTRACT: note_on channel=7 note=47 velocity=99 time=0
EXTRACT: note_on channel=3 note=62 velocity=0 time=0.005263149999999999
EXTRACT: note_on channel=9 note=42 velocity=0 time=0.04736835
EXTRACT: note_on channel=9 note=36 velocity=0 time=0
EXTRACT: note_on channel=1 note=35 velocity=0 time=0.18421025
EXTRACT: note_on channel=2 note=62 velocity=0 time=0.07368409999999999
EXTRACT: note_on channel=2 note=62 velocity=107 time=0
EXTRACT: note_on channel=9 note=42 velocity=94 time=0.005263149999999999
EXTRACT: note_on channel=4 note=66 velocity=0 time=0
EXTRACT: note_on channel=4 note=62 velocity=0 time=0
EXTRACT: note_on channel=4 note=59 velocity=0 time=0
EXTRACT: note_on channel=4 note=54 velocity=0 time=0
EXTRACT: note_on channel=4 note=47 velocity=0 time=0
EXTRACT: note_on channel=7 note=66 velocity=0 time=0
EXTRACT: note_on channel=7 note=62 velocity=0 time=0
EXTRACT: note_on channel=7 note=59 velocity=0 time=0
EXTRACT: note_on channel=7 note=54 velocity=0 time=0
EXTRACT: note_on channel=7 note=47 velocity=0 time=0
EXTRACT: note_on channel=8 note=54 velocity=0 time=0
EXTRACT: note_on channel=8 note=66 velocity=0 time=0
EXTRACT: note_on channel=8 note=57 velocity=83 time=0
EXTRACT: note_on channel=8 note=69 velocity=122 time=0
EXTRACT: note_on channel=3 note=62 velocity=108 time=0.005263149999999999
EXTRACT: note_on channel=9 note=42 velocity=0 time=0.04736835
EXTRACT: note_on channel=2 note=66 velocity=120 time=0.09999984999999999
EXTRACT: note_on channel=1 note=35 velocity=117 time=0.005263149999999999
EXTRACT: note_on channel=4 note=66 velocity=107 time=0
EXTRACT: note_on channel=4 note=62 velocity=100 time=0
EXTRACT: note_on channel=4 note=59 velocity=87 time=0
EXTRACT: note_on channel=4 note=54 velocity=116 time=0
EXTRACT: note_on channel=4 note=47 velocity=85 time=0
EXTRACT: note_on channel=7 note=66 velocity=110 time=0
EXTRACT: note_on channel=7 note=62 velocity=96 time=0
EXTRACT: note_on channel=7 note=59 velocity=83 time=0
EXTRACT: note_on channel=7 note=54 velocity=83 time=0
EXTRACT: note_on channel=7 note=47 velocity=98 time=0
EXTRACT: note_on channel=8 note=57 velocity=0 time=0
EXTRACT: note_on channel=8 note=69 velocity=0 time=0
EXTRACT: note_on channel=9 note=42 velocity=103 time=0.1578945
EXTRACT: note_on channel=9 note=40 velocity=127 time=0
EXTRACT: note_on channel=9 note=69 velocity=62 time=0
EXTRACT: note_on channel=1 note=35 velocity=0 time=0
EXTRACT: note_on channel=4 note=66 velocity=0 time=0
EXTRACT: note_on channel=4 note=62 velocity=0 time=0
EXTRACT: note_on channel=4 note=59 velocity=0 time=0
EXTRACT: note_on channel=4 note=54 velocity=0 time=0
EXTRACT: note_on channel=4 note=47 velocity=0 time=0
EXTRACT: note_on channel=7 note=66 velocity=0 time=0
EXTRACT: note_on channel=7 note=62 velocity=0 time=0
EXTRACT: note_on channel=7 note=59 velocity=0 time=0
EXTRACT: note_on channel=7 note=54 velocity=0 time=0
EXTRACT: note_on channel=7 note=47 velocity=0 time=0
EXTRACT: note_on channel=8 note=55 velocity=83 time=0
EXTRACT: note_on channel=8 note=67 velocity=115 time=0
EXTRACT: note_on channel=3 note=62 velocity=0 time=0.005263149999999999
EXTRACT: note_on channel=9 note=42 velocity=0 time=0.04736835
EXTRACT: note_on channel=9 note=40 velocity=0 time=0
EXTRACT: note_on channel=9 note=69 velocity=0 time=0
EXTRACT: note_on channel=2 note=62 velocity=113 time=0.09999984999999999
EXTRACT: note_on channel=9 note=69 velocity=70 time=0.005263149999999999
EXTRACT: note_on channel=4 note=66 velocity=58 time=0
EXTRACT: note_on channel=4 note=62 velocity=89 time=0
EXTRACT: note_on channel=4 note=59 velocity=72 time=0
EXTRACT: note_on channel=4 note=54 velocity=56 time=0
EXTRACT: note_on channel=4 note=47 velocity=58 time=0
EXTRACT: note_on channel=8 note=55 velocity=0 time=0
EXTRACT: note_on channel=8 note=67 velocity=0 time=0
EXTRACT: note_on channel=3 note=62 velocity=127 time=0.005263149999999999
EXTRACT: note_on channel=9 note=69 velocity=0 time=0.04736835
EXTRACT: note_on channel=4 note=66 velocity=0 time=0.02631575
EXTRACT: note_on channel=4 note=62 velocity=0 time=0
EXTRACT: note_on channel=4 note=59 velocity=0 time=0
EXTRACT: note_on channel=4 note=54 velocity=0 time=0
EXTRACT: note_on channel=4 note=47 velocity=0 time=0
EXTRACT: note_on channel=9 note=42 velocity=101 time=0.07894725
EXTRACT: note_on channel=4 note=66 velocity=41 time=0
EXTRACT: note_on channel=4 note=62 velocity=41 time=0
EXTRACT: note_on channel=4 note=59 velocity=51 time=0
EXTRACT: note_on channel=8 note=54 velocity=87 time=0
EXTRACT: note_on channel=8 note=66 velocity=124 time=0
EXTRACT: note_on channel=3 note=62 velocity=0 time=0.005263149999999999
EXTRACT: note_on channel=3 note=61 velocity=111 time=0
EXTRACT: note_on channel=9 note=42 velocity=0 time=0.04736835
EXTRACT: note_on channel=4 note=66 velocity=0 time=0.02631575
EXTRACT: note_on channel=4 note=62 velocity=0 time=0
EXTRACT: note_on channel=4 note=59 velocity=0 time=0
EXTRACT: note_on channel=2 note=59 velocity=103 time=0.07368409999999999
EXTRACT: note_on channel=9 note=69 velocity=62 time=0.005263149999999999
EXTRACT: note_on channel=4 note=66 velocity=86 time=0
EXTRACT: note_on channel=4 note=62 velocity=66 time=0
EXTRACT: note_on channel=4 note=59 velocity=55 time=0
EXTRACT: note_on channel=4 note=54 velocity=72 time=0
EXTRACT: note_on channel=4 note=47 velocity=91 time=0
EXTRACT: note_on channel=8 note=54 velocity=0 time=0
EXTRACT: note_on channel=8 note=66 velocity=0 time=0
EXTRACT: note_on channel=3 note=61 velocity=0 time=0.005263149999999999
EXTRACT: note_on channel=3 note=59 velocity=115 time=0
EXTRACT: note_on channel=9 note=69 velocity=0 time=0.04736835
EXTRACT: note_on channel=4 note=66 velocity=0 time=0.02631575
EXTRACT: note_on channel=4 note=62 velocity=0 time=0
EXTRACT: note_on channel=4 note=59 velocity=0 time=0
EXTRACT: note_on channel=4 note=54 velocity=0 time=0
EXTRACT: note_on channel=4 note=47 velocity=0 time=0
EXTRACT: note_on channel=9 note=36 velocity=120 time=0.07894725
EXTRACT: note_on channel=9 note=42 velocity=108 time=0
EXTRACT: note_on channel=4 note=66 velocity=53 time=0
EXTRACT: note_on channel=4 note=62 velocity=43 time=0
EXTRACT: note_on channel=4 note=59 velocity=69 time=0
EXTRACT: note_on channel=8 note=52 velocity=92 time=0
EXTRACT: note_on channel=8 note=64 velocity=116 time=0
EXTRACT: note_on channel=3 note=59 velocity=0 time=0.005263149999999999
EXTRACT: note_on channel=9 note=36 velocity=0 time=0.04736835
EXTRACT: note_on channel=9 note=42 velocity=0 time=0
EXTRACT: note_on channel=4 note=66 velocity=0 time=0.02631575
EXTRACT: note_on channel=4 note=62 velocity=0 time=0
EXTRACT: note_on channel=4 note=59 velocity=0 time=0
EXTRACT: note_on channel=2 note=62 velocity=105 time=0.07368409999999999
EXTRACT: note_on channel=9 note=69 velocity=73 time=0.005263149999999999
EXTRACT: note_on channel=3 note=62 velocity=127 time=0.005263149999999999
EXTRACT: note_on channel=9 note=69 velocity=0 time=0.04736835
EXTRACT: note_on channel=9 note=42 velocity=95 time=0.105263
EXTRACT: note_on channel=9 note=69 velocity=78 time=0
EXTRACT: note_on channel=1 note=35 velocity=126 time=0
EXTRACT: note_on channel=4 note=66 velocity=108 time=0
EXTRACT: note_on channel=4 note=62 velocity=100 time=0
EXTRACT: note_on channel=4 note=59 velocity=116 time=0
EXTRACT: note_on channel=4 note=54 velocity=96 time=0
EXTRACT: note_on channel=4 note=47 velocity=105 time=0
EXTRACT: note_on channel=7 note=66 velocity=102 time=0
EXTRACT: note_on channel=7 note=62 velocity=111 time=0
EXTRACT: note_on channel=7 note=59 velocity=83 time=0
EXTRACT: note_on channel=7 note=54 velocity=104 time=0
EXTRACT: note_on channel=7 note=47 velocity=110 time=0
EXTRACT: note_on channel=8 note=52 velocity=0 time=0
EXTRACT: note_on channel=8 note=64 velocity=0 time=0
EXTRACT: note_on channel=8 note=50 velocity=95 time=0
EXTRACT: note_on channel=8 note=62 velocity=122 time=0
EXTRACT: note_on channel=3 note=62 velocity=0 time=0.005263149999999999
EXTRACT: note_on channel=9 note=42 velocity=0 time=0.04736835
EXTRACT: note_on channel=9 note=69 velocity=0 time=0
EXTRACT: note_on channel=2 note=66 velocity=102 time=0.09999984999999999
EXTRACT: note_on channel=1 note=35 velocity=0 time=0.005263149999999999
EXTRACT: note_on channel=4 note=66 velocity=0 time=0
EXTRACT: note_on channel=4 note=62 velocity=0 time=0
EXTRACT: note_on channel=4 note=59 velocity=0 time=0
EXTRACT: note_on channel=4 note=54 velocity=0 time=0
EXTRACT: note_on channel=4 note=47 velocity=0 time=0
EXTRACT: note_on channel=7 note=66 velocity=0 time=0
EXTRACT: note_on channel=7 note=62 velocity=0 time=0
EXTRACT: note_on channel=7 note=59 velocity=0 time=0
EXTRACT: note_on channel=7 note=54 velocity=0 time=0
EXTRACT: note_on channel=7 note=47 velocity=0 time=0
EXTRACT: note_on channel=8 note=50 velocity=0 time=0
EXTRACT: note_on channel=8 note=62 velocity=0 time=0
EXTRACT: note_on channel=3 note=62 velocity=125 time=0.005263149999999999
EXTRACT: note_on channel=2 note=66 velocity=124 time=0.14736819999999998
EXTRACT: note_on channel=9 note=40 velocity=127 time=0.005263149999999999
EXTRACT: note_on channel=9 note=42 velocity=101 time=0
EXTRACT: note_on channel=9 note=69 velocity=66 time=0
EXTRACT: note_on channel=8 note=54 velocity=88 time=0
EXTRACT: note_on channel=8 note=66 velocity=125 time=0
EXTRACT: note_on channel=9 note=40 velocity=0 time=0.0526315
EXTRACT: note_on channel=9 note=42 velocity=0 time=0
EXTRACT: note_on channel=9 note=69 velocity=0 time=0
EXTRACT: note_on channel=4 note=66 velocity=53 time=0.105263
EXTRACT: note_on channel=4 note=62 velocity=45 time=0
EXTRACT: note_on channel=4 note=59 velocity=41 time=0
EXTRACT: note_on channel=8 note=54 velocity=0 time=0
EXTRACT: note_on channel=8 note=66 velocity=0 time=0
EXTRACT: note_on channel=4 note=66 velocity=0 time=0.07894725
EXTRACT: note_on channel=4 note=62 velocity=0 time=0
EXTRACT: note_on channel=4 note=59 velocity=0 time=0
EXTRACT: note_on channel=2 note=62 velocity=109 time=0.07368409999999999
EXTRACT: note_on channel=9 note=36 velocity=90 time=0.005263149999999999
EXTRACT: note_on channel=9 note=42 velocity=93 time=0
EXTRACT: note_on channel=1 note=38 velocity=115 time=0
EXTRACT: note_on channel=4 note=66 velocity=63 time=0
EXTRACT: note_on channel=4 note=62 velocity=56 time=0
EXTRACT: note_on channel=4 note=59 velocity=54 time=0
EXTRACT: note_on channel=4 note=54 velocity=77 time=0
EXTRACT: note_on channel=4 note=47 velocity=77 time=0
EXTRACT: note_on channel=8 note=47 velocity=88 time=0
EXTRACT: note_on channel=8 note=59 velocity=117 time=0
EXTRACT: note_on channel=9 note=36 velocity=0 time=0.0526315
EXTRACT: note_on channel=9 note=42 velocity=0 time=0
EXTRACT: note_on channel=4 note=66 velocity=0 time=0.02631575
EXTRACT: note_on channel=4 note=62 velocity=0 time=0
EXTRACT: note_on channel=4 note=59 velocity=0 time=0
EXTRACT: note_on channel=4 note=54 velocity=0 time=0
EXTRACT: note_on channel=4 note=47 velocity=0 time=0
EXTRACT: note_on channel=9 note=40 velocity=127 time=0.07894725
EXTRACT: note_on channel=1 note=38 velocity=0 time=0
EXTRACT: note_on channel=9 note=40 velocity=0 time=0.0526315
EXTRACT: note_on channel=2 note=47 velocity=0 time=0.09999984999999999
EXTRACT: note_on channel=2 note=62 velocity=0 time=0
EXTRACT: note_on channel=2 note=66 velocity=0 time=0
EXTRACT: note_on channel=2 note=62 velocity=0 time=0
EXTRACT: note_on channel=2 note=59 velocity=0 time=0
EXTRACT: note_on channel=2 note=62 velocity=0 time=0
EXTRACT: note_on channel=2 note=66 velocity=0 time=0
EXTRACT: note_on channel=2 note=66 velocity=0 time=0
EXTRACT: note_on channel=2 note=62 velocity=0 time=0
EXTRACT: note_on channel=2 note=40 velocity=113 time=0
EXTRACT: note_on channel=9 note=42 velocity=96 time=0.005263149999999999
EXTRACT: note_on channel=9 note=36 velocity=120 time=0
EXTRACT: note_on channel=1 note=40 velocity=116 time=0
EXTRACT: note_on channel=4 note=67 velocity=114 time=0
EXTRACT: note_on channel=4 note=62 velocity=101 time=0
EXTRACT: note_on channel=4 note=59 velocity=91 time=0
EXTRACT: note_on channel=4 note=55 velocity=88 time=0
EXTRACT: note_on channel=4 note=47 velocity=86 time=0
EXTRACT: note_on channel=5 note=90 velocity=0 time=0
EXTRACT: note_on channel=5 note=78 velocity=0 time=0
EXTRACT: note_on channel=5 note=91 velocity=108 time=0
EXTRACT: note_on channel=5 note=79 velocity=117 time=0
EXTRACT: note_on channel=6 note=59 velocity=0 time=0
EXTRACT: note_on channel=6 note=62 velocity=0 time=0
EXTRACT: note_on channel=6 note=66 velocity=0 time=0
EXTRACT: note_on channel=6 note=59 velocity=113 time=0
EXTRACT: note_on channel=6 note=62 velocity=117 time=0
EXTRACT: note_on channel=6 note=67 velocity=114 time=0
EXTRACT: note_on channel=7 note=67 velocity=85 time=0
EXTRACT: note_on channel=7 note=62 velocity=79 time=0
EXTRACT: note_on channel=7 note=59 velocity=94 time=0
EXTRACT: note_on channel=7 note=55 velocity=99 time=0
EXTRACT: note_on channel=7 note=47 velocity=99 time=0
EXTRACT: note_on channel=3 note=62 velocity=0 time=0.005263149999999999
EXTRACT: note_on channel=9 note=42 velocity=0 time=0.04736835
EXTRACT: note_on channel=9 note=36 velocity=0 time=0
EXTRACT: note_on channel=1 note=40 velocity=0 time=0.07894725
EXTRACT: note_on channel=2 note=62 velocity=118 time=0.17894709999999997
EXTRACT: note_on channel=9 note=42 velocity=91 time=0.005263149999999999
EXTRACT: note_on channel=1 note=40 velocity=125 time=0
EXTRACT: note_on channel=4 note=67 velocity=0 time=0
EXTRACT: note_on channel=4 note=62 velocity=0 time=0
EXTRACT: note_on channel=4 note=59 velocity=0 time=0
EXTRACT: note_on channel=4 note=55 velocity=0 time=0
EXTRACT: note_on channel=4 note=47 velocity=0 time=0
EXTRACT: note_on channel=7 note=67 velocity=0 time=0
EXTRACT: note_on channel=7 note=62 velocity=0 time=0
EXTRACT: note_on channel=7 note=59 velocity=0 time=0
EXTRACT: note_on channel=7 note=55 velocity=0 time=0
EXTRACT: note_on channel=7 note=47 velocity=0 time=0
EXTRACT: note_on channel=8 note=47 velocity=0 time=0
EXTRACT: note_on channel=8 note=59 velocity=0 time=0
EXTRACT: note_on channel=8 note=52 velocity=95 time=0
EXTRACT: note_on channel=8 note=64 velocity=123 time=0
EXTRACT: note_on channel=3 note=62 velocity=114 time=0.005263149999999999
EXTRACT: note_on channel=9 note=42 velocity=0 time=0.04736835
EXTRACT: note_on channel=1 note=40 velocity=0 time=0.09999984999999999
EXTRACT: note_on channel=2 note=67 velocity=121 time=0
EXTRACT: note_on channel=1 note=35 velocity=118 time=0.005263149999999999
EXTRACT: note_on channel=4 note=67 velocity=91 time=0
EXTRACT: note_on channel=4 note=62 velocity=103 time=0
EXTRACT: note_on channel=4 note=59 velocity=99 time=0
EXTRACT: note_on channel=4 note=55 velocity=116 time=0
EXTRACT: note_on channel=4 note=47 velocity=89 time=0
EXTRACT: note_on channel=7 note=67 velocity=108 time=0
EXTRACT: note_on channel=7 note=62 velocity=86 time=0
EXTRACT: note_on channel=7 note=59 velocity=81 time=0
EXTRACT: note_on channel=7 note=55 velocity=78 time=0
EXTRACT: note_on channel=7 note=47 velocity=77 time=0
EXTRACT: note_on channel=8 note=52 velocity=0 time=0
EXTRACT: note_on channel=8 note=64 velocity=0 time=0
EXTRACT: note_on channel=9 note=42 velocity=110 time=0.1578945
EXTRACT: note_on channel=9 note=40 velocity=127 time=0
EXTRACT: note_on channel=9 note=69 velocity=62 time=0
EXTRACT: note_on channel=1 note=35 velocity=0 time=0
EXTRACT: note_on channel=4 note=67 velocity=0 time=0
EXTRACT: note_on channel=4 note=62 velocity=0 time=0
EXTRACT: note_on channel=4 note=59 velocity=0 time=0
EXTRACT: note_on channel=4 note=55 velocity=0 time=0
EXTRACT: note_on channel=4 note=47 velocity=0 time=0
EXTRACT: note_on channel=7 note=67 velocity=0 time=0
EXTRACT: note_on channel=7 note=62 velocity=0 time=0
EXTRACT: note_on channel=7 note=59 velocity=0 time=0
EXTRACT: note_on channel=7 note=55 velocity=0 time=0
EXTRACT: note_on channel=7 note=47 velocity=0 time=0
EXTRACT: note_on channel=8 note=52 velocity=94 time=0
EXTRACT: note_on channel=8 note=64 velocity=120 time=0
EXTRACT: note_on channel=3 note=62 velocity=0 time=0.005263149999999999
EXTRACT: note_on channel=9 note=42 velocity=0 time=0.04736835
EXTRACT: note_on channel=9 note=40 velocity=0 time=0
EXTRACT: note_on channel=9 note=69 velocity=0 time=0
EXTRACT: note_on channel=2 note=62 velocity=125 time=0.09999984999999999
EXTRACT: note_on channel=9 note=69 velocity=70 time=0.005263149999999999
EXTRACT: note_on channel=1 note=35 velocity=117 time=0
EXTRACT: note_on channel=4 note=67 velocity=68 time=0
EXTRACT: note_on channel=4 note=62 velocity=84 time=0
EXTRACT: note_on channel=4 note=59 velocity=75 time=0
EXTRACT: note_on channel=4 note=55 velocity=82 time=0
EXTRACT: note_on channel=4 note=47 velocity=55 time=0
EXTRACT: note_on channel=3 note=62 velocity=112 time=0.005263149999999999
EXTRACT: note_on channel=9 note=69 velocity=0 time=0.04736835
EXTRACT: note_on channel=4 note=67 velocity=0 time=0.02631575
EXTRACT: note_on channel=4 note=62 velocity=0 time=0
EXTRACT: note_on channel=4 note=59 velocity=0 time=0
EXTRACT: note_on channel=4 note=55 velocity=0 time=0
EXTRACT: note_on channel=4 note=47 velocity=0 time=0
EXTRACT: note_on channel=1 note=35 velocity=0 time=0.07368409999999999
EXTRACT: note_on channel=9 note=42 velocity=105 time=0.005263149999999999
EXTRACT: note_on channel=1 note=31 velocity=109 time=0
EXTRACT: note_on channel=4 note=67 velocity=51 time=0
EXTRACT: note_on channel=4 note=62 velocity=48 time=0
EXTRACT: note_on channel=4 note=59 velocity=43 time=0
EXTRACT: note_on channel=3 note=62 velocity=0 time=0.005263149999999999
EXTRACT: note_on channel=3 note=61 velocity=126 time=0
EXTRACT: note_on channel=9 note=42 velocity=0 time=0.04736835
EXTRACT: note_on channel=4 note=67 velocity=0 time=0.02631575
EXTRACT: note_on channel=4 note=62 velocity=0 time=0
EXTRACT: note_on channel=4 note=59 velocity=0 time=0
EXTRACT: note_on channel=2 note=59 velocity=127 time=0.07368409999999999
EXTRACT: note_on channel=9 note=69 velocity=62 time=0.005263149999999999
EXTRACT: note_on channel=1 note=31 velocity=0 time=0
EXTRACT: note_on channel=4 note=67 velocity=84 time=0
EXTRACT: note_on channel=4 note=62 velocity=56 time=0
EXTRACT: note_on channel=4 note=59 velocity=58 time=0
EXTRACT: note_on channel=4 note=55 velocity=52 time=0
EXTRACT: note_on channel=4 note=47 velocity=81 time=0
EXTRACT: note_on channel=3 note=61 velocity=0 time=0.005263149999999999
EXTRACT: note_on channel=3 note=59 velocity=117 time=0
EXTRACT: note_on channel=9 note=69 velocity=0 time=0.04736835
EXTRACT: note_on channel=4 note=67 velocity=0 time=0.02631575
EXTRACT: note_on channel=4 note=62 velocity=0 time=0
EXTRACT: note_on channel=4 note=59 velocity=0 time=0
EXTRACT: note_on channel=4 note=55 velocity=0 time=0
EXTRACT: note_on channel=4 note=47 velocity=0 time=0
EXTRACT: note_on channel=9 note=36 velocity=120 time=0.07894725
EXTRACT: note_on channel=9 note=42 velocity=110 time=0
EXTRACT: note_on channel=1 note=28 velocity=122 time=0
EXTRACT: note_on channel=4 note=67 velocity=57 time=0
EXTRACT: note_on channel=4 note=62 velocity=47 time=0
EXTRACT: note_on channel=4 note=59 velocity=66 time=0
EXTRACT: note_on channel=8 note=52 velocity=0 time=0
EXTRACT: note_on channel=8 note=64 velocity=0 time=0
EXTRACT: note_on channel=3 note=59 velocity=0 time=0.005263149999999999
EXTRACT: note_on channel=9 note=36 velocity=0 time=0.04736835
EXTRACT: note_on channel=9 note=42 velocity=0 time=0
EXTRACT: note_on channel=4 note=67 velocity=0 time=0.02631575
EXTRACT: note_on channel=4 note=62 velocity=0 time=0
EXTRACT: note_on channel=4 note=59 velocity=0 time=0
EXTRACT: note_on channel=2 note=62 velocity=109 time=0.07368409999999999
EXTRACT: note_on channel=9 note=69 velocity=73 time=0.005263149999999999
EXTRACT: note_on channel=3 note=62 velocity=123 time=0.005263149999999999
EXTRACT: note_on channel=9 note=69 velocity=0 time=0.04736835
EXTRACT: note_on channel=9 note=42 velocity=96 time=0.105263
EXTRACT: note_on channel=9 note=69 velocity=78 time=0
EXTRACT: note_on channel=1 note=28 velocity=0 time=0
EXTRACT: note_on channel=4 note=67 velocity=86 time=0
EXTRACT: note_on channel=4 note=62 velocity=106 time=0
EXTRACT: note_on channel=4 note=59 velocity=90 time=0
EXTRACT: note_on channel=4 note=55 velocity=110 time=0
EXTRACT: note_on channel=4 note=47 velocity=94 time=0
EXTRACT: note_on channel=7 note=67 velocity=79 time=0
EXTRACT: note_on channel=7 note=62 velocity=82 time=0
EXTRACT: note_on channel=7 note=59 velocity=88 time=0
EXTRACT: note_on channel=7 note=55 velocity=87 time=0
EXTRACT: note_on channel=7 note=47 velocity=99 time=0
EXTRACT: note_on channel=8 note=47 velocity=96 time=0
EXTRACT: note_on channel=8 note=59 velocity=119 time=0
EXTRACT: note_on channel=3 note=62 velocity=0 time=0.005263149999999999
EXTRACT: note_on channel=9 note=42 velocity=0 time=0.04736835
EXTRACT: note_on channel=9 note=69 velocity=0 time=0
EXTRACT: note_on channel=2 note=67 velocity=110 time=0.09999984999999999
EXTRACT: note_on channel=4 note=67 velocity=0 time=0.005263149999999999
EXTRACT: note_on channel=4 note=62 velocity=0 time=0
EXTRACT: note_on channel=4 note=59 velocity=0 time=0
EXTRACT: note_on channel=4 note=55 velocity=0 time=0
EXTRACT: note_on channel=4 note=47 velocity=0 time=0
EXTRACT: note_on channel=7 note=67 velocity=0 time=0
EXTRACT: note_on channel=7 note=62 velocity=0 time=0
EXTRACT: note_on channel=7 note=59 velocity=0 time=0
EXTRACT: note_on channel=7 note=55 velocity=0 time=0
EXTRACT: note_on channel=7 note=47 velocity=0 time=0
EXTRACT: note_on channel=8 note=47 velocity=0 time=0
EXTRACT: note_on channel=8 note=59 velocity=0 time=0
EXTRACT: note_on channel=3 note=62 velocity=127 time=0.005263149999999999
EXTRACT: note_on channel=2 note=67 velocity=107 time=0.14736819999999998
EXTRACT: note_on channel=9 note=40 velocity=127 time=0.005263149999999999
EXTRACT: note_on channel=9 note=42 velocity=96 time=0
EXTRACT: note_on channel=9 note=69 velocity=66 time=0
EXTRACT: note_on channel=5 note=91 velocity=0 time=0
EXTRACT: note_on channel=5 note=79 velocity=0 time=0
EXTRACT: note_on channel=5 note=86 velocity=103 time=0
EXTRACT: note_on channel=5 note=74 velocity=98 time=0
EXTRACT: note_on channel=8 note=47 velocity=95 time=0
EXTRACT: note_on channel=8 note=59 velocity=117 time=0
EXTRACT: note_on channel=9 note=40 velocity=0 time=0.0526315
EXTRACT: note_on channel=9 note=42 velocity=0 time=0
EXTRACT: note_on channel=9 note=69 velocity=0 time=0
EXTRACT: note_on channel=4 note=67 velocity=57 time=0.105263
EXTRACT: note_on channel=4 note=62 velocity=46 time=0
EXTRACT: note_on channel=4 note=59 velocity=51 time=0
EXTRACT: note_on channel=5 note=86 velocity=0 time=0
EXTRACT: note_on channel=5 note=74 velocity=0 time=0
EXTRACT: note_on channel=5 note=73 velocity=102 time=0
EXTRACT: note_on channel=5 note=85 velocity=100 time=0
EXTRACT: note_on channel=8 note=47 velocity=0 time=0
EXTRACT: note_on channel=8 note=59 velocity=0 time=0
EXTRACT: note_on channel=4 note=67 velocity=0 time=0.07894725
EXTRACT: note_on channel=4 note=62 velocity=0 time=0
EXTRACT: note_on channel=4 note=59 velocity=0 time=0
EXTRACT: note_on channel=2 note=62 velocity=120 time=0.07368409999999999
EXTRACT: note_on channel=9 note=42 velocity=108 time=0.005263149999999999
EXTRACT: note_on channel=1 note=28 velocity=121 time=0
EXTRACT: note_on channel=4 note=67 velocity=80 time=0
EXTRACT: note_on channel=4 note=62 velocity=59 time=0
EXTRACT: note_on channel=4 note=59 velocity=67 time=0
EXTRACT: note_on channel=4 note=55 velocity=80 time=0
EXTRACT: note_on channel=4 note=47 velocity=79 time=0
EXTRACT: note_on channel=5 note=73 velocity=0 time=0
EXTRACT: note_on channel=5 note=85 velocity=0 time=0
EXTRACT: note_on channel=5 note=71 velocity=109 time=0
EXTRACT: note_on channel=5 note=83 velocity=102 time=0
EXTRACT: note_on channel=8 note=47 velocity=94 time=0
EXTRACT: note_on channel=8 note=59 velocity=119 time=0
EXTRACT: note_on channel=9 note=42 velocity=0 time=0.0526315
EXTRACT: note_on channel=4 note=67 velocity=0 time=0.02631575
EXTRACT: note_on channel=4 note=62 velocity=0 time=0
EXTRACT: note_on channel=4 note=59 velocity=0 time=0
EXTRACT: note_on channel=4 note=55 velocity=0 time=0
EXTRACT: note_on channel=4 note=47 velocity=0 time=0
EXTRACT: note_on channel=1 note=28 velocity=0 time=0.07894725
EXTRACT: note_on channel=5 note=71 velocity=0 time=0
EXTRACT: note_on channel=5 note=83 velocity=0 time=0
EXTRACT: note_on channel=5 note=81 velocity=113 time=0
EXTRACT: note_on channel=5 note=69 velocity=114 time=0
EXTRACT: note_on channel=8 note=47 velocity=0 time=0
EXTRACT: note_on channel=8 note=59 velocity=0 time=0
EXTRACT: note_on channel=2 note=40 velocity=0 time=0.15263134999999997
EXTRACT: note_on channel=2 note=62 velocity=0 time=0
EXTRACT: note_on channel=2 note=67 velocity=0 time=0
EXTRACT: note_on channel=2 note=62 velocity=0 time=0
EXTRACT: note_on channel=2 note=59 velocity=0 time=0
EXTRACT: note_on channel=2 note=62 velocity=0 time=0
EXTRACT: note_on channel=2 note=67 velocity=0 time=0
EXTRACT: note_on channel=2 note=67 velocity=0 time=0
EXTRACT: note_on channel=2 note=62 velocity=0 time=0
EXTRACT: note_on channel=2 note=57 velocity=107 time=0
EXTRACT: note_on channel=2 note=54 velocity=126 time=0
EXTRACT: note_on channel=9 note=42 velocity=107 time=0.005263149999999999
EXTRACT: note_on channel=9 note=36 velocity=120 time=0
EXTRACT: note_on channel=1 note=30 velocity=117 time=0
EXTRACT: note_on channel=4 note=64 velocity=112 time=0
EXTRACT: note_on channel=4 note=61 velocity=105 time=0
EXTRACT: note_on channel=4 note=57 velocity=116 time=0
EXTRACT: note_on channel=4 note=54 velocity=97 time=0
EXTRACT: note_on channel=6 note=59 velocity=0 time=0
EXTRACT: note_on channel=6 note=62 velocity=0 time=0
EXTRACT: note_on channel=6 note=67 velocity=0 time=0
EXTRACT: note_on channel=6 note=57 velocity=86 time=0
EXTRACT: note_on channel=6 note=61 velocity=122 time=0
EXTRACT: note_on channel=6 note=66 velocity=114 time=0
EXTRACT: note_on channel=7 note=64 velocity=97 time=0
EXTRACT: note_on channel=7 note=61 velocity=97 time=0
EXTRACT: note_on channel=7 note=57 velocity=96 time=0
EXTRACT: note_on channel=7 note=54 velocity=93 time=0
EXTRACT: note_on channel=8 note=45 velocity=86 time=0
EXTRACT: note_on channel=8 note=57 velocity=127 time=0
EXTRACT: note_on channel=3 note=62 velocity=0 time=0.005263149999999999
EXTRACT: note_on channel=9 note=42 velocity=0 time=0.04736835
EXTRACT: note_on channel=9 note=36 velocity=0 time=0
EXTRACT: note_on channel=8 note=45 velocity=0 time=0.02631575
EXTRACT: note_on channel=8 note=57 velocity=0 time=0
EXTRACT: note_on channel=8 note=57 velocity=98 time=0.07894725
EXTRACT: note_on channel=8 note=69 velocity=126 time=0
EXTRACT: note_on channel=1 note=30 velocity=0 time=0.04736835
EXTRACT: note_on channel=1 note=30 velocity=119 time=0.005263149999999999
EXTRACT: note_on channel=2 note=61 velocity=108 time=0.09999984999999999
EXTRACT: note_on channel=9 note=42 velocity=81 time=0.005263149999999999
EXTRACT: note_on channel=9 note=42 velocity=108 time=0
EXTRACT: note_on channel=4 note=64 velocity=0 time=0
EXTRACT: note_on channel=4 note=61 velocity=0 time=0
EXTRACT: note_on channel=4 note=57 velocity=0 time=0
EXTRACT: note_on channel=4 note=54 velocity=0 time=0
EXTRACT: note_on channel=7 note=64 velocity=0 time=0
EXTRACT: note_on channel=7 note=61 velocity=0 time=0
EXTRACT: note_on channel=7 note=57 velocity=0 time=0
EXTRACT: note_on channel=7 note=54 velocity=0 time=0
EXTRACT: note_on channel=3 note=61 velocity=108 time=0.005263149999999999
EXTRACT: note_on channel=9 note=42 velocity=0 time=0.04736835
EXTRACT: note_on channel=9 note=42 velocity=0 time=0
EXTRACT: note_on channel=1 note=30 velocity=0 time=0.04736835
EXTRACT: note_on channel=1 note=30 velocity=108 time=0.005263149999999999
EXTRACT: note_on channel=2 note=64 velocity=109 time=0.04736835
EXTRACT: note_on channel=4 note=64 velocity=100 time=0.005263149999999999
EXTRACT: note_on channel=4 note=61 velocity=98 time=0
EXTRACT: note_on channel=4 note=57 velocity=90 time=0
EXTRACT: note_on channel=4 note=54 velocity=114 time=0
EXTRACT: note_on channel=7 note=64 velocity=104 time=0
EXTRACT: note_on channel=7 note=61 velocity=76 time=0
EXTRACT: note_on channel=7 note=57 velocity=96 time=0
EXTRACT: note_on channel=7 note=54 velocity=82 time=0
EXTRACT: note_on channel=1 note=30 velocity=0 time=0.15263134999999997
EXTRACT: note_on channel=9 note=40 velocity=127 time=0.005263149999999999
EXTRACT: note_on channel=9 note=42 velocity=100 time=0
EXTRACT: note_on channel=9 note=69 velocity=62 time=0
EXTRACT: note_on channel=1 note=37 velocity=108 time=0
EXTRACT: note_on channel=4 note=64 velocity=0 time=0
EXTRACT: note_on channel=4 note=61 velocity=0 time=0
EXTRACT: note_on channel=4 note=57 velocity=0 time=0
EXTRACT: note_on channel=4 note=54 velocity=0 time=0
EXTRACT: note_on channel=7 note=64 velocity=0 time=0
EXTRACT: note_on channel=7 note=61 velocity=0 time=0
EXTRACT: note_on channel=7 note=57 velocity=0 time=0
EXTRACT: note_on channel=7 note=54 velocity=0 time=0
EXTRACT: note_on channel=8 note=57 velocity=0 time=0
EXTRACT: note_on channel=8 note=69 velocity=0 time=0
EXTRACT: note_on channel=8 note=52 velocity=99 time=0
EXTRACT: note_on channel=8 note=64 velocity=125 time=0
EXTRACT: note_on channel=3 note=61 velocity=0 time=0.005263149999999999
EXTRACT: note_on channel=9 note=40 velocity=0 time=0.04736835
EXTRACT: note_on channel=9 note=42 velocity=0 time=0
EXTRACT: note_on channel=9 note=69 velocity=0 time=0
EXTRACT: note_on channel=2 note=61 velocity=111 time=0.09999984999999999
EXTRACT: note_on channel=9 note=69 velocity=70 time=0.005263149999999999
EXTRACT: note_on channel=4 note=64 velocity=90 time=0
EXTRACT: note_on channel=4 note=61 velocity=75 time=0
EXTRACT: note_on channel=4 note=57 velocity=84 time=0
EXTRACT: note_on channel=4 note=54 velocity=80 time=0
EXTRACT: note_on channel=3 note=61 velocity=116 time=0.005263149999999999
EXTRACT: note_on channel=9 note=69 velocity=0 time=0.04736835
EXTRACT: note_on channel=1 note=37 velocity=0 time=0.02631575
EXTRACT: note_on channel=4 note=64 velocity=0 time=0
EXTRACT: note_on channel=4 note=61 velocity=0 time=0
EXTRACT: note_on channel=4 note=57 velocity=0 time=0
EXTRACT: note_on channel=4 note=54 velocity=0 time=0
EXTRACT: note_on channel=9 note=42 velocity=109 time=0.07894725
EXTRACT: note_on channel=1 note=42 velocity=117 time=0
EXTRACT: note_on channel=4 note=64 velocity=70 time=0
EXTRACT: note_on channel=4 note=61 velocity=66 time=0
EXTRACT: note_on channel=4 note=57 velocity=70 time=0
EXTRACT: note_on channel=9 note=42 velocity=0 time=0.0526315
EXTRACT: note_on channel=4 note=64 velocity=0 time=0.02631575
EXTRACT: note_on channel=4 note=61 velocity=0 time=0
EXTRACT: note_on channel=4 note=57 velocity=0 time=0
EXTRACT: note_on channel=2 note=57 velocity=121 time=0.07368409999999999
EXTRACT: note_on channel=9 note=69 velocity=62 time=0.005263149999999999
EXTRACT: note_on channel=4 note=64 velocity=87 time=0
EXTRACT: note_on channel=4 note=61 velocity=81 time=0
EXTRACT: note_on channel=4 note=57 velocity=59 time=0
EXTRACT: note_on channel=4 note=54 velocity=56 time=0
EXTRACT: note_on channel=5 note=81 velocity=0 time=0
EXTRACT: note_on channel=5 note=69 velocity=0 time=0
EXTRACT: note_on channel=3 note=61 velocity=0 time=0.005263149999999999
EXTRACT: note_on channel=9 note=69 velocity=0 time=0.04736835
EXTRACT: note_on channel=1 note=42 velocity=0 time=0.02631575
EXTRACT: note_on channel=4 note=64 velocity=0 time=0
EXTRACT: note_on channel=4 note=61 velocity=0 time=0
EXTRACT: note_on channel=4 note=57 velocity=0 time=0
EXTRACT: note_on channel=4 note=54 velocity=0 time=0
EXTRACT: note_on channel=2 note=61 velocity=119 time=0.07368409999999999
EXTRACT: note_on channel=9 note=36 velocity=120 time=0.005263149999999999
EXTRACT: note_on channel=9 note=42 velocity=92 time=0
EXTRACT: note_on channel=1 note=37 velocity=117 time=0
EXTRACT: note_on channel=4 note=64 velocity=65 time=0
EXTRACT: note_on channel=4 note=61 velocity=43 time=0
EXTRACT: note_on channel=4 note=57 velocity=63 time=0
EXTRACT: note_on channel=5 note=78 velocity=107 time=0
EXTRACT: note_on channel=5 note=90 velocity=115 time=0
EXTRACT: note_on channel=3 note=61 velocity=118 time=0.005263149999999999
EXTRACT: note_on channel=9 note=36 velocity=0 time=0.04736835
EXTRACT: note_on channel=9 note=42 velocity=0 time=0
EXTRACT: note_on channel=4 note=64 velocity=0 time=0.02631575
EXTRACT: note_on channel=4 note=61 velocity=0 time=0
EXTRACT: note_on channel=4 note=57 velocity=0 time=0
EXTRACT: note_on channel=2 note=64 velocity=114 time=0.07368409999999999
EXTRACT: note_on channel=9 note=69 velocity=73 time=0.005263149999999999
EXTRACT: note_on channel=5 note=78 velocity=0 time=0
EXTRACT: note_on channel=5 note=90 velocity=0 time=0
EXTRACT: note_on channel=8 note=52 velocity=0 time=0
EXTRACT: note_on channel=8 note=64 velocity=0 time=0
EXTRACT: note_on channel=9 note=69 velocity=0 time=0.0526315
EXTRACT: note_on channel=2 note=66 velocity=102 time=0.09999984999999999
EXTRACT: note_on channel=9 note=36 velocity=120 time=0.005263149999999999
EXTRACT: note_on channel=9 note=42 velocity=98 time=0
EXTRACT: note_on channel=9 note=69 velocity=78 time=0
EXTRACT: note_on channel=4 note=64 velocity=106 time=0
EXTRACT: note_on channel=4 note=61 velocity=107 time=0
EXTRACT: note_on channel=4 note=57 velocity=90 time=0
EXTRACT: note_on channel=4 note=54 velocity=86 time=0
EXTRACT: note_on channel=7 note=64 velocity=76 time=0
EXTRACT: note_on channel=7 note=61 velocity=105 time=0
EXTRACT: note_on channel=7 note=57 velocity=74 time=0
EXTRACT: note_on channel=7 note=54 velocity=102 time=0
EXTRACT: note_on channel=9 note=36 velocity=0 time=0.0526315
EXTRACT: note_on channel=9 note=42 velocity=0 time=0
EXTRACT: note_on channel=9 note=69 velocity=0 time=0
EXTRACT: note_on channel=1 note=37 velocity=0 time=0.04736835
EXTRACT: note_on channel=1 note=42 velocity=115 time=0.005263149999999999
EXTRACT: note_on channel=2 note=69 velocity=124 time=0.04736835
EXTRACT: note_on channel=4 note=64 velocity=0 time=0.005263149999999999
EXTRACT: note_on channel=4 note=61 velocity=0 time=0
EXTRACT: note_on channel=4 note=57 velocity=0 time=0
EXTRACT: note_on channel=4 note=54 velocity=0 time=0
EXTRACT: note_on channel=5 note=76 velocity=116 time=0
EXTRACT: note_on channel=5 note=88 velocity=102 time=0
EXTRACT: note_on channel=7 note=64 velocity=0 time=0
EXTRACT: note_on channel=7 note=61 velocity=0 time=0
EXTRACT: note_on channel=7 note=57 velocity=0 time=0
EXTRACT: note_on channel=7 note=54 velocity=0 time=0
EXTRACT: note_on channel=9 note=40 velocity=127 time=0.1578945
EXTRACT: note_on channel=9 note=42 velocity=97 time=0
EXTRACT: note_on channel=9 note=69 velocity=66 time=0
EXTRACT: note_on channel=5 note=76 velocity=0 time=0
EXTRACT: note_on channel=5 note=88 velocity=0 time=0
EXTRACT: note_on channel=9 note=40 velocity=0 time=0.0526315
EXTRACT: note_on channel=9 note=42 velocity=0 time=0
EXTRACT: note_on channel=9 note=69 velocity=0 time=0
EXTRACT: note_on channel=4 note=64 velocity=61 time=0.105263
EXTRACT: note_on channel=4 note=61 velocity=51 time=0
EXTRACT: note_on channel=4 note=57 velocity=42 time=0
EXTRACT: note_on channel=1 note=42 velocity=0 time=0.04736835
EXTRACT: note_on channel=1 note=49 velocity=108 time=0.005263149999999999
EXTRACT: note_on channel=4 note=64 velocity=0 time=0.02631575
EXTRACT: note_on channel=4 note=61 velocity=0 time=0
EXTRACT: note_on channel=4 note=57 velocity=0 time=0
EXTRACT: note_on channel=9 note=36 velocity=90 time=0.07894725
EXTRACT: note_on channel=9 note=42 velocity=109 time=0
EXTRACT: note_on channel=4 note=64 velocity=69 time=0
EXTRACT: note_on channel=4 note=61 velocity=60 time=0
EXTRACT: note_on channel=4 note=57 velocity=70 time=0
EXTRACT: note_on channel=4 note=54 velocity=51 time=0
EXTRACT: note_on channel=5 note=86 velocity=105 time=0
EXTRACT: note_on channel=5 note=74 velocity=110 time=0
EXTRACT: note_on channel=8 note=54 velocity=92 time=0
EXTRACT: note_on channel=8 note=66 velocity=119 time=0
EXTRACT: note_on channel=3 note=61 velocity=87 time=0.005263149999999999
EXTRACT: note_on channel=9 note=36 velocity=0 time=0.04736835
EXTRACT: note_on channel=9 note=42 velocity=0 time=0
EXTRACT: note_on channel=4 note=64 velocity=0 time=0.02631575
EXTRACT: note_on channel=4 note=61 velocity=0 time=0
EXTRACT: note_on channel=4 note=57 velocity=0 time=0
EXTRACT: note_on channel=4 note=54 velocity=0 time=0
EXTRACT: note_on channel=9 note=40 velocity=127 time=0.07894725
EXTRACT: note_on channel=5 note=86 velocity=0 time=0
EXTRACT: note_on channel=5 note=74 velocity=0 time=0
EXTRACT: note_on channel=9 note=40 velocity=0 time=0.0526315
EXTRACT: note_on channel=1 note=49 velocity=0 time=0.09999984999999999
EXTRACT: note_on channel=2 note=57 velocity=0 time=0
EXTRACT: note_on channel=2 note=54 velocity=0 time=0
EXTRACT: note_on channel=2 note=61 velocity=0 time=0
EXTRACT: note_on channel=2 note=64 velocity=0 time=0
EXTRACT: note_on channel=2 note=61 velocity=0 time=0
EXTRACT: note_on channel=2 note=57 velocity=0 time=0
EXTRACT: note_on channel=2 note=61 velocity=0 time=0
EXTRACT: note_on channel=2 note=64 velocity=0 time=0
EXTRACT: note_on channel=2 note=66 velocity=0 time=0
EXTRACT: note_on channel=2 note=69 velocity=0 time=0
EXTRACT: note_on channel=2 note=47 velocity=126 time=0
EXTRACT: note_on channel=9 note=49 velocity=100 time=0.005263149999999999
EXTRACT: note_on channel=9 note=36 velocity=120 time=0
EXTRACT: note_on channel=1 note=35 velocity=118 time=0
EXTRACT: note_on channel=4 note=66 velocity=107 time=0
EXTRACT: note_on channel=4 note=62 velocity=92 time=0
EXTRACT: note_on channel=4 note=59 velocity=96 time=0
EXTRACT: note_on channel=4 note=54 velocity=95 time=0
EXTRACT: note_on channel=4 note=47 velocity=108 time=0
EXTRACT: control_change channel=5 control=11 value=60 time=0
EXTRACT: note_on channel=5 note=90 velocity=110 time=0
EXTRACT: note_on channel=5 note=78 velocity=103 time=0
EXTRACT: note_on channel=6 note=57 velocity=0 time=0
EXTRACT: note_on channel=6 note=61 velocity=0 time=0
EXTRACT: note_on channel=6 note=66 velocity=0 time=0
EXTRACT: control_change channel=6 control=11 value=40 time=0
EXTRACT: note_on channel=6 note=59 velocity=125 time=0
EXTRACT: note_on channel=6 note=62 velocity=126 time=0
EXTRACT: note_on channel=6 note=66 velocity=110 time=0
EXTRACT: note_on channel=7 note=66 velocity=77 time=0
EXTRACT: note_on channel=7 note=62 velocity=93 time=0
EXTRACT: note_on channel=7 note=59 velocity=94 time=0
EXTRACT: note_on channel=7 note=54 velocity=92 time=0
EXTRACT: note_on channel=7 note=47 velocity=90 time=0
EXTRACT: note_on channel=3 note=61 velocity=0 time=0.005263149999999999
EXTRACT: note_on channel=3 note=61 velocity=0 time=0
EXTRACT: control_change channel=5 control=11 value=61 time=0.015789449999999997
EXTRACT: control_change channel=6 control=11 value=41 time=0.010526299999999999
EXTRACT: control_change channel=5 control=11 value=62 time=0.005263149999999999
EXTRACT: note_on channel=9 note=49 velocity=0 time=0.015789449999999997
EXTRACT: note_on channel=9 note=36 velocity=0 time=0
EXTRACT: control_change channel=5 control=11 value=63 time=0.005263149999999999
EXTRACT: control_change channel=6 control=11 value=42 time=0.005263149999999999
EXTRACT: control_change channel=5 control=11 value=64 time=0.010526299999999999
EXTRACT: control_change channel=5 control=11 value=65 time=0.021052599999999998
EXTRACT: control_change channel=6 control=11 value=43 time=0
EXTRACT: control_change channel=5 control=11 value=66 time=0.015789449999999997
EXTRACT: control_change channel=6 control=11 value=44 time=0.015789449999999997
EXTRACT: control_change channel=5 control=11 value=67 time=0.005263149999999999
EXTRACT: note_on channel=1 note=35 velocity=0 time=0.021052599999999998
EXTRACT: control_change channel=5 control=11 value=68 time=0
EXTRACT: note_on channel=1 note=35 velocity=124 time=0.005263149999999999
EXTRACT: control_change channel=6 control=11 value=45 time=0
EXTRACT: control_change channel=5 control=11 value=69 time=0.010526299999999999
EXTRACT: control_change channel=5 control=11 value=70 time=0.021052599999999998
EXTRACT: control_change channel=6 control=11 value=46 time=0
EXTRACT: control_change channel=5 control=11 value=71 time=0.015789449999999997
EXTRACT: control_change channel=6 control=11 value=47 time=0.015789449999999997
EXTRACT: control_change channel=5 control=11 value=72 time=0.005263149999999999
EXTRACT: control_change channel=5 control=11 value=73 time=0.021052599999999998
EXTRACT: control_change channel=6 control=11 value=48 time=0.005263149999999999
EXTRACT: control_change channel=5 control=11 value=74 time=0.010526299999999999
EXTRACT: control_change channel=5 control=11 value=75 time=0.021052599999999998
EXTRACT: control_change channel=6 control=11 value=49 time=0
EXTRACT: control_change channel=5 control=11 value=76 time=0.015789449999999997
EXTRACT: note_on channel=2 note=62 velocity=127 time=0.010526299999999999
EXTRACT: note_on channel=9 note=42 velocity=100 time=0.005263149999999999
EXTRACT: note_on channel=1 note=35 velocity=0 time=0
EXTRACT: note_on channel=4 note=66 velocity=0 time=0
EXTRACT: note_on channel=4 note=62 velocity=0 time=0
EXTRACT: note_on channel=4 note=59 velocity=0 time=0
EXTRACT: note_on channel=4 note=54 velocity=0 time=0
EXTRACT: note_on channel=4 note=47 velocity=0 time=0
EXTRACT: control_change channel=6 control=11 value=50 time=0
EXTRACT: note_on channel=7 note=66 velocity=0 time=0
EXTRACT: note_on channel=7 note=62 velocity=0 time=0
EXTRACT: note_on channel=7 note=59 velocity=0 time=0
EXTRACT: note_on channel=7 note=54 velocity=0 time=0
EXTRACT: note_on channel=7 note=47 velocity=0 time=0
EXTRACT: note_on channel=8 note=54 velocity=0 time=0
EXTRACT: note_on channel=8 note=66 velocity=0 time=0
EXTRACT: note_on channel=8 note=57 velocity=83 time=0
EXTRACT: note_on channel=8 note=69 velocity=122 time=0
EXTRACT: note_on channel=3 note=62 velocity=107 time=0.005263149999999999
EXTRACT: control_change channel=5 control=11 value=77 time=0
EXTRACT: control_change channel=5 control=11 value=78 time=0.015789449999999997
EXTRACT: control_change channel=6 control=11 value=51 time=0.010526299999999999
EXTRACT: control_change channel=5 control=11 value=79 time=0.010526299999999999
EXTRACT: note_on channel=9 note=42 velocity=0 time=0.010526299999999999
EXTRACT: control_change channel=5 control=11 value=80 time=0.010526299999999999
EXTRACT: control_change channel=6 control=11 value=52 time=0
EXTRACT: control_change channel=5 control=11 value=81 time=0.015789449999999997
EXTRACT: control_change channel=6 control=11 value=53 time=0.015789449999999997
EXTRACT: control_change channel=5 control=11 value=82 time=0.005263149999999999
EXTRACT: control_change channel=5 control=11 value=83 time=0.015789449999999997
EXTRACT: control_change channel=6 control=11 value=54 time=0.010526299999999999
EXTRACT: control_change channel=5 control=11 value=84 time=0.010526299999999999
EXTRACT: note_on channel=2 note=66 velocity=127 time=0.015789449999999997
EXTRACT: note_on channel=1 note=42 velocity=111 time=0.005263149999999999
EXTRACT: note_on channel=4 note=66 velocity=111 time=0
EXTRACT: note_on channel=4 note=62 velocity=107 time=0
EXTRACT: note_on channel=4 note=59 velocity=100 time=0
EXTRACT: note_on channel=4 note=54 velocity=96 time=0
EXTRACT: note_on channel=4 note=47 velocity=115 time=0
EXTRACT: control_change channel=5 control=11 value=85 time=0
EXTRACT: control_change channel=6 control=11 value=55 time=0
EXTRACT: note_on channel=7 note=66 velocity=93 time=0
EXTRACT: note_on channel=7 note=62 velocity=108 time=0
EXTRACT: note_on channel=7 note=59 velocity=82 time=0
EXTRACT: note_on channel=7 note=54 velocity=111 time=0
EXTRACT: note_on channel=7 note=47 velocity=107 time=0
EXTRACT: note_on channel=8 note=57 velocity=0 time=0
EXTRACT: note_on channel=8 note=69 velocity=0 time=0
EXTRACT: control_change channel=5 control=11 value=86 time=0.015789449999999997
EXTRACT: control_change channel=6 control=11 value=56 time=0.015789449999999997
EXTRACT: control_change channel=5 control=11 value=87 time=0.005263149999999999
EXTRACT: control_change channel=5 control=11 value=88 time=0.015789449999999997
EXTRACT: control_change channel=6 control=11 value=57 time=0.010526299999999999
EXTRACT: control_change channel=5 control=11 value=89 time=0.010526299999999999
EXTRACT: control_change channel=5 control=11 value=90 time=0.015789449999999997
EXTRACT: control_change channel=6 control=11 value=58 time=0.005263149999999999
EXTRACT: control_change channel=5 control=11 value=91 time=0.015789449999999997
EXTRACT: control_change channel=6 control=11 value=59 time=0.015789449999999997
EXTRACT: control_change channel=5 control=11 value=92 time=0.005263149999999999
EXTRACT: control_change channel=5 control=11 value=93 time=0.015789449999999997
EXTRACT: note_on channel=9 note=42 velocity=94 time=0.010526299999999999
EXTRACT: note_on channel=9 note=40 velocity=127 time=0
EXTRACT: note_on channel=9 note=69 velocity=62 time=0
EXTRACT: note_on channel=1 note=42 velocity=0 time=0
EXTRACT: note_on channel=4 note=66 velocity=0 time=0
EXTRACT: note_on channel=4 note=62 velocity=0 time=0
EXTRACT: note_on channel=4 note=59 velocity=0 time=0
EXTRACT: note_on channel=4 note=54 velocity=0 time=0
EXTRACT: note_on channel=4 note=47 velocity=0 time=0
EXTRACT: control_change channel=6 control=11 value=60 time=0
EXTRACT: note_on channel=7 note=66 velocity=0 time=0
EXTRACT: note_on channel=7 note=62 velocity=0 time=0
EXTRACT: note_on channel=7 note=59 velocity=0 time=0
EXTRACT: note_on channel=7 note=54 velocity=0 time=0
EXTRACT: note_on channel=7 note=47 velocity=0 time=0
EXTRACT: note_on channel=8 note=55 velocity=98 time=0
EXTRACT: note_on channel=8 note=67 velocity=119 time=0
EXTRACT: note_on channel=3 note=62 velocity=0 time=0.005263149999999999
EXTRACT: control_change channel=5 control=11 value=94 time=0.005263149999999999
EXTRACT: control_change channel=5 control=11 value=95 time=0.015789449999999997
EXTRACT: control_change channel=6 control=11 value=61 time=0.005263149999999999
EXTRACT: control_change channel=5 control=11 value=96 time=0.015789449999999997
EXTRACT: note_on channel=9 note=42 velocity=0 time=0.005263149999999999
EXTRACT: note_on channel=9 note=40 velocity=0 time=0
EXTRACT: note_on channel=9 note=69 velocity=0 time=0
EXTRACT: control_change channel=6 control=11 value=62 time=0.010526299999999999
EXTRACT: control_change channel=5 control=11 value=97 time=0.005263149999999999
EXTRACT: control_change channel=5 control=11 value=98 time=0.015789449999999997
EXTRACT: control_change channel=6 control=11 value=63 time=0.010526299999999999
EXTRACT: control_change channel=5 control=11 value=99 time=0.010526299999999999
EXTRACT: control_change channel=5 control=11 value=100 time=0.015789449999999997
EXTRACT: control_change channel=6 control=11 value=64 time=0.005263149999999999
EXTRACT: control_change channel=5 control=11 value=101 time=0.015789449999999997
EXTRACT: note_on channel=2 note=62 velocity=113 time=0.010526299999999999
EXTRACT: note_on channel=9 note=69 velocity=70 time=0.005263149999999999
EXTRACT: note_on channel=1 note=42 velocity=123 time=0
EXTRACT: note_on channel=4 note=66 velocity=53 time=0
EXTRACT: note_on channel=4 note=62 velocity=89 time=0
EXTRACT: note_on channel=4 note=59 velocity=79 time=0
EXTRACT: note_on channel=4 note=54 velocity=89 time=0
EXTRACT: note_on channel=4 note=47 velocity=60 time=0
EXTRACT: control_change channel=5 control=11 value=102 time=0
EXTRACT: control_change channel=6 control=11 value=65 time=0
EXTRACT: note_on channel=8 note=55 velocity=0 time=0
EXTRACT: note_on channel=8 note=67 velocity=0 time=0
EXTRACT: note_on channel=3 note=62 velocity=106 time=0.005263149999999999
EXTRACT: control_change channel=5 control=11 value=103 time=0.015789449999999997
EXTRACT: control_change channel=6 control=11 value=66 time=0.010526299999999999
EXTRACT: control_change channel=5 control=11 value=104 time=0.010526299999999999
EXTRACT: note_on channel=9 note=69 velocity=0 time=0.010526299999999999
EXTRACT: control_change channel=5 control=11 value=105 time=0.005263149999999999
EXTRACT: control_change channel=6 control=11 value=67 time=0.005263149999999999
EXTRACT: note_on channel=4 note=66 velocity=0 time=0.015789449999999997
EXTRACT: note_on channel=4 note=62 velocity=0 time=0
EXTRACT: note_on channel=4 note=59 velocity=0 time=0
EXTRACT: note_on channel=4 note=54 velocity=0 time=0
EXTRACT: note_on channel=4 note=47 velocity=0 time=0
EXTRACT: control_change channel=5 control=11 value=106 time=0
EXTRACT: control_change channel=5 control=11 value=107 time=0.015789449999999997
EXTRACT: control_change channel=6 control=11 value=68 time=0
EXTRACT: control_change channel=5 control=11 value=108 time=0.021052599999999998
EXTRACT: control_change channel=6 control=11 value=69 time=0.010526299999999999
EXTRACT: control_change channel=5 control=11 value=109 time=0.010526299999999999
EXTRACT: note_on channel=1 note=42 velocity=0 time=0.015789449999999997
EXTRACT: control_change channel=5 control=11 value=110 time=0
EXTRACT: note_on channel=9 note=42 velocity=105 time=0.005263149999999999
EXTRACT: note_on channel=1 note=38 velocity=126 time=0
EXTRACT: note_on channel=4 note=66 velocity=50 time=0
EXTRACT: note_on channel=4 note=62 velocity=56 time=0
EXTRACT: note_on channel=4 note=59 velocity=50 time=0
EXTRACT: control_change channel=6 control=11 value=70 time=0
EXTRACT: note_on channel=8 note=54 velocity=87 time=0
EXTRACT: note_on channel=8 note=66 velocity=118 time=0
EXTRACT: note_on channel=3 note=62 velocity=0 time=0.005263149999999999
EXTRACT: note_on channel=3 note=61 velocity=102 time=0
EXTRACT: control_change channel=5 control=11 value=111 time=0.010526299999999999
EXTRACT: control_change channel=5 control=11 value=112 time=0.015789449999999997
EXTRACT: control_change channel=6 control=11 value=71 time=0
EXTRACT: note_on channel=9 note=42 velocity=0 time=0.021052599999999998
EXTRACT: control_change channel=5 control=11 value=113 time=0
EXTRACT: control_change channel=6 control=11 value=72 time=0.010526299999999999
EXTRACT: control_change channel=5 control=11 value=114 time=0.005263149999999999
EXTRACT: note_on channel=4 note=66 velocity=0 time=0.010526299999999999
EXTRACT: note_on channel=4 note=62 velocity=0 time=0
EXTRACT: note_on channel=4 note=59 velocity=0 time=0
EXTRACT: control_change channel=5 control=11 value=115 time=0.010526299999999999
EXTRACT: control_change channel=6 control=11 value=73 time=0.005263149999999999
EXTRACT: control_change channel=5 control=11 value=116 time=0.015789449999999997
EXTRACT: control_change channel=5 control=11 value=117 time=0.015789449999999997
EXTRACT: control_change channel=6 control=11 value=74 time=0
EXTRACT: control_change channel=5 control=11 value=118 time=0.021052599999999998
EXTRACT: note_on channel=2 note=59 velocity=126 time=0.005263149999999999
EXTRACT: note_on channel=9 note=69 velocity=62 time=0.005263149999999999
EXTRACT: note_on channel=1 note=38 velocity=0 time=0
EXTRACT: note_on channel=4 note=66 velocity=86 time=0
EXTRACT: note_on channel=4 note=62 velocity=59 time=0
EXTRACT: note_on channel=4 note=59 velocity=68 time=0
EXTRACT: note_on channel=4 note=54 velocity=55 time=0
EXTRACT: note_on channel=4 note=47 velocity=85 time=0
EXTRACT: control_change channel=6 control=11 value=75 time=0
EXTRACT: note_on channel=8 note=54 velocity=0 time=0
EXTRACT: note_on channel=8 note=66 velocity=0 time=0
EXTRACT: note_on channel=3 note=61 velocity=0 time=0.005263149999999999
EXTRACT: note_on channel=3 note=59 velocity=119 time=0
EXTRACT: control_change channel=5 control=11 value=119 time=0
EXTRACT: control_change channel=5 control=11 value=120 time=0.021052599999999998
EXTRACT: control_change channel=6 control=11 value=76 time=0.005263149999999999
EXTRACT: control_change channel=5 control=11 value=121 time=0.015789449999999997
EXTRACT: note_on channel=9 note=69 velocity=0 time=0.005263149999999999
EXTRACT: control_change channel=5 control=11 value=122 time=0.010526299999999999
EXTRACT: control_change channel=6 control=11 value=77 time=0
EXTRACT: note_on channel=4 note=66 velocity=0 time=0.015789449999999997
EXTRACT: note_on channel=4 note=62 velocity=0 time=0
EXTRACT: note_on channel=4 note=59 velocity=0 time=0
EXTRACT: note_on channel=4 note=54 velocity=0 time=0
EXTRACT: note_on channel=4 note=47 velocity=0 time=0
EXTRACT: control_change channel=5 control=11 value=123 time=0.005263149999999999
EXTRACT: control_change channel=6 control=11 value=78 time=0.010526299999999999
EXTRACT: control_change channel=5 control=11 value=124 time=0.005263149999999999
EXTRACT: control_change channel=5 control=11 value=125 time=0.021052599999999998
EXTRACT: control_change channel=6 control=11 value=79 time=0.005263149999999999
EXTRACT: control_change channel=5 control=11 value=126 time=0.010526299999999999
EXTRACT: note_on channel=9 note=36 velocity=120 time=0.021052599999999998
EXTRACT: note_on channel=9 note=42 velocity=107 time=0
EXTRACT: note_on channel=1 note=35 velocity=124 time=0
EXTRACT: note_on channel=4 note=66 velocity=53 time=0
EXTRACT: note_on channel=4 note=62 velocity=66 time=0
EXTRACT: note_on channel=4 note=59 velocity=53 time=0
EXTRACT: control_change channel=5 control=11 value=127 time=0
EXTRACT: control_change channel=6 control=11 value=80 time=0
EXTRACT: note_on channel=8 note=52 velocity=86 time=0
EXTRACT: note_on channel=8 note=64 velocity=120 time=0
EXTRACT: note_on channel=3 note=59 velocity=0 time=0.005263149999999999
EXTRACT: note_on channel=9 note=36 velocity=0 time=0.04736835
EXTRACT: note_on channel=9 note=42 velocity=0 time=0
EXTRACT: note_on channel=4 note=66 velocity=0 time=0.02631575
EXTRACT: note_on channel=4 note=62 velocity=0 time=0
EXTRACT: note_on channel=4 note=59 velocity=0 time=0
EXTRACT: note_on channel=2 note=62 velocity=110 time=0.07368409999999999
EXTRACT: note_on channel=9 note=69 velocity=73 time=0.005263149999999999
EXTRACT: note_on channel=3 note=62 velocity=122 time=0.005263149999999999
EXTRACT: note_on channel=9 note=69 velocity=0 time=0.04736835
EXTRACT: note_on channel=9 note=42 velocity=92 time=0.105263
EXTRACT: note_on channel=9 note=69 velocity=78 time=0
EXTRACT: note_on channel=1 note=35 velocity=0 time=0
EXTRACT: note_on channel=4 note=66 velocity=108 time=0
EXTRACT: note_on channel=4 note=62 velocity=92 time=0
EXTRACT: note_on channel=4 note=59 velocity=110 time=0
EXTRACT: note_on channel=4 note=54 velocity=104 time=0
EXTRACT: note_on channel=4 note=47 velocity=97 time=0
EXTRACT: note_on channel=7 note=66 velocity=75 time=0
EXTRACT: note_on channel=7 note=62 velocity=87 time=0
EXTRACT: note_on channel=7 note=59 velocity=99 time=0
EXTRACT: note_on channel=7 note=54 velocity=85 time=0
EXTRACT: note_on channel=7 note=47 velocity=107 time=0
EXTRACT: note_on channel=8 note=52 velocity=0 time=0
EXTRACT: note_on channel=8 note=64 velocity=0 time=0
EXTRACT: note_on channel=8 note=50 velocity=84 time=0
EXTRACT: note_on channel=8 note=62 velocity=127 time=0
EXTRACT: note_on channel=3 note=62 velocity=0 time=0.005263149999999999
EXTRACT: note_on channel=9 note=42 velocity=0 time=0.04736835
EXTRACT: note_on channel=9 note=69 velocity=0 time=0
EXTRACT: note_on channel=2 note=66 velocity=118 time=0.09999984999999999
EXTRACT: note_on channel=4 note=66 velocity=0 time=0.005263149999999999
EXTRACT: note_on channel=4 note=62 velocity=0 time=0
EXTRACT: note_on channel=4 note=59 velocity=0 time=0
EXTRACT: note_on channel=4 note=54 velocity=0 time=0
EXTRACT: note_on channel=4 note=47 velocity=0 time=0
EXTRACT: note_on channel=7 note=66 velocity=0 time=0
EXTRACT: note_on channel=7 note=62 velocity=0 time=0
EXTRACT: note_on channel=7 note=59 velocity=0 time=0
EXTRACT: note_on channel=7 note=54 velocity=0 time=0
EXTRACT: note_on channel=7 note=47 velocity=0 time=0
EXTRACT: note_on channel=8 note=50 velocity=0 time=0
EXTRACT: note_on channel=8 note=62 velocity=0 time=0
EXTRACT: note_on channel=3 note=62 velocity=120 time=0.005263149999999999
EXTRACT: note_on channel=2 note=66 velocity=103 time=0.14736819999999998
EXTRACT: note_on channel=9 note=40 velocity=127 time=0.005263149999999999
EXTRACT: note_on channel=9 note=42 velocity=97 time=0
EXTRACT: note_on channel=9 note=69 velocity=66 time=0
EXTRACT: note_on channel=8 note=52 velocity=100 time=0
EXTRACT: note_on channel=8 note=64 velocity=124 time=0
EXTRACT: note_on channel=9 note=40 velocity=0 time=0.0526315
EXTRACT: note_on channel=9 note=42 velocity=0 time=0
EXTRACT: note_on channel=9 note=69 velocity=0 time=0
EXTRACT: note_on channel=4 note=66 velocity=44 time=0.105263
EXTRACT: note_on channel=4 note=62 velocity=58 time=0
EXTRACT: note_on channel=4 note=59 velocity=44 time=0
EXTRACT: note_on channel=8 note=52 velocity=0 time=0
EXTRACT: note_on channel=8 note=64 velocity=0 time=0
EXTRACT: note_on channel=4 note=66 velocity=0 time=0.07894725
EXTRACT: note_on channel=4 note=62 velocity=0 time=0
EXTRACT: note_on channel=4 note=59 velocity=0 time=0
EXTRACT: note_on channel=2 note=62 velocity=123 time=0.07368409999999999
EXTRACT: note_on channel=9 note=42 velocity=93 time=0.005263149999999999
EXTRACT: note_on channel=1 note=30 velocity=118 time=0
EXTRACT: note_on channel=4 note=66 velocity=81 time=0
EXTRACT: note_on channel=4 note=62 velocity=58 time=0
EXTRACT: note_on channel=4 note=59 velocity=53 time=0
EXTRACT: note_on channel=4 note=54 velocity=65 time=0
EXTRACT: note_on channel=4 note=47 velocity=60 time=0
EXTRACT: note_on channel=8 note=54 velocity=85 time=0
EXTRACT: note_on channel=8 note=66 velocity=114 time=0
EXTRACT: note_on channel=9 note=42 velocity=0 time=0.0526315
EXTRACT: note_on channel=4 note=66 velocity=0 time=0.02631575
EXTRACT: note_on channel=4 note=62 velocity=0 time=0
EXTRACT: note_on channel=4 note=59 velocity=0 time=0
EXTRACT: note_on channel=4 note=54 velocity=0 time=0
EXTRACT: note_on channel=4 note=47 velocity=0 time=0
EXTRACT: note_on channel=1 note=30 velocity=0 time=0.07894725
EXTRACT: note_on channel=2 note=47 velocity=0 time=0.15263134999999997
EXTRACT: note_on channel=2 note=62 velocity=0 time=0
EXTRACT: note_on channel=2 note=66 velocity=0 time=0
EXTRACT: note_on channel=2 note=62 velocity=0 time=0
EXTRACT: note_on channel=2 note=59 velocity=0 time=0
EXTRACT: note_on channel=2 note=62 velocity=0 time=0
EXTRACT: note_on channel=2 note=66 velocity=0 time=0
EXTRACT: note_on channel=2 note=66 velocity=0 time=0
EXTRACT: note_on channel=2 note=47 velocity=102 time=0
EXTRACT: note_on channel=9 note=42 velocity=108 time=0.005263149999999999
EXTRACT: note_on channel=9 note=36 velocity=120 time=0
EXTRACT: note_on channel=1 note=35 velocity=114 time=0
EXTRACT: note_on channel=4 note=66 velocity=107 time=0
EXTRACT: note_on channel=4 note=62 velocity=115 time=0
EXTRACT: note_on channel=4 note=59 velocity=92 time=0
EXTRACT: note_on channel=4 note=54 velocity=116 time=0
EXTRACT: note_on channel=4 note=47 velocity=107 time=0
EXTRACT: note_on channel=7 note=66 velocity=86 time=0
EXTRACT: note_on channel=7 note=62 velocity=78 time=0
EXTRACT: note_on channel=7 note=59 velocity=77 time=0
EXTRACT: note_on channel=7 note=54 velocity=101 time=0
EXTRACT: note_on channel=7 note=47 velocity=94 time=0
EXTRACT: note_on channel=3 note=62 velocity=0 time=0.005263149999999999
EXTRACT: note_on channel=9 note=42 velocity=0 time=0.04736835
EXTRACT: note_on channel=9 note=36 velocity=0 time=0
EXTRACT: note_on channel=1 note=35 velocity=0 time=0.18421025
EXTRACT: note_on channel=2 note=62 velocity=0 time=0.07368409999999999
EXTRACT: note_on channel=2 note=62 velocity=115 time=0
EXTRACT: note_on channel=9 note=42 velocity=101 time=0.005263149999999999
EXTRACT: note_on channel=4 note=66 velocity=0 time=0
EXTRACT: note_on channel=4 note=62 velocity=0 time=0
EXTRACT: note_on channel=4 note=59 velocity=0 time=0
EXTRACT: note_on channel=4 note=54 velocity=0 time=0
EXTRACT: note_on channel=4 note=47 velocity=0 time=0
EXTRACT: note_on channel=7 note=66 velocity=0 time=0
EXTRACT: note_on channel=7 note=62 velocity=0 time=0
EXTRACT: note_on channel=7 note=59 velocity=0 time=0
EXTRACT: note_on channel=7 note=54 velocity=0 time=0
EXTRACT: note_on channel=7 note=47 velocity=0 time=0
EXTRACT: note_on channel=8 note=54 velocity=0 time=0
EXTRACT: note_on channel=8 note=66 velocity=0 time=0
EXTRACT: note_on channel=8 note=57 velocity=101 time=0
EXTRACT: note_on channel=8 note=69 velocity=115 time=0
EXTRACT: note_on channel=3 note=62 velocity=120 time=0.005263149999999999
EXTRACT: note_on channel=9 note=42 velocity=0 time=0.04736835
EXTRACT: note_on channel=2 note=66 velocity=115 time=0.09999984999999999
EXTRACT: note_on channel=1 note=35 velocity=117 time=0.005263149999999999
EXTRACT: note_on channel=4 note=66 velocity=91 time=0
EXTRACT: note_on channel=4 note=62 velocity=115 time=0
EXTRACT: note_on channel=4 note=59 velocity=109 time=0
EXTRACT: note_on channel=4 note=54 velocity=90 time=0
EXTRACT: note_on channel=4 note=47 velocity=98 time=0
EXTRACT: note_on channel=7 note=66 velocity=87 time=0
EXTRACT: note_on channel=7 note=62 velocity=101 time=0
EXTRACT: note_on channel=7 note=59 velocity=74 time=0
EXTRACT: note_on channel=7 note=54 velocity=86 time=0
EXTRACT: note_on channel=7 note=47 velocity=78 time=0
EXTRACT: note_on channel=8 note=57 velocity=0 time=0
EXTRACT: note_on channel=8 note=69 velocity=0 time=0
EXTRACT: note_on channel=9 note=42 velocity=93 time=0.1578945
EXTRACT: note_on channel=9 note=40 velocity=127 time=0
EXTRACT: note_on channel=9 note=69 velocity=62 time=0
EXTRACT: note_on channel=1 note=35 velocity=0 time=0
EXTRACT: note_on channel=4 note=66 velocity=0 time=0
EXTRACT: note_on channel=4 note=62 velocity=0 time=0
EXTRACT: note_on channel=4 note=59 velocity=0 time=0
EXTRACT: note_on channel=4 note=54 velocity=0 time=0
EXTRACT: note_on channel=4 note=47 velocity=0 time=0
EXTRACT: note_on channel=7 note=66 velocity=0 time=0
EXTRACT: note_on channel=7 note=62 velocity=0 time=0
EXTRACT: note_on channel=7 note=59 velocity=0 time=0
EXTRACT: note_on channel=7 note=54 velocity=0 time=0
EXTRACT: note_on channel=7 note=47 velocity=0 time=0
EXTRACT: note_on channel=8 note=55 velocity=89 time=0
EXTRACT: note_on channel=8 note=67 velocity=115 time=0
EXTRACT: note_on channel=3 note=62 velocity=0 time=0.005263149999999999
EXTRACT: note_on channel=9 note=42 velocity=0 time=0.04736835
EXTRACT: note_on channel=9 note=40 velocity=0 time=0
EXTRACT: note_on channel=9 note=69 velocity=0 time=0
EXTRACT: note_on channel=2 note=62 velocity=110 time=0.09999984999999999
EXTRACT: note_on channel=9 note=69 velocity=70 time=0.005263149999999999
EXTRACT: note_on channel=4 note=66 velocity=56 time=0
EXTRACT: note_on channel=4 note=62 velocity=91 time=0
EXTRACT: note_on channel=4 note=59 velocity=74 time=0
EXTRACT: note_on channel=4 note=54 velocity=63 time=0
EXTRACT: note_on channel=4 note=47 velocity=77 time=0
EXTRACT: note_on channel=8 note=55 velocity=0 time=0
EXTRACT: note_on channel=8 note=67 velocity=0 time=0
EXTRACT: note_on channel=3 note=62 velocity=103 time=0.005263149999999999
EXTRACT: note_on channel=9 note=69 velocity=0 time=0.04736835
EXTRACT: note_on channel=4 note=66 velocity=0 time=0.02631575
EXTRACT: note_on channel=4 note=62 velocity=0 time=0
EXTRACT: note_on channel=4 note=59 velocity=0 time=0
EXTRACT: note_on channel=4 note=54 velocity=0 time=0
EXTRACT: note_on channel=4 note=47 velocity=0 time=0
EXTRACT: note_on channel=9 note=42 velocity=91 time=0.07894725
EXTRACT: note_on channel=4 note=66 velocity=65 time=0
EXTRACT: note_on channel=4 note=62 velocity=55 time=0
EXTRACT: note_on channel=4 note=59 velocity=52 time=0
EXTRACT: note_on channel=8 note=54 velocity=90 time=0
EXTRACT: note_on channel=8 note=66 velocity=123 time=0
EXTRACT: note_on channel=3 note=62 velocity=0 time=0.005263149999999999
EXTRACT: note_on channel=3 note=61 velocity=106 time=0
EXTRACT: note_on channel=9 note=42 velocity=0 time=0.04736835
EXTRACT: note_on channel=4 note=66 velocity=0 time=0.02631575
EXTRACT: note_on channel=4 note=62 velocity=0 time=0
EXTRACT: note_on channel=4 note=59 velocity=0 time=0
EXTRACT: note_on channel=2 note=59 velocity=119 time=0.07368409999999999
EXTRACT: note_on channel=9 note=69 velocity=62 time=0.005263149999999999
EXTRACT: note_on channel=4 note=66 velocity=75 time=0
EXTRACT: note_on channel=4 note=62 velocity=89 time=0
EXTRACT: note_on channel=4 note=59 velocity=86 time=0
EXTRACT: note_on channel=4 note=54 velocity=55 time=0
EXTRACT: note_on channel=4 note=47 velocity=60 time=0
EXTRACT: note_on channel=8 note=54 velocity=0 time=0
EXTRACT: note_on channel=8 note=66 velocity=0 time=0
EXTRACT: note_on channel=3 note=61 velocity=0 time=0.005263149999999999
EXTRACT: note_on channel=3 note=59 velocity=112 time=0
EXTRACT: note_on channel=9 note=69 velocity=0 time=0.04736835
EXTRACT: note_on channel=4 note=66 velocity=0 time=0.02631575
EXTRACT: note_on channel=4 note=62 velocity=0 time=0
EXTRACT: note_on channel=4 note=59 velocity=0 time=0
EXTRACT: note_on channel=4 note=54 velocity=0 time=0
EXTRACT: note_on channel=4 note=47 velocity=0 time=0
EXTRACT: note_on channel=9 note=36 velocity=120 time=0.07894725
EXTRACT: note_on channel=9 note=42 velocity=103 time=0
EXTRACT: note_on channel=4 note=66 velocity=52 time=0
EXTRACT: note_on channel=4 note=62 velocity=43 time=0
EXTRACT: note_on channel=4 note=59 velocity=63 time=0
EXTRACT: note_on channel=8 note=52 velocity=91 time=0
EXTRACT: note_on channel=8 note=64 velocity=119 time=0
EXTRACT: note_on channel=3 note=59 velocity=0 time=0.005263149999999999
EXTRACT: note_on channel=9 note=36 velocity=0 time=0.04736835
EXTRACT: note_on channel=9 note=42 velocity=0 time=0
EXTRACT: note_on channel=4 note=66 velocity=0 time=0.02631575
EXTRACT: note_on channel=4 note=62 velocity=0 time=0
EXTRACT: note_on channel=4 note=59 velocity=0 time=0
EXTRACT: note_on channel=2 note=62 velocity=112 time=0.07368409999999999
EXTRACT: note_on channel=9 note=69 velocity=73 time=0.005263149999999999
EXTRACT: note_on channel=3 note=62 velocity=113 time=0.005263149999999999
EXTRACT: note_on channel=9 note=69 velocity=0 time=0.04736835
EXTRACT: note_on channel=9 note=42 velocity=107 time=0.105263
EXTRACT: note_on channel=9 note=69 velocity=78 time=0
EXTRACT: note_on channel=1 note=35 velocity=114 time=0
EXTRACT: note_on channel=4 note=66 velocity=100 time=0
EXTRACT: note_on channel=4 note=62 velocity=90 time=0
EXTRACT: note_on channel=4 note=59 velocity=92 time=0
EXTRACT: note_on channel=4 note=54 velocity=107 time=0
EXTRACT: note_on channel=4 note=47 velocity=108 time=0
EXTRACT: note_on channel=7 note=66 velocity=79 time=0
EXTRACT: note_on channel=7 note=62 velocity=107 time=0
EXTRACT: note_on channel=7 note=59 velocity=93 time=0
EXTRACT: note_on channel=7 note=54 velocity=111 time=0
EXTRACT: note_on channel=7 note=47 velocity=75 time=0
EXTRACT: note_on channel=8 note=52 velocity=0 time=0
EXTRACT: note_on channel=8 note=64 velocity=0 time=0
EXTRACT: note_on channel=8 note=50 velocity=98 time=0
EXTRACT: note_on channel=8 note=62 velocity=127 time=0
EXTRACT: note_on channel=3 note=62 velocity=0 time=0.005263149999999999
EXTRACT: note_on channel=9 note=42 velocity=0 time=0.04736835
EXTRACT: note_on channel=9 note=69 velocity=0 time=0
EXTRACT: note_on channel=2 note=66 velocity=107 time=0.09999984999999999
EXTRACT: note_on channel=1 note=35 velocity=0 time=0.005263149999999999
EXTRACT: note_on channel=4 note=66 velocity=0 time=0
EXTRACT: note_on channel=4 note=62 velocity=0 time=0
EXTRACT: note_on channel=4 note=59 velocity=0 time=0
EXTRACT: note_on channel=4 note=54 velocity=0 time=0
EXTRACT: note_on channel=4 note=47 velocity=0 time=0
EXTRACT: note_on channel=7 note=66 velocity=0 time=0
EXTRACT: note_on channel=7 note=62 velocity=0 time=0
EXTRACT: note_on channel=7 note=59 velocity=0 time=0
EXTRACT: note_on channel=7 note=54 velocity=0 time=0
EXTRACT: note_on channel=7 note=47 velocity=0 time=0
EXTRACT: note_on channel=8 note=50 velocity=0 time=0
EXTRACT: note_on channel=8 note=62 velocity=0 time=0
EXTRACT: note_on channel=3 note=62 velocity=114 time=0.005263149999999999
EXTRACT: note_on channel=2 note=66 velocity=109 time=0.14736819999999998
EXTRACT: note_on channel=9 note=40 velocity=127 time=0.005263149999999999
EXTRACT: note_on channel=9 note=42 velocity=105 time=0
EXTRACT: note_on channel=9 note=69 velocity=66 time=0
EXTRACT: note_on channel=8 note=54 velocity=89 time=0
EXTRACT: note_on channel=8 note=66 velocity=117 time=0
EXTRACT: note_on channel=9 note=40 velocity=0 time=0.0526315
EXTRACT: note_on channel=9 note=42 velocity=0 time=0
EXTRACT: note_on channel=9 note=69 velocity=0 time=0
EXTRACT: note_on channel=4 note=66 velocity=50 time=0.105263
EXTRACT: note_on channel=4 note=62 velocity=55 time=0
EXTRACT: note_on channel=4 note=59 velocity=41 time=0
EXTRACT: note_on channel=8 note=54 velocity=0 time=0
EXTRACT: note_on channel=8 note=66 velocity=0 time=0
EXTRACT: note_on channel=4 note=66 velocity=0 time=0.07894725
EXTRACT: note_on channel=4 note=62 velocity=0 time=0
EXTRACT: note_on channel=4 note=59 velocity=0 time=0
EXTRACT: note_on channel=2 note=62 velocity=119 time=0.07368409999999999
EXTRACT: note_on channel=9 note=36 velocity=90 time=0.005263149999999999
EXTRACT: note_on channel=9 note=42 velocity=92 time=0
EXTRACT: note_on channel=1 note=38 velocity=122 time=0
EXTRACT: note_on channel=4 note=66 velocity=68 time=0
EXTRACT: note_on channel=4 note=62 velocity=64 time=0
EXTRACT: note_on channel=4 note=59 velocity=77 time=0
EXTRACT: note_on channel=4 note=54 velocity=86 time=0
EXTRACT: note_on channel=4 note=47 velocity=71 time=0
EXTRACT: note_on channel=8 note=47 velocity=86 time=0
EXTRACT: note_on channel=8 note=59 velocity=127 time=0
EXTRACT: note_on channel=9 note=36 velocity=0 time=0.0526315
EXTRACT: note_on channel=9 note=42 velocity=0 time=0
EXTRACT: note_on channel=4 note=66 velocity=0 time=0.02631575
EXTRACT: note_on channel=4 note=62 velocity=0 time=0
EXTRACT: note_on channel=4 note=59 velocity=0 time=0
EXTRACT: note_on channel=4 note=54 velocity=0 time=0
EXTRACT: note_on channel=4 note=47 velocity=0 time=0
EXTRACT: note_on channel=9 note=40 velocity=127 time=0.07894725
EXTRACT: note_on channel=1 note=38 velocity=0 time=0
EXTRACT: note_on channel=9 note=40 velocity=0 time=0.0526315
EXTRACT: note_on channel=2 note=47 velocity=0 time=0.09999984999999999
EXTRACT: note_on channel=2 note=62 velocity=0 time=0
EXTRACT: note_on channel=2 note=66 velocity=0 time=0
EXTRACT: note_on channel=2 note=62 velocity=0 time=0
EXTRACT: note_on channel=2 note=59 velocity=0 time=0
EXTRACT: note_on channel=2 note=62 velocity=0 time=0
EXTRACT: note_on channel=2 note=66 velocity=0 time=0
EXTRACT: note_on channel=2 note=66 velocity=0 time=0
EXTRACT: note_on channel=2 note=62 velocity=0 time=0
EXTRACT: note_on channel=2 note=40 velocity=119 time=0
EXTRACT: note_on channel=9 note=42 velocity=99 time=0.005263149999999999
EXTRACT: note_on channel=9 note=36 velocity=120 time=0
EXTRACT: note_on channel=1 note=40 velocity=110 time=0
EXTRACT: note_on channel=4 note=67 velocity=115 time=0
EXTRACT: note_on channel=4 note=62 velocity=102 time=0
EXTRACT: note_on channel=4 note=59 velocity=114 time=0
EXTRACT: note_on channel=4 note=55 velocity=105 time=0
EXTRACT: note_on channel=4 note=47 velocity=93 time=0
EXTRACT: note_on channel=5 note=90 velocity=0 time=0
EXTRACT: note_on channel=5 note=78 velocity=0 time=0
EXTRACT: note_on channel=5 note=91 velocity=107 time=0
EXTRACT: note_on channel=5 note=79 velocity=111 time=0
EXTRACT: note_on channel=6 note=59 velocity=0 time=0
EXTRACT: note_on channel=6 note=62 velocity=0 time=0
EXTRACT: note_on channel=6 note=66 velocity=0 time=0
EXTRACT: note_on channel=6 note=59 velocity=122 time=0
EXTRACT: note_on channel=6 note=62 velocity=112 time=0
EXTRACT: note_on channel=6 note=67 velocity=114 time=0
EXTRACT: note_on channel=7 note=67 velocity=111 time=0
EXTRACT: note_on channel=7 note=62 velocity=94 time=0
EXTRACT: note_on channel=7 note=59 velocity=85 time=0
EXTRACT: note_on channel=7 note=55 velocity=111 time=0
EXTRACT: note_on channel=7 note=47 velocity=96 time=0
EXTRACT: note_on channel=3 note=62 velocity=0 time=0.005263149999999999
EXTRACT: note_on channel=9 note=42 velocity=0 time=0.04736835
EXTRACT: note_on channel=9 note=36 velocity=0 time=0
EXTRACT: note_on channel=1 note=40 velocity=0 time=0.07894725
EXTRACT: note_on channel=2 note=62 velocity=124 time=0.17894709999999997
EXTRACT: note_on channel=9 note=42 velocity=106 time=0.005263149999999999
EXTRACT: note_on channel=1 note=40 velocity=116 time=0
EXTRACT: note_on channel=4 note=67 velocity=0 time=0
EXTRACT: note_on channel=4 note=62 velocity=0 time=0
EXTRACT: note_on channel=4 note=59 velocity=0 time=0
EXTRACT: note_on channel=4 note=55 velocity=0 time=0
EXTRACT: note_on channel=4 note=47 velocity=0 time=0
EXTRACT: note_on channel=7 note=67 velocity=0 time=0
EXTRACT: note_on channel=7 note=62 velocity=0 time=0
EXTRACT: note_on channel=7 note=59 velocity=0 time=0
EXTRACT: note_on channel=7 note=55 velocity=0 time=0
EXTRACT: note_on channel=7 note=47 velocity=0 time=0
EXTRACT: note_on channel=8 note=47 velocity=0 time=0
EXTRACT: note_on channel=8 note=59 velocity=0 time=0
EXTRACT: note_on channel=8 note=52 velocity=85 time=0
EXTRACT: note_on channel=8 note=64 velocity=117 time=0
EXTRACT: note_on channel=3 note=62 velocity=120 time=0.005263149999999999
EXTRACT: note_on channel=9 note=42 velocity=0 time=0.04736835
EXTRACT: note_on channel=1 note=40 velocity=0 time=0.09999984999999999
EXTRACT: note_on channel=2 note=67 velocity=102 time=0
EXTRACT: note_on channel=1 note=35 velocity=117 time=0.005263149999999999
EXTRACT: note_on channel=4 note=67 velocity=96 time=0
EXTRACT: note_on channel=4 note=62 velocity=90 time=0
EXTRACT: note_on channel=4 note=59 velocity=85 time=0
EXTRACT: note_on channel=4 note=55 velocity=104 time=0
EXTRACT: note_on channel=4 note=47 velocity=100 time=0
EXTRACT: note_on channel=7 note=67 velocity=95 time=0
EXTRACT: note_on channel=7 note=62 velocity=93 time=0
EXTRACT: note_on channel=7 note=59 velocity=111 time=0
EXTRACT: note_on channel=7 note=55 velocity=85 time=0
EXTRACT: note_on channel=7 note=47 velocity=110 time=0
EXTRACT: note_on channel=8 note=52 velocity=0 time=0
EXTRACT: note_on channel=8 note=64 velocity=0 time=0
EXTRACT: note_on channel=9 note=42 velocity=100 time=0.1578945
EXTRACT: note_on channel=9 note=40 velocity=127 time=0
EXTRACT: note_on channel=9 note=69 velocity=62 time=0
EXTRACT: note_on channel=1 note=35 velocity=0 time=0
EXTRACT: note_on channel=4 note=67 velocity=0 time=0
EXTRACT: note_on channel=4 note=62 velocity=0 time=0
EXTRACT: note_on channel=4 note=59 velocity=0 time=0
EXTRACT: note_on channel=4 note=55 velocity=0 time=0
EXTRACT: note_on channel=4 note=47 velocity=0 time=0
EXTRACT: note_on channel=7 note=67 velocity=0 time=0
EXTRACT: note_on channel=7 note=62 velocity=0 time=0
EXTRACT: note_on channel=7 note=59 velocity=0 time=0
EXTRACT: note_on channel=7 note=55 velocity=0 time=0
EXTRACT: note_on channel=7 note=47 velocity=0 time=0
EXTRACT: note_on channel=8 note=52 velocity=91 time=0
EXTRACT: note_on channel=8 note=64 velocity=126 time=0
EXTRACT: note_on channel=3 note=62 velocity=0 time=0.005263149999999999
EXTRACT: note_on channel=9 note=42 velocity=0 time=0.04736835
EXTRACT: note_on channel=9 note=40 velocity=0 time=0
EXTRACT: note_on channel=9 note=69 velocity=0 time=0
EXTRACT: note_on channel=2 note=62 velocity=108 time=0.09999984999999999
EXTRACT: note_on channel=9 note=69 velocity=70 time=0.005263149999999999
EXTRACT: note_on channel=1 note=35 velocity=120 time=0
EXTRACT: note_on channel=4 note=67 velocity=90 time=0
EXTRACT: note_on channel=4 note=62 velocity=57 time=0
EXTRACT: note_on channel=4 note=59 velocity=57 time=0
EXTRACT: note_on channel=4 note=55 velocity=55 time=0
EXTRACT: note_on channel=4 note=47 velocity=64 time=0
EXTRACT: note_on channel=3 note=62 velocity=113 time=0.005263149999999999
EXTRACT: note_on channel=9 note=69 velocity=0 time=0.04736835
EXTRACT: note_on channel=4 note=67 velocity=0 time=0.02631575
EXTRACT: note_on channel=4 note=62 velocity=0 time=0
EXTRACT: note_on channel=4 note=59 velocity=0 time=0
EXTRACT: note_on channel=4 note=55 velocity=0 time=0
EXTRACT: note_on channel=4 note=47 velocity=0 time=0
EXTRACT: note_on channel=1 note=35 velocity=0 time=0.07368409999999999
EXTRACT: note_on channel=9 note=42 velocity=106 time=0.005263149999999999
EXTRACT: note_on channel=1 note=31 velocity=108 time=0
EXTRACT: note_on channel=4 note=67 velocity=54 time=0
EXTRACT: note_on channel=4 note=62 velocity=40 time=0
EXTRACT: note_on channel=4 note=59 velocity=47 time=0
EXTRACT: note_on channel=3 note=62 velocity=0 time=0.005263149999999999
EXTRACT: note_on channel=3 note=61 velocity=126 time=0
EXTRACT: note_on channel=9 note=42 velocity=0 time=0.04736835
EXTRACT: note_on channel=4 note=67 velocity=0 time=0.02631575
EXTRACT: note_on channel=4 note=62 velocity=0 time=0
EXTRACT: note_on channel=4 note=59 velocity=0 time=0
EXTRACT: note_on channel=2 note=59 velocity=102 time=0.07368409999999999
EXTRACT: note_on channel=9 note=69 velocity=62 time=0.005263149999999999
EXTRACT: note_on channel=1 note=31 velocity=0 time=0
EXTRACT: note_on channel=4 note=67 velocity=64 time=0
EXTRACT: note_on channel=4 note=62 velocity=59 time=0
EXTRACT: note_on channel=4 note=59 velocity=75 time=0
EXTRACT: note_on channel=4 note=55 velocity=91 time=0
EXTRACT: note_on channel=4 note=47 velocity=67 time=0
EXTRACT: note_on channel=3 note=61 velocity=0 time=0.005263149999999999
EXTRACT: note_on channel=3 note=59 velocity=116 time=0
EXTRACT: note_on channel=9 note=69 velocity=0 time=0.04736835
EXTRACT: note_on channel=4 note=67 velocity=0 time=0.02631575
EXTRACT: note_on channel=4 note=62 velocity=0 time=0
EXTRACT: note_on channel=4 note=59 velocity=0 time=0
EXTRACT: note_on channel=4 note=55 velocity=0 time=0
EXTRACT: note_on channel=4 note=47 velocity=0 time=0
EXTRACT: note_on channel=9 note=36 velocity=120 time=0.07894725
EXTRACT: note_on channel=9 note=42 velocity=108 time=0
EXTRACT: note_on channel=1 note=28 velocity=121 time=0
EXTRACT: note_on channel=4 note=67 velocity=71 time=0
EXTRACT: note_on channel=4 note=62 velocity=68 time=0
EXTRACT: note_on channel=4 note=59 velocity=68 time=0
EXTRACT: note_on channel=3 note=59 velocity=0 time=0.005263149999999999
EXTRACT: note_on channel=9 note=36 velocity=0 time=0.04736835
EXTRACT: note_on channel=9 note=42 velocity=0 time=0
EXTRACT: note_on channel=4 note=67 velocity=0 time=0.02631575
EXTRACT: note_on channel=4 note=62 velocity=0 time=0
EXTRACT: note_on channel=4 note=59 velocity=0 time=0
EXTRACT: note_on channel=2 note=62 velocity=105 time=0.07368409999999999
EXTRACT: note_on channel=9 note=69 velocity=73 time=0.005263149999999999
EXTRACT: note_on channel=3 note=62 velocity=107 time=0.005263149999999999
EXTRACT: note_on channel=9 note=69 velocity=0 time=0.04736835
EXTRACT: note_on channel=9 note=42 velocity=99 time=0.105263
EXTRACT: note_on channel=9 note=69 velocity=78 time=0
EXTRACT: note_on channel=1 note=28 velocity=0 time=0
EXTRACT: note_on channel=4 note=67 velocity=116 time=0
EXTRACT: note_on channel=4 note=62 velocity=90 time=0
EXTRACT: note_on channel=4 note=59 velocity=112 time=0
EXTRACT: note_on channel=4 note=55 velocity=87 time=0
EXTRACT: note_on channel=4 note=47 velocity=98 time=0
EXTRACT: note_on channel=7 note=67 velocity=101 time=0
EXTRACT: note_on channel=7 note=62 velocity=86 time=0
EXTRACT: note_on channel=7 note=59 velocity=104 time=0
EXTRACT: note_on channel=7 note=55 velocity=85 time=0
EXTRACT: note_on channel=7 note=47 velocity=106 time=0
EXTRACT: note_on channel=3 note=62 velocity=0 time=0.005263149999999999
EXTRACT: note_on channel=9 note=42 velocity=0 time=0.04736835
EXTRACT: note_on channel=9 note=69 velocity=0 time=0
EXTRACT: note_on channel=2 note=67 velocity=118 time=0.09999984999999999
EXTRACT: note_on channel=4 note=67 velocity=0 time=0.005263149999999999
EXTRACT: note_on channel=4 note=62 velocity=0 time=0
EXTRACT: note_on channel=4 note=59 velocity=0 time=0
EXTRACT: note_on channel=4 note=55 velocity=0 time=0
EXTRACT: note_on channel=4 note=47 velocity=0 time=0
EXTRACT: note_on channel=7 note=67 velocity=0 time=0
EXTRACT: note_on channel=7 note=62 velocity=0 time=0
EXTRACT: note_on channel=7 note=59 velocity=0 time=0
EXTRACT: note_on channel=7 note=55 velocity=0 time=0
EXTRACT: note_on channel=7 note=47 velocity=0 time=0
EXTRACT: note_on channel=3 note=62 velocity=112 time=0.005263149999999999
EXTRACT: note_on channel=2 note=67 velocity=116 time=0.14736819999999998
EXTRACT: note_on channel=9 note=40 velocity=127 time=0.005263149999999999
EXTRACT: note_on channel=9 note=42 velocity=101 time=0
EXTRACT: note_on channel=9 note=69 velocity=66 time=0
EXTRACT: note_on channel=5 note=91 velocity=0 time=0
EXTRACT: note_on channel=5 note=79 velocity=0 time=0
EXTRACT: note_on channel=5 note=86 velocity=117 time=0
EXTRACT: note_on channel=5 note=74 velocity=110 time=0
EXTRACT: note_on channel=9 note=40 velocity=0 time=0.0526315
EXTRACT: note_on channel=9 note=42 velocity=0 time=0
EXTRACT: note_on channel=9 note=69 velocity=0 time=0
EXTRACT: note_on channel=4 note=67 velocity=71 time=0.105263
EXTRACT: note_on channel=4 note=62 velocity=64 time=0
EXTRACT: note_on channel=4 note=59 velocity=49 time=0
EXTRACT: note_on channel=5 note=86 velocity=0 time=0
EXTRACT: note_on channel=5 note=74 velocity=0 time=0
EXTRACT: note_on channel=5 note=73 velocity=103 time=0
EXTRACT: note_on channel=5 note=85 velocity=99 time=0
EXTRACT: note_on channel=4 note=67 velocity=0 time=0.07894725
EXTRACT: note_on channel=4 note=62 velocity=0 time=0
EXTRACT: note_on channel=4 note=59 velocity=0 time=0
EXTRACT: note_on channel=2 note=62 velocity=107 time=0.07368409999999999
EXTRACT: note_on channel=9 note=42 velocity=110 time=0.005263149999999999
EXTRACT: note_on channel=1 note=28 velocity=113 time=0
EXTRACT: note_on channel=4 note=67 velocity=88 time=0
EXTRACT: note_on channel=4 note=62 velocity=67 time=0
EXTRACT: note_on channel=4 note=59 velocity=89 time=0
EXTRACT: note_on channel=4 note=55 velocity=88 time=0
EXTRACT: note_on channel=4 note=47 velocity=67 time=0
EXTRACT: note_on channel=5 note=73 velocity=0 time=0
EXTRACT: note_on channel=5 note=85 velocity=0 time=0
EXTRACT: note_on channel=5 note=71 velocity=100 time=0
EXTRACT: note_on channel=5 note=83 velocity=99 time=0
EXTRACT: note_on channel=9 note=42 velocity=0 time=0.0526315
EXTRACT: note_on channel=4 note=67 velocity=0 time=0.02631575
EXTRACT: note_on channel=4 note=62 velocity=0 time=0
EXTRACT: note_on channel=4 note=59 velocity=0 time=0
EXTRACT: note_on channel=4 note=55 velocity=0 time=0
EXTRACT: note_on channel=4 note=47 velocity=0 time=0
EXTRACT: note_on channel=1 note=28 velocity=0 time=0.07894725
EXTRACT: note_on channel=5 note=71 velocity=0 time=0
EXTRACT: note_on channel=5 note=83 velocity=0 time=0
EXTRACT: note_on channel=5 note=81 velocity=115 time=0
EXTRACT: note_on channel=5 note=69 velocity=104 time=0
EXTRACT: note_on channel=2 note=40 velocity=0 time=0.15263134999999997
EXTRACT: note_on channel=2 note=62 velocity=0 time=0
EXTRACT: note_on channel=2 note=67 velocity=0 time=0
EXTRACT: note_on channel=2 note=62 velocity=0 time=0
EXTRACT: note_on channel=2 note=59 velocity=0 time=0
EXTRACT: note_on channel=2 note=62 velocity=0 time=0
EXTRACT: note_on channel=2 note=67 velocity=0 time=0
EXTRACT: note_on channel=2 note=67 velocity=0 time=0
EXTRACT: note_on channel=2 note=62 velocity=0 time=0
EXTRACT: note_on channel=2 note=57 velocity=83 time=0
EXTRACT: note_on channel=2 note=54 velocity=123 time=0
EXTRACT: note_on channel=9 note=42 velocity=92 time=0.005263149999999999
EXTRACT: note_on channel=9 note=36 velocity=120 time=0
EXTRACT: note_on channel=1 note=30 velocity=108 time=0
EXTRACT: note_on channel=4 note=64 velocity=90 time=0
EXTRACT: note_on channel=4 note=61 velocity=95 time=0
EXTRACT: note_on channel=4 note=57 velocity=106 time=0
EXTRACT: note_on channel=4 note=54 velocity=88 time=0
EXTRACT: note_on channel=6 note=59 velocity=0 time=0
EXTRACT: note_on channel=6 note=62 velocity=0 time=0
EXTRACT: note_on channel=6 note=67 velocity=0 time=0
EXTRACT: note_on channel=6 note=57 velocity=105 time=0
EXTRACT: note_on channel=6 note=61 velocity=121 time=0
EXTRACT: note_on channel=6 note=66 velocity=113 time=0
EXTRACT: note_on channel=7 note=64 velocity=77 time=0
EXTRACT: note_on channel=7 note=61 velocity=106 time=0
EXTRACT: note_on channel=7 note=57 velocity=80 time=0
EXTRACT: note_on channel=7 note=54 velocity=85 time=0
EXTRACT: note_on channel=8 note=52 velocity=0 time=0
EXTRACT: note_on channel=8 note=64 velocity=0 time=0
EXTRACT: note_on channel=3 note=62 velocity=0 time=0.005263149999999999
EXTRACT: note_on channel=9 note=42 velocity=0 time=0.04736835
EXTRACT: note_on channel=9 note=36 velocity=0 time=0
EXTRACT: note_on channel=1 note=30 velocity=0 time=0.15263134999999997
EXTRACT: note_on channel=1 note=30 velocity=116 time=0.005263149999999999
EXTRACT: note_on channel=2 note=61 velocity=125 time=0.09999984999999999
EXTRACT: note_on channel=9 note=42 velocity=103 time=0.005263149999999999
EXTRACT: note_on channel=4 note=64 velocity=0 time=0
EXTRACT: note_on channel=4 note=61 velocity=0 time=0
EXTRACT: note_on channel=4 note=57 velocity=0 time=0
EXTRACT: note_on channel=4 note=54 velocity=0 time=0
EXTRACT: note_on channel=7 note=64 velocity=0 time=0
EXTRACT: note_on channel=7 note=61 velocity=0 time=0
EXTRACT: note_on channel=7 note=57 velocity=0 time=0
EXTRACT: note_on channel=7 note=54 velocity=0 time=0
EXTRACT: note_on channel=3 note=61 velocity=125 time=0.005263149999999999
EXTRACT: note_on channel=9 note=42 velocity=0 time=0.04736835
EXTRACT: note_on channel=1 note=30 velocity=0 time=0.04736835
EXTRACT: note_on channel=1 note=30 velocity=113 time=0.005263149999999999
EXTRACT: note_on channel=2 note=64 velocity=119 time=0.04736835
EXTRACT: note_on channel=4 note=64 velocity=116 time=0.005263149999999999
EXTRACT: note_on channel=4 note=61 velocity=89 time=0
EXTRACT: note_on channel=4 note=57 velocity=114 time=0
EXTRACT: note_on channel=4 note=54 velocity=98 time=0
EXTRACT: note_on channel=7 note=64 velocity=88 time=0
EXTRACT: note_on channel=7 note=61 velocity=89 time=0
EXTRACT: note_on channel=7 note=57 velocity=90 time=0
EXTRACT: note_on channel=7 note=54 velocity=98 time=0
EXTRACT: note_on channel=1 note=30 velocity=0 time=0.15263134999999997
EXTRACT: note_on channel=9 note=42 velocity=97 time=0.005263149999999999
EXTRACT: note_on channel=9 note=40 velocity=127 time=0
EXTRACT: note_on channel=9 note=69 velocity=62 time=0
EXTRACT: note_on channel=1 note=37 velocity=116 time=0
EXTRACT: note_on channel=4 note=64 velocity=0 time=0
EXTRACT: note_on channel=4 note=61 velocity=0 time=0
EXTRACT: note_on channel=4 note=57 velocity=0 time=0
EXTRACT: note_on channel=4 note=54 velocity=0 time=0
EXTRACT: note_on channel=7 note=64 velocity=0 time=0
EXTRACT: note_on channel=7 note=61 velocity=0 time=0
EXTRACT: note_on channel=7 note=57 velocity=0 time=0
EXTRACT: note_on channel=7 note=54 velocity=0 time=0
EXTRACT: note_on channel=3 note=61 velocity=0 time=0.005263149999999999
EXTRACT: note_on channel=9 note=42 velocity=0 time=0.04736835
EXTRACT: note_on channel=9 note=40 velocity=0 time=0
EXTRACT: note_on channel=9 note=69 velocity=0 time=0
EXTRACT: note_on channel=2 note=61 velocity=110 time=0.09999984999999999
EXTRACT: note_on channel=9 note=69 velocity=70 time=0.005263149999999999
EXTRACT: note_on channel=4 note=64 velocity=57 time=0
EXTRACT: note_on channel=4 note=61 velocity=62 time=0
EXTRACT: note_on channel=4 note=57 velocity=71 time=0
EXTRACT: note_on channel=4 note=54 velocity=71 time=0
EXTRACT: note_on channel=3 note=61 velocity=104 time=0.005263149999999999
EXTRACT: note_on channel=9 note=69 velocity=0 time=0.04736835
EXTRACT: note_on channel=1 note=37 velocity=0 time=0.02631575
EXTRACT: note_on channel=4 note=64 velocity=0 time=0
EXTRACT: note_on channel=4 note=61 velocity=0 time=0
EXTRACT: note_on channel=4 note=57 velocity=0 time=0
EXTRACT: note_on channel=4 note=54 velocity=0 time=0
EXTRACT: note_on channel=9 note=42 velocity=92 time=0.07894725
EXTRACT: note_on channel=1 note=42 velocity=113 time=0
EXTRACT: note_on channel=4 note=64 velocity=71 time=0
EXTRACT: note_on channel=4 note=61 velocity=46 time=0
EXTRACT: note_on channel=4 note=57 velocity=46 time=0
EXTRACT: note_on channel=9 note=42 velocity=0 time=0.0526315
EXTRACT: note_on channel=4 note=64 velocity=0 time=0.02631575
EXTRACT: note_on channel=4 note=61 velocity=0 time=0
EXTRACT: note_on channel=4 note=57 velocity=0 time=0
EXTRACT: note_on channel=2 note=57 velocity=103 time=0.07368409999999999
EXTRACT: note_on channel=9 note=69 velocity=62 time=0.005263149999999999
EXTRACT: note_on channel=4 note=64 velocity=80 time=0
EXTRACT: note_on channel=4 note=61 velocity=68 time=0
EXTRACT: note_on channel=4 note=57 velocity=76 time=0
EXTRACT: note_on channel=4 note=54 velocity=85 time=0
EXTRACT: note_on channel=5 note=81 velocity=0 time=0
EXTRACT: note_on channel=5 note=69 velocity=0 time=0
EXTRACT: note_on channel=3 note=61 velocity=0 time=0.005263149999999999
EXTRACT: note_on channel=9 note=69 velocity=0 time=0.04736835
EXTRACT: note_on channel=1 note=42 velocity=0 time=0.02631575
EXTRACT: note_on channel=4 note=64 velocity=0 time=0
EXTRACT: note_on channel=4 note=61 velocity=0 time=0
EXTRACT: note_on channel=4 note=57 velocity=0 time=0
EXTRACT: note_on channel=4 note=54 velocity=0 time=0
EXTRACT: note_on channel=2 note=61 velocity=102 time=0.07368409999999999
EXTRACT: note_on channel=9 note=36 velocity=120 time=0.005263149999999999
EXTRACT: note_on channel=9 note=42 velocity=94 time=0
EXTRACT: note_on channel=1 note=37 velocity=111 time=0
EXTRACT: note_on channel=4 note=64 velocity=43 time=0
EXTRACT: note_on channel=4 note=61 velocity=42 time=0
EXTRACT: note_on channel=4 note=57 velocity=70 time=0
EXTRACT: note_on channel=5 note=78 velocity=102 time=0
EXTRACT: note_on channel=5 note=90 velocity=101 time=0
EXTRACT: note_on channel=3 note=61 velocity=116 time=0.005263149999999999
EXTRACT: note_on channel=9 note=36 velocity=0 time=0.04736835
EXTRACT: note_on channel=9 note=42 velocity=0 time=0
EXTRACT: note_on channel=4 note=64 velocity=0 time=0.02631575
EXTRACT: note_on channel=4 note=61 velocity=0 time=0
EXTRACT: note_on channel=4 note=57 velocity=0 time=0
EXTRACT: note_on channel=2 note=64 velocity=108 time=0.07368409999999999
EXTRACT: note_on channel=9 note=69 velocity=73 time=0.005263149999999999
EXTRACT: note_on channel=5 note=78 velocity=0 time=0
EXTRACT: note_on channel=5 note=90 velocity=0 time=0
EXTRACT: note_on channel=9 note=69 velocity=0 time=0.0526315
EXTRACT: note_on channel=2 note=66 velocity=116 time=0.09999984999999999
EXTRACT: note_on channel=9 note=36 velocity=120 time=0.005263149999999999
EXTRACT: note_on channel=9 note=42 velocity=104 time=0
EXTRACT: note_on channel=9 note=69 velocity=78 time=0
EXTRACT: note_on channel=4 note=64 velocity=87 time=0
EXTRACT: note_on channel=4 note=61 velocity=105 time=0
EXTRACT: note_on channel=4 note=57 velocity=100 time=0
EXTRACT: note_on channel=4 note=54 velocity=112 time=0
EXTRACT: note_on channel=7 note=64 velocity=83 time=0
EXTRACT: note_on channel=7 note=61 velocity=82 time=0
EXTRACT: note_on channel=7 note=57 velocity=91 time=0
EXTRACT: note_on channel=7 note=54 velocity=111 time=0
EXTRACT: note_on channel=9 note=36 velocity=0 time=0.0526315
EXTRACT: note_on channel=9 note=42 velocity=0 time=0
EXTRACT: note_on channel=9 note=69 velocity=0 time=0
EXTRACT: note_on channel=1 note=37 velocity=0 time=0.04736835
EXTRACT: note_on channel=1 note=42 velocity=120 time=0.005263149999999999
EXTRACT: note_on channel=2 note=69 velocity=122 time=0.04736835
EXTRACT: note_on channel=4 note=64 velocity=0 time=0.005263149999999999
EXTRACT: note_on channel=4 note=61 velocity=0 time=0
EXTRACT: note_on channel=4 note=57 velocity=0 time=0
EXTRACT: note_on channel=4 note=54 velocity=0 time=0
EXTRACT: note_on channel=5 note=76 velocity=106 time=0
EXTRACT: note_on channel=5 note=88 velocity=104 time=0
EXTRACT: note_on channel=7 note=64 velocity=0 time=0
EXTRACT: note_on channel=7 note=61 velocity=0 time=0
EXTRACT: note_on channel=7 note=57 velocity=0 time=0
EXTRACT: note_on channel=7 note=54 velocity=0 time=0
EXTRACT: note_on channel=9 note=40 velocity=127 time=0.1578945
EXTRACT: note_on channel=9 note=42 velocity=96 time=0
EXTRACT: note_on channel=9 note=69 velocity=66 time=0
EXTRACT: note_on channel=5 note=76 velocity=0 time=0
EXTRACT: note_on channel=5 note=88 velocity=0 time=0
EXTRACT: note_on channel=8 note=50 velocity=95 time=0
EXTRACT: note_on channel=8 note=62 velocity=124 time=0
EXTRACT: note_on channel=9 note=40 velocity=0 time=0.0526315
EXTRACT: note_on channel=9 note=42 velocity=0 time=0
EXTRACT: note_on channel=9 note=69 velocity=0 time=0
EXTRACT: note_on channel=4 note=64 velocity=40 time=0.105263
EXTRACT: note_on channel=4 note=61 velocity=49 time=0
EXTRACT: note_on channel=4 note=57 velocity=56 time=0
EXTRACT: note_on channel=8 note=50 velocity=0 time=0
EXTRACT: note_on channel=8 note=62 velocity=0 time=0
EXTRACT: note_on channel=1 note=42 velocity=0 time=0.04736835
EXTRACT: note_on channel=1 note=49 velocity=112 time=0.005263149999999999
EXTRACT: note_on channel=4 note=64 velocity=0 time=0.02631575
EXTRACT: note_on channel=4 note=61 velocity=0 time=0
EXTRACT: note_on channel=4 note=57 velocity=0 time=0
EXTRACT: note_on channel=9 note=36 velocity=90 time=0.07894725
EXTRACT: note_on channel=9 note=42 velocity=99 time=0
EXTRACT: note_on channel=4 note=64 velocity=76 time=0
EXTRACT: note_on channel=4 note=61 velocity=52 time=0
EXTRACT: note_on channel=4 note=57 velocity=54 time=0
EXTRACT: note_on channel=4 note=54 velocity=59 time=0
EXTRACT: note_on channel=5 note=86 velocity=111 time=0
EXTRACT: note_on channel=5 note=74 velocity=112 time=0
EXTRACT: note_on channel=8 note=54 velocity=85 time=0
EXTRACT: note_on channel=8 note=66 velocity=119 time=0
EXTRACT: note_on channel=3 note=61 velocity=87 time=0.005263149999999999
EXTRACT: note_on channel=9 note=36 velocity=0 time=0.04736835
EXTRACT: note_on channel=9 note=42 velocity=0 time=0
EXTRACT: note_on channel=4 note=64 velocity=0 time=0.02631575
EXTRACT: note_on channel=4 note=61 velocity=0 time=0
EXTRACT: note_on channel=4 note=57 velocity=0 time=0
EXTRACT: note_on channel=4 note=54 velocity=0 time=0
EXTRACT: note_on channel=9 note=40 velocity=127 time=0.07894725
EXTRACT: note_on channel=5 note=86 velocity=0 time=0
EXTRACT: note_on channel=5 note=74 velocity=0 time=0
EXTRACT: note_on channel=9 note=40 velocity=0 time=0.0526315
EXTRACT: note_on channel=1 note=49 velocity=0 time=0.09999984999999999
EXTRACT: note_on channel=2 note=57 velocity=0 time=0
EXTRACT: note_on channel=2 note=54 velocity=0 time=0
EXTRACT: note_on channel=2 note=61 velocity=0 time=0
EXTRACT: note_on channel=2 note=64 velocity=0 time=0
EXTRACT: note_on channel=2 note=61 velocity=0 time=0
EXTRACT: note_on channel=2 note=57 velocity=0 time=0
EXTRACT: note_on channel=2 note=61 velocity=0 time=0
EXTRACT: note_on channel=2 note=64 velocity=0 time=0
EXTRACT: note_on channel=2 note=66 velocity=0 time=0
EXTRACT: note_on channel=2 note=69 velocity=0 time=0
EXTRACT: note_on channel=2 note=47 velocity=108 time=0
EXTRACT: note_on channel=9 note=57 velocity=90 time=0.005263149999999999
EXTRACT: note_on channel=9 note=36 velocity=120 time=0
EXTRACT: note_on channel=1 note=35 velocity=123 time=0
EXTRACT: note_on channel=4 note=66 velocity=87 time=0
EXTRACT: note_on channel=4 note=62 velocity=95 time=0
EXTRACT: note_on channel=4 note=59 velocity=112 time=0
EXTRACT: note_on channel=4 note=54 velocity=112 time=0
EXTRACT: note_on channel=4 note=47 velocity=100 time=0
EXTRACT: note_on channel=5 note=90 velocity=99 time=0
EXTRACT: note_on channel=5 note=78 velocity=103 time=0
EXTRACT: note_on channel=6 note=57 velocity=0 time=0
EXTRACT: note_on channel=6 note=61 velocity=0 time=0
EXTRACT: note_on channel=6 note=66 velocity=0 time=0
EXTRACT: control_change channel=6 control=11 value=40 time=0
EXTRACT: note_on channel=6 note=59 velocity=122 time=0
EXTRACT: note_on channel=6 note=62 velocity=113 time=0
EXTRACT: note_on channel=6 note=66 velocity=125 time=0
EXTRACT: note_on channel=7 note=66 velocity=82 time=0
EXTRACT: note_on channel=7 note=62 velocity=96 time=0
EXTRACT: note_on channel=7 note=59 velocity=105 time=0
EXTRACT: note_on channel=7 note=54 velocity=97 time=0
EXTRACT: note_on channel=7 note=47 velocity=91 time=0
EXTRACT: note_on channel=3 note=61 velocity=0 time=0.005263149999999999
EXTRACT: note_on channel=3 note=61 velocity=0 time=0
EXTRACT: control_change channel=6 control=11 value=41 time=0.02631575
EXTRACT: note_on channel=9 note=57 velocity=0 time=0.021052599999999998
EXTRACT: note_on channel=9 note=36 velocity=0 time=0
EXTRACT: control_change channel=6 control=11 value=42 time=0.010526299999999999
EXTRACT: control_change channel=6 control=11 value=43 time=0.03157889999999999
EXTRACT: control_change channel=6 control=11 value=44 time=0.03157889999999999
EXTRACT: note_on channel=1 note=35 velocity=0 time=0.02631575
EXTRACT: note_on channel=1 note=35 velocity=125 time=0.005263149999999999
EXTRACT: control_change channel=6 control=11 value=45 time=0
EXTRACT: control_change channel=6 control=11 value=46 time=0.03157889999999999
EXTRACT: control_change channel=6 control=11 value=47 time=0.03157889999999999
EXTRACT: control_change channel=6 control=11 value=48 time=0.03157889999999999
EXTRACT: control_change channel=6 control=11 value=49 time=0.03157889999999999
EXTRACT: note_on channel=2 note=62 velocity=124 time=0.02631575
EXTRACT: note_on channel=9 note=42 velocity=110 time=0.005263149999999999
EXTRACT: note_on channel=1 note=35 velocity=0 time=0
EXTRACT: note_on channel=4 note=66 velocity=0 time=0
EXTRACT: note_on channel=4 note=62 velocity=0 time=0
EXTRACT: note_on channel=4 note=59 velocity=0 time=0
EXTRACT: note_on channel=4 note=54 velocity=0 time=0
EXTRACT: note_on channel=4 note=47 velocity=0 time=0
EXTRACT: control_change channel=6 control=11 value=50 time=0
EXTRACT: note_on channel=7 note=66 velocity=0 time=0
EXTRACT: note_on channel=7 note=62 velocity=0 time=0
EXTRACT: note_on channel=7 note=59 velocity=0 time=0
EXTRACT: note_on channel=7 note=54 velocity=0 time=0
EXTRACT: note_on channel=7 note=47 velocity=0 time=0
EXTRACT: note_on channel=8 note=54 velocity=0 time=0
EXTRACT: note_on channel=8 note=66 velocity=0 time=0
EXTRACT: note_on channel=8 note=57 velocity=84 time=0
EXTRACT: note_on channel=8 note=69 velocity=122 time=0
EXTRACT: note_on channel=3 note=62 velocity=119 time=0.005263149999999999
EXTRACT: control_change channel=6 control=11 value=51 time=0.02631575
EXTRACT: note_on channel=9 note=42 velocity=0 time=0.021052599999999998
EXTRACT: control_change channel=6 control=11 value=52 time=0.010526299999999999
EXTRACT: control_change channel=6 control=11 value=53 time=0.03157889999999999
EXTRACT: control_change channel=6 control=11 value=54 time=0.03157889999999999
EXTRACT: note_on channel=2 note=66 velocity=125 time=0.02631575
EXTRACT: note_on channel=1 note=42 velocity=112 time=0.005263149999999999
EXTRACT: note_on channel=4 note=66 velocity=117 time=0
EXTRACT: note_on channel=4 note=62 velocity=103 time=0
EXTRACT: note_on channel=4 note=59 velocity=117 time=0
EXTRACT: note_on channel=4 note=54 velocity=107 time=0
EXTRACT: note_on channel=4 note=47 velocity=97 time=0
EXTRACT: control_change channel=6 control=11 value=55 time=0
EXTRACT: note_on channel=7 note=66 velocity=82 time=0
EXTRACT: note_on channel=7 note=62 velocity=82 time=0
EXTRACT: note_on channel=7 note=59 velocity=108 time=0
EXTRACT: note_on channel=7 note=54 velocity=74 time=0
EXTRACT: note_on channel=7 note=47 velocity=112 time=0
EXTRACT: note_on channel=8 note=57 velocity=0 time=0
EXTRACT: note_on channel=8 note=69 velocity=0 time=0
EXTRACT: control_change channel=6 control=11 value=56 time=0.03157889999999999
EXTRACT: control_change channel=6 control=11 value=57 time=0.03157889999999999
EXTRACT: control_change channel=6 control=11 value=58 time=0.03157889999999999
EXTRACT: control_change channel=6 control=11 value=59 time=0.03157889999999999
EXTRACT: note_on channel=9 note=42 velocity=102 time=0.03157889999999999
EXTRACT: note_on channel=9 note=40 velocity=127 time=0
EXTRACT: note_on channel=9 note=69 velocity=62 time=0
EXTRACT: note_on channel=1 note=42 velocity=0 time=0
EXTRACT: note_on channel=4 note=66 velocity=0 time=0
EXTRACT: note_on channel=4 note=62 velocity=0 time=0
EXTRACT: note_on channel=4 note=59 velocity=0 time=0
EXTRACT: note_on channel=4 note=54 velocity=0 time=0
EXTRACT: note_on channel=4 note=47 velocity=0 time=0
EXTRACT: control_change channel=6 control=11 value=60 time=0
EXTRACT: note_on channel=7 note=66 velocity=0 time=0
EXTRACT: note_on channel=7 note=62 velocity=0 time=0
EXTRACT: note_on channel=7 note=59 velocity=0 time=0
EXTRACT: note_on channel=7 note=54 velocity=0 time=0
EXTRACT: note_on channel=7 note=47 velocity=0 time=0
EXTRACT: note_on channel=8 note=55 velocity=94 time=0
EXTRACT: note_on channel=8 note=67 velocity=122 time=0
EXTRACT: note_on channel=3 note=62 velocity=0 time=0.005263149999999999
EXTRACT: control_change channel=6 control=11 value=61 time=0.02631575
EXTRACT: note_on channel=9 note=42 velocity=0 time=0.021052599999999998
EXTRACT: note_on channel=9 note=40 velocity=0 time=0
EXTRACT: note_on channel=9 note=69 velocity=0 time=0
EXTRACT: control_change channel=6 control=11 value=62 time=0.010526299999999999
EXTRACT: control_change channel=6 control=11 value=63 time=0.03157889999999999
EXTRACT: control_change channel=6 control=11 value=64 time=0.03157889999999999
EXTRACT: note_on channel=2 note=62 velocity=126 time=0.02631575
EXTRACT: note_on channel=9 note=69 velocity=70 time=0.005263149999999999
EXTRACT: note_on channel=1 note=42 velocity=121 time=0
EXTRACT: note_on channel=4 note=66 velocity=64 time=0
EXTRACT: note_on channel=4 note=62 velocity=81 time=0
EXTRACT: note_on channel=4 note=59 velocity=70 time=0
EXTRACT: note_on channel=4 note=54 velocity=56 time=0
EXTRACT: note_on channel=4 note=47 velocity=81 time=0
EXTRACT: control_change channel=6 control=11 value=65 time=0
EXTRACT: note_on channel=8 note=55 velocity=0 time=0
EXTRACT: note_on channel=8 note=67 velocity=0 time=0
EXTRACT: note_on channel=3 note=62 velocity=126 time=0.005263149999999999
EXTRACT: control_change channel=6 control=11 value=66 time=0.02631575
EXTRACT: note_on channel=9 note=69 velocity=0 time=0.021052599999999998
EXTRACT: control_change channel=6 control=11 value=67 time=0.010526299999999999
EXTRACT: note_on channel=4 note=66 velocity=0 time=0.015789449999999997
EXTRACT: note_on channel=4 note=62 velocity=0 time=0
EXTRACT: note_on channel=4 note=59 velocity=0 time=0
EXTRACT: note_on channel=4 note=54 velocity=0 time=0
EXTRACT: note_on channel=4 note=47 velocity=0 time=0
EXTRACT: control_change channel=6 control=11 value=68 time=0.015789449999999997
EXTRACT: control_change channel=6 control=11 value=69 time=0.03157889999999999
EXTRACT: note_on channel=1 note=42 velocity=0 time=0.02631575
EXTRACT: note_on channel=9 note=42 velocity=92 time=0.005263149999999999
EXTRACT: note_on channel=1 note=38 velocity=126 time=0
EXTRACT: note_on channel=4 note=66 velocity=57 time=0
EXTRACT: note_on channel=4 note=62 velocity=53 time=0
EXTRACT: note_on channel=4 note=59 velocity=55 time=0
EXTRACT: control_change channel=6 control=11 value=70 time=0
EXTRACT: note_on channel=8 note=54 velocity=98 time=0
EXTRACT: note_on channel=8 note=66 velocity=125 time=0
EXTRACT: note_on channel=3 note=62 velocity=0 time=0.005263149999999999
EXTRACT: note_on channel=3 note=61 velocity=105 time=0
EXTRACT: control_change channel=6 control=11 value=71 time=0.02631575
EXTRACT: note_on channel=9 note=42 velocity=0 time=0.021052599999999998
EXTRACT: control_change channel=6 control=11 value=72 time=0.010526299999999999
EXTRACT: note_on channel=4 note=66 velocity=0 time=0.015789449999999997
EXTRACT: note_on channel=4 note=62 velocity=0 time=0
EXTRACT: note_on channel=4 note=59 velocity=0 time=0
EXTRACT: control_change channel=6 control=11 value=73 time=0.015789449999999997
EXTRACT: control_change channel=6 control=11 value=74 time=0.03157889999999999
EXTRACT: note_on channel=2 note=59 velocity=107 time=0.02631575
EXTRACT: note_on channel=9 note=69 velocity=62 time=0.005263149999999999
EXTRACT: note_on channel=1 note=38 velocity=0 time=0
EXTRACT: note_on channel=4 note=66 velocity=72 time=0
EXTRACT: note_on channel=4 note=62 velocity=83 time=0
EXTRACT: note_on channel=4 note=59 velocity=87 time=0
EXTRACT: note_on channel=4 note=54 velocity=72 time=0
EXTRACT: note_on channel=4 note=47 velocity=72 time=0
EXTRACT: control_change channel=6 control=11 value=75 time=0
EXTRACT: note_on channel=8 note=54 velocity=0 time=0
EXTRACT: note_on channel=8 note=66 velocity=0 time=0
EXTRACT: note_on channel=3 note=61 velocity=0 time=0.005263149999999999
EXTRACT: note_on channel=3 note=59 velocity=119 time=0
EXTRACT: control_change channel=6 control=11 value=76 time=0.02631575
EXTRACT: note_on channel=9 note=69 velocity=0 time=0.021052599999999998
EXTRACT: control_change channel=6 control=11 value=77 time=0.010526299999999999
EXTRACT: note_on channel=4 note=66 velocity=0 time=0.015789449999999997
EXTRACT: note_on channel=4 note=62 velocity=0 time=0
EXTRACT: note_on channel=4 note=59 velocity=0 time=0
EXTRACT: note_on channel=4 note=54 velocity=0 time=0
EXTRACT: note_on channel=4 note=47 velocity=0 time=0
EXTRACT: control_change channel=6 control=11 value=78 time=0.015789449999999997
EXTRACT: control_change channel=6 control=11 value=79 time=0.03157889999999999
EXTRACT: note_on channel=9 note=36 velocity=120 time=0.03157889999999999
EXTRACT: note_on channel=9 note=42 velocity=110 time=0
EXTRACT: note_on channel=1 note=35 velocity=114 time=0
EXTRACT: note_on channel=4 note=66 velocity=59 time=0
EXTRACT: note_on channel=4 note=62 velocity=43 time=0
EXTRACT: note_on channel=4 note=59 velocity=65 time=0
EXTRACT: control_change channel=6 control=11 value=80 time=0
EXTRACT: note_on channel=8 note=52 velocity=96 time=0
EXTRACT: note_on channel=8 note=64 velocity=121 time=0
EXTRACT: note_on channel=3 note=59 velocity=0 time=0.005263149999999999
EXTRACT: note_on channel=9 note=36 velocity=0 time=0.04736835
EXTRACT: note_on channel=9 note=42 velocity=0 time=0
EXTRACT: note_on channel=4 note=66 velocity=0 time=0.02631575
EXTRACT: note_on channel=4 note=62 velocity=0 time=0
EXTRACT: note_on channel=4 note=59 velocity=0 time=0
EXTRACT: note_on channel=2 note=62 velocity=116 time=0.07368409999999999
EXTRACT: note_on channel=9 note=69 velocity=73 time=0.005263149999999999
EXTRACT: note_on channel=3 note=62 velocity=118 time=0.005263149999999999
EXTRACT: note_on channel=9 note=69 velocity=0 time=0.04736835
EXTRACT: note_on channel=9 note=42 velocity=104 time=0.105263
EXTRACT: note_on channel=9 note=69 velocity=78 time=0
EXTRACT: note_on channel=1 note=35 velocity=0 time=0
EXTRACT: note_on channel=4 note=66 velocity=111 time=0
EXTRACT: note_on channel=4 note=62 velocity=101 time=0
EXTRACT: note_on channel=4 note=59 velocity=89 time=0
EXTRACT: note_on channel=4 note=54 velocity=109 time=0
EXTRACT: note_on channel=4 note=47 velocity=114 time=0
EXTRACT: note_on channel=7 note=66 velocity=106 time=0
EXTRACT: note_on channel=7 note=62 velocity=98 time=0
EXTRACT: note_on channel=7 note=59 velocity=111 time=0
EXTRACT: note_on channel=7 note=54 velocity=92 time=0
EXTRACT: note_on channel=7 note=47 velocity=112 time=0
EXTRACT: note_on channel=8 note=52 velocity=0 time=0
EXTRACT: note_on channel=8 note=64 velocity=0 time=0
EXTRACT: note_on channel=8 note=50 velocity=89 time=0
EXTRACT: note_on channel=8 note=62 velocity=125 time=0
EXTRACT: note_on channel=3 note=62 velocity=0 time=0.005263149999999999
EXTRACT: note_on channel=9 note=42 velocity=0 time=0.04736835
EXTRACT: note_on channel=9 note=69 velocity=0 time=0
EXTRACT: note_on channel=2 note=66 velocity=119 time=0.09999984999999999
EXTRACT: note_on channel=4 note=66 velocity=0 time=0.005263149999999999
EXTRACT: note_on channel=4 note=62 velocity=0 time=0
EXTRACT: note_on channel=4 note=59 velocity=0 time=0
EXTRACT: note_on channel=4 note=54 velocity=0 time=0
EXTRACT: note_on channel=4 note=47 velocity=0 time=0
EXTRACT: note_on channel=7 note=66 velocity=0 time=0
EXTRACT: note_on channel=7 note=62 velocity=0 time=0
EXTRACT: note_on channel=7 note=59 velocity=0 time=0
EXTRACT: note_on channel=7 note=54 velocity=0 time=0
EXTRACT: note_on channel=7 note=47 velocity=0 time=0
EXTRACT: note_on channel=8 note=50 velocity=0 time=0
EXTRACT: note_on channel=8 note=62 velocity=0 time=0
EXTRACT: note_on channel=3 note=62 velocity=109 time=0.005263149999999999
EXTRACT: note_on channel=2 note=66 velocity=117 time=0.14736819999999998
EXTRACT: note_on channel=9 note=40 velocity=127 time=0.005263149999999999
EXTRACT: note_on channel=9 note=42 velocity=98 time=0
EXTRACT: note_on channel=9 note=69 velocity=66 time=0
EXTRACT: note_on channel=8 note=52 velocity=88 time=0
EXTRACT: note_on channel=8 note=64 velocity=118 time=0
EXTRACT: note_on channel=9 note=40 velocity=0 time=0.0526315
EXTRACT: note_on channel=9 note=42 velocity=0 time=0
EXTRACT: note_on channel=9 note=69 velocity=0 time=0
EXTRACT: note_on channel=4 note=66 velocity=55 time=0.105263
EXTRACT: note_on channel=4 note=62 velocity=70 time=0
EXTRACT: note_on channel=4 note=59 velocity=69 time=0
EXTRACT: note_on channel=8 note=52 velocity=0 time=0
EXTRACT: note_on channel=8 note=64 velocity=0 time=0
EXTRACT: note_on channel=4 note=66 velocity=0 time=0.07894725
EXTRACT: note_on channel=4 note=62 velocity=0 time=0
EXTRACT: note_on channel=4 note=59 velocity=0 time=0
EXTRACT: note_on channel=2 note=62 velocity=119 time=0.07368409999999999
EXTRACT: note_on channel=9 note=42 velocity=106 time=0.005263149999999999
EXTRACT: note_on channel=1 note=30 velocity=113 time=0
EXTRACT: note_on channel=4 note=66 velocity=71 time=0
EXTRACT: note_on channel=4 note=62 velocity=75 time=0
EXTRACT: note_on channel=4 note=59 velocity=71 time=0
EXTRACT: note_on channel=4 note=54 velocity=88 time=0
EXTRACT: note_on channel=4 note=47 velocity=52 time=0
EXTRACT: note_on channel=8 note=54 velocity=96 time=0
EXTRACT: note_on channel=8 note=66 velocity=120 time=0
EXTRACT: note_on channel=9 note=42 velocity=0 time=0.0526315
EXTRACT: note_on channel=4 note=66 velocity=0 time=0.02631575
EXTRACT: note_on channel=4 note=62 velocity=0 time=0
EXTRACT: note_on channel=4 note=59 velocity=0 time=0
EXTRACT: note_on channel=4 note=54 velocity=0 time=0
EXTRACT: note_on channel=4 note=47 velocity=0 time=0
EXTRACT: note_on channel=1 note=30 velocity=0 time=0.07894725
EXTRACT: note_on channel=2 note=47 velocity=0 time=0.15263134999999997
EXTRACT: note_on channel=2 note=62 velocity=0 time=0
EXTRACT: note_on channel=2 note=66 velocity=0 time=0
EXTRACT: note_on channel=2 note=62 velocity=0 time=0
EXTRACT: note_on channel=2 note=59 velocity=0 time=0
EXTRACT: note_on channel=2 note=62 velocity=0 time=0
EXTRACT: note_on channel=2 note=66 velocity=0 time=0
EXTRACT: note_on channel=2 note=66 velocity=0 time=0
EXTRACT: note_on channel=2 note=47 velocity=117 time=0
EXTRACT: note_on channel=9 note=42 velocity=107 time=0.005263149999999999
EXTRACT: note_on channel=9 note=36 velocity=120 time=0
EXTRACT: note_on channel=1 note=35 velocity=125 time=0
EXTRACT: note_on channel=4 note=66 velocity=93 time=0
EXTRACT: note_on channel=4 note=62 velocity=94 time=0
EXTRACT: note_on channel=4 note=59 velocity=86 time=0
EXTRACT: note_on channel=4 note=54 velocity=107 time=0
EXTRACT: note_on channel=4 note=47 velocity=86 time=0
EXTRACT: note_on channel=7 note=66 velocity=95 time=0
EXTRACT: note_on channel=7 note=62 velocity=82 time=0
EXTRACT: note_on channel=7 note=59 velocity=79 time=0
EXTRACT: note_on channel=7 note=54 velocity=83 time=0
EXTRACT: note_on channel=7 note=47 velocity=85 time=0
EXTRACT: note_on channel=3 note=62 velocity=0 time=0.005263149999999999
EXTRACT: note_on channel=9 note=42 velocity=0 time=0.04736835
EXTRACT: note_on channel=9 note=36 velocity=0 time=0
EXTRACT: note_on channel=1 note=35 velocity=0 time=0.18421025
EXTRACT: note_on channel=2 note=62 velocity=0 time=0.07368409999999999
EXTRACT: note_on channel=2 note=62 velocity=113 time=0
EXTRACT: note_on channel=9 note=42 velocity=104 time=0.005263149999999999
EXTRACT: note_on channel=4 note=66 velocity=0 time=0
EXTRACT: note_on channel=4 note=62 velocity=0 time=0
EXTRACT: note_on channel=4 note=59 velocity=0 time=0
EXTRACT: note_on channel=4 note=54 velocity=0 time=0
EXTRACT: note_on channel=4 note=47 velocity=0 time=0
EXTRACT: note_on channel=7 note=66 velocity=0 time=0
EXTRACT: note_on channel=7 note=62 velocity=0 time=0
EXTRACT: note_on channel=7 note=59 velocity=0 time=0
EXTRACT: note_on channel=7 note=54 velocity=0 time=0
EXTRACT: note_on channel=7 note=47 velocity=0 time=0
EXTRACT: note_on channel=8 note=54 velocity=0 time=0
EXTRACT: note_on channel=8 note=66 velocity=0 time=0
EXTRACT: note_on channel=8 note=57 velocity=89 time=0
EXTRACT: note_on channel=8 note=69 velocity=116 time=0
EXTRACT: note_on channel=3 note=62 velocity=125 time=0.005263149999999999
EXTRACT: note_on channel=9 note=42 velocity=0 time=0.04736835
EXTRACT: note_on channel=2 note=66 velocity=105 time=0.09999984999999999
EXTRACT: note_on channel=1 note=35 velocity=113 time=0.005263149999999999
EXTRACT: note_on channel=4 note=66 velocity=87 time=0
EXTRACT: note_on channel=4 note=62 velocity=90 time=0
EXTRACT: note_on channel=4 note=59 velocity=92 time=0
EXTRACT: note_on channel=4 note=54 velocity=87 time=0
EXTRACT: note_on channel=4 note=47 velocity=91 time=0
EXTRACT: note_on channel=7 note=66 velocity=74 time=0
EXTRACT: note_on channel=7 note=62 velocity=112 time=0
EXTRACT: note_on channel=7 note=59 velocity=85 time=0
EXTRACT: note_on channel=7 note=54 velocity=88 time=0
EXTRACT: note_on channel=7 note=47 velocity=84 time=0
EXTRACT: note_on channel=8 note=57 velocity=0 time=0
EXTRACT: note_on channel=8 note=69 velocity=0 time=0
EXTRACT: note_on channel=9 note=42 velocity=110 time=0.1578945
EXTRACT: note_on channel=9 note=40 velocity=127 time=0
EXTRACT: note_on channel=9 note=69 velocity=62 time=0
EXTRACT: note_on channel=1 note=35 velocity=0 time=0
EXTRACT: note_on channel=4 note=66 velocity=0 time=0
EXTRACT: note_on channel=4 note=62 velocity=0 time=0
EXTRACT: note_on channel=4 note=59 velocity=0 time=0
EXTRACT: note_on channel=4 note=54 velocity=0 time=0
EXTRACT: note_on channel=4 note=47 velocity=0 time=0
EXTRACT: note_on channel=7 note=66 velocity=0 time=0
EXTRACT: note_on channel=7 note=62 velocity=0 time=0
EXTRACT: note_on channel=7 note=59 velocity=0 time=0
EXTRACT: note_on channel=7 note=54 velocity=0 time=0
EXTRACT: note_on channel=7 note=47 velocity=0 time=0
EXTRACT: note_on channel=8 note=55 velocity=94 time=0
EXTRACT: note_on channel=8 note=67 velocity=120 time=0
EXTRACT: note_on channel=3 note=62 velocity=0 time=0.005263149999999999
EXTRACT: note_on channel=9 note=42 velocity=0 time=0.04736835
EXTRACT: note_on channel=9 note=40 velocity=0 time=0
EXTRACT: note_on channel=9 note=69 velocity=0 time=0
EXTRACT: note_on channel=2 note=62 velocity=120 time=0.09999984999999999
EXTRACT: note_on channel=9 note=69 velocity=70 time=0.005263149999999999
EXTRACT: note_on channel=4 note=66 velocity=53 time=0
EXTRACT: note_on channel=4 note=62 velocity=70 time=0
EXTRACT: note_on channel=4 note=59 velocity=81 time=0
EXTRACT: note_on channel=4 note=54 velocity=75 time=0
EXTRACT: note_on channel=4 note=47 velocity=60 time=0
EXTRACT: note_on channel=8 note=55 velocity=0 time=0
EXTRACT: note_on channel=8 note=67 velocity=0 time=0
EXTRACT: note_on channel=3 note=62 velocity=117 time=0.005263149999999999
EXTRACT: note_on channel=9 note=69 velocity=0 time=0.04736835
EXTRACT: note_on channel=4 note=66 velocity=0 time=0.02631575
EXTRACT: note_on channel=4 note=62 velocity=0 time=0
EXTRACT: note_on channel=4 note=59 velocity=0 time=0
EXTRACT: note_on channel=4 note=54 velocity=0 time=0
EXTRACT: note_on channel=4 note=47 velocity=0 time=0
EXTRACT: note_on channel=9 note=42 velocity=109 time=0.07894725
EXTRACT: note_on channel=4 note=66 velocity=46 time=0
EXTRACT: note_on channel=4 note=62 velocity=69 time=0
EXTRACT: note_on channel=4 note=59 velocity=45 time=0
EXTRACT: note_on channel=8 note=54 velocity=86 time=0
EXTRACT: note_on channel=8 note=66 velocity=120 time=0
EXTRACT: note_on channel=3 note=62 velocity=0 time=0.005263149999999999
EXTRACT: note_on channel=3 note=61 velocity=114 time=0
EXTRACT: note_on channel=9 note=42 velocity=0 time=0.04736835
EXTRACT: note_on channel=4 note=66 velocity=0 time=0.02631575
EXTRACT: note_on channel=4 note=62 velocity=0 time=0
EXTRACT: note_on channel=4 note=59 velocity=0 time=0
EXTRACT: note_on channel=2 note=59 velocity=114 time=0.07368409999999999
EXTRACT: note_on channel=9 note=69 velocity=62 time=0.005263149999999999
EXTRACT: note_on channel=4 note=66 velocity=58 time=0
EXTRACT: note_on channel=4 note=62 velocity=51 time=0
EXTRACT: note_on channel=4 note=59 velocity=60 time=0
EXTRACT: note_on channel=4 note=54 velocity=75 time=0
EXTRACT: note_on channel=4 note=47 velocity=70 time=0
EXTRACT: note_on channel=8 note=54 velocity=0 time=0
EXTRACT: note_on channel=8 note=66 velocity=0 time=0
EXTRACT: note_on channel=3 note=61 velocity=0 time=0.005263149999999999
EXTRACT: note_on channel=3 note=59 velocity=127 time=0
EXTRACT: note_on channel=9 note=69 velocity=0 time=0.04736835
EXTRACT: note_on channel=4 note=66 velocity=0 time=0.02631575
EXTRACT: note_on channel=4 note=62 velocity=0 time=0
EXTRACT: note_on channel=4 note=59 velocity=0 time=0
EXTRACT: note_on channel=4 note=54 velocity=0 time=0
EXTRACT: note_on channel=4 note=47 velocity=0 time=0
EXTRACT: note_on channel=9 note=36 velocity=120 time=0.07894725
EXTRACT: note_on channel=9 note=42 velocity=103 time=0
EXTRACT: note_on channel=4 note=66 velocity=45 time=0
EXTRACT: note_on channel=4 note=62 velocity=58 time=0
EXTRACT: note_on channel=4 note=59 velocity=41 time=0
EXTRACT: note_on channel=8 note=52 velocity=96 time=0
EXTRACT: note_on channel=8 note=64 velocity=117 time=0
EXTRACT: note_on channel=3 note=59 velocity=0 time=0.005263149999999999
EXTRACT: note_on channel=9 note=36 velocity=0 time=0.04736835
EXTRACT: note_on channel=9 note=42 velocity=0 time=0
EXTRACT: note_on channel=4 note=66 velocity=0 time=0.02631575
EXTRACT: note_on channel=4 note=62 velocity=0 time=0
EXTRACT: note_on channel=4 note=59 velocity=0 time=0
EXTRACT: note_on channel=2 note=62 velocity=123 time=0.07368409999999999
EXTRACT: note_on channel=9 note=69 velocity=73 time=0.005263149999999999
EXTRACT: note_on channel=3 note=62 velocity=117 time=0.005263149999999999
EXTRACT: note_on channel=9 note=69 velocity=0 time=0.04736835
EXTRACT: note_on channel=9 note=42 velocity=95 time=0.105263
EXTRACT: note_on channel=9 note=69 velocity=78 time=0
EXTRACT: note_on channel=1 note=35 velocity=124 time=0
EXTRACT: note_on channel=4 note=66 velocity=114 time=0
EXTRACT: note_on channel=4 note=62 velocity=115 time=0
EXTRACT: note_on channel=4 note=59 velocity=117 time=0
EXTRACT: note_on channel=4 note=54 velocity=96 time=0
EXTRACT: note_on channel=4 note=47 velocity=90 time=0
EXTRACT: note_on channel=7 note=66 velocity=102 time=0
EXTRACT: note_on channel=7 note=62 velocity=112 time=0
EXTRACT: note_on channel=7 note=59 velocity=108 time=0
EXTRACT: note_on channel=7 note=54 velocity=82 time=0
EXTRACT: note_on channel=7 note=47 velocity=107 time=0
EXTRACT: note_on channel=8 note=52 velocity=0 time=0
EXTRACT: note_on channel=8 note=64 velocity=0 time=0
EXTRACT: note_on channel=8 note=50 velocity=88 time=0
EXTRACT: note_on channel=8 note=62 velocity=124 time=0
EXTRACT: note_on channel=3 note=62 velocity=0 time=0.005263149999999999
EXTRACT: note_on channel=9 note=42 velocity=0 time=0.04736835
EXTRACT: note_on channel=9 note=69 velocity=0 time=0
EXTRACT: note_on channel=2 note=66 velocity=116 time=0.09999984999999999
EXTRACT: note_on channel=1 note=35 velocity=0 time=0.005263149999999999
EXTRACT: note_on channel=4 note=66 velocity=0 time=0
EXTRACT: note_on channel=4 note=62 velocity=0 time=0
EXTRACT: note_on channel=4 note=59 velocity=0 time=0
EXTRACT: note_on channel=4 note=54 velocity=0 time=0
EXTRACT: note_on channel=4 note=47 velocity=0 time=0
EXTRACT: note_on channel=7 note=66 velocity=0 time=0
EXTRACT: note_on channel=7 note=62 velocity=0 time=0
EXTRACT: note_on channel=7 note=59 velocity=0 time=0
EXTRACT: note_on channel=7 note=54 velocity=0 time=0
EXTRACT: note_on channel=7 note=47 velocity=0 time=0
EXTRACT: note_on channel=8 note=50 velocity=0 time=0
EXTRACT: note_on channel=8 note=62 velocity=0 time=0
EXTRACT: note_on channel=3 note=62 velocity=116 time=0.005263149999999999
EXTRACT: note_on channel=2 note=66 velocity=104 time=0.14736819999999998
EXTRACT: note_on channel=9 note=40 velocity=127 time=0.005263149999999999
EXTRACT: note_on channel=9 note=42 velocity=105 time=0
EXTRACT: note_on channel=9 note=69 velocity=66 time=0
EXTRACT: note_on channel=8 note=54 velocity=89 time=0
EXTRACT: note_on channel=8 note=66 velocity=120 time=0
EXTRACT: note_on channel=9 note=40 velocity=0 time=0.0526315
EXTRACT: note_on channel=9 note=42 velocity=0 time=0
EXTRACT: note_on channel=9 note=69 velocity=0 time=0
EXTRACT: note_on channel=4 note=66 velocity=47 time=0.105263
EXTRACT: note_on channel=4 note=62 velocity=39 time=0
EXTRACT: note_on channel=4 note=59 velocity=60 time=0
EXTRACT: note_on channel=8 note=54 velocity=0 time=0
EXTRACT: note_on channel=8 note=66 velocity=0 time=0
EXTRACT: note_on channel=4 note=66 velocity=0 time=0.07894725
EXTRACT: note_on channel=4 note=62 velocity=0 time=0
EXTRACT: note_on channel=4 note=59 velocity=0 time=0
EXTRACT: note_on channel=2 note=62 velocity=114 time=0.07368409999999999
EXTRACT: note_on channel=9 note=36 velocity=90 time=0.005263149999999999
EXTRACT: note_on channel=9 note=42 velocity=106 time=0
EXTRACT: note_on channel=1 note=38 velocity=122 time=0
EXTRACT: note_on channel=4 note=66 velocity=56 time=0
EXTRACT: note_on channel=4 note=62 velocity=67 time=0
EXTRACT: note_on channel=4 note=59 velocity=81 time=0
EXTRACT: note_on channel=4 note=54 velocity=51 time=0
EXTRACT: note_on channel=4 note=47 velocity=57 time=0
EXTRACT: note_on channel=8 note=47 velocity=100 time=0
EXTRACT: note_on channel=8 note=59 velocity=124 time=0
EXTRACT: note_on channel=9 note=36 velocity=0 time=0.0526315
EXTRACT: note_on channel=9 note=42 velocity=0 time=0
EXTRACT: note_on channel=4 note=66 velocity=0 time=0.02631575
EXTRACT: note_on channel=4 note=62 velocity=0 time=0
EXTRACT: note_on channel=4 note=59 velocity=0 time=0
EXTRACT: note_on channel=4 note=54 velocity=0 time=0
EXTRACT: note_on channel=4 note=47 velocity=0 time=0
EXTRACT: note_on channel=9 note=40 velocity=127 time=0.07894725
EXTRACT: note_on channel=1 note=38 velocity=0 time=0
EXTRACT: note_on channel=9 note=40 velocity=0 time=0.0526315
EXTRACT: note_on channel=2 note=47 velocity=0 time=0.09999984999999999
EXTRACT: note_on channel=2 note=62 velocity=0 time=0
EXTRACT: note_on channel=2 note=66 velocity=0 time=0
EXTRACT: note_on channel=2 note=62 velocity=0 time=0
EXTRACT: note_on channel=2 note=59 velocity=0 time=0
EXTRACT: note_on channel=2 note=62 velocity=0 time=0
EXTRACT: note_on channel=2 note=66 velocity=0 time=0
EXTRACT: note_on channel=2 note=66 velocity=0 time=0
EXTRACT: note_on channel=2 note=62 velocity=0 time=0
EXTRACT: note_on channel=2 note=40 velocity=105 time=0
EXTRACT: note_on channel=9 note=42 velocity=97 time=0.005263149999999999
EXTRACT: note_on channel=9 note=36 velocity=120 time=0
EXTRACT: note_on channel=1 note=40 velocity=121 time=0
EXTRACT: note_on channel=4 note=67 velocity=104 time=0
EXTRACT: note_on channel=4 note=62 velocity=112 time=0
EXTRACT: note_on channel=4 note=59 velocity=110 time=0
EXTRACT: note_on channel=4 note=55 velocity=110 time=0
EXTRACT: note_on channel=4 note=47 velocity=108 time=0
EXTRACT: note_on channel=5 note=90 velocity=0 time=0
EXTRACT: note_on channel=5 note=78 velocity=0 time=0
EXTRACT: note_on channel=5 note=91 velocity=104 time=0
EXTRACT: note_on channel=5 note=79 velocity=114 time=0
EXTRACT: note_on channel=6 note=59 velocity=0 time=0
EXTRACT: note_on channel=6 note=62 velocity=0 time=0
EXTRACT: note_on channel=6 note=66 velocity=0 time=0
EXTRACT: note_on channel=6 note=59 velocity=112 time=0
EXTRACT: note_on channel=6 note=62 velocity=113 time=0
EXTRACT: note_on channel=6 note=67 velocity=108 time=0
EXTRACT: note_on channel=7 note=67 velocity=86 time=0
EXTRACT: note_on channel=7 note=62 velocity=104 time=0
EXTRACT: note_on channel=7 note=59 velocity=94 time=0
EXTRACT: note_on channel=7 note=55 velocity=83 time=0
EXTRACT: note_on channel=7 note=47 velocity=100 time=0
EXTRACT: note_on channel=3 note=62 velocity=0 time=0.005263149999999999
EXTRACT: note_on channel=9 note=42 velocity=0 time=0.04736835
EXTRACT: note_on channel=9 note=36 velocity=0 time=0
EXTRACT: note_on channel=1 note=40 velocity=0 time=0.07894725
EXTRACT: note_on channel=2 note=62 velocity=104 time=0.17894709999999997
EXTRACT: note_on channel=9 note=42 velocity=103 time=0.005263149999999999
EXTRACT: note_on channel=1 note=40 velocity=124 time=0
EXTRACT: note_on channel=4 note=67 velocity=0 time=0
EXTRACT: note_on channel=4 note=62 velocity=0 time=0
EXTRACT: note_on channel=4 note=59 velocity=0 time=0
EXTRACT: note_on channel=4 note=55 velocity=0 time=0
EXTRACT: note_on channel=4 note=47 velocity=0 time=0
EXTRACT: note_on channel=7 note=67 velocity=0 time=0
EXTRACT: note_on channel=7 note=62 velocity=0 time=0
EXTRACT: note_on channel=7 note=59 velocity=0 time=0
EXTRACT: note_on channel=7 note=55 velocity=0 time=0
EXTRACT: note_on channel=7 note=47 velocity=0 time=0
EXTRACT: note_on channel=8 note=47 velocity=0 time=0
EXTRACT: note_on channel=8 note=59 velocity=0 time=0
EXTRACT: note_on channel=8 note=52 velocity=88 time=0
EXTRACT: note_on channel=8 note=64 velocity=114 time=0
EXTRACT: note_on channel=3 note=62 velocity=109 time=0.005263149999999999
EXTRACT: note_on channel=9 note=42 velocity=0 time=0.04736835
EXTRACT: note_on channel=1 note=40 velocity=0 time=0.09999984999999999
EXTRACT: note_on channel=2 note=67 velocity=120 time=0
EXTRACT: note_on channel=1 note=35 velocity=126 time=0.005263149999999999
EXTRACT: note_on channel=4 note=67 velocity=99 time=0
EXTRACT: note_on channel=4 note=62 velocity=112 time=0
EXTRACT: note_on channel=4 note=59 velocity=108 time=0
EXTRACT: note_on channel=4 note=55 velocity=115 time=0
EXTRACT: note_on channel=4 note=47 velocity=101 time=0
EXTRACT: note_on channel=7 note=67 velocity=82 time=0
EXTRACT: note_on channel=7 note=62 velocity=75 time=0
EXTRACT: note_on channel=7 note=59 velocity=77 time=0
EXTRACT: note_on channel=7 note=55 velocity=90 time=0
EXTRACT: note_on channel=7 note=47 velocity=75 time=0
EXTRACT: note_on channel=8 note=52 velocity=0 time=0
EXTRACT: note_on channel=8 note=64 velocity=0 time=0
EXTRACT: note_on channel=9 note=42 velocity=110 time=0.1578945
EXTRACT: note_on channel=9 note=40 velocity=127 time=0
EXTRACT: note_on channel=9 note=69 velocity=62 time=0
EXTRACT: note_on channel=1 note=35 velocity=0 time=0
EXTRACT: note_on channel=4 note=67 velocity=0 time=0
EXTRACT: note_on channel=4 note=62 velocity=0 time=0
EXTRACT: note_on channel=4 note=59 velocity=0 time=0
EXTRACT: note_on channel=4 note=55 velocity=0 time=0
EXTRACT: note_on channel=4 note=47 velocity=0 time=0
EXTRACT: note_on channel=7 note=67 velocity=0 time=0
EXTRACT: note_on channel=7 note=62 velocity=0 time=0
EXTRACT: note_on channel=7 note=59 velocity=0 time=0
EXTRACT: note_on channel=7 note=55 velocity=0 time=0
EXTRACT: note_on channel=7 note=47 velocity=0 time=0
EXTRACT: note_on channel=8 note=52 velocity=84 time=0
EXTRACT: note_on channel=8 note=64 velocity=123 time=0
EXTRACT: note_on channel=3 note=62 velocity=0 time=0.005263149999999999
EXTRACT: note_on channel=9 note=42 velocity=0 time=0.04736835
EXTRACT: note_on channel=9 note=40 velocity=0 time=0
EXTRACT: note_on channel=9 note=69 velocity=0 time=0
EXTRACT: note_on channel=2 note=62 velocity=127 time=0.09999984999999999
EXTRACT: note_on channel=9 note=69 velocity=70 time=0.005263149999999999
EXTRACT: note_on channel=1 note=35 velocity=109 time=0
EXTRACT: note_on channel=4 note=67 velocity=57 time=0
EXTRACT: note_on channel=4 note=62 velocity=69 time=0
EXTRACT: note_on channel=4 note=59 velocity=69 time=0
EXTRACT: note_on channel=4 note=55 velocity=56 time=0
EXTRACT: note_on channel=4 note=47 velocity=66 time=0
EXTRACT: note_on channel=3 note=62 velocity=124 time=0.005263149999999999
EXTRACT: note_on channel=9 note=69 velocity=0 time=0.04736835
EXTRACT: note_on channel=4 note=67 velocity=0 time=0.02631575
EXTRACT: note_on channel=4 note=62 velocity=0 time=0
EXTRACT: note_on channel=4 note=59 velocity=0 time=0
EXTRACT: note_on channel=4 note=55 velocity=0 time=0
EXTRACT: note_on channel=4 note=47 velocity=0 time=0
EXTRACT: note_on channel=1 note=35 velocity=0 time=0.07368409999999999
EXTRACT: note_on channel=9 note=42 velocity=106 time=0.005263149999999999
EXTRACT: note_on channel=1 note=31 velocity=125 time=0
EXTRACT: note_on channel=4 note=67 velocity=68 time=0
EXTRACT: note_on channel=4 note=62 velocity=69 time=0
EXTRACT: note_on channel=4 note=59 velocity=46 time=0
EXTRACT: note_on channel=3 note=62 velocity=0 time=0.005263149999999999
EXTRACT: note_on channel=3 note=61 velocity=108 time=0
EXTRACT: note_on channel=9 note=42 velocity=0 time=0.04736835
EXTRACT: note_on channel=4 note=67 velocity=0 time=0.02631575
EXTRACT: note_on channel=4 note=62 velocity=0 time=0
EXTRACT: note_on channel=4 note=59 velocity=0 time=0
EXTRACT: note_on channel=2 note=59 velocity=124 time=0.07368409999999999
EXTRACT: note_on channel=9 note=69 velocity=62 time=0.005263149999999999
EXTRACT: note_on channel=1 note=31 velocity=0 time=0
EXTRACT: note_on channel=4 note=67 velocity=75 time=0
EXTRACT: note_on channel=4 note=62 velocity=85 time=0
EXTRACT: note_on channel=4 note=59 velocity=62 time=0
EXTRACT: note_on channel=4 note=55 velocity=80 time=0
EXTRACT: note_on channel=4 note=47 velocity=86 time=0
EXTRACT: note_on channel=3 note=61 velocity=0 time=0.005263149999999999
EXTRACT: note_on channel=3 note=59 velocity=114 time=0
EXTRACT: note_on channel=9 note=69 velocity=0 time=0.04736835
EXTRACT: note_on channel=4 note=67 velocity=0 time=0.02631575
EXTRACT: note_on channel=4 note=62 velocity=0 time=0
EXTRACT: note_on channel=4 note=59 velocity=0 time=0
EXTRACT: note_on channel=4 note=55 velocity=0 time=0
EXTRACT: note_on channel=4 note=47 velocity=0 time=0
EXTRACT: note_on channel=9 note=36 velocity=120 time=0.07894725
EXTRACT: note_on channel=9 note=42 velocity=99 time=0
EXTRACT: note_on channel=1 note=28 velocity=127 time=0
EXTRACT: note_on channel=4 note=67 velocity=69 time=0
EXTRACT: note_on channel=4 note=62 velocity=66 time=0
EXTRACT: note_on channel=4 note=59 velocity=39 time=0
EXTRACT: note_on channel=8 note=52 velocity=0 time=0
EXTRACT: note_on channel=8 note=64 velocity=0 time=0
EXTRACT: note_on channel=3 note=59 velocity=0 time=0.005263149999999999
EXTRACT: note_on channel=9 note=36 velocity=0 time=0.04736835
EXTRACT: note_on channel=9 note=42 velocity=0 time=0
EXTRACT: note_on channel=4 note=67 velocity=0 time=0.02631575
EXTRACT: note_on channel=4 note=62 velocity=0 time=0
EXTRACT: note_on channel=4 note=59 velocity=0 time=0
EXTRACT: note_on channel=2 note=62 velocity=123 time=0.07368409999999999
EXTRACT: note_on channel=9 note=69 velocity=73 time=0.005263149999999999
EXTRACT: note_on channel=3 note=62 velocity=114 time=0.005263149999999999
EXTRACT: note_on channel=9 note=69 velocity=0 time=0.04736835
EXTRACT: note_on channel=9 note=42 velocity=95 time=0.105263
EXTRACT: note_on channel=9 note=69 velocity=78 time=0
EXTRACT: note_on channel=1 note=28 velocity=0 time=0
EXTRACT: note_on channel=4 note=67 velocity=113 time=0
EXTRACT: note_on channel=4 note=62 velocity=116 time=0
EXTRACT: note_on channel=4 note=59 velocity=90 time=0
EXTRACT: note_on channel=4 note=55 velocity=92 time=0
EXTRACT: note_on channel=4 note=47 velocity=102 time=0
EXTRACT: note_on channel=7 note=67 velocity=92 time=0
EXTRACT: note_on channel=7 note=62 velocity=88 time=0
EXTRACT: note_on channel=7 note=59 velocity=83 time=0
EXTRACT: note_on channel=7 note=55 velocity=102 time=0
EXTRACT: note_on channel=7 note=47 velocity=107 time=0
EXTRACT: note_on channel=8 note=47 velocity=83 time=0
EXTRACT: note_on channel=8 note=59 velocity=122 time=0
EXTRACT: note_on channel=3 note=62 velocity=0 time=0.005263149999999999
EXTRACT: note_on channel=9 note=42 velocity=0 time=0.04736835
EXTRACT: note_on channel=9 note=69 velocity=0 time=0
EXTRACT: note_on channel=2 note=67 velocity=125 time=0.09999984999999999
EXTRACT: note_on channel=4 note=67 velocity=0 time=0.005263149999999999
EXTRACT: note_on channel=4 note=62 velocity=0 time=0
EXTRACT: note_on channel=4 note=59 velocity=0 time=0
EXTRACT: note_on channel=4 note=55 velocity=0 time=0
EXTRACT: note_on channel=4 note=47 velocity=0 time=0
EXTRACT: note_on channel=7 note=67 velocity=0 time=0
EXTRACT: note_on channel=7 note=62 velocity=0 time=0
EXTRACT: note_on channel=7 note=59 velocity=0 time=0
EXTRACT: note_on channel=7 note=55 velocity=0 time=0
EXTRACT: note_on channel=7 note=47 velocity=0 time=0
EXTRACT: note_on channel=8 note=47 velocity=0 time=0
EXTRACT: note_on channel=8 note=59 velocity=0 time=0
EXTRACT: note_on channel=3 note=62 velocity=126 time=0.005263149999999999
EXTRACT: note_on channel=2 note=67 velocity=103 time=0.14736819999999998
EXTRACT: note_on channel=9 note=40 velocity=127 time=0.005263149999999999
EXTRACT: note_on channel=9 note=42 velocity=108 time=0
EXTRACT: note_on channel=9 note=69 velocity=66 time=0
EXTRACT: note_on channel=5 note=91 velocity=0 time=0
EXTRACT: note_on channel=5 note=79 velocity=0 time=0
EXTRACT: note_on channel=5 note=86 velocity=98 time=0
EXTRACT: note_on channel=5 note=74 velocity=103 time=0
EXTRACT: note_on channel=8 note=47 velocity=95 time=0
EXTRACT: note_on channel=8 note=59 velocity=117 time=0
EXTRACT: note_on channel=9 note=40 velocity=0 time=0.0526315
EXTRACT: note_on channel=9 note=42 velocity=0 time=0
EXTRACT: note_on channel=9 note=69 velocity=0 time=0
EXTRACT: note_on channel=4 note=67 velocity=45 time=0.105263
EXTRACT: note_on channel=4 note=62 velocity=68 time=0
EXTRACT: note_on channel=4 note=59 velocity=39 time=0
EXTRACT: note_on channel=5 note=86 velocity=0 time=0
EXTRACT: note_on channel=5 note=74 velocity=0 time=0
EXTRACT: note_on channel=5 note=73 velocity=98 time=0
EXTRACT: note_on channel=5 note=85 velocity=109 time=0
EXTRACT: note_on channel=8 note=47 velocity=0 time=0
EXTRACT: note_on channel=8 note=59 velocity=0 time=0
EXTRACT: note_on channel=4 note=67 velocity=0 time=0.07894725
EXTRACT: note_on channel=4 note=62 velocity=0 time=0
EXTRACT: note_on channel=4 note=59 velocity=0 time=0
EXTRACT: note_on channel=2 note=62 velocity=117 time=0.07368409999999999
EXTRACT: note_on channel=9 note=42 velocity=105 time=0.005263149999999999
EXTRACT: note_on channel=1 note=28 velocity=126 time=0
EXTRACT: note_on channel=4 note=67 velocity=52 time=0
EXTRACT: note_on channel=4 note=62 velocity=91 time=0
EXTRACT: note_on channel=4 note=59 velocity=63 time=0
EXTRACT: note_on channel=4 note=55 velocity=62 time=0
EXTRACT: note_on channel=4 note=47 velocity=53 time=0
EXTRACT: note_on channel=5 note=73 velocity=0 time=0
EXTRACT: note_on channel=5 note=85 velocity=0 time=0
EXTRACT: note_on channel=5 note=71 velocity=109 time=0
EXTRACT: note_on channel=5 note=83 velocity=106 time=0
EXTRACT: note_on channel=8 note=47 velocity=101 time=0
EXTRACT: note_on channel=8 note=59 velocity=125 time=0
EXTRACT: note_on channel=9 note=42 velocity=0 time=0.0526315
EXTRACT: note_on channel=4 note=67 velocity=0 time=0.02631575
EXTRACT: note_on channel=4 note=62 velocity=0 time=0
EXTRACT: note_on channel=4 note=59 velocity=0 time=0
EXTRACT: note_on channel=4 note=55 velocity=0 time=0
EXTRACT: note_on channel=4 note=47 velocity=0 time=0
EXTRACT: note_on channel=1 note=28 velocity=0 time=0.07894725
EXTRACT: note_on channel=5 note=71 velocity=0 time=0
EXTRACT: note_on channel=5 note=83 velocity=0 time=0
EXTRACT: note_on channel=5 note=81 velocity=98 time=0
EXTRACT: note_on channel=5 note=69 velocity=99 time=0
EXTRACT: note_on channel=8 note=47 velocity=0 time=0
EXTRACT: note_on channel=8 note=59 velocity=0 time=0
EXTRACT: note_on channel=2 note=40 velocity=0 time=0.15263134999999997
EXTRACT: note_on channel=2 note=62 velocity=0 time=0
EXTRACT: note_on channel=2 note=67 velocity=0 time=0
EXTRACT: note_on channel=2 note=62 velocity=0 time=0
EXTRACT: note_on channel=2 note=59 velocity=0 time=0
EXTRACT: note_on channel=2 note=62 velocity=0 time=0
EXTRACT: note_on channel=2 note=67 velocity=0 time=0
EXTRACT: note_on channel=2 note=67 velocity=0 time=0
EXTRACT: note_on channel=2 note=62 velocity=0 time=0
EXTRACT: note_on channel=2 note=57 velocity=113 time=0
EXTRACT: note_on channel=2 note=54 velocity=119 time=0
EXTRACT: note_on channel=9 note=42 velocity=104 time=0.005263149999999999
EXTRACT: note_on channel=9 note=36 velocity=120 time=0
EXTRACT: note_on channel=1 note=30 velocity=117 time=0
EXTRACT: note_on channel=4 note=64 velocity=99 time=0
EXTRACT: note_on channel=4 note=61 velocity=87 time=0
EXTRACT: note_on channel=4 note=57 velocity=90 time=0
EXTRACT: note_on channel=4 note=54 velocity=103 time=0
EXTRACT: note_on channel=6 note=59 velocity=0 time=0
EXTRACT: note_on channel=6 note=62 velocity=0 time=0
EXTRACT: note_on channel=6 note=67 velocity=0 time=0
EXTRACT: note_on channel=6 note=57 velocity=108 time=0
EXTRACT: note_on channel=6 note=61 velocity=110 time=0
EXTRACT: note_on channel=6 note=66 velocity=111 time=0
EXTRACT: note_on channel=7 note=64 velocity=83 time=0
EXTRACT: note_on channel=7 note=61 velocity=89 time=0
EXTRACT: note_on channel=7 note=57 velocity=84 time=0
EXTRACT: note_on channel=7 note=54 velocity=86 time=0
EXTRACT: note_on channel=8 note=45 velocity=90 time=0
EXTRACT: note_on channel=8 note=57 velocity=126 time=0
EXTRACT: note_on channel=3 note=62 velocity=0 time=0.005263149999999999
EXTRACT: note_on channel=9 note=42 velocity=0 time=0.04736835
EXTRACT: note_on channel=9 note=36 velocity=0 time=0
EXTRACT: note_on channel=8 note=45 velocity=0 time=0.02631575
EXTRACT: note_on channel=8 note=57 velocity=0 time=0
EXTRACT: note_on channel=8 note=57 velocity=84 time=0.07894725
EXTRACT: note_on channel=8 note=69 velocity=116 time=0
EXTRACT: note_on channel=1 note=30 velocity=0 time=0.04736835
EXTRACT: note_on channel=1 note=30 velocity=112 time=0.005263149999999999
EXTRACT: note_on channel=2 note=61 velocity=106 time=0.09999984999999999
EXTRACT: note_on channel=9 note=42 velocity=87 time=0.005263149999999999
EXTRACT: note_on channel=9 note=42 velocity=101 time=0
EXTRACT: note_on channel=4 note=64 velocity=0 time=0
EXTRACT: note_on channel=4 note=61 velocity=0 time=0
EXTRACT: note_on channel=4 note=57 velocity=0 time=0
EXTRACT: note_on channel=4 note=54 velocity=0 time=0
EXTRACT: note_on channel=7 note=64 velocity=0 time=0
EXTRACT: note_on channel=7 note=61 velocity=0 time=0
EXTRACT: note_on channel=7 note=57 velocity=0 time=0
EXTRACT: note_on channel=7 note=54 velocity=0 time=0
EXTRACT: note_on channel=3 note=61 velocity=104 time=0.005263149999999999
EXTRACT: note_on channel=9 note=42 velocity=0 time=0.04736835
EXTRACT: note_on channel=9 note=42 velocity=0 time=0
EXTRACT: note_on channel=1 note=30 velocity=0 time=0.04736835
EXTRACT: note_on channel=1 note=30 velocity=127 time=0.005263149999999999
EXTRACT: note_on channel=2 note=64 velocity=108 time=0.04736835
EXTRACT: note_on channel=4 note=64 velocity=98 time=0.005263149999999999
EXTRACT: note_on channel=4 note=61 velocity=100 time=0
EXTRACT: note_on channel=4 note=57 velocity=87 time=0
EXTRACT: note_on channel=4 note=54 velocity=87 time=0
EXTRACT: note_on channel=7 note=64 velocity=99 time=0
EXTRACT: note_on channel=7 note=61 velocity=103 time=0
EXTRACT: note_on channel=7 note=57 velocity=89 time=0
EXTRACT: note_on channel=7 note=54 velocity=76 time=0
EXTRACT: note_on channel=1 note=30 velocity=0 time=0.15263134999999997
EXTRACT: note_on channel=9 note=40 velocity=127 time=0.005263149999999999
EXTRACT: note_on channel=9 note=42 velocity=93 time=0
EXTRACT: note_on channel=9 note=69 velocity=62 time=0
EXTRACT: note_on channel=1 note=37 velocity=108 time=0
EXTRACT: note_on channel=4 note=64 velocity=0 time=0
EXTRACT: note_on channel=4 note=61 velocity=0 time=0
EXTRACT: note_on channel=4 note=57 velocity=0 time=0
EXTRACT: note_on channel=4 note=54 velocity=0 time=0
EXTRACT: note_on channel=7 note=64 velocity=0 time=0
EXTRACT: note_on channel=7 note=61 velocity=0 time=0
EXTRACT: note_on channel=7 note=57 velocity=0 time=0
EXTRACT: note_on channel=7 note=54 velocity=0 time=0
EXTRACT: note_on channel=8 note=57 velocity=0 time=0
EXTRACT: note_on channel=8 note=69 velocity=0 time=0
EXTRACT: note_on channel=8 note=52 velocity=94 time=0
EXTRACT: note_on channel=8 note=64 velocity=119 time=0
EXTRACT: note_on channel=3 note=61 velocity=0 time=0.005263149999999999
EXTRACT: note_on channel=9 note=40 velocity=0 time=0.04736835
EXTRACT: note_on channel=9 note=42 velocity=0 time=0
EXTRACT: note_on channel=9 note=69 velocity=0 time=0
EXTRACT: note_on channel=2 note=61 velocity=127 time=0.09999984999999999
EXTRACT: note_on channel=9 note=69 velocity=70 time=0.005263149999999999
EXTRACT: note_on channel=4 note=64 velocity=54 time=0
EXTRACT: note_on channel=4 note=61 velocity=80 time=0
EXTRACT: note_on channel=4 note=57 velocity=67 time=0
EXTRACT: note_on channel=4 note=54 velocity=77 time=0
EXTRACT: note_on channel=3 note=61 velocity=121 time=0.005263149999999999
EXTRACT: note_on channel=9 note=69 velocity=0 time=0.04736835
EXTRACT: note_on channel=1 note=37 velocity=0 time=0.02631575
EXTRACT: note_on channel=4 note=64 velocity=0 time=0
EXTRACT: note_on channel=4 note=61 velocity=0 time=0
EXTRACT: note_on channel=4 note=57 velocity=0 time=0
EXTRACT: note_on channel=4 note=54 velocity=0 time=0
EXTRACT: note_on channel=9 note=42 velocity=104 time=0.07894725
EXTRACT: note_on channel=1 note=42 velocity=117 time=0
EXTRACT: note_on channel=4 note=64 velocity=50 time=0
EXTRACT: note_on channel=4 note=61 velocity=41 time=0
EXTRACT: note_on channel=4 note=57 velocity=53 time=0
EXTRACT: note_on channel=9 note=42 velocity=0 time=0.0526315
EXTRACT: note_on channel=4 note=64 velocity=0 time=0.02631575
EXTRACT: note_on channel=4 note=61 velocity=0 time=0
EXTRACT: note_on channel=4 note=57 velocity=0 time=0
EXTRACT: note_on channel=2 note=57 velocity=127 time=0.07368409999999999
EXTRACT: note_on channel=9 note=69 velocity=62 time=0.005263149999999999
EXTRACT: note_on channel=4 note=64 velocity=79 time=0
EXTRACT: note_on channel=4 note=61 velocity=62 time=0
EXTRACT: note_on channel=4 note=57 velocity=70 time=0
EXTRACT: note_on channel=4 note=54 velocity=78 time=0
EXTRACT: note_on channel=5 note=81 velocity=0 time=0
EXTRACT: note_on channel=5 note=69 velocity=0 time=0
EXTRACT: note_on channel=3 note=61 velocity=0 time=0.005263149999999999
EXTRACT: note_on channel=9 note=69 velocity=0 time=0.04736835
EXTRACT: note_on channel=1 note=42 velocity=0 time=0.02631575
EXTRACT: note_on channel=4 note=64 velocity=0 time=0
EXTRACT: note_on channel=4 note=61 velocity=0 time=0
EXTRACT: note_on channel=4 note=57 velocity=0 time=0
EXTRACT: note_on channel=4 note=54 velocity=0 time=0
EXTRACT: note_on channel=2 note=61 velocity=110 time=0.07368409999999999
EXTRACT: note_on channel=9 note=36 velocity=120 time=0.005263149999999999
EXTRACT: note_on channel=9 note=42 velocity=104 time=0
EXTRACT: note_on channel=1 note=37 velocity=108 time=0
EXTRACT: note_on channel=4 note=64 velocity=56 time=0
EXTRACT: note_on channel=4 note=61 velocity=49 time=0
EXTRACT: note_on channel=4 note=57 velocity=58 time=0
EXTRACT: note_on channel=5 note=78 velocity=105 time=0
EXTRACT: note_on channel=5 note=90 velocity=115 time=0
EXTRACT: note_on channel=3 note=61 velocity=127 time=0.005263149999999999
EXTRACT: note_on channel=9 note=36 velocity=0 time=0.04736835
EXTRACT: note_on channel=9 note=42 velocity=0 time=0
EXTRACT: note_on channel=4 note=64 velocity=0 time=0.02631575
EXTRACT: note_on channel=4 note=61 velocity=0 time=0
EXTRACT: note_on channel=4 note=57 velocity=0 time=0
EXTRACT: note_on channel=2 note=64 velocity=127 time=0.07368409999999999
EXTRACT: note_on channel=9 note=69 velocity=73 time=0.005263149999999999
EXTRACT: note_on channel=5 note=78 velocity=0 time=0
EXTRACT: note_on channel=5 note=90 velocity=0 time=0
EXTRACT: note_on channel=8 note=52 velocity=0 time=0
EXTRACT: note_on channel=8 note=64 velocity=0 time=0
EXTRACT: note_on channel=9 note=69 velocity=0 time=0.0526315
EXTRACT: note_on channel=2 note=66 velocity=110 time=0.09999984999999999
EXTRACT: note_on channel=9 note=36 velocity=120 time=0.005263149999999999
EXTRACT: note_on channel=9 note=42 velocity=95 time=0
EXTRACT: note_on channel=9 note=69 velocity=78 time=0
EXTRACT: note_on channel=4 note=64 velocity=96 time=0
EXTRACT: note_on channel=4 note=61 velocity=91 time=0
EXTRACT: note_on channel=4 note=57 velocity=111 time=0
EXTRACT: note_on channel=4 note=54 velocity=110 time=0
EXTRACT: note_on channel=7 note=64 velocity=93 time=0
EXTRACT: note_on channel=7 note=61 velocity=101 time=0
EXTRACT: note_on channel=7 note=57 velocity=96 time=0
EXTRACT: note_on channel=7 note=54 velocity=112 time=0
EXTRACT: note_on channel=9 note=36 velocity=0 time=0.0526315
EXTRACT: note_on channel=9 note=42 velocity=0 time=0
EXTRACT: note_on channel=9 note=69 velocity=0 time=0
EXTRACT: note_on channel=1 note=37 velocity=0 time=0.04736835
EXTRACT: note_on channel=1 note=42 velocity=120 time=0.005263149999999999
EXTRACT: note_on channel=2 note=69 velocity=122 time=0.04736835
EXTRACT: note_on channel=4 note=64 velocity=0 time=0.005263149999999999
EXTRACT: note_on channel=4 note=61 velocity=0 time=0
EXTRACT: note_on channel=4 note=57 velocity=0 time=0
EXTRACT: note_on channel=4 note=54 velocity=0 time=0
EXTRACT: note_on channel=5 note=76 velocity=102 time=0
EXTRACT: note_on channel=5 note=88 velocity=114 time=0
EXTRACT: note_on channel=7 note=64 velocity=0 time=0
EXTRACT: note_on channel=7 note=61 velocity=0 time=0
EXTRACT: note_on channel=7 note=57 velocity=0 time=0
EXTRACT: note_on channel=7 note=54 velocity=0 time=0
EXTRACT: note_on channel=9 note=40 velocity=127 time=0.1578945
EXTRACT: note_on channel=9 note=42 velocity=107 time=0
EXTRACT: note_on channel=9 note=69 velocity=66 time=0
EXTRACT: note_on channel=5 note=76 velocity=0 time=0
EXTRACT: note_on channel=5 note=88 velocity=0 time=0
EXTRACT: note_on channel=9 note=40 velocity=0 time=0.0526315
EXTRACT: note_on channel=9 note=42 velocity=0 time=0
EXTRACT: note_on channel=9 note=69 velocity=0 time=0
EXTRACT: note_on channel=4 note=64 velocity=67 time=0.105263
EXTRACT: note_on channel=4 note=61 velocity=69 time=0
EXTRACT: note_on channel=4 note=57 velocity=43 time=0
EXTRACT: note_on channel=1 note=42 velocity=0 time=0.04736835
EXTRACT: note_on channel=1 note=49 velocity=110 time=0.005263149999999999
EXTRACT: note_on channel=4 note=64 velocity=0 time=0.02631575
EXTRACT: note_on channel=4 note=61 velocity=0 time=0
EXTRACT: note_on channel=4 note=57 velocity=0 time=0
EXTRACT: note_on channel=9 note=36 velocity=90 time=0.07894725
EXTRACT: note_on channel=9 note=42 velocity=105 time=0
EXTRACT: note_on channel=4 note=64 velocity=83 time=0
EXTRACT: note_on channel=4 note=61 velocity=77 time=0
EXTRACT: note_on channel=4 note=57 velocity=76 time=0
EXTRACT: note_on channel=4 note=54 velocity=74 time=0
EXTRACT: note_on channel=5 note=86 velocity=104 time=0
EXTRACT: note_on channel=5 note=74 velocity=102 time=0
EXTRACT: note_on channel=3 note=61 velocity=86 time=0.005263149999999999
EXTRACT: note_on channel=9 note=36 velocity=0 time=0.04736835
EXTRACT: note_on channel=9 note=42 velocity=0 time=0
EXTRACT: note_on channel=4 note=64 velocity=0 time=0.02631575
EXTRACT: note_on channel=4 note=61 velocity=0 time=0
EXTRACT: note_on channel=4 note=57 velocity=0 time=0
EXTRACT: note_on channel=4 note=54 velocity=0 time=0
EXTRACT: note_on channel=9 note=40 velocity=127 time=0.07894725
EXTRACT: note_on channel=5 note=86 velocity=0 time=0
EXTRACT: note_on channel=5 note=74 velocity=0 time=0
EXTRACT: note_on channel=9 note=40 velocity=0 time=0.0526315
EXTRACT: note_on channel=1 note=49 velocity=0 time=0.09999984999999999
EXTRACT: note_on channel=2 note=57 velocity=0 time=0
EXTRACT: note_on channel=2 note=54 velocity=0 time=0
EXTRACT: note_on channel=2 note=61 velocity=0 time=0
EXTRACT: note_on channel=2 note=64 velocity=0 time=0
EXTRACT: note_on channel=2 note=61 velocity=0 time=0
EXTRACT: note_on channel=2 note=57 velocity=0 time=0
EXTRACT: note_on channel=2 note=61 velocity=0 time=0
EXTRACT: note_on channel=2 note=64 velocity=0 time=0
EXTRACT: note_on channel=2 note=66 velocity=0 time=0
EXTRACT: note_on channel=2 note=69 velocity=0 time=0
EXTRACT: note_on channel=2 note=47 velocity=120 time=0
EXTRACT: note_on channel=1 note=35 velocity=123 time=0.005263149999999999
EXTRACT: note_on channel=4 note=66 velocity=90 time=0
EXTRACT: note_on channel=4 note=62 velocity=101 time=0
EXTRACT: note_on channel=4 note=59 velocity=101 time=0
EXTRACT: note_on channel=4 note=54 velocity=99 time=0
EXTRACT: note_on channel=4 note=47 velocity=98 time=0
EXTRACT: control_change channel=5 control=7 value=90 time=0
EXTRACT: note_on channel=5 note=71 velocity=100 time=0
EXTRACT: note_on channel=5 note=83 velocity=101 time=0
EXTRACT: note_on channel=6 note=57 velocity=0 time=0
EXTRACT: note_on channel=6 note=61 velocity=0 time=0
EXTRACT: note_on channel=6 note=66 velocity=0 time=0
EXTRACT: control_change channel=6 control=11 value=127 time=0
EXTRACT: note_on channel=6 note=59 velocity=120 time=0
EXTRACT: note_on channel=7 note=66 velocity=77 time=0
EXTRACT: note_on channel=7 note=62 velocity=107 time=0
EXTRACT: note_on channel=7 note=59 velocity=110 time=0
EXTRACT: note_on channel=7 note=54 velocity=102 time=0
EXTRACT: note_on channel=7 note=47 velocity=91 time=0
EXTRACT: note_on channel=3 note=61 velocity=0 time=0.005263149999999999
EXTRACT: note_on channel=3 note=61 velocity=0 time=0
EXTRACT: note_on channel=1 note=35 velocity=0 time=0.14736819999999998
EXTRACT: note_on channel=1 note=35 velocity=118 time=0.005263149999999999
EXTRACT: note_on channel=2 note=62 velocity=115 time=0.15263134999999997
EXTRACT: note_on channel=1 note=35 velocity=0 time=0.005263149999999999
EXTRACT: note_on channel=4 note=66 velocity=0 time=0
EXTRACT: note_on channel=4 note=62 velocity=0 time=0
EXTRACT: note_on channel=4 note=59 velocity=0 time=0
EXTRACT: note_on channel=4 note=54 velocity=0 time=0
EXTRACT: note_on channel=4 note=47 velocity=0 time=0
EXTRACT: note_on channel=5 note=71 velocity=0 time=0
EXTRACT: note_on channel=5 note=83 velocity=0 time=0
EXTRACT: note_on channel=6 note=59 velocity=0 time=0
EXTRACT: note_on channel=7 note=66 velocity=0 time=0
EXTRACT: note_on channel=7 note=62 velocity=0 time=0
EXTRACT: note_on channel=7 note=59 velocity=0 time=0
EXTRACT: note_on channel=7 note=54 velocity=0 time=0
EXTRACT: note_on channel=7 note=47 velocity=0 time=0
EXTRACT: note_on channel=3 note=62 velocity=107 time=0.005263149999999999
EXTRACT: note_on channel=2 note=66 velocity=125 time=0.14736819999999998
EXTRACT: note_on channel=1 note=42 velocity=125 time=0.005263149999999999
EXTRACT: note_on channel=4 note=66 velocity=96 time=0
EXTRACT: note_on channel=4 note=62 velocity=105 time=0
EXTRACT: note_on channel=4 note=59 velocity=99 time=0
EXTRACT: note_on channel=4 note=54 velocity=113 time=0
EXTRACT: note_on channel=4 note=47 velocity=92 time=0
EXTRACT: note_on channel=5 note=69 velocity=100 time=0
EXTRACT: note_on channel=5 note=81 velocity=102 time=0
EXTRACT: note_on channel=6 note=59 velocity=121 time=0
EXTRACT: note_on channel=7 note=66 velocity=80 time=0
EXTRACT: note_on channel=7 note=62 velocity=81 time=0
EXTRACT: note_on channel=7 note=59 velocity=112 time=0
EXTRACT: note_on channel=7 note=54 velocity=110 time=0
EXTRACT: note_on channel=7 note=47 velocity=85 time=0
EXTRACT: note_on channel=1 note=42 velocity=0 time=0.1578945
EXTRACT: note_on channel=4 note=66 velocity=0 time=0
EXTRACT: note_on channel=4 note=62 velocity=0 time=0
EXTRACT: note_on channel=4 note=59 velocity=0 time=0
EXTRACT: note_on channel=4 note=54 velocity=0 time=0
EXTRACT: note_on channel=4 note=47 velocity=0 time=0
EXTRACT: note_on channel=7 note=66 velocity=0 time=0
EXTRACT: note_on channel=7 note=62 velocity=0 time=0
EXTRACT: note_on channel=7 note=59 velocity=0 time=0
EXTRACT: note_on channel=7 note=54 velocity=0 time=0
EXTRACT: note_on channel=7 note=47 velocity=0 time=0
EXTRACT: note_on channel=3 note=62 velocity=0 time=0.005263149999999999
EXTRACT: note_on channel=2 note=62 velocity=127 time=0.14736819999999998
EXTRACT: note_on channel=1 note=42 velocity=125 time=0.005263149999999999
EXTRACT: note_on channel=4 note=66 velocity=66 time=0
EXTRACT: note_on channel=4 note=62 velocity=58 time=0
EXTRACT: note_on channel=4 note=59 velocity=61 time=0
EXTRACT: note_on channel=4 note=54 velocity=80 time=0
EXTRACT: note_on channel=4 note=47 velocity=61 time=0
EXTRACT: note_on channel=3 note=62 velocity=119 time=0.005263149999999999
EXTRACT: note_on channel=4 note=66 velocity=0 time=0.07368409999999999
EXTRACT: note_on channel=4 note=62 velocity=0 time=0
EXTRACT: note_on channel=4 note=59 velocity=0 time=0
EXTRACT: note_on channel=4 note=54 velocity=0 time=0
EXTRACT: note_on channel=4 note=47 velocity=0 time=0
EXTRACT: note_on channel=1 note=42 velocity=0 time=0.07368409999999999
EXTRACT: note_on channel=1 note=38 velocity=126 time=0.005263149999999999
EXTRACT: note_on channel=4 note=66 velocity=43 time=0
EXTRACT: note_on channel=4 note=62 velocity=39 time=0
EXTRACT: note_on channel=4 note=59 velocity=43 time=0
EXTRACT: note_on channel=5 note=69 velocity=0 time=0
EXTRACT: note_on channel=5 note=81 velocity=0 time=0
EXTRACT: note_on channel=5 note=69 velocity=98 time=0
EXTRACT: note_on channel=5 note=81 velocity=112 time=0
EXTRACT: note_on channel=6 note=59 velocity=0 time=0
EXTRACT: note_on channel=6 note=61 velocity=126 time=0
EXTRACT: note_on channel=3 note=62 velocity=0 time=0.005263149999999999
EXTRACT: note_on channel=3 note=61 velocity=113 time=0
EXTRACT: note_on channel=4 note=66 velocity=0 time=0.07368409999999999
EXTRACT: note_on channel=4 note=62 velocity=0 time=0
EXTRACT: note_on channel=4 note=59 velocity=0 time=0
EXTRACT: note_on channel=2 note=59 velocity=112 time=0.07368409999999999
EXTRACT: note_on channel=1 note=38 velocity=0 time=0.005263149999999999
EXTRACT: note_on channel=4 note=66 velocity=80 time=0
EXTRACT: note_on channel=4 note=62 velocity=77 time=0
EXTRACT: note_on channel=4 note=59 velocity=55 time=0
EXTRACT: note_on channel=4 note=54 velocity=65 time=0
EXTRACT: note_on channel=4 note=47 velocity=80 time=0
EXTRACT: note_on channel=3 note=61 velocity=0 time=0.005263149999999999
EXTRACT: note_on channel=3 note=59 velocity=122 time=0
EXTRACT: note_on channel=4 note=66 velocity=0 time=0.07368409999999999
EXTRACT: note_on channel=4 note=62 velocity=0 time=0
EXTRACT: note_on channel=4 note=59 velocity=0 time=0
EXTRACT: note_on channel=4 note=54 velocity=0 time=0
EXTRACT: note_on channel=4 note=47 velocity=0 time=0
EXTRACT: note_on channel=1 note=35 velocity=125 time=0.07894725
EXTRACT: note_on channel=4 note=66 velocity=62 time=0
EXTRACT: note_on channel=4 note=62 velocity=59 time=0
EXTRACT: note_on channel=4 note=59 velocity=69 time=0
EXTRACT: note_on channel=5 note=69 velocity=0 time=0
EXTRACT: note_on channel=5 note=81 velocity=0 time=0
EXTRACT: note_on channel=5 note=66 velocity=106 time=0
EXTRACT: note_on channel=5 note=78 velocity=113 time=0
EXTRACT: note_on channel=6 note=61 velocity=0 time=0
EXTRACT: note_on channel=6 note=62 velocity=124 time=0
EXTRACT: note_on channel=3 note=59 velocity=0 time=0.005263149999999999
EXTRACT: note_on channel=4 note=66 velocity=0 time=0.07368409999999999
EXTRACT: note_on channel=4 note=62 velocity=0 time=0
EXTRACT: note_on channel=4 note=59 velocity=0 time=0
EXTRACT: note_on channel=2 note=62 velocity=109 time=0.07368409999999999
EXTRACT: note_on channel=3 note=62 velocity=102 time=0.010526299999999999
EXTRACT: note_on channel=1 note=35 velocity=0 time=0.15263134999999997
EXTRACT: note_on channel=4 note=66 velocity=96 time=0
EXTRACT: note_on channel=4 note=62 velocity=108 time=0
EXTRACT: note_on channel=4 note=59 velocity=87 time=0
EXTRACT: note_on channel=4 note=54 velocity=115 time=0
EXTRACT: note_on channel=4 note=47 velocity=101 time=0
EXTRACT: note_on channel=7 note=66 velocity=109 time=0
EXTRACT: note_on channel=7 note=62 velocity=84 time=0
EXTRACT: note_on channel=7 note=59 velocity=80 time=0
EXTRACT: note_on channel=7 note=54 velocity=74 time=0
EXTRACT: note_on channel=7 note=47 velocity=96 time=0
EXTRACT: note_on channel=3 note=62 velocity=0 time=0.005263149999999999
EXTRACT: note_on channel=2 note=66 velocity=115 time=0.14736819999999998
EXTRACT: note_on channel=4 note=66 velocity=0 time=0.005263149999999999
EXTRACT: note_on channel=4 note=62 velocity=0 time=0
EXTRACT: note_on channel=4 note=59 velocity=0 time=0
EXTRACT: note_on channel=4 note=54 velocity=0 time=0
EXTRACT: note_on channel=4 note=47 velocity=0 time=0
EXTRACT: note_on channel=7 note=66 velocity=0 time=0
EXTRACT: note_on channel=7 note=62 velocity=0 time=0
EXTRACT: note_on channel=7 note=59 velocity=0 time=0
EXTRACT: note_on channel=7 note=54 velocity=0 time=0
EXTRACT: note_on channel=7 note=47 velocity=0 time=0
EXTRACT: note_on channel=3 note=62 velocity=118 time=0.005263149999999999
EXTRACT: note_on channel=2 note=66 velocity=116 time=0.14736819999999998
EXTRACT: note_on channel=9 note=40 velocity=127 time=0.005263149999999999
EXTRACT: note_on channel=6 note=62 velocity=0 time=0
EXTRACT: note_on channel=6 note=61 velocity=110 time=0
EXTRACT: note_on channel=9 note=40 velocity=0 time=0.0526315
EXTRACT: note_on channel=4 note=66 velocity=45 time=0.105263
EXTRACT: note_on channel=4 note=62 velocity=69 time=0
EXTRACT: note_on channel=4 note=59 velocity=63 time=0
EXTRACT: note_on channel=4 note=66 velocity=0 time=0.07894725
EXTRACT: note_on channel=4 note=62 velocity=0 time=0
EXTRACT: note_on channel=4 note=59 velocity=0 time=0
EXTRACT: note_on channel=2 note=62 velocity=110 time=0.07368409999999999
EXTRACT: note_on channel=1 note=30 velocity=111 time=0.005263149999999999
EXTRACT: note_on channel=4 note=66 velocity=76 time=0
EXTRACT: note_on channel=4 note=62 velocity=70 time=0
EXTRACT: note_on channel=4 note=59 velocity=68 time=0
EXTRACT: note_on channel=4 note=54 velocity=80 time=0
EXTRACT: note_on channel=4 note=47 velocity=59 time=0
EXTRACT: note_on channel=6 note=61 velocity=0 time=0
EXTRACT: note_on channel=6 note=59 velocity=126 time=0
EXTRACT: note_on channel=4 note=66 velocity=0 time=0.07894725
EXTRACT: note_on channel=4 note=62 velocity=0 time=0
EXTRACT: note_on channel=4 note=59 velocity=0 time=0
EXTRACT: note_on channel=4 note=54 velocity=0 time=0
EXTRACT: note_on channel=4 note=47 velocity=0 time=0
EXTRACT: note_on channel=1 note=30 velocity=0 time=0.07894725
EXTRACT: note_on channel=2 note=47 velocity=0 time=0.15263134999999997
EXTRACT: note_on channel=2 note=62 velocity=0 time=0
EXTRACT: note_on channel=2 note=66 velocity=0 time=0
EXTRACT: note_on channel=2 note=62 velocity=0 time=0
EXTRACT: note_on channel=2 note=59 velocity=0 time=0
EXTRACT: note_on channel=2 note=62 velocity=0 time=0
EXTRACT: note_on channel=2 note=66 velocity=0 time=0
EXTRACT: note_on channel=2 note=66 velocity=0 time=0
EXTRACT: note_on channel=2 note=47 velocity=118 time=0
EXTRACT: note_on channel=9 note=42 velocity=108 time=0.005263149999999999
EXTRACT: note_on channel=9 note=36 velocity=120 time=0
EXTRACT: note_on channel=1 note=35 velocity=118 time=0
EXTRACT: note_on channel=4 note=66 velocity=105 time=0
EXTRACT: note_on channel=4 note=62 velocity=91 time=0
EXTRACT: note_on channel=4 note=59 velocity=88 time=0
EXTRACT: note_on channel=4 note=54 velocity=85 time=0
EXTRACT: note_on channel=4 note=47 velocity=87 time=0
EXTRACT: note_on channel=5 note=66 velocity=0 time=0
EXTRACT: note_on channel=5 note=78 velocity=0 time=0
EXTRACT: note_on channel=5 note=71 velocity=105 time=0
EXTRACT: note_on channel=5 note=83 velocity=110 time=0
EXTRACT: note_on channel=6 note=59 velocity=0 time=0
EXTRACT: note_on channel=6 note=59 velocity=117 time=0
EXTRACT: note_on channel=7 note=66 velocity=90 time=0
EXTRACT: note_on channel=7 note=62 velocity=87 time=0
EXTRACT: note_on channel=7 note=59 velocity=101 time=0
EXTRACT: note_on channel=7 note=54 velocity=77 time=0
EXTRACT: note_on channel=7 note=47 velocity=107 time=0
EXTRACT: note_on channel=3 note=62 velocity=0 time=0.005263149999999999
EXTRACT: note_on channel=9 note=42 velocity=0 time=0.04736835
EXTRACT: note_on channel=9 note=36 velocity=0 time=0
EXTRACT: note_on channel=1 note=35 velocity=0 time=0.18421025
EXTRACT: note_on channel=2 note=62 velocity=0 time=0.07368409999999999
EXTRACT: note_on channel=2 note=62 velocity=126 time=0
EXTRACT: note_on channel=9 note=42 velocity=102 time=0.005263149999999999
EXTRACT: note_on channel=4 note=66 velocity=0 time=0
EXTRACT: note_on channel=4 note=62 velocity=0 time=0
EXTRACT: note_on channel=4 note=59 velocity=0 time=0
EXTRACT: note_on channel=4 note=54 velocity=0 time=0
EXTRACT: note_on channel=4 note=47 velocity=0 time=0
EXTRACT: note_on channel=5 note=71 velocity=0 time=0
EXTRACT: note_on channel=5 note=83 velocity=0 time=0
EXTRACT: note_on channel=6 note=59 velocity=0 time=0
EXTRACT: note_on channel=7 note=66 velocity=0 time=0
EXTRACT: note_on channel=7 note=62 velocity=0 time=0
EXTRACT: note_on channel=7 note=59 velocity=0 time=0
EXTRACT: note_on channel=7 note=54 velocity=0 time=0
EXTRACT: note_on channel=7 note=47 velocity=0 time=0
EXTRACT: note_on channel=3 note=62 velocity=117 time=0.005263149999999999
EXTRACT: note_on channel=9 note=42 velocity=0 time=0.04736835
EXTRACT: note_on channel=2 note=66 velocity=103 time=0.09999984999999999
EXTRACT: note_on channel=1 note=35 velocity=117 time=0.005263149999999999
EXTRACT: note_on channel=4 note=66 velocity=91 time=0
EXTRACT: note_on channel=4 note=62 velocity=90 time=0
EXTRACT: note_on channel=4 note=59 velocity=107 time=0
EXTRACT: note_on channel=4 note=54 velocity=91 time=0
EXTRACT: note_on channel=4 note=47 velocity=99 time=0
EXTRACT: note_on channel=5 note=69 velocity=100 time=0
EXTRACT: note_on channel=5 note=81 velocity=110 time=0
EXTRACT: note_on channel=6 note=59 velocity=113 time=0
EXTRACT: note_on channel=7 note=66 velocity=82 time=0
EXTRACT: note_on channel=7 note=62 velocity=79 time=0
EXTRACT: note_on channel=7 note=59 velocity=106 time=0
EXTRACT: note_on channel=7 note=54 velocity=83 time=0
EXTRACT: note_on channel=7 note=47 velocity=90 time=0
EXTRACT: note_on channel=9 note=42 velocity=100 time=0.1578945
EXTRACT: note_on channel=9 note=40 velocity=127 time=0
EXTRACT: note_on channel=9 note=69 velocity=62 time=0
EXTRACT: note_on channel=1 note=35 velocity=0 time=0
EXTRACT: note_on channel=4 note=66 velocity=0 time=0
EXTRACT: note_on channel=4 note=62 velocity=0 time=0
EXTRACT: note_on channel=4 note=59 velocity=0 time=0
EXTRACT: note_on channel=4 note=54 velocity=0 time=0
EXTRACT: note_on channel=4 note=47 velocity=0 time=0
EXTRACT: note_on channel=7 note=66 velocity=0 time=0
EXTRACT: note_on channel=7 note=62 velocity=0 time=0
EXTRACT: note_on channel=7 note=59 velocity=0 time=0
EXTRACT: note_on channel=7 note=54 velocity=0 time=0
EXTRACT: note_on channel=7 note=47 velocity=0 time=0
EXTRACT: note_on channel=3 note=62 velocity=0 time=0.005263149999999999
EXTRACT: note_on channel=9 note=42 velocity=0 time=0.04736835
EXTRACT: note_on channel=9 note=40 velocity=0 time=0
EXTRACT: note_on channel=9 note=69 velocity=0 time=0
EXTRACT: note_on channel=2 note=62 velocity=106 time=0.09999984999999999
EXTRACT: note_on channel=9 note=69 velocity=70 time=0.005263149999999999
EXTRACT: note_on channel=4 note=66 velocity=63 time=0
EXTRACT: note_on channel=4 note=62 velocity=53 time=0
EXTRACT: note_on channel=4 note=59 velocity=89 time=0
EXTRACT: note_on channel=4 note=54 velocity=57 time=0
EXTRACT: note_on channel=4 note=47 velocity=51 time=0
EXTRACT: note_on channel=3 note=62 velocity=107 time=0.005263149999999999
EXTRACT: note_on channel=9 note=69 velocity=0 time=0.04736835
EXTRACT: note_on channel=4 note=66 velocity=0 time=0.02631575
EXTRACT: note_on channel=4 note=62 velocity=0 time=0
EXTRACT: note_on channel=4 note=59 velocity=0 time=0
EXTRACT: note_on channel=4 note=54 velocity=0 time=0
EXTRACT: note_on channel=4 note=47 velocity=0 time=0
EXTRACT: note_on channel=9 note=42 velocity=97 time=0.07894725
EXTRACT: note_on channel=4 note=66 velocity=45 time=0
EXTRACT: note_on channel=4 note=62 velocity=41 time=0
EXTRACT: note_on channel=4 note=59 velocity=51 time=0
EXTRACT: note_on channel=5 note=69 velocity=0 time=0
EXTRACT: note_on channel=5 note=81 velocity=0 time=0
EXTRACT: note_on channel=5 note=69 velocity=111 time=0
EXTRACT: note_on channel=5 note=81 velocity=111 time=0
EXTRACT: note_on channel=6 note=59 velocity=0 time=0
EXTRACT: note_on channel=6 note=61 velocity=121 time=0
EXTRACT: note_on channel=3 note=62 velocity=0 time=0.005263149999999999
EXTRACT: note_on channel=3 note=61 velocity=107 time=0
EXTRACT: note_on channel=9 note=42 velocity=0 time=0.04736835
EXTRACT: note_on channel=4 note=66 velocity=0 time=0.02631575
EXTRACT: note_on channel=4 note=62 velocity=0 time=0
EXTRACT: note_on channel=4 note=59 velocity=0 time=0
EXTRACT: note_on channel=2 note=59 velocity=114 time=0.07368409999999999
EXTRACT: note_on channel=9 note=69 velocity=62 time=0.005263149999999999
EXTRACT: note_on channel=4 note=66 velocity=87 time=0
EXTRACT: note_on channel=4 note=62 velocity=62 time=0
EXTRACT: note_on channel=4 note=59 velocity=64 time=0
EXTRACT: note_on channel=4 note=54 velocity=67 time=0
EXTRACT: note_on channel=4 note=47 velocity=64 time=0
EXTRACT: note_on channel=3 note=61 velocity=0 time=0.005263149999999999
EXTRACT: note_on channel=3 note=59 velocity=105 time=0
EXTRACT: note_on channel=9 note=69 velocity=0 time=0.04736835
EXTRACT: note_on channel=4 note=66 velocity=0 time=0.02631575
EXTRACT: note_on channel=4 note=62 velocity=0 time=0
EXTRACT: note_on channel=4 note=59 velocity=0 time=0
EXTRACT: note_on channel=4 note=54 velocity=0 time=0
EXTRACT: note_on channel=4 note=47 velocity=0 time=0
EXTRACT: note_on channel=9 note=36 velocity=120 time=0.07894725
EXTRACT: note_on channel=9 note=42 velocity=101 time=0
EXTRACT: note_on channel=4 note=66 velocity=56 time=0
EXTRACT: note_on channel=4 note=62 velocity=46 time=0
EXTRACT: note_on channel=4 note=59 velocity=42 time=0
EXTRACT: note_on channel=5 note=69 velocity=0 time=0
EXTRACT: note_on channel=5 note=81 velocity=0 time=0
EXTRACT: note_on channel=5 note=66 velocity=107 time=0
EXTRACT: note_on channel=5 note=78 velocity=116 time=0
EXTRACT: note_on channel=6 note=61 velocity=0 time=0
EXTRACT: note_on channel=6 note=62 velocity=119 time=0
EXTRACT: note_on channel=3 note=59 velocity=0 time=0.005263149999999999
EXTRACT: note_on channel=9 note=36 velocity=0 time=0.04736835
EXTRACT: note_on channel=9 note=42 velocity=0 time=0
EXTRACT: note_on channel=4 note=66 velocity=0 time=0.02631575
EXTRACT: note_on channel=4 note=62 velocity=0 time=0
EXTRACT: note_on channel=4 note=59 velocity=0 time=0
EXTRACT: note_on channel=2 note=62 velocity=106 time=0.07368409999999999
EXTRACT: note_on channel=9 note=69 velocity=73 time=0.005263149999999999
EXTRACT: note_on channel=3 note=62 velocity=111 time=0.005263149999999999
EXTRACT: note_on channel=9 note=69 velocity=0 time=0.04736835
EXTRACT: note_on channel=9 note=42 velocity=96 time=0.105263
EXTRACT: note_on channel=9 note=69 velocity=78 time=0
EXTRACT: note_on channel=1 note=35 velocity=121 time=0
EXTRACT: note_on channel=4 note=66 velocity=112 time=0
EXTRACT: note_on channel=4 note=62 velocity=86 time=0
EXTRACT: note_on channel=4 note=59 velocity=88 time=0
EXTRACT: note_on channel=4 note=54 velocity=104 time=0
EXTRACT: note_on channel=4 note=47 velocity=97 time=0
EXTRACT: note_on channel=7 note=66 velocity=75 time=0
EXTRACT: note_on channel=7 note=62 velocity=92 time=0
EXTRACT: note_on channel=7 note=59 velocity=97 time=0
EXTRACT: note_on channel=7 note=54 velocity=108 time=0
EXTRACT: note_on channel=7 note=47 velocity=100 time=0
EXTRACT: note_on channel=3 note=62 velocity=0 time=0.005263149999999999
EXTRACT: note_on channel=9 note=42 velocity=0 time=0.04736835
EXTRACT: note_on channel=9 note=69 velocity=0 time=0
EXTRACT: note_on channel=2 note=66 velocity=115 time=0.09999984999999999
EXTRACT: note_on channel=1 note=35 velocity=0 time=0.005263149999999999
EXTRACT: note_on channel=4 note=66 velocity=0 time=0
EXTRACT: note_on channel=4 note=62 velocity=0 time=0
EXTRACT: note_on channel=4 note=59 velocity=0 time=0
EXTRACT: note_on channel=4 note=54 velocity=0 time=0
EXTRACT: note_on channel=4 note=47 velocity=0 time=0
EXTRACT: note_on channel=7 note=66 velocity=0 time=0
EXTRACT: note_on channel=7 note=62 velocity=0 time=0
EXTRACT: note_on channel=7 note=59 velocity=0 time=0
EXTRACT: note_on channel=7 note=54 velocity=0 time=0
EXTRACT: note_on channel=7 note=47 velocity=0 time=0
EXTRACT: note_on channel=3 note=62 velocity=103 time=0.005263149999999999
EXTRACT: note_on channel=2 note=66 velocity=120 time=0.14736819999999998
EXTRACT: note_on channel=9 note=40 velocity=127 time=0.005263149999999999
EXTRACT: note_on channel=9 note=42 velocity=95 time=0
EXTRACT: note_on channel=9 note=69 velocity=66 time=0
EXTRACT: note_on channel=6 note=62 velocity=0 time=0
EXTRACT: note_on channel=6 note=61 velocity=122 time=0
EXTRACT: note_on channel=9 note=40 velocity=0 time=0.0526315
EXTRACT: note_on channel=9 note=42 velocity=0 time=0
EXTRACT: note_on channel=9 note=69 velocity=0 time=0
EXTRACT: note_on channel=4 note=66 velocity=45 time=0.105263
EXTRACT: note_on channel=4 note=62 velocity=61 time=0
EXTRACT: note_on channel=4 note=59 velocity=48 time=0
EXTRACT: note_on channel=4 note=66 velocity=0 time=0.07894725
EXTRACT: note_on channel=4 note=62 velocity=0 time=0
EXTRACT: note_on channel=4 note=59 velocity=0 time=0
EXTRACT: note_on channel=2 note=62 velocity=118 time=0.07368409999999999
EXTRACT: note_on channel=9 note=36 velocity=90 time=0.005263149999999999
EXTRACT: note_on channel=9 note=42 velocity=109 time=0
EXTRACT: note_on channel=1 note=38 velocity=126 time=0
EXTRACT: note_on channel=4 note=66 velocity=73 time=0
EXTRACT: note_on channel=4 note=62 velocity=81 time=0
EXTRACT: note_on channel=4 note=59 velocity=89 time=0
EXTRACT: note_on channel=4 note=54 velocity=76 time=0
EXTRACT: note_on channel=4 note=47 velocity=62 time=0
EXTRACT: note_on channel=6 note=61 velocity=0 time=0
EXTRACT: note_on channel=6 note=59 velocity=115 time=0
EXTRACT: note_on channel=9 note=36 velocity=0 time=0.0526315
EXTRACT: note_on channel=9 note=42 velocity=0 time=0
EXTRACT: note_on channel=4 note=66 velocity=0 time=0.02631575
EXTRACT: note_on channel=4 note=62 velocity=0 time=0
EXTRACT: note_on channel=4 note=59 velocity=0 time=0
EXTRACT: note_on channel=4 note=54 velocity=0 time=0
EXTRACT: note_on channel=4 note=47 velocity=0 time=0
EXTRACT: note_on channel=9 note=40 velocity=127 time=0.07894725
EXTRACT: note_on channel=1 note=38 velocity=0 time=0
EXTRACT: note_on channel=9 note=40 velocity=0 time=0.0526315
EXTRACT: note_on channel=2 note=47 velocity=0 time=0.09999984999999999
EXTRACT: note_on channel=2 note=62 velocity=0 time=0
EXTRACT: note_on channel=2 note=66 velocity=0 time=0
EXTRACT: note_on channel=2 note=62 velocity=0 time=0
EXTRACT: note_on channel=2 note=59 velocity=0 time=0
EXTRACT: note_on channel=2 note=62 velocity=0 time=0
EXTRACT: note_on channel=2 note=66 velocity=0 time=0
EXTRACT: note_on channel=2 note=66 velocity=0 time=0
EXTRACT: note_on channel=2 note=62 velocity=0 time=0
EXTRACT: note_on channel=2 note=40 velocity=112 time=0
EXTRACT: note_on channel=9 note=42 velocity=109 time=0.005263149999999999
EXTRACT: note_on channel=9 note=36 velocity=120 time=0
EXTRACT: note_on channel=1 note=40 velocity=118 time=0
EXTRACT: note_on channel=4 note=67 velocity=116 time=0
EXTRACT: note_on channel=4 note=62 velocity=85 time=0
EXTRACT: note_on channel=4 note=59 velocity=114 time=0
EXTRACT: note_on channel=4 note=55 velocity=107 time=0
EXTRACT: note_on channel=4 note=47 velocity=109 time=0
EXTRACT: note_on channel=5 note=66 velocity=0 time=0
EXTRACT: note_on channel=5 note=78 velocity=0 time=0
EXTRACT: note_on channel=5 note=76 velocity=111 time=0
EXTRACT: note_on channel=5 note=88 velocity=112 time=0
EXTRACT: note_on channel=6 note=59 velocity=0 time=0
EXTRACT: note_on channel=7 note=67 velocity=107 time=0
EXTRACT: note_on channel=7 note=62 velocity=107 time=0
EXTRACT: note_on channel=7 note=59 velocity=107 time=0
EXTRACT: note_on channel=7 note=55 velocity=107 time=0
EXTRACT: note_on channel=7 note=47 velocity=74 time=0
EXTRACT: note_on channel=3 note=62 velocity=0 time=0.005263149999999999
EXTRACT: note_on channel=9 note=42 velocity=0 time=0.04736835
EXTRACT: note_on channel=9 note=36 velocity=0 time=0
EXTRACT: note_on channel=1 note=40 velocity=0 time=0.07894725
EXTRACT: note_on channel=2 note=62 velocity=116 time=0.17894709999999997
EXTRACT: note_on channel=9 note=42 velocity=108 time=0.005263149999999999
EXTRACT: note_on channel=1 note=40 velocity=114 time=0
EXTRACT: note_on channel=4 note=67 velocity=0 time=0
EXTRACT: note_on channel=4 note=62 velocity=0 time=0
EXTRACT: note_on channel=4 note=59 velocity=0 time=0
EXTRACT: note_on channel=4 note=55 velocity=0 time=0
EXTRACT: note_on channel=4 note=47 velocity=0 time=0
EXTRACT: note_on channel=5 note=76 velocity=0 time=0
EXTRACT: note_on channel=5 note=88 velocity=0 time=0
EXTRACT: note_on channel=7 note=67 velocity=0 time=0
EXTRACT: note_on channel=7 note=62 velocity=0 time=0
EXTRACT: note_on channel=7 note=59 velocity=0 time=0
EXTRACT: note_on channel=7 note=55 velocity=0 time=0
EXTRACT: note_on channel=7 note=47 velocity=0 time=0
EXTRACT: note_on channel=3 note=62 velocity=106 time=0.005263149999999999
EXTRACT: note_on channel=9 note=42 velocity=0 time=0.04736835
EXTRACT: note_on channel=1 note=40 velocity=0 time=0.09999984999999999
EXTRACT: note_on channel=2 note=67 velocity=111 time=0
EXTRACT: note_on channel=1 note=35 velocity=122 time=0.005263149999999999
EXTRACT: note_on channel=4 note=67 velocity=111 time=0
EXTRACT: note_on channel=4 note=62 velocity=116 time=0
EXTRACT: note_on channel=4 note=59 velocity=101 time=0
EXTRACT: note_on channel=4 note=55 velocity=116 time=0
EXTRACT: note_on channel=4 note=47 velocity=95 time=0
EXTRACT: note_on channel=5 note=74 velocity=103 time=0
EXTRACT: note_on channel=5 note=86 velocity=114 time=0
EXTRACT: note_on channel=7 note=67 velocity=100 time=0
EXTRACT: note_on channel=7 note=62 velocity=81 time=0
EXTRACT: note_on channel=7 note=59 velocity=77 time=0
EXTRACT: note_on channel=7 note=55 velocity=111 time=0
EXTRACT: note_on channel=7 note=47 velocity=85 time=0
EXTRACT: note_on channel=9 note=42 velocity=97 time=0.1578945
EXTRACT: note_on channel=9 note=40 velocity=127 time=0
EXTRACT: note_on channel=9 note=69 velocity=62 time=0
EXTRACT: note_on channel=1 note=35 velocity=0 time=0
EXTRACT: note_on channel=4 note=67 velocity=0 time=0
EXTRACT: note_on channel=4 note=62 velocity=0 time=0
EXTRACT: note_on channel=4 note=59 velocity=0 time=0
EXTRACT: note_on channel=4 note=55 velocity=0 time=0
EXTRACT: note_on channel=4 note=47 velocity=0 time=0
EXTRACT: note_on channel=7 note=67 velocity=0 time=0
EXTRACT: note_on channel=7 note=62 velocity=0 time=0
EXTRACT: note_on channel=7 note=59 velocity=0 time=0
EXTRACT: note_on channel=7 note=55 velocity=0 time=0
EXTRACT: note_on channel=7 note=47 velocity=0 time=0
EXTRACT: note_on channel=3 note=62 velocity=0 time=0.005263149999999999
EXTRACT: note_on channel=9 note=42 velocity=0 time=0.04736835
EXTRACT: note_on channel=9 note=40 velocity=0 time=0
EXTRACT: note_on channel=9 note=69 velocity=0 time=0
EXTRACT: note_on channel=2 note=62 velocity=121 time=0.09999984999999999
EXTRACT: note_on channel=9 note=69 velocity=70 time=0.005263149999999999
EXTRACT: note_on channel=1 note=35 velocity=125 time=0
EXTRACT: note_on channel=4 note=67 velocity=77 time=0
EXTRACT: note_on channel=4 note=62 velocity=79 time=0
EXTRACT: note_on channel=4 note=59 velocity=77 time=0
EXTRACT: note_on channel=4 note=55 velocity=75 time=0
EXTRACT: note_on channel=4 note=47 velocity=69 time=0
EXTRACT: note_on channel=3 note=62 velocity=127 time=0.005263149999999999
EXTRACT: note_on channel=9 note=69 velocity=0 time=0.04736835
EXTRACT: note_on channel=4 note=67 velocity=0 time=0.02631575
EXTRACT: note_on channel=4 note=62 velocity=0 time=0
EXTRACT: note_on channel=4 note=59 velocity=0 time=0
EXTRACT: note_on channel=4 note=55 velocity=0 time=0
EXTRACT: note_on channel=4 note=47 velocity=0 time=0
EXTRACT: note_on channel=1 note=35 velocity=0 time=0.07368409999999999
EXTRACT: note_on channel=9 note=42 velocity=95 time=0.005263149999999999
EXTRACT: note_on channel=1 note=31 velocity=109 time=0
EXTRACT: note_on channel=4 note=67 velocity=43 time=0
EXTRACT: note_on channel=4 note=62 velocity=46 time=0
EXTRACT: note_on channel=4 note=59 velocity=50 time=0
EXTRACT: note_on channel=5 note=74 velocity=0 time=0
EXTRACT: note_on channel=5 note=86 velocity=0 time=0
EXTRACT: note_on channel=5 note=74 velocity=113 time=0
EXTRACT: note_on channel=5 note=86 velocity=113 time=0
EXTRACT: note_on channel=6 note=66 velocity=118 time=0
EXTRACT: note_on channel=3 note=62 velocity=0 time=0.005263149999999999
EXTRACT: note_on channel=3 note=61 velocity=120 time=0
EXTRACT: note_on channel=9 note=42 velocity=0 time=0.04736835
EXTRACT: note_on channel=4 note=67 velocity=0 time=0.02631575
EXTRACT: note_on channel=4 note=62 velocity=0 time=0
EXTRACT: note_on channel=4 note=59 velocity=0 time=0
EXTRACT: note_on channel=2 note=59 velocity=114 time=0.07368409999999999
EXTRACT: note_on channel=9 note=69 velocity=62 time=0.005263149999999999
EXTRACT: note_on channel=1 note=31 velocity=0 time=0
EXTRACT: note_on channel=4 note=67 velocity=79 time=0
EXTRACT: note_on channel=4 note=62 velocity=69 time=0
EXTRACT: note_on channel=4 note=59 velocity=68 time=0
EXTRACT: note_on channel=4 note=55 velocity=67 time=0
EXTRACT: note_on channel=4 note=47 velocity=85 time=0
EXTRACT: note_on channel=3 note=61 velocity=0 time=0.005263149999999999
EXTRACT: note_on channel=3 note=59 velocity=106 time=0
EXTRACT: note_on channel=9 note=69 velocity=0 time=0.04736835
EXTRACT: note_on channel=4 note=67 velocity=0 time=0.02631575
EXTRACT: note_on channel=4 note=62 velocity=0 time=0
EXTRACT: note_on channel=4 note=59 velocity=0 time=0
EXTRACT: note_on channel=4 note=55 velocity=0 time=0
EXTRACT: note_on channel=4 note=47 velocity=0 time=0
EXTRACT: note_on channel=9 note=36 velocity=120 time=0.07894725
EXTRACT: note_on channel=9 note=42 velocity=98 time=0
EXTRACT: note_on channel=1 note=28 velocity=109 time=0
EXTRACT: note_on channel=4 note=67 velocity=71 time=0
EXTRACT: note_on channel=4 note=62 velocity=50 time=0
EXTRACT: note_on channel=4 note=59 velocity=71 time=0
EXTRACT: note_on channel=5 note=74 velocity=0 time=0
EXTRACT: note_on channel=5 note=86 velocity=0 time=0
EXTRACT: note_on channel=5 note=71 velocity=111 time=0
EXTRACT: note_on channel=5 note=83 velocity=109 time=0
EXTRACT: note_on channel=6 note=66 velocity=0 time=0
EXTRACT: note_on channel=3 note=59 velocity=0 time=0.005263149999999999
EXTRACT: note_on channel=9 note=36 velocity=0 time=0.04736835
EXTRACT: note_on channel=9 note=42 velocity=0 time=0
EXTRACT: note_on channel=4 note=67 velocity=0 time=0.02631575
EXTRACT: note_on channel=4 note=62 velocity=0 time=0
EXTRACT: note_on channel=4 note=59 velocity=0 time=0
EXTRACT: note_on channel=2 note=62 velocity=102 time=0.07368409999999999
EXTRACT: note_on channel=9 note=69 velocity=73 time=0.005263149999999999
EXTRACT: note_on channel=3 note=62 velocity=107 time=0.005263149999999999
EXTRACT: note_on channel=9 note=69 velocity=0 time=0.04736835
EXTRACT: note_on channel=9 note=42 velocity=91 time=0.105263
EXTRACT: note_on channel=9 note=69 velocity=78 time=0
EXTRACT: note_on channel=1 note=28 velocity=0 time=0
EXTRACT: note_on channel=4 note=67 velocity=95 time=0
EXTRACT: note_on channel=4 note=62 velocity=97 time=0
EXTRACT: note_on channel=4 note=59 velocity=110 time=0
EXTRACT: note_on channel=4 note=55 velocity=109 time=0
EXTRACT: note_on channel=4 note=47 velocity=105 time=0
EXTRACT: note_on channel=6 note=67 velocity=119 time=0
EXTRACT: note_on channel=7 note=67 velocity=81 time=0
EXTRACT: note_on channel=7 note=62 velocity=87 time=0
EXTRACT: note_on channel=7 note=59 velocity=101 time=0
EXTRACT: note_on channel=7 note=55 velocity=74 time=0
EXTRACT: note_on channel=7 note=47 velocity=86 time=0
EXTRACT: note_on channel=3 note=62 velocity=0 time=0.005263149999999999
EXTRACT: note_on channel=9 note=42 velocity=0 time=0.04736835
EXTRACT: note_on channel=9 note=69 velocity=0 time=0
EXTRACT: note_on channel=2 note=67 velocity=114 time=0.09999984999999999
EXTRACT: note_on channel=4 note=67 velocity=0 time=0.005263149999999999
EXTRACT: note_on channel=4 note=62 velocity=0 time=0
EXTRACT: note_on channel=4 note=59 velocity=0 time=0
EXTRACT: note_on channel=4 note=55 velocity=0 time=0
EXTRACT: note_on channel=4 note=47 velocity=0 time=0
EXTRACT: note_on channel=7 note=67 velocity=0 time=0
EXTRACT: note_on channel=7 note=62 velocity=0 time=0
EXTRACT: note_on channel=7 note=59 velocity=0 time=0
EXTRACT: note_on channel=7 note=55 velocity=0 time=0
EXTRACT: note_on channel=7 note=47 velocity=0 time=0
EXTRACT: note_on channel=3 note=62 velocity=102 time=0.005263149999999999
EXTRACT: note_on channel=2 note=67 velocity=102 time=0.14736819999999998
EXTRACT: note_on channel=9 note=40 velocity=127 time=0.005263149999999999
EXTRACT: note_on channel=9 note=42 velocity=94 time=0
EXTRACT: note_on channel=9 note=69 velocity=66 time=0
EXTRACT: note_on channel=6 note=67 velocity=0 time=0
EXTRACT: note_on channel=6 note=66 velocity=116 time=0
EXTRACT: note_on channel=9 note=40 velocity=0 time=0.0526315
EXTRACT: note_on channel=9 note=42 velocity=0 time=0
EXTRACT: note_on channel=9 note=69 velocity=0 time=0
EXTRACT: note_on channel=4 note=67 velocity=55 time=0.105263
EXTRACT: note_on channel=4 note=62 velocity=63 time=0
EXTRACT: note_on channel=4 note=59 velocity=71 time=0
EXTRACT: note_on channel=4 note=67 velocity=0 time=0.07894725
EXTRACT: note_on channel=4 note=62 velocity=0 time=0
EXTRACT: note_on channel=4 note=59 velocity=0 time=0
EXTRACT: note_on channel=2 note=62 velocity=108 time=0.07368409999999999
EXTRACT: note_on channel=9 note=42 velocity=97 time=0.005263149999999999
EXTRACT: note_on channel=1 note=28 velocity=115 time=0
EXTRACT: note_on channel=4 note=67 velocity=79 time=0
EXTRACT: note_on channel=4 note=62 velocity=72 time=0
EXTRACT: note_on channel=4 note=59 velocity=66 time=0
EXTRACT: note_on channel=4 note=55 velocity=66 time=0
EXTRACT: note_on channel=4 note=47 velocity=78 time=0
EXTRACT: note_on channel=6 note=66 velocity=0 time=0
EXTRACT: note_on channel=6 note=64 velocity=115 time=0
EXTRACT: note_on channel=9 note=42 velocity=0 time=0.0526315
EXTRACT: note_on channel=4 note=67 velocity=0 time=0.02631575
EXTRACT: note_on channel=4 note=62 velocity=0 time=0
EXTRACT: note_on channel=4 note=59 velocity=0 time=0
EXTRACT: note_on channel=4 note=55 velocity=0 time=0
EXTRACT: note_on channel=4 note=47 velocity=0 time=0
EXTRACT: note_on channel=1 note=28 velocity=0 time=0.07894725
EXTRACT: note_on channel=2 note=40 velocity=0 time=0.15263134999999997
EXTRACT: note_on channel=2 note=62 velocity=0 time=0
EXTRACT: note_on channel=2 note=67 velocity=0 time=0
EXTRACT: note_on channel=2 note=62 velocity=0 time=0
EXTRACT: note_on channel=2 note=59 velocity=0 time=0
EXTRACT: note_on channel=2 note=62 velocity=0 time=0
EXTRACT: note_on channel=2 note=67 velocity=0 time=0
EXTRACT: note_on channel=2 note=67 velocity=0 time=0
EXTRACT: note_on channel=2 note=62 velocity=0 time=0
EXTRACT: note_on channel=2 note=57 velocity=110 time=0
EXTRACT: note_on channel=2 note=54 velocity=117 time=0
EXTRACT: note_on channel=9 note=42 velocity=102 time=0.005263149999999999
EXTRACT: note_on channel=9 note=36 velocity=120 time=0
EXTRACT: note_on channel=1 note=30 velocity=111 time=0
EXTRACT: note_on channel=4 note=64 velocity=100 time=0
EXTRACT: note_on channel=4 note=61 velocity=101 time=0
EXTRACT: note_on channel=4 note=57 velocity=93 time=0
EXTRACT: note_on channel=4 note=54 velocity=106 time=0
EXTRACT: note_on channel=5 note=71 velocity=0 time=0
EXTRACT: note_on channel=5 note=83 velocity=0 time=0
EXTRACT: note_on channel=5 note=90 velocity=100 time=0
EXTRACT: note_on channel=5 note=78 velocity=99 time=0
EXTRACT: note_on channel=6 note=64 velocity=0 time=0
EXTRACT: note_on channel=6 note=57 velocity=124 time=0
EXTRACT: note_on channel=7 note=64 velocity=82 time=0
EXTRACT: note_on channel=7 note=61 velocity=74 time=0
EXTRACT: note_on channel=7 note=57 velocity=76 time=0
EXTRACT: note_on channel=7 note=54 velocity=95 time=0
EXTRACT: note_on channel=3 note=62 velocity=0 time=0.005263149999999999
EXTRACT: note_on channel=9 note=42 velocity=0 time=0.04736835
EXTRACT: note_on channel=9 note=36 velocity=0 time=0
EXTRACT: note_on channel=1 note=30 velocity=0 time=0.15263134999999997
EXTRACT: note_on channel=1 note=30 velocity=109 time=0.005263149999999999
EXTRACT: note_on channel=2 note=61 velocity=124 time=0.09999984999999999
EXTRACT: note_on channel=9 note=42 velocity=95 time=0.005263149999999999
EXTRACT: note_on channel=4 note=64 velocity=0 time=0
EXTRACT: note_on channel=4 note=61 velocity=0 time=0
EXTRACT: note_on channel=4 note=57 velocity=0 time=0
EXTRACT: note_on channel=4 note=54 velocity=0 time=0
EXTRACT: note_on channel=5 note=90 velocity=0 time=0
EXTRACT: note_on channel=5 note=78 velocity=0 time=0
EXTRACT: note_on channel=7 note=64 velocity=0 time=0
EXTRACT: note_on channel=7 note=61 velocity=0 time=0
EXTRACT: note_on channel=7 note=57 velocity=0 time=0
EXTRACT: note_on channel=7 note=54 velocity=0 time=0
EXTRACT: note_on channel=3 note=61 velocity=110 time=0.005263149999999999
EXTRACT: note_on channel=9 note=42 velocity=0 time=0.04736835
EXTRACT: note_on channel=1 note=30 velocity=0 time=0.04736835
EXTRACT: note_on channel=1 note=30 velocity=122 time=0.005263149999999999
EXTRACT: note_on channel=2 note=64 velocity=115 time=0.04736835
EXTRACT: note_on channel=4 note=64 velocity=99 time=0.005263149999999999
EXTRACT: note_on channel=4 note=61 velocity=98 time=0
EXTRACT: note_on channel=4 note=57 velocity=94 time=0
EXTRACT: note_on channel=4 note=54 velocity=95 time=0
EXTRACT: note_on channel=5 note=90 velocity=98 time=0
EXTRACT: note_on channel=5 note=78 velocity=107 time=0
EXTRACT: note_on channel=7 note=64 velocity=87 time=0
EXTRACT: note_on channel=7 note=61 velocity=86 time=0
EXTRACT: note_on channel=7 note=57 velocity=80 time=0
EXTRACT: note_on channel=7 note=54 velocity=104 time=0
EXTRACT: note_on channel=1 note=30 velocity=0 time=0.15263134999999997
EXTRACT: note_on channel=9 note=42 velocity=107 time=0.005263149999999999
EXTRACT: note_on channel=9 note=40 velocity=127 time=0
EXTRACT: note_on channel=9 note=69 velocity=62 time=0
EXTRACT: note_on channel=1 note=37 velocity=119 time=0
EXTRACT: note_on channel=4 note=64 velocity=0 time=0
EXTRACT: note_on channel=4 note=61 velocity=0 time=0
EXTRACT: note_on channel=4 note=57 velocity=0 time=0
EXTRACT: note_on channel=4 note=54 velocity=0 time=0
EXTRACT: note_on channel=6 note=57 velocity=0 time=0
EXTRACT: note_on channel=6 note=57 velocity=125 time=0
EXTRACT: note_on channel=7 note=64 velocity=0 time=0
EXTRACT: note_on channel=7 note=61 velocity=0 time=0
EXTRACT: note_on channel=7 note=57 velocity=0 time=0
EXTRACT: note_on channel=7 note=54 velocity=0 time=0
EXTRACT: note_on channel=3 note=61 velocity=0 time=0.005263149999999999
EXTRACT: note_on channel=9 note=42 velocity=0 time=0.04736835
EXTRACT: note_on channel=9 note=40 velocity=0 time=0
EXTRACT: note_on channel=9 note=69 velocity=0 time=0
EXTRACT: note_on channel=2 note=61 velocity=123 time=0.09999984999999999
EXTRACT: note_on channel=9 note=69 velocity=70 time=0.005263149999999999
EXTRACT: note_on channel=4 note=64 velocity=73 time=0
EXTRACT: note_on channel=4 note=61 velocity=91 time=0
EXTRACT: note_on channel=4 note=57 velocity=56 time=0
EXTRACT: note_on channel=4 note=54 velocity=83 time=0
EXTRACT: note_on channel=5 note=90 velocity=0 time=0
EXTRACT: note_on channel=5 note=78 velocity=0 time=0
EXTRACT: note_on channel=3 note=61 velocity=105 time=0.005263149999999999
EXTRACT: note_on channel=9 note=69 velocity=0 time=0.04736835
EXTRACT: note_on channel=1 note=37 velocity=0 time=0.02631575
EXTRACT: note_on channel=4 note=64 velocity=0 time=0
EXTRACT: note_on channel=4 note=61 velocity=0 time=0
EXTRACT: note_on channel=4 note=57 velocity=0 time=0
EXTRACT: note_on channel=4 note=54 velocity=0 time=0
EXTRACT: note_on channel=9 note=42 velocity=107 time=0.07894725
EXTRACT: note_on channel=1 note=42 velocity=117 time=0
EXTRACT: note_on channel=4 note=64 velocity=69 time=0
EXTRACT: note_on channel=4 note=61 velocity=68 time=0
EXTRACT: note_on channel=4 note=57 velocity=41 time=0
EXTRACT: note_on channel=6 note=57 velocity=0 time=0
EXTRACT: note_on channel=6 note=59 velocity=113 time=0
EXTRACT: note_on channel=9 note=42 velocity=0 time=0.0526315
EXTRACT: note_on channel=4 note=64 velocity=0 time=0.02631575
EXTRACT: note_on channel=4 note=61 velocity=0 time=0
EXTRACT: note_on channel=4 note=57 velocity=0 time=0
EXTRACT: note_on channel=2 note=57 velocity=102 time=0.07368409999999999
EXTRACT: note_on channel=9 note=69 velocity=62 time=0.005263149999999999
EXTRACT: note_on channel=4 note=64 velocity=53 time=0
EXTRACT: note_on channel=4 note=61 velocity=80 time=0
EXTRACT: note_on channel=4 note=57 velocity=75 time=0
EXTRACT: note_on channel=4 note=54 velocity=59 time=0
EXTRACT: note_on channel=3 note=61 velocity=0 time=0.005263149999999999
EXTRACT: note_on channel=9 note=69 velocity=0 time=0.04736835
EXTRACT: note_on channel=1 note=42 velocity=0 time=0.02631575
EXTRACT: note_on channel=4 note=64 velocity=0 time=0
EXTRACT: note_on channel=4 note=61 velocity=0 time=0
EXTRACT: note_on channel=4 note=57 velocity=0 time=0
EXTRACT: note_on channel=4 note=54 velocity=0 time=0
EXTRACT: note_on channel=2 note=61 velocity=114 time=0.07368409999999999
EXTRACT: note_on channel=9 note=36 velocity=120 time=0.005263149999999999
EXTRACT: note_on channel=9 note=42 velocity=99 time=0
EXTRACT: note_on channel=1 note=37 velocity=125 time=0
EXTRACT: note_on channel=4 note=64 velocity=41 time=0
EXTRACT: note_on channel=4 note=61 velocity=56 time=0
EXTRACT: note_on channel=4 note=57 velocity=49 time=0
EXTRACT: note_on channel=5 note=90 velocity=111 time=0
EXTRACT: note_on channel=5 note=78 velocity=114 time=0
EXTRACT: note_on channel=6 note=59 velocity=0 time=0
EXTRACT: note_on channel=6 note=61 velocity=109 time=0
EXTRACT: note_on channel=3 note=61 velocity=112 time=0.005263149999999999
EXTRACT: note_on channel=9 note=36 velocity=0 time=0.04736835
EXTRACT: note_on channel=9 note=42 velocity=0 time=0
EXTRACT: note_on channel=4 note=64 velocity=0 time=0.02631575
EXTRACT: note_on channel=4 note=61 velocity=0 time=0
EXTRACT: note_on channel=4 note=57 velocity=0 time=0
EXTRACT: note_on channel=2 note=64 velocity=112 time=0.07368409999999999
EXTRACT: note_on channel=9 note=69 velocity=73 time=0.005263149999999999
EXTRACT: note_on channel=9 note=69 velocity=0 time=0.0526315
EXTRACT: note_on channel=2 note=66 velocity=119 time=0.09999984999999999
EXTRACT: note_on channel=9 note=36 velocity=120 time=0.005263149999999999
EXTRACT: note_on channel=9 note=42 velocity=109 time=0
EXTRACT: note_on channel=9 note=69 velocity=78 time=0
EXTRACT: note_on channel=4 note=64 velocity=99 time=0
EXTRACT: note_on channel=4 note=61 velocity=108 time=0
EXTRACT: note_on channel=4 note=57 velocity=94 time=0
EXTRACT: note_on channel=4 note=54 velocity=102 time=0
EXTRACT: note_on channel=5 note=90 velocity=0 time=0
EXTRACT: note_on channel=5 note=78 velocity=0 time=0
EXTRACT: note_on channel=7 note=64 velocity=108 time=0
EXTRACT: note_on channel=7 note=61 velocity=85 time=0
EXTRACT: note_on channel=7 note=57 velocity=80 time=0
EXTRACT: note_on channel=7 note=54 velocity=111 time=0
EXTRACT: note_on channel=9 note=36 velocity=0 time=0.0526315
EXTRACT: note_on channel=9 note=42 velocity=0 time=0
EXTRACT: note_on channel=9 note=69 velocity=0 time=0
EXTRACT: note_on channel=1 note=37 velocity=0 time=0.04736835
EXTRACT: note_on channel=1 note=42 velocity=109 time=0.005263149999999999
EXTRACT: note_on channel=2 note=69 velocity=112 time=0.04736835
EXTRACT: note_on channel=4 note=64 velocity=0 time=0.005263149999999999
EXTRACT: note_on channel=4 note=61 velocity=0 time=0
EXTRACT: note_on channel=4 note=57 velocity=0 time=0
EXTRACT: note_on channel=4 note=54 velocity=0 time=0
EXTRACT: note_on channel=5 note=90 velocity=109 time=0
EXTRACT: note_on channel=5 note=78 velocity=117 time=0
EXTRACT: note_on channel=7 note=64 velocity=0 time=0
EXTRACT: note_on channel=7 note=61 velocity=0 time=0
EXTRACT: note_on channel=7 note=57 velocity=0 time=0
EXTRACT: note_on channel=7 note=54 velocity=0 time=0
EXTRACT: note_on channel=9 note=40 velocity=127 time=0.1578945
EXTRACT: note_on channel=9 note=42 velocity=99 time=0
EXTRACT: note_on channel=9 note=69 velocity=66 time=0
EXTRACT: note_on channel=6 note=61 velocity=0 time=0
EXTRACT: note_on channel=6 note=59 velocity=108 time=0
EXTRACT: note_on channel=9 note=40 velocity=0 time=0.0526315
EXTRACT: note_on channel=9 note=42 velocity=0 time=0
EXTRACT: note_on channel=9 note=69 velocity=0 time=0
EXTRACT: note_on channel=4 note=64 velocity=49 time=0.105263
EXTRACT: note_on channel=4 note=61 velocity=45 time=0
EXTRACT: note_on channel=4 note=57 velocity=65 time=0
EXTRACT: note_on channel=5 note=90 velocity=0 time=0
EXTRACT: note_on channel=5 note=78 velocity=0 time=0
EXTRACT: note_on channel=1 note=42 velocity=0 time=0.04736835
EXTRACT: note_on channel=1 note=49 velocity=114 time=0.005263149999999999
EXTRACT: note_on channel=4 note=64 velocity=0 time=0.02631575
EXTRACT: note_on channel=4 note=61 velocity=0 time=0
EXTRACT: note_on channel=4 note=57 velocity=0 time=0
EXTRACT: note_on channel=9 note=36 velocity=90 time=0.07894725
EXTRACT: note_on channel=9 note=42 velocity=94 time=0
EXTRACT: note_on channel=4 note=64 velocity=57 time=0
EXTRACT: note_on channel=4 note=61 velocity=66 time=0
EXTRACT: note_on channel=4 note=57 velocity=64 time=0
EXTRACT: note_on channel=4 note=54 velocity=90 time=0
EXTRACT: note_on channel=6 note=59 velocity=0 time=0
EXTRACT: note_on channel=6 note=57 velocity=119 time=0
EXTRACT: note_on channel=3 note=61 velocity=95 time=0.005263149999999999
EXTRACT: note_on channel=9 note=36 velocity=0 time=0.04736835
EXTRACT: note_on channel=9 note=42 velocity=0 time=0
EXTRACT: note_on channel=4 note=64 velocity=0 time=0.02631575
EXTRACT: note_on channel=4 note=61 velocity=0 time=0
EXTRACT: note_on channel=4 note=57 velocity=0 time=0
EXTRACT: note_on channel=4 note=54 velocity=0 time=0
EXTRACT: note_on channel=9 note=40 velocity=127 time=0.07894725
EXTRACT: note_on channel=9 note=40 velocity=0 time=0.0526315
EXTRACT: note_on channel=1 note=49 velocity=0 time=0.09999984999999999
EXTRACT: note_on channel=2 note=57 velocity=0 time=0
EXTRACT: note_on channel=2 note=54 velocity=0 time=0
EXTRACT: note_on channel=2 note=61 velocity=0 time=0
EXTRACT: note_on channel=2 note=64 velocity=0 time=0
EXTRACT: note_on channel=2 note=61 velocity=0 time=0
EXTRACT: note_on channel=2 note=57 velocity=0 time=0
EXTRACT: note_on channel=2 note=61 velocity=0 time=0
EXTRACT: note_on channel=2 note=64 velocity=0 time=0
EXTRACT: note_on channel=2 note=66 velocity=0 time=0
EXTRACT: note_on channel=2 note=69 velocity=0 time=0
EXTRACT: note_on channel=2 note=47 velocity=117 time=0
EXTRACT: note_on channel=9 note=57 velocity=90 time=0.005263149999999999
EXTRACT: note_on channel=9 note=36 velocity=120 time=0
EXTRACT: note_on channel=1 note=35 velocity=124 time=0
EXTRACT: note_on channel=4 note=66 velocity=110 time=0
EXTRACT: note_on channel=4 note=62 velocity=116 time=0
EXTRACT: note_on channel=4 note=59 velocity=96 time=0
EXTRACT: note_on channel=4 note=54 velocity=100 time=0
EXTRACT: note_on channel=4 note=47 velocity=104 time=0
EXTRACT: note_on channel=5 note=71 velocity=110 time=0
EXTRACT: note_on channel=5 note=83 velocity=102 time=0
EXTRACT: note_on channel=6 note=57 velocity=0 time=0
EXTRACT: note_on channel=6 note=59 velocity=127 time=0
EXTRACT: note_on channel=7 note=66 velocity=107 time=0
EXTRACT: note_on channel=7 note=62 velocity=102 time=0
EXTRACT: note_on channel=7 note=59 velocity=96 time=0
EXTRACT: note_on channel=7 note=54 velocity=108 time=0
EXTRACT: note_on channel=7 note=47 velocity=108 time=0
EXTRACT: note_on channel=3 note=61 velocity=0 time=0.005263149999999999
EXTRACT: note_on channel=3 note=61 velocity=0 time=0
EXTRACT: note_on channel=9 note=57 velocity=0 time=0.04736835
EXTRACT: note_on channel=9 note=36 velocity=0 time=0
EXTRACT: note_on channel=1 note=35 velocity=0 time=0.09999984999999999
EXTRACT: note_on channel=1 note=35 velocity=120 time=0.005263149999999999
EXTRACT: note_on channel=2 note=62 velocity=114 time=0.15263134999999997
EXTRACT: note_on channel=9 note=42 velocity=102 time=0.005263149999999999
EXTRACT: note_on channel=1 note=35 velocity=0 time=0
EXTRACT: note_on channel=4 note=66 velocity=0 time=0
EXTRACT: note_on channel=4 note=62 velocity=0 time=0
EXTRACT: note_on channel=4 note=59 velocity=0 time=0
EXTRACT: note_on channel=4 note=54 velocity=0 time=0
EXTRACT: note_on channel=4 note=47 velocity=0 time=0
EXTRACT: note_on channel=5 note=71 velocity=0 time=0
EXTRACT: note_on channel=5 note=83 velocity=0 time=0
EXTRACT: note_on channel=6 note=59 velocity=0 time=0
EXTRACT: note_on channel=7 note=66 velocity=0 time=0
EXTRACT: note_on channel=7 note=62 velocity=0 time=0
EXTRACT: note_on channel=7 note=59 velocity=0 time=0
EXTRACT: note_on channel=7 note=54 velocity=0 time=0
EXTRACT: note_on channel=7 note=47 velocity=0 time=0
EXTRACT: note_on channel=3 note=62 velocity=112 time=0.005263149999999999
EXTRACT: note_on channel=9 note=42 velocity=0 time=0.04736835
EXTRACT: note_on channel=2 note=66 velocity=107 time=0.09999984999999999
EXTRACT: note_on channel=1 note=42 velocity=117 time=0.005263149999999999
EXTRACT: note_on channel=4 note=66 velocity=92 time=0
EXTRACT: note_on channel=4 note=62 velocity=98 time=0
EXTRACT: note_on channel=4 note=59 velocity=107 time=0
EXTRACT: note_on channel=4 note=54 velocity=114 time=0
EXTRACT: note_on channel=4 note=47 velocity=115 time=0
EXTRACT: note_on channel=5 note=69 velocity=108 time=0
EXTRACT: note_on channel=5 note=81 velocity=100 time=0
EXTRACT: note_on channel=6 note=59 velocity=117 time=0
EXTRACT: note_on channel=7 note=66 velocity=103 time=0
EXTRACT: note_on channel=7 note=62 velocity=95 time=0
EXTRACT: note_on channel=7 note=59 velocity=90 time=0
EXTRACT: note_on channel=7 note=54 velocity=106 time=0
EXTRACT: note_on channel=7 note=47 velocity=102 time=0
EXTRACT: note_on channel=9 note=42 velocity=92 time=0.1578945
EXTRACT: note_on channel=9 note=40 velocity=127 time=0
EXTRACT: note_on channel=9 note=69 velocity=62 time=0
EXTRACT: note_on channel=1 note=42 velocity=0 time=0
EXTRACT: note_on channel=4 note=66 velocity=0 time=0
EXTRACT: note_on channel=4 note=62 velocity=0 time=0
EXTRACT: note_on channel=4 note=59 velocity=0 time=0
EXTRACT: note_on channel=4 note=54 velocity=0 time=0
EXTRACT: note_on channel=4 note=47 velocity=0 time=0
EXTRACT: note_on channel=7 note=66 velocity=0 time=0
EXTRACT: note_on channel=7 note=62 velocity=0 time=0
EXTRACT: note_on channel=7 note=59 velocity=0 time=0
EXTRACT: note_on channel=7 note=54 velocity=0 time=0
EXTRACT: note_on channel=7 note=47 velocity=0 time=0
EXTRACT: note_on channel=3 note=62 velocity=0 time=0.005263149999999999
EXTRACT: note_on channel=9 note=42 velocity=0 time=0.04736835
EXTRACT: note_on channel=9 note=40 velocity=0 time=0
EXTRACT: note_on channel=9 note=69 velocity=0 time=0
EXTRACT: note_on channel=2 note=62 velocity=122 time=0.09999984999999999
EXTRACT: note_on channel=9 note=69 velocity=70 time=0.005263149999999999
EXTRACT: note_on channel=1 note=42 velocity=122 time=0
EXTRACT: note_on channel=4 note=66 velocity=77 time=0
EXTRACT: note_on channel=4 note=62 velocity=65 time=0
EXTRACT: note_on channel=4 note=59 velocity=58 time=0
EXTRACT: note_on channel=4 note=54 velocity=66 time=0
EXTRACT: note_on channel=4 note=47 velocity=89 time=0
EXTRACT: note_on channel=3 note=62 velocity=121 time=0.005263149999999999
EXTRACT: note_on channel=9 note=69 velocity=0 time=0.04736835
EXTRACT: note_on channel=4 note=66 velocity=0 time=0.02631575
EXTRACT: note_on channel=4 note=62 velocity=0 time=0
EXTRACT: note_on channel=4 note=59 velocity=0 time=0
EXTRACT: note_on channel=4 note=54 velocity=0 time=0
EXTRACT: note_on channel=4 note=47 velocity=0 time=0
EXTRACT: note_on channel=1 note=42 velocity=0 time=0.07368409999999999
EXTRACT: note_on channel=9 note=42 velocity=90 time=0.005263149999999999
EXTRACT: note_on channel=1 note=38 velocity=116 time=0
EXTRACT: note_on channel=4 note=66 velocity=41 time=0
EXTRACT: note_on channel=4 note=62 velocity=44 time=0
EXTRACT: note_on channel=4 note=59 velocity=51 time=0
EXTRACT: note_on channel=5 note=69 velocity=0 time=0
EXTRACT: note_on channel=5 note=81 velocity=0 time=0
EXTRACT: note_on channel=5 note=69 velocity=99 time=0
EXTRACT: note_on channel=5 note=81 velocity=99 time=0
EXTRACT: note_on channel=6 note=59 velocity=0 time=0
EXTRACT: note_on channel=6 note=61 velocity=109 time=0
EXTRACT: note_on channel=3 note=62 velocity=0 time=0.005263149999999999
EXTRACT: note_on channel=3 note=61 velocity=102 time=0
EXTRACT: note_on channel=9 note=42 velocity=0 time=0.04736835
EXTRACT: note_on channel=4 note=66 velocity=0 time=0.02631575
EXTRACT: note_on channel=4 note=62 velocity=0 time=0
EXTRACT: note_on channel=4 note=59 velocity=0 time=0
EXTRACT: note_on channel=2 note=59 velocity=115 time=0.07368409999999999
EXTRACT: note_on channel=9 note=69 velocity=62 time=0.005263149999999999
EXTRACT: note_on channel=1 note=38 velocity=0 time=0
EXTRACT: note_on channel=4 note=66 velocity=54 time=0
EXTRACT: note_on channel=4 note=62 velocity=59 time=0
EXTRACT: note_on channel=4 note=59 velocity=77 time=0
EXTRACT: note_on channel=4 note=54 velocity=59 time=0
EXTRACT: note_on channel=4 note=47 velocity=84 time=0
EXTRACT: note_on channel=3 note=61 velocity=0 time=0.005263149999999999
EXTRACT: note_on channel=3 note=59 velocity=119 time=0
EXTRACT: note_on channel=9 note=69 velocity=0 time=0.04736835
EXTRACT: note_on channel=4 note=66 velocity=0 time=0.02631575
EXTRACT: note_on channel=4 note=62 velocity=0 time=0
EXTRACT: note_on channel=4 note=59 velocity=0 time=0
EXTRACT: note_on channel=4 note=54 velocity=0 time=0
EXTRACT: note_on channel=4 note=47 velocity=0 time=0
EXTRACT: note_on channel=9 note=36 velocity=120 time=0.07894725
EXTRACT: note_on channel=9 note=42 velocity=96 time=0
EXTRACT: note_on channel=1 note=35 velocity=119 time=0
EXTRACT: note_on channel=4 note=66 velocity=70 time=0
EXTRACT: note_on channel=4 note=62 velocity=56 time=0
EXTRACT: note_on channel=4 note=59 velocity=39 time=0
EXTRACT: note_on channel=5 note=69 velocity=0 time=0
EXTRACT: note_on channel=5 note=81 velocity=0 time=0
EXTRACT: note_on channel=5 note=66 velocity=104 time=0
EXTRACT: note_on channel=5 note=78 velocity=98 time=0
EXTRACT: note_on channel=6 note=61 velocity=0 time=0
EXTRACT: note_on channel=6 note=62 velocity=110 time=0
EXTRACT: note_on channel=3 note=59 velocity=0 time=0.005263149999999999
EXTRACT: note_on channel=9 note=36 velocity=0 time=0.04736835
EXTRACT: note_on channel=9 note=42 velocity=0 time=0
EXTRACT: note_on channel=4 note=66 velocity=0 time=0.02631575
EXTRACT: note_on channel=4 note=62 velocity=0 time=0
EXTRACT: note_on channel=4 note=59 velocity=0 time=0
EXTRACT: note_on channel=2 note=62 velocity=105 time=0.07368409999999999
EXTRACT: note_on channel=9 note=69 velocity=73 time=0.005263149999999999
EXTRACT: note_on channel=3 note=62 velocity=126 time=0.005263149999999999
EXTRACT: note_on channel=9 note=69 velocity=0 time=0.04736835
EXTRACT: note_on channel=9 note=42 velocity=107 time=0.105263
EXTRACT: note_on channel=9 note=69 velocity=78 time=0
EXTRACT: note_on channel=1 note=35 velocity=0 time=0
EXTRACT: note_on channel=4 note=66 velocity=117 time=0
EXTRACT: note_on channel=4 note=62 velocity=91 time=0
EXTRACT: note_on channel=4 note=59 velocity=109 time=0
EXTRACT: note_on channel=4 note=54 velocity=89 time=0
EXTRACT: note_on channel=4 note=47 velocity=114 time=0
EXTRACT: note_on channel=7 note=66 velocity=74 time=0
EXTRACT: note_on channel=7 note=62 velocity=79 time=0
EXTRACT: note_on channel=7 note=59 velocity=112 time=0
EXTRACT: note_on channel=7 note=54 velocity=111 time=0
EXTRACT: note_on channel=7 note=47 velocity=103 time=0
EXTRACT: note_on channel=3 note=62 velocity=0 time=0.005263149999999999
EXTRACT: note_on channel=9 note=42 velocity=0 time=0.04736835
EXTRACT: note_on channel=9 note=69 velocity=0 time=0
EXTRACT: note_on channel=2 note=66 velocity=106 time=0.09999984999999999
EXTRACT: note_on channel=4 note=66 velocity=0 time=0.005263149999999999
EXTRACT: note_on channel=4 note=62 velocity=0 time=0
EXTRACT: note_on channel=4 note=59 velocity=0 time=0
EXTRACT: note_on channel=4 note=54 velocity=0 time=0
EXTRACT: note_on channel=4 note=47 velocity=0 time=0
EXTRACT: note_on channel=7 note=66 velocity=0 time=0
EXTRACT: note_on channel=7 note=62 velocity=0 time=0
EXTRACT: note_on channel=7 note=59 velocity=0 time=0
EXTRACT: note_on channel=7 note=54 velocity=0 time=0
EXTRACT: note_on channel=7 note=47 velocity=0 time=0
EXTRACT: note_on channel=3 note=62 velocity=113 time=0.005263149999999999
EXTRACT: note_on channel=2 note=66 velocity=122 time=0.14736819999999998
EXTRACT: note_on channel=9 note=40 velocity=127 time=0.005263149999999999
EXTRACT: note_on channel=9 note=42 velocity=94 time=0
EXTRACT: note_on channel=9 note=69 velocity=66 time=0
EXTRACT: note_on channel=6 note=62 velocity=0 time=0
EXTRACT: note_on channel=6 note=61 velocity=113 time=0
EXTRACT: note_on channel=9 note=40 velocity=0 time=0.0526315
EXTRACT: note_on channel=9 note=42 velocity=0 time=0
EXTRACT: note_on channel=9 note=69 velocity=0 time=0
EXTRACT: note_on channel=4 note=66 velocity=58 time=0.105263
EXTRACT: note_on channel=4 note=62 velocity=65 time=0
EXTRACT: note_on channel=4 note=59 velocity=66 time=0
EXTRACT: note_on channel=4 note=66 velocity=0 time=0.07894725
EXTRACT: note_on channel=4 note=62 velocity=0 time=0
EXTRACT: note_on channel=4 note=59 velocity=0 time=0
EXTRACT: note_on channel=2 note=62 velocity=107 time=0.07368409999999999
EXTRACT: note_on channel=9 note=42 velocity=91 time=0.005263149999999999
EXTRACT: note_on channel=1 note=30 velocity=112 time=0
EXTRACT: note_on channel=4 note=66 velocity=59 time=0
EXTRACT: note_on channel=4 note=62 velocity=62 time=0
EXTRACT: note_on channel=4 note=59 velocity=57 time=0
EXTRACT: note_on channel=4 note=54 velocity=61 time=0
EXTRACT: note_on channel=4 note=47 velocity=76 time=0
EXTRACT: note_on channel=6 note=61 velocity=0 time=0
EXTRACT: note_on channel=6 note=59 velocity=118 time=0
EXTRACT: note_on channel=9 note=42 velocity=0 time=0.0526315
EXTRACT: note_on channel=4 note=66 velocity=0 time=0.02631575
EXTRACT: note_on channel=4 note=62 velocity=0 time=0
EXTRACT: note_on channel=4 note=59 velocity=0 time=0
EXTRACT: note_on channel=4 note=54 velocity=0 time=0
EXTRACT: note_on channel=4 note=47 velocity=0 time=0
EXTRACT: note_on channel=1 note=30 velocity=0 time=0.07894725
EXTRACT: note_on channel=2 note=47 velocity=0 time=0.15263134999999997
EXTRACT: note_on channel=2 note=62 velocity=0 time=0
EXTRACT: note_on channel=2 note=66 velocity=0 time=0
EXTRACT: note_on channel=2 note=62 velocity=0 time=0
EXTRACT: note_on channel=2 note=59 velocity=0 time=0
EXTRACT: note_on channel=2 note=62 velocity=0 time=0
EXTRACT: note_on channel=2 note=66 velocity=0 time=0
EXTRACT: note_on channel=2 note=66 velocity=0 time=0
EXTRACT: note_on channel=2 note=47 velocity=126 time=0
EXTRACT: note_on channel=9 note=42 velocity=106 time=0.005263149999999999
EXTRACT: note_on channel=9 note=36 velocity=120 time=0
EXTRACT: note_on channel=1 note=35 velocity=109 time=0
EXTRACT: note_on channel=4 note=66 velocity=106 time=0
EXTRACT: note_on channel=4 note=62 velocity=111 time=0
EXTRACT: note_on channel=4 note=59 velocity=116 time=0
EXTRACT: note_on channel=4 note=54 velocity=104 time=0
EXTRACT: note_on channel=4 note=47 velocity=100 time=0
EXTRACT: note_on channel=5 note=66 velocity=0 time=0
EXTRACT: note_on channel=5 note=78 velocity=0 time=0
EXTRACT: note_on channel=5 note=71 velocity=106 time=0
EXTRACT: note_on channel=5 note=83 velocity=104 time=0
EXTRACT: note_on channel=6 note=59 velocity=0 time=0
EXTRACT: note_on channel=6 note=59 velocity=127 time=0
EXTRACT: note_on channel=7 note=66 velocity=77 time=0
EXTRACT: note_on channel=7 note=62 velocity=80 time=0
EXTRACT: note_on channel=7 note=59 velocity=92 time=0
EXTRACT: note_on channel=7 note=54 velocity=99 time=0
EXTRACT: note_on channel=7 note=47 velocity=101 time=0
EXTRACT: note_on channel=3 note=62 velocity=0 time=0.005263149999999999
EXTRACT: note_on channel=9 note=42 velocity=0 time=0.04736835
EXTRACT: note_on channel=9 note=36 velocity=0 time=0
EXTRACT: note_on channel=1 note=35 velocity=0 time=0.18421025
EXTRACT: note_on channel=2 note=62 velocity=0 time=0.07368409999999999
EXTRACT: note_on channel=2 note=62 velocity=121 time=0
EXTRACT: note_on channel=9 note=42 velocity=96 time=0.005263149999999999
EXTRACT: note_on channel=4 note=66 velocity=0 time=0
EXTRACT: note_on channel=4 note=62 velocity=0 time=0
EXTRACT: note_on channel=4 note=59 velocity=0 time=0
EXTRACT: note_on channel=4 note=54 velocity=0 time=0
EXTRACT: note_on channel=4 note=47 velocity=0 time=0
EXTRACT: note_on channel=5 note=71 velocity=0 time=0
EXTRACT: note_on channel=5 note=83 velocity=0 time=0
EXTRACT: note_on channel=6 note=59 velocity=0 time=0
EXTRACT: note_on channel=7 note=66 velocity=0 time=0
EXTRACT: note_on channel=7 note=62 velocity=0 time=0
EXTRACT: note_on channel=7 note=59 velocity=0 time=0
EXTRACT: note_on channel=7 note=54 velocity=0 time=0
EXTRACT: note_on channel=7 note=47 velocity=0 time=0
EXTRACT: note_on channel=3 note=62 velocity=124 time=0.005263149999999999
EXTRACT: note_on channel=9 note=42 velocity=0 time=0.04736835
EXTRACT: note_on channel=2 note=66 velocity=124 time=0.09999984999999999
EXTRACT: note_on channel=1 note=35 velocity=110 time=0.005263149999999999
EXTRACT: note_on channel=4 note=66 velocity=99 time=0
EXTRACT: note_on channel=4 note=62 velocity=91 time=0
EXTRACT: note_on channel=4 note=59 velocity=90 time=0
EXTRACT: note_on channel=4 note=54 velocity=88 time=0
EXTRACT: note_on channel=4 note=47 velocity=103 time=0
EXTRACT: note_on channel=5 note=69 velocity=103 time=0
EXTRACT: note_on channel=5 note=81 velocity=113 time=0
EXTRACT: note_on channel=6 note=59 velocity=125 time=0
EXTRACT: note_on channel=7 note=66 velocity=95 time=0
EXTRACT: note_on channel=7 note=62 velocity=91 time=0
EXTRACT: note_on channel=7 note=59 velocity=109 time=0
EXTRACT: note_on channel=7 note=54 velocity=97 time=0
EXTRACT: note_on channel=7 note=47 velocity=84 time=0
EXTRACT: note_on channel=9 note=42 velocity=96 time=0.1578945
EXTRACT: note_on channel=9 note=40 velocity=127 time=0
EXTRACT: note_on channel=9 note=69 velocity=62 time=0
EXTRACT: note_on channel=1 note=35 velocity=0 time=0
EXTRACT: note_on channel=4 note=66 velocity=0 time=0
EXTRACT: note_on channel=4 note=62 velocity=0 time=0
EXTRACT: note_on channel=4 note=59 velocity=0 time=0
EXTRACT: note_on channel=4 note=54 velocity=0 time=0
EXTRACT: note_on channel=4 note=47 velocity=0 time=0
EXTRACT: note_on channel=7 note=66 velocity=0 time=0
EXTRACT: note_on channel=7 note=62 velocity=0 time=0
EXTRACT: note_on channel=7 note=59 velocity=0 time=0
EXTRACT: note_on channel=7 note=54 velocity=0 time=0
EXTRACT: note_on channel=7 note=47 velocity=0 time=0
EXTRACT: note_on channel=3 note=62 velocity=0 time=0.005263149999999999
EXTRACT: note_on channel=9 note=42 velocity=0 time=0.04736835
EXTRACT: note_on channel=9 note=40 velocity=0 time=0
EXTRACT: note_on channel=9 note=69 velocity=0 time=0
EXTRACT: note_on channel=2 note=62 velocity=109 time=0.09999984999999999
EXTRACT: note_on channel=9 note=69 velocity=70 time=0.005263149999999999
EXTRACT: note_on channel=4 note=66 velocity=85 time=0
EXTRACT: note_on channel=4 note=62 velocity=66 time=0
EXTRACT: note_on channel=4 note=59 velocity=82 time=0
EXTRACT: note_on channel=4 note=54 velocity=51 time=0
EXTRACT: note_on channel=4 note=47 velocity=58 time=0
EXTRACT: note_on channel=3 note=62 velocity=102 time=0.005263149999999999
EXTRACT: note_on channel=9 note=69 velocity=0 time=0.04736835
EXTRACT: note_on channel=4 note=66 velocity=0 time=0.02631575
EXTRACT: note_on channel=4 note=62 velocity=0 time=0
EXTRACT: note_on channel=4 note=59 velocity=0 time=0
EXTRACT: note_on channel=4 note=54 velocity=0 time=0
EXTRACT: note_on channel=4 note=47 velocity=0 time=0
EXTRACT: note_on channel=9 note=42 velocity=95 time=0.07894725
EXTRACT: note_on channel=4 note=66 velocity=45 time=0
EXTRACT: note_on channel=4 note=62 velocity=68 time=0
EXTRACT: note_on channel=4 note=59 velocity=64 time=0
EXTRACT: note_on channel=5 note=69 velocity=0 time=0
EXTRACT: note_on channel=5 note=81 velocity=0 time=0
EXTRACT: note_on channel=5 note=69 velocity=117 time=0
EXTRACT: note_on channel=5 note=81 velocity=105 time=0
EXTRACT: note_on channel=6 note=59 velocity=0 time=0
EXTRACT: note_on channel=6 note=61 velocity=108 time=0
EXTRACT: note_on channel=3 note=62 velocity=0 time=0.005263149999999999
EXTRACT: note_on channel=3 note=61 velocity=123 time=0
EXTRACT: note_on channel=9 note=42 velocity=0 time=0.04736835
EXTRACT: note_on channel=4 note=66 velocity=0 time=0.02631575
EXTRACT: note_on channel=4 note=62 velocity=0 time=0
EXTRACT: note_on channel=4 note=59 velocity=0 time=0
EXTRACT: note_on channel=2 note=59 velocity=117 time=0.07368409999999999
EXTRACT: note_on channel=9 note=69 velocity=62 time=0.005263149999999999
EXTRACT: note_on channel=4 note=66 velocity=51 time=0
EXTRACT: note_on channel=4 note=62 velocity=82 time=0
EXTRACT: note_on channel=4 note=59 velocity=52 time=0
EXTRACT: note_on channel=4 note=54 velocity=66 time=0
EXTRACT: note_on channel=4 note=47 velocity=72 time=0
EXTRACT: note_on channel=3 note=61 velocity=0 time=0.005263149999999999
EXTRACT: note_on channel=3 note=59 velocity=119 time=0
EXTRACT: note_on channel=9 note=69 velocity=0 time=0.04736835
EXTRACT: note_on channel=4 note=66 velocity=0 time=0.02631575
EXTRACT: note_on channel=4 note=62 velocity=0 time=0
EXTRACT: note_on channel=4 note=59 velocity=0 time=0
EXTRACT: note_on channel=4 note=54 velocity=0 time=0
EXTRACT: note_on channel=4 note=47 velocity=0 time=0
EXTRACT: note_on channel=9 note=36 velocity=120 time=0.07894725
EXTRACT: note_on channel=9 note=42 velocity=108 time=0
EXTRACT: note_on channel=4 note=66 velocity=44 time=0
EXTRACT: note_on channel=4 note=62 velocity=49 time=0
EXTRACT: note_on channel=4 note=59 velocity=40 time=0
EXTRACT: note_on channel=5 note=69 velocity=0 time=0
EXTRACT: note_on channel=5 note=81 velocity=0 time=0
EXTRACT: note_on channel=5 note=66 velocity=114 time=0
EXTRACT: note_on channel=5 note=78 velocity=112 time=0
EXTRACT: note_on channel=6 note=61 velocity=0 time=0
EXTRACT: note_on channel=6 note=62 velocity=126 time=0
EXTRACT: note_on channel=3 note=59 velocity=0 time=0.005263149999999999
EXTRACT: note_on channel=9 note=36 velocity=0 time=0.04736835
EXTRACT: note_on channel=9 note=42 velocity=0 time=0
EXTRACT: note_on channel=4 note=66 velocity=0 time=0.02631575
EXTRACT: note_on channel=4 note=62 velocity=0 time=0
EXTRACT: note_on channel=4 note=59 velocity=0 time=0
EXTRACT: note_on channel=2 note=62 velocity=115 time=0.07368409999999999
EXTRACT: note_on channel=9 note=69 velocity=73 time=0.005263149999999999
EXTRACT: note_on channel=3 note=62 velocity=117 time=0.005263149999999999
EXTRACT: note_on channel=9 note=69 velocity=0 time=0.04736835
EXTRACT: note_on channel=9 note=42 velocity=93 time=0.105263
EXTRACT: note_on channel=9 note=69 velocity=78 time=0
EXTRACT: note_on channel=1 note=35 velocity=117 time=0
EXTRACT: note_on channel=4 note=66 velocity=108 time=0
EXTRACT: note_on channel=4 note=62 velocity=98 time=0
EXTRACT: note_on channel=4 note=59 velocity=105 time=0
EXTRACT: note_on channel=4 note=54 velocity=90 time=0
EXTRACT: note_on channel=4 note=47 velocity=98 time=0
EXTRACT: note_on channel=7 note=66 velocity=94 time=0
EXTRACT: note_on channel=7 note=62 velocity=110 time=0
EXTRACT: note_on channel=7 note=59 velocity=76 time=0
EXTRACT: note_on channel=7 note=54 velocity=83 time=0
EXTRACT: note_on channel=7 note=47 velocity=107 time=0
EXTRACT: note_on channel=3 note=62 velocity=0 time=0.005263149999999999
EXTRACT: note_on channel=9 note=42 velocity=0 time=0.04736835
EXTRACT: note_on channel=9 note=69 velocity=0 time=0
EXTRACT: note_on channel=2 note=66 velocity=124 time=0.09999984999999999
EXTRACT: note_on channel=1 note=35 velocity=0 time=0.005263149999999999
EXTRACT: note_on channel=4 note=66 velocity=0 time=0
EXTRACT: note_on channel=4 note=62 velocity=0 time=0
EXTRACT: note_on channel=4 note=59 velocity=0 time=0
EXTRACT: note_on channel=4 note=54 velocity=0 time=0
EXTRACT: note_on channel=4 note=47 velocity=0 time=0
EXTRACT: note_on channel=7 note=66 velocity=0 time=0
EXTRACT: note_on channel=7 note=62 velocity=0 time=0
EXTRACT: note_on channel=7 note=59 velocity=0 time=0
EXTRACT: note_on channel=7 note=54 velocity=0 time=0
EXTRACT: note_on channel=7 note=47 velocity=0 time=0
EXTRACT: note_on channel=3 note=62 velocity=103 time=0.005263149999999999
EXTRACT: note_on channel=2 note=66 velocity=125 time=0.14736819999999998
EXTRACT: note_on channel=9 note=40 velocity=127 time=0.005263149999999999
EXTRACT: note_on channel=9 note=42 velocity=95 time=0
EXTRACT: note_on channel=9 note=69 velocity=66 time=0
EXTRACT: note_on channel=6 note=62 velocity=0 time=0
EXTRACT: note_on channel=6 note=61 velocity=126 time=0
EXTRACT: note_on channel=9 note=40 velocity=0 time=0.0526315
EXTRACT: note_on channel=9 note=42 velocity=0 time=0
EXTRACT: note_on channel=9 note=69 velocity=0 time=0
EXTRACT: note_on channel=4 note=66 velocity=43 time=0.105263
EXTRACT: note_on channel=4 note=62 velocity=55 time=0
EXTRACT: note_on channel=4 note=59 velocity=50 time=0
EXTRACT: note_on channel=4 note=66 velocity=0 time=0.07894725
EXTRACT: note_on channel=4 note=62 velocity=0 time=0
EXTRACT: note_on channel=4 note=59 velocity=0 time=0
EXTRACT: note_on channel=2 note=62 velocity=114 time=0.07368409999999999
EXTRACT: note_on channel=9 note=36 velocity=90 time=0.005263149999999999
EXTRACT: note_on channel=9 note=42 velocity=106 time=0
EXTRACT: note_on channel=1 note=38 velocity=127 time=0
EXTRACT: note_on channel=4 note=66 velocity=59 time=0
EXTRACT: note_on channel=4 note=62 velocity=59 time=0
EXTRACT: note_on channel=4 note=59 velocity=80 time=0
EXTRACT: note_on channel=4 note=54 velocity=67 time=0
EXTRACT: note_on channel=4 note=47 velocity=90 time=0
EXTRACT: note_on channel=6 note=61 velocity=0 time=0
EXTRACT: note_on channel=6 note=59 velocity=112 time=0
EXTRACT: note_on channel=9 note=36 velocity=0 time=0.0526315
EXTRACT: note_on channel=9 note=42 velocity=0 time=0
EXTRACT: note_on channel=4 note=66 velocity=0 time=0.02631575
EXTRACT: note_on channel=4 note=62 velocity=0 time=0
EXTRACT: note_on channel=4 note=59 velocity=0 time=0
EXTRACT: note_on channel=4 note=54 velocity=0 time=0
EXTRACT: note_on channel=4 note=47 velocity=0 time=0
EXTRACT: note_on channel=9 note=40 velocity=127 time=0.07894725
EXTRACT: note_on channel=1 note=38 velocity=0 time=0
EXTRACT: note_on channel=9 note=40 velocity=0 time=0.0526315
EXTRACT: note_on channel=2 note=47 velocity=0 time=0.09999984999999999
EXTRACT: note_on channel=2 note=62 velocity=0 time=0
EXTRACT: note_on channel=2 note=66 velocity=0 time=0
EXTRACT: note_on channel=2 note=62 velocity=0 time=0
EXTRACT: note_on channel=2 note=59 velocity=0 time=0
EXTRACT: note_on channel=2 note=62 velocity=0 time=0
EXTRACT: note_on channel=2 note=66 velocity=0 time=0
EXTRACT: note_on channel=2 note=66 velocity=0 time=0
EXTRACT: note_on channel=2 note=62 velocity=0 time=0
EXTRACT: note_on channel=2 note=40 velocity=111 time=0
EXTRACT: note_on channel=9 note=42 velocity=98 time=0.005263149999999999
EXTRACT: note_on channel=9 note=36 velocity=120 time=0
EXTRACT: note_on channel=1 note=40 velocity=120 time=0
EXTRACT: note_on channel=4 note=67 velocity=91 time=0
EXTRACT: note_on channel=4 note=62 velocity=95 time=0
EXTRACT: note_on channel=4 note=59 velocity=103 time=0
EXTRACT: note_on channel=4 note=55 velocity=93 time=0
EXTRACT: note_on channel=4 note=47 velocity=109 time=0
EXTRACT: note_on channel=5 note=66 velocity=0 time=0
EXTRACT: note_on channel=5 note=78 velocity=0 time=0
EXTRACT: note_on channel=5 note=76 velocity=107 time=0
EXTRACT: note_on channel=5 note=88 velocity=98 time=0
EXTRACT: note_on channel=6 note=59 velocity=0 time=0
EXTRACT: note_on channel=7 note=67 velocity=76 time=0
EXTRACT: note_on channel=7 note=62 velocity=90 time=0
EXTRACT: note_on channel=7 note=59 velocity=95 time=0
EXTRACT: note_on channel=7 note=55 velocity=83 time=0
EXTRACT: note_on channel=7 note=47 velocity=83 time=0
EXTRACT: note_on channel=3 note=62 velocity=0 time=0.005263149999999999
EXTRACT: note_on channel=9 note=42 velocity=0 time=0.04736835
EXTRACT: note_on channel=9 note=36 velocity=0 time=0
EXTRACT: note_on channel=1 note=40 velocity=0 time=0.07894725
EXTRACT: note_on channel=2 note=62 velocity=103 time=0.17894709999999997
EXTRACT: note_on channel=9 note=42 velocity=109 time=0.005263149999999999
EXTRACT: note_on channel=1 note=40 velocity=126 time=0
EXTRACT: note_on channel=4 note=67 velocity=0 time=0
EXTRACT: note_on channel=4 note=62 velocity=0 time=0
EXTRACT: note_on channel=4 note=59 velocity=0 time=0
EXTRACT: note_on channel=4 note=55 velocity=0 time=0
EXTRACT: note_on channel=4 note=47 velocity=0 time=0
EXTRACT: note_on channel=5 note=76 velocity=0 time=0
EXTRACT: note_on channel=5 note=88 velocity=0 time=0
EXTRACT: note_on channel=7 note=67 velocity=0 time=0
EXTRACT: note_on channel=7 note=62 velocity=0 time=0
EXTRACT: note_on channel=7 note=59 velocity=0 time=0
EXTRACT: note_on channel=7 note=55 velocity=0 time=0
EXTRACT: note_on channel=7 note=47 velocity=0 time=0
EXTRACT: note_on channel=3 note=62 velocity=110 time=0.005263149999999999
EXTRACT: note_on channel=9 note=42 velocity=0 time=0.04736835
EXTRACT: note_on channel=1 note=40 velocity=0 time=0.09999984999999999
EXTRACT: note_on channel=2 note=67 velocity=109 time=0
EXTRACT: note_on channel=1 note=35 velocity=114 time=0.005263149999999999
EXTRACT: note_on channel=4 note=67 velocity=110 time=0
EXTRACT: note_on channel=4 note=62 velocity=108 time=0
EXTRACT: note_on channel=4 note=59 velocity=106 time=0
EXTRACT: note_on channel=4 note=55 velocity=103 time=0
EXTRACT: note_on channel=4 note=47 velocity=95 time=0
EXTRACT: note_on channel=5 note=74 velocity=111 time=0
EXTRACT: note_on channel=5 note=86 velocity=107 time=0
EXTRACT: note_on channel=7 note=67 velocity=94 time=0
EXTRACT: note_on channel=7 note=62 velocity=83 time=0
EXTRACT: note_on channel=7 note=59 velocity=91 time=0
EXTRACT: note_on channel=7 note=55 velocity=107 time=0
EXTRACT: note_on channel=7 note=47 velocity=81 time=0
EXTRACT: note_on channel=9 note=42 velocity=108 time=0.1578945
EXTRACT: note_on channel=9 note=40 velocity=127 time=0
EXTRACT: note_on channel=9 note=69 velocity=62 time=0
EXTRACT: note_on channel=1 note=35 velocity=0 time=0
EXTRACT: note_on channel=4 note=67 velocity=0 time=0
EXTRACT: note_on channel=4 note=62 velocity=0 time=0
EXTRACT: note_on channel=4 note=59 velocity=0 time=0
EXTRACT: note_on channel=4 note=55 velocity=0 time=0
EXTRACT: note_on channel=4 note=47 velocity=0 time=0
EXTRACT: note_on channel=7 note=67 velocity=0 time=0
EXTRACT: note_on channel=7 note=62 velocity=0 time=0
EXTRACT: note_on channel=7 note=59 velocity=0 time=0
EXTRACT: note_on channel=7 note=55 velocity=0 time=0
EXTRACT: note_on channel=7 note=47 velocity=0 time=0
EXTRACT: note_on channel=3 note=62 velocity=0 time=0.005263149999999999
EXTRACT: note_on channel=9 note=42 velocity=0 time=0.04736835
EXTRACT: note_on channel=9 note=40 velocity=0 time=0
EXTRACT: note_on channel=9 note=69 velocity=0 time=0
EXTRACT: note_on channel=2 note=62 velocity=106 time=0.09999984999999999
EXTRACT: note_on channel=9 note=69 velocity=70 time=0.005263149999999999
EXTRACT: note_on channel=1 note=35 velocity=123 time=0
EXTRACT: note_on channel=4 note=67 velocity=91 time=0
EXTRACT: note_on channel=4 note=62 velocity=88 time=0
EXTRACT: note_on channel=4 note=59 velocity=66 time=0
EXTRACT: note_on channel=4 note=55 velocity=68 time=0
EXTRACT: note_on channel=4 note=47 velocity=82 time=0
EXTRACT: note_on channel=3 note=62 velocity=118 time=0.005263149999999999
EXTRACT: note_on channel=9 note=69 velocity=0 time=0.04736835
EXTRACT: note_on channel=4 note=67 velocity=0 time=0.02631575
EXTRACT: note_on channel=4 note=62 velocity=0 time=0
EXTRACT: note_on channel=4 note=59 velocity=0 time=0
EXTRACT: note_on channel=4 note=55 velocity=0 time=0
EXTRACT: note_on channel=4 note=47 velocity=0 time=0
EXTRACT: note_on channel=1 note=35 velocity=0 time=0.07368409999999999
EXTRACT: note_on channel=9 note=42 velocity=90 time=0.005263149999999999
EXTRACT: note_on channel=1 note=31 velocity=113 time=0
EXTRACT: note_on channel=4 note=67 velocity=40 time=0
EXTRACT: note_on channel=4 note=62 velocity=68 time=0
EXTRACT: note_on channel=4 note=59 velocity=59 time=0
EXTRACT: note_on channel=5 note=74 velocity=0 time=0
EXTRACT: note_on channel=5 note=86 velocity=0 time=0
EXTRACT: note_on channel=5 note=74 velocity=99 time=0
EXTRACT: note_on channel=5 note=86 velocity=116 time=0
EXTRACT: note_on channel=6 note=66 velocity=117 time=0
EXTRACT: note_on channel=3 note=62 velocity=0 time=0.005263149999999999
EXTRACT: note_on channel=3 note=61 velocity=111 time=0
EXTRACT: note_on channel=9 note=42 velocity=0 time=0.04736835
EXTRACT: note_on channel=4 note=67 velocity=0 time=0.02631575
EXTRACT: note_on channel=4 note=62 velocity=0 time=0
EXTRACT: note_on channel=4 note=59 velocity=0 time=0
EXTRACT: note_on channel=2 note=59 velocity=121 time=0.07368409999999999
EXTRACT: note_on channel=9 note=69 velocity=62 time=0.005263149999999999
EXTRACT: note_on channel=1 note=31 velocity=0 time=0
EXTRACT: note_on channel=4 note=67 velocity=53 time=0
EXTRACT: note_on channel=4 note=62 velocity=75 time=0
EXTRACT: note_on channel=4 note=59 velocity=83 time=0
EXTRACT: note_on channel=4 note=55 velocity=68 time=0
EXTRACT: note_on channel=4 note=47 velocity=77 time=0
EXTRACT: note_on channel=3 note=61 velocity=0 time=0.005263149999999999
EXTRACT: note_on channel=3 note=59 velocity=115 time=0
EXTRACT: note_on channel=9 note=69 velocity=0 time=0.04736835
EXTRACT: note_on channel=4 note=67 velocity=0 time=0.02631575
EXTRACT: note_on channel=4 note=62 velocity=0 time=0
EXTRACT: note_on channel=4 note=59 velocity=0 time=0
EXTRACT: note_on channel=4 note=55 velocity=0 time=0
EXTRACT: note_on channel=4 note=47 velocity=0 time=0
EXTRACT: note_on channel=9 note=36 velocity=120 time=0.07894725
EXTRACT: note_on channel=9 note=42 velocity=104 time=0
EXTRACT: note_on channel=1 note=28 velocity=108 time=0
EXTRACT: note_on channel=4 note=67 velocity=62 time=0
EXTRACT: note_on channel=4 note=62 velocity=59 time=0
EXTRACT: note_on channel=4 note=59 velocity=47 time=0
EXTRACT: note_on channel=5 note=74 velocity=0 time=0
EXTRACT: note_on channel=5 note=86 velocity=0 time=0
EXTRACT: note_on channel=5 note=71 velocity=105 time=0
EXTRACT: note_on channel=5 note=83 velocity=112 time=0
EXTRACT: note_on channel=6 note=66 velocity=0 time=0
EXTRACT: note_on channel=3 note=59 velocity=0 time=0.005263149999999999
EXTRACT: note_on channel=9 note=36 velocity=0 time=0.04736835
EXTRACT: note_on channel=9 note=42 velocity=0 time=0
EXTRACT: note_on channel=4 note=67 velocity=0 time=0.02631575
EXTRACT: note_on channel=4 note=62 velocity=0 time=0
EXTRACT: note_on channel=4 note=59 velocity=0 time=0
EXTRACT: note_on channel=2 note=62 velocity=103 time=0.07368409999999999
EXTRACT: note_on channel=9 note=69 velocity=73 time=0.005263149999999999
EXTRACT: note_on channel=3 note=62 velocity=121 time=0.005263149999999999
EXTRACT: note_on channel=9 note=69 velocity=0 time=0.04736835
EXTRACT: note_on channel=9 note=42 velocity=104 time=0.105263
EXTRACT: note_on channel=9 note=69 velocity=78 time=0
EXTRACT: note_on channel=1 note=28 velocity=0 time=0
EXTRACT: note_on channel=4 note=67 velocity=114 time=0
EXTRACT: note_on channel=4 note=62 velocity=103 time=0
EXTRACT: note_on channel=4 note=59 velocity=87 time=0
EXTRACT: note_on channel=4 note=55 velocity=95 time=0
EXTRACT: note_on channel=4 note=47 velocity=94 time=0
EXTRACT: note_on channel=6 note=67 velocity=126 time=0
EXTRACT: note_on channel=7 note=67 velocity=99 time=0
EXTRACT: note_on channel=7 note=62 velocity=76 time=0
EXTRACT: note_on channel=7 note=59 velocity=99 time=0
EXTRACT: note_on channel=7 note=55 velocity=74 time=0
EXTRACT: note_on channel=7 note=47 velocity=96 time=0
EXTRACT: note_on channel=3 note=62 velocity=0 time=0.005263149999999999
EXTRACT: note_on channel=9 note=42 velocity=0 time=0.04736835
EXTRACT: note_on channel=9 note=69 velocity=0 time=0
EXTRACT: note_on channel=2 note=67 velocity=116 time=0.09999984999999999
EXTRACT: note_on channel=4 note=67 velocity=0 time=0.005263149999999999
EXTRACT: note_on channel=4 note=62 velocity=0 time=0
EXTRACT: note_on channel=4 note=59 velocity=0 time=0
EXTRACT: note_on channel=4 note=55 velocity=0 time=0
EXTRACT: note_on channel=4 note=47 velocity=0 time=0
EXTRACT: note_on channel=7 note=67 velocity=0 time=0
EXTRACT: note_on channel=7 note=62 velocity=0 time=0
EXTRACT: note_on channel=7 note=59 velocity=0 time=0
EXTRACT: note_on channel=7 note=55 velocity=0 time=0
EXTRACT: note_on channel=7 note=47 velocity=0 time=0
EXTRACT: note_on channel=3 note=62 velocity=108 time=0.005263149999999999
EXTRACT: note_on channel=2 note=67 velocity=118 time=0.14736819999999998
EXTRACT: note_on channel=9 note=40 velocity=127 time=0.005263149999999999
EXTRACT: note_on channel=9 note=42 velocity=91 time=0
EXTRACT: note_on channel=9 note=69 velocity=66 time=0
EXTRACT: note_on channel=6 note=67 velocity=0 time=0
EXTRACT: note_on channel=6 note=66 velocity=124 time=0
EXTRACT: note_on channel=9 note=40 velocity=0 time=0.0526315
EXTRACT: note_on channel=9 note=42 velocity=0 time=0
EXTRACT: note_on channel=9 note=69 velocity=0 time=0
EXTRACT: note_on channel=4 note=67 velocity=60 time=0.105263
EXTRACT: note_on channel=4 note=62 velocity=55 time=0
EXTRACT: note_on channel=4 note=59 velocity=58 time=0
EXTRACT: note_on channel=4 note=67 velocity=0 time=0.07894725
EXTRACT: note_on channel=4 note=62 velocity=0 time=0
EXTRACT: note_on channel=4 note=59 velocity=0 time=0
EXTRACT: note_on channel=2 note=62 velocity=107 time=0.07368409999999999
EXTRACT: note_on channel=9 note=42 velocity=91 time=0.005263149999999999
EXTRACT: note_on channel=1 note=28 velocity=119 time=0
EXTRACT: note_on channel=4 note=67 velocity=56 time=0
EXTRACT: note_on channel=4 note=62 velocity=77 time=0
EXTRACT: note_on channel=4 note=59 velocity=72 time=0
EXTRACT: note_on channel=4 note=55 velocity=53 time=0
EXTRACT: note_on channel=4 note=47 velocity=91 time=0
EXTRACT: note_on channel=6 note=66 velocity=0 time=0
EXTRACT: note_on channel=6 note=64 velocity=109 time=0
EXTRACT: note_on channel=9 note=42 velocity=0 time=0.0526315
EXTRACT: note_on channel=4 note=67 velocity=0 time=0.02631575
EXTRACT: note_on channel=4 note=62 velocity=0 time=0
EXTRACT: note_on channel=4 note=59 velocity=0 time=0
EXTRACT: note_on channel=4 note=55 velocity=0 time=0
EXTRACT: note_on channel=4 note=47 velocity=0 time=0
EXTRACT: note_on channel=1 note=28 velocity=0 time=0.07894725
EXTRACT: note_on channel=2 note=40 velocity=0 time=0.15263134999999997
EXTRACT: note_on channel=2 note=62 velocity=0 time=0
EXTRACT: note_on channel=2 note=67 velocity=0 time=0
EXTRACT: note_on channel=2 note=62 velocity=0 time=0
EXTRACT: note_on channel=2 note=59 velocity=0 time=0
EXTRACT: note_on channel=2 note=62 velocity=0 time=0
EXTRACT: note_on channel=2 note=67 velocity=0 time=0
EXTRACT: note_on channel=2 note=67 velocity=0 time=0
EXTRACT: note_on channel=2 note=62 velocity=0 time=0
EXTRACT: note_on channel=2 note=57 velocity=116 time=0
EXTRACT: note_on channel=2 note=54 velocity=110 time=0
EXTRACT: note_on channel=9 note=42 velocity=95 time=0.005263149999999999
EXTRACT: note_on channel=9 note=36 velocity=120 time=0
EXTRACT: note_on channel=1 note=30 velocity=113 time=0
EXTRACT: note_on channel=4 note=64 velocity=116 time=0
EXTRACT: note_on channel=4 note=61 velocity=115 time=0
EXTRACT: note_on channel=4 note=57 velocity=102 time=0
EXTRACT: note_on channel=4 note=54 velocity=109 time=0
EXTRACT: note_on channel=5 note=71 velocity=0 time=0
EXTRACT: note_on channel=5 note=83 velocity=0 time=0
EXTRACT: note_on channel=5 note=90 velocity=110 time=0
EXTRACT: note_on channel=5 note=78 velocity=116 time=0
EXTRACT: note_on channel=6 note=64 velocity=0 time=0
EXTRACT: note_on channel=6 note=57 velocity=109 time=0
EXTRACT: note_on channel=7 note=64 velocity=82 time=0
EXTRACT: note_on channel=7 note=61 velocity=89 time=0
EXTRACT: note_on channel=7 note=57 velocity=84 time=0
EXTRACT: note_on channel=7 note=54 velocity=98 time=0
EXTRACT: note_on channel=3 note=62 velocity=0 time=0.005263149999999999
EXTRACT: note_on channel=9 note=42 velocity=0 time=0.04736835
EXTRACT: note_on channel=9 note=36 velocity=0 time=0
EXTRACT: note_on channel=5 note=90 velocity=0 time=0.0526315
EXTRACT: note_on channel=5 note=78 velocity=0 time=0
EXTRACT: note_on channel=1 note=30 velocity=0 time=0.09999984999999999
EXTRACT: note_on channel=1 note=30 velocity=124 time=0.005263149999999999
EXTRACT: note_on channel=5 note=78 velocity=98 time=0
EXTRACT: note_on channel=5 note=90 velocity=108 time=0
EXTRACT: note_on channel=2 note=61 velocity=117 time=0.09999984999999999
EXTRACT: note_on channel=4 note=64 velocity=0 time=0.005263149999999999
EXTRACT: note_on channel=4 note=61 velocity=0 time=0
EXTRACT: note_on channel=4 note=57 velocity=0 time=0
EXTRACT: note_on channel=4 note=54 velocity=0 time=0
EXTRACT: note_on channel=5 note=78 velocity=0 time=0
EXTRACT: note_on channel=5 note=90 velocity=0 time=0
EXTRACT: note_on channel=7 note=64 velocity=0 time=0
EXTRACT: note_on channel=7 note=61 velocity=0 time=0
EXTRACT: note_on channel=7 note=57 velocity=0 time=0
EXTRACT: note_on channel=7 note=54 velocity=0 time=0
EXTRACT: note_on channel=3 note=61 velocity=104 time=0.005263149999999999
EXTRACT: note_on channel=1 note=30 velocity=0 time=0.0947367
EXTRACT: note_on channel=1 note=30 velocity=120 time=0.005263149999999999
EXTRACT: note_on channel=5 note=78 velocity=117 time=0
EXTRACT: note_on channel=5 note=90 velocity=112 time=0
EXTRACT: note_on channel=2 note=64 velocity=116 time=0.04736835
EXTRACT: note_on channel=4 note=64 velocity=95 time=0.005263149999999999
EXTRACT: note_on channel=4 note=61 velocity=111 time=0
EXTRACT: note_on channel=4 note=57 velocity=88 time=0
EXTRACT: note_on channel=4 note=54 velocity=88 time=0
EXTRACT: note_on channel=7 note=64 velocity=74 time=0
EXTRACT: note_on channel=7 note=61 velocity=112 time=0
EXTRACT: note_on channel=7 note=57 velocity=101 time=0
EXTRACT: note_on channel=7 note=54 velocity=109 time=0
EXTRACT: note_on channel=5 note=78 velocity=0 time=0.0526315
EXTRACT: note_on channel=5 note=90 velocity=0 time=0
EXTRACT: note_on channel=1 note=30 velocity=0 time=0.09999984999999999
EXTRACT: note_on channel=9 note=42 velocity=99 time=0.005263149999999999
EXTRACT: note_on channel=1 note=37 velocity=123 time=0
EXTRACT: note_on channel=4 note=64 velocity=0 time=0
EXTRACT: note_on channel=4 note=61 velocity=0 time=0
EXTRACT: note_on channel=4 note=57 velocity=0 time=0
EXTRACT: note_on channel=4 note=54 velocity=0 time=0
EXTRACT: note_on channel=5 note=76 velocity=110 time=0
EXTRACT: note_on channel=6 note=57 velocity=0 time=0
EXTRACT: note_on channel=6 note=57 velocity=123 time=0
EXTRACT: note_on channel=7 note=64 velocity=0 time=0
EXTRACT: note_on channel=7 note=61 velocity=0 time=0
EXTRACT: note_on channel=7 note=57 velocity=0 time=0
EXTRACT: note_on channel=7 note=54 velocity=0 time=0
EXTRACT: note_on channel=3 note=61 velocity=0 time=0.005263149999999999
EXTRACT: note_on channel=9 note=42 velocity=0 time=0.04736835
EXTRACT: note_on channel=2 note=61 velocity=108 time=0.09999984999999999
EXTRACT: note_on channel=4 note=64 velocity=79 time=0.005263149999999999
EXTRACT: note_on channel=4 note=61 velocity=76 time=0
EXTRACT: note_on channel=4 note=57 velocity=67 time=0
EXTRACT: note_on channel=4 note=54 velocity=84 time=0
EXTRACT: note_on channel=3 note=61 velocity=123 time=0.005263149999999999
EXTRACT: note_on channel=1 note=37 velocity=0 time=0.07368409999999999
EXTRACT: note_on channel=4 note=64 velocity=0 time=0
EXTRACT: note_on channel=4 note=61 velocity=0 time=0
EXTRACT: note_on channel=4 note=57 velocity=0 time=0
EXTRACT: note_on channel=4 note=54 velocity=0 time=0
EXTRACT: note_on channel=1 note=42 velocity=126 time=0.07894725
EXTRACT: note_on channel=4 note=64 velocity=70 time=0
EXTRACT: note_on channel=4 note=61 velocity=65 time=0
EXTRACT: note_on channel=4 note=57 velocity=65 time=0
EXTRACT: note_on channel=5 note=76 velocity=0 time=0
EXTRACT: note_on channel=5 note=74 velocity=113 time=0
EXTRACT: note_on channel=6 note=57 velocity=0 time=0
EXTRACT: note_on channel=6 note=59 velocity=116 time=0
EXTRACT: note_on channel=4 note=64 velocity=0 time=0.07894725
EXTRACT: note_on channel=4 note=61 velocity=0 time=0
EXTRACT: note_on channel=4 note=57 velocity=0 time=0
EXTRACT: note_on channel=2 note=57 velocity=107 time=0.07368409999999999
EXTRACT: note_on channel=4 note=64 velocity=76 time=0.005263149999999999
EXTRACT: note_on channel=4 note=61 velocity=61 time=0
EXTRACT: note_on channel=4 note=57 velocity=53 time=0
EXTRACT: note_on channel=4 note=54 velocity=85 time=0
EXTRACT: note_on channel=5 note=74 velocity=0 time=0
EXTRACT: note_on channel=5 note=71 velocity=109 time=0
EXTRACT: note_on channel=3 note=61 velocity=0 time=0.005263149999999999
EXTRACT: note_on channel=1 note=42 velocity=0 time=0.07368409999999999
EXTRACT: note_on channel=4 note=64 velocity=0 time=0
EXTRACT: note_on channel=4 note=61 velocity=0 time=0
EXTRACT: note_on channel=4 note=57 velocity=0 time=0
EXTRACT: note_on channel=4 note=54 velocity=0 time=0
EXTRACT: note_on channel=2 note=61 velocity=108 time=0.07368409999999999
EXTRACT: note_on channel=9 note=36 velocity=120 time=0.005263149999999999
EXTRACT: note_on channel=9 note=42 velocity=93 time=0
EXTRACT: note_on channel=1 note=37 velocity=115 time=0
EXTRACT: note_on channel=4 note=64 velocity=60 time=0
EXTRACT: note_on channel=4 note=61 velocity=63 time=0
EXTRACT: note_on channel=4 note=57 velocity=41 time=0
EXTRACT: note_on channel=5 note=71 velocity=0 time=0
EXTRACT: note_on channel=5 note=78 velocity=116 time=0
EXTRACT: note_on channel=6 note=59 velocity=0 time=0
EXTRACT: note_on channel=6 note=61 velocity=127 time=0
EXTRACT: note_on channel=3 note=61 velocity=114 time=0.005263149999999999
EXTRACT: note_on channel=9 note=36 velocity=0 time=0.04736835
EXTRACT: note_on channel=9 note=42 velocity=0 time=0
EXTRACT: note_on channel=4 note=64 velocity=0 time=0.02631575
EXTRACT: note_on channel=4 note=61 velocity=0 time=0
EXTRACT: note_on channel=4 note=57 velocity=0 time=0
EXTRACT: note_on channel=2 note=64 velocity=102 time=0.07368409999999999
EXTRACT: note_on channel=9 note=69 velocity=73 time=0.005263149999999999
EXTRACT: note_on channel=9 note=69 velocity=0 time=0.0526315
EXTRACT: note_on channel=2 note=66 velocity=110 time=0.09999984999999999
EXTRACT: note_on channel=9 note=36 velocity=120 time=0.005263149999999999
EXTRACT: note_on channel=9 note=42 velocity=90 time=0
EXTRACT: note_on channel=9 note=69 velocity=78 time=0
EXTRACT: note_on channel=4 note=64 velocity=89 time=0
EXTRACT: note_on channel=4 note=61 velocity=112 time=0
EXTRACT: note_on channel=4 note=57 velocity=113 time=0
EXTRACT: note_on channel=4 note=54 velocity=97 time=0
EXTRACT: note_on channel=7 note=64 velocity=98 time=0
EXTRACT: note_on channel=7 note=61 velocity=96 time=0
EXTRACT: note_on channel=7 note=57 velocity=82 time=0
EXTRACT: note_on channel=7 note=54 velocity=100 time=0
EXTRACT: note_on channel=9 note=36 velocity=0 time=0.0526315
EXTRACT: note_on channel=9 note=42 velocity=0 time=0
EXTRACT: note_on channel=9 note=69 velocity=0 time=0
EXTRACT: note_on channel=1 note=37 velocity=0 time=0.04736835
EXTRACT: note_on channel=1 note=42 velocity=110 time=0.005263149999999999
EXTRACT: note_on channel=2 note=69 velocity=113 time=0.04736835
EXTRACT: note_on channel=4 note=64 velocity=0 time=0.005263149999999999
EXTRACT: note_on channel=4 note=61 velocity=0 time=0
EXTRACT: note_on channel=4 note=57 velocity=0 time=0
EXTRACT: note_on channel=4 note=54 velocity=0 time=0
EXTRACT: note_on channel=7 note=64 velocity=0 time=0
EXTRACT: note_on channel=7 note=61 velocity=0 time=0
EXTRACT: note_on channel=7 note=57 velocity=0 time=0
EXTRACT: note_on channel=7 note=54 velocity=0 time=0
EXTRACT: note_on channel=9 note=40 velocity=127 time=0.1578945
EXTRACT: note_on channel=9 note=42 velocity=96 time=0
EXTRACT: note_on channel=9 note=69 velocity=66 time=0
EXTRACT: note_on channel=6 note=61 velocity=0 time=0
EXTRACT: note_on channel=6 note=59 velocity=109 time=0
EXTRACT: note_on channel=9 note=40 velocity=0 time=0.0526315
EXTRACT: note_on channel=9 note=42 velocity=0 time=0
EXTRACT: note_on channel=9 note=69 velocity=0 time=0
EXTRACT: note_on channel=4 note=64 velocity=50 time=0.105263
EXTRACT: note_on channel=4 note=61 velocity=59 time=0
EXTRACT: note_on channel=4 note=57 velocity=50 time=0
EXTRACT: note_on channel=1 note=42 velocity=0 time=0.04736835
EXTRACT: note_on channel=1 note=49 velocity=111 time=0.005263149999999999
EXTRACT: note_on channel=4 note=64 velocity=0 time=0.02631575
EXTRACT: note_on channel=4 note=61 velocity=0 time=0
EXTRACT: note_on channel=4 note=57 velocity=0 time=0
EXTRACT: note_on channel=9 note=36 velocity=90 time=0.07894725
EXTRACT: note_on channel=9 note=42 velocity=93 time=0
EXTRACT: note_on channel=4 note=64 velocity=83 time=0
EXTRACT: note_on channel=4 note=61 velocity=74 time=0
EXTRACT: note_on channel=4 note=57 velocity=59 time=0
EXTRACT: note_on channel=4 note=54 velocity=71 time=0
EXTRACT: note_on channel=6 note=59 velocity=0 time=0
EXTRACT: note_on channel=6 note=57 velocity=108 time=0
EXTRACT: note_on channel=8 note=54 velocity=93 time=0
EXTRACT: note_on channel=8 note=66 velocity=122 time=0
EXTRACT: note_on channel=3 note=61 velocity=87 time=0.005263149999999999
EXTRACT: note_on channel=9 note=36 velocity=0 time=0.04736835
EXTRACT: note_on channel=9 note=42 velocity=0 time=0
EXTRACT: note_on channel=4 note=64 velocity=0 time=0.02631575
EXTRACT: note_on channel=4 note=61 velocity=0 time=0
EXTRACT: note_on channel=4 note=57 velocity=0 time=0
EXTRACT: note_on channel=4 note=54 velocity=0 time=0
EXTRACT: note_on channel=9 note=40 velocity=127 time=0.07894725
EXTRACT: note_on channel=9 note=40 velocity=0 time=0.0526315
EXTRACT: note_on channel=1 note=49 velocity=0 time=0.09999984999999999
EXTRACT: note_on channel=2 note=57 velocity=0 time=0
EXTRACT: note_on channel=2 note=54 velocity=0 time=0
EXTRACT: note_on channel=2 note=61 velocity=0 time=0
EXTRACT: note_on channel=2 note=64 velocity=0 time=0
EXTRACT: note_on channel=2 note=61 velocity=0 time=0
EXTRACT: note_on channel=2 note=57 velocity=0 time=0
EXTRACT: note_on channel=2 note=61 velocity=0 time=0
EXTRACT: note_on channel=2 note=64 velocity=0 time=0
EXTRACT: note_on channel=2 note=66 velocity=0 time=0
EXTRACT: note_on channel=2 note=69 velocity=0 time=0
EXTRACT: note_on channel=2 note=47 velocity=123 time=0
EXTRACT: note_on channel=9 note=49 velocity=100 time=0.005263149999999999
EXTRACT: note_on channel=9 note=36 velocity=120 time=0
EXTRACT: note_on channel=1 note=35 velocity=121 time=0
EXTRACT: note_on channel=4 note=66 velocity=112 time=0
EXTRACT: note_on channel=4 note=62 velocity=106 time=0
EXTRACT: note_on channel=4 note=59 velocity=94 time=0
EXTRACT: note_on channel=4 note=54 velocity=102 time=0
EXTRACT: note_on channel=4 note=47 velocity=89 time=0
EXTRACT: note_on channel=5 note=78 velocity=0 time=0
EXTRACT: control_change channel=5 control=7 value=60 time=0
EXTRACT: control_change channel=5 control=11 value=60 time=0
EXTRACT: note_on channel=5 note=90 velocity=100 time=0
EXTRACT: note_on channel=5 note=78 velocity=105 time=0
EXTRACT: note_on channel=6 note=57 velocity=0 time=0
EXTRACT: control_change channel=6 control=11 value=40 time=0
EXTRACT: note_on channel=6 note=59 velocity=127 time=0
EXTRACT: note_on channel=6 note=62 velocity=127 time=0
EXTRACT: note_on channel=6 note=66 velocity=122 time=0
EXTRACT: note_on channel=7 note=66 velocity=78 time=0
EXTRACT: note_on channel=7 note=62 velocity=84 time=0
EXTRACT: note_on channel=7 note=59 velocity=111 time=0
EXTRACT: note_on channel=7 note=54 velocity=98 time=0
EXTRACT: note_on channel=7 note=47 velocity=108 time=0
EXTRACT: note_on channel=3 note=61 velocity=0 time=0.005263149999999999
EXTRACT: note_on channel=3 note=61 velocity=0 time=0
EXTRACT: control_change channel=5 control=11 value=61 time=0.015789449999999997
EXTRACT: control_change channel=6 control=11 value=41 time=0.010526299999999999
EXTRACT: control_change channel=5 control=11 value=62 time=0.005263149999999999
EXTRACT: note_on channel=9 note=49 velocity=0 time=0.015789449999999997
EXTRACT: note_on channel=9 note=36 velocity=0 time=0
EXTRACT: control_change channel=5 control=11 value=63 time=0.005263149999999999
EXTRACT: control_change channel=6 control=11 value=42 time=0.005263149999999999
EXTRACT: control_change channel=5 control=11 value=64 time=0.010526299999999999
EXTRACT: control_change channel=5 control=11 value=65 time=0.021052599999999998
EXTRACT: control_change channel=6 control=11 value=43 time=0
EXTRACT: control_change channel=5 control=11 value=66 time=0.015789449999999997
EXTRACT: control_change channel=6 control=11 value=44 time=0.015789449999999997
EXTRACT: control_change channel=5 control=11 value=67 time=0.005263149999999999
EXTRACT: note_on channel=1 note=35 velocity=0 time=0.021052599999999998
EXTRACT: control_change channel=5 control=11 value=68 time=0
EXTRACT: note_on channel=1 note=35 velocity=121 time=0.005263149999999999
EXTRACT: control_change channel=6 control=11 value=45 time=0
EXTRACT: control_change channel=5 control=11 value=69 time=0.010526299999999999
EXTRACT: control_change channel=5 control=11 value=70 time=0.021052599999999998
EXTRACT: control_change channel=6 control=11 value=46 time=0
EXTRACT: control_change channel=5 control=11 value=71 time=0.015789449999999997
EXTRACT: control_change channel=6 control=11 value=47 time=0.015789449999999997
EXTRACT: control_change channel=5 control=11 value=72 time=0.005263149999999999
EXTRACT: control_change channel=5 control=11 value=73 time=0.021052599999999998
EXTRACT: control_change channel=6 control=11 value=48 time=0.005263149999999999
EXTRACT: control_change channel=5 control=11 value=74 time=0.010526299999999999
EXTRACT: control_change channel=5 control=11 value=75 time=0.021052599999999998
EXTRACT: control_change channel=6 control=11 value=49 time=0
EXTRACT: control_change channel=5 control=11 value=76 time=0.015789449999999997
EXTRACT: note_on channel=2 note=62 velocity=115 time=0.010526299999999999
EXTRACT: note_on channel=9 note=42 velocity=101 time=0.005263149999999999
EXTRACT: note_on channel=1 note=35 velocity=0 time=0
EXTRACT: note_on channel=4 note=66 velocity=0 time=0
EXTRACT: note_on channel=4 note=62 velocity=0 time=0
EXTRACT: note_on channel=4 note=59 velocity=0 time=0
EXTRACT: note_on channel=4 note=54 velocity=0 time=0
EXTRACT: note_on channel=4 note=47 velocity=0 time=0
EXTRACT: control_change channel=6 control=11 value=50 time=0
EXTRACT: note_on channel=7 note=66 velocity=0 time=0
EXTRACT: note_on channel=7 note=62 velocity=0 time=0
EXTRACT: note_on channel=7 note=59 velocity=0 time=0
EXTRACT: note_on channel=7 note=54 velocity=0 time=0
EXTRACT: note_on channel=7 note=47 velocity=0 time=0
EXTRACT: note_on channel=8 note=54 velocity=0 time=0
EXTRACT: note_on channel=8 note=66 velocity=0 time=0
EXTRACT: note_on channel=8 note=57 velocity=98 time=0
EXTRACT: note_on channel=8 note=69 velocity=116 time=0
EXTRACT: note_on channel=3 note=62 velocity=126 time=0.005263149999999999
EXTRACT: control_change channel=5 control=11 value=77 time=0
EXTRACT: control_change channel=5 control=11 value=78 time=0.015789449999999997
EXTRACT: control_change channel=6 control=11 value=51 time=0.010526299999999999
EXTRACT: control_change channel=5 control=11 value=79 time=0.010526299999999999
EXTRACT: note_on channel=9 note=42 velocity=0 time=0.010526299999999999
EXTRACT: control_change channel=5 control=11 value=80 time=0.010526299999999999
EXTRACT: control_change channel=6 control=11 value=52 time=0
EXTRACT: control_change channel=5 control=11 value=81 time=0.015789449999999997
EXTRACT: control_change channel=6 control=11 value=53 time=0.015789449999999997
EXTRACT: control_change channel=5 control=11 value=82 time=0.005263149999999999
EXTRACT: control_change channel=5 control=11 value=83 time=0.015789449999999997
EXTRACT: control_change channel=6 control=11 value=54 time=0.010526299999999999
EXTRACT: control_change channel=5 control=11 value=84 time=0.010526299999999999
EXTRACT: note_on channel=2 note=66 velocity=121 time=0.015789449999999997
EXTRACT: note_on channel=1 note=42 velocity=122 time=0.005263149999999999
EXTRACT: note_on channel=4 note=66 velocity=104 time=0
EXTRACT: note_on channel=4 note=62 velocity=91 time=0
EXTRACT: note_on channel=4 note=59 velocity=90 time=0
EXTRACT: note_on channel=4 note=54 velocity=115 time=0
EXTRACT: note_on channel=4 note=47 velocity=117 time=0
EXTRACT: control_change channel=5 control=11 value=85 time=0
EXTRACT: control_change channel=6 control=11 value=55 time=0
EXTRACT: note_on channel=7 note=66 velocity=95 time=0
EXTRACT: note_on channel=7 note=62 velocity=89 time=0
EXTRACT: note_on channel=7 note=59 velocity=76 time=0
EXTRACT: note_on channel=7 note=54 velocity=74 time=0
EXTRACT: note_on channel=7 note=47 velocity=91 time=0
EXTRACT: note_on channel=8 note=57 velocity=0 time=0
EXTRACT: note_on channel=8 note=69 velocity=0 time=0
EXTRACT: control_change channel=5 control=11 value=86 time=0.015789449999999997
EXTRACT: control_change channel=6 control=11 value=56 time=0.015789449999999997
EXTRACT: control_change channel=5 control=11 value=87 time=0.005263149999999999
EXTRACT: control_change channel=5 control=11 value=88 time=0.015789449999999997
EXTRACT: control_change channel=6 control=11 value=57 time=0.010526299999999999
EXTRACT: control_change channel=5 control=11 value=89 time=0.010526299999999999
EXTRACT: control_change channel=5 control=11 value=90 time=0.015789449999999997
EXTRACT: control_change channel=6 control=11 value=58 time=0.005263149999999999
EXTRACT: control_change channel=5 control=11 value=91 time=0.015789449999999997
EXTRACT: control_change channel=6 control=11 value=59 time=0.015789449999999997
EXTRACT: control_change channel=5 control=11 value=92 time=0.005263149999999999
EXTRACT: control_change channel=5 control=11 value=93 time=0.015789449999999997
EXTRACT: note_on channel=9 note=42 velocity=98 time=0.010526299999999999
EXTRACT: note_on channel=9 note=40 velocity=127 time=0
EXTRACT: note_on channel=9 note=69 velocity=62 time=0
EXTRACT: note_on channel=1 note=42 velocity=0 time=0
EXTRACT: note_on channel=4 note=66 velocity=0 time=0
EXTRACT: note_on channel=4 note=62 velocity=0 time=0
EXTRACT: note_on channel=4 note=59 velocity=0 time=0
EXTRACT: note_on channel=4 note=54 velocity=0 time=0
EXTRACT: note_on channel=4 note=47 velocity=0 time=0
EXTRACT: control_change channel=6 control=11 value=60 time=0
EXTRACT: note_on channel=7 note=66 velocity=0 time=0
EXTRACT: note_on channel=7 note=62 velocity=0 time=0
EXTRACT: note_on channel=7 note=59 velocity=0 time=0
EXTRACT: note_on channel=7 note=54 velocity=0 time=0
EXTRACT: note_on channel=7 note=47 velocity=0 time=0
EXTRACT: note_on channel=8 note=55 velocity=98 time=0
EXTRACT: note_on channel=8 note=67 velocity=116 time=0
EXTRACT: note_on channel=3 note=62 velocity=0 time=0.005263149999999999
EXTRACT: control_change channel=5 control=11 value=94 time=0.005263149999999999
EXTRACT: control_change channel=5 control=11 value=95 time=0.015789449999999997
EXTRACT: control_change channel=6 control=11 value=61 time=0.005263149999999999
EXTRACT: control_change channel=5 control=11 value=96 time=0.015789449999999997
EXTRACT: note_on channel=9 note=42 velocity=0 time=0.005263149999999999
EXTRACT: note_on channel=9 note=40 velocity=0 time=0
EXTRACT: note_on channel=9 note=69 velocity=0 time=0
EXTRACT: control_change channel=6 control=11 value=62 time=0.010526299999999999
EXTRACT: control_change channel=5 control=11 value=97 time=0.005263149999999999
EXTRACT: control_change channel=5 control=11 value=98 time=0.015789449999999997
EXTRACT: control_change channel=6 control=11 value=63 time=0.010526299999999999
EXTRACT: control_change channel=5 control=11 value=99 time=0.010526299999999999
EXTRACT: control_change channel=5 control=11 value=100 time=0.015789449999999997
EXTRACT: control_change channel=6 control=11 value=64 time=0.005263149999999999
EXTRACT: control_change channel=5 control=11 value=101 time=0.015789449999999997
EXTRACT: note_on channel=2 note=62 velocity=123 time=0.010526299999999999
EXTRACT: note_on channel=9 note=69 velocity=70 time=0.005263149999999999
EXTRACT: note_on channel=1 note=42 velocity=118 time=0
EXTRACT: note_on channel=4 note=66 velocity=70 time=0
EXTRACT: note_on channel=4 note=62 velocity=73 time=0
EXTRACT: note_on channel=4 note=59 velocity=71 time=0
EXTRACT: note_on channel=4 note=54 velocity=56 time=0
EXTRACT: note_on channel=4 note=47 velocity=58 time=0
EXTRACT: control_change channel=5 control=11 value=102 time=0
EXTRACT: control_change channel=6 control=11 value=65 time=0
EXTRACT: note_on channel=8 note=55 velocity=0 time=0
EXTRACT: note_on channel=8 note=67 velocity=0 time=0
EXTRACT: note_on channel=3 note=62 velocity=113 time=0.005263149999999999
EXTRACT: control_change channel=5 control=11 value=103 time=0.015789449999999997
EXTRACT: control_change channel=6 control=11 value=66 time=0.010526299999999999
EXTRACT: control_change channel=5 control=11 value=104 time=0.010526299999999999
EXTRACT: note_on channel=9 note=69 velocity=0 time=0.010526299999999999
EXTRACT: control_change channel=5 control=11 value=105 time=0.005263149999999999
EXTRACT: control_change channel=6 control=11 value=67 time=0.005263149999999999
EXTRACT: note_on channel=4 note=66 velocity=0 time=0.015789449999999997
EXTRACT: note_on channel=4 note=62 velocity=0 time=0
EXTRACT: note_on channel=4 note=59 velocity=0 time=0
EXTRACT: note_on channel=4 note=54 velocity=0 time=0
EXTRACT: note_on channel=4 note=47 velocity=0 time=0
EXTRACT: control_change channel=5 control=11 value=106 time=0
EXTRACT: control_change channel=5 control=11 value=107 time=0.015789449999999997
EXTRACT: control_change channel=6 control=11 value=68 time=0
EXTRACT: control_change channel=5 control=11 value=108 time=0.021052599999999998
EXTRACT: control_change channel=6 control=11 value=69 time=0.010526299999999999
EXTRACT: control_change channel=5 control=11 value=109 time=0.010526299999999999
EXTRACT: note_on channel=1 note=42 velocity=0 time=0.015789449999999997
EXTRACT: control_change channel=5 control=11 value=110 time=0
EXTRACT: note_on channel=9 note=42 velocity=102 time=0.005263149999999999
EXTRACT: note_on channel=1 note=38 velocity=115 time=0
EXTRACT: note_on channel=4 note=66 velocity=49 time=0
EXTRACT: note_on channel=4 note=62 velocity=68 time=0
EXTRACT: note_on channel=4 note=59 velocity=45 time=0
EXTRACT: control_change channel=6 control=11 value=70 time=0
EXTRACT: note_on channel=8 note=54 velocity=94 time=0
EXTRACT: note_on channel=8 note=66 velocity=122 time=0
EXTRACT: note_on channel=3 note=62 velocity=0 time=0.005263149999999999
EXTRACT: note_on channel=3 note=61 velocity=113 time=0
EXTRACT: control_change channel=5 control=11 value=111 time=0.010526299999999999
EXTRACT: control_change channel=5 control=11 value=112 time=0.015789449999999997
EXTRACT: control_change channel=6 control=11 value=71 time=0
EXTRACT: note_on channel=9 note=42 velocity=0 time=0.021052599999999998
EXTRACT: control_change channel=5 control=11 value=113 time=0
EXTRACT: control_change channel=6 control=11 value=72 time=0.010526299999999999
EXTRACT: control_change channel=5 control=11 value=114 time=0.005263149999999999
EXTRACT: note_on channel=4 note=66 velocity=0 time=0.010526299999999999
EXTRACT: note_on channel=4 note=62 velocity=0 time=0
EXTRACT: note_on channel=4 note=59 velocity=0 time=0
EXTRACT: control_change channel=5 control=11 value=115 time=0.010526299999999999
EXTRACT: control_change channel=6 control=11 value=73 time=0.005263149999999999
EXTRACT: control_change channel=5 control=11 value=116 time=0.015789449999999997
EXTRACT: control_change channel=5 control=11 value=117 time=0.015789449999999997
EXTRACT: control_change channel=6 control=11 value=74 time=0
EXTRACT: control_change channel=5 control=11 value=118 time=0.021052599999999998
EXTRACT: note_on channel=2 note=59 velocity=102 time=0.005263149999999999
EXTRACT: note_on channel=9 note=69 velocity=62 time=0.005263149999999999
EXTRACT: note_on channel=1 note=38 velocity=0 time=0
EXTRACT: note_on channel=4 note=66 velocity=72 time=0
EXTRACT: note_on channel=4 note=62 velocity=58 time=0
EXTRACT: note_on channel=4 note=59 velocity=55 time=0
EXTRACT: note_on channel=4 note=54 velocity=80 time=0
EXTRACT: note_on channel=4 note=47 velocity=63 time=0
EXTRACT: control_change channel=6 control=11 value=75 time=0
EXTRACT: note_on channel=8 note=54 velocity=0 time=0
EXTRACT: note_on channel=8 note=66 velocity=0 time=0
EXTRACT: note_on channel=3 note=61 velocity=0 time=0.005263149999999999
EXTRACT: note_on channel=3 note=59 velocity=103 time=0
EXTRACT: control_change channel=5 control=11 value=119 time=0
EXTRACT: control_change channel=5 control=11 value=120 time=0.021052599999999998
EXTRACT: control_change channel=6 control=11 value=76 time=0.005263149999999999
EXTRACT: control_change channel=5 control=11 value=121 time=0.015789449999999997
EXTRACT: note_on channel=9 note=69 velocity=0 time=0.005263149999999999
EXTRACT: control_change channel=5 control=11 value=122 time=0.010526299999999999
EXTRACT: control_change channel=6 control=11 value=77 time=0
EXTRACT: note_on channel=4 note=66 velocity=0 time=0.015789449999999997
EXTRACT: note_on channel=4 note=62 velocity=0 time=0
EXTRACT: note_on channel=4 note=59 velocity=0 time=0
EXTRACT: note_on channel=4 note=54 velocity=0 time=0
EXTRACT: note_on channel=4 note=47 velocity=0 time=0
EXTRACT: control_change channel=5 control=11 value=123 time=0.005263149999999999
EXTRACT: control_change channel=6 control=11 value=78 time=0.010526299999999999
EXTRACT: control_change channel=5 control=11 value=124 time=0.005263149999999999
EXTRACT: control_change channel=5 control=11 value=125 time=0.021052599999999998
EXTRACT: control_change channel=6 control=11 value=79 time=0.005263149999999999
EXTRACT: control_change channel=5 control=11 value=126 time=0.010526299999999999
EXTRACT: note_on channel=9 note=36 velocity=120 time=0.021052599999999998
EXTRACT: note_on channel=9 note=42 velocity=108 time=0
EXTRACT: note_on channel=1 note=35 velocity=108 time=0
EXTRACT: note_on channel=4 note=66 velocity=63 time=0
EXTRACT: note_on channel=4 note=62 velocity=70 time=0
EXTRACT: note_on channel=4 note=59 velocity=51 time=0
EXTRACT: control_change channel=5 control=11 value=127 time=0
EXTRACT: control_change channel=6 control=11 value=80 time=0
EXTRACT: note_on channel=8 note=52 velocity=97 time=0
EXTRACT: note_on channel=8 note=64 velocity=123 time=0
EXTRACT: note_on channel=3 note=59 velocity=0 time=0.005263149999999999
EXTRACT: note_on channel=9 note=36 velocity=0 time=0.04736835
EXTRACT: note_on channel=9 note=42 velocity=0 time=0
EXTRACT: note_on channel=4 note=66 velocity=0 time=0.02631575
EXTRACT: note_on channel=4 note=62 velocity=0 time=0
EXTRACT: note_on channel=4 note=59 velocity=0 time=0
EXTRACT: note_on channel=2 note=62 velocity=103 time=0.07368409999999999
EXTRACT: note_on channel=9 note=69 velocity=73 time=0.005263149999999999
EXTRACT: note_on channel=3 note=62 velocity=120 time=0.005263149999999999
EXTRACT: note_on channel=9 note=69 velocity=0 time=0.04736835
EXTRACT: note_on channel=9 note=42 velocity=99 time=0.105263
EXTRACT: note_on channel=9 note=69 velocity=78 time=0
EXTRACT: note_on channel=1 note=35 velocity=0 time=0
EXTRACT: note_on channel=4 note=66 velocity=103 time=0
EXTRACT: note_on channel=4 note=62 velocity=117 time=0
EXTRACT: note_on channel=4 note=59 velocity=90 time=0
EXTRACT: note_on channel=4 note=54 velocity=101 time=0
EXTRACT: note_on channel=4 note=47 velocity=106 time=0
EXTRACT: note_on channel=7 note=66 velocity=77 time=0
EXTRACT: note_on channel=7 note=62 velocity=77 time=0
EXTRACT: note_on channel=7 note=59 velocity=103 time=0
EXTRACT: note_on channel=7 note=54 velocity=104 time=0
EXTRACT: note_on channel=7 note=47 velocity=97 time=0
EXTRACT: note_on channel=8 note=52 velocity=0 time=0
EXTRACT: note_on channel=8 note=64 velocity=0 time=0
EXTRACT: note_on channel=8 note=50 velocity=99 time=0
EXTRACT: note_on channel=8 note=62 velocity=121 time=0
EXTRACT: note_on channel=3 note=62 velocity=0 time=0.005263149999999999
EXTRACT: note_on channel=9 note=42 velocity=0 time=0.04736835
EXTRACT: note_on channel=9 note=69 velocity=0 time=0
EXTRACT: note_on channel=2 note=66 velocity=111 time=0.09999984999999999
EXTRACT: note_on channel=4 note=66 velocity=0 time=0.005263149999999999
EXTRACT: note_on channel=4 note=62 velocity=0 time=0
EXTRACT: note_on channel=4 note=59 velocity=0 time=0
EXTRACT: note_on channel=4 note=54 velocity=0 time=0
EXTRACT: note_on channel=4 note=47 velocity=0 time=0
EXTRACT: note_on channel=7 note=66 velocity=0 time=0
EXTRACT: note_on channel=7 note=62 velocity=0 time=0
EXTRACT: note_on channel=7 note=59 velocity=0 time=0
EXTRACT: note_on channel=7 note=54 velocity=0 time=0
EXTRACT: note_on channel=7 note=47 velocity=0 time=0
EXTRACT: note_on channel=8 note=50 velocity=0 time=0
EXTRACT: note_on channel=8 note=62 velocity=0 time=0
EXTRACT: note_on channel=3 note=62 velocity=122 time=0.005263149999999999
EXTRACT: note_on channel=2 note=66 velocity=124 time=0.14736819999999998
EXTRACT: note_on channel=9 note=40 velocity=127 time=0.005263149999999999
EXTRACT: note_on channel=9 note=42 velocity=104 time=0
EXTRACT: note_on channel=9 note=69 velocity=66 time=0
EXTRACT: note_on channel=8 note=52 velocity=92 time=0
EXTRACT: note_on channel=8 note=64 velocity=120 time=0
EXTRACT: note_on channel=9 note=40 velocity=0 time=0.0526315
EXTRACT: note_on channel=9 note=42 velocity=0 time=0
EXTRACT: note_on channel=9 note=69 velocity=0 time=0
EXTRACT: note_on channel=4 note=66 velocity=64 time=0.105263
EXTRACT: note_on channel=4 note=62 velocity=41 time=0
EXTRACT: note_on channel=4 note=59 velocity=66 time=0
EXTRACT: note_on channel=8 note=52 velocity=0 time=0
EXTRACT: note_on channel=8 note=64 velocity=0 time=0
EXTRACT: note_on channel=4 note=66 velocity=0 time=0.07894725
EXTRACT: note_on channel=4 note=62 velocity=0 time=0
EXTRACT: note_on channel=4 note=59 velocity=0 time=0
EXTRACT: note_on channel=2 note=62 velocity=124 time=0.07368409999999999
EXTRACT: note_on channel=9 note=42 velocity=109 time=0.005263149999999999
EXTRACT: note_on channel=1 note=30 velocity=118 time=0
EXTRACT: note_on channel=4 note=66 velocity=79 time=0
EXTRACT: note_on channel=4 note=62 velocity=80 time=0
EXTRACT: note_on channel=4 note=59 velocity=77 time=0
EXTRACT: note_on channel=4 note=54 velocity=51 time=0
EXTRACT: note_on channel=4 note=47 velocity=62 time=0
EXTRACT: note_on channel=8 note=54 velocity=95 time=0
EXTRACT: note_on channel=8 note=66 velocity=125 time=0
EXTRACT: note_on channel=9 note=42 velocity=0 time=0.0526315
EXTRACT: note_on channel=4 note=66 velocity=0 time=0.02631575
EXTRACT: note_on channel=4 note=62 velocity=0 time=0
EXTRACT: note_on channel=4 note=59 velocity=0 time=0
EXTRACT: note_on channel=4 note=54 velocity=0 time=0
EXTRACT: note_on channel=4 note=47 velocity=0 time=0
EXTRACT: note_on channel=1 note=30 velocity=0 time=0.07894725
EXTRACT: note_on channel=2 note=47 velocity=0 time=0.15263134999999997
EXTRACT: note_on channel=2 note=62 velocity=0 time=0
EXTRACT: note_on channel=2 note=66 velocity=0 time=0
EXTRACT: note_on channel=2 note=62 velocity=0 time=0
EXTRACT: note_on channel=2 note=59 velocity=0 time=0
EXTRACT: note_on channel=2 note=62 velocity=0 time=0
EXTRACT: note_on channel=2 note=66 velocity=0 time=0
EXTRACT: note_on channel=2 note=66 velocity=0 time=0
EXTRACT: note_on channel=2 note=47 velocity=106 time=0
EXTRACT: note_on channel=9 note=42 velocity=106 time=0.005263149999999999
EXTRACT: note_on channel=9 note=36 velocity=120 time=0
EXTRACT: note_on channel=1 note=35 velocity=113 time=0
EXTRACT: note_on channel=4 note=66 velocity=104 time=0
EXTRACT: note_on channel=4 note=62 velocity=88 time=0
EXTRACT: note_on channel=4 note=59 velocity=92 time=0
EXTRACT: note_on channel=4 note=54 velocity=99 time=0
EXTRACT: note_on channel=4 note=47 velocity=97 time=0
EXTRACT: note_on channel=7 note=66 velocity=88 time=0
EXTRACT: note_on channel=7 note=62 velocity=89 time=0
EXTRACT: note_on channel=7 note=59 velocity=88 time=0
EXTRACT: note_on channel=7 note=54 velocity=88 time=0
EXTRACT: note_on channel=7 note=47 velocity=90 time=0
EXTRACT: note_on channel=3 note=62 velocity=0 time=0.005263149999999999
EXTRACT: note_on channel=9 note=42 velocity=0 time=0.04736835
EXTRACT: note_on channel=9 note=36 velocity=0 time=0
EXTRACT: note_on channel=1 note=35 velocity=0 time=0.18421025
EXTRACT: note_on channel=2 note=62 velocity=0 time=0.07368409999999999
EXTRACT: note_on channel=2 note=62 velocity=106 time=0
EXTRACT: note_on channel=9 note=42 velocity=92 time=0.005263149999999999
EXTRACT: note_on channel=4 note=66 velocity=0 time=0
EXTRACT: note_on channel=4 note=62 velocity=0 time=0
EXTRACT: note_on channel=4 note=59 velocity=0 time=0
EXTRACT: note_on channel=4 note=54 velocity=0 time=0
EXTRACT: note_on channel=4 note=47 velocity=0 time=0
EXTRACT: note_on channel=7 note=66 velocity=0 time=0
EXTRACT: note_on channel=7 note=62 velocity=0 time=0
EXTRACT: note_on channel=7 note=59 velocity=0 time=0
EXTRACT: note_on channel=7 note=54 velocity=0 time=0
EXTRACT: note_on channel=7 note=47 velocity=0 time=0
EXTRACT: note_on channel=8 note=54 velocity=0 time=0
EXTRACT: note_on channel=8 note=66 velocity=0 time=0
EXTRACT: note_on channel=8 note=57 velocity=95 time=0
EXTRACT: note_on channel=8 note=69 velocity=127 time=0
EXTRACT: note_on channel=3 note=62 velocity=104 time=0.005263149999999999
EXTRACT: note_on channel=9 note=42 velocity=0 time=0.04736835
EXTRACT: note_on channel=2 note=66 velocity=107 time=0.09999984999999999
EXTRACT: note_on channel=1 note=35 velocity=119 time=0.005263149999999999
EXTRACT: note_on channel=4 note=66 velocity=106 time=0
EXTRACT: note_on channel=4 note=62 velocity=115 time=0
EXTRACT: note_on channel=4 note=59 velocity=97 time=0
EXTRACT: note_on channel=4 note=54 velocity=88 time=0
EXTRACT: note_on channel=4 note=47 velocity=114 time=0
EXTRACT: note_on channel=7 note=66 velocity=109 time=0
EXTRACT: note_on channel=7 note=62 velocity=112 time=0
EXTRACT: note_on channel=7 note=59 velocity=107 time=0
EXTRACT: note_on channel=7 note=54 velocity=81 time=0
EXTRACT: note_on channel=7 note=47 velocity=74 time=0
EXTRACT: note_on channel=8 note=57 velocity=0 time=0
EXTRACT: note_on channel=8 note=69 velocity=0 time=0
EXTRACT: note_on channel=9 note=42 velocity=105 time=0.1578945
EXTRACT: note_on channel=9 note=40 velocity=127 time=0
EXTRACT: note_on channel=9 note=69 velocity=62 time=0
EXTRACT: note_on channel=1 note=35 velocity=0 time=0
EXTRACT: note_on channel=4 note=66 velocity=0 time=0
EXTRACT: note_on channel=4 note=62 velocity=0 time=0
EXTRACT: note_on channel=4 note=59 velocity=0 time=0
EXTRACT: note_on channel=4 note=54 velocity=0 time=0
EXTRACT: note_on channel=4 note=47 velocity=0 time=0
EXTRACT: note_on channel=7 note=66 velocity=0 time=0
EXTRACT: note_on channel=7 note=62 velocity=0 time=0
EXTRACT: note_on channel=7 note=59 velocity=0 time=0
EXTRACT: note_on channel=7 note=54 velocity=0 time=0
EXTRACT: note_on channel=7 note=47 velocity=0 time=0
EXTRACT: note_on channel=8 note=55 velocity=94 time=0
EXTRACT: note_on channel=8 note=67 velocity=122 time=0
EXTRACT: note_on channel=3 note=62 velocity=0 time=0.005263149999999999
EXTRACT: note_on channel=9 note=42 velocity=0 time=0.04736835
EXTRACT: note_on channel=9 note=40 velocity=0 time=0
EXTRACT: note_on channel=9 note=69 velocity=0 time=0
EXTRACT: note_on channel=2 note=62 velocity=108 time=0.09999984999999999
EXTRACT: note_on channel=9 note=69 velocity=70 time=0.005263149999999999
EXTRACT: note_on channel=4 note=66 velocity=57 time=0
EXTRACT: note_on channel=4 note=62 velocity=60 time=0
EXTRACT: note_on channel=4 note=59 velocity=62 time=0
EXTRACT: note_on channel=4 note=54 velocity=61 time=0
EXTRACT: note_on channel=4 note=47 velocity=66 time=0
EXTRACT: note_on channel=8 note=55 velocity=0 time=0
EXTRACT: note_on channel=8 note=67 velocity=0 time=0
EXTRACT: note_on channel=3 note=62 velocity=113 time=0.005263149999999999
EXTRACT: note_on channel=9 note=69 velocity=0 time=0.04736835
EXTRACT: note_on channel=4 note=66 velocity=0 time=0.02631575
EXTRACT: note_on channel=4 note=62 velocity=0 time=0
EXTRACT: note_on channel=4 note=59 velocity=0 time=0
EXTRACT: note_on channel=4 note=54 velocity=0 time=0
EXTRACT: note_on channel=4 note=47 velocity=0 time=0
EXTRACT: note_on channel=9 note=42 velocity=104 time=0.07894725
EXTRACT: note_on channel=4 note=66 velocity=54 time=0
EXTRACT: note_on channel=4 note=62 velocity=41 time=0
EXTRACT: note_on channel=4 note=59 velocity=51 time=0
EXTRACT: note_on channel=8 note=54 velocity=96 time=0
EXTRACT: note_on channel=8 note=66 velocity=126 time=0
EXTRACT: note_on channel=3 note=62 velocity=0 time=0.005263149999999999
EXTRACT: note_on channel=3 note=61 velocity=104 time=0
EXTRACT: note_on channel=9 note=42 velocity=0 time=0.04736835
EXTRACT: note_on channel=4 note=66 velocity=0 time=0.02631575
EXTRACT: note_on channel=4 note=62 velocity=0 time=0
EXTRACT: note_on channel=4 note=59 velocity=0 time=0
EXTRACT: note_on channel=2 note=59 velocity=116 time=0.07368409999999999
EXTRACT: note_on channel=9 note=69 velocity=62 time=0.005263149999999999
EXTRACT: note_on channel=4 note=66 velocity=52 time=0
EXTRACT: note_on channel=4 note=62 velocity=83 time=0
EXTRACT: note_on channel=4 note=59 velocity=73 time=0
EXTRACT: note_on channel=4 note=54 velocity=90 time=0
EXTRACT: note_on channel=4 note=47 velocity=61 time=0
EXTRACT: note_on channel=8 note=54 velocity=0 time=0
EXTRACT: note_on channel=8 note=66 velocity=0 time=0
EXTRACT: note_on channel=3 note=61 velocity=0 time=0.005263149999999999
EXTRACT: note_on channel=3 note=59 velocity=112 time=0
EXTRACT: note_on channel=9 note=69 velocity=0 time=0.04736835
EXTRACT: note_on channel=4 note=66 velocity=0 time=0.02631575
EXTRACT: note_on channel=4 note=62 velocity=0 time=0
EXTRACT: note_on channel=4 note=59 velocity=0 time=0
EXTRACT: note_on channel=4 note=54 velocity=0 time=0
EXTRACT: note_on channel=4 note=47 velocity=0 time=0
EXTRACT: note_on channel=9 note=36 velocity=120 time=0.07894725
EXTRACT: note_on channel=9 note=42 velocity=101 time=0
EXTRACT: note_on channel=4 note=66 velocity=61 time=0
EXTRACT: note_on channel=4 note=62 velocity=50 time=0
EXTRACT: note_on channel=4 note=59 velocity=68 time=0
EXTRACT: note_on channel=8 note=52 velocity=99 time=0
EXTRACT: note_on channel=8 note=64 velocity=126 time=0
EXTRACT: note_on channel=3 note=59 velocity=0 time=0.005263149999999999
EXTRACT: note_on channel=9 note=36 velocity=0 time=0.04736835
EXTRACT: note_on channel=9 note=42 velocity=0 time=0
EXTRACT: note_on channel=4 note=66 velocity=0 time=0.02631575
EXTRACT: note_on channel=4 note=62 velocity=0 time=0
EXTRACT: note_on channel=4 note=59 velocity=0 time=0
EXTRACT: note_on channel=2 note=62 velocity=118 time=0.07368409999999999
EXTRACT: note_on channel=9 note=69 velocity=73 time=0.005263149999999999
EXTRACT: note_on channel=3 note=62 velocity=108 time=0.005263149999999999
EXTRACT: note_on channel=9 note=69 velocity=0 time=0.04736835
EXTRACT: note_on channel=9 note=42 velocity=100 time=0.105263
EXTRACT: note_on channel=9 note=69 velocity=78 time=0
EXTRACT: note_on channel=1 note=35 velocity=124 time=0
EXTRACT: note_on channel=4 note=66 velocity=90 time=0
EXTRACT: note_on channel=4 note=62 velocity=111 time=0
EXTRACT: note_on channel=4 note=59 velocity=115 time=0
EXTRACT: note_on channel=4 note=54 velocity=109 time=0
EXTRACT: note_on channel=4 note=47 velocity=94 time=0
EXTRACT: note_on channel=7 note=66 velocity=84 time=0
EXTRACT: note_on channel=7 note=62 velocity=74 time=0
EXTRACT: note_on channel=7 note=59 velocity=94 time=0
EXTRACT: note_on channel=7 note=54 velocity=111 time=0
EXTRACT: note_on channel=7 note=47 velocity=111 time=0
EXTRACT: note_on channel=8 note=52 velocity=0 time=0
EXTRACT: note_on channel=8 note=64 velocity=0 time=0
EXTRACT: note_on channel=8 note=50 velocity=96 time=0
EXTRACT: note_on channel=8 note=62 velocity=115 time=0
EXTRACT: note_on channel=3 note=62 velocity=0 time=0.005263149999999999
EXTRACT: note_on channel=9 note=42 velocity=0 time=0.04736835
EXTRACT: note_on channel=9 note=69 velocity=0 time=0
EXTRACT: note_on channel=2 note=66 velocity=104 time=0.09999984999999999
EXTRACT: note_on channel=1 note=35 velocity=0 time=0.005263149999999999
EXTRACT: note_on channel=4 note=66 velocity=0 time=0
EXTRACT: note_on channel=4 note=62 velocity=0 time=0
EXTRACT: note_on channel=4 note=59 velocity=0 time=0
EXTRACT: note_on channel=4 note=54 velocity=0 time=0
EXTRACT: note_on channel=4 note=47 velocity=0 time=0
EXTRACT: note_on channel=7 note=66 velocity=0 time=0
EXTRACT: note_on channel=7 note=62 velocity=0 time=0
EXTRACT: note_on channel=7 note=59 velocity=0 time=0
EXTRACT: note_on channel=7 note=54 velocity=0 time=0
EXTRACT: note_on channel=7 note=47 velocity=0 time=0
EXTRACT: note_on channel=8 note=50 velocity=0 time=0
EXTRACT: note_on channel=8 note=62 velocity=0 time=0
EXTRACT: note_on channel=3 note=62 velocity=115 time=0.005263149999999999
EXTRACT: note_on channel=2 note=66 velocity=106 time=0.14736819999999998
EXTRACT: note_on channel=9 note=40 velocity=127 time=0.005263149999999999
EXTRACT: note_on channel=9 note=42 velocity=105 time=0
EXTRACT: note_on channel=9 note=69 velocity=66 time=0
EXTRACT: note_on channel=8 note=54 velocity=84 time=0
EXTRACT: note_on channel=8 note=66 velocity=126 time=0
EXTRACT: note_on channel=9 note=40 velocity=0 time=0.0526315
EXTRACT: note_on channel=9 note=42 velocity=0 time=0
EXTRACT: note_on channel=9 note=69 velocity=0 time=0
EXTRACT: note_on channel=4 note=66 velocity=43 time=0.105263
EXTRACT: note_on channel=4 note=62 velocity=64 time=0
EXTRACT: note_on channel=4 note=59 velocity=56 time=0
EXTRACT: note_on channel=8 note=54 velocity=0 time=0
EXTRACT: note_on channel=8 note=66 velocity=0 time=0
EXTRACT: note_on channel=4 note=66 velocity=0 time=0.07894725
EXTRACT: note_on channel=4 note=62 velocity=0 time=0
EXTRACT: note_on channel=4 note=59 velocity=0 time=0
EXTRACT: note_on channel=2 note=62 velocity=114 time=0.07368409999999999
EXTRACT: note_on channel=9 note=36 velocity=90 time=0.005263149999999999
EXTRACT: note_on channel=9 note=42 velocity=105 time=0
EXTRACT: note_on channel=1 note=38 velocity=118 time=0
EXTRACT: note_on channel=4 note=66 velocity=66 time=0
EXTRACT: note_on channel=4 note=62 velocity=69 time=0
EXTRACT: note_on channel=4 note=59 velocity=88 time=0
EXTRACT: note_on channel=4 note=54 velocity=76 time=0
EXTRACT: note_on channel=4 note=47 velocity=90 time=0
EXTRACT: note_on channel=8 note=47 velocity=83 time=0
EXTRACT: note_on channel=8 note=59 velocity=124 time=0
EXTRACT: note_on channel=9 note=36 velocity=0 time=0.0526315
EXTRACT: note_on channel=9 note=42 velocity=0 time=0
EXTRACT: note_on channel=4 note=66 velocity=0 time=0.02631575
EXTRACT: note_on channel=4 note=62 velocity=0 time=0
EXTRACT: note_on channel=4 note=59 velocity=0 time=0
EXTRACT: note_on channel=4 note=54 velocity=0 time=0
EXTRACT: note_on channel=4 note=47 velocity=0 time=0
EXTRACT: note_on channel=9 note=40 velocity=127 time=0.07894725
EXTRACT: note_on channel=1 note=38 velocity=0 time=0
EXTRACT: note_on channel=9 note=40 velocity=0 time=0.0526315
EXTRACT: note_on channel=2 note=47 velocity=0 time=0.09999984999999999
EXTRACT: note_on channel=2 note=62 velocity=0 time=0
EXTRACT: note_on channel=2 note=66 velocity=0 time=0
EXTRACT: note_on channel=2 note=62 velocity=0 time=0
EXTRACT: note_on channel=2 note=59 velocity=0 time=0
EXTRACT: note_on channel=2 note=62 velocity=0 time=0
EXTRACT: note_on channel=2 note=66 velocity=0 time=0
EXTRACT: note_on channel=2 note=66 velocity=0 time=0
EXTRACT: note_on channel=2 note=62 velocity=0 time=0
EXTRACT: note_on channel=2 note=40 velocity=120 time=0
EXTRACT: note_on channel=9 note=42 velocity=104 time=0.005263149999999999
EXTRACT: note_on channel=9 note=36 velocity=120 time=0
EXTRACT: note_on channel=1 note=40 velocity=108 time=0
EXTRACT: note_on channel=4 note=67 velocity=96 time=0
EXTRACT: note_on channel=4 note=62 velocity=86 time=0
EXTRACT: note_on channel=4 note=59 velocity=93 time=0
EXTRACT: note_on channel=4 note=55 velocity=103 time=0
EXTRACT: note_on channel=4 note=47 velocity=91 time=0
EXTRACT: note_on channel=5 note=90 velocity=0 time=0
EXTRACT: note_on channel=5 note=78 velocity=0 time=0
EXTRACT: note_on channel=5 note=91 velocity=109 time=0
EXTRACT: note_on channel=5 note=79 velocity=106 time=0
EXTRACT: note_on channel=6 note=59 velocity=0 time=0
EXTRACT: note_on channel=6 note=62 velocity=0 time=0
EXTRACT: note_on channel=6 note=66 velocity=0 time=0
EXTRACT: note_on channel=6 note=59 velocity=117 time=0
EXTRACT: note_on channel=6 note=62 velocity=126 time=0
EXTRACT: note_on channel=6 note=67 velocity=116 time=0
EXTRACT: note_on channel=7 note=67 velocity=76 time=0
EXTRACT: note_on channel=7 note=62 velocity=108 time=0
EXTRACT: note_on channel=7 note=59 velocity=111 time=0
EXTRACT: note_on channel=7 note=55 velocity=82 time=0
EXTRACT: note_on channel=7 note=47 velocity=79 time=0
EXTRACT: note_on channel=3 note=62 velocity=0 time=0.005263149999999999
EXTRACT: note_on channel=9 note=42 velocity=0 time=0.04736835
EXTRACT: note_on channel=9 note=36 velocity=0 time=0
EXTRACT: note_on channel=1 note=40 velocity=0 time=0.07894725
EXTRACT: note_on channel=2 note=62 velocity=119 time=0.17894709999999997
EXTRACT: note_on channel=9 note=42 velocity=95 time=0.005263149999999999
EXTRACT: note_on channel=1 note=40 velocity=122 time=0
EXTRACT: note_on channel=4 note=67 velocity=0 time=0
EXTRACT: note_on channel=4 note=62 velocity=0 time=0
EXTRACT: note_on channel=4 note=59 velocity=0 time=0
EXTRACT: note_on channel=4 note=55 velocity=0 time=0
EXTRACT: note_on channel=4 note=47 velocity=0 time=0
EXTRACT: note_on channel=7 note=67 velocity=0 time=0
EXTRACT: note_on channel=7 note=62 velocity=0 time=0
EXTRACT: note_on channel=7 note=59 velocity=0 time=0
EXTRACT: note_on channel=7 note=55 velocity=0 time=0
EXTRACT: note_on channel=7 note=47 velocity=0 time=0
EXTRACT: note_on channel=8 note=47 velocity=0 time=0
EXTRACT: note_on channel=8 note=59 velocity=0 time=0
EXTRACT: note_on channel=8 note=52 velocity=83 time=0
EXTRACT: note_on channel=8 note=64 velocity=122 time=0
EXTRACT: note_on channel=3 note=62 velocity=112 time=0.005263149999999999
EXTRACT: note_on channel=9 note=42 velocity=0 time=0.04736835
EXTRACT: note_on channel=1 note=40 velocity=0 time=0.09999984999999999
EXTRACT: note_on channel=2 note=67 velocity=111 time=0
EXTRACT: note_on channel=1 note=35 velocity=123 time=0.005263149999999999
EXTRACT: note_on channel=4 note=67 velocity=91 time=0
EXTRACT: note_on channel=4 note=62 velocity=108 time=0
EXTRACT: note_on channel=4 note=59 velocity=87 time=0
EXTRACT: note_on channel=4 note=55 velocity=105 time=0
EXTRACT: note_on channel=4 note=47 velocity=89 time=0
EXTRACT: note_on channel=7 note=67 velocity=82 time=0
EXTRACT: note_on channel=7 note=62 velocity=108 time=0
EXTRACT: note_on channel=7 note=59 velocity=74 time=0
EXTRACT: note_on channel=7 note=55 velocity=112 time=0
EXTRACT: note_on channel=7 note=47 velocity=107 time=0
EXTRACT: note_on channel=8 note=52 velocity=0 time=0
EXTRACT: note_on channel=8 note=64 velocity=0 time=0
EXTRACT: note_on channel=9 note=42 velocity=97 time=0.1578945
EXTRACT: note_on channel=9 note=40 velocity=127 time=0
EXTRACT: note_on channel=9 note=69 velocity=62 time=0
EXTRACT: note_on channel=1 note=35 velocity=0 time=0
EXTRACT: note_on channel=4 note=67 velocity=0 time=0
EXTRACT: note_on channel=4 note=62 velocity=0 time=0
EXTRACT: note_on channel=4 note=59 velocity=0 time=0
EXTRACT: note_on channel=4 note=55 velocity=0 time=0
EXTRACT: note_on channel=4 note=47 velocity=0 time=0
EXTRACT: note_on channel=7 note=67 velocity=0 time=0
EXTRACT: note_on channel=7 note=62 velocity=0 time=0
EXTRACT: note_on channel=7 note=59 velocity=0 time=0
EXTRACT: note_on channel=7 note=55 velocity=0 time=0
EXTRACT: note_on channel=7 note=47 velocity=0 time=0
EXTRACT: note_on channel=8 note=52 velocity=83 time=0
EXTRACT: note_on channel=8 note=64 velocity=120 time=0
EXTRACT: note_on channel=3 note=62 velocity=0 time=0.005263149999999999
EXTRACT: note_on channel=9 note=42 velocity=0 time=0.04736835
EXTRACT: note_on channel=9 note=40 velocity=0 time=0
EXTRACT: note_on channel=9 note=69 velocity=0 time=0
EXTRACT: note_on channel=2 note=62 velocity=122 time=0.09999984999999999
EXTRACT: note_on channel=9 note=69 velocity=70 time=0.005263149999999999
EXTRACT: note_on channel=1 note=35 velocity=127 time=0
EXTRACT: note_on channel=4 note=67 velocity=75 time=0
EXTRACT: note_on channel=4 note=62 velocity=51 time=0
EXTRACT: note_on channel=4 note=59 velocity=66 time=0
EXTRACT: note_on channel=4 note=55 velocity=66 time=0
EXTRACT: note_on channel=4 note=47 velocity=55 time=0
EXTRACT: note_on channel=3 note=62 velocity=106 time=0.005263149999999999
EXTRACT: note_on channel=9 note=69 velocity=0 time=0.04736835
EXTRACT: note_on channel=4 note=67 velocity=0 time=0.02631575
EXTRACT: note_on channel=4 note=62 velocity=0 time=0
EXTRACT: note_on channel=4 note=59 velocity=0 time=0
EXTRACT: note_on channel=4 note=55 velocity=0 time=0
EXTRACT: note_on channel=4 note=47 velocity=0 time=0
EXTRACT: note_on channel=1 note=35 velocity=0 time=0.07368409999999999
EXTRACT: note_on channel=9 note=42 velocity=91 time=0.005263149999999999
EXTRACT: note_on channel=1 note=31 velocity=119 time=0
EXTRACT: note_on channel=4 note=67 velocity=52 time=0
EXTRACT: note_on channel=4 note=62 velocity=60 time=0
EXTRACT: note_on channel=4 note=59 velocity=69 time=0
EXTRACT: note_on channel=3 note=62 velocity=0 time=0.005263149999999999
EXTRACT: note_on channel=3 note=61 velocity=104 time=0
EXTRACT: note_on channel=9 note=42 velocity=0 time=0.04736835
EXTRACT: note_on channel=4 note=67 velocity=0 time=0.02631575
EXTRACT: note_on channel=4 note=62 velocity=0 time=0
EXTRACT: note_on channel=4 note=59 velocity=0 time=0
EXTRACT: note_on channel=2 note=59 velocity=110 time=0.07368409999999999
EXTRACT: note_on channel=9 note=69 velocity=62 time=0.005263149999999999
EXTRACT: note_on channel=1 note=31 velocity=0 time=0
EXTRACT: note_on channel=4 note=67 velocity=90 time=0
EXTRACT: note_on channel=4 note=62 velocity=80 time=0
EXTRACT: note_on channel=4 note=59 velocity=59 time=0
EXTRACT: note_on channel=4 note=55 velocity=90 time=0
EXTRACT: note_on channel=4 note=47 velocity=90 time=0
EXTRACT: note_on channel=3 note=61 velocity=0 time=0.005263149999999999
EXTRACT: note_on channel=3 note=59 velocity=112 time=0
EXTRACT: note_on channel=9 note=69 velocity=0 time=0.04736835
EXTRACT: note_on channel=4 note=67 velocity=0 time=0.02631575
EXTRACT: note_on channel=4 note=62 velocity=0 time=0
EXTRACT: note_on channel=4 note=59 velocity=0 time=0
EXTRACT: note_on channel=4 note=55 velocity=0 time=0
EXTRACT: note_on channel=4 note=47 velocity=0 time=0
EXTRACT: note_on channel=9 note=36 velocity=120 time=0.07894725
EXTRACT: note_on channel=9 note=42 velocity=90 time=0
EXTRACT: note_on channel=1 note=28 velocity=113 time=0
EXTRACT: note_on channel=4 note=67 velocity=71 time=0
EXTRACT: note_on channel=4 note=62 velocity=41 time=0
EXTRACT: note_on channel=4 note=59 velocity=42 time=0
EXTRACT: note_on channel=3 note=59 velocity=0 time=0.005263149999999999
EXTRACT: note_on channel=9 note=36 velocity=0 time=0.04736835
EXTRACT: note_on channel=9 note=42 velocity=0 time=0
EXTRACT: note_on channel=4 note=67 velocity=0 time=0.02631575
EXTRACT: note_on channel=4 note=62 velocity=0 time=0
EXTRACT: note_on channel=4 note=59 velocity=0 time=0
EXTRACT: note_on channel=2 note=62 velocity=102 time=0.07368409999999999
EXTRACT: note_on channel=9 note=69 velocity=73 time=0.005263149999999999
EXTRACT: note_on channel=3 note=62 velocity=126 time=0.005263149999999999
EXTRACT: note_on channel=9 note=69 velocity=0 time=0.04736835
EXTRACT: note_on channel=9 note=42 velocity=94 time=0.105263
EXTRACT: note_on channel=9 note=69 velocity=78 time=0
EXTRACT: note_on channel=1 note=28 velocity=0 time=0
EXTRACT: note_on channel=4 note=67 velocity=95 time=0
EXTRACT: note_on channel=4 note=62 velocity=89 time=0
EXTRACT: note_on channel=4 note=59 velocity=101 time=0
EXTRACT: note_on channel=4 note=55 velocity=113 time=0
EXTRACT: note_on channel=4 note=47 velocity=98 time=0
EXTRACT: note_on channel=7 note=67 velocity=108 time=0
EXTRACT: note_on channel=7 note=62 velocity=88 time=0
EXTRACT: note_on channel=7 note=59 velocity=79 time=0
EXTRACT: note_on channel=7 note=55 velocity=112 time=0
EXTRACT: note_on channel=7 note=47 velocity=79 time=0
EXTRACT: note_on channel=3 note=62 velocity=0 time=0.005263149999999999
EXTRACT: note_on channel=9 note=42 velocity=0 time=0.04736835
EXTRACT: note_on channel=9 note=69 velocity=0 time=0
EXTRACT: note_on channel=2 note=67 velocity=108 time=0.09999984999999999
EXTRACT: note_on channel=4 note=67 velocity=0 time=0.005263149999999999
EXTRACT: note_on channel=4 note=62 velocity=0 time=0
EXTRACT: note_on channel=4 note=59 velocity=0 time=0
EXTRACT: note_on channel=4 note=55 velocity=0 time=0
EXTRACT: note_on channel=4 note=47 velocity=0 time=0
EXTRACT: note_on channel=7 note=67 velocity=0 time=0
EXTRACT: note_on channel=7 note=62 velocity=0 time=0
EXTRACT: note_on channel=7 note=59 velocity=0 time=0
EXTRACT: note_on channel=7 note=55 velocity=0 time=0
EXTRACT: note_on channel=7 note=47 velocity=0 time=0
EXTRACT: note_on channel=3 note=62 velocity=125 time=0.005263149999999999
EXTRACT: note_on channel=2 note=67 velocity=127 time=0.14736819999999998
EXTRACT: note_on channel=9 note=40 velocity=127 time=0.005263149999999999
EXTRACT: note_on channel=9 note=42 velocity=95 time=0
EXTRACT: note_on channel=9 note=69 velocity=66 time=0
EXTRACT: note_on channel=5 note=91 velocity=0 time=0
EXTRACT: note_on channel=5 note=79 velocity=0 time=0
EXTRACT: note_on channel=5 note=86 velocity=116 time=0
EXTRACT: note_on channel=5 note=74 velocity=103 time=0
EXTRACT: note_on channel=9 note=40 velocity=0 time=0.0526315
EXTRACT: note_on channel=9 note=42 velocity=0 time=0
EXTRACT: note_on channel=9 note=69 velocity=0 time=0
EXTRACT: note_on channel=4 note=67 velocity=43 time=0.105263
EXTRACT: note_on channel=4 note=62 velocity=45 time=0
EXTRACT: note_on channel=4 note=59 velocity=57 time=0
EXTRACT: note_on channel=5 note=86 velocity=0 time=0
EXTRACT: note_on channel=5 note=74 velocity=0 time=0
EXTRACT: note_on channel=5 note=73 velocity=110 time=0
EXTRACT: note_on channel=5 note=85 velocity=113 time=0
EXTRACT: note_on channel=4 note=67 velocity=0 time=0.07894725
EXTRACT: note_on channel=4 note=62 velocity=0 time=0
EXTRACT: note_on channel=4 note=59 velocity=0 time=0
EXTRACT: note_on channel=2 note=62 velocity=123 time=0.07368409999999999
EXTRACT: note_on channel=9 note=42 velocity=97 time=0.005263149999999999
EXTRACT: note_on channel=1 note=28 velocity=113 time=0
EXTRACT: note_on channel=4 note=67 velocity=73 time=0
EXTRACT: note_on channel=4 note=62 velocity=57 time=0
EXTRACT: note_on channel=4 note=59 velocity=77 time=0
EXTRACT: note_on channel=4 note=55 velocity=89 time=0
EXTRACT: note_on channel=4 note=47 velocity=88 time=0
EXTRACT: note_on channel=5 note=73 velocity=0 time=0
EXTRACT: note_on channel=5 note=85 velocity=0 time=0
EXTRACT: note_on channel=5 note=71 velocity=113 time=0
EXTRACT: note_on channel=5 note=83 velocity=115 time=0
EXTRACT: note_on channel=9 note=42 velocity=0 time=0.0526315
EXTRACT: note_on channel=4 note=67 velocity=0 time=0.02631575
EXTRACT: note_on channel=4 note=62 velocity=0 time=0
EXTRACT: note_on channel=4 note=59 velocity=0 time=0
EXTRACT: note_on channel=4 note=55 velocity=0 time=0
EXTRACT: note_on channel=4 note=47 velocity=0 time=0
EXTRACT: note_on channel=1 note=28 velocity=0 time=0.07894725
EXTRACT: note_on channel=5 note=71 velocity=0 time=0
EXTRACT: note_on channel=5 note=83 velocity=0 time=0
EXTRACT: note_on channel=5 note=85 velocity=111 time=0
EXTRACT: note_on channel=5 note=73 velocity=113 time=0
EXTRACT: note_on channel=2 note=40 velocity=0 time=0.15263134999999997
EXTRACT: note_on channel=2 note=62 velocity=0 time=0
EXTRACT: note_on channel=2 note=67 velocity=0 time=0
EXTRACT: note_on channel=2 note=62 velocity=0 time=0
EXTRACT: note_on channel=2 note=59 velocity=0 time=0
EXTRACT: note_on channel=2 note=62 velocity=0 time=0
EXTRACT: note_on channel=2 note=67 velocity=0 time=0
EXTRACT: note_on channel=2 note=67 velocity=0 time=0
EXTRACT: note_on channel=2 note=62 velocity=0 time=0
EXTRACT: note_on channel=2 note=57 velocity=80 time=0
EXTRACT: note_on channel=2 note=54 velocity=105 time=0
EXTRACT: note_on channel=9 note=42 velocity=100 time=0.005263149999999999
EXTRACT: note_on channel=9 note=36 velocity=120 time=0
EXTRACT: note_on channel=1 note=30 velocity=125 time=0
EXTRACT: note_on channel=4 note=64 velocity=101 time=0
EXTRACT: note_on channel=4 note=61 velocity=103 time=0
EXTRACT: note_on channel=4 note=57 velocity=113 time=0
EXTRACT: note_on channel=4 note=54 velocity=101 time=0
EXTRACT: note_on channel=5 note=85 velocity=0 time=0
EXTRACT: note_on channel=5 note=73 velocity=0 time=0
EXTRACT: note_on channel=5 note=74 velocity=116 time=0
EXTRACT: note_on channel=5 note=86 velocity=102 time=0
EXTRACT: note_on channel=6 note=59 velocity=0 time=0
EXTRACT: note_on channel=6 note=62 velocity=0 time=0
EXTRACT: note_on channel=6 note=67 velocity=0 time=0
EXTRACT: note_on channel=6 note=57 velocity=98 time=0
EXTRACT: note_on channel=6 note=61 velocity=119 time=0
EXTRACT: note_on channel=6 note=66 velocity=108 time=0
EXTRACT: note_on channel=7 note=64 velocity=94 time=0
EXTRACT: note_on channel=7 note=61 velocity=77 time=0
EXTRACT: note_on channel=7 note=57 velocity=76 time=0
EXTRACT: note_on channel=7 note=54 velocity=96 time=0
EXTRACT: note_on channel=8 note=52 velocity=0 time=0
EXTRACT: note_on channel=8 note=64 velocity=0 time=0
EXTRACT: note_on channel=3 note=62 velocity=0 time=0.005263149999999999
EXTRACT: note_on channel=9 note=42 velocity=0 time=0.04736835
EXTRACT: note_on channel=9 note=36 velocity=0 time=0
EXTRACT: note_on channel=1 note=30 velocity=0 time=0.15263134999999997
EXTRACT: note_on channel=1 note=30 velocity=118 time=0.005263149999999999
EXTRACT: note_on channel=2 note=61 velocity=118 time=0.09999984999999999
EXTRACT: note_on channel=9 note=42 velocity=93 time=0.005263149999999999
EXTRACT: note_on channel=4 note=64 velocity=0 time=0
EXTRACT: note_on channel=4 note=61 velocity=0 time=0
EXTRACT: note_on channel=4 note=57 velocity=0 time=0
EXTRACT: note_on channel=4 note=54 velocity=0 time=0
EXTRACT: note_on channel=7 note=64 velocity=0 time=0
EXTRACT: note_on channel=7 note=61 velocity=0 time=0
EXTRACT: note_on channel=7 note=57 velocity=0 time=0
EXTRACT: note_on channel=7 note=54 velocity=0 time=0
EXTRACT: note_on channel=3 note=61 velocity=124 time=0.005263149999999999
EXTRACT: note_on channel=9 note=42 velocity=0 time=0.04736835
EXTRACT: note_on channel=1 note=30 velocity=0 time=0.04736835
EXTRACT: note_on channel=1 note=30 velocity=112 time=0.005263149999999999
EXTRACT: note_on channel=2 note=64 velocity=113 time=0.04736835
EXTRACT: note_on channel=4 note=64 velocity=102 time=0.005263149999999999
EXTRACT: note_on channel=4 note=61 velocity=107 time=0
EXTRACT: note_on channel=4 note=57 velocity=87 time=0
EXTRACT: note_on channel=4 note=54 velocity=92 time=0
EXTRACT: note_on channel=7 note=64 velocity=112 time=0
EXTRACT: note_on channel=7 note=61 velocity=94 time=0
EXTRACT: note_on channel=7 note=57 velocity=110 time=0
EXTRACT: note_on channel=7 note=54 velocity=88 time=0
EXTRACT: note_on channel=1 note=30 velocity=0 time=0.15263134999999997
EXTRACT: note_on channel=9 note=42 velocity=96 time=0.005263149999999999
EXTRACT: note_on channel=9 note=40 velocity=127 time=0
EXTRACT: note_on channel=9 note=69 velocity=62 time=0
EXTRACT: note_on channel=1 note=37 velocity=127 time=0
EXTRACT: note_on channel=4 note=64 velocity=0 time=0
EXTRACT: note_on channel=4 note=61 velocity=0 time=0
EXTRACT: note_on channel=4 note=57 velocity=0 time=0
EXTRACT: note_on channel=4 note=54 velocity=0 time=0
EXTRACT: note_on channel=5 note=74 velocity=0 time=0
EXTRACT: note_on channel=5 note=86 velocity=0 time=0
EXTRACT: note_on channel=5 note=85 velocity=105 time=0
EXTRACT: note_on channel=5 note=73 velocity=103 time=0
EXTRACT: note_on channel=7 note=64 velocity=0 time=0
EXTRACT: note_on channel=7 note=61 velocity=0 time=0
EXTRACT: note_on channel=7 note=57 velocity=0 time=0
EXTRACT: note_on channel=7 note=54 velocity=0 time=0
EXTRACT: note_on channel=3 note=61 velocity=0 time=0.005263149999999999
EXTRACT: note_on channel=9 note=42 velocity=0 time=0.04736835
EXTRACT: note_on channel=9 note=40 velocity=0 time=0
EXTRACT: note_on channel=9 note=69 velocity=0 time=0
EXTRACT: note_on channel=2 note=61 velocity=105 time=0.09999984999999999
EXTRACT: note_on channel=9 note=69 velocity=70 time=0.005263149999999999
EXTRACT: note_on channel=4 note=64 velocity=84 time=0
EXTRACT: note_on channel=4 note=61 velocity=89 time=0
EXTRACT: note_on channel=4 note=57 velocity=57 time=0
EXTRACT: note_on channel=4 note=54 velocity=62 time=0
EXTRACT: note_on channel=3 note=61 velocity=122 time=0.005263149999999999
EXTRACT: note_on channel=9 note=69 velocity=0 time=0.04736835
EXTRACT: note_on channel=1 note=37 velocity=0 time=0.02631575
EXTRACT: note_on channel=4 note=64 velocity=0 time=0
EXTRACT: note_on channel=4 note=61 velocity=0 time=0
EXTRACT: note_on channel=4 note=57 velocity=0 time=0
EXTRACT: note_on channel=4 note=54 velocity=0 time=0
EXTRACT: note_on channel=9 note=42 velocity=103 time=0.07894725
EXTRACT: note_on channel=1 note=42 velocity=120 time=0
EXTRACT: note_on channel=4 note=64 velocity=54 time=0
EXTRACT: note_on channel=4 note=61 velocity=47 time=0
EXTRACT: note_on channel=4 note=57 velocity=55 time=0
EXTRACT: note_on channel=9 note=42 velocity=0 time=0.0526315
EXTRACT: note_on channel=4 note=64 velocity=0 time=0.02631575
EXTRACT: note_on channel=4 note=61 velocity=0 time=0
EXTRACT: note_on channel=4 note=57 velocity=0 time=0
EXTRACT: note_on channel=2 note=57 velocity=117 time=0.07368409999999999
EXTRACT: note_on channel=9 note=69 velocity=62 time=0.005263149999999999
EXTRACT: note_on channel=4 note=64 velocity=51 time=0
EXTRACT: note_on channel=4 note=61 velocity=67 time=0
EXTRACT: note_on channel=4 note=57 velocity=88 time=0
EXTRACT: note_on channel=4 note=54 velocity=70 time=0
EXTRACT: note_on channel=3 note=61 velocity=0 time=0.005263149999999999
EXTRACT: note_on channel=9 note=69 velocity=0 time=0.04736835
EXTRACT: note_on channel=1 note=42 velocity=0 time=0.02631575
EXTRACT: note_on channel=4 note=64 velocity=0 time=0
EXTRACT: note_on channel=4 note=61 velocity=0 time=0
EXTRACT: note_on channel=4 note=57 velocity=0 time=0
EXTRACT: note_on channel=4 note=54 velocity=0 time=0
EXTRACT: note_on channel=2 note=61 velocity=110 time=0.07368409999999999
EXTRACT: note_on channel=9 note=36 velocity=120 time=0.005263149999999999
EXTRACT: note_on channel=9 note=42 velocity=92 time=0
EXTRACT: note_on channel=1 note=37 velocity=120 time=0
EXTRACT: note_on channel=4 note=64 velocity=56 time=0
EXTRACT: note_on channel=4 note=61 velocity=62 time=0
EXTRACT: note_on channel=4 note=57 velocity=64 time=0
EXTRACT: note_on channel=5 note=85 velocity=0 time=0
EXTRACT: note_on channel=5 note=73 velocity=0 time=0
EXTRACT: note_on channel=5 note=71 velocity=112 time=0
EXTRACT: note_on channel=5 note=83 velocity=107 time=0
EXTRACT: note_on channel=3 note=61 velocity=110 time=0.005263149999999999
EXTRACT: note_on channel=9 note=36 velocity=0 time=0.04736835
EXTRACT: note_on channel=9 note=42 velocity=0 time=0
EXTRACT: note_on channel=4 note=64 velocity=0 time=0.02631575
EXTRACT: note_on channel=4 note=61 velocity=0 time=0
EXTRACT: note_on channel=4 note=57 velocity=0 time=0
EXTRACT: note_on channel=2 note=64 velocity=107 time=0.07368409999999999
EXTRACT: note_on channel=9 note=69 velocity=73 time=0.005263149999999999
EXTRACT: note_on channel=9 note=69 velocity=0 time=0.0526315
EXTRACT: note_on channel=2 note=66 velocity=114 time=0.09999984999999999
EXTRACT: note_on channel=9 note=36 velocity=120 time=0.005263149999999999
EXTRACT: note_on channel=9 note=42 velocity=91 time=0
EXTRACT: note_on channel=9 note=69 velocity=78 time=0
EXTRACT: note_on channel=4 note=64 velocity=93 time=0
EXTRACT: note_on channel=4 note=61 velocity=107 time=0
EXTRACT: note_on channel=4 note=57 velocity=105 time=0
EXTRACT: note_on channel=4 note=54 velocity=86 time=0
EXTRACT: note_on channel=7 note=64 velocity=112 time=0
EXTRACT: note_on channel=7 note=61 velocity=90 time=0
EXTRACT: note_on channel=7 note=57 velocity=109 time=0
EXTRACT: note_on channel=7 note=54 velocity=74 time=0
EXTRACT: note_on channel=9 note=36 velocity=0 time=0.0526315
EXTRACT: note_on channel=9 note=42 velocity=0 time=0
EXTRACT: note_on channel=9 note=69 velocity=0 time=0
EXTRACT: note_on channel=1 note=37 velocity=0 time=0.04736835
EXTRACT: note_on channel=1 note=42 velocity=124 time=0.005263149999999999
EXTRACT: note_on channel=2 note=69 velocity=118 time=0.04736835
EXTRACT: note_on channel=4 note=64 velocity=0 time=0.005263149999999999
EXTRACT: note_on channel=4 note=61 velocity=0 time=0
EXTRACT: note_on channel=4 note=57 velocity=0 time=0
EXTRACT: note_on channel=4 note=54 velocity=0 time=0
EXTRACT: note_on channel=7 note=64 velocity=0 time=0
EXTRACT: note_on channel=7 note=61 velocity=0 time=0
EXTRACT: note_on channel=7 note=57 velocity=0 time=0
EXTRACT: note_on channel=7 note=54 velocity=0 time=0
EXTRACT: note_on channel=9 note=40 velocity=127 time=0.1578945
EXTRACT: note_on channel=9 note=42 velocity=93 time=0
EXTRACT: note_on channel=9 note=69 velocity=66 time=0
EXTRACT: note_on channel=5 note=71 velocity=0 time=0
EXTRACT: note_on channel=5 note=83 velocity=0 time=0
EXTRACT: note_on channel=5 note=81 velocity=99 time=0
EXTRACT: note_on channel=5 note=69 velocity=109 time=0
EXTRACT: note_on channel=8 note=50 velocity=99 time=0
EXTRACT: note_on channel=8 note=62 velocity=125 time=0
EXTRACT: note_on channel=9 note=40 velocity=0 time=0.0526315
EXTRACT: note_on channel=9 note=42 velocity=0 time=0
EXTRACT: note_on channel=9 note=69 velocity=0 time=0
EXTRACT: note_on channel=4 note=64 velocity=44 time=0.105263
EXTRACT: note_on channel=4 note=61 velocity=64 time=0
EXTRACT: note_on channel=4 note=57 velocity=61 time=0
EXTRACT: note_on channel=8 note=50 velocity=0 time=0
EXTRACT: note_on channel=8 note=62 velocity=0 time=0
EXTRACT: note_on channel=1 note=42 velocity=0 time=0.04736835
EXTRACT: note_on channel=1 note=49 velocity=127 time=0.005263149999999999
EXTRACT: note_on channel=4 note=64 velocity=0 time=0.02631575
EXTRACT: note_on channel=4 note=61 velocity=0 time=0
EXTRACT: note_on channel=4 note=57 velocity=0 time=0
EXTRACT: note_on channel=9 note=36 velocity=90 time=0.07894725
EXTRACT: note_on channel=9 note=42 velocity=99 time=0
EXTRACT: note_on channel=4 note=64 velocity=75 time=0
EXTRACT: note_on channel=4 note=61 velocity=63 time=0
EXTRACT: note_on channel=4 note=57 velocity=62 time=0
EXTRACT: note_on channel=4 note=54 velocity=52 time=0
EXTRACT: note_on channel=8 note=54 velocity=100 time=0
EXTRACT: note_on channel=8 note=66 velocity=121 time=0
EXTRACT: note_on channel=3 note=61 velocity=86 time=0.005263149999999999
EXTRACT: note_on channel=9 note=36 velocity=0 time=0.04736835
EXTRACT: note_on channel=9 note=42 velocity=0 time=0
EXTRACT: note_on channel=4 note=64 velocity=0 time=0.02631575
EXTRACT: note_on channel=4 note=61 velocity=0 time=0
EXTRACT: note_on channel=4 note=57 velocity=0 time=0
EXTRACT: note_on channel=4 note=54 velocity=0 time=0
EXTRACT: note_on channel=9 note=40 velocity=127 time=0.07894725
EXTRACT: note_on channel=9 note=40 velocity=0 time=0.0526315
EXTRACT: note_on channel=1 note=49 velocity=0 time=0.09999984999999999
EXTRACT: note_on channel=2 note=57 velocity=0 time=0
EXTRACT: note_on channel=2 note=54 velocity=0 time=0
EXTRACT: note_on channel=2 note=61 velocity=0 time=0
EXTRACT: note_on channel=2 note=64 velocity=0 time=0
EXTRACT: note_on channel=2 note=61 velocity=0 time=0
EXTRACT: note_on channel=2 note=57 velocity=0 time=0
EXTRACT: note_on channel=2 note=61 velocity=0 time=0
EXTRACT: note_on channel=2 note=64 velocity=0 time=0
EXTRACT: note_on channel=2 note=66 velocity=0 time=0
EXTRACT: note_on channel=2 note=69 velocity=0 time=0
EXTRACT: note_on channel=2 note=47 velocity=124 time=0
EXTRACT: note_on channel=9 note=57 velocity=90 time=0.005263149999999999
EXTRACT: note_on channel=9 note=36 velocity=120 time=0
EXTRACT: note_on channel=1 note=35 velocity=125 time=0
EXTRACT: note_on channel=4 note=66 velocity=105 time=0
EXTRACT: note_on channel=4 note=62 velocity=107 time=0
EXTRACT: note_on channel=4 note=59 velocity=111 time=0
EXTRACT: note_on channel=4 note=54 velocity=92 time=0
EXTRACT: note_on channel=4 note=47 velocity=95 time=0
EXTRACT: note_on channel=5 note=81 velocity=0 time=0
EXTRACT: note_on channel=5 note=69 velocity=0 time=0
EXTRACT: note_on channel=5 note=90 velocity=105 time=0
EXTRACT: note_on channel=5 note=78 velocity=109 time=0
EXTRACT: note_on channel=6 note=57 velocity=0 time=0
EXTRACT: note_on channel=6 note=61 velocity=0 time=0
EXTRACT: note_on channel=6 note=66 velocity=0 time=0
EXTRACT: control_change channel=6 control=11 value=40 time=0
EXTRACT: note_on channel=6 note=59 velocity=117 time=0
EXTRACT: note_on channel=6 note=62 velocity=108 time=0
EXTRACT: note_on channel=6 note=66 velocity=117 time=0
EXTRACT: note_on channel=7 note=66 velocity=81 time=0
EXTRACT: note_on channel=7 note=62 velocity=93 time=0
EXTRACT: note_on channel=7 note=59 velocity=108 time=0
EXTRACT: note_on channel=7 note=54 velocity=92 time=0
EXTRACT: note_on channel=7 note=47 velocity=77 time=0
EXTRACT: note_on channel=3 note=61 velocity=0 time=0.005263149999999999
EXTRACT: note_on channel=3 note=61 velocity=0 time=0
EXTRACT: control_change channel=6 control=11 value=41 time=0.02631575
EXTRACT: note_on channel=9 note=57 velocity=0 time=0.021052599999999998
EXTRACT: note_on channel=9 note=36 velocity=0 time=0
EXTRACT: control_change channel=6 control=11 value=42 time=0.010526299999999999
EXTRACT: control_change channel=6 control=11 value=43 time=0.03157889999999999
EXTRACT: control_change channel=6 control=11 value=44 time=0.03157889999999999
EXTRACT: note_on channel=1 note=35 velocity=0 time=0.02631575
EXTRACT: note_on channel=1 note=35 velocity=116 time=0.005263149999999999
EXTRACT: control_change channel=6 control=11 value=45 time=0
EXTRACT: control_change channel=6 control=11 value=46 time=0.03157889999999999
EXTRACT: control_change channel=6 control=11 value=47 time=0.03157889999999999
EXTRACT: control_change channel=6 control=11 value=48 time=0.03157889999999999
EXTRACT: control_change channel=6 control=11 value=49 time=0.03157889999999999
EXTRACT: note_on channel=2 note=62 velocity=119 time=0.02631575
EXTRACT: note_on channel=9 note=42 velocity=100 time=0.005263149999999999
EXTRACT: note_on channel=1 note=35 velocity=0 time=0
EXTRACT: note_on channel=4 note=66 velocity=0 time=0
EXTRACT: note_on channel=4 note=62 velocity=0 time=0
EXTRACT: note_on channel=4 note=59 velocity=0 time=0
EXTRACT: note_on channel=4 note=54 velocity=0 time=0
EXTRACT: note_on channel=4 note=47 velocity=0 time=0
EXTRACT: control_change channel=6 control=11 value=50 time=0
EXTRACT: note_on channel=7 note=66 velocity=0 time=0
EXTRACT: note_on channel=7 note=62 velocity=0 time=0
EXTRACT: note_on channel=7 note=59 velocity=0 time=0
EXTRACT: note_on channel=7 note=54 velocity=0 time=0
EXTRACT: note_on channel=7 note=47 velocity=0 time=0
EXTRACT: note_on channel=8 note=54 velocity=0 time=0
EXTRACT: note_on channel=8 note=66 velocity=0 time=0
EXTRACT: note_on channel=8 note=57 velocity=94 time=0
EXTRACT: note_on channel=8 note=69 velocity=125 time=0
EXTRACT: note_on channel=3 note=62 velocity=111 time=0.005263149999999999
EXTRACT: control_change channel=6 control=11 value=51 time=0.02631575
EXTRACT: note_on channel=9 note=42 velocity=0 time=0.021052599999999998
EXTRACT: control_change channel=6 control=11 value=52 time=0.010526299999999999
EXTRACT: control_change channel=6 control=11 value=53 time=0.03157889999999999
EXTRACT: control_change channel=6 control=11 value=54 time=0.03157889999999999
EXTRACT: note_on channel=2 note=66 velocity=121 time=0.02631575
EXTRACT: note_on channel=1 note=42 velocity=111 time=0.005263149999999999
EXTRACT: note_on channel=4 note=66 velocity=107 time=0
EXTRACT: note_on channel=4 note=62 velocity=102 time=0
EXTRACT: note_on channel=4 note=59 velocity=98 time=0
EXTRACT: note_on channel=4 note=54 velocity=114 time=0
EXTRACT: note_on channel=4 note=47 velocity=115 time=0
EXTRACT: control_change channel=6 control=11 value=55 time=0
EXTRACT: note_on channel=7 note=66 velocity=106 time=0
EXTRACT: note_on channel=7 note=62 velocity=83 time=0
EXTRACT: note_on channel=7 note=59 velocity=84 time=0
EXTRACT: note_on channel=7 note=54 velocity=106 time=0
EXTRACT: note_on channel=7 note=47 velocity=76 time=0
EXTRACT: note_on channel=8 note=57 velocity=0 time=0
EXTRACT: note_on channel=8 note=69 velocity=0 time=0
EXTRACT: control_change channel=6 control=11 value=56 time=0.03157889999999999
EXTRACT: control_change channel=6 control=11 value=57 time=0.03157889999999999
EXTRACT: control_change channel=6 control=11 value=58 time=0.03157889999999999
EXTRACT: control_change channel=6 control=11 value=59 time=0.03157889999999999
EXTRACT: note_on channel=9 note=42 velocity=97 time=0.03157889999999999
EXTRACT: note_on channel=9 note=40 velocity=127 time=0
EXTRACT: note_on channel=9 note=69 velocity=62 time=0
EXTRACT: note_on channel=1 note=42 velocity=0 time=0
EXTRACT: note_on channel=4 note=66 velocity=0 time=0
EXTRACT: note_on channel=4 note=62 velocity=0 time=0
EXTRACT: note_on channel=4 note=59 velocity=0 time=0
EXTRACT: note_on channel=4 note=54 velocity=0 time=0
EXTRACT: note_on channel=4 note=47 velocity=0 time=0
EXTRACT: control_change channel=6 control=11 value=60 time=0
EXTRACT: note_on channel=7 note=66 velocity=0 time=0
EXTRACT: note_on channel=7 note=62 velocity=0 time=0
EXTRACT: note_on channel=7 note=59 velocity=0 time=0
EXTRACT: note_on channel=7 note=54 velocity=0 time=0
EXTRACT: note_on channel=7 note=47 velocity=0 time=0
EXTRACT: note_on channel=8 note=55 velocity=95 time=0
EXTRACT: note_on channel=8 note=67 velocity=123 time=0
EXTRACT: note_on channel=3 note=62 velocity=0 time=0.005263149999999999
EXTRACT: control_change channel=6 control=11 value=61 time=0.02631575
EXTRACT: note_on channel=9 note=42 velocity=0 time=0.021052599999999998
EXTRACT: note_on channel=9 note=40 velocity=0 time=0
EXTRACT: note_on channel=9 note=69 velocity=0 time=0
EXTRACT: control_change channel=6 control=11 value=62 time=0.010526299999999999
EXTRACT: control_change channel=6 control=11 value=63 time=0.03157889999999999
EXTRACT: control_change channel=6 control=11 value=64 time=0.03157889999999999
EXTRACT: note_on channel=2 note=62 velocity=124 time=0.02631575
EXTRACT: note_on channel=9 note=69 velocity=70 time=0.005263149999999999
EXTRACT: note_on channel=1 note=42 velocity=110 time=0
EXTRACT: note_on channel=4 note=66 velocity=62 time=0
EXTRACT: note_on channel=4 note=62 velocity=66 time=0
EXTRACT: note_on channel=4 note=59 velocity=53 time=0
EXTRACT: note_on channel=4 note=54 velocity=51 time=0
EXTRACT: note_on channel=4 note=47 velocity=78 time=0
EXTRACT: control_change channel=6 control=11 value=65 time=0
EXTRACT: note_on channel=8 note=55 velocity=0 time=0
EXTRACT: note_on channel=8 note=67 velocity=0 time=0
EXTRACT: note_on channel=3 note=62 velocity=104 time=0.005263149999999999
EXTRACT: control_change channel=6 control=11 value=66 time=0.02631575
EXTRACT: note_on channel=9 note=69 velocity=0 time=0.021052599999999998
EXTRACT: control_change channel=6 control=11 value=67 time=0.010526299999999999
EXTRACT: note_on channel=4 note=66 velocity=0 time=0.015789449999999997
EXTRACT: note_on channel=4 note=62 velocity=0 time=0
EXTRACT: note_on channel=4 note=59 velocity=0 time=0
EXTRACT: note_on channel=4 note=54 velocity=0 time=0
EXTRACT: note_on channel=4 note=47 velocity=0 time=0
EXTRACT: control_change channel=6 control=11 value=68 time=0.015789449999999997
EXTRACT: control_change channel=6 control=11 value=69 time=0.03157889999999999
EXTRACT: note_on channel=1 note=42 velocity=0 time=0.02631575
EXTRACT: note_on channel=9 note=42 velocity=101 time=0.005263149999999999
EXTRACT: note_on channel=1 note=38 velocity=117 time=0
EXTRACT: note_on channel=4 note=66 velocity=56 time=0
EXTRACT: note_on channel=4 note=62 velocity=70 time=0
EXTRACT: note_on channel=4 note=59 velocity=53 time=0
EXTRACT: control_change channel=6 control=11 value=70 time=0
EXTRACT: note_on channel=8 note=54 velocity=97 time=0
EXTRACT: note_on channel=8 note=66 velocity=125 time=0
EXTRACT: note_on channel=3 note=62 velocity=0 time=0.005263149999999999
EXTRACT: note_on channel=3 note=61 velocity=127 time=0
EXTRACT: control_change channel=6 control=11 value=71 time=0.02631575
EXTRACT: note_on channel=9 note=42 velocity=0 time=0.021052599999999998
EXTRACT: control_change channel=6 control=11 value=72 time=0.010526299999999999
EXTRACT: note_on channel=4 note=66 velocity=0 time=0.015789449999999997
EXTRACT: note_on channel=4 note=62 velocity=0 time=0
EXTRACT: note_on channel=4 note=59 velocity=0 time=0
EXTRACT: control_change channel=6 control=11 value=73 time=0.015789449999999997
EXTRACT: control_change channel=6 control=11 value=74 time=0.03157889999999999
EXTRACT: note_on channel=2 note=59 velocity=113 time=0.02631575
EXTRACT: note_on channel=9 note=69 velocity=62 time=0.005263149999999999
EXTRACT: note_on channel=1 note=38 velocity=0 time=0
EXTRACT: note_on channel=4 note=66 velocity=55 time=0
EXTRACT: note_on channel=4 note=62 velocity=80 time=0
EXTRACT: note_on channel=4 note=59 velocity=82 time=0
EXTRACT: note_on channel=4 note=54 velocity=71 time=0
EXTRACT: note_on channel=4 note=47 velocity=81 time=0
EXTRACT: control_change channel=6 control=11 value=75 time=0
EXTRACT: note_on channel=8 note=54 velocity=0 time=0
EXTRACT: note_on channel=8 note=66 velocity=0 time=0
EXTRACT: note_on channel=3 note=61 velocity=0 time=0.005263149999999999
EXTRACT: note_on channel=3 note=59 velocity=109 time=0
EXTRACT: control_change channel=6 control=11 value=76 time=0.02631575
EXTRACT: note_on channel=9 note=69 velocity=0 time=0.021052599999999998
EXTRACT: control_change channel=6 control=11 value=77 time=0.010526299999999999
EXTRACT: note_on channel=4 note=66 velocity=0 time=0.015789449999999997
EXTRACT: note_on channel=4 note=62 velocity=0 time=0
EXTRACT: note_on channel=4 note=59 velocity=0 time=0
EXTRACT: note_on channel=4 note=54 velocity=0 time=0
EXTRACT: note_on channel=4 note=47 velocity=0 time=0
EXTRACT: control_change channel=6 control=11 value=78 time=0.015789449999999997
EXTRACT: control_change channel=6 control=11 value=79 time=0.03157889999999999
EXTRACT: note_on channel=9 note=36 velocity=120 time=0.03157889999999999
EXTRACT: note_on channel=9 note=42 velocity=91 time=0
EXTRACT: note_on channel=1 note=35 velocity=118 time=0
EXTRACT: note_on channel=4 note=66 velocity=65 time=0
EXTRACT: note_on channel=4 note=62 velocity=39 time=0
EXTRACT: note_on channel=4 note=59 velocity=53 time=0
EXTRACT: control_change channel=6 control=11 value=80 time=0
EXTRACT: note_on channel=8 note=52 velocity=94 time=0
EXTRACT: note_on channel=8 note=64 velocity=118 time=0
EXTRACT: note_on channel=3 note=59 velocity=0 time=0.005263149999999999
EXTRACT: note_on channel=9 note=36 velocity=0 time=0.04736835
EXTRACT: note_on channel=9 note=42 velocity=0 time=0
EXTRACT: note_on channel=4 note=66 velocity=0 time=0.02631575
EXTRACT: note_on channel=4 note=62 velocity=0 time=0
EXTRACT: note_on channel=4 note=59 velocity=0 time=0
EXTRACT: note_on channel=2 note=62 velocity=127 time=0.07368409999999999
EXTRACT: note_on channel=9 note=69 velocity=73 time=0.005263149999999999
EXTRACT: note_on channel=3 note=62 velocity=113 time=0.005263149999999999
EXTRACT: note_on channel=9 note=69 velocity=0 time=0.04736835
EXTRACT: note_on channel=9 note=42 velocity=96 time=0.105263
EXTRACT: note_on channel=9 note=69 velocity=78 time=0
EXTRACT: note_on channel=1 note=35 velocity=0 time=0
EXTRACT: note_on channel=4 note=66 velocity=93 time=0
EXTRACT: note_on channel=4 note=62 velocity=112 time=0
EXTRACT: note_on channel=4 note=59 velocity=110 time=0
EXTRACT: note_on channel=4 note=54 velocity=116 time=0
EXTRACT: note_on channel=4 note=47 velocity=102 time=0
EXTRACT: note_on channel=7 note=66 velocity=76 time=0
EXTRACT: note_on channel=7 note=62 velocity=91 time=0
EXTRACT: note_on channel=7 note=59 velocity=93 time=0
EXTRACT: note_on channel=7 note=54 velocity=108 time=0
EXTRACT: note_on channel=7 note=47 velocity=74 time=0
EXTRACT: note_on channel=8 note=52 velocity=0 time=0
EXTRACT: note_on channel=8 note=64 velocity=0 time=0
EXTRACT: note_on channel=8 note=50 velocity=92 time=0
EXTRACT: note_on channel=8 note=62 velocity=115 time=0
EXTRACT: note_on channel=3 note=62 velocity=0 time=0.005263149999999999
EXTRACT: note_on channel=9 note=42 velocity=0 time=0.04736835
EXTRACT: note_on channel=9 note=69 velocity=0 time=0
EXTRACT: note_on channel=2 note=66 velocity=122 time=0.09999984999999999
EXTRACT: note_on channel=4 note=66 velocity=0 time=0.005263149999999999
EXTRACT: note_on channel=4 note=62 velocity=0 time=0
EXTRACT: note_on channel=4 note=59 velocity=0 time=0
EXTRACT: note_on channel=4 note=54 velocity=0 time=0
EXTRACT: note_on channel=4 note=47 velocity=0 time=0
EXTRACT: note_on channel=7 note=66 velocity=0 time=0
EXTRACT: note_on channel=7 note=62 velocity=0 time=0
EXTRACT: note_on channel=7 note=59 velocity=0 time=0
EXTRACT: note_on channel=7 note=54 velocity=0 time=0
EXTRACT: note_on channel=7 note=47 velocity=0 time=0
EXTRACT: note_on channel=8 note=50 velocity=0 time=0
EXTRACT: note_on channel=8 note=62 velocity=0 time=0
EXTRACT: note_on channel=3 note=62 velocity=113 time=0.005263149999999999
EXTRACT: note_on channel=2 note=66 velocity=112 time=0.14736819999999998
EXTRACT: note_on channel=9 note=40 velocity=127 time=0.005263149999999999
EXTRACT: note_on channel=9 note=42 velocity=93 time=0
EXTRACT: note_on channel=9 note=69 velocity=66 time=0
EXTRACT: note_on channel=8 note=52 velocity=100 time=0
EXTRACT: note_on channel=8 note=64 velocity=117 time=0
EXTRACT: note_on channel=9 note=40 velocity=0 time=0.0526315
EXTRACT: note_on channel=9 note=42 velocity=0 time=0
EXTRACT: note_on channel=9 note=69 velocity=0 time=0
EXTRACT: note_on channel=4 note=66 velocity=65 time=0.105263
EXTRACT: note_on channel=4 note=62 velocity=60 time=0
EXTRACT: note_on channel=4 note=59 velocity=61 time=0
EXTRACT: note_on channel=8 note=52 velocity=0 time=0
EXTRACT: note_on channel=8 note=64 velocity=0 time=0
EXTRACT: note_on channel=4 note=66 velocity=0 time=0.07894725
EXTRACT: note_on channel=4 note=62 velocity=0 time=0
EXTRACT: note_on channel=4 note=59 velocity=0 time=0
EXTRACT: note_on channel=2 note=62 velocity=119 time=0.07368409999999999
EXTRACT: note_on channel=9 note=42 velocity=106 time=0.005263149999999999
EXTRACT: note_on channel=1 note=30 velocity=126 time=0
EXTRACT: note_on channel=4 note=66 velocity=57 time=0
EXTRACT: note_on channel=4 note=62 velocity=59 time=0
EXTRACT: note_on channel=4 note=59 velocity=59 time=0
EXTRACT: note_on channel=4 note=54 velocity=67 time=0
EXTRACT: note_on channel=4 note=47 velocity=87 time=0
EXTRACT: note_on channel=8 note=54 velocity=90 time=0
EXTRACT: note_on channel=8 note=66 velocity=122 time=0
EXTRACT: note_on channel=9 note=42 velocity=0 time=0.0526315
EXTRACT: note_on channel=4 note=66 velocity=0 time=0.02631575
EXTRACT: note_on channel=4 note=62 velocity=0 time=0
EXTRACT: note_on channel=4 note=59 velocity=0 time=0
EXTRACT: note_on channel=4 note=54 velocity=0 time=0
EXTRACT: note_on channel=4 note=47 velocity=0 time=0
EXTRACT: note_on channel=1 note=30 velocity=0 time=0.07894725
EXTRACT: note_on channel=2 note=47 velocity=0 time=0.15263134999999997
EXTRACT: note_on channel=2 note=62 velocity=0 time=0
EXTRACT: note_on channel=2 note=66 velocity=0 time=0
EXTRACT: note_on channel=2 note=62 velocity=0 time=0
EXTRACT: note_on channel=2 note=59 velocity=0 time=0
EXTRACT: note_on channel=2 note=62 velocity=0 time=0
EXTRACT: note_on channel=2 note=66 velocity=0 time=0
EXTRACT: note_on channel=2 note=66 velocity=0 time=0
EXTRACT: note_on channel=2 note=47 velocity=124 time=0
EXTRACT: note_on channel=9 note=42 velocity=91 time=0.005263149999999999
EXTRACT: note_on channel=9 note=36 velocity=120 time=0
EXTRACT: note_on channel=1 note=35 velocity=113 time=0
EXTRACT: note_on channel=4 note=66 velocity=99 time=0
EXTRACT: note_on channel=4 note=62 velocity=116 time=0
EXTRACT: note_on channel=4 note=59 velocity=86 time=0
EXTRACT: note_on channel=4 note=54 velocity=109 time=0
EXTRACT: note_on channel=4 note=47 velocity=95 time=0
EXTRACT: note_on channel=7 note=66 velocity=99 time=0
EXTRACT: note_on channel=7 note=62 velocity=103 time=0
EXTRACT: note_on channel=7 note=59 velocity=91 time=0
EXTRACT: note_on channel=7 note=54 velocity=110 time=0
EXTRACT: note_on channel=7 note=47 velocity=103 time=0
EXTRACT: note_on channel=3 note=62 velocity=0 time=0.005263149999999999
EXTRACT: note_on channel=9 note=42 velocity=0 time=0.04736835
EXTRACT: note_on channel=9 note=36 velocity=0 time=0
EXTRACT: note_on channel=1 note=35 velocity=0 time=0.18421025
EXTRACT: note_on channel=2 note=62 velocity=0 time=0.07368409999999999
EXTRACT: note_on channel=2 note=62 velocity=110 time=0
EXTRACT: note_on channel=9 note=42 velocity=103 time=0.005263149999999999
EXTRACT: note_on channel=4 note=66 velocity=0 time=0
EXTRACT: note_on channel=4 note=62 velocity=0 time=0
EXTRACT: note_on channel=4 note=59 velocity=0 time=0
EXTRACT: note_on channel=4 note=54 velocity=0 time=0
EXTRACT: note_on channel=4 note=47 velocity=0 time=0
EXTRACT: note_on channel=7 note=66 velocity=0 time=0
EXTRACT: note_on channel=7 note=62 velocity=0 time=0
EXTRACT: note_on channel=7 note=59 velocity=0 time=0
EXTRACT: note_on channel=7 note=54 velocity=0 time=0
EXTRACT: note_on channel=7 note=47 velocity=0 time=0
EXTRACT: note_on channel=8 note=54 velocity=0 time=0
EXTRACT: note_on channel=8 note=66 velocity=0 time=0
EXTRACT: note_on channel=8 note=57 velocity=97 time=0
EXTRACT: note_on channel=8 note=69 velocity=125 time=0
EXTRACT: note_on channel=3 note=62 velocity=106 time=0.005263149999999999
EXTRACT: note_on channel=9 note=42 velocity=0 time=0.04736835
EXTRACT: note_on channel=2 note=66 velocity=114 time=0.09999984999999999
EXTRACT: note_on channel=1 note=35 velocity=116 time=0.005263149999999999
EXTRACT: note_on channel=4 note=66 velocity=102 time=0
EXTRACT: note_on channel=4 note=62 velocity=112 time=0
EXTRACT: note_on channel=4 note=59 velocity=116 time=0
EXTRACT: note_on channel=4 note=54 velocity=85 time=0
EXTRACT: note_on channel=4 note=47 velocity=86 time=0
EXTRACT: note_on channel=7 note=66 velocity=94 time=0
EXTRACT: note_on channel=7 note=62 velocity=77 time=0
EXTRACT: note_on channel=7 note=59 velocity=108 time=0
EXTRACT: note_on channel=7 note=54 velocity=101 time=0
EXTRACT: note_on channel=7 note=47 velocity=82 time=0
EXTRACT: note_on channel=8 note=57 velocity=0 time=0
EXTRACT: note_on channel=8 note=69 velocity=0 time=0
EXTRACT: note_on channel=9 note=42 velocity=105 time=0.1578945
EXTRACT: note_on channel=9 note=40 velocity=127 time=0
EXTRACT: note_on channel=9 note=69 velocity=62 time=0
EXTRACT: note_on channel=1 note=35 velocity=0 time=0
EXTRACT: note_on channel=4 note=66 velocity=0 time=0
EXTRACT: note_on channel=4 note=62 velocity=0 time=0
EXTRACT: note_on channel=4 note=59 velocity=0 time=0
EXTRACT: note_on channel=4 note=54 velocity=0 time=0
EXTRACT: note_on channel=4 note=47 velocity=0 time=0
EXTRACT: note_on channel=7 note=66 velocity=0 time=0
EXTRACT: note_on channel=7 note=62 velocity=0 time=0
EXTRACT: note_on channel=7 note=59 velocity=0 time=0
EXTRACT: note_on channel=7 note=54 velocity=0 time=0
EXTRACT: note_on channel=7 note=47 velocity=0 time=0
EXTRACT: note_on channel=8 note=55 velocity=86 time=0
EXTRACT: note_on channel=8 note=67 velocity=118 time=0
EXTRACT: note_on channel=3 note=62 velocity=0 time=0.005263149999999999
EXTRACT: note_on channel=9 note=42 velocity=0 time=0.04736835
EXTRACT: note_on channel=9 note=40 velocity=0 time=0
EXTRACT: note_on channel=9 note=69 velocity=0 time=0
EXTRACT: note_on channel=2 note=62 velocity=115 time=0.09999984999999999
EXTRACT: note_on channel=9 note=69 velocity=70 time=0.005263149999999999
EXTRACT: note_on channel=4 note=66 velocity=53 time=0
EXTRACT: note_on channel=4 note=62 velocity=88 time=0
EXTRACT: note_on channel=4 note=59 velocity=60 time=0
EXTRACT: note_on channel=4 note=54 velocity=63 time=0
EXTRACT: note_on channel=4 note=47 velocity=63 time=0
EXTRACT: note_on channel=8 note=55 velocity=0 time=0
EXTRACT: note_on channel=8 note=67 velocity=0 time=0
EXTRACT: note_on channel=3 note=62 velocity=112 time=0.005263149999999999
EXTRACT: note_on channel=9 note=69 velocity=0 time=0.04736835
EXTRACT: note_on channel=4 note=66 velocity=0 time=0.02631575
EXTRACT: note_on channel=4 note=62 velocity=0 time=0
EXTRACT: note_on channel=4 note=59 velocity=0 time=0
EXTRACT: note_on channel=4 note=54 velocity=0 time=0
EXTRACT: note_on channel=4 note=47 velocity=0 time=0
EXTRACT: note_on channel=9 note=42 velocity=95 time=0.07894725
EXTRACT: note_on channel=4 note=66 velocity=56 time=0
EXTRACT: note_on channel=4 note=62 velocity=45 time=0
EXTRACT: note_on channel=4 note=59 velocity=48 time=0
EXTRACT: note_on channel=8 note=54 velocity=99 time=0
EXTRACT: note_on channel=8 note=66 velocity=118 time=0
EXTRACT: note_on channel=3 note=62 velocity=0 time=0.005263149999999999
EXTRACT: note_on channel=3 note=61 velocity=123 time=0
EXTRACT: note_on channel=9 note=42 velocity=0 time=0.04736835
EXTRACT: note_on channel=4 note=66 velocity=0 time=0.02631575
EXTRACT: note_on channel=4 note=62 velocity=0 time=0
EXTRACT: note_on channel=4 note=59 velocity=0 time=0
EXTRACT: note_on channel=2 note=59 velocity=110 time=0.07368409999999999
EXTRACT: note_on channel=9 note=69 velocity=62 time=0.005263149999999999
EXTRACT: note_on channel=4 note=66 velocity=53 time=0
EXTRACT: note_on channel=4 note=62 velocity=82 time=0
EXTRACT: note_on channel=4 note=59 velocity=59 time=0
EXTRACT: note_on channel=4 note=54 velocity=80 time=0
EXTRACT: note_on channel=4 note=47 velocity=66 time=0
EXTRACT: note_on channel=8 note=54 velocity=0 time=0
EXTRACT: note_on channel=8 note=66 velocity=0 time=0
EXTRACT: note_on channel=3 note=61 velocity=0 time=0.005263149999999999
EXTRACT: note_on channel=3 note=59 velocity=106 time=0
EXTRACT: note_on channel=9 note=69 velocity=0 time=0.04736835
EXTRACT: note_on channel=4 note=66 velocity=0 time=0.02631575
EXTRACT: note_on channel=4 note=62 velocity=0 time=0
EXTRACT: note_on channel=4 note=59 velocity=0 time=0
EXTRACT: note_on channel=4 note=54 velocity=0 time=0
EXTRACT: note_on channel=4 note=47 velocity=0 time=0
EXTRACT: note_on channel=9 note=36 velocity=120 time=0.07894725
EXTRACT: note_on channel=9 note=42 velocity=91 time=0
EXTRACT: note_on channel=4 note=66 velocity=51 time=0
EXTRACT: note_on channel=4 note=62 velocity=57 time=0
EXTRACT: note_on channel=4 note=59 velocity=70 time=0
EXTRACT: note_on channel=8 note=52 velocity=101 time=0
EXTRACT: note_on channel=8 note=64 velocity=127 time=0
EXTRACT: note_on channel=3 note=59 velocity=0 time=0.005263149999999999
EXTRACT: note_on channel=9 note=36 velocity=0 time=0.04736835
EXTRACT: note_on channel=9 note=42 velocity=0 time=0
EXTRACT: note_on channel=4 note=66 velocity=0 time=0.02631575
EXTRACT: note_on channel=4 note=62 velocity=0 time=0
EXTRACT: note_on channel=4 note=59 velocity=0 time=0
EXTRACT: note_on channel=2 note=62 velocity=108 time=0.07368409999999999
EXTRACT: note_on channel=9 note=69 velocity=73 time=0.005263149999999999
EXTRACT: note_on channel=3 note=62 velocity=127 time=0.005263149999999999
EXTRACT: note_on channel=9 note=69 velocity=0 time=0.04736835
EXTRACT: note_on channel=9 note=42 velocity=98 time=0.105263
EXTRACT: note_on channel=9 note=69 velocity=78 time=0
EXTRACT: note_on channel=1 note=35 velocity=109 time=0
EXTRACT: note_on channel=4 note=66 velocity=101 time=0
EXTRACT: note_on channel=4 note=62 velocity=89 time=0
EXTRACT: note_on channel=4 note=59 velocity=85 time=0
EXTRACT: note_on channel=4 note=54 velocity=99 time=0
EXTRACT: note_on channel=4 note=47 velocity=115 time=0
EXTRACT: note_on channel=7 note=66 velocity=95 time=0
EXTRACT: note_on channel=7 note=62 velocity=85 time=0
EXTRACT: note_on channel=7 note=59 velocity=76 time=0
EXTRACT: note_on channel=7 note=54 velocity=95 time=0
EXTRACT: note_on channel=7 note=47 velocity=80 time=0
EXTRACT: note_on channel=8 note=52 velocity=0 time=0
EXTRACT: note_on channel=8 note=64 velocity=0 time=0
EXTRACT: note_on channel=8 note=50 velocity=95 time=0
EXTRACT: note_on channel=8 note=62 velocity=122 time=0
EXTRACT: note_on channel=3 note=62 velocity=0 time=0.005263149999999999
EXTRACT: note_on channel=9 note=42 velocity=0 time=0.04736835
EXTRACT: note_on channel=9 note=69 velocity=0 time=0
EXTRACT: note_on channel=2 note=66 velocity=127 time=0.09999984999999999
EXTRACT: note_on channel=1 note=35 velocity=0 time=0.005263149999999999
EXTRACT: note_on channel=4 note=66 velocity=0 time=0
EXTRACT: note_on channel=4 note=62 velocity=0 time=0
EXTRACT: note_on channel=4 note=59 velocity=0 time=0
EXTRACT: note_on channel=4 note=54 velocity=0 time=0
EXTRACT: note_on channel=4 note=47 velocity=0 time=0
EXTRACT: note_on channel=7 note=66 velocity=0 time=0
EXTRACT: note_on channel=7 note=62 velocity=0 time=0
EXTRACT: note_on channel=7 note=59 velocity=0 time=0
EXTRACT: note_on channel=7 note=54 velocity=0 time=0
EXTRACT: note_on channel=7 note=47 velocity=0 time=0
EXTRACT: note_on channel=8 note=50 velocity=0 time=0
EXTRACT: note_on channel=8 note=62 velocity=0 time=0
EXTRACT: note_on channel=3 note=62 velocity=123 time=0.005263149999999999
EXTRACT: note_on channel=2 note=66 velocity=107 time=0.14736819999999998
EXTRACT: note_on channel=9 note=40 velocity=127 time=0.005263149999999999
EXTRACT: note_on channel=9 note=42 velocity=105 time=0
EXTRACT: note_on channel=9 note=69 velocity=66 time=0
EXTRACT: note_on channel=8 note=54 velocity=93 time=0
EXTRACT: note_on channel=8 note=66 velocity=115 time=0
EXTRACT: note_on channel=9 note=40 velocity=0 time=0.0526315
EXTRACT: note_on channel=9 note=42 velocity=0 time=0
EXTRACT: note_on channel=9 note=69 velocity=0 time=0
EXTRACT: note_on channel=4 note=66 velocity=64 time=0.105263
EXTRACT: note_on channel=4 note=62 velocity=48 time=0
EXTRACT: note_on channel=4 note=59 velocity=56 time=0
EXTRACT: note_on channel=8 note=54 velocity=0 time=0
EXTRACT: note_on channel=8 note=66 velocity=0 time=0
EXTRACT: note_on channel=4 note=66 velocity=0 time=0.07894725
EXTRACT: note_on channel=4 note=62 velocity=0 time=0
EXTRACT: note_on channel=4 note=59 velocity=0 time=0
EXTRACT: note_on channel=2 note=62 velocity=118 time=0.07368409999999999
EXTRACT: note_on channel=9 note=36 velocity=90 time=0.005263149999999999
EXTRACT: note_on channel=9 note=42 velocity=106 time=0
EXTRACT: note_on channel=1 note=38 velocity=126 time=0
EXTRACT: note_on channel=4 note=66 velocity=72 time=0
EXTRACT: note_on channel=4 note=62 velocity=86 time=0
EXTRACT: note_on channel=4 note=59 velocity=57 time=0
EXTRACT: note_on channel=4 note=54 velocity=64 time=0
EXTRACT: note_on channel=4 note=47 velocity=55 time=0
EXTRACT: note_on channel=8 note=47 velocity=97 time=0
EXTRACT: note_on channel=8 note=59 velocity=125 time=0
EXTRACT: note_on channel=9 note=36 velocity=0 time=0.0526315
EXTRACT: note_on channel=9 note=42 velocity=0 time=0
EXTRACT: note_on channel=4 note=66 velocity=0 time=0.02631575
EXTRACT: note_on channel=4 note=62 velocity=0 time=0
EXTRACT: note_on channel=4 note=59 velocity=0 time=0
EXTRACT: note_on channel=4 note=54 velocity=0 time=0
EXTRACT: note_on channel=4 note=47 velocity=0 time=0
EXTRACT: note_on channel=9 note=40 velocity=127 time=0.07894725
EXTRACT: note_on channel=1 note=38 velocity=0 time=0
EXTRACT: note_on channel=9 note=40 velocity=0 time=0.0526315
EXTRACT: note_on channel=2 note=47 velocity=0 time=0.09999984999999999
EXTRACT: note_on channel=2 note=62 velocity=0 time=0
EXTRACT: note_on channel=2 note=66 velocity=0 time=0
EXTRACT: note_on channel=2 note=62 velocity=0 time=0
EXTRACT: note_on channel=2 note=59 velocity=0 time=0
EXTRACT: note_on channel=2 note=62 velocity=0 time=0
EXTRACT: note_on channel=2 note=66 velocity=0 time=0
EXTRACT: note_on channel=2 note=66 velocity=0 time=0
EXTRACT: note_on channel=2 note=62 velocity=0 time=0
EXTRACT: note_on channel=2 note=40 velocity=122 time=0
EXTRACT: note_on channel=9 note=42 velocity=99 time=0.005263149999999999
EXTRACT: note_on channel=9 note=36 velocity=120 time=0
EXTRACT: note_on channel=1 note=40 velocity=114 time=0
EXTRACT: note_on channel=4 note=67 velocity=115 time=0
EXTRACT: note_on channel=4 note=62 velocity=95 time=0
EXTRACT: note_on channel=4 note=59 velocity=103 time=0
EXTRACT: note_on channel=4 note=55 velocity=85 time=0
EXTRACT: note_on channel=4 note=47 velocity=107 time=0
EXTRACT: note_on channel=5 note=90 velocity=0 time=0
EXTRACT: note_on channel=5 note=78 velocity=0 time=0
EXTRACT: note_on channel=5 note=91 velocity=117 time=0
EXTRACT: note_on channel=5 note=79 velocity=103 time=0
EXTRACT: note_on channel=6 note=59 velocity=0 time=0
EXTRACT: note_on channel=6 note=62 velocity=0 time=0
EXTRACT: note_on channel=6 note=66 velocity=0 time=0
EXTRACT: note_on channel=6 note=59 velocity=126 time=0
EXTRACT: note_on channel=6 note=62 velocity=113 time=0
EXTRACT: note_on channel=6 note=67 velocity=126 time=0
EXTRACT: note_on channel=7 note=67 velocity=88 time=0
EXTRACT: note_on channel=7 note=62 velocity=93 time=0
EXTRACT: note_on channel=7 note=59 velocity=110 time=0
EXTRACT: note_on channel=7 note=55 velocity=91 time=0
EXTRACT: note_on channel=7 note=47 velocity=108 time=0
EXTRACT: note_on channel=3 note=62 velocity=0 time=0.005263149999999999
EXTRACT: note_on channel=9 note=42 velocity=0 time=0.04736835
EXTRACT: note_on channel=9 note=36 velocity=0 time=0
EXTRACT: note_on channel=1 note=40 velocity=0 time=0.07894725
EXTRACT: note_on channel=2 note=62 velocity=115 time=0.17894709999999997
EXTRACT: note_on channel=9 note=42 velocity=102 time=0.005263149999999999
EXTRACT: note_on channel=1 note=40 velocity=112 time=0
EXTRACT: note_on channel=4 note=67 velocity=0 time=0
EXTRACT: note_on channel=4 note=62 velocity=0 time=0
EXTRACT: note_on channel=4 note=59 velocity=0 time=0
EXTRACT: note_on channel=4 note=55 velocity=0 time=0
EXTRACT: note_on channel=4 note=47 velocity=0 time=0
EXTRACT: note_on channel=7 note=67 velocity=0 time=0
EXTRACT: note_on channel=7 note=62 velocity=0 time=0
EXTRACT: note_on channel=7 note=59 velocity=0 time=0
EXTRACT: note_on channel=7 note=55 velocity=0 time=0
EXTRACT: note_on channel=7 note=47 velocity=0 time=0
EXTRACT: note_on channel=8 note=47 velocity=0 time=0
EXTRACT: note_on channel=8 note=59 velocity=0 time=0
EXTRACT: note_on channel=8 note=52 velocity=88 time=0
EXTRACT: note_on channel=8 note=64 velocity=114 time=0
EXTRACT: note_on channel=3 note=62 velocity=121 time=0.005263149999999999
EXTRACT: note_on channel=9 note=42 velocity=0 time=0.04736835
EXTRACT: note_on channel=1 note=40 velocity=0 time=0.09999984999999999
EXTRACT: note_on channel=2 note=67 velocity=103 time=0
EXTRACT: note_on channel=1 note=35 velocity=120 time=0.005263149999999999
EXTRACT: note_on channel=4 note=67 velocity=110 time=0
EXTRACT: note_on channel=4 note=62 velocity=97 time=0
EXTRACT: note_on channel=4 note=59 velocity=107 time=0
EXTRACT: note_on channel=4 note=55 velocity=105 time=0
EXTRACT: note_on channel=4 note=47 velocity=103 time=0
EXTRACT: note_on channel=7 note=67 velocity=107 time=0
EXTRACT: note_on channel=7 note=62 velocity=84 time=0
EXTRACT: note_on channel=7 note=59 velocity=83 time=0
EXTRACT: note_on channel=7 note=55 velocity=83 time=0
EXTRACT: note_on channel=7 note=47 velocity=99 time=0
EXTRACT: note_on channel=8 note=52 velocity=0 time=0
EXTRACT: note_on channel=8 note=64 velocity=0 time=0
EXTRACT: note_on channel=9 note=42 velocity=90 time=0.1578945
EXTRACT: note_on channel=9 note=40 velocity=127 time=0
EXTRACT: note_on channel=9 note=69 velocity=62 time=0
EXTRACT: note_on channel=1 note=35 velocity=0 time=0
EXTRACT: note_on channel=4 note=67 velocity=0 time=0
EXTRACT: note_on channel=4 note=62 velocity=0 time=0
EXTRACT: note_on channel=4 note=59 velocity=0 time=0
EXTRACT: note_on channel=4 note=55 velocity=0 time=0
EXTRACT: note_on channel=4 note=47 velocity=0 time=0
EXTRACT: note_on channel=7 note=67 velocity=0 time=0
EXTRACT: note_on channel=7 note=62 velocity=0 time=0
EXTRACT: note_on channel=7 note=59 velocity=0 time=0
EXTRACT: note_on channel=7 note=55 velocity=0 time=0
EXTRACT: note_on channel=7 note=47 velocity=0 time=0
EXTRACT: note_on channel=8 note=52 velocity=101 time=0
EXTRACT: note_on channel=8 note=64 velocity=123 time=0
EXTRACT: note_on channel=3 note=62 velocity=0 time=0.005263149999999999
EXTRACT: note_on channel=9 note=42 velocity=0 time=0.04736835
EXTRACT: note_on channel=9 note=40 velocity=0 time=0
EXTRACT: note_on channel=9 note=69 velocity=0 time=0
EXTRACT: note_on channel=2 note=62 velocity=109 time=0.09999984999999999
EXTRACT: note_on channel=9 note=69 velocity=70 time=0.005263149999999999
EXTRACT: note_on channel=1 note=35 velocity=126 time=0
EXTRACT: note_on channel=4 note=67 velocity=53 time=0
EXTRACT: note_on channel=4 note=62 velocity=84 time=0
EXTRACT: note_on channel=4 note=59 velocity=69 time=0
EXTRACT: note_on channel=4 note=55 velocity=67 time=0
EXTRACT: note_on channel=4 note=47 velocity=81 time=0
EXTRACT: note_on channel=3 note=62 velocity=113 time=0.005263149999999999
EXTRACT: note_on channel=9 note=69 velocity=0 time=0.04736835
EXTRACT: note_on channel=4 note=67 velocity=0 time=0.02631575
EXTRACT: note_on channel=4 note=62 velocity=0 time=0
EXTRACT: note_on channel=4 note=59 velocity=0 time=0
EXTRACT: note_on channel=4 note=55 velocity=0 time=0
EXTRACT: note_on channel=4 note=47 velocity=0 time=0
EXTRACT: note_on channel=1 note=35 velocity=0 time=0.07368409999999999
EXTRACT: note_on channel=9 note=42 velocity=96 time=0.005263149999999999
EXTRACT: note_on channel=1 note=31 velocity=126 time=0
EXTRACT: note_on channel=4 note=67 velocity=68 time=0
EXTRACT: note_on channel=4 note=62 velocity=65 time=0
EXTRACT: note_on channel=4 note=59 velocity=66 time=0
EXTRACT: note_on channel=3 note=62 velocity=0 time=0.005263149999999999
EXTRACT: note_on channel=3 note=61 velocity=108 time=0
EXTRACT: note_on channel=9 note=42 velocity=0 time=0.04736835
EXTRACT: note_on channel=4 note=67 velocity=0 time=0.02631575
EXTRACT: note_on channel=4 note=62 velocity=0 time=0
EXTRACT: note_on channel=4 note=59 velocity=0 time=0
EXTRACT: note_on channel=2 note=59 velocity=125 time=0.07368409999999999
EXTRACT: note_on channel=9 note=69 velocity=62 time=0.005263149999999999
EXTRACT: note_on channel=1 note=31 velocity=0 time=0
EXTRACT: note_on channel=4 note=67 velocity=68 time=0
EXTRACT: note_on channel=4 note=62 velocity=64 time=0
EXTRACT: note_on channel=4 note=59 velocity=56 time=0
EXTRACT: note_on channel=4 note=55 velocity=79 time=0
EXTRACT: note_on channel=4 note=47 velocity=70 time=0
EXTRACT: note_on channel=3 note=61 velocity=0 time=0.005263149999999999
EXTRACT: note_on channel=3 note=59 velocity=116 time=0
EXTRACT: note_on channel=9 note=69 velocity=0 time=0.04736835
EXTRACT: note_on channel=4 note=67 velocity=0 time=0.02631575
EXTRACT: note_on channel=4 note=62 velocity=0 time=0
EXTRACT: note_on channel=4 note=59 velocity=0 time=0
EXTRACT: note_on channel=4 note=55 velocity=0 time=0
EXTRACT: note_on channel=4 note=47 velocity=0 time=0
EXTRACT: note_on channel=9 note=36 velocity=120 time=0.07894725
EXTRACT: note_on channel=9 note=42 velocity=108 time=0
EXTRACT: note_on channel=1 note=28 velocity=126 time=0
EXTRACT: note_on channel=4 note=67 velocity=45 time=0
EXTRACT: note_on channel=4 note=62 velocity=51 time=0
EXTRACT: note_on channel=4 note=59 velocity=58 time=0
EXTRACT: note_on channel=8 note=52 velocity=0 time=0
EXTRACT: note_on channel=8 note=64 velocity=0 time=0
EXTRACT: note_on channel=3 note=59 velocity=0 time=0.005263149999999999
EXTRACT: note_on channel=9 note=36 velocity=0 time=0.04736835
EXTRACT: note_on channel=9 note=42 velocity=0 time=0
EXTRACT: note_on channel=4 note=67 velocity=0 time=0.02631575
EXTRACT: note_on channel=4 note=62 velocity=0 time=0
EXTRACT: note_on channel=4 note=59 velocity=0 time=0
EXTRACT: note_on channel=2 note=62 velocity=112 time=0.07368409999999999
EXTRACT: note_on channel=9 note=69 velocity=73 time=0.005263149999999999
EXTRACT: note_on channel=3 note=62 velocity=123 time=0.005263149999999999
EXTRACT: note_on channel=9 note=69 velocity=0 time=0.04736835
EXTRACT: note_on channel=9 note=42 velocity=103 time=0.105263
EXTRACT: note_on channel=9 note=69 velocity=78 time=0
EXTRACT: note_on channel=1 note=28 velocity=0 time=0
EXTRACT: note_on channel=4 note=67 velocity=87 time=0
EXTRACT: note_on channel=4 note=62 velocity=98 time=0
EXTRACT: note_on channel=4 note=59 velocity=93 time=0
EXTRACT: note_on channel=4 note=55 velocity=109 time=0
EXTRACT: note_on channel=4 note=47 velocity=112 time=0
EXTRACT: note_on channel=7 note=67 velocity=75 time=0
EXTRACT: note_on channel=7 note=62 velocity=109 time=0
EXTRACT: note_on channel=7 note=59 velocity=77 time=0
EXTRACT: note_on channel=7 note=55 velocity=90 time=0
EXTRACT: note_on channel=7 note=47 velocity=103 time=0
EXTRACT: note_on channel=8 note=47 velocity=86 time=0
EXTRACT: note_on channel=8 note=59 velocity=114 time=0
EXTRACT: note_on channel=3 note=62 velocity=0 time=0.005263149999999999
EXTRACT: note_on channel=9 note=42 velocity=0 time=0.04736835
EXTRACT: note_on channel=9 note=69 velocity=0 time=0
EXTRACT: note_on channel=2 note=67 velocity=107 time=0.09999984999999999
EXTRACT: note_on channel=4 note=67 velocity=0 time=0.005263149999999999
EXTRACT: note_on channel=4 note=62 velocity=0 time=0
EXTRACT: note_on channel=4 note=59 velocity=0 time=0
EXTRACT: note_on channel=4 note=55 velocity=0 time=0
EXTRACT: note_on channel=4 note=47 velocity=0 time=0
EXTRACT: note_on channel=7 note=67 velocity=0 time=0
EXTRACT: note_on channel=7 note=62 velocity=0 time=0
EXTRACT: note_on channel=7 note=59 velocity=0 time=0
EXTRACT: note_on channel=7 note=55 velocity=0 time=0
EXTRACT: note_on channel=7 note=47 velocity=0 time=0
EXTRACT: note_on channel=8 note=47 velocity=0 time=0
EXTRACT: note_on channel=8 note=59 velocity=0 time=0
EXTRACT: note_on channel=3 note=62 velocity=117 time=0.005263149999999999
EXTRACT: note_on channel=2 note=67 velocity=117 time=0.14736819999999998
EXTRACT: note_on channel=9 note=40 velocity=127 time=0.005263149999999999
EXTRACT: note_on channel=9 note=42 velocity=96 time=0
EXTRACT: note_on channel=9 note=69 velocity=66 time=0
EXTRACT: note_on channel=5 note=91 velocity=0 time=0
EXTRACT: note_on channel=5 note=79 velocity=0 time=0
EXTRACT: note_on channel=5 note=86 velocity=99 time=0
EXTRACT: note_on channel=5 note=74 velocity=108 time=0
EXTRACT: note_on channel=8 note=47 velocity=93 time=0
EXTRACT: note_on channel=8 note=59 velocity=123 time=0
EXTRACT: note_on channel=9 note=40 velocity=0 time=0.0526315
EXTRACT: note_on channel=9 note=42 velocity=0 time=0
EXTRACT: note_on channel=9 note=69 velocity=0 time=0
EXTRACT: note_on channel=4 note=67 velocity=65 time=0.105263
EXTRACT: note_on channel=4 note=62 velocity=66 time=0
EXTRACT: note_on channel=4 note=59 velocity=56 time=0
EXTRACT: note_on channel=5 note=86 velocity=0 time=0
EXTRACT: note_on channel=5 note=74 velocity=0 time=0
EXTRACT: note_on channel=5 note=73 velocity=116 time=0
EXTRACT: note_on channel=5 note=85 velocity=109 time=0
EXTRACT: note_on channel=8 note=47 velocity=0 time=0
EXTRACT: note_on channel=8 note=59 velocity=0 time=0
EXTRACT: note_on channel=4 note=67 velocity=0 time=0.07894725
EXTRACT: note_on channel=4 note=62 velocity=0 time=0
EXTRACT: note_on channel=4 note=59 velocity=0 time=0
EXTRACT: note_on channel=2 note=62 velocity=104 time=0.07368409999999999
EXTRACT: note_on channel=9 note=42 velocity=100 time=0.005263149999999999
EXTRACT: note_on channel=1 note=28 velocity=122 time=0
EXTRACT: note_on channel=4 note=67 velocity=65 time=0
EXTRACT: note_on channel=4 note=62 velocity=74 time=0
EXTRACT: note_on channel=4 note=59 velocity=52 time=0
EXTRACT: note_on channel=4 note=55 velocity=64 time=0
EXTRACT: note_on channel=4 note=47 velocity=64 time=0
EXTRACT: note_on channel=5 note=73 velocity=0 time=0
EXTRACT: note_on channel=5 note=85 velocity=0 time=0
EXTRACT: note_on channel=5 note=71 velocity=103 time=0
EXTRACT: note_on channel=5 note=83 velocity=104 time=0
EXTRACT: note_on channel=8 note=47 velocity=86 time=0
EXTRACT: note_on channel=8 note=59 velocity=117 time=0
EXTRACT: note_on channel=9 note=42 velocity=0 time=0.0526315
EXTRACT: note_on channel=4 note=67 velocity=0 time=0.02631575
EXTRACT: note_on channel=4 note=62 velocity=0 time=0
EXTRACT: note_on channel=4 note=59 velocity=0 time=0
EXTRACT: note_on channel=4 note=55 velocity=0 time=0
EXTRACT: note_on channel=4 note=47 velocity=0 time=0
EXTRACT: note_on channel=1 note=28 velocity=0 time=0.07894725
EXTRACT: note_on channel=5 note=71 velocity=0 time=0
EXTRACT: note_on channel=5 note=83 velocity=0 time=0
EXTRACT: note_on channel=5 note=81 velocity=109 time=0
EXTRACT: note_on channel=5 note=69 velocity=113 time=0
EXTRACT: note_on channel=8 note=47 velocity=0 time=0
EXTRACT: note_on channel=8 note=59 velocity=0 time=0
EXTRACT: note_on channel=2 note=40 velocity=0 time=0.15263134999999997
EXTRACT: note_on channel=2 note=62 velocity=0 time=0
EXTRACT: note_on channel=2 note=67 velocity=0 time=0
EXTRACT: note_on channel=2 note=62 velocity=0 time=0
EXTRACT: note_on channel=2 note=59 velocity=0 time=0
EXTRACT: note_on channel=2 note=62 velocity=0 time=0
EXTRACT: note_on channel=2 note=67 velocity=0 time=0
EXTRACT: note_on channel=2 note=67 velocity=0 time=0
EXTRACT: note_on channel=2 note=62 velocity=0 time=0
EXTRACT: note_on channel=2 note=57 velocity=115 time=0
EXTRACT: note_on channel=2 note=54 velocity=127 time=0
EXTRACT: note_on channel=9 note=42 velocity=103 time=0.005263149999999999
EXTRACT: note_on channel=9 note=36 velocity=120 time=0
EXTRACT: note_on channel=1 note=30 velocity=117 time=0
EXTRACT: note_on channel=4 note=64 velocity=87 time=0
EXTRACT: note_on channel=4 note=61 velocity=91 time=0
EXTRACT: note_on channel=4 note=57 velocity=114 time=0
EXTRACT: note_on channel=4 note=54 velocity=101 time=0
EXTRACT: note_on channel=6 note=59 velocity=0 time=0
EXTRACT: note_on channel=6 note=62 velocity=0 time=0
EXTRACT: note_on channel=6 note=67 velocity=0 time=0
EXTRACT: note_on channel=6 note=57 velocity=114 time=0
EXTRACT: note_on channel=6 note=61 velocity=110 time=0
EXTRACT: note_on channel=6 note=66 velocity=111 time=0
EXTRACT: note_on channel=7 note=64 velocity=81 time=0
EXTRACT: note_on channel=7 note=61 velocity=82 time=0
EXTRACT: note_on channel=7 note=57 velocity=111 time=0
EXTRACT: note_on channel=7 note=54 velocity=101 time=0
EXTRACT: note_on channel=8 note=45 velocity=84 time=0
EXTRACT: note_on channel=8 note=57 velocity=118 time=0
EXTRACT: note_on channel=3 note=62 velocity=0 time=0.005263149999999999
EXTRACT: note_on channel=9 note=42 velocity=0 time=0.04736835
EXTRACT: note_on channel=9 note=36 velocity=0 time=0
EXTRACT: note_on channel=8 note=45 velocity=0 time=0.02631575
EXTRACT: note_on channel=8 note=57 velocity=0 time=0
EXTRACT: note_on channel=8 note=57 velocity=89 time=0.07894725
EXTRACT: note_on channel=8 note=69 velocity=121 time=0
EXTRACT: note_on channel=1 note=30 velocity=0 time=0.04736835
EXTRACT: note_on channel=1 note=30 velocity=115 time=0.005263149999999999
EXTRACT: note_on channel=2 note=61 velocity=102 time=0.09999984999999999
EXTRACT: note_on channel=9 note=42 velocity=73 time=0.005263149999999999
EXTRACT: note_on channel=9 note=42 velocity=107 time=0
EXTRACT: note_on channel=4 note=64 velocity=0 time=0
EXTRACT: note_on channel=4 note=61 velocity=0 time=0
EXTRACT: note_on channel=4 note=57 velocity=0 time=0
EXTRACT: note_on channel=4 note=54 velocity=0 time=0
EXTRACT: note_on channel=7 note=64 velocity=0 time=0
EXTRACT: note_on channel=7 note=61 velocity=0 time=0
EXTRACT: note_on channel=7 note=57 velocity=0 time=0
EXTRACT: note_on channel=7 note=54 velocity=0 time=0
EXTRACT: note_on channel=3 note=61 velocity=109 time=0.005263149999999999
EXTRACT: note_on channel=9 note=42 velocity=0 time=0.04736835
EXTRACT: note_on channel=9 note=42 velocity=0 time=0
EXTRACT: note_on channel=1 note=30 velocity=0 time=0.04736835
EXTRACT: note_on channel=1 note=30 velocity=122 time=0.005263149999999999
EXTRACT: note_on channel=2 note=64 velocity=119 time=0.04736835
EXTRACT: note_on channel=4 note=64 velocity=102 time=0.005263149999999999
EXTRACT: note_on channel=4 note=61 velocity=112 time=0
EXTRACT: note_on channel=4 note=57 velocity=115 time=0
EXTRACT: note_on channel=4 note=54 velocity=112 time=0
EXTRACT: note_on channel=7 note=64 velocity=78 time=0
EXTRACT: note_on channel=7 note=61 velocity=80 time=0
EXTRACT: note_on channel=7 note=57 velocity=85 time=0
EXTRACT: note_on channel=7 note=54 velocity=89 time=0
EXTRACT: note_on channel=1 note=30 velocity=0 time=0.15263134999999997
EXTRACT: note_on channel=9 note=40 velocity=127 time=0.005263149999999999
EXTRACT: note_on channel=9 note=42 velocity=97 time=0
EXTRACT: note_on channel=9 note=69 velocity=62 time=0
EXTRACT: note_on channel=1 note=37 velocity=121 time=0
EXTRACT: note_on channel=4 note=64 velocity=0 time=0
EXTRACT: note_on channel=4 note=61 velocity=0 time=0
EXTRACT: note_on channel=4 note=57 velocity=0 time=0
EXTRACT: note_on channel=4 note=54 velocity=0 time=0
EXTRACT: note_on channel=7 note=64 velocity=0 time=0
EXTRACT: note_on channel=7 note=61 velocity=0 time=0
EXTRACT: note_on channel=7 note=57 velocity=0 time=0
EXTRACT: note_on channel=7 note=54 velocity=0 time=0
EXTRACT: note_on channel=8 note=57 velocity=0 time=0
EXTRACT: note_on channel=8 note=69 velocity=0 time=0
EXTRACT: note_on channel=8 note=52 velocity=94 time=0
EXTRACT: note_on channel=8 note=64 velocity=122 time=0
EXTRACT: note_on channel=3 note=61 velocity=0 time=0.005263149999999999
EXTRACT: note_on channel=9 note=40 velocity=0 time=0.04736835
EXTRACT: note_on channel=9 note=42 velocity=0 time=0
EXTRACT: note_on channel=9 note=69 velocity=0 time=0
EXTRACT: note_on channel=2 note=61 velocity=117 time=0.09999984999999999
EXTRACT: note_on channel=9 note=69 velocity=70 time=0.005263149999999999
EXTRACT: note_on channel=4 note=64 velocity=76 time=0
EXTRACT: note_on channel=4 note=61 velocity=85 time=0
EXTRACT: note_on channel=4 note=57 velocity=84 time=0
EXTRACT: note_on channel=4 note=54 velocity=69 time=0
EXTRACT: note_on channel=3 note=61 velocity=124 time=0.005263149999999999
EXTRACT: note_on channel=9 note=69 velocity=0 time=0.04736835
EXTRACT: note_on channel=1 note=37 velocity=0 time=0.02631575
EXTRACT: note_on channel=4 note=64 velocity=0 time=0
EXTRACT: note_on channel=4 note=61 velocity=0 time=0
EXTRACT: note_on channel=4 note=57 velocity=0 time=0
EXTRACT: note_on channel=4 note=54 velocity=0 time=0
EXTRACT: note_on channel=9 note=42 velocity=101 time=0.07894725
EXTRACT: note_on channel=1 note=42 velocity=127 time=0
EXTRACT: note_on channel=4 note=64 velocity=71 time=0
EXTRACT: note_on channel=4 note=61 velocity=54 time=0
EXTRACT: note_on channel=4 note=57 velocity=60 time=0
EXTRACT: note_on channel=9 note=42 velocity=0 time=0.0526315
EXTRACT: note_on channel=4 note=64 velocity=0 time=0.02631575
EXTRACT: note_on channel=4 note=61 velocity=0 time=0
EXTRACT: note_on channel=4 note=57 velocity=0 time=0
EXTRACT: note_on channel=2 note=57 velocity=117 time=0.07368409999999999
EXTRACT: note_on channel=9 note=69 velocity=62 time=0.005263149999999999
EXTRACT: note_on channel=4 note=64 velocity=90 time=0
EXTRACT: note_on channel=4 note=61 velocity=71 time=0
EXTRACT: note_on channel=4 note=57 velocity=70 time=0
EXTRACT: note_on channel=4 note=54 velocity=57 time=0
EXTRACT: note_on channel=5 note=81 velocity=0 time=0
EXTRACT: note_on channel=5 note=69 velocity=0 time=0
EXTRACT: note_on channel=3 note=61 velocity=0 time=0.005263149999999999
EXTRACT: note_on channel=9 note=69 velocity=0 time=0.04736835
EXTRACT: note_on channel=1 note=42 velocity=0 time=0.02631575
EXTRACT: note_on channel=4 note=64 velocity=0 time=0
EXTRACT: note_on channel=4 note=61 velocity=0 time=0
EXTRACT: note_on channel=4 note=57 velocity=0 time=0
EXTRACT: note_on channel=4 note=54 velocity=0 time=0
EXTRACT: note_on channel=2 note=61 velocity=117 time=0.07368409999999999
EXTRACT: note_on channel=9 note=36 velocity=120 time=0.005263149999999999
EXTRACT: note_on channel=9 note=42 velocity=109 time=0
EXTRACT: note_on channel=1 note=37 velocity=120 time=0
EXTRACT: note_on channel=4 note=64 velocity=71 time=0
EXTRACT: note_on channel=4 note=61 velocity=65 time=0
EXTRACT: note_on channel=4 note=57 velocity=68 time=0
EXTRACT: note_on channel=5 note=78 velocity=117 time=0
EXTRACT: note_on channel=5 note=90 velocity=105 time=0
EXTRACT: note_on channel=3 note=61 velocity=121 time=0.005263149999999999
EXTRACT: note_on channel=9 note=36 velocity=0 time=0.04736835
EXTRACT: note_on channel=9 note=42 velocity=0 time=0
EXTRACT: note_on channel=4 note=64 velocity=0 time=0.02631575
EXTRACT: note_on channel=4 note=61 velocity=0 time=0
EXTRACT: note_on channel=4 note=57 velocity=0 time=0
EXTRACT: note_on channel=2 note=64 velocity=117 time=0.07368409999999999
EXTRACT: note_on channel=9 note=69 velocity=73 time=0.005263149999999999
EXTRACT: note_on channel=5 note=78 velocity=0 time=0
EXTRACT: note_on channel=5 note=90 velocity=0 time=0
EXTRACT: note_on channel=8 note=52 velocity=0 time=0
EXTRACT: note_on channel=8 note=64 velocity=0 time=0
EXTRACT: note_on channel=9 note=69 velocity=0 time=0.0526315
EXTRACT: note_on channel=2 note=66 velocity=119 time=0.09999984999999999
EXTRACT: note_on channel=9 note=36 velocity=120 time=0.005263149999999999
EXTRACT: note_on channel=9 note=42 velocity=95 time=0
EXTRACT: note_on channel=9 note=69 velocity=78 time=0
EXTRACT: note_on channel=4 note=64 velocity=110 time=0
EXTRACT: note_on channel=4 note=61 velocity=93 time=0
EXTRACT: note_on channel=4 note=57 velocity=108 time=0
EXTRACT: note_on channel=4 note=54 velocity=87 time=0
EXTRACT: note_on channel=7 note=64 velocity=78 time=0
EXTRACT: note_on channel=7 note=61 velocity=76 time=0
EXTRACT: note_on channel=7 note=57 velocity=89 time=0
EXTRACT: note_on channel=7 note=54 velocity=104 time=0
EXTRACT: note_on channel=9 note=36 velocity=0 time=0.0526315
EXTRACT: note_on channel=9 note=42 velocity=0 time=0
EXTRACT: note_on channel=9 note=69 velocity=0 time=0
EXTRACT: note_on channel=1 note=37 velocity=0 time=0.04736835
EXTRACT: note_on channel=1 note=42 velocity=108 time=0.005263149999999999
EXTRACT: note_on channel=2 note=69 velocity=127 time=0.04736835
EXTRACT: note_on channel=4 note=64 velocity=0 time=0.005263149999999999
EXTRACT: note_on channel=4 note=61 velocity=0 time=0
EXTRACT: note_on channel=4 note=57 velocity=0 time=0
EXTRACT: note_on channel=4 note=54 velocity=0 time=0
EXTRACT: note_on channel=5 note=76 velocity=100 time=0
EXTRACT: note_on channel=5 note=88 velocity=99 time=0
EXTRACT: note_on channel=7 note=64 velocity=0 time=0
EXTRACT: note_on channel=7 note=61 velocity=0 time=0
EXTRACT: note_on channel=7 note=57 velocity=0 time=0
EXTRACT: note_on channel=7 note=54 velocity=0 time=0
EXTRACT: note_on channel=9 note=40 velocity=127 time=0.1578945
EXTRACT: note_on channel=9 note=42 velocity=102 time=0
EXTRACT: note_on channel=9 note=69 velocity=66 time=0
EXTRACT: note_on channel=5 note=76 velocity=0 time=0
EXTRACT: note_on channel=5 note=88 velocity=0 time=0
EXTRACT: note_on channel=9 note=40 velocity=0 time=0.0526315
EXTRACT: note_on channel=9 note=42 velocity=0 time=0
EXTRACT: note_on channel=9 note=69 velocity=0 time=0
EXTRACT: note_on channel=4 note=64 velocity=52 time=0.105263
EXTRACT: note_on channel=4 note=61 velocity=67 time=0
EXTRACT: note_on channel=4 note=57 velocity=56 time=0
EXTRACT: note_on channel=1 note=42 velocity=0 time=0.04736835
EXTRACT: note_on channel=1 note=49 velocity=125 time=0.005263149999999999
EXTRACT: note_on channel=4 note=64 velocity=0 time=0.02631575
EXTRACT: note_on channel=4 note=61 velocity=0 time=0
EXTRACT: note_on channel=4 note=57 velocity=0 time=0
EXTRACT: note_on channel=9 note=36 velocity=90 time=0.07894725
EXTRACT: note_on channel=9 note=42 velocity=94 time=0
EXTRACT: note_on channel=4 note=64 velocity=69 time=0
EXTRACT: note_on channel=4 note=61 velocity=64 time=0
EXTRACT: note_on channel=4 note=57 velocity=78 time=0
EXTRACT: note_on channel=4 note=54 velocity=54 time=0
EXTRACT: note_on channel=5 note=86 velocity=111 time=0
EXTRACT: note_on channel=5 note=74 velocity=102 time=0
EXTRACT: note_on channel=8 note=54 velocity=100 time=0
EXTRACT: note_on channel=8 note=66 velocity=122 time=0
EXTRACT: note_on channel=3 note=61 velocity=118 time=0.005263149999999999
EXTRACT: note_on channel=9 note=36 velocity=0 time=0.04736835
EXTRACT: note_on channel=9 note=42 velocity=0 time=0
EXTRACT: note_on channel=4 note=64 velocity=0 time=0.02631575
EXTRACT: note_on channel=4 note=61 velocity=0 time=0
EXTRACT: note_on channel=4 note=57 velocity=0 time=0
EXTRACT: note_on channel=4 note=54 velocity=0 time=0
EXTRACT: note_on channel=9 note=40 velocity=127 time=0.07894725
EXTRACT: note_on channel=5 note=86 velocity=0 time=0
EXTRACT: note_on channel=5 note=74 velocity=0 time=0
EXTRACT: note_on channel=9 note=40 velocity=0 time=0.0526315
EXTRACT: note_on channel=1 note=49 velocity=0 time=0.09999984999999999
EXTRACT: note_on channel=2 note=57 velocity=0 time=0
EXTRACT: note_on channel=2 note=54 velocity=0 time=0
EXTRACT: note_on channel=2 note=61 velocity=0 time=0
EXTRACT: note_on channel=2 note=64 velocity=0 time=0
EXTRACT: note_on channel=2 note=61 velocity=0 time=0
EXTRACT: note_on channel=2 note=57 velocity=0 time=0
EXTRACT: note_on channel=2 note=61 velocity=0 time=0
EXTRACT: note_on channel=2 note=64 velocity=0 time=0
EXTRACT: note_on channel=2 note=66 velocity=0 time=0
EXTRACT: note_on channel=2 note=69 velocity=0 time=0
EXTRACT: note_on channel=2 note=47 velocity=110 time=0
EXTRACT: note_on channel=9 note=49 velocity=65 time=0.005263149999999999
EXTRACT: note_on channel=9 note=36 velocity=120 time=0
EXTRACT: note_on channel=1 note=35 velocity=116 time=0
EXTRACT: note_on channel=4 note=66 velocity=90 time=0
EXTRACT: note_on channel=4 note=62 velocity=96 time=0
EXTRACT: note_on channel=4 note=59 velocity=111 time=0
EXTRACT: note_on channel=4 note=54 velocity=87 time=0
EXTRACT: note_on channel=4 note=47 velocity=112 time=0
EXTRACT: control_change channel=5 control=11 value=60 time=0
EXTRACT: note_on channel=5 note=90 velocity=100 time=0
EXTRACT: note_on channel=5 note=78 velocity=100 time=0
EXTRACT: note_on channel=6 note=57 velocity=0 time=0
EXTRACT: note_on channel=6 note=61 velocity=0 time=0
EXTRACT: note_on channel=6 note=66 velocity=0 time=0
EXTRACT: control_change channel=6 control=11 value=40 time=0
EXTRACT: note_on channel=6 note=59 velocity=122 time=0
EXTRACT: note_on channel=6 note=62 velocity=109 time=0
EXTRACT: note_on channel=6 note=66 velocity=125 time=0
EXTRACT: note_on channel=7 note=66 velocity=83 time=0
EXTRACT: note_on channel=7 note=62 velocity=95 time=0
EXTRACT: note_on channel=7 note=59 velocity=95 time=0
EXTRACT: note_on channel=7 note=54 velocity=94 time=0
EXTRACT: note_on channel=7 note=47 velocity=102 time=0
EXTRACT: note_on channel=3 note=61 velocity=0 time=0.005263149999999999
EXTRACT: note_on channel=3 note=61 velocity=0 time=0
EXTRACT: control_change channel=5 control=11 value=61 time=0.015789449999999997
EXTRACT: control_change channel=6 control=11 value=41 time=0.010526299999999999
EXTRACT: control_change channel=5 control=11 value=62 time=0.005263149999999999
EXTRACT: note_on channel=9 note=49 velocity=0 time=0.015789449999999997
EXTRACT: note_on channel=9 note=36 velocity=0 time=0
EXTRACT: control_change channel=5 control=11 value=63 time=0.005263149999999999
EXTRACT: control_change channel=6 control=11 value=42 time=0.005263149999999999
EXTRACT: control_change channel=5 control=11 value=64 time=0.010526299999999999
EXTRACT: control_change channel=5 control=11 value=65 time=0.021052599999999998
EXTRACT: control_change channel=6 control=11 value=43 time=0
EXTRACT: control_change channel=5 control=11 value=66 time=0.015789449999999997
EXTRACT: control_change channel=6 control=11 value=44 time=0.015789449999999997
EXTRACT: control_change channel=5 control=11 value=67 time=0.005263149999999999
EXTRACT: note_on channel=1 note=35 velocity=0 time=0.021052599999999998
EXTRACT: control_change channel=5 control=11 value=68 time=0
EXTRACT: note_on channel=1 note=35 velocity=122 time=0.005263149999999999
EXTRACT: control_change channel=6 control=11 value=45 time=0
EXTRACT: control_change channel=5 control=11 value=69 time=0.010526299999999999
EXTRACT: control_change channel=5 control=11 value=70 time=0.021052599999999998
EXTRACT: control_change channel=6 control=11 value=46 time=0
EXTRACT: control_change channel=5 control=11 value=71 time=0.015789449999999997
EXTRACT: control_change channel=6 control=11 value=47 time=0.015789449999999997
EXTRACT: control_change channel=5 control=11 value=72 time=0.005263149999999999
EXTRACT: control_change channel=5 control=11 value=73 time=0.021052599999999998
EXTRACT: control_change channel=6 control=11 value=48 time=0.005263149999999999
EXTRACT: control_change channel=5 control=11 value=74 time=0.010526299999999999
EXTRACT: control_change channel=5 control=11 value=75 time=0.021052599999999998
EXTRACT: control_change channel=6 control=11 value=49 time=0
EXTRACT: control_change channel=5 control=11 value=76 time=0.015789449999999997
EXTRACT: note_on channel=2 note=62 velocity=122 time=0.010526299999999999
EXTRACT: note_on channel=1 note=35 velocity=0 time=0.005263149999999999
EXTRACT: note_on channel=4 note=66 velocity=0 time=0
EXTRACT: note_on channel=4 note=62 velocity=0 time=0
EXTRACT: note_on channel=4 note=59 velocity=0 time=0
EXTRACT: note_on channel=4 note=54 velocity=0 time=0
EXTRACT: note_on channel=4 note=47 velocity=0 time=0
EXTRACT: control_change channel=6 control=11 value=50 time=0
EXTRACT: note_on channel=7 note=66 velocity=0 time=0
EXTRACT: note_on channel=7 note=62 velocity=0 time=0
EXTRACT: note_on channel=7 note=59 velocity=0 time=0
EXTRACT: note_on channel=7 note=54 velocity=0 time=0
EXTRACT: note_on channel=7 note=47 velocity=0 time=0
EXTRACT: note_on channel=8 note=54 velocity=0 time=0
EXTRACT: note_on channel=8 note=66 velocity=0 time=0
EXTRACT: note_on channel=8 note=57 velocity=84 time=0
EXTRACT: note_on channel=8 note=69 velocity=119 time=0
EXTRACT: note_on channel=3 note=62 velocity=115 time=0.005263149999999999
EXTRACT: control_change channel=5 control=11 value=77 time=0
EXTRACT: control_change channel=5 control=11 value=78 time=0.015789449999999997
EXTRACT: control_change channel=6 control=11 value=51 time=0.010526299999999999
EXTRACT: control_change channel=5 control=11 value=79 time=0.010526299999999999
EXTRACT: control_change channel=5 control=11 value=80 time=0.021052599999999998
EXTRACT: control_change channel=6 control=11 value=52 time=0
EXTRACT: control_change channel=5 control=11 value=81 time=0.015789449999999997
EXTRACT: control_change channel=6 control=11 value=53 time=0.015789449999999997
EXTRACT: control_change channel=5 control=11 value=82 time=0.005263149999999999
EXTRACT: control_change channel=5 control=11 value=83 time=0.015789449999999997
EXTRACT: control_change channel=6 control=11 value=54 time=0.010526299999999999
EXTRACT: control_change channel=5 control=11 value=84 time=0.010526299999999999
EXTRACT: note_on channel=2 note=66 velocity=116 time=0.015789449999999997
EXTRACT: note_on channel=1 note=42 velocity=112 time=0.005263149999999999
EXTRACT: note_on channel=4 note=66 velocity=95 time=0
EXTRACT: note_on channel=4 note=62 velocity=113 time=0
EXTRACT: note_on channel=4 note=59 velocity=102 time=0
EXTRACT: note_on channel=4 note=54 velocity=108 time=0
EXTRACT: note_on channel=4 note=47 velocity=98 time=0
EXTRACT: control_change channel=5 control=11 value=85 time=0
EXTRACT: control_change channel=6 control=11 value=55 time=0
EXTRACT: note_on channel=7 note=66 velocity=104 time=0
EXTRACT: note_on channel=7 note=62 velocity=104 time=0
EXTRACT: note_on channel=7 note=59 velocity=79 time=0
EXTRACT: note_on channel=7 note=54 velocity=83 time=0
EXTRACT: note_on channel=7 note=47 velocity=100 time=0
EXTRACT: note_on channel=8 note=57 velocity=0 time=0
EXTRACT: note_on channel=8 note=69 velocity=0 time=0
EXTRACT: control_change channel=5 control=11 value=86 time=0.015789449999999997
EXTRACT: control_change channel=6 control=11 value=56 time=0.015789449999999997
EXTRACT: control_change channel=5 control=11 value=87 time=0.005263149999999999
EXTRACT: control_change channel=5 control=11 value=88 time=0.015789449999999997
EXTRACT: control_change channel=6 control=11 value=57 time=0.010526299999999999
EXTRACT: control_change channel=5 control=11 value=89 time=0.010526299999999999
EXTRACT: control_change channel=5 control=11 value=90 time=0.015789449999999997
EXTRACT: control_change channel=6 control=11 value=58 time=0.005263149999999999
EXTRACT: control_change channel=5 control=11 value=91 time=0.015789449999999997
EXTRACT: control_change channel=6 control=11 value=59 time=0.015789449999999997
EXTRACT: control_change channel=5 control=11 value=92 time=0.005263149999999999
EXTRACT: control_change channel=5 control=11 value=93 time=0.015789449999999997
EXTRACT: note_on channel=1 note=42 velocity=0 time=0.010526299999999999
EXTRACT: note_on channel=4 note=66 velocity=0 time=0
EXTRACT: note_on channel=4 note=62 velocity=0 time=0
EXTRACT: note_on channel=4 note=59 velocity=0 time=0
EXTRACT: note_on channel=4 note=54 velocity=0 time=0
EXTRACT: note_on channel=4 note=47 velocity=0 time=0
EXTRACT: control_change channel=6 control=11 value=60 time=0
EXTRACT: note_on channel=7 note=66 velocity=0 time=0
EXTRACT: note_on channel=7 note=62 velocity=0 time=0
EXTRACT: note_on channel=7 note=59 velocity=0 time=0
EXTRACT: note_on channel=7 note=54 velocity=0 time=0
EXTRACT: note_on channel=7 note=47 velocity=0 time=0
EXTRACT: note_on channel=8 note=55 velocity=87 time=0
EXTRACT: note_on channel=8 note=67 velocity=114 time=0
EXTRACT: note_on channel=3 note=62 velocity=0 time=0.005263149999999999
EXTRACT: control_change channel=5 control=11 value=94 time=0.005263149999999999
EXTRACT: control_change channel=5 control=11 value=95 time=0.015789449999999997
EXTRACT: control_change channel=6 control=11 value=61 time=0.005263149999999999
EXTRACT: control_change channel=5 control=11 value=96 time=0.015789449999999997
EXTRACT: control_change channel=6 control=11 value=62 time=0.015789449999999997
EXTRACT: control_change channel=5 control=11 value=97 time=0.005263149999999999
EXTRACT: control_change channel=5 control=11 value=98 time=0.015789449999999997
EXTRACT: control_change channel=6 control=11 value=63 time=0.010526299999999999
EXTRACT: control_change channel=5 control=11 value=99 time=0.010526299999999999
EXTRACT: control_change channel=5 control=11 value=100 time=0.015789449999999997
EXTRACT: control_change channel=6 control=11 value=64 time=0.005263149999999999
EXTRACT: control_change channel=5 control=11 value=101 time=0.015789449999999997
EXTRACT: note_on channel=2 note=62 velocity=111 time=0.010526299999999999
EXTRACT: note_on channel=1 note=42 velocity=117 time=0.005263149999999999
EXTRACT: note_on channel=4 note=66 velocity=88 time=0
EXTRACT: note_on channel=4 note=62 velocity=82 time=0
EXTRACT: note_on channel=4 note=59 velocity=65 time=0
EXTRACT: note_on channel=4 note=54 velocity=85 time=0
EXTRACT: note_on channel=4 note=47 velocity=87 time=0
EXTRACT: control_change channel=5 control=11 value=102 time=0
EXTRACT: control_change channel=6 control=11 value=65 time=0
EXTRACT: note_on channel=8 note=55 velocity=0 time=0
EXTRACT: note_on channel=8 note=67 velocity=0 time=0
EXTRACT: note_on channel=3 note=62 velocity=125 time=0.005263149999999999
EXTRACT: control_change channel=5 control=11 value=103 time=0.015789449999999997
EXTRACT: control_change channel=6 control=11 value=66 time=0.010526299999999999
EXTRACT: control_change channel=5 control=11 value=104 time=0.010526299999999999
EXTRACT: control_change channel=5 control=11 value=105 time=0.015789449999999997
EXTRACT: control_change channel=6 control=11 value=67 time=0.005263149999999999
EXTRACT: note_on channel=4 note=66 velocity=0 time=0.015789449999999997
EXTRACT: note_on channel=4 note=62 velocity=0 time=0
EXTRACT: note_on channel=4 note=59 velocity=0 time=0
EXTRACT: note_on channel=4 note=54 velocity=0 time=0
EXTRACT: note_on channel=4 note=47 velocity=0 time=0
EXTRACT: control_change channel=5 control=11 value=106 time=0
EXTRACT: control_change channel=5 control=11 value=107 time=0.015789449999999997
EXTRACT: control_change channel=6 control=11 value=68 time=0
EXTRACT: control_change channel=5 control=11 value=108 time=0.021052599999999998
EXTRACT: control_change channel=6 control=11 value=69 time=0.010526299999999999
EXTRACT: control_change channel=5 control=11 value=109 time=0.010526299999999999
EXTRACT: note_on channel=1 note=42 velocity=0 time=0.015789449999999997
EXTRACT: control_change channel=5 control=11 value=110 time=0
EXTRACT: note_on channel=1 note=38 velocity=109 time=0.005263149999999999
EXTRACT: note_on channel=4 note=66 velocity=53 time=0
EXTRACT: note_on channel=4 note=62 velocity=54 time=0
EXTRACT: note_on channel=4 note=59 velocity=71 time=0
EXTRACT: control_change channel=6 control=11 value=70 time=0
EXTRACT: note_on channel=8 note=54 velocity=88 time=0
EXTRACT: note_on channel=8 note=66 velocity=118 time=0
EXTRACT: note_on channel=3 note=62 velocity=0 time=0.005263149999999999
EXTRACT: note_on channel=3 note=61 velocity=124 time=0
EXTRACT: control_change channel=5 control=11 value=111 time=0.010526299999999999
EXTRACT: control_change channel=5 control=11 value=112 time=0.015789449999999997
EXTRACT: control_change channel=6 control=11 value=71 time=0
EXTRACT: control_change channel=5 control=11 value=113 time=0.021052599999999998
EXTRACT: control_change channel=6 control=11 value=72 time=0.010526299999999999
EXTRACT: control_change channel=5 control=11 value=114 time=0.005263149999999999
EXTRACT: note_on channel=4 note=66 velocity=0 time=0.010526299999999999
EXTRACT: note_on channel=4 note=62 velocity=0 time=0
EXTRACT: note_on channel=4 note=59 velocity=0 time=0
EXTRACT: control_change channel=5 control=11 value=115 time=0.010526299999999999
EXTRACT: control_change channel=6 control=11 value=73 time=0.005263149999999999
EXTRACT: control_change channel=5 control=11 value=116 time=0.015789449999999997
EXTRACT: control_change channel=5 control=11 value=117 time=0.015789449999999997
EXTRACT: control_change channel=6 control=11 value=74 time=0
EXTRACT: control_change channel=5 control=11 value=118 time=0.021052599999999998
EXTRACT: note_on channel=2 note=59 velocity=113 time=0.005263149999999999
EXTRACT: note_on channel=1 note=38 velocity=0 time=0.005263149999999999
EXTRACT: note_on channel=4 note=66 velocity=82 time=0
EXTRACT: note_on channel=4 note=62 velocity=88 time=0
EXTRACT: note_on channel=4 note=59 velocity=55 time=0
EXTRACT: note_on channel=4 note=54 velocity=52 time=0
EXTRACT: note_on channel=4 note=47 velocity=74 time=0
EXTRACT: control_change channel=6 control=11 value=75 time=0
EXTRACT: note_on channel=8 note=54 velocity=0 time=0
EXTRACT: note_on channel=8 note=66 velocity=0 time=0
EXTRACT: note_on channel=3 note=61 velocity=0 time=0.005263149999999999
EXTRACT: note_on channel=3 note=59 velocity=110 time=0
EXTRACT: control_change channel=5 control=11 value=119 time=0
EXTRACT: control_change channel=5 control=11 value=120 time=0.021052599999999998
EXTRACT: control_change channel=6 control=11 value=76 time=0.005263149999999999
EXTRACT: control_change channel=5 control=11 value=121 time=0.015789449999999997
EXTRACT: control_change channel=5 control=11 value=122 time=0.015789449999999997
EXTRACT: control_change channel=6 control=11 value=77 time=0
EXTRACT: note_on channel=4 note=66 velocity=0 time=0.015789449999999997
EXTRACT: note_on channel=4 note=62 velocity=0 time=0
EXTRACT: note_on channel=4 note=59 velocity=0 time=0
EXTRACT: note_on channel=4 note=54 velocity=0 time=0
EXTRACT: note_on channel=4 note=47 velocity=0 time=0
EXTRACT: control_change channel=5 control=11 value=123 time=0.005263149999999999
EXTRACT: control_change channel=6 control=11 value=78 time=0.010526299999999999
EXTRACT: control_change channel=5 control=11 value=124 time=0.005263149999999999
EXTRACT: control_change channel=5 control=11 value=125 time=0.021052599999999998
EXTRACT: control_change channel=6 control=11 value=79 time=0.005263149999999999
EXTRACT: control_change channel=5 control=11 value=126 time=0.010526299999999999
EXTRACT: note_on channel=1 note=35 velocity=113 time=0.021052599999999998
EXTRACT: note_on channel=4 note=66 velocity=54 time=0
EXTRACT: note_on channel=4 note=62 velocity=44 time=0
EXTRACT: note_on channel=4 note=59 velocity=55 time=0
EXTRACT: control_change channel=5 control=11 value=127 time=0
EXTRACT: control_change channel=6 control=11 value=80 time=0
EXTRACT: note_on channel=8 note=52 velocity=98 time=0
EXTRACT: note_on channel=8 note=64 velocity=125 time=0
EXTRACT: note_on channel=3 note=59 velocity=0 time=0.005263149999999999
EXTRACT: note_on channel=4 note=66 velocity=0 time=0.07368409999999999
EXTRACT: note_on channel=4 note=62 velocity=0 time=0
EXTRACT: note_on channel=4 note=59 velocity=0 time=0
EXTRACT: note_on channel=2 note=62 velocity=118 time=0.07368409999999999
EXTRACT: note_on channel=3 note=62 velocity=111 time=0.010526299999999999
EXTRACT: note_on channel=1 note=35 velocity=0 time=0.15263134999999997
EXTRACT: note_on channel=4 note=66 velocity=115 time=0
EXTRACT: note_on channel=4 note=62 velocity=95 time=0
EXTRACT: note_on channel=4 note=59 velocity=97 time=0
EXTRACT: note_on channel=4 note=54 velocity=108 time=0
EXTRACT: note_on channel=4 note=47 velocity=92 time=0
EXTRACT: note_on channel=7 note=66 velocity=91 time=0
EXTRACT: note_on channel=7 note=62 velocity=110 time=0
EXTRACT: note_on channel=7 note=59 velocity=74 time=0
EXTRACT: note_on channel=7 note=54 velocity=87 time=0
EXTRACT: note_on channel=7 note=47 velocity=79 time=0
EXTRACT: note_on channel=8 note=52 velocity=0 time=0
EXTRACT: note_on channel=8 note=64 velocity=0 time=0
EXTRACT: note_on channel=8 note=50 velocity=83 time=0
EXTRACT: note_on channel=8 note=62 velocity=124 time=0
EXTRACT: note_on channel=3 note=62 velocity=0 time=0.005263149999999999
EXTRACT: note_on channel=2 note=66 velocity=106 time=0.14736819999999998
EXTRACT: note_on channel=4 note=66 velocity=0 time=0.005263149999999999
EXTRACT: note_on channel=4 note=62 velocity=0 time=0
EXTRACT: note_on channel=4 note=59 velocity=0 time=0
EXTRACT: note_on channel=4 note=54 velocity=0 time=0
EXTRACT: note_on channel=4 note=47 velocity=0 time=0
EXTRACT: note_on channel=7 note=66 velocity=0 time=0
EXTRACT: note_on channel=7 note=62 velocity=0 time=0
EXTRACT: note_on channel=7 note=59 velocity=0 time=0
EXTRACT: note_on channel=7 note=54 velocity=0 time=0
EXTRACT: note_on channel=7 note=47 velocity=0 time=0
EXTRACT: note_on channel=8 note=50 velocity=0 time=0
EXTRACT: note_on channel=8 note=62 velocity=0 time=0
EXTRACT: note_on channel=3 note=62 velocity=123 time=0.005263149999999999
EXTRACT: note_on channel=2 note=66 velocity=115 time=0.14736819999999998
EXTRACT: note_on channel=9 note=40 velocity=127 time=0.005263149999999999
EXTRACT: note_on channel=8 note=52 velocity=90 time=0
EXTRACT: note_on channel=8 note=64 velocity=117 time=0
EXTRACT: note_on channel=9 note=40 velocity=0 time=0.0526315
EXTRACT: note_on channel=4 note=66 velocity=65 time=0.105263
EXTRACT: note_on channel=4 note=62 velocity=39 time=0
EXTRACT: note_on channel=4 note=59 velocity=48 time=0
EXTRACT: note_on channel=8 note=52 velocity=0 time=0
EXTRACT: note_on channel=8 note=64 velocity=0 time=0
EXTRACT: note_on channel=4 note=66 velocity=0 time=0.07894725
EXTRACT: note_on channel=4 note=62 velocity=0 time=0
EXTRACT: note_on channel=4 note=59 velocity=0 time=0
EXTRACT: note_on channel=2 note=62 velocity=111 time=0.07368409999999999
EXTRACT: note_on channel=1 note=30 velocity=120 time=0.005263149999999999
EXTRACT: note_on channel=4 note=66 velocity=59 time=0
EXTRACT: note_on channel=4 note=62 velocity=70 time=0
EXTRACT: note_on channel=4 note=59 velocity=81 time=0
EXTRACT: note_on channel=4 note=54 velocity=91 time=0
EXTRACT: note_on channel=4 note=47 velocity=67 time=0
EXTRACT: note_on channel=8 note=54 velocity=96 time=0
EXTRACT: note_on channel=8 note=66 velocity=122 time=0
EXTRACT: note_on channel=4 note=66 velocity=0 time=0.07894725
EXTRACT: note_on channel=4 note=62 velocity=0 time=0
EXTRACT: note_on channel=4 note=59 velocity=0 time=0
EXTRACT: note_on channel=4 note=54 velocity=0 time=0
EXTRACT: note_on channel=4 note=47 velocity=0 time=0
EXTRACT: note_on channel=1 note=30 velocity=0 time=0.07894725
EXTRACT: note_on channel=2 note=47 velocity=0 time=0.15263134999999997
EXTRACT: note_on channel=2 note=62 velocity=0 time=0
EXTRACT: note_on channel=2 note=66 velocity=0 time=0
EXTRACT: note_on channel=2 note=62 velocity=0 time=0
EXTRACT: note_on channel=2 note=59 velocity=0 time=0
EXTRACT: note_on channel=2 note=62 velocity=0 time=0
EXTRACT: note_on channel=2 note=66 velocity=0 time=0
EXTRACT: note_on channel=2 note=66 velocity=0 time=0
EXTRACT: note_on channel=2 note=47 velocity=125 time=0
EXTRACT: note_on channel=9 note=42 velocity=106 time=0.005263149999999999
EXTRACT: note_on channel=9 note=36 velocity=120 time=0
EXTRACT: note_on channel=1 note=35 velocity=123 time=0
EXTRACT: note_on channel=4 note=66 velocity=99 time=0
EXTRACT: note_on channel=4 note=62 velocity=109 time=0
EXTRACT: note_on channel=4 note=59 velocity=92 time=0
EXTRACT: note_on channel=4 note=54 velocity=92 time=0
EXTRACT: note_on channel=4 note=47 velocity=108 time=0
EXTRACT: note_on channel=7 note=66 velocity=103 time=0
EXTRACT: note_on channel=7 note=62 velocity=99 time=0
EXTRACT: note_on channel=7 note=59 velocity=112 time=0
EXTRACT: note_on channel=7 note=54 velocity=99 time=0
EXTRACT: note_on channel=7 note=47 velocity=83 time=0
EXTRACT: note_on channel=3 note=62 velocity=0 time=0.005263149999999999
EXTRACT: note_on channel=9 note=42 velocity=0 time=0.04736835
EXTRACT: note_on channel=9 note=36 velocity=0 time=0
EXTRACT: note_on channel=1 note=35 velocity=0 time=0.18421025
EXTRACT: note_on channel=2 note=62 velocity=0 time=0.07368409999999999
EXTRACT: note_on channel=2 note=62 velocity=109 time=0
EXTRACT: note_on channel=9 note=42 velocity=104 time=0.005263149999999999
EXTRACT: note_on channel=4 note=66 velocity=0 time=0
EXTRACT: note_on channel=4 note=62 velocity=0 time=0
EXTRACT: note_on channel=4 note=59 velocity=0 time=0
EXTRACT: note_on channel=4 note=54 velocity=0 time=0
EXTRACT: note_on channel=4 note=47 velocity=0 time=0
EXTRACT: note_on channel=7 note=66 velocity=0 time=0
EXTRACT: note_on channel=7 note=62 velocity=0 time=0
EXTRACT: note_on channel=7 note=59 velocity=0 time=0
EXTRACT: note_on channel=7 note=54 velocity=0 time=0
EXTRACT: note_on channel=7 note=47 velocity=0 time=0
EXTRACT: note_on channel=8 note=54 velocity=0 time=0
EXTRACT: note_on channel=8 note=66 velocity=0 time=0
EXTRACT: note_on channel=8 note=57 velocity=96 time=0
EXTRACT: note_on channel=8 note=69 velocity=121 time=0
EXTRACT: note_on channel=3 note=62 velocity=112 time=0.005263149999999999
EXTRACT: note_on channel=9 note=42 velocity=0 time=0.04736835
EXTRACT: note_on channel=2 note=66 velocity=105 time=0.09999984999999999
EXTRACT: note_on channel=1 note=35 velocity=123 time=0.005263149999999999
EXTRACT: note_on channel=4 note=66 velocity=114 time=0
EXTRACT: note_on channel=4 note=62 velocity=105 time=0
EXTRACT: note_on channel=4 note=59 velocity=99 time=0
EXTRACT: note_on channel=4 note=54 velocity=115 time=0
EXTRACT: note_on channel=4 note=47 velocity=99 time=0
EXTRACT: note_on channel=7 note=66 velocity=97 time=0
EXTRACT: note_on channel=7 note=62 velocity=101 time=0
EXTRACT: note_on channel=7 note=59 velocity=87 time=0
EXTRACT: note_on channel=7 note=54 velocity=105 time=0
EXTRACT: note_on channel=7 note=47 velocity=94 time=0
EXTRACT: note_on channel=8 note=57 velocity=0 time=0
EXTRACT: note_on channel=8 note=69 velocity=0 time=0
EXTRACT: note_on channel=9 note=42 velocity=92 time=0.1578945
EXTRACT: note_on channel=9 note=40 velocity=127 time=0
EXTRACT: note_on channel=9 note=69 velocity=62 time=0
EXTRACT: note_on channel=1 note=35 velocity=0 time=0
EXTRACT: note_on channel=4 note=66 velocity=0 time=0
EXTRACT: note_on channel=4 note=62 velocity=0 time=0
EXTRACT: note_on channel=4 note=59 velocity=0 time=0
EXTRACT: note_on channel=4 note=54 velocity=0 time=0
EXTRACT: note_on channel=4 note=47 velocity=0 time=0
EXTRACT: note_on channel=7 note=66 velocity=0 time=0
EXTRACT: note_on channel=7 note=62 velocity=0 time=0
EXTRACT: note_on channel=7 note=59 velocity=0 time=0
EXTRACT: note_on channel=7 note=54 velocity=0 time=0
EXTRACT: note_on channel=7 note=47 velocity=0 time=0
EXTRACT: note_on channel=8 note=55 velocity=84 time=0
EXTRACT: note_on channel=8 note=67 velocity=114 time=0
EXTRACT: note_on channel=3 note=62 velocity=0 time=0.005263149999999999
EXTRACT: note_on channel=9 note=42 velocity=0 time=0.04736835
EXTRACT: note_on channel=9 note=40 velocity=0 time=0
EXTRACT: note_on channel=9 note=69 velocity=0 time=0
EXTRACT: note_on channel=2 note=62 velocity=118 time=0.09999984999999999
EXTRACT: note_on channel=9 note=69 velocity=70 time=0.005263149999999999
EXTRACT: note_on channel=4 note=66 velocity=64 time=0
EXTRACT: note_on channel=4 note=62 velocity=87 time=0
EXTRACT: note_on channel=4 note=59 velocity=51 time=0
EXTRACT: note_on channel=4 note=54 velocity=79 time=0
EXTRACT: note_on channel=4 note=47 velocity=56 time=0
EXTRACT: note_on channel=8 note=55 velocity=0 time=0
EXTRACT: note_on channel=8 note=67 velocity=0 time=0
EXTRACT: note_on channel=3 note=62 velocity=113 time=0.005263149999999999
EXTRACT: note_on channel=9 note=69 velocity=0 time=0.04736835
EXTRACT: note_on channel=4 note=66 velocity=0 time=0.02631575
EXTRACT: note_on channel=4 note=62 velocity=0 time=0
EXTRACT: note_on channel=4 note=59 velocity=0 time=0
EXTRACT: note_on channel=4 note=54 velocity=0 time=0
EXTRACT: note_on channel=4 note=47 velocity=0 time=0
EXTRACT: note_on channel=9 note=42 velocity=105 time=0.07894725
EXTRACT: note_on channel=4 note=66 velocity=53 time=0
EXTRACT: note_on channel=4 note=62 velocity=57 time=0
EXTRACT: note_on channel=4 note=59 velocity=65 time=0
EXTRACT: note_on channel=8 note=54 velocity=100 time=0
EXTRACT: note_on channel=8 note=66 velocity=124 time=0
EXTRACT: note_on channel=3 note=62 velocity=0 time=0.005263149999999999
EXTRACT: note_on channel=3 note=61 velocity=105 time=0
EXTRACT: note_on channel=9 note=42 velocity=0 time=0.04736835
EXTRACT: note_on channel=4 note=66 velocity=0 time=0.02631575
EXTRACT: note_on channel=4 note=62 velocity=0 time=0
EXTRACT: note_on channel=4 note=59 velocity=0 time=0
EXTRACT: note_on channel=2 note=59 velocity=107 time=0.07368409999999999
EXTRACT: note_on channel=9 note=69 velocity=62 time=0.005263149999999999
EXTRACT: note_on channel=4 note=66 velocity=51 time=0
EXTRACT: note_on channel=4 note=62 velocity=51 time=0
EXTRACT: note_on channel=4 note=59 velocity=89 time=0
EXTRACT: note_on channel=4 note=54 velocity=53 time=0
EXTRACT: note_on channel=4 note=47 velocity=82 time=0
EXTRACT: note_on channel=8 note=54 velocity=0 time=0
EXTRACT: note_on channel=8 note=66 velocity=0 time=0
EXTRACT: note_on channel=3 note=61 velocity=0 time=0.005263149999999999
EXTRACT: note_on channel=3 note=59 velocity=106 time=0
EXTRACT: note_on channel=9 note=69 velocity=0 time=0.04736835
EXTRACT: note_on channel=4 note=66 velocity=0 time=0.02631575
EXTRACT: note_on channel=4 note=62 velocity=0 time=0
EXTRACT: note_on channel=4 note=59 velocity=0 time=0
EXTRACT: note_on channel=4 note=54 velocity=0 time=0
EXTRACT: note_on channel=4 note=47 velocity=0 time=0
EXTRACT: note_on channel=9 note=36 velocity=120 time=0.07894725
EXTRACT: note_on channel=9 note=42 velocity=102 time=0
EXTRACT: note_on channel=4 note=66 velocity=44 time=0
EXTRACT: note_on channel=4 note=62 velocity=58 time=0
EXTRACT: note_on channel=4 note=59 velocity=67 time=0
EXTRACT: note_on channel=8 note=52 velocity=92 time=0
EXTRACT: note_on channel=8 note=64 velocity=125 time=0
EXTRACT: note_on channel=3 note=59 velocity=0 time=0.005263149999999999
EXTRACT: note_on channel=9 note=36 velocity=0 time=0.04736835
EXTRACT: note_on channel=9 note=42 velocity=0 time=0
EXTRACT: note_on channel=4 note=66 velocity=0 time=0.02631575
EXTRACT: note_on channel=4 note=62 velocity=0 time=0
EXTRACT: note_on channel=4 note=59 velocity=0 time=0
EXTRACT: note_on channel=2 note=62 velocity=124 time=0.07368409999999999
EXTRACT: note_on channel=9 note=69 velocity=73 time=0.005263149999999999
EXTRACT: note_on channel=3 note=62 velocity=114 time=0.005263149999999999
EXTRACT: note_on channel=9 note=69 velocity=0 time=0.04736835
EXTRACT: note_on channel=9 note=42 velocity=93 time=0.105263
EXTRACT: note_on channel=9 note=69 velocity=78 time=0
EXTRACT: note_on channel=1 note=35 velocity=112 time=0
EXTRACT: note_on channel=4 note=66 velocity=94 time=0
EXTRACT: note_on channel=4 note=62 velocity=116 time=0
EXTRACT: note_on channel=4 note=59 velocity=110 time=0
EXTRACT: note_on channel=4 note=54 velocity=95 time=0
EXTRACT: note_on channel=4 note=47 velocity=96 time=0
EXTRACT: note_on channel=7 note=66 velocity=86 time=0
EXTRACT: note_on channel=7 note=62 velocity=80 time=0
EXTRACT: note_on channel=7 note=59 velocity=110 time=0
EXTRACT: note_on channel=7 note=54 velocity=97 time=0
EXTRACT: note_on channel=7 note=47 velocity=109 time=0
EXTRACT: note_on channel=8 note=52 velocity=0 time=0
EXTRACT: note_on channel=8 note=64 velocity=0 time=0
EXTRACT: note_on channel=8 note=50 velocity=93 time=0
EXTRACT: note_on channel=8 note=62 velocity=116 time=0
EXTRACT: note_on channel=3 note=62 velocity=0 time=0.005263149999999999
EXTRACT: note_on channel=9 note=42 velocity=0 time=0.04736835
EXTRACT: note_on channel=9 note=69 velocity=0 time=0
EXTRACT: note_on channel=2 note=66 velocity=113 time=0.09999984999999999
EXTRACT: note_on channel=1 note=35 velocity=0 time=0.005263149999999999
EXTRACT: note_on channel=4 note=66 velocity=0 time=0
EXTRACT: note_on channel=4 note=62 velocity=0 time=0
EXTRACT: note_on channel=4 note=59 velocity=0 time=0
EXTRACT: note_on channel=4 note=54 velocity=0 time=0
EXTRACT: note_on channel=4 note=47 velocity=0 time=0
EXTRACT: note_on channel=7 note=66 velocity=0 time=0
EXTRACT: note_on channel=7 note=62 velocity=0 time=0
EXTRACT: note_on channel=7 note=59 velocity=0 time=0
EXTRACT: note_on channel=7 note=54 velocity=0 time=0
EXTRACT: note_on channel=7 note=47 velocity=0 time=0
EXTRACT: note_on channel=8 note=50 velocity=0 time=0
EXTRACT: note_on channel=8 note=62 velocity=0 time=0
EXTRACT: note_on channel=3 note=62 velocity=105 time=0.005263149999999999
EXTRACT: note_on channel=2 note=66 velocity=125 time=0.14736819999999998
EXTRACT: note_on channel=9 note=40 velocity=127 time=0.005263149999999999
EXTRACT: note_on channel=9 note=42 velocity=109 time=0
EXTRACT: note_on channel=9 note=69 velocity=66 time=0
EXTRACT: note_on channel=8 note=54 velocity=84 time=0
EXTRACT: note_on channel=8 note=66 velocity=126 time=0
EXTRACT: note_on channel=9 note=40 velocity=0 time=0.0526315
EXTRACT: note_on channel=9 note=42 velocity=0 time=0
EXTRACT: note_on channel=9 note=69 velocity=0 time=0
EXTRACT: note_on channel=4 note=66 velocity=64 time=0.105263
EXTRACT: note_on channel=4 note=62 velocity=69 time=0
EXTRACT: note_on channel=4 note=59 velocity=53 time=0
EXTRACT: note_on channel=8 note=54 velocity=0 time=0
EXTRACT: note_on channel=8 note=66 velocity=0 time=0
EXTRACT: note_on channel=4 note=66 velocity=0 time=0.07894725
EXTRACT: note_on channel=4 note=62 velocity=0 time=0
EXTRACT: note_on channel=4 note=59 velocity=0 time=0
EXTRACT: note_on channel=2 note=62 velocity=122 time=0.07368409999999999
EXTRACT: note_on channel=9 note=36 velocity=90 time=0.005263149999999999
EXTRACT: note_on channel=9 note=42 velocity=94 time=0
EXTRACT: note_on channel=1 note=38 velocity=120 time=0
EXTRACT: note_on channel=4 note=66 velocity=74 time=0
EXTRACT: note_on channel=4 note=62 velocity=65 time=0
EXTRACT: note_on channel=4 note=59 velocity=61 time=0
EXTRACT: note_on channel=4 note=54 velocity=54 time=0
EXTRACT: note_on channel=4 note=47 velocity=84 time=0
EXTRACT: note_on channel=8 note=47 velocity=100 time=0
EXTRACT: note_on channel=8 note=59 velocity=119 time=0
EXTRACT: note_on channel=9 note=36 velocity=0 time=0.0526315
EXTRACT: note_on channel=9 note=42 velocity=0 time=0
EXTRACT: note_on channel=4 note=66 velocity=0 time=0.02631575
EXTRACT: note_on channel=4 note=62 velocity=0 time=0
EXTRACT: note_on channel=4 note=59 velocity=0 time=0
EXTRACT: note_on channel=4 note=54 velocity=0 time=0
EXTRACT: note_on channel=4 note=47 velocity=0 time=0
EXTRACT: note_on channel=9 note=40 velocity=127 time=0.07894725
EXTRACT: note_on channel=1 note=38 velocity=0 time=0
EXTRACT: note_on channel=9 note=40 velocity=0 time=0.0526315
EXTRACT: note_on channel=2 note=47 velocity=0 time=0.09999984999999999
EXTRACT: note_on channel=2 note=62 velocity=0 time=0
EXTRACT: note_on channel=2 note=66 velocity=0 time=0
EXTRACT: note_on channel=2 note=62 velocity=0 time=0
EXTRACT: note_on channel=2 note=59 velocity=0 time=0
EXTRACT: note_on channel=2 note=62 velocity=0 time=0
EXTRACT: note_on channel=2 note=66 velocity=0 time=0
EXTRACT: note_on channel=2 note=66 velocity=0 time=0
EXTRACT: note_on channel=2 note=62 velocity=0 time=0
EXTRACT: note_on channel=2 note=40 velocity=115 time=0
EXTRACT: note_on channel=9 note=42 velocity=97 time=0.005263149999999999
EXTRACT: note_on channel=9 note=36 velocity=120 time=0
EXTRACT: note_on channel=1 note=40 velocity=117 time=0
EXTRACT: note_on channel=4 note=67 velocity=87 time=0
EXTRACT: note_on channel=4 note=62 velocity=94 time=0
EXTRACT: note_on channel=4 note=59 velocity=89 time=0
EXTRACT: note_on channel=4 note=55 velocity=104 time=0
EXTRACT: note_on channel=4 note=47 velocity=113 time=0
EXTRACT: note_on channel=5 note=90 velocity=0 time=0
EXTRACT: note_on channel=5 note=78 velocity=0 time=0
EXTRACT: note_on channel=5 note=91 velocity=105 time=0
EXTRACT: note_on channel=5 note=79 velocity=100 time=0
EXTRACT: note_on channel=6 note=59 velocity=0 time=0
EXTRACT: note_on channel=6 note=62 velocity=0 time=0
EXTRACT: note_on channel=6 note=66 velocity=0 time=0
EXTRACT: note_on channel=6 note=59 velocity=121 time=0
EXTRACT: note_on channel=6 note=62 velocity=116 time=0
EXTRACT: note_on channel=6 note=67 velocity=109 time=0
EXTRACT: note_on channel=7 note=67 velocity=95 time=0
EXTRACT: note_on channel=7 note=62 velocity=86 time=0
EXTRACT: note_on channel=7 note=59 velocity=83 time=0
EXTRACT: note_on channel=7 note=55 velocity=98 time=0
EXTRACT: note_on channel=7 note=47 velocity=97 time=0
EXTRACT: note_on channel=3 note=62 velocity=0 time=0.005263149999999999
EXTRACT: note_on channel=9 note=42 velocity=0 time=0.04736835
EXTRACT: note_on channel=9 note=36 velocity=0 time=0
EXTRACT: note_on channel=1 note=40 velocity=0 time=0.07894725
EXTRACT: note_on channel=2 note=62 velocity=108 time=0.17894709999999997
EXTRACT: note_on channel=9 note=42 velocity=109 time=0.005263149999999999
EXTRACT: note_on channel=1 note=40 velocity=114 time=0
EXTRACT: note_on channel=4 note=67 velocity=0 time=0
EXTRACT: note_on channel=4 note=62 velocity=0 time=0
EXTRACT: note_on channel=4 note=59 velocity=0 time=0
EXTRACT: note_on channel=4 note=55 velocity=0 time=0
EXTRACT: note_on channel=4 note=47 velocity=0 time=0
EXTRACT: note_on channel=7 note=67 velocity=0 time=0
EXTRACT: note_on channel=7 note=62 velocity=0 time=0
EXTRACT: note_on channel=7 note=59 velocity=0 time=0
EXTRACT: note_on channel=7 note=55 velocity=0 time=0
EXTRACT: note_on channel=7 note=47 velocity=0 time=0
EXTRACT: note_on channel=8 note=47 velocity=0 time=0
EXTRACT: note_on channel=8 note=59 velocity=0 time=0
EXTRACT: note_on channel=8 note=52 velocity=96 time=0
EXTRACT: note_on channel=8 note=64 velocity=120 time=0
EXTRACT: note_on channel=3 note=62 velocity=122 time=0.005263149999999999
EXTRACT: note_on channel=9 note=42 velocity=0 time=0.04736835
EXTRACT: note_on channel=1 note=40 velocity=0 time=0.09999984999999999
EXTRACT: note_on channel=2 note=67 velocity=105 time=0
EXTRACT: note_on channel=1 note=35 velocity=111 time=0.005263149999999999
EXTRACT: note_on channel=4 note=67 velocity=100 time=0
EXTRACT: note_on channel=4 note=62 velocity=111 time=0
EXTRACT: note_on channel=4 note=59 velocity=108 time=0
EXTRACT: note_on channel=4 note=55 velocity=98 time=0
EXTRACT: note_on channel=4 note=47 velocity=93 time=0
EXTRACT: note_on channel=7 note=67 velocity=91 time=0
EXTRACT: note_on channel=7 note=62 velocity=86 time=0
EXTRACT: note_on channel=7 note=59 velocity=109 time=0
EXTRACT: note_on channel=7 note=55 velocity=79 time=0
EXTRACT: note_on channel=7 note=47 velocity=106 time=0
EXTRACT: note_on channel=8 note=52 velocity=0 time=0
EXTRACT: note_on channel=8 note=64 velocity=0 time=0
EXTRACT: note_on channel=9 note=42 velocity=106 time=0.1578945
EXTRACT: note_on channel=9 note=40 velocity=127 time=0
EXTRACT: note_on channel=9 note=69 velocity=62 time=0
EXTRACT: note_on channel=1 note=35 velocity=0 time=0
EXTRACT: note_on channel=4 note=67 velocity=0 time=0
EXTRACT: note_on channel=4 note=62 velocity=0 time=0
EXTRACT: note_on channel=4 note=59 velocity=0 time=0
EXTRACT: note_on channel=4 note=55 velocity=0 time=0
EXTRACT: note_on channel=4 note=47 velocity=0 time=0
EXTRACT: note_on channel=7 note=67 velocity=0 time=0
EXTRACT: note_on channel=7 note=62 velocity=0 time=0
EXTRACT: note_on channel=7 note=59 velocity=0 time=0
EXTRACT: note_on channel=7 note=55 velocity=0 time=0
EXTRACT: note_on channel=7 note=47 velocity=0 time=0
EXTRACT: note_on channel=8 note=52 velocity=88 time=0
EXTRACT: note_on channel=8 note=64 velocity=122 time=0
EXTRACT: note_on channel=3 note=62 velocity=0 time=0.005263149999999999
EXTRACT: note_on channel=9 note=42 velocity=0 time=0.04736835
EXTRACT: note_on channel=9 note=40 velocity=0 time=0
EXTRACT: note_on channel=9 note=69 velocity=0 time=0
EXTRACT: note_on channel=2 note=62 velocity=118 time=0.09999984999999999
EXTRACT: note_on channel=9 note=69 velocity=70 time=0.005263149999999999
EXTRACT: note_on channel=1 note=35 velocity=115 time=0
EXTRACT: note_on channel=4 note=67 velocity=82 time=0
EXTRACT: note_on channel=4 note=62 velocity=86 time=0
EXTRACT: note_on channel=4 note=59 velocity=53 time=0
EXTRACT: note_on channel=4 note=55 velocity=87 time=0
EXTRACT: note_on channel=4 note=47 velocity=80 time=0
EXTRACT: note_on channel=3 note=62 velocity=118 time=0.005263149999999999
EXTRACT: note_on channel=9 note=69 velocity=0 time=0.04736835
EXTRACT: note_on channel=4 note=67 velocity=0 time=0.02631575
EXTRACT: note_on channel=4 note=62 velocity=0 time=0
EXTRACT: note_on channel=4 note=59 velocity=0 time=0
EXTRACT: note_on channel=4 note=55 velocity=0 time=0
EXTRACT: note_on channel=4 note=47 velocity=0 time=0
EXTRACT: note_on channel=1 note=35 velocity=0 time=0.07368409999999999
EXTRACT: note_on channel=9 note=42 velocity=110 time=0.005263149999999999
EXTRACT: note_on channel=1 note=31 velocity=118 time=0
EXTRACT: note_on channel=4 note=67 velocity=49 time=0
EXTRACT: note_on channel=4 note=62 velocity=64 time=0
EXTRACT: note_on channel=4 note=59 velocity=40 time=0
EXTRACT: note_on channel=3 note=62 velocity=0 time=0.005263149999999999
EXTRACT: note_on channel=3 note=61 velocity=124 time=0
EXTRACT: note_on channel=9 note=42 velocity=0 time=0.04736835
EXTRACT: note_on channel=4 note=67 velocity=0 time=0.02631575
EXTRACT: note_on channel=4 note=62 velocity=0 time=0
EXTRACT: note_on channel=4 note=59 velocity=0 time=0
EXTRACT: note_on channel=2 note=59 velocity=124 time=0.07368409999999999
EXTRACT: note_on channel=9 note=69 velocity=62 time=0.005263149999999999
EXTRACT: note_on channel=1 note=31 velocity=0 time=0
EXTRACT: note_on channel=4 note=67 velocity=70 time=0
EXTRACT: note_on channel=4 note=62 velocity=55 time=0
EXTRACT: note_on channel=4 note=59 velocity=63 time=0
EXTRACT: note_on channel=4 note=55 velocity=55 time=0
EXTRACT: note_on channel=4 note=47 velocity=76 time=0
EXTRACT: note_on channel=3 note=61 velocity=0 time=0.005263149999999999
EXTRACT: note_on channel=3 note=59 velocity=122 time=0
EXTRACT: note_on channel=9 note=69 velocity=0 time=0.04736835
EXTRACT: note_on channel=4 note=67 velocity=0 time=0.02631575
EXTRACT: note_on channel=4 note=62 velocity=0 time=0
EXTRACT: note_on channel=4 note=59 velocity=0 time=0
EXTRACT: note_on channel=4 note=55 velocity=0 time=0
EXTRACT: note_on channel=4 note=47 velocity=0 time=0
EXTRACT: note_on channel=9 note=36 velocity=120 time=0.07894725
EXTRACT: note_on channel=9 note=42 velocity=96 time=0
EXTRACT: note_on channel=1 note=28 velocity=126 time=0
EXTRACT: note_on channel=4 note=67 velocity=62 time=0
EXTRACT: note_on channel=4 note=62 velocity=43 time=0
EXTRACT: note_on channel=4 note=59 velocity=55 time=0
EXTRACT: note_on channel=3 note=59 velocity=0 time=0.005263149999999999
EXTRACT: note_on channel=9 note=36 velocity=0 time=0.04736835
EXTRACT: note_on channel=9 note=42 velocity=0 time=0
EXTRACT: note_on channel=4 note=67 velocity=0 time=0.02631575
EXTRACT: note_on channel=4 note=62 velocity=0 time=0
EXTRACT: note_on channel=4 note=59 velocity=0 time=0
EXTRACT: note_on channel=2 note=62 velocity=104 time=0.07368409999999999
EXTRACT: note_on channel=9 note=69 velocity=73 time=0.005263149999999999
EXTRACT: note_on channel=3 note=62 velocity=106 time=0.005263149999999999
EXTRACT: note_on channel=9 note=69 velocity=0 time=0.04736835
EXTRACT: note_on channel=9 note=42 velocity=100 time=0.105263
EXTRACT: note_on channel=9 note=69 velocity=78 time=0
EXTRACT: note_on channel=1 note=28 velocity=0 time=0
EXTRACT: note_on channel=4 note=67 velocity=98 time=0
EXTRACT: note_on channel=4 note=62 velocity=99 time=0
EXTRACT: note_on channel=4 note=59 velocity=108 time=0
EXTRACT: note_on channel=4 note=55 velocity=103 time=0
EXTRACT: note_on channel=4 note=47 velocity=110 time=0
EXTRACT: note_on channel=7 note=67 velocity=99 time=0
EXTRACT: note_on channel=7 note=62 velocity=106 time=0
EXTRACT: note_on channel=7 note=59 velocity=80 time=0
EXTRACT: note_on channel=7 note=55 velocity=104 time=0
EXTRACT: note_on channel=7 note=47 velocity=109 time=0
EXTRACT: note_on channel=3 note=62 velocity=0 time=0.005263149999999999
EXTRACT: note_on channel=9 note=42 velocity=0 time=0.04736835
EXTRACT: note_on channel=9 note=69 velocity=0 time=0
EXTRACT: note_on channel=2 note=67 velocity=120 time=0.09999984999999999
EXTRACT: note_on channel=4 note=67 velocity=0 time=0.005263149999999999
EXTRACT: note_on channel=4 note=62 velocity=0 time=0
EXTRACT: note_on channel=4 note=59 velocity=0 time=0
EXTRACT: note_on channel=4 note=55 velocity=0 time=0
EXTRACT: note_on channel=4 note=47 velocity=0 time=0
EXTRACT: note_on channel=7 note=67 velocity=0 time=0
EXTRACT: note_on channel=7 note=62 velocity=0 time=0
EXTRACT: note_on channel=7 note=59 velocity=0 time=0
EXTRACT: note_on channel=7 note=55 velocity=0 time=0
EXTRACT: note_on channel=7 note=47 velocity=0 time=0
EXTRACT: note_on channel=3 note=62 velocity=105 time=0.005263149999999999
EXTRACT: note_on channel=2 note=67 velocity=117 time=0.14736819999999998
EXTRACT: note_on channel=9 note=40 velocity=127 time=0.005263149999999999
EXTRACT: note_on channel=9 note=42 velocity=104 time=0
EXTRACT: note_on channel=9 note=69 velocity=66 time=0
EXTRACT: note_on channel=5 note=91 velocity=0 time=0
EXTRACT: note_on channel=5 note=79 velocity=0 time=0
EXTRACT: note_on channel=5 note=86 velocity=110 time=0
EXTRACT: note_on channel=5 note=74 velocity=105 time=0
EXTRACT: note_on channel=9 note=40 velocity=0 time=0.0526315
EXTRACT: note_on channel=9 note=42 velocity=0 time=0
EXTRACT: note_on channel=9 note=69 velocity=0 time=0
EXTRACT: note_on channel=4 note=67 velocity=61 time=0.105263
EXTRACT: note_on channel=4 note=62 velocity=58 time=0
EXTRACT: note_on channel=4 note=59 velocity=41 time=0
EXTRACT: note_on channel=5 note=86 velocity=0 time=0
EXTRACT: note_on channel=5 note=74 velocity=0 time=0
EXTRACT: note_on channel=5 note=73 velocity=101 time=0
EXTRACT: note_on channel=5 note=85 velocity=114 time=0
EXTRACT: note_on channel=4 note=67 velocity=0 time=0.07894725
EXTRACT: note_on channel=4 note=62 velocity=0 time=0
EXTRACT: note_on channel=4 note=59 velocity=0 time=0
EXTRACT: note_on channel=2 note=62 velocity=109 time=0.07368409999999999
EXTRACT: note_on channel=9 note=42 velocity=107 time=0.005263149999999999
EXTRACT: note_on channel=1 note=28 velocity=124 time=0
EXTRACT: note_on channel=4 note=67 velocity=86 time=0
EXTRACT: note_on channel=4 note=62 velocity=66 time=0
EXTRACT: note_on channel=4 note=59 velocity=58 time=0
EXTRACT: note_on channel=4 note=55 velocity=79 time=0
EXTRACT: note_on channel=4 note=47 velocity=89 time=0
EXTRACT: note_on channel=5 note=73 velocity=0 time=0
EXTRACT: note_on channel=5 note=85 velocity=0 time=0
EXTRACT: note_on channel=5 note=71 velocity=106 time=0
EXTRACT: note_on channel=5 note=83 velocity=105 time=0
EXTRACT: note_on channel=9 note=42 velocity=0 time=0.0526315
EXTRACT: note_on channel=4 note=67 velocity=0 time=0.02631575
EXTRACT: note_on channel=4 note=62 velocity=0 time=0
EXTRACT: note_on channel=4 note=59 velocity=0 time=0
EXTRACT: note_on channel=4 note=55 velocity=0 time=0
EXTRACT: note_on channel=4 note=47 velocity=0 time=0
EXTRACT: note_on channel=1 note=28 velocity=0 time=0.07894725
EXTRACT: note_on channel=5 note=71 velocity=0 time=0
EXTRACT: note_on channel=5 note=83 velocity=0 time=0
EXTRACT: note_on channel=5 note=85 velocity=104 time=0
EXTRACT: note_on channel=5 note=73 velocity=113 time=0
EXTRACT: note_on channel=2 note=40 velocity=0 time=0.15263134999999997
EXTRACT: note_on channel=2 note=62 velocity=0 time=0
EXTRACT: note_on channel=2 note=67 velocity=0 time=0
EXTRACT: note_on channel=2 note=62 velocity=0 time=0
EXTRACT: note_on channel=2 note=59 velocity=0 time=0
EXTRACT: note_on channel=2 note=62 velocity=0 time=0
EXTRACT: note_on channel=2 note=67 velocity=0 time=0
EXTRACT: note_on channel=2 note=67 velocity=0 time=0
EXTRACT: note_on channel=2 note=62 velocity=0 time=0
EXTRACT: note_on channel=2 note=57 velocity=103 time=0
EXTRACT: note_on channel=2 note=54 velocity=114 time=0
EXTRACT: note_on channel=9 note=42 velocity=103 time=0.005263149999999999
EXTRACT: note_on channel=9 note=36 velocity=120 time=0
EXTRACT: note_on channel=1 note=30 velocity=127 time=0
EXTRACT: note_on channel=4 note=64 velocity=96 time=0
EXTRACT: note_on channel=4 note=61 velocity=106 time=0
EXTRACT: note_on channel=4 note=57 velocity=106 time=0
EXTRACT: note_on channel=4 note=54 velocity=85 time=0
EXTRACT: note_on channel=5 note=85 velocity=0 time=0
EXTRACT: note_on channel=5 note=73 velocity=0 time=0
EXTRACT: note_on channel=5 note=74 velocity=104 time=0
EXTRACT: note_on channel=5 note=86 velocity=105 time=0
EXTRACT: note_on channel=6 note=59 velocity=0 time=0
EXTRACT: note_on channel=6 note=62 velocity=0 time=0
EXTRACT: note_on channel=6 note=67 velocity=0 time=0
EXTRACT: note_on channel=6 note=57 velocity=89 time=0
EXTRACT: note_on channel=6 note=61 velocity=115 time=0
EXTRACT: note_on channel=6 note=66 velocity=125 time=0
EXTRACT: note_on channel=7 note=64 velocity=81 time=0
EXTRACT: note_on channel=7 note=61 velocity=78 time=0
EXTRACT: note_on channel=7 note=57 velocity=108 time=0
EXTRACT: note_on channel=7 note=54 velocity=75 time=0
EXTRACT: note_on channel=8 note=52 velocity=0 time=0
EXTRACT: note_on channel=8 note=64 velocity=0 time=0
EXTRACT: note_on channel=3 note=62 velocity=0 time=0.005263149999999999
EXTRACT: note_on channel=9 note=42 velocity=0 time=0.04736835
EXTRACT: note_on channel=9 note=36 velocity=0 time=0
EXTRACT: note_on channel=1 note=30 velocity=0 time=0.15263134999999997
EXTRACT: note_on channel=1 note=30 velocity=126 time=0.005263149999999999
EXTRACT: note_on channel=2 note=61 velocity=109 time=0.09999984999999999
EXTRACT: note_on channel=9 note=42 velocity=107 time=0.005263149999999999
EXTRACT: note_on channel=4 note=64 velocity=0 time=0
EXTRACT: note_on channel=4 note=61 velocity=0 time=0
EXTRACT: note_on channel=4 note=57 velocity=0 time=0
EXTRACT: note_on channel=4 note=54 velocity=0 time=0
EXTRACT: note_on channel=7 note=64 velocity=0 time=0
EXTRACT: note_on channel=7 note=61 velocity=0 time=0
EXTRACT: note_on channel=7 note=57 velocity=0 time=0
EXTRACT: note_on channel=7 note=54 velocity=0 time=0
EXTRACT: note_on channel=3 note=61 velocity=121 time=0.005263149999999999
EXTRACT: note_on channel=9 note=42 velocity=0 time=0.04736835
EXTRACT: note_on channel=1 note=30 velocity=0 time=0.04736835
EXTRACT: note_on channel=1 note=30 velocity=126 time=0.005263149999999999
EXTRACT: note_on channel=2 note=64 velocity=118 time=0.04736835
EXTRACT: note_on channel=4 note=64 velocity=105 time=0.005263149999999999
EXTRACT: note_on channel=4 note=61 velocity=101 time=0
EXTRACT: note_on channel=4 note=57 velocity=96 time=0
EXTRACT: note_on channel=4 note=54 velocity=99 time=0
EXTRACT: note_on channel=7 note=64 velocity=85 time=0
EXTRACT: note_on channel=7 note=61 velocity=83 time=0
EXTRACT: note_on channel=7 note=57 velocity=78 time=0
EXTRACT: note_on channel=7 note=54 velocity=85 time=0
EXTRACT: note_on channel=1 note=30 velocity=0 time=0.15263134999999997
EXTRACT: note_on channel=9 note=42 velocity=93 time=0.005263149999999999
EXTRACT: note_on channel=9 note=40 velocity=127 time=0
EXTRACT: note_on channel=9 note=69 velocity=62 time=0
EXTRACT: note_on channel=1 note=37 velocity=111 time=0
EXTRACT: note_on channel=4 note=64 velocity=0 time=0
EXTRACT: note_on channel=4 note=61 velocity=0 time=0
EXTRACT: note_on channel=4 note=57 velocity=0 time=0
EXTRACT: note_on channel=4 note=54 velocity=0 time=0
EXTRACT: note_on channel=5 note=74 velocity=0 time=0
EXTRACT: note_on channel=5 note=86 velocity=0 time=0
EXTRACT: note_on channel=5 note=85 velocity=105 time=0
EXTRACT: note_on channel=5 note=73 velocity=101 time=0
EXTRACT: note_on channel=7 note=64 velocity=0 time=0
EXTRACT: note_on channel=7 note=61 velocity=0 time=0
EXTRACT: note_on channel=7 note=57 velocity=0 time=0
EXTRACT: note_on channel=7 note=54 velocity=0 time=0
EXTRACT: note_on channel=3 note=61 velocity=0 time=0.005263149999999999
EXTRACT: note_on channel=9 note=42 velocity=0 time=0.04736835
EXTRACT: note_on channel=9 note=40 velocity=0 time=0
EXTRACT: note_on channel=9 note=69 velocity=0 time=0
EXTRACT: note_on channel=2 note=61 velocity=103 time=0.09999984999999999
EXTRACT: note_on channel=9 note=69 velocity=70 time=0.005263149999999999
EXTRACT: note_on channel=4 note=64 velocity=75 time=0
EXTRACT: note_on channel=4 note=61 velocity=79 time=0
EXTRACT: note_on channel=4 note=57 velocity=62 time=0
EXTRACT: note_on channel=4 note=54 velocity=64 time=0
EXTRACT: note_on channel=3 note=61 velocity=114 time=0.005263149999999999
EXTRACT: note_on channel=9 note=69 velocity=0 time=0.04736835
EXTRACT: note_on channel=1 note=37 velocity=0 time=0.02631575
EXTRACT: note_on channel=4 note=64 velocity=0 time=0
EXTRACT: note_on channel=4 note=61 velocity=0 time=0
EXTRACT: note_on channel=4 note=57 velocity=0 time=0
EXTRACT: note_on channel=4 note=54 velocity=0 time=0
EXTRACT: note_on channel=9 note=42 velocity=105 time=0.07894725
EXTRACT: note_on channel=1 note=42 velocity=110 time=0
EXTRACT: note_on channel=4 note=64 velocity=63 time=0
EXTRACT: note_on channel=4 note=61 velocity=55 time=0
EXTRACT: note_on channel=4 note=57 velocity=63 time=0
EXTRACT: note_on channel=9 note=42 velocity=0 time=0.0526315
EXTRACT: note_on channel=4 note=64 velocity=0 time=0.02631575
EXTRACT: note_on channel=4 note=61 velocity=0 time=0
EXTRACT: note_on channel=4 note=57 velocity=0 time=0
EXTRACT: note_on channel=2 note=57 velocity=108 time=0.07368409999999999
EXTRACT: note_on channel=9 note=69 velocity=62 time=0.005263149999999999
EXTRACT: note_on channel=4 note=64 velocity=56 time=0
EXTRACT: note_on channel=4 note=61 velocity=67 time=0
EXTRACT: note_on channel=4 note=57 velocity=65 time=0
EXTRACT: note_on channel=4 note=54 velocity=66 time=0
EXTRACT: note_on channel=3 note=61 velocity=0 time=0.005263149999999999
EXTRACT: note_on channel=9 note=69 velocity=0 time=0.04736835
EXTRACT: note_on channel=1 note=42 velocity=0 time=0.02631575
EXTRACT: note_on channel=4 note=64 velocity=0 time=0
EXTRACT: note_on channel=4 note=61 velocity=0 time=0
EXTRACT: note_on channel=4 note=57 velocity=0 time=0
EXTRACT: note_on channel=4 note=54 velocity=0 time=0
EXTRACT: note_on channel=2 note=61 velocity=110 time=0.07368409999999999
EXTRACT: note_on channel=9 note=36 velocity=120 time=0.005263149999999999
EXTRACT: note_on channel=9 note=42 velocity=94 time=0
EXTRACT: note_on channel=1 note=37 velocity=114 time=0
EXTRACT: note_on channel=4 note=64 velocity=54 time=0
EXTRACT: note_on channel=4 note=61 velocity=58 time=0
EXTRACT: note_on channel=4 note=57 velocity=47 time=0
EXTRACT: note_on channel=5 note=85 velocity=0 time=0
EXTRACT: note_on channel=5 note=73 velocity=0 time=0
EXTRACT: note_on channel=5 note=71 velocity=110 time=0
EXTRACT: note_on channel=5 note=83 velocity=105 time=0
EXTRACT: note_on channel=3 note=61 velocity=110 time=0.005263149999999999
EXTRACT: note_on channel=9 note=36 velocity=0 time=0.04736835
EXTRACT: note_on channel=9 note=42 velocity=0 time=0
EXTRACT: note_on channel=4 note=64 velocity=0 time=0.02631575
EXTRACT: note_on channel=4 note=61 velocity=0 time=0
EXTRACT: note_on channel=4 note=57 velocity=0 time=0
EXTRACT: note_on channel=2 note=64 velocity=113 time=0.07368409999999999
EXTRACT: note_on channel=9 note=69 velocity=73 time=0.005263149999999999
EXTRACT: note_on channel=9 note=69 velocity=0 time=0.0526315
EXTRACT: note_on channel=2 note=66 velocity=115 time=0.09999984999999999
EXTRACT: note_on channel=9 note=36 velocity=120 time=0.005263149999999999
EXTRACT: note_on channel=9 note=42 velocity=91 time=0
EXTRACT: note_on channel=9 note=69 velocity=78 time=0
EXTRACT: note_on channel=4 note=64 velocity=94 time=0
EXTRACT: note_on channel=4 note=61 velocity=110 time=0
EXTRACT: note_on channel=4 note=57 velocity=117 time=0
EXTRACT: note_on channel=4 note=54 velocity=116 time=0
EXTRACT: note_on channel=7 note=64 velocity=83 time=0
EXTRACT: note_on channel=7 note=61 velocity=83 time=0
EXTRACT: note_on channel=7 note=57 velocity=79 time=0
EXTRACT: note_on channel=7 note=54 velocity=82 time=0
EXTRACT: note_on channel=9 note=36 velocity=0 time=0.0526315
EXTRACT: note_on channel=9 note=42 velocity=0 time=0
EXTRACT: note_on channel=9 note=69 velocity=0 time=0
EXTRACT: note_on channel=1 note=37 velocity=0 time=0.04736835
EXTRACT: note_on channel=1 note=42 velocity=122 time=0.005263149999999999
EXTRACT: note_on channel=2 note=69 velocity=126 time=0.04736835
EXTRACT: note_on channel=4 note=64 velocity=0 time=0.005263149999999999
EXTRACT: note_on channel=4 note=61 velocity=0 time=0
EXTRACT: note_on channel=4 note=57 velocity=0 time=0
EXTRACT: note_on channel=4 note=54 velocity=0 time=0
EXTRACT: note_on channel=7 note=64 velocity=0 time=0
EXTRACT: note_on channel=7 note=61 velocity=0 time=0
EXTRACT: note_on channel=7 note=57 velocity=0 time=0
EXTRACT: note_on channel=7 note=54 velocity=0 time=0
EXTRACT: note_on channel=9 note=40 velocity=127 time=0.1578945
EXTRACT: note_on channel=9 note=42 velocity=92 time=0
EXTRACT: note_on channel=9 note=69 velocity=66 time=0
EXTRACT: note_on channel=5 note=71 velocity=0 time=0
EXTRACT: note_on channel=5 note=83 velocity=0 time=0
EXTRACT: note_on channel=5 note=81 velocity=109 time=0
EXTRACT: note_on channel=5 note=69 velocity=116 time=0
EXTRACT: note_on channel=8 note=50 velocity=94 time=0
EXTRACT: note_on channel=8 note=62 velocity=119 time=0
EXTRACT: note_on channel=9 note=40 velocity=0 time=0.0526315
EXTRACT: note_on channel=9 note=42 velocity=0 time=0
EXTRACT: note_on channel=9 note=69 velocity=0 time=0
EXTRACT: note_on channel=4 note=64 velocity=45 time=0.105263
EXTRACT: note_on channel=4 note=61 velocity=59 time=0
EXTRACT: note_on channel=4 note=57 velocity=57 time=0
EXTRACT: note_on channel=8 note=50 velocity=0 time=0
EXTRACT: note_on channel=8 note=62 velocity=0 time=0
EXTRACT: note_on channel=1 note=42 velocity=0 time=0.04736835
EXTRACT: note_on channel=1 note=49 velocity=123 time=0.005263149999999999
EXTRACT: note_on channel=4 note=64 velocity=0 time=0.02631575
EXTRACT: note_on channel=4 note=61 velocity=0 time=0
EXTRACT: note_on channel=4 note=57 velocity=0 time=0
EXTRACT: note_on channel=9 note=36 velocity=90 time=0.07894725
EXTRACT: note_on channel=9 note=42 velocity=100 time=0
EXTRACT: note_on channel=4 note=64 velocity=66 time=0
EXTRACT: note_on channel=4 note=61 velocity=59 time=0
EXTRACT: note_on channel=4 note=57 velocity=54 time=0
EXTRACT: note_on channel=4 note=54 velocity=74 time=0
EXTRACT: note_on channel=8 note=54 velocity=101 time=0
EXTRACT: note_on channel=8 note=66 velocity=116 time=0
EXTRACT: note_on channel=3 note=61 velocity=116 time=0.005263149999999999
EXTRACT: note_on channel=9 note=36 velocity=0 time=0.04736835
EXTRACT: note_on channel=9 note=42 velocity=0 time=0
EXTRACT: note_on channel=4 note=64 velocity=0 time=0.02631575
EXTRACT: note_on channel=4 note=61 velocity=0 time=0
EXTRACT: note_on channel=4 note=57 velocity=0 time=0
EXTRACT: note_on channel=4 note=54 velocity=0 time=0
EXTRACT: note_on channel=9 note=40 velocity=127 time=0.07894725
EXTRACT: note_on channel=9 note=40 velocity=0 time=0.0526315
EXTRACT: note_on channel=1 note=49 velocity=0 time=0.09999984999999999
EXTRACT: note_on channel=2 note=57 velocity=0 time=0
EXTRACT: note_on channel=2 note=54 velocity=0 time=0
EXTRACT: note_on channel=2 note=61 velocity=0 time=0
EXTRACT: note_on channel=2 note=64 velocity=0 time=0
EXTRACT: note_on channel=2 note=61 velocity=0 time=0
EXTRACT: note_on channel=2 note=57 velocity=0 time=0
EXTRACT: note_on channel=2 note=61 velocity=0 time=0
EXTRACT: note_on channel=2 note=64 velocity=0 time=0
EXTRACT: note_on channel=2 note=66 velocity=0 time=0
EXTRACT: note_on channel=2 note=69 velocity=0 time=0
EXTRACT: note_on channel=2 note=47 velocity=112 time=0
EXTRACT: note_on channel=9 note=57 velocity=90 time=0.005263149999999999
EXTRACT: note_on channel=9 note=36 velocity=120 time=0
EXTRACT: note_on channel=1 note=35 velocity=111 time=0
EXTRACT: note_on channel=4 note=66 velocity=93 time=0
EXTRACT: note_on channel=4 note=62 velocity=108 time=0
EXTRACT: note_on channel=4 note=59 velocity=105 time=0
EXTRACT: note_on channel=4 note=54 velocity=106 time=0
EXTRACT: note_on channel=4 note=47 velocity=95 time=0
EXTRACT: note_on channel=5 note=81 velocity=0 time=0
EXTRACT: note_on channel=5 note=69 velocity=0 time=0
EXTRACT: note_on channel=5 note=90 velocity=116 time=0
EXTRACT: note_on channel=5 note=78 velocity=113 time=0
EXTRACT: note_on channel=6 note=57 velocity=0 time=0
EXTRACT: note_on channel=6 note=61 velocity=0 time=0
EXTRACT: note_on channel=6 note=66 velocity=0 time=0
EXTRACT: control_change channel=6 control=11 value=40 time=0
EXTRACT: note_on channel=6 note=59 velocity=111 time=0
EXTRACT: note_on channel=6 note=62 velocity=113 time=0
EXTRACT: note_on channel=6 note=66 velocity=121 time=0
EXTRACT: note_on channel=7 note=66 velocity=86 time=0
EXTRACT: note_on channel=7 note=62 velocity=90 time=0
EXTRACT: note_on channel=7 note=59 velocity=82 time=0
EXTRACT: note_on channel=7 note=54 velocity=78 time=0
EXTRACT: note_on channel=7 note=47 velocity=107 time=0
EXTRACT: note_on channel=3 note=61 velocity=0 time=0.005263149999999999
EXTRACT: note_on channel=3 note=61 velocity=0 time=0
EXTRACT: control_change channel=6 control=11 value=41 time=0.02631575
EXTRACT: note_on channel=9 note=57 velocity=0 time=0.021052599999999998
EXTRACT: note_on channel=9 note=36 velocity=0 time=0
EXTRACT: control_change channel=6 control=11 value=42 time=0.010526299999999999
EXTRACT: control_change channel=6 control=11 value=43 time=0.03157889999999999
EXTRACT: control_change channel=6 control=11 value=44 time=0.03157889999999999
EXTRACT: note_on channel=1 note=35 velocity=0 time=0.02631575
EXTRACT: note_on channel=1 note=35 velocity=115 time=0.005263149999999999
EXTRACT: control_change channel=6 control=11 value=45 time=0
EXTRACT: control_change channel=6 control=11 value=46 time=0.03157889999999999
EXTRACT: control_change channel=6 control=11 value=47 time=0.03157889999999999
EXTRACT: control_change channel=6 control=11 value=48 time=0.03157889999999999
EXTRACT: control_change channel=6 control=11 value=49 time=0.03157889999999999
EXTRACT: note_on channel=2 note=62 velocity=105 time=0.02631575
EXTRACT: note_on channel=9 note=42 velocity=100 time=0.005263149999999999
EXTRACT: note_on channel=1 note=35 velocity=0 time=0
EXTRACT: note_on channel=4 note=66 velocity=0 time=0
EXTRACT: note_on channel=4 note=62 velocity=0 time=0
EXTRACT: note_on channel=4 note=59 velocity=0 time=0
EXTRACT: note_on channel=4 note=54 velocity=0 time=0
EXTRACT: note_on channel=4 note=47 velocity=0 time=0
EXTRACT: control_change channel=6 control=11 value=50 time=0
EXTRACT: note_on channel=7 note=66 velocity=0 time=0
EXTRACT: note_on channel=7 note=62 velocity=0 time=0
EXTRACT: note_on channel=7 note=59 velocity=0 time=0
EXTRACT: note_on channel=7 note=54 velocity=0 time=0
EXTRACT: note_on channel=7 note=47 velocity=0 time=0
EXTRACT: note_on channel=8 note=54 velocity=0 time=0
EXTRACT: note_on channel=8 note=66 velocity=0 time=0
EXTRACT: note_on channel=8 note=57 velocity=97 time=0
EXTRACT: note_on channel=8 note=69 velocity=125 time=0
EXTRACT: note_on channel=3 note=62 velocity=124 time=0.005263149999999999
EXTRACT: control_change channel=6 control=11 value=51 time=0.02631575
EXTRACT: note_on channel=9 note=42 velocity=0 time=0.021052599999999998
EXTRACT: control_change channel=6 control=11 value=52 time=0.010526299999999999
EXTRACT: control_change channel=6 control=11 value=53 time=0.03157889999999999
EXTRACT: control_change channel=6 control=11 value=54 time=0.03157889999999999
EXTRACT: note_on channel=2 note=66 velocity=111 time=0.02631575
EXTRACT: note_on channel=1 note=42 velocity=127 time=0.005263149999999999
EXTRACT: note_on channel=4 note=66 velocity=86 time=0
EXTRACT: note_on channel=4 note=62 velocity=90 time=0
EXTRACT: note_on channel=4 note=59 velocity=95 time=0
EXTRACT: note_on channel=4 note=54 velocity=113 time=0
EXTRACT: note_on channel=4 note=47 velocity=103 time=0
EXTRACT: control_change channel=6 control=11 value=55 time=0
EXTRACT: note_on channel=7 note=66 velocity=96 time=0
EXTRACT: note_on channel=7 note=62 velocity=89 time=0
EXTRACT: note_on channel=7 note=59 velocity=108 time=0
EXTRACT: note_on channel=7 note=54 velocity=79 time=0
EXTRACT: note_on channel=7 note=47 velocity=76 time=0
EXTRACT: note_on channel=8 note=57 velocity=0 time=0
EXTRACT: note_on channel=8 note=69 velocity=0 time=0
EXTRACT: control_change channel=6 control=11 value=56 time=0.03157889999999999
EXTRACT: control_change channel=6 control=11 value=57 time=0.03157889999999999
EXTRACT: control_change channel=6 control=11 value=58 time=0.03157889999999999
EXTRACT: control_change channel=6 control=11 value=59 time=0.03157889999999999
EXTRACT: note_on channel=9 note=42 velocity=106 time=0.03157889999999999
EXTRACT: note_on channel=9 note=40 velocity=127 time=0
EXTRACT: note_on channel=9 note=69 velocity=62 time=0
EXTRACT: note_on channel=1 note=42 velocity=0 time=0
EXTRACT: note_on channel=4 note=66 velocity=0 time=0
EXTRACT: note_on channel=4 note=62 velocity=0 time=0
EXTRACT: note_on channel=4 note=59 velocity=0 time=0
EXTRACT: note_on channel=4 note=54 velocity=0 time=0
EXTRACT: note_on channel=4 note=47 velocity=0 time=0
EXTRACT: control_change channel=6 control=11 value=60 time=0
EXTRACT: note_on channel=7 note=66 velocity=0 time=0
EXTRACT: note_on channel=7 note=62 velocity=0 time=0
EXTRACT: note_on channel=7 note=59 velocity=0 time=0
EXTRACT: note_on channel=7 note=54 velocity=0 time=0
EXTRACT: note_on channel=7 note=47 velocity=0 time=0
EXTRACT: note_on channel=8 note=55 velocity=88 time=0
EXTRACT: note_on channel=8 note=67 velocity=121 time=0
EXTRACT: note_on channel=3 note=62 velocity=0 time=0.005263149999999999
EXTRACT: control_change channel=6 control=11 value=61 time=0.02631575
EXTRACT: note_on channel=9 note=42 velocity=0 time=0.021052599999999998
EXTRACT: note_on channel=9 note=40 velocity=0 time=0
EXTRACT: note_on channel=9 note=69 velocity=0 time=0
EXTRACT: control_change channel=6 control=11 value=62 time=0.010526299999999999
EXTRACT: control_change channel=6 control=11 value=63 time=0.03157889999999999
EXTRACT: control_change channel=6 control=11 value=64 time=0.03157889999999999
EXTRACT: note_on channel=2 note=62 velocity=126 time=0.02631575
EXTRACT: note_on channel=9 note=69 velocity=70 time=0.005263149999999999
EXTRACT: note_on channel=1 note=42 velocity=111 time=0
EXTRACT: note_on channel=4 note=66 velocity=69 time=0
EXTRACT: note_on channel=4 note=62 velocity=66 time=0
EXTRACT: note_on channel=4 note=59 velocity=85 time=0
EXTRACT: note_on channel=4 note=54 velocity=89 time=0
EXTRACT: note_on channel=4 note=47 velocity=80 time=0
EXTRACT: control_change channel=6 control=11 value=65 time=0
EXTRACT: note_on channel=8 note=55 velocity=0 time=0
EXTRACT: note_on channel=8 note=67 velocity=0 time=0
EXTRACT: note_on channel=3 note=62 velocity=107 time=0.005263149999999999
EXTRACT: control_change channel=6 control=11 value=66 time=0.02631575
EXTRACT: note_on channel=9 note=69 velocity=0 time=0.021052599999999998
EXTRACT: control_change channel=6 control=11 value=67 time=0.010526299999999999
EXTRACT: note_on channel=4 note=66 velocity=0 time=0.015789449999999997
EXTRACT: note_on channel=4 note=62 velocity=0 time=0
EXTRACT: note_on channel=4 note=59 velocity=0 time=0
EXTRACT: note_on channel=4 note=54 velocity=0 time=0
EXTRACT: note_on channel=4 note=47 velocity=0 time=0
EXTRACT: control_change channel=6 control=11 value=68 time=0.015789449999999997
EXTRACT: control_change channel=6 control=11 value=69 time=0.03157889999999999
EXTRACT: note_on channel=1 note=42 velocity=0 time=0.02631575
EXTRACT: note_on channel=9 note=42 velocity=100 time=0.005263149999999999
EXTRACT: note_on channel=1 note=38 velocity=118 time=0
EXTRACT: note_on channel=4 note=66 velocity=61 time=0
EXTRACT: note_on channel=4 note=62 velocity=40 time=0
EXTRACT: note_on channel=4 note=59 velocity=62 time=0
EXTRACT: control_change channel=6 control=11 value=70 time=0
EXTRACT: note_on channel=8 note=54 velocity=98 time=0
EXTRACT: note_on channel=8 note=66 velocity=122 time=0
EXTRACT: note_on channel=3 note=62 velocity=0 time=0.005263149999999999
EXTRACT: note_on channel=3 note=61 velocity=102 time=0
EXTRACT: control_change channel=6 control=11 value=71 time=0.02631575
EXTRACT: note_on channel=9 note=42 velocity=0 time=0.021052599999999998
EXTRACT: control_change channel=6 control=11 value=72 time=0.010526299999999999
EXTRACT: note_on channel=4 note=66 velocity=0 time=0.015789449999999997
EXTRACT: note_on channel=4 note=62 velocity=0 time=0
EXTRACT: note_on channel=4 note=59 velocity=0 time=0
EXTRACT: control_change channel=6 control=11 value=73 time=0.015789449999999997
EXTRACT: control_change channel=6 control=11 value=74 time=0.03157889999999999
EXTRACT: note_on channel=2 note=59 velocity=121 time=0.02631575
EXTRACT: note_on channel=9 note=69 velocity=62 time=0.005263149999999999
EXTRACT: note_on channel=1 note=38 velocity=0 time=0
EXTRACT: note_on channel=4 note=66 velocity=70 time=0
EXTRACT: note_on channel=4 note=62 velocity=68 time=0
EXTRACT: note_on channel=4 note=59 velocity=70 time=0
EXTRACT: note_on channel=4 note=54 velocity=79 time=0
EXTRACT: note_on channel=4 note=47 velocity=80 time=0
EXTRACT: control_change channel=6 control=11 value=75 time=0
EXTRACT: note_on channel=8 note=54 velocity=0 time=0
EXTRACT: note_on channel=8 note=66 velocity=0 time=0
EXTRACT: note_on channel=3 note=61 velocity=0 time=0.005263149999999999
EXTRACT: note_on channel=3 note=59 velocity=117 time=0
EXTRACT: control_change channel=6 control=11 value=76 time=0.02631575
EXTRACT: note_on channel=9 note=69 velocity=0 time=0.021052599999999998
EXTRACT: control_change channel=6 control=11 value=77 time=0.010526299999999999
EXTRACT: note_on channel=4 note=66 velocity=0 time=0.015789449999999997
EXTRACT: note_on channel=4 note=62 velocity=0 time=0
EXTRACT: note_on channel=4 note=59 velocity=0 time=0
EXTRACT: note_on channel=4 note=54 velocity=0 time=0
EXTRACT: note_on channel=4 note=47 velocity=0 time=0
EXTRACT: control_change channel=6 control=11 value=78 time=0.015789449999999997
EXTRACT: control_change channel=6 control=11 value=79 time=0.03157889999999999
EXTRACT: note_on channel=9 note=36 velocity=120 time=0.03157889999999999
EXTRACT: note_on channel=9 note=42 velocity=104 time=0
EXTRACT: note_on channel=1 note=35 velocity=127 time=0
EXTRACT: note_on channel=4 note=66 velocity=66 time=0
EXTRACT: note_on channel=4 note=62 velocity=54 time=0
EXTRACT: note_on channel=4 note=59 velocity=70 time=0
EXTRACT: control_change channel=6 control=11 value=80 time=0
EXTRACT: note_on channel=8 note=52 velocity=93 time=0
EXTRACT: note_on channel=8 note=64 velocity=119 time=0
EXTRACT: note_on channel=3 note=59 velocity=0 time=0.005263149999999999
EXTRACT: note_on channel=9 note=36 velocity=0 time=0.04736835
EXTRACT: note_on channel=9 note=42 velocity=0 time=0
EXTRACT: note_on channel=4 note=66 velocity=0 time=0.02631575
EXTRACT: note_on channel=4 note=62 velocity=0 time=0
EXTRACT: note_on channel=4 note=59 velocity=0 time=0
EXTRACT: note_on channel=2 note=62 velocity=121 time=0.07368409999999999
EXTRACT: note_on channel=9 note=69 velocity=73 time=0.005263149999999999
EXTRACT: note_on channel=3 note=62 velocity=121 time=0.005263149999999999
EXTRACT: note_on channel=9 note=69 velocity=0 time=0.04736835
EXTRACT: note_on channel=9 note=42 velocity=107 time=0.105263
EXTRACT: note_on channel=9 note=69 velocity=78 time=0
EXTRACT: note_on channel=1 note=35 velocity=0 time=0
EXTRACT: note_on channel=4 note=66 velocity=86 time=0
EXTRACT: note_on channel=4 note=62 velocity=90 time=0
EXTRACT: note_on channel=4 note=59 velocity=117 time=0
EXTRACT: note_on channel=4 note=54 velocity=104 time=0
EXTRACT: note_on channel=4 note=47 velocity=101 time=0
EXTRACT: note_on channel=7 note=66 velocity=98 time=0
EXTRACT: note_on channel=7 note=62 velocity=97 time=0
EXTRACT: note_on channel=7 note=59 velocity=78 time=0
EXTRACT: note_on channel=7 note=54 velocity=100 time=0
EXTRACT: note_on channel=7 note=47 velocity=96 time=0
EXTRACT: note_on channel=8 note=52 velocity=0 time=0
EXTRACT: note_on channel=8 note=64 velocity=0 time=0
EXTRACT: note_on channel=8 note=50 velocity=88 time=0
EXTRACT: note_on channel=8 note=62 velocity=122 time=0
EXTRACT: note_on channel=3 note=62 velocity=0 time=0.005263149999999999
EXTRACT: note_on channel=9 note=42 velocity=0 time=0.04736835
EXTRACT: note_on channel=9 note=69 velocity=0 time=0
EXTRACT: note_on channel=2 note=66 velocity=127 time=0.09999984999999999
EXTRACT: note_on channel=4 note=66 velocity=0 time=0.005263149999999999
EXTRACT: note_on channel=4 note=62 velocity=0 time=0
EXTRACT: note_on channel=4 note=59 velocity=0 time=0
EXTRACT: note_on channel=4 note=54 velocity=0 time=0
EXTRACT: note_on channel=4 note=47 velocity=0 time=0
EXTRACT: note_on channel=7 note=66 velocity=0 time=0
EXTRACT: note_on channel=7 note=62 velocity=0 time=0
EXTRACT: note_on channel=7 note=59 velocity=0 time=0
EXTRACT: note_on channel=7 note=54 velocity=0 time=0
EXTRACT: note_on channel=7 note=47 velocity=0 time=0
EXTRACT: note_on channel=8 note=50 velocity=0 time=0
EXTRACT: note_on channel=8 note=62 velocity=0 time=0
EXTRACT: note_on channel=3 note=62 velocity=110 time=0.005263149999999999
EXTRACT: note_on channel=2 note=66 velocity=119 time=0.14736819999999998
EXTRACT: note_on channel=9 note=40 velocity=127 time=0.005263149999999999
EXTRACT: note_on channel=9 note=42 velocity=109 time=0
EXTRACT: note_on channel=9 note=69 velocity=66 time=0
EXTRACT: note_on channel=8 note=52 velocity=90 time=0
EXTRACT: note_on channel=8 note=64 velocity=126 time=0
EXTRACT: note_on channel=9 note=40 velocity=0 time=0.0526315
EXTRACT: note_on channel=9 note=42 velocity=0 time=0
EXTRACT: note_on channel=9 note=69 velocity=0 time=0
EXTRACT: note_on channel=4 note=66 velocity=67 time=0.105263
EXTRACT: note_on channel=4 note=62 velocity=70 time=0
EXTRACT: note_on channel=4 note=59 velocity=45 time=0
EXTRACT: note_on channel=8 note=52 velocity=0 time=0
EXTRACT: note_on channel=8 note=64 velocity=0 time=0
EXTRACT: note_on channel=4 note=66 velocity=0 time=0.07894725
EXTRACT: note_on channel=4 note=62 velocity=0 time=0
EXTRACT: note_on channel=4 note=59 velocity=0 time=0
EXTRACT: note_on channel=2 note=62 velocity=102 time=0.07368409999999999
EXTRACT: note_on channel=9 note=42 velocity=92 time=0.005263149999999999
EXTRACT: note_on channel=1 note=30 velocity=120 time=0
EXTRACT: note_on channel=4 note=66 velocity=84 time=0
EXTRACT: note_on channel=4 note=62 velocity=90 time=0
EXTRACT: note_on channel=4 note=59 velocity=90 time=0
EXTRACT: note_on channel=4 note=54 velocity=62 time=0
EXTRACT: note_on channel=4 note=47 velocity=81 time=0
EXTRACT: note_on channel=8 note=54 velocity=93 time=0
EXTRACT: note_on channel=8 note=66 velocity=115 time=0
EXTRACT: note_on channel=9 note=42 velocity=0 time=0.0526315
EXTRACT: note_on channel=4 note=66 velocity=0 time=0.02631575
EXTRACT: note_on channel=4 note=62 velocity=0 time=0
EXTRACT: note_on channel=4 note=59 velocity=0 time=0
EXTRACT: note_on channel=4 note=54 velocity=0 time=0
EXTRACT: note_on channel=4 note=47 velocity=0 time=0
EXTRACT: note_on channel=1 note=30 velocity=0 time=0.07894725
EXTRACT: note_on channel=2 note=47 velocity=0 time=0.15263134999999997
EXTRACT: note_on channel=2 note=62 velocity=0 time=0
EXTRACT: note_on channel=2 note=66 velocity=0 time=0
EXTRACT: note_on channel=2 note=62 velocity=0 time=0
EXTRACT: note_on channel=2 note=59 velocity=0 time=0
EXTRACT: note_on channel=2 note=62 velocity=0 time=0
EXTRACT: note_on channel=2 note=66 velocity=0 time=0
EXTRACT: note_on channel=2 note=66 velocity=0 time=0
EXTRACT: note_on channel=2 note=47 velocity=104 time=0
EXTRACT: note_on channel=9 note=42 velocity=106 time=0.005263149999999999
EXTRACT: note_on channel=9 note=36 velocity=120 time=0
EXTRACT: note_on channel=1 note=35 velocity=110 time=0
EXTRACT: note_on channel=4 note=66 velocity=106 time=0
EXTRACT: note_on channel=4 note=62 velocity=97 time=0
EXTRACT: note_on channel=4 note=59 velocity=104 time=0
EXTRACT: note_on channel=4 note=54 velocity=102 time=0
EXTRACT: note_on channel=4 note=47 velocity=98 time=0
EXTRACT: note_on channel=7 note=66 velocity=99 time=0
EXTRACT: note_on channel=7 note=62 velocity=79 time=0
EXTRACT: note_on channel=7 note=59 velocity=98 time=0
EXTRACT: note_on channel=7 note=54 velocity=100 time=0
EXTRACT: note_on channel=7 note=47 velocity=100 time=0
EXTRACT: note_on channel=3 note=62 velocity=0 time=0.005263149999999999
EXTRACT: note_on channel=9 note=42 velocity=0 time=0.04736835
EXTRACT: note_on channel=9 note=36 velocity=0 time=0
EXTRACT: note_on channel=1 note=35 velocity=0 time=0.18421025
EXTRACT: note_on channel=2 note=62 velocity=0 time=0.07368409999999999
EXTRACT: note_on channel=2 note=62 velocity=113 time=0
EXTRACT: note_on channel=9 note=42 velocity=106 time=0.005263149999999999
EXTRACT: note_on channel=4 note=66 velocity=0 time=0
EXTRACT: note_on channel=4 note=62 velocity=0 time=0
EXTRACT: note_on channel=4 note=59 velocity=0 time=0
EXTRACT: note_on channel=4 note=54 velocity=0 time=0
EXTRACT: note_on channel=4 note=47 velocity=0 time=0
EXTRACT: note_on channel=7 note=66 velocity=0 time=0
EXTRACT: note_on channel=7 note=62 velocity=0 time=0
EXTRACT: note_on channel=7 note=59 velocity=0 time=0
EXTRACT: note_on channel=7 note=54 velocity=0 time=0
EXTRACT: note_on channel=7 note=47 velocity=0 time=0
EXTRACT: note_on channel=8 note=54 velocity=0 time=0
EXTRACT: note_on channel=8 note=66 velocity=0 time=0
EXTRACT: note_on channel=8 note=57 velocity=98 time=0
EXTRACT: note_on channel=8 note=69 velocity=115 time=0
EXTRACT: note_on channel=3 note=62 velocity=116 time=0.005263149999999999
EXTRACT: note_on channel=9 note=42 velocity=0 time=0.04736835
EXTRACT: note_on channel=2 note=66 velocity=107 time=0.09999984999999999
EXTRACT: note_on channel=1 note=35 velocity=127 time=0.005263149999999999
EXTRACT: note_on channel=4 note=66 velocity=106 time=0
EXTRACT: note_on channel=4 note=62 velocity=88 time=0
EXTRACT: note_on channel=4 note=59 velocity=107 time=0
EXTRACT: note_on channel=4 note=54 velocity=109 time=0
EXTRACT: note_on channel=4 note=47 velocity=106 time=0
EXTRACT: note_on channel=7 note=66 velocity=92 time=0
EXTRACT: note_on channel=7 note=62 velocity=88 time=0
EXTRACT: note_on channel=7 note=59 velocity=83 time=0
EXTRACT: note_on channel=7 note=54 velocity=94 time=0
EXTRACT: note_on channel=7 note=47 velocity=87 time=0
EXTRACT: note_on channel=8 note=57 velocity=0 time=0
EXTRACT: note_on channel=8 note=69 velocity=0 time=0
EXTRACT: note_on channel=9 note=42 velocity=96 time=0.1578945
EXTRACT: note_on channel=9 note=40 velocity=127 time=0
EXTRACT: note_on channel=9 note=69 velocity=62 time=0
EXTRACT: note_on channel=1 note=35 velocity=0 time=0
EXTRACT: note_on channel=4 note=66 velocity=0 time=0
EXTRACT: note_on channel=4 note=62 velocity=0 time=0
EXTRACT: note_on channel=4 note=59 velocity=0 time=0
EXTRACT: note_on channel=4 note=54 velocity=0 time=0
EXTRACT: note_on channel=4 note=47 velocity=0 time=0
EXTRACT: note_on channel=7 note=66 velocity=0 time=0
EXTRACT: note_on channel=7 note=62 velocity=0 time=0
EXTRACT: note_on channel=7 note=59 velocity=0 time=0
EXTRACT: note_on channel=7 note=54 velocity=0 time=0
EXTRACT: note_on channel=7 note=47 velocity=0 time=0
EXTRACT: note_on channel=8 note=55 velocity=90 time=0
EXTRACT: note_on channel=8 note=67 velocity=121 time=0
EXTRACT: note_on channel=3 note=62 velocity=0 time=0.005263149999999999
EXTRACT: note_on channel=9 note=42 velocity=0 time=0.04736835
EXTRACT: note_on channel=9 note=40 velocity=0 time=0
EXTRACT: note_on channel=9 note=69 velocity=0 time=0
EXTRACT: note_on channel=2 note=62 velocity=118 time=0.09999984999999999
EXTRACT: note_on channel=9 note=69 velocity=70 time=0.005263149999999999
EXTRACT: note_on channel=4 note=66 velocity=67 time=0
EXTRACT: note_on channel=4 note=62 velocity=71 time=0
EXTRACT: note_on channel=4 note=59 velocity=53 time=0
EXTRACT: note_on channel=4 note=54 velocity=65 time=0
EXTRACT: note_on channel=4 note=47 velocity=75 time=0
EXTRACT: note_on channel=8 note=55 velocity=0 time=0
EXTRACT: note_on channel=8 note=67 velocity=0 time=0
EXTRACT: note_on channel=3 note=62 velocity=111 time=0.005263149999999999
EXTRACT: note_on channel=9 note=69 velocity=0 time=0.04736835
EXTRACT: note_on channel=4 note=66 velocity=0 time=0.02631575
EXTRACT: note_on channel=4 note=62 velocity=0 time=0
EXTRACT: note_on channel=4 note=59 velocity=0 time=0
EXTRACT: note_on channel=4 note=54 velocity=0 time=0
EXTRACT: note_on channel=4 note=47 velocity=0 time=0
EXTRACT: note_on channel=9 note=42 velocity=98 time=0.07894725
EXTRACT: note_on channel=4 note=66 velocity=44 time=0
EXTRACT: note_on channel=4 note=62 velocity=70 time=0
EXTRACT: note_on channel=4 note=59 velocity=60 time=0
EXTRACT: note_on channel=8 note=54 velocity=96 time=0
EXTRACT: note_on channel=8 note=66 velocity=127 time=0
EXTRACT: note_on channel=3 note=62 velocity=0 time=0.005263149999999999
EXTRACT: note_on channel=3 note=61 velocity=121 time=0
EXTRACT: note_on channel=9 note=42 velocity=0 time=0.04736835
EXTRACT: note_on channel=4 note=66 velocity=0 time=0.02631575
EXTRACT: note_on channel=4 note=62 velocity=0 time=0
EXTRACT: note_on channel=4 note=59 velocity=0 time=0
EXTRACT: note_on channel=2 note=59 velocity=127 time=0.07368409999999999
EXTRACT: note_on channel=9 note=69 velocity=62 time=0.005263149999999999
EXTRACT: note_on channel=4 note=66 velocity=87 time=0
EXTRACT: note_on channel=4 note=62 velocity=68 time=0
EXTRACT: note_on channel=4 note=59 velocity=67 time=0
EXTRACT: note_on channel=4 note=54 velocity=73 time=0
EXTRACT: note_on channel=4 note=47 velocity=72 time=0
EXTRACT: note_on channel=8 note=54 velocity=0 time=0
EXTRACT: note_on channel=8 note=66 velocity=0 time=0
EXTRACT: note_on channel=3 note=61 velocity=0 time=0.005263149999999999
EXTRACT: note_on channel=3 note=59 velocity=119 time=0
EXTRACT: note_on channel=9 note=69 velocity=0 time=0.04736835
EXTRACT: note_on channel=4 note=66 velocity=0 time=0.02631575
EXTRACT: note_on channel=4 note=62 velocity=0 time=0
EXTRACT: note_on channel=4 note=59 velocity=0 time=0
EXTRACT: note_on channel=4 note=54 velocity=0 time=0
EXTRACT: note_on channel=4 note=47 velocity=0 time=0
EXTRACT: note_on channel=9 note=36 velocity=120 time=0.07894725
EXTRACT: note_on channel=9 note=42 velocity=106 time=0
EXTRACT: note_on channel=4 note=66 velocity=70 time=0
EXTRACT: note_on channel=4 note=62 velocity=60 time=0
EXTRACT: note_on channel=4 note=59 velocity=49 time=0
EXTRACT: note_on channel=8 note=52 velocity=88 time=0
EXTRACT: note_on channel=8 note=64 velocity=125 time=0
EXTRACT: note_on channel=3 note=59 velocity=0 time=0.005263149999999999
EXTRACT: note_on channel=9 note=36 velocity=0 time=0.04736835
EXTRACT: note_on channel=9 note=42 velocity=0 time=0
EXTRACT: note_on channel=4 note=66 velocity=0 time=0.02631575
EXTRACT: note_on channel=4 note=62 velocity=0 time=0
EXTRACT: note_on channel=4 note=59 velocity=0 time=0
EXTRACT: note_on channel=2 note=62 velocity=118 time=0.07368409999999999
EXTRACT: note_on channel=9 note=69 velocity=73 time=0.005263149999999999
EXTRACT: note_on channel=3 note=62 velocity=109 time=0.005263149999999999
EXTRACT: note_on channel=9 note=69 velocity=0 time=0.04736835
EXTRACT: note_on channel=9 note=42 velocity=101 time=0.105263
EXTRACT: note_on channel=9 note=69 velocity=78 time=0
EXTRACT: note_on channel=1 note=35 velocity=113 time=0
EXTRACT: note_on channel=4 note=66 velocity=107 time=0
EXTRACT: note_on channel=4 note=62 velocity=117 time=0
EXTRACT: note_on channel=4 note=59 velocity=94 time=0
EXTRACT: note_on channel=4 note=54 velocity=101 time=0
EXTRACT: note_on channel=4 note=47 velocity=114 time=0
EXTRACT: note_on channel=7 note=66 velocity=88 time=0
EXTRACT: note_on channel=7 note=62 velocity=83 time=0
EXTRACT: note_on channel=7 note=59 velocity=112 time=0
EXTRACT: note_on channel=7 note=54 velocity=83 time=0
EXTRACT: note_on channel=7 note=47 velocity=111 time=0
EXTRACT: note_on channel=8 note=52 velocity=0 time=0
EXTRACT: note_on channel=8 note=64 velocity=0 time=0
EXTRACT: note_on channel=8 note=50 velocity=86 time=0
EXTRACT: note_on channel=8 note=62 velocity=123 time=0
EXTRACT: note_on channel=3 note=62 velocity=0 time=0.005263149999999999
EXTRACT: note_on channel=9 note=42 velocity=0 time=0.04736835
EXTRACT: note_on channel=9 note=69 velocity=0 time=0
EXTRACT: note_on channel=2 note=66 velocity=112 time=0.09999984999999999
EXTRACT: note_on channel=1 note=35 velocity=0 time=0.005263149999999999
EXTRACT: note_on channel=4 note=66 velocity=0 time=0
EXTRACT: note_on channel=4 note=62 velocity=0 time=0
EXTRACT: note_on channel=4 note=59 velocity=0 time=0
EXTRACT: note_on channel=4 note=54 velocity=0 time=0
EXTRACT: note_on channel=4 note=47 velocity=0 time=0
EXTRACT: note_on channel=7 note=66 velocity=0 time=0
EXTRACT: note_on channel=7 note=62 velocity=0 time=0
EXTRACT: note_on channel=7 note=59 velocity=0 time=0
EXTRACT: note_on channel=7 note=54 velocity=0 time=0
EXTRACT: note_on channel=7 note=47 velocity=0 time=0
EXTRACT: note_on channel=8 note=50 velocity=0 time=0
EXTRACT: note_on channel=8 note=62 velocity=0 time=0
EXTRACT: note_on channel=3 note=62 velocity=103 time=0.005263149999999999
EXTRACT: note_on channel=2 note=66 velocity=121 time=0.14736819999999998
EXTRACT: note_on channel=9 note=40 velocity=127 time=0.005263149999999999
EXTRACT: note_on channel=9 note=42 velocity=106 time=0
EXTRACT: note_on channel=9 note=69 velocity=66 time=0
EXTRACT: note_on channel=8 note=54 velocity=93 time=0
EXTRACT: note_on channel=8 note=66 velocity=120 time=0
EXTRACT: note_on channel=9 note=40 velocity=0 time=0.0526315
EXTRACT: note_on channel=9 note=42 velocity=0 time=0
EXTRACT: note_on channel=9 note=69 velocity=0 time=0
EXTRACT: note_on channel=4 note=66 velocity=69 time=0.105263
EXTRACT: note_on channel=4 note=62 velocity=45 time=0
EXTRACT: note_on channel=4 note=59 velocity=62 time=0
EXTRACT: note_on channel=8 note=54 velocity=0 time=0
EXTRACT: note_on channel=8 note=66 velocity=0 time=0
EXTRACT: note_on channel=4 note=66 velocity=0 time=0.07894725
EXTRACT: note_on channel=4 note=62 velocity=0 time=0
EXTRACT: note_on channel=4 note=59 velocity=0 time=0
EXTRACT: note_on channel=2 note=62 velocity=118 time=0.07368409999999999
EXTRACT: note_on channel=9 note=36 velocity=90 time=0.005263149999999999
EXTRACT: note_on channel=9 note=42 velocity=104 time=0
EXTRACT: note_on channel=1 note=38 velocity=114 time=0
EXTRACT: note_on channel=4 note=66 velocity=64 time=0
EXTRACT: note_on channel=4 note=62 velocity=89 time=0
EXTRACT: note_on channel=4 note=59 velocity=66 time=0
EXTRACT: note_on channel=4 note=54 velocity=59 time=0
EXTRACT: note_on channel=4 note=47 velocity=77 time=0
EXTRACT: note_on channel=8 note=47 velocity=93 time=0
EXTRACT: note_on channel=8 note=59 velocity=118 time=0
EXTRACT: note_on channel=9 note=36 velocity=0 time=0.0526315
EXTRACT: note_on channel=9 note=42 velocity=0 time=0
EXTRACT: note_on channel=4 note=66 velocity=0 time=0.02631575
EXTRACT: note_on channel=4 note=62 velocity=0 time=0
EXTRACT: note_on channel=4 note=59 velocity=0 time=0
EXTRACT: note_on channel=4 note=54 velocity=0 time=0
EXTRACT: note_on channel=4 note=47 velocity=0 time=0
EXTRACT: note_on channel=9 note=40 velocity=127 time=0.07894725
EXTRACT: note_on channel=1 note=38 velocity=0 time=0
EXTRACT: note_on channel=9 note=40 velocity=0 time=0.0526315
EXTRACT: note_on channel=2 note=47 velocity=0 time=0.09999984999999999
EXTRACT: note_on channel=2 note=62 velocity=0 time=0
EXTRACT: note_on channel=2 note=66 velocity=0 time=0
EXTRACT: note_on channel=2 note=62 velocity=0 time=0
EXTRACT: note_on channel=2 note=59 velocity=0 time=0
EXTRACT: note_on channel=2 note=62 velocity=0 time=0
EXTRACT: note_on channel=2 note=66 velocity=0 time=0
EXTRACT: note_on channel=2 note=66 velocity=0 time=0
EXTRACT: note_on channel=2 note=62 velocity=0 time=0
EXTRACT: note_on channel=2 note=40 velocity=108 time=0
EXTRACT: note_on channel=9 note=42 velocity=101 time=0.005263149999999999
EXTRACT: note_on channel=9 note=36 velocity=120 time=0
EXTRACT: note_on channel=1 note=40 velocity=111 time=0
EXTRACT: note_on channel=4 note=67 velocity=107 time=0
EXTRACT: note_on channel=4 note=62 velocity=110 time=0
EXTRACT: note_on channel=4 note=59 velocity=96 time=0
EXTRACT: note_on channel=4 note=55 velocity=92 time=0
EXTRACT: note_on channel=4 note=47 velocity=109 time=0
EXTRACT: note_on channel=5 note=90 velocity=0 time=0
EXTRACT: note_on channel=5 note=78 velocity=0 time=0
EXTRACT: note_on channel=5 note=91 velocity=98 time=0
EXTRACT: note_on channel=5 note=79 velocity=104 time=0
EXTRACT: note_on channel=6 note=59 velocity=0 time=0
EXTRACT: note_on channel=6 note=62 velocity=0 time=0
EXTRACT: note_on channel=6 note=66 velocity=0 time=0
EXTRACT: note_on channel=6 note=59 velocity=122 time=0
EXTRACT: note_on channel=6 note=62 velocity=111 time=0
EXTRACT: note_on channel=6 note=67 velocity=113 time=0
EXTRACT: note_on channel=7 note=67 velocity=80 time=0
EXTRACT: note_on channel=7 note=62 velocity=79 time=0
EXTRACT: note_on channel=7 note=59 velocity=89 time=0
EXTRACT: note_on channel=7 note=55 velocity=101 time=0
EXTRACT: note_on channel=7 note=47 velocity=90 time=0
EXTRACT: note_on channel=3 note=62 velocity=0 time=0.005263149999999999
EXTRACT: note_on channel=9 note=42 velocity=0 time=0.04736835
EXTRACT: note_on channel=9 note=36 velocity=0 time=0
EXTRACT: note_on channel=1 note=40 velocity=0 time=0.07894725
EXTRACT: note_on channel=2 note=62 velocity=116 time=0.17894709999999997
EXTRACT: note_on channel=9 note=42 velocity=102 time=0.005263149999999999
EXTRACT: note_on channel=1 note=40 velocity=115 time=0
EXTRACT: note_on channel=4 note=67 velocity=0 time=0
EXTRACT: note_on channel=4 note=62 velocity=0 time=0
EXTRACT: note_on channel=4 note=59 velocity=0 time=0
EXTRACT: note_on channel=4 note=55 velocity=0 time=0
EXTRACT: note_on channel=4 note=47 velocity=0 time=0
EXTRACT: note_on channel=7 note=67 velocity=0 time=0
EXTRACT: note_on channel=7 note=62 velocity=0 time=0
EXTRACT: note_on channel=7 note=59 velocity=0 time=0
EXTRACT: note_on channel=7 note=55 velocity=0 time=0
EXTRACT: note_on channel=7 note=47 velocity=0 time=0
EXTRACT: note_on channel=8 note=47 velocity=0 time=0
EXTRACT: note_on channel=8 note=59 velocity=0 time=0
EXTRACT: note_on channel=8 note=52 velocity=91 time=0
EXTRACT: note_on channel=8 note=64 velocity=116 time=0
EXTRACT: note_on channel=3 note=62 velocity=119 time=0.005263149999999999
EXTRACT: note_on channel=9 note=42 velocity=0 time=0.04736835
EXTRACT: note_on channel=1 note=40 velocity=0 time=0.09999984999999999
EXTRACT: note_on channel=2 note=67 velocity=122 time=0
EXTRACT: note_on channel=1 note=35 velocity=121 time=0.005263149999999999
EXTRACT: note_on channel=4 note=67 velocity=95 time=0
EXTRACT: note_on channel=4 note=62 velocity=99 time=0
EXTRACT: note_on channel=4 note=59 velocity=99 time=0
EXTRACT: note_on channel=4 note=55 velocity=103 time=0
EXTRACT: note_on channel=4 note=47 velocity=96 time=0
EXTRACT: note_on channel=7 note=67 velocity=79 time=0
EXTRACT: note_on channel=7 note=62 velocity=86 time=0
EXTRACT: note_on channel=7 note=59 velocity=80 time=0
EXTRACT: note_on channel=7 note=55 velocity=97 time=0
EXTRACT: note_on channel=7 note=47 velocity=86 time=0
EXTRACT: note_on channel=8 note=52 velocity=0 time=0
EXTRACT: note_on channel=8 note=64 velocity=0 time=0
EXTRACT: note_on channel=9 note=42 velocity=103 time=0.1578945
EXTRACT: note_on channel=9 note=40 velocity=127 time=0
EXTRACT: note_on channel=9 note=69 velocity=62 time=0
EXTRACT: note_on channel=1 note=35 velocity=0 time=0
EXTRACT: note_on channel=4 note=67 velocity=0 time=0
EXTRACT: note_on channel=4 note=62 velocity=0 time=0
EXTRACT: note_on channel=4 note=59 velocity=0 time=0
EXTRACT: note_on channel=4 note=55 velocity=0 time=0
EXTRACT: note_on channel=4 note=47 velocity=0 time=0
EXTRACT: note_on channel=7 note=67 velocity=0 time=0
EXTRACT: note_on channel=7 note=62 velocity=0 time=0
EXTRACT: note_on channel=7 note=59 velocity=0 time=0
EXTRACT: note_on channel=7 note=55 velocity=0 time=0
EXTRACT: note_on channel=7 note=47 velocity=0 time=0
EXTRACT: note_on channel=8 note=52 velocity=101 time=0
EXTRACT: note_on channel=8 note=64 velocity=119 time=0
EXTRACT: note_on channel=3 note=62 velocity=0 time=0.005263149999999999
EXTRACT: note_on channel=9 note=42 velocity=0 time=0.04736835
EXTRACT: note_on channel=9 note=40 velocity=0 time=0
EXTRACT: note_on channel=9 note=69 velocity=0 time=0
EXTRACT: note_on channel=2 note=62 velocity=119 time=0.09999984999999999
EXTRACT: note_on channel=9 note=69 velocity=70 time=0.005263149999999999
EXTRACT: note_on channel=1 note=35 velocity=121 time=0
EXTRACT: note_on channel=4 note=67 velocity=64 time=0
EXTRACT: note_on channel=4 note=62 velocity=89 time=0
EXTRACT: note_on channel=4 note=59 velocity=77 time=0
EXTRACT: note_on channel=4 note=55 velocity=81 time=0
EXTRACT: note_on channel=4 note=47 velocity=79 time=0
EXTRACT: note_on channel=3 note=62 velocity=104 time=0.005263149999999999
EXTRACT: note_on channel=9 note=69 velocity=0 time=0.04736835
EXTRACT: note_on channel=4 note=67 velocity=0 time=0.02631575
EXTRACT: note_on channel=4 note=62 velocity=0 time=0
EXTRACT: note_on channel=4 note=59 velocity=0 time=0
EXTRACT: note_on channel=4 note=55 velocity=0 time=0
EXTRACT: note_on channel=4 note=47 velocity=0 time=0
EXTRACT: note_on channel=1 note=35 velocity=0 time=0.07368409999999999
EXTRACT: note_on channel=9 note=42 velocity=94 time=0.005263149999999999
EXTRACT: note_on channel=1 note=31 velocity=114 time=0
EXTRACT: note_on channel=4 note=67 velocity=63 time=0
EXTRACT: note_on channel=4 note=62 velocity=55 time=0
EXTRACT: note_on channel=4 note=59 velocity=50 time=0
EXTRACT: note_on channel=3 note=62 velocity=0 time=0.005263149999999999
EXTRACT: note_on channel=3 note=61 velocity=120 time=0
EXTRACT: note_on channel=9 note=42 velocity=0 time=0.04736835
EXTRACT: note_on channel=4 note=67 velocity=0 time=0.02631575
EXTRACT: note_on channel=4 note=62 velocity=0 time=0
EXTRACT: note_on channel=4 note=59 velocity=0 time=0
EXTRACT: note_on channel=2 note=59 velocity=126 time=0.07368409999999999
EXTRACT: note_on channel=9 note=69 velocity=62 time=0.005263149999999999
EXTRACT: note_on channel=1 note=31 velocity=0 time=0
EXTRACT: note_on channel=4 note=67 velocity=76 time=0
EXTRACT: note_on channel=4 note=62 velocity=77 time=0
EXTRACT: note_on channel=4 note=59 velocity=77 time=0
EXTRACT: note_on channel=4 note=55 velocity=52 time=0
EXTRACT: note_on channel=4 note=47 velocity=66 time=0
EXTRACT: note_on channel=3 note=61 velocity=0 time=0.005263149999999999
EXTRACT: note_on channel=3 note=59 velocity=106 time=0
EXTRACT: note_on channel=9 note=69 velocity=0 time=0.04736835
EXTRACT: note_on channel=4 note=67 velocity=0 time=0.02631575
EXTRACT: note_on channel=4 note=62 velocity=0 time=0
EXTRACT: note_on channel=4 note=59 velocity=0 time=0
EXTRACT: note_on channel=4 note=55 velocity=0 time=0
EXTRACT: note_on channel=4 note=47 velocity=0 time=0
EXTRACT: note_on channel=9 note=36 velocity=120 time=0.07894725
EXTRACT: note_on channel=9 note=42 velocity=92 time=0
EXTRACT: note_on channel=1 note=28 velocity=110 time=0
EXTRACT: note_on channel=4 note=67 velocity=50 time=0
EXTRACT: note_on channel=4 note=62 velocity=51 time=0
EXTRACT: note_on channel=4 note=59 velocity=39 time=0
EXTRACT: note_on channel=8 note=52 velocity=0 time=0
EXTRACT: note_on channel=8 note=64 velocity=0 time=0
EXTRACT: note_on channel=3 note=59 velocity=0 time=0.005263149999999999
EXTRACT: note_on channel=9 note=36 velocity=0 time=0.04736835
EXTRACT: note_on channel=9 note=42 velocity=0 time=0
EXTRACT: note_on channel=4 note=67 velocity=0 time=0.02631575
EXTRACT: note_on channel=4 note=62 velocity=0 time=0
EXTRACT: note_on channel=4 note=59 velocity=0 time=0
EXTRACT: note_on channel=2 note=62 velocity=102 time=0.07368409999999999
EXTRACT: note_on channel=9 note=69 velocity=73 time=0.005263149999999999
EXTRACT: note_on channel=3 note=62 velocity=107 time=0.005263149999999999
EXTRACT: note_on channel=9 note=69 velocity=0 time=0.04736835
EXTRACT: note_on channel=9 note=42 velocity=95 time=0.105263
EXTRACT: note_on channel=9 note=69 velocity=78 time=0
EXTRACT: note_on channel=1 note=28 velocity=0 time=0
EXTRACT: note_on channel=4 note=67 velocity=102 time=0
EXTRACT: note_on channel=4 note=62 velocity=89 time=0
EXTRACT: note_on channel=4 note=59 velocity=106 time=0
EXTRACT: note_on channel=4 note=55 velocity=89 time=0
EXTRACT: note_on channel=4 note=47 velocity=112 time=0
EXTRACT: note_on channel=7 note=67 velocity=101 time=0
EXTRACT: note_on channel=7 note=62 velocity=111 time=0
EXTRACT: note_on channel=7 note=59 velocity=74 time=0
EXTRACT: note_on channel=7 note=55 velocity=105 time=0
EXTRACT: note_on channel=7 note=47 velocity=86 time=0
EXTRACT: note_on channel=8 note=47 velocity=98 time=0
EXTRACT: note_on channel=8 note=59 velocity=122 time=0
EXTRACT: note_on channel=3 note=62 velocity=0 time=0.005263149999999999
EXTRACT: note_on channel=9 note=42 velocity=0 time=0.04736835
EXTRACT: note_on channel=9 note=69 velocity=0 time=0
EXTRACT: note_on channel=2 note=67 velocity=102 time=0.09999984999999999
EXTRACT: note_on channel=4 note=67 velocity=0 time=0.005263149999999999
EXTRACT: note_on channel=4 note=62 velocity=0 time=0
EXTRACT: note_on channel=4 note=59 velocity=0 time=0
EXTRACT: note_on channel=4 note=55 velocity=0 time=0
EXTRACT: note_on channel=4 note=47 velocity=0 time=0
EXTRACT: note_on channel=7 note=67 velocity=0 time=0
EXTRACT: note_on channel=7 note=62 velocity=0 time=0
EXTRACT: note_on channel=7 note=59 velocity=0 time=0
EXTRACT: note_on channel=7 note=55 velocity=0 time=0
EXTRACT: note_on channel=7 note=47 velocity=0 time=0
EXTRACT: note_on channel=8 note=47 velocity=0 time=0
EXTRACT: note_on channel=8 note=59 velocity=0 time=0
EXTRACT: note_on channel=3 note=62 velocity=125 time=0.005263149999999999
EXTRACT: note_on channel=2 note=67 velocity=115 time=0.14736819999999998
EXTRACT: note_on channel=9 note=40 velocity=127 time=0.005263149999999999
EXTRACT: note_on channel=9 note=42 velocity=92 time=0
EXTRACT: note_on channel=9 note=69 velocity=66 time=0
EXTRACT: note_on channel=5 note=91 velocity=0 time=0
EXTRACT: note_on channel=5 note=79 velocity=0 time=0
EXTRACT: note_on channel=5 note=86 velocity=112 time=0
EXTRACT: note_on channel=5 note=74 velocity=105 time=0
EXTRACT: note_on channel=8 note=47 velocity=93 time=0
EXTRACT: note_on channel=8 note=59 velocity=121 time=0
EXTRACT: note_on channel=9 note=40 velocity=0 time=0.0526315
EXTRACT: note_on channel=9 note=42 velocity=0 time=0
EXTRACT: note_on channel=9 note=69 velocity=0 time=0
EXTRACT: note_on channel=4 note=67 velocity=44 time=0.105263
EXTRACT: note_on channel=4 note=62 velocity=62 time=0
EXTRACT: note_on channel=4 note=59 velocity=67 time=0
EXTRACT: note_on channel=5 note=86 velocity=0 time=0
EXTRACT: note_on channel=5 note=74 velocity=0 time=0
EXTRACT: note_on channel=5 note=73 velocity=105 time=0
EXTRACT: note_on channel=5 note=85 velocity=100 time=0
EXTRACT: note_on channel=8 note=47 velocity=0 time=0
EXTRACT: note_on channel=8 note=59 velocity=0 time=0
EXTRACT: note_on channel=4 note=67 velocity=0 time=0.07894725
EXTRACT: note_on channel=4 note=62 velocity=0 time=0
EXTRACT: note_on channel=4 note=59 velocity=0 time=0
EXTRACT: note_on channel=2 note=62 velocity=115 time=0.07368409999999999
EXTRACT: note_on channel=9 note=42 velocity=94 time=0.005263149999999999
EXTRACT: note_on channel=1 note=28 velocity=111 time=0
EXTRACT: note_on channel=4 note=67 velocity=54 time=0
EXTRACT: note_on channel=4 note=62 velocity=83 time=0
EXTRACT: note_on channel=4 note=59 velocity=71 time=0
EXTRACT: note_on channel=4 note=55 velocity=81 time=0
EXTRACT: note_on channel=4 note=47 velocity=78 time=0
EXTRACT: note_on channel=5 note=73 velocity=0 time=0
EXTRACT: note_on channel=5 note=85 velocity=0 time=0
EXTRACT: note_on channel=5 note=71 velocity=109 time=0
EXTRACT: note_on channel=5 note=83 velocity=106 time=0
EXTRACT: note_on channel=8 note=47 velocity=90 time=0
EXTRACT: note_on channel=8 note=59 velocity=124 time=0
EXTRACT: note_on channel=9 note=42 velocity=0 time=0.0526315
EXTRACT: note_on channel=4 note=67 velocity=0 time=0.02631575
EXTRACT: note_on channel=4 note=62 velocity=0 time=0
EXTRACT: note_on channel=4 note=59 velocity=0 time=0
EXTRACT: note_on channel=4 note=55 velocity=0 time=0
EXTRACT: note_on channel=4 note=47 velocity=0 time=0
EXTRACT: note_on channel=1 note=28 velocity=0 time=0.07894725
EXTRACT: note_on channel=5 note=71 velocity=0 time=0
EXTRACT: note_on channel=5 note=83 velocity=0 time=0
EXTRACT: note_on channel=5 note=81 velocity=99 time=0
EXTRACT: note_on channel=5 note=69 velocity=116 time=0
EXTRACT: note_on channel=8 note=47 velocity=0 time=0
EXTRACT: note_on channel=8 note=59 velocity=0 time=0
EXTRACT: note_on channel=2 note=40 velocity=0 time=0.15263134999999997
EXTRACT: note_on channel=2 note=62 velocity=0 time=0
EXTRACT: note_on channel=2 note=67 velocity=0 time=0
EXTRACT: note_on channel=2 note=62 velocity=0 time=0
EXTRACT: note_on channel=2 note=59 velocity=0 time=0
EXTRACT: note_on channel=2 note=62 velocity=0 time=0
EXTRACT: note_on channel=2 note=67 velocity=0 time=0
EXTRACT: note_on channel=2 note=67 velocity=0 time=0
EXTRACT: note_on channel=2 note=62 velocity=0 time=0
EXTRACT: note_on channel=2 note=57 velocity=89 time=0
EXTRACT: note_on channel=2 note=54 velocity=119 time=0
EXTRACT: note_on channel=9 note=42 velocity=109 time=0.005263149999999999
EXTRACT: note_on channel=9 note=36 velocity=120 time=0
EXTRACT: note_on channel=1 note=30 velocity=115 time=0
EXTRACT: note_on channel=4 note=64 velocity=91 time=0
EXTRACT: note_on channel=4 note=61 velocity=92 time=0
EXTRACT: note_on channel=4 note=57 velocity=105 time=0
EXTRACT: note_on channel=4 note=54 velocity=103 time=0
EXTRACT: note_on channel=6 note=59 velocity=0 time=0
EXTRACT: note_on channel=6 note=62 velocity=0 time=0
EXTRACT: note_on channel=6 note=67 velocity=0 time=0
EXTRACT: note_on channel=6 note=57 velocity=110 time=0
EXTRACT: note_on channel=6 note=61 velocity=110 time=0
EXTRACT: note_on channel=6 note=66 velocity=109 time=0
EXTRACT: note_on channel=7 note=64 velocity=91 time=0
EXTRACT: note_on channel=7 note=61 velocity=86 time=0
EXTRACT: note_on channel=7 note=57 velocity=94 time=0
EXTRACT: note_on channel=7 note=54 velocity=105 time=0
EXTRACT: note_on channel=8 note=45 velocity=86 time=0
EXTRACT: note_on channel=8 note=57 velocity=115 time=0
EXTRACT: note_on channel=3 note=62 velocity=0 time=0.005263149999999999
EXTRACT: note_on channel=9 note=42 velocity=0 time=0.04736835
EXTRACT: note_on channel=9 note=36 velocity=0 time=0
EXTRACT: note_on channel=8 note=45 velocity=0 time=0.02631575
EXTRACT: note_on channel=8 note=57 velocity=0 time=0
EXTRACT: note_on channel=8 note=57 velocity=89 time=0.07894725
EXTRACT: note_on channel=8 note=69 velocity=122 time=0
EXTRACT: note_on channel=1 note=30 velocity=0 time=0.04736835
EXTRACT: note_on channel=1 note=30 velocity=111 time=0.005263149999999999
EXTRACT: note_on channel=2 note=61 velocity=123 time=0.09999984999999999
EXTRACT: note_on channel=9 note=42 velocity=87 time=0.005263149999999999
EXTRACT: note_on channel=9 note=42 velocity=104 time=0
EXTRACT: note_on channel=4 note=64 velocity=0 time=0
EXTRACT: note_on channel=4 note=61 velocity=0 time=0
EXTRACT: note_on channel=4 note=57 velocity=0 time=0
EXTRACT: note_on channel=4 note=54 velocity=0 time=0
EXTRACT: note_on channel=7 note=64 velocity=0 time=0
EXTRACT: note_on channel=7 note=61 velocity=0 time=0
EXTRACT: note_on channel=7 note=57 velocity=0 time=0
EXTRACT: note_on channel=7 note=54 velocity=0 time=0
EXTRACT: note_on channel=3 note=61 velocity=105 time=0.005263149999999999
EXTRACT: note_on channel=9 note=42 velocity=0 time=0.04736835
EXTRACT: note_on channel=9 note=42 velocity=0 time=0
EXTRACT: note_on channel=1 note=30 velocity=0 time=0.04736835
EXTRACT: note_on channel=1 note=30 velocity=118 time=0.005263149999999999
EXTRACT: note_on channel=2 note=64 velocity=114 time=0.04736835
EXTRACT: note_on channel=4 note=64 velocity=95 time=0.005263149999999999
EXTRACT: note_on channel=4 note=61 velocity=94 time=0
EXTRACT: note_on channel=4 note=57 velocity=111 time=0
EXTRACT: note_on channel=4 note=54 velocity=117 time=0
EXTRACT: note_on channel=7 note=64 velocity=77 time=0
EXTRACT: note_on channel=7 note=61 velocity=102 time=0
EXTRACT: note_on channel=7 note=57 velocity=77 time=0
EXTRACT: note_on channel=7 note=54 velocity=110 time=0
EXTRACT: note_on channel=1 note=30 velocity=0 time=0.15263134999999997
EXTRACT: note_on channel=9 note=40 velocity=127 time=0.005263149999999999
EXTRACT: note_on channel=9 note=42 velocity=103 time=0
EXTRACT: note_on channel=9 note=69 velocity=62 time=0
EXTRACT: note_on channel=1 note=37 velocity=118 time=0
EXTRACT: note_on channel=4 note=64 velocity=0 time=0
EXTRACT: note_on channel=4 note=61 velocity=0 time=0
EXTRACT: note_on channel=4 note=57 velocity=0 time=0
EXTRACT: note_on channel=4 note=54 velocity=0 time=0
EXTRACT: note_on channel=7 note=64 velocity=0 time=0
EXTRACT: note_on channel=7 note=61 velocity=0 time=0
EXTRACT: note_on channel=7 note=57 velocity=0 time=0
EXTRACT: note_on channel=7 note=54 velocity=0 time=0
EXTRACT: note_on channel=8 note=57 velocity=0 time=0
EXTRACT: note_on channel=8 note=69 velocity=0 time=0
EXTRACT: note_on channel=8 note=52 velocity=91 time=0
EXTRACT: note_on channel=8 note=64 velocity=121 time=0
EXTRACT: note_on channel=3 note=61 velocity=0 time=0.005263149999999999
EXTRACT: note_on channel=9 note=40 velocity=0 time=0.04736835
EXTRACT: note_on channel=9 note=42 velocity=0 time=0
EXTRACT: note_on channel=9 note=69 velocity=0 time=0
EXTRACT: note_on channel=2 note=61 velocity=126 time=0.09999984999999999
EXTRACT: note_on channel=9 note=69 velocity=70 time=0.005263149999999999
EXTRACT: note_on channel=4 note=64 velocity=54 time=0
EXTRACT: note_on channel=4 note=61 velocity=78 time=0
EXTRACT: note_on channel=4 note=57 velocity=60 time=0
EXTRACT: note_on channel=4 note=54 velocity=90 time=0
EXTRACT: note_on channel=3 note=61 velocity=127 time=0.005263149999999999
EXTRACT: note_on channel=9 note=69 velocity=0 time=0.04736835
EXTRACT: note_on channel=1 note=37 velocity=0 time=0.02631575
EXTRACT: note_on channel=4 note=64 velocity=0 time=0
EXTRACT: note_on channel=4 note=61 velocity=0 time=0
EXTRACT: note_on channel=4 note=57 velocity=0 time=0
EXTRACT: note_on channel=4 note=54 velocity=0 time=0
EXTRACT: note_on channel=9 note=42 velocity=102 time=0.07894725
EXTRACT: note_on channel=1 note=42 velocity=126 time=0
EXTRACT: note_on channel=4 note=64 velocity=49 time=0
EXTRACT: note_on channel=4 note=61 velocity=52 time=0
EXTRACT: note_on channel=4 note=57 velocity=50 time=0
EXTRACT: note_on channel=9 note=42 velocity=0 time=0.0526315
EXTRACT: note_on channel=4 note=64 velocity=0 time=0.02631575
EXTRACT: note_on channel=4 note=61 velocity=0 time=0
EXTRACT: note_on channel=4 note=57 velocity=0 time=0
EXTRACT: note_on channel=2 note=57 velocity=124 time=0.07368409999999999
EXTRACT: note_on channel=9 note=69 velocity=62 time=0.005263149999999999
EXTRACT: note_on channel=4 note=64 velocity=78 time=0
EXTRACT: note_on channel=4 note=61 velocity=79 time=0
EXTRACT: note_on channel=4 note=57 velocity=75 time=0
EXTRACT: note_on channel=4 note=54 velocity=76 time=0
EXTRACT: note_on channel=5 note=81 velocity=0 time=0
EXTRACT: note_on channel=5 note=69 velocity=0 time=0
EXTRACT: note_on channel=3 note=61 velocity=0 time=0.005263149999999999
EXTRACT: note_on channel=9 note=69 velocity=0 time=0.04736835
EXTRACT: note_on channel=1 note=42 velocity=0 time=0.02631575
EXTRACT: note_on channel=4 note=64 velocity=0 time=0
EXTRACT: note_on channel=4 note=61 velocity=0 time=0
EXTRACT: note_on channel=4 note=57 velocity=0 time=0
EXTRACT: note_on channel=4 note=54 velocity=0 time=0
EXTRACT: note_on channel=2 note=61 velocity=105 time=0.07368409999999999
EXTRACT: note_on channel=9 note=36 velocity=120 time=0.005263149999999999
EXTRACT: note_on channel=9 note=42 velocity=99 time=0
EXTRACT: note_on channel=1 note=37 velocity=119 time=0
EXTRACT: note_on channel=4 note=64 velocity=65 time=0
EXTRACT: note_on channel=4 note=61 velocity=59 time=0
EXTRACT: note_on channel=4 note=57 velocity=48 time=0
EXTRACT: note_on channel=5 note=78 velocity=99 time=0
EXTRACT: note_on channel=5 note=90 velocity=103 time=0
EXTRACT: note_on channel=3 note=61 velocity=122 time=0.005263149999999999
EXTRACT: note_on channel=9 note=36 velocity=0 time=0.04736835
EXTRACT: note_on channel=9 note=42 velocity=0 time=0
EXTRACT: note_on channel=4 note=64 velocity=0 time=0.02631575
EXTRACT: note_on channel=4 note=61 velocity=0 time=0
EXTRACT: note_on channel=4 note=57 velocity=0 time=0
EXTRACT: note_on channel=2 note=64 velocity=104 time=0.07368409999999999
EXTRACT: note_on channel=9 note=69 velocity=73 time=0.005263149999999999
EXTRACT: note_on channel=5 note=78 velocity=0 time=0
EXTRACT: note_on channel=5 note=90 velocity=0 time=0
EXTRACT: note_on channel=8 note=52 velocity=0 time=0
EXTRACT: note_on channel=8 note=64 velocity=0 time=0
EXTRACT: note_on channel=9 note=69 velocity=0 time=0.0526315
EXTRACT: note_on channel=2 note=66 velocity=125 time=0.09999984999999999
EXTRACT: note_on channel=9 note=36 velocity=120 time=0.005263149999999999
EXTRACT: note_on channel=9 note=42 velocity=106 time=0
EXTRACT: note_on channel=9 note=69 velocity=78 time=0
EXTRACT: note_on channel=4 note=64 velocity=105 time=0
EXTRACT: note_on channel=4 note=61 velocity=115 time=0
EXTRACT: note_on channel=4 note=57 velocity=92 time=0
EXTRACT: note_on channel=4 note=54 velocity=93 time=0
EXTRACT: note_on channel=7 note=64 velocity=78 time=0
EXTRACT: note_on channel=7 note=61 velocity=96 time=0
EXTRACT: note_on channel=7 note=57 velocity=89 time=0
EXTRACT: note_on channel=7 note=54 velocity=88 time=0
EXTRACT: note_on channel=9 note=36 velocity=0 time=0.0526315
EXTRACT: note_on channel=9 note=42 velocity=0 time=0
EXTRACT: note_on channel=9 note=69 velocity=0 time=0
EXTRACT: note_on channel=1 note=37 velocity=0 time=0.04736835
EXTRACT: note_on channel=1 note=42 velocity=123 time=0.005263149999999999
EXTRACT: note_on channel=2 note=69 velocity=111 time=0.04736835
EXTRACT: note_on channel=4 note=64 velocity=0 time=0.005263149999999999
EXTRACT: note_on channel=4 note=61 velocity=0 time=0
EXTRACT: note_on channel=4 note=57 velocity=0 time=0
EXTRACT: note_on channel=4 note=54 velocity=0 time=0
EXTRACT: note_on channel=5 note=76 velocity=112 time=0
EXTRACT: note_on channel=5 note=88 velocity=114 time=0
EXTRACT: note_on channel=7 note=64 velocity=0 time=0
EXTRACT: note_on channel=7 note=61 velocity=0 time=0
EXTRACT: note_on channel=7 note=57 velocity=0 time=0
EXTRACT: note_on channel=7 note=54 velocity=0 time=0
EXTRACT: note_on channel=9 note=40 velocity=127 time=0.1578945
EXTRACT: note_on channel=9 note=42 velocity=96 time=0
EXTRACT: note_on channel=9 note=69 velocity=66 time=0
EXTRACT: note_on channel=5 note=76 velocity=0 time=0
EXTRACT: note_on channel=5 note=88 velocity=0 time=0
EXTRACT: note_on channel=9 note=40 velocity=0 time=0.0526315
EXTRACT: note_on channel=9 note=42 velocity=0 time=0
EXTRACT: note_on channel=9 note=69 velocity=0 time=0
EXTRACT: note_on channel=4 note=64 velocity=40 time=0.105263
EXTRACT: note_on channel=4 note=61 velocity=57 time=0
EXTRACT: note_on channel=4 note=57 velocity=55 time=0
EXTRACT: note_on channel=1 note=42 velocity=0 time=0.04736835
EXTRACT: note_on channel=1 note=49 velocity=124 time=0.005263149999999999
EXTRACT: note_on channel=4 note=64 velocity=0 time=0.02631575
EXTRACT: note_on channel=4 note=61 velocity=0 time=0
EXTRACT: note_on channel=4 note=57 velocity=0 time=0
EXTRACT: note_on channel=9 note=36 velocity=90 time=0.07894725
EXTRACT: note_on channel=9 note=42 velocity=105 time=0
EXTRACT: note_on channel=4 note=64 velocity=62 time=0
EXTRACT: note_on channel=4 note=61 velocity=74 time=0
EXTRACT: note_on channel=4 note=57 velocity=78 time=0
EXTRACT: note_on channel=4 note=54 velocity=69 time=0
EXTRACT: note_on channel=5 note=86 velocity=105 time=0
EXTRACT: note_on channel=5 note=74 velocity=103 time=0
EXTRACT: note_on channel=8 note=54 velocity=99 time=0
EXTRACT: note_on channel=8 note=66 velocity=125 time=0
EXTRACT: note_on channel=3 note=61 velocity=113 time=0.005263149999999999
EXTRACT: note_on channel=9 note=36 velocity=0 time=0.04736835
EXTRACT: note_on channel=9 note=42 velocity=0 time=0
EXTRACT: note_on channel=4 note=64 velocity=0 time=0.02631575
EXTRACT: note_on channel=4 note=61 velocity=0 time=0
EXTRACT: note_on channel=4 note=57 velocity=0 time=0
EXTRACT: note_on channel=4 note=54 velocity=0 time=0
EXTRACT: note_on channel=9 note=40 velocity=127 time=0.07894725
EXTRACT: note_on channel=5 note=86 velocity=0 time=0
EXTRACT: note_on channel=5 note=74 velocity=0 time=0
EXTRACT: note_on channel=9 note=40 velocity=0 time=0.0526315
EXTRACT: note_on channel=1 note=49 velocity=0 time=0.09999984999999999
EXTRACT: note_on channel=2 note=57 velocity=0 time=0
EXTRACT: note_on channel=2 note=54 velocity=0 time=0
EXTRACT: note_on channel=2 note=61 velocity=0 time=0
EXTRACT: note_on channel=2 note=64 velocity=0 time=0
EXTRACT: note_on channel=2 note=61 velocity=0 time=0
EXTRACT: note_on channel=2 note=57 velocity=0 time=0
EXTRACT: note_on channel=2 note=61 velocity=0 time=0
EXTRACT: note_on channel=2 note=64 velocity=0 time=0
EXTRACT: note_on channel=2 note=66 velocity=0 time=0
EXTRACT: note_on channel=2 note=69 velocity=0 time=0
EXTRACT: note_on channel=2 note=47 velocity=110 time=0
EXTRACT: note_on channel=9 note=49 velocity=100 time=0.005263149999999999
EXTRACT: note_on channel=9 note=36 velocity=120 time=0
EXTRACT: note_on channel=1 note=35 velocity=115 time=0
EXTRACT: note_on channel=4 note=66 velocity=97 time=0
EXTRACT: note_on channel=4 note=62 velocity=108 time=0
EXTRACT: note_on channel=4 note=59 velocity=107 time=0
EXTRACT: note_on channel=4 note=54 velocity=104 time=0
EXTRACT: note_on channel=4 note=47 velocity=101 time=0
EXTRACT: control_change channel=5 control=11 value=60 time=0
EXTRACT: note_on channel=5 note=90 velocity=109 time=0
EXTRACT: note_on channel=5 note=78 velocity=115 time=0
EXTRACT: note_on channel=6 note=57 velocity=0 time=0
EXTRACT: note_on channel=6 note=61 velocity=0 time=0
EXTRACT: note_on channel=6 note=66 velocity=0 time=0
EXTRACT: control_change channel=6 control=11 value=40 time=0
EXTRACT: note_on channel=6 note=59 velocity=123 time=0
EXTRACT: note_on channel=6 note=62 velocity=127 time=0
EXTRACT: note_on channel=6 note=66 velocity=123 time=0
EXTRACT: note_on channel=7 note=66 velocity=89 time=0
EXTRACT: note_on channel=7 note=62 velocity=81 time=0
EXTRACT: note_on channel=7 note=59 velocity=108 time=0
EXTRACT: note_on channel=7 note=54 velocity=100 time=0
EXTRACT: note_on channel=7 note=47 velocity=103 time=0
EXTRACT: note_on channel=3 note=61 velocity=0 time=0.005263149999999999
EXTRACT: note_on channel=3 note=61 velocity=0 time=0
EXTRACT: control_change channel=5 control=11 value=61 time=0.015789449999999997
EXTRACT: control_change channel=6 control=11 value=41 time=0.010526299999999999
EXTRACT: control_change channel=5 control=11 value=62 time=0.005263149999999999
EXTRACT: note_on channel=9 note=49 velocity=0 time=0.015789449999999997
EXTRACT: note_on channel=9 note=36 velocity=0 time=0
EXTRACT: control_change channel=5 control=11 value=63 time=0.005263149999999999
EXTRACT: control_change channel=6 control=11 value=42 time=0.005263149999999999
EXTRACT: control_change channel=5 control=11 value=64 time=0.010526299999999999
EXTRACT: control_change channel=5 control=11 value=65 time=0.021052599999999998
EXTRACT: control_change channel=6 control=11 value=43 time=0
EXTRACT: control_change channel=5 control=11 value=66 time=0.015789449999999997
EXTRACT: control_change channel=6 control=11 value=44 time=0.015789449999999997
EXTRACT: control_change channel=5 control=11 value=67 time=0.005263149999999999
EXTRACT: note_on channel=1 note=35 velocity=0 time=0.021052599999999998
EXTRACT: control_change channel=5 control=11 value=68 time=0
EXTRACT: note_on channel=1 note=35 velocity=124 time=0.005263149999999999
EXTRACT: control_change channel=6 control=11 value=45 time=0
EXTRACT: control_change channel=5 control=11 value=69 time=0.010526299999999999
EXTRACT: control_change channel=5 control=11 value=70 time=0.021052599999999998
EXTRACT: control_change channel=6 control=11 value=46 time=0
EXTRACT: control_change channel=5 control=11 value=71 time=0.015789449999999997
EXTRACT: control_change channel=6 control=11 value=47 time=0.015789449999999997
EXTRACT: control_change channel=5 control=11 value=72 time=0.005263149999999999
EXTRACT: control_change channel=5 control=11 value=73 time=0.021052599999999998
EXTRACT: control_change channel=6 control=11 value=48 time=0.005263149999999999
EXTRACT: control_change channel=5 control=11 value=74 time=0.010526299999999999
EXTRACT: control_change channel=5 control=11 value=75 time=0.021052599999999998
EXTRACT: control_change channel=6 control=11 value=49 time=0
EXTRACT: control_change channel=5 control=11 value=76 time=0.015789449999999997
EXTRACT: note_on channel=2 note=62 velocity=105 time=0.010526299999999999
EXTRACT: note_on channel=9 note=42 velocity=102 time=0.005263149999999999
EXTRACT: note_on channel=1 note=35 velocity=0 time=0
EXTRACT: note_on channel=4 note=66 velocity=0 time=0
EXTRACT: note_on channel=4 note=62 velocity=0 time=0
EXTRACT: note_on channel=4 note=59 velocity=0 time=0
EXTRACT: note_on channel=4 note=54 velocity=0 time=0
EXTRACT: note_on channel=4 note=47 velocity=0 time=0
EXTRACT: control_change channel=6 control=11 value=50 time=0
EXTRACT: note_on channel=7 note=66 velocity=0 time=0
EXTRACT: note_on channel=7 note=62 velocity=0 time=0
EXTRACT: note_on channel=7 note=59 velocity=0 time=0
EXTRACT: note_on channel=7 note=54 velocity=0 time=0
EXTRACT: note_on channel=7 note=47 velocity=0 time=0
EXTRACT: note_on channel=8 note=54 velocity=0 time=0
EXTRACT: note_on channel=8 note=66 velocity=0 time=0
EXTRACT: note_on channel=8 note=57 velocity=92 time=0
EXTRACT: note_on channel=8 note=69 velocity=125 time=0
EXTRACT: note_on channel=3 note=62 velocity=118 time=0.005263149999999999
EXTRACT: control_change channel=5 control=11 value=77 time=0
EXTRACT: control_change channel=5 control=11 value=78 time=0.015789449999999997
EXTRACT: control_change channel=6 control=11 value=51 time=0.010526299999999999
EXTRACT: control_change channel=5 control=11 value=79 time=0.010526299999999999
EXTRACT: note_on channel=9 note=42 velocity=0 time=0.010526299999999999
EXTRACT: control_change channel=5 control=11 value=80 time=0.010526299999999999
EXTRACT: control_change channel=6 control=11 value=52 time=0
EXTRACT: control_change channel=5 control=11 value=81 time=0.015789449999999997
EXTRACT: control_change channel=6 control=11 value=53 time=0.015789449999999997
EXTRACT: control_change channel=5 control=11 value=82 time=0.005263149999999999
EXTRACT: control_change channel=5 control=11 value=83 time=0.015789449999999997
EXTRACT: control_change channel=6 control=11 value=54 time=0.010526299999999999
EXTRACT: control_change channel=5 control=11 value=84 time=0.010526299999999999
EXTRACT: note_on channel=2 note=66 velocity=113 time=0.015789449999999997
EXTRACT: note_on channel=1 note=42 velocity=114 time=0.005263149999999999
EXTRACT: note_on channel=4 note=66 velocity=99 time=0
EXTRACT: note_on channel=4 note=62 velocity=85 time=0
EXTRACT: note_on channel=4 note=59 velocity=99 time=0
EXTRACT: note_on channel=4 note=54 velocity=96 time=0
EXTRACT: note_on channel=4 note=47 velocity=107 time=0
EXTRACT: control_change channel=5 control=11 value=85 time=0
EXTRACT: control_change channel=6 control=11 value=55 time=0
EXTRACT: note_on channel=7 note=66 velocity=108 time=0
EXTRACT: note_on channel=7 note=62 velocity=89 time=0
EXTRACT: note_on channel=7 note=59 velocity=81 time=0
EXTRACT: note_on channel=7 note=54 velocity=86 time=0
EXTRACT: note_on channel=7 note=47 velocity=74 time=0
EXTRACT: note_on channel=8 note=57 velocity=0 time=0
EXTRACT: note_on channel=8 note=69 velocity=0 time=0
EXTRACT: control_change channel=5 control=11 value=86 time=0.015789449999999997
EXTRACT: control_change channel=6 control=11 value=56 time=0.015789449999999997
EXTRACT: control_change channel=5 control=11 value=87 time=0.005263149999999999
EXTRACT: control_change channel=5 control=11 value=88 time=0.015789449999999997
EXTRACT: control_change channel=6 control=11 value=57 time=0.010526299999999999
EXTRACT: control_change channel=5 control=11 value=89 time=0.010526299999999999
EXTRACT: control_change channel=5 control=11 value=90 time=0.015789449999999997
EXTRACT: control_change channel=6 control=11 value=58 time=0.005263149999999999
EXTRACT: control_change channel=5 control=11 value=91 time=0.015789449999999997
EXTRACT: control_change channel=6 control=11 value=59 time=0.015789449999999997
EXTRACT: control_change channel=5 control=11 value=92 time=0.005263149999999999
EXTRACT: control_change channel=5 control=11 value=93 time=0.015789449999999997
EXTRACT: note_on channel=9 note=42 velocity=107 time=0.010526299999999999
EXTRACT: note_on channel=9 note=40 velocity=127 time=0
EXTRACT: note_on channel=9 note=69 velocity=62 time=0
EXTRACT: note_on channel=1 note=42 velocity=0 time=0
EXTRACT: note_on channel=4 note=66 velocity=0 time=0
EXTRACT: note_on channel=4 note=62 velocity=0 time=0
EXTRACT: note_on channel=4 note=59 velocity=0 time=0
EXTRACT: note_on channel=4 note=54 velocity=0 time=0
EXTRACT: note_on channel=4 note=47 velocity=0 time=0
EXTRACT: control_change channel=6 control=11 value=60 time=0
EXTRACT: note_on channel=7 note=66 velocity=0 time=0
EXTRACT: note_on channel=7 note=62 velocity=0 time=0
EXTRACT: note_on channel=7 note=59 velocity=0 time=0
EXTRACT: note_on channel=7 note=54 velocity=0 time=0
EXTRACT: note_on channel=7 note=47 velocity=0 time=0
EXTRACT: note_on channel=8 note=55 velocity=84 time=0
EXTRACT: note_on channel=8 note=67 velocity=123 time=0
EXTRACT: note_on channel=3 note=62 velocity=0 time=0.005263149999999999
EXTRACT: control_change channel=5 control=11 value=94 time=0.005263149999999999
EXTRACT: control_change channel=5 control=11 value=95 time=0.015789449999999997
EXTRACT: control_change channel=6 control=11 value=61 time=0.005263149999999999
EXTRACT: control_change channel=5 control=11 value=96 time=0.015789449999999997
EXTRACT: note_on channel=9 note=42 velocity=0 time=0.005263149999999999
EXTRACT: note_on channel=9 note=40 velocity=0 time=0
EXTRACT: note_on channel=9 note=69 velocity=0 time=0
EXTRACT: control_change channel=6 control=11 value=62 time=0.010526299999999999
EXTRACT: control_change channel=5 control=11 value=97 time=0.005263149999999999
EXTRACT: control_change channel=5 control=11 value=98 time=0.015789449999999997
EXTRACT: control_change channel=6 control=11 value=63 time=0.010526299999999999
EXTRACT: control_change channel=5 control=11 value=99 time=0.010526299999999999
EXTRACT: control_change channel=5 control=11 value=100 time=0.015789449999999997
EXTRACT: control_change channel=6 control=11 value=64 time=0.005263149999999999
EXTRACT: control_change channel=5 control=11 value=101 time=0.015789449999999997
EXTRACT: note_on channel=2 note=62 velocity=109 time=0.010526299999999999
EXTRACT: note_on channel=9 note=69 velocity=70 time=0.005263149999999999
EXTRACT: note_on channel=1 note=42 velocity=119 time=0
EXTRACT: note_on channel=4 note=66 velocity=59 time=0
EXTRACT: note_on channel=4 note=62 velocity=83 time=0
EXTRACT: note_on channel=4 note=59 velocity=56 time=0
EXTRACT: note_on channel=4 note=54 velocity=54 time=0
EXTRACT: note_on channel=4 note=47 velocity=88 time=0
EXTRACT: control_change channel=5 control=11 value=102 time=0
EXTRACT: control_change channel=6 control=11 value=65 time=0
EXTRACT: note_on channel=8 note=55 velocity=0 time=0
EXTRACT: note_on channel=8 note=67 velocity=0 time=0
EXTRACT: note_on channel=3 note=62 velocity=116 time=0.005263149999999999
EXTRACT: control_change channel=5 control=11 value=103 time=0.015789449999999997
EXTRACT: control_change channel=6 control=11 value=66 time=0.010526299999999999
EXTRACT: control_change channel=5 control=11 value=104 time=0.010526299999999999
EXTRACT: note_on channel=9 note=69 velocity=0 time=0.010526299999999999
EXTRACT: control_change channel=5 control=11 value=105 time=0.005263149999999999
EXTRACT: control_change channel=6 control=11 value=67 time=0.005263149999999999
EXTRACT: note_on channel=4 note=66 velocity=0 time=0.015789449999999997
EXTRACT: note_on channel=4 note=62 velocity=0 time=0
EXTRACT: note_on channel=4 note=59 velocity=0 time=0
EXTRACT: note_on channel=4 note=54 velocity=0 time=0
EXTRACT: note_on channel=4 note=47 velocity=0 time=0
EXTRACT: control_change channel=5 control=11 value=106 time=0
EXTRACT: control_change channel=5 control=11 value=107 time=0.015789449999999997
EXTRACT: control_change channel=6 control=11 value=68 time=0
EXTRACT: control_change channel=5 control=11 value=108 time=0.021052599999999998
EXTRACT: control_change channel=6 control=11 value=69 time=0.010526299999999999
EXTRACT: control_change channel=5 control=11 value=109 time=0.010526299999999999
EXTRACT: note_on channel=1 note=42 velocity=0 time=0.015789449999999997
EXTRACT: control_change channel=5 control=11 value=110 time=0
EXTRACT: note_on channel=9 note=42 velocity=105 time=0.005263149999999999
EXTRACT: note_on channel=1 note=38 velocity=119 time=0
EXTRACT: note_on channel=4 note=66 velocity=56 time=0
EXTRACT: note_on channel=4 note=62 velocity=39 time=0
EXTRACT: note_on channel=4 note=59 velocity=71 time=0
EXTRACT: control_change channel=6 control=11 value=70 time=0
EXTRACT: note_on channel=8 note=54 velocity=92 time=0
EXTRACT: note_on channel=8 note=66 velocity=120 time=0
EXTRACT: note_on channel=3 note=62 velocity=0 time=0.005263149999999999
EXTRACT: note_on channel=3 note=61 velocity=102 time=0
EXTRACT: control_change channel=5 control=11 value=111 time=0.010526299999999999
EXTRACT: control_change channel=5 control=11 value=112 time=0.015789449999999997
EXTRACT: control_change channel=6 control=11 value=71 time=0
EXTRACT: note_on channel=9 note=42 velocity=0 time=0.021052599999999998
EXTRACT: control_change channel=5 control=11 value=113 time=0
EXTRACT: control_change channel=6 control=11 value=72 time=0.010526299999999999
EXTRACT: control_change channel=5 control=11 value=114 time=0.005263149999999999
EXTRACT: note_on channel=4 note=66 velocity=0 time=0.010526299999999999
EXTRACT: note_on channel=4 note=62 velocity=0 time=0
EXTRACT: note_on channel=4 note=59 velocity=0 time=0
EXTRACT: control_change channel=5 control=11 value=115 time=0.010526299999999999
EXTRACT: control_change channel=6 control=11 value=73 time=0.005263149999999999
EXTRACT: control_change channel=5 control=11 value=116 time=0.015789449999999997
EXTRACT: control_change channel=5 control=11 value=117 time=0.015789449999999997
EXTRACT: control_change channel=6 control=11 value=74 time=0
EXTRACT: control_change channel=5 control=11 value=118 time=0.021052599999999998
EXTRACT: note_on channel=2 note=59 velocity=109 time=0.005263149999999999
EXTRACT: note_on channel=9 note=69 velocity=62 time=0.005263149999999999
EXTRACT: note_on channel=1 note=38 velocity=0 time=0
EXTRACT: note_on channel=4 note=66 velocity=80 time=0
EXTRACT: note_on channel=4 note=62 velocity=83 time=0
EXTRACT: note_on channel=4 note=59 velocity=55 time=0
EXTRACT: note_on channel=4 note=54 velocity=54 time=0
EXTRACT: note_on channel=4 note=47 velocity=85 time=0
EXTRACT: control_change channel=6 control=11 value=75 time=0
EXTRACT: note_on channel=8 note=54 velocity=0 time=0
EXTRACT: note_on channel=8 note=66 velocity=0 time=0
EXTRACT: note_on channel=3 note=61 velocity=0 time=0.005263149999999999
EXTRACT: note_on channel=3 note=59 velocity=102 time=0
EXTRACT: control_change channel=5 control=11 value=119 time=0
EXTRACT: control_change channel=5 control=11 value=120 time=0.021052599999999998
EXTRACT: control_change channel=6 control=11 value=76 time=0.005263149999999999
EXTRACT: control_change channel=5 control=11 value=121 time=0.015789449999999997
EXTRACT: note_on channel=9 note=69 velocity=0 time=0.005263149999999999
EXTRACT: control_change channel=5 control=11 value=122 time=0.010526299999999999
EXTRACT: control_change channel=6 control=11 value=77 time=0
EXTRACT: note_on channel=4 note=66 velocity=0 time=0.015789449999999997
EXTRACT: note_on channel=4 note=62 velocity=0 time=0
EXTRACT: note_on channel=4 note=59 velocity=0 time=0
EXTRACT: note_on channel=4 note=54 velocity=0 time=0
EXTRACT: note_on channel=4 note=47 velocity=0 time=0
EXTRACT: control_change channel=5 control=11 value=123 time=0.005263149999999999
EXTRACT: control_change channel=6 control=11 value=78 time=0.010526299999999999
EXTRACT: control_change channel=5 control=11 value=124 time=0.005263149999999999
EXTRACT: control_change channel=5 control=11 value=125 time=0.021052599999999998
EXTRACT: control_change channel=6 control=11 value=79 time=0.005263149999999999
EXTRACT: control_change channel=5 control=11 value=126 time=0.010526299999999999
EXTRACT: note_on channel=9 note=36 velocity=120 time=0.021052599999999998
EXTRACT: note_on channel=9 note=42 velocity=92 time=0
EXTRACT: note_on channel=1 note=35 velocity=126 time=0
EXTRACT: note_on channel=4 note=66 velocity=56 time=0
EXTRACT: note_on channel=4 note=62 velocity=43 time=0
EXTRACT: note_on channel=4 note=59 velocity=52 time=0
EXTRACT: control_change channel=5 control=11 value=127 time=0
EXTRACT: control_change channel=6 control=11 value=80 time=0
EXTRACT: note_on channel=8 note=52 velocity=86 time=0
EXTRACT: note_on channel=8 note=64 velocity=127 time=0
EXTRACT: note_on channel=3 note=59 velocity=0 time=0.005263149999999999
EXTRACT: note_on channel=9 note=36 velocity=0 time=0.04736835
EXTRACT: note_on channel=9 note=42 velocity=0 time=0
EXTRACT: note_on channel=4 note=66 velocity=0 time=0.02631575
EXTRACT: note_on channel=4 note=62 velocity=0 time=0
EXTRACT: note_on channel=4 note=59 velocity=0 time=0
EXTRACT: note_on channel=2 note=62 velocity=102 time=0.07368409999999999
EXTRACT: note_on channel=9 note=69 velocity=73 time=0.005263149999999999
EXTRACT: note_on channel=3 note=62 velocity=123 time=0.005263149999999999
EXTRACT: note_on channel=9 note=69 velocity=0 time=0.04736835
EXTRACT: note_on channel=9 note=42 velocity=97 time=0.105263
EXTRACT: note_on channel=9 note=69 velocity=78 time=0
EXTRACT: note_on channel=1 note=35 velocity=0 time=0
EXTRACT: note_on channel=4 note=66 velocity=92 time=0
EXTRACT: note_on channel=4 note=62 velocity=105 time=0
EXTRACT: note_on channel=4 note=59 velocity=107 time=0
EXTRACT: note_on channel=4 note=54 velocity=108 time=0
EXTRACT: note_on channel=4 note=47 velocity=99 time=0
EXTRACT: note_on channel=7 note=66 velocity=81 time=0
EXTRACT: note_on channel=7 note=62 velocity=108 time=0
EXTRACT: note_on channel=7 note=59 velocity=91 time=0
EXTRACT: note_on channel=7 note=54 velocity=90 time=0
EXTRACT: note_on channel=7 note=47 velocity=91 time=0
EXTRACT: note_on channel=8 note=52 velocity=0 time=0
EXTRACT: note_on channel=8 note=64 velocity=0 time=0
EXTRACT: note_on channel=8 note=50 velocity=83 time=0
EXTRACT: note_on channel=8 note=62 velocity=125 time=0
EXTRACT: note_on channel=3 note=62 velocity=0 time=0.005263149999999999
EXTRACT: note_on channel=9 note=42 velocity=0 time=0.04736835
EXTRACT: note_on channel=9 note=69 velocity=0 time=0
EXTRACT: note_on channel=2 note=66 velocity=124 time=0.09999984999999999
EXTRACT: note_on channel=4 note=66 velocity=0 time=0.005263149999999999
EXTRACT: note_on channel=4 note=62 velocity=0 time=0
EXTRACT: note_on channel=4 note=59 velocity=0 time=0
EXTRACT: note_on channel=4 note=54 velocity=0 time=0
EXTRACT: note_on channel=4 note=47 velocity=0 time=0
EXTRACT: note_on channel=7 note=66 velocity=0 time=0
EXTRACT: note_on channel=7 note=62 velocity=0 time=0
EXTRACT: note_on channel=7 note=59 velocity=0 time=0
EXTRACT: note_on channel=7 note=54 velocity=0 time=0
EXTRACT: note_on channel=7 note=47 velocity=0 time=0
EXTRACT: note_on channel=8 note=50 velocity=0 time=0
EXTRACT: note_on channel=8 note=62 velocity=0 time=0
EXTRACT: note_on channel=3 note=62 velocity=115 time=0.005263149999999999
EXTRACT: note_on channel=2 note=66 velocity=110 time=0.14736819999999998
EXTRACT: note_on channel=9 note=40 velocity=127 time=0.005263149999999999
EXTRACT: note_on channel=9 note=42 velocity=92 time=0
EXTRACT: note_on channel=9 note=69 velocity=66 time=0
EXTRACT: note_on channel=8 note=52 velocity=98 time=0
EXTRACT: note_on channel=8 note=64 velocity=114 time=0
EXTRACT: note_on channel=9 note=40 velocity=0 time=0.0526315
EXTRACT: note_on channel=9 note=42 velocity=0 time=0
EXTRACT: note_on channel=9 note=69 velocity=0 time=0
EXTRACT: note_on channel=4 note=66 velocity=49 time=0.105263
EXTRACT: note_on channel=4 note=62 velocity=44 time=0
EXTRACT: note_on channel=4 note=59 velocity=42 time=0
EXTRACT: note_on channel=8 note=52 velocity=0 time=0
EXTRACT: note_on channel=8 note=64 velocity=0 time=0
EXTRACT: note_on channel=4 note=66 velocity=0 time=0.07894725
EXTRACT: note_on channel=4 note=62 velocity=0 time=0
EXTRACT: note_on channel=4 note=59 velocity=0 time=0
EXTRACT: note_on channel=2 note=62 velocity=112 time=0.07368409999999999
EXTRACT: note_on channel=9 note=42 velocity=107 time=0.005263149999999999
EXTRACT: note_on channel=1 note=30 velocity=114 time=0
EXTRACT: note_on channel=4 note=66 velocity=63 time=0
EXTRACT: note_on channel=4 note=62 velocity=77 time=0
EXTRACT: note_on channel=4 note=59 velocity=58 time=0
EXTRACT: note_on channel=4 note=54 velocity=79 time=0
EXTRACT: note_on channel=4 note=47 velocity=67 time=0
EXTRACT: note_on channel=8 note=54 velocity=91 time=0
EXTRACT: note_on channel=8 note=66 velocity=119 time=0
EXTRACT: note_on channel=9 note=42 velocity=0 time=0.0526315
EXTRACT: note_on channel=4 note=66 velocity=0 time=0.02631575
EXTRACT: note_on channel=4 note=62 velocity=0 time=0
EXTRACT: note_on channel=4 note=59 velocity=0 time=0
EXTRACT: note_on channel=4 note=54 velocity=0 time=0
EXTRACT: note_on channel=4 note=47 velocity=0 time=0
EXTRACT: note_on channel=1 note=30 velocity=0 time=0.07894725
EXTRACT: note_on channel=2 note=47 velocity=0 time=0.15263134999999997
EXTRACT: note_on channel=2 note=62 velocity=0 time=0
EXTRACT: note_on channel=2 note=66 velocity=0 time=0
EXTRACT: note_on channel=2 note=62 velocity=0 time=0
EXTRACT: note_on channel=2 note=59 velocity=0 time=0
EXTRACT: note_on channel=2 note=62 velocity=0 time=0
EXTRACT: note_on channel=2 note=66 velocity=0 time=0
EXTRACT: note_on channel=2 note=66 velocity=0 time=0
EXTRACT: note_on channel=2 note=47 velocity=119 time=0
EXTRACT: note_on channel=9 note=42 velocity=101 time=0.005263149999999999
EXTRACT: note_on channel=9 note=36 velocity=120 time=0
EXTRACT: note_on channel=1 note=35 velocity=109 time=0
EXTRACT: note_on channel=4 note=66 velocity=111 time=0
EXTRACT: note_on channel=4 note=62 velocity=110 time=0
EXTRACT: note_on channel=4 note=59 velocity=113 time=0
EXTRACT: note_on channel=4 note=54 velocity=115 time=0
EXTRACT: note_on channel=4 note=47 velocity=116 time=0
EXTRACT: note_on channel=7 note=66 velocity=97 time=0
EXTRACT: note_on channel=7 note=62 velocity=93 time=0
EXTRACT: note_on channel=7 note=59 velocity=85 time=0
EXTRACT: note_on channel=7 note=54 velocity=98 time=0
EXTRACT: note_on channel=7 note=47 velocity=75 time=0
EXTRACT: note_on channel=3 note=62 velocity=0 time=0.005263149999999999
EXTRACT: note_on channel=9 note=42 velocity=0 time=0.04736835
EXTRACT: note_on channel=9 note=36 velocity=0 time=0
EXTRACT: note_on channel=1 note=35 velocity=0 time=0.18421025
EXTRACT: note_on channel=2 note=62 velocity=0 time=0.07368409999999999
EXTRACT: note_on channel=2 note=62 velocity=120 time=0
EXTRACT: note_on channel=9 note=42 velocity=99 time=0.005263149999999999
EXTRACT: note_on channel=4 note=66 velocity=0 time=0
EXTRACT: note_on channel=4 note=62 velocity=0 time=0
EXTRACT: note_on channel=4 note=59 velocity=0 time=0
EXTRACT: note_on channel=4 note=54 velocity=0 time=0
EXTRACT: note_on channel=4 note=47 velocity=0 time=0
EXTRACT: note_on channel=7 note=66 velocity=0 time=0
EXTRACT: note_on channel=7 note=62 velocity=0 time=0
EXTRACT: note_on channel=7 note=59 velocity=0 time=0
EXTRACT: note_on channel=7 note=54 velocity=0 time=0
EXTRACT: note_on channel=7 note=47 velocity=0 time=0
EXTRACT: note_on channel=8 note=54 velocity=0 time=0
EXTRACT: note_on channel=8 note=66 velocity=0 time=0
EXTRACT: note_on channel=8 note=57 velocity=99 time=0
EXTRACT: note_on channel=8 note=69 velocity=126 time=0
EXTRACT: note_on channel=3 note=62 velocity=112 time=0.005263149999999999
EXTRACT: note_on channel=9 note=42 velocity=0 time=0.04736835
EXTRACT: note_on channel=2 note=66 velocity=109 time=0.09999984999999999
EXTRACT: note_on channel=1 note=35 velocity=108 time=0.005263149999999999
EXTRACT: note_on channel=4 note=66 velocity=107 time=0
EXTRACT: note_on channel=4 note=62 velocity=109 time=0
EXTRACT: note_on channel=4 note=59 velocity=89 time=0
EXTRACT: note_on channel=4 note=54 velocity=86 time=0
EXTRACT: note_on channel=4 note=47 velocity=116 time=0
EXTRACT: note_on channel=7 note=66 velocity=86 time=0
EXTRACT: note_on channel=7 note=62 velocity=93 time=0
EXTRACT: note_on channel=7 note=59 velocity=104 time=0
EXTRACT: note_on channel=7 note=54 velocity=86 time=0
EXTRACT: note_on channel=7 note=47 velocity=90 time=0
EXTRACT: note_on channel=8 note=57 velocity=0 time=0
EXTRACT: note_on channel=8 note=69 velocity=0 time=0
EXTRACT: note_on channel=9 note=42 velocity=107 time=0.1578945
EXTRACT: note_on channel=9 note=40 velocity=127 time=0
EXTRACT: note_on channel=9 note=69 velocity=62 time=0
EXTRACT: note_on channel=1 note=35 velocity=0 time=0
EXTRACT: note_on channel=4 note=66 velocity=0 time=0
EXTRACT: note_on channel=4 note=62 velocity=0 time=0
EXTRACT: note_on channel=4 note=59 velocity=0 time=0
EXTRACT: note_on channel=4 note=54 velocity=0 time=0
EXTRACT: note_on channel=4 note=47 velocity=0 time=0
EXTRACT: note_on channel=7 note=66 velocity=0 time=0
EXTRACT: note_on channel=7 note=62 velocity=0 time=0
EXTRACT: note_on channel=7 note=59 velocity=0 time=0
EXTRACT: note_on channel=7 note=54 velocity=0 time=0
EXTRACT: note_on channel=7 note=47 velocity=0 time=0
EXTRACT: note_on channel=8 note=55 velocity=88 time=0
EXTRACT: note_on channel=8 note=67 velocity=125 time=0
EXTRACT: note_on channel=3 note=62 velocity=0 time=0.005263149999999999
EXTRACT: note_on channel=9 note=42 velocity=0 time=0.04736835
EXTRACT: note_on channel=9 note=40 velocity=0 time=0
EXTRACT: note_on channel=9 note=69 velocity=0 time=0
EXTRACT: note_on channel=2 note=62 velocity=104 time=0.09999984999999999
EXTRACT: note_on channel=9 note=69 velocity=70 time=0.005263149999999999
EXTRACT: note_on channel=4 note=66 velocity=72 time=0
EXTRACT: note_on channel=4 note=62 velocity=83 time=0
EXTRACT: note_on channel=4 note=59 velocity=90 time=0
EXTRACT: note_on channel=4 note=54 velocity=52 time=0
EXTRACT: note_on channel=4 note=47 velocity=87 time=0
EXTRACT: note_on channel=8 note=55 velocity=0 time=0
EXTRACT: note_on channel=8 note=67 velocity=0 time=0
EXTRACT: note_on channel=3 note=62 velocity=105 time=0.005263149999999999
EXTRACT: note_on channel=9 note=69 velocity=0 time=0.04736835
EXTRACT: note_on channel=4 note=66 velocity=0 time=0.02631575
EXTRACT: note_on channel=4 note=62 velocity=0 time=0
EXTRACT: note_on channel=4 note=59 velocity=0 time=0
EXTRACT: note_on channel=4 note=54 velocity=0 time=0
EXTRACT: note_on channel=4 note=47 velocity=0 time=0
EXTRACT: note_on channel=9 note=42 velocity=110 time=0.07894725
EXTRACT: note_on channel=4 note=66 velocity=69 time=0
EXTRACT: note_on channel=4 note=62 velocity=66 time=0
EXTRACT: note_on channel=4 note=59 velocity=58 time=0
EXTRACT: note_on channel=8 note=54 velocity=84 time=0
EXTRACT: note_on channel=8 note=66 velocity=116 time=0
EXTRACT: note_on channel=3 note=62 velocity=0 time=0.005263149999999999
EXTRACT: note_on channel=3 note=61 velocity=117 time=0
EXTRACT: note_on channel=9 note=42 velocity=0 time=0.04736835
EXTRACT: note_on channel=4 note=66 velocity=0 time=0.02631575
EXTRACT: note_on channel=4 note=62 velocity=0 time=0
EXTRACT: note_on channel=4 note=59 velocity=0 time=0
EXTRACT: note_on channel=2 note=59 velocity=110 time=0.07368409999999999
EXTRACT: note_on channel=9 note=69 velocity=62 time=0.005263149999999999
EXTRACT: note_on channel=4 note=66 velocity=87 time=0
EXTRACT: note_on channel=4 note=62 velocity=66 time=0
EXTRACT: note_on channel=4 note=59 velocity=58 time=0
EXTRACT: note_on channel=4 note=54 velocity=69 time=0
EXTRACT: note_on channel=4 note=47 velocity=85 time=0
EXTRACT: note_on channel=8 note=54 velocity=0 time=0
EXTRACT: note_on channel=8 note=66 velocity=0 time=0
EXTRACT: note_on channel=3 note=61 velocity=0 time=0.005263149999999999
EXTRACT: note_on channel=3 note=59 velocity=106 time=0
EXTRACT: note_on channel=9 note=69 velocity=0 time=0.04736835
EXTRACT: note_on channel=4 note=66 velocity=0 time=0.02631575
EXTRACT: note_on channel=4 note=62 velocity=0 time=0
EXTRACT: note_on channel=4 note=59 velocity=0 time=0
EXTRACT: note_on channel=4 note=54 velocity=0 time=0
EXTRACT: note_on channel=4 note=47 velocity=0 time=0
EXTRACT: note_on channel=9 note=36 velocity=120 time=0.07894725
EXTRACT: note_on channel=9 note=42 velocity=99 time=0
EXTRACT: note_on channel=4 note=66 velocity=58 time=0
EXTRACT: note_on channel=4 note=62 velocity=57 time=0
EXTRACT: note_on channel=4 note=59 velocity=57 time=0
EXTRACT: note_on channel=8 note=52 velocity=101 time=0
EXTRACT: note_on channel=8 note=64 velocity=120 time=0
EXTRACT: note_on channel=3 note=59 velocity=0 time=0.005263149999999999
EXTRACT: note_on channel=9 note=36 velocity=0 time=0.04736835
EXTRACT: note_on channel=9 note=42 velocity=0 time=0
EXTRACT: note_on channel=4 note=66 velocity=0 time=0.02631575
EXTRACT: note_on channel=4 note=62 velocity=0 time=0
EXTRACT: note_on channel=4 note=59 velocity=0 time=0
EXTRACT: note_on channel=2 note=62 velocity=113 time=0.07368409999999999
EXTRACT: note_on channel=9 note=69 velocity=73 time=0.005263149999999999
EXTRACT: note_on channel=3 note=62 velocity=117 time=0.005263149999999999
EXTRACT: note_on channel=9 note=69 velocity=0 time=0.04736835
EXTRACT: note_on channel=9 note=42 velocity=91 time=0.105263
EXTRACT: note_on channel=9 note=69 velocity=78 time=0
EXTRACT: note_on channel=1 note=35 velocity=115 time=0
EXTRACT: note_on channel=4 note=66 velocity=107 time=0
EXTRACT: note_on channel=4 note=62 velocity=94 time=0
EXTRACT: note_on channel=4 note=59 velocity=108 time=0
EXTRACT: note_on channel=4 note=54 velocity=109 time=0
EXTRACT: note_on channel=4 note=47 velocity=113 time=0
EXTRACT: note_on channel=7 note=66 velocity=80 time=0
EXTRACT: note_on channel=7 note=62 velocity=111 time=0
EXTRACT: note_on channel=7 note=59 velocity=90 time=0
EXTRACT: note_on channel=7 note=54 velocity=107 time=0
EXTRACT: note_on channel=7 note=47 velocity=99 time=0
EXTRACT: note_on channel=8 note=52 velocity=0 time=0
EXTRACT: note_on channel=8 note=64 velocity=0 time=0
EXTRACT: note_on channel=8 note=50 velocity=95 time=0
EXTRACT: note_on channel=8 note=62 velocity=125 time=0
EXTRACT: note_on channel=3 note=62 velocity=0 time=0.005263149999999999
EXTRACT: note_on channel=9 note=42 velocity=0 time=0.04736835
EXTRACT: note_on channel=9 note=69 velocity=0 time=0
EXTRACT: note_on channel=2 note=66 velocity=112 time=0.09999984999999999
EXTRACT: note_on channel=1 note=35 velocity=0 time=0.005263149999999999
EXTRACT: note_on channel=4 note=66 velocity=0 time=0
EXTRACT: note_on channel=4 note=62 velocity=0 time=0
EXTRACT: note_on channel=4 note=59 velocity=0 time=0
EXTRACT: note_on channel=4 note=54 velocity=0 time=0
EXTRACT: note_on channel=4 note=47 velocity=0 time=0
EXTRACT: note_on channel=7 note=66 velocity=0 time=0
EXTRACT: note_on channel=7 note=62 velocity=0 time=0
EXTRACT: note_on channel=7 note=59 velocity=0 time=0
EXTRACT: note_on channel=7 note=54 velocity=0 time=0
EXTRACT: note_on channel=7 note=47 velocity=0 time=0
EXTRACT: note_on channel=8 note=50 velocity=0 time=0
EXTRACT: note_on channel=8 note=62 velocity=0 time=0
EXTRACT: note_on channel=3 note=62 velocity=115 time=0.005263149999999999
EXTRACT: note_on channel=2 note=66 velocity=108 time=0.14736819999999998
EXTRACT: note_on channel=9 note=40 velocity=127 time=0.005263149999999999
EXTRACT: note_on channel=9 note=42 velocity=106 time=0
EXTRACT: note_on channel=9 note=69 velocity=66 time=0
EXTRACT: note_on channel=8 note=54 velocity=91 time=0
EXTRACT: note_on channel=8 note=66 velocity=126 time=0
EXTRACT: note_on channel=9 note=40 velocity=0 time=0.0526315
EXTRACT: note_on channel=9 note=42 velocity=0 time=0
EXTRACT: note_on channel=9 note=69 velocity=0 time=0
EXTRACT: note_on channel=4 note=66 velocity=65 time=0.105263
EXTRACT: note_on channel=4 note=62 velocity=45 time=0
EXTRACT: note_on channel=4 note=59 velocity=59 time=0
EXTRACT: note_on channel=8 note=54 velocity=0 time=0
EXTRACT: note_on channel=8 note=66 velocity=0 time=0
EXTRACT: note_on channel=4 note=66 velocity=0 time=0.07894725
EXTRACT: note_on channel=4 note=62 velocity=0 time=0
EXTRACT: note_on channel=4 note=59 velocity=0 time=0
EXTRACT: note_on channel=2 note=62 velocity=122 time=0.07368409999999999
EXTRACT: note_on channel=9 note=36 velocity=90 time=0.005263149999999999
EXTRACT: note_on channel=9 note=42 velocity=101 time=0
EXTRACT: note_on channel=1 note=38 velocity=121 time=0
EXTRACT: note_on channel=4 note=66 velocity=51 time=0
EXTRACT: note_on channel=4 note=62 velocity=71 time=0
EXTRACT: note_on channel=4 note=59 velocity=74 time=0
EXTRACT: note_on channel=4 note=54 velocity=58 time=0
EXTRACT: note_on channel=4 note=47 velocity=74 time=0
EXTRACT: note_on channel=8 note=47 velocity=99 time=0
EXTRACT: note_on channel=8 note=59 velocity=116 time=0
EXTRACT: note_on channel=9 note=36 velocity=0 time=0.0526315
EXTRACT: note_on channel=9 note=42 velocity=0 time=0
EXTRACT: note_on channel=4 note=66 velocity=0 time=0.02631575
EXTRACT: note_on channel=4 note=62 velocity=0 time=0
EXTRACT: note_on channel=4 note=59 velocity=0 time=0
EXTRACT: note_on channel=4 note=54 velocity=0 time=0
EXTRACT: note_on channel=4 note=47 velocity=0 time=0
EXTRACT: note_on channel=9 note=40 velocity=127 time=0.07894725
EXTRACT: note_on channel=1 note=38 velocity=0 time=0
EXTRACT: note_on channel=9 note=40 velocity=0 time=0.0526315
EXTRACT: note_on channel=2 note=47 velocity=0 time=0.09999984999999999
EXTRACT: note_on channel=2 note=62 velocity=0 time=0
EXTRACT: note_on channel=2 note=66 velocity=0 time=0
EXTRACT: note_on channel=2 note=62 velocity=0 time=0
EXTRACT: note_on channel=2 note=59 velocity=0 time=0
EXTRACT: note_on channel=2 note=62 velocity=0 time=0
EXTRACT: note_on channel=2 note=66 velocity=0 time=0
EXTRACT: note_on channel=2 note=66 velocity=0 time=0
EXTRACT: note_on channel=2 note=62 velocity=0 time=0
EXTRACT: note_on channel=2 note=40 velocity=114 time=0
EXTRACT: note_on channel=9 note=42 velocity=109 time=0.005263149999999999
EXTRACT: note_on channel=9 note=36 velocity=120 time=0
EXTRACT: note_on channel=1 note=40 velocity=109 time=0
EXTRACT: note_on channel=4 note=67 velocity=117 time=0
EXTRACT: note_on channel=4 note=62 velocity=117 time=0
EXTRACT: note_on channel=4 note=59 velocity=104 time=0
EXTRACT: note_on channel=4 note=55 velocity=88 time=0
EXTRACT: note_on channel=4 note=47 velocity=109 time=0
EXTRACT: note_on channel=5 note=90 velocity=0 time=0
EXTRACT: note_on channel=5 note=78 velocity=0 time=0
EXTRACT: note_on channel=5 note=91 velocity=101 time=0
EXTRACT: note_on channel=5 note=79 velocity=103 time=0
EXTRACT: note_on channel=6 note=59 velocity=0 time=0
EXTRACT: note_on channel=6 note=62 velocity=0 time=0
EXTRACT: note_on channel=6 note=66 velocity=0 time=0
EXTRACT: note_on channel=6 note=59 velocity=122 time=0
EXTRACT: note_on channel=6 note=62 velocity=109 time=0
EXTRACT: note_on channel=6 note=67 velocity=125 time=0
EXTRACT: note_on channel=7 note=67 velocity=101 time=0
EXTRACT: note_on channel=7 note=62 velocity=88 time=0
EXTRACT: note_on channel=7 note=59 velocity=104 time=0
EXTRACT: note_on channel=7 note=55 velocity=84 time=0
EXTRACT: note_on channel=7 note=47 velocity=103 time=0
EXTRACT: note_on channel=3 note=62 velocity=0 time=0.005263149999999999
EXTRACT: note_on channel=9 note=42 velocity=0 time=0.04736835
EXTRACT: note_on channel=9 note=36 velocity=0 time=0
EXTRACT: note_on channel=1 note=40 velocity=0 time=0.07894725
EXTRACT: note_on channel=2 note=62 velocity=106 time=0.17894709999999997
EXTRACT: note_on channel=9 note=42 velocity=109 time=0.005263149999999999
EXTRACT: note_on channel=1 note=40 velocity=115 time=0
EXTRACT: note_on channel=4 note=67 velocity=0 time=0
EXTRACT: note_on channel=4 note=62 velocity=0 time=0
EXTRACT: note_on channel=4 note=59 velocity=0 time=0
EXTRACT: note_on channel=4 note=55 velocity=0 time=0
EXTRACT: note_on channel=4 note=47 velocity=0 time=0
EXTRACT: note_on channel=7 note=67 velocity=0 time=0
EXTRACT: note_on channel=7 note=62 velocity=0 time=0
EXTRACT: note_on channel=7 note=59 velocity=0 time=0
EXTRACT: note_on channel=7 note=55 velocity=0 time=0
EXTRACT: note_on channel=7 note=47 velocity=0 time=0
EXTRACT: note_on channel=8 note=47 velocity=0 time=0
EXTRACT: note_on channel=8 note=59 velocity=0 time=0
EXTRACT: note_on channel=8 note=52 velocity=98 time=0
EXTRACT: note_on channel=8 note=64 velocity=124 time=0
EXTRACT: note_on channel=3 note=62 velocity=115 time=0.005263149999999999
EXTRACT: note_on channel=9 note=42 velocity=0 time=0.04736835
EXTRACT: note_on channel=1 note=40 velocity=0 time=0.09999984999999999
EXTRACT: note_on channel=2 note=67 velocity=110 time=0
EXTRACT: note_on channel=1 note=35 velocity=113 time=0.005263149999999999
EXTRACT: note_on channel=4 note=67 velocity=109 time=0
EXTRACT: note_on channel=4 note=62 velocity=104 time=0
EXTRACT: note_on channel=4 note=59 velocity=106 time=0
EXTRACT: note_on channel=4 note=55 velocity=103 time=0
EXTRACT: note_on channel=4 note=47 velocity=85 time=0
EXTRACT: note_on channel=7 note=67 velocity=78 time=0
EXTRACT: note_on channel=7 note=62 velocity=101 time=0
EXTRACT: note_on channel=7 note=59 velocity=100 time=0
EXTRACT: note_on channel=7 note=55 velocity=88 time=0
EXTRACT: note_on channel=7 note=47 velocity=95 time=0
EXTRACT: note_on channel=8 note=52 velocity=0 time=0
EXTRACT: note_on channel=8 note=64 velocity=0 time=0
EXTRACT: note_on channel=9 note=42 velocity=90 time=0.1578945
EXTRACT: note_on channel=9 note=40 velocity=127 time=0
EXTRACT: note_on channel=9 note=69 velocity=62 time=0
EXTRACT: note_on channel=1 note=35 velocity=0 time=0
EXTRACT: note_on channel=4 note=67 velocity=0 time=0
EXTRACT: note_on channel=4 note=62 velocity=0 time=0
EXTRACT: note_on channel=4 note=59 velocity=0 time=0
EXTRACT: note_on channel=4 note=55 velocity=0 time=0
EXTRACT: note_on channel=4 note=47 velocity=0 time=0
EXTRACT: note_on channel=7 note=67 velocity=0 time=0
EXTRACT: note_on channel=7 note=62 velocity=0 time=0
EXTRACT: note_on channel=7 note=59 velocity=0 time=0
EXTRACT: note_on channel=7 note=55 velocity=0 time=0
EXTRACT: note_on channel=7 note=47 velocity=0 time=0
EXTRACT: note_on channel=8 note=52 velocity=93 time=0
EXTRACT: note_on channel=8 note=64 velocity=127 time=0
EXTRACT: note_on channel=3 note=62 velocity=0 time=0.005263149999999999
EXTRACT: note_on channel=9 note=42 velocity=0 time=0.04736835
EXTRACT: note_on channel=9 note=40 velocity=0 time=0
EXTRACT: note_on channel=9 note=69 velocity=0 time=0
EXTRACT: note_on channel=2 note=62 velocity=126 time=0.09999984999999999
EXTRACT: note_on channel=9 note=69 velocity=70 time=0.005263149999999999
EXTRACT: note_on channel=1 note=35 velocity=108 time=0
EXTRACT: note_on channel=4 note=67 velocity=57 time=0
EXTRACT: note_on channel=4 note=62 velocity=68 time=0
EXTRACT: note_on channel=4 note=59 velocity=90 time=0
EXTRACT: note_on channel=4 note=55 velocity=56 time=0
EXTRACT: note_on channel=4 note=47 velocity=70 time=0
EXTRACT: note_on channel=3 note=62 velocity=122 time=0.005263149999999999
EXTRACT: note_on channel=9 note=69 velocity=0 time=0.04736835
EXTRACT: note_on channel=4 note=67 velocity=0 time=0.02631575
EXTRACT: note_on channel=4 note=62 velocity=0 time=0
EXTRACT: note_on channel=4 note=59 velocity=0 time=0
EXTRACT: note_on channel=4 note=55 velocity=0 time=0
EXTRACT: note_on channel=4 note=47 velocity=0 time=0
EXTRACT: note_on channel=1 note=35 velocity=0 time=0.07368409999999999
EXTRACT: note_on channel=9 note=42 velocity=91 time=0.005263149999999999
EXTRACT: note_on channel=1 note=31 velocity=122 time=0
EXTRACT: note_on channel=4 note=67 velocity=48 time=0
EXTRACT: note_on channel=4 note=62 velocity=44 time=0
EXTRACT: note_on channel=4 note=59 velocity=53 time=0
EXTRACT: note_on channel=3 note=62 velocity=0 time=0.005263149999999999
EXTRACT: note_on channel=3 note=61 velocity=113 time=0
EXTRACT: note_on channel=9 note=42 velocity=0 time=0.04736835
EXTRACT: note_on channel=4 note=67 velocity=0 time=0.02631575
EXTRACT: note_on channel=4 note=62 velocity=0 time=0
EXTRACT: note_on channel=4 note=59 velocity=0 time=0
EXTRACT: note_on channel=2 note=59 velocity=122 time=0.07368409999999999
EXTRACT: note_on channel=9 note=69 velocity=62 time=0.005263149999999999
EXTRACT: note_on channel=1 note=31 velocity=0 time=0
EXTRACT: note_on channel=4 note=67 velocity=70 time=0
EXTRACT: note_on channel=4 note=62 velocity=83 time=0
EXTRACT: note_on channel=4 note=59 velocity=83 time=0
EXTRACT: note_on channel=4 note=55 velocity=64 time=0
EXTRACT: note_on channel=4 note=47 velocity=65 time=0
EXTRACT: note_on channel=3 note=61 velocity=0 time=0.005263149999999999
EXTRACT: note_on channel=3 note=59 velocity=113 time=0
EXTRACT: note_on channel=9 note=69 velocity=0 time=0.04736835
EXTRACT: note_on channel=4 note=67 velocity=0 time=0.02631575
EXTRACT: note_on channel=4 note=62 velocity=0 time=0
EXTRACT: note_on channel=4 note=59 velocity=0 time=0
EXTRACT: note_on channel=4 note=55 velocity=0 time=0
EXTRACT: note_on channel=4 note=47 velocity=0 time=0
EXTRACT: note_on channel=9 note=36 velocity=120 time=0.07894725
EXTRACT: note_on channel=9 note=42 velocity=101 time=0
EXTRACT: note_on channel=1 note=28 velocity=111 time=0
EXTRACT: note_on channel=4 note=67 velocity=50 time=0
EXTRACT: note_on channel=4 note=62 velocity=67 time=0
EXTRACT: note_on channel=4 note=59 velocity=65 time=0
EXTRACT: note_on channel=3 note=59 velocity=0 time=0.005263149999999999
EXTRACT: note_on channel=9 note=36 velocity=0 time=0.04736835
EXTRACT: note_on channel=9 note=42 velocity=0 time=0
EXTRACT: note_on channel=4 note=67 velocity=0 time=0.02631575
EXTRACT: note_on channel=4 note=62 velocity=0 time=0
EXTRACT: note_on channel=4 note=59 velocity=0 time=0
EXTRACT: note_on channel=2 note=62 velocity=127 time=0.07368409999999999
EXTRACT: note_on channel=9 note=69 velocity=73 time=0.005263149999999999
EXTRACT: note_on channel=3 note=62 velocity=119 time=0.005263149999999999
EXTRACT: note_on channel=9 note=69 velocity=0 time=0.04736835
EXTRACT: note_on channel=9 note=42 velocity=107 time=0.105263
EXTRACT: note_on channel=9 note=69 velocity=78 time=0
EXTRACT: note_on channel=1 note=28 velocity=0 time=0
EXTRACT: note_on channel=4 note=67 velocity=117 time=0
EXTRACT: note_on channel=4 note=62 velocity=94 time=0
EXTRACT: note_on channel=4 note=59 velocity=87 time=0
EXTRACT: note_on channel=4 note=55 velocity=91 time=0
EXTRACT: note_on channel=4 note=47 velocity=111 time=0
EXTRACT: note_on channel=7 note=67 velocity=83 time=0
EXTRACT: note_on channel=7 note=62 velocity=98 time=0
EXTRACT: note_on channel=7 note=59 velocity=107 time=0
EXTRACT: note_on channel=7 note=55 velocity=81 time=0
EXTRACT: note_on channel=7 note=47 velocity=110 time=0
EXTRACT: note_on channel=3 note=62 velocity=0 time=0.005263149999999999
EXTRACT: note_on channel=9 note=42 velocity=0 time=0.04736835
EXTRACT: note_on channel=9 note=69 velocity=0 time=0
EXTRACT: note_on channel=2 note=67 velocity=116 time=0.09999984999999999
EXTRACT: note_on channel=4 note=67 velocity=0 time=0.005263149999999999
EXTRACT: note_on channel=4 note=62 velocity=0 time=0
EXTRACT: note_on channel=4 note=59 velocity=0 time=0
EXTRACT: note_on channel=4 note=55 velocity=0 time=0
EXTRACT: note_on channel=4 note=47 velocity=0 time=0
EXTRACT: note_on channel=7 note=67 velocity=0 time=0
EXTRACT: note_on channel=7 note=62 velocity=0 time=0
EXTRACT: note_on channel=7 note=59 velocity=0 time=0
EXTRACT: note_on channel=7 note=55 velocity=0 time=0
EXTRACT: note_on channel=7 note=47 velocity=0 time=0
EXTRACT: note_on channel=3 note=62 velocity=124 time=0.005263149999999999
EXTRACT: note_on channel=2 note=67 velocity=127 time=0.14736819999999998
EXTRACT: note_on channel=9 note=40 velocity=127 time=0.005263149999999999
EXTRACT: note_on channel=9 note=42 velocity=108 time=0
EXTRACT: note_on channel=9 note=69 velocity=66 time=0
EXTRACT: note_on channel=5 note=91 velocity=0 time=0
EXTRACT: note_on channel=5 note=79 velocity=0 time=0
EXTRACT: note_on channel=5 note=86 velocity=113 time=0
EXTRACT: note_on channel=5 note=74 velocity=115 time=0
EXTRACT: note_on channel=9 note=40 velocity=0 time=0.0526315
EXTRACT: note_on channel=9 note=42 velocity=0 time=0
EXTRACT: note_on channel=9 note=69 velocity=0 time=0
EXTRACT: note_on channel=4 note=67 velocity=56 time=0.105263
EXTRACT: note_on channel=4 note=62 velocity=55 time=0
EXTRACT: note_on channel=4 note=59 velocity=62 time=0
EXTRACT: note_on channel=5 note=86 velocity=0 time=0
EXTRACT: note_on channel=5 note=74 velocity=0 time=0
EXTRACT: note_on channel=5 note=73 velocity=106 time=0
EXTRACT: note_on channel=5 note=85 velocity=114 time=0
EXTRACT: note_on channel=4 note=67 velocity=0 time=0.07894725
EXTRACT: note_on channel=4 note=62 velocity=0 time=0
EXTRACT: note_on channel=4 note=59 velocity=0 time=0
EXTRACT: note_on channel=2 note=62 velocity=126 time=0.07368409999999999
EXTRACT: note_on channel=9 note=42 velocity=100 time=0.005263149999999999
EXTRACT: note_on channel=1 note=28 velocity=116 time=0
EXTRACT: note_on channel=4 note=67 velocity=51 time=0
EXTRACT: note_on channel=4 note=62 velocity=55 time=0
EXTRACT: note_on channel=4 note=59 velocity=77 time=0
EXTRACT: note_on channel=4 note=55 velocity=54 time=0
EXTRACT: note_on channel=4 note=47 velocity=90 time=0
EXTRACT: note_on channel=5 note=73 velocity=0 time=0
EXTRACT: note_on channel=5 note=85 velocity=0 time=0
EXTRACT: note_on channel=5 note=71 velocity=102 time=0
EXTRACT: note_on channel=5 note=83 velocity=99 time=0
EXTRACT: note_on channel=9 note=42 velocity=0 time=0.0526315
EXTRACT: note_on channel=4 note=67 velocity=0 time=0.02631575
EXTRACT: note_on channel=4 note=62 velocity=0 time=0
EXTRACT: note_on channel=4 note=59 velocity=0 time=0
EXTRACT: note_on channel=4 note=55 velocity=0 time=0
EXTRACT: note_on channel=4 note=47 velocity=0 time=0
EXTRACT: note_on channel=1 note=28 velocity=0 time=0.07894725
EXTRACT: note_on channel=5 note=71 velocity=0 time=0
EXTRACT: note_on channel=5 note=83 velocity=0 time=0
EXTRACT: note_on channel=5 note=85 velocity=113 time=0
EXTRACT: note_on channel=5 note=73 velocity=104 time=0
EXTRACT: note_on channel=2 note=40 velocity=0 time=0.15263134999999997
EXTRACT: note_on channel=2 note=62 velocity=0 time=0
EXTRACT: note_on channel=2 note=67 velocity=0 time=0
EXTRACT: note_on channel=2 note=62 velocity=0 time=0
EXTRACT: note_on channel=2 note=59 velocity=0 time=0
EXTRACT: note_on channel=2 note=62 velocity=0 time=0
EXTRACT: note_on channel=2 note=67 velocity=0 time=0
EXTRACT: note_on channel=2 note=67 velocity=0 time=0
EXTRACT: note_on channel=2 note=62 velocity=0 time=0
EXTRACT: note_on channel=2 note=57 velocity=116 time=0
EXTRACT: note_on channel=2 note=54 velocity=119 time=0
EXTRACT: note_on channel=9 note=42 velocity=91 time=0.005263149999999999
EXTRACT: note_on channel=9 note=36 velocity=120 time=0
EXTRACT: note_on channel=1 note=30 velocity=117 time=0
EXTRACT: note_on channel=4 note=64 velocity=90 time=0
EXTRACT: note_on channel=4 note=61 velocity=92 time=0
EXTRACT: note_on channel=4 note=57 velocity=117 time=0
EXTRACT: note_on channel=4 note=54 velocity=115 time=0
EXTRACT: note_on channel=5 note=85 velocity=0 time=0
EXTRACT: note_on channel=5 note=73 velocity=0 time=0
EXTRACT: note_on channel=5 note=74 velocity=112 time=0
EXTRACT: note_on channel=5 note=86 velocity=104 time=0
EXTRACT: note_on channel=6 note=59 velocity=0 time=0
EXTRACT: note_on channel=6 note=62 velocity=0 time=0
EXTRACT: note_on channel=6 note=67 velocity=0 time=0
EXTRACT: note_on channel=6 note=57 velocity=109 time=0
EXTRACT: note_on channel=6 note=61 velocity=114 time=0
EXTRACT: note_on channel=6 note=66 velocity=126 time=0
EXTRACT: note_on channel=7 note=64 velocity=86 time=0
EXTRACT: note_on channel=7 note=61 velocity=109 time=0
EXTRACT: note_on channel=7 note=57 velocity=76 time=0
EXTRACT: note_on channel=7 note=54 velocity=109 time=0
EXTRACT: note_on channel=8 note=52 velocity=0 time=0
EXTRACT: note_on channel=8 note=64 velocity=0 time=0
EXTRACT: note_on channel=3 note=62 velocity=0 time=0.005263149999999999
EXTRACT: note_on channel=9 note=42 velocity=0 time=0.04736835
EXTRACT: note_on channel=9 note=36 velocity=0 time=0
EXTRACT: note_on channel=1 note=30 velocity=0 time=0.15263134999999997
EXTRACT: note_on channel=1 note=30 velocity=115 time=0.005263149999999999
EXTRACT: note_on channel=2 note=61 velocity=122 time=0.09999984999999999
EXTRACT: note_on channel=9 note=42 velocity=110 time=0.005263149999999999
EXTRACT: note_on channel=4 note=64 velocity=0 time=0
EXTRACT: note_on channel=4 note=61 velocity=0 time=0
EXTRACT: note_on channel=4 note=57 velocity=0 time=0
EXTRACT: note_on channel=4 note=54 velocity=0 time=0
EXTRACT: note_on channel=7 note=64 velocity=0 time=0
EXTRACT: note_on channel=7 note=61 velocity=0 time=0
EXTRACT: note_on channel=7 note=57 velocity=0 time=0
EXTRACT: note_on channel=7 note=54 velocity=0 time=0
EXTRACT: note_on channel=3 note=61 velocity=102 time=0.005263149999999999
EXTRACT: note_on channel=9 note=42 velocity=0 time=0.04736835
EXTRACT: note_on channel=1 note=30 velocity=0 time=0.04736835
EXTRACT: note_on channel=1 note=30 velocity=125 time=0.005263149999999999
EXTRACT: note_on channel=2 note=64 velocity=123 time=0.04736835
EXTRACT: note_on channel=4 note=64 velocity=114 time=0.005263149999999999
EXTRACT: note_on channel=4 note=61 velocity=111 time=0
EXTRACT: note_on channel=4 note=57 velocity=91 time=0
EXTRACT: note_on channel=4 note=54 velocity=112 time=0
EXTRACT: note_on channel=7 note=64 velocity=104 time=0
EXTRACT: note_on channel=7 note=61 velocity=87 time=0
EXTRACT: note_on channel=7 note=57 velocity=88 time=0
EXTRACT: note_on channel=7 note=54 velocity=78 time=0
EXTRACT: note_on channel=1 note=30 velocity=0 time=0.15263134999999997
EXTRACT: note_on channel=9 note=42 velocity=95 time=0.005263149999999999
EXTRACT: note_on channel=9 note=40 velocity=127 time=0
EXTRACT: note_on channel=9 note=69 velocity=62 time=0
EXTRACT: note_on channel=1 note=37 velocity=111 time=0
EXTRACT: note_on channel=4 note=64 velocity=0 time=0
EXTRACT: note_on channel=4 note=61 velocity=0 time=0
EXTRACT: note_on channel=4 note=57 velocity=0 time=0
EXTRACT: note_on channel=4 note=54 velocity=0 time=0
EXTRACT: note_on channel=5 note=74 velocity=0 time=0
EXTRACT: note_on channel=5 note=86 velocity=0 time=0
EXTRACT: note_on channel=5 note=85 velocity=100 time=0
EXTRACT: note_on channel=5 note=73 velocity=106 time=0
EXTRACT: note_on channel=7 note=64 velocity=0 time=0
EXTRACT: note_on channel=7 note=61 velocity=0 time=0
EXTRACT: note_on channel=7 note=57 velocity=0 time=0
EXTRACT: note_on channel=7 note=54 velocity=0 time=0
EXTRACT: note_on channel=3 note=61 velocity=0 time=0.005263149999999999
EXTRACT: note_on channel=9 note=42 velocity=0 time=0.04736835
EXTRACT: note_on channel=9 note=40 velocity=0 time=0
EXTRACT: note_on channel=9 note=69 velocity=0 time=0
EXTRACT: note_on channel=2 note=61 velocity=126 time=0.09999984999999999
EXTRACT: note_on channel=9 note=69 velocity=70 time=0.005263149999999999
EXTRACT: note_on channel=4 note=64 velocity=53 time=0
EXTRACT: note_on channel=4 note=61 velocity=83 time=0
EXTRACT: note_on channel=4 note=57 velocity=87 time=0
EXTRACT: note_on channel=4 note=54 velocity=79 time=0
EXTRACT: note_on channel=3 note=61 velocity=103 time=0.005263149999999999
EXTRACT: note_on channel=9 note=69 velocity=0 time=0.04736835
EXTRACT: note_on channel=1 note=37 velocity=0 time=0.02631575
EXTRACT: note_on channel=4 note=64 velocity=0 time=0
EXTRACT: note_on channel=4 note=61 velocity=0 time=0
EXTRACT: note_on channel=4 note=57 velocity=0 time=0
EXTRACT: note_on channel=4 note=54 velocity=0 time=0
EXTRACT: note_on channel=9 note=42 velocity=103 time=0.07894725
EXTRACT: note_on channel=1 note=42 velocity=110 time=0
EXTRACT: note_on channel=4 note=64 velocity=46 time=0
EXTRACT: note_on channel=4 note=61 velocity=44 time=0
EXTRACT: note_on channel=4 note=57 velocity=52 time=0
EXTRACT: note_on channel=9 note=42 velocity=0 time=0.0526315
EXTRACT: note_on channel=4 note=64 velocity=0 time=0.02631575
EXTRACT: note_on channel=4 note=61 velocity=0 time=0
EXTRACT: note_on channel=4 note=57 velocity=0 time=0
EXTRACT: note_on channel=2 note=57 velocity=119 time=0.07368409999999999
EXTRACT: note_on channel=9 note=69 velocity=62 time=0.005263149999999999
EXTRACT: note_on channel=4 note=64 velocity=82 time=0
EXTRACT: note_on channel=4 note=61 velocity=84 time=0
EXTRACT: note_on channel=4 note=57 velocity=60 time=0
EXTRACT: note_on channel=4 note=54 velocity=83 time=0
EXTRACT: note_on channel=3 note=61 velocity=0 time=0.005263149999999999
EXTRACT: note_on channel=9 note=69 velocity=0 time=0.04736835
EXTRACT: note_on channel=1 note=42 velocity=0 time=0.02631575
EXTRACT: note_on channel=4 note=64 velocity=0 time=0
EXTRACT: note_on channel=4 note=61 velocity=0 time=0
EXTRACT: note_on channel=4 note=57 velocity=0 time=0
EXTRACT: note_on channel=4 note=54 velocity=0 time=0
EXTRACT: note_on channel=2 note=61 velocity=125 time=0.07368409999999999
EXTRACT: note_on channel=9 note=36 velocity=120 time=0.005263149999999999
EXTRACT: note_on channel=9 note=42 velocity=98 time=0
EXTRACT: note_on channel=1 note=37 velocity=126 time=0
EXTRACT: note_on channel=4 note=64 velocity=47 time=0
EXTRACT: note_on channel=4 note=61 velocity=65 time=0
EXTRACT: note_on channel=4 note=57 velocity=57 time=0
EXTRACT: note_on channel=5 note=85 velocity=0 time=0
EXTRACT: note_on channel=5 note=73 velocity=0 time=0
EXTRACT: note_on channel=5 note=71 velocity=115 time=0
EXTRACT: note_on channel=5 note=83 velocity=103 time=0
EXTRACT: note_on channel=3 note=61 velocity=115 time=0.005263149999999999
EXTRACT: note_on channel=9 note=36 velocity=0 time=0.04736835
EXTRACT: note_on channel=9 note=42 velocity=0 time=0
EXTRACT: note_on channel=4 note=64 velocity=0 time=0.02631575
EXTRACT: note_on channel=4 note=61 velocity=0 time=0
EXTRACT: note_on channel=4 note=57 velocity=0 time=0
EXTRACT: note_on channel=2 note=64 velocity=106 time=0.07368409999999999
EXTRACT: note_on channel=9 note=69 velocity=73 time=0.005263149999999999
EXTRACT: note_on channel=9 note=69 velocity=0 time=0.0526315
EXTRACT: note_on channel=2 note=66 velocity=109 time=0.09999984999999999
EXTRACT: note_on channel=9 note=36 velocity=120 time=0.005263149999999999
EXTRACT: note_on channel=9 note=42 velocity=108 time=0
EXTRACT: note_on channel=9 note=69 velocity=78 time=0
EXTRACT: note_on channel=4 note=64 velocity=93 time=0
EXTRACT: note_on channel=4 note=61 velocity=115 time=0
EXTRACT: note_on channel=4 note=57 velocity=92 time=0
EXTRACT: note_on channel=4 note=54 velocity=95 time=0
EXTRACT: note_on channel=7 note=64 velocity=74 time=0
EXTRACT: note_on channel=7 note=61 velocity=82 time=0
EXTRACT: note_on channel=7 note=57 velocity=93 time=0
EXTRACT: note_on channel=7 note=54 velocity=78 time=0
EXTRACT: note_on channel=9 note=36 velocity=0 time=0.0526315
EXTRACT: note_on channel=9 note=42 velocity=0 time=0
EXTRACT: note_on channel=9 note=69 velocity=0 time=0
EXTRACT: note_on channel=1 note=37 velocity=0 time=0.04736835
EXTRACT: note_on channel=1 note=42 velocity=117 time=0.005263149999999999
EXTRACT: note_on channel=2 note=69 velocity=125 time=0.04736835
EXTRACT: note_on channel=4 note=64 velocity=0 time=0.005263149999999999
EXTRACT: note_on channel=4 note=61 velocity=0 time=0
EXTRACT: note_on channel=4 note=57 velocity=0 time=0
EXTRACT: note_on channel=4 note=54 velocity=0 time=0
EXTRACT: note_on channel=7 note=64 velocity=0 time=0
EXTRACT: note_on channel=7 note=61 velocity=0 time=0
EXTRACT: note_on channel=7 note=57 velocity=0 time=0
EXTRACT: note_on channel=7 note=54 velocity=0 time=0
EXTRACT: note_on channel=9 note=40 velocity=127 time=0.1578945
EXTRACT: note_on channel=9 note=42 velocity=92 time=0
EXTRACT: note_on channel=9 note=69 velocity=66 time=0
EXTRACT: note_on channel=5 note=71 velocity=0 time=0
EXTRACT: note_on channel=5 note=83 velocity=0 time=0
EXTRACT: note_on channel=5 note=81 velocity=108 time=0
EXTRACT: note_on channel=5 note=69 velocity=112 time=0
EXTRACT: note_on channel=8 note=50 velocity=101 time=0
EXTRACT: note_on channel=8 note=62 velocity=115 time=0
EXTRACT: note_on channel=9 note=40 velocity=0 time=0.0526315
EXTRACT: note_on channel=9 note=42 velocity=0 time=0
EXTRACT: note_on channel=9 note=69 velocity=0 time=0
EXTRACT: note_on channel=4 note=64 velocity=44 time=0.105263
EXTRACT: note_on channel=4 note=61 velocity=46 time=0
EXTRACT: note_on channel=4 note=57 velocity=47 time=0
EXTRACT: note_on channel=8 note=50 velocity=0 time=0
EXTRACT: note_on channel=8 note=62 velocity=0 time=0
EXTRACT: note_on channel=1 note=42 velocity=0 time=0.04736835
EXTRACT: note_on channel=1 note=49 velocity=122 time=0.005263149999999999
EXTRACT: note_on channel=4 note=64 velocity=0 time=0.02631575
EXTRACT: note_on channel=4 note=61 velocity=0 time=0
EXTRACT: note_on channel=4 note=57 velocity=0 time=0
EXTRACT: note_on channel=9 note=36 velocity=90 time=0.07894725
EXTRACT: note_on channel=9 note=42 velocity=96 time=0
EXTRACT: note_on channel=4 note=64 velocity=81 time=0
EXTRACT: note_on channel=4 note=61 velocity=63 time=0
EXTRACT: note_on channel=4 note=57 velocity=51 time=0
EXTRACT: note_on channel=4 note=54 velocity=70 time=0
EXTRACT: note_on channel=8 note=54 velocity=86 time=0
EXTRACT: note_on channel=8 note=66 velocity=124 time=0
EXTRACT: note_on channel=3 note=61 velocity=114 time=0.005263149999999999
EXTRACT: note_on channel=9 note=36 velocity=0 time=0.04736835
EXTRACT: note_on channel=9 note=42 velocity=0 time=0
EXTRACT: note_on channel=4 note=64 velocity=0 time=0.02631575
EXTRACT: note_on channel=4 note=61 velocity=0 time=0
EXTRACT: note_on channel=4 note=57 velocity=0 time=0
EXTRACT: note_on channel=4 note=54 velocity=0 time=0
EXTRACT: note_on channel=9 note=40 velocity=127 time=0.07894725
EXTRACT: note_on channel=9 note=40 velocity=0 time=0.0526315
EXTRACT: note_on channel=1 note=49 velocity=0 time=0.09999984999999999
EXTRACT: note_on channel=2 note=57 velocity=0 time=0
EXTRACT: note_on channel=2 note=54 velocity=0 time=0
EXTRACT: note_on channel=2 note=61 velocity=0 time=0
EXTRACT: note_on channel=2 note=64 velocity=0 time=0
EXTRACT: note_on channel=2 note=61 velocity=0 time=0
EXTRACT: note_on channel=2 note=57 velocity=0 time=0
EXTRACT: note_on channel=2 note=61 velocity=0 time=0
EXTRACT: note_on channel=2 note=64 velocity=0 time=0
EXTRACT: note_on channel=2 note=66 velocity=0 time=0
EXTRACT: note_on channel=2 note=69 velocity=0 time=0
EXTRACT: note_on channel=2 note=47 velocity=123 time=0
EXTRACT: note_on channel=9 note=57 velocity=90 time=0.005263149999999999
EXTRACT: note_on channel=9 note=36 velocity=120 time=0
EXTRACT: note_on channel=1 note=35 velocity=127 time=0
EXTRACT: note_on channel=4 note=66 velocity=94 time=0
EXTRACT: note_on channel=4 note=62 velocity=110 time=0
EXTRACT: note_on channel=4 note=59 velocity=92 time=0
EXTRACT: note_on channel=4 note=54 velocity=88 time=0
EXTRACT: note_on channel=4 note=47 velocity=97 time=0
EXTRACT: note_on channel=5 note=81 velocity=0 time=0
EXTRACT: note_on channel=5 note=69 velocity=0 time=0
EXTRACT: note_on channel=5 note=90 velocity=116 time=0
EXTRACT: note_on channel=5 note=78 velocity=101 time=0
EXTRACT: note_on channel=6 note=57 velocity=0 time=0
EXTRACT: note_on channel=6 note=61 velocity=0 time=0
EXTRACT: note_on channel=6 note=66 velocity=0 time=0
EXTRACT: control_change channel=6 control=11 value=40 time=0
EXTRACT: note_on channel=6 note=59 velocity=120 time=0
EXTRACT: note_on channel=6 note=62 velocity=116 time=0
EXTRACT: note_on channel=6 note=66 velocity=112 time=0
EXTRACT: note_on channel=7 note=66 velocity=95 time=0
EXTRACT: note_on channel=7 note=62 velocity=78 time=0
EXTRACT: note_on channel=7 note=59 velocity=107 time=0
EXTRACT: note_on channel=7 note=54 velocity=98 time=0
EXTRACT: note_on channel=7 note=47 velocity=79 time=0
EXTRACT: note_on channel=3 note=61 velocity=0 time=0.005263149999999999
EXTRACT: note_on channel=3 note=61 velocity=0 time=0
EXTRACT: control_change channel=6 control=11 value=41 time=0.02631575
EXTRACT: note_on channel=9 note=57 velocity=0 time=0.021052599999999998
EXTRACT: note_on channel=9 note=36 velocity=0 time=0
EXTRACT: control_change channel=6 control=11 value=42 time=0.010526299999999999
EXTRACT: control_change channel=6 control=11 value=43 time=0.03157889999999999
EXTRACT: control_change channel=6 control=11 value=44 time=0.03157889999999999
EXTRACT: note_on channel=1 note=35 velocity=0 time=0.02631575
EXTRACT: note_on channel=1 note=35 velocity=116 time=0.005263149999999999
EXTRACT: control_change channel=6 control=11 value=45 time=0
EXTRACT: control_change channel=6 control=11 value=46 time=0.03157889999999999
EXTRACT: control_change channel=6 control=11 value=47 time=0.03157889999999999
EXTRACT: control_change channel=6 control=11 value=48 time=0.03157889999999999
EXTRACT: control_change channel=6 control=11 value=49 time=0.03157889999999999
EXTRACT: note_on channel=2 note=62 velocity=124 time=0.02631575
EXTRACT: note_on channel=9 note=42 velocity=110 time=0.005263149999999999
EXTRACT: note_on channel=1 note=35 velocity=0 time=0
EXTRACT: note_on channel=4 note=66 velocity=0 time=0
EXTRACT: note_on channel=4 note=62 velocity=0 time=0
EXTRACT: note_on channel=4 note=59 velocity=0 time=0
EXTRACT: note_on channel=4 note=54 velocity=0 time=0
EXTRACT: note_on channel=4 note=47 velocity=0 time=0
EXTRACT: control_change channel=6 control=11 value=50 time=0
EXTRACT: note_on channel=7 note=66 velocity=0 time=0
EXTRACT: note_on channel=7 note=62 velocity=0 time=0
EXTRACT: note_on channel=7 note=59 velocity=0 time=0
EXTRACT: note_on channel=7 note=54 velocity=0 time=0
EXTRACT: note_on channel=7 note=47 velocity=0 time=0
EXTRACT: note_on channel=8 note=54 velocity=0 time=0
EXTRACT: note_on channel=8 note=66 velocity=0 time=0
EXTRACT: note_on channel=8 note=57 velocity=87 time=0
EXTRACT: note_on channel=8 note=69 velocity=125 time=0
EXTRACT: note_on channel=3 note=62 velocity=122 time=0.005263149999999999
EXTRACT: control_change channel=6 control=11 value=51 time=0.02631575
EXTRACT: note_on channel=9 note=42 velocity=0 time=0.021052599999999998
EXTRACT: control_change channel=6 control=11 value=52 time=0.010526299999999999
EXTRACT: control_change channel=6 control=11 value=53 time=0.03157889999999999
EXTRACT: control_change channel=6 control=11 value=54 time=0.03157889999999999
EXTRACT: note_on channel=2 note=66 velocity=123 time=0.02631575
EXTRACT: note_on channel=1 note=42 velocity=112 time=0.005263149999999999
EXTRACT: note_on channel=4 note=66 velocity=115 time=0
EXTRACT: note_on channel=4 note=62 velocity=105 time=0
EXTRACT: note_on channel=4 note=59 velocity=116 time=0
EXTRACT: note_on channel=4 note=54 velocity=104 time=0
EXTRACT: note_on channel=4 note=47 velocity=96 time=0
EXTRACT: control_change channel=6 control=11 value=55 time=0
EXTRACT: note_on channel=7 note=66 velocity=82 time=0
EXTRACT: note_on channel=7 note=62 velocity=81 time=0
EXTRACT: note_on channel=7 note=59 velocity=79 time=0
EXTRACT: note_on channel=7 note=54 velocity=89 time=0
EXTRACT: note_on channel=7 note=47 velocity=105 time=0
EXTRACT: note_on channel=8 note=57 velocity=0 time=0
EXTRACT: note_on channel=8 note=69 velocity=0 time=0
EXTRACT: control_change channel=6 control=11 value=56 time=0.03157889999999999
EXTRACT: control_change channel=6 control=11 value=57 time=0.03157889999999999
EXTRACT: control_change channel=6 control=11 value=58 time=0.03157889999999999
EXTRACT: control_change channel=6 control=11 value=59 time=0.03157889999999999
EXTRACT: note_on channel=9 note=42 velocity=93 time=0.03157889999999999
EXTRACT: note_on channel=9 note=40 velocity=127 time=0
EXTRACT: note_on channel=9 note=69 velocity=62 time=0
EXTRACT: note_on channel=1 note=42 velocity=0 time=0
EXTRACT: note_on channel=4 note=66 velocity=0 time=0
EXTRACT: note_on channel=4 note=62 velocity=0 time=0
EXTRACT: note_on channel=4 note=59 velocity=0 time=0
EXTRACT: note_on channel=4 note=54 velocity=0 time=0
EXTRACT: note_on channel=4 note=47 velocity=0 time=0
EXTRACT: control_change channel=6 control=11 value=60 time=0
EXTRACT: note_on channel=7 note=66 velocity=0 time=0
EXTRACT: note_on channel=7 note=62 velocity=0 time=0
EXTRACT: note_on channel=7 note=59 velocity=0 time=0
EXTRACT: note_on channel=7 note=54 velocity=0 time=0
EXTRACT: note_on channel=7 note=47 velocity=0 time=0
EXTRACT: note_on channel=8 note=55 velocity=98 time=0
EXTRACT: note_on channel=8 note=67 velocity=120 time=0
EXTRACT: note_on channel=3 note=62 velocity=0 time=0.005263149999999999
EXTRACT: control_change channel=6 control=11 value=61 time=0.02631575
EXTRACT: note_on channel=9 note=42 velocity=0 time=0.021052599999999998
EXTRACT: note_on channel=9 note=40 velocity=0 time=0
EXTRACT: note_on channel=9 note=69 velocity=0 time=0
EXTRACT: control_change channel=6 control=11 value=62 time=0.010526299999999999
EXTRACT: control_change channel=6 control=11 value=63 time=0.03157889999999999
EXTRACT: control_change channel=6 control=11 value=64 time=0.03157889999999999
EXTRACT: note_on channel=2 note=62 velocity=111 time=0.02631575
EXTRACT: note_on channel=9 note=69 velocity=70 time=0.005263149999999999
EXTRACT: note_on channel=1 note=42 velocity=113 time=0
EXTRACT: note_on channel=4 note=66 velocity=87 time=0
EXTRACT: note_on channel=4 note=62 velocity=63 time=0
EXTRACT: note_on channel=4 note=59 velocity=56 time=0
EXTRACT: note_on channel=4 note=54 velocity=55 time=0
EXTRACT: note_on channel=4 note=47 velocity=64 time=0
EXTRACT: control_change channel=6 control=11 value=65 time=0
EXTRACT: note_on channel=8 note=55 velocity=0 time=0
EXTRACT: note_on channel=8 note=67 velocity=0 time=0
EXTRACT: note_on channel=3 note=62 velocity=107 time=0.005263149999999999
EXTRACT: control_change channel=6 control=11 value=66 time=0.02631575
EXTRACT: note_on channel=9 note=69 velocity=0 time=0.021052599999999998
EXTRACT: control_change channel=6 control=11 value=67 time=0.010526299999999999
EXTRACT: note_on channel=4 note=66 velocity=0 time=0.015789449999999997
EXTRACT: note_on channel=4 note=62 velocity=0 time=0
EXTRACT: note_on channel=4 note=59 velocity=0 time=0
EXTRACT: note_on channel=4 note=54 velocity=0 time=0
EXTRACT: note_on channel=4 note=47 velocity=0 time=0
EXTRACT: control_change channel=6 control=11 value=68 time=0.015789449999999997
EXTRACT: control_change channel=6 control=11 value=69 time=0.03157889999999999
EXTRACT: note_on channel=1 note=42 velocity=0 time=0.02631575
EXTRACT: note_on channel=9 note=42 velocity=109 time=0.005263149999999999
EXTRACT: note_on channel=1 note=38 velocity=117 time=0
EXTRACT: note_on channel=4 note=66 velocity=43 time=0
EXTRACT: note_on channel=4 note=62 velocity=59 time=0
EXTRACT: note_on channel=4 note=59 velocity=55 time=0
EXTRACT: control_change channel=6 control=11 value=70 time=0
EXTRACT: note_on channel=8 note=54 velocity=87 time=0
EXTRACT: note_on channel=8 note=66 velocity=115 time=0
EXTRACT: note_on channel=3 note=62 velocity=0 time=0.005263149999999999
EXTRACT: note_on channel=3 note=61 velocity=105 time=0
EXTRACT: control_change channel=6 control=11 value=71 time=0.02631575
EXTRACT: note_on channel=9 note=42 velocity=0 time=0.021052599999999998
EXTRACT: control_change channel=6 control=11 value=72 time=0.010526299999999999
EXTRACT: note_on channel=4 note=66 velocity=0 time=0.015789449999999997
EXTRACT: note_on channel=4 note=62 velocity=0 time=0
EXTRACT: note_on channel=4 note=59 velocity=0 time=0
EXTRACT: control_change channel=6 control=11 value=73 time=0.015789449999999997
EXTRACT: control_change channel=6 control=11 value=74 time=0.03157889999999999
EXTRACT: note_on channel=2 note=59 velocity=127 time=0.02631575
EXTRACT: note_on channel=9 note=69 velocity=62 time=0.005263149999999999
EXTRACT: note_on channel=1 note=38 velocity=0 time=0
EXTRACT: note_on channel=4 note=66 velocity=64 time=0
EXTRACT: note_on channel=4 note=62 velocity=75 time=0
EXTRACT: note_on channel=4 note=59 velocity=76 time=0
EXTRACT: note_on channel=4 note=54 velocity=88 time=0
EXTRACT: note_on channel=4 note=47 velocity=52 time=0
EXTRACT: control_change channel=6 control=11 value=75 time=0
EXTRACT: note_on channel=8 note=54 velocity=0 time=0
EXTRACT: note_on channel=8 note=66 velocity=0 time=0
EXTRACT: note_on channel=3 note=61 velocity=0 time=0.005263149999999999
EXTRACT: note_on channel=3 note=59 velocity=108 time=0
EXTRACT: control_change channel=6 control=11 value=76 time=0.02631575
EXTRACT: note_on channel=9 note=69 velocity=0 time=0.021052599999999998
EXTRACT: control_change channel=6 control=11 value=77 time=0.010526299999999999
EXTRACT: note_on channel=4 note=66 velocity=0 time=0.015789449999999997
EXTRACT: note_on channel=4 note=62 velocity=0 time=0
EXTRACT: note_on channel=4 note=59 velocity=0 time=0
EXTRACT: note_on channel=4 note=54 velocity=0 time=0
EXTRACT: note_on channel=4 note=47 velocity=0 time=0
EXTRACT: control_change channel=6 control=11 value=78 time=0.015789449999999997
EXTRACT: control_change channel=6 control=11 value=79 time=0.03157889999999999
EXTRACT: note_on channel=9 note=36 velocity=120 time=0.03157889999999999
EXTRACT: note_on channel=9 note=42 velocity=104 time=0
EXTRACT: note_on channel=1 note=35 velocity=117 time=0
EXTRACT: note_on channel=4 note=66 velocity=41 time=0
EXTRACT: note_on channel=4 note=62 velocity=56 time=0
EXTRACT: note_on channel=4 note=59 velocity=65 time=0
EXTRACT: control_change channel=6 control=11 value=80 time=0
EXTRACT: note_on channel=8 note=52 velocity=94 time=0
EXTRACT: note_on channel=8 note=64 velocity=121 time=0
EXTRACT: note_on channel=3 note=59 velocity=0 time=0.005263149999999999
EXTRACT: note_on channel=9 note=36 velocity=0 time=0.04736835
EXTRACT: note_on channel=9 note=42 velocity=0 time=0
EXTRACT: note_on channel=4 note=66 velocity=0 time=0.02631575
EXTRACT: note_on channel=4 note=62 velocity=0 time=0
EXTRACT: note_on channel=4 note=59 velocity=0 time=0
EXTRACT: note_on channel=2 note=62 velocity=107 time=0.07368409999999999
EXTRACT: note_on channel=9 note=69 velocity=73 time=0.005263149999999999
EXTRACT: note_on channel=3 note=62 velocity=115 time=0.005263149999999999
EXTRACT: note_on channel=9 note=69 velocity=0 time=0.04736835
EXTRACT: note_on channel=9 note=42 velocity=100 time=0.105263
EXTRACT: note_on channel=9 note=69 velocity=78 time=0
EXTRACT: note_on channel=1 note=35 velocity=0 time=0
EXTRACT: note_on channel=4 note=66 velocity=87 time=0
EXTRACT: note_on channel=4 note=62 velocity=111 time=0
EXTRACT: note_on channel=4 note=59 velocity=104 time=0
EXTRACT: note_on channel=4 note=54 velocity=85 time=0
EXTRACT: note_on channel=4 note=47 velocity=90 time=0
EXTRACT: note_on channel=7 note=66 velocity=99 time=0
EXTRACT: note_on channel=7 note=62 velocity=105 time=0
EXTRACT: note_on channel=7 note=59 velocity=89 time=0
EXTRACT: note_on channel=7 note=54 velocity=105 time=0
EXTRACT: note_on channel=7 note=47 velocity=103 time=0
EXTRACT: note_on channel=8 note=52 velocity=0 time=0
EXTRACT: note_on channel=8 note=64 velocity=0 time=0
EXTRACT: note_on channel=8 note=50 velocity=92 time=0
EXTRACT: note_on channel=8 note=62 velocity=116 time=0
EXTRACT: note_on channel=3 note=62 velocity=0 time=0.005263149999999999
EXTRACT: note_on channel=9 note=42 velocity=0 time=0.04736835
EXTRACT: note_on channel=9 note=69 velocity=0 time=0
EXTRACT: note_on channel=2 note=66 velocity=121 time=0.09999984999999999
EXTRACT: note_on channel=4 note=66 velocity=0 time=0.005263149999999999
EXTRACT: note_on channel=4 note=62 velocity=0 time=0
EXTRACT: note_on channel=4 note=59 velocity=0 time=0
EXTRACT: note_on channel=4 note=54 velocity=0 time=0
EXTRACT: note_on channel=4 note=47 velocity=0 time=0
EXTRACT: note_on channel=7 note=66 velocity=0 time=0
EXTRACT: note_on channel=7 note=62 velocity=0 time=0
EXTRACT: note_on channel=7 note=59 velocity=0 time=0
EXTRACT: note_on channel=7 note=54 velocity=0 time=0
EXTRACT: note_on channel=7 note=47 velocity=0 time=0
EXTRACT: note_on channel=8 note=50 velocity=0 time=0
EXTRACT: note_on channel=8 note=62 velocity=0 time=0
EXTRACT: note_on channel=3 note=62 velocity=120 time=0.005263149999999999
EXTRACT: note_on channel=2 note=66 velocity=127 time=0.14736819999999998
EXTRACT: note_on channel=9 note=40 velocity=127 time=0.005263149999999999
EXTRACT: note_on channel=9 note=42 velocity=104 time=0
EXTRACT: note_on channel=9 note=69 velocity=66 time=0
EXTRACT: note_on channel=8 note=52 velocity=87 time=0
EXTRACT: note_on channel=8 note=64 velocity=120 time=0
EXTRACT: note_on channel=9 note=40 velocity=0 time=0.0526315
EXTRACT: note_on channel=9 note=42 velocity=0 time=0
EXTRACT: note_on channel=9 note=69 velocity=0 time=0
EXTRACT: note_on channel=4 note=66 velocity=64 time=0.105263
EXTRACT: note_on channel=4 note=62 velocity=45 time=0
EXTRACT: note_on channel=4 note=59 velocity=52 time=0
EXTRACT: note_on channel=8 note=52 velocity=0 time=0
EXTRACT: note_on channel=8 note=64 velocity=0 time=0
EXTRACT: note_on channel=4 note=66 velocity=0 time=0.07894725
EXTRACT: note_on channel=4 note=62 velocity=0 time=0
EXTRACT: note_on channel=4 note=59 velocity=0 time=0
EXTRACT: note_on channel=2 note=62 velocity=107 time=0.07368409999999999
EXTRACT: note_on channel=9 note=42 velocity=106 time=0.005263149999999999
EXTRACT: note_on channel=1 note=30 velocity=110 time=0
EXTRACT: note_on channel=4 note=66 velocity=86 time=0
EXTRACT: note_on channel=4 note=62 velocity=86 time=0
EXTRACT: note_on channel=4 note=59 velocity=52 time=0
EXTRACT: note_on channel=4 note=54 velocity=79 time=0
EXTRACT: note_on channel=4 note=47 velocity=60 time=0
EXTRACT: note_on channel=8 note=54 velocity=94 time=0
EXTRACT: note_on channel=8 note=66 velocity=118 time=0
EXTRACT: note_on channel=9 note=42 velocity=0 time=0.0526315
EXTRACT: note_on channel=4 note=66 velocity=0 time=0.02631575
EXTRACT: note_on channel=4 note=62 velocity=0 time=0
EXTRACT: note_on channel=4 note=59 velocity=0 time=0
EXTRACT: note_on channel=4 note=54 velocity=0 time=0
EXTRACT: note_on channel=4 note=47 velocity=0 time=0
EXTRACT: note_on channel=1 note=30 velocity=0 time=0.07894725
EXTRACT: note_on channel=2 note=47 velocity=0 time=0.15263134999999997
EXTRACT: note_on channel=2 note=62 velocity=0 time=0
EXTRACT: note_on channel=2 note=66 velocity=0 time=0
EXTRACT: note_on channel=2 note=62 velocity=0 time=0
EXTRACT: note_on channel=2 note=59 velocity=0 time=0
EXTRACT: note_on channel=2 note=62 velocity=0 time=0
EXTRACT: note_on channel=2 note=66 velocity=0 time=0
EXTRACT: note_on channel=2 note=66 velocity=0 time=0
EXTRACT: note_on channel=2 note=47 velocity=104 time=0
EXTRACT: note_on channel=9 note=42 velocity=100 time=0.005263149999999999
EXTRACT: note_on channel=9 note=36 velocity=120 time=0
EXTRACT: note_on channel=1 note=35 velocity=120 time=0
EXTRACT: note_on channel=4 note=66 velocity=98 time=0
EXTRACT: note_on channel=4 note=62 velocity=91 time=0
EXTRACT: note_on channel=4 note=59 velocity=113 time=0
EXTRACT: note_on channel=4 note=54 velocity=106 time=0
EXTRACT: note_on channel=4 note=47 velocity=107 time=0
EXTRACT: note_on channel=7 note=66 velocity=77 time=0
EXTRACT: note_on channel=7 note=62 velocity=76 time=0
EXTRACT: note_on channel=7 note=59 velocity=101 time=0
EXTRACT: note_on channel=7 note=54 velocity=109 time=0
EXTRACT: note_on channel=7 note=47 velocity=96 time=0
EXTRACT: note_on channel=3 note=62 velocity=0 time=0.005263149999999999
EXTRACT: note_on channel=9 note=42 velocity=0 time=0.04736835
EXTRACT: note_on channel=9 note=36 velocity=0 time=0
EXTRACT: note_on channel=1 note=35 velocity=0 time=0.18421025
EXTRACT: note_on channel=2 note=62 velocity=0 time=0.07368409999999999
EXTRACT: note_on channel=2 note=62 velocity=105 time=0
EXTRACT: note_on channel=9 note=42 velocity=93 time=0.005263149999999999
EXTRACT: note_on channel=4 note=66 velocity=0 time=0
EXTRACT: note_on channel=4 note=62 velocity=0 time=0
EXTRACT: note_on channel=4 note=59 velocity=0 time=0
EXTRACT: note_on channel=4 note=54 velocity=0 time=0
EXTRACT: note_on channel=4 note=47 velocity=0 time=0
EXTRACT: note_on channel=7 note=66 velocity=0 time=0
EXTRACT: note_on channel=7 note=62 velocity=0 time=0
EXTRACT: note_on channel=7 note=59 velocity=0 time=0
EXTRACT: note_on channel=7 note=54 velocity=0 time=0
EXTRACT: note_on channel=7 note=47 velocity=0 time=0
EXTRACT: note_on channel=8 note=54 velocity=0 time=0
EXTRACT: note_on channel=8 note=66 velocity=0 time=0
EXTRACT: note_on channel=8 note=57 velocity=98 time=0
EXTRACT: note_on channel=8 note=69 velocity=118 time=0
EXTRACT: note_on channel=3 note=62 velocity=120 time=0.005263149999999999
EXTRACT: note_on channel=9 note=42 velocity=0 time=0.04736835
EXTRACT: note_on channel=2 note=66 velocity=107 time=0.09999984999999999
EXTRACT: note_on channel=1 note=35 velocity=114 time=0.005263149999999999
EXTRACT: note_on channel=4 note=66 velocity=104 time=0
EXTRACT: note_on channel=4 note=62 velocity=117 time=0
EXTRACT: note_on channel=4 note=59 velocity=89 time=0
EXTRACT: note_on channel=4 note=54 velocity=98 time=0
EXTRACT: note_on channel=4 note=47 velocity=108 time=0
EXTRACT: note_on channel=7 note=66 velocity=101 time=0
EXTRACT: note_on channel=7 note=62 velocity=79 time=0
EXTRACT: note_on channel=7 note=59 velocity=77 time=0
EXTRACT: note_on channel=7 note=54 velocity=100 time=0
EXTRACT: note_on channel=7 note=47 velocity=98 time=0
EXTRACT: note_on channel=8 note=57 velocity=0 time=0
EXTRACT: note_on channel=8 note=69 velocity=0 time=0
EXTRACT: note_on channel=9 note=42 velocity=94 time=0.1578945
EXTRACT: note_on channel=9 note=40 velocity=127 time=0
EXTRACT: note_on channel=9 note=69 velocity=62 time=0
EXTRACT: note_on channel=1 note=35 velocity=0 time=0
EXTRACT: note_on channel=4 note=66 velocity=0 time=0
EXTRACT: note_on channel=4 note=62 velocity=0 time=0
EXTRACT: note_on channel=4 note=59 velocity=0 time=0
EXTRACT: note_on channel=4 note=54 velocity=0 time=0
EXTRACT: note_on channel=4 note=47 velocity=0 time=0
EXTRACT: note_on channel=7 note=66 velocity=0 time=0
EXTRACT: note_on channel=7 note=62 velocity=0 time=0
EXTRACT: note_on channel=7 note=59 velocity=0 time=0
EXTRACT: note_on channel=7 note=54 velocity=0 time=0
EXTRACT: note_on channel=7 note=47 velocity=0 time=0
EXTRACT: note_on channel=8 note=55 velocity=87 time=0
EXTRACT: note_on channel=8 note=67 velocity=120 time=0
EXTRACT: note_on channel=3 note=62 velocity=0 time=0.005263149999999999
EXTRACT: note_on channel=9 note=42 velocity=0 time=0.04736835
EXTRACT: note_on channel=9 note=40 velocity=0 time=0
EXTRACT: note_on channel=9 note=69 velocity=0 time=0
EXTRACT: note_on channel=2 note=62 velocity=102 time=0.09999984999999999
EXTRACT: note_on channel=9 note=69 velocity=70 time=0.005263149999999999
EXTRACT: note_on channel=4 note=66 velocity=61 time=0
EXTRACT: note_on channel=4 note=62 velocity=66 time=0
EXTRACT: note_on channel=4 note=59 velocity=78 time=0
EXTRACT: note_on channel=4 note=54 velocity=79 time=0
EXTRACT: note_on channel=4 note=47 velocity=61 time=0
EXTRACT: note_on channel=8 note=55 velocity=0 time=0
EXTRACT: note_on channel=8 note=67 velocity=0 time=0
EXTRACT: note_on channel=3 note=62 velocity=103 time=0.005263149999999999
EXTRACT: note_on channel=9 note=69 velocity=0 time=0.04736835
EXTRACT: note_on channel=4 note=66 velocity=0 time=0.02631575
EXTRACT: note_on channel=4 note=62 velocity=0 time=0
EXTRACT: note_on channel=4 note=59 velocity=0 time=0
EXTRACT: note_on channel=4 note=54 velocity=0 time=0
EXTRACT: note_on channel=4 note=47 velocity=0 time=0
EXTRACT: note_on channel=9 note=42 velocity=99 time=0.07894725
EXTRACT: note_on channel=4 note=66 velocity=64 time=0
EXTRACT: note_on channel=4 note=62 velocity=41 time=0
EXTRACT: note_on channel=4 note=59 velocity=65 time=0
EXTRACT: note_on channel=8 note=54 velocity=88 time=0
EXTRACT: note_on channel=8 note=66 velocity=126 time=0
EXTRACT: note_on channel=3 note=62 velocity=0 time=0.005263149999999999
EXTRACT: note_on channel=3 note=61 velocity=118 time=0
EXTRACT: note_on channel=9 note=42 velocity=0 time=0.04736835
EXTRACT: note_on channel=4 note=66 velocity=0 time=0.02631575
EXTRACT: note_on channel=4 note=62 velocity=0 time=0
EXTRACT: note_on channel=4 note=59 velocity=0 time=0
EXTRACT: note_on channel=2 note=59 velocity=114 time=0.07368409999999999
EXTRACT: note_on channel=9 note=69 velocity=62 time=0.005263149999999999
EXTRACT: note_on channel=4 note=66 velocity=80 time=0
EXTRACT: note_on channel=4 note=62 velocity=65 time=0
EXTRACT: note_on channel=4 note=59 velocity=69 time=0
EXTRACT: note_on channel=4 note=54 velocity=91 time=0
EXTRACT: note_on channel=4 note=47 velocity=58 time=0
EXTRACT: note_on channel=8 note=54 velocity=0 time=0
EXTRACT: note_on channel=8 note=66 velocity=0 time=0
EXTRACT: note_on channel=3 note=61 velocity=0 time=0.005263149999999999
EXTRACT: note_on channel=3 note=59 velocity=104 time=0
EXTRACT: note_on channel=9 note=69 velocity=0 time=0.04736835
EXTRACT: note_on channel=4 note=66 velocity=0 time=0.02631575
EXTRACT: note_on channel=4 note=62 velocity=0 time=0
EXTRACT: note_on channel=4 note=59 velocity=0 time=0
EXTRACT: note_on channel=4 note=54 velocity=0 time=0
EXTRACT: note_on channel=4 note=47 velocity=0 time=0
EXTRACT: note_on channel=9 note=36 velocity=120 time=0.07894725
EXTRACT: note_on channel=9 note=42 velocity=102 time=0
EXTRACT: note_on channel=4 note=66 velocity=56 time=0
EXTRACT: note_on channel=4 note=62 velocity=54 time=0
EXTRACT: note_on channel=4 note=59 velocity=53 time=0
EXTRACT: note_on channel=8 note=52 velocity=91 time=0
EXTRACT: note_on channel=8 note=64 velocity=120 time=0
EXTRACT: note_on channel=3 note=59 velocity=0 time=0.005263149999999999
EXTRACT: note_on channel=9 note=36 velocity=0 time=0.04736835
EXTRACT: note_on channel=9 note=42 velocity=0 time=0
EXTRACT: note_on channel=4 note=66 velocity=0 time=0.02631575
EXTRACT: note_on channel=4 note=62 velocity=0 time=0
EXTRACT: note_on channel=4 note=59 velocity=0 time=0
EXTRACT: note_on channel=2 note=62 velocity=114 time=0.07368409999999999
EXTRACT: note_on channel=9 note=69 velocity=73 time=0.005263149999999999
EXTRACT: note_on channel=3 note=62 velocity=118 time=0.005263149999999999
EXTRACT: note_on channel=9 note=69 velocity=0 time=0.04736835
EXTRACT: note_on channel=9 note=42 velocity=110 time=0.105263
EXTRACT: note_on channel=9 note=69 velocity=78 time=0
EXTRACT: note_on channel=1 note=35 velocity=116 time=0
EXTRACT: note_on channel=4 note=66 velocity=87 time=0
EXTRACT: note_on channel=4 note=62 velocity=85 time=0
EXTRACT: note_on channel=4 note=59 velocity=115 time=0
EXTRACT: note_on channel=4 note=54 velocity=112 time=0
EXTRACT: note_on channel=4 note=47 velocity=109 time=0
EXTRACT: note_on channel=7 note=66 velocity=101 time=0
EXTRACT: note_on channel=7 note=62 velocity=110 time=0
EXTRACT: note_on channel=7 note=59 velocity=94 time=0
EXTRACT: note_on channel=7 note=54 velocity=80 time=0
EXTRACT: note_on channel=7 note=47 velocity=108 time=0
EXTRACT: note_on channel=8 note=52 velocity=0 time=0
EXTRACT: note_on channel=8 note=64 velocity=0 time=0
EXTRACT: note_on channel=8 note=50 velocity=94 time=0
EXTRACT: note_on channel=8 note=62 velocity=115 time=0
EXTRACT: note_on channel=3 note=62 velocity=0 time=0.005263149999999999
EXTRACT: note_on channel=9 note=42 velocity=0 time=0.04736835
EXTRACT: note_on channel=9 note=69 velocity=0 time=0
EXTRACT: note_on channel=2 note=66 velocity=111 time=0.09999984999999999
EXTRACT: note_on channel=1 note=35 velocity=0 time=0.005263149999999999
EXTRACT: note_on channel=4 note=66 velocity=0 time=0
EXTRACT: note_on channel=4 note=62 velocity=0 time=0
EXTRACT: note_on channel=4 note=59 velocity=0 time=0
EXTRACT: note_on channel=4 note=54 velocity=0 time=0
EXTRACT: note_on channel=4 note=47 velocity=0 time=0
EXTRACT: note_on channel=7 note=66 velocity=0 time=0
EXTRACT: note_on channel=7 note=62 velocity=0 time=0
EXTRACT: note_on channel=7 note=59 velocity=0 time=0
EXTRACT: note_on channel=7 note=54 velocity=0 time=0
EXTRACT: note_on channel=7 note=47 velocity=0 time=0
EXTRACT: note_on channel=8 note=50 velocity=0 time=0
EXTRACT: note_on channel=8 note=62 velocity=0 time=0
EXTRACT: note_on channel=3 note=62 velocity=115 time=0.005263149999999999
EXTRACT: note_on channel=2 note=66 velocity=114 time=0.14736819999999998
EXTRACT: note_on channel=9 note=40 velocity=127 time=0.005263149999999999
EXTRACT: note_on channel=9 note=42 velocity=91 time=0
EXTRACT: note_on channel=9 note=69 velocity=66 time=0
EXTRACT: note_on channel=8 note=54 velocity=85 time=0
EXTRACT: note_on channel=8 note=66 velocity=121 time=0
EXTRACT: note_on channel=9 note=40 velocity=0 time=0.0526315
EXTRACT: note_on channel=9 note=42 velocity=0 time=0
EXTRACT: note_on channel=9 note=69 velocity=0 time=0
EXTRACT: note_on channel=4 note=66 velocity=41 time=0.105263
EXTRACT: note_on channel=4 note=62 velocity=58 time=0
EXTRACT: note_on channel=4 note=59 velocity=62 time=0
EXTRACT: note_on channel=8 note=54 velocity=0 time=0
EXTRACT: note_on channel=8 note=66 velocity=0 time=0
EXTRACT: note_on channel=4 note=66 velocity=0 time=0.07894725
EXTRACT: note_on channel=4 note=62 velocity=0 time=0
EXTRACT: note_on channel=4 note=59 velocity=0 time=0
EXTRACT: note_on channel=2 note=62 velocity=119 time=0.07368409999999999
EXTRACT: note_on channel=9 note=36 velocity=90 time=0.005263149999999999
EXTRACT: note_on channel=9 note=42 velocity=94 time=0
EXTRACT: note_on channel=1 note=38 velocity=115 time=0
EXTRACT: note_on channel=4 note=66 velocity=51 time=0
EXTRACT: note_on channel=4 note=62 velocity=66 time=0
EXTRACT: note_on channel=4 note=59 velocity=72 time=0
EXTRACT: note_on channel=4 note=54 velocity=82 time=0
EXTRACT: note_on channel=4 note=47 velocity=86 time=0
EXTRACT: note_on channel=8 note=47 velocity=88 time=0
EXTRACT: note_on channel=8 note=59 velocity=127 time=0
EXTRACT: note_on channel=9 note=36 velocity=0 time=0.0526315
EXTRACT: note_on channel=9 note=42 velocity=0 time=0
EXTRACT: note_on channel=4 note=66 velocity=0 time=0.02631575
EXTRACT: note_on channel=4 note=62 velocity=0 time=0
EXTRACT: note_on channel=4 note=59 velocity=0 time=0
EXTRACT: note_on channel=4 note=54 velocity=0 time=0
EXTRACT: note_on channel=4 note=47 velocity=0 time=0
EXTRACT: note_on channel=9 note=40 velocity=127 time=0.07894725
EXTRACT: note_on channel=1 note=38 velocity=0 time=0
EXTRACT: note_on channel=9 note=40 velocity=0 time=0.0526315
EXTRACT: note_on channel=2 note=47 velocity=0 time=0.09999984999999999
EXTRACT: note_on channel=2 note=62 velocity=0 time=0
EXTRACT: note_on channel=2 note=66 velocity=0 time=0
EXTRACT: note_on channel=2 note=62 velocity=0 time=0
EXTRACT: note_on channel=2 note=59 velocity=0 time=0
EXTRACT: note_on channel=2 note=62 velocity=0 time=0
EXTRACT: note_on channel=2 note=66 velocity=0 time=0
EXTRACT: note_on channel=2 note=66 velocity=0 time=0
EXTRACT: note_on channel=2 note=62 velocity=0 time=0
EXTRACT: note_on channel=2 note=40 velocity=114 time=0
EXTRACT: note_on channel=9 note=42 velocity=110 time=0.005263149999999999
EXTRACT: note_on channel=9 note=36 velocity=120 time=0
EXTRACT: note_on channel=1 note=40 velocity=125 time=0
EXTRACT: note_on channel=4 note=67 velocity=112 time=0
EXTRACT: note_on channel=4 note=62 velocity=112 time=0
EXTRACT: note_on channel=4 note=59 velocity=92 time=0
EXTRACT: note_on channel=4 note=55 velocity=103 time=0
EXTRACT: note_on channel=4 note=47 velocity=86 time=0
EXTRACT: note_on channel=5 note=90 velocity=0 time=0
EXTRACT: note_on channel=5 note=78 velocity=0 time=0
EXTRACT: note_on channel=5 note=91 velocity=116 time=0
EXTRACT: note_on channel=5 note=79 velocity=111 time=0
EXTRACT: note_on channel=6 note=59 velocity=0 time=0
EXTRACT: note_on channel=6 note=62 velocity=0 time=0
EXTRACT: note_on channel=6 note=66 velocity=0 time=0
EXTRACT: note_on channel=6 note=59 velocity=119 time=0
EXTRACT: note_on channel=6 note=62 velocity=111 time=0
EXTRACT: note_on channel=6 note=67 velocity=123 time=0
EXTRACT: note_on channel=7 note=67 velocity=95 time=0
EXTRACT: note_on channel=7 note=62 velocity=89 time=0
EXTRACT: note_on channel=7 note=59 velocity=93 time=0
EXTRACT: note_on channel=7 note=55 velocity=86 time=0
EXTRACT: note_on channel=7 note=47 velocity=83 time=0
EXTRACT: note_on channel=3 note=62 velocity=0 time=0.005263149999999999
EXTRACT: note_on channel=9 note=42 velocity=0 time=0.04736835
EXTRACT: note_on channel=9 note=36 velocity=0 time=0
EXTRACT: note_on channel=1 note=40 velocity=0 time=0.07894725
EXTRACT: note_on channel=2 note=62 velocity=118 time=0.17894709999999997
EXTRACT: note_on channel=9 note=42 velocity=92 time=0.005263149999999999
EXTRACT: note_on channel=1 note=40 velocity=124 time=0
EXTRACT: note_on channel=4 note=67 velocity=0 time=0
EXTRACT: note_on channel=4 note=62 velocity=0 time=0
EXTRACT: note_on channel=4 note=59 velocity=0 time=0
EXTRACT: note_on channel=4 note=55 velocity=0 time=0
EXTRACT: note_on channel=4 note=47 velocity=0 time=0
EXTRACT: note_on channel=7 note=67 velocity=0 time=0
EXTRACT: note_on channel=7 note=62 velocity=0 time=0
EXTRACT: note_on channel=7 note=59 velocity=0 time=0
EXTRACT: note_on channel=7 note=55 velocity=0 time=0
EXTRACT: note_on channel=7 note=47 velocity=0 time=0
EXTRACT: note_on channel=8 note=47 velocity=0 time=0
EXTRACT: note_on channel=8 note=59 velocity=0 time=0
EXTRACT: note_on channel=8 note=52 velocity=99 time=0
EXTRACT: note_on channel=8 note=64 velocity=125 time=0
EXTRACT: note_on channel=3 note=62 velocity=102 time=0.005263149999999999
EXTRACT: note_on channel=9 note=42 velocity=0 time=0.04736835
EXTRACT: note_on channel=1 note=40 velocity=0 time=0.09999984999999999
EXTRACT: note_on channel=2 note=67 velocity=106 time=0
EXTRACT: note_on channel=1 note=35 velocity=112 time=0.005263149999999999
EXTRACT: note_on channel=4 note=67 velocity=85 time=0
EXTRACT: note_on channel=4 note=62 velocity=116 time=0
EXTRACT: note_on channel=4 note=59 velocity=90 time=0
EXTRACT: note_on channel=4 note=55 velocity=115 time=0
EXTRACT: note_on channel=4 note=47 velocity=85 time=0
EXTRACT: note_on channel=7 note=67 velocity=102 time=0
EXTRACT: note_on channel=7 note=62 velocity=100 time=0
EXTRACT: note_on channel=7 note=59 velocity=93 time=0
EXTRACT: note_on channel=7 note=55 velocity=95 time=0
EXTRACT: note_on channel=7 note=47 velocity=83 time=0
EXTRACT: note_on channel=8 note=52 velocity=0 time=0
EXTRACT: note_on channel=8 note=64 velocity=0 time=0
EXTRACT: note_on channel=9 note=42 velocity=105 time=0.1578945
EXTRACT: note_on channel=9 note=40 velocity=127 time=0
EXTRACT: note_on channel=9 note=69 velocity=62 time=0
EXTRACT: note_on channel=1 note=35 velocity=0 time=0
EXTRACT: note_on channel=4 note=67 velocity=0 time=0
EXTRACT: note_on channel=4 note=62 velocity=0 time=0
EXTRACT: note_on channel=4 note=59 velocity=0 time=0
EXTRACT: note_on channel=4 note=55 velocity=0 time=0
EXTRACT: note_on channel=4 note=47 velocity=0 time=0
EXTRACT: note_on channel=7 note=67 velocity=0 time=0
EXTRACT: note_on channel=7 note=62 velocity=0 time=0
EXTRACT: note_on channel=7 note=59 velocity=0 time=0
EXTRACT: note_on channel=7 note=55 velocity=0 time=0
EXTRACT: note_on channel=7 note=47 velocity=0 time=0
EXTRACT: note_on channel=8 note=52 velocity=90 time=0
EXTRACT: note_on channel=8 note=64 velocity=120 time=0
EXTRACT: note_on channel=3 note=62 velocity=0 time=0.005263149999999999
EXTRACT: note_on channel=9 note=42 velocity=0 time=0.04736835
EXTRACT: note_on channel=9 note=40 velocity=0 time=0
EXTRACT: note_on channel=9 note=69 velocity=0 time=0
EXTRACT: note_on channel=2 note=62 velocity=113 time=0.09999984999999999
EXTRACT: note_on channel=9 note=69 velocity=70 time=0.005263149999999999
EXTRACT: note_on channel=1 note=35 velocity=118 time=0
EXTRACT: note_on channel=4 note=67 velocity=62 time=0
EXTRACT: note_on channel=4 note=62 velocity=74 time=0
EXTRACT: note_on channel=4 note=59 velocity=79 time=0
EXTRACT: note_on channel=4 note=55 velocity=63 time=0
EXTRACT: note_on channel=4 note=47 velocity=52 time=0
EXTRACT: note_on channel=3 note=62 velocity=118 time=0.005263149999999999
EXTRACT: note_on channel=9 note=69 velocity=0 time=0.04736835
EXTRACT: note_on channel=4 note=67 velocity=0 time=0.02631575
EXTRACT: note_on channel=4 note=62 velocity=0 time=0
EXTRACT: note_on channel=4 note=59 velocity=0 time=0
EXTRACT: note_on channel=4 note=55 velocity=0 time=0
EXTRACT: note_on channel=4 note=47 velocity=0 time=0
EXTRACT: note_on channel=1 note=35 velocity=0 time=0.07368409999999999
EXTRACT: note_on channel=9 note=42 velocity=97 time=0.005263149999999999
EXTRACT: note_on channel=1 note=31 velocity=115 time=0
EXTRACT: note_on channel=4 note=67 velocity=40 time=0
EXTRACT: note_on channel=4 note=62 velocity=68 time=0
EXTRACT: note_on channel=4 note=59 velocity=44 time=0
EXTRACT: note_on channel=3 note=62 velocity=0 time=0.005263149999999999
EXTRACT: note_on channel=3 note=61 velocity=113 time=0
EXTRACT: note_on channel=9 note=42 velocity=0 time=0.04736835
EXTRACT: note_on channel=4 note=67 velocity=0 time=0.02631575
EXTRACT: note_on channel=4 note=62 velocity=0 time=0
EXTRACT: note_on channel=4 note=59 velocity=0 time=0
EXTRACT: note_on channel=2 note=59 velocity=106 time=0.07368409999999999
EXTRACT: note_on channel=9 note=69 velocity=62 time=0.005263149999999999
EXTRACT: note_on channel=1 note=31 velocity=0 time=0
EXTRACT: note_on channel=4 note=67 velocity=69 time=0
EXTRACT: note_on channel=4 note=62 velocity=91 time=0
EXTRACT: note_on channel=4 note=59 velocity=60 time=0
EXTRACT: note_on channel=4 note=55 velocity=89 time=0
EXTRACT: note_on channel=4 note=47 velocity=76 time=0
EXTRACT: note_on channel=3 note=61 velocity=0 time=0.005263149999999999
EXTRACT: note_on channel=3 note=59 velocity=105 time=0
EXTRACT: note_on channel=9 note=69 velocity=0 time=0.04736835
EXTRACT: note_on channel=4 note=67 velocity=0 time=0.02631575
EXTRACT: note_on channel=4 note=62 velocity=0 time=0
EXTRACT: note_on channel=4 note=59 velocity=0 time=0
EXTRACT: note_on channel=4 note=55 velocity=0 time=0
EXTRACT: note_on channel=4 note=47 velocity=0 time=0
EXTRACT: note_on channel=9 note=36 velocity=120 time=0.07894725
EXTRACT: note_on channel=9 note=42 velocity=102 time=0
EXTRACT: note_on channel=1 note=28 velocity=124 time=0
EXTRACT: note_on channel=4 note=67 velocity=42 time=0
EXTRACT: note_on channel=4 note=62 velocity=64 time=0
EXTRACT: note_on channel=4 note=59 velocity=49 time=0
EXTRACT: note_on channel=8 note=52 velocity=0 time=0
EXTRACT: note_on channel=8 note=64 velocity=0 time=0
EXTRACT: note_on channel=3 note=59 velocity=0 time=0.005263149999999999
EXTRACT: note_on channel=9 note=36 velocity=0 time=0.04736835
EXTRACT: note_on channel=9 note=42 velocity=0 time=0
EXTRACT: note_on channel=4 note=67 velocity=0 time=0.02631575
EXTRACT: note_on channel=4 note=62 velocity=0 time=0
EXTRACT: note_on channel=4 note=59 velocity=0 time=0
EXTRACT: note_on channel=2 note=62 velocity=105 time=0.07368409999999999
EXTRACT: note_on channel=9 note=69 velocity=73 time=0.005263149999999999
EXTRACT: note_on channel=3 note=62 velocity=117 time=0.005263149999999999
EXTRACT: note_on channel=9 note=69 velocity=0 time=0.04736835
EXTRACT: note_on channel=9 note=42 velocity=110 time=0.105263
EXTRACT: note_on channel=9 note=69 velocity=78 time=0
EXTRACT: note_on channel=1 note=28 velocity=0 time=0
EXTRACT: note_on channel=4 note=67 velocity=113 time=0
EXTRACT: note_on channel=4 note=62 velocity=86 time=0
EXTRACT: note_on channel=4 note=59 velocity=100 time=0
EXTRACT: note_on channel=4 note=55 velocity=100 time=0
EXTRACT: note_on channel=4 note=47 velocity=87 time=0
EXTRACT: note_on channel=7 note=67 velocity=85 time=0
EXTRACT: note_on channel=7 note=62 velocity=105 time=0
EXTRACT: note_on channel=7 note=59 velocity=112 time=0
EXTRACT: note_on channel=7 note=55 velocity=111 time=0
EXTRACT: note_on channel=7 note=47 velocity=87 time=0
EXTRACT: note_on channel=8 note=47 velocity=91 time=0
EXTRACT: note_on channel=8 note=59 velocity=120 time=0
EXTRACT: note_on channel=3 note=62 velocity=0 time=0.005263149999999999
EXTRACT: note_on channel=9 note=42 velocity=0 time=0.04736835
EXTRACT: note_on channel=9 note=69 velocity=0 time=0
EXTRACT: note_on channel=2 note=67 velocity=120 time=0.09999984999999999
EXTRACT: note_on channel=4 note=67 velocity=0 time=0.005263149999999999
EXTRACT: note_on channel=4 note=62 velocity=0 time=0
EXTRACT: note_on channel=4 note=59 velocity=0 time=0
EXTRACT: note_on channel=4 note=55 velocity=0 time=0
EXTRACT: note_on channel=4 note=47 velocity=0 time=0
EXTRACT: note_on channel=7 note=67 velocity=0 time=0
EXTRACT: note_on channel=7 note=62 velocity=0 time=0
EXTRACT: note_on channel=7 note=59 velocity=0 time=0
EXTRACT: note_on channel=7 note=55 velocity=0 time=0
EXTRACT: note_on channel=7 note=47 velocity=0 time=0
EXTRACT: note_on channel=8 note=47 velocity=0 time=0
EXTRACT: note_on channel=8 note=59 velocity=0 time=0
EXTRACT: note_on channel=3 note=62 velocity=114 time=0.005263149999999999
EXTRACT: note_on channel=2 note=67 velocity=126 time=0.14736819999999998
EXTRACT: note_on channel=9 note=40 velocity=127 time=0.005263149999999999
EXTRACT: note_on channel=9 note=42 velocity=93 time=0
EXTRACT: note_on channel=9 note=69 velocity=66 time=0
EXTRACT: note_on channel=5 note=91 velocity=0 time=0
EXTRACT: note_on channel=5 note=79 velocity=0 time=0
EXTRACT: note_on channel=5 note=86 velocity=113 time=0
EXTRACT: note_on channel=5 note=74 velocity=113 time=0
EXTRACT: note_on channel=8 note=47 velocity=98 time=0
EXTRACT: note_on channel=8 note=59 velocity=121 time=0
EXTRACT: note_on channel=9 note=40 velocity=0 time=0.0526315
EXTRACT: note_on channel=9 note=42 velocity=0 time=0
EXTRACT: note_on channel=9 note=69 velocity=0 time=0
EXTRACT: note_on channel=4 note=67 velocity=71 time=0.105263
EXTRACT: note_on channel=4 note=62 velocity=63 time=0
EXTRACT: note_on channel=4 note=59 velocity=70 time=0
EXTRACT: note_on channel=5 note=86 velocity=0 time=0
EXTRACT: note_on channel=5 note=74 velocity=0 time=0
EXTRACT: note_on channel=5 note=73 velocity=108 time=0
EXTRACT: note_on channel=5 note=85 velocity=117 time=0
EXTRACT: note_on channel=8 note=47 velocity=0 time=0
EXTRACT: note_on channel=8 note=59 velocity=0 time=0
EXTRACT: note_on channel=4 note=67 velocity=0 time=0.07894725
EXTRACT: note_on channel=4 note=62 velocity=0 time=0
EXTRACT: note_on channel=4 note=59 velocity=0 time=0
EXTRACT: note_on channel=2 note=62 velocity=105 time=0.07368409999999999
EXTRACT: note_on channel=9 note=42 velocity=110 time=0.005263149999999999
EXTRACT: note_on channel=1 note=28 velocity=111 time=0
EXTRACT: note_on channel=4 note=67 velocity=87 time=0
EXTRACT: note_on channel=4 note=62 velocity=86 time=0
EXTRACT: note_on channel=4 note=59 velocity=64 time=0
EXTRACT: note_on channel=4 note=55 velocity=72 time=0
EXTRACT: note_on channel=4 note=47 velocity=68 time=0
EXTRACT: note_on channel=5 note=73 velocity=0 time=0
EXTRACT: note_on channel=5 note=85 velocity=0 time=0
EXTRACT: note_on channel=5 note=71 velocity=101 time=0
EXTRACT: note_on channel=5 note=83 velocity=107 time=0
EXTRACT: note_on channel=8 note=47 velocity=99 time=0
EXTRACT: note_on channel=8 note=59 velocity=127 time=0
EXTRACT: note_on channel=9 note=42 velocity=0 time=0.0526315
EXTRACT: note_on channel=4 note=67 velocity=0 time=0.02631575
EXTRACT: note_on channel=4 note=62 velocity=0 time=0
EXTRACT: note_on channel=4 note=59 velocity=0 time=0
EXTRACT: note_on channel=4 note=55 velocity=0 time=0
EXTRACT: note_on channel=4 note=47 velocity=0 time=0
EXTRACT: note_on channel=1 note=28 velocity=0 time=0.07894725
EXTRACT: note_on channel=5 note=71 velocity=0 time=0
EXTRACT: note_on channel=5 note=83 velocity=0 time=0
EXTRACT: note_on channel=5 note=81 velocity=99 time=0
EXTRACT: note_on channel=5 note=69 velocity=115 time=0
EXTRACT: note_on channel=8 note=47 velocity=0 time=0
EXTRACT: note_on channel=8 note=59 velocity=0 time=0
EXTRACT: note_on channel=2 note=40 velocity=0 time=0.15263134999999997
EXTRACT: note_on channel=2 note=62 velocity=0 time=0
EXTRACT: note_on channel=2 note=67 velocity=0 time=0
EXTRACT: note_on channel=2 note=62 velocity=0 time=0
EXTRACT: note_on channel=2 note=59 velocity=0 time=0
EXTRACT: note_on channel=2 note=62 velocity=0 time=0
EXTRACT: note_on channel=2 note=67 velocity=0 time=0
EXTRACT: note_on channel=2 note=67 velocity=0 time=0
EXTRACT: note_on channel=2 note=62 velocity=0 time=0
EXTRACT: note_on channel=2 note=57 velocity=114 time=0
EXTRACT: note_on channel=2 note=54 velocity=112 time=0
EXTRACT: note_on channel=9 note=42 velocity=94 time=0.005263149999999999
EXTRACT: note_on channel=9 note=36 velocity=120 time=0
EXTRACT: note_on channel=1 note=30 velocity=125 time=0
EXTRACT: note_on channel=4 note=64 velocity=96 time=0
EXTRACT: note_on channel=4 note=61 velocity=97 time=0
EXTRACT: note_on channel=4 note=57 velocity=96 time=0
EXTRACT: note_on channel=4 note=54 velocity=106 time=0
EXTRACT: note_on channel=6 note=59 velocity=0 time=0
EXTRACT: note_on channel=6 note=62 velocity=0 time=0
EXTRACT: note_on channel=6 note=67 velocity=0 time=0
EXTRACT: note_on channel=6 note=57 velocity=115 time=0
EXTRACT: note_on channel=6 note=61 velocity=108 time=0
EXTRACT: note_on channel=6 note=66 velocity=123 time=0
EXTRACT: note_on channel=7 note=64 velocity=96 time=0
EXTRACT: note_on channel=7 note=61 velocity=89 time=0
EXTRACT: note_on channel=7 note=57 velocity=75 time=0
EXTRACT: note_on channel=7 note=54 velocity=90 time=0
EXTRACT: note_on channel=8 note=45 velocity=91 time=0
EXTRACT: note_on channel=8 note=57 velocity=119 time=0
EXTRACT: note_on channel=3 note=62 velocity=0 time=0.005263149999999999
EXTRACT: note_on channel=9 note=42 velocity=0 time=0.04736835
EXTRACT: note_on channel=9 note=36 velocity=0 time=0
EXTRACT: note_on channel=8 note=45 velocity=0 time=0.02631575
EXTRACT: note_on channel=8 note=57 velocity=0 time=0
EXTRACT: note_on channel=8 note=57 velocity=100 time=0.07894725
EXTRACT: note_on channel=8 note=69 velocity=126 time=0
EXTRACT: note_on channel=1 note=30 velocity=0 time=0.04736835
EXTRACT: note_on channel=1 note=30 velocity=127 time=0.005263149999999999
EXTRACT: note_on channel=2 note=61 velocity=113 time=0.09999984999999999
EXTRACT: note_on channel=9 note=42 velocity=85 time=0.005263149999999999
EXTRACT: note_on channel=9 note=42 velocity=100 time=0
EXTRACT: note_on channel=4 note=64 velocity=0 time=0
EXTRACT: note_on channel=4 note=61 velocity=0 time=0
EXTRACT: note_on channel=4 note=57 velocity=0 time=0
EXTRACT: note_on channel=4 note=54 velocity=0 time=0
EXTRACT: note_on channel=7 note=64 velocity=0 time=0
EXTRACT: note_on channel=7 note=61 velocity=0 time=0
EXTRACT: note_on channel=7 note=57 velocity=0 time=0
EXTRACT: note_on channel=7 note=54 velocity=0 time=0
EXTRACT: note_on channel=3 note=61 velocity=102 time=0.005263149999999999
EXTRACT: note_on channel=9 note=42 velocity=0 time=0.04736835
EXTRACT: note_on channel=9 note=42 velocity=0 time=0
EXTRACT: note_on channel=1 note=30 velocity=0 time=0.04736835
EXTRACT: note_on channel=1 note=30 velocity=118 time=0.005263149999999999
EXTRACT: note_on channel=2 note=64 velocity=119 time=0.04736835
EXTRACT: note_on channel=4 note=64 velocity=104 time=0.005263149999999999
EXTRACT: note_on channel=4 note=61 velocity=106 time=0
EXTRACT: note_on channel=4 note=57 velocity=85 time=0
EXTRACT: note_on channel=4 note=54 velocity=87 time=0
EXTRACT: note_on channel=7 note=64 velocity=84 time=0
EXTRACT: note_on channel=7 note=61 velocity=107 time=0
EXTRACT: note_on channel=7 note=57 velocity=98 time=0
EXTRACT: note_on channel=7 note=54 velocity=110 time=0
EXTRACT: note_on channel=1 note=30 velocity=0 time=0.15263134999999997
EXTRACT: note_on channel=9 note=40 velocity=127 time=0.005263149999999999
EXTRACT: note_on channel=9 note=42 velocity=104 time=0
EXTRACT: note_on channel=9 note=69 velocity=62 time=0
EXTRACT: note_on channel=1 note=37 velocity=125 time=0
EXTRACT: note_on channel=4 note=64 velocity=0 time=0
EXTRACT: note_on channel=4 note=61 velocity=0 time=0
EXTRACT: note_on channel=4 note=57 velocity=0 time=0
EXTRACT: note_on channel=4 note=54 velocity=0 time=0
EXTRACT: note_on channel=7 note=64 velocity=0 time=0
EXTRACT: note_on channel=7 note=61 velocity=0 time=0
EXTRACT: note_on channel=7 note=57 velocity=0 time=0
EXTRACT: note_on channel=7 note=54 velocity=0 time=0
EXTRACT: note_on channel=8 note=57 velocity=0 time=0
EXTRACT: note_on channel=8 note=69 velocity=0 time=0
EXTRACT: note_on channel=8 note=52 velocity=85 time=0
EXTRACT: note_on channel=8 note=64 velocity=119 time=0
EXTRACT: note_on channel=3 note=61 velocity=0 time=0.005263149999999999
EXTRACT: note_on channel=9 note=40 velocity=0 time=0.04736835
EXTRACT: note_on channel=9 note=42 velocity=0 time=0
EXTRACT: note_on channel=9 note=69 velocity=0 time=0
EXTRACT: note_on channel=2 note=61 velocity=121 time=0.09999984999999999
EXTRACT: note_on channel=9 note=69 velocity=70 time=0.005263149999999999
EXTRACT: note_on channel=4 note=64 velocity=59 time=0
EXTRACT: note_on channel=4 note=61 velocity=77 time=0
EXTRACT: note_on channel=4 note=57 velocity=81 time=0
EXTRACT: note_on channel=4 note=54 velocity=81 time=0
EXTRACT: note_on channel=3 note=61 velocity=104 time=0.005263149999999999
EXTRACT: note_on channel=9 note=69 velocity=0 time=0.04736835
EXTRACT: note_on channel=1 note=37 velocity=0 time=0.02631575
EXTRACT: note_on channel=4 note=64 velocity=0 time=0
EXTRACT: note_on channel=4 note=61 velocity=0 time=0
EXTRACT: note_on channel=4 note=57 velocity=0 time=0
EXTRACT: note_on channel=4 note=54 velocity=0 time=0
EXTRACT: note_on channel=9 note=42 velocity=97 time=0.07894725
EXTRACT: note_on channel=1 note=42 velocity=116 time=0
EXTRACT: note_on channel=4 note=64 velocity=56 time=0
EXTRACT: note_on channel=4 note=61 velocity=55 time=0
EXTRACT: note_on channel=4 note=57 velocity=58 time=0
EXTRACT: note_on channel=9 note=42 velocity=0 time=0.0526315
EXTRACT: note_on channel=4 note=64 velocity=0 time=0.02631575
EXTRACT: note_on channel=4 note=61 velocity=0 time=0
EXTRACT: note_on channel=4 note=57 velocity=0 time=0
EXTRACT: note_on channel=2 note=57 velocity=105 time=0.07368409999999999
EXTRACT: note_on channel=9 note=69 velocity=62 time=0.005263149999999999
EXTRACT: note_on channel=4 note=64 velocity=90 time=0
EXTRACT: note_on channel=4 note=61 velocity=77 time=0
EXTRACT: note_on channel=4 note=57 velocity=53 time=0
EXTRACT: note_on channel=4 note=54 velocity=58 time=0
EXTRACT: note_on channel=5 note=81 velocity=0 time=0
EXTRACT: note_on channel=5 note=69 velocity=0 time=0
EXTRACT: note_on channel=3 note=61 velocity=0 time=0.005263149999999999
EXTRACT: note_on channel=9 note=69 velocity=0 time=0.04736835
EXTRACT: note_on channel=1 note=42 velocity=0 time=0.02631575
EXTRACT: note_on channel=4 note=64 velocity=0 time=0
EXTRACT: note_on channel=4 note=61 velocity=0 time=0
EXTRACT: note_on channel=4 note=57 velocity=0 time=0
EXTRACT: note_on channel=4 note=54 velocity=0 time=0
EXTRACT: note_on channel=2 note=61 velocity=109 time=0.07368409999999999
EXTRACT: note_on channel=9 note=36 velocity=120 time=0.005263149999999999
EXTRACT: note_on channel=9 note=42 velocity=93 time=0
EXTRACT: note_on channel=1 note=37 velocity=112 time=0
EXTRACT: note_on channel=4 note=64 velocity=65 time=0
EXTRACT: note_on channel=4 note=61 velocity=61 time=0
EXTRACT: note_on channel=4 note=57 velocity=44 time=0
EXTRACT: note_on channel=5 note=78 velocity=112 time=0
EXTRACT: note_on channel=5 note=90 velocity=109 time=0
EXTRACT: note_on channel=3 note=61 velocity=103 time=0.005263149999999999
EXTRACT: note_on channel=9 note=36 velocity=0 time=0.04736835
EXTRACT: note_on channel=9 note=42 velocity=0 time=0
EXTRACT: note_on channel=4 note=64 velocity=0 time=0.02631575
EXTRACT: note_on channel=4 note=61 velocity=0 time=0
EXTRACT: note_on channel=4 note=57 velocity=0 time=0
EXTRACT: note_on channel=2 note=64 velocity=105 time=0.07368409999999999
EXTRACT: note_on channel=9 note=69 velocity=73 time=0.005263149999999999
EXTRACT: note_on channel=5 note=78 velocity=0 time=0
EXTRACT: note_on channel=5 note=90 velocity=0 time=0
EXTRACT: note_on channel=8 note=52 velocity=0 time=0
EXTRACT: note_on channel=8 note=64 velocity=0 time=0
EXTRACT: note_on channel=9 note=69 velocity=0 time=0.0526315
EXTRACT: note_on channel=2 note=66 velocity=120 time=0.09999984999999999
EXTRACT: note_on channel=9 note=36 velocity=120 time=0.005263149999999999
EXTRACT: note_on channel=9 note=42 velocity=97 time=0
EXTRACT: note_on channel=9 note=69 velocity=78 time=0
EXTRACT: note_on channel=4 note=64 velocity=103 time=0
EXTRACT: note_on channel=4 note=61 velocity=94 time=0
EXTRACT: note_on channel=4 note=57 velocity=113 time=0
EXTRACT: note_on channel=4 note=54 velocity=112 time=0
EXTRACT: note_on channel=7 note=64 velocity=87 time=0
EXTRACT: note_on channel=7 note=61 velocity=94 time=0
EXTRACT: note_on channel=7 note=57 velocity=88 time=0
EXTRACT: note_on channel=7 note=54 velocity=96 time=0
EXTRACT: note_on channel=9 note=36 velocity=0 time=0.0526315
EXTRACT: note_on channel=9 note=42 velocity=0 time=0
EXTRACT: note_on channel=9 note=69 velocity=0 time=0
EXTRACT: note_on channel=1 note=37 velocity=0 time=0.04736835
EXTRACT: note_on channel=1 note=42 velocity=123 time=0.005263149999999999
EXTRACT: note_on channel=2 note=69 velocity=118 time=0.04736835
EXTRACT: note_on channel=4 note=64 velocity=0 time=0.005263149999999999
EXTRACT: note_on channel=4 note=61 velocity=0 time=0
EXTRACT: note_on channel=4 note=57 velocity=0 time=0
EXTRACT: note_on channel=4 note=54 velocity=0 time=0
EXTRACT: note_on channel=5 note=76 velocity=111 time=0
EXTRACT: note_on channel=5 note=88 velocity=105 time=0
EXTRACT: note_on channel=7 note=64 velocity=0 time=0
EXTRACT: note_on channel=7 note=61 velocity=0 time=0
EXTRACT: note_on channel=7 note=57 velocity=0 time=0
EXTRACT: note_on channel=7 note=54 velocity=0 time=0
EXTRACT: note_on channel=9 note=40 velocity=127 time=0.1578945
EXTRACT: note_on channel=9 note=42 velocity=92 time=0
EXTRACT: note_on channel=9 note=69 velocity=66 time=0
EXTRACT: note_on channel=5 note=76 velocity=0 time=0
EXTRACT: note_on channel=5 note=88 velocity=0 time=0
EXTRACT: note_on channel=9 note=40 velocity=0 time=0.0526315
EXTRACT: note_on channel=9 note=42 velocity=0 time=0
EXTRACT: note_on channel=9 note=69 velocity=0 time=0
EXTRACT: note_on channel=4 note=64 velocity=51 time=0.105263
EXTRACT: note_on channel=4 note=61 velocity=54 time=0
EXTRACT: note_on channel=4 note=57 velocity=66 time=0
EXTRACT: note_on channel=1 note=42 velocity=0 time=0.04736835
EXTRACT: note_on channel=1 note=49 velocity=109 time=0.005263149999999999
EXTRACT: note_on channel=4 note=64 velocity=0 time=0.02631575
EXTRACT: note_on channel=4 note=61 velocity=0 time=0
EXTRACT: note_on channel=4 note=57 velocity=0 time=0
EXTRACT: note_on channel=9 note=36 velocity=90 time=0.07894725
EXTRACT: note_on channel=9 note=42 velocity=98 time=0
EXTRACT: note_on channel=4 note=64 velocity=77 time=0
EXTRACT: note_on channel=4 note=61 velocity=55 time=0
EXTRACT: note_on channel=4 note=57 velocity=82 time=0
EXTRACT: note_on channel=4 note=54 velocity=65 time=0
EXTRACT: note_on channel=5 note=86 velocity=109 time=0
EXTRACT: note_on channel=5 note=74 velocity=98 time=0
EXTRACT: note_on channel=3 note=61 velocity=110 time=0.005263149999999999
EXTRACT: note_on channel=9 note=36 velocity=0 time=0.04736835
EXTRACT: note_on channel=9 note=42 velocity=0 time=0
EXTRACT: note_on channel=4 note=64 velocity=0 time=0.02631575
EXTRACT: note_on channel=4 note=61 velocity=0 time=0
EXTRACT: note_on channel=4 note=57 velocity=0 time=0
EXTRACT: note_on channel=4 note=54 velocity=0 time=0
EXTRACT: note_on channel=9 note=40 velocity=127 time=0.07894725
EXTRACT: note_on channel=5 note=86 velocity=0 time=0
EXTRACT: note_on channel=5 note=74 velocity=0 time=0
EXTRACT: note_on channel=9 note=40 velocity=0 time=0.0526315
EXTRACT: note_on channel=2 note=57 velocity=0 time=0.09999984999999999
EXTRACT: note_on channel=2 note=54 velocity=0 time=0
EXTRACT: note_on channel=2 note=61 velocity=0 time=0
EXTRACT: note_on channel=2 note=64 velocity=0 time=0
EXTRACT: note_on channel=2 note=61 velocity=0 time=0
EXTRACT: note_on channel=2 note=57 velocity=0 time=0
EXTRACT: note_on channel=2 note=61 velocity=0 time=0
EXTRACT: note_on channel=2 note=64 velocity=0 time=0
EXTRACT: note_on channel=2 note=66 velocity=0 time=0
EXTRACT: note_on channel=2 note=69 velocity=0 time=0
EXTRACT: note_on channel=9 note=49 velocity=100 time=0.005263149999999999
EXTRACT: note_on channel=9 note=36 velocity=120 time=0
EXTRACT: note_on channel=1 note=49 velocity=0 time=0
EXTRACT: note_on channel=1 note=35 velocity=127 time=0
EXTRACT: note_on channel=2 note=62 velocity=118 time=0
EXTRACT: note_on channel=2 note=66 velocity=118 time=0
EXTRACT: note_on channel=2 note=71 velocity=118 time=0
EXTRACT: note_on channel=4 note=66 velocity=65 time=0
EXTRACT: note_on channel=4 note=62 velocity=65 time=0
EXTRACT: note_on channel=4 note=71 velocity=65 time=0
EXTRACT: note_on channel=6 note=57 velocity=0 time=0
EXTRACT: note_on channel=6 note=61 velocity=0 time=0
EXTRACT: note_on channel=6 note=66 velocity=0 time=0
EXTRACT: note_on channel=6 note=62 velocity=123 time=0
EXTRACT: note_on channel=6 note=59 velocity=123 time=0
EXTRACT: note_on channel=6 note=66 velocity=123 time=0
EXTRACT: note_on channel=3 note=61 velocity=0 time=0.005263149999999999
EXTRACT: note_on channel=3 note=61 velocity=0 time=0
EXTRACT: note_on channel=9 note=49 velocity=0 time=0.04736835
EXTRACT: note_on channel=9 note=36 velocity=0 time=0
EXTRACT: note_on channel=1 note=35 velocity=0 time=0.2631575
EXTRACT: note_on channel=2 note=62 velocity=0 time=0
EXTRACT: note_on channel=2 note=66 velocity=0 time=0
EXTRACT: note_on channel=2 note=71 velocity=0 time=0
EXTRACT: note_on channel=4 note=66 velocity=0 time=0
EXTRACT: note_on channel=4 note=62 velocity=0 time=0
EXTRACT: note_on channel=4 note=71 velocity=0 time=0
EXTRACT: note_on channel=6 note=62 velocity=0 time=0
EXTRACT: note_on channel=6 note=59 velocity=0 time=0
EXTRACT: note_on channel=6 note=66 velocity=0 time=0
INTERVALS92 - jennifer_lopez-if_you_had_my_love.mid
unison0
2m0
2M0
3m0
3M0
4m0
4M0
5m0
5M0
6m0
7m0
7M0