EXTRACT: sysex data=(126,127,9,1) time=0
EXTRACT: sysex data=(65,16,66,18,64,0,127,0,65) time=0.0010416666666666667
EXTRACT: control_change channel=0 control=11 value=127 time=0.19021734375
EXTRACT: control_change channel=0 control=71 value=64 time=0.00108695625
EXTRACT: control_change channel=0 control=72 value=64 time=0.00108695625
EXTRACT: control_change channel=0 control=73 value=64 time=0.00108695625
EXTRACT: control_change channel=0 control=74 value=64 time=0.00108695625
EXTRACT: control_change channel=1 control=11 value=127 time=0.013043474999999999
EXTRACT: control_change channel=1 control=71 value=64 time=0.00108695625
EXTRACT: control_change channel=1 control=72 value=64 time=0.00108695625
EXTRACT: control_change channel=1 control=73 value=64 time=0.00108695625
EXTRACT: control_change channel=1 control=74 value=64 time=0.00108695625
EXTRACT: control_change channel=2 control=11 value=127 time=0.013043474999999999
EXTRACT: control_change channel=2 control=71 value=64 time=0.00108695625
EXTRACT: control_change channel=2 control=72 value=64 time=0.00108695625
EXTRACT: control_change channel=2 control=73 value=64 time=0.00108695625
EXTRACT: control_change channel=2 control=74 value=64 time=0.00108695625
EXTRACT: control_change channel=3 control=11 value=127 time=0.013043474999999999
EXTRACT: control_change channel=3 control=71 value=64 time=0.00108695625
EXTRACT: control_change channel=3 control=72 value=64 time=0.00108695625
EXTRACT: control_change channel=3 control=73 value=64 time=0.00108695625
EXTRACT: control_change channel=3 control=74 value=64 time=0.00108695625
EXTRACT: control_change channel=4 control=11 value=127 time=0.013043474999999999
EXTRACT: control_change channel=4 control=71 value=64 time=0.00108695625
EXTRACT: control_change channel=4 control=72 value=64 time=0.00108695625
EXTRACT: control_change channel=4 control=73 value=64 time=0.00108695625
EXTRACT: control_change channel=4 control=74 value=64 time=0.00108695625
EXTRACT: control_change channel=5 control=11 value=127 time=0.013043474999999999
EXTRACT: control_change channel=5 control=71 value=64 time=0.00108695625
EXTRACT: control_change channel=5 control=72 value=64 time=0.00108695625
EXTRACT: control_change channel=5 control=73 value=64 time=0.00108695625
EXTRACT: control_change channel=5 control=74 value=64 time=0.00108695625
EXTRACT: control_change channel=6 control=72 value=64 time=0.011956518749999999
EXTRACT: control_change channel=6 control=11 value=127 time=0.0021739125
EXTRACT: control_change channel=6 control=71 value=64 time=0.0032608687499999997
EXTRACT: control_change channel=6 control=73 value=64 time=0.0021739125
EXTRACT: control_change channel=6 control=74 value=64 time=0
EXTRACT: control_change channel=7 control=11 value=127 time=0.010869562499999999
EXTRACT: control_change channel=7 control=71 value=64 time=0.00108695625
EXTRACT: control_change channel=7 control=72 value=64 time=0.00108695625
EXTRACT: control_change channel=7 control=73 value=64 time=0.00108695625
EXTRACT: control_change channel=7 control=74 value=64 time=0.00108695625
EXTRACT: control_change channel=8 control=11 value=127 time=0.013043474999999999
EXTRACT: control_change channel=8 control=71 value=64 time=0.00108695625
EXTRACT: control_change channel=8 control=72 value=64 time=0.00108695625
EXTRACT: control_change channel=8 control=73 value=64 time=0.00108695625
EXTRACT: control_change channel=8 control=74 value=64 time=0.00108695625
EXTRACT: control_change channel=9 control=11 value=127 time=0.013043474999999999
EXTRACT: control_change channel=9 control=71 value=64 time=0.00108695625
EXTRACT: control_change channel=9 control=72 value=64 time=0.00108695625
EXTRACT: control_change channel=9 control=73 value=64 time=0.00108695625
EXTRACT: control_change channel=9 control=74 value=64 time=0.00108695625
EXTRACT: control_change channel=10 control=11 value=127 time=0.013043474999999999
EXTRACT: control_change channel=10 control=71 value=64 time=0.00108695625
EXTRACT: control_change channel=10 control=72 value=64 time=0.00108695625
EXTRACT: control_change channel=10 control=73 value=64 time=0.00108695625
EXTRACT: control_change channel=10 control=74 value=64 time=0.00108695625
EXTRACT: control_change channel=11 control=11 value=127 time=0.013043474999999999
EXTRACT: control_change channel=11 control=71 value=64 time=0.00108695625
EXTRACT: control_change channel=11 control=72 value=64 time=0.00108695625
EXTRACT: control_change channel=11 control=73 value=64 time=0.00108695625
EXTRACT: control_change channel=11 control=74 value=64 time=0.00108695625
EXTRACT: control_change channel=12 control=11 value=127 time=0.013043474999999999
EXTRACT: control_change channel=12 control=71 value=64 time=0.00108695625
EXTRACT: control_change channel=12 control=72 value=64 time=0.00108695625
EXTRACT: control_change channel=12 control=73 value=64 time=0.00108695625
EXTRACT: control_change channel=12 control=74 value=64 time=0.00108695625
EXTRACT: control_change channel=13 control=11 value=127 time=0.013043474999999999
EXTRACT: control_change channel=13 control=71 value=64 time=0.00108695625
EXTRACT: control_change channel=13 control=72 value=64 time=0.00108695625
EXTRACT: control_change channel=13 control=73 value=64 time=0.00108695625
EXTRACT: control_change channel=13 control=74 value=64 time=0.00108695625
EXTRACT: control_change channel=14 control=11 value=127 time=0.013043474999999999
EXTRACT: control_change channel=14 control=71 value=64 time=0.00108695625
EXTRACT: control_change channel=14 control=72 value=64 time=0.00108695625
EXTRACT: control_change channel=14 control=73 value=64 time=0.00108695625
EXTRACT: control_change channel=14 control=74 value=64 time=0.00108695625
EXTRACT: control_change channel=0 control=94 value=0 time=0.009782606249999999
EXTRACT: control_change channel=0 control=101 value=0 time=0
EXTRACT: control_change channel=0 control=100 value=0 time=0.00108695625
EXTRACT: control_change channel=0 control=6 value=2 time=0.00108695625
EXTRACT: control_change channel=0 control=38 value=0 time=0.00108695625
EXTRACT: control_change channel=15 control=11 value=127 time=0
EXTRACT: control_change channel=15 control=71 value=64 time=0.00108695625
EXTRACT: control_change channel=15 control=72 value=64 time=0.00108695625
EXTRACT: pitchwheel channel=0 pitch=0 time=0.00108695625
EXTRACT: control_change channel=15 control=73 value=64 time=0
EXTRACT: control_change channel=0 control=1 value=0 time=0.00108695625
EXTRACT: control_change channel=15 control=74 value=64 time=0
EXTRACT: control_change channel=1 control=94 value=0 time=0.009782606249999999
EXTRACT: control_change channel=1 control=101 value=0 time=0
EXTRACT: control_change channel=1 control=100 value=0 time=0.00108695625
EXTRACT: control_change channel=1 control=6 value=2 time=0.00108695625
EXTRACT: control_change channel=1 control=38 value=0 time=0.00108695625
EXTRACT: pitchwheel channel=1 pitch=0 time=0.0032608687499999997
EXTRACT: control_change channel=1 control=1 value=0 time=0.00108695625
EXTRACT: control_change channel=2 control=94 value=0 time=0.009782606249999999
EXTRACT: control_change channel=2 control=101 value=0 time=0
EXTRACT: control_change channel=2 control=100 value=0 time=0.00108695625
EXTRACT: control_change channel=2 control=6 value=2 time=0.00108695625
EXTRACT: control_change channel=2 control=38 value=0 time=0.00108695625
EXTRACT: pitchwheel channel=2 pitch=0 time=0.0032608687499999997
EXTRACT: control_change channel=2 control=1 value=0 time=0.00108695625
EXTRACT: control_change channel=3 control=94 value=0 time=0.009782606249999999
EXTRACT: control_change channel=3 control=101 value=0 time=0
EXTRACT: control_change channel=3 control=100 value=0 time=0.00108695625
EXTRACT: control_change channel=3 control=6 value=2 time=0.00108695625
EXTRACT: control_change channel=3 control=38 value=0 time=0.00108695625
EXTRACT: pitchwheel channel=3 pitch=0 time=0.0032608687499999997
EXTRACT: control_change channel=3 control=1 value=0 time=0.00108695625
EXTRACT: control_change channel=0 control=0 value=0 time=0.0021739125
EXTRACT: control_change channel=0 control=32 value=0 time=0.00108695625
EXTRACT: program_change channel=0 program=0 time=0
EXTRACT: control_change channel=0 control=7 value=100 time=0.00108695625
EXTRACT: control_change channel=0 control=10 value=64 time=0
EXTRACT: control_change channel=0 control=91 value=0 time=0
EXTRACT: control_change channel=0 control=93 value=0 time=0
EXTRACT: program_change channel=1 program=36 time=0.0021739125
EXTRACT: control_change channel=1 control=7 value=99 time=0
EXTRACT: control_change channel=1 control=10 value=64 time=0
EXTRACT: control_change channel=1 control=91 value=0 time=0
EXTRACT: control_change channel=1 control=93 value=0 time=0
EXTRACT: program_change channel=2 program=27 time=0.0021739125
EXTRACT: control_change channel=2 control=7 value=77 time=0.00108695625
EXTRACT: control_change channel=2 control=10 value=64 time=0
EXTRACT: control_change channel=2 control=91 value=41 time=0
EXTRACT: control_change channel=2 control=93 value=22 time=0
EXTRACT: control_change channel=4 control=94 value=0 time=0
EXTRACT: program_change channel=3 program=65 time=0.0021739125
EXTRACT: control_change channel=3 control=7 value=127 time=0
EXTRACT: control_change channel=3 control=10 value=64 time=0
EXTRACT: control_change channel=3 control=91 value=56 time=0
EXTRACT: control_change channel=3 control=93 value=15 time=0
EXTRACT: control_change channel=4 control=101 value=0 time=0
EXTRACT: control_change channel=4 control=100 value=0 time=0.00108695625
EXTRACT: control_change channel=4 control=6 value=2 time=0.00108695625
EXTRACT: control_change channel=4 control=38 value=0 time=0.00108695625
EXTRACT: program_change channel=4 program=52 time=0
EXTRACT: control_change channel=4 control=7 value=100 time=0
EXTRACT: control_change channel=4 control=10 value=58 time=0
EXTRACT: control_change channel=4 control=91 value=52 time=0
EXTRACT: control_change channel=4 control=93 value=23 time=0
EXTRACT: pitchwheel channel=4 pitch=0 time=0.00108695625
EXTRACT: program_change channel=5 program=53 time=0.00108695625
EXTRACT: control_change channel=4 control=1 value=0 time=0
EXTRACT: control_change channel=5 control=7 value=100 time=0
EXTRACT: control_change channel=5 control=10 value=64 time=0
EXTRACT: control_change channel=5 control=91 value=30 time=0
EXTRACT: control_change channel=5 control=93 value=0 time=0
EXTRACT: program_change channel=6 program=61 time=0.0021739125
EXTRACT: control_change channel=6 control=7 value=93 time=0.00108695625
EXTRACT: control_change channel=6 control=10 value=75 time=0
EXTRACT: control_change channel=6 control=91 value=60 time=0
EXTRACT: control_change channel=6 control=93 value=21 time=0
EXTRACT: program_change channel=7 program=17 time=0.0021739125
EXTRACT: control_change channel=7 control=7 value=92 time=0
EXTRACT: control_change channel=7 control=10 value=42 time=0
EXTRACT: control_change channel=7 control=91 value=55 time=0
EXTRACT: control_change channel=7 control=93 value=20 time=0
EXTRACT: program_change channel=8 program=62 time=0.0021739125
EXTRACT: control_change channel=8 control=7 value=62 time=0.00108695625
EXTRACT: control_change channel=8 control=10 value=86 time=0
EXTRACT: control_change channel=8 control=91 value=55 time=0
EXTRACT: control_change channel=8 control=93 value=20 time=0
EXTRACT: control_change channel=5 control=94 value=0 time=0.00108695625
EXTRACT: program_change channel=9 program=24 time=0.00108695625
EXTRACT: control_change channel=9 control=7 value=100 time=0
EXTRACT: control_change channel=9 control=10 value=64 time=0
EXTRACT: control_change channel=9 control=91 value=55 time=0
EXTRACT: control_change channel=9 control=93 value=20 time=0
EXTRACT: program_change channel=10 program=90 time=0.0021739125
EXTRACT: control_change channel=10 control=7 value=86 time=0.00108695625
EXTRACT: control_change channel=10 control=10 value=20 time=0
EXTRACT: control_change channel=10 control=91 value=86 time=0
EXTRACT: control_change channel=10 control=93 value=33 time=0
EXTRACT: control_change channel=5 control=101 value=0 time=0
EXTRACT: control_change channel=5 control=100 value=0 time=0.00108695625
EXTRACT: control_change channel=5 control=6 value=2 time=0.00108695625
EXTRACT: control_change channel=5 control=38 value=0 time=0.00108695625
EXTRACT: program_change channel=11 program=81 time=0
EXTRACT: pitchwheel channel=5 pitch=0 time=0
EXTRACT: control_change channel=11 control=7 value=87 time=0
EXTRACT: control_change channel=11 control=10 value=96 time=0
EXTRACT: control_change channel=11 control=91 value=55 time=0
EXTRACT: control_change channel=11 control=93 value=20 time=0
EXTRACT: control_change channel=5 control=1 value=0 time=0
EXTRACT: program_change channel=12 program=50 time=0.00108695625
EXTRACT: control_change channel=12 control=7 value=84 time=0.00108695625
EXTRACT: control_change channel=12 control=10 value=49 time=0
EXTRACT: control_change channel=12 control=91 value=55 time=0
EXTRACT: control_change channel=12 control=93 value=20 time=0
EXTRACT: program_change channel=13 program=39 time=0.0021739125
EXTRACT: control_change channel=13 control=7 value=93 time=0
EXTRACT: control_change channel=13 control=10 value=64 time=0
EXTRACT: control_change channel=13 control=91 value=38 time=0
EXTRACT: control_change channel=13 control=93 value=20 time=0
EXTRACT: control_change channel=14 control=0 value=0 time=0.00108695625
EXTRACT: control_change channel=14 control=32 value=0 time=0.00108695625
EXTRACT: program_change channel=14 program=0 time=0
EXTRACT: control_change channel=14 control=7 value=100 time=0.00108695625
EXTRACT: control_change channel=14 control=10 value=64 time=0
EXTRACT: control_change channel=14 control=91 value=0 time=0
EXTRACT: control_change channel=14 control=93 value=0 time=0
EXTRACT: control_change channel=15 control=0 value=0 time=0.00108695625
EXTRACT: control_change channel=15 control=32 value=0 time=0
EXTRACT: program_change channel=15 program=0 time=0.00108695625
EXTRACT: control_change channel=15 control=7 value=0 time=0
EXTRACT: control_change channel=15 control=10 value=64 time=0
EXTRACT: control_change channel=15 control=91 value=0 time=0
EXTRACT: control_change channel=15 control=93 value=0 time=0
EXTRACT: pitchwheel channel=6 pitch=0 time=0.0021739125
EXTRACT: control_change channel=6 control=94 value=0 time=0.00108695625
EXTRACT: control_change channel=6 control=101 value=0 time=0
EXTRACT: control_change channel=6 control=100 value=0 time=0.00108695625
EXTRACT: control_change channel=6 control=6 value=2 time=0.00108695625
EXTRACT: control_change channel=6 control=38 value=0 time=0.00108695625
EXTRACT: control_change channel=6 control=1 value=0 time=0.0021739125
EXTRACT: control_change channel=7 control=94 value=0 time=0.00869565
EXTRACT: control_change channel=7 control=101 value=0 time=0
EXTRACT: control_change channel=7 control=100 value=0 time=0.00108695625
EXTRACT: control_change channel=7 control=6 value=2 time=0.00108695625
EXTRACT: control_change channel=7 control=38 value=0 time=0.00108695625
EXTRACT: pitchwheel channel=7 pitch=0 time=0.0032608687499999997
EXTRACT: control_change channel=7 control=1 value=0 time=0.00108695625
EXTRACT: control_change channel=8 control=94 value=0 time=0.009782606249999999
EXTRACT: control_change channel=8 control=101 value=0 time=0
EXTRACT: control_change channel=8 control=100 value=0 time=0.00108695625
EXTRACT: control_change channel=8 control=6 value=2 time=0.00108695625
EXTRACT: control_change channel=8 control=38 value=0 time=0.00108695625
EXTRACT: pitchwheel channel=8 pitch=0 time=0.0032608687499999997
EXTRACT: control_change channel=8 control=1 value=0 time=0.00108695625
EXTRACT: control_change channel=9 control=94 value=0 time=0.009782606249999999
EXTRACT: pitchwheel channel=9 pitch=0 time=0.00108695625
EXTRACT: control_change channel=9 control=1 value=0 time=0.00108695625
EXTRACT: control_change channel=10 control=94 value=0 time=0.015217387499999999
EXTRACT: control_change channel=10 control=101 value=0 time=0
EXTRACT: control_change channel=10 control=100 value=0 time=0.00108695625
EXTRACT: control_change channel=10 control=6 value=2 time=0.00108695625
EXTRACT: control_change channel=10 control=38 value=0 time=0.00108695625
EXTRACT: pitchwheel channel=10 pitch=0 time=0.0032608687499999997
EXTRACT: control_change channel=10 control=1 value=0 time=0.00108695625
EXTRACT: control_change channel=11 control=94 value=0 time=0.009782606249999999
EXTRACT: control_change channel=11 control=101 value=0 time=0
EXTRACT: control_change channel=11 control=100 value=0 time=0.00108695625
EXTRACT: control_change channel=11 control=6 value=2 time=0.00108695625
EXTRACT: control_change channel=11 control=38 value=0 time=0.00108695625
EXTRACT: pitchwheel channel=11 pitch=0 time=0.0032608687499999997
EXTRACT: control_change channel=11 control=1 value=0 time=0.00108695625
EXTRACT: control_change channel=12 control=94 value=0 time=0.009782606249999999
EXTRACT: control_change channel=12 control=101 value=0 time=0
EXTRACT: control_change channel=12 control=100 value=0 time=0.00108695625
EXTRACT: control_change channel=12 control=6 value=2 time=0.00108695625
EXTRACT: control_change channel=12 control=38 value=0 time=0.00108695625
EXTRACT: pitchwheel channel=12 pitch=0 time=0.0032608687499999997
EXTRACT: control_change channel=12 control=1 value=0 time=0.00108695625
EXTRACT: control_change channel=13 control=94 value=0 time=0.009782606249999999
EXTRACT: control_change channel=13 control=101 value=0 time=0
EXTRACT: control_change channel=13 control=100 value=0 time=0.00108695625
EXTRACT: control_change channel=13 control=6 value=2 time=0.00108695625
EXTRACT: control_change channel=13 control=38 value=0 time=0.00108695625
EXTRACT: pitchwheel channel=13 pitch=0 time=0.0032608687499999997
EXTRACT: control_change channel=13 control=1 value=0 time=0.00108695625
EXTRACT: control_change channel=14 control=94 value=0 time=0.009782606249999999
EXTRACT: control_change channel=14 control=101 value=0 time=0
EXTRACT: control_change channel=14 control=100 value=0 time=0.00108695625
EXTRACT: control_change channel=14 control=6 value=2 time=0.00108695625
EXTRACT: control_change channel=14 control=38 value=0 time=0.00108695625
EXTRACT: pitchwheel channel=14 pitch=0 time=0.0032608687499999997
EXTRACT: control_change channel=14 control=1 value=0 time=0.00108695625
EXTRACT: control_change channel=15 control=94 value=0 time=0.009782606249999999
EXTRACT: control_change channel=15 control=101 value=0 time=0
EXTRACT: control_change channel=15 control=100 value=0 time=0.00108695625
EXTRACT: control_change channel=15 control=6 value=2 time=0.00108695625
EXTRACT: control_change channel=15 control=38 value=0 time=0.00108695625
EXTRACT: pitchwheel channel=15 pitch=0 time=0.0032608687499999997
EXTRACT: control_change channel=15 control=1 value=0 time=0.00108695625
EXTRACT: note_on channel=1 note=26 velocity=122 time=1.3597822687499999
EXTRACT: note_on channel=3 note=65 velocity=105 time=0
EXTRACT: note_on channel=4 note=50 velocity=96 time=0
EXTRACT: note_on channel=5 note=50 velocity=119 time=0
EXTRACT: note_on channel=5 note=38 velocity=127 time=0
EXTRACT: note_on channel=9 note=35 velocity=119 time=0
EXTRACT: note_on channel=9 note=42 velocity=116 time=0
EXTRACT: note_on channel=13 note=26 velocity=122 time=0
EXTRACT: note_on channel=15 note=65 velocity=1 time=0
EXTRACT: note_on channel=15 note=69 velocity=1 time=0
EXTRACT: note_on channel=15 note=62 velocity=1 time=0
EXTRACT: note_on channel=9 note=42 velocity=0 time=0.03804346875
EXTRACT: note_on channel=9 note=35 velocity=0 time=0.019565212499999998
EXTRACT: note_on channel=5 note=50 velocity=0 time=0.18369560624999998
EXTRACT: note_on channel=2 note=48 velocity=114 time=0.01847825625
EXTRACT: note_on channel=9 note=42 velocity=50 time=0.00108695625
EXTRACT: note_on channel=5 note=38 velocity=0 time=0.0173913
EXTRACT: note_on channel=4 note=50 velocity=0 time=0.006521737499999999
EXTRACT: note_on channel=3 note=65 velocity=0 time=0.014130431249999999
EXTRACT: note_on channel=9 note=42 velocity=0 time=0.014130431249999999
EXTRACT: pitchwheel channel=1 pitch=-690 time=0.019565212499999998
EXTRACT: pitchwheel channel=13 pitch=-690 time=0
EXTRACT: note_on channel=2 note=48 velocity=0 time=0.006521737499999999
EXTRACT: pitchwheel channel=1 pitch=-1725 time=0.009782606249999999
EXTRACT: pitchwheel channel=13 pitch=-1725 time=0
EXTRACT: note_on channel=1 note=26 velocity=0 time=0.011956518749999999
EXTRACT: note_on channel=13 note=26 velocity=0 time=0
EXTRACT: pitchwheel channel=1 pitch=-3278 time=0.0032608687499999997
EXTRACT: pitchwheel channel=13 pitch=-3278 time=0
EXTRACT: pitchwheel channel=1 pitch=-5003 time=0.01630434375
EXTRACT: pitchwheel channel=13 pitch=-5003 time=0
EXTRACT: pitchwheel channel=1 pitch=-6383 time=0.01630434375
EXTRACT: pitchwheel channel=13 pitch=-6383 time=0
EXTRACT: pitchwheel channel=1 pitch=-7073 time=0.01630434375
EXTRACT: pitchwheel channel=13 pitch=-7073 time=0
EXTRACT: pitchwheel channel=1 pitch=-6469 time=0.015217387499999999
EXTRACT: pitchwheel channel=13 pitch=-6469 time=0
EXTRACT: pitchwheel channel=1 pitch=-2415 time=0.013043474999999999
EXTRACT: pitchwheel channel=13 pitch=-2415 time=0
EXTRACT: pitchwheel channel=1 pitch=517 time=0.01630434375
EXTRACT: pitchwheel channel=13 pitch=517 time=0
EXTRACT: pitchwheel channel=1 pitch=0 time=0.015217387499999999
EXTRACT: pitchwheel channel=13 pitch=0 time=0
EXTRACT: note_on channel=2 note=48 velocity=112 time=0.047826074999999996
EXTRACT: note_on channel=9 note=39 velocity=127 time=0.00108695625
EXTRACT: note_on channel=9 note=40 velocity=127 time=0
EXTRACT: note_on channel=9 note=35 velocity=119 time=0
EXTRACT: note_on channel=9 note=42 velocity=116 time=0
EXTRACT: note_on channel=9 note=42 velocity=0 time=0.040217381249999996
EXTRACT: note_on channel=9 note=35 velocity=0 time=0.0173913
EXTRACT: note_on channel=9 note=39 velocity=0 time=0.0021739125
EXTRACT: note_on channel=2 note=48 velocity=0 time=0.00869565
EXTRACT: note_on channel=9 note=40 velocity=0 time=0.0021739125
EXTRACT: note_on channel=2 note=48 velocity=107 time=0.19021734375
EXTRACT: note_on channel=3 note=62 velocity=112 time=0
EXTRACT: note_on channel=9 note=42 velocity=58 time=0
EXTRACT: note_on channel=9 note=42 velocity=0 time=0.043478249999999996
EXTRACT: note_on channel=3 note=62 velocity=0 time=0.0173913
EXTRACT: note_on channel=2 note=48 velocity=0 time=0.009782606249999999
EXTRACT: note_on channel=2 note=48 velocity=103 time=0.18695647499999998
EXTRACT: note_on channel=3 note=60 velocity=119 time=0.0032608687499999997
EXTRACT: note_on channel=9 note=35 velocity=122 time=0
EXTRACT: note_on channel=9 note=42 velocity=107 time=0
EXTRACT: note_on channel=9 note=52 velocity=122 time=0
EXTRACT: note_on channel=9 note=42 velocity=0 time=0.026086949999999998
EXTRACT: note_on channel=9 note=52 velocity=0 time=0.022826081249999998
EXTRACT: note_on channel=9 note=35 velocity=0 time=0.004347825
EXTRACT: note_on channel=3 note=60 velocity=0 time=0.004347825
EXTRACT: note_on channel=2 note=48 velocity=0 time=0.014130431249999999
EXTRACT: note_on channel=9 note=42 velocity=57 time=0.1891303875
EXTRACT: note_on channel=2 note=48 velocity=114 time=0.00108695625
EXTRACT: note_on channel=9 note=42 velocity=0 time=0.03586955625
EXTRACT: note_on channel=2 note=48 velocity=0 time=0.046739118749999996
EXTRACT: pitchwheel channel=2 pitch=-518 time=0.040217381249999996
EXTRACT: pitchwheel channel=2 pitch=-1380 time=0.009782606249999999
EXTRACT: pitchwheel channel=2 pitch=-2674 time=0.019565212499999998
EXTRACT: pitchwheel channel=2 pitch=-3882 time=0.011956518749999999
EXTRACT: pitchwheel channel=2 pitch=-4917 time=0.014130431249999999
EXTRACT: pitchwheel channel=2 pitch=-5520 time=0.019565212499999998
EXTRACT: pitchwheel channel=7 pitch=-87 time=0.004347825
EXTRACT: pitchwheel channel=8 pitch=-87 time=0
EXTRACT: pitchwheel channel=2 pitch=-5779 time=0.011956518749999999
EXTRACT: pitchwheel channel=7 pitch=-2157 time=0.004347825
EXTRACT: pitchwheel channel=8 pitch=-2157 time=0
EXTRACT: pitchwheel channel=2 pitch=-5865 time=0.014130431249999999
EXTRACT: pitchwheel channel=7 pitch=-4140 time=0.0021739125
EXTRACT: pitchwheel channel=8 pitch=-4140 time=0
EXTRACT: pitchwheel channel=7 pitch=-5607 time=0.015217387499999999
EXTRACT: pitchwheel channel=8 pitch=-5607 time=0
EXTRACT: note_on channel=2 note=50 velocity=121 time=0.007608693749999999
EXTRACT: note_on channel=7 note=86 velocity=96 time=0.0021739125
EXTRACT: note_on channel=7 note=74 velocity=96 time=0
EXTRACT: note_on channel=7 note=89 velocity=98 time=0
EXTRACT: note_on channel=7 note=81 velocity=99 time=0
EXTRACT: note_on channel=8 note=86 velocity=96 time=0
EXTRACT: note_on channel=8 note=74 velocity=96 time=0
EXTRACT: note_on channel=8 note=89 velocity=98 time=0
EXTRACT: note_on channel=8 note=81 velocity=99 time=0
EXTRACT: note_on channel=9 note=39 velocity=127 time=0
EXTRACT: note_on channel=9 note=40 velocity=127 time=0
EXTRACT: note_on channel=9 note=35 velocity=127 time=0
EXTRACT: note_on channel=9 note=42 velocity=116 time=0
EXTRACT: pitchwheel channel=2 pitch=-5693 time=0.00108695625
EXTRACT: pitchwheel channel=7 pitch=-6728 time=0.0054347812499999995
EXTRACT: pitchwheel channel=8 pitch=-6728 time=0
EXTRACT: pitchwheel channel=2 pitch=-5175 time=0.015217387499999999
EXTRACT: pitchwheel channel=7 pitch=-7245 time=0.00108695625
EXTRACT: pitchwheel channel=8 pitch=-7245 time=0
EXTRACT: note_on channel=9 note=42 velocity=0 time=0.010869562499999999
EXTRACT: pitchwheel channel=2 pitch=-4140 time=0.00108695625
EXTRACT: pitchwheel channel=7 pitch=-6987 time=0.0032608687499999997
EXTRACT: pitchwheel channel=8 pitch=-6987 time=0
EXTRACT: pitchwheel channel=2 pitch=-3105 time=0.014130431249999999
EXTRACT: pitchwheel channel=7 pitch=-5348 time=0.0021739125
EXTRACT: pitchwheel channel=8 pitch=-5348 time=0
EXTRACT: note_on channel=9 note=39 velocity=0 time=0.007608693749999999
EXTRACT: note_on channel=9 note=35 velocity=0 time=0.00108695625
EXTRACT: pitchwheel channel=2 pitch=-2674 time=0.004347825
EXTRACT: pitchwheel channel=7 pitch=-3709 time=0.0032608687499999997
EXTRACT: pitchwheel channel=8 pitch=-3709 time=0
EXTRACT: control_change channel=7 control=1 value=3 time=0.0032608687499999997
EXTRACT: control_change channel=8 control=1 value=3 time=0
EXTRACT: note_on channel=9 note=40 velocity=0 time=0.0021739125
EXTRACT: pitchwheel channel=2 pitch=-2329 time=0.010869562499999999
EXTRACT: pitchwheel channel=7 pitch=-1294 time=0
EXTRACT: pitchwheel channel=8 pitch=-1294 time=0
EXTRACT: control_change channel=7 control=1 value=7 time=0.0032608687499999997
EXTRACT: control_change channel=8 control=1 value=7 time=0
EXTRACT: pitchwheel channel=2 pitch=-1984 time=0.010869562499999999
EXTRACT: pitchwheel channel=7 pitch=0 time=0.00108695625
EXTRACT: pitchwheel channel=8 pitch=0 time=0
EXTRACT: control_change channel=7 control=1 value=10 time=0.004347825
EXTRACT: control_change channel=8 control=1 value=10 time=0
EXTRACT: pitchwheel channel=2 pitch=-1467 time=0.00869565
EXTRACT: control_change channel=7 control=1 value=13 time=0.006521737499999999
EXTRACT: control_change channel=8 control=1 value=13 time=0
EXTRACT: pitchwheel channel=2 pitch=-949 time=0.015217387499999999
EXTRACT: control_change channel=7 control=1 value=14 time=0.00108695625
EXTRACT: control_change channel=8 control=1 value=14 time=0
EXTRACT: pitchwheel channel=2 pitch=-173 time=0.00869565
EXTRACT: control_change channel=7 control=1 value=10 time=0.007608693749999999
EXTRACT: control_change channel=8 control=1 value=10 time=0
EXTRACT: pitchwheel channel=2 pitch=0 time=0.010869562499999999
EXTRACT: control_change channel=7 control=1 value=11 time=0.0054347812499999995
EXTRACT: control_change channel=8 control=1 value=11 time=0
EXTRACT: control_change channel=7 control=1 value=16 time=0.01630434375
EXTRACT: control_change channel=8 control=1 value=16 time=0
EXTRACT: control_change channel=7 control=1 value=21 time=0.01630434375
EXTRACT: control_change channel=8 control=1 value=21 time=0
EXTRACT: control_change channel=7 control=1 value=24 time=0.015217387499999999
EXTRACT: control_change channel=8 control=1 value=24 time=0
EXTRACT: control_change channel=7 control=1 value=26 time=0.01630434375
EXTRACT: control_change channel=8 control=1 value=26 time=0
EXTRACT: control_change channel=7 control=1 value=28 time=0.01630434375
EXTRACT: control_change channel=8 control=1 value=28 time=0
EXTRACT: note_on channel=2 note=50 velocity=0 time=0.007608693749999999
EXTRACT: note_on channel=1 note=26 velocity=116 time=0.0021739125
EXTRACT: note_on channel=3 note=60 velocity=109 time=0
EXTRACT: note_on channel=4 note=50 velocity=91 time=0
EXTRACT: note_on channel=5 note=50 velocity=109 time=0
EXTRACT: note_on channel=5 note=38 velocity=122 time=0
EXTRACT: note_on channel=9 note=42 velocity=55 time=0
EXTRACT: note_on channel=13 note=26 velocity=116 time=0
EXTRACT: note_on channel=2 note=48 velocity=109 time=0.0032608687499999997
EXTRACT: control_change channel=7 control=1 value=29 time=0.0021739125
EXTRACT: control_change channel=8 control=1 value=29 time=0
EXTRACT: control_change channel=7 control=1 value=30 time=0.015217387499999999
EXTRACT: control_change channel=8 control=1 value=30 time=0
EXTRACT: note_on channel=9 note=42 velocity=0 time=0.021739124999999998
EXTRACT: note_on channel=2 note=48 velocity=0 time=0.0021739125
EXTRACT: control_change channel=7 control=1 value=31 time=0.023913037499999998
EXTRACT: control_change channel=8 control=1 value=31 time=0
EXTRACT: note_on channel=3 note=60 velocity=0 time=0.004347825
EXTRACT: note_on channel=4 note=50 velocity=0 time=0.004347825
EXTRACT: note_on channel=5 note=50 velocity=0 time=0.0032608687499999997
EXTRACT: control_change channel=7 control=1 value=32 time=0.021739124999999998
EXTRACT: control_change channel=8 control=1 value=32 time=0
EXTRACT: control_change channel=7 control=1 value=33 time=0.015217387499999999
EXTRACT: control_change channel=8 control=1 value=33 time=0
EXTRACT: note_on channel=13 note=26 velocity=0 time=0.0032608687499999997
EXTRACT: note_on channel=1 note=26 velocity=0 time=0
EXTRACT: note_on channel=7 note=81 velocity=0 time=0.0032608687499999997
EXTRACT: note_on channel=8 note=81 velocity=0 time=0
EXTRACT: note_on channel=8 note=74 velocity=0 time=0.00108695625
EXTRACT: note_on channel=7 note=74 velocity=0 time=0
EXTRACT: note_on channel=3 note=60 velocity=42 time=0.0054347812499999995
EXTRACT: note_on channel=5 note=38 velocity=0 time=0.0021739125
EXTRACT: control_change channel=7 control=1 value=32 time=0.00108695625
EXTRACT: control_change channel=8 control=1 value=32 time=0
EXTRACT: note_on channel=8 note=89 velocity=0 time=0.00869565
EXTRACT: note_on channel=7 note=89 velocity=0 time=0
EXTRACT: note_on channel=8 note=86 velocity=0 time=0.0032608687499999997
EXTRACT: note_on channel=7 note=86 velocity=0 time=0
EXTRACT: control_change channel=7 control=1 value=31 time=0.004347825
EXTRACT: control_change channel=8 control=1 value=31 time=0
EXTRACT: note_on channel=3 note=60 velocity=0 time=0.015217387499999999
EXTRACT: control_change channel=7 control=1 value=30 time=0.00108695625
EXTRACT: control_change channel=8 control=1 value=30 time=0
EXTRACT: control_change channel=7 control=1 value=23 time=0.01630434375
EXTRACT: control_change channel=8 control=1 value=23 time=0
EXTRACT: control_change channel=7 control=1 value=9 time=0.01630434375
EXTRACT: control_change channel=8 control=1 value=9 time=0
EXTRACT: control_change channel=7 control=1 value=0 time=0.015217387499999999
EXTRACT: control_change channel=8 control=1 value=0 time=0
EXTRACT: note_on channel=2 note=55 velocity=91 time=0.044565206249999996
EXTRACT: note_on channel=15 note=69 velocity=0 time=0.0021739125
EXTRACT: note_on channel=15 note=65 velocity=0 time=0
EXTRACT: note_on channel=15 note=62 velocity=0 time=0
EXTRACT: note_on channel=1 note=31 velocity=116 time=0
EXTRACT: note_on channel=3 note=60 velocity=105 time=0
EXTRACT: note_on channel=4 note=55 velocity=89 time=0
EXTRACT: note_on channel=5 note=55 velocity=105 time=0
EXTRACT: note_on channel=5 note=43 velocity=116 time=0
EXTRACT: note_on channel=9 note=35 velocity=119 time=0
EXTRACT: note_on channel=9 note=42 velocity=116 time=0
EXTRACT: note_on channel=13 note=31 velocity=116 time=0
EXTRACT: note_on channel=15 note=62 velocity=1 time=0
EXTRACT: note_on channel=15 note=59 velocity=1 time=0
EXTRACT: note_on channel=15 note=55 velocity=1 time=0
EXTRACT: note_on channel=9 note=42 velocity=0 time=0.03804346875
EXTRACT: note_on channel=9 note=35 velocity=0 time=0.019565212499999998
EXTRACT: note_on channel=9 note=42 velocity=48 time=0.20326081875
EXTRACT: note_on channel=5 note=43 velocity=0 time=0.045652162499999996
EXTRACT: note_on channel=9 note=42 velocity=0 time=0.006521737499999999
EXTRACT: note_on channel=3 note=60 velocity=0 time=0.046739118749999996
EXTRACT: note_on channel=4 note=55 velocity=0 time=0.015217387499999999
EXTRACT: note_on channel=13 note=31 velocity=0 time=0.0021739125
EXTRACT: note_on channel=1 note=31 velocity=0 time=0
EXTRACT: note_on channel=2 note=53 velocity=105 time=0.010869562499999999
EXTRACT: note_on channel=1 note=29 velocity=114 time=0.0032608687499999997
EXTRACT: note_on channel=3 note=62 velocity=107 time=0
EXTRACT: note_on channel=4 note=53 velocity=103 time=0
EXTRACT: note_on channel=5 note=53 velocity=114 time=0
EXTRACT: note_on channel=5 note=41 velocity=105 time=0
EXTRACT: note_on channel=13 note=29 velocity=114 time=0
EXTRACT: note_on channel=5 note=55 velocity=0 time=0.0021739125
EXTRACT: note_on channel=2 note=55 velocity=0 time=0.021739124999999998
EXTRACT: note_on channel=5 note=53 velocity=0 time=0.0695652
EXTRACT: note_on channel=9 note=39 velocity=127 time=0.0369565125
EXTRACT: note_on channel=9 note=40 velocity=127 time=0
EXTRACT: note_on channel=9 note=35 velocity=119 time=0
EXTRACT: note_on channel=9 note=42 velocity=116 time=0
EXTRACT: note_on channel=3 note=62 velocity=0 time=0.004347825
EXTRACT: note_on channel=4 note=53 velocity=0 time=0.023913037499999998
EXTRACT: note_on channel=13 note=29 velocity=0 time=0.006521737499999999
EXTRACT: note_on channel=1 note=29 velocity=0 time=0
EXTRACT: note_on channel=9 note=42 velocity=0 time=0.0054347812499999995
EXTRACT: note_on channel=5 note=41 velocity=0 time=0.00108695625
EXTRACT: note_on channel=9 note=35 velocity=0 time=0.01630434375
EXTRACT: note_on channel=9 note=39 velocity=0 time=0.0054347812499999995
EXTRACT: note_on channel=9 note=40 velocity=0 time=0.007608693749999999
EXTRACT: note_on channel=2 note=53 velocity=0 time=0.015217387499999999
EXTRACT: note_on channel=3 note=62 velocity=103 time=0.044565206249999996
EXTRACT: note_on channel=3 note=62 velocity=0 time=0.056521724999999995
EXTRACT: note_on channel=1 note=26 velocity=122 time=0.073913025
EXTRACT: note_on channel=3 note=62 velocity=109 time=0
EXTRACT: note_on channel=4 note=50 velocity=85 time=0
EXTRACT: note_on channel=5 note=50 velocity=103 time=0
EXTRACT: note_on channel=5 note=38 velocity=114 time=0
EXTRACT: note_on channel=9 note=42 velocity=55 time=0
EXTRACT: note_on channel=13 note=26 velocity=122 time=0
EXTRACT: note_on channel=2 note=50 velocity=89 time=0.0021739125
EXTRACT: note_on channel=9 note=42 velocity=0 time=0.041304337499999996
EXTRACT: note_on channel=3 note=62 velocity=0 time=0.020652168749999998
EXTRACT: note_on channel=4 note=50 velocity=0 time=0.006521737499999999
EXTRACT: note_on channel=5 note=50 velocity=0 time=0.0326086875
EXTRACT: note_on channel=2 note=50 velocity=0 time=0.020652168749999998
EXTRACT: note_on channel=5 note=38 velocity=0 time=0.00869565
EXTRACT: note_on channel=13 note=26 velocity=0 time=0.00108695625
EXTRACT: note_on channel=1 note=26 velocity=0 time=0
EXTRACT: note_on channel=2 note=55 velocity=84 time=0.12499996875
EXTRACT: note_on channel=1 note=31 velocity=116 time=0.0021739125
EXTRACT: note_on channel=3 note=65 velocity=105 time=0
EXTRACT: note_on channel=4 note=55 velocity=89 time=0
EXTRACT: note_on channel=5 note=55 velocity=112 time=0
EXTRACT: note_on channel=5 note=43 velocity=119 time=0
EXTRACT: note_on channel=9 note=35 velocity=122 time=0
EXTRACT: note_on channel=9 note=42 velocity=107 time=0
EXTRACT: note_on channel=13 note=31 velocity=116 time=0
EXTRACT: note_on channel=9 note=42 velocity=0 time=0.026086949999999998
EXTRACT: note_on channel=9 note=35 velocity=0 time=0.027173906249999998
EXTRACT: note_on channel=3 note=65 velocity=0 time=0.0054347812499999995
EXTRACT: note_on channel=3 note=60 velocity=114 time=0.0717391125
EXTRACT: note_on channel=3 note=60 velocity=0 time=0.07826084999999999
EXTRACT: note_on channel=9 note=42 velocity=55 time=0.052173899999999995
EXTRACT: note_on channel=9 note=42 velocity=0 time=0.0369565125
EXTRACT: note_on channel=5 note=43 velocity=0 time=0.0717391125
EXTRACT: note_on channel=2 note=53 velocity=103 time=0.0173913
EXTRACT: note_on channel=2 note=55 velocity=0 time=0.0032608687499999997
EXTRACT: note_on channel=1 note=29 velocity=112 time=0.00108695625
EXTRACT: note_on channel=3 note=60 velocity=109 time=0
EXTRACT: note_on channel=4 note=53 velocity=105 time=0
EXTRACT: note_on channel=5 note=53 velocity=109 time=0
EXTRACT: note_on channel=5 note=41 velocity=112 time=0
EXTRACT: note_on channel=13 note=29 velocity=112 time=0
EXTRACT: note_on channel=5 note=55 velocity=0 time=0.007608693749999999
EXTRACT: note_on channel=1 note=31 velocity=0 time=0.004347825
EXTRACT: note_on channel=13 note=31 velocity=0 time=0
EXTRACT: note_on channel=4 note=55 velocity=0 time=0.004347825
EXTRACT: note_on channel=4 note=53 velocity=0 time=0.10869562499999999
EXTRACT: note_on channel=9 note=39 velocity=127 time=0.0054347812499999995
EXTRACT: note_on channel=9 note=40 velocity=127 time=0
EXTRACT: note_on channel=9 note=35 velocity=127 time=0
EXTRACT: note_on channel=9 note=42 velocity=116 time=0
EXTRACT: note_on channel=5 note=53 velocity=0 time=0.006521737499999999
EXTRACT: note_on channel=5 note=41 velocity=0 time=0.0032608687499999997
EXTRACT: note_on channel=3 note=60 velocity=0 time=0.020652168749999998
EXTRACT: note_on channel=9 note=42 velocity=0 time=0.0032608687499999997
EXTRACT: note_on channel=2 note=53 velocity=0 time=0.00869565
EXTRACT: note_on channel=13 note=29 velocity=0 time=0.0173913
EXTRACT: note_on channel=1 note=29 velocity=0 time=0
EXTRACT: note_on channel=9 note=39 velocity=0 time=0
EXTRACT: note_on channel=9 note=35 velocity=0 time=0.0032608687499999997
EXTRACT: note_on channel=9 note=40 velocity=0 time=0.013043474999999999
EXTRACT: note_on channel=3 note=65 velocity=42 time=0.054347812499999995
EXTRACT: note_on channel=3 note=65 velocity=0 time=0.0347826
EXTRACT: note_on channel=1 note=24 velocity=119 time=0.09565214999999999
EXTRACT: note_on channel=2 note=48 velocity=98 time=0
EXTRACT: note_on channel=3 note=65 velocity=101 time=0
EXTRACT: note_on channel=4 note=48 velocity=103 time=0
EXTRACT: note_on channel=5 note=48 velocity=119 time=0
EXTRACT: note_on channel=5 note=36 velocity=116 time=0
EXTRACT: note_on channel=9 note=46 velocity=81 time=0
EXTRACT: note_on channel=13 note=24 velocity=119 time=0
EXTRACT: note_on channel=9 note=46 velocity=0 time=0.042391293749999996
EXTRACT: note_on channel=4 note=48 velocity=0 time=0.03369564375
EXTRACT: note_on channel=3 note=65 velocity=0 time=0
EXTRACT: note_on channel=5 note=48 velocity=0 time=0.043478249999999996
EXTRACT: note_on channel=2 note=48 velocity=0 time=0.024999993749999998
EXTRACT: note_on channel=5 note=36 velocity=0 time=0.00108695625
EXTRACT: note_on channel=1 note=24 velocity=0 time=0.0032608687499999997
EXTRACT: note_on channel=13 note=24 velocity=0 time=0
EXTRACT: note_on channel=2 note=50 velocity=81 time=0.10869562499999999
EXTRACT: note_on channel=15 note=59 velocity=0 time=0.0032608687499999997
EXTRACT: note_on channel=15 note=62 velocity=0 time=0
EXTRACT: note_on channel=15 note=55 velocity=0 time=0
EXTRACT: note_on channel=1 note=26 velocity=122 time=0
EXTRACT: note_on channel=3 note=65 velocity=98 time=0
EXTRACT: note_on channel=4 note=50 velocity=96 time=0
EXTRACT: note_on channel=5 note=50 velocity=124 time=0
EXTRACT: note_on channel=5 note=38 velocity=127 time=0
EXTRACT: note_on channel=9 note=35 velocity=119 time=0
EXTRACT: note_on channel=9 note=42 velocity=116 time=0
EXTRACT: note_on channel=13 note=26 velocity=122 time=0
EXTRACT: note_on channel=15 note=65 velocity=1 time=0
EXTRACT: note_on channel=15 note=69 velocity=1 time=0
EXTRACT: note_on channel=15 note=62 velocity=1 time=0
EXTRACT: note_on channel=9 note=42 velocity=0 time=0.03804346875
EXTRACT: note_on channel=9 note=35 velocity=0 time=0.019565212499999998
EXTRACT: note_on channel=2 note=50 velocity=0 time=0.011956518749999999
EXTRACT: note_on channel=5 note=38 velocity=0 time=0.11956518749999999
EXTRACT: note_on channel=5 note=50 velocity=0 time=0.010869562499999999
EXTRACT: note_on channel=9 note=42 velocity=50 time=0.060869549999999994
EXTRACT: note_on channel=2 note=48 velocity=114 time=0.0032608687499999997
EXTRACT: note_on channel=4 note=50 velocity=0 time=0.019565212499999998
EXTRACT: note_on channel=9 note=42 velocity=0 time=0.029347818749999997
EXTRACT: pitchwheel channel=1 pitch=-690 time=0.019565212499999998
EXTRACT: pitchwheel channel=13 pitch=-690 time=0
EXTRACT: note_on channel=2 note=48 velocity=0 time=0.010869562499999999
EXTRACT: pitchwheel channel=1 pitch=-1725 time=0.0054347812499999995
EXTRACT: pitchwheel channel=13 pitch=-1725 time=0
EXTRACT: note_on channel=1 note=26 velocity=0 time=0.011956518749999999
EXTRACT: note_on channel=13 note=26 velocity=0 time=0
EXTRACT: pitchwheel channel=1 pitch=-3278 time=0.0032608687499999997
EXTRACT: pitchwheel channel=13 pitch=-3278 time=0
EXTRACT: note_on channel=3 note=65 velocity=0 time=0.00869565
EXTRACT: pitchwheel channel=1 pitch=-5003 time=0.007608693749999999
EXTRACT: pitchwheel channel=13 pitch=-5003 time=0
EXTRACT: pitchwheel channel=1 pitch=-6383 time=0.01630434375
EXTRACT: pitchwheel channel=13 pitch=-6383 time=0
EXTRACT: pitchwheel channel=1 pitch=-7073 time=0.01630434375
EXTRACT: pitchwheel channel=13 pitch=-7073 time=0
EXTRACT: pitchwheel channel=1 pitch=-6469 time=0.015217387499999999
EXTRACT: pitchwheel channel=13 pitch=-6469 time=0
EXTRACT: pitchwheel channel=1 pitch=-2415 time=0.013043474999999999
EXTRACT: pitchwheel channel=13 pitch=-2415 time=0
EXTRACT: pitchwheel channel=1 pitch=517 time=0.01630434375
EXTRACT: pitchwheel channel=13 pitch=517 time=0
EXTRACT: pitchwheel channel=1 pitch=0 time=0.015217387499999999
EXTRACT: pitchwheel channel=13 pitch=0 time=0
EXTRACT: note_on channel=2 note=48 velocity=112 time=0.045652162499999996
EXTRACT: note_on channel=9 note=39 velocity=127 time=0.0032608687499999997
EXTRACT: note_on channel=9 note=40 velocity=127 time=0
EXTRACT: note_on channel=9 note=35 velocity=119 time=0
EXTRACT: note_on channel=9 note=42 velocity=116 time=0
EXTRACT: note_on channel=9 note=42 velocity=0 time=0.040217381249999996
EXTRACT: note_on channel=9 note=35 velocity=0 time=0.0173913
EXTRACT: note_on channel=9 note=39 velocity=0 time=0.0021739125
EXTRACT: note_on channel=2 note=48 velocity=0 time=0.006521737499999999
EXTRACT: note_on channel=9 note=40 velocity=0 time=0.004347825
EXTRACT: note_on channel=2 note=48 velocity=107 time=0.18804343124999998
EXTRACT: note_on channel=3 note=62 velocity=112 time=0.0021739125
EXTRACT: note_on channel=4 note=57 velocity=107 time=0
EXTRACT: note_on channel=4 note=62 velocity=119 time=0
EXTRACT: note_on channel=9 note=42 velocity=58 time=0
EXTRACT: note_on channel=9 note=42 velocity=0 time=0.043478249999999996
EXTRACT: note_on channel=3 note=62 velocity=0 time=0.01630434375
EXTRACT: note_on channel=2 note=48 velocity=0 time=0.00869565
EXTRACT: note_on channel=4 note=57 velocity=0 time=0.0032608687499999997
EXTRACT: note_on channel=4 note=62 velocity=0 time=0.0054347812499999995
EXTRACT: note_on channel=3 note=60 velocity=116 time=0.18369560624999998
EXTRACT: note_on channel=4 note=57 velocity=114 time=0
EXTRACT: note_on channel=4 note=60 velocity=127 time=0
EXTRACT: note_on channel=9 note=35 velocity=122 time=0
EXTRACT: note_on channel=9 note=42 velocity=107 time=0
EXTRACT: note_on channel=9 note=52 velocity=122 time=0
EXTRACT: note_on channel=2 note=48 velocity=103 time=0.0021739125
EXTRACT: note_on channel=9 note=42 velocity=0 time=0.023913037499999998
EXTRACT: note_on channel=9 note=52 velocity=0 time=0.022826081249999998
EXTRACT: note_on channel=9 note=35 velocity=0 time=0.004347825
EXTRACT: note_on channel=3 note=60 velocity=0 time=0.009782606249999999
EXTRACT: note_on channel=2 note=48 velocity=0 time=0.014130431249999999
EXTRACT: note_on channel=4 note=57 velocity=0 time=0.00108695625
EXTRACT: note_on channel=4 note=60 velocity=0 time=0.004347825
EXTRACT: note_on channel=9 note=42 velocity=57 time=0.17826082499999998
EXTRACT: note_on channel=2 note=48 velocity=114 time=0.004347825
EXTRACT: note_on channel=9 note=42 velocity=0 time=0.0326086875
EXTRACT: note_on channel=2 note=48 velocity=0 time=0.049999987499999995
EXTRACT: pitchwheel channel=2 pitch=-518 time=0.0347826
EXTRACT: pitchwheel channel=2 pitch=-1380 time=0.015217387499999999
EXTRACT: pitchwheel channel=2 pitch=-2674 time=0.011956518749999999
EXTRACT: pitchwheel channel=2 pitch=-3882 time=0.019565212499999998
EXTRACT: pitchwheel channel=2 pitch=-4917 time=0.014130431249999999
EXTRACT: pitchwheel channel=2 pitch=-5520 time=0.020652168749999998
EXTRACT: pitchwheel channel=7 pitch=-87 time=0
EXTRACT: pitchwheel channel=8 pitch=-87 time=0
EXTRACT: pitchwheel channel=2 pitch=-5779 time=0.010869562499999999
EXTRACT: pitchwheel channel=7 pitch=-2157 time=0.0054347812499999995
EXTRACT: pitchwheel channel=8 pitch=-2157 time=0
EXTRACT: pitchwheel channel=2 pitch=-5865 time=0.015217387499999999
EXTRACT: pitchwheel channel=7 pitch=-4140 time=0.00108695625
EXTRACT: pitchwheel channel=8 pitch=-4140 time=0
EXTRACT: pitchwheel channel=7 pitch=-5607 time=0.015217387499999999
EXTRACT: pitchwheel channel=8 pitch=-5607 time=0
EXTRACT: note_on channel=7 note=86 velocity=96 time=0.009782606249999999
EXTRACT: note_on channel=7 note=74 velocity=96 time=0
EXTRACT: note_on channel=7 note=89 velocity=98 time=0
EXTRACT: note_on channel=7 note=81 velocity=99 time=0
EXTRACT: note_on channel=8 note=86 velocity=96 time=0
EXTRACT: note_on channel=8 note=74 velocity=96 time=0
EXTRACT: note_on channel=8 note=89 velocity=98 time=0
EXTRACT: note_on channel=8 note=81 velocity=99 time=0
EXTRACT: note_on channel=9 note=39 velocity=127 time=0
EXTRACT: note_on channel=9 note=40 velocity=127 time=0
EXTRACT: note_on channel=9 note=35 velocity=127 time=0
EXTRACT: note_on channel=9 note=42 velocity=116 time=0
EXTRACT: pitchwheel channel=2 pitch=-5693 time=0.00108695625
EXTRACT: note_on channel=2 note=50 velocity=121 time=0.00108695625
EXTRACT: pitchwheel channel=7 pitch=-6728 time=0.004347825
EXTRACT: pitchwheel channel=8 pitch=-6728 time=0
EXTRACT: pitchwheel channel=2 pitch=-5175 time=0.013043474999999999
EXTRACT: pitchwheel channel=7 pitch=-7245 time=0.0032608687499999997
EXTRACT: pitchwheel channel=8 pitch=-7245 time=0
EXTRACT: pitchwheel channel=2 pitch=-4140 time=0.009782606249999999
EXTRACT: note_on channel=9 note=42 velocity=0 time=0.00108695625
EXTRACT: pitchwheel channel=7 pitch=-6987 time=0.004347825
EXTRACT: pitchwheel channel=8 pitch=-6987 time=0
EXTRACT: pitchwheel channel=2 pitch=-3105 time=0.011956518749999999
EXTRACT: pitchwheel channel=7 pitch=-5348 time=0.004347825
EXTRACT: pitchwheel channel=8 pitch=-5348 time=0
EXTRACT: note_on channel=9 note=39 velocity=0 time=0.007608693749999999
EXTRACT: note_on channel=9 note=35 velocity=0 time=0.00108695625
EXTRACT: pitchwheel channel=2 pitch=-2674 time=0.006521737499999999
EXTRACT: pitchwheel channel=7 pitch=-3709 time=0.00108695625
EXTRACT: pitchwheel channel=8 pitch=-3709 time=0
EXTRACT: control_change channel=7 control=1 value=3 time=0.0032608687499999997
EXTRACT: control_change channel=8 control=1 value=3 time=0
EXTRACT: note_on channel=9 note=40 velocity=0 time=0.0021739125
EXTRACT: pitchwheel channel=7 pitch=-1294 time=0.010869562499999999
EXTRACT: pitchwheel channel=8 pitch=-1294 time=0
EXTRACT: pitchwheel channel=2 pitch=-2329 time=0.00108695625
EXTRACT: control_change channel=7 control=1 value=7 time=0.0021739125
EXTRACT: control_change channel=8 control=1 value=7 time=0
EXTRACT: pitchwheel channel=7 pitch=0 time=0.011956518749999999
EXTRACT: pitchwheel channel=8 pitch=0 time=0
EXTRACT: pitchwheel channel=2 pitch=-1984 time=0.00108695625
EXTRACT: control_change channel=7 control=1 value=10 time=0.0032608687499999997
EXTRACT: control_change channel=8 control=1 value=10 time=0
EXTRACT: pitchwheel channel=2 pitch=-1467 time=0.00869565
EXTRACT: control_change channel=7 control=1 value=13 time=0.006521737499999999
EXTRACT: control_change channel=8 control=1 value=13 time=0
EXTRACT: pitchwheel channel=2 pitch=-949 time=0.009782606249999999
EXTRACT: control_change channel=7 control=1 value=14 time=0.006521737499999999
EXTRACT: control_change channel=8 control=1 value=14 time=0
EXTRACT: pitchwheel channel=2 pitch=-173 time=0.009782606249999999
EXTRACT: control_change channel=7 control=1 value=10 time=0.006521737499999999
EXTRACT: control_change channel=8 control=1 value=10 time=0
EXTRACT: pitchwheel channel=2 pitch=0 time=0.0054347812499999995
EXTRACT: control_change channel=7 control=1 value=11 time=0.010869562499999999
EXTRACT: control_change channel=8 control=1 value=11 time=0
EXTRACT: control_change channel=7 control=1 value=16 time=0.01630434375
EXTRACT: control_change channel=8 control=1 value=16 time=0
EXTRACT: control_change channel=7 control=1 value=21 time=0.01630434375
EXTRACT: control_change channel=8 control=1 value=21 time=0
EXTRACT: control_change channel=7 control=1 value=24 time=0.015217387499999999
EXTRACT: control_change channel=8 control=1 value=24 time=0
EXTRACT: control_change channel=7 control=1 value=26 time=0.01630434375
EXTRACT: control_change channel=8 control=1 value=26 time=0
EXTRACT: control_change channel=7 control=1 value=28 time=0.01630434375
EXTRACT: control_change channel=8 control=1 value=28 time=0
EXTRACT: note_on channel=1 note=26 velocity=116 time=0.009782606249999999
EXTRACT: note_on channel=3 note=62 velocity=93 time=0
EXTRACT: note_on channel=4 note=50 velocity=93 time=0
EXTRACT: note_on channel=5 note=50 velocity=116 time=0
EXTRACT: note_on channel=5 note=38 velocity=119 time=0
EXTRACT: note_on channel=9 note=42 velocity=55 time=0
EXTRACT: note_on channel=13 note=26 velocity=116 time=0
EXTRACT: note_on channel=2 note=48 velocity=109 time=0.00108695625
EXTRACT: note_on channel=2 note=50 velocity=0 time=0.00108695625
EXTRACT: control_change channel=7 control=1 value=29 time=0.0032608687499999997
EXTRACT: control_change channel=8 control=1 value=29 time=0
EXTRACT: control_change channel=7 control=1 value=30 time=0.015217387499999999
EXTRACT: control_change channel=8 control=1 value=30 time=0
EXTRACT: note_on channel=3 note=62 velocity=0 time=0.0173913
EXTRACT: note_on channel=2 note=48 velocity=0 time=0.004347825
EXTRACT: note_on channel=9 note=42 velocity=0 time=0
EXTRACT: control_change channel=7 control=1 value=31 time=0.026086949999999998
EXTRACT: control_change channel=8 control=1 value=31 time=0
EXTRACT: note_on channel=4 note=50 velocity=0 time=0.004347825
EXTRACT: control_change channel=7 control=1 value=32 time=0.029347818749999997
EXTRACT: control_change channel=8 control=1 value=32 time=0
EXTRACT: note_on channel=5 note=50 velocity=0 time=0.009782606249999999
EXTRACT: control_change channel=7 control=1 value=33 time=0.0054347812499999995
EXTRACT: control_change channel=8 control=1 value=33 time=0
EXTRACT: note_on channel=13 note=26 velocity=0 time=0.0032608687499999997
EXTRACT: note_on channel=1 note=26 velocity=0 time=0
EXTRACT: note_on channel=7 note=81 velocity=0 time=0.0032608687499999997
EXTRACT: note_on channel=8 note=81 velocity=0 time=0
EXTRACT: note_on channel=8 note=74 velocity=0 time=0.00108695625
EXTRACT: note_on channel=7 note=74 velocity=0 time=0
EXTRACT: note_on channel=3 note=62 velocity=101 time=0.0054347812499999995
EXTRACT: control_change channel=7 control=1 value=32 time=0.0032608687499999997
EXTRACT: control_change channel=8 control=1 value=32 time=0
EXTRACT: note_on channel=8 note=89 velocity=0 time=0.00869565
EXTRACT: note_on channel=7 note=89 velocity=0 time=0
EXTRACT: note_on channel=5 note=38 velocity=0 time=0.00108695625
EXTRACT: note_on channel=7 note=86 velocity=0 time=0.0021739125
EXTRACT: note_on channel=8 note=86 velocity=0 time=0
EXTRACT: control_change channel=7 control=1 value=31 time=0.004347825
EXTRACT: control_change channel=8 control=1 value=31 time=0
EXTRACT: control_change channel=7 control=1 value=30 time=0.01630434375
EXTRACT: control_change channel=8 control=1 value=30 time=0
EXTRACT: control_change channel=7 control=1 value=23 time=0.01630434375
EXTRACT: control_change channel=8 control=1 value=23 time=0
EXTRACT: note_on channel=3 note=62 velocity=0 time=0.007608693749999999
EXTRACT: control_change channel=7 control=1 value=9 time=0.00869565
EXTRACT: control_change channel=8 control=1 value=9 time=0
EXTRACT: control_change channel=7 control=1 value=0 time=0.015217387499999999
EXTRACT: control_change channel=8 control=1 value=0 time=0
EXTRACT: note_on channel=2 note=55 velocity=96 time=0.044565206249999996
EXTRACT: note_on channel=15 note=65 velocity=0 time=0.0021739125
EXTRACT: note_on channel=15 note=69 velocity=0 time=0
EXTRACT: note_on channel=15 note=62 velocity=0 time=0
EXTRACT: note_on channel=1 note=31 velocity=116 time=0
EXTRACT: note_on channel=3 note=60 velocity=107 time=0
EXTRACT: note_on channel=4 note=55 velocity=98 time=0
EXTRACT: note_on channel=5 note=55 velocity=114 time=0
EXTRACT: note_on channel=5 note=43 velocity=119 time=0
EXTRACT: note_on channel=9 note=35 velocity=119 time=0
EXTRACT: note_on channel=9 note=42 velocity=116 time=0
EXTRACT: note_on channel=13 note=31 velocity=116 time=0
EXTRACT: note_on channel=15 note=62 velocity=1 time=0
EXTRACT: note_on channel=15 note=59 velocity=1 time=0
EXTRACT: note_on channel=15 note=55 velocity=1 time=0
EXTRACT: note_on channel=9 note=42 velocity=0 time=0.03804346875
EXTRACT: note_on channel=9 note=35 velocity=0 time=0.019565212499999998
EXTRACT: note_on channel=3 note=60 velocity=0 time=0.0054347812499999995
EXTRACT: note_on channel=3 note=60 velocity=98 time=0.1978260375
EXTRACT: note_on channel=9 note=42 velocity=48 time=0
EXTRACT: note_on channel=3 note=60 velocity=0 time=0.042391293749999996
EXTRACT: note_on channel=9 note=42 velocity=0 time=0.009782606249999999
EXTRACT: note_on channel=5 note=43 velocity=0 time=0.052173899999999995
EXTRACT: note_on channel=5 note=55 velocity=0 time=0.010869562499999999
EXTRACT: note_on channel=13 note=31 velocity=0 time=0.00108695625
EXTRACT: note_on channel=1 note=31 velocity=0 time=0
EXTRACT: note_on channel=4 note=55 velocity=0 time=0.006521737499999999
EXTRACT: note_on channel=2 note=55 velocity=0 time=0.004347825
EXTRACT: note_on channel=1 note=29 velocity=114 time=0.0032608687499999997
EXTRACT: note_on channel=2 note=53 velocity=107 time=0
EXTRACT: note_on channel=3 note=62 velocity=119 time=0
EXTRACT: note_on channel=4 note=53 velocity=105 time=0
EXTRACT: note_on channel=5 note=53 velocity=122 time=0
EXTRACT: note_on channel=5 note=41 velocity=114 time=0
EXTRACT: note_on channel=13 note=29 velocity=114 time=0
EXTRACT: note_on channel=3 note=62 velocity=0 time=0.060869549999999994
EXTRACT: note_on channel=5 note=53 velocity=0 time=0.051086943749999995
EXTRACT: note_on channel=4 note=53 velocity=0 time=0.01630434375
EXTRACT: note_on channel=3 note=62 velocity=119 time=0.0021739125
EXTRACT: note_on channel=7 note=89 velocity=104 time=0
EXTRACT: note_on channel=7 note=84 velocity=104 time=0
EXTRACT: note_on channel=7 note=86 velocity=104 time=0
EXTRACT: note_on channel=9 note=39 velocity=127 time=0
EXTRACT: note_on channel=9 note=40 velocity=127 time=0
EXTRACT: note_on channel=9 note=35 velocity=119 time=0
EXTRACT: note_on channel=9 note=42 velocity=116 time=0
EXTRACT: note_on channel=13 note=29 velocity=0 time=0.0347826
EXTRACT: note_on channel=1 note=29 velocity=0 time=0
EXTRACT: note_on channel=9 note=42 velocity=0 time=0.0054347812499999995
EXTRACT: note_on channel=5 note=41 velocity=0 time=0.009782606249999999
EXTRACT: note_on channel=2 note=53 velocity=0 time=0.004347825
EXTRACT: note_on channel=9 note=35 velocity=0 time=0.0032608687499999997
EXTRACT: note_on channel=3 note=62 velocity=0 time=0.0032608687499999997
EXTRACT: note_on channel=9 note=39 velocity=0 time=0.0021739125
EXTRACT: note_on channel=7 note=84 velocity=0 time=0.0032608687499999997
EXTRACT: note_on channel=9 note=40 velocity=0 time=0.004347825
EXTRACT: note_on channel=7 note=86 velocity=0 time=0.0054347812499999995
EXTRACT: note_on channel=7 note=89 velocity=0 time=0.006521737499999999
EXTRACT: note_on channel=7 note=84 velocity=88 time=0.047826074999999996
EXTRACT: note_on channel=7 note=86 velocity=88 time=0
EXTRACT: note_on channel=7 note=89 velocity=88 time=0
EXTRACT: note_on channel=7 note=89 velocity=0 time=0.046739118749999996
EXTRACT: note_on channel=7 note=84 velocity=0 time=0
EXTRACT: note_on channel=7 note=86 velocity=0 time=0
EXTRACT: note_on channel=1 note=26 velocity=122 time=0.08369563124999999
EXTRACT: note_on channel=3 note=62 velocity=112 time=0
EXTRACT: note_on channel=4 note=50 velocity=76 time=0
EXTRACT: note_on channel=5 note=50 velocity=105 time=0
EXTRACT: note_on channel=5 note=38 velocity=116 time=0
EXTRACT: note_on channel=7 note=84 velocity=88 time=0
EXTRACT: note_on channel=7 note=86 velocity=88 time=0
EXTRACT: note_on channel=7 note=89 velocity=88 time=0
EXTRACT: note_on channel=9 note=42 velocity=55 time=0
EXTRACT: note_on channel=13 note=26 velocity=122 time=0
EXTRACT: note_on channel=2 note=50 velocity=94 time=0.00108695625
EXTRACT: note_on channel=9 note=42 velocity=0 time=0.042391293749999996
EXTRACT: note_on channel=7 note=86 velocity=0 time=0.0032608687499999997
EXTRACT: note_on channel=7 note=84 velocity=0 time=0
EXTRACT: note_on channel=7 note=89 velocity=0 time=0
EXTRACT: note_on channel=4 note=50 velocity=0 time=0.01847825625
EXTRACT: note_on channel=3 note=62 velocity=0 time=0.019565212499999998
EXTRACT: note_on channel=5 note=50 velocity=0 time=0.015217387499999999
EXTRACT: note_on channel=2 note=50 velocity=0 time=0.006521737499999999
EXTRACT: note_on channel=1 note=26 velocity=0 time=0.027173906249999998
EXTRACT: note_on channel=13 note=26 velocity=0 time=0
EXTRACT: note_on channel=5 note=38 velocity=0 time=0.0054347812499999995
EXTRACT: note_on channel=1 note=31 velocity=116 time=0.12173909999999999
EXTRACT: note_on channel=3 note=62 velocity=114 time=0
EXTRACT: note_on channel=4 note=55 velocity=89 time=0
EXTRACT: note_on channel=5 note=55 velocity=109 time=0
EXTRACT: note_on channel=5 note=43 velocity=119 time=0
EXTRACT: note_on channel=9 note=35 velocity=122 time=0
EXTRACT: note_on channel=9 note=42 velocity=107 time=0
EXTRACT: note_on channel=13 note=31 velocity=116 time=0
EXTRACT: note_on channel=2 note=55 velocity=85 time=0.0021739125
EXTRACT: note_on channel=9 note=42 velocity=0 time=0.023913037499999998
EXTRACT: note_on channel=9 note=35 velocity=0 time=0.027173906249999998
EXTRACT: note_on channel=3 note=62 velocity=0 time=0.024999993749999998
EXTRACT: note_on channel=3 note=60 velocity=105 time=0.18260864999999998
EXTRACT: note_on channel=7 note=89 velocity=88 time=0
EXTRACT: note_on channel=7 note=84 velocity=88 time=0
EXTRACT: note_on channel=7 note=86 velocity=88 time=0
EXTRACT: note_on channel=9 note=42 velocity=55 time=0
EXTRACT: note_on channel=9 note=42 velocity=0 time=0.0369565125
EXTRACT: note_on channel=7 note=86 velocity=0 time=0
EXTRACT: note_on channel=7 note=89 velocity=0 time=0.009782606249999999
EXTRACT: note_on channel=7 note=84 velocity=0 time=0.007608693749999999
EXTRACT: note_on channel=3 note=60 velocity=0 time=0.011956518749999999
EXTRACT: note_on channel=5 note=43 velocity=0 time=0.057608681249999995
EXTRACT: note_on channel=1 note=29 velocity=112 time=0.006521737499999999
EXTRACT: note_on channel=3 note=60 velocity=105 time=0
EXTRACT: note_on channel=4 note=53 velocity=105 time=0
EXTRACT: note_on channel=5 note=53 velocity=112 time=0
EXTRACT: note_on channel=5 note=41 velocity=112 time=0
EXTRACT: note_on channel=7 note=89 velocity=88 time=0
EXTRACT: note_on channel=7 note=84 velocity=88 time=0
EXTRACT: note_on channel=7 note=86 velocity=88 time=0
EXTRACT: note_on channel=13 note=29 velocity=112 time=0
EXTRACT: note_on channel=2 note=53 velocity=105 time=0.004347825
EXTRACT: note_on channel=5 note=55 velocity=0 time=0.0021739125
EXTRACT: note_on channel=13 note=31 velocity=0 time=0.0054347812499999995
EXTRACT: note_on channel=1 note=31 velocity=0 time=0
EXTRACT: note_on channel=2 note=55 velocity=0 time=0
EXTRACT: note_on channel=4 note=55 velocity=0 time=0.006521737499999999
EXTRACT: note_on channel=7 note=86 velocity=0 time=0.041304337499999996
EXTRACT: note_on channel=7 note=89 velocity=0 time=0.007608693749999999
EXTRACT: note_on channel=7 note=84 velocity=0 time=0.0032608687499999997
EXTRACT: note_on channel=3 note=60 velocity=0 time=0.056521724999999995
EXTRACT: note_on channel=7 note=89 velocity=88 time=0.0032608687499999997
EXTRACT: note_on channel=7 note=84 velocity=88 time=0
EXTRACT: note_on channel=7 note=86 velocity=88 time=0
EXTRACT: note_on channel=9 note=39 velocity=127 time=0
EXTRACT: note_on channel=9 note=40 velocity=127 time=0
EXTRACT: note_on channel=9 note=35 velocity=127 time=0
EXTRACT: note_on channel=9 note=42 velocity=116 time=0
EXTRACT: note_on channel=5 note=53 velocity=0 time=0.029347818749999997
EXTRACT: note_on channel=5 note=41 velocity=0 time=0.00108695625
EXTRACT: note_on channel=9 note=42 velocity=0 time=0.0032608687499999997
EXTRACT: note_on channel=7 note=89 velocity=0 time=0.01847825625
EXTRACT: note_on channel=7 note=86 velocity=0 time=0.00108695625
EXTRACT: note_on channel=4 note=53 velocity=0 time=0.00108695625
EXTRACT: note_on channel=7 note=84 velocity=0 time=0.004347825
EXTRACT: note_on channel=1 note=29 velocity=0 time=0.00108695625
EXTRACT: note_on channel=9 note=39 velocity=0 time=0
EXTRACT: note_on channel=13 note=29 velocity=0 time=0
EXTRACT: note_on channel=9 note=35 velocity=0 time=0.0032608687499999997
EXTRACT: note_on channel=2 note=53 velocity=0 time=0.0054347812499999995
EXTRACT: note_on channel=9 note=40 velocity=0 time=0.007608693749999999
EXTRACT: note_on channel=3 note=65 velocity=119 time=0.054347812499999995
EXTRACT: note_on channel=7 note=89 velocity=88 time=0
EXTRACT: note_on channel=7 note=84 velocity=88 time=0
EXTRACT: note_on channel=7 note=86 velocity=88 time=0
EXTRACT: note_on channel=3 note=65 velocity=0 time=0.060869549999999994
EXTRACT: note_on channel=7 note=89 velocity=0 time=0.00108695625
EXTRACT: note_on channel=7 note=86 velocity=0 time=0.014130431249999999
EXTRACT: note_on channel=7 note=84 velocity=0 time=0.0021739125
EXTRACT: note_on channel=2 note=48 velocity=112 time=0.048913031249999996
EXTRACT: note_on channel=1 note=24 velocity=119 time=0.0032608687499999997
EXTRACT: note_on channel=3 note=65 velocity=105 time=0
EXTRACT: note_on channel=4 note=48 velocity=109 time=0
EXTRACT: note_on channel=5 note=48 velocity=127 time=0
EXTRACT: note_on channel=5 note=36 velocity=122 time=0
EXTRACT: note_on channel=7 note=89 velocity=88 time=0
EXTRACT: note_on channel=7 note=84 velocity=88 time=0
EXTRACT: note_on channel=7 note=86 velocity=88 time=0
EXTRACT: note_on channel=9 note=46 velocity=81 time=0
EXTRACT: note_on channel=13 note=24 velocity=119 time=0
EXTRACT: note_on channel=9 note=46 velocity=0 time=0.042391293749999996
EXTRACT: note_on channel=7 note=86 velocity=0 time=0.007608693749999999
EXTRACT: note_on channel=7 note=89 velocity=0 time=0
EXTRACT: note_on channel=7 note=84 velocity=0 time=0.010869562499999999
EXTRACT: note_on channel=3 note=65 velocity=0 time=0.020652168749999998
EXTRACT: note_on channel=2 note=48 velocity=0 time=0.01847825625
EXTRACT: note_on channel=4 note=48 velocity=0 time=0.010869562499999999
EXTRACT: note_on channel=5 note=36 velocity=0 time=0.013043474999999999
EXTRACT: note_on channel=5 note=48 velocity=0 time=0.006521737499999999
EXTRACT: note_on channel=7 note=89 velocity=88 time=0
EXTRACT: note_on channel=7 note=84 velocity=88 time=0
EXTRACT: note_on channel=7 note=86 velocity=88 time=0
EXTRACT: note_on channel=13 note=24 velocity=0 time=0.01847825625
EXTRACT: note_on channel=1 note=24 velocity=0 time=0
EXTRACT: note_on channel=7 note=89 velocity=0 time=0.029347818749999997
EXTRACT: note_on channel=7 note=86 velocity=0 time=0.00869565
EXTRACT: note_on channel=7 note=84 velocity=0 time=0.0054347812499999995
EXTRACT: note_on channel=2 note=50 velocity=98 time=0.065217375
EXTRACT: note_on channel=15 note=59 velocity=0 time=0.0032608687499999997
EXTRACT: note_on channel=15 note=62 velocity=0 time=0
EXTRACT: note_on channel=15 note=55 velocity=0 time=0
EXTRACT: note_on channel=1 note=26 velocity=122 time=0
EXTRACT: note_on channel=3 note=65 velocity=107 time=0
EXTRACT: note_on channel=4 note=50 velocity=96 time=0
EXTRACT: note_on channel=5 note=50 velocity=119 time=0
EXTRACT: note_on channel=5 note=38 velocity=127 time=0
EXTRACT: note_on channel=9 note=35 velocity=119 time=0
EXTRACT: note_on channel=9 note=42 velocity=116 time=0
EXTRACT: note_on channel=13 note=26 velocity=122 time=0
EXTRACT: note_on channel=15 note=65 velocity=1 time=0
EXTRACT: note_on channel=15 note=69 velocity=1 time=0
EXTRACT: note_on channel=15 note=62 velocity=1 time=0
EXTRACT: note_on channel=9 note=42 velocity=0 time=0.03804346875
EXTRACT: note_on channel=9 note=35 velocity=0 time=0.019565212499999998
EXTRACT: note_on channel=2 note=50 velocity=0 time=0.058695637499999995
EXTRACT: note_on channel=5 note=50 velocity=0 time=0.12499996875
EXTRACT: note_on channel=2 note=48 velocity=114 time=0.019565212499999998
EXTRACT: note_on channel=9 note=42 velocity=50 time=0
EXTRACT: note_on channel=5 note=38 velocity=0 time=0.0173913
EXTRACT: note_on channel=4 note=50 velocity=0 time=0.0054347812499999995
EXTRACT: note_on channel=9 note=42 velocity=0 time=0.029347818749999997
EXTRACT: pitchwheel channel=1 pitch=-690 time=0.019565212499999998
EXTRACT: pitchwheel channel=13 pitch=-690 time=0
EXTRACT: note_on channel=2 note=48 velocity=0 time=0.007608693749999999
EXTRACT: pitchwheel channel=1 pitch=-1725 time=0.00869565
EXTRACT: pitchwheel channel=13 pitch=-1725 time=0
EXTRACT: note_on channel=1 note=26 velocity=0 time=0.011956518749999999
EXTRACT: note_on channel=13 note=26 velocity=0 time=0
EXTRACT: pitchwheel channel=1 pitch=-3278 time=0.0032608687499999997
EXTRACT: pitchwheel channel=13 pitch=-3278 time=0
EXTRACT: pitchwheel channel=1 pitch=-5003 time=0.01630434375
EXTRACT: pitchwheel channel=13 pitch=-5003 time=0
EXTRACT: pitchwheel channel=1 pitch=-6383 time=0.01630434375
EXTRACT: pitchwheel channel=13 pitch=-6383 time=0
EXTRACT: note_on channel=3 note=65 velocity=0 time=0.015217387499999999
EXTRACT: pitchwheel channel=1 pitch=-7073 time=0.00108695625
EXTRACT: pitchwheel channel=13 pitch=-7073 time=0
EXTRACT: pitchwheel channel=1 pitch=-6469 time=0.015217387499999999
EXTRACT: pitchwheel channel=13 pitch=-6469 time=0
EXTRACT: pitchwheel channel=1 pitch=-2415 time=0.013043474999999999
EXTRACT: pitchwheel channel=13 pitch=-2415 time=0
EXTRACT: pitchwheel channel=1 pitch=517 time=0.01630434375
EXTRACT: pitchwheel channel=13 pitch=517 time=0
EXTRACT: pitchwheel channel=1 pitch=0 time=0.015217387499999999
EXTRACT: pitchwheel channel=13 pitch=0 time=0
EXTRACT: note_on channel=9 note=39 velocity=127 time=0.048913031249999996
EXTRACT: note_on channel=9 note=40 velocity=127 time=0
EXTRACT: note_on channel=9 note=35 velocity=119 time=0
EXTRACT: note_on channel=9 note=42 velocity=116 time=0
EXTRACT: note_on channel=2 note=48 velocity=112 time=0.004347825
EXTRACT: note_on channel=9 note=42 velocity=0 time=0.03586955625
EXTRACT: note_on channel=9 note=35 velocity=0 time=0.0173913
EXTRACT: note_on channel=9 note=39 velocity=0 time=0.0021739125
EXTRACT: note_on channel=9 note=40 velocity=0 time=0.010869562499999999
EXTRACT: note_on channel=2 note=48 velocity=0 time=0.0032608687499999997
EXTRACT: note_on channel=2 note=48 velocity=107 time=0.18586951875
EXTRACT: note_on channel=3 note=62 velocity=112 time=0.00108695625
EXTRACT: note_on channel=4 note=57 velocity=107 time=0
EXTRACT: note_on channel=4 note=62 velocity=119 time=0
EXTRACT: note_on channel=9 note=42 velocity=58 time=0
EXTRACT: note_on channel=9 note=42 velocity=0 time=0.043478249999999996
EXTRACT: note_on channel=3 note=62 velocity=0 time=0.023913037499999998
EXTRACT: note_on channel=2 note=48 velocity=0 time=0.0021739125
EXTRACT: note_on channel=4 note=57 velocity=0 time=0.0021739125
EXTRACT: note_on channel=4 note=62 velocity=0 time=0.0054347812499999995
EXTRACT: note_on channel=3 note=60 velocity=116 time=0.18369560624999998
EXTRACT: note_on channel=4 note=57 velocity=114 time=0
EXTRACT: note_on channel=4 note=60 velocity=127 time=0
EXTRACT: note_on channel=9 note=35 velocity=122 time=0
EXTRACT: note_on channel=9 note=42 velocity=107 time=0
EXTRACT: note_on channel=9 note=52 velocity=122 time=0
EXTRACT: note_on channel=2 note=48 velocity=103 time=0.004347825
EXTRACT: note_on channel=9 note=42 velocity=0 time=0.021739124999999998
EXTRACT: note_on channel=9 note=52 velocity=0 time=0.022826081249999998
EXTRACT: note_on channel=9 note=35 velocity=0 time=0.004347825
EXTRACT: note_on channel=3 note=60 velocity=0 time=0.015217387499999999
EXTRACT: note_on channel=4 note=57 velocity=0 time=0.009782606249999999
EXTRACT: note_on channel=2 note=48 velocity=0 time=0.00108695625
EXTRACT: note_on channel=4 note=60 velocity=0 time=0.0032608687499999997
EXTRACT: note_on channel=2 note=48 velocity=114 time=0.17608691249999997
EXTRACT: note_on channel=9 note=42 velocity=57 time=0.0021739125
EXTRACT: note_on channel=9 note=42 velocity=0 time=0.0369565125
EXTRACT: note_on channel=2 note=48 velocity=0 time=0.043478249999999996
EXTRACT: pitchwheel channel=2 pitch=-518 time=0.047826074999999996
EXTRACT: pitchwheel channel=2 pitch=-1380 time=0.010869562499999999
EXTRACT: pitchwheel channel=2 pitch=-2674 time=0.009782606249999999
EXTRACT: pitchwheel channel=2 pitch=-3882 time=0.015217387499999999
EXTRACT: pitchwheel channel=2 pitch=-4917 time=0.021739124999999998
EXTRACT: pitchwheel channel=2 pitch=-5520 time=0.0173913
EXTRACT: pitchwheel channel=7 pitch=-87 time=0
EXTRACT: pitchwheel channel=8 pitch=-87 time=0
EXTRACT: pitchwheel channel=2 pitch=-5779 time=0.011956518749999999
EXTRACT: pitchwheel channel=7 pitch=-2157 time=0.004347825
EXTRACT: pitchwheel channel=8 pitch=-2157 time=0
EXTRACT: pitchwheel channel=2 pitch=-5865 time=0.01630434375
EXTRACT: pitchwheel channel=7 pitch=-4140 time=0
EXTRACT: pitchwheel channel=8 pitch=-4140 time=0
EXTRACT: pitchwheel channel=7 pitch=-5607 time=0.015217387499999999
EXTRACT: pitchwheel channel=8 pitch=-5607 time=0
EXTRACT: note_on channel=7 note=86 velocity=96 time=0.009782606249999999
EXTRACT: note_on channel=7 note=74 velocity=96 time=0
EXTRACT: note_on channel=7 note=89 velocity=98 time=0
EXTRACT: note_on channel=7 note=81 velocity=99 time=0
EXTRACT: note_on channel=8 note=86 velocity=96 time=0
EXTRACT: note_on channel=8 note=74 velocity=96 time=0
EXTRACT: note_on channel=8 note=89 velocity=98 time=0
EXTRACT: note_on channel=8 note=81 velocity=99 time=0
EXTRACT: note_on channel=9 note=39 velocity=127 time=0
EXTRACT: note_on channel=9 note=40 velocity=127 time=0
EXTRACT: note_on channel=9 note=35 velocity=127 time=0
EXTRACT: note_on channel=9 note=42 velocity=116 time=0
EXTRACT: pitchwheel channel=2 pitch=-5693 time=0.0021739125
EXTRACT: note_on channel=2 note=50 velocity=121 time=0.0021739125
EXTRACT: pitchwheel channel=7 pitch=-6728 time=0.0021739125
EXTRACT: pitchwheel channel=8 pitch=-6728 time=0
EXTRACT: pitchwheel channel=2 pitch=-5175 time=0.013043474999999999
EXTRACT: pitchwheel channel=7 pitch=-7245 time=0.0032608687499999997
EXTRACT: pitchwheel channel=8 pitch=-7245 time=0
EXTRACT: note_on channel=9 note=42 velocity=0 time=0.010869562499999999
EXTRACT: pitchwheel channel=2 pitch=-4140 time=0.00108695625
EXTRACT: pitchwheel channel=7 pitch=-6987 time=0.0032608687499999997
EXTRACT: pitchwheel channel=8 pitch=-6987 time=0
EXTRACT: pitchwheel channel=2 pitch=-3105 time=0.009782606249999999
EXTRACT: pitchwheel channel=7 pitch=-5348 time=0.006521737499999999
EXTRACT: pitchwheel channel=8 pitch=-5348 time=0
EXTRACT: note_on channel=9 note=39 velocity=0 time=0.007608693749999999
EXTRACT: note_on channel=9 note=35 velocity=0 time=0.00108695625
EXTRACT: pitchwheel channel=2 pitch=-2674 time=0.006521737499999999
EXTRACT: pitchwheel channel=7 pitch=-3709 time=0.00108695625
EXTRACT: pitchwheel channel=8 pitch=-3709 time=0
EXTRACT: control_change channel=7 control=1 value=3 time=0.0032608687499999997
EXTRACT: control_change channel=8 control=1 value=3 time=0
EXTRACT: note_on channel=9 note=40 velocity=0 time=0.0021739125
EXTRACT: pitchwheel channel=2 pitch=-2329 time=0.004347825
EXTRACT: pitchwheel channel=7 pitch=-1294 time=0.006521737499999999
EXTRACT: pitchwheel channel=8 pitch=-1294 time=0
EXTRACT: control_change channel=7 control=1 value=7 time=0.0032608687499999997
EXTRACT: control_change channel=8 control=1 value=7 time=0
EXTRACT: pitchwheel channel=2 pitch=-1984 time=0.011956518749999999
EXTRACT: pitchwheel channel=7 pitch=0 time=0
EXTRACT: pitchwheel channel=8 pitch=0 time=0
EXTRACT: control_change channel=7 control=1 value=10 time=0.004347825
EXTRACT: control_change channel=8 control=1 value=10 time=0
EXTRACT: pitchwheel channel=2 pitch=-1467 time=0.010869562499999999
EXTRACT: control_change channel=7 control=1 value=13 time=0.004347825
EXTRACT: control_change channel=8 control=1 value=13 time=0
EXTRACT: pitchwheel channel=2 pitch=-949 time=0.009782606249999999
EXTRACT: control_change channel=7 control=1 value=14 time=0.006521737499999999
EXTRACT: control_change channel=8 control=1 value=14 time=0
EXTRACT: pitchwheel channel=2 pitch=-173 time=0.010869562499999999
EXTRACT: control_change channel=7 control=1 value=10 time=0.0054347812499999995
EXTRACT: control_change channel=8 control=1 value=10 time=0
EXTRACT: pitchwheel channel=2 pitch=0 time=0.00869565
EXTRACT: control_change channel=7 control=1 value=11 time=0.007608693749999999
EXTRACT: control_change channel=8 control=1 value=11 time=0
EXTRACT: control_change channel=7 control=1 value=16 time=0.01630434375
EXTRACT: control_change channel=8 control=1 value=16 time=0
EXTRACT: control_change channel=7 control=1 value=21 time=0.01630434375
EXTRACT: control_change channel=8 control=1 value=21 time=0
EXTRACT: control_change channel=7 control=1 value=24 time=0.015217387499999999
EXTRACT: control_change channel=8 control=1 value=24 time=0
EXTRACT: control_change channel=7 control=1 value=26 time=0.01630434375
EXTRACT: control_change channel=8 control=1 value=26 time=0
EXTRACT: control_change channel=7 control=1 value=28 time=0.01630434375
EXTRACT: control_change channel=8 control=1 value=28 time=0
EXTRACT: note_on channel=1 note=26 velocity=116 time=0.009782606249999999
EXTRACT: note_on channel=2 note=48 velocity=109 time=0
EXTRACT: note_on channel=4 note=50 velocity=93 time=0
EXTRACT: note_on channel=5 note=50 velocity=109 time=0
EXTRACT: note_on channel=5 note=38 velocity=122 time=0
EXTRACT: note_on channel=9 note=42 velocity=55 time=0
EXTRACT: note_on channel=13 note=26 velocity=116 time=0
EXTRACT: note_on channel=2 note=50 velocity=0 time=0.004347825
EXTRACT: control_change channel=7 control=1 value=29 time=0.00108695625
EXTRACT: control_change channel=8 control=1 value=29 time=0
EXTRACT: control_change channel=7 control=1 value=30 time=0.015217387499999999
EXTRACT: control_change channel=8 control=1 value=30 time=0
EXTRACT: note_on channel=2 note=48 velocity=0 time=0.020652168749999998
EXTRACT: note_on channel=9 note=42 velocity=0 time=0.00108695625
EXTRACT: control_change channel=7 control=1 value=31 time=0.026086949999999998
EXTRACT: control_change channel=8 control=1 value=31 time=0
EXTRACT: note_on channel=4 note=50 velocity=0 time=0.004347825
EXTRACT: note_on channel=5 note=50 velocity=0 time=0.007608693749999999
EXTRACT: control_change channel=7 control=1 value=32 time=0.021739124999999998
EXTRACT: control_change channel=8 control=1 value=32 time=0
EXTRACT: control_change channel=7 control=1 value=33 time=0.015217387499999999
EXTRACT: control_change channel=8 control=1 value=33 time=0
EXTRACT: note_on channel=13 note=26 velocity=0 time=0.0032608687499999997
EXTRACT: note_on channel=1 note=26 velocity=0 time=0
EXTRACT: note_on channel=8 note=81 velocity=0 time=0.0032608687499999997
EXTRACT: note_on channel=7 note=81 velocity=0 time=0
EXTRACT: note_on channel=8 note=74 velocity=0 time=0.00108695625
EXTRACT: note_on channel=7 note=74 velocity=0 time=0
EXTRACT: note_on channel=5 note=38 velocity=0 time=0.007608693749999999
EXTRACT: control_change channel=7 control=1 value=32 time=0.00108695625
EXTRACT: control_change channel=8 control=1 value=32 time=0
EXTRACT: note_on channel=8 note=89 velocity=0 time=0.00869565
EXTRACT: note_on channel=7 note=89 velocity=0 time=0
EXTRACT: note_on channel=8 note=86 velocity=0 time=0.0032608687499999997
EXTRACT: note_on channel=7 note=86 velocity=0 time=0
EXTRACT: control_change channel=7 control=1 value=31 time=0.004347825
EXTRACT: control_change channel=8 control=1 value=31 time=0
EXTRACT: control_change channel=7 control=1 value=30 time=0.01630434375
EXTRACT: control_change channel=8 control=1 value=30 time=0
EXTRACT: control_change channel=7 control=1 value=23 time=0.01630434375
EXTRACT: control_change channel=8 control=1 value=23 time=0
EXTRACT: control_change channel=7 control=1 value=9 time=0.01630434375
EXTRACT: control_change channel=8 control=1 value=9 time=0
EXTRACT: control_change channel=7 control=1 value=0 time=0.015217387499999999
EXTRACT: control_change channel=8 control=1 value=0 time=0
EXTRACT: note_on channel=15 note=62 velocity=0 time=0.046739118749999996
EXTRACT: note_on channel=15 note=69 velocity=0 time=0
EXTRACT: note_on channel=15 note=65 velocity=0 time=0
EXTRACT: note_on channel=1 note=31 velocity=116 time=0
EXTRACT: note_on channel=3 note=65 velocity=105 time=0
EXTRACT: note_on channel=4 note=55 velocity=98 time=0
EXTRACT: note_on channel=5 note=55 velocity=105 time=0
EXTRACT: note_on channel=5 note=43 velocity=116 time=0
EXTRACT: note_on channel=9 note=35 velocity=119 time=0
EXTRACT: note_on channel=9 note=42 velocity=116 time=0
EXTRACT: note_on channel=13 note=31 velocity=116 time=0
EXTRACT: note_on channel=15 note=62 velocity=1 time=0
EXTRACT: note_on channel=15 note=59 velocity=1 time=0
EXTRACT: note_on channel=15 note=55 velocity=1 time=0
EXTRACT: note_on channel=2 note=55 velocity=89 time=0.004347825
EXTRACT: note_on channel=9 note=42 velocity=0 time=0.03369564375
EXTRACT: note_on channel=9 note=35 velocity=0 time=0.019565212499999998
EXTRACT: note_on channel=3 note=65 velocity=0 time=0.00108695625
EXTRACT: note_on channel=3 note=65 velocity=101 time=0.0717391125
EXTRACT: note_on channel=3 note=65 velocity=0 time=0.07826084999999999
EXTRACT: note_on channel=9 note=42 velocity=48 time=0.052173899999999995
EXTRACT: note_on channel=5 note=43 velocity=0 time=0.045652162499999996
EXTRACT: note_on channel=9 note=42 velocity=0 time=0.006521737499999999
EXTRACT: note_on channel=13 note=31 velocity=0 time=0.06413041875
EXTRACT: note_on channel=1 note=31 velocity=0 time=0
EXTRACT: note_on channel=4 note=55 velocity=0 time=0.006521737499999999
EXTRACT: note_on channel=1 note=29 velocity=114 time=0.007608693749999999
EXTRACT: note_on channel=3 note=65 velocity=109 time=0
EXTRACT: note_on channel=4 note=53 velocity=105 time=0
EXTRACT: note_on channel=5 note=53 velocity=114 time=0
EXTRACT: note_on channel=5 note=41 velocity=105 time=0
EXTRACT: note_on channel=13 note=29 velocity=114 time=0
EXTRACT: note_on channel=5 note=55 velocity=0 time=0.0021739125
EXTRACT: note_on channel=2 note=53 velocity=103 time=0
EXTRACT: note_on channel=2 note=55 velocity=0 time=0.01630434375
EXTRACT: note_on channel=3 note=65 velocity=0 time=0.0695652
EXTRACT: note_on channel=5 note=53 velocity=0 time=0.0054347812499999995
EXTRACT: note_on channel=4 note=53 velocity=0 time=0.0347826
EXTRACT: note_on channel=9 note=39 velocity=127 time=0.0021739125
EXTRACT: note_on channel=9 note=40 velocity=127 time=0
EXTRACT: note_on channel=9 note=35 velocity=119 time=0
EXTRACT: note_on channel=9 note=42 velocity=116 time=0
EXTRACT: note_on channel=2 note=53 velocity=0 time=0.023913037499999998
EXTRACT: note_on channel=13 note=29 velocity=0 time=0.010869562499999999
EXTRACT: note_on channel=1 note=29 velocity=0 time=0
EXTRACT: note_on channel=9 note=42 velocity=0 time=0.0054347812499999995
EXTRACT: note_on channel=5 note=41 velocity=0 time=0.00108695625
EXTRACT: note_on channel=9 note=35 velocity=0 time=0.01630434375
EXTRACT: note_on channel=9 note=39 velocity=0 time=0.0054347812499999995
EXTRACT: note_on channel=9 note=40 velocity=0 time=0.007608693749999999
EXTRACT: note_on channel=3 note=65 velocity=103 time=0.059782593749999995
EXTRACT: note_on channel=3 note=65 velocity=0 time=0.057608681249999995
EXTRACT: note_on channel=1 note=26 velocity=122 time=0.07282606875
EXTRACT: note_on channel=3 note=65 velocity=114 time=0
EXTRACT: note_on channel=4 note=50 velocity=76 time=0
EXTRACT: note_on channel=5 note=50 velocity=103 time=0
EXTRACT: note_on channel=5 note=38 velocity=114 time=0
EXTRACT: note_on channel=9 note=42 velocity=55 time=0
EXTRACT: note_on channel=13 note=26 velocity=122 time=0
EXTRACT: note_on channel=2 note=50 velocity=81 time=0.00108695625
EXTRACT: note_on channel=9 note=42 velocity=0 time=0.042391293749999996
EXTRACT: note_on channel=4 note=50 velocity=0 time=0.021739124999999998
EXTRACT: note_on channel=3 note=65 velocity=0 time=0.006521737499999999
EXTRACT: note_on channel=5 note=50 velocity=0 time=0.03152173125
EXTRACT: note_on channel=2 note=50 velocity=0 time=0.019565212499999998
EXTRACT: note_on channel=5 note=38 velocity=0 time=0.009782606249999999
EXTRACT: note_on channel=13 note=26 velocity=0 time=0.00108695625
EXTRACT: note_on channel=1 note=26 velocity=0 time=0
EXTRACT: note_on channel=1 note=31 velocity=116 time=0.12717388124999998
EXTRACT: note_on channel=3 note=65 velocity=109 time=0
EXTRACT: note_on channel=4 note=55 velocity=89 time=0
EXTRACT: note_on channel=5 note=55 velocity=112 time=0
EXTRACT: note_on channel=5 note=43 velocity=119 time=0
EXTRACT: note_on channel=9 note=35 velocity=122 time=0
EXTRACT: note_on channel=9 note=42 velocity=107 time=0
EXTRACT: note_on channel=13 note=31 velocity=116 time=0
EXTRACT: note_on channel=2 note=55 velocity=89 time=0.00108695625
EXTRACT: note_on channel=9 note=42 velocity=0 time=0.024999993749999998
EXTRACT: note_on channel=9 note=35 velocity=0 time=0.027173906249999998
EXTRACT: note_on channel=3 note=65 velocity=0 time=0.014130431249999999
EXTRACT: note_on channel=3 note=65 velocity=105 time=0.0630434625
EXTRACT: note_on channel=3 note=65 velocity=0 time=0.08043476249999999
EXTRACT: note_on channel=9 note=42 velocity=55 time=0.049999987499999995
EXTRACT: note_on channel=9 note=42 velocity=0 time=0.0369565125
EXTRACT: note_on channel=5 note=43 velocity=0 time=0.0717391125
EXTRACT: note_on channel=1 note=29 velocity=112 time=0.021739124999999998
EXTRACT: note_on channel=3 note=65 velocity=116 time=0
EXTRACT: note_on channel=4 note=53 velocity=105 time=0
EXTRACT: note_on channel=5 note=53 velocity=109 time=0
EXTRACT: note_on channel=5 note=41 velocity=112 time=0
EXTRACT: note_on channel=13 note=29 velocity=112 time=0
EXTRACT: note_on channel=2 note=53 velocity=98 time=0.004347825
EXTRACT: note_on channel=5 note=55 velocity=0 time=0.0032608687499999997
EXTRACT: note_on channel=1 note=31 velocity=0 time=0.004347825
EXTRACT: note_on channel=13 note=31 velocity=0 time=0
EXTRACT: note_on channel=4 note=55 velocity=0 time=0.006521737499999999
EXTRACT: note_on channel=2 note=55 velocity=0 time=0.007608693749999999
EXTRACT: note_on channel=3 note=65 velocity=0 time=0.0695652
EXTRACT: note_on channel=9 note=39 velocity=127 time=0.0347826
EXTRACT: note_on channel=9 note=40 velocity=127 time=0
EXTRACT: note_on channel=9 note=35 velocity=127 time=0
EXTRACT: note_on channel=9 note=42 velocity=116 time=0
EXTRACT: note_on channel=5 note=53 velocity=0 time=0.006521737499999999
EXTRACT: note_on channel=5 note=41 velocity=0 time=0.0032608687499999997
EXTRACT: note_on channel=9 note=42 velocity=0 time=0.023913037499999998
EXTRACT: note_on channel=4 note=53 velocity=0 time=0.020652168749999998
EXTRACT: note_on channel=13 note=29 velocity=0 time=0.0054347812499999995
EXTRACT: note_on channel=1 note=29 velocity=0 time=0
EXTRACT: note_on channel=9 note=39 velocity=0 time=0
EXTRACT: note_on channel=2 note=53 velocity=0 time=0
EXTRACT: note_on channel=9 note=35 velocity=0 time=0.0032608687499999997
EXTRACT: note_on channel=9 note=40 velocity=0 time=0.013043474999999999
EXTRACT: note_on channel=3 note=65 velocity=105 time=0.054347812499999995
EXTRACT: note_on channel=3 note=65 velocity=0 time=0.048913031249999996
EXTRACT: note_on channel=2 note=48 velocity=112 time=0.08043476249999999
EXTRACT: note_on channel=1 note=24 velocity=119 time=0.00108695625
EXTRACT: note_on channel=3 note=65 velocity=103 time=0
EXTRACT: note_on channel=4 note=48 velocity=109 time=0
EXTRACT: note_on channel=5 note=48 velocity=119 time=0
EXTRACT: note_on channel=5 note=36 velocity=116 time=0
EXTRACT: note_on channel=9 note=46 velocity=81 time=0
EXTRACT: note_on channel=13 note=24 velocity=119 time=0
EXTRACT: note_on channel=9 note=46 velocity=0 time=0.042391293749999996
EXTRACT: note_on channel=3 note=65 velocity=0 time=0.030434774999999997
EXTRACT: note_on channel=2 note=48 velocity=0 time=0.0347826
EXTRACT: note_on channel=4 note=48 velocity=0 time=0.0032608687499999997
EXTRACT: note_on channel=5 note=48 velocity=0 time=0.00869565
EXTRACT: note_on channel=5 note=36 velocity=0 time=0.026086949999999998
EXTRACT: note_on channel=13 note=24 velocity=0 time=0.0032608687499999997
EXTRACT: note_on channel=1 note=24 velocity=0 time=0
EXTRACT: note_on channel=2 note=50 velocity=96 time=0.10760866875
EXTRACT: note_on channel=15 note=62 velocity=0 time=0.004347825
EXTRACT: note_on channel=15 note=59 velocity=0 time=0
EXTRACT: note_on channel=15 note=55 velocity=0 time=0
EXTRACT: note_on channel=1 note=26 velocity=122 time=0
EXTRACT: note_on channel=3 note=65 velocity=116 time=0
EXTRACT: note_on channel=4 note=50 velocity=96 time=0
EXTRACT: note_on channel=5 note=50 velocity=124 time=0
EXTRACT: note_on channel=5 note=38 velocity=127 time=0
EXTRACT: note_on channel=9 note=35 velocity=119 time=0
EXTRACT: note_on channel=9 note=42 velocity=116 time=0
EXTRACT: note_on channel=13 note=26 velocity=122 time=0
EXTRACT: note_on channel=15 note=65 velocity=1 time=0
EXTRACT: note_on channel=15 note=69 velocity=1 time=0
EXTRACT: note_on channel=15 note=62 velocity=1 time=0
EXTRACT: note_on channel=9 note=42 velocity=0 time=0.03804346875
EXTRACT: note_on channel=9 note=35 velocity=0 time=0.019565212499999998
EXTRACT: note_on channel=2 note=50 velocity=0 time=0.08152171875
EXTRACT: note_on channel=5 note=38 velocity=0 time=0.049999987499999995
EXTRACT: note_on channel=5 note=50 velocity=0 time=0.010869562499999999
EXTRACT: note_on channel=9 note=42 velocity=50 time=0.060869549999999994
EXTRACT: note_on channel=2 note=48 velocity=114 time=0.0032608687499999997
EXTRACT: note_on channel=4 note=50 velocity=0 time=0.019565212499999998
EXTRACT: note_on channel=9 note=42 velocity=0 time=0.029347818749999997
EXTRACT: note_on channel=3 note=65 velocity=0 time=0.014130431249999999
EXTRACT: pitchwheel channel=1 pitch=-690 time=0.0054347812499999995
EXTRACT: pitchwheel channel=13 pitch=-690 time=0
EXTRACT: note_on channel=2 note=48 velocity=0 time=0.010869562499999999
EXTRACT: pitchwheel channel=1 pitch=-1725 time=0.0054347812499999995
EXTRACT: pitchwheel channel=13 pitch=-1725 time=0
EXTRACT: note_on channel=1 note=26 velocity=0 time=0.011956518749999999
EXTRACT: note_on channel=13 note=26 velocity=0 time=0
EXTRACT: pitchwheel channel=1 pitch=-3278 time=0.0032608687499999997
EXTRACT: pitchwheel channel=13 pitch=-3278 time=0
EXTRACT: pitchwheel channel=1 pitch=-5003 time=0.01630434375
EXTRACT: pitchwheel channel=13 pitch=-5003 time=0
EXTRACT: pitchwheel channel=1 pitch=-6383 time=0.01630434375
EXTRACT: pitchwheel channel=13 pitch=-6383 time=0
EXTRACT: pitchwheel channel=1 pitch=-7073 time=0.01630434375
EXTRACT: pitchwheel channel=13 pitch=-7073 time=0
EXTRACT: pitchwheel channel=1 pitch=-6469 time=0.015217387499999999
EXTRACT: pitchwheel channel=13 pitch=-6469 time=0
EXTRACT: pitchwheel channel=1 pitch=-2415 time=0.013043474999999999
EXTRACT: pitchwheel channel=13 pitch=-2415 time=0
EXTRACT: pitchwheel channel=1 pitch=517 time=0.01630434375
EXTRACT: pitchwheel channel=13 pitch=517 time=0
EXTRACT: pitchwheel channel=1 pitch=0 time=0.015217387499999999
EXTRACT: pitchwheel channel=13 pitch=0 time=0
EXTRACT: note_on channel=9 note=39 velocity=127 time=0.048913031249999996
EXTRACT: note_on channel=9 note=40 velocity=127 time=0
EXTRACT: note_on channel=9 note=35 velocity=119 time=0
EXTRACT: note_on channel=9 note=42 velocity=116 time=0
EXTRACT: note_on channel=2 note=48 velocity=112 time=0.00108695625
EXTRACT: note_on channel=9 note=42 velocity=0 time=0.039130424999999996
EXTRACT: note_on channel=9 note=35 velocity=0 time=0.0173913
EXTRACT: note_on channel=9 note=39 velocity=0 time=0.0021739125
EXTRACT: note_on channel=2 note=48 velocity=0 time=0.010869562499999999
EXTRACT: note_on channel=9 note=40 velocity=0 time=0
EXTRACT: note_on channel=2 note=48 velocity=107 time=0.18804343124999998
EXTRACT: note_on channel=3 note=62 velocity=116 time=0.0021739125
EXTRACT: note_on channel=4 note=62 velocity=119 time=0
EXTRACT: note_on channel=4 note=57 velocity=107 time=0
EXTRACT: note_on channel=9 note=42 velocity=58 time=0
EXTRACT: note_on channel=9 note=42 velocity=0 time=0.043478249999999996
EXTRACT: note_on channel=3 note=62 velocity=0 time=0.020652168749999998
EXTRACT: note_on channel=2 note=48 velocity=0 time=0.004347825
EXTRACT: note_on channel=4 note=57 velocity=0 time=0.0032608687499999997
EXTRACT: note_on channel=4 note=62 velocity=0 time=0.0054347812499999995
EXTRACT: note_on channel=3 note=60 velocity=122 time=0.18369560624999998
EXTRACT: note_on channel=4 note=60 velocity=127 time=0
EXTRACT: note_on channel=4 note=57 velocity=114 time=0
EXTRACT: note_on channel=9 note=35 velocity=122 time=0
EXTRACT: note_on channel=9 note=42 velocity=107 time=0
EXTRACT: note_on channel=9 note=52 velocity=122 time=0
EXTRACT: note_on channel=2 note=48 velocity=103 time=0.004347825
EXTRACT: note_on channel=9 note=42 velocity=0 time=0.021739124999999998
EXTRACT: note_on channel=9 note=52 velocity=0 time=0.022826081249999998
EXTRACT: note_on channel=9 note=35 velocity=0 time=0.004347825
EXTRACT: note_on channel=3 note=60 velocity=0 time=0.0173913
EXTRACT: note_on channel=4 note=57 velocity=0 time=0.007608693749999999
EXTRACT: note_on channel=2 note=48 velocity=0 time=0.00108695625
EXTRACT: note_on channel=4 note=60 velocity=0 time=0.0032608687499999997
EXTRACT: note_on channel=9 note=42 velocity=57 time=0.17826082499999998
EXTRACT: note_on channel=2 note=48 velocity=114 time=0.004347825
EXTRACT: note_on channel=9 note=42 velocity=0 time=0.0326086875
EXTRACT: note_on channel=2 note=48 velocity=0 time=0.049999987499999995
EXTRACT: pitchwheel channel=2 pitch=-518 time=0.041304337499999996
EXTRACT: pitchwheel channel=2 pitch=-1380 time=0.004347825
EXTRACT: pitchwheel channel=2 pitch=-2674 time=0.01847825625
EXTRACT: pitchwheel channel=2 pitch=-3882 time=0.015217387499999999
EXTRACT: pitchwheel channel=2 pitch=-4917 time=0.019565212499999998
EXTRACT: pitchwheel channel=2 pitch=-5520 time=0.0173913
EXTRACT: pitchwheel channel=7 pitch=-87 time=0
EXTRACT: pitchwheel channel=8 pitch=-87 time=0
EXTRACT: pitchwheel channel=2 pitch=-5779 time=0.01630434375
EXTRACT: pitchwheel channel=7 pitch=-2157 time=0
EXTRACT: pitchwheel channel=8 pitch=-2157 time=0
EXTRACT: pitchwheel channel=2 pitch=-5865 time=0.00869565
EXTRACT: pitchwheel channel=7 pitch=-4140 time=0.007608693749999999
EXTRACT: pitchwheel channel=8 pitch=-4140 time=0
EXTRACT: pitchwheel channel=7 pitch=-5607 time=0.015217387499999999
EXTRACT: pitchwheel channel=8 pitch=-5607 time=0
EXTRACT: note_on channel=2 note=50 velocity=121 time=0.009782606249999999
EXTRACT: note_on channel=7 note=86 velocity=96 time=0
EXTRACT: note_on channel=7 note=74 velocity=96 time=0
EXTRACT: note_on channel=7 note=89 velocity=98 time=0
EXTRACT: note_on channel=7 note=81 velocity=99 time=0
EXTRACT: note_on channel=8 note=86 velocity=96 time=0
EXTRACT: note_on channel=8 note=74 velocity=96 time=0
EXTRACT: note_on channel=8 note=89 velocity=98 time=0
EXTRACT: note_on channel=8 note=81 velocity=99 time=0
EXTRACT: note_on channel=9 note=39 velocity=127 time=0
EXTRACT: note_on channel=9 note=40 velocity=127 time=0
EXTRACT: note_on channel=9 note=35 velocity=127 time=0
EXTRACT: note_on channel=9 note=42 velocity=116 time=0
EXTRACT: pitchwheel channel=2 pitch=-5693 time=0.004347825
EXTRACT: pitchwheel channel=7 pitch=-6728 time=0.0021739125
EXTRACT: pitchwheel channel=8 pitch=-6728 time=0
EXTRACT: pitchwheel channel=2 pitch=-5175 time=0.009782606249999999
EXTRACT: pitchwheel channel=7 pitch=-7245 time=0.006521737499999999
EXTRACT: pitchwheel channel=8 pitch=-7245 time=0
EXTRACT: note_on channel=9 note=42 velocity=0 time=0.010869562499999999
EXTRACT: pitchwheel channel=2 pitch=-4140 time=0.00108695625
EXTRACT: pitchwheel channel=7 pitch=-6987 time=0.0032608687499999997
EXTRACT: pitchwheel channel=8 pitch=-6987 time=0
EXTRACT: pitchwheel channel=2 pitch=-3105 time=0.00869565
EXTRACT: pitchwheel channel=7 pitch=-5348 time=0.007608693749999999
EXTRACT: pitchwheel channel=8 pitch=-5348 time=0
EXTRACT: note_on channel=9 note=39 velocity=0 time=0.007608693749999999
EXTRACT: note_on channel=9 note=35 velocity=0 time=0.00108695625
EXTRACT: pitchwheel channel=2 pitch=-2674 time=0
EXTRACT: pitchwheel channel=7 pitch=-3709 time=0.007608693749999999
EXTRACT: pitchwheel channel=8 pitch=-3709 time=0
EXTRACT: control_change channel=7 control=1 value=3 time=0.0032608687499999997
EXTRACT: control_change channel=8 control=1 value=3 time=0
EXTRACT: note_on channel=9 note=40 velocity=0 time=0.0021739125
EXTRACT: pitchwheel channel=2 pitch=-2329 time=0.0054347812499999995
EXTRACT: pitchwheel channel=7 pitch=-1294 time=0.0054347812499999995
EXTRACT: pitchwheel channel=8 pitch=-1294 time=0
EXTRACT: control_change channel=7 control=1 value=7 time=0.0032608687499999997
EXTRACT: control_change channel=8 control=1 value=7 time=0
EXTRACT: pitchwheel channel=2 pitch=-1984 time=0.011956518749999999
EXTRACT: pitchwheel channel=7 pitch=0 time=0
EXTRACT: pitchwheel channel=8 pitch=0 time=0
EXTRACT: control_change channel=7 control=1 value=10 time=0.004347825
EXTRACT: control_change channel=8 control=1 value=10 time=0
EXTRACT: pitchwheel channel=2 pitch=-1467 time=0.013043474999999999
EXTRACT: control_change channel=7 control=1 value=13 time=0.0021739125
EXTRACT: control_change channel=8 control=1 value=13 time=0
EXTRACT: pitchwheel channel=2 pitch=-949 time=0.010869562499999999
EXTRACT: control_change channel=7 control=1 value=14 time=0.0054347812499999995
EXTRACT: control_change channel=8 control=1 value=14 time=0
EXTRACT: pitchwheel channel=2 pitch=-173 time=0.00869565
EXTRACT: control_change channel=7 control=1 value=10 time=0.007608693749999999
EXTRACT: control_change channel=8 control=1 value=10 time=0
EXTRACT: pitchwheel channel=2 pitch=0 time=0.011956518749999999
EXTRACT: control_change channel=7 control=1 value=11 time=0.004347825
EXTRACT: control_change channel=8 control=1 value=11 time=0
EXTRACT: control_change channel=7 control=1 value=16 time=0.01630434375
EXTRACT: control_change channel=8 control=1 value=16 time=0
EXTRACT: control_change channel=7 control=1 value=21 time=0.01630434375
EXTRACT: control_change channel=8 control=1 value=21 time=0
EXTRACT: control_change channel=7 control=1 value=24 time=0.015217387499999999
EXTRACT: control_change channel=8 control=1 value=24 time=0
EXTRACT: control_change channel=7 control=1 value=26 time=0.01630434375
EXTRACT: control_change channel=8 control=1 value=26 time=0
EXTRACT: control_change channel=7 control=1 value=28 time=0.01630434375
EXTRACT: control_change channel=8 control=1 value=28 time=0
EXTRACT: note_on channel=2 note=50 velocity=0 time=0.009782606249999999
EXTRACT: note_on channel=1 note=26 velocity=116 time=0
EXTRACT: note_on channel=2 note=48 velocity=109 time=0
EXTRACT: note_on channel=3 note=60 velocity=114 time=0
EXTRACT: note_on channel=4 note=50 velocity=93 time=0
EXTRACT: note_on channel=5 note=50 velocity=116 time=0
EXTRACT: note_on channel=5 note=38 velocity=119 time=0
EXTRACT: note_on channel=9 note=42 velocity=55 time=0
EXTRACT: note_on channel=13 note=26 velocity=116 time=0
EXTRACT: control_change channel=7 control=1 value=29 time=0.0054347812499999995
EXTRACT: control_change channel=8 control=1 value=29 time=0
EXTRACT: control_change channel=7 control=1 value=30 time=0.015217387499999999
EXTRACT: control_change channel=8 control=1 value=30 time=0
EXTRACT: note_on channel=3 note=60 velocity=0 time=0.01630434375
EXTRACT: note_on channel=2 note=48 velocity=0 time=0.004347825
EXTRACT: note_on channel=9 note=42 velocity=0 time=0.00108695625
EXTRACT: control_change channel=7 control=1 value=31 time=0.026086949999999998
EXTRACT: control_change channel=8 control=1 value=31 time=0
EXTRACT: note_on channel=4 note=50 velocity=0 time=0.004347825
EXTRACT: control_change channel=7 control=1 value=32 time=0.029347818749999997
EXTRACT: control_change channel=8 control=1 value=32 time=0
EXTRACT: note_on channel=5 note=50 velocity=0 time=0.009782606249999999
EXTRACT: control_change channel=7 control=1 value=33 time=0.0054347812499999995
EXTRACT: control_change channel=8 control=1 value=33 time=0
EXTRACT: note_on channel=13 note=26 velocity=0 time=0.0032608687499999997
EXTRACT: note_on channel=1 note=26 velocity=0 time=0
EXTRACT: note_on channel=7 note=81 velocity=0 time=0.0032608687499999997
EXTRACT: note_on channel=8 note=81 velocity=0 time=0
EXTRACT: note_on channel=7 note=74 velocity=0 time=0.00108695625
EXTRACT: note_on channel=8 note=74 velocity=0 time=0
EXTRACT: note_on channel=3 note=60 velocity=103 time=0.0054347812499999995
EXTRACT: control_change channel=7 control=1 value=32 time=0.0032608687499999997
EXTRACT: control_change channel=8 control=1 value=32 time=0
EXTRACT: note_on channel=8 note=89 velocity=0 time=0.00869565
EXTRACT: note_on channel=7 note=89 velocity=0 time=0
EXTRACT: note_on channel=5 note=38 velocity=0 time=0.00108695625
EXTRACT: note_on channel=7 note=86 velocity=0 time=0.0021739125
EXTRACT: note_on channel=8 note=86 velocity=0 time=0
EXTRACT: control_change channel=7 control=1 value=31 time=0.004347825
EXTRACT: control_change channel=8 control=1 value=31 time=0
EXTRACT: control_change channel=7 control=1 value=30 time=0.01630434375
EXTRACT: control_change channel=8 control=1 value=30 time=0
EXTRACT: note_on channel=3 note=60 velocity=0 time=0.009782606249999999
EXTRACT: control_change channel=7 control=1 value=23 time=0.006521737499999999
EXTRACT: control_change channel=8 control=1 value=23 time=0
EXTRACT: control_change channel=7 control=1 value=9 time=0.01630434375
EXTRACT: control_change channel=8 control=1 value=9 time=0
EXTRACT: control_change channel=7 control=1 value=0 time=0.015217387499999999
EXTRACT: control_change channel=8 control=1 value=0 time=0
EXTRACT: note_on channel=2 note=55 velocity=79 time=0.044565206249999996
EXTRACT: note_on channel=15 note=65 velocity=0 time=0.0021739125
EXTRACT: note_on channel=15 note=69 velocity=0 time=0
EXTRACT: note_on channel=15 note=62 velocity=0 time=0
EXTRACT: note_on channel=1 note=31 velocity=116 time=0
EXTRACT: note_on channel=3 note=62 velocity=114 time=0
EXTRACT: note_on channel=4 note=55 velocity=98 time=0
EXTRACT: note_on channel=5 note=55 velocity=114 time=0
EXTRACT: note_on channel=5 note=43 velocity=119 time=0
EXTRACT: note_on channel=9 note=35 velocity=119 time=0
EXTRACT: note_on channel=9 note=42 velocity=116 time=0
EXTRACT: note_on channel=13 note=31 velocity=116 time=0
EXTRACT: note_on channel=15 note=62 velocity=1 time=0
EXTRACT: note_on channel=15 note=59 velocity=1 time=0
EXTRACT: note_on channel=15 note=55 velocity=1 time=0
EXTRACT: note_on channel=9 note=42 velocity=0 time=0.03804346875
EXTRACT: note_on channel=9 note=35 velocity=0 time=0.019565212499999998
EXTRACT: note_on channel=3 note=62 velocity=0 time=0.0695652
EXTRACT: note_on channel=9 note=42 velocity=48 time=0.13369561875
EXTRACT: note_on channel=9 note=42 velocity=0 time=0.052173899999999995
EXTRACT: note_on channel=5 note=43 velocity=0 time=0.052173899999999995
EXTRACT: note_on channel=5 note=55 velocity=0 time=0.010869562499999999
EXTRACT: note_on channel=13 note=31 velocity=0 time=0.00108695625
EXTRACT: note_on channel=1 note=31 velocity=0 time=0
EXTRACT: note_on channel=4 note=55 velocity=0 time=0.006521737499999999
EXTRACT: note_on channel=1 note=29 velocity=114 time=0.007608693749999999
EXTRACT: note_on channel=3 note=62 velocity=124 time=0
EXTRACT: note_on channel=4 note=53 velocity=105 time=0
EXTRACT: note_on channel=5 note=53 velocity=122 time=0
EXTRACT: note_on channel=5 note=41 velocity=114 time=0
EXTRACT: note_on channel=13 note=29 velocity=114 time=0
EXTRACT: note_on channel=2 note=53 velocity=103 time=0.00108695625
EXTRACT: note_on channel=2 note=55 velocity=0 time=0.041304337499999996
EXTRACT: note_on channel=3 note=62 velocity=0 time=0.039130424999999996
EXTRACT: note_on channel=5 note=53 velocity=0 time=0.030434774999999997
EXTRACT: note_on channel=4 note=53 velocity=0 time=0.01630434375
EXTRACT: note_on channel=9 note=39 velocity=127 time=0.0021739125
EXTRACT: note_on channel=9 note=40 velocity=127 time=0
EXTRACT: note_on channel=9 note=35 velocity=119 time=0
EXTRACT: note_on channel=9 note=42 velocity=116 time=0
EXTRACT: note_on channel=2 note=53 velocity=0 time=0.026086949999999998
EXTRACT: note_on channel=1 note=29 velocity=0 time=0.00869565
EXTRACT: note_on channel=13 note=29 velocity=0 time=0
EXTRACT: note_on channel=9 note=42 velocity=0 time=0.0054347812499999995
EXTRACT: note_on channel=5 note=41 velocity=0 time=0.009782606249999999
EXTRACT: note_on channel=9 note=35 velocity=0 time=0.007608693749999999
EXTRACT: note_on channel=9 note=39 velocity=0 time=0.0054347812499999995
EXTRACT: note_on channel=9 note=40 velocity=0 time=0.007608693749999999
EXTRACT: note_on channel=1 note=26 velocity=122 time=0.19021734375
EXTRACT: note_on channel=3 note=62 velocity=114 time=0
EXTRACT: note_on channel=4 note=50 velocity=76 time=0
EXTRACT: note_on channel=5 note=50 velocity=105 time=0
EXTRACT: note_on channel=5 note=38 velocity=116 time=0
EXTRACT: note_on channel=9 note=42 velocity=55 time=0
EXTRACT: note_on channel=13 note=26 velocity=122 time=0
EXTRACT: note_on channel=2 note=50 velocity=87 time=0.00108695625
EXTRACT: note_on channel=9 note=42 velocity=0 time=0.042391293749999996
EXTRACT: note_on channel=4 note=50 velocity=0 time=0.021739124999999998
EXTRACT: note_on channel=3 note=62 velocity=0 time=0.0173913
EXTRACT: note_on channel=5 note=50 velocity=0 time=0.0173913
EXTRACT: note_on channel=2 note=50 velocity=0 time=0.006521737499999999
EXTRACT: note_on channel=1 note=26 velocity=0 time=0.027173906249999998
EXTRACT: note_on channel=13 note=26 velocity=0 time=0
EXTRACT: note_on channel=5 note=38 velocity=0 time=0.0054347812499999995
EXTRACT: note_on channel=1 note=31 velocity=116 time=0.12173909999999999
EXTRACT: note_on channel=3 note=60 velocity=116 time=0
EXTRACT: note_on channel=4 note=48 velocity=124 time=0
EXTRACT: note_on channel=5 note=48 velocity=119 time=0
EXTRACT: note_on channel=5 note=36 velocity=103 time=0
EXTRACT: note_on channel=9 note=35 velocity=122 time=0
EXTRACT: note_on channel=9 note=42 velocity=107 time=0
EXTRACT: note_on channel=13 note=31 velocity=116 time=0
EXTRACT: note_on channel=2 note=55 velocity=93 time=0.004347825
EXTRACT: note_on channel=9 note=42 velocity=0 time=0.021739124999999998
EXTRACT: note_on channel=9 note=35 velocity=0 time=0.027173906249999998
EXTRACT: note_on channel=3 note=60 velocity=0 time=0.013043474999999999
EXTRACT: note_on channel=3 note=60 velocity=112 time=0.06413041875
EXTRACT: note_on channel=3 note=60 velocity=0 time=0.051086943749999995
EXTRACT: note_on channel=4 note=48 velocity=0 time=0.065217375
EXTRACT: note_on channel=3 note=60 velocity=112 time=0.014130431249999999
EXTRACT: note_on channel=9 note=42 velocity=55 time=0
EXTRACT: note_on channel=9 note=42 velocity=0 time=0.0369565125
EXTRACT: note_on channel=5 note=48 velocity=0 time=0.004347825
EXTRACT: note_on channel=3 note=60 velocity=0 time=0.009782606249999999
EXTRACT: note_on channel=5 note=36 velocity=0 time=0.00869565
EXTRACT: note_on channel=3 note=60 velocity=109 time=0.07065215624999999
EXTRACT: note_on channel=1 note=31 velocity=0 time=0.011956518749999999
EXTRACT: note_on channel=13 note=31 velocity=0 time=0
EXTRACT: note_on channel=2 note=55 velocity=0 time=0.015217387499999999
EXTRACT: note_on channel=3 note=60 velocity=0 time=0.021739124999999998
EXTRACT: note_on channel=1 note=29 velocity=112 time=0.08152171875
EXTRACT: note_on channel=2 note=53 velocity=107 time=0
EXTRACT: note_on channel=3 note=60 velocity=122 time=0
EXTRACT: note_on channel=4 note=48 velocity=122 time=0
EXTRACT: note_on channel=5 note=36 velocity=105 time=0
EXTRACT: note_on channel=5 note=48 velocity=122 time=0
EXTRACT: note_on channel=9 note=39 velocity=127 time=0
EXTRACT: note_on channel=9 note=40 velocity=127 time=0
EXTRACT: note_on channel=9 note=35 velocity=127 time=0
EXTRACT: note_on channel=9 note=42 velocity=116 time=0
EXTRACT: note_on channel=13 note=29 velocity=112 time=0
EXTRACT: note_on channel=9 note=42 velocity=0 time=0.03369564375
EXTRACT: note_on channel=9 note=39 velocity=0 time=0.026086949999999998
EXTRACT: note_on channel=3 note=60 velocity=0 time=0.0021739125
EXTRACT: note_on channel=9 note=35 velocity=0 time=0.00108695625
EXTRACT: note_on channel=9 note=40 velocity=0 time=0.013043474999999999
EXTRACT: note_on channel=4 note=48 velocity=0 time=0.17608691249999997
EXTRACT: note_on channel=9 note=46 velocity=81 time=0.00869565
EXTRACT: note_on channel=9 note=46 velocity=0 time=0.042391293749999996
EXTRACT: note_on channel=5 note=36 velocity=0 time=0.041304337499999996
EXTRACT: note_on channel=1 note=29 velocity=0 time=0.00108695625
EXTRACT: note_on channel=13 note=29 velocity=0 time=0
EXTRACT: note_on channel=5 note=48 velocity=0 time=0.00108695625
EXTRACT: note_on channel=2 note=53 velocity=0 time=0.044565206249999996
EXTRACT: note_on channel=15 note=59 velocity=0 time=0.13043475
EXTRACT: note_on channel=15 note=62 velocity=0 time=0
EXTRACT: note_on channel=15 note=55 velocity=0 time=0
EXTRACT: note_on channel=1 note=26 velocity=124 time=0
EXTRACT: note_on channel=3 note=60 velocity=107 time=0
EXTRACT: note_on channel=4 note=50 velocity=119 time=0
EXTRACT: note_on channel=5 note=50 velocity=116 time=0
EXTRACT: note_on channel=5 note=38 velocity=116 time=0
EXTRACT: note_on channel=9 note=42 velocity=116 time=0
EXTRACT: note_on channel=9 note=35 velocity=127 time=0
EXTRACT: note_on channel=13 note=26 velocity=124 time=0
EXTRACT: note_on channel=15 note=65 velocity=1 time=0
EXTRACT: note_on channel=15 note=69 velocity=1 time=0
EXTRACT: note_on channel=15 note=62 velocity=1 time=0
EXTRACT: note_on channel=9 note=42 velocity=0 time=0.041304337499999996
EXTRACT: note_on channel=3 note=60 velocity=0 time=0.0173913
EXTRACT: note_on channel=9 note=35 velocity=0 time=0.00108695625
EXTRACT: note_on channel=4 note=50 velocity=0 time=0.12065214375
EXTRACT: pitchwheel channel=1 pitch=-432 time=0.060869549999999994
EXTRACT: pitchwheel channel=13 pitch=-432 time=0
EXTRACT: pitchwheel channel=1 pitch=-1294 time=0.01630434375
EXTRACT: pitchwheel channel=13 pitch=-1294 time=0
EXTRACT: pitchwheel channel=1 pitch=-2157 time=0.01630434375
EXTRACT: pitchwheel channel=13 pitch=-2157 time=0
EXTRACT: pitchwheel channel=1 pitch=-3019 time=0.015217387499999999
EXTRACT: pitchwheel channel=13 pitch=-3019 time=0
EXTRACT: pitchwheel channel=1 pitch=-4313 time=0.01630434375
EXTRACT: pitchwheel channel=13 pitch=-4313 time=0
EXTRACT: note_on channel=5 note=50 velocity=0 time=0.01630434375
EXTRACT: pitchwheel channel=1 pitch=-5693 time=0
EXTRACT: pitchwheel channel=13 pitch=-5693 time=0
EXTRACT: note_on channel=5 note=38 velocity=0 time=0.0032608687499999997
EXTRACT: pitchwheel channel=1 pitch=-7159 time=0.011956518749999999
EXTRACT: pitchwheel channel=13 pitch=-7159 time=0
EXTRACT: pitchwheel channel=1 pitch=-8022 time=0.01630434375
EXTRACT: pitchwheel channel=13 pitch=-8022 time=0
EXTRACT: pitchwheel channel=1 pitch=-7935 time=0.01630434375
EXTRACT: pitchwheel channel=13 pitch=-7935 time=0
EXTRACT: note_on channel=13 note=26 velocity=0 time=0.013043474999999999
EXTRACT: note_on channel=1 note=26 velocity=0 time=0
EXTRACT: pitchwheel channel=1 pitch=-6555 time=0.0032608687499999997
EXTRACT: pitchwheel channel=13 pitch=-6555 time=0
EXTRACT: note_on channel=3 note=60 velocity=109 time=0.0054347812499999995
EXTRACT: pitchwheel channel=1 pitch=0 time=0.009782606249999999
EXTRACT: pitchwheel channel=13 pitch=0 time=0
EXTRACT: note_on channel=3 note=60 velocity=0 time=0.056521724999999995
EXTRACT: note_on channel=9 note=35 velocity=127 time=0.06413041875
EXTRACT: note_on channel=9 note=35 velocity=0 time=0.061956506249999994
EXTRACT: note_on channel=3 note=60 velocity=103 time=0.06847824375
EXTRACT: note_on channel=3 note=60 velocity=0 time=0.043478249999999996
EXTRACT: note_on channel=3 note=60 velocity=98 time=0.08695649999999999
EXTRACT: note_on channel=3 note=60 velocity=0 time=0.0347826
EXTRACT: note_on channel=3 note=60 velocity=109 time=0.09565214999999999
EXTRACT: note_on channel=3 note=60 velocity=0 time=0.061956506249999994
EXTRACT: note_on channel=3 note=62 velocity=109 time=0.06847824375
EXTRACT: note_on channel=9 note=35 velocity=127 time=0
EXTRACT: note_on channel=9 note=35 velocity=0 time=0.059782593749999995
EXTRACT: note_on channel=3 note=62 velocity=0 time=0.054347812499999995
EXTRACT: note_on channel=3 note=62 velocity=112 time=0.14673909375
EXTRACT: control_change channel=5 control=1 value=2 time=0.09673910624999998
EXTRACT: note_on channel=3 note=62 velocity=0 time=0.00869565
EXTRACT: control_change channel=5 control=1 value=13 time=0.007608693749999999
EXTRACT: control_change channel=5 control=1 value=22 time=0.015217387499999999
EXTRACT: control_change channel=5 control=1 value=29 time=0.01630434375
EXTRACT: control_change channel=5 control=1 value=35 time=0.01630434375
EXTRACT: control_change channel=5 control=1 value=41 time=0.01630434375
EXTRACT: control_change channel=5 control=1 value=45 time=0.015217387499999999
EXTRACT: control_change channel=5 control=1 value=49 time=0.01630434375
EXTRACT: control_change channel=5 control=1 value=53 time=0.014130431249999999
EXTRACT: control_change channel=5 control=1 value=55 time=0.01630434375
EXTRACT: control_change channel=5 control=1 value=58 time=0.015217387499999999
EXTRACT: note_on channel=3 note=74 velocity=56 time=0.006521737499999999
EXTRACT: note_on channel=4 note=74 velocity=116 time=0
EXTRACT: note_on channel=5 note=74 velocity=109 time=0
EXTRACT: note_on channel=9 note=35 velocity=127 time=0
EXTRACT: control_change channel=5 control=1 value=61 time=0.009782606249999999
EXTRACT: control_change channel=5 control=1 value=63 time=0.01630434375
EXTRACT: control_change channel=5 control=1 value=65 time=0.015217387499999999
EXTRACT: control_change channel=5 control=1 value=67 time=0.01630434375
EXTRACT: note_on channel=9 note=35 velocity=0 time=0.00108695625
EXTRACT: control_change channel=5 control=1 value=68 time=0.015217387499999999
EXTRACT: control_change channel=5 control=1 value=70 time=0.01630434375
EXTRACT: control_change channel=5 control=1 value=71 time=0.01630434375
EXTRACT: control_change channel=5 control=1 value=72 time=0.01630434375
EXTRACT: control_change channel=5 control=1 value=73 time=0.015217387499999999
EXTRACT: control_change channel=5 control=1 value=74 time=0.01630434375
EXTRACT: control_change channel=5 control=1 value=75 time=0.01630434375
EXTRACT: control_change channel=5 control=1 value=76 time=0.03152173125
EXTRACT: note_on channel=3 note=74 velocity=0 time=0.08043476249999999
EXTRACT: note_on channel=4 note=74 velocity=0 time=0.08043476249999999
EXTRACT: control_change channel=5 control=1 value=74 time=0
EXTRACT: control_change channel=5 control=1 value=69 time=0.01630434375
EXTRACT: control_change channel=5 control=1 value=62 time=0.015217387499999999
EXTRACT: control_change channel=5 control=1 value=47 time=0.01630434375
EXTRACT: control_change channel=5 control=1 value=21 time=0.01630434375
EXTRACT: control_change channel=5 control=1 value=14 time=0.015217387499999999
EXTRACT: note_on channel=5 note=74 velocity=0 time=0.015217387499999999
EXTRACT: control_change channel=5 control=1 value=0 time=0.00108695625
EXTRACT: note_on channel=15 note=62 velocity=0 time=0.0630434625
EXTRACT: note_on channel=15 note=69 velocity=0 time=0
EXTRACT: note_on channel=15 note=65 velocity=0 time=0
EXTRACT: note_on channel=3 note=60 velocity=107 time=0
EXTRACT: note_on channel=9 note=35 velocity=127 time=0
EXTRACT: note_on channel=15 note=62 velocity=1 time=0
EXTRACT: note_on channel=15 note=59 velocity=1 time=0
EXTRACT: note_on channel=15 note=55 velocity=1 time=0
EXTRACT: note_on channel=3 note=60 velocity=0 time=0.058695637499999995
EXTRACT: note_on channel=9 note=35 velocity=0 time=0.0054347812499999995
EXTRACT: note_on channel=3 note=60 velocity=109 time=0.32717383125
EXTRACT: note_on channel=3 note=60 velocity=0 time=0.06630433124999999
EXTRACT: note_on channel=9 note=35 velocity=127 time=0.06413041875
EXTRACT: note_on channel=9 note=35 velocity=0 time=0.0630434625
EXTRACT: note_on channel=3 note=60 velocity=103 time=0.0673912875
EXTRACT: note_on channel=3 note=60 velocity=0 time=0.043478249999999996
EXTRACT: note_on channel=3 note=60 velocity=98 time=0.08695649999999999
EXTRACT: note_on channel=3 note=60 velocity=0 time=0.0347826
EXTRACT: note_on channel=3 note=60 velocity=109 time=0.09565214999999999
EXTRACT: note_on channel=3 note=60 velocity=0 time=0.061956506249999994
EXTRACT: note_on channel=3 note=62 velocity=109 time=0.06847824375
EXTRACT: note_on channel=9 note=35 velocity=127 time=0
EXTRACT: note_on channel=9 note=35 velocity=0 time=0.0630434625
EXTRACT: note_on channel=3 note=62 velocity=0 time=0.051086943749999995
EXTRACT: note_on channel=3 note=62 velocity=112 time=0.14673909375
EXTRACT: note_on channel=3 note=62 velocity=0 time=0.10543475624999998
EXTRACT: control_change channel=5 control=1 value=5 time=0.060869549999999994
EXTRACT: control_change channel=5 control=1 value=18 time=0.01630434375
EXTRACT: control_change channel=5 control=1 value=29 time=0.01630434375
EXTRACT: control_change channel=5 control=1 value=39 time=0.01630434375
EXTRACT: control_change channel=5 control=1 value=47 time=0.014130431249999999
EXTRACT: control_change channel=5 control=1 value=54 time=0.015217387499999999
EXTRACT: note_on channel=3 note=74 velocity=56 time=0.01630434375
EXTRACT: note_on channel=4 note=74 velocity=116 time=0
EXTRACT: control_change channel=5 control=1 value=59 time=0
EXTRACT: note_on channel=5 note=74 velocity=112 time=0
EXTRACT: note_on channel=9 note=35 velocity=127 time=0
EXTRACT: control_change channel=5 control=1 value=63 time=0.01630434375
EXTRACT: control_change channel=5 control=1 value=65 time=0.01630434375
EXTRACT: control_change channel=5 control=1 value=67 time=0.01630434375
EXTRACT: note_on channel=9 note=35 velocity=0 time=0.01847825625
EXTRACT: control_change channel=5 control=1 value=68 time=0.013043474999999999
EXTRACT: control_change channel=5 control=1 value=69 time=0.03152173125
EXTRACT: control_change channel=5 control=1 value=70 time=0.0326086875
EXTRACT: control_change channel=5 control=1 value=71 time=0.06413041875
EXTRACT: control_change channel=5 control=1 value=72 time=0.06413041875
EXTRACT: note_on channel=3 note=74 velocity=0 time=0.009782606249999999
EXTRACT: control_change channel=5 control=1 value=71 time=0.03804346875
EXTRACT: control_change channel=5 control=1 value=69 time=0.0326086875
EXTRACT: control_change channel=5 control=1 value=66 time=0.015217387499999999
EXTRACT: control_change channel=5 control=1 value=59 time=0.01630434375
EXTRACT: note_on channel=4 note=74 velocity=0 time=0.004347825
EXTRACT: control_change channel=5 control=1 value=49 time=0.011956518749999999
EXTRACT: control_change channel=5 control=1 value=23 time=0.01630434375
EXTRACT: control_change channel=5 control=1 value=18 time=0.015217387499999999
EXTRACT: control_change channel=5 control=1 value=0 time=0.01630434375
EXTRACT: note_on channel=5 note=74 velocity=0 time=0.00869565
EXTRACT: note_on channel=15 note=59 velocity=0 time=0.06413041875
EXTRACT: note_on channel=15 note=55 velocity=0 time=0
EXTRACT: note_on channel=15 note=62 velocity=0 time=0
EXTRACT: note_on channel=3 note=65 velocity=103 time=0
EXTRACT: note_on channel=9 note=35 velocity=127 time=0
EXTRACT: note_on channel=15 note=65 velocity=1 time=0
EXTRACT: note_on channel=15 note=69 velocity=1 time=0
EXTRACT: note_on channel=15 note=62 velocity=1 time=0
EXTRACT: note_on channel=9 note=35 velocity=0 time=0.06630433124999999
EXTRACT: note_on channel=3 note=65 velocity=0 time=0.126086925
EXTRACT: note_on channel=3 note=65 velocity=98 time=0.19891299375
EXTRACT: note_on channel=3 note=65 velocity=0 time=0.09782606249999999
EXTRACT: note_on channel=9 note=35 velocity=127 time=0.0326086875
EXTRACT: note_on channel=9 note=35 velocity=0 time=0.07065215624999999
EXTRACT: note_on channel=3 note=65 velocity=94 time=0.059782593749999995
EXTRACT: note_on channel=3 note=65 velocity=0 time=0.039130424999999996
EXTRACT: note_on channel=3 note=65 velocity=103 time=0.09130432499999999
EXTRACT: note_on channel=3 note=65 velocity=0 time=0.052173899999999995
EXTRACT: note_on channel=3 note=65 velocity=107 time=0.07826084999999999
EXTRACT: note_on channel=3 note=65 velocity=0 time=0.061956506249999994
EXTRACT: note_on channel=3 note=65 velocity=96 time=0.06847824375
EXTRACT: note_on channel=9 note=35 velocity=127 time=0
EXTRACT: note_on channel=3 note=65 velocity=0 time=0.055434768749999995
EXTRACT: note_on channel=9 note=35 velocity=0 time=0.01630434375
EXTRACT: note_on channel=3 note=65 velocity=122 time=0.1891303875
EXTRACT: control_change channel=5 control=1 value=1 time=0.061956506249999994
EXTRACT: control_change channel=5 control=1 value=10 time=0.015217387499999999
EXTRACT: control_change channel=5 control=1 value=18 time=0.01630434375
EXTRACT: control_change channel=5 control=1 value=23 time=0.01630434375
EXTRACT: note_on channel=3 note=65 velocity=0 time=0.007608693749999999
EXTRACT: control_change channel=5 control=1 value=29 time=0.007608693749999999
EXTRACT: control_change channel=5 control=1 value=34 time=0.01630434375
EXTRACT: control_change channel=5 control=1 value=38 time=0.01630434375
EXTRACT: control_change channel=5 control=1 value=43 time=0.01630434375
EXTRACT: control_change channel=5 control=1 value=48 time=0.015217387499999999
EXTRACT: control_change channel=5 control=1 value=52 time=0.0173913
EXTRACT: control_change channel=5 control=1 value=55 time=0.01630434375
EXTRACT: control_change channel=5 control=1 value=57 time=0.014130431249999999
EXTRACT: note_on channel=3 note=74 velocity=76 time=0.023913037499999998
EXTRACT: note_on channel=4 note=74 velocity=119 time=0
EXTRACT: note_on channel=5 note=74 velocity=112 time=0
EXTRACT: note_on channel=9 note=35 velocity=127 time=0
EXTRACT: control_change channel=5 control=1 value=58 time=0.00869565
EXTRACT: note_on channel=9 note=35 velocity=0 time=0.059782593749999995
EXTRACT: control_change channel=5 control=1 value=57 time=0.004347825
EXTRACT: control_change channel=5 control=1 value=56 time=0.01630434375
EXTRACT: control_change channel=5 control=1 value=53 time=0.015217387499999999
EXTRACT: control_change channel=5 control=1 value=54 time=0.0173913
EXTRACT: control_change channel=5 control=1 value=53 time=0.126086925
EXTRACT: control_change channel=5 control=1 value=50 time=0.01630434375
EXTRACT: control_change channel=5 control=1 value=49 time=0.01630434375
EXTRACT: control_change channel=5 control=1 value=47 time=0.01630434375
EXTRACT: note_on channel=3 note=74 velocity=0 time=0.0032608687499999997
EXTRACT: control_change channel=5 control=1 value=44 time=0.013043474999999999
EXTRACT: control_change channel=5 control=1 value=39 time=0.0173913
EXTRACT: control_change channel=5 control=1 value=36 time=0.015217387499999999
EXTRACT: control_change channel=5 control=1 value=33 time=0.015217387499999999
EXTRACT: control_change channel=5 control=1 value=27 time=0.01630434375
EXTRACT: note_on channel=4 note=74 velocity=0 time=0.013043474999999999
EXTRACT: note_on channel=3 note=65 velocity=107 time=0.00108695625
EXTRACT: control_change channel=5 control=1 value=20 time=0.00108695625
EXTRACT: control_change channel=5 control=1 value=16 time=0.01630434375
EXTRACT: control_change channel=5 control=1 value=0 time=0.01630434375
EXTRACT: note_on channel=3 note=65 velocity=0 time=0.020652168749999998
EXTRACT: note_on channel=5 note=74 velocity=0 time=0.03804346875
EXTRACT: note_on channel=15 note=69 velocity=0 time=0.03804346875
EXTRACT: note_on channel=15 note=62 velocity=0 time=0
EXTRACT: note_on channel=15 note=65 velocity=0 time=0
EXTRACT: note_on channel=3 note=65 velocity=114 time=0
EXTRACT: note_on channel=9 note=35 velocity=127 time=0
EXTRACT: note_on channel=15 note=62 velocity=1 time=0
EXTRACT: note_on channel=15 note=59 velocity=1 time=0
EXTRACT: note_on channel=15 note=55 velocity=1 time=0
EXTRACT: note_on channel=9 note=35 velocity=0 time=0.0695652
EXTRACT: note_on channel=3 note=65 velocity=0 time=0.00108695625
EXTRACT: note_on channel=3 note=65 velocity=114 time=0.19021734375
EXTRACT: note_on channel=3 note=65 velocity=0 time=0.08586954375
EXTRACT: note_on channel=3 note=65 velocity=114 time=0.17499995624999998
EXTRACT: note_on channel=9 note=35 velocity=127 time=0
EXTRACT: note_on channel=9 note=35 velocity=0 time=0.0673912875
EXTRACT: note_on channel=3 note=65 velocity=0 time=0.03586955625
EXTRACT: note_on channel=3 note=65 velocity=109 time=0.15760865624999998
EXTRACT: note_on channel=3 note=65 velocity=0 time=0.07282606875
EXTRACT: note_on channel=3 note=65 velocity=103 time=0.18804343124999998
EXTRACT: note_on channel=9 note=35 velocity=127 time=0
EXTRACT: note_on channel=3 note=65 velocity=0 time=0.047826074999999996
EXTRACT: note_on channel=9 note=35 velocity=0 time=0.026086949999999998
EXTRACT: note_on channel=3 note=65 velocity=96 time=0.056521724999999995
EXTRACT: note_on channel=3 note=65 velocity=0 time=0.03152173125
EXTRACT: note_on channel=3 note=65 velocity=119 time=0.09891301875
EXTRACT: note_on channel=3 note=65 velocity=0 time=0.06630433124999999
EXTRACT: note_on channel=3 note=65 velocity=107 time=0.06413041875
EXTRACT: control_change channel=5 control=1 value=5 time=0.03586955625
EXTRACT: control_change channel=5 control=1 value=18 time=0.01630434375
EXTRACT: control_change channel=5 control=1 value=29 time=0.01630434375
EXTRACT: control_change channel=5 control=1 value=39 time=0.01630434375
EXTRACT: control_change channel=5 control=1 value=47 time=0.014130431249999999
EXTRACT: control_change channel=5 control=1 value=54 time=0.015217387499999999
EXTRACT: note_on channel=4 note=74 velocity=105 time=0.01630434375
EXTRACT: control_change channel=5 control=1 value=59 time=0
EXTRACT: note_on channel=5 note=74 velocity=112 time=0
EXTRACT: note_on channel=9 note=35 velocity=127 time=0
EXTRACT: control_change channel=5 control=1 value=63 time=0.01630434375
EXTRACT: control_change channel=5 control=1 value=65 time=0.01630434375
EXTRACT: control_change channel=5 control=1 value=67 time=0.01630434375
EXTRACT: note_on channel=9 note=35 velocity=0 time=0.01847825625
EXTRACT: control_change channel=5 control=1 value=68 time=0.013043474999999999
EXTRACT: note_on channel=3 note=65 velocity=0 time=0.011956518749999999
EXTRACT: control_change channel=5 control=1 value=69 time=0.019565212499999998
EXTRACT: control_change channel=5 control=1 value=70 time=0.0326086875
EXTRACT: control_change channel=10 control=65 value=127 time=0.043478249999999996
EXTRACT: control_change channel=11 control=65 value=127 time=0
EXTRACT: control_change channel=5 control=1 value=71 time=0.020652168749999998
EXTRACT: control_change channel=5 control=1 value=72 time=0.06413041875
EXTRACT: control_change channel=5 control=1 value=71 time=0.047826074999999996
EXTRACT: note_on channel=4 note=74 velocity=0 time=0.01847825625
EXTRACT: control_change channel=5 control=1 value=69 time=0.014130431249999999
EXTRACT: control_change channel=10 control=5 value=92 time=0.0021739125
EXTRACT: control_change channel=5 control=1 value=66 time=0.013043474999999999
EXTRACT: control_change channel=5 control=1 value=59 time=0.01630434375
EXTRACT: note_on channel=3 note=65 velocity=119 time=0.006521737499999999
EXTRACT: control_change channel=5 control=1 value=49 time=0.009782606249999999
EXTRACT: control_change channel=5 control=1 value=23 time=0.01630434375
EXTRACT: control_change channel=11 control=5 value=114 time=0.014130431249999999
EXTRACT: control_change channel=5 control=1 value=18 time=0.00108695625
EXTRACT: note_on channel=3 note=65 velocity=0 time=0.01630434375
EXTRACT: control_change channel=5 control=1 value=0 time=0
EXTRACT: note_on channel=5 note=74 velocity=0 time=0.00869565
EXTRACT: note_on channel=15 note=55 velocity=0 time=0.06413041875
EXTRACT: note_on channel=15 note=59 velocity=0 time=0
EXTRACT: note_on channel=15 note=62 velocity=0 time=0
EXTRACT: note_on channel=3 note=65 velocity=116 time=0
EXTRACT: note_on channel=9 note=40 velocity=114 time=0
EXTRACT: note_on channel=9 note=35 velocity=127 time=0
EXTRACT: note_on channel=10 note=50 velocity=96 time=0
EXTRACT: note_on channel=11 note=50 velocity=96 time=0
EXTRACT: note_on channel=15 note=65 velocity=1 time=0
EXTRACT: note_on channel=15 note=69 velocity=1 time=0
EXTRACT: note_on channel=15 note=62 velocity=1 time=0
EXTRACT: note_on channel=10 note=86 velocity=96 time=0.028260862499999997
EXTRACT: note_on channel=11 note=86 velocity=96 time=0
EXTRACT: note_on channel=11 note=50 velocity=0 time=0.022826081249999998
EXTRACT: note_on channel=10 note=50 velocity=0 time=0
EXTRACT: note_on channel=9 note=40 velocity=0 time=0.009782606249999999
EXTRACT: note_on channel=9 note=35 velocity=0 time=0.0021739125
EXTRACT: note_on channel=3 note=65 velocity=0 time=0.010869562499999999
EXTRACT: note_on channel=1 note=26 velocity=112 time=0.18695647499999998
EXTRACT: note_on channel=1 note=38 velocity=112 time=0
EXTRACT: note_on channel=3 note=65 velocity=122 time=0
EXTRACT: note_on channel=9 note=40 velocity=96 time=0
EXTRACT: note_on channel=13 note=26 velocity=112 time=0
EXTRACT: note_on channel=13 note=38 velocity=112 time=0
EXTRACT: note_on channel=9 note=40 velocity=0 time=0.049999987499999995
EXTRACT: note_on channel=3 note=65 velocity=0 time=0.023913037499999998
EXTRACT: note_on channel=3 note=65 velocity=122 time=0.18695647499999998
EXTRACT: note_on channel=9 note=40 velocity=94 time=0
EXTRACT: note_on channel=9 note=35 velocity=127 time=0
EXTRACT: note_on channel=9 note=40 velocity=0 time=0.056521724999999995
EXTRACT: note_on channel=9 note=35 velocity=0 time=0.0054347812499999995
EXTRACT: note_on channel=3 note=65 velocity=0 time=0.01847825625
EXTRACT: note_on channel=13 note=38 velocity=0 time=0.023913037499999998
EXTRACT: note_on channel=1 note=38 velocity=0 time=0
EXTRACT: note_on channel=13 note=26 velocity=0 time=0
EXTRACT: note_on channel=1 note=26 velocity=0 time=0
EXTRACT: note_on channel=1 note=27 velocity=122 time=0.15652169999999999
EXTRACT: note_on channel=1 note=39 velocity=122 time=0
EXTRACT: note_on channel=3 note=65 velocity=122 time=0
EXTRACT: note_on channel=9 note=40 velocity=101 time=0
EXTRACT: note_on channel=13 note=27 velocity=122 time=0
EXTRACT: note_on channel=13 note=39 velocity=122 time=0
EXTRACT: note_on channel=9 note=40 velocity=0 time=0.054347812499999995
EXTRACT: note_on channel=3 note=65 velocity=0 time=0.01847825625
EXTRACT: note_on channel=3 note=65 velocity=124 time=0.18804343124999998
EXTRACT: note_on channel=9 note=40 velocity=103 time=0
EXTRACT: note_on channel=9 note=35 velocity=124 time=0
EXTRACT: note_on channel=3 note=65 velocity=0 time=0.052173899999999995
EXTRACT: note_on channel=9 note=35 velocity=0 time=0.004347825
EXTRACT: note_on channel=9 note=40 velocity=0 time=0.0032608687499999997
EXTRACT: note_on channel=13 note=39 velocity=0 time=0.0032608687499999997
EXTRACT: note_on channel=1 note=39 velocity=0 time=0
EXTRACT: note_on channel=13 note=27 velocity=0 time=0
EXTRACT: note_on channel=1 note=27 velocity=0 time=0
EXTRACT: note_on channel=3 note=65 velocity=114 time=0.0673912875
EXTRACT: note_on channel=3 note=65 velocity=0 time=0.044565206249999996
EXTRACT: note_on channel=1 note=28 velocity=122 time=0.08586954375
EXTRACT: note_on channel=1 note=40 velocity=122 time=0
EXTRACT: note_on channel=3 note=65 velocity=114 time=0
EXTRACT: note_on channel=9 note=40 velocity=105 time=0
EXTRACT: note_on channel=13 note=28 velocity=122 time=0
EXTRACT: note_on channel=13 note=40 velocity=122 time=0
EXTRACT: note_on channel=3 note=65 velocity=0 time=0.058695637499999995
EXTRACT: note_on channel=9 note=40 velocity=0 time=0.0032608687499999997
EXTRACT: note_on channel=3 note=65 velocity=122 time=0.06847824375
EXTRACT: note_on channel=9 note=40 velocity=107 time=0.13043475
EXTRACT: note_on channel=9 note=35 velocity=127 time=0
EXTRACT: note_on channel=13 note=28 velocity=0 time=0.049999987499999995
EXTRACT: note_on channel=1 note=40 velocity=0 time=0
EXTRACT: note_on channel=13 note=40 velocity=0 time=0
EXTRACT: note_on channel=1 note=28 velocity=0 time=0
EXTRACT: note_on channel=9 note=35 velocity=0 time=0.007608693749999999
EXTRACT: note_on channel=9 note=40 velocity=0 time=0.007608693749999999
EXTRACT: note_on channel=3 note=65 velocity=0 time=0.056521724999999995
EXTRACT: note_on channel=1 note=29 velocity=127 time=0.1391304
EXTRACT: note_on channel=1 note=41 velocity=127 time=0
EXTRACT: note_on channel=9 note=40 velocity=103 time=0
EXTRACT: note_on channel=13 note=29 velocity=127 time=0
EXTRACT: note_on channel=13 note=41 velocity=127 time=0
EXTRACT: note_on channel=9 note=40 velocity=0 time=0.0673912875
EXTRACT: note_on channel=3 note=65 velocity=116 time=0.0630434625
EXTRACT: note_on channel=3 note=65 velocity=0 time=0.049999987499999995
EXTRACT: note_on channel=15 note=65 velocity=0 time=0.08043476249999999
EXTRACT: note_on channel=15 note=62 velocity=0 time=0
EXTRACT: note_on channel=15 note=69 velocity=0 time=0
EXTRACT: note_on channel=3 note=65 velocity=112 time=0
EXTRACT: note_on channel=9 note=40 velocity=105 time=0
EXTRACT: note_on channel=9 note=35 velocity=127 time=0
EXTRACT: note_on channel=15 note=62 velocity=1 time=0
EXTRACT: note_on channel=15 note=59 velocity=1 time=0
EXTRACT: note_on channel=15 note=55 velocity=1 time=0
EXTRACT: note_on channel=1 note=41 velocity=0 time=0.054347812499999995
EXTRACT: note_on channel=13 note=29 velocity=0 time=0
EXTRACT: note_on channel=13 note=41 velocity=0 time=0
EXTRACT: note_on channel=1 note=29 velocity=0 time=0
EXTRACT: note_on channel=9 note=35 velocity=0 time=0.004347825
EXTRACT: note_on channel=9 note=40 velocity=0 time=0.0054347812499999995
EXTRACT: note_on channel=3 note=65 velocity=0 time=0.0021739125
EXTRACT: note_on channel=1 note=30 velocity=127 time=0.19456516875
EXTRACT: note_on channel=1 note=42 velocity=127 time=0
EXTRACT: note_on channel=3 note=65 velocity=122 time=0
EXTRACT: note_on channel=9 note=40 velocity=103 time=0
EXTRACT: note_on channel=13 note=30 velocity=127 time=0
EXTRACT: note_on channel=13 note=42 velocity=127 time=0
EXTRACT: note_on channel=9 note=40 velocity=0 time=0.057608681249999995
EXTRACT: note_on channel=3 note=65 velocity=0 time=0.015217387499999999
EXTRACT: note_on channel=3 note=65 velocity=122 time=0.18804343124999998
EXTRACT: note_on channel=9 note=40 velocity=103 time=0
EXTRACT: note_on channel=9 note=35 velocity=127 time=0
EXTRACT: note_on channel=9 note=35 velocity=0 time=0.0630434625
EXTRACT: note_on channel=9 note=40 velocity=0 time=0.007608693749999999
EXTRACT: note_on channel=13 note=42 velocity=0 time=0.0054347812499999995
EXTRACT: note_on channel=13 note=30 velocity=0 time=0
EXTRACT: note_on channel=1 note=42 velocity=0 time=0
EXTRACT: note_on channel=1 note=30 velocity=0 time=0
EXTRACT: note_on channel=3 note=65 velocity=0 time=0.0021739125
EXTRACT: note_on channel=1 note=31 velocity=119 time=0.18260864999999998
EXTRACT: note_on channel=1 note=43 velocity=119 time=0
EXTRACT: note_on channel=3 note=65 velocity=119 time=0
EXTRACT: note_on channel=9 note=40 velocity=101 time=0
EXTRACT: note_on channel=13 note=31 velocity=119 time=0
EXTRACT: note_on channel=13 note=43 velocity=119 time=0
EXTRACT: note_on channel=9 note=40 velocity=0 time=0.065217375
EXTRACT: note_on channel=3 note=65 velocity=0 time=0.010869562499999999
EXTRACT: note_on channel=3 note=65 velocity=119 time=0.18478256249999997
EXTRACT: note_on channel=9 note=40 velocity=103 time=0
EXTRACT: note_on channel=9 note=35 velocity=127 time=0
EXTRACT: note_on channel=3 note=65 velocity=0 time=0.054347812499999995
EXTRACT: note_on channel=13 note=31 velocity=0 time=0.00108695625
EXTRACT: note_on channel=1 note=43 velocity=0 time=0
EXTRACT: note_on channel=13 note=43 velocity=0 time=0
EXTRACT: note_on channel=1 note=31 velocity=0 time=0
EXTRACT: note_on channel=9 note=35 velocity=0 time=0.006521737499999999
EXTRACT: note_on channel=9 note=40 velocity=0 time=0.004347825
EXTRACT: note_on channel=3 note=65 velocity=114 time=0.06413041875
EXTRACT: note_on channel=3 note=65 velocity=0 time=0.051086943749999995
EXTRACT: note_on channel=1 note=32 velocity=124 time=0.07934780624999999
EXTRACT: note_on channel=1 note=44 velocity=124 time=0
EXTRACT: note_on channel=3 note=65 velocity=114 time=0
EXTRACT: note_on channel=9 note=40 velocity=103 time=0
EXTRACT: note_on channel=13 note=32 velocity=124 time=0
EXTRACT: note_on channel=13 note=44 velocity=124 time=0
EXTRACT: note_on channel=3 note=65 velocity=0 time=0.052173899999999995
EXTRACT: note_on channel=9 note=40 velocity=0 time=0.014130431249999999
EXTRACT: note_on channel=3 note=65 velocity=127 time=0.06413041875
EXTRACT: note_on channel=9 note=40 velocity=103 time=0.13043475
EXTRACT: note_on channel=9 note=35 velocity=127 time=0
EXTRACT: note_on channel=13 note=32 velocity=0 time=0.058695637499999995
EXTRACT: note_on channel=1 note=44 velocity=0 time=0
EXTRACT: note_on channel=13 note=44 velocity=0 time=0
EXTRACT: note_on channel=1 note=32 velocity=0 time=0
EXTRACT: note_on channel=9 note=35 velocity=0 time=0.0032608687499999997
EXTRACT: note_on channel=9 note=40 velocity=0 time=0.013043474999999999
EXTRACT: note_on channel=3 note=65 velocity=0 time=0.03369564375
EXTRACT: note_on channel=1 note=33 velocity=127 time=0.152173875
EXTRACT: note_on channel=1 note=45 velocity=127 time=0
EXTRACT: note_on channel=9 note=40 velocity=105 time=0
EXTRACT: note_on channel=13 note=33 velocity=127 time=0
EXTRACT: note_on channel=13 note=45 velocity=127 time=0
EXTRACT: note_on channel=9 note=40 velocity=0 time=0.065217375
EXTRACT: note_on channel=15 note=59 velocity=0 time=0.19565212499999998
EXTRACT: note_on channel=15 note=55 velocity=0 time=0
EXTRACT: note_on channel=15 note=62 velocity=0 time=0
EXTRACT: note_on channel=3 note=65 velocity=112 time=0
EXTRACT: note_on channel=9 note=40 velocity=107 time=0
EXTRACT: note_on channel=9 note=35 velocity=127 time=0
EXTRACT: note_on channel=15 note=65 velocity=1 time=0
EXTRACT: note_on channel=15 note=69 velocity=1 time=0
EXTRACT: note_on channel=15 note=62 velocity=1 time=0
EXTRACT: note_on channel=1 note=45 velocity=0 time=0.049999987499999995
EXTRACT: note_on channel=13 note=33 velocity=0 time=0
EXTRACT: note_on channel=13 note=45 velocity=0 time=0
EXTRACT: note_on channel=1 note=33 velocity=0 time=0
EXTRACT: note_on channel=3 note=65 velocity=0 time=0.0054347812499999995
EXTRACT: note_on channel=9 note=35 velocity=0 time=0.00869565
EXTRACT: note_on channel=9 note=40 velocity=0 time=0.009782606249999999
EXTRACT: note_on channel=3 note=65 velocity=112 time=0.056521724999999995
EXTRACT: note_on channel=3 note=65 velocity=0 time=0.07934780624999999
EXTRACT: note_on channel=1 note=46 velocity=124 time=0.051086943749999995
EXTRACT: note_on channel=1 note=34 velocity=124 time=0
EXTRACT: note_on channel=3 note=65 velocity=112 time=0
EXTRACT: note_on channel=9 note=40 velocity=98 time=0
EXTRACT: note_on channel=13 note=46 velocity=124 time=0
EXTRACT: note_on channel=13 note=34 velocity=124 time=0
EXTRACT: note_on channel=9 note=40 velocity=0 time=0.0673912875
EXTRACT: note_on channel=3 note=65 velocity=0 time=0.011956518749999999
EXTRACT: note_on channel=3 note=65 velocity=119 time=0.051086943749999995
EXTRACT: note_on channel=3 note=65 velocity=0 time=0.09130432499999999
EXTRACT: note_on channel=9 note=40 velocity=109 time=0.039130424999999996
EXTRACT: note_on channel=9 note=35 velocity=127 time=0
EXTRACT: note_on channel=13 note=34 velocity=0 time=0.053260856249999995
EXTRACT: note_on channel=13 note=46 velocity=0 time=0
EXTRACT: note_on channel=1 note=34 velocity=0 time=0
EXTRACT: note_on channel=1 note=46 velocity=0 time=0
EXTRACT: note_on channel=9 note=35 velocity=0 time=0.015217387499999999
EXTRACT: note_on channel=9 note=40 velocity=0 time=0.00108695625
EXTRACT: note_on channel=3 note=65 velocity=112 time=0.060869549999999994
EXTRACT: note_on channel=3 note=65 velocity=0 time=0.046739118749999996
EXTRACT: note_on channel=1 note=47 velocity=127 time=0.08369563124999999
EXTRACT: note_on channel=1 note=35 velocity=127 time=0
EXTRACT: note_on channel=3 note=65 velocity=116 time=0
EXTRACT: note_on channel=9 note=40 velocity=107 time=0
EXTRACT: note_on channel=13 note=47 velocity=127 time=0
EXTRACT: note_on channel=13 note=35 velocity=127 time=0
EXTRACT: note_on channel=9 note=40 velocity=0 time=0.0673912875
EXTRACT: note_on channel=3 note=65 velocity=0 time=0.009782606249999999
EXTRACT: note_on channel=3 note=65 velocity=119 time=0.18369560624999998
EXTRACT: note_on channel=9 note=40 velocity=107 time=0
EXTRACT: note_on channel=9 note=35 velocity=127 time=0
EXTRACT: note_on channel=3 note=65 velocity=0 time=0.055434768749999995
EXTRACT: note_on channel=9 note=35 velocity=0 time=0.009782606249999999
EXTRACT: note_on channel=9 note=40 velocity=0 time=0.00108695625
EXTRACT: note_on channel=13 note=35 velocity=0 time=0.027173906249999998
EXTRACT: note_on channel=1 note=35 velocity=0 time=0
EXTRACT: note_on channel=13 note=47 velocity=0 time=0
EXTRACT: note_on channel=1 note=47 velocity=0 time=0
EXTRACT: note_on channel=3 note=65 velocity=116 time=0.0369565125
EXTRACT: note_on channel=3 note=65 velocity=0 time=0.0717391125
EXTRACT: note_on channel=1 note=48 velocity=127 time=0.058695637499999995
EXTRACT: note_on channel=1 note=36 velocity=127 time=0
EXTRACT: note_on channel=9 note=40 velocity=107 time=0
EXTRACT: note_on channel=13 note=48 velocity=127 time=0
EXTRACT: note_on channel=13 note=36 velocity=127 time=0
EXTRACT: note_on channel=9 note=40 velocity=0 time=0.0673912875
EXTRACT: note_on channel=3 note=65 velocity=127 time=0.0630434625
EXTRACT: note_on channel=9 note=40 velocity=122 time=0
EXTRACT: note_on channel=9 note=40 velocity=0 time=0.060869549999999994
EXTRACT: note_on channel=9 note=40 velocity=107 time=0.0695652
EXTRACT: note_on channel=9 note=35 velocity=127 time=0
EXTRACT: note_on channel=9 note=40 velocity=0 time=0.060869549999999994
EXTRACT: note_on channel=9 note=35 velocity=0 time=0.00108695625
EXTRACT: note_on channel=1 note=36 velocity=0 time=0.042391293749999996
EXTRACT: note_on channel=13 note=48 velocity=0 time=0
EXTRACT: note_on channel=13 note=36 velocity=0 time=0
EXTRACT: note_on channel=1 note=48 velocity=0 time=0
EXTRACT: note_on channel=3 note=65 velocity=0 time=0.07499998124999999
EXTRACT: note_on channel=1 note=49 velocity=127 time=0.08152171875
EXTRACT: note_on channel=1 note=37 velocity=127 time=0
EXTRACT: note_on channel=9 note=40 velocity=109 time=0
EXTRACT: note_on channel=13 note=49 velocity=127 time=0
EXTRACT: note_on channel=13 note=37 velocity=127 time=0
EXTRACT: note_on channel=9 note=40 velocity=0 time=0.065217375
EXTRACT: note_on channel=13 note=37 velocity=0 time=0.10326084375
EXTRACT: note_on channel=1 note=37 velocity=0 time=0
EXTRACT: note_on channel=13 note=49 velocity=0 time=0
EXTRACT: note_on channel=1 note=49 velocity=0 time=0
EXTRACT: note_on channel=15 note=69 velocity=0 time=0.09239128124999998
EXTRACT: note_on channel=15 note=65 velocity=0 time=0
EXTRACT: note_on channel=15 note=62 velocity=0 time=0
EXTRACT: note_on channel=1 note=50 velocity=122 time=0
EXTRACT: note_on channel=1 note=38 velocity=122 time=0
EXTRACT: note_on channel=3 note=67 velocity=122 time=0
EXTRACT: note_on channel=9 note=40 velocity=124 time=0
EXTRACT: note_on channel=9 note=35 velocity=127 time=0
EXTRACT: note_on channel=13 note=50 velocity=122 time=0
EXTRACT: note_on channel=13 note=38 velocity=122 time=0
EXTRACT: note_on channel=15 note=62 velocity=1 time=0
EXTRACT: note_on channel=15 note=59 velocity=1 time=0
EXTRACT: note_on channel=15 note=55 velocity=1 time=0
EXTRACT: note_on channel=11 note=86 velocity=0 time=0.007608693749999999
EXTRACT: note_on channel=10 note=86 velocity=0 time=0
EXTRACT: note_on channel=9 note=35 velocity=0 time=0.0630434625
EXTRACT: note_on channel=9 note=40 velocity=0 time=0.00108695625
EXTRACT: note_on channel=3 note=67 velocity=0 time=0.022826081249999998
EXTRACT: note_on channel=1 note=38 velocity=127 time=0.16630430624999998
EXTRACT: note_on channel=1 note=26 velocity=127 time=0
EXTRACT: note_on channel=3 note=65 velocity=107 time=0
EXTRACT: note_on channel=13 note=38 velocity=127 time=0
EXTRACT: note_on channel=13 note=26 velocity=127 time=0
EXTRACT: note_on channel=3 note=65 velocity=0 time=0.051086943749999995
EXTRACT: note_on channel=1 note=38 velocity=0 time=0.030434774999999997
EXTRACT: note_on channel=13 note=38 velocity=0 time=0
EXTRACT: note_on channel=13 note=50 velocity=0 time=0
EXTRACT: note_on channel=1 note=50 velocity=0 time=0
EXTRACT: note_on channel=3 note=67 velocity=116 time=0.048913031249999996
EXTRACT: note_on channel=3 note=67 velocity=0 time=0.12717388124999998
EXTRACT: note_on channel=1 note=38 velocity=0 time=0.054347812499999995
EXTRACT: note_on channel=1 note=26 velocity=0 time=0
EXTRACT: note_on channel=13 note=38 velocity=0 time=0
EXTRACT: note_on channel=13 note=26 velocity=0 time=0
EXTRACT: note_on channel=3 note=65 velocity=109 time=0.07934780624999999
EXTRACT: note_on channel=3 note=65 velocity=0 time=0.065217375
EXTRACT: note_on channel=3 note=67 velocity=119 time=0.065217375
EXTRACT: note_on channel=3 note=67 velocity=0 time=0.09347823749999999
EXTRACT: note_on channel=3 note=65 velocity=119 time=0.16739126249999997
EXTRACT: note_on channel=9 note=52 velocity=124 time=0
EXTRACT: note_on channel=9 note=52 velocity=0 time=0.060869549999999994
EXTRACT: note_on channel=1 note=26 velocity=107 time=0.19999994999999998
EXTRACT: note_on channel=13 note=26 velocity=107 time=0
EXTRACT: note_on channel=3 note=65 velocity=0 time=0.15760865624999998
EXTRACT: note_on channel=1 note=26 velocity=0 time=0.09782606249999999
EXTRACT: note_on channel=13 note=26 velocity=0 time=0
EXTRACT: note_on channel=6 note=62 velocity=119 time=0.0021739125
EXTRACT: note_on channel=6 note=69 velocity=114 time=0.00108695625
EXTRACT: note_on channel=6 note=77 velocity=114 time=0.00108695625
EXTRACT: note_on channel=6 note=74 velocity=124 time=0
EXTRACT: note_on channel=1 note=38 velocity=109 time=0.00108695625
EXTRACT: note_on channel=3 note=67 velocity=116 time=0
EXTRACT: note_on channel=9 note=40 velocity=127 time=0
EXTRACT: note_on channel=9 note=39 velocity=127 time=0
EXTRACT: note_on channel=9 note=28 velocity=127 time=0
EXTRACT: note_on channel=13 note=38 velocity=109 time=0
EXTRACT: note_on channel=3 note=67 velocity=0 time=0.041304337499999996
EXTRACT: note_on channel=9 note=40 velocity=0 time=0.011956518749999999
EXTRACT: note_on channel=6 note=77 velocity=0 time=0.00108695625
EXTRACT: note_on channel=9 note=39 velocity=0 time=0.004347825
EXTRACT: note_on channel=6 note=69 velocity=0 time=0.00108695625
EXTRACT: note_on channel=6 note=74 velocity=0 time=0.00108695625
EXTRACT: note_on channel=9 note=28 velocity=0 time=0.004347825
EXTRACT: note_on channel=6 note=62 velocity=0 time=0.029347818749999997
EXTRACT: note_on channel=6 note=74 velocity=116 time=0.03369564375
EXTRACT: note_on channel=1 note=38 velocity=0 time=0.0021739125
EXTRACT: note_on channel=13 note=38 velocity=0 time=0
EXTRACT: note_on channel=1 note=26 velocity=114 time=0
EXTRACT: note_on channel=3 note=67 velocity=116 time=0
EXTRACT: note_on channel=9 note=35 velocity=127 time=0
EXTRACT: note_on channel=13 note=26 velocity=114 time=0
EXTRACT: note_on channel=6 note=69 velocity=105 time=0.00108695625
EXTRACT: note_on channel=6 note=77 velocity=112 time=0.00108695625
EXTRACT: note_on channel=6 note=62 velocity=116 time=0.00108695625
EXTRACT: note_on channel=9 note=35 velocity=0 time=0.046739118749999996
EXTRACT: note_on channel=3 note=67 velocity=0 time=0.028260862499999997
EXTRACT: note_on channel=6 note=62 velocity=0 time=0.030434774999999997
EXTRACT: note_on channel=6 note=74 velocity=0 time=0.015217387499999999
EXTRACT: note_on channel=6 note=77 velocity=0 time=0.004347825
EXTRACT: note_on channel=6 note=69 velocity=0 time=0.014130431249999999
EXTRACT: pitchwheel channel=1 pitch=-690 time=0.10108693124999998
EXTRACT: pitchwheel channel=13 pitch=-690 time=0
EXTRACT: pitchwheel channel=1 pitch=-1639 time=0.01630434375
EXTRACT: pitchwheel channel=13 pitch=-1639 time=0
EXTRACT: pitchwheel channel=1 pitch=-2933 time=0.01630434375
EXTRACT: pitchwheel channel=13 pitch=-2933 time=0
EXTRACT: pitchwheel channel=1 pitch=-4399 time=0.01630434375
EXTRACT: pitchwheel channel=13 pitch=-4399 time=0
EXTRACT: pitchwheel channel=1 pitch=-6124 time=0.015217387499999999
EXTRACT: pitchwheel channel=13 pitch=-6124 time=0
EXTRACT: pitchwheel channel=1 pitch=-8192 time=0.01630434375
EXTRACT: pitchwheel channel=13 pitch=-8192 time=0
EXTRACT: note_on channel=2 note=69 velocity=65 time=0.0630434625
EXTRACT: note_on channel=6 note=65 velocity=114 time=0
EXTRACT: note_on channel=15 note=62 velocity=0 time=0.004347825
EXTRACT: note_on channel=15 note=59 velocity=0 time=0
EXTRACT: note_on channel=15 note=55 velocity=0 time=0
EXTRACT: note_on channel=1 note=26 velocity=122 time=0
EXTRACT: note_on channel=4 note=50 velocity=96 time=0
EXTRACT: note_on channel=5 note=50 velocity=119 time=0
EXTRACT: note_on channel=5 note=38 velocity=127 time=0
EXTRACT: note_on channel=8 note=74 velocity=119 time=0
EXTRACT: note_on channel=8 note=77 velocity=114 time=0
EXTRACT: note_on channel=8 note=72 velocity=107 time=0
EXTRACT: note_on channel=8 note=69 velocity=112 time=0
EXTRACT: note_on channel=9 note=57 velocity=127 time=0
EXTRACT: note_on channel=9 note=35 velocity=119 time=0
EXTRACT: note_on channel=9 note=42 velocity=116 time=0
EXTRACT: note_on channel=13 note=26 velocity=122 time=0
EXTRACT: note_on channel=15 note=65 velocity=1 time=0
EXTRACT: note_on channel=15 note=69 velocity=1 time=0
EXTRACT: note_on channel=15 note=62 velocity=1 time=0
EXTRACT: note_on channel=6 note=77 velocity=114 time=0.00108695625
EXTRACT: note_on channel=2 note=77 velocity=70 time=0.00108695625
EXTRACT: note_on channel=2 note=62 velocity=89 time=0
EXTRACT: note_on channel=2 note=72 velocity=103 time=0.0021739125
EXTRACT: pitchwheel channel=1 pitch=-5262 time=0.024999993749999998
EXTRACT: pitchwheel channel=13 pitch=-5262 time=0
EXTRACT: note_on channel=12 note=74 velocity=119 time=0.007608693749999999
EXTRACT: note_on channel=12 note=77 velocity=114 time=0
EXTRACT: note_on channel=12 note=72 velocity=107 time=0
EXTRACT: note_on channel=12 note=69 velocity=112 time=0
EXTRACT: note_on channel=9 note=42 velocity=0 time=0.00108695625
EXTRACT: pitchwheel channel=1 pitch=3536 time=0.007608693749999999
EXTRACT: pitchwheel channel=13 pitch=3536 time=0
EXTRACT: note_on channel=2 note=69 velocity=0 time=0.0032608687499999997
EXTRACT: note_on channel=2 note=77 velocity=0 time=0.0054347812499999995
EXTRACT: note_on channel=9 note=35 velocity=0 time=0.0032608687499999997
EXTRACT: pitchwheel channel=1 pitch=-1122 time=0.0032608687499999997
EXTRACT: pitchwheel channel=13 pitch=-1122 time=0
EXTRACT: note_on channel=13 note=26 velocity=0 time=0.0021739125
EXTRACT: note_on channel=1 note=26 velocity=0 time=0
EXTRACT: note_on channel=9 note=57 velocity=0 time=0.0032608687499999997
EXTRACT: note_on channel=2 note=72 velocity=0 time=0.006521737499999999
EXTRACT: note_on channel=2 note=62 velocity=0 time=0.00108695625
EXTRACT: pitchwheel channel=1 pitch=86 time=0.0032608687499999997
EXTRACT: pitchwheel channel=13 pitch=86 time=0
EXTRACT: note_on channel=6 note=65 velocity=0 time=0.007608693749999999
EXTRACT: note_on channel=6 note=77 velocity=0 time=0.0054347812499999995
EXTRACT: pitchwheel channel=1 pitch=0 time=0.0032608687499999997
EXTRACT: pitchwheel channel=13 pitch=0 time=0
EXTRACT: note_on channel=6 note=62 velocity=107 time=0.040217381249999996
EXTRACT: note_on channel=6 note=74 velocity=107 time=0.00108695625
EXTRACT: note_on channel=6 note=62 velocity=0 time=0.08913041249999999
EXTRACT: note_on channel=6 note=74 velocity=0 time=0.00108695625
EXTRACT: note_on channel=5 note=50 velocity=0 time=0.01630434375
EXTRACT: note_on channel=6 note=60 velocity=116 time=0.01847825625
EXTRACT: note_on channel=6 note=72 velocity=116 time=0.00108695625
EXTRACT: note_on channel=9 note=42 velocity=50 time=0
EXTRACT: note_on channel=5 note=38 velocity=0 time=0.0173913
EXTRACT: note_on channel=4 note=50 velocity=0 time=0.0054347812499999995
EXTRACT: note_on channel=9 note=42 velocity=0 time=0.029347818749999997
EXTRACT: pitchwheel channel=1 pitch=-690 time=0.019565212499999998
EXTRACT: pitchwheel channel=13 pitch=-690 time=0
EXTRACT: note_on channel=6 note=60 velocity=0 time=0.011956518749999999
EXTRACT: note_on channel=6 note=72 velocity=0 time=0.00108695625
EXTRACT: pitchwheel channel=1 pitch=-1725 time=0.0032608687499999997
EXTRACT: pitchwheel channel=13 pitch=-1725 time=0
EXTRACT: note_on channel=13 note=26 velocity=0 time=0.011956518749999999
EXTRACT: note_on channel=1 note=26 velocity=0 time=0
EXTRACT: pitchwheel channel=1 pitch=-3278 time=0.0032608687499999997
EXTRACT: pitchwheel channel=13 pitch=-3278 time=0
EXTRACT: pitchwheel channel=1 pitch=-5003 time=0.01630434375
EXTRACT: pitchwheel channel=13 pitch=-5003 time=0
EXTRACT: note_on channel=2 note=69 velocity=81 time=0.00869565
EXTRACT: note_on channel=6 note=62 velocity=124 time=0
EXTRACT: note_on channel=2 note=62 velocity=87 time=0.00108695625
EXTRACT: note_on channel=2 note=77 velocity=87 time=0.0032608687499999997
EXTRACT: note_on channel=6 note=74 velocity=124 time=0
EXTRACT: note_on channel=2 note=72 velocity=98 time=0.0021739125
EXTRACT: pitchwheel channel=1 pitch=-6383 time=0.00108695625
EXTRACT: pitchwheel channel=13 pitch=-6383 time=0
EXTRACT: pitchwheel channel=1 pitch=-7073 time=0.01630434375
EXTRACT: pitchwheel channel=13 pitch=-7073 time=0
EXTRACT: pitchwheel channel=1 pitch=-6469 time=0.015217387499999999
EXTRACT: pitchwheel channel=13 pitch=-6469 time=0
EXTRACT: pitchwheel channel=1 pitch=-2415 time=0.013043474999999999
EXTRACT: pitchwheel channel=13 pitch=-2415 time=0
EXTRACT: note_on channel=2 note=62 velocity=0 time=0.00869565
EXTRACT: note_on channel=6 note=62 velocity=0 time=0.004347825
EXTRACT: pitchwheel channel=1 pitch=517 time=0.0032608687499999997
EXTRACT: pitchwheel channel=13 pitch=517 time=0
EXTRACT: note_on channel=6 note=74 velocity=0 time=0.00108695625
EXTRACT: note_on channel=2 note=72 velocity=0 time=0.009782606249999999
EXTRACT: pitchwheel channel=1 pitch=0 time=0.004347825
EXTRACT: pitchwheel channel=13 pitch=0 time=0
EXTRACT: note_on channel=2 note=69 velocity=0 time=0.00108695625
EXTRACT: note_on channel=2 note=77 velocity=0 time=0.021739124999999998
EXTRACT: note_on channel=2 note=57 velocity=57 time=0.022826081249999998
EXTRACT: note_on channel=2 note=50 velocity=57 time=0.00108695625
EXTRACT: note_on channel=9 note=39 velocity=127 time=0.0021739125
EXTRACT: note_on channel=9 note=40 velocity=127 time=0
EXTRACT: note_on channel=9 note=35 velocity=119 time=0
EXTRACT: note_on channel=9 note=42 velocity=116 time=0
EXTRACT: note_on channel=2 note=57 velocity=0 time=0.0021739125
EXTRACT: note_on channel=2 note=50 velocity=0 time=0.00108695625
EXTRACT: note_on channel=9 note=42 velocity=0 time=0.0369565125
EXTRACT: note_on channel=9 note=35 velocity=0 time=0.0173913
EXTRACT: note_on channel=9 note=39 velocity=0 time=0.0021739125
EXTRACT: note_on channel=9 note=40 velocity=0 time=0.010869562499999999
EXTRACT: note_on channel=6 note=65 velocity=119 time=0.18695647499999998
EXTRACT: note_on channel=9 note=42 velocity=58 time=0.0032608687499999997
EXTRACT: note_on channel=6 note=77 velocity=119 time=0.004347825
EXTRACT: note_on channel=9 note=42 velocity=0 time=0.039130424999999996
EXTRACT: note_on channel=6 note=65 velocity=0 time=0.03152173125
EXTRACT: note_on channel=6 note=77 velocity=0 time=0.007608693749999999
EXTRACT: note_on channel=2 note=50 velocity=57 time=0.044565206249999996
EXTRACT: note_on channel=2 note=57 velocity=57 time=0.00108695625
EXTRACT: note_on channel=2 note=50 velocity=0 time=0.004347825
EXTRACT: note_on channel=2 note=57 velocity=0 time=0.00108695625
EXTRACT: note_on channel=6 note=62 velocity=119 time=0
EXTRACT: note_on channel=6 note=74 velocity=119 time=0
EXTRACT: note_on channel=6 note=74 velocity=0 time=0.08043476249999999
EXTRACT: note_on channel=6 note=62 velocity=0 time=0
EXTRACT: note_on channel=6 note=72 velocity=103 time=0.044565206249999996
EXTRACT: note_on channel=2 note=62 velocity=91 time=0.0021739125
EXTRACT: note_on channel=9 note=35 velocity=122 time=0
EXTRACT: note_on channel=9 note=42 velocity=107 time=0
EXTRACT: note_on channel=6 note=60 velocity=103 time=0.0021739125
EXTRACT: note_on channel=2 note=72 velocity=98 time=0.00108695625
EXTRACT: note_on channel=2 note=77 velocity=85 time=0.00108695625
EXTRACT: note_on channel=2 note=69 velocity=79 time=0
EXTRACT: note_on channel=9 note=42 velocity=0 time=0.021739124999999998
EXTRACT: note_on channel=9 note=35 velocity=0 time=0.027173906249999998
EXTRACT: note_on channel=2 note=62 velocity=0 time=0.014130431249999999
EXTRACT: note_on channel=6 note=72 velocity=0 time=0.00108695625
EXTRACT: note_on channel=6 note=60 velocity=0 time=0.004347825
EXTRACT: note_on channel=2 note=69 velocity=0 time=0.00108695625
EXTRACT: note_on channel=2 note=72 velocity=0 time=0.00108695625
EXTRACT: note_on channel=2 note=77 velocity=0 time=0.01847825625
EXTRACT: note_on channel=6 note=62 velocity=124 time=0.041304337499999996
EXTRACT: note_on channel=6 note=74 velocity=124 time=0
EXTRACT: note_on channel=6 note=74 velocity=0 time=0.07717389375
EXTRACT: note_on channel=6 note=62 velocity=0 time=0
EXTRACT: note_on channel=9 note=42 velocity=57 time=0.048913031249999996
EXTRACT: note_on channel=9 note=42 velocity=0 time=0.0369565125
EXTRACT: note_on channel=2 note=77 velocity=85 time=0.08913041249999999
EXTRACT: note_on channel=2 note=72 velocity=94 time=0.00108695625
EXTRACT: note_on channel=2 note=69 velocity=79 time=0.00108695625
EXTRACT: note_on channel=2 note=62 velocity=87 time=0.0021739125
EXTRACT: note_on channel=2 note=62 velocity=0 time=0.051086943749999995
EXTRACT: note_on channel=2 note=69 velocity=0 time=0.0054347812499999995
EXTRACT: note_on channel=2 note=77 velocity=0 time=0
EXTRACT: note_on channel=2 note=72 velocity=0 time=0.0021739125
EXTRACT: note_on channel=6 note=65 velocity=119 time=0.0673912875
EXTRACT: note_on channel=6 note=77 velocity=119 time=0.004347825
EXTRACT: note_on channel=9 note=39 velocity=127 time=0
EXTRACT: note_on channel=9 note=40 velocity=127 time=0
EXTRACT: note_on channel=9 note=35 velocity=127 time=0
EXTRACT: note_on channel=9 note=42 velocity=116 time=0
EXTRACT: note_on channel=9 note=42 velocity=0 time=0.03369564375
EXTRACT: note_on channel=9 note=39 velocity=0 time=0.028260862499999997
EXTRACT: note_on channel=9 note=35 velocity=0 time=0.00108695625
EXTRACT: note_on channel=9 note=40 velocity=0 time=0.013043474999999999
EXTRACT: note_on channel=6 note=65 velocity=0 time=0.00108695625
EXTRACT: note_on channel=6 note=77 velocity=0 time=0.004347825
EXTRACT: note_on channel=6 note=74 velocity=122 time=0.046739118749999996
EXTRACT: note_on channel=6 note=62 velocity=122 time=0.00108695625
EXTRACT: note_on channel=6 note=74 velocity=0 time=0.06630433124999999
EXTRACT: note_on channel=6 note=62 velocity=0 time=0.00108695625
EXTRACT: note_on channel=6 note=60 velocity=122 time=0.0630434625
EXTRACT: note_on channel=6 note=72 velocity=122 time=0
EXTRACT: note_on channel=1 note=29 velocity=116 time=0.00108695625
EXTRACT: note_on channel=4 note=50 velocity=93 time=0
EXTRACT: note_on channel=5 note=50 velocity=109 time=0
EXTRACT: note_on channel=5 note=38 velocity=122 time=0
EXTRACT: note_on channel=9 note=42 velocity=55 time=0
EXTRACT: note_on channel=13 note=29 velocity=116 time=0
EXTRACT: note_on channel=2 note=57 velocity=57 time=0.0032608687499999997
EXTRACT: note_on channel=2 note=50 velocity=57 time=0.00108695625
EXTRACT: note_on channel=2 note=50 velocity=0 time=0.00108695625
EXTRACT: note_on channel=2 note=57 velocity=0 time=0.007608693749999999
EXTRACT: note_on channel=9 note=42 velocity=0 time=0.029347818749999997
EXTRACT: note_on channel=4 note=50 velocity=0 time=0.030434774999999997
EXTRACT: note_on channel=5 note=50 velocity=0 time=0.007608693749999999
EXTRACT: note_on channel=6 note=72 velocity=0 time=0.029347818749999997
EXTRACT: note_on channel=6 note=60 velocity=0 time=0
EXTRACT: note_on channel=13 note=29 velocity=0 time=0.010869562499999999
EXTRACT: note_on channel=1 note=29 velocity=0 time=0
EXTRACT: note_on channel=6 note=74 velocity=124 time=0.007608693749999999
EXTRACT: note_on channel=2 note=50 velocity=57 time=0.00108695625
EXTRACT: note_on channel=6 note=62 velocity=124 time=0.0021739125
EXTRACT: note_on channel=5 note=38 velocity=0 time=0.00108695625
EXTRACT: note_on channel=2 note=57 velocity=57 time=0
EXTRACT: note_on channel=2 note=50 velocity=0 time=0.0021739125
EXTRACT: note_on channel=2 note=57 velocity=0 time=0.0032608687499999997
EXTRACT: note_on channel=6 note=74 velocity=0 time=0.0630434625
EXTRACT: note_on channel=6 note=62 velocity=0 time=0.0032608687499999997
EXTRACT: note_on channel=2 note=71 velocity=89 time=0.054347812499999995
EXTRACT: note_on channel=2 note=62 velocity=81 time=0
EXTRACT: note_on channel=15 note=65 velocity=0 time=0.0021739125
EXTRACT: note_on channel=8 note=74 velocity=0 time=0
EXTRACT: note_on channel=15 note=69 velocity=0 time=0
EXTRACT: note_on channel=8 note=72 velocity=0 time=0
EXTRACT: note_on channel=8 note=69 velocity=0 time=0
EXTRACT: note_on channel=15 note=62 velocity=0 time=0
EXTRACT: note_on channel=8 note=77 velocity=0 time=0
EXTRACT: note_on channel=1 note=31 velocity=116 time=0
EXTRACT: note_on channel=4 note=55 velocity=98 time=0
EXTRACT: note_on channel=5 note=55 velocity=105 time=0
EXTRACT: note_on channel=5 note=43 velocity=116 time=0
EXTRACT: note_on channel=8 note=74 velocity=107 time=0
EXTRACT: note_on channel=8 note=71 velocity=85 time=0
EXTRACT: note_on channel=8 note=77 velocity=101 time=0
EXTRACT: note_on channel=8 note=69 velocity=93 time=0
EXTRACT: note_on channel=9 note=35 velocity=119 time=0
EXTRACT: note_on channel=9 note=42 velocity=116 time=0
EXTRACT: note_on channel=13 note=31 velocity=116 time=0
EXTRACT: note_on channel=15 note=62 velocity=1 time=0
EXTRACT: note_on channel=15 note=59 velocity=1 time=0
EXTRACT: note_on channel=15 note=55 velocity=1 time=0
EXTRACT: note_on channel=2 note=77 velocity=65 time=0.00108695625
EXTRACT: note_on channel=2 note=67 velocity=59 time=0.0021739125
EXTRACT: note_on channel=12 note=74 velocity=0 time=0.03369564375
EXTRACT: note_on channel=12 note=72 velocity=0 time=0
EXTRACT: note_on channel=12 note=77 velocity=0 time=0
EXTRACT: note_on channel=12 note=69 velocity=0 time=0
EXTRACT: note_on channel=12 note=74 velocity=107 time=0
EXTRACT: note_on channel=12 note=71 velocity=85 time=0
EXTRACT: note_on channel=12 note=77 velocity=101 time=0
EXTRACT: note_on channel=12 note=69 velocity=93 time=0
EXTRACT: note_on channel=9 note=42 velocity=0 time=0.00108695625
EXTRACT: note_on channel=9 note=35 velocity=0 time=0.019565212499999998
EXTRACT: note_on channel=2 note=67 velocity=0 time=0.011956518749999999
EXTRACT: note_on channel=2 note=77 velocity=0 time=0.0054347812499999995
EXTRACT: note_on channel=2 note=62 velocity=0 time=0.004347825
EXTRACT: note_on channel=2 note=71 velocity=0 time=0.011956518749999999
EXTRACT: note_on channel=6 note=65 velocity=122 time=0.16521734999999999
EXTRACT: note_on channel=6 note=77 velocity=122 time=0.0021739125
EXTRACT: note_on channel=9 note=42 velocity=48 time=0.0021739125
EXTRACT: note_on channel=6 note=71 velocity=122 time=0.004347825
EXTRACT: note_on channel=5 note=43 velocity=0 time=0.041304337499999996
EXTRACT: note_on channel=9 note=42 velocity=0 time=0.006521737499999999
EXTRACT: note_on channel=6 note=65 velocity=0 time=0.028260862499999997
EXTRACT: note_on channel=6 note=71 velocity=0 time=0
EXTRACT: note_on channel=6 note=77 velocity=0 time=0.0021739125
EXTRACT: note_on channel=13 note=31 velocity=0 time=0.03369564375
EXTRACT: note_on channel=1 note=31 velocity=0 time=0
EXTRACT: note_on channel=4 note=55 velocity=0 time=0.006521737499999999
EXTRACT: note_on channel=2 note=77 velocity=59 time=0.0054347812499999995
EXTRACT: note_on channel=2 note=71 velocity=76 time=0.00108695625
EXTRACT: note_on channel=1 note=26 velocity=114 time=0.00108695625
EXTRACT: note_on channel=2 note=62 velocity=89 time=0
EXTRACT: note_on channel=4 note=53 velocity=105 time=0
EXTRACT: note_on channel=5 note=53 velocity=114 time=0
EXTRACT: note_on channel=5 note=41 velocity=105 time=0
EXTRACT: note_on channel=13 note=26 velocity=114 time=0
EXTRACT: note_on channel=5 note=55 velocity=0 time=0.0021739125
EXTRACT: note_on channel=2 note=67 velocity=63 time=0
EXTRACT: note_on channel=2 note=67 velocity=0 time=0.053260856249999995
EXTRACT: note_on channel=2 note=62 velocity=0 time=0.006521737499999999
EXTRACT: note_on channel=2 note=77 velocity=0 time=0.004347825
EXTRACT: note_on channel=2 note=71 velocity=0 time=0.009782606249999999
EXTRACT: note_on channel=5 note=53 velocity=0 time=0.0173913
EXTRACT: note_on channel=4 note=53 velocity=0 time=0.0347826
EXTRACT: note_on channel=9 note=39 velocity=127 time=0.0021739125
EXTRACT: note_on channel=9 note=40 velocity=127 time=0
EXTRACT: note_on channel=9 note=35 velocity=119 time=0
EXTRACT: note_on channel=9 note=42 velocity=116 time=0
EXTRACT: note_on channel=13 note=26 velocity=0 time=0.0347826
EXTRACT: note_on channel=1 note=26 velocity=0 time=0
EXTRACT: note_on channel=9 note=42 velocity=0 time=0.0054347812499999995
EXTRACT: note_on channel=5 note=41 velocity=0 time=0.00108695625
EXTRACT: note_on channel=9 note=35 velocity=0 time=0.01630434375
EXTRACT: note_on channel=9 note=39 velocity=0 time=0.0054347812499999995
EXTRACT: note_on channel=9 note=40 velocity=0 time=0.007608693749999999
EXTRACT: note_on channel=2 note=67 velocity=70 time=0.1891303875
EXTRACT: note_on channel=1 note=29 velocity=122 time=0.00108695625
EXTRACT: note_on channel=4 note=50 velocity=76 time=0
EXTRACT: note_on channel=5 note=50 velocity=103 time=0
EXTRACT: note_on channel=5 note=38 velocity=114 time=0
EXTRACT: note_on channel=9 note=42 velocity=55 time=0
EXTRACT: note_on channel=13 note=29 velocity=122 time=0
EXTRACT: note_on channel=2 note=77 velocity=64 time=0.0021739125
EXTRACT: note_on channel=2 note=71 velocity=85 time=0.00108695625
EXTRACT: note_on channel=2 note=62 velocity=89 time=0
EXTRACT: note_on channel=9 note=42 velocity=0 time=0.040217381249999996
EXTRACT: note_on channel=2 note=62 velocity=0 time=0.019565212499999998
EXTRACT: note_on channel=2 note=67 velocity=0 time=0.00108695625
EXTRACT: note_on channel=4 note=50 velocity=0 time=0.00108695625
EXTRACT: note_on channel=2 note=77 velocity=0 time=0.006521737499999999
EXTRACT: note_on channel=2 note=71 velocity=0 time=0.004347825
EXTRACT: note_on channel=5 note=50 velocity=0 time=0.027173906249999998
EXTRACT: note_on channel=5 note=38 velocity=0 time=0.029347818749999997
EXTRACT: note_on channel=13 note=29 velocity=0 time=0.00108695625
EXTRACT: note_on channel=1 note=29 velocity=0 time=0
EXTRACT: note_on channel=2 note=50 velocity=57 time=0.12499996875
EXTRACT: note_on channel=2 note=57 velocity=57 time=0
EXTRACT: note_on channel=1 note=31 velocity=116 time=0.0021739125
EXTRACT: note_on channel=4 note=55 velocity=89 time=0
EXTRACT: note_on channel=5 note=55 velocity=112 time=0
EXTRACT: note_on channel=5 note=43 velocity=119 time=0
EXTRACT: note_on channel=9 note=35 velocity=122 time=0
EXTRACT: note_on channel=9 note=42 velocity=107 time=0
EXTRACT: note_on channel=9 note=52 velocity=127 time=0
EXTRACT: note_on channel=13 note=31 velocity=116 time=0
EXTRACT: note_on channel=2 note=57 velocity=0 time=0.0032608687499999997
EXTRACT: note_on channel=2 note=50 velocity=0 time=0
EXTRACT: note_on channel=9 note=42 velocity=0 time=0.022826081249999998
EXTRACT: note_on channel=9 note=35 velocity=0 time=0.027173906249999998
EXTRACT: note_on channel=9 note=52 velocity=0 time=0.011956518749999999
EXTRACT: note_on channel=2 note=71 velocity=100 time=0.19239125624999998
EXTRACT: note_on channel=2 note=62 velocity=100 time=0
EXTRACT: note_on channel=9 note=42 velocity=55 time=0.0032608687499999997
EXTRACT: note_on channel=2 note=77 velocity=100 time=0.00108695625
EXTRACT: note_on channel=2 note=67 velocity=100 time=0.0021739125
EXTRACT: note_on channel=9 note=42 velocity=0 time=0.03369564375
EXTRACT: note_on channel=5 note=43 velocity=0 time=0.0717391125
EXTRACT: note_on channel=1 note=29 velocity=112 time=0.021739124999999998
EXTRACT: note_on channel=4 note=53 velocity=105 time=0
EXTRACT: note_on channel=5 note=53 velocity=109 time=0
EXTRACT: note_on channel=5 note=41 velocity=112 time=0
EXTRACT: note_on channel=13 note=29 velocity=112 time=0
EXTRACT: note_on channel=5 note=55 velocity=0 time=0.007608693749999999
EXTRACT: note_on channel=13 note=31 velocity=0 time=0.004347825
EXTRACT: note_on channel=1 note=31 velocity=0 time=0
EXTRACT: note_on channel=4 note=55 velocity=0 time=0.006521737499999999
EXTRACT: note_on channel=9 note=39 velocity=127 time=0.11195649375
EXTRACT: note_on channel=9 note=40 velocity=127 time=0
EXTRACT: note_on channel=9 note=35 velocity=127 time=0
EXTRACT: note_on channel=9 note=42 velocity=116 time=0
EXTRACT: note_on channel=6 note=65 velocity=119 time=0.0021739125
EXTRACT: note_on channel=6 note=77 velocity=119 time=0.00108695625
EXTRACT: note_on channel=5 note=53 velocity=0 time=0.0032608687499999997
EXTRACT: note_on channel=5 note=41 velocity=0 time=0.0032608687499999997
EXTRACT: note_on channel=9 note=42 velocity=0 time=0.023913037499999998
EXTRACT: note_on channel=4 note=53 velocity=0 time=0.020652168749999998
EXTRACT: note_on channel=9 note=39 velocity=0 time=0.0054347812499999995
EXTRACT: note_on channel=1 note=29 velocity=0 time=0
EXTRACT: note_on channel=13 note=29 velocity=0 time=0
EXTRACT: note_on channel=9 note=35 velocity=0 time=0.0032608687499999997
EXTRACT: note_on channel=9 note=40 velocity=0 time=0.013043474999999999
EXTRACT: note_on channel=2 note=77 velocity=0 time=0.011956518749999999
EXTRACT: note_on channel=2 note=71 velocity=0 time=0.009782606249999999
EXTRACT: note_on channel=6 note=65 velocity=0 time=0.014130431249999999
EXTRACT: note_on channel=6 note=77 velocity=0 time=0.00108695625
EXTRACT: note_on channel=6 note=76 velocity=119 time=0.013043474999999999
EXTRACT: note_on channel=2 note=62 velocity=0 time=0.007608693749999999
EXTRACT: note_on channel=6 note=64 velocity=119 time=0
EXTRACT: note_on channel=2 note=67 velocity=0 time=0.006521737499999999
EXTRACT: note_on channel=6 note=76 velocity=0 time=0.06413041875
EXTRACT: note_on channel=6 note=64 velocity=0 time=0.007608693749999999
EXTRACT: note_on channel=2 note=50 velocity=65 time=0.046739118749999996
EXTRACT: note_on channel=1 note=24 velocity=119 time=0.0021739125
EXTRACT: note_on channel=4 note=48 velocity=109 time=0
EXTRACT: note_on channel=5 note=48 velocity=119 time=0
EXTRACT: note_on channel=5 note=36 velocity=116 time=0
EXTRACT: note_on channel=6 note=62 velocity=122 time=0
EXTRACT: note_on channel=9 note=46 velocity=81 time=0
EXTRACT: note_on channel=13 note=24 velocity=119 time=0
EXTRACT: note_on channel=2 note=57 velocity=65 time=0.00108695625
EXTRACT: note_on channel=6 note=74 velocity=122 time=0.0032608687499999997
EXTRACT: note_on channel=2 note=57 velocity=0 time=0.0021739125
EXTRACT: note_on channel=2 note=50 velocity=0 time=0.010869562499999999
EXTRACT: note_on channel=9 note=46 velocity=0 time=0.024999993749999998
EXTRACT: note_on channel=6 note=62 velocity=0 time=0.0369565125
EXTRACT: note_on channel=6 note=74 velocity=0 time=0.004347825
EXTRACT: note_on channel=4 note=48 velocity=0 time=0.027173906249999998
EXTRACT: note_on channel=5 note=48 velocity=0 time=0.00869565
EXTRACT: note_on channel=6 note=72 velocity=124 time=0.007608693749999999
EXTRACT: note_on channel=6 note=60 velocity=124 time=0.0021739125
EXTRACT: note_on channel=2 note=57 velocity=65 time=0.0021739125
EXTRACT: note_on channel=2 note=50 velocity=65 time=0.0021739125
EXTRACT: note_on channel=2 note=57 velocity=0 time=0.0032608687499999997
EXTRACT: note_on channel=2 note=50 velocity=0 time=0.0021739125
EXTRACT: note_on channel=5 note=36 velocity=0 time=0.006521737499999999
EXTRACT: note_on channel=13 note=24 velocity=0 time=0.0032608687499999997
EXTRACT: note_on channel=1 note=24 velocity=0 time=0
EXTRACT: note_on channel=6 note=72 velocity=0 time=0.06630433124999999
EXTRACT: note_on channel=6 note=60 velocity=0 time=0.0021739125
EXTRACT: note_on channel=2 note=77 velocity=70 time=0.042391293749999996
EXTRACT: note_on channel=15 note=55 velocity=0 time=0.00108695625
EXTRACT: note_on channel=8 note=77 velocity=0 time=0
EXTRACT: note_on channel=8 note=71 velocity=0 time=0
EXTRACT: note_on channel=8 note=69 velocity=0 time=0
EXTRACT: note_on channel=15 note=62 velocity=0 time=0
EXTRACT: note_on channel=8 note=74 velocity=0 time=0
EXTRACT: note_on channel=15 note=59 velocity=0 time=0
EXTRACT: note_on channel=1 note=26 velocity=122 time=0
EXTRACT: note_on channel=4 note=62 velocity=116 time=0
EXTRACT: note_on channel=4 note=69 velocity=122 time=0
EXTRACT: note_on channel=4 note=50 velocity=96 time=0
EXTRACT: note_on channel=5 note=50 velocity=119 time=0
EXTRACT: note_on channel=5 note=38 velocity=127 time=0
EXTRACT: note_on channel=8 note=74 velocity=103 time=0
EXTRACT: note_on channel=8 note=77 velocity=96 time=0
EXTRACT: note_on channel=8 note=69 velocity=103 time=0
EXTRACT: note_on channel=8 note=72 velocity=109 time=0
EXTRACT: note_on channel=9 note=35 velocity=119 time=0
EXTRACT: note_on channel=9 note=42 velocity=116 time=0
EXTRACT: note_on channel=13 note=26 velocity=122 time=0
EXTRACT: note_on channel=15 note=65 velocity=1 time=0
EXTRACT: note_on channel=15 note=69 velocity=1 time=0
EXTRACT: note_on channel=15 note=62 velocity=1 time=0
EXTRACT: note_on channel=2 note=69 velocity=65 time=0.00108695625
EXTRACT: note_on channel=2 note=72 velocity=103 time=0.0021739125
EXTRACT: note_on channel=2 note=62 velocity=89 time=0.00108695625
EXTRACT: note_on channel=12 note=77 velocity=0 time=0.0326086875
EXTRACT: note_on channel=12 note=71 velocity=0 time=0
EXTRACT: note_on channel=12 note=74 velocity=0 time=0
EXTRACT: note_on channel=12 note=69 velocity=0 time=0
EXTRACT: note_on channel=12 note=74 velocity=103 time=0
EXTRACT: note_on channel=12 note=77 velocity=96 time=0
EXTRACT: note_on channel=12 note=69 velocity=103 time=0
EXTRACT: note_on channel=12 note=72 velocity=109 time=0
EXTRACT: note_on channel=9 note=42 velocity=0 time=0.00108695625
EXTRACT: note_on channel=2 note=77 velocity=0 time=0.013043474999999999
EXTRACT: note_on channel=2 note=69 velocity=0 time=0.0032608687499999997
EXTRACT: note_on channel=9 note=35 velocity=0 time=0.0032608687499999997
EXTRACT: note_on channel=2 note=72 velocity=0 time=0.014130431249999999
EXTRACT: note_on channel=2 note=62 velocity=0 time=0.004347825
EXTRACT: note_on channel=5 note=50 velocity=0 time=0.16521734999999999
EXTRACT: note_on channel=9 note=42 velocity=50 time=0.019565212499999998
EXTRACT: note_on channel=5 note=38 velocity=0 time=0.0173913
EXTRACT: note_on channel=4 note=69 velocity=0 time=0.0021739125
EXTRACT: note_on channel=4 note=62 velocity=0 time=0.00108695625
EXTRACT: note_on channel=4 note=50 velocity=0 time=0.0021739125
EXTRACT: note_on channel=9 note=42 velocity=0 time=0.029347818749999997
EXTRACT: pitchwheel channel=1 pitch=-690 time=0.019565212499999998
EXTRACT: pitchwheel channel=13 pitch=-690 time=0
EXTRACT: pitchwheel channel=1 pitch=-1725 time=0.01630434375
EXTRACT: pitchwheel channel=13 pitch=-1725 time=0
EXTRACT: note_on channel=13 note=26 velocity=0 time=0.011956518749999999
EXTRACT: note_on channel=1 note=26 velocity=0 time=0
EXTRACT: pitchwheel channel=1 pitch=-3278 time=0.0032608687499999997
EXTRACT: pitchwheel channel=13 pitch=-3278 time=0
EXTRACT: pitchwheel channel=1 pitch=-5003 time=0.01630434375
EXTRACT: pitchwheel channel=13 pitch=-5003 time=0
EXTRACT: note_on channel=2 note=72 velocity=98 time=0.006521737499999999
EXTRACT: note_on channel=2 note=77 velocity=87 time=0.0032608687499999997
EXTRACT: note_on channel=2 note=62 velocity=87 time=0.004347825
EXTRACT: note_on channel=2 note=69 velocity=81 time=0.00108695625
EXTRACT: pitchwheel channel=1 pitch=-6383 time=0.00108695625
EXTRACT: pitchwheel channel=13 pitch=-6383 time=0
EXTRACT: pitchwheel channel=1 pitch=-7073 time=0.01630434375
EXTRACT: pitchwheel channel=13 pitch=-7073 time=0
EXTRACT: pitchwheel channel=1 pitch=-6469 time=0.015217387499999999
EXTRACT: pitchwheel channel=13 pitch=-6469 time=0
EXTRACT: pitchwheel channel=1 pitch=-2415 time=0.013043474999999999
EXTRACT: pitchwheel channel=13 pitch=-2415 time=0
EXTRACT: note_on channel=2 note=62 velocity=0 time=0.013043474999999999
EXTRACT: pitchwheel channel=1 pitch=517 time=0.0032608687499999997
EXTRACT: pitchwheel channel=13 pitch=517 time=0
EXTRACT: note_on channel=2 note=72 velocity=0 time=0.0021739125
EXTRACT: pitchwheel channel=1 pitch=0 time=0.013043474999999999
EXTRACT: pitchwheel channel=13 pitch=0 time=0
EXTRACT: note_on channel=2 note=69 velocity=0 time=0.007608693749999999
EXTRACT: note_on channel=2 note=77 velocity=0 time=0.011956518749999999
EXTRACT: note_on channel=2 note=57 velocity=57 time=0.024999993749999998
EXTRACT: note_on channel=9 note=39 velocity=127 time=0.004347825
EXTRACT: note_on channel=9 note=40 velocity=127 time=0
EXTRACT: note_on channel=9 note=35 velocity=119 time=0
EXTRACT: note_on channel=9 note=42 velocity=116 time=0
EXTRACT: note_on channel=2 note=57 velocity=0 time=0.00108695625
EXTRACT: note_on channel=2 note=50 velocity=57 time=0.00108695625
EXTRACT: note_on channel=2 note=50 velocity=0 time=0.0054347812499999995
EXTRACT: note_on channel=9 note=42 velocity=0 time=0.0326086875
EXTRACT: note_on channel=9 note=35 velocity=0 time=0.0173913
EXTRACT: note_on channel=9 note=39 velocity=0 time=0.0021739125
EXTRACT: note_on channel=9 note=40 velocity=0 time=0.010869562499999999
EXTRACT: note_on channel=9 note=42 velocity=58 time=0.19021734375
EXTRACT: note_on channel=9 note=42 velocity=0 time=0.043478249999999996
EXTRACT: note_on channel=2 note=50 velocity=57 time=0.08695649999999999
EXTRACT: note_on channel=2 note=57 velocity=57 time=0
EXTRACT: note_on channel=2 note=57 velocity=0 time=0.0054347812499999995
EXTRACT: note_on channel=2 note=50 velocity=0 time=0
EXTRACT: note_on channel=2 note=72 velocity=98 time=0.12173909999999999
EXTRACT: note_on channel=2 note=69 velocity=79 time=0.0032608687499999997
EXTRACT: note_on channel=2 note=62 velocity=91 time=0
EXTRACT: note_on channel=9 note=35 velocity=122 time=0
EXTRACT: note_on channel=9 note=42 velocity=107 time=0
EXTRACT: note_on channel=2 note=77 velocity=85 time=0.0032608687499999997
EXTRACT: note_on channel=9 note=42 velocity=0 time=0.022826081249999998
EXTRACT: note_on channel=9 note=35 velocity=0 time=0.027173906249999998
EXTRACT: note_on channel=2 note=62 velocity=0 time=0.014130431249999999
EXTRACT: note_on channel=2 note=72 velocity=0 time=0.00108695625
EXTRACT: note_on channel=2 note=69 velocity=0 time=0.00108695625
EXTRACT: note_on channel=2 note=77 velocity=0 time=0.022826081249999998
EXTRACT: note_on channel=9 note=42 velocity=57 time=0.16847821875
EXTRACT: note_on channel=9 note=42 velocity=0 time=0.0369565125
EXTRACT: note_on channel=2 note=62 velocity=87 time=0.08913041249999999
EXTRACT: note_on channel=2 note=72 velocity=94 time=0.0032608687499999997
EXTRACT: note_on channel=2 note=69 velocity=79 time=0.00108695625
EXTRACT: note_on channel=2 note=77 velocity=85 time=0.0032608687499999997
EXTRACT: note_on channel=2 note=62 velocity=0 time=0.043478249999999996
EXTRACT: note_on channel=2 note=69 velocity=0 time=0.011956518749999999
EXTRACT: note_on channel=2 note=72 velocity=0 time=0.0021739125
EXTRACT: note_on channel=2 note=77 velocity=0 time=0.0032608687499999997
EXTRACT: note_on channel=9 note=39 velocity=127 time=0.06630433124999999
EXTRACT: note_on channel=9 note=40 velocity=127 time=0
EXTRACT: note_on channel=9 note=35 velocity=127 time=0
EXTRACT: note_on channel=9 note=42 velocity=116 time=0
EXTRACT: note_on channel=9 note=42 velocity=0 time=0.03369564375
EXTRACT: note_on channel=9 note=39 velocity=0 time=0.028260862499999997
EXTRACT: note_on channel=9 note=35 velocity=0 time=0.00108695625
EXTRACT: note_on channel=9 note=40 velocity=0 time=0.013043474999999999
EXTRACT: note_on channel=2 note=50 velocity=57 time=0.1804347375
EXTRACT: note_on channel=2 note=50 velocity=0 time=0.00108695625
EXTRACT: note_on channel=2 note=57 velocity=57 time=0.0021739125
EXTRACT: note_on channel=1 note=29 velocity=116 time=0.00108695625
EXTRACT: note_on channel=4 note=50 velocity=93 time=0
EXTRACT: note_on channel=5 note=50 velocity=109 time=0
EXTRACT: note_on channel=5 note=38 velocity=122 time=0
EXTRACT: note_on channel=9 note=42 velocity=55 time=0
EXTRACT: note_on channel=13 note=29 velocity=116 time=0
EXTRACT: note_on channel=2 note=57 velocity=0 time=0.00869565
EXTRACT: note_on channel=9 note=42 velocity=0 time=0.03369564375
EXTRACT: note_on channel=4 note=50 velocity=0 time=0.030434774999999997
EXTRACT: note_on channel=5 note=50 velocity=0 time=0.007608693749999999
EXTRACT: note_on channel=13 note=29 velocity=0 time=0.040217381249999996
EXTRACT: note_on channel=1 note=29 velocity=0 time=0
EXTRACT: note_on channel=2 note=57 velocity=57 time=0.009782606249999999
EXTRACT: note_on channel=2 note=50 velocity=57 time=0.00108695625
EXTRACT: note_on channel=5 note=38 velocity=0 time=0.00108695625
EXTRACT: note_on channel=2 note=57 velocity=0 time=0.0032608687499999997
EXTRACT: note_on channel=2 note=50 velocity=0 time=0.00108695625
EXTRACT: note_on channel=2 note=67 velocity=59 time=0.12173909999999999
EXTRACT: note_on channel=2 note=71 velocity=89 time=0.00108695625
EXTRACT: note_on channel=8 note=74 velocity=0 time=0.00108695625
EXTRACT: note_on channel=8 note=72 velocity=0 time=0
EXTRACT: note_on channel=15 note=62 velocity=0 time=0
EXTRACT: note_on channel=15 note=69 velocity=0 time=0
EXTRACT: note_on channel=8 note=69 velocity=0 time=0
EXTRACT: note_on channel=8 note=77 velocity=0 time=0
EXTRACT: note_on channel=15 note=65 velocity=0 time=0
EXTRACT: note_on channel=1 note=31 velocity=116 time=0
EXTRACT: note_on channel=2 note=62 velocity=81 time=0
EXTRACT: note_on channel=3 note=67 velocity=119 time=0
EXTRACT: note_on channel=4 note=55 velocity=98 time=0
EXTRACT: note_on channel=5 note=55 velocity=105 time=0
EXTRACT: note_on channel=5 note=43 velocity=116 time=0
EXTRACT: note_on channel=8 note=71 velocity=98 time=0
EXTRACT: note_on channel=8 note=74 velocity=105 time=0
EXTRACT: note_on channel=8 note=77 velocity=105 time=0
EXTRACT: note_on channel=8 note=69 velocity=84 time=0
EXTRACT: note_on channel=9 note=35 velocity=119 time=0
EXTRACT: note_on channel=9 note=42 velocity=116 time=0
EXTRACT: note_on channel=13 note=31 velocity=116 time=0
EXTRACT: note_on channel=15 note=62 velocity=1 time=0
EXTRACT: note_on channel=15 note=59 velocity=1 time=0
EXTRACT: note_on channel=15 note=55 velocity=1 time=0
EXTRACT: note_on channel=2 note=77 velocity=65 time=0.00108695625
EXTRACT: note_on channel=12 note=72 velocity=0 time=0.03586955625
EXTRACT: note_on channel=12 note=77 velocity=0 time=0
EXTRACT: note_on channel=12 note=74 velocity=0 time=0
EXTRACT: note_on channel=12 note=69 velocity=0 time=0
EXTRACT: note_on channel=12 note=71 velocity=98 time=0
EXTRACT: note_on channel=12 note=74 velocity=105 time=0
EXTRACT: note_on channel=12 note=77 velocity=105 time=0
EXTRACT: note_on channel=12 note=69 velocity=84 time=0
EXTRACT: note_on channel=9 note=42 velocity=0 time=0.00108695625
EXTRACT: note_on channel=9 note=35 velocity=0 time=0.019565212499999998
EXTRACT: note_on channel=2 note=67 velocity=0 time=0.006521737499999999
EXTRACT: note_on channel=2 note=77 velocity=0 time=0.010869562499999999
EXTRACT: note_on channel=2 note=62 velocity=0 time=0.006521737499999999
EXTRACT: note_on channel=3 note=67 velocity=0 time=0.007608693749999999
EXTRACT: note_on channel=2 note=71 velocity=0 time=0.0032608687499999997
EXTRACT: note_on channel=3 note=65 velocity=109 time=0.16847821875
EXTRACT: note_on channel=9 note=42 velocity=48 time=0
EXTRACT: note_on channel=5 note=43 velocity=0 time=0.045652162499999996
EXTRACT: note_on channel=9 note=42 velocity=0 time=0.006521737499999999
EXTRACT: note_on channel=3 note=65 velocity=0 time=0
EXTRACT: note_on channel=13 note=31 velocity=0 time=0.06413041875
EXTRACT: note_on channel=1 note=31 velocity=0 time=0
EXTRACT: note_on channel=4 note=55 velocity=0 time=0.006521737499999999
EXTRACT: note_on channel=2 note=71 velocity=76 time=0.0032608687499999997
EXTRACT: note_on channel=2 note=62 velocity=89 time=0.0021739125
EXTRACT: note_on channel=1 note=26 velocity=114 time=0.0021739125
EXTRACT: note_on channel=3 note=67 velocity=119 time=0
EXTRACT: note_on channel=4 note=53 velocity=105 time=0
EXTRACT: note_on channel=5 note=53 velocity=114 time=0
EXTRACT: note_on channel=5 note=41 velocity=105 time=0
EXTRACT: note_on channel=13 note=26 velocity=114 time=0
EXTRACT: note_on channel=5 note=55 velocity=0 time=0.0021739125
EXTRACT: note_on channel=2 note=77 velocity=59 time=0
EXTRACT: note_on channel=2 note=67 velocity=63 time=0.00108695625
EXTRACT: note_on channel=2 note=67 velocity=0 time=0.053260856249999995
EXTRACT: note_on channel=2 note=62 velocity=0 time=0.0032608687499999997
EXTRACT: note_on channel=2 note=77 velocity=0 time=0.010869562499999999
EXTRACT: note_on channel=2 note=71 velocity=0 time=0.0021739125
EXTRACT: note_on channel=5 note=53 velocity=0 time=0.020652168749999998
EXTRACT: note_on channel=3 note=67 velocity=0 time=0.0173913
EXTRACT: note_on channel=4 note=53 velocity=0 time=0.0173913
EXTRACT: note_on channel=9 note=39 velocity=127 time=0.0021739125
EXTRACT: note_on channel=9 note=40 velocity=127 time=0
EXTRACT: note_on channel=9 note=35 velocity=119 time=0
EXTRACT: note_on channel=9 note=42 velocity=116 time=0
EXTRACT: note_on channel=13 note=26 velocity=0 time=0.0347826
EXTRACT: note_on channel=1 note=26 velocity=0 time=0
EXTRACT: note_on channel=9 note=42 velocity=0 time=0.0054347812499999995
EXTRACT: note_on channel=5 note=41 velocity=0 time=0.00108695625
EXTRACT: note_on channel=9 note=35 velocity=0 time=0.01630434375
EXTRACT: note_on channel=9 note=39 velocity=0 time=0.0054347812499999995
EXTRACT: note_on channel=9 note=40 velocity=0 time=0.007608693749999999
EXTRACT: note_on channel=3 note=65 velocity=114 time=0.059782593749999995
EXTRACT: note_on channel=3 note=65 velocity=0 time=0.0630434625
EXTRACT: note_on channel=1 note=29 velocity=122 time=0.0673912875
EXTRACT: note_on channel=3 note=67 velocity=119 time=0
EXTRACT: note_on channel=4 note=50 velocity=76 time=0
EXTRACT: note_on channel=5 note=50 velocity=103 time=0
EXTRACT: note_on channel=5 note=38 velocity=114 time=0
EXTRACT: note_on channel=9 note=42 velocity=55 time=0
EXTRACT: note_on channel=13 note=29 velocity=122 time=0
EXTRACT: note_on channel=2 note=77 velocity=64 time=0.00108695625
EXTRACT: note_on channel=2 note=71 velocity=85 time=0
EXTRACT: note_on channel=2 note=62 velocity=89 time=0.0021739125
EXTRACT: note_on channel=2 note=67 velocity=70 time=0.00108695625
EXTRACT: note_on channel=9 note=42 velocity=0 time=0.039130424999999996
EXTRACT: note_on channel=2 note=62 velocity=0 time=0.019565212499999998
EXTRACT: note_on channel=4 note=50 velocity=0 time=0.0021739125
EXTRACT: note_on channel=2 note=67 velocity=0 time=0.004347825
EXTRACT: note_on channel=2 note=77 velocity=0 time=0.00108695625
EXTRACT: note_on channel=2 note=71 velocity=0 time=0.0032608687499999997
EXTRACT: note_on channel=3 note=67 velocity=0 time=0.01847825625
EXTRACT: note_on channel=5 note=50 velocity=0 time=0.010869562499999999
EXTRACT: note_on channel=5 note=38 velocity=0 time=0.029347818749999997
EXTRACT: note_on channel=13 note=29 velocity=0 time=0.00108695625
EXTRACT: note_on channel=1 note=29 velocity=0 time=0
EXTRACT: note_on channel=2 note=50 velocity=57 time=0.12282605624999998
EXTRACT: note_on channel=1 note=31 velocity=116 time=0.004347825
EXTRACT: note_on channel=3 note=65 velocity=127 time=0
EXTRACT: note_on channel=4 note=55 velocity=89 time=0
EXTRACT: note_on channel=5 note=55 velocity=112 time=0
EXTRACT: note_on channel=5 note=43 velocity=119 time=0
EXTRACT: note_on channel=9 note=52 velocity=124 time=0
EXTRACT: note_on channel=9 note=35 velocity=122 time=0
EXTRACT: note_on channel=9 note=42 velocity=107 time=0
EXTRACT: note_on channel=13 note=31 velocity=116 time=0
EXTRACT: note_on channel=2 note=50 velocity=0 time=0.00108695625
EXTRACT: note_on channel=2 note=57 velocity=57 time=0
EXTRACT: note_on channel=2 note=57 velocity=0 time=0.0054347812499999995
EXTRACT: note_on channel=9 note=42 velocity=0 time=0.019565212499999998
EXTRACT: note_on channel=9 note=35 velocity=0 time=0.027173906249999998
EXTRACT: note_on channel=9 note=52 velocity=0 time=0.009782606249999999
EXTRACT: note_on channel=2 note=62 velocity=100 time=0.19347821249999997
EXTRACT: note_on channel=2 note=77 velocity=100 time=0.0032608687499999997
EXTRACT: note_on channel=2 note=67 velocity=100 time=0
EXTRACT: note_on channel=6 note=77 velocity=119 time=0
EXTRACT: note_on channel=9 note=42 velocity=55 time=0.00108695625
EXTRACT: note_on channel=9 note=40 velocity=127 time=0
EXTRACT: note_on channel=6 note=71 velocity=116 time=0.0021739125
EXTRACT: note_on channel=2 note=71 velocity=100 time=0.00108695625
EXTRACT: note_on channel=6 note=65 velocity=122 time=0.00108695625
EXTRACT: note_on channel=9 note=42 velocity=0 time=0.0326086875
EXTRACT: note_on channel=9 note=40 velocity=0 time=0.011956518749999999
EXTRACT: note_on channel=6 note=77 velocity=0 time=0.006521737499999999
EXTRACT: note_on channel=6 note=71 velocity=0 time=0.004347825
EXTRACT: note_on channel=6 note=65 velocity=0 time=0.00108695625
EXTRACT: note_on channel=5 note=43 velocity=0 time=0.047826074999999996
EXTRACT: note_on channel=6 note=71 velocity=119 time=0.01847825625
EXTRACT: note_on channel=6 note=77 velocity=127 time=0
EXTRACT: note_on channel=1 note=29 velocity=112 time=0.0032608687499999997
EXTRACT: note_on channel=4 note=53 velocity=105 time=0
EXTRACT: note_on channel=5 note=53 velocity=109 time=0
EXTRACT: note_on channel=5 note=41 velocity=112 time=0
EXTRACT: note_on channel=6 note=65 velocity=122 time=0
EXTRACT: note_on channel=9 note=40 velocity=124 time=0
EXTRACT: note_on channel=13 note=29 velocity=112 time=0
EXTRACT: note_on channel=3 note=65 velocity=0 time=0.0021739125
EXTRACT: note_on channel=5 note=55 velocity=0 time=0.0054347812499999995
EXTRACT: note_on channel=13 note=31 velocity=0 time=0.004347825
EXTRACT: note_on channel=1 note=31 velocity=0 time=0
EXTRACT: note_on channel=4 note=55 velocity=0 time=0.006521737499999999
EXTRACT: note_on channel=9 note=40 velocity=0 time=0.03369564375
EXTRACT: note_on channel=6 note=65 velocity=0 time=0.020652168749999998
EXTRACT: note_on channel=6 note=71 velocity=0 time=0.0032608687499999997
EXTRACT: note_on channel=6 note=77 velocity=0 time=0.00108695625
EXTRACT: note_on channel=6 note=65 velocity=122 time=0.053260856249999995
EXTRACT: note_on channel=9 note=35 velocity=127 time=0
EXTRACT: note_on channel=9 note=42 velocity=116 time=0
EXTRACT: note_on channel=9 note=40 velocity=122 time=0
EXTRACT: note_on channel=6 note=71 velocity=116 time=0.0032608687499999997
EXTRACT: note_on channel=6 note=77 velocity=119 time=0.00108695625
EXTRACT: note_on channel=5 note=53 velocity=0 time=0.0021739125
EXTRACT: note_on channel=5 note=41 velocity=0 time=0.0032608687499999997
EXTRACT: note_on channel=9 note=42 velocity=0 time=0.023913037499999998
EXTRACT: note_on channel=9 note=40 velocity=0 time=0.0173913
EXTRACT: note_on channel=4 note=53 velocity=0 time=0.0032608687499999997
EXTRACT: note_on channel=13 note=29 velocity=0 time=0.0054347812499999995
EXTRACT: note_on channel=1 note=29 velocity=0 time=0
EXTRACT: note_on channel=9 note=35 velocity=0 time=0.0032608687499999997
EXTRACT: note_on channel=6 note=65 velocity=0 time=0.00108695625
EXTRACT: note_on channel=6 note=77 velocity=0 time=0.006521737499999999
EXTRACT: note_on channel=6 note=71 velocity=0 time=0.00108695625
EXTRACT: note_on channel=2 note=77 velocity=0 time=0.014130431249999999
EXTRACT: note_on channel=2 note=71 velocity=0 time=0.01847825625
EXTRACT: note_on channel=6 note=77 velocity=119 time=0.024999993749999998
EXTRACT: note_on channel=9 note=40 velocity=119 time=0.00108695625
EXTRACT: note_on channel=6 note=71 velocity=124 time=0.00108695625
EXTRACT: note_on channel=2 note=62 velocity=0 time=0.00108695625
EXTRACT: note_on channel=6 note=65 velocity=119 time=0
EXTRACT: note_on channel=2 note=67 velocity=0 time=0.0032608687499999997
EXTRACT: note_on channel=9 note=40 velocity=0 time=0.049999987499999995
EXTRACT: note_on channel=6 note=65 velocity=0 time=0.020652168749999998
EXTRACT: note_on channel=6 note=77 velocity=0 time=0
EXTRACT: note_on channel=6 note=71 velocity=0 time=0.00869565
EXTRACT: note_on channel=6 note=71 velocity=119 time=0.042391293749999996
EXTRACT: note_on channel=1 note=24 velocity=119 time=0.0032608687499999997
EXTRACT: note_on channel=4 note=48 velocity=109 time=0
EXTRACT: note_on channel=5 note=48 velocity=119 time=0
EXTRACT: note_on channel=5 note=36 velocity=116 time=0
EXTRACT: note_on channel=9 note=46 velocity=81 time=0
EXTRACT: note_on channel=9 note=40 velocity=116 time=0
EXTRACT: note_on channel=13 note=24 velocity=119 time=0
EXTRACT: note_on channel=6 note=77 velocity=122 time=0.00108695625
EXTRACT: note_on channel=2 note=57 velocity=65 time=0.00108695625
EXTRACT: note_on channel=2 note=50 velocity=65 time=0.0021739125
EXTRACT: note_on channel=6 note=65 velocity=124 time=0
EXTRACT: note_on channel=2 note=57 velocity=0 time=0.0032608687499999997
EXTRACT: note_on channel=2 note=50 velocity=0 time=0.01630434375
EXTRACT: note_on channel=9 note=46 velocity=0 time=0.01847825625
EXTRACT: note_on channel=9 note=40 velocity=0 time=0.006521737499999999
EXTRACT: note_on channel=6 note=65 velocity=0 time=0.015217387499999999
EXTRACT: note_on channel=6 note=71 velocity=0 time=0.0021739125
EXTRACT: note_on channel=6 note=77 velocity=0 time=0.0054347812499999995
EXTRACT: note_on channel=4 note=48 velocity=0 time=0.039130424999999996
EXTRACT: note_on channel=5 note=48 velocity=0 time=0.00869565
EXTRACT: note_on channel=2 note=50 velocity=65 time=0.007608693749999999
EXTRACT: note_on channel=6 note=77 velocity=124 time=0.00108695625
EXTRACT: note_on channel=2 note=57 velocity=65 time=0.00108695625
EXTRACT: note_on channel=9 note=40 velocity=122 time=0.00108695625
EXTRACT: note_on channel=2 note=50 velocity=0 time=0.0021739125
EXTRACT: note_on channel=6 note=65 velocity=127 time=0
EXTRACT: note_on channel=6 note=71 velocity=124 time=0.00108695625
EXTRACT: note_on channel=2 note=57 velocity=0 time=0.00108695625
EXTRACT: note_on channel=5 note=36 velocity=0 time=0.010869562499999999
EXTRACT: note_on channel=13 note=24 velocity=0 time=0.0032608687499999997
EXTRACT: note_on channel=1 note=24 velocity=0 time=0
EXTRACT: note_on channel=9 note=40 velocity=0 time=0.03586955625
EXTRACT: note_on channel=6 note=65 velocity=0 time=0.014130431249999999
EXTRACT: note_on channel=6 note=77 velocity=0 time=0.00108695625
EXTRACT: note_on channel=6 note=71 velocity=0 time=0.004347825
EXTRACT: note_on channel=2 note=77 velocity=70 time=0.053260856249999995
EXTRACT: note_on channel=2 note=69 velocity=65 time=0
EXTRACT: note_on channel=2 note=72 velocity=103 time=0.00108695625
EXTRACT: note_on channel=2 note=62 velocity=89 time=0.00108695625
EXTRACT: note_on channel=8 note=71 velocity=0 time=0.00108695625
EXTRACT: note_on channel=8 note=69 velocity=0 time=0
EXTRACT: note_on channel=15 note=59 velocity=0 time=0
EXTRACT: note_on channel=8 note=77 velocity=0 time=0
EXTRACT: note_on channel=8 note=74 velocity=0 time=0
EXTRACT: note_on channel=15 note=55 velocity=0 time=0
EXTRACT: note_on channel=15 note=62 velocity=0 time=0
EXTRACT: note_on channel=1 note=26 velocity=122 time=0
EXTRACT: note_on channel=4 note=62 velocity=119 time=0
EXTRACT: note_on channel=4 note=69 velocity=122 time=0
EXTRACT: note_on channel=4 note=50 velocity=96 time=0
EXTRACT: note_on channel=5 note=50 velocity=119 time=0
EXTRACT: note_on channel=5 note=38 velocity=127 time=0
EXTRACT: note_on channel=6 note=77 velocity=114 time=0
EXTRACT: note_on channel=8 note=74 velocity=109 time=0
EXTRACT: note_on channel=8 note=77 velocity=101 time=0
EXTRACT: note_on channel=8 note=72 velocity=109 time=0
EXTRACT: note_on channel=8 note=69 velocity=107 time=0
EXTRACT: note_on channel=9 note=35 velocity=119 time=0
EXTRACT: note_on channel=9 note=42 velocity=116 time=0
EXTRACT: note_on channel=9 note=57 velocity=127 time=0
EXTRACT: note_on channel=13 note=26 velocity=122 time=0
EXTRACT: note_on channel=15 note=65 velocity=1 time=0
EXTRACT: note_on channel=15 note=69 velocity=1 time=0
EXTRACT: note_on channel=15 note=62 velocity=1 time=0
EXTRACT: note_on channel=6 note=65 velocity=114 time=0.0032608687499999997
EXTRACT: note_on channel=12 note=74 velocity=0 time=0.03369564375
EXTRACT: note_on channel=12 note=69 velocity=0 time=0
EXTRACT: note_on channel=12 note=77 velocity=0 time=0
EXTRACT: note_on channel=12 note=71 velocity=0 time=0
EXTRACT: note_on channel=12 note=74 velocity=109 time=0
EXTRACT: note_on channel=12 note=77 velocity=101 time=0
EXTRACT: note_on channel=12 note=72 velocity=109 time=0
EXTRACT: note_on channel=12 note=69 velocity=107 time=0
EXTRACT: note_on channel=9 note=42 velocity=0 time=0.00108695625
EXTRACT: note_on channel=2 note=77 velocity=0 time=0.010869562499999999
EXTRACT: note_on channel=2 note=69 velocity=0 time=0.00108695625
EXTRACT: note_on channel=9 note=35 velocity=0 time=0.007608693749999999
EXTRACT: note_on channel=9 note=57 velocity=0 time=0.00869565
EXTRACT: note_on channel=2 note=72 velocity=0 time=0
EXTRACT: note_on channel=2 note=62 velocity=0 time=0.004347825
EXTRACT: note_on channel=6 note=77 velocity=0 time=0.01847825625
EXTRACT: note_on channel=6 note=65 velocity=0 time=0.0032608687499999997
EXTRACT: note_on channel=6 note=74 velocity=107 time=0.0347826
EXTRACT: note_on channel=6 note=62 velocity=107 time=0.004347825
EXTRACT: note_on channel=6 note=74 velocity=0 time=0.08586954375
EXTRACT: note_on channel=6 note=62 velocity=0 time=0.004347825
EXTRACT: note_on channel=5 note=50 velocity=0 time=0.019565212499999998
EXTRACT: note_on channel=6 note=72 velocity=116 time=0.015217387499999999
EXTRACT: note_on channel=9 note=42 velocity=50 time=0.004347825
EXTRACT: note_on channel=6 note=60 velocity=116 time=0.0032608687499999997
EXTRACT: note_on channel=5 note=38 velocity=0 time=0.014130431249999999
EXTRACT: note_on channel=4 note=50 velocity=0 time=0.0054347812499999995
EXTRACT: note_on channel=9 note=42 velocity=0 time=0.029347818749999997
EXTRACT: note_on channel=4 note=69 velocity=0 time=0.0173913
EXTRACT: note_on channel=4 note=62 velocity=0 time=0.00108695625
EXTRACT: pitchwheel channel=1 pitch=-690 time=0.00108695625
EXTRACT: pitchwheel channel=13 pitch=-690 time=0
EXTRACT: note_on channel=6 note=72 velocity=0 time=0.00869565
EXTRACT: note_on channel=6 note=60 velocity=0 time=0.007608693749999999
EXTRACT: pitchwheel channel=1 pitch=-1725 time=0
EXTRACT: pitchwheel channel=13 pitch=-1725 time=0
EXTRACT: note_on channel=1 note=26 velocity=0 time=0.011956518749999999
EXTRACT: note_on channel=13 note=26 velocity=0 time=0
EXTRACT: pitchwheel channel=1 pitch=-3278 time=0.0032608687499999997
EXTRACT: pitchwheel channel=13 pitch=-3278 time=0
EXTRACT: pitchwheel channel=1 pitch=-5003 time=0.01630434375
EXTRACT: pitchwheel channel=13 pitch=-5003 time=0
EXTRACT: note_on channel=2 note=72 velocity=98 time=0.006521737499999999
EXTRACT: note_on channel=6 note=74 velocity=124 time=0.00108695625
EXTRACT: note_on channel=6 note=62 velocity=124 time=0.00108695625
EXTRACT: note_on channel=2 note=69 velocity=81 time=0.0021739125
EXTRACT: note_on channel=2 note=77 velocity=87 time=0.00108695625
EXTRACT: note_on channel=2 note=62 velocity=87 time=0.0021739125
EXTRACT: pitchwheel channel=1 pitch=-6383 time=0.0021739125
EXTRACT: pitchwheel channel=13 pitch=-6383 time=0
EXTRACT: pitchwheel channel=1 pitch=-7073 time=0.01630434375
EXTRACT: pitchwheel channel=13 pitch=-7073 time=0
EXTRACT: pitchwheel channel=1 pitch=-6469 time=0.015217387499999999
EXTRACT: pitchwheel channel=13 pitch=-6469 time=0
EXTRACT: pitchwheel channel=1 pitch=-2415 time=0.013043474999999999
EXTRACT: pitchwheel channel=13 pitch=-2415 time=0
EXTRACT: note_on channel=6 note=74 velocity=0 time=0.011956518749999999
EXTRACT: note_on channel=2 note=62 velocity=0 time=0.00108695625
EXTRACT: note_on channel=6 note=62 velocity=0 time=0
EXTRACT: pitchwheel channel=1 pitch=517 time=0.0032608687499999997
EXTRACT: pitchwheel channel=13 pitch=517 time=0
EXTRACT: note_on channel=2 note=72 velocity=0 time=0.0021739125
EXTRACT: pitchwheel channel=1 pitch=0 time=0.013043474999999999
EXTRACT: pitchwheel channel=13 pitch=0 time=0
EXTRACT: note_on channel=2 note=69 velocity=0 time=0.0032608687499999997
EXTRACT: note_on channel=2 note=77 velocity=0 time=0.01847825625
EXTRACT: note_on channel=2 note=57 velocity=57 time=0.027173906249999998
EXTRACT: note_on channel=2 note=50 velocity=57 time=0
EXTRACT: note_on channel=9 note=39 velocity=127 time=0
EXTRACT: note_on channel=9 note=40 velocity=127 time=0
EXTRACT: note_on channel=9 note=35 velocity=119 time=0
EXTRACT: note_on channel=9 note=42 velocity=116 time=0
EXTRACT: note_on channel=2 note=50 velocity=0 time=0.0054347812499999995
EXTRACT: note_on channel=2 note=57 velocity=0 time=0
EXTRACT: note_on channel=9 note=42 velocity=0 time=0.0347826
EXTRACT: note_on channel=9 note=35 velocity=0 time=0.0173913
EXTRACT: note_on channel=9 note=39 velocity=0 time=0.0021739125
EXTRACT: note_on channel=9 note=40 velocity=0 time=0.010869562499999999
EXTRACT: note_on channel=6 note=65 velocity=119 time=0.1891303875
EXTRACT: note_on channel=9 note=42 velocity=58 time=0.00108695625
EXTRACT: note_on channel=6 note=77 velocity=119 time=0.0032608687499999997
EXTRACT: note_on channel=9 note=42 velocity=0 time=0.040217381249999996
EXTRACT: note_on channel=6 note=65 velocity=0 time=0.03369564375
EXTRACT: note_on channel=6 note=77 velocity=0 time=0.004347825
EXTRACT: note_on channel=6 note=74 velocity=119 time=0.045652162499999996
EXTRACT: note_on channel=6 note=62 velocity=119 time=0.00108695625
EXTRACT: note_on channel=2 note=57 velocity=57 time=0.00108695625
EXTRACT: note_on channel=2 note=50 velocity=57 time=0.00108695625
EXTRACT: note_on channel=2 note=57 velocity=0 time=0.004347825
EXTRACT: note_on channel=2 note=50 velocity=0 time=0.00108695625
EXTRACT: note_on channel=6 note=74 velocity=0 time=0.0717391125
EXTRACT: note_on channel=6 note=62 velocity=0 time=0.00108695625
EXTRACT: note_on channel=2 note=77 velocity=85 time=0.047826074999999996
EXTRACT: note_on channel=2 note=62 velocity=91 time=0.00108695625
EXTRACT: note_on channel=6 note=60 velocity=103 time=0
EXTRACT: note_on channel=2 note=72 velocity=98 time=0.0032608687499999997
EXTRACT: note_on channel=9 note=35 velocity=122 time=0
EXTRACT: note_on channel=9 note=42 velocity=107 time=0
EXTRACT: note_on channel=6 note=72 velocity=103 time=0.00108695625
EXTRACT: note_on channel=2 note=69 velocity=79 time=0.0032608687499999997
EXTRACT: note_on channel=9 note=42 velocity=0 time=0.021739124999999998
EXTRACT: note_on channel=9 note=35 velocity=0 time=0.027173906249999998
EXTRACT: note_on channel=2 note=62 velocity=0 time=0.010869562499999999
EXTRACT: note_on channel=6 note=60 velocity=0 time=0.0032608687499999997
EXTRACT: note_on channel=6 note=72 velocity=0 time=0.004347825
EXTRACT: note_on channel=2 note=72 velocity=0 time=0
EXTRACT: note_on channel=2 note=69 velocity=0 time=0.0021739125
EXTRACT: note_on channel=2 note=77 velocity=0 time=0.010869562499999999
EXTRACT: note_on channel=6 note=62 velocity=124 time=0.042391293749999996
EXTRACT: note_on channel=6 note=74 velocity=124 time=0.0032608687499999997
EXTRACT: note_on channel=6 note=62 velocity=0 time=0.073913025
EXTRACT: note_on channel=6 note=74 velocity=0 time=0.0032608687499999997
EXTRACT: note_on channel=9 note=42 velocity=57 time=0.053260856249999995
EXTRACT: note_on channel=9 note=42 velocity=0 time=0.0369565125
EXTRACT: note_on channel=2 note=62 velocity=87 time=0.08913041249999999
EXTRACT: note_on channel=2 note=69 velocity=79 time=0.0032608687499999997
EXTRACT: note_on channel=2 note=77 velocity=85 time=0.00108695625
EXTRACT: note_on channel=2 note=72 velocity=94 time=0.004347825
EXTRACT: note_on channel=2 note=62 velocity=0 time=0.042391293749999996
EXTRACT: note_on channel=2 note=69 velocity=0 time=0.010869562499999999
EXTRACT: note_on channel=2 note=77 velocity=0 time=0.0032608687499999997
EXTRACT: note_on channel=2 note=72 velocity=0 time=0.0054347812499999995
EXTRACT: note_on channel=6 note=77 velocity=119 time=0.060869549999999994
EXTRACT: note_on channel=6 note=65 velocity=119 time=0.0032608687499999997
EXTRACT: note_on channel=9 note=39 velocity=127 time=0
EXTRACT: note_on channel=9 note=40 velocity=127 time=0
EXTRACT: note_on channel=9 note=35 velocity=127 time=0
EXTRACT: note_on channel=9 note=42 velocity=116 time=0
EXTRACT: note_on channel=9 note=42 velocity=0 time=0.03369564375
EXTRACT: note_on channel=9 note=39 velocity=0 time=0.028260862499999997
EXTRACT: note_on channel=9 note=35 velocity=0 time=0.00108695625
EXTRACT: note_on channel=9 note=40 velocity=0 time=0.013043474999999999
EXTRACT: note_on channel=6 note=77 velocity=0 time=0.0021739125
EXTRACT: note_on channel=6 note=65 velocity=0 time=0.0032608687499999997
EXTRACT: note_on channel=6 note=74 velocity=122 time=0.046739118749999996
EXTRACT: note_on channel=6 note=62 velocity=122 time=0.0032608687499999997
EXTRACT: note_on channel=6 note=74 velocity=0 time=0.06413041875
EXTRACT: note_on channel=6 note=62 velocity=0 time=0.0032608687499999997
EXTRACT: note_on channel=2 note=50 velocity=57 time=0.057608681249999995
EXTRACT: note_on channel=6 note=72 velocity=122 time=0
EXTRACT: note_on channel=6 note=60 velocity=122 time=0
EXTRACT: note_on channel=2 note=50 velocity=0 time=0.00108695625
EXTRACT: note_on channel=2 note=57 velocity=57 time=0.00108695625
EXTRACT: note_on channel=1 note=29 velocity=116 time=0.0021739125
EXTRACT: note_on channel=4 note=50 velocity=93 time=0
EXTRACT: note_on channel=5 note=50 velocity=109 time=0
EXTRACT: note_on channel=5 note=38 velocity=122 time=0
EXTRACT: note_on channel=9 note=42 velocity=55 time=0
EXTRACT: note_on channel=9 note=35 velocity=127 time=0
EXTRACT: note_on channel=13 note=29 velocity=116 time=0
EXTRACT: note_on channel=2 note=57 velocity=0 time=0.007608693749999999
EXTRACT: note_on channel=9 note=42 velocity=0 time=0.0347826
EXTRACT: note_on channel=9 note=35 velocity=0 time=0.019565212499999998
EXTRACT: note_on channel=4 note=50 velocity=0 time=0.010869562499999999
EXTRACT: note_on channel=5 note=50 velocity=0 time=0.007608693749999999
EXTRACT: note_on channel=6 note=60 velocity=0 time=0.026086949999999998
EXTRACT: note_on channel=6 note=72 velocity=0 time=0
EXTRACT: note_on channel=13 note=29 velocity=0 time=0.014130431249999999
EXTRACT: note_on channel=1 note=29 velocity=0 time=0
EXTRACT: note_on channel=2 note=50 velocity=57 time=0.006521737499999999
EXTRACT: note_on channel=2 note=57 velocity=57 time=0.0021739125
EXTRACT: note_on channel=6 note=74 velocity=124 time=0
EXTRACT: note_on channel=2 note=50 velocity=0 time=0.0032608687499999997
EXTRACT: note_on channel=5 note=38 velocity=0 time=0
EXTRACT: note_on channel=6 note=62 velocity=124 time=0
EXTRACT: note_on channel=2 note=57 velocity=0 time=0.0021739125
EXTRACT: note_on channel=6 note=74 velocity=0 time=0.0673912875
EXTRACT: note_on channel=6 note=62 velocity=0 time=0.0032608687499999997
EXTRACT: note_on channel=2 note=62 velocity=81 time=0.051086943749999995
EXTRACT: note_on channel=2 note=67 velocity=59 time=0
EXTRACT: note_on channel=15 note=62 velocity=0 time=0.004347825
EXTRACT: note_on channel=8 note=72 velocity=0 time=0
EXTRACT: note_on channel=8 note=74 velocity=0 time=0
EXTRACT: note_on channel=8 note=69 velocity=0 time=0
EXTRACT: note_on channel=15 note=65 velocity=0 time=0
EXTRACT: note_on channel=15 note=69 velocity=0 time=0
EXTRACT: note_on channel=12 note=69 velocity=0 time=0.0369565125
EXTRACT: note_on channel=12 note=72 velocity=0 time=0
EXTRACT: note_on channel=12 note=74 velocity=0 time=0
EXTRACT: note_on channel=2 note=67 velocity=0 time=0.024999993749999998
EXTRACT: note_on channel=2 note=62 velocity=0 time=0.015217387499999999
EXTRACT: note_on channel=8 note=77 velocity=0 time=2.00978210625
EXTRACT: note_on channel=12 note=77 velocity=0 time=0.0369565125
