EXTRACT: sysex data=(126,127,9,1) time=0
EXTRACT: sysex data=(67,16,76,0,0,126,0) time=0
EXTRACT: sysex data=(67,16,76,2,1,32,65,2) time=0
EXTRACT: control_change channel=9 control=0 value=127 time=0
EXTRACT: control_change channel=9 control=32 value=0 time=0
EXTRACT: program_change channel=9 program=8 time=0
EXTRACT: control_change channel=9 control=7 value=95 time=0
EXTRACT: control_change channel=0 control=0 value=0 time=0
EXTRACT: control_change channel=0 control=32 value=0 time=0
EXTRACT: program_change channel=0 program=33 time=0
EXTRACT: control_change channel=0 control=7 value=118 time=0
EXTRACT: control_change channel=2 control=0 value=0 time=0
EXTRACT: control_change channel=2 control=32 value=0 time=0
EXTRACT: program_change channel=2 program=16 time=0
EXTRACT: control_change channel=2 control=7 value=80 time=0
EXTRACT: control_change channel=2 control=10 value=49 time=0
EXTRACT: control_change channel=3 control=0 value=0 time=0
EXTRACT: control_change channel=3 control=32 value=0 time=0
EXTRACT: program_change channel=3 program=81 time=0
EXTRACT: control_change channel=3 control=7 value=85 time=0
EXTRACT: control_change channel=5 control=0 value=0 time=0
EXTRACT: control_change channel=5 control=32 value=0 time=0
EXTRACT: program_change channel=5 program=81 time=0
EXTRACT: control_change channel=5 control=7 value=85 time=0
EXTRACT: control_change channel=5 control=10 value=52 time=0
EXTRACT: control_change channel=6 control=0 value=0 time=0
EXTRACT: control_change channel=6 control=32 value=0 time=0
EXTRACT: program_change channel=6 program=95 time=0
EXTRACT: control_change channel=6 control=7 value=78 time=0
EXTRACT: control_change channel=7 control=0 value=0 time=0
EXTRACT: control_change channel=7 control=32 value=0 time=0
EXTRACT: program_change channel=7 program=118 time=0
EXTRACT: control_change channel=7 control=7 value=106 time=0
EXTRACT: control_change channel=10 control=0 value=0 time=0
EXTRACT: control_change channel=10 control=32 value=0 time=0
EXTRACT: program_change channel=10 program=119 time=0
EXTRACT: control_change channel=10 control=7 value=102 time=0
EXTRACT: control_change channel=0 control=91 value=13 time=0.26044078125
EXTRACT: control_change channel=0 control=93 value=45 time=0.0014468932291666666
EXTRACT: sysex data=(67,16,76,8,1,13,72) time=0
EXTRACT: control_change channel=1 control=0 value=0 time=0.0043406796875
EXTRACT: control_change channel=1 control=32 value=0 time=0
EXTRACT: program_change channel=1 program=38 time=0
EXTRACT: control_change channel=1 control=7 value=95 time=0.0028937864583333333
EXTRACT: control_change channel=1 control=10 value=49 time=0.0014468932291666666
EXTRACT: control_change channel=1 control=91 value=35 time=0.0014468932291666666
EXTRACT: control_change channel=1 control=93 value=31 time=0.0014468932291666666
EXTRACT: control_change channel=1 control=74 value=0 time=0.0014468932291666666
EXTRACT: control_change channel=2 control=91 value=52 time=0.011575145833333333
EXTRACT: control_change channel=2 control=93 value=55 time=0.0014468932291666666
EXTRACT: control_change channel=3 control=91 value=122 time=0.010128252604166667
EXTRACT: control_change channel=3 control=93 value=100 time=0.0014468932291666666
EXTRACT: sysex data=(67,16,76,8,4,12,67) time=0
EXTRACT: sysex data=(67,16,76,8,4,13,81) time=0
EXTRACT: control_change channel=4 control=0 value=0 time=0.0057875729166666666
EXTRACT: control_change channel=4 control=32 value=0 time=0
EXTRACT: program_change channel=4 program=2 time=0
EXTRACT: control_change channel=4 control=7 value=93 time=0.0028937864583333333
EXTRACT: control_change channel=4 control=10 value=76 time=0.0014468932291666666
EXTRACT: control_change channel=4 control=91 value=69 time=0.0014468932291666666
EXTRACT: control_change channel=4 control=93 value=44 time=0.0014468932291666666
EXTRACT: control_change channel=5 control=91 value=52 time=0.011575145833333333
EXTRACT: control_change channel=5 control=93 value=69 time=0.0014468932291666666
EXTRACT: control_change channel=6 control=91 value=56 time=0.010128252604166667
EXTRACT: control_change channel=6 control=93 value=85 time=0.0014468932291666666
EXTRACT: control_change channel=7 control=91 value=52 time=0.010128252604166667
EXTRACT: control_change channel=7 control=93 value=97 time=0.0014468932291666666
EXTRACT: control_change channel=7 control=74 value=54 time=0.0014468932291666666
EXTRACT: sysex data=(67,16,76,8,8,12,71) time=0
EXTRACT: control_change channel=8 control=0 value=0 time=0.0043406796875
EXTRACT: control_change channel=8 control=32 value=0 time=0
EXTRACT: program_change channel=8 program=50 time=0
EXTRACT: control_change channel=8 control=7 value=69 time=0.0028937864583333333
EXTRACT: control_change channel=8 control=10 value=73 time=0.0014468932291666666
EXTRACT: control_change channel=8 control=91 value=99 time=0.0014468932291666666
EXTRACT: control_change channel=8 control=93 value=120 time=0.0014468932291666666
EXTRACT: control_change channel=9 control=91 value=80 time=0.010128252604166667
EXTRACT: control_change channel=9 control=93 value=99 time=0.0014468932291666666
EXTRACT: control_change channel=9 control=71 value=62 time=0.0014468932291666666
EXTRACT: control_change channel=9 control=74 value=100 time=0.0014468932291666666
EXTRACT: control_change channel=10 control=91 value=52 time=0.010128252604166667
