EXTRACT: sysex data=(65,16,66,18,64,0,127,0,65) time=0
EXTRACT: note_off channel=0 note=82 velocity=0 time=0
EXTRACT: note_off channel=0 note=84 velocity=0 time=0.0009300520833333332
EXTRACT: note_off channel=0 note=80 velocity=0 time=0.0009300520833333332
EXTRACT: note_off channel=0 note=68 velocity=0 time=0.0009300520833333332
EXTRACT: note_off channel=0 note=82 velocity=0 time=0.0009300520833333332
EXTRACT: note_off channel=0 note=74 velocity=0 time=0.0009300520833333332
EXTRACT: note_off channel=0 note=82 velocity=0 time=0.0009300520833333332
EXTRACT: note_off channel=0 note=77 velocity=0 time=0.0009300520833333332
EXTRACT: note_off channel=0 note=84 velocity=0 time=0.0009300520833333332
EXTRACT: note_off channel=0 note=80 velocity=0 time=0.0009300520833333332
EXTRACT: note_off channel=0 note=62 velocity=0 time=0.0009300520833333332
EXTRACT: note_off channel=0 note=65 velocity=0 time=0.0009300520833333332
EXTRACT: note_off channel=0 note=74 velocity=0 time=0.0009300520833333332
EXTRACT: note_off channel=0 note=68 velocity=0 time=0.0009300520833333332
EXTRACT: note_off channel=0 note=82 velocity=0 time=0.0009300520833333332
EXTRACT: note_off channel=0 note=65 velocity=0 time=0.0009300520833333332
EXTRACT: note_off channel=0 note=82 velocity=0 time=0.27622546875
EXTRACT: note_off channel=0 note=84 velocity=0 time=0.044642499999999995
EXTRACT: note_off channel=0 note=80 velocity=0 time=0.09021505208333332
EXTRACT: note_off channel=0 note=68 velocity=0 time=0.04092229166666666
EXTRACT: note_off channel=0 note=82 velocity=0 time=0.06510364583333332
EXTRACT: note_off channel=0 note=74 velocity=0 time=0.2297228645833333
EXTRACT: note_off channel=0 note=77 velocity=0 time=0.07812437499999998
EXTRACT: note_off channel=0 note=82 velocity=0 time=0.021391197916666663
EXTRACT: note_off channel=0 note=84 velocity=0 time=0.13671765624999999
EXTRACT: note_off channel=0 note=80 velocity=0 time=0.059523333333333324
EXTRACT: note_off channel=0 note=62 velocity=0 time=0.1878705208333333
EXTRACT: note_off channel=0 note=65 velocity=0 time=0.033481874999999994
EXTRACT: note_off channel=0 note=74 velocity=0 time=0.08556479166666665
EXTRACT: sysex data=(126,127,9,1) time=0.06510364583333332
EXTRACT: sysex data=(65,16,66,18,64,0,127,0,65) time=0.04278239583333333
EXTRACT: note_off channel=0 note=68 velocity=0 time=0.013020729166666665
EXTRACT: sysex data=(65,16,66,18,64,1,51,80,60) time=0.06882385416666666
EXTRACT: note_off channel=0 note=82 velocity=0 time=0.022321249999999997
EXTRACT: sysex data=(65,16,66,18,64,1,52,80,59) time=0.06882385416666666
EXTRACT: note_off channel=0 note=65 velocity=0 time=0.031621770833333326
EXTRACT: control_change channel=1 control=121 value=0 time=0.13578760416666666
EXTRACT: control_change channel=3 control=121 value=0 time=0.03720208333333333
EXTRACT: control_change channel=9 control=121 value=0 time=0.02604145833333333
EXTRACT: control_change channel=9 control=7 value=118 time=0.0037202083333333327
EXTRACT: control_change channel=9 control=11 value=127 time=0.0037202083333333327
EXTRACT: control_change channel=9 control=91 value=80 time=0.0018601041666666664
EXTRACT: control_change channel=9 control=93 value=0 time=0.0018601041666666664
EXTRACT: pitchwheel channel=9 pitch=0 time=0.0018601041666666664
EXTRACT: control_change channel=1 control=7 value=100 time=0.016740937499999997
EXTRACT: control_change channel=1 control=10 value=64 time=0.0018601041666666664
EXTRACT: control_change channel=1 control=11 value=127 time=0.0018601041666666664
EXTRACT: control_change channel=1 control=91 value=0 time=0.0018601041666666664
EXTRACT: control_change channel=1 control=93 value=40 time=0.0018601041666666664
EXTRACT: pitchwheel channel=1 pitch=0 time=0.0018601041666666664
EXTRACT: control_change channel=4 control=121 value=0 time=0.005580312499999999
EXTRACT: control_change channel=3 control=7 value=100 time=0.022321249999999997
EXTRACT: control_change channel=3 control=10 value=64 time=0.0018601041666666664
EXTRACT: control_change channel=3 control=11 value=127 time=0.0018601041666666664
EXTRACT: control_change channel=3 control=91 value=80 time=0.0018601041666666664
EXTRACT: control_change channel=3 control=93 value=40 time=0.0018601041666666664
EXTRACT: pitchwheel channel=3 pitch=0 time=0.0018601041666666664
EXTRACT: program_change channel=9 program=0 time=0.027901562499999994
EXTRACT: control_change channel=2 control=121 value=0 time=0.011160624999999999
EXTRACT: control_change channel=4 control=7 value=100 time=0.022321249999999997
EXTRACT: control_change channel=4 control=10 value=46 time=0.0018601041666666664
EXTRACT: control_change channel=4 control=11 value=127 time=0.0018601041666666664
EXTRACT: control_change channel=4 control=91 value=40 time=0.0018601041666666664
EXTRACT: control_change channel=4 control=93 value=40 time=0.0018601041666666664
EXTRACT: pitchwheel channel=4 pitch=0 time=0.0018601041666666664
EXTRACT: control_change channel=2 control=7 value=86 time=0.06138343749999999
EXTRACT: control_change channel=2 control=10 value=88 time=0.0018601041666666664
EXTRACT: control_change channel=2 control=11 value=127 time=0.0018601041666666664
EXTRACT: control_change channel=2 control=91 value=91 time=0.0018601041666666664
EXTRACT: control_change channel=2 control=93 value=67 time=0.0018601041666666664
EXTRACT: pitchwheel channel=2 pitch=0 time=0.0018601041666666664
EXTRACT: control_change channel=1 control=0 value=0 time=0.0074404166666666655
EXTRACT: control_change channel=1 control=32 value=0 time=0
EXTRACT: program_change channel=1 program=33 time=0
EXTRACT: control_change channel=3 control=0 value=0 time=0.031621770833333326
EXTRACT: control_change channel=3 control=32 value=0 time=0
EXTRACT: program_change channel=3 program=65 time=0
EXTRACT: control_change channel=4 control=0 value=0 time=0.07068395833333332
EXTRACT: control_change channel=4 control=32 value=0 time=0
EXTRACT: program_change channel=4 program=0 time=0
EXTRACT: control_change channel=2 control=0 value=0 time=0.07068395833333332
EXTRACT: control_change channel=2 control=32 value=0 time=0
EXTRACT: program_change channel=2 program=27 time=0
EXTRACT: note_on channel=9 note=42 velocity=44 time=1.298352708333333
EXTRACT: note_off channel=9 note=42 velocity=0 time=0.0074404166666666655
EXTRACT: note_on channel=4 note=58 velocity=98 time=0.14880833333333332
EXTRACT: note_on channel=4 note=63 velocity=97 time=0.0018601041666666664
EXTRACT: note_on channel=4 note=55 velocity=96 time=0.0018601041666666664
EXTRACT: note_on channel=2 note=63 velocity=97 time=0.0037202083333333327
EXTRACT: note_on channel=2 note=58 velocity=103 time=0.009300520833333333
EXTRACT: note_on channel=1 note=39 velocity=112 time=0.005580312499999999
EXTRACT: note_on channel=2 note=55 velocity=100 time=0.0018601041666666664
EXTRACT: note_on channel=2 note=51 velocity=97 time=0.0074404166666666655
EXTRACT: note_on channel=2 note=46 velocity=78 time=0.0074404166666666655
EXTRACT: note_on channel=9 note=40 velocity=99 time=0.013020729166666665
EXTRACT: note_off channel=9 note=40 velocity=0 time=0.0074404166666666655
EXTRACT: note_on channel=9 note=42 velocity=44 time=0.14136791666666665
EXTRACT: note_off channel=9 note=42 velocity=0 time=0.0074404166666666655
EXTRACT: note_off channel=4 note=55 velocity=0 time=0.22507260416666663
EXTRACT: note_off channel=4 note=58 velocity=0 time=0.013020729166666665
EXTRACT: note_off channel=4 note=63 velocity=0 time=0.029761666666666662
EXTRACT: note_on channel=4 note=64 velocity=95 time=0.05394302083333333
EXTRACT: note_off channel=2 note=46 velocity=0 time=0.0018601041666666664
EXTRACT: note_on channel=4 note=56 velocity=93 time=0
EXTRACT: note_on channel=4 note=59 velocity=95 time=0.0018601041666666664
EXTRACT: note_off channel=2 note=63 velocity=0 time=0.0037202083333333327
EXTRACT: note_off channel=2 note=51 velocity=0 time=0.0018601041666666664
EXTRACT: note_on channel=2 note=47 velocity=78 time=0.0018601041666666664
EXTRACT: note_off channel=2 note=58 velocity=0 time=0.005580312499999999
EXTRACT: note_off channel=1 note=39 velocity=0 time=0.005580312499999999
EXTRACT: note_on channel=2 note=52 velocity=99 time=0
EXTRACT: note_off channel=2 note=55 velocity=0 time=0.0018601041666666664
EXTRACT: note_on channel=1 note=40 velocity=112 time=0.0037202083333333327
EXTRACT: note_on channel=9 note=40 velocity=105 time=0
EXTRACT: note_on channel=9 note=42 velocity=53 time=0
EXTRACT: note_on channel=2 note=56 velocity=99 time=0.0037202083333333327
EXTRACT: note_off channel=9 note=42 velocity=0 time=0.0037202083333333327
EXTRACT: note_off channel=9 note=40 velocity=0 time=0
EXTRACT: note_on channel=2 note=59 velocity=99 time=0.0018601041666666664
EXTRACT: note_on channel=2 note=64 velocity=99 time=0.0074404166666666655
EXTRACT: note_on channel=9 note=42 velocity=44 time=0.34039906249999996
EXTRACT: note_off channel=9 note=42 velocity=0 time=0.0074404166666666655
EXTRACT: note_on channel=9 note=42 velocity=52 time=0.3496995833333333
EXTRACT: note_off channel=9 note=42 velocity=0 time=0.0074404166666666655
EXTRACT: note_on channel=9 note=40 velocity=99 time=0.20089124999999997
EXTRACT: note_off channel=9 note=40 velocity=0 time=0.0074404166666666655
EXTRACT: note_on channel=9 note=42 velocity=51 time=0.14136791666666665
EXTRACT: note_off channel=9 note=42 velocity=0 time=0.0074404166666666655
EXTRACT: note_on channel=9 note=40 velocity=105 time=0.3496995833333333
EXTRACT: note_on channel=9 note=42 velocity=53 time=0
EXTRACT: note_off channel=9 note=42 velocity=0 time=0.0074404166666666655
EXTRACT: note_off channel=9 note=40 velocity=0 time=0
EXTRACT: note_on channel=9 note=42 velocity=44 time=0.3496995833333333
EXTRACT: note_off channel=9 note=42 velocity=0 time=0.0074404166666666655
EXTRACT: note_on channel=9 note=42 velocity=52 time=0.3496995833333333
EXTRACT: note_off channel=9 note=42 velocity=0 time=0.0074404166666666655
EXTRACT: note_off channel=4 note=64 velocity=0 time=0.022321249999999997
EXTRACT: note_off channel=4 note=56 velocity=0 time=0.005580312499999999
EXTRACT: note_off channel=4 note=59 velocity=0 time=0.013020729166666665
EXTRACT: note_off channel=1 note=40 velocity=0 time=0.03534197916666666
EXTRACT: note_off channel=2 note=47 velocity=0 time=0.033481874999999994
EXTRACT: note_off channel=2 note=52 velocity=0 time=0.011160624999999999
EXTRACT: note_off channel=2 note=56 velocity=0 time=0.009300520833333333
EXTRACT: note_off channel=2 note=59 velocity=0 time=0.005580312499999999
EXTRACT: note_off channel=2 note=64 velocity=0 time=0.0074404166666666655
EXTRACT: note_on channel=2 note=63 velocity=97 time=0.013020729166666665
EXTRACT: note_on channel=2 note=58 velocity=103 time=0.009300520833333333
EXTRACT: note_on channel=1 note=39 velocity=112 time=0.005580312499999999
EXTRACT: note_on channel=2 note=55 velocity=100 time=0.0018601041666666664
EXTRACT: note_on channel=2 note=51 velocity=97 time=0.0074404166666666655
EXTRACT: note_on channel=2 note=46 velocity=78 time=0.0074404166666666655
EXTRACT: note_on channel=9 note=40 velocity=99 time=0.013020729166666665
EXTRACT: note_off channel=9 note=40 velocity=0 time=0.0074404166666666655
EXTRACT: note_on channel=4 note=58 velocity=95 time=0.014880833333333331
EXTRACT: note_on channel=4 note=63 velocity=95 time=0.0037202083333333327
EXTRACT: note_on channel=4 note=55 velocity=93 time=0.0018601041666666664
EXTRACT: note_on channel=9 note=42 velocity=51 time=0.12090677083333332
EXTRACT: note_off channel=9 note=42 velocity=0 time=0.0074404166666666655
EXTRACT: note_off channel=4 note=55 velocity=0 time=0.21391197916666663
EXTRACT: note_off channel=4 note=58 velocity=0 time=0.03534197916666666
EXTRACT: note_off channel=4 note=63 velocity=0 time=0.011160624999999999
EXTRACT: note_off channel=2 note=46 velocity=0 time=0.06324354166666665
EXTRACT: note_off channel=2 note=63 velocity=0 time=0.005580312499999999
EXTRACT: note_on channel=4 note=56 velocity=93 time=0
EXTRACT: note_off channel=2 note=51 velocity=0 time=0.0018601041666666664
EXTRACT: note_on channel=2 note=47 velocity=78 time=0.0018601041666666664
EXTRACT: note_on channel=4 note=64 velocity=97 time=0.0018601041666666664
EXTRACT: note_on channel=4 note=59 velocity=97 time=0.0018601041666666664
EXTRACT: note_off channel=2 note=58 velocity=0 time=0.0018601041666666664
EXTRACT: note_off channel=1 note=39 velocity=0 time=0.005580312499999999
EXTRACT: note_on channel=2 note=52 velocity=99 time=0
EXTRACT: note_off channel=2 note=55 velocity=0 time=0.0018601041666666664
EXTRACT: note_on channel=1 note=40 velocity=112 time=0.0037202083333333327
EXTRACT: note_on channel=9 note=40 velocity=105 time=0
EXTRACT: note_on channel=9 note=42 velocity=53 time=0
EXTRACT: note_on channel=2 note=56 velocity=99 time=0.0037202083333333327
EXTRACT: note_off channel=9 note=42 velocity=0 time=0.0037202083333333327
EXTRACT: note_off channel=9 note=40 velocity=0 time=0
EXTRACT: note_on channel=2 note=59 velocity=99 time=0.0018601041666666664
EXTRACT: note_on channel=2 note=64 velocity=99 time=0.0074404166666666655
EXTRACT: note_on channel=9 note=42 velocity=44 time=0.34039906249999996
EXTRACT: note_off channel=9 note=42 velocity=0 time=0.0074404166666666655
EXTRACT: note_on channel=9 note=42 velocity=52 time=0.3496995833333333
EXTRACT: note_off channel=9 note=42 velocity=0 time=0.0074404166666666655
EXTRACT: note_on channel=9 note=40 velocity=99 time=0.20089124999999997
EXTRACT: note_off channel=9 note=40 velocity=0 time=0.0074404166666666655
EXTRACT: note_on channel=9 note=42 velocity=51 time=0.14136791666666665
EXTRACT: note_off channel=9 note=42 velocity=0 time=0.0074404166666666655
EXTRACT: note_on channel=9 note=42 velocity=53 time=0.3496995833333333
EXTRACT: note_on channel=9 note=40 velocity=105 time=0
EXTRACT: note_off channel=9 note=40 velocity=0 time=0.0074404166666666655
EXTRACT: note_off channel=9 note=42 velocity=0 time=0
EXTRACT: note_on channel=9 note=42 velocity=44 time=0.3496995833333333
EXTRACT: note_off channel=9 note=42 velocity=0 time=0.0074404166666666655
EXTRACT: note_off channel=4 note=64 velocity=0 time=0.3459793749999999
EXTRACT: note_on channel=9 note=42 velocity=52 time=0.0037202083333333327
EXTRACT: note_off channel=9 note=42 velocity=0 time=0.0074404166666666655
EXTRACT: note_off channel=4 note=59 velocity=0 time=0.013020729166666665
EXTRACT: note_off channel=4 note=56 velocity=0 time=0.0074404166666666655
EXTRACT: note_off channel=1 note=40 velocity=0 time=0.05580312499999999
EXTRACT: note_off channel=2 note=47 velocity=0 time=0.033481874999999994
EXTRACT: note_off channel=2 note=52 velocity=0 time=0.011160624999999999
EXTRACT: note_off channel=2 note=56 velocity=0 time=0.009300520833333333
EXTRACT: note_off channel=2 note=59 velocity=0 time=0.005580312499999999
EXTRACT: note_off channel=2 note=64 velocity=0 time=0.0074404166666666655
EXTRACT: note_on channel=2 note=63 velocity=97 time=0.013020729166666665
EXTRACT: note_on channel=2 note=58 velocity=103 time=0.009300520833333333
EXTRACT: note_on channel=1 note=39 velocity=112 time=0.005580312499999999
EXTRACT: note_on channel=2 note=55 velocity=100 time=0.0018601041666666664
EXTRACT: note_on channel=2 note=51 velocity=97 time=0.0074404166666666655
EXTRACT: note_on channel=4 note=58 velocity=96 time=0
EXTRACT: note_on channel=4 note=63 velocity=95 time=0.005580312499999999
EXTRACT: note_on channel=4 note=55 velocity=92 time=0
EXTRACT: note_on channel=2 note=46 velocity=78 time=0.0018601041666666664
EXTRACT: note_on channel=9 note=40 velocity=99 time=0.013020729166666665
EXTRACT: note_off channel=9 note=40 velocity=0 time=0.0074404166666666655
EXTRACT: note_on channel=9 note=42 velocity=51 time=0.14136791666666665
EXTRACT: note_off channel=9 note=42 velocity=0 time=0.0074404166666666655
EXTRACT: note_off channel=4 note=55 velocity=0 time=0.23065291666666662
EXTRACT: note_off channel=4 note=58 velocity=0 time=0.02046114583333333
EXTRACT: note_off channel=4 note=63 velocity=0 time=0.014880833333333331
EXTRACT: note_off channel=2 note=46 velocity=0 time=0.057663229166666656
EXTRACT: note_off channel=2 note=63 velocity=0 time=0.005580312499999999
EXTRACT: note_off channel=2 note=51 velocity=0 time=0.0018601041666666664
EXTRACT: note_on channel=2 note=47 velocity=78 time=0.0018601041666666664
EXTRACT: note_off channel=2 note=58 velocity=0 time=0.005580312499999999
EXTRACT: note_on channel=4 note=56 velocity=93 time=0.0037202083333333327
EXTRACT: note_off channel=1 note=39 velocity=0 time=0.0018601041666666664
EXTRACT: note_on channel=2 note=52 velocity=99 time=0
EXTRACT: note_off channel=2 note=55 velocity=0 time=0.0018601041666666664
EXTRACT: note_on channel=4 note=64 velocity=96 time=0.0018601041666666664
EXTRACT: note_on channel=1 note=40 velocity=112 time=0.0018601041666666664
EXTRACT: note_on channel=3 note=67 velocity=113 time=0
EXTRACT: note_on channel=4 note=59 velocity=96 time=0
EXTRACT: note_on channel=9 note=40 velocity=105 time=0
EXTRACT: note_on channel=9 note=42 velocity=53 time=0
EXTRACT: note_on channel=2 note=56 velocity=99 time=0.0037202083333333327
EXTRACT: note_off channel=9 note=42 velocity=0 time=0.0037202083333333327
EXTRACT: note_off channel=9 note=40 velocity=0 time=0
EXTRACT: note_on channel=2 note=59 velocity=99 time=0.0018601041666666664
EXTRACT: note_on channel=2 note=64 velocity=99 time=0.0074404166666666655
EXTRACT: note_off channel=3 note=67 velocity=0 time=0.2157720833333333
EXTRACT: note_on channel=3 note=67 velocity=111 time=0.12462697916666665
EXTRACT: note_on channel=9 note=42 velocity=44 time=0
EXTRACT: note_off channel=9 note=42 velocity=0 time=0.0074404166666666655
EXTRACT: note_off channel=3 note=67 velocity=0 time=0.22507260416666663
EXTRACT: note_on channel=3 note=67 velocity=113 time=0.12462697916666665
EXTRACT: note_on channel=9 note=42 velocity=52 time=0
EXTRACT: note_off channel=9 note=42 velocity=0 time=0.0074404166666666655
EXTRACT: note_on channel=9 note=40 velocity=99 time=0.20089124999999997
EXTRACT: note_off channel=9 note=40 velocity=0 time=0.0074404166666666655
EXTRACT: note_off channel=3 note=67 velocity=0 time=0.016740937499999997
EXTRACT: note_on channel=3 note=67 velocity=112 time=0.005580312499999999
EXTRACT: note_off channel=3 note=67 velocity=0 time=0.11346635416666664
EXTRACT: note_on channel=3 note=64 velocity=109 time=0.005580312499999999
EXTRACT: note_on channel=9 note=42 velocity=51 time=0
EXTRACT: note_off channel=9 note=42 velocity=0 time=0.0074404166666666655
EXTRACT: note_off channel=3 note=64 velocity=0 time=0.22507260416666663
EXTRACT: note_on channel=3 note=62 velocity=100 time=0.005580312499999999
EXTRACT: note_off channel=3 note=62 velocity=0 time=0.11346635416666664
EXTRACT: note_on channel=3 note=64 velocity=109 time=0.005580312499999999
EXTRACT: note_on channel=9 note=42 velocity=53 time=0
EXTRACT: note_on channel=9 note=40 velocity=105 time=0
EXTRACT: note_off channel=9 note=40 velocity=0 time=0.0074404166666666655
EXTRACT: note_off channel=9 note=42 velocity=0 time=0
EXTRACT: note_off channel=3 note=64 velocity=0 time=0.34411927083333327
EXTRACT: note_on channel=3 note=64 velocity=109 time=0.005580312499999999
EXTRACT: note_on channel=9 note=42 velocity=44 time=0
EXTRACT: note_off channel=9 note=42 velocity=0 time=0.0074404166666666655
EXTRACT: note_off channel=3 note=64 velocity=0 time=0.22507260416666663
EXTRACT: note_on channel=3 note=59 velocity=104 time=0.005580312499999999
EXTRACT: note_on channel=9 note=42 velocity=52 time=0.11904666666666665
EXTRACT: note_off channel=9 note=42 velocity=0 time=0.0074404166666666655
EXTRACT: note_off channel=4 note=56 velocity=0 time=0.0074404166666666655
EXTRACT: note_off channel=4 note=64 velocity=0 time=0.0037202083333333327
EXTRACT: note_off channel=4 note=59 velocity=0 time=0.03534197916666666
EXTRACT: note_off channel=1 note=40 velocity=0 time=0.029761666666666662
EXTRACT: note_off channel=2 note=47 velocity=0 time=0.033481874999999994
EXTRACT: note_off channel=2 note=52 velocity=0 time=0.011160624999999999
EXTRACT: note_off channel=2 note=56 velocity=0 time=0.009300520833333333
EXTRACT: note_off channel=2 note=59 velocity=0 time=0.005580312499999999
EXTRACT: note_off channel=2 note=64 velocity=0 time=0.0074404166666666655
EXTRACT: note_on channel=2 note=63 velocity=97 time=0.013020729166666665
EXTRACT: note_on channel=2 note=58 velocity=103 time=0.009300520833333333
EXTRACT: note_on channel=1 note=39 velocity=112 time=0.005580312499999999
EXTRACT: note_on channel=2 note=55 velocity=100 time=0.0018601041666666664
EXTRACT: note_on channel=2 note=51 velocity=97 time=0.0074404166666666655
EXTRACT: note_on channel=2 note=46 velocity=78 time=0.0074404166666666655
EXTRACT: note_off channel=3 note=59 velocity=0 time=0.013020729166666665
EXTRACT: note_on channel=9 note=40 velocity=99 time=0
EXTRACT: note_on channel=4 note=58 velocity=95 time=0.005580312499999999
EXTRACT: note_on channel=4 note=63 velocity=95 time=0.0018601041666666664
EXTRACT: note_off channel=9 note=40 velocity=0 time=0
EXTRACT: note_on channel=4 note=55 velocity=93 time=0.0018601041666666664
EXTRACT: note_on channel=9 note=42 velocity=51 time=0.13950781249999997
EXTRACT: note_off channel=9 note=42 velocity=0 time=0.0074404166666666655
EXTRACT: note_on channel=3 note=59 velocity=96 time=0.19531093749999998
EXTRACT: note_off channel=4 note=55 velocity=0 time=0.05022281249999999
EXTRACT: note_off channel=4 note=58 velocity=0 time=0.04092229166666666
EXTRACT: note_off channel=4 note=63 velocity=0 time=0.0018601041666666664
EXTRACT: note_off channel=3 note=59 velocity=0 time=0.0074404166666666655
EXTRACT: note_off channel=2 note=46 velocity=0 time=0.027901562499999994
EXTRACT: note_off channel=2 note=63 velocity=0 time=0.005580312499999999
EXTRACT: note_off channel=2 note=51 velocity=0 time=0.0018601041666666664
EXTRACT: note_on channel=3 note=67 velocity=110 time=0
EXTRACT: note_on channel=2 note=47 velocity=78 time=0.0018601041666666664
EXTRACT: note_off channel=2 note=58 velocity=0 time=0.005580312499999999
EXTRACT: note_off channel=1 note=39 velocity=0 time=0.005580312499999999
EXTRACT: note_on channel=2 note=52 velocity=99 time=0
EXTRACT: note_off channel=2 note=55 velocity=0 time=0.0018601041666666664
EXTRACT: note_on channel=1 note=40 velocity=112 time=0.0037202083333333327
EXTRACT: note_on channel=9 note=40 velocity=105 time=0
EXTRACT: note_on channel=9 note=42 velocity=53 time=0
EXTRACT: note_on channel=2 note=56 velocity=99 time=0.0037202083333333327
EXTRACT: note_off channel=9 note=42 velocity=0 time=0.0037202083333333327
EXTRACT: note_off channel=9 note=40 velocity=0 time=0
EXTRACT: note_on channel=2 note=59 velocity=99 time=0.0018601041666666664
EXTRACT: note_on channel=2 note=64 velocity=99 time=0.0074404166666666655
EXTRACT: note_on channel=4 note=56 velocity=93 time=0
EXTRACT: note_on channel=4 note=64 velocity=96 time=0.0018601041666666664
EXTRACT: note_on channel=4 note=59 velocity=98 time=0.0037202083333333327
EXTRACT: note_off channel=3 note=67 velocity=0 time=0.10602593749999999
EXTRACT: note_on channel=3 note=67 velocity=109 time=0.06138343749999999
EXTRACT: note_off channel=3 note=67 velocity=0 time=0.09858552083333331
EXTRACT: note_on channel=3 note=67 velocity=111 time=0.06510364583333332
EXTRACT: note_on channel=9 note=42 velocity=44 time=0.0037202083333333327
EXTRACT: note_off channel=9 note=42 velocity=0 time=0.0074404166666666655
EXTRACT: note_off channel=3 note=67 velocity=0 time=0.13392749999999998
EXTRACT: note_on channel=3 note=67 velocity=108 time=0.059523333333333324
EXTRACT: note_off channel=3 note=67 velocity=0 time=0.09486531249999998
EXTRACT: note_on channel=3 note=67 velocity=109 time=0.05580312499999999
EXTRACT: note_on channel=9 note=42 velocity=52 time=0.005580312499999999
EXTRACT: note_off channel=9 note=42 velocity=0 time=0.0074404166666666655
EXTRACT: note_off channel=3 note=67 velocity=0 time=0.11904666666666665
EXTRACT: note_on channel=3 note=67 velocity=108 time=0.05580312499999999
EXTRACT: note_on channel=9 note=40 velocity=99 time=0.02604145833333333
EXTRACT: note_off channel=9 note=40 velocity=0 time=0.0074404166666666655
EXTRACT: note_off channel=3 note=67 velocity=0 time=0.07998447916666665
EXTRACT: note_on channel=3 note=64 velocity=109 time=0.04278239583333333
EXTRACT: note_on channel=9 note=42 velocity=51 time=0.018601041666666665
EXTRACT: note_off channel=9 note=42 velocity=0 time=0.0074404166666666655
EXTRACT: note_off channel=3 note=64 velocity=0 time=0.17484979166666664
EXTRACT: note_on channel=3 note=62 velocity=104 time=0.031621770833333326
EXTRACT: note_off channel=3 note=62 velocity=0 time=0.08742489583333332
EXTRACT: note_on channel=9 note=40 velocity=105 time=0.05580312499999999
EXTRACT: note_on channel=9 note=42 velocity=53 time=0
EXTRACT: note_on channel=3 note=64 velocity=107 time=0.0018601041666666664
EXTRACT: note_off channel=9 note=42 velocity=0 time=0.005580312499999999
EXTRACT: note_off channel=9 note=40 velocity=0 time=0
EXTRACT: note_off channel=3 note=64 velocity=0 time=0.23065291666666662
EXTRACT: note_on channel=3 note=64 velocity=107 time=0.08928499999999999
EXTRACT: note_on channel=9 note=42 velocity=44 time=0.029761666666666662
EXTRACT: note_off channel=9 note=42 velocity=0 time=0.0074404166666666655
EXTRACT: note_off channel=3 note=64 velocity=0 time=0.1432280208333333
EXTRACT: note_on channel=3 note=59 velocity=106 time=0.031621770833333326
EXTRACT: note_off channel=4 note=64 velocity=0 time=0.08184458333333332
EXTRACT: note_off channel=4 note=56 velocity=0 time=0.0018601041666666664
EXTRACT: note_off channel=4 note=59 velocity=0 time=0.03534197916666666
EXTRACT: note_on channel=9 note=42 velocity=52 time=0.05580312499999999
EXTRACT: note_off channel=9 note=42 velocity=0 time=0.0074404166666666655
EXTRACT: note_off channel=1 note=40 velocity=0 time=0.07626427083333333
EXTRACT: note_off channel=2 note=47 velocity=0 time=0.033481874999999994
EXTRACT: note_off channel=2 note=52 velocity=0 time=0.011160624999999999
EXTRACT: note_off channel=2 note=56 velocity=0 time=0.009300520833333333
EXTRACT: note_off channel=2 note=59 velocity=0 time=0.005580312499999999
EXTRACT: note_off channel=2 note=64 velocity=0 time=0.0074404166666666655
EXTRACT: note_on channel=2 note=63 velocity=97 time=0.013020729166666665
EXTRACT: note_on channel=2 note=58 velocity=103 time=0.009300520833333333
EXTRACT: note_off channel=3 note=59 velocity=0 time=0
EXTRACT: note_on channel=1 note=39 velocity=112 time=0.005580312499999999
EXTRACT: note_on channel=2 note=55 velocity=100 time=0.0018601041666666664
EXTRACT: note_on channel=4 note=63 velocity=95 time=0.0037202083333333327
EXTRACT: note_on channel=4 note=58 velocity=95 time=0
EXTRACT: note_on channel=4 note=55 velocity=94 time=0.0018601041666666664
EXTRACT: note_on channel=2 note=51 velocity=97 time=0.0018601041666666664
EXTRACT: note_on channel=2 note=46 velocity=78 time=0.0074404166666666655
EXTRACT: note_on channel=9 note=40 velocity=99 time=0.013020729166666665
EXTRACT: note_off channel=9 note=40 velocity=0 time=0.0074404166666666655
EXTRACT: note_on channel=9 note=42 velocity=51 time=0.14136791666666665
EXTRACT: note_off channel=9 note=42 velocity=0 time=0.0074404166666666655
EXTRACT: note_on channel=3 note=59 velocity=93 time=0.15810885416666665
EXTRACT: note_off channel=3 note=59 velocity=0 time=0.08370468749999999
EXTRACT: note_off channel=4 note=55 velocity=0 time=0.005580312499999999
EXTRACT: note_off channel=4 note=63 velocity=0 time=0.022321249999999997
EXTRACT: note_off channel=4 note=58 velocity=0 time=0.0074404166666666655
EXTRACT: note_on channel=3 note=67 velocity=110 time=0.014880833333333331
EXTRACT: note_off channel=2 note=46 velocity=0 time=0.031621770833333326
EXTRACT: note_off channel=2 note=63 velocity=0 time=0.005580312499999999
EXTRACT: note_off channel=2 note=51 velocity=0 time=0.0018601041666666664
EXTRACT: note_on channel=2 note=47 velocity=78 time=0.0018601041666666664
EXTRACT: note_off channel=2 note=58 velocity=0 time=0.005580312499999999
EXTRACT: note_on channel=4 note=64 velocity=94 time=0.0037202083333333327
EXTRACT: note_off channel=1 note=39 velocity=0 time=0.0018601041666666664
EXTRACT: note_on channel=2 note=52 velocity=99 time=0
EXTRACT: note_off channel=2 note=55 velocity=0 time=0.0018601041666666664
EXTRACT: note_on channel=1 note=40 velocity=112 time=0.0037202083333333327
EXTRACT: note_on channel=9 note=42 velocity=53 time=0
EXTRACT: note_on channel=9 note=40 velocity=105 time=0
EXTRACT: note_on channel=4 note=56 velocity=93 time=0.0018601041666666664
EXTRACT: note_on channel=2 note=56 velocity=99 time=0.0018601041666666664
EXTRACT: note_on channel=4 note=59 velocity=97 time=0
EXTRACT: note_off channel=9 note=40 velocity=0 time=0.0037202083333333327
EXTRACT: note_off channel=9 note=42 velocity=0 time=0
EXTRACT: note_on channel=2 note=59 velocity=99 time=0.0018601041666666664
EXTRACT: note_on channel=2 note=64 velocity=99 time=0.0074404166666666655
EXTRACT: note_off channel=3 note=67 velocity=0 time=0.09114510416666666
EXTRACT: note_on channel=3 note=67 velocity=110 time=0.07068395833333332
EXTRACT: note_off channel=3 note=67 velocity=0 time=0.09300520833333333
EXTRACT: note_on channel=3 note=67 velocity=109 time=0.06138343749999999
EXTRACT: note_on channel=9 note=42 velocity=44 time=0.024181354166666662
EXTRACT: note_off channel=9 note=42 velocity=0 time=0.0074404166666666655
EXTRACT: note_off channel=3 note=67 velocity=0 time=0.10602593749999999
EXTRACT: note_on channel=3 note=67 velocity=111 time=0.06696374999999999
EXTRACT: note_off channel=3 note=67 velocity=0 time=0.08556479166666665
EXTRACT: note_on channel=3 note=67 velocity=111 time=0.06882385416666666
EXTRACT: note_on channel=9 note=42 velocity=52 time=0.022321249999999997
EXTRACT: note_off channel=9 note=42 velocity=0 time=0.0074404166666666655
EXTRACT: note_off channel=3 note=67 velocity=0 time=0.08928499999999999
EXTRACT: note_on channel=3 note=67 velocity=113 time=0.08184458333333332
EXTRACT: note_on channel=9 note=40 velocity=99 time=0.029761666666666662
EXTRACT: note_off channel=9 note=40 velocity=0 time=0.0074404166666666655
EXTRACT: note_off channel=3 note=67 velocity=0 time=0.11346635416666664
EXTRACT: note_on channel=3 note=64 velocity=109 time=0.005580312499999999
EXTRACT: note_on channel=9 note=42 velocity=51 time=0.022321249999999997
EXTRACT: note_off channel=9 note=42 velocity=0 time=0.0074404166666666655
EXTRACT: note_off channel=3 note=64 velocity=0 time=0.18973062499999996
EXTRACT: note_on channel=3 note=62 velocity=99 time=0.005580312499999999
EXTRACT: note_off channel=3 note=62 velocity=0 time=0.09672541666666665
EXTRACT: note_on channel=3 note=64 velocity=109 time=0.03906218749999999
EXTRACT: note_on channel=9 note=40 velocity=105 time=0.018601041666666665
EXTRACT: note_on channel=9 note=42 velocity=53 time=0
EXTRACT: note_off channel=9 note=42 velocity=0 time=0.0074404166666666655
EXTRACT: note_off channel=9 note=40 velocity=0 time=0
EXTRACT: note_off channel=3 note=64 velocity=0 time=0.21763218749999996
EXTRACT: note_on channel=3 note=64 velocity=113 time=0.08370468749999999
EXTRACT: note_on channel=9 note=42 velocity=44 time=0.048362708333333324
EXTRACT: note_off channel=9 note=42 velocity=0 time=0.0074404166666666655
EXTRACT: note_off channel=3 note=64 velocity=0 time=0.09858552083333331
EXTRACT: note_on channel=3 note=67 velocity=116 time=0.05580312499999999
EXTRACT: note_off channel=4 note=56 velocity=0 time=0.09486531249999998
EXTRACT: note_off channel=4 note=64 velocity=0 time=0.027901562499999994
EXTRACT: note_off channel=4 note=59 velocity=0 time=0.018601041666666665
EXTRACT: note_on channel=9 note=42 velocity=52 time=0.05394302083333333
EXTRACT: note_off channel=9 note=42 velocity=0 time=0.0074404166666666655
EXTRACT: note_off channel=1 note=40 velocity=0 time=0.07626427083333333
EXTRACT: note_off channel=2 note=47 velocity=0 time=0.033481874999999994
EXTRACT: note_off channel=2 note=52 velocity=0 time=0.011160624999999999
EXTRACT: note_off channel=2 note=56 velocity=0 time=0.009300520833333333
EXTRACT: note_off channel=2 note=59 velocity=0 time=0.005580312499999999
EXTRACT: note_off channel=2 note=64 velocity=0 time=0.0074404166666666655
EXTRACT: note_off channel=3 note=67 velocity=0 time=0.0037202083333333327
EXTRACT: note_on channel=2 note=63 velocity=97 time=0.009300520833333333
EXTRACT: note_on channel=4 note=58 velocity=96 time=0.0018601041666666664
EXTRACT: note_on channel=4 note=63 velocity=96 time=0.0037202083333333327
EXTRACT: note_on channel=2 note=58 velocity=103 time=0.0037202083333333327
EXTRACT: note_on channel=4 note=55 velocity=93 time=0
EXTRACT: note_on channel=1 note=39 velocity=112 time=0.005580312499999999
EXTRACT: note_on channel=2 note=55 velocity=100 time=0.0018601041666666664
EXTRACT: note_on channel=2 note=51 velocity=97 time=0.0074404166666666655
EXTRACT: note_on channel=2 note=46 velocity=78 time=0.0074404166666666655
EXTRACT: note_on channel=9 note=40 velocity=99 time=0.013020729166666665
EXTRACT: note_off channel=9 note=40 velocity=0 time=0.0074404166666666655
EXTRACT: note_on channel=9 note=42 velocity=51 time=0.14136791666666665
EXTRACT: note_off channel=9 note=42 velocity=0 time=0.0074404166666666655
EXTRACT: note_on channel=3 note=64 velocity=105 time=0.14694822916666664
EXTRACT: note_off channel=4 note=55 velocity=0 time=0.07440416666666666
EXTRACT: note_off channel=3 note=64 velocity=0 time=0.016740937499999997
EXTRACT: note_off channel=4 note=63 velocity=0 time=0.022321249999999997
EXTRACT: note_off channel=4 note=58 velocity=0 time=0.013020729166666665
EXTRACT: note_on channel=3 note=67 velocity=114 time=0.029761666666666662
EXTRACT: note_off channel=2 note=46 velocity=0 time=0.02046114583333333
EXTRACT: note_off channel=2 note=63 velocity=0 time=0.005580312499999999
EXTRACT: note_off channel=2 note=51 velocity=0 time=0.0018601041666666664
EXTRACT: note_on channel=2 note=47 velocity=78 time=0.0018601041666666664
EXTRACT: note_off channel=2 note=58 velocity=0 time=0.005580312499999999
EXTRACT: note_on channel=4 note=64 velocity=98 time=0.0018601041666666664
EXTRACT: note_on channel=4 note=56 velocity=95 time=0.0018601041666666664
EXTRACT: note_off channel=1 note=39 velocity=0 time=0.0018601041666666664
EXTRACT: note_on channel=2 note=52 velocity=99 time=0
EXTRACT: note_on channel=4 note=59 velocity=99 time=0
EXTRACT: note_off channel=2 note=55 velocity=0 time=0.0018601041666666664
EXTRACT: note_on channel=1 note=40 velocity=112 time=0.0037202083333333327
EXTRACT: note_on channel=9 note=42 velocity=53 time=0
EXTRACT: note_on channel=9 note=40 velocity=105 time=0
EXTRACT: note_on channel=9 note=35 velocity=108 time=0
EXTRACT: note_on channel=2 note=56 velocity=99 time=0.0037202083333333327
EXTRACT: note_off channel=9 note=35 velocity=0 time=0.0037202083333333327
EXTRACT: note_off channel=9 note=40 velocity=0 time=0
EXTRACT: note_off channel=9 note=42 velocity=0 time=0
EXTRACT: note_on channel=2 note=59 velocity=99 time=0.0018601041666666664
EXTRACT: note_on channel=2 note=64 velocity=99 time=0.0074404166666666655
EXTRACT: note_off channel=3 note=67 velocity=0 time=0.09114510416666666
EXTRACT: note_on channel=3 note=67 velocity=109 time=0.05394302083333333
EXTRACT: note_off channel=4 note=56 velocity=0 time=0.08556479166666665
EXTRACT: note_off channel=3 note=67 velocity=0 time=0.0037202083333333327
EXTRACT: note_off channel=4 note=64 velocity=0 time=0.0037202083333333327
EXTRACT: note_off channel=4 note=59 velocity=0 time=0.0037202083333333327
EXTRACT: note_off channel=1 note=40 velocity=0 time=0.0037202083333333327
EXTRACT: note_off channel=2 note=47 velocity=0 time=0.033481874999999994
EXTRACT: note_off channel=2 note=52 velocity=0 time=0.011160624999999999
EXTRACT: note_off channel=2 note=56 velocity=0 time=0.009300520833333333
EXTRACT: note_off channel=2 note=59 velocity=0 time=0.005580312499999999
EXTRACT: note_off channel=2 note=64 velocity=0 time=0.0074404166666666655
EXTRACT: note_on channel=3 note=67 velocity=114 time=0.0074404166666666655
EXTRACT: note_on channel=9 note=42 velocity=44 time=0.02046114583333333
EXTRACT: note_off channel=9 note=42 velocity=0 time=0.0074404166666666655
EXTRACT: note_off channel=3 note=67 velocity=0 time=0.14136791666666665
EXTRACT: note_on channel=3 note=67 velocity=114 time=0.027901562499999994
EXTRACT: note_off channel=3 note=67 velocity=0 time=0.12090677083333332
EXTRACT: note_on channel=3 note=67 velocity=114 time=0.04650260416666666
EXTRACT: note_on channel=9 note=42 velocity=52 time=0.013020729166666665
EXTRACT: note_off channel=9 note=42 velocity=0 time=0.0074404166666666655
EXTRACT: note_off channel=3 note=67 velocity=0 time=0.28087572916666664
EXTRACT: note_on channel=9 note=42 velocity=51 time=0.06882385416666666
EXTRACT: note_off channel=9 note=42 velocity=0 time=0.0074404166666666655
EXTRACT: note_on channel=3 note=67 velocity=113 time=0.0018601041666666664
EXTRACT: note_off channel=3 note=67 velocity=0 time=0.2492539583333333
EXTRACT: note_on channel=9 note=42 velocity=53 time=0.09858552083333331
EXTRACT: note_off channel=9 note=42 velocity=0 time=0.0074404166666666655
EXTRACT: note_on channel=3 note=67 velocity=114 time=0.005580312499999999
EXTRACT: note_off channel=3 note=67 velocity=0 time=0.2492539583333333
EXTRACT: note_on channel=4 note=100 velocity=51 time=0.057663229166666656
EXTRACT: note_on channel=4 note=95 velocity=69 time=0
EXTRACT: note_on channel=4 note=88 velocity=61 time=0.0018601041666666664
EXTRACT: note_on channel=3 note=67 velocity=111 time=0.024181354166666662
EXTRACT: note_on channel=1 note=28 velocity=108 time=0.011160624999999999
EXTRACT: note_on channel=9 note=42 velocity=44 time=0
EXTRACT: note_off channel=9 note=42 velocity=0 time=0.0074404166666666655
EXTRACT: note_off channel=4 note=95 velocity=0 time=0.018601041666666665
EXTRACT: note_off channel=4 note=100 velocity=0 time=0
EXTRACT: note_off channel=4 note=88 velocity=0 time=0.0018601041666666664
EXTRACT: note_on channel=4 note=88 velocity=64 time=0.12276687499999998
EXTRACT: note_on channel=4 note=95 velocity=68 time=0.0037202083333333327
EXTRACT: note_on channel=4 note=100 velocity=64 time=0.005580312499999999
EXTRACT: note_off channel=4 note=88 velocity=0 time=0.07254406249999999
EXTRACT: note_off channel=4 note=100 velocity=0 time=0.005580312499999999
EXTRACT: note_off channel=4 note=95 velocity=0 time=0.0018601041666666664
EXTRACT: note_off channel=3 note=67 velocity=0 time=0.0074404166666666655
EXTRACT: note_on channel=4 note=88 velocity=92 time=0.06510364583333332
EXTRACT: note_on channel=4 note=95 velocity=100 time=0.0037202083333333327
EXTRACT: note_on channel=4 note=100 velocity=100 time=0.0018601041666666664
EXTRACT: note_off channel=1 note=28 velocity=0 time=0.033481874999999994
EXTRACT: note_on channel=3 note=67 velocity=110 time=0
EXTRACT: note_on channel=1 note=30 velocity=103 time=0.005580312499999999
EXTRACT: note_on channel=9 note=42 velocity=52 time=0
EXTRACT: note_off channel=9 note=42 velocity=0 time=0.0074404166666666655
EXTRACT: note_off channel=4 note=88 velocity=0 time=0.06696374999999999
EXTRACT: note_off channel=4 note=100 velocity=0 time=0.0037202083333333327
EXTRACT: note_off channel=4 note=95 velocity=0 time=0.0074404166666666655
EXTRACT: note_off channel=3 note=67 velocity=0 time=0.04092229166666666
EXTRACT: note_on channel=4 note=88 velocity=96 time=0.05022281249999999
EXTRACT: note_on channel=4 note=100 velocity=100 time=0.0018601041666666664
EXTRACT: note_on channel=4 note=95 velocity=100 time=0.0018601041666666664
EXTRACT: note_on channel=3 note=67 velocity=100 time=0.018601041666666665
EXTRACT: note_off channel=4 note=88 velocity=0 time=0.044642499999999995
EXTRACT: note_off channel=4 note=100 velocity=0 time=0.0074404166666666655
EXTRACT: note_off channel=4 note=95 velocity=0 time=0.0037202083333333327
EXTRACT: note_on channel=9 note=40 velocity=92 time=0.013020729166666665
EXTRACT: note_off channel=3 note=67 velocity=0 time=0.005580312499999999
EXTRACT: note_off channel=9 note=40 velocity=0 time=0.0018601041666666664
EXTRACT: note_on channel=4 note=95 velocity=104 time=0.04092229166666666
EXTRACT: note_on channel=4 note=88 velocity=108 time=0.0018601041666666664
EXTRACT: note_on channel=4 note=100 velocity=108 time=0.0018601041666666664
EXTRACT: note_off channel=1 note=30 velocity=0 time=0.0074404166666666655
EXTRACT: note_on channel=3 note=67 velocity=107 time=0.009300520833333333
EXTRACT: note_on channel=1 note=32 velocity=106 time=0.02046114583333333
EXTRACT: note_on channel=9 note=42 velocity=51 time=0
EXTRACT: note_on channel=9 note=40 velocity=101 time=0
EXTRACT: note_off channel=9 note=40 velocity=0 time=0.0074404166666666655
EXTRACT: note_off channel=9 note=42 velocity=0 time=0
EXTRACT: note_off channel=4 note=100 velocity=0 time=0.033481874999999994
EXTRACT: note_off channel=4 note=95 velocity=0 time=0.005580312499999999
EXTRACT: note_off channel=4 note=88 velocity=0 time=0.013020729166666665
EXTRACT: note_on channel=4 note=88 velocity=100 time=0.11160624999999998
EXTRACT: note_on channel=4 note=100 velocity=108 time=0.0037202083333333327
EXTRACT: note_on channel=4 note=95 velocity=108 time=0.0018601041666666664
EXTRACT: note_off channel=4 note=88 velocity=0 time=0.05580312499999999
EXTRACT: note_off channel=4 note=100 velocity=0 time=0.0037202083333333327
EXTRACT: note_off channel=4 note=95 velocity=0 time=0.009300520833333333
EXTRACT: note_on channel=4 note=88 velocity=100 time=0.07998447916666665
EXTRACT: note_off channel=3 note=67 velocity=0 time=0.005580312499999999
EXTRACT: note_on channel=4 note=93 velocity=104 time=0.0018601041666666664
EXTRACT: note_on channel=3 note=64 velocity=113 time=0.0037202083333333327
EXTRACT: note_on channel=4 note=100 velocity=108 time=0
EXTRACT: note_off channel=1 note=32 velocity=0 time=0.014880833333333331
EXTRACT: note_on channel=1 note=33 velocity=103 time=0.005580312499999999
EXTRACT: note_on channel=2 note=45 velocity=93 time=0
EXTRACT: note_on channel=9 note=35 velocity=107 time=0
EXTRACT: note_off channel=9 note=35 velocity=0 time=0.0074404166666666655
EXTRACT: note_off channel=2 note=45 velocity=0 time=0.19531093749999998
EXTRACT: note_on channel=2 note=45 velocity=94 time=0.005580312499999999
EXTRACT: note_off channel=4 note=100 velocity=0 time=0.05580312499999999
EXTRACT: note_off channel=4 note=93 velocity=0 time=0.0018601041666666664
EXTRACT: note_off channel=4 note=88 velocity=0 time=0.011160624999999999
EXTRACT: note_off channel=3 note=64 velocity=0 time=0.06510364583333332
EXTRACT: note_off channel=1 note=33 velocity=0 time=0.009300520833333333
EXTRACT: note_off channel=2 note=45 velocity=0 time=0
EXTRACT: note_on channel=1 note=37 velocity=101 time=0.005580312499999999
EXTRACT: note_on channel=2 note=49 velocity=88 time=0
EXTRACT: note_on channel=9 note=40 velocity=108 time=0
EXTRACT: note_on channel=9 note=42 velocity=88 time=0
EXTRACT: note_off channel=9 note=42 velocity=0 time=0.0074404166666666655
EXTRACT: note_off channel=9 note=40 velocity=0 time=0
EXTRACT: note_off channel=2 note=49 velocity=0 time=0.19531093749999998
EXTRACT: note_on channel=2 note=49 velocity=90 time=0.005580312499999999
EXTRACT: note_on channel=9 note=42 velocity=60 time=0
EXTRACT: note_off channel=9 note=42 velocity=0 time=0.0074404166666666655
EXTRACT: note_off channel=1 note=37 velocity=0 time=0.1264870833333333
EXTRACT: note_off channel=2 note=49 velocity=0 time=0.009300520833333333
EXTRACT: note_on channel=1 note=40 velocity=106 time=0.005580312499999999
EXTRACT: note_on channel=2 note=52 velocity=93 time=0
EXTRACT: note_on channel=4 note=73 velocity=94 time=0
EXTRACT: note_on channel=4 note=79 velocity=96 time=0
EXTRACT: note_on channel=9 note=42 velocity=83 time=0
EXTRACT: note_on channel=9 note=35 velocity=108 time=0
EXTRACT: note_off channel=9 note=35 velocity=0 time=0.0074404166666666655
EXTRACT: note_off channel=9 note=42 velocity=0 time=0
EXTRACT: note_off channel=2 note=52 velocity=0 time=0.19531093749999998
EXTRACT: note_on channel=2 note=52 velocity=84 time=0.005580312499999999
EXTRACT: note_on channel=9 note=42 velocity=59 time=0
EXTRACT: note_off channel=4 note=79 velocity=0 time=0.005580312499999999
EXTRACT: note_off channel=9 note=42 velocity=0 time=0.0018601041666666664
EXTRACT: note_on channel=4 note=76 velocity=70 time=0.022321249999999997
EXTRACT: note_off channel=4 note=73 velocity=0 time=0.03720208333333333
EXTRACT: note_off channel=4 note=76 velocity=0 time=0.03534197916666666
EXTRACT: note_off channel=1 note=40 velocity=0 time=0.04092229166666666
EXTRACT: note_off channel=2 note=52 velocity=0 time=0
EXTRACT: note_on channel=1 note=42 velocity=102 time=0.005580312499999999
EXTRACT: note_on channel=2 note=54 velocity=93 time=0
EXTRACT: note_on channel=4 note=73 velocity=88 time=0
EXTRACT: note_on channel=4 note=78 velocity=92 time=0
EXTRACT: note_on channel=9 note=42 velocity=88 time=0
EXTRACT: note_on channel=9 note=40 velocity=107 time=0
EXTRACT: note_off channel=9 note=40 velocity=0 time=0.0074404166666666655
EXTRACT: note_off channel=9 note=42 velocity=0 time=0
EXTRACT: note_off channel=2 note=54 velocity=0 time=0.19531093749999998
EXTRACT: note_on channel=2 note=52 velocity=90 time=0.005580312499999999
EXTRACT: note_on channel=9 note=42 velocity=59 time=0
EXTRACT: note_off channel=4 note=78 velocity=0 time=0.0037202083333333327
EXTRACT: note_off channel=9 note=42 velocity=0 time=0.0037202083333333327
EXTRACT: note_off channel=4 note=73 velocity=0 time=0.03534197916666666
EXTRACT: note_off channel=1 note=42 velocity=0 time=0.10044562499999998
EXTRACT: note_off channel=2 note=52 velocity=0 time=0
EXTRACT: note_on channel=1 note=33 velocity=100 time=0.005580312499999999
EXTRACT: note_on channel=2 note=45 velocity=92 time=0
EXTRACT: note_on channel=4 note=73 velocity=92 time=0
EXTRACT: note_on channel=4 note=79 velocity=94 time=0
EXTRACT: note_on channel=9 note=35 velocity=108 time=0
EXTRACT: note_on channel=9 note=42 velocity=85 time=0
EXTRACT: note_off channel=9 note=42 velocity=0 time=0.0074404166666666655
EXTRACT: note_off channel=9 note=35 velocity=0 time=0
EXTRACT: note_off channel=2 note=45 velocity=0 time=0.19531093749999998
EXTRACT: note_on channel=2 note=45 velocity=92 time=0.005580312499999999
EXTRACT: note_on channel=9 note=42 velocity=56 time=0
EXTRACT: note_off channel=9 note=42 velocity=0 time=0.0074404166666666655
EXTRACT: note_on channel=3 note=67 velocity=113 time=0.0018601041666666664
EXTRACT: note_off channel=4 note=79 velocity=0 time=0.014880833333333331
EXTRACT: note_on channel=4 note=76 velocity=66 time=0.005580312499999999
EXTRACT: note_off channel=4 note=73 velocity=0 time=0.009300520833333333
EXTRACT: note_off channel=3 note=67 velocity=0 time=0.05394302083333333
EXTRACT: note_off channel=4 note=76 velocity=0 time=0.022321249999999997
EXTRACT: note_off channel=1 note=33 velocity=0 time=0.027901562499999994
EXTRACT: note_off channel=2 note=45 velocity=0 time=0
EXTRACT: note_on channel=1 note=37 velocity=94 time=0.005580312499999999
EXTRACT: note_on channel=2 note=49 velocity=84 time=0
EXTRACT: note_on channel=4 note=73 velocity=74 time=0
EXTRACT: note_on channel=4 note=78 velocity=70 time=0
EXTRACT: note_on channel=9 note=42 velocity=82 time=0
EXTRACT: note_on channel=9 note=40 velocity=107 time=0
EXTRACT: note_off channel=9 note=40 velocity=0 time=0.0074404166666666655
EXTRACT: note_off channel=9 note=42 velocity=0 time=0
EXTRACT: note_on channel=3 note=67 velocity=116 time=0.005580312499999999
EXTRACT: note_off channel=3 note=67 velocity=0 time=0.11718656249999998
EXTRACT: note_off channel=2 note=49 velocity=0 time=0.07254406249999999
EXTRACT: note_on channel=2 note=49 velocity=88 time=0.005580312499999999
EXTRACT: note_on channel=9 note=42 velocity=58 time=0
EXTRACT: note_off channel=4 note=78 velocity=0 time=0.0018601041666666664
EXTRACT: note_off channel=9 note=42 velocity=0 time=0.005580312499999999
EXTRACT: note_on channel=3 note=67 velocity=116 time=0.013020729166666665
EXTRACT: note_on channel=4 note=76 velocity=40 time=0.009300520833333333
EXTRACT: note_off channel=1 note=37 velocity=0 time=0.11346635416666664
EXTRACT: note_off channel=2 note=49 velocity=0 time=0
EXTRACT: note_on channel=1 note=40 velocity=103 time=0.005580312499999999
EXTRACT: note_on channel=2 note=52 velocity=90 time=0
EXTRACT: note_on channel=9 note=35 velocity=107 time=0
EXTRACT: note_on channel=9 note=42 velocity=86 time=0
EXTRACT: note_off channel=9 note=42 velocity=0 time=0.0074404166666666655
EXTRACT: note_off channel=9 note=35 velocity=0 time=0
EXTRACT: note_off channel=4 note=73 velocity=0 time=0.024181354166666662
EXTRACT: note_off channel=4 note=76 velocity=0 time=0.029761666666666662
EXTRACT: note_off channel=2 note=52 velocity=0 time=0.14136791666666665
EXTRACT: note_on channel=2 note=52 velocity=94 time=0.005580312499999999
EXTRACT: note_on channel=9 note=42 velocity=67 time=0
EXTRACT: note_off channel=9 note=42 velocity=0 time=0.0074404166666666655
EXTRACT: note_off channel=3 note=67 velocity=0 time=0.044642499999999995
EXTRACT: note_on channel=3 note=64 velocity=104 time=0.005580312499999999
EXTRACT: note_off channel=3 note=64 velocity=0 time=0.06324354166666665
EXTRACT: note_off channel=1 note=40 velocity=0 time=0.022321249999999997
EXTRACT: note_off channel=2 note=52 velocity=0 time=0
EXTRACT: note_on channel=1 note=42 velocity=101 time=0.005580312499999999
EXTRACT: note_on channel=2 note=54 velocity=88 time=0
EXTRACT: note_on channel=9 note=40 velocity=108 time=0
EXTRACT: note_on channel=9 note=42 velocity=86 time=0
EXTRACT: note_off channel=9 note=42 velocity=0 time=0.0074404166666666655
EXTRACT: note_off channel=9 note=40 velocity=0 time=0
EXTRACT: note_on channel=3 note=66 velocity=116 time=0.0074404166666666655
EXTRACT: note_off channel=2 note=54 velocity=0 time=0.1878705208333333
EXTRACT: note_on channel=2 note=52 velocity=90 time=0.005580312499999999
EXTRACT: note_on channel=9 note=42 velocity=61 time=0
EXTRACT: note_off channel=9 note=42 velocity=0 time=0.0074404166666666655
EXTRACT: note_off channel=3 note=66 velocity=0 time=0.11904666666666665
EXTRACT: note_off channel=1 note=42 velocity=0 time=0.009300520833333333
EXTRACT: note_on channel=3 note=64 velocity=113 time=0
EXTRACT: note_off channel=2 note=52 velocity=0 time=0.0074404166666666655
EXTRACT: note_on channel=1 note=28 velocity=104 time=0.005580312499999999
EXTRACT: note_on channel=2 note=40 velocity=94 time=0
EXTRACT: note_on channel=9 note=35 velocity=107 time=0
EXTRACT: note_on channel=9 note=42 velocity=84 time=0
EXTRACT: note_off channel=9 note=42 velocity=0 time=0.0074404166666666655
EXTRACT: note_off channel=9 note=35 velocity=0 time=0
EXTRACT: note_off channel=2 note=40 velocity=0 time=0.19531093749999998
EXTRACT: note_on channel=2 note=40 velocity=96 time=0.005580312499999999
EXTRACT: note_on channel=9 note=42 velocity=59 time=0
EXTRACT: note_off channel=9 note=42 velocity=0 time=0.0074404166666666655
EXTRACT: note_off channel=1 note=28 velocity=0 time=0.13578760416666666
EXTRACT: note_off channel=2 note=40 velocity=0 time=0
EXTRACT: note_off channel=3 note=64 velocity=0 time=0.0018601041666666664
EXTRACT: note_on channel=1 note=32 velocity=100 time=0.0037202083333333327
EXTRACT: note_on channel=2 note=44 velocity=76 time=0
EXTRACT: note_on channel=9 note=40 velocity=108 time=0
EXTRACT: note_on channel=9 note=42 velocity=88 time=0
EXTRACT: note_off channel=9 note=42 velocity=0 time=0.0074404166666666655
EXTRACT: note_off channel=9 note=40 velocity=0 time=0
EXTRACT: note_off channel=2 note=44 velocity=0 time=0.19531093749999998
EXTRACT: note_on channel=2 note=44 velocity=86 time=0.005580312499999999
EXTRACT: note_on channel=9 note=42 velocity=58 time=0
EXTRACT: note_off channel=9 note=42 velocity=0 time=0.0074404166666666655
EXTRACT: note_on channel=4 note=97 velocity=116 time=0.009300520833333333
EXTRACT: note_off channel=4 note=97 velocity=0 time=0.10602593749999999
EXTRACT: note_off channel=1 note=32 velocity=0 time=0.02046114583333333
EXTRACT: note_off channel=2 note=44 velocity=0 time=0
EXTRACT: note_on channel=1 note=35 velocity=103 time=0.005580312499999999
EXTRACT: note_on channel=2 note=47 velocity=90 time=0
EXTRACT: note_on channel=9 note=35 velocity=108 time=0
EXTRACT: note_on channel=9 note=42 velocity=87 time=0
EXTRACT: note_on channel=4 note=95 velocity=84 time=0.0074404166666666655
EXTRACT: note_off channel=9 note=42 velocity=0 time=0
EXTRACT: note_off channel=9 note=35 velocity=0 time=0
EXTRACT: note_on channel=4 note=93 velocity=62 time=0.11160624999999998
EXTRACT: note_off channel=2 note=47 velocity=0 time=0.08370468749999999
EXTRACT: note_off channel=4 note=95 velocity=0 time=0.0018601041666666664
EXTRACT: note_on channel=2 note=47 velocity=86 time=0.0037202083333333327
EXTRACT: note_on channel=9 note=42 velocity=57 time=0
EXTRACT: note_off channel=9 note=42 velocity=0 time=0.0074404166666666655
EXTRACT: note_on channel=4 note=92 velocity=56 time=0.022321249999999997
EXTRACT: note_off channel=4 note=93 velocity=0 time=0.022321249999999997
EXTRACT: note_off channel=1 note=35 velocity=0 time=0.07068395833333332
EXTRACT: note_off channel=2 note=47 velocity=0 time=0.02046114583333333
EXTRACT: note_on channel=1 note=37 velocity=99 time=0.005580312499999999
EXTRACT: note_on channel=2 note=49 velocity=88 time=0
EXTRACT: note_on channel=4 note=88 velocity=52 time=0
EXTRACT: note_on channel=9 note=40 velocity=107 time=0
EXTRACT: note_on channel=9 note=42 velocity=86 time=0
EXTRACT: note_off channel=9 note=42 velocity=0 time=0.0074404166666666655
EXTRACT: note_off channel=9 note=40 velocity=0 time=0
EXTRACT: note_off channel=4 note=92 velocity=0 time=0.0074404166666666655
EXTRACT: note_off channel=4 note=88 velocity=0 time=0.1264870833333333
EXTRACT: note_off channel=2 note=49 velocity=0 time=0.06138343749999999
EXTRACT: note_on channel=2 note=47 velocity=80 time=0.005580312499999999
EXTRACT: note_on channel=9 note=42 velocity=63 time=0
EXTRACT: note_off channel=9 note=42 velocity=0 time=0.0074404166666666655
EXTRACT: note_off channel=1 note=37 velocity=0 time=0.13578760416666666
EXTRACT: note_off channel=2 note=47 velocity=0 time=0
EXTRACT: note_on channel=1 note=28 velocity=104 time=0.005580312499999999
EXTRACT: note_on channel=2 note=40 velocity=94 time=0
EXTRACT: note_on channel=9 note=35 velocity=108 time=0
EXTRACT: note_on channel=9 note=42 velocity=85 time=0
EXTRACT: note_off channel=9 note=42 velocity=0 time=0.0074404166666666655
EXTRACT: note_off channel=9 note=35 velocity=0 time=0
EXTRACT: note_off channel=2 note=40 velocity=0 time=0.19531093749999998
EXTRACT: note_on channel=2 note=40 velocity=94 time=0.005580312499999999
EXTRACT: note_on channel=9 note=42 velocity=64 time=0
EXTRACT: note_off channel=9 note=42 velocity=0 time=0.0074404166666666655
EXTRACT: note_off channel=1 note=28 velocity=0 time=0.13578760416666666
EXTRACT: note_off channel=2 note=40 velocity=0 time=0
EXTRACT: note_on channel=1 note=32 velocity=100 time=0.005580312499999999
EXTRACT: note_on channel=2 note=44 velocity=80 time=0
EXTRACT: note_on channel=9 note=40 velocity=107 time=0
EXTRACT: note_on channel=9 note=42 velocity=87 time=0
EXTRACT: note_off channel=9 note=42 velocity=0 time=0.0074404166666666655
EXTRACT: note_off channel=9 note=40 velocity=0 time=0
EXTRACT: note_on channel=4 note=79 velocity=100 time=0.0037202083333333327
EXTRACT: note_on channel=4 note=76 velocity=84 time=0.0018601041666666664
EXTRACT: note_on channel=4 note=80 velocity=76 time=0.03906218749999999
EXTRACT: note_off channel=4 note=79 velocity=0 time=0.005580312499999999
EXTRACT: note_off channel=2 note=44 velocity=0 time=0.14508812499999998
EXTRACT: note_on channel=2 note=44 velocity=86 time=0.005580312499999999
EXTRACT: note_on channel=9 note=42 velocity=59 time=0
EXTRACT: note_off channel=9 note=42 velocity=0 time=0.0074404166666666655
EXTRACT: note_off channel=4 note=76 velocity=0 time=0.031621770833333326
EXTRACT: note_off channel=4 note=80 velocity=0 time=0.0074404166666666655
EXTRACT: note_off channel=1 note=32 velocity=0 time=0.09672541666666665
EXTRACT: note_off channel=2 note=44 velocity=0 time=0
EXTRACT: note_on channel=1 note=35 velocity=100 time=0.005580312499999999
EXTRACT: note_on channel=2 note=47 velocity=90 time=0
EXTRACT: note_on channel=9 note=35 velocity=107 time=0
EXTRACT: note_on channel=9 note=42 velocity=87 time=0
EXTRACT: note_off channel=9 note=42 velocity=0 time=0.0074404166666666655
EXTRACT: note_off channel=9 note=35 velocity=0 time=0
EXTRACT: note_on channel=4 note=83 velocity=80 time=0.016740937499999997
EXTRACT: note_on channel=4 note=80 velocity=84 time=0.005580312499999999
EXTRACT: note_off channel=2 note=47 velocity=0 time=0.17298968749999996
EXTRACT: note_on channel=2 note=47 velocity=90 time=0.005580312499999999
EXTRACT: note_on channel=9 note=42 velocity=58 time=0
EXTRACT: note_off channel=9 note=42 velocity=0 time=0.0074404166666666655
EXTRACT: note_off channel=4 note=80 velocity=0 time=0.07440416666666666
EXTRACT: note_off channel=4 note=83 velocity=0 time=0.0037202083333333327
EXTRACT: note_on channel=3 note=67 velocity=112 time=0.04278239583333333
EXTRACT: note_off channel=1 note=35 velocity=0 time=0.014880833333333331
EXTRACT: note_off channel=2 note=47 velocity=0 time=0
EXTRACT: note_on channel=1 note=37 velocity=98 time=0.005580312499999999
EXTRACT: note_on channel=2 note=49 velocity=88 time=0
EXTRACT: note_on channel=9 note=40 velocity=108 time=0
EXTRACT: note_on channel=9 note=42 velocity=85 time=0
EXTRACT: note_off channel=9 note=42 velocity=0 time=0.0074404166666666655
EXTRACT: note_off channel=9 note=40 velocity=0 time=0
EXTRACT: note_off channel=3 note=67 velocity=0 time=0.11532645833333331
EXTRACT: note_on channel=3 note=67 velocity=109 time=0.07626427083333333
EXTRACT: note_off channel=2 note=49 velocity=0 time=0.0037202083333333327
EXTRACT: note_on channel=2 note=47 velocity=90 time=0.005580312499999999
EXTRACT: note_on channel=9 note=42 velocity=62 time=0
EXTRACT: note_off channel=9 note=42 velocity=0 time=0.0074404166666666655
EXTRACT: note_on channel=4 note=69 velocity=72 time=0.024181354166666662
EXTRACT: note_on channel=4 note=71 velocity=70 time=0.005580312499999999
EXTRACT: note_on channel=4 note=66 velocity=73 time=0.0018601041666666664
EXTRACT: note_on channel=4 note=63 velocity=76 time=0.005580312499999999
EXTRACT: note_off channel=3 note=67 velocity=0 time=0.031621770833333326
EXTRACT: note_off channel=1 note=37 velocity=0 time=0.03906218749999999
EXTRACT: note_off channel=2 note=47 velocity=0 time=0.027901562499999994
EXTRACT: note_on channel=1 note=35 velocity=108 time=0.005580312499999999
EXTRACT: note_on channel=2 note=47 velocity=98 time=0
EXTRACT: note_on channel=3 note=66 velocity=112 time=0
EXTRACT: note_on channel=9 note=35 velocity=107 time=0
EXTRACT: note_on channel=9 note=42 velocity=84 time=0
EXTRACT: note_off channel=9 note=42 velocity=0 time=0.0074404166666666655
EXTRACT: note_off channel=9 note=35 velocity=0 time=0
EXTRACT: note_off channel=4 note=71 velocity=0 time=0.057663229166666656
EXTRACT: note_off channel=4 note=63 velocity=0 time=0.024181354166666662
EXTRACT: note_off channel=4 note=66 velocity=0 time=0.009300520833333333
EXTRACT: note_off channel=4 note=69 velocity=0 time=0.05022281249999999
EXTRACT: note_off channel=3 note=66 velocity=0 time=0.009300520833333333
EXTRACT: note_off channel=2 note=47 velocity=0 time=0.044642499999999995
EXTRACT: note_on channel=3 note=66 velocity=109 time=0
EXTRACT: note_on channel=2 note=47 velocity=92 time=0.005580312499999999
EXTRACT: note_on channel=9 note=42 velocity=59 time=0
EXTRACT: note_off channel=9 note=42 velocity=0 time=0.0074404166666666655
EXTRACT: note_on channel=4 note=85 velocity=88 time=0.0037202083333333327
EXTRACT: note_off channel=4 note=85 velocity=0 time=0.07812437499999998
EXTRACT: note_off channel=3 note=66 velocity=0 time=0.005580312499999999
EXTRACT: note_off channel=1 note=35 velocity=0 time=0.018601041666666665
EXTRACT: note_off channel=2 note=47 velocity=0 time=0.029761666666666662
EXTRACT: note_on channel=3 note=66 velocity=110 time=0.0018601041666666664
EXTRACT: note_on channel=4 note=93 velocity=85 time=0
EXTRACT: note_on channel=4 note=97 velocity=100 time=0
EXTRACT: note_on channel=1 note=39 velocity=106 time=0.0037202083333333327
EXTRACT: note_on channel=2 note=51 velocity=92 time=0
EXTRACT: note_on channel=9 note=42 velocity=88 time=0
EXTRACT: note_on channel=9 note=40 velocity=108 time=0
EXTRACT: note_off channel=9 note=40 velocity=0 time=0.0074404166666666655
EXTRACT: note_off channel=9 note=42 velocity=0 time=0
EXTRACT: note_off channel=2 note=51 velocity=0 time=0.19531093749999998
EXTRACT: note_on channel=2 note=51 velocity=92 time=0.005580312499999999
EXTRACT: note_on channel=9 note=42 velocity=58 time=0
EXTRACT: note_off channel=9 note=42 velocity=0 time=0.0074404166666666655
EXTRACT: note_on channel=4 note=85 velocity=56 time=0.018601041666666665
EXTRACT: note_off channel=3 note=66 velocity=0 time=0.005580312499999999
EXTRACT: note_off channel=4 note=97 velocity=0 time=0.013020729166666665
EXTRACT: note_off channel=4 note=93 velocity=0 time=0.0018601041666666664
EXTRACT: note_off channel=4 note=85 velocity=0 time=0.06138343749999999
EXTRACT: note_on channel=3 note=66 velocity=112 time=0.033481874999999994
EXTRACT: note_off channel=1 note=39 velocity=0 time=0.0018601041666666664
EXTRACT: note_off channel=2 note=51 velocity=0 time=0
EXTRACT: note_on channel=4 note=95 velocity=80 time=0.0037202083333333327
EXTRACT: note_on channel=1 note=42 velocity=104 time=0.0018601041666666664
EXTRACT: note_on channel=2 note=54 velocity=90 time=0
EXTRACT: note_on channel=9 note=35 velocity=108 time=0
EXTRACT: note_on channel=9 note=42 velocity=87 time=0
EXTRACT: note_on channel=4 note=91 velocity=60 time=0.0037202083333333327
EXTRACT: note_off channel=9 note=42 velocity=0 time=0.0037202083333333327
EXTRACT: note_off channel=9 note=35 velocity=0 time=0
EXTRACT: note_off channel=4 note=91 velocity=0 time=0.048362708333333324
EXTRACT: note_on channel=4 note=92 velocity=68 time=0.011160624999999999
EXTRACT: note_off channel=2 note=54 velocity=0 time=0.13578760416666666
EXTRACT: note_on channel=2 note=54 velocity=88 time=0.005580312499999999
EXTRACT: note_on channel=9 note=42 velocity=57 time=0
EXTRACT: note_off channel=9 note=42 velocity=0 time=0.0074404166666666655
EXTRACT: note_off channel=4 note=92 velocity=0 time=0.024181354166666662
EXTRACT: note_off channel=3 note=66 velocity=0 time=0.0018601041666666664
EXTRACT: note_off channel=4 note=95 velocity=0 time=0.0037202083333333327
EXTRACT: note_on channel=4 note=90 velocity=56 time=0.011160624999999999
EXTRACT: note_on channel=4 note=93 velocity=64 time=0.0018601041666666664
EXTRACT: note_off channel=1 note=42 velocity=0 time=0.06510364583333332
EXTRACT: note_off channel=2 note=54 velocity=0 time=0.027901562499999994
EXTRACT: note_on channel=3 note=66 velocity=108 time=0
EXTRACT: note_on channel=1 note=44 velocity=104 time=0.005580312499999999
EXTRACT: note_on channel=2 note=56 velocity=96 time=0
EXTRACT: note_on channel=9 note=40 velocity=107 time=0
EXTRACT: note_on channel=9 note=42 velocity=86 time=0
EXTRACT: note_off channel=9 note=42 velocity=0 time=0.0074404166666666655
EXTRACT: note_off channel=9 note=40 velocity=0 time=0
EXTRACT: note_off channel=4 note=93 velocity=0 time=0.05208291666666666
EXTRACT: note_off channel=4 note=90 velocity=0 time=0.031621770833333326
EXTRACT: note_off channel=3 note=66 velocity=0 time=0.057663229166666656
EXTRACT: note_off channel=2 note=56 velocity=0 time=0.05394302083333333
EXTRACT: note_on channel=3 note=67 velocity=112 time=0
EXTRACT: note_on channel=2 note=54 velocity=82 time=0.005580312499999999
EXTRACT: note_on channel=9 note=42 velocity=63 time=0
EXTRACT: note_off channel=9 note=42 velocity=0 time=0.0074404166666666655
EXTRACT: note_off channel=1 note=44 velocity=0 time=0.13578760416666666
EXTRACT: note_off channel=2 note=54 velocity=0 time=0
EXTRACT: note_on channel=1 note=33 velocity=103 time=0.005580312499999999
EXTRACT: note_on channel=2 note=45 velocity=98 time=0
EXTRACT: note_on channel=9 note=35 velocity=108 time=0
EXTRACT: note_on channel=9 note=42 velocity=85 time=0
EXTRACT: note_on channel=4 note=67 velocity=82 time=0.0018601041666666664
EXTRACT: note_off channel=9 note=42 velocity=0 time=0.005580312499999999
EXTRACT: note_off channel=9 note=35 velocity=0 time=0
EXTRACT: note_on channel=4 note=64 velocity=79 time=0.0018601041666666664
EXTRACT: note_on channel=4 note=61 velocity=80 time=0.005580312499999999
EXTRACT: note_off channel=3 note=67 velocity=0 time=0.1711295833333333
EXTRACT: note_off channel=2 note=45 velocity=0 time=0.016740937499999997
EXTRACT: note_on channel=2 note=45 velocity=100 time=0.005580312499999999
EXTRACT: note_on channel=9 note=42 velocity=64 time=0
EXTRACT: note_off channel=9 note=42 velocity=0 time=0.0074404166666666655
EXTRACT: note_on channel=4 note=83 velocity=88 time=0.0037202083333333327
EXTRACT: note_off channel=4 note=83 velocity=0 time=0.07812437499999998
EXTRACT: note_off channel=1 note=33 velocity=0 time=0.05394302083333333
EXTRACT: note_off channel=2 note=45 velocity=0 time=0
EXTRACT: note_on channel=4 note=95 velocity=100 time=0.0018601041666666664
EXTRACT: note_on channel=4 note=91 velocity=84 time=0
EXTRACT: note_on channel=1 note=37 velocity=103 time=0.0037202083333333327
EXTRACT: note_on channel=2 note=49 velocity=88 time=0
EXTRACT: note_on channel=9 note=42 velocity=87 time=0
EXTRACT: note_on channel=9 note=40 velocity=107 time=0
EXTRACT: note_off channel=9 note=40 velocity=0 time=0.0074404166666666655
EXTRACT: note_off channel=9 note=42 velocity=0 time=0
EXTRACT: note_off channel=2 note=49 velocity=0 time=0.19531093749999998
EXTRACT: note_on channel=2 note=49 velocity=92 time=0.005580312499999999
EXTRACT: note_on channel=9 note=42 velocity=59 time=0
EXTRACT: note_off channel=9 note=42 velocity=0 time=0.0074404166666666655
EXTRACT: note_on channel=4 note=83 velocity=56 time=0.018601041666666665
EXTRACT: note_off channel=4 note=95 velocity=0 time=0.018601041666666665
EXTRACT: note_off channel=4 note=91 velocity=0 time=0.0018601041666666664
EXTRACT: note_off channel=4 note=83 velocity=0 time=0.06138343749999999
EXTRACT: note_off channel=1 note=37 velocity=0 time=0.03534197916666666
EXTRACT: note_off channel=2 note=49 velocity=0 time=0
EXTRACT: note_on channel=4 note=93 velocity=80 time=0.0037202083333333327
EXTRACT: note_on channel=1 note=40 velocity=106 time=0.0018601041666666664
EXTRACT: note_on channel=2 note=52 velocity=90 time=0
EXTRACT: note_on channel=9 note=35 velocity=107 time=0
EXTRACT: note_on channel=9 note=42 velocity=87 time=0
EXTRACT: note_on channel=4 note=89 velocity=60 time=0.0037202083333333327
EXTRACT: note_off channel=9 note=42 velocity=0 time=0.0037202083333333327
EXTRACT: note_off channel=9 note=35 velocity=0 time=0
EXTRACT: note_off channel=4 note=89 velocity=0 time=0.048362708333333324
EXTRACT: note_on channel=4 note=90 velocity=68 time=0.011160624999999999
EXTRACT: note_off channel=2 note=52 velocity=0 time=0.13578760416666666
EXTRACT: note_on channel=2 note=52 velocity=90 time=0.005580312499999999
EXTRACT: note_on channel=9 note=42 velocity=58 time=0
EXTRACT: note_off channel=9 note=42 velocity=0 time=0.0074404166666666655
EXTRACT: note_off channel=4 note=90 velocity=0 time=0.024181354166666662
EXTRACT: note_off channel=4 note=93 velocity=0 time=0.005580312499999999
EXTRACT: note_on channel=4 note=88 velocity=56 time=0.011160624999999999
EXTRACT: note_on channel=4 note=91 velocity=64 time=0.0018601041666666664
EXTRACT: note_off channel=1 note=40 velocity=0 time=0.05022281249999999
EXTRACT: note_on channel=3 note=67 velocity=105 time=0.029761666666666662
EXTRACT: note_off channel=2 note=52 velocity=0 time=0.013020729166666665
EXTRACT: note_on channel=1 note=42 velocity=103 time=0.005580312499999999
EXTRACT: note_on channel=2 note=54 velocity=80 time=0
EXTRACT: note_on channel=9 note=40 velocity=108 time=0
EXTRACT: note_on channel=9 note=42 velocity=85 time=0
EXTRACT: note_off channel=9 note=42 velocity=0 time=0.0074404166666666655
EXTRACT: note_off channel=9 note=40 velocity=0 time=0
EXTRACT: note_off channel=4 note=67 velocity=0 time=0.022321249999999997
EXTRACT: note_off channel=4 note=91 velocity=0 time=0.029761666666666662
EXTRACT: note_off channel=4 note=88 velocity=0 time=0.031621770833333326
EXTRACT: note_off channel=4 note=64 velocity=0 time=0.0074404166666666655
EXTRACT: note_off channel=3 note=67 velocity=0 time=0.024181354166666662
EXTRACT: note_off channel=2 note=54 velocity=0 time=0.07998447916666665
EXTRACT: note_on channel=2 note=52 velocity=90 time=0.005580312499999999
EXTRACT: note_off channel=4 note=61 velocity=0 time=0
EXTRACT: note_on channel=9 note=42 velocity=62 time=0
EXTRACT: note_off channel=9 note=42 velocity=0 time=0.0074404166666666655
EXTRACT: note_on channel=3 note=67 velocity=107 time=0.0074404166666666655
EXTRACT: note_off channel=1 note=42 velocity=0 time=0.1283471875
EXTRACT: note_off channel=2 note=52 velocity=0 time=0
EXTRACT: note_on channel=1 note=28 velocity=106 time=0.005580312499999999
EXTRACT: note_on channel=2 note=40 velocity=96 time=0
EXTRACT: note_on channel=9 note=42 velocity=84 time=0
EXTRACT: note_on channel=9 note=35 velocity=107 time=0
EXTRACT: note_on channel=4 note=62 velocity=78 time=0.0018601041666666664
EXTRACT: note_on channel=4 note=64 velocity=78 time=0.005580312499999999
EXTRACT: note_off channel=9 note=35 velocity=0 time=0
EXTRACT: note_off channel=9 note=42 velocity=0 time=0
EXTRACT: note_on channel=4 note=59 velocity=78 time=0.005580312499999999
EXTRACT: note_on channel=4 note=68 velocity=78 time=0.005580312499999999
EXTRACT: note_off channel=3 note=67 velocity=0 time=0.08742489583333332
EXTRACT: note_on channel=3 note=64 velocity=106 time=0.09300520833333333
EXTRACT: note_off channel=2 note=40 velocity=0 time=0.0037202083333333327
EXTRACT: note_on channel=2 note=40 velocity=96 time=0.005580312499999999
EXTRACT: note_on channel=9 note=42 velocity=59 time=0
EXTRACT: note_off channel=9 note=42 velocity=0 time=0.0074404166666666655
EXTRACT: note_on channel=4 note=79 velocity=86 time=0.0018601041666666664
EXTRACT: note_off channel=3 note=64 velocity=0 time=0.06696374999999999
EXTRACT: note_off channel=1 note=28 velocity=0 time=0.06696374999999999
EXTRACT: note_off channel=2 note=40 velocity=0 time=0
EXTRACT: note_on channel=1 note=32 velocity=101 time=0.005580312499999999
EXTRACT: note_on channel=2 note=44 velocity=78 time=0
EXTRACT: note_on channel=9 note=40 velocity=108 time=0
EXTRACT: note_on channel=9 note=42 velocity=88 time=0
EXTRACT: note_off channel=9 note=42 velocity=0 time=0.0074404166666666655
EXTRACT: note_off channel=9 note=40 velocity=0 time=0
EXTRACT: note_on channel=3 note=64 velocity=110 time=0.0018601041666666664
EXTRACT: note_off channel=4 note=79 velocity=0 time=0.009300520833333333
EXTRACT: note_on channel=4 note=80 velocity=54 time=0.048362708333333324
EXTRACT: note_off channel=4 note=80 velocity=0 time=0.10602593749999999
EXTRACT: note_off channel=3 note=64 velocity=0 time=0.011160624999999999
EXTRACT: note_off channel=2 note=44 velocity=0 time=0.018601041666666665
EXTRACT: note_on channel=2 note=44 velocity=84 time=0.005580312499999999
EXTRACT: note_on channel=9 note=42 velocity=58 time=0
EXTRACT: note_off channel=9 note=42 velocity=0 time=0.0074404166666666655
EXTRACT: note_on channel=3 note=62 velocity=104 time=0.013020729166666665
EXTRACT: note_on channel=4 note=83 velocity=48 time=0.009300520833333333
EXTRACT: note_off channel=3 note=62 velocity=0 time=0.05394302083333333
EXTRACT: note_off channel=4 note=83 velocity=0 time=0.013020729166666665
EXTRACT: note_off channel=1 note=32 velocity=0 time=0.04650260416666666
EXTRACT: note_off channel=2 note=44 velocity=0 time=0
EXTRACT: note_on channel=3 note=64 velocity=109 time=0.0018601041666666664
EXTRACT: note_on channel=1 note=35 velocity=105 time=0.0037202083333333327
EXTRACT: note_on channel=2 note=47 velocity=88 time=0
EXTRACT: note_on channel=9 note=35 velocity=108 time=0
EXTRACT: note_on channel=9 note=42 velocity=87 time=0
EXTRACT: note_on channel=4 note=88 velocity=86 time=0.0074404166666666655
EXTRACT: note_off channel=9 note=42 velocity=0 time=0
EXTRACT: note_off channel=9 note=35 velocity=0 time=0
EXTRACT: note_off channel=4 note=88 velocity=0 time=0.1543886458333333
EXTRACT: note_off channel=2 note=47 velocity=0 time=0.04092229166666666
EXTRACT: note_on channel=2 note=47 velocity=88 time=0.005580312499999999
EXTRACT: note_on channel=9 note=42 velocity=57 time=0
EXTRACT: note_off channel=9 note=42 velocity=0 time=0.0074404166666666655
EXTRACT: note_on channel=4 note=88 velocity=88 time=0.011160624999999999
EXTRACT: note_off channel=3 note=64 velocity=0 time=0.04650260416666666
EXTRACT: note_off channel=4 note=88 velocity=0 time=0.05208291666666666
EXTRACT: note_off channel=1 note=35 velocity=0 time=0.02604145833333333
EXTRACT: note_off channel=2 note=47 velocity=0 time=0
EXTRACT: note_on channel=3 note=64 velocity=109 time=0
EXTRACT: note_on channel=1 note=37 velocity=99 time=0.005580312499999999
EXTRACT: note_on channel=2 note=49 velocity=88 time=0
EXTRACT: note_on channel=9 note=40 velocity=107 time=0
EXTRACT: note_on channel=9 note=42 velocity=86 time=0
EXTRACT: note_off channel=9 note=42 velocity=0 time=0.0074404166666666655
EXTRACT: note_off channel=9 note=40 velocity=0 time=0
EXTRACT: note_off channel=4 note=59 velocity=0 time=0.011160624999999999
EXTRACT: note_on channel=4 note=88 velocity=82 time=0.0037202083333333327
EXTRACT: note_off channel=4 note=64 velocity=0 time=0.0037202083333333327
EXTRACT: note_off channel=4 note=62 velocity=0 time=0.0018601041666666664
EXTRACT: note_off channel=4 note=68 velocity=0 time=0.0018601041666666664
EXTRACT: note_off channel=4 note=88 velocity=0 time=0.09486531249999998
EXTRACT: note_off channel=3 note=64 velocity=0 time=0.04278239583333333
EXTRACT: note_off channel=2 note=49 velocity=0 time=0.03534197916666666
EXTRACT: note_on channel=2 note=47 velocity=86 time=0.005580312499999999
EXTRACT: note_on channel=9 note=42 velocity=63 time=0
EXTRACT: note_off channel=9 note=42 velocity=0 time=0.0074404166666666655
EXTRACT: note_on channel=4 note=88 velocity=84 time=0.005580312499999999
EXTRACT: note_on channel=3 note=64 velocity=106 time=0.011160624999999999
EXTRACT: note_off channel=4 note=88 velocity=0 time=0.05208291666666666
EXTRACT: note_off channel=1 note=37 velocity=0 time=0.06324354166666665
EXTRACT: note_off channel=2 note=47 velocity=0 time=0.0037202083333333327
EXTRACT: note_on channel=1 note=28 velocity=105 time=0.005580312499999999
EXTRACT: note_on channel=2 note=40 velocity=96 time=0
EXTRACT: note_on channel=4 note=88 velocity=82 time=0
EXTRACT: note_on channel=9 note=35 velocity=108 time=0
EXTRACT: note_on channel=9 note=42 velocity=85 time=0
EXTRACT: note_off channel=9 note=42 velocity=0 time=0.0074404166666666655
EXTRACT: note_off channel=9 note=35 velocity=0 time=0
EXTRACT: note_off channel=3 note=64 velocity=0 time=0.13578760416666666
EXTRACT: note_off channel=4 note=88 velocity=0 time=0.022321249999999997
EXTRACT: note_off channel=2 note=40 velocity=0 time=0.03720208333333333
EXTRACT: note_on channel=2 note=40 velocity=96 time=0.005580312499999999
EXTRACT: note_on channel=9 note=42 velocity=64 time=0
EXTRACT: note_off channel=9 note=42 velocity=0 time=0.0074404166666666655
EXTRACT: note_on channel=4 note=86 velocity=66 time=0.0037202083333333327
EXTRACT: note_on channel=4 note=83 velocity=62 time=0.13020729166666664
EXTRACT: note_off channel=1 note=28 velocity=0 time=0.0018601041666666664
EXTRACT: note_off channel=2 note=40 velocity=0 time=0
EXTRACT: note_on channel=1 note=32 velocity=103 time=0.005580312499999999
EXTRACT: note_on channel=2 note=44 velocity=84 time=0
EXTRACT: note_on channel=9 note=42 velocity=87 time=0
EXTRACT: note_on channel=9 note=40 velocity=107 time=0
EXTRACT: note_off channel=4 note=86 velocity=0 time=0.0074404166666666655
EXTRACT: note_off channel=9 note=40 velocity=0 time=0
EXTRACT: note_off channel=9 note=42 velocity=0 time=0
EXTRACT: note_off channel=4 note=83 velocity=0 time=0.1711295833333333
EXTRACT: note_on channel=4 note=79 velocity=66 time=0.013020729166666665
EXTRACT: note_off channel=2 note=44 velocity=0 time=0.011160624999999999
EXTRACT: note_on channel=2 note=44 velocity=86 time=0.005580312499999999
EXTRACT: note_on channel=9 note=42 velocity=59 time=0
EXTRACT: note_off channel=9 note=42 velocity=0 time=0.0074404166666666655
EXTRACT: note_off channel=4 note=79 velocity=0 time=0.13020729166666664
EXTRACT: note_off channel=1 note=32 velocity=0 time=0.005580312499999999
EXTRACT: note_off channel=2 note=44 velocity=0 time=0
EXTRACT: note_on channel=1 note=35 velocity=102 time=0.005580312499999999
EXTRACT: note_on channel=2 note=47 velocity=94 time=0
EXTRACT: note_on channel=9 note=35 velocity=107 time=0
EXTRACT: note_on channel=9 note=42 velocity=87 time=0
EXTRACT: note_off channel=9 note=42 velocity=0 time=0.0074404166666666655
EXTRACT: note_off channel=9 note=35 velocity=0 time=0
EXTRACT: note_on channel=4 note=80 velocity=52 time=0.013020729166666665
EXTRACT: note_off channel=2 note=47 velocity=0 time=0.09300520833333333
EXTRACT: note_on channel=2 note=63 velocity=97 time=0.05022281249999999
EXTRACT: note_off channel=1 note=35 velocity=0 time=0.009300520833333333
EXTRACT: note_on channel=2 note=58 velocity=103 time=0
EXTRACT: note_on channel=1 note=39 velocity=112 time=0.005580312499999999
EXTRACT: note_on channel=2 note=55 velocity=100 time=0.0018601041666666664
EXTRACT: note_on channel=2 note=51 velocity=97 time=0.0074404166666666655
EXTRACT: note_on channel=4 note=58 velocity=96 time=0
EXTRACT: note_on channel=4 note=55 velocity=92 time=0.005580312499999999
EXTRACT: note_on channel=4 note=63 velocity=95 time=0
EXTRACT: note_on channel=2 note=46 velocity=78 time=0.0018601041666666664
EXTRACT: note_on channel=9 note=40 velocity=99 time=0.04278239583333333
EXTRACT: note_off channel=9 note=40 velocity=0 time=0.0074404166666666655
EXTRACT: note_off channel=4 note=80 velocity=0 time=0.10230572916666665
EXTRACT: note_on channel=9 note=40 velocity=102 time=0.009300520833333333
EXTRACT: note_on channel=9 note=42 velocity=51 time=0
EXTRACT: note_off channel=9 note=42 velocity=0 time=0.0074404166666666655
EXTRACT: note_off channel=9 note=40 velocity=0 time=0
EXTRACT: note_on channel=3 note=67 velocity=115 time=0.1990311458333333
EXTRACT: note_off channel=4 note=55 velocity=0 time=0.031621770833333326
EXTRACT: note_on channel=9 note=40 velocity=75 time=0
EXTRACT: note_off channel=9 note=40 velocity=0 time=0.0074404166666666655
EXTRACT: note_off channel=4 note=58 velocity=0 time=0.013020729166666665
EXTRACT: note_off channel=4 note=63 velocity=0 time=0.014880833333333331
EXTRACT: note_off channel=2 note=46 velocity=0 time=0.057663229166666656
EXTRACT: note_off channel=2 note=63 velocity=0 time=0.005580312499999999
EXTRACT: note_off channel=2 note=51 velocity=0 time=0.0018601041666666664
EXTRACT: note_on channel=2 note=47 velocity=78 time=0.0018601041666666664
EXTRACT: note_off channel=2 note=58 velocity=0 time=0.005580312499999999
EXTRACT: note_on channel=4 note=56 velocity=93 time=0.0037202083333333327
EXTRACT: note_off channel=1 note=39 velocity=0 time=0.0018601041666666664
EXTRACT: note_on channel=2 note=52 velocity=99 time=0
EXTRACT: note_off channel=2 note=55 velocity=0 time=0.0018601041666666664
EXTRACT: note_on channel=4 note=64 velocity=96 time=0.0018601041666666664
EXTRACT: note_on channel=1 note=40 velocity=112 time=0.0018601041666666664
EXTRACT: note_on channel=4 note=59 velocity=96 time=0
EXTRACT: note_on channel=9 note=40 velocity=105 time=0
EXTRACT: note_on channel=9 note=42 velocity=53 time=0
EXTRACT: note_on channel=2 note=56 velocity=99 time=0.0037202083333333327
EXTRACT: note_off channel=9 note=42 velocity=0 time=0.0037202083333333327
EXTRACT: note_off channel=9 note=40 velocity=0 time=0
EXTRACT: note_on channel=2 note=59 velocity=99 time=0.0018601041666666664
EXTRACT: note_on channel=2 note=64 velocity=99 time=0.0074404166666666655
EXTRACT: note_off channel=3 note=67 velocity=0 time=0.1283471875
EXTRACT: note_on channel=3 note=67 velocity=113 time=0.07068395833333332
EXTRACT: note_off channel=3 note=67 velocity=0 time=0.10602593749999999
EXTRACT: note_on channel=9 note=42 velocity=44 time=0.03534197916666666
EXTRACT: note_off channel=9 note=42 velocity=0 time=0.0074404166666666655
EXTRACT: note_on channel=3 note=67 velocity=112 time=0.009300520833333333
EXTRACT: note_off channel=3 note=67 velocity=0 time=0.15066843749999997
EXTRACT: note_on channel=3 note=67 velocity=112 time=0.057663229166666656
EXTRACT: note_off channel=3 note=67 velocity=0 time=0.10044562499999998
EXTRACT: note_on channel=9 note=42 velocity=52 time=0.031621770833333326
EXTRACT: note_off channel=9 note=42 velocity=0 time=0.0074404166666666655
EXTRACT: note_on channel=3 note=67 velocity=113 time=0.005580312499999999
EXTRACT: note_off channel=3 note=67 velocity=0 time=0.12276687499999998
EXTRACT: note_on channel=3 note=67 velocity=111 time=0.057663229166666656
EXTRACT: note_on channel=9 note=40 velocity=105 time=0.014880833333333331
EXTRACT: note_off channel=9 note=40 velocity=0 time=0.0074404166666666655
EXTRACT: note_on channel=9 note=40 velocity=69 time=0.10788604166666665
EXTRACT: note_off channel=3 note=67 velocity=0 time=0.005580312499999999
EXTRACT: note_off channel=9 note=40 velocity=0 time=0.0018601041666666664
EXTRACT: note_on channel=3 note=64 velocity=114 time=0.0037202083333333327
EXTRACT: note_on channel=9 note=42 velocity=51 time=0.022321249999999997
EXTRACT: note_off channel=9 note=42 velocity=0 time=0.0074404166666666655
EXTRACT: note_off channel=3 note=64 velocity=0 time=0.18415031249999997
EXTRACT: note_on channel=3 note=62 velocity=107 time=0.005580312499999999
EXTRACT: note_on channel=9 note=40 velocity=43 time=0.04092229166666666
EXTRACT: note_off channel=9 note=40 velocity=0 time=0.0074404166666666655
EXTRACT: note_off channel=3 note=62 velocity=0 time=0.024181354166666662
EXTRACT: note_on channel=3 note=64 velocity=115 time=0.06882385416666666
EXTRACT: note_on channel=9 note=40 velocity=105 time=0.018601041666666665
EXTRACT: note_on channel=9 note=42 velocity=53 time=0
EXTRACT: note_off channel=9 note=42 velocity=0 time=0.0074404166666666655
EXTRACT: note_off channel=9 note=40 velocity=0 time=0
EXTRACT: note_off channel=3 note=64 velocity=0 time=0.23623322916666664
EXTRACT: note_on channel=3 note=64 velocity=113 time=0.08184458333333332
EXTRACT: note_on channel=9 note=42 velocity=44 time=0.031621770833333326
EXTRACT: note_off channel=9 note=42 velocity=0 time=0.0074404166666666655
EXTRACT: note_off channel=3 note=64 velocity=0 time=0.1283471875
EXTRACT: note_on channel=3 note=67 velocity=116 time=0.06324354166666665
EXTRACT: note_on channel=9 note=42 velocity=52 time=0.15810885416666665
EXTRACT: note_off channel=9 note=42 velocity=0 time=0.0074404166666666655
EXTRACT: note_off channel=4 note=56 velocity=0 time=0.0074404166666666655
EXTRACT: note_off channel=4 note=64 velocity=0 time=0.0037202083333333327
EXTRACT: note_off channel=4 note=59 velocity=0 time=0.03534197916666666
EXTRACT: note_off channel=1 note=40 velocity=0 time=0.029761666666666662
EXTRACT: note_off channel=2 note=47 velocity=0 time=0.033481874999999994
EXTRACT: note_off channel=2 note=52 velocity=0 time=0.011160624999999999
EXTRACT: note_off channel=3 note=67 velocity=0 time=0.0018601041666666664
EXTRACT: note_off channel=2 note=56 velocity=0 time=0.0074404166666666655
EXTRACT: note_off channel=2 note=59 velocity=0 time=0.005580312499999999
EXTRACT: note_off channel=2 note=64 velocity=0 time=0.0074404166666666655
EXTRACT: note_on channel=2 note=63 velocity=97 time=0.013020729166666665
EXTRACT: note_on channel=2 note=58 velocity=103 time=0.009300520833333333
EXTRACT: note_on channel=1 note=39 velocity=112 time=0.005580312499999999
EXTRACT: note_on channel=2 note=55 velocity=100 time=0.0018601041666666664
EXTRACT: note_on channel=2 note=51 velocity=97 time=0.0074404166666666655
EXTRACT: note_on channel=2 note=46 velocity=78 time=0.0074404166666666655
EXTRACT: note_on channel=9 note=40 velocity=105 time=0.013020729166666665
EXTRACT: note_on channel=4 note=58 velocity=95 time=0.005580312499999999
EXTRACT: note_on channel=4 note=63 velocity=95 time=0.0018601041666666664
EXTRACT: note_off channel=9 note=40 velocity=0 time=0
EXTRACT: note_on channel=4 note=55 velocity=93 time=0.0018601041666666664
EXTRACT: note_on channel=9 note=40 velocity=69 time=0.10602593749999999
EXTRACT: note_off channel=9 note=40 velocity=0 time=0.0074404166666666655
EXTRACT: note_on channel=9 note=42 velocity=51 time=0.02604145833333333
EXTRACT: note_off channel=9 note=42 velocity=0 time=0.0074404166666666655
EXTRACT: note_on channel=9 note=40 velocity=43 time=0.23065291666666662
EXTRACT: note_off channel=9 note=40 velocity=0 time=0.0074404166666666655
EXTRACT: note_off channel=4 note=55 velocity=0 time=0.0074404166666666655
EXTRACT: note_off channel=4 note=58 velocity=0 time=0.04092229166666666
EXTRACT: note_off channel=4 note=63 velocity=0 time=0.0018601041666666664
EXTRACT: note_off channel=2 note=46 velocity=0 time=0.03534197916666666
EXTRACT: note_off channel=2 note=63 velocity=0 time=0.005580312499999999
EXTRACT: note_off channel=2 note=51 velocity=0 time=0.0018601041666666664
EXTRACT: note_on channel=2 note=47 velocity=78 time=0.0018601041666666664
EXTRACT: note_on channel=3 note=67 velocity=111 time=0.0037202083333333327
EXTRACT: note_off channel=2 note=58 velocity=0 time=0.0018601041666666664
EXTRACT: note_off channel=1 note=39 velocity=0 time=0.005580312499999999
EXTRACT: note_on channel=2 note=52 velocity=99 time=0
EXTRACT: note_off channel=2 note=55 velocity=0 time=0.0018601041666666664
EXTRACT: note_on channel=1 note=40 velocity=112 time=0.0037202083333333327
EXTRACT: note_on channel=9 note=40 velocity=105 time=0
EXTRACT: note_on channel=9 note=42 velocity=53 time=0
EXTRACT: note_on channel=2 note=56 velocity=99 time=0.0037202083333333327
EXTRACT: note_off channel=9 note=42 velocity=0 time=0.0037202083333333327
EXTRACT: note_off channel=9 note=40 velocity=0 time=0
EXTRACT: note_on channel=2 note=59 velocity=99 time=0.0018601041666666664
EXTRACT: note_on channel=2 note=64 velocity=99 time=0.0074404166666666655
EXTRACT: note_on channel=4 note=56 velocity=93 time=0
EXTRACT: note_on channel=4 note=64 velocity=96 time=0.0018601041666666664
EXTRACT: note_on channel=4 note=59 velocity=98 time=0.0037202083333333327
EXTRACT: note_off channel=3 note=67 velocity=0 time=0.09672541666666665
EXTRACT: note_on channel=3 note=67 velocity=112 time=0.09300520833333333
EXTRACT: note_off channel=3 note=67 velocity=0 time=0.08370468749999999
EXTRACT: note_on channel=9 note=42 velocity=44 time=0.06138343749999999
EXTRACT: note_on channel=3 note=67 velocity=111 time=0.0037202083333333327
EXTRACT: note_off channel=9 note=42 velocity=0 time=0.0037202083333333327
EXTRACT: note_off channel=3 note=67 velocity=0 time=0.10044562499999998
EXTRACT: note_on channel=3 note=67 velocity=113 time=0.09300520833333333
EXTRACT: note_off channel=3 note=67 velocity=0 time=0.07998447916666665
EXTRACT: note_on channel=3 note=67 velocity=113 time=0.06696374999999999
EXTRACT: note_on channel=9 note=42 velocity=52 time=0.009300520833333333
EXTRACT: note_off channel=9 note=42 velocity=0 time=0.0074404166666666655
EXTRACT: note_off channel=3 note=67 velocity=0 time=0.09114510416666666
EXTRACT: note_on channel=3 note=67 velocity=113 time=0.08742489583333332
EXTRACT: note_on channel=9 note=40 velocity=105 time=0.022321249999999997
EXTRACT: note_off channel=9 note=40 velocity=0 time=0.0074404166666666655
EXTRACT: note_off channel=3 note=67 velocity=0 time=0.08928499999999999
EXTRACT: note_on channel=9 note=40 velocity=69 time=0.018601041666666665
EXTRACT: note_off channel=9 note=40 velocity=0 time=0.0074404166666666655
EXTRACT: note_on channel=3 note=64 velocity=112 time=0.013020729166666665
EXTRACT: note_on channel=9 note=42 velocity=51 time=0.013020729166666665
EXTRACT: note_off channel=9 note=42 velocity=0 time=0.0074404166666666655
EXTRACT: note_off channel=3 note=64 velocity=0 time=0.19159072916666664
EXTRACT: note_on channel=3 note=62 velocity=108 time=0.029761666666666662
EXTRACT: note_on channel=9 note=40 velocity=43 time=0.009300520833333333
EXTRACT: note_off channel=9 note=40 velocity=0 time=0.0074404166666666655
EXTRACT: note_off channel=3 note=62 velocity=0 time=0.06138343749999999
EXTRACT: note_on channel=3 note=64 velocity=114 time=0.048362708333333324
EXTRACT: note_on channel=9 note=40 velocity=105 time=0.0018601041666666664
EXTRACT: note_on channel=9 note=42 velocity=53 time=0
EXTRACT: note_off channel=9 note=42 velocity=0 time=0.0074404166666666655
EXTRACT: note_off channel=9 note=40 velocity=0 time=0
EXTRACT: note_off channel=3 note=64 velocity=0 time=0.25111406249999996
EXTRACT: note_on channel=3 note=64 velocity=113 time=0.09300520833333333
EXTRACT: note_on channel=9 note=42 velocity=44 time=0.005580312499999999
EXTRACT: note_off channel=9 note=42 velocity=0 time=0.0074404166666666655
EXTRACT: note_off channel=4 note=64 velocity=0 time=0.256694375
EXTRACT: note_off channel=4 note=56 velocity=0 time=0.0018601041666666664
EXTRACT: note_off channel=3 note=64 velocity=0 time=0.0037202083333333327
EXTRACT: note_off channel=4 note=59 velocity=0 time=0.031621770833333326
EXTRACT: note_on channel=3 note=59 velocity=109 time=0.024181354166666662
EXTRACT: note_on channel=9 note=42 velocity=52 time=0.031621770833333326
EXTRACT: note_off channel=9 note=42 velocity=0 time=0.0074404166666666655
EXTRACT: note_off channel=1 note=40 velocity=0 time=0.07626427083333333
EXTRACT: note_off channel=2 note=47 velocity=0 time=0.033481874999999994
EXTRACT: note_off channel=2 note=52 velocity=0 time=0.011160624999999999
EXTRACT: note_off channel=2 note=56 velocity=0 time=0.009300520833333333
EXTRACT: note_off channel=2 note=59 velocity=0 time=0.005580312499999999
EXTRACT: note_off channel=2 note=64 velocity=0 time=0.0074404166666666655
EXTRACT: note_on channel=2 note=63 velocity=97 time=0.013020729166666665
EXTRACT: note_on channel=2 note=58 velocity=103 time=0.009300520833333333
EXTRACT: note_on channel=1 note=39 velocity=112 time=0.005580312499999999
EXTRACT: note_on channel=2 note=55 velocity=100 time=0.0018601041666666664
EXTRACT: note_on channel=4 note=58 velocity=95 time=0.0037202083333333327
EXTRACT: note_on channel=4 note=63 velocity=95 time=0
EXTRACT: note_on channel=4 note=55 velocity=94 time=0.0018601041666666664
EXTRACT: note_on channel=2 note=51 velocity=97 time=0.0018601041666666664
EXTRACT: note_on channel=2 note=46 velocity=78 time=0.0074404166666666655
EXTRACT: note_on channel=9 note=40 velocity=105 time=0.013020729166666665
EXTRACT: note_off channel=9 note=40 velocity=0 time=0.0074404166666666655
EXTRACT: note_off channel=3 note=59 velocity=0 time=0.07998447916666665
EXTRACT: note_on channel=9 note=40 velocity=69 time=0.027901562499999994
EXTRACT: note_off channel=9 note=40 velocity=0 time=0.0074404166666666655
EXTRACT: note_on channel=9 note=42 velocity=51 time=0.02604145833333333
EXTRACT: note_off channel=9 note=42 velocity=0 time=0.0074404166666666655
EXTRACT: note_on channel=9 note=40 velocity=43 time=0.23065291666666662
EXTRACT: note_off channel=9 note=40 velocity=0 time=0.0074404166666666655
EXTRACT: note_off channel=4 note=55 velocity=0 time=0.009300520833333333
EXTRACT: note_off channel=4 note=63 velocity=0 time=0.022321249999999997
EXTRACT: note_off channel=4 note=58 velocity=0 time=0.0074404166666666655
EXTRACT: note_off channel=2 note=46 velocity=0 time=0.04650260416666666
EXTRACT: note_off channel=2 note=63 velocity=0 time=0.005580312499999999
EXTRACT: note_off channel=2 note=51 velocity=0 time=0.0018601041666666664
EXTRACT: note_on channel=2 note=47 velocity=78 time=0.0018601041666666664
EXTRACT: note_on channel=3 note=67 velocity=111 time=0.0037202083333333327
EXTRACT: note_off channel=2 note=58 velocity=0 time=0.0018601041666666664
EXTRACT: note_on channel=4 note=64 velocity=94 time=0.0037202083333333327
EXTRACT: note_off channel=1 note=39 velocity=0 time=0.0018601041666666664
EXTRACT: note_on channel=2 note=52 velocity=99 time=0
EXTRACT: note_off channel=2 note=55 velocity=0 time=0.0018601041666666664
EXTRACT: note_on channel=1 note=40 velocity=112 time=0.0037202083333333327
EXTRACT: note_on channel=9 note=40 velocity=105 time=0
EXTRACT: note_on channel=9 note=42 velocity=53 time=0
EXTRACT: note_on channel=4 note=56 velocity=93 time=0.0018601041666666664
EXTRACT: note_on channel=2 note=56 velocity=99 time=0.0018601041666666664
EXTRACT: note_on channel=4 note=59 velocity=97 time=0
EXTRACT: note_off channel=9 note=42 velocity=0 time=0.0037202083333333327
EXTRACT: note_off channel=9 note=40 velocity=0 time=0
EXTRACT: note_on channel=2 note=59 velocity=99 time=0.0018601041666666664
EXTRACT: note_on channel=2 note=64 velocity=99 time=0.0074404166666666655
EXTRACT: note_off channel=3 note=67 velocity=0 time=0.10230572916666665
EXTRACT: note_on channel=3 note=67 velocity=112 time=0.09300520833333333
EXTRACT: note_off channel=3 note=67 velocity=0 time=0.08370468749999999
EXTRACT: note_on channel=9 note=42 velocity=44 time=0.06138343749999999
EXTRACT: note_on channel=3 note=67 velocity=111 time=0.0037202083333333327
EXTRACT: note_off channel=9 note=42 velocity=0 time=0.0037202083333333327
EXTRACT: note_off channel=3 note=67 velocity=0 time=0.10044562499999998
EXTRACT: note_on channel=3 note=67 velocity=113 time=0.09300520833333333
EXTRACT: note_off channel=3 note=67 velocity=0 time=0.07998447916666665
EXTRACT: note_on channel=3 note=67 velocity=113 time=0.06696374999999999
EXTRACT: note_on channel=9 note=42 velocity=52 time=0.009300520833333333
EXTRACT: note_off channel=9 note=42 velocity=0 time=0.0074404166666666655
EXTRACT: note_off channel=3 note=67 velocity=0 time=0.09114510416666666
EXTRACT: note_on channel=3 note=67 velocity=113 time=0.08742489583333332
EXTRACT: note_on channel=9 note=40 velocity=105 time=0.022321249999999997
EXTRACT: note_off channel=9 note=40 velocity=0 time=0.0074404166666666655
EXTRACT: note_off channel=3 note=67 velocity=0 time=0.08928499999999999
EXTRACT: note_on channel=9 note=40 velocity=69 time=0.018601041666666665
EXTRACT: note_off channel=9 note=40 velocity=0 time=0.0074404166666666655
EXTRACT: note_on channel=3 note=64 velocity=112 time=0.013020729166666665
EXTRACT: note_on channel=9 note=42 velocity=51 time=0.013020729166666665
EXTRACT: note_off channel=9 note=42 velocity=0 time=0.0074404166666666655
EXTRACT: note_off channel=3 note=64 velocity=0 time=0.19159072916666664
EXTRACT: note_on channel=3 note=62 velocity=108 time=0.029761666666666662
EXTRACT: note_on channel=9 note=40 velocity=43 time=0.009300520833333333
EXTRACT: note_off channel=9 note=40 velocity=0 time=0.0074404166666666655
EXTRACT: note_off channel=3 note=62 velocity=0 time=0.06138343749999999
EXTRACT: note_on channel=3 note=64 velocity=114 time=0.048362708333333324
EXTRACT: note_on channel=9 note=42 velocity=53 time=0.0018601041666666664
EXTRACT: note_on channel=9 note=40 velocity=105 time=0
EXTRACT: note_off channel=9 note=40 velocity=0 time=0.0074404166666666655
EXTRACT: note_off channel=9 note=42 velocity=0 time=0
EXTRACT: note_off channel=3 note=64 velocity=0 time=0.25111406249999996
EXTRACT: note_on channel=3 note=64 velocity=113 time=0.09300520833333333
EXTRACT: note_on channel=9 note=42 velocity=44 time=0.005580312499999999
EXTRACT: note_off channel=9 note=42 velocity=0 time=0.0074404166666666655
EXTRACT: note_off channel=4 note=56 velocity=0 time=0.2492539583333333
EXTRACT: note_off channel=3 note=64 velocity=0 time=0.013020729166666665
EXTRACT: note_off channel=4 note=64 velocity=0 time=0.014880833333333331
EXTRACT: note_off channel=4 note=59 velocity=0 time=0.018601041666666665
EXTRACT: note_on channel=3 note=67 velocity=109 time=0.022321249999999997
EXTRACT: note_on channel=9 note=42 velocity=52 time=0.031621770833333326
EXTRACT: note_off channel=9 note=42 velocity=0 time=0.0074404166666666655
EXTRACT: note_off channel=1 note=40 velocity=0 time=0.07626427083333333
EXTRACT: note_off channel=2 note=47 velocity=0 time=0.033481874999999994
EXTRACT: note_off channel=2 note=52 velocity=0 time=0.011160624999999999
EXTRACT: note_off channel=2 note=56 velocity=0 time=0.009300520833333333
EXTRACT: note_off channel=2 note=59 velocity=0 time=0.005580312499999999
EXTRACT: note_off channel=2 note=64 velocity=0 time=0.0074404166666666655
EXTRACT: note_on channel=2 note=63 velocity=97 time=0.013020729166666665
EXTRACT: note_on channel=4 note=58 velocity=96 time=0.0018601041666666664
EXTRACT: note_on channel=4 note=63 velocity=96 time=0.0037202083333333327
EXTRACT: note_on channel=2 note=58 velocity=103 time=0.0037202083333333327
EXTRACT: note_on channel=4 note=55 velocity=93 time=0
EXTRACT: note_on channel=1 note=39 velocity=112 time=0.005580312499999999
EXTRACT: note_on channel=2 note=55 velocity=100 time=0.0018601041666666664
EXTRACT: note_on channel=2 note=51 velocity=97 time=0.0074404166666666655
EXTRACT: note_on channel=2 note=46 velocity=78 time=0.0074404166666666655
EXTRACT: note_on channel=9 note=40 velocity=105 time=0.013020729166666665
EXTRACT: note_off channel=9 note=40 velocity=0 time=0.0074404166666666655
EXTRACT: note_off channel=3 note=67 velocity=0 time=0.07998447916666665
EXTRACT: note_on channel=9 note=40 velocity=69 time=0.027901562499999994
EXTRACT: note_off channel=9 note=40 velocity=0 time=0.0074404166666666655
EXTRACT: note_on channel=9 note=42 velocity=51 time=0.02604145833333333
EXTRACT: note_off channel=9 note=42 velocity=0 time=0.0074404166666666655
EXTRACT: note_off channel=4 note=55 velocity=0 time=0.2213523958333333
EXTRACT: note_on channel=9 note=40 velocity=43 time=0.009300520833333333
EXTRACT: note_off channel=9 note=40 velocity=0 time=0.0074404166666666655
EXTRACT: note_off channel=4 note=63 velocity=0 time=0.022321249999999997
EXTRACT: note_off channel=4 note=58 velocity=0 time=0.013020729166666665
EXTRACT: note_off channel=2 note=46 velocity=0 time=0.05022281249999999
EXTRACT: note_off channel=2 note=63 velocity=0 time=0.005580312499999999
EXTRACT: note_off channel=2 note=51 velocity=0 time=0.0018601041666666664
EXTRACT: note_on channel=2 note=47 velocity=78 time=0.0018601041666666664
EXTRACT: note_on channel=3 note=67 velocity=111 time=0.0037202083333333327
EXTRACT: note_off channel=2 note=58 velocity=0 time=0.0018601041666666664
EXTRACT: note_on channel=4 note=64 velocity=98 time=0.0018601041666666664
EXTRACT: note_on channel=4 note=56 velocity=95 time=0.0018601041666666664
EXTRACT: note_off channel=1 note=39 velocity=0 time=0.0018601041666666664
EXTRACT: note_on channel=2 note=52 velocity=99 time=0
EXTRACT: note_off channel=3 note=67 velocity=0 time=0
EXTRACT: note_on channel=4 note=59 velocity=99 time=0
EXTRACT: note_off channel=2 note=55 velocity=0 time=0.0018601041666666664
EXTRACT: note_on channel=1 note=40 velocity=112 time=0.0037202083333333327
EXTRACT: note_on channel=3 note=67 velocity=111 time=0
EXTRACT: note_on channel=9 note=35 velocity=108 time=0
EXTRACT: note_on channel=9 note=40 velocity=105 time=0
EXTRACT: note_on channel=9 note=42 velocity=53 time=0
EXTRACT: note_on channel=2 note=56 velocity=99 time=0.0037202083333333327
EXTRACT: note_off channel=9 note=42 velocity=0 time=0.0037202083333333327
EXTRACT: note_off channel=9 note=40 velocity=0 time=0
EXTRACT: note_off channel=9 note=35 velocity=0 time=0
EXTRACT: note_on channel=2 note=59 velocity=99 time=0.0018601041666666664
EXTRACT: note_on channel=2 note=64 velocity=99 time=0.0074404166666666655
EXTRACT: note_off channel=3 note=67 velocity=0 time=0.1934508333333333
EXTRACT: note_on channel=3 note=67 velocity=112 time=0.013020729166666665
EXTRACT: note_off channel=4 note=56 velocity=0 time=0.024181354166666662
EXTRACT: note_off channel=4 note=64 velocity=0 time=0.0074404166666666655
EXTRACT: note_off channel=4 note=59 velocity=0 time=0.0037202083333333327
EXTRACT: note_off channel=1 note=40 velocity=0 time=0.0037202083333333327
EXTRACT: note_off channel=2 note=47 velocity=0 time=0.033481874999999994
EXTRACT: note_off channel=2 note=52 velocity=0 time=0.011160624999999999
EXTRACT: note_off channel=3 note=67 velocity=0 time=0
EXTRACT: note_off channel=2 note=56 velocity=0 time=0.009300520833333333
EXTRACT: note_off channel=2 note=59 velocity=0 time=0.005580312499999999
EXTRACT: note_off channel=2 note=64 velocity=0 time=0.0074404166666666655
EXTRACT: note_on channel=9 note=42 velocity=44 time=0.027901562499999994
EXTRACT: note_on channel=3 note=67 velocity=111 time=0.0037202083333333327
EXTRACT: note_off channel=9 note=42 velocity=0 time=0.0037202083333333327
EXTRACT: note_off channel=3 note=67 velocity=0 time=0.1767098958333333
EXTRACT: note_on channel=3 note=67 velocity=113 time=0.044642499999999995
EXTRACT: note_off channel=3 note=67 velocity=0 time=0.07998447916666665
EXTRACT: note_on channel=3 note=67 velocity=113 time=0.03906218749999999
EXTRACT: note_on channel=9 note=42 velocity=52 time=0.009300520833333333
EXTRACT: note_off channel=9 note=42 velocity=0 time=0.0074404166666666655
EXTRACT: note_off channel=3 note=67 velocity=0 time=0.2213523958333333
EXTRACT: note_on channel=3 note=67 velocity=112 time=0.009300520833333333
EXTRACT: note_off channel=3 note=67 velocity=0 time=0.10230572916666665
EXTRACT: note_on channel=3 note=67 velocity=112 time=0.016740937499999997
EXTRACT: note_on channel=9 note=42 velocity=51 time=0
EXTRACT: note_off channel=9 note=42 velocity=0 time=0.0074404166666666655
EXTRACT: note_off channel=3 note=67 velocity=0 time=0.2046114583333333
EXTRACT: note_on channel=3 note=67 velocity=108 time=0.016740937499999997
EXTRACT: note_off channel=3 note=67 velocity=0 time=0.10788604166666665
EXTRACT: note_on channel=3 note=67 velocity=114 time=0.018601041666666665
EXTRACT: note_on channel=9 note=42 velocity=53 time=0.0018601041666666664
EXTRACT: note_off channel=9 note=42 velocity=0 time=0.0074404166666666655
EXTRACT: note_on channel=4 note=100 velocity=51 time=0.31249749999999993
EXTRACT: note_on channel=4 note=95 velocity=69 time=0
EXTRACT: note_on channel=4 note=88 velocity=61 time=0.0018601041666666664
EXTRACT: note_off channel=3 note=67 velocity=0 time=0.016740937499999997
EXTRACT: note_on channel=3 note=67 velocity=113 time=0.013020729166666665
EXTRACT: note_on channel=1 note=28 velocity=108 time=0.005580312499999999
EXTRACT: note_on channel=9 note=42 velocity=44 time=0
EXTRACT: note_off channel=9 note=42 velocity=0 time=0.0074404166666666655
EXTRACT: note_off channel=4 note=95 velocity=0 time=0.018601041666666665
EXTRACT: note_off channel=4 note=100 velocity=0 time=0
EXTRACT: note_off channel=4 note=88 velocity=0 time=0.0018601041666666664
EXTRACT: note_on channel=4 note=88 velocity=64 time=0.12276687499999998
EXTRACT: note_on channel=4 note=95 velocity=68 time=0.0037202083333333327
EXTRACT: note_on channel=4 note=100 velocity=64 time=0.005580312499999999
EXTRACT: note_off channel=4 note=88 velocity=0 time=0.07254406249999999
EXTRACT: note_off channel=4 note=100 velocity=0 time=0.005580312499999999
EXTRACT: note_off channel=4 note=95 velocity=0 time=0.0018601041666666664
EXTRACT: note_on channel=4 note=88 velocity=92 time=0.07254406249999999
EXTRACT: note_on channel=4 note=95 velocity=100 time=0.0037202083333333327
EXTRACT: note_on channel=4 note=100 velocity=100 time=0.0018601041666666664
EXTRACT: note_off channel=3 note=67 velocity=0 time=0.016740937499999997
EXTRACT: note_on channel=3 note=67 velocity=111 time=0.013020729166666665
EXTRACT: note_off channel=1 note=28 velocity=0 time=0.0037202083333333327
EXTRACT: note_on channel=1 note=30 velocity=103 time=0.005580312499999999
EXTRACT: note_on channel=9 note=42 velocity=52 time=0
EXTRACT: note_off channel=9 note=42 velocity=0 time=0.0074404166666666655
EXTRACT: note_off channel=4 note=88 velocity=0 time=0.06696374999999999
EXTRACT: note_off channel=4 note=100 velocity=0 time=0.0037202083333333327
EXTRACT: note_off channel=4 note=95 velocity=0 time=0.0074404166666666655
EXTRACT: note_off channel=3 note=67 velocity=0 time=0.07998447916666665
EXTRACT: note_on channel=4 note=88 velocity=96 time=0.011160624999999999
EXTRACT: note_on channel=4 note=100 velocity=100 time=0.0018601041666666664
EXTRACT: note_on channel=4 note=95 velocity=100 time=0.0018601041666666664
EXTRACT: note_on channel=3 note=67 velocity=107 time=0.0018601041666666664
EXTRACT: note_off channel=4 note=88 velocity=0 time=0.06138343749999999
EXTRACT: note_off channel=4 note=100 velocity=0 time=0.0074404166666666655
EXTRACT: note_off channel=4 note=95 velocity=0 time=0.0037202083333333327
EXTRACT: note_on channel=9 note=40 velocity=92 time=0.013020729166666665
EXTRACT: note_off channel=9 note=40 velocity=0 time=0.0074404166666666655
EXTRACT: note_on channel=4 note=95 velocity=104 time=0.04092229166666666
EXTRACT: note_on channel=4 note=88 velocity=108 time=0.0018601041666666664
EXTRACT: note_on channel=4 note=100 velocity=108 time=0.0018601041666666664
EXTRACT: note_off channel=3 note=67 velocity=0 time=0.0018601041666666664
EXTRACT: note_off channel=1 note=30 velocity=0 time=0.005580312499999999
EXTRACT: note_on channel=3 note=67 velocity=113 time=0.011160624999999999
EXTRACT: note_on channel=1 note=32 velocity=106 time=0.018601041666666665
EXTRACT: note_on channel=9 note=40 velocity=101 time=0
EXTRACT: note_on channel=9 note=42 velocity=51 time=0
EXTRACT: note_off channel=9 note=42 velocity=0 time=0.0074404166666666655
EXTRACT: note_off channel=9 note=40 velocity=0 time=0
EXTRACT: note_off channel=4 note=100 velocity=0 time=0.033481874999999994
EXTRACT: note_off channel=4 note=95 velocity=0 time=0.005580312499999999
EXTRACT: note_off channel=4 note=88 velocity=0 time=0.013020729166666665
EXTRACT: note_on channel=4 note=88 velocity=100 time=0.11160624999999998
EXTRACT: note_on channel=4 note=100 velocity=108 time=0.0037202083333333327
EXTRACT: note_on channel=4 note=95 velocity=108 time=0.0018601041666666664
EXTRACT: note_off channel=4 note=88 velocity=0 time=0.05580312499999999
EXTRACT: note_off channel=4 note=100 velocity=0 time=0.0037202083333333327
EXTRACT: note_off channel=4 note=95 velocity=0 time=0.009300520833333333
EXTRACT: note_on channel=4 note=88 velocity=100 time=0.07998447916666665
EXTRACT: note_off channel=3 note=67 velocity=0 time=0.0018601041666666664
EXTRACT: note_on channel=4 note=93 velocity=104 time=0.005580312499999999
EXTRACT: note_on channel=4 note=100 velocity=108 time=0.0037202083333333327
EXTRACT: note_on channel=3 note=64 velocity=111 time=0.009300520833333333
EXTRACT: note_off channel=1 note=32 velocity=0 time=0.005580312499999999
EXTRACT: note_on channel=1 note=33 velocity=103 time=0.005580312499999999
EXTRACT: note_on channel=2 note=45 velocity=93 time=0
EXTRACT: note_on channel=9 note=35 velocity=107 time=0
EXTRACT: note_off channel=9 note=35 velocity=0 time=0.0074404166666666655
EXTRACT: note_off channel=2 note=45 velocity=0 time=0.19531093749999998
EXTRACT: note_on channel=2 note=45 velocity=94 time=0.005580312499999999
EXTRACT: note_off channel=4 note=100 velocity=0 time=0.05580312499999999
EXTRACT: note_off channel=4 note=93 velocity=0 time=0.0018601041666666664
EXTRACT: note_off channel=4 note=88 velocity=0 time=0.011160624999999999
EXTRACT: note_off channel=3 note=64 velocity=0 time=0.016740937499999997
EXTRACT: note_off channel=1 note=33 velocity=0 time=0.057663229166666656
EXTRACT: note_off channel=2 note=45 velocity=0 time=0
EXTRACT: note_on channel=1 note=37 velocity=101 time=0.005580312499999999
EXTRACT: note_on channel=2 note=49 velocity=88 time=0
EXTRACT: note_on channel=4 note=95 velocity=68 time=0
EXTRACT: note_on channel=9 note=42 velocity=88 time=0
EXTRACT: note_on channel=9 note=40 velocity=108 time=0
EXTRACT: note_off channel=9 note=40 velocity=0 time=0.0074404166666666655
EXTRACT: note_off channel=9 note=42 velocity=0 time=0
EXTRACT: note_on channel=4 note=93 velocity=68 time=0.08184458333333332
EXTRACT: note_off channel=4 note=95 velocity=0 time=0.014880833333333331
EXTRACT: note_on channel=4 note=91 velocity=68 time=0.07440416666666666
EXTRACT: note_off channel=4 note=93 velocity=0 time=0.014880833333333331
EXTRACT: note_off channel=2 note=49 velocity=0 time=0.009300520833333333
EXTRACT: note_on channel=2 note=49 velocity=90 time=0.005580312499999999
EXTRACT: note_on channel=9 note=42 velocity=60 time=0
EXTRACT: note_off channel=9 note=42 velocity=0 time=0.0074404166666666655
EXTRACT: note_on channel=4 note=85 velocity=68 time=0.05208291666666666
EXTRACT: note_off channel=4 note=91 velocity=0 time=0.014880833333333331
EXTRACT: note_off channel=1 note=37 velocity=0 time=0.059523333333333324
EXTRACT: note_on channel=4 note=95 velocity=68 time=0.0074404166666666655
EXTRACT: note_off channel=2 note=49 velocity=0 time=0.0018601041666666664
EXTRACT: note_on channel=1 note=40 velocity=106 time=0.005580312499999999
EXTRACT: note_on channel=2 note=52 velocity=93 time=0
EXTRACT: note_on channel=9 note=42 velocity=83 time=0
EXTRACT: note_on channel=9 note=35 velocity=108 time=0
EXTRACT: note_off channel=9 note=35 velocity=0 time=0.0074404166666666655
EXTRACT: note_off channel=9 note=42 velocity=0 time=0
EXTRACT: note_off channel=4 note=85 velocity=0 time=0.0074404166666666655
EXTRACT: note_on channel=4 note=93 velocity=68 time=0.059523333333333324
EXTRACT: note_off channel=4 note=95 velocity=0 time=0.022321249999999997
EXTRACT: note_on channel=4 note=91 velocity=36 time=0.08184458333333332
EXTRACT: note_off channel=4 note=93 velocity=0 time=0.022321249999999997
EXTRACT: note_off channel=2 note=52 velocity=0 time=0.0018601041666666664
EXTRACT: note_on channel=2 note=52 velocity=84 time=0.005580312499999999
EXTRACT: note_on channel=9 note=42 velocity=59 time=0
EXTRACT: note_off channel=9 note=42 velocity=0 time=0.0074404166666666655
EXTRACT: note_on channel=4 note=85 velocity=56 time=0.05208291666666666
EXTRACT: note_off channel=4 note=91 velocity=0 time=0.02604145833333333
EXTRACT: note_off channel=1 note=40 velocity=0 time=0.057663229166666656
EXTRACT: note_off channel=2 note=52 velocity=0 time=0
EXTRACT: note_on channel=1 note=42 velocity=102 time=0.005580312499999999
EXTRACT: note_on channel=2 note=54 velocity=93 time=0
EXTRACT: note_on channel=9 note=42 velocity=88 time=0
EXTRACT: note_on channel=9 note=40 velocity=107 time=0
EXTRACT: note_on channel=4 note=95 velocity=76 time=0.0018601041666666664
EXTRACT: note_off channel=9 note=40 velocity=0 time=0.005580312499999999
EXTRACT: note_off channel=9 note=42 velocity=0 time=0
EXTRACT: note_off channel=4 note=85 velocity=0 time=0.06138343749999999
EXTRACT: note_on channel=4 note=93 velocity=72 time=0.02046114583333333
EXTRACT: note_off channel=4 note=95 velocity=0 time=0.031621770833333326
EXTRACT: note_on channel=4 note=91 velocity=60 time=0.048362708333333324
EXTRACT: note_off channel=2 note=54 velocity=0 time=0.033481874999999994
EXTRACT: note_on channel=2 note=52 velocity=90 time=0.005580312499999999
EXTRACT: note_on channel=9 note=42 velocity=59 time=0
EXTRACT: note_off channel=9 note=42 velocity=0 time=0.0074404166666666655
EXTRACT: note_off channel=4 note=93 velocity=0 time=0.0037202083333333327
EXTRACT: note_on channel=4 note=85 velocity=52 time=0.059523333333333324
EXTRACT: note_off channel=4 note=91 velocity=0 time=0.03906218749999999
EXTRACT: note_off channel=1 note=42 velocity=0 time=0.033481874999999994
EXTRACT: note_off channel=2 note=52 velocity=0 time=0
EXTRACT: note_on channel=1 note=33 velocity=100 time=0.005580312499999999
EXTRACT: note_on channel=2 note=45 velocity=92 time=0
EXTRACT: note_on channel=9 note=42 velocity=85 time=0
EXTRACT: note_on channel=9 note=35 velocity=108 time=0
EXTRACT: note_off channel=9 note=35 velocity=0 time=0.0074404166666666655
EXTRACT: note_off channel=9 note=42 velocity=0 time=0
EXTRACT: note_on channel=4 note=95 velocity=84 time=0.005580312499999999
EXTRACT: note_off channel=4 note=85 velocity=0 time=0.05580312499999999
EXTRACT: note_on channel=4 note=93 velocity=68 time=0.04650260416666666
EXTRACT: note_off channel=4 note=95 velocity=0 time=0.029761666666666662
EXTRACT: note_off channel=2 note=45 velocity=0 time=0.057663229166666656
EXTRACT: note_on channel=2 note=45 velocity=92 time=0.005580312499999999
EXTRACT: note_on channel=9 note=42 velocity=56 time=0
EXTRACT: note_on channel=4 note=91 velocity=64 time=0.0074404166666666655
EXTRACT: note_off channel=9 note=42 velocity=0 time=0
EXTRACT: note_on channel=3 note=67 velocity=113 time=0.0018601041666666664
EXTRACT: note_off channel=4 note=93 velocity=0 time=0.03534197916666666
EXTRACT: note_on channel=4 note=85 velocity=52 time=0.04278239583333333
EXTRACT: note_off channel=3 note=67 velocity=0 time=0.005580312499999999
EXTRACT: note_off channel=4 note=91 velocity=0 time=0.044642499999999995
EXTRACT: note_off channel=1 note=33 velocity=0 time=0.005580312499999999
EXTRACT: note_off channel=2 note=45 velocity=0 time=0
EXTRACT: note_on channel=1 note=37 velocity=94 time=0.005580312499999999
EXTRACT: note_on channel=2 note=49 velocity=84 time=0
EXTRACT: note_on channel=9 note=40 velocity=107 time=0
EXTRACT: note_on channel=9 note=42 velocity=82 time=0
EXTRACT: note_on channel=4 note=95 velocity=84 time=0.0074404166666666655
EXTRACT: note_off channel=9 note=42 velocity=0 time=0
EXTRACT: note_off channel=9 note=40 velocity=0 time=0
EXTRACT: note_on channel=3 note=67 velocity=116 time=0.005580312499999999
EXTRACT: note_off channel=4 note=85 velocity=0 time=0.06324354166666665
EXTRACT: note_on channel=4 note=93 velocity=64 time=0.04650260416666666
EXTRACT: note_off channel=3 note=67 velocity=0 time=0.0074404166666666655
EXTRACT: note_off channel=4 note=95 velocity=0 time=0.029761666666666662
EXTRACT: note_off channel=2 note=49 velocity=0 time=0.04278239583333333
EXTRACT: note_on channel=2 note=49 velocity=88 time=0.005580312499999999
EXTRACT: note_on channel=9 note=42 velocity=58 time=0
EXTRACT: note_on channel=4 note=91 velocity=52 time=0.0018601041666666664
EXTRACT: note_off channel=9 note=42 velocity=0 time=0.005580312499999999
EXTRACT: note_on channel=3 note=67 velocity=116 time=0.013020729166666665
EXTRACT: note_off channel=4 note=93 velocity=0 time=0.016740937499999997
EXTRACT: note_on channel=4 note=85 velocity=48 time=0.04092229166666666
EXTRACT: note_off channel=4 note=91 velocity=0 time=0.06324354166666665
EXTRACT: note_off channel=1 note=37 velocity=0 time=0.0018601041666666664
EXTRACT: note_off channel=2 note=49 velocity=0 time=0
EXTRACT: note_on channel=1 note=40 velocity=103 time=0.005580312499999999
EXTRACT: note_on channel=2 note=52 velocity=90 time=0
EXTRACT: note_on channel=9 note=35 velocity=107 time=0
EXTRACT: note_on channel=9 note=42 velocity=86 time=0
EXTRACT: note_off channel=9 note=42 velocity=0 time=0.0074404166666666655
EXTRACT: note_off channel=9 note=35 velocity=0 time=0
EXTRACT: note_on channel=4 note=95 velocity=76 time=0.022321249999999997
EXTRACT: note_off channel=4 note=85 velocity=0 time=0.06138343749999999
EXTRACT: note_on channel=4 note=93 velocity=56 time=0.02604145833333333
EXTRACT: note_off channel=4 note=95 velocity=0 time=0.033481874999999994
EXTRACT: note_off channel=2 note=52 velocity=0 time=0.05208291666666666
EXTRACT: note_on channel=2 note=52 velocity=94 time=0.005580312499999999
EXTRACT: note_on channel=9 note=42 velocity=67 time=0
EXTRACT: note_off channel=9 note=42 velocity=0 time=0.0074404166666666655
EXTRACT: note_on channel=4 note=91 velocity=60 time=0.0018601041666666664
EXTRACT: note_off channel=4 note=93 velocity=0 time=0.024181354166666662
EXTRACT: note_off channel=3 note=67 velocity=0 time=0.018601041666666665
EXTRACT: note_on channel=3 note=64 velocity=104 time=0.005580312499999999
EXTRACT: note_on channel=4 note=85 velocity=52 time=0.0074404166666666655
EXTRACT: note_off channel=3 note=64 velocity=0 time=0.05580312499999999
EXTRACT: note_off channel=4 note=91 velocity=0 time=0
EXTRACT: note_off channel=1 note=40 velocity=0 time=0.022321249999999997
EXTRACT: note_off channel=2 note=52 velocity=0 time=0
EXTRACT: note_on channel=1 note=42 velocity=101 time=0.005580312499999999
EXTRACT: note_on channel=2 note=54 velocity=88 time=0
EXTRACT: note_on channel=9 note=40 velocity=108 time=0
EXTRACT: note_on channel=9 note=42 velocity=86 time=0
EXTRACT: note_on channel=4 note=95 velocity=80 time=0.0037202083333333327
EXTRACT: note_off channel=9 note=42 velocity=0 time=0.0037202083333333327
EXTRACT: note_off channel=9 note=40 velocity=0 time=0
EXTRACT: note_on channel=3 note=66 velocity=116 time=0.0074404166666666655
EXTRACT: note_off channel=4 note=85 velocity=0 time=0.05394302083333333
EXTRACT: note_on channel=4 note=93 velocity=56 time=0.04092229166666666
EXTRACT: note_off channel=4 note=95 velocity=0 time=0.018601041666666665
EXTRACT: note_on channel=4 note=91 velocity=68 time=0.044642499999999995
EXTRACT: note_off channel=2 note=54 velocity=0 time=0.029761666666666662
EXTRACT: note_on channel=2 note=52 velocity=90 time=0.005580312499999999
EXTRACT: note_off channel=4 note=93 velocity=0 time=0
EXTRACT: note_on channel=9 note=42 velocity=61 time=0
EXTRACT: note_off channel=9 note=42 velocity=0 time=0.0074404166666666655
EXTRACT: note_on channel=4 note=85 velocity=56 time=0.07254406249999999
EXTRACT: note_off channel=4 note=91 velocity=0 time=0.024181354166666662
EXTRACT: note_off channel=3 note=66 velocity=0 time=0.022321249999999997
EXTRACT: note_off channel=1 note=42 velocity=0 time=0.009300520833333333
EXTRACT: note_on channel=3 note=64 velocity=113 time=0
EXTRACT: note_off channel=2 note=52 velocity=0 time=0.0074404166666666655
EXTRACT: note_on channel=1 note=28 velocity=104 time=0.005580312499999999
EXTRACT: note_on channel=2 note=40 velocity=94 time=0
EXTRACT: note_on channel=9 note=35 velocity=107 time=0
EXTRACT: note_on channel=9 note=42 velocity=84 time=0
EXTRACT: note_off channel=9 note=42 velocity=0 time=0.0074404166666666655
EXTRACT: note_off channel=9 note=35 velocity=0 time=0
EXTRACT: note_off channel=4 note=85 velocity=0 time=0.059523333333333324
EXTRACT: note_off channel=2 note=40 velocity=0 time=0.13578760416666666
EXTRACT: note_on channel=4 note=93 velocity=77 time=0.0037202083333333327
EXTRACT: note_on channel=2 note=40 velocity=96 time=0.0018601041666666664
EXTRACT: note_on channel=4 note=97 velocity=83 time=0
EXTRACT: note_on channel=9 note=42 velocity=59 time=0
EXTRACT: note_off channel=9 note=42 velocity=0 time=0.0074404166666666655
EXTRACT: note_off channel=1 note=28 velocity=0 time=0.13578760416666666
EXTRACT: note_off channel=2 note=40 velocity=0 time=0
EXTRACT: note_off channel=3 note=64 velocity=0 time=0.0018601041666666664
EXTRACT: note_on channel=1 note=32 velocity=100 time=0.0037202083333333327
EXTRACT: note_on channel=2 note=44 velocity=76 time=0
EXTRACT: note_on channel=9 note=40 velocity=108 time=0
EXTRACT: note_on channel=9 note=42 velocity=88 time=0
EXTRACT: note_off channel=9 note=42 velocity=0 time=0.0074404166666666655
EXTRACT: note_off channel=9 note=40 velocity=0 time=0
EXTRACT: note_on channel=4 note=95 velocity=69 time=0.024181354166666662
EXTRACT: note_on channel=4 note=92 velocity=57 time=0.0037202083333333327
EXTRACT: note_off channel=4 note=97 velocity=0 time=0.014880833333333331
EXTRACT: note_off channel=4 note=93 velocity=0 time=0.02046114583333333
EXTRACT: note_off channel=4 note=95 velocity=0 time=0.11160624999999998
EXTRACT: note_off channel=4 note=92 velocity=0 time=0.011160624999999999
EXTRACT: note_off channel=2 note=44 velocity=0 time=0.009300520833333333
EXTRACT: note_on channel=2 note=44 velocity=86 time=0.005580312499999999
EXTRACT: note_on channel=9 note=42 velocity=58 time=0
EXTRACT: note_off channel=9 note=42 velocity=0 time=0.0074404166666666655
EXTRACT: note_on channel=4 note=93 velocity=73 time=0.018601041666666665
EXTRACT: note_on channel=4 note=97 velocity=77 time=0.0074404166666666655
EXTRACT: note_off channel=1 note=32 velocity=0 time=0.10974614583333332
EXTRACT: note_off channel=2 note=44 velocity=0 time=0
EXTRACT: note_on channel=1 note=35 velocity=103 time=0.005580312499999999
EXTRACT: note_on channel=2 note=47 velocity=90 time=0
EXTRACT: note_on channel=9 note=42 velocity=87 time=0
EXTRACT: note_on channel=9 note=35 velocity=108 time=0
EXTRACT: note_off channel=9 note=35 velocity=0 time=0.0074404166666666655
EXTRACT: note_off channel=9 note=42 velocity=0 time=0
EXTRACT: note_on channel=4 note=95 velocity=73 time=0.016740937499999997
EXTRACT: note_on channel=4 note=92 velocity=73 time=0.0018601041666666664
EXTRACT: note_off channel=4 note=97 velocity=0 time=0.027901562499999994
EXTRACT: note_off channel=4 note=93 velocity=0 time=0.048362708333333324
EXTRACT: note_off channel=4 note=95 velocity=0 time=0.09114510416666666
EXTRACT: note_off channel=4 note=92 velocity=0 time=0.0074404166666666655
EXTRACT: note_off channel=2 note=47 velocity=0 time=0.0018601041666666664
EXTRACT: note_on channel=2 note=47 velocity=86 time=0.005580312499999999
EXTRACT: note_on channel=9 note=42 velocity=57 time=0
EXTRACT: note_off channel=9 note=42 velocity=0 time=0.0074404166666666655
EXTRACT: note_off channel=1 note=35 velocity=0 time=0.11532645833333331
EXTRACT: note_on channel=4 note=92 velocity=57 time=0.0018601041666666664
EXTRACT: note_on channel=4 note=95 velocity=63 time=0.0074404166666666655
EXTRACT: note_off channel=2 note=47 velocity=0 time=0.011160624999999999
EXTRACT: note_on channel=1 note=37 velocity=99 time=0.005580312499999999
EXTRACT: note_on channel=2 note=49 velocity=88 time=0
EXTRACT: note_on channel=9 note=42 velocity=86 time=0
EXTRACT: note_on channel=9 note=40 velocity=107 time=0
EXTRACT: note_off channel=9 note=40 velocity=0 time=0.0074404166666666655
EXTRACT: note_off channel=9 note=42 velocity=0 time=0
EXTRACT: note_off channel=4 note=92 velocity=0 time=0.18229020833333331
EXTRACT: note_off channel=2 note=49 velocity=0 time=0.013020729166666665
EXTRACT: note_on channel=2 note=47 velocity=80 time=0.005580312499999999
EXTRACT: note_on channel=9 note=42 velocity=63 time=0
EXTRACT: note_on channel=4 note=97 velocity=81 time=0.0074404166666666655
EXTRACT: note_off channel=9 note=42 velocity=0 time=0
EXTRACT: note_off channel=4 note=95 velocity=0 time=0.0074404166666666655
EXTRACT: note_on channel=4 note=93 velocity=79 time=0
EXTRACT: note_off channel=1 note=37 velocity=0 time=0.1283471875
EXTRACT: note_off channel=2 note=47 velocity=0 time=0
EXTRACT: note_on channel=4 note=92 velocity=79 time=0.0037202083333333327
EXTRACT: note_on channel=1 note=28 velocity=104 time=0.0018601041666666664
EXTRACT: note_on channel=2 note=40 velocity=94 time=0
EXTRACT: note_on channel=4 note=95 velocity=81 time=0
EXTRACT: note_on channel=9 note=42 velocity=85 time=0
EXTRACT: note_on channel=9 note=35 velocity=108 time=0
EXTRACT: note_off channel=9 note=35 velocity=0 time=0.0074404166666666655
EXTRACT: note_off channel=9 note=42 velocity=0 time=0
EXTRACT: note_off channel=4 note=97 velocity=0 time=0.02046114583333333
EXTRACT: note_off channel=4 note=93 velocity=0 time=0.033481874999999994
EXTRACT: note_off channel=2 note=40 velocity=0 time=0.14136791666666665
EXTRACT: note_on channel=2 note=40 velocity=94 time=0.005580312499999999
EXTRACT: note_on channel=9 note=42 velocity=64 time=0
EXTRACT: note_off channel=9 note=42 velocity=0 time=0.0074404166666666655
EXTRACT: note_off channel=4 note=92 velocity=0 time=0.06696374999999999
EXTRACT: note_off channel=4 note=95 velocity=0 time=0.0018601041666666664
EXTRACT: note_on channel=4 note=92 velocity=75 time=0.06324354166666665
EXTRACT: note_off channel=1 note=28 velocity=0 time=0.0037202083333333327
EXTRACT: note_off channel=2 note=40 velocity=0 time=0
EXTRACT: note_on channel=1 note=32 velocity=100 time=0.005580312499999999
EXTRACT: note_on channel=2 note=44 velocity=80 time=0
EXTRACT: note_on channel=9 note=42 velocity=87 time=0
EXTRACT: note_on channel=9 note=40 velocity=107 time=0
EXTRACT: note_on channel=4 note=95 velocity=83 time=0.005580312499999999
EXTRACT: note_off channel=9 note=40 velocity=0 time=0.0018601041666666664
EXTRACT: note_off channel=9 note=42 velocity=0 time=0
EXTRACT: note_off channel=2 note=44 velocity=0 time=0.19531093749999998
EXTRACT: note_on channel=2 note=44 velocity=86 time=0.005580312499999999
EXTRACT: note_on channel=9 note=42 velocity=59 time=0
EXTRACT: note_off channel=9 note=42 velocity=0 time=0.0074404166666666655
EXTRACT: note_on channel=4 note=97 velocity=79 time=0.0037202083333333327
EXTRACT: note_off channel=4 note=95 velocity=0 time=0.0018601041666666664
EXTRACT: note_off channel=4 note=92 velocity=0 time=0
EXTRACT: note_on channel=4 note=93 velocity=77 time=0.009300520833333333
EXTRACT: note_off channel=1 note=32 velocity=0 time=0.12090677083333332
EXTRACT: note_off channel=2 note=44 velocity=0 time=0
EXTRACT: note_on channel=1 note=35 velocity=100 time=0.005580312499999999
EXTRACT: note_on channel=2 note=47 velocity=90 time=0
EXTRACT: note_on channel=9 note=35 velocity=107 time=0
EXTRACT: note_on channel=9 note=42 velocity=87 time=0
EXTRACT: note_off channel=9 note=42 velocity=0 time=0.0074404166666666655
EXTRACT: note_off channel=9 note=35 velocity=0 time=0
EXTRACT: note_on channel=4 note=95 velocity=77 time=0.02046114583333333
EXTRACT: note_off channel=4 note=93 velocity=0 time=0.0037202083333333327
EXTRACT: note_on channel=4 note=92 velocity=75 time=0.0037202083333333327
EXTRACT: note_off channel=4 note=97 velocity=0 time=0.013020729166666665
EXTRACT: note_off channel=2 note=47 velocity=0 time=0.1543886458333333
EXTRACT: note_on channel=2 note=47 velocity=90 time=0.005580312499999999
EXTRACT: note_on channel=9 note=42 velocity=58 time=0
EXTRACT: note_off channel=9 note=42 velocity=0 time=0.0074404166666666655
EXTRACT: note_off channel=4 note=92 velocity=0 time=0.07254406249999999
EXTRACT: note_off channel=4 note=95 velocity=0 time=0.024181354166666662
EXTRACT: note_on channel=3 note=67 velocity=112 time=0.024181354166666662
EXTRACT: note_off channel=1 note=35 velocity=0 time=0.014880833333333331
EXTRACT: note_off channel=2 note=47 velocity=0 time=0
EXTRACT: note_on channel=1 note=37 velocity=98 time=0.005580312499999999
EXTRACT: note_on channel=2 note=49 velocity=88 time=0
EXTRACT: note_on channel=9 note=40 velocity=108 time=0
EXTRACT: note_on channel=9 note=42 velocity=85 time=0
EXTRACT: note_off channel=9 note=42 velocity=0 time=0.0074404166666666655
EXTRACT: note_off channel=9 note=40 velocity=0 time=0
EXTRACT: note_off channel=3 note=67 velocity=0 time=0.11532645833333331
EXTRACT: note_on channel=3 note=67 velocity=109 time=0.07626427083333333
EXTRACT: note_off channel=2 note=49 velocity=0 time=0.0037202083333333327
EXTRACT: note_on channel=2 note=47 velocity=90 time=0.005580312499999999
EXTRACT: note_on channel=9 note=42 velocity=62 time=0
EXTRACT: note_off channel=9 note=42 velocity=0 time=0.0074404166666666655
EXTRACT: note_off channel=3 note=67 velocity=0 time=0.06882385416666666
EXTRACT: note_off channel=1 note=37 velocity=0 time=0.03906218749999999
EXTRACT: note_off channel=2 note=47 velocity=0 time=0.027901562499999994
EXTRACT: note_on channel=1 note=35 velocity=108 time=0.005580312499999999
EXTRACT: note_on channel=2 note=47 velocity=98 time=0
EXTRACT: note_on channel=3 note=66 velocity=112 time=0
EXTRACT: note_on channel=9 note=35 velocity=107 time=0
EXTRACT: note_on channel=9 note=42 velocity=84 time=0
EXTRACT: note_off channel=9 note=42 velocity=0 time=0.0074404166666666655
EXTRACT: note_off channel=9 note=35 velocity=0 time=0
EXTRACT: note_off channel=3 note=66 velocity=0 time=0.15066843749999997
EXTRACT: note_off channel=2 note=47 velocity=0 time=0.044642499999999995
EXTRACT: note_on channel=3 note=66 velocity=109 time=0
EXTRACT: note_on channel=2 note=47 velocity=92 time=0.005580312499999999
EXTRACT: note_on channel=9 note=42 velocity=59 time=0
EXTRACT: note_off channel=9 note=42 velocity=0 time=0.0074404166666666655
EXTRACT: note_on channel=4 note=85 velocity=84 time=0.027901562499999994
EXTRACT: note_off channel=3 note=66 velocity=0 time=0.059523333333333324
EXTRACT: note_off channel=4 note=85 velocity=0 time=0.005580312499999999
EXTRACT: note_off channel=1 note=35 velocity=0 time=0.013020729166666665
EXTRACT: note_off channel=2 note=47 velocity=0 time=0.029761666666666662
EXTRACT: note_on channel=3 note=66 velocity=110 time=0.0018601041666666664
EXTRACT: note_on channel=4 note=93 velocity=80 time=0.0018601041666666664
EXTRACT: note_on channel=1 note=39 velocity=106 time=0.0018601041666666664
EXTRACT: note_on channel=2 note=51 velocity=92 time=0
EXTRACT: note_on channel=9 note=40 velocity=108 time=0
EXTRACT: note_on channel=9 note=42 velocity=88 time=0
EXTRACT: note_on channel=4 note=97 velocity=92 time=0.0018601041666666664
EXTRACT: note_off channel=9 note=42 velocity=0 time=0.005580312499999999
EXTRACT: note_off channel=9 note=40 velocity=0 time=0
EXTRACT: note_off channel=2 note=51 velocity=0 time=0.19531093749999998
EXTRACT: note_on channel=2 note=51 velocity=92 time=0.005580312499999999
EXTRACT: note_on channel=9 note=42 velocity=58 time=0
EXTRACT: note_off channel=9 note=42 velocity=0 time=0.0074404166666666655
EXTRACT: note_off channel=3 note=66 velocity=0 time=0.024181354166666662
EXTRACT: note_on channel=4 note=85 velocity=52 time=0.005580312499999999
EXTRACT: note_off channel=4 note=97 velocity=0 time=0.009300520833333333
EXTRACT: note_off channel=4 note=93 velocity=0 time=0
EXTRACT: note_on channel=3 note=66 velocity=112 time=0.09486531249999998
EXTRACT: note_off channel=1 note=39 velocity=0 time=0.0018601041666666664
EXTRACT: note_off channel=2 note=51 velocity=0 time=0
EXTRACT: note_off channel=4 note=85 velocity=0 time=0
EXTRACT: note_on channel=1 note=42 velocity=104 time=0.005580312499999999
EXTRACT: note_on channel=2 note=54 velocity=90 time=0
EXTRACT: note_on channel=4 note=95 velocity=72 time=0
EXTRACT: note_on channel=4 note=91 velocity=64 time=0
EXTRACT: note_on channel=9 note=42 velocity=87 time=0
EXTRACT: note_on channel=9 note=35 velocity=108 time=0
EXTRACT: note_off channel=9 note=35 velocity=0 time=0.0074404166666666655
EXTRACT: note_off channel=9 note=42 velocity=0 time=0
EXTRACT: note_off channel=4 note=91 velocity=0 time=0.04650260416666666
EXTRACT: note_on channel=4 note=92 velocity=56 time=0.011160624999999999
EXTRACT: note_off channel=2 note=54 velocity=0 time=0.1376477083333333
EXTRACT: note_on channel=2 note=54 velocity=88 time=0.005580312499999999
EXTRACT: note_on channel=9 note=42 velocity=57 time=0
EXTRACT: note_off channel=4 note=92 velocity=0 time=0.0037202083333333327
EXTRACT: note_off channel=9 note=42 velocity=0 time=0.0037202083333333327
EXTRACT: note_off channel=3 note=66 velocity=0 time=0.02604145833333333
EXTRACT: note_on channel=4 note=90 velocity=68 time=0.0074404166666666655
EXTRACT: note_on channel=4 note=93 velocity=72 time=0.005580312499999999
EXTRACT: note_off channel=4 note=95 velocity=0 time=0.009300520833333333
EXTRACT: note_off channel=1 note=42 velocity=0 time=0.059523333333333324
EXTRACT: note_off channel=2 note=54 velocity=0 time=0.027901562499999994
EXTRACT: note_on channel=3 note=66 velocity=108 time=0
EXTRACT: note_on channel=1 note=44 velocity=104 time=0.005580312499999999
EXTRACT: note_on channel=2 note=56 velocity=96 time=0
EXTRACT: note_on channel=9 note=42 velocity=86 time=0
EXTRACT: note_on channel=9 note=40 velocity=107 time=0
EXTRACT: note_off channel=9 note=40 velocity=0 time=0.0074404166666666655
EXTRACT: note_off channel=9 note=42 velocity=0 time=0
EXTRACT: note_off channel=3 note=66 velocity=0 time=0.14136791666666665
EXTRACT: note_off channel=2 note=56 velocity=0 time=0.05394302083333333
EXTRACT: note_on channel=3 note=67 velocity=112 time=0
EXTRACT: note_on channel=2 note=54 velocity=82 time=0.005580312499999999
EXTRACT: note_on channel=9 note=42 velocity=63 time=0
EXTRACT: note_off channel=9 note=42 velocity=0 time=0.0074404166666666655
EXTRACT: note_off channel=4 note=90 velocity=0 time=0.0018601041666666664
EXTRACT: note_off channel=4 note=93 velocity=0 time=0.03720208333333333
EXTRACT: note_off channel=1 note=44 velocity=0 time=0.09672541666666665
EXTRACT: note_off channel=2 note=54 velocity=0 time=0
EXTRACT: note_on channel=1 note=33 velocity=103 time=0.005580312499999999
EXTRACT: note_on channel=2 note=45 velocity=98 time=0
EXTRACT: note_on channel=9 note=42 velocity=85 time=0
EXTRACT: note_on channel=9 note=35 velocity=108 time=0
EXTRACT: note_off channel=9 note=35 velocity=0 time=0.0074404166666666655
EXTRACT: note_off channel=9 note=42 velocity=0 time=0
EXTRACT: note_off channel=3 note=67 velocity=0 time=0.17856999999999998
EXTRACT: note_off channel=2 note=45 velocity=0 time=0.016740937499999997
EXTRACT: note_on channel=2 note=45 velocity=100 time=0.005580312499999999
EXTRACT: note_on channel=9 note=42 velocity=64 time=0
EXTRACT: note_off channel=9 note=42 velocity=0 time=0.0074404166666666655
EXTRACT: note_on channel=4 note=83 velocity=96 time=0.027901562499999994
EXTRACT: note_off channel=4 note=83 velocity=0 time=0.08556479166666665
EXTRACT: note_off channel=1 note=33 velocity=0 time=0.022321249999999997
EXTRACT: note_off channel=2 note=45 velocity=0 time=0
EXTRACT: note_on channel=1 note=37 velocity=103 time=0.005580312499999999
EXTRACT: note_on channel=2 note=49 velocity=88 time=0
EXTRACT: note_on channel=9 note=40 velocity=107 time=0
EXTRACT: note_on channel=9 note=42 velocity=87 time=0
EXTRACT: note_off channel=9 note=42 velocity=0 time=0.0074404166666666655
EXTRACT: note_off channel=9 note=40 velocity=0 time=0
EXTRACT: note_on channel=4 note=95 velocity=100 time=0.024181354166666662
EXTRACT: note_on channel=4 note=91 velocity=68 time=0.005580312499999999
EXTRACT: note_off channel=4 note=91 velocity=0 time=0.07812437499999998
EXTRACT: note_on channel=4 note=92 velocity=72 time=0.011160624999999999
EXTRACT: note_off channel=2 note=49 velocity=0 time=0.07626427083333333
EXTRACT: note_on channel=2 note=49 velocity=92 time=0.005580312499999999
EXTRACT: note_on channel=9 note=42 velocity=59 time=0
EXTRACT: note_off channel=9 note=42 velocity=0 time=0.0074404166666666655
EXTRACT: note_off channel=4 note=95 velocity=0 time=0.009300520833333333
EXTRACT: note_on channel=4 note=83 velocity=60 time=0.033481874999999994
EXTRACT: note_off channel=4 note=92 velocity=0 time=0.022321249999999997
EXTRACT: note_off channel=4 note=83 velocity=0 time=0.057663229166666656
EXTRACT: note_off channel=1 note=37 velocity=0 time=0.013020729166666665
EXTRACT: note_off channel=2 note=49 velocity=0 time=0
EXTRACT: note_on channel=1 note=40 velocity=106 time=0.005580312499999999
EXTRACT: note_on channel=2 note=52 velocity=90 time=0
EXTRACT: note_on channel=9 note=42 velocity=87 time=0
EXTRACT: note_on channel=9 note=35 velocity=107 time=0
EXTRACT: note_off channel=9 note=35 velocity=0 time=0.0074404166666666655
EXTRACT: note_off channel=9 note=42 velocity=0 time=0
EXTRACT: note_on channel=4 note=93 velocity=68 time=0.0018601041666666664
EXTRACT: note_on channel=4 note=91 velocity=60 time=0.013020729166666665
EXTRACT: note_off channel=4 note=91 velocity=0 time=0.03720208333333333
EXTRACT: note_on channel=4 note=90 velocity=56 time=0.005580312499999999
EXTRACT: note_off channel=2 note=52 velocity=0 time=0.1376477083333333
EXTRACT: note_off channel=4 note=90 velocity=0 time=0
EXTRACT: note_off channel=4 note=93 velocity=0 time=0
EXTRACT: note_on channel=2 note=52 velocity=90 time=0.005580312499999999
EXTRACT: note_on channel=9 note=42 velocity=58 time=0
EXTRACT: note_off channel=9 note=42 velocity=0 time=0.0074404166666666655
EXTRACT: note_on channel=4 note=88 velocity=56 time=0.05580312499999999
EXTRACT: note_on channel=4 note=91 velocity=68 time=0.0018601041666666664
EXTRACT: note_off channel=1 note=40 velocity=0 time=0.03534197916666666
EXTRACT: note_on channel=3 note=67 velocity=105 time=0.029761666666666662
EXTRACT: note_off channel=2 note=52 velocity=0 time=0.013020729166666665
EXTRACT: note_on channel=1 note=42 velocity=103 time=0.005580312499999999
EXTRACT: note_on channel=2 note=54 velocity=80 time=0
EXTRACT: note_on channel=9 note=42 velocity=85 time=0
EXTRACT: note_on channel=9 note=40 velocity=108 time=0
EXTRACT: note_off channel=9 note=40 velocity=0 time=0.0074404166666666655
EXTRACT: note_off channel=9 note=42 velocity=0 time=0
EXTRACT: note_off channel=3 note=67 velocity=0 time=0.11532645833333331
EXTRACT: note_off channel=2 note=54 velocity=0 time=0.07998447916666665
EXTRACT: note_on channel=2 note=52 velocity=90 time=0.005580312499999999
EXTRACT: note_on channel=9 note=42 velocity=62 time=0
EXTRACT: note_off channel=9 note=42 velocity=0 time=0.0074404166666666655
EXTRACT: note_on channel=3 note=67 velocity=107 time=0.0074404166666666655
EXTRACT: note_off channel=4 note=91 velocity=0 time=0.013020729166666665
EXTRACT: note_off channel=4 note=88 velocity=0 time=0.02046114583333333
EXTRACT: note_off channel=1 note=42 velocity=0 time=0.09486531249999998
EXTRACT: note_off channel=2 note=52 velocity=0 time=0
EXTRACT: note_on channel=1 note=28 velocity=106 time=0.005580312499999999
EXTRACT: note_on channel=2 note=40 velocity=96 time=0
EXTRACT: note_on channel=9 note=42 velocity=84 time=0
EXTRACT: note_on channel=9 note=35 velocity=107 time=0
EXTRACT: note_off channel=9 note=35 velocity=0 time=0.0074404166666666655
EXTRACT: note_off channel=9 note=42 velocity=0 time=0
EXTRACT: note_off channel=3 note=67 velocity=0 time=0.09858552083333331
EXTRACT: note_on channel=3 note=64 velocity=106 time=0.09300520833333333
EXTRACT: note_off channel=2 note=40 velocity=0 time=0.0037202083333333327
EXTRACT: note_on channel=2 note=40 velocity=96 time=0.005580312499999999
EXTRACT: note_on channel=9 note=42 velocity=59 time=0
EXTRACT: note_off channel=9 note=42 velocity=0 time=0.0074404166666666655
EXTRACT: note_off channel=3 note=64 velocity=0 time=0.06882385416666666
EXTRACT: note_on channel=4 note=95 velocity=81 time=0.05394302083333333
EXTRACT: note_on channel=4 note=100 velocity=89 time=0.0018601041666666664
EXTRACT: note_on channel=4 note=88 velocity=85 time=0
EXTRACT: note_off channel=1 note=28 velocity=0 time=0.011160624999999999
EXTRACT: note_off channel=2 note=40 velocity=0 time=0
EXTRACT: note_on channel=1 note=32 velocity=101 time=0.005580312499999999
EXTRACT: note_on channel=2 note=44 velocity=78 time=0
EXTRACT: note_on channel=9 note=40 velocity=108 time=0
EXTRACT: note_on channel=9 note=42 velocity=88 time=0
EXTRACT: note_off channel=9 note=42 velocity=0 time=0.0074404166666666655
EXTRACT: note_off channel=9 note=40 velocity=0 time=0
EXTRACT: note_on channel=3 note=64 velocity=110 time=0.0018601041666666664
EXTRACT: note_off channel=4 note=88 velocity=0 time=0.09114510416666666
EXTRACT: note_off channel=4 note=100 velocity=0 time=0.0074404166666666655
EXTRACT: note_off channel=4 note=95 velocity=0 time=0.0037202083333333327
EXTRACT: note_off channel=3 note=64 velocity=0 time=0.07254406249999999
EXTRACT: note_on channel=4 note=88 velocity=61 time=0.009300520833333333
EXTRACT: note_on channel=4 note=95 velocity=65 time=0.0018601041666666664
EXTRACT: note_on channel=4 note=100 velocity=89 time=0.0018601041666666664
EXTRACT: note_off channel=2 note=44 velocity=0 time=0.005580312499999999
EXTRACT: note_on channel=2 note=44 velocity=84 time=0.005580312499999999
EXTRACT: note_on channel=9 note=42 velocity=58 time=0
EXTRACT: note_off channel=9 note=42 velocity=0 time=0.0074404166666666655
EXTRACT: note_on channel=3 note=62 velocity=104 time=0.013020729166666665
EXTRACT: note_off channel=4 note=88 velocity=0 time=0.02046114583333333
EXTRACT: note_off channel=4 note=100 velocity=0 time=0.009300520833333333
EXTRACT: note_off channel=4 note=95 velocity=0 time=0.0018601041666666664
EXTRACT: note_off channel=3 note=62 velocity=0 time=0.031621770833333326
EXTRACT: note_on channel=4 note=88 velocity=85 time=0.05022281249999999
EXTRACT: note_on channel=4 note=100 velocity=93 time=0
EXTRACT: note_on channel=4 note=95 velocity=85 time=0.0018601041666666664
EXTRACT: note_off channel=1 note=32 velocity=0 time=0.0074404166666666655
EXTRACT: note_off channel=2 note=44 velocity=0 time=0
EXTRACT: note_on channel=3 note=64 velocity=109 time=0.0018601041666666664
EXTRACT: note_on channel=1 note=35 velocity=105 time=0.0037202083333333327
EXTRACT: note_on channel=2 note=47 velocity=88 time=0
EXTRACT: note_on channel=9 note=42 velocity=87 time=0
EXTRACT: note_on channel=9 note=35 velocity=108 time=0
EXTRACT: note_off channel=9 note=35 velocity=0 time=0.0074404166666666655
EXTRACT: note_off channel=9 note=42 velocity=0 time=0
EXTRACT: note_off channel=4 note=100 velocity=0 time=0.07812437499999998
EXTRACT: note_off channel=4 note=88 velocity=0 time=0.0074404166666666655
EXTRACT: note_off channel=4 note=95 velocity=0 time=0.014880833333333331
EXTRACT: note_on channel=4 note=98 velocity=81 time=0.08370468749999999
EXTRACT: note_on channel=4 note=86 velocity=73 time=0.0018601041666666664
EXTRACT: note_on channel=4 note=93 velocity=73 time=0
EXTRACT: note_off channel=2 note=47 velocity=0 time=0.009300520833333333
EXTRACT: note_on channel=2 note=47 velocity=88 time=0.005580312499999999
EXTRACT: note_on channel=9 note=42 velocity=57 time=0
EXTRACT: note_off channel=9 note=42 velocity=0 time=0.0074404166666666655
EXTRACT: note_off channel=4 note=86 velocity=0 time=0.03720208333333333
EXTRACT: note_off channel=4 note=93 velocity=0 time=0.009300520833333333
EXTRACT: note_off channel=4 note=98 velocity=0 time=0
EXTRACT: note_off channel=3 note=64 velocity=0 time=0.011160624999999999
EXTRACT: note_on channel=4 note=91 velocity=81 time=0.07440416666666666
EXTRACT: note_on channel=4 note=95 velocity=89 time=0.0018601041666666664
EXTRACT: note_off channel=1 note=35 velocity=0 time=0.0018601041666666664
EXTRACT: note_off channel=2 note=47 velocity=0 time=0
EXTRACT: note_on channel=3 note=64 velocity=109 time=0
EXTRACT: note_on channel=4 note=83 velocity=81 time=0
EXTRACT: note_on channel=1 note=37 velocity=99 time=0.005580312499999999
EXTRACT: note_on channel=2 note=49 velocity=88 time=0
EXTRACT: note_on channel=9 note=40 velocity=107 time=0
EXTRACT: note_on channel=9 note=42 velocity=86 time=0
EXTRACT: note_off channel=9 note=42 velocity=0 time=0.0074404166666666655
EXTRACT: note_off channel=9 note=40 velocity=0 time=0
EXTRACT: note_off channel=4 note=83 velocity=0 time=0.06138343749999999
EXTRACT: note_off channel=4 note=95 velocity=0 time=0.013020729166666665
EXTRACT: note_off channel=4 note=91 velocity=0 time=0.0074404166666666655
EXTRACT: note_off channel=3 note=64 velocity=0 time=0.07812437499999998
EXTRACT: note_on channel=4 note=88 velocity=81 time=0.029761666666666662
EXTRACT: note_on channel=4 note=93 velocity=73 time=0.0037202083333333327
EXTRACT: note_off channel=2 note=49 velocity=0 time=0.0018601041666666664
EXTRACT: note_on channel=4 note=81 velocity=69 time=0
EXTRACT: note_on channel=2 note=47 velocity=86 time=0.005580312499999999
EXTRACT: note_on channel=9 note=42 velocity=63 time=0
EXTRACT: note_off channel=9 note=42 velocity=0 time=0.0074404166666666655
EXTRACT: note_on channel=3 note=64 velocity=106 time=0.016740937499999997
EXTRACT: note_off channel=4 note=81 velocity=0 time=0.02604145833333333
EXTRACT: note_off channel=4 note=93 velocity=0 time=0
EXTRACT: note_off channel=4 note=88 velocity=0 time=0.0037202083333333327
EXTRACT: note_off channel=1 note=37 velocity=0 time=0.08556479166666665
EXTRACT: note_off channel=2 note=47 velocity=0 time=0.0037202083333333327
EXTRACT: note_on channel=4 note=79 velocity=81 time=0.0018601041666666664
EXTRACT: note_on channel=4 note=86 velocity=81 time=0.0018601041666666664
EXTRACT: note_on channel=1 note=28 velocity=105 time=0.0018601041666666664
EXTRACT: note_on channel=2 note=40 velocity=96 time=0
EXTRACT: note_on channel=9 note=35 velocity=108 time=0
EXTRACT: note_on channel=9 note=42 velocity=85 time=0
EXTRACT: note_on channel=4 note=91 velocity=81 time=0.0018601041666666664
EXTRACT: note_off channel=9 note=42 velocity=0 time=0.005580312499999999
EXTRACT: note_off channel=9 note=35 velocity=0 time=0
EXTRACT: note_off channel=4 note=91 velocity=0 time=0.10974614583333332
EXTRACT: note_off channel=4 note=79 velocity=0 time=0.005580312499999999
EXTRACT: note_off channel=4 note=86 velocity=0 time=0.005580312499999999
EXTRACT: note_off channel=3 note=64 velocity=0 time=0.014880833333333331
EXTRACT: note_off channel=2 note=40 velocity=0 time=0.059523333333333324
EXTRACT: note_on channel=2 note=40 velocity=96 time=0.005580312499999999
EXTRACT: note_on channel=9 note=42 velocity=64 time=0
EXTRACT: note_off channel=9 note=42 velocity=0 time=0.0074404166666666655
EXTRACT: note_on channel=4 note=88 velocity=89 time=0.031621770833333326
EXTRACT: note_on channel=4 note=76 velocity=81 time=0.005580312499999999
EXTRACT: note_on channel=4 note=83 velocity=69 time=0.013020729166666665
EXTRACT: note_off channel=1 note=28 velocity=0 time=0.08556479166666665
EXTRACT: note_off channel=2 note=40 velocity=0 time=0
EXTRACT: note_on channel=1 note=32 velocity=103 time=0.005580312499999999
EXTRACT: note_on channel=2 note=44 velocity=84 time=0
EXTRACT: note_on channel=9 note=40 velocity=107 time=0
EXTRACT: note_on channel=9 note=42 velocity=87 time=0
EXTRACT: note_off channel=9 note=42 velocity=0 time=0.0074404166666666655
EXTRACT: note_off channel=9 note=40 velocity=0 time=0
EXTRACT: note_off channel=2 note=44 velocity=0 time=0.19531093749999998
EXTRACT: note_on channel=2 note=44 velocity=86 time=0.005580312499999999
EXTRACT: note_on channel=9 note=42 velocity=59 time=0
EXTRACT: note_off channel=9 note=42 velocity=0 time=0.0074404166666666655
EXTRACT: note_off channel=1 note=32 velocity=0 time=0.13578760416666666
EXTRACT: note_off channel=2 note=44 velocity=0 time=0
EXTRACT: note_on channel=1 note=35 velocity=102 time=0.005580312499999999
EXTRACT: note_on channel=2 note=47 velocity=94 time=0
EXTRACT: note_on channel=9 note=42 velocity=87 time=0
EXTRACT: note_on channel=9 note=35 velocity=107 time=0
EXTRACT: note_off channel=9 note=35 velocity=0 time=0.0074404166666666655
EXTRACT: note_off channel=9 note=42 velocity=0 time=0
EXTRACT: note_off channel=2 note=47 velocity=0 time=0.10602593749999999
EXTRACT: note_on channel=2 note=63 velocity=97 time=0.05022281249999999
EXTRACT: note_off channel=1 note=35 velocity=0 time=0.009300520833333333
EXTRACT: note_on channel=2 note=58 velocity=103 time=0
EXTRACT: note_on channel=1 note=39 velocity=112 time=0.005580312499999999
EXTRACT: note_on channel=2 note=55 velocity=100 time=0.0018601041666666664
EXTRACT: note_on channel=2 note=51 velocity=97 time=0.0074404166666666655
EXTRACT: note_on channel=4 note=58 velocity=96 time=0
EXTRACT: note_on channel=4 note=55 velocity=92 time=0.005580312499999999
EXTRACT: note_on channel=4 note=63 velocity=95 time=0
EXTRACT: note_on channel=2 note=46 velocity=78 time=0.0018601041666666664
EXTRACT: note_off channel=4 note=88 velocity=0 time=0.013020729166666665
EXTRACT: note_off channel=4 note=76 velocity=0 time=0.0074404166666666655
EXTRACT: note_off channel=4 note=83 velocity=0 time=0.009300520833333333
EXTRACT: note_on channel=9 note=40 velocity=99 time=0.013020729166666665
EXTRACT: note_off channel=9 note=40 velocity=0 time=0.0074404166666666655
EXTRACT: note_on channel=9 note=40 velocity=102 time=0.11160624999999998
EXTRACT: note_on channel=9 note=42 velocity=51 time=0
EXTRACT: note_off channel=9 note=42 velocity=0 time=0.0074404166666666655
EXTRACT: note_off channel=9 note=40 velocity=0 time=0
EXTRACT: note_on channel=3 note=67 velocity=115 time=0.1990311458333333
EXTRACT: note_off channel=4 note=55 velocity=0 time=0.031621770833333326
EXTRACT: note_on channel=9 note=40 velocity=75 time=0
EXTRACT: note_off channel=9 note=40 velocity=0 time=0.0074404166666666655
EXTRACT: note_off channel=4 note=58 velocity=0 time=0.013020729166666665
EXTRACT: note_off channel=4 note=63 velocity=0 time=0.014880833333333331
EXTRACT: note_off channel=2 note=46 velocity=0 time=0.057663229166666656
EXTRACT: note_off channel=2 note=63 velocity=0 time=0.005580312499999999
EXTRACT: note_off channel=2 note=51 velocity=0 time=0.0018601041666666664
EXTRACT: note_on channel=2 note=47 velocity=78 time=0.0018601041666666664
EXTRACT: note_off channel=2 note=58 velocity=0 time=0.005580312499999999
EXTRACT: note_on channel=4 note=56 velocity=93 time=0.0037202083333333327
EXTRACT: note_off channel=1 note=39 velocity=0 time=0.0018601041666666664
EXTRACT: note_on channel=2 note=52 velocity=99 time=0
EXTRACT: note_off channel=2 note=55 velocity=0 time=0.0018601041666666664
EXTRACT: note_on channel=4 note=64 velocity=96 time=0.0018601041666666664
EXTRACT: note_on channel=1 note=40 velocity=112 time=0.0018601041666666664
EXTRACT: note_on channel=4 note=59 velocity=96 time=0
EXTRACT: note_on channel=9 note=40 velocity=105 time=0
EXTRACT: note_on channel=9 note=42 velocity=53 time=0
EXTRACT: note_on channel=2 note=56 velocity=99 time=0.0037202083333333327
EXTRACT: note_off channel=9 note=42 velocity=0 time=0.0037202083333333327
EXTRACT: note_off channel=9 note=40 velocity=0 time=0
EXTRACT: note_on channel=2 note=59 velocity=99 time=0.0018601041666666664
EXTRACT: note_on channel=2 note=64 velocity=99 time=0.0074404166666666655
EXTRACT: note_off channel=3 note=67 velocity=0 time=0.1283471875
EXTRACT: note_on channel=3 note=67 velocity=113 time=0.07068395833333332
EXTRACT: note_off channel=3 note=67 velocity=0 time=0.10602593749999999
EXTRACT: note_on channel=9 note=42 velocity=44 time=0.03534197916666666
EXTRACT: note_off channel=9 note=42 velocity=0 time=0.0074404166666666655
EXTRACT: note_on channel=3 note=67 velocity=112 time=0.009300520833333333
EXTRACT: note_off channel=3 note=67 velocity=0 time=0.15066843749999997
EXTRACT: note_on channel=3 note=67 velocity=112 time=0.057663229166666656
EXTRACT: note_off channel=3 note=67 velocity=0 time=0.10044562499999998
EXTRACT: note_on channel=9 note=42 velocity=52 time=0.031621770833333326
EXTRACT: note_off channel=9 note=42 velocity=0 time=0.0074404166666666655
EXTRACT: note_on channel=3 note=67 velocity=113 time=0.005580312499999999
EXTRACT: note_off channel=3 note=67 velocity=0 time=0.12276687499999998
EXTRACT: note_on channel=3 note=67 velocity=111 time=0.057663229166666656
EXTRACT: note_on channel=9 note=40 velocity=105 time=0.014880833333333331
EXTRACT: note_off channel=9 note=40 velocity=0 time=0.0074404166666666655
EXTRACT: note_on channel=9 note=40 velocity=69 time=0.10788604166666665
EXTRACT: note_off channel=3 note=67 velocity=0 time=0.005580312499999999
EXTRACT: note_off channel=9 note=40 velocity=0 time=0.0018601041666666664
EXTRACT: note_on channel=3 note=64 velocity=114 time=0.0037202083333333327
EXTRACT: note_on channel=9 note=42 velocity=51 time=0.022321249999999997
EXTRACT: note_off channel=9 note=42 velocity=0 time=0.0074404166666666655
EXTRACT: note_off channel=3 note=64 velocity=0 time=0.18415031249999997
EXTRACT: note_on channel=3 note=62 velocity=107 time=0.005580312499999999
EXTRACT: note_on channel=9 note=40 velocity=43 time=0.04092229166666666
EXTRACT: note_off channel=9 note=40 velocity=0 time=0.0074404166666666655
EXTRACT: note_off channel=3 note=62 velocity=0 time=0.024181354166666662
EXTRACT: note_on channel=3 note=64 velocity=115 time=0.06882385416666666
EXTRACT: note_on channel=9 note=42 velocity=53 time=0.018601041666666665
EXTRACT: note_on channel=9 note=40 velocity=105 time=0
EXTRACT: note_off channel=9 note=40 velocity=0 time=0.0074404166666666655
EXTRACT: note_off channel=9 note=42 velocity=0 time=0
EXTRACT: note_off channel=3 note=64 velocity=0 time=0.23623322916666664
EXTRACT: note_on channel=3 note=64 velocity=113 time=0.08184458333333332
EXTRACT: note_on channel=9 note=42 velocity=44 time=0.031621770833333326
EXTRACT: note_off channel=9 note=42 velocity=0 time=0.0074404166666666655
EXTRACT: note_off channel=3 note=64 velocity=0 time=0.1283471875
EXTRACT: note_on channel=3 note=67 velocity=116 time=0.06324354166666665
EXTRACT: note_on channel=9 note=42 velocity=52 time=0.15810885416666665
EXTRACT: note_off channel=9 note=42 velocity=0 time=0.0074404166666666655
EXTRACT: note_off channel=4 note=56 velocity=0 time=0.0074404166666666655
EXTRACT: note_off channel=4 note=64 velocity=0 time=0.0037202083333333327
EXTRACT: note_off channel=4 note=59 velocity=0 time=0.03534197916666666
EXTRACT: note_off channel=1 note=40 velocity=0 time=0.029761666666666662
EXTRACT: note_off channel=2 note=47 velocity=0 time=0.033481874999999994
EXTRACT: note_off channel=2 note=52 velocity=0 time=0.011160624999999999
EXTRACT: note_off channel=3 note=67 velocity=0 time=0.0018601041666666664
EXTRACT: note_off channel=2 note=56 velocity=0 time=0.0074404166666666655
EXTRACT: note_off channel=2 note=59 velocity=0 time=0.005580312499999999
EXTRACT: note_off channel=2 note=64 velocity=0 time=0.0074404166666666655
EXTRACT: note_on channel=2 note=63 velocity=97 time=0.013020729166666665
EXTRACT: note_on channel=2 note=58 velocity=103 time=0.009300520833333333
EXTRACT: note_on channel=1 note=39 velocity=112 time=0.005580312499999999
EXTRACT: note_on channel=2 note=55 velocity=100 time=0.0018601041666666664
EXTRACT: note_on channel=2 note=51 velocity=97 time=0.0074404166666666655
EXTRACT: note_on channel=2 note=46 velocity=78 time=0.0074404166666666655
EXTRACT: note_on channel=9 note=40 velocity=105 time=0.013020729166666665
EXTRACT: note_on channel=4 note=58 velocity=95 time=0.005580312499999999
EXTRACT: note_on channel=4 note=63 velocity=95 time=0.0018601041666666664
EXTRACT: note_off channel=9 note=40 velocity=0 time=0
EXTRACT: note_on channel=4 note=55 velocity=93 time=0.0018601041666666664
EXTRACT: note_on channel=9 note=40 velocity=69 time=0.10602593749999999
EXTRACT: note_off channel=9 note=40 velocity=0 time=0.0074404166666666655
EXTRACT: note_on channel=9 note=42 velocity=51 time=0.02604145833333333
EXTRACT: note_off channel=9 note=42 velocity=0 time=0.0074404166666666655
EXTRACT: note_on channel=9 note=40 velocity=43 time=0.23065291666666662
EXTRACT: note_off channel=9 note=40 velocity=0 time=0.0074404166666666655
EXTRACT: note_off channel=4 note=55 velocity=0 time=0.0074404166666666655
EXTRACT: note_off channel=4 note=58 velocity=0 time=0.04092229166666666
EXTRACT: note_off channel=4 note=63 velocity=0 time=0.0018601041666666664
EXTRACT: note_off channel=2 note=46 velocity=0 time=0.03534197916666666
EXTRACT: note_off channel=2 note=63 velocity=0 time=0.005580312499999999
EXTRACT: note_off channel=2 note=51 velocity=0 time=0.0018601041666666664
EXTRACT: note_on channel=2 note=47 velocity=78 time=0.0018601041666666664
EXTRACT: note_on channel=3 note=67 velocity=111 time=0.0037202083333333327
EXTRACT: note_off channel=2 note=58 velocity=0 time=0.0018601041666666664
EXTRACT: note_off channel=1 note=39 velocity=0 time=0.005580312499999999
EXTRACT: note_on channel=2 note=52 velocity=99 time=0
EXTRACT: note_off channel=2 note=55 velocity=0 time=0.0018601041666666664
EXTRACT: note_on channel=1 note=40 velocity=112 time=0.0037202083333333327
EXTRACT: note_on channel=9 note=40 velocity=105 time=0
EXTRACT: note_on channel=9 note=42 velocity=53 time=0
EXTRACT: note_on channel=2 note=56 velocity=99 time=0.0037202083333333327
EXTRACT: note_off channel=9 note=42 velocity=0 time=0.0037202083333333327
EXTRACT: note_off channel=9 note=40 velocity=0 time=0
EXTRACT: note_on channel=2 note=59 velocity=99 time=0.0018601041666666664
EXTRACT: note_on channel=2 note=64 velocity=99 time=0.0074404166666666655
EXTRACT: note_on channel=4 note=56 velocity=93 time=0
EXTRACT: note_on channel=4 note=64 velocity=96 time=0.0018601041666666664
EXTRACT: note_on channel=4 note=59 velocity=98 time=0.0037202083333333327
EXTRACT: note_off channel=3 note=67 velocity=0 time=0.09672541666666665
EXTRACT: note_on channel=3 note=67 velocity=112 time=0.09300520833333333
EXTRACT: note_off channel=3 note=67 velocity=0 time=0.08370468749999999
EXTRACT: note_on channel=9 note=42 velocity=44 time=0.06138343749999999
EXTRACT: note_on channel=3 note=67 velocity=111 time=0.0037202083333333327
EXTRACT: note_off channel=9 note=42 velocity=0 time=0.0037202083333333327
EXTRACT: note_off channel=3 note=67 velocity=0 time=0.10044562499999998
EXTRACT: note_on channel=3 note=67 velocity=113 time=0.09300520833333333
EXTRACT: note_off channel=3 note=67 velocity=0 time=0.07998447916666665
EXTRACT: note_on channel=3 note=67 velocity=113 time=0.06696374999999999
EXTRACT: note_on channel=9 note=42 velocity=52 time=0.009300520833333333
EXTRACT: note_off channel=9 note=42 velocity=0 time=0.0074404166666666655
EXTRACT: note_off channel=3 note=67 velocity=0 time=0.09114510416666666
EXTRACT: note_on channel=3 note=67 velocity=113 time=0.08742489583333332
EXTRACT: note_on channel=9 note=40 velocity=105 time=0.022321249999999997
EXTRACT: note_off channel=9 note=40 velocity=0 time=0.0074404166666666655
EXTRACT: note_off channel=3 note=67 velocity=0 time=0.08928499999999999
EXTRACT: note_on channel=9 note=40 velocity=69 time=0.018601041666666665
EXTRACT: note_off channel=9 note=40 velocity=0 time=0.0074404166666666655
EXTRACT: note_on channel=3 note=64 velocity=112 time=0.013020729166666665
EXTRACT: note_on channel=9 note=42 velocity=51 time=0.013020729166666665
EXTRACT: note_off channel=9 note=42 velocity=0 time=0.0074404166666666655
EXTRACT: note_off channel=3 note=64 velocity=0 time=0.19159072916666664
EXTRACT: note_on channel=3 note=62 velocity=108 time=0.029761666666666662
EXTRACT: note_on channel=9 note=40 velocity=43 time=0.009300520833333333
EXTRACT: note_off channel=9 note=40 velocity=0 time=0.0074404166666666655
EXTRACT: note_off channel=3 note=62 velocity=0 time=0.06138343749999999
EXTRACT: note_on channel=3 note=64 velocity=114 time=0.048362708333333324
EXTRACT: note_on channel=9 note=42 velocity=53 time=0.0018601041666666664
EXTRACT: note_on channel=9 note=40 velocity=105 time=0
EXTRACT: note_off channel=9 note=40 velocity=0 time=0.0074404166666666655
EXTRACT: note_off channel=9 note=42 velocity=0 time=0
EXTRACT: note_off channel=3 note=64 velocity=0 time=0.22507260416666663
EXTRACT: note_on channel=3 note=62 velocity=108 time=0.005580312499999999
EXTRACT: note_off channel=3 note=62 velocity=0 time=0.07812437499999998
EXTRACT: note_on channel=3 note=64 velocity=113 time=0.03534197916666666
EXTRACT: note_on channel=9 note=42 velocity=44 time=0.005580312499999999
EXTRACT: note_off channel=9 note=42 velocity=0 time=0.0074404166666666655
EXTRACT: note_off channel=4 note=64 velocity=0 time=0.256694375
EXTRACT: note_off channel=4 note=56 velocity=0 time=0.0018601041666666664
EXTRACT: note_off channel=3 note=64 velocity=0 time=0.0037202083333333327
EXTRACT: note_off channel=4 note=59 velocity=0 time=0.031621770833333326
EXTRACT: note_on channel=3 note=59 velocity=109 time=0.024181354166666662
EXTRACT: note_on channel=9 note=42 velocity=52 time=0.031621770833333326
EXTRACT: note_off channel=9 note=42 velocity=0 time=0.0074404166666666655
EXTRACT: note_off channel=1 note=40 velocity=0 time=0.07626427083333333
EXTRACT: note_off channel=2 note=47 velocity=0 time=0.033481874999999994
EXTRACT: note_off channel=2 note=52 velocity=0 time=0.011160624999999999
EXTRACT: note_off channel=2 note=56 velocity=0 time=0.009300520833333333
EXTRACT: note_off channel=2 note=59 velocity=0 time=0.005580312499999999
EXTRACT: note_off channel=2 note=64 velocity=0 time=0.0074404166666666655
EXTRACT: note_on channel=2 note=63 velocity=97 time=0.013020729166666665
EXTRACT: note_on channel=2 note=58 velocity=103 time=0.009300520833333333
EXTRACT: note_on channel=1 note=39 velocity=112 time=0.005580312499999999
EXTRACT: note_on channel=2 note=55 velocity=100 time=0.0018601041666666664
EXTRACT: note_on channel=4 note=58 velocity=95 time=0.0037202083333333327
EXTRACT: note_on channel=4 note=63 velocity=95 time=0
EXTRACT: note_on channel=4 note=55 velocity=94 time=0.0018601041666666664
EXTRACT: note_on channel=2 note=51 velocity=97 time=0.0018601041666666664
EXTRACT: note_on channel=2 note=46 velocity=78 time=0.0074404166666666655
EXTRACT: note_on channel=9 note=40 velocity=105 time=0.013020729166666665
EXTRACT: note_off channel=9 note=40 velocity=0 time=0.0074404166666666655
EXTRACT: note_off channel=3 note=59 velocity=0 time=0.07998447916666665
EXTRACT: note_on channel=9 note=40 velocity=69 time=0.027901562499999994
EXTRACT: note_off channel=9 note=40 velocity=0 time=0.0074404166666666655
EXTRACT: note_on channel=9 note=42 velocity=51 time=0.02604145833333333
EXTRACT: note_off channel=9 note=42 velocity=0 time=0.0074404166666666655
EXTRACT: note_on channel=9 note=40 velocity=43 time=0.23065291666666662
EXTRACT: note_off channel=9 note=40 velocity=0 time=0.0074404166666666655
EXTRACT: note_off channel=4 note=55 velocity=0 time=0.009300520833333333
EXTRACT: note_off channel=4 note=63 velocity=0 time=0.022321249999999997
EXTRACT: note_off channel=4 note=58 velocity=0 time=0.0074404166666666655
EXTRACT: note_off channel=2 note=46 velocity=0 time=0.04650260416666666
EXTRACT: note_off channel=2 note=63 velocity=0 time=0.005580312499999999
EXTRACT: note_off channel=2 note=51 velocity=0 time=0.0018601041666666664
EXTRACT: note_on channel=2 note=47 velocity=78 time=0.0018601041666666664
EXTRACT: note_on channel=3 note=67 velocity=111 time=0.0037202083333333327
EXTRACT: note_off channel=2 note=58 velocity=0 time=0.0018601041666666664
EXTRACT: note_on channel=4 note=64 velocity=94 time=0.0037202083333333327
EXTRACT: note_off channel=1 note=39 velocity=0 time=0.0018601041666666664
EXTRACT: note_on channel=2 note=52 velocity=99 time=0
EXTRACT: note_off channel=2 note=55 velocity=0 time=0.0018601041666666664
EXTRACT: note_on channel=1 note=40 velocity=112 time=0.0037202083333333327
EXTRACT: note_on channel=9 note=40 velocity=105 time=0
EXTRACT: note_on channel=9 note=42 velocity=53 time=0
EXTRACT: note_on channel=4 note=56 velocity=93 time=0.0018601041666666664
EXTRACT: note_on channel=2 note=56 velocity=99 time=0.0018601041666666664
EXTRACT: note_on channel=4 note=59 velocity=97 time=0
EXTRACT: note_off channel=9 note=42 velocity=0 time=0.0037202083333333327
EXTRACT: note_off channel=9 note=40 velocity=0 time=0
EXTRACT: note_on channel=2 note=59 velocity=99 time=0.0018601041666666664
EXTRACT: note_on channel=2 note=64 velocity=99 time=0.0074404166666666655
EXTRACT: note_off channel=3 note=67 velocity=0 time=0.10230572916666665
EXTRACT: note_on channel=3 note=67 velocity=112 time=0.09300520833333333
EXTRACT: note_off channel=3 note=67 velocity=0 time=0.08370468749999999
EXTRACT: note_on channel=9 note=42 velocity=44 time=0.06138343749999999
EXTRACT: note_on channel=3 note=67 velocity=111 time=0.0037202083333333327
EXTRACT: note_off channel=9 note=42 velocity=0 time=0.0037202083333333327
EXTRACT: note_off channel=3 note=67 velocity=0 time=0.10044562499999998
EXTRACT: note_on channel=3 note=67 velocity=113 time=0.09300520833333333
EXTRACT: note_off channel=3 note=67 velocity=0 time=0.07998447916666665
EXTRACT: note_on channel=3 note=67 velocity=113 time=0.06696374999999999
EXTRACT: note_on channel=9 note=42 velocity=52 time=0.009300520833333333
EXTRACT: note_off channel=9 note=42 velocity=0 time=0.0074404166666666655
EXTRACT: note_off channel=3 note=67 velocity=0 time=0.09114510416666666
EXTRACT: note_on channel=3 note=67 velocity=113 time=0.08742489583333332
EXTRACT: note_on channel=9 note=40 velocity=105 time=0.022321249999999997
EXTRACT: note_off channel=9 note=40 velocity=0 time=0.0074404166666666655
EXTRACT: note_off channel=3 note=67 velocity=0 time=0.08928499999999999
EXTRACT: note_on channel=9 note=40 velocity=69 time=0.018601041666666665
EXTRACT: note_off channel=9 note=40 velocity=0 time=0.0074404166666666655
EXTRACT: note_on channel=3 note=64 velocity=112 time=0.013020729166666665
EXTRACT: note_on channel=9 note=42 velocity=51 time=0.013020729166666665
EXTRACT: note_off channel=9 note=42 velocity=0 time=0.0074404166666666655
EXTRACT: note_off channel=3 note=64 velocity=0 time=0.19159072916666664
EXTRACT: note_on channel=3 note=62 velocity=108 time=0.029761666666666662
EXTRACT: note_on channel=9 note=40 velocity=43 time=0.009300520833333333
EXTRACT: note_off channel=9 note=40 velocity=0 time=0.0074404166666666655
EXTRACT: note_off channel=3 note=62 velocity=0 time=0.06138343749999999
EXTRACT: note_on channel=3 note=64 velocity=114 time=0.048362708333333324
EXTRACT: note_on channel=9 note=40 velocity=105 time=0.0018601041666666664
EXTRACT: note_on channel=9 note=42 velocity=53 time=0
EXTRACT: note_off channel=9 note=42 velocity=0 time=0.0074404166666666655
EXTRACT: note_off channel=9 note=40 velocity=0 time=0
EXTRACT: note_off channel=3 note=64 velocity=0 time=0.34411927083333327
EXTRACT: note_on channel=3 note=64 velocity=113 time=0.005580312499999999
EXTRACT: note_on channel=9 note=42 velocity=44 time=0
EXTRACT: note_off channel=9 note=42 velocity=0 time=0.0074404166666666655
EXTRACT: note_off channel=3 note=64 velocity=0 time=0.14880833333333332
EXTRACT: note_on channel=3 note=67 velocity=109 time=0.05022281249999999
EXTRACT: note_off channel=4 note=56 velocity=0 time=0.05022281249999999
EXTRACT: note_off channel=4 note=64 velocity=0 time=0.027901562499999994
EXTRACT: note_off channel=4 note=59 velocity=0 time=0.018601041666666665
EXTRACT: note_on channel=9 note=42 velocity=52 time=0.05394302083333333
EXTRACT: note_off channel=9 note=42 velocity=0 time=0.0074404166666666655
EXTRACT: note_off channel=1 note=40 velocity=0 time=0.07626427083333333
EXTRACT: note_off channel=2 note=47 velocity=0 time=0.033481874999999994
EXTRACT: note_off channel=2 note=52 velocity=0 time=0.011160624999999999
EXTRACT: note_off channel=2 note=56 velocity=0 time=0.009300520833333333
EXTRACT: note_off channel=2 note=59 velocity=0 time=0.005580312499999999
EXTRACT: note_off channel=2 note=64 velocity=0 time=0.0074404166666666655
EXTRACT: note_on channel=2 note=63 velocity=97 time=0.013020729166666665
EXTRACT: note_on channel=4 note=58 velocity=96 time=0.0018601041666666664
EXTRACT: note_on channel=4 note=63 velocity=96 time=0.0037202083333333327
EXTRACT: note_on channel=2 note=58 velocity=103 time=0.0037202083333333327
EXTRACT: note_on channel=4 note=55 velocity=93 time=0
EXTRACT: note_off channel=3 note=67 velocity=0 time=0.0037202083333333327
EXTRACT: note_on channel=1 note=39 velocity=112 time=0.0018601041666666664
EXTRACT: note_on channel=2 note=55 velocity=100 time=0.0018601041666666664
EXTRACT: note_on channel=2 note=51 velocity=97 time=0.0074404166666666655
EXTRACT: note_on channel=2 note=46 velocity=78 time=0.0074404166666666655
EXTRACT: note_on channel=9 note=40 velocity=105 time=0.013020729166666665
EXTRACT: note_off channel=9 note=40 velocity=0 time=0.0074404166666666655
EXTRACT: note_on channel=9 note=40 velocity=69 time=0.10788604166666665
EXTRACT: note_off channel=9 note=40 velocity=0 time=0.0074404166666666655
EXTRACT: note_on channel=9 note=42 velocity=51 time=0.02604145833333333
EXTRACT: note_off channel=9 note=42 velocity=0 time=0.0074404166666666655
EXTRACT: note_off channel=4 note=55 velocity=0 time=0.2213523958333333
EXTRACT: note_on channel=3 note=67 velocity=111 time=0.009300520833333333
EXTRACT: note_on channel=9 note=40 velocity=43 time=0
EXTRACT: note_off channel=9 note=40 velocity=0 time=0.0074404166666666655
EXTRACT: note_off channel=4 note=63 velocity=0 time=0.022321249999999997
EXTRACT: note_off channel=4 note=58 velocity=0 time=0.013020729166666665
EXTRACT: note_off channel=2 note=46 velocity=0 time=0.05022281249999999
EXTRACT: note_off channel=3 note=67 velocity=0 time=0.0018601041666666664
EXTRACT: note_off channel=2 note=63 velocity=0 time=0.0037202083333333327
EXTRACT: note_off channel=2 note=51 velocity=0 time=0.0018601041666666664
EXTRACT: note_on channel=2 note=47 velocity=78 time=0.0018601041666666664
EXTRACT: note_off channel=2 note=58 velocity=0 time=0.005580312499999999
EXTRACT: note_on channel=4 note=64 velocity=98 time=0.0018601041666666664
EXTRACT: note_on channel=4 note=56 velocity=95 time=0.0018601041666666664
EXTRACT: note_off channel=1 note=39 velocity=0 time=0.0018601041666666664
EXTRACT: note_on channel=2 note=52 velocity=99 time=0
EXTRACT: note_on channel=4 note=59 velocity=99 time=0
EXTRACT: note_off channel=2 note=55 velocity=0 time=0.0018601041666666664
EXTRACT: note_on channel=1 note=40 velocity=112 time=0.0037202083333333327
EXTRACT: note_on channel=3 note=67 velocity=111 time=0
EXTRACT: note_on channel=9 note=35 velocity=108 time=0
EXTRACT: note_on channel=9 note=42 velocity=53 time=0
EXTRACT: note_on channel=9 note=40 velocity=105 time=0
EXTRACT: note_on channel=2 note=56 velocity=99 time=0.0037202083333333327
EXTRACT: note_off channel=9 note=40 velocity=0 time=0.0037202083333333327
EXTRACT: note_off channel=9 note=42 velocity=0 time=0
EXTRACT: note_off channel=9 note=35 velocity=0 time=0
EXTRACT: note_on channel=2 note=59 velocity=99 time=0.0018601041666666664
EXTRACT: note_on channel=2 note=64 velocity=99 time=0.0074404166666666655
EXTRACT: note_off channel=3 note=67 velocity=0 time=0.1934508333333333
EXTRACT: note_on channel=3 note=67 velocity=112 time=0.013020729166666665
EXTRACT: note_off channel=4 note=56 velocity=0 time=0.024181354166666662
EXTRACT: note_off channel=4 note=64 velocity=0 time=0.0074404166666666655
EXTRACT: note_off channel=4 note=59 velocity=0 time=0.0037202083333333327
EXTRACT: note_off channel=1 note=40 velocity=0 time=0.0037202083333333327
EXTRACT: note_off channel=2 note=47 velocity=0 time=0.033481874999999994
EXTRACT: note_off channel=2 note=52 velocity=0 time=0.011160624999999999
EXTRACT: note_off channel=3 note=67 velocity=0 time=0
EXTRACT: note_off channel=2 note=56 velocity=0 time=0.009300520833333333
EXTRACT: note_off channel=2 note=59 velocity=0 time=0.005580312499999999
EXTRACT: note_off channel=2 note=64 velocity=0 time=0.0074404166666666655
EXTRACT: note_on channel=9 note=42 velocity=44 time=0.027901562499999994
EXTRACT: note_on channel=3 note=67 velocity=111 time=0.0037202083333333327
EXTRACT: note_off channel=9 note=42 velocity=0 time=0.0037202083333333327
EXTRACT: note_off channel=3 note=67 velocity=0 time=0.1767098958333333
EXTRACT: note_on channel=3 note=67 velocity=113 time=0.044642499999999995
EXTRACT: note_off channel=3 note=67 velocity=0 time=0.07998447916666665
EXTRACT: note_on channel=3 note=67 velocity=113 time=0.03906218749999999
EXTRACT: note_on channel=9 note=42 velocity=52 time=0.009300520833333333
EXTRACT: note_off channel=9 note=42 velocity=0 time=0.0074404166666666655
EXTRACT: note_off channel=3 note=67 velocity=0 time=0.2213523958333333
EXTRACT: note_on channel=3 note=67 velocity=112 time=0.009300520833333333
EXTRACT: note_off channel=3 note=67 velocity=0 time=0.10230572916666665
EXTRACT: note_on channel=3 note=67 velocity=112 time=0.016740937499999997
EXTRACT: note_on channel=9 note=42 velocity=51 time=0
EXTRACT: note_off channel=9 note=42 velocity=0 time=0.0074404166666666655
EXTRACT: note_off channel=3 note=67 velocity=0 time=0.2046114583333333
EXTRACT: note_on channel=3 note=67 velocity=108 time=0.016740937499999997
EXTRACT: note_off channel=3 note=67 velocity=0 time=0.10788604166666665
EXTRACT: note_on channel=3 note=67 velocity=114 time=0.018601041666666665
EXTRACT: note_on channel=9 note=42 velocity=53 time=0.0018601041666666664
EXTRACT: note_off channel=9 note=42 velocity=0 time=0.0074404166666666655
EXTRACT: note_off channel=3 note=67 velocity=0 time=0.33109854166666663
EXTRACT: note_on channel=3 note=67 velocity=113 time=0.013020729166666665
EXTRACT: note_on channel=1 note=28 velocity=108 time=0.005580312499999999
EXTRACT: note_on channel=9 note=42 velocity=44 time=0
EXTRACT: note_off channel=9 note=42 velocity=0 time=0.0074404166666666655
EXTRACT: note_off channel=3 note=67 velocity=0 time=0.32737833333333327
EXTRACT: note_on channel=3 note=67 velocity=111 time=0.013020729166666665
EXTRACT: note_off channel=1 note=28 velocity=0 time=0.0037202083333333327
EXTRACT: note_on channel=1 note=30 velocity=103 time=0.005580312499999999
EXTRACT: note_on channel=9 note=42 velocity=52 time=0
EXTRACT: note_off channel=9 note=42 velocity=0 time=0.0074404166666666655
EXTRACT: note_off channel=3 note=67 velocity=0 time=0.15810885416666665
EXTRACT: note_on channel=3 note=67 velocity=107 time=0.016740937499999997
EXTRACT: note_on channel=9 note=40 velocity=92 time=0.08556479166666665
EXTRACT: note_off channel=9 note=40 velocity=0 time=0.0074404166666666655
EXTRACT: note_off channel=3 note=67 velocity=0 time=0.04650260416666666
EXTRACT: note_off channel=1 note=30 velocity=0 time=0.005580312499999999
EXTRACT: note_on channel=3 note=67 velocity=113 time=0.011160624999999999
EXTRACT: note_on channel=1 note=32 velocity=106 time=0.018601041666666665
EXTRACT: note_on channel=9 note=40 velocity=101 time=0
EXTRACT: note_on channel=9 note=42 velocity=51 time=0
EXTRACT: note_off channel=9 note=42 velocity=0 time=0.0074404166666666655
EXTRACT: note_off channel=9 note=40 velocity=0 time=0
EXTRACT: note_off channel=3 note=67 velocity=0 time=0.3199379166666666
EXTRACT: note_on channel=3 note=64 velocity=111 time=0.018601041666666665
EXTRACT: note_on channel=4 note=79 velocity=108 time=0.0037202083333333327
EXTRACT: note_off channel=1 note=32 velocity=0 time=0.0018601041666666664
EXTRACT: note_on channel=1 note=33 velocity=103 time=0.005580312499999999
EXTRACT: note_on channel=2 note=45 velocity=93 time=0
EXTRACT: note_on channel=4 note=73 velocity=80 time=0
EXTRACT: note_on channel=9 note=35 velocity=107 time=0
EXTRACT: note_off channel=9 note=35 velocity=0 time=0.0074404166666666655
EXTRACT: note_off channel=4 note=79 velocity=0 time=0.08184458333333332
EXTRACT: note_on channel=4 note=78 velocity=60 time=0.03534197916666666
EXTRACT: note_off channel=4 note=73 velocity=0 time=0.06138343749999999
EXTRACT: note_off channel=2 note=45 velocity=0 time=0.016740937499999997
EXTRACT: note_on channel=2 note=45 velocity=94 time=0.005580312499999999
EXTRACT: note_on channel=4 note=76 velocity=36 time=0.044642499999999995
EXTRACT: note_off channel=3 note=64 velocity=0 time=0.04092229166666666
EXTRACT: note_off channel=4 note=78 velocity=0 time=0.005580312499999999
EXTRACT: note_off channel=4 note=76 velocity=0 time=0.018601041666666665
EXTRACT: note_off channel=1 note=33 velocity=0 time=0.033481874999999994
EXTRACT: note_off channel=2 note=45 velocity=0 time=0
EXTRACT: note_on channel=4 note=79 velocity=92 time=0.0037202083333333327
EXTRACT: note_on channel=1 note=37 velocity=101 time=0.0018601041666666664
EXTRACT: note_on channel=2 note=49 velocity=88 time=0
EXTRACT: note_on channel=9 note=40 velocity=108 time=0
EXTRACT: note_on channel=9 note=42 velocity=88 time=0
EXTRACT: note_off channel=9 note=42 velocity=0 time=0.0074404166666666655
EXTRACT: note_off channel=9 note=40 velocity=0 time=0
EXTRACT: note_on channel=4 note=73 velocity=84 time=0.0074404166666666655
EXTRACT: note_on channel=4 note=78 velocity=64 time=0.10416583333333332
EXTRACT: note_off channel=4 note=79 velocity=0 time=0.044642499999999995
EXTRACT: note_off channel=2 note=49 velocity=0 time=0.03906218749999999
EXTRACT: note_on channel=2 note=49 velocity=90 time=0.005580312499999999
EXTRACT: note_on channel=9 note=42 velocity=60 time=0
EXTRACT: note_off channel=4 note=73 velocity=0 time=0.0037202083333333327
EXTRACT: note_off channel=9 note=42 velocity=0 time=0.0037202083333333327
EXTRACT: note_on channel=4 note=76 velocity=48 time=0.02046114583333333
EXTRACT: note_off channel=4 note=76 velocity=0 time=0.08370468749999999
EXTRACT: note_off channel=4 note=78 velocity=0 time=0.0018601041666666664
EXTRACT: note_off channel=1 note=37 velocity=0 time=0.02046114583333333
EXTRACT: note_off channel=2 note=49 velocity=0 time=0.009300520833333333
EXTRACT: note_on channel=4 note=79 velocity=92 time=0.0037202083333333327
EXTRACT: note_on channel=1 note=40 velocity=106 time=0.0018601041666666664
EXTRACT: note_on channel=2 note=52 velocity=93 time=0
EXTRACT: note_on channel=9 note=35 velocity=108 time=0
EXTRACT: note_on channel=9 note=42 velocity=83 time=0
EXTRACT: note_on channel=4 note=73 velocity=84 time=0.0074404166666666655
EXTRACT: note_off channel=9 note=42 velocity=0 time=0
EXTRACT: note_off channel=9 note=35 velocity=0 time=0
EXTRACT: note_on channel=4 note=78 velocity=48 time=0.09114510416666666
EXTRACT: note_off channel=4 note=79 velocity=0 time=0.009300520833333333
EXTRACT: note_off channel=2 note=52 velocity=0 time=0.09486531249999998
EXTRACT: note_off channel=4 note=73 velocity=0 time=0.0037202083333333327
EXTRACT: note_on channel=2 note=52 velocity=84 time=0.0018601041666666664
EXTRACT: note_on channel=9 note=42 velocity=59 time=0
EXTRACT: note_off channel=9 note=42 velocity=0 time=0.0074404166666666655
EXTRACT: note_on channel=4 note=76 velocity=48 time=0.031621770833333326
EXTRACT: note_off channel=4 note=78 velocity=0 time=0.06510364583333332
EXTRACT: note_off channel=4 note=76 velocity=0 time=0.02604145833333333
EXTRACT: note_off channel=1 note=40 velocity=0 time=0.013020729166666665
EXTRACT: note_off channel=2 note=52 velocity=0 time=0
EXTRACT: note_on channel=1 note=42 velocity=102 time=0.005580312499999999
EXTRACT: note_on channel=2 note=54 velocity=93 time=0
EXTRACT: note_on channel=9 note=40 velocity=107 time=0
EXTRACT: note_on channel=9 note=42 velocity=88 time=0
EXTRACT: note_on channel=4 note=79 velocity=100 time=0.005580312499999999
EXTRACT: note_off channel=9 note=42 velocity=0 time=0.0018601041666666664
EXTRACT: note_off channel=9 note=40 velocity=0 time=0
EXTRACT: note_on channel=4 note=73 velocity=80 time=0.011160624999999999
EXTRACT: note_on channel=4 note=78 velocity=76 time=0.13206739583333332
EXTRACT: note_off channel=4 note=79 velocity=0 time=0.018601041666666665
EXTRACT: note_off channel=2 note=54 velocity=0 time=0.033481874999999994
EXTRACT: note_on channel=2 note=52 velocity=90 time=0.005580312499999999
EXTRACT: note_on channel=9 note=42 velocity=59 time=0
EXTRACT: note_off channel=9 note=42 velocity=0 time=0.0074404166666666655
EXTRACT: note_on channel=4 note=76 velocity=56 time=0.07812437499999998
EXTRACT: note_off channel=4 note=78 velocity=0 time=0.009300520833333333
EXTRACT: note_off channel=4 note=73 velocity=0 time=0.04092229166666666
EXTRACT: note_off channel=1 note=42 velocity=0 time=0.0074404166666666655
EXTRACT: note_off channel=2 note=52 velocity=0 time=0
EXTRACT: note_on channel=1 note=33 velocity=100 time=0.005580312499999999
EXTRACT: note_on channel=2 note=45 velocity=92 time=0
EXTRACT: note_on channel=9 note=35 velocity=108 time=0
EXTRACT: note_on channel=9 note=42 velocity=85 time=0
EXTRACT: note_off channel=9 note=42 velocity=0 time=0.0074404166666666655
EXTRACT: note_off channel=9 note=35 velocity=0 time=0
EXTRACT: note_on channel=4 note=79 velocity=88 time=0.013020729166666665
EXTRACT: note_on channel=4 note=73 velocity=52 time=0.04092229166666666
EXTRACT: note_off channel=4 note=76 velocity=0 time=0.018601041666666665
EXTRACT: note_off channel=4 note=73 velocity=0 time=0.048362708333333324
EXTRACT: note_off channel=4 note=79 velocity=0 time=0.027901562499999994
EXTRACT: note_off channel=2 note=45 velocity=0 time=0.04650260416666666
EXTRACT: note_on channel=2 note=45 velocity=92 time=0.005580312499999999
EXTRACT: note_on channel=9 note=42 velocity=56 time=0
EXTRACT: note_off channel=9 note=42 velocity=0 time=0.0074404166666666655
EXTRACT: note_on channel=3 note=67 velocity=113 time=0.0018601041666666664
EXTRACT: note_off channel=3 note=67 velocity=0 time=0.08370468749999999
EXTRACT: note_on channel=4 note=79 velocity=73 time=0.03534197916666666
EXTRACT: note_on channel=4 note=91 velocity=80 time=0.005580312499999999
EXTRACT: note_off channel=1 note=33 velocity=0 time=0.009300520833333333
EXTRACT: note_off channel=2 note=45 velocity=0 time=0
EXTRACT: note_on channel=1 note=37 velocity=94 time=0.005580312499999999
EXTRACT: note_on channel=2 note=49 velocity=84 time=0
EXTRACT: note_on channel=9 note=42 velocity=82 time=0
EXTRACT: note_on channel=9 note=40 velocity=107 time=0
EXTRACT: note_off channel=9 note=40 velocity=0 time=0.0074404166666666655
EXTRACT: note_off channel=9 note=42 velocity=0 time=0
EXTRACT: note_on channel=3 note=67 velocity=116 time=0.005580312499999999
EXTRACT: note_off channel=3 note=67 velocity=0 time=0.11718656249999998
EXTRACT: note_off channel=2 note=49 velocity=0 time=0.07254406249999999
EXTRACT: note_on channel=2 note=49 velocity=88 time=0.005580312499999999
EXTRACT: note_on channel=9 note=42 velocity=58 time=0
EXTRACT: note_off channel=9 note=42 velocity=0 time=0.0074404166666666655
EXTRACT: note_on channel=3 note=67 velocity=116 time=0.013020729166666665
EXTRACT: note_on channel=4 note=81 velocity=91 time=0.005580312499999999
EXTRACT: note_off channel=4 note=79 velocity=0 time=0.005580312499999999
EXTRACT: note_on channel=4 note=93 velocity=104 time=0.0037202083333333327
EXTRACT: note_off channel=4 note=91 velocity=0 time=0.02604145833333333
EXTRACT: note_off channel=4 note=81 velocity=0 time=0.059523333333333324
EXTRACT: note_off channel=4 note=93 velocity=0 time=0.016740937499999997
EXTRACT: note_off channel=1 note=37 velocity=0 time=0.005580312499999999
EXTRACT: note_off channel=2 note=49 velocity=0 time=0
EXTRACT: note_on channel=1 note=40 velocity=103 time=0.005580312499999999
EXTRACT: note_on channel=2 note=52 velocity=90 time=0
EXTRACT: note_on channel=9 note=35 velocity=107 time=0
EXTRACT: note_on channel=9 note=42 velocity=86 time=0
EXTRACT: note_off channel=9 note=42 velocity=0 time=0.0074404166666666655
EXTRACT: note_off channel=9 note=35 velocity=0 time=0
EXTRACT: note_on channel=4 note=91 velocity=96 time=0.005580312499999999
EXTRACT: note_on channel=4 note=79 velocity=96 time=0.0037202083333333327
EXTRACT: note_off channel=2 note=52 velocity=0 time=0.18601041666666665
EXTRACT: note_on channel=2 note=52 velocity=94 time=0.005580312499999999
EXTRACT: note_on channel=9 note=42 velocity=67 time=0
EXTRACT: note_off channel=9 note=42 velocity=0 time=0.0074404166666666655
EXTRACT: note_off channel=4 note=79 velocity=0 time=0.016740937499999997
EXTRACT: note_off channel=3 note=67 velocity=0 time=0.027901562499999994
EXTRACT: note_off channel=4 note=91 velocity=0 time=0
EXTRACT: note_on channel=3 note=64 velocity=104 time=0.005580312499999999
EXTRACT: note_off channel=3 note=64 velocity=0 time=0.06324354166666665
EXTRACT: note_on channel=4 note=79 velocity=72 time=0.011160624999999999
EXTRACT: note_on channel=4 note=91 velocity=72 time=0.0074404166666666655
EXTRACT: note_off channel=1 note=40 velocity=0 time=0.0037202083333333327
EXTRACT: note_off channel=2 note=52 velocity=0 time=0
EXTRACT: note_on channel=1 note=42 velocity=101 time=0.005580312499999999
EXTRACT: note_on channel=2 note=54 velocity=88 time=0
EXTRACT: note_on channel=9 note=42 velocity=86 time=0
EXTRACT: note_on channel=9 note=40 velocity=108 time=0
EXTRACT: note_off channel=9 note=40 velocity=0 time=0.0074404166666666655
EXTRACT: note_off channel=9 note=42 velocity=0 time=0
EXTRACT: note_on channel=3 note=66 velocity=116 time=0.0074404166666666655
EXTRACT: note_off channel=2 note=54 velocity=0 time=0.1878705208333333
EXTRACT: note_on channel=2 note=52 velocity=90 time=0.005580312499999999
EXTRACT: note_on channel=9 note=42 velocity=61 time=0
EXTRACT: note_off channel=4 note=79 velocity=0 time=0.0018601041666666664
EXTRACT: note_off channel=9 note=42 velocity=0 time=0.005580312499999999
EXTRACT: note_off channel=4 note=91 velocity=0 time=0.005580312499999999
EXTRACT: note_on channel=4 note=93 velocity=60 time=0.005580312499999999
EXTRACT: note_on channel=4 note=81 velocity=72 time=0.005580312499999999
EXTRACT: note_off channel=3 note=66 velocity=0 time=0.10230572916666665
EXTRACT: note_off channel=1 note=42 velocity=0 time=0.009300520833333333
EXTRACT: note_on channel=3 note=64 velocity=113 time=0
EXTRACT: note_off channel=2 note=52 velocity=0 time=0.0074404166666666655
EXTRACT: note_on channel=4 note=91 velocity=60 time=0
EXTRACT: note_on channel=1 note=28 velocity=104 time=0.005580312499999999
EXTRACT: note_on channel=2 note=40 velocity=94 time=0
EXTRACT: note_on channel=9 note=35 velocity=107 time=0
EXTRACT: note_on channel=9 note=42 velocity=84 time=0
EXTRACT: note_off channel=4 note=81 velocity=0 time=0.0074404166666666655
EXTRACT: note_off channel=9 note=42 velocity=0 time=0
EXTRACT: note_off channel=9 note=35 velocity=0 time=0
EXTRACT: note_off channel=4 note=93 velocity=0 time=0.009300520833333333
EXTRACT: note_on channel=4 note=79 velocity=52 time=0.005580312499999999
EXTRACT: note_off channel=4 note=79 velocity=0 time=0.14136791666666665
EXTRACT: note_off channel=2 note=40 velocity=0 time=0.03906218749999999
EXTRACT: note_on channel=2 note=40 velocity=96 time=0.005580312499999999
EXTRACT: note_on channel=9 note=42 velocity=59 time=0
EXTRACT: note_off channel=4 note=91 velocity=0 time=0.0074404166666666655
EXTRACT: note_off channel=9 note=42 velocity=0 time=0
EXTRACT: note_on channel=4 note=88 velocity=80 time=0.05394302083333333
EXTRACT: note_on channel=4 note=76 velocity=60 time=0.005580312499999999
EXTRACT: note_off channel=1 note=28 velocity=0 time=0.07626427083333333
EXTRACT: note_off channel=2 note=40 velocity=0 time=0
EXTRACT: note_off channel=3 note=64 velocity=0 time=0.0018601041666666664
EXTRACT: note_on channel=1 note=32 velocity=100 time=0.0037202083333333327
EXTRACT: note_on channel=2 note=44 velocity=76 time=0
EXTRACT: note_on channel=9 note=40 velocity=108 time=0
EXTRACT: note_on channel=9 note=42 velocity=88 time=0
EXTRACT: note_off channel=9 note=42 velocity=0 time=0.0074404166666666655
EXTRACT: note_off channel=9 note=40 velocity=0 time=0
EXTRACT: note_off channel=4 note=88 velocity=0 time=0.022321249999999997
EXTRACT: note_off channel=4 note=76 velocity=0 time=0.0018601041666666664
EXTRACT: note_off channel=2 note=44 velocity=0 time=0.1711295833333333
EXTRACT: note_on channel=2 note=44 velocity=86 time=0.005580312499999999
EXTRACT: note_on channel=9 note=42 velocity=58 time=0
EXTRACT: note_off channel=9 note=42 velocity=0 time=0.0074404166666666655
EXTRACT: note_off channel=1 note=32 velocity=0 time=0.13578760416666666
EXTRACT: note_off channel=2 note=44 velocity=0 time=0
EXTRACT: note_on channel=1 note=35 velocity=103 time=0.005580312499999999
EXTRACT: note_on channel=2 note=47 velocity=90 time=0
EXTRACT: note_on channel=9 note=35 velocity=108 time=0
EXTRACT: note_on channel=9 note=42 velocity=87 time=0
EXTRACT: note_off channel=9 note=42 velocity=0 time=0.0074404166666666655
EXTRACT: note_off channel=9 note=35 velocity=0 time=0
EXTRACT: note_on channel=4 note=88 velocity=68 time=0.0018601041666666664
EXTRACT: note_on channel=4 note=76 velocity=64 time=0.0018601041666666664
EXTRACT: note_off channel=2 note=47 velocity=0 time=0.19159072916666664
EXTRACT: note_on channel=2 note=47 velocity=86 time=0.005580312499999999
EXTRACT: note_on channel=9 note=42 velocity=57 time=0
EXTRACT: note_off channel=9 note=42 velocity=0 time=0.0074404166666666655
EXTRACT: note_off channel=1 note=35 velocity=0 time=0.11532645833333331
EXTRACT: note_off channel=2 note=47 velocity=0 time=0.02046114583333333
EXTRACT: note_on channel=1 note=37 velocity=99 time=0.005580312499999999
EXTRACT: note_on channel=2 note=49 velocity=88 time=0
EXTRACT: note_on channel=9 note=40 velocity=107 time=0
EXTRACT: note_on channel=9 note=42 velocity=86 time=0
EXTRACT: note_off channel=9 note=42 velocity=0 time=0.0074404166666666655
EXTRACT: note_off channel=9 note=40 velocity=0 time=0
EXTRACT: note_off channel=4 note=88 velocity=0 time=0.12462697916666665
EXTRACT: note_off channel=4 note=76 velocity=0 time=0.0037202083333333327
EXTRACT: note_off channel=2 note=49 velocity=0 time=0.06696374999999999
EXTRACT: note_on channel=2 note=47 velocity=80 time=0.005580312499999999
EXTRACT: note_on channel=9 note=42 velocity=63 time=0
EXTRACT: note_off channel=9 note=42 velocity=0 time=0.0074404166666666655
EXTRACT: note_off channel=1 note=37 velocity=0 time=0.13578760416666666
EXTRACT: note_off channel=2 note=47 velocity=0 time=0
EXTRACT: note_on channel=1 note=28 velocity=104 time=0.005580312499999999
EXTRACT: note_on channel=2 note=40 velocity=94 time=0
EXTRACT: note_on channel=9 note=35 velocity=108 time=0
EXTRACT: note_on channel=9 note=42 velocity=85 time=0
EXTRACT: note_off channel=9 note=42 velocity=0 time=0.0074404166666666655
EXTRACT: note_off channel=9 note=35 velocity=0 time=0
EXTRACT: note_off channel=2 note=40 velocity=0 time=0.19531093749999998
EXTRACT: note_on channel=2 note=40 velocity=94 time=0.005580312499999999
EXTRACT: note_on channel=9 note=42 velocity=64 time=0
EXTRACT: note_on channel=4 note=85 velocity=44 time=0.005580312499999999
EXTRACT: note_off channel=9 note=42 velocity=0 time=0.0018601041666666664
EXTRACT: note_off channel=4 note=85 velocity=0 time=0.08928499999999999
EXTRACT: note_off channel=1 note=28 velocity=0 time=0.04650260416666666
EXTRACT: note_off channel=2 note=40 velocity=0 time=0
EXTRACT: note_on channel=4 note=91 velocity=88 time=0
EXTRACT: note_on channel=1 note=32 velocity=100 time=0.005580312499999999
EXTRACT: note_on channel=2 note=44 velocity=80 time=0
EXTRACT: note_on channel=9 note=40 velocity=107 time=0
EXTRACT: note_on channel=9 note=42 velocity=87 time=0
EXTRACT: note_on channel=4 note=95 velocity=80 time=0.005580312499999999
EXTRACT: note_off channel=9 note=42 velocity=0 time=0.0018601041666666664
EXTRACT: note_off channel=9 note=40 velocity=0 time=0
EXTRACT: note_on channel=4 note=92 velocity=80 time=0.04092229166666666
EXTRACT: note_off channel=4 note=91 velocity=0 time=0.0074404166666666655
EXTRACT: note_off channel=4 note=95 velocity=0 time=0.10974614583333332
EXTRACT: note_off channel=2 note=44 velocity=0 time=0.03720208333333333
EXTRACT: note_on channel=2 note=44 velocity=86 time=0.005580312499999999
EXTRACT: note_on channel=9 note=42 velocity=59 time=0
EXTRACT: note_off channel=4 note=92 velocity=0 time=0.0037202083333333327
EXTRACT: note_off channel=9 note=42 velocity=0 time=0.0037202083333333327
EXTRACT: note_on channel=4 note=93 velocity=76 time=0.024181354166666662
EXTRACT: note_on channel=4 note=97 velocity=80 time=0.0037202083333333327
EXTRACT: note_off channel=1 note=32 velocity=0 time=0.10788604166666665
EXTRACT: note_off channel=2 note=44 velocity=0 time=0
EXTRACT: note_on channel=1 note=35 velocity=100 time=0.005580312499999999
EXTRACT: note_on channel=2 note=47 velocity=90 time=0
EXTRACT: note_on channel=9 note=35 velocity=107 time=0
EXTRACT: note_on channel=9 note=42 velocity=87 time=0
EXTRACT: note_off channel=9 note=42 velocity=0 time=0.0074404166666666655
EXTRACT: note_off channel=9 note=35 velocity=0 time=0
EXTRACT: note_on channel=4 note=95 velocity=84 time=0.016740937499999997
EXTRACT: note_on channel=4 note=92 velocity=68 time=0.013020729166666665
EXTRACT: note_off channel=4 note=97 velocity=0 time=0.03534197916666666
EXTRACT: note_off channel=4 note=93 velocity=0 time=0.0018601041666666664
EXTRACT: note_off channel=2 note=47 velocity=0 time=0.1283471875
EXTRACT: note_on channel=2 note=47 velocity=90 time=0.005580312499999999
EXTRACT: note_on channel=9 note=42 velocity=58 time=0
EXTRACT: note_off channel=9 note=42 velocity=0 time=0.0074404166666666655
EXTRACT: note_off channel=4 note=95 velocity=0 time=0.07068395833333332
EXTRACT: note_off channel=4 note=92 velocity=0 time=0.009300520833333333
EXTRACT: note_on channel=3 note=67 velocity=112 time=0.04092229166666666
EXTRACT: note_off channel=1 note=35 velocity=0 time=0.014880833333333331
EXTRACT: note_off channel=2 note=47 velocity=0 time=0
EXTRACT: note_on channel=1 note=37 velocity=98 time=0.005580312499999999
EXTRACT: note_on channel=2 note=49 velocity=88 time=0
EXTRACT: note_on channel=9 note=42 velocity=85 time=0
EXTRACT: note_on channel=9 note=40 velocity=108 time=0
EXTRACT: note_off channel=9 note=40 velocity=0 time=0.0074404166666666655
EXTRACT: note_off channel=9 note=42 velocity=0 time=0
EXTRACT: note_on channel=4 note=92 velocity=80 time=0.016740937499999997
EXTRACT: note_on channel=4 note=95 velocity=76 time=0
EXTRACT: note_off channel=3 note=67 velocity=0 time=0.09858552083333331
EXTRACT: note_on channel=3 note=67 velocity=109 time=0.07626427083333333
EXTRACT: note_off channel=2 note=49 velocity=0 time=0.0037202083333333327
EXTRACT: note_on channel=2 note=47 velocity=90 time=0.005580312499999999
EXTRACT: note_on channel=9 note=42 velocity=62 time=0
EXTRACT: note_off channel=9 note=42 velocity=0 time=0.0074404166666666655
EXTRACT: note_off channel=4 note=95 velocity=0 time=0.014880833333333331
EXTRACT: note_on channel=4 note=97 velocity=76 time=0
EXTRACT: note_off channel=3 note=67 velocity=0 time=0.05394302083333333
EXTRACT: note_off channel=4 note=92 velocity=0 time=0.0074404166666666655
EXTRACT: note_off channel=1 note=37 velocity=0 time=0.031621770833333326
EXTRACT: note_off channel=2 note=47 velocity=0 time=0.027901562499999994
EXTRACT: note_on channel=1 note=35 velocity=108 time=0.005580312499999999
EXTRACT: note_on channel=2 note=47 velocity=98 time=0
EXTRACT: note_on channel=3 note=66 velocity=112 time=0
EXTRACT: note_on channel=9 note=42 velocity=84 time=0
EXTRACT: note_on channel=9 note=35 velocity=107 time=0
EXTRACT: note_off channel=9 note=35 velocity=0 time=0.0074404166666666655
EXTRACT: note_off channel=9 note=42 velocity=0 time=0
EXTRACT: note_off channel=4 note=97 velocity=0 time=0.013020729166666665
EXTRACT: note_on channel=4 note=90 velocity=60 time=0.005580312499999999
EXTRACT: note_on channel=4 note=93 velocity=64 time=0.0018601041666666664
EXTRACT: note_off channel=3 note=66 velocity=0 time=0.13020729166666664
EXTRACT: note_off channel=2 note=47 velocity=0 time=0.044642499999999995
EXTRACT: note_on channel=3 note=66 velocity=109 time=0
EXTRACT: note_on channel=2 note=47 velocity=92 time=0.005580312499999999
EXTRACT: note_on channel=9 note=42 velocity=59 time=0
EXTRACT: note_off channel=9 note=42 velocity=0 time=0.0074404166666666655
EXTRACT: note_off channel=4 note=93 velocity=0 time=0.05394302083333333
EXTRACT: note_off channel=4 note=90 velocity=0 time=0.0018601041666666664
EXTRACT: note_off channel=3 note=66 velocity=0 time=0.031621770833333326
EXTRACT: note_off channel=1 note=35 velocity=0 time=0.018601041666666665
EXTRACT: note_off channel=2 note=47 velocity=0 time=0.029761666666666662
EXTRACT: note_on channel=3 note=66 velocity=110 time=0.0018601041666666664
EXTRACT: note_on channel=1 note=39 velocity=106 time=0.0037202083333333327
EXTRACT: note_on channel=2 note=51 velocity=92 time=0
EXTRACT: note_on channel=9 note=40 velocity=108 time=0
EXTRACT: note_on channel=9 note=42 velocity=88 time=0
EXTRACT: note_off channel=9 note=42 velocity=0 time=0.0074404166666666655
EXTRACT: note_off channel=9 note=40 velocity=0 time=0
EXTRACT: note_on channel=4 note=90 velocity=76 time=0.005580312499999999
EXTRACT: note_on channel=4 note=93 velocity=68 time=0.0074404166666666655
EXTRACT: note_off channel=2 note=51 velocity=0 time=0.18229020833333331
EXTRACT: note_on channel=2 note=51 velocity=92 time=0.005580312499999999
EXTRACT: note_on channel=9 note=42 velocity=58 time=0
EXTRACT: note_off channel=9 note=42 velocity=0 time=0.0074404166666666655
EXTRACT: note_off channel=3 note=66 velocity=0 time=0.024181354166666662
EXTRACT: note_on channel=4 note=95 velocity=64 time=0.0074404166666666655
EXTRACT: note_off channel=4 note=90 velocity=0 time=0.033481874999999994
EXTRACT: note_off channel=4 note=93 velocity=0 time=0.04092229166666666
EXTRACT: note_on channel=3 note=66 velocity=112 time=0.027901562499999994
EXTRACT: note_off channel=1 note=39 velocity=0 time=0.0018601041666666664
EXTRACT: note_off channel=2 note=51 velocity=0 time=0
EXTRACT: note_on channel=1 note=42 velocity=104 time=0.005580312499999999
EXTRACT: note_on channel=2 note=54 velocity=90 time=0
EXTRACT: note_on channel=9 note=35 velocity=108 time=0
EXTRACT: note_on channel=9 note=42 velocity=87 time=0
EXTRACT: note_off channel=9 note=42 velocity=0 time=0.0074404166666666655
EXTRACT: note_off channel=9 note=35 velocity=0 time=0
EXTRACT: note_on channel=4 note=90 velocity=60 time=0.031621770833333326
EXTRACT: note_on channel=4 note=93 velocity=76 time=0.0074404166666666655
EXTRACT: note_off channel=4 note=95 velocity=0 time=0.05208291666666666
EXTRACT: note_off channel=2 note=54 velocity=0 time=0.10416583333333332
EXTRACT: note_on channel=2 note=54 velocity=88 time=0.005580312499999999
EXTRACT: note_on channel=9 note=42 velocity=57 time=0
EXTRACT: note_off channel=9 note=42 velocity=0 time=0.0074404166666666655
EXTRACT: note_off channel=3 note=66 velocity=0 time=0.02604145833333333
EXTRACT: note_off channel=1 note=42 velocity=0 time=0.08184458333333332
EXTRACT: note_off channel=4 note=93 velocity=0 time=0.0018601041666666664
EXTRACT: note_off channel=4 note=90 velocity=0 time=0.013020729166666665
EXTRACT: note_off channel=2 note=54 velocity=0 time=0.013020729166666665
EXTRACT: note_on channel=3 note=66 velocity=108 time=0
EXTRACT: note_on channel=1 note=44 velocity=104 time=0.005580312499999999
EXTRACT: note_on channel=2 note=56 velocity=96 time=0
EXTRACT: note_on channel=4 note=87 velocity=60 time=0
EXTRACT: note_on channel=4 note=90 velocity=60 time=0
EXTRACT: note_on channel=9 note=40 velocity=107 time=0
EXTRACT: note_on channel=9 note=42 velocity=86 time=0
EXTRACT: note_off channel=9 note=42 velocity=0 time=0.0074404166666666655
EXTRACT: note_off channel=9 note=40 velocity=0 time=0
EXTRACT: note_off channel=3 note=66 velocity=0 time=0.14136791666666665
EXTRACT: note_off channel=2 note=56 velocity=0 time=0.05394302083333333
EXTRACT: note_on channel=3 note=67 velocity=112 time=0
EXTRACT: note_on channel=2 note=54 velocity=82 time=0.005580312499999999
EXTRACT: note_on channel=9 note=42 velocity=63 time=0
EXTRACT: note_off channel=9 note=42 velocity=0 time=0.0074404166666666655
EXTRACT: note_on channel=4 note=83 velocity=88 time=0.05208291666666666
EXTRACT: note_off channel=4 note=90 velocity=0 time=0.031621770833333326
EXTRACT: note_off channel=4 note=87 velocity=0 time=0
EXTRACT: note_off channel=1 note=44 velocity=0 time=0.05208291666666666
EXTRACT: note_off channel=2 note=54 velocity=0 time=0
EXTRACT: note_on channel=1 note=33 velocity=103 time=0.005580312499999999
EXTRACT: note_on channel=2 note=45 velocity=98 time=0
EXTRACT: note_on channel=9 note=35 velocity=108 time=0
EXTRACT: note_on channel=9 note=42 velocity=85 time=0
EXTRACT: note_off channel=4 note=83 velocity=0 time=0.005580312499999999
EXTRACT: note_off channel=9 note=42 velocity=0 time=0.0018601041666666664
EXTRACT: note_off channel=9 note=35 velocity=0 time=0
EXTRACT: note_on channel=4 note=91 velocity=72 time=0.02604145833333333
EXTRACT: note_on channel=4 note=95 velocity=84 time=0.0037202083333333327
EXTRACT: note_on channel=4 note=92 velocity=72 time=0.11346635416666664
EXTRACT: note_off channel=4 note=91 velocity=0 time=0.009300520833333333
EXTRACT: note_off channel=3 note=67 velocity=0 time=0.02604145833333333
EXTRACT: note_off channel=2 note=45 velocity=0 time=0.016740937499999997
EXTRACT: note_on channel=2 note=45 velocity=100 time=0.005580312499999999
EXTRACT: note_on channel=9 note=42 velocity=64 time=0
EXTRACT: note_off channel=9 note=42 velocity=0 time=0.0074404166666666655
EXTRACT: note_off channel=4 note=95 velocity=0 time=0.03906218749999999
EXTRACT: note_off channel=4 note=92 velocity=0 time=0.014880833333333331
EXTRACT: note_off channel=1 note=33 velocity=0 time=0.08184458333333332
EXTRACT: note_off channel=2 note=45 velocity=0 time=0
EXTRACT: note_on channel=1 note=37 velocity=103 time=0.005580312499999999
EXTRACT: note_on channel=2 note=49 velocity=88 time=0
EXTRACT: note_on channel=9 note=42 velocity=87 time=0
EXTRACT: note_on channel=9 note=40 velocity=107 time=0
EXTRACT: note_on channel=4 note=91 velocity=72 time=0.005580312499999999
EXTRACT: note_off channel=9 note=40 velocity=0 time=0.0018601041666666664
EXTRACT: note_off channel=9 note=42 velocity=0 time=0
EXTRACT: note_on channel=4 note=95 velocity=84 time=0.0037202083333333327
EXTRACT: note_off channel=4 note=91 velocity=0 time=0.06882385416666666
EXTRACT: note_on channel=4 note=92 velocity=72 time=0.0037202083333333327
EXTRACT: note_off channel=2 note=49 velocity=0 time=0.11904666666666665
EXTRACT: note_on channel=2 note=49 velocity=92 time=0.005580312499999999
EXTRACT: note_on channel=9 note=42 velocity=59 time=0
EXTRACT: note_off channel=9 note=42 velocity=0 time=0.0074404166666666655
EXTRACT: note_off channel=4 note=95 velocity=0 time=0.009300520833333333
EXTRACT: note_off channel=4 note=92 velocity=0 time=0.04278239583333333
EXTRACT: note_off channel=1 note=37 velocity=0 time=0.08370468749999999
EXTRACT: note_off channel=2 note=49 velocity=0 time=0
EXTRACT: note_on channel=1 note=40 velocity=106 time=0.005580312499999999
EXTRACT: note_on channel=2 note=52 velocity=90 time=0
EXTRACT: note_on channel=9 note=35 velocity=107 time=0
EXTRACT: note_on channel=9 note=42 velocity=87 time=0
EXTRACT: note_off channel=9 note=42 velocity=0 time=0.0074404166666666655
EXTRACT: note_off channel=9 note=35 velocity=0 time=0
EXTRACT: note_on channel=4 note=93 velocity=72 time=0.013020729166666665
EXTRACT: note_on channel=4 note=90 velocity=64 time=0.0074404166666666655
EXTRACT: note_off channel=2 note=52 velocity=0 time=0.17484979166666664
EXTRACT: note_on channel=2 note=52 velocity=90 time=0.005580312499999999
EXTRACT: note_on channel=9 note=42 velocity=58 time=0
EXTRACT: note_off channel=9 note=42 velocity=0 time=0.0074404166666666655
EXTRACT: note_off channel=4 note=93 velocity=0 time=0.0074404166666666655
EXTRACT: note_off channel=4 note=90 velocity=0 time=0.011160624999999999
EXTRACT: note_off channel=1 note=40 velocity=0 time=0.07440416666666666
EXTRACT: note_on channel=3 note=67 velocity=105 time=0.029761666666666662
EXTRACT: note_off channel=2 note=52 velocity=0 time=0.013020729166666665
EXTRACT: note_on channel=1 note=42 velocity=103 time=0.005580312499999999
EXTRACT: note_on channel=2 note=54 velocity=80 time=0
EXTRACT: note_on channel=9 note=40 velocity=108 time=0
EXTRACT: note_on channel=9 note=42 velocity=85 time=0
EXTRACT: note_on channel=4 note=86 velocity=84 time=0.005580312499999999
EXTRACT: note_off channel=9 note=42 velocity=0 time=0.0018601041666666664
EXTRACT: note_off channel=9 note=40 velocity=0 time=0
EXTRACT: note_on channel=4 note=90 velocity=76 time=0.018601041666666665
EXTRACT: note_off channel=4 note=86 velocity=0 time=0.027901562499999994
EXTRACT: note_on channel=4 note=87 velocity=61 time=0.0037202083333333327
EXTRACT: note_off channel=3 note=67 velocity=0 time=0.06510364583333332
EXTRACT: note_off channel=2 note=54 velocity=0 time=0.07998447916666665
EXTRACT: note_on channel=2 note=52 velocity=90 time=0.005580312499999999
EXTRACT: note_on channel=9 note=42 velocity=62 time=0
EXTRACT: note_off channel=9 note=42 velocity=0 time=0.0074404166666666655
EXTRACT: note_on channel=3 note=67 velocity=107 time=0.0074404166666666655
EXTRACT: note_off channel=1 note=42 velocity=0 time=0.1283471875
EXTRACT: note_off channel=2 note=52 velocity=0 time=0
EXTRACT: note_on channel=1 note=28 velocity=106 time=0.005580312499999999
EXTRACT: note_on channel=2 note=40 velocity=96 time=0
EXTRACT: note_on channel=9 note=35 velocity=107 time=0
EXTRACT: note_on channel=9 note=42 velocity=84 time=0
EXTRACT: note_off channel=9 note=42 velocity=0 time=0.0074404166666666655
EXTRACT: note_off channel=9 note=35 velocity=0 time=0
EXTRACT: note_off channel=3 note=67 velocity=0 time=0.09858552083333331
EXTRACT: note_off channel=4 note=87 velocity=0 time=0.018601041666666665
EXTRACT: note_off channel=4 note=90 velocity=0 time=0.016740937499999997
EXTRACT: note_on channel=3 note=64 velocity=106 time=0.057663229166666656
EXTRACT: note_off channel=2 note=40 velocity=0 time=0.0037202083333333327
EXTRACT: note_on channel=2 note=40 velocity=96 time=0.005580312499999999
EXTRACT: note_on channel=9 note=42 velocity=59 time=0
EXTRACT: note_off channel=9 note=42 velocity=0 time=0.0074404166666666655
EXTRACT: note_on channel=4 note=100 velocity=96 time=0.014880833333333331
EXTRACT: note_on channel=4 note=88 velocity=94 time=0
EXTRACT: note_off channel=3 note=64 velocity=0 time=0.05394302083333333
EXTRACT: note_off channel=1 note=28 velocity=0 time=0.06696374999999999
EXTRACT: note_off channel=2 note=40 velocity=0 time=0
EXTRACT: note_on channel=1 note=32 velocity=101 time=0.005580312499999999
EXTRACT: note_on channel=2 note=44 velocity=78 time=0
EXTRACT: note_on channel=9 note=42 velocity=88 time=0
EXTRACT: note_on channel=9 note=40 velocity=108 time=0
EXTRACT: note_off channel=9 note=40 velocity=0 time=0.0074404166666666655
EXTRACT: note_off channel=9 note=42 velocity=0 time=0
EXTRACT: note_on channel=3 note=64 velocity=110 time=0.0018601041666666664
EXTRACT: note_on channel=4 note=86 velocity=60 time=0.024181354166666662
EXTRACT: note_on channel=4 note=98 velocity=60 time=0
EXTRACT: note_off channel=4 note=88 velocity=0 time=0.009300520833333333
EXTRACT: note_off channel=4 note=100 velocity=0 time=0
EXTRACT: note_off channel=3 note=64 velocity=0 time=0.14136791666666665
EXTRACT: note_off channel=4 note=98 velocity=0 time=0.0018601041666666664
EXTRACT: note_off channel=4 note=86 velocity=0 time=0
EXTRACT: note_off channel=2 note=44 velocity=0 time=0.016740937499999997
EXTRACT: note_on channel=2 note=44 velocity=84 time=0.005580312499999999
EXTRACT: note_on channel=9 note=42 velocity=58 time=0
EXTRACT: note_off channel=9 note=42 velocity=0 time=0.0074404166666666655
EXTRACT: note_on channel=3 note=62 velocity=104 time=0.013020729166666665
EXTRACT: note_on channel=4 note=95 velocity=84 time=0.009300520833333333
EXTRACT: note_on channel=4 note=83 velocity=80 time=0
EXTRACT: note_off channel=3 note=62 velocity=0 time=0.05394302083333333
EXTRACT: note_off channel=1 note=32 velocity=0 time=0.059523333333333324
EXTRACT: note_off channel=2 note=44 velocity=0 time=0
EXTRACT: note_off channel=4 note=83 velocity=0 time=0
EXTRACT: note_off channel=4 note=95 velocity=0 time=0
EXTRACT: note_on channel=3 note=64 velocity=109 time=0.0018601041666666664
EXTRACT: note_on channel=1 note=35 velocity=105 time=0.0037202083333333327
EXTRACT: note_on channel=2 note=47 velocity=88 time=0
EXTRACT: note_on channel=9 note=35 velocity=108 time=0
EXTRACT: note_on channel=9 note=42 velocity=87 time=0
EXTRACT: note_off channel=9 note=42 velocity=0 time=0.0074404166666666655
EXTRACT: note_off channel=9 note=35 velocity=0 time=0
EXTRACT: note_on channel=4 note=93 velocity=52 time=0.033481874999999994
EXTRACT: note_on channel=4 note=81 velocity=52 time=0
EXTRACT: note_off channel=4 note=81 velocity=0 time=0.14136791666666665
EXTRACT: note_off channel=4 note=93 velocity=0 time=0
EXTRACT: note_off channel=2 note=47 velocity=0 time=0.02046114583333333
EXTRACT: note_on channel=2 note=47 velocity=88 time=0.005580312499999999
EXTRACT: note_on channel=9 note=42 velocity=57 time=0
EXTRACT: note_off channel=9 note=42 velocity=0 time=0.0074404166666666655
EXTRACT: note_on channel=4 note=79 velocity=80 time=0.009300520833333333
EXTRACT: note_on channel=4 note=91 velocity=80 time=0
EXTRACT: note_off channel=3 note=64 velocity=0 time=0.048362708333333324
EXTRACT: note_off channel=4 note=91 velocity=0 time=0.07626427083333333
EXTRACT: note_off channel=4 note=79 velocity=0 time=0
EXTRACT: note_off channel=1 note=35 velocity=0 time=0.0018601041666666664
EXTRACT: note_off channel=2 note=47 velocity=0 time=0
EXTRACT: note_on channel=3 note=64 velocity=109 time=0
EXTRACT: note_on channel=1 note=37 velocity=99 time=0.005580312499999999
EXTRACT: note_on channel=2 note=49 velocity=88 time=0
EXTRACT: note_on channel=4 note=80 velocity=80 time=0
EXTRACT: note_on channel=4 note=92 velocity=80 time=0
EXTRACT: note_on channel=9 note=40 velocity=107 time=0
EXTRACT: note_on channel=9 note=42 velocity=86 time=0
EXTRACT: note_off channel=9 note=42 velocity=0 time=0.0074404166666666655
EXTRACT: note_off channel=9 note=40 velocity=0 time=0
EXTRACT: note_off channel=4 note=92 velocity=0 time=0.11718656249999998
EXTRACT: note_off channel=4 note=80 velocity=0 time=0
EXTRACT: note_off channel=3 note=64 velocity=0 time=0.04278239583333333
EXTRACT: note_on channel=4 note=75 velocity=43 time=0.029761666666666662
EXTRACT: note_off channel=2 note=49 velocity=0 time=0.005580312499999999
EXTRACT: note_on channel=4 note=87 velocity=44 time=0
EXTRACT: note_on channel=2 note=47 velocity=86 time=0.005580312499999999
EXTRACT: note_on channel=9 note=42 velocity=63 time=0
EXTRACT: note_off channel=9 note=42 velocity=0 time=0.0074404166666666655
EXTRACT: note_on channel=3 note=64 velocity=106 time=0.016740937499999997
EXTRACT: note_off channel=4 note=75 velocity=0 time=0.08742489583333332
EXTRACT: note_off channel=4 note=87 velocity=0 time=0.0037202083333333327
EXTRACT: note_on channel=4 note=88 velocity=78 time=0.005580312499999999
EXTRACT: note_on channel=4 note=76 velocity=64 time=0
EXTRACT: note_off channel=1 note=37 velocity=0 time=0.018601041666666665
EXTRACT: note_off channel=2 note=47 velocity=0 time=0.0037202083333333327
EXTRACT: note_on channel=1 note=28 velocity=105 time=0.005580312499999999
EXTRACT: note_on channel=2 note=40 velocity=96 time=0
EXTRACT: note_on channel=9 note=35 velocity=107 time=0
EXTRACT: note_on channel=9 note=42 velocity=84 time=0
EXTRACT: note_off channel=9 note=42 velocity=0 time=0.0074404166666666655
EXTRACT: note_off channel=9 note=35 velocity=0 time=0
EXTRACT: note_off channel=3 note=64 velocity=0 time=0.13578760416666666
EXTRACT: note_off channel=2 note=40 velocity=0 time=0.059523333333333324
EXTRACT: note_on channel=2 note=40 velocity=96 time=0.005580312499999999
EXTRACT: note_on channel=9 note=40 velocity=108 time=0
EXTRACT: note_on channel=9 note=42 velocity=59 time=0
EXTRACT: note_off channel=9 note=42 velocity=0 time=0.0074404166666666655
EXTRACT: note_off channel=9 note=40 velocity=0 time=0
EXTRACT: note_off channel=1 note=28 velocity=0 time=0.13578760416666666
EXTRACT: note_off channel=2 note=40 velocity=0 time=0
EXTRACT: note_on channel=1 note=32 velocity=103 time=0.005580312499999999
EXTRACT: note_on channel=2 note=44 velocity=78 time=0
EXTRACT: note_on channel=9 note=46 velocity=75 time=0
EXTRACT: note_off channel=9 note=46 velocity=0 time=0.0074404166666666655
EXTRACT: note_off channel=2 note=44 velocity=0 time=0.19531093749999998
EXTRACT: note_on channel=2 note=44 velocity=84 time=0.005580312499999999
EXTRACT: note_off channel=4 note=76 velocity=0 time=0.027901562499999994
EXTRACT: note_on channel=9 note=40 velocity=108 time=0.0018601041666666664
EXTRACT: note_off channel=9 note=40 velocity=0 time=0.0074404166666666655
EXTRACT: note_off channel=4 note=88 velocity=0 time=0.018601041666666665
EXTRACT: note_off channel=1 note=32 velocity=0 time=0.08742489583333332
EXTRACT: note_off channel=2 note=44 velocity=0 time=0
EXTRACT: note_on channel=1 note=35 velocity=102 time=0.005580312499999999
EXTRACT: note_on channel=2 note=47 velocity=88 time=0
EXTRACT: note_on channel=9 note=40 velocity=108 time=0
EXTRACT: note_on channel=9 note=35 velocity=83 time=0
EXTRACT: note_off channel=9 note=35 velocity=0 time=0.0074404166666666655
EXTRACT: note_off channel=9 note=40 velocity=0 time=0
EXTRACT: note_off channel=2 note=47 velocity=0 time=0.19531093749999998
EXTRACT: note_on channel=2 note=47 velocity=82 time=0.005580312499999999
EXTRACT: note_off channel=1 note=35 velocity=0 time=0.12462697916666665
EXTRACT: note_off channel=2 note=47 velocity=0 time=0.018601041666666665
EXTRACT: note_on channel=1 note=37 velocity=102 time=0.005580312499999999
EXTRACT: note_on channel=2 note=49 velocity=65 time=0
EXTRACT: note_on channel=9 note=35 velocity=108 time=0
EXTRACT: note_on channel=9 note=49 velocity=55 time=0
EXTRACT: note_off channel=9 note=49 velocity=0 time=0.0074404166666666655
EXTRACT: note_off channel=9 note=35 velocity=0 time=0
EXTRACT: note_off channel=2 note=49 velocity=0 time=0.19531093749999998
EXTRACT: note_on channel=2 note=47 velocity=71 time=0.005580312499999999
EXTRACT: note_on channel=4 note=61 velocity=88 time=0.029761666666666662
EXTRACT: note_on channel=4 note=64 velocity=76 time=0
EXTRACT: note_on channel=4 note=59 velocity=88 time=0
EXTRACT: note_on channel=4 note=67 velocity=84 time=0
EXTRACT: note_off channel=1 note=37 velocity=0 time=0.09486531249999998
EXTRACT: note_off channel=2 note=47 velocity=0 time=0.018601041666666665
EXTRACT: note_on channel=1 note=33 velocity=108 time=0.005580312499999999
EXTRACT: note_on channel=4 note=45 velocity=76 time=0
EXTRACT: note_on channel=9 note=35 velocity=108 time=0
EXTRACT: note_on channel=9 note=57 velocity=55 time=0
EXTRACT: note_off channel=9 note=57 velocity=0 time=0.0074404166666666655
EXTRACT: note_off channel=9 note=35 velocity=0 time=0
EXTRACT: note_off channel=4 note=61 velocity=0 time=0.014880833333333331
EXTRACT: note_off channel=4 note=64 velocity=0 time=0.0037202083333333327
EXTRACT: note_off channel=4 note=67 velocity=0 time=0.011160624999999999
EXTRACT: note_off channel=4 note=59 velocity=0 time=0.005580312499999999
EXTRACT: note_on channel=2 note=67 velocity=107 time=0.16182906249999998
EXTRACT: note_on channel=9 note=51 velocity=56 time=0.0037202083333333327
EXTRACT: note_on channel=2 note=76 velocity=107 time=0.0018601041666666664
EXTRACT: note_off channel=9 note=51 velocity=0 time=0.005580312499999999
EXTRACT: note_off channel=2 note=76 velocity=0 time=0.06696374999999999
EXTRACT: note_off channel=2 note=67 velocity=0 time=0.02046114583333333
EXTRACT: note_off channel=4 note=45 velocity=0 time=0
EXTRACT: note_on channel=4 note=49 velocity=60 time=0.011160624999999999
EXTRACT: note_off channel=1 note=33 velocity=0 time=0.0074404166666666655
EXTRACT: note_on channel=2 note=67 velocity=99 time=0.016740937499999997
EXTRACT: note_on channel=2 note=76 velocity=106 time=0.0018601041666666664
EXTRACT: note_on channel=1 note=37 velocity=102 time=0.016740937499999997
EXTRACT: note_on channel=9 note=51 velocity=82 time=0
EXTRACT: note_on channel=9 note=40 velocity=107 time=0
EXTRACT: note_off channel=9 note=40 velocity=0 time=0.0074404166666666655
EXTRACT: note_off channel=9 note=51 velocity=0 time=0
EXTRACT: note_off channel=2 note=76 velocity=0 time=0.09858552083333331
EXTRACT: note_off channel=2 note=67 velocity=0 time=0.018601041666666665
EXTRACT: note_on channel=9 note=51 velocity=58 time=0.08370468749999999
EXTRACT: note_on channel=2 note=67 velocity=110 time=0.0037202083333333327
EXTRACT: note_off channel=9 note=51 velocity=0 time=0.0037202083333333327
EXTRACT: note_on channel=2 note=76 velocity=111 time=0.0074404166666666655
EXTRACT: note_on channel=4 note=64 velocity=96 time=0.013020729166666665
EXTRACT: note_on channel=4 note=59 velocity=100 time=0
EXTRACT: note_on channel=4 note=67 velocity=92 time=0.0018601041666666664
EXTRACT: note_on channel=4 note=61 velocity=92 time=0.0018601041666666664
EXTRACT: note_off channel=1 note=37 velocity=0 time=0.11160624999999998
EXTRACT: note_on channel=1 note=40 velocity=104 time=0.005580312499999999
EXTRACT: note_on channel=9 note=51 velocity=86 time=0
EXTRACT: note_on channel=9 note=35 velocity=107 time=0
EXTRACT: note_off channel=9 note=35 velocity=0 time=0.0074404166666666655
EXTRACT: note_off channel=9 note=51 velocity=0 time=0
EXTRACT: note_on channel=4 note=52 velocity=84 time=0.05394302083333333
EXTRACT: note_off channel=4 note=49 velocity=0 time=0.02604145833333333
EXTRACT: note_off channel=2 note=67 velocity=0 time=0.02046114583333333
EXTRACT: note_off channel=2 note=76 velocity=0 time=0.005580312499999999
EXTRACT: note_on channel=2 note=67 velocity=108 time=0.07254406249999999
EXTRACT: note_on channel=2 note=76 velocity=110 time=0.0037202083333333327
EXTRACT: note_on channel=9 note=51 velocity=67 time=0.018601041666666665
EXTRACT: note_off channel=9 note=51 velocity=0 time=0.0074404166666666655
EXTRACT: note_off channel=2 note=76 velocity=0 time=0.059523333333333324
EXTRACT: note_off channel=2 note=67 velocity=0 time=0.011160624999999999
EXTRACT: note_on channel=2 note=67 velocity=109 time=0.048362708333333324
EXTRACT: note_on channel=2 note=76 velocity=109 time=0.009300520833333333
EXTRACT: note_off channel=1 note=40 velocity=0 time=0.0074404166666666655
EXTRACT: note_on channel=1 note=42 velocity=104 time=0.005580312499999999
EXTRACT: note_on channel=9 note=51 velocity=86 time=0
EXTRACT: note_on channel=9 note=40 velocity=108 time=0
EXTRACT: note_off channel=9 note=40 velocity=0 time=0.0074404166666666655
EXTRACT: note_off channel=9 note=51 velocity=0 time=0
EXTRACT: note_on channel=4 note=54 velocity=84 time=0.0037202083333333327
EXTRACT: note_off channel=4 note=52 velocity=0 time=0.009300520833333333
EXTRACT: note_off channel=4 note=67 velocity=0 time=0.029761666666666662
EXTRACT: note_off channel=4 note=59 velocity=0 time=0.044642499999999995
EXTRACT: note_off channel=4 note=61 velocity=0 time=0.011160624999999999
EXTRACT: note_off channel=4 note=64 velocity=0 time=0.016740937499999997
EXTRACT: note_off channel=2 note=76 velocity=0 time=0.014880833333333331
EXTRACT: note_off channel=2 note=67 velocity=0 time=0.0037202083333333327
EXTRACT: note_on channel=9 note=51 velocity=61 time=0.06696374999999999
EXTRACT: note_on channel=4 note=59 velocity=92 time=0.005580312499999999
EXTRACT: note_on channel=4 note=64 velocity=84 time=0.0018601041666666664
EXTRACT: note_off channel=9 note=51 velocity=0 time=0
EXTRACT: note_on channel=2 note=67 velocity=112 time=0.0018601041666666664
EXTRACT: note_on channel=4 note=67 velocity=92 time=0
EXTRACT: note_on channel=4 note=61 velocity=104 time=0.0018601041666666664
EXTRACT: note_on channel=2 note=76 velocity=113 time=0.0018601041666666664
EXTRACT: note_off channel=4 note=54 velocity=0 time=0.06882385416666666
EXTRACT: note_off channel=1 note=42 velocity=0 time=0.06138343749999999
EXTRACT: note_on channel=1 note=43 velocity=104 time=0.005580312499999999
EXTRACT: note_on channel=9 note=51 velocity=84 time=0
EXTRACT: note_on channel=9 note=35 velocity=107 time=0
EXTRACT: note_off channel=9 note=35 velocity=0 time=0.0074404166666666655
EXTRACT: note_off channel=9 note=51 velocity=0 time=0
EXTRACT: note_on channel=4 note=55 velocity=92 time=0.013020729166666665
EXTRACT: note_off channel=2 note=67 velocity=0 time=0.09486531249999998
EXTRACT: note_off channel=2 note=76 velocity=0 time=0.018601041666666665
EXTRACT: note_on channel=2 note=76 velocity=106 time=0.05394302083333333
EXTRACT: note_on channel=2 note=67 velocity=106 time=0.005580312499999999
EXTRACT: note_on channel=9 note=51 velocity=59 time=0.014880833333333331
EXTRACT: note_off channel=9 note=51 velocity=0 time=0.0074404166666666655
EXTRACT: note_off channel=2 note=76 velocity=0 time=0.06138343749999999
EXTRACT: note_off channel=2 note=67 velocity=0 time=0.011160624999999999
EXTRACT: note_on channel=4 note=54 velocity=80 time=0.031621770833333326
EXTRACT: note_off channel=1 note=43 velocity=0 time=0.031621770833333326
EXTRACT: note_on channel=1 note=42 velocity=102 time=0.005580312499999999
EXTRACT: note_on channel=9 note=40 velocity=108 time=0
EXTRACT: note_on channel=9 note=51 velocity=88 time=0
EXTRACT: note_on channel=2 note=67 velocity=111 time=0.0018601041666666664
EXTRACT: note_on channel=2 note=76 velocity=115 time=0.0018601041666666664
EXTRACT: note_off channel=9 note=51 velocity=0 time=0.0037202083333333327
EXTRACT: note_off channel=9 note=40 velocity=0 time=0
EXTRACT: note_off channel=4 note=55 velocity=0 time=0.014880833333333331
EXTRACT: note_off channel=4 note=67 velocity=0 time=0.0018601041666666664
EXTRACT: note_off channel=4 note=59 velocity=0 time=0.03534197916666666
EXTRACT: note_off channel=4 note=64 velocity=0 time=0.013020729166666665
EXTRACT: note_off channel=4 note=61 velocity=0 time=0.005580312499999999
EXTRACT: note_off channel=2 note=76 velocity=0 time=0.07068395833333332
EXTRACT: note_off channel=2 note=67 velocity=0 time=0.0074404166666666655
EXTRACT: note_on channel=9 note=51 velocity=58 time=0.05208291666666666
EXTRACT: note_off channel=9 note=51 velocity=0 time=0.0074404166666666655
EXTRACT: note_on channel=4 note=61 velocity=96 time=0.022321249999999997
EXTRACT: note_on channel=4 note=67 velocity=100 time=0
EXTRACT: note_on channel=4 note=64 velocity=92 time=0
EXTRACT: note_on channel=4 note=59 velocity=96 time=0
EXTRACT: note_on channel=2 note=67 velocity=114 time=0.0018601041666666664
EXTRACT: note_on channel=2 note=76 velocity=115 time=0
EXTRACT: note_off channel=4 note=64 velocity=0 time=0.07068395833333332
EXTRACT: note_off channel=4 note=59 velocity=0 time=0.0018601041666666664
EXTRACT: note_off channel=4 note=61 velocity=0 time=0.005580312499999999
EXTRACT: note_off channel=4 note=67 velocity=0 time=0.011160624999999999
EXTRACT: note_on channel=4 note=52 velocity=84 time=0.02046114583333333
EXTRACT: note_off channel=1 note=42 velocity=0 time=0.0018601041666666664
EXTRACT: note_on channel=1 note=40 velocity=105 time=0.005580312499999999
EXTRACT: note_on channel=9 note=51 velocity=87 time=0
EXTRACT: note_on channel=9 note=35 velocity=108 time=0
EXTRACT: note_off channel=9 note=35 velocity=0 time=0.0074404166666666655
EXTRACT: note_off channel=9 note=51 velocity=0 time=0
EXTRACT: note_off channel=4 note=54 velocity=0 time=0.031621770833333326
EXTRACT: note_off channel=2 note=67 velocity=0 time=0.09114510416666666
EXTRACT: note_off channel=2 note=76 velocity=0 time=0.013020729166666665
EXTRACT: note_on channel=2 note=76 velocity=109 time=0.057663229166666656
EXTRACT: note_on channel=9 note=51 velocity=57 time=0.0074404166666666655
EXTRACT: note_on channel=2 note=67 velocity=107 time=0.005580312499999999
EXTRACT: note_off channel=9 note=51 velocity=0 time=0.0018601041666666664
EXTRACT: note_on channel=4 note=59 velocity=72 time=0.014880833333333331
EXTRACT: note_off channel=2 note=67 velocity=0 time=0.059523333333333324
EXTRACT: note_off channel=2 note=76 velocity=0 time=0.005580312499999999
EXTRACT: note_off channel=4 note=59 velocity=0 time=0.011160624999999999
EXTRACT: note_off channel=1 note=40 velocity=0 time=0.044642499999999995
EXTRACT: note_on channel=1 note=37 velocity=101 time=0.005580312499999999
EXTRACT: note_on channel=9 note=51 velocity=86 time=0
EXTRACT: note_on channel=9 note=40 velocity=107 time=0
EXTRACT: note_off channel=9 note=40 velocity=0 time=0.0074404166666666655
EXTRACT: note_off channel=9 note=51 velocity=0 time=0
EXTRACT: note_on channel=2 note=67 velocity=113 time=0.0018601041666666664
EXTRACT: note_on channel=2 note=76 velocity=113 time=0
EXTRACT: note_on channel=4 note=67 velocity=104 time=0
EXTRACT: note_on channel=4 note=61 velocity=108 time=0.0018601041666666664
EXTRACT: note_on channel=4 note=59 velocity=84 time=0.0018601041666666664
EXTRACT: note_on channel=4 note=64 velocity=100 time=0
EXTRACT: note_on channel=4 note=49 velocity=52 time=0.05394302083333333
EXTRACT: note_off channel=4 note=52 velocity=0 time=0.018601041666666665
EXTRACT: note_off channel=4 note=49 velocity=0 time=0.08928499999999999
EXTRACT: note_off channel=4 note=61 velocity=0 time=0.0018601041666666664
EXTRACT: note_off channel=4 note=67 velocity=0 time=0.016740937499999997
EXTRACT: note_on channel=9 note=51 velocity=63 time=0.014880833333333331
EXTRACT: note_off channel=4 note=59 velocity=0 time=0.0037202083333333327
EXTRACT: note_off channel=4 note=64 velocity=0 time=0.0037202083333333327
EXTRACT: note_off channel=9 note=51 velocity=0 time=0
EXTRACT: note_on channel=4 note=68 velocity=108 time=0.022321249999999997
EXTRACT: note_on channel=4 note=64 velocity=100 time=0
EXTRACT: note_on channel=4 note=59 velocity=92 time=0
EXTRACT: note_on channel=4 note=62 velocity=100 time=0
EXTRACT: note_off channel=2 note=67 velocity=0 time=0.018601041666666665
EXTRACT: note_off channel=2 note=76 velocity=0 time=0.027901562499999994
EXTRACT: note_off channel=1 note=37 velocity=0 time=0.011160624999999999
EXTRACT: note_on channel=1 note=28 velocity=103 time=0.06138343749999999
EXTRACT: note_on channel=4 note=40 velocity=100 time=0
EXTRACT: note_on channel=9 note=35 velocity=108 time=0
EXTRACT: note_on channel=9 note=51 velocity=85 time=0
EXTRACT: note_off channel=9 note=51 velocity=0 time=0.0074404166666666655
EXTRACT: note_off channel=9 note=35 velocity=0 time=0
EXTRACT: pitchwheel channel=2 pitch=-4224 time=0.16926947916666665
EXTRACT: note_on channel=2 note=68 velocity=118 time=0.011160624999999999
EXTRACT: note_on channel=9 note=51 velocity=64 time=0.02046114583333333
EXTRACT: note_off channel=9 note=51 velocity=0 time=0.0074404166666666655
EXTRACT: note_off channel=4 note=40 velocity=0 time=0.04092229166666666
EXTRACT: pitchwheel channel=2 pitch=-3584 time=0.048362708333333324
EXTRACT: pitchwheel channel=2 pitch=-2432 time=0.014880833333333331
EXTRACT: pitchwheel channel=2 pitch=-1664 time=0.014880833333333331
EXTRACT: pitchwheel channel=2 pitch=-768 time=0.013020729166666665
EXTRACT: note_off channel=1 note=28 velocity=0 time=0.0037202083333333327
EXTRACT: note_on channel=1 note=32 velocity=101 time=0.005580312499999999
EXTRACT: note_on channel=9 note=40 velocity=107 time=0
EXTRACT: note_on channel=9 note=51 velocity=87 time=0
EXTRACT: pitchwheel channel=2 pitch=-384 time=0.0074404166666666655
EXTRACT: note_on channel=4 note=44 velocity=80 time=0
EXTRACT: note_off channel=9 note=51 velocity=0 time=0
EXTRACT: note_off channel=9 note=40 velocity=0 time=0
EXTRACT: pitchwheel channel=2 pitch=-128 time=0.013020729166666665
EXTRACT: pitchwheel channel=2 pitch=0 time=0.013020729166666665
EXTRACT: note_off channel=2 note=68 velocity=0 time=0.14880833333333332
EXTRACT: pitchwheel channel=2 pitch=-4096 time=0.0037202083333333327
EXTRACT: note_on channel=2 note=68 velocity=118 time=0.0018601041666666664
EXTRACT: note_on channel=9 note=51 velocity=59 time=0.02046114583333333
EXTRACT: note_off channel=9 note=51 velocity=0 time=0.0074404166666666655
EXTRACT: pitchwheel channel=2 pitch=-3840 time=0.05394302083333333
EXTRACT: pitchwheel channel=2 pitch=-2944 time=0.014880833333333331
EXTRACT: pitchwheel channel=2 pitch=-2048 time=0.014880833333333331
EXTRACT: pitchwheel channel=2 pitch=-768 time=0.014880833333333331
EXTRACT: pitchwheel channel=2 pitch=-512 time=0.014880833333333331
EXTRACT: pitchwheel channel=2 pitch=-256 time=0.014880833333333331
EXTRACT: note_off channel=1 note=32 velocity=0 time=0.0074404166666666655
EXTRACT: note_on channel=1 note=35 velocity=101 time=0.005580312499999999
EXTRACT: pitchwheel channel=2 pitch=0 time=0
EXTRACT: note_on channel=4 note=47 velocity=100 time=0
EXTRACT: note_on channel=9 note=35 velocity=107 time=0
EXTRACT: note_on channel=9 note=51 velocity=87 time=0
EXTRACT: note_off channel=9 note=51 velocity=0 time=0.0074404166666666655
EXTRACT: note_off channel=9 note=35 velocity=0 time=0
EXTRACT: note_off channel=4 note=44 velocity=0 time=0.009300520833333333
EXTRACT: note_off channel=4 note=68 velocity=0 time=0.048362708333333324
EXTRACT: note_off channel=4 note=62 velocity=0 time=0.018601041666666665
EXTRACT: note_off channel=4 note=59 velocity=0 time=0
EXTRACT: note_off channel=4 note=64 velocity=0 time=0.027901562499999994
EXTRACT: note_off channel=2 note=68 velocity=0 time=0.03906218749999999
EXTRACT: note_on channel=2 note=68 velocity=112 time=0.02604145833333333
EXTRACT: note_on channel=4 note=64 velocity=96 time=0.029761666666666662
EXTRACT: note_on channel=4 note=62 velocity=92 time=0.0018601041666666664
EXTRACT: note_on channel=9 note=51 velocity=58 time=0
EXTRACT: note_on channel=4 note=59 velocity=92 time=0.0018601041666666664
EXTRACT: note_on channel=4 note=68 velocity=88 time=0.0037202083333333327
EXTRACT: note_off channel=9 note=51 velocity=0 time=0.0018601041666666664
EXTRACT: note_off channel=2 note=68 velocity=0 time=0.05580312499999999
EXTRACT: note_on channel=2 note=68 velocity=111 time=0.07254406249999999
EXTRACT: note_off channel=1 note=35 velocity=0 time=0.0074404166666666655
EXTRACT: note_on channel=1 note=37 velocity=102 time=0.005580312499999999
EXTRACT: note_on channel=4 note=49 velocity=84 time=0
EXTRACT: note_on channel=9 note=40 velocity=108 time=0
EXTRACT: note_on channel=9 note=51 velocity=85 time=0
EXTRACT: note_off channel=4 note=68 velocity=0 time=0.0018601041666666664
EXTRACT: note_off channel=4 note=59 velocity=0 time=0
EXTRACT: note_off channel=4 note=64 velocity=0 time=0.0037202083333333327
EXTRACT: note_off channel=4 note=62 velocity=0 time=0.0018601041666666664
EXTRACT: note_off channel=9 note=51 velocity=0 time=0
EXTRACT: note_off channel=9 note=40 velocity=0 time=0
EXTRACT: note_off channel=4 note=47 velocity=0 time=0.05208291666666666
EXTRACT: note_off channel=2 note=68 velocity=0 time=0.10230572916666665
EXTRACT: note_on channel=4 note=59 velocity=60 time=0.0037202083333333327
EXTRACT: note_on channel=9 note=51 velocity=62 time=0.04278239583333333
EXTRACT: note_off channel=9 note=51 velocity=0 time=0.0074404166666666655
EXTRACT: note_on channel=2 note=68 velocity=117 time=0.022321249999999997
EXTRACT: note_off channel=4 note=59 velocity=0 time=0.016740937499999997
EXTRACT: note_off channel=4 note=49 velocity=0 time=0.07440416666666666
EXTRACT: note_on channel=4 note=64 velocity=76 time=0.013020729166666665
EXTRACT: note_on channel=4 note=62 velocity=84 time=0.0018601041666666664
EXTRACT: note_on channel=4 note=68 velocity=88 time=0
EXTRACT: note_on channel=4 note=59 velocity=80 time=0.0037202083333333327
EXTRACT: note_off channel=1 note=37 velocity=0 time=0.0037202083333333327
EXTRACT: note_on channel=1 note=38 velocity=103 time=0.005580312499999999
EXTRACT: note_on channel=4 note=50 velocity=76 time=0
EXTRACT: note_on channel=9 note=35 velocity=107 time=0
EXTRACT: note_on channel=9 note=51 velocity=84 time=0
EXTRACT: note_off channel=9 note=51 velocity=0 time=0.0074404166666666655
EXTRACT: note_off channel=9 note=35 velocity=0 time=0
EXTRACT: note_off channel=2 note=68 velocity=0 time=0.14508812499999998
EXTRACT: note_on channel=2 note=68 velocity=109 time=0.05580312499999999
EXTRACT: note_on channel=9 note=51 velocity=59 time=0
EXTRACT: note_off channel=9 note=51 velocity=0 time=0.0074404166666666655
EXTRACT: note_off channel=2 note=68 velocity=0 time=0.10230572916666665
EXTRACT: note_on channel=4 note=49 velocity=88 time=0.016740937499999997
EXTRACT: note_off channel=1 note=38 velocity=0 time=0.013020729166666665
EXTRACT: note_off channel=4 note=50 velocity=0 time=0.005580312499999999
EXTRACT: note_on channel=1 note=37 velocity=97 time=0.0037202083333333327
EXTRACT: note_on channel=9 note=40 velocity=108 time=0
EXTRACT: note_on channel=9 note=51 velocity=88 time=0
EXTRACT: note_off channel=9 note=51 velocity=0 time=0.0074404166666666655
EXTRACT: note_off channel=9 note=40 velocity=0 time=0
EXTRACT: note_on channel=2 note=68 velocity=117 time=0.014880833333333331
EXTRACT: note_off channel=4 note=68 velocity=0 time=0.022321249999999997
EXTRACT: note_off channel=4 note=62 velocity=0 time=0.009300520833333333
EXTRACT: note_off channel=4 note=59 velocity=0 time=0.005580312499999999
EXTRACT: note_off channel=4 note=64 velocity=0 time=0.009300520833333333
EXTRACT: note_off channel=2 note=68 velocity=0 time=0.11346635416666664
EXTRACT: note_on channel=9 note=51 velocity=58 time=0.02604145833333333
EXTRACT: note_on channel=4 note=64 velocity=92 time=0.005580312499999999
EXTRACT: note_on channel=4 note=62 velocity=96 time=0.0018601041666666664
EXTRACT: note_off channel=9 note=51 velocity=0 time=0
EXTRACT: note_on channel=4 note=59 velocity=88 time=0.0018601041666666664
EXTRACT: note_on channel=4 note=68 velocity=80 time=0.0037202083333333327
EXTRACT: note_on channel=2 note=68 velocity=108 time=0.027901562499999994
EXTRACT: note_off channel=4 note=62 velocity=0 time=0.011160624999999999
EXTRACT: note_off channel=4 note=68 velocity=0 time=0.0037202083333333327
EXTRACT: note_off channel=4 note=64 velocity=0 time=0.0037202083333333327
EXTRACT: note_off channel=4 note=59 velocity=0 time=0.016740937499999997
EXTRACT: note_off channel=1 note=37 velocity=0 time=0.06696374999999999
EXTRACT: note_on channel=1 note=35 velocity=99 time=0.005580312499999999
EXTRACT: note_on channel=9 note=35 velocity=108 time=0
EXTRACT: note_on channel=9 note=51 velocity=87 time=0
EXTRACT: note_on channel=4 note=47 velocity=76 time=0.005580312499999999
EXTRACT: note_off channel=9 note=51 velocity=0 time=0.0018601041666666664
EXTRACT: note_off channel=9 note=35 velocity=0 time=0
EXTRACT: note_off channel=4 note=49 velocity=0 time=0.02604145833333333
EXTRACT: note_off channel=2 note=68 velocity=0 time=0.12090677083333332
EXTRACT: note_on channel=2 note=68 velocity=113 time=0.04650260416666666
EXTRACT: note_on channel=9 note=51 velocity=57 time=0.0074404166666666655
EXTRACT: note_off channel=9 note=51 velocity=0 time=0.0074404166666666655
EXTRACT: note_on channel=4 note=59 velocity=60 time=0.0018601041666666664
EXTRACT: note_off channel=2 note=68 velocity=0 time=0.05394302083333333
EXTRACT: note_off channel=4 note=59 velocity=0 time=0.0074404166666666655
EXTRACT: note_on channel=4 note=62 velocity=100 time=0.06882385416666666
EXTRACT: note_on channel=4 note=64 velocity=92 time=0.0018601041666666664
EXTRACT: note_off channel=1 note=35 velocity=0 time=0.0018601041666666664
EXTRACT: note_on channel=4 note=59 velocity=80 time=0
EXTRACT: note_on channel=4 note=68 velocity=92 time=0.0037202083333333327
EXTRACT: note_on channel=1 note=32 velocity=100 time=0.0018601041666666664
EXTRACT: note_on channel=9 note=51 velocity=86 time=0
EXTRACT: note_on channel=9 note=40 velocity=107 time=0
EXTRACT: note_on channel=2 note=68 velocity=107 time=0.0037202083333333327
EXTRACT: note_off channel=9 note=40 velocity=0 time=0.0037202083333333327
EXTRACT: note_off channel=9 note=51 velocity=0 time=0
EXTRACT: note_on channel=4 note=44 velocity=60 time=0.014880833333333331
EXTRACT: note_off channel=4 note=47 velocity=0 time=0.05022281249999999
EXTRACT: note_off channel=4 note=68 velocity=0 time=0.059523333333333324
EXTRACT: note_off channel=4 note=64 velocity=0 time=0.022321249999999997
EXTRACT: note_off channel=4 note=59 velocity=0 time=0.0018601041666666664
EXTRACT: note_off channel=4 note=62 velocity=0 time=0.005580312499999999
EXTRACT: note_on channel=2 note=59 velocity=86 time=0.033481874999999994
EXTRACT: note_off channel=2 note=68 velocity=0 time=0.009300520833333333
EXTRACT: note_on channel=2 note=63 velocity=86 time=0
EXTRACT: note_on channel=2 note=69 velocity=86 time=0.0037202083333333327
EXTRACT: note_on channel=9 note=51 velocity=63 time=0
EXTRACT: note_on channel=2 note=71 velocity=86 time=0.005580312499999999
EXTRACT: note_off channel=9 note=51 velocity=0 time=0.0018601041666666664
EXTRACT: note_on channel=4 note=61 velocity=84 time=0.016740937499999997
EXTRACT: note_on channel=4 note=63 velocity=92 time=0.0037202083333333327
EXTRACT: note_on channel=4 note=66 velocity=84 time=0
EXTRACT: note_on channel=4 note=57 velocity=84 time=0.0037202083333333327
EXTRACT: note_off channel=4 note=44 velocity=0 time=0.06510364583333332
EXTRACT: note_off channel=1 note=32 velocity=0 time=0.03720208333333333
EXTRACT: note_on channel=1 note=35 velocity=105 time=0.014880833333333331
EXTRACT: note_on channel=4 note=47 velocity=88 time=0
EXTRACT: note_on channel=9 note=51 velocity=85 time=0
EXTRACT: note_on channel=9 note=35 velocity=108 time=0
EXTRACT: note_off channel=9 note=35 velocity=0 time=0.0074404166666666655
EXTRACT: note_off channel=9 note=51 velocity=0 time=0
EXTRACT: note_off channel=2 note=63 velocity=0 time=0.18973062499999996
EXTRACT: note_off channel=2 note=69 velocity=0 time=0.005580312499999999
EXTRACT: note_on channel=2 note=63 velocity=97 time=0
EXTRACT: note_off channel=2 note=71 velocity=0 time=0.0018601041666666664
EXTRACT: note_on channel=9 note=51 velocity=56 time=0.0037202083333333327
EXTRACT: note_on channel=2 note=69 velocity=96 time=0.0018601041666666664
EXTRACT: note_off channel=9 note=51 velocity=0 time=0.005580312499999999
EXTRACT: note_on channel=2 note=71 velocity=96 time=0.0018601041666666664
EXTRACT: note_off channel=4 note=47 velocity=0 time=0.10788604166666665
EXTRACT: note_off channel=2 note=69 velocity=0 time=0.009300520833333333
EXTRACT: note_off channel=1 note=35 velocity=0 time=0.016740937499999997
EXTRACT: note_on channel=2 note=69 velocity=94 time=0
EXTRACT: note_off channel=2 note=63 velocity=0 time=0.0037202083333333327
EXTRACT: note_on channel=1 note=39 velocity=101 time=0.0018601041666666664
EXTRACT: note_on channel=4 note=51 velocity=84 time=0
EXTRACT: note_on channel=9 note=40 velocity=107 time=0
EXTRACT: note_on channel=9 note=51 velocity=82 time=0
EXTRACT: note_off channel=2 note=59 velocity=0 time=0.005580312499999999
EXTRACT: note_on channel=2 note=63 velocity=89 time=0.0018601041666666664
EXTRACT: note_off channel=9 note=51 velocity=0 time=0
EXTRACT: note_off channel=9 note=40 velocity=0 time=0
EXTRACT: note_on channel=2 note=59 velocity=105 time=0.016740937499999997
EXTRACT: note_on channel=4 note=35 velocity=84 time=0.022321249999999997
EXTRACT: note_on channel=9 note=51 velocity=58 time=0.16182906249999998
EXTRACT: note_off channel=9 note=51 velocity=0 time=0.0074404166666666655
EXTRACT: note_off channel=2 note=63 velocity=0 time=0.0037202083333333327
EXTRACT: note_off channel=2 note=69 velocity=0 time=0.005580312499999999
EXTRACT: note_on channel=2 note=63 velocity=99 time=0
EXTRACT: note_on channel=2 note=69 velocity=93 time=0.014880833333333331
EXTRACT: note_off channel=2 note=71 velocity=0 time=0.0018601041666666664
EXTRACT: note_on channel=2 note=71 velocity=90 time=0.011160624999999999
EXTRACT: note_off channel=1 note=39 velocity=0 time=0.09858552083333331
EXTRACT: note_on channel=1 note=42 velocity=98 time=0.005580312499999999
EXTRACT: note_on channel=4 note=54 velocity=80 time=0
EXTRACT: note_on channel=9 note=35 velocity=107 time=0
EXTRACT: note_on channel=9 note=51 velocity=86 time=0
EXTRACT: note_off channel=4 note=66 velocity=0 time=0.0037202083333333327
EXTRACT: note_off channel=9 note=51 velocity=0 time=0.0037202083333333327
EXTRACT: note_off channel=9 note=35 velocity=0 time=0
EXTRACT: note_off channel=4 note=51 velocity=0 time=0.0018601041666666664
EXTRACT: note_off channel=4 note=35 velocity=0 time=0.06882385416666666
EXTRACT: note_off channel=4 note=61 velocity=0 time=0.009300520833333333
EXTRACT: note_off channel=4 note=63 velocity=0 time=0.0037202083333333327
EXTRACT: note_off channel=4 note=57 velocity=0 time=0.009300520833333333
EXTRACT: note_off channel=2 note=69 velocity=0 time=0.07812437499999998
EXTRACT: note_on channel=2 note=69 velocity=81 time=0.0074404166666666655
EXTRACT: note_off channel=2 note=63 velocity=0 time=0.005580312499999999
EXTRACT: note_off channel=2 note=59 velocity=0 time=0.0018601041666666664
EXTRACT: note_on channel=2 note=63 velocity=80 time=0.0037202083333333327
EXTRACT: note_on channel=2 note=59 velocity=82 time=0.0074404166666666655
EXTRACT: note_on channel=9 note=51 velocity=67 time=0.0037202083333333327
EXTRACT: note_off channel=9 note=51 velocity=0 time=0.0074404166666666655
EXTRACT: note_off channel=2 note=71 velocity=0 time=0.10974614583333332
EXTRACT: note_off channel=2 note=59 velocity=0 time=0.009300520833333333
EXTRACT: note_on channel=2 note=59 velocity=85 time=0.0074404166666666655
EXTRACT: note_off channel=2 note=63 velocity=0 time=0.0074404166666666655
EXTRACT: note_off channel=1 note=42 velocity=0 time=0.0018601041666666664
EXTRACT: note_off channel=2 note=69 velocity=0 time=0.0018601041666666664
EXTRACT: note_on channel=2 note=63 velocity=85 time=0.0018601041666666664
EXTRACT: note_on channel=1 note=44 velocity=98 time=0.0018601041666666664
EXTRACT: note_on channel=4 note=56 velocity=88 time=0
EXTRACT: note_on channel=9 note=51 velocity=86 time=0
EXTRACT: note_on channel=9 note=40 velocity=108 time=0
EXTRACT: note_off channel=9 note=40 velocity=0 time=0.0074404166666666655
EXTRACT: note_off channel=9 note=51 velocity=0 time=0
EXTRACT: note_on channel=2 note=69 velocity=85 time=0.0018601041666666664
EXTRACT: note_on channel=2 note=71 velocity=85 time=0.016740937499999997
EXTRACT: note_on channel=4 note=35 velocity=88 time=0.005580312499999999
EXTRACT: note_off channel=4 note=54 velocity=0 time=0.027901562499999994
EXTRACT: note_off channel=2 note=59 velocity=0 time=0.13020729166666664
EXTRACT: note_on channel=2 note=59 velocity=86 time=0.005580312499999999
EXTRACT: note_off channel=2 note=63 velocity=0 time=0.0037202083333333327
EXTRACT: note_off channel=2 note=69 velocity=0 time=0.0037202083333333327
EXTRACT: note_on channel=2 note=63 velocity=86 time=0.0018601041666666664
EXTRACT: note_off channel=2 note=71 velocity=0 time=0.0037202083333333327
EXTRACT: note_on channel=2 note=69 velocity=86 time=0
EXTRACT: note_on channel=9 note=51 velocity=61 time=0
EXTRACT: note_on channel=2 note=71 velocity=86 time=0.005580312499999999
EXTRACT: note_off channel=9 note=51 velocity=0 time=0.0018601041666666664
EXTRACT: note_on channel=4 note=67 velocity=84 time=0.024181354166666662
EXTRACT: note_on channel=4 note=55 velocity=92 time=0.0018601041666666664
EXTRACT: note_on channel=4 note=61 velocity=76 time=0
EXTRACT: note_on channel=4 note=59 velocity=88 time=0.0018601041666666664
EXTRACT: note_off channel=2 note=69 velocity=0 time=0.08742489583333332
EXTRACT: note_off channel=2 note=59 velocity=0 time=0.0037202083333333327
EXTRACT: note_off channel=2 note=71 velocity=0 time=0.005580312499999999
EXTRACT: note_on channel=2 note=69 velocity=86 time=0
EXTRACT: note_off channel=2 note=63 velocity=0 time=0.0074404166666666655
EXTRACT: note_on channel=2 note=67 velocity=86 time=0.0018601041666666664
EXTRACT: note_off channel=1 note=44 velocity=0 time=0.0018601041666666664
EXTRACT: note_on channel=1 note=33 velocity=103 time=0.005580312499999999
EXTRACT: note_on channel=4 note=45 velocity=92 time=0
EXTRACT: note_on channel=9 note=51 velocity=84 time=0
EXTRACT: note_on channel=9 note=35 velocity=107 time=0
EXTRACT: note_on channel=2 note=61 velocity=86 time=0.0018601041666666664
EXTRACT: note_on channel=2 note=57 velocity=86 time=0.005580312499999999
EXTRACT: note_off channel=9 note=35 velocity=0 time=0
EXTRACT: note_off channel=9 note=51 velocity=0 time=0
EXTRACT: note_off channel=4 note=56 velocity=0 time=0.02604145833333333
EXTRACT: note_off channel=4 note=35 velocity=0 time=0.018601041666666665
EXTRACT: note_off channel=2 note=61 velocity=0 time=0.14508812499999998
EXTRACT: note_on channel=2 note=61 velocity=97 time=0.005580312499999999
EXTRACT: note_off channel=2 note=67 velocity=0 time=0.0018601041666666664
EXTRACT: note_on channel=9 note=51 velocity=59 time=0.0037202083333333327
EXTRACT: note_on channel=2 note=67 velocity=96 time=0.0018601041666666664
EXTRACT: note_off channel=2 note=69 velocity=0 time=0.0018601041666666664
EXTRACT: note_off channel=9 note=51 velocity=0 time=0.0037202083333333327
EXTRACT: note_on channel=2 note=69 velocity=96 time=0.0018601041666666664
EXTRACT: note_on channel=4 note=49 velocity=72 time=0.05022281249999999
EXTRACT: note_off channel=2 note=67 velocity=0 time=0.06696374999999999
EXTRACT: note_off channel=1 note=33 velocity=0 time=0.016740937499999997
EXTRACT: note_on channel=2 note=67 velocity=94 time=0
EXTRACT: note_off channel=2 note=61 velocity=0 time=0.0037202083333333327
EXTRACT: note_on channel=4 note=33 velocity=100 time=0
EXTRACT: note_on channel=1 note=37 velocity=96 time=0.0018601041666666664
EXTRACT: note_on channel=9 note=40 velocity=108 time=0
EXTRACT: note_on channel=9 note=51 velocity=88 time=0
EXTRACT: note_on channel=2 note=61 velocity=89 time=0.0074404166666666655
EXTRACT: note_off channel=9 note=51 velocity=0 time=0
EXTRACT: note_off channel=9 note=40 velocity=0 time=0
EXTRACT: note_off channel=4 note=45 velocity=0 time=0.009300520833333333
EXTRACT: note_off channel=2 note=57 velocity=0 time=0.0018601041666666664
EXTRACT: note_on channel=2 note=57 velocity=105 time=0.005580312499999999
EXTRACT: note_on channel=9 note=51 velocity=58 time=0.18415031249999997
EXTRACT: note_off channel=9 note=51 velocity=0 time=0.0074404166666666655
EXTRACT: note_off channel=2 note=61 velocity=0 time=0.0037202083333333327
EXTRACT: note_on channel=2 note=61 velocity=99 time=0.005580312499999999
EXTRACT: note_off channel=2 note=67 velocity=0 time=0.009300520833333333
EXTRACT: note_on channel=2 note=67 velocity=93 time=0.005580312499999999
EXTRACT: note_off channel=2 note=69 velocity=0 time=0.0074404166666666655
EXTRACT: note_on channel=2 note=69 velocity=90 time=0.005580312499999999
EXTRACT: note_off channel=4 note=49 velocity=0 time=0.07254406249999999
EXTRACT: note_off channel=1 note=37 velocity=0 time=0.02604145833333333
EXTRACT: note_on channel=1 note=40 velocity=102 time=0.005580312499999999
EXTRACT: note_on channel=4 note=52 velocity=84 time=0
EXTRACT: note_on channel=9 note=51 velocity=87 time=0
EXTRACT: note_on channel=9 note=35 velocity=108 time=0
EXTRACT: note_off channel=9 note=35 velocity=0 time=0.0074404166666666655
EXTRACT: note_off channel=9 note=51 velocity=0 time=0
EXTRACT: note_off channel=4 note=55 velocity=0 time=0.03534197916666666
EXTRACT: note_off channel=4 note=61 velocity=0 time=0.0018601041666666664
EXTRACT: note_off channel=4 note=67 velocity=0 time=0.005580312499999999
EXTRACT: note_off channel=4 note=59 velocity=0 time=0.0018601041666666664
EXTRACT: note_off channel=2 note=67 velocity=0 time=0.1264870833333333
EXTRACT: note_on channel=2 note=67 velocity=81 time=0.0074404166666666655
EXTRACT: note_off channel=2 note=61 velocity=0 time=0.005580312499999999
EXTRACT: note_off channel=2 note=57 velocity=0 time=0.0018601041666666664
EXTRACT: note_on channel=2 note=61 velocity=80 time=0.0037202083333333327
EXTRACT: note_off channel=4 note=33 velocity=0 time=0.005580312499999999
EXTRACT: note_on channel=2 note=57 velocity=82 time=0.0018601041666666664
EXTRACT: note_on channel=9 note=51 velocity=57 time=0.0037202083333333327
EXTRACT: note_off channel=9 note=51 velocity=0 time=0.0074404166666666655
EXTRACT: note_off channel=2 note=57 velocity=0 time=0.11904666666666665
EXTRACT: note_on channel=2 note=57 velocity=85 time=0.0074404166666666655
EXTRACT: note_off channel=2 note=61 velocity=0 time=0.0074404166666666655
EXTRACT: note_off channel=1 note=40 velocity=0 time=0.0018601041666666664
EXTRACT: note_off channel=2 note=67 velocity=0 time=0.0018601041666666664
EXTRACT: note_on channel=2 note=61 velocity=85 time=0.0018601041666666664
EXTRACT: note_on channel=1 note=42 velocity=98 time=0.0018601041666666664
EXTRACT: note_on channel=4 note=54 velocity=96 time=0
EXTRACT: note_on channel=9 note=40 velocity=107 time=0
EXTRACT: note_on channel=9 note=51 velocity=86 time=0
EXTRACT: note_off channel=9 note=51 velocity=0 time=0.0074404166666666655
EXTRACT: note_off channel=9 note=40 velocity=0 time=0
EXTRACT: note_on channel=2 note=67 velocity=85 time=0.0018601041666666664
EXTRACT: note_off channel=2 note=69 velocity=0 time=0.0074404166666666655
EXTRACT: note_on channel=2 note=69 velocity=85 time=0.009300520833333333
EXTRACT: note_off channel=4 note=52 velocity=0 time=0.0074404166666666655
EXTRACT: note_on channel=4 note=33 velocity=92 time=0.009300520833333333
EXTRACT: note_off channel=2 note=57 velocity=0 time=0.14136791666666665
EXTRACT: note_off channel=2 note=61 velocity=0 time=0.005580312499999999
EXTRACT: note_on channel=2 note=57 velocity=86 time=0
EXTRACT: note_off channel=4 note=33 velocity=0 time=0.0037202083333333327
EXTRACT: note_on channel=2 note=61 velocity=86 time=0.0018601041666666664
EXTRACT: note_off channel=2 note=67 velocity=0 time=0.005580312499999999
EXTRACT: note_on channel=2 note=67 velocity=86 time=0.005580312499999999
EXTRACT: note_off channel=2 note=69 velocity=0 time=0.0018601041666666664
EXTRACT: note_on channel=9 note=51 velocity=63 time=0
EXTRACT: note_on channel=2 note=69 velocity=85 time=0.005580312499999999
EXTRACT: note_off channel=9 note=51 velocity=0 time=0.0018601041666666664
EXTRACT: note_on channel=4 note=68 velocity=88 time=0.02604145833333333
EXTRACT: note_on channel=4 note=59 velocity=76 time=0.0018601041666666664
EXTRACT: note_on channel=4 note=62 velocity=84 time=0.0018601041666666664
EXTRACT: note_on channel=4 note=64 velocity=60 time=0.0074404166666666655
EXTRACT: note_off channel=4 note=54 velocity=0 time=0.027901562499999994
EXTRACT: note_off channel=1 note=42 velocity=0 time=0.059523333333333324
EXTRACT: note_off channel=2 note=61 velocity=0 time=0.0037202083333333327
EXTRACT: note_off channel=2 note=57 velocity=0 time=0
EXTRACT: note_off channel=2 note=67 velocity=0 time=0.009300520833333333
EXTRACT: note_on channel=1 note=28 velocity=104 time=0.0037202083333333327
EXTRACT: note_on channel=2 note=52 velocity=94 time=0
EXTRACT: note_on channel=4 note=40 velocity=92 time=0
EXTRACT: note_on channel=9 note=51 velocity=85 time=0
EXTRACT: note_on channel=9 note=35 velocity=108 time=0
EXTRACT: note_off channel=2 note=69 velocity=0 time=0.0018601041666666664
EXTRACT: note_off channel=9 note=35 velocity=0 time=0.005580312499999999
EXTRACT: note_off channel=9 note=51 velocity=0 time=0
EXTRACT: note_on channel=2 note=56 velocity=92 time=0.005580312499999999
EXTRACT: note_on channel=2 note=64 velocity=77 time=0.009300520833333333
EXTRACT: note_on channel=2 note=68 velocity=76 time=0.011160624999999999
EXTRACT: note_on channel=9 note=51 velocity=64 time=0.17484979166666664
EXTRACT: note_off channel=9 note=51 velocity=0 time=0.0074404166666666655
EXTRACT: note_off channel=2 note=52 velocity=0 time=0.0018601041666666664
EXTRACT: note_on channel=2 note=52 velocity=85 time=0.009300520833333333
EXTRACT: note_off channel=4 note=40 velocity=0 time=0.04092229166666666
EXTRACT: note_off channel=1 note=28 velocity=0 time=0.08370468749999999
EXTRACT: note_on channel=1 note=32 velocity=99 time=0.005580312499999999
EXTRACT: note_off channel=2 note=52 velocity=0 time=0
EXTRACT: note_on channel=4 note=44 velocity=76 time=0
EXTRACT: note_on channel=9 note=40 velocity=107 time=0
EXTRACT: note_on channel=9 note=51 velocity=87 time=0
EXTRACT: note_off channel=9 note=51 velocity=0 time=0.0074404166666666655
EXTRACT: note_off channel=9 note=40 velocity=0 time=0
EXTRACT: note_off channel=2 note=56 velocity=0 time=0.0037202083333333327
EXTRACT: note_on channel=2 note=52 velocity=95 time=0.0018601041666666664
EXTRACT: note_off channel=2 note=64 velocity=0 time=0.009300520833333333
EXTRACT: note_on channel=2 note=57 velocity=100 time=0
EXTRACT: note_off channel=2 note=68 velocity=0 time=0.011160624999999999
EXTRACT: note_on channel=2 note=61 velocity=78 time=0
EXTRACT: note_on channel=2 note=69 velocity=83 time=0.011160624999999999
EXTRACT: note_on channel=9 note=51 velocity=59 time=0.16368916666666664
EXTRACT: note_off channel=2 note=57 velocity=0 time=0.0037202083333333327
EXTRACT: note_off channel=9 note=51 velocity=0 time=0.0037202083333333327
EXTRACT: note_on channel=2 note=57 velocity=85 time=0.0037202083333333327
EXTRACT: note_off channel=2 note=69 velocity=0 time=0.11904666666666665
EXTRACT: note_off channel=2 note=52 velocity=0 time=0.0018601041666666664
EXTRACT: note_off channel=1 note=32 velocity=0 time=0.011160624999999999
EXTRACT: note_off channel=2 note=57 velocity=0 time=0
EXTRACT: note_on channel=2 note=52 velocity=92 time=0
EXTRACT: note_on channel=1 note=35 velocity=99 time=0.005580312499999999
EXTRACT: note_on channel=4 note=47 velocity=92 time=0
EXTRACT: note_on channel=9 note=35 velocity=107 time=0
EXTRACT: note_on channel=9 note=51 velocity=87 time=0
EXTRACT: note_off channel=2 note=61 velocity=0 time=0.0037202083333333327
EXTRACT: note_on channel=2 note=56 velocity=98 time=0
EXTRACT: note_off channel=4 note=44 velocity=0 time=0.0037202083333333327
EXTRACT: note_off channel=9 note=51 velocity=0 time=0
EXTRACT: note_off channel=9 note=35 velocity=0 time=0
EXTRACT: note_on channel=2 note=64 velocity=79 time=0.005580312499999999
EXTRACT: note_on channel=2 note=68 velocity=86 time=0.009300520833333333
EXTRACT: note_off channel=4 note=59 velocity=0 time=0.05580312499999999
EXTRACT: note_off channel=4 note=68 velocity=0 time=0
EXTRACT: note_off channel=4 note=62 velocity=0 time=0.014880833333333331
EXTRACT: note_off channel=4 note=64 velocity=0 time=0.011160624999999999
EXTRACT: note_off channel=2 note=56 velocity=0 time=0.08370468749999999
EXTRACT: note_on channel=2 note=56 velocity=76 time=0.011160624999999999
EXTRACT: note_off channel=2 note=52 velocity=0 time=0.0074404166666666655
EXTRACT: note_on channel=9 note=51 velocity=58 time=0.0018601041666666664
EXTRACT: note_on channel=2 note=52 velocity=88 time=0.005580312499999999
EXTRACT: note_off channel=9 note=51 velocity=0 time=0.0018601041666666664
EXTRACT: note_off channel=1 note=35 velocity=0 time=0.13020729166666664
EXTRACT: note_off channel=2 note=52 velocity=0 time=0.0074404166666666655
EXTRACT: note_on channel=1 note=37 velocity=98 time=0.0037202083333333327
EXTRACT: note_on channel=4 note=49 velocity=92 time=0
EXTRACT: note_on channel=9 note=40 velocity=108 time=0
EXTRACT: note_on channel=9 note=51 velocity=85 time=0
EXTRACT: note_off channel=2 note=56 velocity=0 time=0.0074404166666666655
EXTRACT: note_off channel=9 note=51 velocity=0 time=0
EXTRACT: note_off channel=9 note=40 velocity=0 time=0
EXTRACT: note_on channel=2 note=52 velocity=95 time=0.0018601041666666664
EXTRACT: note_off channel=2 note=64 velocity=0 time=0.009300520833333333
EXTRACT: note_on channel=2 note=57 velocity=97 time=0
EXTRACT: note_off channel=2 note=68 velocity=0 time=0.011160624999999999
EXTRACT: note_on channel=2 note=61 velocity=86 time=0
EXTRACT: note_on channel=2 note=69 velocity=88 time=0.011160624999999999
EXTRACT: note_off channel=4 note=47 velocity=0 time=0.059523333333333324
EXTRACT: note_off channel=2 note=61 velocity=0 time=0.07998447916666665
EXTRACT: note_off channel=2 note=57 velocity=0 time=0.02046114583333333
EXTRACT: note_on channel=2 note=61 velocity=65 time=0.0018601041666666664
EXTRACT: note_on channel=9 note=51 velocity=62 time=0.005580312499999999
EXTRACT: note_on channel=2 note=57 velocity=78 time=0.0074404166666666655
EXTRACT: note_off channel=9 note=51 velocity=0 time=0
EXTRACT: note_off channel=2 note=52 velocity=0 time=0.0037202083333333327
EXTRACT: note_on channel=2 note=52 velocity=91 time=0.009300520833333333
EXTRACT: note_off channel=4 note=49 velocity=0 time=0.057663229166666656
EXTRACT: note_off channel=2 note=69 velocity=0 time=0.05208291666666666
EXTRACT: note_off channel=2 note=52 velocity=0 time=0.0037202083333333327
EXTRACT: note_off channel=1 note=37 velocity=0 time=0.009300520833333333
EXTRACT: note_off channel=2 note=57 velocity=0 time=0.0018601041666666664
EXTRACT: note_on channel=2 note=52 velocity=94 time=0.0018601041666666664
EXTRACT: note_on channel=1 note=40 velocity=102 time=0.0018601041666666664
EXTRACT: note_on channel=4 note=50 velocity=88 time=0
EXTRACT: note_on channel=9 note=35 velocity=107 time=0
EXTRACT: note_on channel=9 note=51 velocity=84 time=0
EXTRACT: note_off channel=2 note=61 velocity=0 time=0.0074404166666666655
EXTRACT: note_off channel=9 note=51 velocity=0 time=0
EXTRACT: note_off channel=9 note=35 velocity=0 time=0
EXTRACT: note_on channel=2 note=56 velocity=95 time=0.0018601041666666664
EXTRACT: note_on channel=2 note=64 velocity=80 time=0.0074404166666666655
EXTRACT: note_on channel=2 note=68 velocity=91 time=0.0074404166666666655
EXTRACT: note_off channel=2 note=64 velocity=0 time=0.17298968749999996
EXTRACT: note_on channel=2 note=64 velocity=80 time=0.011160624999999999
EXTRACT: note_on channel=9 note=51 velocity=59 time=0
EXTRACT: note_off channel=2 note=56 velocity=0 time=0.005580312499999999
EXTRACT: note_off channel=9 note=51 velocity=0 time=0.0018601041666666664
EXTRACT: note_on channel=2 note=56 velocity=71 time=0.0037202083333333327
EXTRACT: note_off channel=2 note=52 velocity=0 time=0.07812437499999998
EXTRACT: note_off channel=2 note=56 velocity=0 time=0.024181354166666662
EXTRACT: note_on channel=2 note=52 velocity=86 time=0
EXTRACT: note_off channel=2 note=64 velocity=0 time=0.009300520833333333
EXTRACT: note_on channel=2 note=56 velocity=101 time=0.0018601041666666664
EXTRACT: note_off channel=2 note=68 velocity=0 time=0.0074404166666666655
EXTRACT: note_on channel=2 note=64 velocity=85 time=0
EXTRACT: note_on channel=2 note=68 velocity=89 time=0.0074404166666666655
EXTRACT: note_off channel=1 note=40 velocity=0 time=0.0018601041666666664
EXTRACT: note_off channel=4 note=50 velocity=0 time=0.005580312499999999
EXTRACT: note_on channel=1 note=37 velocity=98 time=0.0018601041666666664
EXTRACT: note_on channel=4 note=49 velocity=96 time=0
EXTRACT: note_on channel=9 note=51 velocity=88 time=0
EXTRACT: note_on channel=9 note=40 velocity=108 time=0
EXTRACT: note_off channel=9 note=40 velocity=0 time=0.0074404166666666655
EXTRACT: note_off channel=9 note=51 velocity=0 time=0
EXTRACT: note_off channel=2 note=52 velocity=0 time=0.16740937499999997
EXTRACT: note_off channel=2 note=56 velocity=0 time=0.013020729166666665
EXTRACT: note_on channel=2 note=52 velocity=106 time=0
EXTRACT: note_off channel=2 note=64 velocity=0 time=0.009300520833333333
EXTRACT: note_on channel=2 note=56 velocity=94 time=0.0018601041666666664
EXTRACT: note_off channel=2 note=68 velocity=0 time=0.0074404166666666655
EXTRACT: note_on channel=2 note=64 velocity=82 time=0
EXTRACT: note_on channel=9 note=51 velocity=58 time=0.0018601041666666664
EXTRACT: note_on channel=2 note=68 velocity=89 time=0.0074404166666666655
EXTRACT: note_off channel=9 note=51 velocity=0 time=0
EXTRACT: note_off channel=1 note=37 velocity=0 time=0.13578760416666666
EXTRACT: note_on channel=1 note=35 velocity=97 time=0.005580312499999999
EXTRACT: note_on channel=9 note=35 velocity=108 time=0
EXTRACT: note_on channel=9 note=51 velocity=87 time=0
EXTRACT: note_off channel=9 note=51 velocity=0 time=0.0074404166666666655
EXTRACT: note_off channel=9 note=35 velocity=0 time=0
EXTRACT: note_off channel=4 note=49 velocity=0 time=0.009300520833333333
EXTRACT: note_off channel=2 note=68 velocity=0 time=0.1264870833333333
EXTRACT: note_off channel=2 note=64 velocity=0 time=0.018601041666666665
EXTRACT: note_on channel=2 note=63 velocity=97 time=0.0018601041666666664
EXTRACT: note_off channel=1 note=35 velocity=0 time=0.009300520833333333
EXTRACT: note_on channel=2 note=58 velocity=103 time=0
EXTRACT: note_off channel=2 note=56 velocity=0 time=0.0037202083333333327
EXTRACT: note_on channel=1 note=39 velocity=112 time=0.0018601041666666664
EXTRACT: note_on channel=2 note=55 velocity=100 time=0.0018601041666666664
EXTRACT: note_on channel=2 note=51 velocity=97 time=0.0074404166666666655
EXTRACT: note_off channel=2 note=52 velocity=0 time=0.0018601041666666664
EXTRACT: note_on channel=2 note=46 velocity=78 time=0.005580312499999999
EXTRACT: note_on channel=4 note=67 velocity=100 time=0.0018601041666666664
EXTRACT: note_on channel=4 note=63 velocity=112 time=0.005580312499999999
EXTRACT: note_on channel=4 note=58 velocity=104 time=0.0037202083333333327
EXTRACT: note_on channel=9 note=40 velocity=99 time=0.031621770833333326
EXTRACT: note_off channel=9 note=40 velocity=0 time=0.0074404166666666655
EXTRACT: note_on channel=9 note=40 velocity=102 time=0.11160624999999998
EXTRACT: note_on channel=9 note=51 velocity=51 time=0
EXTRACT: note_off channel=9 note=51 velocity=0 time=0.0074404166666666655
EXTRACT: note_off channel=9 note=40 velocity=0 time=0
EXTRACT: note_on channel=3 note=67 velocity=115 time=0.1990311458333333
EXTRACT: note_on channel=9 note=40 velocity=75 time=0.031621770833333326
EXTRACT: note_off channel=9 note=40 velocity=0 time=0.0074404166666666655
EXTRACT: note_off channel=4 note=58 velocity=0 time=0.044642499999999995
EXTRACT: note_off channel=4 note=67 velocity=0 time=0.02046114583333333
EXTRACT: note_off channel=4 note=63 velocity=0 time=0.018601041666666665
EXTRACT: note_off channel=2 note=46 velocity=0 time=0.0018601041666666664
EXTRACT: note_off channel=2 note=63 velocity=0 time=0.005580312499999999
EXTRACT: note_off channel=2 note=51 velocity=0 time=0.0018601041666666664
EXTRACT: note_on channel=2 note=47 velocity=78 time=0.0018601041666666664
EXTRACT: note_off channel=2 note=58 velocity=0 time=0.005580312499999999
EXTRACT: note_off channel=1 note=39 velocity=0 time=0.005580312499999999
EXTRACT: note_on channel=2 note=52 velocity=99 time=0
EXTRACT: note_off channel=2 note=55 velocity=0 time=0.0018601041666666664
EXTRACT: note_on channel=1 note=40 velocity=112 time=0.0037202083333333327
EXTRACT: note_on channel=9 note=40 velocity=105 time=0
EXTRACT: note_on channel=9 note=42 velocity=53 time=0
EXTRACT: note_on channel=2 note=56 velocity=99 time=0.0037202083333333327
EXTRACT: note_off channel=9 note=42 velocity=0 time=0.0037202083333333327
EXTRACT: note_off channel=9 note=40 velocity=0 time=0
EXTRACT: note_on channel=2 note=59 velocity=99 time=0.0018601041666666664
EXTRACT: note_on channel=4 note=64 velocity=88 time=0.0037202083333333327
EXTRACT: note_on channel=4 note=68 velocity=92 time=0.0018601041666666664
EXTRACT: note_on channel=2 note=64 velocity=99 time=0.0018601041666666664
EXTRACT: note_on channel=4 note=59 velocity=100 time=0.0018601041666666664
EXTRACT: note_off channel=3 note=67 velocity=0 time=0.1264870833333333
EXTRACT: note_on channel=3 note=67 velocity=113 time=0.07068395833333332
EXTRACT: note_off channel=3 note=67 velocity=0 time=0.10602593749999999
EXTRACT: note_on channel=9 note=42 velocity=44 time=0.03534197916666666
EXTRACT: note_off channel=9 note=42 velocity=0 time=0.0074404166666666655
EXTRACT: note_on channel=3 note=67 velocity=112 time=0.009300520833333333
EXTRACT: note_off channel=3 note=67 velocity=0 time=0.15066843749999997
EXTRACT: note_on channel=3 note=67 velocity=112 time=0.057663229166666656
EXTRACT: note_off channel=3 note=67 velocity=0 time=0.10044562499999998
EXTRACT: note_on channel=9 note=42 velocity=52 time=0.031621770833333326
EXTRACT: note_off channel=9 note=42 velocity=0 time=0.0074404166666666655
EXTRACT: note_on channel=3 note=67 velocity=113 time=0.005580312499999999
EXTRACT: note_off channel=3 note=67 velocity=0 time=0.12276687499999998
EXTRACT: note_on channel=3 note=67 velocity=111 time=0.057663229166666656
EXTRACT: note_on channel=9 note=40 velocity=105 time=0.014880833333333331
EXTRACT: note_off channel=9 note=40 velocity=0 time=0.0074404166666666655
EXTRACT: note_on channel=9 note=40 velocity=69 time=0.10788604166666665
EXTRACT: note_off channel=3 note=67 velocity=0 time=0.005580312499999999
EXTRACT: note_off channel=9 note=40 velocity=0 time=0.0018601041666666664
EXTRACT: note_on channel=3 note=64 velocity=114 time=0.0037202083333333327
EXTRACT: note_on channel=9 note=42 velocity=51 time=0.022321249999999997
EXTRACT: note_off channel=9 note=42 velocity=0 time=0.0074404166666666655
EXTRACT: note_off channel=3 note=64 velocity=0 time=0.18415031249999997
EXTRACT: note_on channel=3 note=62 velocity=107 time=0.005580312499999999
EXTRACT: note_on channel=9 note=40 velocity=43 time=0.04092229166666666
EXTRACT: note_off channel=9 note=40 velocity=0 time=0.0074404166666666655
EXTRACT: note_off channel=3 note=62 velocity=0 time=0.024181354166666662
EXTRACT: note_on channel=3 note=64 velocity=115 time=0.06882385416666666
EXTRACT: note_on channel=9 note=42 velocity=53 time=0.018601041666666665
EXTRACT: note_on channel=9 note=40 velocity=105 time=0
EXTRACT: note_off channel=9 note=40 velocity=0 time=0.0074404166666666655
EXTRACT: note_off channel=9 note=42 velocity=0 time=0
EXTRACT: note_off channel=3 note=64 velocity=0 time=0.23623322916666664
EXTRACT: note_on channel=3 note=64 velocity=113 time=0.08184458333333332
EXTRACT: note_on channel=9 note=42 velocity=44 time=0.031621770833333326
EXTRACT: note_off channel=9 note=42 velocity=0 time=0.0074404166666666655
EXTRACT: note_off channel=3 note=64 velocity=0 time=0.1283471875
EXTRACT: note_on channel=3 note=67 velocity=116 time=0.06324354166666665
EXTRACT: note_on channel=9 note=42 velocity=52 time=0.15810885416666665
EXTRACT: note_off channel=9 note=42 velocity=0 time=0.0074404166666666655
EXTRACT: note_off channel=4 note=68 velocity=0 time=0.0037202083333333327
EXTRACT: note_off channel=4 note=59 velocity=0 time=0.011160624999999999
EXTRACT: note_off channel=4 note=64 velocity=0 time=0.04092229166666666
EXTRACT: note_off channel=1 note=40 velocity=0 time=0.02046114583333333
EXTRACT: note_off channel=2 note=47 velocity=0 time=0.033481874999999994
EXTRACT: note_off channel=2 note=52 velocity=0 time=0.011160624999999999
EXTRACT: note_off channel=3 note=67 velocity=0 time=0.0018601041666666664
EXTRACT: note_off channel=2 note=56 velocity=0 time=0.0074404166666666655
EXTRACT: note_off channel=2 note=59 velocity=0 time=0.005580312499999999
EXTRACT: note_off channel=2 note=64 velocity=0 time=0.0074404166666666655
EXTRACT: note_on channel=2 note=63 velocity=97 time=0.013020729166666665
EXTRACT: note_on channel=2 note=58 velocity=103 time=0.009300520833333333
EXTRACT: note_on channel=1 note=39 velocity=112 time=0.005580312499999999
EXTRACT: note_on channel=2 note=55 velocity=100 time=0.0018601041666666664
EXTRACT: note_on channel=2 note=51 velocity=97 time=0.0074404166666666655
EXTRACT: note_on channel=2 note=46 velocity=78 time=0.0074404166666666655
EXTRACT: note_on channel=4 note=58 velocity=100 time=0.0018601041666666664
EXTRACT: note_on channel=4 note=63 velocity=108 time=0.0018601041666666664
EXTRACT: note_on channel=4 note=67 velocity=96 time=0.0018601041666666664
EXTRACT: note_on channel=9 note=40 velocity=105 time=0.0074404166666666655
EXTRACT: note_off channel=9 note=40 velocity=0 time=0.0074404166666666655
EXTRACT: note_on channel=9 note=40 velocity=69 time=0.10788604166666665
EXTRACT: note_off channel=9 note=40 velocity=0 time=0.0074404166666666655
EXTRACT: note_on channel=9 note=42 velocity=51 time=0.02604145833333333
EXTRACT: note_off channel=9 note=42 velocity=0 time=0.0074404166666666655
EXTRACT: note_on channel=9 note=40 velocity=43 time=0.23065291666666662
EXTRACT: note_off channel=9 note=40 velocity=0 time=0.0074404166666666655
EXTRACT: note_off channel=4 note=58 velocity=0 time=0.029761666666666662
EXTRACT: note_off channel=4 note=67 velocity=0 time=0.014880833333333331
EXTRACT: note_off channel=4 note=63 velocity=0 time=0.027901562499999994
EXTRACT: note_off channel=2 note=46 velocity=0 time=0.013020729166666665
EXTRACT: note_off channel=2 note=63 velocity=0 time=0.005580312499999999
EXTRACT: note_off channel=2 note=51 velocity=0 time=0.0018601041666666664
EXTRACT: note_on channel=2 note=47 velocity=78 time=0.0018601041666666664
EXTRACT: note_on channel=3 note=67 velocity=111 time=0.0037202083333333327
EXTRACT: note_off channel=2 note=58 velocity=0 time=0.0018601041666666664
EXTRACT: note_off channel=1 note=39 velocity=0 time=0.005580312499999999
EXTRACT: note_on channel=2 note=52 velocity=99 time=0
EXTRACT: note_off channel=2 note=55 velocity=0 time=0.0018601041666666664
EXTRACT: note_on channel=1 note=40 velocity=112 time=0.0037202083333333327
EXTRACT: note_on channel=9 note=40 velocity=105 time=0
EXTRACT: note_on channel=9 note=42 velocity=53 time=0
EXTRACT: note_on channel=2 note=56 velocity=99 time=0.0037202083333333327
EXTRACT: note_off channel=9 note=42 velocity=0 time=0.0037202083333333327
EXTRACT: note_off channel=9 note=40 velocity=0 time=0
EXTRACT: note_on channel=2 note=59 velocity=99 time=0.0018601041666666664
EXTRACT: note_on channel=4 note=68 velocity=104 time=0.0037202083333333327
EXTRACT: note_on channel=4 note=64 velocity=92 time=0.0018601041666666664
EXTRACT: note_on channel=2 note=64 velocity=99 time=0.0018601041666666664
EXTRACT: note_on channel=4 note=59 velocity=92 time=0
EXTRACT: note_off channel=3 note=67 velocity=0 time=0.10230572916666665
EXTRACT: note_on channel=3 note=67 velocity=112 time=0.09300520833333333
EXTRACT: note_off channel=3 note=67 velocity=0 time=0.08370468749999999
EXTRACT: note_on channel=9 note=42 velocity=44 time=0.06138343749999999
EXTRACT: note_on channel=3 note=67 velocity=111 time=0.0037202083333333327
EXTRACT: note_off channel=9 note=42 velocity=0 time=0.0037202083333333327
EXTRACT: note_off channel=3 note=67 velocity=0 time=0.10044562499999998
EXTRACT: note_on channel=3 note=67 velocity=113 time=0.09300520833333333
EXTRACT: note_off channel=3 note=67 velocity=0 time=0.07998447916666665
EXTRACT: note_on channel=3 note=67 velocity=113 time=0.06696374999999999
EXTRACT: note_on channel=9 note=42 velocity=52 time=0.009300520833333333
EXTRACT: note_off channel=9 note=42 velocity=0 time=0.0074404166666666655
EXTRACT: note_off channel=3 note=67 velocity=0 time=0.09114510416666666
EXTRACT: note_on channel=3 note=67 velocity=113 time=0.08742489583333332
EXTRACT: note_on channel=9 note=40 velocity=105 time=0.022321249999999997
EXTRACT: note_off channel=9 note=40 velocity=0 time=0.0074404166666666655
EXTRACT: note_off channel=3 note=67 velocity=0 time=0.08928499999999999
EXTRACT: note_on channel=9 note=40 velocity=69 time=0.018601041666666665
EXTRACT: note_off channel=9 note=40 velocity=0 time=0.0074404166666666655
EXTRACT: note_on channel=3 note=64 velocity=112 time=0.013020729166666665
EXTRACT: note_on channel=9 note=42 velocity=51 time=0.013020729166666665
EXTRACT: note_off channel=9 note=42 velocity=0 time=0.0074404166666666655
EXTRACT: note_off channel=3 note=64 velocity=0 time=0.19159072916666664
EXTRACT: note_on channel=3 note=62 velocity=108 time=0.029761666666666662
EXTRACT: note_on channel=9 note=40 velocity=43 time=0.009300520833333333
EXTRACT: note_off channel=9 note=40 velocity=0 time=0.0074404166666666655
EXTRACT: note_off channel=3 note=62 velocity=0 time=0.06138343749999999
EXTRACT: note_on channel=3 note=64 velocity=114 time=0.048362708333333324
EXTRACT: note_on channel=9 note=40 velocity=105 time=0.0018601041666666664
EXTRACT: note_on channel=9 note=42 velocity=53 time=0
EXTRACT: note_off channel=9 note=42 velocity=0 time=0.0074404166666666655
EXTRACT: note_off channel=9 note=40 velocity=0 time=0
EXTRACT: note_off channel=3 note=64 velocity=0 time=0.25111406249999996
EXTRACT: note_on channel=3 note=64 velocity=113 time=0.09300520833333333
EXTRACT: note_on channel=9 note=42 velocity=44 time=0.005580312499999999
EXTRACT: note_off channel=9 note=42 velocity=0 time=0.0074404166666666655
EXTRACT: note_off channel=3 note=64 velocity=0 time=0.26227468749999994
EXTRACT: note_on channel=3 note=59 velocity=109 time=0.05580312499999999
EXTRACT: note_off channel=4 note=59 velocity=0 time=0.014880833333333331
EXTRACT: note_off channel=4 note=68 velocity=0 time=0.0018601041666666664
EXTRACT: note_on channel=9 note=42 velocity=52 time=0.014880833333333331
EXTRACT: note_off channel=9 note=42 velocity=0 time=0.0074404166666666655
EXTRACT: note_off channel=4 note=64 velocity=0 time=0.06882385416666666
EXTRACT: note_off channel=1 note=40 velocity=0 time=0.0074404166666666655
EXTRACT: note_off channel=2 note=47 velocity=0 time=0.033481874999999994
EXTRACT: note_off channel=2 note=52 velocity=0 time=0.011160624999999999
EXTRACT: note_off channel=2 note=56 velocity=0 time=0.009300520833333333
EXTRACT: note_off channel=2 note=59 velocity=0 time=0.005580312499999999
EXTRACT: note_off channel=2 note=64 velocity=0 time=0.0074404166666666655
EXTRACT: note_on channel=2 note=63 velocity=97 time=0.013020729166666665
EXTRACT: note_on channel=2 note=58 velocity=103 time=0.009300520833333333
EXTRACT: note_on channel=1 note=39 velocity=112 time=0.005580312499999999
EXTRACT: note_on channel=2 note=55 velocity=100 time=0.0018601041666666664
EXTRACT: note_on channel=2 note=51 velocity=97 time=0.0074404166666666655
EXTRACT: note_on channel=2 note=46 velocity=78 time=0.0074404166666666655
EXTRACT: note_on channel=9 note=40 velocity=105 time=0.013020729166666665
EXTRACT: note_on channel=4 note=63 velocity=108 time=0.005580312499999999
EXTRACT: note_on channel=4 note=67 velocity=92 time=0.0018601041666666664
EXTRACT: note_off channel=9 note=40 velocity=0 time=0
EXTRACT: note_on channel=4 note=58 velocity=96 time=0.0037202083333333327
EXTRACT: note_off channel=3 note=59 velocity=0 time=0.07626427083333333
EXTRACT: note_on channel=9 note=40 velocity=69 time=0.027901562499999994
EXTRACT: note_off channel=9 note=40 velocity=0 time=0.0074404166666666655
EXTRACT: note_on channel=9 note=42 velocity=51 time=0.02604145833333333
EXTRACT: note_off channel=9 note=42 velocity=0 time=0.0074404166666666655
EXTRACT: note_on channel=9 note=40 velocity=43 time=0.23065291666666662
EXTRACT: note_off channel=9 note=40 velocity=0 time=0.0074404166666666655
EXTRACT: note_off channel=4 note=58 velocity=0 time=0.009300520833333333
EXTRACT: note_off channel=4 note=67 velocity=0 time=0.014880833333333331
EXTRACT: note_off channel=4 note=63 velocity=0 time=0.018601041666666665
EXTRACT: note_off channel=2 note=46 velocity=0 time=0.04278239583333333
EXTRACT: note_off channel=2 note=63 velocity=0 time=0.005580312499999999
EXTRACT: note_off channel=2 note=51 velocity=0 time=0.0018601041666666664
EXTRACT: note_on channel=2 note=47 velocity=78 time=0.0018601041666666664
EXTRACT: note_on channel=3 note=67 velocity=111 time=0.0037202083333333327
EXTRACT: note_off channel=2 note=58 velocity=0 time=0.0018601041666666664
EXTRACT: note_off channel=1 note=39 velocity=0 time=0.005580312499999999
EXTRACT: note_on channel=2 note=52 velocity=99 time=0
EXTRACT: note_off channel=2 note=55 velocity=0 time=0.0018601041666666664
EXTRACT: note_on channel=4 note=64 velocity=88 time=0
EXTRACT: note_on channel=4 note=68 velocity=96 time=0.0018601041666666664
EXTRACT: note_on channel=4 note=59 velocity=92 time=0
EXTRACT: note_on channel=1 note=40 velocity=112 time=0.0018601041666666664
EXTRACT: note_on channel=9 note=42 velocity=53 time=0
EXTRACT: note_on channel=9 note=40 velocity=105 time=0
EXTRACT: note_on channel=2 note=56 velocity=99 time=0.0037202083333333327
EXTRACT: note_off channel=9 note=40 velocity=0 time=0.0037202083333333327
EXTRACT: note_off channel=9 note=42 velocity=0 time=0
EXTRACT: note_on channel=2 note=59 velocity=99 time=0.0018601041666666664
EXTRACT: note_on channel=2 note=64 velocity=99 time=0.0074404166666666655
EXTRACT: note_off channel=3 note=67 velocity=0 time=0.10230572916666665
EXTRACT: note_on channel=3 note=67 velocity=112 time=0.09300520833333333
EXTRACT: note_off channel=3 note=67 velocity=0 time=0.08370468749999999
EXTRACT: note_on channel=9 note=42 velocity=44 time=0.06138343749999999
EXTRACT: note_on channel=3 note=67 velocity=111 time=0.0037202083333333327
EXTRACT: note_off channel=9 note=42 velocity=0 time=0.0037202083333333327
EXTRACT: note_off channel=3 note=67 velocity=0 time=0.10044562499999998
EXTRACT: note_on channel=3 note=67 velocity=113 time=0.09300520833333333
EXTRACT: note_off channel=3 note=67 velocity=0 time=0.07998447916666665
EXTRACT: note_on channel=3 note=67 velocity=113 time=0.06696374999999999
EXTRACT: note_on channel=9 note=42 velocity=52 time=0.009300520833333333
EXTRACT: note_off channel=9 note=42 velocity=0 time=0.0074404166666666655
EXTRACT: note_off channel=3 note=67 velocity=0 time=0.09114510416666666
EXTRACT: note_on channel=3 note=67 velocity=113 time=0.08742489583333332
EXTRACT: note_on channel=9 note=40 velocity=105 time=0.022321249999999997
EXTRACT: note_off channel=9 note=40 velocity=0 time=0.0074404166666666655
EXTRACT: note_off channel=3 note=67 velocity=0 time=0.08928499999999999
EXTRACT: note_on channel=9 note=40 velocity=69 time=0.018601041666666665
EXTRACT: note_off channel=9 note=40 velocity=0 time=0.0074404166666666655
EXTRACT: note_on channel=3 note=64 velocity=112 time=0.013020729166666665
EXTRACT: note_on channel=9 note=42 velocity=51 time=0.013020729166666665
EXTRACT: note_off channel=9 note=42 velocity=0 time=0.0074404166666666655
EXTRACT: note_off channel=3 note=64 velocity=0 time=0.19159072916666664
EXTRACT: note_on channel=3 note=62 velocity=108 time=0.029761666666666662
EXTRACT: note_on channel=9 note=40 velocity=43 time=0.009300520833333333
EXTRACT: note_off channel=9 note=40 velocity=0 time=0.0074404166666666655
EXTRACT: note_off channel=3 note=62 velocity=0 time=0.06138343749999999
EXTRACT: note_on channel=3 note=64 velocity=114 time=0.048362708333333324
EXTRACT: note_on channel=9 note=40 velocity=105 time=0.0018601041666666664
EXTRACT: note_on channel=9 note=42 velocity=53 time=0
EXTRACT: note_off channel=9 note=42 velocity=0 time=0.0074404166666666655
EXTRACT: note_off channel=9 note=40 velocity=0 time=0
EXTRACT: note_off channel=3 note=64 velocity=0 time=0.25111406249999996
EXTRACT: note_on channel=3 note=64 velocity=113 time=0.09300520833333333
EXTRACT: note_on channel=9 note=42 velocity=44 time=0.005580312499999999
EXTRACT: note_off channel=9 note=42 velocity=0 time=0.0074404166666666655
EXTRACT: note_off channel=3 note=64 velocity=0 time=0.26227468749999994
EXTRACT: note_on channel=3 note=67 velocity=109 time=0.05580312499999999
EXTRACT: note_off channel=4 note=59 velocity=0 time=0.024181354166666662
EXTRACT: note_on channel=9 note=42 velocity=52 time=0.0074404166666666655
EXTRACT: note_off channel=4 note=68 velocity=0 time=0.0018601041666666664
EXTRACT: note_off channel=9 note=42 velocity=0 time=0.005580312499999999
EXTRACT: note_off channel=4 note=64 velocity=0 time=0.057663229166666656
EXTRACT: note_off channel=1 note=40 velocity=0 time=0.018601041666666665
EXTRACT: note_off channel=2 note=47 velocity=0 time=0.033481874999999994
EXTRACT: note_off channel=2 note=52 velocity=0 time=0.011160624999999999
EXTRACT: note_off channel=2 note=56 velocity=0 time=0.009300520833333333
EXTRACT: note_off channel=2 note=59 velocity=0 time=0.005580312499999999
EXTRACT: note_off channel=2 note=64 velocity=0 time=0.0074404166666666655
EXTRACT: note_on channel=2 note=63 velocity=97 time=0.013020729166666665
EXTRACT: note_on channel=4 note=58 velocity=100 time=0
EXTRACT: note_on channel=4 note=67 velocity=100 time=0
EXTRACT: note_on channel=4 note=63 velocity=112 time=0.0018601041666666664
EXTRACT: note_on channel=2 note=58 velocity=103 time=0.0074404166666666655
EXTRACT: note_on channel=1 note=39 velocity=112 time=0.005580312499999999
EXTRACT: note_on channel=2 note=55 velocity=100 time=0.0018601041666666664
EXTRACT: note_on channel=2 note=51 velocity=97 time=0.0074404166666666655
EXTRACT: note_on channel=2 note=46 velocity=78 time=0.0074404166666666655
EXTRACT: note_on channel=9 note=40 velocity=105 time=0.013020729166666665
EXTRACT: note_off channel=9 note=40 velocity=0 time=0.0074404166666666655
EXTRACT: note_off channel=3 note=67 velocity=0 time=0.07998447916666665
EXTRACT: note_on channel=9 note=40 velocity=69 time=0.027901562499999994
EXTRACT: note_off channel=9 note=40 velocity=0 time=0.0074404166666666655
EXTRACT: note_on channel=9 note=42 velocity=51 time=0.02604145833333333
EXTRACT: note_off channel=9 note=42 velocity=0 time=0.0074404166666666655
EXTRACT: note_off channel=4 note=58 velocity=0 time=0.22507260416666663
EXTRACT: note_on channel=9 note=40 velocity=43 time=0.005580312499999999
EXTRACT: note_off channel=9 note=40 velocity=0 time=0.0074404166666666655
EXTRACT: note_off channel=4 note=67 velocity=0 time=0.011160624999999999
EXTRACT: note_off channel=4 note=63 velocity=0 time=0.0074404166666666655
EXTRACT: note_off channel=2 note=46 velocity=0 time=0.06696374999999999
EXTRACT: note_off channel=2 note=63 velocity=0 time=0.005580312499999999
EXTRACT: note_off channel=2 note=51 velocity=0 time=0.0018601041666666664
EXTRACT: note_on channel=4 note=68 velocity=108 time=0
EXTRACT: note_on channel=2 note=47 velocity=78 time=0.0018601041666666664
EXTRACT: note_on channel=4 note=59 velocity=100 time=0
EXTRACT: note_on channel=4 note=64 velocity=96 time=0.0018601041666666664
EXTRACT: note_on channel=3 note=67 velocity=111 time=0.0018601041666666664
EXTRACT: note_off channel=2 note=58 velocity=0 time=0.0018601041666666664
EXTRACT: note_off channel=1 note=39 velocity=0 time=0.005580312499999999
EXTRACT: note_on channel=2 note=52 velocity=99 time=0
EXTRACT: note_off channel=3 note=67 velocity=0 time=0
EXTRACT: note_off channel=2 note=55 velocity=0 time=0.0018601041666666664
EXTRACT: note_on channel=1 note=40 velocity=112 time=0.0037202083333333327
EXTRACT: note_on channel=3 note=67 velocity=111 time=0
EXTRACT: note_on channel=9 note=40 velocity=105 time=0
EXTRACT: note_on channel=9 note=42 velocity=53 time=0
EXTRACT: note_on channel=9 note=35 velocity=108 time=0
EXTRACT: note_on channel=2 note=56 velocity=99 time=0.0037202083333333327
EXTRACT: note_off channel=9 note=35 velocity=0 time=0.0037202083333333327
EXTRACT: note_off channel=9 note=42 velocity=0 time=0
EXTRACT: note_off channel=9 note=40 velocity=0 time=0
EXTRACT: note_on channel=2 note=59 velocity=99 time=0.0018601041666666664
EXTRACT: note_on channel=2 note=64 velocity=99 time=0.0074404166666666655
EXTRACT: note_off channel=3 note=67 velocity=0 time=0.1934508333333333
EXTRACT: note_on channel=3 note=67 velocity=112 time=0.013020729166666665
EXTRACT: note_off channel=4 note=64 velocity=0 time=0.018601041666666665
EXTRACT: note_off channel=4 note=68 velocity=0 time=0.0018601041666666664
EXTRACT: note_off channel=4 note=59 velocity=0 time=0.0018601041666666664
EXTRACT: note_off channel=1 note=40 velocity=0 time=0.016740937499999997
EXTRACT: note_off channel=2 note=47 velocity=0 time=0.033481874999999994
EXTRACT: note_off channel=2 note=52 velocity=0 time=0.011160624999999999
EXTRACT: note_off channel=3 note=67 velocity=0 time=0
EXTRACT: note_off channel=2 note=56 velocity=0 time=0.009300520833333333
EXTRACT: note_off channel=2 note=59 velocity=0 time=0.005580312499999999
EXTRACT: note_off channel=2 note=64 velocity=0 time=0.0074404166666666655
EXTRACT: note_on channel=9 note=42 velocity=44 time=0.027901562499999994
EXTRACT: note_on channel=3 note=67 velocity=111 time=0.0037202083333333327
EXTRACT: note_off channel=9 note=42 velocity=0 time=0.0037202083333333327
EXTRACT: note_off channel=3 note=67 velocity=0 time=0.1767098958333333
EXTRACT: note_on channel=3 note=67 velocity=113 time=0.044642499999999995
EXTRACT: note_off channel=3 note=67 velocity=0 time=0.07998447916666665
EXTRACT: note_on channel=3 note=67 velocity=113 time=0.03906218749999999
EXTRACT: note_on channel=9 note=42 velocity=52 time=0.009300520833333333
EXTRACT: note_off channel=9 note=42 velocity=0 time=0.0074404166666666655
EXTRACT: note_off channel=3 note=67 velocity=0 time=0.2213523958333333
EXTRACT: note_on channel=3 note=67 velocity=112 time=0.009300520833333333
EXTRACT: note_off channel=3 note=67 velocity=0 time=0.10230572916666665
EXTRACT: note_on channel=3 note=67 velocity=112 time=0.016740937499999997
EXTRACT: note_on channel=9 note=42 velocity=51 time=0
EXTRACT: note_off channel=9 note=42 velocity=0 time=0.0074404166666666655
EXTRACT: note_off channel=3 note=67 velocity=0 time=0.2046114583333333
EXTRACT: note_on channel=3 note=67 velocity=108 time=0.016740937499999997
EXTRACT: note_off channel=3 note=67 velocity=0 time=0.10788604166666665
EXTRACT: note_on channel=3 note=67 velocity=114 time=0.018601041666666665
EXTRACT: note_on channel=9 note=42 velocity=53 time=0.0018601041666666664
EXTRACT: note_off channel=9 note=42 velocity=0 time=0.0074404166666666655
EXTRACT: note_off channel=3 note=67 velocity=0 time=0.33109854166666663
EXTRACT: note_on channel=3 note=67 velocity=113 time=0.013020729166666665
EXTRACT: note_on channel=1 note=28 velocity=108 time=0.005580312499999999
EXTRACT: note_on channel=9 note=42 velocity=44 time=0
EXTRACT: note_off channel=9 note=42 velocity=0 time=0.0074404166666666655
EXTRACT: note_off channel=3 note=67 velocity=0 time=0.32737833333333327
EXTRACT: note_on channel=3 note=67 velocity=111 time=0.013020729166666665
EXTRACT: note_off channel=1 note=28 velocity=0 time=0.0037202083333333327
EXTRACT: note_on channel=1 note=30 velocity=103 time=0.005580312499999999
EXTRACT: note_on channel=9 note=42 velocity=52 time=0
EXTRACT: note_off channel=9 note=42 velocity=0 time=0.0074404166666666655
EXTRACT: note_off channel=3 note=67 velocity=0 time=0.15810885416666665
EXTRACT: note_on channel=3 note=67 velocity=107 time=0.016740937499999997
EXTRACT: note_on channel=9 note=40 velocity=92 time=0.08556479166666665
EXTRACT: note_off channel=9 note=40 velocity=0 time=0.0074404166666666655
EXTRACT: note_off channel=3 note=67 velocity=0 time=0.04650260416666666
EXTRACT: note_off channel=1 note=30 velocity=0 time=0.005580312499999999
EXTRACT: note_on channel=3 note=67 velocity=113 time=0.011160624999999999
EXTRACT: note_on channel=4 note=88 velocity=66 time=0.005580312499999999
EXTRACT: note_on channel=4 note=95 velocity=62 time=0.011160624999999999
EXTRACT: note_on channel=4 note=100 velocity=70 time=0
EXTRACT: note_on channel=1 note=32 velocity=106 time=0.0018601041666666664
EXTRACT: note_on channel=9 note=40 velocity=101 time=0
EXTRACT: note_on channel=9 note=42 velocity=51 time=0
EXTRACT: note_off channel=9 note=42 velocity=0 time=0.0074404166666666655
EXTRACT: note_off channel=9 note=40 velocity=0 time=0
EXTRACT: note_off channel=4 note=88 velocity=0 time=0.07998447916666665
EXTRACT: note_off channel=4 note=100 velocity=0 time=0.0074404166666666655
EXTRACT: note_off channel=4 note=95 velocity=0 time=0.0074404166666666655
EXTRACT: note_on channel=4 note=88 velocity=70 time=0.1264870833333333
EXTRACT: note_on channel=4 note=95 velocity=64 time=0
EXTRACT: note_on channel=4 note=100 velocity=74 time=0.0037202083333333327
EXTRACT: note_off channel=4 note=88 velocity=0 time=0.05022281249999999
EXTRACT: note_off channel=4 note=95 velocity=0 time=0.011160624999999999
EXTRACT: note_off channel=4 note=100 velocity=0 time=0.0018601041666666664
EXTRACT: note_off channel=3 note=67 velocity=0 time=0.031621770833333326
EXTRACT: note_on channel=3 note=64 velocity=111 time=0.018601041666666665
EXTRACT: note_off channel=1 note=32 velocity=0 time=0.005580312499999999
EXTRACT: note_on channel=1 note=33 velocity=103 time=0.005580312499999999
EXTRACT: note_on channel=2 note=45 velocity=93 time=0
EXTRACT: note_on channel=9 note=35 velocity=107 time=0
EXTRACT: note_off channel=9 note=35 velocity=0 time=0.0074404166666666655
EXTRACT: note_on channel=4 note=88 velocity=74 time=0.013020729166666665
EXTRACT: note_on channel=4 note=95 velocity=74 time=0.0018601041666666664
EXTRACT: note_on channel=4 note=100 velocity=78 time=0
EXTRACT: note_off channel=4 note=88 velocity=0 time=0.08928499999999999
EXTRACT: note_off channel=4 note=100 velocity=0 time=0.018601041666666665
EXTRACT: note_off channel=4 note=95 velocity=0 time=0.0037202083333333327
EXTRACT: note_off channel=2 note=45 velocity=0 time=0.06882385416666666
EXTRACT: note_on channel=2 note=45 velocity=94 time=0.005580312499999999
EXTRACT: note_on channel=4 note=95 velocity=74 time=0.014880833333333331
EXTRACT: note_on channel=4 note=88 velocity=74 time=0.0018601041666666664
EXTRACT: note_on channel=4 note=100 velocity=78 time=0.0037202083333333327
EXTRACT: note_off channel=4 note=88 velocity=0 time=0.05580312499999999
EXTRACT: note_off channel=3 note=64 velocity=0 time=0.009300520833333333
EXTRACT: note_off channel=4 note=100 velocity=0 time=0
EXTRACT: note_off channel=4 note=95 velocity=0 time=0.0037202083333333327
EXTRACT: note_off channel=1 note=33 velocity=0 time=0.05394302083333333
EXTRACT: note_off channel=2 note=45 velocity=0 time=0
EXTRACT: note_on channel=1 note=37 velocity=101 time=0.005580312499999999
EXTRACT: note_on channel=2 note=49 velocity=88 time=0
EXTRACT: note_on channel=9 note=40 velocity=108 time=0
EXTRACT: note_on channel=9 note=42 velocity=88 time=0
EXTRACT: note_on channel=4 note=88 velocity=70 time=0.0074404166666666655
EXTRACT: note_off channel=9 note=42 velocity=0 time=0
EXTRACT: note_off channel=9 note=40 velocity=0 time=0
EXTRACT: note_on channel=4 note=95 velocity=72 time=0.0037202083333333327
EXTRACT: note_on channel=4 note=100 velocity=82 time=0.0037202083333333327
EXTRACT: note_off channel=4 note=88 velocity=0 time=0.07254406249999999
EXTRACT: note_off channel=4 note=100 velocity=0 time=0.014880833333333331
EXTRACT: note_off channel=4 note=95 velocity=0 time=0.0018601041666666664
EXTRACT: note_off channel=2 note=49 velocity=0 time=0.09858552083333331
EXTRACT: note_on channel=2 note=49 velocity=90 time=0.005580312499999999
EXTRACT: note_on channel=9 note=42 velocity=60 time=0
EXTRACT: note_off channel=9 note=42 velocity=0 time=0.0074404166666666655
EXTRACT: note_on channel=4 note=88 velocity=70 time=0.0037202083333333327
EXTRACT: note_on channel=4 note=95 velocity=70 time=0.0018601041666666664
EXTRACT: note_on channel=4 note=100 velocity=80 time=0.0018601041666666664
EXTRACT: note_off channel=4 note=88 velocity=0 time=0.05022281249999999
EXTRACT: note_off channel=4 note=100 velocity=0 time=0.009300520833333333
EXTRACT: note_off channel=4 note=95 velocity=0 time=0.0037202083333333327
EXTRACT: note_off channel=1 note=37 velocity=0 time=0.05580312499999999
EXTRACT: note_off channel=2 note=49 velocity=0 time=0.009300520833333333
EXTRACT: note_on channel=1 note=40 velocity=106 time=0.005580312499999999
EXTRACT: note_on channel=2 note=52 velocity=93 time=0
EXTRACT: note_on channel=9 note=35 velocity=108 time=0
EXTRACT: note_on channel=9 note=42 velocity=83 time=0
EXTRACT: note_off channel=9 note=42 velocity=0 time=0.0074404166666666655
EXTRACT: note_off channel=9 note=35 velocity=0 time=0
EXTRACT: note_on channel=4 note=91 velocity=80 time=0.0018601041666666664
EXTRACT: note_on channel=4 note=103 velocity=74 time=0.0037202083333333327
EXTRACT: note_on channel=4 note=98 velocity=68 time=0
EXTRACT: note_off channel=4 note=91 velocity=0 time=0.08742489583333332
EXTRACT: note_off channel=4 note=103 velocity=0 time=0.011160624999999999
EXTRACT: note_off channel=4 note=98 velocity=0 time=0.0074404166666666655
EXTRACT: note_off channel=2 note=52 velocity=0 time=0.08370468749999999
EXTRACT: note_on channel=2 note=52 velocity=84 time=0.005580312499999999
EXTRACT: note_on channel=9 note=42 velocity=59 time=0
EXTRACT: note_on channel=4 note=98 velocity=70 time=0.0074404166666666655
EXTRACT: note_off channel=9 note=42 velocity=0 time=0
EXTRACT: note_on channel=4 note=103 velocity=72 time=0.0018601041666666664
EXTRACT: note_on channel=4 note=91 velocity=70 time=0
EXTRACT: note_off channel=4 note=91 velocity=0 time=0.057663229166666656
EXTRACT: note_off channel=4 note=98 velocity=0 time=0.009300520833333333
EXTRACT: note_off channel=4 note=103 velocity=0 time=0.0018601041666666664
EXTRACT: note_off channel=1 note=40 velocity=0 time=0.06510364583333332
EXTRACT: note_off channel=2 note=52 velocity=0 time=0
EXTRACT: note_on channel=1 note=42 velocity=102 time=0.005580312499999999
EXTRACT: note_on channel=2 note=54 velocity=93 time=0
EXTRACT: note_on channel=9 note=42 velocity=88 time=0
EXTRACT: note_on channel=9 note=40 velocity=107 time=0
EXTRACT: note_on channel=4 note=93 velocity=70 time=0.0018601041666666664
EXTRACT: note_on channel=4 note=98 velocity=74 time=0
EXTRACT: note_on channel=4 note=105 velocity=82 time=0.0037202083333333327
EXTRACT: note_off channel=9 note=40 velocity=0 time=0.0018601041666666664
EXTRACT: note_off channel=9 note=42 velocity=0 time=0
EXTRACT: note_off channel=4 note=105 velocity=0 time=0.09858552083333331
EXTRACT: note_off channel=4 note=98 velocity=0 time=0.0018601041666666664
EXTRACT: note_off channel=4 note=93 velocity=0 time=0.0037202083333333327
EXTRACT: note_off channel=2 note=54 velocity=0 time=0.09114510416666666
EXTRACT: note_on channel=2 note=52 velocity=90 time=0.005580312499999999
EXTRACT: note_on channel=9 note=42 velocity=59 time=0
EXTRACT: note_off channel=9 note=42 velocity=0 time=0.0074404166666666655
EXTRACT: note_on channel=4 note=93 velocity=78 time=0.005580312499999999
EXTRACT: note_on channel=4 note=105 velocity=78 time=0.0074404166666666655
EXTRACT: note_on channel=4 note=98 velocity=70 time=0
EXTRACT: note_off channel=4 note=98 velocity=0 time=0.04278239583333333
EXTRACT: note_off channel=4 note=93 velocity=0 time=0.005580312499999999
EXTRACT: note_off channel=4 note=105 velocity=0 time=0.018601041666666665
EXTRACT: note_off channel=1 note=42 velocity=0 time=0.05580312499999999
EXTRACT: note_off channel=2 note=52 velocity=0 time=0
EXTRACT: note_on channel=1 note=33 velocity=100 time=0.005580312499999999
EXTRACT: note_on channel=2 note=45 velocity=92 time=0
EXTRACT: note_on channel=4 note=100 velocity=70 time=0
EXTRACT: note_on channel=9 note=42 velocity=85 time=0
EXTRACT: note_on channel=9 note=35 velocity=108 time=0
EXTRACT: note_on channel=4 note=106 velocity=76 time=0.0037202083333333327
EXTRACT: note_off channel=9 note=35 velocity=0 time=0.0037202083333333327
EXTRACT: note_off channel=9 note=42 velocity=0 time=0
EXTRACT: note_on channel=4 note=94 velocity=78 time=0.0018601041666666664
EXTRACT: note_off channel=4 note=100 velocity=0 time=0.04092229166666666
EXTRACT: note_off channel=4 note=94 velocity=0 time=0.05208291666666666
EXTRACT: note_off channel=4 note=106 velocity=0 time=0.018601041666666665
EXTRACT: note_on channel=4 note=100 velocity=80 time=0.07812437499999998
EXTRACT: note_off channel=2 note=45 velocity=0 time=0.0037202083333333327
EXTRACT: note_on channel=4 note=94 velocity=76 time=0
EXTRACT: note_on channel=4 note=106 velocity=76 time=0.0037202083333333327
EXTRACT: note_on channel=2 note=45 velocity=92 time=0.0018601041666666664
EXTRACT: note_on channel=9 note=42 velocity=56 time=0
EXTRACT: note_off channel=9 note=42 velocity=0 time=0.0074404166666666655
EXTRACT: note_on channel=3 note=67 velocity=113 time=0.0018601041666666664
EXTRACT: note_off channel=4 note=94 velocity=0 time=0.06138343749999999
EXTRACT: note_off channel=4 note=100 velocity=0 time=0.016740937499999997
EXTRACT: note_off channel=4 note=106 velocity=0 time=0.0037202083333333327
EXTRACT: note_off channel=3 note=67 velocity=0 time=0.0018601041666666664
EXTRACT: note_off channel=1 note=33 velocity=0 time=0.05022281249999999
EXTRACT: note_off channel=2 note=45 velocity=0 time=0
EXTRACT: note_on channel=1 note=37 velocity=94 time=0.005580312499999999
EXTRACT: note_on channel=2 note=49 velocity=84 time=0
EXTRACT: note_on channel=9 note=42 velocity=82 time=0
EXTRACT: note_on channel=9 note=40 velocity=107 time=0
EXTRACT: note_off channel=9 note=40 velocity=0 time=0.0074404166666666655
EXTRACT: note_off channel=9 note=42 velocity=0 time=0
EXTRACT: note_on channel=3 note=67 velocity=116 time=0.005580312499999999
EXTRACT: note_on channel=4 note=105 velocity=78 time=0.014880833333333331
EXTRACT: note_on channel=4 note=93 velocity=78 time=0.0018601041666666664
EXTRACT: note_on channel=4 note=100 velocity=72 time=0.0074404166666666655
EXTRACT: note_off channel=4 note=93 velocity=0 time=0.08184458333333332
EXTRACT: note_off channel=3 note=67 velocity=0 time=0.011160624999999999
EXTRACT: note_off channel=4 note=100 velocity=0 time=0.0037202083333333327
EXTRACT: note_off channel=4 note=105 velocity=0 time=0.0018601041666666664
EXTRACT: note_off channel=2 note=49 velocity=0 time=0.06696374999999999
EXTRACT: note_on channel=2 note=49 velocity=88 time=0.005580312499999999
EXTRACT: note_on channel=9 note=42 velocity=58 time=0
EXTRACT: note_off channel=9 note=42 velocity=0 time=0.0074404166666666655
EXTRACT: note_on channel=3 note=67 velocity=116 time=0.013020729166666665
EXTRACT: note_on channel=4 note=105 velocity=74 time=0
EXTRACT: note_on channel=4 note=93 velocity=80 time=0.0018601041666666664
EXTRACT: note_on channel=4 note=100 velocity=78 time=0.0018601041666666664
EXTRACT: note_off channel=4 note=93 velocity=0 time=0.05208291666666666
EXTRACT: note_off channel=4 note=100 velocity=0 time=0.005580312499999999
EXTRACT: note_off channel=4 note=105 velocity=0 time=0.0074404166666666655
EXTRACT: note_off channel=1 note=37 velocity=0 time=0.05394302083333333
EXTRACT: note_off channel=2 note=49 velocity=0 time=0
EXTRACT: note_on channel=1 note=40 velocity=103 time=0.005580312499999999
EXTRACT: note_on channel=2 note=52 velocity=90 time=0
EXTRACT: note_on channel=9 note=42 velocity=86 time=0
EXTRACT: note_on channel=9 note=35 velocity=107 time=0
EXTRACT: note_off channel=9 note=35 velocity=0 time=0.0074404166666666655
EXTRACT: note_off channel=9 note=42 velocity=0 time=0
EXTRACT: note_on channel=4 note=91 velocity=78 time=0.013020729166666665
EXTRACT: note_on channel=4 note=98 velocity=54 time=0.0018601041666666664
EXTRACT: note_on channel=4 note=103 velocity=78 time=0.0018601041666666664
EXTRACT: note_off channel=4 note=91 velocity=0 time=0.10230572916666665
EXTRACT: note_off channel=4 note=98 velocity=0 time=0.013020729166666665
EXTRACT: note_off channel=4 note=103 velocity=0 time=0.0018601041666666664
EXTRACT: note_off channel=2 note=52 velocity=0 time=0.06138343749999999
EXTRACT: note_on channel=2 note=52 velocity=94 time=0.005580312499999999
EXTRACT: note_on channel=9 note=42 velocity=67 time=0
EXTRACT: note_on channel=4 note=103 velocity=62 time=0.0037202083333333327
EXTRACT: note_off channel=9 note=42 velocity=0 time=0.0037202083333333327
EXTRACT: note_on channel=4 note=91 velocity=76 time=0.0037202083333333327
EXTRACT: note_on channel=4 note=98 velocity=70 time=0.009300520833333333
EXTRACT: note_off channel=3 note=67 velocity=0 time=0.031621770833333326
EXTRACT: note_on channel=3 note=64 velocity=104 time=0.005580312499999999
EXTRACT: note_off channel=4 note=91 velocity=0 time=0.013020729166666665
EXTRACT: note_off channel=4 note=103 velocity=0 time=0.0074404166666666655
EXTRACT: note_off channel=4 note=98 velocity=0 time=0.0018601041666666664
EXTRACT: note_off channel=3 note=64 velocity=0 time=0.04092229166666666
EXTRACT: note_off channel=1 note=40 velocity=0 time=0.022321249999999997
EXTRACT: note_off channel=2 note=52 velocity=0 time=0
EXTRACT: note_on channel=1 note=42 velocity=101 time=0.005580312499999999
EXTRACT: note_on channel=2 note=54 velocity=88 time=0
EXTRACT: note_on channel=9 note=42 velocity=86 time=0
EXTRACT: note_on channel=9 note=40 velocity=108 time=0
EXTRACT: note_off channel=9 note=40 velocity=0 time=0.0074404166666666655
EXTRACT: note_off channel=9 note=42 velocity=0 time=0
EXTRACT: note_on channel=3 note=66 velocity=116 time=0.0074404166666666655
EXTRACT: note_on channel=4 note=100 velocity=82 time=0
EXTRACT: note_on channel=4 note=88 velocity=80 time=0
EXTRACT: note_on channel=4 note=95 velocity=80 time=0.0037202083333333327
EXTRACT: note_off channel=4 note=88 velocity=0 time=0.07812437499999998
EXTRACT: note_off channel=4 note=100 velocity=0 time=0.009300520833333333
EXTRACT: note_off channel=4 note=95 velocity=0 time=0.009300520833333333
EXTRACT: note_off channel=2 note=54 velocity=0 time=0.08742489583333332
EXTRACT: note_on channel=4 note=100 velocity=78 time=0.0018601041666666664
EXTRACT: note_on channel=4 note=88 velocity=82 time=0.0018601041666666664
EXTRACT: note_on channel=2 note=52 velocity=90 time=0.0018601041666666664
EXTRACT: note_on channel=4 note=95 velocity=78 time=0
EXTRACT: note_on channel=9 note=42 velocity=61 time=0
EXTRACT: note_off channel=9 note=42 velocity=0 time=0.0074404166666666655
EXTRACT: note_off channel=4 note=100 velocity=0 time=0.08556479166666665
EXTRACT: note_off channel=4 note=95 velocity=0 time=0.022321249999999997
EXTRACT: note_off channel=3 note=66 velocity=0 time=0.011160624999999999
EXTRACT: note_off channel=4 note=88 velocity=0 time=0
EXTRACT: note_off channel=1 note=42 velocity=0 time=0.009300520833333333
EXTRACT: note_on channel=3 note=64 velocity=113 time=0
EXTRACT: note_on channel=4 note=86 velocity=65 time=0.0037202083333333327
EXTRACT: note_off channel=2 note=52 velocity=0 time=0.0037202083333333327
EXTRACT: note_on channel=4 note=93 velocity=69 time=0.0037202083333333327
EXTRACT: note_on channel=1 note=28 velocity=104 time=0.0018601041666666664
EXTRACT: note_on channel=2 note=40 velocity=94 time=0
EXTRACT: note_on channel=9 note=42 velocity=84 time=0
EXTRACT: note_on channel=9 note=35 velocity=107 time=0
EXTRACT: note_on channel=4 note=98 velocity=67 time=0.0018601041666666664
EXTRACT: note_off channel=9 note=35 velocity=0 time=0.005580312499999999
EXTRACT: note_off channel=9 note=42 velocity=0 time=0
EXTRACT: note_off channel=4 note=86 velocity=0 time=0.13392749999999998
EXTRACT: note_off channel=4 note=93 velocity=0 time=0.0074404166666666655
EXTRACT: note_off channel=4 note=98 velocity=0 time=0.013020729166666665
EXTRACT: note_on channel=4 note=98 velocity=68 time=0.031621770833333326
EXTRACT: note_on channel=4 note=86 velocity=69 time=0.0037202083333333327
EXTRACT: note_off channel=2 note=40 velocity=0 time=0.005580312499999999
EXTRACT: note_on channel=4 note=93 velocity=65 time=0.0037202083333333327
EXTRACT: note_on channel=2 note=40 velocity=96 time=0.0018601041666666664
EXTRACT: note_on channel=9 note=42 velocity=59 time=0
EXTRACT: note_off channel=9 note=42 velocity=0 time=0.0074404166666666655
EXTRACT: note_off channel=4 note=98 velocity=0 time=0.03534197916666666
EXTRACT: note_off channel=4 note=86 velocity=0 time=0.013020729166666665
EXTRACT: note_off channel=4 note=93 velocity=0 time=0.0037202083333333327
EXTRACT: note_on channel=4 note=83 velocity=65 time=0.07068395833333332
EXTRACT: note_on channel=4 note=95 velocity=69 time=0.011160624999999999
EXTRACT: note_on channel=4 note=88 velocity=65 time=0
EXTRACT: note_off channel=1 note=28 velocity=0 time=0.0018601041666666664
EXTRACT: note_off channel=2 note=40 velocity=0 time=0
EXTRACT: note_off channel=3 note=64 velocity=0 time=0.0018601041666666664
EXTRACT: note_on channel=1 note=32 velocity=100 time=0.0037202083333333327
EXTRACT: note_on channel=2 note=44 velocity=76 time=0
EXTRACT: note_on channel=9 note=42 velocity=88 time=0
EXTRACT: note_on channel=9 note=40 velocity=108 time=0
EXTRACT: note_off channel=9 note=40 velocity=0 time=0.0074404166666666655
EXTRACT: note_off channel=9 note=42 velocity=0 time=0
EXTRACT: note_off channel=4 note=83 velocity=0 time=0.1283471875
EXTRACT: note_off channel=4 note=88 velocity=0 time=0.014880833333333331
EXTRACT: note_off channel=4 note=95 velocity=0 time=0.009300520833333333
EXTRACT: note_off channel=2 note=44 velocity=0 time=0.04278239583333333
EXTRACT: note_on channel=2 note=44 velocity=86 time=0.005580312499999999
EXTRACT: note_on channel=9 note=42 velocity=58 time=0
EXTRACT: note_off channel=9 note=42 velocity=0 time=0.0074404166666666655
EXTRACT: note_on channel=4 note=95 velocity=67 time=0.011160624999999999
EXTRACT: note_on channel=4 note=83 velocity=69 time=0
EXTRACT: note_on channel=4 note=88 velocity=65 time=0.011160624999999999
EXTRACT: note_off channel=4 note=88 velocity=0 time=0.048362708333333324
EXTRACT: note_off channel=4 note=83 velocity=0 time=0.0074404166666666655
EXTRACT: note_off channel=4 note=95 velocity=0 time=0.0037202083333333327
EXTRACT: note_off channel=1 note=32 velocity=0 time=0.05394302083333333
EXTRACT: note_off channel=2 note=44 velocity=0 time=0
EXTRACT: note_on channel=1 note=35 velocity=103 time=0.005580312499999999
EXTRACT: note_on channel=2 note=47 velocity=90 time=0
EXTRACT: note_on channel=9 note=42 velocity=87 time=0
EXTRACT: note_on channel=9 note=35 velocity=108 time=0
EXTRACT: note_off channel=9 note=35 velocity=0 time=0.0074404166666666655
EXTRACT: note_off channel=9 note=42 velocity=0 time=0
EXTRACT: note_on channel=4 note=86 velocity=72 time=0.0037202083333333327
EXTRACT: note_on channel=4 note=81 velocity=71 time=0
EXTRACT: note_on channel=4 note=93 velocity=66 time=0.0074404166666666655
EXTRACT: note_off channel=4 note=81 velocity=0 time=0.14880833333333332
EXTRACT: note_off channel=4 note=86 velocity=0 time=0.0037202083333333327
EXTRACT: note_off channel=4 note=93 velocity=0 time=0.0037202083333333327
EXTRACT: note_off channel=2 note=47 velocity=0 time=0.027901562499999994
EXTRACT: note_on channel=2 note=47 velocity=86 time=0.005580312499999999
EXTRACT: note_on channel=9 note=42 velocity=57 time=0
EXTRACT: note_off channel=9 note=42 velocity=0 time=0.0074404166666666655
EXTRACT: note_on channel=4 note=81 velocity=70 time=0.024181354166666662
EXTRACT: note_on channel=4 note=93 velocity=69 time=0.0037202083333333327
EXTRACT: note_on channel=4 note=86 velocity=66 time=0.0018601041666666664
EXTRACT: note_off channel=4 note=93 velocity=0 time=0.05208291666666666
EXTRACT: note_off channel=4 note=81 velocity=0 time=0.0037202083333333327
EXTRACT: note_off channel=4 note=86 velocity=0 time=0.009300520833333333
EXTRACT: note_off channel=1 note=35 velocity=0 time=0.02046114583333333
EXTRACT: note_off channel=2 note=47 velocity=0 time=0.02046114583333333
EXTRACT: note_on channel=1 note=37 velocity=99 time=0.005580312499999999
EXTRACT: note_on channel=2 note=49 velocity=88 time=0
EXTRACT: note_on channel=4 note=79 velocity=72 time=0
EXTRACT: note_on channel=9 note=40 velocity=107 time=0
EXTRACT: note_on channel=9 note=42 velocity=86 time=0
EXTRACT: note_on channel=4 note=91 velocity=69 time=0.0074404166666666655
EXTRACT: note_off channel=9 note=42 velocity=0 time=0
EXTRACT: note_off channel=9 note=40 velocity=0 time=0
EXTRACT: note_on channel=4 note=86 velocity=67 time=0.0037202083333333327
EXTRACT: note_off channel=4 note=91 velocity=0 time=0.15624874999999996
EXTRACT: note_off channel=4 note=79 velocity=0 time=0.005580312499999999
EXTRACT: note_off channel=4 note=86 velocity=0 time=0.013020729166666665
EXTRACT: note_off channel=2 note=49 velocity=0 time=0.016740937499999997
EXTRACT: note_on channel=2 note=47 velocity=80 time=0.005580312499999999
EXTRACT: note_on channel=9 note=42 velocity=63 time=0
EXTRACT: note_on channel=4 note=93 velocity=67 time=0.005580312499999999
EXTRACT: note_on channel=4 note=88 velocity=64 time=0
EXTRACT: note_on channel=4 note=81 velocity=62 time=0.0018601041666666664
EXTRACT: note_off channel=9 note=42 velocity=0 time=0
EXTRACT: note_off channel=4 note=93 velocity=0 time=0.059523333333333324
EXTRACT: note_off channel=4 note=88 velocity=0 time=0.0074404166666666655
EXTRACT: note_off channel=4 note=81 velocity=0 time=0.0074404166666666655
EXTRACT: note_off channel=1 note=37 velocity=0 time=0.06138343749999999
EXTRACT: note_off channel=2 note=47 velocity=0 time=0
EXTRACT: note_on channel=1 note=28 velocity=104 time=0.005580312499999999
EXTRACT: note_on channel=2 note=40 velocity=94 time=0
EXTRACT: note_on channel=4 note=83 velocity=73 time=0
EXTRACT: note_on channel=9 note=35 velocity=108 time=0
EXTRACT: note_on channel=9 note=42 velocity=85 time=0
EXTRACT: note_off channel=9 note=42 velocity=0 time=0.0074404166666666655
EXTRACT: note_off channel=9 note=35 velocity=0 time=0
EXTRACT: note_on channel=4 note=76 velocity=73 time=0.0037202083333333327
EXTRACT: note_on channel=4 note=88 velocity=73 time=0
EXTRACT: note_off channel=2 note=40 velocity=0 time=0.19159072916666664
EXTRACT: note_off channel=4 note=76 velocity=0 time=0.0018601041666666664
EXTRACT: note_on channel=2 note=40 velocity=94 time=0.0037202083333333327
EXTRACT: note_on channel=9 note=42 velocity=64 time=0
EXTRACT: note_off channel=4 note=83 velocity=0 time=0.0018601041666666664
EXTRACT: note_off channel=4 note=88 velocity=0 time=0.0018601041666666664
EXTRACT: note_off channel=9 note=42 velocity=0 time=0.0037202083333333327
EXTRACT: note_on channel=4 note=83 velocity=72 time=0.013020729166666665
EXTRACT: note_on channel=4 note=71 velocity=70 time=0
EXTRACT: note_on channel=4 note=76 velocity=62 time=0.024181354166666662
EXTRACT: note_off channel=1 note=28 velocity=0 time=0.09858552083333331
EXTRACT: note_off channel=2 note=40 velocity=0 time=0
EXTRACT: note_on channel=1 note=32 velocity=100 time=0.005580312499999999
EXTRACT: note_on channel=2 note=44 velocity=80 time=0
EXTRACT: note_on channel=9 note=40 velocity=107 time=0
EXTRACT: note_on channel=9 note=42 velocity=87 time=0
EXTRACT: note_off channel=9 note=42 velocity=0 time=0.0074404166666666655
EXTRACT: note_off channel=9 note=40 velocity=0 time=0
EXTRACT: note_off channel=4 note=83 velocity=0 time=0.04278239583333333
EXTRACT: note_off channel=4 note=76 velocity=0 time=0.029761666666666662
EXTRACT: note_off channel=4 note=71 velocity=0 time=0.014880833333333331
EXTRACT: note_off channel=2 note=44 velocity=0 time=0.10788604166666665
EXTRACT: note_on channel=2 note=44 velocity=86 time=0.005580312499999999
EXTRACT: note_on channel=9 note=42 velocity=59 time=0
EXTRACT: note_off channel=9 note=42 velocity=0 time=0.0074404166666666655
EXTRACT: note_on channel=4 note=71 velocity=72 time=0.0018601041666666664
EXTRACT: note_on channel=4 note=83 velocity=71 time=0.0037202083333333327
EXTRACT: note_on channel=4 note=76 velocity=72 time=0.016740937499999997
EXTRACT: note_off channel=1 note=32 velocity=0 time=0.11346635416666664
EXTRACT: note_off channel=2 note=44 velocity=0 time=0
EXTRACT: note_on channel=1 note=35 velocity=100 time=0.005580312499999999
EXTRACT: note_on channel=2 note=47 velocity=90 time=0
EXTRACT: note_on channel=9 note=35 velocity=107 time=0
EXTRACT: note_on channel=9 note=42 velocity=87 time=0
EXTRACT: note_off channel=9 note=42 velocity=0 time=0.0074404166666666655
EXTRACT: note_off channel=9 note=35 velocity=0 time=0
EXTRACT: note_off channel=2 note=47 velocity=0 time=0.19531093749999998
EXTRACT: note_on channel=2 note=47 velocity=90 time=0.005580312499999999
EXTRACT: note_on channel=9 note=42 velocity=58 time=0
EXTRACT: note_off channel=9 note=42 velocity=0 time=0.0074404166666666655
EXTRACT: note_off channel=4 note=71 velocity=0 time=0.08928499999999999
EXTRACT: note_off channel=4 note=83 velocity=0 time=0.0074404166666666655
EXTRACT: note_off channel=4 note=76 velocity=0 time=0.013020729166666665
EXTRACT: note_on channel=3 note=67 velocity=112 time=0.011160624999999999
EXTRACT: note_off channel=1 note=35 velocity=0 time=0.014880833333333331
EXTRACT: note_off channel=2 note=47 velocity=0 time=0
EXTRACT: note_on channel=1 note=37 velocity=98 time=0.005580312499999999
EXTRACT: note_on channel=2 note=49 velocity=88 time=0
EXTRACT: note_on channel=9 note=40 velocity=108 time=0
EXTRACT: note_on channel=9 note=42 velocity=85 time=0
EXTRACT: note_off channel=9 note=42 velocity=0 time=0.0074404166666666655
EXTRACT: note_off channel=9 note=40 velocity=0 time=0
EXTRACT: note_off channel=3 note=67 velocity=0 time=0.11532645833333331
EXTRACT: note_on channel=3 note=67 velocity=109 time=0.07626427083333333
EXTRACT: note_off channel=2 note=49 velocity=0 time=0.0037202083333333327
EXTRACT: note_on channel=2 note=47 velocity=90 time=0.005580312499999999
EXTRACT: note_on channel=9 note=42 velocity=62 time=0
EXTRACT: note_off channel=9 note=42 velocity=0 time=0.0074404166666666655
EXTRACT: note_on channel=4 note=69 velocity=72 time=0.024181354166666662
EXTRACT: note_on channel=4 note=71 velocity=70 time=0.005580312499999999
EXTRACT: note_on channel=4 note=66 velocity=73 time=0.0018601041666666664
EXTRACT: note_on channel=4 note=63 velocity=76 time=0.005580312499999999
EXTRACT: note_off channel=3 note=67 velocity=0 time=0.031621770833333326
EXTRACT: note_off channel=1 note=37 velocity=0 time=0.03906218749999999
EXTRACT: note_off channel=2 note=47 velocity=0 time=0.027901562499999994
EXTRACT: note_on channel=1 note=35 velocity=108 time=0.005580312499999999
EXTRACT: note_on channel=2 note=47 velocity=98 time=0
EXTRACT: note_on channel=3 note=66 velocity=112 time=0
EXTRACT: note_on channel=9 note=42 velocity=84 time=0
EXTRACT: note_on channel=9 note=35 velocity=107 time=0
EXTRACT: note_off channel=9 note=35 velocity=0 time=0.0074404166666666655
EXTRACT: note_off channel=9 note=42 velocity=0 time=0
EXTRACT: note_off channel=4 note=71 velocity=0 time=0.057663229166666656
EXTRACT: note_off channel=4 note=63 velocity=0 time=0.024181354166666662
EXTRACT: note_off channel=4 note=66 velocity=0 time=0.009300520833333333
EXTRACT: note_off channel=4 note=69 velocity=0 time=0.05022281249999999
EXTRACT: note_off channel=3 note=66 velocity=0 time=0.009300520833333333
EXTRACT: note_off channel=2 note=47 velocity=0 time=0.044642499999999995
EXTRACT: note_on channel=3 note=66 velocity=109 time=0
EXTRACT: note_on channel=2 note=47 velocity=92 time=0.005580312499999999
EXTRACT: note_on channel=9 note=42 velocity=59 time=0
EXTRACT: note_off channel=9 note=42 velocity=0 time=0.0074404166666666655
EXTRACT: note_on channel=4 note=85 velocity=88 time=0.0037202083333333327
EXTRACT: note_off channel=4 note=85 velocity=0 time=0.07812437499999998
EXTRACT: note_off channel=3 note=66 velocity=0 time=0.005580312499999999
EXTRACT: note_off channel=1 note=35 velocity=0 time=0.018601041666666665
EXTRACT: note_off channel=2 note=47 velocity=0 time=0.029761666666666662
EXTRACT: note_on channel=3 note=66 velocity=110 time=0.0018601041666666664
EXTRACT: note_on channel=4 note=93 velocity=85 time=0
EXTRACT: note_on channel=4 note=97 velocity=100 time=0
EXTRACT: note_on channel=1 note=39 velocity=106 time=0.0037202083333333327
EXTRACT: note_on channel=2 note=51 velocity=92 time=0
EXTRACT: note_on channel=9 note=40 velocity=108 time=0
EXTRACT: note_on channel=9 note=42 velocity=88 time=0
EXTRACT: note_off channel=9 note=42 velocity=0 time=0.0074404166666666655
EXTRACT: note_off channel=9 note=40 velocity=0 time=0
EXTRACT: note_off channel=2 note=51 velocity=0 time=0.19531093749999998
EXTRACT: note_on channel=2 note=51 velocity=92 time=0.005580312499999999
EXTRACT: note_on channel=9 note=42 velocity=58 time=0
EXTRACT: note_off channel=9 note=42 velocity=0 time=0.0074404166666666655
EXTRACT: note_on channel=4 note=85 velocity=56 time=0.018601041666666665
EXTRACT: note_off channel=3 note=66 velocity=0 time=0.005580312499999999
EXTRACT: note_off channel=4 note=97 velocity=0 time=0.013020729166666665
EXTRACT: note_off channel=4 note=93 velocity=0 time=0.0018601041666666664
EXTRACT: note_off channel=4 note=85 velocity=0 time=0.06138343749999999
EXTRACT: note_on channel=3 note=66 velocity=112 time=0.033481874999999994
EXTRACT: note_off channel=1 note=39 velocity=0 time=0.0018601041666666664
EXTRACT: note_off channel=2 note=51 velocity=0 time=0
EXTRACT: note_on channel=4 note=95 velocity=80 time=0.0037202083333333327
EXTRACT: note_on channel=1 note=42 velocity=104 time=0.0018601041666666664
EXTRACT: note_on channel=2 note=54 velocity=90 time=0
EXTRACT: note_on channel=9 note=35 velocity=108 time=0
EXTRACT: note_on channel=9 note=42 velocity=87 time=0
EXTRACT: note_on channel=4 note=91 velocity=60 time=0.0037202083333333327
EXTRACT: note_off channel=9 note=42 velocity=0 time=0.0037202083333333327
EXTRACT: note_off channel=9 note=35 velocity=0 time=0
EXTRACT: note_off channel=4 note=91 velocity=0 time=0.048362708333333324
EXTRACT: note_on channel=4 note=92 velocity=68 time=0.011160624999999999
EXTRACT: note_off channel=2 note=54 velocity=0 time=0.13578760416666666
EXTRACT: note_on channel=2 note=54 velocity=88 time=0.005580312499999999
EXTRACT: note_on channel=9 note=42 velocity=57 time=0
EXTRACT: note_off channel=9 note=42 velocity=0 time=0.0074404166666666655
EXTRACT: note_off channel=4 note=92 velocity=0 time=0.024181354166666662
EXTRACT: note_off channel=3 note=66 velocity=0 time=0.0018601041666666664
EXTRACT: note_off channel=4 note=95 velocity=0 time=0.0037202083333333327
EXTRACT: note_on channel=4 note=90 velocity=56 time=0.011160624999999999
EXTRACT: note_on channel=4 note=93 velocity=64 time=0.0018601041666666664
EXTRACT: note_off channel=1 note=42 velocity=0 time=0.06510364583333332
EXTRACT: note_off channel=2 note=54 velocity=0 time=0.027901562499999994
EXTRACT: note_on channel=3 note=66 velocity=108 time=0
EXTRACT: note_on channel=1 note=44 velocity=104 time=0.005580312499999999
EXTRACT: note_on channel=2 note=56 velocity=96 time=0
EXTRACT: note_on channel=9 note=40 velocity=107 time=0
EXTRACT: note_on channel=9 note=42 velocity=86 time=0
EXTRACT: note_off channel=9 note=42 velocity=0 time=0.0074404166666666655
EXTRACT: note_off channel=9 note=40 velocity=0 time=0
EXTRACT: note_off channel=4 note=93 velocity=0 time=0.05208291666666666
EXTRACT: note_off channel=4 note=90 velocity=0 time=0.031621770833333326
EXTRACT: note_off channel=3 note=66 velocity=0 time=0.057663229166666656
EXTRACT: note_off channel=2 note=56 velocity=0 time=0.05394302083333333
EXTRACT: note_on channel=3 note=67 velocity=112 time=0
EXTRACT: note_on channel=2 note=54 velocity=82 time=0.005580312499999999
EXTRACT: note_on channel=9 note=42 velocity=63 time=0
EXTRACT: note_off channel=9 note=42 velocity=0 time=0.0074404166666666655
EXTRACT: note_off channel=1 note=44 velocity=0 time=0.13578760416666666
EXTRACT: note_off channel=2 note=54 velocity=0 time=0
EXTRACT: note_on channel=1 note=33 velocity=103 time=0.005580312499999999
EXTRACT: note_on channel=2 note=45 velocity=98 time=0
EXTRACT: note_on channel=9 note=35 velocity=108 time=0
EXTRACT: note_on channel=9 note=42 velocity=85 time=0
EXTRACT: note_on channel=4 note=67 velocity=82 time=0.0018601041666666664
EXTRACT: note_off channel=9 note=42 velocity=0 time=0.005580312499999999
EXTRACT: note_off channel=9 note=35 velocity=0 time=0
EXTRACT: note_on channel=4 note=64 velocity=79 time=0.0018601041666666664
EXTRACT: note_on channel=4 note=61 velocity=80 time=0.005580312499999999
EXTRACT: note_off channel=3 note=67 velocity=0 time=0.1711295833333333
EXTRACT: note_off channel=2 note=45 velocity=0 time=0.016740937499999997
EXTRACT: note_on channel=2 note=45 velocity=100 time=0.005580312499999999
EXTRACT: note_on channel=9 note=42 velocity=64 time=0
EXTRACT: note_off channel=9 note=42 velocity=0 time=0.0074404166666666655
EXTRACT: note_on channel=4 note=83 velocity=88 time=0.0037202083333333327
EXTRACT: note_off channel=4 note=83 velocity=0 time=0.07812437499999998
EXTRACT: note_off channel=1 note=33 velocity=0 time=0.05394302083333333
EXTRACT: note_off channel=2 note=45 velocity=0 time=0
EXTRACT: note_on channel=4 note=95 velocity=100 time=0.0018601041666666664
EXTRACT: note_on channel=4 note=91 velocity=84 time=0
EXTRACT: note_on channel=1 note=37 velocity=103 time=0.0037202083333333327
EXTRACT: note_on channel=2 note=49 velocity=88 time=0
EXTRACT: note_on channel=9 note=40 velocity=107 time=0
EXTRACT: note_on channel=9 note=42 velocity=87 time=0
EXTRACT: note_off channel=9 note=42 velocity=0 time=0.0074404166666666655
EXTRACT: note_off channel=9 note=40 velocity=0 time=0
EXTRACT: note_off channel=2 note=49 velocity=0 time=0.19531093749999998
EXTRACT: note_on channel=2 note=49 velocity=92 time=0.005580312499999999
EXTRACT: note_on channel=9 note=42 velocity=59 time=0
EXTRACT: note_off channel=9 note=42 velocity=0 time=0.0074404166666666655
EXTRACT: note_on channel=4 note=83 velocity=56 time=0.018601041666666665
EXTRACT: note_off channel=4 note=95 velocity=0 time=0.018601041666666665
EXTRACT: note_off channel=4 note=91 velocity=0 time=0.0018601041666666664
EXTRACT: note_off channel=4 note=83 velocity=0 time=0.06138343749999999
EXTRACT: note_off channel=1 note=37 velocity=0 time=0.03534197916666666
EXTRACT: note_off channel=2 note=49 velocity=0 time=0
EXTRACT: note_on channel=4 note=93 velocity=80 time=0.0037202083333333327
EXTRACT: note_on channel=1 note=40 velocity=106 time=0.0018601041666666664
EXTRACT: note_on channel=2 note=52 velocity=90 time=0
EXTRACT: note_on channel=9 note=42 velocity=87 time=0
EXTRACT: note_on channel=9 note=35 velocity=107 time=0
EXTRACT: note_on channel=4 note=89 velocity=60 time=0.0037202083333333327
EXTRACT: note_off channel=9 note=35 velocity=0 time=0.0037202083333333327
EXTRACT: note_off channel=9 note=42 velocity=0 time=0
EXTRACT: note_off channel=4 note=89 velocity=0 time=0.048362708333333324
EXTRACT: note_on channel=4 note=90 velocity=68 time=0.011160624999999999
EXTRACT: note_off channel=2 note=52 velocity=0 time=0.13578760416666666
EXTRACT: note_on channel=2 note=52 velocity=90 time=0.005580312499999999
EXTRACT: note_on channel=9 note=42 velocity=58 time=0
EXTRACT: note_off channel=9 note=42 velocity=0 time=0.0074404166666666655
EXTRACT: note_off channel=4 note=90 velocity=0 time=0.024181354166666662
EXTRACT: note_off channel=4 note=93 velocity=0 time=0.005580312499999999
EXTRACT: note_on channel=4 note=88 velocity=56 time=0.011160624999999999
EXTRACT: note_on channel=4 note=91 velocity=64 time=0.0018601041666666664
EXTRACT: note_off channel=1 note=40 velocity=0 time=0.05022281249999999
EXTRACT: note_on channel=3 note=67 velocity=105 time=0.029761666666666662
EXTRACT: note_off channel=2 note=52 velocity=0 time=0.013020729166666665
EXTRACT: note_on channel=1 note=42 velocity=103 time=0.005580312499999999
EXTRACT: note_on channel=2 note=54 velocity=80 time=0
EXTRACT: note_on channel=9 note=40 velocity=108 time=0
EXTRACT: note_on channel=9 note=42 velocity=85 time=0
EXTRACT: note_off channel=9 note=42 velocity=0 time=0.0074404166666666655
EXTRACT: note_off channel=9 note=40 velocity=0 time=0
EXTRACT: note_off channel=4 note=67 velocity=0 time=0.022321249999999997
EXTRACT: note_off channel=4 note=91 velocity=0 time=0.029761666666666662
EXTRACT: note_off channel=4 note=88 velocity=0 time=0.031621770833333326
EXTRACT: note_off channel=4 note=64 velocity=0 time=0.0074404166666666655
EXTRACT: note_off channel=3 note=67 velocity=0 time=0.024181354166666662
EXTRACT: note_off channel=2 note=54 velocity=0 time=0.07998447916666665
EXTRACT: note_on channel=2 note=52 velocity=90 time=0.005580312499999999
EXTRACT: note_off channel=4 note=61 velocity=0 time=0
EXTRACT: note_on channel=9 note=42 velocity=62 time=0
EXTRACT: note_off channel=9 note=42 velocity=0 time=0.0074404166666666655
EXTRACT: note_on channel=3 note=67 velocity=107 time=0.0074404166666666655
EXTRACT: note_off channel=1 note=42 velocity=0 time=0.1283471875
EXTRACT: note_off channel=2 note=52 velocity=0 time=0
EXTRACT: note_on channel=1 note=28 velocity=106 time=0.005580312499999999
EXTRACT: note_on channel=2 note=40 velocity=96 time=0
EXTRACT: note_on channel=9 note=42 velocity=84 time=0
EXTRACT: note_on channel=9 note=35 velocity=107 time=0
EXTRACT: note_off channel=9 note=35 velocity=0 time=0.0074404166666666655
EXTRACT: note_off channel=9 note=42 velocity=0 time=0
EXTRACT: note_off channel=3 note=67 velocity=0 time=0.09858552083333331
EXTRACT: note_on channel=3 note=64 velocity=106 time=0.09300520833333333
EXTRACT: note_off channel=2 note=40 velocity=0 time=0.0037202083333333327
EXTRACT: note_on channel=2 note=40 velocity=96 time=0.005580312499999999
EXTRACT: note_on channel=9 note=42 velocity=59 time=0
EXTRACT: note_off channel=9 note=42 velocity=0 time=0.0074404166666666655
EXTRACT: note_on channel=4 note=79 velocity=100 time=0.014880833333333331
EXTRACT: note_off channel=3 note=64 velocity=0 time=0.05394302083333333
EXTRACT: note_off channel=4 note=79 velocity=0 time=0.04650260416666666
EXTRACT: note_off channel=1 note=28 velocity=0 time=0.02046114583333333
EXTRACT: note_off channel=2 note=40 velocity=0 time=0
EXTRACT: note_on channel=4 note=80 velocity=76 time=0.0037202083333333327
EXTRACT: note_on channel=1 note=32 velocity=101 time=0.0018601041666666664
EXTRACT: note_on channel=2 note=44 velocity=78 time=0
EXTRACT: note_on channel=9 note=42 velocity=88 time=0
EXTRACT: note_on channel=9 note=40 velocity=108 time=0
EXTRACT: note_off channel=9 note=40 velocity=0 time=0.0074404166666666655
EXTRACT: note_off channel=9 note=42 velocity=0 time=0
EXTRACT: note_on channel=3 note=64 velocity=110 time=0.0018601041666666664
EXTRACT: note_off channel=4 note=80 velocity=0 time=0.06882385416666666
EXTRACT: note_on channel=4 note=83 velocity=100 time=0.013020729166666665
EXTRACT: note_off channel=4 note=83 velocity=0 time=0.07440416666666666
EXTRACT: note_off channel=3 note=64 velocity=0 time=0.018601041666666665
EXTRACT: note_off channel=2 note=44 velocity=0 time=0.018601041666666665
EXTRACT: note_on channel=2 note=44 velocity=84 time=0.005580312499999999
EXTRACT: note_on channel=9 note=42 velocity=58 time=0
EXTRACT: note_on channel=4 note=85 velocity=88 time=0.005580312499999999
EXTRACT: note_off channel=9 note=42 velocity=0 time=0.0018601041666666664
EXTRACT: note_on channel=3 note=62 velocity=104 time=0.013020729166666665
EXTRACT: note_off channel=4 note=85 velocity=0 time=0.059523333333333324
EXTRACT: note_off channel=3 note=62 velocity=0 time=0.0037202083333333327
EXTRACT: note_off channel=1 note=32 velocity=0 time=0.059523333333333324
EXTRACT: note_off channel=2 note=44 velocity=0 time=0
EXTRACT: note_on channel=3 note=64 velocity=109 time=0.0018601041666666664
EXTRACT: note_on channel=1 note=35 velocity=105 time=0.0037202083333333327
EXTRACT: note_on channel=2 note=47 velocity=88 time=0
EXTRACT: note_on channel=9 note=42 velocity=87 time=0
EXTRACT: note_on channel=9 note=35 velocity=108 time=0
EXTRACT: note_off channel=9 note=35 velocity=0 time=0.0074404166666666655
EXTRACT: note_off channel=9 note=42 velocity=0 time=0
EXTRACT: note_on channel=4 note=100 velocity=100 time=0.014880833333333331
EXTRACT: note_on channel=4 note=88 velocity=108 time=0.005580312499999999
EXTRACT: note_off channel=4 note=88 velocity=0 time=0.1376477083333333
EXTRACT: note_off channel=2 note=47 velocity=0 time=0.03720208333333333
EXTRACT: note_on channel=2 note=47 velocity=88 time=0.005580312499999999
EXTRACT: note_on channel=9 note=42 velocity=57 time=0
EXTRACT: note_off channel=4 note=100 velocity=0 time=0.0037202083333333327
EXTRACT: note_off channel=9 note=42 velocity=0 time=0.0037202083333333327
EXTRACT: note_on channel=4 note=98 velocity=76 time=0.009300520833333333
EXTRACT: note_on channel=4 note=86 velocity=80 time=0.005580312499999999
EXTRACT: note_off channel=3 note=64 velocity=0 time=0.04278239583333333
EXTRACT: note_off channel=4 note=86 velocity=0 time=0.018601041666666665
EXTRACT: note_off channel=4 note=98 velocity=0 time=0.005580312499999999
EXTRACT: note_off channel=1 note=35 velocity=0 time=0.05394302083333333
EXTRACT: note_off channel=2 note=47 velocity=0 time=0
EXTRACT: note_on channel=3 note=64 velocity=109 time=0
EXTRACT: note_on channel=1 note=37 velocity=99 time=0.005580312499999999
EXTRACT: note_on channel=2 note=49 velocity=88 time=0
EXTRACT: note_on channel=9 note=40 velocity=107 time=0
EXTRACT: note_on channel=9 note=42 velocity=86 time=0
EXTRACT: note_on channel=4 note=83 velocity=92 time=0.005580312499999999
EXTRACT: note_on channel=4 note=95 velocity=100 time=0
EXTRACT: note_off channel=9 note=42 velocity=0 time=0.0018601041666666664
EXTRACT: note_off channel=9 note=40 velocity=0 time=0
EXTRACT: note_off channel=4 note=95 velocity=0 time=0.14880833333333332
EXTRACT: note_off channel=4 note=83 velocity=0 time=0.0074404166666666655
EXTRACT: note_off channel=3 note=64 velocity=0 time=0.0037202083333333327
EXTRACT: note_off channel=2 note=49 velocity=0 time=0.03534197916666666
EXTRACT: note_on channel=2 note=47 velocity=86 time=0.005580312499999999
EXTRACT: note_on channel=9 note=42 velocity=63 time=0
EXTRACT: note_off channel=9 note=42 velocity=0 time=0.0074404166666666655
EXTRACT: note_on channel=3 note=64 velocity=106 time=0.016740937499999997
EXTRACT: note_on channel=4 note=81 velocity=36 time=0.0018601041666666664
EXTRACT: note_on channel=4 note=93 velocity=80 time=0
EXTRACT: note_off channel=4 note=81 velocity=0 time=0.06696374999999999
EXTRACT: note_off channel=4 note=93 velocity=0 time=0.0037202083333333327
EXTRACT: note_off channel=1 note=37 velocity=0 time=0.04278239583333333
EXTRACT: note_off channel=2 note=47 velocity=0 time=0.0037202083333333327
EXTRACT: note_on channel=1 note=28 velocity=105 time=0.005580312499999999
EXTRACT: note_on channel=2 note=40 velocity=96 time=0
EXTRACT: note_on channel=4 note=79 velocity=92 time=0
EXTRACT: note_on channel=9 note=35 velocity=108 time=0
EXTRACT: note_on channel=9 note=42 velocity=85 time=0
EXTRACT: note_on channel=4 note=91 velocity=80 time=0.0018601041666666664
EXTRACT: note_off channel=9 note=42 velocity=0 time=0.005580312499999999
EXTRACT: note_off channel=9 note=35 velocity=0 time=0
EXTRACT: note_off channel=3 note=64 velocity=0 time=0.13578760416666666
EXTRACT: note_off channel=4 note=79 velocity=0 time=0.05022281249999999
EXTRACT: note_off channel=4 note=91 velocity=0 time=0.0037202083333333327
EXTRACT: note_off channel=2 note=40 velocity=0 time=0.005580312499999999
EXTRACT: note_on channel=2 note=40 velocity=96 time=0.005580312499999999
EXTRACT: note_on channel=9 note=42 velocity=64 time=0
EXTRACT: note_off channel=9 note=42 velocity=0 time=0.0074404166666666655
EXTRACT: note_on channel=4 note=92 velocity=84 time=0.0018601041666666664
EXTRACT: note_on channel=4 note=80 velocity=60 time=0.0018601041666666664
EXTRACT: note_off channel=4 note=80 velocity=0 time=0.05580312499999999
EXTRACT: note_off channel=1 note=28 velocity=0 time=0.07626427083333333
EXTRACT: note_off channel=2 note=40 velocity=0 time=0
EXTRACT: note_on channel=1 note=32 velocity=103 time=0.005580312499999999
EXTRACT: note_on channel=2 note=44 velocity=84 time=0
EXTRACT: note_on channel=4 note=88 velocity=72 time=0
EXTRACT: note_on channel=9 note=40 velocity=107 time=0
EXTRACT: note_on channel=9 note=42 velocity=87 time=0
EXTRACT: note_off channel=4 note=92 velocity=0 time=0.0037202083333333327
EXTRACT: note_off channel=9 note=42 velocity=0 time=0.0037202083333333327
EXTRACT: note_off channel=9 note=40 velocity=0 time=0
EXTRACT: note_on channel=4 note=76 velocity=84 time=0.0037202083333333327
EXTRACT: note_off channel=4 note=88 velocity=0 time=0.10788604166666665
EXTRACT: note_off channel=4 note=76 velocity=0 time=0.011160624999999999
EXTRACT: note_off channel=2 note=44 velocity=0 time=0.07254406249999999
EXTRACT: note_on channel=2 note=44 velocity=86 time=0.005580312499999999
EXTRACT: note_on channel=9 note=42 velocity=59 time=0
EXTRACT: note_off channel=9 note=42 velocity=0 time=0.0074404166666666655
EXTRACT: note_on channel=4 note=71 velocity=68 time=0.022321249999999997
EXTRACT: note_on channel=4 note=83 velocity=92 time=0
EXTRACT: note_off channel=1 note=32 velocity=0 time=0.11346635416666664
EXTRACT: note_off channel=2 note=44 velocity=0 time=0
EXTRACT: note_on channel=1 note=35 velocity=102 time=0.005580312499999999
EXTRACT: note_on channel=2 note=47 velocity=94 time=0
EXTRACT: note_on channel=9 note=35 velocity=107 time=0
EXTRACT: note_on channel=9 note=42 velocity=87 time=0
EXTRACT: note_off channel=9 note=42 velocity=0 time=0.0074404166666666655
EXTRACT: note_off channel=9 note=35 velocity=0 time=0
EXTRACT: note_off channel=4 note=71 velocity=0 time=0.09672541666666665
EXTRACT: note_off channel=4 note=83 velocity=0 time=0.005580312499999999
EXTRACT: note_off channel=2 note=47 velocity=0 time=0.0037202083333333327
EXTRACT: note_on channel=2 note=63 velocity=97 time=0.05022281249999999
EXTRACT: note_off channel=1 note=35 velocity=0 time=0.009300520833333333
EXTRACT: note_on channel=2 note=58 velocity=103 time=0
EXTRACT: note_on channel=1 note=39 velocity=112 time=0.005580312499999999
EXTRACT: note_on channel=2 note=55 velocity=100 time=0.0018601041666666664
EXTRACT: note_on channel=2 note=51 velocity=97 time=0.0074404166666666655
EXTRACT: note_on channel=2 note=46 velocity=78 time=0.0074404166666666655
EXTRACT: note_on channel=4 note=67 velocity=100 time=0.0018601041666666664
EXTRACT: note_on channel=4 note=63 velocity=112 time=0.005580312499999999
EXTRACT: note_on channel=4 note=58 velocity=104 time=0.0037202083333333327
EXTRACT: note_on channel=9 note=40 velocity=99 time=0.031621770833333326
EXTRACT: note_off channel=9 note=40 velocity=0 time=0.0074404166666666655
EXTRACT: note_on channel=9 note=40 velocity=102 time=0.11160624999999998
EXTRACT: note_on channel=9 note=42 velocity=51 time=0
EXTRACT: note_off channel=9 note=42 velocity=0 time=0.0074404166666666655
EXTRACT: note_off channel=9 note=40 velocity=0 time=0
EXTRACT: note_on channel=3 note=67 velocity=115 time=0.1990311458333333
EXTRACT: note_on channel=9 note=40 velocity=75 time=0.031621770833333326
EXTRACT: note_off channel=9 note=40 velocity=0 time=0.0074404166666666655
EXTRACT: note_off channel=4 note=58 velocity=0 time=0.044642499999999995
EXTRACT: note_off channel=4 note=67 velocity=0 time=0.02046114583333333
EXTRACT: note_off channel=4 note=63 velocity=0 time=0.018601041666666665
EXTRACT: note_off channel=2 note=46 velocity=0 time=0.0018601041666666664
EXTRACT: note_off channel=2 note=63 velocity=0 time=0.005580312499999999
EXTRACT: note_off channel=2 note=51 velocity=0 time=0.0018601041666666664
EXTRACT: note_on channel=2 note=47 velocity=78 time=0.0018601041666666664
EXTRACT: note_off channel=2 note=58 velocity=0 time=0.005580312499999999
EXTRACT: note_off channel=1 note=39 velocity=0 time=0.005580312499999999
EXTRACT: note_on channel=2 note=52 velocity=99 time=0
EXTRACT: note_off channel=2 note=55 velocity=0 time=0.0018601041666666664
EXTRACT: note_on channel=1 note=40 velocity=112 time=0.0037202083333333327
EXTRACT: note_on channel=9 note=40 velocity=105 time=0
EXTRACT: note_on channel=9 note=42 velocity=53 time=0
EXTRACT: note_on channel=2 note=56 velocity=99 time=0.0037202083333333327
EXTRACT: note_off channel=9 note=42 velocity=0 time=0.0037202083333333327
EXTRACT: note_off channel=9 note=40 velocity=0 time=0
EXTRACT: note_on channel=2 note=59 velocity=99 time=0.0018601041666666664
EXTRACT: note_on channel=4 note=64 velocity=88 time=0.0037202083333333327
EXTRACT: note_on channel=4 note=68 velocity=92 time=0.0018601041666666664
EXTRACT: note_on channel=2 note=64 velocity=99 time=0.0018601041666666664
EXTRACT: note_on channel=4 note=59 velocity=100 time=0.0018601041666666664
EXTRACT: note_off channel=3 note=67 velocity=0 time=0.1264870833333333
EXTRACT: note_on channel=3 note=67 velocity=113 time=0.07068395833333332
EXTRACT: note_off channel=3 note=67 velocity=0 time=0.10602593749999999
EXTRACT: note_on channel=9 note=42 velocity=44 time=0.03534197916666666
EXTRACT: note_off channel=9 note=42 velocity=0 time=0.0074404166666666655
EXTRACT: note_on channel=3 note=67 velocity=112 time=0.009300520833333333
EXTRACT: note_off channel=3 note=67 velocity=0 time=0.15066843749999997
EXTRACT: note_on channel=3 note=67 velocity=112 time=0.057663229166666656
EXTRACT: note_off channel=3 note=67 velocity=0 time=0.10044562499999998
EXTRACT: note_on channel=9 note=42 velocity=52 time=0.031621770833333326
EXTRACT: note_off channel=9 note=42 velocity=0 time=0.0074404166666666655
EXTRACT: note_on channel=3 note=67 velocity=113 time=0.005580312499999999
EXTRACT: note_off channel=3 note=67 velocity=0 time=0.12276687499999998
EXTRACT: note_on channel=3 note=67 velocity=111 time=0.057663229166666656
EXTRACT: note_on channel=9 note=40 velocity=105 time=0.014880833333333331
EXTRACT: note_off channel=9 note=40 velocity=0 time=0.0074404166666666655
EXTRACT: note_on channel=9 note=40 velocity=69 time=0.10788604166666665
EXTRACT: note_off channel=3 note=67 velocity=0 time=0.005580312499999999
EXTRACT: note_off channel=9 note=40 velocity=0 time=0.0018601041666666664
EXTRACT: note_on channel=3 note=64 velocity=114 time=0.0037202083333333327
EXTRACT: note_on channel=9 note=42 velocity=51 time=0.022321249999999997
EXTRACT: note_off channel=9 note=42 velocity=0 time=0.0074404166666666655
EXTRACT: note_off channel=3 note=64 velocity=0 time=0.18415031249999997
EXTRACT: note_on channel=3 note=62 velocity=107 time=0.005580312499999999
EXTRACT: note_on channel=9 note=40 velocity=43 time=0.04092229166666666
EXTRACT: note_off channel=9 note=40 velocity=0 time=0.0074404166666666655
EXTRACT: note_off channel=3 note=62 velocity=0 time=0.024181354166666662
EXTRACT: note_on channel=3 note=64 velocity=115 time=0.06882385416666666
EXTRACT: note_on channel=9 note=40 velocity=105 time=0.018601041666666665
EXTRACT: note_on channel=9 note=42 velocity=53 time=0
EXTRACT: note_off channel=9 note=42 velocity=0 time=0.0074404166666666655
EXTRACT: note_off channel=9 note=40 velocity=0 time=0
EXTRACT: note_off channel=3 note=64 velocity=0 time=0.23623322916666664
EXTRACT: note_on channel=3 note=64 velocity=113 time=0.08184458333333332
EXTRACT: note_on channel=9 note=42 velocity=44 time=0.031621770833333326
EXTRACT: note_off channel=9 note=42 velocity=0 time=0.0074404166666666655
EXTRACT: note_off channel=3 note=64 velocity=0 time=0.1283471875
EXTRACT: note_on channel=3 note=67 velocity=116 time=0.06324354166666665
EXTRACT: note_on channel=9 note=42 velocity=52 time=0.15810885416666665
EXTRACT: note_off channel=9 note=42 velocity=0 time=0.0074404166666666655
EXTRACT: note_off channel=4 note=68 velocity=0 time=0.0037202083333333327
EXTRACT: note_off channel=4 note=59 velocity=0 time=0.011160624999999999
EXTRACT: note_off channel=4 note=64 velocity=0 time=0.04092229166666666
EXTRACT: note_off channel=1 note=40 velocity=0 time=0.02046114583333333
EXTRACT: note_off channel=2 note=47 velocity=0 time=0.033481874999999994
EXTRACT: note_off channel=2 note=52 velocity=0 time=0.011160624999999999
EXTRACT: note_off channel=3 note=67 velocity=0 time=0.0018601041666666664
EXTRACT: note_off channel=2 note=56 velocity=0 time=0.0074404166666666655
EXTRACT: note_off channel=2 note=59 velocity=0 time=0.005580312499999999
EXTRACT: note_off channel=2 note=64 velocity=0 time=0.0074404166666666655
EXTRACT: note_on channel=2 note=63 velocity=97 time=0.013020729166666665
EXTRACT: note_on channel=2 note=58 velocity=103 time=0.009300520833333333
EXTRACT: note_on channel=1 note=39 velocity=112 time=0.005580312499999999
EXTRACT: note_on channel=2 note=55 velocity=100 time=0.0018601041666666664
EXTRACT: note_on channel=2 note=51 velocity=97 time=0.0074404166666666655
EXTRACT: note_on channel=2 note=46 velocity=78 time=0.0074404166666666655
EXTRACT: note_on channel=4 note=58 velocity=100 time=0.0018601041666666664
EXTRACT: note_on channel=4 note=63 velocity=108 time=0.0018601041666666664
EXTRACT: note_on channel=4 note=67 velocity=96 time=0.0018601041666666664
EXTRACT: note_on channel=9 note=40 velocity=105 time=0.0074404166666666655
EXTRACT: note_off channel=9 note=40 velocity=0 time=0.0074404166666666655
EXTRACT: note_on channel=9 note=40 velocity=69 time=0.10788604166666665
EXTRACT: note_off channel=9 note=40 velocity=0 time=0.0074404166666666655
EXTRACT: note_on channel=9 note=42 velocity=51 time=0.02604145833333333
EXTRACT: note_off channel=9 note=42 velocity=0 time=0.0074404166666666655
EXTRACT: note_on channel=9 note=40 velocity=43 time=0.23065291666666662
EXTRACT: note_off channel=9 note=40 velocity=0 time=0.0074404166666666655
EXTRACT: note_off channel=4 note=58 velocity=0 time=0.029761666666666662
EXTRACT: note_off channel=4 note=67 velocity=0 time=0.014880833333333331
EXTRACT: note_off channel=4 note=63 velocity=0 time=0.027901562499999994
EXTRACT: note_off channel=2 note=46 velocity=0 time=0.013020729166666665
EXTRACT: note_off channel=2 note=63 velocity=0 time=0.005580312499999999
EXTRACT: note_off channel=2 note=51 velocity=0 time=0.0018601041666666664
EXTRACT: note_on channel=2 note=47 velocity=78 time=0.0018601041666666664
EXTRACT: note_on channel=3 note=67 velocity=111 time=0.0037202083333333327
EXTRACT: note_off channel=2 note=58 velocity=0 time=0.0018601041666666664
EXTRACT: note_off channel=1 note=39 velocity=0 time=0.005580312499999999
EXTRACT: note_on channel=2 note=52 velocity=99 time=0
EXTRACT: note_off channel=2 note=55 velocity=0 time=0.0018601041666666664
EXTRACT: note_on channel=1 note=40 velocity=112 time=0.0037202083333333327
EXTRACT: note_on channel=9 note=42 velocity=53 time=0
EXTRACT: note_on channel=9 note=40 velocity=105 time=0
EXTRACT: note_on channel=2 note=56 velocity=99 time=0.0037202083333333327
EXTRACT: note_off channel=9 note=40 velocity=0 time=0.0037202083333333327
EXTRACT: note_off channel=9 note=42 velocity=0 time=0
EXTRACT: note_on channel=2 note=59 velocity=99 time=0.0018601041666666664
EXTRACT: note_on channel=4 note=68 velocity=104 time=0.0037202083333333327
EXTRACT: note_on channel=4 note=64 velocity=92 time=0.0018601041666666664
EXTRACT: note_on channel=2 note=64 velocity=99 time=0.0018601041666666664
EXTRACT: note_on channel=4 note=59 velocity=92 time=0
EXTRACT: note_off channel=3 note=67 velocity=0 time=0.10230572916666665
EXTRACT: note_on channel=3 note=67 velocity=112 time=0.09300520833333333
EXTRACT: note_off channel=3 note=67 velocity=0 time=0.08370468749999999
EXTRACT: note_on channel=9 note=42 velocity=44 time=0.06138343749999999
EXTRACT: note_on channel=3 note=67 velocity=111 time=0.0037202083333333327
EXTRACT: note_off channel=9 note=42 velocity=0 time=0.0037202083333333327
EXTRACT: note_off channel=3 note=67 velocity=0 time=0.10044562499999998
EXTRACT: note_on channel=3 note=67 velocity=113 time=0.09300520833333333
EXTRACT: note_off channel=3 note=67 velocity=0 time=0.07998447916666665
EXTRACT: note_on channel=3 note=67 velocity=113 time=0.06696374999999999
EXTRACT: note_on channel=9 note=42 velocity=52 time=0.009300520833333333
EXTRACT: note_off channel=9 note=42 velocity=0 time=0.0074404166666666655
EXTRACT: note_off channel=3 note=67 velocity=0 time=0.09114510416666666
EXTRACT: note_on channel=3 note=67 velocity=113 time=0.08742489583333332
EXTRACT: note_on channel=9 note=40 velocity=105 time=0.022321249999999997
EXTRACT: note_off channel=9 note=40 velocity=0 time=0.0074404166666666655
EXTRACT: note_off channel=3 note=67 velocity=0 time=0.08928499999999999
EXTRACT: note_on channel=9 note=40 velocity=69 time=0.018601041666666665
EXTRACT: note_off channel=9 note=40 velocity=0 time=0.0074404166666666655
EXTRACT: note_on channel=3 note=64 velocity=112 time=0.013020729166666665
EXTRACT: note_on channel=9 note=42 velocity=51 time=0.013020729166666665
EXTRACT: note_off channel=9 note=42 velocity=0 time=0.0074404166666666655
EXTRACT: note_off channel=3 note=64 velocity=0 time=0.19159072916666664
EXTRACT: note_on channel=3 note=62 velocity=108 time=0.029761666666666662
EXTRACT: note_on channel=9 note=40 velocity=43 time=0.009300520833333333
EXTRACT: note_off channel=9 note=40 velocity=0 time=0.0074404166666666655
EXTRACT: note_off channel=3 note=62 velocity=0 time=0.06138343749999999
EXTRACT: note_on channel=3 note=64 velocity=114 time=0.048362708333333324
EXTRACT: note_on channel=9 note=40 velocity=105 time=0.0018601041666666664
EXTRACT: note_on channel=9 note=42 velocity=53 time=0
EXTRACT: note_off channel=9 note=42 velocity=0 time=0.0074404166666666655
EXTRACT: note_off channel=9 note=40 velocity=0 time=0
EXTRACT: note_off channel=3 note=64 velocity=0 time=0.22507260416666663
EXTRACT: note_on channel=3 note=62 velocity=108 time=0.005580312499999999
EXTRACT: note_off channel=3 note=62 velocity=0 time=0.07812437499999998
EXTRACT: note_on channel=3 note=64 velocity=113 time=0.03534197916666666
EXTRACT: note_on channel=9 note=42 velocity=44 time=0.005580312499999999
EXTRACT: note_off channel=9 note=42 velocity=0 time=0.0074404166666666655
EXTRACT: note_off channel=3 note=64 velocity=0 time=0.26227468749999994
EXTRACT: note_on channel=3 note=59 velocity=109 time=0.05580312499999999
EXTRACT: note_off channel=4 note=59 velocity=0 time=0.014880833333333331
EXTRACT: note_off channel=4 note=68 velocity=0 time=0.0018601041666666664
EXTRACT: note_on channel=9 note=42 velocity=52 time=0.014880833333333331
EXTRACT: note_off channel=9 note=42 velocity=0 time=0.0074404166666666655
EXTRACT: note_off channel=4 note=64 velocity=0 time=0.06882385416666666
EXTRACT: note_off channel=1 note=40 velocity=0 time=0.0074404166666666655
EXTRACT: note_off channel=2 note=47 velocity=0 time=0.033481874999999994
EXTRACT: note_off channel=2 note=52 velocity=0 time=0.011160624999999999
EXTRACT: note_off channel=2 note=56 velocity=0 time=0.009300520833333333
EXTRACT: note_off channel=2 note=59 velocity=0 time=0.005580312499999999
EXTRACT: note_off channel=2 note=64 velocity=0 time=0.0074404166666666655
EXTRACT: note_on channel=2 note=63 velocity=97 time=0.013020729166666665
EXTRACT: note_on channel=2 note=58 velocity=103 time=0.009300520833333333
EXTRACT: note_on channel=1 note=39 velocity=112 time=0.005580312499999999
EXTRACT: note_on channel=2 note=55 velocity=100 time=0.0018601041666666664
EXTRACT: note_on channel=2 note=51 velocity=97 time=0.0074404166666666655
EXTRACT: note_on channel=2 note=46 velocity=78 time=0.0074404166666666655
EXTRACT: note_on channel=9 note=40 velocity=105 time=0.013020729166666665
EXTRACT: note_on channel=4 note=63 velocity=108 time=0.005580312499999999
EXTRACT: note_on channel=4 note=67 velocity=92 time=0.0018601041666666664
EXTRACT: note_off channel=9 note=40 velocity=0 time=0
EXTRACT: note_on channel=4 note=58 velocity=96 time=0.0037202083333333327
EXTRACT: note_off channel=3 note=59 velocity=0 time=0.07626427083333333
EXTRACT: note_on channel=9 note=40 velocity=69 time=0.027901562499999994
EXTRACT: note_off channel=9 note=40 velocity=0 time=0.0074404166666666655
EXTRACT: note_on channel=9 note=42 velocity=51 time=0.02604145833333333
EXTRACT: note_off channel=9 note=42 velocity=0 time=0.0074404166666666655
EXTRACT: note_on channel=9 note=40 velocity=43 time=0.23065291666666662
EXTRACT: note_off channel=9 note=40 velocity=0 time=0.0074404166666666655
EXTRACT: note_off channel=4 note=58 velocity=0 time=0.009300520833333333
EXTRACT: note_off channel=4 note=67 velocity=0 time=0.014880833333333331
EXTRACT: note_off channel=4 note=63 velocity=0 time=0.018601041666666665
EXTRACT: note_off channel=2 note=46 velocity=0 time=0.04278239583333333
EXTRACT: note_off channel=2 note=63 velocity=0 time=0.005580312499999999
EXTRACT: note_off channel=2 note=51 velocity=0 time=0.0018601041666666664
EXTRACT: note_on channel=2 note=47 velocity=78 time=0.0018601041666666664
EXTRACT: note_on channel=3 note=67 velocity=111 time=0.0037202083333333327
EXTRACT: note_off channel=2 note=58 velocity=0 time=0.0018601041666666664
EXTRACT: note_off channel=1 note=39 velocity=0 time=0.005580312499999999
EXTRACT: note_on channel=2 note=52 velocity=99 time=0
EXTRACT: note_off channel=2 note=55 velocity=0 time=0.0018601041666666664
EXTRACT: note_on channel=4 note=64 velocity=88 time=0
EXTRACT: note_on channel=4 note=68 velocity=96 time=0.0018601041666666664
EXTRACT: note_on channel=4 note=59 velocity=92 time=0
EXTRACT: note_on channel=1 note=40 velocity=112 time=0.0018601041666666664
EXTRACT: note_on channel=9 note=40 velocity=105 time=0
EXTRACT: note_on channel=9 note=42 velocity=53 time=0
EXTRACT: note_on channel=2 note=56 velocity=99 time=0.0037202083333333327
EXTRACT: note_off channel=9 note=42 velocity=0 time=0.0037202083333333327
EXTRACT: note_off channel=9 note=40 velocity=0 time=0
EXTRACT: note_on channel=2 note=59 velocity=99 time=0.0018601041666666664
EXTRACT: note_on channel=2 note=64 velocity=99 time=0.0074404166666666655
EXTRACT: note_off channel=3 note=67 velocity=0 time=0.10230572916666665
EXTRACT: note_on channel=3 note=67 velocity=112 time=0.09300520833333333
EXTRACT: note_off channel=3 note=67 velocity=0 time=0.08370468749999999
EXTRACT: note_on channel=9 note=42 velocity=44 time=0.06138343749999999
EXTRACT: note_on channel=3 note=67 velocity=111 time=0.0037202083333333327
EXTRACT: note_off channel=9 note=42 velocity=0 time=0.0037202083333333327
EXTRACT: note_off channel=3 note=67 velocity=0 time=0.10044562499999998
EXTRACT: note_on channel=3 note=67 velocity=113 time=0.09300520833333333
EXTRACT: note_off channel=3 note=67 velocity=0 time=0.07998447916666665
EXTRACT: note_on channel=3 note=67 velocity=113 time=0.06696374999999999
EXTRACT: note_on channel=9 note=42 velocity=52 time=0.009300520833333333
EXTRACT: note_off channel=9 note=42 velocity=0 time=0.0074404166666666655
EXTRACT: note_off channel=3 note=67 velocity=0 time=0.09114510416666666
EXTRACT: note_on channel=3 note=67 velocity=113 time=0.08742489583333332
EXTRACT: note_on channel=9 note=40 velocity=105 time=0.022321249999999997
EXTRACT: note_off channel=9 note=40 velocity=0 time=0.0074404166666666655
EXTRACT: note_off channel=3 note=67 velocity=0 time=0.08928499999999999
EXTRACT: note_on channel=9 note=40 velocity=69 time=0.018601041666666665
EXTRACT: note_off channel=9 note=40 velocity=0 time=0.0074404166666666655
EXTRACT: note_on channel=3 note=64 velocity=112 time=0.013020729166666665
EXTRACT: note_on channel=9 note=42 velocity=51 time=0.013020729166666665
EXTRACT: note_off channel=9 note=42 velocity=0 time=0.0074404166666666655
EXTRACT: note_off channel=3 note=64 velocity=0 time=0.19159072916666664
EXTRACT: note_on channel=3 note=62 velocity=108 time=0.029761666666666662
EXTRACT: note_on channel=9 note=40 velocity=43 time=0.009300520833333333
EXTRACT: note_off channel=9 note=40 velocity=0 time=0.0074404166666666655
EXTRACT: note_off channel=3 note=62 velocity=0 time=0.06138343749999999
EXTRACT: note_on channel=3 note=64 velocity=114 time=0.048362708333333324
EXTRACT: note_on channel=9 note=40 velocity=105 time=0.0018601041666666664
EXTRACT: note_on channel=9 note=42 velocity=53 time=0
EXTRACT: note_off channel=9 note=42 velocity=0 time=0.0074404166666666655
EXTRACT: note_off channel=9 note=40 velocity=0 time=0
EXTRACT: note_off channel=3 note=64 velocity=0 time=0.34411927083333327
EXTRACT: note_on channel=3 note=64 velocity=113 time=0.005580312499999999
EXTRACT: note_on channel=9 note=42 velocity=44 time=0
EXTRACT: note_off channel=9 note=42 velocity=0 time=0.0074404166666666655
EXTRACT: note_off channel=3 note=64 velocity=0 time=0.14880833333333332
EXTRACT: note_on channel=3 note=67 velocity=109 time=0.05022281249999999
EXTRACT: note_off channel=4 note=59 velocity=0 time=0.1432280208333333
EXTRACT: note_on channel=9 note=42 velocity=52 time=0.0074404166666666655
EXTRACT: note_off channel=4 note=68 velocity=0 time=0.0018601041666666664
EXTRACT: note_off channel=9 note=42 velocity=0 time=0.005580312499999999
EXTRACT: note_off channel=4 note=64 velocity=0 time=0.057663229166666656
EXTRACT: note_off channel=1 note=40 velocity=0 time=0.018601041666666665
EXTRACT: note_off channel=2 note=47 velocity=0 time=0.033481874999999994
EXTRACT: note_off channel=2 note=52 velocity=0 time=0.011160624999999999
EXTRACT: note_off channel=2 note=56 velocity=0 time=0.009300520833333333
EXTRACT: note_off channel=2 note=59 velocity=0 time=0.005580312499999999
EXTRACT: note_off channel=2 note=64 velocity=0 time=0.0074404166666666655
EXTRACT: note_on channel=2 note=63 velocity=97 time=0.013020729166666665
EXTRACT: note_on channel=4 note=58 velocity=100 time=0
EXTRACT: note_on channel=4 note=67 velocity=100 time=0
EXTRACT: note_on channel=4 note=63 velocity=112 time=0.0018601041666666664
EXTRACT: note_on channel=2 note=58 velocity=103 time=0.0074404166666666655
EXTRACT: note_off channel=3 note=67 velocity=0 time=0.0037202083333333327
EXTRACT: note_on channel=1 note=39 velocity=112 time=0.0018601041666666664
EXTRACT: note_on channel=2 note=55 velocity=100 time=0.0018601041666666664
EXTRACT: note_on channel=2 note=51 velocity=97 time=0.0074404166666666655
EXTRACT: note_on channel=2 note=46 velocity=78 time=0.0074404166666666655
EXTRACT: note_on channel=9 note=40 velocity=105 time=0.013020729166666665
EXTRACT: note_off channel=9 note=40 velocity=0 time=0.0074404166666666655
EXTRACT: note_on channel=9 note=40 velocity=69 time=0.10788604166666665
EXTRACT: note_off channel=9 note=40 velocity=0 time=0.0074404166666666655
EXTRACT: note_on channel=9 note=42 velocity=51 time=0.02604145833333333
EXTRACT: note_off channel=9 note=42 velocity=0 time=0.0074404166666666655
EXTRACT: note_off channel=4 note=58 velocity=0 time=0.22507260416666663
EXTRACT: note_on channel=3 note=67 velocity=111 time=0.005580312499999999
EXTRACT: note_on channel=9 note=40 velocity=43 time=0
EXTRACT: note_off channel=9 note=40 velocity=0 time=0.0074404166666666655
EXTRACT: note_off channel=4 note=67 velocity=0 time=0.011160624999999999
EXTRACT: note_off channel=4 note=63 velocity=0 time=0.0074404166666666655
EXTRACT: note_off channel=2 note=46 velocity=0 time=0.06696374999999999
EXTRACT: note_off channel=3 note=67 velocity=0 time=0.0018601041666666664
EXTRACT: note_off channel=2 note=63 velocity=0 time=0.0037202083333333327
EXTRACT: note_off channel=2 note=51 velocity=0 time=0.0018601041666666664
EXTRACT: note_on channel=4 note=68 velocity=108 time=0
EXTRACT: note_on channel=2 note=47 velocity=78 time=0.0018601041666666664
EXTRACT: note_on channel=4 note=59 velocity=100 time=0
EXTRACT: note_on channel=4 note=64 velocity=96 time=0.0018601041666666664
EXTRACT: note_off channel=2 note=58 velocity=0 time=0.0037202083333333327
EXTRACT: note_off channel=1 note=39 velocity=0 time=0.005580312499999999
EXTRACT: note_on channel=2 note=52 velocity=99 time=0
EXTRACT: note_off channel=2 note=55 velocity=0 time=0.0018601041666666664
EXTRACT: note_on channel=1 note=40 velocity=112 time=0.0037202083333333327
EXTRACT: note_on channel=3 note=67 velocity=111 time=0
EXTRACT: note_on channel=9 note=35 velocity=108 time=0
EXTRACT: note_on channel=9 note=40 velocity=105 time=0
EXTRACT: note_on channel=9 note=42 velocity=53 time=0
EXTRACT: note_on channel=2 note=56 velocity=99 time=0.0037202083333333327
EXTRACT: note_off channel=9 note=42 velocity=0 time=0.0037202083333333327
EXTRACT: note_off channel=9 note=40 velocity=0 time=0
EXTRACT: note_off channel=9 note=35 velocity=0 time=0
EXTRACT: note_on channel=2 note=59 velocity=99 time=0.0018601041666666664
EXTRACT: note_on channel=2 note=64 velocity=99 time=0.0074404166666666655
EXTRACT: note_off channel=3 note=67 velocity=0 time=0.1934508333333333
EXTRACT: note_on channel=3 note=67 velocity=112 time=0.013020729166666665
EXTRACT: note_off channel=4 note=64 velocity=0 time=0.018601041666666665
EXTRACT: note_off channel=4 note=68 velocity=0 time=0.0018601041666666664
EXTRACT: note_off channel=4 note=59 velocity=0 time=0.0018601041666666664
EXTRACT: note_off channel=1 note=40 velocity=0 time=0.016740937499999997
EXTRACT: note_off channel=2 note=47 velocity=0 time=0.033481874999999994
EXTRACT: note_off channel=2 note=52 velocity=0 time=0.011160624999999999
EXTRACT: note_off channel=3 note=67 velocity=0 time=0
EXTRACT: note_off channel=2 note=56 velocity=0 time=0.009300520833333333
EXTRACT: note_off channel=2 note=59 velocity=0 time=0.005580312499999999
EXTRACT: note_off channel=2 note=64 velocity=0 time=0.0074404166666666655
EXTRACT: note_on channel=9 note=42 velocity=44 time=0.027901562499999994
EXTRACT: note_on channel=3 note=67 velocity=111 time=0.0037202083333333327
EXTRACT: note_off channel=9 note=42 velocity=0 time=0.0037202083333333327
EXTRACT: note_off channel=3 note=67 velocity=0 time=0.1767098958333333
EXTRACT: note_on channel=3 note=67 velocity=113 time=0.044642499999999995
EXTRACT: note_off channel=3 note=67 velocity=0 time=0.07998447916666665
EXTRACT: note_on channel=3 note=67 velocity=113 time=0.03906218749999999
EXTRACT: note_on channel=9 note=42 velocity=52 time=0.009300520833333333
EXTRACT: note_off channel=9 note=42 velocity=0 time=0.0074404166666666655
EXTRACT: note_off channel=3 note=67 velocity=0 time=0.2213523958333333
EXTRACT: note_on channel=3 note=67 velocity=112 time=0.009300520833333333
EXTRACT: note_off channel=3 note=67 velocity=0 time=0.10230572916666665
EXTRACT: note_on channel=3 note=67 velocity=112 time=0.016740937499999997
EXTRACT: note_on channel=9 note=42 velocity=51 time=0
EXTRACT: note_off channel=9 note=42 velocity=0 time=0.0074404166666666655
EXTRACT: note_off channel=3 note=67 velocity=0 time=0.2046114583333333
EXTRACT: note_on channel=3 note=67 velocity=108 time=0.016740937499999997
EXTRACT: note_off channel=3 note=67 velocity=0 time=0.10788604166666665
EXTRACT: note_on channel=3 note=67 velocity=114 time=0.018601041666666665
EXTRACT: note_on channel=9 note=42 velocity=53 time=0.0018601041666666664
EXTRACT: note_off channel=9 note=42 velocity=0 time=0.0074404166666666655
EXTRACT: note_off channel=3 note=67 velocity=0 time=0.33109854166666663
EXTRACT: note_on channel=3 note=67 velocity=113 time=0.013020729166666665
EXTRACT: note_on channel=1 note=28 velocity=108 time=0.005580312499999999
EXTRACT: note_on channel=9 note=42 velocity=44 time=0
EXTRACT: note_off channel=9 note=42 velocity=0 time=0.0074404166666666655
EXTRACT: note_off channel=3 note=67 velocity=0 time=0.32737833333333327
EXTRACT: note_on channel=3 note=67 velocity=111 time=0.013020729166666665
EXTRACT: note_off channel=1 note=28 velocity=0 time=0.0037202083333333327
EXTRACT: note_on channel=1 note=30 velocity=103 time=0.005580312499999999
EXTRACT: note_on channel=9 note=42 velocity=52 time=0
EXTRACT: note_off channel=9 note=42 velocity=0 time=0.0074404166666666655
EXTRACT: note_off channel=3 note=67 velocity=0 time=0.15810885416666665
EXTRACT: note_on channel=3 note=67 velocity=107 time=0.016740937499999997
EXTRACT: note_on channel=9 note=40 velocity=92 time=0.08556479166666665
EXTRACT: note_off channel=9 note=40 velocity=0 time=0.0074404166666666655
EXTRACT: note_off channel=3 note=67 velocity=0 time=0.04650260416666666
EXTRACT: note_off channel=1 note=30 velocity=0 time=0.005580312499999999
EXTRACT: note_on channel=3 note=67 velocity=113 time=0.011160624999999999
EXTRACT: note_on channel=1 note=32 velocity=106 time=0.018601041666666665
EXTRACT: note_on channel=9 note=40 velocity=101 time=0
EXTRACT: note_on channel=9 note=42 velocity=51 time=0
EXTRACT: note_off channel=9 note=42 velocity=0 time=0.0074404166666666655
EXTRACT: note_off channel=9 note=40 velocity=0 time=0
EXTRACT: note_off channel=3 note=67 velocity=0 time=0.3199379166666666
EXTRACT: note_on channel=4 note=91 velocity=76 time=0.0074404166666666655
EXTRACT: note_on channel=4 note=98 velocity=76 time=0.005580312499999999
EXTRACT: note_on channel=4 note=103 velocity=68 time=0.0037202083333333327
EXTRACT: note_on channel=3 note=64 velocity=111 time=0.0018601041666666664
EXTRACT: note_off channel=1 note=32 velocity=0 time=0.005580312499999999
EXTRACT: note_on channel=1 note=33 velocity=103 time=0.005580312499999999
EXTRACT: note_on channel=2 note=45 velocity=93 time=0
EXTRACT: note_on channel=9 note=35 velocity=107 time=0
EXTRACT: note_off channel=9 note=35 velocity=0 time=0.0074404166666666655
EXTRACT: note_off channel=4 note=91 velocity=0 time=0.1543886458333333
EXTRACT: note_off channel=4 note=103 velocity=0 time=0.009300520833333333
EXTRACT: note_off channel=4 note=98 velocity=0 time=0.016740937499999997
EXTRACT: note_off channel=2 note=45 velocity=0 time=0.014880833333333331
EXTRACT: note_on channel=2 note=45 velocity=94 time=0.005580312499999999
EXTRACT: note_off channel=3 note=64 velocity=0 time=0.08556479166666665
EXTRACT: note_off channel=1 note=33 velocity=0 time=0.057663229166666656
EXTRACT: note_off channel=2 note=45 velocity=0 time=0
EXTRACT: note_on channel=1 note=37 velocity=101 time=0.005580312499999999
EXTRACT: note_on channel=2 note=49 velocity=88 time=0
EXTRACT: note_on channel=9 note=40 velocity=108 time=0
EXTRACT: note_on channel=9 note=42 velocity=88 time=0
EXTRACT: note_off channel=9 note=42 velocity=0 time=0.0074404166666666655
EXTRACT: note_off channel=9 note=40 velocity=0 time=0
EXTRACT: note_off channel=2 note=49 velocity=0 time=0.19531093749999998
EXTRACT: note_on channel=2 note=49 velocity=90 time=0.005580312499999999
EXTRACT: note_on channel=9 note=42 velocity=60 time=0
EXTRACT: note_off channel=9 note=42 velocity=0 time=0.0074404166666666655
EXTRACT: note_off channel=1 note=37 velocity=0 time=0.1264870833333333
EXTRACT: note_off channel=2 note=49 velocity=0 time=0.009300520833333333
EXTRACT: note_on channel=1 note=40 velocity=106 time=0.005580312499999999
EXTRACT: note_on channel=2 note=52 velocity=93 time=0
EXTRACT: note_on channel=9 note=35 velocity=108 time=0
EXTRACT: note_on channel=9 note=42 velocity=83 time=0
EXTRACT: note_off channel=9 note=42 velocity=0 time=0.0074404166666666655
EXTRACT: note_off channel=9 note=35 velocity=0 time=0
EXTRACT: note_on channel=4 note=98 velocity=80 time=0.0037202083333333327
EXTRACT: note_on channel=4 note=91 velocity=78 time=0.0018601041666666664
EXTRACT: note_on channel=4 note=103 velocity=70 time=0.0018601041666666664
EXTRACT: note_off channel=4 note=91 velocity=0 time=0.17856999999999998
EXTRACT: note_off channel=4 note=103 velocity=0 time=0.0074404166666666655
EXTRACT: note_off channel=2 note=52 velocity=0 time=0.0018601041666666664
EXTRACT: note_off channel=4 note=98 velocity=0 time=0
EXTRACT: note_on channel=2 note=52 velocity=84 time=0.005580312499999999
EXTRACT: note_on channel=9 note=42 velocity=59 time=0
EXTRACT: note_off channel=9 note=42 velocity=0 time=0.0074404166666666655
EXTRACT: note_off channel=1 note=40 velocity=0 time=0.13578760416666666
EXTRACT: note_off channel=2 note=52 velocity=0 time=0
EXTRACT: note_on channel=1 note=42 velocity=102 time=0.005580312499999999
EXTRACT: note_on channel=2 note=54 velocity=93 time=0
EXTRACT: note_on channel=9 note=42 velocity=88 time=0
EXTRACT: note_on channel=9 note=40 velocity=107 time=0
EXTRACT: note_off channel=9 note=40 velocity=0 time=0.0074404166666666655
EXTRACT: note_off channel=9 note=42 velocity=0 time=0
EXTRACT: note_on channel=4 note=91 velocity=54 time=0.009300520833333333
EXTRACT: note_off channel=4 note=91 velocity=0 time=0.07998447916666665
EXTRACT: note_off channel=2 note=54 velocity=0 time=0.10602593749999999
EXTRACT: note_on channel=2 note=52 velocity=90 time=0.005580312499999999
EXTRACT: note_on channel=9 note=42 velocity=59 time=0
EXTRACT: note_off channel=9 note=42 velocity=0 time=0.0074404166666666655
EXTRACT: note_off channel=1 note=42 velocity=0 time=0.13578760416666666
EXTRACT: note_off channel=2 note=52 velocity=0 time=0
EXTRACT: note_on channel=1 note=33 velocity=100 time=0.005580312499999999
EXTRACT: note_on channel=2 note=45 velocity=92 time=0
EXTRACT: note_on channel=9 note=42 velocity=85 time=0
EXTRACT: note_on channel=9 note=35 velocity=108 time=0
EXTRACT: note_off channel=9 note=35 velocity=0 time=0.0074404166666666655
EXTRACT: note_off channel=9 note=42 velocity=0 time=0
EXTRACT: note_on channel=4 note=91 velocity=78 time=0.0018601041666666664
EXTRACT: note_on channel=4 note=98 velocity=80 time=0
EXTRACT: note_on channel=4 note=103 velocity=74 time=0.0037202083333333327
EXTRACT: note_off channel=4 note=91 velocity=0 time=0.12090677083333332
EXTRACT: note_off channel=4 note=103 velocity=0 time=0.029761666666666662
EXTRACT: note_off channel=4 note=98 velocity=0 time=0.005580312499999999
EXTRACT: note_off channel=2 note=45 velocity=0 time=0.033481874999999994
EXTRACT: note_on channel=2 note=45 velocity=92 time=0.005580312499999999
EXTRACT: note_on channel=9 note=42 velocity=56 time=0
EXTRACT: note_off channel=9 note=42 velocity=0 time=0.0074404166666666655
EXTRACT: note_on channel=3 note=67 velocity=113 time=0.0018601041666666664
EXTRACT: note_off channel=3 note=67 velocity=0 time=0.08370468749999999
EXTRACT: note_off channel=1 note=33 velocity=0 time=0.05022281249999999
EXTRACT: note_off channel=2 note=45 velocity=0 time=0
EXTRACT: note_on channel=1 note=37 velocity=94 time=0.005580312499999999
EXTRACT: note_on channel=2 note=49 velocity=84 time=0
EXTRACT: note_on channel=9 note=42 velocity=82 time=0
EXTRACT: note_on channel=9 note=40 velocity=107 time=0
EXTRACT: note_off channel=9 note=40 velocity=0 time=0.0074404166666666655
EXTRACT: note_off channel=9 note=42 velocity=0 time=0
EXTRACT: note_on channel=3 note=67 velocity=116 time=0.005580312499999999
EXTRACT: note_off channel=3 note=67 velocity=0 time=0.11718656249999998
EXTRACT: note_off channel=2 note=49 velocity=0 time=0.07254406249999999
EXTRACT: note_on channel=2 note=49 velocity=88 time=0.005580312499999999
EXTRACT: note_on channel=9 note=42 velocity=58 time=0
EXTRACT: note_off channel=9 note=42 velocity=0 time=0.0074404166666666655
EXTRACT: note_on channel=3 note=67 velocity=116 time=0.013020729166666665
EXTRACT: note_on channel=4 note=98 velocity=78 time=0.009300520833333333
EXTRACT: note_on channel=4 note=103 velocity=78 time=0
EXTRACT: note_on channel=4 note=91 velocity=78 time=0
EXTRACT: note_off channel=1 note=37 velocity=0 time=0.11346635416666664
EXTRACT: note_off channel=2 note=49 velocity=0 time=0
EXTRACT: note_on channel=1 note=40 velocity=103 time=0.005580312499999999
EXTRACT: note_on channel=2 note=52 velocity=90 time=0
EXTRACT: note_on channel=9 note=35 velocity=107 time=0
EXTRACT: note_on channel=9 note=42 velocity=86 time=0
EXTRACT: note_off channel=4 note=91 velocity=0 time=0.005580312499999999
EXTRACT: note_off channel=4 note=103 velocity=0 time=0
EXTRACT: note_off channel=4 note=98 velocity=0 time=0
EXTRACT: note_off channel=9 note=42 velocity=0 time=0.0018601041666666664
EXTRACT: note_off channel=9 note=35 velocity=0 time=0
EXTRACT: note_off channel=2 note=52 velocity=0 time=0.19531093749999998
EXTRACT: note_on channel=2 note=52 velocity=94 time=0.005580312499999999
EXTRACT: note_on channel=9 note=42 velocity=67 time=0
EXTRACT: note_off channel=9 note=42 velocity=0 time=0.0074404166666666655
EXTRACT: note_off channel=3 note=67 velocity=0 time=0.044642499999999995
EXTRACT: note_on channel=3 note=64 velocity=104 time=0.005580312499999999
EXTRACT: note_off channel=3 note=64 velocity=0 time=0.06324354166666665
EXTRACT: note_off channel=1 note=40 velocity=0 time=0.022321249999999997
EXTRACT: note_off channel=2 note=52 velocity=0 time=0
EXTRACT: note_on channel=4 note=91 velocity=62 time=0.0018601041666666664
EXTRACT: note_on channel=1 note=42 velocity=101 time=0.0037202083333333327
EXTRACT: note_on channel=2 note=54 velocity=88 time=0
EXTRACT: note_on channel=4 note=98 velocity=66 time=0
EXTRACT: note_on channel=9 note=42 velocity=86 time=0
EXTRACT: note_on channel=9 note=40 velocity=108 time=0
EXTRACT: note_on channel=4 note=103 velocity=58 time=0.0037202083333333327
EXTRACT: note_off channel=9 note=40 velocity=0 time=0.0037202083333333327
EXTRACT: note_off channel=9 note=42 velocity=0 time=0
EXTRACT: note_on channel=3 note=66 velocity=116 time=0.0074404166666666655
EXTRACT: note_off channel=4 note=91 velocity=0 time=0.05580312499999999
EXTRACT: note_off channel=4 note=98 velocity=0 time=0.009300520833333333
EXTRACT: note_off channel=4 note=103 velocity=0 time=0.0018601041666666664
EXTRACT: note_off channel=2 note=54 velocity=0 time=0.12090677083333332
EXTRACT: note_on channel=2 note=52 velocity=90 time=0.005580312499999999
EXTRACT: note_on channel=4 note=98 velocity=70 time=0
EXTRACT: note_on channel=4 note=91 velocity=66 time=0
EXTRACT: note_on channel=9 note=42 velocity=61 time=0
EXTRACT: note_on channel=4 note=103 velocity=66 time=0.0074404166666666655
EXTRACT: note_off channel=9 note=42 velocity=0 time=0
EXTRACT: note_off channel=4 note=91 velocity=0 time=0.05022281249999999
EXTRACT: note_off channel=4 note=103 velocity=0 time=0.005580312499999999
EXTRACT: note_off channel=4 note=98 velocity=0 time=0.009300520833333333
EXTRACT: note_off channel=3 note=66 velocity=0 time=0.05394302083333333
EXTRACT: note_off channel=1 note=42 velocity=0 time=0.009300520833333333
EXTRACT: note_on channel=3 note=64 velocity=113 time=0
EXTRACT: note_off channel=2 note=52 velocity=0 time=0.0074404166666666655
EXTRACT: note_on channel=1 note=28 velocity=104 time=0.005580312499999999
EXTRACT: note_on channel=2 note=40 velocity=94 time=0
EXTRACT: note_on channel=9 note=42 velocity=84 time=0
EXTRACT: note_on channel=9 note=35 velocity=107 time=0
EXTRACT: note_on channel=4 note=98 velocity=82 time=0.0037202083333333327
EXTRACT: note_on channel=4 note=91 velocity=78 time=0.0018601041666666664
EXTRACT: note_on channel=4 note=103 velocity=78 time=0.0018601041666666664
EXTRACT: note_off channel=9 note=35 velocity=0 time=0
EXTRACT: note_off channel=9 note=42 velocity=0 time=0
EXTRACT: note_off channel=4 note=103 velocity=0 time=0.09672541666666665
EXTRACT: note_off channel=4 note=91 velocity=0 time=0.014880833333333331
EXTRACT: note_off channel=4 note=98 velocity=0 time=0.0037202083333333327
EXTRACT: note_off channel=2 note=40 velocity=0 time=0.07998447916666665
EXTRACT: note_on channel=2 note=40 velocity=96 time=0.005580312499999999
EXTRACT: note_on channel=9 note=42 velocity=59 time=0
EXTRACT: note_on channel=4 note=100 velocity=80 time=0.0018601041666666664
EXTRACT: note_on channel=4 note=95 velocity=80 time=0.0018601041666666664
EXTRACT: note_on channel=4 note=88 velocity=78 time=0.0037202083333333327
EXTRACT: note_off channel=9 note=42 velocity=0 time=0
EXTRACT: note_off channel=4 note=95 velocity=0 time=0.059523333333333324
EXTRACT: note_off channel=4 note=100 velocity=0 time=0.0018601041666666664
EXTRACT: note_off channel=4 note=88 velocity=0 time=0.0074404166666666655
EXTRACT: note_off channel=1 note=28 velocity=0 time=0.06696374999999999
EXTRACT: note_off channel=2 note=40 velocity=0 time=0
EXTRACT: note_off channel=3 note=64 velocity=0 time=0.0018601041666666664
EXTRACT: note_on channel=1 note=32 velocity=100 time=0.0037202083333333327
EXTRACT: note_on channel=2 note=44 velocity=76 time=0
EXTRACT: note_on channel=9 note=42 velocity=88 time=0
EXTRACT: note_on channel=9 note=40 velocity=108 time=0
EXTRACT: note_off channel=9 note=40 velocity=0 time=0.0074404166666666655
EXTRACT: note_off channel=9 note=42 velocity=0 time=0
EXTRACT: note_on channel=4 note=98 velocity=80 time=0.0018601041666666664
EXTRACT: note_on channel=4 note=93 velocity=82 time=0.0018601041666666664
EXTRACT: note_on channel=4 note=86 velocity=82 time=0.0018601041666666664
EXTRACT: note_off channel=2 note=44 velocity=0 time=0.18973062499999996
EXTRACT: note_on channel=2 note=44 velocity=86 time=0.005580312499999999
EXTRACT: note_on channel=9 note=42 velocity=58 time=0
EXTRACT: note_off channel=9 note=42 velocity=0 time=0.0074404166666666655
EXTRACT: note_off channel=4 note=98 velocity=0 time=0.016740937499999997
EXTRACT: note_off channel=4 note=86 velocity=0 time=0.011160624999999999
EXTRACT: note_off channel=4 note=93 velocity=0 time=0
EXTRACT: note_off channel=1 note=32 velocity=0 time=0.10788604166666665
EXTRACT: note_off channel=2 note=44 velocity=0 time=0
EXTRACT: note_on channel=1 note=35 velocity=103 time=0.005580312499999999
EXTRACT: note_on channel=2 note=47 velocity=90 time=0
EXTRACT: note_on channel=4 note=88 velocity=66 time=0
EXTRACT: note_on channel=9 note=42 velocity=87 time=0
EXTRACT: note_on channel=9 note=35 velocity=108 time=0
EXTRACT: note_on channel=4 note=95 velocity=70 time=0.005580312499999999
EXTRACT: note_off channel=9 note=35 velocity=0 time=0.0018601041666666664
EXTRACT: note_off channel=9 note=42 velocity=0 time=0
EXTRACT: note_on channel=4 note=83 velocity=66 time=0.0018601041666666664
EXTRACT: note_off channel=2 note=47 velocity=0 time=0.1934508333333333
EXTRACT: note_on channel=2 note=47 velocity=86 time=0.005580312499999999
EXTRACT: note_on channel=9 note=42 velocity=57 time=0
EXTRACT: note_off channel=9 note=42 velocity=0 time=0.0074404166666666655
EXTRACT: note_off channel=4 note=95 velocity=0 time=0.05394302083333333
EXTRACT: note_off channel=4 note=88 velocity=0 time=0.009300520833333333
EXTRACT: note_off channel=4 note=83 velocity=0 time=0.009300520833333333
EXTRACT: note_on channel=4 note=81 velocity=92 time=0.04092229166666666
EXTRACT: note_off channel=1 note=35 velocity=0 time=0.0018601041666666664
EXTRACT: note_on channel=4 note=88 velocity=76 time=0
EXTRACT: note_on channel=4 note=93 velocity=68 time=0.0037202083333333327
EXTRACT: note_off channel=2 note=47 velocity=0 time=0.016740937499999997
EXTRACT: note_on channel=1 note=37 velocity=99 time=0.005580312499999999
EXTRACT: note_on channel=2 note=49 velocity=88 time=0
EXTRACT: note_on channel=9 note=40 velocity=107 time=0
EXTRACT: note_on channel=9 note=42 velocity=86 time=0
EXTRACT: note_off channel=9 note=42 velocity=0 time=0.0074404166666666655
EXTRACT: note_off channel=9 note=40 velocity=0 time=0
EXTRACT: note_off channel=4 note=93 velocity=0 time=0.11346635416666664
EXTRACT: note_off channel=2 note=49 velocity=0 time=0.08184458333333332
EXTRACT: note_off channel=4 note=88 velocity=0 time=0.0018601041666666664
EXTRACT: note_on channel=2 note=47 velocity=80 time=0.0037202083333333327
EXTRACT: note_on channel=9 note=42 velocity=63 time=0
EXTRACT: note_off channel=4 note=81 velocity=0 time=0.0074404166666666655
EXTRACT: note_off channel=9 note=42 velocity=0 time=0
EXTRACT: note_on channel=4 note=79 velocity=84 time=0.11346635416666664
EXTRACT: note_on channel=4 note=91 velocity=84 time=0.0037202083333333327
EXTRACT: note_on channel=4 note=86 velocity=76 time=0.005580312499999999
EXTRACT: note_off channel=1 note=37 velocity=0 time=0.013020729166666665
EXTRACT: note_off channel=2 note=47 velocity=0 time=0
EXTRACT: note_on channel=1 note=28 velocity=104 time=0.005580312499999999
EXTRACT: note_on channel=2 note=40 velocity=94 time=0
EXTRACT: note_on channel=9 note=42 velocity=85 time=0
EXTRACT: note_on channel=9 note=35 velocity=108 time=0
EXTRACT: note_off channel=9 note=35 velocity=0 time=0.0074404166666666655
EXTRACT: note_off channel=9 note=42 velocity=0 time=0
EXTRACT: note_on channel=4 note=92 velocity=84 time=0.0018601041666666664
EXTRACT: note_off channel=4 note=79 velocity=0 time=0.016740937499999997
EXTRACT: note_off channel=4 note=91 velocity=0 time=0.005580312499999999
EXTRACT: note_on channel=4 note=80 velocity=64 time=0.009300520833333333
EXTRACT: note_off channel=2 note=40 velocity=0 time=0.16182906249999998
EXTRACT: note_off channel=4 note=86 velocity=0 time=0.0018601041666666664
EXTRACT: note_on channel=2 note=40 velocity=94 time=0.0037202083333333327
EXTRACT: note_on channel=9 note=42 velocity=64 time=0
EXTRACT: note_off channel=9 note=42 velocity=0 time=0.0074404166666666655
EXTRACT: note_off channel=4 note=80 velocity=0 time=0.027901562499999994
EXTRACT: note_off channel=4 note=92 velocity=0 time=0.033481874999999994
EXTRACT: note_off channel=1 note=28 velocity=0 time=0.07440416666666666
EXTRACT: note_off channel=2 note=40 velocity=0 time=0
EXTRACT: note_on channel=1 note=32 velocity=100 time=0.005580312499999999
EXTRACT: note_on channel=2 note=44 velocity=80 time=0
EXTRACT: note_on channel=9 note=42 velocity=87 time=0
EXTRACT: note_on channel=9 note=40 velocity=107 time=0
EXTRACT: note_off channel=9 note=40 velocity=0 time=0.0074404166666666655
EXTRACT: note_off channel=9 note=42 velocity=0 time=0
EXTRACT: note_on channel=4 note=76 velocity=84 time=0.0037202083333333327
EXTRACT: note_on channel=4 note=88 velocity=88 time=0.0018601041666666664
EXTRACT: note_off channel=4 note=88 velocity=0 time=0.1264870833333333
EXTRACT: note_off channel=4 note=76 velocity=0 time=0.024181354166666662
EXTRACT: note_off channel=2 note=44 velocity=0 time=0.03906218749999999
EXTRACT: note_on channel=2 note=44 velocity=86 time=0.005580312499999999
EXTRACT: note_on channel=9 note=42 velocity=59 time=0
EXTRACT: note_off channel=9 note=42 velocity=0 time=0.0074404166666666655
EXTRACT: note_on channel=4 note=83 velocity=92 time=0.04092229166666666
EXTRACT: note_on channel=4 note=71 velocity=92 time=0.0018601041666666664
EXTRACT: note_off channel=1 note=32 velocity=0 time=0.09300520833333333
EXTRACT: note_off channel=2 note=44 velocity=0 time=0
EXTRACT: note_on channel=1 note=35 velocity=100 time=0.005580312499999999
EXTRACT: note_on channel=2 note=47 velocity=90 time=0
EXTRACT: note_on channel=9 note=35 velocity=107 time=0
EXTRACT: note_on channel=9 note=42 velocity=87 time=0
EXTRACT: note_off channel=9 note=42 velocity=0 time=0.0074404166666666655
EXTRACT: note_off channel=9 note=35 velocity=0 time=0
EXTRACT: note_off channel=4 note=71 velocity=0 time=0.07998447916666665
EXTRACT: note_off channel=4 note=83 velocity=0 time=0.03720208333333333
EXTRACT: note_on channel=4 note=71 velocity=64 time=0.014880833333333331
EXTRACT: note_off channel=2 note=47 velocity=0 time=0.06324354166666665
EXTRACT: note_on channel=2 note=47 velocity=90 time=0.005580312499999999
EXTRACT: note_on channel=9 note=42 velocity=58 time=0
EXTRACT: note_off channel=9 note=42 velocity=0 time=0.0074404166666666655
EXTRACT: note_on channel=4 note=83 velocity=72 time=0.0074404166666666655
EXTRACT: note_off channel=4 note=71 velocity=0 time=0.018601041666666665
EXTRACT: note_on channel=4 note=71 velocity=44 time=0.06510364583333332
EXTRACT: note_off channel=4 note=83 velocity=0 time=0.013020729166666665
EXTRACT: note_on channel=3 note=67 velocity=112 time=0.016740937499999997
EXTRACT: note_off channel=1 note=35 velocity=0 time=0.014880833333333331
EXTRACT: note_off channel=2 note=47 velocity=0 time=0
EXTRACT: note_on channel=1 note=37 velocity=98 time=0.005580312499999999
EXTRACT: note_on channel=2 note=49 velocity=88 time=0
EXTRACT: note_on channel=9 note=40 velocity=108 time=0
EXTRACT: note_on channel=9 note=42 velocity=85 time=0
EXTRACT: note_off channel=9 note=42 velocity=0 time=0.0074404166666666655
EXTRACT: note_off channel=9 note=40 velocity=0 time=0
EXTRACT: note_on channel=4 note=83 velocity=72 time=0.016740937499999997
EXTRACT: note_off channel=4 note=71 velocity=0 time=0.018601041666666665
EXTRACT: note_off channel=3 note=67 velocity=0 time=0.07998447916666665
EXTRACT: note_on channel=4 note=71 velocity=48 time=0.02604145833333333
EXTRACT: note_off channel=4 note=83 velocity=0 time=0.0018601041666666664
EXTRACT: note_on channel=3 note=67 velocity=109 time=0.048362708333333324
EXTRACT: note_off channel=2 note=49 velocity=0 time=0.0037202083333333327
EXTRACT: note_on channel=2 note=47 velocity=90 time=0.005580312499999999
EXTRACT: note_on channel=9 note=42 velocity=62 time=0
EXTRACT: note_off channel=9 note=42 velocity=0 time=0.0074404166666666655
EXTRACT: note_on channel=4 note=83 velocity=68 time=0.016740937499999997
EXTRACT: note_off channel=4 note=71 velocity=0 time=0.022321249999999997
EXTRACT: note_off channel=3 note=67 velocity=0 time=0.029761666666666662
EXTRACT: note_off channel=4 note=83 velocity=0 time=0.013020729166666665
EXTRACT: note_off channel=1 note=37 velocity=0 time=0.02604145833333333
EXTRACT: note_off channel=2 note=47 velocity=0 time=0.027901562499999994
EXTRACT: note_on channel=1 note=35 velocity=108 time=0.005580312499999999
EXTRACT: note_on channel=2 note=47 velocity=98 time=0
EXTRACT: note_on channel=3 note=66 velocity=112 time=0
EXTRACT: note_on channel=9 note=42 velocity=84 time=0
EXTRACT: note_on channel=9 note=35 velocity=107 time=0
EXTRACT: note_on channel=4 note=57 velocity=80 time=0.0074404166666666655
EXTRACT: note_off channel=9 note=35 velocity=0 time=0
EXTRACT: note_off channel=9 note=42 velocity=0 time=0
EXTRACT: note_on channel=4 note=63 velocity=84 time=0.0018601041666666664
EXTRACT: note_on channel=4 note=59 velocity=80 time=0
EXTRACT: note_off channel=3 note=66 velocity=0 time=0.14880833333333332
EXTRACT: note_off channel=2 note=47 velocity=0 time=0.044642499999999995
EXTRACT: note_on channel=3 note=66 velocity=109 time=0
EXTRACT: note_on channel=2 note=47 velocity=92 time=0.005580312499999999
EXTRACT: note_on channel=9 note=42 velocity=59 time=0
EXTRACT: note_off channel=9 note=42 velocity=0 time=0.0074404166666666655
EXTRACT: note_on channel=4 note=93 velocity=100 time=0.029761666666666662
EXTRACT: note_on channel=4 note=97 velocity=112 time=0
EXTRACT: note_off channel=3 note=66 velocity=0 time=0.057663229166666656
EXTRACT: note_off channel=1 note=35 velocity=0 time=0.018601041666666665
EXTRACT: note_off channel=2 note=47 velocity=0 time=0.029761666666666662
EXTRACT: note_on channel=3 note=66 velocity=110 time=0.0018601041666666664
EXTRACT: note_off channel=4 note=93 velocity=0 time=0.0018601041666666664
EXTRACT: note_on channel=1 note=39 velocity=106 time=0.0018601041666666664
EXTRACT: note_on channel=2 note=51 velocity=92 time=0
EXTRACT: note_on channel=9 note=42 velocity=88 time=0
EXTRACT: note_on channel=9 note=40 velocity=108 time=0
EXTRACT: note_on channel=4 note=92 velocity=84 time=0.0037202083333333327
EXTRACT: note_off channel=4 note=97 velocity=0 time=0.0037202083333333327
EXTRACT: note_off channel=9 note=40 velocity=0 time=0
EXTRACT: note_off channel=9 note=42 velocity=0 time=0
EXTRACT: note_on channel=4 note=95 velocity=72 time=0.0074404166666666655
EXTRACT: note_off channel=4 note=95 velocity=0 time=0.15810885416666665
EXTRACT: note_off channel=4 note=92 velocity=0 time=0.0074404166666666655
EXTRACT: note_off channel=2 note=51 velocity=0 time=0.022321249999999997
EXTRACT: note_on channel=2 note=51 velocity=92 time=0.005580312499999999
EXTRACT: note_on channel=9 note=42 velocity=58 time=0
EXTRACT: note_off channel=9 note=42 velocity=0 time=0.0074404166666666655
EXTRACT: note_on channel=4 note=97 velocity=76 time=0.014880833333333331
EXTRACT: note_on channel=4 note=93 velocity=40 time=0.005580312499999999
EXTRACT: note_off channel=3 note=66 velocity=0 time=0.0037202083333333327
EXTRACT: note_off channel=4 note=93 velocity=0 time=0.06510364583333332
EXTRACT: note_off channel=4 note=97 velocity=0 time=0.013020729166666665
EXTRACT: note_on channel=3 note=66 velocity=112 time=0.031621770833333326
EXTRACT: note_off channel=1 note=39 velocity=0 time=0.0018601041666666664
EXTRACT: note_off channel=2 note=51 velocity=0 time=0
EXTRACT: note_on channel=1 note=42 velocity=104 time=0.005580312499999999
EXTRACT: note_on channel=2 note=54 velocity=90 time=0
EXTRACT: note_on channel=9 note=42 velocity=87 time=0
EXTRACT: note_on channel=9 note=35 velocity=108 time=0
EXTRACT: note_off channel=9 note=35 velocity=0 time=0.0074404166666666655
EXTRACT: note_off channel=9 note=42 velocity=0 time=0
EXTRACT: note_on channel=4 note=92 velocity=84 time=0.011160624999999999
EXTRACT: note_on channel=4 note=95 velocity=72 time=0.005580312499999999
EXTRACT: note_off channel=4 note=57 velocity=0 time=0.044642499999999995
EXTRACT: note_off channel=4 note=59 velocity=0 time=0.0018601041666666664
EXTRACT: note_off channel=4 note=63 velocity=0 time=0.0074404166666666655
EXTRACT: note_off channel=2 note=54 velocity=0 time=0.12462697916666665
EXTRACT: note_on channel=2 note=54 velocity=88 time=0.005580312499999999
EXTRACT: note_on channel=9 note=42 velocity=57 time=0
EXTRACT: note_off channel=9 note=42 velocity=0 time=0.0074404166666666655
EXTRACT: note_on channel=4 note=57 velocity=60 time=0.018601041666666665
EXTRACT: note_on channel=4 note=59 velocity=64 time=0.0018601041666666664
EXTRACT: note_on channel=4 note=63 velocity=76 time=0
EXTRACT: note_off channel=3 note=66 velocity=0 time=0.005580312499999999
EXTRACT: note_off channel=4 note=59 velocity=0 time=0.07068395833333332
EXTRACT: note_off channel=4 note=63 velocity=0 time=0.0018601041666666664
EXTRACT: note_off channel=4 note=57 velocity=0 time=0.0037202083333333327
EXTRACT: note_off channel=1 note=42 velocity=0 time=0.005580312499999999
EXTRACT: note_off channel=2 note=54 velocity=0 time=0.027901562499999994
EXTRACT: note_on channel=3 note=66 velocity=108 time=0
EXTRACT: note_on channel=1 note=44 velocity=104 time=0.005580312499999999
EXTRACT: note_on channel=2 note=56 velocity=96 time=0
EXTRACT: note_on channel=9 note=40 velocity=107 time=0
EXTRACT: note_on channel=9 note=42 velocity=86 time=0
EXTRACT: note_off channel=9 note=42 velocity=0 time=0.0074404166666666655
EXTRACT: note_off channel=9 note=40 velocity=0 time=0
EXTRACT: note_off channel=3 note=66 velocity=0 time=0.14136791666666665
EXTRACT: note_off channel=2 note=56 velocity=0 time=0.05394302083333333
EXTRACT: note_on channel=3 note=67 velocity=112 time=0
EXTRACT: note_on channel=2 note=54 velocity=82 time=0.005580312499999999
EXTRACT: note_on channel=9 note=42 velocity=63 time=0
EXTRACT: note_off channel=9 note=42 velocity=0 time=0.0074404166666666655
EXTRACT: note_off channel=4 note=92 velocity=0 time=0.0037202083333333327
EXTRACT: note_off channel=4 note=95 velocity=0 time=0.0037202083333333327
EXTRACT: note_on channel=4 note=61 velocity=92 time=0.0074404166666666655
EXTRACT: note_on channel=4 note=55 velocity=92 time=0
EXTRACT: note_on channel=4 note=57 velocity=84 time=0.0018601041666666664
EXTRACT: note_on channel=4 note=59 velocity=88 time=0.0018601041666666664
EXTRACT: note_off channel=1 note=44 velocity=0 time=0.11718656249999998
EXTRACT: note_off channel=2 note=54 velocity=0 time=0
EXTRACT: note_on channel=1 note=33 velocity=103 time=0.005580312499999999
EXTRACT: note_on channel=2 note=45 velocity=98 time=0
EXTRACT: note_on channel=9 note=35 velocity=108 time=0
EXTRACT: note_on channel=9 note=42 velocity=85 time=0
EXTRACT: note_off channel=9 note=42 velocity=0 time=0.0074404166666666655
EXTRACT: note_off channel=9 note=35 velocity=0 time=0
EXTRACT: note_off channel=3 note=67 velocity=0 time=0.17856999999999998
EXTRACT: note_off channel=2 note=45 velocity=0 time=0.016740937499999997
EXTRACT: note_on channel=2 note=45 velocity=100 time=0.005580312499999999
EXTRACT: note_on channel=9 note=42 velocity=64 time=0
EXTRACT: note_off channel=9 note=42 velocity=0 time=0.0074404166666666655
EXTRACT: note_off channel=1 note=33 velocity=0 time=0.13578760416666666
EXTRACT: note_off channel=2 note=45 velocity=0 time=0
EXTRACT: note_on channel=1 note=37 velocity=103 time=0.005580312499999999
EXTRACT: note_on channel=2 note=49 velocity=88 time=0
EXTRACT: note_on channel=9 note=40 velocity=107 time=0
EXTRACT: note_on channel=9 note=42 velocity=87 time=0
EXTRACT: note_on channel=4 note=95 velocity=96 time=0.0037202083333333327
EXTRACT: note_on channel=4 note=91 velocity=76 time=0
EXTRACT: note_off channel=9 note=42 velocity=0 time=0.0037202083333333327
EXTRACT: note_off channel=9 note=40 velocity=0 time=0
EXTRACT: note_off channel=2 note=49 velocity=0 time=0.19531093749999998
EXTRACT: note_on channel=2 note=49 velocity=92 time=0.005580312499999999
EXTRACT: note_on channel=9 note=42 velocity=59 time=0
EXTRACT: note_off channel=9 note=42 velocity=0 time=0.0074404166666666655
EXTRACT: note_off channel=4 note=95 velocity=0 time=0.08184458333333332
EXTRACT: note_off channel=4 note=91 velocity=0 time=0.027901562499999994
EXTRACT: note_off channel=1 note=37 velocity=0 time=0.02604145833333333
EXTRACT: note_off channel=2 note=49 velocity=0 time=0
EXTRACT: note_off channel=4 note=59 velocity=0 time=0.0018601041666666664
EXTRACT: note_on channel=1 note=40 velocity=106 time=0.0037202083333333327
EXTRACT: note_on channel=2 note=52 velocity=90 time=0
EXTRACT: note_on channel=9 note=35 velocity=107 time=0
EXTRACT: note_on channel=9 note=42 velocity=87 time=0
EXTRACT: note_off channel=4 note=55 velocity=0 time=0.0037202083333333327
EXTRACT: note_on channel=4 note=93 velocity=76 time=0.0018601041666666664
EXTRACT: note_on channel=4 note=90 velocity=80 time=0
EXTRACT: note_off channel=9 note=42 velocity=0 time=0.0018601041666666664
EXTRACT: note_off channel=9 note=35 velocity=0 time=0
EXTRACT: note_off channel=4 note=57 velocity=0 time=0.0018601041666666664
EXTRACT: note_off channel=4 note=61 velocity=0 time=0.0037202083333333327
EXTRACT: note_off channel=2 note=52 velocity=0 time=0.18973062499999996
EXTRACT: note_off channel=4 note=90 velocity=0 time=0.0018601041666666664
EXTRACT: note_off channel=4 note=93 velocity=0 time=0.0018601041666666664
EXTRACT: note_on channel=2 note=52 velocity=90 time=0.0018601041666666664
EXTRACT: note_on channel=9 note=42 velocity=58 time=0
EXTRACT: note_off channel=9 note=42 velocity=0 time=0.0074404166666666655
EXTRACT: note_on channel=4 note=88 velocity=92 time=0.009300520833333333
EXTRACT: note_on channel=4 note=91 velocity=76 time=0.0037202083333333327
EXTRACT: note_off channel=1 note=40 velocity=0 time=0.07998447916666665
EXTRACT: note_on channel=3 note=67 velocity=105 time=0.029761666666666662
EXTRACT: note_off channel=2 note=52 velocity=0 time=0.013020729166666665
EXTRACT: note_on channel=1 note=42 velocity=103 time=0.005580312499999999
EXTRACT: note_on channel=2 note=54 velocity=80 time=0
EXTRACT: note_on channel=9 note=40 velocity=108 time=0
EXTRACT: note_on channel=9 note=42 velocity=85 time=0
EXTRACT: note_off channel=9 note=42 velocity=0 time=0.0074404166666666655
EXTRACT: note_off channel=9 note=40 velocity=0 time=0
EXTRACT: note_off channel=3 note=67 velocity=0 time=0.11532645833333331
EXTRACT: note_off channel=4 note=91 velocity=0 time=0.02046114583333333
EXTRACT: note_off channel=4 note=88 velocity=0 time=0.02046114583333333
EXTRACT: note_off channel=2 note=54 velocity=0 time=0.03906218749999999
EXTRACT: note_on channel=2 note=52 velocity=90 time=0.005580312499999999
EXTRACT: note_on channel=9 note=42 velocity=62 time=0
EXTRACT: note_off channel=9 note=42 velocity=0 time=0.0074404166666666655
EXTRACT: note_on channel=3 note=67 velocity=107 time=0.0074404166666666655
EXTRACT: note_on channel=4 note=56 velocity=56 time=0.12462697916666665
EXTRACT: note_on channel=4 note=52 velocity=63 time=0.0018601041666666664
EXTRACT: note_on channel=4 note=59 velocity=65 time=0
EXTRACT: note_off channel=1 note=42 velocity=0 time=0.0018601041666666664
EXTRACT: note_off channel=2 note=52 velocity=0 time=0
EXTRACT: note_on channel=4 note=61 velocity=61 time=0
EXTRACT: note_on channel=1 note=28 velocity=106 time=0.005580312499999999
EXTRACT: note_on channel=2 note=40 velocity=96 time=0
EXTRACT: note_on channel=9 note=35 velocity=107 time=0
EXTRACT: note_on channel=9 note=42 velocity=84 time=0
EXTRACT: note_off channel=9 note=42 velocity=0 time=0.0074404166666666655
EXTRACT: note_off channel=9 note=35 velocity=0 time=0
EXTRACT: note_off channel=3 note=67 velocity=0 time=0.09858552083333331
EXTRACT: note_on channel=3 note=64 velocity=106 time=0.09300520833333333
EXTRACT: note_off channel=2 note=40 velocity=0 time=0.0037202083333333327
EXTRACT: note_on channel=2 note=40 velocity=96 time=0.005580312499999999
EXTRACT: note_on channel=9 note=42 velocity=59 time=0
EXTRACT: note_off channel=9 note=42 velocity=0 time=0.0074404166666666655
EXTRACT: note_on channel=4 note=78 velocity=52 time=0.0018601041666666664
EXTRACT: note_off channel=3 note=64 velocity=0 time=0.06696374999999999
EXTRACT: note_off channel=4 note=78 velocity=0 time=0.013020729166666665
EXTRACT: note_on channel=4 note=79 velocity=84 time=0.014880833333333331
EXTRACT: note_on channel=4 note=83 velocity=48 time=0.02046114583333333
EXTRACT: note_off channel=1 note=28 velocity=0 time=0.018601041666666665
EXTRACT: note_off channel=2 note=40 velocity=0 time=0
EXTRACT: note_on channel=1 note=32 velocity=101 time=0.005580312499999999
EXTRACT: note_on channel=2 note=44 velocity=78 time=0
EXTRACT: note_on channel=9 note=42 velocity=88 time=0
EXTRACT: note_on channel=9 note=40 velocity=108 time=0
EXTRACT: note_on channel=4 note=80 velocity=68 time=0.0074404166666666655
EXTRACT: note_off channel=9 note=40 velocity=0 time=0
EXTRACT: note_off channel=9 note=42 velocity=0 time=0
EXTRACT: note_on channel=3 note=64 velocity=110 time=0.0018601041666666664
EXTRACT: note_off channel=4 note=79 velocity=0 time=0.005580312499999999
EXTRACT: note_off channel=4 note=83 velocity=0 time=0.16740937499999997
EXTRACT: note_off channel=3 note=64 velocity=0 time=0.0018601041666666664
EXTRACT: note_off channel=2 note=44 velocity=0 time=0.018601041666666665
EXTRACT: note_on channel=2 note=44 velocity=84 time=0.005580312499999999
EXTRACT: note_on channel=9 note=42 velocity=58 time=0
EXTRACT: note_on channel=4 note=85 velocity=84 time=0.0037202083333333327
EXTRACT: note_off channel=9 note=42 velocity=0 time=0.0037202083333333327
EXTRACT: note_off channel=4 note=80 velocity=0 time=0.005580312499999999
EXTRACT: note_off channel=4 note=52 velocity=0 time=0.0018601041666666664
EXTRACT: note_off channel=4 note=59 velocity=0 time=0.0018601041666666664
EXTRACT: note_on channel=3 note=62 velocity=104 time=0.0037202083333333327
EXTRACT: note_off channel=4 note=56 velocity=0 time=0.0018601041666666664
EXTRACT: note_off channel=4 note=61 velocity=0 time=0.0037202083333333327
EXTRACT: note_off channel=3 note=62 velocity=0 time=0.057663229166666656
EXTRACT: note_on channel=4 note=83 velocity=72 time=0.033481874999999994
EXTRACT: note_off channel=1 note=32 velocity=0 time=0.02604145833333333
EXTRACT: note_off channel=2 note=44 velocity=0 time=0
EXTRACT: note_on channel=3 note=64 velocity=109 time=0.0018601041666666664
EXTRACT: note_on channel=1 note=35 velocity=105 time=0.0037202083333333327
EXTRACT: note_on channel=2 note=47 velocity=88 time=0
EXTRACT: note_on channel=9 note=35 velocity=108 time=0
EXTRACT: note_on channel=9 note=42 velocity=87 time=0
EXTRACT: note_off channel=4 note=85 velocity=0 time=0.0018601041666666664
EXTRACT: note_off channel=9 note=42 velocity=0 time=0.005580312499999999
EXTRACT: note_off channel=9 note=35 velocity=0 time=0
EXTRACT: note_off channel=2 note=47 velocity=0 time=0.19531093749999998
EXTRACT: note_on channel=2 note=47 velocity=88 time=0.005580312499999999
EXTRACT: note_off channel=4 note=83 velocity=0 time=0
EXTRACT: note_on channel=9 note=42 velocity=57 time=0
EXTRACT: note_off channel=9 note=42 velocity=0 time=0.0074404166666666655
EXTRACT: note_on channel=4 note=78 velocity=52 time=0.0018601041666666664
EXTRACT: note_off channel=3 note=64 velocity=0 time=0.05580312499999999
EXTRACT: note_off channel=4 note=78 velocity=0 time=0.016740937499999997
EXTRACT: note_on channel=4 note=79 velocity=80 time=0.03720208333333333
EXTRACT: note_on channel=4 note=83 velocity=68 time=0.009300520833333333
EXTRACT: note_off channel=1 note=35 velocity=0 time=0.014880833333333331
EXTRACT: note_off channel=2 note=47 velocity=0 time=0
EXTRACT: note_on channel=3 note=64 velocity=109 time=0
EXTRACT: note_on channel=1 note=37 velocity=99 time=0.005580312499999999
EXTRACT: note_on channel=2 note=49 velocity=88 time=0
EXTRACT: note_on channel=9 note=40 velocity=107 time=0
EXTRACT: note_on channel=9 note=42 velocity=86 time=0
EXTRACT: note_off channel=9 note=42 velocity=0 time=0.0074404166666666655
EXTRACT: note_off channel=9 note=40 velocity=0 time=0
EXTRACT: note_on channel=4 note=80 velocity=68 time=0.016740937499999997
EXTRACT: note_off channel=4 note=79 velocity=0 time=0.033481874999999994
EXTRACT: note_off channel=3 note=64 velocity=0 time=0.10974614583333332
EXTRACT: note_off channel=2 note=49 velocity=0 time=0.03534197916666666
EXTRACT: note_on channel=2 note=47 velocity=86 time=0.005580312499999999
EXTRACT: note_on channel=9 note=42 velocity=63 time=0
EXTRACT: note_off channel=4 note=83 velocity=0 time=0.0074404166666666655
EXTRACT: note_off channel=9 note=42 velocity=0 time=0
EXTRACT: note_on channel=4 note=85 velocity=52 time=0.014880833333333331
EXTRACT: note_on channel=3 note=64 velocity=106 time=0.0018601041666666664
EXTRACT: note_off channel=4 note=80 velocity=0 time=0.011160624999999999
EXTRACT: note_off channel=1 note=37 velocity=0 time=0.10416583333333332
EXTRACT: note_off channel=4 note=85 velocity=0 time=0.0018601041666666664
EXTRACT: note_off channel=2 note=47 velocity=0 time=0.0018601041666666664
EXTRACT: note_on channel=1 note=28 velocity=106 time=0.005580312499999999
EXTRACT: note_on channel=2 note=40 velocity=96 time=0
EXTRACT: note_on channel=9 note=35 velocity=107 time=0
EXTRACT: note_on channel=9 note=42 velocity=84 time=0
EXTRACT: note_on channel=4 note=83 velocity=56 time=0.0074404166666666655
EXTRACT: note_off channel=9 note=42 velocity=0 time=0
EXTRACT: note_off channel=9 note=35 velocity=0 time=0
EXTRACT: note_off channel=3 note=64 velocity=0 time=0.13578760416666666
EXTRACT: note_off channel=2 note=40 velocity=0 time=0.059523333333333324
EXTRACT: note_on channel=2 note=40 velocity=96 time=0.005580312499999999
EXTRACT: note_on channel=9 note=42 velocity=59 time=0
EXTRACT: note_off channel=9 note=42 velocity=0 time=0.0074404166666666655
EXTRACT: note_off channel=4 note=83 velocity=0 time=0.024181354166666662
EXTRACT: note_on channel=4 note=79 velocity=76 time=0.10974614583333332
EXTRACT: note_off channel=1 note=28 velocity=0 time=0.0018601041666666664
EXTRACT: note_off channel=2 note=40 velocity=0 time=0
EXTRACT: note_on channel=1 note=32 velocity=101 time=0.005580312499999999
EXTRACT: note_on channel=2 note=44 velocity=78 time=0
EXTRACT: note_on channel=9 note=42 velocity=88 time=0
EXTRACT: note_on channel=9 note=40 velocity=108 time=0
EXTRACT: note_on channel=4 note=83 velocity=64 time=0.0037202083333333327
EXTRACT: note_off channel=9 note=40 velocity=0 time=0.0037202083333333327
EXTRACT: note_off channel=9 note=42 velocity=0 time=0
EXTRACT: note_on channel=4 note=80 velocity=64 time=0.03720208333333333
EXTRACT: note_off channel=4 note=79 velocity=0 time=0.027901562499999994
EXTRACT: note_off channel=2 note=44 velocity=0 time=0.13020729166666664
EXTRACT: note_on channel=2 note=44 velocity=84 time=0.005580312499999999
EXTRACT: note_on channel=9 note=42 velocity=58 time=0
EXTRACT: note_off channel=9 note=42 velocity=0 time=0.0074404166666666655
EXTRACT: note_off channel=4 note=80 velocity=0 time=0.0037202083333333327
EXTRACT: note_off channel=4 note=83 velocity=0 time=0.014880833333333331
EXTRACT: note_on channel=4 note=85 velocity=60 time=0.0074404166666666655
EXTRACT: note_off channel=1 note=32 velocity=0 time=0.10974614583333332
EXTRACT: note_off channel=2 note=44 velocity=0 time=0
EXTRACT: note_on channel=1 note=35 velocity=105 time=0.005580312499999999
EXTRACT: note_on channel=2 note=47 velocity=88 time=0
EXTRACT: note_on channel=9 note=35 velocity=108 time=0
EXTRACT: note_on channel=9 note=42 velocity=87 time=0
EXTRACT: note_off channel=9 note=42 velocity=0 time=0.0074404166666666655
EXTRACT: note_off channel=9 note=35 velocity=0 time=0
EXTRACT: note_on channel=4 note=83 velocity=64 time=0.011160624999999999
EXTRACT: note_off channel=4 note=85 velocity=0 time=0.014880833333333331
EXTRACT: note_off channel=2 note=47 velocity=0 time=0.16926947916666665
EXTRACT: note_on channel=2 note=47 velocity=88 time=0.005580312499999999
EXTRACT: note_on channel=9 note=42 velocity=57 time=0
EXTRACT: note_on channel=4 note=67 velocity=96 time=0.0074404166666666655
EXTRACT: note_off channel=9 note=42 velocity=0 time=0
EXTRACT: note_on channel=4 note=58 velocity=100 time=0.0018601041666666664
EXTRACT: note_on channel=4 note=63 velocity=108 time=0
EXTRACT: note_off channel=4 note=83 velocity=0 time=0.03906218749999999
EXTRACT: note_on channel=3 note=67 velocity=105 time=0.08184458333333332
EXTRACT: note_off channel=1 note=35 velocity=0 time=0.013020729166666665
EXTRACT: note_off channel=2 note=47 velocity=0 time=0
EXTRACT: note_on channel=1 note=37 velocity=99 time=0.005580312499999999
EXTRACT: note_on channel=2 note=49 velocity=88 time=0
EXTRACT: note_on channel=9 note=40 velocity=107 time=0
EXTRACT: note_on channel=9 note=42 velocity=86 time=0
EXTRACT: note_off channel=9 note=42 velocity=0 time=0.0074404166666666655
EXTRACT: note_off channel=9 note=40 velocity=0 time=0
EXTRACT: note_off channel=3 note=67 velocity=0 time=0.11532645833333331
EXTRACT: note_off channel=2 note=49 velocity=0 time=0.07998447916666665
EXTRACT: note_on channel=2 note=47 velocity=86 time=0.005580312499999999
EXTRACT: note_on channel=9 note=42 velocity=63 time=0
EXTRACT: note_off channel=9 note=42 velocity=0 time=0.0074404166666666655
EXTRACT: note_on channel=3 note=67 velocity=107 time=0.0074404166666666655
EXTRACT: note_off channel=4 note=67 velocity=0 time=0.09486531249999998
EXTRACT: note_off channel=4 note=58 velocity=0 time=0.009300520833333333
EXTRACT: note_off channel=4 note=63 velocity=0 time=0.0074404166666666655
EXTRACT: note_off channel=1 note=37 velocity=0 time=0.013020729166666665
EXTRACT: note_off channel=2 note=47 velocity=0 time=0.0037202083333333327
EXTRACT: note_on channel=1 note=28 velocity=106 time=0.005580312499999999
EXTRACT: note_on channel=2 note=40 velocity=96 time=0
EXTRACT: note_on channel=9 note=35 velocity=107 time=0
EXTRACT: note_on channel=9 note=42 velocity=84 time=0
EXTRACT: note_on channel=4 note=64 velocity=84 time=0.005580312499999999
EXTRACT: note_on channel=4 note=59 velocity=72 time=0.0018601041666666664
EXTRACT: note_off channel=9 note=42 velocity=0 time=0
EXTRACT: note_off channel=9 note=35 velocity=0 time=0
EXTRACT: note_on channel=4 note=68 velocity=84 time=0.0018601041666666664
EXTRACT: note_off channel=3 note=67 velocity=0 time=0.09672541666666665
EXTRACT: note_on channel=3 note=64 velocity=106 time=0.09300520833333333
EXTRACT: note_off channel=2 note=40 velocity=0 time=0.0037202083333333327
EXTRACT: note_on channel=2 note=40 velocity=96 time=0.005580312499999999
EXTRACT: note_on channel=9 note=42 velocity=59 time=0
EXTRACT: note_off channel=9 note=42 velocity=0 time=0.0074404166666666655
EXTRACT: note_off channel=3 note=64 velocity=0 time=0.06882385416666666
EXTRACT: note_off channel=1 note=28 velocity=0 time=0.06696374999999999
EXTRACT: note_off channel=2 note=40 velocity=0 time=0
EXTRACT: note_on channel=1 note=32 velocity=101 time=0.005580312499999999
EXTRACT: note_on channel=2 note=44 velocity=78 time=0
EXTRACT: note_on channel=9 note=40 velocity=108 time=0
EXTRACT: note_on channel=9 note=42 velocity=88 time=0
EXTRACT: note_off channel=9 note=42 velocity=0 time=0.0074404166666666655
EXTRACT: note_off channel=9 note=40 velocity=0 time=0
EXTRACT: note_on channel=3 note=64 velocity=110 time=0.0018601041666666664
EXTRACT: note_off channel=3 note=64 velocity=0 time=0.17484979166666664
EXTRACT: note_off channel=2 note=44 velocity=0 time=0.018601041666666665
EXTRACT: note_on channel=2 note=44 velocity=84 time=0.005580312499999999
EXTRACT: note_on channel=9 note=42 velocity=58 time=0
EXTRACT: note_off channel=9 note=42 velocity=0 time=0.0074404166666666655
EXTRACT: note_on channel=3 note=62 velocity=104 time=0.013020729166666665
EXTRACT: note_off channel=3 note=62 velocity=0 time=0.06324354166666665
EXTRACT: note_off channel=1 note=32 velocity=0 time=0.059523333333333324
EXTRACT: note_off channel=2 note=44 velocity=0 time=0
EXTRACT: note_on channel=3 note=64 velocity=109 time=0.0018601041666666664
EXTRACT: note_on channel=1 note=35 velocity=105 time=0.0037202083333333327
EXTRACT: note_on channel=2 note=47 velocity=88 time=0
EXTRACT: note_on channel=9 note=35 velocity=108 time=0
EXTRACT: note_on channel=9 note=42 velocity=87 time=0
EXTRACT: note_off channel=9 note=42 velocity=0 time=0.0074404166666666655
EXTRACT: note_off channel=9 note=35 velocity=0 time=0
EXTRACT: note_off channel=2 note=47 velocity=0 time=0.19531093749999998
EXTRACT: note_on channel=2 note=47 velocity=88 time=0.005580312499999999
EXTRACT: note_on channel=9 note=42 velocity=57 time=0
EXTRACT: note_off channel=9 note=42 velocity=0 time=0.0074404166666666655
EXTRACT: note_off channel=3 note=64 velocity=0 time=0.057663229166666656
EXTRACT: note_off channel=1 note=35 velocity=0 time=0.07812437499999998
EXTRACT: note_off channel=2 note=47 velocity=0 time=0
EXTRACT: note_on channel=3 note=64 velocity=109 time=0
EXTRACT: note_on channel=1 note=37 velocity=99 time=0.005580312499999999
EXTRACT: note_on channel=2 note=49 velocity=88 time=0
EXTRACT: note_on channel=9 note=40 velocity=107 time=0
EXTRACT: note_on channel=9 note=42 velocity=86 time=0
EXTRACT: note_off channel=9 note=42 velocity=0 time=0.0074404166666666655
EXTRACT: note_off channel=9 note=40 velocity=0 time=0
EXTRACT: note_off channel=3 note=64 velocity=0 time=0.1599689583333333
EXTRACT: note_off channel=2 note=49 velocity=0 time=0.03534197916666666
EXTRACT: note_on channel=2 note=47 velocity=86 time=0.005580312499999999
EXTRACT: note_on channel=9 note=42 velocity=63 time=0
EXTRACT: note_off channel=9 note=42 velocity=0 time=0.0074404166666666655
EXTRACT: note_on channel=3 note=64 velocity=106 time=0.016740937499999997
EXTRACT: note_off channel=1 note=37 velocity=0 time=0.11532645833333331
EXTRACT: note_off channel=2 note=47 velocity=0 time=0.0037202083333333327
EXTRACT: note_on channel=1 note=28 velocity=106 time=0.005580312499999999
EXTRACT: note_on channel=2 note=40 velocity=96 time=0
EXTRACT: note_on channel=9 note=42 velocity=84 time=0
EXTRACT: note_on channel=9 note=35 velocity=107 time=0
EXTRACT: note_off channel=4 note=59 velocity=0 time=0.0037202083333333327
EXTRACT: note_off channel=9 note=35 velocity=0 time=0.0037202083333333327
EXTRACT: note_off channel=9 note=42 velocity=0 time=0
EXTRACT: note_off channel=4 note=64 velocity=0 time=0.018601041666666665
EXTRACT: note_off channel=4 note=68 velocity=0 time=0.024181354166666662
EXTRACT: note_off channel=3 note=64 velocity=0 time=0.09300520833333333
EXTRACT: note_off channel=2 note=40 velocity=0 time=0.059523333333333324
EXTRACT: note_on channel=2 note=40 velocity=96 time=0.005580312499999999
EXTRACT: note_on channel=9 note=42 velocity=59 time=0
EXTRACT: note_off channel=9 note=42 velocity=0 time=0.0074404166666666655
EXTRACT: note_off channel=1 note=28 velocity=0 time=0.13578760416666666
EXTRACT: note_off channel=2 note=40 velocity=0 time=0
EXTRACT: note_on channel=1 note=32 velocity=101 time=0.005580312499999999
EXTRACT: note_on channel=2 note=44 velocity=78 time=0
EXTRACT: note_on channel=9 note=42 velocity=88 time=0
EXTRACT: note_on channel=9 note=40 velocity=108 time=0
EXTRACT: note_off channel=9 note=40 velocity=0 time=0.0074404166666666655
EXTRACT: note_off channel=9 note=42 velocity=0 time=0
EXTRACT: note_off channel=2 note=44 velocity=0 time=0.19531093749999998
EXTRACT: note_on channel=2 note=44 velocity=84 time=0.005580312499999999
EXTRACT: note_on channel=9 note=42 velocity=58 time=0
EXTRACT: note_off channel=9 note=42 velocity=0 time=0.0074404166666666655
EXTRACT: note_off channel=1 note=32 velocity=0 time=0.13578760416666666
EXTRACT: note_off channel=2 note=44 velocity=0 time=0
EXTRACT: note_on channel=1 note=35 velocity=105 time=0.005580312499999999
EXTRACT: note_on channel=2 note=47 velocity=88 time=0
EXTRACT: note_on channel=9 note=35 velocity=108 time=0
EXTRACT: note_on channel=9 note=42 velocity=87 time=0
EXTRACT: note_off channel=9 note=42 velocity=0 time=0.0074404166666666655
EXTRACT: note_off channel=9 note=35 velocity=0 time=0
EXTRACT: control_change channel=1 control=7 value=95 time=0.15066843749999997
EXTRACT: control_change channel=9 control=7 value=113 time=0
EXTRACT: control_change channel=4 control=7 value=95 time=0.009300520833333333
EXTRACT: control_change channel=3 control=7 value=95 time=0.009300520833333333
EXTRACT: control_change channel=2 control=7 value=81 time=0.0074404166666666655
EXTRACT: note_off channel=2 note=47 velocity=0 time=0.018601041666666665
EXTRACT: note_on channel=2 note=47 velocity=88 time=0.005580312499999999
EXTRACT: note_on channel=9 note=42 velocity=57 time=0
EXTRACT: note_off channel=9 note=42 velocity=0 time=0.0074404166666666655
EXTRACT: note_on channel=4 note=63 velocity=112 time=0.022321249999999997
EXTRACT: note_on channel=4 note=58 velocity=100 time=0
EXTRACT: note_on channel=4 note=67 velocity=100 time=0
EXTRACT: note_on channel=3 note=67 velocity=105 time=0.10044562499999998
EXTRACT: note_off channel=1 note=35 velocity=0 time=0.013020729166666665
EXTRACT: note_off channel=2 note=47 velocity=0 time=0
EXTRACT: note_on channel=1 note=37 velocity=99 time=0.005580312499999999
EXTRACT: note_on channel=2 note=49 velocity=88 time=0
EXTRACT: note_on channel=9 note=40 velocity=107 time=0
EXTRACT: note_on channel=9 note=42 velocity=86 time=0
EXTRACT: note_off channel=9 note=42 velocity=0 time=0.0074404166666666655
EXTRACT: note_off channel=9 note=40 velocity=0 time=0
EXTRACT: note_off channel=3 note=67 velocity=0 time=0.11532645833333331
EXTRACT: note_off channel=2 note=49 velocity=0 time=0.07998447916666665
EXTRACT: note_on channel=2 note=47 velocity=86 time=0.005580312499999999
EXTRACT: note_on channel=9 note=42 velocity=63 time=0
EXTRACT: note_off channel=9 note=42 velocity=0 time=0.0074404166666666655
EXTRACT: note_on channel=3 note=67 velocity=107 time=0.0074404166666666655
EXTRACT: control_change channel=1 control=7 value=87 time=0.04650260416666666
EXTRACT: control_change channel=9 control=7 value=104 time=0
EXTRACT: control_change channel=4 control=7 value=87 time=0.0074404166666666655
EXTRACT: control_change channel=3 control=7 value=87 time=0.009300520833333333
EXTRACT: control_change channel=2 control=7 value=72 time=0.009300520833333333
EXTRACT: note_off channel=4 note=58 velocity=0 time=0.005580312499999999
EXTRACT: note_off channel=1 note=37 velocity=0 time=0.04650260416666666
EXTRACT: note_off channel=4 note=63 velocity=0 time=0
EXTRACT: note_off channel=2 note=47 velocity=0 time=0.0037202083333333327
EXTRACT: note_off channel=4 note=67 velocity=0 time=0
EXTRACT: note_on channel=1 note=28 velocity=106 time=0.005580312499999999
EXTRACT: note_on channel=2 note=40 velocity=96 time=0
EXTRACT: note_on channel=4 note=59 velocity=80 time=0
EXTRACT: note_on channel=4 note=64 velocity=80 time=0
EXTRACT: note_on channel=9 note=35 velocity=107 time=0
EXTRACT: note_on channel=9 note=42 velocity=84 time=0
EXTRACT: note_off channel=9 note=42 velocity=0 time=0.0074404166666666655
EXTRACT: note_off channel=9 note=35 velocity=0 time=0
EXTRACT: note_on channel=4 note=68 velocity=84 time=0.0074404166666666655
EXTRACT: note_off channel=3 note=67 velocity=0 time=0.09114510416666666
EXTRACT: note_on channel=3 note=64 velocity=106 time=0.09300520833333333
EXTRACT: note_off channel=2 note=40 velocity=0 time=0.0037202083333333327
EXTRACT: note_on channel=2 note=40 velocity=96 time=0.005580312499999999
EXTRACT: note_on channel=9 note=42 velocity=59 time=0
EXTRACT: note_off channel=9 note=42 velocity=0 time=0.0074404166666666655
EXTRACT: note_off channel=3 note=64 velocity=0 time=0.06882385416666666
EXTRACT: note_off channel=1 note=28 velocity=0 time=0.06696374999999999
EXTRACT: note_off channel=2 note=40 velocity=0 time=0
EXTRACT: note_on channel=1 note=32 velocity=101 time=0.005580312499999999
EXTRACT: note_on channel=2 note=44 velocity=78 time=0
EXTRACT: note_on channel=9 note=40 velocity=108 time=0
EXTRACT: note_on channel=9 note=42 velocity=88 time=0
EXTRACT: note_off channel=9 note=42 velocity=0 time=0.0074404166666666655
EXTRACT: note_off channel=9 note=40 velocity=0 time=0
EXTRACT: note_on channel=3 note=64 velocity=110 time=0.0018601041666666664
EXTRACT: control_change channel=1 control=7 value=78 time=0.10044562499999998
EXTRACT: control_change channel=9 control=7 value=95 time=0
EXTRACT: control_change channel=4 control=7 value=78 time=0.009300520833333333
EXTRACT: control_change channel=3 control=7 value=78 time=0.0074404166666666655
EXTRACT: control_change channel=2 control=7 value=63 time=0.009300520833333333
EXTRACT: note_off channel=3 note=64 velocity=0 time=0.048362708333333324
EXTRACT: note_off channel=2 note=44 velocity=0 time=0.018601041666666665
EXTRACT: note_on channel=2 note=44 velocity=84 time=0.005580312499999999
EXTRACT: note_on channel=9 note=42 velocity=58 time=0
EXTRACT: note_off channel=9 note=42 velocity=0 time=0.0074404166666666655
EXTRACT: note_on channel=3 note=62 velocity=104 time=0.013020729166666665
EXTRACT: note_off channel=3 note=62 velocity=0 time=0.06324354166666665
EXTRACT: note_off channel=1 note=32 velocity=0 time=0.059523333333333324
EXTRACT: note_off channel=2 note=44 velocity=0 time=0
EXTRACT: note_on channel=3 note=64 velocity=109 time=0.0018601041666666664
EXTRACT: note_on channel=1 note=35 velocity=105 time=0.0037202083333333327
EXTRACT: note_on channel=2 note=47 velocity=88 time=0
EXTRACT: note_on channel=9 note=35 velocity=108 time=0
EXTRACT: note_on channel=9 note=42 velocity=87 time=0
EXTRACT: note_off channel=9 note=42 velocity=0 time=0.0074404166666666655
EXTRACT: note_off channel=9 note=35 velocity=0 time=0
EXTRACT: note_off channel=2 note=47 velocity=0 time=0.19531093749999998
EXTRACT: note_on channel=2 note=47 velocity=88 time=0.005580312499999999
EXTRACT: note_on channel=9 note=42 velocity=57 time=0
EXTRACT: note_off channel=9 note=42 velocity=0 time=0.0074404166666666655
EXTRACT: note_off channel=3 note=64 velocity=0 time=0.057663229166666656
EXTRACT: note_off channel=1 note=35 velocity=0 time=0.07812437499999998
EXTRACT: note_off channel=2 note=47 velocity=0 time=0
EXTRACT: note_on channel=3 note=64 velocity=109 time=0
EXTRACT: note_on channel=1 note=37 velocity=99 time=0.005580312499999999
EXTRACT: note_on channel=2 note=49 velocity=88 time=0
EXTRACT: note_on channel=9 note=42 velocity=86 time=0
EXTRACT: note_on channel=9 note=40 velocity=107 time=0
EXTRACT: note_off channel=9 note=40 velocity=0 time=0.0074404166666666655
EXTRACT: note_off channel=9 note=42 velocity=0 time=0
EXTRACT: control_change channel=1 control=7 value=70 time=0.11904666666666665
EXTRACT: control_change channel=9 control=7 value=87 time=0
EXTRACT: control_change channel=4 control=7 value=70 time=0.009300520833333333
EXTRACT: control_change channel=3 control=7 value=70 time=0.009300520833333333
EXTRACT: control_change channel=2 control=7 value=56 time=0.0074404166666666655
EXTRACT: note_off channel=3 note=64 velocity=0 time=0.014880833333333331
EXTRACT: note_off channel=2 note=49 velocity=0 time=0.03534197916666666
EXTRACT: note_on channel=2 note=47 velocity=86 time=0.005580312499999999
EXTRACT: note_on channel=9 note=42 velocity=63 time=0
EXTRACT: note_off channel=9 note=42 velocity=0 time=0.0074404166666666655
EXTRACT: note_on channel=3 note=64 velocity=106 time=0.016740937499999997
EXTRACT: note_off channel=1 note=37 velocity=0 time=0.11532645833333331
EXTRACT: note_off channel=2 note=47 velocity=0 time=0.0037202083333333327
EXTRACT: note_on channel=1 note=28 velocity=106 time=0.005580312499999999
EXTRACT: note_on channel=2 note=40 velocity=96 time=0
EXTRACT: note_on channel=9 note=35 velocity=107 time=0
EXTRACT: note_on channel=9 note=42 velocity=84 time=0
EXTRACT: note_off channel=9 note=42 velocity=0 time=0.0074404166666666655
EXTRACT: note_off channel=9 note=35 velocity=0 time=0
EXTRACT: note_off channel=3 note=64 velocity=0 time=0.13578760416666666
EXTRACT: note_off channel=2 note=40 velocity=0 time=0.059523333333333324
EXTRACT: note_on channel=2 note=40 velocity=96 time=0.005580312499999999
EXTRACT: note_on channel=9 note=42 velocity=59 time=0
EXTRACT: note_off channel=9 note=42 velocity=0 time=0.0074404166666666655
EXTRACT: note_off channel=1 note=28 velocity=0 time=0.13578760416666666
EXTRACT: note_off channel=2 note=40 velocity=0 time=0
EXTRACT: note_on channel=1 note=32 velocity=101 time=0.005580312499999999
EXTRACT: note_on channel=2 note=44 velocity=78 time=0
EXTRACT: note_on channel=9 note=40 velocity=108 time=0
EXTRACT: note_on channel=9 note=42 velocity=88 time=0
EXTRACT: note_off channel=9 note=42 velocity=0 time=0.0074404166666666655
EXTRACT: note_off channel=9 note=40 velocity=0 time=0
EXTRACT: control_change channel=1 control=7 value=61 time=0.044642499999999995
EXTRACT: control_change channel=9 control=7 value=78 time=0
EXTRACT: control_change channel=4 control=7 value=61 time=0.009300520833333333
EXTRACT: control_change channel=3 control=7 value=61 time=0.009300520833333333
EXTRACT: control_change channel=2 control=7 value=46 time=0.0074404166666666655
EXTRACT: note_off channel=2 note=44 velocity=0 time=0.12462697916666665
EXTRACT: note_on channel=2 note=44 velocity=84 time=0.005580312499999999
EXTRACT: note_on channel=9 note=42 velocity=58 time=0
EXTRACT: note_off channel=9 note=42 velocity=0 time=0.0074404166666666655
EXTRACT: note_off channel=4 note=68 velocity=0 time=0.029761666666666662
EXTRACT: note_off channel=4 note=59 velocity=0 time=0.018601041666666665
EXTRACT: note_off channel=4 note=64 velocity=0 time=0.05580312499999999
EXTRACT: note_off channel=1 note=32 velocity=0 time=0.031621770833333326
EXTRACT: note_off channel=2 note=44 velocity=0 time=0
EXTRACT: note_on channel=1 note=35 velocity=105 time=0.005580312499999999
EXTRACT: note_on channel=2 note=47 velocity=88 time=0
EXTRACT: note_on channel=9 note=42 velocity=87 time=0
EXTRACT: note_on channel=9 note=35 velocity=108 time=0
EXTRACT: note_off channel=9 note=35 velocity=0 time=0.0074404166666666655
EXTRACT: note_off channel=9 note=42 velocity=0 time=0
EXTRACT: note_off channel=2 note=47 velocity=0 time=0.19531093749999998
EXTRACT: note_on channel=2 note=47 velocity=88 time=0.005580312499999999
EXTRACT: note_on channel=9 note=42 velocity=57 time=0
EXTRACT: note_on channel=4 note=67 velocity=96 time=0.0074404166666666655
EXTRACT: note_off channel=9 note=42 velocity=0 time=0
EXTRACT: note_on channel=4 note=58 velocity=104 time=0.011160624999999999
EXTRACT: note_on channel=4 note=63 velocity=108 time=0
EXTRACT: control_change channel=1 control=7 value=52 time=0.03720208333333333
EXTRACT: control_change channel=9 control=7 value=69 time=0
EXTRACT: control_change channel=4 control=7 value=52 time=0.009300520833333333
EXTRACT: control_change channel=3 control=7 value=52 time=0.0074404166666666655
EXTRACT: control_change channel=2 control=7 value=37 time=0.011160624999999999
EXTRACT: note_on channel=3 note=67 velocity=105 time=0.04650260416666666
EXTRACT: note_off channel=1 note=35 velocity=0 time=0.013020729166666665
EXTRACT: note_off channel=2 note=47 velocity=0 time=0
EXTRACT: note_on channel=1 note=37 velocity=99 time=0.005580312499999999
EXTRACT: note_on channel=2 note=49 velocity=88 time=0
EXTRACT: note_on channel=9 note=40 velocity=107 time=0
EXTRACT: note_on channel=9 note=42 velocity=86 time=0
EXTRACT: note_off channel=9 note=42 velocity=0 time=0.0074404166666666655
EXTRACT: note_off channel=9 note=40 velocity=0 time=0
EXTRACT: note_off channel=3 note=67 velocity=0 time=0.11532645833333331
EXTRACT: note_off channel=2 note=49 velocity=0 time=0.07998447916666665
EXTRACT: note_on channel=2 note=47 velocity=86 time=0.005580312499999999
EXTRACT: note_on channel=9 note=42 velocity=63 time=0
EXTRACT: note_off channel=9 note=42 velocity=0 time=0.0074404166666666655
EXTRACT: note_on channel=3 note=67 velocity=107 time=0.0074404166666666655
EXTRACT: note_off channel=4 note=63 velocity=0 time=0.08928499999999999
EXTRACT: note_off channel=4 note=67 velocity=0 time=0.033481874999999994
EXTRACT: note_off channel=1 note=37 velocity=0 time=0.0018601041666666664
EXTRACT: note_off channel=2 note=47 velocity=0 time=0.0037202083333333327
EXTRACT: note_on channel=1 note=28 velocity=106 time=0.005580312499999999
EXTRACT: note_on channel=2 note=40 velocity=96 time=0
EXTRACT: note_on channel=9 note=42 velocity=84 time=0
EXTRACT: note_on channel=9 note=35 velocity=107 time=0
EXTRACT: note_off channel=9 note=35 velocity=0 time=0.0074404166666666655
EXTRACT: note_off channel=9 note=42 velocity=0 time=0
EXTRACT: note_on channel=4 note=64 velocity=72 time=0.011160624999999999
EXTRACT: note_off channel=4 note=58 velocity=0 time=0.0037202083333333327
EXTRACT: note_on channel=4 note=59 velocity=68 time=0.0037202083333333327
EXTRACT: note_on channel=4 note=68 velocity=84 time=0.0074404166666666655
EXTRACT: note_off channel=3 note=67 velocity=0 time=0.07254406249999999
EXTRACT: note_on channel=3 note=64 velocity=106 time=0.09300520833333333
EXTRACT: note_off channel=2 note=40 velocity=0 time=0.0037202083333333327
EXTRACT: note_on channel=2 note=40 velocity=96 time=0.005580312499999999
EXTRACT: note_on channel=9 note=42 velocity=59 time=0
EXTRACT: note_off channel=9 note=42 velocity=0 time=0.0074404166666666655
EXTRACT: control_change channel=9 control=7 value=60 time=0.009300520833333333
EXTRACT: control_change channel=1 control=7 value=42 time=0.0037202083333333327
EXTRACT: control_change channel=4 control=7 value=42 time=0.0074404166666666655
EXTRACT: control_change channel=3 control=7 value=42 time=0.009300520833333333
EXTRACT: control_change channel=2 control=7 value=29 time=0.0074404166666666655
EXTRACT: note_off channel=3 note=64 velocity=0 time=0.031621770833333326
EXTRACT: note_off channel=1 note=28 velocity=0 time=0.06696374999999999
EXTRACT: note_off channel=2 note=40 velocity=0 time=0
EXTRACT: note_on channel=1 note=32 velocity=101 time=0.005580312499999999
EXTRACT: note_on channel=2 note=44 velocity=78 time=0
EXTRACT: note_on channel=9 note=40 velocity=108 time=0
EXTRACT: note_on channel=9 note=42 velocity=88 time=0
EXTRACT: note_off channel=9 note=42 velocity=0 time=0.0074404166666666655
EXTRACT: note_off channel=9 note=40 velocity=0 time=0
EXTRACT: note_on channel=3 note=64 velocity=110 time=0.0018601041666666664
EXTRACT: note_off channel=3 note=64 velocity=0 time=0.17484979166666664
EXTRACT: note_off channel=2 note=44 velocity=0 time=0.018601041666666665
EXTRACT: note_on channel=2 note=44 velocity=84 time=0.005580312499999999
EXTRACT: note_on channel=9 note=42 velocity=58 time=0
EXTRACT: note_off channel=9 note=42 velocity=0 time=0.0074404166666666655
EXTRACT: note_on channel=3 note=62 velocity=104 time=0.013020729166666665
EXTRACT: note_off channel=3 note=62 velocity=0 time=0.06324354166666665
EXTRACT: note_off channel=1 note=32 velocity=0 time=0.059523333333333324
EXTRACT: note_off channel=2 note=44 velocity=0 time=0
EXTRACT: note_on channel=3 note=64 velocity=109 time=0.0018601041666666664
EXTRACT: note_on channel=1 note=35 velocity=105 time=0.0037202083333333327
EXTRACT: note_on channel=2 note=47 velocity=88 time=0
EXTRACT: note_on channel=9 note=35 velocity=108 time=0
EXTRACT: note_on channel=9 note=42 velocity=87 time=0
EXTRACT: note_off channel=9 note=42 velocity=0 time=0.0074404166666666655
EXTRACT: note_off channel=9 note=35 velocity=0 time=0
EXTRACT: note_off channel=2 note=47 velocity=0 time=0.19531093749999998
EXTRACT: note_on channel=2 note=47 velocity=88 time=0.005580312499999999
EXTRACT: note_on channel=9 note=42 velocity=57 time=0
EXTRACT: control_change channel=1 control=7 value=34 time=0.005580312499999999
EXTRACT: control_change channel=9 control=7 value=50 time=0
EXTRACT: note_off channel=9 note=42 velocity=0 time=0.0018601041666666664
EXTRACT: control_change channel=4 control=7 value=34 time=0.0074404166666666655
EXTRACT: control_change channel=3 control=7 value=34 time=0.009300520833333333
EXTRACT: control_change channel=2 control=7 value=18 time=0.009300520833333333
EXTRACT: note_off channel=3 note=64 velocity=0 time=0.031621770833333326
EXTRACT: note_off channel=1 note=35 velocity=0 time=0.07812437499999998
EXTRACT: note_off channel=2 note=47 velocity=0 time=0
EXTRACT: note_on channel=3 note=64 velocity=109 time=0
EXTRACT: note_on channel=1 note=37 velocity=99 time=0.005580312499999999
EXTRACT: note_on channel=2 note=49 velocity=88 time=0
EXTRACT: note_on channel=9 note=42 velocity=86 time=0
EXTRACT: note_on channel=9 note=40 velocity=107 time=0
EXTRACT: note_off channel=9 note=40 velocity=0 time=0.0074404166666666655
EXTRACT: note_off channel=9 note=42 velocity=0 time=0
EXTRACT: note_off channel=3 note=64 velocity=0 time=0.1599689583333333
EXTRACT: note_off channel=2 note=49 velocity=0 time=0.03534197916666666
EXTRACT: note_on channel=2 note=47 velocity=86 time=0.005580312499999999
EXTRACT: note_on channel=9 note=42 velocity=63 time=0
EXTRACT: note_off channel=9 note=42 velocity=0 time=0.0074404166666666655
EXTRACT: note_on channel=3 note=64 velocity=106 time=0.016740937499999997
EXTRACT: note_off channel=1 note=37 velocity=0 time=0.11532645833333331
EXTRACT: note_off channel=2 note=47 velocity=0 time=0.0037202083333333327
EXTRACT: note_on channel=1 note=28 velocity=106 time=0.005580312499999999
EXTRACT: note_on channel=2 note=40 velocity=96 time=0
EXTRACT: note_on channel=9 note=42 velocity=84 time=0
EXTRACT: note_on channel=9 note=35 velocity=107 time=0
EXTRACT: note_off channel=9 note=35 velocity=0 time=0.0074404166666666655
EXTRACT: note_off channel=9 note=42 velocity=0 time=0
EXTRACT: note_off channel=3 note=64 velocity=0 time=0.13578760416666666
EXTRACT: control_change channel=1 control=7 value=27 time=0.014880833333333331
EXTRACT: control_change channel=9 control=7 value=42 time=0
EXTRACT: control_change channel=4 control=7 value=27 time=0.009300520833333333
EXTRACT: control_change channel=3 control=7 value=27 time=0.0074404166666666655
EXTRACT: control_change channel=2 control=7 value=11 time=0.009300520833333333
EXTRACT: note_off channel=2 note=40 velocity=0 time=0.018601041666666665
EXTRACT: note_on channel=2 note=40 velocity=96 time=0.005580312499999999
EXTRACT: note_on channel=9 note=42 velocity=59 time=0
EXTRACT: note_off channel=9 note=42 velocity=0 time=0.0074404166666666655
EXTRACT: note_off channel=1 note=28 velocity=0 time=0.13578760416666666
EXTRACT: note_off channel=2 note=40 velocity=0 time=0
EXTRACT: note_on channel=1 note=32 velocity=101 time=0.005580312499999999
EXTRACT: note_on channel=2 note=44 velocity=78 time=0
EXTRACT: note_on channel=9 note=42 velocity=88 time=0
EXTRACT: note_on channel=9 note=40 velocity=108 time=0
EXTRACT: note_off channel=9 note=40 velocity=0 time=0.0074404166666666655
EXTRACT: note_off channel=9 note=42 velocity=0 time=0
EXTRACT: note_off channel=2 note=44 velocity=0 time=0.19531093749999998
EXTRACT: note_on channel=2 note=44 velocity=84 time=0.005580312499999999
EXTRACT: note_on channel=9 note=42 velocity=58 time=0
EXTRACT: note_off channel=4 note=64 velocity=0 time=0.005580312499999999
EXTRACT: note_off channel=9 note=42 velocity=0 time=0.0018601041666666664
EXTRACT: note_off channel=4 note=59 velocity=0 time=0.0074404166666666655
EXTRACT: note_off channel=4 note=68 velocity=0 time=0.03534197916666666
EXTRACT: note_off channel=1 note=32 velocity=0 time=0.09300520833333333
EXTRACT: note_off channel=2 note=44 velocity=0 time=0
EXTRACT: note_on channel=1 note=35 velocity=105 time=0.005580312499999999
EXTRACT: note_on channel=2 note=47 velocity=88 time=0
EXTRACT: note_on channel=9 note=35 velocity=108 time=0
EXTRACT: note_on channel=9 note=42 velocity=87 time=0
EXTRACT: note_off channel=9 note=42 velocity=0 time=0.0074404166666666655
EXTRACT: note_off channel=9 note=35 velocity=0 time=0
EXTRACT: control_change channel=1 control=7 value=18 time=0.09300520833333333
EXTRACT: control_change channel=9 control=7 value=36 time=0
EXTRACT: control_change channel=4 control=7 value=18 time=0.009300520833333333
EXTRACT: control_change channel=3 control=7 value=18 time=0.009300520833333333
EXTRACT: control_change channel=2 control=7 value=5 time=0.011160624999999999
EXTRACT: note_off channel=2 note=47 velocity=0 time=0.07254406249999999
EXTRACT: note_on channel=2 note=47 velocity=88 time=0.005580312499999999
EXTRACT: note_on channel=9 note=42 velocity=57 time=0
EXTRACT: note_off channel=9 note=42 velocity=0 time=0.0074404166666666655
EXTRACT: note_on channel=4 note=58 velocity=80 time=0.022321249999999997
EXTRACT: note_on channel=4 note=67 velocity=92 time=0
EXTRACT: note_on channel=4 note=63 velocity=92 time=0
EXTRACT: note_on channel=3 note=67 velocity=105 time=0.10044562499999998
EXTRACT: note_off channel=1 note=35 velocity=0 time=0.013020729166666665
EXTRACT: note_off channel=2 note=47 velocity=0 time=0
EXTRACT: note_on channel=1 note=37 velocity=99 time=0.005580312499999999
EXTRACT: note_on channel=2 note=49 velocity=88 time=0
EXTRACT: note_on channel=9 note=42 velocity=86 time=0
EXTRACT: note_on channel=9 note=40 velocity=107 time=0
EXTRACT: note_off channel=9 note=40 velocity=0 time=0.0074404166666666655
EXTRACT: note_off channel=9 note=42 velocity=0 time=0
EXTRACT: note_off channel=3 note=67 velocity=0 time=0.11532645833333331
EXTRACT: control_change channel=1 control=7 value=10 time=0.07998447916666665
EXTRACT: note_off channel=2 note=49 velocity=0 time=0
EXTRACT: control_change channel=9 control=7 value=28 time=0
EXTRACT: note_on channel=2 note=47 velocity=86 time=0.005580312499999999
EXTRACT: note_on channel=9 note=42 velocity=63 time=0
EXTRACT: control_change channel=4 control=7 value=10 time=0.0074404166666666655
EXTRACT: note_off channel=9 note=42 velocity=0 time=0
EXTRACT: note_on channel=3 note=67 velocity=107 time=0.0074404166666666655
EXTRACT: control_change channel=3 control=7 value=10 time=0.0037202083333333327
EXTRACT: control_change channel=2 control=7 value=0 time=0.0074404166666666655
EXTRACT: note_off channel=4 note=63 velocity=0 time=0.08370468749999999
EXTRACT: note_off channel=4 note=67 velocity=0 time=0
EXTRACT: note_off channel=4 note=58 velocity=0 time=0
EXTRACT: note_on channel=4 note=64 velocity=60 time=0.005580312499999999
EXTRACT: note_on channel=4 note=59 velocity=68 time=0.0074404166666666655
EXTRACT: note_off channel=1 note=37 velocity=0 time=0.016740937499999997
EXTRACT: note_on channel=4 note=68 velocity=64 time=0
EXTRACT: note_off channel=2 note=47 velocity=0 time=0.0037202083333333327
EXTRACT: note_on channel=1 note=28 velocity=106 time=0.005580312499999999
EXTRACT: note_on channel=2 note=40 velocity=96 time=0
EXTRACT: note_on channel=9 note=42 velocity=84 time=0
EXTRACT: note_on channel=9 note=35 velocity=107 time=0
EXTRACT: note_off channel=9 note=35 velocity=0 time=0.0074404166666666655
EXTRACT: note_off channel=9 note=42 velocity=0 time=0
EXTRACT: note_off channel=3 note=67 velocity=0 time=0.09858552083333331
EXTRACT: note_on channel=3 note=64 velocity=106 time=0.09300520833333333
EXTRACT: control_change channel=9 control=7 value=19 time=0.0018601041666666664
EXTRACT: control_change channel=1 control=7 value=4 time=0.0018601041666666664
EXTRACT: note_off channel=2 note=40 velocity=0 time=0
EXTRACT: note_on channel=9 note=42 velocity=59 time=0.005580312499999999
EXTRACT: control_change channel=4 control=7 value=4 time=0.0074404166666666655
EXTRACT: note_off channel=9 note=42 velocity=0 time=0
EXTRACT: control_change channel=3 control=7 value=4 time=0.011160624999999999
EXTRACT: note_off channel=3 note=64 velocity=0 time=0.057663229166666656
EXTRACT: note_off channel=1 note=28 velocity=0 time=0.06696374999999999
EXTRACT: note_on channel=9 note=42 velocity=88 time=0.005580312499999999
EXTRACT: note_on channel=9 note=40 velocity=108 time=0
EXTRACT: note_off channel=9 note=40 velocity=0 time=0.0074404166666666655
EXTRACT: note_off channel=9 note=42 velocity=0 time=0
EXTRACT: note_on channel=3 note=64 velocity=110 time=0.0018601041666666664
EXTRACT: note_off channel=4 note=64 velocity=0 time=0.03720208333333333
EXTRACT: note_off channel=4 note=59 velocity=0 time=0.0074404166666666655
EXTRACT: note_off channel=4 note=68 velocity=0 time=0.016740937499999997
EXTRACT: control_change channel=9 control=7 value=11 time=0.09486531249999998
EXTRACT: note_off channel=3 note=64 velocity=0 time=0.018601041666666665
EXTRACT: note_on channel=9 note=42 velocity=58 time=0.024181354166666662
EXTRACT: note_off channel=9 note=42 velocity=0 time=0.0074404166666666655
EXTRACT: note_on channel=9 note=42 velocity=87 time=0.14136791666666665
EXTRACT: note_on channel=9 note=35 velocity=108 time=0
EXTRACT: note_off channel=9 note=35 velocity=0 time=0.0074404166666666655
EXTRACT: note_off channel=9 note=42 velocity=0 time=0
EXTRACT: control_change channel=9 control=7 value=4 time=0.013020729166666665
EXTRACT: control_change channel=9 control=7 value=0 time=0.18973062499999996
EXTRACT: control_change channel=4 control=123 value=0 time=0.31435760416666664
EXTRACT: control_change channel=1 control=120 value=0 time=0.013020729166666665
EXTRACT: control_change channel=1 control=123 value=0 time=0.005580312499999999
EXTRACT: control_change channel=3 control=120 value=0 time=0.016740937499999997
EXTRACT: control_change channel=9 control=120 value=0 time=0.0018601041666666664
EXTRACT: control_change channel=3 control=123 value=0 time=0.005580312499999999
