EXTRACT: control_change channel=1 control=7 value=127 time=0
EXTRACT: control_change channel=1 control=10 value=79 time=0
EXTRACT: control_change channel=1 control=0 value=0 time=0
EXTRACT: control_change channel=1 control=91 value=20 time=0
EXTRACT: control_change channel=1 control=93 value=15 time=0
EXTRACT: program_change channel=1 program=16 time=0
EXTRACT: control_change channel=2 control=7 value=127 time=0
EXTRACT: control_change channel=2 control=10 value=64 time=0
EXTRACT: control_change channel=2 control=0 value=0 time=0
EXTRACT: control_change channel=2 control=91 value=60 time=0
EXTRACT: control_change channel=2 control=93 value=0 time=0
EXTRACT: program_change channel=2 program=48 time=0
EXTRACT: control_change channel=3 control=7 value=127 time=0
EXTRACT: control_change channel=3 control=10 value=64 time=0
EXTRACT: control_change channel=3 control=0 value=0 time=0
EXTRACT: control_change channel=3 control=91 value=64 time=0
EXTRACT: control_change channel=3 control=93 value=0 time=0
EXTRACT: program_change channel=3 program=71 time=0
EXTRACT: control_change channel=4 control=7 value=127 time=0
EXTRACT: control_change channel=4 control=10 value=64 time=0
EXTRACT: control_change channel=4 control=0 value=0 time=0
EXTRACT: control_change channel=4 control=91 value=35 time=0
EXTRACT: control_change channel=4 control=93 value=35 time=0
EXTRACT: program_change channel=4 program=87 time=0
EXTRACT: control_change channel=5 control=7 value=125 time=0
EXTRACT: control_change channel=5 control=10 value=64 time=0
EXTRACT: control_change channel=5 control=0 value=0 time=0
EXTRACT: control_change channel=5 control=91 value=16 time=0
EXTRACT: control_change channel=5 control=93 value=0 time=0
EXTRACT: program_change channel=5 program=113 time=0
EXTRACT: control_change channel=6 control=7 value=127 time=0
EXTRACT: control_change channel=6 control=10 value=64 time=0
EXTRACT: control_change channel=6 control=0 value=0 time=0
EXTRACT: control_change channel=6 control=91 value=85 time=0
EXTRACT: control_change channel=6 control=93 value=0 time=0
EXTRACT: program_change channel=6 program=119 time=0
EXTRACT: control_change channel=7 control=7 value=100 time=0
EXTRACT: control_change channel=7 control=10 value=64 time=0
EXTRACT: control_change channel=7 control=0 value=0 time=0
EXTRACT: control_change channel=7 control=91 value=64 time=0
EXTRACT: control_change channel=7 control=93 value=0 time=0
EXTRACT: program_change channel=7 program=122 time=0
EXTRACT: control_change channel=8 control=7 value=92 time=0
EXTRACT: control_change channel=8 control=10 value=64 time=0
EXTRACT: control_change channel=8 control=0 value=0 time=0
EXTRACT: control_change channel=8 control=91 value=40 time=0
EXTRACT: control_change channel=8 control=93 value=40 time=0
EXTRACT: program_change channel=8 program=63 time=0
EXTRACT: control_change channel=9 control=7 value=127 time=0
EXTRACT: control_change channel=9 control=10 value=70 time=0
EXTRACT: control_change channel=9 control=0 value=0 time=0
EXTRACT: control_change channel=9 control=91 value=25 time=0
EXTRACT: control_change channel=9 control=93 value=0 time=0
EXTRACT: program_change channel=9 program=16 time=0
EXTRACT: control_change channel=12 control=7 value=100 time=0
EXTRACT: control_change channel=12 control=10 value=64 time=0
EXTRACT: control_change channel=12 control=0 value=0 time=0
EXTRACT: control_change channel=12 control=91 value=64 time=0
EXTRACT: control_change channel=12 control=93 value=0 time=0
EXTRACT: program_change channel=12 program=118 time=0
EXTRACT: control_change channel=13 control=7 value=127 time=0
EXTRACT: control_change channel=13 control=10 value=64 time=0
EXTRACT: control_change channel=13 control=0 value=0 time=0
EXTRACT: control_change channel=13 control=91 value=65 time=0
EXTRACT: control_change channel=13 control=93 value=0 time=0
EXTRACT: program_change channel=13 program=81 time=0
EXTRACT: control_change channel=14 control=7 value=90 time=0
EXTRACT: control_change channel=14 control=10 value=64 time=0
EXTRACT: control_change channel=14 control=0 value=0 time=0
EXTRACT: control_change channel=14 control=91 value=60 time=0
EXTRACT: control_change channel=14 control=93 value=35 time=0
EXTRACT: program_change channel=14 program=79 time=0
EXTRACT: control_change channel=15 control=7 value=90 time=0
EXTRACT: control_change channel=15 control=10 value=74 time=0
EXTRACT: control_change channel=15 control=0 value=0 time=0
EXTRACT: control_change channel=15 control=91 value=40 time=0
EXTRACT: control_change channel=15 control=93 value=0 time=0
EXTRACT: program_change channel=15 program=82 time=0
EXTRACT: control_change channel=0 control=7 value=110 time=0
EXTRACT: control_change channel=0 control=10 value=49 time=0
EXTRACT: control_change channel=0 control=0 value=0 time=0
EXTRACT: control_change channel=0 control=91 value=25 time=0
EXTRACT: control_change channel=0 control=93 value=15 time=0
EXTRACT: program_change channel=0 program=17 time=0
EXTRACT: control_change channel=0 control=11 value=127 time=0.4483689375
EXTRACT: control_change channel=1 control=11 value=127 time=0.022644895833333335
EXTRACT: control_change channel=1 control=11 value=127 time=0
EXTRACT: control_change channel=2 control=11 value=127 time=0.022644895833333335
EXTRACT: control_change channel=3 control=11 value=127 time=0.022644895833333335
EXTRACT: control_change channel=4 control=11 value=127 time=0.022644895833333335
EXTRACT: control_change channel=5 control=11 value=127 time=0.022644895833333335
EXTRACT: control_change channel=6 control=11 value=127 time=0.022644895833333335
EXTRACT: control_change channel=7 control=11 value=127 time=0.022644895833333335
EXTRACT: control_change channel=8 control=11 value=127 time=0.022644895833333335
EXTRACT: control_change channel=9 control=11 value=127 time=0.022644895833333335
EXTRACT: control_change channel=12 control=11 value=127 time=0.06793468750000001
EXTRACT: control_change channel=13 control=11 value=127 time=0.022644895833333335
EXTRACT: control_change channel=13 control=11 value=127 time=0
EXTRACT: control_change channel=14 control=11 value=127 time=0.022644895833333335
EXTRACT: control_change channel=15 control=11 value=127 time=0.022644895833333335
EXTRACT: note_on channel=9 note=42 velocity=100 time=0.951085625
EXTRACT: note_off channel=9 note=42 velocity=0 time=0.01811591666666667
EXTRACT: note_on channel=9 note=42 velocity=85 time=0.4166660833333333
EXTRACT: note_off channel=9 note=42 velocity=0 time=0.01811591666666667
EXTRACT: note_on channel=9 note=42 velocity=85 time=0.4166660833333333
EXTRACT: note_off channel=9 note=42 velocity=0 time=0.01811591666666667
EXTRACT: note_on channel=9 note=42 velocity=85 time=0.4166660833333333
EXTRACT: note_off channel=9 note=42 velocity=0 time=0.01811591666666667
EXTRACT: note_on channel=4 note=66 velocity=105 time=0.4166660833333333
EXTRACT: note_on channel=4 note=61 velocity=105 time=0
EXTRACT: note_on channel=5 note=66 velocity=95 time=0
EXTRACT: note_on channel=9 note=36 velocity=127 time=0
EXTRACT: note_on channel=9 note=36 velocity=127 time=0
EXTRACT: note_on channel=9 note=36 velocity=127 time=0
EXTRACT: note_on channel=9 note=49 velocity=85 time=0
EXTRACT: note_on channel=9 note=35 velocity=117 time=0
EXTRACT: note_off channel=5 note=66 velocity=0 time=0.027173875
EXTRACT: note_off channel=9 note=35 velocity=0 time=0
EXTRACT: note_off channel=9 note=49 velocity=0 time=0
EXTRACT: note_off channel=4 note=61 velocity=0 time=0.027173875
EXTRACT: note_off channel=4 note=66 velocity=0 time=0
EXTRACT: note_off channel=9 note=36 velocity=64 time=0
EXTRACT: note_off channel=9 note=36 velocity=64 time=0
EXTRACT: note_off channel=9 note=36 velocity=64 time=0
EXTRACT: note_on channel=4 note=66 velocity=105 time=0.16304325
EXTRACT: note_on channel=4 note=61 velocity=105 time=0
EXTRACT: note_on channel=5 note=78 velocity=95 time=0
EXTRACT: note_off channel=5 note=78 velocity=0 time=0.027173875
EXTRACT: note_off channel=4 note=61 velocity=0 time=0.027173875
EXTRACT: note_off channel=4 note=66 velocity=0 time=0
EXTRACT: note_on channel=4 note=66 velocity=105 time=0.16304325
EXTRACT: note_on channel=4 note=61 velocity=105 time=0
EXTRACT: note_on channel=9 note=76 velocity=80 time=0
EXTRACT: note_off channel=9 note=76 velocity=0 time=0.027173875
EXTRACT: note_off channel=4 note=61 velocity=0 time=0.027173875
EXTRACT: note_off channel=4 note=66 velocity=0 time=0
EXTRACT: note_on channel=9 note=76 velocity=80 time=0.16304325
EXTRACT: note_off channel=9 note=76 velocity=0 time=0.027173875
EXTRACT: note_on channel=4 note=66 velocity=105 time=0.081521625
EXTRACT: note_on channel=4 note=61 velocity=105 time=0
EXTRACT: note_off channel=4 note=61 velocity=0 time=0.05434775
EXTRACT: note_off channel=4 note=66 velocity=0 time=0
EXTRACT: note_on channel=4 note=61 velocity=105 time=0.05434775
EXTRACT: note_on channel=4 note=56 velocity=105 time=0
EXTRACT: note_on channel=5 note=66 velocity=95 time=0
EXTRACT: note_off channel=5 note=66 velocity=0 time=0.027173875
EXTRACT: note_off channel=4 note=56 velocity=0 time=0.027173875
EXTRACT: note_off channel=4 note=61 velocity=0 time=0
EXTRACT: note_on channel=4 note=61 velocity=105 time=0.16304325
EXTRACT: note_on channel=4 note=56 velocity=105 time=0
EXTRACT: note_on channel=5 note=78 velocity=95 time=0
EXTRACT: note_off channel=5 note=78 velocity=0 time=0.027173875
EXTRACT: note_off channel=4 note=56 velocity=0 time=0.027173875
EXTRACT: note_off channel=4 note=61 velocity=0 time=0
EXTRACT: note_on channel=4 note=61 velocity=105 time=0.16304325
EXTRACT: note_on channel=4 note=56 velocity=105 time=0
EXTRACT: note_on channel=9 note=76 velocity=80 time=0
EXTRACT: note_off channel=9 note=76 velocity=0 time=0.027173875
EXTRACT: note_off channel=4 note=56 velocity=0 time=0.027173875
EXTRACT: note_off channel=4 note=61 velocity=0 time=0
EXTRACT: note_on channel=5 note=78 velocity=95 time=0.16304325
EXTRACT: note_off channel=5 note=78 velocity=0 time=0.027173875
EXTRACT: note_on channel=4 note=63 velocity=105 time=0.19021712500000001
EXTRACT: note_on channel=4 note=58 velocity=105 time=0
EXTRACT: note_on channel=5 note=66 velocity=95 time=0
EXTRACT: note_off channel=5 note=66 velocity=0 time=0.027173875
EXTRACT: note_off channel=4 note=58 velocity=0 time=0.027173875
EXTRACT: note_off channel=4 note=63 velocity=0 time=0
EXTRACT: note_on channel=4 note=63 velocity=105 time=0.16304325
EXTRACT: note_on channel=4 note=58 velocity=105 time=0
EXTRACT: note_on channel=5 note=78 velocity=95 time=0
EXTRACT: note_off channel=5 note=78 velocity=0 time=0.027173875
EXTRACT: note_off channel=4 note=58 velocity=0 time=0.027173875
EXTRACT: note_off channel=4 note=63 velocity=0 time=0
EXTRACT: note_on channel=4 note=63 velocity=105 time=0.16304325
EXTRACT: note_on channel=4 note=58 velocity=105 time=0
EXTRACT: note_on channel=9 note=76 velocity=80 time=0
EXTRACT: note_off channel=9 note=76 velocity=0 time=0.027173875
EXTRACT: note_off channel=4 note=58 velocity=0 time=0.027173875
EXTRACT: note_off channel=4 note=63 velocity=0 time=0
EXTRACT: note_on channel=9 note=76 velocity=80 time=0.16304325
EXTRACT: note_off channel=9 note=76 velocity=0 time=0.027173875
EXTRACT: note_on channel=4 note=63 velocity=105 time=0.081521625
EXTRACT: note_on channel=4 note=58 velocity=105 time=0
EXTRACT: note_off channel=4 note=58 velocity=0 time=0.05434775
EXTRACT: note_off channel=4 note=63 velocity=0 time=0
EXTRACT: note_on channel=4 note=63 velocity=105 time=0.05434775
EXTRACT: note_on channel=4 note=58 velocity=105 time=0
EXTRACT: note_on channel=5 note=66 velocity=95 time=0
EXTRACT: note_off channel=5 note=66 velocity=0 time=0.027173875
EXTRACT: note_off channel=4 note=58 velocity=0 time=0.027173875
EXTRACT: note_off channel=4 note=63 velocity=0 time=0
EXTRACT: note_on channel=4 note=63 velocity=105 time=0.16304325
EXTRACT: note_on channel=4 note=58 velocity=105 time=0
EXTRACT: note_on channel=5 note=78 velocity=95 time=0
EXTRACT: note_off channel=5 note=78 velocity=0 time=0.027173875
EXTRACT: note_off channel=4 note=58 velocity=0 time=0.027173875
EXTRACT: note_off channel=4 note=63 velocity=0 time=0
EXTRACT: note_on channel=4 note=63 velocity=105 time=0.16304325
EXTRACT: note_on channel=4 note=58 velocity=105 time=0
EXTRACT: note_on channel=9 note=76 velocity=80 time=0
EXTRACT: note_off channel=9 note=76 velocity=0 time=0.027173875
EXTRACT: note_off channel=4 note=58 velocity=0 time=0.027173875
EXTRACT: note_off channel=4 note=63 velocity=0 time=0
EXTRACT: note_on channel=5 note=78 velocity=95 time=0.16304325
EXTRACT: note_off channel=5 note=78 velocity=0 time=0.027173875
EXTRACT: note_on channel=4 note=59 velocity=105 time=0.19021712500000001
EXTRACT: note_on channel=4 note=54 velocity=105 time=0
EXTRACT: note_on channel=5 note=66 velocity=95 time=0
EXTRACT: note_off channel=5 note=66 velocity=0 time=0.027173875
EXTRACT: note_off channel=4 note=54 velocity=0 time=0.027173875
EXTRACT: note_off channel=4 note=59 velocity=0 time=0
EXTRACT: note_on channel=4 note=59 velocity=105 time=0.16304325
EXTRACT: note_on channel=4 note=54 velocity=105 time=0
EXTRACT: note_on channel=5 note=78 velocity=95 time=0
EXTRACT: note_off channel=5 note=78 velocity=0 time=0.027173875
EXTRACT: note_off channel=4 note=54 velocity=0 time=0.027173875
EXTRACT: note_off channel=4 note=59 velocity=0 time=0
EXTRACT: note_on channel=4 note=59 velocity=105 time=0.16304325
EXTRACT: note_on channel=4 note=54 velocity=105 time=0
EXTRACT: note_on channel=9 note=76 velocity=80 time=0
EXTRACT: note_off channel=9 note=76 velocity=0 time=0.027173875
EXTRACT: note_off channel=4 note=54 velocity=0 time=0.027173875
EXTRACT: note_off channel=4 note=59 velocity=0 time=0
EXTRACT: note_on channel=9 note=76 velocity=80 time=0.16304325
EXTRACT: note_off channel=9 note=76 velocity=0 time=0.027173875
EXTRACT: note_on channel=4 note=59 velocity=105 time=0.081521625
EXTRACT: note_on channel=4 note=54 velocity=105 time=0
EXTRACT: note_off channel=4 note=54 velocity=0 time=0.05434775
EXTRACT: note_off channel=4 note=59 velocity=0 time=0
EXTRACT: note_on channel=4 note=61 velocity=105 time=0.05434775
EXTRACT: note_on channel=4 note=56 velocity=105 time=0
EXTRACT: note_on channel=5 note=66 velocity=95 time=0
EXTRACT: note_off channel=5 note=66 velocity=0 time=0.027173875
EXTRACT: note_off channel=4 note=56 velocity=0 time=0.027173875
EXTRACT: note_off channel=4 note=61 velocity=0 time=0
EXTRACT: note_on channel=4 note=61 velocity=105 time=0.16304325
EXTRACT: note_on channel=4 note=56 velocity=105 time=0
EXTRACT: note_on channel=5 note=78 velocity=95 time=0
EXTRACT: note_off channel=5 note=78 velocity=0 time=0.027173875
EXTRACT: note_off channel=4 note=56 velocity=0 time=0.027173875
EXTRACT: note_off channel=4 note=61 velocity=0 time=0
EXTRACT: note_on channel=4 note=61 velocity=105 time=0.16304325
EXTRACT: note_on channel=4 note=56 velocity=105 time=0
EXTRACT: note_on channel=9 note=76 velocity=80 time=0
EXTRACT: note_off channel=9 note=76 velocity=0 time=0.027173875
EXTRACT: note_off channel=4 note=56 velocity=0 time=0.027173875
EXTRACT: note_off channel=4 note=61 velocity=0 time=0
EXTRACT: note_on channel=5 note=78 velocity=95 time=0.16304325
EXTRACT: note_off channel=5 note=78 velocity=0 time=0.027173875
EXTRACT: note_on channel=3 note=65 velocity=1 time=0.19021712500000001
EXTRACT: note_on channel=4 note=66 velocity=105 time=0
EXTRACT: note_on channel=4 note=61 velocity=105 time=0
EXTRACT: note_on channel=5 note=66 velocity=95 time=0
EXTRACT: note_off channel=5 note=66 velocity=0 time=0.027173875
EXTRACT: note_off channel=4 note=61 velocity=0 time=0.027173875
EXTRACT: note_off channel=4 note=66 velocity=0 time=0
EXTRACT: note_on channel=4 note=66 velocity=105 time=0.16304325
EXTRACT: note_on channel=4 note=61 velocity=105 time=0
EXTRACT: note_on channel=5 note=78 velocity=95 time=0
EXTRACT: note_off channel=5 note=78 velocity=0 time=0.027173875
EXTRACT: note_off channel=4 note=61 velocity=0 time=0.027173875
EXTRACT: note_off channel=4 note=66 velocity=0 time=0
EXTRACT: note_off channel=3 note=65 velocity=0 time=0.16304325
EXTRACT: note_on channel=3 note=65 velocity=1 time=0
EXTRACT: note_on channel=4 note=66 velocity=105 time=0
EXTRACT: note_on channel=4 note=61 velocity=105 time=0
EXTRACT: note_on channel=9 note=76 velocity=80 time=0
EXTRACT: note_off channel=9 note=76 velocity=0 time=0.027173875
EXTRACT: note_off channel=4 note=61 velocity=0 time=0.027173875
EXTRACT: note_off channel=4 note=66 velocity=0 time=0
EXTRACT: note_on channel=9 note=76 velocity=80 time=0.16304325
EXTRACT: note_off channel=9 note=76 velocity=0 time=0.027173875
EXTRACT: note_on channel=4 note=66 velocity=105 time=0.081521625
EXTRACT: note_on channel=4 note=61 velocity=105 time=0
EXTRACT: note_off channel=4 note=61 velocity=0 time=0.05434775
EXTRACT: note_off channel=4 note=66 velocity=0 time=0
EXTRACT: note_off channel=3 note=65 velocity=0 time=0.05434775
EXTRACT: note_on channel=3 note=65 velocity=1 time=0
EXTRACT: note_on channel=4 note=66 velocity=105 time=0
EXTRACT: note_on channel=4 note=61 velocity=105 time=0
EXTRACT: note_on channel=5 note=66 velocity=95 time=0
EXTRACT: note_off channel=5 note=66 velocity=0 time=0.027173875
EXTRACT: note_off channel=4 note=61 velocity=0 time=0.027173875
EXTRACT: note_off channel=4 note=66 velocity=0 time=0
EXTRACT: note_on channel=4 note=66 velocity=105 time=0.16304325
EXTRACT: note_on channel=4 note=61 velocity=105 time=0
EXTRACT: note_on channel=5 note=78 velocity=95 time=0
EXTRACT: note_off channel=5 note=78 velocity=0 time=0.027173875
EXTRACT: note_off channel=4 note=61 velocity=0 time=0.027173875
EXTRACT: note_off channel=4 note=66 velocity=0 time=0
EXTRACT: note_off channel=3 note=65 velocity=0 time=0.16304325
EXTRACT: note_on channel=3 note=65 velocity=1 time=0
EXTRACT: note_on channel=4 note=66 velocity=105 time=0
EXTRACT: note_on channel=4 note=61 velocity=105 time=0
EXTRACT: note_on channel=9 note=76 velocity=80 time=0
EXTRACT: note_off channel=9 note=76 velocity=0 time=0.027173875
EXTRACT: note_off channel=4 note=61 velocity=0 time=0.027173875
EXTRACT: note_off channel=4 note=66 velocity=0 time=0
EXTRACT: note_on channel=5 note=78 velocity=95 time=0.16304325
EXTRACT: note_off channel=5 note=78 velocity=0 time=0.027173875
EXTRACT: note_on channel=2 note=102 velocity=50 time=0.19021712500000001
EXTRACT: note_on channel=2 note=90 velocity=40 time=0
EXTRACT: note_off channel=3 note=65 velocity=0 time=0
EXTRACT: note_on channel=3 note=66 velocity=127 time=0
EXTRACT: note_on channel=4 note=66 velocity=105 time=0
EXTRACT: note_on channel=4 note=61 velocity=105 time=0
EXTRACT: note_on channel=9 note=36 velocity=127 time=0
EXTRACT: note_on channel=9 note=36 velocity=127 time=0
EXTRACT: note_on channel=9 note=36 velocity=127 time=0
EXTRACT: note_on channel=9 note=49 velocity=85 time=0
EXTRACT: note_on channel=9 note=35 velocity=117 time=0
EXTRACT: note_off channel=9 note=35 velocity=0 time=0.027173875
EXTRACT: note_off channel=9 note=49 velocity=0 time=0
EXTRACT: note_off channel=4 note=61 velocity=0 time=0.027173875
EXTRACT: note_off channel=4 note=66 velocity=0 time=0
EXTRACT: note_off channel=9 note=36 velocity=64 time=0
EXTRACT: note_off channel=9 note=36 velocity=64 time=0
EXTRACT: note_off channel=9 note=36 velocity=64 time=0
EXTRACT: note_on channel=1 note=42 velocity=110 time=0.16304325
EXTRACT: note_on channel=1 note=54 velocity=110 time=0
EXTRACT: note_on channel=4 note=66 velocity=105 time=0
EXTRACT: note_on channel=4 note=61 velocity=105 time=0
EXTRACT: note_on channel=0 note=54 velocity=120 time=0
EXTRACT: note_off channel=4 note=61 velocity=0 time=0.05434775
EXTRACT: note_off channel=4 note=66 velocity=0 time=0
EXTRACT: note_off channel=1 note=54 velocity=0 time=0.1086955
EXTRACT: note_off channel=1 note=42 velocity=0 time=0
EXTRACT: note_off channel=0 note=54 velocity=0 time=0
EXTRACT: note_off channel=3 note=66 velocity=0 time=0.027173875
EXTRACT: note_on channel=3 note=63 velocity=127 time=0.027173875
EXTRACT: note_on channel=4 note=66 velocity=105 time=0
EXTRACT: note_on channel=4 note=61 velocity=105 time=0
EXTRACT: note_on channel=9 note=76 velocity=80 time=0
EXTRACT: note_off channel=9 note=76 velocity=0 time=0.027173875
EXTRACT: note_off channel=4 note=61 velocity=0 time=0.027173875
EXTRACT: note_off channel=4 note=66 velocity=0 time=0
EXTRACT: note_off channel=3 note=63 velocity=0 time=0.14492733333333335
EXTRACT: note_on channel=1 note=42 velocity=110 time=0.01811591666666667
EXTRACT: note_on channel=1 note=54 velocity=110 time=0
EXTRACT: note_on channel=3 note=61 velocity=127 time=0
EXTRACT: note_on channel=9 note=76 velocity=80 time=0
EXTRACT: note_on channel=0 note=54 velocity=120 time=0
EXTRACT: note_off channel=9 note=76 velocity=0 time=0.027173875
EXTRACT: note_on channel=4 note=66 velocity=105 time=0.081521625
EXTRACT: note_on channel=4 note=61 velocity=105 time=0
EXTRACT: note_off channel=1 note=54 velocity=0 time=0.05434775
EXTRACT: note_off channel=1 note=42 velocity=0 time=0
EXTRACT: note_off channel=4 note=61 velocity=0 time=0
EXTRACT: note_off channel=4 note=66 velocity=0 time=0
EXTRACT: note_off channel=0 note=54 velocity=0 time=0
EXTRACT: note_off channel=3 note=61 velocity=0 time=0.009057958333333335
EXTRACT: note_on channel=3 note=66 velocity=127 time=0.04528979166666667
EXTRACT: note_on channel=4 note=61 velocity=105 time=0
EXTRACT: note_on channel=4 note=56 velocity=105 time=0
EXTRACT: note_off channel=4 note=56 velocity=0 time=0.05434775
EXTRACT: note_off channel=4 note=61 velocity=0 time=0
EXTRACT: note_on channel=1 note=37 velocity=110 time=0.16304325
EXTRACT: note_on channel=1 note=49 velocity=110 time=0
EXTRACT: note_on channel=4 note=61 velocity=105 time=0
EXTRACT: note_on channel=4 note=56 velocity=105 time=0
EXTRACT: note_on channel=0 note=49 velocity=120 time=0
EXTRACT: note_off channel=4 note=56 velocity=0 time=0.05434775
EXTRACT: note_off channel=4 note=61 velocity=0 time=0
EXTRACT: note_off channel=1 note=49 velocity=0 time=0.1086955
EXTRACT: note_off channel=1 note=37 velocity=0 time=0
EXTRACT: note_off channel=0 note=49 velocity=0 time=0
EXTRACT: note_off channel=3 note=66 velocity=0 time=0.027173875
EXTRACT: note_on channel=3 note=63 velocity=127 time=0.027173875
EXTRACT: note_on channel=4 note=61 velocity=105 time=0
EXTRACT: note_on channel=4 note=56 velocity=105 time=0
EXTRACT: note_on channel=9 note=76 velocity=80 time=0
EXTRACT: note_off channel=9 note=76 velocity=0 time=0.027173875
EXTRACT: note_off channel=4 note=56 velocity=0 time=0.027173875
EXTRACT: note_off channel=4 note=61 velocity=0 time=0
EXTRACT: note_off channel=3 note=63 velocity=0 time=0.13134039583333335
EXTRACT: note_on channel=1 note=37 velocity=110 time=0.03170285416666667
EXTRACT: note_on channel=1 note=49 velocity=110 time=0
EXTRACT: note_on channel=3 note=61 velocity=127 time=0
EXTRACT: note_on channel=0 note=49 velocity=120 time=0
EXTRACT: note_off channel=1 note=49 velocity=0 time=0.16304325
EXTRACT: note_off channel=1 note=37 velocity=0 time=0
EXTRACT: note_off channel=0 note=49 velocity=0 time=0
EXTRACT: note_on channel=4 note=63 velocity=105 time=0.05434775
EXTRACT: note_on channel=4 note=58 velocity=105 time=0
EXTRACT: note_on channel=7 note=80 velocity=100 time=0
EXTRACT: note_off channel=3 note=61 velocity=64 time=0.01811591666666667
EXTRACT: note_off channel=4 note=58 velocity=0 time=0.03623183333333334
EXTRACT: note_off channel=4 note=63 velocity=0 time=0
EXTRACT: note_on channel=1 note=39 velocity=110 time=0.16304325
EXTRACT: note_on channel=1 note=51 velocity=110 time=0
EXTRACT: note_on channel=4 note=63 velocity=105 time=0
EXTRACT: note_on channel=4 note=58 velocity=105 time=0
EXTRACT: note_on channel=0 note=51 velocity=120 time=0
EXTRACT: note_off channel=4 note=58 velocity=0 time=0.05434775
EXTRACT: note_off channel=4 note=63 velocity=0 time=0
EXTRACT: note_off channel=1 note=51 velocity=0 time=0.1086955
EXTRACT: note_off channel=1 note=39 velocity=0 time=0
EXTRACT: note_off channel=0 note=51 velocity=0 time=0
EXTRACT: note_on channel=4 note=63 velocity=105 time=0.05434775
EXTRACT: note_on channel=4 note=58 velocity=105 time=0
EXTRACT: note_on channel=9 note=76 velocity=80 time=0
EXTRACT: note_off channel=9 note=76 velocity=0 time=0.027173875
EXTRACT: note_off channel=4 note=58 velocity=0 time=0.027173875
EXTRACT: note_off channel=4 note=63 velocity=0 time=0
EXTRACT: note_on channel=1 note=39 velocity=110 time=0.16304325
EXTRACT: note_on channel=1 note=51 velocity=110 time=0
EXTRACT: note_on channel=9 note=76 velocity=80 time=0
EXTRACT: note_on channel=0 note=51 velocity=120 time=0
EXTRACT: note_off channel=9 note=76 velocity=0 time=0.027173875
EXTRACT: note_on channel=4 note=63 velocity=105 time=0.081521625
EXTRACT: note_on channel=4 note=58 velocity=105 time=0
EXTRACT: note_off channel=1 note=51 velocity=0 time=0.05434775
EXTRACT: note_off channel=1 note=39 velocity=0 time=0
EXTRACT: note_off channel=4 note=58 velocity=0 time=0
EXTRACT: note_off channel=4 note=63 velocity=0 time=0
EXTRACT: note_off channel=0 note=51 velocity=0 time=0
EXTRACT: note_on channel=4 note=63 velocity=105 time=0.05434775
EXTRACT: note_on channel=4 note=58 velocity=105 time=0
EXTRACT: note_off channel=4 note=58 velocity=0 time=0.05434775
EXTRACT: note_off channel=4 note=63 velocity=0 time=0
EXTRACT: note_on channel=1 note=39 velocity=110 time=0.16304325
EXTRACT: note_on channel=1 note=51 velocity=110 time=0
EXTRACT: note_on channel=4 note=63 velocity=105 time=0
EXTRACT: note_on channel=4 note=58 velocity=105 time=0
EXTRACT: note_on channel=0 note=51 velocity=120 time=0
EXTRACT: note_off channel=4 note=58 velocity=0 time=0.05434775
EXTRACT: note_off channel=4 note=63 velocity=0 time=0
EXTRACT: note_off channel=1 note=51 velocity=0 time=0.1086955
EXTRACT: note_off channel=1 note=39 velocity=0 time=0
EXTRACT: note_off channel=0 note=51 velocity=0 time=0
EXTRACT: note_on channel=4 note=63 velocity=105 time=0.05434775
EXTRACT: note_on channel=4 note=58 velocity=105 time=0
EXTRACT: note_on channel=9 note=76 velocity=80 time=0
EXTRACT: note_off channel=9 note=76 velocity=0 time=0.027173875
EXTRACT: note_off channel=4 note=58 velocity=0 time=0.027173875
EXTRACT: note_off channel=4 note=63 velocity=0 time=0
EXTRACT: note_on channel=1 note=39 velocity=110 time=0.16304325
EXTRACT: note_on channel=1 note=51 velocity=110 time=0
EXTRACT: note_on channel=0 note=51 velocity=120 time=0
EXTRACT: note_off channel=1 note=51 velocity=0 time=0.16304325
EXTRACT: note_off channel=1 note=39 velocity=0 time=0
EXTRACT: note_off channel=0 note=51 velocity=0 time=0
EXTRACT: note_on channel=3 note=66 velocity=127 time=0.05434775
EXTRACT: note_on channel=4 note=59 velocity=105 time=0
EXTRACT: note_on channel=4 note=54 velocity=105 time=0
EXTRACT: note_off channel=4 note=54 velocity=0 time=0.05434775
EXTRACT: note_off channel=4 note=59 velocity=0 time=0
EXTRACT: note_on channel=1 note=35 velocity=110 time=0.16304325
EXTRACT: note_on channel=1 note=47 velocity=110 time=0
EXTRACT: note_on channel=4 note=59 velocity=105 time=0
EXTRACT: note_on channel=4 note=54 velocity=105 time=0
EXTRACT: note_on channel=0 note=47 velocity=120 time=0
EXTRACT: note_off channel=4 note=54 velocity=0 time=0.05434775
EXTRACT: note_off channel=4 note=59 velocity=0 time=0
EXTRACT: note_off channel=1 note=47 velocity=0 time=0.1086955
EXTRACT: note_off channel=1 note=35 velocity=0 time=0
EXTRACT: note_off channel=0 note=47 velocity=0 time=0
EXTRACT: note_off channel=3 note=66 velocity=0 time=0.03623183333333334
EXTRACT: note_on channel=3 note=63 velocity=127 time=0.01811591666666667
EXTRACT: note_on channel=4 note=59 velocity=105 time=0
EXTRACT: note_on channel=4 note=54 velocity=105 time=0
EXTRACT: note_on channel=9 note=76 velocity=80 time=0
EXTRACT: note_off channel=9 note=76 velocity=0 time=0.027173875
EXTRACT: note_off channel=4 note=54 velocity=0 time=0.027173875
EXTRACT: note_off channel=4 note=59 velocity=0 time=0
EXTRACT: note_off channel=3 note=63 velocity=0 time=0.13586937500000001
EXTRACT: note_on channel=1 note=35 velocity=110 time=0.027173875
EXTRACT: note_on channel=1 note=47 velocity=110 time=0
EXTRACT: note_on channel=3 note=61 velocity=127 time=0
EXTRACT: note_on channel=9 note=76 velocity=80 time=0
EXTRACT: note_on channel=0 note=47 velocity=120 time=0
EXTRACT: note_off channel=9 note=76 velocity=0 time=0.027173875
EXTRACT: note_on channel=4 note=59 velocity=105 time=0.081521625
EXTRACT: note_on channel=4 note=54 velocity=105 time=0
EXTRACT: note_off channel=1 note=47 velocity=0 time=0.05434775
EXTRACT: note_off channel=1 note=35 velocity=0 time=0
EXTRACT: note_off channel=4 note=54 velocity=0 time=0
EXTRACT: note_off channel=4 note=59 velocity=0 time=0
EXTRACT: note_off channel=0 note=47 velocity=0 time=0
EXTRACT: note_off channel=3 note=61 velocity=0 time=0.0135869375
EXTRACT: note_on channel=3 note=66 velocity=127 time=0.0407608125
EXTRACT: note_on channel=4 note=61 velocity=105 time=0
EXTRACT: note_on channel=4 note=56 velocity=105 time=0
EXTRACT: note_off channel=4 note=56 velocity=0 time=0.05434775
EXTRACT: note_off channel=4 note=61 velocity=0 time=0
EXTRACT: note_on channel=1 note=37 velocity=110 time=0.16304325
EXTRACT: note_on channel=1 note=49 velocity=110 time=0
EXTRACT: note_on channel=4 note=61 velocity=105 time=0
EXTRACT: note_on channel=4 note=56 velocity=105 time=0
EXTRACT: note_on channel=0 note=49 velocity=120 time=0
EXTRACT: note_off channel=4 note=56 velocity=0 time=0.05434775
EXTRACT: note_off channel=4 note=61 velocity=0 time=0
EXTRACT: note_off channel=1 note=49 velocity=0 time=0.1086955
EXTRACT: note_off channel=1 note=37 velocity=0 time=0
EXTRACT: note_off channel=0 note=49 velocity=0 time=0
EXTRACT: note_on channel=3 note=63 velocity=127 time=0.05434775
EXTRACT: note_on channel=4 note=61 velocity=105 time=0
EXTRACT: note_on channel=4 note=56 velocity=105 time=0
EXTRACT: note_on channel=9 note=76 velocity=80 time=0
EXTRACT: note_off channel=3 note=66 velocity=0 time=0.022644895833333335
EXTRACT: note_off channel=9 note=76 velocity=0 time=0.004528979166666667
EXTRACT: note_off channel=4 note=56 velocity=0 time=0.027173875
EXTRACT: note_off channel=4 note=61 velocity=0 time=0
EXTRACT: note_off channel=3 note=63 velocity=0 time=0.14492733333333335
EXTRACT: note_on channel=1 note=37 velocity=110 time=0.01811591666666667
EXTRACT: note_on channel=1 note=49 velocity=110 time=0
EXTRACT: note_on channel=3 note=61 velocity=127 time=0
EXTRACT: note_on channel=0 note=49 velocity=120 time=0
EXTRACT: note_off channel=3 note=61 velocity=0 time=0.15398529166666666
EXTRACT: note_off channel=1 note=49 velocity=0 time=0.009057958333333335
EXTRACT: note_off channel=1 note=37 velocity=0 time=0
EXTRACT: note_off channel=0 note=49 velocity=0 time=0
EXTRACT: note_on channel=3 note=54 velocity=127 time=0.05434775
EXTRACT: note_on channel=9 note=36 velocity=127 time=0
EXTRACT: note_on channel=9 note=36 velocity=127 time=0
EXTRACT: note_on channel=9 note=36 velocity=127 time=0
EXTRACT: note_on channel=9 note=49 velocity=85 time=0
EXTRACT: note_on channel=9 note=35 velocity=117 time=0
EXTRACT: note_off channel=9 note=35 velocity=0 time=0.027173875
EXTRACT: note_off channel=9 note=49 velocity=0 time=0
EXTRACT: note_off channel=9 note=36 velocity=64 time=0.027173875
EXTRACT: note_off channel=9 note=36 velocity=64 time=0
EXTRACT: note_off channel=9 note=36 velocity=64 time=0
EXTRACT: note_off channel=3 note=54 velocity=0 time=0.06793468750000001
EXTRACT: note_on channel=3 note=54 velocity=127 time=0.09510856250000001
EXTRACT: note_off channel=3 note=54 velocity=0 time=0.17210120833333334
EXTRACT: note_on channel=3 note=49 velocity=127 time=0.04528979166666667
EXTRACT: note_off channel=3 note=49 velocity=0 time=0.1494563125
EXTRACT: note_on channel=3 note=49 velocity=127 time=0.06793468750000001
EXTRACT: note_off channel=3 note=49 velocity=0 time=0.16304325
EXTRACT: note_on channel=3 note=58 velocity=127 time=0.05434775
EXTRACT: note_off channel=3 note=58 velocity=0 time=0.12681141666666668
EXTRACT: note_on channel=3 note=58 velocity=127 time=0.09057958333333334
EXTRACT: note_off channel=3 note=58 velocity=0 time=0.15851427083333333
EXTRACT: note_on channel=3 note=54 velocity=127 time=0.05887672916666667
EXTRACT: note_off channel=2 note=102 velocity=64 time=0.22191997916666667
EXTRACT: note_off channel=2 note=90 velocity=64 time=0.01811591666666667
EXTRACT: note_off channel=7 note=80 velocity=64 time=0.0135869375
EXTRACT: note_off channel=3 note=54 velocity=0 time=0.05434775
EXTRACT: note_on channel=3 note=66 velocity=127 time=0.12681141666666668
EXTRACT: note_on channel=4 note=66 velocity=105 time=0
EXTRACT: note_on channel=4 note=61 velocity=105 time=0
EXTRACT: note_on channel=9 note=36 velocity=127 time=0
EXTRACT: note_on channel=9 note=36 velocity=127 time=0
EXTRACT: note_on channel=9 note=36 velocity=127 time=0
EXTRACT: note_on channel=9 note=36 velocity=127 time=0
EXTRACT: note_on channel=9 note=42 velocity=127 time=0
EXTRACT: note_off channel=4 note=61 velocity=0 time=0.05434775
EXTRACT: note_off channel=4 note=66 velocity=0 time=0
EXTRACT: note_off channel=9 note=42 velocity=0 time=0
EXTRACT: note_off channel=9 note=36 velocity=64 time=0
EXTRACT: note_off channel=9 note=36 velocity=64 time=0
EXTRACT: note_off channel=9 note=36 velocity=64 time=0
EXTRACT: note_off channel=9 note=36 velocity=64 time=0
EXTRACT: note_on channel=1 note=42 velocity=110 time=0.16304325
EXTRACT: note_on channel=1 note=54 velocity=110 time=0
EXTRACT: note_on channel=4 note=66 velocity=105 time=0
EXTRACT: note_on channel=4 note=61 velocity=105 time=0
EXTRACT: note_on channel=9 note=46 velocity=127 time=0
EXTRACT: note_on channel=0 note=54 velocity=120 time=0
EXTRACT: note_off channel=4 note=61 velocity=0 time=0.05434775
EXTRACT: note_off channel=4 note=66 velocity=0 time=0
EXTRACT: note_off channel=9 note=46 velocity=0 time=0
EXTRACT: note_off channel=1 note=54 velocity=0 time=0.1086955
EXTRACT: note_off channel=1 note=42 velocity=0 time=0
EXTRACT: note_off channel=0 note=54 velocity=0 time=0
EXTRACT: note_off channel=3 note=66 velocity=0 time=0.01811591666666667
EXTRACT: note_on channel=3 note=63 velocity=127 time=0.03623183333333334
EXTRACT: note_on channel=4 note=66 velocity=105 time=0
EXTRACT: note_on channel=4 note=61 velocity=105 time=0
EXTRACT: note_on channel=9 note=36 velocity=127 time=0
EXTRACT: note_on channel=9 note=36 velocity=127 time=0
EXTRACT: note_on channel=9 note=36 velocity=127 time=0
EXTRACT: note_on channel=9 note=36 velocity=127 time=0
EXTRACT: note_on channel=9 note=28 velocity=127 time=0
EXTRACT: note_on channel=9 note=42 velocity=127 time=0
EXTRACT: note_on channel=9 note=76 velocity=80 time=0
EXTRACT: note_off channel=9 note=76 velocity=0 time=0.027173875
EXTRACT: note_off channel=4 note=61 velocity=0 time=0.027173875
EXTRACT: note_off channel=4 note=66 velocity=0 time=0
EXTRACT: note_off channel=9 note=42 velocity=0 time=0
EXTRACT: note_off channel=9 note=36 velocity=64 time=0
EXTRACT: note_off channel=9 note=36 velocity=64 time=0
EXTRACT: note_off channel=9 note=36 velocity=64 time=0
EXTRACT: note_off channel=9 note=36 velocity=64 time=0
EXTRACT: note_off channel=3 note=63 velocity=0 time=0.14492733333333335
EXTRACT: note_on channel=1 note=42 velocity=110 time=0.01811591666666667
EXTRACT: note_on channel=1 note=54 velocity=110 time=0
EXTRACT: note_on channel=3 note=61 velocity=127 time=0
EXTRACT: note_on channel=9 note=46 velocity=127 time=0
EXTRACT: note_on channel=9 note=76 velocity=80 time=0
EXTRACT: note_on channel=0 note=54 velocity=120 time=0
EXTRACT: note_off channel=9 note=76 velocity=0 time=0.027173875
EXTRACT: note_off channel=9 note=46 velocity=0 time=0.027173875
EXTRACT: note_on channel=4 note=66 velocity=105 time=0.05434775
EXTRACT: note_on channel=4 note=61 velocity=105 time=0
EXTRACT: note_off channel=1 note=54 velocity=0 time=0.05434775
EXTRACT: note_off channel=1 note=42 velocity=0 time=0
EXTRACT: note_off channel=3 note=61 velocity=0 time=0
EXTRACT: note_off channel=4 note=61 velocity=0 time=0
EXTRACT: note_off channel=4 note=66 velocity=0 time=0
EXTRACT: note_off channel=0 note=54 velocity=0 time=0
EXTRACT: note_off channel=9 note=28 velocity=0 time=0.0407608125
EXTRACT: note_on channel=3 note=66 velocity=127 time=0.0135869375
EXTRACT: note_on channel=4 note=61 velocity=105 time=0
EXTRACT: note_on channel=4 note=56 velocity=105 time=0
EXTRACT: note_on channel=9 note=36 velocity=127 time=0
EXTRACT: note_on channel=9 note=36 velocity=127 time=0
EXTRACT: note_on channel=9 note=36 velocity=127 time=0
EXTRACT: note_on channel=9 note=36 velocity=127 time=0
EXTRACT: note_on channel=9 note=42 velocity=127 time=0
EXTRACT: note_off channel=4 note=56 velocity=0 time=0.05434775
EXTRACT: note_off channel=4 note=61 velocity=0 time=0
EXTRACT: note_off channel=9 note=42 velocity=0 time=0
EXTRACT: note_off channel=9 note=36 velocity=64 time=0
EXTRACT: note_off channel=9 note=36 velocity=64 time=0
EXTRACT: note_off channel=9 note=36 velocity=64 time=0
EXTRACT: note_off channel=9 note=36 velocity=64 time=0
EXTRACT: note_on channel=1 note=37 velocity=110 time=0.16304325
EXTRACT: note_on channel=1 note=49 velocity=110 time=0
EXTRACT: note_on channel=4 note=61 velocity=105 time=0
EXTRACT: note_on channel=4 note=56 velocity=105 time=0
EXTRACT: note_on channel=9 note=46 velocity=127 time=0
EXTRACT: note_on channel=0 note=49 velocity=120 time=0
EXTRACT: note_off channel=4 note=56 velocity=0 time=0.05434775
EXTRACT: note_off channel=4 note=61 velocity=0 time=0
EXTRACT: note_off channel=9 note=46 velocity=0 time=0
EXTRACT: note_on channel=9 note=36 velocity=127 time=0.05434775
EXTRACT: note_on channel=9 note=36 velocity=127 time=0
EXTRACT: note_on channel=9 note=36 velocity=127 time=0
EXTRACT: note_on channel=9 note=36 velocity=127 time=0
EXTRACT: note_off channel=1 note=49 velocity=0 time=0.05434775
EXTRACT: note_off channel=1 note=37 velocity=0 time=0
EXTRACT: note_off channel=9 note=36 velocity=64 time=0
EXTRACT: note_off channel=9 note=36 velocity=64 time=0
EXTRACT: note_off channel=9 note=36 velocity=64 time=0
EXTRACT: note_off channel=9 note=36 velocity=64 time=0
EXTRACT: note_off channel=0 note=49 velocity=0 time=0
EXTRACT: note_off channel=3 note=66 velocity=0 time=0.03170285416666667
EXTRACT: note_on channel=3 note=63 velocity=127 time=0.022644895833333335
EXTRACT: note_on channel=4 note=61 velocity=105 time=0
EXTRACT: note_on channel=4 note=56 velocity=105 time=0
EXTRACT: note_on channel=9 note=36 velocity=127 time=0
EXTRACT: note_on channel=9 note=36 velocity=127 time=0
EXTRACT: note_on channel=9 note=36 velocity=127 time=0
EXTRACT: note_on channel=9 note=36 velocity=127 time=0
EXTRACT: note_on channel=9 note=28 velocity=127 time=0
EXTRACT: note_on channel=9 note=42 velocity=127 time=0
EXTRACT: note_on channel=9 note=76 velocity=80 time=0
EXTRACT: note_off channel=9 note=76 velocity=0 time=0.027173875
EXTRACT: note_off channel=4 note=56 velocity=0 time=0.027173875
EXTRACT: note_off channel=4 note=61 velocity=0 time=0
EXTRACT: note_off channel=9 note=42 velocity=0 time=0
EXTRACT: note_off channel=9 note=36 velocity=64 time=0
EXTRACT: note_off channel=9 note=36 velocity=64 time=0
EXTRACT: note_off channel=9 note=36 velocity=64 time=0
EXTRACT: note_off channel=9 note=36 velocity=64 time=0
EXTRACT: note_off channel=3 note=63 velocity=0 time=0.15851427083333333
EXTRACT: note_on channel=1 note=37 velocity=110 time=0.004528979166666667
EXTRACT: note_on channel=1 note=49 velocity=110 time=0
EXTRACT: note_on channel=3 note=61 velocity=127 time=0
EXTRACT: note_on channel=9 note=36 velocity=127 time=0
EXTRACT: note_on channel=9 note=36 velocity=127 time=0
EXTRACT: note_on channel=9 note=36 velocity=127 time=0
EXTRACT: note_on channel=9 note=36 velocity=127 time=0
EXTRACT: note_on channel=9 note=46 velocity=127 time=0
EXTRACT: note_on channel=0 note=49 velocity=120 time=0
EXTRACT: note_off channel=9 note=46 velocity=0 time=0.05434775
EXTRACT: note_off channel=9 note=36 velocity=64 time=0
EXTRACT: note_off channel=9 note=36 velocity=64 time=0
EXTRACT: note_off channel=9 note=36 velocity=64 time=0
EXTRACT: note_off channel=9 note=36 velocity=64 time=0
EXTRACT: note_off channel=1 note=49 velocity=0 time=0.1086955
EXTRACT: note_off channel=1 note=37 velocity=0 time=0
EXTRACT: note_off channel=0 note=49 velocity=0 time=0
EXTRACT: note_off channel=3 note=61 velocity=0 time=0.027173875
EXTRACT: note_off channel=9 note=28 velocity=0 time=0.0135869375
EXTRACT: note_on channel=4 note=63 velocity=105 time=0.0135869375
EXTRACT: note_on channel=4 note=58 velocity=105 time=0
EXTRACT: note_on channel=9 note=36 velocity=127 time=0
EXTRACT: note_on channel=9 note=36 velocity=127 time=0
EXTRACT: note_on channel=9 note=36 velocity=127 time=0
EXTRACT: note_on channel=9 note=36 velocity=127 time=0
EXTRACT: note_on channel=9 note=42 velocity=127 time=0
EXTRACT: note_off channel=4 note=58 velocity=0 time=0.05434775
EXTRACT: note_off channel=4 note=63 velocity=0 time=0
EXTRACT: note_off channel=9 note=42 velocity=0 time=0
EXTRACT: note_off channel=9 note=36 velocity=64 time=0
EXTRACT: note_off channel=9 note=36 velocity=64 time=0
EXTRACT: note_off channel=9 note=36 velocity=64 time=0
EXTRACT: note_off channel=9 note=36 velocity=64 time=0
EXTRACT: note_on channel=1 note=39 velocity=110 time=0.16304325
EXTRACT: note_on channel=1 note=51 velocity=110 time=0
EXTRACT: note_on channel=4 note=63 velocity=105 time=0
EXTRACT: note_on channel=4 note=58 velocity=105 time=0
EXTRACT: note_on channel=9 note=46 velocity=127 time=0
EXTRACT: note_on channel=0 note=51 velocity=120 time=0
EXTRACT: note_off channel=4 note=58 velocity=0 time=0.05434775
EXTRACT: note_off channel=4 note=63 velocity=0 time=0
EXTRACT: note_off channel=9 note=46 velocity=0 time=0
EXTRACT: note_off channel=1 note=51 velocity=0 time=0.1086955
EXTRACT: note_off channel=1 note=39 velocity=0 time=0
EXTRACT: note_off channel=0 note=51 velocity=0 time=0
EXTRACT: note_on channel=4 note=63 velocity=105 time=0.05434775
EXTRACT: note_on channel=4 note=58 velocity=105 time=0
EXTRACT: note_on channel=9 note=36 velocity=127 time=0
EXTRACT: note_on channel=9 note=36 velocity=127 time=0
EXTRACT: note_on channel=9 note=36 velocity=127 time=0
EXTRACT: note_on channel=9 note=36 velocity=127 time=0
EXTRACT: note_on channel=9 note=28 velocity=127 time=0
EXTRACT: note_on channel=9 note=42 velocity=127 time=0
EXTRACT: note_on channel=9 note=76 velocity=80 time=0
EXTRACT: note_off channel=9 note=76 velocity=0 time=0.027173875
EXTRACT: note_off channel=4 note=58 velocity=0 time=0.027173875
EXTRACT: note_off channel=4 note=63 velocity=0 time=0
EXTRACT: note_off channel=9 note=42 velocity=0 time=0
EXTRACT: note_off channel=9 note=36 velocity=64 time=0
EXTRACT: note_off channel=9 note=36 velocity=64 time=0
EXTRACT: note_off channel=9 note=36 velocity=64 time=0
EXTRACT: note_off channel=9 note=36 velocity=64 time=0
EXTRACT: note_on channel=1 note=39 velocity=110 time=0.16304325
EXTRACT: note_on channel=1 note=51 velocity=110 time=0
EXTRACT: note_on channel=9 note=46 velocity=127 time=0
EXTRACT: note_on channel=9 note=76 velocity=80 time=0
EXTRACT: note_on channel=0 note=51 velocity=120 time=0
EXTRACT: note_off channel=9 note=76 velocity=0 time=0.027173875
EXTRACT: note_off channel=9 note=46 velocity=0 time=0.027173875
EXTRACT: note_on channel=4 note=63 velocity=105 time=0.05434775
EXTRACT: note_on channel=4 note=58 velocity=105 time=0
EXTRACT: note_off channel=1 note=51 velocity=0 time=0.05434775
EXTRACT: note_off channel=1 note=39 velocity=0 time=0
EXTRACT: note_off channel=4 note=58 velocity=0 time=0
EXTRACT: note_off channel=4 note=63 velocity=0 time=0
EXTRACT: note_off channel=0 note=51 velocity=0 time=0
EXTRACT: note_off channel=9 note=28 velocity=0 time=0.0407608125
EXTRACT: note_on channel=4 note=63 velocity=105 time=0.0135869375
EXTRACT: note_on channel=4 note=58 velocity=105 time=0
EXTRACT: note_on channel=9 note=36 velocity=127 time=0
EXTRACT: note_on channel=9 note=36 velocity=127 time=0
EXTRACT: note_on channel=9 note=36 velocity=127 time=0
EXTRACT: note_on channel=9 note=36 velocity=127 time=0
EXTRACT: note_on channel=9 note=42 velocity=127 time=0
EXTRACT: note_off channel=4 note=58 velocity=0 time=0.05434775
EXTRACT: note_off channel=4 note=63 velocity=0 time=0
EXTRACT: note_off channel=9 note=42 velocity=0 time=0
EXTRACT: note_off channel=9 note=36 velocity=64 time=0
EXTRACT: note_off channel=9 note=36 velocity=64 time=0
EXTRACT: note_off channel=9 note=36 velocity=64 time=0
EXTRACT: note_off channel=9 note=36 velocity=64 time=0
EXTRACT: note_on channel=1 note=39 velocity=110 time=0.16304325
EXTRACT: note_on channel=1 note=51 velocity=110 time=0
EXTRACT: note_on channel=4 note=63 velocity=105 time=0
EXTRACT: note_on channel=4 note=58 velocity=105 time=0
EXTRACT: note_on channel=9 note=46 velocity=127 time=0
EXTRACT: note_on channel=0 note=51 velocity=120 time=0
EXTRACT: note_off channel=4 note=58 velocity=0 time=0.05434775
EXTRACT: note_off channel=4 note=63 velocity=0 time=0
EXTRACT: note_off channel=9 note=46 velocity=0 time=0
EXTRACT: note_on channel=9 note=36 velocity=127 time=0.05434775
EXTRACT: note_on channel=9 note=36 velocity=127 time=0
EXTRACT: note_on channel=9 note=36 velocity=127 time=0
EXTRACT: note_on channel=9 note=36 velocity=127 time=0
EXTRACT: note_off channel=1 note=51 velocity=0 time=0.05434775
EXTRACT: note_off channel=1 note=39 velocity=0 time=0
EXTRACT: note_off channel=9 note=36 velocity=64 time=0
EXTRACT: note_off channel=9 note=36 velocity=64 time=0
EXTRACT: note_off channel=9 note=36 velocity=64 time=0
EXTRACT: note_off channel=9 note=36 velocity=64 time=0
EXTRACT: note_off channel=0 note=51 velocity=0 time=0
EXTRACT: note_on channel=4 note=63 velocity=105 time=0.05434775
EXTRACT: note_on channel=4 note=58 velocity=105 time=0
EXTRACT: note_on channel=9 note=36 velocity=127 time=0
EXTRACT: note_on channel=9 note=36 velocity=127 time=0
EXTRACT: note_on channel=9 note=36 velocity=127 time=0
EXTRACT: note_on channel=9 note=36 velocity=127 time=0
EXTRACT: note_on channel=9 note=28 velocity=127 time=0
EXTRACT: note_on channel=9 note=42 velocity=127 time=0
EXTRACT: note_on channel=9 note=76 velocity=80 time=0
EXTRACT: note_off channel=9 note=76 velocity=0 time=0.027173875
EXTRACT: note_off channel=4 note=58 velocity=0 time=0.027173875
EXTRACT: note_off channel=4 note=63 velocity=0 time=0
EXTRACT: note_off channel=9 note=42 velocity=0 time=0
EXTRACT: note_off channel=9 note=36 velocity=64 time=0
EXTRACT: note_off channel=9 note=36 velocity=64 time=0
EXTRACT: note_off channel=9 note=36 velocity=64 time=0
EXTRACT: note_off channel=9 note=36 velocity=64 time=0
EXTRACT: note_on channel=1 note=39 velocity=110 time=0.16304325
EXTRACT: note_on channel=1 note=51 velocity=110 time=0
EXTRACT: note_on channel=9 note=36 velocity=127 time=0
EXTRACT: note_on channel=9 note=36 velocity=127 time=0
EXTRACT: note_on channel=9 note=36 velocity=127 time=0
EXTRACT: note_on channel=9 note=36 velocity=127 time=0
EXTRACT: note_on channel=9 note=46 velocity=127 time=0
EXTRACT: note_on channel=0 note=51 velocity=120 time=0
EXTRACT: note_off channel=9 note=46 velocity=0 time=0.05434775
EXTRACT: note_off channel=9 note=36 velocity=64 time=0
EXTRACT: note_off channel=9 note=36 velocity=64 time=0
EXTRACT: note_off channel=9 note=36 velocity=64 time=0
EXTRACT: note_off channel=9 note=36 velocity=64 time=0
EXTRACT: note_off channel=1 note=51 velocity=0 time=0.1086955
EXTRACT: note_off channel=1 note=39 velocity=0 time=0
EXTRACT: note_off channel=0 note=51 velocity=0 time=0
EXTRACT: note_off channel=9 note=28 velocity=0 time=0.0407608125
EXTRACT: note_on channel=3 note=66 velocity=127 time=0.0135869375
EXTRACT: note_on channel=4 note=59 velocity=105 time=0
EXTRACT: note_on channel=4 note=54 velocity=105 time=0
EXTRACT: note_on channel=9 note=36 velocity=127 time=0
EXTRACT: note_on channel=9 note=36 velocity=127 time=0
EXTRACT: note_on channel=9 note=36 velocity=127 time=0
EXTRACT: note_on channel=9 note=36 velocity=127 time=0
EXTRACT: note_on channel=9 note=42 velocity=127 time=0
EXTRACT: note_off channel=4 note=54 velocity=0 time=0.05434775
EXTRACT: note_off channel=4 note=59 velocity=0 time=0
EXTRACT: note_off channel=9 note=42 velocity=0 time=0
EXTRACT: note_off channel=9 note=36 velocity=64 time=0
EXTRACT: note_off channel=9 note=36 velocity=64 time=0
EXTRACT: note_off channel=9 note=36 velocity=64 time=0
EXTRACT: note_off channel=9 note=36 velocity=64 time=0
EXTRACT: note_on channel=1 note=35 velocity=110 time=0.16304325
EXTRACT: note_on channel=1 note=47 velocity=110 time=0
EXTRACT: note_on channel=4 note=59 velocity=105 time=0
EXTRACT: note_on channel=4 note=54 velocity=105 time=0
EXTRACT: note_on channel=9 note=46 velocity=127 time=0
EXTRACT: note_on channel=0 note=47 velocity=120 time=0
EXTRACT: note_off channel=4 note=54 velocity=0 time=0.05434775
EXTRACT: note_off channel=4 note=59 velocity=0 time=0
EXTRACT: note_off channel=9 note=46 velocity=0 time=0
EXTRACT: note_off channel=1 note=47 velocity=0 time=0.1086955
EXTRACT: note_off channel=1 note=35 velocity=0 time=0
EXTRACT: note_off channel=0 note=47 velocity=0 time=0
EXTRACT: note_off channel=3 note=66 velocity=0 time=0.009057958333333335
EXTRACT: note_on channel=3 note=63 velocity=127 time=0.04528979166666667
EXTRACT: note_on channel=4 note=59 velocity=105 time=0
EXTRACT: note_on channel=4 note=54 velocity=105 time=0
EXTRACT: note_on channel=9 note=36 velocity=127 time=0
EXTRACT: note_on channel=9 note=36 velocity=127 time=0
EXTRACT: note_on channel=9 note=36 velocity=127 time=0
EXTRACT: note_on channel=9 note=36 velocity=127 time=0
EXTRACT: note_on channel=9 note=28 velocity=127 time=0
EXTRACT: note_on channel=9 note=42 velocity=127 time=0
EXTRACT: note_on channel=9 note=76 velocity=80 time=0
EXTRACT: note_off channel=9 note=76 velocity=0 time=0.027173875
EXTRACT: note_off channel=4 note=54 velocity=0 time=0.027173875
EXTRACT: note_off channel=4 note=59 velocity=0 time=0
EXTRACT: note_off channel=9 note=42 velocity=0 time=0
EXTRACT: note_off channel=9 note=36 velocity=64 time=0
EXTRACT: note_off channel=9 note=36 velocity=64 time=0
EXTRACT: note_off channel=9 note=36 velocity=64 time=0
EXTRACT: note_off channel=9 note=36 velocity=64 time=0
EXTRACT: note_off channel=3 note=63 velocity=0 time=0.13586937500000001
EXTRACT: note_on channel=1 note=35 velocity=110 time=0.027173875
EXTRACT: note_on channel=1 note=47 velocity=110 time=0
EXTRACT: note_on channel=3 note=61 velocity=127 time=0
EXTRACT: note_on channel=9 note=46 velocity=127 time=0
EXTRACT: note_on channel=9 note=76 velocity=80 time=0
EXTRACT: note_on channel=0 note=47 velocity=120 time=0
EXTRACT: note_off channel=9 note=76 velocity=0 time=0.027173875
EXTRACT: note_off channel=9 note=46 velocity=0 time=0.027173875
EXTRACT: note_on channel=4 note=59 velocity=105 time=0.05434775
EXTRACT: note_on channel=4 note=54 velocity=105 time=0
EXTRACT: note_off channel=1 note=47 velocity=0 time=0.05434775
EXTRACT: note_off channel=1 note=35 velocity=0 time=0
EXTRACT: note_off channel=4 note=54 velocity=0 time=0
EXTRACT: note_off channel=4 note=59 velocity=0 time=0
EXTRACT: note_off channel=0 note=47 velocity=0 time=0
EXTRACT: note_off channel=3 note=61 velocity=0 time=0.0135869375
EXTRACT: note_off channel=9 note=28 velocity=0 time=0.027173875
EXTRACT: note_on channel=3 note=66 velocity=127 time=0.0135869375
EXTRACT: note_on channel=4 note=61 velocity=105 time=0
EXTRACT: note_on channel=4 note=56 velocity=105 time=0
EXTRACT: note_on channel=9 note=36 velocity=127 time=0
EXTRACT: note_on channel=9 note=36 velocity=127 time=0
EXTRACT: note_on channel=9 note=36 velocity=127 time=0
EXTRACT: note_on channel=9 note=36 velocity=127 time=0
EXTRACT: note_on channel=9 note=42 velocity=127 time=0
EXTRACT: note_off channel=4 note=56 velocity=0 time=0.05434775
EXTRACT: note_off channel=4 note=61 velocity=0 time=0
EXTRACT: note_off channel=9 note=42 velocity=0 time=0
EXTRACT: note_off channel=9 note=36 velocity=64 time=0
EXTRACT: note_off channel=9 note=36 velocity=64 time=0
EXTRACT: note_off channel=9 note=36 velocity=64 time=0
EXTRACT: note_off channel=9 note=36 velocity=64 time=0
EXTRACT: note_on channel=1 note=37 velocity=110 time=0.16304325
EXTRACT: note_on channel=1 note=49 velocity=110 time=0
EXTRACT: note_on channel=4 note=61 velocity=105 time=0
EXTRACT: note_on channel=4 note=56 velocity=105 time=0
EXTRACT: note_on channel=9 note=46 velocity=127 time=0
EXTRACT: note_on channel=0 note=49 velocity=120 time=0
EXTRACT: note_off channel=4 note=56 velocity=0 time=0.05434775
EXTRACT: note_off channel=4 note=61 velocity=0 time=0
EXTRACT: note_off channel=9 note=46 velocity=0 time=0
EXTRACT: note_on channel=9 note=36 velocity=127 time=0.05434775
EXTRACT: note_on channel=9 note=36 velocity=127 time=0
EXTRACT: note_on channel=9 note=36 velocity=127 time=0
EXTRACT: note_on channel=9 note=36 velocity=127 time=0
EXTRACT: note_off channel=1 note=49 velocity=0 time=0.05434775
EXTRACT: note_off channel=1 note=37 velocity=0 time=0
EXTRACT: note_off channel=9 note=36 velocity=64 time=0
EXTRACT: note_off channel=9 note=36 velocity=64 time=0
EXTRACT: note_off channel=9 note=36 velocity=64 time=0
EXTRACT: note_off channel=9 note=36 velocity=64 time=0
EXTRACT: note_off channel=0 note=49 velocity=0 time=0
EXTRACT: note_off channel=3 note=66 velocity=0 time=0.04981877083333334
EXTRACT: note_on channel=3 note=63 velocity=127 time=0.004528979166666667
EXTRACT: note_on channel=4 note=61 velocity=105 time=0
EXTRACT: note_on channel=4 note=56 velocity=105 time=0
EXTRACT: note_on channel=9 note=36 velocity=127 time=0
EXTRACT: note_on channel=9 note=36 velocity=127 time=0
EXTRACT: note_on channel=9 note=36 velocity=127 time=0
EXTRACT: note_on channel=9 note=36 velocity=127 time=0
EXTRACT: note_on channel=9 note=28 velocity=127 time=0
EXTRACT: note_on channel=9 note=42 velocity=127 time=0
EXTRACT: note_on channel=9 note=76 velocity=80 time=0
EXTRACT: note_off channel=9 note=76 velocity=0 time=0.027173875
EXTRACT: note_off channel=4 note=56 velocity=0 time=0.027173875
EXTRACT: note_off channel=4 note=61 velocity=0 time=0
EXTRACT: note_off channel=9 note=42 velocity=0 time=0
EXTRACT: note_off channel=9 note=36 velocity=64 time=0
EXTRACT: note_off channel=9 note=36 velocity=64 time=0
EXTRACT: note_off channel=9 note=36 velocity=64 time=0
EXTRACT: note_off channel=9 note=36 velocity=64 time=0
EXTRACT: note_off channel=3 note=63 velocity=0 time=0.15398529166666666
EXTRACT: note_on channel=1 note=37 velocity=110 time=0.009057958333333335
EXTRACT: note_on channel=1 note=49 velocity=110 time=0
EXTRACT: note_on channel=3 note=61 velocity=127 time=0
EXTRACT: note_on channel=9 note=36 velocity=127 time=0
EXTRACT: note_on channel=9 note=36 velocity=127 time=0
EXTRACT: note_on channel=9 note=36 velocity=127 time=0
EXTRACT: note_on channel=9 note=36 velocity=127 time=0
EXTRACT: note_on channel=9 note=46 velocity=127 time=0
EXTRACT: note_on channel=0 note=49 velocity=120 time=0
EXTRACT: note_off channel=9 note=46 velocity=0 time=0.05434775
EXTRACT: note_off channel=9 note=36 velocity=64 time=0
EXTRACT: note_off channel=9 note=36 velocity=64 time=0
EXTRACT: note_off channel=9 note=36 velocity=64 time=0
EXTRACT: note_off channel=9 note=36 velocity=64 time=0
EXTRACT: note_off channel=3 note=61 velocity=0 time=0.06793468750000001
EXTRACT: note_off channel=1 note=49 velocity=0 time=0.0407608125
EXTRACT: note_off channel=1 note=37 velocity=0 time=0
EXTRACT: note_off channel=0 note=49 velocity=0 time=0
EXTRACT: note_off channel=9 note=28 velocity=0 time=0.0407608125
EXTRACT: note_on channel=4 note=66 velocity=105 time=0.0135869375
EXTRACT: note_on channel=4 note=61 velocity=105 time=0
EXTRACT: note_on channel=9 note=36 velocity=127 time=0
EXTRACT: note_on channel=9 note=36 velocity=127 time=0
EXTRACT: note_on channel=9 note=36 velocity=127 time=0
EXTRACT: note_on channel=9 note=36 velocity=127 time=0
EXTRACT: note_on channel=9 note=42 velocity=127 time=0
EXTRACT: note_off channel=4 note=61 velocity=0 time=0.05434775
EXTRACT: note_off channel=4 note=66 velocity=0 time=0
EXTRACT: note_off channel=9 note=42 velocity=0 time=0
EXTRACT: note_off channel=9 note=36 velocity=64 time=0
EXTRACT: note_off channel=9 note=36 velocity=64 time=0
EXTRACT: note_off channel=9 note=36 velocity=64 time=0
EXTRACT: note_off channel=9 note=36 velocity=64 time=0
EXTRACT: note_on channel=1 note=42 velocity=110 time=0.16304325
EXTRACT: note_on channel=1 note=54 velocity=110 time=0
EXTRACT: note_on channel=4 note=66 velocity=105 time=0
EXTRACT: note_on channel=4 note=61 velocity=105 time=0
EXTRACT: note_on channel=9 note=46 velocity=127 time=0
EXTRACT: note_on channel=0 note=54 velocity=120 time=0
EXTRACT: note_off channel=4 note=61 velocity=0 time=0.05434775
EXTRACT: note_off channel=4 note=66 velocity=0 time=0
EXTRACT: note_off channel=9 note=46 velocity=0 time=0
EXTRACT: note_off channel=1 note=54 velocity=0 time=0.1086955
EXTRACT: note_off channel=1 note=42 velocity=0 time=0
EXTRACT: note_off channel=0 note=54 velocity=0 time=0
EXTRACT: note_on channel=4 note=66 velocity=105 time=0.05434775
EXTRACT: note_on channel=4 note=61 velocity=105 time=0
EXTRACT: note_on channel=9 note=36 velocity=127 time=0
EXTRACT: note_on channel=9 note=36 velocity=127 time=0
EXTRACT: note_on channel=9 note=36 velocity=127 time=0
EXTRACT: note_on channel=9 note=36 velocity=127 time=0
EXTRACT: note_on channel=9 note=28 velocity=127 time=0
EXTRACT: note_on channel=9 note=42 velocity=127 time=0
EXTRACT: note_on channel=9 note=76 velocity=80 time=0
EXTRACT: note_off channel=9 note=76 velocity=0 time=0.027173875
EXTRACT: note_off channel=4 note=61 velocity=0 time=0.027173875
EXTRACT: note_off channel=4 note=66 velocity=0 time=0
EXTRACT: note_off channel=9 note=42 velocity=0 time=0
EXTRACT: note_off channel=9 note=36 velocity=64 time=0
EXTRACT: note_off channel=9 note=36 velocity=64 time=0
EXTRACT: note_off channel=9 note=36 velocity=64 time=0
EXTRACT: note_off channel=9 note=36 velocity=64 time=0
EXTRACT: note_on channel=1 note=42 velocity=110 time=0.16304325
EXTRACT: note_on channel=1 note=54 velocity=110 time=0
EXTRACT: note_on channel=9 note=46 velocity=127 time=0
EXTRACT: note_on channel=9 note=76 velocity=80 time=0
EXTRACT: note_on channel=0 note=54 velocity=120 time=0
EXTRACT: note_off channel=9 note=76 velocity=0 time=0.027173875
EXTRACT: note_off channel=9 note=46 velocity=0 time=0.027173875
EXTRACT: note_on channel=4 note=66 velocity=105 time=0.05434775
EXTRACT: note_on channel=4 note=61 velocity=105 time=0
EXTRACT: note_off channel=1 note=54 velocity=0 time=0.05434775
EXTRACT: note_off channel=1 note=42 velocity=0 time=0
EXTRACT: note_off channel=4 note=61 velocity=0 time=0
EXTRACT: note_off channel=4 note=66 velocity=0 time=0
EXTRACT: note_off channel=0 note=54 velocity=0 time=0
EXTRACT: note_off channel=9 note=28 velocity=0 time=0.0407608125
EXTRACT: note_on channel=4 note=66 velocity=105 time=0.0135869375
EXTRACT: note_on channel=4 note=61 velocity=105 time=0
EXTRACT: note_on channel=9 note=36 velocity=127 time=0
EXTRACT: note_on channel=9 note=36 velocity=127 time=0
EXTRACT: note_on channel=9 note=36 velocity=127 time=0
EXTRACT: note_on channel=9 note=36 velocity=127 time=0
EXTRACT: note_on channel=9 note=42 velocity=127 time=0
EXTRACT: note_off channel=4 note=61 velocity=0 time=0.05434775
EXTRACT: note_off channel=4 note=66 velocity=0 time=0
EXTRACT: note_off channel=9 note=42 velocity=0 time=0
EXTRACT: note_off channel=9 note=36 velocity=64 time=0
EXTRACT: note_off channel=9 note=36 velocity=64 time=0
EXTRACT: note_off channel=9 note=36 velocity=64 time=0
EXTRACT: note_off channel=9 note=36 velocity=64 time=0
EXTRACT: note_on channel=1 note=42 velocity=110 time=0.16304325
EXTRACT: note_on channel=1 note=54 velocity=110 time=0
EXTRACT: note_on channel=4 note=66 velocity=105 time=0
EXTRACT: note_on channel=4 note=61 velocity=105 time=0
EXTRACT: note_on channel=9 note=46 velocity=127 time=0
EXTRACT: note_on channel=0 note=54 velocity=120 time=0
EXTRACT: note_off channel=4 note=61 velocity=0 time=0.05434775
EXTRACT: note_off channel=4 note=66 velocity=0 time=0
EXTRACT: note_off channel=9 note=46 velocity=0 time=0
EXTRACT: note_on channel=9 note=36 velocity=127 time=0.05434775
EXTRACT: note_on channel=9 note=36 velocity=127 time=0
EXTRACT: note_on channel=9 note=36 velocity=127 time=0
EXTRACT: note_on channel=9 note=36 velocity=127 time=0
EXTRACT: note_off channel=1 note=54 velocity=0 time=0.05434775
EXTRACT: note_off channel=1 note=42 velocity=0 time=0
EXTRACT: note_off channel=9 note=36 velocity=64 time=0
EXTRACT: note_off channel=9 note=36 velocity=64 time=0
EXTRACT: note_off channel=9 note=36 velocity=64 time=0
EXTRACT: note_off channel=9 note=36 velocity=64 time=0
EXTRACT: note_off channel=0 note=54 velocity=0 time=0
EXTRACT: note_on channel=4 note=66 velocity=105 time=0.05434775
EXTRACT: note_on channel=4 note=61 velocity=105 time=0
EXTRACT: note_on channel=9 note=36 velocity=127 time=0
EXTRACT: note_on channel=9 note=36 velocity=127 time=0
EXTRACT: note_on channel=9 note=36 velocity=127 time=0
EXTRACT: note_on channel=9 note=36 velocity=127 time=0
EXTRACT: note_on channel=9 note=28 velocity=127 time=0
EXTRACT: note_on channel=9 note=42 velocity=127 time=0
EXTRACT: note_on channel=9 note=76 velocity=80 time=0
EXTRACT: note_off channel=9 note=76 velocity=0 time=0.027173875
EXTRACT: note_off channel=4 note=61 velocity=0 time=0.027173875
EXTRACT: note_off channel=4 note=66 velocity=0 time=0
EXTRACT: note_off channel=9 note=42 velocity=0 time=0
EXTRACT: note_off channel=9 note=36 velocity=64 time=0
EXTRACT: note_off channel=9 note=36 velocity=64 time=0
EXTRACT: note_off channel=9 note=36 velocity=64 time=0
EXTRACT: note_off channel=9 note=36 velocity=64 time=0
EXTRACT: note_on channel=1 note=42 velocity=110 time=0.16304325
EXTRACT: note_on channel=1 note=54 velocity=110 time=0
EXTRACT: note_on channel=9 note=36 velocity=127 time=0
EXTRACT: note_on channel=9 note=36 velocity=127 time=0
EXTRACT: note_on channel=9 note=36 velocity=127 time=0
EXTRACT: note_on channel=9 note=36 velocity=127 time=0
EXTRACT: note_on channel=9 note=46 velocity=127 time=0
EXTRACT: note_on channel=0 note=54 velocity=120 time=0
EXTRACT: note_off channel=9 note=46 velocity=0 time=0.05434775
EXTRACT: note_off channel=9 note=36 velocity=64 time=0
EXTRACT: note_off channel=9 note=36 velocity=64 time=0
EXTRACT: note_off channel=9 note=36 velocity=64 time=0
EXTRACT: note_off channel=9 note=36 velocity=64 time=0
EXTRACT: note_off channel=1 note=54 velocity=0 time=0.1086955
EXTRACT: note_off channel=1 note=42 velocity=0 time=0
EXTRACT: note_off channel=0 note=54 velocity=0 time=0
EXTRACT: note_off channel=9 note=28 velocity=0 time=0.0407608125
EXTRACT: note_on channel=3 note=66 velocity=127 time=0.0135869375
EXTRACT: note_on channel=4 note=66 velocity=105 time=0
EXTRACT: note_on channel=4 note=61 velocity=105 time=0
EXTRACT: note_on channel=9 note=36 velocity=127 time=0
EXTRACT: note_on channel=9 note=36 velocity=127 time=0
EXTRACT: note_on channel=9 note=36 velocity=127 time=0
EXTRACT: note_on channel=9 note=36 velocity=127 time=0
EXTRACT: note_on channel=9 note=42 velocity=127 time=0
EXTRACT: note_off channel=4 note=61 velocity=0 time=0.05434775
EXTRACT: note_off channel=4 note=66 velocity=0 time=0
EXTRACT: note_off channel=9 note=42 velocity=0 time=0
EXTRACT: note_off channel=9 note=36 velocity=64 time=0
EXTRACT: note_off channel=9 note=36 velocity=64 time=0
EXTRACT: note_off channel=9 note=36 velocity=64 time=0
EXTRACT: note_off channel=9 note=36 velocity=64 time=0
EXTRACT: note_on channel=1 note=42 velocity=110 time=0.16304325
EXTRACT: note_on channel=1 note=54 velocity=110 time=0
EXTRACT: note_on channel=4 note=66 velocity=105 time=0
EXTRACT: note_on channel=4 note=61 velocity=105 time=0
EXTRACT: note_on channel=9 note=46 velocity=127 time=0
EXTRACT: note_on channel=0 note=54 velocity=120 time=0
EXTRACT: note_off channel=4 note=61 velocity=0 time=0.05434775
EXTRACT: note_off channel=4 note=66 velocity=0 time=0
EXTRACT: note_off channel=9 note=46 velocity=0 time=0
EXTRACT: note_off channel=1 note=54 velocity=0 time=0.1086955
EXTRACT: note_off channel=1 note=42 velocity=0 time=0
EXTRACT: note_off channel=0 note=54 velocity=0 time=0
EXTRACT: note_off channel=3 note=66 velocity=0 time=0.04528979166666667
EXTRACT: note_on channel=3 note=63 velocity=127 time=0.009057958333333335
EXTRACT: note_on channel=4 note=66 velocity=105 time=0
EXTRACT: note_on channel=4 note=61 velocity=105 time=0
EXTRACT: note_on channel=9 note=36 velocity=127 time=0
EXTRACT: note_on channel=9 note=36 velocity=127 time=0
EXTRACT: note_on channel=9 note=36 velocity=127 time=0
EXTRACT: note_on channel=9 note=36 velocity=127 time=0
EXTRACT: note_on channel=9 note=28 velocity=127 time=0
EXTRACT: note_on channel=9 note=42 velocity=127 time=0
EXTRACT: note_on channel=9 note=76 velocity=80 time=0
EXTRACT: note_off channel=9 note=76 velocity=0 time=0.027173875
EXTRACT: note_off channel=4 note=61 velocity=0 time=0.027173875
EXTRACT: note_off channel=4 note=66 velocity=0 time=0
EXTRACT: note_off channel=9 note=42 velocity=0 time=0
EXTRACT: note_off channel=9 note=36 velocity=64 time=0
EXTRACT: note_off channel=9 note=36 velocity=64 time=0
EXTRACT: note_off channel=9 note=36 velocity=64 time=0
EXTRACT: note_off channel=9 note=36 velocity=64 time=0
EXTRACT: note_off channel=3 note=63 velocity=0 time=0.13586937500000001
EXTRACT: note_on channel=1 note=42 velocity=110 time=0.027173875
EXTRACT: note_on channel=1 note=54 velocity=110 time=0
EXTRACT: note_on channel=3 note=61 velocity=127 time=0
EXTRACT: note_on channel=9 note=46 velocity=127 time=0
EXTRACT: note_on channel=9 note=76 velocity=80 time=0
EXTRACT: note_on channel=0 note=54 velocity=120 time=0
EXTRACT: note_off channel=9 note=76 velocity=0 time=0.027173875
EXTRACT: note_off channel=9 note=46 velocity=0 time=0.027173875
EXTRACT: note_on channel=4 note=66 velocity=105 time=0.05434775
EXTRACT: note_on channel=4 note=61 velocity=105 time=0
EXTRACT: note_off channel=1 note=54 velocity=0 time=0.05434775
EXTRACT: note_off channel=1 note=42 velocity=0 time=0
EXTRACT: note_off channel=4 note=61 velocity=0 time=0
EXTRACT: note_off channel=4 note=66 velocity=0 time=0
EXTRACT: note_off channel=0 note=54 velocity=0 time=0
EXTRACT: note_off channel=3 note=61 velocity=0 time=0.0407608125
EXTRACT: note_off channel=9 note=28 velocity=0 time=0
EXTRACT: note_on channel=3 note=66 velocity=127 time=0.0135869375
EXTRACT: note_on channel=4 note=61 velocity=105 time=0
EXTRACT: note_on channel=4 note=56 velocity=105 time=0
EXTRACT: note_on channel=9 note=36 velocity=127 time=0
EXTRACT: note_on channel=9 note=36 velocity=127 time=0
EXTRACT: note_on channel=9 note=36 velocity=127 time=0
EXTRACT: note_on channel=9 note=36 velocity=127 time=0
EXTRACT: note_on channel=9 note=42 velocity=127 time=0
EXTRACT: note_off channel=4 note=56 velocity=0 time=0.05434775
EXTRACT: note_off channel=4 note=61 velocity=0 time=0
EXTRACT: note_off channel=9 note=42 velocity=0 time=0
EXTRACT: note_off channel=9 note=36 velocity=64 time=0
EXTRACT: note_off channel=9 note=36 velocity=64 time=0
EXTRACT: note_off channel=9 note=36 velocity=64 time=0
EXTRACT: note_off channel=9 note=36 velocity=64 time=0
EXTRACT: note_on channel=1 note=37 velocity=110 time=0.16304325
EXTRACT: note_on channel=1 note=49 velocity=110 time=0
EXTRACT: note_on channel=4 note=61 velocity=105 time=0
EXTRACT: note_on channel=4 note=56 velocity=105 time=0
EXTRACT: note_on channel=9 note=46 velocity=127 time=0
EXTRACT: note_on channel=0 note=49 velocity=120 time=0
EXTRACT: note_off channel=4 note=56 velocity=0 time=0.05434775
EXTRACT: note_off channel=4 note=61 velocity=0 time=0
EXTRACT: note_off channel=9 note=46 velocity=0 time=0
EXTRACT: note_on channel=9 note=36 velocity=127 time=0.05434775
EXTRACT: note_on channel=9 note=36 velocity=127 time=0
EXTRACT: note_on channel=9 note=36 velocity=127 time=0
EXTRACT: note_on channel=9 note=36 velocity=127 time=0
EXTRACT: note_off channel=1 note=49 velocity=0 time=0.05434775
EXTRACT: note_off channel=1 note=37 velocity=0 time=0
EXTRACT: note_off channel=9 note=36 velocity=64 time=0
EXTRACT: note_off channel=9 note=36 velocity=64 time=0
EXTRACT: note_off channel=9 note=36 velocity=64 time=0
EXTRACT: note_off channel=9 note=36 velocity=64 time=0
EXTRACT: note_off channel=0 note=49 velocity=0 time=0
EXTRACT: note_off channel=3 note=66 velocity=0 time=0.03170285416666667
EXTRACT: note_on channel=3 note=63 velocity=127 time=0.022644895833333335
EXTRACT: note_on channel=4 note=61 velocity=105 time=0
EXTRACT: note_on channel=4 note=56 velocity=105 time=0
EXTRACT: note_on channel=9 note=36 velocity=127 time=0
EXTRACT: note_on channel=9 note=36 velocity=127 time=0
EXTRACT: note_on channel=9 note=36 velocity=127 time=0
EXTRACT: note_on channel=9 note=36 velocity=127 time=0
EXTRACT: note_on channel=9 note=28 velocity=127 time=0
EXTRACT: note_on channel=9 note=42 velocity=127 time=0
EXTRACT: note_on channel=9 note=76 velocity=80 time=0
EXTRACT: note_off channel=9 note=76 velocity=0 time=0.027173875
EXTRACT: note_off channel=4 note=56 velocity=0 time=0.027173875
EXTRACT: note_off channel=4 note=61 velocity=0 time=0
EXTRACT: note_off channel=9 note=42 velocity=0 time=0
EXTRACT: note_off channel=9 note=36 velocity=64 time=0
EXTRACT: note_off channel=9 note=36 velocity=64 time=0
EXTRACT: note_off channel=9 note=36 velocity=64 time=0
EXTRACT: note_off channel=9 note=36 velocity=64 time=0
EXTRACT: note_off channel=3 note=63 velocity=0 time=0.1494563125
EXTRACT: note_on channel=1 note=37 velocity=110 time=0.0135869375
EXTRACT: note_on channel=1 note=49 velocity=110 time=0
EXTRACT: note_on channel=3 note=61 velocity=127 time=0
EXTRACT: note_on channel=9 note=36 velocity=127 time=0
EXTRACT: note_on channel=9 note=36 velocity=127 time=0
EXTRACT: note_on channel=9 note=36 velocity=127 time=0
EXTRACT: note_on channel=9 note=36 velocity=127 time=0
EXTRACT: note_on channel=9 note=46 velocity=127 time=0
EXTRACT: note_on channel=0 note=49 velocity=120 time=0
EXTRACT: note_off channel=9 note=46 velocity=0 time=0.05434775
EXTRACT: note_off channel=9 note=36 velocity=64 time=0
EXTRACT: note_off channel=9 note=36 velocity=64 time=0
EXTRACT: note_off channel=9 note=36 velocity=64 time=0
EXTRACT: note_off channel=9 note=36 velocity=64 time=0
EXTRACT: note_off channel=1 note=49 velocity=0 time=0.1086955
EXTRACT: note_off channel=1 note=37 velocity=0 time=0
EXTRACT: note_off channel=0 note=49 velocity=0 time=0
EXTRACT: note_off channel=9 note=28 velocity=0 time=0.0407608125
EXTRACT: note_off channel=3 note=61 velocity=64 time=0.0135869375
EXTRACT: note_on channel=4 note=63 velocity=105 time=0
EXTRACT: note_on channel=4 note=58 velocity=105 time=0
EXTRACT: note_on channel=9 note=36 velocity=127 time=0
EXTRACT: note_on channel=9 note=36 velocity=127 time=0
EXTRACT: note_on channel=9 note=36 velocity=127 time=0
EXTRACT: note_on channel=9 note=36 velocity=127 time=0
EXTRACT: note_on channel=9 note=42 velocity=127 time=0
EXTRACT: note_off channel=4 note=58 velocity=0 time=0.05434775
EXTRACT: note_off channel=4 note=63 velocity=0 time=0
EXTRACT: note_off channel=9 note=42 velocity=0 time=0
EXTRACT: note_off channel=9 note=36 velocity=64 time=0
EXTRACT: note_off channel=9 note=36 velocity=64 time=0
EXTRACT: note_off channel=9 note=36 velocity=64 time=0
EXTRACT: note_off channel=9 note=36 velocity=64 time=0
EXTRACT: note_on channel=1 note=39 velocity=110 time=0.16304325
EXTRACT: note_on channel=1 note=51 velocity=110 time=0
EXTRACT: note_on channel=4 note=63 velocity=105 time=0
EXTRACT: note_on channel=4 note=58 velocity=105 time=0
EXTRACT: note_on channel=9 note=46 velocity=127 time=0
EXTRACT: note_on channel=0 note=51 velocity=120 time=0
EXTRACT: note_off channel=4 note=58 velocity=0 time=0.05434775
EXTRACT: note_off channel=4 note=63 velocity=0 time=0
EXTRACT: note_off channel=9 note=46 velocity=0 time=0
EXTRACT: note_off channel=1 note=51 velocity=0 time=0.1086955
EXTRACT: note_off channel=1 note=39 velocity=0 time=0
EXTRACT: note_off channel=0 note=51 velocity=0 time=0
EXTRACT: note_on channel=4 note=63 velocity=105 time=0.05434775
EXTRACT: note_on channel=4 note=58 velocity=105 time=0
EXTRACT: note_on channel=9 note=36 velocity=127 time=0
EXTRACT: note_on channel=9 note=36 velocity=127 time=0
EXTRACT: note_on channel=9 note=36 velocity=127 time=0
EXTRACT: note_on channel=9 note=36 velocity=127 time=0
EXTRACT: note_on channel=9 note=28 velocity=127 time=0
EXTRACT: note_on channel=9 note=42 velocity=127 time=0
EXTRACT: note_on channel=9 note=76 velocity=80 time=0
EXTRACT: note_off channel=9 note=76 velocity=0 time=0.027173875
EXTRACT: note_off channel=4 note=58 velocity=0 time=0.027173875
EXTRACT: note_off channel=4 note=63 velocity=0 time=0
EXTRACT: note_off channel=9 note=42 velocity=0 time=0
EXTRACT: note_off channel=9 note=36 velocity=64 time=0
EXTRACT: note_off channel=9 note=36 velocity=64 time=0
EXTRACT: note_off channel=9 note=36 velocity=64 time=0
EXTRACT: note_off channel=9 note=36 velocity=64 time=0
EXTRACT: note_on channel=1 note=39 velocity=110 time=0.16304325
EXTRACT: note_on channel=1 note=51 velocity=110 time=0
EXTRACT: note_on channel=9 note=46 velocity=127 time=0
EXTRACT: note_on channel=9 note=76 velocity=80 time=0
EXTRACT: note_on channel=0 note=51 velocity=120 time=0
EXTRACT: note_off channel=9 note=76 velocity=0 time=0.027173875
EXTRACT: note_off channel=9 note=46 velocity=0 time=0.027173875
EXTRACT: note_on channel=4 note=63 velocity=105 time=0.05434775
EXTRACT: note_on channel=4 note=58 velocity=105 time=0
EXTRACT: note_off channel=1 note=51 velocity=0 time=0.05434775
EXTRACT: note_off channel=1 note=39 velocity=0 time=0
EXTRACT: note_off channel=4 note=58 velocity=0 time=0
EXTRACT: note_off channel=4 note=63 velocity=0 time=0
EXTRACT: note_off channel=0 note=51 velocity=0 time=0
EXTRACT: note_off channel=9 note=28 velocity=0 time=0.0407608125
EXTRACT: note_on channel=4 note=63 velocity=105 time=0.0135869375
EXTRACT: note_on channel=4 note=58 velocity=105 time=0
EXTRACT: note_on channel=9 note=36 velocity=127 time=0
EXTRACT: note_on channel=9 note=36 velocity=127 time=0
EXTRACT: note_on channel=9 note=36 velocity=127 time=0
EXTRACT: note_on channel=9 note=36 velocity=127 time=0
EXTRACT: note_on channel=9 note=42 velocity=127 time=0
EXTRACT: note_off channel=4 note=58 velocity=0 time=0.05434775
EXTRACT: note_off channel=4 note=63 velocity=0 time=0
EXTRACT: note_off channel=9 note=42 velocity=0 time=0
EXTRACT: note_off channel=9 note=36 velocity=64 time=0
EXTRACT: note_off channel=9 note=36 velocity=64 time=0
EXTRACT: note_off channel=9 note=36 velocity=64 time=0
EXTRACT: note_off channel=9 note=36 velocity=64 time=0
EXTRACT: note_on channel=1 note=39 velocity=110 time=0.16304325
EXTRACT: note_on channel=1 note=51 velocity=110 time=0
EXTRACT: note_on channel=4 note=63 velocity=105 time=0
EXTRACT: note_on channel=4 note=58 velocity=105 time=0
EXTRACT: note_on channel=9 note=46 velocity=127 time=0
EXTRACT: note_on channel=0 note=51 velocity=120 time=0
EXTRACT: note_off channel=4 note=58 velocity=0 time=0.05434775
EXTRACT: note_off channel=4 note=63 velocity=0 time=0
EXTRACT: note_off channel=9 note=46 velocity=0 time=0
EXTRACT: note_on channel=9 note=36 velocity=127 time=0.05434775
EXTRACT: note_on channel=9 note=36 velocity=127 time=0
EXTRACT: note_on channel=9 note=36 velocity=127 time=0
EXTRACT: note_on channel=9 note=36 velocity=127 time=0
EXTRACT: note_off channel=1 note=51 velocity=0 time=0.05434775
EXTRACT: note_off channel=1 note=39 velocity=0 time=0
EXTRACT: note_off channel=9 note=36 velocity=64 time=0
EXTRACT: note_off channel=9 note=36 velocity=64 time=0
EXTRACT: note_off channel=9 note=36 velocity=64 time=0
EXTRACT: note_off channel=9 note=36 velocity=64 time=0
EXTRACT: note_off channel=0 note=51 velocity=0 time=0
EXTRACT: note_on channel=4 note=63 velocity=105 time=0.05434775
EXTRACT: note_on channel=4 note=58 velocity=105 time=0
EXTRACT: note_on channel=9 note=36 velocity=127 time=0
EXTRACT: note_on channel=9 note=36 velocity=127 time=0
EXTRACT: note_on channel=9 note=36 velocity=127 time=0
EXTRACT: note_on channel=9 note=36 velocity=127 time=0
EXTRACT: note_on channel=9 note=28 velocity=127 time=0
EXTRACT: note_on channel=9 note=42 velocity=127 time=0
EXTRACT: note_on channel=9 note=76 velocity=80 time=0
EXTRACT: note_off channel=9 note=76 velocity=0 time=0.027173875
EXTRACT: note_off channel=4 note=58 velocity=0 time=0.027173875
EXTRACT: note_off channel=4 note=63 velocity=0 time=0
EXTRACT: note_off channel=9 note=42 velocity=0 time=0
EXTRACT: note_off channel=9 note=36 velocity=64 time=0
EXTRACT: note_off channel=9 note=36 velocity=64 time=0
EXTRACT: note_off channel=9 note=36 velocity=64 time=0
EXTRACT: note_off channel=9 note=36 velocity=64 time=0
EXTRACT: note_on channel=1 note=39 velocity=110 time=0.16304325
EXTRACT: note_on channel=1 note=51 velocity=110 time=0
EXTRACT: note_on channel=9 note=36 velocity=127 time=0
EXTRACT: note_on channel=9 note=36 velocity=127 time=0
EXTRACT: note_on channel=9 note=36 velocity=127 time=0
EXTRACT: note_on channel=9 note=36 velocity=127 time=0
EXTRACT: note_on channel=9 note=46 velocity=127 time=0
EXTRACT: note_on channel=0 note=51 velocity=120 time=0
EXTRACT: note_off channel=9 note=46 velocity=0 time=0.05434775
EXTRACT: note_off channel=9 note=36 velocity=64 time=0
EXTRACT: note_off channel=9 note=36 velocity=64 time=0
EXTRACT: note_off channel=9 note=36 velocity=64 time=0
EXTRACT: note_off channel=9 note=36 velocity=64 time=0
EXTRACT: note_off channel=1 note=51 velocity=0 time=0.1086955
EXTRACT: note_off channel=1 note=39 velocity=0 time=0
EXTRACT: note_off channel=0 note=51 velocity=0 time=0
EXTRACT: note_off channel=9 note=28 velocity=0 time=0.0407608125
EXTRACT: note_on channel=3 note=66 velocity=127 time=0.0135869375
EXTRACT: note_on channel=4 note=59 velocity=105 time=0
EXTRACT: note_on channel=4 note=54 velocity=105 time=0
EXTRACT: note_on channel=9 note=36 velocity=127 time=0
EXTRACT: note_on channel=9 note=36 velocity=127 time=0
EXTRACT: note_on channel=9 note=36 velocity=127 time=0
EXTRACT: note_on channel=9 note=36 velocity=127 time=0
EXTRACT: note_on channel=9 note=42 velocity=127 time=0
EXTRACT: note_off channel=4 note=54 velocity=0 time=0.05434775
EXTRACT: note_off channel=4 note=59 velocity=0 time=0
EXTRACT: note_off channel=9 note=42 velocity=0 time=0
EXTRACT: note_off channel=9 note=36 velocity=64 time=0
EXTRACT: note_off channel=9 note=36 velocity=64 time=0
EXTRACT: note_off channel=9 note=36 velocity=64 time=0
EXTRACT: note_off channel=9 note=36 velocity=64 time=0
EXTRACT: note_on channel=1 note=35 velocity=110 time=0.16304325
EXTRACT: note_on channel=1 note=47 velocity=110 time=0
EXTRACT: note_on channel=4 note=59 velocity=105 time=0
EXTRACT: note_on channel=4 note=54 velocity=105 time=0
EXTRACT: note_on channel=9 note=46 velocity=127 time=0
EXTRACT: note_on channel=0 note=47 velocity=120 time=0
EXTRACT: note_off channel=4 note=54 velocity=0 time=0.05434775
EXTRACT: note_off channel=4 note=59 velocity=0 time=0
EXTRACT: note_off channel=9 note=46 velocity=0 time=0
EXTRACT: note_off channel=1 note=47 velocity=0 time=0.1086955
EXTRACT: note_off channel=1 note=35 velocity=0 time=0
EXTRACT: note_off channel=0 note=47 velocity=0 time=0
EXTRACT: note_off channel=3 note=66 velocity=0 time=0.022644895833333335
EXTRACT: note_on channel=3 note=63 velocity=127 time=0.03170285416666667
EXTRACT: note_on channel=4 note=59 velocity=105 time=0
EXTRACT: note_on channel=4 note=54 velocity=105 time=0
EXTRACT: note_on channel=9 note=36 velocity=127 time=0
EXTRACT: note_on channel=9 note=36 velocity=127 time=0
EXTRACT: note_on channel=9 note=36 velocity=127 time=0
EXTRACT: note_on channel=9 note=36 velocity=127 time=0
EXTRACT: note_on channel=9 note=28 velocity=127 time=0
EXTRACT: note_on channel=9 note=42 velocity=127 time=0
EXTRACT: note_on channel=9 note=76 velocity=80 time=0
EXTRACT: note_off channel=9 note=76 velocity=0 time=0.027173875
EXTRACT: note_off channel=4 note=54 velocity=0 time=0.027173875
EXTRACT: note_off channel=4 note=59 velocity=0 time=0
EXTRACT: note_off channel=9 note=42 velocity=0 time=0
EXTRACT: note_off channel=9 note=36 velocity=64 time=0
EXTRACT: note_off channel=9 note=36 velocity=64 time=0
EXTRACT: note_off channel=9 note=36 velocity=64 time=0
EXTRACT: note_off channel=9 note=36 velocity=64 time=0
EXTRACT: note_off channel=3 note=63 velocity=0 time=0.12681141666666668
EXTRACT: note_on channel=1 note=35 velocity=110 time=0.03623183333333334
EXTRACT: note_on channel=1 note=47 velocity=110 time=0
EXTRACT: note_on channel=3 note=61 velocity=127 time=0
EXTRACT: note_on channel=9 note=46 velocity=127 time=0
EXTRACT: note_on channel=9 note=76 velocity=80 time=0
EXTRACT: note_on channel=0 note=47 velocity=120 time=0
EXTRACT: note_off channel=9 note=76 velocity=0 time=0.027173875
EXTRACT: note_off channel=9 note=46 velocity=0 time=0.027173875
EXTRACT: note_on channel=4 note=59 velocity=105 time=0.05434775
EXTRACT: note_on channel=4 note=54 velocity=105 time=0
EXTRACT: note_off channel=1 note=47 velocity=0 time=0.05434775
EXTRACT: note_off channel=1 note=35 velocity=0 time=0
EXTRACT: note_off channel=4 note=54 velocity=0 time=0
EXTRACT: note_off channel=4 note=59 velocity=0 time=0
EXTRACT: note_off channel=0 note=47 velocity=0 time=0
EXTRACT: note_off channel=3 note=61 velocity=0 time=0.0135869375
EXTRACT: note_off channel=9 note=28 velocity=0 time=0.027173875
EXTRACT: note_on channel=3 note=66 velocity=127 time=0.0135869375
EXTRACT: note_on channel=4 note=61 velocity=105 time=0
EXTRACT: note_on channel=4 note=56 velocity=105 time=0
EXTRACT: note_on channel=9 note=36 velocity=127 time=0
EXTRACT: note_on channel=9 note=36 velocity=127 time=0
EXTRACT: note_on channel=9 note=36 velocity=127 time=0
EXTRACT: note_on channel=9 note=36 velocity=127 time=0
EXTRACT: note_on channel=9 note=42 velocity=127 time=0
EXTRACT: note_off channel=4 note=56 velocity=0 time=0.05434775
EXTRACT: note_off channel=4 note=61 velocity=0 time=0
EXTRACT: note_off channel=9 note=42 velocity=0 time=0
EXTRACT: note_off channel=9 note=36 velocity=64 time=0
EXTRACT: note_off channel=9 note=36 velocity=64 time=0
EXTRACT: note_off channel=9 note=36 velocity=64 time=0
EXTRACT: note_off channel=9 note=36 velocity=64 time=0
EXTRACT: note_on channel=1 note=37 velocity=110 time=0.16304325
EXTRACT: note_on channel=1 note=49 velocity=110 time=0
EXTRACT: note_on channel=4 note=61 velocity=105 time=0
EXTRACT: note_on channel=4 note=56 velocity=105 time=0
EXTRACT: note_on channel=9 note=46 velocity=127 time=0
EXTRACT: note_on channel=0 note=49 velocity=120 time=0
EXTRACT: note_off channel=4 note=56 velocity=0 time=0.05434775
EXTRACT: note_off channel=4 note=61 velocity=0 time=0
EXTRACT: note_off channel=9 note=46 velocity=0 time=0
EXTRACT: note_on channel=9 note=36 velocity=127 time=0.05434775
EXTRACT: note_on channel=9 note=36 velocity=127 time=0
EXTRACT: note_on channel=9 note=36 velocity=127 time=0
EXTRACT: note_on channel=9 note=36 velocity=127 time=0
EXTRACT: note_off channel=1 note=49 velocity=0 time=0.05434775
EXTRACT: note_off channel=1 note=37 velocity=0 time=0
EXTRACT: note_off channel=9 note=36 velocity=64 time=0
EXTRACT: note_off channel=9 note=36 velocity=64 time=0
EXTRACT: note_off channel=9 note=36 velocity=64 time=0
EXTRACT: note_off channel=9 note=36 velocity=64 time=0
EXTRACT: note_off channel=0 note=49 velocity=0 time=0
EXTRACT: note_off channel=3 note=66 velocity=0 time=0.0407608125
EXTRACT: note_on channel=3 note=63 velocity=127 time=0.0135869375
EXTRACT: note_on channel=4 note=61 velocity=105 time=0
EXTRACT: note_on channel=4 note=56 velocity=105 time=0
EXTRACT: note_on channel=6 note=65 velocity=115 time=0
EXTRACT: note_on channel=9 note=36 velocity=127 time=0
EXTRACT: note_on channel=9 note=36 velocity=127 time=0
EXTRACT: note_on channel=9 note=36 velocity=127 time=0
EXTRACT: note_on channel=9 note=36 velocity=127 time=0
EXTRACT: note_on channel=9 note=28 velocity=127 time=0
EXTRACT: note_on channel=9 note=42 velocity=127 time=0
EXTRACT: note_on channel=9 note=76 velocity=80 time=0
EXTRACT: note_off channel=9 note=76 velocity=0 time=0.027173875
EXTRACT: note_off channel=4 note=56 velocity=0 time=0.027173875
EXTRACT: note_off channel=4 note=61 velocity=0 time=0
EXTRACT: note_off channel=9 note=42 velocity=0 time=0
EXTRACT: note_off channel=9 note=36 velocity=64 time=0
EXTRACT: note_off channel=9 note=36 velocity=64 time=0
EXTRACT: note_off channel=9 note=36 velocity=64 time=0
EXTRACT: note_off channel=9 note=36 velocity=64 time=0
EXTRACT: note_off channel=3 note=63 velocity=0 time=0.14492733333333335
EXTRACT: note_on channel=1 note=37 velocity=110 time=0.01811591666666667
EXTRACT: note_on channel=1 note=49 velocity=110 time=0
EXTRACT: note_on channel=3 note=61 velocity=127 time=0
EXTRACT: note_on channel=9 note=36 velocity=127 time=0
EXTRACT: note_on channel=9 note=36 velocity=127 time=0
EXTRACT: note_on channel=9 note=36 velocity=127 time=0
EXTRACT: note_on channel=9 note=36 velocity=127 time=0
EXTRACT: note_on channel=9 note=46 velocity=127 time=0
EXTRACT: note_on channel=0 note=49 velocity=120 time=0
EXTRACT: note_off channel=9 note=46 velocity=0 time=0.05434775
EXTRACT: note_off channel=9 note=36 velocity=64 time=0
EXTRACT: note_off channel=9 note=36 velocity=64 time=0
EXTRACT: note_off channel=9 note=36 velocity=64 time=0
EXTRACT: note_off channel=9 note=36 velocity=64 time=0
EXTRACT: note_off channel=1 note=49 velocity=0 time=0.1086955
EXTRACT: note_off channel=1 note=37 velocity=0 time=0
EXTRACT: note_off channel=0 note=49 velocity=0 time=0
EXTRACT: note_off channel=3 note=61 velocity=0 time=0.01811591666666667
EXTRACT: note_off channel=9 note=28 velocity=0 time=0.022644895833333335
EXTRACT: note_on channel=4 note=66 velocity=105 time=0.0135869375
EXTRACT: note_on channel=4 note=61 velocity=105 time=0
EXTRACT: note_on channel=9 note=36 velocity=127 time=0
EXTRACT: note_on channel=9 note=36 velocity=127 time=0
EXTRACT: note_on channel=9 note=42 velocity=127 time=0
EXTRACT: note_off channel=4 note=61 velocity=0 time=0.05434775
EXTRACT: note_off channel=4 note=66 velocity=0 time=0
EXTRACT: note_off channel=9 note=42 velocity=0 time=0
EXTRACT: note_off channel=6 note=65 velocity=64 time=0.004528979166666667
EXTRACT: note_on channel=9 note=36 velocity=127 time=0.04981877083333334
EXTRACT: note_on channel=9 note=36 velocity=127 time=0
EXTRACT: note_off channel=9 note=36 velocity=64 time=0.09963754166666668
EXTRACT: note_off channel=9 note=36 velocity=64 time=0
EXTRACT: note_on channel=1 note=42 velocity=110 time=0.009057958333333335
EXTRACT: note_on channel=1 note=54 velocity=110 time=0
EXTRACT: note_on channel=4 note=66 velocity=105 time=0
EXTRACT: note_on channel=4 note=61 velocity=105 time=0
EXTRACT: note_on channel=9 note=36 velocity=127 time=0
EXTRACT: note_on channel=9 note=36 velocity=127 time=0
EXTRACT: note_on channel=9 note=46 velocity=127 time=0
EXTRACT: note_on channel=0 note=54 velocity=120 time=0
EXTRACT: note_off channel=4 note=61 velocity=0 time=0.05434775
EXTRACT: note_off channel=4 note=66 velocity=0 time=0
EXTRACT: note_off channel=9 note=46 velocity=0 time=0
EXTRACT: note_off channel=9 note=36 velocity=64 time=0.04528979166666667
EXTRACT: note_off channel=9 note=36 velocity=64 time=0
EXTRACT: note_on channel=9 note=36 velocity=127 time=0.009057958333333335
EXTRACT: note_on channel=9 note=36 velocity=127 time=0
EXTRACT: note_off channel=1 note=54 velocity=0 time=0.05434775
EXTRACT: note_off channel=1 note=42 velocity=0 time=0
EXTRACT: note_off channel=0 note=54 velocity=0 time=0
EXTRACT: note_off channel=9 note=36 velocity=64 time=0.04528979166666667
EXTRACT: note_off channel=9 note=36 velocity=64 time=0
EXTRACT: note_on channel=4 note=66 velocity=105 time=0.009057958333333335
EXTRACT: note_on channel=4 note=61 velocity=105 time=0
EXTRACT: note_on channel=9 note=36 velocity=127 time=0
EXTRACT: note_on channel=9 note=36 velocity=127 time=0
EXTRACT: note_on channel=9 note=28 velocity=127 time=0
EXTRACT: note_on channel=9 note=42 velocity=127 time=0
EXTRACT: note_on channel=9 note=76 velocity=80 time=0
EXTRACT: note_off channel=9 note=76 velocity=0 time=0.027173875
EXTRACT: note_off channel=4 note=61 velocity=0 time=0.027173875
EXTRACT: note_off channel=4 note=66 velocity=0 time=0
EXTRACT: note_off channel=9 note=42 velocity=0 time=0
EXTRACT: note_off channel=9 note=36 velocity=64 time=0.04528979166666667
EXTRACT: note_off channel=9 note=36 velocity=64 time=0
EXTRACT: note_on channel=9 note=36 velocity=127 time=0.009057958333333335
EXTRACT: note_on channel=9 note=36 velocity=127 time=0
EXTRACT: note_off channel=9 note=36 velocity=64 time=0.09963754166666668
EXTRACT: note_off channel=9 note=36 velocity=64 time=0
EXTRACT: note_on channel=1 note=42 velocity=110 time=0.009057958333333335
EXTRACT: note_on channel=1 note=54 velocity=110 time=0
EXTRACT: note_on channel=9 note=36 velocity=127 time=0
EXTRACT: note_on channel=9 note=36 velocity=127 time=0
EXTRACT: note_on channel=9 note=46 velocity=127 time=0
EXTRACT: note_on channel=9 note=76 velocity=80 time=0
EXTRACT: note_on channel=0 note=54 velocity=120 time=0
EXTRACT: note_off channel=9 note=76 velocity=0 time=0.027173875
EXTRACT: note_off channel=9 note=46 velocity=0 time=0.027173875
EXTRACT: note_off channel=9 note=36 velocity=64 time=0.04528979166666667
EXTRACT: note_off channel=9 note=36 velocity=64 time=0
EXTRACT: note_on channel=4 note=66 velocity=105 time=0.009057958333333335
EXTRACT: note_on channel=4 note=61 velocity=105 time=0
EXTRACT: note_on channel=9 note=36 velocity=127 time=0
EXTRACT: note_on channel=9 note=36 velocity=127 time=0
EXTRACT: note_off channel=1 note=54 velocity=0 time=0.05434775
EXTRACT: note_off channel=1 note=42 velocity=0 time=0
EXTRACT: note_off channel=4 note=61 velocity=0 time=0
EXTRACT: note_off channel=4 note=66 velocity=0 time=0
EXTRACT: note_off channel=0 note=54 velocity=0 time=0
EXTRACT: note_off channel=9 note=28 velocity=0 time=0.0407608125
EXTRACT: note_off channel=9 note=36 velocity=64 time=0.004528979166666667
EXTRACT: note_off channel=9 note=36 velocity=64 time=0
EXTRACT: note_on channel=4 note=66 velocity=105 time=0.009057958333333335
EXTRACT: note_on channel=4 note=61 velocity=105 time=0
EXTRACT: note_on channel=9 note=36 velocity=127 time=0
EXTRACT: note_on channel=9 note=36 velocity=127 time=0
EXTRACT: note_on channel=9 note=40 velocity=127 time=0
EXTRACT: note_on channel=9 note=42 velocity=127 time=0
EXTRACT: note_off channel=4 note=61 velocity=0 time=0.05434775
EXTRACT: note_off channel=4 note=66 velocity=0 time=0
EXTRACT: note_off channel=9 note=42 velocity=0 time=0
EXTRACT: note_off channel=9 note=40 velocity=127 time=0.01811591666666667
EXTRACT: note_off channel=9 note=36 velocity=64 time=0.027173875
EXTRACT: note_off channel=9 note=36 velocity=64 time=0
EXTRACT: note_on channel=9 note=36 velocity=127 time=0.009057958333333335
EXTRACT: note_on channel=9 note=36 velocity=127 time=0
EXTRACT: note_on channel=9 note=40 velocity=127 time=0
EXTRACT: note_off channel=9 note=40 velocity=127 time=0.07246366666666668
EXTRACT: note_off channel=9 note=36 velocity=64 time=0.027173875
EXTRACT: note_off channel=9 note=36 velocity=64 time=0
EXTRACT: note_on channel=1 note=42 velocity=110 time=0.009057958333333335
EXTRACT: note_on channel=1 note=54 velocity=110 time=0
EXTRACT: note_on channel=4 note=66 velocity=105 time=0
EXTRACT: note_on channel=4 note=61 velocity=105 time=0
EXTRACT: note_on channel=9 note=36 velocity=127 time=0
EXTRACT: note_on channel=9 note=36 velocity=127 time=0
EXTRACT: note_on channel=9 note=40 velocity=127 time=0
EXTRACT: note_on channel=9 note=46 velocity=127 time=0
EXTRACT: note_on channel=0 note=54 velocity=120 time=0
EXTRACT: note_off channel=4 note=61 velocity=0 time=0.05434775
EXTRACT: note_off channel=4 note=66 velocity=0 time=0
EXTRACT: note_off channel=9 note=46 velocity=0 time=0
EXTRACT: note_off channel=9 note=40 velocity=127 time=0.01811591666666667
EXTRACT: note_off channel=9 note=36 velocity=64 time=0.027173875
EXTRACT: note_off channel=9 note=36 velocity=64 time=0
EXTRACT: note_on channel=9 note=36 velocity=127 time=0.009057958333333335
EXTRACT: note_on channel=9 note=36 velocity=127 time=0
EXTRACT: note_on channel=9 note=40 velocity=127 time=0
EXTRACT: note_off channel=1 note=54 velocity=0 time=0.05434775
EXTRACT: note_off channel=1 note=42 velocity=0 time=0
EXTRACT: note_off channel=0 note=54 velocity=0 time=0
EXTRACT: note_off channel=9 note=40 velocity=127 time=0.01811591666666667
EXTRACT: note_off channel=9 note=36 velocity=64 time=0.027173875
EXTRACT: note_off channel=9 note=36 velocity=64 time=0
EXTRACT: note_on channel=4 note=66 velocity=105 time=0.009057958333333335
EXTRACT: note_on channel=4 note=61 velocity=105 time=0
EXTRACT: note_on channel=9 note=36 velocity=127 time=0
EXTRACT: note_on channel=9 note=36 velocity=127 time=0
EXTRACT: note_on channel=9 note=40 velocity=127 time=0
EXTRACT: note_on channel=9 note=28 velocity=127 time=0
EXTRACT: note_on channel=9 note=42 velocity=127 time=0
EXTRACT: note_on channel=9 note=76 velocity=80 time=0
EXTRACT: note_off channel=9 note=76 velocity=0 time=0.027173875
EXTRACT: note_off channel=4 note=61 velocity=0 time=0.027173875
EXTRACT: note_off channel=4 note=66 velocity=0 time=0
EXTRACT: note_off channel=9 note=42 velocity=0 time=0
EXTRACT: note_off channel=9 note=40 velocity=127 time=0.01811591666666667
EXTRACT: note_off channel=9 note=36 velocity=64 time=0.027173875
EXTRACT: note_off channel=9 note=36 velocity=64 time=0
EXTRACT: note_on channel=9 note=36 velocity=127 time=0.009057958333333335
EXTRACT: note_on channel=9 note=36 velocity=127 time=0
EXTRACT: note_on channel=9 note=40 velocity=127 time=0
EXTRACT: note_off channel=9 note=40 velocity=127 time=0.07246366666666668
EXTRACT: note_off channel=9 note=36 velocity=64 time=0.027173875
EXTRACT: note_off channel=9 note=36 velocity=64 time=0
EXTRACT: note_on channel=9 note=36 velocity=127 time=0.009057958333333335
EXTRACT: note_on channel=9 note=36 velocity=127 time=0
EXTRACT: note_on channel=9 note=40 velocity=127 time=0
EXTRACT: note_on channel=9 note=46 velocity=127 time=0
EXTRACT: note_off channel=9 note=46 velocity=0 time=0.05434775
EXTRACT: note_off channel=9 note=40 velocity=127 time=0.01811591666666667
EXTRACT: note_off channel=9 note=36 velocity=64 time=0.027173875
EXTRACT: note_off channel=9 note=36 velocity=64 time=0
EXTRACT: note_on channel=9 note=36 velocity=127 time=0.009057958333333335
EXTRACT: note_on channel=9 note=36 velocity=127 time=0
EXTRACT: note_off channel=9 note=28 velocity=0 time=0.09510856250000001
EXTRACT: note_off channel=9 note=36 velocity=64 time=0.004528979166666667
EXTRACT: note_off channel=9 note=36 velocity=64 time=0
EXTRACT: note_off channel=9 note=36 velocity=64 time=0.009057958333333335
EXTRACT: note_off channel=9 note=36 velocity=64 time=0
EXTRACT: note_on channel=9 note=36 velocity=127 time=0
EXTRACT: note_on channel=9 note=36 velocity=127 time=0
EXTRACT: note_on channel=9 note=36 velocity=127 time=0
EXTRACT: note_on channel=9 note=36 velocity=127 time=0
EXTRACT: note_on channel=9 note=42 velocity=127 time=0
EXTRACT: note_off channel=9 note=42 velocity=0 time=0.05434775
EXTRACT: note_off channel=9 note=36 velocity=64 time=0
EXTRACT: note_off channel=9 note=36 velocity=64 time=0
EXTRACT: note_off channel=9 note=36 velocity=64 time=0
EXTRACT: note_off channel=9 note=36 velocity=64 time=0
EXTRACT: note_on channel=1 note=42 velocity=110 time=0.16304325
EXTRACT: note_on channel=1 note=54 velocity=110 time=0
EXTRACT: note_on channel=3 note=70 velocity=127 time=0
EXTRACT: note_on channel=9 note=46 velocity=127 time=0
EXTRACT: note_on channel=0 note=54 velocity=120 time=0
EXTRACT: note_off channel=9 note=46 velocity=0 time=0.05434775
EXTRACT: note_off channel=3 note=70 velocity=0 time=0.027173875
EXTRACT: note_off channel=1 note=54 velocity=0 time=0.081521625
EXTRACT: note_off channel=1 note=42 velocity=0 time=0
EXTRACT: note_off channel=0 note=54 velocity=0 time=0
EXTRACT: note_on channel=3 note=70 velocity=127 time=0.05434775
EXTRACT: note_on channel=9 note=36 velocity=127 time=0
EXTRACT: note_on channel=9 note=36 velocity=127 time=0
EXTRACT: note_on channel=9 note=36 velocity=127 time=0
EXTRACT: note_on channel=9 note=36 velocity=127 time=0
EXTRACT: note_on channel=9 note=28 velocity=127 time=0
EXTRACT: note_on channel=9 note=42 velocity=127 time=0
EXTRACT: note_on channel=9 note=76 velocity=80 time=0
EXTRACT: note_off channel=9 note=76 velocity=0 time=0.027173875
EXTRACT: note_off channel=9 note=42 velocity=0 time=0.027173875
EXTRACT: note_off channel=9 note=36 velocity=64 time=0
EXTRACT: note_off channel=9 note=36 velocity=64 time=0
EXTRACT: note_off channel=9 note=36 velocity=64 time=0
EXTRACT: note_off channel=9 note=36 velocity=64 time=0
EXTRACT: note_off channel=3 note=70 velocity=0 time=0.022644895833333335
EXTRACT: note_on channel=1 note=42 velocity=110 time=0.14039835416666668
EXTRACT: note_on channel=1 note=54 velocity=110 time=0
EXTRACT: note_on channel=3 note=70 velocity=127 time=0
EXTRACT: note_on channel=9 note=46 velocity=127 time=0
EXTRACT: note_on channel=9 note=76 velocity=80 time=0
EXTRACT: note_on channel=0 note=54 velocity=120 time=0
EXTRACT: note_off channel=9 note=76 velocity=0 time=0.027173875
EXTRACT: note_off channel=9 note=46 velocity=0 time=0.027173875
EXTRACT: note_off channel=3 note=70 velocity=0 time=0.022644895833333335
EXTRACT: note_off channel=1 note=54 velocity=0 time=0.08605060416666667
EXTRACT: note_off channel=1 note=42 velocity=0 time=0
EXTRACT: note_off channel=0 note=54 velocity=0 time=0
EXTRACT: note_off channel=9 note=28 velocity=0 time=0.0407608125
EXTRACT: note_on channel=3 note=70 velocity=127 time=0.0135869375
EXTRACT: note_on channel=9 note=36 velocity=127 time=0
EXTRACT: note_on channel=9 note=36 velocity=127 time=0
EXTRACT: note_on channel=9 note=36 velocity=127 time=0
EXTRACT: note_on channel=9 note=36 velocity=127 time=0
EXTRACT: note_on channel=9 note=42 velocity=127 time=0
EXTRACT: note_off channel=9 note=42 velocity=0 time=0.05434775
EXTRACT: note_off channel=9 note=36 velocity=64 time=0
EXTRACT: note_off channel=9 note=36 velocity=64 time=0
EXTRACT: note_off channel=9 note=36 velocity=64 time=0
EXTRACT: note_off channel=9 note=36 velocity=64 time=0
EXTRACT: note_on channel=1 note=37 velocity=110 time=0.16304325
EXTRACT: note_on channel=1 note=49 velocity=110 time=0
EXTRACT: note_on channel=9 note=46 velocity=127 time=0
EXTRACT: note_on channel=0 note=49 velocity=120 time=0
EXTRACT: note_off channel=9 note=46 velocity=0 time=0.05434775
EXTRACT: note_on channel=9 note=36 velocity=127 time=0.05434775
EXTRACT: note_on channel=9 note=36 velocity=127 time=0
EXTRACT: note_on channel=9 note=36 velocity=127 time=0
EXTRACT: note_on channel=9 note=36 velocity=127 time=0
EXTRACT: note_off channel=3 note=70 velocity=0 time=0.04981877083333334
EXTRACT: note_off channel=1 note=49 velocity=0 time=0.004528979166666667
EXTRACT: note_off channel=1 note=37 velocity=0 time=0
EXTRACT: note_off channel=9 note=36 velocity=64 time=0
EXTRACT: note_off channel=9 note=36 velocity=64 time=0
EXTRACT: note_off channel=9 note=36 velocity=64 time=0
EXTRACT: note_off channel=9 note=36 velocity=64 time=0
EXTRACT: note_off channel=0 note=49 velocity=0 time=0
EXTRACT: note_on channel=3 note=68 velocity=127 time=0.05434775
EXTRACT: note_on channel=9 note=36 velocity=127 time=0
EXTRACT: note_on channel=9 note=36 velocity=127 time=0
EXTRACT: note_on channel=9 note=36 velocity=127 time=0
EXTRACT: note_on channel=9 note=36 velocity=127 time=0
EXTRACT: note_on channel=9 note=28 velocity=127 time=0
EXTRACT: note_on channel=9 note=42 velocity=127 time=0
EXTRACT: note_on channel=9 note=76 velocity=80 time=0
EXTRACT: note_off channel=9 note=76 velocity=0 time=0.027173875
EXTRACT: note_off channel=9 note=42 velocity=0 time=0.027173875
EXTRACT: note_off channel=9 note=36 velocity=64 time=0
EXTRACT: note_off channel=9 note=36 velocity=64 time=0
EXTRACT: note_off channel=9 note=36 velocity=64 time=0
EXTRACT: note_off channel=9 note=36 velocity=64 time=0
EXTRACT: note_off channel=3 note=68 velocity=0 time=0.13586937500000001
EXTRACT: note_on channel=1 note=37 velocity=110 time=0.027173875
EXTRACT: note_on channel=1 note=49 velocity=110 time=0
EXTRACT: note_on channel=3 note=66 velocity=127 time=0
EXTRACT: note_on channel=9 note=36 velocity=127 time=0
EXTRACT: note_on channel=9 note=36 velocity=127 time=0
EXTRACT: note_on channel=9 note=36 velocity=127 time=0
EXTRACT: note_on channel=9 note=36 velocity=127 time=0
EXTRACT: note_on channel=9 note=46 velocity=127 time=0
EXTRACT: note_on channel=0 note=49 velocity=120 time=0
EXTRACT: note_off channel=9 note=46 velocity=0 time=0.05434775
EXTRACT: note_off channel=9 note=36 velocity=64 time=0
EXTRACT: note_off channel=9 note=36 velocity=64 time=0
EXTRACT: note_off channel=9 note=36 velocity=64 time=0
EXTRACT: note_off channel=9 note=36 velocity=64 time=0
EXTRACT: note_off channel=3 note=66 velocity=0 time=0.09510856250000001
EXTRACT: note_off channel=1 note=49 velocity=0 time=0.0135869375
EXTRACT: note_off channel=1 note=37 velocity=0 time=0
EXTRACT: note_off channel=0 note=49 velocity=0 time=0
EXTRACT: note_off channel=9 note=28 velocity=0 time=0.0407608125
EXTRACT: note_on channel=3 note=68 velocity=127 time=0.0135869375
EXTRACT: note_on channel=9 note=36 velocity=127 time=0
EXTRACT: note_on channel=9 note=36 velocity=127 time=0
EXTRACT: note_on channel=9 note=36 velocity=127 time=0
EXTRACT: note_on channel=9 note=36 velocity=127 time=0
EXTRACT: note_on channel=9 note=42 velocity=127 time=0
EXTRACT: note_off channel=9 note=42 velocity=0 time=0.05434775
EXTRACT: note_off channel=9 note=36 velocity=64 time=0
EXTRACT: note_off channel=9 note=36 velocity=64 time=0
EXTRACT: note_off channel=9 note=36 velocity=64 time=0
EXTRACT: note_off channel=9 note=36 velocity=64 time=0
EXTRACT: note_off channel=3 note=68 velocity=0 time=0.14492733333333335
EXTRACT: note_on channel=1 note=39 velocity=110 time=0.01811591666666667
EXTRACT: note_on channel=1 note=51 velocity=110 time=0
EXTRACT: note_on channel=3 note=70 velocity=127 time=0
EXTRACT: note_on channel=9 note=46 velocity=127 time=0
EXTRACT: note_on channel=0 note=51 velocity=120 time=0
EXTRACT: note_off channel=9 note=46 velocity=0 time=0.05434775
EXTRACT: note_off channel=3 note=70 velocity=0 time=0.09510856250000001
EXTRACT: note_off channel=1 note=51 velocity=0 time=0.0135869375
EXTRACT: note_off channel=1 note=39 velocity=0 time=0
EXTRACT: note_off channel=0 note=51 velocity=0 time=0
EXTRACT: note_on channel=3 note=70 velocity=127 time=0.05434775
EXTRACT: note_on channel=9 note=36 velocity=127 time=0
EXTRACT: note_on channel=9 note=36 velocity=127 time=0
EXTRACT: note_on channel=9 note=36 velocity=127 time=0
EXTRACT: note_on channel=9 note=36 velocity=127 time=0
EXTRACT: note_on channel=9 note=28 velocity=127 time=0
EXTRACT: note_on channel=9 note=42 velocity=127 time=0
EXTRACT: note_on channel=9 note=76 velocity=80 time=0
EXTRACT: note_off channel=9 note=76 velocity=0 time=0.027173875
EXTRACT: note_off channel=9 note=42 velocity=0 time=0.027173875
EXTRACT: note_off channel=9 note=36 velocity=64 time=0
EXTRACT: note_off channel=9 note=36 velocity=64 time=0
EXTRACT: note_off channel=9 note=36 velocity=64 time=0
EXTRACT: note_off channel=9 note=36 velocity=64 time=0
EXTRACT: note_on channel=1 note=39 velocity=110 time=0.16304325
EXTRACT: note_on channel=1 note=51 velocity=110 time=0
EXTRACT: note_on channel=9 note=46 velocity=127 time=0
EXTRACT: note_on channel=9 note=76 velocity=80 time=0
EXTRACT: note_on channel=0 note=51 velocity=120 time=0
EXTRACT: note_off channel=9 note=76 velocity=0 time=0.027173875
EXTRACT: note_off channel=9 note=46 velocity=0 time=0.027173875
EXTRACT: note_off channel=1 note=51 velocity=0 time=0.1086955
EXTRACT: note_off channel=1 note=39 velocity=0 time=0
EXTRACT: note_off channel=0 note=51 velocity=0 time=0
EXTRACT: note_off channel=3 note=70 velocity=0 time=0.0407608125
EXTRACT: note_off channel=9 note=28 velocity=0 time=0
EXTRACT: note_on channel=9 note=36 velocity=127 time=0.0135869375
EXTRACT: note_on channel=9 note=36 velocity=127 time=0
EXTRACT: note_on channel=9 note=36 velocity=127 time=0
EXTRACT: note_on channel=9 note=36 velocity=127 time=0
EXTRACT: note_on channel=9 note=42 velocity=127 time=0
EXTRACT: note_off channel=9 note=42 velocity=0 time=0.05434775
EXTRACT: note_off channel=9 note=36 velocity=64 time=0
EXTRACT: note_off channel=9 note=36 velocity=64 time=0
EXTRACT: note_off channel=9 note=36 velocity=64 time=0
EXTRACT: note_off channel=9 note=36 velocity=64 time=0
EXTRACT: note_on channel=1 note=39 velocity=110 time=0.16304325
EXTRACT: note_on channel=1 note=51 velocity=110 time=0
EXTRACT: note_on channel=9 note=46 velocity=127 time=0
EXTRACT: note_on channel=0 note=51 velocity=120 time=0
EXTRACT: note_off channel=9 note=46 velocity=0 time=0.05434775
EXTRACT: note_on channel=9 note=36 velocity=127 time=0.05434775
EXTRACT: note_on channel=9 note=36 velocity=127 time=0
EXTRACT: note_on channel=9 note=36 velocity=127 time=0
EXTRACT: note_on channel=9 note=36 velocity=127 time=0
EXTRACT: note_off channel=1 note=51 velocity=0 time=0.05434775
EXTRACT: note_off channel=1 note=39 velocity=0 time=0
EXTRACT: note_off channel=9 note=36 velocity=64 time=0
EXTRACT: note_off channel=9 note=36 velocity=64 time=0
EXTRACT: note_off channel=9 note=36 velocity=64 time=0
EXTRACT: note_off channel=9 note=36 velocity=64 time=0
EXTRACT: note_off channel=0 note=51 velocity=0 time=0
EXTRACT: note_on channel=9 note=36 velocity=127 time=0.05434775
EXTRACT: note_on channel=9 note=36 velocity=127 time=0
EXTRACT: note_on channel=9 note=36 velocity=127 time=0
EXTRACT: note_on channel=9 note=36 velocity=127 time=0
EXTRACT: note_on channel=9 note=28 velocity=127 time=0
EXTRACT: note_on channel=9 note=42 velocity=127 time=0
EXTRACT: note_on channel=9 note=76 velocity=80 time=0
EXTRACT: note_off channel=9 note=76 velocity=0 time=0.027173875
EXTRACT: note_off channel=9 note=42 velocity=0 time=0.027173875
EXTRACT: note_off channel=9 note=36 velocity=64 time=0
EXTRACT: note_off channel=9 note=36 velocity=64 time=0
EXTRACT: note_off channel=9 note=36 velocity=64 time=0
EXTRACT: note_off channel=9 note=36 velocity=64 time=0
EXTRACT: note_on channel=1 note=39 velocity=110 time=0.16304325
EXTRACT: note_on channel=1 note=51 velocity=110 time=0
EXTRACT: note_on channel=9 note=36 velocity=127 time=0
EXTRACT: note_on channel=9 note=36 velocity=127 time=0
EXTRACT: note_on channel=9 note=36 velocity=127 time=0
EXTRACT: note_on channel=9 note=36 velocity=127 time=0
EXTRACT: note_on channel=9 note=46 velocity=127 time=0
EXTRACT: note_on channel=0 note=51 velocity=120 time=0
EXTRACT: note_off channel=9 note=46 velocity=0 time=0.05434775
EXTRACT: note_off channel=9 note=36 velocity=64 time=0
EXTRACT: note_off channel=9 note=36 velocity=64 time=0
EXTRACT: note_off channel=9 note=36 velocity=64 time=0
EXTRACT: note_off channel=9 note=36 velocity=64 time=0
EXTRACT: note_off channel=1 note=51 velocity=0 time=0.1086955
EXTRACT: note_off channel=1 note=39 velocity=0 time=0
EXTRACT: note_off channel=0 note=51 velocity=0 time=0
EXTRACT: note_off channel=9 note=28 velocity=0 time=0.0407608125
EXTRACT: note_on channel=9 note=36 velocity=127 time=0.0135869375
EXTRACT: note_on channel=9 note=36 velocity=127 time=0
EXTRACT: note_on channel=9 note=36 velocity=127 time=0
EXTRACT: note_on channel=9 note=36 velocity=127 time=0
EXTRACT: note_on channel=9 note=42 velocity=127 time=0
EXTRACT: note_off channel=9 note=42 velocity=0 time=0.05434775
EXTRACT: note_off channel=9 note=36 velocity=64 time=0
EXTRACT: note_off channel=9 note=36 velocity=64 time=0
EXTRACT: note_off channel=9 note=36 velocity=64 time=0
EXTRACT: note_off channel=9 note=36 velocity=64 time=0
EXTRACT: note_on channel=1 note=35 velocity=110 time=0.16304325
EXTRACT: note_on channel=1 note=47 velocity=110 time=0
EXTRACT: note_on channel=3 note=70 velocity=127 time=0
EXTRACT: note_on channel=9 note=46 velocity=127 time=0
EXTRACT: note_on channel=0 note=47 velocity=120 time=0
EXTRACT: note_off channel=9 note=46 velocity=0 time=0.05434775
EXTRACT: note_off channel=3 note=70 velocity=0 time=0.03623183333333334
EXTRACT: note_off channel=1 note=47 velocity=0 time=0.07246366666666668
EXTRACT: note_off channel=1 note=35 velocity=0 time=0
EXTRACT: note_off channel=0 note=47 velocity=0 time=0
EXTRACT: note_on channel=3 note=70 velocity=127 time=0.05434775
EXTRACT: note_on channel=9 note=36 velocity=127 time=0
EXTRACT: note_on channel=9 note=36 velocity=127 time=0
EXTRACT: note_on channel=9 note=36 velocity=127 time=0
EXTRACT: note_on channel=9 note=36 velocity=127 time=0
EXTRACT: note_on channel=9 note=28 velocity=127 time=0
EXTRACT: note_on channel=9 note=42 velocity=127 time=0
EXTRACT: note_on channel=9 note=76 velocity=80 time=0
EXTRACT: note_off channel=9 note=76 velocity=0 time=0.027173875
EXTRACT: note_off channel=9 note=42 velocity=0 time=0.027173875
EXTRACT: note_off channel=9 note=36 velocity=64 time=0
EXTRACT: note_off channel=9 note=36 velocity=64 time=0
EXTRACT: note_off channel=9 note=36 velocity=64 time=0
EXTRACT: note_off channel=9 note=36 velocity=64 time=0
EXTRACT: note_off channel=3 note=70 velocity=0 time=0.04528979166666667
EXTRACT: note_on channel=1 note=35 velocity=110 time=0.11775345833333334
EXTRACT: note_on channel=1 note=47 velocity=110 time=0
EXTRACT: note_on channel=3 note=70 velocity=127 time=0
EXTRACT: note_on channel=9 note=46 velocity=127 time=0
EXTRACT: note_on channel=9 note=76 velocity=80 time=0
EXTRACT: note_on channel=0 note=47 velocity=120 time=0
EXTRACT: note_off channel=9 note=76 velocity=0 time=0.027173875
EXTRACT: note_off channel=9 note=46 velocity=0 time=0.027173875
EXTRACT: note_off channel=3 note=70 velocity=0 time=0.0407608125
EXTRACT: note_off channel=1 note=47 velocity=0 time=0.06793468750000001
EXTRACT: note_off channel=1 note=35 velocity=0 time=0
EXTRACT: note_off channel=0 note=47 velocity=0 time=0
EXTRACT: note_off channel=9 note=28 velocity=0 time=0.0407608125
EXTRACT: note_on channel=3 note=70 velocity=127 time=0.0135869375
EXTRACT: note_on channel=9 note=36 velocity=127 time=0
EXTRACT: note_on channel=9 note=36 velocity=127 time=0
EXTRACT: note_on channel=9 note=36 velocity=127 time=0
EXTRACT: note_on channel=9 note=36 velocity=127 time=0
EXTRACT: note_on channel=9 note=42 velocity=127 time=0
EXTRACT: note_off channel=9 note=42 velocity=0 time=0.05434775
EXTRACT: note_off channel=9 note=36 velocity=64 time=0
EXTRACT: note_off channel=9 note=36 velocity=64 time=0
EXTRACT: note_off channel=9 note=36 velocity=64 time=0
EXTRACT: note_off channel=9 note=36 velocity=64 time=0
EXTRACT: note_on channel=1 note=37 velocity=110 time=0.16304325
EXTRACT: note_on channel=1 note=49 velocity=110 time=0
EXTRACT: note_on channel=9 note=46 velocity=127 time=0
EXTRACT: note_on channel=0 note=49 velocity=120 time=0
EXTRACT: note_off channel=9 note=46 velocity=0 time=0.05434775
EXTRACT: note_off channel=3 note=70 velocity=0 time=0.04981877083333334
EXTRACT: note_on channel=9 note=36 velocity=127 time=0.004528979166666667
EXTRACT: note_on channel=9 note=36 velocity=127 time=0
EXTRACT: note_on channel=9 note=36 velocity=127 time=0
EXTRACT: note_on channel=9 note=36 velocity=127 time=0
EXTRACT: note_off channel=1 note=49 velocity=0 time=0.05434775
EXTRACT: note_off channel=1 note=37 velocity=0 time=0
EXTRACT: note_off channel=9 note=36 velocity=64 time=0
EXTRACT: note_off channel=9 note=36 velocity=64 time=0
EXTRACT: note_off channel=9 note=36 velocity=64 time=0
EXTRACT: note_off channel=9 note=36 velocity=64 time=0
EXTRACT: note_off channel=0 note=49 velocity=0 time=0
EXTRACT: note_on channel=3 note=70 velocity=127 time=0.05434775
EXTRACT: note_on channel=9 note=36 velocity=127 time=0
EXTRACT: note_on channel=9 note=36 velocity=127 time=0
EXTRACT: note_on channel=9 note=36 velocity=127 time=0
EXTRACT: note_on channel=9 note=36 velocity=127 time=0
EXTRACT: note_on channel=9 note=28 velocity=127 time=0
EXTRACT: note_on channel=9 note=42 velocity=127 time=0
EXTRACT: note_on channel=9 note=76 velocity=80 time=0
EXTRACT: note_off channel=9 note=76 velocity=0 time=0.027173875
EXTRACT: note_off channel=9 note=42 velocity=0 time=0.027173875
EXTRACT: note_off channel=9 note=36 velocity=64 time=0
EXTRACT: note_off channel=9 note=36 velocity=64 time=0
EXTRACT: note_off channel=9 note=36 velocity=64 time=0
EXTRACT: note_off channel=9 note=36 velocity=64 time=0
EXTRACT: note_off channel=3 note=70 velocity=0 time=0.0407608125
EXTRACT: note_on channel=1 note=37 velocity=110 time=0.12228243750000001
EXTRACT: note_on channel=1 note=49 velocity=110 time=0
EXTRACT: note_on channel=3 note=70 velocity=127 time=0
EXTRACT: note_on channel=9 note=36 velocity=127 time=0
EXTRACT: note_on channel=9 note=36 velocity=127 time=0
EXTRACT: note_on channel=9 note=36 velocity=127 time=0
EXTRACT: note_on channel=9 note=36 velocity=127 time=0
EXTRACT: note_on channel=9 note=46 velocity=127 time=0
EXTRACT: note_on channel=0 note=49 velocity=120 time=0
EXTRACT: note_off channel=9 note=46 velocity=0 time=0.05434775
EXTRACT: note_off channel=9 note=36 velocity=64 time=0
EXTRACT: note_off channel=9 note=36 velocity=64 time=0
EXTRACT: note_off channel=9 note=36 velocity=64 time=0
EXTRACT: note_off channel=9 note=36 velocity=64 time=0
EXTRACT: note_off channel=3 note=70 velocity=0 time=0.06793468750000001
EXTRACT: note_off channel=1 note=49 velocity=0 time=0.0407608125
EXTRACT: note_off channel=1 note=37 velocity=0 time=0
EXTRACT: note_off channel=0 note=49 velocity=0 time=0
EXTRACT: note_off channel=9 note=28 velocity=0 time=0.0407608125
EXTRACT: note_on channel=3 note=73 velocity=127 time=0.0135869375
EXTRACT: note_on channel=9 note=36 velocity=127 time=0
EXTRACT: note_on channel=9 note=36 velocity=127 time=0
EXTRACT: note_on channel=9 note=36 velocity=127 time=0
EXTRACT: note_on channel=9 note=36 velocity=127 time=0
EXTRACT: note_on channel=9 note=42 velocity=127 time=0
EXTRACT: note_off channel=9 note=42 velocity=0 time=0.05434775
EXTRACT: note_off channel=9 note=36 velocity=64 time=0
EXTRACT: note_off channel=9 note=36 velocity=64 time=0
EXTRACT: note_off channel=9 note=36 velocity=64 time=0
EXTRACT: note_off channel=9 note=36 velocity=64 time=0
EXTRACT: note_on channel=1 note=42 velocity=110 time=0.16304325
EXTRACT: note_on channel=1 note=54 velocity=110 time=0
EXTRACT: note_on channel=9 note=46 velocity=127 time=0
EXTRACT: note_on channel=0 note=54 velocity=120 time=0
EXTRACT: note_off channel=9 note=46 velocity=0 time=0.05434775
EXTRACT: note_off channel=3 note=73 velocity=0 time=0.081521625
EXTRACT: note_off channel=1 note=54 velocity=0 time=0.027173875
EXTRACT: note_off channel=1 note=42 velocity=0 time=0
EXTRACT: note_off channel=0 note=54 velocity=0 time=0
EXTRACT: note_on channel=3 note=70 velocity=127 time=0.05434775
EXTRACT: note_on channel=9 note=36 velocity=127 time=0
EXTRACT: note_on channel=9 note=36 velocity=127 time=0
EXTRACT: note_on channel=9 note=36 velocity=127 time=0
EXTRACT: note_on channel=9 note=36 velocity=127 time=0
EXTRACT: note_on channel=9 note=28 velocity=127 time=0
EXTRACT: note_on channel=9 note=42 velocity=127 time=0
EXTRACT: note_on channel=9 note=76 velocity=80 time=0
EXTRACT: note_off channel=9 note=76 velocity=0 time=0.027173875
EXTRACT: note_off channel=9 note=42 velocity=0 time=0.027173875
EXTRACT: note_off channel=9 note=36 velocity=64 time=0
EXTRACT: note_off channel=9 note=36 velocity=64 time=0
EXTRACT: note_off channel=9 note=36 velocity=64 time=0
EXTRACT: note_off channel=9 note=36 velocity=64 time=0
EXTRACT: note_on channel=1 note=42 velocity=110 time=0.16304325
EXTRACT: note_on channel=1 note=54 velocity=110 time=0
EXTRACT: note_on channel=9 note=46 velocity=127 time=0
EXTRACT: note_on channel=9 note=76 velocity=80 time=0
EXTRACT: note_on channel=0 note=54 velocity=120 time=0
EXTRACT: note_off channel=9 note=76 velocity=0 time=0.027173875
EXTRACT: note_off channel=9 note=46 velocity=0 time=0.027173875
EXTRACT: note_off channel=3 note=70 velocity=0 time=0.09510856250000001
EXTRACT: note_off channel=1 note=54 velocity=0 time=0.0135869375
EXTRACT: note_off channel=1 note=42 velocity=0 time=0
EXTRACT: note_off channel=0 note=54 velocity=0 time=0
EXTRACT: note_off channel=9 note=28 velocity=0 time=0.0407608125
EXTRACT: note_on channel=3 note=68 velocity=127 time=0.0135869375
EXTRACT: note_on channel=9 note=36 velocity=127 time=0
EXTRACT: note_on channel=9 note=36 velocity=127 time=0
EXTRACT: note_on channel=9 note=36 velocity=127 time=0
EXTRACT: note_on channel=9 note=36 velocity=127 time=0
EXTRACT: note_on channel=9 note=42 velocity=127 time=0
EXTRACT: note_off channel=9 note=42 velocity=0 time=0.05434775
EXTRACT: note_off channel=9 note=36 velocity=64 time=0
EXTRACT: note_off channel=9 note=36 velocity=64 time=0
EXTRACT: note_off channel=9 note=36 velocity=64 time=0
EXTRACT: note_off channel=9 note=36 velocity=64 time=0
EXTRACT: note_on channel=1 note=42 velocity=110 time=0.16304325
EXTRACT: note_on channel=1 note=54 velocity=110 time=0
EXTRACT: note_on channel=9 note=46 velocity=127 time=0
EXTRACT: note_on channel=0 note=54 velocity=120 time=0
EXTRACT: note_off channel=9 note=46 velocity=0 time=0.05434775
EXTRACT: note_on channel=9 note=36 velocity=127 time=0.05434775
EXTRACT: note_on channel=9 note=36 velocity=127 time=0
EXTRACT: note_on channel=9 note=36 velocity=127 time=0
EXTRACT: note_on channel=9 note=36 velocity=127 time=0
EXTRACT: note_off channel=1 note=54 velocity=0 time=0.05434775
EXTRACT: note_off channel=1 note=42 velocity=0 time=0
EXTRACT: note_off channel=9 note=36 velocity=64 time=0
EXTRACT: note_off channel=9 note=36 velocity=64 time=0
EXTRACT: note_off channel=9 note=36 velocity=64 time=0
EXTRACT: note_off channel=9 note=36 velocity=64 time=0
EXTRACT: note_off channel=0 note=54 velocity=0 time=0
EXTRACT: note_off channel=3 note=68 velocity=0 time=0.0407608125
EXTRACT: note_on channel=3 note=66 velocity=127 time=0.0135869375
EXTRACT: note_on channel=9 note=36 velocity=127 time=0
EXTRACT: note_on channel=9 note=36 velocity=127 time=0
EXTRACT: note_on channel=9 note=36 velocity=127 time=0
EXTRACT: note_on channel=9 note=36 velocity=127 time=0
EXTRACT: note_on channel=9 note=28 velocity=127 time=0
EXTRACT: note_on channel=9 note=42 velocity=127 time=0
EXTRACT: note_on channel=9 note=76 velocity=80 time=0
EXTRACT: note_off channel=9 note=76 velocity=0 time=0.027173875
EXTRACT: note_off channel=9 note=42 velocity=0 time=0.027173875
EXTRACT: note_off channel=9 note=36 velocity=64 time=0
EXTRACT: note_off channel=9 note=36 velocity=64 time=0
EXTRACT: note_off channel=9 note=36 velocity=64 time=0
EXTRACT: note_off channel=9 note=36 velocity=64 time=0
EXTRACT: note_on channel=1 note=42 velocity=110 time=0.16304325
EXTRACT: note_on channel=1 note=54 velocity=110 time=0
EXTRACT: note_on channel=9 note=36 velocity=127 time=0
EXTRACT: note_on channel=9 note=36 velocity=127 time=0
EXTRACT: note_on channel=9 note=36 velocity=127 time=0
EXTRACT: note_on channel=9 note=36 velocity=127 time=0
EXTRACT: note_on channel=9 note=46 velocity=127 time=0
EXTRACT: note_on channel=0 note=54 velocity=120 time=0
EXTRACT: note_off channel=9 note=46 velocity=0 time=0.05434775
EXTRACT: note_off channel=9 note=36 velocity=64 time=0
EXTRACT: note_off channel=9 note=36 velocity=64 time=0
EXTRACT: note_off channel=9 note=36 velocity=64 time=0
EXTRACT: note_off channel=9 note=36 velocity=64 time=0
EXTRACT: note_off channel=3 note=66 velocity=0 time=0.05434775
EXTRACT: note_off channel=1 note=54 velocity=0 time=0.05434775
EXTRACT: note_off channel=1 note=42 velocity=0 time=0
EXTRACT: note_off channel=0 note=54 velocity=0 time=0
EXTRACT: note_off channel=9 note=28 velocity=0 time=0.0407608125
EXTRACT: note_on channel=9 note=36 velocity=127 time=0.0135869375
EXTRACT: note_on channel=9 note=36 velocity=127 time=0
EXTRACT: note_on channel=9 note=36 velocity=127 time=0
EXTRACT: note_on channel=9 note=36 velocity=127 time=0
EXTRACT: note_on channel=9 note=42 velocity=127 time=0
EXTRACT: note_off channel=9 note=42 velocity=0 time=0.05434775
EXTRACT: note_off channel=9 note=36 velocity=64 time=0
EXTRACT: note_off channel=9 note=36 velocity=64 time=0
EXTRACT: note_off channel=9 note=36 velocity=64 time=0
EXTRACT: note_off channel=9 note=36 velocity=64 time=0
EXTRACT: note_on channel=1 note=42 velocity=110 time=0.16304325
EXTRACT: note_on channel=1 note=54 velocity=110 time=0
EXTRACT: note_on channel=3 note=70 velocity=127 time=0
EXTRACT: note_on channel=9 note=46 velocity=127 time=0
EXTRACT: note_on channel=0 note=54 velocity=120 time=0
EXTRACT: note_off channel=9 note=46 velocity=0 time=0.05434775
EXTRACT: note_off channel=3 note=70 velocity=0 time=0.022644895833333335
EXTRACT: note_off channel=1 note=54 velocity=0 time=0.08605060416666667
EXTRACT: note_off channel=1 note=42 velocity=0 time=0
EXTRACT: note_off channel=0 note=54 velocity=0 time=0
EXTRACT: note_on channel=3 note=70 velocity=127 time=0.05434775
EXTRACT: note_on channel=9 note=36 velocity=127 time=0
EXTRACT: note_on channel=9 note=36 velocity=127 time=0
EXTRACT: note_on channel=9 note=36 velocity=127 time=0
EXTRACT: note_on channel=9 note=36 velocity=127 time=0
EXTRACT: note_on channel=9 note=28 velocity=127 time=0
EXTRACT: note_on channel=9 note=42 velocity=127 time=0
EXTRACT: note_on channel=9 note=76 velocity=80 time=0
EXTRACT: note_off channel=9 note=76 velocity=0 time=0.027173875
EXTRACT: note_off channel=9 note=42 velocity=0 time=0.027173875
EXTRACT: note_off channel=9 note=36 velocity=64 time=0
EXTRACT: note_off channel=9 note=36 velocity=64 time=0
EXTRACT: note_off channel=9 note=36 velocity=64 time=0
EXTRACT: note_off channel=9 note=36 velocity=64 time=0
EXTRACT: note_off channel=3 note=70 velocity=0 time=0.027173875
EXTRACT: note_on channel=1 note=42 velocity=110 time=0.13586937500000001
EXTRACT: note_on channel=1 note=54 velocity=110 time=0
EXTRACT: note_on channel=3 note=70 velocity=127 time=0
EXTRACT: note_on channel=9 note=46 velocity=127 time=0
EXTRACT: note_on channel=9 note=76 velocity=80 time=0
EXTRACT: note_on channel=0 note=54 velocity=120 time=0
EXTRACT: note_off channel=9 note=76 velocity=0 time=0.027173875
EXTRACT: note_off channel=9 note=46 velocity=0 time=0.027173875
EXTRACT: note_off channel=3 note=70 velocity=0 time=0.027173875
EXTRACT: note_off channel=1 note=54 velocity=0 time=0.081521625
EXTRACT: note_off channel=1 note=42 velocity=0 time=0
EXTRACT: note_off channel=0 note=54 velocity=0 time=0
EXTRACT: note_off channel=9 note=28 velocity=0 time=0.0407608125
EXTRACT: note_on channel=3 note=70 velocity=127 time=0.0135869375
EXTRACT: note_on channel=9 note=36 velocity=127 time=0
EXTRACT: note_on channel=9 note=36 velocity=127 time=0
EXTRACT: note_on channel=9 note=36 velocity=127 time=0
EXTRACT: note_on channel=9 note=36 velocity=127 time=0
EXTRACT: note_on channel=9 note=42 velocity=127 time=0
EXTRACT: note_off channel=9 note=42 velocity=0 time=0.05434775
EXTRACT: note_off channel=9 note=36 velocity=64 time=0
EXTRACT: note_off channel=9 note=36 velocity=64 time=0
EXTRACT: note_off channel=9 note=36 velocity=64 time=0
EXTRACT: note_off channel=9 note=36 velocity=64 time=0
EXTRACT: note_on channel=1 note=37 velocity=110 time=0.16304325
EXTRACT: note_on channel=1 note=49 velocity=110 time=0
EXTRACT: note_on channel=9 note=46 velocity=127 time=0
EXTRACT: note_on channel=0 note=49 velocity=120 time=0
EXTRACT: note_off channel=9 note=46 velocity=0 time=0.05434775
EXTRACT: note_on channel=9 note=36 velocity=127 time=0.05434775
EXTRACT: note_on channel=9 note=36 velocity=127 time=0
EXTRACT: note_on channel=9 note=36 velocity=127 time=0
EXTRACT: note_on channel=9 note=36 velocity=127 time=0
EXTRACT: note_off channel=1 note=49 velocity=0 time=0.05434775
EXTRACT: note_off channel=1 note=37 velocity=0 time=0
EXTRACT: note_off channel=9 note=36 velocity=64 time=0
EXTRACT: note_off channel=9 note=36 velocity=64 time=0
EXTRACT: note_off channel=9 note=36 velocity=64 time=0
EXTRACT: note_off channel=9 note=36 velocity=64 time=0
EXTRACT: note_off channel=0 note=49 velocity=0 time=0
EXTRACT: note_off channel=3 note=70 velocity=0 time=0.004528979166666667
EXTRACT: note_on channel=3 note=68 velocity=127 time=0.04981877083333334
EXTRACT: note_on channel=9 note=36 velocity=127 time=0
EXTRACT: note_on channel=9 note=36 velocity=127 time=0
EXTRACT: note_on channel=9 note=36 velocity=127 time=0
EXTRACT: note_on channel=9 note=36 velocity=127 time=0
EXTRACT: note_on channel=9 note=28 velocity=127 time=0
EXTRACT: note_on channel=9 note=42 velocity=127 time=0
EXTRACT: note_on channel=9 note=76 velocity=80 time=0
EXTRACT: note_off channel=9 note=76 velocity=0 time=0.027173875
EXTRACT: note_off channel=9 note=42 velocity=0 time=0.027173875
EXTRACT: note_off channel=9 note=36 velocity=64 time=0
EXTRACT: note_off channel=9 note=36 velocity=64 time=0
EXTRACT: note_off channel=9 note=36 velocity=64 time=0
EXTRACT: note_off channel=9 note=36 velocity=64 time=0
EXTRACT: note_off channel=3 note=68 velocity=0 time=0.1494563125
EXTRACT: note_on channel=1 note=37 velocity=110 time=0.0135869375
EXTRACT: note_on channel=1 note=49 velocity=110 time=0
EXTRACT: note_on channel=3 note=66 velocity=127 time=0
EXTRACT: note_on channel=9 note=36 velocity=127 time=0
EXTRACT: note_on channel=9 note=36 velocity=127 time=0
EXTRACT: note_on channel=9 note=36 velocity=127 time=0
EXTRACT: note_on channel=9 note=36 velocity=127 time=0
EXTRACT: note_on channel=9 note=46 velocity=127 time=0
EXTRACT: note_on channel=0 note=49 velocity=120 time=0
EXTRACT: note_off channel=9 note=46 velocity=0 time=0.05434775
EXTRACT: note_off channel=9 note=36 velocity=64 time=0
EXTRACT: note_off channel=9 note=36 velocity=64 time=0
EXTRACT: note_off channel=9 note=36 velocity=64 time=0
EXTRACT: note_off channel=9 note=36 velocity=64 time=0
EXTRACT: note_off channel=1 note=49 velocity=0 time=0.1086955
EXTRACT: note_off channel=1 note=37 velocity=0 time=0
EXTRACT: note_off channel=0 note=49 velocity=0 time=0
EXTRACT: note_off channel=3 note=66 velocity=0 time=0.004528979166666667
EXTRACT: note_off channel=9 note=28 velocity=0 time=0.03623183333333334
EXTRACT: note_on channel=3 note=68 velocity=127 time=0.0135869375
EXTRACT: note_on channel=9 note=36 velocity=127 time=0
EXTRACT: note_on channel=9 note=36 velocity=127 time=0
EXTRACT: note_on channel=9 note=36 velocity=127 time=0
EXTRACT: note_on channel=9 note=36 velocity=127 time=0
EXTRACT: note_on channel=9 note=42 velocity=127 time=0
EXTRACT: note_off channel=9 note=42 velocity=0 time=0.05434775
EXTRACT: note_off channel=9 note=36 velocity=64 time=0
EXTRACT: note_off channel=9 note=36 velocity=64 time=0
EXTRACT: note_off channel=9 note=36 velocity=64 time=0
EXTRACT: note_off channel=9 note=36 velocity=64 time=0
EXTRACT: note_off channel=3 note=68 velocity=0 time=0.15398529166666666
EXTRACT: note_on channel=1 note=39 velocity=110 time=0.009057958333333335
EXTRACT: note_on channel=1 note=51 velocity=110 time=0
EXTRACT: note_on channel=3 note=70 velocity=127 time=0
EXTRACT: note_on channel=9 note=46 velocity=127 time=0
EXTRACT: note_on channel=0 note=51 velocity=120 time=0
EXTRACT: note_off channel=9 note=46 velocity=0 time=0.05434775
EXTRACT: note_off channel=3 note=70 velocity=0 time=0.09057958333333334
EXTRACT: note_off channel=1 note=51 velocity=0 time=0.01811591666666667
EXTRACT: note_off channel=1 note=39 velocity=0 time=0
EXTRACT: note_off channel=0 note=51 velocity=0 time=0
EXTRACT: note_on channel=3 note=70 velocity=127 time=0.05434775
EXTRACT: note_on channel=9 note=36 velocity=127 time=0
EXTRACT: note_on channel=9 note=36 velocity=127 time=0
EXTRACT: note_on channel=9 note=36 velocity=127 time=0
EXTRACT: note_on channel=9 note=36 velocity=127 time=0
EXTRACT: note_on channel=9 note=28 velocity=127 time=0
EXTRACT: note_on channel=9 note=42 velocity=127 time=0
EXTRACT: note_on channel=9 note=76 velocity=80 time=0
EXTRACT: note_off channel=9 note=76 velocity=0 time=0.027173875
EXTRACT: note_off channel=9 note=42 velocity=0 time=0.027173875
EXTRACT: note_off channel=9 note=36 velocity=64 time=0
EXTRACT: note_off channel=9 note=36 velocity=64 time=0
EXTRACT: note_off channel=9 note=36 velocity=64 time=0
EXTRACT: note_off channel=9 note=36 velocity=64 time=0
EXTRACT: note_on channel=1 note=39 velocity=110 time=0.16304325
EXTRACT: note_on channel=1 note=51 velocity=110 time=0
EXTRACT: note_on channel=9 note=46 velocity=127 time=0
EXTRACT: note_on channel=9 note=76 velocity=80 time=0
EXTRACT: note_on channel=0 note=51 velocity=120 time=0
EXTRACT: note_off channel=9 note=76 velocity=0 time=0.027173875
EXTRACT: note_off channel=9 note=46 velocity=0 time=0.027173875
EXTRACT: note_off channel=1 note=51 velocity=0 time=0.1086955
EXTRACT: note_off channel=1 note=39 velocity=0 time=0
EXTRACT: note_off channel=0 note=51 velocity=0 time=0
EXTRACT: note_off channel=9 note=28 velocity=0 time=0.0407608125
EXTRACT: note_on channel=9 note=36 velocity=127 time=0.0135869375
EXTRACT: note_on channel=9 note=36 velocity=127 time=0
EXTRACT: note_on channel=9 note=36 velocity=127 time=0
EXTRACT: note_on channel=9 note=36 velocity=127 time=0
EXTRACT: note_on channel=9 note=42 velocity=127 time=0
EXTRACT: note_off channel=3 note=70 velocity=0 time=0.01811591666666667
EXTRACT: note_off channel=9 note=42 velocity=0 time=0.03623183333333334
EXTRACT: note_off channel=9 note=36 velocity=64 time=0
EXTRACT: note_off channel=9 note=36 velocity=64 time=0
EXTRACT: note_off channel=9 note=36 velocity=64 time=0
EXTRACT: note_off channel=9 note=36 velocity=64 time=0
EXTRACT: note_on channel=1 note=39 velocity=110 time=0.16304325
EXTRACT: note_on channel=1 note=51 velocity=110 time=0
EXTRACT: note_on channel=9 note=46 velocity=127 time=0
EXTRACT: note_on channel=0 note=51 velocity=120 time=0
EXTRACT: note_off channel=9 note=46 velocity=0 time=0.05434775
EXTRACT: note_on channel=9 note=36 velocity=127 time=0.05434775
EXTRACT: note_on channel=9 note=36 velocity=127 time=0
EXTRACT: note_on channel=9 note=36 velocity=127 time=0
EXTRACT: note_on channel=9 note=36 velocity=127 time=0
EXTRACT: note_off channel=1 note=51 velocity=0 time=0.05434775
EXTRACT: note_off channel=1 note=39 velocity=0 time=0
EXTRACT: note_off channel=9 note=36 velocity=64 time=0
EXTRACT: note_off channel=9 note=36 velocity=64 time=0
EXTRACT: note_off channel=9 note=36 velocity=64 time=0
EXTRACT: note_off channel=9 note=36 velocity=64 time=0
EXTRACT: note_off channel=0 note=51 velocity=0 time=0
EXTRACT: note_on channel=9 note=36 velocity=127 time=0.05434775
EXTRACT: note_on channel=9 note=36 velocity=127 time=0
EXTRACT: note_on channel=9 note=36 velocity=127 time=0
EXTRACT: note_on channel=9 note=36 velocity=127 time=0
EXTRACT: note_on channel=9 note=28 velocity=127 time=0
EXTRACT: note_on channel=9 note=42 velocity=127 time=0
EXTRACT: note_on channel=9 note=76 velocity=80 time=0
EXTRACT: note_off channel=9 note=76 velocity=0 time=0.027173875
EXTRACT: note_off channel=9 note=42 velocity=0 time=0.027173875
EXTRACT: note_off channel=9 note=36 velocity=64 time=0
EXTRACT: note_off channel=9 note=36 velocity=64 time=0
EXTRACT: note_off channel=9 note=36 velocity=64 time=0
EXTRACT: note_off channel=9 note=36 velocity=64 time=0
EXTRACT: note_on channel=1 note=39 velocity=110 time=0.16304325
EXTRACT: note_on channel=1 note=51 velocity=110 time=0
EXTRACT: note_on channel=9 note=36 velocity=127 time=0
EXTRACT: note_on channel=9 note=36 velocity=127 time=0
EXTRACT: note_on channel=9 note=36 velocity=127 time=0
EXTRACT: note_on channel=9 note=36 velocity=127 time=0
EXTRACT: note_on channel=9 note=46 velocity=127 time=0
EXTRACT: note_on channel=0 note=51 velocity=120 time=0
EXTRACT: note_off channel=9 note=46 velocity=0 time=0.05434775
EXTRACT: note_off channel=9 note=36 velocity=64 time=0
EXTRACT: note_off channel=9 note=36 velocity=64 time=0
EXTRACT: note_off channel=9 note=36 velocity=64 time=0
EXTRACT: note_off channel=9 note=36 velocity=64 time=0
EXTRACT: note_off channel=1 note=51 velocity=0 time=0.1086955
EXTRACT: note_off channel=1 note=39 velocity=0 time=0
EXTRACT: note_off channel=0 note=51 velocity=0 time=0
EXTRACT: note_off channel=9 note=28 velocity=0 time=0.0407608125
EXTRACT: note_on channel=9 note=36 velocity=127 time=0.0135869375
EXTRACT: note_on channel=9 note=36 velocity=127 time=0
EXTRACT: note_on channel=9 note=36 velocity=127 time=0
EXTRACT: note_on channel=9 note=36 velocity=127 time=0
EXTRACT: note_on channel=9 note=42 velocity=127 time=0
EXTRACT: note_off channel=9 note=42 velocity=0 time=0.05434775
EXTRACT: note_off channel=9 note=36 velocity=64 time=0
EXTRACT: note_off channel=9 note=36 velocity=64 time=0
EXTRACT: note_off channel=9 note=36 velocity=64 time=0
EXTRACT: note_off channel=9 note=36 velocity=64 time=0
EXTRACT: note_on channel=1 note=35 velocity=110 time=0.16304325
EXTRACT: note_on channel=1 note=47 velocity=110 time=0
EXTRACT: note_on channel=3 note=70 velocity=127 time=0
EXTRACT: note_on channel=9 note=46 velocity=127 time=0
EXTRACT: note_on channel=0 note=47 velocity=120 time=0
EXTRACT: note_off channel=9 note=46 velocity=0 time=0.05434775
EXTRACT: note_off channel=3 note=70 velocity=0 time=0.04528979166666667
EXTRACT: note_off channel=1 note=47 velocity=0 time=0.06340570833333334
EXTRACT: note_off channel=1 note=35 velocity=0 time=0
EXTRACT: note_off channel=0 note=47 velocity=0 time=0
EXTRACT: note_on channel=3 note=70 velocity=127 time=0.05434775
EXTRACT: note_on channel=9 note=36 velocity=127 time=0
EXTRACT: note_on channel=9 note=36 velocity=127 time=0
EXTRACT: note_on channel=9 note=36 velocity=127 time=0
EXTRACT: note_on channel=9 note=36 velocity=127 time=0
EXTRACT: note_on channel=9 note=28 velocity=127 time=0
EXTRACT: note_on channel=9 note=42 velocity=127 time=0
EXTRACT: note_on channel=9 note=76 velocity=80 time=0
EXTRACT: note_off channel=9 note=76 velocity=0 time=0.027173875
EXTRACT: note_off channel=9 note=42 velocity=0 time=0.027173875
EXTRACT: note_off channel=9 note=36 velocity=64 time=0
EXTRACT: note_off channel=9 note=36 velocity=64 time=0
EXTRACT: note_off channel=9 note=36 velocity=64 time=0
EXTRACT: note_off channel=9 note=36 velocity=64 time=0
EXTRACT: note_off channel=3 note=70 velocity=0 time=0.027173875
EXTRACT: note_on channel=1 note=35 velocity=110 time=0.13586937500000001
EXTRACT: note_on channel=1 note=47 velocity=110 time=0
EXTRACT: note_on channel=3 note=70 velocity=127 time=0
EXTRACT: note_on channel=9 note=46 velocity=127 time=0
EXTRACT: note_on channel=9 note=76 velocity=80 time=0
EXTRACT: note_on channel=0 note=47 velocity=120 time=0
EXTRACT: note_off channel=9 note=76 velocity=0 time=0.027173875
EXTRACT: note_off channel=9 note=46 velocity=0 time=0.027173875
EXTRACT: note_off channel=3 note=70 velocity=0 time=0.04981877083333334
EXTRACT: note_off channel=1 note=47 velocity=0 time=0.05887672916666667
EXTRACT: note_off channel=1 note=35 velocity=0 time=0
EXTRACT: note_off channel=0 note=47 velocity=0 time=0
EXTRACT: note_off channel=9 note=28 velocity=0 time=0.0407608125
EXTRACT: note_on channel=3 note=68 velocity=127 time=0.0135869375
EXTRACT: note_on channel=9 note=36 velocity=127 time=0
EXTRACT: note_on channel=9 note=36 velocity=127 time=0
EXTRACT: note_on channel=9 note=36 velocity=127 time=0
EXTRACT: note_on channel=9 note=36 velocity=127 time=0
EXTRACT: note_on channel=9 note=42 velocity=127 time=0
EXTRACT: note_off channel=9 note=42 velocity=0 time=0.05434775
EXTRACT: note_off channel=9 note=36 velocity=64 time=0
EXTRACT: note_off channel=9 note=36 velocity=64 time=0
EXTRACT: note_off channel=9 note=36 velocity=64 time=0
EXTRACT: note_off channel=9 note=36 velocity=64 time=0
EXTRACT: note_off channel=3 note=68 velocity=0 time=0.13586937500000001
EXTRACT: note_on channel=1 note=37 velocity=110 time=0.027173875
EXTRACT: note_on channel=1 note=49 velocity=110 time=0
EXTRACT: note_on channel=3 note=70 velocity=127 time=0
EXTRACT: note_on channel=9 note=46 velocity=127 time=0
EXTRACT: note_on channel=0 note=49 velocity=120 time=0
EXTRACT: note_off channel=9 note=46 velocity=0 time=0.05434775
EXTRACT: note_on channel=9 note=36 velocity=127 time=0.05434775
EXTRACT: note_on channel=9 note=36 velocity=127 time=0
EXTRACT: note_on channel=9 note=36 velocity=127 time=0
EXTRACT: note_on channel=9 note=36 velocity=127 time=0
EXTRACT: note_off channel=1 note=49 velocity=0 time=0.05434775
EXTRACT: note_off channel=1 note=37 velocity=0 time=0
EXTRACT: note_off channel=9 note=36 velocity=64 time=0
EXTRACT: note_off channel=9 note=36 velocity=64 time=0
EXTRACT: note_off channel=9 note=36 velocity=64 time=0
EXTRACT: note_off channel=9 note=36 velocity=64 time=0
EXTRACT: note_off channel=0 note=49 velocity=0 time=0
EXTRACT: note_off channel=3 note=70 velocity=0 time=0.004528979166666667
EXTRACT: note_on channel=3 note=68 velocity=127 time=0.04981877083333334
EXTRACT: note_on channel=6 note=65 velocity=115 time=0
EXTRACT: note_on channel=9 note=36 velocity=127 time=0
EXTRACT: note_on channel=9 note=36 velocity=127 time=0
EXTRACT: note_on channel=9 note=36 velocity=127 time=0
EXTRACT: note_on channel=9 note=36 velocity=127 time=0
EXTRACT: note_on channel=9 note=28 velocity=127 time=0
EXTRACT: note_on channel=9 note=42 velocity=127 time=0
EXTRACT: note_on channel=9 note=76 velocity=80 time=0
EXTRACT: note_off channel=9 note=76 velocity=0 time=0.027173875
EXTRACT: note_off channel=9 note=42 velocity=0 time=0.027173875
EXTRACT: note_off channel=9 note=36 velocity=64 time=0
EXTRACT: note_off channel=9 note=36 velocity=64 time=0
EXTRACT: note_off channel=9 note=36 velocity=64 time=0
EXTRACT: note_off channel=9 note=36 velocity=64 time=0
EXTRACT: note_off channel=3 note=68 velocity=0 time=0.13134039583333335
EXTRACT: note_on channel=1 note=37 velocity=110 time=0.03170285416666667
EXTRACT: note_on channel=1 note=49 velocity=110 time=0
EXTRACT: note_on channel=3 note=66 velocity=127 time=0
EXTRACT: note_on channel=9 note=36 velocity=127 time=0
EXTRACT: note_on channel=9 note=36 velocity=127 time=0
EXTRACT: note_on channel=9 note=36 velocity=127 time=0
EXTRACT: note_on channel=9 note=36 velocity=127 time=0
EXTRACT: note_on channel=9 note=46 velocity=127 time=0
EXTRACT: note_on channel=0 note=49 velocity=120 time=0
EXTRACT: note_off channel=9 note=46 velocity=0 time=0.05434775
EXTRACT: note_off channel=9 note=36 velocity=64 time=0
EXTRACT: note_off channel=9 note=36 velocity=64 time=0
EXTRACT: note_off channel=9 note=36 velocity=64 time=0
EXTRACT: note_off channel=9 note=36 velocity=64 time=0
EXTRACT: note_off channel=1 note=49 velocity=0 time=0.1086955
EXTRACT: note_off channel=1 note=37 velocity=0 time=0
EXTRACT: note_off channel=0 note=49 velocity=0 time=0
EXTRACT: note_off channel=9 note=28 velocity=0 time=0.0407608125
EXTRACT: note_off channel=3 note=66 velocity=0 time=0.004528979166666667
EXTRACT: note_on channel=5 note=66 velocity=75 time=0.009057958333333335
EXTRACT: note_on channel=8 note=54 velocity=127 time=0
EXTRACT: note_on channel=9 note=36 velocity=127 time=0
EXTRACT: note_on channel=9 note=36 velocity=127 time=0
EXTRACT: note_on channel=9 note=36 velocity=127 time=0
EXTRACT: note_on channel=9 note=42 velocity=15 time=0
EXTRACT: note_on channel=9 note=37 velocity=70 time=0
EXTRACT: note_on channel=9 note=35 velocity=117 time=0
EXTRACT: note_off channel=5 note=66 velocity=0 time=0.027173875
EXTRACT: note_off channel=9 note=35 velocity=0 time=0
EXTRACT: note_off channel=9 note=37 velocity=0 time=0
EXTRACT: note_off channel=9 note=42 velocity=0 time=0
EXTRACT: note_off channel=9 note=36 velocity=64 time=0.027173875
EXTRACT: note_off channel=9 note=36 velocity=64 time=0
EXTRACT: note_off channel=9 note=36 velocity=64 time=0
EXTRACT: note_off channel=6 note=65 velocity=64 time=0.004528979166666667
EXTRACT: note_on channel=5 note=66 velocity=75 time=0.04981877083333334
EXTRACT: note_off channel=8 note=54 velocity=0 time=0
EXTRACT: note_off channel=5 note=66 velocity=0 time=0.027173875
EXTRACT: note_on channel=1 note=42 velocity=110 time=0.081521625
EXTRACT: note_on channel=1 note=54 velocity=110 time=0
EXTRACT: note_on channel=5 note=54 velocity=75 time=0
EXTRACT: note_on channel=8 note=66 velocity=127 time=0
EXTRACT: note_on channel=8 note=54 velocity=127 time=0
EXTRACT: note_on channel=9 note=46 velocity=105 time=0
EXTRACT: note_on channel=0 note=54 velocity=120 time=0
EXTRACT: note_off channel=5 note=54 velocity=0 time=0.027173875
EXTRACT: note_off channel=9 note=46 velocity=0 time=0
EXTRACT: note_on channel=5 note=54 velocity=75 time=0.081521625
EXTRACT: note_off channel=8 note=54 velocity=0 time=0
EXTRACT: note_off channel=8 note=66 velocity=0 time=0
EXTRACT: note_off channel=5 note=54 velocity=0 time=0.027173875
EXTRACT: note_off channel=1 note=54 velocity=0 time=0.027173875
EXTRACT: note_off channel=1 note=42 velocity=0 time=0
EXTRACT: note_off channel=0 note=54 velocity=0 time=0
EXTRACT: note_on channel=5 note=66 velocity=75 time=0.05434775
EXTRACT: note_on channel=8 note=54 velocity=127 time=0
EXTRACT: note_on channel=9 note=36 velocity=127 time=0
EXTRACT: note_on channel=9 note=36 velocity=127 time=0
EXTRACT: note_on channel=9 note=36 velocity=127 time=0
EXTRACT: note_on channel=9 note=76 velocity=80 time=0
EXTRACT: note_on channel=9 note=42 velocity=15 time=0
EXTRACT: note_on channel=9 note=37 velocity=70 time=0
EXTRACT: note_on channel=9 note=35 velocity=117 time=0
EXTRACT: note_off channel=5 note=66 velocity=0 time=0.027173875
EXTRACT: note_off channel=9 note=35 velocity=0 time=0
EXTRACT: note_off channel=9 note=37 velocity=0 time=0
EXTRACT: note_off channel=9 note=42 velocity=0 time=0
EXTRACT: note_off channel=9 note=76 velocity=0 time=0
EXTRACT: note_off channel=9 note=36 velocity=64 time=0.027173875
EXTRACT: note_off channel=9 note=36 velocity=64 time=0
EXTRACT: note_off channel=9 note=36 velocity=64 time=0
EXTRACT: note_on channel=5 note=66 velocity=75 time=0.05434775
EXTRACT: note_off channel=8 note=54 velocity=0 time=0
EXTRACT: note_off channel=5 note=66 velocity=0 time=0.027173875
EXTRACT: note_on channel=1 note=42 velocity=110 time=0.081521625
EXTRACT: note_on channel=1 note=54 velocity=110 time=0
EXTRACT: note_on channel=5 note=54 velocity=75 time=0
EXTRACT: note_on channel=8 note=66 velocity=127 time=0
EXTRACT: note_on channel=8 note=54 velocity=127 time=0
EXTRACT: note_on channel=9 note=76 velocity=80 time=0
EXTRACT: note_on channel=9 note=46 velocity=105 time=0
EXTRACT: note_on channel=9 note=30 velocity=85 time=0
EXTRACT: note_on channel=0 note=54 velocity=120 time=0
EXTRACT: note_off channel=5 note=54 velocity=0 time=0.027173875
EXTRACT: note_off channel=9 note=46 velocity=0 time=0
EXTRACT: note_off channel=9 note=76 velocity=0 time=0
EXTRACT: note_off channel=9 note=30 velocity=0 time=0.027173875
EXTRACT: note_on channel=5 note=54 velocity=75 time=0.05434775
EXTRACT: note_off channel=8 note=54 velocity=0 time=0
EXTRACT: note_off channel=8 note=66 velocity=0 time=0
EXTRACT: note_on channel=9 note=29 velocity=85 time=0
EXTRACT: note_off channel=5 note=54 velocity=0 time=0.027173875
EXTRACT: note_off channel=1 note=54 velocity=0 time=0.027173875
EXTRACT: note_off channel=1 note=42 velocity=0 time=0
EXTRACT: note_off channel=9 note=29 velocity=0 time=0
EXTRACT: note_off channel=0 note=54 velocity=0 time=0
EXTRACT: note_on channel=5 note=78 velocity=75 time=0.05434775
EXTRACT: note_on channel=8 note=54 velocity=127 time=0
EXTRACT: note_on channel=9 note=36 velocity=127 time=0
EXTRACT: note_on channel=9 note=36 velocity=127 time=0
EXTRACT: note_on channel=9 note=36 velocity=127 time=0
EXTRACT: note_on channel=9 note=42 velocity=15 time=0
EXTRACT: note_on channel=9 note=39 velocity=105 time=0
EXTRACT: note_on channel=9 note=37 velocity=70 time=0
EXTRACT: note_on channel=9 note=35 velocity=117 time=0
EXTRACT: note_on channel=9 note=30 velocity=85 time=0
EXTRACT: note_off channel=5 note=78 velocity=0 time=0.027173875
EXTRACT: note_off channel=9 note=35 velocity=0 time=0
EXTRACT: note_off channel=9 note=37 velocity=0 time=0
EXTRACT: note_off channel=9 note=39 velocity=0 time=0
EXTRACT: note_off channel=9 note=42 velocity=0 time=0
EXTRACT: note_off channel=9 note=36 velocity=64 time=0.027173875
EXTRACT: note_off channel=9 note=36 velocity=64 time=0
EXTRACT: note_off channel=9 note=36 velocity=64 time=0
EXTRACT: note_off channel=9 note=30 velocity=0 time=0
EXTRACT: note_on channel=5 note=78 velocity=75 time=0.05434775
EXTRACT: note_off channel=8 note=54 velocity=0 time=0
EXTRACT: note_off channel=5 note=78 velocity=0 time=0.027173875
EXTRACT: note_on channel=1 note=42 velocity=110 time=0.081521625
EXTRACT: note_on channel=1 note=54 velocity=110 time=0
EXTRACT: note_on channel=5 note=66 velocity=75 time=0
EXTRACT: note_on channel=8 note=66 velocity=127 time=0
EXTRACT: note_on channel=8 note=54 velocity=127 time=0
EXTRACT: note_on channel=9 note=46 velocity=105 time=0
EXTRACT: note_on channel=9 note=39 velocity=105 time=0
EXTRACT: note_on channel=9 note=35 velocity=117 time=0
EXTRACT: note_on channel=0 note=54 velocity=120 time=0
EXTRACT: note_off channel=5 note=66 velocity=0 time=0.027173875
EXTRACT: note_off channel=9 note=35 velocity=0 time=0
EXTRACT: note_off channel=9 note=39 velocity=0 time=0
EXTRACT: note_off channel=9 note=46 velocity=0 time=0
EXTRACT: note_on channel=5 note=66 velocity=75 time=0.081521625
EXTRACT: note_off channel=8 note=54 velocity=0 time=0
EXTRACT: note_off channel=8 note=66 velocity=0 time=0
EXTRACT: note_off channel=5 note=66 velocity=0 time=0.027173875
EXTRACT: note_off channel=1 note=54 velocity=0 time=0.027173875
EXTRACT: note_off channel=1 note=42 velocity=0 time=0
EXTRACT: note_off channel=0 note=54 velocity=0 time=0
EXTRACT: note_on channel=5 note=90 velocity=75 time=0.05434775
EXTRACT: note_on channel=8 note=54 velocity=127 time=0
EXTRACT: note_on channel=9 note=36 velocity=127 time=0
EXTRACT: note_on channel=9 note=36 velocity=127 time=0
EXTRACT: note_on channel=9 note=36 velocity=127 time=0
EXTRACT: note_on channel=9 note=76 velocity=80 time=0
EXTRACT: note_on channel=9 note=49 velocity=50 time=0
EXTRACT: note_on channel=9 note=42 velocity=15 time=0
EXTRACT: note_on channel=9 note=37 velocity=70 time=0
EXTRACT: note_on channel=12 note=57 velocity=115 time=0
EXTRACT: note_off channel=5 note=90 velocity=0 time=0.027173875
EXTRACT: note_off channel=9 note=37 velocity=0 time=0
EXTRACT: note_off channel=9 note=42 velocity=0 time=0
EXTRACT: note_off channel=9 note=49 velocity=0 time=0
EXTRACT: note_off channel=9 note=76 velocity=0 time=0
EXTRACT: note_off channel=12 note=57 velocity=0 time=0
EXTRACT: note_off channel=9 note=36 velocity=64 time=0.027173875
EXTRACT: note_off channel=9 note=36 velocity=64 time=0
EXTRACT: note_off channel=9 note=36 velocity=64 time=0
EXTRACT: note_on channel=5 note=90 velocity=75 time=0.05434775
EXTRACT: note_off channel=8 note=54 velocity=0 time=0
EXTRACT: note_off channel=5 note=90 velocity=0 time=0.027173875
EXTRACT: note_on channel=5 note=78 velocity=75 time=0.081521625
EXTRACT: note_on channel=8 note=66 velocity=127 time=0
EXTRACT: note_on channel=8 note=54 velocity=127 time=0
EXTRACT: note_off channel=5 note=78 velocity=0 time=0.027173875
EXTRACT: note_on channel=5 note=78 velocity=75 time=0.081521625
EXTRACT: note_off channel=8 note=54 velocity=0 time=0
EXTRACT: note_off channel=8 note=66 velocity=0 time=0
EXTRACT: note_off channel=5 note=78 velocity=0 time=0.027173875
EXTRACT: note_on channel=3 note=66 velocity=127 time=0.081521625
EXTRACT: note_on channel=4 note=66 velocity=105 time=0
EXTRACT: note_on channel=4 note=61 velocity=105 time=0
EXTRACT: note_on channel=8 note=54 velocity=127 time=0
EXTRACT: note_on channel=9 note=36 velocity=127 time=0
EXTRACT: note_on channel=9 note=36 velocity=127 time=0
EXTRACT: note_on channel=9 note=36 velocity=127 time=0
EXTRACT: note_on channel=9 note=36 velocity=127 time=0
EXTRACT: note_on channel=9 note=42 velocity=127 time=0
EXTRACT: note_off channel=4 note=61 velocity=0 time=0.05434775
EXTRACT: note_off channel=4 note=66 velocity=0 time=0
EXTRACT: note_off channel=9 note=42 velocity=0 time=0
EXTRACT: note_off channel=9 note=36 velocity=64 time=0
EXTRACT: note_off channel=9 note=36 velocity=64 time=0
EXTRACT: note_off channel=9 note=36 velocity=64 time=0
EXTRACT: note_off channel=9 note=36 velocity=64 time=0
EXTRACT: note_off channel=8 note=54 velocity=0 time=0.05434775
EXTRACT: note_on channel=1 note=42 velocity=110 time=0.1086955
EXTRACT: note_on channel=1 note=54 velocity=110 time=0
EXTRACT: note_on channel=4 note=66 velocity=105 time=0
EXTRACT: note_on channel=4 note=61 velocity=105 time=0
EXTRACT: note_on channel=8 note=66 velocity=127 time=0
EXTRACT: note_on channel=9 note=46 velocity=127 time=0
EXTRACT: note_on channel=0 note=54 velocity=120 time=0
EXTRACT: note_off channel=4 note=61 velocity=0 time=0.05434775
EXTRACT: note_off channel=4 note=66 velocity=0 time=0
EXTRACT: note_off channel=9 note=46 velocity=0 time=0
EXTRACT: note_off channel=8 note=66 velocity=0 time=0.05434775
EXTRACT: note_off channel=1 note=54 velocity=0 time=0.05434775
EXTRACT: note_off channel=1 note=42 velocity=0 time=0
EXTRACT: note_off channel=0 note=54 velocity=0 time=0
EXTRACT: note_off channel=3 note=66 velocity=0 time=0.01811591666666667
EXTRACT: note_on channel=3 note=63 velocity=127 time=0.03623183333333334
EXTRACT: note_on channel=4 note=66 velocity=105 time=0
EXTRACT: note_on channel=4 note=61 velocity=105 time=0
EXTRACT: note_on channel=8 note=54 velocity=127 time=0
EXTRACT: note_on channel=9 note=36 velocity=127 time=0
EXTRACT: note_on channel=9 note=36 velocity=127 time=0
EXTRACT: note_on channel=9 note=36 velocity=127 time=0
EXTRACT: note_on channel=9 note=36 velocity=127 time=0
EXTRACT: note_on channel=9 note=28 velocity=127 time=0
EXTRACT: note_on channel=9 note=42 velocity=127 time=0
EXTRACT: note_on channel=9 note=76 velocity=80 time=0
EXTRACT: note_off channel=9 note=76 velocity=0 time=0.027173875
EXTRACT: note_off channel=4 note=61 velocity=0 time=0.027173875
EXTRACT: note_off channel=4 note=66 velocity=0 time=0
EXTRACT: note_off channel=9 note=42 velocity=0 time=0
EXTRACT: note_off channel=9 note=36 velocity=64 time=0
EXTRACT: note_off channel=9 note=36 velocity=64 time=0
EXTRACT: note_off channel=9 note=36 velocity=64 time=0
EXTRACT: note_off channel=9 note=36 velocity=64 time=0
EXTRACT: note_off channel=8 note=54 velocity=0 time=0.05434775
EXTRACT: note_off channel=3 note=63 velocity=0 time=0.09057958333333334
EXTRACT: note_on channel=1 note=42 velocity=110 time=0.01811591666666667
EXTRACT: note_on channel=1 note=54 velocity=110 time=0
EXTRACT: note_on channel=3 note=61 velocity=127 time=0
EXTRACT: note_on channel=8 note=66 velocity=127 time=0
EXTRACT: note_on channel=9 note=46 velocity=127 time=0
EXTRACT: note_on channel=9 note=76 velocity=80 time=0
EXTRACT: note_on channel=0 note=54 velocity=120 time=0
EXTRACT: note_off channel=9 note=76 velocity=0 time=0.027173875
EXTRACT: note_off channel=9 note=46 velocity=0 time=0.027173875
EXTRACT: note_off channel=8 note=66 velocity=0 time=0.03623183333333334
EXTRACT: note_on channel=4 note=66 velocity=105 time=0.01811591666666667
EXTRACT: note_on channel=4 note=61 velocity=105 time=0
EXTRACT: note_on channel=8 note=66 velocity=127 time=0
EXTRACT: note_off channel=1 note=54 velocity=0 time=0.05434775
EXTRACT: note_off channel=1 note=42 velocity=0 time=0
EXTRACT: note_off channel=3 note=61 velocity=0 time=0
EXTRACT: note_off channel=4 note=61 velocity=0 time=0
EXTRACT: note_off channel=4 note=66 velocity=0 time=0
EXTRACT: note_off channel=0 note=54 velocity=0 time=0
EXTRACT: note_off channel=9 note=28 velocity=0 time=0.0407608125
EXTRACT: note_on channel=3 note=66 velocity=127 time=0.0135869375
EXTRACT: note_on channel=4 note=61 velocity=105 time=0
EXTRACT: note_on channel=4 note=56 velocity=105 time=0
EXTRACT: note_off channel=8 note=66 velocity=0 time=0
EXTRACT: note_on channel=8 note=49 velocity=127 time=0
EXTRACT: note_on channel=9 note=36 velocity=127 time=0
EXTRACT: note_on channel=9 note=36 velocity=127 time=0
EXTRACT: note_on channel=9 note=36 velocity=127 time=0
EXTRACT: note_on channel=9 note=36 velocity=127 time=0
EXTRACT: note_on channel=9 note=42 velocity=127 time=0
EXTRACT: note_off channel=4 note=56 velocity=0 time=0.05434775
EXTRACT: note_off channel=4 note=61 velocity=0 time=0
EXTRACT: note_off channel=9 note=42 velocity=0 time=0
EXTRACT: note_off channel=9 note=36 velocity=64 time=0
EXTRACT: note_off channel=9 note=36 velocity=64 time=0
EXTRACT: note_off channel=9 note=36 velocity=64 time=0
EXTRACT: note_off channel=9 note=36 velocity=64 time=0
EXTRACT: note_off channel=8 note=49 velocity=0 time=0.05434775
EXTRACT: note_on channel=1 note=37 velocity=110 time=0.1086955
EXTRACT: note_on channel=1 note=49 velocity=110 time=0
EXTRACT: note_on channel=4 note=61 velocity=105 time=0
EXTRACT: note_on channel=4 note=56 velocity=105 time=0
EXTRACT: note_on channel=8 note=61 velocity=127 time=0
EXTRACT: note_on channel=9 note=46 velocity=127 time=0
EXTRACT: note_on channel=0 note=49 velocity=120 time=0
EXTRACT: note_off channel=4 note=56 velocity=0 time=0.05434775
EXTRACT: note_off channel=4 note=61 velocity=0 time=0
EXTRACT: note_off channel=9 note=46 velocity=0 time=0
EXTRACT: note_off channel=8 note=61 velocity=0 time=0.05434775
EXTRACT: note_on channel=9 note=36 velocity=127 time=0
EXTRACT: note_on channel=9 note=36 velocity=127 time=0
EXTRACT: note_on channel=9 note=36 velocity=127 time=0
EXTRACT: note_on channel=9 note=36 velocity=127 time=0
EXTRACT: note_off channel=1 note=49 velocity=0 time=0.05434775
EXTRACT: note_off channel=1 note=37 velocity=0 time=0
EXTRACT: note_off channel=9 note=36 velocity=64 time=0
EXTRACT: note_off channel=9 note=36 velocity=64 time=0
EXTRACT: note_off channel=9 note=36 velocity=64 time=0
EXTRACT: note_off channel=9 note=36 velocity=64 time=0
EXTRACT: note_off channel=0 note=49 velocity=0 time=0
EXTRACT: note_off channel=3 note=66 velocity=0 time=0.03170285416666667
EXTRACT: note_on channel=3 note=63 velocity=127 time=0.022644895833333335
EXTRACT: note_on channel=4 note=61 velocity=105 time=0
EXTRACT: note_on channel=4 note=56 velocity=105 time=0
EXTRACT: note_on channel=8 note=49 velocity=127 time=0
EXTRACT: note_on channel=9 note=36 velocity=127 time=0
EXTRACT: note_on channel=9 note=36 velocity=127 time=0
EXTRACT: note_on channel=9 note=36 velocity=127 time=0
EXTRACT: note_on channel=9 note=36 velocity=127 time=0
EXTRACT: note_on channel=9 note=28 velocity=127 time=0
EXTRACT: note_on channel=9 note=42 velocity=127 time=0
EXTRACT: note_on channel=9 note=76 velocity=80 time=0
EXTRACT: note_off channel=9 note=76 velocity=0 time=0.027173875
EXTRACT: note_off channel=4 note=56 velocity=0 time=0.027173875
EXTRACT: note_off channel=4 note=61 velocity=0 time=0
EXTRACT: note_off channel=9 note=42 velocity=0 time=0
EXTRACT: note_off channel=9 note=36 velocity=64 time=0
EXTRACT: note_off channel=9 note=36 velocity=64 time=0
EXTRACT: note_off channel=9 note=36 velocity=64 time=0
EXTRACT: note_off channel=9 note=36 velocity=64 time=0
EXTRACT: note_off channel=8 note=49 velocity=0 time=0.05434775
EXTRACT: note_off channel=3 note=63 velocity=0 time=0.10416652083333333
EXTRACT: note_on channel=1 note=37 velocity=110 time=0.004528979166666667
EXTRACT: note_on channel=1 note=49 velocity=110 time=0
EXTRACT: note_on channel=3 note=61 velocity=127 time=0
EXTRACT: note_on channel=8 note=61 velocity=127 time=0
EXTRACT: note_on channel=9 note=36 velocity=127 time=0
EXTRACT: note_on channel=9 note=36 velocity=127 time=0
EXTRACT: note_on channel=9 note=36 velocity=127 time=0
EXTRACT: note_on channel=9 note=36 velocity=127 time=0
EXTRACT: note_on channel=9 note=46 velocity=127 time=0
EXTRACT: note_on channel=0 note=49 velocity=120 time=0
EXTRACT: note_off channel=9 note=46 velocity=0 time=0.05434775
EXTRACT: note_off channel=9 note=36 velocity=64 time=0
EXTRACT: note_off channel=9 note=36 velocity=64 time=0
EXTRACT: note_off channel=9 note=36 velocity=64 time=0
EXTRACT: note_off channel=9 note=36 velocity=64 time=0
EXTRACT: note_off channel=8 note=61 velocity=0 time=0.05434775
EXTRACT: note_off channel=1 note=49 velocity=0 time=0.05434775
EXTRACT: note_off channel=1 note=37 velocity=0 time=0
EXTRACT: note_off channel=0 note=49 velocity=0 time=0
EXTRACT: note_off channel=3 note=61 velocity=0 time=0.027173875
EXTRACT: note_off channel=9 note=28 velocity=0 time=0.0135869375
EXTRACT: note_on channel=3 note=70 velocity=127 time=0.0135869375
EXTRACT: note_on channel=4 note=63 velocity=105 time=0
EXTRACT: note_on channel=4 note=58 velocity=105 time=0
EXTRACT: note_on channel=8 note=51 velocity=127 time=0
EXTRACT: note_on channel=9 note=36 velocity=127 time=0
EXTRACT: note_on channel=9 note=36 velocity=127 time=0
EXTRACT: note_on channel=9 note=36 velocity=127 time=0
EXTRACT: note_on channel=9 note=36 velocity=127 time=0
EXTRACT: note_on channel=9 note=42 velocity=127 time=0
EXTRACT: note_off channel=4 note=58 velocity=0 time=0.05434775
EXTRACT: note_off channel=4 note=63 velocity=0 time=0
EXTRACT: note_off channel=9 note=42 velocity=0 time=0
EXTRACT: note_off channel=9 note=36 velocity=64 time=0
EXTRACT: note_off channel=9 note=36 velocity=64 time=0
EXTRACT: note_off channel=9 note=36 velocity=64 time=0
EXTRACT: note_off channel=9 note=36 velocity=64 time=0
EXTRACT: note_off channel=8 note=51 velocity=0 time=0.05434775
EXTRACT: note_off channel=3 note=70 velocity=0 time=0.004528979166666667
EXTRACT: note_on channel=1 note=39 velocity=110 time=0.10416652083333333
EXTRACT: note_on channel=1 note=51 velocity=110 time=0
EXTRACT: note_on channel=3 note=70 velocity=127 time=0
EXTRACT: note_on channel=4 note=63 velocity=105 time=0
EXTRACT: note_on channel=4 note=58 velocity=105 time=0
EXTRACT: note_on channel=8 note=63 velocity=127 time=0
EXTRACT: note_on channel=9 note=46 velocity=127 time=0
EXTRACT: note_on channel=0 note=51 velocity=120 time=0
EXTRACT: note_off channel=4 note=58 velocity=0 time=0.05434775
EXTRACT: note_off channel=4 note=63 velocity=0 time=0
EXTRACT: note_off channel=9 note=46 velocity=0 time=0
EXTRACT: note_off channel=3 note=70 velocity=0 time=0.03170285416666667
EXTRACT: note_off channel=8 note=63 velocity=0 time=0.022644895833333335
EXTRACT: note_off channel=1 note=51 velocity=0 time=0.05434775
EXTRACT: note_off channel=1 note=39 velocity=0 time=0
EXTRACT: note_off channel=0 note=51 velocity=0 time=0
EXTRACT: note_on channel=3 note=70 velocity=127 time=0.05434775
EXTRACT: note_on channel=4 note=63 velocity=105 time=0
EXTRACT: note_on channel=4 note=58 velocity=105 time=0
EXTRACT: note_on channel=8 note=51 velocity=127 time=0
EXTRACT: note_on channel=9 note=36 velocity=127 time=0
EXTRACT: note_on channel=9 note=36 velocity=127 time=0
EXTRACT: note_on channel=9 note=36 velocity=127 time=0
EXTRACT: note_on channel=9 note=36 velocity=127 time=0
EXTRACT: note_on channel=9 note=28 velocity=127 time=0
EXTRACT: note_on channel=9 note=42 velocity=127 time=0
EXTRACT: note_on channel=9 note=76 velocity=80 time=0
EXTRACT: note_off channel=9 note=76 velocity=0 time=0.027173875
EXTRACT: note_off channel=4 note=58 velocity=0 time=0.027173875
EXTRACT: note_off channel=4 note=63 velocity=0 time=0
EXTRACT: note_off channel=9 note=42 velocity=0 time=0
EXTRACT: note_off channel=9 note=36 velocity=64 time=0
EXTRACT: note_off channel=9 note=36 velocity=64 time=0
EXTRACT: note_off channel=9 note=36 velocity=64 time=0
EXTRACT: note_off channel=9 note=36 velocity=64 time=0
EXTRACT: note_off channel=8 note=51 velocity=0 time=0.05434775
EXTRACT: note_off channel=3 note=70 velocity=0 time=0.04528979166666667
EXTRACT: note_on channel=1 note=39 velocity=110 time=0.06340570833333334
EXTRACT: note_on channel=1 note=51 velocity=110 time=0
EXTRACT: note_on channel=3 note=71 velocity=127 time=0
EXTRACT: note_on channel=8 note=63 velocity=127 time=0
EXTRACT: note_on channel=9 note=46 velocity=127 time=0
EXTRACT: note_on channel=9 note=76 velocity=80 time=0
EXTRACT: note_on channel=0 note=51 velocity=120 time=0
EXTRACT: note_off channel=9 note=76 velocity=0 time=0.027173875
EXTRACT: note_off channel=9 note=46 velocity=0 time=0.027173875
EXTRACT: note_off channel=8 note=63 velocity=0 time=0.03623183333333334
EXTRACT: note_on channel=4 note=63 velocity=105 time=0.01811591666666667
EXTRACT: note_on channel=4 note=58 velocity=105 time=0
EXTRACT: note_on channel=8 note=63 velocity=127 time=0
EXTRACT: note_off channel=1 note=51 velocity=0 time=0.05434775
EXTRACT: note_off channel=1 note=39 velocity=0 time=0
EXTRACT: note_off channel=4 note=58 velocity=0 time=0
EXTRACT: note_off channel=4 note=63 velocity=0 time=0
EXTRACT: note_off channel=0 note=51 velocity=0 time=0
EXTRACT: note_off channel=3 note=71 velocity=0 time=0.03623183333333334
EXTRACT: note_off channel=9 note=28 velocity=0 time=0.004528979166666667
EXTRACT: note_on channel=3 note=73 velocity=127 time=0.0135869375
EXTRACT: note_on channel=4 note=63 velocity=105 time=0
EXTRACT: note_on channel=4 note=58 velocity=105 time=0
EXTRACT: note_off channel=8 note=63 velocity=0 time=0
EXTRACT: note_on channel=8 note=51 velocity=127 time=0
EXTRACT: note_on channel=9 note=36 velocity=127 time=0
EXTRACT: note_on channel=9 note=36 velocity=127 time=0
EXTRACT: note_on channel=9 note=36 velocity=127 time=0
EXTRACT: note_on channel=9 note=36 velocity=127 time=0
EXTRACT: note_on channel=9 note=42 velocity=127 time=0
EXTRACT: note_off channel=4 note=58 velocity=0 time=0.05434775
EXTRACT: note_off channel=4 note=63 velocity=0 time=0
EXTRACT: note_off channel=9 note=42 velocity=0 time=0
EXTRACT: note_off channel=9 note=36 velocity=64 time=0
EXTRACT: note_off channel=9 note=36 velocity=64 time=0
EXTRACT: note_off channel=9 note=36 velocity=64 time=0
EXTRACT: note_off channel=9 note=36 velocity=64 time=0
EXTRACT: note_off channel=8 note=51 velocity=0 time=0.05434775
EXTRACT: note_on channel=1 note=39 velocity=110 time=0.1086955
EXTRACT: note_on channel=1 note=51 velocity=110 time=0
EXTRACT: note_on channel=3 note=70 velocity=127 time=0
EXTRACT: note_on channel=4 note=63 velocity=105 time=0
EXTRACT: note_on channel=4 note=58 velocity=105 time=0
EXTRACT: note_on channel=8 note=63 velocity=127 time=0
EXTRACT: note_on channel=9 note=46 velocity=127 time=0
EXTRACT: note_on channel=0 note=51 velocity=120 time=0
EXTRACT: note_off channel=3 note=73 velocity=0 time=0.004528979166666667
EXTRACT: note_off channel=4 note=58 velocity=0 time=0.04981877083333334
EXTRACT: note_off channel=4 note=63 velocity=0 time=0
EXTRACT: note_off channel=9 note=46 velocity=0 time=0
EXTRACT: note_off channel=8 note=63 velocity=0 time=0.05434775
EXTRACT: note_on channel=9 note=36 velocity=127 time=0
EXTRACT: note_on channel=9 note=36 velocity=127 time=0
EXTRACT: note_on channel=9 note=36 velocity=127 time=0
EXTRACT: note_on channel=9 note=36 velocity=127 time=0
EXTRACT: note_off channel=1 note=51 velocity=0 time=0.05434775
EXTRACT: note_off channel=1 note=39 velocity=0 time=0
EXTRACT: note_off channel=9 note=36 velocity=64 time=0
EXTRACT: note_off channel=9 note=36 velocity=64 time=0
EXTRACT: note_off channel=9 note=36 velocity=64 time=0
EXTRACT: note_off channel=9 note=36 velocity=64 time=0
EXTRACT: note_off channel=0 note=51 velocity=0 time=0
EXTRACT: note_off channel=3 note=70 velocity=0 time=0.03170285416666667
EXTRACT: note_on channel=3 note=66 velocity=127 time=0.022644895833333335
EXTRACT: note_on channel=4 note=63 velocity=105 time=0
EXTRACT: note_on channel=4 note=58 velocity=105 time=0
EXTRACT: note_on channel=8 note=51 velocity=127 time=0
EXTRACT: note_on channel=9 note=36 velocity=127 time=0
EXTRACT: note_on channel=9 note=36 velocity=127 time=0
EXTRACT: note_on channel=9 note=36 velocity=127 time=0
EXTRACT: note_on channel=9 note=36 velocity=127 time=0
EXTRACT: note_on channel=9 note=28 velocity=127 time=0
EXTRACT: note_on channel=9 note=42 velocity=127 time=0
EXTRACT: note_on channel=9 note=76 velocity=80 time=0
EXTRACT: note_off channel=9 note=76 velocity=0 time=0.027173875
EXTRACT: note_off channel=4 note=58 velocity=0 time=0.027173875
EXTRACT: note_off channel=4 note=63 velocity=0 time=0
EXTRACT: note_off channel=9 note=42 velocity=0 time=0
EXTRACT: note_off channel=9 note=36 velocity=64 time=0
EXTRACT: note_off channel=9 note=36 velocity=64 time=0
EXTRACT: note_off channel=9 note=36 velocity=64 time=0
EXTRACT: note_off channel=9 note=36 velocity=64 time=0
EXTRACT: note_off channel=8 note=51 velocity=0 time=0.05434775
EXTRACT: note_on channel=1 note=39 velocity=110 time=0.1086955
EXTRACT: note_on channel=1 note=51 velocity=110 time=0
EXTRACT: note_on channel=8 note=63 velocity=127 time=0
EXTRACT: note_on channel=9 note=36 velocity=127 time=0
EXTRACT: note_on channel=9 note=36 velocity=127 time=0
EXTRACT: note_on channel=9 note=36 velocity=127 time=0
EXTRACT: note_on channel=9 note=36 velocity=127 time=0
EXTRACT: note_on channel=9 note=46 velocity=127 time=0
EXTRACT: note_on channel=0 note=51 velocity=120 time=0
EXTRACT: note_off channel=9 note=46 velocity=0 time=0.05434775
EXTRACT: note_off channel=9 note=36 velocity=64 time=0
EXTRACT: note_off channel=9 note=36 velocity=64 time=0
EXTRACT: note_off channel=9 note=36 velocity=64 time=0
EXTRACT: note_off channel=9 note=36 velocity=64 time=0
EXTRACT: note_off channel=3 note=66 velocity=0 time=0.009057958333333335
EXTRACT: note_off channel=8 note=63 velocity=0 time=0.04528979166666667
EXTRACT: note_off channel=1 note=51 velocity=0 time=0.05434775
EXTRACT: note_off channel=1 note=39 velocity=0 time=0
EXTRACT: note_off channel=0 note=51 velocity=0 time=0
EXTRACT: note_off channel=9 note=28 velocity=0 time=0.0407608125
EXTRACT: note_on channel=3 note=66 velocity=127 time=0.0135869375
EXTRACT: note_on channel=4 note=59 velocity=105 time=0
EXTRACT: note_on channel=4 note=54 velocity=105 time=0
EXTRACT: note_on channel=8 note=47 velocity=127 time=0
EXTRACT: note_on channel=9 note=36 velocity=127 time=0
EXTRACT: note_on channel=9 note=36 velocity=127 time=0
EXTRACT: note_on channel=9 note=36 velocity=127 time=0
EXTRACT: note_on channel=9 note=36 velocity=127 time=0
EXTRACT: note_on channel=9 note=42 velocity=127 time=0
EXTRACT: note_off channel=4 note=54 velocity=0 time=0.05434775
EXTRACT: note_off channel=4 note=59 velocity=0 time=0
EXTRACT: note_off channel=9 note=42 velocity=0 time=0
EXTRACT: note_off channel=9 note=36 velocity=64 time=0
EXTRACT: note_off channel=9 note=36 velocity=64 time=0
EXTRACT: note_off channel=9 note=36 velocity=64 time=0
EXTRACT: note_off channel=9 note=36 velocity=64 time=0
EXTRACT: note_off channel=8 note=47 velocity=0 time=0.05434775
EXTRACT: note_on channel=1 note=35 velocity=110 time=0.1086955
EXTRACT: note_on channel=1 note=47 velocity=110 time=0
EXTRACT: note_on channel=4 note=59 velocity=105 time=0
EXTRACT: note_on channel=4 note=54 velocity=105 time=0
EXTRACT: note_on channel=8 note=59 velocity=127 time=0
EXTRACT: note_on channel=9 note=46 velocity=127 time=0
EXTRACT: note_on channel=0 note=47 velocity=120 time=0
EXTRACT: note_off channel=4 note=54 velocity=0 time=0.05434775
EXTRACT: note_off channel=4 note=59 velocity=0 time=0
EXTRACT: note_off channel=9 note=46 velocity=0 time=0
EXTRACT: note_off channel=8 note=59 velocity=0 time=0.05434775
EXTRACT: note_off channel=1 note=47 velocity=0 time=0.05434775
EXTRACT: note_off channel=1 note=35 velocity=0 time=0
EXTRACT: note_off channel=0 note=47 velocity=0 time=0
EXTRACT: note_off channel=3 note=66 velocity=0 time=0.009057958333333335
EXTRACT: note_on channel=3 note=63 velocity=127 time=0.04528979166666667
EXTRACT: note_on channel=4 note=59 velocity=105 time=0
EXTRACT: note_on channel=4 note=54 velocity=105 time=0
EXTRACT: note_on channel=8 note=47 velocity=127 time=0
EXTRACT: note_on channel=9 note=36 velocity=127 time=0
EXTRACT: note_on channel=9 note=36 velocity=127 time=0
EXTRACT: note_on channel=9 note=36 velocity=127 time=0
EXTRACT: note_on channel=9 note=36 velocity=127 time=0
EXTRACT: note_on channel=9 note=28 velocity=127 time=0
EXTRACT: note_on channel=9 note=42 velocity=127 time=0
EXTRACT: note_on channel=9 note=76 velocity=80 time=0
EXTRACT: note_off channel=9 note=76 velocity=0 time=0.027173875
EXTRACT: note_off channel=4 note=54 velocity=0 time=0.027173875
EXTRACT: note_off channel=4 note=59 velocity=0 time=0
EXTRACT: note_off channel=9 note=42 velocity=0 time=0
EXTRACT: note_off channel=9 note=36 velocity=64 time=0
EXTRACT: note_off channel=9 note=36 velocity=64 time=0
EXTRACT: note_off channel=9 note=36 velocity=64 time=0
EXTRACT: note_off channel=9 note=36 velocity=64 time=0
EXTRACT: note_off channel=8 note=47 velocity=0 time=0.05434775
EXTRACT: note_off channel=3 note=63 velocity=0 time=0.081521625
EXTRACT: note_on channel=1 note=35 velocity=110 time=0.027173875
EXTRACT: note_on channel=1 note=47 velocity=110 time=0
EXTRACT: note_on channel=3 note=61 velocity=127 time=0
EXTRACT: note_on channel=8 note=59 velocity=127 time=0
EXTRACT: note_on channel=9 note=46 velocity=127 time=0
EXTRACT: note_on channel=9 note=76 velocity=80 time=0
EXTRACT: note_on channel=0 note=47 velocity=120 time=0
EXTRACT: note_off channel=9 note=76 velocity=0 time=0.027173875
EXTRACT: note_off channel=9 note=46 velocity=0 time=0.027173875
EXTRACT: note_off channel=8 note=59 velocity=0 time=0.03623183333333334
EXTRACT: note_on channel=4 note=59 velocity=105 time=0.01811591666666667
EXTRACT: note_on channel=4 note=54 velocity=105 time=0
EXTRACT: note_on channel=8 note=59 velocity=127 time=0
EXTRACT: note_off channel=1 note=47 velocity=0 time=0.05434775
EXTRACT: note_off channel=1 note=35 velocity=0 time=0
EXTRACT: note_off channel=4 note=54 velocity=0 time=0
EXTRACT: note_off channel=4 note=59 velocity=0 time=0
EXTRACT: note_off channel=0 note=47 velocity=0 time=0
EXTRACT: note_off channel=3 note=61 velocity=0 time=0.0135869375
EXTRACT: note_off channel=9 note=28 velocity=0 time=0.027173875
EXTRACT: note_on channel=3 note=66 velocity=127 time=0.0135869375
EXTRACT: note_on channel=4 note=61 velocity=105 time=0
EXTRACT: note_on channel=4 note=56 velocity=105 time=0
EXTRACT: note_off channel=8 note=59 velocity=0 time=0
EXTRACT: note_on channel=8 note=49 velocity=127 time=0
EXTRACT: note_on channel=9 note=36 velocity=127 time=0
EXTRACT: note_on channel=9 note=36 velocity=127 time=0
EXTRACT: note_on channel=9 note=36 velocity=127 time=0
EXTRACT: note_on channel=9 note=36 velocity=127 time=0
EXTRACT: note_on channel=9 note=42 velocity=127 time=0
EXTRACT: note_off channel=4 note=56 velocity=0 time=0.05434775
EXTRACT: note_off channel=4 note=61 velocity=0 time=0
EXTRACT: note_off channel=9 note=42 velocity=0 time=0
EXTRACT: note_off channel=9 note=36 velocity=64 time=0
EXTRACT: note_off channel=9 note=36 velocity=64 time=0
EXTRACT: note_off channel=9 note=36 velocity=64 time=0
EXTRACT: note_off channel=9 note=36 velocity=64 time=0
EXTRACT: note_off channel=8 note=49 velocity=0 time=0.05434775
EXTRACT: note_on channel=1 note=37 velocity=110 time=0.1086955
EXTRACT: note_on channel=1 note=49 velocity=110 time=0
EXTRACT: note_on channel=4 note=61 velocity=105 time=0
EXTRACT: note_on channel=4 note=56 velocity=105 time=0
EXTRACT: note_on channel=8 note=61 velocity=127 time=0
EXTRACT: note_on channel=9 note=46 velocity=127 time=0
EXTRACT: note_on channel=0 note=49 velocity=120 time=0
EXTRACT: note_off channel=4 note=56 velocity=0 time=0.05434775
EXTRACT: note_off channel=4 note=61 velocity=0 time=0
EXTRACT: note_off channel=9 note=46 velocity=0 time=0
EXTRACT: note_off channel=8 note=61 velocity=0 time=0.05434775
EXTRACT: note_on channel=9 note=36 velocity=127 time=0
EXTRACT: note_on channel=9 note=36 velocity=127 time=0
EXTRACT: note_on channel=9 note=36 velocity=127 time=0
EXTRACT: note_on channel=9 note=36 velocity=127 time=0
EXTRACT: note_off channel=1 note=49 velocity=0 time=0.05434775
EXTRACT: note_off channel=1 note=37 velocity=0 time=0
EXTRACT: note_off channel=9 note=36 velocity=64 time=0
EXTRACT: note_off channel=9 note=36 velocity=64 time=0
EXTRACT: note_off channel=9 note=36 velocity=64 time=0
EXTRACT: note_off channel=9 note=36 velocity=64 time=0
EXTRACT: note_off channel=0 note=49 velocity=0 time=0
EXTRACT: note_off channel=3 note=66 velocity=0 time=0.04981877083333334
EXTRACT: note_on channel=3 note=63 velocity=127 time=0.004528979166666667
EXTRACT: note_on channel=4 note=61 velocity=105 time=0
EXTRACT: note_on channel=4 note=56 velocity=105 time=0
EXTRACT: note_on channel=8 note=49 velocity=127 time=0
EXTRACT: note_on channel=9 note=36 velocity=127 time=0
EXTRACT: note_on channel=9 note=36 velocity=127 time=0
EXTRACT: note_on channel=9 note=36 velocity=127 time=0
EXTRACT: note_on channel=9 note=36 velocity=127 time=0
EXTRACT: note_on channel=9 note=28 velocity=127 time=0
EXTRACT: note_on channel=9 note=42 velocity=127 time=0
EXTRACT: note_on channel=9 note=76 velocity=80 time=0
EXTRACT: note_off channel=9 note=76 velocity=0 time=0.027173875
EXTRACT: note_off channel=4 note=56 velocity=0 time=0.027173875
EXTRACT: note_off channel=4 note=61 velocity=0 time=0
EXTRACT: note_off channel=9 note=42 velocity=0 time=0
EXTRACT: note_off channel=9 note=36 velocity=64 time=0
EXTRACT: note_off channel=9 note=36 velocity=64 time=0
EXTRACT: note_off channel=9 note=36 velocity=64 time=0
EXTRACT: note_off channel=9 note=36 velocity=64 time=0
EXTRACT: note_off channel=8 note=49 velocity=0 time=0.05434775
EXTRACT: note_off channel=3 note=63 velocity=0 time=0.09963754166666668
EXTRACT: note_on channel=1 note=37 velocity=110 time=0.009057958333333335
EXTRACT: note_on channel=1 note=49 velocity=110 time=0
EXTRACT: note_on channel=3 note=61 velocity=127 time=0
EXTRACT: note_on channel=8 note=61 velocity=127 time=0
EXTRACT: note_on channel=9 note=36 velocity=127 time=0
EXTRACT: note_on channel=9 note=36 velocity=127 time=0
EXTRACT: note_on channel=9 note=36 velocity=127 time=0
EXTRACT: note_on channel=9 note=36 velocity=127 time=0
EXTRACT: note_on channel=9 note=46 velocity=127 time=0
EXTRACT: note_on channel=0 note=49 velocity=120 time=0
EXTRACT: note_off channel=9 note=46 velocity=0 time=0.05434775
EXTRACT: note_off channel=9 note=36 velocity=64 time=0
EXTRACT: note_off channel=9 note=36 velocity=64 time=0
EXTRACT: note_off channel=9 note=36 velocity=64 time=0
EXTRACT: note_off channel=9 note=36 velocity=64 time=0
EXTRACT: note_off channel=8 note=61 velocity=0 time=0.05434775
EXTRACT: note_off channel=3 note=61 velocity=0 time=0.0135869375
EXTRACT: note_off channel=1 note=49 velocity=0 time=0.0407608125
EXTRACT: note_off channel=1 note=37 velocity=0 time=0
EXTRACT: note_off channel=0 note=49 velocity=0 time=0
EXTRACT: note_off channel=9 note=28 velocity=0 time=0.0407608125
EXTRACT: note_on channel=4 note=66 velocity=105 time=0.0135869375
EXTRACT: note_on channel=4 note=61 velocity=105 time=0
EXTRACT: note_on channel=8 note=54 velocity=127 time=0
EXTRACT: note_on channel=9 note=36 velocity=127 time=0
EXTRACT: note_on channel=9 note=36 velocity=127 time=0
EXTRACT: note_on channel=9 note=36 velocity=127 time=0
EXTRACT: note_on channel=9 note=36 velocity=127 time=0
EXTRACT: note_on channel=9 note=42 velocity=127 time=0
EXTRACT: note_off channel=4 note=61 velocity=0 time=0.05434775
EXTRACT: note_off channel=4 note=66 velocity=0 time=0
EXTRACT: note_off channel=9 note=42 velocity=0 time=0
EXTRACT: note_off channel=9 note=36 velocity=64 time=0
EXTRACT: note_off channel=9 note=36 velocity=64 time=0
EXTRACT: note_off channel=9 note=36 velocity=64 time=0
EXTRACT: note_off channel=9 note=36 velocity=64 time=0
EXTRACT: note_off channel=8 note=54 velocity=0 time=0.05434775
EXTRACT: note_on channel=1 note=42 velocity=110 time=0.1086955
EXTRACT: note_on channel=1 note=54 velocity=110 time=0
EXTRACT: note_on channel=3 note=54 velocity=127 time=0
EXTRACT: note_on channel=4 note=66 velocity=105 time=0
EXTRACT: note_on channel=4 note=61 velocity=105 time=0
EXTRACT: note_on channel=8 note=66 velocity=127 time=0
EXTRACT: note_on channel=9 note=46 velocity=127 time=0
EXTRACT: note_on channel=0 note=54 velocity=120 time=0
EXTRACT: note_off channel=4 note=61 velocity=0 time=0.05434775
EXTRACT: note_off channel=4 note=66 velocity=0 time=0
EXTRACT: note_off channel=9 note=46 velocity=0 time=0
EXTRACT: note_off channel=3 note=54 velocity=0 time=0.04981877083333334
EXTRACT: note_off channel=8 note=66 velocity=0 time=0.004528979166666667
EXTRACT: note_off channel=1 note=54 velocity=0 time=0.05434775
EXTRACT: note_off channel=1 note=42 velocity=0 time=0
EXTRACT: note_off channel=0 note=54 velocity=0 time=0
EXTRACT: note_on channel=3 note=54 velocity=127 time=0.05434775
EXTRACT: note_on channel=4 note=66 velocity=105 time=0
EXTRACT: note_on channel=4 note=61 velocity=105 time=0
EXTRACT: note_on channel=8 note=54 velocity=127 time=0
EXTRACT: note_on channel=9 note=36 velocity=127 time=0
EXTRACT: note_on channel=9 note=36 velocity=127 time=0
EXTRACT: note_on channel=9 note=36 velocity=127 time=0
EXTRACT: note_on channel=9 note=36 velocity=127 time=0
EXTRACT: note_on channel=9 note=28 velocity=127 time=0
EXTRACT: note_on channel=9 note=42 velocity=127 time=0
EXTRACT: note_on channel=9 note=76 velocity=80 time=0
EXTRACT: note_off channel=9 note=76 velocity=0 time=0.027173875
EXTRACT: note_off channel=4 note=61 velocity=0 time=0.027173875
EXTRACT: note_off channel=4 note=66 velocity=0 time=0
EXTRACT: note_off channel=9 note=42 velocity=0 time=0
EXTRACT: note_off channel=9 note=36 velocity=64 time=0
EXTRACT: note_off channel=9 note=36 velocity=64 time=0
EXTRACT: note_off channel=9 note=36 velocity=64 time=0
EXTRACT: note_off channel=9 note=36 velocity=64 time=0
EXTRACT: note_off channel=8 note=54 velocity=0 time=0.05434775
EXTRACT: note_off channel=3 note=54 velocity=0 time=0.04528979166666667
EXTRACT: note_on channel=1 note=42 velocity=110 time=0.06340570833333334
EXTRACT: note_on channel=1 note=54 velocity=110 time=0
EXTRACT: note_on channel=3 note=49 velocity=127 time=0
EXTRACT: note_on channel=8 note=66 velocity=127 time=0
EXTRACT: note_on channel=9 note=46 velocity=127 time=0
EXTRACT: note_on channel=9 note=76 velocity=80 time=0
EXTRACT: note_on channel=0 note=54 velocity=120 time=0
EXTRACT: note_off channel=9 note=76 velocity=0 time=0.027173875
EXTRACT: note_off channel=9 note=46 velocity=0 time=0.027173875
EXTRACT: note_off channel=8 note=66 velocity=0 time=0.03623183333333334
EXTRACT: note_on channel=4 note=66 velocity=105 time=0.01811591666666667
EXTRACT: note_on channel=4 note=61 velocity=105 time=0
EXTRACT: note_on channel=8 note=66 velocity=127 time=0
EXTRACT: note_off channel=1 note=54 velocity=0 time=0.05434775
EXTRACT: note_off channel=1 note=42 velocity=0 time=0
EXTRACT: note_off channel=4 note=61 velocity=0 time=0
EXTRACT: note_off channel=4 note=66 velocity=0 time=0
EXTRACT: note_off channel=0 note=54 velocity=0 time=0
EXTRACT: note_off channel=3 note=49 velocity=0 time=0.004528979166666667
EXTRACT: note_off channel=9 note=28 velocity=0 time=0.03623183333333334
EXTRACT: note_on channel=3 note=42 velocity=127 time=0.0135869375
EXTRACT: note_on channel=4 note=66 velocity=105 time=0
EXTRACT: note_on channel=4 note=61 velocity=105 time=0
EXTRACT: note_off channel=8 note=66 velocity=0 time=0
EXTRACT: note_on channel=8 note=54 velocity=127 time=0
EXTRACT: note_on channel=9 note=36 velocity=127 time=0
EXTRACT: note_on channel=9 note=36 velocity=127 time=0
EXTRACT: note_on channel=9 note=36 velocity=127 time=0
EXTRACT: note_on channel=9 note=36 velocity=127 time=0
EXTRACT: note_on channel=9 note=42 velocity=127 time=0
EXTRACT: note_off channel=4 note=61 velocity=0 time=0.05434775
EXTRACT: note_off channel=4 note=66 velocity=0 time=0
EXTRACT: note_off channel=9 note=42 velocity=0 time=0
EXTRACT: note_off channel=9 note=36 velocity=64 time=0
EXTRACT: note_off channel=9 note=36 velocity=64 time=0
EXTRACT: note_off channel=9 note=36 velocity=64 time=0
EXTRACT: note_off channel=9 note=36 velocity=64 time=0
EXTRACT: note_off channel=8 note=54 velocity=0 time=0.05434775
EXTRACT: note_on channel=1 note=42 velocity=110 time=0.1086955
EXTRACT: note_on channel=1 note=54 velocity=110 time=0
EXTRACT: note_on channel=4 note=66 velocity=105 time=0
EXTRACT: note_on channel=4 note=61 velocity=105 time=0
EXTRACT: note_on channel=8 note=66 velocity=127 time=0
EXTRACT: note_on channel=9 note=46 velocity=127 time=0
EXTRACT: note_on channel=0 note=54 velocity=120 time=0
EXTRACT: note_off channel=4 note=61 velocity=0 time=0.05434775
EXTRACT: note_off channel=4 note=66 velocity=0 time=0
EXTRACT: note_off channel=9 note=46 velocity=0 time=0
EXTRACT: note_off channel=8 note=66 velocity=0 time=0.05434775
EXTRACT: note_on channel=9 note=36 velocity=127 time=0
EXTRACT: note_on channel=9 note=36 velocity=127 time=0
EXTRACT: note_on channel=9 note=36 velocity=127 time=0
EXTRACT: note_on channel=9 note=36 velocity=127 time=0
EXTRACT: note_off channel=1 note=54 velocity=0 time=0.05434775
EXTRACT: note_off channel=1 note=42 velocity=0 time=0
EXTRACT: note_off channel=9 note=36 velocity=64 time=0
EXTRACT: note_off channel=9 note=36 velocity=64 time=0
EXTRACT: note_off channel=9 note=36 velocity=64 time=0
EXTRACT: note_off channel=9 note=36 velocity=64 time=0
EXTRACT: note_off channel=0 note=54 velocity=0 time=0
EXTRACT: note_off channel=3 note=42 velocity=0 time=0.03623183333333334
EXTRACT: note_on channel=4 note=66 velocity=105 time=0.01811591666666667
EXTRACT: note_on channel=4 note=61 velocity=105 time=0
EXTRACT: note_on channel=8 note=54 velocity=127 time=0
EXTRACT: note_on channel=9 note=36 velocity=127 time=0
EXTRACT: note_on channel=9 note=36 velocity=127 time=0
EXTRACT: note_on channel=9 note=36 velocity=127 time=0
EXTRACT: note_on channel=9 note=36 velocity=127 time=0
EXTRACT: note_on channel=9 note=28 velocity=127 time=0
EXTRACT: note_on channel=9 note=42 velocity=127 time=0
EXTRACT: note_on channel=9 note=76 velocity=80 time=0
EXTRACT: note_off channel=9 note=76 velocity=0 time=0.027173875
EXTRACT: note_off channel=4 note=61 velocity=0 time=0.027173875
EXTRACT: note_off channel=4 note=66 velocity=0 time=0
EXTRACT: note_off channel=9 note=42 velocity=0 time=0
EXTRACT: note_off channel=9 note=36 velocity=64 time=0
EXTRACT: note_off channel=9 note=36 velocity=64 time=0
EXTRACT: note_off channel=9 note=36 velocity=64 time=0
EXTRACT: note_off channel=9 note=36 velocity=64 time=0
EXTRACT: note_off channel=8 note=54 velocity=0 time=0.05434775
EXTRACT: note_on channel=1 note=42 velocity=110 time=0.1086955
EXTRACT: note_on channel=1 note=54 velocity=110 time=0
EXTRACT: note_on channel=8 note=66 velocity=127 time=0
EXTRACT: note_on channel=9 note=36 velocity=127 time=0
EXTRACT: note_on channel=9 note=36 velocity=127 time=0
EXTRACT: note_on channel=9 note=36 velocity=127 time=0
EXTRACT: note_on channel=9 note=36 velocity=127 time=0
EXTRACT: note_on channel=9 note=46 velocity=127 time=0
EXTRACT: note_on channel=0 note=54 velocity=120 time=0
EXTRACT: note_off channel=9 note=46 velocity=0 time=0.05434775
EXTRACT: note_off channel=9 note=36 velocity=64 time=0
EXTRACT: note_off channel=9 note=36 velocity=64 time=0
EXTRACT: note_off channel=9 note=36 velocity=64 time=0
EXTRACT: note_off channel=9 note=36 velocity=64 time=0
EXTRACT: note_off channel=8 note=66 velocity=0 time=0.05434775
EXTRACT: note_off channel=1 note=54 velocity=0 time=0.05434775
EXTRACT: note_off channel=1 note=42 velocity=0 time=0
EXTRACT: note_off channel=0 note=54 velocity=0 time=0
EXTRACT: note_off channel=9 note=28 velocity=0 time=0.0407608125
EXTRACT: note_on channel=3 note=66 velocity=127 time=0.0135869375
EXTRACT: note_on channel=4 note=66 velocity=105 time=0
EXTRACT: note_on channel=4 note=61 velocity=105 time=0
EXTRACT: note_on channel=8 note=54 velocity=127 time=0
EXTRACT: note_on channel=9 note=36 velocity=127 time=0
EXTRACT: note_on channel=9 note=36 velocity=127 time=0
EXTRACT: note_on channel=9 note=36 velocity=127 time=0
EXTRACT: note_on channel=9 note=36 velocity=127 time=0
EXTRACT: note_on channel=9 note=42 velocity=127 time=0
EXTRACT: note_off channel=4 note=61 velocity=0 time=0.05434775
EXTRACT: note_off channel=4 note=66 velocity=0 time=0
EXTRACT: note_off channel=9 note=42 velocity=0 time=0
EXTRACT: note_off channel=9 note=36 velocity=64 time=0
EXTRACT: note_off channel=9 note=36 velocity=64 time=0
EXTRACT: note_off channel=9 note=36 velocity=64 time=0
EXTRACT: note_off channel=9 note=36 velocity=64 time=0
EXTRACT: note_off channel=8 note=54 velocity=0 time=0.05434775
EXTRACT: note_on channel=1 note=42 velocity=110 time=0.1086955
EXTRACT: note_on channel=1 note=54 velocity=110 time=0
EXTRACT: note_on channel=4 note=66 velocity=105 time=0
EXTRACT: note_on channel=4 note=61 velocity=105 time=0
EXTRACT: note_on channel=8 note=66 velocity=127 time=0
EXTRACT: note_on channel=9 note=46 velocity=127 time=0
EXTRACT: note_on channel=0 note=54 velocity=120 time=0
EXTRACT: note_off channel=4 note=61 velocity=0 time=0.05434775
EXTRACT: note_off channel=4 note=66 velocity=0 time=0
EXTRACT: note_off channel=9 note=46 velocity=0 time=0
EXTRACT: note_off channel=8 note=66 velocity=0 time=0.05434775
EXTRACT: note_off channel=1 note=54 velocity=0 time=0.05434775
EXTRACT: note_off channel=1 note=42 velocity=0 time=0
EXTRACT: note_off channel=0 note=54 velocity=0 time=0
EXTRACT: note_off channel=3 note=66 velocity=0 time=0.04528979166666667
EXTRACT: note_on channel=3 note=63 velocity=127 time=0.009057958333333335
EXTRACT: note_on channel=4 note=66 velocity=105 time=0
EXTRACT: note_on channel=4 note=61 velocity=105 time=0
EXTRACT: note_on channel=8 note=54 velocity=127 time=0
EXTRACT: note_on channel=9 note=36 velocity=127 time=0
EXTRACT: note_on channel=9 note=36 velocity=127 time=0
EXTRACT: note_on channel=9 note=36 velocity=127 time=0
EXTRACT: note_on channel=9 note=36 velocity=127 time=0
EXTRACT: note_on channel=9 note=28 velocity=127 time=0
EXTRACT: note_on channel=9 note=42 velocity=127 time=0
EXTRACT: note_on channel=9 note=76 velocity=80 time=0
EXTRACT: note_off channel=9 note=76 velocity=0 time=0.027173875
EXTRACT: note_off channel=4 note=61 velocity=0 time=0.027173875
EXTRACT: note_off channel=4 note=66 velocity=0 time=0
EXTRACT: note_off channel=9 note=42 velocity=0 time=0
EXTRACT: note_off channel=9 note=36 velocity=64 time=0
EXTRACT: note_off channel=9 note=36 velocity=64 time=0
EXTRACT: note_off channel=9 note=36 velocity=64 time=0
EXTRACT: note_off channel=9 note=36 velocity=64 time=0
EXTRACT: note_off channel=8 note=54 velocity=0 time=0.05434775
EXTRACT: note_off channel=3 note=63 velocity=0 time=0.081521625
EXTRACT: note_on channel=1 note=42 velocity=110 time=0.027173875
EXTRACT: note_on channel=1 note=54 velocity=110 time=0
EXTRACT: note_on channel=3 note=61 velocity=127 time=0
EXTRACT: note_on channel=8 note=66 velocity=127 time=0
EXTRACT: note_on channel=9 note=46 velocity=127 time=0
EXTRACT: note_on channel=9 note=76 velocity=80 time=0
EXTRACT: note_on channel=0 note=54 velocity=120 time=0
EXTRACT: note_off channel=9 note=76 velocity=0 time=0.027173875
EXTRACT: note_off channel=9 note=46 velocity=0 time=0.027173875
EXTRACT: note_off channel=8 note=66 velocity=0 time=0.03623183333333334
EXTRACT: note_on channel=4 note=66 velocity=105 time=0.01811591666666667
EXTRACT: note_on channel=4 note=61 velocity=105 time=0
EXTRACT: note_on channel=8 note=66 velocity=127 time=0
EXTRACT: note_off channel=1 note=54 velocity=0 time=0.05434775
EXTRACT: note_off channel=1 note=42 velocity=0 time=0
EXTRACT: note_off channel=4 note=61 velocity=0 time=0
EXTRACT: note_off channel=4 note=66 velocity=0 time=0
EXTRACT: note_off channel=0 note=54 velocity=0 time=0
EXTRACT: note_off channel=3 note=61 velocity=0 time=0.0407608125
EXTRACT: note_off channel=9 note=28 velocity=0 time=0
EXTRACT: note_on channel=3 note=66 velocity=127 time=0.0135869375
EXTRACT: note_on channel=4 note=61 velocity=105 time=0
EXTRACT: note_on channel=4 note=56 velocity=105 time=0
EXTRACT: note_off channel=8 note=66 velocity=0 time=0
EXTRACT: note_on channel=8 note=49 velocity=127 time=0
EXTRACT: note_on channel=9 note=36 velocity=127 time=0
EXTRACT: note_on channel=9 note=36 velocity=127 time=0
EXTRACT: note_on channel=9 note=36 velocity=127 time=0
EXTRACT: note_on channel=9 note=36 velocity=127 time=0
EXTRACT: note_on channel=9 note=42 velocity=127 time=0
EXTRACT: note_off channel=4 note=56 velocity=0 time=0.05434775
EXTRACT: note_off channel=4 note=61 velocity=0 time=0
EXTRACT: note_off channel=9 note=42 velocity=0 time=0
EXTRACT: note_off channel=9 note=36 velocity=64 time=0
EXTRACT: note_off channel=9 note=36 velocity=64 time=0
EXTRACT: note_off channel=9 note=36 velocity=64 time=0
EXTRACT: note_off channel=9 note=36 velocity=64 time=0
EXTRACT: note_off channel=8 note=49 velocity=0 time=0.05434775
EXTRACT: note_on channel=1 note=37 velocity=110 time=0.1086955
EXTRACT: note_on channel=1 note=49 velocity=110 time=0
EXTRACT: note_on channel=4 note=61 velocity=105 time=0
EXTRACT: note_on channel=4 note=56 velocity=105 time=0
EXTRACT: note_on channel=8 note=61 velocity=127 time=0
EXTRACT: note_on channel=9 note=46 velocity=127 time=0
EXTRACT: note_on channel=0 note=49 velocity=120 time=0
EXTRACT: note_off channel=4 note=56 velocity=0 time=0.05434775
EXTRACT: note_off channel=4 note=61 velocity=0 time=0
EXTRACT: note_off channel=9 note=46 velocity=0 time=0
EXTRACT: note_off channel=8 note=61 velocity=0 time=0.05434775
EXTRACT: note_on channel=9 note=36 velocity=127 time=0
EXTRACT: note_on channel=9 note=36 velocity=127 time=0
EXTRACT: note_on channel=9 note=36 velocity=127 time=0
EXTRACT: note_on channel=9 note=36 velocity=127 time=0
EXTRACT: note_off channel=1 note=49 velocity=0 time=0.05434775
EXTRACT: note_off channel=1 note=37 velocity=0 time=0
EXTRACT: note_off channel=9 note=36 velocity=64 time=0
EXTRACT: note_off channel=9 note=36 velocity=64 time=0
EXTRACT: note_off channel=9 note=36 velocity=64 time=0
EXTRACT: note_off channel=9 note=36 velocity=64 time=0
EXTRACT: note_off channel=0 note=49 velocity=0 time=0
EXTRACT: note_off channel=3 note=66 velocity=0 time=0.03170285416666667
EXTRACT: note_on channel=3 note=63 velocity=127 time=0.022644895833333335
EXTRACT: note_on channel=4 note=61 velocity=105 time=0
EXTRACT: note_on channel=4 note=56 velocity=105 time=0
EXTRACT: note_on channel=8 note=49 velocity=127 time=0
EXTRACT: note_on channel=9 note=36 velocity=127 time=0
EXTRACT: note_on channel=9 note=36 velocity=127 time=0
EXTRACT: note_on channel=9 note=36 velocity=127 time=0
EXTRACT: note_on channel=9 note=36 velocity=127 time=0
EXTRACT: note_on channel=9 note=28 velocity=127 time=0
EXTRACT: note_on channel=9 note=42 velocity=127 time=0
EXTRACT: note_on channel=9 note=76 velocity=80 time=0
EXTRACT: note_off channel=9 note=76 velocity=0 time=0.027173875
EXTRACT: note_off channel=4 note=56 velocity=0 time=0.027173875
EXTRACT: note_off channel=4 note=61 velocity=0 time=0
EXTRACT: note_off channel=9 note=42 velocity=0 time=0
EXTRACT: note_off channel=9 note=36 velocity=64 time=0
EXTRACT: note_off channel=9 note=36 velocity=64 time=0
EXTRACT: note_off channel=9 note=36 velocity=64 time=0
EXTRACT: note_off channel=9 note=36 velocity=64 time=0
EXTRACT: note_off channel=8 note=49 velocity=0 time=0.05434775
EXTRACT: note_off channel=3 note=63 velocity=0 time=0.09510856250000001
EXTRACT: note_on channel=1 note=37 velocity=110 time=0.0135869375
EXTRACT: note_on channel=1 note=49 velocity=110 time=0
EXTRACT: note_on channel=3 note=61 velocity=127 time=0
EXTRACT: note_on channel=8 note=61 velocity=127 time=0
EXTRACT: note_on channel=9 note=36 velocity=127 time=0
EXTRACT: note_on channel=9 note=36 velocity=127 time=0
EXTRACT: note_on channel=9 note=36 velocity=127 time=0
EXTRACT: note_on channel=9 note=36 velocity=127 time=0
EXTRACT: note_on channel=9 note=46 velocity=127 time=0
EXTRACT: note_on channel=0 note=49 velocity=120 time=0
EXTRACT: note_off channel=9 note=46 velocity=0 time=0.05434775
EXTRACT: note_off channel=9 note=36 velocity=64 time=0
EXTRACT: note_off channel=9 note=36 velocity=64 time=0
EXTRACT: note_off channel=9 note=36 velocity=64 time=0
EXTRACT: note_off channel=9 note=36 velocity=64 time=0
EXTRACT: note_off channel=8 note=61 velocity=0 time=0.05434775
EXTRACT: note_off channel=1 note=49 velocity=0 time=0.05434775
EXTRACT: note_off channel=1 note=37 velocity=0 time=0
EXTRACT: note_off channel=0 note=49 velocity=0 time=0
EXTRACT: note_off channel=9 note=28 velocity=0 time=0.0407608125
EXTRACT: note_off channel=3 note=61 velocity=64 time=0.0135869375
EXTRACT: note_on channel=3 note=70 velocity=127 time=0
EXTRACT: note_on channel=4 note=63 velocity=105 time=0
EXTRACT: note_on channel=4 note=58 velocity=105 time=0
EXTRACT: note_on channel=8 note=51 velocity=127 time=0
EXTRACT: note_on channel=9 note=36 velocity=127 time=0
EXTRACT: note_on channel=9 note=36 velocity=127 time=0
EXTRACT: note_on channel=9 note=36 velocity=127 time=0
EXTRACT: note_on channel=9 note=36 velocity=127 time=0
EXTRACT: note_on channel=9 note=42 velocity=127 time=0
EXTRACT: note_off channel=4 note=58 velocity=0 time=0.05434775
EXTRACT: note_off channel=4 note=63 velocity=0 time=0
EXTRACT: note_off channel=9 note=42 velocity=0 time=0
EXTRACT: note_off channel=9 note=36 velocity=64 time=0
EXTRACT: note_off channel=9 note=36 velocity=64 time=0
EXTRACT: note_off channel=9 note=36 velocity=64 time=0
EXTRACT: note_off channel=9 note=36 velocity=64 time=0
EXTRACT: note_off channel=8 note=51 velocity=0 time=0.05434775
EXTRACT: note_off channel=3 note=70 velocity=0 time=0.07246366666666668
EXTRACT: note_on channel=1 note=39 velocity=110 time=0.03623183333333334
EXTRACT: note_on channel=1 note=51 velocity=110 time=0
EXTRACT: note_on channel=3 note=71 velocity=127 time=0
EXTRACT: note_on channel=4 note=63 velocity=105 time=0
EXTRACT: note_on channel=4 note=58 velocity=105 time=0
EXTRACT: note_on channel=8 note=63 velocity=127 time=0
EXTRACT: note_on channel=9 note=46 velocity=127 time=0
EXTRACT: note_on channel=0 note=51 velocity=120 time=0
EXTRACT: note_off channel=4 note=58 velocity=0 time=0.05434775
EXTRACT: note_off channel=4 note=63 velocity=0 time=0
EXTRACT: note_off channel=9 note=46 velocity=0 time=0
EXTRACT: note_off channel=8 note=63 velocity=0 time=0.05434775
EXTRACT: note_off channel=1 note=51 velocity=0 time=0.05434775
EXTRACT: note_off channel=1 note=39 velocity=0 time=0
EXTRACT: note_off channel=0 note=51 velocity=0 time=0
EXTRACT: note_off channel=3 note=71 velocity=0 time=0.05434775
EXTRACT: note_on channel=3 note=70 velocity=127 time=0
EXTRACT: note_on channel=4 note=63 velocity=105 time=0
EXTRACT: note_on channel=4 note=58 velocity=105 time=0
EXTRACT: note_on channel=8 note=51 velocity=127 time=0
EXTRACT: note_on channel=9 note=36 velocity=127 time=0
EXTRACT: note_on channel=9 note=36 velocity=127 time=0
EXTRACT: note_on channel=9 note=36 velocity=127 time=0
EXTRACT: note_on channel=9 note=36 velocity=127 time=0
EXTRACT: note_on channel=9 note=28 velocity=127 time=0
EXTRACT: note_on channel=9 note=42 velocity=127 time=0
EXTRACT: note_on channel=9 note=76 velocity=80 time=0
EXTRACT: note_off channel=9 note=76 velocity=0 time=0.027173875
EXTRACT: note_off channel=4 note=58 velocity=0 time=0.027173875
EXTRACT: note_off channel=4 note=63 velocity=0 time=0
EXTRACT: note_off channel=9 note=42 velocity=0 time=0
EXTRACT: note_off channel=9 note=36 velocity=64 time=0
EXTRACT: note_off channel=9 note=36 velocity=64 time=0
EXTRACT: note_off channel=9 note=36 velocity=64 time=0
EXTRACT: note_off channel=9 note=36 velocity=64 time=0
EXTRACT: note_off channel=8 note=51 velocity=0 time=0.05434775
EXTRACT: note_off channel=3 note=70 velocity=0 time=0.08605060416666667
EXTRACT: note_on channel=1 note=39 velocity=110 time=0.022644895833333335
EXTRACT: note_on channel=1 note=51 velocity=110 time=0
EXTRACT: note_on channel=3 note=71 velocity=127 time=0
EXTRACT: note_on channel=8 note=63 velocity=127 time=0
EXTRACT: note_on channel=9 note=46 velocity=127 time=0
EXTRACT: note_on channel=9 note=76 velocity=80 time=0
EXTRACT: note_on channel=0 note=51 velocity=120 time=0
EXTRACT: note_off channel=9 note=76 velocity=0 time=0.027173875
EXTRACT: note_off channel=9 note=46 velocity=0 time=0.027173875
EXTRACT: note_off channel=8 note=63 velocity=0 time=0.03623183333333334
EXTRACT: note_on channel=4 note=63 velocity=105 time=0.01811591666666667
EXTRACT: note_on channel=4 note=58 velocity=105 time=0
EXTRACT: note_on channel=8 note=63 velocity=127 time=0
EXTRACT: note_off channel=1 note=51 velocity=0 time=0.05434775
EXTRACT: note_off channel=1 note=39 velocity=0 time=0
EXTRACT: note_off channel=4 note=58 velocity=0 time=0
EXTRACT: note_off channel=4 note=63 velocity=0 time=0
EXTRACT: note_off channel=0 note=51 velocity=0 time=0
EXTRACT: note_off channel=3 note=71 velocity=0 time=0.03623183333333334
EXTRACT: note_off channel=9 note=28 velocity=0 time=0.004528979166666667
EXTRACT: note_on channel=3 note=73 velocity=127 time=0.0135869375
EXTRACT: note_on channel=4 note=63 velocity=105 time=0
EXTRACT: note_on channel=4 note=58 velocity=105 time=0
EXTRACT: note_off channel=8 note=63 velocity=0 time=0
EXTRACT: note_on channel=8 note=51 velocity=127 time=0
EXTRACT: note_on channel=9 note=36 velocity=127 time=0
EXTRACT: note_on channel=9 note=36 velocity=127 time=0
EXTRACT: note_on channel=9 note=36 velocity=127 time=0
EXTRACT: note_on channel=9 note=36 velocity=127 time=0
EXTRACT: note_on channel=9 note=42 velocity=127 time=0
EXTRACT: note_off channel=4 note=58 velocity=0 time=0.05434775
EXTRACT: note_off channel=4 note=63 velocity=0 time=0
EXTRACT: note_off channel=9 note=42 velocity=0 time=0
EXTRACT: note_off channel=9 note=36 velocity=64 time=0
EXTRACT: note_off channel=9 note=36 velocity=64 time=0
EXTRACT: note_off channel=9 note=36 velocity=64 time=0
EXTRACT: note_off channel=9 note=36 velocity=64 time=0
EXTRACT: note_off channel=8 note=51 velocity=0 time=0.05434775
EXTRACT: note_on channel=1 note=39 velocity=110 time=0.1086955
EXTRACT: note_on channel=1 note=51 velocity=110 time=0
EXTRACT: note_on channel=3 note=70 velocity=127 time=0
EXTRACT: note_on channel=4 note=63 velocity=105 time=0
EXTRACT: note_on channel=4 note=58 velocity=105 time=0
EXTRACT: note_on channel=8 note=63 velocity=127 time=0
EXTRACT: note_on channel=9 note=46 velocity=127 time=0
EXTRACT: note_on channel=0 note=51 velocity=120 time=0
EXTRACT: note_off channel=3 note=73 velocity=0 time=0.01811591666666667
EXTRACT: note_off channel=4 note=58 velocity=0 time=0.03623183333333334
EXTRACT: note_off channel=4 note=63 velocity=0 time=0
EXTRACT: note_off channel=9 note=46 velocity=0 time=0
EXTRACT: note_off channel=8 note=63 velocity=0 time=0.05434775
EXTRACT: note_on channel=9 note=36 velocity=127 time=0
EXTRACT: note_on channel=9 note=36 velocity=127 time=0
EXTRACT: note_on channel=9 note=36 velocity=127 time=0
EXTRACT: note_on channel=9 note=36 velocity=127 time=0
EXTRACT: note_off channel=1 note=51 velocity=0 time=0.05434775
EXTRACT: note_off channel=1 note=39 velocity=0 time=0
EXTRACT: note_off channel=9 note=36 velocity=64 time=0
EXTRACT: note_off channel=9 note=36 velocity=64 time=0
EXTRACT: note_off channel=9 note=36 velocity=64 time=0
EXTRACT: note_off channel=9 note=36 velocity=64 time=0
EXTRACT: note_off channel=0 note=51 velocity=0 time=0
EXTRACT: note_off channel=3 note=70 velocity=0 time=0.027173875
EXTRACT: note_on channel=3 note=66 velocity=127 time=0.027173875
EXTRACT: note_on channel=4 note=63 velocity=105 time=0
EXTRACT: note_on channel=4 note=58 velocity=105 time=0
EXTRACT: note_on channel=8 note=51 velocity=127 time=0
EXTRACT: note_on channel=9 note=36 velocity=127 time=0
EXTRACT: note_on channel=9 note=36 velocity=127 time=0
EXTRACT: note_on channel=9 note=36 velocity=127 time=0
EXTRACT: note_on channel=9 note=36 velocity=127 time=0
EXTRACT: note_on channel=9 note=28 velocity=127 time=0
EXTRACT: note_on channel=9 note=42 velocity=127 time=0
EXTRACT: note_on channel=9 note=76 velocity=80 time=0
EXTRACT: note_off channel=9 note=76 velocity=0 time=0.027173875
EXTRACT: note_off channel=4 note=58 velocity=0 time=0.027173875
EXTRACT: note_off channel=4 note=63 velocity=0 time=0
EXTRACT: note_off channel=9 note=42 velocity=0 time=0
EXTRACT: note_off channel=9 note=36 velocity=64 time=0
EXTRACT: note_off channel=9 note=36 velocity=64 time=0
EXTRACT: note_off channel=9 note=36 velocity=64 time=0
EXTRACT: note_off channel=9 note=36 velocity=64 time=0
EXTRACT: note_off channel=8 note=51 velocity=0 time=0.05434775
EXTRACT: note_on channel=1 note=39 velocity=110 time=0.1086955
EXTRACT: note_on channel=1 note=51 velocity=110 time=0
EXTRACT: note_on channel=8 note=63 velocity=127 time=0
EXTRACT: note_on channel=9 note=36 velocity=127 time=0
EXTRACT: note_on channel=9 note=36 velocity=127 time=0
EXTRACT: note_on channel=9 note=36 velocity=127 time=0
EXTRACT: note_on channel=9 note=36 velocity=127 time=0
EXTRACT: note_on channel=9 note=46 velocity=127 time=0
EXTRACT: note_on channel=0 note=51 velocity=120 time=0
EXTRACT: note_off channel=9 note=46 velocity=0 time=0.05434775
EXTRACT: note_off channel=9 note=36 velocity=64 time=0
EXTRACT: note_off channel=9 note=36 velocity=64 time=0
EXTRACT: note_off channel=9 note=36 velocity=64 time=0
EXTRACT: note_off channel=9 note=36 velocity=64 time=0
EXTRACT: note_off channel=3 note=66 velocity=0 time=0.004528979166666667
EXTRACT: note_off channel=8 note=63 velocity=0 time=0.04981877083333334
EXTRACT: note_off channel=1 note=51 velocity=0 time=0.05434775
EXTRACT: note_off channel=1 note=39 velocity=0 time=0
EXTRACT: note_off channel=0 note=51 velocity=0 time=0
EXTRACT: note_off channel=9 note=28 velocity=0 time=0.0407608125
EXTRACT: note_on channel=3 note=66 velocity=127 time=0.0135869375
EXTRACT: note_on channel=4 note=59 velocity=105 time=0
EXTRACT: note_on channel=4 note=54 velocity=105 time=0
EXTRACT: note_on channel=8 note=47 velocity=127 time=0
EXTRACT: note_on channel=9 note=36 velocity=127 time=0
EXTRACT: note_on channel=9 note=36 velocity=127 time=0
EXTRACT: note_on channel=9 note=36 velocity=127 time=0
EXTRACT: note_on channel=9 note=36 velocity=127 time=0
EXTRACT: note_on channel=9 note=42 velocity=127 time=0
EXTRACT: note_off channel=4 note=54 velocity=0 time=0.05434775
EXTRACT: note_off channel=4 note=59 velocity=0 time=0
EXTRACT: note_off channel=9 note=42 velocity=0 time=0
EXTRACT: note_off channel=9 note=36 velocity=64 time=0
EXTRACT: note_off channel=9 note=36 velocity=64 time=0
EXTRACT: note_off channel=9 note=36 velocity=64 time=0
EXTRACT: note_off channel=9 note=36 velocity=64 time=0
EXTRACT: note_off channel=8 note=47 velocity=0 time=0.05434775
EXTRACT: note_on channel=1 note=35 velocity=110 time=0.1086955
EXTRACT: note_on channel=1 note=47 velocity=110 time=0
EXTRACT: note_on channel=4 note=59 velocity=105 time=0
EXTRACT: note_on channel=4 note=54 velocity=105 time=0
EXTRACT: note_on channel=8 note=59 velocity=127 time=0
EXTRACT: note_on channel=9 note=46 velocity=127 time=0
EXTRACT: note_on channel=0 note=47 velocity=120 time=0
EXTRACT: note_off channel=4 note=54 velocity=0 time=0.05434775
EXTRACT: note_off channel=4 note=59 velocity=0 time=0
EXTRACT: note_off channel=9 note=46 velocity=0 time=0
EXTRACT: note_off channel=8 note=59 velocity=0 time=0.05434775
EXTRACT: note_off channel=1 note=47 velocity=0 time=0.05434775
EXTRACT: note_off channel=1 note=35 velocity=0 time=0
EXTRACT: note_off channel=0 note=47 velocity=0 time=0
EXTRACT: note_off channel=3 note=66 velocity=0 time=0.022644895833333335
EXTRACT: note_on channel=3 note=63 velocity=127 time=0.03170285416666667
EXTRACT: note_on channel=4 note=59 velocity=105 time=0
EXTRACT: note_on channel=4 note=54 velocity=105 time=0
EXTRACT: note_on channel=8 note=47 velocity=127 time=0
EXTRACT: note_on channel=9 note=36 velocity=127 time=0
EXTRACT: note_on channel=9 note=36 velocity=127 time=0
EXTRACT: note_on channel=9 note=36 velocity=127 time=0
EXTRACT: note_on channel=9 note=36 velocity=127 time=0
EXTRACT: note_on channel=9 note=28 velocity=127 time=0
EXTRACT: note_on channel=9 note=42 velocity=127 time=0
EXTRACT: note_on channel=9 note=76 velocity=80 time=0
EXTRACT: note_off channel=9 note=76 velocity=0 time=0.027173875
EXTRACT: note_off channel=4 note=54 velocity=0 time=0.027173875
EXTRACT: note_off channel=4 note=59 velocity=0 time=0
EXTRACT: note_off channel=9 note=42 velocity=0 time=0
EXTRACT: note_off channel=9 note=36 velocity=64 time=0
EXTRACT: note_off channel=9 note=36 velocity=64 time=0
EXTRACT: note_off channel=9 note=36 velocity=64 time=0
EXTRACT: note_off channel=9 note=36 velocity=64 time=0
EXTRACT: note_off channel=8 note=47 velocity=0 time=0.05434775
EXTRACT: note_off channel=3 note=63 velocity=0 time=0.07246366666666668
EXTRACT: note_on channel=1 note=35 velocity=110 time=0.03623183333333334
EXTRACT: note_on channel=1 note=47 velocity=110 time=0
EXTRACT: note_on channel=3 note=61 velocity=127 time=0
EXTRACT: note_on channel=8 note=59 velocity=127 time=0
EXTRACT: note_on channel=9 note=46 velocity=127 time=0
EXTRACT: note_on channel=9 note=76 velocity=80 time=0
EXTRACT: note_on channel=0 note=47 velocity=120 time=0
EXTRACT: note_off channel=9 note=76 velocity=0 time=0.027173875
EXTRACT: note_off channel=9 note=46 velocity=0 time=0.027173875
EXTRACT: note_off channel=8 note=59 velocity=0 time=0.03623183333333334
EXTRACT: note_on channel=4 note=59 velocity=105 time=0.01811591666666667
EXTRACT: note_on channel=4 note=54 velocity=105 time=0
EXTRACT: note_on channel=8 note=59 velocity=127 time=0
EXTRACT: note_off channel=1 note=47 velocity=0 time=0.05434775
EXTRACT: note_off channel=1 note=35 velocity=0 time=0
EXTRACT: note_off channel=4 note=54 velocity=0 time=0
EXTRACT: note_off channel=4 note=59 velocity=0 time=0
EXTRACT: note_off channel=0 note=47 velocity=0 time=0
EXTRACT: note_off channel=3 note=61 velocity=0 time=0.0135869375
EXTRACT: note_off channel=9 note=28 velocity=0 time=0.027173875
EXTRACT: note_on channel=3 note=66 velocity=127 time=0.0135869375
EXTRACT: note_on channel=4 note=61 velocity=105 time=0
EXTRACT: note_on channel=4 note=56 velocity=105 time=0
EXTRACT: note_off channel=8 note=59 velocity=0 time=0
EXTRACT: note_on channel=8 note=49 velocity=127 time=0
EXTRACT: note_on channel=9 note=36 velocity=127 time=0
EXTRACT: note_on channel=9 note=36 velocity=127 time=0
EXTRACT: note_on channel=9 note=36 velocity=127 time=0
EXTRACT: note_on channel=9 note=36 velocity=127 time=0
EXTRACT: note_on channel=9 note=42 velocity=127 time=0
EXTRACT: note_off channel=4 note=56 velocity=0 time=0.05434775
EXTRACT: note_off channel=4 note=61 velocity=0 time=0
EXTRACT: note_off channel=9 note=42 velocity=0 time=0
EXTRACT: note_off channel=9 note=36 velocity=64 time=0
EXTRACT: note_off channel=9 note=36 velocity=64 time=0
EXTRACT: note_off channel=9 note=36 velocity=64 time=0
EXTRACT: note_off channel=9 note=36 velocity=64 time=0
EXTRACT: note_off channel=8 note=49 velocity=0 time=0.05434775
EXTRACT: note_on channel=1 note=37 velocity=110 time=0.1086955
EXTRACT: note_on channel=1 note=49 velocity=110 time=0
EXTRACT: note_on channel=4 note=61 velocity=105 time=0
EXTRACT: note_on channel=4 note=56 velocity=105 time=0
EXTRACT: note_on channel=8 note=61 velocity=127 time=0
EXTRACT: note_on channel=9 note=46 velocity=127 time=0
EXTRACT: note_on channel=0 note=49 velocity=120 time=0
EXTRACT: note_off channel=4 note=56 velocity=0 time=0.05434775
EXTRACT: note_off channel=4 note=61 velocity=0 time=0
EXTRACT: note_off channel=9 note=46 velocity=0 time=0
EXTRACT: note_off channel=8 note=61 velocity=0 time=0.05434775
EXTRACT: note_on channel=9 note=36 velocity=127 time=0
EXTRACT: note_on channel=9 note=36 velocity=127 time=0
EXTRACT: note_on channel=9 note=36 velocity=127 time=0
EXTRACT: note_on channel=9 note=36 velocity=127 time=0
EXTRACT: note_off channel=1 note=49 velocity=0 time=0.05434775
EXTRACT: note_off channel=1 note=37 velocity=0 time=0
EXTRACT: note_off channel=9 note=36 velocity=64 time=0
EXTRACT: note_off channel=9 note=36 velocity=64 time=0
EXTRACT: note_off channel=9 note=36 velocity=64 time=0
EXTRACT: note_off channel=9 note=36 velocity=64 time=0
EXTRACT: note_off channel=0 note=49 velocity=0 time=0
EXTRACT: note_off channel=3 note=66 velocity=0 time=0.0407608125
EXTRACT: note_on channel=3 note=63 velocity=127 time=0.0135869375
EXTRACT: note_on channel=4 note=61 velocity=105 time=0
EXTRACT: note_on channel=4 note=56 velocity=105 time=0
EXTRACT: note_on channel=6 note=65 velocity=115 time=0
EXTRACT: note_on channel=8 note=49 velocity=127 time=0
EXTRACT: note_on channel=9 note=36 velocity=127 time=0
EXTRACT: note_on channel=9 note=36 velocity=127 time=0
EXTRACT: note_on channel=9 note=36 velocity=127 time=0
EXTRACT: note_on channel=9 note=36 velocity=127 time=0
EXTRACT: note_on channel=9 note=28 velocity=127 time=0
EXTRACT: note_on channel=9 note=42 velocity=127 time=0
EXTRACT: note_on channel=9 note=76 velocity=80 time=0
EXTRACT: note_off channel=9 note=76 velocity=0 time=0.027173875
EXTRACT: note_off channel=4 note=56 velocity=0 time=0.027173875
EXTRACT: note_off channel=4 note=61 velocity=0 time=0
EXTRACT: note_off channel=9 note=42 velocity=0 time=0
EXTRACT: note_off channel=9 note=36 velocity=64 time=0
EXTRACT: note_off channel=9 note=36 velocity=64 time=0
EXTRACT: note_off channel=9 note=36 velocity=64 time=0
EXTRACT: note_off channel=9 note=36 velocity=64 time=0
EXTRACT: note_off channel=8 note=49 velocity=0 time=0.05434775
EXTRACT: note_off channel=3 note=63 velocity=0 time=0.09057958333333334
EXTRACT: note_on channel=1 note=37 velocity=110 time=0.01811591666666667
EXTRACT: note_on channel=1 note=49 velocity=110 time=0
EXTRACT: note_on channel=3 note=61 velocity=127 time=0
EXTRACT: note_on channel=8 note=61 velocity=127 time=0
EXTRACT: note_on channel=9 note=36 velocity=127 time=0
EXTRACT: note_on channel=9 note=36 velocity=127 time=0
EXTRACT: note_on channel=9 note=36 velocity=127 time=0
EXTRACT: note_on channel=9 note=36 velocity=127 time=0
EXTRACT: note_on channel=9 note=46 velocity=127 time=0
EXTRACT: note_on channel=0 note=49 velocity=120 time=0
EXTRACT: note_off channel=9 note=46 velocity=0 time=0.05434775
EXTRACT: note_off channel=9 note=36 velocity=64 time=0
EXTRACT: note_off channel=9 note=36 velocity=64 time=0
EXTRACT: note_off channel=9 note=36 velocity=64 time=0
EXTRACT: note_off channel=9 note=36 velocity=64 time=0
EXTRACT: note_off channel=8 note=61 velocity=0 time=0.05434775
EXTRACT: note_off channel=1 note=49 velocity=0 time=0.05434775
EXTRACT: note_off channel=1 note=37 velocity=0 time=0
EXTRACT: note_off channel=0 note=49 velocity=0 time=0
EXTRACT: note_off channel=3 note=61 velocity=0 time=0.01811591666666667
EXTRACT: note_off channel=9 note=28 velocity=0 time=0.022644895833333335
EXTRACT: note_on channel=9 note=36 velocity=127 time=0.0135869375
EXTRACT: note_on channel=9 note=36 velocity=127 time=0
EXTRACT: note_on channel=9 note=36 velocity=127 time=0
EXTRACT: note_on channel=12 note=103 velocity=110 time=0
EXTRACT: note_off channel=12 note=103 velocity=0 time=0.027173875
EXTRACT: note_off channel=9 note=36 velocity=64 time=0.027173875
EXTRACT: note_off channel=9 note=36 velocity=64 time=0
EXTRACT: note_off channel=9 note=36 velocity=64 time=0
EXTRACT: note_off channel=6 note=65 velocity=64 time=0.004528979166666667
EXTRACT: note_on channel=3 note=70 velocity=127 time=0.37590527083333336
EXTRACT: note_off channel=3 note=70 velocity=0 time=0.28532568750000004
EXTRACT: note_on channel=3 note=70 velocity=127 time=0.1494563125
EXTRACT: note_off channel=3 note=70 velocity=0 time=0.3396734375
EXTRACT: note_on channel=3 note=68 velocity=127 time=0.09510856250000001
EXTRACT: note_off channel=3 note=68 velocity=0 time=0.24456487500000001
EXTRACT: note_on channel=3 note=66 velocity=127 time=0.19021712500000001
EXTRACT: note_on channel=4 note=66 velocity=105 time=0
EXTRACT: note_on channel=4 note=61 velocity=105 time=0
EXTRACT: note_on channel=8 note=54 velocity=127 time=0
EXTRACT: note_on channel=9 note=36 velocity=127 time=0
EXTRACT: note_on channel=9 note=36 velocity=127 time=0
EXTRACT: note_on channel=9 note=36 velocity=127 time=0
EXTRACT: note_on channel=9 note=36 velocity=127 time=0
EXTRACT: note_on channel=9 note=42 velocity=127 time=0
EXTRACT: note_off channel=4 note=61 velocity=0 time=0.05434775
EXTRACT: note_off channel=4 note=66 velocity=0 time=0
EXTRACT: note_off channel=9 note=42 velocity=0 time=0
EXTRACT: note_off channel=9 note=36 velocity=64 time=0
EXTRACT: note_off channel=9 note=36 velocity=64 time=0
EXTRACT: note_off channel=9 note=36 velocity=64 time=0
EXTRACT: note_off channel=9 note=36 velocity=64 time=0
EXTRACT: note_off channel=8 note=54 velocity=0 time=0.05434775
EXTRACT: note_on channel=1 note=42 velocity=110 time=0.1086955
EXTRACT: note_on channel=1 note=54 velocity=110 time=0
EXTRACT: note_on channel=4 note=66 velocity=105 time=0
EXTRACT: note_on channel=4 note=61 velocity=105 time=0
EXTRACT: note_on channel=8 note=66 velocity=127 time=0
EXTRACT: note_on channel=9 note=46 velocity=127 time=0
EXTRACT: note_on channel=0 note=54 velocity=120 time=0
EXTRACT: note_off channel=4 note=61 velocity=0 time=0.05434775
EXTRACT: note_off channel=4 note=66 velocity=0 time=0
EXTRACT: note_off channel=9 note=46 velocity=0 time=0
EXTRACT: note_off channel=8 note=66 velocity=0 time=0.05434775
EXTRACT: note_off channel=1 note=54 velocity=0 time=0.05434775
EXTRACT: note_off channel=1 note=42 velocity=0 time=0
EXTRACT: note_off channel=0 note=54 velocity=0 time=0
EXTRACT: note_off channel=3 note=66 velocity=0 time=0.03623183333333334
EXTRACT: note_on channel=4 note=66 velocity=105 time=0.01811591666666667
EXTRACT: note_on channel=4 note=61 velocity=105 time=0
EXTRACT: note_on channel=8 note=54 velocity=127 time=0
EXTRACT: note_on channel=9 note=36 velocity=127 time=0
EXTRACT: note_on channel=9 note=36 velocity=127 time=0
EXTRACT: note_on channel=9 note=36 velocity=127 time=0
EXTRACT: note_on channel=9 note=36 velocity=127 time=0
EXTRACT: note_on channel=9 note=28 velocity=127 time=0
EXTRACT: note_on channel=9 note=42 velocity=127 time=0
EXTRACT: note_on channel=9 note=76 velocity=80 time=0
EXTRACT: note_off channel=9 note=76 velocity=0 time=0.027173875
EXTRACT: note_off channel=4 note=61 velocity=0 time=0.027173875
EXTRACT: note_off channel=4 note=66 velocity=0 time=0
EXTRACT: note_off channel=9 note=42 velocity=0 time=0
EXTRACT: note_off channel=9 note=36 velocity=64 time=0
EXTRACT: note_off channel=9 note=36 velocity=64 time=0
EXTRACT: note_off channel=9 note=36 velocity=64 time=0
EXTRACT: note_off channel=9 note=36 velocity=64 time=0
EXTRACT: note_off channel=8 note=54 velocity=0 time=0.05434775
EXTRACT: note_on channel=1 note=42 velocity=110 time=0.1086955
EXTRACT: note_on channel=1 note=54 velocity=110 time=0
EXTRACT: note_on channel=3 note=61 velocity=127 time=0
EXTRACT: note_on channel=8 note=66 velocity=127 time=0
EXTRACT: note_on channel=9 note=46 velocity=127 time=0
EXTRACT: note_on channel=9 note=76 velocity=80 time=0
EXTRACT: note_on channel=0 note=54 velocity=120 time=0
EXTRACT: note_off channel=9 note=76 velocity=0 time=0.027173875
EXTRACT: note_off channel=9 note=46 velocity=0 time=0.027173875
EXTRACT: note_off channel=8 note=66 velocity=0 time=0.03623183333333334
EXTRACT: note_off channel=3 note=61 velocity=0 time=0.01811591666666667
EXTRACT: note_on channel=4 note=66 velocity=105 time=0
EXTRACT: note_on channel=4 note=61 velocity=105 time=0
EXTRACT: note_on channel=8 note=66 velocity=127 time=0
EXTRACT: note_off channel=1 note=54 velocity=0 time=0.05434775
EXTRACT: note_off channel=1 note=42 velocity=0 time=0
EXTRACT: note_off channel=4 note=61 velocity=0 time=0
EXTRACT: note_off channel=4 note=66 velocity=0 time=0
EXTRACT: note_off channel=0 note=54 velocity=0 time=0
EXTRACT: note_off channel=9 note=28 velocity=0 time=0.0407608125
EXTRACT: note_on channel=3 note=61 velocity=127 time=0.0135869375
EXTRACT: note_on channel=4 note=61 velocity=105 time=0
EXTRACT: note_on channel=4 note=56 velocity=105 time=0
EXTRACT: note_off channel=8 note=66 velocity=0 time=0
EXTRACT: note_on channel=8 note=49 velocity=127 time=0
EXTRACT: note_on channel=9 note=36 velocity=127 time=0
EXTRACT: note_on channel=9 note=36 velocity=127 time=0
EXTRACT: note_on channel=9 note=36 velocity=127 time=0
EXTRACT: note_on channel=9 note=36 velocity=127 time=0
EXTRACT: note_on channel=9 note=42 velocity=127 time=0
EXTRACT: note_off channel=4 note=56 velocity=0 time=0.05434775
EXTRACT: note_off channel=4 note=61 velocity=0 time=0
EXTRACT: note_off channel=9 note=42 velocity=0 time=0
EXTRACT: note_off channel=9 note=36 velocity=64 time=0
EXTRACT: note_off channel=9 note=36 velocity=64 time=0
EXTRACT: note_off channel=9 note=36 velocity=64 time=0
EXTRACT: note_off channel=9 note=36 velocity=64 time=0
EXTRACT: note_off channel=3 note=61 velocity=0 time=0.04528979166666667
EXTRACT: note_off channel=8 note=49 velocity=0 time=0.009057958333333335
EXTRACT: note_on channel=1 note=37 velocity=110 time=0.1086955
EXTRACT: note_on channel=1 note=49 velocity=110 time=0
EXTRACT: note_on channel=3 note=61 velocity=127 time=0
EXTRACT: note_on channel=4 note=61 velocity=105 time=0
EXTRACT: note_on channel=4 note=56 velocity=105 time=0
EXTRACT: note_on channel=8 note=61 velocity=127 time=0
EXTRACT: note_on channel=9 note=46 velocity=127 time=0
EXTRACT: note_on channel=0 note=49 velocity=120 time=0
EXTRACT: note_off channel=4 note=56 velocity=0 time=0.05434775
EXTRACT: note_off channel=4 note=61 velocity=0 time=0
EXTRACT: note_off channel=9 note=46 velocity=0 time=0
EXTRACT: note_off channel=8 note=61 velocity=0 time=0.05434775
EXTRACT: note_on channel=9 note=36 velocity=127 time=0
EXTRACT: note_on channel=9 note=36 velocity=127 time=0
EXTRACT: note_on channel=9 note=36 velocity=127 time=0
EXTRACT: note_on channel=9 note=36 velocity=127 time=0
EXTRACT: note_off channel=3 note=61 velocity=0 time=0.01811591666666667
EXTRACT: note_off channel=1 note=49 velocity=0 time=0.03623183333333334
EXTRACT: note_off channel=1 note=37 velocity=0 time=0
EXTRACT: note_off channel=9 note=36 velocity=64 time=0
EXTRACT: note_off channel=9 note=36 velocity=64 time=0
EXTRACT: note_off channel=9 note=36 velocity=64 time=0
EXTRACT: note_off channel=9 note=36 velocity=64 time=0
EXTRACT: note_off channel=0 note=49 velocity=0 time=0
EXTRACT: note_on channel=3 note=68 velocity=127 time=0.05434775
EXTRACT: note_on channel=4 note=61 velocity=105 time=0
EXTRACT: note_on channel=4 note=56 velocity=105 time=0
EXTRACT: note_on channel=8 note=49 velocity=127 time=0
EXTRACT: note_on channel=9 note=36 velocity=127 time=0
EXTRACT: note_on channel=9 note=36 velocity=127 time=0
EXTRACT: note_on channel=9 note=36 velocity=127 time=0
EXTRACT: note_on channel=9 note=36 velocity=127 time=0
EXTRACT: note_on channel=9 note=28 velocity=127 time=0
EXTRACT: note_on channel=9 note=42 velocity=127 time=0
EXTRACT: note_on channel=9 note=76 velocity=80 time=0
EXTRACT: note_off channel=9 note=76 velocity=0 time=0.027173875
EXTRACT: note_off channel=4 note=56 velocity=0 time=0.027173875
EXTRACT: note_off channel=4 note=61 velocity=0 time=0
EXTRACT: note_off channel=9 note=42 velocity=0 time=0
EXTRACT: note_off channel=9 note=36 velocity=64 time=0
EXTRACT: note_off channel=9 note=36 velocity=64 time=0
EXTRACT: note_off channel=9 note=36 velocity=64 time=0
EXTRACT: note_off channel=9 note=36 velocity=64 time=0
EXTRACT: note_off channel=3 note=68 velocity=0 time=0.04528979166666667
EXTRACT: note_off channel=8 note=49 velocity=0 time=0.009057958333333335
EXTRACT: note_on channel=1 note=37 velocity=110 time=0.1086955
EXTRACT: note_on channel=1 note=49 velocity=110 time=0
EXTRACT: note_on channel=3 note=68 velocity=127 time=0
EXTRACT: note_on channel=8 note=61 velocity=127 time=0
EXTRACT: note_on channel=9 note=36 velocity=127 time=0
EXTRACT: note_on channel=9 note=36 velocity=127 time=0
EXTRACT: note_on channel=9 note=36 velocity=127 time=0
EXTRACT: note_on channel=9 note=36 velocity=127 time=0
EXTRACT: note_on channel=9 note=46 velocity=127 time=0
EXTRACT: note_on channel=0 note=49 velocity=120 time=0
EXTRACT: note_off channel=9 note=46 velocity=0 time=0.05434775
EXTRACT: note_off channel=9 note=36 velocity=64 time=0
EXTRACT: note_off channel=9 note=36 velocity=64 time=0
EXTRACT: note_off channel=9 note=36 velocity=64 time=0
EXTRACT: note_off channel=9 note=36 velocity=64 time=0
EXTRACT: note_off channel=8 note=61 velocity=0 time=0.05434775
EXTRACT: note_off channel=3 note=68 velocity=0 time=0.027173875
EXTRACT: note_off channel=1 note=49 velocity=0 time=0.027173875
EXTRACT: note_off channel=1 note=37 velocity=0 time=0
EXTRACT: note_off channel=0 note=49 velocity=0 time=0
EXTRACT: note_off channel=9 note=28 velocity=0 time=0.0407608125
EXTRACT: note_on channel=3 note=66 velocity=127 time=0.0135869375
EXTRACT: note_on channel=4 note=63 velocity=105 time=0
EXTRACT: note_on channel=4 note=58 velocity=105 time=0
EXTRACT: note_on channel=8 note=51 velocity=127 time=0
EXTRACT: note_on channel=9 note=36 velocity=127 time=0
EXTRACT: note_on channel=9 note=36 velocity=127 time=0
EXTRACT: note_on channel=9 note=36 velocity=127 time=0
EXTRACT: note_on channel=9 note=36 velocity=127 time=0
EXTRACT: note_on channel=9 note=42 velocity=127 time=0
EXTRACT: note_off channel=4 note=58 velocity=0 time=0.05434775
EXTRACT: note_off channel=4 note=63 velocity=0 time=0
EXTRACT: note_off channel=9 note=42 velocity=0 time=0
EXTRACT: note_off channel=9 note=36 velocity=64 time=0
EXTRACT: note_off channel=9 note=36 velocity=64 time=0
EXTRACT: note_off channel=9 note=36 velocity=64 time=0
EXTRACT: note_off channel=9 note=36 velocity=64 time=0
EXTRACT: note_off channel=8 note=51 velocity=0 time=0.05434775
EXTRACT: note_on channel=1 note=39 velocity=110 time=0.1086955
EXTRACT: note_on channel=1 note=51 velocity=110 time=0
EXTRACT: note_on channel=4 note=63 velocity=105 time=0
EXTRACT: note_on channel=4 note=58 velocity=105 time=0
EXTRACT: note_on channel=8 note=63 velocity=127 time=0
EXTRACT: note_on channel=9 note=46 velocity=127 time=0
EXTRACT: note_on channel=0 note=51 velocity=120 time=0
EXTRACT: note_off channel=4 note=58 velocity=0 time=0.05434775
EXTRACT: note_off channel=4 note=63 velocity=0 time=0
EXTRACT: note_off channel=9 note=46 velocity=0 time=0
EXTRACT: note_off channel=8 note=63 velocity=0 time=0.05434775
EXTRACT: note_off channel=1 note=51 velocity=0 time=0.05434775
EXTRACT: note_off channel=1 note=39 velocity=0 time=0
EXTRACT: note_off channel=0 note=51 velocity=0 time=0
EXTRACT: note_off channel=3 note=66 velocity=0 time=0.004528979166666667
EXTRACT: note_on channel=4 note=63 velocity=105 time=0.04981877083333334
EXTRACT: note_on channel=4 note=58 velocity=105 time=0
EXTRACT: note_on channel=8 note=51 velocity=127 time=0
EXTRACT: note_on channel=9 note=36 velocity=127 time=0
EXTRACT: note_on channel=9 note=36 velocity=127 time=0
EXTRACT: note_on channel=9 note=36 velocity=127 time=0
EXTRACT: note_on channel=9 note=36 velocity=127 time=0
EXTRACT: note_on channel=9 note=28 velocity=127 time=0
EXTRACT: note_on channel=9 note=42 velocity=127 time=0
EXTRACT: note_on channel=9 note=76 velocity=80 time=0
EXTRACT: note_off channel=9 note=76 velocity=0 time=0.027173875
EXTRACT: note_off channel=4 note=58 velocity=0 time=0.027173875
EXTRACT: note_off channel=4 note=63 velocity=0 time=0
EXTRACT: note_off channel=9 note=42 velocity=0 time=0
EXTRACT: note_off channel=9 note=36 velocity=64 time=0
EXTRACT: note_off channel=9 note=36 velocity=64 time=0
EXTRACT: note_off channel=9 note=36 velocity=64 time=0
EXTRACT: note_off channel=9 note=36 velocity=64 time=0
EXTRACT: note_off channel=8 note=51 velocity=0 time=0.05434775
EXTRACT: note_on channel=1 note=39 velocity=110 time=0.1086955
EXTRACT: note_on channel=1 note=51 velocity=110 time=0
EXTRACT: note_on channel=3 note=63 velocity=127 time=0
EXTRACT: note_on channel=8 note=63 velocity=127 time=0
EXTRACT: note_on channel=9 note=46 velocity=127 time=0
EXTRACT: note_on channel=9 note=76 velocity=80 time=0
EXTRACT: note_on channel=0 note=51 velocity=120 time=0
EXTRACT: note_off channel=9 note=76 velocity=0 time=0.027173875
EXTRACT: note_off channel=9 note=46 velocity=0 time=0.027173875
EXTRACT: note_off channel=3 note=63 velocity=0 time=0.03170285416666667
EXTRACT: note_off channel=8 note=63 velocity=0 time=0.004528979166666667
EXTRACT: note_on channel=4 note=63 velocity=105 time=0.01811591666666667
EXTRACT: note_on channel=4 note=58 velocity=105 time=0
EXTRACT: note_on channel=8 note=63 velocity=127 time=0
EXTRACT: note_off channel=1 note=51 velocity=0 time=0.05434775
EXTRACT: note_off channel=1 note=39 velocity=0 time=0
EXTRACT: note_off channel=4 note=58 velocity=0 time=0
EXTRACT: note_off channel=4 note=63 velocity=0 time=0
EXTRACT: note_off channel=0 note=51 velocity=0 time=0
EXTRACT: note_off channel=9 note=28 velocity=0 time=0.0407608125
EXTRACT: note_on channel=3 note=63 velocity=127 time=0.0135869375
EXTRACT: note_on channel=4 note=63 velocity=105 time=0
EXTRACT: note_on channel=4 note=58 velocity=105 time=0
EXTRACT: note_off channel=8 note=63 velocity=0 time=0
EXTRACT: note_on channel=8 note=51 velocity=127 time=0
EXTRACT: note_on channel=9 note=36 velocity=127 time=0
EXTRACT: note_on channel=9 note=36 velocity=127 time=0
EXTRACT: note_on channel=9 note=36 velocity=127 time=0
EXTRACT: note_on channel=9 note=36 velocity=127 time=0
EXTRACT: note_on channel=9 note=42 velocity=127 time=0
EXTRACT: note_off channel=4 note=58 velocity=0 time=0.05434775
EXTRACT: note_off channel=4 note=63 velocity=0 time=0
EXTRACT: note_off channel=9 note=42 velocity=0 time=0
EXTRACT: note_off channel=9 note=36 velocity=64 time=0
EXTRACT: note_off channel=9 note=36 velocity=64 time=0
EXTRACT: note_off channel=9 note=36 velocity=64 time=0
EXTRACT: note_off channel=9 note=36 velocity=64 time=0
EXTRACT: note_off channel=3 note=63 velocity=0 time=0.0407608125
EXTRACT: note_off channel=8 note=51 velocity=0 time=0.0135869375
EXTRACT: note_on channel=1 note=39 velocity=110 time=0.1086955
EXTRACT: note_on channel=1 note=51 velocity=110 time=0
EXTRACT: note_on channel=3 note=63 velocity=127 time=0
EXTRACT: note_on channel=4 note=63 velocity=105 time=0
EXTRACT: note_on channel=4 note=58 velocity=105 time=0
EXTRACT: note_on channel=8 note=63 velocity=127 time=0
EXTRACT: note_on channel=9 note=46 velocity=127 time=0
EXTRACT: note_on channel=0 note=51 velocity=120 time=0
EXTRACT: note_off channel=4 note=58 velocity=0 time=0.05434775
EXTRACT: note_off channel=4 note=63 velocity=0 time=0
EXTRACT: note_off channel=9 note=46 velocity=0 time=0
EXTRACT: note_off channel=8 note=63 velocity=0 time=0.05434775
EXTRACT: note_on channel=9 note=36 velocity=127 time=0
EXTRACT: note_on channel=9 note=36 velocity=127 time=0
EXTRACT: note_on channel=9 note=36 velocity=127 time=0
EXTRACT: note_on channel=9 note=36 velocity=127 time=0
EXTRACT: note_off channel=3 note=63 velocity=0 time=0.0135869375
EXTRACT: note_off channel=1 note=51 velocity=0 time=0.0407608125
EXTRACT: note_off channel=1 note=39 velocity=0 time=0
EXTRACT: note_off channel=9 note=36 velocity=64 time=0
EXTRACT: note_off channel=9 note=36 velocity=64 time=0
EXTRACT: note_off channel=9 note=36 velocity=64 time=0
EXTRACT: note_off channel=9 note=36 velocity=64 time=0
EXTRACT: note_off channel=0 note=51 velocity=0 time=0
EXTRACT: note_on channel=3 note=66 velocity=127 time=0.05434775
EXTRACT: note_on channel=4 note=63 velocity=105 time=0
EXTRACT: note_on channel=4 note=58 velocity=105 time=0
EXTRACT: note_on channel=8 note=51 velocity=127 time=0
EXTRACT: note_on channel=9 note=36 velocity=127 time=0
EXTRACT: note_on channel=9 note=36 velocity=127 time=0
EXTRACT: note_on channel=9 note=36 velocity=127 time=0
EXTRACT: note_on channel=9 note=36 velocity=127 time=0
EXTRACT: note_on channel=9 note=28 velocity=127 time=0
EXTRACT: note_on channel=9 note=42 velocity=127 time=0
EXTRACT: note_on channel=9 note=76 velocity=80 time=0
EXTRACT: note_off channel=9 note=76 velocity=0 time=0.027173875
EXTRACT: note_off channel=4 note=58 velocity=0 time=0.027173875
EXTRACT: note_off channel=4 note=63 velocity=0 time=0
EXTRACT: note_off channel=9 note=42 velocity=0 time=0
EXTRACT: note_off channel=9 note=36 velocity=64 time=0
EXTRACT: note_off channel=9 note=36 velocity=64 time=0
EXTRACT: note_off channel=9 note=36 velocity=64 time=0
EXTRACT: note_off channel=9 note=36 velocity=64 time=0
EXTRACT: note_off channel=8 note=51 velocity=0 time=0.05434775
EXTRACT: note_off channel=3 note=66 velocity=0 time=0.027173875
EXTRACT: note_on channel=1 note=39 velocity=110 time=0.081521625
EXTRACT: note_on channel=1 note=51 velocity=110 time=0
EXTRACT: note_on channel=3 note=68 velocity=127 time=0
EXTRACT: note_on channel=8 note=63 velocity=127 time=0
EXTRACT: note_on channel=9 note=36 velocity=127 time=0
EXTRACT: note_on channel=9 note=36 velocity=127 time=0
EXTRACT: note_on channel=9 note=36 velocity=127 time=0
EXTRACT: note_on channel=9 note=36 velocity=127 time=0
EXTRACT: note_on channel=9 note=46 velocity=127 time=0
EXTRACT: note_on channel=0 note=51 velocity=120 time=0
EXTRACT: note_off channel=9 note=46 velocity=0 time=0.05434775
EXTRACT: note_off channel=9 note=36 velocity=64 time=0
EXTRACT: note_off channel=9 note=36 velocity=64 time=0
EXTRACT: note_off channel=9 note=36 velocity=64 time=0
EXTRACT: note_off channel=9 note=36 velocity=64 time=0
EXTRACT: note_off channel=8 note=63 velocity=0 time=0.05434775
EXTRACT: note_off channel=3 note=68 velocity=0 time=0.009057958333333335
EXTRACT: note_off channel=1 note=51 velocity=0 time=0.04528979166666667
EXTRACT: note_off channel=1 note=39 velocity=0 time=0
EXTRACT: note_off channel=0 note=51 velocity=0 time=0
EXTRACT: note_off channel=9 note=28 velocity=0 time=0.0407608125
EXTRACT: note_on channel=3 note=70 velocity=127 time=0.0135869375
EXTRACT: note_on channel=4 note=59 velocity=105 time=0
EXTRACT: note_on channel=4 note=54 velocity=105 time=0
EXTRACT: note_on channel=8 note=47 velocity=127 time=0
EXTRACT: note_on channel=9 note=36 velocity=127 time=0
EXTRACT: note_on channel=9 note=36 velocity=127 time=0
EXTRACT: note_on channel=9 note=36 velocity=127 time=0
EXTRACT: note_on channel=9 note=36 velocity=127 time=0
EXTRACT: note_on channel=9 note=42 velocity=127 time=0
EXTRACT: note_off channel=4 note=54 velocity=0 time=0.05434775
EXTRACT: note_off channel=4 note=59 velocity=0 time=0
EXTRACT: note_off channel=9 note=42 velocity=0 time=0
EXTRACT: note_off channel=9 note=36 velocity=64 time=0
EXTRACT: note_off channel=9 note=36 velocity=64 time=0
EXTRACT: note_off channel=9 note=36 velocity=64 time=0
EXTRACT: note_off channel=9 note=36 velocity=64 time=0
EXTRACT: note_off channel=8 note=47 velocity=0 time=0.05434775
EXTRACT: note_on channel=1 note=35 velocity=110 time=0.1086955
EXTRACT: note_on channel=1 note=47 velocity=110 time=0
EXTRACT: note_on channel=4 note=59 velocity=105 time=0
EXTRACT: note_on channel=4 note=54 velocity=105 time=0
EXTRACT: note_on channel=8 note=59 velocity=127 time=0
EXTRACT: note_on channel=9 note=46 velocity=127 time=0
EXTRACT: note_on channel=0 note=47 velocity=120 time=0
EXTRACT: note_off channel=3 note=70 velocity=0 time=0.009057958333333335
EXTRACT: note_off channel=4 note=54 velocity=0 time=0.04528979166666667
EXTRACT: note_off channel=4 note=59 velocity=0 time=0
EXTRACT: note_off channel=9 note=46 velocity=0 time=0
EXTRACT: note_on channel=3 note=66 velocity=127 time=0.05434775
EXTRACT: note_off channel=8 note=59 velocity=0 time=0
EXTRACT: note_off channel=1 note=47 velocity=0 time=0.05434775
EXTRACT: note_off channel=1 note=35 velocity=0 time=0
EXTRACT: note_off channel=0 note=47 velocity=0 time=0
EXTRACT: note_on channel=4 note=59 velocity=105 time=0.05434775
EXTRACT: note_on channel=4 note=54 velocity=105 time=0
EXTRACT: note_on channel=8 note=47 velocity=127 time=0
EXTRACT: note_on channel=9 note=36 velocity=127 time=0
EXTRACT: note_on channel=9 note=36 velocity=127 time=0
EXTRACT: note_on channel=9 note=36 velocity=127 time=0
EXTRACT: note_on channel=9 note=36 velocity=127 time=0
EXTRACT: note_on channel=9 note=28 velocity=127 time=0
EXTRACT: note_on channel=9 note=42 velocity=127 time=0
EXTRACT: note_on channel=9 note=76 velocity=80 time=0
EXTRACT: note_off channel=9 note=76 velocity=0 time=0.027173875
EXTRACT: note_off channel=4 note=54 velocity=0 time=0.027173875
EXTRACT: note_off channel=4 note=59 velocity=0 time=0
EXTRACT: note_off channel=9 note=42 velocity=0 time=0
EXTRACT: note_off channel=9 note=36 velocity=64 time=0
EXTRACT: note_off channel=9 note=36 velocity=64 time=0
EXTRACT: note_off channel=9 note=36 velocity=64 time=0
EXTRACT: note_off channel=9 note=36 velocity=64 time=0
EXTRACT: note_off channel=3 note=66 velocity=0 time=0.01811591666666667
EXTRACT: note_off channel=8 note=47 velocity=0 time=0.03623183333333334
EXTRACT: note_on channel=1 note=35 velocity=110 time=0.1086955
EXTRACT: note_on channel=1 note=47 velocity=110 time=0
EXTRACT: note_on channel=3 note=59 velocity=127 time=0
EXTRACT: note_on channel=8 note=59 velocity=127 time=0
EXTRACT: note_on channel=9 note=46 velocity=127 time=0
EXTRACT: note_on channel=9 note=76 velocity=80 time=0
EXTRACT: note_on channel=0 note=47 velocity=120 time=0
EXTRACT: note_off channel=9 note=76 velocity=0 time=0.027173875
EXTRACT: note_off channel=9 note=46 velocity=0 time=0.027173875
EXTRACT: note_off channel=8 note=59 velocity=0 time=0.03623183333333334
EXTRACT: note_off channel=3 note=59 velocity=0 time=0.009057958333333335
EXTRACT: note_on channel=4 note=59 velocity=105 time=0.009057958333333335
EXTRACT: note_on channel=4 note=54 velocity=105 time=0
EXTRACT: note_on channel=8 note=59 velocity=127 time=0
EXTRACT: note_off channel=1 note=47 velocity=0 time=0.05434775
EXTRACT: note_off channel=1 note=35 velocity=0 time=0
EXTRACT: note_off channel=4 note=54 velocity=0 time=0
EXTRACT: note_off channel=4 note=59 velocity=0 time=0
EXTRACT: note_off channel=0 note=47 velocity=0 time=0
EXTRACT: note_off channel=9 note=28 velocity=0 time=0.0407608125
EXTRACT: note_on channel=3 note=59 velocity=127 time=0.0135869375
EXTRACT: note_on channel=4 note=61 velocity=105 time=0
EXTRACT: note_on channel=4 note=56 velocity=105 time=0
EXTRACT: note_off channel=8 note=59 velocity=0 time=0
EXTRACT: note_on channel=8 note=49 velocity=127 time=0
EXTRACT: note_on channel=9 note=36 velocity=127 time=0
EXTRACT: note_on channel=9 note=36 velocity=127 time=0
EXTRACT: note_on channel=9 note=36 velocity=127 time=0
EXTRACT: note_on channel=9 note=36 velocity=127 time=0
EXTRACT: note_on channel=9 note=42 velocity=127 time=0
EXTRACT: note_off channel=4 note=56 velocity=0 time=0.05434775
EXTRACT: note_off channel=4 note=61 velocity=0 time=0
EXTRACT: note_off channel=9 note=42 velocity=0 time=0
EXTRACT: note_off channel=9 note=36 velocity=64 time=0
EXTRACT: note_off channel=9 note=36 velocity=64 time=0
EXTRACT: note_off channel=9 note=36 velocity=64 time=0
EXTRACT: note_off channel=9 note=36 velocity=64 time=0
EXTRACT: note_off channel=3 note=59 velocity=0 time=0.03623183333333334
EXTRACT: note_off channel=8 note=49 velocity=0 time=0.01811591666666667
EXTRACT: note_on channel=1 note=37 velocity=110 time=0.1086955
EXTRACT: note_on channel=1 note=49 velocity=110 time=0
EXTRACT: note_on channel=3 note=59 velocity=127 time=0
EXTRACT: note_on channel=4 note=61 velocity=105 time=0
EXTRACT: note_on channel=4 note=56 velocity=105 time=0
EXTRACT: note_on channel=8 note=61 velocity=127 time=0
EXTRACT: note_on channel=9 note=46 velocity=127 time=0
EXTRACT: note_on channel=0 note=49 velocity=120 time=0
EXTRACT: note_off channel=4 note=56 velocity=0 time=0.05434775
EXTRACT: note_off channel=4 note=61 velocity=0 time=0
EXTRACT: note_off channel=9 note=46 velocity=0 time=0
EXTRACT: note_off channel=3 note=59 velocity=0 time=0.0407608125
EXTRACT: note_off channel=8 note=61 velocity=0 time=0.0135869375
EXTRACT: note_on channel=9 note=36 velocity=127 time=0
EXTRACT: note_on channel=9 note=36 velocity=127 time=0
EXTRACT: note_on channel=9 note=36 velocity=127 time=0
EXTRACT: note_on channel=9 note=36 velocity=127 time=0
EXTRACT: note_off channel=1 note=49 velocity=0 time=0.05434775
EXTRACT: note_off channel=1 note=37 velocity=0 time=0
EXTRACT: note_off channel=9 note=36 velocity=64 time=0
EXTRACT: note_off channel=9 note=36 velocity=64 time=0
EXTRACT: note_off channel=9 note=36 velocity=64 time=0
EXTRACT: note_off channel=9 note=36 velocity=64 time=0
EXTRACT: note_off channel=0 note=49 velocity=0 time=0
EXTRACT: note_on channel=3 note=59 velocity=127 time=0.05434775
EXTRACT: note_on channel=4 note=61 velocity=105 time=0
EXTRACT: note_on channel=4 note=56 velocity=105 time=0
EXTRACT: note_on channel=8 note=49 velocity=127 time=0
EXTRACT: note_on channel=9 note=36 velocity=127 time=0
EXTRACT: note_on channel=9 note=36 velocity=127 time=0
EXTRACT: note_on channel=9 note=36 velocity=127 time=0
EXTRACT: note_on channel=9 note=36 velocity=127 time=0
EXTRACT: note_on channel=9 note=28 velocity=127 time=0
EXTRACT: note_on channel=9 note=42 velocity=127 time=0
EXTRACT: note_on channel=9 note=76 velocity=80 time=0
EXTRACT: note_off channel=9 note=76 velocity=0 time=0.027173875
EXTRACT: note_off channel=4 note=56 velocity=0 time=0.027173875
EXTRACT: note_off channel=4 note=61 velocity=0 time=0
EXTRACT: note_off channel=9 note=42 velocity=0 time=0
EXTRACT: note_off channel=9 note=36 velocity=64 time=0
EXTRACT: note_off channel=9 note=36 velocity=64 time=0
EXTRACT: note_off channel=9 note=36 velocity=64 time=0
EXTRACT: note_off channel=9 note=36 velocity=64 time=0
EXTRACT: note_off channel=3 note=59 velocity=0 time=0.04981877083333334
EXTRACT: note_off channel=8 note=49 velocity=0 time=0.004528979166666667
EXTRACT: note_on channel=1 note=37 velocity=110 time=0.1086955
EXTRACT: note_on channel=1 note=49 velocity=110 time=0
EXTRACT: note_on channel=3 note=59 velocity=127 time=0
EXTRACT: note_on channel=8 note=61 velocity=127 time=0
EXTRACT: note_on channel=9 note=36 velocity=127 time=0
EXTRACT: note_on channel=9 note=36 velocity=127 time=0
EXTRACT: note_on channel=9 note=36 velocity=127 time=0
EXTRACT: note_on channel=9 note=36 velocity=127 time=0
EXTRACT: note_on channel=9 note=46 velocity=127 time=0
EXTRACT: note_on channel=0 note=49 velocity=120 time=0
EXTRACT: note_off channel=9 note=46 velocity=0 time=0.05434775
EXTRACT: note_off channel=9 note=36 velocity=64 time=0
EXTRACT: note_off channel=9 note=36 velocity=64 time=0
EXTRACT: note_off channel=9 note=36 velocity=64 time=0
EXTRACT: note_off channel=9 note=36 velocity=64 time=0
EXTRACT: note_off channel=8 note=61 velocity=0 time=0.05434775
EXTRACT: note_off channel=3 note=59 velocity=0 time=0.004528979166666667
EXTRACT: note_off channel=1 note=49 velocity=0 time=0.04981877083333334
EXTRACT: note_off channel=1 note=37 velocity=0 time=0
EXTRACT: note_off channel=0 note=49 velocity=0 time=0
EXTRACT: note_off channel=9 note=28 velocity=0 time=0.0407608125
EXTRACT: note_on channel=3 note=58 velocity=127 time=0.0135869375
EXTRACT: note_on channel=4 note=66 velocity=105 time=0
EXTRACT: note_on channel=4 note=61 velocity=105 time=0
EXTRACT: note_on channel=8 note=54 velocity=127 time=0
EXTRACT: note_on channel=9 note=36 velocity=127 time=0
EXTRACT: note_on channel=9 note=36 velocity=127 time=0
EXTRACT: note_on channel=9 note=36 velocity=127 time=0
EXTRACT: note_on channel=9 note=36 velocity=127 time=0
EXTRACT: note_on channel=9 note=42 velocity=127 time=0
EXTRACT: note_off channel=4 note=61 velocity=0 time=0.05434775
EXTRACT: note_off channel=4 note=66 velocity=0 time=0
EXTRACT: note_off channel=9 note=42 velocity=0 time=0
EXTRACT: note_off channel=9 note=36 velocity=64 time=0
EXTRACT: note_off channel=9 note=36 velocity=64 time=0
EXTRACT: note_off channel=9 note=36 velocity=64 time=0
EXTRACT: note_off channel=9 note=36 velocity=64 time=0
EXTRACT: note_off channel=8 note=54 velocity=0 time=0.05434775
EXTRACT: note_on channel=1 note=42 velocity=110 time=0.1086955
EXTRACT: note_on channel=1 note=54 velocity=110 time=0
EXTRACT: note_on channel=4 note=66 velocity=105 time=0
EXTRACT: note_on channel=4 note=61 velocity=105 time=0
EXTRACT: note_on channel=8 note=66 velocity=127 time=0
EXTRACT: note_on channel=9 note=46 velocity=127 time=0
EXTRACT: note_on channel=0 note=54 velocity=120 time=0
EXTRACT: note_off channel=4 note=61 velocity=0 time=0.05434775
EXTRACT: note_off channel=4 note=66 velocity=0 time=0
EXTRACT: note_off channel=9 note=46 velocity=0 time=0
EXTRACT: note_off channel=3 note=58 velocity=0 time=0.022644895833333335
EXTRACT: note_on channel=3 note=66 velocity=127 time=0.03170285416666667
EXTRACT: note_off channel=8 note=66 velocity=0 time=0
EXTRACT: note_off channel=1 note=54 velocity=0 time=0.05434775
EXTRACT: note_off channel=1 note=42 velocity=0 time=0
EXTRACT: note_off channel=0 note=54 velocity=0 time=0
EXTRACT: note_off channel=3 note=66 velocity=0 time=0.05434775
EXTRACT: note_on channel=3 note=70 velocity=127 time=0
EXTRACT: note_on channel=4 note=66 velocity=105 time=0
EXTRACT: note_on channel=4 note=61 velocity=105 time=0
EXTRACT: note_on channel=8 note=54 velocity=127 time=0
EXTRACT: note_on channel=9 note=36 velocity=127 time=0
EXTRACT: note_on channel=9 note=36 velocity=127 time=0
EXTRACT: note_on channel=9 note=36 velocity=127 time=0
EXTRACT: note_on channel=9 note=36 velocity=127 time=0
EXTRACT: note_on channel=9 note=28 velocity=127 time=0
EXTRACT: note_on channel=9 note=42 velocity=127 time=0
EXTRACT: note_on channel=9 note=76 velocity=80 time=0
EXTRACT: note_off channel=9 note=76 velocity=0 time=0.027173875
EXTRACT: note_off channel=4 note=61 velocity=0 time=0.027173875
EXTRACT: note_off channel=4 note=66 velocity=0 time=0
EXTRACT: note_off channel=9 note=42 velocity=0 time=0
EXTRACT: note_off channel=9 note=36 velocity=64 time=0
EXTRACT: note_off channel=9 note=36 velocity=64 time=0
EXTRACT: note_off channel=9 note=36 velocity=64 time=0
EXTRACT: note_off channel=9 note=36 velocity=64 time=0
EXTRACT: note_off channel=8 note=54 velocity=0 time=0.05434775
EXTRACT: note_on channel=1 note=42 velocity=110 time=0.1086955
EXTRACT: note_on channel=1 note=54 velocity=110 time=0
EXTRACT: note_on channel=8 note=66 velocity=127 time=0
EXTRACT: note_on channel=9 note=46 velocity=127 time=0
EXTRACT: note_on channel=9 note=76 velocity=80 time=0
EXTRACT: note_on channel=0 note=54 velocity=120 time=0
EXTRACT: note_off channel=9 note=76 velocity=0 time=0.027173875
EXTRACT: note_off channel=3 note=70 velocity=0 time=0.01811591666666667
EXTRACT: note_off channel=9 note=46 velocity=0 time=0.009057958333333335
EXTRACT: note_on channel=4 note=66 velocity=105 time=0.05434775
EXTRACT: note_on channel=4 note=61 velocity=105 time=0
EXTRACT: note_off channel=8 note=66 velocity=0 time=0
EXTRACT: note_off channel=1 note=54 velocity=0 time=0.05434775
EXTRACT: note_off channel=1 note=42 velocity=0 time=0
EXTRACT: note_off channel=4 note=61 velocity=0 time=0
EXTRACT: note_off channel=4 note=66 velocity=0 time=0
EXTRACT: note_off channel=0 note=54 velocity=0 time=0
EXTRACT: note_off channel=9 note=28 velocity=0 time=0.0407608125
EXTRACT: note_on channel=3 note=70 velocity=127 time=0.0135869375
EXTRACT: note_on channel=4 note=66 velocity=105 time=0
EXTRACT: note_on channel=4 note=61 velocity=105 time=0
EXTRACT: note_on channel=8 note=54 velocity=127 time=0
EXTRACT: note_on channel=9 note=36 velocity=127 time=0
EXTRACT: note_on channel=9 note=36 velocity=127 time=0
EXTRACT: note_on channel=9 note=36 velocity=127 time=0
EXTRACT: note_on channel=9 note=36 velocity=127 time=0
EXTRACT: note_on channel=9 note=42 velocity=127 time=0
EXTRACT: note_off channel=4 note=61 velocity=0 time=0.05434775
EXTRACT: note_off channel=4 note=66 velocity=0 time=0
EXTRACT: note_off channel=9 note=42 velocity=0 time=0
EXTRACT: note_off channel=9 note=36 velocity=64 time=0
EXTRACT: note_off channel=9 note=36 velocity=64 time=0
EXTRACT: note_off channel=9 note=36 velocity=64 time=0
EXTRACT: note_off channel=9 note=36 velocity=64 time=0
EXTRACT: note_off channel=8 note=54 velocity=0 time=0.05434775
EXTRACT: note_on channel=1 note=42 velocity=110 time=0.1086955
EXTRACT: note_on channel=1 note=54 velocity=110 time=0
EXTRACT: note_on channel=4 note=66 velocity=105 time=0
EXTRACT: note_on channel=4 note=61 velocity=105 time=0
EXTRACT: note_on channel=8 note=66 velocity=127 time=0
EXTRACT: note_on channel=9 note=46 velocity=127 time=0
EXTRACT: note_on channel=0 note=54 velocity=120 time=0
EXTRACT: note_off channel=4 note=61 velocity=0 time=0.05434775
EXTRACT: note_off channel=4 note=66 velocity=0 time=0
EXTRACT: note_off channel=9 note=46 velocity=0 time=0
EXTRACT: note_off channel=3 note=70 velocity=0 time=0.022644895833333335
EXTRACT: note_off channel=8 note=66 velocity=0 time=0.03170285416666667
EXTRACT: note_on channel=9 note=36 velocity=127 time=0
EXTRACT: note_on channel=9 note=36 velocity=127 time=0
EXTRACT: note_on channel=9 note=36 velocity=127 time=0
EXTRACT: note_on channel=9 note=36 velocity=127 time=0
EXTRACT: note_off channel=1 note=54 velocity=0 time=0.05434775
EXTRACT: note_off channel=1 note=42 velocity=0 time=0
EXTRACT: note_off channel=9 note=36 velocity=64 time=0
EXTRACT: note_off channel=9 note=36 velocity=64 time=0
EXTRACT: note_off channel=9 note=36 velocity=64 time=0
EXTRACT: note_off channel=9 note=36 velocity=64 time=0
EXTRACT: note_off channel=0 note=54 velocity=0 time=0
EXTRACT: note_on channel=3 note=68 velocity=127 time=0.05434775
EXTRACT: note_on channel=4 note=66 velocity=105 time=0
EXTRACT: note_on channel=4 note=61 velocity=105 time=0
EXTRACT: note_on channel=8 note=54 velocity=127 time=0
EXTRACT: note_on channel=9 note=36 velocity=127 time=0
EXTRACT: note_on channel=9 note=36 velocity=127 time=0
EXTRACT: note_on channel=9 note=36 velocity=127 time=0
EXTRACT: note_on channel=9 note=36 velocity=127 time=0
EXTRACT: note_on channel=9 note=28 velocity=127 time=0
EXTRACT: note_on channel=9 note=42 velocity=127 time=0
EXTRACT: note_on channel=9 note=76 velocity=80 time=0
EXTRACT: note_off channel=9 note=76 velocity=0 time=0.027173875
EXTRACT: note_off channel=4 note=61 velocity=0 time=0.027173875
EXTRACT: note_off channel=4 note=66 velocity=0 time=0
EXTRACT: note_off channel=9 note=42 velocity=0 time=0
EXTRACT: note_off channel=9 note=36 velocity=64 time=0
EXTRACT: note_off channel=9 note=36 velocity=64 time=0
EXTRACT: note_off channel=9 note=36 velocity=64 time=0
EXTRACT: note_off channel=9 note=36 velocity=64 time=0
EXTRACT: note_off channel=8 note=54 velocity=0 time=0.05434775
EXTRACT: note_on channel=1 note=42 velocity=110 time=0.1086955
EXTRACT: note_on channel=1 note=54 velocity=110 time=0
EXTRACT: note_on channel=8 note=66 velocity=127 time=0
EXTRACT: note_on channel=9 note=36 velocity=127 time=0
EXTRACT: note_on channel=9 note=36 velocity=127 time=0
EXTRACT: note_on channel=9 note=36 velocity=127 time=0
EXTRACT: note_on channel=9 note=36 velocity=127 time=0
EXTRACT: note_on channel=9 note=46 velocity=127 time=0
EXTRACT: note_on channel=0 note=54 velocity=120 time=0
EXTRACT: note_off channel=9 note=46 velocity=0 time=0.05434775
EXTRACT: note_off channel=9 note=36 velocity=64 time=0
EXTRACT: note_off channel=9 note=36 velocity=64 time=0
EXTRACT: note_off channel=9 note=36 velocity=64 time=0
EXTRACT: note_off channel=9 note=36 velocity=64 time=0
EXTRACT: note_off channel=8 note=66 velocity=0 time=0.05434775
EXTRACT: note_off channel=3 note=68 velocity=0 time=0.01811591666666667
EXTRACT: note_off channel=1 note=54 velocity=0 time=0.03623183333333334
EXTRACT: note_off channel=1 note=42 velocity=0 time=0
EXTRACT: note_off channel=0 note=54 velocity=0 time=0
EXTRACT: note_off channel=9 note=28 velocity=0 time=0.0407608125
EXTRACT: note_on channel=3 note=66 velocity=127 time=0.0135869375
EXTRACT: note_on channel=4 note=66 velocity=105 time=0
EXTRACT: note_on channel=4 note=61 velocity=105 time=0
EXTRACT: note_on channel=8 note=54 velocity=127 time=0
EXTRACT: note_on channel=9 note=36 velocity=127 time=0
EXTRACT: note_on channel=9 note=36 velocity=127 time=0
EXTRACT: note_on channel=9 note=36 velocity=127 time=0
EXTRACT: note_on channel=9 note=36 velocity=127 time=0
EXTRACT: note_on channel=9 note=42 velocity=127 time=0
EXTRACT: note_off channel=4 note=61 velocity=0 time=0.05434775
EXTRACT: note_off channel=4 note=66 velocity=0 time=0
EXTRACT: note_off channel=9 note=42 velocity=0 time=0
EXTRACT: note_off channel=9 note=36 velocity=64 time=0
EXTRACT: note_off channel=9 note=36 velocity=64 time=0
EXTRACT: note_off channel=9 note=36 velocity=64 time=0
EXTRACT: note_off channel=9 note=36 velocity=64 time=0
EXTRACT: note_off channel=8 note=54 velocity=0 time=0.05434775
EXTRACT: note_on channel=1 note=42 velocity=110 time=0.1086955
EXTRACT: note_on channel=1 note=54 velocity=110 time=0
EXTRACT: note_on channel=4 note=66 velocity=105 time=0
EXTRACT: note_on channel=4 note=61 velocity=105 time=0
EXTRACT: note_on channel=8 note=66 velocity=127 time=0
EXTRACT: note_on channel=9 note=46 velocity=127 time=0
EXTRACT: note_on channel=0 note=54 velocity=120 time=0
EXTRACT: note_off channel=4 note=61 velocity=0 time=0.05434775
EXTRACT: note_off channel=4 note=66 velocity=0 time=0
EXTRACT: note_off channel=9 note=46 velocity=0 time=0
EXTRACT: note_off channel=3 note=66 velocity=0 time=0.04981877083333334
EXTRACT: note_off channel=8 note=66 velocity=0 time=0.004528979166666667
EXTRACT: note_off channel=1 note=54 velocity=0 time=0.05434775
EXTRACT: note_off channel=1 note=42 velocity=0 time=0
EXTRACT: note_off channel=0 note=54 velocity=0 time=0
EXTRACT: note_on channel=4 note=66 velocity=105 time=0.05434775
EXTRACT: note_on channel=4 note=61 velocity=105 time=0
EXTRACT: note_on channel=8 note=54 velocity=127 time=0
EXTRACT: note_on channel=9 note=36 velocity=127 time=0
EXTRACT: note_on channel=9 note=36 velocity=127 time=0
EXTRACT: note_on channel=9 note=36 velocity=127 time=0
EXTRACT: note_on channel=9 note=36 velocity=127 time=0
EXTRACT: note_on channel=9 note=28 velocity=127 time=0
EXTRACT: note_on channel=9 note=42 velocity=127 time=0
EXTRACT: note_on channel=9 note=76 velocity=80 time=0
EXTRACT: note_off channel=9 note=76 velocity=0 time=0.027173875
EXTRACT: note_off channel=4 note=61 velocity=0 time=0.027173875
EXTRACT: note_off channel=4 note=66 velocity=0 time=0
EXTRACT: note_off channel=9 note=42 velocity=0 time=0
EXTRACT: note_off channel=9 note=36 velocity=64 time=0
EXTRACT: note_off channel=9 note=36 velocity=64 time=0
EXTRACT: note_off channel=9 note=36 velocity=64 time=0
EXTRACT: note_off channel=9 note=36 velocity=64 time=0
EXTRACT: note_off channel=8 note=54 velocity=0 time=0.05434775
EXTRACT: note_on channel=1 note=42 velocity=110 time=0.1086955
EXTRACT: note_on channel=1 note=54 velocity=110 time=0
EXTRACT: note_on channel=3 note=61 velocity=127 time=0
EXTRACT: note_on channel=8 note=66 velocity=127 time=0
EXTRACT: note_on channel=9 note=46 velocity=127 time=0
EXTRACT: note_on channel=9 note=76 velocity=80 time=0
EXTRACT: note_on channel=0 note=54 velocity=120 time=0
EXTRACT: note_off channel=9 note=76 velocity=0 time=0.027173875
EXTRACT: note_off channel=9 note=46 velocity=0 time=0.027173875
EXTRACT: note_off channel=8 note=66 velocity=0 time=0.03623183333333334
EXTRACT: note_off channel=3 note=61 velocity=0 time=0.0135869375
EXTRACT: note_on channel=4 note=66 velocity=105 time=0.004528979166666667
EXTRACT: note_on channel=4 note=61 velocity=105 time=0
EXTRACT: note_on channel=8 note=66 velocity=127 time=0
EXTRACT: note_off channel=1 note=54 velocity=0 time=0.05434775
EXTRACT: note_off channel=1 note=42 velocity=0 time=0
EXTRACT: note_off channel=4 note=61 velocity=0 time=0
EXTRACT: note_off channel=4 note=66 velocity=0 time=0
EXTRACT: note_off channel=0 note=54 velocity=0 time=0
EXTRACT: note_off channel=9 note=28 velocity=0 time=0.0407608125
EXTRACT: note_on channel=3 note=61 velocity=127 time=0.0135869375
EXTRACT: note_on channel=4 note=61 velocity=105 time=0
EXTRACT: note_on channel=4 note=56 velocity=105 time=0
EXTRACT: note_off channel=8 note=66 velocity=0 time=0
EXTRACT: note_on channel=8 note=49 velocity=127 time=0
EXTRACT: note_on channel=9 note=36 velocity=127 time=0
EXTRACT: note_on channel=9 note=36 velocity=127 time=0
EXTRACT: note_on channel=9 note=36 velocity=127 time=0
EXTRACT: note_on channel=9 note=36 velocity=127 time=0
EXTRACT: note_on channel=9 note=42 velocity=127 time=0
EXTRACT: note_off channel=4 note=56 velocity=0 time=0.05434775
EXTRACT: note_off channel=4 note=61 velocity=0 time=0
EXTRACT: note_off channel=9 note=42 velocity=0 time=0
EXTRACT: note_off channel=9 note=36 velocity=64 time=0
EXTRACT: note_off channel=9 note=36 velocity=64 time=0
EXTRACT: note_off channel=9 note=36 velocity=64 time=0
EXTRACT: note_off channel=9 note=36 velocity=64 time=0
EXTRACT: note_off channel=8 note=49 velocity=0 time=0.05434775
EXTRACT: note_off channel=3 note=61 velocity=0 time=0.009057958333333335
EXTRACT: note_on channel=1 note=37 velocity=110 time=0.09963754166666668
EXTRACT: note_on channel=1 note=49 velocity=110 time=0
EXTRACT: note_on channel=3 note=61 velocity=127 time=0
EXTRACT: note_on channel=4 note=61 velocity=105 time=0
EXTRACT: note_on channel=4 note=56 velocity=105 time=0
EXTRACT: note_on channel=8 note=61 velocity=127 time=0
EXTRACT: note_on channel=9 note=46 velocity=127 time=0
EXTRACT: note_on channel=0 note=49 velocity=120 time=0
EXTRACT: note_off channel=4 note=56 velocity=0 time=0.05434775
EXTRACT: note_off channel=4 note=61 velocity=0 time=0
EXTRACT: note_off channel=9 note=46 velocity=0 time=0
EXTRACT: note_off channel=8 note=61 velocity=0 time=0.05434775
EXTRACT: note_on channel=9 note=36 velocity=127 time=0
EXTRACT: note_on channel=9 note=36 velocity=127 time=0
EXTRACT: note_on channel=9 note=36 velocity=127 time=0
EXTRACT: note_on channel=9 note=36 velocity=127 time=0
EXTRACT: note_off channel=3 note=61 velocity=0 time=0.03170285416666667
EXTRACT: note_off channel=1 note=49 velocity=0 time=0.022644895833333335
EXTRACT: note_off channel=1 note=37 velocity=0 time=0
EXTRACT: note_off channel=9 note=36 velocity=64 time=0
EXTRACT: note_off channel=9 note=36 velocity=64 time=0
EXTRACT: note_off channel=9 note=36 velocity=64 time=0
EXTRACT: note_off channel=9 note=36 velocity=64 time=0
EXTRACT: note_off channel=0 note=49 velocity=0 time=0
EXTRACT: note_on channel=3 note=68 velocity=127 time=0.05434775
EXTRACT: note_on channel=4 note=61 velocity=105 time=0
EXTRACT: note_on channel=4 note=56 velocity=105 time=0
EXTRACT: note_on channel=8 note=49 velocity=127 time=0
EXTRACT: note_on channel=9 note=36 velocity=127 time=0
EXTRACT: note_on channel=9 note=36 velocity=127 time=0
EXTRACT: note_on channel=9 note=36 velocity=127 time=0
EXTRACT: note_on channel=9 note=36 velocity=127 time=0
EXTRACT: note_on channel=9 note=28 velocity=127 time=0
EXTRACT: note_on channel=9 note=42 velocity=127 time=0
EXTRACT: note_on channel=9 note=76 velocity=80 time=0
EXTRACT: note_off channel=9 note=76 velocity=0 time=0.027173875
EXTRACT: note_off channel=4 note=56 velocity=0 time=0.027173875
EXTRACT: note_off channel=4 note=61 velocity=0 time=0
EXTRACT: note_off channel=9 note=42 velocity=0 time=0
EXTRACT: note_off channel=9 note=36 velocity=64 time=0
EXTRACT: note_off channel=9 note=36 velocity=64 time=0
EXTRACT: note_off channel=9 note=36 velocity=64 time=0
EXTRACT: note_off channel=9 note=36 velocity=64 time=0
EXTRACT: note_off channel=8 note=49 velocity=0 time=0.05434775
EXTRACT: note_off channel=3 note=68 velocity=0 time=0.01811591666666667
EXTRACT: note_on channel=1 note=37 velocity=110 time=0.09057958333333334
EXTRACT: note_on channel=1 note=49 velocity=110 time=0
EXTRACT: note_on channel=3 note=68 velocity=127 time=0
EXTRACT: note_on channel=8 note=61 velocity=127 time=0
EXTRACT: note_on channel=9 note=36 velocity=127 time=0
EXTRACT: note_on channel=9 note=36 velocity=127 time=0
EXTRACT: note_on channel=9 note=36 velocity=127 time=0
EXTRACT: note_on channel=9 note=36 velocity=127 time=0
EXTRACT: note_on channel=9 note=46 velocity=127 time=0
EXTRACT: note_on channel=0 note=49 velocity=120 time=0
EXTRACT: note_off channel=9 note=46 velocity=0 time=0.05434775
EXTRACT: note_off channel=9 note=36 velocity=64 time=0
EXTRACT: note_off channel=9 note=36 velocity=64 time=0
EXTRACT: note_off channel=9 note=36 velocity=64 time=0
EXTRACT: note_off channel=9 note=36 velocity=64 time=0
EXTRACT: note_off channel=8 note=61 velocity=0 time=0.05434775
EXTRACT: note_off channel=3 note=68 velocity=0 time=0.022644895833333335
EXTRACT: note_off channel=1 note=49 velocity=0 time=0.03170285416666667
EXTRACT: note_off channel=1 note=37 velocity=0 time=0
EXTRACT: note_off channel=0 note=49 velocity=0 time=0
EXTRACT: note_off channel=9 note=28 velocity=0 time=0.0407608125
EXTRACT: note_on channel=3 note=66 velocity=127 time=0.0135869375
EXTRACT: note_on channel=4 note=63 velocity=105 time=0
EXTRACT: note_on channel=4 note=58 velocity=105 time=0
EXTRACT: note_on channel=8 note=51 velocity=127 time=0
EXTRACT: note_on channel=9 note=36 velocity=127 time=0
EXTRACT: note_on channel=9 note=36 velocity=127 time=0
EXTRACT: note_on channel=9 note=36 velocity=127 time=0
EXTRACT: note_on channel=9 note=36 velocity=127 time=0
EXTRACT: note_on channel=9 note=42 velocity=127 time=0
EXTRACT: note_off channel=4 note=58 velocity=0 time=0.05434775
EXTRACT: note_off channel=4 note=63 velocity=0 time=0
EXTRACT: note_off channel=9 note=42 velocity=0 time=0
EXTRACT: note_off channel=9 note=36 velocity=64 time=0
EXTRACT: note_off channel=9 note=36 velocity=64 time=0
EXTRACT: note_off channel=9 note=36 velocity=64 time=0
EXTRACT: note_off channel=9 note=36 velocity=64 time=0
EXTRACT: note_off channel=8 note=51 velocity=0 time=0.05434775
EXTRACT: note_on channel=1 note=39 velocity=110 time=0.1086955
EXTRACT: note_on channel=1 note=51 velocity=110 time=0
EXTRACT: note_on channel=4 note=63 velocity=105 time=0
EXTRACT: note_on channel=4 note=58 velocity=105 time=0
EXTRACT: note_on channel=8 note=63 velocity=127 time=0
EXTRACT: note_on channel=9 note=46 velocity=127 time=0
EXTRACT: note_on channel=0 note=51 velocity=120 time=0
EXTRACT: note_off channel=4 note=58 velocity=0 time=0.05434775
EXTRACT: note_off channel=4 note=63 velocity=0 time=0
EXTRACT: note_off channel=9 note=46 velocity=0 time=0
EXTRACT: note_off channel=8 note=63 velocity=0 time=0.05434775
EXTRACT: note_off channel=3 note=66 velocity=0 time=0.027173875
EXTRACT: note_off channel=1 note=51 velocity=0 time=0.027173875
EXTRACT: note_off channel=1 note=39 velocity=0 time=0
EXTRACT: note_off channel=0 note=51 velocity=0 time=0
EXTRACT: note_on channel=4 note=63 velocity=105 time=0.05434775
EXTRACT: note_on channel=4 note=58 velocity=105 time=0
EXTRACT: note_on channel=8 note=51 velocity=127 time=0
EXTRACT: note_on channel=9 note=36 velocity=127 time=0
EXTRACT: note_on channel=9 note=36 velocity=127 time=0
EXTRACT: note_on channel=9 note=36 velocity=127 time=0
EXTRACT: note_on channel=9 note=36 velocity=127 time=0
EXTRACT: note_on channel=9 note=28 velocity=127 time=0
EXTRACT: note_on channel=9 note=42 velocity=127 time=0
EXTRACT: note_on channel=9 note=76 velocity=80 time=0
EXTRACT: note_off channel=9 note=76 velocity=0 time=0.027173875
EXTRACT: note_off channel=4 note=58 velocity=0 time=0.027173875
EXTRACT: note_off channel=4 note=63 velocity=0 time=0
EXTRACT: note_off channel=9 note=42 velocity=0 time=0
EXTRACT: note_off channel=9 note=36 velocity=64 time=0
EXTRACT: note_off channel=9 note=36 velocity=64 time=0
EXTRACT: note_off channel=9 note=36 velocity=64 time=0
EXTRACT: note_off channel=9 note=36 velocity=64 time=0
EXTRACT: note_off channel=8 note=51 velocity=0 time=0.05434775
EXTRACT: note_on channel=1 note=39 velocity=110 time=0.1086955
EXTRACT: note_on channel=1 note=51 velocity=110 time=0
EXTRACT: note_on channel=3 note=63 velocity=127 time=0
EXTRACT: note_on channel=8 note=63 velocity=127 time=0
EXTRACT: note_on channel=9 note=46 velocity=127 time=0
EXTRACT: note_on channel=9 note=76 velocity=80 time=0
EXTRACT: note_on channel=0 note=51 velocity=120 time=0
EXTRACT: note_off channel=9 note=76 velocity=0 time=0.027173875
EXTRACT: note_off channel=9 note=46 velocity=0 time=0.027173875
EXTRACT: note_off channel=8 note=63 velocity=0 time=0.03623183333333334
EXTRACT: note_on channel=4 note=63 velocity=105 time=0.01811591666666667
EXTRACT: note_on channel=4 note=58 velocity=105 time=0
EXTRACT: note_on channel=8 note=63 velocity=127 time=0
EXTRACT: note_off channel=3 note=63 velocity=0 time=0.004528979166666667
EXTRACT: note_off channel=1 note=51 velocity=0 time=0.04981877083333334
EXTRACT: note_off channel=1 note=39 velocity=0 time=0
EXTRACT: note_off channel=4 note=58 velocity=0 time=0
EXTRACT: note_off channel=4 note=63 velocity=0 time=0
EXTRACT: note_off channel=0 note=51 velocity=0 time=0
EXTRACT: note_off channel=9 note=28 velocity=0 time=0.0407608125
EXTRACT: note_on channel=3 note=63 velocity=127 time=0.0135869375
EXTRACT: note_on channel=4 note=63 velocity=105 time=0
EXTRACT: note_on channel=4 note=58 velocity=105 time=0
EXTRACT: note_off channel=8 note=63 velocity=0 time=0
EXTRACT: note_on channel=8 note=51 velocity=127 time=0
EXTRACT: note_on channel=9 note=36 velocity=127 time=0
EXTRACT: note_on channel=9 note=36 velocity=127 time=0
EXTRACT: note_on channel=9 note=36 velocity=127 time=0
EXTRACT: note_on channel=9 note=36 velocity=127 time=0
EXTRACT: note_on channel=9 note=42 velocity=127 time=0
EXTRACT: note_off channel=4 note=58 velocity=0 time=0.05434775
EXTRACT: note_off channel=4 note=63 velocity=0 time=0
EXTRACT: note_off channel=9 note=42 velocity=0 time=0
EXTRACT: note_off channel=9 note=36 velocity=64 time=0
EXTRACT: note_off channel=9 note=36 velocity=64 time=0
EXTRACT: note_off channel=9 note=36 velocity=64 time=0
EXTRACT: note_off channel=9 note=36 velocity=64 time=0
EXTRACT: note_off channel=8 note=51 velocity=0 time=0.05434775
EXTRACT: note_off channel=3 note=63 velocity=0 time=0.004528979166666667
EXTRACT: note_on channel=1 note=39 velocity=110 time=0.10416652083333333
EXTRACT: note_on channel=1 note=51 velocity=110 time=0
EXTRACT: note_on channel=3 note=63 velocity=127 time=0
EXTRACT: note_on channel=4 note=63 velocity=105 time=0
EXTRACT: note_on channel=4 note=58 velocity=105 time=0
EXTRACT: note_on channel=8 note=63 velocity=127 time=0
EXTRACT: note_on channel=9 note=46 velocity=127 time=0
EXTRACT: note_on channel=0 note=51 velocity=120 time=0
EXTRACT: note_off channel=4 note=58 velocity=0 time=0.05434775
EXTRACT: note_off channel=4 note=63 velocity=0 time=0
EXTRACT: note_off channel=9 note=46 velocity=0 time=0
EXTRACT: note_off channel=8 note=63 velocity=0 time=0.05434775
EXTRACT: note_on channel=9 note=36 velocity=127 time=0
EXTRACT: note_on channel=9 note=36 velocity=127 time=0
EXTRACT: note_on channel=9 note=36 velocity=127 time=0
EXTRACT: note_on channel=9 note=36 velocity=127 time=0
EXTRACT: note_off channel=3 note=63 velocity=0 time=0.0135869375
EXTRACT: note_off channel=1 note=51 velocity=0 time=0.0407608125
EXTRACT: note_off channel=1 note=39 velocity=0 time=0
EXTRACT: note_off channel=9 note=36 velocity=64 time=0
EXTRACT: note_off channel=9 note=36 velocity=64 time=0
EXTRACT: note_off channel=9 note=36 velocity=64 time=0
EXTRACT: note_off channel=9 note=36 velocity=64 time=0
EXTRACT: note_off channel=0 note=51 velocity=0 time=0
EXTRACT: note_on channel=3 note=66 velocity=127 time=0.05434775
EXTRACT: note_on channel=4 note=63 velocity=105 time=0
EXTRACT: note_on channel=4 note=58 velocity=105 time=0
EXTRACT: note_on channel=8 note=51 velocity=127 time=0
EXTRACT: note_on channel=9 note=36 velocity=127 time=0
EXTRACT: note_on channel=9 note=36 velocity=127 time=0
EXTRACT: note_on channel=9 note=36 velocity=127 time=0
EXTRACT: note_on channel=9 note=36 velocity=127 time=0
EXTRACT: note_on channel=9 note=28 velocity=127 time=0
EXTRACT: note_on channel=9 note=42 velocity=127 time=0
EXTRACT: note_on channel=9 note=76 velocity=80 time=0
EXTRACT: note_off channel=9 note=76 velocity=0 time=0.027173875
EXTRACT: note_off channel=4 note=58 velocity=0 time=0.027173875
EXTRACT: note_off channel=4 note=63 velocity=0 time=0
EXTRACT: note_off channel=9 note=42 velocity=0 time=0
EXTRACT: note_off channel=9 note=36 velocity=64 time=0
EXTRACT: note_off channel=9 note=36 velocity=64 time=0
EXTRACT: note_off channel=9 note=36 velocity=64 time=0
EXTRACT: note_off channel=9 note=36 velocity=64 time=0
EXTRACT: note_off channel=8 note=51 velocity=0 time=0.05434775
EXTRACT: note_off channel=3 note=66 velocity=0 time=0.03170285416666667
EXTRACT: note_on channel=1 note=39 velocity=110 time=0.07699264583333333
EXTRACT: note_on channel=1 note=51 velocity=110 time=0
EXTRACT: note_on channel=3 note=68 velocity=127 time=0
EXTRACT: note_on channel=8 note=63 velocity=127 time=0
EXTRACT: note_on channel=9 note=36 velocity=127 time=0
EXTRACT: note_on channel=9 note=36 velocity=127 time=0
EXTRACT: note_on channel=9 note=36 velocity=127 time=0
EXTRACT: note_on channel=9 note=36 velocity=127 time=0
EXTRACT: note_on channel=9 note=46 velocity=127 time=0
EXTRACT: note_on channel=0 note=51 velocity=120 time=0
EXTRACT: note_off channel=9 note=46 velocity=0 time=0.05434775
EXTRACT: note_off channel=9 note=36 velocity=64 time=0
EXTRACT: note_off channel=9 note=36 velocity=64 time=0
EXTRACT: note_off channel=9 note=36 velocity=64 time=0
EXTRACT: note_off channel=9 note=36 velocity=64 time=0
EXTRACT: note_off channel=8 note=63 velocity=0 time=0.05434775
EXTRACT: note_off channel=3 note=68 velocity=0 time=0.027173875
EXTRACT: note_off channel=1 note=51 velocity=0 time=0.027173875
EXTRACT: note_off channel=1 note=39 velocity=0 time=0
EXTRACT: note_off channel=0 note=51 velocity=0 time=0
EXTRACT: note_off channel=9 note=28 velocity=0 time=0.0407608125
EXTRACT: note_on channel=3 note=70 velocity=127 time=0.0135869375
EXTRACT: note_on channel=4 note=59 velocity=105 time=0
EXTRACT: note_on channel=4 note=54 velocity=105 time=0
EXTRACT: note_on channel=8 note=47 velocity=127 time=0
EXTRACT: note_on channel=9 note=36 velocity=127 time=0
EXTRACT: note_on channel=9 note=36 velocity=127 time=0
EXTRACT: note_on channel=9 note=36 velocity=127 time=0
EXTRACT: note_on channel=9 note=36 velocity=127 time=0
EXTRACT: note_on channel=9 note=42 velocity=127 time=0
EXTRACT: note_off channel=4 note=54 velocity=0 time=0.05434775
EXTRACT: note_off channel=4 note=59 velocity=0 time=0
EXTRACT: note_off channel=9 note=42 velocity=0 time=0
EXTRACT: note_off channel=9 note=36 velocity=64 time=0
EXTRACT: note_off channel=9 note=36 velocity=64 time=0
EXTRACT: note_off channel=9 note=36 velocity=64 time=0
EXTRACT: note_off channel=9 note=36 velocity=64 time=0
EXTRACT: note_off channel=8 note=47 velocity=0 time=0.05434775
EXTRACT: note_on channel=1 note=35 velocity=110 time=0.1086955
EXTRACT: note_on channel=1 note=47 velocity=110 time=0
EXTRACT: note_on channel=4 note=59 velocity=105 time=0
EXTRACT: note_on channel=4 note=54 velocity=105 time=0
EXTRACT: note_on channel=8 note=59 velocity=127 time=0
EXTRACT: note_on channel=9 note=46 velocity=127 time=0
EXTRACT: note_on channel=0 note=47 velocity=120 time=0
EXTRACT: note_off channel=3 note=70 velocity=0 time=0.0407608125
EXTRACT: note_off channel=4 note=54 velocity=0 time=0.0135869375
EXTRACT: note_off channel=4 note=59 velocity=0 time=0
EXTRACT: note_off channel=9 note=46 velocity=0 time=0
EXTRACT: note_on channel=3 note=66 velocity=127 time=0.05434775
EXTRACT: note_off channel=8 note=59 velocity=0 time=0
EXTRACT: note_off channel=1 note=47 velocity=0 time=0.05434775
EXTRACT: note_off channel=1 note=35 velocity=0 time=0
EXTRACT: note_off channel=0 note=47 velocity=0 time=0
EXTRACT: note_on channel=4 note=59 velocity=105 time=0.05434775
EXTRACT: note_on channel=4 note=54 velocity=105 time=0
EXTRACT: note_on channel=8 note=47 velocity=127 time=0
EXTRACT: note_on channel=9 note=36 velocity=127 time=0
EXTRACT: note_on channel=9 note=36 velocity=127 time=0
EXTRACT: note_on channel=9 note=36 velocity=127 time=0
EXTRACT: note_on channel=9 note=36 velocity=127 time=0
EXTRACT: note_on channel=9 note=28 velocity=127 time=0
EXTRACT: note_on channel=9 note=42 velocity=127 time=0
EXTRACT: note_on channel=9 note=76 velocity=80 time=0
EXTRACT: note_off channel=9 note=76 velocity=0 time=0.027173875
EXTRACT: note_off channel=4 note=54 velocity=0 time=0.027173875
EXTRACT: note_off channel=4 note=59 velocity=0 time=0
EXTRACT: note_off channel=9 note=42 velocity=0 time=0
EXTRACT: note_off channel=9 note=36 velocity=64 time=0
EXTRACT: note_off channel=9 note=36 velocity=64 time=0
EXTRACT: note_off channel=9 note=36 velocity=64 time=0
EXTRACT: note_off channel=9 note=36 velocity=64 time=0
EXTRACT: note_off channel=3 note=66 velocity=0 time=0.05434775
EXTRACT: note_off channel=8 note=47 velocity=0 time=0
EXTRACT: note_on channel=1 note=35 velocity=110 time=0.1086955
EXTRACT: note_on channel=1 note=47 velocity=110 time=0
EXTRACT: note_on channel=3 note=66 velocity=127 time=0
EXTRACT: note_on channel=8 note=59 velocity=127 time=0
EXTRACT: note_on channel=9 note=46 velocity=127 time=0
EXTRACT: note_on channel=9 note=76 velocity=80 time=0
EXTRACT: note_on channel=0 note=47 velocity=120 time=0
EXTRACT: note_off channel=9 note=76 velocity=0 time=0.027173875
EXTRACT: note_off channel=9 note=46 velocity=0 time=0.027173875
EXTRACT: note_off channel=8 note=59 velocity=0 time=0.03623183333333334
EXTRACT: note_on channel=4 note=59 velocity=105 time=0.01811591666666667
EXTRACT: note_on channel=4 note=54 velocity=105 time=0
EXTRACT: note_on channel=8 note=59 velocity=127 time=0
EXTRACT: note_off channel=3 note=66 velocity=0 time=0.022644895833333335
EXTRACT: note_off channel=1 note=47 velocity=0 time=0.03170285416666667
EXTRACT: note_off channel=1 note=35 velocity=0 time=0
EXTRACT: note_off channel=4 note=54 velocity=0 time=0
EXTRACT: note_off channel=4 note=59 velocity=0 time=0
EXTRACT: note_off channel=0 note=47 velocity=0 time=0
EXTRACT: note_off channel=9 note=28 velocity=0 time=0.0407608125
EXTRACT: note_on channel=3 note=70 velocity=127 time=0.0135869375
EXTRACT: note_on channel=4 note=61 velocity=105 time=0
EXTRACT: note_on channel=4 note=56 velocity=105 time=0
EXTRACT: note_off channel=8 note=59 velocity=0 time=0
EXTRACT: note_on channel=8 note=49 velocity=127 time=0
EXTRACT: note_on channel=9 note=36 velocity=127 time=0
EXTRACT: note_on channel=9 note=36 velocity=127 time=0
EXTRACT: note_on channel=9 note=36 velocity=127 time=0
EXTRACT: note_on channel=9 note=36 velocity=127 time=0
EXTRACT: note_on channel=9 note=42 velocity=127 time=0
EXTRACT: note_off channel=4 note=56 velocity=0 time=0.05434775
EXTRACT: note_off channel=4 note=61 velocity=0 time=0
EXTRACT: note_off channel=9 note=42 velocity=0 time=0
EXTRACT: note_off channel=9 note=36 velocity=64 time=0
EXTRACT: note_off channel=9 note=36 velocity=64 time=0
EXTRACT: note_off channel=9 note=36 velocity=64 time=0
EXTRACT: note_off channel=9 note=36 velocity=64 time=0
EXTRACT: note_off channel=3 note=70 velocity=0 time=0.03170285416666667
EXTRACT: note_off channel=8 note=49 velocity=0 time=0.022644895833333335
EXTRACT: note_on channel=1 note=37 velocity=110 time=0.1086955
EXTRACT: note_on channel=1 note=49 velocity=110 time=0
EXTRACT: note_on channel=3 note=70 velocity=127 time=0
EXTRACT: note_on channel=4 note=61 velocity=105 time=0
EXTRACT: note_on channel=4 note=56 velocity=105 time=0
EXTRACT: note_on channel=8 note=61 velocity=127 time=0
EXTRACT: note_on channel=9 note=46 velocity=127 time=0
EXTRACT: note_on channel=0 note=49 velocity=120 time=0
EXTRACT: note_off channel=4 note=56 velocity=0 time=0.05434775
EXTRACT: note_off channel=4 note=61 velocity=0 time=0
EXTRACT: note_off channel=9 note=46 velocity=0 time=0
EXTRACT: note_off channel=3 note=70 velocity=0 time=0.04981877083333334
EXTRACT: note_off channel=8 note=61 velocity=0 time=0.004528979166666667
EXTRACT: note_on channel=9 note=36 velocity=127 time=0
EXTRACT: note_on channel=9 note=36 velocity=127 time=0
EXTRACT: note_on channel=9 note=36 velocity=127 time=0
EXTRACT: note_on channel=9 note=36 velocity=127 time=0
EXTRACT: note_off channel=1 note=49 velocity=0 time=0.05434775
EXTRACT: note_off channel=1 note=37 velocity=0 time=0
EXTRACT: note_off channel=9 note=36 velocity=64 time=0
EXTRACT: note_off channel=9 note=36 velocity=64 time=0
EXTRACT: note_off channel=9 note=36 velocity=64 time=0
EXTRACT: note_off channel=9 note=36 velocity=64 time=0
EXTRACT: note_off channel=0 note=49 velocity=0 time=0
EXTRACT: note_on channel=3 note=68 velocity=127 time=0.05434775
EXTRACT: note_on channel=4 note=61 velocity=105 time=0
EXTRACT: note_on channel=4 note=56 velocity=105 time=0
EXTRACT: note_on channel=6 note=65 velocity=115 time=0
EXTRACT: note_on channel=8 note=49 velocity=127 time=0
EXTRACT: note_on channel=9 note=36 velocity=127 time=0
EXTRACT: note_on channel=9 note=36 velocity=127 time=0
EXTRACT: note_on channel=9 note=36 velocity=127 time=0
EXTRACT: note_on channel=9 note=36 velocity=127 time=0
EXTRACT: note_on channel=9 note=28 velocity=127 time=0
EXTRACT: note_on channel=9 note=42 velocity=127 time=0
EXTRACT: note_on channel=9 note=76 velocity=80 time=0
EXTRACT: note_off channel=9 note=76 velocity=0 time=0.027173875
EXTRACT: note_off channel=4 note=56 velocity=0 time=0.027173875
EXTRACT: note_off channel=4 note=61 velocity=0 time=0
EXTRACT: note_off channel=9 note=42 velocity=0 time=0
EXTRACT: note_off channel=9 note=36 velocity=64 time=0
EXTRACT: note_off channel=9 note=36 velocity=64 time=0
EXTRACT: note_off channel=9 note=36 velocity=64 time=0
EXTRACT: note_off channel=9 note=36 velocity=64 time=0
EXTRACT: note_off channel=3 note=68 velocity=0 time=0.04981877083333334
EXTRACT: note_off channel=8 note=49 velocity=0 time=0.004528979166666667
EXTRACT: note_on channel=1 note=37 velocity=110 time=0.1086955
EXTRACT: note_on channel=1 note=49 velocity=110 time=0
EXTRACT: note_on channel=3 note=68 velocity=127 time=0
EXTRACT: note_on channel=8 note=61 velocity=127 time=0
EXTRACT: note_on channel=9 note=36 velocity=127 time=0
EXTRACT: note_on channel=9 note=36 velocity=127 time=0
EXTRACT: note_on channel=9 note=36 velocity=127 time=0
EXTRACT: note_on channel=9 note=36 velocity=127 time=0
EXTRACT: note_on channel=9 note=46 velocity=127 time=0
EXTRACT: note_on channel=0 note=49 velocity=120 time=0
EXTRACT: note_off channel=9 note=46 velocity=0 time=0.05434775
EXTRACT: note_off channel=9 note=36 velocity=64 time=0
EXTRACT: note_off channel=9 note=36 velocity=64 time=0
EXTRACT: note_off channel=9 note=36 velocity=64 time=0
EXTRACT: note_off channel=9 note=36 velocity=64 time=0
EXTRACT: note_off channel=8 note=61 velocity=0 time=0.05434775
EXTRACT: note_off channel=3 note=68 velocity=0 time=0.004528979166666667
EXTRACT: note_off channel=1 note=49 velocity=0 time=0.04981877083333334
EXTRACT: note_off channel=1 note=37 velocity=0 time=0
EXTRACT: note_off channel=0 note=49 velocity=0 time=0
EXTRACT: note_off channel=9 note=28 velocity=0 time=0.0407608125
EXTRACT: note_on channel=3 note=66 velocity=127 time=0.0135869375
EXTRACT: note_on channel=4 note=66 velocity=105 time=0
EXTRACT: note_on channel=4 note=61 velocity=105 time=0
EXTRACT: note_on channel=8 note=54 velocity=127 time=0
EXTRACT: note_on channel=9 note=36 velocity=127 time=0
EXTRACT: note_on channel=9 note=36 velocity=127 time=0
EXTRACT: note_on channel=9 note=36 velocity=127 time=0
EXTRACT: note_on channel=9 note=49 velocity=85 time=0
EXTRACT: note_on channel=9 note=42 velocity=15 time=0
EXTRACT: note_on channel=9 note=37 velocity=70 time=0
EXTRACT: note_on channel=9 note=35 velocity=117 time=0
EXTRACT: note_off channel=9 note=35 velocity=0 time=0.027173875
EXTRACT: note_off channel=9 note=37 velocity=0 time=0
EXTRACT: note_off channel=9 note=42 velocity=0 time=0
EXTRACT: note_off channel=9 note=49 velocity=0 time=0
EXTRACT: note_off channel=4 note=61 velocity=0 time=0.027173875
EXTRACT: note_off channel=4 note=66 velocity=0 time=0
EXTRACT: note_off channel=9 note=36 velocity=64 time=0
EXTRACT: note_off channel=9 note=36 velocity=64 time=0
EXTRACT: note_off channel=9 note=36 velocity=64 time=0
EXTRACT: note_off channel=6 note=65 velocity=64 time=0.004528979166666667
EXTRACT: note_off channel=8 note=54 velocity=0 time=0.04981877083333334
EXTRACT: note_on channel=1 note=42 velocity=110 time=0.1086955
EXTRACT: note_on channel=1 note=54 velocity=110 time=0
EXTRACT: note_off channel=3 note=66 velocity=0 time=0
EXTRACT: note_on channel=4 note=66 velocity=105 time=0
EXTRACT: note_on channel=4 note=61 velocity=105 time=0
EXTRACT: note_on channel=8 note=66 velocity=127 time=0
EXTRACT: note_on channel=0 note=54 velocity=120 time=0
EXTRACT: note_off channel=4 note=61 velocity=0 time=0.05434775
EXTRACT: note_off channel=4 note=66 velocity=0 time=0
EXTRACT: note_off channel=8 note=66 velocity=0 time=0.05434775
EXTRACT: note_off channel=1 note=54 velocity=0 time=0.05434775
EXTRACT: note_off channel=1 note=42 velocity=0 time=0
EXTRACT: note_off channel=0 note=54 velocity=0 time=0
EXTRACT: note_on channel=4 note=66 velocity=105 time=0.05434775
EXTRACT: note_on channel=4 note=61 velocity=105 time=0
EXTRACT: note_on channel=8 note=54 velocity=127 time=0
EXTRACT: note_on channel=9 note=76 velocity=80 time=0
EXTRACT: note_off channel=9 note=76 velocity=0 time=0.027173875
EXTRACT: note_off channel=4 note=61 velocity=0 time=0.027173875
EXTRACT: note_off channel=4 note=66 velocity=0 time=0
EXTRACT: note_off channel=8 note=54 velocity=0 time=0.05434775
EXTRACT: note_on channel=1 note=42 velocity=110 time=0.1086955
EXTRACT: note_on channel=1 note=54 velocity=110 time=0
EXTRACT: note_on channel=8 note=66 velocity=127 time=0
EXTRACT: note_on channel=9 note=76 velocity=80 time=0
EXTRACT: note_on channel=13 note=70 velocity=115 time=0
EXTRACT: note_on channel=13 note=58 velocity=115 time=0
EXTRACT: note_on channel=14 note=94 velocity=115 time=0
EXTRACT: note_on channel=0 note=54 velocity=120 time=0
EXTRACT: note_off channel=9 note=76 velocity=0 time=0.027173875
EXTRACT: note_off channel=13 note=58 velocity=0 time=0.022644895833333335
EXTRACT: note_off channel=13 note=70 velocity=0 time=0
EXTRACT: note_off channel=14 note=94 velocity=0 time=0
EXTRACT: note_off channel=8 note=66 velocity=0 time=0.0407608125
EXTRACT: note_on channel=4 note=66 velocity=105 time=0.01811591666666667
EXTRACT: note_on channel=4 note=61 velocity=105 time=0
EXTRACT: note_on channel=8 note=66 velocity=127 time=0
EXTRACT: note_on channel=13 note=70 velocity=115 time=0
EXTRACT: note_on channel=13 note=58 velocity=115 time=0
EXTRACT: note_on channel=14 note=94 velocity=115 time=0
EXTRACT: note_off channel=13 note=58 velocity=0 time=0.04981877083333334
EXTRACT: note_off channel=13 note=70 velocity=0 time=0
EXTRACT: note_off channel=14 note=94 velocity=0 time=0
EXTRACT: note_off channel=1 note=54 velocity=0 time=0.004528979166666667
EXTRACT: note_off channel=1 note=42 velocity=0 time=0
EXTRACT: note_off channel=4 note=61 velocity=0 time=0
EXTRACT: note_off channel=4 note=66 velocity=0 time=0
EXTRACT: note_off channel=0 note=54 velocity=0 time=0
EXTRACT: note_on channel=4 note=66 velocity=105 time=0.05434775
EXTRACT: note_on channel=4 note=61 velocity=105 time=0
EXTRACT: note_off channel=8 note=66 velocity=0 time=0
EXTRACT: note_on channel=8 note=54 velocity=127 time=0
EXTRACT: note_on channel=13 note=70 velocity=115 time=0
EXTRACT: note_on channel=13 note=58 velocity=115 time=0
EXTRACT: note_on channel=14 note=94 velocity=115 time=0
EXTRACT: note_off channel=4 note=61 velocity=0 time=0.05434775
EXTRACT: note_off channel=4 note=66 velocity=0 time=0
EXTRACT: note_off channel=13 note=58 velocity=0 time=0.022644895833333335
EXTRACT: note_off channel=13 note=70 velocity=0 time=0
EXTRACT: note_off channel=14 note=94 velocity=0 time=0
EXTRACT: note_off channel=8 note=54 velocity=0 time=0.03170285416666667
EXTRACT: note_on channel=1 note=42 velocity=110 time=0.1086955
EXTRACT: note_on channel=1 note=54 velocity=110 time=0
EXTRACT: note_on channel=4 note=66 velocity=105 time=0
EXTRACT: note_on channel=4 note=61 velocity=105 time=0
EXTRACT: note_on channel=8 note=66 velocity=127 time=0
EXTRACT: note_on channel=13 note=70 velocity=115 time=0
EXTRACT: note_on channel=13 note=58 velocity=115 time=0
EXTRACT: note_on channel=14 note=94 velocity=115 time=0
EXTRACT: note_on channel=0 note=54 velocity=120 time=0
EXTRACT: note_off channel=4 note=61 velocity=0 time=0.05434775
EXTRACT: note_off channel=4 note=66 velocity=0 time=0
EXTRACT: note_off channel=8 note=66 velocity=0 time=0.05434775
EXTRACT: note_off channel=1 note=54 velocity=0 time=0.05434775
EXTRACT: note_off channel=1 note=42 velocity=0 time=0
EXTRACT: note_off channel=0 note=54 velocity=0 time=0
EXTRACT: note_off channel=13 note=58 velocity=0 time=0.027173875
EXTRACT: note_off channel=13 note=70 velocity=0 time=0
EXTRACT: note_on channel=4 note=66 velocity=105 time=0.027173875
EXTRACT: note_on channel=4 note=61 velocity=105 time=0
EXTRACT: note_on channel=8 note=54 velocity=127 time=0
EXTRACT: note_on channel=9 note=76 velocity=80 time=0
EXTRACT: note_on channel=9 note=49 velocity=50 time=0
EXTRACT: note_on channel=13 note=68 velocity=115 time=0
EXTRACT: note_on channel=13 note=56 velocity=115 time=0
EXTRACT: note_on channel=14 note=92 velocity=115 time=0
EXTRACT: note_off channel=9 note=49 velocity=0 time=0.027173875
EXTRACT: note_off channel=9 note=76 velocity=0 time=0
EXTRACT: note_off channel=14 note=94 velocity=0 time=0
EXTRACT: note_off channel=4 note=61 velocity=0 time=0.027173875
EXTRACT: note_off channel=4 note=66 velocity=0 time=0
EXTRACT: note_off channel=13 note=56 velocity=0 time=0.03623183333333334
EXTRACT: note_off channel=13 note=68 velocity=0 time=0
EXTRACT: note_off channel=14 note=92 velocity=0 time=0
EXTRACT: note_off channel=8 note=54 velocity=0 time=0.01811591666666667
EXTRACT: note_on channel=1 note=42 velocity=110 time=0.1086955
EXTRACT: note_on channel=1 note=54 velocity=110 time=0
EXTRACT: note_on channel=8 note=66 velocity=127 time=0
EXTRACT: note_on channel=13 note=68 velocity=115 time=0
EXTRACT: note_on channel=13 note=56 velocity=115 time=0
EXTRACT: note_on channel=14 note=92 velocity=115 time=0
EXTRACT: note_on channel=0 note=54 velocity=120 time=0
EXTRACT: note_off channel=13 note=56 velocity=0 time=0.081521625
EXTRACT: note_off channel=13 note=68 velocity=0 time=0
EXTRACT: note_off channel=8 note=66 velocity=0 time=0.027173875
EXTRACT: note_off channel=14 note=92 velocity=0 time=0.0135869375
EXTRACT: note_off channel=1 note=54 velocity=0 time=0.0407608125
EXTRACT: note_off channel=1 note=42 velocity=0 time=0
EXTRACT: note_off channel=0 note=54 velocity=0 time=0
EXTRACT: note_on channel=4 note=66 velocity=105 time=0.05434775
EXTRACT: note_on channel=4 note=61 velocity=105 time=0
EXTRACT: note_on channel=8 note=54 velocity=127 time=0
EXTRACT: note_on channel=9 note=36 velocity=127 time=0
EXTRACT: note_on channel=9 note=36 velocity=127 time=0
EXTRACT: note_on channel=9 note=36 velocity=127 time=0
EXTRACT: note_on channel=9 note=36 velocity=127 time=0
EXTRACT: note_on channel=9 note=42 velocity=127 time=0
EXTRACT: note_on channel=13 note=66 velocity=115 time=0
EXTRACT: note_on channel=13 note=54 velocity=115 time=0
EXTRACT: note_on channel=14 note=90 velocity=115 time=0
EXTRACT: note_off channel=4 note=61 velocity=0 time=0.05434775
EXTRACT: note_off channel=4 note=66 velocity=0 time=0
EXTRACT: note_off channel=9 note=42 velocity=0 time=0
EXTRACT: note_off channel=9 note=36 velocity=64 time=0
EXTRACT: note_off channel=9 note=36 velocity=64 time=0
EXTRACT: note_off channel=9 note=36 velocity=64 time=0
EXTRACT: note_off channel=9 note=36 velocity=64 time=0
EXTRACT: note_off channel=8 note=54 velocity=0 time=0.05434775
EXTRACT: note_on channel=1 note=42 velocity=110 time=0.1086955
EXTRACT: note_on channel=1 note=54 velocity=110 time=0
EXTRACT: note_on channel=4 note=66 velocity=105 time=0
EXTRACT: note_on channel=4 note=61 velocity=105 time=0
EXTRACT: note_on channel=8 note=66 velocity=127 time=0
EXTRACT: note_on channel=9 note=46 velocity=127 time=0
EXTRACT: note_on channel=0 note=54 velocity=120 time=0
EXTRACT: note_off channel=4 note=61 velocity=0 time=0.05434775
EXTRACT: note_off channel=4 note=66 velocity=0 time=0
EXTRACT: note_off channel=9 note=46 velocity=0 time=0
EXTRACT: note_off channel=13 note=54 velocity=0 time=0
EXTRACT: note_off channel=13 note=66 velocity=0 time=0
EXTRACT: note_off channel=14 note=90 velocity=0 time=0.01811591666666667
EXTRACT: note_off channel=8 note=66 velocity=0 time=0.03623183333333334
EXTRACT: note_on channel=13 note=61 velocity=115 time=0
EXTRACT: note_on channel=13 note=49 velocity=115 time=0
EXTRACT: note_on channel=14 note=85 velocity=115 time=0
EXTRACT: note_off channel=1 note=54 velocity=0 time=0.05434775
EXTRACT: note_off channel=1 note=42 velocity=0 time=0
EXTRACT: note_off channel=0 note=54 velocity=0 time=0
EXTRACT: note_on channel=4 note=66 velocity=105 time=0.05434775
EXTRACT: note_on channel=4 note=61 velocity=105 time=0
EXTRACT: note_on channel=8 note=54 velocity=127 time=0
EXTRACT: note_on channel=9 note=36 velocity=127 time=0
EXTRACT: note_on channel=9 note=36 velocity=127 time=0
EXTRACT: note_on channel=9 note=36 velocity=127 time=0
EXTRACT: note_on channel=9 note=36 velocity=127 time=0
EXTRACT: note_on channel=9 note=28 velocity=127 time=0
EXTRACT: note_on channel=9 note=42 velocity=127 time=0
EXTRACT: note_on channel=9 note=76 velocity=80 time=0
EXTRACT: note_off channel=13 note=49 velocity=0 time=0
EXTRACT: note_off channel=13 note=61 velocity=0 time=0
EXTRACT: note_off channel=14 note=85 velocity=0 time=0
EXTRACT: note_off channel=9 note=76 velocity=0 time=0.027173875
EXTRACT: note_off channel=4 note=61 velocity=0 time=0.027173875
EXTRACT: note_off channel=4 note=66 velocity=0 time=0
EXTRACT: note_off channel=9 note=42 velocity=0 time=0
EXTRACT: note_off channel=9 note=36 velocity=64 time=0
EXTRACT: note_off channel=9 note=36 velocity=64 time=0
EXTRACT: note_off channel=9 note=36 velocity=64 time=0
EXTRACT: note_off channel=9 note=36 velocity=64 time=0
EXTRACT: note_off channel=8 note=54 velocity=0 time=0.05434775
EXTRACT: note_on channel=1 note=42 velocity=110 time=0.1086955
EXTRACT: note_on channel=1 note=54 velocity=110 time=0
EXTRACT: note_on channel=8 note=66 velocity=127 time=0
EXTRACT: note_on channel=9 note=46 velocity=127 time=0
EXTRACT: note_on channel=9 note=76 velocity=80 time=0
EXTRACT: note_on channel=13 note=61 velocity=115 time=0
EXTRACT: note_on channel=13 note=49 velocity=115 time=0
EXTRACT: note_on channel=14 note=85 velocity=115 time=0
EXTRACT: note_on channel=0 note=54 velocity=120 time=0
EXTRACT: note_off channel=9 note=76 velocity=0 time=0.027173875
EXTRACT: note_off channel=9 note=46 velocity=0 time=0.027173875
EXTRACT: note_off channel=8 note=66 velocity=0 time=0.03623183333333334
EXTRACT: note_on channel=4 note=66 velocity=105 time=0.01811591666666667
EXTRACT: note_on channel=4 note=61 velocity=105 time=0
EXTRACT: note_on channel=8 note=66 velocity=127 time=0
EXTRACT: note_off channel=1 note=54 velocity=0 time=0.05434775
EXTRACT: note_off channel=1 note=42 velocity=0 time=0
EXTRACT: note_off channel=4 note=61 velocity=0 time=0
EXTRACT: note_off channel=4 note=66 velocity=0 time=0
EXTRACT: note_off channel=13 note=49 velocity=0 time=0
EXTRACT: note_off channel=13 note=61 velocity=0 time=0
EXTRACT: note_off channel=14 note=85 velocity=0 time=0
EXTRACT: note_off channel=0 note=54 velocity=0 time=0
EXTRACT: note_off channel=9 note=28 velocity=0 time=0.0407608125
EXTRACT: note_on channel=4 note=61 velocity=105 time=0.0135869375
EXTRACT: note_on channel=4 note=56 velocity=105 time=0
EXTRACT: note_off channel=8 note=66 velocity=0 time=0
EXTRACT: note_on channel=8 note=49 velocity=127 time=0
EXTRACT: note_on channel=9 note=36 velocity=127 time=0
EXTRACT: note_on channel=9 note=36 velocity=127 time=0
EXTRACT: note_on channel=9 note=36 velocity=127 time=0
EXTRACT: note_on channel=9 note=36 velocity=127 time=0
EXTRACT: note_on channel=9 note=42 velocity=127 time=0
EXTRACT: note_on channel=13 note=61 velocity=115 time=0
EXTRACT: note_on channel=13 note=49 velocity=115 time=0
EXTRACT: note_on channel=14 note=85 velocity=115 time=0
EXTRACT: note_off channel=4 note=56 velocity=0 time=0.05434775
EXTRACT: note_off channel=4 note=61 velocity=0 time=0
EXTRACT: note_off channel=9 note=42 velocity=0 time=0
EXTRACT: note_off channel=9 note=36 velocity=64 time=0
EXTRACT: note_off channel=9 note=36 velocity=64 time=0
EXTRACT: note_off channel=9 note=36 velocity=64 time=0
EXTRACT: note_off channel=9 note=36 velocity=64 time=0
EXTRACT: note_off channel=13 note=49 velocity=0 time=0.03170285416666667
EXTRACT: note_off channel=13 note=61 velocity=0 time=0
EXTRACT: note_off channel=14 note=85 velocity=0 time=0
EXTRACT: note_off channel=8 note=49 velocity=0 time=0.022644895833333335
EXTRACT: note_on channel=1 note=37 velocity=110 time=0.1086955
EXTRACT: note_on channel=1 note=49 velocity=110 time=0
EXTRACT: note_on channel=4 note=61 velocity=105 time=0
EXTRACT: note_on channel=4 note=56 velocity=105 time=0
EXTRACT: note_on channel=8 note=61 velocity=127 time=0
EXTRACT: note_on channel=9 note=46 velocity=127 time=0
EXTRACT: note_on channel=13 note=61 velocity=115 time=0
EXTRACT: note_on channel=13 note=49 velocity=115 time=0
EXTRACT: note_on channel=14 note=85 velocity=115 time=0
EXTRACT: note_on channel=0 note=49 velocity=120 time=0
EXTRACT: note_off channel=4 note=56 velocity=0 time=0.05434775
EXTRACT: note_off channel=4 note=61 velocity=0 time=0
EXTRACT: note_off channel=9 note=46 velocity=0 time=0
EXTRACT: note_off channel=13 note=49 velocity=0 time=0.022644895833333335
EXTRACT: note_off channel=13 note=61 velocity=0 time=0
EXTRACT: note_off channel=14 note=85 velocity=0 time=0
EXTRACT: note_off channel=8 note=61 velocity=0 time=0.03170285416666667
EXTRACT: note_on channel=9 note=36 velocity=127 time=0
EXTRACT: note_on channel=9 note=36 velocity=127 time=0
EXTRACT: note_on channel=9 note=36 velocity=127 time=0
EXTRACT: note_on channel=9 note=36 velocity=127 time=0
EXTRACT: note_off channel=1 note=49 velocity=0 time=0.05434775
EXTRACT: note_off channel=1 note=37 velocity=0 time=0
EXTRACT: note_off channel=9 note=36 velocity=64 time=0
EXTRACT: note_off channel=9 note=36 velocity=64 time=0
EXTRACT: note_off channel=9 note=36 velocity=64 time=0
EXTRACT: note_off channel=9 note=36 velocity=64 time=0
EXTRACT: note_off channel=0 note=49 velocity=0 time=0
EXTRACT: note_on channel=4 note=61 velocity=105 time=0.05434775
EXTRACT: note_on channel=4 note=56 velocity=105 time=0
EXTRACT: note_on channel=8 note=49 velocity=127 time=0
EXTRACT: note_on channel=9 note=36 velocity=127 time=0
EXTRACT: note_on channel=9 note=36 velocity=127 time=0
EXTRACT: note_on channel=9 note=36 velocity=127 time=0
EXTRACT: note_on channel=9 note=36 velocity=127 time=0
EXTRACT: note_on channel=9 note=28 velocity=127 time=0
EXTRACT: note_on channel=9 note=42 velocity=127 time=0
EXTRACT: note_on channel=9 note=76 velocity=80 time=0
EXTRACT: note_on channel=13 note=68 velocity=115 time=0
EXTRACT: note_on channel=13 note=56 velocity=115 time=0
EXTRACT: note_on channel=14 note=92 velocity=115 time=0
EXTRACT: note_off channel=9 note=76 velocity=0 time=0.027173875
EXTRACT: note_off channel=4 note=56 velocity=0 time=0.027173875
EXTRACT: note_off channel=4 note=61 velocity=0 time=0
EXTRACT: note_off channel=9 note=42 velocity=0 time=0
EXTRACT: note_off channel=9 note=36 velocity=64 time=0
EXTRACT: note_off channel=9 note=36 velocity=64 time=0
EXTRACT: note_off channel=9 note=36 velocity=64 time=0
EXTRACT: note_off channel=9 note=36 velocity=64 time=0
EXTRACT: note_off channel=13 note=56 velocity=0 time=0.0135869375
EXTRACT: note_off channel=13 note=68 velocity=0 time=0
EXTRACT: note_off channel=14 note=92 velocity=0 time=0
EXTRACT: note_off channel=8 note=49 velocity=0 time=0.0407608125
EXTRACT: note_on channel=1 note=37 velocity=110 time=0.1086955
EXTRACT: note_on channel=1 note=49 velocity=110 time=0
EXTRACT: note_on channel=8 note=61 velocity=127 time=0
EXTRACT: note_on channel=9 note=36 velocity=127 time=0
EXTRACT: note_on channel=9 note=36 velocity=127 time=0
EXTRACT: note_on channel=9 note=36 velocity=127 time=0
EXTRACT: note_on channel=9 note=36 velocity=127 time=0
EXTRACT: note_on channel=9 note=46 velocity=127 time=0
EXTRACT: note_on channel=13 note=68 velocity=115 time=0
EXTRACT: note_on channel=13 note=56 velocity=115 time=0
EXTRACT: note_on channel=14 note=92 velocity=115 time=0
EXTRACT: note_on channel=0 note=49 velocity=120 time=0
EXTRACT: note_off channel=9 note=46 velocity=0 time=0.05434775
EXTRACT: note_off channel=9 note=36 velocity=64 time=0
EXTRACT: note_off channel=9 note=36 velocity=64 time=0
EXTRACT: note_off channel=9 note=36 velocity=64 time=0
EXTRACT: note_off channel=9 note=36 velocity=64 time=0
EXTRACT: note_off channel=13 note=56 velocity=0 time=0.027173875
EXTRACT: note_off channel=13 note=68 velocity=0 time=0
EXTRACT: note_off channel=14 note=92 velocity=0 time=0.022644895833333335
EXTRACT: note_off channel=8 note=61 velocity=0 time=0.004528979166666667
EXTRACT: note_off channel=1 note=49 velocity=0 time=0.05434775
EXTRACT: note_off channel=1 note=37 velocity=0 time=0
EXTRACT: note_off channel=0 note=49 velocity=0 time=0
EXTRACT: note_off channel=9 note=28 velocity=0 time=0.0407608125
EXTRACT: note_on channel=4 note=63 velocity=105 time=0.0135869375
EXTRACT: note_on channel=4 note=58 velocity=105 time=0
EXTRACT: note_on channel=8 note=51 velocity=127 time=0
EXTRACT: note_on channel=9 note=36 velocity=127 time=0
EXTRACT: note_on channel=9 note=36 velocity=127 time=0
EXTRACT: note_on channel=9 note=36 velocity=127 time=0
EXTRACT: note_on channel=9 note=36 velocity=127 time=0
EXTRACT: note_on channel=9 note=42 velocity=127 time=0
EXTRACT: note_on channel=13 note=66 velocity=115 time=0
EXTRACT: note_on channel=13 note=54 velocity=115 time=0
EXTRACT: note_on channel=14 note=90 velocity=115 time=0
EXTRACT: note_off channel=4 note=58 velocity=0 time=0.05434775
EXTRACT: note_off channel=4 note=63 velocity=0 time=0
EXTRACT: note_off channel=9 note=42 velocity=0 time=0
EXTRACT: note_off channel=9 note=36 velocity=64 time=0
EXTRACT: note_off channel=9 note=36 velocity=64 time=0
EXTRACT: note_off channel=9 note=36 velocity=64 time=0
EXTRACT: note_off channel=9 note=36 velocity=64 time=0
EXTRACT: note_off channel=8 note=51 velocity=0 time=0.05434775
EXTRACT: note_on channel=1 note=39 velocity=110 time=0.1086955
EXTRACT: note_on channel=1 note=51 velocity=110 time=0
EXTRACT: note_on channel=4 note=63 velocity=105 time=0
EXTRACT: note_on channel=4 note=58 velocity=105 time=0
EXTRACT: note_on channel=8 note=63 velocity=127 time=0
EXTRACT: note_on channel=9 note=46 velocity=127 time=0
EXTRACT: note_on channel=0 note=51 velocity=120 time=0
EXTRACT: note_off channel=4 note=58 velocity=0 time=0.05434775
EXTRACT: note_off channel=4 note=63 velocity=0 time=0
EXTRACT: note_off channel=9 note=46 velocity=0 time=0
EXTRACT: note_off channel=13 note=54 velocity=0 time=0.0135869375
EXTRACT: note_off channel=13 note=66 velocity=0 time=0
EXTRACT: note_off channel=14 note=90 velocity=0 time=0
EXTRACT: note_off channel=8 note=63 velocity=0 time=0.0407608125
EXTRACT: note_on channel=13 note=63 velocity=115 time=0
EXTRACT: note_on channel=13 note=51 velocity=115 time=0
EXTRACT: note_on channel=14 note=87 velocity=115 time=0
EXTRACT: note_off channel=1 note=51 velocity=0 time=0.05434775
EXTRACT: note_off channel=1 note=39 velocity=0 time=0
EXTRACT: note_off channel=0 note=51 velocity=0 time=0
EXTRACT: note_on channel=4 note=63 velocity=105 time=0.05434775
EXTRACT: note_on channel=4 note=58 velocity=105 time=0
EXTRACT: note_on channel=8 note=51 velocity=127 time=0
EXTRACT: note_on channel=9 note=36 velocity=127 time=0
EXTRACT: note_on channel=9 note=36 velocity=127 time=0
EXTRACT: note_on channel=9 note=36 velocity=127 time=0
EXTRACT: note_on channel=9 note=36 velocity=127 time=0
EXTRACT: note_on channel=9 note=28 velocity=127 time=0
EXTRACT: note_on channel=9 note=42 velocity=127 time=0
EXTRACT: note_on channel=9 note=76 velocity=80 time=0
EXTRACT: note_off channel=13 note=51 velocity=0 time=0.009057958333333335
EXTRACT: note_off channel=13 note=63 velocity=0 time=0
EXTRACT: note_off channel=14 note=87 velocity=0 time=0
EXTRACT: note_off channel=9 note=76 velocity=0 time=0.01811591666666667
EXTRACT: note_off channel=4 note=58 velocity=0 time=0.027173875
EXTRACT: note_off channel=4 note=63 velocity=0 time=0
EXTRACT: note_off channel=9 note=42 velocity=0 time=0
EXTRACT: note_off channel=9 note=36 velocity=64 time=0
EXTRACT: note_off channel=9 note=36 velocity=64 time=0
EXTRACT: note_off channel=9 note=36 velocity=64 time=0
EXTRACT: note_off channel=9 note=36 velocity=64 time=0
EXTRACT: note_off channel=8 note=51 velocity=0 time=0.05434775
EXTRACT: note_on channel=1 note=39 velocity=110 time=0.1086955
EXTRACT: note_on channel=1 note=51 velocity=110 time=0
EXTRACT: note_on channel=8 note=63 velocity=127 time=0
EXTRACT: note_on channel=9 note=46 velocity=127 time=0
EXTRACT: note_on channel=9 note=76 velocity=80 time=0
EXTRACT: note_on channel=13 note=63 velocity=115 time=0
EXTRACT: note_on channel=13 note=51 velocity=115 time=0
EXTRACT: note_on channel=14 note=87 velocity=115 time=0
EXTRACT: note_on channel=0 note=51 velocity=120 time=0
EXTRACT: note_off channel=9 note=76 velocity=0 time=0.027173875
EXTRACT: note_off channel=13 note=51 velocity=0 time=0.022644895833333335
EXTRACT: note_off channel=13 note=63 velocity=0 time=0
EXTRACT: note_off channel=14 note=87 velocity=0 time=0
EXTRACT: note_off channel=9 note=46 velocity=0 time=0.004528979166666667
EXTRACT: note_off channel=8 note=63 velocity=0 time=0.03623183333333334
EXTRACT: note_on channel=4 note=63 velocity=105 time=0.01811591666666667
EXTRACT: note_on channel=4 note=58 velocity=105 time=0
EXTRACT: note_on channel=8 note=63 velocity=127 time=0
EXTRACT: note_on channel=13 note=63 velocity=115 time=0
EXTRACT: note_on channel=13 note=51 velocity=115 time=0
EXTRACT: note_on channel=14 note=87 velocity=115 time=0
EXTRACT: note_off channel=1 note=51 velocity=0 time=0.05434775
EXTRACT: note_off channel=1 note=39 velocity=0 time=0
EXTRACT: note_off channel=4 note=58 velocity=0 time=0
EXTRACT: note_off channel=4 note=63 velocity=0 time=0
EXTRACT: note_off channel=0 note=51 velocity=0 time=0
EXTRACT: note_off channel=13 note=51 velocity=0 time=0.004528979166666667
EXTRACT: note_off channel=13 note=63 velocity=0 time=0
EXTRACT: note_off channel=14 note=87 velocity=0 time=0
EXTRACT: note_off channel=9 note=28 velocity=0 time=0.03623183333333334
EXTRACT: note_on channel=4 note=63 velocity=105 time=0.0135869375
EXTRACT: note_on channel=4 note=58 velocity=105 time=0
EXTRACT: note_off channel=8 note=63 velocity=0 time=0
EXTRACT: note_on channel=8 note=51 velocity=127 time=0
EXTRACT: note_on channel=9 note=36 velocity=127 time=0
EXTRACT: note_on channel=9 note=36 velocity=127 time=0
EXTRACT: note_on channel=9 note=36 velocity=127 time=0
EXTRACT: note_on channel=9 note=36 velocity=127 time=0
EXTRACT: note_on channel=9 note=42 velocity=127 time=0
EXTRACT: note_on channel=13 note=63 velocity=115 time=0
EXTRACT: note_on channel=13 note=51 velocity=115 time=0
EXTRACT: note_on channel=14 note=87 velocity=115 time=0
EXTRACT: note_off channel=4 note=58 velocity=0 time=0.05434775
EXTRACT: note_off channel=4 note=63 velocity=0 time=0
EXTRACT: note_off channel=9 note=42 velocity=0 time=0
EXTRACT: note_off channel=9 note=36 velocity=64 time=0
EXTRACT: note_off channel=9 note=36 velocity=64 time=0
EXTRACT: note_off channel=9 note=36 velocity=64 time=0
EXTRACT: note_off channel=9 note=36 velocity=64 time=0
EXTRACT: note_off channel=13 note=51 velocity=0 time=0.022644895833333335
EXTRACT: note_off channel=13 note=63 velocity=0 time=0
EXTRACT: note_off channel=14 note=87 velocity=0 time=0
EXTRACT: note_off channel=8 note=51 velocity=0 time=0.03170285416666667
EXTRACT: note_on channel=1 note=39 velocity=110 time=0.1086955
EXTRACT: note_on channel=1 note=51 velocity=110 time=0
EXTRACT: note_on channel=4 note=63 velocity=105 time=0
EXTRACT: note_on channel=4 note=58 velocity=105 time=0
EXTRACT: note_on channel=8 note=63 velocity=127 time=0
EXTRACT: note_on channel=9 note=46 velocity=127 time=0
EXTRACT: note_on channel=13 note=63 velocity=115 time=0
EXTRACT: note_on channel=13 note=51 velocity=115 time=0
EXTRACT: note_on channel=14 note=87 velocity=115 time=0
EXTRACT: note_on channel=0 note=51 velocity=120 time=0
EXTRACT: note_off channel=4 note=58 velocity=0 time=0.05434775
EXTRACT: note_off channel=4 note=63 velocity=0 time=0
EXTRACT: note_off channel=9 note=46 velocity=0 time=0
EXTRACT: note_off channel=13 note=51 velocity=0 time=0.03170285416666667
EXTRACT: note_off channel=13 note=63 velocity=0 time=0
EXTRACT: note_off channel=14 note=87 velocity=0 time=0
EXTRACT: note_off channel=8 note=63 velocity=0 time=0.022644895833333335
EXTRACT: note_on channel=9 note=36 velocity=127 time=0
EXTRACT: note_on channel=9 note=36 velocity=127 time=0
EXTRACT: note_on channel=9 note=36 velocity=127 time=0
EXTRACT: note_on channel=9 note=36 velocity=127 time=0
EXTRACT: note_off channel=1 note=51 velocity=0 time=0.05434775
EXTRACT: note_off channel=1 note=39 velocity=0 time=0
EXTRACT: note_off channel=9 note=36 velocity=64 time=0
EXTRACT: note_off channel=9 note=36 velocity=64 time=0
EXTRACT: note_off channel=9 note=36 velocity=64 time=0
EXTRACT: note_off channel=9 note=36 velocity=64 time=0
EXTRACT: note_off channel=0 note=51 velocity=0 time=0
EXTRACT: note_on channel=4 note=63 velocity=105 time=0.05434775
EXTRACT: note_on channel=4 note=58 velocity=105 time=0
EXTRACT: note_on channel=8 note=51 velocity=127 time=0
EXTRACT: note_on channel=9 note=36 velocity=127 time=0
EXTRACT: note_on channel=9 note=36 velocity=127 time=0
EXTRACT: note_on channel=9 note=36 velocity=127 time=0
EXTRACT: note_on channel=9 note=36 velocity=127 time=0
EXTRACT: note_on channel=9 note=28 velocity=127 time=0
EXTRACT: note_on channel=9 note=42 velocity=127 time=0
EXTRACT: note_on channel=9 note=76 velocity=80 time=0
EXTRACT: note_on channel=13 note=66 velocity=115 time=0
EXTRACT: note_on channel=13 note=54 velocity=115 time=0
EXTRACT: note_on channel=14 note=90 velocity=115 time=0
EXTRACT: note_off channel=9 note=76 velocity=0 time=0.027173875
EXTRACT: note_off channel=4 note=58 velocity=0 time=0.027173875
EXTRACT: note_off channel=4 note=63 velocity=0 time=0
EXTRACT: note_off channel=9 note=42 velocity=0 time=0
EXTRACT: note_off channel=9 note=36 velocity=64 time=0
EXTRACT: note_off channel=9 note=36 velocity=64 time=0
EXTRACT: note_off channel=9 note=36 velocity=64 time=0
EXTRACT: note_off channel=9 note=36 velocity=64 time=0
EXTRACT: note_off channel=13 note=54 velocity=0 time=0.01811591666666667
EXTRACT: note_off channel=13 note=66 velocity=0 time=0
EXTRACT: note_off channel=14 note=90 velocity=0 time=0
EXTRACT: note_off channel=8 note=51 velocity=0 time=0.03623183333333334
EXTRACT: note_on channel=1 note=39 velocity=110 time=0.1086955
EXTRACT: note_on channel=1 note=51 velocity=110 time=0
EXTRACT: note_on channel=8 note=63 velocity=127 time=0
EXTRACT: note_on channel=9 note=36 velocity=127 time=0
EXTRACT: note_on channel=9 note=36 velocity=127 time=0
EXTRACT: note_on channel=9 note=36 velocity=127 time=0
EXTRACT: note_on channel=9 note=36 velocity=127 time=0
EXTRACT: note_on channel=9 note=46 velocity=127 time=0
EXTRACT: note_on channel=13 note=68 velocity=115 time=0
EXTRACT: note_on channel=13 note=56 velocity=115 time=0
EXTRACT: note_on channel=14 note=92 velocity=115 time=0
EXTRACT: note_on channel=0 note=51 velocity=120 time=0
EXTRACT: note_off channel=9 note=46 velocity=0 time=0.05434775
EXTRACT: note_off channel=9 note=36 velocity=64 time=0
EXTRACT: note_off channel=9 note=36 velocity=64 time=0
EXTRACT: note_off channel=9 note=36 velocity=64 time=0
EXTRACT: note_off channel=9 note=36 velocity=64 time=0
EXTRACT: note_off channel=13 note=56 velocity=0 time=0.01811591666666667
EXTRACT: note_off channel=13 note=68 velocity=0 time=0
EXTRACT: note_off channel=14 note=92 velocity=0 time=0
EXTRACT: note_off channel=8 note=63 velocity=0 time=0.03623183333333334
EXTRACT: note_off channel=1 note=51 velocity=0 time=0.05434775
EXTRACT: note_off channel=1 note=39 velocity=0 time=0
EXTRACT: note_off channel=0 note=51 velocity=0 time=0
EXTRACT: note_off channel=9 note=28 velocity=0 time=0.0407608125
EXTRACT: note_on channel=4 note=59 velocity=105 time=0.0135869375
EXTRACT: note_on channel=4 note=54 velocity=105 time=0
EXTRACT: note_on channel=8 note=47 velocity=127 time=0
EXTRACT: note_on channel=9 note=36 velocity=127 time=0
EXTRACT: note_on channel=9 note=36 velocity=127 time=0
EXTRACT: note_on channel=9 note=36 velocity=127 time=0
EXTRACT: note_on channel=9 note=36 velocity=127 time=0
EXTRACT: note_on channel=9 note=42 velocity=127 time=0
EXTRACT: note_on channel=13 note=70 velocity=115 time=0
EXTRACT: note_on channel=13 note=58 velocity=115 time=0
EXTRACT: note_on channel=14 note=94 velocity=115 time=0
EXTRACT: note_off channel=4 note=54 velocity=0 time=0.05434775
EXTRACT: note_off channel=4 note=59 velocity=0 time=0
EXTRACT: note_off channel=9 note=42 velocity=0 time=0
EXTRACT: note_off channel=9 note=36 velocity=64 time=0
EXTRACT: note_off channel=9 note=36 velocity=64 time=0
EXTRACT: note_off channel=9 note=36 velocity=64 time=0
EXTRACT: note_off channel=9 note=36 velocity=64 time=0
EXTRACT: note_off channel=8 note=47 velocity=0 time=0.05434775
EXTRACT: note_on channel=1 note=35 velocity=110 time=0.1086955
EXTRACT: note_on channel=1 note=47 velocity=110 time=0
EXTRACT: note_on channel=4 note=59 velocity=105 time=0
EXTRACT: note_on channel=4 note=54 velocity=105 time=0
EXTRACT: note_on channel=8 note=59 velocity=127 time=0
EXTRACT: note_on channel=9 note=46 velocity=127 time=0
EXTRACT: note_on channel=0 note=47 velocity=120 time=0
EXTRACT: note_off channel=4 note=54 velocity=0 time=0.05434775
EXTRACT: note_off channel=4 note=59 velocity=0 time=0
EXTRACT: note_off channel=9 note=46 velocity=0 time=0
EXTRACT: note_off channel=13 note=58 velocity=0 time=0.009057958333333335
EXTRACT: note_off channel=13 note=70 velocity=0 time=0
EXTRACT: note_off channel=14 note=94 velocity=0 time=0
EXTRACT: note_off channel=8 note=59 velocity=0 time=0.04528979166666667
EXTRACT: note_on channel=13 note=66 velocity=115 time=0
EXTRACT: note_on channel=13 note=54 velocity=115 time=0
EXTRACT: note_on channel=14 note=90 velocity=115 time=0
EXTRACT: note_off channel=1 note=47 velocity=0 time=0.05434775
EXTRACT: note_off channel=1 note=35 velocity=0 time=0
EXTRACT: note_off channel=0 note=47 velocity=0 time=0
EXTRACT: note_off channel=13 note=54 velocity=0 time=0.04528979166666667
EXTRACT: note_off channel=13 note=66 velocity=0 time=0
EXTRACT: note_off channel=14 note=90 velocity=0 time=0
EXTRACT: note_on channel=4 note=59 velocity=105 time=0.009057958333333335
EXTRACT: note_on channel=4 note=54 velocity=105 time=0
EXTRACT: note_on channel=8 note=47 velocity=127 time=0
EXTRACT: note_on channel=9 note=36 velocity=127 time=0
EXTRACT: note_on channel=9 note=36 velocity=127 time=0
EXTRACT: note_on channel=9 note=36 velocity=127 time=0
EXTRACT: note_on channel=9 note=36 velocity=127 time=0
EXTRACT: note_on channel=9 note=28 velocity=127 time=0
EXTRACT: note_on channel=9 note=42 velocity=127 time=0
EXTRACT: note_on channel=9 note=76 velocity=80 time=0
EXTRACT: note_off channel=9 note=76 velocity=0 time=0.027173875
EXTRACT: note_off channel=4 note=54 velocity=0 time=0.027173875
EXTRACT: note_off channel=4 note=59 velocity=0 time=0
EXTRACT: note_off channel=9 note=42 velocity=0 time=0
EXTRACT: note_off channel=9 note=36 velocity=64 time=0
EXTRACT: note_off channel=9 note=36 velocity=64 time=0
EXTRACT: note_off channel=9 note=36 velocity=64 time=0
EXTRACT: note_off channel=9 note=36 velocity=64 time=0
EXTRACT: note_off channel=8 note=47 velocity=0 time=0.05434775
EXTRACT: note_on channel=1 note=35 velocity=110 time=0.1086955
EXTRACT: note_on channel=1 note=47 velocity=110 time=0
EXTRACT: note_on channel=8 note=59 velocity=127 time=0
EXTRACT: note_on channel=9 note=46 velocity=127 time=0
EXTRACT: note_on channel=9 note=76 velocity=80 time=0
EXTRACT: note_on channel=13 note=59 velocity=115 time=0
EXTRACT: note_on channel=13 note=47 velocity=115 time=0
EXTRACT: note_on channel=14 note=83 velocity=115 time=0
EXTRACT: note_on channel=0 note=47 velocity=120 time=0
EXTRACT: note_off channel=9 note=76 velocity=0 time=0.027173875
EXTRACT: note_off channel=9 note=46 velocity=0 time=0.027173875
EXTRACT: note_off channel=13 note=47 velocity=0 time=0.03170285416666667
EXTRACT: note_off channel=13 note=59 velocity=0 time=0
EXTRACT: note_off channel=14 note=83 velocity=0 time=0
EXTRACT: note_off channel=8 note=59 velocity=0 time=0.004528979166666667
EXTRACT: note_on channel=4 note=59 velocity=105 time=0.01811591666666667
EXTRACT: note_on channel=4 note=54 velocity=105 time=0
EXTRACT: note_on channel=8 note=59 velocity=127 time=0
EXTRACT: note_off channel=1 note=47 velocity=0 time=0.05434775
EXTRACT: note_off channel=1 note=35 velocity=0 time=0
EXTRACT: note_off channel=4 note=54 velocity=0 time=0
EXTRACT: note_off channel=4 note=59 velocity=0 time=0
EXTRACT: note_off channel=0 note=47 velocity=0 time=0
EXTRACT: note_off channel=9 note=28 velocity=0 time=0.0407608125
EXTRACT: note_on channel=4 note=61 velocity=105 time=0.0135869375
EXTRACT: note_on channel=4 note=56 velocity=105 time=0
EXTRACT: note_off channel=8 note=59 velocity=0 time=0
EXTRACT: note_on channel=8 note=49 velocity=127 time=0
EXTRACT: note_on channel=9 note=36 velocity=127 time=0
EXTRACT: note_on channel=9 note=36 velocity=127 time=0
EXTRACT: note_on channel=9 note=36 velocity=127 time=0
EXTRACT: note_on channel=9 note=36 velocity=127 time=0
EXTRACT: note_on channel=9 note=42 velocity=127 time=0
EXTRACT: note_on channel=13 note=59 velocity=115 time=0
EXTRACT: note_on channel=13 note=47 velocity=115 time=0
EXTRACT: note_on channel=14 note=83 velocity=115 time=0
EXTRACT: note_off channel=4 note=56 velocity=0 time=0.05434775
EXTRACT: note_off channel=4 note=61 velocity=0 time=0
EXTRACT: note_off channel=9 note=42 velocity=0 time=0
EXTRACT: note_off channel=9 note=36 velocity=64 time=0
EXTRACT: note_off channel=9 note=36 velocity=64 time=0
EXTRACT: note_off channel=9 note=36 velocity=64 time=0
EXTRACT: note_off channel=9 note=36 velocity=64 time=0
EXTRACT: note_off channel=13 note=47 velocity=0 time=0.027173875
EXTRACT: note_off channel=13 note=59 velocity=0 time=0
EXTRACT: note_off channel=14 note=83 velocity=0 time=0
EXTRACT: note_off channel=8 note=49 velocity=0 time=0.027173875
EXTRACT: note_on channel=1 note=37 velocity=110 time=0.1086955
EXTRACT: note_on channel=1 note=49 velocity=110 time=0
EXTRACT: note_on channel=4 note=61 velocity=105 time=0
EXTRACT: note_on channel=4 note=56 velocity=105 time=0
EXTRACT: note_on channel=8 note=61 velocity=127 time=0
EXTRACT: note_on channel=9 note=46 velocity=127 time=0
EXTRACT: note_on channel=13 note=59 velocity=115 time=0
EXTRACT: note_on channel=13 note=47 velocity=115 time=0
EXTRACT: note_on channel=14 note=83 velocity=115 time=0
EXTRACT: note_on channel=0 note=49 velocity=120 time=0
EXTRACT: note_off channel=4 note=56 velocity=0 time=0.05434775
EXTRACT: note_off channel=4 note=61 velocity=0 time=0
EXTRACT: note_off channel=9 note=46 velocity=0 time=0
EXTRACT: note_off channel=13 note=47 velocity=0 time=0.01811591666666667
EXTRACT: note_off channel=13 note=59 velocity=0 time=0
EXTRACT: note_off channel=14 note=83 velocity=0 time=0
EXTRACT: note_off channel=8 note=61 velocity=0 time=0.03623183333333334
EXTRACT: note_on channel=9 note=36 velocity=127 time=0
EXTRACT: note_on channel=9 note=36 velocity=127 time=0
EXTRACT: note_on channel=9 note=36 velocity=127 time=0
EXTRACT: note_on channel=9 note=36 velocity=127 time=0
EXTRACT: note_off channel=1 note=49 velocity=0 time=0.05434775
EXTRACT: note_off channel=1 note=37 velocity=0 time=0
EXTRACT: note_off channel=9 note=36 velocity=64 time=0
EXTRACT: note_off channel=9 note=36 velocity=64 time=0
EXTRACT: note_off channel=9 note=36 velocity=64 time=0
EXTRACT: note_off channel=9 note=36 velocity=64 time=0
EXTRACT: note_off channel=0 note=49 velocity=0 time=0
EXTRACT: note_on channel=4 note=61 velocity=105 time=0.05434775
EXTRACT: note_on channel=4 note=56 velocity=105 time=0
EXTRACT: note_on channel=8 note=49 velocity=127 time=0
EXTRACT: note_on channel=9 note=36 velocity=127 time=0
EXTRACT: note_on channel=9 note=36 velocity=127 time=0
EXTRACT: note_on channel=9 note=36 velocity=127 time=0
EXTRACT: note_on channel=9 note=36 velocity=127 time=0
EXTRACT: note_on channel=9 note=28 velocity=127 time=0
EXTRACT: note_on channel=9 note=42 velocity=127 time=0
EXTRACT: note_on channel=9 note=76 velocity=80 time=0
EXTRACT: note_on channel=13 note=59 velocity=115 time=0
EXTRACT: note_on channel=13 note=47 velocity=115 time=0
EXTRACT: note_on channel=14 note=83 velocity=115 time=0
EXTRACT: note_off channel=9 note=76 velocity=0 time=0.027173875
EXTRACT: note_off channel=4 note=56 velocity=0 time=0.027173875
EXTRACT: note_off channel=4 note=61 velocity=0 time=0
EXTRACT: note_off channel=9 note=42 velocity=0 time=0
EXTRACT: note_off channel=9 note=36 velocity=64 time=0
EXTRACT: note_off channel=9 note=36 velocity=64 time=0
EXTRACT: note_off channel=9 note=36 velocity=64 time=0
EXTRACT: note_off channel=9 note=36 velocity=64 time=0
EXTRACT: note_off channel=13 note=47 velocity=0 time=0.01811591666666667
EXTRACT: note_off channel=13 note=59 velocity=0 time=0
EXTRACT: note_off channel=14 note=83 velocity=0 time=0
EXTRACT: note_off channel=8 note=49 velocity=0 time=0.03623183333333334
EXTRACT: note_on channel=1 note=37 velocity=110 time=0.1086955
EXTRACT: note_on channel=1 note=49 velocity=110 time=0
EXTRACT: note_on channel=8 note=61 velocity=127 time=0
EXTRACT: note_on channel=9 note=36 velocity=127 time=0
EXTRACT: note_on channel=9 note=36 velocity=127 time=0
EXTRACT: note_on channel=9 note=36 velocity=127 time=0
EXTRACT: note_on channel=9 note=36 velocity=127 time=0
EXTRACT: note_on channel=9 note=46 velocity=127 time=0
EXTRACT: note_on channel=13 note=59 velocity=115 time=0
EXTRACT: note_on channel=13 note=47 velocity=115 time=0
EXTRACT: note_on channel=14 note=83 velocity=115 time=0
EXTRACT: note_on channel=0 note=49 velocity=120 time=0
EXTRACT: note_off channel=9 note=46 velocity=0 time=0.05434775
EXTRACT: note_off channel=9 note=36 velocity=64 time=0
EXTRACT: note_off channel=9 note=36 velocity=64 time=0
EXTRACT: note_off channel=9 note=36 velocity=64 time=0
EXTRACT: note_off channel=9 note=36 velocity=64 time=0
EXTRACT: note_off channel=13 note=47 velocity=0 time=0.022644895833333335
EXTRACT: note_off channel=13 note=59 velocity=0 time=0
EXTRACT: note_off channel=14 note=83 velocity=0 time=0
EXTRACT: note_off channel=8 note=61 velocity=0 time=0.03170285416666667
EXTRACT: note_off channel=1 note=49 velocity=0 time=0.05434775
EXTRACT: note_off channel=1 note=37 velocity=0 time=0
EXTRACT: note_off channel=0 note=49 velocity=0 time=0
EXTRACT: note_off channel=9 note=28 velocity=0 time=0.0407608125
EXTRACT: note_on channel=4 note=66 velocity=105 time=0.0135869375
EXTRACT: note_on channel=4 note=61 velocity=105 time=0
EXTRACT: note_on channel=8 note=54 velocity=127 time=0
EXTRACT: note_on channel=9 note=36 velocity=127 time=0
EXTRACT: note_on channel=9 note=36 velocity=127 time=0
EXTRACT: note_on channel=9 note=36 velocity=127 time=0
EXTRACT: note_on channel=9 note=36 velocity=127 time=0
EXTRACT: note_on channel=9 note=42 velocity=127 time=0
EXTRACT: note_on channel=13 note=58 velocity=115 time=0
EXTRACT: note_on channel=13 note=46 velocity=115 time=0
EXTRACT: note_on channel=14 note=82 velocity=115 time=0
EXTRACT: note_off channel=4 note=61 velocity=0 time=0.05434775
EXTRACT: note_off channel=4 note=66 velocity=0 time=0
EXTRACT: note_off channel=9 note=42 velocity=0 time=0
EXTRACT: note_off channel=9 note=36 velocity=64 time=0
EXTRACT: note_off channel=9 note=36 velocity=64 time=0
EXTRACT: note_off channel=9 note=36 velocity=64 time=0
EXTRACT: note_off channel=9 note=36 velocity=64 time=0
EXTRACT: note_off channel=8 note=54 velocity=0 time=0.05434775
EXTRACT: note_on channel=1 note=42 velocity=110 time=0.1086955
EXTRACT: note_on channel=1 note=54 velocity=110 time=0
EXTRACT: note_on channel=4 note=66 velocity=105 time=0
EXTRACT: note_on channel=4 note=61 velocity=105 time=0
EXTRACT: note_on channel=8 note=66 velocity=127 time=0
EXTRACT: note_on channel=9 note=46 velocity=127 time=0
EXTRACT: note_on channel=0 note=54 velocity=120 time=0
EXTRACT: note_off channel=4 note=61 velocity=0 time=0.05434775
EXTRACT: note_off channel=4 note=66 velocity=0 time=0
EXTRACT: note_off channel=9 note=46 velocity=0 time=0
EXTRACT: note_off channel=13 note=46 velocity=0 time=0.03623183333333334
EXTRACT: note_off channel=13 note=58 velocity=0 time=0
EXTRACT: note_off channel=14 note=82 velocity=0 time=0
EXTRACT: note_off channel=8 note=66 velocity=0 time=0.01811591666666667
EXTRACT: note_on channel=13 note=66 velocity=115 time=0
EXTRACT: note_on channel=13 note=54 velocity=115 time=0
EXTRACT: note_on channel=14 note=90 velocity=115 time=0
EXTRACT: note_off channel=1 note=54 velocity=0 time=0.05434775
EXTRACT: note_off channel=1 note=42 velocity=0 time=0
EXTRACT: note_off channel=0 note=54 velocity=0 time=0
EXTRACT: note_on channel=4 note=66 velocity=105 time=0.05434775
EXTRACT: note_on channel=4 note=61 velocity=105 time=0
EXTRACT: note_on channel=8 note=54 velocity=127 time=0
EXTRACT: note_on channel=9 note=36 velocity=127 time=0
EXTRACT: note_on channel=9 note=36 velocity=127 time=0
EXTRACT: note_on channel=9 note=36 velocity=127 time=0
EXTRACT: note_on channel=9 note=36 velocity=127 time=0
EXTRACT: note_on channel=9 note=28 velocity=127 time=0
EXTRACT: note_on channel=9 note=42 velocity=127 time=0
EXTRACT: note_on channel=9 note=76 velocity=80 time=0
EXTRACT: note_off channel=13 note=54 velocity=0 time=0.0135869375
EXTRACT: note_off channel=13 note=66 velocity=0 time=0
EXTRACT: note_off channel=14 note=90 velocity=0 time=0
EXTRACT: note_off channel=9 note=76 velocity=0 time=0.0135869375
EXTRACT: note_off channel=4 note=61 velocity=0 time=0.027173875
EXTRACT: note_off channel=4 note=66 velocity=0 time=0
EXTRACT: note_off channel=9 note=42 velocity=0 time=0
EXTRACT: note_off channel=9 note=36 velocity=64 time=0
EXTRACT: note_off channel=9 note=36 velocity=64 time=0
EXTRACT: note_off channel=9 note=36 velocity=64 time=0
EXTRACT: note_off channel=9 note=36 velocity=64 time=0
EXTRACT: note_off channel=8 note=54 velocity=0 time=0.05434775
EXTRACT: note_on channel=1 note=42 velocity=110 time=0.1086955
EXTRACT: note_on channel=1 note=54 velocity=110 time=0
EXTRACT: note_on channel=8 note=66 velocity=127 time=0
EXTRACT: note_on channel=9 note=46 velocity=127 time=0
EXTRACT: note_on channel=9 note=76 velocity=80 time=0
EXTRACT: note_on channel=13 note=70 velocity=115 time=0
EXTRACT: note_on channel=13 note=58 velocity=115 time=0
EXTRACT: note_on channel=14 note=94 velocity=115 time=0
EXTRACT: note_on channel=0 note=54 velocity=120 time=0
EXTRACT: note_off channel=9 note=76 velocity=0 time=0.027173875
EXTRACT: note_off channel=13 note=58 velocity=0 time=0.022644895833333335
EXTRACT: note_off channel=13 note=70 velocity=0 time=0
EXTRACT: note_off channel=14 note=94 velocity=0 time=0
EXTRACT: note_off channel=9 note=46 velocity=0 time=0.004528979166666667
EXTRACT: note_off channel=8 note=66 velocity=0 time=0.03623183333333334
EXTRACT: note_on channel=4 note=66 velocity=105 time=0.01811591666666667
EXTRACT: note_on channel=4 note=61 velocity=105 time=0
EXTRACT: note_on channel=8 note=66 velocity=127 time=0
EXTRACT: note_on channel=13 note=70 velocity=115 time=0
EXTRACT: note_on channel=13 note=58 velocity=115 time=0
EXTRACT: note_on channel=14 note=94 velocity=115 time=0
EXTRACT: note_off channel=13 note=58 velocity=0 time=0.04981877083333334
EXTRACT: note_off channel=13 note=70 velocity=0 time=0
EXTRACT: note_off channel=14 note=94 velocity=0 time=0
EXTRACT: note_off channel=1 note=54 velocity=0 time=0.004528979166666667
EXTRACT: note_off channel=1 note=42 velocity=0 time=0
EXTRACT: note_off channel=4 note=61 velocity=0 time=0
EXTRACT: note_off channel=4 note=66 velocity=0 time=0
EXTRACT: note_off channel=0 note=54 velocity=0 time=0
EXTRACT: note_off channel=9 note=28 velocity=0 time=0.0407608125
EXTRACT: note_on channel=4 note=66 velocity=105 time=0.0135869375
EXTRACT: note_on channel=4 note=61 velocity=105 time=0
EXTRACT: note_off channel=8 note=66 velocity=0 time=0
EXTRACT: note_on channel=8 note=54 velocity=127 time=0
EXTRACT: note_on channel=9 note=36 velocity=127 time=0
EXTRACT: note_on channel=9 note=36 velocity=127 time=0
EXTRACT: note_on channel=9 note=36 velocity=127 time=0
EXTRACT: note_on channel=9 note=36 velocity=127 time=0
EXTRACT: note_on channel=9 note=42 velocity=127 time=0
EXTRACT: note_on channel=13 note=70 velocity=115 time=0
EXTRACT: note_on channel=13 note=58 velocity=115 time=0
EXTRACT: note_on channel=14 note=94 velocity=115 time=0
EXTRACT: note_off channel=4 note=61 velocity=0 time=0.05434775
EXTRACT: note_off channel=4 note=66 velocity=0 time=0
EXTRACT: note_off channel=9 note=42 velocity=0 time=0
EXTRACT: note_off channel=9 note=36 velocity=64 time=0
EXTRACT: note_off channel=9 note=36 velocity=64 time=0
EXTRACT: note_off channel=9 note=36 velocity=64 time=0
EXTRACT: note_off channel=9 note=36 velocity=64 time=0
EXTRACT: note_off channel=13 note=58 velocity=0 time=0.022644895833333335
EXTRACT: note_off channel=13 note=70 velocity=0 time=0
EXTRACT: note_off channel=14 note=94 velocity=0 time=0
EXTRACT: note_off channel=8 note=54 velocity=0 time=0.03170285416666667
EXTRACT: note_on channel=1 note=42 velocity=110 time=0.1086955
EXTRACT: note_on channel=1 note=54 velocity=110 time=0
EXTRACT: note_on channel=4 note=66 velocity=105 time=0
EXTRACT: note_on channel=4 note=61 velocity=105 time=0
EXTRACT: note_on channel=8 note=66 velocity=127 time=0
EXTRACT: note_on channel=9 note=46 velocity=127 time=0
EXTRACT: note_on channel=13 note=70 velocity=115 time=0
EXTRACT: note_on channel=13 note=58 velocity=115 time=0
EXTRACT: note_on channel=14 note=94 velocity=115 time=0
EXTRACT: note_on channel=0 note=54 velocity=120 time=0
EXTRACT: note_off channel=4 note=61 velocity=0 time=0.05434775
EXTRACT: note_off channel=4 note=66 velocity=0 time=0
EXTRACT: note_off channel=9 note=46 velocity=0 time=0
EXTRACT: note_off channel=8 note=66 velocity=0 time=0.05434775
EXTRACT: note_on channel=9 note=36 velocity=127 time=0
EXTRACT: note_on channel=9 note=36 velocity=127 time=0
EXTRACT: note_on channel=9 note=36 velocity=127 time=0
EXTRACT: note_on channel=9 note=36 velocity=127 time=0
EXTRACT: note_off channel=1 note=54 velocity=0 time=0.05434775
EXTRACT: note_off channel=1 note=42 velocity=0 time=0
EXTRACT: note_off channel=9 note=36 velocity=64 time=0
EXTRACT: note_off channel=9 note=36 velocity=64 time=0
EXTRACT: note_off channel=9 note=36 velocity=64 time=0
EXTRACT: note_off channel=9 note=36 velocity=64 time=0
EXTRACT: note_off channel=0 note=54 velocity=0 time=0
EXTRACT: note_on channel=4 note=66 velocity=105 time=0.05434775
EXTRACT: note_on channel=4 note=61 velocity=105 time=0
EXTRACT: note_on channel=8 note=54 velocity=127 time=0
EXTRACT: note_on channel=9 note=36 velocity=127 time=0
EXTRACT: note_on channel=9 note=36 velocity=127 time=0
EXTRACT: note_on channel=9 note=36 velocity=127 time=0
EXTRACT: note_on channel=9 note=36 velocity=127 time=0
EXTRACT: note_on channel=9 note=28 velocity=127 time=0
EXTRACT: note_on channel=9 note=42 velocity=127 time=0
EXTRACT: note_on channel=9 note=76 velocity=80 time=0
EXTRACT: note_on channel=13 note=68 velocity=115 time=0
EXTRACT: note_on channel=13 note=56 velocity=115 time=0
EXTRACT: note_on channel=14 note=92 velocity=115 time=0
EXTRACT: note_off channel=9 note=76 velocity=0 time=0.027173875
EXTRACT: note_off channel=13 note=58 velocity=0 time=0
EXTRACT: note_off channel=13 note=70 velocity=0 time=0
EXTRACT: note_off channel=14 note=94 velocity=0 time=0
EXTRACT: note_off channel=4 note=61 velocity=0 time=0.027173875
EXTRACT: note_off channel=4 note=66 velocity=0 time=0
EXTRACT: note_off channel=9 note=42 velocity=0 time=0
EXTRACT: note_off channel=9 note=36 velocity=64 time=0
EXTRACT: note_off channel=9 note=36 velocity=64 time=0
EXTRACT: note_off channel=9 note=36 velocity=64 time=0
EXTRACT: note_off channel=9 note=36 velocity=64 time=0
EXTRACT: note_off channel=13 note=68 velocity=0 time=0.03623183333333334
EXTRACT: note_off channel=13 note=56 velocity=0 time=0
EXTRACT: note_off channel=14 note=92 velocity=0 time=0
EXTRACT: note_off channel=8 note=54 velocity=0 time=0.01811591666666667
EXTRACT: note_on channel=1 note=42 velocity=110 time=0.1086955
EXTRACT: note_on channel=1 note=54 velocity=110 time=0
EXTRACT: note_on channel=8 note=66 velocity=127 time=0
EXTRACT: note_on channel=9 note=36 velocity=127 time=0
EXTRACT: note_on channel=9 note=36 velocity=127 time=0
EXTRACT: note_on channel=9 note=36 velocity=127 time=0
EXTRACT: note_on channel=9 note=36 velocity=127 time=0
EXTRACT: note_on channel=9 note=46 velocity=127 time=0
EXTRACT: note_on channel=13 note=68 velocity=115 time=0
EXTRACT: note_on channel=13 note=56 velocity=115 time=0
EXTRACT: note_on channel=14 note=92 velocity=115 time=0
EXTRACT: note_on channel=0 note=54 velocity=120 time=0
EXTRACT: note_off channel=9 note=46 velocity=0 time=0.05434775
EXTRACT: note_off channel=9 note=36 velocity=64 time=0
EXTRACT: note_off channel=9 note=36 velocity=64 time=0
EXTRACT: note_off channel=9 note=36 velocity=64 time=0
EXTRACT: note_off channel=9 note=36 velocity=64 time=0
EXTRACT: note_off channel=8 note=66 velocity=0 time=0.05434775
EXTRACT: note_off channel=13 note=56 velocity=0 time=0.0135869375
EXTRACT: note_off channel=13 note=68 velocity=0 time=0
EXTRACT: note_off channel=14 note=92 velocity=0 time=0
EXTRACT: note_off channel=1 note=54 velocity=0 time=0.0407608125
EXTRACT: note_off channel=1 note=42 velocity=0 time=0
EXTRACT: note_off channel=0 note=54 velocity=0 time=0
EXTRACT: note_off channel=9 note=28 velocity=0 time=0.0407608125
EXTRACT: note_on channel=4 note=66 velocity=105 time=0.0135869375
EXTRACT: note_on channel=4 note=61 velocity=105 time=0
EXTRACT: note_on channel=8 note=54 velocity=127 time=0
EXTRACT: note_on channel=9 note=36 velocity=127 time=0
EXTRACT: note_on channel=9 note=36 velocity=127 time=0
EXTRACT: note_on channel=9 note=36 velocity=127 time=0
EXTRACT: note_on channel=9 note=36 velocity=127 time=0
EXTRACT: note_on channel=9 note=42 velocity=127 time=0
EXTRACT: note_on channel=13 note=66 velocity=115 time=0
EXTRACT: note_on channel=13 note=54 velocity=115 time=0
EXTRACT: note_on channel=14 note=90 velocity=115 time=0
EXTRACT: note_off channel=4 note=61 velocity=0 time=0.05434775
EXTRACT: note_off channel=4 note=66 velocity=0 time=0
EXTRACT: note_off channel=9 note=42 velocity=0 time=0
EXTRACT: note_off channel=9 note=36 velocity=64 time=0
EXTRACT: note_off channel=9 note=36 velocity=64 time=0
EXTRACT: note_off channel=9 note=36 velocity=64 time=0
EXTRACT: note_off channel=9 note=36 velocity=64 time=0
EXTRACT: note_off channel=8 note=54 velocity=0 time=0.05434775
EXTRACT: note_on channel=1 note=42 velocity=110 time=0.1086955
EXTRACT: note_on channel=1 note=54 velocity=110 time=0
EXTRACT: note_on channel=4 note=66 velocity=105 time=0
EXTRACT: note_on channel=4 note=61 velocity=105 time=0
EXTRACT: note_on channel=8 note=66 velocity=127 time=0
EXTRACT: note_on channel=9 note=46 velocity=127 time=0
EXTRACT: note_on channel=0 note=54 velocity=120 time=0
EXTRACT: note_off channel=4 note=61 velocity=0 time=0.05434775
EXTRACT: note_off channel=4 note=66 velocity=0 time=0
EXTRACT: note_off channel=9 note=46 velocity=0 time=0
EXTRACT: note_off channel=13 note=54 velocity=0 time=0
EXTRACT: note_off channel=13 note=66 velocity=0 time=0
EXTRACT: note_off channel=14 note=90 velocity=0 time=0.01811591666666667
EXTRACT: note_off channel=8 note=66 velocity=0 time=0.03623183333333334
EXTRACT: note_on channel=13 note=61 velocity=115 time=0
EXTRACT: note_on channel=13 note=49 velocity=115 time=0
EXTRACT: note_on channel=14 note=85 velocity=115 time=0
EXTRACT: note_off channel=1 note=54 velocity=0 time=0.05434775
EXTRACT: note_off channel=1 note=42 velocity=0 time=0
EXTRACT: note_off channel=0 note=54 velocity=0 time=0
EXTRACT: note_on channel=4 note=66 velocity=105 time=0.05434775
EXTRACT: note_on channel=4 note=61 velocity=105 time=0
EXTRACT: note_on channel=8 note=54 velocity=127 time=0
EXTRACT: note_on channel=9 note=36 velocity=127 time=0
EXTRACT: note_on channel=9 note=36 velocity=127 time=0
EXTRACT: note_on channel=9 note=36 velocity=127 time=0
EXTRACT: note_on channel=9 note=36 velocity=127 time=0
EXTRACT: note_on channel=9 note=28 velocity=127 time=0
EXTRACT: note_on channel=9 note=42 velocity=127 time=0
EXTRACT: note_on channel=9 note=76 velocity=80 time=0
EXTRACT: note_off channel=13 note=49 velocity=0 time=0
EXTRACT: note_off channel=13 note=61 velocity=0 time=0
EXTRACT: note_off channel=14 note=85 velocity=0 time=0
EXTRACT: note_off channel=9 note=76 velocity=0 time=0.027173875
EXTRACT: note_off channel=4 note=61 velocity=0 time=0.027173875
EXTRACT: note_off channel=4 note=66 velocity=0 time=0
EXTRACT: note_off channel=9 note=42 velocity=0 time=0
EXTRACT: note_off channel=9 note=36 velocity=64 time=0
EXTRACT: note_off channel=9 note=36 velocity=64 time=0
EXTRACT: note_off channel=9 note=36 velocity=64 time=0
EXTRACT: note_off channel=9 note=36 velocity=64 time=0
EXTRACT: note_off channel=8 note=54 velocity=0 time=0.05434775
EXTRACT: note_on channel=1 note=42 velocity=110 time=0.1086955
EXTRACT: note_on channel=1 note=54 velocity=110 time=0
EXTRACT: note_on channel=8 note=66 velocity=127 time=0
EXTRACT: note_on channel=9 note=46 velocity=127 time=0
EXTRACT: note_on channel=9 note=76 velocity=80 time=0
EXTRACT: note_on channel=13 note=61 velocity=115 time=0
EXTRACT: note_on channel=13 note=49 velocity=115 time=0
EXTRACT: note_on channel=14 note=85 velocity=115 time=0
EXTRACT: note_on channel=0 note=54 velocity=120 time=0
EXTRACT: note_off channel=9 note=76 velocity=0 time=0.027173875
EXTRACT: note_off channel=9 note=46 velocity=0 time=0.027173875
EXTRACT: note_off channel=8 note=66 velocity=0 time=0.03623183333333334
EXTRACT: note_on channel=4 note=66 velocity=105 time=0.01811591666666667
EXTRACT: note_on channel=4 note=61 velocity=105 time=0
EXTRACT: note_on channel=8 note=66 velocity=127 time=0
EXTRACT: note_off channel=1 note=54 velocity=0 time=0.05434775
EXTRACT: note_off channel=1 note=42 velocity=0 time=0
EXTRACT: note_off channel=4 note=61 velocity=0 time=0
EXTRACT: note_off channel=4 note=66 velocity=0 time=0
EXTRACT: note_off channel=13 note=49 velocity=0 time=0
EXTRACT: note_off channel=13 note=61 velocity=0 time=0
EXTRACT: note_off channel=14 note=85 velocity=0 time=0
EXTRACT: note_off channel=0 note=54 velocity=0 time=0
EXTRACT: note_off channel=9 note=28 velocity=0 time=0.0407608125
EXTRACT: note_on channel=4 note=61 velocity=105 time=0.0135869375
EXTRACT: note_on channel=4 note=56 velocity=105 time=0
EXTRACT: note_off channel=8 note=66 velocity=0 time=0
EXTRACT: note_on channel=8 note=49 velocity=127 time=0
EXTRACT: note_on channel=9 note=36 velocity=127 time=0
EXTRACT: note_on channel=9 note=36 velocity=127 time=0
EXTRACT: note_on channel=9 note=36 velocity=127 time=0
EXTRACT: note_on channel=9 note=36 velocity=127 time=0
EXTRACT: note_on channel=9 note=42 velocity=127 time=0
EXTRACT: note_on channel=13 note=61 velocity=115 time=0
EXTRACT: note_on channel=13 note=49 velocity=115 time=0
EXTRACT: note_on channel=14 note=85 velocity=115 time=0
EXTRACT: note_off channel=4 note=56 velocity=0 time=0.05434775
EXTRACT: note_off channel=4 note=61 velocity=0 time=0
EXTRACT: note_off channel=9 note=42 velocity=0 time=0
EXTRACT: note_off channel=9 note=36 velocity=64 time=0
EXTRACT: note_off channel=9 note=36 velocity=64 time=0
EXTRACT: note_off channel=9 note=36 velocity=64 time=0
EXTRACT: note_off channel=9 note=36 velocity=64 time=0
EXTRACT: note_off channel=13 note=49 velocity=0 time=0.03170285416666667
EXTRACT: note_off channel=13 note=61 velocity=0 time=0
EXTRACT: note_off channel=14 note=85 velocity=0 time=0
EXTRACT: note_off channel=8 note=49 velocity=0 time=0.022644895833333335
EXTRACT: note_on channel=1 note=37 velocity=110 time=0.1086955
EXTRACT: note_on channel=1 note=49 velocity=110 time=0
EXTRACT: note_on channel=4 note=61 velocity=105 time=0
EXTRACT: note_on channel=4 note=56 velocity=105 time=0
EXTRACT: note_on channel=8 note=61 velocity=127 time=0
EXTRACT: note_on channel=9 note=46 velocity=127 time=0
EXTRACT: note_on channel=13 note=61 velocity=115 time=0
EXTRACT: note_on channel=13 note=49 velocity=115 time=0
EXTRACT: note_on channel=14 note=85 velocity=115 time=0
EXTRACT: note_on channel=0 note=49 velocity=120 time=0
EXTRACT: note_off channel=4 note=56 velocity=0 time=0.05434775
EXTRACT: note_off channel=4 note=61 velocity=0 time=0
EXTRACT: note_off channel=9 note=46 velocity=0 time=0
EXTRACT: note_off channel=13 note=49 velocity=0 time=0.022644895833333335
EXTRACT: note_off channel=13 note=61 velocity=0 time=0
EXTRACT: note_off channel=14 note=85 velocity=0 time=0
EXTRACT: note_off channel=8 note=61 velocity=0 time=0.03170285416666667
EXTRACT: note_on channel=9 note=36 velocity=127 time=0
EXTRACT: note_on channel=9 note=36 velocity=127 time=0
EXTRACT: note_on channel=9 note=36 velocity=127 time=0
EXTRACT: note_on channel=9 note=36 velocity=127 time=0
EXTRACT: note_off channel=1 note=49 velocity=0 time=0.05434775
EXTRACT: note_off channel=1 note=37 velocity=0 time=0
EXTRACT: note_off channel=9 note=36 velocity=64 time=0
EXTRACT: note_off channel=9 note=36 velocity=64 time=0
EXTRACT: note_off channel=9 note=36 velocity=64 time=0
EXTRACT: note_off channel=9 note=36 velocity=64 time=0
EXTRACT: note_off channel=0 note=49 velocity=0 time=0
EXTRACT: note_on channel=4 note=61 velocity=105 time=0.05434775
EXTRACT: note_on channel=4 note=56 velocity=105 time=0
EXTRACT: note_on channel=8 note=49 velocity=127 time=0
EXTRACT: note_on channel=9 note=36 velocity=127 time=0
EXTRACT: note_on channel=9 note=36 velocity=127 time=0
EXTRACT: note_on channel=9 note=36 velocity=127 time=0
EXTRACT: note_on channel=9 note=36 velocity=127 time=0
EXTRACT: note_on channel=9 note=28 velocity=127 time=0
EXTRACT: note_on channel=9 note=42 velocity=127 time=0
EXTRACT: note_on channel=9 note=76 velocity=80 time=0
EXTRACT: note_on channel=13 note=68 velocity=115 time=0
EXTRACT: note_on channel=13 note=56 velocity=115 time=0
EXTRACT: note_on channel=14 note=92 velocity=115 time=0
EXTRACT: note_off channel=9 note=76 velocity=0 time=0.027173875
EXTRACT: note_off channel=4 note=56 velocity=0 time=0.027173875
EXTRACT: note_off channel=4 note=61 velocity=0 time=0
EXTRACT: note_off channel=9 note=42 velocity=0 time=0
EXTRACT: note_off channel=9 note=36 velocity=64 time=0
EXTRACT: note_off channel=9 note=36 velocity=64 time=0
EXTRACT: note_off channel=9 note=36 velocity=64 time=0
EXTRACT: note_off channel=9 note=36 velocity=64 time=0
EXTRACT: note_off channel=13 note=56 velocity=0 time=0.0135869375
EXTRACT: note_off channel=13 note=68 velocity=0 time=0
EXTRACT: note_off channel=14 note=92 velocity=0 time=0
EXTRACT: note_off channel=8 note=49 velocity=0 time=0.0407608125
EXTRACT: note_on channel=1 note=37 velocity=110 time=0.1086955
EXTRACT: note_on channel=1 note=49 velocity=110 time=0
EXTRACT: note_on channel=8 note=61 velocity=127 time=0
EXTRACT: note_on channel=9 note=36 velocity=127 time=0
EXTRACT: note_on channel=9 note=36 velocity=127 time=0
EXTRACT: note_on channel=9 note=36 velocity=127 time=0
EXTRACT: note_on channel=9 note=36 velocity=127 time=0
EXTRACT: note_on channel=9 note=46 velocity=127 time=0
EXTRACT: note_on channel=13 note=68 velocity=115 time=0
EXTRACT: note_on channel=13 note=56 velocity=115 time=0
EXTRACT: note_on channel=14 note=92 velocity=115 time=0
EXTRACT: note_on channel=0 note=49 velocity=120 time=0
EXTRACT: note_off channel=9 note=46 velocity=0 time=0.05434775
EXTRACT: note_off channel=9 note=36 velocity=64 time=0
EXTRACT: note_off channel=9 note=36 velocity=64 time=0
EXTRACT: note_off channel=9 note=36 velocity=64 time=0
EXTRACT: note_off channel=9 note=36 velocity=64 time=0
EXTRACT: note_off channel=13 note=56 velocity=0 time=0.027173875
EXTRACT: note_off channel=13 note=68 velocity=0 time=0
EXTRACT: note_off channel=14 note=92 velocity=0 time=0.022644895833333335
EXTRACT: note_off channel=8 note=61 velocity=0 time=0.004528979166666667
EXTRACT: note_off channel=1 note=49 velocity=0 time=0.05434775
EXTRACT: note_off channel=1 note=37 velocity=0 time=0
EXTRACT: note_off channel=0 note=49 velocity=0 time=0
EXTRACT: note_off channel=9 note=28 velocity=0 time=0.0407608125
EXTRACT: note_on channel=4 note=63 velocity=105 time=0.0135869375
EXTRACT: note_on channel=4 note=58 velocity=105 time=0
EXTRACT: note_on channel=8 note=51 velocity=127 time=0
EXTRACT: note_on channel=9 note=36 velocity=127 time=0
EXTRACT: note_on channel=9 note=36 velocity=127 time=0
EXTRACT: note_on channel=9 note=36 velocity=127 time=0
EXTRACT: note_on channel=9 note=36 velocity=127 time=0
EXTRACT: note_on channel=9 note=42 velocity=127 time=0
EXTRACT: note_on channel=13 note=66 velocity=115 time=0
EXTRACT: note_on channel=13 note=54 velocity=115 time=0
EXTRACT: note_on channel=14 note=90 velocity=115 time=0
EXTRACT: note_off channel=4 note=58 velocity=0 time=0.05434775
EXTRACT: note_off channel=4 note=63 velocity=0 time=0
EXTRACT: note_off channel=9 note=42 velocity=0 time=0
EXTRACT: note_off channel=9 note=36 velocity=64 time=0
EXTRACT: note_off channel=9 note=36 velocity=64 time=0
EXTRACT: note_off channel=9 note=36 velocity=64 time=0
EXTRACT: note_off channel=9 note=36 velocity=64 time=0
EXTRACT: note_off channel=8 note=51 velocity=0 time=0.05434775
EXTRACT: note_on channel=1 note=39 velocity=110 time=0.1086955
EXTRACT: note_on channel=1 note=51 velocity=110 time=0
EXTRACT: note_on channel=4 note=63 velocity=105 time=0
EXTRACT: note_on channel=4 note=58 velocity=105 time=0
EXTRACT: note_on channel=8 note=63 velocity=127 time=0
EXTRACT: note_on channel=9 note=46 velocity=127 time=0
EXTRACT: note_on channel=0 note=51 velocity=120 time=0
EXTRACT: note_off channel=4 note=58 velocity=0 time=0.05434775
EXTRACT: note_off channel=4 note=63 velocity=0 time=0
EXTRACT: note_off channel=9 note=46 velocity=0 time=0
EXTRACT: note_off channel=13 note=54 velocity=0 time=0.0135869375
EXTRACT: note_off channel=13 note=66 velocity=0 time=0
EXTRACT: note_off channel=14 note=90 velocity=0 time=0
EXTRACT: note_off channel=8 note=63 velocity=0 time=0.0407608125
EXTRACT: note_on channel=13 note=63 velocity=115 time=0
EXTRACT: note_on channel=13 note=51 velocity=115 time=0
EXTRACT: note_on channel=14 note=87 velocity=115 time=0
EXTRACT: note_off channel=1 note=51 velocity=0 time=0.05434775
EXTRACT: note_off channel=1 note=39 velocity=0 time=0
EXTRACT: note_off channel=0 note=51 velocity=0 time=0
EXTRACT: note_on channel=4 note=63 velocity=105 time=0.05434775
EXTRACT: note_on channel=4 note=58 velocity=105 time=0
EXTRACT: note_on channel=8 note=51 velocity=127 time=0
EXTRACT: note_on channel=9 note=36 velocity=127 time=0
EXTRACT: note_on channel=9 note=36 velocity=127 time=0
EXTRACT: note_on channel=9 note=36 velocity=127 time=0
EXTRACT: note_on channel=9 note=36 velocity=127 time=0
EXTRACT: note_on channel=9 note=28 velocity=127 time=0
EXTRACT: note_on channel=9 note=42 velocity=127 time=0
EXTRACT: note_on channel=9 note=76 velocity=80 time=0
EXTRACT: note_off channel=13 note=51 velocity=0 time=0.009057958333333335
EXTRACT: note_off channel=13 note=63 velocity=0 time=0
EXTRACT: note_off channel=14 note=87 velocity=0 time=0
EXTRACT: note_off channel=9 note=76 velocity=0 time=0.01811591666666667
EXTRACT: note_off channel=4 note=58 velocity=0 time=0.027173875
EXTRACT: note_off channel=4 note=63 velocity=0 time=0
EXTRACT: note_off channel=9 note=42 velocity=0 time=0
EXTRACT: note_off channel=9 note=36 velocity=64 time=0
EXTRACT: note_off channel=9 note=36 velocity=64 time=0
EXTRACT: note_off channel=9 note=36 velocity=64 time=0
EXTRACT: note_off channel=9 note=36 velocity=64 time=0
EXTRACT: note_off channel=8 note=51 velocity=0 time=0.05434775
EXTRACT: note_on channel=1 note=39 velocity=110 time=0.1086955
EXTRACT: note_on channel=1 note=51 velocity=110 time=0
EXTRACT: note_on channel=8 note=63 velocity=127 time=0
EXTRACT: note_on channel=9 note=46 velocity=127 time=0
EXTRACT: note_on channel=9 note=76 velocity=80 time=0
EXTRACT: note_on channel=13 note=63 velocity=115 time=0
EXTRACT: note_on channel=13 note=51 velocity=115 time=0
EXTRACT: note_on channel=14 note=87 velocity=115 time=0
EXTRACT: note_on channel=0 note=51 velocity=120 time=0
EXTRACT: note_off channel=9 note=76 velocity=0 time=0.027173875
EXTRACT: note_off channel=13 note=51 velocity=0 time=0.022644895833333335
EXTRACT: note_off channel=13 note=63 velocity=0 time=0
EXTRACT: note_off channel=14 note=87 velocity=0 time=0
EXTRACT: note_off channel=9 note=46 velocity=0 time=0.004528979166666667
EXTRACT: note_off channel=8 note=63 velocity=0 time=0.03623183333333334
EXTRACT: note_on channel=4 note=63 velocity=105 time=0.01811591666666667
EXTRACT: note_on channel=4 note=58 velocity=105 time=0
EXTRACT: note_on channel=8 note=63 velocity=127 time=0
EXTRACT: note_on channel=13 note=63 velocity=115 time=0
EXTRACT: note_on channel=13 note=51 velocity=115 time=0
EXTRACT: note_on channel=14 note=87 velocity=115 time=0
EXTRACT: note_off channel=1 note=51 velocity=0 time=0.05434775
EXTRACT: note_off channel=1 note=39 velocity=0 time=0
EXTRACT: note_off channel=4 note=58 velocity=0 time=0
EXTRACT: note_off channel=4 note=63 velocity=0 time=0
EXTRACT: note_off channel=0 note=51 velocity=0 time=0
EXTRACT: note_off channel=13 note=51 velocity=0 time=0.004528979166666667
EXTRACT: note_off channel=13 note=63 velocity=0 time=0
EXTRACT: note_off channel=14 note=87 velocity=0 time=0
EXTRACT: note_off channel=9 note=28 velocity=0 time=0.03623183333333334
EXTRACT: note_on channel=4 note=63 velocity=105 time=0.0135869375
EXTRACT: note_on channel=4 note=58 velocity=105 time=0
EXTRACT: note_off channel=8 note=63 velocity=0 time=0
EXTRACT: note_on channel=8 note=51 velocity=127 time=0
EXTRACT: note_on channel=9 note=36 velocity=127 time=0
EXTRACT: note_on channel=9 note=36 velocity=127 time=0
EXTRACT: note_on channel=9 note=36 velocity=127 time=0
EXTRACT: note_on channel=9 note=36 velocity=127 time=0
EXTRACT: note_on channel=9 note=42 velocity=127 time=0
EXTRACT: note_on channel=13 note=63 velocity=115 time=0
EXTRACT: note_on channel=13 note=51 velocity=115 time=0
EXTRACT: note_on channel=14 note=87 velocity=115 time=0
EXTRACT: note_off channel=4 note=58 velocity=0 time=0.05434775
EXTRACT: note_off channel=4 note=63 velocity=0 time=0
EXTRACT: note_off channel=9 note=42 velocity=0 time=0
EXTRACT: note_off channel=9 note=36 velocity=64 time=0
EXTRACT: note_off channel=9 note=36 velocity=64 time=0
EXTRACT: note_off channel=9 note=36 velocity=64 time=0
EXTRACT: note_off channel=9 note=36 velocity=64 time=0
EXTRACT: note_off channel=13 note=51 velocity=0 time=0.022644895833333335
EXTRACT: note_off channel=13 note=63 velocity=0 time=0
EXTRACT: note_off channel=14 note=87 velocity=0 time=0
EXTRACT: note_off channel=8 note=51 velocity=0 time=0.03170285416666667
EXTRACT: note_on channel=1 note=39 velocity=110 time=0.1086955
EXTRACT: note_on channel=1 note=51 velocity=110 time=0
EXTRACT: note_on channel=4 note=63 velocity=105 time=0
EXTRACT: note_on channel=4 note=58 velocity=105 time=0
EXTRACT: note_on channel=8 note=63 velocity=127 time=0
EXTRACT: note_on channel=9 note=46 velocity=127 time=0
EXTRACT: note_on channel=13 note=63 velocity=115 time=0
EXTRACT: note_on channel=13 note=51 velocity=115 time=0
EXTRACT: note_on channel=14 note=87 velocity=115 time=0
EXTRACT: note_on channel=0 note=51 velocity=120 time=0
EXTRACT: note_off channel=4 note=58 velocity=0 time=0.05434775
EXTRACT: note_off channel=4 note=63 velocity=0 time=0
EXTRACT: note_off channel=9 note=46 velocity=0 time=0
EXTRACT: note_off channel=13 note=51 velocity=0 time=0.03170285416666667
EXTRACT: note_off channel=13 note=63 velocity=0 time=0
EXTRACT: note_off channel=14 note=87 velocity=0 time=0
EXTRACT: note_off channel=8 note=63 velocity=0 time=0.022644895833333335
EXTRACT: note_on channel=9 note=36 velocity=127 time=0
EXTRACT: note_on channel=9 note=36 velocity=127 time=0
EXTRACT: note_on channel=9 note=36 velocity=127 time=0
EXTRACT: note_on channel=9 note=36 velocity=127 time=0
EXTRACT: note_off channel=1 note=51 velocity=0 time=0.05434775
EXTRACT: note_off channel=1 note=39 velocity=0 time=0
EXTRACT: note_off channel=9 note=36 velocity=64 time=0
EXTRACT: note_off channel=9 note=36 velocity=64 time=0
EXTRACT: note_off channel=9 note=36 velocity=64 time=0
EXTRACT: note_off channel=9 note=36 velocity=64 time=0
EXTRACT: note_off channel=0 note=51 velocity=0 time=0
EXTRACT: note_on channel=4 note=63 velocity=105 time=0.05434775
EXTRACT: note_on channel=4 note=58 velocity=105 time=0
EXTRACT: note_on channel=8 note=51 velocity=127 time=0
EXTRACT: note_on channel=9 note=36 velocity=127 time=0
EXTRACT: note_on channel=9 note=36 velocity=127 time=0
EXTRACT: note_on channel=9 note=36 velocity=127 time=0
EXTRACT: note_on channel=9 note=36 velocity=127 time=0
EXTRACT: note_on channel=9 note=28 velocity=127 time=0
EXTRACT: note_on channel=9 note=42 velocity=127 time=0
EXTRACT: note_on channel=9 note=76 velocity=80 time=0
EXTRACT: note_on channel=13 note=66 velocity=115 time=0
EXTRACT: note_on channel=13 note=54 velocity=115 time=0
EXTRACT: note_on channel=14 note=90 velocity=115 time=0
EXTRACT: note_off channel=9 note=76 velocity=0 time=0.027173875
EXTRACT: note_off channel=4 note=58 velocity=0 time=0.027173875
EXTRACT: note_off channel=4 note=63 velocity=0 time=0
EXTRACT: note_off channel=9 note=42 velocity=0 time=0
EXTRACT: note_off channel=9 note=36 velocity=64 time=0
EXTRACT: note_off channel=9 note=36 velocity=64 time=0
EXTRACT: note_off channel=9 note=36 velocity=64 time=0
EXTRACT: note_off channel=9 note=36 velocity=64 time=0
EXTRACT: note_off channel=13 note=54 velocity=0 time=0.01811591666666667
EXTRACT: note_off channel=13 note=66 velocity=0 time=0
EXTRACT: note_off channel=14 note=90 velocity=0 time=0
EXTRACT: note_off channel=8 note=51 velocity=0 time=0.03623183333333334
EXTRACT: note_on channel=1 note=39 velocity=110 time=0.1086955
EXTRACT: note_on channel=1 note=51 velocity=110 time=0
EXTRACT: note_on channel=8 note=63 velocity=127 time=0
EXTRACT: note_on channel=9 note=36 velocity=127 time=0
EXTRACT: note_on channel=9 note=36 velocity=127 time=0
EXTRACT: note_on channel=9 note=36 velocity=127 time=0
EXTRACT: note_on channel=9 note=36 velocity=127 time=0
EXTRACT: note_on channel=9 note=46 velocity=127 time=0
EXTRACT: note_on channel=13 note=68 velocity=115 time=0
EXTRACT: note_on channel=13 note=56 velocity=115 time=0
EXTRACT: note_on channel=14 note=92 velocity=115 time=0
EXTRACT: note_on channel=0 note=51 velocity=120 time=0
EXTRACT: note_off channel=9 note=46 velocity=0 time=0.05434775
EXTRACT: note_off channel=9 note=36 velocity=64 time=0
EXTRACT: note_off channel=9 note=36 velocity=64 time=0
EXTRACT: note_off channel=9 note=36 velocity=64 time=0
EXTRACT: note_off channel=9 note=36 velocity=64 time=0
EXTRACT: note_off channel=13 note=56 velocity=0 time=0.01811591666666667
EXTRACT: note_off channel=13 note=68 velocity=0 time=0
EXTRACT: note_off channel=14 note=92 velocity=0 time=0
EXTRACT: note_off channel=8 note=63 velocity=0 time=0.03623183333333334
EXTRACT: note_off channel=1 note=51 velocity=0 time=0.05434775
EXTRACT: note_off channel=1 note=39 velocity=0 time=0
EXTRACT: note_off channel=0 note=51 velocity=0 time=0
EXTRACT: note_off channel=9 note=28 velocity=0 time=0.0407608125
EXTRACT: note_on channel=4 note=59 velocity=105 time=0.0135869375
EXTRACT: note_on channel=4 note=54 velocity=105 time=0
EXTRACT: note_on channel=8 note=47 velocity=127 time=0
EXTRACT: note_on channel=9 note=36 velocity=127 time=0
EXTRACT: note_on channel=9 note=36 velocity=127 time=0
EXTRACT: note_on channel=9 note=36 velocity=127 time=0
EXTRACT: note_on channel=9 note=36 velocity=127 time=0
EXTRACT: note_on channel=9 note=42 velocity=127 time=0
EXTRACT: note_on channel=13 note=70 velocity=115 time=0
EXTRACT: note_on channel=13 note=58 velocity=115 time=0
EXTRACT: note_on channel=14 note=94 velocity=115 time=0
EXTRACT: note_off channel=4 note=54 velocity=0 time=0.05434775
EXTRACT: note_off channel=4 note=59 velocity=0 time=0
EXTRACT: note_off channel=9 note=42 velocity=0 time=0
EXTRACT: note_off channel=9 note=36 velocity=64 time=0
EXTRACT: note_off channel=9 note=36 velocity=64 time=0
EXTRACT: note_off channel=9 note=36 velocity=64 time=0
EXTRACT: note_off channel=9 note=36 velocity=64 time=0
EXTRACT: note_off channel=8 note=47 velocity=0 time=0.05434775
EXTRACT: note_on channel=1 note=35 velocity=110 time=0.1086955
EXTRACT: note_on channel=1 note=47 velocity=110 time=0
EXTRACT: note_on channel=4 note=59 velocity=105 time=0
EXTRACT: note_on channel=4 note=54 velocity=105 time=0
EXTRACT: note_on channel=8 note=59 velocity=127 time=0
EXTRACT: note_on channel=9 note=46 velocity=127 time=0
EXTRACT: note_on channel=0 note=47 velocity=120 time=0
EXTRACT: note_off channel=4 note=54 velocity=0 time=0.05434775
EXTRACT: note_off channel=4 note=59 velocity=0 time=0
EXTRACT: note_off channel=9 note=46 velocity=0 time=0
EXTRACT: note_off channel=13 note=58 velocity=0 time=0.009057958333333335
EXTRACT: note_off channel=13 note=70 velocity=0 time=0
EXTRACT: note_off channel=14 note=94 velocity=0 time=0
EXTRACT: note_off channel=8 note=59 velocity=0 time=0.04528979166666667
EXTRACT: note_on channel=13 note=66 velocity=115 time=0
EXTRACT: note_on channel=13 note=54 velocity=115 time=0
EXTRACT: note_on channel=14 note=90 velocity=115 time=0
EXTRACT: note_off channel=1 note=47 velocity=0 time=0.05434775
EXTRACT: note_off channel=1 note=35 velocity=0 time=0
EXTRACT: note_off channel=0 note=47 velocity=0 time=0
EXTRACT: note_off channel=13 note=54 velocity=0 time=0.04528979166666667
EXTRACT: note_off channel=13 note=66 velocity=0 time=0
EXTRACT: note_off channel=14 note=90 velocity=0 time=0
EXTRACT: note_on channel=4 note=59 velocity=105 time=0.009057958333333335
EXTRACT: note_on channel=4 note=54 velocity=105 time=0
EXTRACT: note_on channel=8 note=47 velocity=127 time=0
EXTRACT: note_on channel=9 note=36 velocity=127 time=0
EXTRACT: note_on channel=9 note=36 velocity=127 time=0
EXTRACT: note_on channel=9 note=36 velocity=127 time=0
EXTRACT: note_on channel=9 note=36 velocity=127 time=0
EXTRACT: note_on channel=9 note=28 velocity=127 time=0
EXTRACT: note_on channel=9 note=42 velocity=127 time=0
EXTRACT: note_on channel=9 note=76 velocity=80 time=0
EXTRACT: note_off channel=9 note=76 velocity=0 time=0.027173875
EXTRACT: note_off channel=4 note=54 velocity=0 time=0.027173875
EXTRACT: note_off channel=4 note=59 velocity=0 time=0
EXTRACT: note_off channel=9 note=42 velocity=0 time=0
EXTRACT: note_off channel=9 note=36 velocity=64 time=0
EXTRACT: note_off channel=9 note=36 velocity=64 time=0
EXTRACT: note_off channel=9 note=36 velocity=64 time=0
EXTRACT: note_off channel=9 note=36 velocity=64 time=0
EXTRACT: note_off channel=8 note=47 velocity=0 time=0.05434775
EXTRACT: note_on channel=1 note=35 velocity=110 time=0.1086955
EXTRACT: note_on channel=1 note=47 velocity=110 time=0
EXTRACT: note_on channel=8 note=59 velocity=127 time=0
EXTRACT: note_on channel=9 note=46 velocity=127 time=0
EXTRACT: note_on channel=9 note=76 velocity=80 time=0
EXTRACT: note_on channel=13 note=59 velocity=115 time=0
EXTRACT: note_on channel=13 note=47 velocity=115 time=0
EXTRACT: note_on channel=14 note=83 velocity=115 time=0
EXTRACT: note_on channel=0 note=47 velocity=120 time=0
EXTRACT: note_off channel=9 note=76 velocity=0 time=0.027173875
EXTRACT: note_off channel=9 note=46 velocity=0 time=0.027173875
EXTRACT: note_off channel=13 note=47 velocity=0 time=0.03170285416666667
EXTRACT: note_off channel=13 note=59 velocity=0 time=0
EXTRACT: note_off channel=14 note=83 velocity=0 time=0
EXTRACT: note_off channel=8 note=59 velocity=0 time=0.004528979166666667
EXTRACT: note_on channel=4 note=59 velocity=105 time=0.01811591666666667
EXTRACT: note_on channel=4 note=54 velocity=105 time=0
EXTRACT: note_on channel=8 note=59 velocity=127 time=0
EXTRACT: note_off channel=1 note=47 velocity=0 time=0.05434775
EXTRACT: note_off channel=1 note=35 velocity=0 time=0
EXTRACT: note_off channel=4 note=54 velocity=0 time=0
EXTRACT: note_off channel=4 note=59 velocity=0 time=0
EXTRACT: note_off channel=0 note=47 velocity=0 time=0
EXTRACT: note_off channel=9 note=28 velocity=0 time=0.0407608125
EXTRACT: note_on channel=4 note=61 velocity=105 time=0.0135869375
EXTRACT: note_on channel=4 note=56 velocity=105 time=0
EXTRACT: note_off channel=8 note=59 velocity=0 time=0
EXTRACT: note_on channel=8 note=49 velocity=127 time=0
EXTRACT: note_on channel=9 note=36 velocity=127 time=0
EXTRACT: note_on channel=9 note=36 velocity=127 time=0
EXTRACT: note_on channel=9 note=36 velocity=127 time=0
EXTRACT: note_on channel=9 note=36 velocity=127 time=0
EXTRACT: note_on channel=9 note=42 velocity=127 time=0
EXTRACT: note_on channel=13 note=59 velocity=115 time=0
EXTRACT: note_on channel=13 note=47 velocity=115 time=0
EXTRACT: note_on channel=14 note=83 velocity=115 time=0
EXTRACT: note_off channel=4 note=56 velocity=0 time=0.05434775
EXTRACT: note_off channel=4 note=61 velocity=0 time=0
EXTRACT: note_off channel=9 note=42 velocity=0 time=0
EXTRACT: note_off channel=9 note=36 velocity=64 time=0
EXTRACT: note_off channel=9 note=36 velocity=64 time=0
EXTRACT: note_off channel=9 note=36 velocity=64 time=0
EXTRACT: note_off channel=9 note=36 velocity=64 time=0
EXTRACT: note_off channel=13 note=47 velocity=0 time=0.027173875
EXTRACT: note_off channel=13 note=59 velocity=0 time=0
EXTRACT: note_off channel=14 note=83 velocity=0 time=0
EXTRACT: note_off channel=8 note=49 velocity=0 time=0.027173875
EXTRACT: note_on channel=1 note=37 velocity=110 time=0.1086955
EXTRACT: note_on channel=1 note=49 velocity=110 time=0
EXTRACT: note_on channel=4 note=61 velocity=105 time=0
EXTRACT: note_on channel=4 note=56 velocity=105 time=0
EXTRACT: note_on channel=8 note=61 velocity=127 time=0
EXTRACT: note_on channel=9 note=46 velocity=127 time=0
EXTRACT: note_on channel=13 note=59 velocity=115 time=0
EXTRACT: note_on channel=13 note=47 velocity=115 time=0
EXTRACT: note_on channel=14 note=83 velocity=115 time=0
EXTRACT: note_on channel=0 note=49 velocity=120 time=0
EXTRACT: note_off channel=4 note=56 velocity=0 time=0.05434775
EXTRACT: note_off channel=4 note=61 velocity=0 time=0
EXTRACT: note_off channel=9 note=46 velocity=0 time=0
EXTRACT: note_off channel=13 note=47 velocity=0 time=0.01811591666666667
EXTRACT: note_off channel=13 note=59 velocity=0 time=0
EXTRACT: note_off channel=14 note=83 velocity=0 time=0
EXTRACT: note_off channel=8 note=61 velocity=0 time=0.03623183333333334
EXTRACT: note_on channel=9 note=36 velocity=127 time=0
EXTRACT: note_on channel=9 note=36 velocity=127 time=0
EXTRACT: note_on channel=9 note=36 velocity=127 time=0
EXTRACT: note_on channel=9 note=36 velocity=127 time=0
EXTRACT: note_off channel=1 note=49 velocity=0 time=0.05434775
EXTRACT: note_off channel=1 note=37 velocity=0 time=0
EXTRACT: note_off channel=9 note=36 velocity=64 time=0
EXTRACT: note_off channel=9 note=36 velocity=64 time=0
EXTRACT: note_off channel=9 note=36 velocity=64 time=0
EXTRACT: note_off channel=9 note=36 velocity=64 time=0
EXTRACT: note_off channel=0 note=49 velocity=0 time=0
EXTRACT: note_on channel=4 note=61 velocity=105 time=0.05434775
EXTRACT: note_on channel=4 note=56 velocity=105 time=0
EXTRACT: note_on channel=8 note=49 velocity=127 time=0
EXTRACT: note_on channel=9 note=36 velocity=127 time=0
EXTRACT: note_on channel=9 note=36 velocity=127 time=0
EXTRACT: note_on channel=9 note=36 velocity=127 time=0
EXTRACT: note_on channel=9 note=36 velocity=127 time=0
EXTRACT: note_on channel=9 note=28 velocity=127 time=0
EXTRACT: note_on channel=9 note=42 velocity=127 time=0
EXTRACT: note_on channel=9 note=76 velocity=80 time=0
EXTRACT: note_on channel=13 note=59 velocity=115 time=0
EXTRACT: note_on channel=13 note=47 velocity=115 time=0
EXTRACT: note_on channel=14 note=83 velocity=115 time=0
EXTRACT: note_off channel=9 note=76 velocity=0 time=0.027173875
EXTRACT: note_off channel=4 note=56 velocity=0 time=0.027173875
EXTRACT: note_off channel=4 note=61 velocity=0 time=0
EXTRACT: note_off channel=9 note=42 velocity=0 time=0
EXTRACT: note_off channel=9 note=36 velocity=64 time=0
EXTRACT: note_off channel=9 note=36 velocity=64 time=0
EXTRACT: note_off channel=9 note=36 velocity=64 time=0
EXTRACT: note_off channel=9 note=36 velocity=64 time=0
EXTRACT: note_off channel=13 note=47 velocity=0 time=0.01811591666666667
EXTRACT: note_off channel=13 note=59 velocity=0 time=0
EXTRACT: note_off channel=14 note=83 velocity=0 time=0
EXTRACT: note_off channel=8 note=49 velocity=0 time=0.03623183333333334
EXTRACT: note_on channel=1 note=37 velocity=110 time=0.1086955
EXTRACT: note_on channel=1 note=49 velocity=110 time=0
EXTRACT: note_on channel=8 note=61 velocity=127 time=0
EXTRACT: note_on channel=9 note=36 velocity=127 time=0
EXTRACT: note_on channel=9 note=36 velocity=127 time=0
EXTRACT: note_on channel=9 note=36 velocity=127 time=0
EXTRACT: note_on channel=9 note=36 velocity=127 time=0
EXTRACT: note_on channel=9 note=46 velocity=127 time=0
EXTRACT: note_on channel=13 note=59 velocity=115 time=0
EXTRACT: note_on channel=13 note=47 velocity=115 time=0
EXTRACT: note_on channel=14 note=83 velocity=115 time=0
EXTRACT: note_on channel=0 note=49 velocity=120 time=0
EXTRACT: note_off channel=9 note=46 velocity=0 time=0.05434775
EXTRACT: note_off channel=9 note=36 velocity=64 time=0
EXTRACT: note_off channel=9 note=36 velocity=64 time=0
EXTRACT: note_off channel=9 note=36 velocity=64 time=0
EXTRACT: note_off channel=9 note=36 velocity=64 time=0
EXTRACT: note_off channel=13 note=47 velocity=0 time=0.022644895833333335
EXTRACT: note_off channel=13 note=59 velocity=0 time=0
EXTRACT: note_off channel=14 note=83 velocity=0 time=0
EXTRACT: note_off channel=8 note=61 velocity=0 time=0.03170285416666667
EXTRACT: note_off channel=1 note=49 velocity=0 time=0.05434775
EXTRACT: note_off channel=1 note=37 velocity=0 time=0
EXTRACT: note_off channel=0 note=49 velocity=0 time=0
EXTRACT: note_off channel=9 note=28 velocity=0 time=0.0407608125
EXTRACT: note_on channel=3 note=65 velocity=1 time=0.0135869375
EXTRACT: note_on channel=4 note=66 velocity=105 time=0
EXTRACT: note_on channel=4 note=61 velocity=105 time=0
EXTRACT: note_on channel=8 note=54 velocity=127 time=0
EXTRACT: note_on channel=9 note=36 velocity=127 time=0
EXTRACT: note_on channel=9 note=36 velocity=127 time=0
EXTRACT: note_on channel=9 note=36 velocity=127 time=0
EXTRACT: note_on channel=9 note=36 velocity=127 time=0
EXTRACT: note_on channel=9 note=42 velocity=127 time=0
EXTRACT: note_on channel=9 note=49 velocity=50 time=0
EXTRACT: note_on channel=13 note=58 velocity=115 time=0
EXTRACT: note_on channel=13 note=46 velocity=115 time=0
EXTRACT: note_on channel=14 note=82 velocity=115 time=0
EXTRACT: note_off channel=9 note=49 velocity=0 time=0.027173875
EXTRACT: note_off channel=4 note=61 velocity=0 time=0.027173875
EXTRACT: note_off channel=4 note=66 velocity=0 time=0
EXTRACT: note_off channel=9 note=42 velocity=0 time=0
EXTRACT: note_off channel=9 note=36 velocity=64 time=0
EXTRACT: note_off channel=9 note=36 velocity=64 time=0
EXTRACT: note_off channel=9 note=36 velocity=64 time=0
EXTRACT: note_off channel=9 note=36 velocity=64 time=0
EXTRACT: note_off channel=8 note=54 velocity=0 time=0.05434775
EXTRACT: note_on channel=1 note=42 velocity=110 time=0.1086955
EXTRACT: note_on channel=1 note=54 velocity=110 time=0
EXTRACT: note_on channel=4 note=66 velocity=105 time=0
EXTRACT: note_on channel=4 note=61 velocity=105 time=0
EXTRACT: note_on channel=8 note=66 velocity=127 time=0
EXTRACT: note_on channel=9 note=46 velocity=127 time=0
EXTRACT: note_on channel=0 note=54 velocity=120 time=0
EXTRACT: note_off channel=4 note=61 velocity=0 time=0.05434775
EXTRACT: note_off channel=4 note=66 velocity=0 time=0
EXTRACT: note_off channel=9 note=46 velocity=0 time=0
EXTRACT: note_off channel=13 note=46 velocity=0 time=0.03623183333333334
EXTRACT: note_off channel=13 note=58 velocity=0 time=0
EXTRACT: note_off channel=14 note=82 velocity=0 time=0
EXTRACT: note_off channel=8 note=66 velocity=0 time=0.01811591666666667
EXTRACT: note_on channel=13 note=66 velocity=115 time=0
EXTRACT: note_on channel=13 note=54 velocity=115 time=0
EXTRACT: note_on channel=14 note=90 velocity=115 time=0
EXTRACT: note_off channel=1 note=54 velocity=0 time=0.05434775
EXTRACT: note_off channel=1 note=42 velocity=0 time=0
EXTRACT: note_off channel=0 note=54 velocity=0 time=0
EXTRACT: note_off channel=3 note=65 velocity=0 time=0.05434775
EXTRACT: note_on channel=3 note=65 velocity=1 time=0
EXTRACT: note_on channel=4 note=66 velocity=105 time=0
EXTRACT: note_on channel=4 note=61 velocity=105 time=0
EXTRACT: note_on channel=8 note=54 velocity=127 time=0
EXTRACT: note_on channel=9 note=36 velocity=127 time=0
EXTRACT: note_on channel=9 note=36 velocity=127 time=0
EXTRACT: note_on channel=9 note=36 velocity=127 time=0
EXTRACT: note_on channel=9 note=36 velocity=127 time=0
EXTRACT: note_on channel=9 note=28 velocity=127 time=0
EXTRACT: note_on channel=9 note=42 velocity=127 time=0
EXTRACT: note_on channel=9 note=76 velocity=80 time=0
EXTRACT: note_off channel=13 note=54 velocity=0 time=0.0135869375
EXTRACT: note_off channel=13 note=66 velocity=0 time=0
EXTRACT: note_off channel=14 note=90 velocity=0 time=0
EXTRACT: note_off channel=9 note=76 velocity=0 time=0.0135869375
EXTRACT: note_off channel=4 note=61 velocity=0 time=0.027173875
EXTRACT: note_off channel=4 note=66 velocity=0 time=0
EXTRACT: note_off channel=9 note=42 velocity=0 time=0
EXTRACT: note_off channel=9 note=36 velocity=64 time=0
EXTRACT: note_off channel=9 note=36 velocity=64 time=0
EXTRACT: note_off channel=9 note=36 velocity=64 time=0
EXTRACT: note_off channel=9 note=36 velocity=64 time=0
EXTRACT: note_off channel=8 note=54 velocity=0 time=0.05434775
EXTRACT: note_on channel=1 note=42 velocity=110 time=0.1086955
EXTRACT: note_on channel=1 note=54 velocity=110 time=0
EXTRACT: note_on channel=8 note=66 velocity=127 time=0
EXTRACT: note_on channel=9 note=46 velocity=127 time=0
EXTRACT: note_on channel=9 note=76 velocity=80 time=0
EXTRACT: note_on channel=0 note=54 velocity=120 time=0
EXTRACT: note_off channel=9 note=76 velocity=0 time=0.027173875
EXTRACT: note_off channel=9 note=46 velocity=0 time=0.027173875
EXTRACT: note_off channel=8 note=66 velocity=0 time=0.03623183333333334
EXTRACT: note_on channel=4 note=66 velocity=105 time=0.01811591666666667
EXTRACT: note_on channel=4 note=61 velocity=105 time=0
EXTRACT: note_on channel=8 note=66 velocity=127 time=0
EXTRACT: note_off channel=1 note=54 velocity=0 time=0.05434775
EXTRACT: note_off channel=1 note=42 velocity=0 time=0
EXTRACT: note_off channel=4 note=61 velocity=0 time=0
EXTRACT: note_off channel=4 note=66 velocity=0 time=0
EXTRACT: note_off channel=0 note=54 velocity=0 time=0
EXTRACT: note_off channel=9 note=28 velocity=0 time=0.0407608125
EXTRACT: note_off channel=3 note=65 velocity=0 time=0.0135869375
EXTRACT: note_on channel=3 note=65 velocity=1 time=0
EXTRACT: note_on channel=4 note=66 velocity=105 time=0
EXTRACT: note_on channel=4 note=61 velocity=105 time=0
EXTRACT: note_off channel=8 note=66 velocity=0 time=0
EXTRACT: note_on channel=8 note=54 velocity=127 time=0
EXTRACT: note_on channel=9 note=36 velocity=127 time=0
EXTRACT: note_on channel=9 note=36 velocity=127 time=0
EXTRACT: note_on channel=9 note=36 velocity=127 time=0
EXTRACT: note_on channel=9 note=36 velocity=127 time=0
EXTRACT: note_on channel=9 note=42 velocity=127 time=0
EXTRACT: note_off channel=4 note=61 velocity=0 time=0.05434775
EXTRACT: note_off channel=4 note=66 velocity=0 time=0
EXTRACT: note_off channel=9 note=42 velocity=0 time=0
EXTRACT: note_off channel=9 note=36 velocity=64 time=0
EXTRACT: note_off channel=9 note=36 velocity=64 time=0
EXTRACT: note_off channel=9 note=36 velocity=64 time=0
EXTRACT: note_off channel=9 note=36 velocity=64 time=0
EXTRACT: note_off channel=8 note=54 velocity=0 time=0.05434775
EXTRACT: note_on channel=1 note=42 velocity=110 time=0.1086955
EXTRACT: note_on channel=1 note=54 velocity=110 time=0
EXTRACT: note_on channel=4 note=66 velocity=105 time=0
EXTRACT: note_on channel=4 note=61 velocity=105 time=0
EXTRACT: note_on channel=8 note=66 velocity=127 time=0
EXTRACT: note_on channel=9 note=46 velocity=127 time=0
EXTRACT: note_on channel=0 note=54 velocity=120 time=0
EXTRACT: note_off channel=4 note=61 velocity=0 time=0.05434775
EXTRACT: note_off channel=4 note=66 velocity=0 time=0
EXTRACT: note_off channel=9 note=46 velocity=0 time=0
EXTRACT: note_off channel=8 note=66 velocity=0 time=0.05434775
EXTRACT: note_on channel=9 note=36 velocity=127 time=0
EXTRACT: note_on channel=9 note=36 velocity=127 time=0
EXTRACT: note_on channel=9 note=36 velocity=127 time=0
EXTRACT: note_on channel=9 note=36 velocity=127 time=0
EXTRACT: note_off channel=1 note=54 velocity=0 time=0.05434775
EXTRACT: note_off channel=1 note=42 velocity=0 time=0
EXTRACT: note_off channel=9 note=36 velocity=64 time=0
EXTRACT: note_off channel=9 note=36 velocity=64 time=0
EXTRACT: note_off channel=9 note=36 velocity=64 time=0
EXTRACT: note_off channel=9 note=36 velocity=64 time=0
EXTRACT: note_off channel=0 note=54 velocity=0 time=0
EXTRACT: note_off channel=3 note=65 velocity=0 time=0.05434775
EXTRACT: note_on channel=3 note=65 velocity=1 time=0
EXTRACT: note_on channel=4 note=66 velocity=105 time=0
EXTRACT: note_on channel=4 note=61 velocity=105 time=0
EXTRACT: note_on channel=8 note=54 velocity=127 time=0
EXTRACT: note_on channel=9 note=36 velocity=127 time=0
EXTRACT: note_on channel=9 note=36 velocity=127 time=0
EXTRACT: note_on channel=9 note=36 velocity=127 time=0
EXTRACT: note_on channel=9 note=36 velocity=127 time=0
EXTRACT: note_on channel=9 note=28 velocity=127 time=0
EXTRACT: note_on channel=9 note=42 velocity=127 time=0
EXTRACT: note_on channel=9 note=76 velocity=80 time=0
EXTRACT: note_on channel=9 note=49 velocity=50 time=0
EXTRACT: note_off channel=9 note=49 velocity=0 time=0.027173875
EXTRACT: note_off channel=9 note=76 velocity=0 time=0
EXTRACT: note_off channel=4 note=61 velocity=0 time=0.027173875
EXTRACT: note_off channel=4 note=66 velocity=0 time=0
EXTRACT: note_off channel=9 note=42 velocity=0 time=0
EXTRACT: note_off channel=9 note=36 velocity=64 time=0
EXTRACT: note_off channel=9 note=36 velocity=64 time=0
EXTRACT: note_off channel=9 note=36 velocity=64 time=0
EXTRACT: note_off channel=9 note=36 velocity=64 time=0
EXTRACT: note_off channel=8 note=54 velocity=0 time=0.05434775
EXTRACT: note_on channel=1 note=42 velocity=110 time=0.1086955
EXTRACT: note_on channel=1 note=54 velocity=110 time=0
EXTRACT: note_on channel=8 note=66 velocity=127 time=0
EXTRACT: note_on channel=9 note=36 velocity=127 time=0
EXTRACT: note_on channel=9 note=36 velocity=127 time=0
EXTRACT: note_on channel=9 note=36 velocity=127 time=0
EXTRACT: note_on channel=9 note=36 velocity=127 time=0
EXTRACT: note_on channel=9 note=46 velocity=127 time=0
EXTRACT: note_on channel=0 note=54 velocity=120 time=0
EXTRACT: note_off channel=9 note=46 velocity=0 time=0.05434775
EXTRACT: note_off channel=9 note=36 velocity=64 time=0
EXTRACT: note_off channel=9 note=36 velocity=64 time=0
EXTRACT: note_off channel=9 note=36 velocity=64 time=0
EXTRACT: note_off channel=9 note=36 velocity=64 time=0
EXTRACT: note_off channel=8 note=66 velocity=0 time=0.05434775
EXTRACT: note_off channel=1 note=54 velocity=0 time=0.05434775
EXTRACT: note_off channel=1 note=42 velocity=0 time=0
EXTRACT: note_off channel=0 note=54 velocity=0 time=0
EXTRACT: note_off channel=9 note=28 velocity=0 time=0.0407608125
EXTRACT: note_on channel=2 note=102 velocity=50 time=0.0135869375
EXTRACT: note_on channel=2 note=90 velocity=40 time=0
EXTRACT: note_off channel=3 note=65 velocity=0 time=0
EXTRACT: note_on channel=3 note=66 velocity=127 time=0
EXTRACT: note_on channel=4 note=66 velocity=105 time=0
EXTRACT: note_on channel=4 note=61 velocity=105 time=0
EXTRACT: note_on channel=8 note=54 velocity=127 time=0
EXTRACT: note_on channel=9 note=36 velocity=127 time=0
EXTRACT: note_on channel=9 note=36 velocity=127 time=0
EXTRACT: note_on channel=9 note=36 velocity=127 time=0
EXTRACT: note_on channel=9 note=36 velocity=127 time=0
EXTRACT: note_on channel=9 note=42 velocity=127 time=0
EXTRACT: note_on channel=9 note=49 velocity=85 time=0
EXTRACT: note_off channel=9 note=49 velocity=0 time=0.027173875
EXTRACT: note_off channel=4 note=61 velocity=0 time=0.027173875
EXTRACT: note_off channel=4 note=66 velocity=0 time=0
EXTRACT: note_off channel=9 note=42 velocity=0 time=0
EXTRACT: note_off channel=9 note=36 velocity=64 time=0
EXTRACT: note_off channel=9 note=36 velocity=64 time=0
EXTRACT: note_off channel=9 note=36 velocity=64 time=0
EXTRACT: note_off channel=9 note=36 velocity=64 time=0
EXTRACT: note_off channel=8 note=54 velocity=0 time=0.05434775
EXTRACT: note_on channel=1 note=42 velocity=110 time=0.1086955
EXTRACT: note_on channel=1 note=54 velocity=110 time=0
EXTRACT: note_on channel=4 note=66 velocity=105 time=0
EXTRACT: note_on channel=4 note=61 velocity=105 time=0
EXTRACT: note_on channel=8 note=66 velocity=127 time=0
EXTRACT: note_on channel=9 note=46 velocity=127 time=0
EXTRACT: note_on channel=0 note=54 velocity=120 time=0
EXTRACT: note_off channel=4 note=61 velocity=0 time=0.05434775
EXTRACT: note_off channel=4 note=66 velocity=0 time=0
EXTRACT: note_off channel=9 note=46 velocity=0 time=0
EXTRACT: note_off channel=8 note=66 velocity=0 time=0.05434775
EXTRACT: note_off channel=3 note=66 velocity=0 time=0.0407608125
EXTRACT: note_off channel=1 note=54 velocity=0 time=0.0135869375
EXTRACT: note_off channel=1 note=42 velocity=0 time=0
EXTRACT: note_off channel=0 note=54 velocity=0 time=0
EXTRACT: note_on channel=3 note=63 velocity=127 time=0.05434775
EXTRACT: note_on channel=4 note=66 velocity=105 time=0
EXTRACT: note_on channel=4 note=61 velocity=105 time=0
EXTRACT: note_on channel=8 note=54 velocity=127 time=0
EXTRACT: note_on channel=9 note=36 velocity=127 time=0
EXTRACT: note_on channel=9 note=36 velocity=127 time=0
EXTRACT: note_on channel=9 note=36 velocity=127 time=0
EXTRACT: note_on channel=9 note=36 velocity=127 time=0
EXTRACT: note_on channel=9 note=28 velocity=127 time=0
EXTRACT: note_on channel=9 note=42 velocity=127 time=0
EXTRACT: note_on channel=9 note=76 velocity=80 time=0
EXTRACT: note_off channel=9 note=76 velocity=0 time=0.027173875
EXTRACT: note_off channel=4 note=61 velocity=0 time=0.027173875
EXTRACT: note_off channel=4 note=66 velocity=0 time=0
EXTRACT: note_off channel=9 note=42 velocity=0 time=0
EXTRACT: note_off channel=9 note=36 velocity=64 time=0
EXTRACT: note_off channel=9 note=36 velocity=64 time=0
EXTRACT: note_off channel=9 note=36 velocity=64 time=0
EXTRACT: note_off channel=9 note=36 velocity=64 time=0
EXTRACT: note_off channel=8 note=54 velocity=0 time=0.05434775
EXTRACT: note_off channel=3 note=63 velocity=0 time=0.07699264583333333
EXTRACT: note_on channel=1 note=42 velocity=110 time=0.03170285416666667
EXTRACT: note_on channel=1 note=54 velocity=110 time=0
EXTRACT: note_on channel=3 note=61 velocity=127 time=0
EXTRACT: note_on channel=8 note=66 velocity=127 time=0
EXTRACT: note_on channel=9 note=46 velocity=127 time=0
EXTRACT: note_on channel=9 note=76 velocity=80 time=0
EXTRACT: note_on channel=0 note=54 velocity=120 time=0
EXTRACT: note_off channel=9 note=76 velocity=0 time=0.027173875
EXTRACT: note_off channel=9 note=46 velocity=0 time=0.027173875
EXTRACT: note_off channel=8 note=66 velocity=0 time=0.03623183333333334
EXTRACT: note_on channel=4 note=66 velocity=105 time=0.01811591666666667
EXTRACT: note_on channel=4 note=61 velocity=105 time=0
EXTRACT: note_on channel=8 note=66 velocity=127 time=0
EXTRACT: note_off channel=3 note=61 velocity=0 time=0.03623183333333334
EXTRACT: note_off channel=1 note=54 velocity=0 time=0.01811591666666667
EXTRACT: note_off channel=1 note=42 velocity=0 time=0
EXTRACT: note_off channel=4 note=61 velocity=0 time=0
EXTRACT: note_off channel=4 note=66 velocity=0 time=0
EXTRACT: note_off channel=0 note=54 velocity=0 time=0
EXTRACT: note_off channel=9 note=28 velocity=0 time=0.0407608125
EXTRACT: note_on channel=3 note=66 velocity=127 time=0.0135869375
EXTRACT: note_on channel=4 note=66 velocity=105 time=0
EXTRACT: note_on channel=4 note=61 velocity=105 time=0
EXTRACT: note_off channel=8 note=66 velocity=0 time=0
EXTRACT: note_on channel=8 note=54 velocity=127 time=0
EXTRACT: note_on channel=9 note=36 velocity=127 time=0
EXTRACT: note_on channel=9 note=36 velocity=127 time=0
EXTRACT: note_on channel=9 note=36 velocity=127 time=0
EXTRACT: note_on channel=9 note=36 velocity=127 time=0
EXTRACT: note_on channel=9 note=42 velocity=127 time=0
EXTRACT: note_off channel=4 note=61 velocity=0 time=0.05434775
EXTRACT: note_off channel=4 note=66 velocity=0 time=0
EXTRACT: note_off channel=9 note=42 velocity=0 time=0
EXTRACT: note_off channel=9 note=36 velocity=64 time=0
EXTRACT: note_off channel=9 note=36 velocity=64 time=0
EXTRACT: note_off channel=9 note=36 velocity=64 time=0
EXTRACT: note_off channel=9 note=36 velocity=64 time=0
EXTRACT: note_off channel=8 note=54 velocity=0 time=0.05434775
EXTRACT: note_on channel=1 note=42 velocity=110 time=0.1086955
EXTRACT: note_on channel=1 note=54 velocity=110 time=0
EXTRACT: note_on channel=4 note=66 velocity=105 time=0
EXTRACT: note_on channel=4 note=61 velocity=105 time=0
EXTRACT: note_on channel=8 note=66 velocity=127 time=0
EXTRACT: note_on channel=9 note=46 velocity=127 time=0
EXTRACT: note_on channel=0 note=54 velocity=120 time=0
EXTRACT: note_off channel=4 note=61 velocity=0 time=0.05434775
EXTRACT: note_off channel=4 note=66 velocity=0 time=0
EXTRACT: note_off channel=9 note=46 velocity=0 time=0
EXTRACT: note_off channel=8 note=66 velocity=0 time=0.05434775
EXTRACT: note_on channel=9 note=36 velocity=127 time=0
EXTRACT: note_on channel=9 note=36 velocity=127 time=0
EXTRACT: note_on channel=9 note=36 velocity=127 time=0
EXTRACT: note_on channel=9 note=36 velocity=127 time=0
EXTRACT: note_off channel=1 note=54 velocity=0 time=0.05434775
EXTRACT: note_off channel=1 note=42 velocity=0 time=0
EXTRACT: note_off channel=9 note=36 velocity=64 time=0
EXTRACT: note_off channel=9 note=36 velocity=64 time=0
EXTRACT: note_off channel=9 note=36 velocity=64 time=0
EXTRACT: note_off channel=9 note=36 velocity=64 time=0
EXTRACT: note_off channel=0 note=54 velocity=0 time=0
EXTRACT: note_off channel=3 note=66 velocity=0 time=0.022644895833333335
EXTRACT: note_on channel=3 note=63 velocity=127 time=0.03170285416666667
EXTRACT: note_on channel=4 note=66 velocity=105 time=0
EXTRACT: note_on channel=4 note=61 velocity=105 time=0
EXTRACT: note_on channel=8 note=54 velocity=127 time=0
EXTRACT: note_on channel=9 note=36 velocity=127 time=0
EXTRACT: note_on channel=9 note=36 velocity=127 time=0
EXTRACT: note_on channel=9 note=36 velocity=127 time=0
EXTRACT: note_on channel=9 note=36 velocity=127 time=0
EXTRACT: note_on channel=9 note=28 velocity=127 time=0
EXTRACT: note_on channel=9 note=42 velocity=127 time=0
EXTRACT: note_on channel=9 note=76 velocity=80 time=0
EXTRACT: note_off channel=9 note=76 velocity=0 time=0.027173875
EXTRACT: note_off channel=4 note=61 velocity=0 time=0.027173875
EXTRACT: note_off channel=4 note=66 velocity=0 time=0
EXTRACT: note_off channel=9 note=42 velocity=0 time=0
EXTRACT: note_off channel=9 note=36 velocity=64 time=0
EXTRACT: note_off channel=9 note=36 velocity=64 time=0
EXTRACT: note_off channel=9 note=36 velocity=64 time=0
EXTRACT: note_off channel=9 note=36 velocity=64 time=0
EXTRACT: note_off channel=8 note=54 velocity=0 time=0.05434775
EXTRACT: note_off channel=3 note=63 velocity=0 time=0.081521625
EXTRACT: note_on channel=1 note=42 velocity=110 time=0.027173875
EXTRACT: note_on channel=1 note=54 velocity=110 time=0
EXTRACT: note_on channel=3 note=61 velocity=127 time=0
EXTRACT: note_on channel=8 note=66 velocity=127 time=0
EXTRACT: note_on channel=9 note=36 velocity=127 time=0
EXTRACT: note_on channel=9 note=36 velocity=127 time=0
EXTRACT: note_on channel=9 note=36 velocity=127 time=0
EXTRACT: note_on channel=9 note=36 velocity=127 time=0
EXTRACT: note_on channel=9 note=46 velocity=127 time=0
EXTRACT: note_on channel=0 note=54 velocity=120 time=0
EXTRACT: note_off channel=9 note=46 velocity=0 time=0.05434775
EXTRACT: note_off channel=9 note=36 velocity=64 time=0
EXTRACT: note_off channel=9 note=36 velocity=64 time=0
EXTRACT: note_off channel=9 note=36 velocity=64 time=0
EXTRACT: note_off channel=9 note=36 velocity=64 time=0
EXTRACT: note_off channel=8 note=66 velocity=0 time=0.05434775
EXTRACT: note_off channel=1 note=54 velocity=0 time=0.05434775
EXTRACT: note_off channel=1 note=42 velocity=0 time=0
EXTRACT: note_off channel=0 note=54 velocity=0 time=0
EXTRACT: note_off channel=3 note=61 velocity=0 time=0.01811591666666667
EXTRACT: note_off channel=9 note=28 velocity=0 time=0.022644895833333335
EXTRACT: note_on channel=3 note=54 velocity=127 time=0.0135869375
EXTRACT: note_on channel=4 note=66 velocity=105 time=0
EXTRACT: note_on channel=4 note=61 velocity=105 time=0
EXTRACT: note_on channel=8 note=54 velocity=127 time=0
EXTRACT: note_on channel=9 note=36 velocity=127 time=0
EXTRACT: note_on channel=9 note=36 velocity=127 time=0
EXTRACT: note_on channel=9 note=36 velocity=127 time=0
EXTRACT: note_on channel=9 note=36 velocity=127 time=0
EXTRACT: note_on channel=9 note=42 velocity=127 time=0
EXTRACT: note_off channel=4 note=61 velocity=0 time=0.05434775
EXTRACT: note_off channel=4 note=66 velocity=0 time=0
EXTRACT: note_off channel=9 note=42 velocity=0 time=0
EXTRACT: note_off channel=9 note=36 velocity=64 time=0
EXTRACT: note_off channel=9 note=36 velocity=64 time=0
EXTRACT: note_off channel=9 note=36 velocity=64 time=0
EXTRACT: note_off channel=9 note=36 velocity=64 time=0
EXTRACT: note_off channel=8 note=54 velocity=0 time=0.05434775
EXTRACT: note_off channel=3 note=54 velocity=0 time=0.004528979166666667
EXTRACT: note_on channel=1 note=42 velocity=110 time=0.10416652083333333
EXTRACT: note_on channel=1 note=54 velocity=110 time=0
EXTRACT: note_on channel=3 note=54 velocity=127 time=0
EXTRACT: note_on channel=4 note=66 velocity=105 time=0
EXTRACT: note_on channel=4 note=61 velocity=105 time=0
EXTRACT: note_on channel=8 note=66 velocity=127 time=0
EXTRACT: note_on channel=9 note=46 velocity=127 time=0
EXTRACT: note_on channel=0 note=54 velocity=120 time=0
EXTRACT: note_off channel=4 note=61 velocity=0 time=0.05434775
EXTRACT: note_off channel=4 note=66 velocity=0 time=0
EXTRACT: note_off channel=9 note=46 velocity=0 time=0
EXTRACT: note_off channel=3 note=54 velocity=0 time=0.04528979166666667
EXTRACT: note_off channel=8 note=66 velocity=0 time=0.009057958333333335
EXTRACT: note_off channel=1 note=54 velocity=0 time=0.05434775
EXTRACT: note_off channel=1 note=42 velocity=0 time=0
EXTRACT: note_off channel=0 note=54 velocity=0 time=0
EXTRACT: note_on channel=3 note=54 velocity=127 time=0.05434775
EXTRACT: note_on channel=4 note=66 velocity=105 time=0
EXTRACT: note_on channel=4 note=61 velocity=105 time=0
EXTRACT: note_on channel=8 note=54 velocity=127 time=0
EXTRACT: note_on channel=9 note=36 velocity=127 time=0
EXTRACT: note_on channel=9 note=36 velocity=127 time=0
EXTRACT: note_on channel=9 note=36 velocity=127 time=0
EXTRACT: note_on channel=9 note=36 velocity=127 time=0
EXTRACT: note_on channel=9 note=28 velocity=127 time=0
EXTRACT: note_on channel=9 note=42 velocity=127 time=0
EXTRACT: note_on channel=9 note=76 velocity=80 time=0
EXTRACT: note_off channel=9 note=76 velocity=0 time=0.027173875
EXTRACT: note_off channel=4 note=61 velocity=0 time=0.027173875
EXTRACT: note_off channel=4 note=66 velocity=0 time=0
EXTRACT: note_off channel=9 note=42 velocity=0 time=0
EXTRACT: note_off channel=9 note=36 velocity=64 time=0
EXTRACT: note_off channel=9 note=36 velocity=64 time=0
EXTRACT: note_off channel=9 note=36 velocity=64 time=0
EXTRACT: note_off channel=9 note=36 velocity=64 time=0
EXTRACT: note_off channel=3 note=54 velocity=0 time=0.04981877083333334
EXTRACT: note_off channel=8 note=54 velocity=0 time=0.004528979166666667
EXTRACT: note_on channel=1 note=42 velocity=110 time=0.1086955
EXTRACT: note_on channel=1 note=54 velocity=110 time=0
EXTRACT: note_on channel=3 note=54 velocity=127 time=0
EXTRACT: note_on channel=8 note=66 velocity=127 time=0
EXTRACT: note_on channel=9 note=46 velocity=127 time=0
EXTRACT: note_on channel=9 note=76 velocity=80 time=0
EXTRACT: note_on channel=0 note=54 velocity=120 time=0
EXTRACT: note_off channel=9 note=76 velocity=0 time=0.027173875
EXTRACT: note_off channel=9 note=46 velocity=0 time=0.027173875
EXTRACT: note_off channel=8 note=66 velocity=0 time=0.03623183333333334
EXTRACT: note_on channel=4 note=66 velocity=105 time=0.01811591666666667
EXTRACT: note_on channel=4 note=61 velocity=105 time=0
EXTRACT: note_on channel=8 note=66 velocity=127 time=0
EXTRACT: note_off channel=3 note=54 velocity=0 time=0.004528979166666667
EXTRACT: note_off channel=1 note=54 velocity=0 time=0.04981877083333334
EXTRACT: note_off channel=1 note=42 velocity=0 time=0
EXTRACT: note_off channel=4 note=61 velocity=0 time=0
EXTRACT: note_off channel=4 note=66 velocity=0 time=0
EXTRACT: note_off channel=0 note=54 velocity=0 time=0
EXTRACT: note_off channel=9 note=28 velocity=0 time=0.0407608125
EXTRACT: note_on channel=3 note=52 velocity=127 time=0.0135869375
EXTRACT: note_on channel=4 note=64 velocity=105 time=0
EXTRACT: note_on channel=4 note=59 velocity=105 time=0
EXTRACT: note_off channel=8 note=66 velocity=0 time=0
EXTRACT: note_on channel=8 note=52 velocity=127 time=0
EXTRACT: note_on channel=9 note=36 velocity=127 time=0
EXTRACT: note_on channel=9 note=36 velocity=127 time=0
EXTRACT: note_on channel=9 note=36 velocity=127 time=0
EXTRACT: note_on channel=9 note=36 velocity=127 time=0
EXTRACT: note_on channel=9 note=42 velocity=127 time=0
EXTRACT: note_off channel=4 note=59 velocity=0 time=0.05434775
EXTRACT: note_off channel=4 note=64 velocity=0 time=0
EXTRACT: note_off channel=9 note=42 velocity=0 time=0
EXTRACT: note_off channel=9 note=36 velocity=64 time=0
EXTRACT: note_off channel=9 note=36 velocity=64 time=0
EXTRACT: note_off channel=9 note=36 velocity=64 time=0
EXTRACT: note_off channel=9 note=36 velocity=64 time=0
EXTRACT: note_off channel=8 note=52 velocity=0 time=0.05434775
EXTRACT: note_off channel=3 note=52 velocity=0 time=0.009057958333333335
EXTRACT: note_on channel=1 note=40 velocity=110 time=0.09963754166666668
EXTRACT: note_on channel=1 note=52 velocity=110 time=0
EXTRACT: note_on channel=3 note=52 velocity=127 time=0
EXTRACT: note_on channel=4 note=64 velocity=105 time=0
EXTRACT: note_on channel=4 note=59 velocity=105 time=0
EXTRACT: note_on channel=8 note=64 velocity=127 time=0
EXTRACT: note_on channel=9 note=46 velocity=127 time=0
EXTRACT: note_on channel=0 note=52 velocity=120 time=0
EXTRACT: note_off channel=4 note=59 velocity=0 time=0.05434775
EXTRACT: note_off channel=4 note=64 velocity=0 time=0
EXTRACT: note_off channel=9 note=46 velocity=0 time=0
EXTRACT: note_off channel=3 note=52 velocity=0 time=0.05434775
EXTRACT: note_off channel=8 note=64 velocity=0 time=0
EXTRACT: note_on channel=9 note=36 velocity=127 time=0
EXTRACT: note_on channel=9 note=36 velocity=127 time=0
EXTRACT: note_on channel=9 note=36 velocity=127 time=0
EXTRACT: note_on channel=9 note=36 velocity=127 time=0
EXTRACT: note_off channel=1 note=52 velocity=0 time=0.05434775
EXTRACT: note_off channel=1 note=40 velocity=0 time=0
EXTRACT: note_off channel=9 note=36 velocity=64 time=0
EXTRACT: note_off channel=9 note=36 velocity=64 time=0
EXTRACT: note_off channel=9 note=36 velocity=64 time=0
EXTRACT: note_off channel=9 note=36 velocity=64 time=0
EXTRACT: note_off channel=0 note=52 velocity=0 time=0
EXTRACT: note_on channel=3 note=52 velocity=127 time=0.05434775
EXTRACT: note_on channel=4 note=64 velocity=105 time=0
EXTRACT: note_on channel=4 note=59 velocity=105 time=0
EXTRACT: note_on channel=8 note=52 velocity=127 time=0
EXTRACT: note_on channel=9 note=36 velocity=127 time=0
EXTRACT: note_on channel=9 note=36 velocity=127 time=0
EXTRACT: note_on channel=9 note=36 velocity=127 time=0
EXTRACT: note_on channel=9 note=36 velocity=127 time=0
EXTRACT: note_on channel=9 note=28 velocity=127 time=0
EXTRACT: note_on channel=9 note=42 velocity=127 time=0
EXTRACT: note_on channel=9 note=76 velocity=80 time=0
EXTRACT: note_off channel=9 note=76 velocity=0 time=0.027173875
EXTRACT: note_off channel=4 note=59 velocity=0 time=0.027173875
EXTRACT: note_off channel=4 note=64 velocity=0 time=0
EXTRACT: note_off channel=9 note=42 velocity=0 time=0
EXTRACT: note_off channel=9 note=36 velocity=64 time=0
EXTRACT: note_off channel=9 note=36 velocity=64 time=0
EXTRACT: note_off channel=9 note=36 velocity=64 time=0
EXTRACT: note_off channel=9 note=36 velocity=64 time=0
EXTRACT: note_off channel=8 note=52 velocity=0 time=0.05434775
EXTRACT: note_on channel=1 note=40 velocity=110 time=0.1086955
EXTRACT: note_on channel=1 note=52 velocity=110 time=0
EXTRACT: note_on channel=8 note=64 velocity=127 time=0
EXTRACT: note_on channel=9 note=36 velocity=127 time=0
EXTRACT: note_on channel=9 note=36 velocity=127 time=0
EXTRACT: note_on channel=9 note=36 velocity=127 time=0
EXTRACT: note_on channel=9 note=36 velocity=127 time=0
EXTRACT: note_on channel=9 note=46 velocity=127 time=0
EXTRACT: note_on channel=0 note=52 velocity=120 time=0
EXTRACT: note_off channel=9 note=46 velocity=0 time=0.05434775
EXTRACT: note_off channel=9 note=36 velocity=64 time=0
EXTRACT: note_off channel=9 note=36 velocity=64 time=0
EXTRACT: note_off channel=9 note=36 velocity=64 time=0
EXTRACT: note_off channel=9 note=36 velocity=64 time=0
EXTRACT: note_off channel=3 note=52 velocity=0 time=0.01811591666666667
EXTRACT: note_off channel=8 note=64 velocity=0 time=0.03623183333333334
EXTRACT: note_off channel=1 note=52 velocity=0 time=0.05434775
EXTRACT: note_off channel=1 note=40 velocity=0 time=0
EXTRACT: note_off channel=0 note=52 velocity=0 time=0
EXTRACT: note_off channel=9 note=28 velocity=0 time=0.0407608125
EXTRACT: note_on channel=3 note=66 velocity=127 time=0.0135869375
EXTRACT: note_on channel=4 note=66 velocity=105 time=0
EXTRACT: note_on channel=4 note=61 velocity=105 time=0
EXTRACT: note_on channel=8 note=54 velocity=127 time=0
EXTRACT: note_on channel=9 note=36 velocity=127 time=0
EXTRACT: note_on channel=9 note=36 velocity=127 time=0
EXTRACT: note_on channel=9 note=36 velocity=127 time=0
EXTRACT: note_on channel=9 note=36 velocity=127 time=0
EXTRACT: note_on channel=9 note=42 velocity=127 time=0
EXTRACT: note_off channel=4 note=61 velocity=0 time=0.05434775
EXTRACT: note_off channel=4 note=66 velocity=0 time=0
EXTRACT: note_off channel=9 note=42 velocity=0 time=0
EXTRACT: note_off channel=9 note=36 velocity=64 time=0
EXTRACT: note_off channel=9 note=36 velocity=64 time=0
EXTRACT: note_off channel=9 note=36 velocity=64 time=0
EXTRACT: note_off channel=9 note=36 velocity=64 time=0
EXTRACT: note_off channel=8 note=54 velocity=0 time=0.05434775
EXTRACT: note_on channel=1 note=42 velocity=110 time=0.1086955
EXTRACT: note_on channel=1 note=54 velocity=110 time=0
EXTRACT: note_on channel=4 note=66 velocity=105 time=0
EXTRACT: note_on channel=4 note=61 velocity=105 time=0
EXTRACT: note_on channel=8 note=66 velocity=127 time=0
EXTRACT: note_on channel=9 note=46 velocity=127 time=0
EXTRACT: note_on channel=0 note=54 velocity=120 time=0
EXTRACT: note_off channel=4 note=61 velocity=0 time=0.05434775
EXTRACT: note_off channel=4 note=66 velocity=0 time=0
EXTRACT: note_off channel=9 note=46 velocity=0 time=0
EXTRACT: note_off channel=8 note=66 velocity=0 time=0.05434775
EXTRACT: note_off channel=3 note=66 velocity=0 time=0.04528979166666667
EXTRACT: note_off channel=1 note=54 velocity=0 time=0.009057958333333335
EXTRACT: note_off channel=1 note=42 velocity=0 time=0
EXTRACT: note_off channel=0 note=54 velocity=0 time=0
EXTRACT: note_on channel=3 note=63 velocity=127 time=0.05434775
EXTRACT: note_on channel=4 note=66 velocity=105 time=0
EXTRACT: note_on channel=4 note=61 velocity=105 time=0
EXTRACT: note_on channel=8 note=54 velocity=127 time=0
EXTRACT: note_on channel=9 note=36 velocity=127 time=0
EXTRACT: note_on channel=9 note=36 velocity=127 time=0
EXTRACT: note_on channel=9 note=36 velocity=127 time=0
EXTRACT: note_on channel=9 note=36 velocity=127 time=0
EXTRACT: note_on channel=9 note=28 velocity=127 time=0
EXTRACT: note_on channel=9 note=42 velocity=127 time=0
EXTRACT: note_on channel=9 note=76 velocity=80 time=0
EXTRACT: note_off channel=9 note=76 velocity=0 time=0.027173875
EXTRACT: note_off channel=4 note=61 velocity=0 time=0.027173875
EXTRACT: note_off channel=4 note=66 velocity=0 time=0
EXTRACT: note_off channel=9 note=42 velocity=0 time=0
EXTRACT: note_off channel=9 note=36 velocity=64 time=0
EXTRACT: note_off channel=9 note=36 velocity=64 time=0
EXTRACT: note_off channel=9 note=36 velocity=64 time=0
EXTRACT: note_off channel=9 note=36 velocity=64 time=0
EXTRACT: note_off channel=8 note=54 velocity=0 time=0.05434775
EXTRACT: note_off channel=3 note=63 velocity=0 time=0.081521625
EXTRACT: note_on channel=1 note=42 velocity=110 time=0.027173875
EXTRACT: note_on channel=1 note=54 velocity=110 time=0
EXTRACT: note_on channel=3 note=61 velocity=127 time=0
EXTRACT: note_on channel=8 note=66 velocity=127 time=0
EXTRACT: note_on channel=9 note=46 velocity=127 time=0
EXTRACT: note_on channel=9 note=76 velocity=80 time=0
EXTRACT: note_on channel=0 note=54 velocity=120 time=0
EXTRACT: note_off channel=9 note=76 velocity=0 time=0.027173875
EXTRACT: note_off channel=9 note=46 velocity=0 time=0.027173875
EXTRACT: note_off channel=8 note=66 velocity=0 time=0.03623183333333334
EXTRACT: note_on channel=4 note=66 velocity=105 time=0.01811591666666667
EXTRACT: note_on channel=4 note=61 velocity=105 time=0
EXTRACT: note_on channel=8 note=66 velocity=127 time=0
EXTRACT: note_off channel=3 note=61 velocity=0 time=0.03623183333333334
EXTRACT: note_off channel=1 note=54 velocity=0 time=0.01811591666666667
EXTRACT: note_off channel=1 note=42 velocity=0 time=0
EXTRACT: note_off channel=4 note=61 velocity=0 time=0
EXTRACT: note_off channel=4 note=66 velocity=0 time=0
EXTRACT: note_off channel=0 note=54 velocity=0 time=0
EXTRACT: note_off channel=9 note=28 velocity=0 time=0.0407608125
EXTRACT: note_on channel=3 note=66 velocity=127 time=0.0135869375
EXTRACT: note_on channel=4 note=66 velocity=105 time=0
EXTRACT: note_on channel=4 note=61 velocity=105 time=0
EXTRACT: note_off channel=8 note=66 velocity=0 time=0
EXTRACT: note_on channel=8 note=54 velocity=127 time=0
EXTRACT: note_on channel=9 note=36 velocity=127 time=0
EXTRACT: note_on channel=9 note=36 velocity=127 time=0
EXTRACT: note_on channel=9 note=36 velocity=127 time=0
EXTRACT: note_on channel=9 note=36 velocity=127 time=0
EXTRACT: note_on channel=9 note=42 velocity=127 time=0
EXTRACT: note_off channel=4 note=61 velocity=0 time=0.05434775
EXTRACT: note_off channel=4 note=66 velocity=0 time=0
EXTRACT: note_off channel=9 note=42 velocity=0 time=0
EXTRACT: note_off channel=9 note=36 velocity=64 time=0
EXTRACT: note_off channel=9 note=36 velocity=64 time=0
EXTRACT: note_off channel=9 note=36 velocity=64 time=0
EXTRACT: note_off channel=9 note=36 velocity=64 time=0
EXTRACT: note_off channel=8 note=54 velocity=0 time=0.05434775
EXTRACT: note_on channel=1 note=42 velocity=110 time=0.1086955
EXTRACT: note_on channel=1 note=54 velocity=110 time=0
EXTRACT: note_on channel=4 note=66 velocity=105 time=0
EXTRACT: note_on channel=4 note=61 velocity=105 time=0
EXTRACT: note_on channel=8 note=66 velocity=127 time=0
EXTRACT: note_on channel=9 note=46 velocity=127 time=0
EXTRACT: note_on channel=0 note=54 velocity=120 time=0
EXTRACT: note_off channel=4 note=61 velocity=0 time=0.05434775
EXTRACT: note_off channel=4 note=66 velocity=0 time=0
EXTRACT: note_off channel=9 note=46 velocity=0 time=0
EXTRACT: note_off channel=8 note=66 velocity=0 time=0.05434775
EXTRACT: note_on channel=9 note=36 velocity=127 time=0
EXTRACT: note_on channel=9 note=36 velocity=127 time=0
EXTRACT: note_on channel=9 note=36 velocity=127 time=0
EXTRACT: note_on channel=9 note=36 velocity=127 time=0
EXTRACT: note_off channel=1 note=54 velocity=0 time=0.05434775
EXTRACT: note_off channel=1 note=42 velocity=0 time=0
EXTRACT: note_off channel=9 note=36 velocity=64 time=0
EXTRACT: note_off channel=9 note=36 velocity=64 time=0
EXTRACT: note_off channel=9 note=36 velocity=64 time=0
EXTRACT: note_off channel=9 note=36 velocity=64 time=0
EXTRACT: note_off channel=0 note=54 velocity=0 time=0
EXTRACT: note_off channel=3 note=66 velocity=0 time=0.03170285416666667
EXTRACT: note_on channel=3 note=63 velocity=127 time=0.022644895833333335
EXTRACT: note_on channel=4 note=66 velocity=105 time=0
EXTRACT: note_on channel=4 note=61 velocity=105 time=0
EXTRACT: note_on channel=6 note=65 velocity=115 time=0
EXTRACT: note_on channel=8 note=54 velocity=127 time=0
EXTRACT: note_on channel=9 note=36 velocity=127 time=0
EXTRACT: note_on channel=9 note=36 velocity=127 time=0
EXTRACT: note_on channel=9 note=36 velocity=127 time=0
EXTRACT: note_on channel=9 note=36 velocity=127 time=0
EXTRACT: note_on channel=9 note=28 velocity=127 time=0
EXTRACT: note_on channel=9 note=42 velocity=127 time=0
EXTRACT: note_on channel=9 note=76 velocity=80 time=0
EXTRACT: note_off channel=9 note=76 velocity=0 time=0.027173875
EXTRACT: note_off channel=4 note=61 velocity=0 time=0.027173875
EXTRACT: note_off channel=4 note=66 velocity=0 time=0
EXTRACT: note_off channel=9 note=42 velocity=0 time=0
EXTRACT: note_off channel=9 note=36 velocity=64 time=0
EXTRACT: note_off channel=9 note=36 velocity=64 time=0
EXTRACT: note_off channel=9 note=36 velocity=64 time=0
EXTRACT: note_off channel=9 note=36 velocity=64 time=0
EXTRACT: note_off channel=8 note=54 velocity=0 time=0.05434775
EXTRACT: note_off channel=3 note=63 velocity=0 time=0.08605060416666667
EXTRACT: note_on channel=1 note=42 velocity=110 time=0.022644895833333335
EXTRACT: note_on channel=1 note=54 velocity=110 time=0
EXTRACT: note_on channel=3 note=61 velocity=127 time=0
EXTRACT: note_on channel=8 note=66 velocity=127 time=0
EXTRACT: note_on channel=9 note=36 velocity=127 time=0
EXTRACT: note_on channel=9 note=36 velocity=127 time=0
EXTRACT: note_on channel=9 note=36 velocity=127 time=0
EXTRACT: note_on channel=9 note=36 velocity=127 time=0
EXTRACT: note_on channel=9 note=46 velocity=127 time=0
EXTRACT: note_on channel=0 note=54 velocity=120 time=0
EXTRACT: note_off channel=9 note=46 velocity=0 time=0.05434775
EXTRACT: note_off channel=9 note=36 velocity=64 time=0
EXTRACT: note_off channel=9 note=36 velocity=64 time=0
EXTRACT: note_off channel=9 note=36 velocity=64 time=0
EXTRACT: note_off channel=9 note=36 velocity=64 time=0
EXTRACT: note_off channel=8 note=66 velocity=0 time=0.05434775
EXTRACT: note_off channel=1 note=54 velocity=0 time=0.05434775
EXTRACT: note_off channel=1 note=42 velocity=0 time=0
EXTRACT: note_off channel=0 note=54 velocity=0 time=0
EXTRACT: note_off channel=3 note=61 velocity=0 time=0.009057958333333335
EXTRACT: note_off channel=9 note=28 velocity=0 time=0.03170285416666667
EXTRACT: note_on channel=3 note=54 velocity=127 time=0.0135869375
EXTRACT: note_on channel=4 note=66 velocity=105 time=0
EXTRACT: note_on channel=4 note=61 velocity=105 time=0
EXTRACT: note_on channel=8 note=54 velocity=127 time=0
EXTRACT: note_on channel=9 note=36 velocity=127 time=0
EXTRACT: note_on channel=9 note=36 velocity=127 time=0
EXTRACT: note_on channel=9 note=36 velocity=127 time=0
EXTRACT: note_on channel=9 note=49 velocity=85 time=0
EXTRACT: note_on channel=9 note=42 velocity=15 time=0
EXTRACT: note_on channel=9 note=37 velocity=70 time=0
EXTRACT: note_on channel=9 note=35 velocity=117 time=0
EXTRACT: note_off channel=9 note=35 velocity=0 time=0.027173875
EXTRACT: note_off channel=9 note=37 velocity=0 time=0
EXTRACT: note_off channel=9 note=42 velocity=0 time=0
EXTRACT: note_off channel=9 note=49 velocity=0 time=0
EXTRACT: note_off channel=4 note=61 velocity=0 time=0.027173875
EXTRACT: note_off channel=4 note=66 velocity=0 time=0
EXTRACT: note_off channel=9 note=36 velocity=64 time=0
EXTRACT: note_off channel=9 note=36 velocity=64 time=0
EXTRACT: note_off channel=9 note=36 velocity=64 time=0
EXTRACT: note_off channel=6 note=65 velocity=64 time=0.004528979166666667
EXTRACT: note_off channel=8 note=54 velocity=0 time=0.04981877083333334
EXTRACT: note_off channel=3 note=54 velocity=0 time=0.0135869375
EXTRACT: note_on channel=1 note=42 velocity=110 time=0.09510856250000001
EXTRACT: note_on channel=1 note=54 velocity=110 time=0
EXTRACT: note_on channel=3 note=54 velocity=127 time=0
EXTRACT: note_on channel=4 note=66 velocity=105 time=0
EXTRACT: note_on channel=4 note=61 velocity=105 time=0
EXTRACT: note_on channel=8 note=66 velocity=127 time=0
EXTRACT: note_on channel=0 note=54 velocity=120 time=0
EXTRACT: note_off channel=4 note=61 velocity=0 time=0.05434775
EXTRACT: note_off channel=4 note=66 velocity=0 time=0
EXTRACT: note_off channel=8 note=66 velocity=0 time=0.05434775
EXTRACT: note_off channel=3 note=54 velocity=0 time=0.022644895833333335
EXTRACT: note_off channel=1 note=54 velocity=0 time=0.03170285416666667
EXTRACT: note_off channel=1 note=42 velocity=0 time=0
EXTRACT: note_off channel=0 note=54 velocity=0 time=0
EXTRACT: note_on channel=3 note=49 velocity=127 time=0.05434775
EXTRACT: note_on channel=4 note=66 velocity=105 time=0
EXTRACT: note_on channel=4 note=61 velocity=105 time=0
EXTRACT: note_on channel=8 note=54 velocity=127 time=0
EXTRACT: note_off channel=4 note=61 velocity=0 time=0.05434775
EXTRACT: note_off channel=4 note=66 velocity=0 time=0
EXTRACT: note_off channel=8 note=54 velocity=0 time=0.05434775
EXTRACT: note_off channel=3 note=49 velocity=0 time=0.027173875
EXTRACT: note_on channel=1 note=42 velocity=110 time=0.081521625
EXTRACT: note_on channel=1 note=54 velocity=110 time=0
EXTRACT: note_on channel=3 note=49 velocity=127 time=0
EXTRACT: note_on channel=8 note=66 velocity=127 time=0
EXTRACT: note_on channel=0 note=54 velocity=120 time=0
EXTRACT: note_off channel=8 note=66 velocity=0 time=0.09057958333333334
EXTRACT: note_on channel=4 note=66 velocity=105 time=0.01811591666666667
EXTRACT: note_on channel=4 note=61 velocity=105 time=0
EXTRACT: note_on channel=8 note=66 velocity=127 time=0
EXTRACT: note_off channel=3 note=49 velocity=0 time=0.027173875
EXTRACT: note_off channel=1 note=54 velocity=0 time=0.027173875
EXTRACT: note_off channel=1 note=42 velocity=0 time=0
EXTRACT: note_off channel=4 note=61 velocity=0 time=0
EXTRACT: note_off channel=4 note=66 velocity=0 time=0
EXTRACT: note_off channel=0 note=54 velocity=0 time=0
EXTRACT: note_on channel=3 note=58 velocity=127 time=0.05434775
EXTRACT: note_on channel=4 note=66 velocity=105 time=0
EXTRACT: note_on channel=4 note=61 velocity=105 time=0
EXTRACT: note_off channel=8 note=66 velocity=0 time=0
EXTRACT: note_on channel=8 note=54 velocity=127 time=0
EXTRACT: note_off channel=4 note=61 velocity=0 time=0.05434775
EXTRACT: note_off channel=4 note=66 velocity=0 time=0
EXTRACT: note_off channel=3 note=58 velocity=0 time=0.04528979166666667
EXTRACT: note_off channel=8 note=54 velocity=0 time=0.009057958333333335
EXTRACT: note_on channel=1 note=42 velocity=110 time=0.1086955
EXTRACT: note_on channel=1 note=54 velocity=110 time=0
EXTRACT: note_on channel=3 note=58 velocity=127 time=0
EXTRACT: note_on channel=4 note=66 velocity=105 time=0
EXTRACT: note_on channel=4 note=61 velocity=105 time=0
EXTRACT: note_on channel=8 note=66 velocity=127 time=0
EXTRACT: note_on channel=0 note=54 velocity=120 time=0
EXTRACT: note_off channel=4 note=61 velocity=0 time=0.05434775
EXTRACT: note_off channel=4 note=66 velocity=0 time=0
EXTRACT: note_off channel=8 note=66 velocity=0 time=0.05434775
EXTRACT: note_off channel=3 note=58 velocity=0 time=0.022644895833333335
EXTRACT: note_off channel=1 note=54 velocity=0 time=0.03170285416666667
EXTRACT: note_off channel=1 note=42 velocity=0 time=0
EXTRACT: note_off channel=0 note=54 velocity=0 time=0
EXTRACT: note_on channel=3 note=54 velocity=127 time=0.05434775
EXTRACT: note_on channel=4 note=66 velocity=105 time=0
EXTRACT: note_on channel=4 note=61 velocity=105 time=0
EXTRACT: note_on channel=8 note=54 velocity=127 time=0
EXTRACT: note_on channel=9 note=49 velocity=55 time=0
EXTRACT: note_off channel=9 note=49 velocity=0 time=0.027173875
EXTRACT: note_off channel=4 note=61 velocity=0 time=0.027173875
EXTRACT: note_off channel=4 note=66 velocity=0 time=0
EXTRACT: note_off channel=8 note=54 velocity=0 time=0.05434775
EXTRACT: note_off channel=2 note=102 velocity=64 time=0.11322447916666667
EXTRACT: note_off channel=3 note=54 velocity=0 time=0.0135869375
EXTRACT: note_off channel=2 note=90 velocity=64 time=0.004528979166666667
EXTRACT: note_on channel=3 note=66 velocity=127 time=0.19474610416666668
EXTRACT: note_on channel=4 note=66 velocity=105 time=0
EXTRACT: note_on channel=4 note=61 velocity=105 time=0
EXTRACT: note_on channel=5 note=66 velocity=95 time=0
EXTRACT: note_on channel=9 note=36 velocity=127 time=0
EXTRACT: note_on channel=9 note=36 velocity=127 time=0
EXTRACT: note_on channel=9 note=36 velocity=127 time=0
EXTRACT: note_on channel=9 note=49 velocity=85 time=0
EXTRACT: note_on channel=9 note=37 velocity=70 time=0
EXTRACT: note_on channel=9 note=35 velocity=117 time=0
EXTRACT: note_off channel=5 note=66 velocity=0 time=0.027173875
EXTRACT: note_off channel=9 note=35 velocity=0 time=0
EXTRACT: note_off channel=9 note=37 velocity=0 time=0
EXTRACT: note_off channel=9 note=49 velocity=0 time=0
EXTRACT: note_off channel=4 note=61 velocity=0 time=0.027173875
EXTRACT: note_off channel=4 note=66 velocity=0 time=0
EXTRACT: note_off channel=9 note=36 velocity=64 time=0
EXTRACT: note_off channel=9 note=36 velocity=64 time=0
EXTRACT: note_off channel=9 note=36 velocity=64 time=0
EXTRACT: note_on channel=1 note=42 velocity=110 time=0.16304325
EXTRACT: note_on channel=1 note=54 velocity=110 time=0
EXTRACT: note_on channel=4 note=66 velocity=105 time=0
EXTRACT: note_on channel=4 note=61 velocity=105 time=0
EXTRACT: note_on channel=5 note=78 velocity=95 time=0
EXTRACT: note_on channel=0 note=54 velocity=120 time=0
EXTRACT: note_off channel=5 note=78 velocity=0 time=0.027173875
EXTRACT: note_off channel=4 note=61 velocity=0 time=0.027173875
EXTRACT: note_off channel=4 note=66 velocity=0 time=0
EXTRACT: note_off channel=1 note=54 velocity=0 time=0.1086955
EXTRACT: note_off channel=1 note=42 velocity=0 time=0
EXTRACT: note_off channel=0 note=54 velocity=0 time=0
EXTRACT: note_off channel=3 note=66 velocity=0 time=0.004528979166666667
EXTRACT: note_on channel=3 note=63 velocity=127 time=0.04981877083333334
EXTRACT: note_on channel=4 note=66 velocity=105 time=0
EXTRACT: note_on channel=4 note=61 velocity=105 time=0
EXTRACT: note_on channel=9 note=36 velocity=127 time=0
EXTRACT: note_on channel=9 note=36 velocity=127 time=0
EXTRACT: note_on channel=9 note=36 velocity=127 time=0
EXTRACT: note_on channel=9 note=37 velocity=70 time=0
EXTRACT: note_on channel=9 note=35 velocity=117 time=0
EXTRACT: note_off channel=9 note=35 velocity=0 time=0.027173875
EXTRACT: note_off channel=9 note=37 velocity=0 time=0
EXTRACT: note_off channel=4 note=61 velocity=0 time=0.027173875
EXTRACT: note_off channel=4 note=66 velocity=0 time=0
EXTRACT: note_off channel=9 note=36 velocity=64 time=0
EXTRACT: note_off channel=9 note=36 velocity=64 time=0
EXTRACT: note_off channel=9 note=36 velocity=64 time=0
EXTRACT: note_off channel=3 note=63 velocity=0 time=0.09963754166666668
EXTRACT: note_on channel=1 note=42 velocity=110 time=0.06340570833333334
EXTRACT: note_on channel=1 note=54 velocity=110 time=0
EXTRACT: note_on channel=3 note=61 velocity=127 time=0
EXTRACT: note_on channel=0 note=54 velocity=120 time=0
EXTRACT: note_on channel=4 note=66 velocity=105 time=0.1086955
EXTRACT: note_on channel=4 note=61 velocity=105 time=0
EXTRACT: note_off channel=1 note=54 velocity=0 time=0.05434775
EXTRACT: note_off channel=1 note=42 velocity=0 time=0
EXTRACT: note_off channel=4 note=61 velocity=0 time=0
EXTRACT: note_off channel=4 note=66 velocity=0 time=0
EXTRACT: note_off channel=0 note=54 velocity=0 time=0
EXTRACT: note_off channel=3 note=61 velocity=0 time=0.03170285416666667
EXTRACT: note_on channel=3 note=66 velocity=127 time=0.022644895833333335
EXTRACT: note_on channel=4 note=61 velocity=105 time=0
EXTRACT: note_on channel=4 note=56 velocity=105 time=0
EXTRACT: note_on channel=5 note=66 velocity=95 time=0
EXTRACT: note_on channel=9 note=36 velocity=127 time=0
EXTRACT: note_on channel=9 note=36 velocity=127 time=0
EXTRACT: note_on channel=9 note=36 velocity=127 time=0
EXTRACT: note_on channel=9 note=37 velocity=70 time=0
EXTRACT: note_on channel=9 note=35 velocity=117 time=0
EXTRACT: note_off channel=5 note=66 velocity=0 time=0.027173875
EXTRACT: note_off channel=9 note=35 velocity=0 time=0
EXTRACT: note_off channel=9 note=37 velocity=0 time=0
EXTRACT: note_off channel=4 note=56 velocity=0 time=0.027173875
EXTRACT: note_off channel=4 note=61 velocity=0 time=0
EXTRACT: note_off channel=9 note=36 velocity=64 time=0
EXTRACT: note_off channel=9 note=36 velocity=64 time=0
EXTRACT: note_off channel=9 note=36 velocity=64 time=0
EXTRACT: note_on channel=1 note=37 velocity=110 time=0.16304325
EXTRACT: note_on channel=1 note=49 velocity=110 time=0
EXTRACT: note_on channel=4 note=61 velocity=105 time=0
EXTRACT: note_on channel=4 note=56 velocity=105 time=0
EXTRACT: note_on channel=5 note=78 velocity=95 time=0
EXTRACT: note_on channel=0 note=49 velocity=120 time=0
EXTRACT: note_off channel=5 note=78 velocity=0 time=0.027173875
EXTRACT: note_off channel=4 note=56 velocity=0 time=0.027173875
EXTRACT: note_off channel=4 note=61 velocity=0 time=0
EXTRACT: note_off channel=1 note=49 velocity=0 time=0.1086955
EXTRACT: note_off channel=1 note=37 velocity=0 time=0
EXTRACT: note_off channel=0 note=49 velocity=0 time=0
EXTRACT: note_off channel=3 note=66 velocity=0 time=0.022644895833333335
EXTRACT: note_on channel=3 note=63 velocity=127 time=0.03170285416666667
EXTRACT: note_on channel=4 note=61 velocity=105 time=0
EXTRACT: note_on channel=4 note=56 velocity=105 time=0
EXTRACT: note_on channel=9 note=36 velocity=127 time=0
EXTRACT: note_on channel=9 note=36 velocity=127 time=0
EXTRACT: note_on channel=9 note=36 velocity=127 time=0
EXTRACT: note_on channel=9 note=37 velocity=70 time=0
EXTRACT: note_on channel=9 note=35 velocity=117 time=0
EXTRACT: note_off channel=9 note=35 velocity=0 time=0.027173875
EXTRACT: note_off channel=9 note=37 velocity=0 time=0
EXTRACT: note_off channel=4 note=56 velocity=0 time=0.027173875
EXTRACT: note_off channel=4 note=61 velocity=0 time=0
EXTRACT: note_off channel=9 note=36 velocity=64 time=0
EXTRACT: note_off channel=9 note=36 velocity=64 time=0
EXTRACT: note_off channel=9 note=36 velocity=64 time=0
EXTRACT: note_off channel=3 note=63 velocity=0 time=0.14039835416666668
EXTRACT: note_on channel=1 note=37 velocity=110 time=0.022644895833333335
EXTRACT: note_on channel=1 note=49 velocity=110 time=0
EXTRACT: note_on channel=3 note=61 velocity=127 time=0
EXTRACT: note_on channel=5 note=78 velocity=95 time=0
EXTRACT: note_on channel=0 note=49 velocity=120 time=0
EXTRACT: note_off channel=5 note=78 velocity=0 time=0.027173875
EXTRACT: note_off channel=1 note=49 velocity=0 time=0.13586937500000001
EXTRACT: note_off channel=1 note=37 velocity=0 time=0
EXTRACT: note_off channel=0 note=49 velocity=0 time=0
EXTRACT: note_off channel=3 note=61 velocity=0 time=0.004528979166666667
EXTRACT: note_on channel=3 note=70 velocity=127 time=0.04981877083333334
EXTRACT: note_on channel=4 note=63 velocity=105 time=0
EXTRACT: note_on channel=4 note=58 velocity=105 time=0
EXTRACT: note_on channel=5 note=66 velocity=95 time=0
EXTRACT: note_on channel=9 note=36 velocity=127 time=0
EXTRACT: note_on channel=9 note=36 velocity=127 time=0
EXTRACT: note_on channel=9 note=36 velocity=127 time=0
EXTRACT: note_on channel=9 note=37 velocity=70 time=0
EXTRACT: note_on channel=9 note=35 velocity=117 time=0
EXTRACT: note_off channel=5 note=66 velocity=0 time=0.027173875
EXTRACT: note_off channel=9 note=35 velocity=0 time=0
EXTRACT: note_off channel=9 note=37 velocity=0 time=0
EXTRACT: note_off channel=4 note=58 velocity=0 time=0.027173875
EXTRACT: note_off channel=4 note=63 velocity=0 time=0
EXTRACT: note_off channel=9 note=36 velocity=64 time=0
EXTRACT: note_off channel=9 note=36 velocity=64 time=0
EXTRACT: note_off channel=9 note=36 velocity=64 time=0
EXTRACT: note_off channel=3 note=70 velocity=0 time=0.14492733333333335
EXTRACT: note_on channel=1 note=39 velocity=110 time=0.01811591666666667
EXTRACT: note_on channel=1 note=51 velocity=110 time=0
EXTRACT: note_on channel=3 note=71 velocity=127 time=0
EXTRACT: note_on channel=4 note=63 velocity=105 time=0
EXTRACT: note_on channel=4 note=58 velocity=105 time=0
EXTRACT: note_on channel=5 note=78 velocity=95 time=0
EXTRACT: note_on channel=0 note=51 velocity=120 time=0
EXTRACT: note_off channel=5 note=78 velocity=0 time=0.027173875
EXTRACT: note_off channel=4 note=58 velocity=0 time=0.027173875
EXTRACT: note_off channel=4 note=63 velocity=0 time=0
EXTRACT: note_off channel=1 note=51 velocity=0 time=0.1086955
EXTRACT: note_off channel=1 note=39 velocity=0 time=0
EXTRACT: note_off channel=0 note=51 velocity=0 time=0
EXTRACT: note_off channel=3 note=71 velocity=0 time=0.027173875
EXTRACT: note_on channel=3 note=70 velocity=127 time=0.027173875
EXTRACT: note_on channel=4 note=63 velocity=105 time=0
EXTRACT: note_on channel=4 note=58 velocity=105 time=0
EXTRACT: note_on channel=9 note=36 velocity=127 time=0
EXTRACT: note_on channel=9 note=36 velocity=127 time=0
EXTRACT: note_on channel=9 note=36 velocity=127 time=0
EXTRACT: note_on channel=9 note=37 velocity=70 time=0
EXTRACT: note_on channel=9 note=35 velocity=117 time=0
EXTRACT: note_off channel=9 note=35 velocity=0 time=0.027173875
EXTRACT: note_off channel=9 note=37 velocity=0 time=0
EXTRACT: note_off channel=4 note=58 velocity=0 time=0.027173875
EXTRACT: note_off channel=4 note=63 velocity=0 time=0
EXTRACT: note_off channel=9 note=36 velocity=64 time=0
EXTRACT: note_off channel=9 note=36 velocity=64 time=0
EXTRACT: note_off channel=9 note=36 velocity=64 time=0
EXTRACT: note_off channel=3 note=70 velocity=0 time=0.12228243750000001
EXTRACT: note_on channel=1 note=39 velocity=110 time=0.0407608125
EXTRACT: note_on channel=1 note=51 velocity=110 time=0
EXTRACT: note_on channel=3 note=71 velocity=127 time=0
EXTRACT: note_on channel=0 note=51 velocity=120 time=0
EXTRACT: note_on channel=4 note=63 velocity=105 time=0.1086955
EXTRACT: note_on channel=4 note=58 velocity=105 time=0
EXTRACT: note_off channel=1 note=51 velocity=0 time=0.05434775
EXTRACT: note_off channel=1 note=39 velocity=0 time=0
EXTRACT: note_off channel=4 note=58 velocity=0 time=0
EXTRACT: note_off channel=4 note=63 velocity=0 time=0
EXTRACT: note_off channel=0 note=51 velocity=0 time=0
EXTRACT: note_off channel=3 note=71 velocity=0 time=0.027173875
EXTRACT: note_on channel=3 note=73 velocity=127 time=0.027173875
EXTRACT: note_on channel=4 note=63 velocity=105 time=0
EXTRACT: note_on channel=4 note=58 velocity=105 time=0
EXTRACT: note_on channel=5 note=66 velocity=95 time=0
EXTRACT: note_on channel=9 note=36 velocity=127 time=0
EXTRACT: note_on channel=9 note=36 velocity=127 time=0
EXTRACT: note_on channel=9 note=36 velocity=127 time=0
EXTRACT: note_on channel=9 note=37 velocity=70 time=0
EXTRACT: note_on channel=9 note=35 velocity=117 time=0
EXTRACT: note_off channel=5 note=66 velocity=0 time=0.027173875
EXTRACT: note_off channel=9 note=35 velocity=0 time=0
EXTRACT: note_off channel=9 note=37 velocity=0 time=0
EXTRACT: note_off channel=4 note=58 velocity=0 time=0.027173875
EXTRACT: note_off channel=4 note=63 velocity=0 time=0
EXTRACT: note_off channel=9 note=36 velocity=64 time=0
EXTRACT: note_off channel=9 note=36 velocity=64 time=0
EXTRACT: note_off channel=9 note=36 velocity=64 time=0
EXTRACT: note_off channel=3 note=73 velocity=0 time=0.15851427083333333
EXTRACT: note_on channel=1 note=39 velocity=110 time=0.004528979166666667
EXTRACT: note_on channel=1 note=51 velocity=110 time=0
EXTRACT: note_on channel=3 note=70 velocity=127 time=0
EXTRACT: note_on channel=4 note=63 velocity=105 time=0
EXTRACT: note_on channel=4 note=58 velocity=105 time=0
EXTRACT: note_on channel=5 note=78 velocity=95 time=0
EXTRACT: note_on channel=0 note=51 velocity=120 time=0
EXTRACT: note_off channel=5 note=78 velocity=0 time=0.027173875
EXTRACT: note_off channel=4 note=58 velocity=0 time=0.027173875
EXTRACT: note_off channel=4 note=63 velocity=0 time=0
EXTRACT: note_off channel=1 note=51 velocity=0 time=0.1086955
EXTRACT: note_off channel=1 note=39 velocity=0 time=0
EXTRACT: note_off channel=0 note=51 velocity=0 time=0
EXTRACT: note_off channel=3 note=70 velocity=0 time=0.027173875
EXTRACT: note_on channel=3 note=66 velocity=127 time=0.027173875
EXTRACT: note_on channel=4 note=63 velocity=105 time=0
EXTRACT: note_on channel=4 note=58 velocity=105 time=0
EXTRACT: note_on channel=9 note=36 velocity=127 time=0
EXTRACT: note_on channel=9 note=36 velocity=127 time=0
EXTRACT: note_on channel=9 note=36 velocity=127 time=0
EXTRACT: note_on channel=9 note=37 velocity=70 time=0
EXTRACT: note_on channel=9 note=35 velocity=117 time=0
EXTRACT: note_off channel=9 note=35 velocity=0 time=0.027173875
EXTRACT: note_off channel=9 note=37 velocity=0 time=0
EXTRACT: note_off channel=4 note=58 velocity=0 time=0.027173875
EXTRACT: note_off channel=4 note=63 velocity=0 time=0
EXTRACT: note_off channel=9 note=36 velocity=64 time=0
EXTRACT: note_off channel=9 note=36 velocity=64 time=0
EXTRACT: note_off channel=9 note=36 velocity=64 time=0
EXTRACT: note_on channel=1 note=39 velocity=110 time=0.16304325
EXTRACT: note_on channel=1 note=51 velocity=110 time=0
EXTRACT: note_on channel=5 note=78 velocity=95 time=0
EXTRACT: note_on channel=0 note=51 velocity=120 time=0
EXTRACT: note_off channel=5 note=78 velocity=0 time=0.027173875
EXTRACT: note_off channel=3 note=66 velocity=0 time=0.04528979166666667
EXTRACT: note_off channel=1 note=51 velocity=0 time=0.09057958333333334
EXTRACT: note_off channel=1 note=39 velocity=0 time=0
EXTRACT: note_off channel=0 note=51 velocity=0 time=0
EXTRACT: note_on channel=3 note=66 velocity=127 time=0.05434775
EXTRACT: note_on channel=4 note=59 velocity=105 time=0
EXTRACT: note_on channel=4 note=54 velocity=105 time=0
EXTRACT: note_on channel=5 note=66 velocity=95 time=0
EXTRACT: note_on channel=9 note=36 velocity=127 time=0
EXTRACT: note_on channel=9 note=36 velocity=127 time=0
EXTRACT: note_on channel=9 note=36 velocity=127 time=0
EXTRACT: note_on channel=9 note=37 velocity=70 time=0
EXTRACT: note_on channel=9 note=35 velocity=117 time=0
EXTRACT: note_off channel=5 note=66 velocity=0 time=0.027173875
EXTRACT: note_off channel=9 note=35 velocity=0 time=0
EXTRACT: note_off channel=9 note=37 velocity=0 time=0
EXTRACT: note_off channel=4 note=54 velocity=0 time=0.027173875
EXTRACT: note_off channel=4 note=59 velocity=0 time=0
EXTRACT: note_off channel=9 note=36 velocity=64 time=0
EXTRACT: note_off channel=9 note=36 velocity=64 time=0
EXTRACT: note_off channel=9 note=36 velocity=64 time=0
EXTRACT: note_on channel=1 note=35 velocity=110 time=0.16304325
EXTRACT: note_on channel=1 note=47 velocity=110 time=0
EXTRACT: note_on channel=4 note=59 velocity=105 time=0
EXTRACT: note_on channel=4 note=54 velocity=105 time=0
EXTRACT: note_on channel=5 note=78 velocity=95 time=0
EXTRACT: note_on channel=0 note=47 velocity=120 time=0
EXTRACT: note_off channel=5 note=78 velocity=0 time=0.027173875
EXTRACT: note_off channel=4 note=54 velocity=0 time=0.027173875
EXTRACT: note_off channel=4 note=59 velocity=0 time=0
EXTRACT: note_off channel=1 note=47 velocity=0 time=0.1086955
EXTRACT: note_off channel=1 note=35 velocity=0 time=0
EXTRACT: note_off channel=0 note=47 velocity=0 time=0
EXTRACT: note_off channel=3 note=66 velocity=0 time=0.01811591666666667
EXTRACT: note_on channel=3 note=63 velocity=127 time=0.03623183333333334
EXTRACT: note_on channel=4 note=59 velocity=105 time=0
EXTRACT: note_on channel=4 note=54 velocity=105 time=0
EXTRACT: note_on channel=9 note=36 velocity=127 time=0
EXTRACT: note_on channel=9 note=36 velocity=127 time=0
EXTRACT: note_on channel=9 note=36 velocity=127 time=0
EXTRACT: note_on channel=9 note=37 velocity=70 time=0
EXTRACT: note_on channel=9 note=35 velocity=117 time=0
EXTRACT: note_off channel=9 note=35 velocity=0 time=0.027173875
EXTRACT: note_off channel=9 note=37 velocity=0 time=0
EXTRACT: note_off channel=4 note=54 velocity=0 time=0.027173875
EXTRACT: note_off channel=4 note=59 velocity=0 time=0
EXTRACT: note_off channel=9 note=36 velocity=64 time=0
EXTRACT: note_off channel=9 note=36 velocity=64 time=0
EXTRACT: note_off channel=9 note=36 velocity=64 time=0
EXTRACT: note_off channel=3 note=63 velocity=0 time=0.12681141666666668
EXTRACT: note_on channel=1 note=35 velocity=110 time=0.03623183333333334
EXTRACT: note_on channel=1 note=47 velocity=110 time=0
EXTRACT: note_on channel=3 note=61 velocity=127 time=0
EXTRACT: note_on channel=0 note=47 velocity=120 time=0
EXTRACT: note_on channel=4 note=59 velocity=105 time=0.1086955
EXTRACT: note_on channel=4 note=54 velocity=105 time=0
EXTRACT: note_off channel=1 note=47 velocity=0 time=0.05434775
EXTRACT: note_off channel=1 note=35 velocity=0 time=0
EXTRACT: note_off channel=4 note=54 velocity=0 time=0
EXTRACT: note_off channel=4 note=59 velocity=0 time=0
EXTRACT: note_off channel=0 note=47 velocity=0 time=0
EXTRACT: note_off channel=3 note=61 velocity=0 time=0.01811591666666667
EXTRACT: note_on channel=3 note=66 velocity=127 time=0.03623183333333334
EXTRACT: note_on channel=4 note=61 velocity=105 time=0
EXTRACT: note_on channel=4 note=56 velocity=105 time=0
EXTRACT: note_on channel=5 note=66 velocity=95 time=0
EXTRACT: note_on channel=9 note=36 velocity=127 time=0
EXTRACT: note_on channel=9 note=36 velocity=127 time=0
EXTRACT: note_on channel=9 note=36 velocity=127 time=0
EXTRACT: note_on channel=9 note=37 velocity=70 time=0
EXTRACT: note_on channel=9 note=35 velocity=117 time=0
EXTRACT: note_off channel=5 note=66 velocity=0 time=0.027173875
EXTRACT: note_off channel=9 note=35 velocity=0 time=0
EXTRACT: note_off channel=9 note=37 velocity=0 time=0
EXTRACT: note_off channel=4 note=56 velocity=0 time=0.027173875
EXTRACT: note_off channel=4 note=61 velocity=0 time=0
EXTRACT: note_off channel=9 note=36 velocity=64 time=0
EXTRACT: note_off channel=9 note=36 velocity=64 time=0
EXTRACT: note_off channel=9 note=36 velocity=64 time=0
EXTRACT: note_on channel=1 note=37 velocity=110 time=0.16304325
EXTRACT: note_on channel=1 note=49 velocity=110 time=0
EXTRACT: note_on channel=4 note=61 velocity=105 time=0
EXTRACT: note_on channel=4 note=56 velocity=105 time=0
EXTRACT: note_on channel=5 note=78 velocity=95 time=0
EXTRACT: note_on channel=0 note=49 velocity=120 time=0
EXTRACT: note_off channel=5 note=78 velocity=0 time=0.027173875
EXTRACT: note_off channel=4 note=56 velocity=0 time=0.027173875
EXTRACT: note_off channel=4 note=61 velocity=0 time=0
EXTRACT: note_off channel=1 note=49 velocity=0 time=0.1086955
EXTRACT: note_off channel=1 note=37 velocity=0 time=0
EXTRACT: note_off channel=0 note=49 velocity=0 time=0
EXTRACT: note_on channel=3 note=63 velocity=127 time=0.05434775
EXTRACT: note_on channel=4 note=61 velocity=105 time=0
EXTRACT: note_on channel=4 note=56 velocity=105 time=0
EXTRACT: note_on channel=9 note=36 velocity=127 time=0
EXTRACT: note_on channel=9 note=36 velocity=127 time=0
EXTRACT: note_on channel=9 note=36 velocity=127 time=0
EXTRACT: note_on channel=9 note=37 velocity=70 time=0
EXTRACT: note_on channel=9 note=35 velocity=117 time=0
EXTRACT: note_off channel=3 note=66 velocity=0 time=0.004528979166666667
EXTRACT: note_off channel=9 note=35 velocity=0 time=0.022644895833333335
EXTRACT: note_off channel=9 note=37 velocity=0 time=0
EXTRACT: note_off channel=4 note=56 velocity=0 time=0.027173875
EXTRACT: note_off channel=4 note=61 velocity=0 time=0
EXTRACT: note_off channel=9 note=36 velocity=64 time=0
EXTRACT: note_off channel=9 note=36 velocity=64 time=0
EXTRACT: note_off channel=9 note=36 velocity=64 time=0
EXTRACT: note_off channel=3 note=63 velocity=0 time=0.13134039583333335
EXTRACT: note_on channel=1 note=37 velocity=110 time=0.03170285416666667
EXTRACT: note_on channel=1 note=49 velocity=110 time=0
EXTRACT: note_on channel=3 note=61 velocity=127 time=0
EXTRACT: note_on channel=5 note=78 velocity=95 time=0
EXTRACT: note_on channel=0 note=49 velocity=120 time=0
EXTRACT: note_off channel=5 note=78 velocity=0 time=0.027173875
EXTRACT: note_off channel=1 note=49 velocity=0 time=0.13586937500000001
EXTRACT: note_off channel=1 note=37 velocity=0 time=0
EXTRACT: note_off channel=0 note=49 velocity=0 time=0
EXTRACT: note_off channel=3 note=61 velocity=0 time=0.03170285416666667
EXTRACT: note_on channel=4 note=66 velocity=105 time=0.022644895833333335
EXTRACT: note_on channel=4 note=61 velocity=105 time=0
EXTRACT: note_on channel=5 note=66 velocity=95 time=0
EXTRACT: note_on channel=9 note=36 velocity=127 time=0
EXTRACT: note_on channel=9 note=36 velocity=127 time=0
EXTRACT: note_on channel=9 note=36 velocity=127 time=0
EXTRACT: note_on channel=9 note=37 velocity=70 time=0
EXTRACT: note_on channel=9 note=35 velocity=117 time=0
EXTRACT: note_off channel=5 note=66 velocity=0 time=0.027173875
EXTRACT: note_off channel=9 note=35 velocity=0 time=0
EXTRACT: note_off channel=9 note=37 velocity=0 time=0
EXTRACT: note_off channel=4 note=61 velocity=0 time=0.027173875
EXTRACT: note_off channel=4 note=66 velocity=0 time=0
EXTRACT: note_off channel=9 note=36 velocity=64 time=0
EXTRACT: note_off channel=9 note=36 velocity=64 time=0
EXTRACT: note_off channel=9 note=36 velocity=64 time=0
EXTRACT: note_on channel=1 note=42 velocity=110 time=0.16304325
EXTRACT: note_on channel=1 note=54 velocity=110 time=0
EXTRACT: note_on channel=3 note=42 velocity=127 time=0
EXTRACT: note_on channel=4 note=66 velocity=105 time=0
EXTRACT: note_on channel=4 note=61 velocity=105 time=0
EXTRACT: note_on channel=5 note=78 velocity=95 time=0
EXTRACT: note_on channel=0 note=54 velocity=120 time=0
EXTRACT: note_off channel=5 note=78 velocity=0 time=0.027173875
EXTRACT: note_off channel=4 note=61 velocity=0 time=0.027173875
EXTRACT: note_off channel=4 note=66 velocity=0 time=0
EXTRACT: note_off channel=1 note=54 velocity=0 time=0.1086955
EXTRACT: note_off channel=1 note=42 velocity=0 time=0
EXTRACT: note_off channel=0 note=54 velocity=0 time=0
EXTRACT: note_off channel=3 note=42 velocity=0 time=0.03170285416666667
EXTRACT: note_on channel=3 note=46 velocity=127 time=0.022644895833333335
EXTRACT: note_on channel=4 note=66 velocity=105 time=0
EXTRACT: note_on channel=4 note=61 velocity=105 time=0
EXTRACT: note_on channel=9 note=36 velocity=127 time=0
EXTRACT: note_on channel=9 note=36 velocity=127 time=0
EXTRACT: note_on channel=9 note=36 velocity=127 time=0
EXTRACT: note_on channel=9 note=37 velocity=70 time=0
EXTRACT: note_on channel=9 note=35 velocity=117 time=0
EXTRACT: note_off channel=9 note=35 velocity=0 time=0.027173875
EXTRACT: note_off channel=9 note=37 velocity=0 time=0
EXTRACT: note_off channel=4 note=61 velocity=0 time=0.027173875
EXTRACT: note_off channel=4 note=66 velocity=0 time=0
EXTRACT: note_off channel=9 note=36 velocity=64 time=0
EXTRACT: note_off channel=9 note=36 velocity=64 time=0
EXTRACT: note_off channel=9 note=36 velocity=64 time=0
EXTRACT: note_off channel=3 note=46 velocity=0 time=0.14039835416666668
EXTRACT: note_on channel=1 note=42 velocity=110 time=0.022644895833333335
EXTRACT: note_on channel=1 note=54 velocity=110 time=0
EXTRACT: note_on channel=3 note=49 velocity=127 time=0
EXTRACT: note_on channel=0 note=54 velocity=120 time=0
EXTRACT: note_on channel=4 note=66 velocity=105 time=0.1086955
EXTRACT: note_on channel=4 note=61 velocity=105 time=0
EXTRACT: note_off channel=1 note=54 velocity=0 time=0.05434775
EXTRACT: note_off channel=1 note=42 velocity=0 time=0
EXTRACT: note_off channel=4 note=61 velocity=0 time=0
EXTRACT: note_off channel=4 note=66 velocity=0 time=0
EXTRACT: note_off channel=0 note=54 velocity=0 time=0
EXTRACT: note_off channel=3 note=49 velocity=0 time=0.03170285416666667
EXTRACT: note_on channel=3 note=42 velocity=127 time=0.022644895833333335
EXTRACT: note_on channel=4 note=66 velocity=105 time=0
EXTRACT: note_on channel=4 note=61 velocity=105 time=0
EXTRACT: note_on channel=5 note=66 velocity=95 time=0
EXTRACT: note_on channel=9 note=36 velocity=127 time=0
EXTRACT: note_on channel=9 note=36 velocity=127 time=0
EXTRACT: note_on channel=9 note=36 velocity=127 time=0
EXTRACT: note_on channel=9 note=37 velocity=70 time=0
EXTRACT: note_on channel=9 note=35 velocity=117 time=0
EXTRACT: note_off channel=5 note=66 velocity=0 time=0.027173875
EXTRACT: note_off channel=9 note=35 velocity=0 time=0
EXTRACT: note_off channel=9 note=37 velocity=0 time=0
EXTRACT: note_off channel=4 note=61 velocity=0 time=0.027173875
EXTRACT: note_off channel=4 note=66 velocity=0 time=0
EXTRACT: note_off channel=9 note=36 velocity=64 time=0
EXTRACT: note_off channel=9 note=36 velocity=64 time=0
EXTRACT: note_off channel=9 note=36 velocity=64 time=0
EXTRACT: note_on channel=1 note=42 velocity=110 time=0.16304325
EXTRACT: note_on channel=1 note=54 velocity=110 time=0
EXTRACT: note_on channel=4 note=66 velocity=105 time=0
EXTRACT: note_on channel=4 note=61 velocity=105 time=0
EXTRACT: note_on channel=5 note=78 velocity=95 time=0
EXTRACT: note_on channel=0 note=54 velocity=120 time=0
EXTRACT: note_off channel=5 note=78 velocity=0 time=0.027173875
EXTRACT: note_off channel=4 note=61 velocity=0 time=0.027173875
EXTRACT: note_off channel=4 note=66 velocity=0 time=0
EXTRACT: note_off channel=1 note=54 velocity=0 time=0.1086955
EXTRACT: note_off channel=1 note=42 velocity=0 time=0
EXTRACT: note_off channel=0 note=54 velocity=0 time=0
EXTRACT: note_off channel=3 note=42 velocity=0 time=0.01811591666666667
EXTRACT: note_on channel=4 note=66 velocity=105 time=0.03623183333333334
EXTRACT: note_on channel=4 note=61 velocity=105 time=0
EXTRACT: note_on channel=9 note=36 velocity=127 time=0
EXTRACT: note_on channel=9 note=36 velocity=127 time=0
EXTRACT: note_on channel=9 note=36 velocity=127 time=0
EXTRACT: note_on channel=9 note=37 velocity=70 time=0
EXTRACT: note_on channel=9 note=35 velocity=117 time=0
EXTRACT: note_off channel=9 note=35 velocity=0 time=0.027173875
EXTRACT: note_off channel=9 note=37 velocity=0 time=0
EXTRACT: note_off channel=4 note=61 velocity=0 time=0.027173875
EXTRACT: note_off channel=4 note=66 velocity=0 time=0
EXTRACT: note_off channel=9 note=36 velocity=64 time=0
EXTRACT: note_off channel=9 note=36 velocity=64 time=0
EXTRACT: note_off channel=9 note=36 velocity=64 time=0
EXTRACT: note_on channel=1 note=42 velocity=110 time=0.16304325
EXTRACT: note_on channel=1 note=54 velocity=110 time=0
EXTRACT: note_on channel=5 note=78 velocity=95 time=0
EXTRACT: note_on channel=0 note=54 velocity=120 time=0
EXTRACT: note_off channel=5 note=78 velocity=0 time=0.027173875
EXTRACT: note_off channel=1 note=54 velocity=0 time=0.13586937500000001
EXTRACT: note_off channel=1 note=42 velocity=0 time=0
EXTRACT: note_off channel=0 note=54 velocity=0 time=0
EXTRACT: note_on channel=3 note=66 velocity=127 time=0.05434775
EXTRACT: note_on channel=4 note=66 velocity=105 time=0
EXTRACT: note_on channel=4 note=61 velocity=105 time=0
EXTRACT: note_on channel=5 note=66 velocity=95 time=0
EXTRACT: note_on channel=8 note=54 velocity=127 time=0
EXTRACT: note_on channel=9 note=36 velocity=127 time=0
EXTRACT: note_on channel=9 note=36 velocity=127 time=0
EXTRACT: note_on channel=9 note=36 velocity=127 time=0
EXTRACT: note_on channel=9 note=36 velocity=127 time=0
EXTRACT: note_on channel=9 note=49 velocity=85 time=0
EXTRACT: note_off channel=5 note=66 velocity=0 time=0.027173875
EXTRACT: note_off channel=9 note=49 velocity=0 time=0
EXTRACT: note_off channel=4 note=61 velocity=0 time=0.027173875
EXTRACT: note_off channel=4 note=66 velocity=0 time=0
EXTRACT: note_off channel=9 note=36 velocity=64 time=0
EXTRACT: note_off channel=9 note=36 velocity=64 time=0
EXTRACT: note_off channel=9 note=36 velocity=64 time=0
EXTRACT: note_off channel=9 note=36 velocity=64 time=0
EXTRACT: note_off channel=8 note=54 velocity=0 time=0.05434775
EXTRACT: note_on channel=1 note=42 velocity=110 time=0.1086955
EXTRACT: note_on channel=1 note=54 velocity=110 time=0
EXTRACT: note_on channel=4 note=66 velocity=105 time=0
EXTRACT: note_on channel=4 note=61 velocity=105 time=0
EXTRACT: note_on channel=5 note=78 velocity=95 time=0
EXTRACT: note_on channel=8 note=66 velocity=127 time=0
EXTRACT: note_on channel=0 note=54 velocity=120 time=0
EXTRACT: note_off channel=5 note=78 velocity=0 time=0.027173875
EXTRACT: note_off channel=4 note=61 velocity=0 time=0.027173875
EXTRACT: note_off channel=4 note=66 velocity=0 time=0
EXTRACT: note_off channel=8 note=66 velocity=0 time=0.05434775
EXTRACT: note_off channel=3 note=66 velocity=0 time=0.04981877083333334
EXTRACT: note_off channel=1 note=54 velocity=0 time=0.004528979166666667
EXTRACT: note_off channel=1 note=42 velocity=0 time=0
EXTRACT: note_off channel=0 note=54 velocity=0 time=0
EXTRACT: note_on channel=3 note=63 velocity=127 time=0.05434775
EXTRACT: note_on channel=4 note=66 velocity=105 time=0
EXTRACT: note_on channel=4 note=61 velocity=105 time=0
EXTRACT: note_on channel=8 note=54 velocity=127 time=0
EXTRACT: note_on channel=9 note=36 velocity=127 time=0
EXTRACT: note_on channel=9 note=36 velocity=127 time=0
EXTRACT: note_on channel=9 note=36 velocity=127 time=0
EXTRACT: note_on channel=9 note=36 velocity=127 time=0
EXTRACT: note_on channel=9 note=28 velocity=127 time=0
EXTRACT: note_on channel=9 note=76 velocity=80 time=0
EXTRACT: note_off channel=9 note=76 velocity=0 time=0.027173875
EXTRACT: note_off channel=4 note=61 velocity=0 time=0.027173875
EXTRACT: note_off channel=4 note=66 velocity=0 time=0
EXTRACT: note_off channel=9 note=36 velocity=64 time=0
EXTRACT: note_off channel=9 note=36 velocity=64 time=0
EXTRACT: note_off channel=9 note=36 velocity=64 time=0
EXTRACT: note_off channel=9 note=36 velocity=64 time=0
EXTRACT: note_off channel=8 note=54 velocity=0 time=0.05434775
EXTRACT: note_off channel=3 note=63 velocity=0 time=0.07246366666666668
EXTRACT: note_on channel=1 note=42 velocity=110 time=0.03623183333333334
EXTRACT: note_on channel=1 note=54 velocity=110 time=0
EXTRACT: note_on channel=3 note=61 velocity=127 time=0
EXTRACT: note_on channel=8 note=66 velocity=127 time=0
EXTRACT: note_on channel=9 note=76 velocity=80 time=0
EXTRACT: note_on channel=0 note=54 velocity=120 time=0
EXTRACT: note_off channel=9 note=76 velocity=0 time=0.027173875
EXTRACT: note_on channel=4 note=66 velocity=105 time=0.081521625
EXTRACT: note_on channel=4 note=61 velocity=105 time=0
EXTRACT: note_off channel=8 note=66 velocity=0 time=0
EXTRACT: note_off channel=1 note=54 velocity=0 time=0.05434775
EXTRACT: note_off channel=1 note=42 velocity=0 time=0
EXTRACT: note_off channel=4 note=61 velocity=0 time=0
EXTRACT: note_off channel=4 note=66 velocity=0 time=0
EXTRACT: note_off channel=0 note=54 velocity=0 time=0
EXTRACT: note_off channel=3 note=61 velocity=0 time=0.0135869375
EXTRACT: note_off channel=9 note=28 velocity=0 time=0.027173875
EXTRACT: note_on channel=3 note=66 velocity=127 time=0.0135869375
EXTRACT: note_on channel=4 note=61 velocity=105 time=0
EXTRACT: note_on channel=4 note=56 velocity=105 time=0
EXTRACT: note_on channel=5 note=66 velocity=95 time=0
EXTRACT: note_on channel=8 note=49 velocity=127 time=0
EXTRACT: note_on channel=9 note=36 velocity=127 time=0
EXTRACT: note_on channel=9 note=36 velocity=127 time=0
EXTRACT: note_on channel=9 note=36 velocity=127 time=0
EXTRACT: note_on channel=9 note=36 velocity=127 time=0
EXTRACT: note_off channel=5 note=66 velocity=0 time=0.027173875
EXTRACT: note_off channel=4 note=56 velocity=0 time=0.027173875
EXTRACT: note_off channel=4 note=61 velocity=0 time=0
EXTRACT: note_off channel=9 note=36 velocity=64 time=0
EXTRACT: note_off channel=9 note=36 velocity=64 time=0
EXTRACT: note_off channel=9 note=36 velocity=64 time=0
EXTRACT: note_off channel=9 note=36 velocity=64 time=0
EXTRACT: note_off channel=8 note=49 velocity=0 time=0.05434775
EXTRACT: note_on channel=1 note=37 velocity=110 time=0.1086955
EXTRACT: note_on channel=1 note=49 velocity=110 time=0
EXTRACT: note_on channel=4 note=61 velocity=105 time=0
EXTRACT: note_on channel=4 note=56 velocity=105 time=0
EXTRACT: note_on channel=5 note=78 velocity=95 time=0
EXTRACT: note_on channel=8 note=61 velocity=127 time=0
EXTRACT: note_on channel=0 note=49 velocity=120 time=0
EXTRACT: note_off channel=5 note=78 velocity=0 time=0.027173875
EXTRACT: note_off channel=4 note=56 velocity=0 time=0.027173875
EXTRACT: note_off channel=4 note=61 velocity=0 time=0
EXTRACT: note_off channel=8 note=61 velocity=0 time=0.05434775
EXTRACT: note_on channel=9 note=36 velocity=127 time=0
EXTRACT: note_on channel=9 note=36 velocity=127 time=0
EXTRACT: note_on channel=9 note=36 velocity=127 time=0
EXTRACT: note_on channel=9 note=36 velocity=127 time=0
EXTRACT: note_off channel=1 note=49 velocity=0 time=0.05434775
EXTRACT: note_off channel=1 note=37 velocity=0 time=0
EXTRACT: note_off channel=9 note=36 velocity=64 time=0
EXTRACT: note_off channel=9 note=36 velocity=64 time=0
EXTRACT: note_off channel=9 note=36 velocity=64 time=0
EXTRACT: note_off channel=9 note=36 velocity=64 time=0
EXTRACT: note_off channel=0 note=49 velocity=0 time=0
EXTRACT: note_off channel=3 note=66 velocity=0 time=0.0407608125
EXTRACT: note_on channel=3 note=63 velocity=127 time=0.0135869375
EXTRACT: note_on channel=4 note=61 velocity=105 time=0
EXTRACT: note_on channel=4 note=56 velocity=105 time=0
EXTRACT: note_on channel=8 note=49 velocity=127 time=0
EXTRACT: note_on channel=9 note=36 velocity=127 time=0
EXTRACT: note_on channel=9 note=36 velocity=127 time=0
EXTRACT: note_on channel=9 note=36 velocity=127 time=0
EXTRACT: note_on channel=9 note=36 velocity=127 time=0
EXTRACT: note_on channel=9 note=28 velocity=127 time=0
EXTRACT: note_on channel=9 note=76 velocity=80 time=0
EXTRACT: note_off channel=9 note=76 velocity=0 time=0.027173875
EXTRACT: note_off channel=4 note=56 velocity=0 time=0.027173875
EXTRACT: note_off channel=4 note=61 velocity=0 time=0
EXTRACT: note_off channel=9 note=36 velocity=64 time=0
EXTRACT: note_off channel=9 note=36 velocity=64 time=0
EXTRACT: note_off channel=9 note=36 velocity=64 time=0
EXTRACT: note_off channel=9 note=36 velocity=64 time=0
EXTRACT: note_off channel=8 note=49 velocity=0 time=0.05434775
EXTRACT: note_off channel=3 note=63 velocity=0 time=0.09057958333333334
EXTRACT: note_on channel=1 note=37 velocity=110 time=0.01811591666666667
EXTRACT: note_on channel=1 note=49 velocity=110 time=0
EXTRACT: note_on channel=3 note=61 velocity=127 time=0
EXTRACT: note_on channel=5 note=78 velocity=95 time=0
EXTRACT: note_on channel=8 note=61 velocity=127 time=0
EXTRACT: note_on channel=9 note=36 velocity=127 time=0
EXTRACT: note_on channel=9 note=36 velocity=127 time=0
EXTRACT: note_on channel=9 note=36 velocity=127 time=0
EXTRACT: note_on channel=9 note=36 velocity=127 time=0
EXTRACT: note_on channel=0 note=49 velocity=120 time=0
EXTRACT: note_off channel=5 note=78 velocity=0 time=0.027173875
EXTRACT: note_off channel=9 note=36 velocity=64 time=0.027173875
EXTRACT: note_off channel=9 note=36 velocity=64 time=0
EXTRACT: note_off channel=9 note=36 velocity=64 time=0
EXTRACT: note_off channel=9 note=36 velocity=64 time=0
EXTRACT: note_off channel=8 note=61 velocity=0 time=0.05434775
EXTRACT: note_off channel=1 note=49 velocity=0 time=0.05434775
EXTRACT: note_off channel=1 note=37 velocity=0 time=0
EXTRACT: note_off channel=0 note=49 velocity=0 time=0
EXTRACT: note_off channel=3 note=61 velocity=0 time=0.022644895833333335
EXTRACT: note_off channel=9 note=28 velocity=0 time=0.01811591666666667
EXTRACT: note_on channel=3 note=70 velocity=127 time=0.0135869375
EXTRACT: note_on channel=4 note=63 velocity=105 time=0
EXTRACT: note_on channel=4 note=58 velocity=105 time=0
EXTRACT: note_on channel=5 note=66 velocity=95 time=0
EXTRACT: note_on channel=8 note=51 velocity=127 time=0
EXTRACT: note_on channel=9 note=36 velocity=127 time=0
EXTRACT: note_on channel=9 note=36 velocity=127 time=0
EXTRACT: note_on channel=9 note=36 velocity=127 time=0
EXTRACT: note_on channel=9 note=36 velocity=127 time=0
EXTRACT: note_off channel=5 note=66 velocity=0 time=0.027173875
EXTRACT: note_off channel=4 note=58 velocity=0 time=0.027173875
EXTRACT: note_off channel=4 note=63 velocity=0 time=0
EXTRACT: note_off channel=9 note=36 velocity=64 time=0
EXTRACT: note_off channel=9 note=36 velocity=64 time=0
EXTRACT: note_off channel=9 note=36 velocity=64 time=0
EXTRACT: note_off channel=9 note=36 velocity=64 time=0
EXTRACT: note_off channel=8 note=51 velocity=0 time=0.05434775
EXTRACT: note_off channel=3 note=70 velocity=0 time=0.081521625
EXTRACT: note_on channel=1 note=39 velocity=110 time=0.027173875
EXTRACT: note_on channel=1 note=51 velocity=110 time=0
EXTRACT: note_on channel=3 note=71 velocity=127 time=0
EXTRACT: note_on channel=4 note=63 velocity=105 time=0
EXTRACT: note_on channel=4 note=58 velocity=105 time=0
EXTRACT: note_on channel=5 note=78 velocity=95 time=0
EXTRACT: note_on channel=8 note=63 velocity=127 time=0
EXTRACT: note_on channel=0 note=51 velocity=120 time=0
EXTRACT: note_off channel=5 note=78 velocity=0 time=0.027173875
EXTRACT: note_off channel=4 note=58 velocity=0 time=0.027173875
EXTRACT: note_off channel=4 note=63 velocity=0 time=0
EXTRACT: note_off channel=8 note=63 velocity=0 time=0.05434775
EXTRACT: note_off channel=1 note=51 velocity=0 time=0.05434775
EXTRACT: note_off channel=1 note=39 velocity=0 time=0
EXTRACT: note_off channel=0 note=51 velocity=0 time=0
EXTRACT: note_off channel=3 note=71 velocity=0 time=0.04528979166666667
EXTRACT: note_on channel=3 note=70 velocity=127 time=0.009057958333333335
EXTRACT: note_on channel=4 note=63 velocity=105 time=0
EXTRACT: note_on channel=4 note=58 velocity=105 time=0
EXTRACT: note_on channel=8 note=51 velocity=127 time=0
EXTRACT: note_on channel=9 note=36 velocity=127 time=0
EXTRACT: note_on channel=9 note=36 velocity=127 time=0
EXTRACT: note_on channel=9 note=36 velocity=127 time=0
EXTRACT: note_on channel=9 note=36 velocity=127 time=0
EXTRACT: note_on channel=9 note=28 velocity=127 time=0
EXTRACT: note_on channel=9 note=76 velocity=80 time=0
EXTRACT: note_off channel=9 note=76 velocity=0 time=0.027173875
EXTRACT: note_off channel=4 note=58 velocity=0 time=0.027173875
EXTRACT: note_off channel=4 note=63 velocity=0 time=0
EXTRACT: note_off channel=9 note=36 velocity=64 time=0
EXTRACT: note_off channel=9 note=36 velocity=64 time=0
EXTRACT: note_off channel=9 note=36 velocity=64 time=0
EXTRACT: note_off channel=9 note=36 velocity=64 time=0
EXTRACT: note_off channel=8 note=51 velocity=0 time=0.05434775
EXTRACT: note_off channel=3 note=70 velocity=0 time=0.05887672916666667
EXTRACT: note_on channel=1 note=39 velocity=110 time=0.04981877083333334
EXTRACT: note_on channel=1 note=51 velocity=110 time=0
EXTRACT: note_on channel=3 note=71 velocity=127 time=0
EXTRACT: note_on channel=8 note=63 velocity=127 time=0
EXTRACT: note_on channel=9 note=76 velocity=80 time=0
EXTRACT: note_on channel=0 note=51 velocity=120 time=0
EXTRACT: note_off channel=9 note=76 velocity=0 time=0.027173875
EXTRACT: note_on channel=4 note=63 velocity=105 time=0.081521625
EXTRACT: note_on channel=4 note=58 velocity=105 time=0
EXTRACT: note_off channel=8 note=63 velocity=0 time=0
EXTRACT: note_off channel=1 note=51 velocity=0 time=0.05434775
EXTRACT: note_off channel=1 note=39 velocity=0 time=0
EXTRACT: note_off channel=4 note=58 velocity=0 time=0
EXTRACT: note_off channel=4 note=63 velocity=0 time=0
EXTRACT: note_off channel=0 note=51 velocity=0 time=0
EXTRACT: note_off channel=3 note=71 velocity=0 time=0.027173875
EXTRACT: note_off channel=9 note=28 velocity=0 time=0.0135869375
EXTRACT: note_on channel=3 note=73 velocity=127 time=0.0135869375
EXTRACT: note_on channel=4 note=63 velocity=105 time=0
EXTRACT: note_on channel=4 note=58 velocity=105 time=0
EXTRACT: note_on channel=5 note=66 velocity=95 time=0
EXTRACT: note_on channel=8 note=51 velocity=127 time=0
EXTRACT: note_on channel=9 note=36 velocity=127 time=0
EXTRACT: note_on channel=9 note=36 velocity=127 time=0
EXTRACT: note_on channel=9 note=36 velocity=127 time=0
EXTRACT: note_on channel=9 note=36 velocity=127 time=0
EXTRACT: note_off channel=5 note=66 velocity=0 time=0.027173875
EXTRACT: note_off channel=4 note=58 velocity=0 time=0.027173875
EXTRACT: note_off channel=4 note=63 velocity=0 time=0
EXTRACT: note_off channel=9 note=36 velocity=64 time=0
EXTRACT: note_off channel=9 note=36 velocity=64 time=0
EXTRACT: note_off channel=9 note=36 velocity=64 time=0
EXTRACT: note_off channel=9 note=36 velocity=64 time=0
EXTRACT: note_off channel=8 note=51 velocity=0 time=0.05434775
EXTRACT: note_off channel=3 note=73 velocity=0 time=0.08605060416666667
EXTRACT: note_on channel=1 note=39 velocity=110 time=0.022644895833333335
EXTRACT: note_on channel=1 note=51 velocity=110 time=0
EXTRACT: note_on channel=3 note=70 velocity=127 time=0
EXTRACT: note_on channel=4 note=63 velocity=105 time=0
EXTRACT: note_on channel=4 note=58 velocity=105 time=0
EXTRACT: note_on channel=5 note=78 velocity=95 time=0
EXTRACT: note_on channel=8 note=63 velocity=127 time=0
EXTRACT: note_on channel=0 note=51 velocity=120 time=0
EXTRACT: note_off channel=5 note=78 velocity=0 time=0.027173875
EXTRACT: note_off channel=4 note=58 velocity=0 time=0.027173875
EXTRACT: note_off channel=4 note=63 velocity=0 time=0
EXTRACT: note_off channel=8 note=63 velocity=0 time=0.05434775
EXTRACT: note_on channel=9 note=36 velocity=127 time=0
EXTRACT: note_on channel=9 note=36 velocity=127 time=0
EXTRACT: note_on channel=9 note=36 velocity=127 time=0
EXTRACT: note_on channel=9 note=36 velocity=127 time=0
EXTRACT: note_off channel=1 note=51 velocity=0 time=0.05434775
EXTRACT: note_off channel=1 note=39 velocity=0 time=0
EXTRACT: note_off channel=9 note=36 velocity=64 time=0
EXTRACT: note_off channel=9 note=36 velocity=64 time=0
EXTRACT: note_off channel=9 note=36 velocity=64 time=0
EXTRACT: note_off channel=9 note=36 velocity=64 time=0
EXTRACT: note_off channel=0 note=51 velocity=0 time=0
EXTRACT: note_off channel=3 note=70 velocity=0 time=0.03623183333333334
EXTRACT: note_on channel=3 note=66 velocity=127 time=0.01811591666666667
EXTRACT: note_on channel=4 note=63 velocity=105 time=0
EXTRACT: note_on channel=4 note=58 velocity=105 time=0
EXTRACT: note_on channel=8 note=51 velocity=127 time=0
EXTRACT: note_on channel=9 note=36 velocity=127 time=0
EXTRACT: note_on channel=9 note=36 velocity=127 time=0
EXTRACT: note_on channel=9 note=36 velocity=127 time=0
EXTRACT: note_on channel=9 note=36 velocity=127 time=0
EXTRACT: note_on channel=9 note=28 velocity=127 time=0
EXTRACT: note_on channel=9 note=76 velocity=80 time=0
EXTRACT: note_off channel=9 note=76 velocity=0 time=0.027173875
EXTRACT: note_off channel=4 note=58 velocity=0 time=0.027173875
EXTRACT: note_off channel=4 note=63 velocity=0 time=0
EXTRACT: note_off channel=9 note=36 velocity=64 time=0
EXTRACT: note_off channel=9 note=36 velocity=64 time=0
EXTRACT: note_off channel=9 note=36 velocity=64 time=0
EXTRACT: note_off channel=9 note=36 velocity=64 time=0
EXTRACT: note_off channel=8 note=51 velocity=0 time=0.05434775
EXTRACT: note_on channel=1 note=39 velocity=110 time=0.1086955
EXTRACT: note_on channel=1 note=51 velocity=110 time=0
EXTRACT: note_on channel=5 note=78 velocity=95 time=0
EXTRACT: note_on channel=8 note=63 velocity=127 time=0
EXTRACT: note_on channel=9 note=36 velocity=127 time=0
EXTRACT: note_on channel=9 note=36 velocity=127 time=0
EXTRACT: note_on channel=9 note=36 velocity=127 time=0
EXTRACT: note_on channel=9 note=36 velocity=127 time=0
EXTRACT: note_on channel=0 note=51 velocity=120 time=0
EXTRACT: note_off channel=5 note=78 velocity=0 time=0.027173875
EXTRACT: note_off channel=9 note=36 velocity=64 time=0.027173875
EXTRACT: note_off channel=9 note=36 velocity=64 time=0
EXTRACT: note_off channel=9 note=36 velocity=64 time=0
EXTRACT: note_off channel=9 note=36 velocity=64 time=0
EXTRACT: note_off channel=3 note=66 velocity=0 time=0.01811591666666667
EXTRACT: note_off channel=8 note=63 velocity=0 time=0.03623183333333334
EXTRACT: note_off channel=1 note=51 velocity=0 time=0.05434775
EXTRACT: note_off channel=1 note=39 velocity=0 time=0
EXTRACT: note_off channel=0 note=51 velocity=0 time=0
EXTRACT: note_off channel=9 note=28 velocity=0 time=0.0407608125
EXTRACT: note_on channel=3 note=66 velocity=127 time=0.0135869375
EXTRACT: note_on channel=4 note=59 velocity=105 time=0
EXTRACT: note_on channel=4 note=54 velocity=105 time=0
EXTRACT: note_on channel=5 note=66 velocity=95 time=0
EXTRACT: note_on channel=8 note=47 velocity=127 time=0
EXTRACT: note_on channel=9 note=36 velocity=127 time=0
EXTRACT: note_on channel=9 note=36 velocity=127 time=0
EXTRACT: note_on channel=9 note=36 velocity=127 time=0
EXTRACT: note_on channel=9 note=36 velocity=127 time=0
EXTRACT: note_off channel=5 note=66 velocity=0 time=0.027173875
EXTRACT: note_off channel=4 note=54 velocity=0 time=0.027173875
EXTRACT: note_off channel=4 note=59 velocity=0 time=0
EXTRACT: note_off channel=9 note=36 velocity=64 time=0
EXTRACT: note_off channel=9 note=36 velocity=64 time=0
EXTRACT: note_off channel=9 note=36 velocity=64 time=0
EXTRACT: note_off channel=9 note=36 velocity=64 time=0
EXTRACT: note_off channel=8 note=47 velocity=0 time=0.05434775
EXTRACT: note_on channel=1 note=35 velocity=110 time=0.1086955
EXTRACT: note_on channel=1 note=47 velocity=110 time=0
EXTRACT: note_on channel=4 note=59 velocity=105 time=0
EXTRACT: note_on channel=4 note=54 velocity=105 time=0
EXTRACT: note_on channel=5 note=78 velocity=95 time=0
EXTRACT: note_on channel=8 note=59 velocity=127 time=0
EXTRACT: note_on channel=0 note=47 velocity=120 time=0
EXTRACT: note_off channel=5 note=78 velocity=0 time=0.027173875
EXTRACT: note_off channel=4 note=54 velocity=0 time=0.027173875
EXTRACT: note_off channel=4 note=59 velocity=0 time=0
EXTRACT: note_off channel=8 note=59 velocity=0 time=0.05434775
EXTRACT: note_off channel=1 note=47 velocity=0 time=0.05434775
EXTRACT: note_off channel=1 note=35 velocity=0 time=0
EXTRACT: note_off channel=0 note=47 velocity=0 time=0
EXTRACT: note_off channel=3 note=66 velocity=0 time=0.027173875
EXTRACT: note_on channel=3 note=63 velocity=127 time=0.027173875
EXTRACT: note_on channel=4 note=59 velocity=105 time=0
EXTRACT: note_on channel=4 note=54 velocity=105 time=0
EXTRACT: note_on channel=8 note=47 velocity=127 time=0
EXTRACT: note_on channel=9 note=36 velocity=127 time=0
EXTRACT: note_on channel=9 note=36 velocity=127 time=0
EXTRACT: note_on channel=9 note=36 velocity=127 time=0
EXTRACT: note_on channel=9 note=36 velocity=127 time=0
EXTRACT: note_on channel=9 note=28 velocity=127 time=0
EXTRACT: note_on channel=9 note=76 velocity=80 time=0
EXTRACT: note_off channel=9 note=76 velocity=0 time=0.027173875
EXTRACT: note_off channel=4 note=54 velocity=0 time=0.027173875
EXTRACT: note_off channel=4 note=59 velocity=0 time=0
EXTRACT: note_off channel=9 note=36 velocity=64 time=0
EXTRACT: note_off channel=9 note=36 velocity=64 time=0
EXTRACT: note_off channel=9 note=36 velocity=64 time=0
EXTRACT: note_off channel=9 note=36 velocity=64 time=0
EXTRACT: note_off channel=8 note=47 velocity=0 time=0.05434775
EXTRACT: note_off channel=3 note=63 velocity=0 time=0.09510856250000001
EXTRACT: note_on channel=1 note=35 velocity=110 time=0.0135869375
EXTRACT: note_on channel=1 note=47 velocity=110 time=0
EXTRACT: note_on channel=3 note=61 velocity=127 time=0
EXTRACT: note_on channel=8 note=59 velocity=127 time=0
EXTRACT: note_on channel=9 note=76 velocity=80 time=0
EXTRACT: note_on channel=0 note=47 velocity=120 time=0
EXTRACT: note_off channel=9 note=76 velocity=0 time=0.027173875
EXTRACT: note_on channel=4 note=59 velocity=105 time=0.081521625
EXTRACT: note_on channel=4 note=54 velocity=105 time=0
EXTRACT: note_off channel=8 note=59 velocity=0 time=0
EXTRACT: note_off channel=3 note=61 velocity=0 time=0.0407608125
EXTRACT: note_off channel=1 note=47 velocity=0 time=0.0135869375
EXTRACT: note_off channel=1 note=35 velocity=0 time=0
EXTRACT: note_off channel=4 note=54 velocity=0 time=0
EXTRACT: note_off channel=4 note=59 velocity=0 time=0
EXTRACT: note_off channel=0 note=47 velocity=0 time=0
EXTRACT: note_off channel=9 note=28 velocity=0 time=0.0407608125
EXTRACT: note_on channel=3 note=66 velocity=127 time=0.0135869375
EXTRACT: note_on channel=4 note=61 velocity=105 time=0
EXTRACT: note_on channel=4 note=56 velocity=105 time=0
EXTRACT: note_on channel=5 note=66 velocity=95 time=0
EXTRACT: note_on channel=8 note=49 velocity=127 time=0
EXTRACT: note_on channel=9 note=36 velocity=127 time=0
EXTRACT: note_on channel=9 note=36 velocity=127 time=0
EXTRACT: note_on channel=9 note=36 velocity=127 time=0
EXTRACT: note_on channel=9 note=36 velocity=127 time=0
EXTRACT: note_off channel=5 note=66 velocity=0 time=0.027173875
EXTRACT: note_off channel=4 note=56 velocity=0 time=0.027173875
EXTRACT: note_off channel=4 note=61 velocity=0 time=0
EXTRACT: note_off channel=9 note=36 velocity=64 time=0
EXTRACT: note_off channel=9 note=36 velocity=64 time=0
EXTRACT: note_off channel=9 note=36 velocity=64 time=0
EXTRACT: note_off channel=9 note=36 velocity=64 time=0
EXTRACT: note_off channel=8 note=49 velocity=0 time=0.05434775
EXTRACT: note_on channel=1 note=37 velocity=110 time=0.1086955
EXTRACT: note_on channel=1 note=49 velocity=110 time=0
EXTRACT: note_on channel=4 note=61 velocity=105 time=0
EXTRACT: note_on channel=4 note=56 velocity=105 time=0
EXTRACT: note_on channel=5 note=78 velocity=95 time=0
EXTRACT: note_on channel=8 note=61 velocity=127 time=0
EXTRACT: note_on channel=0 note=49 velocity=120 time=0
EXTRACT: note_off channel=5 note=78 velocity=0 time=0.027173875
EXTRACT: note_off channel=4 note=56 velocity=0 time=0.027173875
EXTRACT: note_off channel=4 note=61 velocity=0 time=0
EXTRACT: note_off channel=8 note=61 velocity=0 time=0.05434775
EXTRACT: note_on channel=9 note=36 velocity=127 time=0
EXTRACT: note_on channel=9 note=36 velocity=127 time=0
EXTRACT: note_on channel=9 note=36 velocity=127 time=0
EXTRACT: note_on channel=9 note=36 velocity=127 time=0
EXTRACT: note_off channel=1 note=49 velocity=0 time=0.05434775
EXTRACT: note_off channel=1 note=37 velocity=0 time=0
EXTRACT: note_off channel=9 note=36 velocity=64 time=0
EXTRACT: note_off channel=9 note=36 velocity=64 time=0
EXTRACT: note_off channel=9 note=36 velocity=64 time=0
EXTRACT: note_off channel=9 note=36 velocity=64 time=0
EXTRACT: note_off channel=0 note=49 velocity=0 time=0
EXTRACT: note_off channel=3 note=66 velocity=0 time=0.03170285416666667
EXTRACT: note_on channel=3 note=63 velocity=127 time=0.022644895833333335
EXTRACT: note_on channel=4 note=61 velocity=105 time=0
EXTRACT: note_on channel=4 note=56 velocity=105 time=0
EXTRACT: note_on channel=6 note=65 velocity=115 time=0
EXTRACT: note_on channel=8 note=49 velocity=127 time=0
EXTRACT: note_on channel=9 note=36 velocity=127 time=0
EXTRACT: note_on channel=9 note=36 velocity=127 time=0
EXTRACT: note_on channel=9 note=36 velocity=127 time=0
EXTRACT: note_on channel=9 note=36 velocity=127 time=0
EXTRACT: note_on channel=9 note=28 velocity=127 time=0
EXTRACT: note_on channel=9 note=76 velocity=80 time=0
EXTRACT: note_off channel=9 note=76 velocity=0 time=0.027173875
EXTRACT: note_off channel=4 note=56 velocity=0 time=0.027173875
EXTRACT: note_off channel=4 note=61 velocity=0 time=0
EXTRACT: note_off channel=9 note=36 velocity=64 time=0
EXTRACT: note_off channel=9 note=36 velocity=64 time=0
EXTRACT: note_off channel=9 note=36 velocity=64 time=0
EXTRACT: note_off channel=9 note=36 velocity=64 time=0
EXTRACT: note_off channel=8 note=49 velocity=0 time=0.05434775
EXTRACT: note_off channel=3 note=63 velocity=0 time=0.081521625
EXTRACT: note_on channel=1 note=37 velocity=110 time=0.027173875
EXTRACT: note_on channel=1 note=49 velocity=110 time=0
EXTRACT: note_on channel=3 note=61 velocity=127 time=0
EXTRACT: note_on channel=5 note=78 velocity=95 time=0
EXTRACT: note_on channel=8 note=61 velocity=127 time=0
EXTRACT: note_on channel=9 note=36 velocity=127 time=0
EXTRACT: note_on channel=9 note=36 velocity=127 time=0
EXTRACT: note_on channel=9 note=36 velocity=127 time=0
EXTRACT: note_on channel=9 note=36 velocity=127 time=0
EXTRACT: note_on channel=0 note=49 velocity=120 time=0
EXTRACT: note_off channel=5 note=78 velocity=0 time=0.027173875
EXTRACT: note_off channel=9 note=36 velocity=64 time=0.027173875
EXTRACT: note_off channel=9 note=36 velocity=64 time=0
EXTRACT: note_off channel=9 note=36 velocity=64 time=0
EXTRACT: note_off channel=9 note=36 velocity=64 time=0
EXTRACT: note_off channel=8 note=61 velocity=0 time=0.05434775
EXTRACT: note_off channel=1 note=49 velocity=0 time=0.05434775
EXTRACT: note_off channel=1 note=37 velocity=0 time=0
EXTRACT: note_off channel=0 note=49 velocity=0 time=0
EXTRACT: note_off channel=3 note=61 velocity=0 time=0.009057958333333335
EXTRACT: note_off channel=9 note=28 velocity=0 time=0.03170285416666667
EXTRACT: note_on channel=12 note=103 velocity=110 time=0.0135869375
EXTRACT: note_off channel=12 note=103 velocity=0 time=0.027173875
EXTRACT: note_off channel=6 note=65 velocity=64 time=0.03170285416666667
EXTRACT: note_on channel=3 note=70 velocity=127 time=0.37590527083333336
EXTRACT: note_on channel=9 note=36 velocity=127 time=0
EXTRACT: note_on channel=9 note=36 velocity=127 time=0
EXTRACT: note_on channel=9 note=36 velocity=127 time=0
EXTRACT: note_on channel=9 note=36 velocity=127 time=0
EXTRACT: note_on channel=9 note=49 velocity=85 time=0
EXTRACT: note_on channel=9 note=35 velocity=92 time=0
EXTRACT: note_off channel=9 note=49 velocity=0 time=0.027173875
EXTRACT: note_off channel=9 note=36 velocity=64 time=0.027173875
EXTRACT: note_off channel=9 note=36 velocity=64 time=0
EXTRACT: note_off channel=9 note=36 velocity=64 time=0
EXTRACT: note_off channel=9 note=36 velocity=64 time=0
EXTRACT: note_off channel=9 note=35 velocity=0 time=0.10416652083333333
EXTRACT: note_off channel=3 note=70 velocity=0 time=0.1494563125
EXTRACT: note_on channel=3 note=70 velocity=127 time=0.12681141666666668
EXTRACT: note_on channel=9 note=36 velocity=127 time=0
EXTRACT: note_on channel=9 note=36 velocity=127 time=0
EXTRACT: note_on channel=9 note=36 velocity=127 time=0
EXTRACT: note_on channel=9 note=36 velocity=127 time=0
EXTRACT: note_on channel=9 note=49 velocity=85 time=0
EXTRACT: note_on channel=9 note=35 velocity=96 time=0
EXTRACT: note_off channel=9 note=49 velocity=0 time=0.027173875
EXTRACT: note_off channel=9 note=36 velocity=64 time=0.027173875
EXTRACT: note_off channel=9 note=36 velocity=64 time=0
EXTRACT: note_off channel=9 note=36 velocity=64 time=0
EXTRACT: note_off channel=9 note=36 velocity=64 time=0
EXTRACT: note_off channel=9 note=35 velocity=0 time=0.07246366666666668
EXTRACT: note_off channel=3 note=70 velocity=0 time=0.24456487500000001
EXTRACT: note_on channel=3 note=68 velocity=127 time=0.06340570833333334
EXTRACT: note_on channel=9 note=36 velocity=127 time=0
EXTRACT: note_on channel=9 note=36 velocity=127 time=0
EXTRACT: note_on channel=9 note=36 velocity=127 time=0
EXTRACT: note_on channel=9 note=36 velocity=127 time=0
EXTRACT: note_on channel=9 note=49 velocity=85 time=0
EXTRACT: note_on channel=9 note=35 velocity=96 time=0
EXTRACT: note_off channel=9 note=49 velocity=0 time=0.027173875
EXTRACT: note_off channel=9 note=36 velocity=64 time=0.027173875
EXTRACT: note_off channel=9 note=36 velocity=64 time=0
EXTRACT: note_off channel=9 note=36 velocity=64 time=0
EXTRACT: note_off channel=9 note=36 velocity=64 time=0
EXTRACT: note_off channel=9 note=35 velocity=0 time=0.07246366666666668
EXTRACT: note_off channel=3 note=68 velocity=0 time=0.14039835416666668
EXTRACT: note_on channel=3 note=65 velocity=1 time=0.16757222916666667
EXTRACT: note_on channel=4 note=66 velocity=105 time=0
EXTRACT: note_on channel=4 note=61 velocity=105 time=0
EXTRACT: note_on channel=8 note=54 velocity=127 time=0
EXTRACT: note_on channel=9 note=36 velocity=127 time=0
EXTRACT: note_on channel=9 note=36 velocity=127 time=0
EXTRACT: note_on channel=9 note=36 velocity=127 time=0
EXTRACT: note_on channel=9 note=36 velocity=127 time=0
EXTRACT: note_on channel=9 note=42 velocity=127 time=0
EXTRACT: note_on channel=9 note=49 velocity=85 time=0
EXTRACT: note_on channel=13 note=66 velocity=115 time=0
EXTRACT: note_on channel=13 note=54 velocity=115 time=0
EXTRACT: note_on channel=14 note=90 velocity=115 time=0
EXTRACT: note_off channel=9 note=49 velocity=0 time=0.027173875
EXTRACT: note_off channel=4 note=61 velocity=0 time=0.027173875
EXTRACT: note_off channel=4 note=66 velocity=0 time=0
EXTRACT: note_off channel=9 note=42 velocity=0 time=0
EXTRACT: note_off channel=9 note=36 velocity=64 time=0
EXTRACT: note_off channel=9 note=36 velocity=64 time=0
EXTRACT: note_off channel=9 note=36 velocity=64 time=0
EXTRACT: note_off channel=9 note=36 velocity=64 time=0
EXTRACT: note_off channel=8 note=54 velocity=0 time=0.05434775
EXTRACT: note_on channel=1 note=42 velocity=110 time=0.1086955
EXTRACT: note_on channel=1 note=54 velocity=110 time=0
EXTRACT: note_on channel=4 note=66 velocity=105 time=0
EXTRACT: note_on channel=4 note=61 velocity=105 time=0
EXTRACT: note_on channel=8 note=66 velocity=127 time=0
EXTRACT: note_on channel=9 note=46 velocity=127 time=0
EXTRACT: note_on channel=0 note=54 velocity=120 time=0
EXTRACT: note_off channel=4 note=61 velocity=0 time=0.05434775
EXTRACT: note_off channel=4 note=66 velocity=0 time=0
EXTRACT: note_off channel=9 note=46 velocity=0 time=0
EXTRACT: note_off channel=13 note=54 velocity=0 time=0
EXTRACT: note_off channel=13 note=66 velocity=0 time=0
EXTRACT: note_off channel=14 note=90 velocity=0 time=0.01811591666666667
EXTRACT: note_off channel=8 note=66 velocity=0 time=0.03623183333333334
EXTRACT: note_on channel=13 note=61 velocity=115 time=0
EXTRACT: note_on channel=13 note=49 velocity=115 time=0
EXTRACT: note_on channel=14 note=85 velocity=115 time=0
EXTRACT: note_off channel=1 note=54 velocity=0 time=0.05434775
EXTRACT: note_off channel=1 note=42 velocity=0 time=0
EXTRACT: note_off channel=0 note=54 velocity=0 time=0
EXTRACT: note_off channel=3 note=65 velocity=0 time=0.05434775
EXTRACT: note_on channel=4 note=66 velocity=105 time=0
EXTRACT: note_on channel=4 note=61 velocity=105 time=0
EXTRACT: note_on channel=8 note=54 velocity=127 time=0
EXTRACT: note_on channel=9 note=36 velocity=127 time=0
EXTRACT: note_on channel=9 note=36 velocity=127 time=0
EXTRACT: note_on channel=9 note=36 velocity=127 time=0
EXTRACT: note_on channel=9 note=36 velocity=127 time=0
EXTRACT: note_on channel=9 note=28 velocity=127 time=0
EXTRACT: note_on channel=9 note=42 velocity=127 time=0
EXTRACT: note_on channel=9 note=76 velocity=80 time=0
EXTRACT: note_off channel=13 note=49 velocity=0 time=0
EXTRACT: note_off channel=13 note=61 velocity=0 time=0
EXTRACT: note_off channel=14 note=85 velocity=0 time=0
EXTRACT: note_off channel=9 note=76 velocity=0 time=0.027173875
EXTRACT: note_off channel=4 note=61 velocity=0 time=0.027173875
EXTRACT: note_off channel=4 note=66 velocity=0 time=0
EXTRACT: note_off channel=9 note=42 velocity=0 time=0
EXTRACT: note_off channel=9 note=36 velocity=64 time=0
EXTRACT: note_off channel=9 note=36 velocity=64 time=0
EXTRACT: note_off channel=9 note=36 velocity=64 time=0
EXTRACT: note_off channel=9 note=36 velocity=64 time=0
EXTRACT: note_off channel=8 note=54 velocity=0 time=0.05434775
EXTRACT: note_on channel=1 note=42 velocity=110 time=0.1086955
EXTRACT: note_on channel=1 note=54 velocity=110 time=0
EXTRACT: note_on channel=8 note=66 velocity=127 time=0
EXTRACT: note_on channel=9 note=46 velocity=127 time=0
EXTRACT: note_on channel=9 note=76 velocity=80 time=0
EXTRACT: note_on channel=13 note=61 velocity=115 time=0
EXTRACT: note_on channel=13 note=49 velocity=115 time=0
EXTRACT: note_on channel=14 note=85 velocity=115 time=0
EXTRACT: note_on channel=0 note=54 velocity=120 time=0
EXTRACT: note_off channel=9 note=76 velocity=0 time=0.027173875
EXTRACT: note_off channel=9 note=46 velocity=0 time=0.027173875
EXTRACT: note_off channel=8 note=66 velocity=0 time=0.03623183333333334
EXTRACT: note_on channel=4 note=66 velocity=105 time=0.01811591666666667
EXTRACT: note_on channel=4 note=61 velocity=105 time=0
EXTRACT: note_on channel=8 note=66 velocity=127 time=0
EXTRACT: note_off channel=1 note=54 velocity=0 time=0.05434775
EXTRACT: note_off channel=1 note=42 velocity=0 time=0
EXTRACT: note_off channel=4 note=61 velocity=0 time=0
EXTRACT: note_off channel=4 note=66 velocity=0 time=0
EXTRACT: note_off channel=13 note=49 velocity=0 time=0
EXTRACT: note_off channel=13 note=61 velocity=0 time=0
EXTRACT: note_off channel=14 note=85 velocity=0 time=0
EXTRACT: note_off channel=0 note=54 velocity=0 time=0
EXTRACT: note_off channel=9 note=28 velocity=0 time=0.0407608125
EXTRACT: note_on channel=4 note=61 velocity=105 time=0.0135869375
EXTRACT: note_on channel=4 note=56 velocity=105 time=0
EXTRACT: note_off channel=8 note=66 velocity=0 time=0
EXTRACT: note_on channel=8 note=49 velocity=127 time=0
EXTRACT: note_on channel=9 note=36 velocity=127 time=0
EXTRACT: note_on channel=9 note=36 velocity=127 time=0
EXTRACT: note_on channel=9 note=36 velocity=127 time=0
EXTRACT: note_on channel=9 note=36 velocity=127 time=0
EXTRACT: note_on channel=9 note=42 velocity=127 time=0
EXTRACT: note_on channel=13 note=61 velocity=115 time=0
EXTRACT: note_on channel=13 note=49 velocity=115 time=0
EXTRACT: note_on channel=14 note=85 velocity=115 time=0
EXTRACT: note_off channel=4 note=56 velocity=0 time=0.05434775
EXTRACT: note_off channel=4 note=61 velocity=0 time=0
EXTRACT: note_off channel=9 note=42 velocity=0 time=0
EXTRACT: note_off channel=9 note=36 velocity=64 time=0
EXTRACT: note_off channel=9 note=36 velocity=64 time=0
EXTRACT: note_off channel=9 note=36 velocity=64 time=0
EXTRACT: note_off channel=9 note=36 velocity=64 time=0
EXTRACT: note_off channel=13 note=49 velocity=0 time=0.03170285416666667
EXTRACT: note_off channel=13 note=61 velocity=0 time=0
EXTRACT: note_off channel=14 note=85 velocity=0 time=0
EXTRACT: note_off channel=8 note=49 velocity=0 time=0.022644895833333335
EXTRACT: note_on channel=1 note=37 velocity=110 time=0.1086955
EXTRACT: note_on channel=1 note=49 velocity=110 time=0
EXTRACT: note_on channel=4 note=61 velocity=105 time=0
EXTRACT: note_on channel=4 note=56 velocity=105 time=0
EXTRACT: note_on channel=8 note=61 velocity=127 time=0
EXTRACT: note_on channel=9 note=46 velocity=127 time=0
EXTRACT: note_on channel=13 note=61 velocity=115 time=0
EXTRACT: note_on channel=13 note=49 velocity=115 time=0
EXTRACT: note_on channel=14 note=85 velocity=115 time=0
EXTRACT: note_on channel=0 note=49 velocity=120 time=0
EXTRACT: note_off channel=4 note=56 velocity=0 time=0.05434775
EXTRACT: note_off channel=4 note=61 velocity=0 time=0
EXTRACT: note_off channel=9 note=46 velocity=0 time=0
EXTRACT: note_off channel=13 note=49 velocity=0 time=0.022644895833333335
EXTRACT: note_off channel=13 note=61 velocity=0 time=0
EXTRACT: note_off channel=14 note=85 velocity=0 time=0
EXTRACT: note_off channel=8 note=61 velocity=0 time=0.03170285416666667
EXTRACT: note_on channel=9 note=36 velocity=127 time=0
EXTRACT: note_on channel=9 note=36 velocity=127 time=0
EXTRACT: note_on channel=9 note=36 velocity=127 time=0
EXTRACT: note_on channel=9 note=36 velocity=127 time=0
EXTRACT: note_off channel=1 note=49 velocity=0 time=0.05434775
EXTRACT: note_off channel=1 note=37 velocity=0 time=0
EXTRACT: note_off channel=9 note=36 velocity=64 time=0
EXTRACT: note_off channel=9 note=36 velocity=64 time=0
EXTRACT: note_off channel=9 note=36 velocity=64 time=0
EXTRACT: note_off channel=9 note=36 velocity=64 time=0
EXTRACT: note_off channel=0 note=49 velocity=0 time=0
EXTRACT: note_on channel=4 note=61 velocity=105 time=0.05434775
EXTRACT: note_on channel=4 note=56 velocity=105 time=0
EXTRACT: note_on channel=8 note=49 velocity=127 time=0
EXTRACT: note_on channel=9 note=36 velocity=127 time=0
EXTRACT: note_on channel=9 note=36 velocity=127 time=0
EXTRACT: note_on channel=9 note=36 velocity=127 time=0
EXTRACT: note_on channel=9 note=36 velocity=127 time=0
EXTRACT: note_on channel=9 note=28 velocity=127 time=0
EXTRACT: note_on channel=9 note=42 velocity=127 time=0
EXTRACT: note_on channel=9 note=76 velocity=80 time=0
EXTRACT: note_on channel=13 note=68 velocity=115 time=0
EXTRACT: note_on channel=13 note=56 velocity=115 time=0
EXTRACT: note_on channel=14 note=92 velocity=115 time=0
EXTRACT: note_off channel=9 note=76 velocity=0 time=0.027173875
EXTRACT: note_off channel=4 note=56 velocity=0 time=0.027173875
EXTRACT: note_off channel=4 note=61 velocity=0 time=0
EXTRACT: note_off channel=9 note=42 velocity=0 time=0
EXTRACT: note_off channel=9 note=36 velocity=64 time=0
EXTRACT: note_off channel=9 note=36 velocity=64 time=0
EXTRACT: note_off channel=9 note=36 velocity=64 time=0
EXTRACT: note_off channel=9 note=36 velocity=64 time=0
EXTRACT: note_off channel=13 note=56 velocity=0 time=0.0135869375
EXTRACT: note_off channel=13 note=68 velocity=0 time=0
EXTRACT: note_off channel=14 note=92 velocity=0 time=0
EXTRACT: note_off channel=8 note=49 velocity=0 time=0.0407608125
EXTRACT: note_on channel=1 note=37 velocity=110 time=0.1086955
EXTRACT: note_on channel=1 note=49 velocity=110 time=0
EXTRACT: note_on channel=8 note=61 velocity=127 time=0
EXTRACT: note_on channel=9 note=36 velocity=127 time=0
EXTRACT: note_on channel=9 note=36 velocity=127 time=0
EXTRACT: note_on channel=9 note=36 velocity=127 time=0
EXTRACT: note_on channel=9 note=36 velocity=127 time=0
EXTRACT: note_on channel=9 note=46 velocity=127 time=0
EXTRACT: note_on channel=13 note=68 velocity=115 time=0
EXTRACT: note_on channel=13 note=56 velocity=115 time=0
EXTRACT: note_on channel=14 note=92 velocity=115 time=0
EXTRACT: note_on channel=0 note=49 velocity=120 time=0
EXTRACT: note_off channel=9 note=46 velocity=0 time=0.05434775
EXTRACT: note_off channel=9 note=36 velocity=64 time=0
EXTRACT: note_off channel=9 note=36 velocity=64 time=0
EXTRACT: note_off channel=9 note=36 velocity=64 time=0
EXTRACT: note_off channel=9 note=36 velocity=64 time=0
EXTRACT: note_off channel=13 note=56 velocity=0 time=0.027173875
EXTRACT: note_off channel=13 note=68 velocity=0 time=0
EXTRACT: note_off channel=14 note=92 velocity=0 time=0.022644895833333335
EXTRACT: note_off channel=8 note=61 velocity=0 time=0.004528979166666667
EXTRACT: note_off channel=1 note=49 velocity=0 time=0.05434775
EXTRACT: note_off channel=1 note=37 velocity=0 time=0
EXTRACT: note_off channel=0 note=49 velocity=0 time=0
EXTRACT: note_off channel=9 note=28 velocity=0 time=0.0407608125
EXTRACT: note_on channel=4 note=63 velocity=105 time=0.0135869375
EXTRACT: note_on channel=4 note=58 velocity=105 time=0
EXTRACT: note_on channel=8 note=51 velocity=127 time=0
EXTRACT: note_on channel=9 note=36 velocity=127 time=0
EXTRACT: note_on channel=9 note=36 velocity=127 time=0
EXTRACT: note_on channel=9 note=36 velocity=127 time=0
EXTRACT: note_on channel=9 note=36 velocity=127 time=0
EXTRACT: note_on channel=9 note=42 velocity=127 time=0
EXTRACT: note_on channel=13 note=66 velocity=115 time=0
EXTRACT: note_on channel=13 note=54 velocity=115 time=0
EXTRACT: note_on channel=14 note=90 velocity=115 time=0
EXTRACT: note_off channel=4 note=58 velocity=0 time=0.05434775
EXTRACT: note_off channel=4 note=63 velocity=0 time=0
EXTRACT: note_off channel=9 note=42 velocity=0 time=0
EXTRACT: note_off channel=9 note=36 velocity=64 time=0
EXTRACT: note_off channel=9 note=36 velocity=64 time=0
EXTRACT: note_off channel=9 note=36 velocity=64 time=0
EXTRACT: note_off channel=9 note=36 velocity=64 time=0
EXTRACT: note_off channel=8 note=51 velocity=0 time=0.05434775
EXTRACT: note_on channel=1 note=39 velocity=110 time=0.1086955
EXTRACT: note_on channel=1 note=51 velocity=110 time=0
EXTRACT: note_on channel=4 note=63 velocity=105 time=0
EXTRACT: note_on channel=4 note=58 velocity=105 time=0
EXTRACT: note_on channel=8 note=63 velocity=127 time=0
EXTRACT: note_on channel=9 note=46 velocity=127 time=0
EXTRACT: note_on channel=0 note=51 velocity=120 time=0
EXTRACT: note_off channel=4 note=58 velocity=0 time=0.05434775
EXTRACT: note_off channel=4 note=63 velocity=0 time=0
EXTRACT: note_off channel=9 note=46 velocity=0 time=0
EXTRACT: note_off channel=13 note=54 velocity=0 time=0.0135869375
EXTRACT: note_off channel=13 note=66 velocity=0 time=0
EXTRACT: note_off channel=14 note=90 velocity=0 time=0
EXTRACT: note_off channel=8 note=63 velocity=0 time=0.0407608125
EXTRACT: note_on channel=13 note=63 velocity=115 time=0
EXTRACT: note_on channel=13 note=51 velocity=115 time=0
EXTRACT: note_on channel=14 note=87 velocity=115 time=0
EXTRACT: note_off channel=1 note=51 velocity=0 time=0.05434775
EXTRACT: note_off channel=1 note=39 velocity=0 time=0
EXTRACT: note_off channel=0 note=51 velocity=0 time=0
EXTRACT: note_on channel=4 note=63 velocity=105 time=0.05434775
EXTRACT: note_on channel=4 note=58 velocity=105 time=0
EXTRACT: note_on channel=8 note=51 velocity=127 time=0
EXTRACT: note_on channel=9 note=36 velocity=127 time=0
EXTRACT: note_on channel=9 note=36 velocity=127 time=0
EXTRACT: note_on channel=9 note=36 velocity=127 time=0
EXTRACT: note_on channel=9 note=36 velocity=127 time=0
EXTRACT: note_on channel=9 note=28 velocity=127 time=0
EXTRACT: note_on channel=9 note=42 velocity=127 time=0
EXTRACT: note_on channel=9 note=76 velocity=80 time=0
EXTRACT: note_off channel=13 note=51 velocity=0 time=0.009057958333333335
EXTRACT: note_off channel=13 note=63 velocity=0 time=0
EXTRACT: note_off channel=14 note=87 velocity=0 time=0
EXTRACT: note_off channel=9 note=76 velocity=0 time=0.01811591666666667
EXTRACT: note_off channel=4 note=58 velocity=0 time=0.027173875
EXTRACT: note_off channel=4 note=63 velocity=0 time=0
EXTRACT: note_off channel=9 note=42 velocity=0 time=0
EXTRACT: note_off channel=9 note=36 velocity=64 time=0
EXTRACT: note_off channel=9 note=36 velocity=64 time=0
EXTRACT: note_off channel=9 note=36 velocity=64 time=0
EXTRACT: note_off channel=9 note=36 velocity=64 time=0
EXTRACT: note_off channel=8 note=51 velocity=0 time=0.05434775
EXTRACT: note_on channel=1 note=39 velocity=110 time=0.1086955
EXTRACT: note_on channel=1 note=51 velocity=110 time=0
EXTRACT: note_on channel=8 note=63 velocity=127 time=0
EXTRACT: note_on channel=9 note=46 velocity=127 time=0
EXTRACT: note_on channel=9 note=76 velocity=80 time=0
EXTRACT: note_on channel=13 note=63 velocity=115 time=0
EXTRACT: note_on channel=13 note=51 velocity=115 time=0
EXTRACT: note_on channel=14 note=87 velocity=115 time=0
EXTRACT: note_on channel=0 note=51 velocity=120 time=0
EXTRACT: note_off channel=9 note=76 velocity=0 time=0.027173875
EXTRACT: note_off channel=13 note=51 velocity=0 time=0.022644895833333335
EXTRACT: note_off channel=13 note=63 velocity=0 time=0
EXTRACT: note_off channel=14 note=87 velocity=0 time=0
EXTRACT: note_off channel=9 note=46 velocity=0 time=0.004528979166666667
EXTRACT: note_off channel=8 note=63 velocity=0 time=0.03623183333333334
EXTRACT: note_on channel=4 note=63 velocity=105 time=0.01811591666666667
EXTRACT: note_on channel=4 note=58 velocity=105 time=0
EXTRACT: note_on channel=8 note=63 velocity=127 time=0
EXTRACT: note_on channel=13 note=63 velocity=115 time=0
EXTRACT: note_on channel=13 note=51 velocity=115 time=0
EXTRACT: note_on channel=14 note=87 velocity=115 time=0
EXTRACT: note_off channel=1 note=51 velocity=0 time=0.05434775
EXTRACT: note_off channel=1 note=39 velocity=0 time=0
EXTRACT: note_off channel=4 note=58 velocity=0 time=0
EXTRACT: note_off channel=4 note=63 velocity=0 time=0
EXTRACT: note_off channel=0 note=51 velocity=0 time=0
EXTRACT: note_off channel=13 note=51 velocity=0 time=0.004528979166666667
EXTRACT: note_off channel=13 note=63 velocity=0 time=0
EXTRACT: note_off channel=14 note=87 velocity=0 time=0
EXTRACT: note_off channel=9 note=28 velocity=0 time=0.03623183333333334
EXTRACT: note_on channel=4 note=63 velocity=105 time=0.0135869375
EXTRACT: note_on channel=4 note=58 velocity=105 time=0
EXTRACT: note_off channel=8 note=63 velocity=0 time=0
EXTRACT: note_on channel=8 note=51 velocity=127 time=0
EXTRACT: note_on channel=9 note=36 velocity=127 time=0
EXTRACT: note_on channel=9 note=36 velocity=127 time=0
EXTRACT: note_on channel=9 note=36 velocity=127 time=0
EXTRACT: note_on channel=9 note=36 velocity=127 time=0
EXTRACT: note_on channel=9 note=42 velocity=127 time=0
EXTRACT: note_on channel=13 note=63 velocity=115 time=0
EXTRACT: note_on channel=13 note=51 velocity=115 time=0
EXTRACT: note_on channel=14 note=87 velocity=115 time=0
EXTRACT: note_off channel=4 note=58 velocity=0 time=0.05434775
EXTRACT: note_off channel=4 note=63 velocity=0 time=0
EXTRACT: note_off channel=9 note=42 velocity=0 time=0
EXTRACT: note_off channel=9 note=36 velocity=64 time=0
EXTRACT: note_off channel=9 note=36 velocity=64 time=0
EXTRACT: note_off channel=9 note=36 velocity=64 time=0
EXTRACT: note_off channel=9 note=36 velocity=64 time=0
EXTRACT: note_off channel=13 note=51 velocity=0 time=0.022644895833333335
EXTRACT: note_off channel=13 note=63 velocity=0 time=0
EXTRACT: note_off channel=14 note=87 velocity=0 time=0
EXTRACT: note_off channel=8 note=51 velocity=0 time=0.03170285416666667
EXTRACT: note_on channel=1 note=39 velocity=110 time=0.1086955
EXTRACT: note_on channel=1 note=51 velocity=110 time=0
EXTRACT: note_on channel=4 note=63 velocity=105 time=0
EXTRACT: note_on channel=4 note=58 velocity=105 time=0
EXTRACT: note_on channel=8 note=63 velocity=127 time=0
EXTRACT: note_on channel=9 note=46 velocity=127 time=0
EXTRACT: note_on channel=13 note=63 velocity=115 time=0
EXTRACT: note_on channel=13 note=51 velocity=115 time=0
EXTRACT: note_on channel=14 note=87 velocity=115 time=0
EXTRACT: note_on channel=0 note=51 velocity=120 time=0
EXTRACT: note_off channel=4 note=58 velocity=0 time=0.05434775
EXTRACT: note_off channel=4 note=63 velocity=0 time=0
EXTRACT: note_off channel=9 note=46 velocity=0 time=0
EXTRACT: note_off channel=13 note=51 velocity=0 time=0.03170285416666667
EXTRACT: note_off channel=13 note=63 velocity=0 time=0
EXTRACT: note_off channel=14 note=87 velocity=0 time=0
EXTRACT: note_off channel=8 note=63 velocity=0 time=0.022644895833333335
EXTRACT: note_on channel=9 note=36 velocity=127 time=0
EXTRACT: note_on channel=9 note=36 velocity=127 time=0
EXTRACT: note_on channel=9 note=36 velocity=127 time=0
EXTRACT: note_on channel=9 note=36 velocity=127 time=0
EXTRACT: note_off channel=1 note=51 velocity=0 time=0.05434775
EXTRACT: note_off channel=1 note=39 velocity=0 time=0
EXTRACT: note_off channel=9 note=36 velocity=64 time=0
EXTRACT: note_off channel=9 note=36 velocity=64 time=0
EXTRACT: note_off channel=9 note=36 velocity=64 time=0
EXTRACT: note_off channel=9 note=36 velocity=64 time=0
EXTRACT: note_off channel=0 note=51 velocity=0 time=0
EXTRACT: note_on channel=4 note=63 velocity=105 time=0.05434775
EXTRACT: note_on channel=4 note=58 velocity=105 time=0
EXTRACT: note_on channel=8 note=51 velocity=127 time=0
EXTRACT: note_on channel=9 note=36 velocity=127 time=0
EXTRACT: note_on channel=9 note=36 velocity=127 time=0
EXTRACT: note_on channel=9 note=36 velocity=127 time=0
EXTRACT: note_on channel=9 note=36 velocity=127 time=0
EXTRACT: note_on channel=9 note=28 velocity=127 time=0
EXTRACT: note_on channel=9 note=42 velocity=127 time=0
EXTRACT: note_on channel=9 note=76 velocity=80 time=0
EXTRACT: note_on channel=13 note=66 velocity=115 time=0
EXTRACT: note_on channel=13 note=54 velocity=115 time=0
EXTRACT: note_on channel=14 note=90 velocity=115 time=0
EXTRACT: note_off channel=9 note=76 velocity=0 time=0.027173875
EXTRACT: note_off channel=4 note=58 velocity=0 time=0.027173875
EXTRACT: note_off channel=4 note=63 velocity=0 time=0
EXTRACT: note_off channel=9 note=42 velocity=0 time=0
EXTRACT: note_off channel=9 note=36 velocity=64 time=0
EXTRACT: note_off channel=9 note=36 velocity=64 time=0
EXTRACT: note_off channel=9 note=36 velocity=64 time=0
EXTRACT: note_off channel=9 note=36 velocity=64 time=0
EXTRACT: note_off channel=13 note=54 velocity=0 time=0.01811591666666667
EXTRACT: note_off channel=13 note=66 velocity=0 time=0
EXTRACT: note_off channel=14 note=90 velocity=0 time=0
EXTRACT: note_off channel=8 note=51 velocity=0 time=0.03623183333333334
EXTRACT: note_on channel=1 note=39 velocity=110 time=0.1086955
EXTRACT: note_on channel=1 note=51 velocity=110 time=0
EXTRACT: note_on channel=8 note=63 velocity=127 time=0
EXTRACT: note_on channel=9 note=36 velocity=127 time=0
EXTRACT: note_on channel=9 note=36 velocity=127 time=0
EXTRACT: note_on channel=9 note=36 velocity=127 time=0
EXTRACT: note_on channel=9 note=36 velocity=127 time=0
EXTRACT: note_on channel=9 note=46 velocity=127 time=0
EXTRACT: note_on channel=13 note=68 velocity=115 time=0
EXTRACT: note_on channel=13 note=56 velocity=115 time=0
EXTRACT: note_on channel=14 note=92 velocity=115 time=0
EXTRACT: note_on channel=0 note=51 velocity=120 time=0
EXTRACT: note_off channel=9 note=46 velocity=0 time=0.05434775
EXTRACT: note_off channel=9 note=36 velocity=64 time=0
EXTRACT: note_off channel=9 note=36 velocity=64 time=0
EXTRACT: note_off channel=9 note=36 velocity=64 time=0
EXTRACT: note_off channel=9 note=36 velocity=64 time=0
EXTRACT: note_off channel=13 note=56 velocity=0 time=0.01811591666666667
EXTRACT: note_off channel=13 note=68 velocity=0 time=0
EXTRACT: note_off channel=14 note=92 velocity=0 time=0
EXTRACT: note_off channel=8 note=63 velocity=0 time=0.03623183333333334
EXTRACT: note_off channel=1 note=51 velocity=0 time=0.05434775
EXTRACT: note_off channel=1 note=39 velocity=0 time=0
EXTRACT: note_off channel=0 note=51 velocity=0 time=0
EXTRACT: note_off channel=9 note=28 velocity=0 time=0.0407608125
EXTRACT: note_on channel=4 note=59 velocity=105 time=0.0135869375
EXTRACT: note_on channel=4 note=54 velocity=105 time=0
EXTRACT: note_on channel=8 note=47 velocity=127 time=0
EXTRACT: note_on channel=9 note=36 velocity=127 time=0
EXTRACT: note_on channel=9 note=36 velocity=127 time=0
EXTRACT: note_on channel=9 note=36 velocity=127 time=0
EXTRACT: note_on channel=9 note=36 velocity=127 time=0
EXTRACT: note_on channel=9 note=42 velocity=127 time=0
EXTRACT: note_on channel=13 note=70 velocity=115 time=0
EXTRACT: note_on channel=13 note=58 velocity=115 time=0
EXTRACT: note_on channel=14 note=94 velocity=115 time=0
EXTRACT: note_off channel=4 note=54 velocity=0 time=0.05434775
EXTRACT: note_off channel=4 note=59 velocity=0 time=0
EXTRACT: note_off channel=9 note=42 velocity=0 time=0
EXTRACT: note_off channel=9 note=36 velocity=64 time=0
EXTRACT: note_off channel=9 note=36 velocity=64 time=0
EXTRACT: note_off channel=9 note=36 velocity=64 time=0
EXTRACT: note_off channel=9 note=36 velocity=64 time=0
EXTRACT: note_off channel=8 note=47 velocity=0 time=0.05434775
EXTRACT: note_on channel=1 note=35 velocity=110 time=0.1086955
EXTRACT: note_on channel=1 note=47 velocity=110 time=0
EXTRACT: note_on channel=4 note=59 velocity=105 time=0
EXTRACT: note_on channel=4 note=54 velocity=105 time=0
EXTRACT: note_on channel=8 note=59 velocity=127 time=0
EXTRACT: note_on channel=9 note=46 velocity=127 time=0
EXTRACT: note_on channel=0 note=47 velocity=120 time=0
EXTRACT: note_off channel=4 note=54 velocity=0 time=0.05434775
EXTRACT: note_off channel=4 note=59 velocity=0 time=0
EXTRACT: note_off channel=9 note=46 velocity=0 time=0
EXTRACT: note_off channel=13 note=58 velocity=0 time=0.009057958333333335
EXTRACT: note_off channel=13 note=70 velocity=0 time=0
EXTRACT: note_off channel=14 note=94 velocity=0 time=0
EXTRACT: note_off channel=8 note=59 velocity=0 time=0.04528979166666667
EXTRACT: note_on channel=13 note=66 velocity=115 time=0
EXTRACT: note_on channel=13 note=54 velocity=115 time=0
EXTRACT: note_on channel=14 note=90 velocity=115 time=0
EXTRACT: note_off channel=1 note=47 velocity=0 time=0.05434775
EXTRACT: note_off channel=1 note=35 velocity=0 time=0
EXTRACT: note_off channel=0 note=47 velocity=0 time=0
EXTRACT: note_off channel=13 note=54 velocity=0 time=0.04528979166666667
EXTRACT: note_off channel=13 note=66 velocity=0 time=0
EXTRACT: note_off channel=14 note=90 velocity=0 time=0
EXTRACT: note_on channel=4 note=59 velocity=105 time=0.009057958333333335
EXTRACT: note_on channel=4 note=54 velocity=105 time=0
EXTRACT: note_on channel=8 note=47 velocity=127 time=0
EXTRACT: note_on channel=9 note=36 velocity=127 time=0
EXTRACT: note_on channel=9 note=36 velocity=127 time=0
EXTRACT: note_on channel=9 note=36 velocity=127 time=0
EXTRACT: note_on channel=9 note=36 velocity=127 time=0
EXTRACT: note_on channel=9 note=28 velocity=127 time=0
EXTRACT: note_on channel=9 note=42 velocity=127 time=0
EXTRACT: note_on channel=9 note=76 velocity=80 time=0
EXTRACT: note_off channel=9 note=76 velocity=0 time=0.027173875
EXTRACT: note_off channel=4 note=54 velocity=0 time=0.027173875
EXTRACT: note_off channel=4 note=59 velocity=0 time=0
EXTRACT: note_off channel=9 note=42 velocity=0 time=0
EXTRACT: note_off channel=9 note=36 velocity=64 time=0
EXTRACT: note_off channel=9 note=36 velocity=64 time=0
EXTRACT: note_off channel=9 note=36 velocity=64 time=0
EXTRACT: note_off channel=9 note=36 velocity=64 time=0
EXTRACT: note_off channel=8 note=47 velocity=0 time=0.05434775
EXTRACT: note_on channel=1 note=35 velocity=110 time=0.1086955
EXTRACT: note_on channel=1 note=47 velocity=110 time=0
EXTRACT: note_on channel=8 note=59 velocity=127 time=0
EXTRACT: note_on channel=9 note=46 velocity=127 time=0
EXTRACT: note_on channel=9 note=76 velocity=80 time=0
EXTRACT: note_on channel=13 note=59 velocity=115 time=0
EXTRACT: note_on channel=13 note=47 velocity=115 time=0
EXTRACT: note_on channel=14 note=83 velocity=115 time=0
EXTRACT: note_on channel=0 note=47 velocity=120 time=0
EXTRACT: note_off channel=9 note=76 velocity=0 time=0.027173875
EXTRACT: note_off channel=9 note=46 velocity=0 time=0.027173875
EXTRACT: note_off channel=13 note=47 velocity=0 time=0.03170285416666667
EXTRACT: note_off channel=13 note=59 velocity=0 time=0
EXTRACT: note_off channel=14 note=83 velocity=0 time=0
EXTRACT: note_off channel=8 note=59 velocity=0 time=0.004528979166666667
EXTRACT: note_on channel=4 note=59 velocity=105 time=0.01811591666666667
EXTRACT: note_on channel=4 note=54 velocity=105 time=0
EXTRACT: note_on channel=8 note=59 velocity=127 time=0
EXTRACT: note_off channel=1 note=47 velocity=0 time=0.05434775
EXTRACT: note_off channel=1 note=35 velocity=0 time=0
EXTRACT: note_off channel=4 note=54 velocity=0 time=0
EXTRACT: note_off channel=4 note=59 velocity=0 time=0
EXTRACT: note_off channel=0 note=47 velocity=0 time=0
EXTRACT: note_off channel=9 note=28 velocity=0 time=0.0407608125
EXTRACT: note_on channel=4 note=61 velocity=105 time=0.0135869375
EXTRACT: note_on channel=4 note=56 velocity=105 time=0
EXTRACT: note_off channel=8 note=59 velocity=0 time=0
EXTRACT: note_on channel=8 note=49 velocity=127 time=0
EXTRACT: note_on channel=9 note=36 velocity=127 time=0
EXTRACT: note_on channel=9 note=36 velocity=127 time=0
EXTRACT: note_on channel=9 note=36 velocity=127 time=0
EXTRACT: note_on channel=9 note=36 velocity=127 time=0
EXTRACT: note_on channel=9 note=42 velocity=127 time=0
EXTRACT: note_on channel=13 note=59 velocity=115 time=0
EXTRACT: note_on channel=13 note=47 velocity=115 time=0
EXTRACT: note_on channel=14 note=83 velocity=115 time=0
EXTRACT: note_off channel=4 note=56 velocity=0 time=0.05434775
EXTRACT: note_off channel=4 note=61 velocity=0 time=0
EXTRACT: note_off channel=9 note=42 velocity=0 time=0
EXTRACT: note_off channel=9 note=36 velocity=64 time=0
EXTRACT: note_off channel=9 note=36 velocity=64 time=0
EXTRACT: note_off channel=9 note=36 velocity=64 time=0
EXTRACT: note_off channel=9 note=36 velocity=64 time=0
EXTRACT: note_off channel=13 note=47 velocity=0 time=0.027173875
EXTRACT: note_off channel=13 note=59 velocity=0 time=0
EXTRACT: note_off channel=14 note=83 velocity=0 time=0
EXTRACT: note_off channel=8 note=49 velocity=0 time=0.027173875
EXTRACT: note_on channel=1 note=37 velocity=110 time=0.1086955
EXTRACT: note_on channel=1 note=49 velocity=110 time=0
EXTRACT: note_on channel=4 note=61 velocity=105 time=0
EXTRACT: note_on channel=4 note=56 velocity=105 time=0
EXTRACT: note_on channel=8 note=61 velocity=127 time=0
EXTRACT: note_on channel=9 note=46 velocity=127 time=0
EXTRACT: note_on channel=13 note=59 velocity=115 time=0
EXTRACT: note_on channel=13 note=47 velocity=115 time=0
EXTRACT: note_on channel=14 note=83 velocity=115 time=0
EXTRACT: note_on channel=0 note=49 velocity=120 time=0
EXTRACT: note_off channel=4 note=56 velocity=0 time=0.05434775
EXTRACT: note_off channel=4 note=61 velocity=0 time=0
EXTRACT: note_off channel=9 note=46 velocity=0 time=0
EXTRACT: note_off channel=13 note=47 velocity=0 time=0.01811591666666667
EXTRACT: note_off channel=13 note=59 velocity=0 time=0
EXTRACT: note_off channel=14 note=83 velocity=0 time=0
EXTRACT: note_off channel=8 note=61 velocity=0 time=0.03623183333333334
EXTRACT: note_on channel=9 note=36 velocity=127 time=0
EXTRACT: note_on channel=9 note=36 velocity=127 time=0
EXTRACT: note_on channel=9 note=36 velocity=127 time=0
EXTRACT: note_on channel=9 note=36 velocity=127 time=0
EXTRACT: note_off channel=1 note=49 velocity=0 time=0.05434775
EXTRACT: note_off channel=1 note=37 velocity=0 time=0
EXTRACT: note_off channel=9 note=36 velocity=64 time=0
EXTRACT: note_off channel=9 note=36 velocity=64 time=0
EXTRACT: note_off channel=9 note=36 velocity=64 time=0
EXTRACT: note_off channel=9 note=36 velocity=64 time=0
EXTRACT: note_off channel=0 note=49 velocity=0 time=0
EXTRACT: note_on channel=4 note=61 velocity=105 time=0.05434775
EXTRACT: note_on channel=4 note=56 velocity=105 time=0
EXTRACT: note_on channel=8 note=49 velocity=127 time=0
EXTRACT: note_on channel=9 note=36 velocity=127 time=0
EXTRACT: note_on channel=9 note=36 velocity=127 time=0
EXTRACT: note_on channel=9 note=36 velocity=127 time=0
EXTRACT: note_on channel=9 note=36 velocity=127 time=0
EXTRACT: note_on channel=9 note=28 velocity=127 time=0
EXTRACT: note_on channel=9 note=42 velocity=127 time=0
EXTRACT: note_on channel=9 note=76 velocity=80 time=0
EXTRACT: note_on channel=13 note=59 velocity=115 time=0
EXTRACT: note_on channel=13 note=47 velocity=115 time=0
EXTRACT: note_on channel=14 note=83 velocity=115 time=0
EXTRACT: note_off channel=9 note=76 velocity=0 time=0.027173875
EXTRACT: note_off channel=4 note=56 velocity=0 time=0.027173875
EXTRACT: note_off channel=4 note=61 velocity=0 time=0
EXTRACT: note_off channel=9 note=42 velocity=0 time=0
EXTRACT: note_off channel=9 note=36 velocity=64 time=0
EXTRACT: note_off channel=9 note=36 velocity=64 time=0
EXTRACT: note_off channel=9 note=36 velocity=64 time=0
EXTRACT: note_off channel=9 note=36 velocity=64 time=0
EXTRACT: note_off channel=13 note=47 velocity=0 time=0.01811591666666667
EXTRACT: note_off channel=13 note=59 velocity=0 time=0
EXTRACT: note_off channel=14 note=83 velocity=0 time=0
EXTRACT: note_off channel=8 note=49 velocity=0 time=0.03623183333333334
EXTRACT: note_on channel=1 note=37 velocity=110 time=0.1086955
EXTRACT: note_on channel=1 note=49 velocity=110 time=0
EXTRACT: note_on channel=8 note=61 velocity=127 time=0
EXTRACT: note_on channel=9 note=36 velocity=127 time=0
EXTRACT: note_on channel=9 note=36 velocity=127 time=0
EXTRACT: note_on channel=9 note=36 velocity=127 time=0
EXTRACT: note_on channel=9 note=36 velocity=127 time=0
EXTRACT: note_on channel=9 note=46 velocity=127 time=0
EXTRACT: note_on channel=13 note=59 velocity=115 time=0
EXTRACT: note_on channel=13 note=47 velocity=115 time=0
EXTRACT: note_on channel=14 note=83 velocity=115 time=0
EXTRACT: note_on channel=0 note=49 velocity=120 time=0
EXTRACT: note_off channel=9 note=46 velocity=0 time=0.05434775
EXTRACT: note_off channel=9 note=36 velocity=64 time=0
EXTRACT: note_off channel=9 note=36 velocity=64 time=0
EXTRACT: note_off channel=9 note=36 velocity=64 time=0
EXTRACT: note_off channel=9 note=36 velocity=64 time=0
EXTRACT: note_off channel=13 note=47 velocity=0 time=0.022644895833333335
EXTRACT: note_off channel=13 note=59 velocity=0 time=0
EXTRACT: note_off channel=14 note=83 velocity=0 time=0
EXTRACT: note_off channel=8 note=61 velocity=0 time=0.03170285416666667
EXTRACT: note_off channel=1 note=49 velocity=0 time=0.05434775
EXTRACT: note_off channel=1 note=37 velocity=0 time=0
EXTRACT: note_off channel=0 note=49 velocity=0 time=0
EXTRACT: note_off channel=9 note=28 velocity=0 time=0.0407608125
EXTRACT: note_on channel=4 note=66 velocity=105 time=0.0135869375
EXTRACT: note_on channel=4 note=61 velocity=105 time=0
EXTRACT: note_on channel=8 note=54 velocity=127 time=0
EXTRACT: note_on channel=9 note=36 velocity=127 time=0
EXTRACT: note_on channel=9 note=36 velocity=127 time=0
EXTRACT: note_on channel=9 note=36 velocity=127 time=0
EXTRACT: note_on channel=9 note=36 velocity=127 time=0
EXTRACT: note_on channel=9 note=42 velocity=127 time=0
EXTRACT: note_on channel=13 note=58 velocity=115 time=0
EXTRACT: note_on channel=13 note=46 velocity=115 time=0
EXTRACT: note_on channel=14 note=82 velocity=115 time=0
EXTRACT: note_off channel=4 note=61 velocity=0 time=0.05434775
EXTRACT: note_off channel=4 note=66 velocity=0 time=0
EXTRACT: note_off channel=9 note=42 velocity=0 time=0
EXTRACT: note_off channel=9 note=36 velocity=64 time=0
EXTRACT: note_off channel=9 note=36 velocity=64 time=0
EXTRACT: note_off channel=9 note=36 velocity=64 time=0
EXTRACT: note_off channel=9 note=36 velocity=64 time=0
EXTRACT: note_off channel=8 note=54 velocity=0 time=0.05434775
EXTRACT: note_on channel=1 note=42 velocity=110 time=0.1086955
EXTRACT: note_on channel=1 note=54 velocity=110 time=0
EXTRACT: note_on channel=4 note=66 velocity=105 time=0
EXTRACT: note_on channel=4 note=61 velocity=105 time=0
EXTRACT: note_on channel=8 note=66 velocity=127 time=0
EXTRACT: note_on channel=9 note=46 velocity=127 time=0
EXTRACT: note_on channel=0 note=54 velocity=120 time=0
EXTRACT: note_off channel=4 note=61 velocity=0 time=0.05434775
EXTRACT: note_off channel=4 note=66 velocity=0 time=0
EXTRACT: note_off channel=9 note=46 velocity=0 time=0
EXTRACT: note_off channel=13 note=46 velocity=0 time=0.03623183333333334
EXTRACT: note_off channel=13 note=58 velocity=0 time=0
EXTRACT: note_off channel=14 note=82 velocity=0 time=0
EXTRACT: note_off channel=8 note=66 velocity=0 time=0.01811591666666667
EXTRACT: note_on channel=13 note=66 velocity=115 time=0
EXTRACT: note_on channel=13 note=54 velocity=115 time=0
EXTRACT: note_on channel=14 note=90 velocity=115 time=0
EXTRACT: note_off channel=1 note=54 velocity=0 time=0.05434775
EXTRACT: note_off channel=1 note=42 velocity=0 time=0
EXTRACT: note_off channel=0 note=54 velocity=0 time=0
EXTRACT: note_on channel=4 note=66 velocity=105 time=0.05434775
EXTRACT: note_on channel=4 note=61 velocity=105 time=0
EXTRACT: note_on channel=8 note=54 velocity=127 time=0
EXTRACT: note_on channel=9 note=36 velocity=127 time=0
EXTRACT: note_on channel=9 note=36 velocity=127 time=0
EXTRACT: note_on channel=9 note=36 velocity=127 time=0
EXTRACT: note_on channel=9 note=36 velocity=127 time=0
EXTRACT: note_on channel=9 note=28 velocity=127 time=0
EXTRACT: note_on channel=9 note=42 velocity=127 time=0
EXTRACT: note_on channel=9 note=76 velocity=80 time=0
EXTRACT: note_off channel=13 note=54 velocity=0 time=0.0135869375
EXTRACT: note_off channel=13 note=66 velocity=0 time=0
EXTRACT: note_off channel=14 note=90 velocity=0 time=0
EXTRACT: note_off channel=9 note=76 velocity=0 time=0.0135869375
EXTRACT: note_off channel=4 note=61 velocity=0 time=0.027173875
EXTRACT: note_off channel=4 note=66 velocity=0 time=0
EXTRACT: note_off channel=9 note=42 velocity=0 time=0
EXTRACT: note_off channel=9 note=36 velocity=64 time=0
EXTRACT: note_off channel=9 note=36 velocity=64 time=0
EXTRACT: note_off channel=9 note=36 velocity=64 time=0
EXTRACT: note_off channel=9 note=36 velocity=64 time=0
EXTRACT: note_off channel=8 note=54 velocity=0 time=0.05434775
EXTRACT: note_on channel=1 note=42 velocity=110 time=0.1086955
EXTRACT: note_on channel=1 note=54 velocity=110 time=0
EXTRACT: note_on channel=8 note=66 velocity=127 time=0
EXTRACT: note_on channel=9 note=46 velocity=127 time=0
EXTRACT: note_on channel=9 note=76 velocity=80 time=0
EXTRACT: note_on channel=13 note=70 velocity=115 time=0
EXTRACT: note_on channel=13 note=58 velocity=115 time=0
EXTRACT: note_on channel=14 note=94 velocity=115 time=0
EXTRACT: note_on channel=0 note=54 velocity=120 time=0
EXTRACT: note_off channel=9 note=76 velocity=0 time=0.027173875
EXTRACT: note_off channel=13 note=58 velocity=0 time=0.022644895833333335
EXTRACT: note_off channel=13 note=70 velocity=0 time=0
EXTRACT: note_off channel=14 note=94 velocity=0 time=0
EXTRACT: note_off channel=9 note=46 velocity=0 time=0.004528979166666667
EXTRACT: note_off channel=8 note=66 velocity=0 time=0.03623183333333334
EXTRACT: note_on channel=4 note=66 velocity=105 time=0.01811591666666667
EXTRACT: note_on channel=4 note=61 velocity=105 time=0
EXTRACT: note_on channel=8 note=66 velocity=127 time=0
EXTRACT: note_on channel=13 note=70 velocity=115 time=0
EXTRACT: note_on channel=13 note=58 velocity=115 time=0
EXTRACT: note_on channel=14 note=94 velocity=115 time=0
EXTRACT: note_off channel=13 note=58 velocity=0 time=0.04981877083333334
EXTRACT: note_off channel=13 note=70 velocity=0 time=0
EXTRACT: note_off channel=14 note=94 velocity=0 time=0
EXTRACT: note_off channel=1 note=54 velocity=0 time=0.004528979166666667
EXTRACT: note_off channel=1 note=42 velocity=0 time=0
EXTRACT: note_off channel=4 note=61 velocity=0 time=0
EXTRACT: note_off channel=4 note=66 velocity=0 time=0
EXTRACT: note_off channel=0 note=54 velocity=0 time=0
EXTRACT: note_off channel=9 note=28 velocity=0 time=0.0407608125
EXTRACT: note_on channel=4 note=66 velocity=105 time=0.0135869375
EXTRACT: note_on channel=4 note=61 velocity=105 time=0
EXTRACT: note_off channel=8 note=66 velocity=0 time=0
EXTRACT: note_on channel=8 note=54 velocity=127 time=0
EXTRACT: note_on channel=9 note=36 velocity=127 time=0
EXTRACT: note_on channel=9 note=36 velocity=127 time=0
EXTRACT: note_on channel=9 note=36 velocity=127 time=0
EXTRACT: note_on channel=9 note=36 velocity=127 time=0
EXTRACT: note_on channel=9 note=42 velocity=127 time=0
EXTRACT: note_on channel=13 note=70 velocity=115 time=0
EXTRACT: note_on channel=13 note=58 velocity=115 time=0
EXTRACT: note_on channel=14 note=94 velocity=115 time=0
EXTRACT: note_off channel=4 note=61 velocity=0 time=0.05434775
EXTRACT: note_off channel=4 note=66 velocity=0 time=0
EXTRACT: note_off channel=9 note=42 velocity=0 time=0
EXTRACT: note_off channel=9 note=36 velocity=64 time=0
EXTRACT: note_off channel=9 note=36 velocity=64 time=0
EXTRACT: note_off channel=9 note=36 velocity=64 time=0
EXTRACT: note_off channel=9 note=36 velocity=64 time=0
EXTRACT: note_off channel=13 note=58 velocity=0 time=0.022644895833333335
EXTRACT: note_off channel=13 note=70 velocity=0 time=0
EXTRACT: note_off channel=14 note=94 velocity=0 time=0
EXTRACT: note_off channel=8 note=54 velocity=0 time=0.03170285416666667
EXTRACT: note_on channel=1 note=42 velocity=110 time=0.1086955
EXTRACT: note_on channel=1 note=54 velocity=110 time=0
EXTRACT: note_on channel=4 note=66 velocity=105 time=0
EXTRACT: note_on channel=4 note=61 velocity=105 time=0
EXTRACT: note_on channel=8 note=66 velocity=127 time=0
EXTRACT: note_on channel=9 note=46 velocity=127 time=0
EXTRACT: note_on channel=13 note=70 velocity=115 time=0
EXTRACT: note_on channel=13 note=58 velocity=115 time=0
EXTRACT: note_on channel=14 note=94 velocity=115 time=0
EXTRACT: note_on channel=0 note=54 velocity=120 time=0
EXTRACT: note_off channel=4 note=61 velocity=0 time=0.05434775
EXTRACT: note_off channel=4 note=66 velocity=0 time=0
EXTRACT: note_off channel=9 note=46 velocity=0 time=0
EXTRACT: note_off channel=8 note=66 velocity=0 time=0.05434775
EXTRACT: note_on channel=9 note=36 velocity=127 time=0
EXTRACT: note_on channel=9 note=36 velocity=127 time=0
EXTRACT: note_on channel=9 note=36 velocity=127 time=0
EXTRACT: note_on channel=9 note=36 velocity=127 time=0
EXTRACT: note_off channel=1 note=54 velocity=0 time=0.05434775
EXTRACT: note_off channel=1 note=42 velocity=0 time=0
EXTRACT: note_off channel=9 note=36 velocity=64 time=0
EXTRACT: note_off channel=9 note=36 velocity=64 time=0
EXTRACT: note_off channel=9 note=36 velocity=64 time=0
EXTRACT: note_off channel=9 note=36 velocity=64 time=0
EXTRACT: note_off channel=0 note=54 velocity=0 time=0
EXTRACT: note_on channel=4 note=66 velocity=105 time=0.05434775
EXTRACT: note_on channel=4 note=61 velocity=105 time=0
EXTRACT: note_on channel=8 note=54 velocity=127 time=0
EXTRACT: note_on channel=9 note=36 velocity=127 time=0
EXTRACT: note_on channel=9 note=36 velocity=127 time=0
EXTRACT: note_on channel=9 note=36 velocity=127 time=0
EXTRACT: note_on channel=9 note=36 velocity=127 time=0
EXTRACT: note_on channel=9 note=28 velocity=127 time=0
EXTRACT: note_on channel=9 note=42 velocity=127 time=0
EXTRACT: note_on channel=9 note=76 velocity=80 time=0
EXTRACT: note_on channel=13 note=68 velocity=115 time=0
EXTRACT: note_on channel=13 note=56 velocity=115 time=0
EXTRACT: note_on channel=14 note=92 velocity=115 time=0
EXTRACT: note_off channel=9 note=76 velocity=0 time=0.027173875
EXTRACT: note_off channel=13 note=58 velocity=0 time=0
EXTRACT: note_off channel=13 note=70 velocity=0 time=0
EXTRACT: note_off channel=14 note=94 velocity=0 time=0
EXTRACT: note_off channel=4 note=61 velocity=0 time=0.027173875
EXTRACT: note_off channel=4 note=66 velocity=0 time=0
EXTRACT: note_off channel=9 note=42 velocity=0 time=0
EXTRACT: note_off channel=9 note=36 velocity=64 time=0
EXTRACT: note_off channel=9 note=36 velocity=64 time=0
EXTRACT: note_off channel=9 note=36 velocity=64 time=0
EXTRACT: note_off channel=9 note=36 velocity=64 time=0
EXTRACT: note_off channel=13 note=68 velocity=0 time=0.03623183333333334
EXTRACT: note_off channel=13 note=56 velocity=0 time=0
EXTRACT: note_off channel=14 note=92 velocity=0 time=0
EXTRACT: note_off channel=8 note=54 velocity=0 time=0.01811591666666667
EXTRACT: note_on channel=1 note=42 velocity=110 time=0.1086955
EXTRACT: note_on channel=1 note=54 velocity=110 time=0
EXTRACT: note_on channel=8 note=66 velocity=127 time=0
EXTRACT: note_on channel=9 note=36 velocity=127 time=0
EXTRACT: note_on channel=9 note=36 velocity=127 time=0
EXTRACT: note_on channel=9 note=36 velocity=127 time=0
EXTRACT: note_on channel=9 note=36 velocity=127 time=0
EXTRACT: note_on channel=9 note=46 velocity=127 time=0
EXTRACT: note_on channel=13 note=68 velocity=115 time=0
EXTRACT: note_on channel=13 note=56 velocity=115 time=0
EXTRACT: note_on channel=14 note=92 velocity=115 time=0
EXTRACT: note_on channel=0 note=54 velocity=120 time=0
EXTRACT: note_off channel=9 note=46 velocity=0 time=0.05434775
EXTRACT: note_off channel=9 note=36 velocity=64 time=0
EXTRACT: note_off channel=9 note=36 velocity=64 time=0
EXTRACT: note_off channel=9 note=36 velocity=64 time=0
EXTRACT: note_off channel=9 note=36 velocity=64 time=0
EXTRACT: note_off channel=8 note=66 velocity=0 time=0.05434775
EXTRACT: note_off channel=13 note=56 velocity=0 time=0.0135869375
EXTRACT: note_off channel=13 note=68 velocity=0 time=0
EXTRACT: note_off channel=14 note=92 velocity=0 time=0
EXTRACT: note_off channel=1 note=54 velocity=0 time=0.0407608125
EXTRACT: note_off channel=1 note=42 velocity=0 time=0
EXTRACT: note_off channel=0 note=54 velocity=0 time=0
EXTRACT: note_off channel=9 note=28 velocity=0 time=0.0407608125
EXTRACT: note_on channel=4 note=66 velocity=105 time=0.0135869375
EXTRACT: note_on channel=4 note=61 velocity=105 time=0
EXTRACT: note_on channel=8 note=54 velocity=127 time=0
EXTRACT: note_on channel=9 note=36 velocity=127 time=0
EXTRACT: note_on channel=9 note=36 velocity=127 time=0
EXTRACT: note_on channel=9 note=36 velocity=127 time=0
EXTRACT: note_on channel=9 note=36 velocity=127 time=0
EXTRACT: note_on channel=9 note=42 velocity=127 time=0
EXTRACT: note_on channel=9 note=49 velocity=85 time=0
EXTRACT: note_on channel=13 note=66 velocity=115 time=0
EXTRACT: note_on channel=13 note=54 velocity=115 time=0
EXTRACT: note_on channel=14 note=90 velocity=115 time=0
EXTRACT: note_off channel=9 note=49 velocity=0 time=0.027173875
EXTRACT: note_off channel=4 note=61 velocity=0 time=0.027173875
EXTRACT: note_off channel=4 note=66 velocity=0 time=0
EXTRACT: note_off channel=9 note=42 velocity=0 time=0
EXTRACT: note_off channel=9 note=36 velocity=64 time=0
EXTRACT: note_off channel=9 note=36 velocity=64 time=0
EXTRACT: note_off channel=9 note=36 velocity=64 time=0
EXTRACT: note_off channel=9 note=36 velocity=64 time=0
EXTRACT: note_off channel=8 note=54 velocity=0 time=0.05434775
EXTRACT: note_on channel=1 note=42 velocity=110 time=0.1086955
EXTRACT: note_on channel=1 note=54 velocity=110 time=0
EXTRACT: note_on channel=4 note=66 velocity=105 time=0
EXTRACT: note_on channel=4 note=61 velocity=105 time=0
EXTRACT: note_on channel=8 note=66 velocity=127 time=0
EXTRACT: note_on channel=9 note=46 velocity=127 time=0
EXTRACT: note_on channel=0 note=54 velocity=120 time=0
EXTRACT: note_off channel=4 note=61 velocity=0 time=0.05434775
EXTRACT: note_off channel=4 note=66 velocity=0 time=0
EXTRACT: note_off channel=9 note=46 velocity=0 time=0
EXTRACT: note_off channel=13 note=54 velocity=0 time=0
EXTRACT: note_off channel=13 note=66 velocity=0 time=0
EXTRACT: note_off channel=14 note=90 velocity=0 time=0.01811591666666667
EXTRACT: note_off channel=8 note=66 velocity=0 time=0.03623183333333334
EXTRACT: note_on channel=13 note=61 velocity=115 time=0
EXTRACT: note_on channel=13 note=49 velocity=115 time=0
EXTRACT: note_on channel=14 note=85 velocity=115 time=0
EXTRACT: note_off channel=1 note=54 velocity=0 time=0.05434775
EXTRACT: note_off channel=1 note=42 velocity=0 time=0
EXTRACT: note_off channel=0 note=54 velocity=0 time=0
EXTRACT: note_on channel=4 note=66 velocity=105 time=0.05434775
EXTRACT: note_on channel=4 note=61 velocity=105 time=0
EXTRACT: note_on channel=8 note=54 velocity=127 time=0
EXTRACT: note_on channel=9 note=36 velocity=127 time=0
EXTRACT: note_on channel=9 note=36 velocity=127 time=0
EXTRACT: note_on channel=9 note=36 velocity=127 time=0
EXTRACT: note_on channel=9 note=36 velocity=127 time=0
EXTRACT: note_on channel=9 note=28 velocity=127 time=0
EXTRACT: note_on channel=9 note=42 velocity=127 time=0
EXTRACT: note_on channel=9 note=76 velocity=80 time=0
EXTRACT: note_off channel=13 note=49 velocity=0 time=0
EXTRACT: note_off channel=13 note=61 velocity=0 time=0
EXTRACT: note_off channel=14 note=85 velocity=0 time=0
EXTRACT: note_off channel=9 note=76 velocity=0 time=0.027173875
EXTRACT: note_off channel=4 note=61 velocity=0 time=0.027173875
EXTRACT: note_off channel=4 note=66 velocity=0 time=0
EXTRACT: note_off channel=9 note=42 velocity=0 time=0
EXTRACT: note_off channel=9 note=36 velocity=64 time=0
EXTRACT: note_off channel=9 note=36 velocity=64 time=0
EXTRACT: note_off channel=9 note=36 velocity=64 time=0
EXTRACT: note_off channel=9 note=36 velocity=64 time=0
EXTRACT: note_off channel=8 note=54 velocity=0 time=0.05434775
EXTRACT: note_on channel=1 note=42 velocity=110 time=0.1086955
EXTRACT: note_on channel=1 note=54 velocity=110 time=0
EXTRACT: note_on channel=8 note=66 velocity=127 time=0
EXTRACT: note_on channel=9 note=46 velocity=127 time=0
EXTRACT: note_on channel=9 note=76 velocity=80 time=0
EXTRACT: note_on channel=13 note=61 velocity=115 time=0
EXTRACT: note_on channel=13 note=49 velocity=115 time=0
EXTRACT: note_on channel=14 note=85 velocity=115 time=0
EXTRACT: note_on channel=0 note=54 velocity=120 time=0
EXTRACT: note_off channel=9 note=76 velocity=0 time=0.027173875
EXTRACT: note_off channel=9 note=46 velocity=0 time=0.027173875
EXTRACT: note_off channel=8 note=66 velocity=0 time=0.03623183333333334
EXTRACT: note_on channel=4 note=66 velocity=105 time=0.01811591666666667
EXTRACT: note_on channel=4 note=61 velocity=105 time=0
EXTRACT: note_on channel=8 note=66 velocity=127 time=0
EXTRACT: note_off channel=1 note=54 velocity=0 time=0.05434775
EXTRACT: note_off channel=1 note=42 velocity=0 time=0
EXTRACT: note_off channel=4 note=61 velocity=0 time=0
EXTRACT: note_off channel=4 note=66 velocity=0 time=0
EXTRACT: note_off channel=13 note=49 velocity=0 time=0
EXTRACT: note_off channel=13 note=61 velocity=0 time=0
EXTRACT: note_off channel=14 note=85 velocity=0 time=0
EXTRACT: note_off channel=0 note=54 velocity=0 time=0
EXTRACT: note_off channel=9 note=28 velocity=0 time=0.0407608125
EXTRACT: note_on channel=4 note=61 velocity=105 time=0.0135869375
EXTRACT: note_on channel=4 note=56 velocity=105 time=0
EXTRACT: note_off channel=8 note=66 velocity=0 time=0
EXTRACT: note_on channel=8 note=49 velocity=127 time=0
EXTRACT: note_on channel=9 note=36 velocity=127 time=0
EXTRACT: note_on channel=9 note=36 velocity=127 time=0
EXTRACT: note_on channel=9 note=36 velocity=127 time=0
EXTRACT: note_on channel=9 note=36 velocity=127 time=0
EXTRACT: note_on channel=9 note=42 velocity=127 time=0
EXTRACT: note_on channel=13 note=61 velocity=115 time=0
EXTRACT: note_on channel=13 note=49 velocity=115 time=0
EXTRACT: note_on channel=14 note=85 velocity=115 time=0
EXTRACT: note_off channel=4 note=56 velocity=0 time=0.05434775
EXTRACT: note_off channel=4 note=61 velocity=0 time=0
EXTRACT: note_off channel=9 note=42 velocity=0 time=0
EXTRACT: note_off channel=9 note=36 velocity=64 time=0
EXTRACT: note_off channel=9 note=36 velocity=64 time=0
EXTRACT: note_off channel=9 note=36 velocity=64 time=0
EXTRACT: note_off channel=9 note=36 velocity=64 time=0
EXTRACT: note_off channel=13 note=49 velocity=0 time=0.03170285416666667
EXTRACT: note_off channel=13 note=61 velocity=0 time=0
EXTRACT: note_off channel=14 note=85 velocity=0 time=0
EXTRACT: note_off channel=8 note=49 velocity=0 time=0.022644895833333335
EXTRACT: note_on channel=1 note=37 velocity=110 time=0.1086955
EXTRACT: note_on channel=1 note=49 velocity=110 time=0
EXTRACT: note_on channel=4 note=61 velocity=105 time=0
EXTRACT: note_on channel=4 note=56 velocity=105 time=0
EXTRACT: note_on channel=8 note=61 velocity=127 time=0
EXTRACT: note_on channel=9 note=46 velocity=127 time=0
EXTRACT: note_on channel=13 note=61 velocity=115 time=0
EXTRACT: note_on channel=13 note=49 velocity=115 time=0
EXTRACT: note_on channel=14 note=85 velocity=115 time=0
EXTRACT: note_on channel=0 note=49 velocity=120 time=0
EXTRACT: note_off channel=4 note=56 velocity=0 time=0.05434775
EXTRACT: note_off channel=4 note=61 velocity=0 time=0
EXTRACT: note_off channel=9 note=46 velocity=0 time=0
EXTRACT: note_off channel=13 note=49 velocity=0 time=0.022644895833333335
EXTRACT: note_off channel=13 note=61 velocity=0 time=0
EXTRACT: note_off channel=14 note=85 velocity=0 time=0
EXTRACT: note_off channel=8 note=61 velocity=0 time=0.03170285416666667
EXTRACT: note_on channel=9 note=36 velocity=127 time=0
EXTRACT: note_on channel=9 note=36 velocity=127 time=0
EXTRACT: note_on channel=9 note=36 velocity=127 time=0
EXTRACT: note_on channel=9 note=36 velocity=127 time=0
EXTRACT: note_off channel=1 note=49 velocity=0 time=0.05434775
EXTRACT: note_off channel=1 note=37 velocity=0 time=0
EXTRACT: note_off channel=9 note=36 velocity=64 time=0
EXTRACT: note_off channel=9 note=36 velocity=64 time=0
EXTRACT: note_off channel=9 note=36 velocity=64 time=0
EXTRACT: note_off channel=9 note=36 velocity=64 time=0
EXTRACT: note_off channel=0 note=49 velocity=0 time=0
EXTRACT: note_on channel=4 note=61 velocity=105 time=0.05434775
EXTRACT: note_on channel=4 note=56 velocity=105 time=0
EXTRACT: note_on channel=8 note=49 velocity=127 time=0
EXTRACT: note_on channel=9 note=36 velocity=127 time=0
EXTRACT: note_on channel=9 note=36 velocity=127 time=0
EXTRACT: note_on channel=9 note=36 velocity=127 time=0
EXTRACT: note_on channel=9 note=36 velocity=127 time=0
EXTRACT: note_on channel=9 note=28 velocity=127 time=0
EXTRACT: note_on channel=9 note=42 velocity=127 time=0
EXTRACT: note_on channel=9 note=76 velocity=80 time=0
EXTRACT: note_on channel=13 note=68 velocity=115 time=0
EXTRACT: note_on channel=13 note=56 velocity=115 time=0
EXTRACT: note_on channel=14 note=92 velocity=115 time=0
EXTRACT: note_off channel=9 note=76 velocity=0 time=0.027173875
EXTRACT: note_off channel=4 note=56 velocity=0 time=0.027173875
EXTRACT: note_off channel=4 note=61 velocity=0 time=0
EXTRACT: note_off channel=9 note=42 velocity=0 time=0
EXTRACT: note_off channel=9 note=36 velocity=64 time=0
EXTRACT: note_off channel=9 note=36 velocity=64 time=0
EXTRACT: note_off channel=9 note=36 velocity=64 time=0
EXTRACT: note_off channel=9 note=36 velocity=64 time=0
EXTRACT: note_off channel=13 note=56 velocity=0 time=0.0135869375
EXTRACT: note_off channel=13 note=68 velocity=0 time=0
EXTRACT: note_off channel=14 note=92 velocity=0 time=0
EXTRACT: note_off channel=8 note=49 velocity=0 time=0.0407608125
EXTRACT: note_on channel=1 note=37 velocity=110 time=0.1086955
EXTRACT: note_on channel=1 note=49 velocity=110 time=0
EXTRACT: note_on channel=8 note=61 velocity=127 time=0
EXTRACT: note_on channel=9 note=36 velocity=127 time=0
EXTRACT: note_on channel=9 note=36 velocity=127 time=0
EXTRACT: note_on channel=9 note=36 velocity=127 time=0
EXTRACT: note_on channel=9 note=36 velocity=127 time=0
EXTRACT: note_on channel=9 note=46 velocity=127 time=0
EXTRACT: note_on channel=13 note=68 velocity=115 time=0
EXTRACT: note_on channel=13 note=56 velocity=115 time=0
EXTRACT: note_on channel=14 note=92 velocity=115 time=0
EXTRACT: note_on channel=0 note=49 velocity=120 time=0
EXTRACT: note_off channel=9 note=46 velocity=0 time=0.05434775
EXTRACT: note_off channel=9 note=36 velocity=64 time=0
EXTRACT: note_off channel=9 note=36 velocity=64 time=0
EXTRACT: note_off channel=9 note=36 velocity=64 time=0
EXTRACT: note_off channel=9 note=36 velocity=64 time=0
EXTRACT: note_off channel=13 note=56 velocity=0 time=0.027173875
EXTRACT: note_off channel=13 note=68 velocity=0 time=0
EXTRACT: note_off channel=14 note=92 velocity=0 time=0.022644895833333335
EXTRACT: note_off channel=8 note=61 velocity=0 time=0.004528979166666667
EXTRACT: note_off channel=1 note=49 velocity=0 time=0.05434775
EXTRACT: note_off channel=1 note=37 velocity=0 time=0
EXTRACT: note_off channel=0 note=49 velocity=0 time=0
EXTRACT: note_off channel=9 note=28 velocity=0 time=0.0407608125
EXTRACT: note_on channel=4 note=63 velocity=105 time=0.0135869375
EXTRACT: note_on channel=4 note=58 velocity=105 time=0
EXTRACT: note_on channel=8 note=51 velocity=127 time=0
EXTRACT: note_on channel=9 note=36 velocity=127 time=0
EXTRACT: note_on channel=9 note=36 velocity=127 time=0
EXTRACT: note_on channel=9 note=36 velocity=127 time=0
EXTRACT: note_on channel=9 note=36 velocity=127 time=0
EXTRACT: note_on channel=9 note=42 velocity=127 time=0
EXTRACT: note_on channel=13 note=66 velocity=115 time=0
EXTRACT: note_on channel=13 note=54 velocity=115 time=0
EXTRACT: note_on channel=14 note=90 velocity=115 time=0
EXTRACT: note_off channel=4 note=58 velocity=0 time=0.05434775
EXTRACT: note_off channel=4 note=63 velocity=0 time=0
EXTRACT: note_off channel=9 note=42 velocity=0 time=0
EXTRACT: note_off channel=9 note=36 velocity=64 time=0
EXTRACT: note_off channel=9 note=36 velocity=64 time=0
EXTRACT: note_off channel=9 note=36 velocity=64 time=0
EXTRACT: note_off channel=9 note=36 velocity=64 time=0
EXTRACT: note_off channel=8 note=51 velocity=0 time=0.05434775
EXTRACT: note_on channel=1 note=39 velocity=110 time=0.1086955
EXTRACT: note_on channel=1 note=51 velocity=110 time=0
EXTRACT: note_on channel=4 note=63 velocity=105 time=0
EXTRACT: note_on channel=4 note=58 velocity=105 time=0
EXTRACT: note_on channel=8 note=63 velocity=127 time=0
EXTRACT: note_on channel=9 note=46 velocity=127 time=0
EXTRACT: note_on channel=0 note=51 velocity=120 time=0
EXTRACT: note_off channel=4 note=58 velocity=0 time=0.05434775
EXTRACT: note_off channel=4 note=63 velocity=0 time=0
EXTRACT: note_off channel=9 note=46 velocity=0 time=0
EXTRACT: note_off channel=13 note=54 velocity=0 time=0.0135869375
EXTRACT: note_off channel=13 note=66 velocity=0 time=0
EXTRACT: note_off channel=14 note=90 velocity=0 time=0
EXTRACT: note_off channel=8 note=63 velocity=0 time=0.0407608125
EXTRACT: note_on channel=13 note=63 velocity=115 time=0
EXTRACT: note_on channel=13 note=51 velocity=115 time=0
EXTRACT: note_on channel=14 note=87 velocity=115 time=0
EXTRACT: note_off channel=1 note=51 velocity=0 time=0.05434775
EXTRACT: note_off channel=1 note=39 velocity=0 time=0
EXTRACT: note_off channel=0 note=51 velocity=0 time=0
EXTRACT: note_on channel=4 note=63 velocity=105 time=0.05434775
EXTRACT: note_on channel=4 note=58 velocity=105 time=0
EXTRACT: note_on channel=8 note=51 velocity=127 time=0
EXTRACT: note_on channel=9 note=36 velocity=127 time=0
EXTRACT: note_on channel=9 note=36 velocity=127 time=0
EXTRACT: note_on channel=9 note=36 velocity=127 time=0
EXTRACT: note_on channel=9 note=36 velocity=127 time=0
EXTRACT: note_on channel=9 note=28 velocity=127 time=0
EXTRACT: note_on channel=9 note=42 velocity=127 time=0
EXTRACT: note_on channel=9 note=76 velocity=80 time=0
EXTRACT: note_off channel=13 note=51 velocity=0 time=0.009057958333333335
EXTRACT: note_off channel=13 note=63 velocity=0 time=0
EXTRACT: note_off channel=14 note=87 velocity=0 time=0
EXTRACT: note_off channel=9 note=76 velocity=0 time=0.01811591666666667
EXTRACT: note_off channel=4 note=58 velocity=0 time=0.027173875
EXTRACT: note_off channel=4 note=63 velocity=0 time=0
EXTRACT: note_off channel=9 note=42 velocity=0 time=0
EXTRACT: note_off channel=9 note=36 velocity=64 time=0
EXTRACT: note_off channel=9 note=36 velocity=64 time=0
EXTRACT: note_off channel=9 note=36 velocity=64 time=0
EXTRACT: note_off channel=9 note=36 velocity=64 time=0
EXTRACT: note_off channel=8 note=51 velocity=0 time=0.05434775
EXTRACT: note_on channel=1 note=39 velocity=110 time=0.1086955
EXTRACT: note_on channel=1 note=51 velocity=110 time=0
EXTRACT: note_on channel=8 note=63 velocity=127 time=0
EXTRACT: note_on channel=9 note=46 velocity=127 time=0
EXTRACT: note_on channel=9 note=76 velocity=80 time=0
EXTRACT: note_on channel=13 note=63 velocity=115 time=0
EXTRACT: note_on channel=13 note=51 velocity=115 time=0
EXTRACT: note_on channel=14 note=87 velocity=115 time=0
EXTRACT: note_on channel=0 note=51 velocity=120 time=0
EXTRACT: note_off channel=9 note=76 velocity=0 time=0.027173875
EXTRACT: note_off channel=13 note=51 velocity=0 time=0.022644895833333335
EXTRACT: note_off channel=13 note=63 velocity=0 time=0
EXTRACT: note_off channel=14 note=87 velocity=0 time=0
EXTRACT: note_off channel=9 note=46 velocity=0 time=0.004528979166666667
EXTRACT: note_off channel=8 note=63 velocity=0 time=0.03623183333333334
EXTRACT: note_on channel=4 note=63 velocity=105 time=0.01811591666666667
EXTRACT: note_on channel=4 note=58 velocity=105 time=0
EXTRACT: note_on channel=8 note=63 velocity=127 time=0
EXTRACT: note_on channel=13 note=63 velocity=115 time=0
EXTRACT: note_on channel=13 note=51 velocity=115 time=0
EXTRACT: note_on channel=14 note=87 velocity=115 time=0
EXTRACT: note_off channel=1 note=51 velocity=0 time=0.05434775
EXTRACT: note_off channel=1 note=39 velocity=0 time=0
EXTRACT: note_off channel=4 note=58 velocity=0 time=0
EXTRACT: note_off channel=4 note=63 velocity=0 time=0
EXTRACT: note_off channel=0 note=51 velocity=0 time=0
EXTRACT: note_off channel=13 note=51 velocity=0 time=0.004528979166666667
EXTRACT: note_off channel=13 note=63 velocity=0 time=0
EXTRACT: note_off channel=14 note=87 velocity=0 time=0
EXTRACT: note_off channel=9 note=28 velocity=0 time=0.03623183333333334
EXTRACT: note_on channel=4 note=63 velocity=105 time=0.0135869375
EXTRACT: note_on channel=4 note=58 velocity=105 time=0
EXTRACT: note_off channel=8 note=63 velocity=0 time=0
EXTRACT: note_on channel=8 note=51 velocity=127 time=0
EXTRACT: note_on channel=9 note=36 velocity=127 time=0
EXTRACT: note_on channel=9 note=36 velocity=127 time=0
EXTRACT: note_on channel=9 note=36 velocity=127 time=0
EXTRACT: note_on channel=9 note=36 velocity=127 time=0
EXTRACT: note_on channel=9 note=42 velocity=127 time=0
EXTRACT: note_on channel=13 note=63 velocity=115 time=0
EXTRACT: note_on channel=13 note=51 velocity=115 time=0
EXTRACT: note_on channel=14 note=87 velocity=115 time=0
EXTRACT: note_off channel=4 note=58 velocity=0 time=0.05434775
EXTRACT: note_off channel=4 note=63 velocity=0 time=0
EXTRACT: note_off channel=9 note=42 velocity=0 time=0
EXTRACT: note_off channel=9 note=36 velocity=64 time=0
EXTRACT: note_off channel=9 note=36 velocity=64 time=0
EXTRACT: note_off channel=9 note=36 velocity=64 time=0
EXTRACT: note_off channel=9 note=36 velocity=64 time=0
EXTRACT: note_off channel=13 note=51 velocity=0 time=0.022644895833333335
EXTRACT: note_off channel=13 note=63 velocity=0 time=0
EXTRACT: note_off channel=14 note=87 velocity=0 time=0
EXTRACT: note_off channel=8 note=51 velocity=0 time=0.03170285416666667
EXTRACT: note_on channel=1 note=39 velocity=110 time=0.1086955
EXTRACT: note_on channel=1 note=51 velocity=110 time=0
EXTRACT: note_on channel=4 note=63 velocity=105 time=0
EXTRACT: note_on channel=4 note=58 velocity=105 time=0
EXTRACT: note_on channel=8 note=63 velocity=127 time=0
EXTRACT: note_on channel=9 note=46 velocity=127 time=0
EXTRACT: note_on channel=13 note=63 velocity=115 time=0
EXTRACT: note_on channel=13 note=51 velocity=115 time=0
EXTRACT: note_on channel=14 note=87 velocity=115 time=0
EXTRACT: note_on channel=0 note=51 velocity=120 time=0
EXTRACT: note_off channel=4 note=58 velocity=0 time=0.05434775
EXTRACT: note_off channel=4 note=63 velocity=0 time=0
EXTRACT: note_off channel=9 note=46 velocity=0 time=0
EXTRACT: note_off channel=13 note=51 velocity=0 time=0.03170285416666667
EXTRACT: note_off channel=13 note=63 velocity=0 time=0
EXTRACT: note_off channel=14 note=87 velocity=0 time=0
EXTRACT: note_off channel=8 note=63 velocity=0 time=0.022644895833333335
EXTRACT: note_on channel=9 note=36 velocity=127 time=0
EXTRACT: note_on channel=9 note=36 velocity=127 time=0
EXTRACT: note_on channel=9 note=36 velocity=127 time=0
EXTRACT: note_on channel=9 note=36 velocity=127 time=0
EXTRACT: note_off channel=1 note=51 velocity=0 time=0.05434775
EXTRACT: note_off channel=1 note=39 velocity=0 time=0
EXTRACT: note_off channel=9 note=36 velocity=64 time=0
EXTRACT: note_off channel=9 note=36 velocity=64 time=0
EXTRACT: note_off channel=9 note=36 velocity=64 time=0
EXTRACT: note_off channel=9 note=36 velocity=64 time=0
EXTRACT: note_off channel=0 note=51 velocity=0 time=0
EXTRACT: note_on channel=4 note=63 velocity=105 time=0.05434775
EXTRACT: note_on channel=4 note=58 velocity=105 time=0
EXTRACT: note_on channel=8 note=51 velocity=127 time=0
EXTRACT: note_on channel=9 note=36 velocity=127 time=0
EXTRACT: note_on channel=9 note=36 velocity=127 time=0
EXTRACT: note_on channel=9 note=36 velocity=127 time=0
EXTRACT: note_on channel=9 note=36 velocity=127 time=0
EXTRACT: note_on channel=9 note=28 velocity=127 time=0
EXTRACT: note_on channel=9 note=42 velocity=127 time=0
EXTRACT: note_on channel=9 note=76 velocity=80 time=0
EXTRACT: note_on channel=13 note=66 velocity=115 time=0
EXTRACT: note_on channel=13 note=54 velocity=115 time=0
EXTRACT: note_on channel=14 note=90 velocity=115 time=0
EXTRACT: note_off channel=9 note=76 velocity=0 time=0.027173875
EXTRACT: note_off channel=4 note=58 velocity=0 time=0.027173875
EXTRACT: note_off channel=4 note=63 velocity=0 time=0
EXTRACT: note_off channel=9 note=42 velocity=0 time=0
EXTRACT: note_off channel=9 note=36 velocity=64 time=0
EXTRACT: note_off channel=9 note=36 velocity=64 time=0
EXTRACT: note_off channel=9 note=36 velocity=64 time=0
EXTRACT: note_off channel=9 note=36 velocity=64 time=0
EXTRACT: note_off channel=13 note=54 velocity=0 time=0.01811591666666667
EXTRACT: note_off channel=13 note=66 velocity=0 time=0
EXTRACT: note_off channel=14 note=90 velocity=0 time=0
EXTRACT: note_off channel=8 note=51 velocity=0 time=0.03623183333333334
EXTRACT: note_on channel=1 note=39 velocity=110 time=0.1086955
EXTRACT: note_on channel=1 note=51 velocity=110 time=0
EXTRACT: note_on channel=8 note=63 velocity=127 time=0
EXTRACT: note_on channel=9 note=36 velocity=127 time=0
EXTRACT: note_on channel=9 note=36 velocity=127 time=0
EXTRACT: note_on channel=9 note=36 velocity=127 time=0
EXTRACT: note_on channel=9 note=36 velocity=127 time=0
EXTRACT: note_on channel=9 note=46 velocity=127 time=0
EXTRACT: note_on channel=13 note=68 velocity=115 time=0
EXTRACT: note_on channel=13 note=56 velocity=115 time=0
EXTRACT: note_on channel=14 note=92 velocity=115 time=0
EXTRACT: note_on channel=0 note=51 velocity=120 time=0
EXTRACT: note_off channel=9 note=46 velocity=0 time=0.05434775
EXTRACT: note_off channel=9 note=36 velocity=64 time=0
EXTRACT: note_off channel=9 note=36 velocity=64 time=0
EXTRACT: note_off channel=9 note=36 velocity=64 time=0
EXTRACT: note_off channel=9 note=36 velocity=64 time=0
EXTRACT: note_off channel=13 note=56 velocity=0 time=0.01811591666666667
EXTRACT: note_off channel=13 note=68 velocity=0 time=0
EXTRACT: note_off channel=14 note=92 velocity=0 time=0
EXTRACT: note_off channel=8 note=63 velocity=0 time=0.03623183333333334
EXTRACT: note_off channel=1 note=51 velocity=0 time=0.05434775
EXTRACT: note_off channel=1 note=39 velocity=0 time=0
EXTRACT: note_off channel=0 note=51 velocity=0 time=0
EXTRACT: note_off channel=9 note=28 velocity=0 time=0.0407608125
EXTRACT: note_on channel=4 note=59 velocity=105 time=0.0135869375
EXTRACT: note_on channel=4 note=54 velocity=105 time=0
EXTRACT: note_on channel=8 note=47 velocity=127 time=0
EXTRACT: note_on channel=9 note=36 velocity=127 time=0
EXTRACT: note_on channel=9 note=36 velocity=127 time=0
EXTRACT: note_on channel=9 note=36 velocity=127 time=0
EXTRACT: note_on channel=9 note=36 velocity=127 time=0
EXTRACT: note_on channel=9 note=42 velocity=127 time=0
EXTRACT: note_on channel=13 note=70 velocity=115 time=0
EXTRACT: note_on channel=13 note=58 velocity=115 time=0
EXTRACT: note_on channel=14 note=94 velocity=115 time=0
EXTRACT: note_off channel=4 note=54 velocity=0 time=0.05434775
EXTRACT: note_off channel=4 note=59 velocity=0 time=0
EXTRACT: note_off channel=9 note=42 velocity=0 time=0
EXTRACT: note_off channel=9 note=36 velocity=64 time=0
EXTRACT: note_off channel=9 note=36 velocity=64 time=0
EXTRACT: note_off channel=9 note=36 velocity=64 time=0
EXTRACT: note_off channel=9 note=36 velocity=64 time=0
EXTRACT: note_off channel=8 note=47 velocity=0 time=0.05434775
EXTRACT: note_on channel=1 note=35 velocity=110 time=0.1086955
EXTRACT: note_on channel=1 note=47 velocity=110 time=0
EXTRACT: note_on channel=4 note=59 velocity=105 time=0
EXTRACT: note_on channel=4 note=54 velocity=105 time=0
EXTRACT: note_on channel=8 note=59 velocity=127 time=0
EXTRACT: note_on channel=9 note=46 velocity=127 time=0
EXTRACT: note_on channel=0 note=47 velocity=120 time=0
EXTRACT: note_off channel=4 note=54 velocity=0 time=0.05434775
EXTRACT: note_off channel=4 note=59 velocity=0 time=0
EXTRACT: note_off channel=9 note=46 velocity=0 time=0
EXTRACT: note_off channel=13 note=58 velocity=0 time=0.009057958333333335
EXTRACT: note_off channel=13 note=70 velocity=0 time=0
EXTRACT: note_off channel=14 note=94 velocity=0 time=0
EXTRACT: note_off channel=8 note=59 velocity=0 time=0.04528979166666667
EXTRACT: note_on channel=13 note=66 velocity=115 time=0
EXTRACT: note_on channel=13 note=54 velocity=115 time=0
EXTRACT: note_on channel=14 note=90 velocity=115 time=0
EXTRACT: note_off channel=1 note=47 velocity=0 time=0.05434775
EXTRACT: note_off channel=1 note=35 velocity=0 time=0
EXTRACT: note_off channel=0 note=47 velocity=0 time=0
EXTRACT: note_off channel=13 note=54 velocity=0 time=0.04528979166666667
EXTRACT: note_off channel=13 note=66 velocity=0 time=0
EXTRACT: note_off channel=14 note=90 velocity=0 time=0
EXTRACT: note_on channel=4 note=59 velocity=105 time=0.009057958333333335
EXTRACT: note_on channel=4 note=54 velocity=105 time=0
EXTRACT: note_on channel=8 note=47 velocity=127 time=0
EXTRACT: note_on channel=9 note=36 velocity=127 time=0
EXTRACT: note_on channel=9 note=36 velocity=127 time=0
EXTRACT: note_on channel=9 note=36 velocity=127 time=0
EXTRACT: note_on channel=9 note=36 velocity=127 time=0
EXTRACT: note_on channel=9 note=28 velocity=127 time=0
EXTRACT: note_on channel=9 note=42 velocity=127 time=0
EXTRACT: note_on channel=9 note=76 velocity=80 time=0
EXTRACT: note_off channel=9 note=76 velocity=0 time=0.027173875
EXTRACT: note_off channel=4 note=54 velocity=0 time=0.027173875
EXTRACT: note_off channel=4 note=59 velocity=0 time=0
EXTRACT: note_off channel=9 note=42 velocity=0 time=0
EXTRACT: note_off channel=9 note=36 velocity=64 time=0
EXTRACT: note_off channel=9 note=36 velocity=64 time=0
EXTRACT: note_off channel=9 note=36 velocity=64 time=0
EXTRACT: note_off channel=9 note=36 velocity=64 time=0
EXTRACT: note_off channel=8 note=47 velocity=0 time=0.05434775
EXTRACT: note_on channel=1 note=35 velocity=110 time=0.1086955
EXTRACT: note_on channel=1 note=47 velocity=110 time=0
EXTRACT: note_on channel=8 note=59 velocity=127 time=0
EXTRACT: note_on channel=9 note=46 velocity=127 time=0
EXTRACT: note_on channel=9 note=76 velocity=80 time=0
EXTRACT: note_on channel=13 note=59 velocity=115 time=0
EXTRACT: note_on channel=13 note=47 velocity=115 time=0
EXTRACT: note_on channel=14 note=83 velocity=115 time=0
EXTRACT: note_on channel=0 note=47 velocity=120 time=0
EXTRACT: note_off channel=9 note=76 velocity=0 time=0.027173875
EXTRACT: note_off channel=9 note=46 velocity=0 time=0.027173875
EXTRACT: note_off channel=8 note=59 velocity=0 time=0.03623183333333334
EXTRACT: note_on channel=4 note=59 velocity=105 time=0.01811591666666667
EXTRACT: note_on channel=4 note=54 velocity=105 time=0
EXTRACT: note_on channel=8 note=59 velocity=127 time=0
EXTRACT: note_off channel=1 note=47 velocity=0 time=0.05434775
EXTRACT: note_off channel=1 note=35 velocity=0 time=0
EXTRACT: note_off channel=4 note=54 velocity=0 time=0
EXTRACT: note_off channel=4 note=59 velocity=0 time=0
EXTRACT: note_off channel=0 note=47 velocity=0 time=0
EXTRACT: note_off channel=13 note=47 velocity=0 time=0.03170285416666667
EXTRACT: note_off channel=13 note=59 velocity=0 time=0
EXTRACT: note_off channel=14 note=83 velocity=0 time=0
EXTRACT: note_off channel=9 note=28 velocity=0 time=0.009057958333333335
EXTRACT: note_on channel=4 note=61 velocity=105 time=0.0135869375
EXTRACT: note_on channel=4 note=56 velocity=105 time=0
EXTRACT: note_off channel=8 note=59 velocity=0 time=0
EXTRACT: note_on channel=8 note=49 velocity=127 time=0
EXTRACT: note_on channel=9 note=36 velocity=127 time=0
EXTRACT: note_on channel=9 note=36 velocity=127 time=0
EXTRACT: note_on channel=9 note=36 velocity=127 time=0
EXTRACT: note_on channel=9 note=36 velocity=127 time=0
EXTRACT: note_on channel=9 note=42 velocity=127 time=0
EXTRACT: note_on channel=13 note=70 velocity=115 time=0
EXTRACT: note_on channel=13 note=58 velocity=115 time=0
EXTRACT: note_on channel=14 note=94 velocity=115 time=0
EXTRACT: note_off channel=4 note=56 velocity=0 time=0.05434775
EXTRACT: note_off channel=4 note=61 velocity=0 time=0
EXTRACT: note_off channel=9 note=42 velocity=0 time=0
EXTRACT: note_off channel=9 note=36 velocity=64 time=0
EXTRACT: note_off channel=9 note=36 velocity=64 time=0
EXTRACT: note_off channel=9 note=36 velocity=64 time=0
EXTRACT: note_off channel=9 note=36 velocity=64 time=0
EXTRACT: note_off channel=13 note=58 velocity=0 time=0.03170285416666667
EXTRACT: note_off channel=13 note=70 velocity=0 time=0
EXTRACT: note_off channel=14 note=94 velocity=0 time=0.009057958333333335
EXTRACT: note_off channel=8 note=49 velocity=0 time=0.0135869375
EXTRACT: note_on channel=1 note=37 velocity=110 time=0.1086955
EXTRACT: note_on channel=1 note=49 velocity=110 time=0
EXTRACT: note_on channel=4 note=61 velocity=105 time=0
EXTRACT: note_on channel=4 note=56 velocity=105 time=0
EXTRACT: note_on channel=8 note=61 velocity=127 time=0
EXTRACT: note_on channel=9 note=46 velocity=127 time=0
EXTRACT: note_on channel=13 note=70 velocity=115 time=0
EXTRACT: note_on channel=13 note=58 velocity=115 time=0
EXTRACT: note_on channel=14 note=94 velocity=115 time=0
EXTRACT: note_on channel=0 note=49 velocity=120 time=0
EXTRACT: note_off channel=4 note=56 velocity=0 time=0.05434775
EXTRACT: note_off channel=4 note=61 velocity=0 time=0
EXTRACT: note_off channel=9 note=46 velocity=0 time=0
EXTRACT: note_off channel=13 note=58 velocity=0 time=0.0407608125
EXTRACT: note_off channel=13 note=70 velocity=0 time=0
EXTRACT: note_off channel=14 note=94 velocity=0 time=0.004528979166666667
EXTRACT: note_off channel=8 note=61 velocity=0 time=0.009057958333333335
EXTRACT: note_on channel=9 note=36 velocity=127 time=0
EXTRACT: note_on channel=9 note=36 velocity=127 time=0
EXTRACT: note_on channel=9 note=36 velocity=127 time=0
EXTRACT: note_on channel=9 note=36 velocity=127 time=0
EXTRACT: note_off channel=1 note=49 velocity=0 time=0.05434775
EXTRACT: note_off channel=1 note=37 velocity=0 time=0
EXTRACT: note_off channel=9 note=36 velocity=64 time=0
EXTRACT: note_off channel=9 note=36 velocity=64 time=0
EXTRACT: note_off channel=9 note=36 velocity=64 time=0
EXTRACT: note_off channel=9 note=36 velocity=64 time=0
EXTRACT: note_off channel=0 note=49 velocity=0 time=0
EXTRACT: note_on channel=4 note=61 velocity=105 time=0.05434775
EXTRACT: note_on channel=4 note=56 velocity=105 time=0
EXTRACT: note_on channel=8 note=49 velocity=127 time=0
EXTRACT: note_on channel=9 note=36 velocity=127 time=0
EXTRACT: note_on channel=9 note=36 velocity=127 time=0
EXTRACT: note_on channel=9 note=36 velocity=127 time=0
EXTRACT: note_on channel=9 note=36 velocity=127 time=0
EXTRACT: note_on channel=9 note=28 velocity=127 time=0
EXTRACT: note_on channel=9 note=42 velocity=127 time=0
EXTRACT: note_on channel=9 note=76 velocity=80 time=0
EXTRACT: note_on channel=13 note=68 velocity=115 time=0
EXTRACT: note_on channel=13 note=56 velocity=115 time=0
EXTRACT: note_on channel=14 note=92 velocity=115 time=0
EXTRACT: note_off channel=9 note=76 velocity=0 time=0.027173875
EXTRACT: note_off channel=4 note=56 velocity=0 time=0.027173875
EXTRACT: note_off channel=4 note=61 velocity=0 time=0
EXTRACT: note_off channel=9 note=42 velocity=0 time=0
EXTRACT: note_off channel=9 note=36 velocity=64 time=0
EXTRACT: note_off channel=9 note=36 velocity=64 time=0
EXTRACT: note_off channel=9 note=36 velocity=64 time=0
EXTRACT: note_off channel=9 note=36 velocity=64 time=0
EXTRACT: note_off channel=14 note=92 velocity=0 time=0.022644895833333335
EXTRACT: note_off channel=13 note=56 velocity=0 time=0.004528979166666667
EXTRACT: note_off channel=13 note=68 velocity=0 time=0
EXTRACT: note_off channel=8 note=49 velocity=0 time=0.027173875
EXTRACT: note_on channel=1 note=37 velocity=110 time=0.1086955
EXTRACT: note_on channel=1 note=49 velocity=110 time=0
EXTRACT: note_on channel=8 note=61 velocity=127 time=0
EXTRACT: note_on channel=9 note=36 velocity=127 time=0
EXTRACT: note_on channel=9 note=36 velocity=127 time=0
EXTRACT: note_on channel=9 note=36 velocity=127 time=0
EXTRACT: note_on channel=9 note=36 velocity=127 time=0
EXTRACT: note_on channel=9 note=46 velocity=127 time=0
EXTRACT: note_on channel=13 note=68 velocity=115 time=0
EXTRACT: note_on channel=13 note=56 velocity=115 time=0
EXTRACT: note_on channel=14 note=92 velocity=115 time=0
EXTRACT: note_on channel=0 note=49 velocity=120 time=0
EXTRACT: note_off channel=9 note=46 velocity=0 time=0.05434775
EXTRACT: note_off channel=9 note=36 velocity=64 time=0
EXTRACT: note_off channel=9 note=36 velocity=64 time=0
EXTRACT: note_off channel=9 note=36 velocity=64 time=0
EXTRACT: note_off channel=9 note=36 velocity=64 time=0
EXTRACT: note_off channel=13 note=56 velocity=0 time=0.03170285416666667
EXTRACT: note_off channel=13 note=68 velocity=0 time=0
EXTRACT: note_off channel=14 note=92 velocity=0 time=0.004528979166666667
EXTRACT: note_off channel=8 note=61 velocity=0 time=0.01811591666666667
EXTRACT: note_off channel=1 note=49 velocity=0 time=0.05434775
EXTRACT: note_off channel=1 note=37 velocity=0 time=0
EXTRACT: note_off channel=0 note=49 velocity=0 time=0
EXTRACT: note_off channel=9 note=28 velocity=0 time=0.0407608125
EXTRACT: note_on channel=4 note=66 velocity=105 time=0.0135869375
EXTRACT: note_on channel=4 note=61 velocity=105 time=0
EXTRACT: note_on channel=8 note=54 velocity=127 time=0
EXTRACT: note_on channel=9 note=36 velocity=127 time=0
EXTRACT: note_on channel=9 note=36 velocity=127 time=0
EXTRACT: note_on channel=9 note=42 velocity=127 time=0
EXTRACT: note_on channel=9 note=49 velocity=50 time=0
EXTRACT: note_on channel=13 note=66 velocity=115 time=0
EXTRACT: note_on channel=13 note=54 velocity=115 time=0
EXTRACT: note_on channel=14 note=90 velocity=115 time=0
EXTRACT: note_off channel=9 note=49 velocity=0 time=0.027173875
EXTRACT: note_off channel=4 note=61 velocity=0 time=0.027173875
EXTRACT: note_off channel=4 note=66 velocity=0 time=0
EXTRACT: note_off channel=9 note=42 velocity=0 time=0
EXTRACT: note_off channel=8 note=54 velocity=0 time=0.05434775
EXTRACT: note_on channel=9 note=36 velocity=127 time=0
EXTRACT: note_on channel=9 note=36 velocity=127 time=0
EXTRACT: note_off channel=9 note=36 velocity=64 time=0.09963754166666668
EXTRACT: note_off channel=9 note=36 velocity=64 time=0
EXTRACT: note_on channel=1 note=42 velocity=110 time=0.009057958333333335
EXTRACT: note_on channel=1 note=54 velocity=110 time=0
EXTRACT: note_on channel=4 note=66 velocity=105 time=0
EXTRACT: note_on channel=4 note=61 velocity=105 time=0
EXTRACT: note_on channel=8 note=66 velocity=127 time=0
EXTRACT: note_on channel=9 note=36 velocity=127 time=0
EXTRACT: note_on channel=9 note=36 velocity=127 time=0
EXTRACT: note_on channel=9 note=46 velocity=127 time=0
EXTRACT: note_off channel=14 note=90 velocity=0 time=0
EXTRACT: note_on channel=0 note=54 velocity=120 time=0
EXTRACT: note_off channel=13 note=54 velocity=0 time=0.03623183333333334
EXTRACT: note_off channel=13 note=66 velocity=0 time=0
EXTRACT: note_off channel=4 note=61 velocity=0 time=0.01811591666666667
EXTRACT: note_off channel=4 note=66 velocity=0 time=0
EXTRACT: note_off channel=9 note=46 velocity=0 time=0
EXTRACT: note_off channel=9 note=36 velocity=64 time=0.04528979166666667
EXTRACT: note_off channel=9 note=36 velocity=64 time=0
EXTRACT: note_off channel=8 note=66 velocity=0 time=0.009057958333333335
EXTRACT: note_on channel=9 note=36 velocity=127 time=0
EXTRACT: note_on channel=9 note=36 velocity=127 time=0
EXTRACT: note_off channel=1 note=54 velocity=0 time=0.05434775
EXTRACT: note_off channel=1 note=42 velocity=0 time=0
EXTRACT: note_off channel=0 note=54 velocity=0 time=0
EXTRACT: note_off channel=9 note=36 velocity=64 time=0.04528979166666667
EXTRACT: note_off channel=9 note=36 velocity=64 time=0
EXTRACT: note_on channel=4 note=66 velocity=105 time=0.009057958333333335
EXTRACT: note_on channel=4 note=61 velocity=105 time=0
EXTRACT: note_on channel=8 note=54 velocity=127 time=0
EXTRACT: note_on channel=9 note=36 velocity=127 time=0
EXTRACT: note_on channel=9 note=36 velocity=127 time=0
EXTRACT: note_on channel=9 note=28 velocity=127 time=0
EXTRACT: note_on channel=9 note=42 velocity=127 time=0
EXTRACT: note_on channel=9 note=76 velocity=80 time=0
EXTRACT: note_on channel=13 note=70 velocity=115 time=0
EXTRACT: note_on channel=13 note=58 velocity=115 time=0
EXTRACT: note_on channel=14 note=94 velocity=115 time=0
EXTRACT: note_off channel=9 note=76 velocity=0 time=0.027173875
EXTRACT: note_off channel=4 note=61 velocity=0 time=0.027173875
EXTRACT: note_off channel=4 note=66 velocity=0 time=0
EXTRACT: note_off channel=9 note=42 velocity=0 time=0
EXTRACT: note_off channel=9 note=36 velocity=64 time=0.04528979166666667
EXTRACT: note_off channel=9 note=36 velocity=64 time=0
EXTRACT: note_off channel=8 note=54 velocity=0 time=0.009057958333333335
EXTRACT: note_on channel=9 note=36 velocity=127 time=0
EXTRACT: note_on channel=9 note=36 velocity=127 time=0
EXTRACT: note_off channel=9 note=36 velocity=64 time=0.09963754166666668
EXTRACT: note_off channel=9 note=36 velocity=64 time=0
EXTRACT: note_on channel=1 note=42 velocity=110 time=0.009057958333333335
EXTRACT: note_on channel=1 note=54 velocity=110 time=0
EXTRACT: note_on channel=8 note=66 velocity=127 time=0
EXTRACT: note_on channel=9 note=36 velocity=127 time=0
EXTRACT: note_on channel=9 note=36 velocity=127 time=0
EXTRACT: note_on channel=9 note=46 velocity=127 time=0
EXTRACT: note_on channel=9 note=76 velocity=80 time=0
EXTRACT: note_on channel=0 note=54 velocity=120 time=0
EXTRACT: note_off channel=9 note=76 velocity=0 time=0.027173875
EXTRACT: note_off channel=9 note=46 velocity=0 time=0.027173875
EXTRACT: note_off channel=14 note=94 velocity=0 time=0.0135869375
EXTRACT: note_off channel=13 note=58 velocity=0 time=0.0135869375
EXTRACT: note_off channel=13 note=70 velocity=0 time=0
EXTRACT: note_off channel=8 note=66 velocity=0 time=0.009057958333333335
EXTRACT: note_off channel=9 note=36 velocity=64 time=0.009057958333333335
EXTRACT: note_off channel=9 note=36 velocity=64 time=0
EXTRACT: note_on channel=4 note=66 velocity=105 time=0.009057958333333335
EXTRACT: note_on channel=4 note=61 velocity=105 time=0
EXTRACT: note_on channel=8 note=66 velocity=127 time=0
EXTRACT: note_on channel=9 note=36 velocity=127 time=0
EXTRACT: note_on channel=9 note=36 velocity=127 time=0
EXTRACT: note_off channel=1 note=54 velocity=0 time=0.05434775
EXTRACT: note_off channel=1 note=42 velocity=0 time=0
EXTRACT: note_off channel=4 note=61 velocity=0 time=0
EXTRACT: note_off channel=4 note=66 velocity=0 time=0
EXTRACT: note_off channel=0 note=54 velocity=0 time=0
EXTRACT: note_off channel=9 note=28 velocity=0 time=0.0407608125
EXTRACT: note_off channel=9 note=36 velocity=64 time=0.004528979166666667
EXTRACT: note_off channel=9 note=36 velocity=64 time=0
EXTRACT: note_on channel=4 note=66 velocity=105 time=0.009057958333333335
EXTRACT: note_on channel=4 note=61 velocity=105 time=0
EXTRACT: note_off channel=8 note=66 velocity=0 time=0
EXTRACT: note_on channel=8 note=54 velocity=127 time=0
EXTRACT: note_on channel=9 note=36 velocity=127 time=0
EXTRACT: note_on channel=9 note=36 velocity=127 time=0
EXTRACT: note_on channel=9 note=40 velocity=127 time=0
EXTRACT: note_on channel=9 note=42 velocity=127 time=0
EXTRACT: note_on channel=13 note=70 velocity=115 time=0
EXTRACT: note_on channel=13 note=58 velocity=115 time=0
EXTRACT: note_on channel=14 note=94 velocity=115 time=0
EXTRACT: note_off channel=4 note=61 velocity=0 time=0.05434775
EXTRACT: note_off channel=4 note=66 velocity=0 time=0
EXTRACT: note_off channel=9 note=42 velocity=0 time=0
EXTRACT: note_off channel=9 note=40 velocity=127 time=0.01811591666666667
EXTRACT: note_off channel=9 note=36 velocity=64 time=0.027173875
EXTRACT: note_off channel=9 note=36 velocity=64 time=0
EXTRACT: note_off channel=8 note=54 velocity=0 time=0.009057958333333335
EXTRACT: note_on channel=9 note=36 velocity=127 time=0
EXTRACT: note_on channel=9 note=36 velocity=127 time=0
EXTRACT: note_on channel=9 note=40 velocity=127 time=0
EXTRACT: note_off channel=9 note=40 velocity=127 time=0.07246366666666668
EXTRACT: note_off channel=9 note=36 velocity=64 time=0.027173875
EXTRACT: note_off channel=9 note=36 velocity=64 time=0
EXTRACT: note_on channel=1 note=42 velocity=110 time=0.009057958333333335
EXTRACT: note_on channel=1 note=54 velocity=110 time=0
EXTRACT: note_on channel=4 note=66 velocity=105 time=0
EXTRACT: note_on channel=4 note=61 velocity=105 time=0
EXTRACT: note_on channel=8 note=66 velocity=127 time=0
EXTRACT: note_on channel=9 note=36 velocity=127 time=0
EXTRACT: note_on channel=9 note=36 velocity=127 time=0
EXTRACT: note_on channel=9 note=40 velocity=127 time=0
EXTRACT: note_on channel=9 note=46 velocity=127 time=0
EXTRACT: note_on channel=0 note=54 velocity=120 time=0
EXTRACT: note_off channel=4 note=61 velocity=0 time=0.05434775
EXTRACT: note_off channel=4 note=66 velocity=0 time=0
EXTRACT: note_off channel=9 note=46 velocity=0 time=0
EXTRACT: note_off channel=9 note=40 velocity=127 time=0.01811591666666667
EXTRACT: note_off channel=9 note=36 velocity=64 time=0.027173875
EXTRACT: note_off channel=9 note=36 velocity=64 time=0
EXTRACT: note_off channel=13 note=58 velocity=0 time=0
EXTRACT: note_off channel=13 note=70 velocity=0 time=0
EXTRACT: note_off channel=14 note=94 velocity=0 time=0
EXTRACT: note_off channel=8 note=66 velocity=0 time=0.009057958333333335
EXTRACT: note_on channel=9 note=36 velocity=127 time=0
EXTRACT: note_on channel=9 note=36 velocity=127 time=0
EXTRACT: note_on channel=9 note=40 velocity=127 time=0
EXTRACT: note_off channel=1 note=54 velocity=0 time=0.05434775
EXTRACT: note_off channel=1 note=42 velocity=0 time=0
EXTRACT: note_off channel=0 note=54 velocity=0 time=0
EXTRACT: note_off channel=9 note=40 velocity=127 time=0.01811591666666667
EXTRACT: note_off channel=9 note=36 velocity=64 time=0.027173875
EXTRACT: note_off channel=9 note=36 velocity=64 time=0
EXTRACT: note_on channel=4 note=66 velocity=105 time=0.009057958333333335
EXTRACT: note_on channel=4 note=61 velocity=105 time=0
EXTRACT: note_on channel=8 note=54 velocity=127 time=0
EXTRACT: note_on channel=9 note=36 velocity=127 time=0
EXTRACT: note_on channel=9 note=36 velocity=127 time=0
EXTRACT: note_on channel=9 note=40 velocity=127 time=0
EXTRACT: note_on channel=9 note=28 velocity=127 time=0
EXTRACT: note_on channel=9 note=42 velocity=127 time=0
EXTRACT: note_on channel=9 note=76 velocity=80 time=0
EXTRACT: note_on channel=9 note=49 velocity=50 time=0
EXTRACT: note_on channel=13 note=68 velocity=115 time=0
EXTRACT: note_on channel=13 note=56 velocity=115 time=0
EXTRACT: note_on channel=14 note=92 velocity=115 time=0
EXTRACT: note_off channel=9 note=49 velocity=0 time=0.027173875
EXTRACT: note_off channel=9 note=76 velocity=0 time=0
EXTRACT: note_off channel=4 note=61 velocity=0 time=0.027173875
EXTRACT: note_off channel=4 note=66 velocity=0 time=0
EXTRACT: note_off channel=9 note=42 velocity=0 time=0
EXTRACT: note_off channel=9 note=40 velocity=127 time=0.01811591666666667
EXTRACT: note_off channel=9 note=36 velocity=64 time=0.027173875
EXTRACT: note_off channel=9 note=36 velocity=64 time=0
EXTRACT: note_off channel=8 note=54 velocity=0 time=0.009057958333333335
EXTRACT: note_on channel=9 note=36 velocity=127 time=0
EXTRACT: note_on channel=9 note=36 velocity=127 time=0
EXTRACT: note_on channel=9 note=40 velocity=127 time=0
EXTRACT: note_off channel=9 note=40 velocity=127 time=0.07246366666666668
EXTRACT: note_off channel=9 note=36 velocity=64 time=0.027173875
EXTRACT: note_off channel=9 note=36 velocity=64 time=0
EXTRACT: note_on channel=1 note=42 velocity=110 time=0.009057958333333335
EXTRACT: note_on channel=1 note=54 velocity=110 time=0
EXTRACT: note_on channel=8 note=66 velocity=127 time=0
EXTRACT: note_on channel=9 note=36 velocity=127 time=0
EXTRACT: note_on channel=9 note=36 velocity=127 time=0
EXTRACT: note_on channel=9 note=40 velocity=127 time=0
EXTRACT: note_on channel=9 note=46 velocity=127 time=0
EXTRACT: note_on channel=0 note=54 velocity=120 time=0
EXTRACT: note_off channel=9 note=46 velocity=0 time=0.05434775
EXTRACT: note_off channel=14 note=92 velocity=0 time=0
EXTRACT: note_off channel=9 note=40 velocity=127 time=0.01811591666666667
EXTRACT: note_off channel=9 note=36 velocity=64 time=0.027173875
EXTRACT: note_off channel=9 note=36 velocity=64 time=0
EXTRACT: note_off channel=8 note=66 velocity=0 time=0.009057958333333335
EXTRACT: note_on channel=9 note=36 velocity=127 time=0
EXTRACT: note_on channel=9 note=36 velocity=127 time=0
EXTRACT: note_off channel=13 note=56 velocity=0 time=0.03170285416666667
EXTRACT: note_off channel=13 note=68 velocity=0 time=0
EXTRACT: note_off channel=1 note=54 velocity=0 time=0.022644895833333335
EXTRACT: note_off channel=1 note=42 velocity=0 time=0
EXTRACT: note_off channel=0 note=54 velocity=0 time=0
EXTRACT: note_off channel=9 note=28 velocity=0 time=0.0407608125
EXTRACT: note_off channel=9 note=36 velocity=64 time=0.004528979166666667
EXTRACT: note_off channel=9 note=36 velocity=64 time=0
EXTRACT: note_on channel=4 note=66 velocity=105 time=0.009057958333333335
EXTRACT: note_on channel=4 note=61 velocity=105 time=0
EXTRACT: note_on channel=8 note=54 velocity=127 time=0
EXTRACT: note_off channel=9 note=36 velocity=64 time=0
EXTRACT: note_off channel=9 note=36 velocity=64 time=0
EXTRACT: note_on channel=9 note=36 velocity=127 time=0
EXTRACT: note_on channel=9 note=36 velocity=127 time=0
EXTRACT: note_on channel=9 note=36 velocity=127 time=0
EXTRACT: note_on channel=9 note=36 velocity=127 time=0
EXTRACT: note_on channel=9 note=42 velocity=127 time=0
EXTRACT: note_on channel=9 note=49 velocity=85 time=0
EXTRACT: note_on channel=9 note=49 velocity=85 time=0
EXTRACT: note_on channel=13 note=66 velocity=115 time=0
EXTRACT: note_on channel=13 note=54 velocity=115 time=0
EXTRACT: note_on channel=14 note=90 velocity=115 time=0
EXTRACT: note_off channel=9 note=49 velocity=0 time=0.027173875
EXTRACT: note_off channel=9 note=49 velocity=0 time=0
EXTRACT: note_off channel=4 note=61 velocity=0 time=0.027173875
EXTRACT: note_off channel=4 note=66 velocity=0 time=0
EXTRACT: note_off channel=9 note=42 velocity=0 time=0
EXTRACT: note_off channel=9 note=36 velocity=64 time=0
EXTRACT: note_off channel=9 note=36 velocity=64 time=0
EXTRACT: note_off channel=9 note=36 velocity=64 time=0
EXTRACT: note_off channel=9 note=36 velocity=64 time=0
EXTRACT: note_off channel=8 note=54 velocity=0 time=0.05434775
EXTRACT: note_on channel=1 note=42 velocity=110 time=0.1086955
EXTRACT: note_on channel=1 note=54 velocity=110 time=0
EXTRACT: note_on channel=4 note=66 velocity=105 time=0
EXTRACT: note_on channel=4 note=61 velocity=105 time=0
EXTRACT: note_on channel=8 note=66 velocity=127 time=0
EXTRACT: note_on channel=9 note=46 velocity=127 time=0
EXTRACT: note_on channel=0 note=54 velocity=120 time=0
EXTRACT: note_off channel=4 note=61 velocity=0 time=0.05434775
EXTRACT: note_off channel=4 note=66 velocity=0 time=0
EXTRACT: note_off channel=9 note=46 velocity=0 time=0
EXTRACT: note_off channel=13 note=54 velocity=0 time=0
EXTRACT: note_off channel=13 note=66 velocity=0 time=0
EXTRACT: note_off channel=14 note=90 velocity=0 time=0.01811591666666667
EXTRACT: note_off channel=8 note=66 velocity=0 time=0.03623183333333334
EXTRACT: note_on channel=13 note=61 velocity=115 time=0
EXTRACT: note_on channel=13 note=49 velocity=115 time=0
EXTRACT: note_on channel=14 note=85 velocity=115 time=0
EXTRACT: note_off channel=1 note=54 velocity=0 time=0.05434775
EXTRACT: note_off channel=1 note=42 velocity=0 time=0
EXTRACT: note_off channel=0 note=54 velocity=0 time=0
EXTRACT: note_on channel=4 note=66 velocity=105 time=0.05434775
EXTRACT: note_on channel=4 note=61 velocity=105 time=0
EXTRACT: note_on channel=8 note=54 velocity=127 time=0
EXTRACT: note_on channel=9 note=36 velocity=127 time=0
EXTRACT: note_on channel=9 note=36 velocity=127 time=0
EXTRACT: note_on channel=9 note=36 velocity=127 time=0
EXTRACT: note_on channel=9 note=36 velocity=127 time=0
EXTRACT: note_on channel=9 note=28 velocity=127 time=0
EXTRACT: note_on channel=9 note=42 velocity=127 time=0
EXTRACT: note_on channel=9 note=76 velocity=80 time=0
EXTRACT: note_off channel=13 note=49 velocity=0 time=0
EXTRACT: note_off channel=13 note=61 velocity=0 time=0
EXTRACT: note_off channel=14 note=85 velocity=0 time=0
EXTRACT: note_off channel=9 note=76 velocity=0 time=0.027173875
EXTRACT: note_off channel=4 note=61 velocity=0 time=0.027173875
EXTRACT: note_off channel=4 note=66 velocity=0 time=0
EXTRACT: note_off channel=9 note=42 velocity=0 time=0
EXTRACT: note_off channel=9 note=36 velocity=64 time=0
EXTRACT: note_off channel=9 note=36 velocity=64 time=0
EXTRACT: note_off channel=9 note=36 velocity=64 time=0
EXTRACT: note_off channel=9 note=36 velocity=64 time=0
EXTRACT: note_off channel=8 note=54 velocity=0 time=0.05434775
EXTRACT: note_on channel=1 note=42 velocity=110 time=0.1086955
EXTRACT: note_on channel=1 note=54 velocity=110 time=0
EXTRACT: note_on channel=8 note=66 velocity=127 time=0
EXTRACT: note_on channel=9 note=46 velocity=127 time=0
EXTRACT: note_on channel=9 note=76 velocity=80 time=0
EXTRACT: note_on channel=13 note=61 velocity=115 time=0
EXTRACT: note_on channel=13 note=49 velocity=115 time=0
EXTRACT: note_on channel=14 note=85 velocity=115 time=0
EXTRACT: note_on channel=0 note=54 velocity=120 time=0
EXTRACT: note_off channel=9 note=76 velocity=0 time=0.027173875
EXTRACT: note_off channel=9 note=46 velocity=0 time=0.027173875
EXTRACT: note_off channel=8 note=66 velocity=0 time=0.03623183333333334
EXTRACT: note_on channel=4 note=66 velocity=105 time=0.01811591666666667
EXTRACT: note_on channel=4 note=61 velocity=105 time=0
EXTRACT: note_on channel=8 note=66 velocity=127 time=0
EXTRACT: note_off channel=1 note=54 velocity=0 time=0.05434775
EXTRACT: note_off channel=1 note=42 velocity=0 time=0
EXTRACT: note_off channel=4 note=61 velocity=0 time=0
EXTRACT: note_off channel=4 note=66 velocity=0 time=0
EXTRACT: note_off channel=13 note=49 velocity=0 time=0
EXTRACT: note_off channel=13 note=61 velocity=0 time=0
EXTRACT: note_off channel=14 note=85 velocity=0 time=0
EXTRACT: note_off channel=0 note=54 velocity=0 time=0
EXTRACT: note_off channel=9 note=28 velocity=0 time=0.0407608125
EXTRACT: note_on channel=4 note=61 velocity=105 time=0.0135869375
EXTRACT: note_on channel=4 note=56 velocity=105 time=0
EXTRACT: note_off channel=8 note=66 velocity=0 time=0
EXTRACT: note_on channel=8 note=49 velocity=127 time=0
EXTRACT: note_on channel=9 note=36 velocity=127 time=0
EXTRACT: note_on channel=9 note=36 velocity=127 time=0
EXTRACT: note_on channel=9 note=36 velocity=127 time=0
EXTRACT: note_on channel=9 note=36 velocity=127 time=0
EXTRACT: note_on channel=9 note=42 velocity=127 time=0
EXTRACT: note_on channel=13 note=61 velocity=115 time=0
EXTRACT: note_on channel=13 note=49 velocity=115 time=0
EXTRACT: note_on channel=14 note=85 velocity=115 time=0
EXTRACT: note_off channel=4 note=56 velocity=0 time=0.05434775
EXTRACT: note_off channel=4 note=61 velocity=0 time=0
EXTRACT: note_off channel=9 note=42 velocity=0 time=0
EXTRACT: note_off channel=9 note=36 velocity=64 time=0
EXTRACT: note_off channel=9 note=36 velocity=64 time=0
EXTRACT: note_off channel=9 note=36 velocity=64 time=0
EXTRACT: note_off channel=9 note=36 velocity=64 time=0
EXTRACT: note_off channel=13 note=49 velocity=0 time=0.03170285416666667
EXTRACT: note_off channel=13 note=61 velocity=0 time=0
EXTRACT: note_off channel=14 note=85 velocity=0 time=0
EXTRACT: note_off channel=8 note=49 velocity=0 time=0.022644895833333335
EXTRACT: note_on channel=1 note=37 velocity=110 time=0.1086955
EXTRACT: note_on channel=1 note=49 velocity=110 time=0
EXTRACT: note_on channel=4 note=61 velocity=105 time=0
EXTRACT: note_on channel=4 note=56 velocity=105 time=0
EXTRACT: note_on channel=8 note=61 velocity=127 time=0
EXTRACT: note_on channel=9 note=46 velocity=127 time=0
EXTRACT: note_on channel=13 note=61 velocity=115 time=0
EXTRACT: note_on channel=13 note=49 velocity=115 time=0
EXTRACT: note_on channel=14 note=85 velocity=115 time=0
EXTRACT: note_on channel=0 note=49 velocity=120 time=0
EXTRACT: note_off channel=4 note=56 velocity=0 time=0.05434775
EXTRACT: note_off channel=4 note=61 velocity=0 time=0
EXTRACT: note_off channel=9 note=46 velocity=0 time=0
EXTRACT: note_off channel=13 note=49 velocity=0 time=0.022644895833333335
EXTRACT: note_off channel=13 note=61 velocity=0 time=0
EXTRACT: note_off channel=14 note=85 velocity=0 time=0
EXTRACT: note_off channel=8 note=61 velocity=0 time=0.03170285416666667
EXTRACT: note_on channel=9 note=36 velocity=127 time=0
EXTRACT: note_on channel=9 note=36 velocity=127 time=0
EXTRACT: note_on channel=9 note=36 velocity=127 time=0
EXTRACT: note_on channel=9 note=36 velocity=127 time=0
EXTRACT: note_off channel=1 note=49 velocity=0 time=0.05434775
EXTRACT: note_off channel=1 note=37 velocity=0 time=0
EXTRACT: note_off channel=9 note=36 velocity=64 time=0
EXTRACT: note_off channel=9 note=36 velocity=64 time=0
EXTRACT: note_off channel=9 note=36 velocity=64 time=0
EXTRACT: note_off channel=9 note=36 velocity=64 time=0
EXTRACT: note_off channel=0 note=49 velocity=0 time=0
EXTRACT: note_on channel=4 note=61 velocity=105 time=0.05434775
EXTRACT: note_on channel=4 note=56 velocity=105 time=0
EXTRACT: note_on channel=8 note=49 velocity=127 time=0
EXTRACT: note_on channel=9 note=36 velocity=127 time=0
EXTRACT: note_on channel=9 note=36 velocity=127 time=0
EXTRACT: note_on channel=9 note=36 velocity=127 time=0
EXTRACT: note_on channel=9 note=36 velocity=127 time=0
EXTRACT: note_on channel=9 note=28 velocity=127 time=0
EXTRACT: note_on channel=9 note=42 velocity=127 time=0
EXTRACT: note_on channel=9 note=76 velocity=80 time=0
EXTRACT: note_on channel=13 note=68 velocity=115 time=0
EXTRACT: note_on channel=13 note=56 velocity=115 time=0
EXTRACT: note_on channel=14 note=92 velocity=115 time=0
EXTRACT: note_off channel=9 note=76 velocity=0 time=0.027173875
EXTRACT: note_off channel=4 note=56 velocity=0 time=0.027173875
EXTRACT: note_off channel=4 note=61 velocity=0 time=0
EXTRACT: note_off channel=9 note=42 velocity=0 time=0
EXTRACT: note_off channel=9 note=36 velocity=64 time=0
EXTRACT: note_off channel=9 note=36 velocity=64 time=0
EXTRACT: note_off channel=9 note=36 velocity=64 time=0
EXTRACT: note_off channel=9 note=36 velocity=64 time=0
EXTRACT: note_off channel=13 note=56 velocity=0 time=0.0135869375
EXTRACT: note_off channel=13 note=68 velocity=0 time=0
EXTRACT: note_off channel=14 note=92 velocity=0 time=0
EXTRACT: note_off channel=8 note=49 velocity=0 time=0.0407608125
EXTRACT: note_on channel=1 note=37 velocity=110 time=0.1086955
EXTRACT: note_on channel=1 note=49 velocity=110 time=0
EXTRACT: note_on channel=8 note=61 velocity=127 time=0
EXTRACT: note_on channel=9 note=36 velocity=127 time=0
EXTRACT: note_on channel=9 note=36 velocity=127 time=0
EXTRACT: note_on channel=9 note=36 velocity=127 time=0
EXTRACT: note_on channel=9 note=36 velocity=127 time=0
EXTRACT: note_on channel=9 note=46 velocity=127 time=0
EXTRACT: note_on channel=13 note=68 velocity=115 time=0
EXTRACT: note_on channel=13 note=56 velocity=115 time=0
EXTRACT: note_on channel=14 note=92 velocity=115 time=0
EXTRACT: note_on channel=0 note=49 velocity=120 time=0
EXTRACT: note_off channel=9 note=46 velocity=0 time=0.05434775
EXTRACT: note_off channel=9 note=36 velocity=64 time=0
EXTRACT: note_off channel=9 note=36 velocity=64 time=0
EXTRACT: note_off channel=9 note=36 velocity=64 time=0
EXTRACT: note_off channel=9 note=36 velocity=64 time=0
EXTRACT: note_off channel=13 note=56 velocity=0 time=0.027173875
EXTRACT: note_off channel=13 note=68 velocity=0 time=0
EXTRACT: note_off channel=14 note=92 velocity=0 time=0.022644895833333335
EXTRACT: note_off channel=8 note=61 velocity=0 time=0.004528979166666667
EXTRACT: note_off channel=1 note=49 velocity=0 time=0.05434775
EXTRACT: note_off channel=1 note=37 velocity=0 time=0
EXTRACT: note_off channel=0 note=49 velocity=0 time=0
EXTRACT: note_off channel=9 note=28 velocity=0 time=0.0407608125
EXTRACT: note_on channel=4 note=63 velocity=105 time=0.0135869375
EXTRACT: note_on channel=4 note=58 velocity=105 time=0
EXTRACT: note_on channel=8 note=51 velocity=127 time=0
EXTRACT: note_on channel=9 note=36 velocity=127 time=0
EXTRACT: note_on channel=9 note=36 velocity=127 time=0
EXTRACT: note_on channel=9 note=36 velocity=127 time=0
EXTRACT: note_on channel=9 note=36 velocity=127 time=0
EXTRACT: note_on channel=9 note=42 velocity=127 time=0
EXTRACT: note_on channel=13 note=66 velocity=115 time=0
EXTRACT: note_on channel=13 note=54 velocity=115 time=0
EXTRACT: note_on channel=14 note=90 velocity=115 time=0
EXTRACT: note_off channel=4 note=58 velocity=0 time=0.05434775
EXTRACT: note_off channel=4 note=63 velocity=0 time=0
EXTRACT: note_off channel=9 note=42 velocity=0 time=0
EXTRACT: note_off channel=9 note=36 velocity=64 time=0
EXTRACT: note_off channel=9 note=36 velocity=64 time=0
EXTRACT: note_off channel=9 note=36 velocity=64 time=0
EXTRACT: note_off channel=9 note=36 velocity=64 time=0
EXTRACT: note_off channel=8 note=51 velocity=0 time=0.05434775
EXTRACT: note_on channel=1 note=39 velocity=110 time=0.1086955
EXTRACT: note_on channel=1 note=51 velocity=110 time=0
EXTRACT: note_on channel=4 note=63 velocity=105 time=0
EXTRACT: note_on channel=4 note=58 velocity=105 time=0
EXTRACT: note_on channel=8 note=63 velocity=127 time=0
EXTRACT: note_on channel=9 note=46 velocity=127 time=0
EXTRACT: note_on channel=0 note=51 velocity=120 time=0
EXTRACT: note_off channel=4 note=58 velocity=0 time=0.05434775
EXTRACT: note_off channel=4 note=63 velocity=0 time=0
EXTRACT: note_off channel=9 note=46 velocity=0 time=0
EXTRACT: note_off channel=13 note=54 velocity=0 time=0.0135869375
EXTRACT: note_off channel=13 note=66 velocity=0 time=0
EXTRACT: note_off channel=14 note=90 velocity=0 time=0
EXTRACT: note_off channel=8 note=63 velocity=0 time=0.0407608125
EXTRACT: note_on channel=13 note=63 velocity=115 time=0
EXTRACT: note_on channel=13 note=51 velocity=115 time=0
EXTRACT: note_on channel=14 note=87 velocity=115 time=0
EXTRACT: note_off channel=1 note=51 velocity=0 time=0.05434775
EXTRACT: note_off channel=1 note=39 velocity=0 time=0
EXTRACT: note_off channel=0 note=51 velocity=0 time=0
EXTRACT: note_on channel=4 note=63 velocity=105 time=0.05434775
EXTRACT: note_on channel=4 note=58 velocity=105 time=0
EXTRACT: note_on channel=8 note=51 velocity=127 time=0
EXTRACT: note_on channel=9 note=36 velocity=127 time=0
EXTRACT: note_on channel=9 note=36 velocity=127 time=0
EXTRACT: note_on channel=9 note=36 velocity=127 time=0
EXTRACT: note_on channel=9 note=36 velocity=127 time=0
EXTRACT: note_on channel=9 note=28 velocity=127 time=0
EXTRACT: note_on channel=9 note=42 velocity=127 time=0
EXTRACT: note_on channel=9 note=76 velocity=80 time=0
EXTRACT: note_off channel=13 note=51 velocity=0 time=0.009057958333333335
EXTRACT: note_off channel=13 note=63 velocity=0 time=0
EXTRACT: note_off channel=14 note=87 velocity=0 time=0
EXTRACT: note_off channel=9 note=76 velocity=0 time=0.01811591666666667
EXTRACT: note_off channel=4 note=58 velocity=0 time=0.027173875
EXTRACT: note_off channel=4 note=63 velocity=0 time=0
EXTRACT: note_off channel=9 note=42 velocity=0 time=0
EXTRACT: note_off channel=9 note=36 velocity=64 time=0
EXTRACT: note_off channel=9 note=36 velocity=64 time=0
EXTRACT: note_off channel=9 note=36 velocity=64 time=0
EXTRACT: note_off channel=9 note=36 velocity=64 time=0
EXTRACT: note_off channel=8 note=51 velocity=0 time=0.05434775
EXTRACT: note_on channel=1 note=39 velocity=110 time=0.1086955
EXTRACT: note_on channel=1 note=51 velocity=110 time=0
EXTRACT: note_on channel=8 note=63 velocity=127 time=0
EXTRACT: note_on channel=9 note=46 velocity=127 time=0
EXTRACT: note_on channel=9 note=76 velocity=80 time=0
EXTRACT: note_on channel=13 note=63 velocity=115 time=0
EXTRACT: note_on channel=13 note=51 velocity=115 time=0
EXTRACT: note_on channel=14 note=87 velocity=115 time=0
EXTRACT: note_on channel=0 note=51 velocity=120 time=0
EXTRACT: note_off channel=9 note=76 velocity=0 time=0.027173875
EXTRACT: note_off channel=13 note=51 velocity=0 time=0.022644895833333335
EXTRACT: note_off channel=13 note=63 velocity=0 time=0
EXTRACT: note_off channel=14 note=87 velocity=0 time=0
EXTRACT: note_off channel=9 note=46 velocity=0 time=0.004528979166666667
EXTRACT: note_off channel=8 note=63 velocity=0 time=0.03623183333333334
EXTRACT: note_on channel=4 note=63 velocity=105 time=0.01811591666666667
EXTRACT: note_on channel=4 note=58 velocity=105 time=0
EXTRACT: note_on channel=8 note=63 velocity=127 time=0
EXTRACT: note_on channel=13 note=63 velocity=115 time=0
EXTRACT: note_on channel=13 note=51 velocity=115 time=0
EXTRACT: note_on channel=14 note=87 velocity=115 time=0
EXTRACT: note_off channel=1 note=51 velocity=0 time=0.05434775
EXTRACT: note_off channel=1 note=39 velocity=0 time=0
EXTRACT: note_off channel=4 note=58 velocity=0 time=0
EXTRACT: note_off channel=4 note=63 velocity=0 time=0
EXTRACT: note_off channel=0 note=51 velocity=0 time=0
EXTRACT: note_off channel=13 note=51 velocity=0 time=0.004528979166666667
EXTRACT: note_off channel=13 note=63 velocity=0 time=0
EXTRACT: note_off channel=14 note=87 velocity=0 time=0
EXTRACT: note_off channel=9 note=28 velocity=0 time=0.03623183333333334
EXTRACT: note_on channel=4 note=63 velocity=105 time=0.0135869375
EXTRACT: note_on channel=4 note=58 velocity=105 time=0
EXTRACT: note_off channel=8 note=63 velocity=0 time=0
EXTRACT: note_on channel=8 note=51 velocity=127 time=0
EXTRACT: note_on channel=9 note=36 velocity=127 time=0
EXTRACT: note_on channel=9 note=36 velocity=127 time=0
EXTRACT: note_on channel=9 note=36 velocity=127 time=0
EXTRACT: note_on channel=9 note=36 velocity=127 time=0
EXTRACT: note_on channel=9 note=42 velocity=127 time=0
EXTRACT: note_on channel=13 note=63 velocity=115 time=0
EXTRACT: note_on channel=13 note=51 velocity=115 time=0
EXTRACT: note_on channel=14 note=87 velocity=115 time=0
EXTRACT: note_off channel=4 note=58 velocity=0 time=0.05434775
EXTRACT: note_off channel=4 note=63 velocity=0 time=0
EXTRACT: note_off channel=9 note=42 velocity=0 time=0
EXTRACT: note_off channel=9 note=36 velocity=64 time=0
EXTRACT: note_off channel=9 note=36 velocity=64 time=0
EXTRACT: note_off channel=9 note=36 velocity=64 time=0
EXTRACT: note_off channel=9 note=36 velocity=64 time=0
EXTRACT: note_off channel=13 note=51 velocity=0 time=0.022644895833333335
EXTRACT: note_off channel=13 note=63 velocity=0 time=0
EXTRACT: note_off channel=14 note=87 velocity=0 time=0
EXTRACT: note_off channel=8 note=51 velocity=0 time=0.03170285416666667
EXTRACT: note_on channel=1 note=39 velocity=110 time=0.1086955
EXTRACT: note_on channel=1 note=51 velocity=110 time=0
EXTRACT: note_on channel=4 note=63 velocity=105 time=0
EXTRACT: note_on channel=4 note=58 velocity=105 time=0
EXTRACT: note_on channel=8 note=63 velocity=127 time=0
EXTRACT: note_on channel=9 note=46 velocity=127 time=0
EXTRACT: note_on channel=13 note=63 velocity=115 time=0
EXTRACT: note_on channel=13 note=51 velocity=115 time=0
EXTRACT: note_on channel=14 note=87 velocity=115 time=0
EXTRACT: note_on channel=0 note=51 velocity=120 time=0
EXTRACT: note_off channel=4 note=58 velocity=0 time=0.05434775
EXTRACT: note_off channel=4 note=63 velocity=0 time=0
EXTRACT: note_off channel=9 note=46 velocity=0 time=0
EXTRACT: note_off channel=13 note=51 velocity=0 time=0.03170285416666667
EXTRACT: note_off channel=13 note=63 velocity=0 time=0
EXTRACT: note_off channel=14 note=87 velocity=0 time=0
EXTRACT: note_off channel=8 note=63 velocity=0 time=0.022644895833333335
EXTRACT: note_on channel=9 note=36 velocity=127 time=0
EXTRACT: note_on channel=9 note=36 velocity=127 time=0
EXTRACT: note_on channel=9 note=36 velocity=127 time=0
EXTRACT: note_on channel=9 note=36 velocity=127 time=0
EXTRACT: note_off channel=1 note=51 velocity=0 time=0.05434775
EXTRACT: note_off channel=1 note=39 velocity=0 time=0
EXTRACT: note_off channel=9 note=36 velocity=64 time=0
EXTRACT: note_off channel=9 note=36 velocity=64 time=0
EXTRACT: note_off channel=9 note=36 velocity=64 time=0
EXTRACT: note_off channel=9 note=36 velocity=64 time=0
EXTRACT: note_off channel=0 note=51 velocity=0 time=0
EXTRACT: note_on channel=4 note=63 velocity=105 time=0.05434775
EXTRACT: note_on channel=4 note=58 velocity=105 time=0
EXTRACT: note_on channel=8 note=51 velocity=127 time=0
EXTRACT: note_on channel=9 note=36 velocity=127 time=0
EXTRACT: note_on channel=9 note=36 velocity=127 time=0
EXTRACT: note_on channel=9 note=36 velocity=127 time=0
EXTRACT: note_on channel=9 note=36 velocity=127 time=0
EXTRACT: note_on channel=9 note=28 velocity=127 time=0
EXTRACT: note_on channel=9 note=42 velocity=127 time=0
EXTRACT: note_on channel=9 note=76 velocity=80 time=0
EXTRACT: note_on channel=13 note=66 velocity=115 time=0
EXTRACT: note_on channel=13 note=54 velocity=115 time=0
EXTRACT: note_on channel=14 note=90 velocity=115 time=0
EXTRACT: note_off channel=9 note=76 velocity=0 time=0.027173875
EXTRACT: note_off channel=4 note=58 velocity=0 time=0.027173875
EXTRACT: note_off channel=4 note=63 velocity=0 time=0
EXTRACT: note_off channel=9 note=42 velocity=0 time=0
EXTRACT: note_off channel=9 note=36 velocity=64 time=0
EXTRACT: note_off channel=9 note=36 velocity=64 time=0
EXTRACT: note_off channel=9 note=36 velocity=64 time=0
EXTRACT: note_off channel=9 note=36 velocity=64 time=0
EXTRACT: note_off channel=13 note=54 velocity=0 time=0.01811591666666667
EXTRACT: note_off channel=13 note=66 velocity=0 time=0
EXTRACT: note_off channel=14 note=90 velocity=0 time=0
EXTRACT: note_off channel=8 note=51 velocity=0 time=0.03623183333333334
EXTRACT: note_on channel=1 note=39 velocity=110 time=0.1086955
EXTRACT: note_on channel=1 note=51 velocity=110 time=0
EXTRACT: note_on channel=8 note=63 velocity=127 time=0
EXTRACT: note_on channel=9 note=36 velocity=127 time=0
EXTRACT: note_on channel=9 note=36 velocity=127 time=0
EXTRACT: note_on channel=9 note=36 velocity=127 time=0
EXTRACT: note_on channel=9 note=36 velocity=127 time=0
EXTRACT: note_on channel=9 note=46 velocity=127 time=0
EXTRACT: note_on channel=13 note=68 velocity=115 time=0
EXTRACT: note_on channel=13 note=56 velocity=115 time=0
EXTRACT: note_on channel=14 note=92 velocity=115 time=0
EXTRACT: note_on channel=0 note=51 velocity=120 time=0
EXTRACT: note_off channel=9 note=46 velocity=0 time=0.05434775
EXTRACT: note_off channel=9 note=36 velocity=64 time=0
EXTRACT: note_off channel=9 note=36 velocity=64 time=0
EXTRACT: note_off channel=9 note=36 velocity=64 time=0
EXTRACT: note_off channel=9 note=36 velocity=64 time=0
EXTRACT: note_off channel=13 note=56 velocity=0 time=0.01811591666666667
EXTRACT: note_off channel=13 note=68 velocity=0 time=0
EXTRACT: note_off channel=14 note=92 velocity=0 time=0
EXTRACT: note_off channel=8 note=63 velocity=0 time=0.03623183333333334
EXTRACT: note_off channel=1 note=51 velocity=0 time=0.05434775
EXTRACT: note_off channel=1 note=39 velocity=0 time=0
EXTRACT: note_off channel=0 note=51 velocity=0 time=0
EXTRACT: note_off channel=9 note=28 velocity=0 time=0.0407608125
EXTRACT: note_on channel=4 note=59 velocity=105 time=0.0135869375
EXTRACT: note_on channel=4 note=54 velocity=105 time=0
EXTRACT: note_on channel=8 note=47 velocity=127 time=0
EXTRACT: note_on channel=9 note=36 velocity=127 time=0
EXTRACT: note_on channel=9 note=36 velocity=127 time=0
EXTRACT: note_on channel=9 note=36 velocity=127 time=0
EXTRACT: note_on channel=9 note=36 velocity=127 time=0
EXTRACT: note_on channel=9 note=42 velocity=127 time=0
EXTRACT: note_on channel=13 note=70 velocity=115 time=0
EXTRACT: note_on channel=13 note=58 velocity=115 time=0
EXTRACT: note_on channel=14 note=94 velocity=115 time=0
EXTRACT: note_off channel=4 note=54 velocity=0 time=0.05434775
EXTRACT: note_off channel=4 note=59 velocity=0 time=0
EXTRACT: note_off channel=9 note=42 velocity=0 time=0
EXTRACT: note_off channel=9 note=36 velocity=64 time=0
EXTRACT: note_off channel=9 note=36 velocity=64 time=0
EXTRACT: note_off channel=9 note=36 velocity=64 time=0
EXTRACT: note_off channel=9 note=36 velocity=64 time=0
EXTRACT: note_off channel=8 note=47 velocity=0 time=0.05434775
EXTRACT: note_on channel=1 note=35 velocity=110 time=0.1086955
EXTRACT: note_on channel=1 note=47 velocity=110 time=0
EXTRACT: note_on channel=4 note=59 velocity=105 time=0
EXTRACT: note_on channel=4 note=54 velocity=105 time=0
EXTRACT: note_on channel=8 note=59 velocity=127 time=0
EXTRACT: note_on channel=9 note=46 velocity=127 time=0
EXTRACT: note_on channel=0 note=47 velocity=120 time=0
EXTRACT: note_off channel=4 note=54 velocity=0 time=0.05434775
EXTRACT: note_off channel=4 note=59 velocity=0 time=0
EXTRACT: note_off channel=9 note=46 velocity=0 time=0
EXTRACT: note_off channel=13 note=58 velocity=0 time=0.009057958333333335
EXTRACT: note_off channel=13 note=70 velocity=0 time=0
EXTRACT: note_off channel=14 note=94 velocity=0 time=0
EXTRACT: note_off channel=8 note=59 velocity=0 time=0.04528979166666667
EXTRACT: note_on channel=13 note=66 velocity=115 time=0
EXTRACT: note_on channel=13 note=54 velocity=115 time=0
EXTRACT: note_on channel=14 note=90 velocity=115 time=0
EXTRACT: note_off channel=1 note=47 velocity=0 time=0.05434775
EXTRACT: note_off channel=1 note=35 velocity=0 time=0
EXTRACT: note_off channel=0 note=47 velocity=0 time=0
EXTRACT: note_off channel=13 note=54 velocity=0 time=0.04528979166666667
EXTRACT: note_off channel=13 note=66 velocity=0 time=0
EXTRACT: note_off channel=14 note=90 velocity=0 time=0
EXTRACT: note_on channel=4 note=59 velocity=105 time=0.009057958333333335
EXTRACT: note_on channel=4 note=54 velocity=105 time=0
EXTRACT: note_on channel=8 note=47 velocity=127 time=0
EXTRACT: note_on channel=9 note=36 velocity=127 time=0
EXTRACT: note_on channel=9 note=36 velocity=127 time=0
EXTRACT: note_on channel=9 note=36 velocity=127 time=0
EXTRACT: note_on channel=9 note=36 velocity=127 time=0
EXTRACT: note_on channel=9 note=28 velocity=127 time=0
EXTRACT: note_on channel=9 note=42 velocity=127 time=0
EXTRACT: note_on channel=9 note=76 velocity=80 time=0
EXTRACT: note_off channel=9 note=76 velocity=0 time=0.027173875
EXTRACT: note_off channel=4 note=54 velocity=0 time=0.027173875
EXTRACT: note_off channel=4 note=59 velocity=0 time=0
EXTRACT: note_off channel=9 note=42 velocity=0 time=0
EXTRACT: note_off channel=9 note=36 velocity=64 time=0
EXTRACT: note_off channel=9 note=36 velocity=64 time=0
EXTRACT: note_off channel=9 note=36 velocity=64 time=0
EXTRACT: note_off channel=9 note=36 velocity=64 time=0
EXTRACT: note_off channel=8 note=47 velocity=0 time=0.05434775
EXTRACT: note_on channel=1 note=35 velocity=110 time=0.1086955
EXTRACT: note_on channel=1 note=47 velocity=110 time=0
EXTRACT: note_on channel=8 note=59 velocity=127 time=0
EXTRACT: note_on channel=9 note=46 velocity=127 time=0
EXTRACT: note_on channel=9 note=76 velocity=80 time=0
EXTRACT: note_on channel=13 note=59 velocity=115 time=0
EXTRACT: note_on channel=13 note=47 velocity=115 time=0
EXTRACT: note_on channel=14 note=83 velocity=115 time=0
EXTRACT: note_on channel=0 note=47 velocity=120 time=0
EXTRACT: note_off channel=9 note=76 velocity=0 time=0.027173875
EXTRACT: note_off channel=9 note=46 velocity=0 time=0.027173875
EXTRACT: note_off channel=13 note=47 velocity=0 time=0.03170285416666667
EXTRACT: note_off channel=13 note=59 velocity=0 time=0
EXTRACT: note_off channel=14 note=83 velocity=0 time=0
EXTRACT: note_off channel=8 note=59 velocity=0 time=0.004528979166666667
EXTRACT: note_on channel=4 note=59 velocity=105 time=0.01811591666666667
EXTRACT: note_on channel=4 note=54 velocity=105 time=0
EXTRACT: note_on channel=8 note=59 velocity=127 time=0
EXTRACT: note_off channel=1 note=47 velocity=0 time=0.05434775
EXTRACT: note_off channel=1 note=35 velocity=0 time=0
EXTRACT: note_off channel=4 note=54 velocity=0 time=0
EXTRACT: note_off channel=4 note=59 velocity=0 time=0
EXTRACT: note_off channel=0 note=47 velocity=0 time=0
EXTRACT: note_off channel=9 note=28 velocity=0 time=0.0407608125
EXTRACT: note_on channel=4 note=61 velocity=105 time=0.0135869375
EXTRACT: note_on channel=4 note=56 velocity=105 time=0
EXTRACT: note_off channel=8 note=59 velocity=0 time=0
EXTRACT: note_on channel=8 note=49 velocity=127 time=0
EXTRACT: note_on channel=9 note=36 velocity=127 time=0
EXTRACT: note_on channel=9 note=36 velocity=127 time=0
EXTRACT: note_on channel=9 note=36 velocity=127 time=0
EXTRACT: note_on channel=9 note=36 velocity=127 time=0
EXTRACT: note_on channel=9 note=42 velocity=127 time=0
EXTRACT: note_on channel=13 note=59 velocity=115 time=0
EXTRACT: note_on channel=13 note=47 velocity=115 time=0
EXTRACT: note_on channel=14 note=83 velocity=115 time=0
EXTRACT: note_off channel=4 note=56 velocity=0 time=0.05434775
EXTRACT: note_off channel=4 note=61 velocity=0 time=0
EXTRACT: note_off channel=9 note=42 velocity=0 time=0
EXTRACT: note_off channel=9 note=36 velocity=64 time=0
EXTRACT: note_off channel=9 note=36 velocity=64 time=0
EXTRACT: note_off channel=9 note=36 velocity=64 time=0
EXTRACT: note_off channel=9 note=36 velocity=64 time=0
EXTRACT: note_off channel=13 note=47 velocity=0 time=0.027173875
EXTRACT: note_off channel=13 note=59 velocity=0 time=0
EXTRACT: note_off channel=14 note=83 velocity=0 time=0
EXTRACT: note_off channel=8 note=49 velocity=0 time=0.027173875
EXTRACT: note_on channel=1 note=37 velocity=110 time=0.1086955
EXTRACT: note_on channel=1 note=49 velocity=110 time=0
EXTRACT: note_on channel=4 note=61 velocity=105 time=0
EXTRACT: note_on channel=4 note=56 velocity=105 time=0
EXTRACT: note_on channel=8 note=61 velocity=127 time=0
EXTRACT: note_on channel=9 note=46 velocity=127 time=0
EXTRACT: note_on channel=13 note=59 velocity=115 time=0
EXTRACT: note_on channel=13 note=47 velocity=115 time=0
EXTRACT: note_on channel=14 note=83 velocity=115 time=0
EXTRACT: note_on channel=0 note=49 velocity=120 time=0
EXTRACT: note_off channel=4 note=56 velocity=0 time=0.05434775
EXTRACT: note_off channel=4 note=61 velocity=0 time=0
EXTRACT: note_off channel=9 note=46 velocity=0 time=0
EXTRACT: note_off channel=13 note=47 velocity=0 time=0.01811591666666667
EXTRACT: note_off channel=13 note=59 velocity=0 time=0
EXTRACT: note_off channel=14 note=83 velocity=0 time=0
EXTRACT: note_off channel=8 note=61 velocity=0 time=0.03623183333333334
EXTRACT: note_on channel=9 note=36 velocity=127 time=0
EXTRACT: note_on channel=9 note=36 velocity=127 time=0
EXTRACT: note_on channel=9 note=36 velocity=127 time=0
EXTRACT: note_on channel=9 note=36 velocity=127 time=0
EXTRACT: note_off channel=1 note=49 velocity=0 time=0.05434775
EXTRACT: note_off channel=1 note=37 velocity=0 time=0
EXTRACT: note_off channel=9 note=36 velocity=64 time=0
EXTRACT: note_off channel=9 note=36 velocity=64 time=0
EXTRACT: note_off channel=9 note=36 velocity=64 time=0
EXTRACT: note_off channel=9 note=36 velocity=64 time=0
EXTRACT: note_off channel=0 note=49 velocity=0 time=0
EXTRACT: note_on channel=4 note=61 velocity=105 time=0.05434775
EXTRACT: note_on channel=4 note=56 velocity=105 time=0
EXTRACT: note_on channel=8 note=49 velocity=127 time=0
EXTRACT: note_on channel=9 note=36 velocity=127 time=0
EXTRACT: note_on channel=9 note=36 velocity=127 time=0
EXTRACT: note_on channel=9 note=36 velocity=127 time=0
EXTRACT: note_on channel=9 note=36 velocity=127 time=0
EXTRACT: note_on channel=9 note=28 velocity=127 time=0
EXTRACT: note_on channel=9 note=42 velocity=127 time=0
EXTRACT: note_on channel=9 note=76 velocity=80 time=0
EXTRACT: note_on channel=13 note=59 velocity=115 time=0
EXTRACT: note_on channel=13 note=47 velocity=115 time=0
EXTRACT: note_on channel=14 note=83 velocity=115 time=0
EXTRACT: note_off channel=9 note=76 velocity=0 time=0.027173875
EXTRACT: note_off channel=4 note=56 velocity=0 time=0.027173875
EXTRACT: note_off channel=4 note=61 velocity=0 time=0
EXTRACT: note_off channel=9 note=42 velocity=0 time=0
EXTRACT: note_off channel=9 note=36 velocity=64 time=0
EXTRACT: note_off channel=9 note=36 velocity=64 time=0
EXTRACT: note_off channel=9 note=36 velocity=64 time=0
EXTRACT: note_off channel=9 note=36 velocity=64 time=0
EXTRACT: note_off channel=13 note=47 velocity=0 time=0.01811591666666667
EXTRACT: note_off channel=13 note=59 velocity=0 time=0
EXTRACT: note_off channel=14 note=83 velocity=0 time=0
EXTRACT: note_off channel=8 note=49 velocity=0 time=0.03623183333333334
EXTRACT: note_on channel=1 note=37 velocity=110 time=0.1086955
EXTRACT: note_on channel=1 note=49 velocity=110 time=0
EXTRACT: note_on channel=8 note=61 velocity=127 time=0
EXTRACT: note_on channel=9 note=36 velocity=127 time=0
EXTRACT: note_on channel=9 note=36 velocity=127 time=0
EXTRACT: note_on channel=9 note=36 velocity=127 time=0
EXTRACT: note_on channel=9 note=36 velocity=127 time=0
EXTRACT: note_on channel=9 note=46 velocity=127 time=0
EXTRACT: note_on channel=13 note=59 velocity=115 time=0
EXTRACT: note_on channel=13 note=47 velocity=115 time=0
EXTRACT: note_on channel=14 note=83 velocity=115 time=0
EXTRACT: note_on channel=0 note=49 velocity=120 time=0
EXTRACT: note_off channel=9 note=46 velocity=0 time=0.05434775
EXTRACT: note_off channel=9 note=36 velocity=64 time=0
EXTRACT: note_off channel=9 note=36 velocity=64 time=0
EXTRACT: note_off channel=9 note=36 velocity=64 time=0
EXTRACT: note_off channel=9 note=36 velocity=64 time=0
EXTRACT: note_off channel=13 note=47 velocity=0 time=0.022644895833333335
EXTRACT: note_off channel=13 note=59 velocity=0 time=0
EXTRACT: note_off channel=14 note=83 velocity=0 time=0
EXTRACT: note_off channel=8 note=61 velocity=0 time=0.03170285416666667
EXTRACT: note_off channel=1 note=49 velocity=0 time=0.05434775
EXTRACT: note_off channel=1 note=37 velocity=0 time=0
EXTRACT: note_off channel=0 note=49 velocity=0 time=0
EXTRACT: note_off channel=9 note=28 velocity=0 time=0.0407608125
EXTRACT: note_on channel=4 note=66 velocity=105 time=0.0135869375
EXTRACT: note_on channel=4 note=61 velocity=105 time=0
EXTRACT: note_on channel=8 note=54 velocity=127 time=0
EXTRACT: note_on channel=9 note=36 velocity=127 time=0
EXTRACT: note_on channel=9 note=36 velocity=127 time=0
EXTRACT: note_on channel=9 note=36 velocity=127 time=0
EXTRACT: note_on channel=9 note=36 velocity=127 time=0
EXTRACT: note_on channel=9 note=42 velocity=127 time=0
EXTRACT: note_on channel=13 note=58 velocity=115 time=0
EXTRACT: note_on channel=13 note=46 velocity=115 time=0
EXTRACT: note_on channel=14 note=82 velocity=115 time=0
EXTRACT: note_off channel=4 note=61 velocity=0 time=0.05434775
EXTRACT: note_off channel=4 note=66 velocity=0 time=0
EXTRACT: note_off channel=9 note=42 velocity=0 time=0
EXTRACT: note_off channel=9 note=36 velocity=64 time=0
EXTRACT: note_off channel=9 note=36 velocity=64 time=0
EXTRACT: note_off channel=9 note=36 velocity=64 time=0
EXTRACT: note_off channel=9 note=36 velocity=64 time=0
EXTRACT: note_off channel=8 note=54 velocity=0 time=0.05434775
EXTRACT: note_on channel=1 note=42 velocity=110 time=0.1086955
EXTRACT: note_on channel=1 note=54 velocity=110 time=0
EXTRACT: note_on channel=4 note=66 velocity=105 time=0
EXTRACT: note_on channel=4 note=61 velocity=105 time=0
EXTRACT: note_on channel=8 note=66 velocity=127 time=0
EXTRACT: note_on channel=9 note=46 velocity=127 time=0
EXTRACT: note_on channel=0 note=54 velocity=120 time=0
EXTRACT: note_off channel=4 note=61 velocity=0 time=0.05434775
EXTRACT: note_off channel=4 note=66 velocity=0 time=0
EXTRACT: note_off channel=9 note=46 velocity=0 time=0
EXTRACT: note_off channel=13 note=46 velocity=0 time=0.03623183333333334
EXTRACT: note_off channel=13 note=58 velocity=0 time=0
EXTRACT: note_off channel=14 note=82 velocity=0 time=0
EXTRACT: note_off channel=8 note=66 velocity=0 time=0.01811591666666667
EXTRACT: note_on channel=13 note=66 velocity=115 time=0
EXTRACT: note_on channel=13 note=54 velocity=115 time=0
EXTRACT: note_on channel=14 note=90 velocity=115 time=0
EXTRACT: note_off channel=1 note=54 velocity=0 time=0.05434775
EXTRACT: note_off channel=1 note=42 velocity=0 time=0
EXTRACT: note_off channel=0 note=54 velocity=0 time=0
EXTRACT: note_on channel=4 note=66 velocity=105 time=0.05434775
EXTRACT: note_on channel=4 note=61 velocity=105 time=0
EXTRACT: note_on channel=8 note=54 velocity=127 time=0
EXTRACT: note_on channel=9 note=36 velocity=127 time=0
EXTRACT: note_on channel=9 note=36 velocity=127 time=0
EXTRACT: note_on channel=9 note=36 velocity=127 time=0
EXTRACT: note_on channel=9 note=36 velocity=127 time=0
EXTRACT: note_on channel=9 note=28 velocity=127 time=0
EXTRACT: note_on channel=9 note=42 velocity=127 time=0
EXTRACT: note_on channel=9 note=76 velocity=80 time=0
EXTRACT: note_off channel=13 note=54 velocity=0 time=0.0135869375
EXTRACT: note_off channel=13 note=66 velocity=0 time=0
EXTRACT: note_off channel=14 note=90 velocity=0 time=0
EXTRACT: note_off channel=9 note=76 velocity=0 time=0.0135869375
EXTRACT: note_off channel=4 note=61 velocity=0 time=0.027173875
EXTRACT: note_off channel=4 note=66 velocity=0 time=0
EXTRACT: note_off channel=9 note=42 velocity=0 time=0
EXTRACT: note_off channel=9 note=36 velocity=64 time=0
EXTRACT: note_off channel=9 note=36 velocity=64 time=0
EXTRACT: note_off channel=9 note=36 velocity=64 time=0
EXTRACT: note_off channel=9 note=36 velocity=64 time=0
EXTRACT: note_off channel=8 note=54 velocity=0 time=0.05434775
EXTRACT: note_on channel=1 note=42 velocity=110 time=0.1086955
EXTRACT: note_on channel=1 note=54 velocity=110 time=0
EXTRACT: note_on channel=8 note=66 velocity=127 time=0
EXTRACT: note_on channel=9 note=46 velocity=127 time=0
EXTRACT: note_on channel=9 note=76 velocity=80 time=0
EXTRACT: note_on channel=13 note=70 velocity=115 time=0
EXTRACT: note_on channel=13 note=58 velocity=115 time=0
EXTRACT: note_on channel=14 note=94 velocity=115 time=0
EXTRACT: note_on channel=0 note=54 velocity=120 time=0
EXTRACT: note_off channel=9 note=76 velocity=0 time=0.027173875
EXTRACT: note_off channel=13 note=58 velocity=0 time=0.022644895833333335
EXTRACT: note_off channel=13 note=70 velocity=0 time=0
EXTRACT: note_off channel=14 note=94 velocity=0 time=0
EXTRACT: note_off channel=9 note=46 velocity=0 time=0.004528979166666667
EXTRACT: note_off channel=8 note=66 velocity=0 time=0.03623183333333334
EXTRACT: note_on channel=4 note=66 velocity=105 time=0.01811591666666667
EXTRACT: note_on channel=4 note=61 velocity=105 time=0
EXTRACT: note_on channel=8 note=66 velocity=127 time=0
EXTRACT: note_on channel=13 note=70 velocity=115 time=0
EXTRACT: note_on channel=13 note=58 velocity=115 time=0
EXTRACT: note_on channel=14 note=94 velocity=115 time=0
EXTRACT: note_off channel=13 note=58 velocity=0 time=0.04981877083333334
EXTRACT: note_off channel=13 note=70 velocity=0 time=0
EXTRACT: note_off channel=14 note=94 velocity=0 time=0
EXTRACT: note_off channel=1 note=54 velocity=0 time=0.004528979166666667
EXTRACT: note_off channel=1 note=42 velocity=0 time=0
EXTRACT: note_off channel=4 note=61 velocity=0 time=0
EXTRACT: note_off channel=4 note=66 velocity=0 time=0
EXTRACT: note_off channel=0 note=54 velocity=0 time=0
EXTRACT: note_off channel=9 note=28 velocity=0 time=0.0407608125
EXTRACT: note_on channel=4 note=66 velocity=105 time=0.0135869375
EXTRACT: note_on channel=4 note=61 velocity=105 time=0
EXTRACT: note_off channel=8 note=66 velocity=0 time=0
EXTRACT: note_on channel=8 note=54 velocity=127 time=0
EXTRACT: note_on channel=9 note=36 velocity=127 time=0
EXTRACT: note_on channel=9 note=36 velocity=127 time=0
EXTRACT: note_on channel=9 note=36 velocity=127 time=0
EXTRACT: note_on channel=9 note=36 velocity=127 time=0
EXTRACT: note_on channel=9 note=42 velocity=127 time=0
EXTRACT: note_on channel=13 note=70 velocity=115 time=0
EXTRACT: note_on channel=13 note=58 velocity=115 time=0
EXTRACT: note_on channel=14 note=94 velocity=115 time=0
EXTRACT: note_off channel=4 note=61 velocity=0 time=0.05434775
EXTRACT: note_off channel=4 note=66 velocity=0 time=0
EXTRACT: note_off channel=9 note=42 velocity=0 time=0
EXTRACT: note_off channel=9 note=36 velocity=64 time=0
EXTRACT: note_off channel=9 note=36 velocity=64 time=0
EXTRACT: note_off channel=9 note=36 velocity=64 time=0
EXTRACT: note_off channel=9 note=36 velocity=64 time=0
EXTRACT: note_off channel=13 note=58 velocity=0 time=0.022644895833333335
EXTRACT: note_off channel=13 note=70 velocity=0 time=0
EXTRACT: note_off channel=14 note=94 velocity=0 time=0
EXTRACT: note_off channel=8 note=54 velocity=0 time=0.03170285416666667
EXTRACT: note_on channel=1 note=42 velocity=110 time=0.1086955
EXTRACT: note_on channel=1 note=54 velocity=110 time=0
EXTRACT: note_on channel=4 note=66 velocity=105 time=0
EXTRACT: note_on channel=4 note=61 velocity=105 time=0
EXTRACT: note_on channel=8 note=66 velocity=127 time=0
EXTRACT: note_on channel=9 note=46 velocity=127 time=0
EXTRACT: note_on channel=13 note=70 velocity=115 time=0
EXTRACT: note_on channel=13 note=58 velocity=115 time=0
EXTRACT: note_on channel=14 note=94 velocity=115 time=0
EXTRACT: note_on channel=0 note=54 velocity=120 time=0
EXTRACT: note_off channel=4 note=61 velocity=0 time=0.05434775
EXTRACT: note_off channel=4 note=66 velocity=0 time=0
EXTRACT: note_off channel=9 note=46 velocity=0 time=0
EXTRACT: note_off channel=8 note=66 velocity=0 time=0.05434775
EXTRACT: note_on channel=9 note=36 velocity=127 time=0
EXTRACT: note_on channel=9 note=36 velocity=127 time=0
EXTRACT: note_on channel=9 note=36 velocity=127 time=0
EXTRACT: note_on channel=9 note=36 velocity=127 time=0
EXTRACT: note_off channel=1 note=54 velocity=0 time=0.05434775
EXTRACT: note_off channel=1 note=42 velocity=0 time=0
EXTRACT: note_off channel=9 note=36 velocity=64 time=0
EXTRACT: note_off channel=9 note=36 velocity=64 time=0
EXTRACT: note_off channel=9 note=36 velocity=64 time=0
EXTRACT: note_off channel=9 note=36 velocity=64 time=0
EXTRACT: note_off channel=0 note=54 velocity=0 time=0
EXTRACT: note_on channel=4 note=66 velocity=105 time=0.05434775
EXTRACT: note_on channel=4 note=61 velocity=105 time=0
EXTRACT: note_on channel=8 note=54 velocity=127 time=0
EXTRACT: note_on channel=9 note=36 velocity=127 time=0
EXTRACT: note_on channel=9 note=36 velocity=127 time=0
EXTRACT: note_on channel=9 note=36 velocity=127 time=0
EXTRACT: note_on channel=9 note=36 velocity=127 time=0
EXTRACT: note_on channel=9 note=28 velocity=127 time=0
EXTRACT: note_on channel=9 note=42 velocity=127 time=0
EXTRACT: note_on channel=9 note=76 velocity=80 time=0
EXTRACT: note_on channel=13 note=68 velocity=115 time=0
EXTRACT: note_on channel=13 note=56 velocity=115 time=0
EXTRACT: note_on channel=14 note=92 velocity=115 time=0
EXTRACT: note_off channel=9 note=76 velocity=0 time=0.027173875
EXTRACT: note_off channel=13 note=58 velocity=0 time=0
EXTRACT: note_off channel=13 note=70 velocity=0 time=0
EXTRACT: note_off channel=14 note=94 velocity=0 time=0
EXTRACT: note_off channel=4 note=61 velocity=0 time=0.027173875
EXTRACT: note_off channel=4 note=66 velocity=0 time=0
EXTRACT: note_off channel=9 note=42 velocity=0 time=0
EXTRACT: note_off channel=9 note=36 velocity=64 time=0
EXTRACT: note_off channel=9 note=36 velocity=64 time=0
EXTRACT: note_off channel=9 note=36 velocity=64 time=0
EXTRACT: note_off channel=9 note=36 velocity=64 time=0
EXTRACT: note_off channel=13 note=68 velocity=0 time=0.03623183333333334
EXTRACT: note_off channel=13 note=56 velocity=0 time=0
EXTRACT: note_off channel=14 note=92 velocity=0 time=0
EXTRACT: note_off channel=8 note=54 velocity=0 time=0.01811591666666667
EXTRACT: note_on channel=1 note=42 velocity=110 time=0.1086955
EXTRACT: note_on channel=1 note=54 velocity=110 time=0
EXTRACT: note_on channel=8 note=66 velocity=127 time=0
EXTRACT: note_on channel=9 note=36 velocity=127 time=0
EXTRACT: note_on channel=9 note=36 velocity=127 time=0
EXTRACT: note_on channel=9 note=36 velocity=127 time=0
EXTRACT: note_on channel=9 note=36 velocity=127 time=0
EXTRACT: note_on channel=9 note=46 velocity=127 time=0
EXTRACT: note_on channel=13 note=68 velocity=115 time=0
EXTRACT: note_on channel=13 note=56 velocity=115 time=0
EXTRACT: note_on channel=14 note=92 velocity=115 time=0
EXTRACT: note_on channel=0 note=54 velocity=120 time=0
EXTRACT: note_off channel=9 note=46 velocity=0 time=0.05434775
EXTRACT: note_off channel=9 note=36 velocity=64 time=0
EXTRACT: note_off channel=9 note=36 velocity=64 time=0
EXTRACT: note_off channel=9 note=36 velocity=64 time=0
EXTRACT: note_off channel=9 note=36 velocity=64 time=0
EXTRACT: note_off channel=8 note=66 velocity=0 time=0.05434775
EXTRACT: note_off channel=13 note=56 velocity=0 time=0.0135869375
EXTRACT: note_off channel=13 note=68 velocity=0 time=0
EXTRACT: note_off channel=14 note=92 velocity=0 time=0
EXTRACT: note_off channel=1 note=54 velocity=0 time=0.0407608125
EXTRACT: note_off channel=1 note=42 velocity=0 time=0
EXTRACT: note_off channel=0 note=54 velocity=0 time=0
EXTRACT: note_off channel=9 note=28 velocity=0 time=0.0407608125
EXTRACT: note_on channel=4 note=66 velocity=105 time=0.0135869375
EXTRACT: note_on channel=4 note=61 velocity=105 time=0
EXTRACT: note_on channel=8 note=54 velocity=127 time=0
EXTRACT: note_on channel=9 note=36 velocity=127 time=0
EXTRACT: note_on channel=9 note=36 velocity=127 time=0
EXTRACT: note_on channel=9 note=36 velocity=127 time=0
EXTRACT: note_on channel=9 note=36 velocity=127 time=0
EXTRACT: note_on channel=9 note=42 velocity=127 time=0
EXTRACT: note_on channel=9 note=49 velocity=85 time=0
EXTRACT: note_on channel=9 note=49 velocity=85 time=0
EXTRACT: note_on channel=13 note=66 velocity=115 time=0
EXTRACT: note_on channel=13 note=54 velocity=115 time=0
EXTRACT: note_on channel=14 note=90 velocity=115 time=0
EXTRACT: note_off channel=9 note=49 velocity=0 time=0.027173875
EXTRACT: note_off channel=9 note=49 velocity=0 time=0
EXTRACT: note_off channel=4 note=61 velocity=0 time=0.027173875
EXTRACT: note_off channel=4 note=66 velocity=0 time=0
EXTRACT: note_off channel=9 note=42 velocity=0 time=0
EXTRACT: note_off channel=9 note=36 velocity=64 time=0
EXTRACT: note_off channel=9 note=36 velocity=64 time=0
EXTRACT: note_off channel=9 note=36 velocity=64 time=0
EXTRACT: note_off channel=9 note=36 velocity=64 time=0
EXTRACT: note_off channel=8 note=54 velocity=0 time=0.05434775
EXTRACT: note_on channel=1 note=42 velocity=110 time=0.1086955
EXTRACT: note_on channel=1 note=54 velocity=110 time=0
EXTRACT: note_on channel=4 note=66 velocity=105 time=0
EXTRACT: note_on channel=4 note=61 velocity=105 time=0
EXTRACT: note_on channel=8 note=66 velocity=127 time=0
EXTRACT: note_on channel=9 note=46 velocity=127 time=0
EXTRACT: note_on channel=0 note=54 velocity=120 time=0
EXTRACT: note_off channel=4 note=61 velocity=0 time=0.05434775
EXTRACT: note_off channel=4 note=66 velocity=0 time=0
EXTRACT: note_off channel=9 note=46 velocity=0 time=0
EXTRACT: note_off channel=13 note=54 velocity=0 time=0
EXTRACT: note_off channel=13 note=66 velocity=0 time=0
EXTRACT: note_off channel=14 note=90 velocity=0 time=0.01811591666666667
EXTRACT: note_off channel=8 note=66 velocity=0 time=0.03623183333333334
EXTRACT: note_on channel=13 note=61 velocity=115 time=0
EXTRACT: note_on channel=13 note=49 velocity=115 time=0
EXTRACT: note_on channel=14 note=85 velocity=115 time=0
EXTRACT: note_off channel=1 note=54 velocity=0 time=0.05434775
EXTRACT: note_off channel=1 note=42 velocity=0 time=0
EXTRACT: note_off channel=0 note=54 velocity=0 time=0
EXTRACT: note_on channel=4 note=66 velocity=105 time=0.05434775
EXTRACT: note_on channel=4 note=61 velocity=105 time=0
EXTRACT: note_on channel=8 note=54 velocity=127 time=0
EXTRACT: note_on channel=9 note=36 velocity=127 time=0
EXTRACT: note_on channel=9 note=36 velocity=127 time=0
EXTRACT: note_on channel=9 note=36 velocity=127 time=0
EXTRACT: note_on channel=9 note=36 velocity=127 time=0
EXTRACT: note_on channel=9 note=28 velocity=127 time=0
EXTRACT: note_on channel=9 note=42 velocity=127 time=0
EXTRACT: note_on channel=9 note=76 velocity=80 time=0
EXTRACT: note_off channel=13 note=49 velocity=0 time=0
EXTRACT: note_off channel=13 note=61 velocity=0 time=0
EXTRACT: note_off channel=14 note=85 velocity=0 time=0
EXTRACT: note_off channel=9 note=76 velocity=0 time=0.027173875
EXTRACT: note_off channel=4 note=61 velocity=0 time=0.027173875
EXTRACT: note_off channel=4 note=66 velocity=0 time=0
EXTRACT: note_off channel=9 note=42 velocity=0 time=0
EXTRACT: note_off channel=9 note=36 velocity=64 time=0
EXTRACT: note_off channel=9 note=36 velocity=64 time=0
EXTRACT: note_off channel=9 note=36 velocity=64 time=0
EXTRACT: note_off channel=9 note=36 velocity=64 time=0
EXTRACT: note_off channel=8 note=54 velocity=0 time=0.05434775
EXTRACT: note_on channel=1 note=42 velocity=110 time=0.1086955
EXTRACT: note_on channel=1 note=54 velocity=110 time=0
EXTRACT: note_on channel=8 note=66 velocity=127 time=0
EXTRACT: note_on channel=9 note=46 velocity=127 time=0
EXTRACT: note_on channel=9 note=76 velocity=80 time=0
EXTRACT: note_on channel=13 note=61 velocity=115 time=0
EXTRACT: note_on channel=13 note=49 velocity=115 time=0
EXTRACT: note_on channel=14 note=85 velocity=115 time=0
EXTRACT: note_on channel=0 note=54 velocity=120 time=0
EXTRACT: note_off channel=9 note=76 velocity=0 time=0.027173875
EXTRACT: note_off channel=9 note=46 velocity=0 time=0.027173875
EXTRACT: note_off channel=8 note=66 velocity=0 time=0.03623183333333334
EXTRACT: note_on channel=4 note=66 velocity=105 time=0.01811591666666667
EXTRACT: note_on channel=4 note=61 velocity=105 time=0
EXTRACT: note_on channel=8 note=66 velocity=127 time=0
EXTRACT: note_off channel=1 note=54 velocity=0 time=0.05434775
EXTRACT: note_off channel=1 note=42 velocity=0 time=0
EXTRACT: note_off channel=4 note=61 velocity=0 time=0
EXTRACT: note_off channel=4 note=66 velocity=0 time=0
EXTRACT: note_off channel=13 note=49 velocity=0 time=0
EXTRACT: note_off channel=13 note=61 velocity=0 time=0
EXTRACT: note_off channel=14 note=85 velocity=0 time=0
EXTRACT: note_off channel=0 note=54 velocity=0 time=0
EXTRACT: note_off channel=9 note=28 velocity=0 time=0.0407608125
EXTRACT: note_on channel=4 note=61 velocity=105 time=0.0135869375
EXTRACT: note_on channel=4 note=56 velocity=105 time=0
EXTRACT: note_off channel=8 note=66 velocity=0 time=0
EXTRACT: note_on channel=8 note=49 velocity=127 time=0
EXTRACT: note_on channel=9 note=36 velocity=127 time=0
EXTRACT: note_on channel=9 note=36 velocity=127 time=0
EXTRACT: note_on channel=9 note=36 velocity=127 time=0
EXTRACT: note_on channel=9 note=36 velocity=127 time=0
EXTRACT: note_on channel=9 note=42 velocity=127 time=0
EXTRACT: note_on channel=13 note=61 velocity=115 time=0
EXTRACT: note_on channel=13 note=49 velocity=115 time=0
EXTRACT: note_on channel=14 note=85 velocity=115 time=0
EXTRACT: note_off channel=4 note=56 velocity=0 time=0.05434775
EXTRACT: note_off channel=4 note=61 velocity=0 time=0
EXTRACT: note_off channel=9 note=42 velocity=0 time=0
EXTRACT: note_off channel=9 note=36 velocity=64 time=0
EXTRACT: note_off channel=9 note=36 velocity=64 time=0
EXTRACT: note_off channel=9 note=36 velocity=64 time=0
EXTRACT: note_off channel=9 note=36 velocity=64 time=0
EXTRACT: note_off channel=13 note=49 velocity=0 time=0.03170285416666667
EXTRACT: note_off channel=13 note=61 velocity=0 time=0
EXTRACT: note_off channel=14 note=85 velocity=0 time=0
EXTRACT: note_off channel=8 note=49 velocity=0 time=0.022644895833333335
EXTRACT: note_on channel=1 note=37 velocity=110 time=0.1086955
EXTRACT: note_on channel=1 note=49 velocity=110 time=0
EXTRACT: note_on channel=4 note=61 velocity=105 time=0
EXTRACT: note_on channel=4 note=56 velocity=105 time=0
EXTRACT: note_on channel=8 note=61 velocity=127 time=0
EXTRACT: note_on channel=9 note=46 velocity=127 time=0
EXTRACT: note_on channel=13 note=61 velocity=115 time=0
EXTRACT: note_on channel=13 note=49 velocity=115 time=0
EXTRACT: note_on channel=14 note=85 velocity=115 time=0
EXTRACT: note_on channel=0 note=49 velocity=120 time=0
EXTRACT: note_off channel=4 note=56 velocity=0 time=0.05434775
EXTRACT: note_off channel=4 note=61 velocity=0 time=0
EXTRACT: note_off channel=9 note=46 velocity=0 time=0
EXTRACT: note_off channel=13 note=49 velocity=0 time=0.022644895833333335
EXTRACT: note_off channel=13 note=61 velocity=0 time=0
EXTRACT: note_off channel=14 note=85 velocity=0 time=0
EXTRACT: note_off channel=8 note=61 velocity=0 time=0.03170285416666667
EXTRACT: note_on channel=9 note=36 velocity=127 time=0
EXTRACT: note_on channel=9 note=36 velocity=127 time=0
EXTRACT: note_on channel=9 note=36 velocity=127 time=0
EXTRACT: note_on channel=9 note=36 velocity=127 time=0
EXTRACT: note_off channel=1 note=49 velocity=0 time=0.05434775
EXTRACT: note_off channel=1 note=37 velocity=0 time=0
EXTRACT: note_off channel=9 note=36 velocity=64 time=0
EXTRACT: note_off channel=9 note=36 velocity=64 time=0
EXTRACT: note_off channel=9 note=36 velocity=64 time=0
EXTRACT: note_off channel=9 note=36 velocity=64 time=0
EXTRACT: note_off channel=0 note=49 velocity=0 time=0
EXTRACT: note_on channel=4 note=61 velocity=105 time=0.05434775
EXTRACT: note_on channel=4 note=56 velocity=105 time=0
EXTRACT: note_on channel=8 note=49 velocity=127 time=0
EXTRACT: note_on channel=9 note=36 velocity=127 time=0
EXTRACT: note_on channel=9 note=36 velocity=127 time=0
EXTRACT: note_on channel=9 note=36 velocity=127 time=0
EXTRACT: note_on channel=9 note=36 velocity=127 time=0
EXTRACT: note_on channel=9 note=28 velocity=127 time=0
EXTRACT: note_on channel=9 note=42 velocity=127 time=0
EXTRACT: note_on channel=9 note=76 velocity=80 time=0
EXTRACT: note_on channel=13 note=68 velocity=115 time=0
EXTRACT: note_on channel=13 note=56 velocity=115 time=0
EXTRACT: note_on channel=14 note=92 velocity=115 time=0
EXTRACT: note_off channel=9 note=76 velocity=0 time=0.027173875
EXTRACT: note_off channel=4 note=56 velocity=0 time=0.027173875
EXTRACT: note_off channel=4 note=61 velocity=0 time=0
EXTRACT: note_off channel=9 note=42 velocity=0 time=0
EXTRACT: note_off channel=9 note=36 velocity=64 time=0
EXTRACT: note_off channel=9 note=36 velocity=64 time=0
EXTRACT: note_off channel=9 note=36 velocity=64 time=0
EXTRACT: note_off channel=9 note=36 velocity=64 time=0
EXTRACT: note_off channel=13 note=56 velocity=0 time=0.0135869375
EXTRACT: note_off channel=13 note=68 velocity=0 time=0
EXTRACT: note_off channel=14 note=92 velocity=0 time=0
EXTRACT: note_off channel=8 note=49 velocity=0 time=0.0407608125
EXTRACT: note_on channel=1 note=37 velocity=110 time=0.1086955
EXTRACT: note_on channel=1 note=49 velocity=110 time=0
EXTRACT: note_on channel=8 note=61 velocity=127 time=0
EXTRACT: note_on channel=9 note=36 velocity=127 time=0
EXTRACT: note_on channel=9 note=36 velocity=127 time=0
EXTRACT: note_on channel=9 note=36 velocity=127 time=0
EXTRACT: note_on channel=9 note=36 velocity=127 time=0
EXTRACT: note_on channel=9 note=46 velocity=127 time=0
EXTRACT: note_on channel=13 note=68 velocity=115 time=0
EXTRACT: note_on channel=13 note=56 velocity=115 time=0
EXTRACT: note_on channel=14 note=92 velocity=115 time=0
EXTRACT: note_on channel=0 note=49 velocity=120 time=0
EXTRACT: note_off channel=9 note=46 velocity=0 time=0.05434775
EXTRACT: note_off channel=9 note=36 velocity=64 time=0
EXTRACT: note_off channel=9 note=36 velocity=64 time=0
EXTRACT: note_off channel=9 note=36 velocity=64 time=0
EXTRACT: note_off channel=9 note=36 velocity=64 time=0
EXTRACT: note_off channel=13 note=56 velocity=0 time=0.027173875
EXTRACT: note_off channel=13 note=68 velocity=0 time=0
EXTRACT: note_off channel=14 note=92 velocity=0 time=0.022644895833333335
EXTRACT: note_off channel=8 note=61 velocity=0 time=0.004528979166666667
EXTRACT: note_off channel=1 note=49 velocity=0 time=0.05434775
EXTRACT: note_off channel=1 note=37 velocity=0 time=0
EXTRACT: note_off channel=0 note=49 velocity=0 time=0
EXTRACT: note_off channel=9 note=28 velocity=0 time=0.0407608125
EXTRACT: note_on channel=4 note=63 velocity=105 time=0.0135869375
EXTRACT: note_on channel=4 note=58 velocity=105 time=0
EXTRACT: note_on channel=8 note=51 velocity=127 time=0
EXTRACT: note_on channel=9 note=36 velocity=127 time=0
EXTRACT: note_on channel=9 note=36 velocity=127 time=0
EXTRACT: note_on channel=9 note=36 velocity=127 time=0
EXTRACT: note_on channel=9 note=36 velocity=127 time=0
EXTRACT: note_on channel=9 note=42 velocity=127 time=0
EXTRACT: note_on channel=13 note=66 velocity=115 time=0
EXTRACT: note_on channel=13 note=54 velocity=115 time=0
EXTRACT: note_on channel=14 note=90 velocity=115 time=0
EXTRACT: note_off channel=4 note=58 velocity=0 time=0.05434775
EXTRACT: note_off channel=4 note=63 velocity=0 time=0
EXTRACT: note_off channel=9 note=42 velocity=0 time=0
EXTRACT: note_off channel=9 note=36 velocity=64 time=0
EXTRACT: note_off channel=9 note=36 velocity=64 time=0
EXTRACT: note_off channel=9 note=36 velocity=64 time=0
EXTRACT: note_off channel=9 note=36 velocity=64 time=0
EXTRACT: note_off channel=8 note=51 velocity=0 time=0.05434775
EXTRACT: note_on channel=1 note=39 velocity=110 time=0.1086955
EXTRACT: note_on channel=1 note=51 velocity=110 time=0
EXTRACT: note_on channel=4 note=63 velocity=105 time=0
EXTRACT: note_on channel=4 note=58 velocity=105 time=0
EXTRACT: note_on channel=8 note=63 velocity=127 time=0
EXTRACT: note_on channel=9 note=46 velocity=127 time=0
EXTRACT: note_on channel=0 note=51 velocity=120 time=0
EXTRACT: note_off channel=4 note=58 velocity=0 time=0.05434775
EXTRACT: note_off channel=4 note=63 velocity=0 time=0
EXTRACT: note_off channel=9 note=46 velocity=0 time=0
EXTRACT: note_off channel=13 note=54 velocity=0 time=0.0135869375
EXTRACT: note_off channel=13 note=66 velocity=0 time=0
EXTRACT: note_off channel=14 note=90 velocity=0 time=0
EXTRACT: note_off channel=8 note=63 velocity=0 time=0.0407608125
EXTRACT: note_on channel=13 note=63 velocity=115 time=0
EXTRACT: note_on channel=13 note=51 velocity=115 time=0
EXTRACT: note_on channel=14 note=87 velocity=115 time=0
EXTRACT: note_off channel=1 note=51 velocity=0 time=0.05434775
EXTRACT: note_off channel=1 note=39 velocity=0 time=0
EXTRACT: note_off channel=0 note=51 velocity=0 time=0
EXTRACT: note_on channel=4 note=63 velocity=105 time=0.05434775
EXTRACT: note_on channel=4 note=58 velocity=105 time=0
EXTRACT: note_on channel=8 note=51 velocity=127 time=0
EXTRACT: note_on channel=9 note=36 velocity=127 time=0
EXTRACT: note_on channel=9 note=36 velocity=127 time=0
EXTRACT: note_on channel=9 note=36 velocity=127 time=0
EXTRACT: note_on channel=9 note=36 velocity=127 time=0
EXTRACT: note_on channel=9 note=28 velocity=127 time=0
EXTRACT: note_on channel=9 note=42 velocity=127 time=0
EXTRACT: note_on channel=9 note=76 velocity=80 time=0
EXTRACT: note_off channel=13 note=51 velocity=0 time=0.009057958333333335
EXTRACT: note_off channel=13 note=63 velocity=0 time=0
EXTRACT: note_off channel=14 note=87 velocity=0 time=0
EXTRACT: note_off channel=9 note=76 velocity=0 time=0.01811591666666667
EXTRACT: note_off channel=4 note=58 velocity=0 time=0.027173875
EXTRACT: note_off channel=4 note=63 velocity=0 time=0
EXTRACT: note_off channel=9 note=42 velocity=0 time=0
EXTRACT: note_off channel=9 note=36 velocity=64 time=0
EXTRACT: note_off channel=9 note=36 velocity=64 time=0
EXTRACT: note_off channel=9 note=36 velocity=64 time=0
EXTRACT: note_off channel=9 note=36 velocity=64 time=0
EXTRACT: note_off channel=8 note=51 velocity=0 time=0.05434775
EXTRACT: note_on channel=1 note=39 velocity=110 time=0.1086955
EXTRACT: note_on channel=1 note=51 velocity=110 time=0
EXTRACT: note_on channel=8 note=63 velocity=127 time=0
EXTRACT: note_on channel=9 note=46 velocity=127 time=0
EXTRACT: note_on channel=9 note=76 velocity=80 time=0
EXTRACT: note_on channel=13 note=63 velocity=115 time=0
EXTRACT: note_on channel=13 note=51 velocity=115 time=0
EXTRACT: note_on channel=14 note=87 velocity=115 time=0
EXTRACT: note_on channel=0 note=51 velocity=120 time=0
EXTRACT: note_off channel=9 note=76 velocity=0 time=0.027173875
EXTRACT: note_off channel=13 note=51 velocity=0 time=0.022644895833333335
EXTRACT: note_off channel=13 note=63 velocity=0 time=0
EXTRACT: note_off channel=14 note=87 velocity=0 time=0
EXTRACT: note_off channel=9 note=46 velocity=0 time=0.004528979166666667
EXTRACT: note_off channel=8 note=63 velocity=0 time=0.03623183333333334
EXTRACT: note_on channel=4 note=63 velocity=105 time=0.01811591666666667
EXTRACT: note_on channel=4 note=58 velocity=105 time=0
EXTRACT: note_on channel=8 note=63 velocity=127 time=0
EXTRACT: note_on channel=13 note=63 velocity=115 time=0
EXTRACT: note_on channel=13 note=51 velocity=115 time=0
EXTRACT: note_on channel=14 note=87 velocity=115 time=0
EXTRACT: note_off channel=1 note=51 velocity=0 time=0.05434775
EXTRACT: note_off channel=1 note=39 velocity=0 time=0
EXTRACT: note_off channel=4 note=58 velocity=0 time=0
EXTRACT: note_off channel=4 note=63 velocity=0 time=0
EXTRACT: note_off channel=0 note=51 velocity=0 time=0
EXTRACT: note_off channel=13 note=51 velocity=0 time=0.004528979166666667
EXTRACT: note_off channel=13 note=63 velocity=0 time=0
EXTRACT: note_off channel=14 note=87 velocity=0 time=0
EXTRACT: note_off channel=9 note=28 velocity=0 time=0.03623183333333334
EXTRACT: note_on channel=4 note=63 velocity=105 time=0.0135869375
EXTRACT: note_on channel=4 note=58 velocity=105 time=0
EXTRACT: note_off channel=8 note=63 velocity=0 time=0
EXTRACT: note_on channel=8 note=51 velocity=127 time=0
EXTRACT: note_on channel=9 note=36 velocity=127 time=0
EXTRACT: note_on channel=9 note=36 velocity=127 time=0
EXTRACT: note_on channel=9 note=36 velocity=127 time=0
EXTRACT: note_on channel=9 note=36 velocity=127 time=0
EXTRACT: note_on channel=9 note=42 velocity=127 time=0
EXTRACT: note_on channel=13 note=63 velocity=115 time=0
EXTRACT: note_on channel=13 note=51 velocity=115 time=0
EXTRACT: note_on channel=14 note=87 velocity=115 time=0
EXTRACT: note_off channel=4 note=58 velocity=0 time=0.05434775
EXTRACT: note_off channel=4 note=63 velocity=0 time=0
EXTRACT: note_off channel=9 note=42 velocity=0 time=0
EXTRACT: note_off channel=9 note=36 velocity=64 time=0
EXTRACT: note_off channel=9 note=36 velocity=64 time=0
EXTRACT: note_off channel=9 note=36 velocity=64 time=0
EXTRACT: note_off channel=9 note=36 velocity=64 time=0
EXTRACT: note_off channel=13 note=51 velocity=0 time=0.022644895833333335
EXTRACT: note_off channel=13 note=63 velocity=0 time=0
EXTRACT: note_off channel=14 note=87 velocity=0 time=0
EXTRACT: note_off channel=8 note=51 velocity=0 time=0.03170285416666667
EXTRACT: note_on channel=1 note=39 velocity=110 time=0.1086955
EXTRACT: note_on channel=1 note=51 velocity=110 time=0
EXTRACT: note_on channel=4 note=63 velocity=105 time=0
EXTRACT: note_on channel=4 note=58 velocity=105 time=0
EXTRACT: note_on channel=8 note=63 velocity=127 time=0
EXTRACT: note_on channel=9 note=46 velocity=127 time=0
EXTRACT: note_on channel=13 note=63 velocity=115 time=0
EXTRACT: note_on channel=13 note=51 velocity=115 time=0
EXTRACT: note_on channel=14 note=87 velocity=115 time=0
EXTRACT: note_on channel=0 note=51 velocity=120 time=0
EXTRACT: note_off channel=4 note=58 velocity=0 time=0.05434775
EXTRACT: note_off channel=4 note=63 velocity=0 time=0
EXTRACT: note_off channel=9 note=46 velocity=0 time=0
EXTRACT: note_off channel=13 note=51 velocity=0 time=0.03170285416666667
EXTRACT: note_off channel=13 note=63 velocity=0 time=0
EXTRACT: note_off channel=14 note=87 velocity=0 time=0
EXTRACT: note_off channel=8 note=63 velocity=0 time=0.022644895833333335
EXTRACT: note_on channel=9 note=36 velocity=127 time=0
EXTRACT: note_on channel=9 note=36 velocity=127 time=0
EXTRACT: note_on channel=9 note=36 velocity=127 time=0
EXTRACT: note_on channel=9 note=36 velocity=127 time=0
EXTRACT: note_off channel=1 note=51 velocity=0 time=0.05434775
EXTRACT: note_off channel=1 note=39 velocity=0 time=0
EXTRACT: note_off channel=9 note=36 velocity=64 time=0
EXTRACT: note_off channel=9 note=36 velocity=64 time=0
EXTRACT: note_off channel=9 note=36 velocity=64 time=0
EXTRACT: note_off channel=9 note=36 velocity=64 time=0
EXTRACT: note_off channel=0 note=51 velocity=0 time=0
EXTRACT: note_on channel=4 note=63 velocity=105 time=0.05434775
EXTRACT: note_on channel=4 note=58 velocity=105 time=0
EXTRACT: note_on channel=8 note=51 velocity=127 time=0
EXTRACT: note_on channel=9 note=36 velocity=127 time=0
EXTRACT: note_on channel=9 note=36 velocity=127 time=0
EXTRACT: note_on channel=9 note=36 velocity=127 time=0
EXTRACT: note_on channel=9 note=36 velocity=127 time=0
EXTRACT: note_on channel=9 note=28 velocity=127 time=0
EXTRACT: note_on channel=9 note=42 velocity=127 time=0
EXTRACT: note_on channel=9 note=76 velocity=80 time=0
EXTRACT: note_on channel=13 note=66 velocity=115 time=0
EXTRACT: note_on channel=13 note=54 velocity=115 time=0
EXTRACT: note_on channel=14 note=90 velocity=115 time=0
EXTRACT: note_off channel=9 note=76 velocity=0 time=0.027173875
EXTRACT: note_off channel=4 note=58 velocity=0 time=0.027173875
EXTRACT: note_off channel=4 note=63 velocity=0 time=0
EXTRACT: note_off channel=9 note=42 velocity=0 time=0
EXTRACT: note_off channel=9 note=36 velocity=64 time=0
EXTRACT: note_off channel=9 note=36 velocity=64 time=0
EXTRACT: note_off channel=9 note=36 velocity=64 time=0
EXTRACT: note_off channel=9 note=36 velocity=64 time=0
EXTRACT: note_off channel=13 note=54 velocity=0 time=0.01811591666666667
EXTRACT: note_off channel=13 note=66 velocity=0 time=0
EXTRACT: note_off channel=14 note=90 velocity=0 time=0
EXTRACT: note_off channel=8 note=51 velocity=0 time=0.03623183333333334
EXTRACT: note_on channel=1 note=39 velocity=110 time=0.1086955
EXTRACT: note_on channel=1 note=51 velocity=110 time=0
EXTRACT: note_on channel=8 note=63 velocity=127 time=0
EXTRACT: note_on channel=9 note=36 velocity=127 time=0
EXTRACT: note_on channel=9 note=36 velocity=127 time=0
EXTRACT: note_on channel=9 note=36 velocity=127 time=0
EXTRACT: note_on channel=9 note=36 velocity=127 time=0
EXTRACT: note_on channel=9 note=46 velocity=127 time=0
EXTRACT: note_on channel=13 note=68 velocity=115 time=0
EXTRACT: note_on channel=13 note=56 velocity=115 time=0
EXTRACT: note_on channel=14 note=92 velocity=115 time=0
EXTRACT: note_on channel=0 note=51 velocity=120 time=0
EXTRACT: note_off channel=9 note=46 velocity=0 time=0.05434775
EXTRACT: note_off channel=9 note=36 velocity=64 time=0
EXTRACT: note_off channel=9 note=36 velocity=64 time=0
EXTRACT: note_off channel=9 note=36 velocity=64 time=0
EXTRACT: note_off channel=9 note=36 velocity=64 time=0
EXTRACT: note_off channel=13 note=56 velocity=0 time=0.01811591666666667
EXTRACT: note_off channel=13 note=68 velocity=0 time=0
EXTRACT: note_off channel=14 note=92 velocity=0 time=0
EXTRACT: note_off channel=8 note=63 velocity=0 time=0.03623183333333334
EXTRACT: note_off channel=1 note=51 velocity=0 time=0.05434775
EXTRACT: note_off channel=1 note=39 velocity=0 time=0
EXTRACT: note_off channel=0 note=51 velocity=0 time=0
EXTRACT: note_off channel=9 note=28 velocity=0 time=0.0407608125
EXTRACT: note_on channel=4 note=59 velocity=105 time=0.0135869375
EXTRACT: note_on channel=4 note=54 velocity=105 time=0
EXTRACT: note_on channel=8 note=47 velocity=127 time=0
EXTRACT: note_on channel=9 note=36 velocity=127 time=0
EXTRACT: note_on channel=9 note=36 velocity=127 time=0
EXTRACT: note_on channel=9 note=36 velocity=127 time=0
EXTRACT: note_on channel=9 note=36 velocity=127 time=0
EXTRACT: note_on channel=9 note=42 velocity=127 time=0
EXTRACT: note_on channel=13 note=70 velocity=115 time=0
EXTRACT: note_on channel=13 note=58 velocity=115 time=0
EXTRACT: note_on channel=14 note=94 velocity=115 time=0
EXTRACT: note_off channel=4 note=54 velocity=0 time=0.05434775
EXTRACT: note_off channel=4 note=59 velocity=0 time=0
EXTRACT: note_off channel=9 note=42 velocity=0 time=0
EXTRACT: note_off channel=9 note=36 velocity=64 time=0
EXTRACT: note_off channel=9 note=36 velocity=64 time=0
EXTRACT: note_off channel=9 note=36 velocity=64 time=0
EXTRACT: note_off channel=9 note=36 velocity=64 time=0
EXTRACT: note_off channel=8 note=47 velocity=0 time=0.05434775
EXTRACT: note_on channel=1 note=35 velocity=110 time=0.1086955
EXTRACT: note_on channel=1 note=47 velocity=110 time=0
EXTRACT: note_on channel=4 note=59 velocity=105 time=0
EXTRACT: note_on channel=4 note=54 velocity=105 time=0
EXTRACT: note_on channel=8 note=59 velocity=127 time=0
EXTRACT: note_on channel=9 note=46 velocity=127 time=0
EXTRACT: note_on channel=0 note=47 velocity=120 time=0
EXTRACT: note_off channel=4 note=54 velocity=0 time=0.05434775
EXTRACT: note_off channel=4 note=59 velocity=0 time=0
EXTRACT: note_off channel=9 note=46 velocity=0 time=0
EXTRACT: note_off channel=13 note=58 velocity=0 time=0.009057958333333335
EXTRACT: note_off channel=13 note=70 velocity=0 time=0
EXTRACT: note_off channel=14 note=94 velocity=0 time=0
EXTRACT: note_off channel=8 note=59 velocity=0 time=0.04528979166666667
EXTRACT: note_on channel=13 note=66 velocity=115 time=0
EXTRACT: note_on channel=13 note=54 velocity=115 time=0
EXTRACT: note_on channel=14 note=90 velocity=115 time=0
EXTRACT: note_off channel=1 note=47 velocity=0 time=0.05434775
EXTRACT: note_off channel=1 note=35 velocity=0 time=0
EXTRACT: note_off channel=0 note=47 velocity=0 time=0
EXTRACT: note_off channel=13 note=54 velocity=0 time=0.04528979166666667
EXTRACT: note_off channel=13 note=66 velocity=0 time=0
EXTRACT: note_off channel=14 note=90 velocity=0 time=0
EXTRACT: note_on channel=4 note=59 velocity=105 time=0.009057958333333335
EXTRACT: note_on channel=4 note=54 velocity=105 time=0
EXTRACT: note_on channel=8 note=47 velocity=127 time=0
EXTRACT: note_on channel=9 note=36 velocity=127 time=0
EXTRACT: note_on channel=9 note=36 velocity=127 time=0
EXTRACT: note_on channel=9 note=36 velocity=127 time=0
EXTRACT: note_on channel=9 note=36 velocity=127 time=0
EXTRACT: note_on channel=9 note=28 velocity=127 time=0
EXTRACT: note_on channel=9 note=42 velocity=127 time=0
EXTRACT: note_on channel=9 note=76 velocity=80 time=0
EXTRACT: note_off channel=9 note=76 velocity=0 time=0.027173875
EXTRACT: note_off channel=4 note=54 velocity=0 time=0.027173875
EXTRACT: note_off channel=4 note=59 velocity=0 time=0
EXTRACT: note_off channel=9 note=42 velocity=0 time=0
EXTRACT: note_off channel=9 note=36 velocity=64 time=0
EXTRACT: note_off channel=9 note=36 velocity=64 time=0
EXTRACT: note_off channel=9 note=36 velocity=64 time=0
EXTRACT: note_off channel=9 note=36 velocity=64 time=0
EXTRACT: note_off channel=8 note=47 velocity=0 time=0.05434775
EXTRACT: note_on channel=1 note=35 velocity=110 time=0.1086955
EXTRACT: note_on channel=1 note=47 velocity=110 time=0
EXTRACT: note_on channel=8 note=59 velocity=127 time=0
EXTRACT: note_on channel=9 note=46 velocity=127 time=0
EXTRACT: note_on channel=9 note=76 velocity=80 time=0
EXTRACT: note_on channel=13 note=59 velocity=115 time=0
EXTRACT: note_on channel=13 note=47 velocity=115 time=0
EXTRACT: note_on channel=14 note=83 velocity=115 time=0
EXTRACT: note_on channel=0 note=47 velocity=120 time=0
EXTRACT: note_off channel=9 note=76 velocity=0 time=0.027173875
EXTRACT: note_off channel=9 note=46 velocity=0 time=0.027173875
EXTRACT: note_off channel=8 note=59 velocity=0 time=0.03623183333333334
EXTRACT: note_on channel=4 note=59 velocity=105 time=0.01811591666666667
EXTRACT: note_on channel=4 note=54 velocity=105 time=0
EXTRACT: note_on channel=8 note=59 velocity=127 time=0
EXTRACT: note_off channel=1 note=47 velocity=0 time=0.05434775
EXTRACT: note_off channel=1 note=35 velocity=0 time=0
EXTRACT: note_off channel=4 note=54 velocity=0 time=0
EXTRACT: note_off channel=4 note=59 velocity=0 time=0
EXTRACT: note_off channel=0 note=47 velocity=0 time=0
EXTRACT: note_off channel=13 note=47 velocity=0 time=0.03170285416666667
EXTRACT: note_off channel=13 note=59 velocity=0 time=0
EXTRACT: note_off channel=14 note=83 velocity=0 time=0
EXTRACT: note_off channel=9 note=28 velocity=0 time=0.009057958333333335
EXTRACT: note_on channel=4 note=61 velocity=105 time=0.0135869375
EXTRACT: note_on channel=4 note=56 velocity=105 time=0
EXTRACT: note_off channel=8 note=59 velocity=0 time=0
EXTRACT: note_on channel=8 note=49 velocity=127 time=0
EXTRACT: note_on channel=9 note=36 velocity=127 time=0
EXTRACT: note_on channel=9 note=36 velocity=127 time=0
EXTRACT: note_on channel=9 note=36 velocity=127 time=0
EXTRACT: note_on channel=9 note=36 velocity=127 time=0
EXTRACT: note_on channel=9 note=42 velocity=127 time=0
EXTRACT: note_on channel=13 note=70 velocity=115 time=0
EXTRACT: note_on channel=13 note=58 velocity=115 time=0
EXTRACT: note_on channel=14 note=94 velocity=115 time=0
EXTRACT: note_off channel=4 note=56 velocity=0 time=0.05434775
EXTRACT: note_off channel=4 note=61 velocity=0 time=0
EXTRACT: note_off channel=9 note=42 velocity=0 time=0
EXTRACT: note_off channel=9 note=36 velocity=64 time=0
EXTRACT: note_off channel=9 note=36 velocity=64 time=0
EXTRACT: note_off channel=9 note=36 velocity=64 time=0
EXTRACT: note_off channel=9 note=36 velocity=64 time=0
EXTRACT: note_off channel=13 note=58 velocity=0 time=0.03170285416666667
EXTRACT: note_off channel=13 note=70 velocity=0 time=0
EXTRACT: note_off channel=14 note=94 velocity=0 time=0.009057958333333335
EXTRACT: note_off channel=8 note=49 velocity=0 time=0.0135869375
EXTRACT: note_on channel=1 note=37 velocity=110 time=0.1086955
EXTRACT: note_on channel=1 note=49 velocity=110 time=0
EXTRACT: note_on channel=4 note=61 velocity=105 time=0
EXTRACT: note_on channel=4 note=56 velocity=105 time=0
EXTRACT: note_on channel=8 note=61 velocity=127 time=0
EXTRACT: note_on channel=9 note=46 velocity=127 time=0
EXTRACT: note_on channel=13 note=70 velocity=115 time=0
EXTRACT: note_on channel=13 note=58 velocity=115 time=0
EXTRACT: note_on channel=14 note=94 velocity=115 time=0
EXTRACT: note_on channel=0 note=49 velocity=120 time=0
EXTRACT: note_off channel=4 note=56 velocity=0 time=0.05434775
EXTRACT: note_off channel=4 note=61 velocity=0 time=0
EXTRACT: note_off channel=9 note=46 velocity=0 time=0
EXTRACT: note_off channel=13 note=58 velocity=0 time=0.0407608125
EXTRACT: note_off channel=13 note=70 velocity=0 time=0
EXTRACT: note_off channel=14 note=94 velocity=0 time=0.004528979166666667
EXTRACT: note_off channel=8 note=61 velocity=0 time=0.009057958333333335
EXTRACT: note_on channel=9 note=36 velocity=127 time=0
EXTRACT: note_on channel=9 note=36 velocity=127 time=0
EXTRACT: note_on channel=9 note=36 velocity=127 time=0
EXTRACT: note_on channel=9 note=36 velocity=127 time=0
EXTRACT: note_off channel=1 note=49 velocity=0 time=0.05434775
EXTRACT: note_off channel=1 note=37 velocity=0 time=0
EXTRACT: note_off channel=9 note=36 velocity=64 time=0
EXTRACT: note_off channel=9 note=36 velocity=64 time=0
EXTRACT: note_off channel=9 note=36 velocity=64 time=0
EXTRACT: note_off channel=9 note=36 velocity=64 time=0
EXTRACT: note_off channel=0 note=49 velocity=0 time=0
EXTRACT: note_on channel=4 note=61 velocity=105 time=0.05434775
EXTRACT: note_on channel=4 note=56 velocity=105 time=0
EXTRACT: note_on channel=8 note=49 velocity=127 time=0
EXTRACT: note_on channel=9 note=36 velocity=127 time=0
EXTRACT: note_on channel=9 note=36 velocity=127 time=0
EXTRACT: note_on channel=9 note=36 velocity=127 time=0
EXTRACT: note_on channel=9 note=36 velocity=127 time=0
EXTRACT: note_on channel=9 note=28 velocity=127 time=0
EXTRACT: note_on channel=9 note=42 velocity=127 time=0
EXTRACT: note_on channel=9 note=76 velocity=80 time=0
EXTRACT: note_on channel=13 note=68 velocity=115 time=0
EXTRACT: note_on channel=13 note=56 velocity=115 time=0
EXTRACT: note_on channel=14 note=92 velocity=115 time=0
EXTRACT: note_off channel=9 note=76 velocity=0 time=0.027173875
EXTRACT: note_off channel=4 note=56 velocity=0 time=0.027173875
EXTRACT: note_off channel=4 note=61 velocity=0 time=0
EXTRACT: note_off channel=9 note=42 velocity=0 time=0
EXTRACT: note_off channel=9 note=36 velocity=64 time=0
EXTRACT: note_off channel=9 note=36 velocity=64 time=0
EXTRACT: note_off channel=9 note=36 velocity=64 time=0
EXTRACT: note_off channel=9 note=36 velocity=64 time=0
EXTRACT: note_off channel=14 note=92 velocity=0 time=0.022644895833333335
EXTRACT: note_off channel=13 note=56 velocity=0 time=0.004528979166666667
EXTRACT: note_off channel=13 note=68 velocity=0 time=0
EXTRACT: note_off channel=8 note=49 velocity=0 time=0.027173875
EXTRACT: note_on channel=1 note=37 velocity=110 time=0.1086955
EXTRACT: note_on channel=1 note=49 velocity=110 time=0
EXTRACT: note_on channel=8 note=61 velocity=127 time=0
EXTRACT: note_on channel=9 note=36 velocity=127 time=0
EXTRACT: note_on channel=9 note=36 velocity=127 time=0
EXTRACT: note_on channel=9 note=36 velocity=127 time=0
EXTRACT: note_on channel=9 note=36 velocity=127 time=0
EXTRACT: note_on channel=9 note=46 velocity=127 time=0
EXTRACT: note_on channel=13 note=68 velocity=115 time=0
EXTRACT: note_on channel=13 note=56 velocity=115 time=0
EXTRACT: note_on channel=14 note=92 velocity=115 time=0
EXTRACT: note_on channel=0 note=49 velocity=120 time=0
EXTRACT: note_off channel=9 note=46 velocity=0 time=0.05434775
EXTRACT: note_off channel=9 note=36 velocity=64 time=0
EXTRACT: note_off channel=9 note=36 velocity=64 time=0
EXTRACT: note_off channel=9 note=36 velocity=64 time=0
EXTRACT: note_off channel=9 note=36 velocity=64 time=0
EXTRACT: note_off channel=13 note=56 velocity=0 time=0.03170285416666667
EXTRACT: note_off channel=13 note=68 velocity=0 time=0
EXTRACT: note_off channel=14 note=92 velocity=0 time=0.004528979166666667
EXTRACT: note_off channel=8 note=61 velocity=0 time=0.01811591666666667
EXTRACT: note_off channel=1 note=49 velocity=0 time=0.05434775
EXTRACT: note_off channel=1 note=37 velocity=0 time=0
EXTRACT: note_off channel=0 note=49 velocity=0 time=0
EXTRACT: note_off channel=9 note=28 velocity=0 time=0.0407608125
EXTRACT: note_on channel=4 note=66 velocity=105 time=0.0135869375
EXTRACT: note_on channel=4 note=61 velocity=105 time=0
EXTRACT: note_on channel=5 note=66 velocity=75 time=0
EXTRACT: note_on channel=8 note=54 velocity=127 time=0
EXTRACT: note_on channel=9 note=36 velocity=127 time=0
EXTRACT: note_on channel=9 note=36 velocity=127 time=0
EXTRACT: note_on channel=9 note=36 velocity=127 time=0
EXTRACT: note_on channel=9 note=36 velocity=127 time=0
EXTRACT: note_on channel=9 note=42 velocity=127 time=0
EXTRACT: note_on channel=9 note=49 velocity=50 time=0
EXTRACT: note_on channel=13 note=66 velocity=115 time=0
EXTRACT: note_on channel=13 note=54 velocity=115 time=0
EXTRACT: note_on channel=14 note=90 velocity=115 time=0
EXTRACT: note_off channel=5 note=66 velocity=0 time=0.027173875
EXTRACT: note_off channel=9 note=49 velocity=0 time=0
EXTRACT: note_off channel=4 note=61 velocity=0 time=0.027173875
EXTRACT: note_off channel=4 note=66 velocity=0 time=0
EXTRACT: note_off channel=9 note=42 velocity=0 time=0
EXTRACT: note_off channel=9 note=36 velocity=64 time=0
EXTRACT: note_off channel=9 note=36 velocity=64 time=0
EXTRACT: note_off channel=9 note=36 velocity=64 time=0
EXTRACT: note_off channel=9 note=36 velocity=64 time=0
EXTRACT: note_on channel=5 note=66 velocity=75 time=0.05434775
EXTRACT: note_off channel=8 note=54 velocity=0 time=0
EXTRACT: note_off channel=5 note=66 velocity=0 time=0.027173875
EXTRACT: note_on channel=1 note=42 velocity=110 time=0.081521625
EXTRACT: note_on channel=1 note=54 velocity=110 time=0
EXTRACT: note_on channel=4 note=66 velocity=105 time=0
EXTRACT: note_on channel=4 note=61 velocity=105 time=0
EXTRACT: note_on channel=5 note=54 velocity=75 time=0
EXTRACT: note_on channel=8 note=66 velocity=127 time=0
EXTRACT: note_on channel=9 note=46 velocity=127 time=0
EXTRACT: note_off channel=14 note=90 velocity=0 time=0
EXTRACT: note_on channel=0 note=54 velocity=120 time=0
EXTRACT: note_off channel=5 note=54 velocity=0 time=0.027173875
EXTRACT: note_off channel=13 note=54 velocity=0 time=0.009057958333333335
EXTRACT: note_off channel=13 note=66 velocity=0 time=0
EXTRACT: note_off channel=4 note=61 velocity=0 time=0.01811591666666667
EXTRACT: note_off channel=4 note=66 velocity=0 time=0
EXTRACT: note_off channel=9 note=46 velocity=0 time=0
EXTRACT: note_on channel=5 note=54 velocity=75 time=0.05434775
EXTRACT: note_off channel=8 note=66 velocity=0 time=0
EXTRACT: note_off channel=5 note=54 velocity=0 time=0.027173875
EXTRACT: note_off channel=1 note=54 velocity=0 time=0.027173875
EXTRACT: note_off channel=1 note=42 velocity=0 time=0
EXTRACT: note_off channel=0 note=54 velocity=0 time=0
EXTRACT: note_on channel=4 note=66 velocity=105 time=0.05434775
EXTRACT: note_on channel=4 note=61 velocity=105 time=0
EXTRACT: note_on channel=5 note=66 velocity=75 time=0
EXTRACT: note_on channel=8 note=54 velocity=127 time=0
EXTRACT: note_on channel=9 note=36 velocity=127 time=0
EXTRACT: note_on channel=9 note=36 velocity=127 time=0
EXTRACT: note_on channel=9 note=36 velocity=127 time=0
EXTRACT: note_on channel=9 note=36 velocity=127 time=0
EXTRACT: note_on channel=9 note=28 velocity=127 time=0
EXTRACT: note_on channel=9 note=42 velocity=127 time=0
EXTRACT: note_on channel=9 note=76 velocity=80 time=0
EXTRACT: note_off channel=5 note=66 velocity=0 time=0.027173875
EXTRACT: note_off channel=9 note=76 velocity=0 time=0
EXTRACT: note_off channel=4 note=61 velocity=0 time=0.027173875
EXTRACT: note_off channel=4 note=66 velocity=0 time=0
EXTRACT: note_off channel=9 note=42 velocity=0 time=0
EXTRACT: note_off channel=9 note=36 velocity=64 time=0
EXTRACT: note_off channel=9 note=36 velocity=64 time=0
EXTRACT: note_off channel=9 note=36 velocity=64 time=0
EXTRACT: note_off channel=9 note=36 velocity=64 time=0
EXTRACT: note_on channel=5 note=66 velocity=75 time=0.05434775
EXTRACT: note_off channel=8 note=54 velocity=0 time=0
EXTRACT: note_off channel=5 note=66 velocity=0 time=0.027173875
EXTRACT: note_on channel=1 note=42 velocity=110 time=0.081521625
EXTRACT: note_on channel=1 note=54 velocity=110 time=0
EXTRACT: note_on channel=5 note=54 velocity=75 time=0
EXTRACT: note_on channel=8 note=66 velocity=127 time=0
EXTRACT: note_on channel=9 note=46 velocity=127 time=0
EXTRACT: note_on channel=9 note=76 velocity=80 time=0
EXTRACT: note_on channel=9 note=30 velocity=85 time=0
EXTRACT: note_on channel=0 note=54 velocity=120 time=0
EXTRACT: note_off channel=5 note=54 velocity=0 time=0.027173875
EXTRACT: note_off channel=9 note=76 velocity=0 time=0
EXTRACT: note_off channel=9 note=46 velocity=0 time=0.027173875
EXTRACT: note_off channel=9 note=30 velocity=0 time=0
EXTRACT: note_off channel=8 note=66 velocity=0 time=0.03623183333333334
EXTRACT: note_on channel=4 note=66 velocity=105 time=0.01811591666666667
EXTRACT: note_on channel=4 note=61 velocity=105 time=0
EXTRACT: note_on channel=5 note=54 velocity=75 time=0
EXTRACT: note_on channel=8 note=66 velocity=127 time=0
EXTRACT: note_on channel=9 note=29 velocity=85 time=0
EXTRACT: note_off channel=5 note=54 velocity=0 time=0.027173875
EXTRACT: note_off channel=1 note=54 velocity=0 time=0.027173875
EXTRACT: note_off channel=1 note=42 velocity=0 time=0
EXTRACT: note_off channel=4 note=61 velocity=0 time=0
EXTRACT: note_off channel=4 note=66 velocity=0 time=0
EXTRACT: note_off channel=9 note=29 velocity=0 time=0
EXTRACT: note_off channel=0 note=54 velocity=0 time=0
EXTRACT: note_off channel=9 note=28 velocity=0 time=0.0407608125
EXTRACT: note_on channel=4 note=66 velocity=105 time=0.0135869375
EXTRACT: note_on channel=4 note=61 velocity=105 time=0
EXTRACT: note_on channel=5 note=78 velocity=75 time=0
EXTRACT: note_off channel=8 note=66 velocity=0 time=0
EXTRACT: note_on channel=8 note=54 velocity=127 time=0
EXTRACT: note_on channel=9 note=36 velocity=127 time=0
EXTRACT: note_on channel=9 note=36 velocity=127 time=0
EXTRACT: note_on channel=9 note=36 velocity=127 time=0
EXTRACT: note_on channel=9 note=36 velocity=127 time=0
EXTRACT: note_on channel=9 note=42 velocity=127 time=0
EXTRACT: note_on channel=9 note=30 velocity=85 time=0
EXTRACT: note_off channel=5 note=78 velocity=0 time=0.027173875
EXTRACT: note_off channel=4 note=61 velocity=0 time=0.027173875
EXTRACT: note_off channel=4 note=66 velocity=0 time=0
EXTRACT: note_off channel=9 note=30 velocity=0 time=0
EXTRACT: note_off channel=9 note=42 velocity=0 time=0
EXTRACT: note_off channel=9 note=36 velocity=64 time=0
EXTRACT: note_off channel=9 note=36 velocity=64 time=0
EXTRACT: note_off channel=9 note=36 velocity=64 time=0
EXTRACT: note_off channel=9 note=36 velocity=64 time=0
EXTRACT: note_on channel=5 note=78 velocity=75 time=0.05434775
EXTRACT: note_off channel=8 note=54 velocity=0 time=0
EXTRACT: note_off channel=5 note=78 velocity=0 time=0.027173875
EXTRACT: note_on channel=1 note=42 velocity=110 time=0.081521625
EXTRACT: note_on channel=1 note=54 velocity=110 time=0
EXTRACT: note_on channel=4 note=66 velocity=105 time=0
EXTRACT: note_on channel=4 note=61 velocity=105 time=0
EXTRACT: note_on channel=5 note=66 velocity=75 time=0
EXTRACT: note_on channel=8 note=66 velocity=127 time=0
EXTRACT: note_on channel=9 note=46 velocity=127 time=0
EXTRACT: note_on channel=0 note=54 velocity=120 time=0
EXTRACT: note_off channel=5 note=66 velocity=0 time=0.027173875
EXTRACT: note_off channel=4 note=61 velocity=0 time=0.027173875
EXTRACT: note_off channel=4 note=66 velocity=0 time=0
EXTRACT: note_off channel=9 note=46 velocity=0 time=0
EXTRACT: note_on channel=5 note=66 velocity=75 time=0.05434775
EXTRACT: note_off channel=8 note=66 velocity=0 time=0
EXTRACT: note_on channel=9 note=36 velocity=127 time=0
EXTRACT: note_on channel=9 note=36 velocity=127 time=0
EXTRACT: note_on channel=9 note=36 velocity=127 time=0
EXTRACT: note_on channel=9 note=36 velocity=127 time=0
EXTRACT: note_off channel=5 note=66 velocity=0 time=0.027173875
EXTRACT: note_off channel=1 note=54 velocity=0 time=0.027173875
EXTRACT: note_off channel=1 note=42 velocity=0 time=0
EXTRACT: note_off channel=9 note=36 velocity=64 time=0
EXTRACT: note_off channel=9 note=36 velocity=64 time=0
EXTRACT: note_off channel=9 note=36 velocity=64 time=0
EXTRACT: note_off channel=9 note=36 velocity=64 time=0
EXTRACT: note_off channel=0 note=54 velocity=0 time=0
EXTRACT: note_on channel=4 note=66 velocity=105 time=0.05434775
EXTRACT: note_on channel=4 note=61 velocity=105 time=0
EXTRACT: note_on channel=5 note=90 velocity=75 time=0
EXTRACT: note_on channel=8 note=54 velocity=127 time=0
EXTRACT: note_on channel=9 note=36 velocity=127 time=0
EXTRACT: note_on channel=9 note=36 velocity=127 time=0
EXTRACT: note_on channel=9 note=36 velocity=127 time=0
EXTRACT: note_on channel=9 note=36 velocity=127 time=0
EXTRACT: note_on channel=9 note=28 velocity=127 time=0
EXTRACT: note_on channel=9 note=42 velocity=127 time=0
EXTRACT: note_on channel=9 note=76 velocity=80 time=0
EXTRACT: note_on channel=9 note=49 velocity=50 time=0
EXTRACT: note_on channel=12 note=57 velocity=115 time=0
EXTRACT: note_off channel=5 note=90 velocity=0 time=0.027173875
EXTRACT: note_off channel=9 note=49 velocity=0 time=0
EXTRACT: note_off channel=9 note=76 velocity=0 time=0
EXTRACT: note_off channel=12 note=57 velocity=0 time=0
EXTRACT: note_off channel=4 note=61 velocity=0 time=0.027173875
EXTRACT: note_off channel=4 note=66 velocity=0 time=0
EXTRACT: note_off channel=9 note=42 velocity=0 time=0
EXTRACT: note_off channel=9 note=36 velocity=64 time=0
EXTRACT: note_off channel=9 note=36 velocity=64 time=0
EXTRACT: note_off channel=9 note=36 velocity=64 time=0
EXTRACT: note_off channel=9 note=36 velocity=64 time=0
EXTRACT: note_on channel=5 note=90 velocity=75 time=0.05434775
EXTRACT: note_off channel=8 note=54 velocity=0 time=0
EXTRACT: note_off channel=5 note=90 velocity=0 time=0.027173875
EXTRACT: note_on channel=1 note=42 velocity=110 time=0.081521625
EXTRACT: note_on channel=1 note=54 velocity=110 time=0
EXTRACT: note_on channel=5 note=78 velocity=75 time=0
EXTRACT: note_on channel=8 note=66 velocity=127 time=0
EXTRACT: note_on channel=9 note=36 velocity=127 time=0
EXTRACT: note_on channel=9 note=36 velocity=127 time=0
EXTRACT: note_on channel=9 note=36 velocity=127 time=0
EXTRACT: note_on channel=9 note=36 velocity=127 time=0
EXTRACT: note_on channel=9 note=46 velocity=127 time=0
EXTRACT: note_on channel=0 note=54 velocity=120 time=0
EXTRACT: note_off channel=5 note=78 velocity=0 time=0.027173875
EXTRACT: note_off channel=9 note=46 velocity=0 time=0.027173875
EXTRACT: note_off channel=9 note=36 velocity=64 time=0
EXTRACT: note_off channel=9 note=36 velocity=64 time=0
EXTRACT: note_off channel=9 note=36 velocity=64 time=0
EXTRACT: note_off channel=9 note=36 velocity=64 time=0
EXTRACT: note_on channel=5 note=78 velocity=75 time=0.05434775
EXTRACT: note_off channel=8 note=66 velocity=0 time=0
EXTRACT: note_off channel=5 note=78 velocity=0 time=0.027173875
EXTRACT: note_off channel=1 note=54 velocity=0 time=0.027173875
EXTRACT: note_off channel=1 note=42 velocity=0 time=0
EXTRACT: note_off channel=0 note=54 velocity=0 time=0
EXTRACT: note_off channel=9 note=28 velocity=0 time=0.0407608125
EXTRACT: note_on channel=2 note=102 velocity=50 time=0.0135869375
EXTRACT: note_on channel=2 note=90 velocity=40 time=0
EXTRACT: note_on channel=4 note=66 velocity=75 time=0
EXTRACT: note_on channel=4 note=61 velocity=75 time=0
EXTRACT: note_on channel=9 note=36 velocity=127 time=0
EXTRACT: note_on channel=9 note=36 velocity=127 time=0
EXTRACT: note_on channel=9 note=36 velocity=127 time=0
EXTRACT: note_on channel=9 note=36 velocity=127 time=0
EXTRACT: note_on channel=9 note=49 velocity=85 time=0
EXTRACT: note_on channel=9 note=42 velocity=15 time=0
EXTRACT: note_on channel=9 note=40 velocity=75 time=0
EXTRACT: note_on channel=9 note=35 velocity=117 time=0
EXTRACT: note_off channel=9 note=35 velocity=0 time=0.027173875
EXTRACT: note_off channel=9 note=40 velocity=0 time=0
EXTRACT: note_off channel=9 note=42 velocity=0 time=0
EXTRACT: note_off channel=9 note=49 velocity=0 time=0
EXTRACT: note_off channel=4 note=61 velocity=0 time=0.027173875
EXTRACT: note_off channel=4 note=66 velocity=0 time=0
EXTRACT: note_off channel=9 note=36 velocity=64 time=0
EXTRACT: note_off channel=9 note=36 velocity=64 time=0
EXTRACT: note_off channel=9 note=36 velocity=64 time=0
EXTRACT: note_off channel=9 note=36 velocity=64 time=0
EXTRACT: note_on channel=4 note=66 velocity=75 time=0.16304325
EXTRACT: note_on channel=4 note=61 velocity=75 time=0
EXTRACT: note_on channel=9 note=40 velocity=75 time=0
EXTRACT: note_off channel=9 note=40 velocity=0 time=0.027173875
EXTRACT: note_off channel=4 note=61 velocity=0 time=0.027173875
EXTRACT: note_off channel=4 note=66 velocity=0 time=0
EXTRACT: note_on channel=9 note=40 velocity=75 time=0.05434775
EXTRACT: note_off channel=9 note=40 velocity=0 time=0.027173875
EXTRACT: note_on channel=4 note=66 velocity=75 time=0.081521625
EXTRACT: note_on channel=4 note=61 velocity=75 time=0
EXTRACT: note_on channel=9 note=36 velocity=127 time=0
EXTRACT: note_on channel=9 note=36 velocity=127 time=0
EXTRACT: note_on channel=9 note=36 velocity=127 time=0
EXTRACT: note_on channel=9 note=36 velocity=127 time=0
EXTRACT: note_on channel=9 note=40 velocity=75 time=0
EXTRACT: note_on channel=9 note=35 velocity=117 time=0
EXTRACT: note_off channel=9 note=35 velocity=0 time=0.027173875
EXTRACT: note_off channel=9 note=40 velocity=0 time=0
EXTRACT: note_off channel=4 note=61 velocity=0 time=0.027173875
EXTRACT: note_off channel=4 note=66 velocity=0 time=0
EXTRACT: note_off channel=9 note=36 velocity=64 time=0
EXTRACT: note_off channel=9 note=36 velocity=64 time=0
EXTRACT: note_off channel=9 note=36 velocity=64 time=0
EXTRACT: note_off channel=9 note=36 velocity=64 time=0
EXTRACT: note_on channel=9 note=40 velocity=75 time=0.16304325
EXTRACT: note_off channel=9 note=40 velocity=0 time=0.027173875
EXTRACT: note_on channel=4 note=66 velocity=75 time=0.081521625
EXTRACT: note_on channel=4 note=61 velocity=75 time=0
EXTRACT: note_on channel=9 note=40 velocity=75 time=0
EXTRACT: note_off channel=9 note=40 velocity=0 time=0.027173875
EXTRACT: note_off channel=4 note=61 velocity=0 time=0.027173875
EXTRACT: note_off channel=4 note=66 velocity=0 time=0
EXTRACT: note_on channel=4 note=66 velocity=75 time=0.05434775
EXTRACT: note_on channel=4 note=61 velocity=75 time=0
EXTRACT: note_on channel=9 note=36 velocity=127 time=0
EXTRACT: note_on channel=9 note=36 velocity=127 time=0
EXTRACT: note_on channel=9 note=36 velocity=127 time=0
EXTRACT: note_on channel=9 note=36 velocity=127 time=0
EXTRACT: note_on channel=9 note=40 velocity=75 time=0
EXTRACT: note_on channel=9 note=35 velocity=117 time=0
EXTRACT: note_off channel=9 note=35 velocity=0 time=0.027173875
EXTRACT: note_off channel=9 note=40 velocity=0 time=0
EXTRACT: note_off channel=4 note=61 velocity=0 time=0.027173875
EXTRACT: note_off channel=4 note=66 velocity=0 time=0
EXTRACT: note_off channel=9 note=36 velocity=64 time=0
EXTRACT: note_off channel=9 note=36 velocity=64 time=0
EXTRACT: note_off channel=9 note=36 velocity=64 time=0
EXTRACT: note_off channel=9 note=36 velocity=64 time=0
EXTRACT: note_on channel=4 note=66 velocity=75 time=0.16304325
EXTRACT: note_on channel=4 note=61 velocity=75 time=0
EXTRACT: note_on channel=9 note=40 velocity=75 time=0
EXTRACT: note_off channel=9 note=40 velocity=0 time=0.027173875
EXTRACT: note_off channel=4 note=61 velocity=0 time=0.027173875
EXTRACT: note_off channel=4 note=66 velocity=0 time=0
EXTRACT: note_on channel=4 note=66 velocity=75 time=0.16304325
EXTRACT: note_on channel=4 note=61 velocity=75 time=0
EXTRACT: note_on channel=9 note=36 velocity=127 time=0
EXTRACT: note_on channel=9 note=36 velocity=127 time=0
EXTRACT: note_on channel=9 note=36 velocity=127 time=0
EXTRACT: note_on channel=9 note=36 velocity=127 time=0
EXTRACT: note_on channel=9 note=40 velocity=75 time=0
EXTRACT: note_on channel=9 note=35 velocity=117 time=0
EXTRACT: note_off channel=9 note=35 velocity=0 time=0.027173875
EXTRACT: note_off channel=9 note=40 velocity=0 time=0
EXTRACT: note_off channel=4 note=61 velocity=0 time=0.027173875
EXTRACT: note_off channel=4 note=66 velocity=0 time=0
EXTRACT: note_off channel=9 note=36 velocity=64 time=0
EXTRACT: note_off channel=9 note=36 velocity=64 time=0
EXTRACT: note_off channel=9 note=36 velocity=64 time=0
EXTRACT: note_off channel=9 note=36 velocity=64 time=0
EXTRACT: note_on channel=9 note=40 velocity=75 time=0.16304325
EXTRACT: note_off channel=9 note=40 velocity=0 time=0.027173875
EXTRACT: note_on channel=9 note=40 velocity=75 time=0.081521625
EXTRACT: note_off channel=9 note=40 velocity=0 time=0.027173875
EXTRACT: note_on channel=4 note=66 velocity=75 time=0.081521625
EXTRACT: note_on channel=4 note=61 velocity=75 time=0
EXTRACT: note_on channel=9 note=36 velocity=127 time=0
EXTRACT: note_on channel=9 note=36 velocity=127 time=0
EXTRACT: note_on channel=9 note=36 velocity=127 time=0
EXTRACT: note_on channel=9 note=36 velocity=127 time=0
EXTRACT: note_on channel=9 note=40 velocity=75 time=0
EXTRACT: note_on channel=9 note=35 velocity=117 time=0
EXTRACT: note_off channel=9 note=35 velocity=0 time=0.027173875
EXTRACT: note_off channel=9 note=40 velocity=0 time=0
EXTRACT: note_off channel=4 note=61 velocity=0 time=0.027173875
EXTRACT: note_off channel=4 note=66 velocity=0 time=0
EXTRACT: note_off channel=9 note=36 velocity=64 time=0
EXTRACT: note_off channel=9 note=36 velocity=64 time=0
EXTRACT: note_off channel=9 note=36 velocity=64 time=0
EXTRACT: note_off channel=9 note=36 velocity=64 time=0
EXTRACT: note_on channel=4 note=66 velocity=75 time=0.16304325
EXTRACT: note_on channel=4 note=61 velocity=75 time=0
EXTRACT: note_on channel=9 note=40 velocity=75 time=0
EXTRACT: note_off channel=9 note=40 velocity=0 time=0.027173875
EXTRACT: note_off channel=4 note=61 velocity=0 time=0.027173875
EXTRACT: note_off channel=4 note=66 velocity=0 time=0
EXTRACT: note_on channel=9 note=40 velocity=75 time=0.05434775
EXTRACT: note_off channel=9 note=40 velocity=0 time=0.027173875
EXTRACT: note_on channel=4 note=66 velocity=75 time=0.081521625
EXTRACT: note_on channel=4 note=61 velocity=75 time=0
EXTRACT: note_on channel=9 note=36 velocity=127 time=0
EXTRACT: note_on channel=9 note=36 velocity=127 time=0
EXTRACT: note_on channel=9 note=36 velocity=127 time=0
EXTRACT: note_on channel=9 note=36 velocity=127 time=0
EXTRACT: note_on channel=9 note=40 velocity=75 time=0
EXTRACT: note_on channel=9 note=35 velocity=117 time=0
EXTRACT: note_off channel=9 note=35 velocity=0 time=0.027173875
EXTRACT: note_off channel=9 note=40 velocity=0 time=0
EXTRACT: note_off channel=4 note=61 velocity=0 time=0.027173875
EXTRACT: note_off channel=4 note=66 velocity=0 time=0
EXTRACT: note_off channel=9 note=36 velocity=64 time=0
EXTRACT: note_off channel=9 note=36 velocity=64 time=0
EXTRACT: note_off channel=9 note=36 velocity=64 time=0
EXTRACT: note_off channel=9 note=36 velocity=64 time=0
EXTRACT: note_on channel=9 note=40 velocity=75 time=0.05434775
EXTRACT: note_off channel=9 note=40 velocity=0 time=0.027173875
EXTRACT: note_on channel=9 note=40 velocity=75 time=0.081521625
EXTRACT: note_off channel=9 note=40 velocity=0 time=0.027173875
EXTRACT: note_on channel=4 note=66 velocity=75 time=0.081521625
EXTRACT: note_on channel=4 note=61 velocity=75 time=0
EXTRACT: note_on channel=9 note=40 velocity=75 time=0
EXTRACT: note_off channel=9 note=40 velocity=0 time=0.027173875
EXTRACT: note_off channel=4 note=61 velocity=0 time=0.027173875
EXTRACT: note_off channel=4 note=66 velocity=0 time=0
EXTRACT: note_on channel=4 note=64 velocity=75 time=0.05434775
EXTRACT: note_on channel=4 note=59 velocity=75 time=0
EXTRACT: note_on channel=9 note=36 velocity=127 time=0
EXTRACT: note_on channel=9 note=36 velocity=127 time=0
EXTRACT: note_on channel=9 note=36 velocity=127 time=0
EXTRACT: note_on channel=9 note=36 velocity=127 time=0
EXTRACT: note_on channel=9 note=40 velocity=75 time=0
EXTRACT: note_on channel=9 note=35 velocity=117 time=0
EXTRACT: note_off channel=9 note=35 velocity=0 time=0.027173875
EXTRACT: note_off channel=9 note=40 velocity=0 time=0
EXTRACT: note_off channel=4 note=59 velocity=0 time=0.027173875
EXTRACT: note_off channel=4 note=64 velocity=0 time=0
EXTRACT: note_off channel=9 note=36 velocity=64 time=0
EXTRACT: note_off channel=9 note=36 velocity=64 time=0
EXTRACT: note_off channel=9 note=36 velocity=64 time=0
EXTRACT: note_off channel=9 note=36 velocity=64 time=0
EXTRACT: note_on channel=4 note=64 velocity=75 time=0.16304325
EXTRACT: note_on channel=4 note=59 velocity=75 time=0
EXTRACT: note_on channel=9 note=40 velocity=75 time=0
EXTRACT: note_off channel=9 note=40 velocity=0 time=0.027173875
EXTRACT: note_off channel=4 note=59 velocity=0 time=0.027173875
EXTRACT: note_off channel=4 note=64 velocity=0 time=0
EXTRACT: note_on channel=4 note=64 velocity=75 time=0.16304325
EXTRACT: note_on channel=4 note=59 velocity=75 time=0
EXTRACT: note_on channel=9 note=36 velocity=127 time=0
EXTRACT: note_on channel=9 note=36 velocity=127 time=0
EXTRACT: note_on channel=9 note=36 velocity=127 time=0
EXTRACT: note_on channel=9 note=36 velocity=127 time=0
EXTRACT: note_on channel=9 note=40 velocity=75 time=0
EXTRACT: note_on channel=9 note=35 velocity=117 time=0
EXTRACT: note_off channel=9 note=35 velocity=0 time=0.027173875
EXTRACT: note_off channel=9 note=40 velocity=0 time=0
EXTRACT: note_off channel=4 note=59 velocity=0 time=0.027173875
EXTRACT: note_off channel=4 note=64 velocity=0 time=0
EXTRACT: note_off channel=9 note=36 velocity=64 time=0
EXTRACT: note_off channel=9 note=36 velocity=64 time=0
EXTRACT: note_off channel=9 note=36 velocity=64 time=0
EXTRACT: note_off channel=9 note=36 velocity=64 time=0
EXTRACT: note_on channel=9 note=40 velocity=75 time=0.16304325
EXTRACT: note_off channel=9 note=40 velocity=0 time=0.027173875
EXTRACT: note_on channel=9 note=40 velocity=75 time=0.081521625
EXTRACT: note_off channel=9 note=40 velocity=0 time=0.027173875
EXTRACT: note_on channel=4 note=66 velocity=75 time=0.081521625
EXTRACT: note_on channel=4 note=61 velocity=75 time=0
EXTRACT: note_on channel=9 note=36 velocity=127 time=0
EXTRACT: note_on channel=9 note=36 velocity=127 time=0
EXTRACT: note_on channel=9 note=36 velocity=127 time=0
EXTRACT: note_on channel=9 note=36 velocity=127 time=0
EXTRACT: note_on channel=9 note=40 velocity=75 time=0
EXTRACT: note_on channel=9 note=35 velocity=117 time=0
EXTRACT: note_off channel=9 note=35 velocity=0 time=0.027173875
EXTRACT: note_off channel=9 note=40 velocity=0 time=0
EXTRACT: note_off channel=4 note=61 velocity=0 time=0.027173875
EXTRACT: note_off channel=4 note=66 velocity=0 time=0
EXTRACT: note_off channel=9 note=36 velocity=64 time=0
EXTRACT: note_off channel=9 note=36 velocity=64 time=0
EXTRACT: note_off channel=9 note=36 velocity=64 time=0
EXTRACT: note_off channel=9 note=36 velocity=64 time=0
EXTRACT: note_on channel=4 note=66 velocity=75 time=0.16304325
EXTRACT: note_on channel=4 note=61 velocity=75 time=0
EXTRACT: note_on channel=9 note=40 velocity=75 time=0
EXTRACT: note_off channel=9 note=40 velocity=0 time=0.027173875
EXTRACT: note_off channel=4 note=61 velocity=0 time=0.027173875
EXTRACT: note_off channel=4 note=66 velocity=0 time=0
EXTRACT: note_on channel=9 note=40 velocity=75 time=0.05434775
EXTRACT: note_off channel=9 note=40 velocity=0 time=0.027173875
EXTRACT: note_on channel=4 note=66 velocity=75 time=0.081521625
EXTRACT: note_on channel=4 note=61 velocity=75 time=0
EXTRACT: note_on channel=9 note=36 velocity=127 time=0
EXTRACT: note_on channel=9 note=36 velocity=127 time=0
EXTRACT: note_on channel=9 note=36 velocity=127 time=0
EXTRACT: note_on channel=9 note=36 velocity=127 time=0
EXTRACT: note_on channel=9 note=40 velocity=75 time=0
EXTRACT: note_on channel=9 note=35 velocity=117 time=0
EXTRACT: note_off channel=9 note=35 velocity=0 time=0.027173875
EXTRACT: note_off channel=9 note=40 velocity=0 time=0
EXTRACT: note_off channel=4 note=61 velocity=0 time=0.027173875
EXTRACT: note_off channel=4 note=66 velocity=0 time=0
EXTRACT: note_off channel=9 note=36 velocity=64 time=0
EXTRACT: note_off channel=9 note=36 velocity=64 time=0
EXTRACT: note_off channel=9 note=36 velocity=64 time=0
EXTRACT: note_off channel=9 note=36 velocity=64 time=0
EXTRACT: note_on channel=9 note=40 velocity=75 time=0.16304325
EXTRACT: note_off channel=9 note=40 velocity=0 time=0.027173875
EXTRACT: note_on channel=4 note=66 velocity=75 time=0.081521625
EXTRACT: note_on channel=4 note=61 velocity=75 time=0
EXTRACT: note_on channel=9 note=40 velocity=75 time=0
EXTRACT: note_off channel=9 note=40 velocity=0 time=0.027173875
EXTRACT: note_off channel=4 note=61 velocity=0 time=0.027173875
EXTRACT: note_off channel=4 note=66 velocity=0 time=0
EXTRACT: note_on channel=4 note=66 velocity=75 time=0.05434775
EXTRACT: note_on channel=4 note=61 velocity=75 time=0
EXTRACT: note_on channel=9 note=36 velocity=127 time=0
EXTRACT: note_on channel=9 note=36 velocity=127 time=0
EXTRACT: note_on channel=9 note=36 velocity=127 time=0
EXTRACT: note_on channel=9 note=36 velocity=127 time=0
EXTRACT: note_on channel=9 note=40 velocity=75 time=0
EXTRACT: note_on channel=9 note=35 velocity=117 time=0
EXTRACT: note_off channel=9 note=35 velocity=0 time=0.027173875
EXTRACT: note_off channel=9 note=40 velocity=0 time=0
EXTRACT: note_off channel=4 note=61 velocity=0 time=0.027173875
EXTRACT: note_off channel=4 note=66 velocity=0 time=0
EXTRACT: note_off channel=9 note=36 velocity=64 time=0
EXTRACT: note_off channel=9 note=36 velocity=64 time=0
EXTRACT: note_off channel=9 note=36 velocity=64 time=0
EXTRACT: note_off channel=9 note=36 velocity=64 time=0
EXTRACT: note_on channel=4 note=66 velocity=75 time=0.16304325
EXTRACT: note_on channel=4 note=61 velocity=75 time=0
EXTRACT: note_on channel=9 note=40 velocity=75 time=0
EXTRACT: note_off channel=9 note=40 velocity=0 time=0.027173875
EXTRACT: note_off channel=4 note=61 velocity=0 time=0.027173875
EXTRACT: note_off channel=4 note=66 velocity=0 time=0
EXTRACT: note_on channel=4 note=66 velocity=75 time=0.16304325
EXTRACT: note_on channel=4 note=61 velocity=75 time=0
EXTRACT: note_on channel=9 note=36 velocity=127 time=0
EXTRACT: note_on channel=9 note=36 velocity=127 time=0
EXTRACT: note_on channel=9 note=36 velocity=127 time=0
EXTRACT: note_on channel=9 note=36 velocity=127 time=0
EXTRACT: note_on channel=9 note=40 velocity=75 time=0
EXTRACT: note_on channel=9 note=35 velocity=117 time=0
EXTRACT: note_off channel=9 note=35 velocity=0 time=0.027173875
EXTRACT: note_off channel=9 note=40 velocity=0 time=0
EXTRACT: note_off channel=4 note=61 velocity=0 time=0.027173875
EXTRACT: note_off channel=4 note=66 velocity=0 time=0
EXTRACT: note_off channel=9 note=36 velocity=64 time=0
EXTRACT: note_off channel=9 note=36 velocity=64 time=0
EXTRACT: note_off channel=9 note=36 velocity=64 time=0
EXTRACT: note_off channel=9 note=36 velocity=64 time=0
EXTRACT: note_on channel=9 note=40 velocity=75 time=0.16304325
EXTRACT: note_off channel=9 note=40 velocity=0 time=0.027173875
EXTRACT: note_on channel=9 note=40 velocity=75 time=0.081521625
EXTRACT: note_off channel=9 note=40 velocity=0 time=0.027173875
EXTRACT: note_on channel=4 note=66 velocity=75 time=0.081521625
EXTRACT: note_on channel=4 note=61 velocity=75 time=0
EXTRACT: note_on channel=9 note=36 velocity=127 time=0
EXTRACT: note_on channel=9 note=36 velocity=127 time=0
EXTRACT: note_on channel=9 note=36 velocity=127 time=0
EXTRACT: note_on channel=9 note=36 velocity=127 time=0
EXTRACT: note_on channel=9 note=40 velocity=75 time=0
EXTRACT: note_on channel=9 note=35 velocity=117 time=0
EXTRACT: note_off channel=9 note=35 velocity=0 time=0.027173875
EXTRACT: note_off channel=9 note=40 velocity=0 time=0
EXTRACT: note_off channel=4 note=61 velocity=0 time=0.027173875
EXTRACT: note_off channel=4 note=66 velocity=0 time=0
EXTRACT: note_off channel=9 note=36 velocity=64 time=0
EXTRACT: note_off channel=9 note=36 velocity=64 time=0
EXTRACT: note_off channel=9 note=36 velocity=64 time=0
EXTRACT: note_off channel=9 note=36 velocity=64 time=0
EXTRACT: note_on channel=4 note=66 velocity=75 time=0.16304325
EXTRACT: note_on channel=4 note=61 velocity=75 time=0
EXTRACT: note_on channel=9 note=40 velocity=75 time=0
EXTRACT: note_off channel=9 note=40 velocity=0 time=0.027173875
EXTRACT: note_off channel=4 note=61 velocity=0 time=0.027173875
EXTRACT: note_off channel=4 note=66 velocity=0 time=0
EXTRACT: note_on channel=9 note=40 velocity=75 time=0.05434775
EXTRACT: note_off channel=9 note=40 velocity=0 time=0.027173875
EXTRACT: note_on channel=4 note=66 velocity=75 time=0.081521625
EXTRACT: note_on channel=4 note=61 velocity=75 time=0
EXTRACT: note_on channel=9 note=36 velocity=127 time=0
EXTRACT: note_on channel=9 note=36 velocity=127 time=0
EXTRACT: note_on channel=9 note=36 velocity=127 time=0
EXTRACT: note_on channel=9 note=36 velocity=127 time=0
EXTRACT: note_on channel=9 note=40 velocity=75 time=0
EXTRACT: note_on channel=9 note=35 velocity=117 time=0
EXTRACT: note_off channel=9 note=35 velocity=0 time=0.027173875
EXTRACT: note_off channel=9 note=40 velocity=0 time=0
EXTRACT: note_off channel=4 note=61 velocity=0 time=0.027173875
EXTRACT: note_off channel=4 note=66 velocity=0 time=0
EXTRACT: note_off channel=9 note=36 velocity=64 time=0
EXTRACT: note_off channel=9 note=36 velocity=64 time=0
EXTRACT: note_off channel=9 note=36 velocity=64 time=0
EXTRACT: note_off channel=9 note=36 velocity=64 time=0
EXTRACT: note_on channel=9 note=40 velocity=75 time=0.05434775
EXTRACT: note_off channel=9 note=40 velocity=0 time=0.027173875
EXTRACT: note_on channel=9 note=40 velocity=75 time=0.081521625
EXTRACT: note_off channel=9 note=40 velocity=0 time=0.027173875
EXTRACT: note_on channel=4 note=66 velocity=75 time=0.081521625
EXTRACT: note_on channel=4 note=61 velocity=75 time=0
EXTRACT: note_on channel=9 note=40 velocity=75 time=0
EXTRACT: note_off channel=9 note=40 velocity=0 time=0.027173875
EXTRACT: note_off channel=4 note=61 velocity=0 time=0.027173875
EXTRACT: note_off channel=4 note=66 velocity=0 time=0
EXTRACT: note_on channel=4 note=66 velocity=75 time=0.05434775
EXTRACT: note_on channel=4 note=61 velocity=75 time=0
EXTRACT: note_on channel=9 note=36 velocity=127 time=0
EXTRACT: note_on channel=9 note=36 velocity=127 time=0
EXTRACT: note_on channel=9 note=36 velocity=127 time=0
EXTRACT: note_on channel=9 note=36 velocity=127 time=0
EXTRACT: note_on channel=9 note=40 velocity=75 time=0
EXTRACT: note_on channel=9 note=35 velocity=117 time=0
EXTRACT: note_off channel=9 note=35 velocity=0 time=0.027173875
EXTRACT: note_off channel=9 note=40 velocity=0 time=0
EXTRACT: note_off channel=4 note=61 velocity=0 time=0.027173875
EXTRACT: note_off channel=4 note=66 velocity=0 time=0
EXTRACT: note_off channel=9 note=36 velocity=64 time=0
EXTRACT: note_off channel=9 note=36 velocity=64 time=0
EXTRACT: note_off channel=9 note=36 velocity=64 time=0
EXTRACT: note_off channel=9 note=36 velocity=64 time=0
EXTRACT: note_on channel=4 note=66 velocity=75 time=0.16304325
EXTRACT: note_on channel=4 note=61 velocity=75 time=0
EXTRACT: note_on channel=9 note=40 velocity=75 time=0
EXTRACT: note_off channel=9 note=40 velocity=0 time=0.027173875
EXTRACT: note_off channel=4 note=61 velocity=0 time=0.027173875
EXTRACT: note_off channel=4 note=66 velocity=0 time=0
EXTRACT: note_on channel=4 note=66 velocity=75 time=0.16304325
EXTRACT: note_on channel=4 note=61 velocity=75 time=0
EXTRACT: note_on channel=6 note=65 velocity=115 time=0
EXTRACT: note_on channel=9 note=36 velocity=127 time=0
EXTRACT: note_on channel=9 note=36 velocity=127 time=0
EXTRACT: note_on channel=9 note=36 velocity=127 time=0
EXTRACT: note_on channel=9 note=36 velocity=127 time=0
EXTRACT: note_on channel=9 note=40 velocity=75 time=0
EXTRACT: note_on channel=9 note=35 velocity=117 time=0
EXTRACT: note_off channel=9 note=35 velocity=0 time=0.027173875
EXTRACT: note_off channel=9 note=40 velocity=0 time=0
EXTRACT: note_off channel=4 note=61 velocity=0 time=0.027173875
EXTRACT: note_off channel=4 note=66 velocity=0 time=0
EXTRACT: note_off channel=9 note=36 velocity=64 time=0
EXTRACT: note_off channel=9 note=36 velocity=64 time=0
EXTRACT: note_off channel=9 note=36 velocity=64 time=0
EXTRACT: note_off channel=9 note=36 velocity=64 time=0
EXTRACT: note_off channel=2 note=102 velocity=64 time=0.16757222916666667
EXTRACT: note_off channel=2 note=90 velocity=64 time=0.01811591666666667
EXTRACT: note_on channel=4 note=66 velocity=75 time=0.19474610416666668
EXTRACT: note_on channel=4 note=61 velocity=75 time=0
EXTRACT: note_on channel=8 note=54 velocity=127 time=0
EXTRACT: note_on channel=9 note=36 velocity=127 time=0
EXTRACT: note_on channel=9 note=36 velocity=127 time=0
EXTRACT: note_on channel=9 note=36 velocity=127 time=0
EXTRACT: note_on channel=9 note=36 velocity=127 time=0
EXTRACT: note_on channel=9 note=49 velocity=85 time=0
EXTRACT: note_on channel=9 note=40 velocity=75 time=0
EXTRACT: note_on channel=9 note=35 velocity=117 time=0
EXTRACT: note_off channel=9 note=35 velocity=0 time=0.027173875
EXTRACT: note_off channel=9 note=40 velocity=0 time=0
EXTRACT: note_off channel=9 note=49 velocity=0 time=0
EXTRACT: note_off channel=4 note=61 velocity=0 time=0.027173875
EXTRACT: note_off channel=4 note=66 velocity=0 time=0
EXTRACT: note_off channel=9 note=36 velocity=64 time=0
EXTRACT: note_off channel=9 note=36 velocity=64 time=0
EXTRACT: note_off channel=9 note=36 velocity=64 time=0
EXTRACT: note_off channel=9 note=36 velocity=64 time=0
EXTRACT: note_off channel=6 note=65 velocity=64 time=0.004528979166666667
EXTRACT: note_off channel=8 note=54 velocity=0 time=0.04981877083333334
EXTRACT: note_on channel=4 note=66 velocity=75 time=0.1086955
EXTRACT: note_on channel=4 note=61 velocity=75 time=0
EXTRACT: note_on channel=8 note=66 velocity=127 time=0
EXTRACT: note_on channel=9 note=46 velocity=105 time=0
EXTRACT: note_on channel=9 note=40 velocity=75 time=0
EXTRACT: note_off channel=9 note=40 velocity=0 time=0.027173875
EXTRACT: note_off channel=9 note=46 velocity=0 time=0
EXTRACT: note_off channel=4 note=61 velocity=0 time=0.027173875
EXTRACT: note_off channel=4 note=66 velocity=0 time=0
EXTRACT: note_off channel=8 note=66 velocity=0 time=0.05434775
EXTRACT: note_on channel=9 note=40 velocity=75 time=0
EXTRACT: note_off channel=9 note=40 velocity=0 time=0.027173875
EXTRACT: note_on channel=4 note=66 velocity=75 time=0.081521625
EXTRACT: note_on channel=4 note=61 velocity=75 time=0
EXTRACT: note_on channel=8 note=54 velocity=127 time=0
EXTRACT: note_on channel=9 note=28 velocity=127 time=0
EXTRACT: note_on channel=9 note=36 velocity=127 time=0
EXTRACT: note_on channel=9 note=36 velocity=127 time=0
EXTRACT: note_on channel=9 note=36 velocity=127 time=0
EXTRACT: note_on channel=9 note=36 velocity=127 time=0
EXTRACT: note_on channel=9 note=42 velocity=15 time=0
EXTRACT: note_on channel=9 note=40 velocity=75 time=0
EXTRACT: note_on channel=9 note=39 velocity=105 time=0
EXTRACT: note_on channel=9 note=35 velocity=117 time=0
EXTRACT: note_off channel=9 note=35 velocity=0 time=0.027173875
EXTRACT: note_off channel=9 note=39 velocity=0 time=0
EXTRACT: note_off channel=9 note=40 velocity=0 time=0
EXTRACT: note_off channel=9 note=42 velocity=0 time=0
EXTRACT: note_off channel=4 note=61 velocity=0 time=0.027173875
EXTRACT: note_off channel=4 note=66 velocity=0 time=0
EXTRACT: note_off channel=9 note=36 velocity=64 time=0
EXTRACT: note_off channel=9 note=36 velocity=64 time=0
EXTRACT: note_off channel=9 note=36 velocity=64 time=0
EXTRACT: note_off channel=9 note=36 velocity=64 time=0
EXTRACT: note_off channel=8 note=54 velocity=0 time=0.05434775
EXTRACT: note_on channel=8 note=66 velocity=127 time=0.1086955
EXTRACT: note_on channel=9 note=46 velocity=105 time=0
EXTRACT: note_on channel=9 note=40 velocity=75 time=0
EXTRACT: note_off channel=9 note=40 velocity=0 time=0.027173875
EXTRACT: note_off channel=9 note=46 velocity=0 time=0
EXTRACT: note_on channel=4 note=66 velocity=75 time=0.081521625
EXTRACT: note_on channel=4 note=61 velocity=75 time=0
EXTRACT: note_off channel=8 note=66 velocity=0 time=0
EXTRACT: note_on channel=9 note=40 velocity=75 time=0
EXTRACT: note_off channel=9 note=40 velocity=0 time=0.027173875
EXTRACT: note_off channel=4 note=61 velocity=0 time=0.027173875
EXTRACT: note_off channel=4 note=66 velocity=0 time=0
EXTRACT: note_off channel=9 note=28 velocity=0 time=0.0407608125
EXTRACT: note_on channel=4 note=66 velocity=75 time=0.0135869375
EXTRACT: note_on channel=4 note=61 velocity=75 time=0
EXTRACT: note_on channel=8 note=54 velocity=127 time=0
EXTRACT: note_on channel=9 note=36 velocity=127 time=0
EXTRACT: note_on channel=9 note=36 velocity=127 time=0
EXTRACT: note_on channel=9 note=36 velocity=127 time=0
EXTRACT: note_on channel=9 note=36 velocity=127 time=0
EXTRACT: note_on channel=9 note=42 velocity=15 time=0
EXTRACT: note_on channel=9 note=40 velocity=75 time=0
EXTRACT: note_on channel=9 note=35 velocity=117 time=0
EXTRACT: note_off channel=9 note=35 velocity=0 time=0.027173875
EXTRACT: note_off channel=9 note=40 velocity=0 time=0
EXTRACT: note_off channel=9 note=42 velocity=0 time=0
EXTRACT: note_off channel=4 note=61 velocity=0 time=0.027173875
EXTRACT: note_off channel=4 note=66 velocity=0 time=0
EXTRACT: note_off channel=9 note=36 velocity=64 time=0
EXTRACT: note_off channel=9 note=36 velocity=64 time=0
EXTRACT: note_off channel=9 note=36 velocity=64 time=0
EXTRACT: note_off channel=9 note=36 velocity=64 time=0
EXTRACT: note_off channel=8 note=54 velocity=0 time=0.05434775
EXTRACT: note_on channel=4 note=66 velocity=75 time=0.1086955
EXTRACT: note_on channel=4 note=61 velocity=75 time=0
EXTRACT: note_on channel=8 note=66 velocity=127 time=0
EXTRACT: note_on channel=9 note=46 velocity=105 time=0
EXTRACT: note_on channel=9 note=40 velocity=75 time=0
EXTRACT: note_off channel=9 note=40 velocity=0 time=0.027173875
EXTRACT: note_off channel=9 note=46 velocity=0 time=0
EXTRACT: note_off channel=4 note=61 velocity=0 time=0.027173875
EXTRACT: note_off channel=4 note=66 velocity=0 time=0
EXTRACT: note_off channel=8 note=66 velocity=0 time=0.05434775
EXTRACT: note_on channel=9 note=36 velocity=127 time=0
EXTRACT: note_on channel=9 note=36 velocity=127 time=0
EXTRACT: note_on channel=9 note=36 velocity=127 time=0
EXTRACT: note_on channel=9 note=36 velocity=127 time=0
EXTRACT: note_off channel=9 note=36 velocity=64 time=0.05434775
EXTRACT: note_off channel=9 note=36 velocity=64 time=0
EXTRACT: note_off channel=9 note=36 velocity=64 time=0
EXTRACT: note_off channel=9 note=36 velocity=64 time=0
EXTRACT: note_on channel=4 note=66 velocity=75 time=0.05434775
EXTRACT: note_on channel=4 note=61 velocity=75 time=0
EXTRACT: note_on channel=8 note=54 velocity=127 time=0
EXTRACT: note_on channel=9 note=28 velocity=127 time=0
EXTRACT: note_on channel=9 note=36 velocity=127 time=0
EXTRACT: note_on channel=9 note=36 velocity=127 time=0
EXTRACT: note_on channel=9 note=36 velocity=127 time=0
EXTRACT: note_on channel=9 note=36 velocity=127 time=0
EXTRACT: note_on channel=9 note=42 velocity=15 time=0
EXTRACT: note_on channel=9 note=40 velocity=75 time=0
EXTRACT: note_on channel=9 note=39 velocity=105 time=0
EXTRACT: note_on channel=9 note=35 velocity=117 time=0
EXTRACT: note_off channel=9 note=35 velocity=0 time=0.027173875
EXTRACT: note_off channel=9 note=39 velocity=0 time=0
EXTRACT: note_off channel=9 note=40 velocity=0 time=0
EXTRACT: note_off channel=9 note=42 velocity=0 time=0
EXTRACT: note_off channel=4 note=61 velocity=0 time=0.027173875
EXTRACT: note_off channel=4 note=66 velocity=0 time=0
EXTRACT: note_off channel=9 note=36 velocity=64 time=0
EXTRACT: note_off channel=9 note=36 velocity=64 time=0
EXTRACT: note_off channel=9 note=36 velocity=64 time=0
EXTRACT: note_off channel=9 note=36 velocity=64 time=0
EXTRACT: note_off channel=8 note=54 velocity=0 time=0.05434775
EXTRACT: note_on channel=8 note=66 velocity=127 time=0.1086955
EXTRACT: note_on channel=9 note=36 velocity=127 time=0
EXTRACT: note_on channel=9 note=36 velocity=127 time=0
EXTRACT: note_on channel=9 note=36 velocity=127 time=0
EXTRACT: note_on channel=9 note=36 velocity=127 time=0
EXTRACT: note_on channel=9 note=46 velocity=105 time=0
EXTRACT: note_on channel=9 note=40 velocity=75 time=0
EXTRACT: note_off channel=9 note=40 velocity=0 time=0.027173875
EXTRACT: note_off channel=9 note=46 velocity=0 time=0
EXTRACT: note_off channel=9 note=36 velocity=64 time=0.027173875
EXTRACT: note_off channel=9 note=36 velocity=64 time=0
EXTRACT: note_off channel=9 note=36 velocity=64 time=0
EXTRACT: note_off channel=9 note=36 velocity=64 time=0
EXTRACT: note_off channel=8 note=66 velocity=0 time=0.05434775
EXTRACT: note_on channel=9 note=40 velocity=75 time=0
EXTRACT: note_off channel=9 note=40 velocity=0 time=0.027173875
EXTRACT: note_off channel=9 note=28 velocity=0 time=0.06793468750000001
EXTRACT: note_on channel=4 note=66 velocity=75 time=0.0135869375
EXTRACT: note_on channel=4 note=61 velocity=75 time=0
EXTRACT: note_on channel=8 note=54 velocity=127 time=0
EXTRACT: note_on channel=9 note=36 velocity=127 time=0
EXTRACT: note_on channel=9 note=36 velocity=127 time=0
EXTRACT: note_on channel=9 note=36 velocity=127 time=0
EXTRACT: note_on channel=9 note=36 velocity=127 time=0
EXTRACT: note_on channel=9 note=42 velocity=15 time=0
EXTRACT: note_on channel=9 note=40 velocity=75 time=0
EXTRACT: note_on channel=9 note=35 velocity=117 time=0
EXTRACT: note_off channel=9 note=35 velocity=0 time=0.027173875
EXTRACT: note_off channel=9 note=40 velocity=0 time=0
EXTRACT: note_off channel=9 note=42 velocity=0 time=0
EXTRACT: note_off channel=4 note=61 velocity=0 time=0.027173875
EXTRACT: note_off channel=4 note=66 velocity=0 time=0
EXTRACT: note_off channel=9 note=36 velocity=64 time=0
EXTRACT: note_off channel=9 note=36 velocity=64 time=0
EXTRACT: note_off channel=9 note=36 velocity=64 time=0
EXTRACT: note_off channel=9 note=36 velocity=64 time=0
EXTRACT: note_off channel=8 note=54 velocity=0 time=0.05434775
EXTRACT: note_on channel=4 note=66 velocity=75 time=0.1086955
EXTRACT: note_on channel=4 note=61 velocity=75 time=0
EXTRACT: note_on channel=8 note=66 velocity=127 time=0
EXTRACT: note_on channel=9 note=46 velocity=105 time=0
EXTRACT: note_on channel=9 note=40 velocity=75 time=0
EXTRACT: note_off channel=9 note=40 velocity=0 time=0.027173875
EXTRACT: note_off channel=9 note=46 velocity=0 time=0
EXTRACT: note_off channel=4 note=61 velocity=0 time=0.027173875
EXTRACT: note_off channel=4 note=66 velocity=0 time=0
EXTRACT: note_off channel=8 note=66 velocity=0 time=0.05434775
EXTRACT: note_on channel=9 note=40 velocity=75 time=0
EXTRACT: note_off channel=9 note=40 velocity=0 time=0.027173875
EXTRACT: note_on channel=4 note=66 velocity=75 time=0.081521625
EXTRACT: note_on channel=4 note=61 velocity=75 time=0
EXTRACT: note_on channel=8 note=54 velocity=127 time=0
EXTRACT: note_on channel=9 note=28 velocity=127 time=0
EXTRACT: note_on channel=9 note=36 velocity=127 time=0
EXTRACT: note_on channel=9 note=36 velocity=127 time=0
EXTRACT: note_on channel=9 note=36 velocity=127 time=0
EXTRACT: note_on channel=9 note=36 velocity=127 time=0
EXTRACT: note_on channel=9 note=42 velocity=15 time=0
EXTRACT: note_on channel=9 note=40 velocity=75 time=0
EXTRACT: note_on channel=9 note=39 velocity=105 time=0
EXTRACT: note_on channel=9 note=35 velocity=117 time=0
EXTRACT: note_off channel=9 note=35 velocity=0 time=0.027173875
EXTRACT: note_off channel=9 note=39 velocity=0 time=0
EXTRACT: note_off channel=9 note=40 velocity=0 time=0
EXTRACT: note_off channel=9 note=42 velocity=0 time=0
EXTRACT: note_off channel=4 note=61 velocity=0 time=0.027173875
EXTRACT: note_off channel=4 note=66 velocity=0 time=0
EXTRACT: note_off channel=9 note=36 velocity=64 time=0
EXTRACT: note_off channel=9 note=36 velocity=64 time=0
EXTRACT: note_off channel=9 note=36 velocity=64 time=0
EXTRACT: note_off channel=9 note=36 velocity=64 time=0
EXTRACT: note_off channel=8 note=54 velocity=0 time=0.05434775
EXTRACT: note_on channel=9 note=40 velocity=75 time=0
EXTRACT: note_off channel=9 note=40 velocity=0 time=0.027173875
EXTRACT: note_on channel=8 note=66 velocity=127 time=0.081521625
EXTRACT: note_on channel=9 note=46 velocity=105 time=0
EXTRACT: note_on channel=9 note=40 velocity=75 time=0
EXTRACT: note_off channel=9 note=40 velocity=0 time=0.027173875
EXTRACT: note_off channel=9 note=46 velocity=0 time=0
EXTRACT: note_on channel=4 note=66 velocity=75 time=0.081521625
EXTRACT: note_on channel=4 note=61 velocity=75 time=0
EXTRACT: note_off channel=8 note=66 velocity=0 time=0
EXTRACT: note_on channel=9 note=40 velocity=75 time=0
EXTRACT: note_off channel=9 note=40 velocity=0 time=0.027173875
EXTRACT: note_off channel=4 note=61 velocity=0 time=0.027173875
EXTRACT: note_off channel=4 note=66 velocity=0 time=0
EXTRACT: note_off channel=9 note=28 velocity=0 time=0.0407608125
EXTRACT: note_on channel=4 note=64 velocity=75 time=0.0135869375
EXTRACT: note_on channel=4 note=59 velocity=75 time=0
EXTRACT: note_on channel=8 note=52 velocity=127 time=0
EXTRACT: note_on channel=9 note=36 velocity=127 time=0
EXTRACT: note_on channel=9 note=36 velocity=127 time=0
EXTRACT: note_on channel=9 note=36 velocity=127 time=0
EXTRACT: note_on channel=9 note=36 velocity=127 time=0
EXTRACT: note_on channel=9 note=42 velocity=15 time=0
EXTRACT: note_on channel=9 note=40 velocity=75 time=0
EXTRACT: note_on channel=9 note=35 velocity=117 time=0
EXTRACT: note_off channel=9 note=35 velocity=0 time=0.027173875
EXTRACT: note_off channel=9 note=40 velocity=0 time=0
EXTRACT: note_off channel=9 note=42 velocity=0 time=0
EXTRACT: note_off channel=4 note=59 velocity=0 time=0.027173875
EXTRACT: note_off channel=4 note=64 velocity=0 time=0
EXTRACT: note_off channel=9 note=36 velocity=64 time=0
EXTRACT: note_off channel=9 note=36 velocity=64 time=0
EXTRACT: note_off channel=9 note=36 velocity=64 time=0
EXTRACT: note_off channel=9 note=36 velocity=64 time=0
EXTRACT: note_off channel=8 note=52 velocity=0 time=0.05434775
EXTRACT: note_on channel=4 note=64 velocity=75 time=0.1086955
EXTRACT: note_on channel=4 note=59 velocity=75 time=0
EXTRACT: note_on channel=8 note=64 velocity=127 time=0
EXTRACT: note_on channel=9 note=46 velocity=105 time=0
EXTRACT: note_on channel=9 note=40 velocity=75 time=0
EXTRACT: note_on channel=9 note=39 velocity=105 time=0
EXTRACT: note_off channel=9 note=39 velocity=0 time=0.027173875
EXTRACT: note_off channel=9 note=40 velocity=0 time=0
EXTRACT: note_off channel=9 note=46 velocity=0 time=0
EXTRACT: note_off channel=4 note=59 velocity=0 time=0.027173875
EXTRACT: note_off channel=4 note=64 velocity=0 time=0
EXTRACT: note_off channel=8 note=64 velocity=0 time=0.05434775
EXTRACT: note_on channel=9 note=36 velocity=127 time=0
EXTRACT: note_on channel=9 note=36 velocity=127 time=0
EXTRACT: note_on channel=9 note=36 velocity=127 time=0
EXTRACT: note_on channel=9 note=36 velocity=127 time=0
EXTRACT: note_off channel=9 note=36 velocity=64 time=0.05434775
EXTRACT: note_off channel=9 note=36 velocity=64 time=0
EXTRACT: note_off channel=9 note=36 velocity=64 time=0
EXTRACT: note_off channel=9 note=36 velocity=64 time=0
EXTRACT: note_on channel=4 note=64 velocity=75 time=0.05434775
EXTRACT: note_on channel=4 note=59 velocity=75 time=0
EXTRACT: note_on channel=8 note=52 velocity=127 time=0
EXTRACT: note_on channel=9 note=28 velocity=127 time=0
EXTRACT: note_on channel=9 note=36 velocity=127 time=0
EXTRACT: note_on channel=9 note=36 velocity=127 time=0
EXTRACT: note_on channel=9 note=36 velocity=127 time=0
EXTRACT: note_on channel=9 note=36 velocity=127 time=0
EXTRACT: note_on channel=9 note=42 velocity=15 time=0
EXTRACT: note_on channel=9 note=40 velocity=75 time=0
EXTRACT: note_on channel=9 note=39 velocity=105 time=0
EXTRACT: note_on channel=9 note=35 velocity=117 time=0
EXTRACT: note_off channel=9 note=35 velocity=0 time=0.027173875
EXTRACT: note_off channel=9 note=39 velocity=0 time=0
EXTRACT: note_off channel=9 note=40 velocity=0 time=0
EXTRACT: note_off channel=9 note=42 velocity=0 time=0
EXTRACT: note_off channel=4 note=59 velocity=0 time=0.027173875
EXTRACT: note_off channel=4 note=64 velocity=0 time=0
EXTRACT: note_off channel=9 note=36 velocity=64 time=0
EXTRACT: note_off channel=9 note=36 velocity=64 time=0
EXTRACT: note_off channel=9 note=36 velocity=64 time=0
EXTRACT: note_off channel=9 note=36 velocity=64 time=0
EXTRACT: note_off channel=8 note=52 velocity=0 time=0.05434775
EXTRACT: note_on channel=8 note=64 velocity=127 time=0.1086955
EXTRACT: note_on channel=9 note=36 velocity=127 time=0
EXTRACT: note_on channel=9 note=36 velocity=127 time=0
EXTRACT: note_on channel=9 note=36 velocity=127 time=0
EXTRACT: note_on channel=9 note=36 velocity=127 time=0
EXTRACT: note_on channel=9 note=46 velocity=105 time=0
EXTRACT: note_on channel=9 note=40 velocity=75 time=0
EXTRACT: note_off channel=9 note=40 velocity=0 time=0.027173875
EXTRACT: note_off channel=9 note=46 velocity=0 time=0
EXTRACT: note_off channel=9 note=36 velocity=64 time=0.027173875
EXTRACT: note_off channel=9 note=36 velocity=64 time=0
EXTRACT: note_off channel=9 note=36 velocity=64 time=0
EXTRACT: note_off channel=9 note=36 velocity=64 time=0
EXTRACT: note_off channel=8 note=64 velocity=0 time=0.05434775
EXTRACT: note_on channel=9 note=40 velocity=75 time=0
EXTRACT: note_off channel=9 note=40 velocity=0 time=0.027173875
EXTRACT: note_off channel=9 note=28 velocity=0 time=0.06793468750000001
EXTRACT: note_on channel=4 note=66 velocity=75 time=0.0135869375
EXTRACT: note_on channel=4 note=61 velocity=75 time=0
EXTRACT: note_on channel=8 note=54 velocity=127 time=0
EXTRACT: note_on channel=9 note=36 velocity=127 time=0
EXTRACT: note_on channel=9 note=36 velocity=127 time=0
EXTRACT: note_on channel=9 note=36 velocity=127 time=0
EXTRACT: note_on channel=9 note=36 velocity=127 time=0
EXTRACT: note_on channel=9 note=42 velocity=15 time=0
EXTRACT: note_on channel=9 note=40 velocity=75 time=0
EXTRACT: note_on channel=9 note=35 velocity=117 time=0
EXTRACT: note_off channel=9 note=35 velocity=0 time=0.027173875
EXTRACT: note_off channel=9 note=40 velocity=0 time=0
EXTRACT: note_off channel=9 note=42 velocity=0 time=0
EXTRACT: note_off channel=4 note=61 velocity=0 time=0.027173875
EXTRACT: note_off channel=4 note=66 velocity=0 time=0
EXTRACT: note_off channel=9 note=36 velocity=64 time=0
EXTRACT: note_off channel=9 note=36 velocity=64 time=0
EXTRACT: note_off channel=9 note=36 velocity=64 time=0
EXTRACT: note_off channel=9 note=36 velocity=64 time=0
EXTRACT: note_off channel=8 note=54 velocity=0 time=0.05434775
EXTRACT: note_on channel=4 note=66 velocity=75 time=0.1086955
EXTRACT: note_on channel=4 note=61 velocity=75 time=0
EXTRACT: note_on channel=8 note=66 velocity=127 time=0
EXTRACT: note_on channel=9 note=46 velocity=105 time=0
EXTRACT: note_on channel=9 note=40 velocity=75 time=0
EXTRACT: note_off channel=9 note=40 velocity=0 time=0.027173875
EXTRACT: note_off channel=9 note=46 velocity=0 time=0
EXTRACT: note_off channel=4 note=61 velocity=0 time=0.027173875
EXTRACT: note_off channel=4 note=66 velocity=0 time=0
EXTRACT: note_off channel=8 note=66 velocity=0 time=0.05434775
EXTRACT: note_on channel=9 note=40 velocity=75 time=0
EXTRACT: note_off channel=9 note=40 velocity=0 time=0.027173875
EXTRACT: note_on channel=4 note=66 velocity=75 time=0.081521625
EXTRACT: note_on channel=4 note=61 velocity=75 time=0
EXTRACT: note_on channel=8 note=54 velocity=127 time=0
EXTRACT: note_on channel=9 note=28 velocity=127 time=0
EXTRACT: note_on channel=9 note=36 velocity=127 time=0
EXTRACT: note_on channel=9 note=36 velocity=127 time=0
EXTRACT: note_on channel=9 note=36 velocity=127 time=0
EXTRACT: note_on channel=9 note=36 velocity=127 time=0
EXTRACT: note_on channel=9 note=42 velocity=15 time=0
EXTRACT: note_on channel=9 note=40 velocity=75 time=0
EXTRACT: note_on channel=9 note=39 velocity=105 time=0
EXTRACT: note_on channel=9 note=35 velocity=117 time=0
EXTRACT: note_off channel=9 note=35 velocity=0 time=0.027173875
EXTRACT: note_off channel=9 note=39 velocity=0 time=0
EXTRACT: note_off channel=9 note=40 velocity=0 time=0
EXTRACT: note_off channel=9 note=42 velocity=0 time=0
EXTRACT: note_off channel=4 note=61 velocity=0 time=0.027173875
EXTRACT: note_off channel=4 note=66 velocity=0 time=0
EXTRACT: note_off channel=9 note=36 velocity=64 time=0
EXTRACT: note_off channel=9 note=36 velocity=64 time=0
EXTRACT: note_off channel=9 note=36 velocity=64 time=0
EXTRACT: note_off channel=9 note=36 velocity=64 time=0
EXTRACT: note_off channel=8 note=54 velocity=0 time=0.05434775
EXTRACT: note_on channel=8 note=66 velocity=127 time=0.1086955
EXTRACT: note_on channel=9 note=46 velocity=105 time=0
EXTRACT: note_on channel=9 note=40 velocity=75 time=0
EXTRACT: note_off channel=9 note=40 velocity=0 time=0.027173875
EXTRACT: note_off channel=9 note=46 velocity=0 time=0
EXTRACT: note_on channel=4 note=66 velocity=75 time=0.081521625
EXTRACT: note_on channel=4 note=61 velocity=75 time=0
EXTRACT: note_off channel=8 note=66 velocity=0 time=0
EXTRACT: note_on channel=9 note=40 velocity=75 time=0
EXTRACT: note_off channel=9 note=40 velocity=0 time=0.027173875
EXTRACT: note_off channel=4 note=61 velocity=0 time=0.027173875
EXTRACT: note_off channel=4 note=66 velocity=0 time=0
EXTRACT: note_off channel=9 note=28 velocity=0 time=0.0407608125
EXTRACT: note_on channel=4 note=66 velocity=75 time=0.0135869375
EXTRACT: note_on channel=4 note=61 velocity=75 time=0
EXTRACT: note_on channel=8 note=54 velocity=127 time=0
EXTRACT: note_on channel=9 note=36 velocity=127 time=0
EXTRACT: note_on channel=9 note=36 velocity=127 time=0
EXTRACT: note_on channel=9 note=36 velocity=127 time=0
EXTRACT: note_on channel=9 note=36 velocity=127 time=0
EXTRACT: note_on channel=9 note=42 velocity=15 time=0
EXTRACT: note_on channel=9 note=40 velocity=75 time=0
EXTRACT: note_on channel=9 note=35 velocity=117 time=0
EXTRACT: note_off channel=9 note=35 velocity=0 time=0.027173875
EXTRACT: note_off channel=9 note=40 velocity=0 time=0
EXTRACT: note_off channel=9 note=42 velocity=0 time=0
EXTRACT: note_off channel=4 note=61 velocity=0 time=0.027173875
EXTRACT: note_off channel=4 note=66 velocity=0 time=0
EXTRACT: note_off channel=9 note=36 velocity=64 time=0
EXTRACT: note_off channel=9 note=36 velocity=64 time=0
EXTRACT: note_off channel=9 note=36 velocity=64 time=0
EXTRACT: note_off channel=9 note=36 velocity=64 time=0
EXTRACT: note_off channel=8 note=54 velocity=0 time=0.05434775
EXTRACT: note_on channel=4 note=66 velocity=75 time=0.1086955
EXTRACT: note_on channel=4 note=61 velocity=75 time=0
EXTRACT: note_on channel=8 note=66 velocity=127 time=0
EXTRACT: note_on channel=9 note=46 velocity=105 time=0
EXTRACT: note_on channel=9 note=40 velocity=75 time=0
EXTRACT: note_off channel=9 note=40 velocity=0 time=0.027173875
EXTRACT: note_off channel=9 note=46 velocity=0 time=0
EXTRACT: note_off channel=4 note=61 velocity=0 time=0.027173875
EXTRACT: note_off channel=4 note=66 velocity=0 time=0
EXTRACT: note_off channel=8 note=66 velocity=0 time=0.05434775
EXTRACT: note_on channel=9 note=36 velocity=127 time=0
EXTRACT: note_on channel=9 note=36 velocity=127 time=0
EXTRACT: note_on channel=9 note=36 velocity=127 time=0
EXTRACT: note_on channel=9 note=36 velocity=127 time=0
EXTRACT: note_off channel=9 note=36 velocity=64 time=0.05434775
EXTRACT: note_off channel=9 note=36 velocity=64 time=0
EXTRACT: note_off channel=9 note=36 velocity=64 time=0
EXTRACT: note_off channel=9 note=36 velocity=64 time=0
EXTRACT: note_on channel=4 note=66 velocity=75 time=0.05434775
EXTRACT: note_on channel=4 note=61 velocity=75 time=0
EXTRACT: note_on channel=8 note=54 velocity=127 time=0
EXTRACT: note_on channel=9 note=28 velocity=127 time=0
EXTRACT: note_on channel=9 note=36 velocity=127 time=0
EXTRACT: note_on channel=9 note=36 velocity=127 time=0
EXTRACT: note_on channel=9 note=36 velocity=127 time=0
EXTRACT: note_on channel=9 note=36 velocity=127 time=0
EXTRACT: note_on channel=9 note=42 velocity=15 time=0
EXTRACT: note_on channel=9 note=40 velocity=75 time=0
EXTRACT: note_on channel=9 note=39 velocity=105 time=0
EXTRACT: note_on channel=9 note=35 velocity=117 time=0
EXTRACT: note_off channel=9 note=35 velocity=0 time=0.027173875
EXTRACT: note_off channel=9 note=39 velocity=0 time=0
EXTRACT: note_off channel=9 note=40 velocity=0 time=0
EXTRACT: note_off channel=9 note=42 velocity=0 time=0
EXTRACT: note_off channel=4 note=61 velocity=0 time=0.027173875
EXTRACT: note_off channel=4 note=66 velocity=0 time=0
EXTRACT: note_off channel=9 note=36 velocity=64 time=0
EXTRACT: note_off channel=9 note=36 velocity=64 time=0
EXTRACT: note_off channel=9 note=36 velocity=64 time=0
EXTRACT: note_off channel=9 note=36 velocity=64 time=0
EXTRACT: note_off channel=8 note=54 velocity=0 time=0.05434775
EXTRACT: note_on channel=8 note=66 velocity=127 time=0.1086955
EXTRACT: note_on channel=9 note=36 velocity=127 time=0
EXTRACT: note_on channel=9 note=36 velocity=127 time=0
EXTRACT: note_on channel=9 note=36 velocity=127 time=0
EXTRACT: note_on channel=9 note=36 velocity=127 time=0
EXTRACT: note_on channel=9 note=46 velocity=105 time=0
EXTRACT: note_on channel=9 note=40 velocity=75 time=0
EXTRACT: note_off channel=9 note=40 velocity=0 time=0.027173875
EXTRACT: note_off channel=9 note=46 velocity=0 time=0
EXTRACT: note_off channel=9 note=36 velocity=64 time=0.027173875
EXTRACT: note_off channel=9 note=36 velocity=64 time=0
EXTRACT: note_off channel=9 note=36 velocity=64 time=0
EXTRACT: note_off channel=9 note=36 velocity=64 time=0
EXTRACT: note_off channel=8 note=66 velocity=0 time=0.05434775
EXTRACT: note_on channel=9 note=40 velocity=75 time=0
EXTRACT: note_off channel=9 note=40 velocity=0 time=0.027173875
EXTRACT: note_off channel=9 note=28 velocity=0 time=0.06793468750000001
EXTRACT: note_on channel=4 note=66 velocity=75 time=0.0135869375
EXTRACT: note_on channel=4 note=61 velocity=75 time=0
EXTRACT: note_on channel=8 note=54 velocity=127 time=0
EXTRACT: note_on channel=9 note=36 velocity=127 time=0
EXTRACT: note_on channel=9 note=36 velocity=127 time=0
EXTRACT: note_on channel=9 note=36 velocity=127 time=0
EXTRACT: note_on channel=9 note=36 velocity=127 time=0
EXTRACT: note_on channel=9 note=42 velocity=15 time=0
EXTRACT: note_on channel=9 note=40 velocity=75 time=0
EXTRACT: note_on channel=9 note=35 velocity=117 time=0
EXTRACT: note_off channel=9 note=35 velocity=0 time=0.027173875
EXTRACT: note_off channel=9 note=40 velocity=0 time=0
EXTRACT: note_off channel=9 note=42 velocity=0 time=0
EXTRACT: note_off channel=4 note=61 velocity=0 time=0.027173875
EXTRACT: note_off channel=4 note=66 velocity=0 time=0
EXTRACT: note_off channel=9 note=36 velocity=64 time=0
EXTRACT: note_off channel=9 note=36 velocity=64 time=0
EXTRACT: note_off channel=9 note=36 velocity=64 time=0
EXTRACT: note_off channel=9 note=36 velocity=64 time=0
EXTRACT: note_off channel=8 note=54 velocity=0 time=0.05434775
EXTRACT: note_on channel=4 note=66 velocity=75 time=0.1086955
EXTRACT: note_on channel=4 note=61 velocity=75 time=0
EXTRACT: note_on channel=8 note=66 velocity=127 time=0
EXTRACT: note_on channel=9 note=46 velocity=105 time=0
EXTRACT: note_on channel=9 note=40 velocity=75 time=0
EXTRACT: note_off channel=9 note=40 velocity=0 time=0.027173875
EXTRACT: note_off channel=9 note=46 velocity=0 time=0
EXTRACT: note_off channel=4 note=61 velocity=0 time=0.027173875
EXTRACT: note_off channel=4 note=66 velocity=0 time=0
EXTRACT: note_off channel=8 note=66 velocity=0 time=0.05434775
EXTRACT: note_on channel=9 note=40 velocity=75 time=0
EXTRACT: note_off channel=9 note=40 velocity=0 time=0.027173875
EXTRACT: note_on channel=4 note=66 velocity=75 time=0.081521625
EXTRACT: note_on channel=4 note=61 velocity=75 time=0
EXTRACT: note_on channel=8 note=54 velocity=127 time=0
EXTRACT: note_on channel=9 note=28 velocity=127 time=0
EXTRACT: note_on channel=9 note=36 velocity=127 time=0
EXTRACT: note_on channel=9 note=36 velocity=127 time=0
EXTRACT: note_on channel=9 note=36 velocity=127 time=0
EXTRACT: note_on channel=9 note=36 velocity=127 time=0
EXTRACT: note_on channel=9 note=42 velocity=15 time=0
EXTRACT: note_on channel=9 note=40 velocity=75 time=0
EXTRACT: note_on channel=9 note=39 velocity=105 time=0
EXTRACT: note_on channel=9 note=35 velocity=117 time=0
EXTRACT: note_off channel=9 note=35 velocity=0 time=0.027173875
EXTRACT: note_off channel=9 note=39 velocity=0 time=0
EXTRACT: note_off channel=9 note=40 velocity=0 time=0
EXTRACT: note_off channel=9 note=42 velocity=0 time=0
EXTRACT: note_off channel=4 note=61 velocity=0 time=0.027173875
EXTRACT: note_off channel=4 note=66 velocity=0 time=0
EXTRACT: note_off channel=9 note=36 velocity=64 time=0
EXTRACT: note_off channel=9 note=36 velocity=64 time=0
EXTRACT: note_off channel=9 note=36 velocity=64 time=0
EXTRACT: note_off channel=9 note=36 velocity=64 time=0
EXTRACT: note_off channel=8 note=54 velocity=0 time=0.05434775
EXTRACT: note_on channel=9 note=40 velocity=75 time=0
EXTRACT: note_off channel=9 note=40 velocity=0 time=0.027173875
EXTRACT: note_on channel=8 note=66 velocity=127 time=0.081521625
EXTRACT: note_on channel=9 note=46 velocity=105 time=0
EXTRACT: note_on channel=9 note=40 velocity=75 time=0
EXTRACT: note_off channel=9 note=40 velocity=0 time=0.027173875
EXTRACT: note_off channel=9 note=46 velocity=0 time=0
EXTRACT: note_on channel=4 note=66 velocity=75 time=0.081521625
EXTRACT: note_on channel=4 note=61 velocity=75 time=0
EXTRACT: note_off channel=8 note=66 velocity=0 time=0
EXTRACT: note_on channel=9 note=40 velocity=75 time=0
EXTRACT: note_off channel=9 note=40 velocity=0 time=0.027173875
EXTRACT: note_off channel=4 note=61 velocity=0 time=0.027173875
EXTRACT: note_off channel=4 note=66 velocity=0 time=0
EXTRACT: note_off channel=9 note=28 velocity=0 time=0.0407608125
EXTRACT: note_on channel=4 note=66 velocity=75 time=0.0135869375
EXTRACT: note_on channel=4 note=61 velocity=75 time=0
EXTRACT: note_on channel=8 note=54 velocity=127 time=0
EXTRACT: note_on channel=9 note=36 velocity=127 time=0
EXTRACT: note_on channel=9 note=36 velocity=127 time=0
EXTRACT: note_on channel=9 note=36 velocity=127 time=0
EXTRACT: note_on channel=9 note=36 velocity=127 time=0
EXTRACT: note_on channel=9 note=42 velocity=15 time=0
EXTRACT: note_on channel=9 note=40 velocity=75 time=0
EXTRACT: note_on channel=9 note=38 velocity=85 time=0
EXTRACT: note_on channel=9 note=35 velocity=117 time=0
EXTRACT: note_off channel=9 note=35 velocity=0 time=0.027173875
EXTRACT: note_off channel=9 note=38 velocity=0 time=0
EXTRACT: note_off channel=9 note=40 velocity=0 time=0
EXTRACT: note_off channel=9 note=42 velocity=0 time=0
EXTRACT: note_off channel=4 note=61 velocity=0 time=0.027173875
EXTRACT: note_off channel=4 note=66 velocity=0 time=0
EXTRACT: note_off channel=9 note=36 velocity=64 time=0
EXTRACT: note_off channel=9 note=36 velocity=64 time=0
EXTRACT: note_off channel=9 note=36 velocity=64 time=0
EXTRACT: note_off channel=9 note=36 velocity=64 time=0
EXTRACT: note_off channel=8 note=54 velocity=0 time=0.05434775
EXTRACT: note_on channel=4 note=66 velocity=75 time=0.1086955
EXTRACT: note_on channel=4 note=61 velocity=75 time=0
EXTRACT: note_on channel=8 note=66 velocity=127 time=0
EXTRACT: note_on channel=9 note=46 velocity=105 time=0
EXTRACT: note_on channel=9 note=40 velocity=75 time=0
EXTRACT: note_on channel=9 note=39 velocity=105 time=0
EXTRACT: note_off channel=9 note=39 velocity=0 time=0.027173875
EXTRACT: note_off channel=9 note=40 velocity=0 time=0
EXTRACT: note_off channel=9 note=46 velocity=0 time=0
EXTRACT: note_off channel=4 note=61 velocity=0 time=0.027173875
EXTRACT: note_off channel=4 note=66 velocity=0 time=0
EXTRACT: note_off channel=8 note=66 velocity=0 time=0.05434775
EXTRACT: note_on channel=9 note=36 velocity=127 time=0
EXTRACT: note_on channel=9 note=36 velocity=127 time=0
EXTRACT: note_on channel=9 note=36 velocity=127 time=0
EXTRACT: note_on channel=9 note=36 velocity=127 time=0
EXTRACT: note_off channel=9 note=36 velocity=64 time=0.05434775
EXTRACT: note_off channel=9 note=36 velocity=64 time=0
EXTRACT: note_off channel=9 note=36 velocity=64 time=0
EXTRACT: note_off channel=9 note=36 velocity=64 time=0
EXTRACT: note_on channel=4 note=66 velocity=75 time=0.05434775
EXTRACT: note_on channel=4 note=61 velocity=75 time=0
EXTRACT: note_on channel=8 note=54 velocity=127 time=0
EXTRACT: note_on channel=9 note=28 velocity=127 time=0
EXTRACT: note_on channel=9 note=36 velocity=127 time=0
EXTRACT: note_on channel=9 note=36 velocity=127 time=0
EXTRACT: note_on channel=9 note=36 velocity=127 time=0
EXTRACT: note_on channel=9 note=36 velocity=127 time=0
EXTRACT: note_on channel=9 note=49 velocity=50 time=0
EXTRACT: note_on channel=9 note=42 velocity=15 time=0
EXTRACT: note_on channel=9 note=40 velocity=75 time=0
EXTRACT: note_on channel=9 note=39 velocity=105 time=0
EXTRACT: note_on channel=9 note=38 velocity=85 time=0
EXTRACT: note_on channel=9 note=35 velocity=117 time=0
EXTRACT: note_off channel=9 note=35 velocity=0 time=0.027173875
EXTRACT: note_off channel=9 note=38 velocity=0 time=0
EXTRACT: note_off channel=9 note=39 velocity=0 time=0
EXTRACT: note_off channel=9 note=40 velocity=0 time=0
EXTRACT: note_off channel=9 note=42 velocity=0 time=0
EXTRACT: note_off channel=9 note=49 velocity=0 time=0
EXTRACT: note_off channel=4 note=61 velocity=0 time=0.027173875
EXTRACT: note_off channel=4 note=66 velocity=0 time=0
EXTRACT: note_off channel=9 note=36 velocity=64 time=0
EXTRACT: note_off channel=9 note=36 velocity=64 time=0
EXTRACT: note_off channel=9 note=36 velocity=64 time=0
EXTRACT: note_off channel=9 note=36 velocity=64 time=0
EXTRACT: note_off channel=8 note=54 velocity=0 time=0.05434775
EXTRACT: note_on channel=9 note=36 velocity=127 time=0.1086955
EXTRACT: note_on channel=9 note=36 velocity=127 time=0
EXTRACT: note_on channel=9 note=36 velocity=127 time=0
EXTRACT: note_on channel=9 note=36 velocity=127 time=0
EXTRACT: note_on channel=9 note=46 velocity=105 time=0
EXTRACT: note_on channel=9 note=40 velocity=75 time=0
EXTRACT: note_off channel=9 note=40 velocity=0 time=0.027173875
EXTRACT: note_off channel=9 note=46 velocity=0 time=0
EXTRACT: note_off channel=9 note=36 velocity=64 time=0.027173875
EXTRACT: note_off channel=9 note=36 velocity=64 time=0
EXTRACT: note_off channel=9 note=36 velocity=64 time=0
EXTRACT: note_off channel=9 note=36 velocity=64 time=0
EXTRACT: note_off channel=9 note=28 velocity=0 time=0.1494563125
EXTRACT: note_on channel=3 note=66 velocity=127 time=0.0135869375
EXTRACT: note_on channel=4 note=66 velocity=105 time=0
EXTRACT: note_on channel=4 note=61 velocity=105 time=0
EXTRACT: note_on channel=8 note=54 velocity=127 time=0
EXTRACT: note_on channel=9 note=36 velocity=127 time=0
EXTRACT: note_on channel=9 note=36 velocity=127 time=0
EXTRACT: note_on channel=9 note=36 velocity=127 time=0
EXTRACT: note_on channel=9 note=36 velocity=127 time=0
EXTRACT: note_on channel=9 note=49 velocity=85 time=0
EXTRACT: note_on channel=9 note=42 velocity=15 time=0
EXTRACT: note_on channel=9 note=40 velocity=75 time=0
EXTRACT: note_on channel=9 note=37 velocity=70 time=0
EXTRACT: note_on channel=9 note=35 velocity=117 time=0
EXTRACT: note_off channel=9 note=35 velocity=0 time=0.027173875
EXTRACT: note_off channel=9 note=37 velocity=0 time=0
EXTRACT: note_off channel=9 note=40 velocity=0 time=0
EXTRACT: note_off channel=9 note=42 velocity=0 time=0
EXTRACT: note_off channel=9 note=49 velocity=0 time=0
EXTRACT: note_off channel=4 note=61 velocity=0 time=0.027173875
EXTRACT: note_off channel=4 note=66 velocity=0 time=0
EXTRACT: note_off channel=9 note=36 velocity=64 time=0
EXTRACT: note_off channel=9 note=36 velocity=64 time=0
EXTRACT: note_off channel=9 note=36 velocity=64 time=0
EXTRACT: note_off channel=9 note=36 velocity=64 time=0
EXTRACT: note_off channel=8 note=54 velocity=0 time=0.05434775
EXTRACT: note_on channel=1 note=42 velocity=110 time=0.1086955
EXTRACT: note_on channel=1 note=54 velocity=110 time=0
EXTRACT: note_on channel=4 note=66 velocity=105 time=0
EXTRACT: note_on channel=4 note=61 velocity=105 time=0
EXTRACT: note_on channel=8 note=66 velocity=127 time=0
EXTRACT: note_on channel=9 note=46 velocity=105 time=0
EXTRACT: note_on channel=9 note=40 velocity=75 time=0
EXTRACT: note_on channel=0 note=54 velocity=120 time=0
EXTRACT: note_off channel=9 note=40 velocity=0 time=0.027173875
EXTRACT: note_off channel=9 note=46 velocity=0 time=0
EXTRACT: note_off channel=4 note=61 velocity=0 time=0.027173875
EXTRACT: note_off channel=4 note=66 velocity=0 time=0
EXTRACT: note_off channel=8 note=66 velocity=0 time=0.05434775
EXTRACT: note_on channel=9 note=40 velocity=75 time=0
EXTRACT: note_off channel=9 note=40 velocity=0 time=0.027173875
EXTRACT: note_off channel=1 note=54 velocity=0 time=0.027173875
EXTRACT: note_off channel=1 note=42 velocity=0 time=0
EXTRACT: note_off channel=3 note=66 velocity=0 time=0
EXTRACT: note_off channel=0 note=54 velocity=0 time=0
EXTRACT: note_on channel=3 note=63 velocity=127 time=0.05434775
EXTRACT: note_on channel=4 note=66 velocity=105 time=0
EXTRACT: note_on channel=4 note=61 velocity=105 time=0
EXTRACT: note_on channel=8 note=54 velocity=127 time=0
EXTRACT: note_on channel=9 note=28 velocity=127 time=0
EXTRACT: note_on channel=9 note=36 velocity=127 time=0
EXTRACT: note_on channel=9 note=36 velocity=127 time=0
EXTRACT: note_on channel=9 note=36 velocity=127 time=0
EXTRACT: note_on channel=9 note=36 velocity=127 time=0
EXTRACT: note_on channel=9 note=76 velocity=80 time=0
EXTRACT: note_on channel=9 note=42 velocity=15 time=0
EXTRACT: note_on channel=9 note=40 velocity=75 time=0
EXTRACT: note_on channel=9 note=39 velocity=105 time=0
EXTRACT: note_on channel=9 note=37 velocity=70 time=0
EXTRACT: note_on channel=9 note=35 velocity=117 time=0
EXTRACT: note_off channel=9 note=35 velocity=0 time=0.027173875
EXTRACT: note_off channel=9 note=37 velocity=0 time=0
EXTRACT: note_off channel=9 note=39 velocity=0 time=0
EXTRACT: note_off channel=9 note=40 velocity=0 time=0
EXTRACT: note_off channel=9 note=42 velocity=0 time=0
EXTRACT: note_off channel=9 note=76 velocity=0 time=0
EXTRACT: note_off channel=4 note=61 velocity=0 time=0.027173875
EXTRACT: note_off channel=4 note=66 velocity=0 time=0
EXTRACT: note_off channel=9 note=36 velocity=64 time=0
EXTRACT: note_off channel=9 note=36 velocity=64 time=0
EXTRACT: note_off channel=9 note=36 velocity=64 time=0
EXTRACT: note_off channel=9 note=36 velocity=64 time=0
EXTRACT: note_off channel=8 note=54 velocity=0 time=0.05434775
EXTRACT: note_off channel=3 note=63 velocity=0 time=0.08605060416666667
EXTRACT: note_on channel=1 note=42 velocity=110 time=0.022644895833333335
EXTRACT: note_on channel=1 note=54 velocity=110 time=0
EXTRACT: note_on channel=3 note=61 velocity=127 time=0
EXTRACT: note_on channel=8 note=66 velocity=127 time=0
EXTRACT: note_on channel=9 note=76 velocity=80 time=0
EXTRACT: note_on channel=9 note=46 velocity=105 time=0
EXTRACT: note_on channel=9 note=40 velocity=75 time=0
EXTRACT: note_on channel=0 note=54 velocity=120 time=0
EXTRACT: note_off channel=9 note=40 velocity=0 time=0.027173875
EXTRACT: note_off channel=9 note=46 velocity=0 time=0
EXTRACT: note_off channel=9 note=76 velocity=0 time=0
EXTRACT: note_off channel=8 note=66 velocity=0 time=0.06340570833333334
EXTRACT: note_on channel=4 note=66 velocity=105 time=0.01811591666666667
EXTRACT: note_on channel=4 note=61 velocity=105 time=0
EXTRACT: note_on channel=8 note=66 velocity=127 time=0
EXTRACT: note_on channel=9 note=40 velocity=75 time=0
EXTRACT: note_off channel=9 note=40 velocity=0 time=0.027173875
EXTRACT: note_off channel=3 note=61 velocity=0 time=0.009057958333333335
EXTRACT: note_off channel=1 note=54 velocity=0 time=0.01811591666666667
EXTRACT: note_off channel=1 note=42 velocity=0 time=0
EXTRACT: note_off channel=4 note=61 velocity=0 time=0
EXTRACT: note_off channel=4 note=66 velocity=0 time=0
EXTRACT: note_off channel=0 note=54 velocity=0 time=0
EXTRACT: note_off channel=9 note=28 velocity=0 time=0.0407608125
EXTRACT: note_on channel=3 note=66 velocity=127 time=0.0135869375
EXTRACT: note_on channel=4 note=61 velocity=105 time=0
EXTRACT: note_on channel=4 note=56 velocity=105 time=0
EXTRACT: note_off channel=8 note=66 velocity=0 time=0
EXTRACT: note_on channel=8 note=49 velocity=127 time=0
EXTRACT: note_on channel=9 note=36 velocity=127 time=0
EXTRACT: note_on channel=9 note=36 velocity=127 time=0
EXTRACT: note_on channel=9 note=36 velocity=127 time=0
EXTRACT: note_on channel=9 note=36 velocity=127 time=0
EXTRACT: note_on channel=9 note=42 velocity=15 time=0
EXTRACT: note_on channel=9 note=40 velocity=75 time=0
EXTRACT: note_on channel=9 note=37 velocity=70 time=0
EXTRACT: note_on channel=9 note=35 velocity=117 time=0
EXTRACT: note_off channel=9 note=35 velocity=0 time=0.027173875
EXTRACT: note_off channel=9 note=37 velocity=0 time=0
EXTRACT: note_off channel=9 note=40 velocity=0 time=0
EXTRACT: note_off channel=9 note=42 velocity=0 time=0
EXTRACT: note_off channel=4 note=56 velocity=0 time=0.027173875
EXTRACT: note_off channel=4 note=61 velocity=0 time=0
EXTRACT: note_off channel=9 note=36 velocity=64 time=0
EXTRACT: note_off channel=9 note=36 velocity=64 time=0
EXTRACT: note_off channel=9 note=36 velocity=64 time=0
EXTRACT: note_off channel=9 note=36 velocity=64 time=0
EXTRACT: note_off channel=8 note=49 velocity=0 time=0.05434775
EXTRACT: note_on channel=1 note=37 velocity=110 time=0.1086955
EXTRACT: note_on channel=1 note=49 velocity=110 time=0
EXTRACT: note_on channel=4 note=61 velocity=105 time=0
EXTRACT: note_on channel=4 note=56 velocity=105 time=0
EXTRACT: note_on channel=8 note=61 velocity=127 time=0
EXTRACT: note_on channel=9 note=46 velocity=105 time=0
EXTRACT: note_on channel=9 note=40 velocity=75 time=0
EXTRACT: note_on channel=0 note=49 velocity=120 time=0
EXTRACT: note_off channel=9 note=40 velocity=0 time=0.027173875
EXTRACT: note_off channel=9 note=46 velocity=0 time=0
EXTRACT: note_off channel=4 note=56 velocity=0 time=0.027173875
EXTRACT: note_off channel=4 note=61 velocity=0 time=0
EXTRACT: note_off channel=8 note=61 velocity=0 time=0.05434775
EXTRACT: note_on channel=9 note=36 velocity=127 time=0
EXTRACT: note_on channel=9 note=36 velocity=127 time=0
EXTRACT: note_on channel=9 note=36 velocity=127 time=0
EXTRACT: note_on channel=9 note=36 velocity=127 time=0
EXTRACT: note_off channel=1 note=49 velocity=0 time=0.05434775
EXTRACT: note_off channel=1 note=37 velocity=0 time=0
EXTRACT: note_off channel=9 note=36 velocity=64 time=0
EXTRACT: note_off channel=9 note=36 velocity=64 time=0
EXTRACT: note_off channel=9 note=36 velocity=64 time=0
EXTRACT: note_off channel=9 note=36 velocity=64 time=0
EXTRACT: note_off channel=0 note=49 velocity=0 time=0
EXTRACT: note_off channel=3 note=66 velocity=0 time=0.04528979166666667
EXTRACT: note_on channel=3 note=63 velocity=127 time=0.009057958333333335
EXTRACT: note_on channel=4 note=61 velocity=105 time=0
EXTRACT: note_on channel=4 note=56 velocity=105 time=0
EXTRACT: note_on channel=8 note=49 velocity=127 time=0
EXTRACT: note_on channel=9 note=28 velocity=127 time=0
EXTRACT: note_on channel=9 note=36 velocity=127 time=0
EXTRACT: note_on channel=9 note=36 velocity=127 time=0
EXTRACT: note_on channel=9 note=36 velocity=127 time=0
EXTRACT: note_on channel=9 note=36 velocity=127 time=0
EXTRACT: note_on channel=9 note=76 velocity=80 time=0
EXTRACT: note_on channel=9 note=42 velocity=15 time=0
EXTRACT: note_on channel=9 note=40 velocity=75 time=0
EXTRACT: note_on channel=9 note=39 velocity=105 time=0
EXTRACT: note_on channel=9 note=37 velocity=70 time=0
EXTRACT: note_on channel=9 note=35 velocity=117 time=0
EXTRACT: note_off channel=9 note=35 velocity=0 time=0.027173875
EXTRACT: note_off channel=9 note=37 velocity=0 time=0
EXTRACT: note_off channel=9 note=39 velocity=0 time=0
EXTRACT: note_off channel=9 note=40 velocity=0 time=0
EXTRACT: note_off channel=9 note=42 velocity=0 time=0
EXTRACT: note_off channel=9 note=76 velocity=0 time=0
EXTRACT: note_off channel=4 note=56 velocity=0 time=0.027173875
EXTRACT: note_off channel=4 note=61 velocity=0 time=0
EXTRACT: note_off channel=9 note=36 velocity=64 time=0
EXTRACT: note_off channel=9 note=36 velocity=64 time=0
EXTRACT: note_off channel=9 note=36 velocity=64 time=0
EXTRACT: note_off channel=9 note=36 velocity=64 time=0
EXTRACT: note_off channel=8 note=49 velocity=0 time=0.05434775
EXTRACT: note_off channel=3 note=63 velocity=0 time=0.08605060416666667
EXTRACT: note_on channel=1 note=37 velocity=110 time=0.022644895833333335
EXTRACT: note_on channel=1 note=49 velocity=110 time=0
EXTRACT: note_on channel=3 note=61 velocity=127 time=0
EXTRACT: note_on channel=8 note=61 velocity=127 time=0
EXTRACT: note_on channel=9 note=36 velocity=127 time=0
EXTRACT: note_on channel=9 note=36 velocity=127 time=0
EXTRACT: note_on channel=9 note=36 velocity=127 time=0
EXTRACT: note_on channel=9 note=36 velocity=127 time=0
EXTRACT: note_on channel=9 note=46 velocity=105 time=0
EXTRACT: note_on channel=9 note=40 velocity=75 time=0
EXTRACT: note_on channel=0 note=49 velocity=120 time=0
EXTRACT: note_off channel=9 note=40 velocity=0 time=0.027173875
EXTRACT: note_off channel=9 note=46 velocity=0 time=0
EXTRACT: note_off channel=9 note=36 velocity=64 time=0.027173875
EXTRACT: note_off channel=9 note=36 velocity=64 time=0
EXTRACT: note_off channel=9 note=36 velocity=64 time=0
EXTRACT: note_off channel=9 note=36 velocity=64 time=0
EXTRACT: note_off channel=8 note=61 velocity=0 time=0.05434775
EXTRACT: note_on channel=9 note=40 velocity=75 time=0
EXTRACT: note_off channel=9 note=40 velocity=0 time=0.027173875
EXTRACT: note_off channel=3 note=61 velocity=0 time=0.004528979166666667
EXTRACT: note_off channel=1 note=49 velocity=0 time=0.022644895833333335
EXTRACT: note_off channel=1 note=37 velocity=0 time=0
EXTRACT: note_off channel=0 note=49 velocity=0 time=0
EXTRACT: note_off channel=9 note=28 velocity=0 time=0.0407608125
EXTRACT: note_on channel=4 note=63 velocity=105 time=0.0135869375
EXTRACT: note_on channel=4 note=58 velocity=105 time=0
EXTRACT: note_on channel=8 note=51 velocity=127 time=0
EXTRACT: note_on channel=9 note=36 velocity=127 time=0
EXTRACT: note_on channel=9 note=36 velocity=127 time=0
EXTRACT: note_on channel=9 note=36 velocity=127 time=0
EXTRACT: note_on channel=9 note=36 velocity=127 time=0
EXTRACT: note_on channel=9 note=42 velocity=15 time=0
EXTRACT: note_on channel=9 note=40 velocity=75 time=0
EXTRACT: note_on channel=9 note=37 velocity=70 time=0
EXTRACT: note_on channel=9 note=35 velocity=117 time=0
EXTRACT: note_off channel=9 note=35 velocity=0 time=0.027173875
EXTRACT: note_off channel=9 note=37 velocity=0 time=0
EXTRACT: note_off channel=9 note=40 velocity=0 time=0
EXTRACT: note_off channel=9 note=42 velocity=0 time=0
EXTRACT: note_off channel=4 note=58 velocity=0 time=0.027173875
EXTRACT: note_off channel=4 note=63 velocity=0 time=0
EXTRACT: note_off channel=9 note=36 velocity=64 time=0
EXTRACT: note_off channel=9 note=36 velocity=64 time=0
EXTRACT: note_off channel=9 note=36 velocity=64 time=0
EXTRACT: note_off channel=9 note=36 velocity=64 time=0
EXTRACT: note_off channel=8 note=51 velocity=0 time=0.05434775
EXTRACT: note_on channel=1 note=39 velocity=110 time=0.1086955
EXTRACT: note_on channel=1 note=51 velocity=110 time=0
EXTRACT: note_on channel=4 note=63 velocity=105 time=0
EXTRACT: note_on channel=4 note=58 velocity=105 time=0
EXTRACT: note_on channel=8 note=63 velocity=127 time=0
EXTRACT: note_on channel=9 note=46 velocity=105 time=0
EXTRACT: note_on channel=9 note=40 velocity=75 time=0
EXTRACT: note_on channel=0 note=51 velocity=120 time=0
EXTRACT: note_off channel=9 note=40 velocity=0 time=0.027173875
EXTRACT: note_off channel=9 note=46 velocity=0 time=0
EXTRACT: note_off channel=4 note=58 velocity=0 time=0.027173875
EXTRACT: note_off channel=4 note=63 velocity=0 time=0
EXTRACT: note_off channel=8 note=63 velocity=0 time=0.05434775
EXTRACT: note_on channel=9 note=40 velocity=75 time=0
EXTRACT: note_off channel=9 note=40 velocity=0 time=0.027173875
EXTRACT: note_off channel=1 note=51 velocity=0 time=0.027173875
EXTRACT: note_off channel=1 note=39 velocity=0 time=0
EXTRACT: note_off channel=0 note=51 velocity=0 time=0
EXTRACT: note_on channel=4 note=63 velocity=105 time=0.05434775
EXTRACT: note_on channel=4 note=58 velocity=105 time=0
EXTRACT: note_on channel=8 note=51 velocity=127 time=0
EXTRACT: note_on channel=9 note=28 velocity=127 time=0
EXTRACT: note_on channel=9 note=36 velocity=127 time=0
EXTRACT: note_on channel=9 note=36 velocity=127 time=0
EXTRACT: note_on channel=9 note=36 velocity=127 time=0
EXTRACT: note_on channel=9 note=36 velocity=127 time=0
EXTRACT: note_on channel=9 note=76 velocity=80 time=0
EXTRACT: note_on channel=9 note=42 velocity=15 time=0
EXTRACT: note_on channel=9 note=40 velocity=75 time=0
EXTRACT: note_on channel=9 note=39 velocity=105 time=0
EXTRACT: note_on channel=9 note=37 velocity=70 time=0
EXTRACT: note_on channel=9 note=35 velocity=117 time=0
EXTRACT: note_off channel=9 note=35 velocity=0 time=0.027173875
EXTRACT: note_off channel=9 note=37 velocity=0 time=0
EXTRACT: note_off channel=9 note=39 velocity=0 time=0
EXTRACT: note_off channel=9 note=40 velocity=0 time=0
EXTRACT: note_off channel=9 note=42 velocity=0 time=0
EXTRACT: note_off channel=9 note=76 velocity=0 time=0
EXTRACT: note_off channel=4 note=58 velocity=0 time=0.027173875
EXTRACT: note_off channel=4 note=63 velocity=0 time=0
EXTRACT: note_off channel=9 note=36 velocity=64 time=0
EXTRACT: note_off channel=9 note=36 velocity=64 time=0
EXTRACT: note_off channel=9 note=36 velocity=64 time=0
EXTRACT: note_off channel=9 note=36 velocity=64 time=0
EXTRACT: note_off channel=8 note=51 velocity=0 time=0.05434775
EXTRACT: note_on channel=9 note=40 velocity=75 time=0
EXTRACT: note_off channel=9 note=40 velocity=0 time=0.027173875
EXTRACT: note_on channel=1 note=39 velocity=110 time=0.081521625
EXTRACT: note_on channel=1 note=51 velocity=110 time=0
EXTRACT: note_on channel=8 note=63 velocity=127 time=0
EXTRACT: note_on channel=9 note=76 velocity=80 time=0
EXTRACT: note_on channel=9 note=46 velocity=105 time=0
EXTRACT: note_on channel=9 note=40 velocity=75 time=0
EXTRACT: note_on channel=0 note=51 velocity=120 time=0
EXTRACT: note_off channel=9 note=40 velocity=0 time=0.027173875
EXTRACT: note_off channel=9 note=46 velocity=0 time=0
EXTRACT: note_off channel=9 note=76 velocity=0 time=0
EXTRACT: note_off channel=8 note=63 velocity=0 time=0.06340570833333334
EXTRACT: note_on channel=4 note=63 velocity=105 time=0.01811591666666667
EXTRACT: note_on channel=4 note=58 velocity=105 time=0
EXTRACT: note_on channel=8 note=63 velocity=127 time=0
EXTRACT: note_on channel=9 note=40 velocity=75 time=0
EXTRACT: note_off channel=9 note=40 velocity=0 time=0.027173875
EXTRACT: note_off channel=1 note=51 velocity=0 time=0.027173875
EXTRACT: note_off channel=1 note=39 velocity=0 time=0
EXTRACT: note_off channel=4 note=58 velocity=0 time=0
EXTRACT: note_off channel=4 note=63 velocity=0 time=0
EXTRACT: note_off channel=0 note=51 velocity=0 time=0
EXTRACT: note_off channel=9 note=28 velocity=0 time=0.0407608125
EXTRACT: note_on channel=4 note=63 velocity=105 time=0.0135869375
EXTRACT: note_on channel=4 note=58 velocity=105 time=0
EXTRACT: note_off channel=8 note=63 velocity=0 time=0
EXTRACT: note_on channel=8 note=51 velocity=127 time=0
EXTRACT: note_on channel=9 note=36 velocity=127 time=0
EXTRACT: note_on channel=9 note=36 velocity=127 time=0
EXTRACT: note_on channel=9 note=36 velocity=127 time=0
EXTRACT: note_on channel=9 note=36 velocity=127 time=0
EXTRACT: note_on channel=9 note=42 velocity=15 time=0
EXTRACT: note_on channel=9 note=40 velocity=75 time=0
EXTRACT: note_on channel=9 note=37 velocity=70 time=0
EXTRACT: note_on channel=9 note=35 velocity=117 time=0
EXTRACT: note_off channel=9 note=35 velocity=0 time=0.027173875
EXTRACT: note_off channel=9 note=37 velocity=0 time=0
EXTRACT: note_off channel=9 note=40 velocity=0 time=0
EXTRACT: note_off channel=9 note=42 velocity=0 time=0
EXTRACT: note_off channel=4 note=58 velocity=0 time=0.027173875
EXTRACT: note_off channel=4 note=63 velocity=0 time=0
EXTRACT: note_off channel=9 note=36 velocity=64 time=0
EXTRACT: note_off channel=9 note=36 velocity=64 time=0
EXTRACT: note_off channel=9 note=36 velocity=64 time=0
EXTRACT: note_off channel=9 note=36 velocity=64 time=0
EXTRACT: note_off channel=8 note=51 velocity=0 time=0.05434775
EXTRACT: note_on channel=1 note=39 velocity=110 time=0.1086955
EXTRACT: note_on channel=1 note=51 velocity=110 time=0
EXTRACT: note_on channel=4 note=63 velocity=105 time=0
EXTRACT: note_on channel=4 note=58 velocity=105 time=0
EXTRACT: note_on channel=8 note=63 velocity=127 time=0
EXTRACT: note_on channel=9 note=46 velocity=105 time=0
EXTRACT: note_on channel=9 note=40 velocity=75 time=0
EXTRACT: note_on channel=0 note=51 velocity=120 time=0
EXTRACT: note_off channel=9 note=40 velocity=0 time=0.027173875
EXTRACT: note_off channel=9 note=46 velocity=0 time=0
EXTRACT: note_off channel=4 note=58 velocity=0 time=0.027173875
EXTRACT: note_off channel=4 note=63 velocity=0 time=0
EXTRACT: note_off channel=8 note=63 velocity=0 time=0.05434775
EXTRACT: note_on channel=9 note=36 velocity=127 time=0
EXTRACT: note_on channel=9 note=36 velocity=127 time=0
EXTRACT: note_on channel=9 note=36 velocity=127 time=0
EXTRACT: note_on channel=9 note=36 velocity=127 time=0
EXTRACT: note_off channel=1 note=51 velocity=0 time=0.05434775
EXTRACT: note_off channel=1 note=39 velocity=0 time=0
EXTRACT: note_off channel=9 note=36 velocity=64 time=0
EXTRACT: note_off channel=9 note=36 velocity=64 time=0
EXTRACT: note_off channel=9 note=36 velocity=64 time=0
EXTRACT: note_off channel=9 note=36 velocity=64 time=0
EXTRACT: note_off channel=0 note=51 velocity=0 time=0
EXTRACT: note_on channel=4 note=63 velocity=105 time=0.05434775
EXTRACT: note_on channel=4 note=58 velocity=105 time=0
EXTRACT: note_on channel=8 note=51 velocity=127 time=0
EXTRACT: note_on channel=9 note=28 velocity=127 time=0
EXTRACT: note_on channel=9 note=36 velocity=127 time=0
EXTRACT: note_on channel=9 note=36 velocity=127 time=0
EXTRACT: note_on channel=9 note=36 velocity=127 time=0
EXTRACT: note_on channel=9 note=36 velocity=127 time=0
EXTRACT: note_on channel=9 note=76 velocity=80 time=0
EXTRACT: note_on channel=9 note=42 velocity=15 time=0
EXTRACT: note_on channel=9 note=40 velocity=75 time=0
EXTRACT: note_on channel=9 note=39 velocity=105 time=0
EXTRACT: note_on channel=9 note=37 velocity=70 time=0
EXTRACT: note_on channel=9 note=35 velocity=117 time=0
EXTRACT: note_off channel=9 note=35 velocity=0 time=0.027173875
EXTRACT: note_off channel=9 note=37 velocity=0 time=0
EXTRACT: note_off channel=9 note=39 velocity=0 time=0
EXTRACT: note_off channel=9 note=40 velocity=0 time=0
EXTRACT: note_off channel=9 note=42 velocity=0 time=0
EXTRACT: note_off channel=9 note=76 velocity=0 time=0
EXTRACT: note_off channel=4 note=58 velocity=0 time=0.027173875
EXTRACT: note_off channel=4 note=63 velocity=0 time=0
EXTRACT: note_off channel=9 note=36 velocity=64 time=0
EXTRACT: note_off channel=9 note=36 velocity=64 time=0
EXTRACT: note_off channel=9 note=36 velocity=64 time=0
EXTRACT: note_off channel=9 note=36 velocity=64 time=0
EXTRACT: note_off channel=8 note=51 velocity=0 time=0.05434775
EXTRACT: note_on channel=1 note=39 velocity=110 time=0.1086955
EXTRACT: note_on channel=1 note=51 velocity=110 time=0
EXTRACT: note_on channel=8 note=63 velocity=127 time=0
EXTRACT: note_on channel=9 note=36 velocity=127 time=0
EXTRACT: note_on channel=9 note=36 velocity=127 time=0
EXTRACT: note_on channel=9 note=36 velocity=127 time=0
EXTRACT: note_on channel=9 note=36 velocity=127 time=0
EXTRACT: note_on channel=9 note=46 velocity=105 time=0
EXTRACT: note_on channel=9 note=40 velocity=75 time=0
EXTRACT: note_on channel=0 note=51 velocity=120 time=0
EXTRACT: note_off channel=9 note=40 velocity=0 time=0.027173875
EXTRACT: note_off channel=9 note=46 velocity=0 time=0
EXTRACT: note_off channel=9 note=36 velocity=64 time=0.027173875
EXTRACT: note_off channel=9 note=36 velocity=64 time=0
EXTRACT: note_off channel=9 note=36 velocity=64 time=0
EXTRACT: note_off channel=9 note=36 velocity=64 time=0
EXTRACT: note_off channel=8 note=63 velocity=0 time=0.05434775
EXTRACT: note_on channel=9 note=40 velocity=75 time=0
EXTRACT: note_off channel=9 note=40 velocity=0 time=0.027173875
EXTRACT: note_off channel=1 note=51 velocity=0 time=0.027173875
EXTRACT: note_off channel=1 note=39 velocity=0 time=0
EXTRACT: note_off channel=0 note=51 velocity=0 time=0
EXTRACT: note_off channel=9 note=28 velocity=0 time=0.0407608125
EXTRACT: note_on channel=3 note=66 velocity=127 time=0.0135869375
EXTRACT: note_on channel=4 note=59 velocity=105 time=0
EXTRACT: note_on channel=4 note=54 velocity=105 time=0
EXTRACT: note_on channel=8 note=47 velocity=127 time=0
EXTRACT: note_on channel=9 note=36 velocity=127 time=0
EXTRACT: note_on channel=9 note=36 velocity=127 time=0
EXTRACT: note_on channel=9 note=36 velocity=127 time=0
EXTRACT: note_on channel=9 note=36 velocity=127 time=0
EXTRACT: note_on channel=9 note=42 velocity=15 time=0
EXTRACT: note_on channel=9 note=40 velocity=75 time=0
EXTRACT: note_on channel=9 note=37 velocity=70 time=0
EXTRACT: note_on channel=9 note=35 velocity=117 time=0
EXTRACT: note_off channel=9 note=35 velocity=0 time=0.027173875
EXTRACT: note_off channel=9 note=37 velocity=0 time=0
EXTRACT: note_off channel=9 note=40 velocity=0 time=0
EXTRACT: note_off channel=9 note=42 velocity=0 time=0
EXTRACT: note_off channel=4 note=54 velocity=0 time=0.027173875
EXTRACT: note_off channel=4 note=59 velocity=0 time=0
EXTRACT: note_off channel=9 note=36 velocity=64 time=0
EXTRACT: note_off channel=9 note=36 velocity=64 time=0
EXTRACT: note_off channel=9 note=36 velocity=64 time=0
EXTRACT: note_off channel=9 note=36 velocity=64 time=0
EXTRACT: note_off channel=8 note=47 velocity=0 time=0.05434775
EXTRACT: note_on channel=1 note=35 velocity=110 time=0.1086955
EXTRACT: note_on channel=1 note=47 velocity=110 time=0
EXTRACT: note_on channel=4 note=59 velocity=105 time=0
EXTRACT: note_on channel=4 note=54 velocity=105 time=0
EXTRACT: note_on channel=8 note=59 velocity=127 time=0
EXTRACT: note_on channel=9 note=46 velocity=105 time=0
EXTRACT: note_on channel=9 note=40 velocity=75 time=0
EXTRACT: note_on channel=0 note=47 velocity=120 time=0
EXTRACT: note_off channel=9 note=40 velocity=0 time=0.027173875
EXTRACT: note_off channel=9 note=46 velocity=0 time=0
EXTRACT: note_off channel=4 note=54 velocity=0 time=0.027173875
EXTRACT: note_off channel=4 note=59 velocity=0 time=0
EXTRACT: note_off channel=8 note=59 velocity=0 time=0.05434775
EXTRACT: note_on channel=9 note=40 velocity=75 time=0
EXTRACT: note_off channel=9 note=40 velocity=0 time=0.027173875
EXTRACT: note_off channel=1 note=47 velocity=0 time=0.027173875
EXTRACT: note_off channel=1 note=35 velocity=0 time=0
EXTRACT: note_off channel=0 note=47 velocity=0 time=0
EXTRACT: note_off channel=3 note=66 velocity=0 time=0.03623183333333334
EXTRACT: note_on channel=3 note=63 velocity=127 time=0.01811591666666667
EXTRACT: note_on channel=4 note=59 velocity=105 time=0
EXTRACT: note_on channel=4 note=54 velocity=105 time=0
EXTRACT: note_on channel=8 note=47 velocity=127 time=0
EXTRACT: note_on channel=9 note=28 velocity=127 time=0
EXTRACT: note_on channel=9 note=36 velocity=127 time=0
EXTRACT: note_on channel=9 note=36 velocity=127 time=0
EXTRACT: note_on channel=9 note=36 velocity=127 time=0
EXTRACT: note_on channel=9 note=36 velocity=127 time=0
EXTRACT: note_on channel=9 note=76 velocity=80 time=0
EXTRACT: note_on channel=9 note=42 velocity=15 time=0
EXTRACT: note_on channel=9 note=40 velocity=75 time=0
EXTRACT: note_on channel=9 note=39 velocity=105 time=0
EXTRACT: note_on channel=9 note=37 velocity=70 time=0
EXTRACT: note_on channel=9 note=35 velocity=117 time=0
EXTRACT: note_off channel=9 note=35 velocity=0 time=0.027173875
EXTRACT: note_off channel=9 note=37 velocity=0 time=0
EXTRACT: note_off channel=9 note=39 velocity=0 time=0
EXTRACT: note_off channel=9 note=40 velocity=0 time=0
EXTRACT: note_off channel=9 note=42 velocity=0 time=0
EXTRACT: note_off channel=9 note=76 velocity=0 time=0
EXTRACT: note_off channel=4 note=54 velocity=0 time=0.027173875
EXTRACT: note_off channel=4 note=59 velocity=0 time=0
EXTRACT: note_off channel=9 note=36 velocity=64 time=0
EXTRACT: note_off channel=9 note=36 velocity=64 time=0
EXTRACT: note_off channel=9 note=36 velocity=64 time=0
EXTRACT: note_off channel=9 note=36 velocity=64 time=0
EXTRACT: note_off channel=8 note=47 velocity=0 time=0.05434775
EXTRACT: note_off channel=3 note=63 velocity=0 time=0.09057958333333334
EXTRACT: note_on channel=1 note=35 velocity=110 time=0.01811591666666667
EXTRACT: note_on channel=1 note=47 velocity=110 time=0
EXTRACT: note_on channel=3 note=61 velocity=127 time=0
EXTRACT: note_on channel=8 note=59 velocity=127 time=0
EXTRACT: note_on channel=9 note=76 velocity=80 time=0
EXTRACT: note_on channel=9 note=46 velocity=105 time=0
EXTRACT: note_on channel=9 note=40 velocity=75 time=0
EXTRACT: note_on channel=0 note=47 velocity=120 time=0
EXTRACT: note_off channel=9 note=40 velocity=0 time=0.027173875
EXTRACT: note_off channel=9 note=46 velocity=0 time=0
EXTRACT: note_off channel=9 note=76 velocity=0 time=0
EXTRACT: note_off channel=8 note=59 velocity=0 time=0.06340570833333334
EXTRACT: note_on channel=4 note=59 velocity=105 time=0.01811591666666667
EXTRACT: note_on channel=4 note=54 velocity=105 time=0
EXTRACT: note_on channel=8 note=59 velocity=127 time=0
EXTRACT: note_on channel=9 note=40 velocity=75 time=0
EXTRACT: note_off channel=9 note=40 velocity=0 time=0.027173875
EXTRACT: note_off channel=3 note=61 velocity=0 time=0.0135869375
EXTRACT: note_off channel=1 note=47 velocity=0 time=0.0135869375
EXTRACT: note_off channel=1 note=35 velocity=0 time=0
EXTRACT: note_off channel=4 note=54 velocity=0 time=0
EXTRACT: note_off channel=4 note=59 velocity=0 time=0
EXTRACT: note_off channel=0 note=47 velocity=0 time=0
EXTRACT: note_off channel=9 note=28 velocity=0 time=0.0407608125
EXTRACT: note_on channel=3 note=66 velocity=127 time=0.0135869375
EXTRACT: note_on channel=4 note=61 velocity=105 time=0
EXTRACT: note_on channel=4 note=56 velocity=105 time=0
EXTRACT: note_off channel=8 note=59 velocity=0 time=0
EXTRACT: note_on channel=8 note=49 velocity=127 time=0
EXTRACT: note_on channel=9 note=36 velocity=127 time=0
EXTRACT: note_on channel=9 note=36 velocity=127 time=0
EXTRACT: note_on channel=9 note=36 velocity=127 time=0
EXTRACT: note_on channel=9 note=36 velocity=127 time=0
EXTRACT: note_on channel=9 note=42 velocity=15 time=0
EXTRACT: note_on channel=9 note=40 velocity=75 time=0
EXTRACT: note_on channel=9 note=37 velocity=70 time=0
EXTRACT: note_on channel=9 note=35 velocity=117 time=0
EXTRACT: note_off channel=9 note=35 velocity=0 time=0.027173875
EXTRACT: note_off channel=9 note=37 velocity=0 time=0
EXTRACT: note_off channel=9 note=40 velocity=0 time=0
EXTRACT: note_off channel=9 note=42 velocity=0 time=0
EXTRACT: note_off channel=4 note=56 velocity=0 time=0.027173875
EXTRACT: note_off channel=4 note=61 velocity=0 time=0
EXTRACT: note_off channel=9 note=36 velocity=64 time=0
EXTRACT: note_off channel=9 note=36 velocity=64 time=0
EXTRACT: note_off channel=9 note=36 velocity=64 time=0
EXTRACT: note_off channel=9 note=36 velocity=64 time=0
EXTRACT: note_off channel=8 note=49 velocity=0 time=0.05434775
EXTRACT: note_on channel=1 note=37 velocity=110 time=0.1086955
EXTRACT: note_on channel=1 note=49 velocity=110 time=0
EXTRACT: note_on channel=4 note=61 velocity=105 time=0
EXTRACT: note_on channel=4 note=56 velocity=105 time=0
EXTRACT: note_on channel=8 note=61 velocity=127 time=0
EXTRACT: note_on channel=9 note=46 velocity=105 time=0
EXTRACT: note_on channel=9 note=40 velocity=75 time=0
EXTRACT: note_on channel=0 note=49 velocity=120 time=0
EXTRACT: note_off channel=9 note=40 velocity=0 time=0.027173875
EXTRACT: note_off channel=9 note=46 velocity=0 time=0
EXTRACT: note_off channel=4 note=56 velocity=0 time=0.027173875
EXTRACT: note_off channel=4 note=61 velocity=0 time=0
EXTRACT: note_off channel=8 note=61 velocity=0 time=0.05434775
EXTRACT: note_on channel=9 note=36 velocity=127 time=0
EXTRACT: note_on channel=9 note=36 velocity=127 time=0
EXTRACT: note_on channel=9 note=36 velocity=127 time=0
EXTRACT: note_on channel=9 note=36 velocity=127 time=0
EXTRACT: note_off channel=1 note=49 velocity=0 time=0.05434775
EXTRACT: note_off channel=1 note=37 velocity=0 time=0
EXTRACT: note_off channel=9 note=36 velocity=64 time=0
EXTRACT: note_off channel=9 note=36 velocity=64 time=0
EXTRACT: note_off channel=9 note=36 velocity=64 time=0
EXTRACT: note_off channel=9 note=36 velocity=64 time=0
EXTRACT: note_off channel=0 note=49 velocity=0 time=0
EXTRACT: note_on channel=3 note=63 velocity=127 time=0.05434775
EXTRACT: note_on channel=4 note=61 velocity=105 time=0
EXTRACT: note_on channel=4 note=56 velocity=105 time=0
EXTRACT: note_on channel=8 note=49 velocity=127 time=0
EXTRACT: note_on channel=9 note=28 velocity=127 time=0
EXTRACT: note_on channel=9 note=36 velocity=127 time=0
EXTRACT: note_on channel=9 note=36 velocity=127 time=0
EXTRACT: note_on channel=9 note=36 velocity=127 time=0
EXTRACT: note_on channel=9 note=36 velocity=127 time=0
EXTRACT: note_on channel=9 note=76 velocity=80 time=0
EXTRACT: note_on channel=9 note=42 velocity=15 time=0
EXTRACT: note_on channel=9 note=40 velocity=75 time=0
EXTRACT: note_on channel=9 note=39 velocity=105 time=0
EXTRACT: note_on channel=9 note=37 velocity=70 time=0
EXTRACT: note_on channel=9 note=35 velocity=117 time=0
EXTRACT: note_off channel=3 note=66 velocity=0 time=0.004528979166666667
EXTRACT: note_off channel=9 note=35 velocity=0 time=0.022644895833333335
EXTRACT: note_off channel=9 note=37 velocity=0 time=0
EXTRACT: note_off channel=9 note=39 velocity=0 time=0
EXTRACT: note_off channel=9 note=40 velocity=0 time=0
EXTRACT: note_off channel=9 note=42 velocity=0 time=0
EXTRACT: note_off channel=9 note=76 velocity=0 time=0
EXTRACT: note_off channel=4 note=56 velocity=0 time=0.027173875
EXTRACT: note_off channel=4 note=61 velocity=0 time=0
EXTRACT: note_off channel=9 note=36 velocity=64 time=0
EXTRACT: note_off channel=9 note=36 velocity=64 time=0
EXTRACT: note_off channel=9 note=36 velocity=64 time=0
EXTRACT: note_off channel=9 note=36 velocity=64 time=0
EXTRACT: note_off channel=8 note=49 velocity=0 time=0.05434775
EXTRACT: note_on channel=1 note=37 velocity=110 time=0.1086955
EXTRACT: note_on channel=1 note=49 velocity=110 time=0
EXTRACT: note_off channel=3 note=63 velocity=0 time=0
EXTRACT: note_on channel=3 note=61 velocity=127 time=0
EXTRACT: note_on channel=8 note=61 velocity=127 time=0
EXTRACT: note_on channel=9 note=36 velocity=127 time=0
EXTRACT: note_on channel=9 note=36 velocity=127 time=0
EXTRACT: note_on channel=9 note=36 velocity=127 time=0
EXTRACT: note_on channel=9 note=36 velocity=127 time=0
EXTRACT: note_on channel=9 note=46 velocity=105 time=0
EXTRACT: note_on channel=9 note=40 velocity=75 time=0
EXTRACT: note_on channel=0 note=49 velocity=120 time=0
EXTRACT: note_off channel=9 note=40 velocity=0 time=0.027173875
EXTRACT: note_off channel=9 note=46 velocity=0 time=0
EXTRACT: note_off channel=9 note=36 velocity=64 time=0.027173875
EXTRACT: note_off channel=9 note=36 velocity=64 time=0
EXTRACT: note_off channel=9 note=36 velocity=64 time=0
EXTRACT: note_off channel=9 note=36 velocity=64 time=0
EXTRACT: note_off channel=8 note=61 velocity=0 time=0.05434775
EXTRACT: note_on channel=9 note=40 velocity=75 time=0
EXTRACT: note_off channel=9 note=40 velocity=0 time=0.027173875
EXTRACT: note_off channel=3 note=61 velocity=0 time=0.022644895833333335
EXTRACT: note_off channel=1 note=49 velocity=0 time=0.004528979166666667
EXTRACT: note_off channel=1 note=37 velocity=0 time=0
EXTRACT: note_off channel=0 note=49 velocity=0 time=0
EXTRACT: note_off channel=9 note=28 velocity=0 time=0.0407608125
EXTRACT: note_on channel=4 note=66 velocity=105 time=0.0135869375
EXTRACT: note_on channel=4 note=61 velocity=105 time=0
EXTRACT: note_on channel=8 note=54 velocity=127 time=0
EXTRACT: note_on channel=9 note=36 velocity=127 time=0
EXTRACT: note_on channel=9 note=36 velocity=127 time=0
EXTRACT: note_on channel=9 note=36 velocity=127 time=0
EXTRACT: note_on channel=9 note=36 velocity=127 time=0
EXTRACT: note_on channel=9 note=42 velocity=15 time=0
EXTRACT: note_on channel=9 note=40 velocity=75 time=0
EXTRACT: note_on channel=9 note=37 velocity=70 time=0
EXTRACT: note_on channel=9 note=35 velocity=117 time=0
EXTRACT: note_off channel=9 note=35 velocity=0 time=0.027173875
EXTRACT: note_off channel=9 note=37 velocity=0 time=0
EXTRACT: note_off channel=9 note=40 velocity=0 time=0
EXTRACT: note_off channel=9 note=42 velocity=0 time=0
EXTRACT: note_off channel=4 note=61 velocity=0 time=0.027173875
EXTRACT: note_off channel=4 note=66 velocity=0 time=0
EXTRACT: note_off channel=9 note=36 velocity=64 time=0
EXTRACT: note_off channel=9 note=36 velocity=64 time=0
EXTRACT: note_off channel=9 note=36 velocity=64 time=0
EXTRACT: note_off channel=9 note=36 velocity=64 time=0
EXTRACT: note_off channel=8 note=54 velocity=0 time=0.05434775
EXTRACT: note_on channel=1 note=42 velocity=110 time=0.1086955
EXTRACT: note_on channel=1 note=54 velocity=110 time=0
EXTRACT: note_on channel=4 note=66 velocity=105 time=0
EXTRACT: note_on channel=4 note=61 velocity=105 time=0
EXTRACT: note_on channel=8 note=66 velocity=127 time=0
EXTRACT: note_on channel=9 note=46 velocity=105 time=0
EXTRACT: note_on channel=9 note=40 velocity=75 time=0
EXTRACT: note_on channel=0 note=54 velocity=120 time=0
EXTRACT: note_off channel=9 note=40 velocity=0 time=0.027173875
EXTRACT: note_off channel=9 note=46 velocity=0 time=0
EXTRACT: note_off channel=4 note=61 velocity=0 time=0.027173875
EXTRACT: note_off channel=4 note=66 velocity=0 time=0
EXTRACT: note_off channel=8 note=66 velocity=0 time=0.05434775
EXTRACT: note_on channel=9 note=40 velocity=75 time=0
EXTRACT: note_off channel=9 note=40 velocity=0 time=0.027173875
EXTRACT: note_off channel=1 note=54 velocity=0 time=0.027173875
EXTRACT: note_off channel=1 note=42 velocity=0 time=0
EXTRACT: note_off channel=0 note=54 velocity=0 time=0
EXTRACT: note_on channel=4 note=66 velocity=105 time=0.05434775
EXTRACT: note_on channel=4 note=61 velocity=105 time=0
EXTRACT: note_on channel=8 note=54 velocity=127 time=0
EXTRACT: note_on channel=9 note=28 velocity=127 time=0
EXTRACT: note_on channel=9 note=36 velocity=127 time=0
EXTRACT: note_on channel=9 note=36 velocity=127 time=0
EXTRACT: note_on channel=9 note=36 velocity=127 time=0
EXTRACT: note_on channel=9 note=36 velocity=127 time=0
EXTRACT: note_on channel=9 note=76 velocity=80 time=0
EXTRACT: note_on channel=9 note=42 velocity=15 time=0
EXTRACT: note_on channel=9 note=40 velocity=75 time=0
EXTRACT: note_on channel=9 note=39 velocity=105 time=0
EXTRACT: note_on channel=9 note=37 velocity=70 time=0
EXTRACT: note_on channel=9 note=35 velocity=117 time=0
EXTRACT: note_off channel=9 note=35 velocity=0 time=0.027173875
EXTRACT: note_off channel=9 note=37 velocity=0 time=0
EXTRACT: note_off channel=9 note=39 velocity=0 time=0
EXTRACT: note_off channel=9 note=40 velocity=0 time=0
EXTRACT: note_off channel=9 note=42 velocity=0 time=0
EXTRACT: note_off channel=9 note=76 velocity=0 time=0
EXTRACT: note_off channel=4 note=61 velocity=0 time=0.027173875
EXTRACT: note_off channel=4 note=66 velocity=0 time=0
EXTRACT: note_off channel=9 note=36 velocity=64 time=0
EXTRACT: note_off channel=9 note=36 velocity=64 time=0
EXTRACT: note_off channel=9 note=36 velocity=64 time=0
EXTRACT: note_off channel=9 note=36 velocity=64 time=0
EXTRACT: note_off channel=8 note=54 velocity=0 time=0.05434775
EXTRACT: note_on channel=9 note=40 velocity=75 time=0
EXTRACT: note_off channel=9 note=40 velocity=0 time=0.027173875
EXTRACT: note_on channel=1 note=42 velocity=110 time=0.081521625
EXTRACT: note_on channel=1 note=54 velocity=110 time=0
EXTRACT: note_on channel=8 note=66 velocity=127 time=0
EXTRACT: note_on channel=9 note=76 velocity=80 time=0
EXTRACT: note_on channel=9 note=46 velocity=105 time=0
EXTRACT: note_on channel=9 note=40 velocity=75 time=0
EXTRACT: note_on channel=0 note=54 velocity=120 time=0
EXTRACT: note_off channel=9 note=40 velocity=0 time=0.027173875
EXTRACT: note_off channel=9 note=46 velocity=0 time=0
EXTRACT: note_off channel=9 note=76 velocity=0 time=0
EXTRACT: note_on channel=4 note=66 velocity=105 time=0.081521625
EXTRACT: note_on channel=4 note=61 velocity=105 time=0
EXTRACT: note_off channel=8 note=66 velocity=0 time=0
EXTRACT: note_on channel=9 note=40 velocity=75 time=0
EXTRACT: note_off channel=9 note=40 velocity=0 time=0.027173875
EXTRACT: note_off channel=1 note=54 velocity=0 time=0.027173875
EXTRACT: note_off channel=1 note=42 velocity=0 time=0
EXTRACT: note_off channel=4 note=61 velocity=0 time=0
EXTRACT: note_off channel=4 note=66 velocity=0 time=0
EXTRACT: note_off channel=0 note=54 velocity=0 time=0
EXTRACT: note_off channel=9 note=28 velocity=0 time=0.0407608125
EXTRACT: note_on channel=4 note=66 velocity=105 time=0.0135869375
EXTRACT: note_on channel=4 note=61 velocity=105 time=0
EXTRACT: note_on channel=8 note=54 velocity=127 time=0
EXTRACT: note_on channel=9 note=36 velocity=127 time=0
EXTRACT: note_on channel=9 note=36 velocity=127 time=0
EXTRACT: note_on channel=9 note=36 velocity=127 time=0
EXTRACT: note_on channel=9 note=36 velocity=127 time=0
EXTRACT: note_on channel=9 note=42 velocity=15 time=0
EXTRACT: note_on channel=9 note=40 velocity=75 time=0
EXTRACT: note_on channel=9 note=37 velocity=70 time=0
EXTRACT: note_on channel=9 note=35 velocity=117 time=0
EXTRACT: note_off channel=9 note=35 velocity=0 time=0.027173875
EXTRACT: note_off channel=9 note=37 velocity=0 time=0
EXTRACT: note_off channel=9 note=40 velocity=0 time=0
EXTRACT: note_off channel=9 note=42 velocity=0 time=0
EXTRACT: note_off channel=4 note=61 velocity=0 time=0.027173875
EXTRACT: note_off channel=4 note=66 velocity=0 time=0
EXTRACT: note_off channel=9 note=36 velocity=64 time=0
EXTRACT: note_off channel=9 note=36 velocity=64 time=0
EXTRACT: note_off channel=9 note=36 velocity=64 time=0
EXTRACT: note_off channel=9 note=36 velocity=64 time=0
EXTRACT: note_off channel=8 note=54 velocity=0 time=0.05434775
EXTRACT: note_on channel=1 note=42 velocity=110 time=0.1086955
EXTRACT: note_on channel=1 note=54 velocity=110 time=0
EXTRACT: note_on channel=4 note=66 velocity=105 time=0
EXTRACT: note_on channel=4 note=61 velocity=105 time=0
EXTRACT: note_on channel=8 note=66 velocity=127 time=0
EXTRACT: note_on channel=9 note=46 velocity=105 time=0
EXTRACT: note_on channel=9 note=40 velocity=75 time=0
EXTRACT: note_on channel=0 note=54 velocity=120 time=0
EXTRACT: note_off channel=9 note=40 velocity=0 time=0.027173875
EXTRACT: note_off channel=9 note=46 velocity=0 time=0
EXTRACT: note_off channel=4 note=61 velocity=0 time=0.027173875
EXTRACT: note_off channel=4 note=66 velocity=0 time=0
EXTRACT: note_off channel=8 note=66 velocity=0 time=0.05434775
EXTRACT: note_on channel=9 note=36 velocity=127 time=0
EXTRACT: note_on channel=9 note=36 velocity=127 time=0
EXTRACT: note_on channel=9 note=36 velocity=127 time=0
EXTRACT: note_on channel=9 note=36 velocity=127 time=0
EXTRACT: note_off channel=1 note=54 velocity=0 time=0.05434775
EXTRACT: note_off channel=1 note=42 velocity=0 time=0
EXTRACT: note_off channel=9 note=36 velocity=64 time=0
EXTRACT: note_off channel=9 note=36 velocity=64 time=0
EXTRACT: note_off channel=9 note=36 velocity=64 time=0
EXTRACT: note_off channel=9 note=36 velocity=64 time=0
EXTRACT: note_off channel=0 note=54 velocity=0 time=0
EXTRACT: note_on channel=4 note=66 velocity=105 time=0.05434775
EXTRACT: note_on channel=4 note=61 velocity=105 time=0
EXTRACT: note_on channel=8 note=54 velocity=127 time=0
EXTRACT: note_on channel=9 note=28 velocity=127 time=0
EXTRACT: note_on channel=9 note=36 velocity=127 time=0
EXTRACT: note_on channel=9 note=36 velocity=127 time=0
EXTRACT: note_on channel=9 note=36 velocity=127 time=0
EXTRACT: note_on channel=9 note=36 velocity=127 time=0
EXTRACT: note_on channel=9 note=76 velocity=80 time=0
EXTRACT: note_on channel=9 note=49 velocity=50 time=0
EXTRACT: note_on channel=9 note=42 velocity=15 time=0
EXTRACT: note_on channel=9 note=40 velocity=75 time=0
EXTRACT: note_on channel=9 note=39 velocity=105 time=0
EXTRACT: note_on channel=9 note=37 velocity=70 time=0
EXTRACT: note_on channel=9 note=35 velocity=117 time=0
EXTRACT: note_off channel=9 note=35 velocity=0 time=0.027173875
EXTRACT: note_off channel=9 note=37 velocity=0 time=0
EXTRACT: note_off channel=9 note=39 velocity=0 time=0
EXTRACT: note_off channel=9 note=40 velocity=0 time=0
EXTRACT: note_off channel=9 note=42 velocity=0 time=0
EXTRACT: note_off channel=9 note=49 velocity=0 time=0
EXTRACT: note_off channel=9 note=76 velocity=0 time=0
EXTRACT: note_off channel=4 note=61 velocity=0 time=0.027173875
EXTRACT: note_off channel=4 note=66 velocity=0 time=0
EXTRACT: note_off channel=9 note=36 velocity=64 time=0
EXTRACT: note_off channel=9 note=36 velocity=64 time=0
EXTRACT: note_off channel=9 note=36 velocity=64 time=0
EXTRACT: note_off channel=9 note=36 velocity=64 time=0
EXTRACT: note_off channel=8 note=54 velocity=0 time=0.05434775
EXTRACT: note_on channel=1 note=42 velocity=110 time=0.1086955
EXTRACT: note_on channel=1 note=54 velocity=110 time=0
EXTRACT: note_on channel=8 note=66 velocity=127 time=0
EXTRACT: note_on channel=9 note=36 velocity=127 time=0
EXTRACT: note_on channel=9 note=36 velocity=127 time=0
EXTRACT: note_on channel=9 note=36 velocity=127 time=0
EXTRACT: note_on channel=9 note=36 velocity=127 time=0
EXTRACT: note_on channel=9 note=46 velocity=105 time=0
EXTRACT: note_on channel=0 note=54 velocity=120 time=0
EXTRACT: note_off channel=9 note=46 velocity=0 time=0.027173875
EXTRACT: note_off channel=9 note=36 velocity=64 time=0.027173875
EXTRACT: note_off channel=9 note=36 velocity=64 time=0
EXTRACT: note_off channel=9 note=36 velocity=64 time=0
EXTRACT: note_off channel=9 note=36 velocity=64 time=0
EXTRACT: note_off channel=8 note=66 velocity=0 time=0.05434775
EXTRACT: note_off channel=1 note=54 velocity=0 time=0.05434775
EXTRACT: note_off channel=1 note=42 velocity=0 time=0
EXTRACT: note_off channel=0 note=54 velocity=0 time=0
EXTRACT: note_off channel=9 note=28 velocity=0 time=0.0407608125
EXTRACT: note_on channel=2 note=102 velocity=50 time=0.0135869375
EXTRACT: note_on channel=2 note=90 velocity=40 time=0
EXTRACT: note_on channel=3 note=66 velocity=127 time=0
EXTRACT: note_on channel=4 note=66 velocity=105 time=0
EXTRACT: note_on channel=4 note=61 velocity=105 time=0
EXTRACT: note_on channel=8 note=54 velocity=127 time=0
EXTRACT: note_on channel=9 note=36 velocity=127 time=0
EXTRACT: note_on channel=9 note=36 velocity=127 time=0
EXTRACT: note_on channel=9 note=36 velocity=127 time=0
EXTRACT: note_on channel=9 note=36 velocity=127 time=0
EXTRACT: note_on channel=9 note=49 velocity=85 time=0
EXTRACT: note_on channel=9 note=42 velocity=15 time=0
EXTRACT: note_on channel=9 note=40 velocity=75 time=0
EXTRACT: note_on channel=9 note=37 velocity=70 time=0
EXTRACT: note_on channel=9 note=35 velocity=117 time=0
EXTRACT: note_off channel=9 note=35 velocity=0 time=0.027173875
EXTRACT: note_off channel=9 note=37 velocity=0 time=0
EXTRACT: note_off channel=9 note=40 velocity=0 time=0
EXTRACT: note_off channel=9 note=42 velocity=0 time=0
EXTRACT: note_off channel=9 note=49 velocity=0 time=0
EXTRACT: note_off channel=4 note=61 velocity=0 time=0.027173875
EXTRACT: note_off channel=4 note=66 velocity=0 time=0
EXTRACT: note_off channel=9 note=36 velocity=64 time=0
EXTRACT: note_off channel=9 note=36 velocity=64 time=0
EXTRACT: note_off channel=9 note=36 velocity=64 time=0
EXTRACT: note_off channel=9 note=36 velocity=64 time=0
EXTRACT: note_off channel=8 note=54 velocity=0 time=0.05434775
EXTRACT: note_on channel=1 note=42 velocity=110 time=0.1086955
EXTRACT: note_on channel=1 note=54 velocity=110 time=0
EXTRACT: note_on channel=4 note=66 velocity=105 time=0
EXTRACT: note_on channel=4 note=61 velocity=105 time=0
EXTRACT: note_on channel=8 note=66 velocity=127 time=0
EXTRACT: note_on channel=9 note=46 velocity=105 time=0
EXTRACT: note_on channel=9 note=40 velocity=75 time=0
EXTRACT: note_on channel=0 note=54 velocity=120 time=0
EXTRACT: note_off channel=9 note=40 velocity=0 time=0.027173875
EXTRACT: note_off channel=9 note=46 velocity=0 time=0
EXTRACT: note_off channel=4 note=61 velocity=0 time=0.027173875
EXTRACT: note_off channel=4 note=66 velocity=0 time=0
EXTRACT: note_off channel=8 note=66 velocity=0 time=0.05434775
EXTRACT: note_on channel=9 note=40 velocity=75 time=0
EXTRACT: note_off channel=9 note=40 velocity=0 time=0.027173875
EXTRACT: note_off channel=1 note=54 velocity=0 time=0.027173875
EXTRACT: note_off channel=1 note=42 velocity=0 time=0
EXTRACT: note_off channel=0 note=54 velocity=0 time=0
EXTRACT: note_off channel=3 note=66 velocity=0 time=0.03170285416666667
EXTRACT: note_on channel=3 note=63 velocity=127 time=0.022644895833333335
EXTRACT: note_on channel=4 note=66 velocity=105 time=0
EXTRACT: note_on channel=4 note=61 velocity=105 time=0
EXTRACT: note_on channel=8 note=54 velocity=127 time=0
EXTRACT: note_on channel=9 note=28 velocity=127 time=0
EXTRACT: note_on channel=9 note=36 velocity=127 time=0
EXTRACT: note_on channel=9 note=36 velocity=127 time=0
EXTRACT: note_on channel=9 note=36 velocity=127 time=0
EXTRACT: note_on channel=9 note=36 velocity=127 time=0
EXTRACT: note_on channel=9 note=76 velocity=80 time=0
EXTRACT: note_on channel=9 note=42 velocity=15 time=0
EXTRACT: note_on channel=9 note=40 velocity=75 time=0
EXTRACT: note_on channel=9 note=39 velocity=105 time=0
EXTRACT: note_on channel=9 note=37 velocity=70 time=0
EXTRACT: note_on channel=9 note=35 velocity=117 time=0
EXTRACT: note_off channel=9 note=35 velocity=0 time=0.027173875
EXTRACT: note_off channel=9 note=37 velocity=0 time=0
EXTRACT: note_off channel=9 note=39 velocity=0 time=0
EXTRACT: note_off channel=9 note=40 velocity=0 time=0
EXTRACT: note_off channel=9 note=42 velocity=0 time=0
EXTRACT: note_off channel=9 note=76 velocity=0 time=0
EXTRACT: note_off channel=4 note=61 velocity=0 time=0.027173875
EXTRACT: note_off channel=4 note=66 velocity=0 time=0
EXTRACT: note_off channel=9 note=36 velocity=64 time=0
EXTRACT: note_off channel=9 note=36 velocity=64 time=0
EXTRACT: note_off channel=9 note=36 velocity=64 time=0
EXTRACT: note_off channel=9 note=36 velocity=64 time=0
EXTRACT: note_off channel=8 note=54 velocity=0 time=0.05434775
EXTRACT: note_off channel=3 note=63 velocity=0 time=0.09510856250000001
EXTRACT: note_on channel=1 note=42 velocity=110 time=0.0135869375
EXTRACT: note_on channel=1 note=54 velocity=110 time=0
EXTRACT: note_on channel=3 note=61 velocity=127 time=0
EXTRACT: note_on channel=8 note=66 velocity=127 time=0
EXTRACT: note_on channel=9 note=76 velocity=80 time=0
EXTRACT: note_on channel=9 note=46 velocity=105 time=0
EXTRACT: note_on channel=9 note=40 velocity=75 time=0
EXTRACT: note_on channel=0 note=54 velocity=120 time=0
EXTRACT: note_off channel=9 note=40 velocity=0 time=0.027173875
EXTRACT: note_off channel=9 note=46 velocity=0 time=0
EXTRACT: note_off channel=9 note=76 velocity=0 time=0
EXTRACT: note_off channel=8 note=66 velocity=0 time=0.06340570833333334
EXTRACT: note_on channel=4 note=66 velocity=105 time=0.01811591666666667
EXTRACT: note_on channel=4 note=61 velocity=105 time=0
EXTRACT: note_on channel=8 note=66 velocity=127 time=0
EXTRACT: note_on channel=9 note=40 velocity=75 time=0
EXTRACT: note_off channel=9 note=40 velocity=0 time=0.027173875
EXTRACT: note_off channel=3 note=61 velocity=0 time=0.01811591666666667
EXTRACT: note_off channel=1 note=54 velocity=0 time=0.009057958333333335
EXTRACT: note_off channel=1 note=42 velocity=0 time=0
EXTRACT: note_off channel=4 note=61 velocity=0 time=0
EXTRACT: note_off channel=4 note=66 velocity=0 time=0
EXTRACT: note_off channel=0 note=54 velocity=0 time=0
EXTRACT: note_off channel=9 note=28 velocity=0 time=0.0407608125
EXTRACT: note_on channel=3 note=66 velocity=127 time=0.0135869375
EXTRACT: note_on channel=4 note=61 velocity=105 time=0
EXTRACT: note_on channel=4 note=56 velocity=105 time=0
EXTRACT: note_off channel=8 note=66 velocity=0 time=0
EXTRACT: note_on channel=8 note=49 velocity=127 time=0
EXTRACT: note_on channel=9 note=36 velocity=127 time=0
EXTRACT: note_on channel=9 note=36 velocity=127 time=0
EXTRACT: note_on channel=9 note=36 velocity=127 time=0
EXTRACT: note_on channel=9 note=36 velocity=127 time=0
EXTRACT: note_on channel=9 note=42 velocity=15 time=0
EXTRACT: note_on channel=9 note=40 velocity=75 time=0
EXTRACT: note_on channel=9 note=37 velocity=70 time=0
EXTRACT: note_on channel=9 note=35 velocity=117 time=0
EXTRACT: note_off channel=9 note=35 velocity=0 time=0.027173875
EXTRACT: note_off channel=9 note=37 velocity=0 time=0
EXTRACT: note_off channel=9 note=40 velocity=0 time=0
EXTRACT: note_off channel=9 note=42 velocity=0 time=0
EXTRACT: note_off channel=4 note=56 velocity=0 time=0.027173875
EXTRACT: note_off channel=4 note=61 velocity=0 time=0
EXTRACT: note_off channel=9 note=36 velocity=64 time=0
EXTRACT: note_off channel=9 note=36 velocity=64 time=0
EXTRACT: note_off channel=9 note=36 velocity=64 time=0
EXTRACT: note_off channel=9 note=36 velocity=64 time=0
EXTRACT: note_off channel=8 note=49 velocity=0 time=0.05434775
EXTRACT: note_on channel=1 note=37 velocity=110 time=0.1086955
EXTRACT: note_on channel=1 note=49 velocity=110 time=0
EXTRACT: note_on channel=4 note=61 velocity=105 time=0
EXTRACT: note_on channel=4 note=56 velocity=105 time=0
EXTRACT: note_on channel=8 note=61 velocity=127 time=0
EXTRACT: note_on channel=9 note=46 velocity=105 time=0
EXTRACT: note_on channel=9 note=40 velocity=75 time=0
EXTRACT: note_on channel=0 note=49 velocity=120 time=0
EXTRACT: note_off channel=9 note=40 velocity=0 time=0.027173875
EXTRACT: note_off channel=9 note=46 velocity=0 time=0
EXTRACT: note_off channel=4 note=56 velocity=0 time=0.027173875
EXTRACT: note_off channel=4 note=61 velocity=0 time=0
EXTRACT: note_off channel=8 note=61 velocity=0 time=0.05434775
EXTRACT: note_on channel=9 note=36 velocity=127 time=0
EXTRACT: note_on channel=9 note=36 velocity=127 time=0
EXTRACT: note_on channel=9 note=36 velocity=127 time=0
EXTRACT: note_on channel=9 note=36 velocity=127 time=0
EXTRACT: note_off channel=1 note=49 velocity=0 time=0.05434775
EXTRACT: note_off channel=1 note=37 velocity=0 time=0
EXTRACT: note_off channel=9 note=36 velocity=64 time=0
EXTRACT: note_off channel=9 note=36 velocity=64 time=0
EXTRACT: note_off channel=9 note=36 velocity=64 time=0
EXTRACT: note_off channel=9 note=36 velocity=64 time=0
EXTRACT: note_off channel=0 note=49 velocity=0 time=0
EXTRACT: note_off channel=3 note=66 velocity=0 time=0.04981877083333334
EXTRACT: note_on channel=3 note=63 velocity=127 time=0.004528979166666667
EXTRACT: note_on channel=4 note=61 velocity=105 time=0
EXTRACT: note_on channel=4 note=56 velocity=105 time=0
EXTRACT: note_on channel=8 note=49 velocity=127 time=0
EXTRACT: note_on channel=9 note=28 velocity=127 time=0
EXTRACT: note_on channel=9 note=36 velocity=127 time=0
EXTRACT: note_on channel=9 note=36 velocity=127 time=0
EXTRACT: note_on channel=9 note=36 velocity=127 time=0
EXTRACT: note_on channel=9 note=36 velocity=127 time=0
EXTRACT: note_on channel=9 note=76 velocity=80 time=0
EXTRACT: note_on channel=9 note=42 velocity=15 time=0
EXTRACT: note_on channel=9 note=40 velocity=75 time=0
EXTRACT: note_on channel=9 note=39 velocity=105 time=0
EXTRACT: note_on channel=9 note=37 velocity=70 time=0
EXTRACT: note_on channel=9 note=35 velocity=117 time=0
EXTRACT: note_off channel=9 note=35 velocity=0 time=0.027173875
EXTRACT: note_off channel=9 note=37 velocity=0 time=0
EXTRACT: note_off channel=9 note=39 velocity=0 time=0
EXTRACT: note_off channel=9 note=40 velocity=0 time=0
EXTRACT: note_off channel=9 note=42 velocity=0 time=0
EXTRACT: note_off channel=9 note=76 velocity=0 time=0
EXTRACT: note_off channel=4 note=56 velocity=0 time=0.027173875
EXTRACT: note_off channel=4 note=61 velocity=0 time=0
EXTRACT: note_off channel=9 note=36 velocity=64 time=0
EXTRACT: note_off channel=9 note=36 velocity=64 time=0
EXTRACT: note_off channel=9 note=36 velocity=64 time=0
EXTRACT: note_off channel=9 note=36 velocity=64 time=0
EXTRACT: note_off channel=8 note=49 velocity=0 time=0.05434775
EXTRACT: note_off channel=3 note=63 velocity=0 time=0.09057958333333334
EXTRACT: note_on channel=1 note=37 velocity=110 time=0.01811591666666667
EXTRACT: note_on channel=1 note=49 velocity=110 time=0
EXTRACT: note_on channel=3 note=61 velocity=127 time=0
EXTRACT: note_on channel=8 note=61 velocity=127 time=0
EXTRACT: note_on channel=9 note=36 velocity=127 time=0
EXTRACT: note_on channel=9 note=36 velocity=127 time=0
EXTRACT: note_on channel=9 note=36 velocity=127 time=0
EXTRACT: note_on channel=9 note=36 velocity=127 time=0
EXTRACT: note_on channel=9 note=46 velocity=105 time=0
EXTRACT: note_on channel=9 note=40 velocity=75 time=0
EXTRACT: note_on channel=0 note=49 velocity=120 time=0
EXTRACT: note_off channel=9 note=40 velocity=0 time=0.027173875
EXTRACT: note_off channel=9 note=46 velocity=0 time=0
EXTRACT: note_off channel=9 note=36 velocity=64 time=0.027173875
EXTRACT: note_off channel=9 note=36 velocity=64 time=0
EXTRACT: note_off channel=9 note=36 velocity=64 time=0
EXTRACT: note_off channel=9 note=36 velocity=64 time=0
EXTRACT: note_off channel=8 note=61 velocity=0 time=0.05434775
EXTRACT: note_on channel=9 note=40 velocity=75 time=0
EXTRACT: note_off channel=9 note=40 velocity=0 time=0.027173875
EXTRACT: note_off channel=1 note=49 velocity=0 time=0.027173875
EXTRACT: note_off channel=1 note=37 velocity=0 time=0
EXTRACT: note_off channel=0 note=49 velocity=0 time=0
EXTRACT: note_off channel=3 note=61 velocity=0 time=0.03623183333333334
EXTRACT: note_off channel=9 note=28 velocity=0 time=0.004528979166666667
EXTRACT: note_on channel=4 note=63 velocity=105 time=0.0135869375
EXTRACT: note_on channel=4 note=58 velocity=105 time=0
EXTRACT: note_on channel=7 note=80 velocity=100 time=0
EXTRACT: note_on channel=8 note=51 velocity=127 time=0
EXTRACT: note_on channel=9 note=36 velocity=127 time=0
EXTRACT: note_on channel=9 note=36 velocity=127 time=0
EXTRACT: note_on channel=9 note=36 velocity=127 time=0
EXTRACT: note_on channel=9 note=36 velocity=127 time=0
EXTRACT: note_on channel=9 note=49 velocity=85 time=0
EXTRACT: note_on channel=9 note=42 velocity=15 time=0
EXTRACT: note_on channel=9 note=40 velocity=75 time=0
EXTRACT: note_on channel=9 note=37 velocity=70 time=0
EXTRACT: note_on channel=9 note=35 velocity=117 time=0
EXTRACT: note_off channel=9 note=35 velocity=0 time=0.027173875
EXTRACT: note_off channel=9 note=37 velocity=0 time=0
EXTRACT: note_off channel=9 note=40 velocity=0 time=0
EXTRACT: note_off channel=9 note=42 velocity=0 time=0
EXTRACT: note_off channel=9 note=49 velocity=0 time=0
EXTRACT: note_off channel=4 note=58 velocity=0 time=0.027173875
EXTRACT: note_off channel=4 note=63 velocity=0 time=0
EXTRACT: note_off channel=9 note=36 velocity=64 time=0
EXTRACT: note_off channel=9 note=36 velocity=64 time=0
EXTRACT: note_off channel=9 note=36 velocity=64 time=0
EXTRACT: note_off channel=9 note=36 velocity=64 time=0
EXTRACT: note_off channel=8 note=51 velocity=0 time=0.05434775
EXTRACT: note_on channel=1 note=39 velocity=110 time=0.1086955
EXTRACT: note_on channel=1 note=51 velocity=110 time=0
EXTRACT: note_on channel=4 note=63 velocity=105 time=0
EXTRACT: note_on channel=4 note=58 velocity=105 time=0
EXTRACT: note_on channel=8 note=63 velocity=127 time=0
EXTRACT: note_on channel=9 note=46 velocity=105 time=0
EXTRACT: note_on channel=9 note=40 velocity=75 time=0
EXTRACT: note_on channel=0 note=51 velocity=120 time=0
EXTRACT: note_off channel=9 note=40 velocity=0 time=0.027173875
EXTRACT: note_off channel=9 note=46 velocity=0 time=0
EXTRACT: note_off channel=4 note=58 velocity=0 time=0.027173875
EXTRACT: note_off channel=4 note=63 velocity=0 time=0
EXTRACT: note_off channel=8 note=63 velocity=0 time=0.05434775
EXTRACT: note_on channel=9 note=40 velocity=75 time=0
EXTRACT: note_off channel=9 note=40 velocity=0 time=0.027173875
EXTRACT: note_off channel=1 note=51 velocity=0 time=0.027173875
EXTRACT: note_off channel=1 note=39 velocity=0 time=0
EXTRACT: note_off channel=0 note=51 velocity=0 time=0
EXTRACT: note_on channel=4 note=63 velocity=105 time=0.05434775
EXTRACT: note_on channel=4 note=58 velocity=105 time=0
EXTRACT: note_on channel=8 note=51 velocity=127 time=0
EXTRACT: note_on channel=9 note=28 velocity=127 time=0
EXTRACT: note_on channel=9 note=36 velocity=127 time=0
EXTRACT: note_on channel=9 note=36 velocity=127 time=0
EXTRACT: note_on channel=9 note=36 velocity=127 time=0
EXTRACT: note_on channel=9 note=36 velocity=127 time=0
EXTRACT: note_on channel=9 note=76 velocity=80 time=0
EXTRACT: note_on channel=9 note=42 velocity=15 time=0
EXTRACT: note_on channel=9 note=40 velocity=75 time=0
EXTRACT: note_on channel=9 note=39 velocity=105 time=0
EXTRACT: note_on channel=9 note=37 velocity=70 time=0
EXTRACT: note_on channel=9 note=35 velocity=117 time=0
EXTRACT: note_off channel=9 note=35 velocity=0 time=0.027173875
EXTRACT: note_off channel=9 note=37 velocity=0 time=0
EXTRACT: note_off channel=9 note=39 velocity=0 time=0
EXTRACT: note_off channel=9 note=40 velocity=0 time=0
EXTRACT: note_off channel=9 note=42 velocity=0 time=0
EXTRACT: note_off channel=9 note=76 velocity=0 time=0
EXTRACT: note_off channel=4 note=58 velocity=0 time=0.027173875
EXTRACT: note_off channel=4 note=63 velocity=0 time=0
EXTRACT: note_off channel=9 note=36 velocity=64 time=0
EXTRACT: note_off channel=9 note=36 velocity=64 time=0
EXTRACT: note_off channel=9 note=36 velocity=64 time=0
EXTRACT: note_off channel=9 note=36 velocity=64 time=0
EXTRACT: note_off channel=8 note=51 velocity=0 time=0.05434775
EXTRACT: note_on channel=9 note=40 velocity=75 time=0
EXTRACT: note_off channel=9 note=40 velocity=0 time=0.027173875
EXTRACT: note_on channel=1 note=39 velocity=110 time=0.081521625
EXTRACT: note_on channel=1 note=51 velocity=110 time=0
EXTRACT: note_on channel=8 note=63 velocity=127 time=0
EXTRACT: note_on channel=9 note=76 velocity=80 time=0
EXTRACT: note_on channel=9 note=46 velocity=105 time=0
EXTRACT: note_on channel=9 note=40 velocity=75 time=0
EXTRACT: note_on channel=0 note=51 velocity=120 time=0
EXTRACT: note_off channel=9 note=40 velocity=0 time=0.027173875
EXTRACT: note_off channel=9 note=46 velocity=0 time=0
EXTRACT: note_off channel=9 note=76 velocity=0 time=0
EXTRACT: note_off channel=8 note=63 velocity=0 time=0.06340570833333334
EXTRACT: note_on channel=4 note=63 velocity=105 time=0.01811591666666667
EXTRACT: note_on channel=4 note=58 velocity=105 time=0
EXTRACT: note_on channel=8 note=63 velocity=127 time=0
EXTRACT: note_on channel=9 note=40 velocity=75 time=0
EXTRACT: note_off channel=9 note=40 velocity=0 time=0.027173875
EXTRACT: note_off channel=1 note=51 velocity=0 time=0.027173875
EXTRACT: note_off channel=1 note=39 velocity=0 time=0
EXTRACT: note_off channel=4 note=58 velocity=0 time=0
EXTRACT: note_off channel=4 note=63 velocity=0 time=0
EXTRACT: note_off channel=0 note=51 velocity=0 time=0
EXTRACT: note_off channel=9 note=28 velocity=0 time=0.0407608125
EXTRACT: note_on channel=4 note=63 velocity=105 time=0.0135869375
EXTRACT: note_on channel=4 note=58 velocity=105 time=0
EXTRACT: note_off channel=8 note=63 velocity=0 time=0
EXTRACT: note_on channel=8 note=51 velocity=127 time=0
EXTRACT: note_on channel=9 note=36 velocity=127 time=0
EXTRACT: note_on channel=9 note=36 velocity=127 time=0
EXTRACT: note_on channel=9 note=36 velocity=127 time=0
EXTRACT: note_on channel=9 note=36 velocity=127 time=0
EXTRACT: note_on channel=9 note=42 velocity=15 time=0
EXTRACT: note_on channel=9 note=40 velocity=75 time=0
EXTRACT: note_on channel=9 note=37 velocity=70 time=0
EXTRACT: note_on channel=9 note=35 velocity=117 time=0
EXTRACT: note_off channel=9 note=35 velocity=0 time=0.027173875
EXTRACT: note_off channel=9 note=37 velocity=0 time=0
EXTRACT: note_off channel=9 note=40 velocity=0 time=0
EXTRACT: note_off channel=9 note=42 velocity=0 time=0
EXTRACT: note_off channel=4 note=58 velocity=0 time=0.027173875
EXTRACT: note_off channel=4 note=63 velocity=0 time=0
EXTRACT: note_off channel=9 note=36 velocity=64 time=0
EXTRACT: note_off channel=9 note=36 velocity=64 time=0
EXTRACT: note_off channel=9 note=36 velocity=64 time=0
EXTRACT: note_off channel=9 note=36 velocity=64 time=0
EXTRACT: note_off channel=8 note=51 velocity=0 time=0.05434775
EXTRACT: note_on channel=1 note=39 velocity=110 time=0.1086955
EXTRACT: note_on channel=1 note=51 velocity=110 time=0
EXTRACT: note_on channel=4 note=63 velocity=105 time=0
EXTRACT: note_on channel=4 note=58 velocity=105 time=0
EXTRACT: note_on channel=8 note=63 velocity=127 time=0
EXTRACT: note_on channel=9 note=46 velocity=105 time=0
EXTRACT: note_on channel=9 note=40 velocity=75 time=0
EXTRACT: note_on channel=0 note=51 velocity=120 time=0
EXTRACT: note_off channel=9 note=40 velocity=0 time=0.027173875
EXTRACT: note_off channel=9 note=46 velocity=0 time=0
EXTRACT: note_off channel=4 note=58 velocity=0 time=0.027173875
EXTRACT: note_off channel=4 note=63 velocity=0 time=0
EXTRACT: note_off channel=8 note=63 velocity=0 time=0.05434775
EXTRACT: note_on channel=9 note=36 velocity=127 time=0
EXTRACT: note_on channel=9 note=36 velocity=127 time=0
EXTRACT: note_on channel=9 note=36 velocity=127 time=0
EXTRACT: note_on channel=9 note=36 velocity=127 time=0
EXTRACT: note_off channel=1 note=51 velocity=0 time=0.05434775
EXTRACT: note_off channel=1 note=39 velocity=0 time=0
EXTRACT: note_off channel=9 note=36 velocity=64 time=0
EXTRACT: note_off channel=9 note=36 velocity=64 time=0
EXTRACT: note_off channel=9 note=36 velocity=64 time=0
EXTRACT: note_off channel=9 note=36 velocity=64 time=0
EXTRACT: note_off channel=0 note=51 velocity=0 time=0
EXTRACT: note_on channel=4 note=63 velocity=105 time=0.05434775
EXTRACT: note_on channel=4 note=58 velocity=105 time=0
EXTRACT: note_on channel=8 note=51 velocity=127 time=0
EXTRACT: note_on channel=9 note=28 velocity=127 time=0
EXTRACT: note_on channel=9 note=36 velocity=127 time=0
EXTRACT: note_on channel=9 note=36 velocity=127 time=0
EXTRACT: note_on channel=9 note=36 velocity=127 time=0
EXTRACT: note_on channel=9 note=36 velocity=127 time=0
EXTRACT: note_on channel=9 note=76 velocity=80 time=0
EXTRACT: note_on channel=9 note=42 velocity=15 time=0
EXTRACT: note_on channel=9 note=40 velocity=75 time=0
EXTRACT: note_on channel=9 note=39 velocity=105 time=0
EXTRACT: note_on channel=9 note=37 velocity=70 time=0
EXTRACT: note_on channel=9 note=35 velocity=117 time=0
EXTRACT: note_off channel=9 note=35 velocity=0 time=0.027173875
EXTRACT: note_off channel=9 note=37 velocity=0 time=0
EXTRACT: note_off channel=9 note=39 velocity=0 time=0
EXTRACT: note_off channel=9 note=40 velocity=0 time=0
EXTRACT: note_off channel=9 note=42 velocity=0 time=0
EXTRACT: note_off channel=9 note=76 velocity=0 time=0
EXTRACT: note_off channel=4 note=58 velocity=0 time=0.027173875
EXTRACT: note_off channel=4 note=63 velocity=0 time=0
EXTRACT: note_off channel=9 note=36 velocity=64 time=0
EXTRACT: note_off channel=9 note=36 velocity=64 time=0
EXTRACT: note_off channel=9 note=36 velocity=64 time=0
EXTRACT: note_off channel=9 note=36 velocity=64 time=0
EXTRACT: note_off channel=8 note=51 velocity=0 time=0.05434775
EXTRACT: note_on channel=1 note=39 velocity=110 time=0.1086955
EXTRACT: note_on channel=1 note=51 velocity=110 time=0
EXTRACT: note_on channel=8 note=63 velocity=127 time=0
EXTRACT: note_on channel=9 note=36 velocity=127 time=0
EXTRACT: note_on channel=9 note=36 velocity=127 time=0
EXTRACT: note_on channel=9 note=36 velocity=127 time=0
EXTRACT: note_on channel=9 note=36 velocity=127 time=0
EXTRACT: note_on channel=9 note=46 velocity=105 time=0
EXTRACT: note_on channel=9 note=40 velocity=75 time=0
EXTRACT: note_on channel=0 note=51 velocity=120 time=0
EXTRACT: note_off channel=9 note=40 velocity=0 time=0.027173875
EXTRACT: note_off channel=9 note=46 velocity=0 time=0
EXTRACT: note_off channel=9 note=36 velocity=64 time=0.027173875
EXTRACT: note_off channel=9 note=36 velocity=64 time=0
EXTRACT: note_off channel=9 note=36 velocity=64 time=0
EXTRACT: note_off channel=9 note=36 velocity=64 time=0
EXTRACT: note_off channel=8 note=63 velocity=0 time=0.05434775
EXTRACT: note_on channel=9 note=40 velocity=75 time=0
EXTRACT: note_off channel=9 note=40 velocity=0 time=0.027173875
EXTRACT: note_off channel=1 note=51 velocity=0 time=0.027173875
EXTRACT: note_off channel=1 note=39 velocity=0 time=0
EXTRACT: note_off channel=0 note=51 velocity=0 time=0
EXTRACT: note_off channel=9 note=28 velocity=0 time=0.0407608125
EXTRACT: note_on channel=3 note=66 velocity=127 time=0.0135869375
EXTRACT: note_on channel=4 note=59 velocity=105 time=0
EXTRACT: note_on channel=4 note=54 velocity=105 time=0
EXTRACT: note_on channel=8 note=47 velocity=127 time=0
EXTRACT: note_on channel=9 note=36 velocity=127 time=0
EXTRACT: note_on channel=9 note=36 velocity=127 time=0
EXTRACT: note_on channel=9 note=36 velocity=127 time=0
EXTRACT: note_on channel=9 note=36 velocity=127 time=0
EXTRACT: note_on channel=9 note=49 velocity=85 time=0
EXTRACT: note_on channel=9 note=42 velocity=15 time=0
EXTRACT: note_on channel=9 note=40 velocity=75 time=0
EXTRACT: note_on channel=9 note=37 velocity=70 time=0
EXTRACT: note_on channel=9 note=35 velocity=117 time=0
EXTRACT: note_off channel=9 note=35 velocity=0 time=0.027173875
EXTRACT: note_off channel=9 note=37 velocity=0 time=0
EXTRACT: note_off channel=9 note=40 velocity=0 time=0
EXTRACT: note_off channel=9 note=42 velocity=0 time=0
EXTRACT: note_off channel=9 note=49 velocity=0 time=0
EXTRACT: note_off channel=4 note=54 velocity=0 time=0.027173875
EXTRACT: note_off channel=4 note=59 velocity=0 time=0
EXTRACT: note_off channel=9 note=36 velocity=64 time=0
EXTRACT: note_off channel=9 note=36 velocity=64 time=0
EXTRACT: note_off channel=9 note=36 velocity=64 time=0
EXTRACT: note_off channel=9 note=36 velocity=64 time=0
EXTRACT: note_off channel=8 note=47 velocity=0 time=0.05434775
EXTRACT: note_on channel=1 note=35 velocity=110 time=0.1086955
EXTRACT: note_on channel=1 note=47 velocity=110 time=0
EXTRACT: note_on channel=4 note=59 velocity=105 time=0
EXTRACT: note_on channel=4 note=54 velocity=105 time=0
EXTRACT: note_on channel=8 note=59 velocity=127 time=0
EXTRACT: note_on channel=9 note=46 velocity=105 time=0
EXTRACT: note_on channel=9 note=40 velocity=75 time=0
EXTRACT: note_on channel=0 note=47 velocity=120 time=0
EXTRACT: note_off channel=9 note=40 velocity=0 time=0.027173875
EXTRACT: note_off channel=9 note=46 velocity=0 time=0
EXTRACT: note_off channel=4 note=54 velocity=0 time=0.027173875
EXTRACT: note_off channel=4 note=59 velocity=0 time=0
EXTRACT: note_off channel=8 note=59 velocity=0 time=0.05434775
EXTRACT: note_on channel=9 note=40 velocity=75 time=0
EXTRACT: note_off channel=9 note=40 velocity=0 time=0.027173875
EXTRACT: note_off channel=1 note=47 velocity=0 time=0.027173875
EXTRACT: note_off channel=1 note=35 velocity=0 time=0
EXTRACT: note_off channel=0 note=47 velocity=0 time=0
EXTRACT: note_off channel=3 note=66 velocity=0 time=0.027173875
EXTRACT: note_on channel=3 note=63 velocity=127 time=0.027173875
EXTRACT: note_on channel=4 note=59 velocity=105 time=0
EXTRACT: note_on channel=4 note=54 velocity=105 time=0
EXTRACT: note_on channel=8 note=47 velocity=127 time=0
EXTRACT: note_on channel=9 note=28 velocity=127 time=0
EXTRACT: note_on channel=9 note=36 velocity=127 time=0
EXTRACT: note_on channel=9 note=36 velocity=127 time=0
EXTRACT: note_on channel=9 note=36 velocity=127 time=0
EXTRACT: note_on channel=9 note=36 velocity=127 time=0
EXTRACT: note_on channel=9 note=76 velocity=80 time=0
EXTRACT: note_on channel=9 note=49 velocity=85 time=0
EXTRACT: note_on channel=9 note=42 velocity=15 time=0
EXTRACT: note_on channel=9 note=40 velocity=75 time=0
EXTRACT: note_on channel=9 note=39 velocity=105 time=0
EXTRACT: note_on channel=9 note=37 velocity=70 time=0
EXTRACT: note_on channel=9 note=35 velocity=117 time=0
EXTRACT: note_off channel=9 note=35 velocity=0 time=0.027173875
EXTRACT: note_off channel=9 note=37 velocity=0 time=0
EXTRACT: note_off channel=9 note=39 velocity=0 time=0
EXTRACT: note_off channel=9 note=40 velocity=0 time=0
EXTRACT: note_off channel=9 note=42 velocity=0 time=0
EXTRACT: note_off channel=9 note=49 velocity=0 time=0
EXTRACT: note_off channel=9 note=76 velocity=0 time=0
EXTRACT: note_off channel=4 note=54 velocity=0 time=0.027173875
EXTRACT: note_off channel=4 note=59 velocity=0 time=0
EXTRACT: note_off channel=9 note=36 velocity=64 time=0
EXTRACT: note_off channel=9 note=36 velocity=64 time=0
EXTRACT: note_off channel=9 note=36 velocity=64 time=0
EXTRACT: note_off channel=9 note=36 velocity=64 time=0
EXTRACT: note_off channel=8 note=47 velocity=0 time=0.05434775
EXTRACT: note_off channel=3 note=63 velocity=0 time=0.06793468750000001
EXTRACT: note_on channel=1 note=35 velocity=110 time=0.0407608125
EXTRACT: note_on channel=1 note=47 velocity=110 time=0
EXTRACT: note_on channel=3 note=61 velocity=127 time=0
EXTRACT: note_on channel=8 note=59 velocity=127 time=0
EXTRACT: note_on channel=9 note=76 velocity=80 time=0
EXTRACT: note_on channel=9 note=46 velocity=105 time=0
EXTRACT: note_on channel=9 note=40 velocity=75 time=0
EXTRACT: note_on channel=0 note=47 velocity=120 time=0
EXTRACT: note_off channel=9 note=40 velocity=0 time=0.027173875
EXTRACT: note_off channel=9 note=46 velocity=0 time=0
EXTRACT: note_off channel=9 note=76 velocity=0 time=0
EXTRACT: note_off channel=8 note=59 velocity=0 time=0.06340570833333334
EXTRACT: note_on channel=4 note=59 velocity=105 time=0.01811591666666667
EXTRACT: note_on channel=4 note=54 velocity=105 time=0
EXTRACT: note_on channel=8 note=59 velocity=127 time=0
EXTRACT: note_on channel=9 note=40 velocity=75 time=0
EXTRACT: note_off channel=9 note=40 velocity=0 time=0.027173875
EXTRACT: note_off channel=1 note=47 velocity=0 time=0.027173875
EXTRACT: note_off channel=1 note=35 velocity=0 time=0
EXTRACT: note_off channel=4 note=54 velocity=0 time=0
EXTRACT: note_off channel=4 note=59 velocity=0 time=0
EXTRACT: note_off channel=0 note=47 velocity=0 time=0
EXTRACT: note_off channel=3 note=61 velocity=0 time=0.009057958333333335
EXTRACT: note_off channel=9 note=28 velocity=0 time=0.03170285416666667
EXTRACT: note_on channel=3 note=66 velocity=127 time=0.0135869375
EXTRACT: note_on channel=4 note=61 velocity=105 time=0
EXTRACT: note_on channel=4 note=56 velocity=105 time=0
EXTRACT: note_off channel=8 note=59 velocity=0 time=0
EXTRACT: note_on channel=8 note=49 velocity=127 time=0
EXTRACT: note_on channel=9 note=36 velocity=127 time=0
EXTRACT: note_on channel=9 note=36 velocity=127 time=0
EXTRACT: note_on channel=9 note=36 velocity=127 time=0
EXTRACT: note_on channel=9 note=36 velocity=127 time=0
EXTRACT: note_on channel=9 note=49 velocity=85 time=0
EXTRACT: note_on channel=9 note=42 velocity=15 time=0
EXTRACT: note_on channel=9 note=40 velocity=75 time=0
EXTRACT: note_on channel=9 note=37 velocity=70 time=0
EXTRACT: note_on channel=9 note=35 velocity=117 time=0
EXTRACT: note_off channel=9 note=35 velocity=0 time=0.027173875
EXTRACT: note_off channel=9 note=37 velocity=0 time=0
EXTRACT: note_off channel=9 note=40 velocity=0 time=0
EXTRACT: note_off channel=9 note=42 velocity=0 time=0
EXTRACT: note_off channel=9 note=49 velocity=0 time=0
EXTRACT: note_off channel=4 note=56 velocity=0 time=0.027173875
EXTRACT: note_off channel=4 note=61 velocity=0 time=0
EXTRACT: note_off channel=9 note=36 velocity=64 time=0
EXTRACT: note_off channel=9 note=36 velocity=64 time=0
EXTRACT: note_off channel=9 note=36 velocity=64 time=0
EXTRACT: note_off channel=9 note=36 velocity=64 time=0
EXTRACT: note_off channel=8 note=49 velocity=0 time=0.05434775
EXTRACT: note_on channel=1 note=37 velocity=110 time=0.1086955
EXTRACT: note_on channel=1 note=49 velocity=110 time=0
EXTRACT: note_on channel=4 note=61 velocity=105 time=0
EXTRACT: note_on channel=4 note=56 velocity=105 time=0
EXTRACT: note_on channel=8 note=61 velocity=127 time=0
EXTRACT: note_on channel=9 note=46 velocity=105 time=0
EXTRACT: note_on channel=9 note=40 velocity=75 time=0
EXTRACT: note_on channel=0 note=49 velocity=120 time=0
EXTRACT: note_off channel=9 note=40 velocity=0 time=0.027173875
EXTRACT: note_off channel=9 note=46 velocity=0 time=0
EXTRACT: note_off channel=4 note=56 velocity=0 time=0.027173875
EXTRACT: note_off channel=4 note=61 velocity=0 time=0
EXTRACT: note_off channel=8 note=61 velocity=0 time=0.05434775
EXTRACT: note_on channel=9 note=36 velocity=127 time=0
EXTRACT: note_on channel=9 note=36 velocity=127 time=0
EXTRACT: note_on channel=9 note=36 velocity=127 time=0
EXTRACT: note_on channel=9 note=36 velocity=127 time=0
EXTRACT: note_off channel=1 note=49 velocity=0 time=0.05434775
EXTRACT: note_off channel=1 note=37 velocity=0 time=0
EXTRACT: note_off channel=9 note=36 velocity=64 time=0
EXTRACT: note_off channel=9 note=36 velocity=64 time=0
EXTRACT: note_off channel=9 note=36 velocity=64 time=0
EXTRACT: note_off channel=9 note=36 velocity=64 time=0
EXTRACT: note_off channel=0 note=49 velocity=0 time=0
EXTRACT: note_off channel=3 note=66 velocity=0 time=0.027173875
EXTRACT: note_on channel=3 note=63 velocity=127 time=0.027173875
EXTRACT: note_on channel=4 note=61 velocity=105 time=0
EXTRACT: note_on channel=4 note=56 velocity=105 time=0
EXTRACT: note_on channel=8 note=49 velocity=127 time=0
EXTRACT: note_on channel=9 note=28 velocity=127 time=0
EXTRACT: note_on channel=9 note=36 velocity=127 time=0
EXTRACT: note_on channel=9 note=36 velocity=127 time=0
EXTRACT: note_on channel=9 note=36 velocity=127 time=0
EXTRACT: note_on channel=9 note=36 velocity=127 time=0
EXTRACT: note_on channel=9 note=76 velocity=80 time=0
EXTRACT: note_on channel=9 note=49 velocity=85 time=0
EXTRACT: note_on channel=9 note=42 velocity=15 time=0
EXTRACT: note_on channel=9 note=40 velocity=75 time=0
EXTRACT: note_on channel=9 note=39 velocity=105 time=0
EXTRACT: note_on channel=9 note=37 velocity=70 time=0
EXTRACT: note_on channel=9 note=35 velocity=117 time=0
EXTRACT: note_off channel=9 note=35 velocity=0 time=0.027173875
EXTRACT: note_off channel=9 note=37 velocity=0 time=0
EXTRACT: note_off channel=9 note=39 velocity=0 time=0
EXTRACT: note_off channel=9 note=40 velocity=0 time=0
EXTRACT: note_off channel=9 note=42 velocity=0 time=0
EXTRACT: note_off channel=9 note=49 velocity=0 time=0
EXTRACT: note_off channel=9 note=76 velocity=0 time=0
EXTRACT: note_off channel=4 note=56 velocity=0 time=0.027173875
EXTRACT: note_off channel=4 note=61 velocity=0 time=0
EXTRACT: note_off channel=9 note=36 velocity=64 time=0
EXTRACT: note_off channel=9 note=36 velocity=64 time=0
EXTRACT: note_off channel=9 note=36 velocity=64 time=0
EXTRACT: note_off channel=9 note=36 velocity=64 time=0
EXTRACT: note_off channel=8 note=49 velocity=0 time=0.05434775
EXTRACT: note_on channel=1 note=37 velocity=110 time=0.1086955
EXTRACT: note_on channel=1 note=49 velocity=110 time=0
EXTRACT: note_off channel=3 note=63 velocity=0 time=0
EXTRACT: note_on channel=3 note=61 velocity=127 time=0
EXTRACT: note_on channel=8 note=61 velocity=127 time=0
EXTRACT: note_on channel=9 note=36 velocity=127 time=0
EXTRACT: note_on channel=9 note=36 velocity=127 time=0
EXTRACT: note_on channel=9 note=36 velocity=127 time=0
EXTRACT: note_on channel=9 note=36 velocity=127 time=0
EXTRACT: note_on channel=9 note=46 velocity=105 time=0
EXTRACT: note_on channel=9 note=40 velocity=75 time=0
EXTRACT: note_on channel=0 note=49 velocity=120 time=0
EXTRACT: note_off channel=9 note=40 velocity=0 time=0.027173875
EXTRACT: note_off channel=9 note=46 velocity=0 time=0
EXTRACT: note_off channel=9 note=36 velocity=64 time=0.027173875
EXTRACT: note_off channel=9 note=36 velocity=64 time=0
EXTRACT: note_off channel=9 note=36 velocity=64 time=0
EXTRACT: note_off channel=9 note=36 velocity=64 time=0
EXTRACT: note_off channel=8 note=61 velocity=0 time=0.05434775
EXTRACT: note_on channel=9 note=40 velocity=75 time=0
EXTRACT: note_off channel=9 note=40 velocity=0 time=0.027173875
EXTRACT: note_off channel=1 note=49 velocity=0 time=0.027173875
EXTRACT: note_off channel=1 note=37 velocity=0 time=0
EXTRACT: note_off channel=0 note=49 velocity=0 time=0
EXTRACT: note_off channel=3 note=61 velocity=0 time=0.0135869375
EXTRACT: note_off channel=9 note=28 velocity=0 time=0.027173875
EXTRACT: note_on channel=9 note=36 velocity=127 time=0.0135869375
EXTRACT: note_on channel=9 note=36 velocity=127 time=0
EXTRACT: note_on channel=9 note=36 velocity=127 time=0
EXTRACT: note_on channel=9 note=36 velocity=127 time=0
EXTRACT: note_on channel=9 note=49 velocity=85 time=0
EXTRACT: note_on channel=9 note=42 velocity=15 time=0
EXTRACT: note_on channel=9 note=37 velocity=70 time=0
EXTRACT: note_on channel=9 note=35 velocity=117 time=0
EXTRACT: note_off channel=9 note=35 velocity=0 time=0.027173875
EXTRACT: note_off channel=9 note=37 velocity=0 time=0
EXTRACT: note_off channel=9 note=42 velocity=0 time=0
EXTRACT: note_off channel=9 note=49 velocity=0 time=0
EXTRACT: note_off channel=9 note=36 velocity=64 time=0.027173875
EXTRACT: note_off channel=9 note=36 velocity=64 time=0
EXTRACT: note_off channel=9 note=36 velocity=64 time=0
EXTRACT: note_off channel=9 note=36 velocity=64 time=0
EXTRACT: note_on channel=13 note=70 velocity=115 time=0.59782525
EXTRACT: note_on channel=13 note=58 velocity=115 time=0
EXTRACT: note_on channel=14 note=94 velocity=115 time=0
EXTRACT: note_on channel=15 note=73 velocity=90 time=0
EXTRACT: note_off channel=15 note=73 velocity=0 time=0.03623183333333334
EXTRACT: note_off channel=13 note=58 velocity=0 time=0.0135869375
EXTRACT: note_off channel=13 note=70 velocity=0 time=0
EXTRACT: note_off channel=14 note=94 velocity=0 time=0
EXTRACT: note_on channel=13 note=70 velocity=115 time=0.05887672916666667
EXTRACT: note_on channel=13 note=58 velocity=115 time=0
EXTRACT: note_on channel=14 note=94 velocity=115 time=0
EXTRACT: note_on channel=15 note=73 velocity=90 time=0
EXTRACT: note_off channel=15 note=73 velocity=0 time=0.04528979166666667
EXTRACT: note_off channel=13 note=58 velocity=0 time=0.004528979166666667
EXTRACT: note_off channel=13 note=70 velocity=0 time=0
EXTRACT: note_off channel=14 note=94 velocity=0 time=0
EXTRACT: note_off channel=7 note=80 velocity=64 time=0.04528979166666667
EXTRACT: note_on channel=13 note=70 velocity=115 time=0.0135869375
EXTRACT: note_on channel=13 note=58 velocity=115 time=0
EXTRACT: note_on channel=14 note=94 velocity=115 time=0
EXTRACT: note_on channel=15 note=73 velocity=90 time=0
EXTRACT: note_off channel=15 note=73 velocity=0 time=0.05887672916666667
EXTRACT: note_off channel=13 note=58 velocity=0 time=0.01811591666666667
EXTRACT: note_off channel=13 note=70 velocity=0 time=0
EXTRACT: note_off channel=14 note=94 velocity=0 time=0
EXTRACT: note_on channel=13 note=70 velocity=115 time=0.14039835416666668
EXTRACT: note_on channel=13 note=58 velocity=115 time=0
EXTRACT: note_on channel=14 note=94 velocity=115 time=0
EXTRACT: note_on channel=15 note=73 velocity=90 time=0
EXTRACT: note_off channel=15 note=73 velocity=0 time=0.07246366666666668
EXTRACT: note_off channel=13 note=58 velocity=0 time=0.11775345833333334
EXTRACT: note_off channel=13 note=70 velocity=0 time=0
EXTRACT: note_on channel=13 note=68 velocity=115 time=0.027173875
EXTRACT: note_on channel=13 note=56 velocity=115 time=0
EXTRACT: note_on channel=14 note=92 velocity=115 time=0
EXTRACT: note_on channel=15 note=71 velocity=90 time=0
EXTRACT: note_off channel=14 note=94 velocity=0 time=0.027173875
EXTRACT: note_off channel=15 note=71 velocity=0 time=0.04981877083333334
EXTRACT: note_off channel=13 note=56 velocity=0 time=0.0135869375
EXTRACT: note_off channel=13 note=68 velocity=0 time=0
EXTRACT: note_off channel=14 note=92 velocity=0 time=0
EXTRACT: note_on channel=13 note=68 velocity=115 time=0.12681141666666668
EXTRACT: note_on channel=13 note=56 velocity=115 time=0
EXTRACT: note_on channel=14 note=92 velocity=115 time=0
EXTRACT: note_on channel=15 note=71 velocity=90 time=0
EXTRACT: note_off channel=2 note=102 velocity=64 time=0.004528979166666667
EXTRACT: note_off channel=2 note=90 velocity=64 time=0.01811591666666667
EXTRACT: note_off channel=13 note=56 velocity=0 time=0.05887672916666667
EXTRACT: note_off channel=13 note=68 velocity=0 time=0
EXTRACT: note_off channel=15 note=71 velocity=0 time=0
EXTRACT: note_off channel=14 note=92 velocity=0 time=0.0407608125
EXTRACT: note_on channel=4 note=66 velocity=105 time=0.09510856250000001
EXTRACT: note_on channel=4 note=61 velocity=105 time=0
EXTRACT: note_on channel=8 note=54 velocity=127 time=0
EXTRACT: note_on channel=9 note=36 velocity=127 time=0
EXTRACT: note_on channel=9 note=36 velocity=127 time=0
EXTRACT: note_on channel=9 note=36 velocity=127 time=0
EXTRACT: note_on channel=9 note=36 velocity=127 time=0
EXTRACT: note_on channel=9 note=42 velocity=127 time=0
EXTRACT: note_on channel=9 note=49 velocity=85 time=0
EXTRACT: note_on channel=13 note=66 velocity=115 time=0
EXTRACT: note_on channel=13 note=54 velocity=115 time=0
EXTRACT: note_on channel=14 note=90 velocity=115 time=0
EXTRACT: note_on channel=15 note=70 velocity=90 time=0
EXTRACT: note_off channel=9 note=49 velocity=0 time=0.027173875
EXTRACT: note_off channel=4 note=61 velocity=0 time=0.027173875
EXTRACT: note_off channel=4 note=66 velocity=0 time=0
EXTRACT: note_off channel=9 note=42 velocity=0 time=0
EXTRACT: note_off channel=9 note=36 velocity=64 time=0
EXTRACT: note_off channel=9 note=36 velocity=64 time=0
EXTRACT: note_off channel=9 note=36 velocity=64 time=0
EXTRACT: note_off channel=9 note=36 velocity=64 time=0
EXTRACT: note_off channel=8 note=54 velocity=0 time=0.05434775
EXTRACT: note_off channel=15 note=70 velocity=0 time=0.01811591666666667
EXTRACT: note_on channel=1 note=42 velocity=110 time=0.09057958333333334
EXTRACT: note_on channel=1 note=54 velocity=110 time=0
EXTRACT: note_on channel=4 note=66 velocity=105 time=0
EXTRACT: note_on channel=4 note=61 velocity=105 time=0
EXTRACT: note_on channel=8 note=66 velocity=127 time=0
EXTRACT: note_on channel=9 note=46 velocity=127 time=0
EXTRACT: note_on channel=0 note=54 velocity=120 time=0
EXTRACT: note_off channel=4 note=61 velocity=0 time=0.05434775
EXTRACT: note_off channel=4 note=66 velocity=0 time=0
EXTRACT: note_off channel=9 note=46 velocity=0 time=0
EXTRACT: note_off channel=13 note=54 velocity=0 time=0
EXTRACT: note_off channel=13 note=66 velocity=0 time=0
EXTRACT: note_off channel=14 note=90 velocity=0 time=0.01811591666666667
EXTRACT: note_off channel=8 note=66 velocity=0 time=0.03623183333333334
EXTRACT: note_on channel=13 note=61 velocity=115 time=0
EXTRACT: note_on channel=13 note=49 velocity=115 time=0
EXTRACT: note_on channel=14 note=85 velocity=115 time=0
EXTRACT: note_on channel=15 note=66 velocity=90 time=0
EXTRACT: note_off channel=1 note=54 velocity=0 time=0.05434775
EXTRACT: note_off channel=1 note=42 velocity=0 time=0
EXTRACT: note_off channel=0 note=54 velocity=0 time=0
EXTRACT: note_off channel=15 note=66 velocity=0 time=0.0407608125
EXTRACT: note_on channel=4 note=66 velocity=105 time=0.0135869375
EXTRACT: note_on channel=4 note=61 velocity=105 time=0
EXTRACT: note_on channel=8 note=54 velocity=127 time=0
EXTRACT: note_on channel=9 note=36 velocity=127 time=0
EXTRACT: note_on channel=9 note=36 velocity=127 time=0
EXTRACT: note_on channel=9 note=36 velocity=127 time=0
EXTRACT: note_on channel=9 note=36 velocity=127 time=0
EXTRACT: note_on channel=9 note=28 velocity=127 time=0
EXTRACT: note_on channel=9 note=42 velocity=127 time=0
EXTRACT: note_on channel=9 note=76 velocity=80 time=0
EXTRACT: note_off channel=13 note=49 velocity=0 time=0
EXTRACT: note_off channel=13 note=61 velocity=0 time=0
EXTRACT: note_off channel=14 note=85 velocity=0 time=0
EXTRACT: note_off channel=9 note=76 velocity=0 time=0.027173875
EXTRACT: note_off channel=4 note=61 velocity=0 time=0.027173875
EXTRACT: note_off channel=4 note=66 velocity=0 time=0
EXTRACT: note_off channel=9 note=42 velocity=0 time=0
EXTRACT: note_off channel=9 note=36 velocity=64 time=0
EXTRACT: note_off channel=9 note=36 velocity=64 time=0
EXTRACT: note_off channel=9 note=36 velocity=64 time=0
EXTRACT: note_off channel=9 note=36 velocity=64 time=0
EXTRACT: note_off channel=8 note=54 velocity=0 time=0.05434775
EXTRACT: note_on channel=1 note=42 velocity=110 time=0.1086955
EXTRACT: note_on channel=1 note=54 velocity=110 time=0
EXTRACT: note_on channel=8 note=66 velocity=127 time=0
EXTRACT: note_on channel=9 note=46 velocity=127 time=0
EXTRACT: note_on channel=9 note=76 velocity=80 time=0
EXTRACT: note_on channel=13 note=61 velocity=115 time=0
EXTRACT: note_on channel=13 note=49 velocity=115 time=0
EXTRACT: note_on channel=14 note=85 velocity=115 time=0
EXTRACT: note_on channel=15 note=66 velocity=90 time=0
EXTRACT: note_on channel=0 note=54 velocity=120 time=0
EXTRACT: note_off channel=9 note=76 velocity=0 time=0.027173875
EXTRACT: note_off channel=9 note=46 velocity=0 time=0.027173875
EXTRACT: note_off channel=15 note=66 velocity=0 time=0.01811591666666667
EXTRACT: note_off channel=8 note=66 velocity=0 time=0.01811591666666667
EXTRACT: note_on channel=4 note=66 velocity=105 time=0.01811591666666667
EXTRACT: note_on channel=4 note=61 velocity=105 time=0
EXTRACT: note_on channel=8 note=66 velocity=127 time=0
EXTRACT: note_off channel=1 note=54 velocity=0 time=0.05434775
EXTRACT: note_off channel=1 note=42 velocity=0 time=0
EXTRACT: note_off channel=4 note=61 velocity=0 time=0
EXTRACT: note_off channel=4 note=66 velocity=0 time=0
EXTRACT: note_off channel=13 note=49 velocity=0 time=0
EXTRACT: note_off channel=13 note=61 velocity=0 time=0
EXTRACT: note_off channel=14 note=85 velocity=0 time=0
EXTRACT: note_off channel=0 note=54 velocity=0 time=0
EXTRACT: note_off channel=9 note=28 velocity=0 time=0.0407608125
EXTRACT: note_on channel=4 note=61 velocity=105 time=0.0135869375
EXTRACT: note_on channel=4 note=56 velocity=105 time=0
EXTRACT: note_off channel=8 note=66 velocity=0 time=0
EXTRACT: note_on channel=8 note=49 velocity=127 time=0
EXTRACT: note_on channel=9 note=36 velocity=127 time=0
EXTRACT: note_on channel=9 note=36 velocity=127 time=0
EXTRACT: note_on channel=9 note=36 velocity=127 time=0
EXTRACT: note_on channel=9 note=36 velocity=127 time=0
EXTRACT: note_on channel=9 note=42 velocity=127 time=0
EXTRACT: note_on channel=13 note=61 velocity=115 time=0
EXTRACT: note_on channel=13 note=49 velocity=115 time=0
EXTRACT: note_on channel=14 note=85 velocity=115 time=0
EXTRACT: note_on channel=15 note=66 velocity=90 time=0
EXTRACT: note_off channel=4 note=56 velocity=0 time=0.05434775
EXTRACT: note_off channel=4 note=61 velocity=0 time=0
EXTRACT: note_off channel=9 note=42 velocity=0 time=0
EXTRACT: note_off channel=9 note=36 velocity=64 time=0
EXTRACT: note_off channel=9 note=36 velocity=64 time=0
EXTRACT: note_off channel=9 note=36 velocity=64 time=0
EXTRACT: note_off channel=9 note=36 velocity=64 time=0
EXTRACT: note_off channel=15 note=66 velocity=0 time=0.022644895833333335
EXTRACT: note_off channel=13 note=49 velocity=0 time=0.009057958333333335
EXTRACT: note_off channel=13 note=61 velocity=0 time=0
EXTRACT: note_off channel=14 note=85 velocity=0 time=0
EXTRACT: note_off channel=8 note=49 velocity=0 time=0.022644895833333335
EXTRACT: note_on channel=1 note=37 velocity=110 time=0.1086955
EXTRACT: note_on channel=1 note=49 velocity=110 time=0
EXTRACT: note_on channel=4 note=61 velocity=105 time=0
EXTRACT: note_on channel=4 note=56 velocity=105 time=0
EXTRACT: note_on channel=8 note=61 velocity=127 time=0
EXTRACT: note_on channel=9 note=46 velocity=127 time=0
EXTRACT: note_on channel=13 note=61 velocity=115 time=0
EXTRACT: note_on channel=13 note=49 velocity=115 time=0
EXTRACT: note_on channel=14 note=85 velocity=115 time=0
EXTRACT: note_on channel=15 note=66 velocity=90 time=0
EXTRACT: note_on channel=0 note=49 velocity=120 time=0
EXTRACT: note_off channel=4 note=56 velocity=0 time=0.05434775
EXTRACT: note_off channel=4 note=61 velocity=0 time=0
EXTRACT: note_off channel=9 note=46 velocity=0 time=0
EXTRACT: note_off channel=13 note=49 velocity=0 time=0.022644895833333335
EXTRACT: note_off channel=13 note=61 velocity=0 time=0
EXTRACT: note_off channel=14 note=85 velocity=0 time=0
EXTRACT: note_off channel=15 note=66 velocity=0 time=0
EXTRACT: note_off channel=8 note=61 velocity=0 time=0.03170285416666667
EXTRACT: note_on channel=9 note=36 velocity=127 time=0
EXTRACT: note_on channel=9 note=36 velocity=127 time=0
EXTRACT: note_on channel=9 note=36 velocity=127 time=0
EXTRACT: note_on channel=9 note=36 velocity=127 time=0
EXTRACT: note_off channel=1 note=49 velocity=0 time=0.05434775
EXTRACT: note_off channel=1 note=37 velocity=0 time=0
EXTRACT: note_off channel=9 note=36 velocity=64 time=0
EXTRACT: note_off channel=9 note=36 velocity=64 time=0
EXTRACT: note_off channel=9 note=36 velocity=64 time=0
EXTRACT: note_off channel=9 note=36 velocity=64 time=0
EXTRACT: note_off channel=0 note=49 velocity=0 time=0
EXTRACT: note_on channel=4 note=61 velocity=105 time=0.05434775
EXTRACT: note_on channel=4 note=56 velocity=105 time=0
EXTRACT: note_on channel=8 note=49 velocity=127 time=0
EXTRACT: note_on channel=9 note=36 velocity=127 time=0
EXTRACT: note_on channel=9 note=36 velocity=127 time=0
EXTRACT: note_on channel=9 note=36 velocity=127 time=0
EXTRACT: note_on channel=9 note=36 velocity=127 time=0
EXTRACT: note_on channel=9 note=28 velocity=127 time=0
EXTRACT: note_on channel=9 note=42 velocity=127 time=0
EXTRACT: note_on channel=9 note=76 velocity=80 time=0
EXTRACT: note_on channel=13 note=68 velocity=115 time=0
EXTRACT: note_on channel=13 note=56 velocity=115 time=0
EXTRACT: note_on channel=14 note=92 velocity=115 time=0
EXTRACT: note_on channel=15 note=71 velocity=90 time=0
EXTRACT: note_off channel=9 note=76 velocity=0 time=0.027173875
EXTRACT: note_off channel=4 note=56 velocity=0 time=0.027173875
EXTRACT: note_off channel=4 note=61 velocity=0 time=0
EXTRACT: note_off channel=9 note=42 velocity=0 time=0
EXTRACT: note_off channel=9 note=36 velocity=64 time=0
EXTRACT: note_off channel=9 note=36 velocity=64 time=0
EXTRACT: note_off channel=9 note=36 velocity=64 time=0
EXTRACT: note_off channel=9 note=36 velocity=64 time=0
EXTRACT: note_off channel=13 note=56 velocity=0 time=0.0135869375
EXTRACT: note_off channel=13 note=68 velocity=0 time=0
EXTRACT: note_off channel=14 note=92 velocity=0 time=0
EXTRACT: note_off channel=15 note=71 velocity=0 time=0.027173875
EXTRACT: note_off channel=8 note=49 velocity=0 time=0.0135869375
EXTRACT: note_on channel=1 note=37 velocity=110 time=0.1086955
EXTRACT: note_on channel=1 note=49 velocity=110 time=0
EXTRACT: note_on channel=8 note=61 velocity=127 time=0
EXTRACT: note_on channel=9 note=36 velocity=127 time=0
EXTRACT: note_on channel=9 note=36 velocity=127 time=0
EXTRACT: note_on channel=9 note=36 velocity=127 time=0
EXTRACT: note_on channel=9 note=36 velocity=127 time=0
EXTRACT: note_on channel=9 note=46 velocity=127 time=0
EXTRACT: note_on channel=13 note=68 velocity=115 time=0
EXTRACT: note_on channel=13 note=56 velocity=115 time=0
EXTRACT: note_on channel=14 note=92 velocity=115 time=0
EXTRACT: note_on channel=15 note=71 velocity=90 time=0
EXTRACT: note_on channel=0 note=49 velocity=120 time=0
EXTRACT: note_off channel=9 note=46 velocity=0 time=0.05434775
EXTRACT: note_off channel=9 note=36 velocity=64 time=0
EXTRACT: note_off channel=9 note=36 velocity=64 time=0
EXTRACT: note_off channel=9 note=36 velocity=64 time=0
EXTRACT: note_off channel=9 note=36 velocity=64 time=0
EXTRACT: note_off channel=13 note=56 velocity=0 time=0.027173875
EXTRACT: note_off channel=13 note=68 velocity=0 time=0
EXTRACT: note_off channel=15 note=71 velocity=0 time=0.0135869375
EXTRACT: note_off channel=14 note=92 velocity=0 time=0.009057958333333335
EXTRACT: note_off channel=8 note=61 velocity=0 time=0.004528979166666667
EXTRACT: note_off channel=1 note=49 velocity=0 time=0.05434775
EXTRACT: note_off channel=1 note=37 velocity=0 time=0
EXTRACT: note_off channel=0 note=49 velocity=0 time=0
EXTRACT: note_off channel=9 note=28 velocity=0 time=0.0407608125
EXTRACT: note_on channel=4 note=63 velocity=105 time=0.0135869375
EXTRACT: note_on channel=4 note=58 velocity=105 time=0
EXTRACT: note_on channel=8 note=51 velocity=127 time=0
EXTRACT: note_on channel=9 note=36 velocity=127 time=0
EXTRACT: note_on channel=9 note=36 velocity=127 time=0
EXTRACT: note_on channel=9 note=36 velocity=127 time=0
EXTRACT: note_on channel=9 note=36 velocity=127 time=0
EXTRACT: note_on channel=9 note=42 velocity=127 time=0
EXTRACT: note_on channel=13 note=66 velocity=115 time=0
EXTRACT: note_on channel=13 note=54 velocity=115 time=0
EXTRACT: note_on channel=14 note=90 velocity=115 time=0
EXTRACT: note_on channel=15 note=70 velocity=90 time=0
EXTRACT: note_off channel=4 note=58 velocity=0 time=0.05434775
EXTRACT: note_off channel=4 note=63 velocity=0 time=0
EXTRACT: note_off channel=9 note=42 velocity=0 time=0
EXTRACT: note_off channel=9 note=36 velocity=64 time=0
EXTRACT: note_off channel=9 note=36 velocity=64 time=0
EXTRACT: note_off channel=9 note=36 velocity=64 time=0
EXTRACT: note_off channel=9 note=36 velocity=64 time=0
EXTRACT: note_off channel=15 note=70 velocity=0 time=0.03170285416666667
EXTRACT: note_off channel=8 note=51 velocity=0 time=0.022644895833333335
EXTRACT: note_on channel=1 note=39 velocity=110 time=0.1086955
EXTRACT: note_on channel=1 note=51 velocity=110 time=0
EXTRACT: note_on channel=4 note=63 velocity=105 time=0
EXTRACT: note_on channel=4 note=58 velocity=105 time=0
EXTRACT: note_on channel=8 note=63 velocity=127 time=0
EXTRACT: note_on channel=9 note=46 velocity=127 time=0
EXTRACT: note_on channel=0 note=51 velocity=120 time=0
EXTRACT: note_off channel=4 note=58 velocity=0 time=0.05434775
EXTRACT: note_off channel=4 note=63 velocity=0 time=0
EXTRACT: note_off channel=9 note=46 velocity=0 time=0
EXTRACT: note_off channel=13 note=54 velocity=0 time=0.0135869375
EXTRACT: note_off channel=13 note=66 velocity=0 time=0
EXTRACT: note_off channel=14 note=90 velocity=0 time=0
EXTRACT: note_off channel=8 note=63 velocity=0 time=0.0407608125
EXTRACT: note_on channel=13 note=63 velocity=115 time=0
EXTRACT: note_on channel=13 note=51 velocity=115 time=0
EXTRACT: note_on channel=14 note=87 velocity=115 time=0
EXTRACT: note_on channel=15 note=66 velocity=90 time=0
EXTRACT: note_off channel=1 note=51 velocity=0 time=0.05434775
EXTRACT: note_off channel=1 note=39 velocity=0 time=0
EXTRACT: note_off channel=0 note=51 velocity=0 time=0
EXTRACT: note_off channel=15 note=66 velocity=0 time=0.004528979166666667
EXTRACT: note_on channel=4 note=63 velocity=105 time=0.04981877083333334
EXTRACT: note_on channel=4 note=58 velocity=105 time=0
EXTRACT: note_on channel=8 note=51 velocity=127 time=0
EXTRACT: note_on channel=9 note=36 velocity=127 time=0
EXTRACT: note_on channel=9 note=36 velocity=127 time=0
EXTRACT: note_on channel=9 note=36 velocity=127 time=0
EXTRACT: note_on channel=9 note=36 velocity=127 time=0
EXTRACT: note_on channel=9 note=28 velocity=127 time=0
EXTRACT: note_on channel=9 note=42 velocity=127 time=0
EXTRACT: note_on channel=9 note=76 velocity=80 time=0
EXTRACT: note_off channel=13 note=51 velocity=0 time=0.009057958333333335
EXTRACT: note_off channel=13 note=63 velocity=0 time=0
EXTRACT: note_off channel=14 note=87 velocity=0 time=0
EXTRACT: note_off channel=9 note=76 velocity=0 time=0.01811591666666667
EXTRACT: note_off channel=4 note=58 velocity=0 time=0.027173875
EXTRACT: note_off channel=4 note=63 velocity=0 time=0
EXTRACT: note_off channel=9 note=42 velocity=0 time=0
EXTRACT: note_off channel=9 note=36 velocity=64 time=0
EXTRACT: note_off channel=9 note=36 velocity=64 time=0
EXTRACT: note_off channel=9 note=36 velocity=64 time=0
EXTRACT: note_off channel=9 note=36 velocity=64 time=0
EXTRACT: note_off channel=8 note=51 velocity=0 time=0.05434775
EXTRACT: note_on channel=1 note=39 velocity=110 time=0.1086955
EXTRACT: note_on channel=1 note=51 velocity=110 time=0
EXTRACT: note_on channel=8 note=63 velocity=127 time=0
EXTRACT: note_on channel=9 note=46 velocity=127 time=0
EXTRACT: note_on channel=9 note=76 velocity=80 time=0
EXTRACT: note_on channel=13 note=63 velocity=115 time=0
EXTRACT: note_on channel=13 note=51 velocity=115 time=0
EXTRACT: note_on channel=14 note=87 velocity=115 time=0
EXTRACT: note_on channel=15 note=66 velocity=90 time=0
EXTRACT: note_on channel=0 note=51 velocity=120 time=0
EXTRACT: note_off channel=9 note=76 velocity=0 time=0.027173875
EXTRACT: note_off channel=15 note=66 velocity=0 time=0.01811591666666667
EXTRACT: note_off channel=13 note=51 velocity=0 time=0.004528979166666667
EXTRACT: note_off channel=13 note=63 velocity=0 time=0
EXTRACT: note_off channel=14 note=87 velocity=0 time=0
EXTRACT: note_off channel=9 note=46 velocity=0 time=0.004528979166666667
EXTRACT: note_off channel=8 note=63 velocity=0 time=0.03623183333333334
EXTRACT: note_on channel=4 note=63 velocity=105 time=0.01811591666666667
EXTRACT: note_on channel=4 note=58 velocity=105 time=0
EXTRACT: note_on channel=8 note=63 velocity=127 time=0
EXTRACT: note_on channel=13 note=63 velocity=115 time=0
EXTRACT: note_on channel=13 note=51 velocity=115 time=0
EXTRACT: note_on channel=14 note=87 velocity=115 time=0
EXTRACT: note_on channel=15 note=66 velocity=90 time=0
EXTRACT: note_off channel=1 note=51 velocity=0 time=0.05434775
EXTRACT: note_off channel=1 note=39 velocity=0 time=0
EXTRACT: note_off channel=4 note=58 velocity=0 time=0
EXTRACT: note_off channel=4 note=63 velocity=0 time=0
EXTRACT: note_off channel=0 note=51 velocity=0 time=0
EXTRACT: note_off channel=13 note=51 velocity=0 time=0.004528979166666667
EXTRACT: note_off channel=13 note=63 velocity=0 time=0
EXTRACT: note_off channel=14 note=87 velocity=0 time=0
EXTRACT: note_off channel=15 note=66 velocity=0 time=0
EXTRACT: note_off channel=9 note=28 velocity=0 time=0.03623183333333334
EXTRACT: note_on channel=4 note=63 velocity=105 time=0.0135869375
EXTRACT: note_on channel=4 note=58 velocity=105 time=0
EXTRACT: note_off channel=8 note=63 velocity=0 time=0
EXTRACT: note_on channel=8 note=51 velocity=127 time=0
EXTRACT: note_on channel=9 note=36 velocity=127 time=0
EXTRACT: note_on channel=9 note=36 velocity=127 time=0
EXTRACT: note_on channel=9 note=36 velocity=127 time=0
EXTRACT: note_on channel=9 note=36 velocity=127 time=0
EXTRACT: note_on channel=9 note=42 velocity=127 time=0
EXTRACT: note_on channel=13 note=63 velocity=115 time=0
EXTRACT: note_on channel=13 note=51 velocity=115 time=0
EXTRACT: note_on channel=14 note=87 velocity=115 time=0
EXTRACT: note_on channel=15 note=66 velocity=90 time=0
EXTRACT: note_off channel=4 note=58 velocity=0 time=0.05434775
EXTRACT: note_off channel=4 note=63 velocity=0 time=0
EXTRACT: note_off channel=9 note=42 velocity=0 time=0
EXTRACT: note_off channel=9 note=36 velocity=64 time=0
EXTRACT: note_off channel=9 note=36 velocity=64 time=0
EXTRACT: note_off channel=9 note=36 velocity=64 time=0
EXTRACT: note_off channel=9 note=36 velocity=64 time=0
EXTRACT: note_off channel=13 note=51 velocity=0 time=0.022644895833333335
EXTRACT: note_off channel=13 note=63 velocity=0 time=0
EXTRACT: note_off channel=14 note=87 velocity=0 time=0
EXTRACT: note_off channel=15 note=66 velocity=0 time=0
EXTRACT: note_off channel=8 note=51 velocity=0 time=0.03170285416666667
EXTRACT: note_on channel=1 note=39 velocity=110 time=0.1086955
EXTRACT: note_on channel=1 note=51 velocity=110 time=0
EXTRACT: note_on channel=4 note=63 velocity=105 time=0
EXTRACT: note_on channel=4 note=58 velocity=105 time=0
EXTRACT: note_on channel=8 note=63 velocity=127 time=0
EXTRACT: note_on channel=9 note=46 velocity=127 time=0
EXTRACT: note_on channel=13 note=63 velocity=115 time=0
EXTRACT: note_on channel=13 note=51 velocity=115 time=0
EXTRACT: note_on channel=14 note=87 velocity=115 time=0
EXTRACT: note_on channel=15 note=66 velocity=90 time=0
EXTRACT: note_on channel=0 note=51 velocity=120 time=0
EXTRACT: note_off channel=4 note=58 velocity=0 time=0.05434775
EXTRACT: note_off channel=4 note=63 velocity=0 time=0
EXTRACT: note_off channel=9 note=46 velocity=0 time=0
EXTRACT: note_off channel=15 note=66 velocity=0 time=0.027173875
EXTRACT: note_off channel=13 note=51 velocity=0 time=0.004528979166666667
EXTRACT: note_off channel=13 note=63 velocity=0 time=0
EXTRACT: note_off channel=14 note=87 velocity=0 time=0
EXTRACT: note_off channel=8 note=63 velocity=0 time=0.022644895833333335
EXTRACT: note_on channel=9 note=36 velocity=127 time=0
EXTRACT: note_on channel=9 note=36 velocity=127 time=0
EXTRACT: note_on channel=9 note=36 velocity=127 time=0
EXTRACT: note_on channel=9 note=36 velocity=127 time=0
EXTRACT: note_off channel=1 note=51 velocity=0 time=0.05434775
EXTRACT: note_off channel=1 note=39 velocity=0 time=0
EXTRACT: note_off channel=9 note=36 velocity=64 time=0
EXTRACT: note_off channel=9 note=36 velocity=64 time=0
EXTRACT: note_off channel=9 note=36 velocity=64 time=0
EXTRACT: note_off channel=9 note=36 velocity=64 time=0
EXTRACT: note_off channel=0 note=51 velocity=0 time=0
EXTRACT: note_on channel=4 note=63 velocity=105 time=0.05434775
EXTRACT: note_on channel=4 note=58 velocity=105 time=0
EXTRACT: note_on channel=8 note=51 velocity=127 time=0
EXTRACT: note_on channel=9 note=36 velocity=127 time=0
EXTRACT: note_on channel=9 note=36 velocity=127 time=0
EXTRACT: note_on channel=9 note=36 velocity=127 time=0
EXTRACT: note_on channel=9 note=36 velocity=127 time=0
EXTRACT: note_on channel=9 note=28 velocity=127 time=0
EXTRACT: note_on channel=9 note=42 velocity=127 time=0
EXTRACT: note_on channel=9 note=76 velocity=80 time=0
EXTRACT: note_on channel=13 note=66 velocity=115 time=0
EXTRACT: note_on channel=13 note=54 velocity=115 time=0
EXTRACT: note_on channel=14 note=90 velocity=115 time=0
EXTRACT: note_on channel=15 note=70 velocity=90 time=0
EXTRACT: note_off channel=9 note=76 velocity=0 time=0.027173875
EXTRACT: note_off channel=4 note=58 velocity=0 time=0.027173875
EXTRACT: note_off channel=4 note=63 velocity=0 time=0
EXTRACT: note_off channel=9 note=42 velocity=0 time=0
EXTRACT: note_off channel=9 note=36 velocity=64 time=0
EXTRACT: note_off channel=9 note=36 velocity=64 time=0
EXTRACT: note_off channel=9 note=36 velocity=64 time=0
EXTRACT: note_off channel=9 note=36 velocity=64 time=0
EXTRACT: note_off channel=13 note=54 velocity=0 time=0.01811591666666667
EXTRACT: note_off channel=13 note=66 velocity=0 time=0
EXTRACT: note_off channel=14 note=90 velocity=0 time=0
EXTRACT: note_off channel=15 note=70 velocity=0 time=0.0135869375
EXTRACT: note_off channel=8 note=51 velocity=0 time=0.022644895833333335
EXTRACT: note_on channel=1 note=39 velocity=110 time=0.1086955
EXTRACT: note_on channel=1 note=51 velocity=110 time=0
EXTRACT: note_on channel=8 note=63 velocity=127 time=0
EXTRACT: note_on channel=9 note=36 velocity=127 time=0
EXTRACT: note_on channel=9 note=36 velocity=127 time=0
EXTRACT: note_on channel=9 note=36 velocity=127 time=0
EXTRACT: note_on channel=9 note=36 velocity=127 time=0
EXTRACT: note_on channel=9 note=46 velocity=127 time=0
EXTRACT: note_on channel=13 note=68 velocity=115 time=0
EXTRACT: note_on channel=13 note=56 velocity=115 time=0
EXTRACT: note_on channel=14 note=92 velocity=115 time=0
EXTRACT: note_on channel=15 note=71 velocity=90 time=0
EXTRACT: note_on channel=0 note=51 velocity=120 time=0
EXTRACT: note_off channel=9 note=46 velocity=0 time=0.05434775
EXTRACT: note_off channel=9 note=36 velocity=64 time=0
EXTRACT: note_off channel=9 note=36 velocity=64 time=0
EXTRACT: note_off channel=9 note=36 velocity=64 time=0
EXTRACT: note_off channel=9 note=36 velocity=64 time=0
EXTRACT: note_off channel=13 note=56 velocity=0 time=0.01811591666666667
EXTRACT: note_off channel=13 note=68 velocity=0 time=0
EXTRACT: note_off channel=14 note=92 velocity=0 time=0
EXTRACT: note_off channel=15 note=71 velocity=0 time=0.03170285416666667
EXTRACT: note_off channel=8 note=63 velocity=0 time=0.004528979166666667
EXTRACT: note_off channel=1 note=51 velocity=0 time=0.05434775
EXTRACT: note_off channel=1 note=39 velocity=0 time=0
EXTRACT: note_off channel=0 note=51 velocity=0 time=0
EXTRACT: note_off channel=9 note=28 velocity=0 time=0.0407608125
EXTRACT: note_on channel=4 note=59 velocity=105 time=0.0135869375
EXTRACT: note_on channel=4 note=54 velocity=105 time=0
EXTRACT: note_on channel=8 note=47 velocity=127 time=0
EXTRACT: note_on channel=9 note=36 velocity=127 time=0
EXTRACT: note_on channel=9 note=36 velocity=127 time=0
EXTRACT: note_on channel=9 note=36 velocity=127 time=0
EXTRACT: note_on channel=9 note=36 velocity=127 time=0
EXTRACT: note_on channel=9 note=42 velocity=127 time=0
EXTRACT: note_on channel=13 note=70 velocity=115 time=0
EXTRACT: note_on channel=13 note=58 velocity=115 time=0
EXTRACT: note_on channel=14 note=94 velocity=115 time=0
EXTRACT: note_on channel=15 note=73 velocity=90 time=0
EXTRACT: note_off channel=4 note=54 velocity=0 time=0.05434775
EXTRACT: note_off channel=4 note=59 velocity=0 time=0
EXTRACT: note_off channel=9 note=42 velocity=0 time=0
EXTRACT: note_off channel=9 note=36 velocity=64 time=0
EXTRACT: note_off channel=9 note=36 velocity=64 time=0
EXTRACT: note_off channel=9 note=36 velocity=64 time=0
EXTRACT: note_off channel=9 note=36 velocity=64 time=0
EXTRACT: note_off channel=15 note=73 velocity=0 time=0.03170285416666667
EXTRACT: note_off channel=8 note=47 velocity=0 time=0.022644895833333335
EXTRACT: note_on channel=1 note=35 velocity=110 time=0.1086955
EXTRACT: note_on channel=1 note=47 velocity=110 time=0
EXTRACT: note_on channel=4 note=59 velocity=105 time=0
EXTRACT: note_on channel=4 note=54 velocity=105 time=0
EXTRACT: note_on channel=8 note=59 velocity=127 time=0
EXTRACT: note_on channel=9 note=46 velocity=127 time=0
EXTRACT: note_on channel=0 note=47 velocity=120 time=0
EXTRACT: note_off channel=4 note=54 velocity=0 time=0.05434775
EXTRACT: note_off channel=4 note=59 velocity=0 time=0
EXTRACT: note_off channel=9 note=46 velocity=0 time=0
EXTRACT: note_off channel=13 note=58 velocity=0 time=0.009057958333333335
EXTRACT: note_off channel=13 note=70 velocity=0 time=0
EXTRACT: note_off channel=14 note=94 velocity=0 time=0
EXTRACT: note_off channel=8 note=59 velocity=0 time=0.04528979166666667
EXTRACT: note_on channel=13 note=66 velocity=115 time=0
EXTRACT: note_on channel=13 note=54 velocity=115 time=0
EXTRACT: note_on channel=14 note=90 velocity=115 time=0
EXTRACT: note_on channel=15 note=70 velocity=90 time=0
EXTRACT: note_off channel=1 note=47 velocity=0 time=0.05434775
EXTRACT: note_off channel=1 note=35 velocity=0 time=0
EXTRACT: note_off channel=0 note=47 velocity=0 time=0
EXTRACT: note_off channel=15 note=70 velocity=0 time=0.022644895833333335
EXTRACT: note_off channel=13 note=54 velocity=0 time=0.022644895833333335
EXTRACT: note_off channel=13 note=66 velocity=0 time=0
EXTRACT: note_off channel=14 note=90 velocity=0 time=0
EXTRACT: note_on channel=4 note=59 velocity=105 time=0.009057958333333335
EXTRACT: note_on channel=4 note=54 velocity=105 time=0
EXTRACT: note_on channel=8 note=47 velocity=127 time=0
EXTRACT: note_on channel=9 note=36 velocity=127 time=0
EXTRACT: note_on channel=9 note=36 velocity=127 time=0
EXTRACT: note_on channel=9 note=36 velocity=127 time=0
EXTRACT: note_on channel=9 note=36 velocity=127 time=0
EXTRACT: note_on channel=9 note=28 velocity=127 time=0
EXTRACT: note_on channel=9 note=42 velocity=127 time=0
EXTRACT: note_on channel=9 note=76 velocity=80 time=0
EXTRACT: note_off channel=9 note=76 velocity=0 time=0.027173875
EXTRACT: note_off channel=4 note=54 velocity=0 time=0.027173875
EXTRACT: note_off channel=4 note=59 velocity=0 time=0
EXTRACT: note_off channel=9 note=42 velocity=0 time=0
EXTRACT: note_off channel=9 note=36 velocity=64 time=0
EXTRACT: note_off channel=9 note=36 velocity=64 time=0
EXTRACT: note_off channel=9 note=36 velocity=64 time=0
EXTRACT: note_off channel=9 note=36 velocity=64 time=0
EXTRACT: note_off channel=8 note=47 velocity=0 time=0.05434775
EXTRACT: note_on channel=1 note=35 velocity=110 time=0.1086955
EXTRACT: note_on channel=1 note=47 velocity=110 time=0
EXTRACT: note_on channel=8 note=59 velocity=127 time=0
EXTRACT: note_on channel=9 note=46 velocity=127 time=0
EXTRACT: note_on channel=9 note=76 velocity=80 time=0
EXTRACT: note_on channel=13 note=59 velocity=115 time=0
EXTRACT: note_on channel=13 note=47 velocity=115 time=0
EXTRACT: note_on channel=14 note=83 velocity=115 time=0
EXTRACT: note_on channel=15 note=63 velocity=90 time=0
EXTRACT: note_on channel=0 note=47 velocity=120 time=0
EXTRACT: note_off channel=9 note=76 velocity=0 time=0.027173875
EXTRACT: note_off channel=9 note=46 velocity=0 time=0.027173875
EXTRACT: note_off channel=15 note=63 velocity=0 time=0.022644895833333335
EXTRACT: note_off channel=13 note=47 velocity=0 time=0.009057958333333335
EXTRACT: note_off channel=13 note=59 velocity=0 time=0
EXTRACT: note_off channel=14 note=83 velocity=0 time=0
EXTRACT: note_off channel=8 note=59 velocity=0 time=0.004528979166666667
EXTRACT: note_on channel=4 note=59 velocity=105 time=0.01811591666666667
EXTRACT: note_on channel=4 note=54 velocity=105 time=0
EXTRACT: note_on channel=8 note=59 velocity=127 time=0
EXTRACT: note_off channel=1 note=47 velocity=0 time=0.05434775
EXTRACT: note_off channel=1 note=35 velocity=0 time=0
EXTRACT: note_off channel=4 note=54 velocity=0 time=0
EXTRACT: note_off channel=4 note=59 velocity=0 time=0
EXTRACT: note_off channel=0 note=47 velocity=0 time=0
EXTRACT: note_off channel=9 note=28 velocity=0 time=0.0407608125
EXTRACT: note_on channel=4 note=61 velocity=105 time=0.0135869375
EXTRACT: note_on channel=4 note=56 velocity=105 time=0
EXTRACT: note_off channel=8 note=59 velocity=0 time=0
EXTRACT: note_on channel=8 note=49 velocity=127 time=0
EXTRACT: note_on channel=9 note=36 velocity=127 time=0
EXTRACT: note_on channel=9 note=36 velocity=127 time=0
EXTRACT: note_on channel=9 note=36 velocity=127 time=0
EXTRACT: note_on channel=9 note=36 velocity=127 time=0
EXTRACT: note_on channel=9 note=42 velocity=127 time=0
EXTRACT: note_on channel=13 note=59 velocity=115 time=0
EXTRACT: note_on channel=13 note=47 velocity=115 time=0
EXTRACT: note_on channel=14 note=83 velocity=115 time=0
EXTRACT: note_on channel=15 note=63 velocity=90 time=0
EXTRACT: note_off channel=4 note=56 velocity=0 time=0.05434775
EXTRACT: note_off channel=4 note=61 velocity=0 time=0
EXTRACT: note_off channel=9 note=42 velocity=0 time=0
EXTRACT: note_off channel=9 note=36 velocity=64 time=0
EXTRACT: note_off channel=9 note=36 velocity=64 time=0
EXTRACT: note_off channel=9 note=36 velocity=64 time=0
EXTRACT: note_off channel=9 note=36 velocity=64 time=0
EXTRACT: note_off channel=15 note=63 velocity=0 time=0.004528979166666667
EXTRACT: note_off channel=13 note=47 velocity=0 time=0.022644895833333335
EXTRACT: note_off channel=13 note=59 velocity=0 time=0
EXTRACT: note_off channel=14 note=83 velocity=0 time=0
EXTRACT: note_off channel=8 note=49 velocity=0 time=0.027173875
EXTRACT: note_on channel=1 note=37 velocity=110 time=0.1086955
EXTRACT: note_on channel=1 note=49 velocity=110 time=0
EXTRACT: note_on channel=4 note=61 velocity=105 time=0
EXTRACT: note_on channel=4 note=56 velocity=105 time=0
EXTRACT: note_on channel=8 note=61 velocity=127 time=0
EXTRACT: note_on channel=9 note=46 velocity=127 time=0
EXTRACT: note_on channel=13 note=59 velocity=115 time=0
EXTRACT: note_on channel=13 note=47 velocity=115 time=0
EXTRACT: note_on channel=14 note=83 velocity=115 time=0
EXTRACT: note_on channel=15 note=63 velocity=90 time=0
EXTRACT: note_on channel=0 note=49 velocity=120 time=0
EXTRACT: note_off channel=4 note=56 velocity=0 time=0.05434775
EXTRACT: note_off channel=4 note=61 velocity=0 time=0
EXTRACT: note_off channel=9 note=46 velocity=0 time=0
EXTRACT: note_off channel=15 note=63 velocity=0 time=0.004528979166666667
EXTRACT: note_off channel=13 note=47 velocity=0 time=0.0135869375
EXTRACT: note_off channel=13 note=59 velocity=0 time=0
EXTRACT: note_off channel=14 note=83 velocity=0 time=0
EXTRACT: note_off channel=8 note=61 velocity=0 time=0.03623183333333334
EXTRACT: note_on channel=9 note=36 velocity=127 time=0
EXTRACT: note_on channel=9 note=36 velocity=127 time=0
EXTRACT: note_on channel=9 note=36 velocity=127 time=0
EXTRACT: note_on channel=9 note=36 velocity=127 time=0
EXTRACT: note_off channel=1 note=49 velocity=0 time=0.05434775
EXTRACT: note_off channel=1 note=37 velocity=0 time=0
EXTRACT: note_off channel=9 note=36 velocity=64 time=0
EXTRACT: note_off channel=9 note=36 velocity=64 time=0
EXTRACT: note_off channel=9 note=36 velocity=64 time=0
EXTRACT: note_off channel=9 note=36 velocity=64 time=0
EXTRACT: note_off channel=0 note=49 velocity=0 time=0
EXTRACT: note_on channel=4 note=61 velocity=105 time=0.05434775
EXTRACT: note_on channel=4 note=56 velocity=105 time=0
EXTRACT: note_on channel=8 note=49 velocity=127 time=0
EXTRACT: note_on channel=9 note=36 velocity=127 time=0
EXTRACT: note_on channel=9 note=36 velocity=127 time=0
EXTRACT: note_on channel=9 note=36 velocity=127 time=0
EXTRACT: note_on channel=9 note=36 velocity=127 time=0
EXTRACT: note_on channel=9 note=28 velocity=127 time=0
EXTRACT: note_on channel=9 note=42 velocity=127 time=0
EXTRACT: note_on channel=9 note=76 velocity=80 time=0
EXTRACT: note_on channel=13 note=59 velocity=115 time=0
EXTRACT: note_on channel=13 note=47 velocity=115 time=0
EXTRACT: note_on channel=14 note=83 velocity=115 time=0
EXTRACT: note_on channel=15 note=63 velocity=90 time=0
EXTRACT: note_off channel=9 note=76 velocity=0 time=0.027173875
EXTRACT: note_off channel=4 note=56 velocity=0 time=0.027173875
EXTRACT: note_off channel=4 note=61 velocity=0 time=0
EXTRACT: note_off channel=9 note=42 velocity=0 time=0
EXTRACT: note_off channel=9 note=36 velocity=64 time=0
EXTRACT: note_off channel=9 note=36 velocity=64 time=0
EXTRACT: note_off channel=9 note=36 velocity=64 time=0
EXTRACT: note_off channel=9 note=36 velocity=64 time=0
EXTRACT: note_off channel=15 note=63 velocity=0 time=0.004528979166666667
EXTRACT: note_off channel=13 note=47 velocity=0 time=0.0135869375
EXTRACT: note_off channel=13 note=59 velocity=0 time=0
EXTRACT: note_off channel=14 note=83 velocity=0 time=0
EXTRACT: note_off channel=8 note=49 velocity=0 time=0.03623183333333334
EXTRACT: note_on channel=1 note=37 velocity=110 time=0.1086955
EXTRACT: note_on channel=1 note=49 velocity=110 time=0
EXTRACT: note_on channel=8 note=61 velocity=127 time=0
EXTRACT: note_on channel=9 note=36 velocity=127 time=0
EXTRACT: note_on channel=9 note=36 velocity=127 time=0
EXTRACT: note_on channel=9 note=36 velocity=127 time=0
EXTRACT: note_on channel=9 note=36 velocity=127 time=0
EXTRACT: note_on channel=9 note=46 velocity=127 time=0
EXTRACT: note_on channel=13 note=59 velocity=115 time=0
EXTRACT: note_on channel=13 note=47 velocity=115 time=0
EXTRACT: note_on channel=14 note=83 velocity=115 time=0
EXTRACT: note_on channel=15 note=63 velocity=90 time=0
EXTRACT: note_on channel=0 note=49 velocity=120 time=0
EXTRACT: note_off channel=9 note=46 velocity=0 time=0.05434775
EXTRACT: note_off channel=9 note=36 velocity=64 time=0
EXTRACT: note_off channel=9 note=36 velocity=64 time=0
EXTRACT: note_off channel=9 note=36 velocity=64 time=0
EXTRACT: note_off channel=9 note=36 velocity=64 time=0
EXTRACT: note_off channel=15 note=63 velocity=0 time=0.009057958333333335
EXTRACT: note_off channel=13 note=47 velocity=0 time=0.0135869375
EXTRACT: note_off channel=13 note=59 velocity=0 time=0
EXTRACT: note_off channel=14 note=83 velocity=0 time=0
EXTRACT: note_off channel=8 note=61 velocity=0 time=0.03170285416666667
EXTRACT: note_off channel=1 note=49 velocity=0 time=0.05434775
EXTRACT: note_off channel=1 note=37 velocity=0 time=0
EXTRACT: note_off channel=0 note=49 velocity=0 time=0
EXTRACT: note_off channel=9 note=28 velocity=0 time=0.0407608125
EXTRACT: note_on channel=4 note=66 velocity=105 time=0.0135869375
EXTRACT: note_on channel=4 note=61 velocity=105 time=0
EXTRACT: note_on channel=8 note=54 velocity=127 time=0
EXTRACT: note_on channel=9 note=36 velocity=127 time=0
EXTRACT: note_on channel=9 note=36 velocity=127 time=0
EXTRACT: note_on channel=9 note=36 velocity=127 time=0
EXTRACT: note_on channel=9 note=36 velocity=127 time=0
EXTRACT: note_on channel=9 note=42 velocity=127 time=0
EXTRACT: note_on channel=13 note=58 velocity=115 time=0
EXTRACT: note_on channel=13 note=46 velocity=115 time=0
EXTRACT: note_on channel=14 note=82 velocity=115 time=0
EXTRACT: note_on channel=15 note=61 velocity=90 time=0
EXTRACT: note_off channel=4 note=61 velocity=0 time=0.05434775
EXTRACT: note_off channel=4 note=66 velocity=0 time=0
EXTRACT: note_off channel=9 note=42 velocity=0 time=0
EXTRACT: note_off channel=9 note=36 velocity=64 time=0
EXTRACT: note_off channel=9 note=36 velocity=64 time=0
EXTRACT: note_off channel=9 note=36 velocity=64 time=0
EXTRACT: note_off channel=9 note=36 velocity=64 time=0
EXTRACT: note_off channel=8 note=54 velocity=0 time=0.05434775
EXTRACT: note_on channel=1 note=42 velocity=110 time=0.1086955
EXTRACT: note_on channel=1 note=54 velocity=110 time=0
EXTRACT: note_on channel=4 note=66 velocity=105 time=0
EXTRACT: note_on channel=4 note=61 velocity=105 time=0
EXTRACT: note_on channel=8 note=66 velocity=127 time=0
EXTRACT: note_on channel=9 note=46 velocity=127 time=0
EXTRACT: note_off channel=15 note=61 velocity=0 time=0
EXTRACT: note_on channel=0 note=54 velocity=120 time=0
EXTRACT: note_off channel=4 note=61 velocity=0 time=0.05434775
EXTRACT: note_off channel=4 note=66 velocity=0 time=0
EXTRACT: note_off channel=9 note=46 velocity=0 time=0
EXTRACT: note_off channel=13 note=46 velocity=0 time=0.03623183333333334
EXTRACT: note_off channel=13 note=58 velocity=0 time=0
EXTRACT: note_off channel=14 note=82 velocity=0 time=0
EXTRACT: note_off channel=8 note=66 velocity=0 time=0.01811591666666667
EXTRACT: note_on channel=13 note=66 velocity=115 time=0
EXTRACT: note_on channel=13 note=54 velocity=115 time=0
EXTRACT: note_on channel=14 note=90 velocity=115 time=0
EXTRACT: note_on channel=15 note=70 velocity=90 time=0
EXTRACT: note_off channel=1 note=54 velocity=0 time=0.05434775
EXTRACT: note_off channel=1 note=42 velocity=0 time=0
EXTRACT: note_off channel=0 note=54 velocity=0 time=0
EXTRACT: note_off channel=15 note=70 velocity=0 time=0.03170285416666667
EXTRACT: note_on channel=4 note=66 velocity=105 time=0.022644895833333335
EXTRACT: note_on channel=4 note=61 velocity=105 time=0
EXTRACT: note_on channel=8 note=54 velocity=127 time=0
EXTRACT: note_on channel=9 note=36 velocity=127 time=0
EXTRACT: note_on channel=9 note=36 velocity=127 time=0
EXTRACT: note_on channel=9 note=36 velocity=127 time=0
EXTRACT: note_on channel=9 note=36 velocity=127 time=0
EXTRACT: note_on channel=9 note=28 velocity=127 time=0
EXTRACT: note_on channel=9 note=42 velocity=127 time=0
EXTRACT: note_on channel=9 note=76 velocity=80 time=0
EXTRACT: note_off channel=13 note=54 velocity=0 time=0.0135869375
EXTRACT: note_off channel=13 note=66 velocity=0 time=0
EXTRACT: note_off channel=14 note=90 velocity=0 time=0
EXTRACT: note_off channel=9 note=76 velocity=0 time=0.0135869375
EXTRACT: note_off channel=4 note=61 velocity=0 time=0.027173875
EXTRACT: note_off channel=4 note=66 velocity=0 time=0
EXTRACT: note_off channel=9 note=42 velocity=0 time=0
EXTRACT: note_off channel=9 note=36 velocity=64 time=0
EXTRACT: note_off channel=9 note=36 velocity=64 time=0
EXTRACT: note_off channel=9 note=36 velocity=64 time=0
EXTRACT: note_off channel=9 note=36 velocity=64 time=0
EXTRACT: note_off channel=8 note=54 velocity=0 time=0.05434775
EXTRACT: note_on channel=1 note=42 velocity=110 time=0.1086955
EXTRACT: note_on channel=1 note=54 velocity=110 time=0
EXTRACT: note_on channel=8 note=66 velocity=127 time=0
EXTRACT: note_on channel=9 note=46 velocity=127 time=0
EXTRACT: note_on channel=9 note=76 velocity=80 time=0
EXTRACT: note_on channel=13 note=70 velocity=115 time=0
EXTRACT: note_on channel=13 note=58 velocity=115 time=0
EXTRACT: note_on channel=14 note=94 velocity=115 time=0
EXTRACT: note_on channel=15 note=73 velocity=90 time=0
EXTRACT: note_on channel=0 note=54 velocity=120 time=0
EXTRACT: note_off channel=9 note=76 velocity=0 time=0.027173875
EXTRACT: note_off channel=15 note=73 velocity=0 time=0.009057958333333335
EXTRACT: note_off channel=13 note=58 velocity=0 time=0.0135869375
EXTRACT: note_off channel=13 note=70 velocity=0 time=0
EXTRACT: note_off channel=14 note=94 velocity=0 time=0
EXTRACT: note_off channel=9 note=46 velocity=0 time=0.004528979166666667
EXTRACT: note_off channel=8 note=66 velocity=0 time=0.03623183333333334
EXTRACT: note_on channel=4 note=66 velocity=105 time=0.01811591666666667
EXTRACT: note_on channel=4 note=61 velocity=105 time=0
EXTRACT: note_on channel=8 note=66 velocity=127 time=0
EXTRACT: note_on channel=13 note=70 velocity=115 time=0
EXTRACT: note_on channel=13 note=58 velocity=115 time=0
EXTRACT: note_on channel=14 note=94 velocity=115 time=0
EXTRACT: note_on channel=15 note=73 velocity=90 time=0
EXTRACT: note_off channel=15 note=73 velocity=0 time=0.04528979166666667
EXTRACT: note_off channel=13 note=58 velocity=0 time=0.004528979166666667
EXTRACT: note_off channel=13 note=70 velocity=0 time=0
EXTRACT: note_off channel=14 note=94 velocity=0 time=0
EXTRACT: note_off channel=1 note=54 velocity=0 time=0.004528979166666667
EXTRACT: note_off channel=1 note=42 velocity=0 time=0
EXTRACT: note_off channel=4 note=61 velocity=0 time=0
EXTRACT: note_off channel=4 note=66 velocity=0 time=0
EXTRACT: note_off channel=0 note=54 velocity=0 time=0
EXTRACT: note_off channel=9 note=28 velocity=0 time=0.0407608125
EXTRACT: note_on channel=4 note=66 velocity=105 time=0.0135869375
EXTRACT: note_on channel=4 note=61 velocity=105 time=0
EXTRACT: note_off channel=8 note=66 velocity=0 time=0
EXTRACT: note_on channel=8 note=54 velocity=127 time=0
EXTRACT: note_on channel=9 note=36 velocity=127 time=0
EXTRACT: note_on channel=9 note=36 velocity=127 time=0
EXTRACT: note_on channel=9 note=36 velocity=127 time=0
EXTRACT: note_on channel=9 note=36 velocity=127 time=0
EXTRACT: note_on channel=9 note=42 velocity=127 time=0
EXTRACT: note_on channel=13 note=70 velocity=115 time=0
EXTRACT: note_on channel=13 note=58 velocity=115 time=0
EXTRACT: note_on channel=14 note=94 velocity=115 time=0
EXTRACT: note_on channel=15 note=73 velocity=90 time=0
EXTRACT: note_off channel=4 note=61 velocity=0 time=0.05434775
EXTRACT: note_off channel=4 note=66 velocity=0 time=0
EXTRACT: note_off channel=9 note=42 velocity=0 time=0
EXTRACT: note_off channel=9 note=36 velocity=64 time=0
EXTRACT: note_off channel=9 note=36 velocity=64 time=0
EXTRACT: note_off channel=9 note=36 velocity=64 time=0
EXTRACT: note_off channel=9 note=36 velocity=64 time=0
EXTRACT: note_off channel=15 note=73 velocity=0 time=0.004528979166666667
EXTRACT: note_off channel=13 note=58 velocity=0 time=0.01811591666666667
EXTRACT: note_off channel=13 note=70 velocity=0 time=0
EXTRACT: note_off channel=14 note=94 velocity=0 time=0
EXTRACT: note_off channel=8 note=54 velocity=0 time=0.03170285416666667
EXTRACT: note_on channel=1 note=42 velocity=110 time=0.1086955
EXTRACT: note_on channel=1 note=54 velocity=110 time=0
EXTRACT: note_on channel=4 note=66 velocity=105 time=0
EXTRACT: note_on channel=4 note=61 velocity=105 time=0
EXTRACT: note_on channel=8 note=66 velocity=127 time=0
EXTRACT: note_on channel=9 note=46 velocity=127 time=0
EXTRACT: note_on channel=13 note=70 velocity=115 time=0
EXTRACT: note_on channel=13 note=58 velocity=115 time=0
EXTRACT: note_on channel=14 note=94 velocity=115 time=0
EXTRACT: note_on channel=15 note=73 velocity=90 time=0
EXTRACT: note_on channel=0 note=54 velocity=120 time=0
EXTRACT: note_off channel=4 note=61 velocity=0 time=0.05434775
EXTRACT: note_off channel=4 note=66 velocity=0 time=0
EXTRACT: note_off channel=9 note=46 velocity=0 time=0
EXTRACT: note_off channel=15 note=73 velocity=0 time=0.01811591666666667
EXTRACT: note_off channel=8 note=66 velocity=0 time=0.03623183333333334
EXTRACT: note_on channel=9 note=36 velocity=127 time=0
EXTRACT: note_on channel=9 note=36 velocity=127 time=0
EXTRACT: note_on channel=9 note=36 velocity=127 time=0
EXTRACT: note_on channel=9 note=36 velocity=127 time=0
EXTRACT: note_off channel=1 note=54 velocity=0 time=0.05434775
EXTRACT: note_off channel=1 note=42 velocity=0 time=0
EXTRACT: note_off channel=9 note=36 velocity=64 time=0
EXTRACT: note_off channel=9 note=36 velocity=64 time=0
EXTRACT: note_off channel=9 note=36 velocity=64 time=0
EXTRACT: note_off channel=9 note=36 velocity=64 time=0
EXTRACT: note_off channel=0 note=54 velocity=0 time=0
EXTRACT: note_on channel=4 note=66 velocity=105 time=0.05434775
EXTRACT: note_on channel=4 note=61 velocity=105 time=0
EXTRACT: note_on channel=8 note=54 velocity=127 time=0
EXTRACT: note_on channel=9 note=36 velocity=127 time=0
EXTRACT: note_on channel=9 note=36 velocity=127 time=0
EXTRACT: note_on channel=9 note=36 velocity=127 time=0
EXTRACT: note_on channel=9 note=36 velocity=127 time=0
EXTRACT: note_on channel=9 note=28 velocity=127 time=0
EXTRACT: note_on channel=9 note=42 velocity=127 time=0
EXTRACT: note_on channel=9 note=76 velocity=80 time=0
EXTRACT: note_on channel=13 note=68 velocity=115 time=0
EXTRACT: note_on channel=13 note=56 velocity=115 time=0
EXTRACT: note_on channel=14 note=92 velocity=115 time=0
EXTRACT: note_on channel=15 note=71 velocity=90 time=0
EXTRACT: note_off channel=9 note=76 velocity=0 time=0.027173875
EXTRACT: note_off channel=13 note=58 velocity=0 time=0
EXTRACT: note_off channel=13 note=70 velocity=0 time=0
EXTRACT: note_off channel=14 note=94 velocity=0 time=0
EXTRACT: note_off channel=4 note=61 velocity=0 time=0.027173875
EXTRACT: note_off channel=4 note=66 velocity=0 time=0
EXTRACT: note_off channel=9 note=42 velocity=0 time=0
EXTRACT: note_off channel=9 note=36 velocity=64 time=0
EXTRACT: note_off channel=9 note=36 velocity=64 time=0
EXTRACT: note_off channel=9 note=36 velocity=64 time=0
EXTRACT: note_off channel=9 note=36 velocity=64 time=0
EXTRACT: note_off channel=15 note=71 velocity=0 time=0.022644895833333335
EXTRACT: note_off channel=13 note=68 velocity=0 time=0.0135869375
EXTRACT: note_off channel=13 note=56 velocity=0 time=0
EXTRACT: note_off channel=14 note=92 velocity=0 time=0
EXTRACT: note_off channel=8 note=54 velocity=0 time=0.01811591666666667
EXTRACT: note_on channel=1 note=42 velocity=110 time=0.1086955
EXTRACT: note_on channel=1 note=54 velocity=110 time=0
EXTRACT: note_on channel=8 note=66 velocity=127 time=0
EXTRACT: note_on channel=9 note=36 velocity=127 time=0
EXTRACT: note_on channel=9 note=36 velocity=127 time=0
EXTRACT: note_on channel=9 note=36 velocity=127 time=0
EXTRACT: note_on channel=9 note=36 velocity=127 time=0
EXTRACT: note_on channel=9 note=46 velocity=127 time=0
EXTRACT: note_on channel=13 note=68 velocity=115 time=0
EXTRACT: note_on channel=13 note=56 velocity=115 time=0
EXTRACT: note_on channel=14 note=92 velocity=115 time=0
EXTRACT: note_on channel=15 note=71 velocity=90 time=0
EXTRACT: note_on channel=0 note=54 velocity=120 time=0
EXTRACT: note_off channel=9 note=46 velocity=0 time=0.05434775
EXTRACT: note_off channel=9 note=36 velocity=64 time=0
EXTRACT: note_off channel=9 note=36 velocity=64 time=0
EXTRACT: note_off channel=9 note=36 velocity=64 time=0
EXTRACT: note_off channel=9 note=36 velocity=64 time=0
EXTRACT: note_off channel=15 note=71 velocity=0 time=0.027173875
EXTRACT: note_off channel=8 note=66 velocity=0 time=0.027173875
EXTRACT: note_off channel=13 note=56 velocity=0 time=0.0135869375
EXTRACT: note_off channel=13 note=68 velocity=0 time=0
EXTRACT: note_off channel=14 note=92 velocity=0 time=0
EXTRACT: note_off channel=1 note=54 velocity=0 time=0.0407608125
EXTRACT: note_off channel=1 note=42 velocity=0 time=0
EXTRACT: note_off channel=0 note=54 velocity=0 time=0
EXTRACT: note_off channel=9 note=28 velocity=0 time=0.0407608125
EXTRACT: note_on channel=4 note=66 velocity=105 time=0.0135869375
EXTRACT: note_on channel=4 note=61 velocity=105 time=0
EXTRACT: note_on channel=8 note=54 velocity=127 time=0
EXTRACT: note_on channel=9 note=36 velocity=127 time=0
EXTRACT: note_on channel=9 note=36 velocity=127 time=0
EXTRACT: note_on channel=9 note=36 velocity=127 time=0
EXTRACT: note_on channel=9 note=36 velocity=127 time=0
EXTRACT: note_on channel=9 note=42 velocity=127 time=0
EXTRACT: note_on channel=9 note=49 velocity=85 time=0
EXTRACT: note_on channel=13 note=66 velocity=115 time=0
EXTRACT: note_on channel=13 note=54 velocity=115 time=0
EXTRACT: note_on channel=14 note=90 velocity=115 time=0
EXTRACT: note_on channel=15 note=70 velocity=90 time=0
EXTRACT: note_off channel=9 note=49 velocity=0 time=0.027173875
EXTRACT: note_off channel=4 note=61 velocity=0 time=0.027173875
EXTRACT: note_off channel=4 note=66 velocity=0 time=0
EXTRACT: note_off channel=9 note=42 velocity=0 time=0
EXTRACT: note_off channel=9 note=36 velocity=64 time=0
EXTRACT: note_off channel=9 note=36 velocity=64 time=0
EXTRACT: note_off channel=9 note=36 velocity=64 time=0
EXTRACT: note_off channel=9 note=36 velocity=64 time=0
EXTRACT: note_off channel=8 note=54 velocity=0 time=0.05434775
EXTRACT: note_off channel=15 note=70 velocity=0 time=0.01811591666666667
EXTRACT: note_on channel=1 note=42 velocity=110 time=0.09057958333333334
EXTRACT: note_on channel=1 note=54 velocity=110 time=0
EXTRACT: note_on channel=4 note=66 velocity=105 time=0
EXTRACT: note_on channel=4 note=61 velocity=105 time=0
EXTRACT: note_on channel=8 note=66 velocity=127 time=0
EXTRACT: note_on channel=9 note=46 velocity=127 time=0
EXTRACT: note_on channel=0 note=54 velocity=120 time=0
EXTRACT: note_off channel=4 note=61 velocity=0 time=0.05434775
EXTRACT: note_off channel=4 note=66 velocity=0 time=0
EXTRACT: note_off channel=9 note=46 velocity=0 time=0
EXTRACT: note_off channel=13 note=54 velocity=0 time=0
EXTRACT: note_off channel=13 note=66 velocity=0 time=0
EXTRACT: note_off channel=14 note=90 velocity=0 time=0.01811591666666667
EXTRACT: note_off channel=8 note=66 velocity=0 time=0.03623183333333334
EXTRACT: note_on channel=13 note=61 velocity=115 time=0
EXTRACT: note_on channel=13 note=49 velocity=115 time=0
EXTRACT: note_on channel=14 note=85 velocity=115 time=0
EXTRACT: note_on channel=15 note=66 velocity=90 time=0
EXTRACT: note_off channel=1 note=54 velocity=0 time=0.05434775
EXTRACT: note_off channel=1 note=42 velocity=0 time=0
EXTRACT: note_off channel=0 note=54 velocity=0 time=0
EXTRACT: note_off channel=15 note=66 velocity=0 time=0.0407608125
EXTRACT: note_on channel=4 note=66 velocity=105 time=0.0135869375
EXTRACT: note_on channel=4 note=61 velocity=105 time=0
EXTRACT: note_on channel=8 note=54 velocity=127 time=0
EXTRACT: note_on channel=9 note=36 velocity=127 time=0
EXTRACT: note_on channel=9 note=36 velocity=127 time=0
EXTRACT: note_on channel=9 note=36 velocity=127 time=0
EXTRACT: note_on channel=9 note=36 velocity=127 time=0
EXTRACT: note_on channel=9 note=28 velocity=127 time=0
EXTRACT: note_on channel=9 note=42 velocity=127 time=0
EXTRACT: note_on channel=9 note=76 velocity=80 time=0
EXTRACT: note_off channel=13 note=49 velocity=0 time=0
EXTRACT: note_off channel=13 note=61 velocity=0 time=0
EXTRACT: note_off channel=14 note=85 velocity=0 time=0
EXTRACT: note_off channel=9 note=76 velocity=0 time=0.027173875
EXTRACT: note_off channel=4 note=61 velocity=0 time=0.027173875
EXTRACT: note_off channel=4 note=66 velocity=0 time=0
EXTRACT: note_off channel=9 note=42 velocity=0 time=0
EXTRACT: note_off channel=9 note=36 velocity=64 time=0
EXTRACT: note_off channel=9 note=36 velocity=64 time=0
EXTRACT: note_off channel=9 note=36 velocity=64 time=0
EXTRACT: note_off channel=9 note=36 velocity=64 time=0
EXTRACT: note_off channel=8 note=54 velocity=0 time=0.05434775
EXTRACT: note_on channel=1 note=42 velocity=110 time=0.1086955
EXTRACT: note_on channel=1 note=54 velocity=110 time=0
EXTRACT: note_on channel=8 note=66 velocity=127 time=0
EXTRACT: note_on channel=9 note=46 velocity=127 time=0
EXTRACT: note_on channel=9 note=76 velocity=80 time=0
EXTRACT: note_on channel=13 note=61 velocity=115 time=0
EXTRACT: note_on channel=13 note=49 velocity=115 time=0
EXTRACT: note_on channel=14 note=85 velocity=115 time=0
EXTRACT: note_on channel=15 note=66 velocity=90 time=0
EXTRACT: note_on channel=0 note=54 velocity=120 time=0
EXTRACT: note_off channel=9 note=76 velocity=0 time=0.027173875
EXTRACT: note_off channel=9 note=46 velocity=0 time=0.027173875
EXTRACT: note_off channel=15 note=66 velocity=0 time=0.01811591666666667
EXTRACT: note_off channel=8 note=66 velocity=0 time=0.01811591666666667
EXTRACT: note_on channel=4 note=66 velocity=105 time=0.01811591666666667
EXTRACT: note_on channel=4 note=61 velocity=105 time=0
EXTRACT: note_on channel=8 note=66 velocity=127 time=0
EXTRACT: note_off channel=1 note=54 velocity=0 time=0.05434775
EXTRACT: note_off channel=1 note=42 velocity=0 time=0
EXTRACT: note_off channel=4 note=61 velocity=0 time=0
EXTRACT: note_off channel=4 note=66 velocity=0 time=0
EXTRACT: note_off channel=13 note=49 velocity=0 time=0
EXTRACT: note_off channel=13 note=61 velocity=0 time=0
EXTRACT: note_off channel=14 note=85 velocity=0 time=0
EXTRACT: note_off channel=0 note=54 velocity=0 time=0
EXTRACT: note_off channel=9 note=28 velocity=0 time=0.0407608125
EXTRACT: note_on channel=4 note=61 velocity=105 time=0.0135869375
EXTRACT: note_on channel=4 note=56 velocity=105 time=0
EXTRACT: note_off channel=8 note=66 velocity=0 time=0
EXTRACT: note_on channel=8 note=49 velocity=127 time=0
EXTRACT: note_on channel=9 note=36 velocity=127 time=0
EXTRACT: note_on channel=9 note=36 velocity=127 time=0
EXTRACT: note_on channel=9 note=36 velocity=127 time=0
EXTRACT: note_on channel=9 note=36 velocity=127 time=0
EXTRACT: note_on channel=9 note=42 velocity=127 time=0
EXTRACT: note_on channel=13 note=61 velocity=115 time=0
EXTRACT: note_on channel=13 note=49 velocity=115 time=0
EXTRACT: note_on channel=14 note=85 velocity=115 time=0
EXTRACT: note_on channel=15 note=66 velocity=90 time=0
EXTRACT: note_off channel=4 note=56 velocity=0 time=0.05434775
EXTRACT: note_off channel=4 note=61 velocity=0 time=0
EXTRACT: note_off channel=9 note=42 velocity=0 time=0
EXTRACT: note_off channel=9 note=36 velocity=64 time=0
EXTRACT: note_off channel=9 note=36 velocity=64 time=0
EXTRACT: note_off channel=9 note=36 velocity=64 time=0
EXTRACT: note_off channel=9 note=36 velocity=64 time=0
EXTRACT: note_off channel=15 note=66 velocity=0 time=0.022644895833333335
EXTRACT: note_off channel=13 note=49 velocity=0 time=0.009057958333333335
EXTRACT: note_off channel=13 note=61 velocity=0 time=0
EXTRACT: note_off channel=14 note=85 velocity=0 time=0
EXTRACT: note_off channel=8 note=49 velocity=0 time=0.022644895833333335
EXTRACT: note_on channel=1 note=37 velocity=110 time=0.1086955
EXTRACT: note_on channel=1 note=49 velocity=110 time=0
EXTRACT: note_on channel=4 note=61 velocity=105 time=0
EXTRACT: note_on channel=4 note=56 velocity=105 time=0
EXTRACT: note_on channel=8 note=61 velocity=127 time=0
EXTRACT: note_on channel=9 note=46 velocity=127 time=0
EXTRACT: note_on channel=13 note=61 velocity=115 time=0
EXTRACT: note_on channel=13 note=49 velocity=115 time=0
EXTRACT: note_on channel=14 note=85 velocity=115 time=0
EXTRACT: note_on channel=15 note=66 velocity=90 time=0
EXTRACT: note_on channel=0 note=49 velocity=120 time=0
EXTRACT: note_off channel=4 note=56 velocity=0 time=0.05434775
EXTRACT: note_off channel=4 note=61 velocity=0 time=0
EXTRACT: note_off channel=9 note=46 velocity=0 time=0
EXTRACT: note_off channel=13 note=49 velocity=0 time=0.022644895833333335
EXTRACT: note_off channel=13 note=61 velocity=0 time=0
EXTRACT: note_off channel=14 note=85 velocity=0 time=0
EXTRACT: note_off channel=15 note=66 velocity=0 time=0
EXTRACT: note_off channel=8 note=61 velocity=0 time=0.03170285416666667
EXTRACT: note_on channel=9 note=36 velocity=127 time=0
EXTRACT: note_on channel=9 note=36 velocity=127 time=0
EXTRACT: note_on channel=9 note=36 velocity=127 time=0
EXTRACT: note_on channel=9 note=36 velocity=127 time=0
EXTRACT: note_off channel=1 note=49 velocity=0 time=0.05434775
EXTRACT: note_off channel=1 note=37 velocity=0 time=0
EXTRACT: note_off channel=9 note=36 velocity=64 time=0
EXTRACT: note_off channel=9 note=36 velocity=64 time=0
EXTRACT: note_off channel=9 note=36 velocity=64 time=0
EXTRACT: note_off channel=9 note=36 velocity=64 time=0
EXTRACT: note_off channel=0 note=49 velocity=0 time=0
EXTRACT: note_on channel=4 note=61 velocity=105 time=0.05434775
EXTRACT: note_on channel=4 note=56 velocity=105 time=0
EXTRACT: note_on channel=8 note=49 velocity=127 time=0
EXTRACT: note_on channel=9 note=36 velocity=127 time=0
EXTRACT: note_on channel=9 note=36 velocity=127 time=0
EXTRACT: note_on channel=9 note=36 velocity=127 time=0
EXTRACT: note_on channel=9 note=36 velocity=127 time=0
EXTRACT: note_on channel=9 note=28 velocity=127 time=0
EXTRACT: note_on channel=9 note=42 velocity=127 time=0
EXTRACT: note_on channel=9 note=76 velocity=80 time=0
EXTRACT: note_on channel=13 note=68 velocity=115 time=0
EXTRACT: note_on channel=13 note=56 velocity=115 time=0
EXTRACT: note_on channel=14 note=92 velocity=115 time=0
EXTRACT: note_on channel=15 note=71 velocity=90 time=0
EXTRACT: note_off channel=9 note=76 velocity=0 time=0.027173875
EXTRACT: note_off channel=4 note=56 velocity=0 time=0.027173875
EXTRACT: note_off channel=4 note=61 velocity=0 time=0
EXTRACT: note_off channel=9 note=42 velocity=0 time=0
EXTRACT: note_off channel=9 note=36 velocity=64 time=0
EXTRACT: note_off channel=9 note=36 velocity=64 time=0
EXTRACT: note_off channel=9 note=36 velocity=64 time=0
EXTRACT: note_off channel=9 note=36 velocity=64 time=0
EXTRACT: note_off channel=13 note=56 velocity=0 time=0.0135869375
EXTRACT: note_off channel=13 note=68 velocity=0 time=0
EXTRACT: note_off channel=14 note=92 velocity=0 time=0
EXTRACT: note_off channel=15 note=71 velocity=0 time=0.027173875
EXTRACT: note_off channel=8 note=49 velocity=0 time=0.0135869375
EXTRACT: note_on channel=1 note=37 velocity=110 time=0.1086955
EXTRACT: note_on channel=1 note=49 velocity=110 time=0
EXTRACT: note_on channel=8 note=61 velocity=127 time=0
EXTRACT: note_on channel=9 note=36 velocity=127 time=0
EXTRACT: note_on channel=9 note=36 velocity=127 time=0
EXTRACT: note_on channel=9 note=36 velocity=127 time=0
EXTRACT: note_on channel=9 note=36 velocity=127 time=0
EXTRACT: note_on channel=9 note=46 velocity=127 time=0
EXTRACT: note_on channel=13 note=68 velocity=115 time=0
EXTRACT: note_on channel=13 note=56 velocity=115 time=0
EXTRACT: note_on channel=14 note=92 velocity=115 time=0
EXTRACT: note_on channel=15 note=71 velocity=90 time=0
EXTRACT: note_on channel=0 note=49 velocity=120 time=0
EXTRACT: note_off channel=9 note=46 velocity=0 time=0.05434775
EXTRACT: note_off channel=9 note=36 velocity=64 time=0
EXTRACT: note_off channel=9 note=36 velocity=64 time=0
EXTRACT: note_off channel=9 note=36 velocity=64 time=0
EXTRACT: note_off channel=9 note=36 velocity=64 time=0
EXTRACT: note_off channel=13 note=56 velocity=0 time=0.027173875
EXTRACT: note_off channel=13 note=68 velocity=0 time=0
EXTRACT: note_off channel=15 note=71 velocity=0 time=0.0135869375
EXTRACT: note_off channel=14 note=92 velocity=0 time=0.009057958333333335
EXTRACT: note_off channel=8 note=61 velocity=0 time=0.004528979166666667
EXTRACT: note_off channel=1 note=49 velocity=0 time=0.05434775
EXTRACT: note_off channel=1 note=37 velocity=0 time=0
EXTRACT: note_off channel=0 note=49 velocity=0 time=0
EXTRACT: note_off channel=9 note=28 velocity=0 time=0.0407608125
EXTRACT: note_on channel=4 note=63 velocity=105 time=0.0135869375
EXTRACT: note_on channel=4 note=58 velocity=105 time=0
EXTRACT: note_on channel=8 note=51 velocity=127 time=0
EXTRACT: note_on channel=9 note=36 velocity=127 time=0
EXTRACT: note_on channel=9 note=36 velocity=127 time=0
EXTRACT: note_on channel=9 note=36 velocity=127 time=0
EXTRACT: note_on channel=9 note=36 velocity=127 time=0
EXTRACT: note_on channel=9 note=42 velocity=127 time=0
EXTRACT: note_on channel=13 note=66 velocity=115 time=0
EXTRACT: note_on channel=13 note=54 velocity=115 time=0
EXTRACT: note_on channel=14 note=90 velocity=115 time=0
EXTRACT: note_on channel=15 note=70 velocity=90 time=0
EXTRACT: note_off channel=4 note=58 velocity=0 time=0.05434775
EXTRACT: note_off channel=4 note=63 velocity=0 time=0
EXTRACT: note_off channel=9 note=42 velocity=0 time=0
EXTRACT: note_off channel=9 note=36 velocity=64 time=0
EXTRACT: note_off channel=9 note=36 velocity=64 time=0
EXTRACT: note_off channel=9 note=36 velocity=64 time=0
EXTRACT: note_off channel=9 note=36 velocity=64 time=0
EXTRACT: note_off channel=15 note=70 velocity=0 time=0.03170285416666667
EXTRACT: note_off channel=8 note=51 velocity=0 time=0.022644895833333335
EXTRACT: note_on channel=1 note=39 velocity=110 time=0.1086955
EXTRACT: note_on channel=1 note=51 velocity=110 time=0
EXTRACT: note_on channel=4 note=63 velocity=105 time=0
EXTRACT: note_on channel=4 note=58 velocity=105 time=0
EXTRACT: note_on channel=8 note=63 velocity=127 time=0
EXTRACT: note_on channel=9 note=46 velocity=127 time=0
EXTRACT: note_on channel=0 note=51 velocity=120 time=0
EXTRACT: note_off channel=4 note=58 velocity=0 time=0.05434775
EXTRACT: note_off channel=4 note=63 velocity=0 time=0
EXTRACT: note_off channel=9 note=46 velocity=0 time=0
EXTRACT: note_off channel=13 note=54 velocity=0 time=0.0135869375
EXTRACT: note_off channel=13 note=66 velocity=0 time=0
EXTRACT: note_off channel=14 note=90 velocity=0 time=0
EXTRACT: note_off channel=8 note=63 velocity=0 time=0.0407608125
EXTRACT: note_on channel=13 note=63 velocity=115 time=0
EXTRACT: note_on channel=13 note=51 velocity=115 time=0
EXTRACT: note_on channel=14 note=87 velocity=115 time=0
EXTRACT: note_on channel=15 note=66 velocity=90 time=0
EXTRACT: note_off channel=1 note=51 velocity=0 time=0.05434775
EXTRACT: note_off channel=1 note=39 velocity=0 time=0
EXTRACT: note_off channel=0 note=51 velocity=0 time=0
EXTRACT: note_off channel=15 note=66 velocity=0 time=0.004528979166666667
EXTRACT: note_on channel=4 note=63 velocity=105 time=0.04981877083333334
EXTRACT: note_on channel=4 note=58 velocity=105 time=0
EXTRACT: note_on channel=8 note=51 velocity=127 time=0
EXTRACT: note_on channel=9 note=36 velocity=127 time=0
EXTRACT: note_on channel=9 note=36 velocity=127 time=0
EXTRACT: note_on channel=9 note=36 velocity=127 time=0
EXTRACT: note_on channel=9 note=36 velocity=127 time=0
EXTRACT: note_on channel=9 note=28 velocity=127 time=0
EXTRACT: note_on channel=9 note=42 velocity=127 time=0
EXTRACT: note_on channel=9 note=76 velocity=80 time=0
EXTRACT: note_off channel=13 note=51 velocity=0 time=0.009057958333333335
EXTRACT: note_off channel=13 note=63 velocity=0 time=0
EXTRACT: note_off channel=14 note=87 velocity=0 time=0
EXTRACT: note_off channel=9 note=76 velocity=0 time=0.01811591666666667
EXTRACT: note_off channel=4 note=58 velocity=0 time=0.027173875
EXTRACT: note_off channel=4 note=63 velocity=0 time=0
EXTRACT: note_off channel=9 note=42 velocity=0 time=0
EXTRACT: note_off channel=9 note=36 velocity=64 time=0
EXTRACT: note_off channel=9 note=36 velocity=64 time=0
EXTRACT: note_off channel=9 note=36 velocity=64 time=0
EXTRACT: note_off channel=9 note=36 velocity=64 time=0
EXTRACT: note_off channel=8 note=51 velocity=0 time=0.05434775
EXTRACT: note_on channel=1 note=39 velocity=110 time=0.1086955
EXTRACT: note_on channel=1 note=51 velocity=110 time=0
EXTRACT: note_on channel=8 note=63 velocity=127 time=0
EXTRACT: note_on channel=9 note=46 velocity=127 time=0
EXTRACT: note_on channel=9 note=76 velocity=80 time=0
EXTRACT: note_on channel=13 note=63 velocity=115 time=0
EXTRACT: note_on channel=13 note=51 velocity=115 time=0
EXTRACT: note_on channel=14 note=87 velocity=115 time=0
EXTRACT: note_on channel=15 note=66 velocity=90 time=0
EXTRACT: note_on channel=0 note=51 velocity=120 time=0
EXTRACT: note_off channel=9 note=76 velocity=0 time=0.027173875
EXTRACT: note_off channel=15 note=66 velocity=0 time=0.01811591666666667
EXTRACT: note_off channel=13 note=51 velocity=0 time=0.004528979166666667
EXTRACT: note_off channel=13 note=63 velocity=0 time=0
EXTRACT: note_off channel=14 note=87 velocity=0 time=0
EXTRACT: note_off channel=9 note=46 velocity=0 time=0.004528979166666667
EXTRACT: note_off channel=8 note=63 velocity=0 time=0.03623183333333334
EXTRACT: note_on channel=4 note=63 velocity=105 time=0.01811591666666667
EXTRACT: note_on channel=4 note=58 velocity=105 time=0
EXTRACT: note_on channel=8 note=63 velocity=127 time=0
EXTRACT: note_on channel=13 note=63 velocity=115 time=0
EXTRACT: note_on channel=13 note=51 velocity=115 time=0
EXTRACT: note_on channel=14 note=87 velocity=115 time=0
EXTRACT: note_on channel=15 note=66 velocity=90 time=0
EXTRACT: note_off channel=1 note=51 velocity=0 time=0.05434775
EXTRACT: note_off channel=1 note=39 velocity=0 time=0
EXTRACT: note_off channel=4 note=58 velocity=0 time=0
EXTRACT: note_off channel=4 note=63 velocity=0 time=0
EXTRACT: note_off channel=0 note=51 velocity=0 time=0
EXTRACT: note_off channel=13 note=51 velocity=0 time=0.004528979166666667
EXTRACT: note_off channel=13 note=63 velocity=0 time=0
EXTRACT: note_off channel=14 note=87 velocity=0 time=0
EXTRACT: note_off channel=15 note=66 velocity=0 time=0
EXTRACT: note_off channel=9 note=28 velocity=0 time=0.03623183333333334
EXTRACT: note_on channel=4 note=63 velocity=105 time=0.0135869375
EXTRACT: note_on channel=4 note=58 velocity=105 time=0
EXTRACT: note_off channel=8 note=63 velocity=0 time=0
EXTRACT: note_on channel=8 note=51 velocity=127 time=0
EXTRACT: note_on channel=9 note=36 velocity=127 time=0
EXTRACT: note_on channel=9 note=36 velocity=127 time=0
EXTRACT: note_on channel=9 note=36 velocity=127 time=0
EXTRACT: note_on channel=9 note=36 velocity=127 time=0
EXTRACT: note_on channel=9 note=42 velocity=127 time=0
EXTRACT: note_on channel=13 note=63 velocity=115 time=0
EXTRACT: note_on channel=13 note=51 velocity=115 time=0
EXTRACT: note_on channel=14 note=87 velocity=115 time=0
EXTRACT: note_on channel=15 note=66 velocity=90 time=0
EXTRACT: note_off channel=4 note=58 velocity=0 time=0.05434775
EXTRACT: note_off channel=4 note=63 velocity=0 time=0
EXTRACT: note_off channel=9 note=42 velocity=0 time=0
EXTRACT: note_off channel=9 note=36 velocity=64 time=0
EXTRACT: note_off channel=9 note=36 velocity=64 time=0
EXTRACT: note_off channel=9 note=36 velocity=64 time=0
EXTRACT: note_off channel=9 note=36 velocity=64 time=0
EXTRACT: note_off channel=13 note=51 velocity=0 time=0.022644895833333335
EXTRACT: note_off channel=13 note=63 velocity=0 time=0
EXTRACT: note_off channel=14 note=87 velocity=0 time=0
EXTRACT: note_off channel=15 note=66 velocity=0 time=0
EXTRACT: note_off channel=8 note=51 velocity=0 time=0.03170285416666667
EXTRACT: note_on channel=1 note=39 velocity=110 time=0.1086955
EXTRACT: note_on channel=1 note=51 velocity=110 time=0
EXTRACT: note_on channel=4 note=63 velocity=105 time=0
EXTRACT: note_on channel=4 note=58 velocity=105 time=0
EXTRACT: note_on channel=8 note=63 velocity=127 time=0
EXTRACT: note_on channel=9 note=46 velocity=127 time=0
EXTRACT: note_on channel=13 note=63 velocity=115 time=0
EXTRACT: note_on channel=13 note=51 velocity=115 time=0
EXTRACT: note_on channel=14 note=87 velocity=115 time=0
EXTRACT: note_on channel=15 note=66 velocity=90 time=0
EXTRACT: note_on channel=0 note=51 velocity=120 time=0
EXTRACT: note_off channel=4 note=58 velocity=0 time=0.05434775
EXTRACT: note_off channel=4 note=63 velocity=0 time=0
EXTRACT: note_off channel=9 note=46 velocity=0 time=0
EXTRACT: note_off channel=15 note=66 velocity=0 time=0.027173875
EXTRACT: note_off channel=13 note=51 velocity=0 time=0.004528979166666667
EXTRACT: note_off channel=13 note=63 velocity=0 time=0
EXTRACT: note_off channel=14 note=87 velocity=0 time=0
EXTRACT: note_off channel=8 note=63 velocity=0 time=0.022644895833333335
EXTRACT: note_on channel=9 note=36 velocity=127 time=0
EXTRACT: note_on channel=9 note=36 velocity=127 time=0
EXTRACT: note_on channel=9 note=36 velocity=127 time=0
EXTRACT: note_on channel=9 note=36 velocity=127 time=0
EXTRACT: note_off channel=1 note=51 velocity=0 time=0.05434775
EXTRACT: note_off channel=1 note=39 velocity=0 time=0
EXTRACT: note_off channel=9 note=36 velocity=64 time=0
EXTRACT: note_off channel=9 note=36 velocity=64 time=0
EXTRACT: note_off channel=9 note=36 velocity=64 time=0
EXTRACT: note_off channel=9 note=36 velocity=64 time=0
EXTRACT: note_off channel=0 note=51 velocity=0 time=0
EXTRACT: note_on channel=4 note=63 velocity=105 time=0.05434775
EXTRACT: note_on channel=4 note=58 velocity=105 time=0
EXTRACT: note_on channel=8 note=51 velocity=127 time=0
EXTRACT: note_on channel=9 note=36 velocity=127 time=0
EXTRACT: note_on channel=9 note=36 velocity=127 time=0
EXTRACT: note_on channel=9 note=36 velocity=127 time=0
EXTRACT: note_on channel=9 note=36 velocity=127 time=0
EXTRACT: note_on channel=9 note=28 velocity=127 time=0
EXTRACT: note_on channel=9 note=42 velocity=127 time=0
EXTRACT: note_on channel=9 note=76 velocity=80 time=0
EXTRACT: note_on channel=13 note=66 velocity=115 time=0
EXTRACT: note_on channel=13 note=54 velocity=115 time=0
EXTRACT: note_on channel=14 note=90 velocity=115 time=0
EXTRACT: note_on channel=15 note=70 velocity=90 time=0
EXTRACT: note_off channel=9 note=76 velocity=0 time=0.027173875
EXTRACT: note_off channel=4 note=58 velocity=0 time=0.027173875
EXTRACT: note_off channel=4 note=63 velocity=0 time=0
EXTRACT: note_off channel=9 note=42 velocity=0 time=0
EXTRACT: note_off channel=9 note=36 velocity=64 time=0
EXTRACT: note_off channel=9 note=36 velocity=64 time=0
EXTRACT: note_off channel=9 note=36 velocity=64 time=0
EXTRACT: note_off channel=9 note=36 velocity=64 time=0
EXTRACT: note_off channel=13 note=54 velocity=0 time=0.01811591666666667
EXTRACT: note_off channel=13 note=66 velocity=0 time=0
EXTRACT: note_off channel=14 note=90 velocity=0 time=0
EXTRACT: note_off channel=15 note=70 velocity=0 time=0.0135869375
EXTRACT: note_off channel=8 note=51 velocity=0 time=0.022644895833333335
EXTRACT: note_on channel=1 note=39 velocity=110 time=0.1086955
EXTRACT: note_on channel=1 note=51 velocity=110 time=0
EXTRACT: note_on channel=8 note=63 velocity=127 time=0
EXTRACT: note_on channel=9 note=36 velocity=127 time=0
EXTRACT: note_on channel=9 note=36 velocity=127 time=0
EXTRACT: note_on channel=9 note=36 velocity=127 time=0
EXTRACT: note_on channel=9 note=36 velocity=127 time=0
EXTRACT: note_on channel=9 note=46 velocity=127 time=0
EXTRACT: note_on channel=13 note=68 velocity=115 time=0
EXTRACT: note_on channel=13 note=56 velocity=115 time=0
EXTRACT: note_on channel=14 note=92 velocity=115 time=0
EXTRACT: note_on channel=15 note=71 velocity=90 time=0
EXTRACT: note_on channel=0 note=51 velocity=120 time=0
EXTRACT: note_off channel=9 note=46 velocity=0 time=0.05434775
EXTRACT: note_off channel=9 note=36 velocity=64 time=0
EXTRACT: note_off channel=9 note=36 velocity=64 time=0
EXTRACT: note_off channel=9 note=36 velocity=64 time=0
EXTRACT: note_off channel=9 note=36 velocity=64 time=0
EXTRACT: note_off channel=13 note=56 velocity=0 time=0.01811591666666667
EXTRACT: note_off channel=13 note=68 velocity=0 time=0
EXTRACT: note_off channel=14 note=92 velocity=0 time=0
EXTRACT: note_off channel=15 note=71 velocity=0 time=0.03170285416666667
EXTRACT: note_off channel=8 note=63 velocity=0 time=0.004528979166666667
EXTRACT: note_off channel=1 note=51 velocity=0 time=0.05434775
EXTRACT: note_off channel=1 note=39 velocity=0 time=0
EXTRACT: note_off channel=0 note=51 velocity=0 time=0
EXTRACT: note_off channel=9 note=28 velocity=0 time=0.0407608125
EXTRACT: note_on channel=4 note=59 velocity=105 time=0.0135869375
EXTRACT: note_on channel=4 note=54 velocity=105 time=0
EXTRACT: note_on channel=8 note=47 velocity=127 time=0
EXTRACT: note_on channel=9 note=36 velocity=127 time=0
EXTRACT: note_on channel=9 note=36 velocity=127 time=0
EXTRACT: note_on channel=9 note=36 velocity=127 time=0
EXTRACT: note_on channel=9 note=36 velocity=127 time=0
EXTRACT: note_on channel=9 note=42 velocity=127 time=0
EXTRACT: note_on channel=13 note=70 velocity=115 time=0
EXTRACT: note_on channel=13 note=58 velocity=115 time=0
EXTRACT: note_on channel=14 note=94 velocity=115 time=0
EXTRACT: note_on channel=15 note=73 velocity=90 time=0
EXTRACT: note_off channel=4 note=54 velocity=0 time=0.05434775
EXTRACT: note_off channel=4 note=59 velocity=0 time=0
EXTRACT: note_off channel=9 note=42 velocity=0 time=0
EXTRACT: note_off channel=9 note=36 velocity=64 time=0
EXTRACT: note_off channel=9 note=36 velocity=64 time=0
EXTRACT: note_off channel=9 note=36 velocity=64 time=0
EXTRACT: note_off channel=9 note=36 velocity=64 time=0
EXTRACT: note_off channel=15 note=73 velocity=0 time=0.03170285416666667
EXTRACT: note_off channel=8 note=47 velocity=0 time=0.022644895833333335
EXTRACT: note_on channel=1 note=35 velocity=110 time=0.1086955
EXTRACT: note_on channel=1 note=47 velocity=110 time=0
EXTRACT: note_on channel=4 note=59 velocity=105 time=0
EXTRACT: note_on channel=4 note=54 velocity=105 time=0
EXTRACT: note_on channel=8 note=59 velocity=127 time=0
EXTRACT: note_on channel=9 note=46 velocity=127 time=0
EXTRACT: note_on channel=0 note=47 velocity=120 time=0
EXTRACT: note_off channel=4 note=54 velocity=0 time=0.05434775
EXTRACT: note_off channel=4 note=59 velocity=0 time=0
EXTRACT: note_off channel=9 note=46 velocity=0 time=0
EXTRACT: note_off channel=13 note=58 velocity=0 time=0.009057958333333335
EXTRACT: note_off channel=13 note=70 velocity=0 time=0
EXTRACT: note_off channel=14 note=94 velocity=0 time=0
EXTRACT: note_off channel=8 note=59 velocity=0 time=0.04528979166666667
EXTRACT: note_on channel=13 note=66 velocity=115 time=0
EXTRACT: note_on channel=13 note=54 velocity=115 time=0
EXTRACT: note_on channel=14 note=90 velocity=115 time=0
EXTRACT: note_on channel=15 note=70 velocity=90 time=0
EXTRACT: note_off channel=1 note=47 velocity=0 time=0.05434775
EXTRACT: note_off channel=1 note=35 velocity=0 time=0
EXTRACT: note_off channel=0 note=47 velocity=0 time=0
EXTRACT: note_off channel=15 note=70 velocity=0 time=0.022644895833333335
EXTRACT: note_off channel=13 note=54 velocity=0 time=0.022644895833333335
EXTRACT: note_off channel=13 note=66 velocity=0 time=0
EXTRACT: note_off channel=14 note=90 velocity=0 time=0
EXTRACT: note_on channel=4 note=59 velocity=105 time=0.009057958333333335
EXTRACT: note_on channel=4 note=54 velocity=105 time=0
EXTRACT: note_on channel=8 note=47 velocity=127 time=0
EXTRACT: note_on channel=9 note=36 velocity=127 time=0
EXTRACT: note_on channel=9 note=36 velocity=127 time=0
EXTRACT: note_on channel=9 note=36 velocity=127 time=0
EXTRACT: note_on channel=9 note=36 velocity=127 time=0
EXTRACT: note_on channel=9 note=28 velocity=127 time=0
EXTRACT: note_on channel=9 note=42 velocity=127 time=0
EXTRACT: note_on channel=9 note=76 velocity=80 time=0
EXTRACT: note_off channel=9 note=76 velocity=0 time=0.027173875
EXTRACT: note_off channel=4 note=54 velocity=0 time=0.027173875
EXTRACT: note_off channel=4 note=59 velocity=0 time=0
EXTRACT: note_off channel=9 note=42 velocity=0 time=0
EXTRACT: note_off channel=9 note=36 velocity=64 time=0
EXTRACT: note_off channel=9 note=36 velocity=64 time=0
EXTRACT: note_off channel=9 note=36 velocity=64 time=0
EXTRACT: note_off channel=9 note=36 velocity=64 time=0
EXTRACT: note_off channel=8 note=47 velocity=0 time=0.05434775
EXTRACT: note_on channel=1 note=35 velocity=110 time=0.1086955
EXTRACT: note_on channel=1 note=47 velocity=110 time=0
EXTRACT: note_on channel=8 note=59 velocity=127 time=0
EXTRACT: note_on channel=9 note=46 velocity=127 time=0
EXTRACT: note_on channel=9 note=76 velocity=80 time=0
EXTRACT: note_on channel=13 note=59 velocity=115 time=0
EXTRACT: note_on channel=13 note=47 velocity=115 time=0
EXTRACT: note_on channel=14 note=83 velocity=115 time=0
EXTRACT: note_on channel=15 note=63 velocity=90 time=0
EXTRACT: note_on channel=0 note=47 velocity=120 time=0
EXTRACT: note_off channel=9 note=76 velocity=0 time=0.027173875
EXTRACT: note_off channel=9 note=46 velocity=0 time=0.027173875
EXTRACT: note_off channel=15 note=63 velocity=0 time=0.022644895833333335
EXTRACT: note_off channel=13 note=47 velocity=0 time=0.009057958333333335
EXTRACT: note_off channel=13 note=59 velocity=0 time=0
EXTRACT: note_off channel=14 note=83 velocity=0 time=0
EXTRACT: note_off channel=8 note=59 velocity=0 time=0.004528979166666667
EXTRACT: note_on channel=4 note=59 velocity=105 time=0.01811591666666667
EXTRACT: note_on channel=4 note=54 velocity=105 time=0
EXTRACT: note_on channel=8 note=59 velocity=127 time=0
EXTRACT: note_off channel=1 note=47 velocity=0 time=0.05434775
EXTRACT: note_off channel=1 note=35 velocity=0 time=0
EXTRACT: note_off channel=4 note=54 velocity=0 time=0
EXTRACT: note_off channel=4 note=59 velocity=0 time=0
EXTRACT: note_off channel=0 note=47 velocity=0 time=0
EXTRACT: note_off channel=9 note=28 velocity=0 time=0.0407608125
EXTRACT: note_on channel=4 note=61 velocity=105 time=0.0135869375
EXTRACT: note_on channel=4 note=56 velocity=105 time=0
EXTRACT: note_off channel=8 note=59 velocity=0 time=0
EXTRACT: note_on channel=8 note=49 velocity=127 time=0
EXTRACT: note_on channel=9 note=36 velocity=127 time=0
EXTRACT: note_on channel=9 note=36 velocity=127 time=0
EXTRACT: note_on channel=9 note=36 velocity=127 time=0
EXTRACT: note_on channel=9 note=36 velocity=127 time=0
EXTRACT: note_on channel=9 note=42 velocity=127 time=0
EXTRACT: note_on channel=13 note=59 velocity=115 time=0
EXTRACT: note_on channel=13 note=47 velocity=115 time=0
EXTRACT: note_on channel=14 note=83 velocity=115 time=0
EXTRACT: note_on channel=15 note=63 velocity=90 time=0
EXTRACT: note_off channel=4 note=56 velocity=0 time=0.05434775
EXTRACT: note_off channel=4 note=61 velocity=0 time=0
EXTRACT: note_off channel=9 note=42 velocity=0 time=0
EXTRACT: note_off channel=9 note=36 velocity=64 time=0
EXTRACT: note_off channel=9 note=36 velocity=64 time=0
EXTRACT: note_off channel=9 note=36 velocity=64 time=0
EXTRACT: note_off channel=9 note=36 velocity=64 time=0
EXTRACT: note_off channel=15 note=63 velocity=0 time=0.004528979166666667
EXTRACT: note_off channel=13 note=47 velocity=0 time=0.022644895833333335
EXTRACT: note_off channel=13 note=59 velocity=0 time=0
EXTRACT: note_off channel=14 note=83 velocity=0 time=0
EXTRACT: note_off channel=8 note=49 velocity=0 time=0.027173875
EXTRACT: note_on channel=1 note=37 velocity=110 time=0.1086955
EXTRACT: note_on channel=1 note=49 velocity=110 time=0
EXTRACT: note_on channel=4 note=61 velocity=105 time=0
EXTRACT: note_on channel=4 note=56 velocity=105 time=0
EXTRACT: note_on channel=8 note=61 velocity=127 time=0
EXTRACT: note_on channel=9 note=46 velocity=127 time=0
EXTRACT: note_on channel=13 note=59 velocity=115 time=0
EXTRACT: note_on channel=13 note=47 velocity=115 time=0
EXTRACT: note_on channel=14 note=83 velocity=115 time=0
EXTRACT: note_on channel=15 note=63 velocity=90 time=0
EXTRACT: note_on channel=0 note=49 velocity=120 time=0
EXTRACT: note_off channel=4 note=56 velocity=0 time=0.05434775
EXTRACT: note_off channel=4 note=61 velocity=0 time=0
EXTRACT: note_off channel=9 note=46 velocity=0 time=0
EXTRACT: note_off channel=15 note=63 velocity=0 time=0.004528979166666667
EXTRACT: note_off channel=13 note=47 velocity=0 time=0.0135869375
EXTRACT: note_off channel=13 note=59 velocity=0 time=0
EXTRACT: note_off channel=14 note=83 velocity=0 time=0
EXTRACT: note_off channel=8 note=61 velocity=0 time=0.03623183333333334
EXTRACT: note_on channel=9 note=36 velocity=127 time=0
EXTRACT: note_on channel=9 note=36 velocity=127 time=0
EXTRACT: note_on channel=9 note=36 velocity=127 time=0
EXTRACT: note_on channel=9 note=36 velocity=127 time=0
EXTRACT: note_off channel=1 note=49 velocity=0 time=0.05434775
EXTRACT: note_off channel=1 note=37 velocity=0 time=0
EXTRACT: note_off channel=9 note=36 velocity=64 time=0
EXTRACT: note_off channel=9 note=36 velocity=64 time=0
EXTRACT: note_off channel=9 note=36 velocity=64 time=0
EXTRACT: note_off channel=9 note=36 velocity=64 time=0
EXTRACT: note_off channel=0 note=49 velocity=0 time=0
EXTRACT: note_on channel=4 note=61 velocity=105 time=0.05434775
EXTRACT: note_on channel=4 note=56 velocity=105 time=0
EXTRACT: note_on channel=8 note=49 velocity=127 time=0
EXTRACT: note_on channel=9 note=36 velocity=127 time=0
EXTRACT: note_on channel=9 note=36 velocity=127 time=0
EXTRACT: note_on channel=9 note=36 velocity=127 time=0
EXTRACT: note_on channel=9 note=36 velocity=127 time=0
EXTRACT: note_on channel=9 note=28 velocity=127 time=0
EXTRACT: note_on channel=9 note=42 velocity=127 time=0
EXTRACT: note_on channel=9 note=76 velocity=80 time=0
EXTRACT: note_on channel=13 note=59 velocity=115 time=0
EXTRACT: note_on channel=13 note=47 velocity=115 time=0
EXTRACT: note_on channel=14 note=83 velocity=115 time=0
EXTRACT: note_on channel=15 note=63 velocity=90 time=0
EXTRACT: note_off channel=9 note=76 velocity=0 time=0.027173875
EXTRACT: note_off channel=4 note=56 velocity=0 time=0.027173875
EXTRACT: note_off channel=4 note=61 velocity=0 time=0
EXTRACT: note_off channel=9 note=42 velocity=0 time=0
EXTRACT: note_off channel=9 note=36 velocity=64 time=0
EXTRACT: note_off channel=9 note=36 velocity=64 time=0
EXTRACT: note_off channel=9 note=36 velocity=64 time=0
EXTRACT: note_off channel=9 note=36 velocity=64 time=0
EXTRACT: note_off channel=15 note=63 velocity=0 time=0.004528979166666667
EXTRACT: note_off channel=13 note=47 velocity=0 time=0.0135869375
EXTRACT: note_off channel=13 note=59 velocity=0 time=0
EXTRACT: note_off channel=14 note=83 velocity=0 time=0
EXTRACT: note_off channel=8 note=49 velocity=0 time=0.03623183333333334
EXTRACT: note_on channel=1 note=37 velocity=110 time=0.1086955
EXTRACT: note_on channel=1 note=49 velocity=110 time=0
EXTRACT: note_on channel=8 note=61 velocity=127 time=0
EXTRACT: note_on channel=9 note=36 velocity=127 time=0
EXTRACT: note_on channel=9 note=36 velocity=127 time=0
EXTRACT: note_on channel=9 note=36 velocity=127 time=0
EXTRACT: note_on channel=9 note=36 velocity=127 time=0
EXTRACT: note_on channel=9 note=46 velocity=127 time=0
EXTRACT: note_on channel=13 note=59 velocity=115 time=0
EXTRACT: note_on channel=13 note=47 velocity=115 time=0
EXTRACT: note_on channel=14 note=83 velocity=115 time=0
EXTRACT: note_on channel=15 note=63 velocity=90 time=0
EXTRACT: note_on channel=0 note=49 velocity=120 time=0
EXTRACT: note_off channel=9 note=46 velocity=0 time=0.05434775
EXTRACT: note_off channel=9 note=36 velocity=64 time=0
EXTRACT: note_off channel=9 note=36 velocity=64 time=0
EXTRACT: note_off channel=9 note=36 velocity=64 time=0
EXTRACT: note_off channel=9 note=36 velocity=64 time=0
EXTRACT: note_off channel=15 note=63 velocity=0 time=0.009057958333333335
EXTRACT: note_off channel=13 note=47 velocity=0 time=0.0135869375
EXTRACT: note_off channel=13 note=59 velocity=0 time=0
EXTRACT: note_off channel=14 note=83 velocity=0 time=0
EXTRACT: note_off channel=8 note=61 velocity=0 time=0.03170285416666667
EXTRACT: note_off channel=1 note=49 velocity=0 time=0.05434775
EXTRACT: note_off channel=1 note=37 velocity=0 time=0
EXTRACT: note_off channel=0 note=49 velocity=0 time=0
EXTRACT: note_off channel=9 note=28 velocity=0 time=0.0407608125
EXTRACT: note_on channel=4 note=66 velocity=105 time=0.0135869375
EXTRACT: note_on channel=4 note=61 velocity=105 time=0
EXTRACT: note_on channel=8 note=54 velocity=127 time=0
EXTRACT: note_on channel=9 note=36 velocity=127 time=0
EXTRACT: note_on channel=9 note=36 velocity=127 time=0
EXTRACT: note_on channel=9 note=36 velocity=127 time=0
EXTRACT: note_on channel=9 note=36 velocity=127 time=0
EXTRACT: note_on channel=9 note=42 velocity=127 time=0
EXTRACT: note_on channel=13 note=58 velocity=115 time=0
EXTRACT: note_on channel=13 note=46 velocity=115 time=0
EXTRACT: note_on channel=14 note=82 velocity=115 time=0
EXTRACT: note_on channel=15 note=61 velocity=90 time=0
EXTRACT: note_off channel=4 note=61 velocity=0 time=0.05434775
EXTRACT: note_off channel=4 note=66 velocity=0 time=0
EXTRACT: note_off channel=9 note=42 velocity=0 time=0
EXTRACT: note_off channel=9 note=36 velocity=64 time=0
EXTRACT: note_off channel=9 note=36 velocity=64 time=0
EXTRACT: note_off channel=9 note=36 velocity=64 time=0
EXTRACT: note_off channel=9 note=36 velocity=64 time=0
EXTRACT: note_off channel=8 note=54 velocity=0 time=0.05434775
EXTRACT: note_on channel=1 note=42 velocity=110 time=0.1086955
EXTRACT: note_on channel=1 note=54 velocity=110 time=0
EXTRACT: note_on channel=4 note=66 velocity=105 time=0
EXTRACT: note_on channel=4 note=61 velocity=105 time=0
EXTRACT: note_on channel=8 note=66 velocity=127 time=0
EXTRACT: note_on channel=9 note=46 velocity=127 time=0
EXTRACT: note_off channel=15 note=61 velocity=0 time=0
EXTRACT: note_on channel=0 note=54 velocity=120 time=0
EXTRACT: note_off channel=4 note=61 velocity=0 time=0.05434775
EXTRACT: note_off channel=4 note=66 velocity=0 time=0
EXTRACT: note_off channel=9 note=46 velocity=0 time=0
EXTRACT: note_off channel=13 note=46 velocity=0 time=0.03623183333333334
EXTRACT: note_off channel=13 note=58 velocity=0 time=0
EXTRACT: note_off channel=14 note=82 velocity=0 time=0
EXTRACT: note_off channel=8 note=66 velocity=0 time=0.01811591666666667
EXTRACT: note_on channel=13 note=66 velocity=115 time=0
EXTRACT: note_on channel=13 note=54 velocity=115 time=0
EXTRACT: note_on channel=14 note=90 velocity=115 time=0
EXTRACT: note_on channel=15 note=70 velocity=90 time=0
EXTRACT: note_off channel=1 note=54 velocity=0 time=0.05434775
EXTRACT: note_off channel=1 note=42 velocity=0 time=0
EXTRACT: note_off channel=0 note=54 velocity=0 time=0
EXTRACT: note_off channel=15 note=70 velocity=0 time=0.03170285416666667
EXTRACT: note_on channel=3 note=70 velocity=127 time=0.022644895833333335
EXTRACT: note_on channel=4 note=66 velocity=105 time=0
EXTRACT: note_on channel=4 note=61 velocity=105 time=0
EXTRACT: note_on channel=8 note=54 velocity=127 time=0
EXTRACT: note_on channel=9 note=36 velocity=127 time=0
EXTRACT: note_on channel=9 note=36 velocity=127 time=0
EXTRACT: note_on channel=9 note=36 velocity=127 time=0
EXTRACT: note_on channel=9 note=36 velocity=127 time=0
EXTRACT: note_on channel=9 note=28 velocity=127 time=0
EXTRACT: note_on channel=9 note=42 velocity=127 time=0
EXTRACT: note_on channel=9 note=76 velocity=80 time=0
EXTRACT: note_off channel=13 note=54 velocity=0 time=0.0135869375
EXTRACT: note_off channel=13 note=66 velocity=0 time=0
EXTRACT: note_off channel=14 note=90 velocity=0 time=0
EXTRACT: note_off channel=9 note=76 velocity=0 time=0.0135869375
EXTRACT: note_off channel=4 note=61 velocity=0 time=0.027173875
EXTRACT: note_off channel=4 note=66 velocity=0 time=0
EXTRACT: note_off channel=9 note=42 velocity=0 time=0
EXTRACT: note_off channel=9 note=36 velocity=64 time=0
EXTRACT: note_off channel=9 note=36 velocity=64 time=0
EXTRACT: note_off channel=9 note=36 velocity=64 time=0
EXTRACT: note_off channel=9 note=36 velocity=64 time=0
EXTRACT: note_off channel=8 note=54 velocity=0 time=0.05434775
EXTRACT: note_on channel=1 note=42 velocity=110 time=0.1086955
EXTRACT: note_on channel=1 note=54 velocity=110 time=0
EXTRACT: note_on channel=8 note=66 velocity=127 time=0
EXTRACT: note_on channel=9 note=46 velocity=127 time=0
EXTRACT: note_on channel=9 note=76 velocity=80 time=0
EXTRACT: note_on channel=13 note=70 velocity=115 time=0
EXTRACT: note_on channel=13 note=58 velocity=115 time=0
EXTRACT: note_on channel=14 note=94 velocity=115 time=0
EXTRACT: note_on channel=15 note=73 velocity=90 time=0
EXTRACT: note_on channel=0 note=54 velocity=120 time=0
EXTRACT: note_off channel=9 note=76 velocity=0 time=0.027173875
EXTRACT: note_off channel=15 note=73 velocity=0 time=0.009057958333333335
EXTRACT: note_off channel=13 note=58 velocity=0 time=0.0135869375
EXTRACT: note_off channel=13 note=70 velocity=0 time=0
EXTRACT: note_off channel=14 note=94 velocity=0 time=0
EXTRACT: note_off channel=9 note=46 velocity=0 time=0.004528979166666667
EXTRACT: note_off channel=3 note=70 velocity=0 time=0.009057958333333335
EXTRACT: note_off channel=8 note=66 velocity=0 time=0.027173875
EXTRACT: note_on channel=4 note=66 velocity=105 time=0.01811591666666667
EXTRACT: note_on channel=4 note=61 velocity=105 time=0
EXTRACT: note_on channel=8 note=66 velocity=127 time=0
EXTRACT: note_on channel=13 note=70 velocity=115 time=0
EXTRACT: note_on channel=13 note=58 velocity=115 time=0
EXTRACT: note_on channel=14 note=94 velocity=115 time=0
EXTRACT: note_on channel=15 note=73 velocity=90 time=0
EXTRACT: note_off channel=15 note=73 velocity=0 time=0.04528979166666667
EXTRACT: note_off channel=13 note=58 velocity=0 time=0.004528979166666667
EXTRACT: note_off channel=13 note=70 velocity=0 time=0
EXTRACT: note_off channel=14 note=94 velocity=0 time=0
EXTRACT: note_off channel=1 note=54 velocity=0 time=0.004528979166666667
EXTRACT: note_off channel=1 note=42 velocity=0 time=0
EXTRACT: note_off channel=4 note=61 velocity=0 time=0
EXTRACT: note_off channel=4 note=66 velocity=0 time=0
EXTRACT: note_off channel=0 note=54 velocity=0 time=0
EXTRACT: note_off channel=9 note=28 velocity=0 time=0.0407608125
EXTRACT: note_on channel=3 note=70 velocity=127 time=0.0135869375
EXTRACT: note_on channel=4 note=66 velocity=105 time=0
EXTRACT: note_on channel=4 note=61 velocity=105 time=0
EXTRACT: note_off channel=8 note=66 velocity=0 time=0
EXTRACT: note_on channel=8 note=54 velocity=127 time=0
EXTRACT: note_on channel=9 note=36 velocity=127 time=0
EXTRACT: note_on channel=9 note=36 velocity=127 time=0
EXTRACT: note_on channel=9 note=36 velocity=127 time=0
EXTRACT: note_on channel=9 note=36 velocity=127 time=0
EXTRACT: note_on channel=9 note=42 velocity=127 time=0
EXTRACT: note_on channel=13 note=70 velocity=115 time=0
EXTRACT: note_on channel=13 note=58 velocity=115 time=0
EXTRACT: note_on channel=14 note=94 velocity=115 time=0
EXTRACT: note_on channel=15 note=73 velocity=90 time=0
EXTRACT: note_off channel=4 note=61 velocity=0 time=0.05434775
EXTRACT: note_off channel=4 note=66 velocity=0 time=0
EXTRACT: note_off channel=9 note=42 velocity=0 time=0
EXTRACT: note_off channel=9 note=36 velocity=64 time=0
EXTRACT: note_off channel=9 note=36 velocity=64 time=0
EXTRACT: note_off channel=9 note=36 velocity=64 time=0
EXTRACT: note_off channel=9 note=36 velocity=64 time=0
EXTRACT: note_off channel=15 note=73 velocity=0 time=0.004528979166666667
EXTRACT: note_off channel=13 note=58 velocity=0 time=0.01811591666666667
EXTRACT: note_off channel=13 note=70 velocity=0 time=0
EXTRACT: note_off channel=14 note=94 velocity=0 time=0
EXTRACT: note_off channel=8 note=54 velocity=0 time=0.03170285416666667
EXTRACT: note_on channel=1 note=42 velocity=110 time=0.1086955
EXTRACT: note_on channel=1 note=54 velocity=110 time=0
EXTRACT: note_on channel=4 note=66 velocity=105 time=0
EXTRACT: note_on channel=4 note=61 velocity=105 time=0
EXTRACT: note_on channel=8 note=66 velocity=127 time=0
EXTRACT: note_on channel=9 note=46 velocity=127 time=0
EXTRACT: note_on channel=13 note=70 velocity=115 time=0
EXTRACT: note_on channel=13 note=58 velocity=115 time=0
EXTRACT: note_on channel=14 note=94 velocity=115 time=0
EXTRACT: note_on channel=15 note=73 velocity=90 time=0
EXTRACT: note_on channel=0 note=54 velocity=120 time=0
EXTRACT: note_off channel=4 note=61 velocity=0 time=0.05434775
EXTRACT: note_off channel=4 note=66 velocity=0 time=0
EXTRACT: note_off channel=9 note=46 velocity=0 time=0
EXTRACT: note_off channel=15 note=73 velocity=0 time=0.01811591666666667
EXTRACT: note_off channel=8 note=66 velocity=0 time=0.03623183333333334
EXTRACT: note_on channel=9 note=36 velocity=127 time=0
EXTRACT: note_on channel=9 note=36 velocity=127 time=0
EXTRACT: note_on channel=9 note=36 velocity=127 time=0
EXTRACT: note_on channel=9 note=36 velocity=127 time=0
EXTRACT: note_off channel=3 note=70 velocity=0 time=0.03623183333333334
EXTRACT: note_off channel=1 note=54 velocity=0 time=0.01811591666666667
EXTRACT: note_off channel=1 note=42 velocity=0 time=0
EXTRACT: note_off channel=9 note=36 velocity=64 time=0
EXTRACT: note_off channel=9 note=36 velocity=64 time=0
EXTRACT: note_off channel=9 note=36 velocity=64 time=0
EXTRACT: note_off channel=9 note=36 velocity=64 time=0
EXTRACT: note_off channel=0 note=54 velocity=0 time=0
EXTRACT: note_off channel=13 note=58 velocity=0 time=0.027173875
EXTRACT: note_off channel=13 note=70 velocity=0 time=0
EXTRACT: note_on channel=3 note=68 velocity=127 time=0.027173875
EXTRACT: note_on channel=4 note=66 velocity=105 time=0
EXTRACT: note_on channel=4 note=61 velocity=105 time=0
EXTRACT: note_on channel=8 note=54 velocity=127 time=0
EXTRACT: note_on channel=9 note=36 velocity=127 time=0
EXTRACT: note_on channel=9 note=36 velocity=127 time=0
EXTRACT: note_on channel=9 note=36 velocity=127 time=0
EXTRACT: note_on channel=9 note=36 velocity=127 time=0
EXTRACT: note_on channel=9 note=28 velocity=127 time=0
EXTRACT: note_on channel=9 note=42 velocity=127 time=0
EXTRACT: note_on channel=9 note=76 velocity=80 time=0
EXTRACT: note_on channel=13 note=68 velocity=115 time=0
EXTRACT: note_on channel=13 note=56 velocity=115 time=0
EXTRACT: note_on channel=14 note=92 velocity=115 time=0
EXTRACT: note_on channel=15 note=71 velocity=90 time=0
EXTRACT: note_off channel=9 note=76 velocity=0 time=0.027173875
EXTRACT: note_off channel=14 note=94 velocity=0 time=0
EXTRACT: note_off channel=4 note=61 velocity=0 time=0.027173875
EXTRACT: note_off channel=4 note=66 velocity=0 time=0
EXTRACT: note_off channel=9 note=42 velocity=0 time=0
EXTRACT: note_off channel=9 note=36 velocity=64 time=0
EXTRACT: note_off channel=9 note=36 velocity=64 time=0
EXTRACT: note_off channel=9 note=36 velocity=64 time=0
EXTRACT: note_off channel=9 note=36 velocity=64 time=0
EXTRACT: note_off channel=15 note=71 velocity=0 time=0.022644895833333335
EXTRACT: note_off channel=13 note=56 velocity=0 time=0.0135869375
EXTRACT: note_off channel=13 note=68 velocity=0 time=0
EXTRACT: note_off channel=14 note=92 velocity=0 time=0
EXTRACT: note_off channel=8 note=54 velocity=0 time=0.01811591666666667
EXTRACT: note_on channel=1 note=42 velocity=110 time=0.1086955
EXTRACT: note_on channel=1 note=54 velocity=110 time=0
EXTRACT: note_on channel=8 note=66 velocity=127 time=0
EXTRACT: note_on channel=9 note=36 velocity=127 time=0
EXTRACT: note_on channel=9 note=36 velocity=127 time=0
EXTRACT: note_on channel=9 note=36 velocity=127 time=0
EXTRACT: note_on channel=9 note=36 velocity=127 time=0
EXTRACT: note_on channel=9 note=46 velocity=127 time=0
EXTRACT: note_on channel=13 note=68 velocity=115 time=0
EXTRACT: note_on channel=13 note=56 velocity=115 time=0
EXTRACT: note_on channel=14 note=92 velocity=115 time=0
EXTRACT: note_on channel=15 note=71 velocity=90 time=0
EXTRACT: note_on channel=0 note=54 velocity=120 time=0
EXTRACT: note_off channel=9 note=46 velocity=0 time=0.05434775
EXTRACT: note_off channel=9 note=36 velocity=64 time=0
EXTRACT: note_off channel=9 note=36 velocity=64 time=0
EXTRACT: note_off channel=9 note=36 velocity=64 time=0
EXTRACT: note_off channel=9 note=36 velocity=64 time=0
EXTRACT: note_off channel=13 note=56 velocity=0 time=0.027173875
EXTRACT: note_off channel=13 note=68 velocity=0 time=0
EXTRACT: note_off channel=15 note=71 velocity=0 time=0
EXTRACT: note_off channel=8 note=66 velocity=0 time=0.027173875
EXTRACT: note_off channel=14 note=92 velocity=0 time=0.0135869375
EXTRACT: note_off channel=1 note=54 velocity=0 time=0.0407608125
EXTRACT: note_off channel=1 note=42 velocity=0 time=0
EXTRACT: note_off channel=0 note=54 velocity=0 time=0
EXTRACT: note_off channel=3 note=68 velocity=0 time=0.004528979166666667
EXTRACT: note_off channel=9 note=28 velocity=0 time=0.03623183333333334
EXTRACT: note_on channel=3 note=66 velocity=127 time=0.0135869375
EXTRACT: note_on channel=4 note=66 velocity=105 time=0
EXTRACT: note_on channel=4 note=61 velocity=105 time=0
EXTRACT: note_on channel=8 note=54 velocity=127 time=0
EXTRACT: note_on channel=9 note=36 velocity=127 time=0
EXTRACT: note_on channel=9 note=36 velocity=127 time=0
EXTRACT: note_on channel=9 note=36 velocity=127 time=0
EXTRACT: note_on channel=9 note=36 velocity=127 time=0
EXTRACT: note_on channel=9 note=42 velocity=127 time=0
EXTRACT: note_on channel=9 note=49 velocity=85 time=0
EXTRACT: note_on channel=13 note=66 velocity=115 time=0
EXTRACT: note_on channel=13 note=54 velocity=115 time=0
EXTRACT: note_on channel=14 note=90 velocity=115 time=0
EXTRACT: note_on channel=15 note=70 velocity=90 time=0
EXTRACT: note_off channel=9 note=49 velocity=0 time=0.027173875
EXTRACT: note_off channel=4 note=61 velocity=0 time=0.027173875
EXTRACT: note_off channel=4 note=66 velocity=0 time=0
EXTRACT: note_off channel=9 note=42 velocity=0 time=0
EXTRACT: note_off channel=9 note=36 velocity=64 time=0
EXTRACT: note_off channel=9 note=36 velocity=64 time=0
EXTRACT: note_off channel=9 note=36 velocity=64 time=0
EXTRACT: note_off channel=9 note=36 velocity=64 time=0
EXTRACT: note_off channel=8 note=54 velocity=0 time=0.05434775
EXTRACT: note_off channel=15 note=70 velocity=0 time=0.01811591666666667
EXTRACT: note_on channel=1 note=42 velocity=110 time=0.09057958333333334
EXTRACT: note_on channel=1 note=54 velocity=110 time=0
EXTRACT: note_on channel=4 note=66 velocity=105 time=0
EXTRACT: note_on channel=4 note=61 velocity=105 time=0
EXTRACT: note_on channel=8 note=66 velocity=127 time=0
EXTRACT: note_on channel=9 note=46 velocity=127 time=0
EXTRACT: note_on channel=0 note=54 velocity=120 time=0
EXTRACT: note_off channel=4 note=61 velocity=0 time=0.05434775
EXTRACT: note_off channel=4 note=66 velocity=0 time=0
EXTRACT: note_off channel=9 note=46 velocity=0 time=0
EXTRACT: note_off channel=13 note=54 velocity=0 time=0
EXTRACT: note_off channel=13 note=66 velocity=0 time=0
EXTRACT: note_off channel=14 note=90 velocity=0 time=0.01811591666666667
EXTRACT: note_off channel=8 note=66 velocity=0 time=0.03623183333333334
EXTRACT: note_on channel=13 note=61 velocity=115 time=0
EXTRACT: note_on channel=13 note=49 velocity=115 time=0
EXTRACT: note_on channel=14 note=85 velocity=115 time=0
EXTRACT: note_on channel=15 note=66 velocity=90 time=0
EXTRACT: note_off channel=1 note=54 velocity=0 time=0.05434775
EXTRACT: note_off channel=1 note=42 velocity=0 time=0
EXTRACT: note_off channel=0 note=54 velocity=0 time=0
EXTRACT: note_off channel=15 note=66 velocity=0 time=0.0407608125
EXTRACT: note_on channel=4 note=66 velocity=105 time=0.0135869375
EXTRACT: note_on channel=4 note=61 velocity=105 time=0
EXTRACT: note_on channel=8 note=54 velocity=127 time=0
EXTRACT: note_on channel=9 note=36 velocity=127 time=0
EXTRACT: note_on channel=9 note=36 velocity=127 time=0
EXTRACT: note_on channel=9 note=36 velocity=127 time=0
EXTRACT: note_on channel=9 note=36 velocity=127 time=0
EXTRACT: note_on channel=9 note=28 velocity=127 time=0
EXTRACT: note_on channel=9 note=42 velocity=127 time=0
EXTRACT: note_on channel=9 note=76 velocity=80 time=0
EXTRACT: note_off channel=13 note=49 velocity=0 time=0
EXTRACT: note_off channel=13 note=61 velocity=0 time=0
EXTRACT: note_off channel=14 note=85 velocity=0 time=0
EXTRACT: note_off channel=3 note=66 velocity=0 time=0.027173875
EXTRACT: note_off channel=9 note=76 velocity=0 time=0
EXTRACT: note_off channel=4 note=61 velocity=0 time=0.027173875
EXTRACT: note_off channel=4 note=66 velocity=0 time=0
EXTRACT: note_off channel=9 note=42 velocity=0 time=0
EXTRACT: note_off channel=9 note=36 velocity=64 time=0
EXTRACT: note_off channel=9 note=36 velocity=64 time=0
EXTRACT: note_off channel=9 note=36 velocity=64 time=0
EXTRACT: note_off channel=9 note=36 velocity=64 time=0
EXTRACT: note_off channel=8 note=54 velocity=0 time=0.05434775
EXTRACT: note_on channel=1 note=42 velocity=110 time=0.1086955
EXTRACT: note_on channel=1 note=54 velocity=110 time=0
EXTRACT: note_on channel=3 note=61 velocity=127 time=0
EXTRACT: note_on channel=8 note=66 velocity=127 time=0
EXTRACT: note_on channel=9 note=46 velocity=127 time=0
EXTRACT: note_on channel=9 note=76 velocity=80 time=0
EXTRACT: note_on channel=13 note=61 velocity=115 time=0
EXTRACT: note_on channel=13 note=49 velocity=115 time=0
EXTRACT: note_on channel=14 note=85 velocity=115 time=0
EXTRACT: note_on channel=15 note=66 velocity=90 time=0
EXTRACT: note_on channel=0 note=54 velocity=120 time=0
EXTRACT: note_off channel=9 note=76 velocity=0 time=0.027173875
EXTRACT: note_off channel=9 note=46 velocity=0 time=0.027173875
EXTRACT: note_off channel=15 note=66 velocity=0 time=0.01811591666666667
EXTRACT: note_off channel=8 note=66 velocity=0 time=0.01811591666666667
EXTRACT: note_off channel=3 note=61 velocity=0 time=0.0135869375
EXTRACT: note_on channel=4 note=66 velocity=105 time=0.004528979166666667
EXTRACT: note_on channel=4 note=61 velocity=105 time=0
EXTRACT: note_on channel=8 note=66 velocity=127 time=0
EXTRACT: note_off channel=1 note=54 velocity=0 time=0.05434775
EXTRACT: note_off channel=1 note=42 velocity=0 time=0
EXTRACT: note_off channel=4 note=61 velocity=0 time=0
EXTRACT: note_off channel=4 note=66 velocity=0 time=0
EXTRACT: note_off channel=13 note=49 velocity=0 time=0
EXTRACT: note_off channel=13 note=61 velocity=0 time=0
EXTRACT: note_off channel=14 note=85 velocity=0 time=0
EXTRACT: note_off channel=0 note=54 velocity=0 time=0
EXTRACT: note_off channel=9 note=28 velocity=0 time=0.0407608125
EXTRACT: note_on channel=3 note=61 velocity=127 time=0.0135869375
EXTRACT: note_on channel=4 note=61 velocity=105 time=0
EXTRACT: note_on channel=4 note=56 velocity=105 time=0
EXTRACT: note_off channel=8 note=66 velocity=0 time=0
EXTRACT: note_on channel=8 note=49 velocity=127 time=0
EXTRACT: note_on channel=9 note=36 velocity=127 time=0
EXTRACT: note_on channel=9 note=36 velocity=127 time=0
EXTRACT: note_on channel=9 note=36 velocity=127 time=0
EXTRACT: note_on channel=9 note=36 velocity=127 time=0
EXTRACT: note_on channel=9 note=42 velocity=127 time=0
EXTRACT: note_on channel=13 note=61 velocity=115 time=0
EXTRACT: note_on channel=13 note=49 velocity=115 time=0
EXTRACT: note_on channel=14 note=85 velocity=115 time=0
EXTRACT: note_on channel=15 note=66 velocity=90 time=0
EXTRACT: note_off channel=4 note=56 velocity=0 time=0.05434775
EXTRACT: note_off channel=4 note=61 velocity=0 time=0
EXTRACT: note_off channel=9 note=42 velocity=0 time=0
EXTRACT: note_off channel=9 note=36 velocity=64 time=0
EXTRACT: note_off channel=9 note=36 velocity=64 time=0
EXTRACT: note_off channel=9 note=36 velocity=64 time=0
EXTRACT: note_off channel=9 note=36 velocity=64 time=0
EXTRACT: note_off channel=15 note=66 velocity=0 time=0.022644895833333335
EXTRACT: note_off channel=13 note=49 velocity=0 time=0.009057958333333335
EXTRACT: note_off channel=13 note=61 velocity=0 time=0
EXTRACT: note_off channel=14 note=85 velocity=0 time=0
EXTRACT: note_off channel=3 note=61 velocity=0 time=0.009057958333333335
EXTRACT: note_off channel=8 note=49 velocity=0 time=0.0135869375
EXTRACT: note_on channel=1 note=37 velocity=110 time=0.1086955
EXTRACT: note_on channel=1 note=49 velocity=110 time=0
EXTRACT: note_on channel=3 note=61 velocity=127 time=0
EXTRACT: note_on channel=4 note=61 velocity=105 time=0
EXTRACT: note_on channel=4 note=56 velocity=105 time=0
EXTRACT: note_on channel=8 note=61 velocity=127 time=0
EXTRACT: note_on channel=9 note=46 velocity=127 time=0
EXTRACT: note_on channel=13 note=61 velocity=115 time=0
EXTRACT: note_on channel=13 note=49 velocity=115 time=0
EXTRACT: note_on channel=14 note=85 velocity=115 time=0
EXTRACT: note_on channel=15 note=66 velocity=90 time=0
EXTRACT: note_on channel=0 note=49 velocity=120 time=0
EXTRACT: note_off channel=4 note=56 velocity=0 time=0.05434775
EXTRACT: note_off channel=4 note=61 velocity=0 time=0
EXTRACT: note_off channel=9 note=46 velocity=0 time=0
EXTRACT: note_off channel=13 note=49 velocity=0 time=0.022644895833333335
EXTRACT: note_off channel=13 note=61 velocity=0 time=0
EXTRACT: note_off channel=14 note=85 velocity=0 time=0
EXTRACT: note_off channel=15 note=66 velocity=0 time=0
EXTRACT: note_off channel=8 note=61 velocity=0 time=0.03170285416666667
EXTRACT: note_on channel=9 note=36 velocity=127 time=0
EXTRACT: note_on channel=9 note=36 velocity=127 time=0
EXTRACT: note_on channel=9 note=36 velocity=127 time=0
EXTRACT: note_on channel=9 note=36 velocity=127 time=0
EXTRACT: note_off channel=3 note=61 velocity=0 time=0.0135869375
EXTRACT: note_off channel=1 note=49 velocity=0 time=0.0407608125
EXTRACT: note_off channel=1 note=37 velocity=0 time=0
EXTRACT: note_off channel=9 note=36 velocity=64 time=0
EXTRACT: note_off channel=9 note=36 velocity=64 time=0
EXTRACT: note_off channel=9 note=36 velocity=64 time=0
EXTRACT: note_off channel=9 note=36 velocity=64 time=0
EXTRACT: note_off channel=0 note=49 velocity=0 time=0
EXTRACT: note_on channel=3 note=68 velocity=127 time=0.05434775
EXTRACT: note_on channel=4 note=61 velocity=105 time=0
EXTRACT: note_on channel=4 note=56 velocity=105 time=0
EXTRACT: note_on channel=8 note=49 velocity=127 time=0
EXTRACT: note_on channel=9 note=36 velocity=127 time=0
EXTRACT: note_on channel=9 note=36 velocity=127 time=0
EXTRACT: note_on channel=9 note=36 velocity=127 time=0
EXTRACT: note_on channel=9 note=36 velocity=127 time=0
EXTRACT: note_on channel=9 note=28 velocity=127 time=0
EXTRACT: note_on channel=9 note=42 velocity=127 time=0
EXTRACT: note_on channel=9 note=76 velocity=80 time=0
EXTRACT: note_on channel=13 note=68 velocity=115 time=0
EXTRACT: note_on channel=13 note=56 velocity=115 time=0
EXTRACT: note_on channel=14 note=92 velocity=115 time=0
EXTRACT: note_on channel=15 note=71 velocity=90 time=0
EXTRACT: note_off channel=9 note=76 velocity=0 time=0.027173875
EXTRACT: note_off channel=4 note=56 velocity=0 time=0.027173875
EXTRACT: note_off channel=4 note=61 velocity=0 time=0
EXTRACT: note_off channel=9 note=42 velocity=0 time=0
EXTRACT: note_off channel=9 note=36 velocity=64 time=0
EXTRACT: note_off channel=9 note=36 velocity=64 time=0
EXTRACT: note_off channel=9 note=36 velocity=64 time=0
EXTRACT: note_off channel=9 note=36 velocity=64 time=0
EXTRACT: note_off channel=13 note=56 velocity=0 time=0.0135869375
EXTRACT: note_off channel=13 note=68 velocity=0 time=0
EXTRACT: note_off channel=14 note=92 velocity=0 time=0
EXTRACT: note_off channel=15 note=71 velocity=0 time=0.027173875
EXTRACT: note_off channel=3 note=68 velocity=0 time=0.004528979166666667
EXTRACT: note_off channel=8 note=49 velocity=0 time=0.009057958333333335
EXTRACT: note_on channel=1 note=37 velocity=110 time=0.1086955
EXTRACT: note_on channel=1 note=49 velocity=110 time=0
EXTRACT: note_on channel=3 note=68 velocity=127 time=0
EXTRACT: note_on channel=8 note=61 velocity=127 time=0
EXTRACT: note_on channel=9 note=36 velocity=127 time=0
EXTRACT: note_on channel=9 note=36 velocity=127 time=0
EXTRACT: note_on channel=9 note=36 velocity=127 time=0
EXTRACT: note_on channel=9 note=36 velocity=127 time=0
EXTRACT: note_on channel=9 note=46 velocity=127 time=0
EXTRACT: note_on channel=13 note=68 velocity=115 time=0
EXTRACT: note_on channel=13 note=56 velocity=115 time=0
EXTRACT: note_on channel=14 note=92 velocity=115 time=0
EXTRACT: note_on channel=15 note=71 velocity=90 time=0
EXTRACT: note_on channel=0 note=49 velocity=120 time=0
EXTRACT: note_off channel=9 note=46 velocity=0 time=0.05434775
EXTRACT: note_off channel=9 note=36 velocity=64 time=0
EXTRACT: note_off channel=9 note=36 velocity=64 time=0
EXTRACT: note_off channel=9 note=36 velocity=64 time=0
EXTRACT: note_off channel=9 note=36 velocity=64 time=0
EXTRACT: note_off channel=13 note=56 velocity=0 time=0.027173875
EXTRACT: note_off channel=13 note=68 velocity=0 time=0
EXTRACT: note_off channel=15 note=71 velocity=0 time=0.0135869375
EXTRACT: note_off channel=14 note=92 velocity=0 time=0.009057958333333335
EXTRACT: note_off channel=8 note=61 velocity=0 time=0.004528979166666667
EXTRACT: note_off channel=3 note=68 velocity=0 time=0.009057958333333335
EXTRACT: note_off channel=1 note=49 velocity=0 time=0.04528979166666667
EXTRACT: note_off channel=1 note=37 velocity=0 time=0
EXTRACT: note_off channel=0 note=49 velocity=0 time=0
EXTRACT: note_off channel=9 note=28 velocity=0 time=0.0407608125
EXTRACT: note_on channel=3 note=66 velocity=127 time=0.0135869375
EXTRACT: note_on channel=4 note=63 velocity=105 time=0
EXTRACT: note_on channel=4 note=58 velocity=105 time=0
EXTRACT: note_on channel=8 note=51 velocity=127 time=0
EXTRACT: note_on channel=9 note=36 velocity=127 time=0
EXTRACT: note_on channel=9 note=36 velocity=127 time=0
EXTRACT: note_on channel=9 note=36 velocity=127 time=0
EXTRACT: note_on channel=9 note=36 velocity=127 time=0
EXTRACT: note_on channel=9 note=42 velocity=127 time=0
EXTRACT: note_on channel=13 note=66 velocity=115 time=0
EXTRACT: note_on channel=13 note=54 velocity=115 time=0
EXTRACT: note_on channel=14 note=90 velocity=115 time=0
EXTRACT: note_on channel=15 note=70 velocity=90 time=0
EXTRACT: note_off channel=4 note=58 velocity=0 time=0.05434775
EXTRACT: note_off channel=4 note=63 velocity=0 time=0
EXTRACT: note_off channel=9 note=42 velocity=0 time=0
EXTRACT: note_off channel=9 note=36 velocity=64 time=0
EXTRACT: note_off channel=9 note=36 velocity=64 time=0
EXTRACT: note_off channel=9 note=36 velocity=64 time=0
EXTRACT: note_off channel=9 note=36 velocity=64 time=0
EXTRACT: note_off channel=15 note=70 velocity=0 time=0.03170285416666667
EXTRACT: note_off channel=8 note=51 velocity=0 time=0.022644895833333335
EXTRACT: note_on channel=1 note=39 velocity=110 time=0.1086955
EXTRACT: note_on channel=1 note=51 velocity=110 time=0
EXTRACT: note_on channel=4 note=63 velocity=105 time=0
EXTRACT: note_on channel=4 note=58 velocity=105 time=0
EXTRACT: note_on channel=8 note=63 velocity=127 time=0
EXTRACT: note_on channel=9 note=46 velocity=127 time=0
EXTRACT: note_on channel=0 note=51 velocity=120 time=0
EXTRACT: note_off channel=4 note=58 velocity=0 time=0.05434775
EXTRACT: note_off channel=4 note=63 velocity=0 time=0
EXTRACT: note_off channel=9 note=46 velocity=0 time=0
EXTRACT: note_off channel=13 note=54 velocity=0 time=0.0135869375
EXTRACT: note_off channel=13 note=66 velocity=0 time=0
EXTRACT: note_off channel=14 note=90 velocity=0 time=0
EXTRACT: note_off channel=8 note=63 velocity=0 time=0.0407608125
EXTRACT: note_on channel=13 note=63 velocity=115 time=0
EXTRACT: note_on channel=13 note=51 velocity=115 time=0
EXTRACT: note_on channel=14 note=87 velocity=115 time=0
EXTRACT: note_on channel=15 note=66 velocity=90 time=0
EXTRACT: note_off channel=3 note=66 velocity=0 time=0.04528979166666667
EXTRACT: note_off channel=1 note=51 velocity=0 time=0.009057958333333335
EXTRACT: note_off channel=1 note=39 velocity=0 time=0
EXTRACT: note_off channel=0 note=51 velocity=0 time=0
EXTRACT: note_off channel=15 note=66 velocity=0 time=0.004528979166666667
EXTRACT: note_on channel=4 note=63 velocity=105 time=0.04981877083333334
EXTRACT: note_on channel=4 note=58 velocity=105 time=0
EXTRACT: note_on channel=8 note=51 velocity=127 time=0
EXTRACT: note_on channel=9 note=36 velocity=127 time=0
EXTRACT: note_on channel=9 note=36 velocity=127 time=0
EXTRACT: note_on channel=9 note=36 velocity=127 time=0
EXTRACT: note_on channel=9 note=36 velocity=127 time=0
EXTRACT: note_on channel=9 note=28 velocity=127 time=0
EXTRACT: note_on channel=9 note=42 velocity=127 time=0
EXTRACT: note_on channel=9 note=76 velocity=80 time=0
EXTRACT: note_off channel=13 note=51 velocity=0 time=0.009057958333333335
EXTRACT: note_off channel=13 note=63 velocity=0 time=0
EXTRACT: note_off channel=14 note=87 velocity=0 time=0
EXTRACT: note_off channel=9 note=76 velocity=0 time=0.01811591666666667
EXTRACT: note_off channel=4 note=58 velocity=0 time=0.027173875
EXTRACT: note_off channel=4 note=63 velocity=0 time=0
EXTRACT: note_off channel=9 note=42 velocity=0 time=0
EXTRACT: note_off channel=9 note=36 velocity=64 time=0
EXTRACT: note_off channel=9 note=36 velocity=64 time=0
EXTRACT: note_off channel=9 note=36 velocity=64 time=0
EXTRACT: note_off channel=9 note=36 velocity=64 time=0
EXTRACT: note_off channel=8 note=51 velocity=0 time=0.05434775
EXTRACT: note_on channel=1 note=39 velocity=110 time=0.1086955
EXTRACT: note_on channel=1 note=51 velocity=110 time=0
EXTRACT: note_on channel=3 note=63 velocity=127 time=0
EXTRACT: note_on channel=8 note=63 velocity=127 time=0
EXTRACT: note_on channel=9 note=46 velocity=127 time=0
EXTRACT: note_on channel=9 note=76 velocity=80 time=0
EXTRACT: note_on channel=13 note=63 velocity=115 time=0
EXTRACT: note_on channel=13 note=51 velocity=115 time=0
EXTRACT: note_on channel=14 note=87 velocity=115 time=0
EXTRACT: note_on channel=15 note=66 velocity=90 time=0
EXTRACT: note_on channel=0 note=51 velocity=120 time=0
EXTRACT: note_off channel=9 note=76 velocity=0 time=0.027173875
EXTRACT: note_off channel=15 note=66 velocity=0 time=0.01811591666666667
EXTRACT: note_off channel=13 note=51 velocity=0 time=0.004528979166666667
EXTRACT: note_off channel=13 note=63 velocity=0 time=0
EXTRACT: note_off channel=14 note=87 velocity=0 time=0
EXTRACT: note_off channel=9 note=46 velocity=0 time=0.004528979166666667
EXTRACT: note_off channel=3 note=63 velocity=0 time=0.03170285416666667
EXTRACT: note_off channel=8 note=63 velocity=0 time=0.004528979166666667
EXTRACT: note_on channel=4 note=63 velocity=105 time=0.01811591666666667
EXTRACT: note_on channel=4 note=58 velocity=105 time=0
EXTRACT: note_on channel=8 note=63 velocity=127 time=0
EXTRACT: note_on channel=13 note=63 velocity=115 time=0
EXTRACT: note_on channel=13 note=51 velocity=115 time=0
EXTRACT: note_on channel=14 note=87 velocity=115 time=0
EXTRACT: note_on channel=15 note=66 velocity=90 time=0
EXTRACT: note_off channel=1 note=51 velocity=0 time=0.05434775
EXTRACT: note_off channel=1 note=39 velocity=0 time=0
EXTRACT: note_off channel=4 note=58 velocity=0 time=0
EXTRACT: note_off channel=4 note=63 velocity=0 time=0
EXTRACT: note_off channel=0 note=51 velocity=0 time=0
EXTRACT: note_off channel=13 note=51 velocity=0 time=0.004528979166666667
EXTRACT: note_off channel=13 note=63 velocity=0 time=0
EXTRACT: note_off channel=14 note=87 velocity=0 time=0
EXTRACT: note_off channel=15 note=66 velocity=0 time=0
EXTRACT: note_off channel=9 note=28 velocity=0 time=0.03623183333333334
EXTRACT: note_on channel=3 note=63 velocity=127 time=0.0135869375
EXTRACT: note_on channel=4 note=63 velocity=105 time=0
EXTRACT: note_on channel=4 note=58 velocity=105 time=0
EXTRACT: note_off channel=8 note=63 velocity=0 time=0
EXTRACT: note_on channel=8 note=51 velocity=127 time=0
EXTRACT: note_on channel=9 note=36 velocity=127 time=0
EXTRACT: note_on channel=9 note=36 velocity=127 time=0
EXTRACT: note_on channel=9 note=36 velocity=127 time=0
EXTRACT: note_on channel=9 note=36 velocity=127 time=0
EXTRACT: note_on channel=9 note=42 velocity=127 time=0
EXTRACT: note_on channel=13 note=63 velocity=115 time=0
EXTRACT: note_on channel=13 note=51 velocity=115 time=0
EXTRACT: note_on channel=14 note=87 velocity=115 time=0
EXTRACT: note_on channel=15 note=66 velocity=90 time=0
EXTRACT: note_off channel=4 note=58 velocity=0 time=0.05434775
EXTRACT: note_off channel=4 note=63 velocity=0 time=0
EXTRACT: note_off channel=9 note=42 velocity=0 time=0
EXTRACT: note_off channel=9 note=36 velocity=64 time=0
EXTRACT: note_off channel=9 note=36 velocity=64 time=0
EXTRACT: note_off channel=9 note=36 velocity=64 time=0
EXTRACT: note_off channel=9 note=36 velocity=64 time=0
EXTRACT: note_off channel=13 note=51 velocity=0 time=0.022644895833333335
EXTRACT: note_off channel=13 note=63 velocity=0 time=0
EXTRACT: note_off channel=14 note=87 velocity=0 time=0
EXTRACT: note_off channel=15 note=66 velocity=0 time=0
EXTRACT: note_off channel=3 note=63 velocity=0 time=0.009057958333333335
EXTRACT: note_off channel=8 note=51 velocity=0 time=0.022644895833333335
EXTRACT: note_on channel=1 note=39 velocity=110 time=0.1086955
EXTRACT: note_on channel=1 note=51 velocity=110 time=0
EXTRACT: note_on channel=3 note=63 velocity=127 time=0
EXTRACT: note_on channel=4 note=63 velocity=105 time=0
EXTRACT: note_on channel=4 note=58 velocity=105 time=0
EXTRACT: note_on channel=8 note=63 velocity=127 time=0
EXTRACT: note_on channel=9 note=46 velocity=127 time=0
EXTRACT: note_on channel=13 note=63 velocity=115 time=0
EXTRACT: note_on channel=13 note=51 velocity=115 time=0
EXTRACT: note_on channel=14 note=87 velocity=115 time=0
EXTRACT: note_on channel=15 note=66 velocity=90 time=0
EXTRACT: note_on channel=0 note=51 velocity=120 time=0
EXTRACT: note_off channel=4 note=58 velocity=0 time=0.05434775
EXTRACT: note_off channel=4 note=63 velocity=0 time=0
EXTRACT: note_off channel=9 note=46 velocity=0 time=0
EXTRACT: note_off channel=15 note=66 velocity=0 time=0.027173875
EXTRACT: note_off channel=13 note=51 velocity=0 time=0.004528979166666667
EXTRACT: note_off channel=13 note=63 velocity=0 time=0
EXTRACT: note_off channel=14 note=87 velocity=0 time=0
EXTRACT: note_off channel=3 note=63 velocity=0 time=0.01811591666666667
EXTRACT: note_off channel=8 note=63 velocity=0 time=0.004528979166666667
EXTRACT: note_on channel=9 note=36 velocity=127 time=0
EXTRACT: note_on channel=9 note=36 velocity=127 time=0
EXTRACT: note_on channel=9 note=36 velocity=127 time=0
EXTRACT: note_on channel=9 note=36 velocity=127 time=0
EXTRACT: note_off channel=1 note=51 velocity=0 time=0.05434775
EXTRACT: note_off channel=1 note=39 velocity=0 time=0
EXTRACT: note_off channel=9 note=36 velocity=64 time=0
EXTRACT: note_off channel=9 note=36 velocity=64 time=0
EXTRACT: note_off channel=9 note=36 velocity=64 time=0
EXTRACT: note_off channel=9 note=36 velocity=64 time=0
EXTRACT: note_off channel=0 note=51 velocity=0 time=0
EXTRACT: note_on channel=3 note=66 velocity=127 time=0.05434775
EXTRACT: note_on channel=4 note=63 velocity=105 time=0
EXTRACT: note_on channel=4 note=58 velocity=105 time=0
EXTRACT: note_on channel=8 note=51 velocity=127 time=0
EXTRACT: note_on channel=9 note=36 velocity=127 time=0
EXTRACT: note_on channel=9 note=36 velocity=127 time=0
EXTRACT: note_on channel=9 note=36 velocity=127 time=0
EXTRACT: note_on channel=9 note=36 velocity=127 time=0
EXTRACT: note_on channel=9 note=28 velocity=127 time=0
EXTRACT: note_on channel=9 note=42 velocity=127 time=0
EXTRACT: note_on channel=9 note=76 velocity=80 time=0
EXTRACT: note_on channel=13 note=66 velocity=115 time=0
EXTRACT: note_on channel=13 note=54 velocity=115 time=0
EXTRACT: note_on channel=14 note=90 velocity=115 time=0
EXTRACT: note_on channel=15 note=70 velocity=90 time=0
EXTRACT: note_off channel=9 note=76 velocity=0 time=0.027173875
EXTRACT: note_off channel=4 note=58 velocity=0 time=0.027173875
EXTRACT: note_off channel=4 note=63 velocity=0 time=0
EXTRACT: note_off channel=9 note=42 velocity=0 time=0
EXTRACT: note_off channel=9 note=36 velocity=64 time=0
EXTRACT: note_off channel=9 note=36 velocity=64 time=0
EXTRACT: note_off channel=9 note=36 velocity=64 time=0
EXTRACT: note_off channel=9 note=36 velocity=64 time=0
EXTRACT: note_off channel=13 note=54 velocity=0 time=0.01811591666666667
EXTRACT: note_off channel=13 note=66 velocity=0 time=0
EXTRACT: note_off channel=14 note=90 velocity=0 time=0
EXTRACT: note_off channel=15 note=70 velocity=0 time=0.0135869375
EXTRACT: note_off channel=8 note=51 velocity=0 time=0.022644895833333335
EXTRACT: note_off channel=3 note=66 velocity=0 time=0.04528979166666667
EXTRACT: note_on channel=1 note=39 velocity=110 time=0.06340570833333334
EXTRACT: note_on channel=1 note=51 velocity=110 time=0
EXTRACT: note_on channel=3 note=68 velocity=127 time=0
EXTRACT: note_on channel=8 note=63 velocity=127 time=0
EXTRACT: note_on channel=9 note=36 velocity=127 time=0
EXTRACT: note_on channel=9 note=36 velocity=127 time=0
EXTRACT: note_on channel=9 note=36 velocity=127 time=0
EXTRACT: note_on channel=9 note=36 velocity=127 time=0
EXTRACT: note_on channel=9 note=46 velocity=127 time=0
EXTRACT: note_on channel=13 note=68 velocity=115 time=0
EXTRACT: note_on channel=13 note=56 velocity=115 time=0
EXTRACT: note_on channel=14 note=92 velocity=115 time=0
EXTRACT: note_on channel=15 note=71 velocity=90 time=0
EXTRACT: note_on channel=0 note=51 velocity=120 time=0
EXTRACT: note_off channel=9 note=46 velocity=0 time=0.05434775
EXTRACT: note_off channel=9 note=36 velocity=64 time=0
EXTRACT: note_off channel=9 note=36 velocity=64 time=0
EXTRACT: note_off channel=9 note=36 velocity=64 time=0
EXTRACT: note_off channel=9 note=36 velocity=64 time=0
EXTRACT: note_off channel=13 note=56 velocity=0 time=0.01811591666666667
EXTRACT: note_off channel=13 note=68 velocity=0 time=0
EXTRACT: note_off channel=14 note=92 velocity=0 time=0
EXTRACT: note_off channel=15 note=71 velocity=0 time=0.03170285416666667
EXTRACT: note_off channel=8 note=63 velocity=0 time=0.004528979166666667
EXTRACT: note_off channel=3 note=68 velocity=0 time=0.03170285416666667
EXTRACT: note_off channel=1 note=51 velocity=0 time=0.022644895833333335
EXTRACT: note_off channel=1 note=39 velocity=0 time=0
EXTRACT: note_off channel=0 note=51 velocity=0 time=0
EXTRACT: note_off channel=9 note=28 velocity=0 time=0.0407608125
EXTRACT: note_on channel=3 note=70 velocity=127 time=0.0135869375
EXTRACT: note_on channel=4 note=59 velocity=105 time=0
EXTRACT: note_on channel=4 note=54 velocity=105 time=0
EXTRACT: note_on channel=8 note=47 velocity=127 time=0
EXTRACT: note_on channel=9 note=36 velocity=127 time=0
EXTRACT: note_on channel=9 note=36 velocity=127 time=0
EXTRACT: note_on channel=9 note=36 velocity=127 time=0
EXTRACT: note_on channel=9 note=36 velocity=127 time=0
EXTRACT: note_on channel=9 note=42 velocity=127 time=0
EXTRACT: note_on channel=13 note=70 velocity=115 time=0
EXTRACT: note_on channel=13 note=58 velocity=115 time=0
EXTRACT: note_on channel=14 note=94 velocity=115 time=0
EXTRACT: note_on channel=15 note=73 velocity=90 time=0
EXTRACT: note_off channel=4 note=54 velocity=0 time=0.05434775
EXTRACT: note_off channel=4 note=59 velocity=0 time=0
EXTRACT: note_off channel=9 note=42 velocity=0 time=0
EXTRACT: note_off channel=9 note=36 velocity=64 time=0
EXTRACT: note_off channel=9 note=36 velocity=64 time=0
EXTRACT: note_off channel=9 note=36 velocity=64 time=0
EXTRACT: note_off channel=9 note=36 velocity=64 time=0
EXTRACT: note_off channel=15 note=73 velocity=0 time=0.03170285416666667
EXTRACT: note_off channel=8 note=47 velocity=0 time=0.022644895833333335
EXTRACT: note_on channel=1 note=35 velocity=110 time=0.1086955
EXTRACT: note_on channel=1 note=47 velocity=110 time=0
EXTRACT: note_on channel=4 note=59 velocity=105 time=0
EXTRACT: note_on channel=4 note=54 velocity=105 time=0
EXTRACT: note_on channel=8 note=59 velocity=127 time=0
EXTRACT: note_on channel=9 note=46 velocity=127 time=0
EXTRACT: note_on channel=0 note=47 velocity=120 time=0
EXTRACT: note_off channel=3 note=70 velocity=0 time=0.0407608125
EXTRACT: note_off channel=4 note=54 velocity=0 time=0.0135869375
EXTRACT: note_off channel=4 note=59 velocity=0 time=0
EXTRACT: note_off channel=9 note=46 velocity=0 time=0
EXTRACT: note_off channel=13 note=58 velocity=0 time=0.009057958333333335
EXTRACT: note_off channel=13 note=70 velocity=0 time=0
EXTRACT: note_off channel=14 note=94 velocity=0 time=0
EXTRACT: note_on channel=3 note=66 velocity=127 time=0.04528979166666667
EXTRACT: note_off channel=8 note=59 velocity=0 time=0
EXTRACT: note_on channel=13 note=66 velocity=115 time=0
EXTRACT: note_on channel=13 note=54 velocity=115 time=0
EXTRACT: note_on channel=14 note=90 velocity=115 time=0
EXTRACT: note_on channel=15 note=70 velocity=90 time=0
EXTRACT: note_off channel=1 note=47 velocity=0 time=0.05434775
EXTRACT: note_off channel=1 note=35 velocity=0 time=0
EXTRACT: note_off channel=0 note=47 velocity=0 time=0
EXTRACT: note_off channel=15 note=70 velocity=0 time=0.022644895833333335
EXTRACT: note_off channel=13 note=54 velocity=0 time=0.022644895833333335
EXTRACT: note_off channel=13 note=66 velocity=0 time=0
EXTRACT: note_off channel=14 note=90 velocity=0 time=0
EXTRACT: note_on channel=4 note=59 velocity=105 time=0.009057958333333335
EXTRACT: note_on channel=4 note=54 velocity=105 time=0
EXTRACT: note_on channel=8 note=47 velocity=127 time=0
EXTRACT: note_on channel=9 note=36 velocity=127 time=0
EXTRACT: note_on channel=9 note=36 velocity=127 time=0
EXTRACT: note_on channel=9 note=36 velocity=127 time=0
EXTRACT: note_on channel=9 note=36 velocity=127 time=0
EXTRACT: note_on channel=9 note=28 velocity=127 time=0
EXTRACT: note_on channel=9 note=42 velocity=127 time=0
EXTRACT: note_on channel=9 note=76 velocity=80 time=0
EXTRACT: note_off channel=9 note=76 velocity=0 time=0.027173875
EXTRACT: note_off channel=4 note=54 velocity=0 time=0.027173875
EXTRACT: note_off channel=4 note=59 velocity=0 time=0
EXTRACT: note_off channel=9 note=42 velocity=0 time=0
EXTRACT: note_off channel=9 note=36 velocity=64 time=0
EXTRACT: note_off channel=9 note=36 velocity=64 time=0
EXTRACT: note_off channel=9 note=36 velocity=64 time=0
EXTRACT: note_off channel=9 note=36 velocity=64 time=0
EXTRACT: note_off channel=3 note=66 velocity=0 time=0.022644895833333335
EXTRACT: note_off channel=8 note=47 velocity=0 time=0.03170285416666667
EXTRACT: note_on channel=1 note=35 velocity=110 time=0.1086955
EXTRACT: note_on channel=1 note=47 velocity=110 time=0
EXTRACT: note_on channel=3 note=59 velocity=127 time=0
EXTRACT: note_on channel=8 note=59 velocity=127 time=0
EXTRACT: note_on channel=9 note=46 velocity=127 time=0
EXTRACT: note_on channel=9 note=76 velocity=80 time=0
EXTRACT: note_on channel=13 note=59 velocity=115 time=0
EXTRACT: note_on channel=13 note=47 velocity=115 time=0
EXTRACT: note_on channel=14 note=83 velocity=115 time=0
EXTRACT: note_on channel=15 note=63 velocity=90 time=0
EXTRACT: note_on channel=0 note=47 velocity=120 time=0
EXTRACT: note_off channel=9 note=76 velocity=0 time=0.027173875
EXTRACT: note_off channel=9 note=46 velocity=0 time=0.027173875
EXTRACT: note_off channel=15 note=63 velocity=0 time=0.022644895833333335
EXTRACT: note_off channel=13 note=47 velocity=0 time=0.009057958333333335
EXTRACT: note_off channel=13 note=59 velocity=0 time=0
EXTRACT: note_off channel=14 note=83 velocity=0 time=0
EXTRACT: note_off channel=8 note=59 velocity=0 time=0.004528979166666667
EXTRACT: note_off channel=3 note=59 velocity=0 time=0.01811591666666667
EXTRACT: note_on channel=4 note=59 velocity=105 time=0
EXTRACT: note_on channel=4 note=54 velocity=105 time=0
EXTRACT: note_on channel=8 note=59 velocity=127 time=0
EXTRACT: note_off channel=1 note=47 velocity=0 time=0.05434775
EXTRACT: note_off channel=1 note=35 velocity=0 time=0
EXTRACT: note_off channel=4 note=54 velocity=0 time=0
EXTRACT: note_off channel=4 note=59 velocity=0 time=0
EXTRACT: note_off channel=0 note=47 velocity=0 time=0
EXTRACT: note_off channel=9 note=28 velocity=0 time=0.0407608125
EXTRACT: note_on channel=3 note=59 velocity=127 time=0.0135869375
EXTRACT: note_on channel=4 note=61 velocity=105 time=0
EXTRACT: note_on channel=4 note=56 velocity=105 time=0
EXTRACT: note_off channel=8 note=59 velocity=0 time=0
EXTRACT: note_on channel=8 note=49 velocity=127 time=0
EXTRACT: note_on channel=9 note=36 velocity=127 time=0
EXTRACT: note_on channel=9 note=36 velocity=127 time=0
EXTRACT: note_on channel=9 note=36 velocity=127 time=0
EXTRACT: note_on channel=9 note=36 velocity=127 time=0
EXTRACT: note_on channel=9 note=42 velocity=127 time=0
EXTRACT: note_on channel=13 note=59 velocity=115 time=0
EXTRACT: note_on channel=13 note=47 velocity=115 time=0
EXTRACT: note_on channel=14 note=83 velocity=115 time=0
EXTRACT: note_on channel=15 note=63 velocity=90 time=0
EXTRACT: note_off channel=4 note=56 velocity=0 time=0.05434775
EXTRACT: note_off channel=4 note=61 velocity=0 time=0
EXTRACT: note_off channel=9 note=42 velocity=0 time=0
EXTRACT: note_off channel=9 note=36 velocity=64 time=0
EXTRACT: note_off channel=9 note=36 velocity=64 time=0
EXTRACT: note_off channel=9 note=36 velocity=64 time=0
EXTRACT: note_off channel=9 note=36 velocity=64 time=0
EXTRACT: note_off channel=15 note=63 velocity=0 time=0.004528979166666667
EXTRACT: note_off channel=13 note=47 velocity=0 time=0.022644895833333335
EXTRACT: note_off channel=13 note=59 velocity=0 time=0
EXTRACT: note_off channel=14 note=83 velocity=0 time=0
EXTRACT: note_off channel=3 note=59 velocity=0 time=0.01811591666666667
EXTRACT: note_off channel=8 note=49 velocity=0 time=0.009057958333333335
EXTRACT: note_on channel=1 note=37 velocity=110 time=0.1086955
EXTRACT: note_on channel=1 note=49 velocity=110 time=0
EXTRACT: note_on channel=3 note=59 velocity=127 time=0
EXTRACT: note_on channel=4 note=61 velocity=105 time=0
EXTRACT: note_on channel=4 note=56 velocity=105 time=0
EXTRACT: note_on channel=8 note=61 velocity=127 time=0
EXTRACT: note_on channel=9 note=46 velocity=127 time=0
EXTRACT: note_on channel=13 note=59 velocity=115 time=0
EXTRACT: note_on channel=13 note=47 velocity=115 time=0
EXTRACT: note_on channel=14 note=83 velocity=115 time=0
EXTRACT: note_on channel=15 note=63 velocity=90 time=0
EXTRACT: note_on channel=0 note=49 velocity=120 time=0
EXTRACT: note_off channel=4 note=56 velocity=0 time=0.05434775
EXTRACT: note_off channel=4 note=61 velocity=0 time=0
EXTRACT: note_off channel=9 note=46 velocity=0 time=0
EXTRACT: note_off channel=15 note=63 velocity=0 time=0.004528979166666667
EXTRACT: note_off channel=13 note=47 velocity=0 time=0.0135869375
EXTRACT: note_off channel=13 note=59 velocity=0 time=0
EXTRACT: note_off channel=14 note=83 velocity=0 time=0
EXTRACT: note_off channel=3 note=59 velocity=0 time=0.01811591666666667
EXTRACT: note_off channel=8 note=61 velocity=0 time=0.01811591666666667
EXTRACT: note_on channel=9 note=36 velocity=127 time=0
EXTRACT: note_on channel=9 note=36 velocity=127 time=0
EXTRACT: note_on channel=9 note=36 velocity=127 time=0
EXTRACT: note_on channel=9 note=36 velocity=127 time=0
EXTRACT: note_off channel=1 note=49 velocity=0 time=0.05434775
EXTRACT: note_off channel=1 note=37 velocity=0 time=0
EXTRACT: note_off channel=9 note=36 velocity=64 time=0
EXTRACT: note_off channel=9 note=36 velocity=64 time=0
EXTRACT: note_off channel=9 note=36 velocity=64 time=0
EXTRACT: note_off channel=9 note=36 velocity=64 time=0
EXTRACT: note_off channel=0 note=49 velocity=0 time=0
EXTRACT: note_on channel=3 note=59 velocity=127 time=0.05434775
EXTRACT: note_on channel=4 note=61 velocity=105 time=0
EXTRACT: note_on channel=4 note=56 velocity=105 time=0
EXTRACT: note_on channel=8 note=49 velocity=127 time=0
EXTRACT: note_on channel=9 note=36 velocity=127 time=0
EXTRACT: note_on channel=9 note=36 velocity=127 time=0
EXTRACT: note_on channel=9 note=36 velocity=127 time=0
EXTRACT: note_on channel=9 note=36 velocity=127 time=0
EXTRACT: note_on channel=9 note=28 velocity=127 time=0
EXTRACT: note_on channel=9 note=42 velocity=127 time=0
EXTRACT: note_on channel=9 note=76 velocity=80 time=0
EXTRACT: note_on channel=13 note=59 velocity=115 time=0
EXTRACT: note_on channel=13 note=47 velocity=115 time=0
EXTRACT: note_on channel=14 note=83 velocity=115 time=0
EXTRACT: note_on channel=15 note=63 velocity=90 time=0
EXTRACT: note_off channel=9 note=76 velocity=0 time=0.027173875
EXTRACT: note_off channel=4 note=56 velocity=0 time=0.027173875
EXTRACT: note_off channel=4 note=61 velocity=0 time=0
EXTRACT: note_off channel=9 note=42 velocity=0 time=0
EXTRACT: note_off channel=9 note=36 velocity=64 time=0
EXTRACT: note_off channel=9 note=36 velocity=64 time=0
EXTRACT: note_off channel=9 note=36 velocity=64 time=0
EXTRACT: note_off channel=9 note=36 velocity=64 time=0
EXTRACT: note_off channel=15 note=63 velocity=0 time=0.004528979166666667
EXTRACT: note_off channel=13 note=47 velocity=0 time=0.0135869375
EXTRACT: note_off channel=13 note=59 velocity=0 time=0
EXTRACT: note_off channel=14 note=83 velocity=0 time=0
EXTRACT: note_off channel=3 note=59 velocity=0 time=0.022644895833333335
EXTRACT: note_off channel=8 note=49 velocity=0 time=0.0135869375
EXTRACT: note_on channel=1 note=37 velocity=110 time=0.1086955
EXTRACT: note_on channel=1 note=49 velocity=110 time=0
EXTRACT: note_on channel=3 note=59 velocity=127 time=0
EXTRACT: note_on channel=8 note=61 velocity=127 time=0
EXTRACT: note_on channel=9 note=36 velocity=127 time=0
EXTRACT: note_on channel=9 note=36 velocity=127 time=0
EXTRACT: note_on channel=9 note=36 velocity=127 time=0
EXTRACT: note_on channel=9 note=36 velocity=127 time=0
EXTRACT: note_on channel=9 note=46 velocity=127 time=0
EXTRACT: note_on channel=13 note=59 velocity=115 time=0
EXTRACT: note_on channel=13 note=47 velocity=115 time=0
EXTRACT: note_on channel=14 note=83 velocity=115 time=0
EXTRACT: note_on channel=15 note=63 velocity=90 time=0
EXTRACT: note_on channel=0 note=49 velocity=120 time=0
EXTRACT: note_off channel=9 note=46 velocity=0 time=0.05434775
EXTRACT: note_off channel=9 note=36 velocity=64 time=0
EXTRACT: note_off channel=9 note=36 velocity=64 time=0
EXTRACT: note_off channel=9 note=36 velocity=64 time=0
EXTRACT: note_off channel=9 note=36 velocity=64 time=0
EXTRACT: note_off channel=15 note=63 velocity=0 time=0.009057958333333335
EXTRACT: note_off channel=13 note=47 velocity=0 time=0.0135869375
EXTRACT: note_off channel=13 note=59 velocity=0 time=0
EXTRACT: note_off channel=14 note=83 velocity=0 time=0
EXTRACT: note_off channel=3 note=59 velocity=0 time=0.027173875
EXTRACT: note_off channel=8 note=61 velocity=0 time=0.004528979166666667
EXTRACT: note_off channel=1 note=49 velocity=0 time=0.05434775
EXTRACT: note_off channel=1 note=37 velocity=0 time=0
EXTRACT: note_off channel=0 note=49 velocity=0 time=0
EXTRACT: note_off channel=9 note=28 velocity=0 time=0.0407608125
EXTRACT: note_on channel=3 note=58 velocity=127 time=0.0135869375
EXTRACT: note_on channel=4 note=66 velocity=105 time=0
EXTRACT: note_on channel=4 note=61 velocity=105 time=0
EXTRACT: note_on channel=8 note=54 velocity=127 time=0
EXTRACT: note_on channel=9 note=36 velocity=127 time=0
EXTRACT: note_on channel=9 note=36 velocity=127 time=0
EXTRACT: note_on channel=9 note=36 velocity=127 time=0
EXTRACT: note_on channel=9 note=36 velocity=127 time=0
EXTRACT: note_on channel=9 note=42 velocity=127 time=0
EXTRACT: note_on channel=13 note=58 velocity=115 time=0
EXTRACT: note_on channel=13 note=46 velocity=115 time=0
EXTRACT: note_on channel=14 note=82 velocity=115 time=0
EXTRACT: note_on channel=15 note=61 velocity=90 time=0
EXTRACT: note_off channel=4 note=61 velocity=0 time=0.05434775
EXTRACT: note_off channel=4 note=66 velocity=0 time=0
EXTRACT: note_off channel=9 note=42 velocity=0 time=0
EXTRACT: note_off channel=9 note=36 velocity=64 time=0
EXTRACT: note_off channel=9 note=36 velocity=64 time=0
EXTRACT: note_off channel=9 note=36 velocity=64 time=0
EXTRACT: note_off channel=9 note=36 velocity=64 time=0
EXTRACT: note_off channel=8 note=54 velocity=0 time=0.05434775
EXTRACT: note_on channel=1 note=42 velocity=110 time=0.1086955
EXTRACT: note_on channel=1 note=54 velocity=110 time=0
EXTRACT: note_on channel=4 note=66 velocity=105 time=0
EXTRACT: note_on channel=4 note=61 velocity=105 time=0
EXTRACT: note_on channel=8 note=66 velocity=127 time=0
EXTRACT: note_on channel=9 note=46 velocity=127 time=0
EXTRACT: note_off channel=15 note=61 velocity=0 time=0
EXTRACT: note_on channel=0 note=54 velocity=120 time=0
EXTRACT: note_off channel=4 note=61 velocity=0 time=0.05434775
EXTRACT: note_off channel=4 note=66 velocity=0 time=0
EXTRACT: note_off channel=9 note=46 velocity=0 time=0
EXTRACT: note_off channel=3 note=58 velocity=0 time=0.0135869375
EXTRACT: note_off channel=13 note=46 velocity=0 time=0.022644895833333335
EXTRACT: note_off channel=13 note=58 velocity=0 time=0
EXTRACT: note_off channel=14 note=82 velocity=0 time=0
EXTRACT: note_on channel=3 note=66 velocity=127 time=0.01811591666666667
EXTRACT: note_off channel=8 note=66 velocity=0 time=0
EXTRACT: note_on channel=13 note=66 velocity=115 time=0
EXTRACT: note_on channel=13 note=54 velocity=115 time=0
EXTRACT: note_on channel=14 note=90 velocity=115 time=0
EXTRACT: note_on channel=15 note=70 velocity=90 time=0
EXTRACT: note_off channel=1 note=54 velocity=0 time=0.05434775
EXTRACT: note_off channel=1 note=42 velocity=0 time=0
EXTRACT: note_off channel=0 note=54 velocity=0 time=0
EXTRACT: note_off channel=15 note=70 velocity=0 time=0.03170285416666667
EXTRACT: note_on channel=3 note=70 velocity=127 time=0.022644895833333335
EXTRACT: note_on channel=4 note=66 velocity=105 time=0
EXTRACT: note_on channel=4 note=61 velocity=105 time=0
EXTRACT: note_on channel=8 note=54 velocity=127 time=0
EXTRACT: note_on channel=9 note=36 velocity=127 time=0
EXTRACT: note_on channel=9 note=36 velocity=127 time=0
EXTRACT: note_on channel=9 note=36 velocity=127 time=0
EXTRACT: note_on channel=9 note=36 velocity=127 time=0
EXTRACT: note_on channel=9 note=28 velocity=127 time=0
EXTRACT: note_on channel=9 note=42 velocity=127 time=0
EXTRACT: note_on channel=9 note=76 velocity=80 time=0
EXTRACT: note_off channel=13 note=54 velocity=0 time=0.0135869375
EXTRACT: note_off channel=13 note=66 velocity=0 time=0
EXTRACT: note_off channel=14 note=90 velocity=0 time=0
EXTRACT: note_off channel=9 note=76 velocity=0 time=0.0135869375
EXTRACT: note_off channel=3 note=66 velocity=0 time=0.022644895833333335
EXTRACT: note_off channel=4 note=61 velocity=0 time=0.004528979166666667
EXTRACT: note_off channel=4 note=66 velocity=0 time=0
EXTRACT: note_off channel=9 note=42 velocity=0 time=0
EXTRACT: note_off channel=9 note=36 velocity=64 time=0
EXTRACT: note_off channel=9 note=36 velocity=64 time=0
EXTRACT: note_off channel=9 note=36 velocity=64 time=0
EXTRACT: note_off channel=9 note=36 velocity=64 time=0
EXTRACT: note_off channel=8 note=54 velocity=0 time=0.05434775
EXTRACT: note_on channel=1 note=42 velocity=110 time=0.1086955
EXTRACT: note_on channel=1 note=54 velocity=110 time=0
EXTRACT: note_on channel=8 note=66 velocity=127 time=0
EXTRACT: note_on channel=9 note=46 velocity=127 time=0
EXTRACT: note_on channel=9 note=76 velocity=80 time=0
EXTRACT: note_on channel=13 note=70 velocity=115 time=0
EXTRACT: note_on channel=13 note=58 velocity=115 time=0
EXTRACT: note_on channel=14 note=94 velocity=115 time=0
EXTRACT: note_on channel=15 note=73 velocity=90 time=0
EXTRACT: note_on channel=0 note=54 velocity=120 time=0
EXTRACT: note_off channel=9 note=76 velocity=0 time=0.027173875
EXTRACT: note_off channel=15 note=73 velocity=0 time=0.009057958333333335
EXTRACT: note_off channel=13 note=58 velocity=0 time=0.0135869375
EXTRACT: note_off channel=13 note=70 velocity=0 time=0
EXTRACT: note_off channel=14 note=94 velocity=0 time=0
EXTRACT: note_off channel=9 note=46 velocity=0 time=0.004528979166666667
EXTRACT: note_off channel=3 note=70 velocity=0 time=0.009057958333333335
EXTRACT: note_off channel=8 note=66 velocity=0 time=0.027173875
EXTRACT: note_on channel=4 note=66 velocity=105 time=0.01811591666666667
EXTRACT: note_on channel=4 note=61 velocity=105 time=0
EXTRACT: note_on channel=8 note=66 velocity=127 time=0
EXTRACT: note_on channel=13 note=70 velocity=115 time=0
EXTRACT: note_on channel=13 note=58 velocity=115 time=0
EXTRACT: note_on channel=14 note=94 velocity=115 time=0
EXTRACT: note_on channel=15 note=73 velocity=90 time=0
EXTRACT: note_off channel=15 note=73 velocity=0 time=0.04528979166666667
EXTRACT: note_off channel=13 note=58 velocity=0 time=0.004528979166666667
EXTRACT: note_off channel=13 note=70 velocity=0 time=0
EXTRACT: note_off channel=14 note=94 velocity=0 time=0
EXTRACT: note_off channel=1 note=54 velocity=0 time=0.004528979166666667
EXTRACT: note_off channel=1 note=42 velocity=0 time=0
EXTRACT: note_off channel=4 note=61 velocity=0 time=0
EXTRACT: note_off channel=4 note=66 velocity=0 time=0
EXTRACT: note_off channel=0 note=54 velocity=0 time=0
EXTRACT: note_off channel=9 note=28 velocity=0 time=0.0407608125
EXTRACT: note_on channel=3 note=70 velocity=127 time=0.0135869375
EXTRACT: note_on channel=4 note=66 velocity=105 time=0
EXTRACT: note_on channel=4 note=61 velocity=105 time=0
EXTRACT: note_off channel=8 note=66 velocity=0 time=0
EXTRACT: note_on channel=8 note=54 velocity=127 time=0
EXTRACT: note_on channel=9 note=36 velocity=127 time=0
EXTRACT: note_on channel=9 note=36 velocity=127 time=0
EXTRACT: note_on channel=9 note=36 velocity=127 time=0
EXTRACT: note_on channel=9 note=36 velocity=127 time=0
EXTRACT: note_on channel=9 note=42 velocity=127 time=0
EXTRACT: note_on channel=13 note=70 velocity=115 time=0
EXTRACT: note_on channel=13 note=58 velocity=115 time=0
EXTRACT: note_on channel=14 note=94 velocity=115 time=0
EXTRACT: note_on channel=15 note=73 velocity=90 time=0
EXTRACT: note_off channel=4 note=61 velocity=0 time=0.05434775
EXTRACT: note_off channel=4 note=66 velocity=0 time=0
EXTRACT: note_off channel=9 note=42 velocity=0 time=0
EXTRACT: note_off channel=9 note=36 velocity=64 time=0
EXTRACT: note_off channel=9 note=36 velocity=64 time=0
EXTRACT: note_off channel=9 note=36 velocity=64 time=0
EXTRACT: note_off channel=9 note=36 velocity=64 time=0
EXTRACT: note_off channel=15 note=73 velocity=0 time=0.004528979166666667
EXTRACT: note_off channel=13 note=58 velocity=0 time=0.01811591666666667
EXTRACT: note_off channel=13 note=70 velocity=0 time=0
EXTRACT: note_off channel=14 note=94 velocity=0 time=0
EXTRACT: note_off channel=8 note=54 velocity=0 time=0.03170285416666667
EXTRACT: note_on channel=1 note=42 velocity=110 time=0.1086955
EXTRACT: note_on channel=1 note=54 velocity=110 time=0
EXTRACT: note_on channel=4 note=66 velocity=105 time=0
EXTRACT: note_on channel=4 note=61 velocity=105 time=0
EXTRACT: note_on channel=8 note=66 velocity=127 time=0
EXTRACT: note_on channel=9 note=46 velocity=127 time=0
EXTRACT: note_on channel=13 note=70 velocity=115 time=0
EXTRACT: note_on channel=13 note=58 velocity=115 time=0
EXTRACT: note_on channel=14 note=94 velocity=115 time=0
EXTRACT: note_on channel=15 note=73 velocity=90 time=0
EXTRACT: note_on channel=0 note=54 velocity=120 time=0
EXTRACT: note_off channel=4 note=61 velocity=0 time=0.05434775
EXTRACT: note_off channel=4 note=66 velocity=0 time=0
EXTRACT: note_off channel=9 note=46 velocity=0 time=0
EXTRACT: note_off channel=15 note=73 velocity=0 time=0.01811591666666667
EXTRACT: note_off channel=3 note=70 velocity=0 time=0.01811591666666667
EXTRACT: note_off channel=8 note=66 velocity=0 time=0.01811591666666667
EXTRACT: note_on channel=9 note=36 velocity=127 time=0
EXTRACT: note_on channel=9 note=36 velocity=127 time=0
EXTRACT: note_on channel=9 note=36 velocity=127 time=0
EXTRACT: note_on channel=9 note=36 velocity=127 time=0
EXTRACT: note_off channel=1 note=54 velocity=0 time=0.05434775
EXTRACT: note_off channel=1 note=42 velocity=0 time=0
EXTRACT: note_off channel=9 note=36 velocity=64 time=0
EXTRACT: note_off channel=9 note=36 velocity=64 time=0
EXTRACT: note_off channel=9 note=36 velocity=64 time=0
EXTRACT: note_off channel=9 note=36 velocity=64 time=0
EXTRACT: note_off channel=0 note=54 velocity=0 time=0
EXTRACT: note_on channel=3 note=68 velocity=127 time=0.05434775
EXTRACT: note_on channel=4 note=66 velocity=105 time=0
EXTRACT: note_on channel=4 note=61 velocity=105 time=0
EXTRACT: note_on channel=8 note=54 velocity=127 time=0
EXTRACT: note_on channel=9 note=36 velocity=127 time=0
EXTRACT: note_on channel=9 note=36 velocity=127 time=0
EXTRACT: note_on channel=9 note=36 velocity=127 time=0
EXTRACT: note_on channel=9 note=36 velocity=127 time=0
EXTRACT: note_on channel=9 note=28 velocity=127 time=0
EXTRACT: note_on channel=9 note=42 velocity=127 time=0
EXTRACT: note_on channel=9 note=76 velocity=80 time=0
EXTRACT: note_on channel=13 note=68 velocity=115 time=0
EXTRACT: note_on channel=13 note=56 velocity=115 time=0
EXTRACT: note_on channel=14 note=92 velocity=115 time=0
EXTRACT: note_on channel=15 note=71 velocity=90 time=0
EXTRACT: note_off channel=9 note=76 velocity=0 time=0.027173875
EXTRACT: note_off channel=13 note=58 velocity=0 time=0
EXTRACT: note_off channel=13 note=70 velocity=0 time=0
EXTRACT: note_off channel=14 note=94 velocity=0 time=0
EXTRACT: note_off channel=4 note=61 velocity=0 time=0.027173875
EXTRACT: note_off channel=4 note=66 velocity=0 time=0
EXTRACT: note_off channel=9 note=42 velocity=0 time=0
EXTRACT: note_off channel=9 note=36 velocity=64 time=0
EXTRACT: note_off channel=9 note=36 velocity=64 time=0
EXTRACT: note_off channel=9 note=36 velocity=64 time=0
EXTRACT: note_off channel=9 note=36 velocity=64 time=0
EXTRACT: note_off channel=15 note=71 velocity=0 time=0.022644895833333335
EXTRACT: note_off channel=13 note=68 velocity=0 time=0.0135869375
EXTRACT: note_off channel=13 note=56 velocity=0 time=0
EXTRACT: note_off channel=14 note=92 velocity=0 time=0
EXTRACT: note_off channel=8 note=54 velocity=0 time=0.01811591666666667
EXTRACT: note_on channel=1 note=42 velocity=110 time=0.1086955
EXTRACT: note_on channel=1 note=54 velocity=110 time=0
EXTRACT: note_on channel=8 note=66 velocity=127 time=0
EXTRACT: note_on channel=9 note=36 velocity=127 time=0
EXTRACT: note_on channel=9 note=36 velocity=127 time=0
EXTRACT: note_on channel=9 note=36 velocity=127 time=0
EXTRACT: note_on channel=9 note=36 velocity=127 time=0
EXTRACT: note_on channel=9 note=46 velocity=127 time=0
EXTRACT: note_on channel=13 note=68 velocity=115 time=0
EXTRACT: note_on channel=13 note=56 velocity=115 time=0
EXTRACT: note_on channel=14 note=92 velocity=115 time=0
EXTRACT: note_on channel=15 note=71 velocity=90 time=0
EXTRACT: note_on channel=0 note=54 velocity=120 time=0
EXTRACT: note_off channel=9 note=46 velocity=0 time=0.05434775
EXTRACT: note_off channel=9 note=36 velocity=64 time=0
EXTRACT: note_off channel=9 note=36 velocity=64 time=0
EXTRACT: note_off channel=9 note=36 velocity=64 time=0
EXTRACT: note_off channel=9 note=36 velocity=64 time=0
EXTRACT: note_off channel=15 note=71 velocity=0 time=0.027173875
EXTRACT: note_off channel=8 note=66 velocity=0 time=0.027173875
EXTRACT: note_off channel=13 note=56 velocity=0 time=0.0135869375
EXTRACT: note_off channel=13 note=68 velocity=0 time=0
EXTRACT: note_off channel=14 note=92 velocity=0 time=0
EXTRACT: note_off channel=1 note=54 velocity=0 time=0.0407608125
EXTRACT: note_off channel=1 note=42 velocity=0 time=0
EXTRACT: note_off channel=3 note=68 velocity=0 time=0
EXTRACT: note_off channel=0 note=54 velocity=0 time=0
EXTRACT: note_off channel=9 note=28 velocity=0 time=0.0407608125
EXTRACT: note_on channel=3 note=66 velocity=127 time=0.0135869375
EXTRACT: note_on channel=4 note=66 velocity=105 time=0
EXTRACT: note_on channel=4 note=61 velocity=105 time=0
EXTRACT: note_on channel=8 note=54 velocity=127 time=0
EXTRACT: note_on channel=9 note=36 velocity=127 time=0
EXTRACT: note_on channel=9 note=36 velocity=127 time=0
EXTRACT: note_on channel=9 note=36 velocity=127 time=0
EXTRACT: note_on channel=9 note=36 velocity=127 time=0
EXTRACT: note_on channel=9 note=42 velocity=127 time=0
EXTRACT: note_on channel=9 note=49 velocity=85 time=0
EXTRACT: note_on channel=13 note=66 velocity=115 time=0
EXTRACT: note_on channel=13 note=54 velocity=115 time=0
EXTRACT: note_on channel=14 note=90 velocity=115 time=0
EXTRACT: note_on channel=15 note=70 velocity=90 time=0
EXTRACT: note_off channel=9 note=49 velocity=0 time=0.027173875
EXTRACT: note_off channel=4 note=61 velocity=0 time=0.027173875
EXTRACT: note_off channel=4 note=66 velocity=0 time=0
EXTRACT: note_off channel=9 note=42 velocity=0 time=0
EXTRACT: note_off channel=9 note=36 velocity=64 time=0
EXTRACT: note_off channel=9 note=36 velocity=64 time=0
EXTRACT: note_off channel=9 note=36 velocity=64 time=0
EXTRACT: note_off channel=9 note=36 velocity=64 time=0
EXTRACT: note_off channel=8 note=54 velocity=0 time=0.05434775
EXTRACT: note_off channel=15 note=70 velocity=0 time=0.01811591666666667
EXTRACT: note_on channel=1 note=42 velocity=110 time=0.09057958333333334
EXTRACT: note_on channel=1 note=54 velocity=110 time=0
EXTRACT: note_on channel=4 note=66 velocity=105 time=0
EXTRACT: note_on channel=4 note=61 velocity=105 time=0
EXTRACT: note_on channel=8 note=66 velocity=127 time=0
EXTRACT: note_on channel=9 note=46 velocity=127 time=0
EXTRACT: note_on channel=0 note=54 velocity=120 time=0
EXTRACT: note_off channel=4 note=61 velocity=0 time=0.05434775
EXTRACT: note_off channel=4 note=66 velocity=0 time=0
EXTRACT: note_off channel=9 note=46 velocity=0 time=0
EXTRACT: note_off channel=13 note=54 velocity=0 time=0
EXTRACT: note_off channel=13 note=66 velocity=0 time=0
EXTRACT: note_off channel=14 note=90 velocity=0 time=0.01811591666666667
EXTRACT: note_off channel=8 note=66 velocity=0 time=0.03623183333333334
EXTRACT: note_on channel=13 note=61 velocity=115 time=0
EXTRACT: note_on channel=13 note=49 velocity=115 time=0
EXTRACT: note_on channel=14 note=85 velocity=115 time=0
EXTRACT: note_on channel=15 note=66 velocity=90 time=0
EXTRACT: note_off channel=3 note=66 velocity=0 time=0.03170285416666667
EXTRACT: note_off channel=1 note=54 velocity=0 time=0.022644895833333335
EXTRACT: note_off channel=1 note=42 velocity=0 time=0
EXTRACT: note_off channel=0 note=54 velocity=0 time=0
EXTRACT: note_off channel=15 note=66 velocity=0 time=0.0407608125
EXTRACT: note_on channel=4 note=66 velocity=105 time=0.0135869375
EXTRACT: note_on channel=4 note=61 velocity=105 time=0
EXTRACT: note_on channel=8 note=54 velocity=127 time=0
EXTRACT: note_on channel=9 note=36 velocity=127 time=0
EXTRACT: note_on channel=9 note=36 velocity=127 time=0
EXTRACT: note_on channel=9 note=36 velocity=127 time=0
EXTRACT: note_on channel=9 note=36 velocity=127 time=0
EXTRACT: note_on channel=9 note=28 velocity=127 time=0
EXTRACT: note_on channel=9 note=42 velocity=127 time=0
EXTRACT: note_on channel=9 note=76 velocity=80 time=0
EXTRACT: note_off channel=13 note=49 velocity=0 time=0
EXTRACT: note_off channel=13 note=61 velocity=0 time=0
EXTRACT: note_off channel=14 note=85 velocity=0 time=0
EXTRACT: note_off channel=9 note=76 velocity=0 time=0.027173875
EXTRACT: note_off channel=4 note=61 velocity=0 time=0.027173875
EXTRACT: note_off channel=4 note=66 velocity=0 time=0
EXTRACT: note_off channel=9 note=42 velocity=0 time=0
EXTRACT: note_off channel=9 note=36 velocity=64 time=0
EXTRACT: note_off channel=9 note=36 velocity=64 time=0
EXTRACT: note_off channel=9 note=36 velocity=64 time=0
EXTRACT: note_off channel=9 note=36 velocity=64 time=0
EXTRACT: note_off channel=8 note=54 velocity=0 time=0.05434775
EXTRACT: note_on channel=1 note=42 velocity=110 time=0.1086955
EXTRACT: note_on channel=1 note=54 velocity=110 time=0
EXTRACT: note_on channel=3 note=61 velocity=127 time=0
EXTRACT: note_on channel=8 note=66 velocity=127 time=0
EXTRACT: note_on channel=9 note=46 velocity=127 time=0
EXTRACT: note_on channel=9 note=76 velocity=80 time=0
EXTRACT: note_on channel=13 note=61 velocity=115 time=0
EXTRACT: note_on channel=13 note=49 velocity=115 time=0
EXTRACT: note_on channel=14 note=85 velocity=115 time=0
EXTRACT: note_on channel=15 note=66 velocity=90 time=0
EXTRACT: note_on channel=0 note=54 velocity=120 time=0
EXTRACT: note_off channel=9 note=76 velocity=0 time=0.027173875
EXTRACT: note_off channel=9 note=46 velocity=0 time=0.027173875
EXTRACT: note_off channel=15 note=66 velocity=0 time=0.01811591666666667
EXTRACT: note_off channel=8 note=66 velocity=0 time=0.01811591666666667
EXTRACT: note_on channel=4 note=66 velocity=105 time=0.01811591666666667
EXTRACT: note_on channel=4 note=61 velocity=105 time=0
EXTRACT: note_on channel=8 note=66 velocity=127 time=0
EXTRACT: note_off channel=3 note=61 velocity=0 time=0.0135869375
EXTRACT: note_off channel=1 note=54 velocity=0 time=0.0407608125
EXTRACT: note_off channel=1 note=42 velocity=0 time=0
EXTRACT: note_off channel=4 note=61 velocity=0 time=0
EXTRACT: note_off channel=4 note=66 velocity=0 time=0
EXTRACT: note_off channel=13 note=49 velocity=0 time=0
EXTRACT: note_off channel=13 note=61 velocity=0 time=0
EXTRACT: note_off channel=14 note=85 velocity=0 time=0
EXTRACT: note_off channel=0 note=54 velocity=0 time=0
EXTRACT: note_off channel=9 note=28 velocity=0 time=0.0407608125
EXTRACT: note_on channel=3 note=61 velocity=127 time=0.0135869375
EXTRACT: note_on channel=4 note=61 velocity=105 time=0
EXTRACT: note_on channel=4 note=56 velocity=105 time=0
EXTRACT: note_off channel=8 note=66 velocity=0 time=0
EXTRACT: note_on channel=8 note=49 velocity=127 time=0
EXTRACT: note_on channel=9 note=36 velocity=127 time=0
EXTRACT: note_on channel=9 note=36 velocity=127 time=0
EXTRACT: note_on channel=9 note=36 velocity=127 time=0
EXTRACT: note_on channel=9 note=36 velocity=127 time=0
EXTRACT: note_on channel=9 note=42 velocity=127 time=0
EXTRACT: note_on channel=13 note=61 velocity=115 time=0
EXTRACT: note_on channel=13 note=49 velocity=115 time=0
EXTRACT: note_on channel=14 note=85 velocity=115 time=0
EXTRACT: note_on channel=15 note=66 velocity=90 time=0
EXTRACT: note_off channel=4 note=56 velocity=0 time=0.05434775
EXTRACT: note_off channel=4 note=61 velocity=0 time=0
EXTRACT: note_off channel=9 note=42 velocity=0 time=0
EXTRACT: note_off channel=9 note=36 velocity=64 time=0
EXTRACT: note_off channel=9 note=36 velocity=64 time=0
EXTRACT: note_off channel=9 note=36 velocity=64 time=0
EXTRACT: note_off channel=9 note=36 velocity=64 time=0
EXTRACT: note_off channel=15 note=66 velocity=0 time=0.022644895833333335
EXTRACT: note_off channel=13 note=49 velocity=0 time=0.009057958333333335
EXTRACT: note_off channel=13 note=61 velocity=0 time=0
EXTRACT: note_off channel=14 note=85 velocity=0 time=0
EXTRACT: note_off channel=3 note=61 velocity=0 time=0.01811591666666667
EXTRACT: note_off channel=8 note=49 velocity=0 time=0.004528979166666667
EXTRACT: note_on channel=1 note=37 velocity=110 time=0.1086955
EXTRACT: note_on channel=1 note=49 velocity=110 time=0
EXTRACT: note_on channel=3 note=61 velocity=127 time=0
EXTRACT: note_on channel=4 note=61 velocity=105 time=0
EXTRACT: note_on channel=4 note=56 velocity=105 time=0
EXTRACT: note_on channel=8 note=61 velocity=127 time=0
EXTRACT: note_on channel=9 note=46 velocity=127 time=0
EXTRACT: note_on channel=13 note=61 velocity=115 time=0
EXTRACT: note_on channel=13 note=49 velocity=115 time=0
EXTRACT: note_on channel=14 note=85 velocity=115 time=0
EXTRACT: note_on channel=15 note=66 velocity=90 time=0
EXTRACT: note_on channel=0 note=49 velocity=120 time=0
EXTRACT: note_off channel=4 note=56 velocity=0 time=0.05434775
EXTRACT: note_off channel=4 note=61 velocity=0 time=0
EXTRACT: note_off channel=9 note=46 velocity=0 time=0
EXTRACT: note_off channel=13 note=49 velocity=0 time=0.022644895833333335
EXTRACT: note_off channel=13 note=61 velocity=0 time=0
EXTRACT: note_off channel=14 note=85 velocity=0 time=0
EXTRACT: note_off channel=15 note=66 velocity=0 time=0
EXTRACT: note_off channel=8 note=61 velocity=0 time=0.03170285416666667
EXTRACT: note_on channel=9 note=36 velocity=127 time=0
EXTRACT: note_on channel=9 note=36 velocity=127 time=0
EXTRACT: note_on channel=9 note=36 velocity=127 time=0
EXTRACT: note_on channel=9 note=36 velocity=127 time=0
EXTRACT: note_off channel=1 note=49 velocity=0 time=0.05434775
EXTRACT: note_off channel=1 note=37 velocity=0 time=0
EXTRACT: note_off channel=9 note=36 velocity=64 time=0
EXTRACT: note_off channel=9 note=36 velocity=64 time=0
EXTRACT: note_off channel=9 note=36 velocity=64 time=0
EXTRACT: note_off channel=9 note=36 velocity=64 time=0
EXTRACT: note_off channel=0 note=49 velocity=0 time=0
EXTRACT: note_off channel=3 note=61 velocity=0 time=0.009057958333333335
EXTRACT: note_on channel=3 note=68 velocity=127 time=0.04528979166666667
EXTRACT: note_on channel=4 note=61 velocity=105 time=0
EXTRACT: note_on channel=4 note=56 velocity=105 time=0
EXTRACT: note_on channel=8 note=49 velocity=127 time=0
EXTRACT: note_on channel=9 note=36 velocity=127 time=0
EXTRACT: note_on channel=9 note=36 velocity=127 time=0
EXTRACT: note_on channel=9 note=36 velocity=127 time=0
EXTRACT: note_on channel=9 note=36 velocity=127 time=0
EXTRACT: note_on channel=9 note=28 velocity=127 time=0
EXTRACT: note_on channel=9 note=42 velocity=127 time=0
EXTRACT: note_on channel=9 note=76 velocity=80 time=0
EXTRACT: note_on channel=13 note=68 velocity=115 time=0
EXTRACT: note_on channel=13 note=56 velocity=115 time=0
EXTRACT: note_on channel=14 note=92 velocity=115 time=0
EXTRACT: note_on channel=15 note=71 velocity=90 time=0
EXTRACT: note_off channel=9 note=76 velocity=0 time=0.027173875
EXTRACT: note_off channel=4 note=56 velocity=0 time=0.027173875
EXTRACT: note_off channel=4 note=61 velocity=0 time=0
EXTRACT: note_off channel=9 note=42 velocity=0 time=0
EXTRACT: note_off channel=9 note=36 velocity=64 time=0
EXTRACT: note_off channel=9 note=36 velocity=64 time=0
EXTRACT: note_off channel=9 note=36 velocity=64 time=0
EXTRACT: note_off channel=9 note=36 velocity=64 time=0
EXTRACT: note_off channel=13 note=56 velocity=0 time=0.0135869375
EXTRACT: note_off channel=13 note=68 velocity=0 time=0
EXTRACT: note_off channel=14 note=92 velocity=0 time=0
EXTRACT: note_off channel=15 note=71 velocity=0 time=0.027173875
EXTRACT: note_off channel=8 note=49 velocity=0 time=0.0135869375
EXTRACT: note_off channel=3 note=68 velocity=0 time=0.04528979166666667
EXTRACT: note_on channel=1 note=37 velocity=110 time=0.06340570833333334
EXTRACT: note_on channel=1 note=49 velocity=110 time=0
EXTRACT: note_on channel=3 note=68 velocity=127 time=0
EXTRACT: note_on channel=8 note=61 velocity=127 time=0
EXTRACT: note_on channel=9 note=36 velocity=127 time=0
EXTRACT: note_on channel=9 note=36 velocity=127 time=0
EXTRACT: note_on channel=9 note=36 velocity=127 time=0
EXTRACT: note_on channel=9 note=36 velocity=127 time=0
EXTRACT: note_on channel=9 note=46 velocity=127 time=0
EXTRACT: note_on channel=13 note=68 velocity=115 time=0
EXTRACT: note_on channel=13 note=56 velocity=115 time=0
EXTRACT: note_on channel=14 note=92 velocity=115 time=0
EXTRACT: note_on channel=15 note=71 velocity=90 time=0
EXTRACT: note_on channel=0 note=49 velocity=120 time=0
EXTRACT: note_off channel=9 note=46 velocity=0 time=0.05434775
EXTRACT: note_off channel=9 note=36 velocity=64 time=0
EXTRACT: note_off channel=9 note=36 velocity=64 time=0
EXTRACT: note_off channel=9 note=36 velocity=64 time=0
EXTRACT: note_off channel=9 note=36 velocity=64 time=0
EXTRACT: note_off channel=13 note=56 velocity=0 time=0.027173875
EXTRACT: note_off channel=13 note=68 velocity=0 time=0
EXTRACT: note_off channel=15 note=71 velocity=0 time=0.0135869375
EXTRACT: note_off channel=3 note=68 velocity=0 time=0.009057958333333335
EXTRACT: note_off channel=14 note=92 velocity=0 time=0
EXTRACT: note_off channel=8 note=61 velocity=0 time=0.004528979166666667
EXTRACT: note_off channel=1 note=49 velocity=0 time=0.05434775
EXTRACT: note_off channel=1 note=37 velocity=0 time=0
EXTRACT: note_off channel=0 note=49 velocity=0 time=0
EXTRACT: note_off channel=9 note=28 velocity=0 time=0.0407608125
EXTRACT: note_on channel=3 note=66 velocity=127 time=0.0135869375
EXTRACT: note_on channel=4 note=63 velocity=105 time=0
EXTRACT: note_on channel=4 note=58 velocity=105 time=0
EXTRACT: note_on channel=8 note=51 velocity=127 time=0
EXTRACT: note_on channel=9 note=36 velocity=127 time=0
EXTRACT: note_on channel=9 note=36 velocity=127 time=0
EXTRACT: note_on channel=9 note=36 velocity=127 time=0
EXTRACT: note_on channel=9 note=36 velocity=127 time=0
EXTRACT: note_on channel=9 note=42 velocity=127 time=0
EXTRACT: note_on channel=13 note=66 velocity=115 time=0
EXTRACT: note_on channel=13 note=54 velocity=115 time=0
EXTRACT: note_on channel=14 note=90 velocity=115 time=0
EXTRACT: note_on channel=15 note=70 velocity=90 time=0
EXTRACT: note_off channel=4 note=58 velocity=0 time=0.05434775
EXTRACT: note_off channel=4 note=63 velocity=0 time=0
EXTRACT: note_off channel=9 note=42 velocity=0 time=0
EXTRACT: note_off channel=9 note=36 velocity=64 time=0
EXTRACT: note_off channel=9 note=36 velocity=64 time=0
EXTRACT: note_off channel=9 note=36 velocity=64 time=0
EXTRACT: note_off channel=9 note=36 velocity=64 time=0
EXTRACT: note_off channel=15 note=70 velocity=0 time=0.03170285416666667
EXTRACT: note_off channel=8 note=51 velocity=0 time=0.022644895833333335
EXTRACT: note_on channel=1 note=39 velocity=110 time=0.1086955
EXTRACT: note_on channel=1 note=51 velocity=110 time=0
EXTRACT: note_on channel=4 note=63 velocity=105 time=0
EXTRACT: note_on channel=4 note=58 velocity=105 time=0
EXTRACT: note_on channel=8 note=63 velocity=127 time=0
EXTRACT: note_on channel=9 note=46 velocity=127 time=0
EXTRACT: note_on channel=0 note=51 velocity=120 time=0
EXTRACT: note_off channel=4 note=58 velocity=0 time=0.05434775
EXTRACT: note_off channel=4 note=63 velocity=0 time=0
EXTRACT: note_off channel=9 note=46 velocity=0 time=0
EXTRACT: note_off channel=13 note=54 velocity=0 time=0.0135869375
EXTRACT: note_off channel=13 note=66 velocity=0 time=0
EXTRACT: note_off channel=14 note=90 velocity=0 time=0
EXTRACT: note_off channel=3 note=66 velocity=0 time=0.03170285416666667
EXTRACT: note_off channel=8 note=63 velocity=0 time=0.009057958333333335
EXTRACT: note_on channel=13 note=63 velocity=115 time=0
EXTRACT: note_on channel=13 note=51 velocity=115 time=0
EXTRACT: note_on channel=14 note=87 velocity=115 time=0
EXTRACT: note_on channel=15 note=66 velocity=90 time=0
EXTRACT: note_off channel=1 note=51 velocity=0 time=0.05434775
EXTRACT: note_off channel=1 note=39 velocity=0 time=0
EXTRACT: note_off channel=0 note=51 velocity=0 time=0
EXTRACT: note_off channel=15 note=66 velocity=0 time=0.004528979166666667
EXTRACT: note_on channel=4 note=63 velocity=105 time=0.04981877083333334
EXTRACT: note_on channel=4 note=58 velocity=105 time=0
EXTRACT: note_on channel=8 note=51 velocity=127 time=0
EXTRACT: note_on channel=9 note=36 velocity=127 time=0
EXTRACT: note_on channel=9 note=36 velocity=127 time=0
EXTRACT: note_on channel=9 note=36 velocity=127 time=0
EXTRACT: note_on channel=9 note=36 velocity=127 time=0
EXTRACT: note_on channel=9 note=28 velocity=127 time=0
EXTRACT: note_on channel=9 note=42 velocity=127 time=0
EXTRACT: note_on channel=9 note=76 velocity=80 time=0
EXTRACT: note_off channel=13 note=51 velocity=0 time=0.009057958333333335
EXTRACT: note_off channel=13 note=63 velocity=0 time=0
EXTRACT: note_off channel=14 note=87 velocity=0 time=0
EXTRACT: note_off channel=9 note=76 velocity=0 time=0.01811591666666667
EXTRACT: note_off channel=4 note=58 velocity=0 time=0.027173875
EXTRACT: note_off channel=4 note=63 velocity=0 time=0
EXTRACT: note_off channel=9 note=42 velocity=0 time=0
EXTRACT: note_off channel=9 note=36 velocity=64 time=0
EXTRACT: note_off channel=9 note=36 velocity=64 time=0
EXTRACT: note_off channel=9 note=36 velocity=64 time=0
EXTRACT: note_off channel=9 note=36 velocity=64 time=0
EXTRACT: note_off channel=8 note=51 velocity=0 time=0.05434775
EXTRACT: note_on channel=1 note=39 velocity=110 time=0.1086955
EXTRACT: note_on channel=1 note=51 velocity=110 time=0
EXTRACT: note_on channel=3 note=63 velocity=127 time=0
EXTRACT: note_on channel=8 note=63 velocity=127 time=0
EXTRACT: note_on channel=9 note=46 velocity=127 time=0
EXTRACT: note_on channel=9 note=76 velocity=80 time=0
EXTRACT: note_on channel=13 note=63 velocity=115 time=0
EXTRACT: note_on channel=13 note=51 velocity=115 time=0
EXTRACT: note_on channel=14 note=87 velocity=115 time=0
EXTRACT: note_on channel=15 note=66 velocity=90 time=0
EXTRACT: note_on channel=0 note=51 velocity=120 time=0
EXTRACT: note_off channel=9 note=76 velocity=0 time=0.027173875
EXTRACT: note_off channel=15 note=66 velocity=0 time=0.01811591666666667
EXTRACT: note_off channel=13 note=51 velocity=0 time=0.004528979166666667
EXTRACT: note_off channel=13 note=63 velocity=0 time=0
EXTRACT: note_off channel=14 note=87 velocity=0 time=0
EXTRACT: note_off channel=9 note=46 velocity=0 time=0.004528979166666667
EXTRACT: note_off channel=8 note=63 velocity=0 time=0.03623183333333334
EXTRACT: note_off channel=3 note=63 velocity=0 time=0.0135869375
EXTRACT: note_on channel=4 note=63 velocity=105 time=0.004528979166666667
EXTRACT: note_on channel=4 note=58 velocity=105 time=0
EXTRACT: note_on channel=8 note=63 velocity=127 time=0
EXTRACT: note_on channel=13 note=63 velocity=115 time=0
EXTRACT: note_on channel=13 note=51 velocity=115 time=0
EXTRACT: note_on channel=14 note=87 velocity=115 time=0
EXTRACT: note_on channel=15 note=66 velocity=90 time=0
EXTRACT: note_off channel=1 note=51 velocity=0 time=0.05434775
EXTRACT: note_off channel=1 note=39 velocity=0 time=0
EXTRACT: note_off channel=4 note=58 velocity=0 time=0
EXTRACT: note_off channel=4 note=63 velocity=0 time=0
EXTRACT: note_off channel=0 note=51 velocity=0 time=0
EXTRACT: note_off channel=13 note=51 velocity=0 time=0.004528979166666667
EXTRACT: note_off channel=13 note=63 velocity=0 time=0
EXTRACT: note_off channel=14 note=87 velocity=0 time=0
EXTRACT: note_off channel=15 note=66 velocity=0 time=0
EXTRACT: note_off channel=9 note=28 velocity=0 time=0.03623183333333334
EXTRACT: note_on channel=3 note=63 velocity=127 time=0.0135869375
EXTRACT: note_on channel=4 note=63 velocity=105 time=0
EXTRACT: note_on channel=4 note=58 velocity=105 time=0
EXTRACT: note_off channel=8 note=63 velocity=0 time=0
EXTRACT: note_on channel=8 note=51 velocity=127 time=0
EXTRACT: note_on channel=9 note=36 velocity=127 time=0
EXTRACT: note_on channel=9 note=36 velocity=127 time=0
EXTRACT: note_on channel=9 note=36 velocity=127 time=0
EXTRACT: note_on channel=9 note=36 velocity=127 time=0
EXTRACT: note_on channel=9 note=42 velocity=127 time=0
EXTRACT: note_on channel=13 note=63 velocity=115 time=0
EXTRACT: note_on channel=13 note=51 velocity=115 time=0
EXTRACT: note_on channel=14 note=87 velocity=115 time=0
EXTRACT: note_on channel=15 note=66 velocity=90 time=0
EXTRACT: note_off channel=4 note=58 velocity=0 time=0.05434775
EXTRACT: note_off channel=4 note=63 velocity=0 time=0
EXTRACT: note_off channel=9 note=42 velocity=0 time=0
EXTRACT: note_off channel=9 note=36 velocity=64 time=0
EXTRACT: note_off channel=9 note=36 velocity=64 time=0
EXTRACT: note_off channel=9 note=36 velocity=64 time=0
EXTRACT: note_off channel=9 note=36 velocity=64 time=0
EXTRACT: note_off channel=13 note=51 velocity=0 time=0.022644895833333335
EXTRACT: note_off channel=13 note=63 velocity=0 time=0
EXTRACT: note_off channel=14 note=87 velocity=0 time=0
EXTRACT: note_off channel=15 note=66 velocity=0 time=0
EXTRACT: note_off channel=3 note=63 velocity=0 time=0.01811591666666667
EXTRACT: note_off channel=8 note=51 velocity=0 time=0.0135869375
EXTRACT: note_on channel=1 note=39 velocity=110 time=0.1086955
EXTRACT: note_on channel=1 note=51 velocity=110 time=0
EXTRACT: note_on channel=3 note=63 velocity=127 time=0
EXTRACT: note_on channel=4 note=63 velocity=105 time=0
EXTRACT: note_on channel=4 note=58 velocity=105 time=0
EXTRACT: note_on channel=8 note=63 velocity=127 time=0
EXTRACT: note_on channel=9 note=46 velocity=127 time=0
EXTRACT: note_on channel=13 note=63 velocity=115 time=0
EXTRACT: note_on channel=13 note=51 velocity=115 time=0
EXTRACT: note_on channel=14 note=87 velocity=115 time=0
EXTRACT: note_on channel=15 note=66 velocity=90 time=0
EXTRACT: note_on channel=0 note=51 velocity=120 time=0
EXTRACT: note_off channel=4 note=58 velocity=0 time=0.05434775
EXTRACT: note_off channel=4 note=63 velocity=0 time=0
EXTRACT: note_off channel=9 note=46 velocity=0 time=0
EXTRACT: note_off channel=15 note=66 velocity=0 time=0.027173875
EXTRACT: note_off channel=13 note=51 velocity=0 time=0.004528979166666667
EXTRACT: note_off channel=13 note=63 velocity=0 time=0
EXTRACT: note_off channel=14 note=87 velocity=0 time=0
EXTRACT: note_off channel=8 note=63 velocity=0 time=0.022644895833333335
EXTRACT: note_on channel=9 note=36 velocity=127 time=0
EXTRACT: note_on channel=9 note=36 velocity=127 time=0
EXTRACT: note_on channel=9 note=36 velocity=127 time=0
EXTRACT: note_on channel=9 note=36 velocity=127 time=0
EXTRACT: note_off channel=3 note=63 velocity=0 time=0.009057958333333335
EXTRACT: note_off channel=1 note=51 velocity=0 time=0.04528979166666667
EXTRACT: note_off channel=1 note=39 velocity=0 time=0
EXTRACT: note_off channel=9 note=36 velocity=64 time=0
EXTRACT: note_off channel=9 note=36 velocity=64 time=0
EXTRACT: note_off channel=9 note=36 velocity=64 time=0
EXTRACT: note_off channel=9 note=36 velocity=64 time=0
EXTRACT: note_off channel=0 note=51 velocity=0 time=0
EXTRACT: note_on channel=3 note=66 velocity=127 time=0.05434775
EXTRACT: note_on channel=4 note=63 velocity=105 time=0
EXTRACT: note_on channel=4 note=58 velocity=105 time=0
EXTRACT: note_on channel=8 note=51 velocity=127 time=0
EXTRACT: note_on channel=9 note=36 velocity=127 time=0
EXTRACT: note_on channel=9 note=36 velocity=127 time=0
EXTRACT: note_on channel=9 note=36 velocity=127 time=0
EXTRACT: note_on channel=9 note=36 velocity=127 time=0
EXTRACT: note_on channel=9 note=28 velocity=127 time=0
EXTRACT: note_on channel=9 note=42 velocity=127 time=0
EXTRACT: note_on channel=9 note=76 velocity=80 time=0
EXTRACT: note_on channel=13 note=66 velocity=115 time=0
EXTRACT: note_on channel=13 note=54 velocity=115 time=0
EXTRACT: note_on channel=14 note=90 velocity=115 time=0
EXTRACT: note_on channel=15 note=70 velocity=90 time=0
EXTRACT: note_off channel=9 note=76 velocity=0 time=0.027173875
EXTRACT: note_off channel=4 note=58 velocity=0 time=0.027173875
EXTRACT: note_off channel=4 note=63 velocity=0 time=0
EXTRACT: note_off channel=9 note=42 velocity=0 time=0
EXTRACT: note_off channel=9 note=36 velocity=64 time=0
EXTRACT: note_off channel=9 note=36 velocity=64 time=0
EXTRACT: note_off channel=9 note=36 velocity=64 time=0
EXTRACT: note_off channel=9 note=36 velocity=64 time=0
EXTRACT: note_off channel=13 note=54 velocity=0 time=0.01811591666666667
EXTRACT: note_off channel=13 note=66 velocity=0 time=0
EXTRACT: note_off channel=14 note=90 velocity=0 time=0
EXTRACT: note_off channel=15 note=70 velocity=0 time=0.0135869375
EXTRACT: note_off channel=8 note=51 velocity=0 time=0.022644895833333335
EXTRACT: note_off channel=3 note=66 velocity=0 time=0.022644895833333335
EXTRACT: note_on channel=1 note=39 velocity=110 time=0.08605060416666667
EXTRACT: note_on channel=1 note=51 velocity=110 time=0
EXTRACT: note_on channel=3 note=68 velocity=127 time=0
EXTRACT: note_on channel=8 note=63 velocity=127 time=0
EXTRACT: note_on channel=9 note=36 velocity=127 time=0
EXTRACT: note_on channel=9 note=36 velocity=127 time=0
EXTRACT: note_on channel=9 note=36 velocity=127 time=0
EXTRACT: note_on channel=9 note=36 velocity=127 time=0
EXTRACT: note_on channel=9 note=46 velocity=127 time=0
EXTRACT: note_on channel=13 note=68 velocity=115 time=0
EXTRACT: note_on channel=13 note=56 velocity=115 time=0
EXTRACT: note_on channel=14 note=92 velocity=115 time=0
EXTRACT: note_on channel=15 note=71 velocity=90 time=0
EXTRACT: note_on channel=0 note=51 velocity=120 time=0
EXTRACT: note_off channel=9 note=46 velocity=0 time=0.05434775
EXTRACT: note_off channel=9 note=36 velocity=64 time=0
EXTRACT: note_off channel=9 note=36 velocity=64 time=0
EXTRACT: note_off channel=9 note=36 velocity=64 time=0
EXTRACT: note_off channel=9 note=36 velocity=64 time=0
EXTRACT: note_off channel=13 note=56 velocity=0 time=0.01811591666666667
EXTRACT: note_off channel=13 note=68 velocity=0 time=0
EXTRACT: note_off channel=14 note=92 velocity=0 time=0
EXTRACT: note_off channel=15 note=71 velocity=0 time=0.03170285416666667
EXTRACT: note_off channel=8 note=63 velocity=0 time=0.004528979166666667
EXTRACT: note_off channel=3 note=68 velocity=0 time=0.01811591666666667
EXTRACT: note_off channel=1 note=51 velocity=0 time=0.03623183333333334
EXTRACT: note_off channel=1 note=39 velocity=0 time=0
EXTRACT: note_off channel=0 note=51 velocity=0 time=0
EXTRACT: note_off channel=9 note=28 velocity=0 time=0.0407608125
EXTRACT: note_on channel=3 note=70 velocity=127 time=0.0135869375
EXTRACT: note_on channel=4 note=59 velocity=105 time=0
EXTRACT: note_on channel=4 note=54 velocity=105 time=0
EXTRACT: note_on channel=8 note=47 velocity=127 time=0
EXTRACT: note_on channel=9 note=36 velocity=127 time=0
EXTRACT: note_on channel=9 note=36 velocity=127 time=0
EXTRACT: note_on channel=9 note=36 velocity=127 time=0
EXTRACT: note_on channel=9 note=36 velocity=127 time=0
EXTRACT: note_on channel=9 note=42 velocity=127 time=0
EXTRACT: note_on channel=13 note=70 velocity=115 time=0
EXTRACT: note_on channel=13 note=58 velocity=115 time=0
EXTRACT: note_on channel=14 note=94 velocity=115 time=0
EXTRACT: note_on channel=15 note=73 velocity=99 time=0
EXTRACT: note_off channel=4 note=54 velocity=0 time=0.05434775
EXTRACT: note_off channel=4 note=59 velocity=0 time=0
EXTRACT: note_off channel=9 note=42 velocity=0 time=0
EXTRACT: note_off channel=9 note=36 velocity=64 time=0
EXTRACT: note_off channel=9 note=36 velocity=64 time=0
EXTRACT: note_off channel=9 note=36 velocity=64 time=0
EXTRACT: note_off channel=9 note=36 velocity=64 time=0
EXTRACT: note_off channel=8 note=47 velocity=0 time=0.05434775
EXTRACT: note_on channel=1 note=35 velocity=110 time=0.1086955
EXTRACT: note_on channel=1 note=47 velocity=110 time=0
EXTRACT: note_on channel=4 note=59 velocity=105 time=0
EXTRACT: note_on channel=4 note=54 velocity=105 time=0
EXTRACT: note_on channel=8 note=59 velocity=127 time=0
EXTRACT: note_on channel=9 note=46 velocity=127 time=0
EXTRACT: note_on channel=0 note=47 velocity=120 time=0
EXTRACT: note_off channel=3 note=70 velocity=0 time=0.04981877083333334
EXTRACT: note_off channel=4 note=54 velocity=0 time=0.004528979166666667
EXTRACT: note_off channel=4 note=59 velocity=0 time=0
EXTRACT: note_off channel=9 note=46 velocity=0 time=0
EXTRACT: note_off channel=13 note=58 velocity=0 time=0.009057958333333335
EXTRACT: note_off channel=13 note=70 velocity=0 time=0
EXTRACT: note_off channel=14 note=94 velocity=0 time=0
EXTRACT: note_off channel=15 note=73 velocity=0 time=0.01811591666666667
EXTRACT: note_on channel=3 note=66 velocity=127 time=0.027173875
EXTRACT: note_off channel=8 note=59 velocity=0 time=0
EXTRACT: note_on channel=13 note=66 velocity=115 time=0
EXTRACT: note_on channel=13 note=54 velocity=115 time=0
EXTRACT: note_on channel=14 note=90 velocity=115 time=0
EXTRACT: note_on channel=15 note=70 velocity=106 time=0
EXTRACT: note_off channel=1 note=47 velocity=0 time=0.05434775
EXTRACT: note_off channel=1 note=35 velocity=0 time=0
EXTRACT: note_off channel=0 note=47 velocity=0 time=0
EXTRACT: note_off channel=13 note=54 velocity=0 time=0.04528979166666667
EXTRACT: note_off channel=13 note=66 velocity=0 time=0
EXTRACT: note_off channel=14 note=90 velocity=0 time=0
EXTRACT: note_on channel=4 note=59 velocity=105 time=0.009057958333333335
EXTRACT: note_on channel=4 note=54 velocity=105 time=0
EXTRACT: note_on channel=8 note=47 velocity=127 time=0
EXTRACT: note_on channel=9 note=36 velocity=127 time=0
EXTRACT: note_on channel=9 note=36 velocity=127 time=0
EXTRACT: note_on channel=9 note=36 velocity=127 time=0
EXTRACT: note_on channel=9 note=36 velocity=127 time=0
EXTRACT: note_on channel=9 note=28 velocity=127 time=0
EXTRACT: note_on channel=9 note=42 velocity=127 time=0
EXTRACT: note_on channel=9 note=76 velocity=80 time=0
EXTRACT: note_off channel=15 note=70 velocity=0 time=0.009057958333333335
EXTRACT: note_off channel=9 note=76 velocity=0 time=0.01811591666666667
EXTRACT: note_off channel=4 note=54 velocity=0 time=0.027173875
EXTRACT: note_off channel=4 note=59 velocity=0 time=0
EXTRACT: note_off channel=9 note=42 velocity=0 time=0
EXTRACT: note_off channel=9 note=36 velocity=64 time=0
EXTRACT: note_off channel=9 note=36 velocity=64 time=0
EXTRACT: note_off channel=9 note=36 velocity=64 time=0
EXTRACT: note_off channel=9 note=36 velocity=64 time=0
EXTRACT: note_off channel=3 note=66 velocity=0 time=0.0135869375
EXTRACT: note_off channel=8 note=47 velocity=0 time=0.0407608125
EXTRACT: note_on channel=1 note=35 velocity=110 time=0.1086955
EXTRACT: note_on channel=1 note=47 velocity=110 time=0
EXTRACT: note_on channel=3 note=59 velocity=127 time=0
EXTRACT: note_on channel=8 note=59 velocity=127 time=0
EXTRACT: note_on channel=9 note=46 velocity=127 time=0
EXTRACT: note_on channel=9 note=76 velocity=80 time=0
EXTRACT: note_on channel=13 note=59 velocity=115 time=0
EXTRACT: note_on channel=13 note=47 velocity=115 time=0
EXTRACT: note_on channel=14 note=83 velocity=115 time=0
EXTRACT: note_on channel=15 note=66 velocity=99 time=0
EXTRACT: note_on channel=0 note=47 velocity=120 time=0
EXTRACT: note_off channel=9 note=76 velocity=0 time=0.027173875
EXTRACT: note_off channel=9 note=46 velocity=0 time=0.027173875
EXTRACT: note_off channel=8 note=59 velocity=0 time=0.03623183333333334
EXTRACT: note_on channel=4 note=59 velocity=105 time=0.01811591666666667
EXTRACT: note_on channel=4 note=54 velocity=105 time=0
EXTRACT: note_on channel=8 note=59 velocity=127 time=0
EXTRACT: note_off channel=1 note=47 velocity=0 time=0.05434775
EXTRACT: note_off channel=1 note=35 velocity=0 time=0
EXTRACT: note_off channel=4 note=54 velocity=0 time=0
EXTRACT: note_off channel=4 note=59 velocity=0 time=0
EXTRACT: note_off channel=0 note=47 velocity=0 time=0
EXTRACT: note_off channel=3 note=59 velocity=0 time=0.027173875
EXTRACT: note_off channel=15 note=66 velocity=0 time=0
EXTRACT: note_off channel=13 note=47 velocity=0 time=0.004528979166666667
EXTRACT: note_off channel=13 note=59 velocity=0 time=0
EXTRACT: note_off channel=14 note=83 velocity=0 time=0
EXTRACT: note_off channel=9 note=28 velocity=0 time=0.009057958333333335
EXTRACT: note_on channel=3 note=70 velocity=127 time=0.0135869375
EXTRACT: note_on channel=4 note=61 velocity=105 time=0
EXTRACT: note_on channel=4 note=56 velocity=105 time=0
EXTRACT: note_off channel=8 note=59 velocity=0 time=0
EXTRACT: note_on channel=8 note=49 velocity=127 time=0
EXTRACT: note_on channel=9 note=36 velocity=127 time=0
EXTRACT: note_on channel=9 note=36 velocity=127 time=0
EXTRACT: note_on channel=9 note=36 velocity=127 time=0
EXTRACT: note_on channel=9 note=36 velocity=127 time=0
EXTRACT: note_on channel=9 note=42 velocity=127 time=0
EXTRACT: note_on channel=13 note=70 velocity=115 time=0
EXTRACT: note_on channel=13 note=58 velocity=115 time=0
EXTRACT: note_on channel=14 note=94 velocity=115 time=0
EXTRACT: note_on channel=15 note=73 velocity=91 time=0
EXTRACT: note_off channel=4 note=56 velocity=0 time=0.05434775
EXTRACT: note_off channel=4 note=61 velocity=0 time=0
EXTRACT: note_off channel=9 note=42 velocity=0 time=0
EXTRACT: note_off channel=9 note=36 velocity=64 time=0
EXTRACT: note_off channel=9 note=36 velocity=64 time=0
EXTRACT: note_off channel=9 note=36 velocity=64 time=0
EXTRACT: note_off channel=9 note=36 velocity=64 time=0
EXTRACT: note_off channel=13 note=58 velocity=0 time=0.03170285416666667
EXTRACT: note_off channel=13 note=70 velocity=0 time=0
EXTRACT: note_off channel=15 note=73 velocity=0 time=0.004528979166666667
EXTRACT: note_off channel=3 note=70 velocity=0 time=0.004528979166666667
EXTRACT: note_off channel=14 note=94 velocity=0 time=0
EXTRACT: note_off channel=8 note=49 velocity=0 time=0.0135869375
EXTRACT: note_on channel=1 note=37 velocity=110 time=0.1086955
EXTRACT: note_on channel=1 note=49 velocity=110 time=0
EXTRACT: note_on channel=3 note=70 velocity=127 time=0
EXTRACT: note_on channel=4 note=61 velocity=105 time=0
EXTRACT: note_on channel=4 note=56 velocity=105 time=0
EXTRACT: note_on channel=8 note=61 velocity=127 time=0
EXTRACT: note_on channel=9 note=46 velocity=127 time=0
EXTRACT: note_on channel=13 note=70 velocity=115 time=0
EXTRACT: note_on channel=13 note=58 velocity=115 time=0
EXTRACT: note_on channel=14 note=94 velocity=115 time=0
EXTRACT: note_on channel=15 note=73 velocity=91 time=0
EXTRACT: note_on channel=0 note=49 velocity=120 time=0
EXTRACT: note_off channel=4 note=56 velocity=0 time=0.05434775
EXTRACT: note_off channel=4 note=61 velocity=0 time=0
EXTRACT: note_off channel=9 note=46 velocity=0 time=0
EXTRACT: note_off channel=13 note=58 velocity=0 time=0.0407608125
EXTRACT: note_off channel=13 note=70 velocity=0 time=0
EXTRACT: note_off channel=14 note=94 velocity=0 time=0.004528979166666667
EXTRACT: note_off channel=15 note=73 velocity=0 time=0.004528979166666667
EXTRACT: note_off channel=8 note=61 velocity=0 time=0.004528979166666667
EXTRACT: note_on channel=9 note=36 velocity=127 time=0
EXTRACT: note_on channel=9 note=36 velocity=127 time=0
EXTRACT: note_on channel=9 note=36 velocity=127 time=0
EXTRACT: note_on channel=9 note=36 velocity=127 time=0
EXTRACT: note_off channel=3 note=70 velocity=0 time=0.01811591666666667
EXTRACT: note_off channel=1 note=49 velocity=0 time=0.03623183333333334
EXTRACT: note_off channel=1 note=37 velocity=0 time=0
EXTRACT: note_off channel=9 note=36 velocity=64 time=0
EXTRACT: note_off channel=9 note=36 velocity=64 time=0
EXTRACT: note_off channel=9 note=36 velocity=64 time=0
EXTRACT: note_off channel=9 note=36 velocity=64 time=0
EXTRACT: note_off channel=0 note=49 velocity=0 time=0
EXTRACT: note_on channel=3 note=68 velocity=127 time=0.05434775
EXTRACT: note_on channel=4 note=61 velocity=105 time=0
EXTRACT: note_on channel=4 note=56 velocity=105 time=0
EXTRACT: note_on channel=8 note=49 velocity=127 time=0
EXTRACT: note_on channel=9 note=36 velocity=127 time=0
EXTRACT: note_on channel=9 note=36 velocity=127 time=0
EXTRACT: note_on channel=9 note=36 velocity=127 time=0
EXTRACT: note_on channel=9 note=36 velocity=127 time=0
EXTRACT: note_on channel=9 note=28 velocity=127 time=0
EXTRACT: note_on channel=9 note=42 velocity=127 time=0
EXTRACT: note_on channel=9 note=76 velocity=80 time=0
EXTRACT: note_on channel=13 note=68 velocity=115 time=0
EXTRACT: note_on channel=13 note=56 velocity=115 time=0
EXTRACT: note_on channel=14 note=92 velocity=115 time=0
EXTRACT: note_on channel=15 note=71 velocity=79 time=0
EXTRACT: note_off channel=9 note=76 velocity=0 time=0.027173875
EXTRACT: note_off channel=4 note=56 velocity=0 time=0.027173875
EXTRACT: note_off channel=4 note=61 velocity=0 time=0
EXTRACT: note_off channel=9 note=42 velocity=0 time=0
EXTRACT: note_off channel=9 note=36 velocity=64 time=0
EXTRACT: note_off channel=9 note=36 velocity=64 time=0
EXTRACT: note_off channel=9 note=36 velocity=64 time=0
EXTRACT: note_off channel=9 note=36 velocity=64 time=0
EXTRACT: note_off channel=14 note=92 velocity=0 time=0.022644895833333335
EXTRACT: note_off channel=15 note=71 velocity=0 time=0
EXTRACT: note_off channel=13 note=56 velocity=0 time=0.004528979166666667
EXTRACT: note_off channel=13 note=68 velocity=0 time=0
EXTRACT: note_off channel=3 note=68 velocity=0 time=0.027173875
EXTRACT: note_off channel=8 note=49 velocity=0 time=0
EXTRACT: note_on channel=1 note=37 velocity=110 time=0.1086955
EXTRACT: note_on channel=1 note=49 velocity=110 time=0
EXTRACT: note_on channel=3 note=68 velocity=127 time=0
EXTRACT: note_on channel=8 note=61 velocity=127 time=0
EXTRACT: note_on channel=9 note=36 velocity=127 time=0
EXTRACT: note_on channel=9 note=36 velocity=127 time=0
EXTRACT: note_on channel=9 note=36 velocity=127 time=0
EXTRACT: note_on channel=9 note=36 velocity=127 time=0
EXTRACT: note_on channel=9 note=46 velocity=127 time=0
EXTRACT: note_on channel=13 note=68 velocity=115 time=0
EXTRACT: note_on channel=13 note=56 velocity=115 time=0
EXTRACT: note_on channel=14 note=92 velocity=115 time=0
EXTRACT: note_on channel=15 note=71 velocity=91 time=0
EXTRACT: note_on channel=0 note=49 velocity=120 time=0
EXTRACT: note_off channel=9 note=46 velocity=0 time=0.05434775
EXTRACT: note_off channel=9 note=36 velocity=64 time=0
EXTRACT: note_off channel=9 note=36 velocity=64 time=0
EXTRACT: note_off channel=9 note=36 velocity=64 time=0
EXTRACT: note_off channel=9 note=36 velocity=64 time=0
EXTRACT: note_off channel=13 note=56 velocity=0 time=0.03170285416666667
EXTRACT: note_off channel=13 note=68 velocity=0 time=0
EXTRACT: note_off channel=14 note=92 velocity=0 time=0.004528979166666667
EXTRACT: note_off channel=15 note=71 velocity=0 time=0
EXTRACT: note_off channel=8 note=61 velocity=0 time=0.01811591666666667
EXTRACT: note_off channel=3 note=68 velocity=0 time=0.01811591666666667
EXTRACT: note_off channel=1 note=49 velocity=0 time=0.03623183333333334
EXTRACT: note_off channel=1 note=37 velocity=0 time=0
EXTRACT: note_off channel=0 note=49 velocity=0 time=0
EXTRACT: note_off channel=9 note=28 velocity=0 time=0.0407608125
EXTRACT: note_on channel=3 note=66 velocity=127 time=0.0135869375
EXTRACT: note_on channel=4 note=66 velocity=105 time=0
EXTRACT: note_on channel=4 note=61 velocity=105 time=0
EXTRACT: note_on channel=8 note=54 velocity=127 time=0
EXTRACT: note_on channel=9 note=36 velocity=127 time=0
EXTRACT: note_on channel=9 note=36 velocity=127 time=0
EXTRACT: note_on channel=9 note=36 velocity=127 time=0
EXTRACT: note_on channel=9 note=36 velocity=127 time=0
EXTRACT: note_on channel=9 note=42 velocity=127 time=0
EXTRACT: note_on channel=13 note=66 velocity=115 time=0
EXTRACT: note_on channel=13 note=54 velocity=115 time=0
EXTRACT: note_on channel=14 note=90 velocity=115 time=0
EXTRACT: note_on channel=15 note=70 velocity=99 time=0
EXTRACT: note_off channel=4 note=61 velocity=0 time=0.05434775
EXTRACT: note_off channel=4 note=66 velocity=0 time=0
EXTRACT: note_off channel=9 note=42 velocity=0 time=0
EXTRACT: note_off channel=9 note=36 velocity=64 time=0
EXTRACT: note_off channel=9 note=36 velocity=64 time=0
EXTRACT: note_off channel=9 note=36 velocity=64 time=0
EXTRACT: note_off channel=9 note=36 velocity=64 time=0
EXTRACT: note_off channel=8 note=54 velocity=0 time=0.05434775
EXTRACT: note_on channel=1 note=42 velocity=110 time=0.1086955
EXTRACT: note_on channel=1 note=54 velocity=110 time=0
EXTRACT: note_on channel=4 note=66 velocity=105 time=0
EXTRACT: note_on channel=4 note=61 velocity=105 time=0
EXTRACT: note_on channel=8 note=66 velocity=127 time=0
EXTRACT: note_on channel=9 note=46 velocity=127 time=0
EXTRACT: note_off channel=14 note=90 velocity=0 time=0
EXTRACT: note_on channel=0 note=54 velocity=120 time=0
EXTRACT: note_off channel=13 note=54 velocity=0 time=0.03623183333333334
EXTRACT: note_off channel=13 note=66 velocity=0 time=0
EXTRACT: note_off channel=15 note=70 velocity=0 time=0.009057958333333335
EXTRACT: note_off channel=4 note=61 velocity=0 time=0.009057958333333335
EXTRACT: note_off channel=4 note=66 velocity=0 time=0
EXTRACT: note_off channel=9 note=46 velocity=0 time=0
EXTRACT: note_off channel=3 note=66 velocity=0 time=0.01811591666666667
EXTRACT: note_off channel=8 note=66 velocity=0 time=0.03623183333333334
EXTRACT: note_off channel=1 note=54 velocity=0 time=0.05434775
EXTRACT: note_off channel=1 note=42 velocity=0 time=0
EXTRACT: note_off channel=0 note=54 velocity=0 time=0
EXTRACT: note_on channel=3 note=70 velocity=127 time=0.05434775
EXTRACT: note_on channel=4 note=66 velocity=105 time=0
EXTRACT: note_on channel=4 note=61 velocity=105 time=0
EXTRACT: note_on channel=8 note=54 velocity=127 time=0
EXTRACT: note_on channel=9 note=36 velocity=127 time=0
EXTRACT: note_on channel=9 note=36 velocity=127 time=0
EXTRACT: note_on channel=9 note=36 velocity=127 time=0
EXTRACT: note_on channel=9 note=36 velocity=127 time=0
EXTRACT: note_on channel=9 note=28 velocity=127 time=0
EXTRACT: note_on channel=9 note=42 velocity=127 time=0
EXTRACT: note_on channel=9 note=76 velocity=80 time=0
EXTRACT: note_off channel=9 note=76 velocity=0 time=0.027173875
EXTRACT: note_off channel=4 note=61 velocity=0 time=0.027173875
EXTRACT: note_off channel=4 note=66 velocity=0 time=0
EXTRACT: note_off channel=9 note=42 velocity=0 time=0
EXTRACT: note_off channel=9 note=36 velocity=64 time=0
EXTRACT: note_off channel=9 note=36 velocity=64 time=0
EXTRACT: note_off channel=9 note=36 velocity=64 time=0
EXTRACT: note_off channel=9 note=36 velocity=64 time=0
EXTRACT: note_off channel=8 note=54 velocity=0 time=0.05434775
EXTRACT: note_on channel=1 note=42 velocity=110 time=0.1086955
EXTRACT: note_on channel=1 note=54 velocity=110 time=0
EXTRACT: note_on channel=8 note=66 velocity=127 time=0
EXTRACT: note_on channel=9 note=46 velocity=127 time=0
EXTRACT: note_on channel=9 note=76 velocity=80 time=0
EXTRACT: note_on channel=13 note=70 velocity=115 time=0
EXTRACT: note_on channel=13 note=58 velocity=115 time=0
EXTRACT: note_on channel=14 note=94 velocity=115 time=0
EXTRACT: note_on channel=15 note=73 velocity=90 time=0
EXTRACT: note_on channel=0 note=54 velocity=120 time=0
EXTRACT: note_off channel=9 note=76 velocity=0 time=0.027173875
EXTRACT: note_off channel=15 note=73 velocity=0 time=0.009057958333333335
EXTRACT: note_off channel=13 note=58 velocity=0 time=0.0135869375
EXTRACT: note_off channel=13 note=70 velocity=0 time=0
EXTRACT: note_off channel=14 note=94 velocity=0 time=0
EXTRACT: note_off channel=9 note=46 velocity=0 time=0.004528979166666667
EXTRACT: note_off channel=8 note=66 velocity=0 time=0.03623183333333334
EXTRACT: note_on channel=4 note=66 velocity=105 time=0.01811591666666667
EXTRACT: note_on channel=4 note=61 velocity=105 time=0
EXTRACT: note_on channel=8 note=66 velocity=127 time=0
EXTRACT: note_on channel=13 note=70 velocity=115 time=0
EXTRACT: note_on channel=13 note=58 velocity=115 time=0
EXTRACT: note_on channel=14 note=94 velocity=115 time=0
EXTRACT: note_on channel=15 note=73 velocity=90 time=0
EXTRACT: note_off channel=3 note=70 velocity=0 time=0.01811591666666667
EXTRACT: note_off channel=15 note=73 velocity=0 time=0.027173875
EXTRACT: note_off channel=13 note=58 velocity=0 time=0.004528979166666667
EXTRACT: note_off channel=13 note=70 velocity=0 time=0
EXTRACT: note_off channel=14 note=94 velocity=0 time=0
EXTRACT: note_off channel=1 note=54 velocity=0 time=0.004528979166666667
EXTRACT: note_off channel=1 note=42 velocity=0 time=0
EXTRACT: note_off channel=4 note=61 velocity=0 time=0
EXTRACT: note_off channel=4 note=66 velocity=0 time=0
EXTRACT: note_off channel=0 note=54 velocity=0 time=0
EXTRACT: note_off channel=9 note=28 velocity=0 time=0.0407608125
EXTRACT: note_on channel=3 note=70 velocity=127 time=0.0135869375
EXTRACT: note_on channel=4 note=66 velocity=105 time=0
EXTRACT: note_on channel=4 note=61 velocity=105 time=0
EXTRACT: note_off channel=8 note=66 velocity=0 time=0
EXTRACT: note_on channel=8 note=54 velocity=127 time=0
EXTRACT: note_on channel=9 note=36 velocity=127 time=0
EXTRACT: note_on channel=9 note=36 velocity=127 time=0
EXTRACT: note_on channel=9 note=36 velocity=127 time=0
EXTRACT: note_on channel=9 note=36 velocity=127 time=0
EXTRACT: note_on channel=9 note=42 velocity=127 time=0
EXTRACT: note_on channel=13 note=70 velocity=115 time=0
EXTRACT: note_on channel=13 note=58 velocity=115 time=0
EXTRACT: note_on channel=14 note=94 velocity=115 time=0
EXTRACT: note_on channel=15 note=73 velocity=90 time=0
EXTRACT: note_off channel=4 note=61 velocity=0 time=0.05434775
EXTRACT: note_off channel=4 note=66 velocity=0 time=0
EXTRACT: note_off channel=9 note=42 velocity=0 time=0
EXTRACT: note_off channel=9 note=36 velocity=64 time=0
EXTRACT: note_off channel=9 note=36 velocity=64 time=0
EXTRACT: note_off channel=9 note=36 velocity=64 time=0
EXTRACT: note_off channel=9 note=36 velocity=64 time=0
EXTRACT: note_off channel=15 note=73 velocity=0 time=0.004528979166666667
EXTRACT: note_off channel=13 note=58 velocity=0 time=0.01811591666666667
EXTRACT: note_off channel=13 note=70 velocity=0 time=0
EXTRACT: note_off channel=14 note=94 velocity=0 time=0
EXTRACT: note_off channel=8 note=54 velocity=0 time=0.03170285416666667
EXTRACT: note_on channel=1 note=42 velocity=110 time=0.1086955
EXTRACT: note_on channel=1 note=54 velocity=110 time=0
EXTRACT: note_on channel=4 note=66 velocity=105 time=0
EXTRACT: note_on channel=4 note=61 velocity=105 time=0
EXTRACT: note_on channel=8 note=66 velocity=127 time=0
EXTRACT: note_on channel=9 note=46 velocity=127 time=0
EXTRACT: note_on channel=13 note=70 velocity=115 time=0
EXTRACT: note_on channel=13 note=58 velocity=115 time=0
EXTRACT: note_on channel=14 note=94 velocity=115 time=0
EXTRACT: note_on channel=15 note=73 velocity=90 time=0
EXTRACT: note_on channel=0 note=54 velocity=120 time=0
EXTRACT: note_off channel=4 note=61 velocity=0 time=0.05434775
EXTRACT: note_off channel=4 note=66 velocity=0 time=0
EXTRACT: note_off channel=9 note=46 velocity=0 time=0
EXTRACT: note_off channel=15 note=73 velocity=0 time=0.01811591666666667
EXTRACT: note_off channel=8 note=66 velocity=0 time=0.03623183333333334
EXTRACT: note_on channel=9 note=36 velocity=127 time=0
EXTRACT: note_on channel=9 note=36 velocity=127 time=0
EXTRACT: note_on channel=9 note=36 velocity=127 time=0
EXTRACT: note_on channel=9 note=36 velocity=127 time=0
EXTRACT: note_off channel=3 note=70 velocity=0 time=0.01811591666666667
EXTRACT: note_off channel=1 note=54 velocity=0 time=0.03623183333333334
EXTRACT: note_off channel=1 note=42 velocity=0 time=0
EXTRACT: note_off channel=9 note=36 velocity=64 time=0
EXTRACT: note_off channel=9 note=36 velocity=64 time=0
EXTRACT: note_off channel=9 note=36 velocity=64 time=0
EXTRACT: note_off channel=9 note=36 velocity=64 time=0
EXTRACT: note_off channel=0 note=54 velocity=0 time=0
EXTRACT: note_off channel=13 note=58 velocity=0 time=0.027173875
EXTRACT: note_off channel=13 note=70 velocity=0 time=0
EXTRACT: note_on channel=3 note=68 velocity=127 time=0.027173875
EXTRACT: note_on channel=4 note=66 velocity=105 time=0
EXTRACT: note_on channel=4 note=61 velocity=105 time=0
EXTRACT: note_on channel=8 note=54 velocity=127 time=0
EXTRACT: note_on channel=9 note=36 velocity=127 time=0
EXTRACT: note_on channel=9 note=36 velocity=127 time=0
EXTRACT: note_on channel=9 note=36 velocity=127 time=0
EXTRACT: note_on channel=9 note=36 velocity=127 time=0
EXTRACT: note_on channel=9 note=28 velocity=127 time=0
EXTRACT: note_on channel=9 note=42 velocity=127 time=0
EXTRACT: note_on channel=9 note=76 velocity=80 time=0
EXTRACT: note_on channel=13 note=68 velocity=115 time=0
EXTRACT: note_on channel=13 note=56 velocity=115 time=0
EXTRACT: note_on channel=14 note=92 velocity=115 time=0
EXTRACT: note_on channel=15 note=71 velocity=90 time=0
EXTRACT: note_off channel=9 note=76 velocity=0 time=0.027173875
EXTRACT: note_off channel=14 note=94 velocity=0 time=0
EXTRACT: note_off channel=4 note=61 velocity=0 time=0.027173875
EXTRACT: note_off channel=4 note=66 velocity=0 time=0
EXTRACT: note_off channel=9 note=42 velocity=0 time=0
EXTRACT: note_off channel=9 note=36 velocity=64 time=0
EXTRACT: note_off channel=9 note=36 velocity=64 time=0
EXTRACT: note_off channel=9 note=36 velocity=64 time=0
EXTRACT: note_off channel=9 note=36 velocity=64 time=0
EXTRACT: note_off channel=15 note=71 velocity=0 time=0.022644895833333335
EXTRACT: note_off channel=13 note=56 velocity=0 time=0.0135869375
EXTRACT: note_off channel=13 note=68 velocity=0 time=0
EXTRACT: note_off channel=14 note=92 velocity=0 time=0
EXTRACT: note_off channel=8 note=54 velocity=0 time=0.01811591666666667
EXTRACT: note_on channel=1 note=42 velocity=110 time=0.1086955
EXTRACT: note_on channel=1 note=54 velocity=110 time=0
EXTRACT: note_on channel=8 note=66 velocity=127 time=0
EXTRACT: note_on channel=9 note=36 velocity=127 time=0
EXTRACT: note_on channel=9 note=36 velocity=127 time=0
EXTRACT: note_on channel=9 note=36 velocity=127 time=0
EXTRACT: note_on channel=9 note=36 velocity=127 time=0
EXTRACT: note_on channel=9 note=46 velocity=127 time=0
EXTRACT: note_on channel=13 note=68 velocity=115 time=0
EXTRACT: note_on channel=13 note=56 velocity=115 time=0
EXTRACT: note_on channel=14 note=92 velocity=115 time=0
EXTRACT: note_on channel=15 note=71 velocity=90 time=0
EXTRACT: note_on channel=0 note=54 velocity=120 time=0
EXTRACT: note_off channel=9 note=46 velocity=0 time=0.05434775
EXTRACT: note_off channel=9 note=36 velocity=64 time=0
EXTRACT: note_off channel=9 note=36 velocity=64 time=0
EXTRACT: note_off channel=9 note=36 velocity=64 time=0
EXTRACT: note_off channel=9 note=36 velocity=64 time=0
EXTRACT: note_off channel=13 note=56 velocity=0 time=0.027173875
EXTRACT: note_off channel=13 note=68 velocity=0 time=0
EXTRACT: note_off channel=15 note=71 velocity=0 time=0
EXTRACT: note_off channel=8 note=66 velocity=0 time=0.027173875
EXTRACT: note_off channel=14 note=92 velocity=0 time=0.0135869375
EXTRACT: note_off channel=1 note=54 velocity=0 time=0.0407608125
EXTRACT: note_off channel=1 note=42 velocity=0 time=0
EXTRACT: note_off channel=0 note=54 velocity=0 time=0
EXTRACT: note_off channel=3 note=68 velocity=0 time=0.004528979166666667
EXTRACT: note_off channel=9 note=28 velocity=0 time=0.03623183333333334
EXTRACT: note_on channel=3 note=66 velocity=127 time=0.0135869375
EXTRACT: note_on channel=4 note=66 velocity=105 time=0
EXTRACT: note_on channel=4 note=61 velocity=105 time=0
EXTRACT: note_on channel=8 note=54 velocity=127 time=0
EXTRACT: note_on channel=9 note=36 velocity=127 time=0
EXTRACT: note_on channel=9 note=36 velocity=127 time=0
EXTRACT: note_on channel=9 note=36 velocity=127 time=0
EXTRACT: note_on channel=9 note=36 velocity=127 time=0
EXTRACT: note_on channel=9 note=42 velocity=127 time=0
EXTRACT: note_on channel=9 note=49 velocity=85 time=0
EXTRACT: note_on channel=13 note=66 velocity=115 time=0
EXTRACT: note_on channel=13 note=54 velocity=115 time=0
EXTRACT: note_on channel=14 note=90 velocity=115 time=0
EXTRACT: note_on channel=15 note=70 velocity=90 time=0
EXTRACT: note_off channel=9 note=49 velocity=0 time=0.027173875
EXTRACT: note_off channel=4 note=61 velocity=0 time=0.027173875
EXTRACT: note_off channel=4 note=66 velocity=0 time=0
EXTRACT: note_off channel=9 note=42 velocity=0 time=0
EXTRACT: note_off channel=9 note=36 velocity=64 time=0
EXTRACT: note_off channel=9 note=36 velocity=64 time=0
EXTRACT: note_off channel=9 note=36 velocity=64 time=0
EXTRACT: note_off channel=9 note=36 velocity=64 time=0
EXTRACT: note_off channel=8 note=54 velocity=0 time=0.05434775
EXTRACT: note_off channel=15 note=70 velocity=0 time=0.01811591666666667
EXTRACT: note_on channel=1 note=42 velocity=110 time=0.09057958333333334
EXTRACT: note_on channel=1 note=54 velocity=110 time=0
EXTRACT: note_on channel=4 note=66 velocity=105 time=0
EXTRACT: note_on channel=4 note=61 velocity=105 time=0
EXTRACT: note_on channel=8 note=66 velocity=127 time=0
EXTRACT: note_on channel=9 note=46 velocity=127 time=0
EXTRACT: note_on channel=0 note=54 velocity=120 time=0
EXTRACT: note_off channel=4 note=61 velocity=0 time=0.05434775
EXTRACT: note_off channel=4 note=66 velocity=0 time=0
EXTRACT: note_off channel=9 note=46 velocity=0 time=0
EXTRACT: note_off channel=13 note=54 velocity=0 time=0
EXTRACT: note_off channel=13 note=66 velocity=0 time=0
EXTRACT: note_off channel=14 note=90 velocity=0 time=0.01811591666666667
EXTRACT: note_off channel=8 note=66 velocity=0 time=0.03623183333333334
EXTRACT: note_on channel=13 note=61 velocity=115 time=0
EXTRACT: note_on channel=13 note=49 velocity=115 time=0
EXTRACT: note_on channel=14 note=85 velocity=115 time=0
EXTRACT: note_on channel=15 note=66 velocity=90 time=0
EXTRACT: note_off channel=1 note=54 velocity=0 time=0.05434775
EXTRACT: note_off channel=1 note=42 velocity=0 time=0
EXTRACT: note_off channel=0 note=54 velocity=0 time=0
EXTRACT: note_off channel=3 note=66 velocity=0 time=0.027173875
EXTRACT: note_off channel=15 note=66 velocity=0 time=0.0135869375
EXTRACT: note_on channel=4 note=66 velocity=105 time=0.0135869375
EXTRACT: note_on channel=4 note=61 velocity=105 time=0
EXTRACT: note_on channel=8 note=54 velocity=127 time=0
EXTRACT: note_on channel=9 note=36 velocity=127 time=0
EXTRACT: note_on channel=9 note=36 velocity=127 time=0
EXTRACT: note_on channel=9 note=36 velocity=127 time=0
EXTRACT: note_on channel=9 note=36 velocity=127 time=0
EXTRACT: note_on channel=9 note=28 velocity=127 time=0
EXTRACT: note_on channel=9 note=42 velocity=127 time=0
EXTRACT: note_on channel=9 note=76 velocity=80 time=0
EXTRACT: note_off channel=13 note=49 velocity=0 time=0
EXTRACT: note_off channel=13 note=61 velocity=0 time=0
EXTRACT: note_off channel=14 note=85 velocity=0 time=0
EXTRACT: note_off channel=9 note=76 velocity=0 time=0.027173875
EXTRACT: note_off channel=4 note=61 velocity=0 time=0.027173875
EXTRACT: note_off channel=4 note=66 velocity=0 time=0
EXTRACT: note_off channel=9 note=42 velocity=0 time=0
EXTRACT: note_off channel=9 note=36 velocity=64 time=0
EXTRACT: note_off channel=9 note=36 velocity=64 time=0
EXTRACT: note_off channel=9 note=36 velocity=64 time=0
EXTRACT: note_off channel=9 note=36 velocity=64 time=0
EXTRACT: note_off channel=8 note=54 velocity=0 time=0.05434775
EXTRACT: note_on channel=1 note=42 velocity=110 time=0.1086955
EXTRACT: note_on channel=1 note=54 velocity=110 time=0
EXTRACT: note_on channel=3 note=61 velocity=127 time=0
EXTRACT: note_on channel=8 note=66 velocity=127 time=0
EXTRACT: note_on channel=9 note=46 velocity=127 time=0
EXTRACT: note_on channel=9 note=76 velocity=80 time=0
EXTRACT: note_on channel=13 note=61 velocity=115 time=0
EXTRACT: note_on channel=13 note=49 velocity=115 time=0
EXTRACT: note_on channel=14 note=85 velocity=115 time=0
EXTRACT: note_on channel=15 note=66 velocity=90 time=0
EXTRACT: note_on channel=0 note=54 velocity=120 time=0
EXTRACT: note_off channel=9 note=76 velocity=0 time=0.027173875
EXTRACT: note_off channel=9 note=46 velocity=0 time=0.027173875
EXTRACT: note_off channel=15 note=66 velocity=0 time=0.01811591666666667
EXTRACT: note_off channel=8 note=66 velocity=0 time=0.01811591666666667
EXTRACT: note_on channel=4 note=66 velocity=105 time=0.01811591666666667
EXTRACT: note_on channel=4 note=61 velocity=105 time=0
EXTRACT: note_on channel=8 note=66 velocity=127 time=0
EXTRACT: note_off channel=3 note=61 velocity=0 time=0.01811591666666667
EXTRACT: note_off channel=1 note=54 velocity=0 time=0.03623183333333334
EXTRACT: note_off channel=1 note=42 velocity=0 time=0
EXTRACT: note_off channel=4 note=61 velocity=0 time=0
EXTRACT: note_off channel=4 note=66 velocity=0 time=0
EXTRACT: note_off channel=13 note=49 velocity=0 time=0
EXTRACT: note_off channel=13 note=61 velocity=0 time=0
EXTRACT: note_off channel=14 note=85 velocity=0 time=0
EXTRACT: note_off channel=0 note=54 velocity=0 time=0
EXTRACT: note_off channel=9 note=28 velocity=0 time=0.0407608125
EXTRACT: note_on channel=3 note=61 velocity=127 time=0.0135869375
EXTRACT: note_on channel=4 note=61 velocity=105 time=0
EXTRACT: note_on channel=4 note=56 velocity=105 time=0
EXTRACT: note_off channel=8 note=66 velocity=0 time=0
EXTRACT: note_on channel=8 note=49 velocity=127 time=0
EXTRACT: note_on channel=9 note=36 velocity=127 time=0
EXTRACT: note_on channel=9 note=36 velocity=127 time=0
EXTRACT: note_on channel=9 note=36 velocity=127 time=0
EXTRACT: note_on channel=9 note=36 velocity=127 time=0
EXTRACT: note_on channel=9 note=42 velocity=127 time=0
EXTRACT: note_on channel=13 note=61 velocity=115 time=0
EXTRACT: note_on channel=13 note=49 velocity=115 time=0
EXTRACT: note_on channel=14 note=85 velocity=115 time=0
EXTRACT: note_on channel=15 note=66 velocity=90 time=0
EXTRACT: note_off channel=4 note=56 velocity=0 time=0.05434775
EXTRACT: note_off channel=4 note=61 velocity=0 time=0
EXTRACT: note_off channel=9 note=42 velocity=0 time=0
EXTRACT: note_off channel=9 note=36 velocity=64 time=0
EXTRACT: note_off channel=9 note=36 velocity=64 time=0
EXTRACT: note_off channel=9 note=36 velocity=64 time=0
EXTRACT: note_off channel=9 note=36 velocity=64 time=0
EXTRACT: note_off channel=15 note=66 velocity=0 time=0.022644895833333335
EXTRACT: note_off channel=13 note=49 velocity=0 time=0.009057958333333335
EXTRACT: note_off channel=13 note=61 velocity=0 time=0
EXTRACT: note_off channel=14 note=85 velocity=0 time=0
EXTRACT: note_off channel=3 note=61 velocity=0 time=0.009057958333333335
EXTRACT: note_off channel=8 note=49 velocity=0 time=0.0135869375
EXTRACT: note_on channel=1 note=37 velocity=110 time=0.1086955
EXTRACT: note_on channel=1 note=49 velocity=110 time=0
EXTRACT: note_on channel=3 note=61 velocity=127 time=0
EXTRACT: note_on channel=4 note=61 velocity=105 time=0
EXTRACT: note_on channel=4 note=56 velocity=105 time=0
EXTRACT: note_on channel=8 note=61 velocity=127 time=0
EXTRACT: note_on channel=9 note=46 velocity=127 time=0
EXTRACT: note_on channel=13 note=61 velocity=115 time=0
EXTRACT: note_on channel=13 note=49 velocity=115 time=0
EXTRACT: note_on channel=14 note=85 velocity=115 time=0
EXTRACT: note_on channel=15 note=66 velocity=90 time=0
EXTRACT: note_on channel=0 note=49 velocity=120 time=0
EXTRACT: note_off channel=4 note=56 velocity=0 time=0.05434775
EXTRACT: note_off channel=4 note=61 velocity=0 time=0
EXTRACT: note_off channel=9 note=46 velocity=0 time=0
EXTRACT: note_off channel=13 note=49 velocity=0 time=0.022644895833333335
EXTRACT: note_off channel=13 note=61 velocity=0 time=0
EXTRACT: note_off channel=14 note=85 velocity=0 time=0
EXTRACT: note_off channel=15 note=66 velocity=0 time=0
EXTRACT: note_off channel=8 note=61 velocity=0 time=0.03170285416666667
EXTRACT: note_on channel=9 note=36 velocity=127 time=0
EXTRACT: note_on channel=9 note=36 velocity=127 time=0
EXTRACT: note_on channel=9 note=36 velocity=127 time=0
EXTRACT: note_on channel=9 note=36 velocity=127 time=0
EXTRACT: note_off channel=3 note=61 velocity=0 time=0.01811591666666667
EXTRACT: note_off channel=1 note=49 velocity=0 time=0.03623183333333334
EXTRACT: note_off channel=1 note=37 velocity=0 time=0
EXTRACT: note_off channel=9 note=36 velocity=64 time=0
EXTRACT: note_off channel=9 note=36 velocity=64 time=0
EXTRACT: note_off channel=9 note=36 velocity=64 time=0
EXTRACT: note_off channel=9 note=36 velocity=64 time=0
EXTRACT: note_off channel=0 note=49 velocity=0 time=0
EXTRACT: note_on channel=3 note=68 velocity=127 time=0.05434775
EXTRACT: note_on channel=4 note=61 velocity=105 time=0
EXTRACT: note_on channel=4 note=56 velocity=105 time=0
EXTRACT: note_on channel=8 note=49 velocity=127 time=0
EXTRACT: note_on channel=9 note=36 velocity=127 time=0
EXTRACT: note_on channel=9 note=36 velocity=127 time=0
EXTRACT: note_on channel=9 note=36 velocity=127 time=0
EXTRACT: note_on channel=9 note=36 velocity=127 time=0
EXTRACT: note_on channel=9 note=28 velocity=127 time=0
EXTRACT: note_on channel=9 note=42 velocity=127 time=0
EXTRACT: note_on channel=9 note=76 velocity=80 time=0
EXTRACT: note_on channel=13 note=68 velocity=115 time=0
EXTRACT: note_on channel=13 note=56 velocity=115 time=0
EXTRACT: note_on channel=14 note=92 velocity=115 time=0
EXTRACT: note_on channel=15 note=71 velocity=90 time=0
EXTRACT: note_off channel=9 note=76 velocity=0 time=0.027173875
EXTRACT: note_off channel=4 note=56 velocity=0 time=0.027173875
EXTRACT: note_off channel=4 note=61 velocity=0 time=0
EXTRACT: note_off channel=9 note=42 velocity=0 time=0
EXTRACT: note_off channel=9 note=36 velocity=64 time=0
EXTRACT: note_off channel=9 note=36 velocity=64 time=0
EXTRACT: note_off channel=9 note=36 velocity=64 time=0
EXTRACT: note_off channel=9 note=36 velocity=64 time=0
EXTRACT: note_off channel=13 note=56 velocity=0 time=0.0135869375
EXTRACT: note_off channel=13 note=68 velocity=0 time=0
EXTRACT: note_off channel=14 note=92 velocity=0 time=0
EXTRACT: note_off channel=15 note=71 velocity=0 time=0.027173875
EXTRACT: note_off channel=8 note=49 velocity=0 time=0.0135869375
EXTRACT: note_off channel=3 note=68 velocity=0 time=0.004528979166666667
EXTRACT: note_on channel=1 note=37 velocity=110 time=0.10416652083333333
EXTRACT: note_on channel=1 note=49 velocity=110 time=0
EXTRACT: note_on channel=3 note=68 velocity=127 time=0
EXTRACT: note_on channel=8 note=61 velocity=127 time=0
EXTRACT: note_on channel=9 note=36 velocity=127 time=0
EXTRACT: note_on channel=9 note=36 velocity=127 time=0
EXTRACT: note_on channel=9 note=36 velocity=127 time=0
EXTRACT: note_on channel=9 note=36 velocity=127 time=0
EXTRACT: note_on channel=9 note=46 velocity=127 time=0
EXTRACT: note_on channel=13 note=68 velocity=115 time=0
EXTRACT: note_on channel=13 note=56 velocity=115 time=0
EXTRACT: note_on channel=14 note=92 velocity=115 time=0
EXTRACT: note_on channel=15 note=71 velocity=90 time=0
EXTRACT: note_on channel=0 note=49 velocity=120 time=0
EXTRACT: note_off channel=9 note=46 velocity=0 time=0.05434775
EXTRACT: note_off channel=9 note=36 velocity=64 time=0
EXTRACT: note_off channel=9 note=36 velocity=64 time=0
EXTRACT: note_off channel=9 note=36 velocity=64 time=0
EXTRACT: note_off channel=9 note=36 velocity=64 time=0
EXTRACT: note_off channel=13 note=56 velocity=0 time=0.027173875
EXTRACT: note_off channel=13 note=68 velocity=0 time=0
EXTRACT: note_off channel=15 note=71 velocity=0 time=0.0135869375
EXTRACT: note_off channel=14 note=92 velocity=0 time=0.009057958333333335
EXTRACT: note_off channel=3 note=68 velocity=0 time=0.004528979166666667
EXTRACT: note_off channel=8 note=61 velocity=0 time=0
EXTRACT: note_off channel=1 note=49 velocity=0 time=0.05434775
EXTRACT: note_off channel=1 note=37 velocity=0 time=0
EXTRACT: note_off channel=0 note=49 velocity=0 time=0
EXTRACT: note_off channel=9 note=28 velocity=0 time=0.0407608125
EXTRACT: note_on channel=3 note=66 velocity=127 time=0.0135869375
EXTRACT: note_on channel=4 note=63 velocity=105 time=0
EXTRACT: note_on channel=4 note=58 velocity=105 time=0
EXTRACT: note_on channel=8 note=51 velocity=127 time=0
EXTRACT: note_on channel=9 note=36 velocity=127 time=0
EXTRACT: note_on channel=9 note=36 velocity=127 time=0
EXTRACT: note_on channel=9 note=36 velocity=127 time=0
EXTRACT: note_on channel=9 note=36 velocity=127 time=0
EXTRACT: note_on channel=9 note=42 velocity=127 time=0
EXTRACT: note_on channel=13 note=66 velocity=115 time=0
EXTRACT: note_on channel=13 note=54 velocity=115 time=0
EXTRACT: note_on channel=14 note=90 velocity=115 time=0
EXTRACT: note_on channel=15 note=70 velocity=90 time=0
EXTRACT: note_off channel=4 note=58 velocity=0 time=0.05434775
EXTRACT: note_off channel=4 note=63 velocity=0 time=0
EXTRACT: note_off channel=9 note=42 velocity=0 time=0
EXTRACT: note_off channel=9 note=36 velocity=64 time=0
EXTRACT: note_off channel=9 note=36 velocity=64 time=0
EXTRACT: note_off channel=9 note=36 velocity=64 time=0
EXTRACT: note_off channel=9 note=36 velocity=64 time=0
EXTRACT: note_off channel=15 note=70 velocity=0 time=0.03170285416666667
EXTRACT: note_off channel=8 note=51 velocity=0 time=0.022644895833333335
EXTRACT: note_on channel=1 note=39 velocity=110 time=0.1086955
EXTRACT: note_on channel=1 note=51 velocity=110 time=0
EXTRACT: note_on channel=4 note=63 velocity=105 time=0
EXTRACT: note_on channel=4 note=58 velocity=105 time=0
EXTRACT: note_on channel=8 note=63 velocity=127 time=0
EXTRACT: note_on channel=9 note=46 velocity=127 time=0
EXTRACT: note_on channel=0 note=51 velocity=120 time=0
EXTRACT: note_off channel=4 note=58 velocity=0 time=0.05434775
EXTRACT: note_off channel=4 note=63 velocity=0 time=0
EXTRACT: note_off channel=9 note=46 velocity=0 time=0
EXTRACT: note_off channel=13 note=54 velocity=0 time=0.0135869375
EXTRACT: note_off channel=13 note=66 velocity=0 time=0
EXTRACT: note_off channel=14 note=90 velocity=0 time=0
EXTRACT: note_off channel=8 note=63 velocity=0 time=0.0407608125
EXTRACT: note_on channel=13 note=63 velocity=115 time=0
EXTRACT: note_on channel=13 note=51 velocity=115 time=0
EXTRACT: note_on channel=14 note=87 velocity=115 time=0
EXTRACT: note_on channel=15 note=66 velocity=90 time=0
EXTRACT: note_off channel=3 note=66 velocity=0 time=0.022644895833333335
EXTRACT: note_off channel=1 note=51 velocity=0 time=0.03170285416666667
EXTRACT: note_off channel=1 note=39 velocity=0 time=0
EXTRACT: note_off channel=0 note=51 velocity=0 time=0
EXTRACT: note_off channel=15 note=66 velocity=0 time=0.004528979166666667
EXTRACT: note_on channel=4 note=63 velocity=105 time=0.04981877083333334
EXTRACT: note_on channel=4 note=58 velocity=105 time=0
EXTRACT: note_on channel=8 note=51 velocity=127 time=0
EXTRACT: note_on channel=9 note=36 velocity=127 time=0
EXTRACT: note_on channel=9 note=36 velocity=127 time=0
EXTRACT: note_on channel=9 note=36 velocity=127 time=0
EXTRACT: note_on channel=9 note=36 velocity=127 time=0
EXTRACT: note_on channel=9 note=28 velocity=127 time=0
EXTRACT: note_on channel=9 note=42 velocity=127 time=0
EXTRACT: note_on channel=9 note=76 velocity=80 time=0
EXTRACT: note_off channel=13 note=51 velocity=0 time=0.009057958333333335
EXTRACT: note_off channel=13 note=63 velocity=0 time=0
EXTRACT: note_off channel=14 note=87 velocity=0 time=0
EXTRACT: note_off channel=9 note=76 velocity=0 time=0.01811591666666667
EXTRACT: note_off channel=4 note=58 velocity=0 time=0.027173875
EXTRACT: note_off channel=4 note=63 velocity=0 time=0
EXTRACT: note_off channel=9 note=42 velocity=0 time=0
EXTRACT: note_off channel=9 note=36 velocity=64 time=0
EXTRACT: note_off channel=9 note=36 velocity=64 time=0
EXTRACT: note_off channel=9 note=36 velocity=64 time=0
EXTRACT: note_off channel=9 note=36 velocity=64 time=0
EXTRACT: note_off channel=8 note=51 velocity=0 time=0.05434775
EXTRACT: note_on channel=1 note=39 velocity=110 time=0.1086955
EXTRACT: note_on channel=1 note=51 velocity=110 time=0
EXTRACT: note_on channel=3 note=63 velocity=127 time=0
EXTRACT: note_on channel=8 note=63 velocity=127 time=0
EXTRACT: note_on channel=9 note=46 velocity=127 time=0
EXTRACT: note_on channel=9 note=76 velocity=80 time=0
EXTRACT: note_on channel=13 note=63 velocity=115 time=0
EXTRACT: note_on channel=13 note=51 velocity=115 time=0
EXTRACT: note_on channel=14 note=87 velocity=115 time=0
EXTRACT: note_on channel=15 note=66 velocity=90 time=0
EXTRACT: note_on channel=0 note=51 velocity=120 time=0
EXTRACT: note_off channel=9 note=76 velocity=0 time=0.027173875
EXTRACT: note_off channel=15 note=66 velocity=0 time=0.01811591666666667
EXTRACT: note_off channel=13 note=51 velocity=0 time=0.004528979166666667
EXTRACT: note_off channel=13 note=63 velocity=0 time=0
EXTRACT: note_off channel=14 note=87 velocity=0 time=0
EXTRACT: note_off channel=9 note=46 velocity=0 time=0.004528979166666667
EXTRACT: note_off channel=8 note=63 velocity=0 time=0.03623183333333334
EXTRACT: note_off channel=3 note=63 velocity=0 time=0.009057958333333335
EXTRACT: note_on channel=4 note=63 velocity=105 time=0.009057958333333335
EXTRACT: note_on channel=4 note=58 velocity=105 time=0
EXTRACT: note_on channel=8 note=63 velocity=127 time=0
EXTRACT: note_on channel=13 note=63 velocity=115 time=0
EXTRACT: note_on channel=13 note=51 velocity=115 time=0
EXTRACT: note_on channel=14 note=87 velocity=115 time=0
EXTRACT: note_on channel=15 note=66 velocity=90 time=0
EXTRACT: note_off channel=1 note=51 velocity=0 time=0.05434775
EXTRACT: note_off channel=1 note=39 velocity=0 time=0
EXTRACT: note_off channel=4 note=58 velocity=0 time=0
EXTRACT: note_off channel=4 note=63 velocity=0 time=0
EXTRACT: note_off channel=0 note=51 velocity=0 time=0
EXTRACT: note_off channel=13 note=51 velocity=0 time=0.004528979166666667
EXTRACT: note_off channel=13 note=63 velocity=0 time=0
EXTRACT: note_off channel=14 note=87 velocity=0 time=0
EXTRACT: note_off channel=15 note=66 velocity=0 time=0
EXTRACT: note_off channel=9 note=28 velocity=0 time=0.03623183333333334
EXTRACT: note_on channel=3 note=63 velocity=127 time=0.0135869375
EXTRACT: note_on channel=4 note=63 velocity=105 time=0
EXTRACT: note_on channel=4 note=58 velocity=105 time=0
EXTRACT: note_off channel=8 note=63 velocity=0 time=0
EXTRACT: note_on channel=8 note=51 velocity=127 time=0
EXTRACT: note_on channel=9 note=36 velocity=127 time=0
EXTRACT: note_on channel=9 note=36 velocity=127 time=0
EXTRACT: note_on channel=9 note=36 velocity=127 time=0
EXTRACT: note_on channel=9 note=36 velocity=127 time=0
EXTRACT: note_on channel=9 note=42 velocity=127 time=0
EXTRACT: note_on channel=13 note=63 velocity=115 time=0
EXTRACT: note_on channel=13 note=51 velocity=115 time=0
EXTRACT: note_on channel=14 note=87 velocity=115 time=0
EXTRACT: note_on channel=15 note=66 velocity=90 time=0
EXTRACT: note_off channel=4 note=58 velocity=0 time=0.05434775
EXTRACT: note_off channel=4 note=63 velocity=0 time=0
EXTRACT: note_off channel=9 note=42 velocity=0 time=0
EXTRACT: note_off channel=9 note=36 velocity=64 time=0
EXTRACT: note_off channel=9 note=36 velocity=64 time=0
EXTRACT: note_off channel=9 note=36 velocity=64 time=0
EXTRACT: note_off channel=9 note=36 velocity=64 time=0
EXTRACT: note_off channel=13 note=51 velocity=0 time=0.022644895833333335
EXTRACT: note_off channel=13 note=63 velocity=0 time=0
EXTRACT: note_off channel=14 note=87 velocity=0 time=0
EXTRACT: note_off channel=15 note=66 velocity=0 time=0
EXTRACT: note_off channel=3 note=63 velocity=0 time=0.004528979166666667
EXTRACT: note_off channel=8 note=51 velocity=0 time=0.027173875
EXTRACT: note_on channel=1 note=39 velocity=110 time=0.1086955
EXTRACT: note_on channel=1 note=51 velocity=110 time=0
EXTRACT: note_on channel=3 note=63 velocity=127 time=0
EXTRACT: note_on channel=4 note=63 velocity=105 time=0
EXTRACT: note_on channel=4 note=58 velocity=105 time=0
EXTRACT: note_on channel=8 note=63 velocity=127 time=0
EXTRACT: note_on channel=9 note=46 velocity=127 time=0
EXTRACT: note_on channel=13 note=63 velocity=115 time=0
EXTRACT: note_on channel=13 note=51 velocity=115 time=0
EXTRACT: note_on channel=14 note=87 velocity=115 time=0
EXTRACT: note_on channel=15 note=66 velocity=90 time=0
EXTRACT: note_on channel=0 note=51 velocity=120 time=0
EXTRACT: note_off channel=4 note=58 velocity=0 time=0.05434775
EXTRACT: note_off channel=4 note=63 velocity=0 time=0
EXTRACT: note_off channel=9 note=46 velocity=0 time=0
EXTRACT: note_off channel=15 note=66 velocity=0 time=0.027173875
EXTRACT: note_off channel=13 note=51 velocity=0 time=0.004528979166666667
EXTRACT: note_off channel=13 note=63 velocity=0 time=0
EXTRACT: note_off channel=14 note=87 velocity=0 time=0
EXTRACT: note_off channel=8 note=63 velocity=0 time=0.022644895833333335
EXTRACT: note_on channel=9 note=36 velocity=127 time=0
EXTRACT: note_on channel=9 note=36 velocity=127 time=0
EXTRACT: note_on channel=9 note=36 velocity=127 time=0
EXTRACT: note_on channel=9 note=36 velocity=127 time=0
EXTRACT: note_off channel=3 note=63 velocity=0 time=0.004528979166666667
EXTRACT: note_off channel=1 note=51 velocity=0 time=0.04981877083333334
EXTRACT: note_off channel=1 note=39 velocity=0 time=0
EXTRACT: note_off channel=9 note=36 velocity=64 time=0
EXTRACT: note_off channel=9 note=36 velocity=64 time=0
EXTRACT: note_off channel=9 note=36 velocity=64 time=0
EXTRACT: note_off channel=9 note=36 velocity=64 time=0
EXTRACT: note_off channel=0 note=51 velocity=0 time=0
EXTRACT: note_on channel=3 note=66 velocity=127 time=0.05434775
EXTRACT: note_on channel=4 note=63 velocity=105 time=0
EXTRACT: note_on channel=4 note=58 velocity=105 time=0
EXTRACT: note_on channel=8 note=51 velocity=127 time=0
EXTRACT: note_on channel=9 note=36 velocity=127 time=0
EXTRACT: note_on channel=9 note=36 velocity=127 time=0
EXTRACT: note_on channel=9 note=36 velocity=127 time=0
EXTRACT: note_on channel=9 note=36 velocity=127 time=0
EXTRACT: note_on channel=9 note=28 velocity=127 time=0
EXTRACT: note_on channel=9 note=42 velocity=127 time=0
EXTRACT: note_on channel=9 note=76 velocity=80 time=0
EXTRACT: note_on channel=13 note=66 velocity=115 time=0
EXTRACT: note_on channel=13 note=54 velocity=115 time=0
EXTRACT: note_on channel=14 note=90 velocity=115 time=0
EXTRACT: note_on channel=15 note=70 velocity=90 time=0
EXTRACT: note_off channel=9 note=76 velocity=0 time=0.027173875
EXTRACT: note_off channel=4 note=58 velocity=0 time=0.027173875
EXTRACT: note_off channel=4 note=63 velocity=0 time=0
EXTRACT: note_off channel=9 note=42 velocity=0 time=0
EXTRACT: note_off channel=9 note=36 velocity=64 time=0
EXTRACT: note_off channel=9 note=36 velocity=64 time=0
EXTRACT: note_off channel=9 note=36 velocity=64 time=0
EXTRACT: note_off channel=9 note=36 velocity=64 time=0
EXTRACT: note_off channel=13 note=54 velocity=0 time=0.01811591666666667
EXTRACT: note_off channel=13 note=66 velocity=0 time=0
EXTRACT: note_off channel=14 note=90 velocity=0 time=0
EXTRACT: note_off channel=15 note=70 velocity=0 time=0.0135869375
EXTRACT: note_off channel=8 note=51 velocity=0 time=0.022644895833333335
EXTRACT: note_off channel=3 note=66 velocity=0 time=0.01811591666666667
EXTRACT: note_on channel=1 note=39 velocity=110 time=0.09057958333333334
EXTRACT: note_on channel=1 note=51 velocity=110 time=0
EXTRACT: note_on channel=3 note=68 velocity=127 time=0
EXTRACT: note_on channel=8 note=63 velocity=127 time=0
EXTRACT: note_on channel=9 note=36 velocity=127 time=0
EXTRACT: note_on channel=9 note=36 velocity=127 time=0
EXTRACT: note_on channel=9 note=36 velocity=127 time=0
EXTRACT: note_on channel=9 note=36 velocity=127 time=0
EXTRACT: note_on channel=9 note=46 velocity=127 time=0
EXTRACT: note_on channel=13 note=68 velocity=115 time=0
EXTRACT: note_on channel=13 note=56 velocity=115 time=0
EXTRACT: note_on channel=14 note=92 velocity=115 time=0
EXTRACT: note_on channel=15 note=71 velocity=90 time=0
EXTRACT: note_on channel=0 note=51 velocity=120 time=0
EXTRACT: note_off channel=9 note=46 velocity=0 time=0.05434775
EXTRACT: note_off channel=9 note=36 velocity=64 time=0
EXTRACT: note_off channel=9 note=36 velocity=64 time=0
EXTRACT: note_off channel=9 note=36 velocity=64 time=0
EXTRACT: note_off channel=9 note=36 velocity=64 time=0
EXTRACT: note_off channel=13 note=56 velocity=0 time=0.01811591666666667
EXTRACT: note_off channel=13 note=68 velocity=0 time=0
EXTRACT: note_off channel=14 note=92 velocity=0 time=0
EXTRACT: note_off channel=15 note=71 velocity=0 time=0.03170285416666667
EXTRACT: note_off channel=8 note=63 velocity=0 time=0.004528979166666667
EXTRACT: note_off channel=3 note=68 velocity=0 time=0.009057958333333335
EXTRACT: note_off channel=1 note=51 velocity=0 time=0.04528979166666667
EXTRACT: note_off channel=1 note=39 velocity=0 time=0
EXTRACT: note_off channel=0 note=51 velocity=0 time=0
EXTRACT: note_off channel=9 note=28 velocity=0 time=0.0407608125
EXTRACT: note_on channel=3 note=70 velocity=127 time=0.0135869375
EXTRACT: note_on channel=4 note=59 velocity=105 time=0
EXTRACT: note_on channel=4 note=54 velocity=105 time=0
EXTRACT: note_on channel=8 note=47 velocity=127 time=0
EXTRACT: note_on channel=9 note=36 velocity=127 time=0
EXTRACT: note_on channel=9 note=36 velocity=127 time=0
EXTRACT: note_on channel=9 note=36 velocity=127 time=0
EXTRACT: note_on channel=9 note=36 velocity=127 time=0
EXTRACT: note_on channel=9 note=42 velocity=127 time=0
EXTRACT: note_on channel=13 note=70 velocity=115 time=0
EXTRACT: note_on channel=13 note=58 velocity=115 time=0
EXTRACT: note_on channel=14 note=94 velocity=115 time=0
EXTRACT: note_on channel=15 note=73 velocity=90 time=0
EXTRACT: note_off channel=4 note=54 velocity=0 time=0.05434775
EXTRACT: note_off channel=4 note=59 velocity=0 time=0
EXTRACT: note_off channel=9 note=42 velocity=0 time=0
EXTRACT: note_off channel=9 note=36 velocity=64 time=0
EXTRACT: note_off channel=9 note=36 velocity=64 time=0
EXTRACT: note_off channel=9 note=36 velocity=64 time=0
EXTRACT: note_off channel=9 note=36 velocity=64 time=0
EXTRACT: note_off channel=15 note=73 velocity=0 time=0.03170285416666667
EXTRACT: note_off channel=8 note=47 velocity=0 time=0.022644895833333335
EXTRACT: note_on channel=1 note=35 velocity=110 time=0.1086955
EXTRACT: note_on channel=1 note=47 velocity=110 time=0
EXTRACT: note_on channel=4 note=59 velocity=105 time=0
EXTRACT: note_on channel=4 note=54 velocity=105 time=0
EXTRACT: note_on channel=8 note=59 velocity=127 time=0
EXTRACT: note_on channel=9 note=46 velocity=127 time=0
EXTRACT: note_on channel=0 note=47 velocity=120 time=0
EXTRACT: note_off channel=3 note=70 velocity=0 time=0.004528979166666667
EXTRACT: note_off channel=4 note=54 velocity=0 time=0.04981877083333334
EXTRACT: note_off channel=4 note=59 velocity=0 time=0
EXTRACT: note_off channel=9 note=46 velocity=0 time=0
EXTRACT: note_off channel=13 note=58 velocity=0 time=0.009057958333333335
EXTRACT: note_off channel=13 note=70 velocity=0 time=0
EXTRACT: note_off channel=14 note=94 velocity=0 time=0
EXTRACT: note_on channel=3 note=66 velocity=127 time=0.04528979166666667
EXTRACT: note_off channel=8 note=59 velocity=0 time=0
EXTRACT: note_on channel=13 note=66 velocity=115 time=0
EXTRACT: note_on channel=13 note=54 velocity=115 time=0
EXTRACT: note_on channel=14 note=90 velocity=115 time=0
EXTRACT: note_on channel=15 note=70 velocity=90 time=0
EXTRACT: note_off channel=1 note=47 velocity=0 time=0.05434775
EXTRACT: note_off channel=1 note=35 velocity=0 time=0
EXTRACT: note_off channel=0 note=47 velocity=0 time=0
EXTRACT: note_off channel=15 note=70 velocity=0 time=0.022644895833333335
EXTRACT: note_off channel=13 note=54 velocity=0 time=0.022644895833333335
EXTRACT: note_off channel=13 note=66 velocity=0 time=0
EXTRACT: note_off channel=14 note=90 velocity=0 time=0
EXTRACT: note_on channel=4 note=59 velocity=105 time=0.009057958333333335
EXTRACT: note_on channel=4 note=54 velocity=105 time=0
EXTRACT: note_on channel=8 note=47 velocity=127 time=0
EXTRACT: note_on channel=9 note=36 velocity=127 time=0
EXTRACT: note_on channel=9 note=36 velocity=127 time=0
EXTRACT: note_on channel=9 note=36 velocity=127 time=0
EXTRACT: note_on channel=9 note=36 velocity=127 time=0
EXTRACT: note_on channel=9 note=28 velocity=127 time=0
EXTRACT: note_on channel=9 note=42 velocity=127 time=0
EXTRACT: note_on channel=9 note=76 velocity=80 time=0
EXTRACT: note_off channel=9 note=76 velocity=0 time=0.027173875
EXTRACT: note_off channel=3 note=66 velocity=0 time=0.022644895833333335
EXTRACT: note_off channel=4 note=54 velocity=0 time=0.004528979166666667
EXTRACT: note_off channel=4 note=59 velocity=0 time=0
EXTRACT: note_off channel=9 note=42 velocity=0 time=0
EXTRACT: note_off channel=9 note=36 velocity=64 time=0
EXTRACT: note_off channel=9 note=36 velocity=64 time=0
EXTRACT: note_off channel=9 note=36 velocity=64 time=0
EXTRACT: note_off channel=9 note=36 velocity=64 time=0
EXTRACT: note_off channel=8 note=47 velocity=0 time=0.05434775
EXTRACT: note_on channel=1 note=35 velocity=110 time=0.1086955
EXTRACT: note_on channel=1 note=47 velocity=110 time=0
EXTRACT: note_on channel=3 note=59 velocity=127 time=0
EXTRACT: note_on channel=8 note=59 velocity=127 time=0
EXTRACT: note_on channel=9 note=46 velocity=127 time=0
EXTRACT: note_on channel=9 note=76 velocity=80 time=0
EXTRACT: note_on channel=13 note=59 velocity=115 time=0
EXTRACT: note_on channel=13 note=47 velocity=115 time=0
EXTRACT: note_on channel=14 note=83 velocity=115 time=0
EXTRACT: note_on channel=15 note=63 velocity=90 time=0
EXTRACT: note_on channel=0 note=47 velocity=120 time=0
EXTRACT: note_off channel=9 note=76 velocity=0 time=0.027173875
EXTRACT: note_off channel=9 note=46 velocity=0 time=0.027173875
EXTRACT: note_off channel=15 note=63 velocity=0 time=0.022644895833333335
EXTRACT: note_off channel=13 note=47 velocity=0 time=0.009057958333333335
EXTRACT: note_off channel=13 note=59 velocity=0 time=0
EXTRACT: note_off channel=14 note=83 velocity=0 time=0
EXTRACT: note_off channel=8 note=59 velocity=0 time=0.004528979166666667
EXTRACT: note_off channel=3 note=59 velocity=0 time=0.009057958333333335
EXTRACT: note_on channel=4 note=59 velocity=105 time=0.009057958333333335
EXTRACT: note_on channel=4 note=54 velocity=105 time=0
EXTRACT: note_on channel=8 note=59 velocity=127 time=0
EXTRACT: note_off channel=1 note=47 velocity=0 time=0.05434775
EXTRACT: note_off channel=1 note=35 velocity=0 time=0
EXTRACT: note_off channel=4 note=54 velocity=0 time=0
EXTRACT: note_off channel=4 note=59 velocity=0 time=0
EXTRACT: note_off channel=0 note=47 velocity=0 time=0
EXTRACT: note_off channel=9 note=28 velocity=0 time=0.0407608125
EXTRACT: note_on channel=3 note=59 velocity=127 time=0.0135869375
EXTRACT: note_on channel=4 note=61 velocity=105 time=0
EXTRACT: note_on channel=4 note=56 velocity=105 time=0
EXTRACT: note_off channel=8 note=59 velocity=0 time=0
EXTRACT: note_on channel=8 note=49 velocity=127 time=0
EXTRACT: note_on channel=9 note=36 velocity=127 time=0
EXTRACT: note_on channel=9 note=36 velocity=127 time=0
EXTRACT: note_on channel=9 note=36 velocity=127 time=0
EXTRACT: note_on channel=9 note=36 velocity=127 time=0
EXTRACT: note_on channel=9 note=42 velocity=127 time=0
EXTRACT: note_on channel=13 note=59 velocity=115 time=0
EXTRACT: note_on channel=13 note=47 velocity=115 time=0
EXTRACT: note_on channel=14 note=83 velocity=115 time=0
EXTRACT: note_on channel=15 note=63 velocity=90 time=0
EXTRACT: note_off channel=4 note=56 velocity=0 time=0.05434775
EXTRACT: note_off channel=4 note=61 velocity=0 time=0
EXTRACT: note_off channel=9 note=42 velocity=0 time=0
EXTRACT: note_off channel=9 note=36 velocity=64 time=0
EXTRACT: note_off channel=9 note=36 velocity=64 time=0
EXTRACT: note_off channel=9 note=36 velocity=64 time=0
EXTRACT: note_off channel=9 note=36 velocity=64 time=0
EXTRACT: note_off channel=15 note=63 velocity=0 time=0.004528979166666667
EXTRACT: note_off channel=13 note=47 velocity=0 time=0.022644895833333335
EXTRACT: note_off channel=13 note=59 velocity=0 time=0
EXTRACT: note_off channel=14 note=83 velocity=0 time=0
EXTRACT: note_off channel=3 note=59 velocity=0 time=0.009057958333333335
EXTRACT: note_off channel=8 note=49 velocity=0 time=0.01811591666666667
EXTRACT: note_on channel=1 note=37 velocity=110 time=0.1086955
EXTRACT: note_on channel=1 note=49 velocity=110 time=0
EXTRACT: note_on channel=3 note=59 velocity=127 time=0
EXTRACT: note_on channel=4 note=61 velocity=105 time=0
EXTRACT: note_on channel=4 note=56 velocity=105 time=0
EXTRACT: note_on channel=8 note=61 velocity=127 time=0
EXTRACT: note_on channel=9 note=46 velocity=127 time=0
EXTRACT: note_on channel=13 note=59 velocity=115 time=0
EXTRACT: note_on channel=13 note=47 velocity=115 time=0
EXTRACT: note_on channel=14 note=83 velocity=115 time=0
EXTRACT: note_on channel=15 note=63 velocity=90 time=0
EXTRACT: note_on channel=0 note=49 velocity=120 time=0
EXTRACT: note_off channel=4 note=56 velocity=0 time=0.05434775
EXTRACT: note_off channel=4 note=61 velocity=0 time=0
EXTRACT: note_off channel=9 note=46 velocity=0 time=0
EXTRACT: note_off channel=15 note=63 velocity=0 time=0.004528979166666667
EXTRACT: note_off channel=13 note=47 velocity=0 time=0.0135869375
EXTRACT: note_off channel=13 note=59 velocity=0 time=0
EXTRACT: note_off channel=14 note=83 velocity=0 time=0
EXTRACT: note_off channel=3 note=59 velocity=0 time=0.01811591666666667
EXTRACT: note_off channel=8 note=61 velocity=0 time=0.01811591666666667
EXTRACT: note_on channel=9 note=36 velocity=127 time=0
EXTRACT: note_on channel=9 note=36 velocity=127 time=0
EXTRACT: note_on channel=9 note=36 velocity=127 time=0
EXTRACT: note_on channel=9 note=36 velocity=127 time=0
EXTRACT: note_off channel=1 note=49 velocity=0 time=0.05434775
EXTRACT: note_off channel=1 note=37 velocity=0 time=0
EXTRACT: note_off channel=9 note=36 velocity=64 time=0
EXTRACT: note_off channel=9 note=36 velocity=64 time=0
EXTRACT: note_off channel=9 note=36 velocity=64 time=0
EXTRACT: note_off channel=9 note=36 velocity=64 time=0
EXTRACT: note_off channel=0 note=49 velocity=0 time=0
EXTRACT: note_on channel=3 note=59 velocity=127 time=0.05434775
EXTRACT: note_on channel=4 note=61 velocity=105 time=0
EXTRACT: note_on channel=4 note=56 velocity=105 time=0
EXTRACT: note_on channel=8 note=49 velocity=127 time=0
EXTRACT: note_on channel=9 note=36 velocity=127 time=0
EXTRACT: note_on channel=9 note=36 velocity=127 time=0
EXTRACT: note_on channel=9 note=36 velocity=127 time=0
EXTRACT: note_on channel=9 note=36 velocity=127 time=0
EXTRACT: note_on channel=9 note=28 velocity=127 time=0
EXTRACT: note_on channel=9 note=42 velocity=127 time=0
EXTRACT: note_on channel=9 note=76 velocity=80 time=0
EXTRACT: note_on channel=13 note=59 velocity=115 time=0
EXTRACT: note_on channel=13 note=47 velocity=115 time=0
EXTRACT: note_on channel=14 note=83 velocity=115 time=0
EXTRACT: note_on channel=15 note=63 velocity=90 time=0
EXTRACT: note_off channel=9 note=76 velocity=0 time=0.027173875
EXTRACT: note_off channel=4 note=56 velocity=0 time=0.027173875
EXTRACT: note_off channel=4 note=61 velocity=0 time=0
EXTRACT: note_off channel=9 note=42 velocity=0 time=0
EXTRACT: note_off channel=9 note=36 velocity=64 time=0
EXTRACT: note_off channel=9 note=36 velocity=64 time=0
EXTRACT: note_off channel=9 note=36 velocity=64 time=0
EXTRACT: note_off channel=9 note=36 velocity=64 time=0
EXTRACT: note_off channel=15 note=63 velocity=0 time=0.004528979166666667
EXTRACT: note_off channel=13 note=47 velocity=0 time=0.0135869375
EXTRACT: note_off channel=13 note=59 velocity=0 time=0
EXTRACT: note_off channel=14 note=83 velocity=0 time=0
EXTRACT: note_off channel=3 note=59 velocity=0 time=0.022644895833333335
EXTRACT: note_off channel=8 note=49 velocity=0 time=0.0135869375
EXTRACT: note_on channel=1 note=37 velocity=110 time=0.1086955
EXTRACT: note_on channel=1 note=49 velocity=110 time=0
EXTRACT: note_on channel=3 note=59 velocity=127 time=0
EXTRACT: note_on channel=8 note=61 velocity=127 time=0
EXTRACT: note_on channel=9 note=36 velocity=127 time=0
EXTRACT: note_on channel=9 note=36 velocity=127 time=0
EXTRACT: note_on channel=9 note=36 velocity=127 time=0
EXTRACT: note_on channel=9 note=36 velocity=127 time=0
EXTRACT: note_on channel=9 note=46 velocity=127 time=0
EXTRACT: note_on channel=13 note=59 velocity=115 time=0
EXTRACT: note_on channel=13 note=47 velocity=115 time=0
EXTRACT: note_on channel=14 note=83 velocity=115 time=0
EXTRACT: note_on channel=15 note=63 velocity=90 time=0
EXTRACT: note_on channel=0 note=49 velocity=120 time=0
EXTRACT: note_off channel=9 note=46 velocity=0 time=0.05434775
EXTRACT: note_off channel=9 note=36 velocity=64 time=0
EXTRACT: note_off channel=9 note=36 velocity=64 time=0
EXTRACT: note_off channel=9 note=36 velocity=64 time=0
EXTRACT: note_off channel=9 note=36 velocity=64 time=0
EXTRACT: note_off channel=15 note=63 velocity=0 time=0.009057958333333335
EXTRACT: note_off channel=13 note=47 velocity=0 time=0.0135869375
EXTRACT: note_off channel=13 note=59 velocity=0 time=0
EXTRACT: note_off channel=14 note=83 velocity=0 time=0
EXTRACT: note_off channel=3 note=59 velocity=0 time=0.03170285416666667
EXTRACT: note_off channel=8 note=61 velocity=0 time=0
EXTRACT: note_off channel=1 note=49 velocity=0 time=0.05434775
EXTRACT: note_off channel=1 note=37 velocity=0 time=0
EXTRACT: note_off channel=0 note=49 velocity=0 time=0
EXTRACT: note_off channel=9 note=28 velocity=0 time=0.0407608125
EXTRACT: note_on channel=3 note=58 velocity=127 time=0.0135869375
EXTRACT: note_on channel=4 note=66 velocity=105 time=0
EXTRACT: note_on channel=4 note=61 velocity=105 time=0
EXTRACT: note_on channel=8 note=54 velocity=127 time=0
EXTRACT: note_on channel=9 note=36 velocity=127 time=0
EXTRACT: note_on channel=9 note=36 velocity=127 time=0
EXTRACT: note_on channel=9 note=36 velocity=127 time=0
EXTRACT: note_on channel=9 note=36 velocity=127 time=0
EXTRACT: note_on channel=9 note=42 velocity=127 time=0
EXTRACT: note_on channel=13 note=58 velocity=115 time=0
EXTRACT: note_on channel=13 note=46 velocity=115 time=0
EXTRACT: note_on channel=14 note=82 velocity=115 time=0
EXTRACT: note_on channel=15 note=61 velocity=90 time=0
EXTRACT: note_off channel=4 note=61 velocity=0 time=0.05434775
EXTRACT: note_off channel=4 note=66 velocity=0 time=0
EXTRACT: note_off channel=9 note=42 velocity=0 time=0
EXTRACT: note_off channel=9 note=36 velocity=64 time=0
EXTRACT: note_off channel=9 note=36 velocity=64 time=0
EXTRACT: note_off channel=9 note=36 velocity=64 time=0
EXTRACT: note_off channel=9 note=36 velocity=64 time=0
EXTRACT: note_off channel=8 note=54 velocity=0 time=0.05434775
EXTRACT: note_on channel=1 note=42 velocity=110 time=0.1086955
EXTRACT: note_on channel=1 note=54 velocity=110 time=0
EXTRACT: note_on channel=4 note=66 velocity=105 time=0
EXTRACT: note_on channel=4 note=61 velocity=105 time=0
EXTRACT: note_on channel=8 note=66 velocity=127 time=0
EXTRACT: note_on channel=9 note=46 velocity=127 time=0
EXTRACT: note_off channel=15 note=61 velocity=0 time=0
EXTRACT: note_on channel=0 note=54 velocity=120 time=0
EXTRACT: note_off channel=4 note=61 velocity=0 time=0.05434775
EXTRACT: note_off channel=4 note=66 velocity=0 time=0
EXTRACT: note_off channel=9 note=46 velocity=0 time=0
EXTRACT: note_off channel=3 note=58 velocity=0 time=0.027173875
EXTRACT: note_off channel=13 note=46 velocity=0 time=0.009057958333333335
EXTRACT: note_off channel=13 note=58 velocity=0 time=0
EXTRACT: note_off channel=14 note=82 velocity=0 time=0
EXTRACT: note_on channel=3 note=66 velocity=127 time=0.01811591666666667
EXTRACT: note_off channel=8 note=66 velocity=0 time=0
EXTRACT: note_on channel=13 note=66 velocity=115 time=0
EXTRACT: note_on channel=13 note=54 velocity=115 time=0
EXTRACT: note_on channel=14 note=90 velocity=115 time=0
EXTRACT: note_on channel=15 note=70 velocity=90 time=0
EXTRACT: note_off channel=1 note=54 velocity=0 time=0.05434775
EXTRACT: note_off channel=1 note=42 velocity=0 time=0
EXTRACT: note_off channel=0 note=54 velocity=0 time=0
EXTRACT: note_off channel=15 note=70 velocity=0 time=0.03170285416666667
EXTRACT: note_on channel=3 note=70 velocity=127 time=0.022644895833333335
EXTRACT: note_on channel=4 note=66 velocity=105 time=0
EXTRACT: note_on channel=4 note=61 velocity=105 time=0
EXTRACT: note_on channel=8 note=54 velocity=127 time=0
EXTRACT: note_on channel=9 note=36 velocity=127 time=0
EXTRACT: note_on channel=9 note=36 velocity=127 time=0
EXTRACT: note_on channel=9 note=36 velocity=127 time=0
EXTRACT: note_on channel=9 note=36 velocity=127 time=0
EXTRACT: note_on channel=9 note=28 velocity=127 time=0
EXTRACT: note_on channel=9 note=42 velocity=127 time=0
EXTRACT: note_on channel=9 note=76 velocity=80 time=0
EXTRACT: note_off channel=13 note=54 velocity=0 time=0.0135869375
EXTRACT: note_off channel=13 note=66 velocity=0 time=0
EXTRACT: note_off channel=14 note=90 velocity=0 time=0
EXTRACT: note_off channel=9 note=76 velocity=0 time=0.0135869375
EXTRACT: note_off channel=4 note=61 velocity=0 time=0.027173875
EXTRACT: note_off channel=4 note=66 velocity=0 time=0
EXTRACT: note_off channel=9 note=42 velocity=0 time=0
EXTRACT: note_off channel=9 note=36 velocity=64 time=0
EXTRACT: note_off channel=9 note=36 velocity=64 time=0
EXTRACT: note_off channel=9 note=36 velocity=64 time=0
EXTRACT: note_off channel=9 note=36 velocity=64 time=0
EXTRACT: note_off channel=3 note=66 velocity=0 time=0.004528979166666667
EXTRACT: note_off channel=8 note=54 velocity=0 time=0.04981877083333334
EXTRACT: note_on channel=1 note=42 velocity=110 time=0.1086955
EXTRACT: note_on channel=1 note=54 velocity=110 time=0
EXTRACT: note_on channel=8 note=66 velocity=127 time=0
EXTRACT: note_on channel=9 note=46 velocity=127 time=0
EXTRACT: note_on channel=9 note=76 velocity=80 time=0
EXTRACT: note_on channel=13 note=70 velocity=115 time=0
EXTRACT: note_on channel=13 note=58 velocity=115 time=0
EXTRACT: note_on channel=14 note=94 velocity=115 time=0
EXTRACT: note_on channel=15 note=73 velocity=90 time=0
EXTRACT: note_on channel=0 note=54 velocity=120 time=0
EXTRACT: note_off channel=9 note=76 velocity=0 time=0.027173875
EXTRACT: note_off channel=15 note=73 velocity=0 time=0.009057958333333335
EXTRACT: note_off channel=13 note=58 velocity=0 time=0.0135869375
EXTRACT: note_off channel=13 note=70 velocity=0 time=0
EXTRACT: note_off channel=14 note=94 velocity=0 time=0
EXTRACT: note_off channel=9 note=46 velocity=0 time=0.004528979166666667
EXTRACT: note_off channel=3 note=70 velocity=0 time=0.01811591666666667
EXTRACT: note_off channel=8 note=66 velocity=0 time=0.01811591666666667
EXTRACT: note_on channel=4 note=66 velocity=105 time=0.01811591666666667
EXTRACT: note_on channel=4 note=61 velocity=105 time=0
EXTRACT: note_on channel=8 note=66 velocity=127 time=0
EXTRACT: note_on channel=13 note=70 velocity=115 time=0
EXTRACT: note_on channel=13 note=58 velocity=115 time=0
EXTRACT: note_on channel=14 note=94 velocity=115 time=0
EXTRACT: note_on channel=15 note=73 velocity=90 time=0
EXTRACT: note_off channel=15 note=73 velocity=0 time=0.04528979166666667
EXTRACT: note_off channel=13 note=58 velocity=0 time=0.004528979166666667
EXTRACT: note_off channel=13 note=70 velocity=0 time=0
EXTRACT: note_off channel=14 note=94 velocity=0 time=0
EXTRACT: note_off channel=1 note=54 velocity=0 time=0.004528979166666667
EXTRACT: note_off channel=1 note=42 velocity=0 time=0
EXTRACT: note_off channel=4 note=61 velocity=0 time=0
EXTRACT: note_off channel=4 note=66 velocity=0 time=0
EXTRACT: note_off channel=0 note=54 velocity=0 time=0
EXTRACT: note_off channel=9 note=28 velocity=0 time=0.0407608125
EXTRACT: note_on channel=3 note=70 velocity=127 time=0.0135869375
EXTRACT: note_on channel=4 note=66 velocity=105 time=0
EXTRACT: note_on channel=4 note=61 velocity=105 time=0
EXTRACT: note_off channel=8 note=66 velocity=0 time=0
EXTRACT: note_on channel=8 note=54 velocity=127 time=0
EXTRACT: note_on channel=9 note=36 velocity=127 time=0
EXTRACT: note_on channel=9 note=36 velocity=127 time=0
EXTRACT: note_on channel=9 note=36 velocity=127 time=0
EXTRACT: note_on channel=9 note=36 velocity=127 time=0
EXTRACT: note_on channel=9 note=42 velocity=127 time=0
EXTRACT: note_on channel=13 note=70 velocity=115 time=0
EXTRACT: note_on channel=13 note=58 velocity=115 time=0
EXTRACT: note_on channel=14 note=94 velocity=115 time=0
EXTRACT: note_on channel=15 note=73 velocity=90 time=0
EXTRACT: note_off channel=4 note=61 velocity=0 time=0.05434775
EXTRACT: note_off channel=4 note=66 velocity=0 time=0
EXTRACT: note_off channel=9 note=42 velocity=0 time=0
EXTRACT: note_off channel=9 note=36 velocity=64 time=0
EXTRACT: note_off channel=9 note=36 velocity=64 time=0
EXTRACT: note_off channel=9 note=36 velocity=64 time=0
EXTRACT: note_off channel=9 note=36 velocity=64 time=0
EXTRACT: note_off channel=15 note=73 velocity=0 time=0.004528979166666667
EXTRACT: note_off channel=13 note=58 velocity=0 time=0.01811591666666667
EXTRACT: note_off channel=13 note=70 velocity=0 time=0
EXTRACT: note_off channel=14 note=94 velocity=0 time=0
EXTRACT: note_off channel=8 note=54 velocity=0 time=0.03170285416666667
EXTRACT: note_on channel=1 note=42 velocity=110 time=0.1086955
EXTRACT: note_on channel=1 note=54 velocity=110 time=0
EXTRACT: note_on channel=4 note=66 velocity=105 time=0
EXTRACT: note_on channel=4 note=61 velocity=105 time=0
EXTRACT: note_on channel=8 note=66 velocity=127 time=0
EXTRACT: note_on channel=9 note=46 velocity=127 time=0
EXTRACT: note_on channel=13 note=70 velocity=115 time=0
EXTRACT: note_on channel=13 note=58 velocity=115 time=0
EXTRACT: note_on channel=14 note=94 velocity=115 time=0
EXTRACT: note_on channel=15 note=73 velocity=90 time=0
EXTRACT: note_on channel=0 note=54 velocity=120 time=0
EXTRACT: note_off channel=4 note=61 velocity=0 time=0.05434775
EXTRACT: note_off channel=4 note=66 velocity=0 time=0
EXTRACT: note_off channel=9 note=46 velocity=0 time=0
EXTRACT: note_off channel=15 note=73 velocity=0 time=0.01811591666666667
EXTRACT: note_off channel=3 note=70 velocity=0 time=0.01811591666666667
EXTRACT: note_off channel=8 note=66 velocity=0 time=0.01811591666666667
EXTRACT: note_on channel=9 note=36 velocity=127 time=0
EXTRACT: note_on channel=9 note=36 velocity=127 time=0
EXTRACT: note_on channel=9 note=36 velocity=127 time=0
EXTRACT: note_on channel=9 note=36 velocity=127 time=0
EXTRACT: note_off channel=1 note=54 velocity=0 time=0.05434775
EXTRACT: note_off channel=1 note=42 velocity=0 time=0
EXTRACT: note_off channel=9 note=36 velocity=64 time=0
EXTRACT: note_off channel=9 note=36 velocity=64 time=0
EXTRACT: note_off channel=9 note=36 velocity=64 time=0
EXTRACT: note_off channel=9 note=36 velocity=64 time=0
EXTRACT: note_off channel=0 note=54 velocity=0 time=0
EXTRACT: note_on channel=3 note=68 velocity=127 time=0.05434775
EXTRACT: note_on channel=4 note=66 velocity=105 time=0
EXTRACT: note_on channel=4 note=61 velocity=105 time=0
EXTRACT: note_on channel=8 note=54 velocity=127 time=0
EXTRACT: note_on channel=9 note=36 velocity=127 time=0
EXTRACT: note_on channel=9 note=36 velocity=127 time=0
EXTRACT: note_on channel=9 note=36 velocity=127 time=0
EXTRACT: note_on channel=9 note=36 velocity=127 time=0
EXTRACT: note_on channel=9 note=28 velocity=127 time=0
EXTRACT: note_on channel=9 note=42 velocity=127 time=0
EXTRACT: note_on channel=9 note=76 velocity=80 time=0
EXTRACT: note_on channel=13 note=68 velocity=115 time=0
EXTRACT: note_on channel=13 note=56 velocity=115 time=0
EXTRACT: note_on channel=14 note=92 velocity=115 time=0
EXTRACT: note_on channel=15 note=71 velocity=90 time=0
EXTRACT: note_off channel=9 note=76 velocity=0 time=0.027173875
EXTRACT: note_off channel=13 note=58 velocity=0 time=0
EXTRACT: note_off channel=13 note=70 velocity=0 time=0
EXTRACT: note_off channel=14 note=94 velocity=0 time=0
EXTRACT: note_off channel=4 note=61 velocity=0 time=0.027173875
EXTRACT: note_off channel=4 note=66 velocity=0 time=0
EXTRACT: note_off channel=9 note=42 velocity=0 time=0
EXTRACT: note_off channel=9 note=36 velocity=64 time=0
EXTRACT: note_off channel=9 note=36 velocity=64 time=0
EXTRACT: note_off channel=9 note=36 velocity=64 time=0
EXTRACT: note_off channel=9 note=36 velocity=64 time=0
EXTRACT: note_off channel=15 note=71 velocity=0 time=0.022644895833333335
EXTRACT: note_off channel=13 note=68 velocity=0 time=0.0135869375
EXTRACT: note_off channel=13 note=56 velocity=0 time=0
EXTRACT: note_off channel=14 note=92 velocity=0 time=0
EXTRACT: note_off channel=8 note=54 velocity=0 time=0.01811591666666667
EXTRACT: note_on channel=1 note=42 velocity=110 time=0.1086955
EXTRACT: note_on channel=1 note=54 velocity=110 time=0
EXTRACT: note_on channel=8 note=66 velocity=127 time=0
EXTRACT: note_on channel=9 note=36 velocity=127 time=0
EXTRACT: note_on channel=9 note=36 velocity=127 time=0
EXTRACT: note_on channel=9 note=36 velocity=127 time=0
EXTRACT: note_on channel=9 note=36 velocity=127 time=0
EXTRACT: note_on channel=9 note=46 velocity=127 time=0
EXTRACT: note_on channel=13 note=68 velocity=115 time=0
EXTRACT: note_on channel=13 note=56 velocity=115 time=0
EXTRACT: note_on channel=14 note=92 velocity=115 time=0
EXTRACT: note_on channel=15 note=71 velocity=90 time=0
EXTRACT: note_on channel=0 note=54 velocity=120 time=0
EXTRACT: note_off channel=9 note=46 velocity=0 time=0.05434775
EXTRACT: note_off channel=9 note=36 velocity=64 time=0
EXTRACT: note_off channel=9 note=36 velocity=64 time=0
EXTRACT: note_off channel=9 note=36 velocity=64 time=0
EXTRACT: note_off channel=9 note=36 velocity=64 time=0
EXTRACT: note_off channel=15 note=71 velocity=0 time=0.027173875
EXTRACT: note_off channel=8 note=66 velocity=0 time=0.027173875
EXTRACT: note_off channel=13 note=56 velocity=0 time=0.0135869375
EXTRACT: note_off channel=13 note=68 velocity=0 time=0
EXTRACT: note_off channel=14 note=92 velocity=0 time=0
EXTRACT: note_off channel=3 note=68 velocity=0 time=0.01811591666666667
EXTRACT: note_off channel=1 note=54 velocity=0 time=0.022644895833333335
EXTRACT: note_off channel=1 note=42 velocity=0 time=0
EXTRACT: note_off channel=0 note=54 velocity=0 time=0
EXTRACT: note_off channel=9 note=28 velocity=0 time=0.0407608125
EXTRACT: note_on channel=2 note=102 velocity=50 time=0.0135869375
EXTRACT: note_on channel=2 note=90 velocity=40 time=0
EXTRACT: note_on channel=3 note=66 velocity=127 time=0
EXTRACT: note_on channel=4 note=66 velocity=105 time=0
EXTRACT: note_on channel=4 note=61 velocity=105 time=0
EXTRACT: note_on channel=8 note=54 velocity=127 time=0
EXTRACT: note_on channel=9 note=36 velocity=127 time=0
EXTRACT: note_on channel=9 note=36 velocity=127 time=0
EXTRACT: note_on channel=9 note=36 velocity=127 time=0
EXTRACT: note_on channel=9 note=36 velocity=127 time=0
EXTRACT: note_on channel=9 note=42 velocity=127 time=0
EXTRACT: note_on channel=9 note=49 velocity=85 time=0
EXTRACT: note_on channel=13 note=66 velocity=115 time=0
EXTRACT: note_on channel=13 note=54 velocity=115 time=0
EXTRACT: note_on channel=14 note=90 velocity=115 time=0
EXTRACT: note_on channel=15 note=70 velocity=90 time=0
EXTRACT: note_off channel=9 note=49 velocity=0 time=0.027173875
EXTRACT: note_off channel=4 note=61 velocity=0 time=0.027173875
EXTRACT: note_off channel=4 note=66 velocity=0 time=0
EXTRACT: note_off channel=9 note=42 velocity=0 time=0
EXTRACT: note_off channel=9 note=36 velocity=64 time=0
EXTRACT: note_off channel=9 note=36 velocity=64 time=0
EXTRACT: note_off channel=9 note=36 velocity=64 time=0
EXTRACT: note_off channel=9 note=36 velocity=64 time=0
EXTRACT: note_off channel=8 note=54 velocity=0 time=0.05434775
EXTRACT: note_off channel=15 note=70 velocity=0 time=0.01811591666666667
EXTRACT: note_on channel=1 note=42 velocity=110 time=0.09057958333333334
EXTRACT: note_on channel=1 note=54 velocity=110 time=0
EXTRACT: note_on channel=4 note=66 velocity=105 time=0
EXTRACT: note_on channel=4 note=61 velocity=105 time=0
EXTRACT: note_on channel=8 note=66 velocity=127 time=0
EXTRACT: note_on channel=9 note=46 velocity=127 time=0
EXTRACT: note_on channel=0 note=54 velocity=120 time=0
EXTRACT: note_off channel=4 note=61 velocity=0 time=0.05434775
EXTRACT: note_off channel=4 note=66 velocity=0 time=0
EXTRACT: note_off channel=9 note=46 velocity=0 time=0
EXTRACT: note_off channel=13 note=54 velocity=0 time=0
EXTRACT: note_off channel=13 note=66 velocity=0 time=0
EXTRACT: note_off channel=14 note=90 velocity=0 time=0.01811591666666667
EXTRACT: note_off channel=8 note=66 velocity=0 time=0.03623183333333334
EXTRACT: note_on channel=13 note=61 velocity=115 time=0
EXTRACT: note_on channel=13 note=49 velocity=115 time=0
EXTRACT: note_on channel=14 note=85 velocity=115 time=0
EXTRACT: note_on channel=15 note=66 velocity=90 time=0
EXTRACT: note_off channel=3 note=66 velocity=0 time=0.027173875
EXTRACT: note_off channel=1 note=54 velocity=0 time=0.027173875
EXTRACT: note_off channel=1 note=42 velocity=0 time=0
EXTRACT: note_off channel=0 note=54 velocity=0 time=0
EXTRACT: note_off channel=15 note=66 velocity=0 time=0.0407608125
EXTRACT: note_on channel=4 note=66 velocity=105 time=0.0135869375
EXTRACT: note_on channel=4 note=61 velocity=105 time=0
EXTRACT: note_on channel=8 note=54 velocity=127 time=0
EXTRACT: note_on channel=9 note=36 velocity=127 time=0
EXTRACT: note_on channel=9 note=36 velocity=127 time=0
EXTRACT: note_on channel=9 note=36 velocity=127 time=0
EXTRACT: note_on channel=9 note=36 velocity=127 time=0
EXTRACT: note_on channel=9 note=28 velocity=127 time=0
EXTRACT: note_on channel=9 note=42 velocity=127 time=0
EXTRACT: note_on channel=9 note=76 velocity=80 time=0
EXTRACT: note_off channel=13 note=49 velocity=0 time=0
EXTRACT: note_off channel=13 note=61 velocity=0 time=0
EXTRACT: note_off channel=14 note=85 velocity=0 time=0
EXTRACT: note_off channel=9 note=76 velocity=0 time=0.027173875
EXTRACT: note_off channel=4 note=61 velocity=0 time=0.027173875
EXTRACT: note_off channel=4 note=66 velocity=0 time=0
EXTRACT: note_off channel=9 note=42 velocity=0 time=0
EXTRACT: note_off channel=9 note=36 velocity=64 time=0
EXTRACT: note_off channel=9 note=36 velocity=64 time=0
EXTRACT: note_off channel=9 note=36 velocity=64 time=0
EXTRACT: note_off channel=9 note=36 velocity=64 time=0
EXTRACT: note_off channel=8 note=54 velocity=0 time=0.05434775
EXTRACT: note_on channel=1 note=42 velocity=110 time=0.1086955
EXTRACT: note_on channel=1 note=54 velocity=110 time=0
EXTRACT: note_on channel=3 note=61 velocity=127 time=0
EXTRACT: note_on channel=8 note=66 velocity=127 time=0
EXTRACT: note_on channel=9 note=46 velocity=127 time=0
EXTRACT: note_on channel=9 note=76 velocity=80 time=0
EXTRACT: note_on channel=13 note=61 velocity=115 time=0
EXTRACT: note_on channel=13 note=49 velocity=115 time=0
EXTRACT: note_on channel=14 note=85 velocity=115 time=0
EXTRACT: note_on channel=15 note=66 velocity=90 time=0
EXTRACT: note_on channel=0 note=54 velocity=120 time=0
EXTRACT: note_off channel=9 note=76 velocity=0 time=0.027173875
EXTRACT: note_off channel=9 note=46 velocity=0 time=0.027173875
EXTRACT: note_off channel=15 note=66 velocity=0 time=0.01811591666666667
EXTRACT: note_off channel=8 note=66 velocity=0 time=0.01811591666666667
EXTRACT: note_off channel=3 note=61 velocity=0 time=0.0135869375
EXTRACT: note_on channel=4 note=66 velocity=105 time=0.004528979166666667
EXTRACT: note_on channel=4 note=61 velocity=105 time=0
EXTRACT: note_on channel=8 note=66 velocity=127 time=0
EXTRACT: note_off channel=1 note=54 velocity=0 time=0.05434775
EXTRACT: note_off channel=1 note=42 velocity=0 time=0
EXTRACT: note_off channel=4 note=61 velocity=0 time=0
EXTRACT: note_off channel=4 note=66 velocity=0 time=0
EXTRACT: note_off channel=13 note=49 velocity=0 time=0
EXTRACT: note_off channel=13 note=61 velocity=0 time=0
EXTRACT: note_off channel=14 note=85 velocity=0 time=0
EXTRACT: note_off channel=0 note=54 velocity=0 time=0
EXTRACT: note_off channel=9 note=28 velocity=0 time=0.0407608125
EXTRACT: note_on channel=3 note=61 velocity=127 time=0.0135869375
EXTRACT: note_on channel=4 note=61 velocity=105 time=0
EXTRACT: note_on channel=4 note=56 velocity=105 time=0
EXTRACT: note_off channel=8 note=66 velocity=0 time=0
EXTRACT: note_on channel=8 note=49 velocity=127 time=0
EXTRACT: note_on channel=9 note=36 velocity=127 time=0
EXTRACT: note_on channel=9 note=36 velocity=127 time=0
EXTRACT: note_on channel=9 note=36 velocity=127 time=0
EXTRACT: note_on channel=9 note=36 velocity=127 time=0
EXTRACT: note_on channel=9 note=42 velocity=127 time=0
EXTRACT: note_on channel=13 note=61 velocity=115 time=0
EXTRACT: note_on channel=13 note=49 velocity=115 time=0
EXTRACT: note_on channel=14 note=85 velocity=115 time=0
EXTRACT: note_on channel=15 note=66 velocity=90 time=0
EXTRACT: note_off channel=4 note=56 velocity=0 time=0.05434775
EXTRACT: note_off channel=4 note=61 velocity=0 time=0
EXTRACT: note_off channel=9 note=42 velocity=0 time=0
EXTRACT: note_off channel=9 note=36 velocity=64 time=0
EXTRACT: note_off channel=9 note=36 velocity=64 time=0
EXTRACT: note_off channel=9 note=36 velocity=64 time=0
EXTRACT: note_off channel=9 note=36 velocity=64 time=0
EXTRACT: note_off channel=15 note=66 velocity=0 time=0.022644895833333335
EXTRACT: note_off channel=13 note=49 velocity=0 time=0.009057958333333335
EXTRACT: note_off channel=13 note=61 velocity=0 time=0
EXTRACT: note_off channel=14 note=85 velocity=0 time=0
EXTRACT: note_off channel=3 note=61 velocity=0 time=0.0135869375
EXTRACT: note_off channel=8 note=49 velocity=0 time=0.009057958333333335
EXTRACT: note_on channel=1 note=37 velocity=110 time=0.1086955
EXTRACT: note_on channel=1 note=49 velocity=110 time=0
EXTRACT: note_on channel=3 note=61 velocity=127 time=0
EXTRACT: note_on channel=4 note=61 velocity=105 time=0
EXTRACT: note_on channel=4 note=56 velocity=105 time=0
EXTRACT: note_on channel=8 note=61 velocity=127 time=0
EXTRACT: note_on channel=9 note=46 velocity=127 time=0
EXTRACT: note_on channel=13 note=61 velocity=115 time=0
EXTRACT: note_on channel=13 note=49 velocity=115 time=0
EXTRACT: note_on channel=14 note=85 velocity=115 time=0
EXTRACT: note_on channel=15 note=66 velocity=90 time=0
EXTRACT: note_on channel=0 note=49 velocity=120 time=0
EXTRACT: note_off channel=4 note=56 velocity=0 time=0.05434775
EXTRACT: note_off channel=4 note=61 velocity=0 time=0
EXTRACT: note_off channel=9 note=46 velocity=0 time=0
EXTRACT: note_off channel=13 note=49 velocity=0 time=0.022644895833333335
EXTRACT: note_off channel=13 note=61 velocity=0 time=0
EXTRACT: note_off channel=14 note=85 velocity=0 time=0
EXTRACT: note_off channel=15 note=66 velocity=0 time=0
EXTRACT: note_off channel=8 note=61 velocity=0 time=0.03170285416666667
EXTRACT: note_on channel=9 note=36 velocity=127 time=0
EXTRACT: note_on channel=9 note=36 velocity=127 time=0
EXTRACT: note_on channel=9 note=36 velocity=127 time=0
EXTRACT: note_on channel=9 note=36 velocity=127 time=0
EXTRACT: note_off channel=3 note=61 velocity=0 time=0.009057958333333335
EXTRACT: note_off channel=1 note=49 velocity=0 time=0.04528979166666667
EXTRACT: note_off channel=1 note=37 velocity=0 time=0
EXTRACT: note_off channel=9 note=36 velocity=64 time=0
EXTRACT: note_off channel=9 note=36 velocity=64 time=0
EXTRACT: note_off channel=9 note=36 velocity=64 time=0
EXTRACT: note_off channel=9 note=36 velocity=64 time=0
EXTRACT: note_off channel=0 note=49 velocity=0 time=0
EXTRACT: note_on channel=3 note=68 velocity=127 time=0.05434775
EXTRACT: note_on channel=4 note=61 velocity=105 time=0
EXTRACT: note_on channel=4 note=56 velocity=105 time=0
EXTRACT: note_on channel=8 note=49 velocity=127 time=0
EXTRACT: note_on channel=9 note=36 velocity=127 time=0
EXTRACT: note_on channel=9 note=36 velocity=127 time=0
EXTRACT: note_on channel=9 note=36 velocity=127 time=0
EXTRACT: note_on channel=9 note=36 velocity=127 time=0
EXTRACT: note_on channel=9 note=28 velocity=127 time=0
EXTRACT: note_on channel=9 note=42 velocity=127 time=0
EXTRACT: note_on channel=9 note=76 velocity=80 time=0
EXTRACT: note_on channel=13 note=68 velocity=115 time=0
EXTRACT: note_on channel=13 note=56 velocity=115 time=0
EXTRACT: note_on channel=14 note=92 velocity=115 time=0
EXTRACT: note_on channel=15 note=71 velocity=90 time=0
EXTRACT: note_off channel=9 note=76 velocity=0 time=0.027173875
EXTRACT: note_off channel=4 note=56 velocity=0 time=0.027173875
EXTRACT: note_off channel=4 note=61 velocity=0 time=0
EXTRACT: note_off channel=9 note=42 velocity=0 time=0
EXTRACT: note_off channel=9 note=36 velocity=64 time=0
EXTRACT: note_off channel=9 note=36 velocity=64 time=0
EXTRACT: note_off channel=9 note=36 velocity=64 time=0
EXTRACT: note_off channel=9 note=36 velocity=64 time=0
EXTRACT: note_off channel=13 note=56 velocity=0 time=0.0135869375
EXTRACT: note_off channel=13 note=68 velocity=0 time=0
EXTRACT: note_off channel=14 note=92 velocity=0 time=0
EXTRACT: note_off channel=15 note=71 velocity=0 time=0.027173875
EXTRACT: note_off channel=3 note=68 velocity=0 time=0.004528979166666667
EXTRACT: note_off channel=8 note=49 velocity=0 time=0.009057958333333335
EXTRACT: note_on channel=1 note=37 velocity=110 time=0.1086955
EXTRACT: note_on channel=1 note=49 velocity=110 time=0
EXTRACT: note_on channel=3 note=68 velocity=127 time=0
EXTRACT: note_on channel=8 note=61 velocity=127 time=0
EXTRACT: note_on channel=9 note=36 velocity=127 time=0
EXTRACT: note_on channel=9 note=36 velocity=127 time=0
EXTRACT: note_on channel=9 note=36 velocity=127 time=0
EXTRACT: note_on channel=9 note=36 velocity=127 time=0
EXTRACT: note_on channel=9 note=46 velocity=127 time=0
EXTRACT: note_on channel=13 note=68 velocity=115 time=0
EXTRACT: note_on channel=13 note=56 velocity=115 time=0
EXTRACT: note_on channel=14 note=92 velocity=115 time=0
EXTRACT: note_on channel=15 note=71 velocity=90 time=0
EXTRACT: note_on channel=0 note=49 velocity=120 time=0
EXTRACT: note_off channel=9 note=46 velocity=0 time=0.05434775
EXTRACT: note_off channel=9 note=36 velocity=64 time=0
EXTRACT: note_off channel=9 note=36 velocity=64 time=0
EXTRACT: note_off channel=9 note=36 velocity=64 time=0
EXTRACT: note_off channel=9 note=36 velocity=64 time=0
EXTRACT: note_off channel=13 note=56 velocity=0 time=0.027173875
EXTRACT: note_off channel=13 note=68 velocity=0 time=0
EXTRACT: note_off channel=15 note=71 velocity=0 time=0.0135869375
EXTRACT: note_off channel=14 note=92 velocity=0 time=0.009057958333333335
EXTRACT: note_off channel=8 note=61 velocity=0 time=0.004528979166666667
EXTRACT: note_off channel=3 note=68 velocity=0 time=0.009057958333333335
EXTRACT: note_off channel=1 note=49 velocity=0 time=0.04528979166666667
EXTRACT: note_off channel=1 note=37 velocity=0 time=0
EXTRACT: note_off channel=0 note=49 velocity=0 time=0
EXTRACT: note_off channel=9 note=28 velocity=0 time=0.0407608125
EXTRACT: note_on channel=3 note=66 velocity=127 time=0.0135869375
EXTRACT: note_on channel=4 note=63 velocity=105 time=0
EXTRACT: note_on channel=4 note=58 velocity=105 time=0
EXTRACT: note_on channel=8 note=51 velocity=127 time=0
EXTRACT: note_on channel=9 note=36 velocity=127 time=0
EXTRACT: note_on channel=9 note=36 velocity=127 time=0
EXTRACT: note_on channel=9 note=36 velocity=127 time=0
EXTRACT: note_on channel=9 note=36 velocity=127 time=0
EXTRACT: note_on channel=9 note=42 velocity=127 time=0
EXTRACT: note_on channel=9 note=49 velocity=85 time=0
EXTRACT: note_on channel=13 note=66 velocity=115 time=0
EXTRACT: note_on channel=13 note=54 velocity=115 time=0
EXTRACT: note_on channel=14 note=90 velocity=115 time=0
EXTRACT: note_on channel=15 note=70 velocity=90 time=0
EXTRACT: note_off channel=9 note=49 velocity=0 time=0.027173875
EXTRACT: note_off channel=4 note=58 velocity=0 time=0.027173875
EXTRACT: note_off channel=4 note=63 velocity=0 time=0
EXTRACT: note_off channel=9 note=42 velocity=0 time=0
EXTRACT: note_off channel=9 note=36 velocity=64 time=0
EXTRACT: note_off channel=9 note=36 velocity=64 time=0
EXTRACT: note_off channel=9 note=36 velocity=64 time=0
EXTRACT: note_off channel=9 note=36 velocity=64 time=0
EXTRACT: note_off channel=15 note=70 velocity=0 time=0.03170285416666667
EXTRACT: note_off channel=8 note=51 velocity=0 time=0.022644895833333335
EXTRACT: note_on channel=1 note=39 velocity=110 time=0.1086955
EXTRACT: note_on channel=1 note=51 velocity=110 time=0
EXTRACT: note_on channel=4 note=63 velocity=105 time=0
EXTRACT: note_on channel=4 note=58 velocity=105 time=0
EXTRACT: note_on channel=8 note=63 velocity=127 time=0
EXTRACT: note_on channel=9 note=46 velocity=127 time=0
EXTRACT: note_on channel=0 note=51 velocity=120 time=0
EXTRACT: note_off channel=4 note=58 velocity=0 time=0.05434775
EXTRACT: note_off channel=4 note=63 velocity=0 time=0
EXTRACT: note_off channel=9 note=46 velocity=0 time=0
EXTRACT: note_off channel=13 note=54 velocity=0 time=0.0135869375
EXTRACT: note_off channel=13 note=66 velocity=0 time=0
EXTRACT: note_off channel=14 note=90 velocity=0 time=0
EXTRACT: note_off channel=3 note=66 velocity=0 time=0.03623183333333334
EXTRACT: note_off channel=8 note=63 velocity=0 time=0.004528979166666667
EXTRACT: note_on channel=13 note=63 velocity=115 time=0
EXTRACT: note_on channel=13 note=51 velocity=115 time=0
EXTRACT: note_on channel=14 note=87 velocity=115 time=0
EXTRACT: note_on channel=15 note=66 velocity=90 time=0
EXTRACT: note_off channel=1 note=51 velocity=0 time=0.05434775
EXTRACT: note_off channel=1 note=39 velocity=0 time=0
EXTRACT: note_off channel=0 note=51 velocity=0 time=0
EXTRACT: note_off channel=15 note=66 velocity=0 time=0.004528979166666667
EXTRACT: note_on channel=4 note=63 velocity=105 time=0.04981877083333334
EXTRACT: note_on channel=4 note=58 velocity=105 time=0
EXTRACT: note_on channel=8 note=51 velocity=127 time=0
EXTRACT: note_on channel=9 note=36 velocity=127 time=0
EXTRACT: note_on channel=9 note=36 velocity=127 time=0
EXTRACT: note_on channel=9 note=36 velocity=127 time=0
EXTRACT: note_on channel=9 note=36 velocity=127 time=0
EXTRACT: note_on channel=9 note=28 velocity=127 time=0
EXTRACT: note_on channel=9 note=42 velocity=127 time=0
EXTRACT: note_on channel=9 note=76 velocity=80 time=0
EXTRACT: note_off channel=13 note=51 velocity=0 time=0.009057958333333335
EXTRACT: note_off channel=13 note=63 velocity=0 time=0
EXTRACT: note_off channel=14 note=87 velocity=0 time=0
EXTRACT: note_off channel=9 note=76 velocity=0 time=0.01811591666666667
EXTRACT: note_off channel=4 note=58 velocity=0 time=0.027173875
EXTRACT: note_off channel=4 note=63 velocity=0 time=0
EXTRACT: note_off channel=9 note=42 velocity=0 time=0
EXTRACT: note_off channel=9 note=36 velocity=64 time=0
EXTRACT: note_off channel=9 note=36 velocity=64 time=0
EXTRACT: note_off channel=9 note=36 velocity=64 time=0
EXTRACT: note_off channel=9 note=36 velocity=64 time=0
EXTRACT: note_off channel=8 note=51 velocity=0 time=0.05434775
EXTRACT: note_on channel=1 note=39 velocity=110 time=0.1086955
EXTRACT: note_on channel=1 note=51 velocity=110 time=0
EXTRACT: note_on channel=3 note=63 velocity=127 time=0
EXTRACT: note_on channel=8 note=63 velocity=127 time=0
EXTRACT: note_on channel=9 note=46 velocity=127 time=0
EXTRACT: note_on channel=9 note=76 velocity=80 time=0
EXTRACT: note_on channel=13 note=63 velocity=115 time=0
EXTRACT: note_on channel=13 note=51 velocity=115 time=0
EXTRACT: note_on channel=14 note=87 velocity=115 time=0
EXTRACT: note_on channel=15 note=66 velocity=90 time=0
EXTRACT: note_on channel=0 note=51 velocity=120 time=0
EXTRACT: note_off channel=9 note=76 velocity=0 time=0.027173875
EXTRACT: note_off channel=15 note=66 velocity=0 time=0.01811591666666667
EXTRACT: note_off channel=13 note=51 velocity=0 time=0.004528979166666667
EXTRACT: note_off channel=13 note=63 velocity=0 time=0
EXTRACT: note_off channel=14 note=87 velocity=0 time=0
EXTRACT: note_off channel=9 note=46 velocity=0 time=0.004528979166666667
EXTRACT: note_off channel=8 note=63 velocity=0 time=0.03623183333333334
EXTRACT: note_off channel=3 note=63 velocity=0 time=0.004528979166666667
EXTRACT: note_on channel=4 note=63 velocity=105 time=0.0135869375
EXTRACT: note_on channel=4 note=58 velocity=105 time=0
EXTRACT: note_on channel=7 note=80 velocity=100 time=0
EXTRACT: note_on channel=8 note=63 velocity=127 time=0
EXTRACT: note_on channel=13 note=63 velocity=115 time=0
EXTRACT: note_on channel=13 note=51 velocity=115 time=0
EXTRACT: note_on channel=14 note=87 velocity=115 time=0
EXTRACT: note_on channel=15 note=66 velocity=90 time=0
EXTRACT: note_off channel=1 note=51 velocity=0 time=0.05434775
EXTRACT: note_off channel=1 note=39 velocity=0 time=0
EXTRACT: note_off channel=4 note=58 velocity=0 time=0
EXTRACT: note_off channel=4 note=63 velocity=0 time=0
EXTRACT: note_off channel=0 note=51 velocity=0 time=0
EXTRACT: note_off channel=13 note=51 velocity=0 time=0.004528979166666667
EXTRACT: note_off channel=13 note=63 velocity=0 time=0
EXTRACT: note_off channel=14 note=87 velocity=0 time=0
EXTRACT: note_off channel=15 note=66 velocity=0 time=0
EXTRACT: note_off channel=9 note=28 velocity=0 time=0.03623183333333334
EXTRACT: note_on channel=3 note=63 velocity=127 time=0.0135869375
EXTRACT: note_on channel=4 note=63 velocity=105 time=0
EXTRACT: note_on channel=4 note=58 velocity=105 time=0
EXTRACT: note_off channel=8 note=63 velocity=0 time=0
EXTRACT: note_on channel=8 note=51 velocity=127 time=0
EXTRACT: note_on channel=9 note=36 velocity=127 time=0
EXTRACT: note_on channel=9 note=36 velocity=127 time=0
EXTRACT: note_on channel=9 note=36 velocity=127 time=0
EXTRACT: note_on channel=9 note=36 velocity=127 time=0
EXTRACT: note_on channel=9 note=42 velocity=127 time=0
EXTRACT: note_on channel=13 note=63 velocity=115 time=0
EXTRACT: note_on channel=13 note=51 velocity=115 time=0
EXTRACT: note_on channel=14 note=87 velocity=115 time=0
EXTRACT: note_on channel=15 note=66 velocity=90 time=0
EXTRACT: note_off channel=4 note=58 velocity=0 time=0.05434775
EXTRACT: note_off channel=4 note=63 velocity=0 time=0
EXTRACT: note_off channel=9 note=42 velocity=0 time=0
EXTRACT: note_off channel=9 note=36 velocity=64 time=0
EXTRACT: note_off channel=9 note=36 velocity=64 time=0
EXTRACT: note_off channel=9 note=36 velocity=64 time=0
EXTRACT: note_off channel=9 note=36 velocity=64 time=0
EXTRACT: note_off channel=13 note=51 velocity=0 time=0.022644895833333335
EXTRACT: note_off channel=13 note=63 velocity=0 time=0
EXTRACT: note_off channel=14 note=87 velocity=0 time=0
EXTRACT: note_off channel=15 note=66 velocity=0 time=0
EXTRACT: note_off channel=3 note=63 velocity=0 time=0.009057958333333335
EXTRACT: note_off channel=8 note=51 velocity=0 time=0.022644895833333335
EXTRACT: note_on channel=1 note=39 velocity=110 time=0.1086955
EXTRACT: note_on channel=1 note=51 velocity=110 time=0
EXTRACT: note_on channel=3 note=63 velocity=127 time=0
EXTRACT: note_on channel=4 note=63 velocity=105 time=0
EXTRACT: note_on channel=4 note=58 velocity=105 time=0
EXTRACT: note_on channel=8 note=63 velocity=127 time=0
EXTRACT: note_on channel=9 note=46 velocity=127 time=0
EXTRACT: note_on channel=13 note=63 velocity=115 time=0
EXTRACT: note_on channel=13 note=51 velocity=115 time=0
EXTRACT: note_on channel=14 note=87 velocity=115 time=0
EXTRACT: note_on channel=15 note=66 velocity=90 time=0
EXTRACT: note_on channel=0 note=51 velocity=120 time=0
EXTRACT: note_off channel=4 note=58 velocity=0 time=0.05434775
EXTRACT: note_off channel=4 note=63 velocity=0 time=0
EXTRACT: note_off channel=9 note=46 velocity=0 time=0
EXTRACT: note_off channel=15 note=66 velocity=0 time=0.027173875
EXTRACT: note_off channel=13 note=51 velocity=0 time=0.004528979166666667
EXTRACT: note_off channel=13 note=63 velocity=0 time=0
EXTRACT: note_off channel=14 note=87 velocity=0 time=0
EXTRACT: note_off channel=3 note=63 velocity=0 time=0.01811591666666667
EXTRACT: note_off channel=8 note=63 velocity=0 time=0.004528979166666667
EXTRACT: note_on channel=9 note=36 velocity=127 time=0
EXTRACT: note_on channel=9 note=36 velocity=127 time=0
EXTRACT: note_on channel=9 note=36 velocity=127 time=0
EXTRACT: note_on channel=9 note=36 velocity=127 time=0
EXTRACT: note_off channel=1 note=51 velocity=0 time=0.05434775
EXTRACT: note_off channel=1 note=39 velocity=0 time=0
EXTRACT: note_off channel=9 note=36 velocity=64 time=0
EXTRACT: note_off channel=9 note=36 velocity=64 time=0
EXTRACT: note_off channel=9 note=36 velocity=64 time=0
EXTRACT: note_off channel=9 note=36 velocity=64 time=0
EXTRACT: note_off channel=0 note=51 velocity=0 time=0
EXTRACT: note_on channel=3 note=66 velocity=127 time=0.05434775
EXTRACT: note_on channel=4 note=63 velocity=105 time=0
EXTRACT: note_on channel=4 note=58 velocity=105 time=0
EXTRACT: note_on channel=8 note=51 velocity=127 time=0
EXTRACT: note_on channel=9 note=36 velocity=127 time=0
EXTRACT: note_on channel=9 note=36 velocity=127 time=0
EXTRACT: note_on channel=9 note=36 velocity=127 time=0
EXTRACT: note_on channel=9 note=36 velocity=127 time=0
EXTRACT: note_on channel=9 note=28 velocity=127 time=0
EXTRACT: note_on channel=9 note=42 velocity=127 time=0
EXTRACT: note_on channel=9 note=76 velocity=80 time=0
EXTRACT: note_on channel=13 note=66 velocity=115 time=0
EXTRACT: note_on channel=13 note=54 velocity=115 time=0
EXTRACT: note_on channel=14 note=90 velocity=115 time=0
EXTRACT: note_on channel=15 note=70 velocity=90 time=0
EXTRACT: note_off channel=9 note=76 velocity=0 time=0.027173875
EXTRACT: note_off channel=4 note=58 velocity=0 time=0.027173875
EXTRACT: note_off channel=4 note=63 velocity=0 time=0
EXTRACT: note_off channel=9 note=42 velocity=0 time=0
EXTRACT: note_off channel=9 note=36 velocity=64 time=0
EXTRACT: note_off channel=9 note=36 velocity=64 time=0
EXTRACT: note_off channel=9 note=36 velocity=64 time=0
EXTRACT: note_off channel=9 note=36 velocity=64 time=0
EXTRACT: note_off channel=13 note=54 velocity=0 time=0.01811591666666667
EXTRACT: note_off channel=13 note=66 velocity=0 time=0
EXTRACT: note_off channel=14 note=90 velocity=0 time=0
EXTRACT: note_off channel=15 note=70 velocity=0 time=0.0135869375
EXTRACT: note_off channel=8 note=51 velocity=0 time=0.022644895833333335
EXTRACT: note_off channel=3 note=66 velocity=0 time=0.0135869375
EXTRACT: note_on channel=1 note=39 velocity=110 time=0.09510856250000001
EXTRACT: note_on channel=1 note=51 velocity=110 time=0
EXTRACT: note_on channel=3 note=68 velocity=127 time=0
EXTRACT: note_on channel=8 note=63 velocity=127 time=0
EXTRACT: note_on channel=9 note=36 velocity=127 time=0
EXTRACT: note_on channel=9 note=36 velocity=127 time=0
EXTRACT: note_on channel=9 note=36 velocity=127 time=0
EXTRACT: note_on channel=9 note=36 velocity=127 time=0
EXTRACT: note_on channel=9 note=46 velocity=127 time=0
EXTRACT: note_on channel=13 note=68 velocity=115 time=0
EXTRACT: note_on channel=13 note=56 velocity=115 time=0
EXTRACT: note_on channel=14 note=92 velocity=115 time=0
EXTRACT: note_on channel=15 note=71 velocity=90 time=0
EXTRACT: note_on channel=0 note=51 velocity=120 time=0
EXTRACT: note_off channel=9 note=46 velocity=0 time=0.05434775
EXTRACT: note_off channel=9 note=36 velocity=64 time=0
EXTRACT: note_off channel=9 note=36 velocity=64 time=0
EXTRACT: note_off channel=9 note=36 velocity=64 time=0
EXTRACT: note_off channel=9 note=36 velocity=64 time=0
EXTRACT: note_off channel=13 note=56 velocity=0 time=0.01811591666666667
EXTRACT: note_off channel=13 note=68 velocity=0 time=0
EXTRACT: note_off channel=14 note=92 velocity=0 time=0
EXTRACT: note_off channel=15 note=71 velocity=0 time=0.03170285416666667
EXTRACT: note_off channel=8 note=63 velocity=0 time=0.004528979166666667
EXTRACT: note_off channel=3 note=68 velocity=0 time=0.01811591666666667
EXTRACT: note_off channel=1 note=51 velocity=0 time=0.03623183333333334
EXTRACT: note_off channel=1 note=39 velocity=0 time=0
EXTRACT: note_off channel=0 note=51 velocity=0 time=0
EXTRACT: note_off channel=9 note=28 velocity=0 time=0.0407608125
EXTRACT: note_on channel=3 note=70 velocity=127 time=0.0135869375
EXTRACT: note_on channel=4 note=59 velocity=105 time=0
EXTRACT: note_on channel=4 note=54 velocity=105 time=0
EXTRACT: note_on channel=8 note=47 velocity=127 time=0
EXTRACT: note_on channel=9 note=36 velocity=127 time=0
EXTRACT: note_on channel=9 note=36 velocity=127 time=0
EXTRACT: note_on channel=9 note=36 velocity=127 time=0
EXTRACT: note_on channel=9 note=36 velocity=127 time=0
EXTRACT: note_on channel=9 note=42 velocity=127 time=0
EXTRACT: note_on channel=9 note=49 velocity=85 time=0
EXTRACT: note_on channel=13 note=70 velocity=115 time=0
EXTRACT: note_on channel=13 note=58 velocity=115 time=0
EXTRACT: note_on channel=14 note=94 velocity=115 time=0
EXTRACT: note_on channel=15 note=73 velocity=99 time=0
EXTRACT: note_off channel=4 note=54 velocity=0 time=0.05434775
EXTRACT: note_off channel=4 note=59 velocity=0 time=0
EXTRACT: note_off channel=9 note=42 velocity=0 time=0
EXTRACT: note_off channel=9 note=36 velocity=64 time=0
EXTRACT: note_off channel=9 note=36 velocity=64 time=0
EXTRACT: note_off channel=9 note=36 velocity=64 time=0
EXTRACT: note_off channel=9 note=36 velocity=64 time=0
EXTRACT: note_off channel=9 note=49 velocity=0 time=0.03170285416666667
EXTRACT: note_off channel=8 note=47 velocity=0 time=0.022644895833333335
EXTRACT: note_on channel=1 note=35 velocity=110 time=0.1086955
EXTRACT: note_on channel=1 note=47 velocity=110 time=0
EXTRACT: note_on channel=4 note=59 velocity=105 time=0
EXTRACT: note_on channel=4 note=54 velocity=105 time=0
EXTRACT: note_on channel=8 note=59 velocity=127 time=0
EXTRACT: note_on channel=9 note=46 velocity=127 time=0
EXTRACT: note_on channel=0 note=47 velocity=120 time=0
EXTRACT: note_off channel=4 note=54 velocity=0 time=0.05434775
EXTRACT: note_off channel=4 note=59 velocity=0 time=0
EXTRACT: note_off channel=9 note=46 velocity=0 time=0
EXTRACT: note_off channel=3 note=70 velocity=0 time=0.004528979166666667
EXTRACT: note_off channel=13 note=58 velocity=0 time=0.004528979166666667
EXTRACT: note_off channel=13 note=70 velocity=0 time=0
EXTRACT: note_off channel=14 note=94 velocity=0 time=0
EXTRACT: note_off channel=15 note=73 velocity=0 time=0.01811591666666667
EXTRACT: note_on channel=3 note=66 velocity=127 time=0.027173875
EXTRACT: note_off channel=8 note=59 velocity=0 time=0
EXTRACT: note_on channel=13 note=66 velocity=115 time=0
EXTRACT: note_on channel=13 note=54 velocity=115 time=0
EXTRACT: note_on channel=14 note=90 velocity=115 time=0
EXTRACT: note_on channel=15 note=70 velocity=106 time=0
EXTRACT: note_off channel=1 note=47 velocity=0 time=0.05434775
EXTRACT: note_off channel=1 note=35 velocity=0 time=0
EXTRACT: note_off channel=0 note=47 velocity=0 time=0
EXTRACT: note_off channel=13 note=54 velocity=0 time=0.04528979166666667
EXTRACT: note_off channel=13 note=66 velocity=0 time=0
EXTRACT: note_off channel=14 note=90 velocity=0 time=0
EXTRACT: note_on channel=4 note=59 velocity=105 time=0.009057958333333335
EXTRACT: note_on channel=4 note=54 velocity=105 time=0
EXTRACT: note_on channel=8 note=47 velocity=127 time=0
EXTRACT: note_on channel=9 note=36 velocity=127 time=0
EXTRACT: note_on channel=9 note=36 velocity=127 time=0
EXTRACT: note_on channel=9 note=36 velocity=127 time=0
EXTRACT: note_on channel=9 note=36 velocity=127 time=0
EXTRACT: note_on channel=9 note=28 velocity=127 time=0
EXTRACT: note_on channel=9 note=42 velocity=127 time=0
EXTRACT: note_on channel=9 note=76 velocity=80 time=0
EXTRACT: note_on channel=9 note=49 velocity=72 time=0
EXTRACT: note_off channel=15 note=70 velocity=0 time=0.009057958333333335
EXTRACT: note_off channel=9 note=76 velocity=0 time=0.01811591666666667
EXTRACT: note_off channel=4 note=54 velocity=0 time=0.027173875
EXTRACT: note_off channel=4 note=59 velocity=0 time=0
EXTRACT: note_off channel=9 note=42 velocity=0 time=0
EXTRACT: note_off channel=9 note=36 velocity=64 time=0
EXTRACT: note_off channel=9 note=36 velocity=64 time=0
EXTRACT: note_off channel=9 note=36 velocity=64 time=0
EXTRACT: note_off channel=9 note=36 velocity=64 time=0
EXTRACT: note_off channel=3 note=66 velocity=0 time=0.022644895833333335
EXTRACT: note_off channel=9 note=49 velocity=0 time=0
EXTRACT: note_off channel=8 note=47 velocity=0 time=0.03170285416666667
EXTRACT: note_on channel=1 note=35 velocity=110 time=0.1086955
EXTRACT: note_on channel=1 note=47 velocity=110 time=0
EXTRACT: note_on channel=3 note=59 velocity=127 time=0
EXTRACT: note_on channel=8 note=59 velocity=127 time=0
EXTRACT: note_on channel=9 note=46 velocity=127 time=0
EXTRACT: note_on channel=9 note=76 velocity=80 time=0
EXTRACT: note_on channel=13 note=59 velocity=115 time=0
EXTRACT: note_on channel=13 note=47 velocity=115 time=0
EXTRACT: note_on channel=14 note=83 velocity=115 time=0
EXTRACT: note_on channel=15 note=66 velocity=99 time=0
EXTRACT: note_on channel=0 note=47 velocity=120 time=0
EXTRACT: note_off channel=9 note=76 velocity=0 time=0.027173875
EXTRACT: note_off channel=9 note=46 velocity=0 time=0.027173875
EXTRACT: note_off channel=8 note=59 velocity=0 time=0.03623183333333334
EXTRACT: note_on channel=4 note=59 velocity=105 time=0.01811591666666667
EXTRACT: note_on channel=4 note=54 velocity=105 time=0
EXTRACT: note_on channel=8 note=59 velocity=127 time=0
EXTRACT: note_off channel=1 note=47 velocity=0 time=0.05434775
EXTRACT: note_off channel=1 note=35 velocity=0 time=0
EXTRACT: note_off channel=4 note=54 velocity=0 time=0
EXTRACT: note_off channel=4 note=59 velocity=0 time=0
EXTRACT: note_off channel=0 note=47 velocity=0 time=0
EXTRACT: note_off channel=3 note=59 velocity=0 time=0.022644895833333335
EXTRACT: note_off channel=15 note=66 velocity=0 time=0.004528979166666667
EXTRACT: note_off channel=13 note=47 velocity=0 time=0.004528979166666667
EXTRACT: note_off channel=13 note=59 velocity=0 time=0
EXTRACT: note_off channel=14 note=83 velocity=0 time=0
EXTRACT: note_off channel=9 note=28 velocity=0 time=0.009057958333333335
EXTRACT: note_on channel=3 note=70 velocity=127 time=0.0135869375
EXTRACT: note_on channel=4 note=61 velocity=105 time=0
EXTRACT: note_on channel=4 note=56 velocity=105 time=0
EXTRACT: note_off channel=8 note=59 velocity=0 time=0
EXTRACT: note_on channel=8 note=49 velocity=127 time=0
EXTRACT: note_on channel=9 note=36 velocity=127 time=0
EXTRACT: note_on channel=9 note=36 velocity=127 time=0
EXTRACT: note_on channel=9 note=36 velocity=127 time=0
EXTRACT: note_on channel=9 note=36 velocity=127 time=0
EXTRACT: note_on channel=9 note=42 velocity=127 time=0
EXTRACT: note_on channel=9 note=49 velocity=80 time=0
EXTRACT: note_on channel=13 note=70 velocity=115 time=0
EXTRACT: note_on channel=13 note=58 velocity=115 time=0
EXTRACT: note_on channel=14 note=94 velocity=115 time=0
EXTRACT: note_on channel=15 note=73 velocity=91 time=0
EXTRACT: note_off channel=4 note=56 velocity=0 time=0.05434775
EXTRACT: note_off channel=4 note=61 velocity=0 time=0
EXTRACT: note_off channel=9 note=42 velocity=0 time=0
EXTRACT: note_off channel=9 note=36 velocity=64 time=0
EXTRACT: note_off channel=9 note=36 velocity=64 time=0
EXTRACT: note_off channel=9 note=36 velocity=64 time=0
EXTRACT: note_off channel=9 note=36 velocity=64 time=0
EXTRACT: note_off channel=9 note=49 velocity=0 time=0.03170285416666667
EXTRACT: note_off channel=13 note=58 velocity=0 time=0
EXTRACT: note_off channel=13 note=70 velocity=0 time=0
EXTRACT: note_off channel=15 note=73 velocity=0 time=0.004528979166666667
EXTRACT: note_off channel=3 note=70 velocity=0 time=0.004528979166666667
EXTRACT: note_off channel=14 note=94 velocity=0 time=0
EXTRACT: note_off channel=8 note=49 velocity=0 time=0.0135869375
EXTRACT: note_on channel=1 note=37 velocity=110 time=0.1086955
EXTRACT: note_on channel=1 note=49 velocity=110 time=0
EXTRACT: note_on channel=3 note=70 velocity=127 time=0
EXTRACT: note_on channel=4 note=61 velocity=105 time=0
EXTRACT: note_on channel=4 note=56 velocity=105 time=0
EXTRACT: note_on channel=8 note=61 velocity=127 time=0
EXTRACT: note_on channel=9 note=46 velocity=127 time=0
EXTRACT: note_on channel=13 note=70 velocity=115 time=0
EXTRACT: note_on channel=13 note=58 velocity=115 time=0
EXTRACT: note_on channel=14 note=94 velocity=115 time=0
EXTRACT: note_on channel=15 note=73 velocity=91 time=0
EXTRACT: note_on channel=0 note=49 velocity=120 time=0
EXTRACT: note_off channel=4 note=56 velocity=0 time=0.05434775
EXTRACT: note_off channel=4 note=61 velocity=0 time=0
EXTRACT: note_off channel=9 note=46 velocity=0 time=0
EXTRACT: note_off channel=13 note=58 velocity=0 time=0.0407608125
EXTRACT: note_off channel=13 note=70 velocity=0 time=0
EXTRACT: note_off channel=14 note=94 velocity=0 time=0.004528979166666667
EXTRACT: note_off channel=15 note=73 velocity=0 time=0.004528979166666667
EXTRACT: note_off channel=8 note=61 velocity=0 time=0.004528979166666667
EXTRACT: note_on channel=9 note=36 velocity=127 time=0
EXTRACT: note_on channel=9 note=36 velocity=127 time=0
EXTRACT: note_on channel=9 note=36 velocity=127 time=0
EXTRACT: note_on channel=9 note=36 velocity=127 time=0
EXTRACT: note_off channel=3 note=70 velocity=0 time=0.0135869375
EXTRACT: note_off channel=1 note=49 velocity=0 time=0.0407608125
EXTRACT: note_off channel=1 note=37 velocity=0 time=0
EXTRACT: note_off channel=9 note=36 velocity=64 time=0
EXTRACT: note_off channel=9 note=36 velocity=64 time=0
EXTRACT: note_off channel=9 note=36 velocity=64 time=0
EXTRACT: note_off channel=9 note=36 velocity=64 time=0
EXTRACT: note_off channel=0 note=49 velocity=0 time=0
EXTRACT: note_on channel=3 note=68 velocity=127 time=0.05434775
EXTRACT: note_on channel=4 note=61 velocity=105 time=0
EXTRACT: note_on channel=4 note=56 velocity=105 time=0
EXTRACT: note_on channel=8 note=49 velocity=127 time=0
EXTRACT: note_on channel=9 note=36 velocity=127 time=0
EXTRACT: note_on channel=9 note=36 velocity=127 time=0
EXTRACT: note_on channel=9 note=36 velocity=127 time=0
EXTRACT: note_on channel=9 note=36 velocity=127 time=0
EXTRACT: note_on channel=9 note=28 velocity=127 time=0
EXTRACT: note_on channel=9 note=42 velocity=127 time=0
EXTRACT: note_on channel=9 note=76 velocity=80 time=0
EXTRACT: note_on channel=9 note=49 velocity=75 time=0
EXTRACT: note_on channel=13 note=68 velocity=115 time=0
EXTRACT: note_on channel=13 note=56 velocity=115 time=0
EXTRACT: note_on channel=14 note=92 velocity=115 time=0
EXTRACT: note_on channel=15 note=71 velocity=79 time=0
EXTRACT: note_off channel=9 note=76 velocity=0 time=0.027173875
EXTRACT: note_off channel=4 note=56 velocity=0 time=0.027173875
EXTRACT: note_off channel=4 note=61 velocity=0 time=0
EXTRACT: note_off channel=9 note=42 velocity=0 time=0
EXTRACT: note_off channel=9 note=36 velocity=64 time=0
EXTRACT: note_off channel=9 note=36 velocity=64 time=0
EXTRACT: note_off channel=9 note=36 velocity=64 time=0
EXTRACT: note_off channel=9 note=36 velocity=64 time=0
EXTRACT: note_off channel=14 note=92 velocity=0 time=0.022644895833333335
EXTRACT: note_off channel=15 note=71 velocity=0 time=0
EXTRACT: note_off channel=9 note=49 velocity=0 time=0.004528979166666667
EXTRACT: note_off channel=13 note=56 velocity=0 time=0
EXTRACT: note_off channel=13 note=68 velocity=0 time=0
EXTRACT: note_off channel=3 note=68 velocity=0 time=0.01811591666666667
EXTRACT: note_off channel=8 note=49 velocity=0 time=0.009057958333333335
EXTRACT: note_on channel=1 note=37 velocity=110 time=0.1086955
EXTRACT: note_on channel=1 note=49 velocity=110 time=0
EXTRACT: note_on channel=3 note=68 velocity=127 time=0
EXTRACT: note_on channel=8 note=61 velocity=127 time=0
EXTRACT: note_on channel=9 note=36 velocity=127 time=0
EXTRACT: note_on channel=9 note=36 velocity=127 time=0
EXTRACT: note_on channel=9 note=36 velocity=127 time=0
EXTRACT: note_on channel=9 note=36 velocity=127 time=0
EXTRACT: note_on channel=9 note=46 velocity=127 time=0
EXTRACT: note_on channel=13 note=68 velocity=115 time=0
EXTRACT: note_on channel=13 note=56 velocity=115 time=0
EXTRACT: note_on channel=14 note=92 velocity=115 time=0
EXTRACT: note_on channel=15 note=71 velocity=91 time=0
EXTRACT: note_on channel=0 note=49 velocity=120 time=0
EXTRACT: note_off channel=9 note=46 velocity=0 time=0.05434775
EXTRACT: note_off channel=9 note=36 velocity=64 time=0
EXTRACT: note_off channel=9 note=36 velocity=64 time=0
EXTRACT: note_off channel=9 note=36 velocity=64 time=0
EXTRACT: note_off channel=9 note=36 velocity=64 time=0
EXTRACT: note_off channel=13 note=56 velocity=0 time=0.03170285416666667
EXTRACT: note_off channel=13 note=68 velocity=0 time=0
EXTRACT: note_off channel=14 note=92 velocity=0 time=0.004528979166666667
EXTRACT: note_off channel=15 note=71 velocity=0 time=0
EXTRACT: note_off channel=8 note=61 velocity=0 time=0.01811591666666667
EXTRACT: note_off channel=3 note=68 velocity=0 time=0.0135869375
EXTRACT: note_off channel=1 note=49 velocity=0 time=0.0407608125
EXTRACT: note_off channel=1 note=37 velocity=0 time=0
EXTRACT: note_off channel=0 note=49 velocity=0 time=0
EXTRACT: note_off channel=9 note=28 velocity=0 time=0.0407608125
EXTRACT: note_on channel=3 note=66 velocity=127 time=0.0135869375
EXTRACT: note_off channel=7 note=80 velocity=64 time=0
EXTRACT: note_on channel=9 note=36 velocity=127 time=0
EXTRACT: note_on channel=9 note=36 velocity=127 time=0
EXTRACT: note_on channel=9 note=36 velocity=127 time=0
EXTRACT: note_on channel=9 note=36 velocity=127 time=0
EXTRACT: note_on channel=9 note=42 velocity=127 time=0
EXTRACT: note_on channel=9 note=49 velocity=91 time=0
EXTRACT: note_on channel=9 note=37 velocity=70 time=0
EXTRACT: note_on channel=9 note=35 velocity=117 time=0
EXTRACT: note_on channel=13 note=66 velocity=115 time=0
EXTRACT: note_on channel=13 note=54 velocity=115 time=0
EXTRACT: note_on channel=14 note=90 velocity=115 time=0
EXTRACT: note_on channel=15 note=70 velocity=99 time=0
EXTRACT: note_off channel=9 note=35 velocity=0 time=0.027173875
EXTRACT: note_off channel=9 note=37 velocity=0 time=0
EXTRACT: note_off channel=9 note=42 velocity=0 time=0.027173875
EXTRACT: note_off channel=9 note=36 velocity=64 time=0
EXTRACT: note_off channel=9 note=36 velocity=64 time=0
EXTRACT: note_off channel=9 note=36 velocity=64 time=0
EXTRACT: note_off channel=9 note=36 velocity=64 time=0
EXTRACT: note_off channel=9 note=49 velocity=0 time=0.01811591666666667
EXTRACT: note_off channel=2 note=90 velocity=64 time=0.14492733333333335
EXTRACT: note_off channel=2 note=102 velocity=64 time=0
EXTRACT: note_off channel=14 note=90 velocity=0 time=0
EXTRACT: note_off channel=13 note=54 velocity=0 time=0.03623183333333334
EXTRACT: note_off channel=13 note=66 velocity=0 time=0
EXTRACT: note_off channel=15 note=70 velocity=0 time=0.009057958333333335
EXTRACT: note_off channel=3 note=66 velocity=0 time=0.05887672916666667
EXTRACT: control_change channel=0 control=121 value=127 time=2.287134479166667
EXTRACT: control_change channel=1 control=121 value=127 time=0.022644895833333335
EXTRACT: control_change channel=1 control=121 value=127 time=0
EXTRACT: control_change channel=2 control=121 value=127 time=0.022644895833333335
EXTRACT: control_change channel=3 control=121 value=127 time=0.022644895833333335
EXTRACT: control_change channel=4 control=121 value=127 time=0.022644895833333335
EXTRACT: control_change channel=5 control=121 value=127 time=0.022644895833333335
EXTRACT: control_change channel=6 control=121 value=127 time=0.022644895833333335
EXTRACT: control_change channel=7 control=121 value=127 time=0.022644895833333335
EXTRACT: control_change channel=8 control=121 value=127 time=0.022644895833333335
EXTRACT: control_change channel=9 control=121 value=127 time=0.022644895833333335
EXTRACT: control_change channel=12 control=121 value=127 time=0.06793468750000001
EXTRACT: control_change channel=13 control=121 value=127 time=0.022644895833333335
EXTRACT: control_change channel=13 control=121 value=127 time=0
EXTRACT: control_change channel=14 control=121 value=127 time=0.022644895833333335
EXTRACT: control_change channel=15 control=121 value=127 time=0.022644895833333335
