EXTRACT: sysex data=(65,16,66,18,64,0,127,0,65) time=0
EXTRACT: control_change channel=0 control=0 value=0 time=0.461538
EXTRACT: program_change channel=0 program=3 time=0.0076923
EXTRACT: control_change channel=0 control=7 value=100 time=0.00384615
EXTRACT: control_change channel=0 control=10 value=64 time=0
EXTRACT: control_change channel=1 control=0 value=0 time=0.0076923
EXTRACT: program_change channel=1 program=35 time=0.0076923
EXTRACT: control_change channel=1 control=7 value=100 time=0.00384615
EXTRACT: control_change channel=1 control=10 value=64 time=0
EXTRACT: control_change channel=2 control=0 value=0 time=0.0076923
EXTRACT: program_change channel=2 program=16 time=0.0076923
EXTRACT: control_change channel=2 control=7 value=100 time=0.00384615
EXTRACT: control_change channel=2 control=10 value=0 time=0
EXTRACT: control_change channel=3 control=0 value=0 time=0.0076923
EXTRACT: program_change channel=3 program=27 time=0.0076923
EXTRACT: control_change channel=3 control=7 value=100 time=0.00384615
EXTRACT: control_change channel=3 control=10 value=64 time=0
EXTRACT: control_change channel=4 control=0 value=0 time=0.0076923
EXTRACT: program_change channel=4 program=49 time=0.0076923
EXTRACT: control_change channel=4 control=7 value=100 time=0.00384615
EXTRACT: control_change channel=4 control=10 value=84 time=0
EXTRACT: control_change channel=5 control=0 value=0 time=0.0076923
EXTRACT: program_change channel=5 program=70 time=0.0076923
EXTRACT: control_change channel=5 control=7 value=100 time=0.00384615
EXTRACT: control_change channel=5 control=10 value=64 time=0
EXTRACT: control_change channel=6 control=0 value=0 time=0.0076923
EXTRACT: program_change channel=6 program=61 time=0.0076923
EXTRACT: control_change channel=6 control=7 value=100 time=0.00384615
EXTRACT: control_change channel=6 control=10 value=32 time=0
EXTRACT: control_change channel=7 control=0 value=0 time=0.0076923
EXTRACT: program_change channel=7 program=66 time=0.0076923
EXTRACT: control_change channel=7 control=7 value=100 time=0.00384615
EXTRACT: control_change channel=8 control=0 value=0 time=0.0076923
EXTRACT: program_change channel=8 program=71 time=0.0076923
EXTRACT: control_change channel=8 control=7 value=100 time=0.00384615
EXTRACT: control_change channel=9 control=7 value=100 time=0.01923075
EXTRACT: control_change channel=9 control=10 value=64 time=0
EXTRACT: control_change channel=10 control=0 value=0 time=0.0076923
EXTRACT: program_change channel=10 program=53 time=0.0076923
EXTRACT: control_change channel=11 control=0 value=0 time=0.01153845
EXTRACT: control_change channel=11 control=0 value=0 time=0
EXTRACT: program_change channel=11 program=73 time=0.0076923
EXTRACT: program_change channel=11 program=73 time=0
EXTRACT: control_change channel=1 control=1 value=0 time=0.70384545
EXTRACT: control_change channel=9 control=1 value=0 time=0
EXTRACT: control_change channel=1 control=11 value=127 time=0.0076923
EXTRACT: control_change channel=1 control=91 value=24 time=0.00384615
EXTRACT: control_change channel=1 control=93 value=24 time=0.00384615
EXTRACT: control_change channel=1 control=7 value=120 time=0.00384615
EXTRACT: control_change channel=9 control=11 value=127 time=0.4153842
EXTRACT: control_change channel=9 control=91 value=84 time=0.00384615
EXTRACT: control_change channel=9 control=93 value=0 time=0.0076923
EXTRACT: control_change channel=9 control=7 value=127 time=0.00384615
EXTRACT: control_change channel=0 control=1 value=0 time=0.47307645
EXTRACT: control_change channel=0 control=11 value=127 time=0.0076923
EXTRACT: control_change channel=0 control=91 value=64 time=0.00384615
EXTRACT: control_change channel=0 control=93 value=24 time=0.00384615
EXTRACT: control_change channel=0 control=7 value=110 time=0.00384615
EXTRACT: control_change channel=2 control=1 value=0 time=0.44230725
EXTRACT: control_change channel=3 control=1 value=0 time=0
EXTRACT: control_change channel=4 control=1 value=0 time=0
EXTRACT: control_change channel=5 control=1 value=0 time=0
EXTRACT: control_change channel=6 control=1 value=0 time=0
EXTRACT: control_change channel=2 control=10 value=1 time=0.00384615
EXTRACT: control_change channel=2 control=11 value=100 time=0.00384615
EXTRACT: control_change channel=3 control=11 value=127 time=0
EXTRACT: control_change channel=4 control=11 value=127 time=0
EXTRACT: control_change channel=5 control=11 value=127 time=0
EXTRACT: control_change channel=6 control=11 value=80 time=0
EXTRACT: control_change channel=2 control=91 value=64 time=0.00384615
EXTRACT: control_change channel=3 control=91 value=64 time=0
EXTRACT: control_change channel=4 control=91 value=64 time=0
EXTRACT: control_change channel=5 control=91 value=64 time=0
EXTRACT: control_change channel=6 control=91 value=64 time=0
EXTRACT: control_change channel=2 control=93 value=64 time=0.00384615
EXTRACT: control_change channel=3 control=93 value=0 time=0
EXTRACT: control_change channel=4 control=93 value=64 time=0
EXTRACT: control_change channel=5 control=93 value=64 time=0
EXTRACT: control_change channel=6 control=93 value=127 time=0
EXTRACT: control_change channel=2 control=7 value=80 time=0.00384615
EXTRACT: control_change channel=3 control=7 value=100 time=0
EXTRACT: control_change channel=4 control=7 value=100 time=0
EXTRACT: control_change channel=5 control=7 value=90 time=0
EXTRACT: control_change channel=6 control=7 value=127 time=0
EXTRACT: note_on channel=9 note=54 velocity=13 time=0.89615295
EXTRACT: note_on channel=9 note=36 velocity=99 time=0.0076923
EXTRACT: note_on channel=9 note=42 velocity=94 time=0
EXTRACT: note_on channel=9 note=54 velocity=0 time=0.1076922
EXTRACT: note_on channel=9 note=54 velocity=15 time=0
EXTRACT: note_on channel=9 note=36 velocity=0 time=0.0076923
EXTRACT: note_on channel=9 note=42 velocity=0 time=0
EXTRACT: note_on channel=9 note=54 velocity=0 time=0.1076922
EXTRACT: note_on channel=9 note=54 velocity=15 time=0
EXTRACT: note_on channel=9 note=42 velocity=44 time=0.0076923
EXTRACT: note_on channel=9 note=54 velocity=0 time=0.1076922
EXTRACT: note_on channel=9 note=54 velocity=16 time=0
EXTRACT: note_on channel=9 note=42 velocity=0 time=0.0076923
EXTRACT: note_on channel=9 note=54 velocity=0 time=0.1076922
EXTRACT: note_on channel=9 note=54 velocity=17 time=0
EXTRACT: note_on channel=9 note=40 velocity=90 time=0.0076923
EXTRACT: note_on channel=9 note=42 velocity=99 time=0
EXTRACT: note_on channel=9 note=54 velocity=0 time=0.1076922
EXTRACT: note_on channel=9 note=54 velocity=17 time=0
EXTRACT: note_on channel=9 note=40 velocity=0 time=0.0076923
EXTRACT: note_on channel=9 note=42 velocity=0 time=0
EXTRACT: note_on channel=9 note=54 velocity=0 time=0.1076922
EXTRACT: note_on channel=9 note=54 velocity=19 time=0
EXTRACT: note_on channel=9 note=42 velocity=29 time=0.0076923
EXTRACT: note_on channel=9 note=54 velocity=0 time=0.1076922
EXTRACT: note_on channel=9 note=54 velocity=19 time=0
EXTRACT: note_on channel=9 note=42 velocity=0 time=0.0076923
EXTRACT: note_on channel=9 note=54 velocity=0 time=0.1076922
EXTRACT: note_on channel=9 note=54 velocity=20 time=0
EXTRACT: note_on channel=9 note=36 velocity=97 time=0.0076923
EXTRACT: note_on channel=9 note=42 velocity=89 time=0
EXTRACT: note_on channel=9 note=54 velocity=0 time=0.0692307
EXTRACT: note_on channel=9 note=54 velocity=24 time=0
EXTRACT: note_on channel=9 note=36 velocity=0 time=0.0461538
EXTRACT: note_on channel=9 note=42 velocity=0 time=0
EXTRACT: note_on channel=9 note=54 velocity=0 time=0.0307692
EXTRACT: note_on channel=9 note=54 velocity=24 time=0
EXTRACT: note_on channel=9 note=54 velocity=0 time=0.076923
EXTRACT: note_on channel=9 note=54 velocity=24 time=0
EXTRACT: note_on channel=9 note=42 velocity=31 time=0.0076923
EXTRACT: note_on channel=9 note=54 velocity=0 time=0.0692307
EXTRACT: note_on channel=9 note=54 velocity=25 time=0
EXTRACT: note_on channel=9 note=40 velocity=36 time=0.0461538
EXTRACT: note_on channel=9 note=42 velocity=0 time=0
EXTRACT: note_on channel=9 note=54 velocity=0 time=0.0307692
EXTRACT: note_on channel=9 note=54 velocity=25 time=0
EXTRACT: note_on channel=9 note=40 velocity=0 time=0.02692305
EXTRACT: note_on channel=9 note=54 velocity=0 time=0.04999995
EXTRACT: note_on channel=9 note=54 velocity=26 time=0
EXTRACT: note_on channel=9 note=40 velocity=90 time=0.0076923
EXTRACT: note_on channel=9 note=42 velocity=99 time=0
EXTRACT: note_on channel=9 note=54 velocity=0 time=0.0692307
EXTRACT: note_on channel=9 note=54 velocity=28 time=0
EXTRACT: note_on channel=9 note=40 velocity=0 time=0.0461538
EXTRACT: note_on channel=9 note=42 velocity=0 time=0
EXTRACT: note_on channel=9 note=54 velocity=0 time=0.0307692
EXTRACT: note_on channel=9 note=54 velocity=31 time=0
EXTRACT: note_on channel=9 note=54 velocity=0 time=0.076923
EXTRACT: note_on channel=9 note=54 velocity=33 time=0
EXTRACT: note_on channel=9 note=36 velocity=66 time=0.0076923
EXTRACT: note_on channel=9 note=42 velocity=53 time=0
EXTRACT: note_on channel=9 note=54 velocity=0 time=0.0692307
EXTRACT: note_on channel=9 note=54 velocity=34 time=0
EXTRACT: note_on channel=9 note=36 velocity=0 time=0.0461538
EXTRACT: note_on channel=9 note=42 velocity=0 time=0
EXTRACT: note_on channel=9 note=54 velocity=0 time=0.0307692
EXTRACT: note_on channel=9 note=54 velocity=36 time=0
EXTRACT: note_on channel=9 note=54 velocity=0 time=0.076923
EXTRACT: note_on channel=9 note=54 velocity=39 time=0
EXTRACT: note_on channel=0 note=55 velocity=72 time=0.0076923
EXTRACT: note_on channel=0 note=52 velocity=66 time=0
EXTRACT: note_on channel=0 note=60 velocity=67 time=0
EXTRACT: note_on channel=1 note=36 velocity=107 time=0
EXTRACT: note_on channel=2 note=79 velocity=64 time=0
EXTRACT: note_on channel=2 note=84 velocity=71 time=0
EXTRACT: note_on channel=2 note=88 velocity=74 time=0
EXTRACT: note_on channel=3 note=72 velocity=80 time=0
EXTRACT: control_change channel=7 control=1 value=0 time=0
EXTRACT: note_on channel=9 note=36 velocity=97 time=0
EXTRACT: note_on channel=9 note=42 velocity=99 time=0
EXTRACT: note_on channel=9 note=49 velocity=71 time=0
EXTRACT: note_on channel=9 note=63 velocity=50 time=0
EXTRACT: control_change channel=7 control=10 value=64 time=0.00384615
EXTRACT: control_change channel=7 control=11 value=127 time=0.00384615
EXTRACT: note_on channel=3 note=67 velocity=85 time=0.00384615
EXTRACT: control_change channel=7 control=91 value=64 time=0
EXTRACT: control_change channel=7 control=93 value=64 time=0.00384615
EXTRACT: control_change channel=7 control=7 value=100 time=0.00384615
EXTRACT: note_on channel=3 note=64 velocity=82 time=0.00384615
EXTRACT: note_on channel=9 note=54 velocity=0 time=0.0846153
EXTRACT: note_on channel=9 note=54 velocity=7 time=0
EXTRACT: note_on channel=9 note=36 velocity=0 time=0.0076923
EXTRACT: note_on channel=9 note=42 velocity=0 time=0
EXTRACT: note_on channel=9 note=49 velocity=0 time=0
EXTRACT: note_on channel=9 note=63 velocity=0 time=0
EXTRACT: note_on channel=9 note=54 velocity=0 time=0.1076922
EXTRACT: note_on channel=9 note=54 velocity=7 time=0
EXTRACT: note_on channel=1 note=36 velocity=0 time=0.0076923
EXTRACT: note_on channel=9 note=42 velocity=32 time=0
EXTRACT: note_on channel=9 note=62 velocity=56 time=0
EXTRACT: note_on channel=9 note=54 velocity=0 time=0.1076922
EXTRACT: note_on channel=9 note=54 velocity=7 time=0
EXTRACT: note_on channel=3 note=64 velocity=0 time=0.0076923
EXTRACT: note_on channel=3 note=67 velocity=0 time=0
EXTRACT: note_on channel=3 note=72 velocity=0 time=0
EXTRACT: note_on channel=9 note=42 velocity=0 time=0
EXTRACT: note_on channel=9 note=62 velocity=0 time=0
EXTRACT: note_on channel=9 note=54 velocity=0 time=0.1076922
EXTRACT: note_on channel=9 note=54 velocity=10 time=0
EXTRACT: note_on channel=1 note=36 velocity=110 time=0.0076923
EXTRACT: note_on channel=3 note=67 velocity=101 time=0
EXTRACT: note_on channel=6 note=67 velocity=120 time=0
EXTRACT: note_on channel=6 note=79 velocity=120 time=0
EXTRACT: note_on channel=9 note=40 velocity=93 time=0
EXTRACT: note_on channel=9 note=42 velocity=99 time=0
EXTRACT: note_on channel=9 note=62 velocity=58 time=0
EXTRACT: note_on channel=9 note=39 velocity=93 time=0
EXTRACT: note_on channel=3 note=64 velocity=90 time=0.01153845
EXTRACT: note_on channel=3 note=72 velocity=94 time=0.01153845
EXTRACT: note_on channel=9 note=54 velocity=0 time=0.0846153
EXTRACT: note_on channel=9 note=54 velocity=13 time=0
EXTRACT: note_on channel=3 note=72 velocity=0 time=0.0076923
EXTRACT: note_on channel=3 note=64 velocity=0 time=0
EXTRACT: note_on channel=3 note=67 velocity=0 time=0
EXTRACT: note_on channel=9 note=40 velocity=0 time=0
EXTRACT: note_on channel=9 note=42 velocity=0 time=0
EXTRACT: note_on channel=9 note=62 velocity=0 time=0
EXTRACT: note_on channel=9 note=39 velocity=0 time=0
EXTRACT: note_on channel=9 note=54 velocity=0 time=0.1076922
EXTRACT: note_on channel=9 note=54 velocity=12 time=0
EXTRACT: note_on channel=1 note=36 velocity=0 time=0.0076923
EXTRACT: note_on channel=6 note=79 velocity=0 time=0
EXTRACT: note_on channel=6 note=67 velocity=0 time=0
EXTRACT: note_on channel=9 note=42 velocity=49 time=0
EXTRACT: note_on channel=9 note=64 velocity=70 time=0
EXTRACT: note_on channel=9 note=54 velocity=0 time=0.1076922
EXTRACT: note_on channel=9 note=54 velocity=13 time=0
EXTRACT: note_on channel=9 note=42 velocity=0 time=0.0076923
EXTRACT: note_on channel=9 note=64 velocity=0 time=0
EXTRACT: note_on channel=9 note=54 velocity=0 time=0.1076922
EXTRACT: note_on channel=9 note=54 velocity=42 time=0
EXTRACT: note_on channel=1 note=36 velocity=104 time=0.0076923
EXTRACT: note_on channel=6 note=67 velocity=123 time=0
EXTRACT: note_on channel=6 note=79 velocity=123 time=0
EXTRACT: note_on channel=9 note=36 velocity=88 time=0
EXTRACT: note_on channel=9 note=42 velocity=84 time=0
EXTRACT: note_on channel=9 note=54 velocity=0 time=0.1076922
EXTRACT: note_on channel=9 note=54 velocity=28 time=0
EXTRACT: note_on channel=9 note=36 velocity=0 time=0.0076923
EXTRACT: note_on channel=9 note=42 velocity=0 time=0
EXTRACT: note_on channel=9 note=54 velocity=0 time=0.1076922
EXTRACT: note_on channel=9 note=54 velocity=28 time=0
EXTRACT: note_on channel=1 note=36 velocity=0 time=0.0076923
EXTRACT: note_on channel=1 note=31 velocity=71 time=0
EXTRACT: note_on channel=3 note=72 velocity=83 time=0
EXTRACT: note_on channel=6 note=79 velocity=0 time=0
EXTRACT: note_on channel=6 note=67 velocity=0 time=0
EXTRACT: note_on channel=6 note=72 velocity=97 time=0
EXTRACT: note_on channel=6 note=84 velocity=97 time=0
EXTRACT: note_on channel=9 note=36 velocity=94 time=0
EXTRACT: note_on channel=9 note=42 velocity=53 time=0
EXTRACT: note_on channel=9 note=62 velocity=36 time=0
EXTRACT: note_on channel=3 note=64 velocity=85 time=0.01153845
EXTRACT: note_on channel=3 note=67 velocity=104 time=0.01153845
EXTRACT: note_on channel=9 note=54 velocity=0 time=0.0846153
EXTRACT: note_on channel=9 note=54 velocity=28 time=0
EXTRACT: note_on channel=3 note=67 velocity=0 time=0.0076923
EXTRACT: note_on channel=3 note=64 velocity=0 time=0
EXTRACT: note_on channel=3 note=72 velocity=0 time=0
EXTRACT: note_on channel=9 note=36 velocity=0 time=0
EXTRACT: note_on channel=9 note=42 velocity=0 time=0
EXTRACT: note_on channel=9 note=62 velocity=0 time=0
EXTRACT: note_on channel=9 note=54 velocity=0 time=0.1076922
EXTRACT: note_on channel=9 note=54 velocity=41 time=0
EXTRACT: note_on channel=0 note=55 velocity=0 time=0.0076923
EXTRACT: note_on channel=1 note=31 velocity=0 time=0
EXTRACT: note_on channel=1 note=33 velocity=83 time=0
EXTRACT: note_on channel=6 note=84 velocity=0 time=0
EXTRACT: note_on channel=6 note=72 velocity=0 time=0
EXTRACT: note_on channel=9 note=40 velocity=93 time=0
EXTRACT: note_on channel=9 note=42 velocity=94 time=0
EXTRACT: note_on channel=9 note=62 velocity=52 time=0
EXTRACT: note_on channel=9 note=39 velocity=93 time=0
EXTRACT: note_on channel=9 note=54 velocity=0 time=0.1076922
EXTRACT: note_on channel=9 note=54 velocity=28 time=0
EXTRACT: note_on channel=0 note=60 velocity=0 time=0.0076923
EXTRACT: note_on channel=0 note=52 velocity=0 time=0
EXTRACT: note_on channel=9 note=40 velocity=0 time=0
EXTRACT: note_on channel=9 note=42 velocity=0 time=0
EXTRACT: note_on channel=9 note=62 velocity=0 time=0
EXTRACT: note_on channel=9 note=39 velocity=0 time=0
EXTRACT: note_on channel=9 note=54 velocity=0 time=0.1076922
EXTRACT: note_on channel=9 note=54 velocity=31 time=0
EXTRACT: note_on channel=0 note=53 velocity=78 time=0.0076923
EXTRACT: note_on channel=0 note=50 velocity=64 time=0
EXTRACT: note_on channel=0 note=58 velocity=68 time=0
EXTRACT: note_on channel=1 note=33 velocity=0 time=0
EXTRACT: note_on channel=1 note=34 velocity=104 time=0
EXTRACT: note_on channel=2 note=84 velocity=0 time=0
EXTRACT: note_on channel=2 note=82 velocity=77 time=0
EXTRACT: note_on channel=3 note=62 velocity=86 time=0
EXTRACT: note_on channel=6 note=70 velocity=109 time=0
EXTRACT: note_on channel=6 note=82 velocity=109 time=0
EXTRACT: note_on channel=9 note=36 velocity=70 time=0
EXTRACT: note_on channel=9 note=42 velocity=38 time=0
EXTRACT: note_on channel=9 note=63 velocity=56 time=0
EXTRACT: note_on channel=3 note=65 velocity=92 time=0.01153845
EXTRACT: note_on channel=3 note=70 velocity=96 time=0.01153845
EXTRACT: note_on channel=9 note=54 velocity=0 time=0.0846153
EXTRACT: note_on channel=9 note=54 velocity=37 time=0
EXTRACT: note_on channel=9 note=36 velocity=0 time=0.0076923
EXTRACT: note_on channel=9 note=42 velocity=0 time=0
EXTRACT: note_on channel=9 note=63 velocity=0 time=0
EXTRACT: note_on channel=9 note=54 velocity=0 time=0.1076922
EXTRACT: note_on channel=9 note=54 velocity=41 time=0
EXTRACT: note_on channel=6 note=82 velocity=0 time=0.0076923
EXTRACT: note_on channel=6 note=70 velocity=0 time=0
EXTRACT: note_on channel=9 note=36 velocity=104 time=0
EXTRACT: note_on channel=9 note=42 velocity=94 time=0
EXTRACT: note_on channel=9 note=54 velocity=0 time=0.1076922
EXTRACT: note_on channel=9 note=54 velocity=10 time=0
EXTRACT: note_on channel=9 note=36 velocity=0 time=0.0076923
EXTRACT: note_on channel=9 note=42 velocity=0 time=0
EXTRACT: note_on channel=9 note=54 velocity=0 time=0.1076922
EXTRACT: note_on channel=9 note=54 velocity=10 time=0
EXTRACT: note_on channel=1 note=34 velocity=0 time=0.0076923
EXTRACT: note_on channel=1 note=29 velocity=83 time=0
EXTRACT: note_on channel=6 note=69 velocity=107 time=0
EXTRACT: note_on channel=6 note=81 velocity=107 time=0
EXTRACT: note_on channel=9 note=42 velocity=40 time=0
EXTRACT: note_on channel=9 note=62 velocity=46 time=0
EXTRACT: note_on channel=9 note=54 velocity=0 time=0.1076922
EXTRACT: note_on channel=9 note=54 velocity=11 time=0
EXTRACT: note_on channel=3 note=70 velocity=0 time=0.0076923
EXTRACT: note_on channel=3 note=62 velocity=0 time=0
EXTRACT: note_on channel=9 note=42 velocity=0 time=0
EXTRACT: note_on channel=9 note=62 velocity=0 time=0
EXTRACT: note_on channel=9 note=54 velocity=0 time=0.1076922
EXTRACT: note_on channel=9 note=54 velocity=11 time=0
EXTRACT: note_on channel=1 note=29 velocity=0 time=0.0076923
EXTRACT: note_on channel=1 note=31 velocity=68 time=0
EXTRACT: note_on channel=3 note=65 velocity=0 time=0
EXTRACT: note_on channel=3 note=65 velocity=88 time=0
EXTRACT: note_on channel=6 note=81 velocity=0 time=0
EXTRACT: note_on channel=6 note=69 velocity=0 time=0
EXTRACT: note_on channel=9 note=40 velocity=87 time=0
EXTRACT: note_on channel=9 note=42 velocity=94 time=0
EXTRACT: note_on channel=9 note=62 velocity=50 time=0
EXTRACT: note_on channel=9 note=39 velocity=87 time=0
EXTRACT: note_on channel=3 note=62 velocity=82 time=0.01153845
EXTRACT: note_on channel=3 note=70 velocity=100 time=0.01153845
EXTRACT: note_on channel=9 note=54 velocity=0 time=0.0846153
EXTRACT: note_on channel=9 note=54 velocity=11 time=0
EXTRACT: note_on channel=3 note=70 velocity=0 time=0.0076923
EXTRACT: note_on channel=3 note=62 velocity=0 time=0
EXTRACT: note_on channel=3 note=65 velocity=0 time=0
EXTRACT: note_on channel=9 note=40 velocity=0 time=0
EXTRACT: note_on channel=9 note=42 velocity=0 time=0
EXTRACT: note_on channel=9 note=62 velocity=0 time=0
EXTRACT: note_on channel=9 note=39 velocity=0 time=0
EXTRACT: note_on channel=9 note=54 velocity=0 time=0.1076922
EXTRACT: note_on channel=9 note=54 velocity=13 time=0
EXTRACT: note_on channel=1 note=31 velocity=0 time=0.0076923
EXTRACT: note_on channel=1 note=34 velocity=96 time=0
EXTRACT: note_on channel=6 note=67 velocity=110 time=0
EXTRACT: note_on channel=6 note=79 velocity=110 time=0
EXTRACT: note_on channel=9 note=42 velocity=34 time=0
EXTRACT: note_on channel=9 note=64 velocity=66 time=0
EXTRACT: note_on channel=9 note=54 velocity=0 time=0.1076922
EXTRACT: note_on channel=9 note=54 velocity=13 time=0
EXTRACT: note_on channel=9 note=42 velocity=0 time=0.0076923
EXTRACT: note_on channel=9 note=64 velocity=0 time=0
EXTRACT: note_on channel=9 note=54 velocity=0 time=0.1076922
EXTRACT: note_on channel=9 note=54 velocity=38 time=0
EXTRACT: note_on channel=6 note=79 velocity=0 time=0.0076923
EXTRACT: note_on channel=6 note=67 velocity=0 time=0
EXTRACT: note_on channel=9 note=36 velocity=86 time=0
EXTRACT: note_on channel=9 note=42 velocity=94 time=0
EXTRACT: note_on channel=9 note=54 velocity=0 time=0.1076922
EXTRACT: note_on channel=9 note=54 velocity=27 time=0
EXTRACT: note_on channel=9 note=36 velocity=0 time=0.0076923
EXTRACT: note_on channel=9 note=42 velocity=0 time=0
EXTRACT: note_on channel=9 note=54 velocity=0 time=0.1076922
EXTRACT: note_on channel=9 note=54 velocity=27 time=0
EXTRACT: note_on channel=1 note=34 velocity=0 time=0.0076923
EXTRACT: note_on channel=1 note=29 velocity=85 time=0
EXTRACT: note_on channel=3 note=65 velocity=94 time=0
EXTRACT: note_on channel=6 note=63 velocity=109 time=0
EXTRACT: note_on channel=6 note=75 velocity=109 time=0
EXTRACT: note_on channel=9 note=36 velocity=85 time=0
EXTRACT: note_on channel=9 note=42 velocity=31 time=0
EXTRACT: note_on channel=9 note=62 velocity=36 time=0
EXTRACT: note_on channel=3 note=62 velocity=90 time=0.01153845
EXTRACT: note_on channel=3 note=70 velocity=96 time=0.01153845
EXTRACT: note_on channel=9 note=54 velocity=0 time=0.0846153
EXTRACT: note_on channel=9 note=54 velocity=27 time=0
EXTRACT: note_on channel=3 note=70 velocity=0 time=0.0076923
EXTRACT: note_on channel=3 note=62 velocity=0 time=0
EXTRACT: note_on channel=3 note=65 velocity=0 time=0
EXTRACT: note_on channel=9 note=36 velocity=0 time=0
EXTRACT: note_on channel=9 note=42 velocity=0 time=0
EXTRACT: note_on channel=9 note=62 velocity=0 time=0
EXTRACT: note_on channel=9 note=54 velocity=0 time=0.1076922
EXTRACT: note_on channel=9 note=54 velocity=36 time=0
EXTRACT: note_on channel=1 note=29 velocity=0 time=0.0076923
EXTRACT: note_on channel=1 note=31 velocity=71 time=0
EXTRACT: note_on channel=6 note=75 velocity=0 time=0
EXTRACT: note_on channel=6 note=63 velocity=0 time=0
EXTRACT: note_on channel=6 note=62 velocity=97 time=0
EXTRACT: note_on channel=6 note=74 velocity=97 time=0
EXTRACT: note_on channel=9 note=40 velocity=87 time=0
EXTRACT: note_on channel=9 note=42 velocity=99 time=0
EXTRACT: note_on channel=9 note=62 velocity=50 time=0
EXTRACT: note_on channel=9 note=39 velocity=87 time=0
EXTRACT: note_on channel=9 note=54 velocity=0 time=0.1076922
EXTRACT: note_on channel=9 note=54 velocity=27 time=0
EXTRACT: note_on channel=9 note=40 velocity=0 time=0.0076923
EXTRACT: note_on channel=9 note=42 velocity=0 time=0
EXTRACT: note_on channel=9 note=62 velocity=0 time=0
EXTRACT: note_on channel=9 note=39 velocity=0 time=0
EXTRACT: note_on channel=9 note=54 velocity=0 time=0.1076922
EXTRACT: note_on channel=9 note=54 velocity=28 time=0
EXTRACT: note_on channel=0 note=58 velocity=0 time=0.0076923
EXTRACT: note_on channel=0 note=53 velocity=0 time=0
EXTRACT: note_on channel=1 note=31 velocity=0 time=0
EXTRACT: note_on channel=1 note=34 velocity=92 time=0
EXTRACT: note_on channel=6 note=74 velocity=0 time=0
EXTRACT: note_on channel=6 note=62 velocity=0 time=0
EXTRACT: note_on channel=6 note=60 velocity=99 time=0
EXTRACT: note_on channel=6 note=72 velocity=99 time=0
EXTRACT: note_on channel=9 note=36 velocity=71 time=0
EXTRACT: note_on channel=9 note=42 velocity=38 time=0
EXTRACT: note_on channel=9 note=63 velocity=58 time=0
EXTRACT: note_on channel=9 note=54 velocity=0 time=0.1076922
EXTRACT: note_on channel=9 note=54 velocity=38 time=0
EXTRACT: note_on channel=0 note=50 velocity=0 time=0.0076923
EXTRACT: note_on channel=2 note=79 velocity=0 time=0
EXTRACT: note_on channel=9 note=36 velocity=0 time=0
EXTRACT: note_on channel=9 note=42 velocity=0 time=0
EXTRACT: note_on channel=9 note=63 velocity=0 time=0
EXTRACT: note_on channel=9 note=54 velocity=0 time=0.1076922
EXTRACT: note_on channel=9 note=54 velocity=39 time=0
EXTRACT: note_on channel=0 note=52 velocity=62 time=0.0076923
EXTRACT: note_on channel=0 note=48 velocity=62 time=0
EXTRACT: note_on channel=0 note=57 velocity=67 time=0
EXTRACT: note_on channel=1 note=34 velocity=0 time=0
EXTRACT: note_on channel=1 note=33 velocity=85 time=0
EXTRACT: note_on channel=2 note=82 velocity=0 time=0
EXTRACT: note_on channel=2 note=84 velocity=62 time=0
EXTRACT: note_on channel=2 note=81 velocity=74 time=0
EXTRACT: note_on channel=3 note=60 velocity=83 time=0
EXTRACT: note_on channel=9 note=36 velocity=101 time=0
EXTRACT: note_on channel=9 note=42 velocity=99 time=0
EXTRACT: note_on channel=3 note=69 velocity=75 time=0.01153845
EXTRACT: note_on channel=3 note=64 velocity=97 time=0.01153845
EXTRACT: note_on channel=9 note=54 velocity=0 time=0.0846153
EXTRACT: note_on channel=9 note=54 velocity=7 time=0
EXTRACT: note_on channel=9 note=36 velocity=0 time=0.0076923
EXTRACT: note_on channel=9 note=42 velocity=0 time=0
EXTRACT: note_on channel=9 note=54 velocity=0 time=0.1076922
EXTRACT: note_on channel=9 note=54 velocity=7 time=0
EXTRACT: note_on channel=1 note=33 velocity=0 time=0.0076923
EXTRACT: note_on channel=9 note=42 velocity=27 time=0
EXTRACT: note_on channel=9 note=62 velocity=34 time=0
EXTRACT: note_on channel=9 note=54 velocity=0 time=0.1076922
EXTRACT: note_on channel=9 note=54 velocity=7 time=0
EXTRACT: note_on channel=9 note=42 velocity=0 time=0.0076923
EXTRACT: note_on channel=9 note=62 velocity=0 time=0
EXTRACT: note_on channel=9 note=54 velocity=0 time=0.1076922
EXTRACT: note_on channel=9 note=54 velocity=10 time=0
EXTRACT: note_on channel=1 note=33 velocity=90 time=0.0076923
EXTRACT: note_on channel=3 note=64 velocity=0 time=0
EXTRACT: note_on channel=3 note=69 velocity=0 time=0
EXTRACT: note_on channel=3 note=60 velocity=0 time=0
EXTRACT: note_on channel=3 note=60 velocity=88 time=0
EXTRACT: note_on channel=9 note=40 velocity=93 time=0
EXTRACT: note_on channel=9 note=42 velocity=94 time=0
EXTRACT: note_on channel=9 note=62 velocity=46 time=0
EXTRACT: note_on channel=9 note=39 velocity=93 time=0
EXTRACT: note_on channel=3 note=69 velocity=85 time=0.01153845
EXTRACT: note_on channel=3 note=64 velocity=104 time=0.01153845
EXTRACT: note_on channel=9 note=54 velocity=0 time=0.0846153
EXTRACT: note_on channel=9 note=54 velocity=13 time=0
EXTRACT: note_on channel=3 note=64 velocity=0 time=0.0076923
EXTRACT: note_on channel=3 note=69 velocity=0 time=0
EXTRACT: note_on channel=3 note=60 velocity=0 time=0
EXTRACT: note_on channel=9 note=40 velocity=0 time=0
EXTRACT: note_on channel=9 note=42 velocity=0 time=0
EXTRACT: note_on channel=9 note=62 velocity=0 time=0
EXTRACT: note_on channel=9 note=39 velocity=0 time=0
EXTRACT: note_on channel=9 note=54 velocity=0 time=0.1076922
EXTRACT: note_on channel=9 note=54 velocity=12 time=0
EXTRACT: note_on channel=1 note=33 velocity=0 time=0.0076923
EXTRACT: note_on channel=9 note=42 velocity=23 time=0
EXTRACT: note_on channel=9 note=64 velocity=66 time=0
EXTRACT: note_on channel=9 note=54 velocity=0 time=0.1076922
EXTRACT: note_on channel=9 note=54 velocity=13 time=0
EXTRACT: note_on channel=9 note=42 velocity=0 time=0.0076923
EXTRACT: note_on channel=9 note=64 velocity=0 time=0
EXTRACT: note_on channel=9 note=54 velocity=0 time=0.1076922
EXTRACT: note_on channel=9 note=54 velocity=42 time=0
EXTRACT: note_on channel=1 note=33 velocity=99 time=0.0076923
EXTRACT: note_on channel=9 note=36 velocity=85 time=0
EXTRACT: note_on channel=9 note=42 velocity=99 time=0
EXTRACT: note_on channel=9 note=54 velocity=0 time=0.1076922
EXTRACT: note_on channel=9 note=54 velocity=28 time=0
EXTRACT: note_on channel=6 note=72 velocity=0 time=0.0076923
EXTRACT: note_on channel=6 note=60 velocity=0 time=0
EXTRACT: note_on channel=9 note=36 velocity=0 time=0
EXTRACT: note_on channel=9 note=42 velocity=0 time=0
EXTRACT: note_on channel=9 note=54 velocity=0 time=0.1076922
EXTRACT: note_on channel=9 note=54 velocity=28 time=0
EXTRACT: note_on channel=1 note=33 velocity=0 time=0.0076923
EXTRACT: note_on channel=1 note=29 velocity=76 time=0
EXTRACT: note_on channel=3 note=69 velocity=85 time=0
EXTRACT: note_on channel=6 note=58 velocity=100 time=0
EXTRACT: note_on channel=6 note=70 velocity=100 time=0
EXTRACT: note_on channel=9 note=36 velocity=83 time=0
EXTRACT: note_on channel=9 note=42 velocity=53 time=0
EXTRACT: note_on channel=9 note=62 velocity=37 time=0
EXTRACT: note_on channel=3 note=60 velocity=90 time=0.01153845
EXTRACT: note_on channel=3 note=64 velocity=104 time=0.01153845
EXTRACT: note_on channel=9 note=54 velocity=0 time=0.0846153
EXTRACT: note_on channel=9 note=54 velocity=28 time=0
EXTRACT: note_on channel=3 note=64 velocity=0 time=0.0076923
EXTRACT: note_on channel=3 note=60 velocity=0 time=0
EXTRACT: note_on channel=3 note=69 velocity=0 time=0
EXTRACT: note_on channel=9 note=36 velocity=0 time=0
EXTRACT: note_on channel=9 note=42 velocity=0 time=0
EXTRACT: note_on channel=9 note=62 velocity=0 time=0
EXTRACT: note_on channel=9 note=54 velocity=0 time=0.1076922
EXTRACT: note_on channel=9 note=54 velocity=41 time=0
EXTRACT: note_on channel=0 note=57 velocity=0 time=0.0076923
EXTRACT: note_on channel=1 note=29 velocity=0 time=0
EXTRACT: note_on channel=1 note=33 velocity=101 time=0
EXTRACT: note_on channel=6 note=70 velocity=0 time=0
EXTRACT: note_on channel=6 note=58 velocity=0 time=0
EXTRACT: note_on channel=6 note=60 velocity=90 time=0
EXTRACT: note_on channel=6 note=69 velocity=90 time=0
EXTRACT: note_on channel=9 note=40 velocity=100 time=0
EXTRACT: note_on channel=9 note=42 velocity=99 time=0
EXTRACT: note_on channel=9 note=62 velocity=43 time=0
EXTRACT: note_on channel=9 note=39 velocity=100 time=0
EXTRACT: note_on channel=9 note=54 velocity=0 time=0.1076922
EXTRACT: note_on channel=9 note=54 velocity=28 time=0
EXTRACT: note_on channel=0 note=48 velocity=0 time=0.0076923
EXTRACT: note_on channel=0 note=52 velocity=0 time=0
EXTRACT: note_on channel=9 note=40 velocity=0 time=0
EXTRACT: note_on channel=9 note=42 velocity=0 time=0
EXTRACT: note_on channel=9 note=62 velocity=0 time=0
EXTRACT: note_on channel=9 note=39 velocity=0 time=0
EXTRACT: note_on channel=9 note=54 velocity=0 time=0.1076922
EXTRACT: note_on channel=9 note=54 velocity=31 time=0
EXTRACT: note_on channel=0 note=50 velocity=72 time=0.0076923
EXTRACT: note_on channel=0 note=47 velocity=69 time=0
EXTRACT: note_on channel=0 note=55 velocity=68 time=0
EXTRACT: note_on channel=1 note=33 velocity=0 time=0
EXTRACT: note_on channel=1 note=31 velocity=86 time=0
EXTRACT: note_on channel=2 note=81 velocity=0 time=0
EXTRACT: note_on channel=2 note=84 velocity=0 time=0
EXTRACT: note_on channel=2 note=88 velocity=0 time=0
EXTRACT: note_on channel=2 note=86 velocity=58 time=0
EXTRACT: note_on channel=2 note=83 velocity=71 time=0
EXTRACT: note_on channel=2 note=79 velocity=73 time=0
EXTRACT: note_on channel=3 note=59 velocity=90 time=0
EXTRACT: note_on channel=6 note=69 velocity=0 time=0
EXTRACT: note_on channel=6 note=60 velocity=0 time=0
EXTRACT: note_on channel=6 note=62 velocity=92 time=0
EXTRACT: note_on channel=6 note=67 velocity=92 time=0
EXTRACT: note_on channel=9 note=36 velocity=71 time=0
EXTRACT: note_on channel=9 note=42 velocity=31 time=0
EXTRACT: note_on channel=9 note=63 velocity=58 time=0
EXTRACT: note_on channel=3 note=67 velocity=83 time=0.01153845
EXTRACT: note_on channel=3 note=62 velocity=104 time=0.01153845
EXTRACT: note_on channel=9 note=54 velocity=0 time=0.0846153
EXTRACT: note_on channel=9 note=54 velocity=37 time=0
EXTRACT: note_on channel=9 note=36 velocity=0 time=0.0076923
EXTRACT: note_on channel=9 note=42 velocity=0 time=0
EXTRACT: note_on channel=9 note=63 velocity=0 time=0
EXTRACT: note_on channel=9 note=54 velocity=0 time=0.1076922
EXTRACT: note_on channel=9 note=54 velocity=41 time=0
EXTRACT: note_on channel=9 note=36 velocity=101 time=0.0076923
EXTRACT: note_on channel=9 note=42 velocity=99 time=0
EXTRACT: note_on channel=9 note=54 velocity=0 time=0.1076922
EXTRACT: note_on channel=9 note=54 velocity=10 time=0
EXTRACT: note_on channel=1 note=31 velocity=0 time=0.0076923
EXTRACT: note_on channel=9 note=36 velocity=0 time=0
EXTRACT: note_on channel=9 note=42 velocity=0 time=0
EXTRACT: note_on channel=9 note=54 velocity=0 time=0.1076922
EXTRACT: note_on channel=9 note=54 velocity=10 time=0
EXTRACT: note_on channel=1 note=31 velocity=94 time=0.0076923
EXTRACT: note_on channel=9 note=42 velocity=42 time=0
EXTRACT: note_on channel=9 note=62 velocity=38 time=0
EXTRACT: note_on channel=9 note=54 velocity=0 time=0.1076922
EXTRACT: note_on channel=9 note=54 velocity=11 time=0
EXTRACT: note_on channel=9 note=42 velocity=0 time=0.0076923
EXTRACT: note_on channel=9 note=62 velocity=0 time=0
EXTRACT: note_on channel=9 note=54 velocity=0 time=0.1076922
EXTRACT: note_on channel=9 note=54 velocity=11 time=0
EXTRACT: note_on channel=1 note=31 velocity=0 time=0.0076923
EXTRACT: note_on channel=3 note=62 velocity=0 time=0
EXTRACT: note_on channel=3 note=67 velocity=0 time=0
EXTRACT: note_on channel=3 note=59 velocity=0 time=0
EXTRACT: note_on channel=3 note=59 velocity=94 time=0
EXTRACT: note_on channel=9 note=40 velocity=93 time=0
EXTRACT: note_on channel=9 note=42 velocity=99 time=0
EXTRACT: note_on channel=9 note=62 velocity=49 time=0
EXTRACT: note_on channel=9 note=39 velocity=93 time=0
EXTRACT: note_on channel=3 note=67 velocity=90 time=0.01153845
EXTRACT: note_on channel=3 note=62 velocity=110 time=0.01153845
EXTRACT: note_on channel=9 note=54 velocity=0 time=0.0846153
EXTRACT: note_on channel=9 note=54 velocity=11 time=0
EXTRACT: note_on channel=3 note=62 velocity=0 time=0.0076923
EXTRACT: note_on channel=3 note=67 velocity=0 time=0
EXTRACT: note_on channel=3 note=59 velocity=0 time=0
EXTRACT: note_on channel=9 note=40 velocity=0 time=0
EXTRACT: note_on channel=9 note=42 velocity=0 time=0
EXTRACT: note_on channel=9 note=62 velocity=0 time=0
EXTRACT: note_on channel=9 note=39 velocity=0 time=0
EXTRACT: note_on channel=9 note=54 velocity=0 time=0.1076922
EXTRACT: note_on channel=9 note=54 velocity=13 time=0
EXTRACT: note_on channel=1 note=31 velocity=99 time=0.0076923
EXTRACT: note_on channel=9 note=42 velocity=46 time=0
EXTRACT: note_on channel=9 note=64 velocity=70 time=0
EXTRACT: note_on channel=9 note=54 velocity=0 time=0.1076922
EXTRACT: note_on channel=9 note=54 velocity=13 time=0
EXTRACT: note_on channel=9 note=42 velocity=0 time=0.0076923
EXTRACT: note_on channel=9 note=64 velocity=0 time=0
EXTRACT: note_on channel=9 note=54 velocity=0 time=0.1076922
EXTRACT: note_on channel=9 note=54 velocity=38 time=0
EXTRACT: note_on channel=9 note=36 velocity=94 time=0.0076923
EXTRACT: note_on channel=9 note=42 velocity=94 time=0
EXTRACT: note_on channel=9 note=54 velocity=0 time=0.1076922
EXTRACT: note_on channel=9 note=54 velocity=27 time=0
EXTRACT: note_on channel=9 note=36 velocity=0 time=0.0076923
EXTRACT: note_on channel=9 note=42 velocity=0 time=0
EXTRACT: note_on channel=9 note=54 velocity=0 time=0.1076922
EXTRACT: note_on channel=9 note=54 velocity=27 time=0
EXTRACT: note_on channel=1 note=31 velocity=0 time=0.0076923
EXTRACT: note_on channel=1 note=33 velocity=85 time=0
EXTRACT: note_on channel=3 note=67 velocity=92 time=0
EXTRACT: note_on channel=9 note=36 velocity=88 time=0
EXTRACT: note_on channel=9 note=42 velocity=46 time=0
EXTRACT: note_on channel=9 note=62 velocity=48 time=0
EXTRACT: note_on channel=3 note=59 velocity=97 time=0.01153845
EXTRACT: note_on channel=3 note=62 velocity=107 time=0.01153845
EXTRACT: note_on channel=9 note=54 velocity=0 time=0.0846153
EXTRACT: note_on channel=9 note=54 velocity=27 time=0
EXTRACT: note_on channel=3 note=62 velocity=0 time=0.0076923
EXTRACT: note_on channel=3 note=59 velocity=0 time=0
EXTRACT: note_on channel=3 note=67 velocity=0 time=0
EXTRACT: note_on channel=9 note=36 velocity=0 time=0
EXTRACT: note_on channel=9 note=42 velocity=0 time=0
EXTRACT: note_on channel=9 note=62 velocity=0 time=0
EXTRACT: note_on channel=9 note=54 velocity=0 time=0.1076922
EXTRACT: note_on channel=9 note=54 velocity=36 time=0
EXTRACT: note_on channel=1 note=33 velocity=0 time=0.0076923
EXTRACT: note_on channel=1 note=36 velocity=74 time=0
EXTRACT: note_on channel=6 note=67 velocity=0 time=0
EXTRACT: note_on channel=6 note=62 velocity=0 time=0
EXTRACT: note_on channel=9 note=40 velocity=93 time=0
EXTRACT: note_on channel=9 note=42 velocity=89 time=0
EXTRACT: note_on channel=9 note=62 velocity=52 time=0
EXTRACT: note_on channel=9 note=39 velocity=93 time=0
EXTRACT: note_on channel=9 note=54 velocity=0 time=0.1076922
EXTRACT: note_on channel=9 note=54 velocity=27 time=0
EXTRACT: note_on channel=9 note=40 velocity=0 time=0.0076923
EXTRACT: note_on channel=9 note=42 velocity=0 time=0
EXTRACT: note_on channel=9 note=62 velocity=0 time=0
EXTRACT: note_on channel=9 note=39 velocity=0 time=0
EXTRACT: note_on channel=9 note=54 velocity=0 time=0.1076922
EXTRACT: note_on channel=9 note=54 velocity=28 time=0
EXTRACT: note_on channel=0 note=47 velocity=0 time=0.0076923
EXTRACT: note_on channel=1 note=36 velocity=0 time=0
EXTRACT: note_on channel=1 note=33 velocity=72 time=0
EXTRACT: note_on channel=9 note=36 velocity=71 time=0
EXTRACT: note_on channel=9 note=42 velocity=51 time=0
EXTRACT: note_on channel=9 note=63 velocity=67 time=0
EXTRACT: note_on channel=9 note=54 velocity=0 time=0.1076922
EXTRACT: note_on channel=9 note=54 velocity=38 time=0
EXTRACT: note_on channel=0 note=55 velocity=0 time=0.0076923
EXTRACT: note_on channel=0 note=50 velocity=0 time=0
EXTRACT: note_on channel=2 note=79 velocity=0 time=0
EXTRACT: note_on channel=2 note=83 velocity=0 time=0
EXTRACT: note_on channel=2 note=86 velocity=0 time=0
EXTRACT: note_on channel=9 note=36 velocity=0 time=0
EXTRACT: note_on channel=9 note=42 velocity=0 time=0
EXTRACT: note_on channel=9 note=63 velocity=0 time=0
EXTRACT: note_on channel=9 note=54 velocity=0 time=0.1076922
EXTRACT: note_on channel=9 note=54 velocity=39 time=0
EXTRACT: note_on channel=0 note=55 velocity=72 time=0.0076923
EXTRACT: note_on channel=0 note=52 velocity=66 time=0
EXTRACT: note_on channel=0 note=60 velocity=67 time=0
EXTRACT: note_on channel=1 note=33 velocity=0 time=0
EXTRACT: note_on channel=1 note=36 velocity=107 time=0
EXTRACT: note_on channel=2 note=84 velocity=74 time=0
EXTRACT: note_on channel=2 note=79 velocity=60 time=0
EXTRACT: note_on channel=2 note=88 velocity=75 time=0
EXTRACT: note_on channel=3 note=64 velocity=88 time=0
EXTRACT: note_on channel=6 note=60 velocity=116 time=0
EXTRACT: note_on channel=6 note=72 velocity=116 time=0
EXTRACT: note_on channel=9 note=36 velocity=97 time=0
EXTRACT: note_on channel=9 note=42 velocity=99 time=0
EXTRACT: note_on channel=9 note=63 velocity=50 time=0
EXTRACT: note_on channel=3 note=72 velocity=78 time=0.01153845
EXTRACT: note_on channel=3 note=67 velocity=104 time=0.01153845
EXTRACT: note_on channel=9 note=54 velocity=0 time=0.0846153
EXTRACT: note_on channel=9 note=54 velocity=7 time=0
EXTRACT: note_on channel=9 note=36 velocity=0 time=0.0076923
EXTRACT: note_on channel=9 note=42 velocity=0 time=0
EXTRACT: note_on channel=9 note=63 velocity=0 time=0
EXTRACT: note_on channel=9 note=54 velocity=0 time=0.1076922
EXTRACT: note_on channel=9 note=54 velocity=7 time=0
EXTRACT: note_on channel=1 note=36 velocity=0 time=0.0076923
EXTRACT: note_on channel=9 note=42 velocity=32 time=0
EXTRACT: note_on channel=9 note=62 velocity=56 time=0
EXTRACT: note_on channel=9 note=54 velocity=0 time=0.1076922
EXTRACT: note_on channel=9 note=54 velocity=7 time=0
EXTRACT: note_on channel=3 note=67 velocity=0 time=0.0076923
EXTRACT: note_on channel=3 note=72 velocity=0 time=0
EXTRACT: note_on channel=3 note=64 velocity=0 time=0
EXTRACT: note_on channel=9 note=42 velocity=0 time=0
EXTRACT: note_on channel=9 note=62 velocity=0 time=0
EXTRACT: note_on channel=9 note=54 velocity=0 time=0.1076922
EXTRACT: note_on channel=9 note=54 velocity=10 time=0
EXTRACT: note_on channel=1 note=36 velocity=110 time=0.0076923
EXTRACT: note_on channel=3 note=64 velocity=88 time=0
EXTRACT: note_on channel=6 note=72 velocity=0 time=0
EXTRACT: note_on channel=6 note=60 velocity=0 time=0
EXTRACT: note_on channel=9 note=40 velocity=93 time=0
EXTRACT: note_on channel=9 note=42 velocity=99 time=0
EXTRACT: note_on channel=9 note=62 velocity=58 time=0
EXTRACT: note_on channel=9 note=39 velocity=93 time=0
EXTRACT: note_on channel=3 note=67 velocity=104 time=0.01153845
EXTRACT: note_on channel=3 note=72 velocity=94 time=0.01153845
EXTRACT: note_on channel=9 note=54 velocity=0 time=0.0846153
EXTRACT: note_on channel=9 note=54 velocity=13 time=0
EXTRACT: note_on channel=3 note=72 velocity=0 time=0.0076923
EXTRACT: note_on channel=3 note=67 velocity=0 time=0
EXTRACT: note_on channel=3 note=64 velocity=0 time=0
EXTRACT: note_on channel=9 note=40 velocity=0 time=0
EXTRACT: note_on channel=9 note=42 velocity=0 time=0
EXTRACT: note_on channel=9 note=62 velocity=0 time=0
EXTRACT: note_on channel=9 note=39 velocity=0 time=0
EXTRACT: note_on channel=9 note=54 velocity=0 time=0.1076922
EXTRACT: note_on channel=9 note=54 velocity=12 time=0
EXTRACT: note_on channel=1 note=36 velocity=0 time=0.0076923
EXTRACT: note_on channel=9 note=42 velocity=49 time=0
EXTRACT: note_on channel=9 note=64 velocity=70 time=0
EXTRACT: note_on channel=9 note=54 velocity=0 time=0.1076922
EXTRACT: note_on channel=9 note=54 velocity=13 time=0
EXTRACT: note_on channel=9 note=42 velocity=0 time=0.0076923
EXTRACT: note_on channel=9 note=64 velocity=0 time=0
EXTRACT: note_on channel=9 note=54 velocity=0 time=0.1076922
EXTRACT: note_on channel=9 note=54 velocity=42 time=0
EXTRACT: note_on channel=1 note=36 velocity=104 time=0.0076923
EXTRACT: note_on channel=6 note=60 velocity=115 time=0
EXTRACT: note_on channel=6 note=72 velocity=115 time=0
EXTRACT: note_on channel=9 note=36 velocity=88 time=0
EXTRACT: note_on channel=9 note=42 velocity=84 time=0
EXTRACT: note_on channel=9 note=54 velocity=0 time=0.1076922
EXTRACT: note_on channel=9 note=54 velocity=28 time=0
EXTRACT: note_on channel=9 note=36 velocity=0 time=0.0076923
EXTRACT: note_on channel=9 note=42 velocity=0 time=0
EXTRACT: note_on channel=6 note=72 velocity=0 time=0.0384615
EXTRACT: note_on channel=6 note=60 velocity=0 time=0
EXTRACT: note_on channel=9 note=54 velocity=0 time=0.0692307
EXTRACT: note_on channel=9 note=54 velocity=28 time=0
EXTRACT: note_on channel=1 note=36 velocity=0 time=0.0076923
EXTRACT: note_on channel=1 note=31 velocity=71 time=0
EXTRACT: note_on channel=3 note=72 velocity=86 time=0
EXTRACT: note_on channel=9 note=36 velocity=94 time=0
EXTRACT: note_on channel=9 note=42 velocity=53 time=0
EXTRACT: note_on channel=9 note=62 velocity=36 time=0
EXTRACT: note_on channel=3 note=64 velocity=86 time=0.01153845
EXTRACT: note_on channel=3 note=67 velocity=104 time=0.01153845
EXTRACT: note_on channel=9 note=54 velocity=0 time=0.0846153
EXTRACT: note_on channel=9 note=54 velocity=28 time=0
EXTRACT: note_on channel=3 note=67 velocity=0 time=0.0076923
EXTRACT: note_on channel=3 note=64 velocity=0 time=0
EXTRACT: note_on channel=3 note=72 velocity=0 time=0
EXTRACT: note_on channel=9 note=36 velocity=0 time=0
EXTRACT: note_on channel=9 note=42 velocity=0 time=0
EXTRACT: note_on channel=9 note=62 velocity=0 time=0
EXTRACT: note_on channel=9 note=54 velocity=0 time=0.1076922
EXTRACT: note_on channel=9 note=54 velocity=41 time=0
EXTRACT: note_on channel=0 note=55 velocity=0 time=0.0076923
EXTRACT: note_on channel=1 note=31 velocity=0 time=0
EXTRACT: note_on channel=1 note=33 velocity=83 time=0
EXTRACT: note_on channel=6 note=64 velocity=113 time=0
EXTRACT: note_on channel=6 note=76 velocity=113 time=0
EXTRACT: note_on channel=9 note=40 velocity=93 time=0
EXTRACT: note_on channel=9 note=42 velocity=94 time=0
EXTRACT: note_on channel=9 note=62 velocity=52 time=0
EXTRACT: note_on channel=9 note=39 velocity=93 time=0
EXTRACT: note_on channel=9 note=54 velocity=0 time=0.1076922
EXTRACT: note_on channel=9 note=54 velocity=28 time=0
EXTRACT: note_on channel=0 note=60 velocity=0 time=0.0076923
EXTRACT: note_on channel=0 note=52 velocity=0 time=0
EXTRACT: note_on channel=9 note=40 velocity=0 time=0
EXTRACT: note_on channel=9 note=42 velocity=0 time=0
EXTRACT: note_on channel=9 note=62 velocity=0 time=0
EXTRACT: note_on channel=9 note=39 velocity=0 time=0
EXTRACT: note_on channel=9 note=54 velocity=0 time=0.1076922
EXTRACT: note_on channel=9 note=54 velocity=31 time=0
EXTRACT: note_on channel=0 note=53 velocity=78 time=0.0076923
EXTRACT: note_on channel=0 note=50 velocity=64 time=0
EXTRACT: note_on channel=0 note=58 velocity=68 time=0
EXTRACT: note_on channel=1 note=33 velocity=0 time=0
EXTRACT: note_on channel=1 note=34 velocity=104 time=0
EXTRACT: note_on channel=2 note=84 velocity=0 time=0
EXTRACT: note_on channel=2 note=82 velocity=68 time=0
EXTRACT: note_on channel=3 note=62 velocity=86 time=0
EXTRACT: note_on channel=6 note=76 velocity=0 time=0
EXTRACT: note_on channel=6 note=64 velocity=0 time=0
EXTRACT: note_on channel=6 note=65 velocity=97 time=0
EXTRACT: note_on channel=6 note=77 velocity=97 time=0
EXTRACT: note_on channel=9 note=36 velocity=70 time=0
EXTRACT: note_on channel=9 note=42 velocity=38 time=0
EXTRACT: note_on channel=9 note=63 velocity=56 time=0
EXTRACT: note_on channel=3 note=65 velocity=94 time=0.01153845
EXTRACT: note_on channel=3 note=70 velocity=92 time=0.01153845
EXTRACT: note_on channel=9 note=54 velocity=0 time=0.0846153
EXTRACT: note_on channel=9 note=54 velocity=37 time=0
EXTRACT: note_on channel=9 note=36 velocity=0 time=0.0076923
EXTRACT: note_on channel=9 note=42 velocity=0 time=0
EXTRACT: note_on channel=9 note=63 velocity=0 time=0
EXTRACT: note_on channel=9 note=54 velocity=0 time=0.1076922
EXTRACT: note_on channel=9 note=54 velocity=41 time=0
EXTRACT: note_on channel=9 note=36 velocity=104 time=0.0076923
EXTRACT: note_on channel=9 note=42 velocity=94 time=0
EXTRACT: note_on channel=9 note=54 velocity=0 time=0.1076922
EXTRACT: note_on channel=9 note=54 velocity=10 time=0
EXTRACT: note_on channel=9 note=36 velocity=0 time=0.0076923
EXTRACT: note_on channel=9 note=42 velocity=0 time=0
EXTRACT: note_on channel=9 note=54 velocity=0 time=0.1076922
EXTRACT: note_on channel=9 note=54 velocity=10 time=0
EXTRACT: note_on channel=1 note=34 velocity=0 time=0.0076923
EXTRACT: note_on channel=1 note=29 velocity=83 time=0
EXTRACT: note_on channel=9 note=42 velocity=40 time=0
EXTRACT: note_on channel=9 note=62 velocity=46 time=0
EXTRACT: note_on channel=9 note=54 velocity=0 time=0.1076922
EXTRACT: note_on channel=9 note=54 velocity=11 time=0
EXTRACT: note_on channel=3 note=70 velocity=0 time=0.0076923
EXTRACT: note_on channel=3 note=65 velocity=0 time=0
EXTRACT: note_on channel=3 note=62 velocity=0 time=0
EXTRACT: note_on channel=9 note=42 velocity=0 time=0
EXTRACT: note_on channel=9 note=62 velocity=0 time=0
EXTRACT: note_on channel=9 note=54 velocity=0 time=0.1076922
EXTRACT: note_on channel=9 note=54 velocity=11 time=0
EXTRACT: note_on channel=1 note=29 velocity=0 time=0.0076923
EXTRACT: note_on channel=1 note=31 velocity=68 time=0
EXTRACT: note_on channel=3 note=65 velocity=94 time=0
EXTRACT: note_on channel=9 note=40 velocity=87 time=0
EXTRACT: note_on channel=9 note=42 velocity=94 time=0
EXTRACT: note_on channel=9 note=62 velocity=50 time=0
EXTRACT: note_on channel=9 note=39 velocity=87 time=0
EXTRACT: note_on channel=3 note=62 velocity=85 time=0.01153845
EXTRACT: note_on channel=3 note=70 velocity=104 time=0.01153845
EXTRACT: note_on channel=9 note=54 velocity=0 time=0.0846153
EXTRACT: note_on channel=9 note=54 velocity=11 time=0
EXTRACT: note_on channel=3 note=70 velocity=0 time=0.0076923
EXTRACT: note_on channel=3 note=62 velocity=0 time=0
EXTRACT: note_on channel=3 note=65 velocity=0 time=0
EXTRACT: note_on channel=9 note=40 velocity=0 time=0
EXTRACT: note_on channel=9 note=42 velocity=0 time=0
EXTRACT: note_on channel=9 note=62 velocity=0 time=0
EXTRACT: note_on channel=9 note=39 velocity=0 time=0
EXTRACT: note_on channel=9 note=54 velocity=0 time=0.1076922
EXTRACT: note_on channel=9 note=54 velocity=13 time=0
EXTRACT: note_on channel=1 note=31 velocity=0 time=0.0076923
EXTRACT: note_on channel=1 note=34 velocity=96 time=0
EXTRACT: note_on channel=9 note=42 velocity=34 time=0
EXTRACT: note_on channel=9 note=64 velocity=66 time=0
EXTRACT: note_on channel=9 note=54 velocity=0 time=0.1076922
EXTRACT: note_on channel=9 note=54 velocity=13 time=0
EXTRACT: note_on channel=9 note=42 velocity=0 time=0.0076923
EXTRACT: note_on channel=9 note=64 velocity=0 time=0
EXTRACT: note_on channel=9 note=54 velocity=0 time=0.1076922
EXTRACT: note_on channel=9 note=54 velocity=38 time=0
EXTRACT: note_on channel=9 note=36 velocity=86 time=0.0076923
EXTRACT: note_on channel=9 note=42 velocity=94 time=0
EXTRACT: note_on channel=9 note=54 velocity=0 time=0.1076922
EXTRACT: note_on channel=9 note=54 velocity=27 time=0
EXTRACT: note_on channel=6 note=77 velocity=0 time=0.0076923
EXTRACT: note_on channel=6 note=65 velocity=0 time=0
EXTRACT: note_on channel=9 note=36 velocity=0 time=0
EXTRACT: note_on channel=9 note=42 velocity=0 time=0
EXTRACT: note_on channel=9 note=54 velocity=0 time=0.1076922
EXTRACT: note_on channel=9 note=54 velocity=27 time=0
EXTRACT: note_on channel=1 note=34 velocity=0 time=0.0076923
EXTRACT: note_on channel=1 note=29 velocity=85 time=0
EXTRACT: note_on channel=3 note=62 velocity=90 time=0
EXTRACT: note_on channel=6 note=67 velocity=109 time=0
EXTRACT: note_on channel=6 note=79 velocity=109 time=0
EXTRACT: note_on channel=9 note=36 velocity=85 time=0
EXTRACT: note_on channel=9 note=42 velocity=31 time=0
EXTRACT: note_on channel=9 note=62 velocity=36 time=0
EXTRACT: note_on channel=3 note=65 velocity=101 time=0.01153845
EXTRACT: note_on channel=3 note=70 velocity=96 time=0.01153845
EXTRACT: note_on channel=9 note=54 velocity=0 time=0.0846153
EXTRACT: note_on channel=9 note=54 velocity=27 time=0
EXTRACT: note_on channel=3 note=70 velocity=0 time=0.0076923
EXTRACT: note_on channel=3 note=65 velocity=0 time=0
EXTRACT: note_on channel=3 note=62 velocity=0 time=0
EXTRACT: note_on channel=6 note=79 velocity=0 time=0
EXTRACT: note_on channel=6 note=67 velocity=0 time=0
EXTRACT: note_on channel=9 note=36 velocity=0 time=0
EXTRACT: note_on channel=9 note=42 velocity=0 time=0
EXTRACT: note_on channel=9 note=62 velocity=0 time=0
EXTRACT: note_on channel=9 note=54 velocity=0 time=0.1076922
EXTRACT: note_on channel=9 note=54 velocity=36 time=0
EXTRACT: note_on channel=1 note=29 velocity=0 time=0.0076923
EXTRACT: note_on channel=1 note=31 velocity=71 time=0
EXTRACT: note_on channel=6 note=63 velocity=100 time=0
EXTRACT: note_on channel=6 note=75 velocity=100 time=0
EXTRACT: note_on channel=9 note=40 velocity=87 time=0
EXTRACT: note_on channel=9 note=42 velocity=99 time=0
EXTRACT: note_on channel=9 note=62 velocity=50 time=0
EXTRACT: note_on channel=9 note=39 velocity=87 time=0
EXTRACT: note_on channel=9 note=54 velocity=0 time=0.1076922
EXTRACT: note_on channel=9 note=54 velocity=27 time=0
EXTRACT: note_on channel=6 note=75 velocity=0 time=0.0076923
EXTRACT: note_on channel=6 note=63 velocity=0 time=0
EXTRACT: note_on channel=6 note=62 velocity=73 time=0
EXTRACT: note_on channel=6 note=74 velocity=73 time=0
EXTRACT: note_on channel=9 note=40 velocity=0 time=0
EXTRACT: note_on channel=9 note=42 velocity=0 time=0
EXTRACT: note_on channel=9 note=62 velocity=0 time=0
EXTRACT: note_on channel=9 note=39 velocity=0 time=0
EXTRACT: note_on channel=9 note=54 velocity=0 time=0.1076922
EXTRACT: note_on channel=9 note=54 velocity=28 time=0
EXTRACT: note_on channel=0 note=58 velocity=0 time=0.0076923
EXTRACT: note_on channel=0 note=53 velocity=0 time=0
EXTRACT: note_on channel=1 note=31 velocity=0 time=0
EXTRACT: note_on channel=1 note=34 velocity=92 time=0
EXTRACT: note_on channel=6 note=74 velocity=0 time=0
EXTRACT: note_on channel=6 note=62 velocity=0 time=0
EXTRACT: note_on channel=6 note=60 velocity=88 time=0
EXTRACT: note_on channel=6 note=72 velocity=88 time=0
EXTRACT: note_on channel=9 note=36 velocity=71 time=0
EXTRACT: note_on channel=9 note=42 velocity=38 time=0
EXTRACT: note_on channel=9 note=63 velocity=58 time=0
EXTRACT: note_on channel=9 note=54 velocity=0 time=0.1076922
EXTRACT: note_on channel=9 note=54 velocity=38 time=0
EXTRACT: note_on channel=0 note=50 velocity=0 time=0.0076923
EXTRACT: note_on channel=2 note=79 velocity=0 time=0
EXTRACT: note_on channel=9 note=36 velocity=0 time=0
EXTRACT: note_on channel=9 note=42 velocity=0 time=0
EXTRACT: note_on channel=9 note=63 velocity=0 time=0
EXTRACT: note_on channel=9 note=54 velocity=0 time=0.1076922
EXTRACT: note_on channel=9 note=54 velocity=39 time=0
EXTRACT: note_on channel=0 note=52 velocity=62 time=0.0076923
EXTRACT: note_on channel=0 note=48 velocity=62 time=0
EXTRACT: note_on channel=0 note=57 velocity=67 time=0
EXTRACT: note_on channel=1 note=34 velocity=0 time=0
EXTRACT: note_on channel=1 note=33 velocity=85 time=0
EXTRACT: note_on channel=2 note=82 velocity=0 time=0
EXTRACT: note_on channel=2 note=84 velocity=66 time=0
EXTRACT: note_on channel=2 note=81 velocity=70 time=0
EXTRACT: note_on channel=3 note=60 velocity=86 time=0
EXTRACT: note_on channel=9 note=36 velocity=101 time=0
EXTRACT: note_on channel=9 note=42 velocity=99 time=0
EXTRACT: note_on channel=3 note=69 velocity=85 time=0.01153845
EXTRACT: note_on channel=3 note=64 velocity=101 time=0.01153845
EXTRACT: note_on channel=9 note=54 velocity=0 time=0.0846153
EXTRACT: note_on channel=9 note=54 velocity=7 time=0
EXTRACT: note_on channel=9 note=36 velocity=0 time=0.0076923
EXTRACT: note_on channel=9 note=42 velocity=0 time=0
EXTRACT: note_on channel=9 note=54 velocity=0 time=0.1076922
EXTRACT: note_on channel=9 note=54 velocity=7 time=0
EXTRACT: note_on channel=1 note=33 velocity=0 time=0.0076923
EXTRACT: note_on channel=9 note=42 velocity=27 time=0
EXTRACT: note_on channel=9 note=62 velocity=34 time=0
EXTRACT: note_on channel=9 note=54 velocity=0 time=0.1076922
EXTRACT: note_on channel=9 note=54 velocity=7 time=0
EXTRACT: note_on channel=3 note=69 velocity=0 time=0.0076923
EXTRACT: note_on channel=9 note=42 velocity=0 time=0
EXTRACT: note_on channel=9 note=62 velocity=0 time=0
EXTRACT: note_on channel=9 note=54 velocity=0 time=0.1076922
EXTRACT: note_on channel=9 note=54 velocity=10 time=0
EXTRACT: note_on channel=1 note=33 velocity=90 time=0.0076923
EXTRACT: note_on channel=3 note=64 velocity=0 time=0
EXTRACT: note_on channel=3 note=60 velocity=0 time=0
EXTRACT: note_on channel=3 note=60 velocity=83 time=0
EXTRACT: note_on channel=9 note=40 velocity=93 time=0
EXTRACT: note_on channel=9 note=42 velocity=94 time=0
EXTRACT: note_on channel=9 note=62 velocity=46 time=0
EXTRACT: note_on channel=9 note=39 velocity=93 time=0
EXTRACT: note_on channel=3 note=69 velocity=85 time=0.01153845
EXTRACT: note_on channel=3 note=64 velocity=99 time=0.01153845
EXTRACT: note_on channel=9 note=54 velocity=0 time=0.0846153
EXTRACT: note_on channel=9 note=54 velocity=13 time=0
EXTRACT: note_on channel=3 note=64 velocity=0 time=0.0076923
EXTRACT: note_on channel=3 note=69 velocity=0 time=0
EXTRACT: note_on channel=3 note=60 velocity=0 time=0
EXTRACT: note_on channel=9 note=40 velocity=0 time=0
EXTRACT: note_on channel=9 note=42 velocity=0 time=0
EXTRACT: note_on channel=9 note=62 velocity=0 time=0
EXTRACT: note_on channel=9 note=39 velocity=0 time=0
EXTRACT: note_on channel=9 note=54 velocity=0 time=0.1076922
EXTRACT: note_on channel=9 note=54 velocity=12 time=0
EXTRACT: note_on channel=1 note=33 velocity=0 time=0.0076923
EXTRACT: note_on channel=9 note=42 velocity=23 time=0
EXTRACT: note_on channel=9 note=64 velocity=66 time=0
EXTRACT: note_on channel=9 note=54 velocity=0 time=0.1076922
EXTRACT: note_on channel=9 note=54 velocity=13 time=0
EXTRACT: note_on channel=9 note=42 velocity=0 time=0.0076923
EXTRACT: note_on channel=9 note=64 velocity=0 time=0
EXTRACT: note_on channel=9 note=54 velocity=0 time=0.1076922
EXTRACT: note_on channel=9 note=54 velocity=42 time=0
EXTRACT: note_on channel=1 note=33 velocity=99 time=0.0076923
EXTRACT: note_on channel=9 note=36 velocity=85 time=0
EXTRACT: note_on channel=9 note=42 velocity=99 time=0
EXTRACT: note_on channel=9 note=54 velocity=0 time=0.1076922
EXTRACT: note_on channel=9 note=54 velocity=28 time=0
EXTRACT: note_on channel=9 note=36 velocity=0 time=0.0076923
EXTRACT: note_on channel=9 note=42 velocity=0 time=0
EXTRACT: note_on channel=9 note=54 velocity=0 time=0.1076922
EXTRACT: note_on channel=9 note=54 velocity=28 time=0
EXTRACT: note_on channel=1 note=33 velocity=0 time=0.0076923
EXTRACT: note_on channel=1 note=29 velocity=76 time=0
EXTRACT: note_on channel=3 note=69 velocity=94 time=0
EXTRACT: note_on channel=9 note=36 velocity=83 time=0
EXTRACT: note_on channel=9 note=42 velocity=53 time=0
EXTRACT: note_on channel=9 note=62 velocity=37 time=0
EXTRACT: note_on channel=3 note=60 velocity=92 time=0.01153845
EXTRACT: note_on channel=3 note=64 velocity=104 time=0.01153845
EXTRACT: note_on channel=9 note=54 velocity=0 time=0.0846153
EXTRACT: note_on channel=9 note=54 velocity=28 time=0
EXTRACT: note_on channel=3 note=64 velocity=0 time=0.0076923
EXTRACT: note_on channel=3 note=60 velocity=0 time=0
EXTRACT: note_on channel=3 note=69 velocity=0 time=0
EXTRACT: note_on channel=9 note=36 velocity=0 time=0
EXTRACT: note_on channel=9 note=42 velocity=0 time=0
EXTRACT: note_on channel=9 note=62 velocity=0 time=0
EXTRACT: note_on channel=9 note=54 velocity=0 time=0.1076922
EXTRACT: note_on channel=9 note=54 velocity=41 time=0
EXTRACT: note_on channel=0 note=57 velocity=0 time=0.0076923
EXTRACT: note_on channel=1 note=29 velocity=0 time=0
EXTRACT: note_on channel=1 note=33 velocity=101 time=0
EXTRACT: note_on channel=9 note=40 velocity=100 time=0
EXTRACT: note_on channel=9 note=42 velocity=99 time=0
EXTRACT: note_on channel=9 note=62 velocity=43 time=0
EXTRACT: note_on channel=9 note=39 velocity=100 time=0
EXTRACT: note_on channel=9 note=54 velocity=0 time=0.1076922
EXTRACT: note_on channel=9 note=54 velocity=28 time=0
EXTRACT: note_on channel=0 note=48 velocity=0 time=0.0076923
EXTRACT: note_on channel=0 note=52 velocity=0 time=0
EXTRACT: note_on channel=2 note=81 velocity=0 time=0
EXTRACT: note_on channel=6 note=72 velocity=0 time=0
EXTRACT: note_on channel=6 note=60 velocity=0 time=0
EXTRACT: note_on channel=9 note=40 velocity=0 time=0
EXTRACT: note_on channel=9 note=42 velocity=0 time=0
EXTRACT: note_on channel=9 note=62 velocity=0 time=0
EXTRACT: note_on channel=9 note=39 velocity=0 time=0
EXTRACT: note_on channel=9 note=54 velocity=0 time=0.1076922
EXTRACT: note_on channel=9 note=54 velocity=31 time=0
EXTRACT: note_on channel=0 note=50 velocity=72 time=0.0076923
EXTRACT: note_on channel=0 note=47 velocity=69 time=0
EXTRACT: note_on channel=0 note=55 velocity=68 time=0
EXTRACT: note_on channel=1 note=33 velocity=0 time=0
EXTRACT: note_on channel=1 note=31 velocity=86 time=0
EXTRACT: note_on channel=2 note=84 velocity=0 time=0
EXTRACT: note_on channel=2 note=83 velocity=69 time=0
EXTRACT: note_on channel=2 note=79 velocity=66 time=0
EXTRACT: note_on channel=3 note=67 velocity=92 time=0
EXTRACT: note_on channel=9 note=36 velocity=71 time=0
EXTRACT: note_on channel=9 note=42 velocity=31 time=0
EXTRACT: note_on channel=9 note=63 velocity=58 time=0
EXTRACT: note_on channel=3 note=59 velocity=92 time=0.01153845
EXTRACT: note_on channel=3 note=62 velocity=107 time=0.01153845
EXTRACT: note_on channel=9 note=54 velocity=0 time=0.0846153
EXTRACT: note_on channel=9 note=54 velocity=37 time=0
EXTRACT: note_on channel=2 note=88 velocity=0 time=0.0076923
EXTRACT: note_on channel=9 note=36 velocity=0 time=0
EXTRACT: note_on channel=9 note=42 velocity=0 time=0
EXTRACT: note_on channel=9 note=63 velocity=0 time=0
EXTRACT: note_on channel=9 note=54 velocity=0 time=0.1076922
EXTRACT: note_on channel=9 note=54 velocity=41 time=0
EXTRACT: note_on channel=6 note=67 velocity=110 time=0.0076923
EXTRACT: note_on channel=6 note=79 velocity=110 time=0
EXTRACT: note_on channel=9 note=36 velocity=101 time=0
EXTRACT: note_on channel=9 note=42 velocity=99 time=0
EXTRACT: note_on channel=9 note=54 velocity=0 time=0.1076922
EXTRACT: note_on channel=9 note=54 velocity=10 time=0
EXTRACT: note_on channel=1 note=31 velocity=0 time=0.0076923
EXTRACT: note_on channel=9 note=36 velocity=0 time=0
EXTRACT: note_on channel=9 note=42 velocity=0 time=0
EXTRACT: note_on channel=9 note=54 velocity=0 time=0.1076922
EXTRACT: note_on channel=9 note=54 velocity=10 time=0
EXTRACT: note_on channel=1 note=31 velocity=94 time=0.0076923
EXTRACT: note_on channel=6 note=79 velocity=0 time=0
EXTRACT: note_on channel=6 note=67 velocity=0 time=0
EXTRACT: note_on channel=9 note=42 velocity=42 time=0
EXTRACT: note_on channel=9 note=62 velocity=38 time=0
EXTRACT: note_on channel=9 note=54 velocity=0 time=0.1076922
EXTRACT: note_on channel=9 note=54 velocity=11 time=0
EXTRACT: note_on channel=3 note=62 velocity=0 time=0.0076923
EXTRACT: note_on channel=3 note=59 velocity=0 time=0
EXTRACT: note_on channel=3 note=67 velocity=0 time=0
EXTRACT: note_on channel=9 note=42 velocity=0 time=0
EXTRACT: note_on channel=9 note=62 velocity=0 time=0
EXTRACT: note_on channel=9 note=54 velocity=0 time=0.1076922
EXTRACT: note_on channel=9 note=54 velocity=11 time=0
EXTRACT: note_on channel=1 note=31 velocity=0 time=0.0076923
EXTRACT: note_on channel=3 note=67 velocity=82 time=0
EXTRACT: note_on channel=6 note=67 velocity=113 time=0
EXTRACT: note_on channel=6 note=79 velocity=113 time=0
EXTRACT: note_on channel=9 note=40 velocity=93 time=0
EXTRACT: note_on channel=9 note=42 velocity=99 time=0
EXTRACT: note_on channel=9 note=62 velocity=49 time=0
EXTRACT: note_on channel=9 note=39 velocity=93 time=0
EXTRACT: note_on channel=3 note=59 velocity=85 time=0.01153845
EXTRACT: note_on channel=3 note=62 velocity=101 time=0.01153845
EXTRACT: note_on channel=9 note=54 velocity=0 time=0.0846153
EXTRACT: note_on channel=9 note=54 velocity=11 time=0
EXTRACT: note_on channel=3 note=62 velocity=0 time=0.0076923
EXTRACT: note_on channel=3 note=59 velocity=0 time=0
EXTRACT: note_on channel=3 note=67 velocity=0 time=0
EXTRACT: note_on channel=9 note=40 velocity=0 time=0
EXTRACT: note_on channel=9 note=42 velocity=0 time=0
EXTRACT: note_on channel=9 note=62 velocity=0 time=0
EXTRACT: note_on channel=9 note=39 velocity=0 time=0
EXTRACT: note_on channel=9 note=54 velocity=0 time=0.1076922
EXTRACT: note_on channel=9 note=54 velocity=13 time=0
EXTRACT: note_on channel=1 note=31 velocity=99 time=0.0076923
EXTRACT: note_on channel=6 note=79 velocity=0 time=0
EXTRACT: note_on channel=6 note=67 velocity=0 time=0
EXTRACT: note_on channel=9 note=42 velocity=46 time=0
EXTRACT: note_on channel=9 note=64 velocity=70 time=0
EXTRACT: note_on channel=9 note=54 velocity=0 time=0.1076922
EXTRACT: note_on channel=9 note=54 velocity=13 time=0
EXTRACT: note_on channel=9 note=42 velocity=0 time=0.0076923
EXTRACT: note_on channel=9 note=64 velocity=0 time=0
EXTRACT: note_on channel=9 note=54 velocity=0 time=0.1076922
EXTRACT: note_on channel=9 note=54 velocity=38 time=0
EXTRACT: note_on channel=6 note=67 velocity=104 time=0.0076923
EXTRACT: note_on channel=6 note=79 velocity=104 time=0
EXTRACT: note_on channel=9 note=36 velocity=94 time=0
EXTRACT: note_on channel=9 note=42 velocity=94 time=0
EXTRACT: note_on channel=9 note=54 velocity=0 time=0.1076922
EXTRACT: note_on channel=9 note=54 velocity=27 time=0
EXTRACT: note_on channel=9 note=36 velocity=0 time=0.0076923
EXTRACT: note_on channel=9 note=42 velocity=0 time=0
EXTRACT: note_on channel=9 note=54 velocity=0 time=0.1076922
EXTRACT: note_on channel=9 note=54 velocity=27 time=0
EXTRACT: note_on channel=1 note=31 velocity=0 time=0.0076923
EXTRACT: note_on channel=1 note=33 velocity=85 time=0
EXTRACT: note_on channel=3 note=67 velocity=94 time=0
EXTRACT: note_on channel=6 note=79 velocity=0 time=0
EXTRACT: note_on channel=6 note=67 velocity=0 time=0
EXTRACT: note_on channel=6 note=69 velocity=97 time=0
EXTRACT: note_on channel=6 note=81 velocity=97 time=0
EXTRACT: note_on channel=9 note=36 velocity=88 time=0
EXTRACT: note_on channel=9 note=42 velocity=46 time=0
EXTRACT: note_on channel=9 note=62 velocity=48 time=0
EXTRACT: note_on channel=3 note=59 velocity=94 time=0.01153845
EXTRACT: note_on channel=3 note=62 velocity=110 time=0.01153845
EXTRACT: note_on channel=9 note=54 velocity=0 time=0.0846153
EXTRACT: note_on channel=9 note=54 velocity=27 time=0
EXTRACT: note_on channel=3 note=62 velocity=0 time=0.0076923
EXTRACT: note_on channel=3 note=59 velocity=0 time=0
EXTRACT: note_on channel=3 note=67 velocity=0 time=0
EXTRACT: note_on channel=9 note=36 velocity=0 time=0
EXTRACT: note_on channel=9 note=42 velocity=0 time=0
EXTRACT: note_on channel=9 note=62 velocity=0 time=0
EXTRACT: note_on channel=9 note=54 velocity=0 time=0.1076922
EXTRACT: note_on channel=9 note=54 velocity=36 time=0
EXTRACT: note_on channel=1 note=33 velocity=0 time=0.0076923
EXTRACT: note_on channel=1 note=36 velocity=74 time=0
EXTRACT: note_on channel=6 note=81 velocity=0 time=0
EXTRACT: note_on channel=6 note=69 velocity=0 time=0
EXTRACT: note_on channel=6 note=72 velocity=101 time=0
EXTRACT: note_on channel=6 note=84 velocity=101 time=0
EXTRACT: note_on channel=9 note=40 velocity=93 time=0
EXTRACT: note_on channel=9 note=42 velocity=89 time=0
EXTRACT: note_on channel=9 note=62 velocity=52 time=0
EXTRACT: note_on channel=9 note=39 velocity=93 time=0
EXTRACT: note_on channel=9 note=54 velocity=0 time=0.1076922
EXTRACT: note_on channel=9 note=54 velocity=27 time=0
EXTRACT: note_on channel=9 note=40 velocity=0 time=0.0076923
EXTRACT: note_on channel=9 note=42 velocity=0 time=0
EXTRACT: note_on channel=9 note=62 velocity=0 time=0
EXTRACT: note_on channel=9 note=39 velocity=0 time=0
EXTRACT: note_on channel=9 note=54 velocity=0 time=0.1076922
EXTRACT: note_on channel=9 note=54 velocity=28 time=0
EXTRACT: note_on channel=0 note=47 velocity=0 time=0.0076923
EXTRACT: note_on channel=1 note=36 velocity=0 time=0
EXTRACT: note_on channel=1 note=33 velocity=72 time=0
EXTRACT: note_on channel=6 note=84 velocity=0 time=0
EXTRACT: note_on channel=6 note=72 velocity=0 time=0
EXTRACT: note_on channel=9 note=36 velocity=71 time=0
EXTRACT: note_on channel=9 note=42 velocity=51 time=0
EXTRACT: note_on channel=9 note=63 velocity=67 time=0
EXTRACT: note_on channel=9 note=54 velocity=0 time=0.1076922
EXTRACT: note_on channel=9 note=54 velocity=38 time=0
EXTRACT: note_on channel=0 note=55 velocity=0 time=0.0076923
EXTRACT: note_on channel=0 note=50 velocity=0 time=0
EXTRACT: note_on channel=2 note=79 velocity=0 time=0
EXTRACT: note_on channel=2 note=83 velocity=0 time=0
EXTRACT: note_on channel=9 note=36 velocity=0 time=0
EXTRACT: note_on channel=9 note=42 velocity=0 time=0
EXTRACT: note_on channel=9 note=63 velocity=0 time=0
EXTRACT: note_on channel=9 note=54 velocity=0 time=0.1076922
EXTRACT: note_on channel=9 note=54 velocity=39 time=0
EXTRACT: note_on channel=0 note=55 velocity=94 time=0.0076923
EXTRACT: note_on channel=0 note=60 velocity=97 time=0
EXTRACT: note_on channel=0 note=64 velocity=76 time=0
EXTRACT: note_on channel=1 note=33 velocity=0 time=0
EXTRACT: note_on channel=1 note=36 velocity=97 time=0
EXTRACT: note_on channel=9 note=36 velocity=97 time=0
EXTRACT: note_on channel=9 note=42 velocity=99 time=0
EXTRACT: note_on channel=9 note=49 velocity=78 time=0
EXTRACT: note_on channel=9 note=63 velocity=50 time=0
EXTRACT: note_on channel=9 note=49 velocity=0 time=0.05769225
EXTRACT: note_on channel=9 note=54 velocity=0 time=0.04999995
EXTRACT: note_on channel=9 note=54 velocity=7 time=0
EXTRACT: note_on channel=9 note=36 velocity=0 time=0.0076923
EXTRACT: note_on channel=9 note=42 velocity=0 time=0
EXTRACT: note_on channel=9 note=63 velocity=0 time=0
EXTRACT: note_on channel=9 note=54 velocity=0 time=0.1076922
EXTRACT: note_on channel=9 note=54 velocity=7 time=0
EXTRACT: note_on channel=1 note=36 velocity=0 time=0.0076923
EXTRACT: note_on channel=9 note=42 velocity=32 time=0
EXTRACT: note_on channel=9 note=62 velocity=56 time=0
EXTRACT: note_on channel=9 note=54 velocity=0 time=0.1076922
EXTRACT: note_on channel=9 note=54 velocity=7 time=0
EXTRACT: note_on channel=9 note=42 velocity=0 time=0.0076923
EXTRACT: note_on channel=9 note=62 velocity=0 time=0
EXTRACT: note_on channel=9 note=54 velocity=0 time=0.1076922
EXTRACT: note_on channel=9 note=54 velocity=10 time=0
EXTRACT: note_on channel=1 note=36 velocity=97 time=0.0076923
EXTRACT: note_on channel=3 note=67 velocity=101 time=0
EXTRACT: note_on channel=7 note=55 velocity=113 time=0
EXTRACT: note_on channel=9 note=40 velocity=93 time=0
EXTRACT: note_on channel=9 note=42 velocity=99 time=0
EXTRACT: note_on channel=9 note=62 velocity=58 time=0
EXTRACT: note_on channel=3 note=64 velocity=90 time=0.01153845
EXTRACT: note_on channel=3 note=72 velocity=94 time=0.01153845
EXTRACT: note_on channel=9 note=54 velocity=0 time=0.0846153
EXTRACT: note_on channel=9 note=54 velocity=13 time=0
EXTRACT: note_on channel=3 note=72 velocity=0 time=0.0076923
EXTRACT: note_on channel=3 note=64 velocity=0 time=0
EXTRACT: note_on channel=3 note=67 velocity=0 time=0
EXTRACT: note_on channel=9 note=40 velocity=0 time=0
EXTRACT: note_on channel=9 note=42 velocity=0 time=0
EXTRACT: note_on channel=9 note=62 velocity=0 time=0
EXTRACT: note_on channel=9 note=54 velocity=0 time=0.1076922
EXTRACT: note_on channel=9 note=54 velocity=12 time=0
EXTRACT: note_on channel=1 note=36 velocity=0 time=0.0076923
EXTRACT: note_on channel=7 note=55 velocity=0 time=0
EXTRACT: note_on channel=9 note=42 velocity=49 time=0
EXTRACT: note_on channel=9 note=64 velocity=70 time=0
EXTRACT: note_on channel=9 note=54 velocity=0 time=0.1076922
EXTRACT: note_on channel=9 note=54 velocity=13 time=0
EXTRACT: note_on channel=9 note=42 velocity=0 time=0.0076923
EXTRACT: note_on channel=9 note=64 velocity=0 time=0
EXTRACT: note_on channel=9 note=54 velocity=0 time=0.1076922
EXTRACT: note_on channel=9 note=54 velocity=42 time=0
EXTRACT: note_on channel=1 note=36 velocity=94 time=0.0076923
EXTRACT: note_on channel=7 note=55 velocity=117 time=0
EXTRACT: note_on channel=9 note=36 velocity=88 time=0
EXTRACT: note_on channel=9 note=42 velocity=84 time=0
EXTRACT: note_on channel=9 note=54 velocity=0 time=0.1076922
EXTRACT: note_on channel=9 note=54 velocity=28 time=0
EXTRACT: note_on channel=9 note=36 velocity=0 time=0.0076923
EXTRACT: note_on channel=9 note=42 velocity=0 time=0
EXTRACT: note_on channel=9 note=54 velocity=0 time=0.1076922
EXTRACT: note_on channel=9 note=54 velocity=28 time=0
EXTRACT: note_on channel=1 note=36 velocity=0 time=0.0076923
EXTRACT: note_on channel=1 note=31 velocity=79 time=0
EXTRACT: note_on channel=7 note=55 velocity=0 time=0
EXTRACT: note_on channel=7 note=60 velocity=110 time=0
EXTRACT: note_on channel=9 note=36 velocity=94 time=0
EXTRACT: note_on channel=9 note=42 velocity=53 time=0
EXTRACT: note_on channel=9 note=62 velocity=36 time=0
EXTRACT: note_on channel=9 note=54 velocity=0 time=0.1076922
EXTRACT: note_on channel=9 note=54 velocity=28 time=0
EXTRACT: note_on channel=9 note=36 velocity=0 time=0.0076923
EXTRACT: note_on channel=9 note=42 velocity=0 time=0
EXTRACT: note_on channel=9 note=62 velocity=0 time=0
EXTRACT: note_on channel=9 note=54 velocity=0 time=0.1076922
EXTRACT: note_on channel=9 note=54 velocity=41 time=0
EXTRACT: note_on channel=0 note=64 velocity=0 time=0.0076923
EXTRACT: note_on channel=0 note=60 velocity=0 time=0
EXTRACT: note_on channel=1 note=31 velocity=0 time=0
EXTRACT: note_on channel=1 note=33 velocity=78 time=0
EXTRACT: note_on channel=7 note=60 velocity=0 time=0
EXTRACT: note_on channel=9 note=40 velocity=93 time=0
EXTRACT: note_on channel=9 note=42 velocity=94 time=0
EXTRACT: note_on channel=9 note=62 velocity=52 time=0
EXTRACT: note_on channel=9 note=54 velocity=0 time=0.1076922
EXTRACT: note_on channel=9 note=54 velocity=28 time=0
EXTRACT: note_on channel=0 note=55 velocity=0 time=0.0076923
EXTRACT: note_on channel=9 note=40 velocity=0 time=0
EXTRACT: note_on channel=9 note=42 velocity=0 time=0
EXTRACT: note_on channel=9 note=62 velocity=0 time=0
EXTRACT: pitchwheel channel=7 pitch=-1029 time=0.08846145
EXTRACT: pitchwheel channel=7 pitch=-2763 time=0.00384615
EXTRACT: pitchwheel channel=7 pitch=-4691 time=0.0153846
EXTRACT: note_on channel=9 note=54 velocity=0 time=0
EXTRACT: note_on channel=9 note=54 velocity=31 time=0
EXTRACT: note_on channel=0 note=65 velocity=83 time=0.0076923
EXTRACT: note_on channel=0 note=62 velocity=92 time=0
EXTRACT: note_on channel=0 note=58 velocity=92 time=0
EXTRACT: note_on channel=0 note=55 velocity=97 time=0
EXTRACT: note_on channel=1 note=33 velocity=0 time=0
EXTRACT: note_on channel=1 note=34 velocity=109 time=0
EXTRACT: note_on channel=7 note=62 velocity=120 time=0
EXTRACT: pitchwheel channel=7 pitch=-5526 time=0
EXTRACT: note_on channel=9 note=36 velocity=70 time=0
EXTRACT: note_on channel=9 note=42 velocity=38 time=0
EXTRACT: note_on channel=9 note=63 velocity=56 time=0
EXTRACT: pitchwheel channel=7 pitch=-6040 time=0.00384615
EXTRACT: pitchwheel channel=7 pitch=-5912 time=0.0153846
EXTRACT: pitchwheel channel=7 pitch=-5398 time=0.01153845
EXTRACT: pitchwheel channel=7 pitch=-4884 time=0.0076923
EXTRACT: pitchwheel channel=7 pitch=-4209 time=0.0076923
EXTRACT: pitchwheel channel=7 pitch=-3599 time=0.0076923
EXTRACT: pitchwheel channel=7 pitch=-2956 time=0.01153845
EXTRACT: pitchwheel channel=7 pitch=-2217 time=0.0076923
EXTRACT: pitchwheel channel=7 pitch=-1543 time=0.0076923
EXTRACT: pitchwheel channel=7 pitch=-1061 time=0.0076923
EXTRACT: pitchwheel channel=7 pitch=-418 time=0.01153845
EXTRACT: pitchwheel channel=7 pitch=0 time=0.0076923
EXTRACT: note_on channel=9 note=54 velocity=0 time=0
EXTRACT: note_on channel=9 note=54 velocity=37 time=0
EXTRACT: note_on channel=9 note=36 velocity=0 time=0.0076923
EXTRACT: note_on channel=9 note=42 velocity=0 time=0
EXTRACT: note_on channel=9 note=63 velocity=0 time=0
EXTRACT: note_on channel=9 note=54 velocity=0 time=0.1076922
EXTRACT: note_on channel=9 note=54 velocity=41 time=0
EXTRACT: note_on channel=1 note=34 velocity=0 time=0.0076923
EXTRACT: control_change channel=8 control=1 value=0 time=0
EXTRACT: note_on channel=9 note=36 velocity=104 time=0
EXTRACT: note_on channel=9 note=42 velocity=94 time=0
EXTRACT: control_change channel=8 control=10 value=64 time=0.00384615
EXTRACT: control_change channel=8 control=11 value=127 time=0.00384615
EXTRACT: control_change channel=8 control=91 value=64 time=0.00384615
EXTRACT: control_change channel=8 control=93 value=32 time=0.00384615
EXTRACT: control_change channel=8 control=7 value=105 time=0.00384615
EXTRACT: note_on channel=9 note=54 velocity=0 time=0.08846145
EXTRACT: note_on channel=9 note=54 velocity=10 time=0
EXTRACT: note_on channel=9 note=36 velocity=0 time=0.0076923
EXTRACT: note_on channel=9 note=42 velocity=0 time=0
EXTRACT: note_on channel=9 note=54 velocity=0 time=0.1076922
EXTRACT: note_on channel=9 note=54 velocity=10 time=0
EXTRACT: note_on channel=1 note=34 velocity=89 time=0.0076923
EXTRACT: note_on channel=9 note=42 velocity=40 time=0
EXTRACT: note_on channel=9 note=62 velocity=46 time=0
EXTRACT: note_on channel=1 note=34 velocity=0 time=0.076923
EXTRACT: note_on channel=9 note=54 velocity=0 time=0.0307692
EXTRACT: note_on channel=9 note=54 velocity=11 time=0
EXTRACT: note_on channel=7 note=62 velocity=0 time=0.0076923
EXTRACT: note_on channel=9 note=42 velocity=0 time=0
EXTRACT: note_on channel=9 note=62 velocity=0 time=0
EXTRACT: note_on channel=9 note=54 velocity=0 time=0.1076922
EXTRACT: note_on channel=9 note=54 velocity=11 time=0
EXTRACT: note_on channel=1 note=34 velocity=119 time=0.0076923
EXTRACT: note_on channel=3 note=65 velocity=88 time=0
EXTRACT: note_on channel=7 note=67 velocity=104 time=0
EXTRACT: note_on channel=9 note=40 velocity=87 time=0
EXTRACT: note_on channel=9 note=42 velocity=94 time=0
EXTRACT: note_on channel=9 note=62 velocity=50 time=0
EXTRACT: note_on channel=3 note=62 velocity=82 time=0.01153845
EXTRACT: note_on channel=3 note=70 velocity=100 time=0.01153845
EXTRACT: note_on channel=9 note=54 velocity=0 time=0.0846153
EXTRACT: note_on channel=9 note=54 velocity=11 time=0
EXTRACT: note_on channel=3 note=70 velocity=0 time=0.0076923
EXTRACT: note_on channel=3 note=62 velocity=0 time=0
EXTRACT: note_on channel=3 note=65 velocity=0 time=0
EXTRACT: note_on channel=9 note=40 velocity=0 time=0
EXTRACT: note_on channel=9 note=42 velocity=0 time=0
EXTRACT: note_on channel=9 note=62 velocity=0 time=0
EXTRACT: note_on channel=9 note=54 velocity=0 time=0.1076922
EXTRACT: note_on channel=9 note=54 velocity=13 time=0
EXTRACT: note_on channel=7 note=67 velocity=0 time=0.0076923
EXTRACT: note_on channel=9 note=42 velocity=34 time=0
EXTRACT: note_on channel=9 note=64 velocity=66 time=0
EXTRACT: note_on channel=9 note=54 velocity=0 time=0.1076922
EXTRACT: note_on channel=9 note=54 velocity=13 time=0
EXTRACT: note_on channel=9 note=42 velocity=0 time=0.0076923
EXTRACT: note_on channel=9 note=64 velocity=0 time=0
EXTRACT: note_on channel=9 note=54 velocity=0 time=0.1076922
EXTRACT: note_on channel=9 note=54 velocity=38 time=0
EXTRACT: note_on channel=7 note=64 velocity=110 time=0.0076923
EXTRACT: note_on channel=9 note=36 velocity=86 time=0
EXTRACT: note_on channel=9 note=42 velocity=94 time=0
EXTRACT: note_on channel=9 note=54 velocity=0 time=0.1076922
EXTRACT: note_on channel=9 note=54 velocity=27 time=0
EXTRACT: note_on channel=9 note=36 velocity=0 time=0.0076923
EXTRACT: note_on channel=9 note=42 velocity=0 time=0
EXTRACT: note_on channel=9 note=54 velocity=0 time=0.1076922
EXTRACT: note_on channel=9 note=54 velocity=27 time=0
EXTRACT: note_on channel=1 note=34 velocity=0 time=0.0076923
EXTRACT: note_on channel=1 note=31 velocity=79 time=0
EXTRACT: note_on channel=7 note=64 velocity=0 time=0
EXTRACT: note_on channel=7 note=60 velocity=86 time=0
EXTRACT: note_on channel=9 note=36 velocity=85 time=0
EXTRACT: note_on channel=9 note=42 velocity=31 time=0
EXTRACT: note_on channel=9 note=62 velocity=36 time=0
EXTRACT: note_on channel=9 note=54 velocity=0 time=0.1076922
EXTRACT: note_on channel=9 note=54 velocity=27 time=0
EXTRACT: note_on channel=9 note=36 velocity=0 time=0.0076923
EXTRACT: note_on channel=9 note=42 velocity=0 time=0
EXTRACT: note_on channel=9 note=62 velocity=0 time=0
EXTRACT: note_on channel=9 note=54 velocity=0 time=0.1076922
EXTRACT: note_on channel=9 note=54 velocity=36 time=0
EXTRACT: note_on channel=1 note=31 velocity=0 time=0.0076923
EXTRACT: note_on channel=1 note=34 velocity=79 time=0
EXTRACT: note_on channel=7 note=60 velocity=0 time=0
EXTRACT: note_on channel=9 note=40 velocity=87 time=0
EXTRACT: note_on channel=9 note=42 velocity=99 time=0
EXTRACT: note_on channel=9 note=62 velocity=50 time=0
EXTRACT: note_on channel=9 note=54 velocity=0 time=0.1076922
EXTRACT: note_on channel=9 note=54 velocity=27 time=0
EXTRACT: note_on channel=9 note=40 velocity=0 time=0.0076923
EXTRACT: note_on channel=9 note=42 velocity=0 time=0
EXTRACT: note_on channel=9 note=62 velocity=0 time=0
EXTRACT: note_on channel=9 note=54 velocity=0 time=0.1076922
EXTRACT: note_on channel=9 note=54 velocity=28 time=0
EXTRACT: note_on channel=1 note=34 velocity=0 time=0.0076923
EXTRACT: note_on channel=1 note=36 velocity=68 time=0
EXTRACT: note_on channel=7 note=55 velocity=117 time=0
EXTRACT: note_on channel=9 note=36 velocity=71 time=0
EXTRACT: note_on channel=9 note=42 velocity=38 time=0
EXTRACT: note_on channel=9 note=63 velocity=58 time=0
EXTRACT: note_on channel=9 note=54 velocity=0 time=0.1076922
EXTRACT: note_on channel=9 note=54 velocity=38 time=0
EXTRACT: note_on channel=0 note=55 velocity=0 time=0.0076923
EXTRACT: note_on channel=0 note=65 velocity=0 time=0
EXTRACT: note_on channel=0 note=62 velocity=0 time=0
EXTRACT: note_on channel=0 note=58 velocity=0 time=0
EXTRACT: note_on channel=9 note=36 velocity=0 time=0
EXTRACT: note_on channel=9 note=42 velocity=0 time=0
EXTRACT: note_on channel=9 note=63 velocity=0 time=0
EXTRACT: note_on channel=9 note=54 velocity=0 time=0.1076922
EXTRACT: note_on channel=9 note=54 velocity=39 time=0
EXTRACT: note_on channel=0 note=57 velocity=75 time=0.0076923
EXTRACT: note_on channel=0 note=64 velocity=79 time=0
EXTRACT: note_on channel=0 note=60 velocity=90 time=0
EXTRACT: note_on channel=1 note=36 velocity=0 time=0
EXTRACT: note_on channel=1 note=33 velocity=101 time=0
EXTRACT: note_on channel=9 note=36 velocity=101 time=0
EXTRACT: note_on channel=9 note=42 velocity=99 time=0
EXTRACT: note_on channel=9 note=54 velocity=0 time=0.1076922
EXTRACT: note_on channel=9 note=54 velocity=7 time=0
EXTRACT: note_on channel=9 note=36 velocity=0 time=0.0076923
EXTRACT: note_on channel=9 note=42 velocity=0 time=0
EXTRACT: note_on channel=9 note=54 velocity=0 time=0.1076922
EXTRACT: note_on channel=9 note=54 velocity=7 time=0
EXTRACT: note_on channel=1 note=33 velocity=0 time=0.0076923
EXTRACT: note_on channel=9 note=42 velocity=27 time=0
EXTRACT: note_on channel=9 note=62 velocity=34 time=0
EXTRACT: note_on channel=9 note=54 velocity=0 time=0.1076922
EXTRACT: note_on channel=9 note=54 velocity=7 time=0
EXTRACT: note_on channel=7 note=55 velocity=0 time=0.0076923
EXTRACT: note_on channel=9 note=42 velocity=0 time=0
EXTRACT: note_on channel=9 note=62 velocity=0 time=0
EXTRACT: note_on channel=9 note=54 velocity=0 time=0.1076922
EXTRACT: note_on channel=9 note=54 velocity=10 time=0
EXTRACT: note_on channel=1 note=33 velocity=110 time=0.0076923
EXTRACT: note_on channel=3 note=60 velocity=88 time=0
EXTRACT: note_on channel=7 note=55 velocity=113 time=0
EXTRACT: note_on channel=9 note=40 velocity=93 time=0
EXTRACT: note_on channel=9 note=42 velocity=94 time=0
EXTRACT: note_on channel=9 note=62 velocity=46 time=0
EXTRACT: note_on channel=3 note=69 velocity=85 time=0.01153845
EXTRACT: note_on channel=3 note=64 velocity=104 time=0.01153845
EXTRACT: note_on channel=9 note=54 velocity=0 time=0.0846153
EXTRACT: note_on channel=9 note=54 velocity=13 time=0
EXTRACT: note_on channel=3 note=64 velocity=0 time=0.0076923
EXTRACT: note_on channel=3 note=69 velocity=0 time=0
EXTRACT: note_on channel=3 note=60 velocity=0 time=0
EXTRACT: note_on channel=9 note=40 velocity=0 time=0
EXTRACT: note_on channel=9 note=42 velocity=0 time=0
EXTRACT: note_on channel=9 note=62 velocity=0 time=0
EXTRACT: note_on channel=9 note=54 velocity=0 time=0.1076922
EXTRACT: note_on channel=9 note=54 velocity=12 time=0
EXTRACT: note_on channel=1 note=33 velocity=0 time=0.0076923
EXTRACT: note_on channel=7 note=55 velocity=0 time=0
EXTRACT: note_on channel=9 note=42 velocity=23 time=0
EXTRACT: note_on channel=9 note=64 velocity=66 time=0
EXTRACT: note_on channel=9 note=54 velocity=0 time=0.1076922
EXTRACT: note_on channel=9 note=54 velocity=13 time=0
EXTRACT: note_on channel=9 note=42 velocity=0 time=0.0076923
EXTRACT: note_on channel=9 note=64 velocity=0 time=0
EXTRACT: note_on channel=9 note=54 velocity=0 time=0.1076922
EXTRACT: note_on channel=9 note=54 velocity=42 time=0
EXTRACT: note_on channel=1 note=33 velocity=104 time=0.0076923
EXTRACT: note_on channel=7 note=55 velocity=117 time=0
EXTRACT: note_on channel=9 note=36 velocity=85 time=0
EXTRACT: note_on channel=9 note=42 velocity=99 time=0
EXTRACT: note_on channel=9 note=54 velocity=0 time=0.1076922
EXTRACT: note_on channel=9 note=54 velocity=28 time=0
EXTRACT: note_on channel=9 note=36 velocity=0 time=0.0076923
EXTRACT: note_on channel=9 note=42 velocity=0 time=0
EXTRACT: note_on channel=9 note=54 velocity=0 time=0.1076922
EXTRACT: note_on channel=9 note=54 velocity=28 time=0
EXTRACT: note_on channel=1 note=33 velocity=0 time=0.0076923
EXTRACT: note_on channel=1 note=29 velocity=80 time=0
EXTRACT: note_on channel=7 note=55 velocity=0 time=0
EXTRACT: note_on channel=7 note=60 velocity=101 time=0
EXTRACT: note_on channel=9 note=36 velocity=83 time=0
EXTRACT: note_on channel=9 note=42 velocity=53 time=0
EXTRACT: note_on channel=9 note=62 velocity=37 time=0
EXTRACT: note_on channel=9 note=54 velocity=0 time=0.1076922
EXTRACT: note_on channel=9 note=54 velocity=28 time=0
EXTRACT: note_on channel=9 note=36 velocity=0 time=0.0076923
EXTRACT: note_on channel=9 note=42 velocity=0 time=0
EXTRACT: note_on channel=9 note=62 velocity=0 time=0
EXTRACT: note_on channel=9 note=54 velocity=0 time=0.1076922
EXTRACT: note_on channel=9 note=54 velocity=41 time=0
EXTRACT: note_on channel=0 note=60 velocity=0 time=0.0076923
EXTRACT: note_on channel=0 note=64 velocity=0 time=0
EXTRACT: note_on channel=0 note=57 velocity=0 time=0
EXTRACT: note_on channel=1 note=29 velocity=0 time=0
EXTRACT: note_on channel=1 note=33 velocity=92 time=0
EXTRACT: note_on channel=7 note=60 velocity=0 time=0
EXTRACT: note_on channel=9 note=40 velocity=100 time=0
EXTRACT: note_on channel=9 note=42 velocity=99 time=0
EXTRACT: note_on channel=9 note=62 velocity=43 time=0
EXTRACT: note_on channel=9 note=54 velocity=0 time=0.1076922
EXTRACT: note_on channel=9 note=54 velocity=28 time=0
EXTRACT: note_on channel=9 note=40 velocity=0 time=0.0076923
EXTRACT: note_on channel=9 note=42 velocity=0 time=0
EXTRACT: note_on channel=9 note=62 velocity=0 time=0
EXTRACT: pitchwheel channel=7 pitch=-1093 time=0.08846145
EXTRACT: pitchwheel channel=7 pitch=-2603 time=0.0076923
EXTRACT: note_on channel=9 note=54 velocity=0 time=0.01153845
EXTRACT: note_on channel=9 note=54 velocity=31 time=0
EXTRACT: pitchwheel channel=7 pitch=-3920 time=0.00384615
EXTRACT: note_on channel=0 note=62 velocity=86 time=0.00384615
EXTRACT: note_on channel=0 note=59 velocity=73 time=0
EXTRACT: note_on channel=0 note=65 velocity=79 time=0
EXTRACT: note_on channel=1 note=33 velocity=0 time=0
EXTRACT: note_on channel=1 note=31 velocity=75 time=0
EXTRACT: note_on channel=7 note=62 velocity=113 time=0
EXTRACT: pitchwheel channel=7 pitch=-4659 time=0
EXTRACT: note_on channel=8 note=65 velocity=101 time=0
EXTRACT: note_on channel=9 note=36 velocity=71 time=0
EXTRACT: note_on channel=9 note=42 velocity=31 time=0
EXTRACT: note_on channel=9 note=63 velocity=58 time=0
EXTRACT: pitchwheel channel=7 pitch=-4851 time=0.01153845
EXTRACT: pitchwheel channel=7 pitch=-4787 time=0.01153845
EXTRACT: pitchwheel channel=7 pitch=-4530 time=0.0076923
EXTRACT: pitchwheel channel=7 pitch=-4145 time=0.01153845
EXTRACT: pitchwheel channel=7 pitch=-3695 time=0.01153845
EXTRACT: pitchwheel channel=7 pitch=-3149 time=0.00384615
EXTRACT: pitchwheel channel=7 pitch=-2667 time=0.0076923
EXTRACT: pitchwheel channel=7 pitch=-2217 time=0.01153845
EXTRACT: pitchwheel channel=7 pitch=-1735 time=0.0076923
EXTRACT: pitchwheel channel=7 pitch=-1318 time=0.0076923
EXTRACT: pitchwheel channel=7 pitch=-900 time=0.0076923
EXTRACT: pitchwheel channel=7 pitch=-418 time=0.0076923
EXTRACT: note_on channel=9 note=54 velocity=0 time=0
EXTRACT: note_on channel=9 note=54 velocity=37 time=0
EXTRACT: note_on channel=9 note=36 velocity=0 time=0.0076923
EXTRACT: note_on channel=9 note=42 velocity=0 time=0
EXTRACT: note_on channel=9 note=63 velocity=0 time=0
EXTRACT: pitchwheel channel=7 pitch=0 time=0.00384615
EXTRACT: note_on channel=9 note=54 velocity=0 time=0.10384605
EXTRACT: note_on channel=9 note=54 velocity=41 time=0
EXTRACT: note_on channel=1 note=31 velocity=0 time=0.0076923
EXTRACT: note_on channel=9 note=36 velocity=101 time=0
EXTRACT: note_on channel=9 note=42 velocity=99 time=0
EXTRACT: note_on channel=9 note=54 velocity=0 time=0.1076922
EXTRACT: note_on channel=9 note=54 velocity=10 time=0
EXTRACT: note_on channel=7 note=62 velocity=0 time=0.0076923
EXTRACT: note_on channel=8 note=65 velocity=0 time=0
EXTRACT: note_on channel=9 note=36 velocity=0 time=0
EXTRACT: note_on channel=9 note=42 velocity=0 time=0
EXTRACT: note_on channel=9 note=54 velocity=0 time=0.1076922
EXTRACT: note_on channel=9 note=54 velocity=10 time=0
EXTRACT: note_on channel=1 note=31 velocity=94 time=0.0076923
EXTRACT: note_on channel=7 note=62 velocity=107 time=0
EXTRACT: note_on channel=8 note=65 velocity=86 time=0
EXTRACT: note_on channel=9 note=42 velocity=42 time=0
EXTRACT: note_on channel=9 note=62 velocity=38 time=0
EXTRACT: note_on channel=9 note=54 velocity=0 time=0.1076922
EXTRACT: note_on channel=9 note=54 velocity=11 time=0
EXTRACT: note_on channel=7 note=62 velocity=0 time=0.0076923
EXTRACT: note_on channel=8 note=65 velocity=0 time=0
EXTRACT: note_on channel=9 note=42 velocity=0 time=0
EXTRACT: note_on channel=9 note=62 velocity=0 time=0
EXTRACT: note_on channel=9 note=54 velocity=0 time=0.1076922
EXTRACT: note_on channel=9 note=54 velocity=11 time=0
EXTRACT: note_on channel=1 note=31 velocity=0 time=0.0076923
EXTRACT: note_on channel=3 note=59 velocity=94 time=0
EXTRACT: note_on channel=7 note=62 velocity=104 time=0
EXTRACT: note_on channel=8 note=65 velocity=99 time=0
EXTRACT: note_on channel=9 note=40 velocity=93 time=0
EXTRACT: note_on channel=9 note=42 velocity=99 time=0
EXTRACT: note_on channel=9 note=62 velocity=49 time=0
EXTRACT: note_on channel=3 note=67 velocity=90 time=0.01153845
EXTRACT: note_on channel=3 note=62 velocity=110 time=0.01153845
EXTRACT: note_on channel=9 note=54 velocity=0 time=0.0846153
EXTRACT: note_on channel=9 note=54 velocity=11 time=0
EXTRACT: note_on channel=3 note=62 velocity=0 time=0.0076923
EXTRACT: note_on channel=3 note=67 velocity=0 time=0
EXTRACT: note_on channel=3 note=59 velocity=0 time=0
EXTRACT: note_on channel=9 note=40 velocity=0 time=0
EXTRACT: note_on channel=9 note=42 velocity=0 time=0
EXTRACT: note_on channel=9 note=62 velocity=0 time=0
EXTRACT: note_on channel=9 note=54 velocity=0 time=0.1076922
EXTRACT: note_on channel=9 note=54 velocity=13 time=0
EXTRACT: note_on channel=1 note=31 velocity=104 time=0.0076923
EXTRACT: note_on channel=7 note=62 velocity=0 time=0
EXTRACT: note_on channel=7 note=60 velocity=101 time=0
EXTRACT: note_on channel=8 note=65 velocity=0 time=0
EXTRACT: note_on channel=8 note=64 velocity=63 time=0
EXTRACT: note_on channel=9 note=42 velocity=46 time=0
EXTRACT: note_on channel=9 note=64 velocity=70 time=0
EXTRACT: note_on channel=9 note=54 velocity=0 time=0.1076922
EXTRACT: note_on channel=9 note=54 velocity=13 time=0
EXTRACT: note_on channel=7 note=60 velocity=0 time=0.0076923
EXTRACT: note_on channel=8 note=64 velocity=0 time=0
EXTRACT: note_on channel=9 note=42 velocity=0 time=0
EXTRACT: note_on channel=9 note=64 velocity=0 time=0
EXTRACT: pitchwheel channel=7 pitch=-579 time=0.0999999
EXTRACT: pitchwheel channel=8 pitch=-1221 time=0
EXTRACT: pitchwheel channel=7 pitch=-2571 time=0.0076923
EXTRACT: pitchwheel channel=8 pitch=-3245 time=0
EXTRACT: note_on channel=9 note=54 velocity=0 time=0
EXTRACT: note_on channel=9 note=54 velocity=38 time=0
EXTRACT: pitchwheel channel=7 pitch=-4530 time=0.0076923
EXTRACT: note_on channel=7 note=64 velocity=120 time=0
EXTRACT: note_on channel=8 note=67 velocity=94 time=0
EXTRACT: note_on channel=9 note=36 velocity=94 time=0
EXTRACT: note_on channel=9 note=42 velocity=94 time=0
EXTRACT: pitchwheel channel=8 pitch=-4916 time=0.00384615
EXTRACT: pitchwheel channel=8 pitch=-6747 time=0.00384615
EXTRACT: pitchwheel channel=7 pitch=-5398 time=0.00384615
EXTRACT: pitchwheel channel=8 pitch=-7968 time=0.00384615
EXTRACT: pitchwheel channel=7 pitch=-6297 time=0.00384615
EXTRACT: pitchwheel channel=7 pitch=-6426 time=0.0076923
EXTRACT: pitchwheel channel=8 pitch=-8192 time=0
EXTRACT: pitchwheel channel=7 pitch=-6361 time=0.0076923
EXTRACT: pitchwheel channel=7 pitch=-5976 time=0.01153845
EXTRACT: pitchwheel channel=8 pitch=-8032 time=0
EXTRACT: pitchwheel channel=7 pitch=-5398 time=0.0076923
EXTRACT: pitchwheel channel=8 pitch=-7454 time=0
EXTRACT: pitchwheel channel=8 pitch=-6683 time=0.00384615
EXTRACT: pitchwheel channel=7 pitch=-4627 time=0.00384615
EXTRACT: pitchwheel channel=7 pitch=-3823 time=0.0076923
EXTRACT: pitchwheel channel=8 pitch=-5783 time=0
EXTRACT: pitchwheel channel=8 pitch=-5044 time=0.0076923
EXTRACT: pitchwheel channel=7 pitch=-3052 time=0.00384615
EXTRACT: pitchwheel channel=7 pitch=-2153 time=0.0076923
EXTRACT: pitchwheel channel=8 pitch=-4498 time=0
EXTRACT: pitchwheel channel=8 pitch=-3727 time=0.00384615
EXTRACT: pitchwheel channel=7 pitch=-1318 time=0.00384615
EXTRACT: pitchwheel channel=8 pitch=-2892 time=0.00384615
EXTRACT: pitchwheel channel=7 pitch=-418 time=0.00384615
EXTRACT: pitchwheel channel=8 pitch=-2057 time=0.00384615
EXTRACT: note_on channel=9 note=54 velocity=0 time=0
EXTRACT: note_on channel=9 note=54 velocity=27 time=0
EXTRACT: pitchwheel channel=7 pitch=0 time=0.00384615
EXTRACT: note_on channel=9 note=36 velocity=0 time=0.00384615
EXTRACT: note_on channel=9 note=42 velocity=0 time=0
EXTRACT: pitchwheel channel=8 pitch=-1157 time=0.00384615
EXTRACT: pitchwheel channel=8 pitch=-515 time=0.0076923
EXTRACT: pitchwheel channel=8 pitch=0 time=0.0076923
EXTRACT: note_on channel=9 note=54 velocity=0 time=0.08846145
EXTRACT: note_on channel=9 note=54 velocity=27 time=0
EXTRACT: note_on channel=1 note=31 velocity=0 time=0.0076923
EXTRACT: note_on channel=1 note=33 velocity=101 time=0
EXTRACT: note_on channel=9 note=36 velocity=88 time=0
EXTRACT: note_on channel=9 note=42 velocity=46 time=0
EXTRACT: note_on channel=9 note=62 velocity=48 time=0
EXTRACT: note_on channel=9 note=42 velocity=0 time=0.05769225
EXTRACT: note_on channel=9 note=54 velocity=0 time=0.04999995
EXTRACT: note_on channel=9 note=54 velocity=27 time=0
EXTRACT: note_on channel=9 note=36 velocity=0 time=0.0076923
EXTRACT: note_on channel=9 note=62 velocity=0 time=0
EXTRACT: note_on channel=9 note=54 velocity=0 time=0.1076922
EXTRACT: note_on channel=9 note=54 velocity=36 time=0
EXTRACT: note_on channel=1 note=33 velocity=0 time=0.0076923
EXTRACT: note_on channel=1 note=36 velocity=79 time=0
EXTRACT: note_on channel=7 note=64 velocity=0 time=0
EXTRACT: note_on channel=7 note=62 velocity=99 time=0
EXTRACT: note_on channel=8 note=67 velocity=0 time=0
EXTRACT: note_on channel=8 note=65 velocity=78 time=0
EXTRACT: note_on channel=9 note=40 velocity=93 time=0
EXTRACT: note_on channel=9 note=42 velocity=89 time=0
EXTRACT: note_on channel=9 note=62 velocity=52 time=0
EXTRACT: note_on channel=9 note=54 velocity=0 time=0.1076922
EXTRACT: note_on channel=9 note=54 velocity=27 time=0
EXTRACT: note_on channel=9 note=40 velocity=0 time=0.0076923
EXTRACT: note_on channel=9 note=42 velocity=0 time=0
EXTRACT: note_on channel=9 note=62 velocity=0 time=0
EXTRACT: note_on channel=9 note=54 velocity=0 time=0.1076922
EXTRACT: note_on channel=9 note=54 velocity=28 time=0
EXTRACT: note_on channel=0 note=65 velocity=0 time=0.0076923
EXTRACT: note_on channel=1 note=36 velocity=0 time=0
EXTRACT: note_on channel=1 note=33 velocity=101 time=0
EXTRACT: note_on channel=7 note=62 velocity=0 time=0
EXTRACT: note_on channel=7 note=60 velocity=97 time=0
EXTRACT: note_on channel=8 note=65 velocity=0 time=0
EXTRACT: note_on channel=8 note=64 velocity=69 time=0
EXTRACT: note_on channel=9 note=36 velocity=71 time=0
EXTRACT: note_on channel=9 note=42 velocity=51 time=0
EXTRACT: note_on channel=9 note=63 velocity=67 time=0
EXTRACT: note_on channel=9 note=54 velocity=0 time=0.1076922
EXTRACT: note_on channel=9 note=54 velocity=38 time=0
EXTRACT: note_on channel=0 note=59 velocity=0 time=0.0076923
EXTRACT: note_on channel=0 note=62 velocity=0 time=0
EXTRACT: note_on channel=9 note=36 velocity=0 time=0
EXTRACT: note_on channel=9 note=42 velocity=0 time=0
EXTRACT: note_on channel=9 note=63 velocity=0 time=0
EXTRACT: note_on channel=9 note=54 velocity=0 time=0.1076922
EXTRACT: note_on channel=9 note=54 velocity=39 time=0
EXTRACT: note_on channel=0 note=60 velocity=86 time=0.0076923
EXTRACT: note_on channel=0 note=64 velocity=83 time=0
EXTRACT: note_on channel=0 note=55 velocity=85 time=0
EXTRACT: note_on channel=1 note=33 velocity=0 time=0
EXTRACT: note_on channel=1 note=36 velocity=97 time=0
EXTRACT: note_on channel=7 note=60 velocity=0 time=0
EXTRACT: note_on channel=8 note=64 velocity=0 time=0
EXTRACT: note_on channel=9 note=36 velocity=97 time=0
EXTRACT: note_on channel=9 note=42 velocity=99 time=0
EXTRACT: note_on channel=9 note=63 velocity=50 time=0
EXTRACT: note_on channel=9 note=54 velocity=0 time=0.1076922
EXTRACT: note_on channel=9 note=54 velocity=7 time=0
EXTRACT: note_on channel=9 note=36 velocity=0 time=0.0076923
EXTRACT: note_on channel=9 note=42 velocity=0 time=0
EXTRACT: note_on channel=9 note=63 velocity=0 time=0
EXTRACT: note_on channel=9 note=54 velocity=0 time=0.1076922
EXTRACT: note_on channel=9 note=54 velocity=7 time=0
EXTRACT: note_on channel=1 note=36 velocity=0 time=0.0076923
EXTRACT: note_on channel=9 note=42 velocity=32 time=0
EXTRACT: note_on channel=9 note=62 velocity=56 time=0
EXTRACT: note_on channel=9 note=54 velocity=0 time=0.1076922
EXTRACT: note_on channel=9 note=54 velocity=7 time=0
EXTRACT: note_on channel=9 note=42 velocity=0 time=0.0076923
EXTRACT: note_on channel=9 note=62 velocity=0 time=0
EXTRACT: note_on channel=9 note=54 velocity=0 time=0.1076922
EXTRACT: note_on channel=9 note=54 velocity=10 time=0
EXTRACT: note_on channel=1 note=36 velocity=97 time=0.0076923
EXTRACT: note_on channel=3 note=64 velocity=88 time=0
EXTRACT: note_on channel=7 note=55 velocity=117 time=0
EXTRACT: note_on channel=9 note=40 velocity=93 time=0
EXTRACT: note_on channel=9 note=42 velocity=99 time=0
EXTRACT: note_on channel=9 note=62 velocity=58 time=0
EXTRACT: note_on channel=3 note=67 velocity=104 time=0.01153845
EXTRACT: note_on channel=3 note=72 velocity=94 time=0.01153845
EXTRACT: note_on channel=9 note=54 velocity=0 time=0.0846153
EXTRACT: note_on channel=9 note=54 velocity=13 time=0
EXTRACT: note_on channel=3 note=72 velocity=0 time=0.0076923
EXTRACT: note_on channel=3 note=67 velocity=0 time=0
EXTRACT: note_on channel=3 note=64 velocity=0 time=0
EXTRACT: note_on channel=9 note=40 velocity=0 time=0
EXTRACT: note_on channel=9 note=42 velocity=0 time=0
EXTRACT: note_on channel=9 note=62 velocity=0 time=0
EXTRACT: note_on channel=9 note=54 velocity=0 time=0.1076922
EXTRACT: note_on channel=9 note=54 velocity=12 time=0
EXTRACT: note_on channel=1 note=36 velocity=0 time=0.0076923
EXTRACT: note_on channel=7 note=55 velocity=0 time=0
EXTRACT: note_on channel=9 note=42 velocity=49 time=0
EXTRACT: note_on channel=9 note=64 velocity=70 time=0
EXTRACT: note_on channel=9 note=54 velocity=0 time=0.1076922
EXTRACT: note_on channel=9 note=54 velocity=13 time=0
EXTRACT: note_on channel=9 note=42 velocity=0 time=0.0076923
EXTRACT: note_on channel=9 note=64 velocity=0 time=0
EXTRACT: note_on channel=9 note=54 velocity=0 time=0.1076922
EXTRACT: note_on channel=9 note=54 velocity=42 time=0
EXTRACT: note_on channel=1 note=36 velocity=94 time=0.0076923
EXTRACT: note_on channel=7 note=55 velocity=117 time=0
EXTRACT: note_on channel=9 note=36 velocity=88 time=0
EXTRACT: note_on channel=9 note=42 velocity=84 time=0
EXTRACT: note_on channel=9 note=54 velocity=0 time=0.1076922
EXTRACT: note_on channel=9 note=54 velocity=28 time=0
EXTRACT: note_on channel=9 note=36 velocity=0 time=0.0076923
EXTRACT: note_on channel=9 note=42 velocity=0 time=0
EXTRACT: note_on channel=9 note=54 velocity=0 time=0.1076922
EXTRACT: note_on channel=9 note=54 velocity=28 time=0
EXTRACT: note_on channel=1 note=36 velocity=0 time=0.0076923
EXTRACT: note_on channel=1 note=31 velocity=79 time=0
EXTRACT: note_on channel=7 note=55 velocity=0 time=0
EXTRACT: note_on channel=7 note=60 velocity=113 time=0
EXTRACT: note_on channel=9 note=36 velocity=94 time=0
EXTRACT: note_on channel=9 note=42 velocity=53 time=0
EXTRACT: note_on channel=9 note=62 velocity=36 time=0
EXTRACT: note_on channel=9 note=54 velocity=0 time=0.1076922
EXTRACT: note_on channel=9 note=54 velocity=28 time=0
EXTRACT: note_on channel=9 note=36 velocity=0 time=0.0076923
EXTRACT: note_on channel=9 note=42 velocity=0 time=0
EXTRACT: note_on channel=9 note=62 velocity=0 time=0
EXTRACT: note_on channel=9 note=54 velocity=0 time=0.1076922
EXTRACT: note_on channel=9 note=54 velocity=41 time=0
EXTRACT: note_on channel=0 note=55 velocity=0 time=0.0076923
EXTRACT: note_on channel=0 note=64 velocity=0 time=0
EXTRACT: note_on channel=0 note=60 velocity=0 time=0
EXTRACT: note_on channel=1 note=31 velocity=0 time=0
EXTRACT: note_on channel=1 note=33 velocity=78 time=0
EXTRACT: note_on channel=7 note=60 velocity=0 time=0
EXTRACT: note_on channel=9 note=40 velocity=93 time=0
EXTRACT: note_on channel=9 note=42 velocity=94 time=0
EXTRACT: note_on channel=9 note=62 velocity=52 time=0
EXTRACT: note_on channel=9 note=54 velocity=0 time=0.1076922
EXTRACT: note_on channel=9 note=54 velocity=28 time=0
EXTRACT: note_on channel=9 note=40 velocity=0 time=0.0076923
EXTRACT: note_on channel=9 note=42 velocity=0 time=0
EXTRACT: note_on channel=9 note=62 velocity=0 time=0
EXTRACT: pitchwheel channel=7 pitch=-225 time=0.076923
EXTRACT: pitchwheel channel=7 pitch=-1992 time=0.0076923
EXTRACT: pitchwheel channel=7 pitch=-3759 time=0.01153845
EXTRACT: pitchwheel channel=7 pitch=-5205 time=0.0076923
EXTRACT: pitchwheel channel=7 pitch=-6683 time=0.00384615
EXTRACT: note_on channel=9 note=54 velocity=0 time=0
EXTRACT: note_on channel=9 note=54 velocity=31 time=0
EXTRACT: note_on channel=0 note=62 velocity=80 time=0.0076923
EXTRACT: note_on channel=0 note=58 velocity=81 time=0
EXTRACT: note_on channel=0 note=55 velocity=82 time=0
EXTRACT: note_on channel=0 note=65 velocity=75 time=0
EXTRACT: note_on channel=1 note=33 velocity=0 time=0
EXTRACT: note_on channel=1 note=34 velocity=109 time=0
EXTRACT: note_on channel=7 note=62 velocity=117 time=0
EXTRACT: note_on channel=9 note=36 velocity=70 time=0
EXTRACT: note_on channel=9 note=42 velocity=38 time=0
EXTRACT: note_on channel=9 note=63 velocity=56 time=0
EXTRACT: pitchwheel channel=7 pitch=-7132 time=0.0076923
EXTRACT: pitchwheel channel=7 pitch=-7261 time=0.00384615
EXTRACT: pitchwheel channel=7 pitch=-7132 time=0.01153845
EXTRACT: pitchwheel channel=7 pitch=-6554 time=0.0076923
EXTRACT: pitchwheel channel=7 pitch=-5655 time=0.00384615
EXTRACT: pitchwheel channel=7 pitch=-4916 time=0.01153845
EXTRACT: pitchwheel channel=7 pitch=-4145 time=0.01153845
EXTRACT: pitchwheel channel=7 pitch=-3277 time=0.00384615
EXTRACT: pitchwheel channel=7 pitch=-2314 time=0.0076923
EXTRACT: pitchwheel channel=7 pitch=-1446 time=0.0076923
EXTRACT: pitchwheel channel=7 pitch=-611 time=0.01153845
EXTRACT: pitchwheel channel=7 pitch=0 time=0.0076923
EXTRACT: note_on channel=9 note=54 velocity=0 time=0.01153845
EXTRACT: note_on channel=9 note=54 velocity=37 time=0
EXTRACT: note_on channel=9 note=36 velocity=0 time=0.0076923
EXTRACT: note_on channel=9 note=42 velocity=0 time=0
EXTRACT: note_on channel=9 note=63 velocity=0 time=0
EXTRACT: note_on channel=9 note=54 velocity=0 time=0.1076922
EXTRACT: note_on channel=9 note=54 velocity=41 time=0
EXTRACT: note_on channel=1 note=34 velocity=0 time=0.0076923
EXTRACT: note_on channel=9 note=36 velocity=104 time=0
EXTRACT: note_on channel=9 note=42 velocity=94 time=0
EXTRACT: note_on channel=9 note=54 velocity=0 time=0.1076922
EXTRACT: note_on channel=9 note=54 velocity=10 time=0
EXTRACT: note_on channel=9 note=36 velocity=0 time=0.0076923
EXTRACT: note_on channel=9 note=42 velocity=0 time=0
EXTRACT: note_on channel=9 note=54 velocity=0 time=0.1076922
EXTRACT: note_on channel=9 note=54 velocity=10 time=0
EXTRACT: note_on channel=1 note=34 velocity=89 time=0.0076923
EXTRACT: note_on channel=9 note=42 velocity=40 time=0
EXTRACT: note_on channel=9 note=62 velocity=46 time=0
EXTRACT: note_on channel=1 note=34 velocity=0 time=0.076923
EXTRACT: note_on channel=9 note=54 velocity=0 time=0.0307692
EXTRACT: note_on channel=9 note=54 velocity=11 time=0
EXTRACT: note_on channel=7 note=62 velocity=0 time=0.0076923
EXTRACT: note_on channel=9 note=42 velocity=0 time=0
EXTRACT: note_on channel=9 note=62 velocity=0 time=0
EXTRACT: note_on channel=9 note=54 velocity=0 time=0.1076922
EXTRACT: note_on channel=9 note=54 velocity=11 time=0
EXTRACT: note_on channel=1 note=34 velocity=119 time=0.0076923
EXTRACT: note_on channel=3 note=65 velocity=94 time=0
EXTRACT: note_on channel=7 note=67 velocity=99 time=0
EXTRACT: note_on channel=9 note=40 velocity=87 time=0
EXTRACT: note_on channel=9 note=42 velocity=94 time=0
EXTRACT: note_on channel=9 note=62 velocity=50 time=0
EXTRACT: note_on channel=3 note=62 velocity=85 time=0.01153845
EXTRACT: note_on channel=3 note=70 velocity=104 time=0.01153845
EXTRACT: note_on channel=9 note=54 velocity=0 time=0.0846153
EXTRACT: note_on channel=9 note=54 velocity=11 time=0
EXTRACT: note_on channel=3 note=70 velocity=0 time=0.0076923
EXTRACT: note_on channel=3 note=62 velocity=0 time=0
EXTRACT: note_on channel=3 note=65 velocity=0 time=0
EXTRACT: note_on channel=9 note=40 velocity=0 time=0
EXTRACT: note_on channel=9 note=42 velocity=0 time=0
EXTRACT: note_on channel=9 note=62 velocity=0 time=0
EXTRACT: note_on channel=9 note=54 velocity=0 time=0.1076922
EXTRACT: note_on channel=9 note=54 velocity=13 time=0
EXTRACT: note_on channel=7 note=67 velocity=0 time=0.0076923
EXTRACT: note_on channel=9 note=42 velocity=34 time=0
EXTRACT: note_on channel=9 note=64 velocity=66 time=0
EXTRACT: note_on channel=9 note=54 velocity=0 time=0.1076922
EXTRACT: note_on channel=9 note=54 velocity=13 time=0
EXTRACT: note_on channel=9 note=42 velocity=0 time=0.0076923
EXTRACT: note_on channel=9 note=64 velocity=0 time=0
EXTRACT: note_on channel=9 note=54 velocity=0 time=0.1076922
EXTRACT: note_on channel=9 note=54 velocity=38 time=0
EXTRACT: note_on channel=7 note=64 velocity=107 time=0.0076923
EXTRACT: note_on channel=9 note=36 velocity=86 time=0
EXTRACT: note_on channel=9 note=42 velocity=94 time=0
EXTRACT: note_on channel=9 note=54 velocity=0 time=0.1076922
EXTRACT: note_on channel=9 note=54 velocity=27 time=0
EXTRACT: note_on channel=9 note=36 velocity=0 time=0.0076923
EXTRACT: note_on channel=9 note=42 velocity=0 time=0
EXTRACT: note_on channel=9 note=54 velocity=0 time=0.1076922
EXTRACT: note_on channel=9 note=54 velocity=27 time=0
EXTRACT: note_on channel=1 note=34 velocity=0 time=0.0076923
EXTRACT: note_on channel=1 note=31 velocity=79 time=0
EXTRACT: note_on channel=7 note=64 velocity=0 time=0
EXTRACT: note_on channel=7 note=60 velocity=110 time=0
EXTRACT: note_on channel=9 note=36 velocity=85 time=0
EXTRACT: note_on channel=9 note=42 velocity=31 time=0
EXTRACT: note_on channel=9 note=62 velocity=36 time=0
EXTRACT: note_on channel=9 note=54 velocity=0 time=0.1076922
EXTRACT: note_on channel=9 note=54 velocity=27 time=0
EXTRACT: note_on channel=9 note=36 velocity=0 time=0.0076923
EXTRACT: note_on channel=9 note=42 velocity=0 time=0
EXTRACT: note_on channel=9 note=62 velocity=0 time=0
EXTRACT: note_on channel=9 note=54 velocity=0 time=0.1076922
EXTRACT: note_on channel=9 note=54 velocity=36 time=0
EXTRACT: note_on channel=1 note=31 velocity=0 time=0.0076923
EXTRACT: note_on channel=1 note=34 velocity=79 time=0
EXTRACT: note_on channel=7 note=60 velocity=0 time=0
EXTRACT: note_on channel=9 note=40 velocity=87 time=0
EXTRACT: note_on channel=9 note=42 velocity=99 time=0
EXTRACT: note_on channel=9 note=62 velocity=50 time=0
EXTRACT: note_on channel=9 note=54 velocity=0 time=0.1076922
EXTRACT: note_on channel=9 note=54 velocity=27 time=0
EXTRACT: note_on channel=9 note=40 velocity=0 time=0.0076923
EXTRACT: note_on channel=9 note=42 velocity=0 time=0
EXTRACT: note_on channel=9 note=62 velocity=0 time=0
EXTRACT: note_on channel=9 note=54 velocity=0 time=0.1076922
EXTRACT: note_on channel=9 note=54 velocity=28 time=0
EXTRACT: note_on channel=1 note=34 velocity=0 time=0.0076923
EXTRACT: note_on channel=1 note=36 velocity=68 time=0
EXTRACT: note_on channel=7 note=55 velocity=120 time=0
EXTRACT: note_on channel=9 note=36 velocity=71 time=0
EXTRACT: note_on channel=9 note=42 velocity=38 time=0
EXTRACT: note_on channel=9 note=63 velocity=58 time=0
EXTRACT: note_on channel=9 note=54 velocity=0 time=0.1076922
EXTRACT: note_on channel=9 note=54 velocity=38 time=0
EXTRACT: note_on channel=0 note=65 velocity=0 time=0.0076923
EXTRACT: note_on channel=0 note=62 velocity=0 time=0
EXTRACT: note_on channel=0 note=58 velocity=0 time=0
EXTRACT: note_on channel=0 note=55 velocity=0 time=0
EXTRACT: note_on channel=9 note=36 velocity=0 time=0
EXTRACT: note_on channel=9 note=42 velocity=0 time=0
EXTRACT: note_on channel=9 note=63 velocity=0 time=0
EXTRACT: note_on channel=9 note=54 velocity=0 time=0.1076922
EXTRACT: note_on channel=9 note=54 velocity=39 time=0
EXTRACT: note_on channel=0 note=60 velocity=78 time=0.0076923
EXTRACT: note_on channel=0 note=57 velocity=67 time=0
EXTRACT: note_on channel=0 note=64 velocity=73 time=0
EXTRACT: note_on channel=1 note=36 velocity=0 time=0
EXTRACT: note_on channel=1 note=33 velocity=101 time=0
EXTRACT: note_on channel=9 note=36 velocity=101 time=0
EXTRACT: note_on channel=9 note=42 velocity=99 time=0
EXTRACT: note_on channel=9 note=54 velocity=0 time=0.1076922
EXTRACT: note_on channel=9 note=54 velocity=7 time=0
EXTRACT: note_on channel=9 note=36 velocity=0 time=0.0076923
EXTRACT: note_on channel=9 note=42 velocity=0 time=0
EXTRACT: note_on channel=9 note=54 velocity=0 time=0.1076922
EXTRACT: note_on channel=9 note=54 velocity=7 time=0
EXTRACT: note_on channel=1 note=33 velocity=0 time=0.0076923
EXTRACT: note_on channel=9 note=42 velocity=27 time=0
EXTRACT: note_on channel=9 note=62 velocity=34 time=0
EXTRACT: note_on channel=9 note=54 velocity=0 time=0.1076922
EXTRACT: note_on channel=9 note=54 velocity=7 time=0
EXTRACT: note_on channel=7 note=55 velocity=0 time=0.0076923
EXTRACT: note_on channel=9 note=42 velocity=0 time=0
EXTRACT: note_on channel=9 note=62 velocity=0 time=0
EXTRACT: note_on channel=9 note=54 velocity=0 time=0.1076922
EXTRACT: note_on channel=9 note=54 velocity=10 time=0
EXTRACT: note_on channel=1 note=33 velocity=110 time=0.0076923
EXTRACT: note_on channel=3 note=60 velocity=83 time=0
EXTRACT: note_on channel=7 note=55 velocity=117 time=0
EXTRACT: note_on channel=9 note=40 velocity=93 time=0
EXTRACT: note_on channel=9 note=42 velocity=94 time=0
EXTRACT: note_on channel=9 note=62 velocity=46 time=0
EXTRACT: note_on channel=3 note=69 velocity=85 time=0.01153845
EXTRACT: note_on channel=3 note=64 velocity=99 time=0.01153845
EXTRACT: note_on channel=9 note=54 velocity=0 time=0.0846153
EXTRACT: note_on channel=9 note=54 velocity=13 time=0
EXTRACT: note_on channel=3 note=64 velocity=0 time=0.0076923
EXTRACT: note_on channel=3 note=69 velocity=0 time=0
EXTRACT: note_on channel=3 note=60 velocity=0 time=0
EXTRACT: note_on channel=9 note=40 velocity=0 time=0
EXTRACT: note_on channel=9 note=42 velocity=0 time=0
EXTRACT: note_on channel=9 note=62 velocity=0 time=0
EXTRACT: note_on channel=9 note=54 velocity=0 time=0.1076922
EXTRACT: note_on channel=9 note=54 velocity=12 time=0
EXTRACT: note_on channel=1 note=33 velocity=0 time=0.0076923
EXTRACT: note_on channel=7 note=55 velocity=0 time=0
EXTRACT: note_on channel=9 note=42 velocity=23 time=0
EXTRACT: note_on channel=9 note=64 velocity=66 time=0
EXTRACT: note_on channel=9 note=54 velocity=0 time=0.1076922
EXTRACT: note_on channel=9 note=54 velocity=13 time=0
EXTRACT: note_on channel=9 note=42 velocity=0 time=0.0076923
EXTRACT: note_on channel=9 note=64 velocity=0 time=0
EXTRACT: note_on channel=9 note=54 velocity=0 time=0.1076922
EXTRACT: note_on channel=9 note=54 velocity=42 time=0
EXTRACT: note_on channel=1 note=33 velocity=104 time=0.0076923
EXTRACT: note_on channel=7 note=55 velocity=113 time=0
EXTRACT: note_on channel=9 note=36 velocity=85 time=0
EXTRACT: note_on channel=9 note=42 velocity=99 time=0
EXTRACT: note_on channel=9 note=54 velocity=0 time=0.1076922
EXTRACT: note_on channel=9 note=54 velocity=28 time=0
EXTRACT: note_on channel=9 note=36 velocity=0 time=0.0076923
EXTRACT: note_on channel=9 note=42 velocity=0 time=0
EXTRACT: note_on channel=9 note=54 velocity=0 time=0.1076922
EXTRACT: note_on channel=9 note=54 velocity=28 time=0
EXTRACT: note_on channel=1 note=33 velocity=0 time=0.0076923
EXTRACT: note_on channel=1 note=29 velocity=80 time=0
EXTRACT: note_on channel=7 note=55 velocity=0 time=0
EXTRACT: note_on channel=7 note=60 velocity=99 time=0
EXTRACT: note_on channel=9 note=36 velocity=83 time=0
EXTRACT: note_on channel=9 note=42 velocity=53 time=0
EXTRACT: note_on channel=9 note=62 velocity=37 time=0
EXTRACT: note_on channel=9 note=54 velocity=0 time=0.1076922
EXTRACT: note_on channel=9 note=54 velocity=28 time=0
EXTRACT: note_on channel=9 note=36 velocity=0 time=0.0076923
EXTRACT: note_on channel=9 note=42 velocity=0 time=0
EXTRACT: note_on channel=9 note=62 velocity=0 time=0
EXTRACT: note_on channel=9 note=54 velocity=0 time=0.1076922
EXTRACT: note_on channel=9 note=54 velocity=41 time=0
EXTRACT: note_on channel=1 note=29 velocity=0 time=0.0076923
EXTRACT: note_on channel=1 note=33 velocity=92 time=0
EXTRACT: note_on channel=9 note=40 velocity=100 time=0
EXTRACT: note_on channel=9 note=42 velocity=99 time=0
EXTRACT: note_on channel=9 note=62 velocity=43 time=0
EXTRACT: note_on channel=9 note=54 velocity=0 time=0.1076922
EXTRACT: note_on channel=9 note=54 velocity=28 time=0
EXTRACT: note_on channel=0 note=64 velocity=0 time=0.0076923
EXTRACT: note_on channel=0 note=57 velocity=0 time=0
EXTRACT: note_on channel=0 note=60 velocity=0 time=0
EXTRACT: note_on channel=7 note=60 velocity=0 time=0
EXTRACT: note_on channel=9 note=40 velocity=0 time=0
EXTRACT: note_on channel=9 note=42 velocity=0 time=0
EXTRACT: note_on channel=9 note=62 velocity=0 time=0
EXTRACT: pitchwheel channel=7 pitch=-932 time=0.08076915
EXTRACT: pitchwheel channel=7 pitch=-2635 time=0.0076923
EXTRACT: pitchwheel channel=7 pitch=-4530 time=0.0076923
EXTRACT: pitchwheel channel=7 pitch=-6297 time=0.01153845
EXTRACT: note_on channel=9 note=54 velocity=0 time=0
EXTRACT: note_on channel=9 note=54 velocity=31 time=0
EXTRACT: note_on channel=0 note=62 velocity=82 time=0.0076923
EXTRACT: note_on channel=0 note=59 velocity=72 time=0
EXTRACT: note_on channel=0 note=65 velocity=83 time=0
EXTRACT: note_on channel=1 note=33 velocity=0 time=0
EXTRACT: note_on channel=1 note=31 velocity=75 time=0
EXTRACT: pitchwheel channel=7 pitch=-8032 time=0
EXTRACT: note_on channel=7 note=62 velocity=117 time=0
EXTRACT: note_on channel=8 note=65 velocity=88 time=0
EXTRACT: note_on channel=9 note=36 velocity=71 time=0
EXTRACT: note_on channel=9 note=42 velocity=31 time=0
EXTRACT: note_on channel=9 note=63 velocity=58 time=0
EXTRACT: pitchwheel channel=7 pitch=-8192 time=0.00384615
EXTRACT: pitchwheel channel=7 pitch=-7968 time=0.0384615
EXTRACT: pitchwheel channel=7 pitch=-7004 time=0.0076923
EXTRACT: pitchwheel channel=7 pitch=-5912 time=0.00384615
EXTRACT: pitchwheel channel=7 pitch=-4916 time=0.01153845
EXTRACT: pitchwheel channel=7 pitch=-4145 time=0.01153845
EXTRACT: pitchwheel channel=7 pitch=-3213 time=0.0076923
EXTRACT: pitchwheel channel=7 pitch=-2185 time=0.00384615
EXTRACT: pitchwheel channel=7 pitch=-1318 time=0.0076923
EXTRACT: pitchwheel channel=7 pitch=-547 time=0.01153845
EXTRACT: note_on channel=9 note=54 velocity=0 time=0
EXTRACT: note_on channel=9 note=54 velocity=37 time=0
EXTRACT: note_on channel=9 note=36 velocity=0 time=0.0076923
EXTRACT: note_on channel=9 note=42 velocity=0 time=0
EXTRACT: note_on channel=9 note=63 velocity=0 time=0
EXTRACT: pitchwheel channel=7 pitch=0 time=0.00384615
EXTRACT: note_on channel=9 note=54 velocity=0 time=0.10384605
EXTRACT: note_on channel=9 note=54 velocity=41 time=0
EXTRACT: note_on channel=1 note=31 velocity=0 time=0.0076923
EXTRACT: note_on channel=9 note=36 velocity=101 time=0
EXTRACT: note_on channel=9 note=42 velocity=99 time=0
EXTRACT: note_on channel=9 note=54 velocity=0 time=0.1076922
EXTRACT: note_on channel=9 note=54 velocity=10 time=0
EXTRACT: note_on channel=7 note=62 velocity=0 time=0.0076923
EXTRACT: note_on channel=8 note=65 velocity=0 time=0
EXTRACT: note_on channel=9 note=36 velocity=0 time=0
EXTRACT: note_on channel=9 note=42 velocity=0 time=0
EXTRACT: note_on channel=9 note=54 velocity=0 time=0.1076922
EXTRACT: note_on channel=9 note=54 velocity=10 time=0
EXTRACT: note_on channel=1 note=31 velocity=94 time=0.0076923
EXTRACT: note_on channel=7 note=62 velocity=97 time=0
EXTRACT: note_on channel=8 note=65 velocity=88 time=0
EXTRACT: note_on channel=9 note=42 velocity=42 time=0
EXTRACT: note_on channel=9 note=62 velocity=38 time=0
EXTRACT: note_on channel=9 note=54 velocity=0 time=0.1076922
EXTRACT: note_on channel=9 note=54 velocity=11 time=0
EXTRACT: note_on channel=7 note=62 velocity=0 time=0.0076923
EXTRACT: note_on channel=8 note=65 velocity=0 time=0
EXTRACT: note_on channel=9 note=42 velocity=0 time=0
EXTRACT: note_on channel=9 note=62 velocity=0 time=0
EXTRACT: note_on channel=9 note=54 velocity=0 time=0.1076922
EXTRACT: note_on channel=9 note=54 velocity=11 time=0
EXTRACT: note_on channel=1 note=31 velocity=0 time=0.0076923
EXTRACT: note_on channel=3 note=67 velocity=82 time=0
EXTRACT: note_on channel=7 note=62 velocity=94 time=0
EXTRACT: note_on channel=8 note=65 velocity=97 time=0
EXTRACT: note_on channel=9 note=40 velocity=93 time=0
EXTRACT: note_on channel=9 note=42 velocity=99 time=0
EXTRACT: note_on channel=9 note=62 velocity=49 time=0
EXTRACT: note_on channel=3 note=59 velocity=85 time=0.01153845
EXTRACT: note_on channel=3 note=62 velocity=101 time=0.01153845
EXTRACT: note_on channel=9 note=54 velocity=0 time=0.0846153
EXTRACT: note_on channel=9 note=54 velocity=11 time=0
EXTRACT: note_on channel=3 note=62 velocity=0 time=0.0076923
EXTRACT: note_on channel=3 note=59 velocity=0 time=0
EXTRACT: note_on channel=3 note=67 velocity=0 time=0
EXTRACT: note_on channel=9 note=40 velocity=0 time=0
EXTRACT: note_on channel=9 note=42 velocity=0 time=0
EXTRACT: note_on channel=9 note=62 velocity=0 time=0
EXTRACT: note_on channel=9 note=54 velocity=0 time=0.1076922
EXTRACT: note_on channel=9 note=54 velocity=13 time=0
EXTRACT: note_on channel=1 note=31 velocity=104 time=0.0076923
EXTRACT: note_on channel=7 note=62 velocity=0 time=0
EXTRACT: note_on channel=7 note=60 velocity=94 time=0
EXTRACT: note_on channel=8 note=65 velocity=0 time=0
EXTRACT: note_on channel=8 note=64 velocity=62 time=0
EXTRACT: note_on channel=9 note=42 velocity=46 time=0
EXTRACT: note_on channel=9 note=64 velocity=70 time=0
EXTRACT: note_on channel=9 note=36 velocity=64 time=0.0384615
EXTRACT: note_on channel=9 note=54 velocity=0 time=0.0692307
EXTRACT: note_on channel=9 note=54 velocity=13 time=0
EXTRACT: note_on channel=7 note=60 velocity=0 time=0.0076923
EXTRACT: note_on channel=8 note=64 velocity=0 time=0
EXTRACT: note_on channel=9 note=42 velocity=0 time=0
EXTRACT: note_on channel=9 note=64 velocity=0 time=0
EXTRACT: note_on channel=9 note=36 velocity=0 time=0.0384615
EXTRACT: pitchwheel channel=8 pitch=-2089 time=0.0615384
EXTRACT: pitchwheel channel=8 pitch=-4177 time=0.00384615
EXTRACT: note_on channel=9 note=54 velocity=0 time=0.00384615
EXTRACT: note_on channel=9 note=54 velocity=38 time=0
EXTRACT: pitchwheel channel=7 pitch=-1221 time=0.0076923
EXTRACT: note_on channel=7 note=64 velocity=117 time=0
EXTRACT: pitchwheel channel=8 pitch=-5462 time=0
EXTRACT: note_on channel=8 note=67 velocity=99 time=0
EXTRACT: note_on channel=9 note=36 velocity=94 time=0
EXTRACT: note_on channel=9 note=42 velocity=94 time=0
EXTRACT: pitchwheel channel=7 pitch=-3406 time=0.0076923
EXTRACT: pitchwheel channel=8 pitch=-6811 time=0
EXTRACT: pitchwheel channel=8 pitch=-7454 time=0.0076923
EXTRACT: pitchwheel channel=7 pitch=-5783 time=0.00384615
EXTRACT: pitchwheel channel=7 pitch=-8192 time=0.00384615
EXTRACT: pitchwheel channel=8 pitch=-7646 time=0
EXTRACT: pitchwheel channel=8 pitch=-7582 time=0.01923075
EXTRACT: pitchwheel channel=8 pitch=-7197 time=0.0076923
EXTRACT: pitchwheel channel=8 pitch=-6554 time=0.0076923
EXTRACT: pitchwheel channel=8 pitch=-5912 time=0.0076923
EXTRACT: pitchwheel channel=8 pitch=-5462 time=0.0076923
EXTRACT: pitchwheel channel=8 pitch=-4916 time=0.01153845
EXTRACT: pitchwheel channel=7 pitch=-8096 time=0.0076923
EXTRACT: pitchwheel channel=8 pitch=-4562 time=0
EXTRACT: pitchwheel channel=7 pitch=-6233 time=0.0076923
EXTRACT: pitchwheel channel=8 pitch=-4016 time=0
EXTRACT: pitchwheel channel=8 pitch=-3502 time=0.0076923
EXTRACT: note_on channel=9 note=54 velocity=0 time=0
EXTRACT: note_on channel=9 note=54 velocity=27 time=0
EXTRACT: pitchwheel channel=7 pitch=-4948 time=0.00384615
EXTRACT: note_on channel=9 note=36 velocity=0 time=0.00384615
EXTRACT: note_on channel=9 note=42 velocity=0 time=0
EXTRACT: pitchwheel channel=7 pitch=-3952 time=0.00384615
EXTRACT: pitchwheel channel=8 pitch=-2763 time=0
EXTRACT: pitchwheel channel=7 pitch=-2892 time=0.0076923
EXTRACT: pitchwheel channel=8 pitch=-2217 time=0
EXTRACT: pitchwheel channel=8 pitch=-1543 time=0.00384615
EXTRACT: pitchwheel channel=7 pitch=-1767 time=0.00384615
EXTRACT: pitchwheel channel=7 pitch=-772 time=0.0076923
EXTRACT: pitchwheel channel=8 pitch=-1093 time=0
EXTRACT: pitchwheel channel=7 pitch=0 time=0.0076923
EXTRACT: pitchwheel channel=8 pitch=-450 time=0
EXTRACT: pitchwheel channel=8 pitch=0 time=0.01153845
EXTRACT: note_on channel=9 note=54 velocity=0 time=0.0615384
EXTRACT: note_on channel=9 note=54 velocity=27 time=0
EXTRACT: note_on channel=1 note=31 velocity=0 time=0.0076923
EXTRACT: note_on channel=1 note=33 velocity=101 time=0
EXTRACT: note_on channel=9 note=42 velocity=46 time=0
EXTRACT: note_on channel=9 note=62 velocity=48 time=0
EXTRACT: note_on channel=9 note=42 velocity=0 time=0.05769225
EXTRACT: note_on channel=9 note=54 velocity=0 time=0.04999995
EXTRACT: note_on channel=9 note=54 velocity=27 time=0
EXTRACT: note_on channel=9 note=40 velocity=40 time=0.0076923
EXTRACT: note_on channel=9 note=62 velocity=0 time=0
EXTRACT: note_on channel=9 note=40 velocity=0 time=0.05769225
EXTRACT: note_on channel=9 note=54 velocity=0 time=0.04999995
EXTRACT: note_on channel=9 note=54 velocity=36 time=0
EXTRACT: note_on channel=0 note=65 velocity=0 time=0.0076923
EXTRACT: note_on channel=1 note=33 velocity=0 time=0
EXTRACT: note_on channel=1 note=36 velocity=79 time=0
EXTRACT: note_on channel=7 note=64 velocity=0 time=0
EXTRACT: note_on channel=7 note=62 velocity=104 time=0
EXTRACT: note_on channel=8 note=67 velocity=0 time=0
EXTRACT: note_on channel=8 note=65 velocity=86 time=0
EXTRACT: note_on channel=9 note=40 velocity=93 time=0
EXTRACT: note_on channel=9 note=42 velocity=89 time=0
EXTRACT: note_on channel=9 note=62 velocity=52 time=0
EXTRACT: note_on channel=9 note=54 velocity=0 time=0.1076922
EXTRACT: note_on channel=9 note=54 velocity=27 time=0
EXTRACT: note_on channel=0 note=59 velocity=0 time=0.0076923
EXTRACT: note_on channel=0 note=62 velocity=0 time=0
EXTRACT: note_on channel=9 note=40 velocity=0 time=0
EXTRACT: note_on channel=9 note=42 velocity=0 time=0
EXTRACT: note_on channel=9 note=62 velocity=0 time=0
EXTRACT: note_on channel=9 note=54 velocity=0 time=0.1076922
EXTRACT: note_on channel=9 note=54 velocity=28 time=0
EXTRACT: note_on channel=1 note=36 velocity=0 time=0.0076923
EXTRACT: note_on channel=1 note=33 velocity=101 time=0
EXTRACT: note_on channel=7 note=62 velocity=0 time=0
EXTRACT: note_on channel=7 note=60 velocity=97 time=0
EXTRACT: note_on channel=8 note=65 velocity=0 time=0
EXTRACT: note_on channel=8 note=64 velocity=66 time=0
EXTRACT: note_on channel=9 note=36 velocity=71 time=0
EXTRACT: note_on channel=9 note=42 velocity=51 time=0
EXTRACT: note_on channel=9 note=63 velocity=67 time=0
EXTRACT: note_on channel=9 note=54 velocity=0 time=0.1076922
EXTRACT: note_on channel=9 note=54 velocity=38 time=0
EXTRACT: note_on channel=9 note=36 velocity=0 time=0.0076923
EXTRACT: note_on channel=9 note=42 velocity=0 time=0
EXTRACT: note_on channel=9 note=63 velocity=0 time=0
EXTRACT: note_on channel=9 note=54 velocity=0 time=0.1076922
EXTRACT: note_on channel=9 note=54 velocity=39 time=0
EXTRACT: note_on channel=0 note=55 velocity=94 time=0.0076923
EXTRACT: note_on channel=0 note=60 velocity=97 time=0
EXTRACT: note_on channel=0 note=64 velocity=76 time=0
EXTRACT: note_on channel=1 note=33 velocity=0 time=0
EXTRACT: note_on channel=1 note=36 velocity=97 time=0
EXTRACT: note_on channel=3 note=72 velocity=80 time=0
EXTRACT: note_on channel=7 note=60 velocity=0 time=0
EXTRACT: note_on channel=8 note=64 velocity=0 time=0
EXTRACT: note_on channel=9 note=36 velocity=97 time=0
EXTRACT: note_on channel=9 note=42 velocity=99 time=0
EXTRACT: note_on channel=9 note=49 velocity=78 time=0
EXTRACT: note_on channel=9 note=63 velocity=50 time=0
EXTRACT: note_on channel=3 note=67 velocity=85 time=0.01153845
EXTRACT: note_on channel=3 note=64 velocity=82 time=0.01153845
EXTRACT: note_on channel=9 note=49 velocity=0 time=0.03461535
EXTRACT: note_on channel=9 note=54 velocity=0 time=0.04999995
EXTRACT: note_on channel=9 note=54 velocity=7 time=0
EXTRACT: note_on channel=9 note=36 velocity=0 time=0.0076923
EXTRACT: note_on channel=9 note=42 velocity=0 time=0
EXTRACT: note_on channel=9 note=63 velocity=0 time=0
EXTRACT: note_on channel=9 note=54 velocity=0 time=0.1076922
EXTRACT: note_on channel=9 note=54 velocity=7 time=0
EXTRACT: note_on channel=1 note=36 velocity=0 time=0.0076923
EXTRACT: note_on channel=9 note=42 velocity=32 time=0
EXTRACT: note_on channel=9 note=62 velocity=56 time=0
EXTRACT: note_on channel=9 note=54 velocity=0 time=0.1076922
EXTRACT: note_on channel=9 note=54 velocity=7 time=0
EXTRACT: note_on channel=3 note=64 velocity=0 time=0.0076923
EXTRACT: note_on channel=3 note=67 velocity=0 time=0
EXTRACT: note_on channel=3 note=72 velocity=0 time=0
EXTRACT: note_on channel=9 note=42 velocity=0 time=0
EXTRACT: note_on channel=9 note=62 velocity=0 time=0
EXTRACT: note_on channel=9 note=54 velocity=0 time=0.1076922
EXTRACT: note_on channel=9 note=54 velocity=10 time=0
EXTRACT: note_on channel=1 note=36 velocity=97 time=0.0076923
EXTRACT: note_on channel=3 note=67 velocity=101 time=0
EXTRACT: note_on channel=8 note=64 velocity=117 time=0
EXTRACT: note_on channel=9 note=40 velocity=93 time=0
EXTRACT: note_on channel=9 note=42 velocity=99 time=0
EXTRACT: note_on channel=9 note=62 velocity=58 time=0
EXTRACT: note_on channel=3 note=64 velocity=90 time=0.01153845
EXTRACT: note_on channel=3 note=72 velocity=94 time=0.01153845
EXTRACT: note_on channel=9 note=54 velocity=0 time=0.0846153
EXTRACT: note_on channel=9 note=54 velocity=13 time=0
EXTRACT: note_on channel=3 note=72 velocity=0 time=0.0076923
EXTRACT: note_on channel=3 note=64 velocity=0 time=0
EXTRACT: note_on channel=3 note=67 velocity=0 time=0
EXTRACT: note_on channel=9 note=40 velocity=0 time=0
EXTRACT: note_on channel=9 note=42 velocity=0 time=0
EXTRACT: note_on channel=9 note=62 velocity=0 time=0
EXTRACT: note_on channel=9 note=54 velocity=0 time=0.1076922
EXTRACT: note_on channel=9 note=54 velocity=12 time=0
EXTRACT: note_on channel=1 note=36 velocity=0 time=0.0076923
EXTRACT: note_on channel=8 note=64 velocity=0 time=0
EXTRACT: note_on channel=8 note=67 velocity=99 time=0
EXTRACT: note_on channel=9 note=42 velocity=49 time=0
EXTRACT: note_on channel=9 note=64 velocity=70 time=0
EXTRACT: note_on channel=9 note=54 velocity=0 time=0.1076922
EXTRACT: note_on channel=9 note=54 velocity=13 time=0
EXTRACT: note_on channel=8 note=67 velocity=0 time=0.0076923
EXTRACT: note_on channel=9 note=42 velocity=0 time=0
EXTRACT: note_on channel=9 note=64 velocity=0 time=0
EXTRACT: note_on channel=9 note=54 velocity=0 time=0.1076922
EXTRACT: note_on channel=9 note=54 velocity=42 time=0
EXTRACT: note_on channel=1 note=36 velocity=94 time=0.0076923
EXTRACT: note_on channel=8 note=67 velocity=99 time=0
EXTRACT: note_on channel=9 note=36 velocity=88 time=0
EXTRACT: note_on channel=9 note=42 velocity=84 time=0
EXTRACT: note_on channel=9 note=54 velocity=0 time=0.1076922
EXTRACT: note_on channel=9 note=54 velocity=28 time=0
EXTRACT: note_on channel=9 note=36 velocity=0 time=0.0076923
EXTRACT: note_on channel=9 note=42 velocity=0 time=0
EXTRACT: note_on channel=9 note=54 velocity=0 time=0.1076922
EXTRACT: note_on channel=9 note=54 velocity=28 time=0
EXTRACT: note_on channel=1 note=36 velocity=0 time=0.0076923
EXTRACT: note_on channel=1 note=31 velocity=79 time=0
EXTRACT: note_on channel=3 note=72 velocity=83 time=0
EXTRACT: note_on channel=8 note=67 velocity=0 time=0
EXTRACT: note_on channel=8 note=64 velocity=99 time=0
EXTRACT: note_on channel=9 note=36 velocity=94 time=0
EXTRACT: note_on channel=9 note=42 velocity=53 time=0
EXTRACT: note_on channel=9 note=62 velocity=36 time=0
EXTRACT: note_on channel=3 note=64 velocity=85 time=0.01153845
EXTRACT: note_on channel=3 note=67 velocity=104 time=0.01153845
EXTRACT: note_on channel=9 note=54 velocity=0 time=0.0846153
EXTRACT: note_on channel=9 note=54 velocity=28 time=0
EXTRACT: note_on channel=3 note=67 velocity=0 time=0.0076923
EXTRACT: note_on channel=3 note=64 velocity=0 time=0
EXTRACT: note_on channel=3 note=72 velocity=0 time=0
EXTRACT: note_on channel=9 note=36 velocity=0 time=0
EXTRACT: note_on channel=9 note=42 velocity=0 time=0
EXTRACT: note_on channel=9 note=62 velocity=0 time=0
EXTRACT: note_on channel=9 note=54 velocity=0 time=0.1076922
EXTRACT: note_on channel=9 note=54 velocity=41 time=0
EXTRACT: note_on channel=0 note=64 velocity=0 time=0.0076923
EXTRACT: note_on channel=0 note=60 velocity=0 time=0
EXTRACT: note_on channel=1 note=31 velocity=0 time=0
EXTRACT: note_on channel=1 note=33 velocity=78 time=0
EXTRACT: note_on channel=8 note=64 velocity=0 time=0
EXTRACT: note_on channel=8 note=67 velocity=101 time=0
EXTRACT: note_on channel=9 note=40 velocity=93 time=0
EXTRACT: note_on channel=9 note=42 velocity=94 time=0
EXTRACT: note_on channel=9 note=62 velocity=52 time=0
EXTRACT: note_on channel=9 note=54 velocity=0 time=0.1076922
EXTRACT: note_on channel=9 note=54 velocity=28 time=0
EXTRACT: note_on channel=0 note=55 velocity=0 time=0.0076923
EXTRACT: note_on channel=9 note=40 velocity=0 time=0
EXTRACT: note_on channel=9 note=42 velocity=0 time=0
EXTRACT: note_on channel=9 note=62 velocity=0 time=0
EXTRACT: note_on channel=9 note=54 velocity=0 time=0.1076922
EXTRACT: note_on channel=9 note=54 velocity=31 time=0
EXTRACT: note_on channel=0 note=65 velocity=83 time=0.0076923
EXTRACT: note_on channel=0 note=62 velocity=92 time=0
EXTRACT: note_on channel=0 note=58 velocity=92 time=0
EXTRACT: note_on channel=0 note=55 velocity=97 time=0
EXTRACT: note_on channel=1 note=33 velocity=0 time=0
EXTRACT: note_on channel=1 note=34 velocity=109 time=0
EXTRACT: note_on channel=3 note=62 velocity=86 time=0
EXTRACT: note_on channel=8 note=67 velocity=0 time=0
EXTRACT: note_on channel=8 note=64 velocity=86 time=0
EXTRACT: note_on channel=9 note=36 velocity=70 time=0
EXTRACT: note_on channel=9 note=42 velocity=38 time=0
EXTRACT: note_on channel=9 note=63 velocity=56 time=0
EXTRACT: note_on channel=3 note=65 velocity=92 time=0.01153845
EXTRACT: note_on channel=3 note=70 velocity=96 time=0.01153845
EXTRACT: note_on channel=9 note=54 velocity=0 time=0.0846153
EXTRACT: note_on channel=9 note=54 velocity=37 time=0
EXTRACT: note_on channel=9 note=36 velocity=0 time=0.0076923
EXTRACT: note_on channel=9 note=42 velocity=0 time=0
EXTRACT: note_on channel=9 note=63 velocity=0 time=0
EXTRACT: note_on channel=9 note=54 velocity=0 time=0.1076922
EXTRACT: note_on channel=9 note=54 velocity=41 time=0
EXTRACT: note_on channel=1 note=34 velocity=0 time=0.0076923
EXTRACT: note_on channel=8 note=64 velocity=0 time=0
EXTRACT: note_on channel=8 note=67 velocity=101 time=0
EXTRACT: note_on channel=9 note=36 velocity=104 time=0
EXTRACT: note_on channel=9 note=42 velocity=94 time=0
EXTRACT: note_on channel=9 note=54 velocity=0 time=0.1076922
EXTRACT: note_on channel=9 note=54 velocity=10 time=0
EXTRACT: note_on channel=9 note=36 velocity=0 time=0.0076923
EXTRACT: note_on channel=9 note=42 velocity=0 time=0
EXTRACT: note_on channel=9 note=54 velocity=0 time=0.1076922
EXTRACT: note_on channel=9 note=54 velocity=10 time=0
EXTRACT: note_on channel=1 note=34 velocity=89 time=0.0076923
EXTRACT: note_on channel=8 note=67 velocity=0 time=0
EXTRACT: note_on channel=8 note=64 velocity=82 time=0
EXTRACT: note_on channel=9 note=42 velocity=40 time=0
EXTRACT: note_on channel=9 note=62 velocity=46 time=0
EXTRACT: note_on channel=1 note=34 velocity=0 time=0.076923
EXTRACT: note_on channel=9 note=54 velocity=0 time=0.0307692
EXTRACT: note_on channel=9 note=54 velocity=11 time=0
EXTRACT: note_on channel=3 note=70 velocity=0 time=0.0076923
EXTRACT: note_on channel=3 note=62 velocity=0 time=0
EXTRACT: note_on channel=9 note=42 velocity=0 time=0
EXTRACT: note_on channel=9 note=62 velocity=0 time=0
EXTRACT: note_on channel=9 note=54 velocity=0 time=0.1076922
EXTRACT: note_on channel=9 note=54 velocity=11 time=0
EXTRACT: note_on channel=1 note=34 velocity=119 time=0.0076923
EXTRACT: note_on channel=3 note=65 velocity=0 time=0
EXTRACT: note_on channel=3 note=65 velocity=88 time=0
EXTRACT: note_on channel=8 note=64 velocity=0 time=0
EXTRACT: note_on channel=8 note=67 velocity=99 time=0
EXTRACT: note_on channel=9 note=40 velocity=87 time=0
EXTRACT: note_on channel=9 note=42 velocity=94 time=0
EXTRACT: note_on channel=9 note=62 velocity=50 time=0
EXTRACT: note_on channel=3 note=62 velocity=82 time=0.01153845
EXTRACT: note_on channel=3 note=70 velocity=100 time=0.01153845
EXTRACT: note_on channel=9 note=54 velocity=0 time=0.0846153
EXTRACT: note_on channel=9 note=54 velocity=11 time=0
EXTRACT: note_on channel=3 note=70 velocity=0 time=0.0076923
EXTRACT: note_on channel=3 note=62 velocity=0 time=0
EXTRACT: note_on channel=3 note=65 velocity=0 time=0
EXTRACT: note_on channel=9 note=40 velocity=0 time=0
EXTRACT: note_on channel=9 note=42 velocity=0 time=0
EXTRACT: note_on channel=9 note=62 velocity=0 time=0
EXTRACT: note_on channel=9 note=54 velocity=0 time=0.1076922
EXTRACT: note_on channel=9 note=54 velocity=13 time=0
EXTRACT: note_on channel=8 note=67 velocity=0 time=0.0076923
EXTRACT: note_on channel=8 note=64 velocity=80 time=0
EXTRACT: note_on channel=9 note=42 velocity=34 time=0
EXTRACT: note_on channel=9 note=64 velocity=66 time=0
EXTRACT: note_on channel=9 note=54 velocity=0 time=0.1076922
EXTRACT: note_on channel=9 note=54 velocity=13 time=0
EXTRACT: note_on channel=9 note=42 velocity=0 time=0.0076923
EXTRACT: note_on channel=9 note=64 velocity=0 time=0
EXTRACT: pitchwheel channel=8 pitch=-932 time=0.10384605
EXTRACT: note_on channel=9 note=54 velocity=0 time=0.00384615
EXTRACT: note_on channel=9 note=54 velocity=38 time=0
EXTRACT: pitchwheel channel=8 pitch=-2314 time=0.00384615
EXTRACT: note_on channel=8 note=64 velocity=0 time=0.00384615
EXTRACT: note_on channel=8 note=69 velocity=86 time=0
EXTRACT: note_on channel=9 note=36 velocity=86 time=0
EXTRACT: note_on channel=9 note=42 velocity=94 time=0
EXTRACT: pitchwheel channel=8 pitch=-3759 time=0.00384615
EXTRACT: pitchwheel channel=8 pitch=-4819 time=0.0076923
EXTRACT: pitchwheel channel=8 pitch=-5462 time=0.0076923
EXTRACT: pitchwheel channel=8 pitch=-5526 time=0.0076923
EXTRACT: pitchwheel channel=8 pitch=-5430 time=0.01153845
EXTRACT: pitchwheel channel=8 pitch=-5012 time=0.0076923
EXTRACT: pitchwheel channel=8 pitch=-4659 time=0.0076923
EXTRACT: pitchwheel channel=8 pitch=-4145 time=0.0076923
EXTRACT: pitchwheel channel=8 pitch=-3727 time=0.0076923
EXTRACT: pitchwheel channel=8 pitch=-3406 time=0.01153845
EXTRACT: pitchwheel channel=8 pitch=-3085 time=0.0076923
EXTRACT: pitchwheel channel=8 pitch=-2635 time=0.0076923
EXTRACT: pitchwheel channel=8 pitch=-2217 time=0.01153845
EXTRACT: note_on channel=9 note=54 velocity=0 time=0
EXTRACT: note_on channel=9 note=54 velocity=27 time=0
EXTRACT: pitchwheel channel=8 pitch=-1767 time=0.0076923
EXTRACT: note_on channel=9 note=36 velocity=0 time=0
EXTRACT: note_on channel=9 note=42 velocity=0 time=0
EXTRACT: pitchwheel channel=8 pitch=-1253 time=0.0076923
EXTRACT: pitchwheel channel=8 pitch=-868 time=0.00384615
EXTRACT: pitchwheel channel=8 pitch=-386 time=0.0076923
EXTRACT: pitchwheel channel=8 pitch=0 time=0.01153845
EXTRACT: note_on channel=9 note=54 velocity=0 time=0.076923
EXTRACT: note_on channel=9 note=54 velocity=27 time=0
EXTRACT: note_on channel=1 note=34 velocity=0 time=0.0076923
EXTRACT: note_on channel=1 note=31 velocity=79 time=0
EXTRACT: note_on channel=3 note=65 velocity=94 time=0
EXTRACT: note_on channel=9 note=36 velocity=85 time=0
EXTRACT: note_on channel=9 note=42 velocity=31 time=0
EXTRACT: note_on channel=9 note=62 velocity=36 time=0
EXTRACT: note_on channel=3 note=62 velocity=90 time=0.01153845
EXTRACT: note_on channel=3 note=70 velocity=96 time=0.01153845
EXTRACT: note_on channel=9 note=54 velocity=0 time=0.0846153
EXTRACT: note_on channel=9 note=54 velocity=27 time=0
EXTRACT: note_on channel=3 note=70 velocity=0 time=0.0076923
EXTRACT: note_on channel=3 note=62 velocity=0 time=0
EXTRACT: note_on channel=3 note=65 velocity=0 time=0
EXTRACT: note_on channel=8 note=69 velocity=0 time=0
EXTRACT: note_on channel=9 note=36 velocity=0 time=0
EXTRACT: note_on channel=9 note=42 velocity=0 time=0
EXTRACT: note_on channel=9 note=62 velocity=0 time=0
EXTRACT: note_on channel=9 note=54 velocity=0 time=0.1076922
EXTRACT: note_on channel=9 note=54 velocity=36 time=0
EXTRACT: note_on channel=1 note=31 velocity=0 time=0.0076923
EXTRACT: note_on channel=1 note=34 velocity=79 time=0
EXTRACT: note_on channel=8 note=67 velocity=97 time=0
EXTRACT: note_on channel=9 note=40 velocity=87 time=0
EXTRACT: note_on channel=9 note=42 velocity=99 time=0
EXTRACT: note_on channel=9 note=62 velocity=50 time=0
EXTRACT: note_on channel=9 note=54 velocity=0 time=0.1076922
EXTRACT: note_on channel=9 note=54 velocity=27 time=0
EXTRACT: note_on channel=9 note=40 velocity=0 time=0.0076923
EXTRACT: note_on channel=9 note=42 velocity=0 time=0
EXTRACT: note_on channel=9 note=62 velocity=0 time=0
EXTRACT: note_on channel=9 note=54 velocity=0 time=0.1076922
EXTRACT: note_on channel=9 note=54 velocity=28 time=0
EXTRACT: note_on channel=1 note=34 velocity=0 time=0.0076923
EXTRACT: note_on channel=1 note=36 velocity=68 time=0
EXTRACT: note_on channel=9 note=36 velocity=71 time=0
EXTRACT: note_on channel=9 note=42 velocity=38 time=0
EXTRACT: note_on channel=9 note=63 velocity=58 time=0
EXTRACT: note_on channel=9 note=54 velocity=0 time=0.1076922
EXTRACT: note_on channel=9 note=54 velocity=38 time=0
EXTRACT: note_on channel=0 note=55 velocity=0 time=0.0076923
EXTRACT: note_on channel=0 note=65 velocity=0 time=0
EXTRACT: note_on channel=0 note=62 velocity=0 time=0
EXTRACT: note_on channel=0 note=58 velocity=0 time=0
EXTRACT: note_on channel=9 note=36 velocity=0 time=0
EXTRACT: note_on channel=9 note=42 velocity=0 time=0
EXTRACT: note_on channel=9 note=63 velocity=0 time=0
EXTRACT: note_on channel=9 note=54 velocity=0 time=0.1076922
EXTRACT: note_on channel=9 note=54 velocity=39 time=0
EXTRACT: note_on channel=0 note=57 velocity=75 time=0.0076923
EXTRACT: note_on channel=0 note=64 velocity=79 time=0
EXTRACT: note_on channel=0 note=60 velocity=90 time=0
EXTRACT: note_on channel=1 note=36 velocity=0 time=0
EXTRACT: note_on channel=1 note=33 velocity=101 time=0
EXTRACT: note_on channel=3 note=60 velocity=83 time=0
EXTRACT: note_on channel=9 note=36 velocity=101 time=0
EXTRACT: note_on channel=9 note=42 velocity=99 time=0
EXTRACT: note_on channel=3 note=69 velocity=75 time=0.01153845
EXTRACT: note_on channel=3 note=64 velocity=97 time=0.01153845
EXTRACT: note_on channel=9 note=54 velocity=0 time=0.0846153
EXTRACT: note_on channel=9 note=54 velocity=7 time=0
EXTRACT: note_on channel=9 note=36 velocity=0 time=0.0076923
EXTRACT: note_on channel=9 note=42 velocity=0 time=0
EXTRACT: note_on channel=9 note=54 velocity=0 time=0.1076922
EXTRACT: note_on channel=9 note=54 velocity=7 time=0
EXTRACT: note_on channel=1 note=33 velocity=0 time=0.0076923
EXTRACT: note_on channel=8 note=67 velocity=0 time=0
EXTRACT: note_on channel=9 note=42 velocity=27 time=0
EXTRACT: note_on channel=9 note=62 velocity=34 time=0
EXTRACT: note_on channel=9 note=54 velocity=0 time=0.1076922
EXTRACT: note_on channel=9 note=54 velocity=7 time=0
EXTRACT: note_on channel=9 note=42 velocity=0 time=0.0076923
EXTRACT: note_on channel=9 note=62 velocity=0 time=0
EXTRACT: note_on channel=9 note=54 velocity=0 time=0.1076922
EXTRACT: note_on channel=9 note=54 velocity=10 time=0
EXTRACT: note_on channel=1 note=33 velocity=110 time=0.0076923
EXTRACT: note_on channel=3 note=64 velocity=0 time=0
EXTRACT: note_on channel=3 note=69 velocity=0 time=0
EXTRACT: note_on channel=3 note=60 velocity=0 time=0
EXTRACT: note_on channel=3 note=60 velocity=88 time=0
EXTRACT: note_on channel=8 note=67 velocity=113 time=0
EXTRACT: note_on channel=9 note=40 velocity=93 time=0
EXTRACT: note_on channel=9 note=42 velocity=94 time=0
EXTRACT: note_on channel=9 note=62 velocity=46 time=0
EXTRACT: note_on channel=3 note=69 velocity=85 time=0.01153845
EXTRACT: note_on channel=3 note=64 velocity=104 time=0.01153845
EXTRACT: note_on channel=9 note=54 velocity=0 time=0.0846153
EXTRACT: note_on channel=9 note=54 velocity=13 time=0
EXTRACT: note_on channel=3 note=64 velocity=0 time=0.0076923
EXTRACT: note_on channel=3 note=69 velocity=0 time=0
EXTRACT: note_on channel=3 note=60 velocity=0 time=0
EXTRACT: note_on channel=9 note=40 velocity=0 time=0
EXTRACT: note_on channel=9 note=42 velocity=0 time=0
EXTRACT: note_on channel=9 note=62 velocity=0 time=0
EXTRACT: note_on channel=9 note=54 velocity=0 time=0.1076922
EXTRACT: note_on channel=9 note=54 velocity=12 time=0
EXTRACT: note_on channel=1 note=33 velocity=0 time=0.0076923
EXTRACT: note_on channel=8 note=67 velocity=0 time=0
EXTRACT: note_on channel=8 note=65 velocity=85 time=0
EXTRACT: note_on channel=9 note=42 velocity=23 time=0
EXTRACT: note_on channel=9 note=64 velocity=66 time=0
EXTRACT: note_on channel=9 note=54 velocity=0 time=0.1076922
EXTRACT: note_on channel=9 note=54 velocity=13 time=0
EXTRACT: note_on channel=8 note=65 velocity=0 time=0.0076923
EXTRACT: note_on channel=9 note=42 velocity=0 time=0
EXTRACT: note_on channel=9 note=64 velocity=0 time=0
EXTRACT: note_on channel=9 note=54 velocity=0 time=0.1076922
EXTRACT: note_on channel=9 note=54 velocity=42 time=0
EXTRACT: note_on channel=1 note=33 velocity=104 time=0.0076923
EXTRACT: note_on channel=8 note=65 velocity=94 time=0
EXTRACT: note_on channel=9 note=36 velocity=85 time=0
EXTRACT: note_on channel=9 note=42 velocity=99 time=0
EXTRACT: note_on channel=9 note=54 velocity=0 time=0.1076922
EXTRACT: note_on channel=9 note=54 velocity=28 time=0
EXTRACT: note_on channel=9 note=36 velocity=0 time=0.0076923
EXTRACT: note_on channel=9 note=42 velocity=0 time=0
EXTRACT: note_on channel=9 note=54 velocity=0 time=0.1076922
EXTRACT: note_on channel=9 note=54 velocity=28 time=0
EXTRACT: note_on channel=1 note=33 velocity=0 time=0.0076923
EXTRACT: note_on channel=1 note=29 velocity=80 time=0
EXTRACT: note_on channel=3 note=69 velocity=85 time=0
EXTRACT: note_on channel=8 note=65 velocity=0 time=0
EXTRACT: note_on channel=8 note=64 velocity=88 time=0
EXTRACT: note_on channel=9 note=36 velocity=83 time=0
EXTRACT: note_on channel=9 note=42 velocity=53 time=0
EXTRACT: note_on channel=9 note=62 velocity=37 time=0
EXTRACT: note_on channel=3 note=60 velocity=90 time=0.01153845
EXTRACT: note_on channel=3 note=64 velocity=104 time=0.01153845
EXTRACT: note_on channel=9 note=54 velocity=0 time=0.0846153
EXTRACT: note_on channel=9 note=54 velocity=28 time=0
EXTRACT: note_on channel=3 note=64 velocity=0 time=0.0076923
EXTRACT: note_on channel=3 note=60 velocity=0 time=0
EXTRACT: note_on channel=3 note=69 velocity=0 time=0
EXTRACT: note_on channel=8 note=64 velocity=0 time=0
EXTRACT: note_on channel=9 note=36 velocity=0 time=0
EXTRACT: note_on channel=9 note=42 velocity=0 time=0
EXTRACT: note_on channel=9 note=62 velocity=0 time=0
EXTRACT: note_on channel=9 note=54 velocity=0 time=0.1076922
EXTRACT: note_on channel=9 note=54 velocity=41 time=0
EXTRACT: note_on channel=0 note=60 velocity=0 time=0.0076923
EXTRACT: note_on channel=0 note=64 velocity=0 time=0
EXTRACT: note_on channel=0 note=57 velocity=0 time=0
EXTRACT: note_on channel=1 note=29 velocity=0 time=0
EXTRACT: note_on channel=1 note=33 velocity=92 time=0
EXTRACT: note_on channel=8 note=64 velocity=92 time=0
EXTRACT: note_on channel=9 note=40 velocity=100 time=0
EXTRACT: note_on channel=9 note=42 velocity=99 time=0
EXTRACT: note_on channel=9 note=62 velocity=43 time=0
EXTRACT: note_on channel=9 note=54 velocity=0 time=0.1076922
EXTRACT: note_on channel=9 note=54 velocity=28 time=0
EXTRACT: note_on channel=9 note=40 velocity=0 time=0.0076923
EXTRACT: note_on channel=9 note=42 velocity=0 time=0
EXTRACT: note_on channel=9 note=62 velocity=0 time=0
EXTRACT: note_on channel=9 note=54 velocity=0 time=0.1076922
EXTRACT: note_on channel=9 note=54 velocity=31 time=0
EXTRACT: note_on channel=0 note=62 velocity=86 time=0.0076923
EXTRACT: note_on channel=0 note=59 velocity=73 time=0
EXTRACT: note_on channel=0 note=65 velocity=79 time=0
EXTRACT: note_on channel=1 note=33 velocity=0 time=0
EXTRACT: note_on channel=1 note=31 velocity=75 time=0
EXTRACT: note_on channel=3 note=59 velocity=90 time=0
EXTRACT: note_on channel=8 note=64 velocity=0 time=0
EXTRACT: note_on channel=8 note=62 velocity=83 time=0
EXTRACT: note_on channel=9 note=36 velocity=71 time=0
EXTRACT: note_on channel=9 note=42 velocity=31 time=0
EXTRACT: note_on channel=9 note=63 velocity=58 time=0
EXTRACT: note_on channel=3 note=67 velocity=83 time=0.01153845
EXTRACT: note_on channel=3 note=62 velocity=104 time=0.01153845
EXTRACT: note_on channel=9 note=54 velocity=0 time=0.0846153
EXTRACT: note_on channel=9 note=54 velocity=37 time=0
EXTRACT: note_on channel=9 note=36 velocity=0 time=0.0076923
EXTRACT: note_on channel=9 note=42 velocity=0 time=0
EXTRACT: note_on channel=9 note=63 velocity=0 time=0
EXTRACT: note_on channel=9 note=54 velocity=0 time=0.1076922
EXTRACT: note_on channel=9 note=54 velocity=41 time=0
EXTRACT: note_on channel=1 note=31 velocity=0 time=0.0076923
EXTRACT: note_on channel=8 note=62 velocity=0 time=0
EXTRACT: note_on channel=8 note=64 velocity=99 time=0
EXTRACT: note_on channel=9 note=36 velocity=101 time=0
EXTRACT: note_on channel=9 note=42 velocity=99 time=0
EXTRACT: note_on channel=9 note=54 velocity=0 time=0.1076922
EXTRACT: note_on channel=9 note=54 velocity=10 time=0
EXTRACT: note_on channel=9 note=36 velocity=0 time=0.0076923
EXTRACT: note_on channel=9 note=42 velocity=0 time=0
EXTRACT: note_on channel=9 note=54 velocity=0 time=0.1076922
EXTRACT: note_on channel=9 note=54 velocity=10 time=0
EXTRACT: note_on channel=1 note=31 velocity=94 time=0.0076923
EXTRACT: note_on channel=9 note=42 velocity=42 time=0
EXTRACT: note_on channel=9 note=62 velocity=38 time=0
EXTRACT: note_on channel=9 note=54 velocity=0 time=0.1076922
EXTRACT: note_on channel=9 note=54 velocity=11 time=0
EXTRACT: note_on channel=8 note=64 velocity=0 time=0.0076923
EXTRACT: note_on channel=9 note=42 velocity=0 time=0
EXTRACT: note_on channel=9 note=62 velocity=0 time=0
EXTRACT: note_on channel=9 note=54 velocity=0 time=0.1076922
EXTRACT: note_on channel=9 note=54 velocity=11 time=0
EXTRACT: note_on channel=1 note=31 velocity=0 time=0.0076923
EXTRACT: note_on channel=3 note=62 velocity=0 time=0
EXTRACT: note_on channel=3 note=67 velocity=0 time=0
EXTRACT: note_on channel=3 note=59 velocity=0 time=0
EXTRACT: note_on channel=3 note=59 velocity=94 time=0
EXTRACT: note_on channel=8 note=64 velocity=99 time=0
EXTRACT: note_on channel=9 note=40 velocity=93 time=0
EXTRACT: note_on channel=9 note=42 velocity=99 time=0
EXTRACT: note_on channel=9 note=62 velocity=49 time=0
EXTRACT: note_on channel=3 note=67 velocity=90 time=0.01153845
EXTRACT: note_on channel=3 note=62 velocity=110 time=0.01153845
EXTRACT: note_on channel=9 note=54 velocity=0 time=0.0846153
EXTRACT: note_on channel=9 note=54 velocity=11 time=0
EXTRACT: note_on channel=3 note=62 velocity=0 time=0.0076923
EXTRACT: note_on channel=3 note=67 velocity=0 time=0
EXTRACT: note_on channel=3 note=59 velocity=0 time=0
EXTRACT: note_on channel=9 note=40 velocity=0 time=0
EXTRACT: note_on channel=9 note=42 velocity=0 time=0
EXTRACT: note_on channel=9 note=62 velocity=0 time=0
EXTRACT: note_on channel=9 note=54 velocity=0 time=0.1076922
EXTRACT: note_on channel=9 note=54 velocity=13 time=0
EXTRACT: note_on channel=1 note=31 velocity=104 time=0.0076923
EXTRACT: note_on channel=8 note=64 velocity=0 time=0
EXTRACT: note_on channel=8 note=65 velocity=85 time=0
EXTRACT: note_on channel=9 note=42 velocity=46 time=0
EXTRACT: note_on channel=9 note=64 velocity=70 time=0
EXTRACT: note_on channel=9 note=54 velocity=0 time=0.1076922
EXTRACT: note_on channel=9 note=54 velocity=13 time=0
EXTRACT: note_on channel=9 note=42 velocity=0 time=0.0076923
EXTRACT: note_on channel=9 note=64 velocity=0 time=0
EXTRACT: note_on channel=9 note=54 velocity=0 time=0.1076922
EXTRACT: note_on channel=9 note=54 velocity=38 time=0
EXTRACT: note_on channel=8 note=65 velocity=0 time=0.0076923
EXTRACT: note_on channel=8 note=64 velocity=94 time=0
EXTRACT: note_on channel=9 note=36 velocity=94 time=0
EXTRACT: note_on channel=9 note=42 velocity=94 time=0
EXTRACT: note_on channel=9 note=54 velocity=0 time=0.1076922
EXTRACT: note_on channel=9 note=54 velocity=27 time=0
EXTRACT: note_on channel=9 note=36 velocity=0 time=0.0076923
EXTRACT: note_on channel=9 note=42 velocity=0 time=0
EXTRACT: note_on channel=9 note=54 velocity=0 time=0.1076922
EXTRACT: note_on channel=9 note=54 velocity=27 time=0
EXTRACT: note_on channel=1 note=31 velocity=0 time=0.0076923
EXTRACT: note_on channel=1 note=33 velocity=101 time=0
EXTRACT: note_on channel=3 note=67 velocity=92 time=0
EXTRACT: note_on channel=9 note=36 velocity=88 time=0
EXTRACT: note_on channel=9 note=42 velocity=46 time=0
EXTRACT: note_on channel=9 note=62 velocity=48 time=0
EXTRACT: note_on channel=3 note=59 velocity=97 time=0.01153845
EXTRACT: note_on channel=3 note=62 velocity=107 time=0.01153845
EXTRACT: note_on channel=9 note=42 velocity=0 time=0.03461535
EXTRACT: note_on channel=9 note=54 velocity=0 time=0.04999995
EXTRACT: note_on channel=9 note=54 velocity=27 time=0
EXTRACT: note_on channel=3 note=62 velocity=0 time=0.0076923
EXTRACT: note_on channel=3 note=59 velocity=0 time=0
EXTRACT: note_on channel=3 note=67 velocity=0 time=0
EXTRACT: note_on channel=9 note=36 velocity=0 time=0
EXTRACT: note_on channel=9 note=62 velocity=0 time=0
EXTRACT: note_on channel=9 note=54 velocity=0 time=0.1076922
EXTRACT: note_on channel=9 note=54 velocity=36 time=0
EXTRACT: note_on channel=1 note=33 velocity=0 time=0.0076923
EXTRACT: note_on channel=1 note=36 velocity=79 time=0
EXTRACT: note_on channel=8 note=64 velocity=0 time=0
EXTRACT: note_on channel=8 note=62 velocity=78 time=0
EXTRACT: note_on channel=9 note=40 velocity=93 time=0
EXTRACT: note_on channel=9 note=42 velocity=89 time=0
EXTRACT: note_on channel=9 note=62 velocity=52 time=0
EXTRACT: note_on channel=9 note=54 velocity=0 time=0.1076922
EXTRACT: note_on channel=9 note=54 velocity=27 time=0
EXTRACT: note_on channel=9 note=40 velocity=0 time=0.0076923
EXTRACT: note_on channel=9 note=42 velocity=0 time=0
EXTRACT: note_on channel=9 note=62 velocity=0 time=0
EXTRACT: note_on channel=9 note=54 velocity=0 time=0.1076922
EXTRACT: note_on channel=9 note=54 velocity=28 time=0
EXTRACT: note_on channel=0 note=65 velocity=0 time=0.0076923
EXTRACT: note_on channel=1 note=36 velocity=0 time=0
EXTRACT: note_on channel=1 note=33 velocity=101 time=0
EXTRACT: note_on channel=8 note=62 velocity=0 time=0
EXTRACT: note_on channel=8 note=60 velocity=85 time=0
EXTRACT: note_on channel=9 note=36 velocity=71 time=0
EXTRACT: note_on channel=9 note=42 velocity=51 time=0
EXTRACT: note_on channel=9 note=63 velocity=67 time=0
EXTRACT: note_on channel=9 note=54 velocity=0 time=0.1076922
EXTRACT: note_on channel=9 note=54 velocity=38 time=0
EXTRACT: note_on channel=0 note=59 velocity=0 time=0.0076923
EXTRACT: note_on channel=0 note=62 velocity=0 time=0
EXTRACT: note_on channel=9 note=36 velocity=0 time=0
EXTRACT: note_on channel=9 note=42 velocity=0 time=0
EXTRACT: note_on channel=9 note=63 velocity=0 time=0
EXTRACT: note_on channel=9 note=54 velocity=0 time=0.1076922
EXTRACT: note_on channel=9 note=54 velocity=39 time=0
EXTRACT: note_on channel=0 note=60 velocity=86 time=0.0076923
EXTRACT: note_on channel=0 note=64 velocity=83 time=0
EXTRACT: note_on channel=0 note=55 velocity=85 time=0
EXTRACT: note_on channel=1 note=33 velocity=0 time=0
EXTRACT: note_on channel=1 note=36 velocity=92 time=0
EXTRACT: note_on channel=3 note=64 velocity=88 time=0
EXTRACT: note_on channel=8 note=60 velocity=0 time=0
EXTRACT: note_on channel=9 note=36 velocity=97 time=0
EXTRACT: note_on channel=9 note=42 velocity=99 time=0
EXTRACT: note_on channel=9 note=63 velocity=50 time=0
EXTRACT: note_on channel=3 note=72 velocity=78 time=0.01153845
EXTRACT: note_on channel=3 note=67 velocity=104 time=0.01153845
EXTRACT: note_on channel=9 note=54 velocity=0 time=0.0846153
EXTRACT: note_on channel=9 note=54 velocity=7 time=0
EXTRACT: note_on channel=9 note=36 velocity=0 time=0.0076923
EXTRACT: note_on channel=9 note=42 velocity=0 time=0
EXTRACT: note_on channel=9 note=63 velocity=0 time=0
EXTRACT: note_on channel=9 note=54 velocity=0 time=0.1076922
EXTRACT: note_on channel=9 note=54 velocity=7 time=0
EXTRACT: note_on channel=1 note=36 velocity=0 time=0.0076923
EXTRACT: note_on channel=9 note=42 velocity=32 time=0
EXTRACT: note_on channel=9 note=62 velocity=56 time=0
EXTRACT: note_on channel=9 note=54 velocity=0 time=0.1076922
EXTRACT: note_on channel=9 note=54 velocity=7 time=0
EXTRACT: note_on channel=3 note=67 velocity=0 time=0.0076923
EXTRACT: note_on channel=3 note=72 velocity=0 time=0
EXTRACT: note_on channel=3 note=64 velocity=0 time=0
EXTRACT: note_on channel=9 note=42 velocity=0 time=0
EXTRACT: note_on channel=9 note=62 velocity=0 time=0
EXTRACT: note_on channel=9 note=54 velocity=0 time=0.1076922
EXTRACT: note_on channel=9 note=54 velocity=10 time=0
EXTRACT: note_on channel=1 note=36 velocity=85 time=0.0076923
EXTRACT: note_on channel=3 note=64 velocity=88 time=0
EXTRACT: note_on channel=7 note=55 velocity=120 time=0
EXTRACT: note_on channel=9 note=40 velocity=93 time=0
EXTRACT: note_on channel=9 note=42 velocity=99 time=0
EXTRACT: note_on channel=9 note=62 velocity=58 time=0
EXTRACT: note_on channel=3 note=67 velocity=104 time=0.01153845
EXTRACT: note_on channel=3 note=72 velocity=94 time=0.01153845
EXTRACT: note_on channel=9 note=54 velocity=0 time=0.0846153
EXTRACT: note_on channel=9 note=54 velocity=13 time=0
EXTRACT: note_on channel=3 note=72 velocity=0 time=0.0076923
EXTRACT: note_on channel=3 note=67 velocity=0 time=0
EXTRACT: note_on channel=3 note=64 velocity=0 time=0
EXTRACT: note_on channel=9 note=40 velocity=0 time=0
EXTRACT: note_on channel=9 note=42 velocity=0 time=0
EXTRACT: note_on channel=9 note=62 velocity=0 time=0
EXTRACT: note_on channel=9 note=54 velocity=0 time=0.1076922
EXTRACT: note_on channel=9 note=54 velocity=12 time=0
EXTRACT: note_on channel=1 note=36 velocity=0 time=0.0076923
EXTRACT: note_on channel=7 note=55 velocity=0 time=0
EXTRACT: note_on channel=9 note=42 velocity=49 time=0
EXTRACT: note_on channel=9 note=64 velocity=70 time=0
EXTRACT: note_on channel=9 note=54 velocity=0 time=0.1076922
EXTRACT: note_on channel=9 note=54 velocity=13 time=0
EXTRACT: note_on channel=9 note=42 velocity=0 time=0.0076923
EXTRACT: note_on channel=9 note=64 velocity=0 time=0
EXTRACT: note_on channel=9 note=54 velocity=0 time=0.1076922
EXTRACT: note_on channel=9 note=54 velocity=42 time=0
EXTRACT: note_on channel=1 note=36 velocity=88 time=0.0076923
EXTRACT: note_on channel=7 note=55 velocity=117 time=0
EXTRACT: note_on channel=9 note=36 velocity=88 time=0
EXTRACT: note_on channel=9 note=42 velocity=84 time=0
EXTRACT: note_on channel=9 note=54 velocity=0 time=0.1076922
EXTRACT: note_on channel=9 note=54 velocity=28 time=0
EXTRACT: note_on channel=9 note=36 velocity=0 time=0.0076923
EXTRACT: note_on channel=9 note=42 velocity=0 time=0
EXTRACT: note_on channel=9 note=54 velocity=0 time=0.1076922
EXTRACT: note_on channel=9 note=54 velocity=28 time=0
EXTRACT: note_on channel=1 note=36 velocity=0 time=0.0076923
EXTRACT: note_on channel=1 note=31 velocity=79 time=0
EXTRACT: note_on channel=3 note=72 velocity=86 time=0
EXTRACT: note_on channel=7 note=55 velocity=0 time=0
EXTRACT: note_on channel=7 note=60 velocity=104 time=0
EXTRACT: note_on channel=9 note=36 velocity=94 time=0
EXTRACT: note_on channel=9 note=42 velocity=53 time=0
EXTRACT: note_on channel=9 note=62 velocity=36 time=0
EXTRACT: note_on channel=3 note=64 velocity=86 time=0.01153845
EXTRACT: note_on channel=3 note=67 velocity=104 time=0.01153845
EXTRACT: note_on channel=9 note=54 velocity=0 time=0.0846153
EXTRACT: note_on channel=9 note=54 velocity=28 time=0
EXTRACT: note_on channel=3 note=67 velocity=0 time=0.0076923
EXTRACT: note_on channel=3 note=64 velocity=0 time=0
EXTRACT: note_on channel=3 note=72 velocity=0 time=0
EXTRACT: note_on channel=9 note=36 velocity=0 time=0
EXTRACT: note_on channel=9 note=42 velocity=0 time=0
EXTRACT: note_on channel=9 note=62 velocity=0 time=0
EXTRACT: note_on channel=9 note=54 velocity=0 time=0.1076922
EXTRACT: note_on channel=9 note=54 velocity=41 time=0
EXTRACT: note_on channel=0 note=55 velocity=0 time=0.0076923
EXTRACT: note_on channel=0 note=64 velocity=0 time=0
EXTRACT: note_on channel=0 note=60 velocity=0 time=0
EXTRACT: note_on channel=1 note=31 velocity=0 time=0
EXTRACT: note_on channel=1 note=33 velocity=69 time=0
EXTRACT: note_on channel=7 note=60 velocity=0 time=0
EXTRACT: note_on channel=9 note=40 velocity=93 time=0
EXTRACT: note_on channel=9 note=42 velocity=94 time=0
EXTRACT: note_on channel=9 note=62 velocity=52 time=0
EXTRACT: note_on channel=9 note=54 velocity=0 time=0.1076922
EXTRACT: note_on channel=9 note=54 velocity=28 time=0
EXTRACT: note_on channel=9 note=40 velocity=0 time=0.0076923
EXTRACT: note_on channel=9 note=42 velocity=0 time=0
EXTRACT: note_on channel=9 note=62 velocity=0 time=0
EXTRACT: pitchwheel channel=7 pitch=-482 time=0.10384605
EXTRACT: note_on channel=9 note=54 velocity=0 time=0.00384615
EXTRACT: note_on channel=9 note=54 velocity=31 time=0
EXTRACT: note_on channel=0 note=62 velocity=80 time=0.0076923
EXTRACT: note_on channel=0 note=58 velocity=81 time=0
EXTRACT: note_on channel=0 note=55 velocity=82 time=0
EXTRACT: note_on channel=0 note=65 velocity=75 time=0
EXTRACT: note_on channel=1 note=33 velocity=0 time=0
EXTRACT: note_on channel=1 note=34 velocity=96 time=0
EXTRACT: note_on channel=3 note=62 velocity=86 time=0
EXTRACT: pitchwheel channel=7 pitch=-2217 time=0
EXTRACT: note_on channel=7 note=62 velocity=123 time=0
EXTRACT: note_on channel=9 note=36 velocity=70 time=0
EXTRACT: note_on channel=9 note=42 velocity=38 time=0
EXTRACT: note_on channel=9 note=63 velocity=56 time=0
EXTRACT: pitchwheel channel=7 pitch=-3759 time=0.00384615
EXTRACT: note_on channel=3 note=65 velocity=94 time=0.0076923
EXTRACT: pitchwheel channel=7 pitch=-4755 time=0.00384615
EXTRACT: note_on channel=3 note=70 velocity=92 time=0.0076923
EXTRACT: pitchwheel channel=7 pitch=-5141 time=0
EXTRACT: pitchwheel channel=7 pitch=-5365 time=0.0076923
EXTRACT: pitchwheel channel=7 pitch=-5333 time=0.0076923
EXTRACT: pitchwheel channel=7 pitch=-4948 time=0.0076923
EXTRACT: pitchwheel channel=7 pitch=-4530 time=0.0076923
EXTRACT: pitchwheel channel=7 pitch=-3984 time=0.0076923
EXTRACT: pitchwheel channel=7 pitch=-3374 time=0.01153845
EXTRACT: pitchwheel channel=7 pitch=-2699 time=0.0076923
EXTRACT: pitchwheel channel=7 pitch=-2024 time=0.0076923
EXTRACT: pitchwheel channel=7 pitch=-1350 time=0.0076923
EXTRACT: pitchwheel channel=7 pitch=-579 time=0.01153845
EXTRACT: note_on channel=9 note=54 velocity=0 time=0
EXTRACT: note_on channel=9 note=54 velocity=37 time=0
EXTRACT: pitchwheel channel=7 pitch=-129 time=0.0076923
EXTRACT: note_on channel=9 note=36 velocity=0 time=0
EXTRACT: note_on channel=9 note=42 velocity=0 time=0
EXTRACT: note_on channel=9 note=63 velocity=0 time=0
EXTRACT: pitchwheel channel=7 pitch=0 time=0.0076923
EXTRACT: note_on channel=9 note=54 velocity=0 time=0.0999999
EXTRACT: note_on channel=9 note=54 velocity=41 time=0
EXTRACT: note_on channel=1 note=34 velocity=0 time=0.0076923
EXTRACT: note_on channel=9 note=36 velocity=104 time=0
EXTRACT: note_on channel=9 note=42 velocity=94 time=0
EXTRACT: note_on channel=9 note=54 velocity=0 time=0.1076922
EXTRACT: note_on channel=9 note=54 velocity=10 time=0
EXTRACT: note_on channel=9 note=36 velocity=0 time=0.0076923
EXTRACT: note_on channel=9 note=42 velocity=0 time=0
EXTRACT: note_on channel=9 note=54 velocity=0 time=0.1076922
EXTRACT: note_on channel=9 note=54 velocity=10 time=0
EXTRACT: note_on channel=1 note=34 velocity=92 time=0.0076923
EXTRACT: note_on channel=9 note=42 velocity=40 time=0
EXTRACT: note_on channel=9 note=62 velocity=46 time=0
EXTRACT: note_on channel=9 note=54 velocity=0 time=0.1076922
EXTRACT: note_on channel=9 note=54 velocity=11 time=0
EXTRACT: note_on channel=1 note=34 velocity=0 time=0.0076923
EXTRACT: note_on channel=3 note=70 velocity=0 time=0
EXTRACT: note_on channel=3 note=65 velocity=0 time=0
EXTRACT: note_on channel=3 note=62 velocity=0 time=0
EXTRACT: note_on channel=7 note=62 velocity=0 time=0
EXTRACT: note_on channel=9 note=42 velocity=0 time=0
EXTRACT: note_on channel=9 note=62 velocity=0 time=0
EXTRACT: note_on channel=9 note=54 velocity=0 time=0.1076922
EXTRACT: note_on channel=9 note=54 velocity=11 time=0
EXTRACT: note_on channel=1 note=34 velocity=100 time=0.0076923
EXTRACT: note_on channel=3 note=65 velocity=94 time=0
EXTRACT: note_on channel=7 note=67 velocity=101 time=0
EXTRACT: note_on channel=9 note=40 velocity=87 time=0
EXTRACT: note_on channel=9 note=42 velocity=94 time=0
EXTRACT: note_on channel=9 note=62 velocity=50 time=0
EXTRACT: note_on channel=3 note=62 velocity=85 time=0.01153845
EXTRACT: note_on channel=3 note=70 velocity=104 time=0.01153845
EXTRACT: note_on channel=9 note=54 velocity=0 time=0.0846153
EXTRACT: note_on channel=9 note=54 velocity=11 time=0
EXTRACT: note_on channel=3 note=70 velocity=0 time=0.0076923
EXTRACT: note_on channel=3 note=62 velocity=0 time=0
EXTRACT: note_on channel=3 note=65 velocity=0 time=0
EXTRACT: note_on channel=9 note=40 velocity=0 time=0
EXTRACT: note_on channel=9 note=42 velocity=0 time=0
EXTRACT: note_on channel=9 note=62 velocity=0 time=0
EXTRACT: note_on channel=9 note=54 velocity=0 time=0.1076922
EXTRACT: note_on channel=9 note=54 velocity=13 time=0
EXTRACT: note_on channel=7 note=67 velocity=0 time=0.0076923
EXTRACT: note_on channel=9 note=42 velocity=34 time=0
EXTRACT: note_on channel=9 note=64 velocity=66 time=0
EXTRACT: note_on channel=9 note=54 velocity=0 time=0.1076922
EXTRACT: note_on channel=9 note=54 velocity=13 time=0
EXTRACT: note_on channel=9 note=42 velocity=0 time=0.0076923
EXTRACT: note_on channel=9 note=64 velocity=0 time=0
EXTRACT: note_on channel=9 note=54 velocity=0 time=0.1076922
EXTRACT: note_on channel=9 note=54 velocity=38 time=0
EXTRACT: note_on channel=7 note=64 velocity=113 time=0.0076923
EXTRACT: note_on channel=9 note=36 velocity=86 time=0
EXTRACT: note_on channel=9 note=42 velocity=94 time=0
EXTRACT: note_on channel=9 note=54 velocity=0 time=0.1076922
EXTRACT: note_on channel=9 note=54 velocity=27 time=0
EXTRACT: note_on channel=9 note=36 velocity=0 time=0.0076923
EXTRACT: note_on channel=9 note=42 velocity=0 time=0
EXTRACT: note_on channel=9 note=54 velocity=0 time=0.1076922
EXTRACT: note_on channel=9 note=54 velocity=27 time=0
EXTRACT: note_on channel=1 note=34 velocity=0 time=0.0076923
EXTRACT: note_on channel=1 note=31 velocity=74 time=0
EXTRACT: note_on channel=3 note=62 velocity=90 time=0
EXTRACT: note_on channel=7 note=64 velocity=0 time=0
EXTRACT: note_on channel=7 note=60 velocity=110 time=0
EXTRACT: note_on channel=9 note=36 velocity=85 time=0
EXTRACT: note_on channel=9 note=42 velocity=31 time=0
EXTRACT: note_on channel=9 note=62 velocity=36 time=0
EXTRACT: note_on channel=3 note=65 velocity=101 time=0.01153845
EXTRACT: note_on channel=3 note=70 velocity=96 time=0.01153845
EXTRACT: note_on channel=9 note=54 velocity=0 time=0.0846153
EXTRACT: note_on channel=9 note=54 velocity=27 time=0
EXTRACT: note_on channel=3 note=70 velocity=0 time=0.0076923
EXTRACT: note_on channel=3 note=65 velocity=0 time=0
EXTRACT: note_on channel=3 note=62 velocity=0 time=0
EXTRACT: note_on channel=9 note=36 velocity=0 time=0
EXTRACT: note_on channel=9 note=42 velocity=0 time=0
EXTRACT: note_on channel=9 note=62 velocity=0 time=0
EXTRACT: note_on channel=9 note=54 velocity=0 time=0.1076922
EXTRACT: note_on channel=9 note=54 velocity=36 time=0
EXTRACT: note_on channel=1 note=31 velocity=0 time=0.0076923
EXTRACT: note_on channel=1 note=34 velocity=89 time=0
EXTRACT: note_on channel=7 note=60 velocity=0 time=0
EXTRACT: note_on channel=9 note=40 velocity=87 time=0
EXTRACT: note_on channel=9 note=42 velocity=99 time=0
EXTRACT: note_on channel=9 note=62 velocity=50 time=0
EXTRACT: note_on channel=9 note=54 velocity=0 time=0.1076922
EXTRACT: note_on channel=9 note=54 velocity=27 time=0
EXTRACT: note_on channel=9 note=40 velocity=0 time=0.0076923
EXTRACT: note_on channel=9 note=42 velocity=0 time=0
EXTRACT: note_on channel=9 note=62 velocity=0 time=0
EXTRACT: note_on channel=9 note=54 velocity=0 time=0.1076922
EXTRACT: note_on channel=9 note=54 velocity=28 time=0
EXTRACT: note_on channel=1 note=34 velocity=0 time=0.0076923
EXTRACT: note_on channel=1 note=36 velocity=67 time=0
EXTRACT: note_on channel=7 note=55 velocity=120 time=0
EXTRACT: note_on channel=9 note=36 velocity=71 time=0
EXTRACT: note_on channel=9 note=42 velocity=38 time=0
EXTRACT: note_on channel=9 note=63 velocity=58 time=0
EXTRACT: note_on channel=9 note=54 velocity=0 time=0.1076922
EXTRACT: note_on channel=9 note=54 velocity=38 time=0
EXTRACT: note_on channel=0 note=65 velocity=0 time=0.0076923
EXTRACT: note_on channel=0 note=62 velocity=0 time=0
EXTRACT: note_on channel=0 note=58 velocity=0 time=0
EXTRACT: note_on channel=0 note=55 velocity=0 time=0
EXTRACT: note_on channel=9 note=36 velocity=0 time=0
EXTRACT: note_on channel=9 note=42 velocity=0 time=0
EXTRACT: note_on channel=9 note=63 velocity=0 time=0
EXTRACT: note_on channel=9 note=54 velocity=0 time=0.1076922
EXTRACT: note_on channel=9 note=54 velocity=39 time=0
EXTRACT: note_on channel=0 note=60 velocity=78 time=0.0076923
EXTRACT: note_on channel=0 note=57 velocity=67 time=0
EXTRACT: note_on channel=0 note=64 velocity=73 time=0
EXTRACT: note_on channel=1 note=36 velocity=0 time=0
EXTRACT: note_on channel=1 note=33 velocity=85 time=0
EXTRACT: note_on channel=3 note=60 velocity=86 time=0
EXTRACT: note_on channel=9 note=36 velocity=101 time=0
EXTRACT: note_on channel=9 note=42 velocity=99 time=0
EXTRACT: note_on channel=3 note=69 velocity=85 time=0.01153845
EXTRACT: note_on channel=3 note=64 velocity=101 time=0.01153845
EXTRACT: note_on channel=9 note=54 velocity=0 time=0.0846153
EXTRACT: note_on channel=9 note=54 velocity=7 time=0
EXTRACT: note_on channel=9 note=36 velocity=0 time=0.0076923
EXTRACT: note_on channel=9 note=42 velocity=0 time=0
EXTRACT: note_on channel=9 note=54 velocity=0 time=0.1076922
EXTRACT: note_on channel=9 note=54 velocity=7 time=0
EXTRACT: note_on channel=1 note=33 velocity=0 time=0.0076923
EXTRACT: note_on channel=9 note=42 velocity=27 time=0
EXTRACT: note_on channel=9 note=62 velocity=34 time=0
EXTRACT: note_on channel=9 note=54 velocity=0 time=0.1076922
EXTRACT: note_on channel=9 note=54 velocity=7 time=0
EXTRACT: note_on channel=3 note=69 velocity=0 time=0.0076923
EXTRACT: note_on channel=7 note=55 velocity=0 time=0
EXTRACT: note_on channel=9 note=42 velocity=0 time=0
EXTRACT: note_on channel=9 note=62 velocity=0 time=0
EXTRACT: note_on channel=9 note=54 velocity=0 time=0.1076922
EXTRACT: note_on channel=9 note=54 velocity=10 time=0
EXTRACT: note_on channel=1 note=33 velocity=110 time=0.0076923
EXTRACT: note_on channel=3 note=64 velocity=0 time=0
EXTRACT: note_on channel=3 note=60 velocity=0 time=0
EXTRACT: note_on channel=3 note=60 velocity=83 time=0
EXTRACT: note_on channel=7 note=55 velocity=107 time=0
EXTRACT: note_on channel=9 note=40 velocity=93 time=0
EXTRACT: note_on channel=9 note=42 velocity=94 time=0
EXTRACT: note_on channel=9 note=62 velocity=46 time=0
EXTRACT: note_on channel=3 note=69 velocity=85 time=0.01153845
EXTRACT: note_on channel=3 note=64 velocity=99 time=0.01153845
EXTRACT: note_on channel=9 note=54 velocity=0 time=0.0846153
EXTRACT: note_on channel=9 note=54 velocity=13 time=0
EXTRACT: note_on channel=3 note=64 velocity=0 time=0.0076923
EXTRACT: note_on channel=3 note=69 velocity=0 time=0
EXTRACT: note_on channel=3 note=60 velocity=0 time=0
EXTRACT: note_on channel=9 note=40 velocity=0 time=0
EXTRACT: note_on channel=9 note=42 velocity=0 time=0
EXTRACT: note_on channel=9 note=62 velocity=0 time=0
EXTRACT: note_on channel=9 note=54 velocity=0 time=0.1076922
EXTRACT: note_on channel=9 note=54 velocity=12 time=0
EXTRACT: note_on channel=1 note=33 velocity=0 time=0.0076923
EXTRACT: note_on channel=7 note=55 velocity=0 time=0
EXTRACT: note_on channel=9 note=42 velocity=23 time=0
EXTRACT: note_on channel=9 note=64 velocity=66 time=0
EXTRACT: note_on channel=9 note=54 velocity=0 time=0.1076922
EXTRACT: note_on channel=9 note=54 velocity=13 time=0
EXTRACT: note_on channel=9 note=42 velocity=0 time=0.0076923
EXTRACT: note_on channel=9 note=64 velocity=0 time=0
EXTRACT: note_on channel=9 note=54 velocity=0 time=0.1076922
EXTRACT: note_on channel=9 note=54 velocity=42 time=0
EXTRACT: note_on channel=1 note=33 velocity=104 time=0.0076923
EXTRACT: note_on channel=7 note=55 velocity=113 time=0
EXTRACT: note_on channel=9 note=36 velocity=85 time=0
EXTRACT: note_on channel=9 note=42 velocity=99 time=0
EXTRACT: note_on channel=9 note=54 velocity=0 time=0.1076922
EXTRACT: note_on channel=9 note=54 velocity=28 time=0
EXTRACT: note_on channel=9 note=36 velocity=0 time=0.0076923
EXTRACT: note_on channel=9 note=42 velocity=0 time=0
EXTRACT: note_on channel=9 note=54 velocity=0 time=0.1076922
EXTRACT: note_on channel=9 note=54 velocity=28 time=0
EXTRACT: note_on channel=1 note=33 velocity=0 time=0.0076923
EXTRACT: note_on channel=1 note=29 velocity=74 time=0
EXTRACT: note_on channel=3 note=69 velocity=94 time=0
EXTRACT: note_on channel=7 note=55 velocity=0 time=0
EXTRACT: note_on channel=7 note=60 velocity=101 time=0
EXTRACT: note_on channel=9 note=36 velocity=83 time=0
EXTRACT: note_on channel=9 note=42 velocity=53 time=0
EXTRACT: note_on channel=9 note=62 velocity=37 time=0
EXTRACT: note_on channel=3 note=60 velocity=92 time=0.01153845
EXTRACT: note_on channel=3 note=64 velocity=104 time=0.01153845
EXTRACT: note_on channel=9 note=54 velocity=0 time=0.0846153
EXTRACT: note_on channel=9 note=54 velocity=28 time=0
EXTRACT: note_on channel=3 note=64 velocity=0 time=0.0076923
EXTRACT: note_on channel=3 note=60 velocity=0 time=0
EXTRACT: note_on channel=3 note=69 velocity=0 time=0
EXTRACT: note_on channel=9 note=36 velocity=0 time=0
EXTRACT: note_on channel=9 note=42 velocity=0 time=0
EXTRACT: note_on channel=9 note=62 velocity=0 time=0
EXTRACT: note_on channel=9 note=54 velocity=0 time=0.1076922
EXTRACT: note_on channel=9 note=54 velocity=41 time=0
EXTRACT: note_on channel=1 note=29 velocity=0 time=0.0076923
EXTRACT: note_on channel=1 note=33 velocity=92 time=0
EXTRACT: note_on channel=9 note=40 velocity=100 time=0
EXTRACT: note_on channel=9 note=42 velocity=99 time=0
EXTRACT: note_on channel=9 note=62 velocity=43 time=0
EXTRACT: note_on channel=9 note=54 velocity=0 time=0.1076922
EXTRACT: note_on channel=9 note=54 velocity=28 time=0
EXTRACT: note_on channel=0 note=64 velocity=0 time=0.0076923
EXTRACT: note_on channel=0 note=57 velocity=0 time=0
EXTRACT: note_on channel=0 note=60 velocity=0 time=0
EXTRACT: note_on channel=7 note=60 velocity=0 time=0
EXTRACT: note_on channel=9 note=40 velocity=0 time=0
EXTRACT: note_on channel=9 note=42 velocity=0 time=0
EXTRACT: note_on channel=9 note=62 velocity=0 time=0
EXTRACT: pitchwheel channel=7 pitch=-579 time=0.06538455
EXTRACT: pitchwheel channel=7 pitch=-2538 time=0.0076923
EXTRACT: pitchwheel channel=7 pitch=-4627 time=0.0076923
EXTRACT: pitchwheel channel=7 pitch=-6361 time=0.01153845
EXTRACT: pitchwheel channel=7 pitch=-7646 time=0.0076923
EXTRACT: note_on channel=9 note=54 velocity=0 time=0.0076923
EXTRACT: note_on channel=9 note=54 velocity=31 time=0
EXTRACT: pitchwheel channel=7 pitch=-8096 time=0.00384615
EXTRACT: note_on channel=0 note=62 velocity=82 time=0.00384615
EXTRACT: note_on channel=0 note=59 velocity=72 time=0
EXTRACT: note_on channel=0 note=65 velocity=83 time=0
EXTRACT: note_on channel=1 note=33 velocity=0 time=0
EXTRACT: note_on channel=1 note=31 velocity=80 time=0
EXTRACT: note_on channel=3 note=67 velocity=92 time=0
EXTRACT: note_on channel=7 note=62 velocity=110 time=0
EXTRACT: pitchwheel channel=7 pitch=-8160 time=0
EXTRACT: note_on channel=9 note=36 velocity=71 time=0
EXTRACT: note_on channel=9 note=42 velocity=31 time=0
EXTRACT: note_on channel=9 note=63 velocity=58 time=0
EXTRACT: pitchwheel channel=7 pitch=-7646 time=0.0076923
EXTRACT: note_on channel=3 note=59 velocity=92 time=0.00384615
EXTRACT: pitchwheel channel=7 pitch=-6747 time=0.0076923
EXTRACT: note_on channel=3 note=62 velocity=107 time=0.00384615
EXTRACT: pitchwheel channel=7 pitch=-5655 time=0
EXTRACT: pitchwheel channel=7 pitch=-4916 time=0.0076923
EXTRACT: pitchwheel channel=7 pitch=-4370 time=0.01153845
EXTRACT: pitchwheel channel=7 pitch=-3599 time=0.01153845
EXTRACT: pitchwheel channel=7 pitch=-2699 time=0.0076923
EXTRACT: pitchwheel channel=7 pitch=-1832 time=0.00384615
EXTRACT: pitchwheel channel=7 pitch=-964 time=0.01153845
EXTRACT: pitchwheel channel=7 pitch=-193 time=0.00384615
EXTRACT: pitchwheel channel=7 pitch=0 time=0.0153846
EXTRACT: note_on channel=9 note=54 velocity=0 time=0.01153845
EXTRACT: note_on channel=9 note=54 velocity=37 time=0
EXTRACT: note_on channel=9 note=36 velocity=0 time=0.0076923
EXTRACT: note_on channel=9 note=42 velocity=0 time=0
EXTRACT: note_on channel=9 note=63 velocity=0 time=0
EXTRACT: note_on channel=9 note=54 velocity=0 time=0.1076922
EXTRACT: note_on channel=9 note=54 velocity=41 time=0
EXTRACT: note_on channel=1 note=31 velocity=0 time=0.0076923
EXTRACT: note_on channel=9 note=36 velocity=101 time=0
EXTRACT: note_on channel=9 note=42 velocity=99 time=0
EXTRACT: note_on channel=9 note=54 velocity=0 time=0.1076922
EXTRACT: note_on channel=9 note=54 velocity=10 time=0
EXTRACT: note_on channel=7 note=62 velocity=0 time=0.0076923
EXTRACT: note_on channel=9 note=36 velocity=0 time=0
EXTRACT: note_on channel=9 note=42 velocity=0 time=0
EXTRACT: note_on channel=9 note=54 velocity=0 time=0.1076922
EXTRACT: note_on channel=9 note=54 velocity=10 time=0
EXTRACT: note_on channel=1 note=31 velocity=92 time=0.0076923
EXTRACT: note_on channel=7 note=62 velocity=107 time=0
EXTRACT: note_on channel=9 note=42 velocity=42 time=0
EXTRACT: note_on channel=9 note=62 velocity=38 time=0
EXTRACT: note_on channel=9 note=54 velocity=0 time=0.1076922
EXTRACT: note_on channel=9 note=54 velocity=11 time=0
EXTRACT: note_on channel=3 note=62 velocity=0 time=0.0076923
EXTRACT: note_on channel=3 note=59 velocity=0 time=0
EXTRACT: note_on channel=3 note=67 velocity=0 time=0
EXTRACT: note_on channel=7 note=62 velocity=0 time=0
EXTRACT: note_on channel=9 note=42 velocity=0 time=0
EXTRACT: note_on channel=9 note=62 velocity=0 time=0
EXTRACT: note_on channel=9 note=54 velocity=0 time=0.1076922
EXTRACT: note_on channel=9 note=54 velocity=11 time=0
EXTRACT: note_on channel=1 note=31 velocity=0 time=0.0076923
EXTRACT: note_on channel=3 note=67 velocity=82 time=0
EXTRACT: note_on channel=7 note=62 velocity=110 time=0
EXTRACT: note_on channel=9 note=40 velocity=93 time=0
EXTRACT: note_on channel=9 note=42 velocity=99 time=0
EXTRACT: note_on channel=9 note=62 velocity=49 time=0
EXTRACT: note_on channel=3 note=59 velocity=85 time=0.01153845
EXTRACT: note_on channel=3 note=62 velocity=101 time=0.01153845
EXTRACT: note_on channel=9 note=54 velocity=0 time=0.0846153
EXTRACT: note_on channel=9 note=54 velocity=11 time=0
EXTRACT: note_on channel=3 note=62 velocity=0 time=0.0076923
EXTRACT: note_on channel=3 note=59 velocity=0 time=0
EXTRACT: note_on channel=3 note=67 velocity=0 time=0
EXTRACT: note_on channel=9 note=40 velocity=0 time=0
EXTRACT: note_on channel=9 note=42 velocity=0 time=0
EXTRACT: note_on channel=9 note=62 velocity=0 time=0
EXTRACT: note_on channel=9 note=54 velocity=0 time=0.1076922
EXTRACT: note_on channel=9 note=54 velocity=13 time=0
EXTRACT: note_on channel=1 note=31 velocity=82 time=0.0076923
EXTRACT: note_on channel=7 note=62 velocity=0 time=0
EXTRACT: note_on channel=7 note=60 velocity=97 time=0
EXTRACT: note_on channel=9 note=42 velocity=46 time=0
EXTRACT: note_on channel=9 note=64 velocity=70 time=0
EXTRACT: note_on channel=9 note=54 velocity=0 time=0.1076922
EXTRACT: note_on channel=9 note=54 velocity=13 time=0
EXTRACT: note_on channel=9 note=42 velocity=0 time=0.0076923
EXTRACT: note_on channel=9 note=64 velocity=0 time=0
EXTRACT: note_on channel=9 note=54 velocity=0 time=0.1076922
EXTRACT: note_on channel=9 note=54 velocity=38 time=0
EXTRACT: note_on channel=0 note=57 velocity=94 time=0.0076923
EXTRACT: note_on channel=0 note=65 velocity=92 time=0
EXTRACT: note_on channel=0 note=60 velocity=110 time=0
EXTRACT: note_on channel=1 note=31 velocity=0 time=0
EXTRACT: note_on channel=1 note=41 velocity=88 time=0
EXTRACT: note_on channel=6 note=53 velocity=92 time=0
EXTRACT: note_on channel=6 note=65 velocity=92 time=0
EXTRACT: note_on channel=6 note=60 velocity=92 time=0
EXTRACT: note_on channel=7 note=60 velocity=0 time=0
EXTRACT: note_on channel=7 note=64 velocity=117 time=0
EXTRACT: note_on channel=9 note=36 velocity=94 time=0
EXTRACT: note_on channel=9 note=42 velocity=94 time=0
EXTRACT: pitchwheel channel=7 pitch=-868 time=0.00384615
EXTRACT: pitchwheel channel=7 pitch=-2410 time=0.0076923
EXTRACT: pitchwheel channel=7 pitch=-3952 time=0.0076923
EXTRACT: pitchwheel channel=7 pitch=-4884 time=0.0076923
EXTRACT: pitchwheel channel=7 pitch=-5526 time=0.0076923
EXTRACT: pitchwheel channel=7 pitch=-5783 time=0.0076923
EXTRACT: pitchwheel channel=7 pitch=-5430 time=0.01923075
EXTRACT: pitchwheel channel=7 pitch=-4884 time=0.0076923
EXTRACT: pitchwheel channel=7 pitch=-4209 time=0.0076923
EXTRACT: pitchwheel channel=7 pitch=-3502 time=0.01153845
EXTRACT: pitchwheel channel=7 pitch=-2699 time=0.0076923
EXTRACT: pitchwheel channel=7 pitch=-1928 time=0.0076923
EXTRACT: note_on channel=9 note=54 velocity=0 time=0.00384615
EXTRACT: note_on channel=9 note=54 velocity=27 time=0
EXTRACT: pitchwheel channel=7 pitch=-932 time=0.00384615
EXTRACT: note_on channel=0 note=60 velocity=0 time=0.00384615
EXTRACT: note_on channel=0 note=65 velocity=0 time=0
EXTRACT: note_on channel=0 note=57 velocity=0 time=0
EXTRACT: note_on channel=9 note=36 velocity=0 time=0
EXTRACT: note_on channel=9 note=42 velocity=0 time=0
EXTRACT: pitchwheel channel=7 pitch=0 time=0.0076923
EXTRACT: note_on channel=9 note=54 velocity=0 time=0.0999999
EXTRACT: note_on channel=9 note=54 velocity=27 time=0
EXTRACT: note_on channel=0 note=59 velocity=92 time=0.0076923
EXTRACT: note_on channel=0 note=55 velocity=79 time=0
EXTRACT: note_on channel=0 note=64 velocity=80 time=0
EXTRACT: note_on channel=1 note=41 velocity=0 time=0
EXTRACT: note_on channel=1 note=40 velocity=82 time=0
EXTRACT: note_on channel=3 note=67 velocity=94 time=0
EXTRACT: note_on channel=6 note=52 velocity=88 time=0
EXTRACT: note_on channel=6 note=64 velocity=88 time=0
EXTRACT: note_on channel=6 note=59 velocity=88 time=0
EXTRACT: note_on channel=9 note=36 velocity=88 time=0
EXTRACT: note_on channel=9 note=42 velocity=46 time=0
EXTRACT: note_on channel=9 note=62 velocity=48 time=0
EXTRACT: note_on channel=3 note=59 velocity=94 time=0.01153845
EXTRACT: note_on channel=3 note=62 velocity=110 time=0.01153845
EXTRACT: note_on channel=9 note=42 velocity=0 time=0.03461535
EXTRACT: note_on channel=9 note=54 velocity=0 time=0.04999995
EXTRACT: note_on channel=9 note=54 velocity=27 time=0
EXTRACT: note_on channel=3 note=62 velocity=0 time=0.0076923
EXTRACT: note_on channel=3 note=59 velocity=0 time=0
EXTRACT: note_on channel=3 note=67 velocity=0 time=0
EXTRACT: note_on channel=6 note=60 velocity=0 time=0
EXTRACT: note_on channel=6 note=53 velocity=0 time=0
EXTRACT: note_on channel=6 note=65 velocity=0 time=0
EXTRACT: note_on channel=9 note=36 velocity=0 time=0
EXTRACT: note_on channel=9 note=62 velocity=0 time=0
EXTRACT: note_on channel=9 note=54 velocity=0 time=0.1076922
EXTRACT: note_on channel=9 note=54 velocity=36 time=0
EXTRACT: note_on channel=0 note=64 velocity=0 time=0.0076923
EXTRACT: note_on channel=0 note=65 velocity=0 time=0
EXTRACT: note_on channel=0 note=59 velocity=0 time=0
EXTRACT: note_on channel=0 note=55 velocity=0 time=0
EXTRACT: note_on channel=1 note=40 velocity=0 time=0
EXTRACT: note_on channel=6 note=52 velocity=0 time=0
EXTRACT: note_on channel=6 note=64 velocity=0 time=0
EXTRACT: note_on channel=6 note=59 velocity=0 time=0
EXTRACT: note_on channel=7 note=64 velocity=0 time=0
EXTRACT: note_on channel=7 note=62 velocity=117 time=0
EXTRACT: note_on channel=9 note=40 velocity=93 time=0
EXTRACT: note_on channel=9 note=42 velocity=89 time=0
EXTRACT: note_on channel=9 note=62 velocity=52 time=0
EXTRACT: note_on channel=9 note=54 velocity=0 time=0.1076922
EXTRACT: note_on channel=9 note=54 velocity=27 time=0
EXTRACT: note_on channel=0 note=62 velocity=0 time=0.0076923
EXTRACT: note_on channel=0 note=59 velocity=0 time=0
EXTRACT: note_on channel=9 note=40 velocity=0 time=0
EXTRACT: note_on channel=9 note=42 velocity=0 time=0
EXTRACT: note_on channel=9 note=62 velocity=0 time=0
EXTRACT: note_on channel=9 note=54 velocity=0 time=0.1076922
EXTRACT: note_on channel=9 note=54 velocity=28 time=0
EXTRACT: note_on channel=0 note=53 velocity=92 time=0.0076923
EXTRACT: note_on channel=0 note=57 velocity=107 time=0
EXTRACT: note_on channel=0 note=62 velocity=88 time=0
EXTRACT: note_on channel=1 note=38 velocity=101 time=0
EXTRACT: note_on channel=6 note=50 velocity=83 time=0
EXTRACT: note_on channel=6 note=62 velocity=83 time=0
EXTRACT: note_on channel=6 note=57 velocity=83 time=0
EXTRACT: note_on channel=7 note=62 velocity=0 time=0
EXTRACT: note_on channel=7 note=60 velocity=100 time=0
EXTRACT: note_on channel=9 note=36 velocity=71 time=0
EXTRACT: note_on channel=9 note=42 velocity=51 time=0
EXTRACT: note_on channel=9 note=63 velocity=67 time=0
EXTRACT: note_on channel=9 note=54 velocity=0 time=0.1076922
EXTRACT: note_on channel=9 note=54 velocity=38 time=0
EXTRACT: note_on channel=9 note=36 velocity=0 time=0.0076923
EXTRACT: note_on channel=9 note=42 velocity=0 time=0
EXTRACT: note_on channel=9 note=63 velocity=0 time=0
EXTRACT: note_on channel=9 note=54 velocity=0 time=0.1076922
EXTRACT: note_on channel=9 note=54 velocity=39 time=0
EXTRACT: note_on channel=3 note=69 velocity=73 time=0.0076923
EXTRACT: note_on channel=3 note=50 velocity=104 time=0
EXTRACT: note_on channel=3 note=72 velocity=83 time=0
EXTRACT: note_on channel=5 note=55 velocity=104 time=0
EXTRACT: note_on channel=9 note=36 velocity=97 time=0
EXTRACT: note_on channel=9 note=42 velocity=99 time=0
EXTRACT: note_on channel=9 note=49 velocity=82 time=0
EXTRACT: note_on channel=9 note=63 velocity=50 time=0
EXTRACT: note_on channel=9 note=49 velocity=0 time=0.00384615
EXTRACT: note_on channel=7 note=60 velocity=0 time=0.03461535
EXTRACT: note_on channel=9 note=54 velocity=0 time=0.0692307
EXTRACT: note_on channel=9 note=54 velocity=7 time=0
EXTRACT: note_on channel=9 note=36 velocity=0 time=0.0076923
EXTRACT: note_on channel=9 note=42 velocity=0 time=0
EXTRACT: note_on channel=9 note=63 velocity=0 time=0
EXTRACT: note_on channel=9 note=54 velocity=0 time=0.1076922
EXTRACT: note_on channel=9 note=54 velocity=7 time=0
EXTRACT: note_on channel=3 note=72 velocity=0 time=0.0076923
EXTRACT: note_on channel=3 note=50 velocity=0 time=0
EXTRACT: note_on channel=3 note=69 velocity=0 time=0
EXTRACT: note_on channel=9 note=42 velocity=32 time=0
EXTRACT: note_on channel=9 note=62 velocity=56 time=0
EXTRACT: note_on channel=9 note=54 velocity=0 time=0.1076922
EXTRACT: note_on channel=9 note=54 velocity=7 time=0
EXTRACT: note_on channel=1 note=38 velocity=0 time=0.0076923
EXTRACT: note_on channel=9 note=42 velocity=0 time=0
EXTRACT: note_on channel=9 note=62 velocity=0 time=0
EXTRACT: note_on channel=9 note=54 velocity=0 time=0.1076922
EXTRACT: note_on channel=9 note=54 velocity=10 time=0
EXTRACT: note_on channel=1 note=38 velocity=74 time=0.0076923
EXTRACT: note_on channel=3 note=50 velocity=107 time=0
EXTRACT: note_on channel=3 note=69 velocity=78 time=0
EXTRACT: note_on channel=3 note=72 velocity=83 time=0
EXTRACT: note_on channel=7 note=64 velocity=117 time=0
EXTRACT: note_on channel=9 note=40 velocity=93 time=0
EXTRACT: note_on channel=9 note=42 velocity=99 time=0
EXTRACT: note_on channel=9 note=62 velocity=58 time=0
EXTRACT: note_on channel=9 note=54 velocity=0 time=0.1076922
EXTRACT: note_on channel=9 note=54 velocity=13 time=0
EXTRACT: note_on channel=9 note=40 velocity=0 time=0.0076923
EXTRACT: note_on channel=9 note=42 velocity=0 time=0
EXTRACT: note_on channel=9 note=62 velocity=0 time=0
EXTRACT: note_on channel=7 note=64 velocity=0 time=0.076923
EXTRACT: note_on channel=9 note=54 velocity=0 time=0.0307692
EXTRACT: note_on channel=9 note=54 velocity=12 time=0
EXTRACT: note_on channel=3 note=72 velocity=0 time=0.0076923
EXTRACT: note_on channel=3 note=69 velocity=0 time=0
EXTRACT: note_on channel=3 note=50 velocity=0 time=0
EXTRACT: note_on channel=7 note=67 velocity=123 time=0
EXTRACT: note_on channel=9 note=42 velocity=49 time=0
EXTRACT: note_on channel=9 note=64 velocity=70 time=0
EXTRACT: note_on channel=9 note=54 velocity=0 time=0.1076922
EXTRACT: note_on channel=9 note=54 velocity=13 time=0
EXTRACT: note_on channel=1 note=38 velocity=0 time=0.0076923
EXTRACT: note_on channel=9 note=42 velocity=0 time=0
EXTRACT: note_on channel=9 note=64 velocity=0 time=0
EXTRACT: note_on channel=7 note=67 velocity=0 time=0.076923
EXTRACT: note_on channel=9 note=54 velocity=0 time=0.0307692
EXTRACT: note_on channel=9 note=54 velocity=42 time=0
EXTRACT: note_on channel=1 note=38 velocity=82 time=0.0076923
EXTRACT: note_on channel=3 note=50 velocity=104 time=0
EXTRACT: note_on channel=3 note=69 velocity=75 time=0
EXTRACT: note_on channel=3 note=72 velocity=74 time=0
EXTRACT: note_on channel=7 note=67 velocity=123 time=0
EXTRACT: note_on channel=8 note=71 velocity=93 time=0
EXTRACT: note_on channel=9 note=36 velocity=88 time=0
EXTRACT: note_on channel=9 note=42 velocity=84 time=0
EXTRACT: note_on channel=9 note=54 velocity=0 time=0.1076922
EXTRACT: note_on channel=9 note=54 velocity=28 time=0
EXTRACT: note_on channel=1 note=38 velocity=0 time=0.0076923
EXTRACT: note_on channel=3 note=72 velocity=0 time=0
EXTRACT: note_on channel=3 note=69 velocity=0 time=0
EXTRACT: note_on channel=3 note=50 velocity=0 time=0
EXTRACT: note_on channel=3 note=50 velocity=73 time=0
EXTRACT: note_on channel=3 note=69 velocity=50 time=0
EXTRACT: note_on channel=3 note=72 velocity=60 time=0
EXTRACT: note_on channel=9 note=36 velocity=0 time=0
EXTRACT: note_on channel=9 note=42 velocity=0 time=0
EXTRACT: note_on channel=9 note=54 velocity=0 time=0.1076922
EXTRACT: note_on channel=9 note=54 velocity=28 time=0
EXTRACT: note_on channel=1 note=38 velocity=101 time=0.0076923
EXTRACT: note_on channel=3 note=72 velocity=0 time=0
EXTRACT: note_on channel=3 note=69 velocity=0 time=0
EXTRACT: note_on channel=3 note=50 velocity=0 time=0
EXTRACT: note_on channel=3 note=72 velocity=60 time=0
EXTRACT: note_on channel=3 note=50 velocity=73 time=0
EXTRACT: note_on channel=3 note=69 velocity=73 time=0
EXTRACT: note_on channel=7 note=67 velocity=0 time=0
EXTRACT: note_on channel=7 note=64 velocity=110 time=0
EXTRACT: note_on channel=9 note=36 velocity=94 time=0
EXTRACT: note_on channel=9 note=42 velocity=53 time=0
EXTRACT: note_on channel=9 note=62 velocity=36 time=0
EXTRACT: note_on channel=9 note=54 velocity=0 time=0.1076922
EXTRACT: note_on channel=9 note=54 velocity=28 time=0
EXTRACT: note_on channel=3 note=69 velocity=0 time=0.0076923
EXTRACT: note_on channel=3 note=50 velocity=0 time=0
EXTRACT: note_on channel=3 note=72 velocity=0 time=0
EXTRACT: note_on channel=9 note=36 velocity=0 time=0
EXTRACT: note_on channel=9 note=42 velocity=0 time=0
EXTRACT: note_on channel=9 note=62 velocity=0 time=0
EXTRACT: note_on channel=7 note=64 velocity=0 time=0.076923
EXTRACT: note_on channel=9 note=54 velocity=0 time=0.0307692
EXTRACT: note_on channel=9 note=54 velocity=41 time=0
EXTRACT: note_on channel=3 note=69 velocity=82 time=0.0076923
EXTRACT: note_on channel=3 note=50 velocity=110 time=0
EXTRACT: note_on channel=3 note=72 velocity=88 time=0
EXTRACT: note_on channel=7 note=67 velocity=120 time=0
EXTRACT: note_on channel=9 note=40 velocity=93 time=0
EXTRACT: note_on channel=9 note=42 velocity=94 time=0
EXTRACT: note_on channel=9 note=62 velocity=52 time=0
EXTRACT: note_on channel=9 note=54 velocity=0 time=0.1076922
EXTRACT: note_on channel=9 note=54 velocity=28 time=0
EXTRACT: note_on channel=1 note=38 velocity=0 time=0.0076923
EXTRACT: note_on channel=3 note=72 velocity=0 time=0
EXTRACT: note_on channel=3 note=69 velocity=0 time=0
EXTRACT: note_on channel=9 note=40 velocity=0 time=0
EXTRACT: note_on channel=9 note=42 velocity=0 time=0
EXTRACT: note_on channel=9 note=62 velocity=0 time=0
EXTRACT: note_on channel=7 note=67 velocity=0 time=0.076923
EXTRACT: note_on channel=9 note=54 velocity=0 time=0.0307692
EXTRACT: note_on channel=9 note=54 velocity=31 time=0
EXTRACT: note_on channel=1 note=38 velocity=66 time=0.0076923
EXTRACT: note_on channel=3 note=50 velocity=0 time=0
EXTRACT: note_on channel=7 note=64 velocity=92 time=0
EXTRACT: note_on channel=9 note=36 velocity=70 time=0
EXTRACT: note_on channel=9 note=42 velocity=38 time=0
EXTRACT: note_on channel=9 note=63 velocity=56 time=0
EXTRACT: note_on channel=9 note=54 velocity=0 time=0.1076922
EXTRACT: note_on channel=9 note=54 velocity=37 time=0
EXTRACT: note_on channel=1 note=38 velocity=0 time=0.0076923
EXTRACT: note_on channel=9 note=36 velocity=0 time=0
EXTRACT: note_on channel=9 note=42 velocity=0 time=0
EXTRACT: note_on channel=9 note=63 velocity=0 time=0
EXTRACT: note_on channel=7 note=64 velocity=0 time=0.076923
EXTRACT: pitchwheel channel=7 pitch=-675 time=0.0076923
EXTRACT: pitchwheel channel=7 pitch=-2474 time=0.00384615
EXTRACT: pitchwheel channel=7 pitch=-4370 time=0.01153845
EXTRACT: pitchwheel channel=7 pitch=-6811 time=0.0076923
EXTRACT: note_on channel=9 note=54 velocity=0 time=0
EXTRACT: note_on channel=9 note=54 velocity=41 time=0
EXTRACT: note_on channel=1 note=38 velocity=94 time=0.0076923
EXTRACT: note_on channel=3 note=50 velocity=107 time=0
EXTRACT: note_on channel=3 note=69 velocity=83 time=0
EXTRACT: note_on channel=3 note=72 velocity=90 time=0
EXTRACT: note_on channel=5 note=55 velocity=0 time=0
EXTRACT: note_on channel=5 note=57 velocity=103 time=0
EXTRACT: note_on channel=7 note=69 velocity=120 time=0
EXTRACT: pitchwheel channel=7 pitch=-8192 time=0
EXTRACT: note_on channel=8 note=71 velocity=0 time=0
EXTRACT: note_on channel=8 note=72 velocity=96 time=0
EXTRACT: note_on channel=9 note=36 velocity=104 time=0
EXTRACT: note_on channel=9 note=42 velocity=94 time=0
EXTRACT: pitchwheel channel=7 pitch=-6747 time=0.06538455
EXTRACT: pitchwheel channel=7 pitch=-5430 time=0.0076923
EXTRACT: pitchwheel channel=7 pitch=-4370 time=0.01153845
EXTRACT: pitchwheel channel=7 pitch=-3470 time=0.0076923
EXTRACT: pitchwheel channel=7 pitch=-2249 time=0.0076923
EXTRACT: pitchwheel channel=7 pitch=-1318 time=0.0076923
EXTRACT: note_on channel=9 note=54 velocity=0 time=0
EXTRACT: note_on channel=9 note=54 velocity=10 time=0
EXTRACT: pitchwheel channel=7 pitch=-643 time=0.0076923
EXTRACT: note_on channel=9 note=36 velocity=0 time=0
EXTRACT: note_on channel=9 note=42 velocity=0 time=0
EXTRACT: pitchwheel channel=7 pitch=0 time=0.01153845
EXTRACT: note_on channel=9 note=54 velocity=0 time=0.09615375
EXTRACT: note_on channel=9 note=54 velocity=10 time=0
EXTRACT: note_on channel=1 note=38 velocity=0 time=0.0076923
EXTRACT: note_on channel=3 note=72 velocity=0 time=0
EXTRACT: note_on channel=3 note=69 velocity=0 time=0
EXTRACT: note_on channel=3 note=50 velocity=0 time=0
EXTRACT: note_on channel=9 note=42 velocity=40 time=0
EXTRACT: note_on channel=9 note=62 velocity=46 time=0
EXTRACT: note_on channel=9 note=54 velocity=0 time=0.1076922
EXTRACT: note_on channel=9 note=54 velocity=11 time=0
EXTRACT: note_on channel=5 note=57 velocity=0 time=0.0076923
EXTRACT: note_on channel=7 note=69 velocity=0 time=0
EXTRACT: note_on channel=8 note=72 velocity=0 time=0
EXTRACT: note_on channel=9 note=42 velocity=0 time=0
EXTRACT: note_on channel=9 note=62 velocity=0 time=0
EXTRACT: note_on channel=9 note=54 velocity=0 time=0.1076922
EXTRACT: note_on channel=9 note=54 velocity=11 time=0
EXTRACT: note_on channel=1 note=38 velocity=107 time=0.0076923
EXTRACT: note_on channel=3 note=50 velocity=107 time=0
EXTRACT: note_on channel=3 note=69 velocity=83 time=0
EXTRACT: note_on channel=3 note=72 velocity=88 time=0
EXTRACT: note_on channel=5 note=57 velocity=109 time=0
EXTRACT: note_on channel=7 note=69 velocity=123 time=0
EXTRACT: note_on channel=8 note=72 velocity=97 time=0
EXTRACT: note_on channel=9 note=40 velocity=87 time=0
EXTRACT: note_on channel=9 note=42 velocity=94 time=0
EXTRACT: note_on channel=9 note=62 velocity=50 time=0
EXTRACT: note_on channel=9 note=54 velocity=0 time=0.1076922
EXTRACT: note_on channel=9 note=54 velocity=11 time=0
EXTRACT: note_on channel=9 note=40 velocity=0 time=0.0076923
EXTRACT: note_on channel=9 note=42 velocity=0 time=0
EXTRACT: note_on channel=9 note=62 velocity=0 time=0
EXTRACT: note_on channel=9 note=54 velocity=0 time=0.1076922
EXTRACT: note_on channel=9 note=54 velocity=13 time=0
EXTRACT: note_on channel=0 note=62 velocity=0 time=0.0076923
EXTRACT: note_on channel=0 note=57 velocity=0 time=0
EXTRACT: note_on channel=0 note=53 velocity=0 time=0
EXTRACT: note_on channel=3 note=72 velocity=0 time=0
EXTRACT: note_on channel=3 note=69 velocity=0 time=0
EXTRACT: note_on channel=3 note=50 velocity=0 time=0
EXTRACT: note_on channel=9 note=42 velocity=34 time=0
EXTRACT: note_on channel=9 note=64 velocity=66 time=0
EXTRACT: note_on channel=9 note=54 velocity=0 time=0.1076922
EXTRACT: note_on channel=9 note=54 velocity=13 time=0
EXTRACT: note_on channel=1 note=38 velocity=0 time=0.0076923
EXTRACT: note_on channel=5 note=57 velocity=0 time=0
EXTRACT: note_on channel=6 note=57 velocity=0 time=0
EXTRACT: note_on channel=6 note=62 velocity=0 time=0
EXTRACT: note_on channel=6 note=50 velocity=0 time=0
EXTRACT: note_on channel=7 note=69 velocity=0 time=0
EXTRACT: note_on channel=8 note=72 velocity=0 time=0
EXTRACT: note_on channel=9 note=42 velocity=0 time=0
EXTRACT: note_on channel=9 note=64 velocity=0 time=0
EXTRACT: note_on channel=9 note=54 velocity=0 time=0.1076922
EXTRACT: note_on channel=9 note=54 velocity=38 time=0
EXTRACT: note_on channel=0 note=57 velocity=88 time=0.0076923
EXTRACT: note_on channel=0 note=60 velocity=104 time=0
EXTRACT: note_on channel=0 note=65 velocity=88 time=0
EXTRACT: note_on channel=1 note=41 velocity=88 time=0
EXTRACT: note_on channel=3 note=50 velocity=110 time=0
EXTRACT: note_on channel=3 note=69 velocity=88 time=0
EXTRACT: note_on channel=3 note=72 velocity=73 time=0
EXTRACT: note_on channel=6 note=53 velocity=89 time=0
EXTRACT: note_on channel=6 note=65 velocity=89 time=0
EXTRACT: note_on channel=6 note=60 velocity=89 time=0
EXTRACT: note_on channel=9 note=36 velocity=86 time=0
EXTRACT: note_on channel=9 note=42 velocity=94 time=0
EXTRACT: note_on channel=9 note=54 velocity=0 time=0.1076922
EXTRACT: note_on channel=9 note=54 velocity=27 time=0
EXTRACT: note_on channel=3 note=72 velocity=0 time=0.0076923
EXTRACT: note_on channel=3 note=69 velocity=0 time=0
EXTRACT: note_on channel=3 note=50 velocity=0 time=0
EXTRACT: note_on channel=3 note=50 velocity=74 time=0
EXTRACT: note_on channel=3 note=69 velocity=66 time=0
EXTRACT: note_on channel=3 note=72 velocity=80 time=0
EXTRACT: note_on channel=9 note=36 velocity=0 time=0
EXTRACT: note_on channel=9 note=42 velocity=0 time=0
EXTRACT: note_on channel=9 note=54 velocity=0 time=0.1076922
EXTRACT: note_on channel=9 note=54 velocity=27 time=0
EXTRACT: note_on channel=0 note=65 velocity=0 time=0.0076923
EXTRACT: note_on channel=0 note=60 velocity=0 time=0
EXTRACT: note_on channel=0 note=57 velocity=0 time=0
EXTRACT: note_on channel=0 note=55 velocity=88 time=0
EXTRACT: note_on channel=0 note=59 velocity=104 time=0
EXTRACT: note_on channel=0 note=64 velocity=92 time=0
EXTRACT: note_on channel=1 note=41 velocity=0 time=0
EXTRACT: note_on channel=1 note=40 velocity=94 time=0
EXTRACT: note_on channel=3 note=72 velocity=0 time=0
EXTRACT: note_on channel=3 note=69 velocity=0 time=0
EXTRACT: note_on channel=3 note=50 velocity=0 time=0
EXTRACT: note_on channel=3 note=72 velocity=60 time=0
EXTRACT: note_on channel=3 note=69 velocity=73 time=0
EXTRACT: note_on channel=3 note=50 velocity=78 time=0
EXTRACT: note_on channel=6 note=60 velocity=0 time=0
EXTRACT: note_on channel=6 note=65 velocity=0 time=0
EXTRACT: note_on channel=6 note=53 velocity=0 time=0
EXTRACT: note_on channel=6 note=52 velocity=79 time=0
EXTRACT: note_on channel=6 note=64 velocity=79 time=0
EXTRACT: note_on channel=6 note=59 velocity=79 time=0
EXTRACT: note_on channel=9 note=36 velocity=85 time=0
EXTRACT: note_on channel=9 note=42 velocity=31 time=0
EXTRACT: note_on channel=9 note=62 velocity=36 time=0
EXTRACT: note_on channel=3 note=50 velocity=0 time=0.0384615
EXTRACT: note_on channel=9 note=54 velocity=0 time=0.0692307
EXTRACT: note_on channel=9 note=54 velocity=27 time=0
EXTRACT: note_on channel=3 note=69 velocity=0 time=0.0076923
EXTRACT: note_on channel=3 note=72 velocity=0 time=0
EXTRACT: note_on channel=9 note=36 velocity=0 time=0
EXTRACT: note_on channel=9 note=42 velocity=0 time=0
EXTRACT: note_on channel=9 note=62 velocity=0 time=0
EXTRACT: note_on channel=9 note=54 velocity=0 time=0.1076922
EXTRACT: note_on channel=9 note=54 velocity=36 time=0
EXTRACT: note_on channel=0 note=64 velocity=0 time=0.0076923
EXTRACT: note_on channel=0 note=59 velocity=0 time=0
EXTRACT: note_on channel=0 note=55 velocity=0 time=0
EXTRACT: note_on channel=1 note=40 velocity=0 time=0
EXTRACT: note_on channel=3 note=69 velocity=88 time=0
EXTRACT: note_on channel=3 note=50 velocity=113 time=0
EXTRACT: note_on channel=3 note=72 velocity=92 time=0
EXTRACT: note_on channel=6 note=59 velocity=0 time=0
EXTRACT: note_on channel=6 note=64 velocity=0 time=0
EXTRACT: note_on channel=6 note=52 velocity=0 time=0
EXTRACT: note_on channel=9 note=40 velocity=87 time=0
EXTRACT: note_on channel=9 note=42 velocity=99 time=0
EXTRACT: note_on channel=9 note=62 velocity=50 time=0
EXTRACT: note_on channel=9 note=54 velocity=0 time=0.1076922
EXTRACT: note_on channel=9 note=54 velocity=27 time=0
EXTRACT: note_on channel=9 note=40 velocity=0 time=0.0076923
EXTRACT: note_on channel=9 note=42 velocity=0 time=0
EXTRACT: note_on channel=9 note=62 velocity=0 time=0
EXTRACT: note_on channel=3 note=72 velocity=0 time=0.076923
EXTRACT: note_on channel=3 note=50 velocity=0 time=0
EXTRACT: note_on channel=3 note=69 velocity=0 time=0
EXTRACT: note_on channel=9 note=54 velocity=0 time=0.0307692
EXTRACT: note_on channel=9 note=54 velocity=28 time=0
EXTRACT: note_on channel=0 note=53 velocity=88 time=0.0076923
EXTRACT: note_on channel=0 note=57 velocity=104 time=0
EXTRACT: note_on channel=0 note=62 velocity=88 time=0
EXTRACT: note_on channel=1 note=38 velocity=107 time=0
EXTRACT: note_on channel=6 note=50 velocity=76 time=0
EXTRACT: note_on channel=6 note=62 velocity=76 time=0
EXTRACT: note_on channel=6 note=57 velocity=76 time=0
EXTRACT: note_on channel=9 note=36 velocity=71 time=0
EXTRACT: note_on channel=9 note=42 velocity=38 time=0
EXTRACT: note_on channel=9 note=63 velocity=58 time=0
EXTRACT: note_on channel=9 note=54 velocity=0 time=0.1076922
EXTRACT: note_on channel=9 note=54 velocity=38 time=0
EXTRACT: note_on channel=9 note=36 velocity=0 time=0.0076923
EXTRACT: note_on channel=9 note=42 velocity=0 time=0
EXTRACT: note_on channel=9 note=63 velocity=0 time=0
EXTRACT: note_on channel=9 note=54 velocity=0 time=0.1076922
EXTRACT: note_on channel=9 note=54 velocity=39 time=0
EXTRACT: note_on channel=3 note=50 velocity=120 time=0.0076923
EXTRACT: note_on channel=3 note=69 velocity=92 time=0
EXTRACT: note_on channel=3 note=72 velocity=92 time=0
EXTRACT: note_on channel=5 note=55 velocity=111 time=0
EXTRACT: note_on channel=9 note=36 velocity=101 time=0
EXTRACT: note_on channel=9 note=42 velocity=99 time=0
EXTRACT: note_on channel=9 note=54 velocity=0 time=0.1076922
EXTRACT: note_on channel=9 note=54 velocity=7 time=0
EXTRACT: note_on channel=9 note=36 velocity=0 time=0.0076923
EXTRACT: note_on channel=9 note=42 velocity=0 time=0
EXTRACT: note_on channel=9 note=54 velocity=0 time=0.1076922
EXTRACT: note_on channel=9 note=54 velocity=7 time=0
EXTRACT: note_on channel=3 note=72 velocity=0 time=0.0076923
EXTRACT: note_on channel=3 note=69 velocity=0 time=0
EXTRACT: note_on channel=3 note=50 velocity=0 time=0
EXTRACT: note_on channel=7 note=64 velocity=107 time=0
EXTRACT: note_on channel=9 note=42 velocity=27 time=0
EXTRACT: note_on channel=9 note=62 velocity=34 time=0
EXTRACT: note_on channel=9 note=54 velocity=0 time=0.1076922
EXTRACT: note_on channel=9 note=54 velocity=7 time=0
EXTRACT: note_on channel=9 note=42 velocity=0 time=0.0076923
EXTRACT: note_on channel=9 note=62 velocity=0 time=0
EXTRACT: note_on channel=7 note=64 velocity=0 time=0.076923
EXTRACT: note_on channel=9 note=54 velocity=0 time=0.0307692
EXTRACT: note_on channel=9 note=54 velocity=10 time=0
EXTRACT: note_on channel=3 note=50 velocity=117 time=0.0076923
EXTRACT: note_on channel=3 note=69 velocity=88 time=0
EXTRACT: note_on channel=3 note=72 velocity=94 time=0
EXTRACT: note_on channel=7 note=67 velocity=123 time=0
EXTRACT: note_on channel=9 note=40 velocity=93 time=0
EXTRACT: note_on channel=9 note=42 velocity=94 time=0
EXTRACT: note_on channel=9 note=62 velocity=46 time=0
EXTRACT: note_on channel=9 note=54 velocity=0 time=0.1076922
EXTRACT: note_on channel=9 note=54 velocity=13 time=0
EXTRACT: note_on channel=9 note=40 velocity=0 time=0.0076923
EXTRACT: note_on channel=9 note=42 velocity=0 time=0
EXTRACT: note_on channel=9 note=62 velocity=0 time=0
EXTRACT: note_on channel=7 note=67 velocity=0 time=0.076923
EXTRACT: note_on channel=9 note=54 velocity=0 time=0.0307692
EXTRACT: note_on channel=9 note=54 velocity=12 time=0
EXTRACT: note_on channel=3 note=72 velocity=0 time=0.0076923
EXTRACT: note_on channel=3 note=69 velocity=0 time=0
EXTRACT: note_on channel=3 note=50 velocity=0 time=0
EXTRACT: note_on channel=7 note=64 velocity=97 time=0
EXTRACT: note_on channel=9 note=42 velocity=23 time=0
EXTRACT: note_on channel=9 note=64 velocity=66 time=0
EXTRACT: note_on channel=9 note=54 velocity=0 time=0.1076922
EXTRACT: note_on channel=9 note=54 velocity=13 time=0
EXTRACT: note_on channel=1 note=38 velocity=0 time=0.0076923
EXTRACT: note_on channel=9 note=42 velocity=0 time=0
EXTRACT: note_on channel=9 note=64 velocity=0 time=0
EXTRACT: note_on channel=7 note=64 velocity=0 time=0.076923
EXTRACT: note_on channel=9 note=54 velocity=0 time=0.0307692
EXTRACT: note_on channel=9 note=54 velocity=42 time=0
EXTRACT: note_on channel=1 note=38 velocity=82 time=0.0076923
EXTRACT: note_on channel=3 note=50 velocity=113 time=0
EXTRACT: note_on channel=3 note=69 velocity=88 time=0
EXTRACT: note_on channel=3 note=72 velocity=82 time=0
EXTRACT: note_on channel=7 note=67 velocity=117 time=0
EXTRACT: note_on channel=8 note=71 velocity=92 time=0
EXTRACT: note_on channel=9 note=36 velocity=85 time=0
EXTRACT: note_on channel=9 note=42 velocity=99 time=0
EXTRACT: note_on channel=9 note=54 velocity=0 time=0.1076922
EXTRACT: note_on channel=9 note=54 velocity=28 time=0
EXTRACT: note_on channel=1 note=38 velocity=0 time=0.0076923
EXTRACT: note_on channel=3 note=72 velocity=0 time=0
EXTRACT: note_on channel=3 note=69 velocity=0 time=0
EXTRACT: note_on channel=3 note=50 velocity=0 time=0
EXTRACT: note_on channel=3 note=50 velocity=76 time=0
EXTRACT: note_on channel=3 note=69 velocity=63 time=0
EXTRACT: note_on channel=3 note=72 velocity=79 time=0
EXTRACT: note_on channel=9 note=36 velocity=0 time=0
EXTRACT: note_on channel=9 note=42 velocity=0 time=0
EXTRACT: note_on channel=7 note=67 velocity=0 time=0.076923
EXTRACT: note_on channel=9 note=54 velocity=0 time=0.0307692
EXTRACT: note_on channel=9 note=54 velocity=28 time=0
EXTRACT: note_on channel=1 note=38 velocity=94 time=0.0076923
EXTRACT: note_on channel=3 note=72 velocity=0 time=0
EXTRACT: note_on channel=3 note=69 velocity=0 time=0
EXTRACT: note_on channel=3 note=50 velocity=0 time=0
EXTRACT: note_on channel=3 note=69 velocity=63 time=0
EXTRACT: note_on channel=3 note=50 velocity=76 time=0
EXTRACT: note_on channel=3 note=72 velocity=62 time=0
EXTRACT: note_on channel=7 note=64 velocity=110 time=0
EXTRACT: note_on channel=9 note=36 velocity=83 time=0
EXTRACT: note_on channel=9 note=42 velocity=53 time=0
EXTRACT: note_on channel=9 note=62 velocity=37 time=0
EXTRACT: note_on channel=9 note=54 velocity=0 time=0.1076922
EXTRACT: note_on channel=9 note=54 velocity=28 time=0
EXTRACT: note_on channel=3 note=72 velocity=0 time=0.0076923
EXTRACT: note_on channel=3 note=50 velocity=0 time=0
EXTRACT: note_on channel=3 note=69 velocity=0 time=0
EXTRACT: note_on channel=9 note=36 velocity=0 time=0
EXTRACT: note_on channel=9 note=42 velocity=0 time=0
EXTRACT: note_on channel=9 note=62 velocity=0 time=0
EXTRACT: note_on channel=7 note=64 velocity=0 time=0.076923
EXTRACT: note_on channel=9 note=54 velocity=0 time=0.0307692
EXTRACT: note_on channel=9 note=54 velocity=41 time=0
EXTRACT: note_on channel=3 note=69 velocity=83 time=0.0076923
EXTRACT: note_on channel=3 note=50 velocity=110 time=0
EXTRACT: note_on channel=3 note=72 velocity=90 time=0
EXTRACT: note_on channel=7 note=67 velocity=120 time=0
EXTRACT: note_on channel=9 note=40 velocity=100 time=0
EXTRACT: note_on channel=9 note=42 velocity=99 time=0
EXTRACT: note_on channel=9 note=62 velocity=43 time=0
EXTRACT: note_on channel=9 note=54 velocity=0 time=0.1076922
EXTRACT: note_on channel=9 note=54 velocity=28 time=0
EXTRACT: note_on channel=1 note=38 velocity=0 time=0.0076923
EXTRACT: note_on channel=9 note=40 velocity=0 time=0
EXTRACT: note_on channel=9 note=42 velocity=0 time=0
EXTRACT: note_on channel=9 note=62 velocity=0 time=0
EXTRACT: note_on channel=7 note=67 velocity=0 time=0.0384615
EXTRACT: note_on channel=9 note=54 velocity=0 time=0.0692307
EXTRACT: note_on channel=9 note=54 velocity=31 time=0
EXTRACT: note_on channel=1 note=38 velocity=62 time=0.0076923
EXTRACT: note_on channel=3 note=72 velocity=0 time=0
EXTRACT: note_on channel=3 note=50 velocity=0 time=0
EXTRACT: note_on channel=3 note=69 velocity=0 time=0
EXTRACT: note_on channel=7 note=64 velocity=99 time=0
EXTRACT: note_on channel=9 note=36 velocity=71 time=0
EXTRACT: note_on channel=9 note=42 velocity=31 time=0
EXTRACT: note_on channel=9 note=63 velocity=58 time=0
EXTRACT: note_on channel=9 note=54 velocity=0 time=0.1076922
EXTRACT: note_on channel=9 note=54 velocity=37 time=0
EXTRACT: note_on channel=1 note=38 velocity=0 time=0.0076923
EXTRACT: note_on channel=9 note=36 velocity=0 time=0
EXTRACT: note_on channel=9 note=42 velocity=0 time=0
EXTRACT: note_on channel=9 note=63 velocity=0 time=0
EXTRACT: note_on channel=7 note=64 velocity=0 time=0.0384615
EXTRACT: note_on channel=9 note=54 velocity=0 time=0.0692307
EXTRACT: note_on channel=9 note=54 velocity=41 time=0
EXTRACT: pitchwheel channel=7 pitch=-1478 time=0.00384615
EXTRACT: note_on channel=1 note=38 velocity=85 time=0.00384615
EXTRACT: note_on channel=3 note=50 velocity=117 time=0
EXTRACT: note_on channel=3 note=69 velocity=82 time=0
EXTRACT: note_on channel=3 note=72 velocity=85 time=0
EXTRACT: note_on channel=5 note=55 velocity=0 time=0
EXTRACT: note_on channel=5 note=57 velocity=109 time=0
EXTRACT: note_on channel=7 note=69 velocity=113 time=0
EXTRACT: note_on channel=8 note=71 velocity=0 time=0
EXTRACT: note_on channel=8 note=72 velocity=93 time=0
EXTRACT: note_on channel=9 note=36 velocity=101 time=0
EXTRACT: note_on channel=9 note=42 velocity=99 time=0
EXTRACT: pitchwheel channel=7 pitch=-3245 time=0.00384615
EXTRACT: pitchwheel channel=7 pitch=-4884 time=0.00384615
EXTRACT: pitchwheel channel=7 pitch=-6040 time=0.01153845
EXTRACT: pitchwheel channel=7 pitch=-6940 time=0.0076923
EXTRACT: pitchwheel channel=7 pitch=-7132 time=0.0076923
EXTRACT: pitchwheel channel=7 pitch=-7197 time=0.0076923
EXTRACT: pitchwheel channel=7 pitch=-7132 time=0.0076923
EXTRACT: pitchwheel channel=7 pitch=-6940 time=0.0076923
EXTRACT: pitchwheel channel=7 pitch=-6426 time=0.0153846
EXTRACT: pitchwheel channel=7 pitch=-5783 time=0.0076923
EXTRACT: pitchwheel channel=7 pitch=-5173 time=0.0076923
EXTRACT: pitchwheel channel=7 pitch=-4627 time=0.00384615
EXTRACT: pitchwheel channel=7 pitch=-3952 time=0.0076923
EXTRACT: note_on channel=9 note=54 velocity=0 time=0.0076923
EXTRACT: note_on channel=9 note=54 velocity=10 time=0
EXTRACT: pitchwheel channel=7 pitch=-3181 time=0.00384615
EXTRACT: note_on channel=9 note=36 velocity=0 time=0.00384615
EXTRACT: note_on channel=9 note=42 velocity=0 time=0
EXTRACT: pitchwheel channel=7 pitch=-2474 time=0.0076923
EXTRACT: pitchwheel channel=7 pitch=-1703 time=0.00384615
EXTRACT: pitchwheel channel=7 pitch=-1061 time=0.0076923
EXTRACT: pitchwheel channel=7 pitch=-418 time=0.0076923
EXTRACT: pitchwheel channel=7 pitch=0 time=0.01153845
EXTRACT: note_on channel=9 note=54 velocity=0 time=0.0692307
EXTRACT: note_on channel=9 note=54 velocity=10 time=0
EXTRACT: note_on channel=1 note=38 velocity=0 time=0.0076923
EXTRACT: note_on channel=3 note=72 velocity=0 time=0
EXTRACT: note_on channel=3 note=69 velocity=0 time=0
EXTRACT: note_on channel=3 note=50 velocity=0 time=0
EXTRACT: note_on channel=9 note=42 velocity=42 time=0
EXTRACT: note_on channel=9 note=62 velocity=38 time=0
EXTRACT: note_on channel=9 note=54 velocity=0 time=0.1076922
EXTRACT: note_on channel=9 note=54 velocity=11 time=0
EXTRACT: note_on channel=5 note=57 velocity=0 time=0.0076923
EXTRACT: note_on channel=7 note=69 velocity=0 time=0
EXTRACT: note_on channel=8 note=72 velocity=0 time=0
EXTRACT: note_on channel=9 note=42 velocity=0 time=0
EXTRACT: note_on channel=9 note=62 velocity=0 time=0
EXTRACT: note_on channel=9 note=54 velocity=0 time=0.1076922
EXTRACT: note_on channel=9 note=54 velocity=11 time=0
EXTRACT: note_on channel=1 note=38 velocity=99 time=0.0076923
EXTRACT: note_on channel=3 note=50 velocity=113 time=0
EXTRACT: note_on channel=3 note=69 velocity=78 time=0
EXTRACT: note_on channel=3 note=72 velocity=88 time=0
EXTRACT: note_on channel=5 note=57 velocity=111 time=0
EXTRACT: note_on channel=7 note=69 velocity=120 time=0
EXTRACT: note_on channel=8 note=72 velocity=94 time=0
EXTRACT: note_on channel=9 note=40 velocity=93 time=0
EXTRACT: note_on channel=9 note=42 velocity=99 time=0
EXTRACT: note_on channel=9 note=62 velocity=49 time=0
EXTRACT: note_on channel=9 note=54 velocity=0 time=0.1076922
EXTRACT: note_on channel=9 note=54 velocity=11 time=0
EXTRACT: note_on channel=9 note=40 velocity=0 time=0.0076923
EXTRACT: note_on channel=9 note=42 velocity=0 time=0
EXTRACT: note_on channel=9 note=62 velocity=0 time=0
EXTRACT: note_on channel=9 note=54 velocity=0 time=0.1076922
EXTRACT: note_on channel=9 note=54 velocity=13 time=0
EXTRACT: note_on channel=0 note=62 velocity=0 time=0.0076923
EXTRACT: note_on channel=0 note=57 velocity=0 time=0
EXTRACT: note_on channel=0 note=53 velocity=0 time=0
EXTRACT: note_on channel=1 note=38 velocity=0 time=0
EXTRACT: note_on channel=3 note=72 velocity=0 time=0
EXTRACT: note_on channel=3 note=69 velocity=0 time=0
EXTRACT: note_on channel=3 note=50 velocity=0 time=0
EXTRACT: note_on channel=9 note=42 velocity=46 time=0
EXTRACT: note_on channel=9 note=64 velocity=70 time=0
EXTRACT: note_on channel=9 note=54 velocity=0 time=0.1076922
EXTRACT: note_on channel=9 note=54 velocity=13 time=0
EXTRACT: note_on channel=5 note=57 velocity=0 time=0.0076923
EXTRACT: note_on channel=6 note=57 velocity=0 time=0
EXTRACT: note_on channel=6 note=62 velocity=0 time=0
EXTRACT: note_on channel=6 note=50 velocity=0 time=0
EXTRACT: note_on channel=7 note=69 velocity=0 time=0
EXTRACT: note_on channel=8 note=72 velocity=0 time=0
EXTRACT: note_on channel=9 note=42 velocity=0 time=0
EXTRACT: note_on channel=9 note=64 velocity=0 time=0
EXTRACT: note_on channel=9 note=54 velocity=0 time=0.1076922
EXTRACT: note_on channel=9 note=54 velocity=38 time=0
EXTRACT: note_on channel=0 note=57 velocity=88 time=0.0076923
EXTRACT: note_on channel=0 note=65 velocity=85 time=0
EXTRACT: note_on channel=0 note=60 velocity=101 time=0
EXTRACT: note_on channel=1 note=41 velocity=85 time=0
EXTRACT: note_on channel=3 note=50 velocity=104 time=0
EXTRACT: note_on channel=3 note=69 velocity=76 time=0
EXTRACT: note_on channel=3 note=72 velocity=70 time=0
EXTRACT: note_on channel=6 note=53 velocity=81 time=0
EXTRACT: note_on channel=6 note=65 velocity=81 time=0
EXTRACT: note_on channel=6 note=60 velocity=81 time=0
EXTRACT: note_on channel=9 note=36 velocity=94 time=0
EXTRACT: note_on channel=9 note=42 velocity=94 time=0
EXTRACT: note_on channel=9 note=54 velocity=0 time=0.1076922
EXTRACT: note_on channel=9 note=54 velocity=27 time=0
EXTRACT: note_on channel=0 note=60 velocity=0 time=0.0076923
EXTRACT: note_on channel=0 note=65 velocity=0 time=0
EXTRACT: note_on channel=0 note=57 velocity=0 time=0
EXTRACT: note_on channel=3 note=72 velocity=0 time=0
EXTRACT: note_on channel=3 note=69 velocity=0 time=0
EXTRACT: note_on channel=3 note=50 velocity=0 time=0
EXTRACT: note_on channel=3 note=50 velocity=64 time=0
EXTRACT: note_on channel=3 note=69 velocity=55 time=0
EXTRACT: note_on channel=3 note=72 velocity=69 time=0
EXTRACT: note_on channel=9 note=36 velocity=0 time=0
EXTRACT: note_on channel=9 note=42 velocity=0 time=0
EXTRACT: note_on channel=9 note=54 velocity=0 time=0.1076922
EXTRACT: note_on channel=9 note=54 velocity=27 time=0
EXTRACT: note_on channel=0 note=55 velocity=78 time=0.0076923
EXTRACT: note_on channel=0 note=59 velocity=94 time=0
EXTRACT: note_on channel=0 note=64 velocity=88 time=0
EXTRACT: note_on channel=1 note=41 velocity=0 time=0
EXTRACT: note_on channel=1 note=40 velocity=74 time=0
EXTRACT: note_on channel=3 note=72 velocity=0 time=0
EXTRACT: note_on channel=3 note=69 velocity=0 time=0
EXTRACT: note_on channel=3 note=50 velocity=0 time=0
EXTRACT: note_on channel=3 note=50 velocity=63 time=0
EXTRACT: note_on channel=3 note=69 velocity=63 time=0
EXTRACT: note_on channel=3 note=72 velocity=53 time=0
EXTRACT: note_on channel=6 note=60 velocity=0 time=0
EXTRACT: note_on channel=6 note=65 velocity=0 time=0
EXTRACT: note_on channel=6 note=53 velocity=0 time=0
EXTRACT: note_on channel=6 note=52 velocity=74 time=0
EXTRACT: note_on channel=6 note=64 velocity=74 time=0
EXTRACT: note_on channel=6 note=59 velocity=74 time=0
EXTRACT: note_on channel=9 note=36 velocity=88 time=0
EXTRACT: note_on channel=9 note=42 velocity=46 time=0
EXTRACT: note_on channel=9 note=62 velocity=48 time=0
EXTRACT: note_on channel=9 note=42 velocity=0 time=0.05769225
EXTRACT: note_on channel=9 note=54 velocity=0 time=0.04999995
EXTRACT: note_on channel=9 note=54 velocity=27 time=0
EXTRACT: note_on channel=3 note=72 velocity=0 time=0.0076923
EXTRACT: note_on channel=3 note=69 velocity=0 time=0
EXTRACT: note_on channel=3 note=50 velocity=0 time=0
EXTRACT: note_on channel=9 note=36 velocity=0 time=0
EXTRACT: note_on channel=9 note=62 velocity=0 time=0
EXTRACT: note_on channel=9 note=54 velocity=0 time=0.1076922
EXTRACT: note_on channel=9 note=54 velocity=36 time=0
EXTRACT: note_on channel=0 note=64 velocity=0 time=0.0076923
EXTRACT: note_on channel=0 note=59 velocity=0 time=0
EXTRACT: note_on channel=0 note=55 velocity=0 time=0
EXTRACT: note_on channel=1 note=40 velocity=0 time=0
EXTRACT: note_on channel=3 note=50 velocity=113 time=0
EXTRACT: note_on channel=3 note=69 velocity=88 time=0
EXTRACT: note_on channel=3 note=72 velocity=88 time=0
EXTRACT: note_on channel=6 note=59 velocity=0 time=0
EXTRACT: note_on channel=6 note=64 velocity=0 time=0
EXTRACT: note_on channel=6 note=52 velocity=0 time=0
EXTRACT: note_on channel=9 note=40 velocity=93 time=0
EXTRACT: note_on channel=9 note=42 velocity=89 time=0
EXTRACT: note_on channel=9 note=62 velocity=52 time=0
EXTRACT: note_on channel=9 note=54 velocity=0 time=0.1076922
EXTRACT: note_on channel=9 note=54 velocity=27 time=0
EXTRACT: note_on channel=9 note=40 velocity=0 time=0.0076923
EXTRACT: note_on channel=9 note=42 velocity=0 time=0
EXTRACT: note_on channel=9 note=62 velocity=0 time=0
EXTRACT: note_on channel=9 note=54 velocity=0 time=0.1076922
EXTRACT: note_on channel=9 note=54 velocity=28 time=0
EXTRACT: note_on channel=0 note=53 velocity=94 time=0.0076923
EXTRACT: note_on channel=0 note=57 velocity=104 time=0
EXTRACT: note_on channel=0 note=62 velocity=85 time=0
EXTRACT: note_on channel=1 note=38 velocity=113 time=0
EXTRACT: note_on channel=3 note=72 velocity=0 time=0
EXTRACT: note_on channel=3 note=69 velocity=0 time=0
EXTRACT: note_on channel=3 note=50 velocity=0 time=0
EXTRACT: note_on channel=6 note=50 velocity=71 time=0
EXTRACT: note_on channel=6 note=62 velocity=71 time=0
EXTRACT: note_on channel=6 note=57 velocity=71 time=0
EXTRACT: note_on channel=9 note=36 velocity=71 time=0
EXTRACT: note_on channel=9 note=42 velocity=51 time=0
EXTRACT: note_on channel=9 note=63 velocity=67 time=0
EXTRACT: note_on channel=9 note=54 velocity=0 time=0.1076922
EXTRACT: note_on channel=9 note=54 velocity=38 time=0
EXTRACT: note_on channel=9 note=36 velocity=0 time=0.0076923
EXTRACT: note_on channel=9 note=42 velocity=0 time=0
EXTRACT: note_on channel=9 note=63 velocity=0 time=0
EXTRACT: note_on channel=9 note=54 velocity=0 time=0.1076922
EXTRACT: note_on channel=9 note=54 velocity=39 time=0
EXTRACT: note_on channel=3 note=69 velocity=85 time=0.0076923
EXTRACT: note_on channel=3 note=50 velocity=113 time=0
EXTRACT: note_on channel=3 note=72 velocity=88 time=0
EXTRACT: note_on channel=9 note=36 velocity=97 time=0
EXTRACT: note_on channel=9 note=42 velocity=99 time=0
EXTRACT: note_on channel=9 note=63 velocity=50 time=0
EXTRACT: note_on channel=9 note=54 velocity=0 time=0.1076922
EXTRACT: note_on channel=9 note=54 velocity=7 time=0
EXTRACT: note_on channel=9 note=36 velocity=0 time=0.0076923
EXTRACT: note_on channel=9 note=42 velocity=0 time=0
EXTRACT: note_on channel=9 note=63 velocity=0 time=0
EXTRACT: note_on channel=9 note=54 velocity=0 time=0.1076922
EXTRACT: note_on channel=9 note=54 velocity=7 time=0
EXTRACT: note_on channel=3 note=72 velocity=0 time=0.0076923
EXTRACT: note_on channel=3 note=50 velocity=0 time=0
EXTRACT: note_on channel=3 note=69 velocity=0 time=0
EXTRACT: note_on channel=7 note=57 velocity=110 time=0
EXTRACT: note_on channel=9 note=42 velocity=32 time=0
EXTRACT: note_on channel=9 note=62 velocity=56 time=0
EXTRACT: note_on channel=9 note=54 velocity=0 time=0.1076922
EXTRACT: note_on channel=9 note=54 velocity=7 time=0
EXTRACT: note_on channel=7 note=57 velocity=0 time=0.0076923
EXTRACT: note_on channel=9 note=42 velocity=0 time=0
EXTRACT: note_on channel=9 note=62 velocity=0 time=0
EXTRACT: note_on channel=9 note=54 velocity=0 time=0.1076922
EXTRACT: note_on channel=9 note=54 velocity=10 time=0
EXTRACT: note_on channel=3 note=50 velocity=113 time=0.0076923
EXTRACT: note_on channel=3 note=69 velocity=85 time=0
EXTRACT: note_on channel=3 note=72 velocity=86 time=0
EXTRACT: note_on channel=7 note=60 velocity=123 time=0
EXTRACT: note_on channel=9 note=40 velocity=93 time=0
EXTRACT: note_on channel=9 note=42 velocity=99 time=0
EXTRACT: note_on channel=9 note=62 velocity=58 time=0
EXTRACT: note_on channel=9 note=54 velocity=0 time=0.1076922
EXTRACT: note_on channel=9 note=54 velocity=13 time=0
EXTRACT: note_on channel=7 note=60 velocity=0 time=0.0076923
EXTRACT: note_on channel=9 note=40 velocity=0 time=0
EXTRACT: note_on channel=9 note=42 velocity=0 time=0
EXTRACT: note_on channel=9 note=62 velocity=0 time=0
EXTRACT: note_on channel=9 note=54 velocity=0 time=0.1076922
EXTRACT: note_on channel=9 note=54 velocity=12 time=0
EXTRACT: note_on channel=3 note=72 velocity=0 time=0.0076923
EXTRACT: note_on channel=3 note=69 velocity=0 time=0
EXTRACT: note_on channel=3 note=50 velocity=0 time=0
EXTRACT: note_on channel=7 note=60 velocity=125 time=0
EXTRACT: note_on channel=9 note=42 velocity=49 time=0
EXTRACT: note_on channel=9 note=64 velocity=70 time=0
EXTRACT: note_on channel=9 note=54 velocity=0 time=0.1076922
EXTRACT: note_on channel=9 note=54 velocity=13 time=0
EXTRACT: note_on channel=1 note=38 velocity=0 time=0.0076923
EXTRACT: note_on channel=9 note=42 velocity=0 time=0
EXTRACT: note_on channel=9 note=64 velocity=0 time=0
EXTRACT: note_on channel=9 note=54 velocity=0 time=0.1076922
EXTRACT: note_on channel=9 note=54 velocity=42 time=0
EXTRACT: note_on channel=1 note=38 velocity=94 time=0.0076923
EXTRACT: note_on channel=3 note=50 velocity=110 time=0
EXTRACT: note_on channel=3 note=69 velocity=79 time=0
EXTRACT: note_on channel=3 note=72 velocity=78 time=0
EXTRACT: note_on channel=9 note=36 velocity=88 time=0
EXTRACT: note_on channel=9 note=42 velocity=84 time=0
EXTRACT: note_on channel=9 note=54 velocity=0 time=0.1076922
EXTRACT: note_on channel=9 note=54 velocity=28 time=0
EXTRACT: note_on channel=1 note=38 velocity=0 time=0.0076923
EXTRACT: note_on channel=3 note=72 velocity=0 time=0
EXTRACT: note_on channel=3 note=69 velocity=0 time=0
EXTRACT: note_on channel=3 note=50 velocity=0 time=0
EXTRACT: note_on channel=3 note=50 velocity=73 time=0
EXTRACT: note_on channel=3 note=69 velocity=58 time=0
EXTRACT: note_on channel=3 note=72 velocity=75 time=0
EXTRACT: note_on channel=9 note=36 velocity=0 time=0
EXTRACT: note_on channel=9 note=42 velocity=0 time=0
EXTRACT: note_on channel=9 note=54 velocity=0 time=0.1076922
EXTRACT: note_on channel=9 note=54 velocity=28 time=0
EXTRACT: note_on channel=1 note=38 velocity=107 time=0.0076923
EXTRACT: note_on channel=3 note=72 velocity=0 time=0
EXTRACT: note_on channel=3 note=69 velocity=0 time=0
EXTRACT: note_on channel=3 note=50 velocity=0 time=0
EXTRACT: note_on channel=3 note=72 velocity=83 time=0
EXTRACT: note_on channel=3 note=50 velocity=63 time=0
EXTRACT: note_on channel=3 note=69 velocity=63 time=0
EXTRACT: note_on channel=9 note=36 velocity=94 time=0
EXTRACT: note_on channel=9 note=42 velocity=53 time=0
EXTRACT: note_on channel=9 note=62 velocity=36 time=0
EXTRACT: note_on channel=9 note=54 velocity=0 time=0.1076922
EXTRACT: note_on channel=9 note=54 velocity=28 time=0
EXTRACT: note_on channel=3 note=69 velocity=0 time=0.0076923
EXTRACT: note_on channel=3 note=50 velocity=0 time=0
EXTRACT: note_on channel=3 note=72 velocity=0 time=0
EXTRACT: note_on channel=9 note=36 velocity=0 time=0
EXTRACT: note_on channel=9 note=42 velocity=0 time=0
EXTRACT: note_on channel=9 note=62 velocity=0 time=0
EXTRACT: note_on channel=9 note=54 velocity=0 time=0.1076922
EXTRACT: note_on channel=9 note=54 velocity=41 time=0
EXTRACT: note_on channel=0 note=57 velocity=0 time=0.0076923
EXTRACT: note_on channel=1 note=38 velocity=0 time=0
EXTRACT: note_on channel=3 note=69 velocity=86 time=0
EXTRACT: note_on channel=3 note=72 velocity=92 time=0
EXTRACT: note_on channel=3 note=50 velocity=110 time=0
EXTRACT: note_on channel=9 note=40 velocity=93 time=0
EXTRACT: note_on channel=9 note=42 velocity=94 time=0
EXTRACT: note_on channel=9 note=62 velocity=52 time=0
EXTRACT: note_on channel=9 note=54 velocity=0 time=0.1076922
EXTRACT: note_on channel=9 note=54 velocity=28 time=0
EXTRACT: note_on channel=0 note=62 velocity=0 time=0.0076923
EXTRACT: note_on channel=0 note=53 velocity=0 time=0
EXTRACT: note_on channel=6 note=57 velocity=0 time=0
EXTRACT: note_on channel=6 note=62 velocity=0 time=0
EXTRACT: note_on channel=6 note=50 velocity=0 time=0
EXTRACT: note_on channel=7 note=60 velocity=0 time=0
EXTRACT: note_on channel=9 note=40 velocity=0 time=0
EXTRACT: note_on channel=9 note=42 velocity=0 time=0
EXTRACT: note_on channel=9 note=62 velocity=0 time=0
EXTRACT: note_on channel=9 note=54 velocity=0 time=0.1076922
EXTRACT: note_on channel=9 note=54 velocity=31 time=0
EXTRACT: note_on channel=0 note=55 velocity=92 time=0.0076923
EXTRACT: note_on channel=0 note=59 velocity=107 time=0
EXTRACT: note_on channel=0 note=64 velocity=90 time=0
EXTRACT: note_on channel=1 note=40 velocity=120 time=0
EXTRACT: note_on channel=3 note=50 velocity=0 time=0
EXTRACT: note_on channel=3 note=72 velocity=0 time=0
EXTRACT: note_on channel=3 note=69 velocity=0 time=0
EXTRACT: note_on channel=6 note=52 velocity=82 time=0
EXTRACT: note_on channel=6 note=64 velocity=82 time=0
EXTRACT: note_on channel=6 note=59 velocity=82 time=0
EXTRACT: note_on channel=7 note=57 velocity=101 time=0
EXTRACT: note_on channel=9 note=36 velocity=70 time=0
EXTRACT: note_on channel=9 note=42 velocity=38 time=0
EXTRACT: note_on channel=9 note=63 velocity=56 time=0
EXTRACT: note_on channel=9 note=54 velocity=0 time=0.1076922
EXTRACT: note_on channel=9 note=54 velocity=37 time=0
EXTRACT: note_on channel=7 note=57 velocity=0 time=0.0076923
EXTRACT: note_on channel=9 note=36 velocity=0 time=0
EXTRACT: note_on channel=9 note=42 velocity=0 time=0
EXTRACT: note_on channel=9 note=63 velocity=0 time=0
EXTRACT: pitchwheel channel=7 pitch=-386 time=0.08846145
EXTRACT: pitchwheel channel=7 pitch=-2442 time=0.0076923
EXTRACT: pitchwheel channel=7 pitch=-3791 time=0.0076923
EXTRACT: note_on channel=9 note=54 velocity=0 time=0.00384615
EXTRACT: note_on channel=9 note=54 velocity=41 time=0
EXTRACT: pitchwheel channel=7 pitch=-4948 time=0.00384615
EXTRACT: note_on channel=3 note=52 velocity=110 time=0.00384615
EXTRACT: note_on channel=3 note=67 velocity=79 time=0
EXTRACT: note_on channel=3 note=74 velocity=88 time=0
EXTRACT: note_on channel=7 note=64 velocity=120 time=0
EXTRACT: note_on channel=9 note=36 velocity=104 time=0
EXTRACT: note_on channel=9 note=42 velocity=94 time=0
EXTRACT: pitchwheel channel=7 pitch=-5526 time=0.00384615
EXTRACT: pitchwheel channel=7 pitch=-5719 time=0.0076923
EXTRACT: pitchwheel channel=7 pitch=-5783 time=0.01153845
EXTRACT: pitchwheel channel=7 pitch=-5719 time=0.0076923
EXTRACT: pitchwheel channel=7 pitch=-5462 time=0.0076923
EXTRACT: pitchwheel channel=7 pitch=-5173 time=0.0076923
EXTRACT: pitchwheel channel=7 pitch=-4884 time=0.0076923
EXTRACT: pitchwheel channel=7 pitch=-4530 time=0.01153845
EXTRACT: pitchwheel channel=7 pitch=-4016 time=0.0076923
EXTRACT: pitchwheel channel=7 pitch=-3502 time=0.0076923
EXTRACT: pitchwheel channel=7 pitch=-2699 time=0.01153845
EXTRACT: pitchwheel channel=7 pitch=-1992 time=0.0076923
EXTRACT: pitchwheel channel=7 pitch=-1061 time=0.0076923
EXTRACT: note_on channel=9 note=54 velocity=0 time=0
EXTRACT: note_on channel=9 note=54 velocity=10 time=0
EXTRACT: pitchwheel channel=7 pitch=-354 time=0.0076923
EXTRACT: note_on channel=9 note=36 velocity=0 time=0
EXTRACT: note_on channel=9 note=42 velocity=0 time=0
EXTRACT: pitchwheel channel=7 pitch=0 time=0.0076923
EXTRACT: note_on channel=9 note=54 velocity=0 time=0.0999999
EXTRACT: note_on channel=9 note=54 velocity=10 time=0
EXTRACT: note_on channel=3 note=74 velocity=0 time=0.0076923
EXTRACT: note_on channel=3 note=67 velocity=0 time=0
EXTRACT: note_on channel=3 note=52 velocity=0 time=0
EXTRACT: note_on channel=9 note=42 velocity=40 time=0
EXTRACT: note_on channel=9 note=62 velocity=46 time=0
EXTRACT: note_on channel=9 note=54 velocity=0 time=0.1076922
EXTRACT: note_on channel=9 note=54 velocity=11 time=0
EXTRACT: note_on channel=9 note=42 velocity=0 time=0.0076923
EXTRACT: note_on channel=9 note=62 velocity=0 time=0
EXTRACT: note_on channel=9 note=54 velocity=0 time=0.1076922
EXTRACT: note_on channel=9 note=54 velocity=11 time=0
EXTRACT: note_on channel=3 note=52 velocity=107 time=0.0076923
EXTRACT: note_on channel=3 note=67 velocity=82 time=0
EXTRACT: note_on channel=3 note=74 velocity=85 time=0
EXTRACT: note_on channel=7 note=64 velocity=0 time=0
EXTRACT: note_on channel=7 note=67 velocity=99 time=0
EXTRACT: note_on channel=9 note=40 velocity=87 time=0
EXTRACT: note_on channel=9 note=42 velocity=94 time=0
EXTRACT: note_on channel=9 note=62 velocity=50 time=0
EXTRACT: note_on channel=9 note=54 velocity=0 time=0.1076922
EXTRACT: note_on channel=9 note=54 velocity=11 time=0
EXTRACT: note_on channel=9 note=40 velocity=0 time=0.0076923
EXTRACT: note_on channel=9 note=42 velocity=0 time=0
EXTRACT: note_on channel=9 note=62 velocity=0 time=0
EXTRACT: note_on channel=9 note=54 velocity=0 time=0.1076922
EXTRACT: note_on channel=9 note=54 velocity=13 time=0
EXTRACT: note_on channel=3 note=74 velocity=0 time=0.0076923
EXTRACT: note_on channel=3 note=67 velocity=0 time=0
EXTRACT: note_on channel=3 note=52 velocity=0 time=0
EXTRACT: note_on channel=7 note=67 velocity=0 time=0
EXTRACT: note_on channel=7 note=64 velocity=113 time=0
EXTRACT: note_on channel=9 note=42 velocity=34 time=0
EXTRACT: note_on channel=9 note=64 velocity=66 time=0
EXTRACT: note_on channel=9 note=54 velocity=0 time=0.1076922
EXTRACT: note_on channel=9 note=54 velocity=13 time=0
EXTRACT: note_on channel=1 note=40 velocity=0 time=0.0076923
EXTRACT: note_on channel=9 note=42 velocity=0 time=0
EXTRACT: note_on channel=9 note=64 velocity=0 time=0
EXTRACT: note_on channel=9 note=54 velocity=0 time=0.1076922
EXTRACT: note_on channel=9 note=54 velocity=38 time=0
EXTRACT: note_on channel=1 note=40 velocity=88 time=0.0076923
EXTRACT: note_on channel=3 note=52 velocity=104 time=0
EXTRACT: note_on channel=3 note=67 velocity=85 time=0
EXTRACT: note_on channel=3 note=74 velocity=74 time=0
EXTRACT: note_on channel=9 note=36 velocity=86 time=0
EXTRACT: note_on channel=9 note=42 velocity=94 time=0
EXTRACT: note_on channel=9 note=54 velocity=0 time=0.1076922
EXTRACT: note_on channel=9 note=54 velocity=27 time=0
EXTRACT: note_on channel=1 note=40 velocity=0 time=0.0076923
EXTRACT: note_on channel=3 note=74 velocity=0 time=0
EXTRACT: note_on channel=3 note=67 velocity=0 time=0
EXTRACT: note_on channel=3 note=52 velocity=0 time=0
EXTRACT: note_on channel=3 note=74 velocity=74 time=0
EXTRACT: note_on channel=3 note=52 velocity=80 time=0
EXTRACT: note_on channel=3 note=67 velocity=57 time=0
EXTRACT: note_on channel=7 note=64 velocity=0 time=0
EXTRACT: note_on channel=9 note=36 velocity=0 time=0
EXTRACT: note_on channel=9 note=42 velocity=0 time=0
EXTRACT: note_on channel=9 note=54 velocity=0 time=0.1076922
EXTRACT: note_on channel=9 note=54 velocity=27 time=0
EXTRACT: note_on channel=1 note=40 velocity=85 time=0.0076923
EXTRACT: note_on channel=3 note=67 velocity=0 time=0
EXTRACT: note_on channel=3 note=52 velocity=0 time=0
EXTRACT: note_on channel=3 note=52 velocity=73 time=0
EXTRACT: note_on channel=3 note=67 velocity=73 time=0
EXTRACT: note_on channel=7 note=67 velocity=99 time=0
EXTRACT: note_on channel=9 note=36 velocity=85 time=0
EXTRACT: note_on channel=9 note=42 velocity=31 time=0
EXTRACT: note_on channel=9 note=62 velocity=36 time=0
EXTRACT: note_on channel=9 note=54 velocity=0 time=0.1076922
EXTRACT: note_on channel=9 note=54 velocity=27 time=0
EXTRACT: note_on channel=3 note=67 velocity=0 time=0.0076923
EXTRACT: note_on channel=3 note=52 velocity=0 time=0
EXTRACT: note_on channel=3 note=74 velocity=0 time=0
EXTRACT: note_on channel=9 note=36 velocity=0 time=0
EXTRACT: note_on channel=9 note=42 velocity=0 time=0
EXTRACT: note_on channel=9 note=62 velocity=0 time=0
EXTRACT: note_on channel=9 note=54 velocity=0 time=0.1076922
EXTRACT: note_on channel=9 note=54 velocity=36 time=0
EXTRACT: note_on channel=3 note=67 velocity=85 time=0.0076923
EXTRACT: note_on channel=3 note=52 velocity=117 time=0
EXTRACT: note_on channel=3 note=74 velocity=88 time=0
EXTRACT: note_on channel=7 note=67 velocity=0 time=0
EXTRACT: note_on channel=7 note=69 velocity=117 time=0
EXTRACT: note_on channel=9 note=40 velocity=87 time=0
EXTRACT: note_on channel=9 note=42 velocity=99 time=0
EXTRACT: note_on channel=9 note=62 velocity=50 time=0
EXTRACT: note_on channel=9 note=54 velocity=0 time=0.1076922
EXTRACT: note_on channel=9 note=54 velocity=27 time=0
EXTRACT: note_on channel=0 note=64 velocity=0 time=0.0076923
EXTRACT: note_on channel=0 note=59 velocity=0 time=0
EXTRACT: note_on channel=0 note=55 velocity=0 time=0
EXTRACT: note_on channel=1 note=40 velocity=0 time=0
EXTRACT: note_on channel=6 note=59 velocity=0 time=0
EXTRACT: note_on channel=6 note=64 velocity=0 time=0
EXTRACT: note_on channel=6 note=52 velocity=0 time=0
EXTRACT: note_on channel=7 note=69 velocity=0 time=0
EXTRACT: note_on channel=9 note=40 velocity=0 time=0
EXTRACT: note_on channel=9 note=42 velocity=0 time=0
EXTRACT: note_on channel=9 note=62 velocity=0 time=0
EXTRACT: note_on channel=9 note=54 velocity=0 time=0.1076922
EXTRACT: note_on channel=9 note=54 velocity=28 time=0
EXTRACT: note_on channel=0 note=57 velocity=79 time=0.0076923
EXTRACT: note_on channel=0 note=60 velocity=99 time=0
EXTRACT: note_on channel=0 note=65 velocity=85 time=0
EXTRACT: note_on channel=1 note=41 velocity=97 time=0
EXTRACT: note_on channel=3 note=74 velocity=0 time=0
EXTRACT: note_on channel=3 note=52 velocity=0 time=0
EXTRACT: note_on channel=3 note=67 velocity=0 time=0
EXTRACT: note_on channel=6 note=53 velocity=80 time=0
EXTRACT: note_on channel=6 note=65 velocity=80 time=0
EXTRACT: note_on channel=6 note=60 velocity=80 time=0
EXTRACT: note_on channel=7 note=72 velocity=125 time=0
EXTRACT: note_on channel=9 note=36 velocity=71 time=0
EXTRACT: note_on channel=9 note=42 velocity=38 time=0
EXTRACT: note_on channel=9 note=63 velocity=58 time=0
EXTRACT: pitchwheel channel=7 pitch=-418 time=0.01153845
EXTRACT: pitchwheel channel=7 pitch=-2249 time=0.0076923
EXTRACT: pitchwheel channel=7 pitch=-3759 time=0.0076923
EXTRACT: pitchwheel channel=7 pitch=-4530 time=0.0076923
EXTRACT: pitchwheel channel=7 pitch=-4755 time=0.0076923
EXTRACT: pitchwheel channel=7 pitch=-4723 time=0.0153846
EXTRACT: pitchwheel channel=7 pitch=-4466 time=0.01153845
EXTRACT: pitchwheel channel=7 pitch=-4209 time=0.0076923
EXTRACT: pitchwheel channel=7 pitch=-3759 time=0.0076923
EXTRACT: pitchwheel channel=7 pitch=-3342 time=0.0076923
EXTRACT: pitchwheel channel=7 pitch=-2667 time=0.0076923
EXTRACT: note_on channel=9 note=54 velocity=0 time=0.0076923
EXTRACT: note_on channel=9 note=54 velocity=38 time=0
EXTRACT: pitchwheel channel=7 pitch=-2057 time=0.00384615
EXTRACT: note_on channel=9 note=36 velocity=0 time=0.00384615
EXTRACT: note_on channel=9 note=42 velocity=0 time=0
EXTRACT: note_on channel=9 note=63 velocity=0 time=0
EXTRACT: pitchwheel channel=7 pitch=-1253 time=0.00384615
EXTRACT: pitchwheel channel=7 pitch=-643 time=0.0076923
EXTRACT: pitchwheel channel=7 pitch=0 time=0.0076923
EXTRACT: note_on channel=9 note=54 velocity=0 time=0.08846145
EXTRACT: note_on channel=9 note=54 velocity=39 time=0
EXTRACT: note_on channel=3 note=53 velocity=113 time=0.0076923
EXTRACT: note_on channel=3 note=69 velocity=92 time=0
EXTRACT: note_on channel=3 note=76 velocity=88 time=0
EXTRACT: note_on channel=9 note=36 velocity=101 time=0
EXTRACT: note_on channel=9 note=42 velocity=99 time=0
EXTRACT: note_on channel=9 note=54 velocity=0 time=0.1076922
EXTRACT: note_on channel=9 note=54 velocity=7 time=0
EXTRACT: note_on channel=9 note=36 velocity=0 time=0.0076923
EXTRACT: note_on channel=9 note=42 velocity=0 time=0
EXTRACT: note_on channel=9 note=54 velocity=0 time=0.1076922
EXTRACT: note_on channel=9 note=54 velocity=7 time=0
EXTRACT: note_on channel=3 note=76 velocity=0 time=0.0076923
EXTRACT: note_on channel=3 note=69 velocity=0 time=0
EXTRACT: note_on channel=3 note=53 velocity=0 time=0
EXTRACT: note_on channel=7 note=72 velocity=0 time=0
EXTRACT: note_on channel=7 note=67 velocity=101 time=0
EXTRACT: note_on channel=9 note=42 velocity=27 time=0
EXTRACT: note_on channel=9 note=62 velocity=34 time=0
EXTRACT: note_on channel=9 note=54 velocity=0 time=0.1076922
EXTRACT: note_on channel=9 note=54 velocity=7 time=0
EXTRACT: note_on channel=9 note=42 velocity=0 time=0.0076923
EXTRACT: note_on channel=9 note=62 velocity=0 time=0
EXTRACT: note_on channel=9 note=54 velocity=0 time=0.1076922
EXTRACT: note_on channel=9 note=54 velocity=10 time=0
EXTRACT: note_on channel=3 note=53 velocity=113 time=0.0076923
EXTRACT: note_on channel=3 note=69 velocity=92 time=0
EXTRACT: note_on channel=3 note=76 velocity=90 time=0
EXTRACT: note_on channel=7 note=67 velocity=0 time=0
EXTRACT: note_on channel=7 note=69 velocity=110 time=0
EXTRACT: note_on channel=9 note=40 velocity=93 time=0
EXTRACT: note_on channel=9 note=42 velocity=94 time=0
EXTRACT: note_on channel=9 note=62 velocity=46 time=0
EXTRACT: note_on channel=9 note=54 velocity=0 time=0.1076922
EXTRACT: note_on channel=9 note=54 velocity=13 time=0
EXTRACT: note_on channel=7 note=69 velocity=0 time=0.0076923
EXTRACT: note_on channel=9 note=40 velocity=0 time=0
EXTRACT: note_on channel=9 note=42 velocity=0 time=0
EXTRACT: note_on channel=9 note=62 velocity=0 time=0
EXTRACT: note_on channel=9 note=54 velocity=0 time=0.1076922
EXTRACT: note_on channel=9 note=54 velocity=12 time=0
EXTRACT: note_on channel=3 note=76 velocity=0 time=0.0076923
EXTRACT: note_on channel=3 note=69 velocity=0 time=0
EXTRACT: note_on channel=3 note=53 velocity=0 time=0
EXTRACT: note_on channel=7 note=72 velocity=120 time=0
EXTRACT: note_on channel=9 note=42 velocity=23 time=0
EXTRACT: note_on channel=9 note=64 velocity=66 time=0
EXTRACT: pitchwheel channel=7 pitch=-1575 time=0.0230769
EXTRACT: pitchwheel channel=7 pitch=-3791 time=0.0076923
EXTRACT: pitchwheel channel=7 pitch=-4916 time=0.0076923
EXTRACT: pitchwheel channel=7 pitch=-5462 time=0.0076923
EXTRACT: pitchwheel channel=7 pitch=-5526 time=0.0076923
EXTRACT: pitchwheel channel=7 pitch=-5590 time=0.0076923
EXTRACT: pitchwheel channel=7 pitch=-5430 time=0.01153845
EXTRACT: pitchwheel channel=7 pitch=-5044 time=0.0076923
EXTRACT: pitchwheel channel=7 pitch=-4851 time=0.0076923
EXTRACT: pitchwheel channel=7 pitch=-4466 time=0.0076923
EXTRACT: pitchwheel channel=7 pitch=-3952 time=0.01153845
EXTRACT: note_on channel=9 note=54 velocity=0 time=0
EXTRACT: note_on channel=9 note=54 velocity=13 time=0
EXTRACT: note_on channel=1 note=41 velocity=0 time=0.0076923
EXTRACT: pitchwheel channel=7 pitch=-3342 time=0
EXTRACT: note_on channel=9 note=42 velocity=0 time=0
EXTRACT: note_on channel=9 note=64 velocity=0 time=0
EXTRACT: pitchwheel channel=7 pitch=-2506 time=0.0076923
EXTRACT: pitchwheel channel=7 pitch=-1607 time=0.0076923
EXTRACT: pitchwheel channel=7 pitch=-707 time=0.0076923
EXTRACT: pitchwheel channel=7 pitch=0 time=0.01153845
EXTRACT: note_on channel=9 note=54 velocity=0 time=0.07307685
EXTRACT: note_on channel=9 note=54 velocity=42 time=0
EXTRACT: note_on channel=1 note=41 velocity=90 time=0.0076923
EXTRACT: note_on channel=3 note=53 velocity=110 time=0
EXTRACT: note_on channel=3 note=69 velocity=86 time=0
EXTRACT: note_on channel=3 note=76 velocity=78 time=0
EXTRACT: note_on channel=9 note=36 velocity=85 time=0
EXTRACT: note_on channel=9 note=42 velocity=99 time=0
EXTRACT: note_on channel=9 note=54 velocity=0 time=0.1076922
EXTRACT: note_on channel=9 note=54 velocity=28 time=0
EXTRACT: note_on channel=1 note=41 velocity=0 time=0.0076923
EXTRACT: note_on channel=3 note=76 velocity=0 time=0
EXTRACT: note_on channel=3 note=69 velocity=0 time=0
EXTRACT: note_on channel=3 note=53 velocity=0 time=0
EXTRACT: note_on channel=3 note=53 velocity=83 time=0
EXTRACT: note_on channel=3 note=69 velocity=64 time=0
EXTRACT: note_on channel=3 note=76 velocity=83 time=0
EXTRACT: note_on channel=9 note=36 velocity=0 time=0
EXTRACT: note_on channel=9 note=42 velocity=0 time=0
EXTRACT: note_on channel=9 note=54 velocity=0 time=0.1076922
EXTRACT: note_on channel=9 note=54 velocity=28 time=0
EXTRACT: note_on channel=1 note=41 velocity=86 time=0.0076923
EXTRACT: note_on channel=3 note=76 velocity=0 time=0
EXTRACT: note_on channel=3 note=69 velocity=0 time=0
EXTRACT: note_on channel=3 note=53 velocity=0 time=0
EXTRACT: note_on channel=3 note=69 velocity=73 time=0
EXTRACT: note_on channel=3 note=53 velocity=76 time=0
EXTRACT: note_on channel=3 note=76 velocity=62 time=0
EXTRACT: note_on channel=7 note=72 velocity=0 time=0
EXTRACT: note_on channel=7 note=74 velocity=101 time=0
EXTRACT: note_on channel=9 note=36 velocity=83 time=0
EXTRACT: note_on channel=9 note=42 velocity=53 time=0
EXTRACT: note_on channel=9 note=62 velocity=37 time=0
EXTRACT: note_on channel=9 note=54 velocity=0 time=0.1076922
EXTRACT: note_on channel=9 note=54 velocity=28 time=0
EXTRACT: note_on channel=3 note=76 velocity=0 time=0.0076923
EXTRACT: note_on channel=3 note=53 velocity=0 time=0
EXTRACT: note_on channel=3 note=69 velocity=0 time=0
EXTRACT: note_on channel=9 note=36 velocity=0 time=0
EXTRACT: note_on channel=9 note=42 velocity=0 time=0
EXTRACT: note_on channel=9 note=62 velocity=0 time=0
EXTRACT: note_on channel=9 note=54 velocity=0 time=0.1076922
EXTRACT: note_on channel=9 note=54 velocity=41 time=0
EXTRACT: note_on channel=3 note=69 velocity=83 time=0.0076923
EXTRACT: note_on channel=3 note=76 velocity=86 time=0
EXTRACT: note_on channel=3 note=53 velocity=110 time=0
EXTRACT: note_on channel=7 note=74 velocity=0 time=0
EXTRACT: note_on channel=7 note=72 velocity=104 time=0
EXTRACT: note_on channel=9 note=40 velocity=100 time=0
EXTRACT: note_on channel=9 note=42 velocity=99 time=0
EXTRACT: note_on channel=9 note=62 velocity=43 time=0
EXTRACT: note_on channel=9 note=54 velocity=0 time=0.1076922
EXTRACT: note_on channel=9 note=54 velocity=28 time=0
EXTRACT: note_on channel=1 note=41 velocity=0 time=0.0076923
EXTRACT: note_on channel=7 note=72 velocity=0 time=0
EXTRACT: note_on channel=9 note=40 velocity=0 time=0
EXTRACT: note_on channel=9 note=42 velocity=0 time=0
EXTRACT: note_on channel=9 note=62 velocity=0 time=0
EXTRACT: note_on channel=9 note=54 velocity=0 time=0.1076922
EXTRACT: note_on channel=9 note=54 velocity=31 time=0
EXTRACT: note_on channel=1 note=41 velocity=76 time=0.0076923
EXTRACT: note_on channel=3 note=53 velocity=0 time=0
EXTRACT: note_on channel=3 note=76 velocity=0 time=0
EXTRACT: note_on channel=3 note=69 velocity=0 time=0
EXTRACT: note_on channel=7 note=76 velocity=117 time=0
EXTRACT: note_on channel=9 note=36 velocity=71 time=0
EXTRACT: note_on channel=9 note=42 velocity=31 time=0
EXTRACT: note_on channel=9 note=63 velocity=58 time=0
EXTRACT: pitchwheel channel=7 pitch=-675 time=0.01153845
EXTRACT: pitchwheel channel=7 pitch=-2378 time=0.01153845
EXTRACT: pitchwheel channel=7 pitch=-3727 time=0.00384615
EXTRACT: pitchwheel channel=7 pitch=-4530 time=0.01153845
EXTRACT: pitchwheel channel=7 pitch=-4755 time=0.00384615
EXTRACT: pitchwheel channel=7 pitch=-4562 time=0.01923075
EXTRACT: pitchwheel channel=7 pitch=-3920 time=0.01153845
EXTRACT: pitchwheel channel=7 pitch=-3052 time=0.0076923
EXTRACT: pitchwheel channel=7 pitch=-1735 time=0.00384615
EXTRACT: pitchwheel channel=7 pitch=-290 time=0.0076923
EXTRACT: pitchwheel channel=7 pitch=0 time=0.0076923
EXTRACT: note_on channel=9 note=54 velocity=0 time=0.0076923
EXTRACT: note_on channel=9 note=54 velocity=37 time=0
EXTRACT: note_on channel=0 note=65 velocity=0 time=0.0076923
EXTRACT: note_on channel=0 note=60 velocity=0 time=0
EXTRACT: note_on channel=0 note=57 velocity=0 time=0
EXTRACT: note_on channel=9 note=36 velocity=0 time=0
EXTRACT: note_on channel=9 note=42 velocity=0 time=0
EXTRACT: note_on channel=9 note=63 velocity=0 time=0
EXTRACT: note_on channel=9 note=54 velocity=0 time=0.1076922
EXTRACT: note_on channel=9 note=54 velocity=41 time=0
EXTRACT: note_on channel=0 note=59 velocity=88 time=0.0076923
EXTRACT: note_on channel=0 note=62 velocity=104 time=0
EXTRACT: note_on channel=0 note=67 velocity=85 time=0
EXTRACT: note_on channel=1 note=41 velocity=0 time=0
EXTRACT: note_on channel=1 note=31 velocity=86 time=0
EXTRACT: note_on channel=3 note=55 velocity=113 time=0
EXTRACT: note_on channel=3 note=67 velocity=92 time=0
EXTRACT: note_on channel=3 note=79 velocity=99 time=0
EXTRACT: note_on channel=6 note=60 velocity=0 time=0
EXTRACT: note_on channel=6 note=65 velocity=0 time=0
EXTRACT: note_on channel=6 note=53 velocity=0 time=0
EXTRACT: note_on channel=6 note=55 velocity=80 time=0
EXTRACT: note_on channel=6 note=50 velocity=80 time=0
EXTRACT: note_on channel=7 note=76 velocity=0 time=0
EXTRACT: note_on channel=9 note=36 velocity=101 time=0
EXTRACT: note_on channel=9 note=42 velocity=99 time=0
EXTRACT: note_on channel=9 note=54 velocity=0 time=0.1076922
EXTRACT: note_on channel=9 note=54 velocity=10 time=0
EXTRACT: note_on channel=9 note=36 velocity=0 time=0.0076923
EXTRACT: note_on channel=9 note=42 velocity=0 time=0
EXTRACT: note_on channel=9 note=54 velocity=0 time=0.1076922
EXTRACT: note_on channel=9 note=54 velocity=10 time=0
EXTRACT: note_on channel=0 note=67 velocity=0 time=0.0076923
EXTRACT: note_on channel=0 note=62 velocity=0 time=0
EXTRACT: note_on channel=0 note=59 velocity=0 time=0
EXTRACT: note_on channel=1 note=31 velocity=0 time=0
EXTRACT: note_on channel=3 note=79 velocity=0 time=0
EXTRACT: note_on channel=3 note=67 velocity=0 time=0
EXTRACT: note_on channel=3 note=55 velocity=0 time=0
EXTRACT: note_on channel=6 note=50 velocity=0 time=0
EXTRACT: note_on channel=6 note=55 velocity=0 time=0
EXTRACT: note_on channel=7 note=76 velocity=113 time=0
EXTRACT: note_on channel=9 note=42 velocity=42 time=0
EXTRACT: note_on channel=9 note=62 velocity=38 time=0
EXTRACT: note_on channel=9 note=54 velocity=0 time=0.1076922
EXTRACT: note_on channel=9 note=54 velocity=11 time=0
EXTRACT: note_on channel=7 note=76 velocity=0 time=0.0076923
EXTRACT: note_on channel=9 note=42 velocity=0 time=0
EXTRACT: note_on channel=9 note=62 velocity=0 time=0
EXTRACT: note_on channel=9 note=54 velocity=0 time=0.1076922
EXTRACT: note_on channel=9 note=54 velocity=11 time=0
EXTRACT: note_on channel=0 note=59 velocity=90 time=0.0076923
EXTRACT: note_on channel=0 note=62 velocity=107 time=0
EXTRACT: note_on channel=0 note=67 velocity=92 time=0
EXTRACT: note_on channel=1 note=31 velocity=97 time=0
EXTRACT: note_on channel=3 note=67 velocity=92 time=0
EXTRACT: note_on channel=3 note=55 velocity=113 time=0
EXTRACT: note_on channel=3 note=79 velocity=99 time=0
EXTRACT: note_on channel=6 note=55 velocity=80 time=0
EXTRACT: note_on channel=6 note=50 velocity=80 time=0
EXTRACT: note_on channel=7 note=74 velocity=117 time=0
EXTRACT: note_on channel=9 note=40 velocity=93 time=0
EXTRACT: note_on channel=9 note=42 velocity=99 time=0
EXTRACT: note_on channel=9 note=62 velocity=49 time=0
EXTRACT: note_on channel=9 note=54 velocity=0 time=0.1076922
EXTRACT: note_on channel=9 note=54 velocity=11 time=0
EXTRACT: note_on channel=9 note=40 velocity=0 time=0.0076923
EXTRACT: note_on channel=9 note=42 velocity=0 time=0
EXTRACT: note_on channel=9 note=62 velocity=0 time=0
EXTRACT: note_on channel=9 note=54 velocity=0 time=0.1076922
EXTRACT: note_on channel=9 note=54 velocity=13 time=0
EXTRACT: note_on channel=0 note=67 velocity=0 time=0.0076923
EXTRACT: note_on channel=1 note=31 velocity=0 time=0
EXTRACT: note_on channel=3 note=79 velocity=0 time=0
EXTRACT: note_on channel=3 note=55 velocity=0 time=0
EXTRACT: note_on channel=3 note=67 velocity=0 time=0
EXTRACT: note_on channel=7 note=74 velocity=0 time=0
EXTRACT: note_on channel=7 note=72 velocity=110 time=0
EXTRACT: note_on channel=9 note=42 velocity=46 time=0
EXTRACT: note_on channel=9 note=64 velocity=70 time=0
EXTRACT: note_on channel=9 note=54 velocity=0 time=0.1076922
EXTRACT: note_on channel=9 note=54 velocity=13 time=0
EXTRACT: note_on channel=0 note=62 velocity=0 time=0.0076923
EXTRACT: note_on channel=0 note=59 velocity=0 time=0
EXTRACT: note_on channel=6 note=50 velocity=0 time=0
EXTRACT: note_on channel=6 note=55 velocity=0 time=0
EXTRACT: note_on channel=7 note=72 velocity=0 time=0
EXTRACT: note_on channel=9 note=42 velocity=0 time=0
EXTRACT: note_on channel=9 note=64 velocity=0 time=0
EXTRACT: pitchwheel channel=7 pitch=-1350 time=0.10384605
EXTRACT: note_on channel=9 note=54 velocity=0 time=0.00384615
EXTRACT: note_on channel=9 note=54 velocity=38 time=0
EXTRACT: pitchwheel channel=7 pitch=-3759 time=0.00384615
EXTRACT: note_on channel=0 note=55 velocity=104 time=0.00384615
EXTRACT: note_on channel=1 note=31 velocity=107 time=0
EXTRACT: note_on channel=3 note=67 velocity=83 time=0
EXTRACT: note_on channel=3 note=55 velocity=117 time=0
EXTRACT: note_on channel=3 note=79 velocity=85 time=0
EXTRACT: note_on channel=6 note=55 velocity=80 time=0
EXTRACT: note_on channel=6 note=50 velocity=80 time=0
EXTRACT: note_on channel=7 note=74 velocity=120 time=0
EXTRACT: note_on channel=9 note=36 velocity=94 time=0
EXTRACT: note_on channel=9 note=42 velocity=94 time=0
EXTRACT: pitchwheel channel=7 pitch=-5301 time=0.00384615
EXTRACT: pitchwheel channel=7 pitch=-7389 time=0.0076923
EXTRACT: pitchwheel channel=7 pitch=-8192 time=0.0076923
EXTRACT: pitchwheel channel=7 pitch=-7775 time=0.0461538
EXTRACT: pitchwheel channel=7 pitch=-6940 time=0.00384615
EXTRACT: pitchwheel channel=7 pitch=-5783 time=0.01153845
EXTRACT: pitchwheel channel=7 pitch=-4755 time=0.0076923
EXTRACT: pitchwheel channel=7 pitch=-3695 time=0.0076923
EXTRACT: pitchwheel channel=7 pitch=-2474 time=0.0076923
EXTRACT: note_on channel=9 note=54 velocity=0 time=0.00384615
EXTRACT: note_on channel=9 note=54 velocity=27 time=0
EXTRACT: note_on channel=3 note=79 velocity=0 time=0.0076923
EXTRACT: note_on channel=3 note=55 velocity=0 time=0
EXTRACT: note_on channel=3 note=67 velocity=0 time=0
EXTRACT: note_on channel=3 note=67 velocity=62 time=0
EXTRACT: note_on channel=3 note=55 velocity=76 time=0
EXTRACT: note_on channel=3 note=79 velocity=79 time=0
EXTRACT: pitchwheel channel=7 pitch=-1093 time=0
EXTRACT: note_on channel=9 note=36 velocity=0 time=0
EXTRACT: note_on channel=9 note=42 velocity=0 time=0
EXTRACT: pitchwheel channel=7 pitch=-129 time=0.0076923
EXTRACT: pitchwheel channel=7 pitch=0 time=0.0076923
EXTRACT: note_on channel=9 note=54 velocity=0 time=0.0923076
EXTRACT: note_on channel=9 note=54 velocity=27 time=0
EXTRACT: note_on channel=0 note=55 velocity=0 time=0.0076923
EXTRACT: note_on channel=0 note=57 velocity=94 time=0
EXTRACT: note_on channel=1 note=31 velocity=0 time=0
EXTRACT: note_on channel=1 note=33 velocity=88 time=0
EXTRACT: note_on channel=3 note=79 velocity=0 time=0
EXTRACT: note_on channel=3 note=55 velocity=0 time=0
EXTRACT: note_on channel=3 note=67 velocity=0 time=0
EXTRACT: note_on channel=3 note=67 velocity=73 time=0
EXTRACT: note_on channel=3 note=79 velocity=66 time=0
EXTRACT: note_on channel=3 note=55 velocity=64 time=0
EXTRACT: note_on channel=6 note=50 velocity=0 time=0
EXTRACT: note_on channel=6 note=55 velocity=0 time=0
EXTRACT: note_on channel=6 note=57 velocity=81 time=0
EXTRACT: note_on channel=6 note=52 velocity=81 time=0
EXTRACT: note_on channel=9 note=36 velocity=88 time=0
EXTRACT: note_on channel=9 note=42 velocity=46 time=0
EXTRACT: note_on channel=9 note=62 velocity=48 time=0
EXTRACT: note_on channel=2 note=35 velocity=79 time=0.0538461
EXTRACT: note_on channel=9 note=42 velocity=0 time=0.00384615
EXTRACT: note_on channel=2 note=36 velocity=66 time=0.01153845
EXTRACT: note_on channel=2 note=35 velocity=0 time=0.01153845
EXTRACT: note_on channel=2 note=38 velocity=78 time=0.02692305
EXTRACT: note_on channel=9 note=54 velocity=0 time=0
EXTRACT: note_on channel=9 note=54 velocity=27 time=0
EXTRACT: note_on channel=2 note=36 velocity=0 time=0.0076923
EXTRACT: note_on channel=3 note=55 velocity=0 time=0
EXTRACT: note_on channel=3 note=79 velocity=0 time=0
EXTRACT: note_on channel=3 note=67 velocity=0 time=0
EXTRACT: note_on channel=9 note=36 velocity=0 time=0
EXTRACT: note_on channel=9 note=62 velocity=0 time=0
EXTRACT: note_on channel=2 note=40 velocity=83 time=0.01153845
EXTRACT: note_on channel=2 note=38 velocity=0 time=0.0076923
EXTRACT: note_on channel=2 note=41 velocity=88 time=0.01153845
EXTRACT: note_on channel=2 note=40 velocity=0 time=0.0076923
EXTRACT: note_on channel=2 note=43 velocity=99 time=0.01153845
EXTRACT: note_on channel=2 note=41 velocity=0 time=0.0076923
EXTRACT: note_on channel=2 note=45 velocity=94 time=0.0076923
EXTRACT: note_on channel=2 note=43 velocity=0 time=0.0076923
EXTRACT: note_on channel=2 note=47 velocity=94 time=0.01153845
EXTRACT: note_on channel=2 note=45 velocity=0 time=0.0076923
EXTRACT: note_on channel=2 note=48 velocity=97 time=0.0076923
EXTRACT: note_on channel=2 note=47 velocity=0 time=0.0076923
EXTRACT: note_on channel=9 note=54 velocity=0 time=0
EXTRACT: note_on channel=9 note=54 velocity=36 time=0
EXTRACT: note_on channel=2 note=50 velocity=97 time=0.00384615
EXTRACT: note_on channel=0 note=57 velocity=0 time=0.00384615
EXTRACT: note_on channel=0 note=60 velocity=104 time=0
EXTRACT: note_on channel=1 note=33 velocity=0 time=0
EXTRACT: note_on channel=1 note=36 velocity=76 time=0
EXTRACT: note_on channel=3 note=67 velocity=66 time=0
EXTRACT: note_on channel=3 note=79 velocity=92 time=0
EXTRACT: note_on channel=3 note=55 velocity=97 time=0
EXTRACT: note_on channel=6 note=52 velocity=0 time=0
EXTRACT: note_on channel=6 note=57 velocity=0 time=0
EXTRACT: note_on channel=6 note=60 velocity=81 time=0
EXTRACT: note_on channel=6 note=55 velocity=81 time=0
EXTRACT: note_on channel=7 note=74 velocity=0 time=0
EXTRACT: note_on channel=7 note=72 velocity=123 time=0
EXTRACT: note_on channel=9 note=40 velocity=93 time=0
EXTRACT: note_on channel=9 note=42 velocity=89 time=0
EXTRACT: note_on channel=9 note=62 velocity=52 time=0
EXTRACT: note_on channel=2 note=48 velocity=0 time=0.0076923
EXTRACT: note_on channel=2 note=52 velocity=92 time=0.00384615
EXTRACT: note_on channel=2 note=50 velocity=0 time=0.0153846
EXTRACT: note_on channel=2 note=53 velocity=92 time=0
EXTRACT: note_on channel=2 note=52 velocity=0 time=0.01153845
EXTRACT: note_on channel=2 note=55 velocity=97 time=0
EXTRACT: note_on channel=2 note=53 velocity=0 time=0.01153845
EXTRACT: note_on channel=2 note=57 velocity=94 time=0.0076923
EXTRACT: note_on channel=2 note=55 velocity=0 time=0.0153846
EXTRACT: note_on channel=2 note=59 velocity=99 time=0.00384615
EXTRACT: note_on channel=2 note=57 velocity=0 time=0.0076923
EXTRACT: note_on channel=2 note=60 velocity=107 time=0.01153845
EXTRACT: note_on channel=2 note=59 velocity=0 time=0.01153845
EXTRACT: note_on channel=9 note=54 velocity=0 time=0
EXTRACT: note_on channel=9 note=54 velocity=27 time=0
EXTRACT: note_on channel=3 note=55 velocity=0 time=0.0076923
EXTRACT: note_on channel=3 note=79 velocity=0 time=0
EXTRACT: note_on channel=3 note=67 velocity=0 time=0
EXTRACT: note_on channel=3 note=79 velocity=83 time=0
EXTRACT: note_on channel=3 note=67 velocity=78 time=0
EXTRACT: note_on channel=3 note=55 velocity=68 time=0
EXTRACT: note_on channel=9 note=40 velocity=0 time=0
EXTRACT: note_on channel=9 note=42 velocity=0 time=0
EXTRACT: note_on channel=9 note=62 velocity=0 time=0
EXTRACT: note_on channel=2 note=60 velocity=94 time=0.01153845
EXTRACT: note_on channel=2 note=60 velocity=0 time=0.0076923
EXTRACT: note_on channel=9 note=54 velocity=0 time=0.08846145
EXTRACT: note_on channel=9 note=54 velocity=28 time=0
EXTRACT: note_on channel=0 note=60 velocity=0 time=0.0076923
EXTRACT: note_on channel=0 note=57 velocity=90 time=0
EXTRACT: note_on channel=1 note=36 velocity=0 time=0
EXTRACT: note_on channel=1 note=33 velocity=90 time=0
EXTRACT: note_on channel=3 note=55 velocity=0 time=0
EXTRACT: note_on channel=3 note=67 velocity=0 time=0
EXTRACT: note_on channel=3 note=79 velocity=0 time=0
EXTRACT: note_on channel=3 note=67 velocity=83 time=0
EXTRACT: note_on channel=3 note=79 velocity=83 time=0
EXTRACT: note_on channel=3 note=55 velocity=94 time=0
EXTRACT: note_on channel=6 note=55 velocity=0 time=0
EXTRACT: note_on channel=6 note=60 velocity=0 time=0
EXTRACT: note_on channel=6 note=57 velocity=81 time=0
EXTRACT: note_on channel=6 note=52 velocity=81 time=0
EXTRACT: note_on channel=9 note=36 velocity=71 time=0
EXTRACT: note_on channel=9 note=42 velocity=51 time=0
EXTRACT: note_on channel=9 note=63 velocity=67 time=0
EXTRACT: note_on channel=2 note=60 velocity=0 time=0.0384615
EXTRACT: note_on channel=2 note=60 velocity=54 time=0.01153845
EXTRACT: note_on channel=2 note=59 velocity=42 time=0.0076923
EXTRACT: note_on channel=2 note=57 velocity=88 time=0.0153846
EXTRACT: note_on channel=2 note=60 velocity=0 time=0.01923075
EXTRACT: note_on channel=2 note=55 velocity=94 time=0.00384615
EXTRACT: note_on channel=9 note=54 velocity=0 time=0.01153845
EXTRACT: note_on channel=9 note=54 velocity=38 time=0
EXTRACT: note_on channel=2 note=59 velocity=0 time=0.0076923
EXTRACT: note_on channel=3 note=55 velocity=0 time=0
EXTRACT: note_on channel=3 note=79 velocity=0 time=0
EXTRACT: note_on channel=3 note=67 velocity=0 time=0
EXTRACT: note_on channel=9 note=36 velocity=0 time=0
EXTRACT: note_on channel=9 note=42 velocity=0 time=0
EXTRACT: note_on channel=9 note=63 velocity=0 time=0
EXTRACT: note_on channel=2 note=53 velocity=88 time=0.00384615
EXTRACT: note_on channel=2 note=57 velocity=0 time=0.0153846
EXTRACT: note_on channel=2 note=52 velocity=88 time=0.0076923
EXTRACT: note_on channel=2 note=55 velocity=0 time=0.01153845
EXTRACT: note_on channel=2 note=50 velocity=80 time=0.0076923
EXTRACT: note_on channel=2 note=53 velocity=0 time=0.0076923
EXTRACT: note_on channel=2 note=48 velocity=76 time=0.01153845
EXTRACT: note_on channel=2 note=52 velocity=0 time=0.00384615
EXTRACT: note_on channel=2 note=47 velocity=75 time=0.0153846
EXTRACT: note_on channel=2 note=50 velocity=0 time=0.00384615
EXTRACT: note_on channel=2 note=45 velocity=72 time=0.0153846
EXTRACT: note_on channel=2 note=48 velocity=0 time=0.00384615
EXTRACT: note_on channel=9 note=54 velocity=0 time=0
EXTRACT: note_on channel=9 note=54 velocity=39 time=0
EXTRACT: note_on channel=0 note=57 velocity=0 time=0.0076923
EXTRACT: note_on channel=0 note=60 velocity=104 time=0
EXTRACT: note_on channel=0 note=55 velocity=72 time=0
EXTRACT: note_on channel=0 note=52 velocity=66 time=0
EXTRACT: note_on channel=0 note=60 velocity=67 time=0
EXTRACT: note_on channel=1 note=33 velocity=0 time=0
EXTRACT: note_on channel=1 note=36 velocity=107 time=0
EXTRACT: note_on channel=3 note=72 velocity=80 time=0
EXTRACT: note_on channel=5 note=64 velocity=100 time=0
EXTRACT: note_on channel=6 note=52 velocity=0 time=0
EXTRACT: note_on channel=6 note=57 velocity=0 time=0
EXTRACT: note_on channel=7 note=72 velocity=0 time=0
EXTRACT: note_on channel=7 note=67 velocity=110 time=0
EXTRACT: note_on channel=8 note=72 velocity=92 time=0
EXTRACT: note_on channel=9 note=36 velocity=97 time=0
EXTRACT: note_on channel=9 note=42 velocity=99 time=0
EXTRACT: note_on channel=9 note=49 velocity=83 time=0
EXTRACT: note_on channel=9 note=63 velocity=50 time=0
EXTRACT: note_on channel=2 note=43 velocity=71 time=0.0076923
EXTRACT: note_on channel=2 note=47 velocity=0 time=0.00384615
EXTRACT: note_on channel=3 note=67 velocity=85 time=0
EXTRACT: note_on channel=2 note=41 velocity=73 time=0.01153845
EXTRACT: note_on channel=3 note=64 velocity=82 time=0
EXTRACT: note_on channel=2 note=45 velocity=0 time=0.0076923
EXTRACT: note_on channel=4 note=79 velocity=120 time=0.0076923
EXTRACT: note_on channel=2 note=40 velocity=74 time=0.0076923
EXTRACT: note_on channel=2 note=43 velocity=0 time=0.01153845
EXTRACT: note_on channel=2 note=41 velocity=0 time=0.01153845
EXTRACT: note_on channel=2 note=38 velocity=74 time=0.00384615
EXTRACT: note_on channel=2 note=40 velocity=0 time=0.0153846
EXTRACT: note_on channel=2 note=36 velocity=76 time=0
EXTRACT: note_on channel=2 note=38 velocity=0 time=0.01923075
EXTRACT: note_on channel=9 note=54 velocity=0 time=0
EXTRACT: note_on channel=9 note=54 velocity=7 time=0
EXTRACT: note_on channel=9 note=36 velocity=0 time=0.0076923
EXTRACT: note_on channel=9 note=42 velocity=0 time=0
EXTRACT: note_on channel=9 note=49 velocity=0 time=0
EXTRACT: note_on channel=9 note=63 velocity=0 time=0
EXTRACT: note_on channel=2 note=35 velocity=88 time=0.00384615
EXTRACT: note_on channel=2 note=36 velocity=0 time=0.00384615
EXTRACT: note_on channel=2 note=35 velocity=0 time=0.02692305
EXTRACT: note_on channel=9 note=54 velocity=0 time=0.07307685
EXTRACT: note_on channel=9 note=54 velocity=7 time=0
EXTRACT: note_on channel=0 note=60 velocity=0 time=0.0076923
EXTRACT: note_on channel=1 note=36 velocity=0 time=0
EXTRACT: note_on channel=7 note=67 velocity=0 time=0
EXTRACT: note_on channel=8 note=72 velocity=0 time=0
EXTRACT: note_on channel=9 note=42 velocity=32 time=0
EXTRACT: note_on channel=9 note=62 velocity=56 time=0
EXTRACT: note_on channel=9 note=54 velocity=0 time=0.1076922
EXTRACT: note_on channel=9 note=54 velocity=7 time=0
EXTRACT: note_on channel=3 note=64 velocity=0 time=0.0076923
EXTRACT: note_on channel=3 note=67 velocity=0 time=0
EXTRACT: note_on channel=3 note=72 velocity=0 time=0
EXTRACT: note_on channel=5 note=64 velocity=0 time=0
EXTRACT: note_on channel=9 note=42 velocity=0 time=0
EXTRACT: note_on channel=9 note=62 velocity=0 time=0
EXTRACT: note_on channel=9 note=54 velocity=0 time=0.1076922
EXTRACT: note_on channel=9 note=54 velocity=10 time=0
EXTRACT: note_on channel=1 note=36 velocity=110 time=0.0076923
EXTRACT: note_on channel=3 note=67 velocity=101 time=0
EXTRACT: note_on channel=5 note=60 velocity=117 time=0
EXTRACT: note_on channel=7 note=64 velocity=107 time=0
EXTRACT: note_on channel=8 note=67 velocity=90 time=0
EXTRACT: note_on channel=9 note=40 velocity=93 time=0
EXTRACT: note_on channel=9 note=42 velocity=99 time=0
EXTRACT: note_on channel=9 note=62 velocity=58 time=0
EXTRACT: note_on channel=9 note=39 velocity=93 time=0
EXTRACT: note_on channel=3 note=64 velocity=90 time=0.01153845
EXTRACT: note_on channel=3 note=72 velocity=94 time=0.01153845
EXTRACT: note_on channel=9 note=54 velocity=0 time=0.0846153
EXTRACT: note_on channel=9 note=54 velocity=13 time=0
EXTRACT: note_on channel=3 note=72 velocity=0 time=0.0076923
EXTRACT: note_on channel=3 note=64 velocity=0 time=0
EXTRACT: note_on channel=3 note=67 velocity=0 time=0
EXTRACT: note_on channel=9 note=40 velocity=0 time=0
EXTRACT: note_on channel=9 note=42 velocity=0 time=0
EXTRACT: note_on channel=9 note=62 velocity=0 time=0
EXTRACT: note_on channel=9 note=39 velocity=0 time=0
EXTRACT: note_on channel=9 note=54 velocity=0 time=0.1076922
EXTRACT: note_on channel=9 note=54 velocity=12 time=0
EXTRACT: note_on channel=1 note=36 velocity=0 time=0.0076923
EXTRACT: note_on channel=7 note=64 velocity=0 time=0
EXTRACT: note_on channel=8 note=67 velocity=0 time=0
EXTRACT: note_on channel=9 note=42 velocity=49 time=0
EXTRACT: note_on channel=9 note=64 velocity=70 time=0
EXTRACT: note_on channel=9 note=54 velocity=0 time=0.1076922
EXTRACT: note_on channel=9 note=54 velocity=13 time=0
EXTRACT: note_on channel=5 note=60 velocity=0 time=0.0076923
EXTRACT: note_on channel=9 note=42 velocity=0 time=0
EXTRACT: note_on channel=9 note=64 velocity=0 time=0
EXTRACT: note_on channel=9 note=54 velocity=0 time=0.1076922
EXTRACT: note_on channel=9 note=54 velocity=42 time=0
EXTRACT: note_on channel=1 note=36 velocity=104 time=0.0076923
EXTRACT: note_on channel=5 note=55 velocity=117 time=0
EXTRACT: note_on channel=7 note=60 velocity=110 time=0
EXTRACT: note_on channel=8 note=64 velocity=99 time=0
EXTRACT: note_on channel=9 note=36 velocity=88 time=0
EXTRACT: note_on channel=9 note=42 velocity=84 time=0
EXTRACT: note_on channel=9 note=54 velocity=0 time=0.1076922
EXTRACT: note_on channel=9 note=54 velocity=28 time=0
EXTRACT: note_on channel=9 note=36 velocity=0 time=0.0076923
EXTRACT: note_on channel=9 note=42 velocity=0 time=0
EXTRACT: note_on channel=9 note=54 velocity=0 time=0.1076922
EXTRACT: note_on channel=9 note=54 velocity=28 time=0
EXTRACT: note_on channel=1 note=36 velocity=0 time=0.0076923
EXTRACT: note_on channel=1 note=31 velocity=71 time=0
EXTRACT: note_on channel=3 note=72 velocity=83 time=0
EXTRACT: note_on channel=9 note=36 velocity=94 time=0
EXTRACT: note_on channel=9 note=42 velocity=53 time=0
EXTRACT: note_on channel=9 note=62 velocity=36 time=0
EXTRACT: note_on channel=3 note=64 velocity=85 time=0.01153845
EXTRACT: note_on channel=3 note=67 velocity=104 time=0.01153845
EXTRACT: note_on channel=9 note=54 velocity=0 time=0.0846153
EXTRACT: note_on channel=9 note=54 velocity=28 time=0
EXTRACT: note_on channel=3 note=67 velocity=0 time=0.0076923
EXTRACT: note_on channel=3 note=64 velocity=0 time=0
EXTRACT: note_on channel=3 note=72 velocity=0 time=0
EXTRACT: note_on channel=7 note=60 velocity=0 time=0
EXTRACT: note_on channel=9 note=36 velocity=0 time=0
EXTRACT: note_on channel=9 note=42 velocity=0 time=0
EXTRACT: note_on channel=9 note=62 velocity=0 time=0
EXTRACT: note_on channel=9 note=54 velocity=0 time=0.1076922
EXTRACT: note_on channel=9 note=54 velocity=41 time=0
EXTRACT: note_on channel=0 note=55 velocity=0 time=0.0076923
EXTRACT: note_on channel=1 note=31 velocity=0 time=0
EXTRACT: note_on channel=1 note=33 velocity=83 time=0
EXTRACT: note_on channel=5 note=55 velocity=0 time=0
EXTRACT: note_on channel=8 note=64 velocity=0 time=0
EXTRACT: note_on channel=9 note=40 velocity=93 time=0
EXTRACT: note_on channel=9 note=42 velocity=94 time=0
EXTRACT: note_on channel=9 note=62 velocity=52 time=0
EXTRACT: note_on channel=9 note=39 velocity=93 time=0
EXTRACT: note_on channel=9 note=54 velocity=0 time=0.1076922
EXTRACT: note_on channel=9 note=54 velocity=28 time=0
EXTRACT: note_on channel=0 note=52 velocity=0 time=0.0076923
EXTRACT: note_on channel=0 note=60 velocity=0 time=0
EXTRACT: note_on channel=9 note=40 velocity=0 time=0
EXTRACT: note_on channel=9 note=42 velocity=0 time=0
EXTRACT: note_on channel=9 note=62 velocity=0 time=0
EXTRACT: note_on channel=9 note=39 velocity=0 time=0
EXTRACT: note_on channel=9 note=54 velocity=0 time=0.1076922
EXTRACT: note_on channel=9 note=54 velocity=31 time=0
EXTRACT: note_on channel=0 note=53 velocity=78 time=0.0076923
EXTRACT: note_on channel=0 note=50 velocity=64 time=0
EXTRACT: note_on channel=0 note=58 velocity=68 time=0
EXTRACT: note_on channel=1 note=33 velocity=0 time=0
EXTRACT: note_on channel=1 note=34 velocity=104 time=0
EXTRACT: note_on channel=3 note=62 velocity=86 time=0
EXTRACT: note_on channel=5 note=58 velocity=109 time=0
EXTRACT: note_on channel=7 note=62 velocity=107 time=0
EXTRACT: note_on channel=8 note=65 velocity=104 time=0
EXTRACT: note_on channel=9 note=36 velocity=70 time=0
EXTRACT: note_on channel=9 note=42 velocity=38 time=0
EXTRACT: note_on channel=9 note=63 velocity=56 time=0
EXTRACT: note_on channel=3 note=65 velocity=92 time=0.01153845
EXTRACT: note_on channel=3 note=70 velocity=96 time=0.01153845
EXTRACT: note_on channel=9 note=54 velocity=0 time=0.0846153
EXTRACT: note_on channel=9 note=54 velocity=37 time=0
EXTRACT: note_on channel=9 note=36 velocity=0 time=0.0076923
EXTRACT: note_on channel=9 note=42 velocity=0 time=0
EXTRACT: note_on channel=9 note=63 velocity=0 time=0
EXTRACT: note_on channel=9 note=54 velocity=0 time=0.1076922
EXTRACT: note_on channel=9 note=54 velocity=41 time=0
EXTRACT: note_on channel=9 note=36 velocity=104 time=0.0076923
EXTRACT: note_on channel=9 note=42 velocity=94 time=0
EXTRACT: note_on channel=9 note=54 velocity=0 time=0.1076922
EXTRACT: note_on channel=9 note=54 velocity=10 time=0
EXTRACT: note_on channel=5 note=58 velocity=0 time=0.0076923
EXTRACT: note_on channel=7 note=62 velocity=0 time=0
EXTRACT: note_on channel=8 note=65 velocity=0 time=0
EXTRACT: note_on channel=9 note=36 velocity=0 time=0
EXTRACT: note_on channel=9 note=42 velocity=0 time=0
EXTRACT: note_on channel=9 note=54 velocity=0 time=0.1076922
EXTRACT: note_on channel=9 note=54 velocity=10 time=0
EXTRACT: note_on channel=1 note=34 velocity=0 time=0.0076923
EXTRACT: note_on channel=1 note=29 velocity=83 time=0
EXTRACT: note_on channel=5 note=58 velocity=114 time=0
EXTRACT: note_on channel=7 note=62 velocity=99 time=0
EXTRACT: note_on channel=8 note=65 velocity=88 time=0
EXTRACT: note_on channel=9 note=42 velocity=40 time=0
EXTRACT: note_on channel=9 note=62 velocity=46 time=0
EXTRACT: note_on channel=9 note=54 velocity=0 time=0.1076922
EXTRACT: note_on channel=9 note=54 velocity=11 time=0
EXTRACT: note_on channel=3 note=70 velocity=0 time=0.0076923
EXTRACT: note_on channel=3 note=62 velocity=0 time=0
EXTRACT: note_on channel=5 note=58 velocity=0 time=0
EXTRACT: note_on channel=7 note=62 velocity=0 time=0
EXTRACT: note_on channel=9 note=42 velocity=0 time=0
EXTRACT: note_on channel=9 note=62 velocity=0 time=0
EXTRACT: note_on channel=8 note=65 velocity=0 time=0.0384615
EXTRACT: note_on channel=4 note=79 velocity=0 time=0.04999995
EXTRACT: note_on channel=4 note=72 velocity=99 time=0.0153846
EXTRACT: note_on channel=9 note=54 velocity=0 time=0.00384615
EXTRACT: note_on channel=9 note=54 velocity=11 time=0
EXTRACT: note_on channel=1 note=29 velocity=0 time=0.0076923
EXTRACT: note_on channel=1 note=31 velocity=68 time=0
EXTRACT: note_on channel=3 note=65 velocity=0 time=0
EXTRACT: note_on channel=3 note=65 velocity=88 time=0
EXTRACT: note_on channel=5 note=58 velocity=109 time=0
EXTRACT: note_on channel=7 note=62 velocity=104 time=0
EXTRACT: note_on channel=8 note=65 velocity=94 time=0
EXTRACT: note_on channel=9 note=40 velocity=87 time=0
EXTRACT: note_on channel=9 note=42 velocity=94 time=0
EXTRACT: note_on channel=9 note=62 velocity=50 time=0
EXTRACT: note_on channel=9 note=39 velocity=87 time=0
EXTRACT: note_on channel=3 note=62 velocity=82 time=0.01153845
EXTRACT: note_on channel=3 note=70 velocity=100 time=0.01153845
EXTRACT: note_on channel=9 note=54 velocity=0 time=0.0846153
EXTRACT: note_on channel=9 note=54 velocity=11 time=0
EXTRACT: note_on channel=3 note=70 velocity=0 time=0.0076923
EXTRACT: note_on channel=3 note=62 velocity=0 time=0
EXTRACT: note_on channel=3 note=65 velocity=0 time=0
EXTRACT: note_on channel=9 note=40 velocity=0 time=0
EXTRACT: note_on channel=9 note=42 velocity=0 time=0
EXTRACT: note_on channel=9 note=62 velocity=0 time=0
EXTRACT: note_on channel=9 note=39 velocity=0 time=0
EXTRACT: note_on channel=9 note=54 velocity=0 time=0.1076922
EXTRACT: note_on channel=9 note=54 velocity=13 time=0
EXTRACT: note_on channel=1 note=31 velocity=0 time=0.0076923
EXTRACT: note_on channel=1 note=34 velocity=96 time=0
EXTRACT: note_on channel=5 note=58 velocity=0 time=0
EXTRACT: note_on channel=5 note=57 velocity=88 time=0
EXTRACT: note_on channel=7 note=62 velocity=0 time=0
EXTRACT: note_on channel=7 note=60 velocity=75 time=0
EXTRACT: note_on channel=8 note=65 velocity=0 time=0
EXTRACT: note_on channel=8 note=64 velocity=69 time=0
EXTRACT: note_on channel=9 note=42 velocity=34 time=0
EXTRACT: note_on channel=9 note=64 velocity=66 time=0
EXTRACT: note_on channel=9 note=54 velocity=0 time=0.1076922
EXTRACT: note_on channel=9 note=54 velocity=13 time=0
EXTRACT: note_on channel=8 note=64 velocity=0 time=0.0076923
EXTRACT: note_on channel=9 note=42 velocity=0 time=0
EXTRACT: note_on channel=9 note=64 velocity=0 time=0
EXTRACT: note_on channel=4 note=76 velocity=101 time=0.08846145
EXTRACT: note_on channel=9 note=54 velocity=0 time=0.01923075
EXTRACT: note_on channel=9 note=54 velocity=38 time=0
EXTRACT: note_on channel=5 note=57 velocity=0 time=0.0076923
EXTRACT: note_on channel=5 note=60 velocity=113 time=0
EXTRACT: note_on channel=7 note=60 velocity=0 time=0
EXTRACT: note_on channel=7 note=64 velocity=107 time=0
EXTRACT: note_on channel=8 note=67 velocity=99 time=0
EXTRACT: note_on channel=9 note=36 velocity=86 time=0
EXTRACT: note_on channel=9 note=42 velocity=94 time=0
EXTRACT: note_on channel=4 note=72 velocity=0 time=0.0076923
EXTRACT: note_on channel=9 note=54 velocity=0 time=0.0999999
EXTRACT: note_on channel=9 note=54 velocity=27 time=0
EXTRACT: note_on channel=9 note=36 velocity=0 time=0.0076923
EXTRACT: note_on channel=9 note=42 velocity=0 time=0
EXTRACT: note_on channel=9 note=54 velocity=0 time=0.1076922
EXTRACT: note_on channel=9 note=54 velocity=27 time=0
EXTRACT: note_on channel=1 note=34 velocity=0 time=0.0076923
EXTRACT: note_on channel=1 note=29 velocity=85 time=0
EXTRACT: note_on channel=3 note=65 velocity=94 time=0
EXTRACT: note_on channel=9 note=36 velocity=85 time=0
EXTRACT: note_on channel=9 note=42 velocity=31 time=0
EXTRACT: note_on channel=9 note=62 velocity=36 time=0
EXTRACT: note_on channel=3 note=62 velocity=90 time=0.01153845
EXTRACT: note_on channel=3 note=70 velocity=96 time=0.01153845
EXTRACT: note_on channel=9 note=54 velocity=0 time=0.0846153
EXTRACT: note_on channel=9 note=54 velocity=27 time=0
EXTRACT: note_on channel=3 note=70 velocity=0 time=0.0076923
EXTRACT: note_on channel=3 note=62 velocity=0 time=0
EXTRACT: note_on channel=3 note=65 velocity=0 time=0
EXTRACT: note_on channel=5 note=60 velocity=0 time=0
EXTRACT: note_on channel=7 note=64 velocity=0 time=0
EXTRACT: note_on channel=8 note=67 velocity=0 time=0
EXTRACT: note_on channel=9 note=36 velocity=0 time=0
EXTRACT: note_on channel=9 note=42 velocity=0 time=0
EXTRACT: note_on channel=9 note=62 velocity=0 time=0
EXTRACT: note_on channel=4 note=77 velocity=97 time=0.09615375
EXTRACT: note_on channel=4 note=76 velocity=0 time=0.0076923
EXTRACT: note_on channel=9 note=54 velocity=0 time=0.00384615
EXTRACT: note_on channel=9 note=54 velocity=36 time=0
EXTRACT: note_on channel=1 note=29 velocity=0 time=0.0076923
EXTRACT: note_on channel=1 note=31 velocity=71 time=0
EXTRACT: note_on channel=7 note=64 velocity=35 time=0
EXTRACT: note_on channel=9 note=40 velocity=87 time=0
EXTRACT: note_on channel=9 note=42 velocity=99 time=0
EXTRACT: note_on channel=9 note=62 velocity=50 time=0
EXTRACT: note_on channel=9 note=39 velocity=87 time=0
EXTRACT: note_on channel=9 note=54 velocity=0 time=0.1076922
EXTRACT: note_on channel=9 note=54 velocity=27 time=0
EXTRACT: note_on channel=7 note=64 velocity=0 time=0.0076923
EXTRACT: note_on channel=9 note=40 velocity=0 time=0
EXTRACT: note_on channel=9 note=42 velocity=0 time=0
EXTRACT: note_on channel=9 note=62 velocity=0 time=0
EXTRACT: note_on channel=9 note=39 velocity=0 time=0
EXTRACT: note_on channel=9 note=54 velocity=0 time=0.1076922
EXTRACT: note_on channel=9 note=54 velocity=28 time=0
EXTRACT: note_on channel=0 note=58 velocity=0 time=0.0076923
EXTRACT: note_on channel=0 note=53 velocity=0 time=0
EXTRACT: note_on channel=1 note=31 velocity=0 time=0
EXTRACT: note_on channel=1 note=34 velocity=92 time=0
EXTRACT: note_on channel=5 note=55 velocity=94 time=0
EXTRACT: note_on channel=7 note=60 velocity=97 time=0
EXTRACT: note_on channel=8 note=64 velocity=97 time=0
EXTRACT: note_on channel=9 note=36 velocity=71 time=0
EXTRACT: note_on channel=9 note=42 velocity=38 time=0
EXTRACT: note_on channel=9 note=63 velocity=58 time=0
EXTRACT: note_on channel=9 note=54 velocity=0 time=0.1076922
EXTRACT: note_on channel=9 note=54 velocity=38 time=0
EXTRACT: note_on channel=0 note=50 velocity=0 time=0.0076923
EXTRACT: note_on channel=8 note=64 velocity=0 time=0
EXTRACT: note_on channel=9 note=36 velocity=0 time=0
EXTRACT: note_on channel=9 note=42 velocity=0 time=0
EXTRACT: note_on channel=9 note=63 velocity=0 time=0
EXTRACT: note_on channel=5 note=55 velocity=0 time=0.076923
EXTRACT: note_on channel=9 note=54 velocity=0 time=0.0307692
EXTRACT: note_on channel=9 note=54 velocity=39 time=0
EXTRACT: note_on channel=0 note=52 velocity=62 time=0.0076923
EXTRACT: note_on channel=0 note=48 velocity=62 time=0
EXTRACT: note_on channel=0 note=57 velocity=67 time=0
EXTRACT: note_on channel=1 note=34 velocity=0 time=0
EXTRACT: note_on channel=1 note=33 velocity=85 time=0
EXTRACT: note_on channel=3 note=60 velocity=83 time=0
EXTRACT: note_on channel=5 note=57 velocity=109 time=0
EXTRACT: note_on channel=7 note=60 velocity=0 time=0
EXTRACT: note_on channel=7 note=62 velocity=97 time=0
EXTRACT: note_on channel=8 note=65 velocity=94 time=0
EXTRACT: note_on channel=9 note=36 velocity=101 time=0
EXTRACT: note_on channel=9 note=42 velocity=99 time=0
EXTRACT: note_on channel=3 note=69 velocity=75 time=0.01153845
EXTRACT: note_on channel=4 note=77 velocity=0 time=0
EXTRACT: note_on channel=4 note=81 velocity=88 time=0.00384615
EXTRACT: note_on channel=3 note=64 velocity=97 time=0.0076923
EXTRACT: note_on channel=9 note=54 velocity=0 time=0.0846153
EXTRACT: note_on channel=9 note=54 velocity=7 time=0
EXTRACT: note_on channel=9 note=36 velocity=0 time=0.0076923
EXTRACT: note_on channel=9 note=42 velocity=0 time=0
EXTRACT: note_on channel=9 note=54 velocity=0 time=0.1076922
EXTRACT: note_on channel=9 note=54 velocity=7 time=0
EXTRACT: note_on channel=1 note=33 velocity=0 time=0.0076923
EXTRACT: note_on channel=5 note=57 velocity=0 time=0
EXTRACT: note_on channel=7 note=62 velocity=0 time=0
EXTRACT: note_on channel=8 note=65 velocity=0 time=0
EXTRACT: note_on channel=9 note=42 velocity=27 time=0
EXTRACT: note_on channel=9 note=62 velocity=34 time=0
EXTRACT: note_on channel=9 note=54 velocity=0 time=0.1076922
EXTRACT: note_on channel=9 note=54 velocity=7 time=0
EXTRACT: note_on channel=9 note=42 velocity=0 time=0.0076923
EXTRACT: note_on channel=9 note=62 velocity=0 time=0
EXTRACT: note_on channel=9 note=54 velocity=0 time=0.1076922
EXTRACT: note_on channel=9 note=54 velocity=10 time=0
EXTRACT: note_on channel=1 note=33 velocity=90 time=0.0076923
EXTRACT: note_on channel=3 note=64 velocity=0 time=0
EXTRACT: note_on channel=3 note=69 velocity=0 time=0
EXTRACT: note_on channel=3 note=60 velocity=0 time=0
EXTRACT: note_on channel=3 note=60 velocity=88 time=0
EXTRACT: note_on channel=5 note=57 velocity=117 time=0
EXTRACT: note_on channel=7 note=62 velocity=101 time=0
EXTRACT: note_on channel=8 note=65 velocity=104 time=0
EXTRACT: note_on channel=9 note=40 velocity=93 time=0
EXTRACT: note_on channel=9 note=42 velocity=94 time=0
EXTRACT: note_on channel=9 note=62 velocity=46 time=0
EXTRACT: note_on channel=9 note=39 velocity=93 time=0
EXTRACT: note_on channel=3 note=69 velocity=85 time=0.01153845
EXTRACT: note_on channel=3 note=64 velocity=104 time=0.01153845
EXTRACT: note_on channel=9 note=54 velocity=0 time=0.0846153
EXTRACT: note_on channel=9 note=54 velocity=13 time=0
EXTRACT: note_on channel=3 note=64 velocity=0 time=0.0076923
EXTRACT: note_on channel=3 note=69 velocity=0 time=0
EXTRACT: note_on channel=3 note=60 velocity=0 time=0
EXTRACT: note_on channel=9 note=40 velocity=0 time=0
EXTRACT: note_on channel=9 note=42 velocity=0 time=0
EXTRACT: note_on channel=9 note=62 velocity=0 time=0
EXTRACT: note_on channel=9 note=39 velocity=0 time=0
EXTRACT: note_on channel=9 note=54 velocity=0 time=0.1076922
EXTRACT: note_on channel=9 note=54 velocity=12 time=0
EXTRACT: note_on channel=1 note=33 velocity=0 time=0.0076923
EXTRACT: note_on channel=5 note=57 velocity=0 time=0
EXTRACT: note_on channel=8 note=65 velocity=0 time=0
EXTRACT: note_on channel=9 note=42 velocity=23 time=0
EXTRACT: note_on channel=9 note=64 velocity=66 time=0
EXTRACT: note_on channel=9 note=54 velocity=0 time=0.1076922
EXTRACT: note_on channel=9 note=54 velocity=13 time=0
EXTRACT: note_on channel=7 note=62 velocity=0 time=0.0076923
EXTRACT: note_on channel=9 note=42 velocity=0 time=0
EXTRACT: note_on channel=9 note=64 velocity=0 time=0
EXTRACT: note_on channel=9 note=54 velocity=0 time=0.1076922
EXTRACT: note_on channel=9 note=54 velocity=42 time=0
EXTRACT: note_on channel=1 note=33 velocity=99 time=0.0076923
EXTRACT: note_on channel=5 note=57 velocity=117 time=0
EXTRACT: note_on channel=7 note=62 velocity=110 time=0
EXTRACT: note_on channel=8 note=65 velocity=101 time=0
EXTRACT: note_on channel=9 note=36 velocity=85 time=0
EXTRACT: note_on channel=9 note=42 velocity=99 time=0
EXTRACT: note_on channel=9 note=54 velocity=0 time=0.1076922
EXTRACT: note_on channel=9 note=54 velocity=28 time=0
EXTRACT: note_on channel=9 note=36 velocity=0 time=0.0076923
EXTRACT: note_on channel=9 note=42 velocity=0 time=0
EXTRACT: note_on channel=9 note=54 velocity=0 time=0.1076922
EXTRACT: note_on channel=9 note=54 velocity=28 time=0
EXTRACT: note_on channel=1 note=33 velocity=0 time=0.0076923
EXTRACT: note_on channel=1 note=29 velocity=76 time=0
EXTRACT: note_on channel=3 note=69 velocity=85 time=0
EXTRACT: note_on channel=5 note=57 velocity=0 time=0
EXTRACT: note_on channel=5 note=55 velocity=99 time=0
EXTRACT: note_on channel=7 note=62 velocity=0 time=0
EXTRACT: note_on channel=7 note=60 velocity=86 time=0
EXTRACT: note_on channel=8 note=65 velocity=0 time=0
EXTRACT: note_on channel=8 note=64 velocity=76 time=0
EXTRACT: note_on channel=9 note=36 velocity=83 time=0
EXTRACT: note_on channel=9 note=42 velocity=53 time=0
EXTRACT: note_on channel=9 note=62 velocity=37 time=0
EXTRACT: note_on channel=3 note=60 velocity=90 time=0.01153845
EXTRACT: note_on channel=3 note=64 velocity=104 time=0.01153845
EXTRACT: note_on channel=9 note=54 velocity=0 time=0.0846153
EXTRACT: note_on channel=9 note=54 velocity=28 time=0
EXTRACT: note_on channel=3 note=64 velocity=0 time=0.0076923
EXTRACT: note_on channel=3 note=60 velocity=0 time=0
EXTRACT: note_on channel=3 note=69 velocity=0 time=0
EXTRACT: note_on channel=9 note=36 velocity=0 time=0
EXTRACT: note_on channel=9 note=42 velocity=0 time=0
EXTRACT: note_on channel=9 note=62 velocity=0 time=0
EXTRACT: note_on channel=9 note=54 velocity=0 time=0.1076922
EXTRACT: note_on channel=9 note=54 velocity=41 time=0
EXTRACT: note_on channel=0 note=57 velocity=0 time=0.0076923
EXTRACT: note_on channel=1 note=29 velocity=0 time=0
EXTRACT: note_on channel=1 note=33 velocity=101 time=0
EXTRACT: note_on channel=5 note=55 velocity=0 time=0
EXTRACT: note_on channel=5 note=57 velocity=88 time=0
EXTRACT: note_on channel=7 note=60 velocity=0 time=0
EXTRACT: note_on channel=7 note=62 velocity=88 time=0
EXTRACT: note_on channel=8 note=64 velocity=0 time=0
EXTRACT: note_on channel=8 note=65 velocity=80 time=0
EXTRACT: note_on channel=9 note=40 velocity=100 time=0
EXTRACT: note_on channel=9 note=42 velocity=99 time=0
EXTRACT: note_on channel=9 note=62 velocity=43 time=0
EXTRACT: note_on channel=9 note=39 velocity=100 time=0
EXTRACT: note_on channel=9 note=54 velocity=0 time=0.1076922
EXTRACT: note_on channel=9 note=54 velocity=28 time=0
EXTRACT: note_on channel=0 note=48 velocity=0 time=0.0076923
EXTRACT: note_on channel=0 note=52 velocity=0 time=0
EXTRACT: note_on channel=9 note=40 velocity=0 time=0
EXTRACT: note_on channel=9 note=42 velocity=0 time=0
EXTRACT: note_on channel=9 note=62 velocity=0 time=0
EXTRACT: note_on channel=9 note=39 velocity=0 time=0
EXTRACT: note_on channel=4 note=79 velocity=97 time=0.04999995
EXTRACT: note_on channel=4 note=81 velocity=0 time=0.01923075
EXTRACT: note_on channel=9 note=54 velocity=0 time=0.0384615
EXTRACT: note_on channel=9 note=54 velocity=31 time=0
EXTRACT: note_on channel=0 note=50 velocity=72 time=0.0076923
EXTRACT: note_on channel=0 note=47 velocity=69 time=0
EXTRACT: note_on channel=0 note=55 velocity=68 time=0
EXTRACT: note_on channel=1 note=33 velocity=0 time=0
EXTRACT: note_on channel=1 note=31 velocity=86 time=0
EXTRACT: note_on channel=3 note=59 velocity=90 time=0
EXTRACT: note_on channel=5 note=57 velocity=0 time=0
EXTRACT: note_on channel=5 note=55 velocity=92 time=0
EXTRACT: note_on channel=7 note=62 velocity=0 time=0
EXTRACT: note_on channel=7 note=60 velocity=82 time=0
EXTRACT: note_on channel=8 note=65 velocity=0 time=0
EXTRACT: note_on channel=8 note=64 velocity=83 time=0
EXTRACT: note_on channel=9 note=36 velocity=71 time=0
EXTRACT: note_on channel=9 note=42 velocity=31 time=0
EXTRACT: note_on channel=9 note=63 velocity=58 time=0
EXTRACT: note_on channel=3 note=67 velocity=83 time=0.01153845
EXTRACT: note_on channel=3 note=62 velocity=104 time=0.01153845
EXTRACT: note_on channel=9 note=54 velocity=0 time=0.0846153
EXTRACT: note_on channel=9 note=54 velocity=37 time=0
EXTRACT: note_on channel=5 note=55 velocity=0 time=0.0076923
EXTRACT: note_on channel=9 note=36 velocity=0 time=0
EXTRACT: note_on channel=9 note=42 velocity=0 time=0
EXTRACT: note_on channel=9 note=63 velocity=0 time=0
EXTRACT: note_on channel=8 note=64 velocity=0 time=0.076923
EXTRACT: note_on channel=9 note=54 velocity=0 time=0.0307692
EXTRACT: note_on channel=9 note=54 velocity=41 time=0
EXTRACT: note_on channel=5 note=55 velocity=117 time=0.0076923
EXTRACT: note_on channel=7 note=60 velocity=0 time=0
EXTRACT: note_on channel=7 note=62 velocity=94 time=0
EXTRACT: note_on channel=8 note=65 velocity=86 time=0
EXTRACT: note_on channel=9 note=36 velocity=101 time=0
EXTRACT: note_on channel=9 note=42 velocity=99 time=0
EXTRACT: note_on channel=9 note=54 velocity=0 time=0.1076922
EXTRACT: note_on channel=9 note=54 velocity=10 time=0
EXTRACT: note_on channel=1 note=31 velocity=0 time=0.0076923
EXTRACT: note_on channel=9 note=36 velocity=0 time=0
EXTRACT: note_on channel=9 note=42 velocity=0 time=0
EXTRACT: note_on channel=9 note=54 velocity=0 time=0.1076922
EXTRACT: note_on channel=9 note=54 velocity=10 time=0
EXTRACT: note_on channel=1 note=31 velocity=94 time=0.0076923
EXTRACT: note_on channel=7 note=62 velocity=0 time=0
EXTRACT: note_on channel=8 note=65 velocity=0 time=0
EXTRACT: note_on channel=9 note=42 velocity=42 time=0
EXTRACT: note_on channel=9 note=62 velocity=38 time=0
EXTRACT: note_on channel=9 note=54 velocity=0 time=0.1076922
EXTRACT: note_on channel=9 note=54 velocity=11 time=0
EXTRACT: note_on channel=5 note=55 velocity=0 time=0.0076923
EXTRACT: note_on channel=9 note=42 velocity=0 time=0
EXTRACT: note_on channel=9 note=62 velocity=0 time=0
EXTRACT: note_on channel=9 note=54 velocity=0 time=0.1076922
EXTRACT: note_on channel=9 note=54 velocity=11 time=0
EXTRACT: note_on channel=1 note=31 velocity=0 time=0.0076923
EXTRACT: note_on channel=3 note=62 velocity=0 time=0
EXTRACT: note_on channel=3 note=67 velocity=0 time=0
EXTRACT: note_on channel=3 note=59 velocity=0 time=0
EXTRACT: note_on channel=3 note=59 velocity=94 time=0
EXTRACT: note_on channel=5 note=55 velocity=123 time=0
EXTRACT: note_on channel=7 note=62 velocity=110 time=0
EXTRACT: note_on channel=8 note=65 velocity=94 time=0
EXTRACT: note_on channel=9 note=40 velocity=93 time=0
EXTRACT: note_on channel=9 note=42 velocity=99 time=0
EXTRACT: note_on channel=9 note=62 velocity=49 time=0
EXTRACT: note_on channel=9 note=39 velocity=93 time=0
EXTRACT: note_on channel=3 note=67 velocity=90 time=0.01153845
EXTRACT: note_on channel=3 note=62 velocity=110 time=0.01153845
EXTRACT: note_on channel=9 note=54 velocity=0 time=0.0846153
EXTRACT: note_on channel=9 note=54 velocity=11 time=0
EXTRACT: note_on channel=3 note=62 velocity=0 time=0.0076923
EXTRACT: note_on channel=3 note=67 velocity=0 time=0
EXTRACT: note_on channel=3 note=59 velocity=0 time=0
EXTRACT: note_on channel=9 note=40 velocity=0 time=0
EXTRACT: note_on channel=9 note=42 velocity=0 time=0
EXTRACT: note_on channel=9 note=62 velocity=0 time=0
EXTRACT: note_on channel=9 note=39 velocity=0 time=0
EXTRACT: note_on channel=9 note=54 velocity=0 time=0.1076922
EXTRACT: note_on channel=9 note=54 velocity=13 time=0
EXTRACT: note_on channel=1 note=31 velocity=99 time=0.0076923
EXTRACT: note_on channel=7 note=62 velocity=0 time=0
EXTRACT: note_on channel=8 note=65 velocity=0 time=0
EXTRACT: note_on channel=9 note=42 velocity=46 time=0
EXTRACT: note_on channel=9 note=64 velocity=70 time=0
EXTRACT: note_on channel=6 note=43 velocity=110 time=0.0076923
EXTRACT: note_on channel=6 note=67 velocity=110 time=0.00384615
EXTRACT: note_on channel=9 note=54 velocity=0 time=0.09615375
EXTRACT: note_on channel=9 note=54 velocity=13 time=0
EXTRACT: note_on channel=5 note=55 velocity=0 time=0.0076923
EXTRACT: note_on channel=9 note=42 velocity=0 time=0
EXTRACT: note_on channel=9 note=64 velocity=0 time=0
EXTRACT: note_on channel=9 note=54 velocity=0 time=0.1076922
EXTRACT: note_on channel=9 note=54 velocity=38 time=0
EXTRACT: note_on channel=5 note=55 velocity=123 time=0.0076923
EXTRACT: note_on channel=7 note=64 velocity=107 time=0
EXTRACT: note_on channel=8 note=67 velocity=99 time=0
EXTRACT: note_on channel=9 note=36 velocity=94 time=0
EXTRACT: note_on channel=9 note=42 velocity=94 time=0
EXTRACT: note_on channel=9 note=54 velocity=0 time=0.1076922
EXTRACT: note_on channel=9 note=54 velocity=27 time=0
EXTRACT: note_on channel=9 note=36 velocity=0 time=0.0076923
EXTRACT: note_on channel=9 note=42 velocity=0 time=0
EXTRACT: note_on channel=9 note=54 velocity=0 time=0.1076922
EXTRACT: note_on channel=9 note=54 velocity=27 time=0
EXTRACT: note_on channel=1 note=31 velocity=0 time=0.0076923
EXTRACT: note_on channel=1 note=33 velocity=85 time=0
EXTRACT: note_on channel=3 note=67 velocity=92 time=0
EXTRACT: note_on channel=6 note=43 velocity=0 time=0
EXTRACT: note_on channel=6 note=45 velocity=101 time=0
EXTRACT: note_on channel=9 note=36 velocity=88 time=0
EXTRACT: note_on channel=9 note=42 velocity=46 time=0
EXTRACT: note_on channel=9 note=62 velocity=48 time=0
EXTRACT: note_on channel=3 note=59 velocity=97 time=0.01153845
EXTRACT: note_on channel=6 note=69 velocity=107 time=0
EXTRACT: note_on channel=3 note=62 velocity=107 time=0.01153845
EXTRACT: note_on channel=6 note=67 velocity=0 time=0
EXTRACT: note_on channel=9 note=42 velocity=0 time=0.03461535
EXTRACT: note_on channel=9 note=54 velocity=0 time=0.04999995
EXTRACT: note_on channel=9 note=54 velocity=27 time=0
EXTRACT: note_on channel=3 note=62 velocity=0 time=0.0076923
EXTRACT: note_on channel=3 note=59 velocity=0 time=0
EXTRACT: note_on channel=3 note=67 velocity=0 time=0
EXTRACT: note_on channel=9 note=36 velocity=0 time=0
EXTRACT: note_on channel=9 note=62 velocity=0 time=0
EXTRACT: note_on channel=9 note=54 velocity=0 time=0.1076922
EXTRACT: note_on channel=9 note=54 velocity=36 time=0
EXTRACT: note_on channel=1 note=33 velocity=0 time=0.0076923
EXTRACT: note_on channel=1 note=36 velocity=74 time=0
EXTRACT: note_on channel=5 note=55 velocity=0 time=0
EXTRACT: note_on channel=5 note=53 velocity=107 time=0
EXTRACT: note_on channel=7 note=64 velocity=0 time=0
EXTRACT: note_on channel=7 note=62 velocity=86 time=0
EXTRACT: note_on channel=8 note=67 velocity=0 time=0
EXTRACT: note_on channel=8 note=65 velocity=79 time=0
EXTRACT: note_on channel=9 note=40 velocity=93 time=0
EXTRACT: note_on channel=9 note=42 velocity=89 time=0
EXTRACT: note_on channel=9 note=62 velocity=52 time=0
EXTRACT: note_on channel=9 note=39 velocity=93 time=0
EXTRACT: note_on channel=6 note=48 velocity=107 time=0.00384615
EXTRACT: note_on channel=6 note=45 velocity=0 time=0.00384615
EXTRACT: note_on channel=6 note=72 velocity=107 time=0.01153845
EXTRACT: note_on channel=6 note=69 velocity=0 time=0.01153845
EXTRACT: note_on channel=9 note=54 velocity=0 time=0.076923
EXTRACT: note_on channel=9 note=54 velocity=27 time=0
EXTRACT: note_on channel=5 note=53 velocity=0 time=0.0076923
EXTRACT: note_on channel=9 note=40 velocity=0 time=0
EXTRACT: note_on channel=9 note=42 velocity=0 time=0
EXTRACT: note_on channel=9 note=62 velocity=0 time=0
EXTRACT: note_on channel=9 note=39 velocity=0 time=0
EXTRACT: note_on channel=7 note=62 velocity=0 time=0.076923
EXTRACT: note_on channel=6 note=45 velocity=101 time=0.02692305
EXTRACT: note_on channel=9 note=54 velocity=0 time=0.00384615
EXTRACT: note_on channel=9 note=54 velocity=28 time=0
EXTRACT: note_on channel=6 note=69 velocity=99 time=0.00384615
EXTRACT: note_on channel=0 note=47 velocity=0 time=0.00384615
EXTRACT: note_on channel=1 note=36 velocity=0 time=0
EXTRACT: note_on channel=1 note=33 velocity=72 time=0
EXTRACT: note_on channel=5 note=52 velocity=99 time=0
EXTRACT: note_on channel=6 note=72 velocity=0 time=0
EXTRACT: note_on channel=7 note=60 velocity=97 time=0
EXTRACT: note_on channel=8 note=65 velocity=0 time=0
EXTRACT: note_on channel=8 note=64 velocity=90 time=0
EXTRACT: note_on channel=9 note=36 velocity=71 time=0
EXTRACT: note_on channel=9 note=42 velocity=51 time=0
EXTRACT: note_on channel=9 note=63 velocity=67 time=0
EXTRACT: note_on channel=6 note=48 velocity=0 time=0.00384615
EXTRACT: note_on channel=9 note=54 velocity=0 time=0.10384605
EXTRACT: note_on channel=9 note=54 velocity=38 time=0
EXTRACT: note_on channel=0 note=55 velocity=0 time=0.0076923
EXTRACT: note_on channel=0 note=50 velocity=0 time=0
EXTRACT: note_on channel=9 note=36 velocity=0 time=0
EXTRACT: note_on channel=9 note=42 velocity=0 time=0
EXTRACT: note_on channel=9 note=63 velocity=0 time=0
EXTRACT: note_on channel=6 note=48 velocity=117 time=0.1076922
EXTRACT: note_on channel=6 note=72 velocity=113 time=0
EXTRACT: note_on channel=9 note=54 velocity=0 time=0
EXTRACT: note_on channel=9 note=54 velocity=39 time=0
EXTRACT: note_on channel=0 note=55 velocity=72 time=0.0076923
EXTRACT: note_on channel=0 note=52 velocity=66 time=0
EXTRACT: note_on channel=0 note=60 velocity=67 time=0
EXTRACT: note_on channel=1 note=33 velocity=0 time=0
EXTRACT: note_on channel=1 note=36 velocity=107 time=0
EXTRACT: note_on channel=3 note=64 velocity=88 time=0
EXTRACT: note_on channel=5 note=52 velocity=0 time=0
EXTRACT: note_on channel=6 note=69 velocity=0 time=0
EXTRACT: note_on channel=7 note=60 velocity=0 time=0
EXTRACT: note_on channel=8 note=64 velocity=0 time=0
EXTRACT: note_on channel=9 note=36 velocity=97 time=0
EXTRACT: note_on channel=9 note=42 velocity=99 time=0
EXTRACT: note_on channel=9 note=63 velocity=50 time=0
EXTRACT: note_on channel=3 note=72 velocity=78 time=0.01153845
EXTRACT: note_on channel=6 note=45 velocity=0 time=0.00384615
EXTRACT: note_on channel=3 note=67 velocity=104 time=0.0076923
EXTRACT: note_on channel=9 note=54 velocity=0 time=0.0846153
EXTRACT: note_on channel=9 note=54 velocity=7 time=0
EXTRACT: note_on channel=9 note=36 velocity=0 time=0.0076923
EXTRACT: note_on channel=9 note=42 velocity=0 time=0
EXTRACT: note_on channel=9 note=63 velocity=0 time=0
EXTRACT: note_on channel=6 note=72 velocity=0 time=0.04999995
EXTRACT: note_on channel=6 note=48 velocity=0 time=0.05769225
EXTRACT: note_on channel=9 note=54 velocity=0 time=0
EXTRACT: note_on channel=9 note=54 velocity=7 time=0
EXTRACT: note_on channel=1 note=36 velocity=0 time=0.0076923
EXTRACT: note_on channel=9 note=42 velocity=32 time=0
EXTRACT: note_on channel=9 note=62 velocity=56 time=0
EXTRACT: note_on channel=9 note=54 velocity=0 time=0.1076922
EXTRACT: note_on channel=9 note=54 velocity=7 time=0
EXTRACT: note_on channel=3 note=67 velocity=0 time=0.0076923
EXTRACT: note_on channel=3 note=72 velocity=0 time=0
EXTRACT: note_on channel=3 note=64 velocity=0 time=0
EXTRACT: note_on channel=9 note=42 velocity=0 time=0
EXTRACT: note_on channel=9 note=62 velocity=0 time=0
EXTRACT: note_on channel=9 note=54 velocity=0 time=0.1076922
EXTRACT: note_on channel=9 note=54 velocity=10 time=0
EXTRACT: note_on channel=1 note=36 velocity=110 time=0.0076923
EXTRACT: note_on channel=3 note=64 velocity=88 time=0
EXTRACT: note_on channel=5 note=64 velocity=117 time=0
EXTRACT: note_on channel=7 note=67 velocity=99 time=0
EXTRACT: note_on channel=8 note=72 velocity=99 time=0
EXTRACT: note_on channel=9 note=40 velocity=93 time=0
EXTRACT: note_on channel=9 note=42 velocity=99 time=0
EXTRACT: note_on channel=9 note=62 velocity=58 time=0
EXTRACT: note_on channel=9 note=39 velocity=93 time=0
EXTRACT: note_on channel=3 note=67 velocity=104 time=0.01153845
EXTRACT: note_on channel=3 note=72 velocity=94 time=0.01153845
EXTRACT: note_on channel=9 note=54 velocity=0 time=0.0846153
EXTRACT: note_on channel=9 note=54 velocity=13 time=0
EXTRACT: note_on channel=3 note=72 velocity=0 time=0.0076923
EXTRACT: note_on channel=3 note=67 velocity=0 time=0
EXTRACT: note_on channel=3 note=64 velocity=0 time=0
EXTRACT: note_on channel=9 note=40 velocity=0 time=0
EXTRACT: note_on channel=9 note=42 velocity=0 time=0
EXTRACT: note_on channel=9 note=62 velocity=0 time=0
EXTRACT: note_on channel=9 note=39 velocity=0 time=0
EXTRACT: note_on channel=9 note=54 velocity=0 time=0.1076922
EXTRACT: note_on channel=9 note=54 velocity=12 time=0
EXTRACT: note_on channel=1 note=36 velocity=0 time=0.0076923
EXTRACT: note_on channel=9 note=42 velocity=49 time=0
EXTRACT: note_on channel=9 note=64 velocity=70 time=0
EXTRACT: note_on channel=9 note=54 velocity=0 time=0.1076922
EXTRACT: note_on channel=9 note=54 velocity=13 time=0
EXTRACT: note_on channel=8 note=72 velocity=0 time=0.0076923
EXTRACT: note_on channel=9 note=42 velocity=0 time=0
EXTRACT: note_on channel=9 note=64 velocity=0 time=0
EXTRACT: note_on channel=9 note=54 velocity=0 time=0.1076922
EXTRACT: note_on channel=9 note=54 velocity=42 time=0
EXTRACT: note_on channel=1 note=36 velocity=104 time=0.0076923
EXTRACT: note_on channel=5 note=64 velocity=0 time=0
EXTRACT: note_on channel=5 note=60 velocity=107 time=0
EXTRACT: note_on channel=7 note=67 velocity=0 time=0
EXTRACT: note_on channel=7 note=64 velocity=99 time=0
EXTRACT: note_on channel=8 note=67 velocity=88 time=0
EXTRACT: note_on channel=9 note=36 velocity=88 time=0
EXTRACT: note_on channel=9 note=42 velocity=84 time=0
EXTRACT: note_on channel=9 note=54 velocity=0 time=0.1076922
EXTRACT: note_on channel=9 note=54 velocity=28 time=0
EXTRACT: note_on channel=9 note=36 velocity=0 time=0.0076923
EXTRACT: note_on channel=9 note=42 velocity=0 time=0
EXTRACT: note_on channel=9 note=54 velocity=0 time=0.1076922
EXTRACT: note_on channel=9 note=54 velocity=28 time=0
EXTRACT: note_on channel=1 note=36 velocity=0 time=0.0076923
EXTRACT: note_on channel=1 note=31 velocity=71 time=0
EXTRACT: note_on channel=3 note=72 velocity=86 time=0
EXTRACT: note_on channel=9 note=36 velocity=94 time=0
EXTRACT: note_on channel=9 note=42 velocity=53 time=0
EXTRACT: note_on channel=9 note=62 velocity=36 time=0
EXTRACT: note_on channel=3 note=64 velocity=86 time=0.01153845
EXTRACT: note_on channel=3 note=67 velocity=104 time=0.01153845
EXTRACT: note_on channel=9 note=54 velocity=0 time=0.0846153
EXTRACT: note_on channel=9 note=54 velocity=28 time=0
EXTRACT: note_on channel=3 note=67 velocity=0 time=0.0076923
EXTRACT: note_on channel=3 note=64 velocity=0 time=0
EXTRACT: note_on channel=3 note=72 velocity=0 time=0
EXTRACT: note_on channel=9 note=36 velocity=0 time=0
EXTRACT: note_on channel=9 note=42 velocity=0 time=0
EXTRACT: note_on channel=9 note=62 velocity=0 time=0
EXTRACT: note_on channel=9 note=54 velocity=0 time=0.1076922
EXTRACT: note_on channel=9 note=54 velocity=41 time=0
EXTRACT: note_on channel=0 note=55 velocity=0 time=0.0076923
EXTRACT: note_on channel=1 note=31 velocity=0 time=0
EXTRACT: note_on channel=1 note=33 velocity=83 time=0
EXTRACT: note_on channel=5 note=60 velocity=0 time=0
EXTRACT: note_on channel=7 note=64 velocity=0 time=0
EXTRACT: note_on channel=8 note=67 velocity=0 time=0
EXTRACT: note_on channel=9 note=40 velocity=93 time=0
EXTRACT: note_on channel=9 note=42 velocity=94 time=0
EXTRACT: note_on channel=9 note=62 velocity=52 time=0
EXTRACT: note_on channel=9 note=39 velocity=93 time=0
EXTRACT: note_on channel=9 note=54 velocity=0 time=0.1076922
EXTRACT: note_on channel=9 note=54 velocity=28 time=0
EXTRACT: note_on channel=0 note=60 velocity=0 time=0.0076923
EXTRACT: note_on channel=0 note=52 velocity=0 time=0
EXTRACT: note_on channel=9 note=40 velocity=0 time=0
EXTRACT: note_on channel=9 note=42 velocity=0 time=0
EXTRACT: note_on channel=9 note=62 velocity=0 time=0
EXTRACT: note_on channel=9 note=39 velocity=0 time=0
EXTRACT: note_on channel=9 note=54 velocity=0 time=0.1076922
EXTRACT: note_on channel=9 note=54 velocity=31 time=0
EXTRACT: note_on channel=0 note=53 velocity=78 time=0.0076923
EXTRACT: note_on channel=0 note=50 velocity=64 time=0
EXTRACT: note_on channel=0 note=58 velocity=68 time=0
EXTRACT: note_on channel=1 note=33 velocity=0 time=0
EXTRACT: note_on channel=1 note=34 velocity=104 time=0
EXTRACT: note_on channel=3 note=62 velocity=86 time=0
EXTRACT: note_on channel=5 note=58 velocity=114 time=0
EXTRACT: note_on channel=7 note=62 velocity=110 time=0
EXTRACT: note_on channel=8 note=65 velocity=101 time=0
EXTRACT: note_on channel=9 note=36 velocity=70 time=0
EXTRACT: note_on channel=9 note=42 velocity=38 time=0
EXTRACT: note_on channel=9 note=63 velocity=56 time=0
EXTRACT: note_on channel=3 note=65 velocity=94 time=0.01153845
EXTRACT: note_on channel=3 note=70 velocity=92 time=0.01153845
EXTRACT: note_on channel=9 note=54 velocity=0 time=0.0846153
EXTRACT: note_on channel=9 note=54 velocity=37 time=0
EXTRACT: note_on channel=9 note=36 velocity=0 time=0.0076923
EXTRACT: note_on channel=9 note=42 velocity=0 time=0
EXTRACT: note_on channel=9 note=63 velocity=0 time=0
EXTRACT: note_on channel=9 note=54 velocity=0 time=0.1076922
EXTRACT: note_on channel=9 note=54 velocity=41 time=0
EXTRACT: note_on channel=9 note=36 velocity=104 time=0.0076923
EXTRACT: note_on channel=9 note=42 velocity=94 time=0
EXTRACT: note_on channel=9 note=54 velocity=0 time=0.1076922
EXTRACT: note_on channel=9 note=54 velocity=10 time=0
EXTRACT: note_on channel=9 note=36 velocity=0 time=0.0076923
EXTRACT: note_on channel=9 note=42 velocity=0 time=0
EXTRACT: note_on channel=8 note=65 velocity=0 time=0.0384615
EXTRACT: note_on channel=9 note=54 velocity=0 time=0.0692307
EXTRACT: note_on channel=9 note=54 velocity=10 time=0
EXTRACT: note_on channel=1 note=34 velocity=0 time=0.0076923
EXTRACT: note_on channel=1 note=29 velocity=83 time=0
EXTRACT: note_on channel=5 note=58 velocity=0 time=0
EXTRACT: note_on channel=5 note=57 velocity=104 time=0
EXTRACT: note_on channel=7 note=62 velocity=0 time=0
EXTRACT: note_on channel=7 note=60 velocity=88 time=0
EXTRACT: note_on channel=8 note=65 velocity=88 time=0
EXTRACT: note_on channel=9 note=42 velocity=40 time=0
EXTRACT: note_on channel=9 note=62 velocity=46 time=0
EXTRACT: note_on channel=9 note=54 velocity=0 time=0.1076922
EXTRACT: note_on channel=9 note=54 velocity=11 time=0
EXTRACT: note_on channel=3 note=70 velocity=0 time=0.0076923
EXTRACT: note_on channel=3 note=65 velocity=0 time=0
EXTRACT: note_on channel=3 note=62 velocity=0 time=0
EXTRACT: note_on channel=9 note=42 velocity=0 time=0
EXTRACT: note_on channel=9 note=62 velocity=0 time=0
EXTRACT: note_on channel=8 note=65 velocity=0 time=0.0384615
EXTRACT: note_on channel=4 note=79 velocity=0 time=0.0461538
EXTRACT: note_on channel=4 note=72 velocity=99 time=0
EXTRACT: note_on channel=9 note=54 velocity=0 time=0.0230769
EXTRACT: note_on channel=9 note=54 velocity=11 time=0
EXTRACT: note_on channel=1 note=29 velocity=0 time=0.0076923
EXTRACT: note_on channel=1 note=31 velocity=68 time=0
EXTRACT: note_on channel=3 note=65 velocity=94 time=0
EXTRACT: note_on channel=5 note=57 velocity=0 time=0
EXTRACT: note_on channel=5 note=58 velocity=109 time=0
EXTRACT: note_on channel=7 note=60 velocity=0 time=0
EXTRACT: note_on channel=7 note=62 velocity=94 time=0
EXTRACT: note_on channel=8 note=65 velocity=90 time=0
EXTRACT: note_on channel=9 note=40 velocity=87 time=0
EXTRACT: note_on channel=9 note=42 velocity=94 time=0
EXTRACT: note_on channel=9 note=62 velocity=50 time=0
EXTRACT: note_on channel=9 note=39 velocity=87 time=0
EXTRACT: note_on channel=3 note=62 velocity=85 time=0.01153845
EXTRACT: note_on channel=3 note=70 velocity=104 time=0.01153845
EXTRACT: note_on channel=9 note=54 velocity=0 time=0.0846153
EXTRACT: note_on channel=9 note=54 velocity=11 time=0
EXTRACT: note_on channel=3 note=70 velocity=0 time=0.0076923
EXTRACT: note_on channel=3 note=62 velocity=0 time=0
EXTRACT: note_on channel=3 note=65 velocity=0 time=0
EXTRACT: note_on channel=9 note=40 velocity=0 time=0
EXTRACT: note_on channel=9 note=42 velocity=0 time=0
EXTRACT: note_on channel=9 note=62 velocity=0 time=0
EXTRACT: note_on channel=9 note=39 velocity=0 time=0
EXTRACT: note_on channel=9 note=54 velocity=0 time=0.1076922
EXTRACT: note_on channel=9 note=54 velocity=13 time=0
EXTRACT: note_on channel=1 note=31 velocity=0 time=0.0076923
EXTRACT: note_on channel=1 note=34 velocity=96 time=0
EXTRACT: note_on channel=5 note=58 velocity=0 time=0
EXTRACT: note_on channel=5 note=57 velocity=92 time=0
EXTRACT: note_on channel=7 note=62 velocity=0 time=0
EXTRACT: note_on channel=7 note=60 velocity=85 time=0
EXTRACT: note_on channel=8 note=65 velocity=0 time=0
EXTRACT: note_on channel=8 note=64 velocity=80 time=0
EXTRACT: note_on channel=9 note=42 velocity=34 time=0
EXTRACT: note_on channel=9 note=64 velocity=66 time=0
EXTRACT: note_on channel=9 note=54 velocity=0 time=0.1076922
EXTRACT: note_on channel=9 note=54 velocity=13 time=0
EXTRACT: note_on channel=9 note=42 velocity=0 time=0.0076923
EXTRACT: note_on channel=9 note=64 velocity=0 time=0
EXTRACT: note_on channel=4 note=76 velocity=80 time=0.08076915
EXTRACT: note_on channel=9 note=54 velocity=0 time=0.02692305
EXTRACT: note_on channel=9 note=54 velocity=38 time=0
EXTRACT: note_on channel=4 note=72 velocity=0 time=0.0076923
EXTRACT: note_on channel=5 note=57 velocity=0 time=0
EXTRACT: note_on channel=5 note=60 velocity=117 time=0
EXTRACT: note_on channel=7 note=60 velocity=0 time=0
EXTRACT: note_on channel=7 note=64 velocity=104 time=0
EXTRACT: note_on channel=8 note=64 velocity=0 time=0
EXTRACT: note_on channel=8 note=67 velocity=101 time=0
EXTRACT: note_on channel=9 note=36 velocity=86 time=0
EXTRACT: note_on channel=9 note=42 velocity=94 time=0
EXTRACT: note_on channel=9 note=54 velocity=0 time=0.1076922
EXTRACT: note_on channel=9 note=54 velocity=27 time=0
EXTRACT: note_on channel=9 note=36 velocity=0 time=0.0076923
EXTRACT: note_on channel=9 note=42 velocity=0 time=0
EXTRACT: note_on channel=9 note=54 velocity=0 time=0.1076922
EXTRACT: note_on channel=9 note=54 velocity=27 time=0
EXTRACT: note_on channel=1 note=34 velocity=0 time=0.0076923
EXTRACT: note_on channel=1 note=29 velocity=85 time=0
EXTRACT: note_on channel=3 note=62 velocity=90 time=0
EXTRACT: note_on channel=9 note=36 velocity=85 time=0
EXTRACT: note_on channel=9 note=42 velocity=31 time=0
EXTRACT: note_on channel=9 note=62 velocity=36 time=0
EXTRACT: note_on channel=3 note=65 velocity=101 time=0.01153845
EXTRACT: note_on channel=3 note=70 velocity=96 time=0.01153845
EXTRACT: note_on channel=9 note=54 velocity=0 time=0.0846153
EXTRACT: note_on channel=9 note=54 velocity=27 time=0
EXTRACT: note_on channel=3 note=70 velocity=0 time=0.0076923
EXTRACT: note_on channel=3 note=65 velocity=0 time=0
EXTRACT: note_on channel=3 note=62 velocity=0 time=0
EXTRACT: note_on channel=5 note=60 velocity=0 time=0
EXTRACT: note_on channel=7 note=64 velocity=0 time=0
EXTRACT: note_on channel=8 note=67 velocity=0 time=0
EXTRACT: note_on channel=9 note=36 velocity=0 time=0
EXTRACT: note_on channel=9 note=42 velocity=0 time=0
EXTRACT: note_on channel=9 note=62 velocity=0 time=0
EXTRACT: note_on channel=4 note=77 velocity=90 time=0.0923076
EXTRACT: note_on channel=9 note=54 velocity=0 time=0.0153846
EXTRACT: note_on channel=9 note=54 velocity=36 time=0
EXTRACT: note_on channel=1 note=29 velocity=0 time=0.0076923
EXTRACT: note_on channel=1 note=31 velocity=71 time=0
EXTRACT: note_on channel=5 note=53 velocity=74 time=0
EXTRACT: note_on channel=7 note=57 velocity=90 time=0
EXTRACT: note_on channel=8 note=60 velocity=88 time=0
EXTRACT: note_on channel=9 note=40 velocity=87 time=0
EXTRACT: note_on channel=9 note=42 velocity=99 time=0
EXTRACT: note_on channel=9 note=62 velocity=50 time=0
EXTRACT: note_on channel=9 note=39 velocity=87 time=0
EXTRACT: note_on channel=4 note=76 velocity=0 time=0.0153846
EXTRACT: note_on channel=9 note=54 velocity=0 time=0.0923076
EXTRACT: note_on channel=9 note=54 velocity=27 time=0
EXTRACT: note_on channel=9 note=40 velocity=0 time=0.0076923
EXTRACT: note_on channel=9 note=42 velocity=0 time=0
EXTRACT: note_on channel=9 note=62 velocity=0 time=0
EXTRACT: note_on channel=9 note=39 velocity=0 time=0
EXTRACT: note_on channel=9 note=54 velocity=0 time=0.1076922
EXTRACT: note_on channel=9 note=54 velocity=28 time=0
EXTRACT: note_on channel=0 note=58 velocity=0 time=0.0076923
EXTRACT: note_on channel=0 note=53 velocity=0 time=0
EXTRACT: note_on channel=1 note=31 velocity=0 time=0
EXTRACT: note_on channel=1 note=34 velocity=92 time=0
EXTRACT: note_on channel=5 note=53 velocity=0 time=0
EXTRACT: note_on channel=5 note=55 velocity=90 time=0
EXTRACT: note_on channel=7 note=57 velocity=0 time=0
EXTRACT: note_on channel=7 note=60 velocity=85 time=0
EXTRACT: note_on channel=8 note=60 velocity=0 time=0
EXTRACT: note_on channel=8 note=64 velocity=70 time=0
EXTRACT: note_on channel=9 note=36 velocity=71 time=0
EXTRACT: note_on channel=9 note=42 velocity=38 time=0
EXTRACT: note_on channel=9 note=63 velocity=58 time=0
EXTRACT: note_on channel=9 note=54 velocity=0 time=0.1076922
EXTRACT: note_on channel=9 note=54 velocity=38 time=0
EXTRACT: note_on channel=0 note=50 velocity=0 time=0.0076923
EXTRACT: note_on channel=9 note=36 velocity=0 time=0
EXTRACT: note_on channel=9 note=42 velocity=0 time=0
EXTRACT: note_on channel=9 note=63 velocity=0 time=0
EXTRACT: note_on channel=9 note=54 velocity=0 time=0.1076922
EXTRACT: note_on channel=9 note=54 velocity=39 time=0
EXTRACT: note_on channel=4 note=81 velocity=83 time=0.00384615
EXTRACT: note_on channel=0 note=52 velocity=62 time=0.00384615
EXTRACT: note_on channel=0 note=48 velocity=62 time=0
EXTRACT: note_on channel=0 note=57 velocity=67 time=0
EXTRACT: note_on channel=1 note=34 velocity=0 time=0
EXTRACT: note_on channel=1 note=33 velocity=85 time=0
EXTRACT: note_on channel=3 note=60 velocity=86 time=0
EXTRACT: note_on channel=4 note=77 velocity=0 time=0
EXTRACT: note_on channel=5 note=55 velocity=0 time=0
EXTRACT: note_on channel=5 note=57 velocity=88 time=0
EXTRACT: note_on channel=7 note=60 velocity=0 time=0
EXTRACT: note_on channel=7 note=62 velocity=83 time=0
EXTRACT: note_on channel=8 note=64 velocity=0 time=0
EXTRACT: note_on channel=8 note=65 velocity=80 time=0
EXTRACT: note_on channel=9 note=36 velocity=101 time=0
EXTRACT: note_on channel=9 note=42 velocity=99 time=0
EXTRACT: control_change channel=10 control=1 value=0 time=0
EXTRACT: control_change channel=11 control=1 value=0 time=0
EXTRACT: control_change channel=10 control=10 value=64 time=0.00384615
EXTRACT: control_change channel=11 control=10 value=64 time=0
EXTRACT: control_change channel=10 control=11 value=127 time=0.00384615
EXTRACT: control_change channel=11 control=11 value=127 time=0
EXTRACT: note_on channel=3 note=69 velocity=85 time=0.00384615
EXTRACT: control_change channel=10 control=91 value=64 time=0
EXTRACT: control_change channel=11 control=91 value=64 time=0
EXTRACT: control_change channel=10 control=93 value=64 time=0.00384615
EXTRACT: control_change channel=11 control=93 value=64 time=0
EXTRACT: control_change channel=10 control=7 value=100 time=0.00384615
EXTRACT: control_change channel=11 control=7 value=80 time=0
EXTRACT: note_on channel=3 note=64 velocity=101 time=0.00384615
EXTRACT: note_on channel=9 note=54 velocity=0 time=0.0846153
EXTRACT: note_on channel=9 note=54 velocity=7 time=0
EXTRACT: note_on channel=9 note=36 velocity=0 time=0.0076923
EXTRACT: note_on channel=9 note=42 velocity=0 time=0
EXTRACT: note_on channel=9 note=54 velocity=0 time=0.1076922
EXTRACT: note_on channel=9 note=54 velocity=7 time=0
EXTRACT: note_on channel=1 note=33 velocity=0 time=0.0076923
EXTRACT: note_on channel=5 note=57 velocity=0 time=0
EXTRACT: note_on channel=5 note=55 velocity=94 time=0
EXTRACT: note_on channel=7 note=62 velocity=0 time=0
EXTRACT: note_on channel=7 note=60 velocity=79 time=0
EXTRACT: note_on channel=8 note=65 velocity=0 time=0
EXTRACT: note_on channel=8 note=64 velocity=73 time=0
EXTRACT: note_on channel=9 note=42 velocity=27 time=0
EXTRACT: note_on channel=9 note=62 velocity=34 time=0
EXTRACT: note_on channel=9 note=54 velocity=0 time=0.1076922
EXTRACT: note_on channel=9 note=54 velocity=7 time=0
EXTRACT: note_on channel=3 note=69 velocity=0 time=0.0076923
EXTRACT: note_on channel=9 note=42 velocity=0 time=0
EXTRACT: note_on channel=9 note=62 velocity=0 time=0
EXTRACT: note_on channel=9 note=54 velocity=0 time=0.1076922
EXTRACT: note_on channel=9 note=54 velocity=10 time=0
EXTRACT: note_on channel=1 note=33 velocity=90 time=0.0076923
EXTRACT: note_on channel=3 note=64 velocity=0 time=0
EXTRACT: note_on channel=3 note=60 velocity=0 time=0
EXTRACT: note_on channel=3 note=60 velocity=83 time=0
EXTRACT: note_on channel=5 note=55 velocity=0 time=0
EXTRACT: note_on channel=5 note=57 velocity=94 time=0
EXTRACT: note_on channel=7 note=60 velocity=0 time=0
EXTRACT: note_on channel=7 note=62 velocity=90 time=0
EXTRACT: note_on channel=8 note=64 velocity=0 time=0
EXTRACT: note_on channel=8 note=65 velocity=86 time=0
EXTRACT: note_on channel=9 note=40 velocity=93 time=0
EXTRACT: note_on channel=9 note=42 velocity=94 time=0
EXTRACT: note_on channel=9 note=62 velocity=46 time=0
EXTRACT: note_on channel=9 note=39 velocity=93 time=0
EXTRACT: note_on channel=3 note=69 velocity=85 time=0.01153845
EXTRACT: note_on channel=3 note=64 velocity=99 time=0.01153845
EXTRACT: note_on channel=9 note=54 velocity=0 time=0.0846153
EXTRACT: note_on channel=9 note=54 velocity=13 time=0
EXTRACT: note_on channel=3 note=64 velocity=0 time=0.0076923
EXTRACT: note_on channel=3 note=69 velocity=0 time=0
EXTRACT: note_on channel=3 note=60 velocity=0 time=0
EXTRACT: note_on channel=9 note=40 velocity=0 time=0
EXTRACT: note_on channel=9 note=42 velocity=0 time=0
EXTRACT: note_on channel=9 note=62 velocity=0 time=0
EXTRACT: note_on channel=9 note=39 velocity=0 time=0
EXTRACT: note_on channel=9 note=54 velocity=0 time=0.1076922
EXTRACT: note_on channel=9 note=54 velocity=12 time=0
EXTRACT: note_on channel=1 note=33 velocity=0 time=0.0076923
EXTRACT: note_on channel=5 note=57 velocity=0 time=0
EXTRACT: note_on channel=9 note=42 velocity=23 time=0
EXTRACT: note_on channel=9 note=64 velocity=66 time=0
EXTRACT: note_on channel=9 note=54 velocity=0 time=0.1076922
EXTRACT: note_on channel=9 note=54 velocity=13 time=0
EXTRACT: note_on channel=7 note=62 velocity=0 time=0.0076923
EXTRACT: note_on channel=8 note=65 velocity=0 time=0
EXTRACT: note_on channel=9 note=42 velocity=0 time=0
EXTRACT: note_on channel=9 note=64 velocity=0 time=0
EXTRACT: note_on channel=9 note=54 velocity=0 time=0.1076922
EXTRACT: note_on channel=9 note=54 velocity=42 time=0
EXTRACT: note_on channel=1 note=33 velocity=99 time=0.0076923
EXTRACT: note_on channel=5 note=57 velocity=113 time=0
EXTRACT: note_on channel=7 note=62 velocity=101 time=0
EXTRACT: note_on channel=8 note=65 velocity=97 time=0
EXTRACT: note_on channel=9 note=36 velocity=85 time=0
EXTRACT: note_on channel=9 note=42 velocity=99 time=0
EXTRACT: note_on channel=9 note=54 velocity=0 time=0.1076922
EXTRACT: note_on channel=9 note=54 velocity=28 time=0
EXTRACT: note_on channel=9 note=36 velocity=0 time=0.0076923
EXTRACT: note_on channel=9 note=42 velocity=0 time=0
EXTRACT: note_on channel=9 note=54 velocity=0 time=0.1076922
EXTRACT: note_on channel=9 note=54 velocity=28 time=0
EXTRACT: note_on channel=1 note=33 velocity=0 time=0.0076923
EXTRACT: note_on channel=1 note=29 velocity=76 time=0
EXTRACT: note_on channel=3 note=69 velocity=94 time=0
EXTRACT: note_on channel=5 note=57 velocity=0 time=0
EXTRACT: note_on channel=5 note=55 velocity=101 time=0
EXTRACT: note_on channel=7 note=62 velocity=0 time=0
EXTRACT: note_on channel=7 note=60 velocity=92 time=0
EXTRACT: note_on channel=8 note=65 velocity=0 time=0
EXTRACT: note_on channel=8 note=64 velocity=74 time=0
EXTRACT: note_on channel=9 note=36 velocity=83 time=0
EXTRACT: note_on channel=9 note=42 velocity=53 time=0
EXTRACT: note_on channel=9 note=62 velocity=37 time=0
EXTRACT: note_on channel=3 note=60 velocity=92 time=0.01153845
EXTRACT: note_on channel=3 note=64 velocity=104 time=0.01153845
EXTRACT: note_on channel=9 note=54 velocity=0 time=0.0846153
EXTRACT: note_on channel=9 note=54 velocity=28 time=0
EXTRACT: note_on channel=3 note=64 velocity=0 time=0.0076923
EXTRACT: note_on channel=3 note=60 velocity=0 time=0
EXTRACT: note_on channel=3 note=69 velocity=0 time=0
EXTRACT: note_on channel=9 note=36 velocity=0 time=0
EXTRACT: note_on channel=9 note=42 velocity=0 time=0
EXTRACT: note_on channel=9 note=62 velocity=0 time=0
EXTRACT: note_on channel=9 note=54 velocity=0 time=0.1076922
EXTRACT: note_on channel=9 note=54 velocity=41 time=0
EXTRACT: note_on channel=0 note=57 velocity=0 time=0.0076923
EXTRACT: note_on channel=1 note=29 velocity=0 time=0
EXTRACT: note_on channel=1 note=33 velocity=101 time=0
EXTRACT: note_on channel=5 note=55 velocity=0 time=0
EXTRACT: note_on channel=5 note=57 velocity=90 time=0
EXTRACT: note_on channel=7 note=60 velocity=0 time=0
EXTRACT: note_on channel=7 note=62 velocity=90 time=0
EXTRACT: note_on channel=8 note=64 velocity=0 time=0
EXTRACT: note_on channel=8 note=65 velocity=83 time=0
EXTRACT: note_on channel=9 note=40 velocity=100 time=0
EXTRACT: note_on channel=9 note=42 velocity=99 time=0
EXTRACT: note_on channel=9 note=62 velocity=43 time=0
EXTRACT: note_on channel=9 note=39 velocity=100 time=0
EXTRACT: note_on channel=9 note=54 velocity=0 time=0.1076922
EXTRACT: note_on channel=9 note=54 velocity=28 time=0
EXTRACT: note_on channel=0 note=48 velocity=0 time=0.0076923
EXTRACT: note_on channel=0 note=52 velocity=0 time=0
EXTRACT: note_on channel=5 note=57 velocity=0 time=0
EXTRACT: note_on channel=9 note=40 velocity=0 time=0
EXTRACT: note_on channel=9 note=42 velocity=0 time=0
EXTRACT: note_on channel=9 note=62 velocity=0 time=0
EXTRACT: note_on channel=9 note=39 velocity=0 time=0
EXTRACT: note_on channel=4 note=79 velocity=82 time=0.07307685
EXTRACT: note_on channel=4 note=81 velocity=0 time=0.0307692
EXTRACT: note_on channel=9 note=54 velocity=0 time=0.00384615
EXTRACT: note_on channel=9 note=54 velocity=31 time=0
EXTRACT: note_on channel=0 note=50 velocity=72 time=0.0076923
EXTRACT: note_on channel=0 note=47 velocity=69 time=0
EXTRACT: note_on channel=0 note=55 velocity=68 time=0
EXTRACT: note_on channel=1 note=33 velocity=0 time=0
EXTRACT: note_on channel=1 note=31 velocity=86 time=0
EXTRACT: note_on channel=3 note=67 velocity=92 time=0
EXTRACT: note_on channel=5 note=53 velocity=99 time=0
EXTRACT: note_on channel=7 note=62 velocity=0 time=0
EXTRACT: note_on channel=7 note=60 velocity=92 time=0
EXTRACT: note_on channel=8 note=65 velocity=0 time=0
EXTRACT: note_on channel=8 note=64 velocity=80 time=0
EXTRACT: note_on channel=9 note=36 velocity=71 time=0
EXTRACT: note_on channel=9 note=42 velocity=31 time=0
EXTRACT: note_on channel=9 note=63 velocity=58 time=0
EXTRACT: note_on channel=3 note=59 velocity=92 time=0.01153845
EXTRACT: note_on channel=3 note=62 velocity=107 time=0.01153845
EXTRACT: note_on channel=9 note=54 velocity=0 time=0.0846153
EXTRACT: note_on channel=9 note=54 velocity=37 time=0
EXTRACT: note_on channel=9 note=36 velocity=0 time=0.0076923
EXTRACT: note_on channel=9 note=42 velocity=0 time=0
EXTRACT: note_on channel=9 note=63 velocity=0 time=0
EXTRACT: note_on channel=9 note=54 velocity=0 time=0.1076922
EXTRACT: note_on channel=9 note=54 velocity=41 time=0
EXTRACT: note_on channel=5 note=53 velocity=0 time=0.0076923
EXTRACT: note_on channel=5 note=55 velocity=99 time=0
EXTRACT: note_on channel=7 note=60 velocity=0 time=0
EXTRACT: note_on channel=7 note=62 velocity=90 time=0
EXTRACT: note_on channel=8 note=64 velocity=0 time=0
EXTRACT: note_on channel=8 note=65 velocity=82 time=0
EXTRACT: note_on channel=9 note=36 velocity=101 time=0
EXTRACT: note_on channel=9 note=42 velocity=99 time=0
EXTRACT: note_on channel=9 note=54 velocity=0 time=0.1076922
EXTRACT: note_on channel=9 note=54 velocity=10 time=0
EXTRACT: note_on channel=1 note=31 velocity=0 time=0.0076923
EXTRACT: note_on channel=9 note=36 velocity=0 time=0
EXTRACT: note_on channel=9 note=42 velocity=0 time=0
EXTRACT: note_on channel=9 note=54 velocity=0 time=0.1076922
EXTRACT: note_on channel=9 note=54 velocity=10 time=0
EXTRACT: note_on channel=1 note=31 velocity=94 time=0.0076923
EXTRACT: note_on channel=5 note=55 velocity=0 time=0
EXTRACT: note_on channel=8 note=65 velocity=0 time=0
EXTRACT: note_on channel=9 note=42 velocity=42 time=0
EXTRACT: note_on channel=9 note=62 velocity=38 time=0
EXTRACT: note_on channel=9 note=54 velocity=0 time=0.1076922
EXTRACT: note_on channel=9 note=54 velocity=11 time=0
EXTRACT: note_on channel=3 note=62 velocity=0 time=0.0076923
EXTRACT: note_on channel=3 note=59 velocity=0 time=0
EXTRACT: note_on channel=3 note=67 velocity=0 time=0
EXTRACT: note_on channel=7 note=62 velocity=0 time=0
EXTRACT: note_on channel=9 note=42 velocity=0 time=0
EXTRACT: note_on channel=9 note=62 velocity=0 time=0
EXTRACT: note_on channel=9 note=54 velocity=0 time=0.1076922
EXTRACT: note_on channel=9 note=54 velocity=11 time=0
EXTRACT: note_on channel=1 note=31 velocity=0 time=0.0076923
EXTRACT: note_on channel=3 note=67 velocity=82 time=0
EXTRACT: note_on channel=5 note=55 velocity=117 time=0
EXTRACT: note_on channel=7 note=62 velocity=107 time=0
EXTRACT: note_on channel=8 note=65 velocity=92 time=0
EXTRACT: note_on channel=9 note=40 velocity=93 time=0
EXTRACT: note_on channel=9 note=42 velocity=99 time=0
EXTRACT: note_on channel=9 note=62 velocity=49 time=0
EXTRACT: note_on channel=9 note=39 velocity=93 time=0
EXTRACT: note_on channel=3 note=59 velocity=85 time=0.01153845
EXTRACT: note_on channel=6 note=64 velocity=107 time=0
EXTRACT: note_on channel=6 note=76 velocity=104 time=0
EXTRACT: note_on channel=3 note=62 velocity=101 time=0.01153845
EXTRACT: note_on channel=9 note=54 velocity=0 time=0.0846153
EXTRACT: note_on channel=9 note=54 velocity=11 time=0
EXTRACT: note_on channel=3 note=62 velocity=0 time=0.0076923
EXTRACT: note_on channel=3 note=59 velocity=0 time=0
EXTRACT: note_on channel=3 note=67 velocity=0 time=0
EXTRACT: note_on channel=9 note=40 velocity=0 time=0
EXTRACT: note_on channel=9 note=42 velocity=0 time=0
EXTRACT: note_on channel=9 note=62 velocity=0 time=0
EXTRACT: note_on channel=9 note=39 velocity=0 time=0
EXTRACT: note_on channel=9 note=54 velocity=0 time=0.1076922
EXTRACT: note_on channel=9 note=54 velocity=13 time=0
EXTRACT: note_on channel=1 note=31 velocity=99 time=0.0076923
EXTRACT: note_on channel=6 note=76 velocity=0 time=0
EXTRACT: note_on channel=9 note=42 velocity=46 time=0
EXTRACT: note_on channel=9 note=64 velocity=70 time=0
EXTRACT: note_on channel=6 note=64 velocity=0 time=0.0461538
EXTRACT: note_on channel=9 note=54 velocity=0 time=0.0615384
EXTRACT: note_on channel=9 note=54 velocity=13 time=0
EXTRACT: note_on channel=5 note=55 velocity=0 time=0.0076923
EXTRACT: note_on channel=7 note=62 velocity=0 time=0
EXTRACT: note_on channel=8 note=65 velocity=0 time=0
EXTRACT: note_on channel=9 note=42 velocity=0 time=0
EXTRACT: note_on channel=9 note=64 velocity=0 time=0
EXTRACT: note_on channel=9 note=54 velocity=0 time=0.1076922
EXTRACT: note_on channel=9 note=54 velocity=38 time=0
EXTRACT: note_on channel=5 note=55 velocity=120 time=0.0076923
EXTRACT: note_on channel=6 note=74 velocity=107 time=0
EXTRACT: note_on channel=7 note=64 velocity=110 time=0
EXTRACT: note_on channel=8 note=67 velocity=99 time=0
EXTRACT: note_on channel=9 note=36 velocity=94 time=0
EXTRACT: note_on channel=9 note=42 velocity=94 time=0
EXTRACT: note_on channel=6 note=62 velocity=113 time=0.01923075
EXTRACT: note_on channel=9 note=54 velocity=0 time=0.08846145
EXTRACT: note_on channel=9 note=54 velocity=27 time=0
EXTRACT: note_on channel=9 note=36 velocity=0 time=0.0076923
EXTRACT: note_on channel=9 note=42 velocity=0 time=0
EXTRACT: note_on channel=6 note=72 velocity=85 time=0.0923076
EXTRACT: note_on channel=9 note=54 velocity=0 time=0.0153846
EXTRACT: note_on channel=9 note=54 velocity=27 time=0
EXTRACT: note_on channel=1 note=31 velocity=0 time=0.0076923
EXTRACT: note_on channel=1 note=33 velocity=85 time=0
EXTRACT: note_on channel=3 note=67 velocity=94 time=0
EXTRACT: note_on channel=6 note=60 velocity=104 time=0
EXTRACT: note_on channel=9 note=36 velocity=88 time=0
EXTRACT: note_on channel=9 note=42 velocity=46 time=0
EXTRACT: note_on channel=9 note=62 velocity=48 time=0
EXTRACT: note_on channel=3 note=59 velocity=94 time=0.01153845
EXTRACT: note_on channel=3 note=62 velocity=110 time=0.01153845
EXTRACT: note_on channel=6 note=74 velocity=0 time=0.03461535
EXTRACT: note_on channel=9 note=42 velocity=0 time=0
EXTRACT: note_on channel=6 note=62 velocity=0 time=0.04999995
EXTRACT: note_on channel=9 note=54 velocity=0 time=0
EXTRACT: note_on channel=9 note=54 velocity=27 time=0
EXTRACT: note_on channel=3 note=62 velocity=0 time=0.0076923
EXTRACT: note_on channel=3 note=59 velocity=0 time=0
EXTRACT: note_on channel=3 note=67 velocity=0 time=0
EXTRACT: note_on channel=9 note=36 velocity=0 time=0
EXTRACT: note_on channel=9 note=62 velocity=0 time=0
EXTRACT: note_on channel=6 note=60 velocity=0 time=0.0846153
EXTRACT: note_on channel=6 note=69 velocity=97 time=0.00384615
EXTRACT: note_on channel=6 note=72 velocity=0 time=0.0153846
EXTRACT: note_on channel=6 note=57 velocity=110 time=0
EXTRACT: note_on channel=9 note=54 velocity=0 time=0.00384615
EXTRACT: note_on channel=9 note=54 velocity=36 time=0
EXTRACT: note_on channel=1 note=33 velocity=0 time=0.0076923
EXTRACT: note_on channel=1 note=36 velocity=74 time=0
EXTRACT: note_on channel=5 note=55 velocity=0 time=0
EXTRACT: note_on channel=5 note=53 velocity=104 time=0
EXTRACT: note_on channel=7 note=64 velocity=0 time=0
EXTRACT: note_on channel=7 note=62 velocity=90 time=0
EXTRACT: note_on channel=8 note=67 velocity=0 time=0
EXTRACT: note_on channel=8 note=65 velocity=83 time=0
EXTRACT: note_on channel=9 note=40 velocity=93 time=0
EXTRACT: note_on channel=9 note=42 velocity=89 time=0
EXTRACT: note_on channel=9 note=62 velocity=52 time=0
EXTRACT: note_on channel=9 note=39 velocity=93 time=0
EXTRACT: note_on channel=9 note=54 velocity=0 time=0.1076922
EXTRACT: note_on channel=9 note=54 velocity=27 time=0
EXTRACT: note_on channel=9 note=40 velocity=0 time=0.0076923
EXTRACT: note_on channel=9 note=42 velocity=0 time=0
EXTRACT: note_on channel=9 note=62 velocity=0 time=0
EXTRACT: note_on channel=9 note=39 velocity=0 time=0
EXTRACT: note_on channel=6 note=69 velocity=0 time=0.09615375
EXTRACT: note_on channel=6 note=57 velocity=0 time=0.00384615
EXTRACT: note_on channel=6 note=67 velocity=107 time=0.00384615
EXTRACT: note_on channel=9 note=54 velocity=0 time=0.00384615
EXTRACT: note_on channel=9 note=54 velocity=28 time=0
EXTRACT: note_on channel=0 note=47 velocity=0 time=0.0076923
EXTRACT: note_on channel=1 note=36 velocity=0 time=0
EXTRACT: note_on channel=1 note=33 velocity=72 time=0
EXTRACT: note_on channel=5 note=53 velocity=0 time=0
EXTRACT: note_on channel=5 note=52 velocity=92 time=0
EXTRACT: note_on channel=7 note=62 velocity=0 time=0
EXTRACT: note_on channel=7 note=60 velocity=97 time=0
EXTRACT: note_on channel=8 note=65 velocity=0 time=0
EXTRACT: note_on channel=8 note=64 velocity=86 time=0
EXTRACT: note_on channel=9 note=36 velocity=71 time=0
EXTRACT: note_on channel=9 note=42 velocity=51 time=0
EXTRACT: note_on channel=9 note=63 velocity=67 time=0
EXTRACT: note_on channel=6 note=55 velocity=107 time=0.0076923
EXTRACT: note_on channel=9 note=54 velocity=0 time=0.0999999
EXTRACT: note_on channel=9 note=54 velocity=38 time=0
EXTRACT: note_on channel=0 note=55 velocity=0 time=0.0076923
EXTRACT: note_on channel=0 note=50 velocity=0 time=0
EXTRACT: note_on channel=9 note=36 velocity=0 time=0
EXTRACT: note_on channel=9 note=42 velocity=0 time=0
EXTRACT: note_on channel=9 note=63 velocity=0 time=0
EXTRACT: note_on channel=6 note=55 velocity=0 time=0.07307685
EXTRACT: note_on channel=9 note=54 velocity=0 time=0.03461535
EXTRACT: note_on channel=9 note=54 velocity=39 time=0
EXTRACT: note_on channel=0 note=55 velocity=94 time=0.0076923
EXTRACT: note_on channel=0 note=60 velocity=97 time=0
EXTRACT: note_on channel=0 note=64 velocity=76 time=0
EXTRACT: note_on channel=1 note=33 velocity=0 time=0
EXTRACT: note_on channel=1 note=36 velocity=97 time=0
EXTRACT: note_on channel=3 note=72 velocity=80 time=0
EXTRACT: note_on channel=5 note=52 velocity=0 time=0
EXTRACT: note_on channel=7 note=60 velocity=0 time=0
EXTRACT: note_on channel=8 note=64 velocity=0 time=0
EXTRACT: note_on channel=9 note=36 velocity=97 time=0
EXTRACT: note_on channel=9 note=42 velocity=99 time=0
EXTRACT: note_on channel=9 note=49 velocity=81 time=0
EXTRACT: note_on channel=9 note=63 velocity=50 time=0
EXTRACT: note_on channel=4 note=79 velocity=0 time=0.0076923
EXTRACT: note_on channel=6 note=67 velocity=0 time=0
EXTRACT: note_on channel=3 note=67 velocity=85 time=0.00384615
EXTRACT: note_on channel=3 note=64 velocity=82 time=0.01153845
EXTRACT: note_on channel=9 note=54 velocity=0 time=0.0846153
EXTRACT: note_on channel=9 note=54 velocity=7 time=0
EXTRACT: note_on channel=9 note=36 velocity=0 time=0.0076923
EXTRACT: note_on channel=9 note=42 velocity=0 time=0
EXTRACT: note_on channel=9 note=49 velocity=0 time=0
EXTRACT: note_on channel=9 note=63 velocity=0 time=0
EXTRACT: note_on channel=9 note=54 velocity=0 time=0.1076922
EXTRACT: note_on channel=9 note=54 velocity=7 time=0
EXTRACT: note_on channel=1 note=36 velocity=0 time=0.0076923
EXTRACT: note_on channel=9 note=42 velocity=32 time=0
EXTRACT: note_on channel=9 note=62 velocity=56 time=0
EXTRACT: note_on channel=9 note=54 velocity=0 time=0.1076922
EXTRACT: note_on channel=9 note=54 velocity=7 time=0
EXTRACT: note_on channel=3 note=64 velocity=0 time=0.0076923
EXTRACT: note_on channel=3 note=67 velocity=0 time=0
EXTRACT: note_on channel=3 note=72 velocity=0 time=0
EXTRACT: note_on channel=9 note=42 velocity=0 time=0
EXTRACT: note_on channel=9 note=62 velocity=0 time=0
EXTRACT: note_on channel=9 note=54 velocity=0 time=0.1076922
EXTRACT: note_on channel=9 note=54 velocity=10 time=0
EXTRACT: note_on channel=1 note=36 velocity=97 time=0.0076923
EXTRACT: note_on channel=3 note=67 velocity=101 time=0
EXTRACT: note_on channel=7 note=67 velocity=86 time=0
EXTRACT: note_on channel=9 note=40 velocity=93 time=0
EXTRACT: note_on channel=9 note=42 velocity=99 time=0
EXTRACT: note_on channel=9 note=62 velocity=58 time=0
EXTRACT: note_on channel=10 note=55 velocity=110 time=0
EXTRACT: note_on channel=11 note=79 velocity=94 time=0
EXTRACT: note_on channel=11 note=67 velocity=94 time=0
EXTRACT: note_on channel=3 note=64 velocity=90 time=0.01153845
EXTRACT: note_on channel=3 note=72 velocity=94 time=0.01153845
EXTRACT: note_on channel=9 note=54 velocity=0 time=0.0846153
EXTRACT: note_on channel=9 note=54 velocity=13 time=0
EXTRACT: note_on channel=3 note=72 velocity=0 time=0.0076923
EXTRACT: note_on channel=3 note=64 velocity=0 time=0
EXTRACT: note_on channel=3 note=67 velocity=0 time=0
EXTRACT: note_on channel=9 note=40 velocity=0 time=0
EXTRACT: note_on channel=9 note=42 velocity=0 time=0
EXTRACT: note_on channel=9 note=62 velocity=0 time=0
EXTRACT: note_on channel=9 note=54 velocity=0 time=0.1076922
EXTRACT: note_on channel=9 note=54 velocity=12 time=0
EXTRACT: note_on channel=1 note=36 velocity=0 time=0.0076923
EXTRACT: note_on channel=7 note=67 velocity=0 time=0
EXTRACT: note_on channel=9 note=42 velocity=49 time=0
EXTRACT: note_on channel=9 note=64 velocity=70 time=0
EXTRACT: note_on channel=9 note=54 velocity=0 time=0.1076922
EXTRACT: note_on channel=9 note=54 velocity=13 time=0
EXTRACT: note_on channel=9 note=42 velocity=0 time=0.0076923
EXTRACT: note_on channel=9 note=64 velocity=0 time=0
EXTRACT: note_on channel=10 note=55 velocity=0 time=0
EXTRACT: note_on channel=11 note=67 velocity=0 time=0
EXTRACT: note_on channel=11 note=79 velocity=0 time=0
EXTRACT: note_on channel=9 note=54 velocity=0 time=0.1076922
EXTRACT: note_on channel=9 note=54 velocity=42 time=0
EXTRACT: note_on channel=1 note=36 velocity=94 time=0.0076923
EXTRACT: note_on channel=7 note=67 velocity=99 time=0
EXTRACT: note_on channel=9 note=36 velocity=88 time=0
EXTRACT: note_on channel=9 note=42 velocity=84 time=0
EXTRACT: note_on channel=10 note=55 velocity=120 time=0
EXTRACT: note_on channel=11 note=79 velocity=90 time=0
EXTRACT: note_on channel=11 note=67 velocity=90 time=0
EXTRACT: note_on channel=9 note=54 velocity=0 time=0.1076922
EXTRACT: note_on channel=9 note=54 velocity=28 time=0
EXTRACT: note_on channel=9 note=36 velocity=0 time=0.0076923
EXTRACT: note_on channel=9 note=42 velocity=0 time=0
EXTRACT: note_on channel=9 note=54 velocity=0 time=0.1076922
EXTRACT: note_on channel=9 note=54 velocity=28 time=0
EXTRACT: note_on channel=1 note=36 velocity=0 time=0.0076923
EXTRACT: note_on channel=1 note=31 velocity=79 time=0
EXTRACT: note_on channel=3 note=72 velocity=83 time=0
EXTRACT: note_on channel=7 note=67 velocity=0 time=0
EXTRACT: note_on channel=7 note=72 velocity=97 time=0
EXTRACT: note_on channel=9 note=36 velocity=94 time=0
EXTRACT: note_on channel=9 note=42 velocity=53 time=0
EXTRACT: note_on channel=9 note=62 velocity=36 time=0
EXTRACT: note_on channel=10 note=55 velocity=0 time=0
EXTRACT: note_on channel=10 note=60 velocity=107 time=0
EXTRACT: note_on channel=11 note=67 velocity=0 time=0
EXTRACT: note_on channel=11 note=79 velocity=0 time=0
EXTRACT: note_on channel=11 note=84 velocity=85 time=0
EXTRACT: note_on channel=11 note=72 velocity=85 time=0
EXTRACT: note_on channel=3 note=64 velocity=85 time=0.01153845
EXTRACT: note_on channel=3 note=67 velocity=104 time=0.01153845
EXTRACT: note_on channel=9 note=54 velocity=0 time=0.0846153
EXTRACT: note_on channel=9 note=54 velocity=28 time=0
EXTRACT: note_on channel=3 note=67 velocity=0 time=0.0076923
EXTRACT: note_on channel=3 note=64 velocity=0 time=0
EXTRACT: note_on channel=3 note=72 velocity=0 time=0
EXTRACT: note_on channel=9 note=36 velocity=0 time=0
EXTRACT: note_on channel=9 note=42 velocity=0 time=0
EXTRACT: note_on channel=9 note=62 velocity=0 time=0
EXTRACT: note_on channel=9 note=54 velocity=0 time=0.1076922
EXTRACT: note_on channel=9 note=54 velocity=41 time=0
EXTRACT: note_on channel=0 note=64 velocity=0 time=0.0076923
EXTRACT: note_on channel=0 note=60 velocity=0 time=0
EXTRACT: note_on channel=1 note=31 velocity=0 time=0
EXTRACT: note_on channel=1 note=33 velocity=78 time=0
EXTRACT: note_on channel=7 note=72 velocity=0 time=0
EXTRACT: note_on channel=9 note=40 velocity=93 time=0
EXTRACT: note_on channel=9 note=42 velocity=94 time=0
EXTRACT: note_on channel=9 note=62 velocity=52 time=0
EXTRACT: note_on channel=11 note=72 velocity=0 time=0
EXTRACT: note_on channel=11 note=84 velocity=0 time=0
EXTRACT: note_on channel=9 note=54 velocity=0 time=0.1076922
EXTRACT: note_on channel=9 note=54 velocity=28 time=0
EXTRACT: note_on channel=0 note=55 velocity=0 time=0.0076923
EXTRACT: note_on channel=9 note=40 velocity=0 time=0
EXTRACT: note_on channel=9 note=42 velocity=0 time=0
EXTRACT: note_on channel=9 note=62 velocity=0 time=0
EXTRACT: note_on channel=10 note=60 velocity=0 time=0
EXTRACT: note_on channel=9 note=54 velocity=0 time=0.1076922
EXTRACT: note_on channel=9 note=54 velocity=31 time=0
EXTRACT: note_on channel=0 note=65 velocity=83 time=0.0076923
EXTRACT: note_on channel=0 note=62 velocity=92 time=0
EXTRACT: note_on channel=0 note=58 velocity=92 time=0
EXTRACT: note_on channel=0 note=55 velocity=97 time=0
EXTRACT: note_on channel=1 note=33 velocity=0 time=0
EXTRACT: note_on channel=1 note=34 velocity=109 time=0
EXTRACT: note_on channel=3 note=62 velocity=86 time=0
EXTRACT: note_on channel=7 note=74 velocity=94 time=0
EXTRACT: note_on channel=9 note=36 velocity=70 time=0
EXTRACT: note_on channel=9 note=42 velocity=38 time=0
EXTRACT: note_on channel=9 note=63 velocity=56 time=0
EXTRACT: note_on channel=10 note=62 velocity=107 time=0
EXTRACT: note_on channel=11 note=86 velocity=86 time=0
EXTRACT: note_on channel=11 note=74 velocity=86 time=0
EXTRACT: note_on channel=3 note=65 velocity=92 time=0.01153845
EXTRACT: note_on channel=3 note=70 velocity=96 time=0.01153845
EXTRACT: note_on channel=9 note=54 velocity=0 time=0.0846153
EXTRACT: note_on channel=9 note=54 velocity=37 time=0
EXTRACT: note_on channel=9 note=36 velocity=0 time=0.0076923
EXTRACT: note_on channel=9 note=42 velocity=0 time=0
EXTRACT: note_on channel=9 note=63 velocity=0 time=0
EXTRACT: note_on channel=9 note=54 velocity=0 time=0.1076922
EXTRACT: note_on channel=9 note=54 velocity=41 time=0
EXTRACT: note_on channel=1 note=34 velocity=0 time=0.0076923
EXTRACT: note_on channel=9 note=36 velocity=104 time=0
EXTRACT: note_on channel=9 note=42 velocity=94 time=0
EXTRACT: note_on channel=11 note=74 velocity=0 time=0
EXTRACT: note_on channel=11 note=86 velocity=0 time=0
EXTRACT: note_on channel=9 note=54 velocity=0 time=0.1076922
EXTRACT: note_on channel=9 note=54 velocity=10 time=0
EXTRACT: note_on channel=7 note=74 velocity=0 time=0.0076923
EXTRACT: note_on channel=9 note=36 velocity=0 time=0
EXTRACT: note_on channel=9 note=42 velocity=0 time=0
EXTRACT: note_on channel=9 note=54 velocity=0 time=0.1076922
EXTRACT: note_on channel=9 note=54 velocity=10 time=0
EXTRACT: note_on channel=1 note=34 velocity=89 time=0.0076923
EXTRACT: note_on channel=9 note=42 velocity=40 time=0
EXTRACT: note_on channel=9 note=62 velocity=46 time=0
EXTRACT: note_on channel=1 note=34 velocity=0 time=0.076923
EXTRACT: note_on channel=9 note=54 velocity=0 time=0.0307692
EXTRACT: note_on channel=9 note=54 velocity=11 time=0
EXTRACT: note_on channel=3 note=70 velocity=0 time=0.0076923
EXTRACT: note_on channel=3 note=62 velocity=0 time=0
EXTRACT: note_on channel=9 note=42 velocity=0 time=0
EXTRACT: note_on channel=9 note=62 velocity=0 time=0
EXTRACT: note_on channel=9 note=54 velocity=0 time=0.1076922
EXTRACT: note_on channel=9 note=54 velocity=11 time=0
EXTRACT: note_on channel=1 note=34 velocity=119 time=0.0076923
EXTRACT: note_on channel=3 note=65 velocity=0 time=0
EXTRACT: note_on channel=3 note=65 velocity=88 time=0
EXTRACT: note_on channel=7 note=79 velocity=85 time=0
EXTRACT: note_on channel=9 note=40 velocity=87 time=0
EXTRACT: note_on channel=9 note=42 velocity=94 time=0
EXTRACT: note_on channel=9 note=62 velocity=50 time=0
EXTRACT: note_on channel=10 note=62 velocity=0 time=0
EXTRACT: note_on channel=10 note=67 velocity=104 time=0
EXTRACT: note_on channel=11 note=91 velocity=86 time=0
EXTRACT: note_on channel=11 note=79 velocity=86 time=0
EXTRACT: note_on channel=3 note=62 velocity=82 time=0.01153845
EXTRACT: note_on channel=3 note=70 velocity=100 time=0.01153845
EXTRACT: note_on channel=9 note=54 velocity=0 time=0.0846153
EXTRACT: note_on channel=9 note=54 velocity=11 time=0
EXTRACT: note_on channel=3 note=70 velocity=0 time=0.0076923
EXTRACT: note_on channel=3 note=62 velocity=0 time=0
EXTRACT: note_on channel=3 note=65 velocity=0 time=0
EXTRACT: note_on channel=9 note=40 velocity=0 time=0
EXTRACT: note_on channel=9 note=42 velocity=0 time=0
EXTRACT: note_on channel=9 note=62 velocity=0 time=0
EXTRACT: note_on channel=9 note=54 velocity=0 time=0.1076922
EXTRACT: note_on channel=9 note=54 velocity=13 time=0
EXTRACT: note_on channel=9 note=42 velocity=34 time=0.0076923
EXTRACT: note_on channel=9 note=64 velocity=66 time=0
EXTRACT: note_on channel=9 note=54 velocity=0 time=0.1076922
EXTRACT: note_on channel=9 note=54 velocity=13 time=0
EXTRACT: note_on channel=7 note=79 velocity=0 time=0.0076923
EXTRACT: note_on channel=9 note=42 velocity=0 time=0
EXTRACT: note_on channel=9 note=64 velocity=0 time=0
EXTRACT: note_on channel=10 note=67 velocity=0 time=0
EXTRACT: note_on channel=11 note=79 velocity=0 time=0
EXTRACT: note_on channel=11 note=91 velocity=0 time=0
EXTRACT: note_on channel=9 note=54 velocity=0 time=0.1076922
EXTRACT: note_on channel=9 note=54 velocity=38 time=0
EXTRACT: note_on channel=7 note=76 velocity=99 time=0.0076923
EXTRACT: note_on channel=9 note=36 velocity=86 time=0
EXTRACT: note_on channel=9 note=42 velocity=94 time=0
EXTRACT: note_on channel=10 note=64 velocity=104 time=0
EXTRACT: note_on channel=11 note=88 velocity=78 time=0
EXTRACT: note_on channel=11 note=76 velocity=78 time=0
EXTRACT: note_on channel=9 note=54 velocity=0 time=0.1076922
EXTRACT: note_on channel=9 note=54 velocity=27 time=0
EXTRACT: note_on channel=9 note=36 velocity=0 time=0.0076923
EXTRACT: note_on channel=9 note=42 velocity=0 time=0
EXTRACT: note_on channel=9 note=54 velocity=0 time=0.1076922
EXTRACT: note_on channel=9 note=54 velocity=27 time=0
EXTRACT: note_on channel=1 note=34 velocity=0 time=0.0076923
EXTRACT: note_on channel=1 note=31 velocity=79 time=0
EXTRACT: note_on channel=3 note=65 velocity=94 time=0
EXTRACT: note_on channel=7 note=76 velocity=0 time=0
EXTRACT: note_on channel=7 note=72 velocity=86 time=0
EXTRACT: note_on channel=9 note=36 velocity=85 time=0
EXTRACT: note_on channel=9 note=42 velocity=31 time=0
EXTRACT: note_on channel=9 note=62 velocity=36 time=0
EXTRACT: note_on channel=10 note=64 velocity=0 time=0
EXTRACT: note_on channel=10 note=60 velocity=101 time=0
EXTRACT: note_on channel=11 note=76 velocity=0 time=0
EXTRACT: note_on channel=11 note=88 velocity=0 time=0
EXTRACT: note_on channel=11 note=84 velocity=79 time=0
EXTRACT: note_on channel=11 note=72 velocity=79 time=0
EXTRACT: note_on channel=3 note=62 velocity=90 time=0.01153845
EXTRACT: note_on channel=3 note=70 velocity=96 time=0.01153845
EXTRACT: note_on channel=9 note=54 velocity=0 time=0.0846153
EXTRACT: note_on channel=9 note=54 velocity=27 time=0
EXTRACT: note_on channel=3 note=70 velocity=0 time=0.0076923
EXTRACT: note_on channel=3 note=62 velocity=0 time=0
EXTRACT: note_on channel=3 note=65 velocity=0 time=0
EXTRACT: note_on channel=9 note=36 velocity=0 time=0
EXTRACT: note_on channel=9 note=42 velocity=0 time=0
EXTRACT: note_on channel=9 note=62 velocity=0 time=0
EXTRACT: note_on channel=9 note=54 velocity=0 time=0.1076922
EXTRACT: note_on channel=9 note=54 velocity=36 time=0
EXTRACT: note_on channel=1 note=31 velocity=0 time=0.0076923
EXTRACT: note_on channel=1 note=34 velocity=79 time=0
EXTRACT: note_on channel=9 note=40 velocity=87 time=0
EXTRACT: note_on channel=9 note=42 velocity=99 time=0
EXTRACT: note_on channel=9 note=62 velocity=50 time=0
EXTRACT: note_on channel=11 note=72 velocity=0 time=0
EXTRACT: note_on channel=11 note=84 velocity=0 time=0
EXTRACT: note_on channel=9 note=54 velocity=0 time=0.1076922
EXTRACT: note_on channel=9 note=54 velocity=27 time=0
EXTRACT: note_on channel=7 note=72 velocity=0 time=0.0076923
EXTRACT: note_on channel=9 note=40 velocity=0 time=0
EXTRACT: note_on channel=9 note=42 velocity=0 time=0
EXTRACT: note_on channel=9 note=62 velocity=0 time=0
EXTRACT: note_on channel=10 note=60 velocity=0 time=0
EXTRACT: note_on channel=9 note=54 velocity=0 time=0.1076922
EXTRACT: note_on channel=9 note=54 velocity=28 time=0
EXTRACT: note_on channel=1 note=34 velocity=0 time=0.0076923
EXTRACT: note_on channel=1 note=36 velocity=68 time=0
EXTRACT: note_on channel=7 note=67 velocity=99 time=0
EXTRACT: note_on channel=9 note=36 velocity=71 time=0
EXTRACT: note_on channel=9 note=42 velocity=38 time=0
EXTRACT: note_on channel=9 note=63 velocity=58 time=0
EXTRACT: note_on channel=10 note=55 velocity=110 time=0
EXTRACT: note_on channel=11 note=79 velocity=83 time=0
EXTRACT: note_on channel=11 note=67 velocity=83 time=0
EXTRACT: note_on channel=9 note=54 velocity=0 time=0.1076922
EXTRACT: note_on channel=9 note=54 velocity=38 time=0
EXTRACT: note_on channel=0 note=55 velocity=0 time=0.0076923
EXTRACT: note_on channel=0 note=65 velocity=0 time=0
EXTRACT: note_on channel=0 note=62 velocity=0 time=0
EXTRACT: note_on channel=0 note=58 velocity=0 time=0
EXTRACT: note_on channel=9 note=36 velocity=0 time=0
EXTRACT: note_on channel=9 note=42 velocity=0 time=0
EXTRACT: note_on channel=9 note=63 velocity=0 time=0
EXTRACT: note_on channel=9 note=54 velocity=0 time=0.1076922
EXTRACT: note_on channel=9 note=54 velocity=39 time=0
EXTRACT: note_on channel=0 note=57 velocity=75 time=0.0076923
EXTRACT: note_on channel=0 note=64 velocity=79 time=0
EXTRACT: note_on channel=0 note=60 velocity=90 time=0
EXTRACT: note_on channel=1 note=36 velocity=0 time=0
EXTRACT: note_on channel=1 note=33 velocity=101 time=0
EXTRACT: note_on channel=3 note=60 velocity=83 time=0
EXTRACT: note_on channel=9 note=36 velocity=101 time=0
EXTRACT: note_on channel=9 note=42 velocity=99 time=0
EXTRACT: note_on channel=3 note=69 velocity=75 time=0.01153845
EXTRACT: note_on channel=3 note=64 velocity=97 time=0.01153845
EXTRACT: note_on channel=9 note=54 velocity=0 time=0.0846153
EXTRACT: note_on channel=9 note=54 velocity=7 time=0
EXTRACT: note_on channel=9 note=36 velocity=0 time=0.0076923
EXTRACT: note_on channel=9 note=42 velocity=0 time=0
EXTRACT: note_on channel=11 note=67 velocity=0 time=0
EXTRACT: note_on channel=11 note=79 velocity=0 time=0
EXTRACT: note_on channel=9 note=54 velocity=0 time=0.1076922
EXTRACT: note_on channel=9 note=54 velocity=7 time=0
EXTRACT: note_on channel=1 note=33 velocity=0 time=0.0076923
EXTRACT: note_on channel=7 note=67 velocity=0 time=0
EXTRACT: note_on channel=9 note=42 velocity=27 time=0
EXTRACT: note_on channel=9 note=62 velocity=34 time=0
EXTRACT: note_on channel=9 note=54 velocity=0 time=0.1076922
EXTRACT: note_on channel=9 note=54 velocity=7 time=0
EXTRACT: note_on channel=9 note=42 velocity=0 time=0.0076923
EXTRACT: note_on channel=9 note=62 velocity=0 time=0
EXTRACT: note_on channel=10 note=55 velocity=0 time=0
EXTRACT: note_on channel=9 note=54 velocity=0 time=0.1076922
EXTRACT: note_on channel=9 note=54 velocity=10 time=0
EXTRACT: note_on channel=1 note=33 velocity=110 time=0.0076923
EXTRACT: note_on channel=3 note=64 velocity=0 time=0
EXTRACT: note_on channel=3 note=69 velocity=0 time=0
EXTRACT: note_on channel=3 note=60 velocity=0 time=0
EXTRACT: note_on channel=3 note=60 velocity=88 time=0
EXTRACT: note_on channel=7 note=67 velocity=101 time=0
EXTRACT: note_on channel=9 note=40 velocity=93 time=0
EXTRACT: note_on channel=9 note=42 velocity=94 time=0
EXTRACT: note_on channel=9 note=62 velocity=46 time=0
EXTRACT: note_on channel=10 note=55 velocity=117 time=0
EXTRACT: note_on channel=11 note=79 velocity=86 time=0
EXTRACT: note_on channel=11 note=67 velocity=86 time=0
EXTRACT: note_on channel=3 note=69 velocity=85 time=0.01153845
EXTRACT: note_on channel=3 note=64 velocity=104 time=0.01153845
EXTRACT: note_on channel=9 note=54 velocity=0 time=0.0846153
EXTRACT: note_on channel=9 note=54 velocity=13 time=0
EXTRACT: note_on channel=3 note=64 velocity=0 time=0.0076923
EXTRACT: note_on channel=3 note=69 velocity=0 time=0
EXTRACT: note_on channel=3 note=60 velocity=0 time=0
EXTRACT: note_on channel=9 note=40 velocity=0 time=0
EXTRACT: note_on channel=9 note=42 velocity=0 time=0
EXTRACT: note_on channel=9 note=62 velocity=0 time=0
EXTRACT: note_on channel=9 note=54 velocity=0 time=0.1076922
EXTRACT: note_on channel=9 note=54 velocity=12 time=0
EXTRACT: note_on channel=1 note=33 velocity=0 time=0.0076923
EXTRACT: note_on channel=7 note=67 velocity=0 time=0
EXTRACT: note_on channel=9 note=42 velocity=23 time=0
EXTRACT: note_on channel=9 note=64 velocity=66 time=0
EXTRACT: note_on channel=9 note=54 velocity=0 time=0.1076922
EXTRACT: note_on channel=9 note=54 velocity=13 time=0
EXTRACT: note_on channel=9 note=42 velocity=0 time=0.0076923
EXTRACT: note_on channel=9 note=64 velocity=0 time=0
EXTRACT: note_on channel=10 note=55 velocity=0 time=0
EXTRACT: note_on channel=11 note=67 velocity=0 time=0
EXTRACT: note_on channel=11 note=79 velocity=0 time=0
EXTRACT: note_on channel=9 note=54 velocity=0 time=0.1076922
EXTRACT: note_on channel=9 note=54 velocity=42 time=0
EXTRACT: note_on channel=1 note=33 velocity=104 time=0.0076923
EXTRACT: note_on channel=7 note=67 velocity=107 time=0
EXTRACT: note_on channel=9 note=36 velocity=85 time=0
EXTRACT: note_on channel=9 note=42 velocity=99 time=0
EXTRACT: note_on channel=10 note=55 velocity=113 time=0
EXTRACT: note_on channel=11 note=79 velocity=88 time=0
EXTRACT: note_on channel=11 note=67 velocity=88 time=0
EXTRACT: note_on channel=9 note=54 velocity=0 time=0.1076922
EXTRACT: note_on channel=9 note=54 velocity=28 time=0
EXTRACT: note_on channel=9 note=36 velocity=0 time=0.0076923
EXTRACT: note_on channel=9 note=42 velocity=0 time=0
EXTRACT: note_on channel=9 note=54 velocity=0 time=0.1076922
EXTRACT: note_on channel=9 note=54 velocity=28 time=0
EXTRACT: note_on channel=1 note=33 velocity=0 time=0.0076923
EXTRACT: note_on channel=1 note=29 velocity=80 time=0
EXTRACT: note_on channel=3 note=69 velocity=85 time=0
EXTRACT: note_on channel=7 note=67 velocity=0 time=0
EXTRACT: note_on channel=7 note=72 velocity=79 time=0
EXTRACT: note_on channel=9 note=36 velocity=83 time=0
EXTRACT: note_on channel=9 note=42 velocity=53 time=0
EXTRACT: note_on channel=9 note=62 velocity=37 time=0
EXTRACT: note_on channel=10 note=55 velocity=0 time=0
EXTRACT: note_on channel=10 note=60 velocity=92 time=0
EXTRACT: note_on channel=11 note=67 velocity=0 time=0
EXTRACT: note_on channel=11 note=79 velocity=0 time=0
EXTRACT: note_on channel=11 note=84 velocity=78 time=0
EXTRACT: note_on channel=11 note=72 velocity=78 time=0
EXTRACT: note_on channel=3 note=60 velocity=90 time=0.01153845
EXTRACT: note_on channel=3 note=64 velocity=104 time=0.01153845
EXTRACT: note_on channel=9 note=54 velocity=0 time=0.0846153
EXTRACT: note_on channel=9 note=54 velocity=28 time=0
EXTRACT: note_on channel=3 note=64 velocity=0 time=0.0076923
EXTRACT: note_on channel=3 note=60 velocity=0 time=0
EXTRACT: note_on channel=3 note=69 velocity=0 time=0
EXTRACT: note_on channel=9 note=36 velocity=0 time=0
EXTRACT: note_on channel=9 note=42 velocity=0 time=0
EXTRACT: note_on channel=9 note=62 velocity=0 time=0
EXTRACT: note_on channel=9 note=54 velocity=0 time=0.1076922
EXTRACT: note_on channel=9 note=54 velocity=41 time=0
EXTRACT: note_on channel=0 note=60 velocity=0 time=0.0076923
EXTRACT: note_on channel=0 note=64 velocity=0 time=0
EXTRACT: note_on channel=0 note=57 velocity=0 time=0
EXTRACT: note_on channel=1 note=29 velocity=0 time=0
EXTRACT: note_on channel=1 note=33 velocity=92 time=0
EXTRACT: note_on channel=9 note=40 velocity=100 time=0
EXTRACT: note_on channel=9 note=42 velocity=99 time=0
EXTRACT: note_on channel=9 note=62 velocity=43 time=0
EXTRACT: note_on channel=9 note=54 velocity=0 time=0.1076922
EXTRACT: note_on channel=9 note=54 velocity=28 time=0
EXTRACT: note_on channel=7 note=72 velocity=0 time=0.0076923
EXTRACT: note_on channel=9 note=40 velocity=0 time=0
EXTRACT: note_on channel=9 note=42 velocity=0 time=0
EXTRACT: note_on channel=9 note=62 velocity=0 time=0
EXTRACT: note_on channel=10 note=60 velocity=0 time=0
EXTRACT: note_on channel=11 note=72 velocity=0 time=0
EXTRACT: note_on channel=11 note=84 velocity=0 time=0
EXTRACT: note_on channel=9 note=54 velocity=0 time=0.1076922
EXTRACT: note_on channel=9 note=54 velocity=31 time=0
EXTRACT: note_on channel=0 note=62 velocity=86 time=0.0076923
EXTRACT: note_on channel=0 note=59 velocity=73 time=0
EXTRACT: note_on channel=0 note=65 velocity=79 time=0
EXTRACT: note_on channel=1 note=33 velocity=0 time=0
EXTRACT: note_on channel=1 note=31 velocity=75 time=0
EXTRACT: note_on channel=3 note=59 velocity=90 time=0
EXTRACT: note_on channel=5 note=50 velocity=117 time=0
EXTRACT: note_on channel=7 note=77 velocity=99 time=0
EXTRACT: note_on channel=9 note=36 velocity=71 time=0
EXTRACT: note_on channel=9 note=42 velocity=31 time=0
EXTRACT: note_on channel=9 note=63 velocity=58 time=0
EXTRACT: note_on channel=11 note=86 velocity=85 time=0
EXTRACT: note_on channel=11 note=74 velocity=85 time=0
EXTRACT: note_on channel=3 note=67 velocity=83 time=0.01153845
EXTRACT: note_on channel=3 note=62 velocity=104 time=0.01153845
EXTRACT: note_on channel=9 note=54 velocity=0 time=0.0846153
EXTRACT: note_on channel=9 note=54 velocity=37 time=0
EXTRACT: note_on channel=9 note=36 velocity=0 time=0.0076923
EXTRACT: note_on channel=9 note=42 velocity=0 time=0
EXTRACT: note_on channel=9 note=63 velocity=0 time=0
EXTRACT: note_on channel=9 note=54 velocity=0 time=0.1076922
EXTRACT: note_on channel=9 note=54 velocity=41 time=0
EXTRACT: note_on channel=1 note=31 velocity=0 time=0.0076923
EXTRACT: note_on channel=9 note=36 velocity=101 time=0
EXTRACT: note_on channel=9 note=42 velocity=99 time=0
EXTRACT: control_change channel=10 control=0 value=0 time=0
EXTRACT: control_change channel=10 control=0 value=0 time=0
EXTRACT: control_change channel=10 control=0 value=0 time=0
EXTRACT: program_change channel=10 program=52 time=0
EXTRACT: note_on channel=9 note=54 velocity=0 time=0.1076922
EXTRACT: note_on channel=9 note=54 velocity=10 time=0
EXTRACT: note_on channel=5 note=50 velocity=0 time=0.0076923
EXTRACT: note_on channel=7 note=77 velocity=0 time=0
EXTRACT: note_on channel=9 note=36 velocity=0 time=0
EXTRACT: note_on channel=9 note=42 velocity=0 time=0
EXTRACT: note_on channel=11 note=74 velocity=0 time=0
EXTRACT: note_on channel=11 note=86 velocity=0 time=0
EXTRACT: note_on channel=9 note=54 velocity=0 time=0.1076922
EXTRACT: note_on channel=9 note=54 velocity=10 time=0
EXTRACT: note_on channel=1 note=31 velocity=94 time=0.0076923
EXTRACT: note_on channel=5 note=50 velocity=115 time=0
EXTRACT: note_on channel=7 note=77 velocity=97 time=0
EXTRACT: note_on channel=9 note=42 velocity=42 time=0
EXTRACT: note_on channel=9 note=62 velocity=38 time=0
EXTRACT: note_on channel=11 note=86 velocity=74 time=0
EXTRACT: note_on channel=11 note=74 velocity=74 time=0
EXTRACT: note_on channel=9 note=54 velocity=0 time=0.1076922
EXTRACT: note_on channel=9 note=54 velocity=11 time=0
EXTRACT: note_on channel=5 note=50 velocity=0 time=0.0076923
EXTRACT: note_on channel=7 note=77 velocity=0 time=0
EXTRACT: note_on channel=9 note=42 velocity=0 time=0
EXTRACT: note_on channel=9 note=62 velocity=0 time=0
EXTRACT: note_on channel=11 note=74 velocity=0 time=0
EXTRACT: note_on channel=11 note=86 velocity=0 time=0
EXTRACT: note_on channel=9 note=54 velocity=0 time=0.1076922
EXTRACT: note_on channel=9 note=54 velocity=11 time=0
EXTRACT: note_on channel=1 note=31 velocity=0 time=0.0076923
EXTRACT: note_on channel=3 note=62 velocity=0 time=0
EXTRACT: note_on channel=3 note=67 velocity=0 time=0
EXTRACT: note_on channel=3 note=59 velocity=0 time=0
EXTRACT: note_on channel=3 note=59 velocity=94 time=0
EXTRACT: note_on channel=5 note=50 velocity=114 time=0
EXTRACT: note_on channel=7 note=77 velocity=99 time=0
EXTRACT: note_on channel=9 note=40 velocity=93 time=0
EXTRACT: note_on channel=9 note=42 velocity=99 time=0
EXTRACT: note_on channel=9 note=62 velocity=49 time=0
EXTRACT: note_on channel=11 note=86 velocity=83 time=0
EXTRACT: note_on channel=11 note=74 velocity=83 time=0
EXTRACT: note_on channel=3 note=67 velocity=90 time=0.01153845
EXTRACT: note_on channel=3 note=62 velocity=110 time=0.01153845
EXTRACT: note_on channel=9 note=54 velocity=0 time=0.0846153
EXTRACT: note_on channel=9 note=54 velocity=11 time=0
EXTRACT: note_on channel=3 note=62 velocity=0 time=0.0076923
EXTRACT: note_on channel=3 note=67 velocity=0 time=0
EXTRACT: note_on channel=3 note=59 velocity=0 time=0
EXTRACT: note_on channel=9 note=40 velocity=0 time=0
EXTRACT: note_on channel=9 note=42 velocity=0 time=0
EXTRACT: note_on channel=9 note=62 velocity=0 time=0
EXTRACT: note_on channel=9 note=54 velocity=0 time=0.1076922
EXTRACT: note_on channel=9 note=54 velocity=13 time=0
EXTRACT: note_on channel=1 note=31 velocity=104 time=0.0076923
EXTRACT: note_on channel=5 note=50 velocity=0 time=0
EXTRACT: note_on channel=5 note=48 velocity=111 time=0
EXTRACT: note_on channel=7 note=77 velocity=0 time=0
EXTRACT: note_on channel=7 note=76 velocity=94 time=0
EXTRACT: note_on channel=9 note=42 velocity=46 time=0
EXTRACT: note_on channel=9 note=64 velocity=70 time=0
EXTRACT: note_on channel=11 note=74 velocity=0 time=0
EXTRACT: note_on channel=11 note=86 velocity=0 time=0
EXTRACT: note_on channel=11 note=84 velocity=64 time=0
EXTRACT: note_on channel=11 note=72 velocity=64 time=0
EXTRACT: note_on channel=9 note=54 velocity=0 time=0.1076922
EXTRACT: note_on channel=9 note=54 velocity=13 time=0
EXTRACT: note_on channel=7 note=76 velocity=0 time=0.0076923
EXTRACT: note_on channel=9 note=42 velocity=0 time=0
EXTRACT: note_on channel=9 note=64 velocity=0 time=0
EXTRACT: note_on channel=9 note=54 velocity=0 time=0.1076922
EXTRACT: note_on channel=9 note=54 velocity=38 time=0
EXTRACT: note_on channel=5 note=48 velocity=0 time=0.0076923
EXTRACT: note_on channel=5 note=52 velocity=111 time=0
EXTRACT: note_on channel=7 note=79 velocity=104 time=0
EXTRACT: note_on channel=9 note=36 velocity=94 time=0
EXTRACT: note_on channel=9 note=42 velocity=94 time=0
EXTRACT: note_on channel=11 note=72 velocity=0 time=0
EXTRACT: note_on channel=11 note=84 velocity=0 time=0
EXTRACT: note_on channel=11 note=88 velocity=82 time=0
EXTRACT: note_on channel=11 note=76 velocity=82 time=0
EXTRACT: note_on channel=9 note=54 velocity=0 time=0.1076922
EXTRACT: note_on channel=9 note=54 velocity=27 time=0
EXTRACT: note_on channel=9 note=36 velocity=0 time=0.0076923
EXTRACT: note_on channel=9 note=42 velocity=0 time=0
EXTRACT: note_on channel=9 note=54 velocity=0 time=0.1076922
EXTRACT: note_on channel=9 note=54 velocity=27 time=0
EXTRACT: note_on channel=1 note=31 velocity=0 time=0.0076923
EXTRACT: note_on channel=1 note=33 velocity=101 time=0
EXTRACT: note_on channel=3 note=67 velocity=92 time=0
EXTRACT: note_on channel=9 note=36 velocity=88 time=0
EXTRACT: note_on channel=9 note=42 velocity=46 time=0
EXTRACT: note_on channel=9 note=62 velocity=48 time=0
EXTRACT: note_on channel=3 note=59 velocity=97 time=0.01153845
EXTRACT: note_on channel=3 note=62 velocity=107 time=0.01153845
EXTRACT: note_on channel=9 note=42 velocity=0 time=0.03461535
EXTRACT: note_on channel=9 note=54 velocity=0 time=0.04999995
EXTRACT: note_on channel=9 note=54 velocity=27 time=0
EXTRACT: note_on channel=3 note=62 velocity=0 time=0.0076923
EXTRACT: note_on channel=3 note=59 velocity=0 time=0
EXTRACT: note_on channel=3 note=67 velocity=0 time=0
EXTRACT: note_on channel=9 note=36 velocity=0 time=0
EXTRACT: note_on channel=9 note=62 velocity=0 time=0
EXTRACT: note_on channel=9 note=54 velocity=0 time=0.1076922
EXTRACT: note_on channel=9 note=54 velocity=36 time=0
EXTRACT: note_on channel=1 note=33 velocity=0 time=0.0076923
EXTRACT: note_on channel=1 note=36 velocity=79 time=0
EXTRACT: note_on channel=5 note=52 velocity=0 time=0
EXTRACT: note_on channel=5 note=50 velocity=109 time=0
EXTRACT: note_on channel=7 note=79 velocity=0 time=0
EXTRACT: note_on channel=7 note=77 velocity=85 time=0
EXTRACT: note_on channel=9 note=40 velocity=93 time=0
EXTRACT: note_on channel=9 note=42 velocity=89 time=0
EXTRACT: note_on channel=9 note=62 velocity=52 time=0
EXTRACT: note_on channel=11 note=76 velocity=0 time=0
EXTRACT: note_on channel=11 note=88 velocity=0 time=0
EXTRACT: note_on channel=11 note=86 velocity=69 time=0
EXTRACT: note_on channel=11 note=74 velocity=69 time=0
EXTRACT: note_on channel=9 note=54 velocity=0 time=0.1076922
EXTRACT: note_on channel=9 note=54 velocity=27 time=0
EXTRACT: note_on channel=9 note=40 velocity=0 time=0.0076923
EXTRACT: note_on channel=9 note=42 velocity=0 time=0
EXTRACT: note_on channel=9 note=62 velocity=0 time=0
EXTRACT: note_on channel=9 note=54 velocity=0 time=0.1076922
EXTRACT: note_on channel=9 note=54 velocity=28 time=0
EXTRACT: note_on channel=0 note=65 velocity=0 time=0.0076923
EXTRACT: note_on channel=1 note=36 velocity=0 time=0
EXTRACT: note_on channel=1 note=33 velocity=101 time=0
EXTRACT: note_on channel=5 note=50 velocity=0 time=0
EXTRACT: note_on channel=5 note=48 velocity=109 time=0
EXTRACT: note_on channel=7 note=77 velocity=0 time=0
EXTRACT: note_on channel=7 note=76 velocity=88 time=0
EXTRACT: note_on channel=9 note=36 velocity=71 time=0
EXTRACT: note_on channel=9 note=42 velocity=51 time=0
EXTRACT: note_on channel=9 note=63 velocity=67 time=0
EXTRACT: note_on channel=11 note=74 velocity=0 time=0
EXTRACT: note_on channel=11 note=86 velocity=0 time=0
EXTRACT: note_on channel=11 note=84 velocity=78 time=0
EXTRACT: note_on channel=11 note=72 velocity=78 time=0
EXTRACT: note_on channel=9 note=54 velocity=0 time=0.1076922
EXTRACT: note_on channel=9 note=54 velocity=38 time=0
EXTRACT: note_on channel=0 note=59 velocity=0 time=0.0076923
EXTRACT: note_on channel=0 note=62 velocity=0 time=0
EXTRACT: note_on channel=9 note=36 velocity=0 time=0
EXTRACT: note_on channel=9 note=42 velocity=0 time=0
EXTRACT: note_on channel=9 note=63 velocity=0 time=0
EXTRACT: note_on channel=9 note=54 velocity=0 time=0.1076922
EXTRACT: note_on channel=9 note=54 velocity=39 time=0
EXTRACT: note_on channel=0 note=60 velocity=86 time=0.0076923
EXTRACT: note_on channel=0 note=64 velocity=83 time=0
EXTRACT: note_on channel=0 note=55 velocity=85 time=0
EXTRACT: note_on channel=1 note=33 velocity=0 time=0
EXTRACT: note_on channel=1 note=36 velocity=97 time=0
EXTRACT: note_on channel=3 note=64 velocity=88 time=0
EXTRACT: note_on channel=5 note=48 velocity=0 time=0
EXTRACT: note_on channel=7 note=76 velocity=0 time=0
EXTRACT: note_on channel=9 note=36 velocity=97 time=0
EXTRACT: note_on channel=9 note=42 velocity=99 time=0
EXTRACT: note_on channel=9 note=63 velocity=50 time=0
EXTRACT: note_on channel=11 note=72 velocity=0 time=0
EXTRACT: note_on channel=11 note=84 velocity=0 time=0
EXTRACT: note_on channel=3 note=72 velocity=78 time=0.01153845
EXTRACT: note_on channel=3 note=67 velocity=104 time=0.01153845
EXTRACT: note_on channel=9 note=54 velocity=0 time=0.0846153
EXTRACT: note_on channel=9 note=54 velocity=7 time=0
EXTRACT: note_on channel=9 note=36 velocity=0 time=0.0076923
EXTRACT: note_on channel=9 note=42 velocity=0 time=0
EXTRACT: note_on channel=9 note=63 velocity=0 time=0
EXTRACT: note_on channel=9 note=54 velocity=0 time=0.1076922
EXTRACT: note_on channel=9 note=54 velocity=7 time=0
EXTRACT: note_on channel=1 note=36 velocity=0 time=0.0076923
EXTRACT: note_on channel=9 note=42 velocity=32 time=0
EXTRACT: note_on channel=9 note=62 velocity=56 time=0
EXTRACT: note_on channel=9 note=54 velocity=0 time=0.1076922
EXTRACT: note_on channel=9 note=54 velocity=7 time=0
EXTRACT: note_on channel=3 note=67 velocity=0 time=0.0076923
EXTRACT: note_on channel=3 note=72 velocity=0 time=0
EXTRACT: note_on channel=3 note=64 velocity=0 time=0
EXTRACT: note_on channel=9 note=42 velocity=0 time=0
EXTRACT: note_on channel=9 note=62 velocity=0 time=0
EXTRACT: note_on channel=9 note=54 velocity=0 time=0.1076922
EXTRACT: note_on channel=9 note=54 velocity=10 time=0
EXTRACT: note_on channel=1 note=36 velocity=97 time=0.0076923
EXTRACT: note_on channel=3 note=64 velocity=88 time=0
EXTRACT: note_on channel=7 note=67 velocity=94 time=0
EXTRACT: note_on channel=9 note=40 velocity=93 time=0
EXTRACT: note_on channel=9 note=42 velocity=99 time=0
EXTRACT: note_on channel=9 note=62 velocity=58 time=0
EXTRACT: note_on channel=10 note=55 velocity=113 time=0
EXTRACT: note_on channel=11 note=79 velocity=76 time=0
EXTRACT: note_on channel=11 note=67 velocity=76 time=0
EXTRACT: note_on channel=3 note=67 velocity=104 time=0.01153845
EXTRACT: note_on channel=3 note=72 velocity=94 time=0.01153845
EXTRACT: note_on channel=9 note=54 velocity=0 time=0.0846153
EXTRACT: note_on channel=9 note=54 velocity=13 time=0
EXTRACT: note_on channel=3 note=72 velocity=0 time=0.0076923
EXTRACT: note_on channel=3 note=67 velocity=0 time=0
EXTRACT: note_on channel=3 note=64 velocity=0 time=0
EXTRACT: note_on channel=9 note=40 velocity=0 time=0
EXTRACT: note_on channel=9 note=42 velocity=0 time=0
EXTRACT: note_on channel=9 note=62 velocity=0 time=0
EXTRACT: note_on channel=9 note=54 velocity=0 time=0.1076922
EXTRACT: note_on channel=9 note=54 velocity=12 time=0
EXTRACT: note_on channel=1 note=36 velocity=0 time=0.0076923
EXTRACT: note_on channel=7 note=67 velocity=0 time=0
EXTRACT: note_on channel=9 note=42 velocity=49 time=0
EXTRACT: note_on channel=9 note=64 velocity=70 time=0
EXTRACT: note_on channel=11 note=67 velocity=0 time=0
EXTRACT: note_on channel=11 note=79 velocity=0 time=0
EXTRACT: note_on channel=9 note=54 velocity=0 time=0.1076922
EXTRACT: note_on channel=9 note=54 velocity=13 time=0
EXTRACT: note_on channel=9 note=42 velocity=0 time=0.0076923
EXTRACT: note_on channel=9 note=64 velocity=0 time=0
EXTRACT: note_on channel=10 note=55 velocity=0 time=0
EXTRACT: note_on channel=9 note=54 velocity=0 time=0.1076922
EXTRACT: note_on channel=9 note=54 velocity=42 time=0
EXTRACT: note_on channel=1 note=36 velocity=94 time=0.0076923
EXTRACT: note_on channel=7 note=67 velocity=101 time=0
EXTRACT: note_on channel=9 note=36 velocity=88 time=0
EXTRACT: note_on channel=9 note=42 velocity=84 time=0
EXTRACT: note_on channel=10 note=55 velocity=117 time=0
EXTRACT: note_on channel=11 note=79 velocity=83 time=0
EXTRACT: note_on channel=11 note=67 velocity=83 time=0
EXTRACT: note_on channel=9 note=54 velocity=0 time=0.1076922
EXTRACT: note_on channel=9 note=54 velocity=28 time=0
EXTRACT: note_on channel=9 note=36 velocity=0 time=0.0076923
EXTRACT: note_on channel=9 note=42 velocity=0 time=0
EXTRACT: note_on channel=9 note=54 velocity=0 time=0.1076922
EXTRACT: note_on channel=9 note=54 velocity=28 time=0
EXTRACT: note_on channel=1 note=36 velocity=0 time=0.0076923
EXTRACT: note_on channel=1 note=31 velocity=79 time=0
EXTRACT: note_on channel=3 note=72 velocity=86 time=0
EXTRACT: note_on channel=7 note=67 velocity=0 time=0
EXTRACT: note_on channel=7 note=72 velocity=97 time=0
EXTRACT: note_on channel=9 note=36 velocity=94 time=0
EXTRACT: note_on channel=9 note=42 velocity=53 time=0
EXTRACT: note_on channel=9 note=62 velocity=36 time=0
EXTRACT: note_on channel=10 note=55 velocity=0 time=0
EXTRACT: note_on channel=10 note=60 velocity=101 time=0
EXTRACT: note_on channel=11 note=67 velocity=0 time=0
EXTRACT: note_on channel=11 note=79 velocity=0 time=0
EXTRACT: note_on channel=11 note=84 velocity=67 time=0
EXTRACT: note_on channel=11 note=72 velocity=67 time=0
EXTRACT: note_on channel=3 note=64 velocity=86 time=0.01153845
EXTRACT: note_on channel=3 note=67 velocity=104 time=0.01153845
EXTRACT: note_on channel=9 note=54 velocity=0 time=0.0846153
EXTRACT: note_on channel=9 note=54 velocity=28 time=0
EXTRACT: note_on channel=3 note=67 velocity=0 time=0.0076923
EXTRACT: note_on channel=3 note=64 velocity=0 time=0
EXTRACT: note_on channel=3 note=72 velocity=0 time=0
EXTRACT: note_on channel=9 note=36 velocity=0 time=0
EXTRACT: note_on channel=9 note=42 velocity=0 time=0
EXTRACT: note_on channel=9 note=62 velocity=0 time=0
EXTRACT: note_on channel=9 note=54 velocity=0 time=0.1076922
EXTRACT: note_on channel=9 note=54 velocity=41 time=0
EXTRACT: note_on channel=0 note=55 velocity=0 time=0.0076923
EXTRACT: note_on channel=0 note=64 velocity=0 time=0
EXTRACT: note_on channel=0 note=60 velocity=0 time=0
EXTRACT: note_on channel=1 note=31 velocity=0 time=0
EXTRACT: note_on channel=1 note=33 velocity=78 time=0
EXTRACT: note_on channel=9 note=40 velocity=93 time=0
EXTRACT: note_on channel=9 note=42 velocity=94 time=0
EXTRACT: note_on channel=9 note=62 velocity=52 time=0
EXTRACT: note_on channel=11 note=72 velocity=0 time=0
EXTRACT: note_on channel=11 note=84 velocity=0 time=0
EXTRACT: note_on channel=9 note=54 velocity=0 time=0.1076922
EXTRACT: note_on channel=9 note=54 velocity=28 time=0
EXTRACT: note_on channel=7 note=72 velocity=0 time=0.0076923
EXTRACT: note_on channel=9 note=40 velocity=0 time=0
EXTRACT: note_on channel=9 note=42 velocity=0 time=0
EXTRACT: note_on channel=9 note=62 velocity=0 time=0
EXTRACT: note_on channel=10 note=60 velocity=0 time=0
EXTRACT: note_on channel=9 note=54 velocity=0 time=0.1076922
EXTRACT: note_on channel=9 note=54 velocity=31 time=0
EXTRACT: note_on channel=0 note=62 velocity=80 time=0.0076923
EXTRACT: note_on channel=0 note=58 velocity=81 time=0
EXTRACT: note_on channel=0 note=55 velocity=82 time=0
EXTRACT: note_on channel=0 note=65 velocity=75 time=0
EXTRACT: note_on channel=1 note=33 velocity=0 time=0
EXTRACT: note_on channel=1 note=34 velocity=109 time=0
EXTRACT: note_on channel=3 note=62 velocity=86 time=0
EXTRACT: note_on channel=7 note=74 velocity=94 time=0
EXTRACT: note_on channel=9 note=36 velocity=70 time=0
EXTRACT: note_on channel=9 note=42 velocity=38 time=0
EXTRACT: note_on channel=9 note=63 velocity=56 time=0
EXTRACT: note_on channel=10 note=62 velocity=101 time=0
EXTRACT: note_on channel=11 note=86 velocity=79 time=0
EXTRACT: note_on channel=11 note=74 velocity=79 time=0
EXTRACT: note_on channel=3 note=65 velocity=94 time=0.01153845
EXTRACT: note_on channel=3 note=70 velocity=92 time=0.01153845
EXTRACT: note_on channel=9 note=54 velocity=0 time=0.0846153
EXTRACT: note_on channel=9 note=54 velocity=37 time=0
EXTRACT: note_on channel=9 note=36 velocity=0 time=0.0076923
EXTRACT: note_on channel=9 note=42 velocity=0 time=0
EXTRACT: note_on channel=9 note=63 velocity=0 time=0
EXTRACT: note_on channel=9 note=54 velocity=0 time=0.1076922
EXTRACT: note_on channel=9 note=54 velocity=41 time=0
EXTRACT: note_on channel=1 note=34 velocity=0 time=0.0076923
EXTRACT: note_on channel=9 note=36 velocity=104 time=0
EXTRACT: note_on channel=9 note=42 velocity=94 time=0
EXTRACT: note_on channel=9 note=54 velocity=0 time=0.1076922
EXTRACT: note_on channel=9 note=54 velocity=10 time=0
EXTRACT: note_on channel=7 note=74 velocity=0 time=0.0076923
EXTRACT: note_on channel=9 note=36 velocity=0 time=0
EXTRACT: note_on channel=9 note=42 velocity=0 time=0
EXTRACT: note_on channel=11 note=74 velocity=0 time=0
EXTRACT: note_on channel=11 note=86 velocity=0 time=0
EXTRACT: note_on channel=9 note=54 velocity=0 time=0.1076922
EXTRACT: note_on channel=9 note=54 velocity=10 time=0
EXTRACT: note_on channel=1 note=34 velocity=89 time=0.0076923
EXTRACT: note_on channel=9 note=42 velocity=40 time=0
EXTRACT: note_on channel=9 note=62 velocity=46 time=0
EXTRACT: note_on channel=1 note=34 velocity=0 time=0.076923
EXTRACT: note_on channel=9 note=54 velocity=0 time=0.0307692
EXTRACT: note_on channel=9 note=54 velocity=11 time=0
EXTRACT: note_on channel=3 note=70 velocity=0 time=0.0076923
EXTRACT: note_on channel=3 note=65 velocity=0 time=0
EXTRACT: note_on channel=3 note=62 velocity=0 time=0
EXTRACT: note_on channel=9 note=42 velocity=0 time=0
EXTRACT: note_on channel=9 note=62 velocity=0 time=0
EXTRACT: note_on channel=10 note=62 velocity=0 time=0
EXTRACT: note_on channel=9 note=54 velocity=0 time=0.1076922
EXTRACT: note_on channel=9 note=54 velocity=11 time=0
EXTRACT: note_on channel=1 note=34 velocity=119 time=0.0076923
EXTRACT: note_on channel=3 note=65 velocity=94 time=0
EXTRACT: note_on channel=7 note=79 velocity=88 time=0
EXTRACT: note_on channel=9 note=40 velocity=87 time=0
EXTRACT: note_on channel=9 note=42 velocity=94 time=0
EXTRACT: note_on channel=9 note=62 velocity=50 time=0
EXTRACT: note_on channel=10 note=67 velocity=92 time=0
EXTRACT: note_on channel=11 note=91 velocity=88 time=0
EXTRACT: note_on channel=11 note=79 velocity=88 time=0
EXTRACT: note_on channel=3 note=62 velocity=85 time=0.01153845
EXTRACT: note_on channel=3 note=70 velocity=104 time=0.01153845
EXTRACT: note_on channel=9 note=54 velocity=0 time=0.0846153
EXTRACT: note_on channel=9 note=54 velocity=11 time=0
EXTRACT: note_on channel=3 note=70 velocity=0 time=0.0076923
EXTRACT: note_on channel=3 note=62 velocity=0 time=0
EXTRACT: note_on channel=3 note=65 velocity=0 time=0
EXTRACT: note_on channel=9 note=40 velocity=0 time=0
EXTRACT: note_on channel=9 note=42 velocity=0 time=0
EXTRACT: note_on channel=9 note=62 velocity=0 time=0
EXTRACT: note_on channel=9 note=54 velocity=0 time=0.1076922
EXTRACT: note_on channel=9 note=54 velocity=13 time=0
EXTRACT: note_on channel=9 note=42 velocity=34 time=0.0076923
EXTRACT: note_on channel=9 note=64 velocity=66 time=0
EXTRACT: note_on channel=9 note=54 velocity=0 time=0.1076922
EXTRACT: note_on channel=9 note=54 velocity=13 time=0
EXTRACT: note_on channel=7 note=79 velocity=0 time=0.0076923
EXTRACT: note_on channel=9 note=42 velocity=0 time=0
EXTRACT: note_on channel=9 note=64 velocity=0 time=0
EXTRACT: note_on channel=10 note=67 velocity=0 time=0
EXTRACT: note_on channel=11 note=79 velocity=0 time=0
EXTRACT: note_on channel=11 note=91 velocity=0 time=0
EXTRACT: note_on channel=9 note=54 velocity=0 time=0.1076922
EXTRACT: note_on channel=9 note=54 velocity=38 time=0
EXTRACT: note_on channel=7 note=76 velocity=92 time=0.0076923
EXTRACT: note_on channel=9 note=36 velocity=86 time=0
EXTRACT: note_on channel=9 note=42 velocity=94 time=0
EXTRACT: note_on channel=10 note=64 velocity=104 time=0
EXTRACT: note_on channel=11 note=88 velocity=72 time=0
EXTRACT: note_on channel=11 note=76 velocity=72 time=0
EXTRACT: note_on channel=9 note=54 velocity=0 time=0.1076922
EXTRACT: note_on channel=9 note=54 velocity=27 time=0
EXTRACT: note_on channel=9 note=36 velocity=0 time=0.0076923
EXTRACT: note_on channel=9 note=42 velocity=0 time=0
EXTRACT: note_on channel=9 note=54 velocity=0 time=0.1076922
EXTRACT: note_on channel=9 note=54 velocity=27 time=0
EXTRACT: note_on channel=1 note=34 velocity=0 time=0.0076923
EXTRACT: note_on channel=1 note=31 velocity=79 time=0
EXTRACT: note_on channel=3 note=62 velocity=90 time=0
EXTRACT: note_on channel=7 note=76 velocity=0 time=0
EXTRACT: note_on channel=7 note=72 velocity=88 time=0
EXTRACT: note_on channel=9 note=36 velocity=85 time=0
EXTRACT: note_on channel=9 note=42 velocity=31 time=0
EXTRACT: note_on channel=9 note=62 velocity=36 time=0
EXTRACT: note_on channel=10 note=64 velocity=0 time=0
EXTRACT: note_on channel=10 note=60 velocity=99 time=0
EXTRACT: note_on channel=11 note=76 velocity=0 time=0
EXTRACT: note_on channel=11 note=88 velocity=0 time=0
EXTRACT: note_on channel=11 note=84 velocity=73 time=0
EXTRACT: note_on channel=11 note=72 velocity=73 time=0
EXTRACT: note_on channel=3 note=65 velocity=101 time=0.01153845
EXTRACT: note_on channel=3 note=70 velocity=96 time=0.01153845
EXTRACT: note_on channel=9 note=54 velocity=0 time=0.0846153
EXTRACT: note_on channel=9 note=54 velocity=27 time=0
EXTRACT: note_on channel=3 note=70 velocity=0 time=0.0076923
EXTRACT: note_on channel=3 note=65 velocity=0 time=0
EXTRACT: note_on channel=3 note=62 velocity=0 time=0
EXTRACT: note_on channel=9 note=36 velocity=0 time=0
EXTRACT: note_on channel=9 note=42 velocity=0 time=0
EXTRACT: note_on channel=9 note=62 velocity=0 time=0
EXTRACT: note_on channel=9 note=54 velocity=0 time=0.1076922
EXTRACT: note_on channel=9 note=54 velocity=36 time=0
EXTRACT: note_on channel=1 note=31 velocity=0 time=0.0076923
EXTRACT: note_on channel=1 note=34 velocity=79 time=0
EXTRACT: note_on channel=9 note=40 velocity=87 time=0
EXTRACT: note_on channel=9 note=42 velocity=99 time=0
EXTRACT: note_on channel=9 note=62 velocity=50 time=0
EXTRACT: note_on channel=9 note=54 velocity=0 time=0.1076922
EXTRACT: note_on channel=9 note=54 velocity=27 time=0
EXTRACT: note_on channel=7 note=72 velocity=0 time=0.0076923
EXTRACT: note_on channel=9 note=40 velocity=0 time=0
EXTRACT: note_on channel=9 note=42 velocity=0 time=0
EXTRACT: note_on channel=9 note=62 velocity=0 time=0
EXTRACT: note_on channel=10 note=60 velocity=0 time=0
EXTRACT: note_on channel=11 note=72 velocity=0 time=0
EXTRACT: note_on channel=11 note=84 velocity=0 time=0
EXTRACT: note_on channel=9 note=54 velocity=0 time=0.1076922
EXTRACT: note_on channel=9 note=54 velocity=28 time=0
EXTRACT: note_on channel=1 note=34 velocity=0 time=0.0076923
EXTRACT: note_on channel=1 note=36 velocity=68 time=0
EXTRACT: note_on channel=7 note=67 velocity=88 time=0
EXTRACT: note_on channel=9 note=36 velocity=71 time=0
EXTRACT: note_on channel=9 note=42 velocity=38 time=0
EXTRACT: note_on channel=9 note=63 velocity=58 time=0
EXTRACT: note_on channel=10 note=55 velocity=110 time=0
EXTRACT: note_on channel=11 note=79 velocity=74 time=0
EXTRACT: note_on channel=11 note=67 velocity=74 time=0
EXTRACT: note_on channel=9 note=54 velocity=0 time=0.1076922
EXTRACT: note_on channel=9 note=54 velocity=38 time=0
EXTRACT: note_on channel=0 note=65 velocity=0 time=0.0076923
EXTRACT: note_on channel=0 note=62 velocity=0 time=0
EXTRACT: note_on channel=0 note=58 velocity=0 time=0
EXTRACT: note_on channel=0 note=55 velocity=0 time=0
EXTRACT: note_on channel=9 note=36 velocity=0 time=0
EXTRACT: note_on channel=9 note=42 velocity=0 time=0
EXTRACT: note_on channel=9 note=63 velocity=0 time=0
EXTRACT: note_on channel=9 note=54 velocity=0 time=0.1076922
EXTRACT: note_on channel=9 note=54 velocity=39 time=0
EXTRACT: note_on channel=0 note=60 velocity=78 time=0.0076923
EXTRACT: note_on channel=0 note=57 velocity=67 time=0
EXTRACT: note_on channel=0 note=64 velocity=73 time=0
EXTRACT: note_on channel=1 note=36 velocity=0 time=0
EXTRACT: note_on channel=1 note=33 velocity=101 time=0
EXTRACT: note_on channel=3 note=60 velocity=86 time=0
EXTRACT: note_on channel=9 note=36 velocity=101 time=0
EXTRACT: note_on channel=9 note=42 velocity=99 time=0
EXTRACT: note_on channel=3 note=69 velocity=85 time=0.01153845
EXTRACT: note_on channel=3 note=64 velocity=101 time=0.01153845
EXTRACT: note_on channel=9 note=54 velocity=0 time=0.0846153
EXTRACT: note_on channel=9 note=54 velocity=7 time=0
EXTRACT: note_on channel=7 note=67 velocity=0 time=0.0076923
EXTRACT: note_on channel=9 note=36 velocity=0 time=0
EXTRACT: note_on channel=9 note=42 velocity=0 time=0
EXTRACT: note_on channel=11 note=67 velocity=0 time=0
EXTRACT: note_on channel=11 note=79 velocity=0 time=0
EXTRACT: note_on channel=9 note=54 velocity=0 time=0.1076922
EXTRACT: note_on channel=9 note=54 velocity=7 time=0
EXTRACT: note_on channel=1 note=33 velocity=0 time=0.0076923
EXTRACT: note_on channel=9 note=42 velocity=27 time=0
EXTRACT: note_on channel=9 note=62 velocity=34 time=0
EXTRACT: note_on channel=9 note=54 velocity=0 time=0.1076922
EXTRACT: note_on channel=9 note=54 velocity=7 time=0
EXTRACT: note_on channel=3 note=69 velocity=0 time=0.0076923
EXTRACT: note_on channel=9 note=42 velocity=0 time=0
EXTRACT: note_on channel=9 note=62 velocity=0 time=0
EXTRACT: note_on channel=10 note=55 velocity=0 time=0
EXTRACT: note_on channel=9 note=54 velocity=0 time=0.1076922
EXTRACT: note_on channel=9 note=54 velocity=10 time=0
EXTRACT: note_on channel=1 note=33 velocity=110 time=0.0076923
EXTRACT: note_on channel=3 note=64 velocity=0 time=0
EXTRACT: note_on channel=3 note=60 velocity=0 time=0
EXTRACT: note_on channel=3 note=60 velocity=83 time=0
EXTRACT: note_on channel=7 note=67 velocity=92 time=0
EXTRACT: note_on channel=9 note=40 velocity=93 time=0
EXTRACT: note_on channel=9 note=42 velocity=94 time=0
EXTRACT: note_on channel=9 note=62 velocity=46 time=0
EXTRACT: note_on channel=10 note=55 velocity=117 time=0
EXTRACT: note_on channel=11 note=79 velocity=82 time=0
EXTRACT: note_on channel=11 note=67 velocity=82 time=0
EXTRACT: note_on channel=3 note=69 velocity=85 time=0.01153845
EXTRACT: note_on channel=3 note=64 velocity=99 time=0.01153845
EXTRACT: note_on channel=9 note=54 velocity=0 time=0.0846153
EXTRACT: note_on channel=9 note=54 velocity=13 time=0
EXTRACT: note_on channel=3 note=64 velocity=0 time=0.0076923
EXTRACT: note_on channel=3 note=69 velocity=0 time=0
EXTRACT: note_on channel=3 note=60 velocity=0 time=0
EXTRACT: note_on channel=9 note=40 velocity=0 time=0
EXTRACT: note_on channel=9 note=42 velocity=0 time=0
EXTRACT: note_on channel=9 note=62 velocity=0 time=0
EXTRACT: note_on channel=9 note=54 velocity=0 time=0.1076922
EXTRACT: note_on channel=9 note=54 velocity=12 time=0
EXTRACT: note_on channel=1 note=33 velocity=0 time=0.0076923
EXTRACT: note_on channel=9 note=42 velocity=23 time=0
EXTRACT: note_on channel=9 note=64 velocity=66 time=0
EXTRACT: note_on channel=9 note=54 velocity=0 time=0.1076922
EXTRACT: note_on channel=9 note=54 velocity=13 time=0
EXTRACT: note_on channel=7 note=67 velocity=0 time=0.0076923
EXTRACT: note_on channel=9 note=42 velocity=0 time=0
EXTRACT: note_on channel=9 note=64 velocity=0 time=0
EXTRACT: note_on channel=10 note=55 velocity=0 time=0
EXTRACT: note_on channel=11 note=67 velocity=0 time=0
EXTRACT: note_on channel=11 note=79 velocity=0 time=0
EXTRACT: note_on channel=9 note=54 velocity=0 time=0.1076922
EXTRACT: note_on channel=9 note=54 velocity=42 time=0
EXTRACT: note_on channel=1 note=33 velocity=104 time=0.0076923
EXTRACT: note_on channel=7 note=67 velocity=99 time=0
EXTRACT: note_on channel=9 note=36 velocity=85 time=0
EXTRACT: note_on channel=9 note=42 velocity=99 time=0
EXTRACT: note_on channel=10 note=55 velocity=110 time=0
EXTRACT: note_on channel=11 note=79 velocity=86 time=0
EXTRACT: note_on channel=11 note=67 velocity=86 time=0
EXTRACT: note_on channel=9 note=54 velocity=0 time=0.1076922
EXTRACT: note_on channel=9 note=54 velocity=28 time=0
EXTRACT: note_on channel=9 note=36 velocity=0 time=0.0076923
EXTRACT: note_on channel=9 note=42 velocity=0 time=0
EXTRACT: note_on channel=9 note=54 velocity=0 time=0.1076922
EXTRACT: note_on channel=9 note=54 velocity=28 time=0
EXTRACT: note_on channel=1 note=33 velocity=0 time=0.0076923
EXTRACT: note_on channel=1 note=29 velocity=80 time=0
EXTRACT: note_on channel=3 note=69 velocity=94 time=0
EXTRACT: note_on channel=7 note=67 velocity=0 time=0
EXTRACT: note_on channel=7 note=72 velocity=82 time=0
EXTRACT: note_on channel=9 note=36 velocity=83 time=0
EXTRACT: note_on channel=9 note=42 velocity=53 time=0
EXTRACT: note_on channel=9 note=62 velocity=37 time=0
EXTRACT: note_on channel=10 note=55 velocity=0 time=0
EXTRACT: note_on channel=10 note=60 velocity=101 time=0
EXTRACT: note_on channel=11 note=67 velocity=0 time=0
EXTRACT: note_on channel=11 note=79 velocity=0 time=0
EXTRACT: note_on channel=11 note=84 velocity=71 time=0
EXTRACT: note_on channel=11 note=72 velocity=71 time=0
EXTRACT: note_on channel=3 note=60 velocity=92 time=0.01153845
EXTRACT: note_on channel=3 note=64 velocity=104 time=0.01153845
EXTRACT: note_on channel=9 note=54 velocity=0 time=0.0846153
EXTRACT: note_on channel=9 note=54 velocity=28 time=0
EXTRACT: note_on channel=3 note=64 velocity=0 time=0.0076923
EXTRACT: note_on channel=3 note=60 velocity=0 time=0
EXTRACT: note_on channel=3 note=69 velocity=0 time=0
EXTRACT: note_on channel=9 note=36 velocity=0 time=0
EXTRACT: note_on channel=9 note=42 velocity=0 time=0
EXTRACT: note_on channel=9 note=62 velocity=0 time=0
EXTRACT: note_on channel=9 note=54 velocity=0 time=0.1076922
EXTRACT: note_on channel=9 note=54 velocity=41 time=0
EXTRACT: note_on channel=1 note=29 velocity=0 time=0.0076923
EXTRACT: note_on channel=1 note=33 velocity=92 time=0
EXTRACT: note_on channel=9 note=40 velocity=100 time=0
EXTRACT: note_on channel=9 note=42 velocity=99 time=0
EXTRACT: note_on channel=9 note=62 velocity=43 time=0
EXTRACT: note_on channel=9 note=54 velocity=0 time=0.1076922
EXTRACT: note_on channel=9 note=54 velocity=28 time=0
EXTRACT: note_on channel=0 note=64 velocity=0 time=0.0076923
EXTRACT: note_on channel=0 note=57 velocity=0 time=0
EXTRACT: note_on channel=0 note=60 velocity=0 time=0
EXTRACT: note_on channel=7 note=72 velocity=0 time=0
EXTRACT: note_on channel=9 note=40 velocity=0 time=0
EXTRACT: note_on channel=9 note=42 velocity=0 time=0
EXTRACT: note_on channel=9 note=62 velocity=0 time=0
EXTRACT: note_on channel=10 note=60 velocity=0 time=0
EXTRACT: note_on channel=11 note=72 velocity=0 time=0
EXTRACT: note_on channel=11 note=84 velocity=0 time=0
EXTRACT: note_on channel=9 note=54 velocity=0 time=0.1076922
EXTRACT: note_on channel=9 note=54 velocity=31 time=0
EXTRACT: note_on channel=0 note=62 velocity=82 time=0.0076923
EXTRACT: note_on channel=0 note=59 velocity=72 time=0
EXTRACT: note_on channel=0 note=65 velocity=83 time=0
EXTRACT: note_on channel=1 note=33 velocity=0 time=0
EXTRACT: note_on channel=1 note=31 velocity=75 time=0
EXTRACT: note_on channel=3 note=67 velocity=92 time=0
EXTRACT: note_on channel=5 note=50 velocity=112 time=0
EXTRACT: note_on channel=7 note=77 velocity=94 time=0
EXTRACT: note_on channel=9 note=36 velocity=71 time=0
EXTRACT: note_on channel=9 note=42 velocity=31 time=0
EXTRACT: note_on channel=9 note=63 velocity=58 time=0
EXTRACT: note_on channel=11 note=86 velocity=76 time=0
EXTRACT: note_on channel=11 note=74 velocity=76 time=0
EXTRACT: note_on channel=3 note=59 velocity=92 time=0.01153845
EXTRACT: note_on channel=3 note=62 velocity=107 time=0.01153845
EXTRACT: note_on channel=9 note=54 velocity=0 time=0.0846153
EXTRACT: note_on channel=9 note=54 velocity=37 time=0
EXTRACT: note_on channel=9 note=36 velocity=0 time=0.0076923
EXTRACT: note_on channel=9 note=42 velocity=0 time=0
EXTRACT: note_on channel=9 note=63 velocity=0 time=0
EXTRACT: note_on channel=9 note=54 velocity=0 time=0.1076922
EXTRACT: note_on channel=9 note=54 velocity=41 time=0
EXTRACT: note_on channel=1 note=31 velocity=0 time=0.0076923
EXTRACT: note_on channel=9 note=36 velocity=101 time=0
EXTRACT: note_on channel=9 note=42 velocity=99 time=0
EXTRACT: note_on channel=9 note=54 velocity=0 time=0.1076922
EXTRACT: note_on channel=9 note=54 velocity=10 time=0
EXTRACT: note_on channel=5 note=50 velocity=0 time=0.0076923
EXTRACT: note_on channel=7 note=77 velocity=0 time=0
EXTRACT: note_on channel=9 note=36 velocity=0 time=0
EXTRACT: note_on channel=9 note=42 velocity=0 time=0
EXTRACT: note_on channel=11 note=74 velocity=0 time=0
EXTRACT: note_on channel=11 note=86 velocity=0 time=0
EXTRACT: note_on channel=9 note=54 velocity=0 time=0.1076922
EXTRACT: note_on channel=9 note=54 velocity=10 time=0
EXTRACT: note_on channel=1 note=31 velocity=94 time=0.0076923
EXTRACT: note_on channel=5 note=50 velocity=112 time=0
EXTRACT: note_on channel=7 note=77 velocity=92 time=0
EXTRACT: note_on channel=9 note=42 velocity=42 time=0
EXTRACT: note_on channel=9 note=62 velocity=38 time=0
EXTRACT: note_on channel=11 note=86 velocity=79 time=0
EXTRACT: note_on channel=11 note=74 velocity=79 time=0
EXTRACT: note_on channel=9 note=54 velocity=0 time=0.1076922
EXTRACT: note_on channel=9 note=54 velocity=11 time=0
EXTRACT: note_on channel=3 note=62 velocity=0 time=0.0076923
EXTRACT: note_on channel=3 note=59 velocity=0 time=0
EXTRACT: note_on channel=3 note=67 velocity=0 time=0
EXTRACT: note_on channel=5 note=50 velocity=0 time=0
EXTRACT: note_on channel=7 note=77 velocity=0 time=0
EXTRACT: note_on channel=9 note=42 velocity=0 time=0
EXTRACT: note_on channel=9 note=62 velocity=0 time=0
EXTRACT: note_on channel=11 note=74 velocity=0 time=0
EXTRACT: note_on channel=11 note=86 velocity=0 time=0
EXTRACT: note_on channel=9 note=54 velocity=0 time=0.1076922
EXTRACT: note_on channel=9 note=54 velocity=11 time=0
EXTRACT: note_on channel=1 note=31 velocity=0 time=0.0076923
EXTRACT: note_on channel=3 note=67 velocity=82 time=0
EXTRACT: note_on channel=5 note=50 velocity=112 time=0
EXTRACT: note_on channel=7 note=77 velocity=90 time=0
EXTRACT: note_on channel=9 note=40 velocity=93 time=0
EXTRACT: note_on channel=9 note=42 velocity=99 time=0
EXTRACT: note_on channel=9 note=62 velocity=49 time=0
EXTRACT: note_on channel=11 note=86 velocity=76 time=0
EXTRACT: note_on channel=11 note=74 velocity=76 time=0
EXTRACT: note_on channel=3 note=59 velocity=85 time=0.01153845
EXTRACT: note_on channel=3 note=62 velocity=101 time=0.01153845
EXTRACT: note_on channel=9 note=54 velocity=0 time=0.0846153
EXTRACT: note_on channel=9 note=54 velocity=11 time=0
EXTRACT: note_on channel=3 note=62 velocity=0 time=0.0076923
EXTRACT: note_on channel=3 note=59 velocity=0 time=0
EXTRACT: note_on channel=3 note=67 velocity=0 time=0
EXTRACT: note_on channel=9 note=40 velocity=0 time=0
EXTRACT: note_on channel=9 note=42 velocity=0 time=0
EXTRACT: note_on channel=9 note=62 velocity=0 time=0
EXTRACT: note_on channel=9 note=54 velocity=0 time=0.1076922
EXTRACT: note_on channel=9 note=54 velocity=13 time=0
EXTRACT: note_on channel=1 note=31 velocity=104 time=0.0076923
EXTRACT: note_on channel=5 note=50 velocity=0 time=0
EXTRACT: note_on channel=5 note=48 velocity=112 time=0
EXTRACT: note_on channel=7 note=77 velocity=0 time=0
EXTRACT: note_on channel=7 note=76 velocity=94 time=0
EXTRACT: note_on channel=9 note=42 velocity=46 time=0
EXTRACT: note_on channel=9 note=64 velocity=70 time=0
EXTRACT: note_on channel=11 note=74 velocity=0 time=0
EXTRACT: note_on channel=11 note=86 velocity=0 time=0
EXTRACT: note_on channel=11 note=84 velocity=63 time=0
EXTRACT: note_on channel=11 note=72 velocity=63 time=0
EXTRACT: note_on channel=9 note=54 velocity=0 time=0.1076922
EXTRACT: note_on channel=9 note=54 velocity=13 time=0
EXTRACT: note_on channel=7 note=76 velocity=0 time=0.0076923
EXTRACT: note_on channel=9 note=42 velocity=0 time=0
EXTRACT: note_on channel=9 note=64 velocity=0 time=0
EXTRACT: note_on channel=9 note=54 velocity=0 time=0.1076922
EXTRACT: note_on channel=9 note=54 velocity=38 time=0
EXTRACT: note_on channel=5 note=48 velocity=0 time=0.0076923
EXTRACT: note_on channel=5 note=52 velocity=112 time=0
EXTRACT: note_on channel=7 note=79 velocity=99 time=0
EXTRACT: note_on channel=9 note=36 velocity=94 time=0
EXTRACT: note_on channel=9 note=42 velocity=94 time=0
EXTRACT: note_on channel=11 note=72 velocity=0 time=0
EXTRACT: note_on channel=11 note=84 velocity=0 time=0
EXTRACT: note_on channel=11 note=88 velocity=76 time=0
EXTRACT: note_on channel=11 note=76 velocity=76 time=0
EXTRACT: note_on channel=9 note=54 velocity=0 time=0.1076922
EXTRACT: note_on channel=9 note=54 velocity=27 time=0
EXTRACT: note_on channel=9 note=36 velocity=0 time=0.0076923
EXTRACT: note_on channel=9 note=42 velocity=0 time=0
EXTRACT: note_on channel=9 note=54 velocity=0 time=0.1076922
EXTRACT: note_on channel=9 note=54 velocity=27 time=0
EXTRACT: note_on channel=1 note=31 velocity=0 time=0.0076923
EXTRACT: note_on channel=1 note=33 velocity=101 time=0
EXTRACT: note_on channel=3 note=67 velocity=94 time=0
EXTRACT: note_on channel=9 note=36 velocity=88 time=0
EXTRACT: note_on channel=9 note=42 velocity=46 time=0
EXTRACT: note_on channel=9 note=62 velocity=48 time=0
EXTRACT: note_on channel=3 note=59 velocity=94 time=0.01153845
EXTRACT: note_on channel=3 note=62 velocity=110 time=0.01153845
EXTRACT: note_on channel=9 note=42 velocity=0 time=0.03461535
EXTRACT: note_on channel=9 note=54 velocity=0 time=0.04999995
EXTRACT: note_on channel=9 note=54 velocity=27 time=0
EXTRACT: note_on channel=3 note=62 velocity=0 time=0.0076923
EXTRACT: note_on channel=3 note=59 velocity=0 time=0
EXTRACT: note_on channel=3 note=67 velocity=0 time=0
EXTRACT: note_on channel=9 note=36 velocity=0 time=0
EXTRACT: note_on channel=9 note=62 velocity=0 time=0
EXTRACT: note_on channel=9 note=54 velocity=0 time=0.1076922
EXTRACT: note_on channel=9 note=54 velocity=36 time=0
EXTRACT: note_on channel=0 note=65 velocity=0 time=0.0076923
EXTRACT: note_on channel=1 note=33 velocity=0 time=0
EXTRACT: note_on channel=1 note=36 velocity=79 time=0
EXTRACT: note_on channel=5 note=52 velocity=0 time=0
EXTRACT: note_on channel=5 note=50 velocity=112 time=0
EXTRACT: note_on channel=7 note=79 velocity=0 time=0
EXTRACT: note_on channel=7 note=77 velocity=83 time=0
EXTRACT: note_on channel=9 note=40 velocity=93 time=0
EXTRACT: note_on channel=9 note=42 velocity=89 time=0
EXTRACT: note_on channel=9 note=62 velocity=52 time=0
EXTRACT: note_on channel=11 note=76 velocity=0 time=0
EXTRACT: note_on channel=11 note=88 velocity=0 time=0
EXTRACT: note_on channel=11 note=86 velocity=69 time=0
EXTRACT: note_on channel=11 note=74 velocity=69 time=0
EXTRACT: note_on channel=9 note=54 velocity=0 time=0.1076922
EXTRACT: note_on channel=9 note=54 velocity=27 time=0
EXTRACT: note_on channel=0 note=59 velocity=0 time=0.0076923
EXTRACT: note_on channel=0 note=62 velocity=0 time=0
EXTRACT: note_on channel=9 note=40 velocity=0 time=0
EXTRACT: note_on channel=9 note=42 velocity=0 time=0
EXTRACT: note_on channel=9 note=62 velocity=0 time=0
EXTRACT: note_on channel=9 note=54 velocity=0 time=0.1076922
EXTRACT: note_on channel=9 note=54 velocity=28 time=0
EXTRACT: note_on channel=1 note=36 velocity=0 time=0.0076923
EXTRACT: note_on channel=1 note=33 velocity=101 time=0
EXTRACT: note_on channel=5 note=50 velocity=0 time=0
EXTRACT: note_on channel=5 note=48 velocity=112 time=0
EXTRACT: note_on channel=7 note=77 velocity=0 time=0
EXTRACT: note_on channel=7 note=76 velocity=90 time=0
EXTRACT: note_on channel=9 note=36 velocity=71 time=0
EXTRACT: note_on channel=9 note=42 velocity=51 time=0
EXTRACT: note_on channel=9 note=63 velocity=67 time=0
EXTRACT: note_on channel=11 note=74 velocity=0 time=0
EXTRACT: note_on channel=11 note=86 velocity=0 time=0
EXTRACT: note_on channel=11 note=84 velocity=66 time=0
EXTRACT: note_on channel=11 note=72 velocity=66 time=0
EXTRACT: note_on channel=9 note=54 velocity=0 time=0.1076922
EXTRACT: note_on channel=9 note=54 velocity=38 time=0
EXTRACT: note_on channel=9 note=36 velocity=0 time=0.0076923
EXTRACT: note_on channel=9 note=42 velocity=0 time=0
EXTRACT: note_on channel=9 note=63 velocity=0 time=0
EXTRACT: note_on channel=9 note=54 velocity=0 time=0.1076922
EXTRACT: note_on channel=9 note=54 velocity=39 time=0
EXTRACT: note_on channel=0 note=55 velocity=94 time=0.0076923
EXTRACT: note_on channel=0 note=60 velocity=97 time=0
EXTRACT: note_on channel=0 note=64 velocity=76 time=0
EXTRACT: note_on channel=1 note=33 velocity=0 time=0
EXTRACT: note_on channel=1 note=36 velocity=97 time=0
EXTRACT: note_on channel=3 note=72 velocity=80 time=0
EXTRACT: note_on channel=5 note=48 velocity=0 time=0
EXTRACT: note_on channel=7 note=76 velocity=0 time=0
EXTRACT: note_on channel=9 note=36 velocity=97 time=0
EXTRACT: note_on channel=9 note=42 velocity=99 time=0
EXTRACT: note_on channel=9 note=49 velocity=75 time=0
EXTRACT: note_on channel=9 note=63 velocity=50 time=0
EXTRACT: note_on channel=11 note=72 velocity=0 time=0
EXTRACT: note_on channel=11 note=84 velocity=0 time=0
EXTRACT: note_on channel=3 note=67 velocity=85 time=0.01153845
EXTRACT: note_on channel=3 note=64 velocity=82 time=0.01153845
EXTRACT: note_on channel=9 note=54 velocity=0 time=0.0846153
EXTRACT: note_on channel=9 note=54 velocity=7 time=0
EXTRACT: note_on channel=9 note=36 velocity=0 time=0.0076923
EXTRACT: note_on channel=9 note=42 velocity=0 time=0
EXTRACT: note_on channel=9 note=49 velocity=0 time=0
EXTRACT: note_on channel=9 note=63 velocity=0 time=0
EXTRACT: note_on channel=9 note=54 velocity=0 time=0.1076922
EXTRACT: note_on channel=9 note=54 velocity=7 time=0
EXTRACT: note_on channel=1 note=36 velocity=0 time=0.0076923
EXTRACT: note_on channel=9 note=42 velocity=32 time=0
EXTRACT: note_on channel=9 note=62 velocity=56 time=0
EXTRACT: note_on channel=9 note=54 velocity=0 time=0.1076922
EXTRACT: note_on channel=9 note=54 velocity=7 time=0
EXTRACT: note_on channel=3 note=64 velocity=0 time=0.0076923
EXTRACT: note_on channel=3 note=67 velocity=0 time=0
EXTRACT: note_on channel=3 note=72 velocity=0 time=0
EXTRACT: note_on channel=9 note=42 velocity=0 time=0
EXTRACT: note_on channel=9 note=62 velocity=0 time=0
EXTRACT: note_on channel=9 note=54 velocity=0 time=0.1076922
EXTRACT: note_on channel=9 note=54 velocity=10 time=0
EXTRACT: note_on channel=1 note=36 velocity=97 time=0.0076923
EXTRACT: note_on channel=3 note=67 velocity=101 time=0
EXTRACT: note_on channel=8 note=64 velocity=117 time=0
EXTRACT: note_on channel=9 note=40 velocity=93 time=0
EXTRACT: note_on channel=9 note=42 velocity=99 time=0
EXTRACT: note_on channel=9 note=62 velocity=58 time=0
EXTRACT: note_on channel=3 note=64 velocity=90 time=0.01153845
EXTRACT: note_on channel=3 note=72 velocity=94 time=0.01153845
EXTRACT: note_on channel=9 note=54 velocity=0 time=0.0846153
EXTRACT: note_on channel=9 note=54 velocity=13 time=0
EXTRACT: note_on channel=3 note=72 velocity=0 time=0.0076923
EXTRACT: note_on channel=3 note=64 velocity=0 time=0
EXTRACT: note_on channel=3 note=67 velocity=0 time=0
EXTRACT: note_on channel=9 note=40 velocity=0 time=0
EXTRACT: note_on channel=9 note=42 velocity=0 time=0
EXTRACT: note_on channel=9 note=62 velocity=0 time=0
EXTRACT: note_on channel=9 note=54 velocity=0 time=0.1076922
EXTRACT: note_on channel=9 note=54 velocity=12 time=0
EXTRACT: note_on channel=1 note=36 velocity=0 time=0.0076923
EXTRACT: note_on channel=8 note=64 velocity=0 time=0
EXTRACT: note_on channel=8 note=67 velocity=99 time=0
EXTRACT: note_on channel=9 note=42 velocity=49 time=0
EXTRACT: note_on channel=9 note=64 velocity=70 time=0
EXTRACT: note_on channel=9 note=54 velocity=0 time=0.1076922
EXTRACT: note_on channel=9 note=54 velocity=13 time=0
EXTRACT: note_on channel=8 note=67 velocity=0 time=0.0076923
EXTRACT: note_on channel=9 note=42 velocity=0 time=0
EXTRACT: note_on channel=9 note=64 velocity=0 time=0
EXTRACT: note_on channel=9 note=54 velocity=0 time=0.1076922
EXTRACT: note_on channel=9 note=54 velocity=42 time=0
EXTRACT: note_on channel=1 note=36 velocity=94 time=0.0076923
EXTRACT: note_on channel=8 note=67 velocity=99 time=0
EXTRACT: note_on channel=9 note=36 velocity=88 time=0
EXTRACT: note_on channel=9 note=42 velocity=84 time=0
EXTRACT: note_on channel=9 note=54 velocity=0 time=0.1076922
EXTRACT: note_on channel=9 note=54 velocity=28 time=0
EXTRACT: note_on channel=9 note=36 velocity=0 time=0.0076923
EXTRACT: note_on channel=9 note=42 velocity=0 time=0
EXTRACT: note_on channel=9 note=54 velocity=0 time=0.1076922
EXTRACT: note_on channel=9 note=54 velocity=28 time=0
EXTRACT: note_on channel=1 note=36 velocity=0 time=0.0076923
EXTRACT: note_on channel=1 note=31 velocity=79 time=0
EXTRACT: note_on channel=3 note=72 velocity=83 time=0
EXTRACT: note_on channel=8 note=67 velocity=0 time=0
EXTRACT: note_on channel=8 note=64 velocity=99 time=0
EXTRACT: note_on channel=9 note=36 velocity=94 time=0
EXTRACT: note_on channel=9 note=42 velocity=53 time=0
EXTRACT: note_on channel=9 note=62 velocity=36 time=0
EXTRACT: note_on channel=3 note=64 velocity=85 time=0.01153845
EXTRACT: note_on channel=3 note=67 velocity=104 time=0.01153845
EXTRACT: note_on channel=9 note=54 velocity=0 time=0.0846153
EXTRACT: note_on channel=9 note=54 velocity=28 time=0
EXTRACT: note_on channel=3 note=67 velocity=0 time=0.0076923
EXTRACT: note_on channel=3 note=64 velocity=0 time=0
EXTRACT: note_on channel=3 note=72 velocity=0 time=0
EXTRACT: note_on channel=9 note=36 velocity=0 time=0
EXTRACT: note_on channel=9 note=42 velocity=0 time=0
EXTRACT: note_on channel=9 note=62 velocity=0 time=0
EXTRACT: note_on channel=9 note=54 velocity=0 time=0.1076922
EXTRACT: note_on channel=9 note=54 velocity=41 time=0
EXTRACT: note_on channel=0 note=64 velocity=0 time=0.0076923
EXTRACT: note_on channel=0 note=60 velocity=0 time=0
EXTRACT: note_on channel=1 note=31 velocity=0 time=0
EXTRACT: note_on channel=1 note=33 velocity=78 time=0
EXTRACT: note_on channel=8 note=64 velocity=0 time=0
EXTRACT: note_on channel=8 note=67 velocity=101 time=0
EXTRACT: note_on channel=9 note=40 velocity=93 time=0
EXTRACT: note_on channel=9 note=42 velocity=94 time=0
EXTRACT: note_on channel=9 note=62 velocity=52 time=0
EXTRACT: note_on channel=9 note=54 velocity=0 time=0.1076922
EXTRACT: note_on channel=9 note=54 velocity=28 time=0
EXTRACT: note_on channel=0 note=55 velocity=0 time=0.0076923
EXTRACT: note_on channel=9 note=40 velocity=0 time=0
EXTRACT: note_on channel=9 note=42 velocity=0 time=0
EXTRACT: note_on channel=9 note=62 velocity=0 time=0
EXTRACT: note_on channel=9 note=54 velocity=0 time=0.1076922
EXTRACT: note_on channel=9 note=54 velocity=31 time=0
EXTRACT: note_on channel=0 note=65 velocity=83 time=0.0076923
EXTRACT: note_on channel=0 note=62 velocity=92 time=0
EXTRACT: note_on channel=0 note=58 velocity=92 time=0
EXTRACT: note_on channel=0 note=55 velocity=97 time=0
EXTRACT: note_on channel=1 note=33 velocity=0 time=0
EXTRACT: note_on channel=1 note=34 velocity=109 time=0
EXTRACT: note_on channel=3 note=62 velocity=86 time=0
EXTRACT: note_on channel=8 note=67 velocity=0 time=0
EXTRACT: note_on channel=8 note=64 velocity=86 time=0
EXTRACT: note_on channel=9 note=36 velocity=70 time=0
EXTRACT: note_on channel=9 note=42 velocity=38 time=0
EXTRACT: note_on channel=9 note=63 velocity=56 time=0
EXTRACT: note_on channel=3 note=65 velocity=92 time=0.01153845
EXTRACT: note_on channel=3 note=70 velocity=96 time=0.01153845
EXTRACT: note_on channel=9 note=54 velocity=0 time=0.0846153
EXTRACT: note_on channel=9 note=54 velocity=37 time=0
EXTRACT: note_on channel=9 note=36 velocity=0 time=0.0076923
EXTRACT: note_on channel=9 note=42 velocity=0 time=0
EXTRACT: note_on channel=9 note=63 velocity=0 time=0
EXTRACT: note_on channel=9 note=54 velocity=0 time=0.1076922
EXTRACT: note_on channel=9 note=54 velocity=41 time=0
EXTRACT: note_on channel=1 note=34 velocity=0 time=0.0076923
EXTRACT: note_on channel=8 note=64 velocity=0 time=0
EXTRACT: note_on channel=8 note=67 velocity=101 time=0
EXTRACT: note_on channel=9 note=36 velocity=104 time=0
EXTRACT: note_on channel=9 note=42 velocity=94 time=0
EXTRACT: note_on channel=9 note=54 velocity=0 time=0.1076922
EXTRACT: note_on channel=9 note=54 velocity=10 time=0
EXTRACT: note_on channel=9 note=36 velocity=0 time=0.0076923
EXTRACT: note_on channel=9 note=42 velocity=0 time=0
EXTRACT: note_on channel=9 note=54 velocity=0 time=0.1076922
EXTRACT: note_on channel=9 note=54 velocity=10 time=0
EXTRACT: note_on channel=1 note=34 velocity=89 time=0.0076923
EXTRACT: note_on channel=8 note=67 velocity=0 time=0
EXTRACT: note_on channel=8 note=64 velocity=82 time=0
EXTRACT: note_on channel=9 note=42 velocity=40 time=0
EXTRACT: note_on channel=9 note=62 velocity=46 time=0
EXTRACT: note_on channel=1 note=34 velocity=0 time=0.076923
EXTRACT: note_on channel=9 note=54 velocity=0 time=0.0307692
EXTRACT: note_on channel=9 note=54 velocity=11 time=0
EXTRACT: note_on channel=3 note=70 velocity=0 time=0.0076923
EXTRACT: note_on channel=3 note=62 velocity=0 time=0
EXTRACT: note_on channel=9 note=42 velocity=0 time=0
EXTRACT: note_on channel=9 note=62 velocity=0 time=0
EXTRACT: note_on channel=9 note=54 velocity=0 time=0.1076922
EXTRACT: note_on channel=9 note=54 velocity=11 time=0
EXTRACT: note_on channel=1 note=34 velocity=119 time=0.0076923
EXTRACT: note_on channel=3 note=65 velocity=0 time=0
EXTRACT: note_on channel=3 note=65 velocity=88 time=0
EXTRACT: note_on channel=8 note=64 velocity=0 time=0
EXTRACT: note_on channel=8 note=67 velocity=99 time=0
EXTRACT: note_on channel=9 note=40 velocity=87 time=0
EXTRACT: note_on channel=9 note=42 velocity=94 time=0
EXTRACT: note_on channel=9 note=62 velocity=50 time=0
EXTRACT: note_on channel=3 note=62 velocity=82 time=0.01153845
EXTRACT: note_on channel=3 note=70 velocity=100 time=0.01153845
EXTRACT: note_on channel=9 note=54 velocity=0 time=0.0846153
EXTRACT: note_on channel=9 note=54 velocity=11 time=0
EXTRACT: note_on channel=3 note=70 velocity=0 time=0.0076923
EXTRACT: note_on channel=3 note=62 velocity=0 time=0
EXTRACT: note_on channel=3 note=65 velocity=0 time=0
EXTRACT: note_on channel=9 note=40 velocity=0 time=0
EXTRACT: note_on channel=9 note=42 velocity=0 time=0
EXTRACT: note_on channel=9 note=62 velocity=0 time=0
EXTRACT: note_on channel=9 note=54 velocity=0 time=0.1076922
EXTRACT: note_on channel=9 note=54 velocity=13 time=0
EXTRACT: note_on channel=8 note=67 velocity=0 time=0.0076923
EXTRACT: note_on channel=8 note=64 velocity=80 time=0
EXTRACT: note_on channel=9 note=42 velocity=34 time=0
EXTRACT: note_on channel=9 note=64 velocity=66 time=0
EXTRACT: note_on channel=9 note=54 velocity=0 time=0.1076922
EXTRACT: note_on channel=9 note=54 velocity=13 time=0
EXTRACT: note_on channel=9 note=42 velocity=0 time=0.0076923
EXTRACT: note_on channel=9 note=64 velocity=0 time=0
EXTRACT: pitchwheel channel=8 pitch=-932 time=0.10384605
EXTRACT: note_on channel=9 note=54 velocity=0 time=0.00384615
EXTRACT: note_on channel=9 note=54 velocity=38 time=0
EXTRACT: pitchwheel channel=8 pitch=-2314 time=0.00384615
EXTRACT: note_on channel=8 note=64 velocity=0 time=0.00384615
EXTRACT: note_on channel=8 note=69 velocity=86 time=0
EXTRACT: note_on channel=9 note=36 velocity=86 time=0
EXTRACT: note_on channel=9 note=42 velocity=94 time=0
EXTRACT: pitchwheel channel=8 pitch=-3759 time=0.00384615
EXTRACT: pitchwheel channel=8 pitch=-4819 time=0.0076923
EXTRACT: pitchwheel channel=8 pitch=-5462 time=0.0076923
EXTRACT: pitchwheel channel=8 pitch=-5526 time=0.0076923
EXTRACT: pitchwheel channel=8 pitch=-5430 time=0.01153845
EXTRACT: pitchwheel channel=8 pitch=-5012 time=0.0076923
EXTRACT: pitchwheel channel=8 pitch=-4659 time=0.0076923
EXTRACT: pitchwheel channel=8 pitch=-4145 time=0.0076923
EXTRACT: pitchwheel channel=8 pitch=-3727 time=0.0076923
EXTRACT: pitchwheel channel=8 pitch=-3406 time=0.01153845
EXTRACT: pitchwheel channel=8 pitch=-3085 time=0.0076923
EXTRACT: pitchwheel channel=8 pitch=-2635 time=0.0076923
EXTRACT: pitchwheel channel=8 pitch=-2217 time=0.01153845
EXTRACT: note_on channel=9 note=54 velocity=0 time=0
EXTRACT: note_on channel=9 note=54 velocity=27 time=0
EXTRACT: pitchwheel channel=8 pitch=-1767 time=0.0076923
EXTRACT: note_on channel=9 note=36 velocity=0 time=0
EXTRACT: note_on channel=9 note=42 velocity=0 time=0
EXTRACT: pitchwheel channel=8 pitch=-1253 time=0.0076923
EXTRACT: pitchwheel channel=8 pitch=-868 time=0.00384615
EXTRACT: pitchwheel channel=8 pitch=-386 time=0.0076923
EXTRACT: pitchwheel channel=8 pitch=0 time=0.01153845
EXTRACT: note_on channel=9 note=54 velocity=0 time=0.076923
EXTRACT: note_on channel=9 note=54 velocity=27 time=0
EXTRACT: note_on channel=1 note=34 velocity=0 time=0.0076923
EXTRACT: note_on channel=1 note=31 velocity=79 time=0
EXTRACT: note_on channel=3 note=65 velocity=94 time=0
EXTRACT: note_on channel=9 note=36 velocity=85 time=0
EXTRACT: note_on channel=9 note=42 velocity=31 time=0
EXTRACT: note_on channel=9 note=62 velocity=36 time=0
EXTRACT: note_on channel=3 note=62 velocity=90 time=0.01153845
EXTRACT: note_on channel=3 note=70 velocity=96 time=0.01153845
EXTRACT: note_on channel=9 note=54 velocity=0 time=0.0846153
EXTRACT: note_on channel=9 note=54 velocity=27 time=0
EXTRACT: note_on channel=3 note=70 velocity=0 time=0.0076923
EXTRACT: note_on channel=3 note=62 velocity=0 time=0
EXTRACT: note_on channel=3 note=65 velocity=0 time=0
EXTRACT: note_on channel=8 note=69 velocity=0 time=0
EXTRACT: note_on channel=9 note=36 velocity=0 time=0
EXTRACT: note_on channel=9 note=42 velocity=0 time=0
EXTRACT: note_on channel=9 note=62 velocity=0 time=0
EXTRACT: note_on channel=9 note=54 velocity=0 time=0.1076922
EXTRACT: note_on channel=9 note=54 velocity=36 time=0
EXTRACT: note_on channel=1 note=31 velocity=0 time=0.0076923
EXTRACT: note_on channel=1 note=34 velocity=79 time=0
EXTRACT: note_on channel=8 note=67 velocity=97 time=0
EXTRACT: note_on channel=9 note=40 velocity=87 time=0
EXTRACT: note_on channel=9 note=42 velocity=99 time=0
EXTRACT: note_on channel=9 note=62 velocity=50 time=0
EXTRACT: note_on channel=9 note=54 velocity=0 time=0.1076922
EXTRACT: note_on channel=9 note=54 velocity=27 time=0
EXTRACT: note_on channel=9 note=40 velocity=0 time=0.0076923
EXTRACT: note_on channel=9 note=42 velocity=0 time=0
EXTRACT: note_on channel=9 note=62 velocity=0 time=0
EXTRACT: note_on channel=9 note=54 velocity=0 time=0.1076922
EXTRACT: note_on channel=9 note=54 velocity=28 time=0
EXTRACT: note_on channel=1 note=34 velocity=0 time=0.0076923
EXTRACT: note_on channel=1 note=36 velocity=68 time=0
EXTRACT: note_on channel=9 note=36 velocity=71 time=0
EXTRACT: note_on channel=9 note=42 velocity=38 time=0
EXTRACT: note_on channel=9 note=63 velocity=58 time=0
EXTRACT: note_on channel=9 note=54 velocity=0 time=0.1076922
EXTRACT: note_on channel=9 note=54 velocity=38 time=0
EXTRACT: note_on channel=0 note=55 velocity=0 time=0.0076923
EXTRACT: note_on channel=0 note=65 velocity=0 time=0
EXTRACT: note_on channel=0 note=62 velocity=0 time=0
EXTRACT: note_on channel=0 note=58 velocity=0 time=0
EXTRACT: note_on channel=9 note=36 velocity=0 time=0
EXTRACT: note_on channel=9 note=42 velocity=0 time=0
EXTRACT: note_on channel=9 note=63 velocity=0 time=0
EXTRACT: note_on channel=9 note=54 velocity=0 time=0.1076922
EXTRACT: note_on channel=9 note=54 velocity=39 time=0
EXTRACT: note_on channel=0 note=57 velocity=75 time=0.0076923
EXTRACT: note_on channel=0 note=64 velocity=79 time=0
EXTRACT: note_on channel=0 note=60 velocity=90 time=0
EXTRACT: note_on channel=1 note=36 velocity=0 time=0
EXTRACT: note_on channel=1 note=33 velocity=101 time=0
EXTRACT: note_on channel=3 note=60 velocity=83 time=0
EXTRACT: note_on channel=9 note=36 velocity=101 time=0
EXTRACT: note_on channel=9 note=42 velocity=99 time=0
EXTRACT: note_on channel=3 note=69 velocity=75 time=0.01153845
EXTRACT: note_on channel=3 note=64 velocity=97 time=0.01153845
EXTRACT: note_on channel=9 note=54 velocity=0 time=0.0846153
EXTRACT: note_on channel=9 note=54 velocity=7 time=0
EXTRACT: note_on channel=9 note=36 velocity=0 time=0.0076923
EXTRACT: note_on channel=9 note=42 velocity=0 time=0
EXTRACT: note_on channel=9 note=54 velocity=0 time=0.1076922
EXTRACT: note_on channel=9 note=54 velocity=7 time=0
EXTRACT: note_on channel=1 note=33 velocity=0 time=0.0076923
EXTRACT: note_on channel=8 note=67 velocity=0 time=0
EXTRACT: note_on channel=9 note=42 velocity=27 time=0
EXTRACT: note_on channel=9 note=62 velocity=34 time=0
EXTRACT: note_on channel=9 note=54 velocity=0 time=0.1076922
EXTRACT: note_on channel=9 note=54 velocity=7 time=0
EXTRACT: note_on channel=9 note=42 velocity=0 time=0.0076923
EXTRACT: note_on channel=9 note=62 velocity=0 time=0
EXTRACT: note_on channel=9 note=54 velocity=0 time=0.1076922
EXTRACT: note_on channel=9 note=54 velocity=10 time=0
EXTRACT: note_on channel=1 note=33 velocity=110 time=0.0076923
EXTRACT: note_on channel=3 note=64 velocity=0 time=0
EXTRACT: note_on channel=3 note=69 velocity=0 time=0
EXTRACT: note_on channel=3 note=60 velocity=0 time=0
EXTRACT: note_on channel=3 note=60 velocity=88 time=0
EXTRACT: note_on channel=8 note=67 velocity=113 time=0
EXTRACT: note_on channel=9 note=40 velocity=93 time=0
EXTRACT: note_on channel=9 note=42 velocity=94 time=0
EXTRACT: note_on channel=9 note=62 velocity=46 time=0
EXTRACT: note_on channel=3 note=69 velocity=85 time=0.01153845
EXTRACT: note_on channel=3 note=64 velocity=104 time=0.01153845
EXTRACT: note_on channel=9 note=54 velocity=0 time=0.0846153
EXTRACT: note_on channel=9 note=54 velocity=13 time=0
EXTRACT: note_on channel=3 note=64 velocity=0 time=0.0076923
EXTRACT: note_on channel=3 note=69 velocity=0 time=0
EXTRACT: note_on channel=3 note=60 velocity=0 time=0
EXTRACT: note_on channel=9 note=40 velocity=0 time=0
EXTRACT: note_on channel=9 note=42 velocity=0 time=0
EXTRACT: note_on channel=9 note=62 velocity=0 time=0
EXTRACT: note_on channel=9 note=54 velocity=0 time=0.1076922
EXTRACT: note_on channel=9 note=54 velocity=12 time=0
EXTRACT: note_on channel=1 note=33 velocity=0 time=0.0076923
EXTRACT: note_on channel=8 note=67 velocity=0 time=0
EXTRACT: note_on channel=8 note=65 velocity=85 time=0
EXTRACT: note_on channel=9 note=42 velocity=23 time=0
EXTRACT: note_on channel=9 note=64 velocity=66 time=0
EXTRACT: note_on channel=9 note=54 velocity=0 time=0.1076922
EXTRACT: note_on channel=9 note=54 velocity=13 time=0
EXTRACT: note_on channel=8 note=65 velocity=0 time=0.0076923
EXTRACT: note_on channel=9 note=42 velocity=0 time=0
EXTRACT: note_on channel=9 note=64 velocity=0 time=0
EXTRACT: note_on channel=9 note=54 velocity=0 time=0.1076922
EXTRACT: note_on channel=9 note=54 velocity=42 time=0
EXTRACT: note_on channel=1 note=33 velocity=104 time=0.0076923
EXTRACT: note_on channel=8 note=65 velocity=94 time=0
EXTRACT: note_on channel=9 note=36 velocity=85 time=0
EXTRACT: note_on channel=9 note=42 velocity=99 time=0
EXTRACT: note_on channel=9 note=54 velocity=0 time=0.1076922
EXTRACT: note_on channel=9 note=54 velocity=28 time=0
EXTRACT: note_on channel=9 note=36 velocity=0 time=0.0076923
EXTRACT: note_on channel=9 note=42 velocity=0 time=0
EXTRACT: note_on channel=9 note=54 velocity=0 time=0.1076922
EXTRACT: note_on channel=9 note=54 velocity=28 time=0
EXTRACT: note_on channel=1 note=33 velocity=0 time=0.0076923
EXTRACT: note_on channel=1 note=29 velocity=80 time=0
EXTRACT: note_on channel=3 note=69 velocity=85 time=0
EXTRACT: note_on channel=8 note=65 velocity=0 time=0
EXTRACT: note_on channel=8 note=64 velocity=88 time=0
EXTRACT: note_on channel=9 note=36 velocity=83 time=0
EXTRACT: note_on channel=9 note=42 velocity=53 time=0
EXTRACT: note_on channel=9 note=62 velocity=37 time=0
EXTRACT: note_on channel=3 note=60 velocity=90 time=0.01153845
EXTRACT: note_on channel=3 note=64 velocity=104 time=0.01153845
EXTRACT: note_on channel=9 note=54 velocity=0 time=0.0846153
EXTRACT: note_on channel=9 note=54 velocity=28 time=0
EXTRACT: note_on channel=3 note=64 velocity=0 time=0.0076923
EXTRACT: note_on channel=3 note=60 velocity=0 time=0
EXTRACT: note_on channel=3 note=69 velocity=0 time=0
EXTRACT: note_on channel=8 note=64 velocity=0 time=0
EXTRACT: note_on channel=9 note=36 velocity=0 time=0
EXTRACT: note_on channel=9 note=42 velocity=0 time=0
EXTRACT: note_on channel=9 note=62 velocity=0 time=0
EXTRACT: note_on channel=9 note=54 velocity=0 time=0.1076922
EXTRACT: note_on channel=9 note=54 velocity=41 time=0
EXTRACT: note_on channel=0 note=60 velocity=0 time=0.0076923
EXTRACT: note_on channel=0 note=64 velocity=0 time=0
EXTRACT: note_on channel=0 note=57 velocity=0 time=0
EXTRACT: note_on channel=1 note=29 velocity=0 time=0
EXTRACT: note_on channel=1 note=33 velocity=92 time=0
EXTRACT: note_on channel=8 note=64 velocity=92 time=0
EXTRACT: note_on channel=9 note=40 velocity=100 time=0
EXTRACT: note_on channel=9 note=42 velocity=99 time=0
EXTRACT: note_on channel=9 note=62 velocity=43 time=0
EXTRACT: note_on channel=9 note=54 velocity=0 time=0.1076922
EXTRACT: note_on channel=9 note=54 velocity=28 time=0
EXTRACT: note_on channel=9 note=40 velocity=0 time=0.0076923
EXTRACT: note_on channel=9 note=42 velocity=0 time=0
EXTRACT: note_on channel=9 note=62 velocity=0 time=0
EXTRACT: note_on channel=9 note=54 velocity=0 time=0.1076922
EXTRACT: note_on channel=9 note=54 velocity=31 time=0
EXTRACT: note_on channel=0 note=62 velocity=86 time=0.0076923
EXTRACT: note_on channel=0 note=59 velocity=73 time=0
EXTRACT: note_on channel=0 note=65 velocity=79 time=0
EXTRACT: note_on channel=1 note=33 velocity=0 time=0
EXTRACT: note_on channel=1 note=31 velocity=75 time=0
EXTRACT: note_on channel=3 note=59 velocity=90 time=0
EXTRACT: note_on channel=8 note=64 velocity=0 time=0
EXTRACT: note_on channel=8 note=62 velocity=83 time=0
EXTRACT: note_on channel=9 note=36 velocity=71 time=0
EXTRACT: note_on channel=9 note=42 velocity=31 time=0
EXTRACT: note_on channel=9 note=63 velocity=58 time=0
EXTRACT: note_on channel=3 note=67 velocity=83 time=0.01153845
EXTRACT: note_on channel=3 note=62 velocity=104 time=0.01153845
EXTRACT: note_on channel=9 note=54 velocity=0 time=0.0846153
EXTRACT: note_on channel=9 note=54 velocity=37 time=0
EXTRACT: note_on channel=9 note=36 velocity=0 time=0.0076923
EXTRACT: note_on channel=9 note=42 velocity=0 time=0
EXTRACT: note_on channel=9 note=63 velocity=0 time=0
EXTRACT: note_on channel=9 note=54 velocity=0 time=0.1076922
EXTRACT: note_on channel=9 note=54 velocity=41 time=0
EXTRACT: note_on channel=1 note=31 velocity=0 time=0.0076923
EXTRACT: note_on channel=8 note=62 velocity=0 time=0
EXTRACT: note_on channel=8 note=64 velocity=99 time=0
EXTRACT: note_on channel=9 note=36 velocity=101 time=0
EXTRACT: note_on channel=9 note=42 velocity=99 time=0
EXTRACT: note_on channel=9 note=54 velocity=0 time=0.1076922
EXTRACT: note_on channel=9 note=54 velocity=10 time=0
EXTRACT: note_on channel=9 note=36 velocity=0 time=0.0076923
EXTRACT: note_on channel=9 note=42 velocity=0 time=0
EXTRACT: note_on channel=9 note=54 velocity=0 time=0.1076922
EXTRACT: note_on channel=9 note=54 velocity=10 time=0
EXTRACT: note_on channel=1 note=31 velocity=94 time=0.0076923
EXTRACT: note_on channel=9 note=42 velocity=42 time=0
EXTRACT: note_on channel=9 note=62 velocity=38 time=0
EXTRACT: note_on channel=9 note=54 velocity=0 time=0.1076922
EXTRACT: note_on channel=9 note=54 velocity=11 time=0
EXTRACT: note_on channel=8 note=64 velocity=0 time=0.0076923
EXTRACT: note_on channel=9 note=42 velocity=0 time=0
EXTRACT: note_on channel=9 note=62 velocity=0 time=0
EXTRACT: note_on channel=9 note=54 velocity=0 time=0.1076922
EXTRACT: note_on channel=9 note=54 velocity=11 time=0
EXTRACT: note_on channel=1 note=31 velocity=0 time=0.0076923
EXTRACT: note_on channel=3 note=62 velocity=0 time=0
EXTRACT: note_on channel=3 note=67 velocity=0 time=0
EXTRACT: note_on channel=3 note=59 velocity=0 time=0
EXTRACT: note_on channel=3 note=59 velocity=94 time=0
EXTRACT: note_on channel=8 note=64 velocity=99 time=0
EXTRACT: note_on channel=9 note=40 velocity=93 time=0
EXTRACT: note_on channel=9 note=42 velocity=99 time=0
EXTRACT: note_on channel=9 note=62 velocity=49 time=0
EXTRACT: note_on channel=3 note=67 velocity=90 time=0.01153845
EXTRACT: note_on channel=3 note=62 velocity=110 time=0.01153845
EXTRACT: note_on channel=9 note=54 velocity=0 time=0.0846153
EXTRACT: note_on channel=9 note=54 velocity=11 time=0
EXTRACT: note_on channel=3 note=62 velocity=0 time=0.0076923
EXTRACT: note_on channel=3 note=67 velocity=0 time=0
EXTRACT: note_on channel=3 note=59 velocity=0 time=0
EXTRACT: note_on channel=9 note=40 velocity=0 time=0
EXTRACT: note_on channel=9 note=42 velocity=0 time=0
EXTRACT: note_on channel=9 note=62 velocity=0 time=0
EXTRACT: note_on channel=9 note=54 velocity=0 time=0.1076922
EXTRACT: note_on channel=9 note=54 velocity=13 time=0
EXTRACT: note_on channel=1 note=31 velocity=104 time=0.0076923
EXTRACT: note_on channel=8 note=64 velocity=0 time=0
EXTRACT: note_on channel=8 note=65 velocity=85 time=0
EXTRACT: note_on channel=9 note=42 velocity=46 time=0
EXTRACT: note_on channel=9 note=64 velocity=70 time=0
EXTRACT: note_on channel=9 note=54 velocity=0 time=0.1076922
EXTRACT: note_on channel=9 note=54 velocity=13 time=0
EXTRACT: note_on channel=9 note=42 velocity=0 time=0.0076923
EXTRACT: note_on channel=9 note=64 velocity=0 time=0
EXTRACT: note_on channel=9 note=54 velocity=0 time=0.1076922
EXTRACT: note_on channel=9 note=54 velocity=38 time=0
EXTRACT: note_on channel=8 note=65 velocity=0 time=0.0076923
EXTRACT: note_on channel=8 note=64 velocity=94 time=0
EXTRACT: note_on channel=9 note=36 velocity=94 time=0
EXTRACT: note_on channel=9 note=42 velocity=94 time=0
EXTRACT: note_on channel=9 note=54 velocity=0 time=0.1076922
EXTRACT: note_on channel=9 note=54 velocity=27 time=0
EXTRACT: note_on channel=9 note=36 velocity=0 time=0.0076923
EXTRACT: note_on channel=9 note=42 velocity=0 time=0
EXTRACT: note_on channel=9 note=54 velocity=0 time=0.1076922
EXTRACT: note_on channel=9 note=54 velocity=27 time=0
EXTRACT: note_on channel=1 note=31 velocity=0 time=0.0076923
EXTRACT: note_on channel=1 note=33 velocity=101 time=0
EXTRACT: note_on channel=3 note=67 velocity=92 time=0
EXTRACT: note_on channel=9 note=36 velocity=88 time=0
EXTRACT: note_on channel=9 note=42 velocity=46 time=0
EXTRACT: note_on channel=9 note=62 velocity=48 time=0
EXTRACT: note_on channel=3 note=59 velocity=97 time=0.01153845
EXTRACT: note_on channel=3 note=62 velocity=107 time=0.01153845
EXTRACT: note_on channel=9 note=42 velocity=0 time=0.03461535
EXTRACT: note_on channel=9 note=54 velocity=0 time=0.04999995
EXTRACT: note_on channel=9 note=54 velocity=27 time=0
EXTRACT: note_on channel=3 note=62 velocity=0 time=0.0076923
EXTRACT: note_on channel=3 note=59 velocity=0 time=0
EXTRACT: note_on channel=3 note=67 velocity=0 time=0
EXTRACT: note_on channel=9 note=36 velocity=0 time=0
EXTRACT: note_on channel=9 note=62 velocity=0 time=0
EXTRACT: note_on channel=9 note=54 velocity=0 time=0.1076922
EXTRACT: note_on channel=9 note=54 velocity=36 time=0
EXTRACT: note_on channel=1 note=33 velocity=0 time=0.0076923
EXTRACT: note_on channel=1 note=36 velocity=79 time=0
EXTRACT: note_on channel=8 note=64 velocity=0 time=0
EXTRACT: note_on channel=8 note=62 velocity=78 time=0
EXTRACT: note_on channel=9 note=40 velocity=93 time=0
EXTRACT: note_on channel=9 note=42 velocity=89 time=0
EXTRACT: note_on channel=9 note=62 velocity=52 time=0
EXTRACT: note_on channel=9 note=54 velocity=0 time=0.1076922
EXTRACT: note_on channel=9 note=54 velocity=27 time=0
EXTRACT: note_on channel=9 note=40 velocity=0 time=0.0076923
EXTRACT: note_on channel=9 note=42 velocity=0 time=0
EXTRACT: note_on channel=9 note=62 velocity=0 time=0
EXTRACT: note_on channel=9 note=54 velocity=0 time=0.1076922
EXTRACT: note_on channel=9 note=54 velocity=28 time=0
EXTRACT: note_on channel=0 note=65 velocity=0 time=0.0076923
EXTRACT: note_on channel=1 note=36 velocity=0 time=0
EXTRACT: note_on channel=1 note=33 velocity=101 time=0
EXTRACT: note_on channel=8 note=62 velocity=0 time=0
EXTRACT: note_on channel=8 note=60 velocity=85 time=0
EXTRACT: note_on channel=9 note=36 velocity=71 time=0
EXTRACT: note_on channel=9 note=42 velocity=51 time=0
EXTRACT: note_on channel=9 note=63 velocity=67 time=0
EXTRACT: note_on channel=9 note=54 velocity=0 time=0.1076922
EXTRACT: note_on channel=9 note=54 velocity=38 time=0
EXTRACT: note_on channel=0 note=59 velocity=0 time=0.0076923
EXTRACT: note_on channel=0 note=62 velocity=0 time=0
EXTRACT: note_on channel=9 note=36 velocity=0 time=0
EXTRACT: note_on channel=9 note=42 velocity=0 time=0
EXTRACT: note_on channel=9 note=63 velocity=0 time=0
EXTRACT: note_on channel=9 note=54 velocity=0 time=0.1076922
EXTRACT: note_on channel=9 note=54 velocity=39 time=0
EXTRACT: note_on channel=0 note=60 velocity=86 time=0.0076923
EXTRACT: note_on channel=0 note=64 velocity=83 time=0
EXTRACT: note_on channel=0 note=55 velocity=85 time=0
EXTRACT: note_on channel=1 note=33 velocity=0 time=0
EXTRACT: note_on channel=1 note=36 velocity=92 time=0
EXTRACT: note_on channel=3 note=64 velocity=88 time=0
EXTRACT: note_on channel=8 note=60 velocity=0 time=0
EXTRACT: note_on channel=9 note=36 velocity=97 time=0
EXTRACT: note_on channel=9 note=42 velocity=99 time=0
EXTRACT: note_on channel=9 note=63 velocity=50 time=0
EXTRACT: note_on channel=3 note=72 velocity=78 time=0.01153845
EXTRACT: note_on channel=3 note=67 velocity=104 time=0.01153845
EXTRACT: note_on channel=9 note=54 velocity=0 time=0.0846153
EXTRACT: note_on channel=9 note=54 velocity=7 time=0
EXTRACT: note_on channel=9 note=36 velocity=0 time=0.0076923
EXTRACT: note_on channel=9 note=42 velocity=0 time=0
EXTRACT: note_on channel=9 note=63 velocity=0 time=0
EXTRACT: note_on channel=9 note=54 velocity=0 time=0.1076922
EXTRACT: note_on channel=9 note=54 velocity=7 time=0
EXTRACT: note_on channel=1 note=36 velocity=0 time=0.0076923
EXTRACT: note_on channel=9 note=42 velocity=32 time=0
EXTRACT: note_on channel=9 note=62 velocity=56 time=0
EXTRACT: note_on channel=9 note=54 velocity=0 time=0.1076922
EXTRACT: note_on channel=9 note=54 velocity=7 time=0
EXTRACT: note_on channel=3 note=67 velocity=0 time=0.0076923
EXTRACT: note_on channel=3 note=72 velocity=0 time=0
EXTRACT: note_on channel=3 note=64 velocity=0 time=0
EXTRACT: note_on channel=9 note=42 velocity=0 time=0
EXTRACT: note_on channel=9 note=62 velocity=0 time=0
EXTRACT: note_on channel=9 note=54 velocity=0 time=0.1076922
EXTRACT: note_on channel=9 note=54 velocity=10 time=0
EXTRACT: note_on channel=1 note=36 velocity=85 time=0.0076923
EXTRACT: note_on channel=3 note=64 velocity=88 time=0
EXTRACT: note_on channel=7 note=64 velocity=101 time=0
EXTRACT: note_on channel=9 note=40 velocity=93 time=0
EXTRACT: note_on channel=9 note=42 velocity=99 time=0
EXTRACT: note_on channel=9 note=62 velocity=58 time=0
EXTRACT: note_on channel=3 note=67 velocity=104 time=0.01153845
EXTRACT: note_on channel=3 note=72 velocity=94 time=0.01153845
EXTRACT: note_on channel=9 note=54 velocity=0 time=0.0846153
EXTRACT: note_on channel=9 note=54 velocity=13 time=0
EXTRACT: note_on channel=3 note=72 velocity=0 time=0.0076923
EXTRACT: note_on channel=3 note=67 velocity=0 time=0
EXTRACT: note_on channel=3 note=64 velocity=0 time=0
EXTRACT: note_on channel=9 note=40 velocity=0 time=0
EXTRACT: note_on channel=9 note=42 velocity=0 time=0
EXTRACT: note_on channel=9 note=62 velocity=0 time=0
EXTRACT: note_on channel=9 note=54 velocity=0 time=0.1076922
EXTRACT: note_on channel=9 note=54 velocity=12 time=0
EXTRACT: note_on channel=1 note=36 velocity=0 time=0.0076923
EXTRACT: note_on channel=7 note=64 velocity=0 time=0
EXTRACT: note_on channel=7 note=67 velocity=99 time=0
EXTRACT: note_on channel=9 note=42 velocity=49 time=0
EXTRACT: note_on channel=9 note=64 velocity=70 time=0
EXTRACT: note_on channel=9 note=54 velocity=0 time=0.1076922
EXTRACT: note_on channel=9 note=54 velocity=13 time=0
EXTRACT: note_on channel=7 note=67 velocity=0 time=0.0076923
EXTRACT: note_on channel=9 note=42 velocity=0 time=0
EXTRACT: note_on channel=9 note=64 velocity=0 time=0
EXTRACT: note_on channel=9 note=54 velocity=0 time=0.1076922
EXTRACT: note_on channel=9 note=54 velocity=42 time=0
EXTRACT: note_on channel=1 note=36 velocity=88 time=0.0076923
EXTRACT: note_on channel=7 note=67 velocity=113 time=0
EXTRACT: note_on channel=9 note=36 velocity=88 time=0
EXTRACT: note_on channel=9 note=42 velocity=84 time=0
EXTRACT: note_on channel=9 note=54 velocity=0 time=0.1076922
EXTRACT: note_on channel=9 note=54 velocity=28 time=0
EXTRACT: note_on channel=9 note=36 velocity=0 time=0.0076923
EXTRACT: note_on channel=9 note=42 velocity=0 time=0
EXTRACT: note_on channel=9 note=54 velocity=0 time=0.1076922
EXTRACT: note_on channel=9 note=54 velocity=28 time=0
EXTRACT: note_on channel=1 note=36 velocity=0 time=0.0076923
EXTRACT: note_on channel=1 note=31 velocity=79 time=0
EXTRACT: note_on channel=3 note=72 velocity=86 time=0
EXTRACT: note_on channel=7 note=67 velocity=0 time=0
EXTRACT: note_on channel=7 note=64 velocity=90 time=0
EXTRACT: note_on channel=9 note=36 velocity=94 time=0
EXTRACT: note_on channel=9 note=42 velocity=53 time=0
EXTRACT: note_on channel=9 note=62 velocity=36 time=0
EXTRACT: note_on channel=3 note=64 velocity=86 time=0.01153845
EXTRACT: note_on channel=3 note=67 velocity=104 time=0.01153845
EXTRACT: note_on channel=9 note=54 velocity=0 time=0.0846153
EXTRACT: note_on channel=9 note=54 velocity=28 time=0
EXTRACT: note_on channel=3 note=67 velocity=0 time=0.0076923
EXTRACT: note_on channel=3 note=64 velocity=0 time=0
EXTRACT: note_on channel=3 note=72 velocity=0 time=0
EXTRACT: note_on channel=7 note=64 velocity=0 time=0
EXTRACT: note_on channel=9 note=36 velocity=0 time=0
EXTRACT: note_on channel=9 note=42 velocity=0 time=0
EXTRACT: note_on channel=9 note=62 velocity=0 time=0
EXTRACT: note_on channel=9 note=54 velocity=0 time=0.1076922
EXTRACT: note_on channel=9 note=54 velocity=41 time=0
EXTRACT: note_on channel=0 note=55 velocity=0 time=0.0076923
EXTRACT: note_on channel=0 note=64 velocity=0 time=0
EXTRACT: note_on channel=0 note=60 velocity=0 time=0
EXTRACT: note_on channel=1 note=31 velocity=0 time=0
EXTRACT: note_on channel=1 note=33 velocity=69 time=0
EXTRACT: note_on channel=7 note=67 velocity=110 time=0
EXTRACT: note_on channel=9 note=40 velocity=93 time=0
EXTRACT: note_on channel=9 note=42 velocity=94 time=0
EXTRACT: note_on channel=9 note=62 velocity=52 time=0
EXTRACT: note_on channel=9 note=54 velocity=0 time=0.1076922
EXTRACT: note_on channel=9 note=54 velocity=28 time=0
EXTRACT: note_on channel=9 note=40 velocity=0 time=0.0076923
EXTRACT: note_on channel=9 note=42 velocity=0 time=0
EXTRACT: note_on channel=9 note=62 velocity=0 time=0
EXTRACT: note_on channel=9 note=54 velocity=0 time=0.1076922
EXTRACT: note_on channel=9 note=54 velocity=31 time=0
EXTRACT: note_on channel=0 note=62 velocity=80 time=0.0076923
EXTRACT: note_on channel=0 note=58 velocity=81 time=0
EXTRACT: note_on channel=0 note=55 velocity=82 time=0
EXTRACT: note_on channel=0 note=65 velocity=75 time=0
EXTRACT: note_on channel=1 note=33 velocity=0 time=0
EXTRACT: note_on channel=1 note=34 velocity=96 time=0
EXTRACT: note_on channel=3 note=62 velocity=86 time=0
EXTRACT: note_on channel=7 note=67 velocity=0 time=0
EXTRACT: note_on channel=7 note=64 velocity=92 time=0
EXTRACT: note_on channel=9 note=36 velocity=70 time=0
EXTRACT: note_on channel=9 note=42 velocity=38 time=0
EXTRACT: note_on channel=9 note=63 velocity=56 time=0
EXTRACT: note_on channel=3 note=65 velocity=94 time=0.01153845
EXTRACT: note_on channel=3 note=70 velocity=92 time=0.01153845
EXTRACT: note_on channel=9 note=54 velocity=0 time=0.0846153
EXTRACT: note_on channel=9 note=54 velocity=37 time=0
EXTRACT: note_on channel=7 note=64 velocity=0 time=0.0076923
EXTRACT: note_on channel=9 note=36 velocity=0 time=0
EXTRACT: note_on channel=9 note=42 velocity=0 time=0
EXTRACT: note_on channel=9 note=63 velocity=0 time=0
EXTRACT: note_on channel=9 note=54 velocity=0 time=0.1076922
EXTRACT: note_on channel=9 note=54 velocity=41 time=0
EXTRACT: note_on channel=1 note=34 velocity=0 time=0.0076923
EXTRACT: note_on channel=7 note=67 velocity=117 time=0
EXTRACT: note_on channel=9 note=36 velocity=104 time=0
EXTRACT: note_on channel=9 note=42 velocity=94 time=0
EXTRACT: note_on channel=9 note=54 velocity=0 time=0.1076922
EXTRACT: note_on channel=9 note=54 velocity=10 time=0
EXTRACT: note_on channel=9 note=36 velocity=0 time=0.0076923
EXTRACT: note_on channel=9 note=42 velocity=0 time=0
EXTRACT: note_on channel=9 note=54 velocity=0 time=0.1076922
EXTRACT: note_on channel=9 note=54 velocity=10 time=0
EXTRACT: note_on channel=1 note=34 velocity=92 time=0.0076923
EXTRACT: note_on channel=7 note=67 velocity=0 time=0
EXTRACT: note_on channel=7 note=64 velocity=83 time=0
EXTRACT: note_on channel=9 note=42 velocity=40 time=0
EXTRACT: note_on channel=9 note=62 velocity=46 time=0
EXTRACT: note_on channel=9 note=54 velocity=0 time=0.1076922
EXTRACT: note_on channel=9 note=54 velocity=11 time=0
EXTRACT: note_on channel=1 note=34 velocity=0 time=0.0076923
EXTRACT: note_on channel=3 note=70 velocity=0 time=0
EXTRACT: note_on channel=3 note=65 velocity=0 time=0
EXTRACT: note_on channel=3 note=62 velocity=0 time=0
EXTRACT: note_on channel=9 note=42 velocity=0 time=0
EXTRACT: note_on channel=9 note=62 velocity=0 time=0
EXTRACT: note_on channel=9 note=54 velocity=0 time=0.1076922
EXTRACT: note_on channel=9 note=54 velocity=11 time=0
EXTRACT: note_on channel=1 note=34 velocity=100 time=0.0076923
EXTRACT: note_on channel=3 note=65 velocity=94 time=0
EXTRACT: note_on channel=7 note=64 velocity=0 time=0
EXTRACT: note_on channel=7 note=67 velocity=107 time=0
EXTRACT: note_on channel=9 note=40 velocity=87 time=0
EXTRACT: note_on channel=9 note=42 velocity=94 time=0
EXTRACT: note_on channel=9 note=62 velocity=50 time=0
EXTRACT: note_on channel=3 note=62 velocity=85 time=0.01153845
EXTRACT: note_on channel=3 note=70 velocity=104 time=0.01153845
EXTRACT: note_on channel=9 note=54 velocity=0 time=0.0846153
EXTRACT: note_on channel=9 note=54 velocity=11 time=0
EXTRACT: note_on channel=3 note=70 velocity=0 time=0.0076923
EXTRACT: note_on channel=3 note=62 velocity=0 time=0
EXTRACT: note_on channel=3 note=65 velocity=0 time=0
EXTRACT: note_on channel=9 note=40 velocity=0 time=0
EXTRACT: note_on channel=9 note=42 velocity=0 time=0
EXTRACT: note_on channel=9 note=62 velocity=0 time=0
EXTRACT: note_on channel=9 note=54 velocity=0 time=0.1076922
EXTRACT: note_on channel=9 note=54 velocity=13 time=0
EXTRACT: note_on channel=7 note=67 velocity=0 time=0.0076923
EXTRACT: note_on channel=7 note=64 velocity=88 time=0
EXTRACT: note_on channel=9 note=42 velocity=34 time=0
EXTRACT: note_on channel=9 note=64 velocity=66 time=0
EXTRACT: note_on channel=9 note=54 velocity=0 time=0.1076922
EXTRACT: note_on channel=9 note=54 velocity=13 time=0
EXTRACT: note_on channel=7 note=64 velocity=0 time=0.0076923
EXTRACT: note_on channel=9 note=42 velocity=0 time=0
EXTRACT: note_on channel=9 note=64 velocity=0 time=0
EXTRACT: pitchwheel channel=7 pitch=-579 time=0.076923
EXTRACT: pitchwheel channel=7 pitch=-2121 time=0.0076923
EXTRACT: pitchwheel channel=7 pitch=-3631 time=0.0076923
EXTRACT: pitchwheel channel=7 pitch=-4594 time=0.01153845
EXTRACT: pitchwheel channel=7 pitch=-5237 time=0.00384615
EXTRACT: note_on channel=9 note=54 velocity=0 time=0
EXTRACT: note_on channel=9 note=54 velocity=38 time=0
EXTRACT: note_on channel=7 note=69 velocity=104 time=0.0076923
EXTRACT: note_on channel=9 note=36 velocity=86 time=0
EXTRACT: note_on channel=9 note=42 velocity=94 time=0
EXTRACT: pitchwheel channel=7 pitch=-5462 time=0.00384615
EXTRACT: pitchwheel channel=7 pitch=-5269 time=0.0076923
EXTRACT: pitchwheel channel=7 pitch=-4884 time=0.0076923
EXTRACT: pitchwheel channel=7 pitch=-4434 time=0.01153845
EXTRACT: pitchwheel channel=7 pitch=-3759 time=0.0076923
EXTRACT: pitchwheel channel=7 pitch=-3149 time=0.0076923
EXTRACT: pitchwheel channel=7 pitch=-2378 time=0.0076923
EXTRACT: pitchwheel channel=7 pitch=-1414 time=0.0076923
EXTRACT: pitchwheel channel=7 pitch=-547 time=0.01153845
EXTRACT: pitchwheel channel=7 pitch=0 time=0.0076923
EXTRACT: note_on channel=9 note=54 velocity=0 time=0.02692305
EXTRACT: note_on channel=9 note=54 velocity=27 time=0
EXTRACT: note_on channel=9 note=36 velocity=0 time=0.0076923
EXTRACT: note_on channel=9 note=42 velocity=0 time=0
EXTRACT: note_on channel=9 note=54 velocity=0 time=0.1076922
EXTRACT: note_on channel=9 note=54 velocity=27 time=0
EXTRACT: note_on channel=1 note=34 velocity=0 time=0.0076923
EXTRACT: note_on channel=1 note=31 velocity=74 time=0
EXTRACT: note_on channel=3 note=62 velocity=90 time=0
EXTRACT: note_on channel=9 note=36 velocity=85 time=0
EXTRACT: note_on channel=9 note=42 velocity=31 time=0
EXTRACT: note_on channel=9 note=62 velocity=36 time=0
EXTRACT: note_on channel=3 note=65 velocity=101 time=0.01153845
EXTRACT: note_on channel=3 note=70 velocity=96 time=0.01153845
EXTRACT: note_on channel=9 note=54 velocity=0 time=0.0846153
EXTRACT: note_on channel=9 note=54 velocity=27 time=0
EXTRACT: note_on channel=3 note=70 velocity=0 time=0.0076923
EXTRACT: note_on channel=3 note=65 velocity=0 time=0
EXTRACT: note_on channel=3 note=62 velocity=0 time=0
EXTRACT: note_on channel=9 note=36 velocity=0 time=0
EXTRACT: note_on channel=9 note=42 velocity=0 time=0
EXTRACT: note_on channel=9 note=62 velocity=0 time=0
EXTRACT: note_on channel=9 note=54 velocity=0 time=0.1076922
EXTRACT: note_on channel=9 note=54 velocity=36 time=0
EXTRACT: note_on channel=1 note=31 velocity=0 time=0.0076923
EXTRACT: note_on channel=1 note=34 velocity=89 time=0
EXTRACT: note_on channel=7 note=69 velocity=0 time=0
EXTRACT: note_on channel=7 note=67 velocity=113 time=0
EXTRACT: note_on channel=9 note=40 velocity=87 time=0
EXTRACT: note_on channel=9 note=42 velocity=99 time=0
EXTRACT: note_on channel=9 note=62 velocity=50 time=0
EXTRACT: note_on channel=9 note=54 velocity=0 time=0.1076922
EXTRACT: note_on channel=9 note=54 velocity=27 time=0
EXTRACT: note_on channel=9 note=40 velocity=0 time=0.0076923
EXTRACT: note_on channel=9 note=42 velocity=0 time=0
EXTRACT: note_on channel=9 note=62 velocity=0 time=0
EXTRACT: note_on channel=9 note=54 velocity=0 time=0.1076922
EXTRACT: note_on channel=9 note=54 velocity=28 time=0
EXTRACT: note_on channel=1 note=34 velocity=0 time=0.0076923
EXTRACT: note_on channel=1 note=36 velocity=67 time=0
EXTRACT: note_on channel=9 note=36 velocity=71 time=0
EXTRACT: note_on channel=9 note=42 velocity=38 time=0
EXTRACT: note_on channel=9 note=63 velocity=58 time=0
EXTRACT: note_on channel=9 note=54 velocity=0 time=0.1076922
EXTRACT: note_on channel=9 note=54 velocity=38 time=0
EXTRACT: note_on channel=0 note=65 velocity=0 time=0.0076923
EXTRACT: note_on channel=0 note=62 velocity=0 time=0
EXTRACT: note_on channel=0 note=58 velocity=0 time=0
EXTRACT: note_on channel=0 note=55 velocity=0 time=0
EXTRACT: note_on channel=9 note=36 velocity=0 time=0
EXTRACT: note_on channel=9 note=42 velocity=0 time=0
EXTRACT: note_on channel=9 note=63 velocity=0 time=0
EXTRACT: note_on channel=9 note=54 velocity=0 time=0.1076922
EXTRACT: note_on channel=9 note=54 velocity=39 time=0
EXTRACT: note_on channel=0 note=60 velocity=78 time=0.0076923
EXTRACT: note_on channel=0 note=57 velocity=67 time=0
EXTRACT: note_on channel=0 note=64 velocity=73 time=0
EXTRACT: note_on channel=1 note=36 velocity=0 time=0
EXTRACT: note_on channel=1 note=33 velocity=85 time=0
EXTRACT: note_on channel=3 note=60 velocity=86 time=0
EXTRACT: note_on channel=9 note=36 velocity=101 time=0
EXTRACT: note_on channel=9 note=42 velocity=99 time=0
EXTRACT: note_on channel=3 note=69 velocity=85 time=0.01153845
EXTRACT: note_on channel=3 note=64 velocity=101 time=0.01153845
EXTRACT: note_on channel=9 note=54 velocity=0 time=0.0846153
EXTRACT: note_on channel=9 note=54 velocity=7 time=0
EXTRACT: note_on channel=7 note=67 velocity=0 time=0.0076923
EXTRACT: note_on channel=9 note=36 velocity=0 time=0
EXTRACT: note_on channel=9 note=42 velocity=0 time=0
EXTRACT: note_on channel=9 note=54 velocity=0 time=0.1076922
EXTRACT: note_on channel=9 note=54 velocity=7 time=0
EXTRACT: note_on channel=1 note=33 velocity=0 time=0.0076923
EXTRACT: note_on channel=7 note=62 velocity=101 time=0
EXTRACT: note_on channel=9 note=42 velocity=27 time=0
EXTRACT: note_on channel=9 note=62 velocity=34 time=0
EXTRACT: note_on channel=9 note=54 velocity=0 time=0.1076922
EXTRACT: note_on channel=9 note=54 velocity=7 time=0
EXTRACT: note_on channel=3 note=69 velocity=0 time=0.0076923
EXTRACT: note_on channel=9 note=42 velocity=0 time=0
EXTRACT: note_on channel=9 note=62 velocity=0 time=0
EXTRACT: note_on channel=9 note=54 velocity=0 time=0.1076922
EXTRACT: note_on channel=9 note=54 velocity=10 time=0
EXTRACT: note_on channel=1 note=33 velocity=110 time=0.0076923
EXTRACT: note_on channel=3 note=64 velocity=0 time=0
EXTRACT: note_on channel=3 note=60 velocity=0 time=0
EXTRACT: note_on channel=3 note=60 velocity=83 time=0
EXTRACT: note_on channel=7 note=62 velocity=0 time=0
EXTRACT: note_on channel=7 note=64 velocity=92 time=0
EXTRACT: note_on channel=9 note=40 velocity=93 time=0
EXTRACT: note_on channel=9 note=42 velocity=94 time=0
EXTRACT: note_on channel=9 note=62 velocity=46 time=0
EXTRACT: note_on channel=3 note=69 velocity=85 time=0.01153845
EXTRACT: note_on channel=3 note=64 velocity=99 time=0.01153845
EXTRACT: note_on channel=9 note=54 velocity=0 time=0.0846153
EXTRACT: note_on channel=9 note=54 velocity=13 time=0
EXTRACT: note_on channel=3 note=64 velocity=0 time=0.0076923
EXTRACT: note_on channel=3 note=69 velocity=0 time=0
EXTRACT: note_on channel=3 note=60 velocity=0 time=0
EXTRACT: note_on channel=9 note=40 velocity=0 time=0
EXTRACT: note_on channel=9 note=42 velocity=0 time=0
EXTRACT: note_on channel=9 note=62 velocity=0 time=0
EXTRACT: note_on channel=9 note=54 velocity=0 time=0.1076922
EXTRACT: note_on channel=9 note=54 velocity=12 time=0
EXTRACT: note_on channel=1 note=33 velocity=0 time=0.0076923
EXTRACT: note_on channel=7 note=64 velocity=0 time=0
EXTRACT: note_on channel=7 note=67 velocity=97 time=0
EXTRACT: note_on channel=9 note=42 velocity=23 time=0
EXTRACT: note_on channel=9 note=64 velocity=66 time=0
EXTRACT: note_on channel=9 note=54 velocity=0 time=0.1076922
EXTRACT: note_on channel=9 note=54 velocity=13 time=0
EXTRACT: note_on channel=7 note=67 velocity=0 time=0.0076923
EXTRACT: note_on channel=9 note=42 velocity=0 time=0
EXTRACT: note_on channel=9 note=64 velocity=0 time=0
EXTRACT: note_on channel=9 note=54 velocity=0 time=0.1076922
EXTRACT: note_on channel=9 note=54 velocity=42 time=0
EXTRACT: note_on channel=1 note=33 velocity=104 time=0.0076923
EXTRACT: note_on channel=7 note=67 velocity=117 time=0
EXTRACT: note_on channel=9 note=36 velocity=85 time=0
EXTRACT: note_on channel=9 note=42 velocity=99 time=0
EXTRACT: note_on channel=9 note=54 velocity=0 time=0.1076922
EXTRACT: note_on channel=9 note=54 velocity=28 time=0
EXTRACT: note_on channel=9 note=36 velocity=0 time=0.0076923
EXTRACT: note_on channel=9 note=42 velocity=0 time=0
EXTRACT: note_on channel=9 note=54 velocity=0 time=0.1076922
EXTRACT: note_on channel=9 note=54 velocity=28 time=0
EXTRACT: note_on channel=1 note=33 velocity=0 time=0.0076923
EXTRACT: note_on channel=1 note=29 velocity=74 time=0
EXTRACT: note_on channel=3 note=69 velocity=94 time=0
EXTRACT: note_on channel=9 note=36 velocity=83 time=0
EXTRACT: note_on channel=9 note=42 velocity=53 time=0
EXTRACT: note_on channel=9 note=62 velocity=37 time=0
EXTRACT: note_on channel=3 note=60 velocity=92 time=0.01153845
EXTRACT: note_on channel=3 note=64 velocity=104 time=0.01153845
EXTRACT: note_on channel=9 note=54 velocity=0 time=0.0846153
EXTRACT: note_on channel=9 note=54 velocity=28 time=0
EXTRACT: note_on channel=3 note=64 velocity=0 time=0.0076923
EXTRACT: note_on channel=3 note=60 velocity=0 time=0
EXTRACT: note_on channel=3 note=69 velocity=0 time=0
EXTRACT: note_on channel=7 note=67 velocity=0 time=0
EXTRACT: note_on channel=9 note=36 velocity=0 time=0
EXTRACT: note_on channel=9 note=42 velocity=0 time=0
EXTRACT: note_on channel=9 note=62 velocity=0 time=0
EXTRACT: note_on channel=9 note=54 velocity=0 time=0.1076922
EXTRACT: note_on channel=9 note=54 velocity=41 time=0
EXTRACT: note_on channel=1 note=29 velocity=0 time=0.0076923
EXTRACT: note_on channel=1 note=33 velocity=92 time=0
EXTRACT: note_on channel=7 note=64 velocity=101 time=0
EXTRACT: note_on channel=9 note=40 velocity=100 time=0
EXTRACT: note_on channel=9 note=42 velocity=99 time=0
EXTRACT: note_on channel=9 note=62 velocity=43 time=0
EXTRACT: note_on channel=9 note=54 velocity=0 time=0.1076922
EXTRACT: note_on channel=9 note=54 velocity=28 time=0
EXTRACT: note_on channel=0 note=64 velocity=0 time=0.0076923
EXTRACT: note_on channel=0 note=57 velocity=0 time=0
EXTRACT: note_on channel=0 note=60 velocity=0 time=0
EXTRACT: note_on channel=9 note=40 velocity=0 time=0
EXTRACT: note_on channel=9 note=42 velocity=0 time=0
EXTRACT: note_on channel=9 note=62 velocity=0 time=0
EXTRACT: note_on channel=9 note=54 velocity=0 time=0.1076922
EXTRACT: note_on channel=9 note=54 velocity=31 time=0
EXTRACT: note_on channel=0 note=62 velocity=82 time=0.0076923
EXTRACT: note_on channel=0 note=59 velocity=72 time=0
EXTRACT: note_on channel=0 note=65 velocity=83 time=0
EXTRACT: note_on channel=1 note=33 velocity=0 time=0
EXTRACT: note_on channel=1 note=31 velocity=80 time=0
EXTRACT: note_on channel=3 note=67 velocity=92 time=0
EXTRACT: note_on channel=7 note=64 velocity=0 time=0
EXTRACT: note_on channel=7 note=67 velocity=107 time=0
EXTRACT: note_on channel=9 note=36 velocity=71 time=0
EXTRACT: note_on channel=9 note=42 velocity=31 time=0
EXTRACT: note_on channel=9 note=63 velocity=58 time=0
EXTRACT: note_on channel=3 note=59 velocity=92 time=0.01153845
EXTRACT: note_on channel=3 note=62 velocity=107 time=0.01153845
EXTRACT: note_on channel=9 note=54 velocity=0 time=0.0846153
EXTRACT: note_on channel=9 note=54 velocity=37 time=0
EXTRACT: note_on channel=7 note=67 velocity=0 time=0.0076923
EXTRACT: note_on channel=9 note=36 velocity=0 time=0
EXTRACT: note_on channel=9 note=42 velocity=0 time=0
EXTRACT: note_on channel=9 note=63 velocity=0 time=0
EXTRACT: pitchwheel channel=7 pitch=-129 time=0.076923
EXTRACT: pitchwheel channel=7 pitch=-2185 time=0.0076923
EXTRACT: pitchwheel channel=7 pitch=-4273 time=0.0076923
EXTRACT: pitchwheel channel=7 pitch=-6875 time=0.0076923
EXTRACT: pitchwheel channel=7 pitch=-8192 time=0.0076923
EXTRACT: note_on channel=9 note=54 velocity=0 time=0
EXTRACT: note_on channel=9 note=54 velocity=41 time=0
EXTRACT: note_on channel=1 note=31 velocity=0 time=0.0076923
EXTRACT: note_on channel=7 note=72 velocity=99 time=0
EXTRACT: note_on channel=9 note=36 velocity=101 time=0
EXTRACT: note_on channel=9 note=42 velocity=99 time=0
EXTRACT: pitchwheel channel=7 pitch=-7646 time=0.0461538
EXTRACT: pitchwheel channel=7 pitch=-5655 time=0.00384615
EXTRACT: pitchwheel channel=7 pitch=-4273 time=0.01153845
EXTRACT: pitchwheel channel=7 pitch=-2988 time=0.0076923
EXTRACT: pitchwheel channel=7 pitch=-1478 time=0.0076923
EXTRACT: pitchwheel channel=7 pitch=-258 time=0.01153845
EXTRACT: pitchwheel channel=7 pitch=0 time=0.0076923
EXTRACT: note_on channel=9 note=54 velocity=0 time=0.01153845
EXTRACT: note_on channel=9 note=54 velocity=10 time=0
EXTRACT: note_on channel=9 note=36 velocity=0 time=0.0076923
EXTRACT: note_on channel=9 note=42 velocity=0 time=0
EXTRACT: note_on channel=7 note=72 velocity=0 time=0.076923
EXTRACT: note_on channel=9 note=54 velocity=0 time=0.0307692
EXTRACT: note_on channel=9 note=54 velocity=10 time=0
EXTRACT: note_on channel=1 note=31 velocity=92 time=0.0076923
EXTRACT: note_on channel=7 note=72 velocity=88 time=0
EXTRACT: note_on channel=9 note=42 velocity=42 time=0
EXTRACT: note_on channel=9 note=62 velocity=38 time=0
EXTRACT: note_on channel=9 note=54 velocity=0 time=0.1076922
EXTRACT: note_on channel=9 note=54 velocity=11 time=0
EXTRACT: note_on channel=3 note=62 velocity=0 time=0.0076923
EXTRACT: note_on channel=3 note=59 velocity=0 time=0
EXTRACT: note_on channel=3 note=67 velocity=0 time=0
EXTRACT: note_on channel=9 note=42 velocity=0 time=0
EXTRACT: note_on channel=9 note=62 velocity=0 time=0
EXTRACT: note_on channel=7 note=72 velocity=0 time=0.076923
EXTRACT: note_on channel=9 note=54 velocity=0 time=0.0307692
EXTRACT: note_on channel=9 note=54 velocity=11 time=0
EXTRACT: note_on channel=1 note=31 velocity=0 time=0.0076923
EXTRACT: note_on channel=3 note=67 velocity=82 time=0
EXTRACT: note_on channel=7 note=72 velocity=97 time=0
EXTRACT: note_on channel=9 note=40 velocity=93 time=0
EXTRACT: note_on channel=9 note=42 velocity=99 time=0
EXTRACT: note_on channel=9 note=62 velocity=49 time=0
EXTRACT: note_on channel=3 note=59 velocity=85 time=0.01153845
EXTRACT: note_on channel=3 note=62 velocity=101 time=0.01153845
EXTRACT: note_on channel=9 note=54 velocity=0 time=0.0846153
EXTRACT: note_on channel=9 note=54 velocity=11 time=0
EXTRACT: note_on channel=3 note=62 velocity=0 time=0.0076923
EXTRACT: note_on channel=3 note=59 velocity=0 time=0
EXTRACT: note_on channel=3 note=67 velocity=0 time=0
EXTRACT: note_on channel=9 note=40 velocity=0 time=0
EXTRACT: note_on channel=9 note=42 velocity=0 time=0
EXTRACT: note_on channel=9 note=62 velocity=0 time=0
EXTRACT: note_on channel=7 note=72 velocity=0 time=0.076923
EXTRACT: note_on channel=9 note=54 velocity=0 time=0.0307692
EXTRACT: note_on channel=9 note=54 velocity=13 time=0
EXTRACT: note_on channel=1 note=31 velocity=82 time=0.0076923
EXTRACT: note_on channel=7 note=72 velocity=95 time=0
EXTRACT: note_on channel=9 note=42 velocity=46 time=0
EXTRACT: note_on channel=9 note=64 velocity=70 time=0
EXTRACT: note_on channel=9 note=54 velocity=0 time=0.1076922
EXTRACT: note_on channel=9 note=54 velocity=13 time=0
EXTRACT: note_on channel=9 note=42 velocity=0 time=0.0076923
EXTRACT: note_on channel=9 note=64 velocity=0 time=0
EXTRACT: note_on channel=9 note=54 velocity=0 time=0.1076922
EXTRACT: note_on channel=9 note=54 velocity=38 time=0
EXTRACT: note_on channel=0 note=57 velocity=94 time=0.0076923
EXTRACT: note_on channel=0 note=65 velocity=92 time=0
EXTRACT: note_on channel=0 note=60 velocity=110 time=0
EXTRACT: note_on channel=1 note=31 velocity=0 time=0
EXTRACT: note_on channel=1 note=41 velocity=88 time=0
EXTRACT: note_on channel=6 note=53 velocity=92 time=0
EXTRACT: note_on channel=6 note=65 velocity=92 time=0
EXTRACT: note_on channel=6 note=60 velocity=92 time=0
EXTRACT: note_on channel=7 note=72 velocity=0 time=0
EXTRACT: note_on channel=7 note=69 velocity=110 time=0
EXTRACT: note_on channel=9 note=36 velocity=94 time=0
EXTRACT: note_on channel=9 note=42 velocity=94 time=0
EXTRACT: note_on channel=9 note=54 velocity=0 time=0.1076922
EXTRACT: note_on channel=9 note=54 velocity=27 time=0
EXTRACT: note_on channel=0 note=60 velocity=0 time=0.0076923
EXTRACT: note_on channel=0 note=65 velocity=0 time=0
EXTRACT: note_on channel=0 note=57 velocity=0 time=0
EXTRACT: note_on channel=9 note=36 velocity=0 time=0
EXTRACT: note_on channel=9 note=42 velocity=0 time=0
EXTRACT: note_on channel=7 note=69 velocity=0 time=0.076923
EXTRACT: note_on channel=9 note=54 velocity=0 time=0.0307692
EXTRACT: note_on channel=9 note=54 velocity=27 time=0
EXTRACT: note_on channel=0 note=59 velocity=92 time=0.0076923
EXTRACT: note_on channel=0 note=55 velocity=79 time=0
EXTRACT: note_on channel=0 note=64 velocity=80 time=0
EXTRACT: note_on channel=1 note=41 velocity=0 time=0
EXTRACT: note_on channel=1 note=40 velocity=82 time=0
EXTRACT: note_on channel=3 note=67 velocity=94 time=0
EXTRACT: note_on channel=6 note=52 velocity=88 time=0
EXTRACT: note_on channel=6 note=64 velocity=88 time=0
EXTRACT: note_on channel=6 note=59 velocity=88 time=0
EXTRACT: note_on channel=7 note=67 velocity=107 time=0
EXTRACT: note_on channel=9 note=36 velocity=88 time=0
EXTRACT: note_on channel=9 note=42 velocity=46 time=0
EXTRACT: note_on channel=9 note=62 velocity=48 time=0
EXTRACT: note_on channel=3 note=59 velocity=94 time=0.01153845
EXTRACT: note_on channel=3 note=62 velocity=110 time=0.01153845
EXTRACT: note_on channel=9 note=42 velocity=0 time=0.03461535
EXTRACT: note_on channel=9 note=54 velocity=0 time=0.04999995
EXTRACT: note_on channel=9 note=54 velocity=27 time=0
EXTRACT: note_on channel=3 note=62 velocity=0 time=0.0076923
EXTRACT: note_on channel=3 note=59 velocity=0 time=0
EXTRACT: note_on channel=3 note=67 velocity=0 time=0
EXTRACT: note_on channel=6 note=60 velocity=0 time=0
EXTRACT: note_on channel=6 note=53 velocity=0 time=0
EXTRACT: note_on channel=6 note=65 velocity=0 time=0
EXTRACT: note_on channel=9 note=36 velocity=0 time=0
EXTRACT: note_on channel=9 note=62 velocity=0 time=0
EXTRACT: note_on channel=7 note=67 velocity=0 time=0.0384615
EXTRACT: note_on channel=9 note=54 velocity=0 time=0.0692307
EXTRACT: note_on channel=9 note=54 velocity=36 time=0
EXTRACT: note_on channel=0 note=64 velocity=0 time=0.0076923
EXTRACT: note_on channel=0 note=65 velocity=0 time=0
EXTRACT: note_on channel=0 note=59 velocity=0 time=0
EXTRACT: note_on channel=0 note=55 velocity=0 time=0
EXTRACT: note_on channel=1 note=40 velocity=0 time=0
EXTRACT: note_on channel=6 note=52 velocity=0 time=0
EXTRACT: note_on channel=6 note=64 velocity=0 time=0
EXTRACT: note_on channel=6 note=59 velocity=0 time=0
EXTRACT: note_on channel=7 note=67 velocity=106 time=0
EXTRACT: note_on channel=9 note=40 velocity=93 time=0
EXTRACT: note_on channel=9 note=42 velocity=89 time=0
EXTRACT: note_on channel=9 note=62 velocity=52 time=0
EXTRACT: note_on channel=9 note=54 velocity=0 time=0.1076922
EXTRACT: note_on channel=9 note=54 velocity=27 time=0
EXTRACT: note_on channel=0 note=62 velocity=0 time=0.0076923
EXTRACT: note_on channel=0 note=59 velocity=0 time=0
EXTRACT: note_on channel=9 note=40 velocity=0 time=0
EXTRACT: note_on channel=9 note=42 velocity=0 time=0
EXTRACT: note_on channel=9 note=62 velocity=0 time=0
EXTRACT: note_on channel=9 note=54 velocity=0 time=0.1076922
EXTRACT: note_on channel=9 note=54 velocity=28 time=0
EXTRACT: note_on channel=0 note=53 velocity=92 time=0.0076923
EXTRACT: note_on channel=0 note=57 velocity=107 time=0
EXTRACT: note_on channel=0 note=62 velocity=88 time=0
EXTRACT: note_on channel=1 note=38 velocity=101 time=0
EXTRACT: note_on channel=6 note=50 velocity=83 time=0
EXTRACT: note_on channel=6 note=62 velocity=83 time=0
EXTRACT: note_on channel=6 note=57 velocity=83 time=0
EXTRACT: note_on channel=9 note=36 velocity=71 time=0
EXTRACT: note_on channel=9 note=42 velocity=51 time=0
EXTRACT: note_on channel=9 note=63 velocity=67 time=0
EXTRACT: note_on channel=9 note=54 velocity=0 time=0.1076922
EXTRACT: note_on channel=9 note=54 velocity=38 time=0
EXTRACT: note_on channel=9 note=36 velocity=0 time=0.0076923
EXTRACT: note_on channel=9 note=42 velocity=0 time=0
EXTRACT: note_on channel=9 note=63 velocity=0 time=0
EXTRACT: note_on channel=9 note=54 velocity=0 time=0.1076922
EXTRACT: note_on channel=9 note=54 velocity=39 time=0
EXTRACT: note_on channel=3 note=69 velocity=73 time=0.0076923
EXTRACT: note_on channel=3 note=50 velocity=104 time=0
EXTRACT: note_on channel=3 note=72 velocity=83 time=0
EXTRACT: note_on channel=5 note=55 velocity=104 time=0
EXTRACT: note_on channel=9 note=36 velocity=97 time=0
EXTRACT: note_on channel=9 note=42 velocity=99 time=0
EXTRACT: note_on channel=9 note=49 velocity=63 time=0
EXTRACT: note_on channel=9 note=63 velocity=50 time=0
EXTRACT: note_on channel=9 note=54 velocity=0 time=0.1076922
EXTRACT: note_on channel=9 note=54 velocity=7 time=0
EXTRACT: note_on channel=9 note=36 velocity=0 time=0.0076923
EXTRACT: note_on channel=9 note=42 velocity=0 time=0
EXTRACT: note_on channel=9 note=49 velocity=0 time=0
EXTRACT: note_on channel=9 note=63 velocity=0 time=0
EXTRACT: note_on channel=9 note=54 velocity=0 time=0.1076922
EXTRACT: note_on channel=9 note=54 velocity=7 time=0
EXTRACT: note_on channel=3 note=72 velocity=0 time=0.0076923
EXTRACT: note_on channel=3 note=50 velocity=0 time=0
EXTRACT: note_on channel=3 note=69 velocity=0 time=0
EXTRACT: note_on channel=7 note=67 velocity=0 time=0
EXTRACT: note_on channel=9 note=42 velocity=32 time=0
EXTRACT: note_on channel=9 note=62 velocity=56 time=0
EXTRACT: note_on channel=9 note=54 velocity=0 time=0.1076922
EXTRACT: note_on channel=9 note=54 velocity=7 time=0
EXTRACT: note_on channel=1 note=38 velocity=0 time=0.0076923
EXTRACT: note_on channel=9 note=42 velocity=0 time=0
EXTRACT: note_on channel=9 note=62 velocity=0 time=0
EXTRACT: note_on channel=9 note=54 velocity=0 time=0.1076922
EXTRACT: note_on channel=9 note=54 velocity=10 time=0
EXTRACT: note_on channel=1 note=38 velocity=74 time=0.0076923
EXTRACT: note_on channel=3 note=50 velocity=107 time=0
EXTRACT: note_on channel=3 note=69 velocity=78 time=0
EXTRACT: note_on channel=3 note=72 velocity=83 time=0
EXTRACT: note_on channel=7 note=64 velocity=117 time=0
EXTRACT: note_on channel=9 note=40 velocity=93 time=0
EXTRACT: note_on channel=9 note=42 velocity=99 time=0
EXTRACT: note_on channel=9 note=62 velocity=58 time=0
EXTRACT: note_on channel=9 note=54 velocity=0 time=0.1076922
EXTRACT: note_on channel=9 note=54 velocity=13 time=0
EXTRACT: note_on channel=9 note=40 velocity=0 time=0.0076923
EXTRACT: note_on channel=9 note=42 velocity=0 time=0
EXTRACT: note_on channel=9 note=62 velocity=0 time=0
EXTRACT: note_on channel=7 note=64 velocity=0 time=0.076923
EXTRACT: note_on channel=9 note=54 velocity=0 time=0.0307692
EXTRACT: note_on channel=9 note=54 velocity=12 time=0
EXTRACT: note_on channel=3 note=72 velocity=0 time=0.0076923
EXTRACT: note_on channel=3 note=69 velocity=0 time=0
EXTRACT: note_on channel=3 note=50 velocity=0 time=0
EXTRACT: note_on channel=7 note=67 velocity=123 time=0
EXTRACT: note_on channel=9 note=42 velocity=49 time=0
EXTRACT: note_on channel=9 note=64 velocity=70 time=0
EXTRACT: note_on channel=9 note=54 velocity=0 time=0.1076922
EXTRACT: note_on channel=9 note=54 velocity=13 time=0
EXTRACT: note_on channel=1 note=38 velocity=0 time=0.0076923
EXTRACT: note_on channel=9 note=42 velocity=0 time=0
EXTRACT: note_on channel=9 note=64 velocity=0 time=0
EXTRACT: note_on channel=7 note=67 velocity=0 time=0.076923
EXTRACT: note_on channel=9 note=54 velocity=0 time=0.0307692
EXTRACT: note_on channel=9 note=54 velocity=42 time=0
EXTRACT: note_on channel=1 note=38 velocity=82 time=0.0076923
EXTRACT: note_on channel=3 note=50 velocity=104 time=0
EXTRACT: note_on channel=3 note=69 velocity=75 time=0
EXTRACT: note_on channel=3 note=72 velocity=74 time=0
EXTRACT: note_on channel=7 note=67 velocity=123 time=0
EXTRACT: note_on channel=8 note=71 velocity=93 time=0
EXTRACT: note_on channel=9 note=36 velocity=88 time=0
EXTRACT: note_on channel=9 note=42 velocity=84 time=0
EXTRACT: note_on channel=9 note=54 velocity=0 time=0.1076922
EXTRACT: note_on channel=9 note=54 velocity=28 time=0
EXTRACT: note_on channel=1 note=38 velocity=0 time=0.0076923
EXTRACT: note_on channel=3 note=72 velocity=0 time=0
EXTRACT: note_on channel=3 note=69 velocity=0 time=0
EXTRACT: note_on channel=3 note=50 velocity=0 time=0
EXTRACT: note_on channel=3 note=50 velocity=73 time=0
EXTRACT: note_on channel=3 note=69 velocity=50 time=0
EXTRACT: note_on channel=3 note=72 velocity=60 time=0
EXTRACT: note_on channel=9 note=36 velocity=0 time=0
EXTRACT: note_on channel=9 note=42 velocity=0 time=0
EXTRACT: note_on channel=9 note=54 velocity=0 time=0.1076922
EXTRACT: note_on channel=9 note=54 velocity=28 time=0
EXTRACT: note_on channel=1 note=38 velocity=101 time=0.0076923
EXTRACT: note_on channel=3 note=72 velocity=0 time=0
EXTRACT: note_on channel=3 note=69 velocity=0 time=0
EXTRACT: note_on channel=3 note=50 velocity=0 time=0
EXTRACT: note_on channel=3 note=72 velocity=60 time=0
EXTRACT: note_on channel=3 note=50 velocity=73 time=0
EXTRACT: note_on channel=3 note=69 velocity=73 time=0
EXTRACT: note_on channel=7 note=67 velocity=0 time=0
EXTRACT: note_on channel=7 note=64 velocity=110 time=0
EXTRACT: note_on channel=9 note=36 velocity=94 time=0
EXTRACT: note_on channel=9 note=42 velocity=53 time=0
EXTRACT: note_on channel=9 note=62 velocity=36 time=0
EXTRACT: note_on channel=9 note=54 velocity=0 time=0.1076922
EXTRACT: note_on channel=9 note=54 velocity=28 time=0
EXTRACT: note_on channel=3 note=69 velocity=0 time=0.0076923
EXTRACT: note_on channel=3 note=50 velocity=0 time=0
EXTRACT: note_on channel=3 note=72 velocity=0 time=0
EXTRACT: note_on channel=9 note=36 velocity=0 time=0
EXTRACT: note_on channel=9 note=42 velocity=0 time=0
EXTRACT: note_on channel=9 note=62 velocity=0 time=0
EXTRACT: note_on channel=7 note=64 velocity=0 time=0.076923
EXTRACT: note_on channel=9 note=54 velocity=0 time=0.0307692
EXTRACT: note_on channel=9 note=54 velocity=41 time=0
EXTRACT: note_on channel=3 note=69 velocity=82 time=0.0076923
EXTRACT: note_on channel=3 note=50 velocity=110 time=0
EXTRACT: note_on channel=3 note=72 velocity=88 time=0
EXTRACT: note_on channel=7 note=67 velocity=120 time=0
EXTRACT: note_on channel=9 note=40 velocity=93 time=0
EXTRACT: note_on channel=9 note=42 velocity=94 time=0
EXTRACT: note_on channel=9 note=62 velocity=52 time=0
EXTRACT: note_on channel=9 note=54 velocity=0 time=0.1076922
EXTRACT: note_on channel=9 note=54 velocity=28 time=0
EXTRACT: note_on channel=1 note=38 velocity=0 time=0.0076923
EXTRACT: note_on channel=3 note=72 velocity=0 time=0
EXTRACT: note_on channel=3 note=69 velocity=0 time=0
EXTRACT: note_on channel=9 note=40 velocity=0 time=0
EXTRACT: note_on channel=9 note=42 velocity=0 time=0
EXTRACT: note_on channel=9 note=62 velocity=0 time=0
EXTRACT: note_on channel=7 note=67 velocity=0 time=0.076923
EXTRACT: note_on channel=9 note=54 velocity=0 time=0.0307692
EXTRACT: note_on channel=9 note=54 velocity=31 time=0
EXTRACT: note_on channel=1 note=38 velocity=66 time=0.0076923
EXTRACT: note_on channel=3 note=50 velocity=0 time=0
EXTRACT: note_on channel=7 note=64 velocity=92 time=0
EXTRACT: note_on channel=9 note=36 velocity=70 time=0
EXTRACT: note_on channel=9 note=42 velocity=38 time=0
EXTRACT: note_on channel=9 note=63 velocity=56 time=0
EXTRACT: note_on channel=9 note=54 velocity=0 time=0.1076922
EXTRACT: note_on channel=9 note=54 velocity=37 time=0
EXTRACT: note_on channel=1 note=38 velocity=0 time=0.0076923
EXTRACT: note_on channel=9 note=36 velocity=0 time=0
EXTRACT: note_on channel=9 note=42 velocity=0 time=0
EXTRACT: note_on channel=9 note=63 velocity=0 time=0
EXTRACT: note_on channel=7 note=64 velocity=0 time=0.076923
EXTRACT: pitchwheel channel=7 pitch=-675 time=0.0076923
EXTRACT: pitchwheel channel=7 pitch=-2474 time=0.00384615
EXTRACT: pitchwheel channel=7 pitch=-4370 time=0.01153845
EXTRACT: pitchwheel channel=7 pitch=-6811 time=0.0076923
EXTRACT: note_on channel=9 note=54 velocity=0 time=0
EXTRACT: note_on channel=9 note=54 velocity=41 time=0
EXTRACT: note_on channel=1 note=38 velocity=94 time=0.0076923
EXTRACT: note_on channel=3 note=50 velocity=107 time=0
EXTRACT: note_on channel=3 note=69 velocity=83 time=0
EXTRACT: note_on channel=3 note=72 velocity=90 time=0
EXTRACT: note_on channel=5 note=55 velocity=0 time=0
EXTRACT: note_on channel=5 note=57 velocity=103 time=0
EXTRACT: note_on channel=7 note=69 velocity=120 time=0
EXTRACT: pitchwheel channel=7 pitch=-8192 time=0
EXTRACT: note_on channel=8 note=71 velocity=0 time=0
EXTRACT: note_on channel=8 note=72 velocity=96 time=0
EXTRACT: note_on channel=9 note=36 velocity=104 time=0
EXTRACT: note_on channel=9 note=42 velocity=94 time=0
EXTRACT: pitchwheel channel=7 pitch=-6747 time=0.06538455
EXTRACT: pitchwheel channel=7 pitch=-5430 time=0.0076923
EXTRACT: pitchwheel channel=7 pitch=-4370 time=0.01153845
EXTRACT: pitchwheel channel=7 pitch=-3470 time=0.0076923
EXTRACT: pitchwheel channel=7 pitch=-2249 time=0.0076923
EXTRACT: pitchwheel channel=7 pitch=-1318 time=0.0076923
EXTRACT: note_on channel=9 note=54 velocity=0 time=0
EXTRACT: note_on channel=9 note=54 velocity=10 time=0
EXTRACT: pitchwheel channel=7 pitch=-643 time=0.0076923
EXTRACT: note_on channel=9 note=36 velocity=0 time=0
EXTRACT: note_on channel=9 note=42 velocity=0 time=0
EXTRACT: pitchwheel channel=7 pitch=0 time=0.01153845
EXTRACT: note_on channel=9 note=54 velocity=0 time=0.09615375
EXTRACT: note_on channel=9 note=54 velocity=10 time=0
EXTRACT: note_on channel=1 note=38 velocity=0 time=0.0076923
EXTRACT: note_on channel=3 note=72 velocity=0 time=0
EXTRACT: note_on channel=3 note=69 velocity=0 time=0
EXTRACT: note_on channel=3 note=50 velocity=0 time=0
EXTRACT: note_on channel=9 note=42 velocity=40 time=0
EXTRACT: note_on channel=9 note=62 velocity=46 time=0
EXTRACT: note_on channel=9 note=54 velocity=0 time=0.1076922
EXTRACT: note_on channel=9 note=54 velocity=11 time=0
EXTRACT: note_on channel=5 note=57 velocity=0 time=0.0076923
EXTRACT: note_on channel=7 note=69 velocity=0 time=0
EXTRACT: note_on channel=8 note=72 velocity=0 time=0
EXTRACT: note_on channel=9 note=42 velocity=0 time=0
EXTRACT: note_on channel=9 note=62 velocity=0 time=0
EXTRACT: note_on channel=9 note=54 velocity=0 time=0.1076922
EXTRACT: note_on channel=9 note=54 velocity=11 time=0
EXTRACT: note_on channel=1 note=38 velocity=107 time=0.0076923
EXTRACT: note_on channel=3 note=50 velocity=107 time=0
EXTRACT: note_on channel=3 note=69 velocity=83 time=0
EXTRACT: note_on channel=3 note=72 velocity=88 time=0
EXTRACT: note_on channel=5 note=57 velocity=109 time=0
EXTRACT: note_on channel=7 note=69 velocity=123 time=0
EXTRACT: note_on channel=8 note=72 velocity=97 time=0
EXTRACT: note_on channel=9 note=40 velocity=87 time=0
EXTRACT: note_on channel=9 note=42 velocity=94 time=0
EXTRACT: note_on channel=9 note=62 velocity=50 time=0
EXTRACT: note_on channel=9 note=54 velocity=0 time=0.1076922
EXTRACT: note_on channel=9 note=54 velocity=11 time=0
EXTRACT: note_on channel=9 note=40 velocity=0 time=0.0076923
EXTRACT: note_on channel=9 note=42 velocity=0 time=0
EXTRACT: note_on channel=9 note=62 velocity=0 time=0
EXTRACT: note_on channel=9 note=54 velocity=0 time=0.1076922
EXTRACT: note_on channel=9 note=54 velocity=13 time=0
EXTRACT: note_on channel=0 note=62 velocity=0 time=0.0076923
EXTRACT: note_on channel=0 note=57 velocity=0 time=0
EXTRACT: note_on channel=0 note=53 velocity=0 time=0
EXTRACT: note_on channel=3 note=72 velocity=0 time=0
EXTRACT: note_on channel=3 note=69 velocity=0 time=0
EXTRACT: note_on channel=3 note=50 velocity=0 time=0
EXTRACT: note_on channel=9 note=42 velocity=34 time=0
EXTRACT: note_on channel=9 note=64 velocity=66 time=0
EXTRACT: note_on channel=9 note=54 velocity=0 time=0.1076922
EXTRACT: note_on channel=9 note=54 velocity=13 time=0
EXTRACT: note_on channel=1 note=38 velocity=0 time=0.0076923
EXTRACT: note_on channel=5 note=57 velocity=0 time=0
EXTRACT: note_on channel=6 note=57 velocity=0 time=0
EXTRACT: note_on channel=6 note=62 velocity=0 time=0
EXTRACT: note_on channel=6 note=50 velocity=0 time=0
EXTRACT: note_on channel=7 note=69 velocity=0 time=0
EXTRACT: note_on channel=8 note=72 velocity=0 time=0
EXTRACT: note_on channel=9 note=42 velocity=0 time=0
EXTRACT: note_on channel=9 note=64 velocity=0 time=0
EXTRACT: note_on channel=9 note=54 velocity=0 time=0.1076922
EXTRACT: note_on channel=9 note=54 velocity=38 time=0
EXTRACT: note_on channel=0 note=57 velocity=88 time=0.0076923
EXTRACT: note_on channel=0 note=60 velocity=104 time=0
EXTRACT: note_on channel=0 note=65 velocity=88 time=0
EXTRACT: note_on channel=1 note=41 velocity=88 time=0
EXTRACT: note_on channel=3 note=50 velocity=110 time=0
EXTRACT: note_on channel=3 note=69 velocity=88 time=0
EXTRACT: note_on channel=3 note=72 velocity=73 time=0
EXTRACT: note_on channel=6 note=53 velocity=89 time=0
EXTRACT: note_on channel=6 note=65 velocity=89 time=0
EXTRACT: note_on channel=6 note=60 velocity=89 time=0
EXTRACT: note_on channel=9 note=36 velocity=86 time=0
EXTRACT: note_on channel=9 note=42 velocity=94 time=0
EXTRACT: note_on channel=9 note=54 velocity=0 time=0.1076922
EXTRACT: note_on channel=9 note=54 velocity=27 time=0
EXTRACT: note_on channel=3 note=72 velocity=0 time=0.0076923
EXTRACT: note_on channel=3 note=69 velocity=0 time=0
EXTRACT: note_on channel=3 note=50 velocity=0 time=0
EXTRACT: note_on channel=3 note=50 velocity=74 time=0
EXTRACT: note_on channel=3 note=69 velocity=66 time=0
EXTRACT: note_on channel=3 note=72 velocity=80 time=0
EXTRACT: note_on channel=9 note=36 velocity=0 time=0
EXTRACT: note_on channel=9 note=42 velocity=0 time=0
EXTRACT: note_on channel=9 note=54 velocity=0 time=0.1076922
EXTRACT: note_on channel=9 note=54 velocity=27 time=0
EXTRACT: note_on channel=0 note=65 velocity=0 time=0.0076923
EXTRACT: note_on channel=0 note=60 velocity=0 time=0
EXTRACT: note_on channel=0 note=57 velocity=0 time=0
EXTRACT: note_on channel=0 note=55 velocity=88 time=0
EXTRACT: note_on channel=0 note=59 velocity=104 time=0
EXTRACT: note_on channel=0 note=64 velocity=92 time=0
EXTRACT: note_on channel=1 note=41 velocity=0 time=0
EXTRACT: note_on channel=1 note=40 velocity=94 time=0
EXTRACT: note_on channel=3 note=72 velocity=0 time=0
EXTRACT: note_on channel=3 note=69 velocity=0 time=0
EXTRACT: note_on channel=3 note=50 velocity=0 time=0
EXTRACT: note_on channel=3 note=72 velocity=60 time=0
EXTRACT: note_on channel=3 note=69 velocity=73 time=0
EXTRACT: note_on channel=3 note=50 velocity=78 time=0
EXTRACT: note_on channel=6 note=60 velocity=0 time=0
EXTRACT: note_on channel=6 note=65 velocity=0 time=0
EXTRACT: note_on channel=6 note=53 velocity=0 time=0
EXTRACT: note_on channel=6 note=52 velocity=79 time=0
EXTRACT: note_on channel=6 note=64 velocity=79 time=0
EXTRACT: note_on channel=6 note=59 velocity=79 time=0
EXTRACT: note_on channel=9 note=36 velocity=85 time=0
EXTRACT: note_on channel=9 note=42 velocity=31 time=0
EXTRACT: note_on channel=9 note=62 velocity=36 time=0
EXTRACT: note_on channel=3 note=50 velocity=0 time=0.0384615
EXTRACT: note_on channel=9 note=54 velocity=0 time=0.0692307
EXTRACT: note_on channel=9 note=54 velocity=27 time=0
EXTRACT: note_on channel=3 note=69 velocity=0 time=0.0076923
EXTRACT: note_on channel=3 note=72 velocity=0 time=0
EXTRACT: note_on channel=9 note=36 velocity=0 time=0
EXTRACT: note_on channel=9 note=42 velocity=0 time=0
EXTRACT: note_on channel=9 note=62 velocity=0 time=0
EXTRACT: note_on channel=9 note=54 velocity=0 time=0.1076922
EXTRACT: note_on channel=9 note=54 velocity=36 time=0
EXTRACT: note_on channel=0 note=64 velocity=0 time=0.0076923
EXTRACT: note_on channel=0 note=59 velocity=0 time=0
EXTRACT: note_on channel=0 note=55 velocity=0 time=0
EXTRACT: note_on channel=1 note=40 velocity=0 time=0
EXTRACT: note_on channel=3 note=69 velocity=88 time=0
EXTRACT: note_on channel=3 note=50 velocity=113 time=0
EXTRACT: note_on channel=3 note=72 velocity=92 time=0
EXTRACT: note_on channel=6 note=59 velocity=0 time=0
EXTRACT: note_on channel=6 note=64 velocity=0 time=0
EXTRACT: note_on channel=6 note=52 velocity=0 time=0
EXTRACT: note_on channel=9 note=40 velocity=87 time=0
EXTRACT: note_on channel=9 note=42 velocity=99 time=0
EXTRACT: note_on channel=9 note=62 velocity=50 time=0
EXTRACT: note_on channel=9 note=54 velocity=0 time=0.1076922
EXTRACT: note_on channel=9 note=54 velocity=27 time=0
EXTRACT: note_on channel=9 note=40 velocity=0 time=0.0076923
EXTRACT: note_on channel=9 note=42 velocity=0 time=0
EXTRACT: note_on channel=9 note=62 velocity=0 time=0
EXTRACT: note_on channel=3 note=72 velocity=0 time=0.076923
EXTRACT: note_on channel=3 note=50 velocity=0 time=0
EXTRACT: note_on channel=3 note=69 velocity=0 time=0
EXTRACT: note_on channel=9 note=54 velocity=0 time=0.0307692
EXTRACT: note_on channel=9 note=54 velocity=28 time=0
EXTRACT: note_on channel=0 note=53 velocity=88 time=0.0076923
EXTRACT: note_on channel=0 note=57 velocity=104 time=0
EXTRACT: note_on channel=0 note=62 velocity=88 time=0
EXTRACT: note_on channel=1 note=38 velocity=107 time=0
EXTRACT: note_on channel=6 note=50 velocity=76 time=0
EXTRACT: note_on channel=6 note=62 velocity=76 time=0
EXTRACT: note_on channel=6 note=57 velocity=76 time=0
EXTRACT: note_on channel=9 note=36 velocity=71 time=0
EXTRACT: note_on channel=9 note=42 velocity=38 time=0
EXTRACT: note_on channel=9 note=63 velocity=58 time=0
EXTRACT: note_on channel=9 note=54 velocity=0 time=0.1076922
EXTRACT: note_on channel=9 note=54 velocity=38 time=0
EXTRACT: note_on channel=9 note=36 velocity=0 time=0.0076923
EXTRACT: note_on channel=9 note=42 velocity=0 time=0
EXTRACT: note_on channel=9 note=63 velocity=0 time=0
EXTRACT: note_on channel=9 note=54 velocity=0 time=0.1076922
EXTRACT: note_on channel=9 note=54 velocity=39 time=0
EXTRACT: note_on channel=3 note=50 velocity=120 time=0.0076923
EXTRACT: note_on channel=3 note=69 velocity=92 time=0
EXTRACT: note_on channel=3 note=72 velocity=92 time=0
EXTRACT: note_on channel=5 note=55 velocity=111 time=0
EXTRACT: note_on channel=9 note=36 velocity=101 time=0
EXTRACT: note_on channel=9 note=42 velocity=99 time=0
EXTRACT: note_on channel=9 note=54 velocity=0 time=0.1076922
EXTRACT: note_on channel=9 note=54 velocity=7 time=0
EXTRACT: note_on channel=9 note=36 velocity=0 time=0.0076923
EXTRACT: note_on channel=9 note=42 velocity=0 time=0
EXTRACT: note_on channel=9 note=54 velocity=0 time=0.1076922
EXTRACT: note_on channel=9 note=54 velocity=7 time=0
EXTRACT: note_on channel=3 note=72 velocity=0 time=0.0076923
EXTRACT: note_on channel=3 note=69 velocity=0 time=0
EXTRACT: note_on channel=3 note=50 velocity=0 time=0
EXTRACT: note_on channel=7 note=64 velocity=107 time=0
EXTRACT: note_on channel=9 note=42 velocity=27 time=0
EXTRACT: note_on channel=9 note=62 velocity=34 time=0
EXTRACT: note_on channel=9 note=54 velocity=0 time=0.1076922
EXTRACT: note_on channel=9 note=54 velocity=7 time=0
EXTRACT: note_on channel=9 note=42 velocity=0 time=0.0076923
EXTRACT: note_on channel=9 note=62 velocity=0 time=0
EXTRACT: note_on channel=7 note=64 velocity=0 time=0.076923
EXTRACT: note_on channel=9 note=54 velocity=0 time=0.0307692
EXTRACT: note_on channel=9 note=54 velocity=10 time=0
EXTRACT: note_on channel=3 note=50 velocity=117 time=0.0076923
EXTRACT: note_on channel=3 note=69 velocity=88 time=0
EXTRACT: note_on channel=3 note=72 velocity=94 time=0
EXTRACT: note_on channel=7 note=67 velocity=123 time=0
EXTRACT: note_on channel=9 note=40 velocity=93 time=0
EXTRACT: note_on channel=9 note=42 velocity=94 time=0
EXTRACT: note_on channel=9 note=62 velocity=46 time=0
EXTRACT: note_on channel=9 note=54 velocity=0 time=0.1076922
EXTRACT: note_on channel=9 note=54 velocity=13 time=0
EXTRACT: note_on channel=9 note=40 velocity=0 time=0.0076923
EXTRACT: note_on channel=9 note=42 velocity=0 time=0
EXTRACT: note_on channel=9 note=62 velocity=0 time=0
EXTRACT: note_on channel=7 note=67 velocity=0 time=0.076923
EXTRACT: note_on channel=9 note=54 velocity=0 time=0.0307692
EXTRACT: note_on channel=9 note=54 velocity=12 time=0
EXTRACT: note_on channel=3 note=72 velocity=0 time=0.0076923
EXTRACT: note_on channel=3 note=69 velocity=0 time=0
EXTRACT: note_on channel=3 note=50 velocity=0 time=0
EXTRACT: note_on channel=7 note=64 velocity=97 time=0
EXTRACT: note_on channel=9 note=42 velocity=23 time=0
EXTRACT: note_on channel=9 note=64 velocity=66 time=0
EXTRACT: note_on channel=9 note=54 velocity=0 time=0.1076922
EXTRACT: note_on channel=9 note=54 velocity=13 time=0
EXTRACT: note_on channel=1 note=38 velocity=0 time=0.0076923
EXTRACT: note_on channel=9 note=42 velocity=0 time=0
EXTRACT: note_on channel=9 note=64 velocity=0 time=0
EXTRACT: note_on channel=7 note=64 velocity=0 time=0.076923
EXTRACT: note_on channel=9 note=54 velocity=0 time=0.0307692
EXTRACT: note_on channel=9 note=54 velocity=42 time=0
EXTRACT: note_on channel=1 note=38 velocity=82 time=0.0076923
EXTRACT: note_on channel=3 note=50 velocity=113 time=0
EXTRACT: note_on channel=3 note=69 velocity=88 time=0
EXTRACT: note_on channel=3 note=72 velocity=82 time=0
EXTRACT: note_on channel=7 note=67 velocity=117 time=0
EXTRACT: note_on channel=8 note=71 velocity=92 time=0
EXTRACT: note_on channel=9 note=36 velocity=85 time=0
EXTRACT: note_on channel=9 note=42 velocity=99 time=0
EXTRACT: note_on channel=9 note=54 velocity=0 time=0.1076922
EXTRACT: note_on channel=9 note=54 velocity=28 time=0
EXTRACT: note_on channel=1 note=38 velocity=0 time=0.0076923
EXTRACT: note_on channel=3 note=72 velocity=0 time=0
EXTRACT: note_on channel=3 note=69 velocity=0 time=0
EXTRACT: note_on channel=3 note=50 velocity=0 time=0
EXTRACT: note_on channel=3 note=50 velocity=76 time=0
EXTRACT: note_on channel=3 note=69 velocity=63 time=0
EXTRACT: note_on channel=3 note=72 velocity=79 time=0
EXTRACT: note_on channel=9 note=36 velocity=0 time=0
EXTRACT: note_on channel=9 note=42 velocity=0 time=0
EXTRACT: note_on channel=7 note=67 velocity=0 time=0.076923
EXTRACT: note_on channel=9 note=54 velocity=0 time=0.0307692
EXTRACT: note_on channel=9 note=54 velocity=28 time=0
EXTRACT: note_on channel=1 note=38 velocity=94 time=0.0076923
EXTRACT: note_on channel=3 note=72 velocity=0 time=0
EXTRACT: note_on channel=3 note=69 velocity=0 time=0
EXTRACT: note_on channel=3 note=50 velocity=0 time=0
EXTRACT: note_on channel=3 note=69 velocity=63 time=0
EXTRACT: note_on channel=3 note=50 velocity=76 time=0
EXTRACT: note_on channel=3 note=72 velocity=62 time=0
EXTRACT: note_on channel=7 note=64 velocity=110 time=0
EXTRACT: note_on channel=9 note=36 velocity=83 time=0
EXTRACT: note_on channel=9 note=42 velocity=53 time=0
EXTRACT: note_on channel=9 note=62 velocity=37 time=0
EXTRACT: note_on channel=9 note=54 velocity=0 time=0.1076922
EXTRACT: note_on channel=9 note=54 velocity=28 time=0
EXTRACT: note_on channel=3 note=72 velocity=0 time=0.0076923
EXTRACT: note_on channel=3 note=50 velocity=0 time=0
EXTRACT: note_on channel=3 note=69 velocity=0 time=0
EXTRACT: note_on channel=9 note=36 velocity=0 time=0
EXTRACT: note_on channel=9 note=42 velocity=0 time=0
EXTRACT: note_on channel=9 note=62 velocity=0 time=0
EXTRACT: note_on channel=7 note=64 velocity=0 time=0.076923
EXTRACT: note_on channel=9 note=54 velocity=0 time=0.0307692
EXTRACT: note_on channel=9 note=54 velocity=41 time=0
EXTRACT: note_on channel=3 note=69 velocity=83 time=0.0076923
EXTRACT: note_on channel=3 note=50 velocity=110 time=0
EXTRACT: note_on channel=3 note=72 velocity=90 time=0
EXTRACT: note_on channel=7 note=67 velocity=120 time=0
EXTRACT: note_on channel=9 note=40 velocity=100 time=0
EXTRACT: note_on channel=9 note=42 velocity=99 time=0
EXTRACT: note_on channel=9 note=62 velocity=43 time=0
EXTRACT: note_on channel=9 note=54 velocity=0 time=0.1076922
EXTRACT: note_on channel=9 note=54 velocity=28 time=0
EXTRACT: note_on channel=1 note=38 velocity=0 time=0.0076923
EXTRACT: note_on channel=9 note=40 velocity=0 time=0
EXTRACT: note_on channel=9 note=42 velocity=0 time=0
EXTRACT: note_on channel=9 note=62 velocity=0 time=0
EXTRACT: note_on channel=7 note=67 velocity=0 time=0.0384615
EXTRACT: note_on channel=9 note=54 velocity=0 time=0.0692307
EXTRACT: note_on channel=9 note=54 velocity=31 time=0
EXTRACT: note_on channel=1 note=38 velocity=62 time=0.0076923
EXTRACT: note_on channel=3 note=72 velocity=0 time=0
EXTRACT: note_on channel=3 note=50 velocity=0 time=0
EXTRACT: note_on channel=3 note=69 velocity=0 time=0
EXTRACT: note_on channel=7 note=64 velocity=99 time=0
EXTRACT: note_on channel=9 note=36 velocity=71 time=0
EXTRACT: note_on channel=9 note=42 velocity=31 time=0
EXTRACT: note_on channel=9 note=63 velocity=58 time=0
EXTRACT: note_on channel=9 note=54 velocity=0 time=0.1076922
EXTRACT: note_on channel=9 note=54 velocity=37 time=0
EXTRACT: note_on channel=1 note=38 velocity=0 time=0.0076923
EXTRACT: note_on channel=9 note=36 velocity=0 time=0
EXTRACT: note_on channel=9 note=42 velocity=0 time=0
EXTRACT: note_on channel=9 note=63 velocity=0 time=0
EXTRACT: note_on channel=7 note=64 velocity=0 time=0.0384615
EXTRACT: note_on channel=9 note=54 velocity=0 time=0.0692307
EXTRACT: note_on channel=9 note=54 velocity=41 time=0
EXTRACT: pitchwheel channel=7 pitch=-1478 time=0.00384615
EXTRACT: note_on channel=1 note=38 velocity=85 time=0.00384615
EXTRACT: note_on channel=3 note=50 velocity=117 time=0
EXTRACT: note_on channel=3 note=69 velocity=82 time=0
EXTRACT: note_on channel=3 note=72 velocity=85 time=0
EXTRACT: note_on channel=5 note=55 velocity=0 time=0
EXTRACT: note_on channel=5 note=57 velocity=109 time=0
EXTRACT: note_on channel=7 note=69 velocity=113 time=0
EXTRACT: note_on channel=8 note=71 velocity=0 time=0
EXTRACT: note_on channel=8 note=72 velocity=93 time=0
EXTRACT: note_on channel=9 note=36 velocity=101 time=0
EXTRACT: note_on channel=9 note=42 velocity=99 time=0
EXTRACT: pitchwheel channel=7 pitch=-3245 time=0.00384615
EXTRACT: pitchwheel channel=7 pitch=-4884 time=0.00384615
EXTRACT: pitchwheel channel=7 pitch=-6040 time=0.01153845
EXTRACT: pitchwheel channel=7 pitch=-6940 time=0.0076923
EXTRACT: pitchwheel channel=7 pitch=-7132 time=0.0076923
EXTRACT: pitchwheel channel=7 pitch=-7197 time=0.0076923
EXTRACT: pitchwheel channel=7 pitch=-7132 time=0.0076923
EXTRACT: pitchwheel channel=7 pitch=-6940 time=0.0076923
EXTRACT: pitchwheel channel=7 pitch=-6426 time=0.0153846
EXTRACT: pitchwheel channel=7 pitch=-5783 time=0.0076923
EXTRACT: pitchwheel channel=7 pitch=-5173 time=0.0076923
EXTRACT: pitchwheel channel=7 pitch=-4627 time=0.00384615
EXTRACT: pitchwheel channel=7 pitch=-3952 time=0.0076923
EXTRACT: note_on channel=9 note=54 velocity=0 time=0.0076923
EXTRACT: note_on channel=9 note=54 velocity=10 time=0
EXTRACT: pitchwheel channel=7 pitch=-3181 time=0.00384615
EXTRACT: note_on channel=9 note=36 velocity=0 time=0.00384615
EXTRACT: note_on channel=9 note=42 velocity=0 time=0
EXTRACT: pitchwheel channel=7 pitch=-2474 time=0.0076923
EXTRACT: pitchwheel channel=7 pitch=-1703 time=0.00384615
EXTRACT: pitchwheel channel=7 pitch=-1061 time=0.0076923
EXTRACT: pitchwheel channel=7 pitch=-418 time=0.0076923
EXTRACT: pitchwheel channel=7 pitch=0 time=0.01153845
EXTRACT: note_on channel=9 note=54 velocity=0 time=0.0692307
EXTRACT: note_on channel=9 note=54 velocity=10 time=0
EXTRACT: note_on channel=1 note=38 velocity=0 time=0.0076923
EXTRACT: note_on channel=3 note=72 velocity=0 time=0
EXTRACT: note_on channel=3 note=69 velocity=0 time=0
EXTRACT: note_on channel=3 note=50 velocity=0 time=0
EXTRACT: note_on channel=9 note=42 velocity=42 time=0
EXTRACT: note_on channel=9 note=62 velocity=38 time=0
EXTRACT: note_on channel=9 note=54 velocity=0 time=0.1076922
EXTRACT: note_on channel=9 note=54 velocity=11 time=0
EXTRACT: note_on channel=5 note=57 velocity=0 time=0.0076923
EXTRACT: note_on channel=7 note=69 velocity=0 time=0
EXTRACT: note_on channel=8 note=72 velocity=0 time=0
EXTRACT: note_on channel=9 note=42 velocity=0 time=0
EXTRACT: note_on channel=9 note=62 velocity=0 time=0
EXTRACT: note_on channel=9 note=54 velocity=0 time=0.1076922
EXTRACT: note_on channel=9 note=54 velocity=11 time=0
EXTRACT: note_on channel=1 note=38 velocity=99 time=0.0076923
EXTRACT: note_on channel=3 note=50 velocity=113 time=0
EXTRACT: note_on channel=3 note=69 velocity=78 time=0
EXTRACT: note_on channel=3 note=72 velocity=88 time=0
EXTRACT: note_on channel=5 note=57 velocity=111 time=0
EXTRACT: note_on channel=7 note=69 velocity=120 time=0
EXTRACT: note_on channel=8 note=72 velocity=94 time=0
EXTRACT: note_on channel=9 note=40 velocity=93 time=0
EXTRACT: note_on channel=9 note=42 velocity=99 time=0
EXTRACT: note_on channel=9 note=62 velocity=49 time=0
EXTRACT: note_on channel=9 note=54 velocity=0 time=0.1076922
EXTRACT: note_on channel=9 note=54 velocity=11 time=0
EXTRACT: note_on channel=9 note=40 velocity=0 time=0.0076923
EXTRACT: note_on channel=9 note=42 velocity=0 time=0
EXTRACT: note_on channel=9 note=62 velocity=0 time=0
EXTRACT: note_on channel=9 note=54 velocity=0 time=0.1076922
EXTRACT: note_on channel=9 note=54 velocity=13 time=0
EXTRACT: note_on channel=0 note=62 velocity=0 time=0.0076923
EXTRACT: note_on channel=0 note=57 velocity=0 time=0
EXTRACT: note_on channel=0 note=53 velocity=0 time=0
EXTRACT: note_on channel=1 note=38 velocity=0 time=0
EXTRACT: note_on channel=3 note=72 velocity=0 time=0
EXTRACT: note_on channel=3 note=69 velocity=0 time=0
EXTRACT: note_on channel=3 note=50 velocity=0 time=0
EXTRACT: note_on channel=9 note=42 velocity=46 time=0
EXTRACT: note_on channel=9 note=64 velocity=70 time=0
EXTRACT: note_on channel=9 note=54 velocity=0 time=0.1076922
EXTRACT: note_on channel=9 note=54 velocity=13 time=0
EXTRACT: note_on channel=5 note=57 velocity=0 time=0.0076923
EXTRACT: note_on channel=6 note=57 velocity=0 time=0
EXTRACT: note_on channel=6 note=62 velocity=0 time=0
EXTRACT: note_on channel=6 note=50 velocity=0 time=0
EXTRACT: note_on channel=7 note=69 velocity=0 time=0
EXTRACT: note_on channel=8 note=72 velocity=0 time=0
EXTRACT: note_on channel=9 note=42 velocity=0 time=0
EXTRACT: note_on channel=9 note=64 velocity=0 time=0
EXTRACT: note_on channel=9 note=54 velocity=0 time=0.1076922
EXTRACT: note_on channel=9 note=54 velocity=38 time=0
EXTRACT: note_on channel=0 note=57 velocity=88 time=0.0076923
EXTRACT: note_on channel=0 note=65 velocity=85 time=0
EXTRACT: note_on channel=0 note=60 velocity=101 time=0
EXTRACT: note_on channel=1 note=41 velocity=85 time=0
EXTRACT: note_on channel=3 note=50 velocity=104 time=0
EXTRACT: note_on channel=3 note=69 velocity=76 time=0
EXTRACT: note_on channel=3 note=72 velocity=70 time=0
EXTRACT: note_on channel=6 note=53 velocity=81 time=0
EXTRACT: note_on channel=6 note=65 velocity=81 time=0
EXTRACT: note_on channel=6 note=60 velocity=81 time=0
EXTRACT: note_on channel=9 note=36 velocity=94 time=0
EXTRACT: note_on channel=9 note=42 velocity=94 time=0
EXTRACT: note_on channel=9 note=54 velocity=0 time=0.1076922
EXTRACT: note_on channel=9 note=54 velocity=27 time=0
EXTRACT: note_on channel=0 note=60 velocity=0 time=0.0076923
EXTRACT: note_on channel=0 note=65 velocity=0 time=0
EXTRACT: note_on channel=0 note=57 velocity=0 time=0
EXTRACT: note_on channel=3 note=72 velocity=0 time=0
EXTRACT: note_on channel=3 note=69 velocity=0 time=0
EXTRACT: note_on channel=3 note=50 velocity=0 time=0
EXTRACT: note_on channel=3 note=50 velocity=64 time=0
EXTRACT: note_on channel=3 note=69 velocity=55 time=0
EXTRACT: note_on channel=3 note=72 velocity=69 time=0
EXTRACT: note_on channel=9 note=36 velocity=0 time=0
EXTRACT: note_on channel=9 note=42 velocity=0 time=0
EXTRACT: note_on channel=9 note=54 velocity=0 time=0.1076922
EXTRACT: note_on channel=9 note=54 velocity=27 time=0
EXTRACT: note_on channel=0 note=55 velocity=78 time=0.0076923
EXTRACT: note_on channel=0 note=59 velocity=94 time=0
EXTRACT: note_on channel=0 note=64 velocity=88 time=0
EXTRACT: note_on channel=1 note=41 velocity=0 time=0
EXTRACT: note_on channel=1 note=40 velocity=74 time=0
EXTRACT: note_on channel=3 note=72 velocity=0 time=0
EXTRACT: note_on channel=3 note=69 velocity=0 time=0
EXTRACT: note_on channel=3 note=50 velocity=0 time=0
EXTRACT: note_on channel=3 note=50 velocity=63 time=0
EXTRACT: note_on channel=3 note=69 velocity=63 time=0
EXTRACT: note_on channel=3 note=72 velocity=53 time=0
EXTRACT: note_on channel=6 note=60 velocity=0 time=0
EXTRACT: note_on channel=6 note=65 velocity=0 time=0
EXTRACT: note_on channel=6 note=53 velocity=0 time=0
EXTRACT: note_on channel=6 note=52 velocity=74 time=0
EXTRACT: note_on channel=6 note=64 velocity=74 time=0
EXTRACT: note_on channel=6 note=59 velocity=74 time=0
EXTRACT: note_on channel=9 note=36 velocity=88 time=0
EXTRACT: note_on channel=9 note=42 velocity=46 time=0
EXTRACT: note_on channel=9 note=62 velocity=48 time=0
EXTRACT: note_on channel=9 note=42 velocity=0 time=0.05769225
EXTRACT: note_on channel=9 note=54 velocity=0 time=0.04999995
EXTRACT: note_on channel=9 note=54 velocity=27 time=0
EXTRACT: note_on channel=3 note=72 velocity=0 time=0.0076923
EXTRACT: note_on channel=3 note=69 velocity=0 time=0
EXTRACT: note_on channel=3 note=50 velocity=0 time=0
EXTRACT: note_on channel=9 note=36 velocity=0 time=0
EXTRACT: note_on channel=9 note=62 velocity=0 time=0
EXTRACT: note_on channel=9 note=54 velocity=0 time=0.1076922
EXTRACT: note_on channel=9 note=54 velocity=36 time=0
EXTRACT: note_on channel=0 note=64 velocity=0 time=0.0076923
EXTRACT: note_on channel=0 note=59 velocity=0 time=0
EXTRACT: note_on channel=0 note=55 velocity=0 time=0
EXTRACT: note_on channel=1 note=40 velocity=0 time=0
EXTRACT: note_on channel=3 note=50 velocity=113 time=0
EXTRACT: note_on channel=3 note=69 velocity=88 time=0
EXTRACT: note_on channel=3 note=72 velocity=88 time=0
EXTRACT: note_on channel=6 note=59 velocity=0 time=0
EXTRACT: note_on channel=6 note=64 velocity=0 time=0
EXTRACT: note_on channel=6 note=52 velocity=0 time=0
EXTRACT: note_on channel=9 note=40 velocity=93 time=0
EXTRACT: note_on channel=9 note=42 velocity=89 time=0
EXTRACT: note_on channel=9 note=62 velocity=52 time=0
EXTRACT: note_on channel=9 note=54 velocity=0 time=0.1076922
EXTRACT: note_on channel=9 note=54 velocity=27 time=0
EXTRACT: note_on channel=9 note=40 velocity=0 time=0.0076923
EXTRACT: note_on channel=9 note=42 velocity=0 time=0
EXTRACT: note_on channel=9 note=62 velocity=0 time=0
EXTRACT: note_on channel=9 note=54 velocity=0 time=0.1076922
EXTRACT: note_on channel=9 note=54 velocity=28 time=0
EXTRACT: note_on channel=0 note=53 velocity=94 time=0.0076923
EXTRACT: note_on channel=0 note=57 velocity=104 time=0
EXTRACT: note_on channel=0 note=62 velocity=85 time=0
EXTRACT: note_on channel=1 note=38 velocity=113 time=0
EXTRACT: note_on channel=3 note=72 velocity=0 time=0
EXTRACT: note_on channel=3 note=69 velocity=0 time=0
EXTRACT: note_on channel=3 note=50 velocity=0 time=0
EXTRACT: note_on channel=6 note=50 velocity=71 time=0
EXTRACT: note_on channel=6 note=62 velocity=71 time=0
EXTRACT: note_on channel=6 note=57 velocity=71 time=0
EXTRACT: note_on channel=9 note=36 velocity=71 time=0
EXTRACT: note_on channel=9 note=42 velocity=51 time=0
EXTRACT: note_on channel=9 note=63 velocity=67 time=0
EXTRACT: note_on channel=9 note=54 velocity=0 time=0.1076922
EXTRACT: note_on channel=9 note=54 velocity=38 time=0
EXTRACT: note_on channel=9 note=36 velocity=0 time=0.0076923
EXTRACT: note_on channel=9 note=42 velocity=0 time=0
EXTRACT: note_on channel=9 note=63 velocity=0 time=0
EXTRACT: note_on channel=9 note=54 velocity=0 time=0.1076922
EXTRACT: note_on channel=9 note=54 velocity=39 time=0
EXTRACT: note_on channel=3 note=69 velocity=85 time=0.0076923
EXTRACT: note_on channel=3 note=50 velocity=113 time=0
EXTRACT: note_on channel=3 note=72 velocity=88 time=0
EXTRACT: note_on channel=9 note=36 velocity=97 time=0
EXTRACT: note_on channel=9 note=42 velocity=99 time=0
EXTRACT: note_on channel=9 note=63 velocity=50 time=0
EXTRACT: note_on channel=9 note=54 velocity=0 time=0.1076922
EXTRACT: note_on channel=9 note=54 velocity=7 time=0
EXTRACT: note_on channel=9 note=36 velocity=0 time=0.0076923
EXTRACT: note_on channel=9 note=42 velocity=0 time=0
EXTRACT: note_on channel=9 note=63 velocity=0 time=0
EXTRACT: note_on channel=9 note=54 velocity=0 time=0.1076922
EXTRACT: note_on channel=9 note=54 velocity=7 time=0
EXTRACT: note_on channel=3 note=72 velocity=0 time=0.0076923
EXTRACT: note_on channel=3 note=50 velocity=0 time=0
EXTRACT: note_on channel=3 note=69 velocity=0 time=0
EXTRACT: note_on channel=7 note=57 velocity=110 time=0
EXTRACT: note_on channel=9 note=42 velocity=32 time=0
EXTRACT: note_on channel=9 note=62 velocity=56 time=0
EXTRACT: note_on channel=9 note=54 velocity=0 time=0.1076922
EXTRACT: note_on channel=9 note=54 velocity=7 time=0
EXTRACT: note_on channel=7 note=57 velocity=0 time=0.0076923
EXTRACT: note_on channel=9 note=42 velocity=0 time=0
EXTRACT: note_on channel=9 note=62 velocity=0 time=0
EXTRACT: note_on channel=9 note=54 velocity=0 time=0.1076922
EXTRACT: note_on channel=9 note=54 velocity=10 time=0
EXTRACT: note_on channel=3 note=50 velocity=113 time=0.0076923
EXTRACT: note_on channel=3 note=69 velocity=85 time=0
EXTRACT: note_on channel=3 note=72 velocity=86 time=0
EXTRACT: note_on channel=7 note=60 velocity=123 time=0
EXTRACT: note_on channel=9 note=40 velocity=93 time=0
EXTRACT: note_on channel=9 note=42 velocity=99 time=0
EXTRACT: note_on channel=9 note=62 velocity=58 time=0
EXTRACT: note_on channel=9 note=54 velocity=0 time=0.1076922
EXTRACT: note_on channel=9 note=54 velocity=13 time=0
EXTRACT: note_on channel=7 note=60 velocity=0 time=0.0076923
EXTRACT: note_on channel=9 note=40 velocity=0 time=0
EXTRACT: note_on channel=9 note=42 velocity=0 time=0
EXTRACT: note_on channel=9 note=62 velocity=0 time=0
EXTRACT: note_on channel=9 note=54 velocity=0 time=0.1076922
EXTRACT: note_on channel=9 note=54 velocity=12 time=0
EXTRACT: note_on channel=3 note=72 velocity=0 time=0.0076923
EXTRACT: note_on channel=3 note=69 velocity=0 time=0
EXTRACT: note_on channel=3 note=50 velocity=0 time=0
EXTRACT: note_on channel=7 note=60 velocity=125 time=0
EXTRACT: note_on channel=9 note=42 velocity=49 time=0
EXTRACT: note_on channel=9 note=64 velocity=70 time=0
EXTRACT: note_on channel=9 note=54 velocity=0 time=0.1076922
EXTRACT: note_on channel=9 note=54 velocity=13 time=0
EXTRACT: note_on channel=1 note=38 velocity=0 time=0.0076923
EXTRACT: note_on channel=9 note=42 velocity=0 time=0
EXTRACT: note_on channel=9 note=64 velocity=0 time=0
EXTRACT: note_on channel=9 note=54 velocity=0 time=0.1076922
EXTRACT: note_on channel=9 note=54 velocity=42 time=0
EXTRACT: note_on channel=1 note=38 velocity=94 time=0.0076923
EXTRACT: note_on channel=3 note=50 velocity=110 time=0
EXTRACT: note_on channel=3 note=69 velocity=79 time=0
EXTRACT: note_on channel=3 note=72 velocity=78 time=0
EXTRACT: note_on channel=9 note=36 velocity=88 time=0
EXTRACT: note_on channel=9 note=42 velocity=84 time=0
EXTRACT: note_on channel=9 note=54 velocity=0 time=0.1076922
EXTRACT: note_on channel=9 note=54 velocity=28 time=0
EXTRACT: note_on channel=1 note=38 velocity=0 time=0.0076923
EXTRACT: note_on channel=3 note=72 velocity=0 time=0
EXTRACT: note_on channel=3 note=69 velocity=0 time=0
EXTRACT: note_on channel=3 note=50 velocity=0 time=0
EXTRACT: note_on channel=3 note=50 velocity=73 time=0
EXTRACT: note_on channel=3 note=69 velocity=58 time=0
EXTRACT: note_on channel=3 note=72 velocity=75 time=0
EXTRACT: note_on channel=9 note=36 velocity=0 time=0
EXTRACT: note_on channel=9 note=42 velocity=0 time=0
EXTRACT: note_on channel=9 note=54 velocity=0 time=0.1076922
EXTRACT: note_on channel=9 note=54 velocity=28 time=0
EXTRACT: note_on channel=1 note=38 velocity=107 time=0.0076923
EXTRACT: note_on channel=3 note=72 velocity=0 time=0
EXTRACT: note_on channel=3 note=69 velocity=0 time=0
EXTRACT: note_on channel=3 note=50 velocity=0 time=0
EXTRACT: note_on channel=3 note=72 velocity=83 time=0
EXTRACT: note_on channel=3 note=50 velocity=63 time=0
EXTRACT: note_on channel=3 note=69 velocity=63 time=0
EXTRACT: note_on channel=9 note=36 velocity=94 time=0
EXTRACT: note_on channel=9 note=42 velocity=53 time=0
EXTRACT: note_on channel=9 note=62 velocity=36 time=0
EXTRACT: note_on channel=9 note=54 velocity=0 time=0.1076922
EXTRACT: note_on channel=9 note=54 velocity=28 time=0
EXTRACT: note_on channel=3 note=69 velocity=0 time=0.0076923
EXTRACT: note_on channel=3 note=50 velocity=0 time=0
EXTRACT: note_on channel=3 note=72 velocity=0 time=0
EXTRACT: note_on channel=9 note=36 velocity=0 time=0
EXTRACT: note_on channel=9 note=42 velocity=0 time=0
EXTRACT: note_on channel=9 note=62 velocity=0 time=0
EXTRACT: note_on channel=9 note=54 velocity=0 time=0.1076922
EXTRACT: note_on channel=9 note=54 velocity=41 time=0
EXTRACT: note_on channel=0 note=57 velocity=0 time=0.0076923
EXTRACT: note_on channel=1 note=38 velocity=0 time=0
EXTRACT: note_on channel=3 note=69 velocity=86 time=0
EXTRACT: note_on channel=3 note=72 velocity=92 time=0
EXTRACT: note_on channel=3 note=50 velocity=110 time=0
EXTRACT: note_on channel=9 note=40 velocity=93 time=0
EXTRACT: note_on channel=9 note=42 velocity=94 time=0
EXTRACT: note_on channel=9 note=62 velocity=52 time=0
EXTRACT: note_on channel=9 note=54 velocity=0 time=0.1076922
EXTRACT: note_on channel=9 note=54 velocity=28 time=0
EXTRACT: note_on channel=0 note=62 velocity=0 time=0.0076923
EXTRACT: note_on channel=0 note=53 velocity=0 time=0
EXTRACT: note_on channel=6 note=57 velocity=0 time=0
EXTRACT: note_on channel=6 note=62 velocity=0 time=0
EXTRACT: note_on channel=6 note=50 velocity=0 time=0
EXTRACT: note_on channel=7 note=60 velocity=0 time=0
EXTRACT: note_on channel=9 note=40 velocity=0 time=0
EXTRACT: note_on channel=9 note=42 velocity=0 time=0
EXTRACT: note_on channel=9 note=62 velocity=0 time=0
EXTRACT: note_on channel=9 note=54 velocity=0 time=0.1076922
EXTRACT: note_on channel=9 note=54 velocity=31 time=0
EXTRACT: note_on channel=0 note=55 velocity=92 time=0.0076923
EXTRACT: note_on channel=0 note=59 velocity=107 time=0
EXTRACT: note_on channel=0 note=64 velocity=90 time=0
EXTRACT: note_on channel=1 note=40 velocity=120 time=0
EXTRACT: note_on channel=3 note=50 velocity=0 time=0
EXTRACT: note_on channel=3 note=72 velocity=0 time=0
EXTRACT: note_on channel=3 note=69 velocity=0 time=0
EXTRACT: note_on channel=6 note=52 velocity=82 time=0
EXTRACT: note_on channel=6 note=64 velocity=82 time=0
EXTRACT: note_on channel=6 note=59 velocity=82 time=0
EXTRACT: note_on channel=7 note=57 velocity=101 time=0
EXTRACT: note_on channel=9 note=36 velocity=70 time=0
EXTRACT: note_on channel=9 note=42 velocity=38 time=0
EXTRACT: note_on channel=9 note=63 velocity=56 time=0
EXTRACT: note_on channel=9 note=54 velocity=0 time=0.1076922
EXTRACT: note_on channel=9 note=54 velocity=37 time=0
EXTRACT: note_on channel=7 note=57 velocity=0 time=0.0076923
EXTRACT: note_on channel=9 note=36 velocity=0 time=0
EXTRACT: note_on channel=9 note=42 velocity=0 time=0
EXTRACT: note_on channel=9 note=63 velocity=0 time=0
EXTRACT: pitchwheel channel=7 pitch=-386 time=0.08846145
EXTRACT: pitchwheel channel=7 pitch=-2442 time=0.0076923
EXTRACT: pitchwheel channel=7 pitch=-3791 time=0.0076923
EXTRACT: note_on channel=9 note=54 velocity=0 time=0.00384615
EXTRACT: note_on channel=9 note=54 velocity=41 time=0
EXTRACT: pitchwheel channel=7 pitch=-4948 time=0.00384615
EXTRACT: note_on channel=3 note=52 velocity=110 time=0.00384615
EXTRACT: note_on channel=3 note=67 velocity=79 time=0
EXTRACT: note_on channel=3 note=74 velocity=88 time=0
EXTRACT: note_on channel=7 note=64 velocity=120 time=0
EXTRACT: note_on channel=9 note=36 velocity=104 time=0
EXTRACT: note_on channel=9 note=42 velocity=94 time=0
EXTRACT: pitchwheel channel=7 pitch=-5526 time=0.00384615
EXTRACT: pitchwheel channel=7 pitch=-5719 time=0.0076923
EXTRACT: pitchwheel channel=7 pitch=-5783 time=0.01153845
EXTRACT: pitchwheel channel=7 pitch=-5719 time=0.0076923
EXTRACT: pitchwheel channel=7 pitch=-5462 time=0.0076923
EXTRACT: pitchwheel channel=7 pitch=-5173 time=0.0076923
EXTRACT: pitchwheel channel=7 pitch=-4884 time=0.0076923
EXTRACT: pitchwheel channel=7 pitch=-4530 time=0.01153845
EXTRACT: pitchwheel channel=7 pitch=-4016 time=0.0076923
EXTRACT: pitchwheel channel=7 pitch=-3502 time=0.0076923
EXTRACT: pitchwheel channel=7 pitch=-2699 time=0.01153845
EXTRACT: pitchwheel channel=7 pitch=-1992 time=0.0076923
EXTRACT: pitchwheel channel=7 pitch=-1061 time=0.0076923
EXTRACT: note_on channel=9 note=54 velocity=0 time=0
EXTRACT: note_on channel=9 note=54 velocity=10 time=0
EXTRACT: pitchwheel channel=7 pitch=-354 time=0.0076923
EXTRACT: note_on channel=9 note=36 velocity=0 time=0
EXTRACT: note_on channel=9 note=42 velocity=0 time=0
EXTRACT: pitchwheel channel=7 pitch=0 time=0.0076923
EXTRACT: note_on channel=9 note=54 velocity=0 time=0.0999999
EXTRACT: note_on channel=9 note=54 velocity=10 time=0
EXTRACT: note_on channel=3 note=74 velocity=0 time=0.0076923
EXTRACT: note_on channel=3 note=67 velocity=0 time=0
EXTRACT: note_on channel=3 note=52 velocity=0 time=0
EXTRACT: note_on channel=9 note=42 velocity=40 time=0
EXTRACT: note_on channel=9 note=62 velocity=46 time=0
EXTRACT: note_on channel=9 note=54 velocity=0 time=0.1076922
EXTRACT: note_on channel=9 note=54 velocity=11 time=0
EXTRACT: note_on channel=9 note=42 velocity=0 time=0.0076923
EXTRACT: note_on channel=9 note=62 velocity=0 time=0
EXTRACT: note_on channel=9 note=54 velocity=0 time=0.1076922
EXTRACT: note_on channel=9 note=54 velocity=11 time=0
EXTRACT: note_on channel=3 note=52 velocity=107 time=0.0076923
EXTRACT: note_on channel=3 note=67 velocity=82 time=0
EXTRACT: note_on channel=3 note=74 velocity=85 time=0
EXTRACT: note_on channel=7 note=64 velocity=0 time=0
EXTRACT: note_on channel=7 note=67 velocity=99 time=0
EXTRACT: note_on channel=9 note=40 velocity=87 time=0
EXTRACT: note_on channel=9 note=42 velocity=94 time=0
EXTRACT: note_on channel=9 note=62 velocity=50 time=0
EXTRACT: note_on channel=9 note=54 velocity=0 time=0.1076922
EXTRACT: note_on channel=9 note=54 velocity=11 time=0
EXTRACT: note_on channel=9 note=40 velocity=0 time=0.0076923
EXTRACT: note_on channel=9 note=42 velocity=0 time=0
EXTRACT: note_on channel=9 note=62 velocity=0 time=0
EXTRACT: note_on channel=9 note=54 velocity=0 time=0.1076922
EXTRACT: note_on channel=9 note=54 velocity=13 time=0
EXTRACT: note_on channel=3 note=74 velocity=0 time=0.0076923
EXTRACT: note_on channel=3 note=67 velocity=0 time=0
EXTRACT: note_on channel=3 note=52 velocity=0 time=0
EXTRACT: note_on channel=7 note=67 velocity=0 time=0
EXTRACT: note_on channel=7 note=64 velocity=113 time=0
EXTRACT: note_on channel=9 note=42 velocity=34 time=0
EXTRACT: note_on channel=9 note=64 velocity=66 time=0
EXTRACT: note_on channel=9 note=54 velocity=0 time=0.1076922
EXTRACT: note_on channel=9 note=54 velocity=13 time=0
EXTRACT: note_on channel=1 note=40 velocity=0 time=0.0076923
EXTRACT: note_on channel=9 note=42 velocity=0 time=0
EXTRACT: note_on channel=9 note=64 velocity=0 time=0
EXTRACT: note_on channel=9 note=54 velocity=0 time=0.1076922
EXTRACT: note_on channel=9 note=54 velocity=38 time=0
EXTRACT: note_on channel=1 note=40 velocity=88 time=0.0076923
EXTRACT: note_on channel=3 note=52 velocity=104 time=0
EXTRACT: note_on channel=3 note=67 velocity=85 time=0
EXTRACT: note_on channel=3 note=74 velocity=74 time=0
EXTRACT: note_on channel=9 note=36 velocity=86 time=0
EXTRACT: note_on channel=9 note=42 velocity=94 time=0
EXTRACT: note_on channel=9 note=54 velocity=0 time=0.1076922
EXTRACT: note_on channel=9 note=54 velocity=27 time=0
EXTRACT: note_on channel=1 note=40 velocity=0 time=0.0076923
EXTRACT: note_on channel=3 note=74 velocity=0 time=0
EXTRACT: note_on channel=3 note=67 velocity=0 time=0
EXTRACT: note_on channel=3 note=52 velocity=0 time=0
EXTRACT: note_on channel=3 note=74 velocity=74 time=0
EXTRACT: note_on channel=3 note=52 velocity=80 time=0
EXTRACT: note_on channel=3 note=67 velocity=57 time=0
EXTRACT: note_on channel=7 note=64 velocity=0 time=0
EXTRACT: note_on channel=9 note=36 velocity=0 time=0
EXTRACT: note_on channel=9 note=42 velocity=0 time=0
EXTRACT: note_on channel=9 note=54 velocity=0 time=0.1076922
EXTRACT: note_on channel=9 note=54 velocity=27 time=0
EXTRACT: note_on channel=1 note=40 velocity=85 time=0.0076923
EXTRACT: note_on channel=3 note=67 velocity=0 time=0
EXTRACT: note_on channel=3 note=52 velocity=0 time=0
EXTRACT: note_on channel=3 note=52 velocity=73 time=0
EXTRACT: note_on channel=3 note=67 velocity=73 time=0
EXTRACT: note_on channel=7 note=67 velocity=99 time=0
EXTRACT: note_on channel=9 note=36 velocity=85 time=0
EXTRACT: note_on channel=9 note=42 velocity=31 time=0
EXTRACT: note_on channel=9 note=62 velocity=36 time=0
EXTRACT: note_on channel=9 note=54 velocity=0 time=0.1076922
EXTRACT: note_on channel=9 note=54 velocity=27 time=0
EXTRACT: note_on channel=3 note=67 velocity=0 time=0.0076923
EXTRACT: note_on channel=3 note=52 velocity=0 time=0
EXTRACT: note_on channel=3 note=74 velocity=0 time=0
EXTRACT: note_on channel=9 note=36 velocity=0 time=0
EXTRACT: note_on channel=9 note=42 velocity=0 time=0
EXTRACT: note_on channel=9 note=62 velocity=0 time=0
EXTRACT: note_on channel=9 note=54 velocity=0 time=0.1076922
EXTRACT: note_on channel=9 note=54 velocity=36 time=0
EXTRACT: note_on channel=3 note=67 velocity=85 time=0.0076923
EXTRACT: note_on channel=3 note=52 velocity=117 time=0
EXTRACT: note_on channel=3 note=74 velocity=88 time=0
EXTRACT: note_on channel=7 note=67 velocity=0 time=0
EXTRACT: note_on channel=7 note=69 velocity=117 time=0
EXTRACT: note_on channel=9 note=40 velocity=87 time=0
EXTRACT: note_on channel=9 note=42 velocity=99 time=0
EXTRACT: note_on channel=9 note=62 velocity=50 time=0
EXTRACT: note_on channel=9 note=54 velocity=0 time=0.1076922
EXTRACT: note_on channel=9 note=54 velocity=27 time=0
EXTRACT: note_on channel=0 note=64 velocity=0 time=0.0076923
EXTRACT: note_on channel=0 note=59 velocity=0 time=0
EXTRACT: note_on channel=0 note=55 velocity=0 time=0
EXTRACT: note_on channel=1 note=40 velocity=0 time=0
EXTRACT: note_on channel=6 note=59 velocity=0 time=0
EXTRACT: note_on channel=6 note=64 velocity=0 time=0
EXTRACT: note_on channel=6 note=52 velocity=0 time=0
EXTRACT: note_on channel=7 note=69 velocity=0 time=0
EXTRACT: note_on channel=9 note=40 velocity=0 time=0
EXTRACT: note_on channel=9 note=42 velocity=0 time=0
EXTRACT: note_on channel=9 note=62 velocity=0 time=0
EXTRACT: note_on channel=9 note=54 velocity=0 time=0.1076922
EXTRACT: note_on channel=9 note=54 velocity=28 time=0
EXTRACT: note_on channel=0 note=57 velocity=79 time=0.0076923
EXTRACT: note_on channel=0 note=60 velocity=99 time=0
EXTRACT: note_on channel=0 note=65 velocity=85 time=0
EXTRACT: note_on channel=1 note=41 velocity=97 time=0
EXTRACT: note_on channel=3 note=74 velocity=0 time=0
EXTRACT: note_on channel=3 note=52 velocity=0 time=0
EXTRACT: note_on channel=3 note=67 velocity=0 time=0
EXTRACT: note_on channel=6 note=53 velocity=80 time=0
EXTRACT: note_on channel=6 note=65 velocity=80 time=0
EXTRACT: note_on channel=6 note=60 velocity=80 time=0
EXTRACT: note_on channel=7 note=72 velocity=125 time=0
EXTRACT: note_on channel=9 note=36 velocity=71 time=0
EXTRACT: note_on channel=9 note=42 velocity=38 time=0
EXTRACT: note_on channel=9 note=63 velocity=58 time=0
EXTRACT: pitchwheel channel=7 pitch=-418 time=0.01153845
EXTRACT: pitchwheel channel=7 pitch=-2249 time=0.0076923
EXTRACT: pitchwheel channel=7 pitch=-3759 time=0.0076923
EXTRACT: pitchwheel channel=7 pitch=-4530 time=0.0076923
EXTRACT: pitchwheel channel=7 pitch=-4755 time=0.0076923
EXTRACT: pitchwheel channel=7 pitch=-4723 time=0.0153846
EXTRACT: pitchwheel channel=7 pitch=-4466 time=0.01153845
EXTRACT: pitchwheel channel=7 pitch=-4209 time=0.0076923
EXTRACT: pitchwheel channel=7 pitch=-3759 time=0.0076923
EXTRACT: pitchwheel channel=7 pitch=-3342 time=0.0076923
EXTRACT: pitchwheel channel=7 pitch=-2667 time=0.0076923
EXTRACT: note_on channel=9 note=54 velocity=0 time=0.0076923
EXTRACT: note_on channel=9 note=54 velocity=38 time=0
EXTRACT: pitchwheel channel=7 pitch=-2057 time=0.00384615
EXTRACT: note_on channel=9 note=36 velocity=0 time=0.00384615
EXTRACT: note_on channel=9 note=42 velocity=0 time=0
EXTRACT: note_on channel=9 note=63 velocity=0 time=0
EXTRACT: pitchwheel channel=7 pitch=-1253 time=0.00384615
EXTRACT: pitchwheel channel=7 pitch=-643 time=0.0076923
EXTRACT: pitchwheel channel=7 pitch=0 time=0.0076923
EXTRACT: note_on channel=9 note=54 velocity=0 time=0.08846145
EXTRACT: note_on channel=9 note=54 velocity=39 time=0
EXTRACT: note_on channel=3 note=53 velocity=113 time=0.0076923
EXTRACT: note_on channel=3 note=69 velocity=92 time=0
EXTRACT: note_on channel=3 note=76 velocity=88 time=0
EXTRACT: note_on channel=9 note=36 velocity=101 time=0
EXTRACT: note_on channel=9 note=42 velocity=99 time=0
EXTRACT: note_on channel=9 note=54 velocity=0 time=0.1076922
EXTRACT: note_on channel=9 note=54 velocity=7 time=0
EXTRACT: note_on channel=9 note=36 velocity=0 time=0.0076923
EXTRACT: note_on channel=9 note=42 velocity=0 time=0
EXTRACT: note_on channel=9 note=54 velocity=0 time=0.1076922
EXTRACT: note_on channel=9 note=54 velocity=7 time=0
EXTRACT: note_on channel=3 note=76 velocity=0 time=0.0076923
EXTRACT: note_on channel=3 note=69 velocity=0 time=0
EXTRACT: note_on channel=3 note=53 velocity=0 time=0
EXTRACT: note_on channel=7 note=72 velocity=0 time=0
EXTRACT: note_on channel=7 note=67 velocity=101 time=0
EXTRACT: note_on channel=9 note=42 velocity=27 time=0
EXTRACT: note_on channel=9 note=62 velocity=34 time=0
EXTRACT: note_on channel=9 note=54 velocity=0 time=0.1076922
EXTRACT: note_on channel=9 note=54 velocity=7 time=0
EXTRACT: note_on channel=9 note=42 velocity=0 time=0.0076923
EXTRACT: note_on channel=9 note=62 velocity=0 time=0
EXTRACT: note_on channel=9 note=54 velocity=0 time=0.1076922
EXTRACT: note_on channel=9 note=54 velocity=10 time=0
EXTRACT: note_on channel=3 note=53 velocity=113 time=0.0076923
EXTRACT: note_on channel=3 note=69 velocity=92 time=0
EXTRACT: note_on channel=3 note=76 velocity=90 time=0
EXTRACT: note_on channel=7 note=67 velocity=0 time=0
EXTRACT: note_on channel=7 note=69 velocity=110 time=0
EXTRACT: note_on channel=9 note=40 velocity=93 time=0
EXTRACT: note_on channel=9 note=42 velocity=94 time=0
EXTRACT: note_on channel=9 note=62 velocity=46 time=0
EXTRACT: note_on channel=9 note=54 velocity=0 time=0.1076922
EXTRACT: note_on channel=9 note=54 velocity=13 time=0
EXTRACT: note_on channel=7 note=69 velocity=0 time=0.0076923
EXTRACT: note_on channel=9 note=40 velocity=0 time=0
EXTRACT: note_on channel=9 note=42 velocity=0 time=0
EXTRACT: note_on channel=9 note=62 velocity=0 time=0
EXTRACT: note_on channel=9 note=54 velocity=0 time=0.1076922
EXTRACT: note_on channel=9 note=54 velocity=12 time=0
EXTRACT: note_on channel=3 note=76 velocity=0 time=0.0076923
EXTRACT: note_on channel=3 note=69 velocity=0 time=0
EXTRACT: note_on channel=3 note=53 velocity=0 time=0
EXTRACT: note_on channel=7 note=72 velocity=120 time=0
EXTRACT: note_on channel=9 note=42 velocity=23 time=0
EXTRACT: note_on channel=9 note=64 velocity=66 time=0
EXTRACT: pitchwheel channel=7 pitch=-1575 time=0.0230769
EXTRACT: pitchwheel channel=7 pitch=-3791 time=0.0076923
EXTRACT: pitchwheel channel=7 pitch=-4916 time=0.0076923
EXTRACT: pitchwheel channel=7 pitch=-5462 time=0.0076923
EXTRACT: pitchwheel channel=7 pitch=-5526 time=0.0076923
EXTRACT: pitchwheel channel=7 pitch=-5590 time=0.0076923
EXTRACT: pitchwheel channel=7 pitch=-5430 time=0.01153845
EXTRACT: pitchwheel channel=7 pitch=-5044 time=0.0076923
EXTRACT: pitchwheel channel=7 pitch=-4851 time=0.0076923
EXTRACT: pitchwheel channel=7 pitch=-4466 time=0.0076923
EXTRACT: pitchwheel channel=7 pitch=-3952 time=0.01153845
EXTRACT: note_on channel=9 note=54 velocity=0 time=0
EXTRACT: note_on channel=9 note=54 velocity=13 time=0
EXTRACT: note_on channel=1 note=41 velocity=0 time=0.0076923
EXTRACT: pitchwheel channel=7 pitch=-3342 time=0
EXTRACT: note_on channel=9 note=42 velocity=0 time=0
EXTRACT: note_on channel=9 note=64 velocity=0 time=0
EXTRACT: pitchwheel channel=7 pitch=-2506 time=0.0076923
EXTRACT: pitchwheel channel=7 pitch=-1607 time=0.0076923
EXTRACT: pitchwheel channel=7 pitch=-707 time=0.0076923
EXTRACT: pitchwheel channel=7 pitch=0 time=0.01153845
EXTRACT: note_on channel=9 note=54 velocity=0 time=0.07307685
EXTRACT: note_on channel=9 note=54 velocity=42 time=0
EXTRACT: note_on channel=1 note=41 velocity=90 time=0.0076923
EXTRACT: note_on channel=3 note=53 velocity=110 time=0
EXTRACT: note_on channel=3 note=69 velocity=86 time=0
EXTRACT: note_on channel=3 note=76 velocity=78 time=0
EXTRACT: note_on channel=9 note=36 velocity=85 time=0
EXTRACT: note_on channel=9 note=42 velocity=99 time=0
EXTRACT: note_on channel=9 note=54 velocity=0 time=0.1076922
EXTRACT: note_on channel=9 note=54 velocity=28 time=0
EXTRACT: note_on channel=1 note=41 velocity=0 time=0.0076923
EXTRACT: note_on channel=3 note=76 velocity=0 time=0
EXTRACT: note_on channel=3 note=69 velocity=0 time=0
EXTRACT: note_on channel=3 note=53 velocity=0 time=0
EXTRACT: note_on channel=3 note=53 velocity=83 time=0
EXTRACT: note_on channel=3 note=69 velocity=64 time=0
EXTRACT: note_on channel=3 note=76 velocity=83 time=0
EXTRACT: note_on channel=9 note=36 velocity=0 time=0
EXTRACT: note_on channel=9 note=42 velocity=0 time=0
EXTRACT: note_on channel=9 note=54 velocity=0 time=0.1076922
EXTRACT: note_on channel=9 note=54 velocity=28 time=0
EXTRACT: note_on channel=1 note=41 velocity=86 time=0.0076923
EXTRACT: note_on channel=3 note=76 velocity=0 time=0
EXTRACT: note_on channel=3 note=69 velocity=0 time=0
EXTRACT: note_on channel=3 note=53 velocity=0 time=0
EXTRACT: note_on channel=3 note=69 velocity=73 time=0
EXTRACT: note_on channel=3 note=53 velocity=76 time=0
EXTRACT: note_on channel=3 note=76 velocity=62 time=0
EXTRACT: note_on channel=7 note=72 velocity=0 time=0
EXTRACT: note_on channel=7 note=74 velocity=101 time=0
EXTRACT: note_on channel=9 note=36 velocity=83 time=0
EXTRACT: note_on channel=9 note=42 velocity=53 time=0
EXTRACT: note_on channel=9 note=62 velocity=37 time=0
EXTRACT: note_on channel=9 note=54 velocity=0 time=0.1076922
EXTRACT: note_on channel=9 note=54 velocity=28 time=0
EXTRACT: note_on channel=3 note=76 velocity=0 time=0.0076923
EXTRACT: note_on channel=3 note=53 velocity=0 time=0
EXTRACT: note_on channel=3 note=69 velocity=0 time=0
EXTRACT: note_on channel=9 note=36 velocity=0 time=0
EXTRACT: note_on channel=9 note=42 velocity=0 time=0
EXTRACT: note_on channel=9 note=62 velocity=0 time=0
EXTRACT: note_on channel=9 note=54 velocity=0 time=0.1076922
EXTRACT: note_on channel=9 note=54 velocity=41 time=0
EXTRACT: note_on channel=3 note=69 velocity=83 time=0.0076923
EXTRACT: note_on channel=3 note=76 velocity=86 time=0
EXTRACT: note_on channel=3 note=53 velocity=110 time=0
EXTRACT: note_on channel=7 note=74 velocity=0 time=0
EXTRACT: note_on channel=7 note=72 velocity=104 time=0
EXTRACT: note_on channel=9 note=40 velocity=100 time=0
EXTRACT: note_on channel=9 note=42 velocity=99 time=0
EXTRACT: note_on channel=9 note=62 velocity=43 time=0
EXTRACT: note_on channel=9 note=54 velocity=0 time=0.1076922
EXTRACT: note_on channel=9 note=54 velocity=28 time=0
EXTRACT: note_on channel=1 note=41 velocity=0 time=0.0076923
EXTRACT: note_on channel=7 note=72 velocity=0 time=0
EXTRACT: note_on channel=9 note=40 velocity=0 time=0
EXTRACT: note_on channel=9 note=42 velocity=0 time=0
EXTRACT: note_on channel=9 note=62 velocity=0 time=0
EXTRACT: note_on channel=9 note=54 velocity=0 time=0.1076922
EXTRACT: note_on channel=9 note=54 velocity=31 time=0
EXTRACT: note_on channel=1 note=41 velocity=76 time=0.0076923
EXTRACT: note_on channel=3 note=53 velocity=0 time=0
EXTRACT: note_on channel=3 note=76 velocity=0 time=0
EXTRACT: note_on channel=3 note=69 velocity=0 time=0
EXTRACT: note_on channel=7 note=76 velocity=117 time=0
EXTRACT: note_on channel=9 note=36 velocity=71 time=0
EXTRACT: note_on channel=9 note=42 velocity=31 time=0
EXTRACT: note_on channel=9 note=63 velocity=58 time=0
EXTRACT: pitchwheel channel=7 pitch=-675 time=0.01153845
EXTRACT: pitchwheel channel=7 pitch=-2378 time=0.01153845
EXTRACT: pitchwheel channel=7 pitch=-3727 time=0.00384615
EXTRACT: pitchwheel channel=7 pitch=-4530 time=0.01153845
EXTRACT: pitchwheel channel=7 pitch=-4755 time=0.00384615
EXTRACT: pitchwheel channel=7 pitch=-4562 time=0.01923075
EXTRACT: pitchwheel channel=7 pitch=-3920 time=0.01153845
EXTRACT: pitchwheel channel=7 pitch=-3052 time=0.0076923
EXTRACT: pitchwheel channel=7 pitch=-1735 time=0.00384615
EXTRACT: pitchwheel channel=7 pitch=-290 time=0.0076923
EXTRACT: pitchwheel channel=7 pitch=0 time=0.0076923
EXTRACT: note_on channel=9 note=54 velocity=0 time=0.0076923
EXTRACT: note_on channel=9 note=54 velocity=37 time=0
EXTRACT: note_on channel=0 note=65 velocity=0 time=0.0076923
EXTRACT: note_on channel=0 note=60 velocity=0 time=0
EXTRACT: note_on channel=0 note=57 velocity=0 time=0
EXTRACT: note_on channel=9 note=36 velocity=0 time=0
EXTRACT: note_on channel=9 note=42 velocity=0 time=0
EXTRACT: note_on channel=9 note=63 velocity=0 time=0
EXTRACT: note_on channel=9 note=54 velocity=0 time=0.1076922
EXTRACT: note_on channel=9 note=54 velocity=41 time=0
EXTRACT: note_on channel=0 note=59 velocity=88 time=0.0076923
EXTRACT: note_on channel=0 note=62 velocity=104 time=0
EXTRACT: note_on channel=0 note=67 velocity=85 time=0
EXTRACT: note_on channel=1 note=41 velocity=0 time=0
EXTRACT: note_on channel=1 note=31 velocity=86 time=0
EXTRACT: note_on channel=3 note=55 velocity=113 time=0
EXTRACT: note_on channel=3 note=67 velocity=92 time=0
EXTRACT: note_on channel=3 note=79 velocity=99 time=0
EXTRACT: note_on channel=6 note=60 velocity=0 time=0
EXTRACT: note_on channel=6 note=65 velocity=0 time=0
EXTRACT: note_on channel=6 note=53 velocity=0 time=0
EXTRACT: note_on channel=6 note=55 velocity=80 time=0
EXTRACT: note_on channel=6 note=50 velocity=80 time=0
EXTRACT: note_on channel=7 note=76 velocity=0 time=0
EXTRACT: note_on channel=9 note=36 velocity=101 time=0
EXTRACT: note_on channel=9 note=42 velocity=99 time=0
EXTRACT: note_on channel=9 note=54 velocity=0 time=0.1076922
EXTRACT: note_on channel=9 note=54 velocity=10 time=0
EXTRACT: note_on channel=9 note=36 velocity=0 time=0.0076923
EXTRACT: note_on channel=9 note=42 velocity=0 time=0
EXTRACT: note_on channel=9 note=54 velocity=0 time=0.1076922
EXTRACT: note_on channel=9 note=54 velocity=10 time=0
EXTRACT: note_on channel=0 note=67 velocity=0 time=0.0076923
EXTRACT: note_on channel=0 note=62 velocity=0 time=0
EXTRACT: note_on channel=0 note=59 velocity=0 time=0
EXTRACT: note_on channel=1 note=31 velocity=0 time=0
EXTRACT: note_on channel=3 note=79 velocity=0 time=0
EXTRACT: note_on channel=3 note=67 velocity=0 time=0
EXTRACT: note_on channel=3 note=55 velocity=0 time=0
EXTRACT: note_on channel=6 note=50 velocity=0 time=0
EXTRACT: note_on channel=6 note=55 velocity=0 time=0
EXTRACT: note_on channel=7 note=76 velocity=113 time=0
EXTRACT: note_on channel=9 note=42 velocity=42 time=0
EXTRACT: note_on channel=9 note=62 velocity=38 time=0
EXTRACT: note_on channel=9 note=54 velocity=0 time=0.1076922
EXTRACT: note_on channel=9 note=54 velocity=11 time=0
EXTRACT: note_on channel=7 note=76 velocity=0 time=0.0076923
EXTRACT: note_on channel=9 note=42 velocity=0 time=0
EXTRACT: note_on channel=9 note=62 velocity=0 time=0
EXTRACT: note_on channel=9 note=54 velocity=0 time=0.1076922
EXTRACT: note_on channel=9 note=54 velocity=11 time=0
EXTRACT: note_on channel=0 note=59 velocity=90 time=0.0076923
EXTRACT: note_on channel=0 note=62 velocity=107 time=0
EXTRACT: note_on channel=0 note=67 velocity=92 time=0
EXTRACT: note_on channel=1 note=31 velocity=97 time=0
EXTRACT: note_on channel=3 note=67 velocity=92 time=0
EXTRACT: note_on channel=3 note=55 velocity=113 time=0
EXTRACT: note_on channel=3 note=79 velocity=99 time=0
EXTRACT: note_on channel=6 note=55 velocity=80 time=0
EXTRACT: note_on channel=6 note=50 velocity=80 time=0
EXTRACT: note_on channel=7 note=74 velocity=117 time=0
EXTRACT: note_on channel=9 note=40 velocity=93 time=0
EXTRACT: note_on channel=9 note=42 velocity=99 time=0
EXTRACT: note_on channel=9 note=62 velocity=49 time=0
EXTRACT: note_on channel=9 note=54 velocity=0 time=0.1076922
EXTRACT: note_on channel=9 note=54 velocity=11 time=0
EXTRACT: note_on channel=9 note=40 velocity=0 time=0.0076923
EXTRACT: note_on channel=9 note=42 velocity=0 time=0
EXTRACT: note_on channel=9 note=62 velocity=0 time=0
EXTRACT: note_on channel=9 note=54 velocity=0 time=0.1076922
EXTRACT: note_on channel=9 note=54 velocity=13 time=0
EXTRACT: note_on channel=0 note=67 velocity=0 time=0.0076923
EXTRACT: note_on channel=1 note=31 velocity=0 time=0
EXTRACT: note_on channel=3 note=79 velocity=0 time=0
EXTRACT: note_on channel=3 note=55 velocity=0 time=0
EXTRACT: note_on channel=3 note=67 velocity=0 time=0
EXTRACT: note_on channel=7 note=74 velocity=0 time=0
EXTRACT: note_on channel=7 note=72 velocity=110 time=0
EXTRACT: note_on channel=9 note=42 velocity=46 time=0
EXTRACT: note_on channel=9 note=64 velocity=70 time=0
EXTRACT: note_on channel=9 note=54 velocity=0 time=0.1076922
EXTRACT: note_on channel=9 note=54 velocity=13 time=0
EXTRACT: note_on channel=0 note=62 velocity=0 time=0.0076923
EXTRACT: note_on channel=0 note=59 velocity=0 time=0
EXTRACT: note_on channel=6 note=50 velocity=0 time=0
EXTRACT: note_on channel=6 note=55 velocity=0 time=0
EXTRACT: note_on channel=7 note=72 velocity=0 time=0
EXTRACT: note_on channel=9 note=42 velocity=0 time=0
EXTRACT: note_on channel=9 note=64 velocity=0 time=0
EXTRACT: pitchwheel channel=7 pitch=-1350 time=0.10384605
EXTRACT: note_on channel=9 note=54 velocity=0 time=0.00384615
EXTRACT: note_on channel=9 note=54 velocity=38 time=0
EXTRACT: pitchwheel channel=7 pitch=-3759 time=0.00384615
EXTRACT: note_on channel=0 note=55 velocity=104 time=0.00384615
EXTRACT: note_on channel=1 note=31 velocity=107 time=0
EXTRACT: note_on channel=3 note=67 velocity=83 time=0
EXTRACT: note_on channel=3 note=55 velocity=117 time=0
EXTRACT: note_on channel=3 note=79 velocity=85 time=0
EXTRACT: note_on channel=6 note=55 velocity=80 time=0
EXTRACT: note_on channel=6 note=50 velocity=80 time=0
EXTRACT: note_on channel=7 note=74 velocity=120 time=0
EXTRACT: note_on channel=9 note=36 velocity=94 time=0
EXTRACT: note_on channel=9 note=42 velocity=94 time=0
EXTRACT: pitchwheel channel=7 pitch=-5301 time=0.00384615
EXTRACT: pitchwheel channel=7 pitch=-7389 time=0.0076923
EXTRACT: pitchwheel channel=7 pitch=-8192 time=0.0076923
EXTRACT: pitchwheel channel=7 pitch=-7775 time=0.0461538
EXTRACT: pitchwheel channel=7 pitch=-6940 time=0.00384615
EXTRACT: pitchwheel channel=7 pitch=-5783 time=0.01153845
EXTRACT: pitchwheel channel=7 pitch=-4755 time=0.0076923
EXTRACT: pitchwheel channel=7 pitch=-3695 time=0.0076923
EXTRACT: pitchwheel channel=7 pitch=-2474 time=0.0076923
EXTRACT: note_on channel=9 note=54 velocity=0 time=0.00384615
EXTRACT: note_on channel=9 note=54 velocity=27 time=0
EXTRACT: note_on channel=3 note=79 velocity=0 time=0.0076923
EXTRACT: note_on channel=3 note=55 velocity=0 time=0
EXTRACT: note_on channel=3 note=67 velocity=0 time=0
EXTRACT: note_on channel=3 note=67 velocity=62 time=0
EXTRACT: note_on channel=3 note=55 velocity=76 time=0
EXTRACT: note_on channel=3 note=79 velocity=79 time=0
EXTRACT: pitchwheel channel=7 pitch=-1093 time=0
EXTRACT: note_on channel=9 note=36 velocity=0 time=0
EXTRACT: note_on channel=9 note=42 velocity=0 time=0
EXTRACT: pitchwheel channel=7 pitch=-129 time=0.0076923
EXTRACT: pitchwheel channel=7 pitch=0 time=0.0076923
EXTRACT: note_on channel=9 note=54 velocity=0 time=0.0923076
EXTRACT: note_on channel=9 note=54 velocity=27 time=0
EXTRACT: note_on channel=0 note=55 velocity=0 time=0.0076923
EXTRACT: note_on channel=0 note=57 velocity=94 time=0
EXTRACT: note_on channel=1 note=31 velocity=0 time=0
EXTRACT: note_on channel=1 note=33 velocity=88 time=0
EXTRACT: note_on channel=3 note=79 velocity=0 time=0
EXTRACT: note_on channel=3 note=55 velocity=0 time=0
EXTRACT: note_on channel=3 note=67 velocity=0 time=0
EXTRACT: note_on channel=3 note=67 velocity=73 time=0
EXTRACT: note_on channel=3 note=79 velocity=66 time=0
EXTRACT: note_on channel=3 note=55 velocity=64 time=0
EXTRACT: note_on channel=6 note=50 velocity=0 time=0
EXTRACT: note_on channel=6 note=55 velocity=0 time=0
EXTRACT: note_on channel=6 note=57 velocity=81 time=0
EXTRACT: note_on channel=6 note=52 velocity=81 time=0
EXTRACT: note_on channel=9 note=36 velocity=88 time=0
EXTRACT: note_on channel=9 note=42 velocity=46 time=0
EXTRACT: note_on channel=9 note=62 velocity=48 time=0
EXTRACT: note_on channel=2 note=35 velocity=79 time=0.0538461
EXTRACT: note_on channel=9 note=42 velocity=0 time=0.00384615
EXTRACT: note_on channel=2 note=36 velocity=66 time=0.01153845
EXTRACT: note_on channel=2 note=35 velocity=0 time=0.01153845
EXTRACT: note_on channel=2 note=38 velocity=78 time=0.02692305
EXTRACT: note_on channel=9 note=54 velocity=0 time=0
EXTRACT: note_on channel=9 note=54 velocity=27 time=0
EXTRACT: note_on channel=2 note=36 velocity=0 time=0.0076923
EXTRACT: note_on channel=3 note=55 velocity=0 time=0
EXTRACT: note_on channel=3 note=79 velocity=0 time=0
EXTRACT: note_on channel=3 note=67 velocity=0 time=0
EXTRACT: note_on channel=9 note=36 velocity=0 time=0
EXTRACT: note_on channel=9 note=62 velocity=0 time=0
EXTRACT: note_on channel=2 note=40 velocity=83 time=0.01153845
EXTRACT: note_on channel=2 note=38 velocity=0 time=0.0076923
EXTRACT: note_on channel=2 note=41 velocity=88 time=0.01153845
EXTRACT: note_on channel=2 note=40 velocity=0 time=0.0076923
EXTRACT: note_on channel=2 note=43 velocity=99 time=0.01153845
EXTRACT: note_on channel=2 note=41 velocity=0 time=0.0076923
EXTRACT: note_on channel=2 note=45 velocity=94 time=0.0076923
EXTRACT: note_on channel=2 note=43 velocity=0 time=0.0076923
EXTRACT: note_on channel=2 note=47 velocity=94 time=0.01153845
EXTRACT: note_on channel=2 note=45 velocity=0 time=0.0076923
EXTRACT: note_on channel=2 note=48 velocity=97 time=0.0076923
EXTRACT: note_on channel=2 note=47 velocity=0 time=0.0076923
EXTRACT: note_on channel=9 note=54 velocity=0 time=0
EXTRACT: note_on channel=9 note=54 velocity=36 time=0
EXTRACT: note_on channel=2 note=50 velocity=97 time=0.00384615
EXTRACT: note_on channel=0 note=57 velocity=0 time=0.00384615
EXTRACT: note_on channel=0 note=60 velocity=104 time=0
EXTRACT: note_on channel=1 note=33 velocity=0 time=0
EXTRACT: note_on channel=1 note=36 velocity=76 time=0
EXTRACT: note_on channel=3 note=67 velocity=66 time=0
EXTRACT: note_on channel=3 note=79 velocity=92 time=0
EXTRACT: note_on channel=3 note=55 velocity=97 time=0
EXTRACT: note_on channel=6 note=52 velocity=0 time=0
EXTRACT: note_on channel=6 note=57 velocity=0 time=0
EXTRACT: note_on channel=6 note=60 velocity=81 time=0
EXTRACT: note_on channel=6 note=55 velocity=81 time=0
EXTRACT: note_on channel=7 note=74 velocity=0 time=0
EXTRACT: note_on channel=7 note=72 velocity=123 time=0
EXTRACT: note_on channel=9 note=40 velocity=93 time=0
EXTRACT: note_on channel=9 note=42 velocity=89 time=0
EXTRACT: note_on channel=9 note=62 velocity=52 time=0
EXTRACT: note_on channel=2 note=48 velocity=0 time=0.0076923
EXTRACT: note_on channel=2 note=52 velocity=92 time=0.00384615
EXTRACT: note_on channel=2 note=50 velocity=0 time=0.0153846
EXTRACT: note_on channel=2 note=53 velocity=92 time=0
EXTRACT: note_on channel=2 note=52 velocity=0 time=0.01153845
EXTRACT: note_on channel=2 note=55 velocity=97 time=0
EXTRACT: note_on channel=2 note=53 velocity=0 time=0.01153845
EXTRACT: note_on channel=2 note=57 velocity=94 time=0.0076923
EXTRACT: note_on channel=2 note=55 velocity=0 time=0.0153846
EXTRACT: note_on channel=2 note=59 velocity=99 time=0.00384615
EXTRACT: note_on channel=2 note=57 velocity=0 time=0.0076923
EXTRACT: note_on channel=2 note=60 velocity=107 time=0.01153845
EXTRACT: note_on channel=2 note=59 velocity=0 time=0.01153845
EXTRACT: note_on channel=9 note=54 velocity=0 time=0
EXTRACT: note_on channel=9 note=54 velocity=27 time=0
EXTRACT: note_on channel=3 note=55 velocity=0 time=0.0076923
EXTRACT: note_on channel=3 note=79 velocity=0 time=0
EXTRACT: note_on channel=3 note=67 velocity=0 time=0
EXTRACT: note_on channel=3 note=79 velocity=83 time=0
EXTRACT: note_on channel=3 note=67 velocity=78 time=0
EXTRACT: note_on channel=3 note=55 velocity=68 time=0
EXTRACT: note_on channel=9 note=40 velocity=0 time=0
EXTRACT: note_on channel=9 note=40 velocity=80 time=0
EXTRACT: note_on channel=9 note=42 velocity=0 time=0
EXTRACT: note_on channel=9 note=62 velocity=0 time=0
EXTRACT: note_on channel=2 note=60 velocity=94 time=0.01153845
EXTRACT: note_on channel=2 note=60 velocity=0 time=0.0076923
EXTRACT: note_on channel=9 note=40 velocity=0 time=0.0384615
EXTRACT: note_on channel=9 note=54 velocity=0 time=0.04999995
EXTRACT: note_on channel=9 note=54 velocity=28 time=0
EXTRACT: note_on channel=0 note=60 velocity=0 time=0.0076923
EXTRACT: note_on channel=0 note=57 velocity=90 time=0
EXTRACT: note_on channel=1 note=36 velocity=0 time=0
EXTRACT: note_on channel=1 note=33 velocity=90 time=0
EXTRACT: note_on channel=3 note=55 velocity=0 time=0
EXTRACT: note_on channel=3 note=67 velocity=0 time=0
EXTRACT: note_on channel=3 note=79 velocity=0 time=0
EXTRACT: note_on channel=3 note=67 velocity=83 time=0
EXTRACT: note_on channel=3 note=79 velocity=83 time=0
EXTRACT: note_on channel=3 note=55 velocity=94 time=0
EXTRACT: note_on channel=6 note=55 velocity=0 time=0
EXTRACT: note_on channel=6 note=60 velocity=0 time=0
EXTRACT: note_on channel=6 note=57 velocity=81 time=0
EXTRACT: note_on channel=6 note=52 velocity=81 time=0
EXTRACT: note_on channel=9 note=42 velocity=51 time=0
EXTRACT: note_on channel=9 note=63 velocity=67 time=0
EXTRACT: note_on channel=2 note=60 velocity=0 time=0.0384615
EXTRACT: note_on channel=9 note=43 velocity=80 time=0
EXTRACT: note_on channel=2 note=60 velocity=54 time=0.01153845
EXTRACT: note_on channel=2 note=59 velocity=42 time=0.0076923
EXTRACT: note_on channel=2 note=57 velocity=88 time=0.0153846
EXTRACT: note_on channel=2 note=60 velocity=0 time=0.01923075
EXTRACT: note_on channel=2 note=55 velocity=94 time=0.00384615
EXTRACT: note_on channel=9 note=43 velocity=0 time=0
EXTRACT: note_on channel=9 note=54 velocity=0 time=0.01153845
EXTRACT: note_on channel=9 note=54 velocity=38 time=0
EXTRACT: note_on channel=2 note=59 velocity=0 time=0.0076923
EXTRACT: note_on channel=3 note=55 velocity=0 time=0
EXTRACT: note_on channel=3 note=79 velocity=0 time=0
EXTRACT: note_on channel=3 note=67 velocity=0 time=0
EXTRACT: note_on channel=9 note=42 velocity=0 time=0
EXTRACT: note_on channel=9 note=63 velocity=0 time=0
EXTRACT: note_on channel=2 note=53 velocity=88 time=0.00384615
EXTRACT: note_on channel=2 note=57 velocity=0 time=0.0153846
EXTRACT: note_on channel=2 note=52 velocity=88 time=0.0076923
EXTRACT: note_on channel=2 note=55 velocity=0 time=0.01153845
EXTRACT: note_on channel=2 note=50 velocity=80 time=0.0076923
EXTRACT: note_on channel=2 note=53 velocity=0 time=0.0076923
EXTRACT: note_on channel=2 note=48 velocity=76 time=0.01153845
EXTRACT: note_on channel=2 note=52 velocity=0 time=0.00384615
EXTRACT: note_on channel=2 note=47 velocity=75 time=0.0153846
EXTRACT: note_on channel=2 note=50 velocity=0 time=0.00384615
EXTRACT: note_on channel=2 note=45 velocity=72 time=0.0153846
EXTRACT: note_on channel=2 note=48 velocity=0 time=0.00384615
EXTRACT: note_on channel=9 note=54 velocity=0 time=0
EXTRACT: note_on channel=9 note=54 velocity=39 time=0
EXTRACT: note_on channel=0 note=57 velocity=0 time=0.0076923
EXTRACT: note_on channel=0 note=55 velocity=72 time=0
EXTRACT: note_on channel=0 note=52 velocity=66 time=0
EXTRACT: note_on channel=0 note=60 velocity=67 time=0
EXTRACT: note_on channel=1 note=33 velocity=0 time=0
EXTRACT: note_on channel=1 note=36 velocity=107 time=0
EXTRACT: note_on channel=3 note=72 velocity=80 time=0
EXTRACT: note_on channel=5 note=64 velocity=100 time=0
EXTRACT: note_on channel=6 note=52 velocity=0 time=0
EXTRACT: note_on channel=6 note=57 velocity=0 time=0
EXTRACT: note_on channel=7 note=72 velocity=0 time=0
EXTRACT: note_on channel=7 note=67 velocity=110 time=0
EXTRACT: note_on channel=8 note=72 velocity=92 time=0
EXTRACT: note_on channel=9 note=36 velocity=97 time=0
EXTRACT: note_on channel=9 note=42 velocity=99 time=0
EXTRACT: note_on channel=9 note=49 velocity=83 time=0
EXTRACT: note_on channel=9 note=63 velocity=50 time=0
EXTRACT: note_on channel=2 note=43 velocity=71 time=0.0076923
EXTRACT: note_on channel=2 note=47 velocity=0 time=0.00384615
EXTRACT: note_on channel=3 note=67 velocity=85 time=0
EXTRACT: note_on channel=2 note=41 velocity=73 time=0.01153845
EXTRACT: note_on channel=3 note=64 velocity=82 time=0
EXTRACT: note_on channel=2 note=45 velocity=0 time=0.0076923
EXTRACT: note_on channel=4 note=79 velocity=120 time=0.0076923
EXTRACT: note_on channel=2 note=40 velocity=74 time=0.0076923
EXTRACT: note_on channel=2 note=43 velocity=0 time=0.01153845
EXTRACT: note_on channel=2 note=41 velocity=0 time=0.01153845
EXTRACT: note_on channel=2 note=38 velocity=74 time=0.00384615
EXTRACT: note_on channel=2 note=40 velocity=0 time=0.0153846
EXTRACT: note_on channel=2 note=36 velocity=76 time=0
EXTRACT: note_on channel=2 note=38 velocity=0 time=0.01923075
EXTRACT: note_on channel=9 note=54 velocity=0 time=0
EXTRACT: note_on channel=9 note=54 velocity=7 time=0
EXTRACT: note_on channel=9 note=36 velocity=0 time=0.0076923
EXTRACT: note_on channel=9 note=42 velocity=0 time=0
EXTRACT: note_on channel=9 note=49 velocity=0 time=0
EXTRACT: note_on channel=9 note=63 velocity=0 time=0
EXTRACT: note_on channel=2 note=35 velocity=88 time=0.00384615
EXTRACT: note_on channel=2 note=36 velocity=0 time=0.00384615
EXTRACT: note_on channel=2 note=35 velocity=0 time=0.02692305
EXTRACT: note_on channel=9 note=54 velocity=0 time=0.07307685
EXTRACT: note_on channel=9 note=54 velocity=7 time=0
EXTRACT: note_on channel=1 note=36 velocity=0 time=0.0076923
EXTRACT: note_on channel=7 note=67 velocity=0 time=0
EXTRACT: note_on channel=8 note=72 velocity=0 time=0
EXTRACT: note_on channel=9 note=42 velocity=32 time=0
EXTRACT: note_on channel=9 note=62 velocity=56 time=0
EXTRACT: note_on channel=9 note=54 velocity=0 time=0.1076922
EXTRACT: note_on channel=9 note=54 velocity=7 time=0
EXTRACT: note_on channel=3 note=64 velocity=0 time=0.0076923
EXTRACT: note_on channel=3 note=67 velocity=0 time=0
EXTRACT: note_on channel=3 note=72 velocity=0 time=0
EXTRACT: note_on channel=5 note=64 velocity=0 time=0
EXTRACT: note_on channel=9 note=42 velocity=0 time=0
EXTRACT: note_on channel=9 note=62 velocity=0 time=0
EXTRACT: note_on channel=9 note=54 velocity=0 time=0.1076922
EXTRACT: note_on channel=9 note=54 velocity=10 time=0
EXTRACT: note_on channel=1 note=36 velocity=110 time=0.0076923
EXTRACT: note_on channel=3 note=67 velocity=101 time=0
EXTRACT: note_on channel=5 note=60 velocity=117 time=0
EXTRACT: note_on channel=7 note=64 velocity=107 time=0
EXTRACT: note_on channel=8 note=67 velocity=90 time=0
EXTRACT: note_on channel=9 note=40 velocity=93 time=0
EXTRACT: note_on channel=9 note=42 velocity=99 time=0
EXTRACT: note_on channel=9 note=62 velocity=58 time=0
EXTRACT: note_on channel=9 note=39 velocity=93 time=0
EXTRACT: note_on channel=3 note=64 velocity=90 time=0.01153845
EXTRACT: note_on channel=3 note=72 velocity=94 time=0.01153845
EXTRACT: note_on channel=9 note=54 velocity=0 time=0.0846153
EXTRACT: note_on channel=9 note=54 velocity=13 time=0
EXTRACT: note_on channel=3 note=72 velocity=0 time=0.0076923
EXTRACT: note_on channel=3 note=64 velocity=0 time=0
EXTRACT: note_on channel=3 note=67 velocity=0 time=0
EXTRACT: note_on channel=9 note=40 velocity=0 time=0
EXTRACT: note_on channel=9 note=42 velocity=0 time=0
EXTRACT: note_on channel=9 note=62 velocity=0 time=0
EXTRACT: note_on channel=9 note=39 velocity=0 time=0
EXTRACT: note_on channel=9 note=54 velocity=0 time=0.1076922
EXTRACT: note_on channel=9 note=54 velocity=12 time=0
EXTRACT: note_on channel=1 note=36 velocity=0 time=0.0076923
EXTRACT: note_on channel=7 note=64 velocity=0 time=0
EXTRACT: note_on channel=8 note=67 velocity=0 time=0
EXTRACT: note_on channel=9 note=42 velocity=49 time=0
EXTRACT: note_on channel=9 note=64 velocity=70 time=0
EXTRACT: note_on channel=9 note=54 velocity=0 time=0.1076922
EXTRACT: note_on channel=9 note=54 velocity=13 time=0
EXTRACT: note_on channel=5 note=60 velocity=0 time=0.0076923
EXTRACT: note_on channel=9 note=42 velocity=0 time=0
EXTRACT: note_on channel=9 note=64 velocity=0 time=0
EXTRACT: note_on channel=9 note=54 velocity=0 time=0.1076922
EXTRACT: note_on channel=9 note=54 velocity=42 time=0
EXTRACT: note_on channel=1 note=36 velocity=104 time=0.0076923
EXTRACT: note_on channel=5 note=55 velocity=117 time=0
EXTRACT: note_on channel=7 note=60 velocity=110 time=0
EXTRACT: note_on channel=8 note=64 velocity=99 time=0
EXTRACT: note_on channel=9 note=36 velocity=88 time=0
EXTRACT: note_on channel=9 note=42 velocity=84 time=0
EXTRACT: note_on channel=9 note=54 velocity=0 time=0.1076922
EXTRACT: note_on channel=9 note=54 velocity=28 time=0
EXTRACT: note_on channel=9 note=36 velocity=0 time=0.0076923
EXTRACT: note_on channel=9 note=42 velocity=0 time=0
EXTRACT: note_on channel=9 note=54 velocity=0 time=0.1076922
EXTRACT: note_on channel=9 note=54 velocity=28 time=0
EXTRACT: note_on channel=1 note=36 velocity=0 time=0.0076923
EXTRACT: note_on channel=1 note=31 velocity=71 time=0
EXTRACT: note_on channel=3 note=72 velocity=83 time=0
EXTRACT: note_on channel=9 note=36 velocity=94 time=0
EXTRACT: note_on channel=9 note=42 velocity=53 time=0
EXTRACT: note_on channel=9 note=62 velocity=36 time=0
EXTRACT: note_on channel=3 note=64 velocity=85 time=0.01153845
EXTRACT: note_on channel=3 note=67 velocity=104 time=0.01153845
EXTRACT: note_on channel=9 note=54 velocity=0 time=0.0846153
EXTRACT: note_on channel=9 note=54 velocity=28 time=0
EXTRACT: note_on channel=3 note=67 velocity=0 time=0.0076923
EXTRACT: note_on channel=3 note=64 velocity=0 time=0
EXTRACT: note_on channel=3 note=72 velocity=0 time=0
EXTRACT: note_on channel=7 note=60 velocity=0 time=0
EXTRACT: note_on channel=9 note=36 velocity=0 time=0
EXTRACT: note_on channel=9 note=42 velocity=0 time=0
EXTRACT: note_on channel=9 note=62 velocity=0 time=0
EXTRACT: note_on channel=9 note=54 velocity=0 time=0.1076922
EXTRACT: note_on channel=9 note=54 velocity=41 time=0
EXTRACT: note_on channel=0 note=55 velocity=0 time=0.0076923
EXTRACT: note_on channel=1 note=31 velocity=0 time=0
EXTRACT: note_on channel=1 note=33 velocity=83 time=0
EXTRACT: note_on channel=5 note=55 velocity=0 time=0
EXTRACT: note_on channel=8 note=64 velocity=0 time=0
EXTRACT: note_on channel=9 note=40 velocity=93 time=0
EXTRACT: note_on channel=9 note=42 velocity=94 time=0
EXTRACT: note_on channel=9 note=62 velocity=52 time=0
EXTRACT: note_on channel=9 note=39 velocity=93 time=0
EXTRACT: note_on channel=9 note=54 velocity=0 time=0.1076922
EXTRACT: note_on channel=9 note=54 velocity=28 time=0
EXTRACT: note_on channel=0 note=60 velocity=0 time=0.0076923
EXTRACT: note_on channel=0 note=52 velocity=0 time=0
EXTRACT: note_on channel=9 note=40 velocity=0 time=0
EXTRACT: note_on channel=9 note=42 velocity=0 time=0
EXTRACT: note_on channel=9 note=62 velocity=0 time=0
EXTRACT: note_on channel=9 note=39 velocity=0 time=0
EXTRACT: note_on channel=9 note=54 velocity=0 time=0.1076922
EXTRACT: note_on channel=9 note=54 velocity=31 time=0
EXTRACT: note_on channel=0 note=53 velocity=78 time=0.0076923
EXTRACT: note_on channel=0 note=50 velocity=64 time=0
EXTRACT: note_on channel=0 note=58 velocity=68 time=0
EXTRACT: note_on channel=1 note=33 velocity=0 time=0
EXTRACT: note_on channel=1 note=34 velocity=104 time=0
EXTRACT: note_on channel=3 note=62 velocity=86 time=0
EXTRACT: note_on channel=5 note=58 velocity=109 time=0
EXTRACT: note_on channel=7 note=62 velocity=107 time=0
EXTRACT: note_on channel=8 note=65 velocity=104 time=0
EXTRACT: note_on channel=9 note=36 velocity=70 time=0
EXTRACT: note_on channel=9 note=42 velocity=38 time=0
EXTRACT: note_on channel=9 note=63 velocity=56 time=0
EXTRACT: note_on channel=3 note=65 velocity=92 time=0.01153845
EXTRACT: note_on channel=3 note=70 velocity=96 time=0.01153845
EXTRACT: note_on channel=9 note=54 velocity=0 time=0.0846153
EXTRACT: note_on channel=9 note=54 velocity=37 time=0
EXTRACT: note_on channel=9 note=36 velocity=0 time=0.0076923
EXTRACT: note_on channel=9 note=42 velocity=0 time=0
EXTRACT: note_on channel=9 note=63 velocity=0 time=0
EXTRACT: note_on channel=9 note=54 velocity=0 time=0.1076922
EXTRACT: note_on channel=9 note=54 velocity=41 time=0
EXTRACT: note_on channel=9 note=36 velocity=104 time=0.0076923
EXTRACT: note_on channel=9 note=42 velocity=94 time=0
EXTRACT: note_on channel=9 note=54 velocity=0 time=0.1076922
EXTRACT: note_on channel=9 note=54 velocity=10 time=0
EXTRACT: note_on channel=5 note=58 velocity=0 time=0.0076923
EXTRACT: note_on channel=7 note=62 velocity=0 time=0
EXTRACT: note_on channel=8 note=65 velocity=0 time=0
EXTRACT: note_on channel=9 note=36 velocity=0 time=0
EXTRACT: note_on channel=9 note=42 velocity=0 time=0
EXTRACT: note_on channel=9 note=54 velocity=0 time=0.1076922
EXTRACT: note_on channel=9 note=54 velocity=10 time=0
EXTRACT: note_on channel=1 note=34 velocity=0 time=0.0076923
EXTRACT: note_on channel=1 note=29 velocity=83 time=0
EXTRACT: note_on channel=5 note=58 velocity=114 time=0
EXTRACT: note_on channel=7 note=62 velocity=99 time=0
EXTRACT: note_on channel=8 note=65 velocity=88 time=0
EXTRACT: note_on channel=9 note=42 velocity=40 time=0
EXTRACT: note_on channel=9 note=62 velocity=46 time=0
EXTRACT: note_on channel=9 note=54 velocity=0 time=0.1076922
EXTRACT: note_on channel=9 note=54 velocity=11 time=0
EXTRACT: note_on channel=3 note=70 velocity=0 time=0.0076923
EXTRACT: note_on channel=3 note=62 velocity=0 time=0
EXTRACT: note_on channel=5 note=58 velocity=0 time=0
EXTRACT: note_on channel=7 note=62 velocity=0 time=0
EXTRACT: note_on channel=9 note=42 velocity=0 time=0
EXTRACT: note_on channel=9 note=62 velocity=0 time=0
EXTRACT: note_on channel=8 note=65 velocity=0 time=0.0384615
EXTRACT: note_on channel=4 note=79 velocity=0 time=0.04999995
EXTRACT: note_on channel=4 note=72 velocity=99 time=0.0153846
EXTRACT: note_on channel=9 note=54 velocity=0 time=0.00384615
EXTRACT: note_on channel=9 note=54 velocity=11 time=0
EXTRACT: note_on channel=1 note=29 velocity=0 time=0.0076923
EXTRACT: note_on channel=1 note=31 velocity=68 time=0
EXTRACT: note_on channel=3 note=65 velocity=0 time=0
EXTRACT: note_on channel=3 note=65 velocity=88 time=0
EXTRACT: note_on channel=5 note=58 velocity=109 time=0
EXTRACT: note_on channel=7 note=62 velocity=104 time=0
EXTRACT: note_on channel=8 note=65 velocity=94 time=0
EXTRACT: note_on channel=9 note=40 velocity=87 time=0
EXTRACT: note_on channel=9 note=42 velocity=94 time=0
EXTRACT: note_on channel=9 note=62 velocity=50 time=0
EXTRACT: note_on channel=9 note=39 velocity=87 time=0
EXTRACT: note_on channel=3 note=62 velocity=82 time=0.01153845
EXTRACT: note_on channel=3 note=70 velocity=100 time=0.01153845
EXTRACT: note_on channel=9 note=54 velocity=0 time=0.0846153
EXTRACT: note_on channel=9 note=54 velocity=11 time=0
EXTRACT: note_on channel=3 note=70 velocity=0 time=0.0076923
EXTRACT: note_on channel=3 note=62 velocity=0 time=0
EXTRACT: note_on channel=3 note=65 velocity=0 time=0
EXTRACT: note_on channel=9 note=40 velocity=0 time=0
EXTRACT: note_on channel=9 note=42 velocity=0 time=0
EXTRACT: note_on channel=9 note=62 velocity=0 time=0
EXTRACT: note_on channel=9 note=39 velocity=0 time=0
EXTRACT: note_on channel=9 note=54 velocity=0 time=0.1076922
EXTRACT: note_on channel=9 note=54 velocity=13 time=0
EXTRACT: note_on channel=1 note=31 velocity=0 time=0.0076923
EXTRACT: note_on channel=1 note=34 velocity=96 time=0
EXTRACT: note_on channel=5 note=58 velocity=0 time=0
EXTRACT: note_on channel=5 note=57 velocity=88 time=0
EXTRACT: note_on channel=7 note=62 velocity=0 time=0
EXTRACT: note_on channel=7 note=60 velocity=75 time=0
EXTRACT: note_on channel=8 note=65 velocity=0 time=0
EXTRACT: note_on channel=8 note=64 velocity=69 time=0
EXTRACT: note_on channel=9 note=42 velocity=34 time=0
EXTRACT: note_on channel=9 note=64 velocity=66 time=0
EXTRACT: note_on channel=9 note=54 velocity=0 time=0.1076922
EXTRACT: note_on channel=9 note=54 velocity=13 time=0
EXTRACT: note_on channel=8 note=64 velocity=0 time=0.0076923
EXTRACT: note_on channel=9 note=42 velocity=0 time=0
EXTRACT: note_on channel=9 note=64 velocity=0 time=0
EXTRACT: note_on channel=4 note=76 velocity=101 time=0.08846145
EXTRACT: note_on channel=9 note=54 velocity=0 time=0.01923075
EXTRACT: note_on channel=9 note=54 velocity=38 time=0
EXTRACT: note_on channel=5 note=57 velocity=0 time=0.0076923
EXTRACT: note_on channel=5 note=60 velocity=113 time=0
EXTRACT: note_on channel=7 note=60 velocity=0 time=0
EXTRACT: note_on channel=7 note=64 velocity=107 time=0
EXTRACT: note_on channel=8 note=67 velocity=99 time=0
EXTRACT: note_on channel=9 note=36 velocity=86 time=0
EXTRACT: note_on channel=9 note=42 velocity=94 time=0
EXTRACT: note_on channel=4 note=72 velocity=0 time=0.0076923
EXTRACT: note_on channel=9 note=54 velocity=0 time=0.0999999
EXTRACT: note_on channel=9 note=54 velocity=27 time=0
EXTRACT: note_on channel=9 note=36 velocity=0 time=0.0076923
EXTRACT: note_on channel=9 note=42 velocity=0 time=0
EXTRACT: note_on channel=9 note=54 velocity=0 time=0.1076922
EXTRACT: note_on channel=9 note=54 velocity=27 time=0
EXTRACT: note_on channel=1 note=34 velocity=0 time=0.0076923
EXTRACT: note_on channel=1 note=29 velocity=85 time=0
EXTRACT: note_on channel=3 note=65 velocity=94 time=0
EXTRACT: note_on channel=9 note=36 velocity=85 time=0
EXTRACT: note_on channel=9 note=42 velocity=31 time=0
EXTRACT: note_on channel=9 note=62 velocity=36 time=0
EXTRACT: note_on channel=3 note=62 velocity=90 time=0.01153845
EXTRACT: note_on channel=3 note=70 velocity=96 time=0.01153845
EXTRACT: note_on channel=9 note=54 velocity=0 time=0.0846153
EXTRACT: note_on channel=9 note=54 velocity=27 time=0
EXTRACT: note_on channel=3 note=70 velocity=0 time=0.0076923
EXTRACT: note_on channel=3 note=62 velocity=0 time=0
EXTRACT: note_on channel=3 note=65 velocity=0 time=0
EXTRACT: note_on channel=5 note=60 velocity=0 time=0
EXTRACT: note_on channel=7 note=64 velocity=0 time=0
EXTRACT: note_on channel=8 note=67 velocity=0 time=0
EXTRACT: note_on channel=9 note=36 velocity=0 time=0
EXTRACT: note_on channel=9 note=42 velocity=0 time=0
EXTRACT: note_on channel=9 note=62 velocity=0 time=0
EXTRACT: note_on channel=4 note=77 velocity=97 time=0.09615375
EXTRACT: note_on channel=4 note=76 velocity=0 time=0.0076923
EXTRACT: note_on channel=9 note=54 velocity=0 time=0.00384615
EXTRACT: note_on channel=9 note=54 velocity=36 time=0
EXTRACT: note_on channel=1 note=29 velocity=0 time=0.0076923
EXTRACT: note_on channel=1 note=31 velocity=71 time=0
EXTRACT: note_on channel=7 note=64 velocity=35 time=0
EXTRACT: note_on channel=9 note=40 velocity=87 time=0
EXTRACT: note_on channel=9 note=42 velocity=99 time=0
EXTRACT: note_on channel=9 note=62 velocity=50 time=0
EXTRACT: note_on channel=9 note=39 velocity=87 time=0
EXTRACT: note_on channel=9 note=54 velocity=0 time=0.1076922
EXTRACT: note_on channel=9 note=54 velocity=27 time=0
EXTRACT: note_on channel=7 note=64 velocity=0 time=0.0076923
EXTRACT: note_on channel=9 note=40 velocity=0 time=0
EXTRACT: note_on channel=9 note=42 velocity=0 time=0
EXTRACT: note_on channel=9 note=62 velocity=0 time=0
EXTRACT: note_on channel=9 note=39 velocity=0 time=0
EXTRACT: note_on channel=9 note=54 velocity=0 time=0.1076922
EXTRACT: note_on channel=9 note=54 velocity=28 time=0
EXTRACT: note_on channel=0 note=58 velocity=0 time=0.0076923
EXTRACT: note_on channel=0 note=53 velocity=0 time=0
EXTRACT: note_on channel=1 note=31 velocity=0 time=0
EXTRACT: note_on channel=1 note=34 velocity=92 time=0
EXTRACT: note_on channel=5 note=55 velocity=94 time=0
EXTRACT: note_on channel=7 note=60 velocity=97 time=0
EXTRACT: note_on channel=8 note=64 velocity=97 time=0
EXTRACT: note_on channel=9 note=36 velocity=71 time=0
EXTRACT: note_on channel=9 note=42 velocity=38 time=0
EXTRACT: note_on channel=9 note=63 velocity=58 time=0
EXTRACT: note_on channel=9 note=54 velocity=0 time=0.1076922
EXTRACT: note_on channel=9 note=54 velocity=38 time=0
EXTRACT: note_on channel=0 note=50 velocity=0 time=0.0076923
EXTRACT: note_on channel=8 note=64 velocity=0 time=0
EXTRACT: note_on channel=9 note=36 velocity=0 time=0
EXTRACT: note_on channel=9 note=42 velocity=0 time=0
EXTRACT: note_on channel=9 note=63 velocity=0 time=0
EXTRACT: note_on channel=5 note=55 velocity=0 time=0.076923
EXTRACT: note_on channel=9 note=54 velocity=0 time=0.0307692
EXTRACT: note_on channel=9 note=54 velocity=39 time=0
EXTRACT: note_on channel=0 note=52 velocity=62 time=0.0076923
EXTRACT: note_on channel=0 note=48 velocity=62 time=0
EXTRACT: note_on channel=0 note=57 velocity=67 time=0
EXTRACT: note_on channel=1 note=34 velocity=0 time=0
EXTRACT: note_on channel=1 note=33 velocity=85 time=0
EXTRACT: note_on channel=3 note=60 velocity=83 time=0
EXTRACT: note_on channel=5 note=57 velocity=109 time=0
EXTRACT: note_on channel=7 note=60 velocity=0 time=0
EXTRACT: note_on channel=7 note=62 velocity=97 time=0
EXTRACT: note_on channel=8 note=65 velocity=94 time=0
EXTRACT: note_on channel=9 note=36 velocity=101 time=0
EXTRACT: note_on channel=9 note=42 velocity=99 time=0
EXTRACT: note_on channel=3 note=69 velocity=75 time=0.01153845
EXTRACT: note_on channel=4 note=77 velocity=0 time=0
EXTRACT: note_on channel=4 note=81 velocity=88 time=0.00384615
EXTRACT: note_on channel=3 note=64 velocity=97 time=0.0076923
EXTRACT: note_on channel=9 note=54 velocity=0 time=0.0846153
EXTRACT: note_on channel=9 note=54 velocity=7 time=0
EXTRACT: note_on channel=9 note=36 velocity=0 time=0.0076923
EXTRACT: note_on channel=9 note=42 velocity=0 time=0
EXTRACT: note_on channel=9 note=54 velocity=0 time=0.1076922
EXTRACT: note_on channel=9 note=54 velocity=7 time=0
EXTRACT: note_on channel=1 note=33 velocity=0 time=0.0076923
EXTRACT: note_on channel=5 note=57 velocity=0 time=0
EXTRACT: note_on channel=7 note=62 velocity=0 time=0
EXTRACT: note_on channel=8 note=65 velocity=0 time=0
EXTRACT: note_on channel=9 note=42 velocity=27 time=0
EXTRACT: note_on channel=9 note=62 velocity=34 time=0
EXTRACT: note_on channel=9 note=54 velocity=0 time=0.1076922
EXTRACT: note_on channel=9 note=54 velocity=7 time=0
EXTRACT: note_on channel=9 note=42 velocity=0 time=0.0076923
EXTRACT: note_on channel=9 note=62 velocity=0 time=0
EXTRACT: note_on channel=9 note=54 velocity=0 time=0.1076922
EXTRACT: note_on channel=9 note=54 velocity=10 time=0
EXTRACT: note_on channel=1 note=33 velocity=90 time=0.0076923
EXTRACT: note_on channel=3 note=64 velocity=0 time=0
EXTRACT: note_on channel=3 note=69 velocity=0 time=0
EXTRACT: note_on channel=3 note=60 velocity=0 time=0
EXTRACT: note_on channel=3 note=60 velocity=88 time=0
EXTRACT: note_on channel=5 note=57 velocity=117 time=0
EXTRACT: note_on channel=7 note=62 velocity=101 time=0
EXTRACT: note_on channel=8 note=65 velocity=104 time=0
EXTRACT: note_on channel=9 note=40 velocity=93 time=0
EXTRACT: note_on channel=9 note=42 velocity=94 time=0
EXTRACT: note_on channel=9 note=62 velocity=46 time=0
EXTRACT: note_on channel=9 note=39 velocity=93 time=0
EXTRACT: note_on channel=3 note=69 velocity=85 time=0.01153845
EXTRACT: note_on channel=3 note=64 velocity=104 time=0.01153845
EXTRACT: note_on channel=9 note=54 velocity=0 time=0.0846153
EXTRACT: note_on channel=9 note=54 velocity=13 time=0
EXTRACT: note_on channel=3 note=64 velocity=0 time=0.0076923
EXTRACT: note_on channel=3 note=69 velocity=0 time=0
EXTRACT: note_on channel=3 note=60 velocity=0 time=0
EXTRACT: note_on channel=9 note=40 velocity=0 time=0
EXTRACT: note_on channel=9 note=42 velocity=0 time=0
EXTRACT: note_on channel=9 note=62 velocity=0 time=0
EXTRACT: note_on channel=9 note=39 velocity=0 time=0
EXTRACT: note_on channel=9 note=54 velocity=0 time=0.1076922
EXTRACT: note_on channel=9 note=54 velocity=12 time=0
EXTRACT: note_on channel=1 note=33 velocity=0 time=0.0076923
EXTRACT: note_on channel=5 note=57 velocity=0 time=0
EXTRACT: note_on channel=8 note=65 velocity=0 time=0
EXTRACT: note_on channel=9 note=42 velocity=23 time=0
EXTRACT: note_on channel=9 note=64 velocity=66 time=0
EXTRACT: note_on channel=9 note=54 velocity=0 time=0.1076922
EXTRACT: note_on channel=9 note=54 velocity=13 time=0
EXTRACT: note_on channel=7 note=62 velocity=0 time=0.0076923
EXTRACT: note_on channel=9 note=42 velocity=0 time=0
EXTRACT: note_on channel=9 note=64 velocity=0 time=0
EXTRACT: note_on channel=9 note=54 velocity=0 time=0.1076922
EXTRACT: note_on channel=9 note=54 velocity=42 time=0
EXTRACT: note_on channel=1 note=33 velocity=99 time=0.0076923
EXTRACT: note_on channel=5 note=57 velocity=117 time=0
EXTRACT: note_on channel=7 note=62 velocity=110 time=0
EXTRACT: note_on channel=8 note=65 velocity=101 time=0
EXTRACT: note_on channel=9 note=36 velocity=85 time=0
EXTRACT: note_on channel=9 note=42 velocity=99 time=0
EXTRACT: note_on channel=9 note=54 velocity=0 time=0.1076922
EXTRACT: note_on channel=9 note=54 velocity=28 time=0
EXTRACT: note_on channel=9 note=36 velocity=0 time=0.0076923
EXTRACT: note_on channel=9 note=42 velocity=0 time=0
EXTRACT: note_on channel=9 note=54 velocity=0 time=0.1076922
EXTRACT: note_on channel=9 note=54 velocity=28 time=0
EXTRACT: note_on channel=1 note=33 velocity=0 time=0.0076923
EXTRACT: note_on channel=1 note=29 velocity=76 time=0
EXTRACT: note_on channel=3 note=69 velocity=85 time=0
EXTRACT: note_on channel=5 note=57 velocity=0 time=0
EXTRACT: note_on channel=5 note=55 velocity=99 time=0
EXTRACT: note_on channel=7 note=62 velocity=0 time=0
EXTRACT: note_on channel=7 note=60 velocity=86 time=0
EXTRACT: note_on channel=8 note=65 velocity=0 time=0
EXTRACT: note_on channel=8 note=64 velocity=76 time=0
EXTRACT: note_on channel=9 note=36 velocity=83 time=0
EXTRACT: note_on channel=9 note=42 velocity=53 time=0
EXTRACT: note_on channel=9 note=62 velocity=37 time=0
EXTRACT: note_on channel=3 note=60 velocity=90 time=0.01153845
EXTRACT: note_on channel=3 note=64 velocity=104 time=0.01153845
EXTRACT: note_on channel=9 note=54 velocity=0 time=0.0846153
EXTRACT: note_on channel=9 note=54 velocity=28 time=0
EXTRACT: note_on channel=3 note=64 velocity=0 time=0.0076923
EXTRACT: note_on channel=3 note=60 velocity=0 time=0
EXTRACT: note_on channel=3 note=69 velocity=0 time=0
EXTRACT: note_on channel=9 note=36 velocity=0 time=0
EXTRACT: note_on channel=9 note=42 velocity=0 time=0
EXTRACT: note_on channel=9 note=62 velocity=0 time=0
EXTRACT: note_on channel=9 note=54 velocity=0 time=0.1076922
EXTRACT: note_on channel=9 note=54 velocity=41 time=0
EXTRACT: note_on channel=0 note=57 velocity=0 time=0.0076923
EXTRACT: note_on channel=1 note=29 velocity=0 time=0
EXTRACT: note_on channel=1 note=33 velocity=101 time=0
EXTRACT: note_on channel=5 note=55 velocity=0 time=0
EXTRACT: note_on channel=5 note=57 velocity=88 time=0
EXTRACT: note_on channel=7 note=60 velocity=0 time=0
EXTRACT: note_on channel=7 note=62 velocity=88 time=0
EXTRACT: note_on channel=8 note=64 velocity=0 time=0
EXTRACT: note_on channel=8 note=65 velocity=80 time=0
EXTRACT: note_on channel=9 note=40 velocity=100 time=0
EXTRACT: note_on channel=9 note=42 velocity=99 time=0
EXTRACT: note_on channel=9 note=62 velocity=43 time=0
EXTRACT: note_on channel=9 note=39 velocity=100 time=0
EXTRACT: note_on channel=9 note=54 velocity=0 time=0.1076922
EXTRACT: note_on channel=9 note=54 velocity=28 time=0
EXTRACT: note_on channel=0 note=48 velocity=0 time=0.0076923
EXTRACT: note_on channel=0 note=52 velocity=0 time=0
EXTRACT: note_on channel=9 note=40 velocity=0 time=0
EXTRACT: note_on channel=9 note=42 velocity=0 time=0
EXTRACT: note_on channel=9 note=62 velocity=0 time=0
EXTRACT: note_on channel=9 note=39 velocity=0 time=0
EXTRACT: note_on channel=4 note=79 velocity=97 time=0.04999995
EXTRACT: note_on channel=4 note=81 velocity=0 time=0.01923075
EXTRACT: note_on channel=9 note=54 velocity=0 time=0.0384615
EXTRACT: note_on channel=9 note=54 velocity=31 time=0
EXTRACT: note_on channel=0 note=50 velocity=72 time=0.0076923
EXTRACT: note_on channel=0 note=47 velocity=69 time=0
EXTRACT: note_on channel=0 note=55 velocity=68 time=0
EXTRACT: note_on channel=1 note=33 velocity=0 time=0
EXTRACT: note_on channel=1 note=31 velocity=86 time=0
EXTRACT: note_on channel=3 note=59 velocity=90 time=0
EXTRACT: note_on channel=5 note=57 velocity=0 time=0
EXTRACT: note_on channel=5 note=55 velocity=92 time=0
EXTRACT: note_on channel=7 note=62 velocity=0 time=0
EXTRACT: note_on channel=7 note=60 velocity=82 time=0
EXTRACT: note_on channel=8 note=65 velocity=0 time=0
EXTRACT: note_on channel=8 note=64 velocity=83 time=0
EXTRACT: note_on channel=9 note=36 velocity=71 time=0
EXTRACT: note_on channel=9 note=42 velocity=31 time=0
EXTRACT: note_on channel=9 note=63 velocity=58 time=0
EXTRACT: note_on channel=3 note=67 velocity=83 time=0.01153845
EXTRACT: note_on channel=3 note=62 velocity=104 time=0.01153845
EXTRACT: note_on channel=9 note=54 velocity=0 time=0.0846153
EXTRACT: note_on channel=9 note=54 velocity=37 time=0
EXTRACT: note_on channel=5 note=55 velocity=0 time=0.0076923
EXTRACT: note_on channel=9 note=36 velocity=0 time=0
EXTRACT: note_on channel=9 note=42 velocity=0 time=0
EXTRACT: note_on channel=9 note=63 velocity=0 time=0
EXTRACT: note_on channel=8 note=64 velocity=0 time=0.076923
EXTRACT: note_on channel=9 note=54 velocity=0 time=0.0307692
EXTRACT: note_on channel=9 note=54 velocity=41 time=0
EXTRACT: note_on channel=5 note=55 velocity=117 time=0.0076923
EXTRACT: note_on channel=7 note=60 velocity=0 time=0
EXTRACT: note_on channel=7 note=62 velocity=94 time=0
EXTRACT: note_on channel=8 note=65 velocity=86 time=0
EXTRACT: note_on channel=9 note=36 velocity=101 time=0
EXTRACT: note_on channel=9 note=42 velocity=99 time=0
EXTRACT: note_on channel=9 note=54 velocity=0 time=0.1076922
EXTRACT: note_on channel=9 note=54 velocity=10 time=0
EXTRACT: note_on channel=1 note=31 velocity=0 time=0.0076923
EXTRACT: note_on channel=9 note=36 velocity=0 time=0
EXTRACT: note_on channel=9 note=42 velocity=0 time=0
EXTRACT: note_on channel=9 note=54 velocity=0 time=0.1076922
EXTRACT: note_on channel=9 note=54 velocity=10 time=0
EXTRACT: note_on channel=1 note=31 velocity=94 time=0.0076923
EXTRACT: note_on channel=7 note=62 velocity=0 time=0
EXTRACT: note_on channel=8 note=65 velocity=0 time=0
EXTRACT: note_on channel=9 note=42 velocity=42 time=0
EXTRACT: note_on channel=9 note=62 velocity=38 time=0
EXTRACT: note_on channel=9 note=54 velocity=0 time=0.1076922
EXTRACT: note_on channel=9 note=54 velocity=11 time=0
EXTRACT: note_on channel=5 note=55 velocity=0 time=0.0076923
EXTRACT: note_on channel=9 note=42 velocity=0 time=0
EXTRACT: note_on channel=9 note=62 velocity=0 time=0
EXTRACT: note_on channel=9 note=54 velocity=0 time=0.1076922
EXTRACT: note_on channel=9 note=54 velocity=11 time=0
EXTRACT: note_on channel=1 note=31 velocity=0 time=0.0076923
EXTRACT: note_on channel=3 note=62 velocity=0 time=0
EXTRACT: note_on channel=3 note=67 velocity=0 time=0
EXTRACT: note_on channel=3 note=59 velocity=0 time=0
EXTRACT: note_on channel=3 note=59 velocity=94 time=0
EXTRACT: note_on channel=5 note=55 velocity=123 time=0
EXTRACT: note_on channel=7 note=62 velocity=110 time=0
EXTRACT: note_on channel=8 note=65 velocity=94 time=0
EXTRACT: note_on channel=9 note=40 velocity=93 time=0
EXTRACT: note_on channel=9 note=42 velocity=99 time=0
EXTRACT: note_on channel=9 note=62 velocity=49 time=0
EXTRACT: note_on channel=9 note=39 velocity=93 time=0
EXTRACT: note_on channel=3 note=67 velocity=90 time=0.01153845
EXTRACT: note_on channel=3 note=62 velocity=110 time=0.01153845
EXTRACT: note_on channel=9 note=54 velocity=0 time=0.0846153
EXTRACT: note_on channel=9 note=54 velocity=11 time=0
EXTRACT: note_on channel=3 note=62 velocity=0 time=0.0076923
EXTRACT: note_on channel=3 note=67 velocity=0 time=0
EXTRACT: note_on channel=3 note=59 velocity=0 time=0
EXTRACT: note_on channel=9 note=40 velocity=0 time=0
EXTRACT: note_on channel=9 note=42 velocity=0 time=0
EXTRACT: note_on channel=9 note=62 velocity=0 time=0
EXTRACT: note_on channel=9 note=39 velocity=0 time=0
EXTRACT: note_on channel=9 note=54 velocity=0 time=0.1076922
EXTRACT: note_on channel=9 note=54 velocity=13 time=0
EXTRACT: note_on channel=1 note=31 velocity=99 time=0.0076923
EXTRACT: note_on channel=7 note=62 velocity=0 time=0
EXTRACT: note_on channel=8 note=65 velocity=0 time=0
EXTRACT: note_on channel=9 note=42 velocity=46 time=0
EXTRACT: note_on channel=9 note=64 velocity=70 time=0
EXTRACT: note_on channel=6 note=43 velocity=110 time=0.0076923
EXTRACT: note_on channel=6 note=67 velocity=110 time=0.00384615
EXTRACT: note_on channel=9 note=54 velocity=0 time=0.09615375
EXTRACT: note_on channel=9 note=54 velocity=13 time=0
EXTRACT: note_on channel=5 note=55 velocity=0 time=0.0076923
EXTRACT: note_on channel=9 note=42 velocity=0 time=0
EXTRACT: note_on channel=9 note=64 velocity=0 time=0
EXTRACT: note_on channel=9 note=54 velocity=0 time=0.1076922
EXTRACT: note_on channel=9 note=54 velocity=38 time=0
EXTRACT: note_on channel=5 note=55 velocity=123 time=0.0076923
EXTRACT: note_on channel=7 note=64 velocity=107 time=0
EXTRACT: note_on channel=8 note=67 velocity=99 time=0
EXTRACT: note_on channel=9 note=36 velocity=94 time=0
EXTRACT: note_on channel=9 note=42 velocity=94 time=0
EXTRACT: note_on channel=9 note=54 velocity=0 time=0.1076922
EXTRACT: note_on channel=9 note=54 velocity=27 time=0
EXTRACT: note_on channel=9 note=36 velocity=0 time=0.0076923
EXTRACT: note_on channel=9 note=42 velocity=0 time=0
EXTRACT: note_on channel=9 note=54 velocity=0 time=0.1076922
EXTRACT: note_on channel=9 note=54 velocity=27 time=0
EXTRACT: note_on channel=1 note=31 velocity=0 time=0.0076923
EXTRACT: note_on channel=1 note=33 velocity=85 time=0
EXTRACT: note_on channel=3 note=67 velocity=92 time=0
EXTRACT: note_on channel=6 note=43 velocity=0 time=0
EXTRACT: note_on channel=6 note=45 velocity=101 time=0
EXTRACT: note_on channel=9 note=36 velocity=88 time=0
EXTRACT: note_on channel=9 note=42 velocity=46 time=0
EXTRACT: note_on channel=9 note=62 velocity=48 time=0
EXTRACT: note_on channel=3 note=59 velocity=97 time=0.01153845
EXTRACT: note_on channel=6 note=69 velocity=107 time=0
EXTRACT: note_on channel=3 note=62 velocity=107 time=0.01153845
EXTRACT: note_on channel=6 note=67 velocity=0 time=0
EXTRACT: note_on channel=9 note=42 velocity=0 time=0.03461535
EXTRACT: note_on channel=9 note=54 velocity=0 time=0.04999995
EXTRACT: note_on channel=9 note=54 velocity=27 time=0
EXTRACT: note_on channel=3 note=62 velocity=0 time=0.0076923
EXTRACT: note_on channel=3 note=59 velocity=0 time=0
EXTRACT: note_on channel=3 note=67 velocity=0 time=0
EXTRACT: note_on channel=9 note=36 velocity=0 time=0
EXTRACT: note_on channel=9 note=62 velocity=0 time=0
EXTRACT: note_on channel=9 note=54 velocity=0 time=0.1076922
EXTRACT: note_on channel=9 note=54 velocity=36 time=0
EXTRACT: note_on channel=1 note=33 velocity=0 time=0.0076923
EXTRACT: note_on channel=1 note=36 velocity=74 time=0
EXTRACT: note_on channel=5 note=55 velocity=0 time=0
EXTRACT: note_on channel=5 note=53 velocity=107 time=0
EXTRACT: note_on channel=7 note=64 velocity=0 time=0
EXTRACT: note_on channel=7 note=62 velocity=86 time=0
EXTRACT: note_on channel=8 note=67 velocity=0 time=0
EXTRACT: note_on channel=8 note=65 velocity=79 time=0
EXTRACT: note_on channel=9 note=40 velocity=93 time=0
EXTRACT: note_on channel=9 note=42 velocity=89 time=0
EXTRACT: note_on channel=9 note=62 velocity=52 time=0
EXTRACT: note_on channel=9 note=39 velocity=93 time=0
EXTRACT: note_on channel=6 note=48 velocity=107 time=0.00384615
EXTRACT: note_on channel=6 note=45 velocity=0 time=0.00384615
EXTRACT: note_on channel=6 note=72 velocity=107 time=0.01153845
EXTRACT: note_on channel=6 note=69 velocity=0 time=0.01153845
EXTRACT: note_on channel=9 note=54 velocity=0 time=0.076923
EXTRACT: note_on channel=9 note=54 velocity=27 time=0
EXTRACT: note_on channel=5 note=53 velocity=0 time=0.0076923
EXTRACT: note_on channel=9 note=40 velocity=0 time=0
EXTRACT: note_on channel=9 note=42 velocity=0 time=0
EXTRACT: note_on channel=9 note=62 velocity=0 time=0
EXTRACT: note_on channel=9 note=39 velocity=0 time=0
EXTRACT: note_on channel=7 note=62 velocity=0 time=0.076923
EXTRACT: note_on channel=6 note=45 velocity=101 time=0.02692305
EXTRACT: note_on channel=9 note=54 velocity=0 time=0.00384615
EXTRACT: note_on channel=9 note=54 velocity=28 time=0
EXTRACT: note_on channel=6 note=69 velocity=99 time=0.00384615
EXTRACT: note_on channel=0 note=47 velocity=0 time=0.00384615
EXTRACT: note_on channel=1 note=36 velocity=0 time=0
EXTRACT: note_on channel=1 note=33 velocity=72 time=0
EXTRACT: note_on channel=5 note=52 velocity=99 time=0
EXTRACT: note_on channel=6 note=72 velocity=0 time=0
EXTRACT: note_on channel=7 note=60 velocity=97 time=0
EXTRACT: note_on channel=8 note=65 velocity=0 time=0
EXTRACT: note_on channel=8 note=64 velocity=90 time=0
EXTRACT: note_on channel=9 note=36 velocity=71 time=0
EXTRACT: note_on channel=9 note=42 velocity=51 time=0
EXTRACT: note_on channel=9 note=63 velocity=67 time=0
EXTRACT: note_on channel=6 note=48 velocity=0 time=0.00384615
EXTRACT: note_on channel=9 note=54 velocity=0 time=0.10384605
EXTRACT: note_on channel=9 note=54 velocity=38 time=0
EXTRACT: note_on channel=0 note=55 velocity=0 time=0.0076923
EXTRACT: note_on channel=0 note=50 velocity=0 time=0
EXTRACT: note_on channel=9 note=36 velocity=0 time=0
EXTRACT: note_on channel=9 note=42 velocity=0 time=0
EXTRACT: note_on channel=9 note=63 velocity=0 time=0
EXTRACT: note_on channel=6 note=48 velocity=117 time=0.1076922
EXTRACT: note_on channel=6 note=72 velocity=113 time=0
EXTRACT: note_on channel=9 note=54 velocity=0 time=0
EXTRACT: note_on channel=9 note=54 velocity=39 time=0
EXTRACT: note_on channel=0 note=55 velocity=72 time=0.0076923
EXTRACT: note_on channel=0 note=52 velocity=66 time=0
EXTRACT: note_on channel=0 note=60 velocity=67 time=0
EXTRACT: note_on channel=1 note=33 velocity=0 time=0
EXTRACT: note_on channel=1 note=36 velocity=107 time=0
EXTRACT: note_on channel=3 note=64 velocity=88 time=0
EXTRACT: note_on channel=5 note=52 velocity=0 time=0
EXTRACT: note_on channel=6 note=69 velocity=0 time=0
EXTRACT: note_on channel=7 note=60 velocity=0 time=0
EXTRACT: note_on channel=8 note=64 velocity=0 time=0
EXTRACT: note_on channel=9 note=36 velocity=97 time=0
EXTRACT: note_on channel=9 note=42 velocity=99 time=0
EXTRACT: note_on channel=9 note=63 velocity=50 time=0
EXTRACT: note_on channel=3 note=72 velocity=78 time=0.01153845
EXTRACT: note_on channel=6 note=45 velocity=0 time=0.00384615
EXTRACT: note_on channel=3 note=67 velocity=104 time=0.0076923
EXTRACT: note_on channel=9 note=54 velocity=0 time=0.0846153
EXTRACT: note_on channel=9 note=54 velocity=7 time=0
EXTRACT: note_on channel=9 note=36 velocity=0 time=0.0076923
EXTRACT: note_on channel=9 note=42 velocity=0 time=0
EXTRACT: note_on channel=9 note=63 velocity=0 time=0
EXTRACT: note_on channel=6 note=72 velocity=0 time=0.04999995
EXTRACT: note_on channel=6 note=48 velocity=0 time=0.05769225
EXTRACT: note_on channel=9 note=54 velocity=0 time=0
EXTRACT: note_on channel=9 note=54 velocity=7 time=0
EXTRACT: note_on channel=1 note=36 velocity=0 time=0.0076923
EXTRACT: note_on channel=9 note=42 velocity=32 time=0
EXTRACT: note_on channel=9 note=62 velocity=56 time=0
EXTRACT: note_on channel=9 note=54 velocity=0 time=0.1076922
EXTRACT: note_on channel=9 note=54 velocity=7 time=0
EXTRACT: note_on channel=3 note=67 velocity=0 time=0.0076923
EXTRACT: note_on channel=3 note=72 velocity=0 time=0
EXTRACT: note_on channel=3 note=64 velocity=0 time=0
EXTRACT: note_on channel=9 note=42 velocity=0 time=0
EXTRACT: note_on channel=9 note=62 velocity=0 time=0
EXTRACT: note_on channel=9 note=54 velocity=0 time=0.1076922
EXTRACT: note_on channel=9 note=54 velocity=10 time=0
EXTRACT: note_on channel=1 note=36 velocity=110 time=0.0076923
EXTRACT: note_on channel=3 note=64 velocity=88 time=0
EXTRACT: note_on channel=5 note=64 velocity=117 time=0
EXTRACT: note_on channel=7 note=67 velocity=99 time=0
EXTRACT: note_on channel=8 note=72 velocity=99 time=0
EXTRACT: note_on channel=9 note=40 velocity=93 time=0
EXTRACT: note_on channel=9 note=42 velocity=99 time=0
EXTRACT: note_on channel=9 note=62 velocity=58 time=0
EXTRACT: note_on channel=9 note=39 velocity=93 time=0
EXTRACT: note_on channel=3 note=67 velocity=104 time=0.01153845
EXTRACT: note_on channel=3 note=72 velocity=94 time=0.01153845
EXTRACT: note_on channel=9 note=54 velocity=0 time=0.0846153
EXTRACT: note_on channel=9 note=54 velocity=13 time=0
EXTRACT: note_on channel=3 note=72 velocity=0 time=0.0076923
EXTRACT: note_on channel=3 note=67 velocity=0 time=0
EXTRACT: note_on channel=3 note=64 velocity=0 time=0
EXTRACT: note_on channel=9 note=40 velocity=0 time=0
EXTRACT: note_on channel=9 note=42 velocity=0 time=0
EXTRACT: note_on channel=9 note=62 velocity=0 time=0
EXTRACT: note_on channel=9 note=39 velocity=0 time=0
EXTRACT: note_on channel=9 note=54 velocity=0 time=0.1076922
EXTRACT: note_on channel=9 note=54 velocity=12 time=0
EXTRACT: note_on channel=1 note=36 velocity=0 time=0.0076923
EXTRACT: note_on channel=9 note=42 velocity=49 time=0
EXTRACT: note_on channel=9 note=64 velocity=70 time=0
EXTRACT: note_on channel=9 note=54 velocity=0 time=0.1076922
EXTRACT: note_on channel=9 note=54 velocity=13 time=0
EXTRACT: note_on channel=8 note=72 velocity=0 time=0.0076923
EXTRACT: note_on channel=9 note=42 velocity=0 time=0
EXTRACT: note_on channel=9 note=64 velocity=0 time=0
EXTRACT: note_on channel=9 note=54 velocity=0 time=0.1076922
EXTRACT: note_on channel=9 note=54 velocity=42 time=0
EXTRACT: note_on channel=1 note=36 velocity=104 time=0.0076923
EXTRACT: note_on channel=5 note=64 velocity=0 time=0
EXTRACT: note_on channel=5 note=60 velocity=107 time=0
EXTRACT: note_on channel=7 note=67 velocity=0 time=0
EXTRACT: note_on channel=7 note=64 velocity=99 time=0
EXTRACT: note_on channel=8 note=67 velocity=88 time=0
EXTRACT: note_on channel=9 note=36 velocity=88 time=0
EXTRACT: note_on channel=9 note=42 velocity=84 time=0
EXTRACT: note_on channel=9 note=54 velocity=0 time=0.1076922
EXTRACT: note_on channel=9 note=54 velocity=28 time=0
EXTRACT: note_on channel=9 note=36 velocity=0 time=0.0076923
EXTRACT: note_on channel=9 note=42 velocity=0 time=0
EXTRACT: note_on channel=9 note=54 velocity=0 time=0.1076922
EXTRACT: note_on channel=9 note=54 velocity=28 time=0
EXTRACT: note_on channel=1 note=36 velocity=0 time=0.0076923
EXTRACT: note_on channel=1 note=31 velocity=71 time=0
EXTRACT: note_on channel=3 note=72 velocity=86 time=0
EXTRACT: note_on channel=9 note=36 velocity=94 time=0
EXTRACT: note_on channel=9 note=42 velocity=53 time=0
EXTRACT: note_on channel=9 note=62 velocity=36 time=0
EXTRACT: note_on channel=3 note=64 velocity=86 time=0.01153845
EXTRACT: note_on channel=3 note=67 velocity=104 time=0.01153845
EXTRACT: note_on channel=9 note=54 velocity=0 time=0.0846153
EXTRACT: note_on channel=9 note=54 velocity=28 time=0
EXTRACT: note_on channel=3 note=67 velocity=0 time=0.0076923
EXTRACT: note_on channel=3 note=64 velocity=0 time=0
EXTRACT: note_on channel=3 note=72 velocity=0 time=0
EXTRACT: note_on channel=9 note=36 velocity=0 time=0
EXTRACT: note_on channel=9 note=42 velocity=0 time=0
EXTRACT: note_on channel=9 note=62 velocity=0 time=0
EXTRACT: note_on channel=9 note=54 velocity=0 time=0.1076922
EXTRACT: note_on channel=9 note=54 velocity=41 time=0
EXTRACT: note_on channel=0 note=55 velocity=0 time=0.0076923
EXTRACT: note_on channel=1 note=31 velocity=0 time=0
EXTRACT: note_on channel=1 note=33 velocity=83 time=0
EXTRACT: note_on channel=5 note=60 velocity=0 time=0
EXTRACT: note_on channel=7 note=64 velocity=0 time=0
EXTRACT: note_on channel=8 note=67 velocity=0 time=0
EXTRACT: note_on channel=9 note=40 velocity=93 time=0
EXTRACT: note_on channel=9 note=42 velocity=94 time=0
EXTRACT: note_on channel=9 note=62 velocity=52 time=0
EXTRACT: note_on channel=9 note=39 velocity=93 time=0
EXTRACT: note_on channel=9 note=54 velocity=0 time=0.1076922
EXTRACT: note_on channel=9 note=54 velocity=28 time=0
EXTRACT: note_on channel=0 note=60 velocity=0 time=0.0076923
EXTRACT: note_on channel=0 note=52 velocity=0 time=0
EXTRACT: note_on channel=9 note=40 velocity=0 time=0
EXTRACT: note_on channel=9 note=42 velocity=0 time=0
EXTRACT: note_on channel=9 note=62 velocity=0 time=0
EXTRACT: note_on channel=9 note=39 velocity=0 time=0
EXTRACT: note_on channel=9 note=54 velocity=0 time=0.1076922
EXTRACT: note_on channel=9 note=54 velocity=31 time=0
EXTRACT: note_on channel=0 note=53 velocity=78 time=0.0076923
EXTRACT: note_on channel=0 note=50 velocity=64 time=0
EXTRACT: note_on channel=0 note=58 velocity=68 time=0
EXTRACT: note_on channel=1 note=33 velocity=0 time=0
EXTRACT: note_on channel=1 note=34 velocity=104 time=0
EXTRACT: note_on channel=3 note=62 velocity=86 time=0
EXTRACT: note_on channel=5 note=58 velocity=114 time=0
EXTRACT: note_on channel=7 note=62 velocity=110 time=0
EXTRACT: note_on channel=8 note=65 velocity=101 time=0
EXTRACT: note_on channel=9 note=36 velocity=70 time=0
EXTRACT: note_on channel=9 note=42 velocity=38 time=0
EXTRACT: note_on channel=9 note=63 velocity=56 time=0
EXTRACT: note_on channel=3 note=65 velocity=94 time=0.01153845
EXTRACT: note_on channel=3 note=70 velocity=92 time=0.01153845
EXTRACT: note_on channel=9 note=54 velocity=0 time=0.0846153
EXTRACT: note_on channel=9 note=54 velocity=37 time=0
EXTRACT: note_on channel=9 note=36 velocity=0 time=0.0076923
EXTRACT: note_on channel=9 note=42 velocity=0 time=0
EXTRACT: note_on channel=9 note=63 velocity=0 time=0
EXTRACT: note_on channel=9 note=54 velocity=0 time=0.1076922
EXTRACT: note_on channel=9 note=54 velocity=41 time=0
EXTRACT: note_on channel=9 note=36 velocity=104 time=0.0076923
EXTRACT: note_on channel=9 note=42 velocity=94 time=0
EXTRACT: note_on channel=9 note=54 velocity=0 time=0.1076922
EXTRACT: note_on channel=9 note=54 velocity=10 time=0
EXTRACT: note_on channel=9 note=36 velocity=0 time=0.0076923
EXTRACT: note_on channel=9 note=42 velocity=0 time=0
EXTRACT: note_on channel=8 note=65 velocity=0 time=0.0384615
EXTRACT: note_on channel=9 note=54 velocity=0 time=0.0692307
EXTRACT: note_on channel=9 note=54 velocity=10 time=0
EXTRACT: note_on channel=1 note=34 velocity=0 time=0.0076923
EXTRACT: note_on channel=1 note=29 velocity=83 time=0
EXTRACT: note_on channel=5 note=58 velocity=0 time=0
EXTRACT: note_on channel=5 note=57 velocity=104 time=0
EXTRACT: note_on channel=7 note=62 velocity=0 time=0
EXTRACT: note_on channel=7 note=60 velocity=88 time=0
EXTRACT: note_on channel=8 note=65 velocity=88 time=0
EXTRACT: note_on channel=9 note=42 velocity=40 time=0
EXTRACT: note_on channel=9 note=62 velocity=46 time=0
EXTRACT: note_on channel=9 note=54 velocity=0 time=0.1076922
EXTRACT: note_on channel=9 note=54 velocity=11 time=0
EXTRACT: note_on channel=3 note=70 velocity=0 time=0.0076923
EXTRACT: note_on channel=3 note=65 velocity=0 time=0
EXTRACT: note_on channel=3 note=62 velocity=0 time=0
EXTRACT: note_on channel=9 note=42 velocity=0 time=0
EXTRACT: note_on channel=9 note=62 velocity=0 time=0
EXTRACT: note_on channel=8 note=65 velocity=0 time=0.0384615
EXTRACT: note_on channel=4 note=79 velocity=0 time=0.0461538
EXTRACT: note_on channel=4 note=72 velocity=99 time=0
EXTRACT: note_on channel=9 note=54 velocity=0 time=0.0230769
EXTRACT: note_on channel=9 note=54 velocity=11 time=0
EXTRACT: note_on channel=1 note=29 velocity=0 time=0.0076923
EXTRACT: note_on channel=1 note=31 velocity=68 time=0
EXTRACT: note_on channel=3 note=65 velocity=94 time=0
EXTRACT: note_on channel=5 note=57 velocity=0 time=0
EXTRACT: note_on channel=5 note=58 velocity=109 time=0
EXTRACT: note_on channel=7 note=60 velocity=0 time=0
EXTRACT: note_on channel=7 note=62 velocity=94 time=0
EXTRACT: note_on channel=8 note=65 velocity=90 time=0
EXTRACT: note_on channel=9 note=40 velocity=87 time=0
EXTRACT: note_on channel=9 note=42 velocity=94 time=0
EXTRACT: note_on channel=9 note=62 velocity=50 time=0
EXTRACT: note_on channel=9 note=39 velocity=87 time=0
EXTRACT: note_on channel=3 note=62 velocity=85 time=0.01153845
EXTRACT: note_on channel=3 note=70 velocity=104 time=0.01153845
EXTRACT: note_on channel=9 note=54 velocity=0 time=0.0846153
EXTRACT: note_on channel=9 note=54 velocity=11 time=0
EXTRACT: note_on channel=3 note=70 velocity=0 time=0.0076923
EXTRACT: note_on channel=3 note=62 velocity=0 time=0
EXTRACT: note_on channel=3 note=65 velocity=0 time=0
EXTRACT: note_on channel=9 note=40 velocity=0 time=0
EXTRACT: note_on channel=9 note=42 velocity=0 time=0
EXTRACT: note_on channel=9 note=62 velocity=0 time=0
EXTRACT: note_on channel=9 note=39 velocity=0 time=0
EXTRACT: note_on channel=9 note=54 velocity=0 time=0.1076922
EXTRACT: note_on channel=9 note=54 velocity=13 time=0
EXTRACT: note_on channel=1 note=31 velocity=0 time=0.0076923
EXTRACT: note_on channel=1 note=34 velocity=96 time=0
EXTRACT: note_on channel=5 note=58 velocity=0 time=0
EXTRACT: note_on channel=5 note=57 velocity=92 time=0
EXTRACT: note_on channel=7 note=62 velocity=0 time=0
EXTRACT: note_on channel=7 note=60 velocity=85 time=0
EXTRACT: note_on channel=8 note=65 velocity=0 time=0
EXTRACT: note_on channel=8 note=64 velocity=80 time=0
EXTRACT: note_on channel=9 note=42 velocity=34 time=0
EXTRACT: note_on channel=9 note=64 velocity=66 time=0
EXTRACT: note_on channel=9 note=54 velocity=0 time=0.1076922
EXTRACT: note_on channel=9 note=54 velocity=13 time=0
EXTRACT: note_on channel=9 note=42 velocity=0 time=0.0076923
EXTRACT: note_on channel=9 note=64 velocity=0 time=0
EXTRACT: note_on channel=4 note=76 velocity=80 time=0.08076915
EXTRACT: note_on channel=9 note=54 velocity=0 time=0.02692305
EXTRACT: note_on channel=9 note=54 velocity=38 time=0
EXTRACT: note_on channel=4 note=72 velocity=0 time=0.0076923
EXTRACT: note_on channel=5 note=57 velocity=0 time=0
EXTRACT: note_on channel=5 note=60 velocity=117 time=0
EXTRACT: note_on channel=7 note=60 velocity=0 time=0
EXTRACT: note_on channel=7 note=64 velocity=104 time=0
EXTRACT: note_on channel=8 note=64 velocity=0 time=0
EXTRACT: note_on channel=8 note=67 velocity=101 time=0
EXTRACT: note_on channel=9 note=36 velocity=86 time=0
EXTRACT: note_on channel=9 note=42 velocity=94 time=0
EXTRACT: note_on channel=9 note=54 velocity=0 time=0.1076922
EXTRACT: note_on channel=9 note=54 velocity=27 time=0
EXTRACT: note_on channel=9 note=36 velocity=0 time=0.0076923
EXTRACT: note_on channel=9 note=42 velocity=0 time=0
EXTRACT: note_on channel=9 note=54 velocity=0 time=0.1076922
EXTRACT: note_on channel=9 note=54 velocity=27 time=0
EXTRACT: note_on channel=1 note=34 velocity=0 time=0.0076923
EXTRACT: note_on channel=1 note=29 velocity=85 time=0
EXTRACT: note_on channel=3 note=62 velocity=90 time=0
EXTRACT: note_on channel=9 note=36 velocity=85 time=0
EXTRACT: note_on channel=9 note=42 velocity=31 time=0
EXTRACT: note_on channel=9 note=62 velocity=36 time=0
EXTRACT: note_on channel=3 note=65 velocity=101 time=0.01153845
EXTRACT: note_on channel=3 note=70 velocity=96 time=0.01153845
EXTRACT: note_on channel=9 note=54 velocity=0 time=0.0846153
EXTRACT: note_on channel=9 note=54 velocity=27 time=0
EXTRACT: note_on channel=3 note=70 velocity=0 time=0.0076923
EXTRACT: note_on channel=3 note=65 velocity=0 time=0
EXTRACT: note_on channel=3 note=62 velocity=0 time=0
EXTRACT: note_on channel=5 note=60 velocity=0 time=0
EXTRACT: note_on channel=7 note=64 velocity=0 time=0
EXTRACT: note_on channel=8 note=67 velocity=0 time=0
EXTRACT: note_on channel=9 note=36 velocity=0 time=0
EXTRACT: note_on channel=9 note=42 velocity=0 time=0
EXTRACT: note_on channel=9 note=62 velocity=0 time=0
EXTRACT: note_on channel=4 note=77 velocity=90 time=0.0923076
EXTRACT: note_on channel=9 note=54 velocity=0 time=0.0153846
EXTRACT: note_on channel=9 note=54 velocity=36 time=0
EXTRACT: note_on channel=1 note=29 velocity=0 time=0.0076923
EXTRACT: note_on channel=1 note=31 velocity=71 time=0
EXTRACT: note_on channel=5 note=53 velocity=74 time=0
EXTRACT: note_on channel=7 note=57 velocity=90 time=0
EXTRACT: note_on channel=8 note=60 velocity=88 time=0
EXTRACT: note_on channel=9 note=40 velocity=87 time=0
EXTRACT: note_on channel=9 note=42 velocity=99 time=0
EXTRACT: note_on channel=9 note=62 velocity=50 time=0
EXTRACT: note_on channel=9 note=39 velocity=87 time=0
EXTRACT: note_on channel=4 note=76 velocity=0 time=0.0153846
EXTRACT: note_on channel=9 note=54 velocity=0 time=0.0923076
EXTRACT: note_on channel=9 note=54 velocity=27 time=0
EXTRACT: note_on channel=9 note=40 velocity=0 time=0.0076923
EXTRACT: note_on channel=9 note=42 velocity=0 time=0
EXTRACT: note_on channel=9 note=62 velocity=0 time=0
EXTRACT: note_on channel=9 note=39 velocity=0 time=0
EXTRACT: note_on channel=9 note=54 velocity=0 time=0.1076922
EXTRACT: note_on channel=9 note=54 velocity=28 time=0
EXTRACT: note_on channel=0 note=58 velocity=0 time=0.0076923
EXTRACT: note_on channel=0 note=53 velocity=0 time=0
EXTRACT: note_on channel=1 note=31 velocity=0 time=0
EXTRACT: note_on channel=1 note=34 velocity=92 time=0
EXTRACT: note_on channel=5 note=53 velocity=0 time=0
EXTRACT: note_on channel=5 note=55 velocity=90 time=0
EXTRACT: note_on channel=7 note=57 velocity=0 time=0
EXTRACT: note_on channel=7 note=60 velocity=85 time=0
EXTRACT: note_on channel=8 note=60 velocity=0 time=0
EXTRACT: note_on channel=8 note=64 velocity=70 time=0
EXTRACT: note_on channel=9 note=36 velocity=71 time=0
EXTRACT: note_on channel=9 note=42 velocity=38 time=0
EXTRACT: note_on channel=9 note=63 velocity=58 time=0
EXTRACT: note_on channel=9 note=54 velocity=0 time=0.1076922
EXTRACT: note_on channel=9 note=54 velocity=38 time=0
EXTRACT: note_on channel=0 note=50 velocity=0 time=0.0076923
EXTRACT: note_on channel=9 note=36 velocity=0 time=0
EXTRACT: note_on channel=9 note=42 velocity=0 time=0
EXTRACT: note_on channel=9 note=63 velocity=0 time=0
EXTRACT: note_on channel=9 note=54 velocity=0 time=0.1076922
EXTRACT: note_on channel=9 note=54 velocity=39 time=0
EXTRACT: note_on channel=4 note=81 velocity=83 time=0.00384615
EXTRACT: note_on channel=0 note=52 velocity=62 time=0.00384615
EXTRACT: note_on channel=0 note=48 velocity=62 time=0
EXTRACT: note_on channel=0 note=57 velocity=67 time=0
EXTRACT: note_on channel=1 note=34 velocity=0 time=0
EXTRACT: note_on channel=1 note=33 velocity=85 time=0
EXTRACT: note_on channel=3 note=60 velocity=86 time=0
EXTRACT: note_on channel=4 note=77 velocity=0 time=0
EXTRACT: note_on channel=5 note=55 velocity=0 time=0
EXTRACT: note_on channel=5 note=57 velocity=88 time=0
EXTRACT: note_on channel=7 note=60 velocity=0 time=0
EXTRACT: note_on channel=7 note=62 velocity=83 time=0
EXTRACT: note_on channel=8 note=64 velocity=0 time=0
EXTRACT: note_on channel=8 note=65 velocity=80 time=0
EXTRACT: note_on channel=9 note=36 velocity=101 time=0
EXTRACT: note_on channel=9 note=42 velocity=99 time=0
EXTRACT: note_on channel=3 note=69 velocity=85 time=0.01153845
EXTRACT: note_on channel=3 note=64 velocity=101 time=0.01153845
EXTRACT: note_on channel=9 note=54 velocity=0 time=0.0846153
EXTRACT: note_on channel=9 note=54 velocity=7 time=0
EXTRACT: note_on channel=9 note=36 velocity=0 time=0.0076923
EXTRACT: note_on channel=9 note=42 velocity=0 time=0
EXTRACT: note_on channel=9 note=54 velocity=0 time=0.1076922
EXTRACT: note_on channel=9 note=54 velocity=7 time=0
EXTRACT: note_on channel=1 note=33 velocity=0 time=0.0076923
EXTRACT: note_on channel=5 note=57 velocity=0 time=0
EXTRACT: note_on channel=5 note=55 velocity=94 time=0
EXTRACT: note_on channel=7 note=62 velocity=0 time=0
EXTRACT: note_on channel=7 note=60 velocity=79 time=0
EXTRACT: note_on channel=8 note=65 velocity=0 time=0
EXTRACT: note_on channel=8 note=64 velocity=73 time=0
EXTRACT: note_on channel=9 note=42 velocity=27 time=0
EXTRACT: note_on channel=9 note=62 velocity=34 time=0
EXTRACT: note_on channel=9 note=54 velocity=0 time=0.1076922
EXTRACT: note_on channel=9 note=54 velocity=7 time=0
EXTRACT: note_on channel=3 note=69 velocity=0 time=0.0076923
EXTRACT: note_on channel=9 note=42 velocity=0 time=0
EXTRACT: note_on channel=9 note=62 velocity=0 time=0
EXTRACT: note_on channel=9 note=54 velocity=0 time=0.1076922
EXTRACT: note_on channel=9 note=54 velocity=10 time=0
EXTRACT: note_on channel=1 note=33 velocity=90 time=0.0076923
EXTRACT: note_on channel=3 note=64 velocity=0 time=0
EXTRACT: note_on channel=3 note=60 velocity=0 time=0
EXTRACT: note_on channel=3 note=60 velocity=83 time=0
EXTRACT: note_on channel=5 note=55 velocity=0 time=0
EXTRACT: note_on channel=5 note=57 velocity=94 time=0
EXTRACT: note_on channel=7 note=60 velocity=0 time=0
EXTRACT: note_on channel=7 note=62 velocity=90 time=0
EXTRACT: note_on channel=8 note=64 velocity=0 time=0
EXTRACT: note_on channel=8 note=65 velocity=86 time=0
EXTRACT: note_on channel=9 note=40 velocity=93 time=0
EXTRACT: note_on channel=9 note=42 velocity=94 time=0
EXTRACT: note_on channel=9 note=62 velocity=46 time=0
EXTRACT: note_on channel=9 note=39 velocity=93 time=0
EXTRACT: note_on channel=3 note=69 velocity=85 time=0.01153845
EXTRACT: note_on channel=3 note=64 velocity=99 time=0.01153845
EXTRACT: note_on channel=9 note=54 velocity=0 time=0.0846153
EXTRACT: note_on channel=9 note=54 velocity=13 time=0
EXTRACT: note_on channel=3 note=64 velocity=0 time=0.0076923
EXTRACT: note_on channel=3 note=69 velocity=0 time=0
EXTRACT: note_on channel=3 note=60 velocity=0 time=0
EXTRACT: note_on channel=9 note=40 velocity=0 time=0
EXTRACT: note_on channel=9 note=42 velocity=0 time=0
EXTRACT: note_on channel=9 note=62 velocity=0 time=0
EXTRACT: note_on channel=9 note=39 velocity=0 time=0
EXTRACT: note_on channel=9 note=54 velocity=0 time=0.1076922
EXTRACT: note_on channel=9 note=54 velocity=12 time=0
EXTRACT: note_on channel=1 note=33 velocity=0 time=0.0076923
EXTRACT: note_on channel=5 note=57 velocity=0 time=0
EXTRACT: note_on channel=9 note=42 velocity=23 time=0
EXTRACT: note_on channel=9 note=64 velocity=66 time=0
EXTRACT: note_on channel=9 note=54 velocity=0 time=0.1076922
EXTRACT: note_on channel=9 note=54 velocity=13 time=0
EXTRACT: note_on channel=7 note=62 velocity=0 time=0.0076923
EXTRACT: note_on channel=8 note=65 velocity=0 time=0
EXTRACT: note_on channel=9 note=42 velocity=0 time=0
EXTRACT: note_on channel=9 note=64 velocity=0 time=0
EXTRACT: note_on channel=9 note=54 velocity=0 time=0.1076922
EXTRACT: note_on channel=9 note=54 velocity=42 time=0
EXTRACT: note_on channel=1 note=33 velocity=99 time=0.0076923
EXTRACT: note_on channel=5 note=57 velocity=113 time=0
EXTRACT: note_on channel=7 note=62 velocity=101 time=0
EXTRACT: note_on channel=8 note=65 velocity=97 time=0
EXTRACT: note_on channel=9 note=36 velocity=85 time=0
EXTRACT: note_on channel=9 note=42 velocity=99 time=0
EXTRACT: note_on channel=9 note=54 velocity=0 time=0.1076922
EXTRACT: note_on channel=9 note=54 velocity=28 time=0
EXTRACT: note_on channel=9 note=36 velocity=0 time=0.0076923
EXTRACT: note_on channel=9 note=42 velocity=0 time=0
EXTRACT: note_on channel=9 note=54 velocity=0 time=0.1076922
EXTRACT: note_on channel=9 note=54 velocity=28 time=0
EXTRACT: note_on channel=1 note=33 velocity=0 time=0.0076923
EXTRACT: note_on channel=1 note=29 velocity=76 time=0
EXTRACT: note_on channel=3 note=69 velocity=94 time=0
EXTRACT: note_on channel=5 note=57 velocity=0 time=0
EXTRACT: note_on channel=5 note=55 velocity=101 time=0
EXTRACT: note_on channel=7 note=62 velocity=0 time=0
EXTRACT: note_on channel=7 note=60 velocity=92 time=0
EXTRACT: note_on channel=8 note=65 velocity=0 time=0
EXTRACT: note_on channel=8 note=64 velocity=74 time=0
EXTRACT: note_on channel=9 note=36 velocity=83 time=0
EXTRACT: note_on channel=9 note=42 velocity=53 time=0
EXTRACT: note_on channel=9 note=62 velocity=37 time=0
EXTRACT: note_on channel=3 note=60 velocity=92 time=0.01153845
EXTRACT: note_on channel=3 note=64 velocity=104 time=0.01153845
EXTRACT: note_on channel=9 note=54 velocity=0 time=0.0846153
EXTRACT: note_on channel=9 note=54 velocity=28 time=0
EXTRACT: note_on channel=3 note=64 velocity=0 time=0.0076923
EXTRACT: note_on channel=3 note=60 velocity=0 time=0
EXTRACT: note_on channel=3 note=69 velocity=0 time=0
EXTRACT: note_on channel=9 note=36 velocity=0 time=0
EXTRACT: note_on channel=9 note=42 velocity=0 time=0
EXTRACT: note_on channel=9 note=62 velocity=0 time=0
EXTRACT: note_on channel=9 note=54 velocity=0 time=0.1076922
EXTRACT: note_on channel=9 note=54 velocity=41 time=0
EXTRACT: note_on channel=0 note=57 velocity=0 time=0.0076923
EXTRACT: note_on channel=1 note=29 velocity=0 time=0
EXTRACT: note_on channel=1 note=33 velocity=101 time=0
EXTRACT: note_on channel=5 note=55 velocity=0 time=0
EXTRACT: note_on channel=5 note=57 velocity=90 time=0
EXTRACT: note_on channel=7 note=60 velocity=0 time=0
EXTRACT: note_on channel=7 note=62 velocity=90 time=0
EXTRACT: note_on channel=8 note=64 velocity=0 time=0
EXTRACT: note_on channel=8 note=65 velocity=83 time=0
EXTRACT: note_on channel=9 note=40 velocity=100 time=0
EXTRACT: note_on channel=9 note=42 velocity=99 time=0
EXTRACT: note_on channel=9 note=62 velocity=43 time=0
EXTRACT: note_on channel=9 note=39 velocity=100 time=0
EXTRACT: note_on channel=9 note=54 velocity=0 time=0.1076922
EXTRACT: note_on channel=9 note=54 velocity=28 time=0
EXTRACT: note_on channel=0 note=48 velocity=0 time=0.0076923
EXTRACT: note_on channel=0 note=52 velocity=0 time=0
EXTRACT: note_on channel=5 note=57 velocity=0 time=0
EXTRACT: note_on channel=9 note=40 velocity=0 time=0
EXTRACT: note_on channel=9 note=42 velocity=0 time=0
EXTRACT: note_on channel=9 note=62 velocity=0 time=0
EXTRACT: note_on channel=9 note=39 velocity=0 time=0
EXTRACT: note_on channel=4 note=79 velocity=82 time=0.07307685
EXTRACT: note_on channel=4 note=81 velocity=0 time=0.0307692
EXTRACT: note_on channel=9 note=54 velocity=0 time=0.00384615
EXTRACT: note_on channel=9 note=54 velocity=31 time=0
EXTRACT: note_on channel=0 note=50 velocity=72 time=0.0076923
EXTRACT: note_on channel=0 note=47 velocity=69 time=0
EXTRACT: note_on channel=0 note=55 velocity=68 time=0
EXTRACT: note_on channel=1 note=33 velocity=0 time=0
EXTRACT: note_on channel=1 note=31 velocity=86 time=0
EXTRACT: note_on channel=3 note=67 velocity=92 time=0
EXTRACT: note_on channel=5 note=53 velocity=99 time=0
EXTRACT: note_on channel=7 note=62 velocity=0 time=0
EXTRACT: note_on channel=7 note=60 velocity=92 time=0
EXTRACT: note_on channel=8 note=65 velocity=0 time=0
EXTRACT: note_on channel=8 note=64 velocity=80 time=0
EXTRACT: note_on channel=9 note=36 velocity=71 time=0
EXTRACT: note_on channel=9 note=42 velocity=31 time=0
EXTRACT: note_on channel=9 note=63 velocity=58 time=0
EXTRACT: note_on channel=3 note=59 velocity=92 time=0.01153845
EXTRACT: note_on channel=3 note=62 velocity=107 time=0.01153845
EXTRACT: note_on channel=9 note=54 velocity=0 time=0.0846153
EXTRACT: note_on channel=9 note=54 velocity=37 time=0
EXTRACT: note_on channel=9 note=36 velocity=0 time=0.0076923
EXTRACT: note_on channel=9 note=42 velocity=0 time=0
EXTRACT: note_on channel=9 note=63 velocity=0 time=0
EXTRACT: note_on channel=9 note=54 velocity=0 time=0.1076922
EXTRACT: note_on channel=9 note=54 velocity=41 time=0
EXTRACT: note_on channel=5 note=53 velocity=0 time=0.0076923
EXTRACT: note_on channel=5 note=55 velocity=99 time=0
EXTRACT: note_on channel=7 note=60 velocity=0 time=0
EXTRACT: note_on channel=7 note=62 velocity=90 time=0
EXTRACT: note_on channel=8 note=64 velocity=0 time=0
EXTRACT: note_on channel=8 note=65 velocity=82 time=0
EXTRACT: note_on channel=9 note=36 velocity=101 time=0
EXTRACT: note_on channel=9 note=42 velocity=99 time=0
EXTRACT: note_on channel=9 note=54 velocity=0 time=0.1076922
EXTRACT: note_on channel=9 note=54 velocity=10 time=0
EXTRACT: note_on channel=1 note=31 velocity=0 time=0.0076923
EXTRACT: note_on channel=9 note=36 velocity=0 time=0
EXTRACT: note_on channel=9 note=42 velocity=0 time=0
EXTRACT: note_on channel=9 note=54 velocity=0 time=0.1076922
EXTRACT: note_on channel=9 note=54 velocity=10 time=0
EXTRACT: note_on channel=1 note=31 velocity=94 time=0.0076923
EXTRACT: note_on channel=5 note=55 velocity=0 time=0
EXTRACT: note_on channel=8 note=65 velocity=0 time=0
EXTRACT: note_on channel=9 note=42 velocity=42 time=0
EXTRACT: note_on channel=9 note=62 velocity=38 time=0
EXTRACT: note_on channel=9 note=54 velocity=0 time=0.1076922
EXTRACT: note_on channel=9 note=54 velocity=11 time=0
EXTRACT: note_on channel=3 note=62 velocity=0 time=0.0076923
EXTRACT: note_on channel=3 note=59 velocity=0 time=0
EXTRACT: note_on channel=3 note=67 velocity=0 time=0
EXTRACT: note_on channel=7 note=62 velocity=0 time=0
EXTRACT: note_on channel=9 note=42 velocity=0 time=0
EXTRACT: note_on channel=9 note=62 velocity=0 time=0
EXTRACT: note_on channel=9 note=54 velocity=0 time=0.1076922
EXTRACT: note_on channel=9 note=54 velocity=11 time=0
EXTRACT: note_on channel=1 note=31 velocity=0 time=0.0076923
EXTRACT: note_on channel=3 note=67 velocity=82 time=0
EXTRACT: note_on channel=5 note=55 velocity=117 time=0
EXTRACT: note_on channel=7 note=62 velocity=107 time=0
EXTRACT: note_on channel=8 note=65 velocity=92 time=0
EXTRACT: note_on channel=9 note=40 velocity=93 time=0
EXTRACT: note_on channel=9 note=42 velocity=99 time=0
EXTRACT: note_on channel=9 note=62 velocity=49 time=0
EXTRACT: note_on channel=9 note=39 velocity=93 time=0
EXTRACT: note_on channel=3 note=59 velocity=85 time=0.01153845
EXTRACT: note_on channel=6 note=64 velocity=107 time=0
EXTRACT: note_on channel=6 note=76 velocity=104 time=0
EXTRACT: note_on channel=3 note=62 velocity=101 time=0.01153845
EXTRACT: note_on channel=9 note=54 velocity=0 time=0.0846153
EXTRACT: note_on channel=9 note=54 velocity=11 time=0
EXTRACT: note_on channel=3 note=62 velocity=0 time=0.0076923
EXTRACT: note_on channel=3 note=59 velocity=0 time=0
EXTRACT: note_on channel=3 note=67 velocity=0 time=0
EXTRACT: note_on channel=9 note=40 velocity=0 time=0
EXTRACT: note_on channel=9 note=42 velocity=0 time=0
EXTRACT: note_on channel=9 note=62 velocity=0 time=0
EXTRACT: note_on channel=9 note=39 velocity=0 time=0
EXTRACT: note_on channel=9 note=54 velocity=0 time=0.1076922
EXTRACT: note_on channel=9 note=54 velocity=13 time=0
EXTRACT: note_on channel=1 note=31 velocity=99 time=0.0076923
EXTRACT: note_on channel=6 note=76 velocity=0 time=0
EXTRACT: note_on channel=9 note=42 velocity=46 time=0
EXTRACT: note_on channel=9 note=64 velocity=70 time=0
EXTRACT: note_on channel=6 note=64 velocity=0 time=0.0461538
EXTRACT: note_on channel=9 note=54 velocity=0 time=0.0615384
EXTRACT: note_on channel=9 note=54 velocity=13 time=0
EXTRACT: note_on channel=5 note=55 velocity=0 time=0.0076923
EXTRACT: note_on channel=7 note=62 velocity=0 time=0
EXTRACT: note_on channel=8 note=65 velocity=0 time=0
EXTRACT: note_on channel=9 note=42 velocity=0 time=0
EXTRACT: note_on channel=9 note=64 velocity=0 time=0
EXTRACT: note_on channel=9 note=54 velocity=0 time=0.1076922
EXTRACT: note_on channel=9 note=54 velocity=38 time=0
EXTRACT: note_on channel=5 note=55 velocity=120 time=0.0076923
EXTRACT: note_on channel=6 note=74 velocity=107 time=0
EXTRACT: note_on channel=7 note=64 velocity=110 time=0
EXTRACT: note_on channel=8 note=67 velocity=99 time=0
EXTRACT: note_on channel=9 note=36 velocity=94 time=0
EXTRACT: note_on channel=9 note=42 velocity=94 time=0
EXTRACT: note_on channel=6 note=62 velocity=113 time=0.01923075
EXTRACT: note_on channel=9 note=54 velocity=0 time=0.08846145
EXTRACT: note_on channel=9 note=54 velocity=27 time=0
EXTRACT: note_on channel=9 note=36 velocity=0 time=0.0076923
EXTRACT: note_on channel=9 note=42 velocity=0 time=0
EXTRACT: note_on channel=6 note=72 velocity=85 time=0.0923076
EXTRACT: note_on channel=9 note=54 velocity=0 time=0.0153846
EXTRACT: note_on channel=9 note=54 velocity=27 time=0
EXTRACT: note_on channel=1 note=31 velocity=0 time=0.0076923
EXTRACT: note_on channel=1 note=33 velocity=85 time=0
EXTRACT: note_on channel=3 note=67 velocity=94 time=0
EXTRACT: note_on channel=6 note=60 velocity=104 time=0
EXTRACT: note_on channel=9 note=36 velocity=88 time=0
EXTRACT: note_on channel=9 note=42 velocity=46 time=0
EXTRACT: note_on channel=9 note=62 velocity=48 time=0
EXTRACT: note_on channel=3 note=59 velocity=94 time=0.01153845
EXTRACT: note_on channel=3 note=62 velocity=110 time=0.01153845
EXTRACT: note_on channel=6 note=74 velocity=0 time=0.03461535
EXTRACT: note_on channel=9 note=42 velocity=0 time=0
EXTRACT: note_on channel=6 note=62 velocity=0 time=0.04999995
EXTRACT: note_on channel=9 note=54 velocity=0 time=0
EXTRACT: note_on channel=9 note=54 velocity=27 time=0
EXTRACT: note_on channel=3 note=62 velocity=0 time=0.0076923
EXTRACT: note_on channel=3 note=59 velocity=0 time=0
EXTRACT: note_on channel=3 note=67 velocity=0 time=0
EXTRACT: note_on channel=9 note=36 velocity=0 time=0
EXTRACT: note_on channel=9 note=62 velocity=0 time=0
EXTRACT: note_on channel=6 note=60 velocity=0 time=0.0846153
EXTRACT: note_on channel=6 note=69 velocity=97 time=0.00384615
EXTRACT: note_on channel=6 note=72 velocity=0 time=0.0153846
EXTRACT: note_on channel=6 note=57 velocity=110 time=0
EXTRACT: note_on channel=9 note=54 velocity=0 time=0.00384615
EXTRACT: note_on channel=9 note=54 velocity=36 time=0
EXTRACT: note_on channel=1 note=33 velocity=0 time=0.0076923
EXTRACT: note_on channel=1 note=36 velocity=74 time=0
EXTRACT: note_on channel=5 note=55 velocity=0 time=0
EXTRACT: note_on channel=5 note=53 velocity=104 time=0
EXTRACT: note_on channel=7 note=64 velocity=0 time=0
EXTRACT: note_on channel=7 note=62 velocity=90 time=0
EXTRACT: note_on channel=8 note=67 velocity=0 time=0
EXTRACT: note_on channel=8 note=65 velocity=83 time=0
EXTRACT: note_on channel=9 note=40 velocity=93 time=0
EXTRACT: note_on channel=9 note=42 velocity=89 time=0
EXTRACT: note_on channel=9 note=62 velocity=52 time=0
EXTRACT: note_on channel=9 note=39 velocity=93 time=0
EXTRACT: note_on channel=9 note=54 velocity=0 time=0.1076922
EXTRACT: note_on channel=9 note=54 velocity=27 time=0
EXTRACT: note_on channel=9 note=40 velocity=0 time=0.0076923
EXTRACT: note_on channel=9 note=42 velocity=0 time=0
EXTRACT: note_on channel=9 note=62 velocity=0 time=0
EXTRACT: note_on channel=9 note=39 velocity=0 time=0
EXTRACT: note_on channel=6 note=69 velocity=0 time=0.09615375
EXTRACT: note_on channel=6 note=57 velocity=0 time=0.00384615
EXTRACT: note_on channel=6 note=67 velocity=107 time=0.00384615
EXTRACT: note_on channel=9 note=54 velocity=0 time=0.00384615
EXTRACT: note_on channel=9 note=54 velocity=28 time=0
EXTRACT: note_on channel=0 note=47 velocity=0 time=0.0076923
EXTRACT: note_on channel=1 note=36 velocity=0 time=0
EXTRACT: note_on channel=1 note=33 velocity=72 time=0
EXTRACT: note_on channel=5 note=53 velocity=0 time=0
EXTRACT: note_on channel=5 note=52 velocity=92 time=0
EXTRACT: note_on channel=7 note=62 velocity=0 time=0
EXTRACT: note_on channel=7 note=60 velocity=97 time=0
EXTRACT: note_on channel=8 note=65 velocity=0 time=0
EXTRACT: note_on channel=8 note=64 velocity=86 time=0
EXTRACT: note_on channel=9 note=36 velocity=71 time=0
EXTRACT: note_on channel=9 note=42 velocity=51 time=0
EXTRACT: note_on channel=9 note=63 velocity=67 time=0
EXTRACT: note_on channel=6 note=55 velocity=107 time=0.0076923
EXTRACT: note_on channel=9 note=54 velocity=0 time=0.0999999
EXTRACT: note_on channel=9 note=54 velocity=38 time=0
EXTRACT: note_on channel=0 note=55 velocity=0 time=0.0076923
EXTRACT: note_on channel=0 note=50 velocity=0 time=0
EXTRACT: note_on channel=9 note=36 velocity=0 time=0
EXTRACT: note_on channel=9 note=42 velocity=0 time=0
EXTRACT: note_on channel=9 note=63 velocity=0 time=0
EXTRACT: note_on channel=6 note=55 velocity=0 time=0.07307685
EXTRACT: note_on channel=9 note=54 velocity=0 time=0.03461535
EXTRACT: note_on channel=9 note=54 velocity=39 time=0
EXTRACT: note_on channel=1 note=33 velocity=0 time=0.0076923
EXTRACT: note_on channel=1 note=36 velocity=78 time=0
EXTRACT: note_on channel=5 note=52 velocity=0 time=0
EXTRACT: note_on channel=7 note=60 velocity=0 time=0
EXTRACT: note_on channel=8 note=64 velocity=0 time=0
EXTRACT: note_on channel=9 note=36 velocity=97 time=0
EXTRACT: note_on channel=9 note=42 velocity=99 time=0
EXTRACT: note_on channel=9 note=49 velocity=84 time=0
EXTRACT: note_on channel=9 note=63 velocity=50 time=0
EXTRACT: note_on channel=4 note=79 velocity=0 time=0.0076923
EXTRACT: note_on channel=6 note=67 velocity=0 time=0
EXTRACT: note_on channel=9 note=54 velocity=0 time=0.0999999
EXTRACT: note_on channel=9 note=54 velocity=26 time=0
EXTRACT: note_on channel=9 note=36 velocity=0 time=0.0076923
EXTRACT: note_on channel=9 note=42 velocity=0 time=0
EXTRACT: note_on channel=9 note=49 velocity=0 time=0
EXTRACT: note_on channel=9 note=63 velocity=0 time=0
EXTRACT: note_on channel=9 note=54 velocity=0 time=0.1076922
EXTRACT: note_on channel=9 note=54 velocity=26 time=0
EXTRACT: note_on channel=9 note=42 velocity=32 time=0.0076923
EXTRACT: note_on channel=9 note=62 velocity=56 time=0
EXTRACT: note_on channel=9 note=54 velocity=0 time=0.1076922
EXTRACT: note_on channel=9 note=54 velocity=27 time=0
EXTRACT: note_on channel=1 note=36 velocity=0 time=0.0076923
EXTRACT: note_on channel=9 note=42 velocity=0 time=0
EXTRACT: note_on channel=9 note=62 velocity=0 time=0
EXTRACT: note_on channel=9 note=54 velocity=0 time=0.1076922
EXTRACT: note_on channel=9 note=54 velocity=43 time=0
EXTRACT: note_on channel=1 note=36 velocity=88 time=0.0076923
EXTRACT: note_on channel=9 note=40 velocity=93 time=0
EXTRACT: note_on channel=9 note=42 velocity=99 time=0
EXTRACT: note_on channel=9 note=62 velocity=58 time=0
EXTRACT: note_on channel=9 note=54 velocity=0 time=0.1076922
EXTRACT: note_on channel=9 note=54 velocity=27 time=0
EXTRACT: note_on channel=9 note=40 velocity=0 time=0.0076923
EXTRACT: note_on channel=9 note=42 velocity=0 time=0
EXTRACT: note_on channel=9 note=62 velocity=0 time=0
EXTRACT: note_on channel=9 note=54 velocity=0 time=0.1076922
EXTRACT: note_on channel=9 note=54 velocity=27 time=0
EXTRACT: note_on channel=1 note=36 velocity=0 time=0.0076923
EXTRACT: note_on channel=9 note=42 velocity=49 time=0
EXTRACT: note_on channel=9 note=64 velocity=70 time=0
EXTRACT: note_on channel=9 note=54 velocity=0 time=0.1076922
EXTRACT: note_on channel=9 note=54 velocity=27 time=0
EXTRACT: note_on channel=9 note=42 velocity=0 time=0.0076923
EXTRACT: note_on channel=9 note=64 velocity=0 time=0
EXTRACT: note_on channel=9 note=54 velocity=0 time=0.1076922
EXTRACT: note_on channel=9 note=54 velocity=42 time=0
EXTRACT: note_on channel=1 note=36 velocity=88 time=0.0076923
EXTRACT: note_on channel=9 note=36 velocity=88 time=0
EXTRACT: note_on channel=9 note=42 velocity=84 time=0
EXTRACT: note_on channel=9 note=54 velocity=0 time=0.1076922
EXTRACT: note_on channel=9 note=54 velocity=28 time=0
EXTRACT: note_on channel=9 note=36 velocity=0 time=0.0076923
EXTRACT: note_on channel=9 note=42 velocity=0 time=0
EXTRACT: note_on channel=9 note=54 velocity=0 time=0.1076922
EXTRACT: note_on channel=9 note=54 velocity=28 time=0
EXTRACT: note_on channel=1 note=36 velocity=0 time=0.0076923
EXTRACT: note_on channel=1 note=33 velocity=85 time=0
EXTRACT: note_on channel=9 note=36 velocity=94 time=0
EXTRACT: note_on channel=9 note=42 velocity=53 time=0
EXTRACT: note_on channel=9 note=62 velocity=36 time=0
EXTRACT: note_on channel=9 note=54 velocity=0 time=0.1076922
EXTRACT: note_on channel=9 note=54 velocity=28 time=0
EXTRACT: note_on channel=9 note=36 velocity=0 time=0.0076923
EXTRACT: note_on channel=9 note=42 velocity=0 time=0
EXTRACT: note_on channel=9 note=62 velocity=0 time=0
EXTRACT: note_on channel=9 note=54 velocity=0 time=0.1076922
EXTRACT: note_on channel=9 note=54 velocity=41 time=0
EXTRACT: note_on channel=1 note=33 velocity=0 time=0.0076923
EXTRACT: note_on channel=1 note=31 velocity=72 time=0
EXTRACT: note_on channel=9 note=40 velocity=93 time=0
EXTRACT: note_on channel=9 note=42 velocity=94 time=0
EXTRACT: note_on channel=9 note=62 velocity=52 time=0
EXTRACT: note_on channel=9 note=54 velocity=0 time=0.1076922
EXTRACT: note_on channel=9 note=54 velocity=28 time=0
EXTRACT: note_on channel=9 note=40 velocity=0 time=0.0076923
EXTRACT: note_on channel=9 note=42 velocity=0 time=0
EXTRACT: note_on channel=9 note=62 velocity=0 time=0
EXTRACT: note_on channel=9 note=54 velocity=0 time=0.1076922
EXTRACT: note_on channel=9 note=54 velocity=31 time=0
EXTRACT: note_on channel=1 note=31 velocity=0 time=0.0076923
EXTRACT: note_on channel=1 note=36 velocity=78 time=0
EXTRACT: note_on channel=9 note=36 velocity=70 time=0
EXTRACT: note_on channel=9 note=42 velocity=38 time=0
EXTRACT: note_on channel=9 note=63 velocity=56 time=0
EXTRACT: note_on channel=9 note=54 velocity=0 time=0.1076922
EXTRACT: note_on channel=9 note=54 velocity=37 time=0
EXTRACT: note_on channel=9 note=36 velocity=0 time=0.0076923
EXTRACT: note_on channel=9 note=42 velocity=0 time=0
EXTRACT: note_on channel=9 note=63 velocity=0 time=0
EXTRACT: note_on channel=9 note=54 velocity=0 time=0.1076922
EXTRACT: note_on channel=9 note=54 velocity=41 time=0
EXTRACT: note_on channel=9 note=36 velocity=104 time=0.0076923
EXTRACT: note_on channel=9 note=42 velocity=94 time=0
EXTRACT: note_on channel=9 note=54 velocity=0 time=0.1076922
EXTRACT: note_on channel=9 note=54 velocity=26 time=0
EXTRACT: note_on channel=1 note=36 velocity=0 time=0.0076923
EXTRACT: note_on channel=9 note=36 velocity=0 time=0
EXTRACT: note_on channel=9 note=42 velocity=0 time=0
EXTRACT: note_on channel=9 note=54 velocity=0 time=0.1076922
EXTRACT: note_on channel=9 note=54 velocity=27 time=0
EXTRACT: note_on channel=1 note=36 velocity=88 time=0.0076923
EXTRACT: note_on channel=9 note=42 velocity=40 time=0
EXTRACT: note_on channel=9 note=62 velocity=46 time=0
EXTRACT: note_on channel=9 note=54 velocity=0 time=0.1076922
EXTRACT: note_on channel=9 note=54 velocity=30 time=0
EXTRACT: note_on channel=9 note=42 velocity=0 time=0.0076923
EXTRACT: note_on channel=9 note=62 velocity=0 time=0
EXTRACT: note_on channel=9 note=54 velocity=0 time=0.1076922
EXTRACT: note_on channel=9 note=54 velocity=46 time=0
EXTRACT: note_on channel=1 note=36 velocity=0 time=0.0076923
EXTRACT: note_on channel=9 note=40 velocity=87 time=0
EXTRACT: note_on channel=9 note=42 velocity=94 time=0
EXTRACT: note_on channel=9 note=62 velocity=50 time=0
EXTRACT: note_on channel=9 note=54 velocity=0 time=0.1076922
EXTRACT: note_on channel=9 note=54 velocity=26 time=0
EXTRACT: note_on channel=9 note=40 velocity=0 time=0.0076923
EXTRACT: note_on channel=9 note=42 velocity=0 time=0
EXTRACT: note_on channel=9 note=62 velocity=0 time=0
EXTRACT: note_on channel=9 note=54 velocity=0 time=0.1076922
EXTRACT: note_on channel=9 note=54 velocity=28 time=0
EXTRACT: note_on channel=1 note=36 velocity=88 time=0.0076923
EXTRACT: note_on channel=9 note=42 velocity=34 time=0
EXTRACT: note_on channel=9 note=64 velocity=66 time=0
EXTRACT: note_on channel=9 note=54 velocity=0 time=0.1076922
EXTRACT: note_on channel=9 note=54 velocity=29 time=0
EXTRACT: note_on channel=9 note=42 velocity=0 time=0.0076923
EXTRACT: note_on channel=9 note=64 velocity=0 time=0
EXTRACT: note_on channel=9 note=54 velocity=0 time=0.1076922
EXTRACT: note_on channel=9 note=54 velocity=47 time=0
EXTRACT: note_on channel=9 note=36 velocity=86 time=0.0076923
EXTRACT: note_on channel=9 note=42 velocity=94 time=0
EXTRACT: note_on channel=9 note=54 velocity=0 time=0.1076922
EXTRACT: note_on channel=9 note=54 velocity=27 time=0
EXTRACT: note_on channel=9 note=36 velocity=0 time=0.0076923
EXTRACT: note_on channel=9 note=42 velocity=0 time=0
EXTRACT: note_on channel=9 note=54 velocity=0 time=0.1076922
EXTRACT: note_on channel=9 note=54 velocity=27 time=0
EXTRACT: note_on channel=1 note=36 velocity=0 time=0.0076923
EXTRACT: note_on channel=1 note=31 velocity=88 time=0
EXTRACT: note_on channel=9 note=36 velocity=85 time=0
EXTRACT: note_on channel=9 note=42 velocity=31 time=0
EXTRACT: note_on channel=9 note=62 velocity=36 time=0
EXTRACT: note_on channel=9 note=54 velocity=0 time=0.1076922
EXTRACT: note_on channel=9 note=54 velocity=27 time=0
EXTRACT: note_on channel=9 note=36 velocity=0 time=0.0076923
EXTRACT: note_on channel=9 note=42 velocity=0 time=0
EXTRACT: note_on channel=9 note=62 velocity=0 time=0
EXTRACT: note_on channel=9 note=54 velocity=0 time=0.1076922
EXTRACT: note_on channel=9 note=54 velocity=36 time=0
EXTRACT: note_on channel=1 note=31 velocity=0 time=0.0076923
EXTRACT: note_on channel=1 note=33 velocity=99 time=0
EXTRACT: note_on channel=9 note=40 velocity=87 time=0
EXTRACT: note_on channel=9 note=42 velocity=99 time=0
EXTRACT: note_on channel=9 note=62 velocity=50 time=0
EXTRACT: note_on channel=9 note=54 velocity=0 time=0.1076922
EXTRACT: note_on channel=9 note=54 velocity=27 time=0
EXTRACT: note_on channel=9 note=40 velocity=0 time=0.0076923
EXTRACT: note_on channel=9 note=42 velocity=0 time=0
EXTRACT: note_on channel=9 note=62 velocity=0 time=0
EXTRACT: note_on channel=9 note=54 velocity=0 time=0.1076922
EXTRACT: note_on channel=9 note=54 velocity=28 time=0
EXTRACT: note_on channel=9 note=36 velocity=71 time=0.0076923
EXTRACT: note_on channel=9 note=42 velocity=38 time=0
EXTRACT: note_on channel=9 note=63 velocity=58 time=0
EXTRACT: note_on channel=9 note=54 velocity=0 time=0.1076922
EXTRACT: note_on channel=9 note=54 velocity=38 time=0
EXTRACT: note_on channel=9 note=36 velocity=0 time=0.0076923
EXTRACT: note_on channel=9 note=42 velocity=0 time=0
EXTRACT: note_on channel=9 note=63 velocity=0 time=0
EXTRACT: note_on channel=9 note=54 velocity=0 time=0.1076922
EXTRACT: note_on channel=9 note=54 velocity=39 time=0
EXTRACT: note_on channel=1 note=33 velocity=0 time=0.0076923
EXTRACT: note_on channel=1 note=36 velocity=83 time=0
EXTRACT: note_on channel=9 note=36 velocity=101 time=0
EXTRACT: note_on channel=9 note=42 velocity=99 time=0
EXTRACT: note_on channel=9 note=54 velocity=0 time=0.1076922
EXTRACT: note_on channel=9 note=54 velocity=26 time=0
EXTRACT: note_on channel=9 note=36 velocity=0 time=0.0076923
EXTRACT: note_on channel=9 note=42 velocity=0 time=0
EXTRACT: note_on channel=9 note=54 velocity=0 time=0.1076922
EXTRACT: note_on channel=9 note=54 velocity=26 time=0
EXTRACT: note_on channel=9 note=42 velocity=27 time=0.0076923
EXTRACT: note_on channel=9 note=62 velocity=34 time=0
EXTRACT: note_on channel=9 note=54 velocity=0 time=0.1076922
EXTRACT: note_on channel=9 note=54 velocity=27 time=0
EXTRACT: note_on channel=1 note=36 velocity=0 time=0.0076923
EXTRACT: note_on channel=9 note=42 velocity=0 time=0
EXTRACT: note_on channel=9 note=62 velocity=0 time=0
EXTRACT: note_on channel=9 note=54 velocity=0 time=0.1076922
EXTRACT: note_on channel=9 note=54 velocity=43 time=0
EXTRACT: note_on channel=1 note=36 velocity=86 time=0.0076923
EXTRACT: note_on channel=9 note=40 velocity=93 time=0
EXTRACT: note_on channel=9 note=42 velocity=94 time=0
EXTRACT: note_on channel=9 note=62 velocity=46 time=0
EXTRACT: note_on channel=9 note=54 velocity=0 time=0.1076922
EXTRACT: note_on channel=9 note=54 velocity=27 time=0
EXTRACT: note_on channel=9 note=40 velocity=0 time=0.0076923
EXTRACT: note_on channel=9 note=42 velocity=0 time=0
EXTRACT: note_on channel=9 note=62 velocity=0 time=0
EXTRACT: note_on channel=9 note=54 velocity=0 time=0.1076922
EXTRACT: note_on channel=9 note=54 velocity=27 time=0
EXTRACT: note_on channel=1 note=36 velocity=0 time=0.0076923
EXTRACT: note_on channel=9 note=42 velocity=23 time=0
EXTRACT: note_on channel=9 note=64 velocity=66 time=0
EXTRACT: note_on channel=9 note=54 velocity=0 time=0.1076922
EXTRACT: note_on channel=9 note=54 velocity=27 time=0
EXTRACT: note_on channel=9 note=42 velocity=0 time=0.0076923
EXTRACT: note_on channel=9 note=64 velocity=0 time=0
EXTRACT: note_on channel=9 note=54 velocity=0 time=0.1076922
EXTRACT: note_on channel=9 note=54 velocity=42 time=0
EXTRACT: note_on channel=1 note=36 velocity=86 time=0.0076923
EXTRACT: note_on channel=9 note=36 velocity=85 time=0
EXTRACT: note_on channel=9 note=42 velocity=99 time=0
EXTRACT: note_on channel=9 note=54 velocity=0 time=0.1076922
EXTRACT: note_on channel=9 note=54 velocity=28 time=0
EXTRACT: note_on channel=9 note=36 velocity=0 time=0.0076923
EXTRACT: note_on channel=9 note=42 velocity=0 time=0
EXTRACT: note_on channel=9 note=54 velocity=0 time=0.1076922
EXTRACT: note_on channel=9 note=54 velocity=28 time=0
EXTRACT: note_on channel=1 note=36 velocity=0 time=0.0076923
EXTRACT: note_on channel=1 note=33 velocity=80 time=0
EXTRACT: note_on channel=9 note=36 velocity=83 time=0
EXTRACT: note_on channel=9 note=42 velocity=53 time=0
EXTRACT: note_on channel=9 note=62 velocity=37 time=0
EXTRACT: note_on channel=9 note=54 velocity=0 time=0.1076922
EXTRACT: note_on channel=9 note=54 velocity=28 time=0
EXTRACT: note_on channel=9 note=36 velocity=0 time=0.0076923
EXTRACT: note_on channel=9 note=42 velocity=0 time=0
EXTRACT: note_on channel=9 note=62 velocity=0 time=0
EXTRACT: note_on channel=9 note=54 velocity=0 time=0.1076922
EXTRACT: note_on channel=9 note=54 velocity=41 time=0
EXTRACT: note_on channel=1 note=33 velocity=0 time=0.0076923
EXTRACT: note_on channel=1 note=31 velocity=69 time=0
EXTRACT: note_on channel=9 note=40 velocity=100 time=0
EXTRACT: note_on channel=9 note=42 velocity=99 time=0
EXTRACT: note_on channel=9 note=62 velocity=43 time=0
EXTRACT: note_on channel=9 note=54 velocity=0 time=0.1076922
EXTRACT: note_on channel=9 note=54 velocity=28 time=0
EXTRACT: note_on channel=9 note=40 velocity=0 time=0.0076923
EXTRACT: note_on channel=9 note=42 velocity=0 time=0
EXTRACT: note_on channel=9 note=62 velocity=0 time=0
EXTRACT: note_on channel=9 note=54 velocity=0 time=0.1076922
EXTRACT: note_on channel=9 note=54 velocity=31 time=0
EXTRACT: note_on channel=1 note=31 velocity=0 time=0.0076923
EXTRACT: note_on channel=1 note=36 velocity=72 time=0
EXTRACT: note_on channel=9 note=36 velocity=71 time=0
EXTRACT: note_on channel=9 note=42 velocity=31 time=0
EXTRACT: note_on channel=9 note=63 velocity=58 time=0
EXTRACT: note_on channel=9 note=54 velocity=0 time=0.1076922
EXTRACT: note_on channel=9 note=54 velocity=37 time=0
EXTRACT: note_on channel=9 note=36 velocity=0 time=0.0076923
EXTRACT: note_on channel=9 note=42 velocity=0 time=0
EXTRACT: note_on channel=9 note=63 velocity=0 time=0
EXTRACT: note_on channel=9 note=54 velocity=0 time=0.1076922
EXTRACT: note_on channel=9 note=54 velocity=41 time=0
EXTRACT: note_on channel=1 note=36 velocity=0 time=0.0076923
EXTRACT: note_on channel=9 note=36 velocity=101 time=0
EXTRACT: note_on channel=9 note=42 velocity=99 time=0
EXTRACT: note_on channel=9 note=54 velocity=0 time=0.1076922
EXTRACT: note_on channel=9 note=54 velocity=26 time=0
EXTRACT: note_on channel=9 note=36 velocity=0 time=0.0076923
EXTRACT: note_on channel=9 note=42 velocity=0 time=0
EXTRACT: note_on channel=9 note=54 velocity=0 time=0.1076922
EXTRACT: note_on channel=9 note=54 velocity=27 time=0
EXTRACT: note_on channel=1 note=36 velocity=80 time=0.0076923
EXTRACT: note_on channel=9 note=42 velocity=42 time=0
EXTRACT: note_on channel=9 note=62 velocity=38 time=0
EXTRACT: note_on channel=9 note=54 velocity=0 time=0.1076922
EXTRACT: note_on channel=9 note=54 velocity=30 time=0
EXTRACT: note_on channel=9 note=42 velocity=0 time=0.0076923
EXTRACT: note_on channel=9 note=62 velocity=0 time=0
EXTRACT: note_on channel=9 note=54 velocity=0 time=0.1076922
EXTRACT: note_on channel=9 note=54 velocity=46 time=0
EXTRACT: note_on channel=1 note=36 velocity=0 time=0.0076923
EXTRACT: note_on channel=9 note=40 velocity=93 time=0
EXTRACT: note_on channel=9 note=42 velocity=99 time=0
EXTRACT: note_on channel=9 note=62 velocity=49 time=0
EXTRACT: note_on channel=9 note=54 velocity=0 time=0.1076922
EXTRACT: note_on channel=9 note=54 velocity=26 time=0
EXTRACT: note_on channel=9 note=40 velocity=0 time=0.0076923
EXTRACT: note_on channel=9 note=42 velocity=0 time=0
EXTRACT: note_on channel=9 note=62 velocity=0 time=0
EXTRACT: note_on channel=9 note=54 velocity=0 time=0.1076922
EXTRACT: note_on channel=9 note=54 velocity=28 time=0
EXTRACT: note_on channel=1 note=36 velocity=82 time=0.0076923
EXTRACT: note_on channel=9 note=42 velocity=46 time=0
EXTRACT: note_on channel=9 note=64 velocity=70 time=0
EXTRACT: note_on channel=9 note=54 velocity=0 time=0.1076922
EXTRACT: note_on channel=9 note=54 velocity=29 time=0
EXTRACT: note_on channel=9 note=42 velocity=0 time=0.0076923
EXTRACT: note_on channel=9 note=64 velocity=0 time=0
EXTRACT: note_on channel=9 note=54 velocity=0 time=0.1076922
EXTRACT: note_on channel=9 note=54 velocity=47 time=0
EXTRACT: note_on channel=9 note=36 velocity=94 time=0.0076923
EXTRACT: note_on channel=9 note=40 velocity=80 time=0
EXTRACT: note_on channel=9 note=42 velocity=94 time=0
EXTRACT: note_on channel=9 note=40 velocity=0 time=0.05769225
EXTRACT: note_on channel=9 note=54 velocity=0 time=0.04999995
EXTRACT: note_on channel=9 note=54 velocity=27 time=0
EXTRACT: note_on channel=9 note=36 velocity=0 time=0.0076923
EXTRACT: note_on channel=9 note=40 velocity=80 time=0
EXTRACT: note_on channel=9 note=42 velocity=0 time=0
EXTRACT: note_on channel=9 note=40 velocity=0 time=0.05769225
EXTRACT: note_on channel=9 note=54 velocity=0 time=0.04999995
EXTRACT: note_on channel=9 note=54 velocity=27 time=0
EXTRACT: note_on channel=1 note=36 velocity=0 time=0.0076923
EXTRACT: note_on channel=1 note=31 velocity=94 time=0
EXTRACT: note_on channel=5 note=43 velocity=107 time=0
EXTRACT: note_on channel=7 note=55 velocity=107 time=0
EXTRACT: note_on channel=8 note=55 velocity=94 time=0
EXTRACT: note_on channel=9 note=36 velocity=88 time=0
EXTRACT: note_on channel=9 note=42 velocity=46 time=0
EXTRACT: note_on channel=9 note=62 velocity=48 time=0
EXTRACT: note_on channel=9 note=42 velocity=0 time=0.05769225
EXTRACT: note_on channel=9 note=54 velocity=0 time=0.04999995
EXTRACT: note_on channel=9 note=54 velocity=27 time=0
EXTRACT: note_on channel=5 note=43 velocity=0 time=0.0076923
EXTRACT: note_on channel=7 note=55 velocity=0 time=0
EXTRACT: note_on channel=9 note=36 velocity=0 time=0
EXTRACT: note_on channel=9 note=62 velocity=0 time=0
EXTRACT: note_on channel=9 note=54 velocity=0 time=0.1076922
EXTRACT: note_on channel=9 note=54 velocity=36 time=0
EXTRACT: note_on channel=1 note=31 velocity=0 time=0.0076923
EXTRACT: note_on channel=1 note=33 velocity=86 time=0
EXTRACT: note_on channel=5 note=45 velocity=113 time=0
EXTRACT: note_on channel=7 note=57 velocity=113 time=0
EXTRACT: note_on channel=8 note=55 velocity=0 time=0
EXTRACT: note_on channel=8 note=57 velocity=107 time=0
EXTRACT: note_on channel=9 note=40 velocity=93 time=0
EXTRACT: note_on channel=9 note=46 velocity=89 time=0
EXTRACT: note_on channel=9 note=62 velocity=52 time=0
EXTRACT: note_on channel=9 note=54 velocity=0 time=0.1076922
EXTRACT: note_on channel=9 note=54 velocity=27 time=0
EXTRACT: note_on channel=9 note=40 velocity=0 time=0.0076923
EXTRACT: note_on channel=9 note=46 velocity=0 time=0
EXTRACT: note_on channel=9 note=42 velocity=51 time=0
EXTRACT: note_on channel=9 note=62 velocity=0 time=0
EXTRACT: note_on channel=9 note=54 velocity=0 time=0.1076922
EXTRACT: note_on channel=9 note=54 velocity=28 time=0
EXTRACT: note_on channel=5 note=45 velocity=0 time=0.0076923
EXTRACT: note_on channel=5 note=43 velocity=86 time=0
EXTRACT: note_on channel=7 note=57 velocity=0 time=0
EXTRACT: note_on channel=7 note=55 velocity=86 time=0
EXTRACT: note_on channel=8 note=57 velocity=0 time=0
EXTRACT: note_on channel=8 note=55 velocity=74 time=0
EXTRACT: note_on channel=9 note=36 velocity=71 time=0
EXTRACT: note_on channel=9 note=42 velocity=0 time=0
EXTRACT: note_on channel=9 note=63 velocity=67 time=0
EXTRACT: note_on channel=9 note=54 velocity=0 time=0.1076922
EXTRACT: note_on channel=9 note=54 velocity=38 time=0
EXTRACT: note_on channel=5 note=43 velocity=0 time=0.0076923
EXTRACT: note_on channel=7 note=55 velocity=0 time=0
EXTRACT: note_on channel=8 note=55 velocity=0 time=0
EXTRACT: note_on channel=9 note=36 velocity=0 time=0
EXTRACT: note_on channel=9 note=63 velocity=0 time=0
EXTRACT: note_on channel=0 note=55 velocity=88 time=0.1076922
EXTRACT: note_on channel=9 note=54 velocity=0 time=0
EXTRACT: note_on channel=9 note=54 velocity=39 time=0
EXTRACT: note_on channel=0 note=60 velocity=88 time=0.0076923
EXTRACT: note_on channel=1 note=33 velocity=0 time=0
EXTRACT: note_on channel=1 note=36 velocity=83 time=0
EXTRACT: note_on channel=3 note=72 velocity=80 time=0
EXTRACT: note_on channel=5 note=48 velocity=113 time=0
EXTRACT: note_on channel=7 note=60 velocity=113 time=0
EXTRACT: note_on channel=8 note=60 velocity=104 time=0
EXTRACT: note_on channel=9 note=36 velocity=97 time=0
EXTRACT: note_on channel=9 note=42 velocity=99 time=0
EXTRACT: note_on channel=9 note=49 velocity=51 time=0
EXTRACT: note_on channel=9 note=63 velocity=50 time=0
EXTRACT: note_on channel=0 note=64 velocity=76 time=0.00384615
EXTRACT: note_on channel=3 note=67 velocity=85 time=0.0076923
EXTRACT: note_on channel=3 note=64 velocity=82 time=0.01153845
EXTRACT: note_on channel=9 note=54 velocity=0 time=0.0846153
EXTRACT: note_on channel=9 note=54 velocity=26 time=0
EXTRACT: note_on channel=5 note=48 velocity=0 time=0.0076923
EXTRACT: note_on channel=7 note=60 velocity=0 time=0
EXTRACT: note_on channel=8 note=60 velocity=0 time=0
EXTRACT: note_on channel=9 note=36 velocity=0 time=0
EXTRACT: note_on channel=9 note=42 velocity=0 time=0
EXTRACT: note_on channel=9 note=49 velocity=0 time=0
EXTRACT: note_on channel=9 note=63 velocity=0 time=0
EXTRACT: note_on channel=9 note=54 velocity=0 time=0.1076922
EXTRACT: note_on channel=9 note=54 velocity=26 time=0
EXTRACT: note_on channel=1 note=36 velocity=0 time=0.0076923
EXTRACT: note_on channel=5 note=48 velocity=101 time=0
EXTRACT: note_on channel=7 note=60 velocity=101 time=0
EXTRACT: note_on channel=8 note=60 velocity=97 time=0
EXTRACT: note_on channel=9 note=42 velocity=32 time=0
EXTRACT: note_on channel=9 note=62 velocity=56 time=0
EXTRACT: note_on channel=9 note=54 velocity=0 time=0.1076922
EXTRACT: note_on channel=9 note=54 velocity=27 time=0
EXTRACT: note_on channel=3 note=64 velocity=0 time=0.0076923
EXTRACT: note_on channel=3 note=67 velocity=0 time=0
EXTRACT: note_on channel=3 note=72 velocity=0 time=0
EXTRACT: note_on channel=5 note=48 velocity=0 time=0
EXTRACT: note_on channel=7 note=60 velocity=0 time=0
EXTRACT: note_on channel=8 note=60 velocity=0 time=0
EXTRACT: note_on channel=9 note=42 velocity=0 time=0
EXTRACT: note_on channel=9 note=62 velocity=0 time=0
EXTRACT: note_on channel=9 note=54 velocity=0 time=0.1076922
EXTRACT: note_on channel=9 note=54 velocity=43 time=0
EXTRACT: note_on channel=1 note=36 velocity=82 time=0.0076923
EXTRACT: note_on channel=3 note=67 velocity=101 time=0
EXTRACT: note_on channel=5 note=48 velocity=113 time=0
EXTRACT: note_on channel=6 note=67 velocity=120 time=0
EXTRACT: note_on channel=6 note=79 velocity=120 time=0
EXTRACT: note_on channel=7 note=60 velocity=113 time=0
EXTRACT: note_on channel=8 note=60 velocity=110 time=0
EXTRACT: note_on channel=9 note=40 velocity=93 time=0
EXTRACT: note_on channel=9 note=42 velocity=99 time=0
EXTRACT: note_on channel=9 note=62 velocity=58 time=0
EXTRACT: note_on channel=9 note=39 velocity=93 time=0
EXTRACT: note_on channel=3 note=64 velocity=90 time=0.01153845
EXTRACT: note_on channel=3 note=72 velocity=94 time=0.01153845
EXTRACT: note_on channel=9 note=54 velocity=0 time=0.0846153
EXTRACT: note_on channel=9 note=54 velocity=27 time=0
EXTRACT: note_on channel=3 note=72 velocity=0 time=0.0076923
EXTRACT: note_on channel=3 note=64 velocity=0 time=0
EXTRACT: note_on channel=3 note=67 velocity=0 time=0
EXTRACT: note_on channel=9 note=40 velocity=0 time=0
EXTRACT: note_on channel=9 note=42 velocity=0 time=0
EXTRACT: note_on channel=9 note=62 velocity=0 time=0
EXTRACT: note_on channel=9 note=39 velocity=0 time=0
EXTRACT: note_on channel=9 note=54 velocity=0 time=0.1076922
EXTRACT: note_on channel=9 note=54 velocity=27 time=0
EXTRACT: note_on channel=1 note=36 velocity=0 time=0.0076923
EXTRACT: note_on channel=6 note=79 velocity=0 time=0
EXTRACT: note_on channel=6 note=67 velocity=0 time=0
EXTRACT: note_on channel=9 note=42 velocity=49 time=0
EXTRACT: note_on channel=9 note=64 velocity=70 time=0
EXTRACT: note_on channel=9 note=54 velocity=0 time=0.1076922
EXTRACT: note_on channel=9 note=54 velocity=27 time=0
EXTRACT: note_on channel=5 note=48 velocity=0 time=0.0076923
EXTRACT: note_on channel=7 note=60 velocity=0 time=0
EXTRACT: note_on channel=8 note=60 velocity=0 time=0
EXTRACT: note_on channel=9 note=42 velocity=0 time=0
EXTRACT: note_on channel=9 note=64 velocity=0 time=0
EXTRACT: note_on channel=9 note=54 velocity=0 time=0.1076922
EXTRACT: note_on channel=9 note=54 velocity=42 time=0
EXTRACT: note_on channel=1 note=36 velocity=85 time=0.0076923
EXTRACT: note_on channel=5 note=48 velocity=113 time=0
EXTRACT: note_on channel=6 note=67 velocity=123 time=0
EXTRACT: note_on channel=6 note=79 velocity=123 time=0
EXTRACT: note_on channel=7 note=60 velocity=113 time=0
EXTRACT: note_on channel=8 note=60 velocity=107 time=0
EXTRACT: note_on channel=9 note=36 velocity=88 time=0
EXTRACT: note_on channel=9 note=42 velocity=84 time=0
EXTRACT: note_on channel=9 note=54 velocity=0 time=0.1076922
EXTRACT: note_on channel=9 note=54 velocity=28 time=0
EXTRACT: note_on channel=5 note=48 velocity=0 time=0.0076923
EXTRACT: note_on channel=7 note=60 velocity=0 time=0
EXTRACT: note_on channel=9 note=36 velocity=0 time=0
EXTRACT: note_on channel=9 note=42 velocity=0 time=0
EXTRACT: note_on channel=9 note=54 velocity=0 time=0.1076922
EXTRACT: note_on channel=9 note=54 velocity=28 time=0
EXTRACT: note_on channel=1 note=36 velocity=0 time=0.0076923
EXTRACT: note_on channel=1 note=33 velocity=80 time=0
EXTRACT: note_on channel=3 note=72 velocity=83 time=0
EXTRACT: note_on channel=5 note=43 velocity=90 time=0
EXTRACT: note_on channel=6 note=79 velocity=0 time=0
EXTRACT: note_on channel=6 note=67 velocity=0 time=0
EXTRACT: note_on channel=6 note=72 velocity=97 time=0
EXTRACT: note_on channel=6 note=84 velocity=97 time=0
EXTRACT: note_on channel=7 note=55 velocity=90 time=0
EXTRACT: note_on channel=8 note=60 velocity=0 time=0
EXTRACT: note_on channel=8 note=55 velocity=73 time=0
EXTRACT: note_on channel=9 note=36 velocity=94 time=0
EXTRACT: note_on channel=9 note=42 velocity=53 time=0
EXTRACT: note_on channel=9 note=62 velocity=36 time=0
EXTRACT: note_on channel=3 note=64 velocity=85 time=0.01153845
EXTRACT: note_on channel=3 note=67 velocity=104 time=0.01153845
EXTRACT: note_on channel=9 note=54 velocity=0 time=0.0846153
EXTRACT: note_on channel=9 note=54 velocity=28 time=0
EXTRACT: note_on channel=3 note=67 velocity=0 time=0.0076923
EXTRACT: note_on channel=3 note=64 velocity=0 time=0
EXTRACT: note_on channel=3 note=72 velocity=0 time=0
EXTRACT: note_on channel=5 note=43 velocity=0 time=0
EXTRACT: note_on channel=7 note=55 velocity=0 time=0
EXTRACT: note_on channel=9 note=36 velocity=0 time=0
EXTRACT: note_on channel=9 note=42 velocity=0 time=0
EXTRACT: note_on channel=9 note=62 velocity=0 time=0
EXTRACT: note_on channel=9 note=54 velocity=0 time=0.1076922
EXTRACT: note_on channel=9 note=54 velocity=41 time=0
EXTRACT: note_on channel=1 note=33 velocity=0 time=0.0076923
EXTRACT: note_on channel=1 note=31 velocity=72 time=0
EXTRACT: note_on channel=5 note=45 velocity=117 time=0
EXTRACT: note_on channel=6 note=84 velocity=0 time=0
EXTRACT: note_on channel=6 note=72 velocity=0 time=0
EXTRACT: note_on channel=7 note=57 velocity=117 time=0
EXTRACT: note_on channel=8 note=55 velocity=0 time=0
EXTRACT: note_on channel=8 note=57 velocity=104 time=0
EXTRACT: note_on channel=9 note=40 velocity=93 time=0
EXTRACT: note_on channel=9 note=42 velocity=94 time=0
EXTRACT: note_on channel=9 note=62 velocity=52 time=0
EXTRACT: note_on channel=9 note=39 velocity=93 time=0
EXTRACT: note_on channel=0 note=64 velocity=0 time=0.09615375
EXTRACT: note_on channel=0 note=60 velocity=0 time=0.00384615
EXTRACT: note_on channel=0 note=55 velocity=0 time=0
EXTRACT: note_on channel=9 note=54 velocity=0 time=0.0076923
EXTRACT: note_on channel=9 note=54 velocity=28 time=0
EXTRACT: note_on channel=9 note=40 velocity=0 time=0.0076923
EXTRACT: note_on channel=9 note=42 velocity=0 time=0
EXTRACT: note_on channel=9 note=62 velocity=0 time=0
EXTRACT: note_on channel=9 note=39 velocity=0 time=0
EXTRACT: note_on channel=9 note=54 velocity=0 time=0.1076922
EXTRACT: note_on channel=9 note=54 velocity=31 time=0
EXTRACT: note_on channel=1 note=31 velocity=0 time=0.0076923
EXTRACT: note_on channel=1 note=36 velocity=79 time=0
EXTRACT: note_on channel=3 note=62 velocity=86 time=0
EXTRACT: note_on channel=5 note=45 velocity=0 time=0
EXTRACT: note_on channel=5 note=43 velocity=92 time=0
EXTRACT: note_on channel=6 note=70 velocity=109 time=0
EXTRACT: note_on channel=6 note=82 velocity=109 time=0
EXTRACT: note_on channel=7 note=57 velocity=0 time=0
EXTRACT: note_on channel=7 note=55 velocity=92 time=0
EXTRACT: note_on channel=8 note=57 velocity=0 time=0
EXTRACT: note_on channel=8 note=55 velocity=73 time=0
EXTRACT: note_on channel=9 note=36 velocity=70 time=0
EXTRACT: note_on channel=9 note=42 velocity=38 time=0
EXTRACT: note_on channel=9 note=63 velocity=56 time=0
EXTRACT: note_on channel=0 note=53 velocity=80 time=0.01153845
EXTRACT: note_on channel=3 note=65 velocity=92 time=0
EXTRACT: note_on channel=0 note=58 velocity=100 time=0.0076923
EXTRACT: note_on channel=0 note=62 velocity=92 time=0.00384615
EXTRACT: note_on channel=3 note=70 velocity=96 time=0
EXTRACT: note_on channel=9 note=54 velocity=0 time=0.0846153
EXTRACT: note_on channel=9 note=54 velocity=37 time=0
EXTRACT: note_on channel=5 note=43 velocity=0 time=0.0076923
EXTRACT: note_on channel=7 note=55 velocity=0 time=0
EXTRACT: note_on channel=8 note=55 velocity=0 time=0
EXTRACT: note_on channel=9 note=36 velocity=0 time=0
EXTRACT: note_on channel=9 note=42 velocity=0 time=0
EXTRACT: note_on channel=9 note=63 velocity=0 time=0
EXTRACT: note_on channel=9 note=54 velocity=0 time=0.1076922
EXTRACT: note_on channel=9 note=54 velocity=41 time=0
EXTRACT: note_on channel=1 note=36 velocity=0 time=0.0076923
EXTRACT: note_on channel=5 note=48 velocity=113 time=0
EXTRACT: note_on channel=6 note=82 velocity=0 time=0
EXTRACT: note_on channel=6 note=70 velocity=0 time=0
EXTRACT: note_on channel=7 note=60 velocity=113 time=0
EXTRACT: note_on channel=8 note=60 velocity=92 time=0
EXTRACT: note_on channel=9 note=36 velocity=104 time=0
EXTRACT: note_on channel=9 note=42 velocity=94 time=0
EXTRACT: note_on channel=9 note=54 velocity=0 time=0.1076922
EXTRACT: note_on channel=9 note=54 velocity=26 time=0
EXTRACT: note_on channel=5 note=48 velocity=0 time=0.0076923
EXTRACT: note_on channel=7 note=60 velocity=0 time=0
EXTRACT: note_on channel=8 note=60 velocity=0 time=0
EXTRACT: note_on channel=9 note=36 velocity=0 time=0
EXTRACT: note_on channel=9 note=42 velocity=0 time=0
EXTRACT: note_on channel=9 note=54 velocity=0 time=0.1076922
EXTRACT: note_on channel=9 note=54 velocity=27 time=0
EXTRACT: note_on channel=1 note=36 velocity=82 time=0.0076923
EXTRACT: note_on channel=5 note=48 velocity=104 time=0
EXTRACT: note_on channel=6 note=69 velocity=107 time=0
EXTRACT: note_on channel=6 note=81 velocity=107 time=0
EXTRACT: note_on channel=7 note=60 velocity=104 time=0
EXTRACT: note_on channel=8 note=60 velocity=88 time=0
EXTRACT: note_on channel=9 note=42 velocity=40 time=0
EXTRACT: note_on channel=9 note=62 velocity=46 time=0
EXTRACT: note_on channel=9 note=54 velocity=0 time=0.1076922
EXTRACT: note_on channel=9 note=54 velocity=30 time=0
EXTRACT: note_on channel=3 note=70 velocity=0 time=0.0076923
EXTRACT: note_on channel=3 note=62 velocity=0 time=0
EXTRACT: note_on channel=5 note=48 velocity=0 time=0
EXTRACT: note_on channel=7 note=60 velocity=0 time=0
EXTRACT: note_on channel=8 note=60 velocity=0 time=0
EXTRACT: note_on channel=9 note=42 velocity=0 time=0
EXTRACT: note_on channel=9 note=62 velocity=0 time=0
EXTRACT: note_on channel=9 note=54 velocity=0 time=0.1076922
EXTRACT: note_on channel=9 note=54 velocity=46 time=0
EXTRACT: note_on channel=1 note=36 velocity=0 time=0.0076923
EXTRACT: note_on channel=3 note=65 velocity=0 time=0
EXTRACT: note_on channel=3 note=65 velocity=88 time=0
EXTRACT: note_on channel=5 note=48 velocity=104 time=0
EXTRACT: note_on channel=6 note=81 velocity=0 time=0
EXTRACT: note_on channel=6 note=69 velocity=0 time=0
EXTRACT: note_on channel=7 note=60 velocity=104 time=0
EXTRACT: note_on channel=8 note=60 velocity=94 time=0
EXTRACT: note_on channel=9 note=40 velocity=87 time=0
EXTRACT: note_on channel=9 note=42 velocity=94 time=0
EXTRACT: note_on channel=9 note=62 velocity=50 time=0
EXTRACT: note_on channel=9 note=39 velocity=87 time=0
EXTRACT: note_on channel=3 note=62 velocity=82 time=0.01153845
EXTRACT: note_on channel=3 note=70 velocity=100 time=0.01153845
EXTRACT: note_on channel=9 note=54 velocity=0 time=0.0846153
EXTRACT: note_on channel=9 note=54 velocity=26 time=0
EXTRACT: note_on channel=3 note=70 velocity=0 time=0.0076923
EXTRACT: note_on channel=3 note=62 velocity=0 time=0
EXTRACT: note_on channel=3 note=65 velocity=0 time=0
EXTRACT: note_on channel=5 note=48 velocity=0 time=0
EXTRACT: note_on channel=7 note=60 velocity=0 time=0
EXTRACT: note_on channel=8 note=60 velocity=0 time=0
EXTRACT: note_on channel=9 note=40 velocity=0 time=0
EXTRACT: note_on channel=9 note=42 velocity=0 time=0
EXTRACT: note_on channel=9 note=62 velocity=0 time=0
EXTRACT: note_on channel=9 note=39 velocity=0 time=0
EXTRACT: note_on channel=9 note=54 velocity=0 time=0.1076922
EXTRACT: note_on channel=9 note=54 velocity=28 time=0
EXTRACT: note_on channel=1 note=36 velocity=88 time=0.0076923
EXTRACT: note_on channel=5 note=52 velocity=107 time=0
EXTRACT: note_on channel=6 note=67 velocity=110 time=0
EXTRACT: note_on channel=6 note=79 velocity=110 time=0
EXTRACT: note_on channel=7 note=64 velocity=107 time=0
EXTRACT: note_on channel=8 note=64 velocity=99 time=0
EXTRACT: pitchwheel channel=8 pitch=-1221 time=0
EXTRACT: note_on channel=9 note=42 velocity=34 time=0
EXTRACT: note_on channel=9 note=64 velocity=66 time=0
EXTRACT: pitchwheel channel=5 pitch=-707 time=0.00384615
EXTRACT: pitchwheel channel=7 pitch=-707 time=0
EXTRACT: pitchwheel channel=8 pitch=-3085 time=0
EXTRACT: pitchwheel channel=5 pitch=-2217 time=0.0076923
EXTRACT: pitchwheel channel=7 pitch=-2217 time=0
EXTRACT: pitchwheel channel=8 pitch=-4884 time=0.00384615
EXTRACT: pitchwheel channel=5 pitch=-3791 time=0.00384615
EXTRACT: pitchwheel channel=7 pitch=-3791 time=0
EXTRACT: pitchwheel channel=5 pitch=-4916 time=0.0076923
EXTRACT: pitchwheel channel=7 pitch=-4916 time=0
EXTRACT: pitchwheel channel=8 pitch=-6940 time=0
EXTRACT: pitchwheel channel=5 pitch=-6297 time=0.0076923
EXTRACT: pitchwheel channel=7 pitch=-6297 time=0
EXTRACT: pitchwheel channel=8 pitch=-8096 time=0
EXTRACT: pitchwheel channel=8 pitch=-8192 time=0.00384615
EXTRACT: pitchwheel channel=5 pitch=-7389 time=0.0076923
EXTRACT: pitchwheel channel=7 pitch=-7389 time=0
EXTRACT: pitchwheel channel=5 pitch=-7839 time=0.0076923
EXTRACT: pitchwheel channel=7 pitch=-7839 time=0
EXTRACT: pitchwheel channel=5 pitch=-7903 time=0.0076923
EXTRACT: pitchwheel channel=7 pitch=-7903 time=0
EXTRACT: pitchwheel channel=5 pitch=-7839 time=0.0076923
EXTRACT: pitchwheel channel=7 pitch=-7839 time=0
EXTRACT: pitchwheel channel=8 pitch=-8160 time=0
EXTRACT: pitchwheel channel=8 pitch=-7454 time=0.00384615
EXTRACT: pitchwheel channel=5 pitch=-7518 time=0.0076923
EXTRACT: pitchwheel channel=7 pitch=-7518 time=0
EXTRACT: pitchwheel channel=8 pitch=-6683 time=0
EXTRACT: pitchwheel channel=5 pitch=-6811 time=0.0076923
EXTRACT: pitchwheel channel=7 pitch=-6811 time=0
EXTRACT: pitchwheel channel=8 pitch=-5719 time=0
EXTRACT: pitchwheel channel=5 pitch=-5719 time=0.0076923
EXTRACT: pitchwheel channel=7 pitch=-5719 time=0
EXTRACT: pitchwheel channel=8 pitch=-4916 time=0.00384615
EXTRACT: pitchwheel channel=5 pitch=-4916 time=0.00384615
EXTRACT: pitchwheel channel=7 pitch=-4916 time=0
EXTRACT: pitchwheel channel=8 pitch=-4370 time=0.00384615
EXTRACT: note_on channel=9 note=54 velocity=0 time=0
EXTRACT: note_on channel=9 note=54 velocity=29 time=0
EXTRACT: pitchwheel channel=5 pitch=-4498 time=0.00384615
EXTRACT: pitchwheel channel=7 pitch=-4498 time=0
EXTRACT: pitchwheel channel=8 pitch=-3695 time=0.00384615
EXTRACT: note_on channel=9 note=42 velocity=0 time=0
EXTRACT: note_on channel=9 note=64 velocity=0 time=0
EXTRACT: pitchwheel channel=5 pitch=-3791 time=0.0076923
EXTRACT: pitchwheel channel=7 pitch=-3791 time=0
EXTRACT: pitchwheel channel=8 pitch=-2988 time=0
EXTRACT: pitchwheel channel=5 pitch=-3181 time=0.0076923
EXTRACT: pitchwheel channel=7 pitch=-3181 time=0
EXTRACT: pitchwheel channel=8 pitch=-2281 time=0
EXTRACT: pitchwheel channel=5 pitch=-2538 time=0.0076923
EXTRACT: pitchwheel channel=7 pitch=-2538 time=0
EXTRACT: pitchwheel channel=8 pitch=-1671 time=0.00384615
EXTRACT: pitchwheel channel=5 pitch=-2024 time=0.00384615
EXTRACT: pitchwheel channel=7 pitch=-2024 time=0
EXTRACT: pitchwheel channel=8 pitch=-1125 time=0.00384615
EXTRACT: pitchwheel channel=5 pitch=-1350 time=0.0076923
EXTRACT: pitchwheel channel=7 pitch=-1350 time=0
EXTRACT: pitchwheel channel=8 pitch=-579 time=0
EXTRACT: pitchwheel channel=5 pitch=-772 time=0.0076923
EXTRACT: pitchwheel channel=7 pitch=-772 time=0
EXTRACT: pitchwheel channel=8 pitch=0 time=0
EXTRACT: pitchwheel channel=5 pitch=-225 time=0.0076923
EXTRACT: pitchwheel channel=7 pitch=-225 time=0
EXTRACT: pitchwheel channel=5 pitch=0 time=0.0076923
EXTRACT: pitchwheel channel=7 pitch=0 time=0
EXTRACT: note_on channel=9 note=54 velocity=0 time=0.04230765
EXTRACT: note_on channel=9 note=54 velocity=47 time=0
EXTRACT: note_on channel=1 note=36 velocity=0 time=0.0076923
EXTRACT: note_on channel=6 note=79 velocity=0 time=0
EXTRACT: note_on channel=6 note=67 velocity=0 time=0
EXTRACT: note_on channel=9 note=36 velocity=86 time=0
EXTRACT: note_on channel=9 note=42 velocity=94 time=0
EXTRACT: note_on channel=9 note=54 velocity=0 time=0.1076922
EXTRACT: note_on channel=9 note=54 velocity=27 time=0
EXTRACT: note_on channel=8 note=64 velocity=0 time=0.0076923
EXTRACT: note_on channel=9 note=36 velocity=0 time=0
EXTRACT: note_on channel=9 note=42 velocity=0 time=0
EXTRACT: note_on channel=9 note=54 velocity=0 time=0.1076922
EXTRACT: note_on channel=9 note=54 velocity=27 time=0
EXTRACT: note_on channel=1 note=31 velocity=90 time=0.0076923
EXTRACT: note_on channel=3 note=65 velocity=94 time=0
EXTRACT: note_on channel=5 note=52 velocity=0 time=0
EXTRACT: note_on channel=5 note=43 velocity=97 time=0
EXTRACT: note_on channel=6 note=63 velocity=109 time=0
EXTRACT: note_on channel=6 note=75 velocity=109 time=0
EXTRACT: note_on channel=7 note=64 velocity=0 time=0
EXTRACT: note_on channel=7 note=55 velocity=97 time=0
EXTRACT: note_on channel=8 note=55 velocity=101 time=0
EXTRACT: note_on channel=9 note=36 velocity=85 time=0
EXTRACT: note_on channel=9 note=42 velocity=31 time=0
EXTRACT: note_on channel=9 note=62 velocity=36 time=0
EXTRACT: note_on channel=3 note=62 velocity=90 time=0.01153845
EXTRACT: note_on channel=3 note=70 velocity=96 time=0.01153845
EXTRACT: note_on channel=9 note=54 velocity=0 time=0.0846153
EXTRACT: note_on channel=9 note=54 velocity=27 time=0
EXTRACT: note_on channel=3 note=70 velocity=0 time=0.0076923
EXTRACT: note_on channel=3 note=62 velocity=0 time=0
EXTRACT: note_on channel=3 note=65 velocity=0 time=0
EXTRACT: note_on channel=8 note=55 velocity=0 time=0
EXTRACT: note_on channel=9 note=36 velocity=0 time=0
EXTRACT: note_on channel=9 note=42 velocity=0 time=0
EXTRACT: note_on channel=9 note=62 velocity=0 time=0
EXTRACT: note_on channel=9 note=54 velocity=0 time=0.1076922
EXTRACT: note_on channel=9 note=54 velocity=36 time=0
EXTRACT: note_on channel=1 note=31 velocity=0 time=0.0076923
EXTRACT: note_on channel=1 note=33 velocity=80 time=0
EXTRACT: note_on channel=5 note=43 velocity=0 time=0
EXTRACT: note_on channel=5 note=45 velocity=113 time=0
EXTRACT: note_on channel=6 note=75 velocity=0 time=0
EXTRACT: note_on channel=6 note=63 velocity=0 time=0
EXTRACT: note_on channel=6 note=62 velocity=97 time=0
EXTRACT: note_on channel=6 note=74 velocity=97 time=0
EXTRACT: note_on channel=7 note=55 velocity=0 time=0
EXTRACT: note_on channel=7 note=57 velocity=113 time=0
EXTRACT: note_on channel=8 note=57 velocity=101 time=0
EXTRACT: note_on channel=9 note=40 velocity=87 time=0
EXTRACT: note_on channel=9 note=42 velocity=99 time=0
EXTRACT: note_on channel=9 note=62 velocity=50 time=0
EXTRACT: note_on channel=9 note=39 velocity=87 time=0
EXTRACT: note_on channel=9 note=54 velocity=0 time=0.1076922
EXTRACT: note_on channel=9 note=54 velocity=27 time=0
EXTRACT: note_on channel=9 note=40 velocity=0 time=0.0076923
EXTRACT: note_on channel=9 note=42 velocity=0 time=0
EXTRACT: note_on channel=9 note=62 velocity=0 time=0
EXTRACT: note_on channel=9 note=39 velocity=0 time=0
EXTRACT: note_on channel=9 note=54 velocity=0 time=0.1076922
EXTRACT: note_on channel=9 note=54 velocity=28 time=0
EXTRACT: note_on channel=5 note=45 velocity=0 time=0.0076923
EXTRACT: note_on channel=5 note=43 velocity=83 time=0
EXTRACT: note_on channel=6 note=74 velocity=0 time=0
EXTRACT: note_on channel=6 note=62 velocity=0 time=0
EXTRACT: note_on channel=6 note=60 velocity=99 time=0
EXTRACT: note_on channel=6 note=72 velocity=99 time=0
EXTRACT: note_on channel=7 note=57 velocity=0 time=0
EXTRACT: note_on channel=7 note=55 velocity=83 time=0
EXTRACT: note_on channel=8 note=57 velocity=0 time=0
EXTRACT: note_on channel=8 note=55 velocity=75 time=0
EXTRACT: note_on channel=9 note=36 velocity=71 time=0
EXTRACT: note_on channel=9 note=42 velocity=38 time=0
EXTRACT: note_on channel=9 note=63 velocity=58 time=0
EXTRACT: note_on channel=9 note=54 velocity=0 time=0.1076922
EXTRACT: note_on channel=9 note=54 velocity=38 time=0
EXTRACT: note_on channel=0 note=58 velocity=0 time=0.0076923
EXTRACT: note_on channel=5 note=43 velocity=0 time=0
EXTRACT: note_on channel=7 note=55 velocity=0 time=0
EXTRACT: note_on channel=8 note=55 velocity=0 time=0
EXTRACT: note_on channel=9 note=36 velocity=0 time=0
EXTRACT: note_on channel=9 note=42 velocity=0 time=0
EXTRACT: note_on channel=9 note=63 velocity=0 time=0
EXTRACT: note_on channel=0 note=62 velocity=0 time=0.01923075
EXTRACT: note_on channel=0 note=53 velocity=0 time=0.0076923
EXTRACT: note_on channel=0 note=57 velocity=101 time=0.08076915
EXTRACT: note_on channel=9 note=54 velocity=0 time=0
EXTRACT: note_on channel=9 note=54 velocity=39 time=0
EXTRACT: note_on channel=0 note=60 velocity=101 time=0.00384615
EXTRACT: note_on channel=1 note=33 velocity=0 time=0.00384615
EXTRACT: note_on channel=1 note=36 velocity=85 time=0
EXTRACT: note_on channel=3 note=60 velocity=83 time=0
EXTRACT: note_on channel=5 note=48 velocity=107 time=0
EXTRACT: note_on channel=7 note=60 velocity=107 time=0
EXTRACT: note_on channel=8 note=60 velocity=97 time=0
EXTRACT: note_on channel=9 note=36 velocity=101 time=0
EXTRACT: note_on channel=9 note=42 velocity=99 time=0
EXTRACT: note_on channel=0 note=53 velocity=76 time=0.00384615
EXTRACT: note_on channel=3 note=69 velocity=75 time=0.0076923
EXTRACT: note_on channel=3 note=64 velocity=97 time=0.01153845
EXTRACT: note_on channel=9 note=54 velocity=0 time=0.0846153
EXTRACT: note_on channel=9 note=54 velocity=26 time=0
EXTRACT: note_on channel=5 note=48 velocity=0 time=0.0076923
EXTRACT: note_on channel=7 note=60 velocity=0 time=0
EXTRACT: note_on channel=8 note=60 velocity=0 time=0
EXTRACT: note_on channel=9 note=36 velocity=0 time=0
EXTRACT: note_on channel=9 note=42 velocity=0 time=0
EXTRACT: note_on channel=9 note=54 velocity=0 time=0.1076922
EXTRACT: note_on channel=9 note=54 velocity=26 time=0
EXTRACT: note_on channel=5 note=48 velocity=97 time=0.0076923
EXTRACT: note_on channel=7 note=60 velocity=97 time=0
EXTRACT: note_on channel=8 note=60 velocity=92 time=0
EXTRACT: note_on channel=9 note=42 velocity=27 time=0
EXTRACT: note_on channel=9 note=62 velocity=34 time=0
EXTRACT: note_on channel=9 note=54 velocity=0 time=0.1076922
EXTRACT: note_on channel=9 note=54 velocity=27 time=0
EXTRACT: note_on channel=1 note=36 velocity=0 time=0.0076923
EXTRACT: note_on channel=5 note=48 velocity=0 time=0
EXTRACT: note_on channel=7 note=60 velocity=0 time=0
EXTRACT: note_on channel=8 note=60 velocity=0 time=0
EXTRACT: note_on channel=9 note=42 velocity=0 time=0
EXTRACT: note_on channel=9 note=62 velocity=0 time=0
EXTRACT: note_on channel=9 note=54 velocity=0 time=0.1076922
EXTRACT: note_on channel=9 note=54 velocity=43 time=0
EXTRACT: note_on channel=1 note=36 velocity=90 time=0.0076923
EXTRACT: note_on channel=3 note=64 velocity=0 time=0
EXTRACT: note_on channel=3 note=69 velocity=0 time=0
EXTRACT: note_on channel=3 note=60 velocity=0 time=0
EXTRACT: note_on channel=3 note=60 velocity=88 time=0
EXTRACT: note_on channel=5 note=48 velocity=113 time=0
EXTRACT: note_on channel=7 note=60 velocity=113 time=0
EXTRACT: note_on channel=8 note=60 velocity=107 time=0
EXTRACT: note_on channel=9 note=40 velocity=93 time=0
EXTRACT: note_on channel=9 note=42 velocity=94 time=0
EXTRACT: note_on channel=9 note=62 velocity=46 time=0
EXTRACT: note_on channel=9 note=39 velocity=93 time=0
EXTRACT: note_on channel=3 note=69 velocity=85 time=0.01153845
EXTRACT: note_on channel=3 note=64 velocity=104 time=0.01153845
EXTRACT: note_on channel=9 note=54 velocity=0 time=0.0846153
EXTRACT: note_on channel=9 note=54 velocity=27 time=0
EXTRACT: note_on channel=3 note=64 velocity=0 time=0.0076923
EXTRACT: note_on channel=3 note=69 velocity=0 time=0
EXTRACT: note_on channel=3 note=60 velocity=0 time=0
EXTRACT: note_on channel=9 note=40 velocity=0 time=0
EXTRACT: note_on channel=9 note=42 velocity=0 time=0
EXTRACT: note_on channel=9 note=62 velocity=0 time=0
EXTRACT: note_on channel=9 note=39 velocity=0 time=0
EXTRACT: note_on channel=9 note=54 velocity=0 time=0.1076922
EXTRACT: note_on channel=9 note=54 velocity=27 time=0
EXTRACT: note_on channel=8 note=60 velocity=0 time=0.0076923
EXTRACT: note_on channel=9 note=42 velocity=23 time=0
EXTRACT: note_on channel=9 note=64 velocity=66 time=0
EXTRACT: note_on channel=9 note=54 velocity=0 time=0.1076922
EXTRACT: note_on channel=9 note=54 velocity=27 time=0
EXTRACT: note_on channel=1 note=36 velocity=0 time=0.0076923
EXTRACT: note_on channel=5 note=48 velocity=0 time=0
EXTRACT: note_on channel=7 note=60 velocity=0 time=0
EXTRACT: note_on channel=9 note=42 velocity=0 time=0
EXTRACT: note_on channel=9 note=64 velocity=0 time=0
EXTRACT: note_on channel=9 note=54 velocity=0 time=0.1076922
EXTRACT: note_on channel=9 note=54 velocity=42 time=0
EXTRACT: note_on channel=1 note=36 velocity=85 time=0.0076923
EXTRACT: note_on channel=5 note=48 velocity=110 time=0
EXTRACT: note_on channel=7 note=60 velocity=110 time=0
EXTRACT: note_on channel=8 note=60 velocity=107 time=0
EXTRACT: note_on channel=9 note=36 velocity=85 time=0
EXTRACT: note_on channel=9 note=42 velocity=99 time=0
EXTRACT: note_on channel=9 note=54 velocity=0 time=0.1076922
EXTRACT: note_on channel=9 note=54 velocity=28 time=0
EXTRACT: note_on channel=6 note=72 velocity=0 time=0.0076923
EXTRACT: note_on channel=6 note=60 velocity=0 time=0
EXTRACT: note_on channel=9 note=36 velocity=0 time=0
EXTRACT: note_on channel=9 note=42 velocity=0 time=0
EXTRACT: note_on channel=9 note=54 velocity=0 time=0.1076922
EXTRACT: note_on channel=9 note=54 velocity=28 time=0
EXTRACT: note_on channel=1 note=36 velocity=0 time=0.0076923
EXTRACT: note_on channel=1 note=33 velocity=71 time=0
EXTRACT: note_on channel=3 note=69 velocity=85 time=0
EXTRACT: note_on channel=5 note=48 velocity=0 time=0
EXTRACT: note_on channel=5 note=43 velocity=83 time=0
EXTRACT: note_on channel=6 note=58 velocity=100 time=0
EXTRACT: note_on channel=6 note=70 velocity=100 time=0
EXTRACT: note_on channel=7 note=60 velocity=0 time=0
EXTRACT: note_on channel=7 note=55 velocity=83 time=0
EXTRACT: note_on channel=8 note=60 velocity=0 time=0
EXTRACT: note_on channel=8 note=55 velocity=75 time=0
EXTRACT: note_on channel=9 note=36 velocity=83 time=0
EXTRACT: note_on channel=9 note=42 velocity=53 time=0
EXTRACT: note_on channel=9 note=62 velocity=37 time=0
EXTRACT: note_on channel=3 note=60 velocity=90 time=0.01153845
EXTRACT: note_on channel=3 note=64 velocity=104 time=0.01153845
EXTRACT: note_on channel=9 note=54 velocity=0 time=0.0846153
EXTRACT: note_on channel=9 note=54 velocity=28 time=0
EXTRACT: note_on channel=3 note=64 velocity=0 time=0.0076923
EXTRACT: note_on channel=3 note=60 velocity=0 time=0
EXTRACT: note_on channel=3 note=69 velocity=0 time=0
EXTRACT: note_on channel=5 note=43 velocity=0 time=0
EXTRACT: note_on channel=7 note=55 velocity=0 time=0
EXTRACT: note_on channel=8 note=55 velocity=0 time=0
EXTRACT: note_on channel=9 note=36 velocity=0 time=0
EXTRACT: note_on channel=9 note=42 velocity=0 time=0
EXTRACT: note_on channel=9 note=62 velocity=0 time=0
EXTRACT: note_on channel=9 note=54 velocity=0 time=0.1076922
EXTRACT: note_on channel=9 note=54 velocity=41 time=0
EXTRACT: note_on channel=1 note=33 velocity=0 time=0.0076923
EXTRACT: note_on channel=1 note=31 velocity=78 time=0
EXTRACT: note_on channel=5 note=45 velocity=110 time=0
EXTRACT: note_on channel=6 note=70 velocity=0 time=0
EXTRACT: note_on channel=6 note=58 velocity=0 time=0
EXTRACT: note_on channel=6 note=60 velocity=90 time=0
EXTRACT: note_on channel=6 note=69 velocity=90 time=0
EXTRACT: note_on channel=7 note=57 velocity=110 time=0
EXTRACT: note_on channel=8 note=57 velocity=88 time=0
EXTRACT: note_on channel=9 note=40 velocity=100 time=0
EXTRACT: note_on channel=9 note=42 velocity=99 time=0
EXTRACT: note_on channel=9 note=62 velocity=43 time=0
EXTRACT: note_on channel=9 note=39 velocity=100 time=0
EXTRACT: note_on channel=0 note=57 velocity=0 time=0.09615375
EXTRACT: note_on channel=9 note=54 velocity=0 time=0.01153845
EXTRACT: note_on channel=9 note=54 velocity=28 time=0
EXTRACT: note_on channel=0 note=53 velocity=0 time=0.0076923
EXTRACT: note_on channel=9 note=40 velocity=0 time=0
EXTRACT: note_on channel=9 note=42 velocity=0 time=0
EXTRACT: note_on channel=9 note=62 velocity=0 time=0
EXTRACT: note_on channel=9 note=39 velocity=0 time=0
EXTRACT: note_on channel=0 note=60 velocity=0 time=0.00384615
EXTRACT: note_on channel=9 note=54 velocity=0 time=0.10384605
EXTRACT: note_on channel=9 note=54 velocity=31 time=0
EXTRACT: note_on channel=1 note=31 velocity=0 time=0.0076923
EXTRACT: note_on channel=1 note=36 velocity=79 time=0
EXTRACT: note_on channel=3 note=58 velocity=90 time=0
EXTRACT: note_on channel=5 note=45 velocity=0 time=0
EXTRACT: note_on channel=5 note=48 velocity=107 time=0
EXTRACT: note_on channel=6 note=69 velocity=0 time=0
EXTRACT: note_on channel=6 note=60 velocity=0 time=0
EXTRACT: note_on channel=6 note=62 velocity=92 time=0
EXTRACT: note_on channel=6 note=67 velocity=92 time=0
EXTRACT: note_on channel=7 note=57 velocity=0 time=0
EXTRACT: note_on channel=7 note=60 velocity=107 time=0
EXTRACT: note_on channel=8 note=57 velocity=0 time=0
EXTRACT: note_on channel=8 note=60 velocity=80 time=0
EXTRACT: note_on channel=9 note=36 velocity=71 time=0
EXTRACT: note_on channel=9 note=42 velocity=31 time=0
EXTRACT: note_on channel=9 note=63 velocity=58 time=0
EXTRACT: note_on channel=0 note=53 velocity=72 time=0.01153845
EXTRACT: note_on channel=3 note=67 velocity=83 time=0
EXTRACT: note_on channel=0 note=58 velocity=96 time=0.00384615
EXTRACT: note_on channel=0 note=62 velocity=90 time=0.00384615
EXTRACT: note_on channel=3 note=62 velocity=104 time=0.00384615
EXTRACT: note_on channel=9 note=54 velocity=0 time=0.0846153
EXTRACT: note_on channel=9 note=54 velocity=37 time=0
EXTRACT: note_on channel=5 note=48 velocity=0 time=0.0076923
EXTRACT: note_on channel=7 note=60 velocity=0 time=0
EXTRACT: note_on channel=9 note=36 velocity=0 time=0
EXTRACT: note_on channel=9 note=42 velocity=0 time=0
EXTRACT: note_on channel=9 note=63 velocity=0 time=0
EXTRACT: pitchwheel channel=5 pitch=-515 time=0.0923076
EXTRACT: pitchwheel channel=7 pitch=-515 time=0
EXTRACT: pitchwheel channel=5 pitch=-2217 time=0.00384615
EXTRACT: pitchwheel channel=7 pitch=-2217 time=0
EXTRACT: pitchwheel channel=8 pitch=-1061 time=0.00384615
EXTRACT: pitchwheel channel=5 pitch=-3952 time=0.00384615
EXTRACT: pitchwheel channel=7 pitch=-3952 time=0
EXTRACT: note_on channel=9 note=54 velocity=0 time=0.00384615
EXTRACT: note_on channel=9 note=54 velocity=41 time=0
EXTRACT: pitchwheel channel=8 pitch=-3117 time=0.00384615
EXTRACT: note_on channel=1 note=36 velocity=0 time=0.00384615
EXTRACT: note_on channel=5 note=51 velocity=94 time=0
EXTRACT: pitchwheel channel=5 pitch=-4980 time=0
EXTRACT: note_on channel=7 note=63 velocity=94 time=0
EXTRACT: pitchwheel channel=7 pitch=-4980 time=0
EXTRACT: note_on channel=8 note=60 velocity=0 time=0
EXTRACT: pitchwheel channel=8 pitch=-5108 time=0
EXTRACT: note_on channel=8 note=63 velocity=94 time=0
EXTRACT: note_on channel=9 note=36 velocity=101 time=0
EXTRACT: note_on channel=9 note=42 velocity=99 time=0
EXTRACT: pitchwheel channel=5 pitch=-5783 time=0.00384615
EXTRACT: pitchwheel channel=7 pitch=-5783 time=0
EXTRACT: pitchwheel channel=8 pitch=-7968 time=0.0076923
EXTRACT: pitchwheel channel=5 pitch=-6040 time=0.0076923
EXTRACT: pitchwheel channel=7 pitch=-6040 time=0
EXTRACT: pitchwheel channel=8 pitch=-8192 time=0
EXTRACT: pitchwheel channel=5 pitch=-5976 time=0.00384615
EXTRACT: pitchwheel channel=7 pitch=-5976 time=0
EXTRACT: pitchwheel channel=5 pitch=-5430 time=0.0076923
EXTRACT: pitchwheel channel=7 pitch=-5430 time=0
EXTRACT: pitchwheel channel=5 pitch=-4659 time=0.0076923
EXTRACT: pitchwheel channel=7 pitch=-4659 time=0
EXTRACT: pitchwheel channel=5 pitch=-3759 time=0.01153845
EXTRACT: pitchwheel channel=7 pitch=-3759 time=0
EXTRACT: pitchwheel channel=5 pitch=-2795 time=0.0076923
EXTRACT: pitchwheel channel=7 pitch=-2795 time=0
EXTRACT: pitchwheel channel=5 pitch=-1896 time=0.0076923
EXTRACT: pitchwheel channel=7 pitch=-1896 time=0
EXTRACT: pitchwheel channel=5 pitch=-900 time=0.0076923
EXTRACT: pitchwheel channel=7 pitch=-900 time=0
EXTRACT: pitchwheel channel=8 pitch=-7261 time=0.00384615
EXTRACT: pitchwheel channel=5 pitch=0 time=0.00384615
EXTRACT: pitchwheel channel=7 pitch=0 time=0
EXTRACT: pitchwheel channel=8 pitch=-6169 time=0.00384615
EXTRACT: pitchwheel channel=8 pitch=-4980 time=0.0076923
EXTRACT: pitchwheel channel=8 pitch=-4177 time=0.01153845
EXTRACT: note_on channel=9 note=54 velocity=0 time=0.00384615
EXTRACT: note_on channel=9 note=54 velocity=26 time=0
EXTRACT: pitchwheel channel=8 pitch=-3342 time=0.00384615
EXTRACT: note_on channel=5 note=51 velocity=0 time=0.00384615
EXTRACT: note_on channel=7 note=63 velocity=0 time=0
EXTRACT: note_on channel=9 note=36 velocity=0 time=0
EXTRACT: note_on channel=9 note=42 velocity=0 time=0
EXTRACT: pitchwheel channel=8 pitch=-2346 time=0.00384615
EXTRACT: pitchwheel channel=8 pitch=-1350 time=0.0076923
EXTRACT: pitchwheel channel=8 pitch=-707 time=0.0076923
EXTRACT: pitchwheel channel=8 pitch=0 time=0.01153845
EXTRACT: note_on channel=9 note=54 velocity=0 time=0.076923
EXTRACT: note_on channel=9 note=54 velocity=27 time=0
EXTRACT: note_on channel=1 note=36 velocity=88 time=0.0076923
EXTRACT: note_on channel=5 note=50 velocity=110 time=0
EXTRACT: note_on channel=7 note=62 velocity=110 time=0
EXTRACT: note_on channel=8 note=63 velocity=0 time=0
EXTRACT: note_on channel=8 note=62 velocity=97 time=0
EXTRACT: note_on channel=9 note=42 velocity=42 time=0
EXTRACT: note_on channel=9 note=62 velocity=38 time=0
EXTRACT: note_on channel=9 note=54 velocity=0 time=0.1076922
EXTRACT: note_on channel=9 note=54 velocity=30 time=0
EXTRACT: note_on channel=5 note=50 velocity=0 time=0.0076923
EXTRACT: note_on channel=7 note=62 velocity=0 time=0
EXTRACT: note_on channel=9 note=42 velocity=0 time=0
EXTRACT: note_on channel=9 note=62 velocity=0 time=0
EXTRACT: note_on channel=9 note=54 velocity=0 time=0.1076922
EXTRACT: note_on channel=9 note=54 velocity=46 time=0
EXTRACT: note_on channel=1 note=36 velocity=0 time=0.0076923
EXTRACT: note_on channel=3 note=62 velocity=0 time=0
EXTRACT: note_on channel=3 note=67 velocity=0 time=0
EXTRACT: note_on channel=3 note=58 velocity=0 time=0
EXTRACT: note_on channel=3 note=58 velocity=94 time=0
EXTRACT: note_on channel=5 note=48 velocity=85 time=0
EXTRACT: note_on channel=7 note=60 velocity=85 time=0
EXTRACT: note_on channel=8 note=62 velocity=0 time=0
EXTRACT: note_on channel=8 note=60 velocity=73 time=0
EXTRACT: note_on channel=9 note=40 velocity=93 time=0
EXTRACT: note_on channel=9 note=42 velocity=99 time=0
EXTRACT: note_on channel=9 note=62 velocity=49 time=0
EXTRACT: note_on channel=9 note=39 velocity=93 time=0
EXTRACT: note_on channel=3 note=67 velocity=90 time=0.01153845
EXTRACT: note_on channel=3 note=62 velocity=110 time=0.01153845
EXTRACT: note_on channel=9 note=54 velocity=0 time=0.0846153
EXTRACT: note_on channel=9 note=54 velocity=26 time=0
EXTRACT: note_on channel=3 note=62 velocity=0 time=0.0076923
EXTRACT: note_on channel=3 note=67 velocity=0 time=0
EXTRACT: note_on channel=3 note=58 velocity=0 time=0
EXTRACT: note_on channel=5 note=48 velocity=0 time=0
EXTRACT: note_on channel=7 note=60 velocity=0 time=0
EXTRACT: note_on channel=8 note=60 velocity=0 time=0
EXTRACT: note_on channel=9 note=40 velocity=0 time=0
EXTRACT: note_on channel=9 note=42 velocity=0 time=0
EXTRACT: note_on channel=9 note=62 velocity=0 time=0
EXTRACT: note_on channel=9 note=39 velocity=0 time=0
EXTRACT: note_on channel=9 note=54 velocity=0 time=0.1076922
EXTRACT: note_on channel=9 note=54 velocity=28 time=0
EXTRACT: note_on channel=1 note=36 velocity=86 time=0.0076923
EXTRACT: note_on channel=5 note=48 velocity=110 time=0
EXTRACT: note_on channel=7 note=60 velocity=110 time=0
EXTRACT: note_on channel=8 note=60 velocity=104 time=0
EXTRACT: note_on channel=9 note=42 velocity=46 time=0
EXTRACT: note_on channel=9 note=64 velocity=70 time=0
EXTRACT: note_on channel=9 note=54 velocity=0 time=0.1076922
EXTRACT: note_on channel=9 note=54 velocity=29 time=0
EXTRACT: note_on channel=9 note=42 velocity=0 time=0.0076923
EXTRACT: note_on channel=9 note=64 velocity=0 time=0
EXTRACT: note_on channel=9 note=54 velocity=0 time=0.1076922
EXTRACT: note_on channel=9 note=54 velocity=47 time=0
EXTRACT: note_on channel=9 note=36 velocity=94 time=0.0076923
EXTRACT: note_on channel=9 note=42 velocity=94 time=0
EXTRACT: note_on channel=9 note=54 velocity=0 time=0.1076922
EXTRACT: note_on channel=9 note=54 velocity=27 time=0
EXTRACT: note_on channel=1 note=36 velocity=0 time=0.0076923
EXTRACT: note_on channel=9 note=36 velocity=0 time=0
EXTRACT: note_on channel=9 note=42 velocity=0 time=0
EXTRACT: note_on channel=9 note=54 velocity=0 time=0.1076922
EXTRACT: note_on channel=9 note=54 velocity=27 time=0
EXTRACT: note_on channel=1 note=31 velocity=74 time=0.0076923
EXTRACT: note_on channel=3 note=67 velocity=92 time=0
EXTRACT: note_on channel=5 note=48 velocity=0 time=0
EXTRACT: note_on channel=5 note=43 velocity=110 time=0
EXTRACT: note_on channel=7 note=60 velocity=0 time=0
EXTRACT: note_on channel=7 note=55 velocity=110 time=0
EXTRACT: note_on channel=8 note=60 velocity=0 time=0
EXTRACT: note_on channel=8 note=55 velocity=99 time=0
EXTRACT: note_on channel=9 note=36 velocity=88 time=0
EXTRACT: note_on channel=9 note=42 velocity=46 time=0
EXTRACT: note_on channel=9 note=62 velocity=48 time=0
EXTRACT: note_on channel=3 note=58 velocity=97 time=0.01153845
EXTRACT: note_on channel=3 note=62 velocity=107 time=0.01153845
EXTRACT: note_on channel=9 note=42 velocity=0 time=0.03461535
EXTRACT: note_on channel=9 note=54 velocity=0 time=0.04999995
EXTRACT: note_on channel=9 note=54 velocity=27 time=0
EXTRACT: note_on channel=3 note=62 velocity=0 time=0.0076923
EXTRACT: note_on channel=3 note=58 velocity=0 time=0
EXTRACT: note_on channel=3 note=67 velocity=0 time=0
EXTRACT: note_on channel=5 note=43 velocity=0 time=0
EXTRACT: note_on channel=7 note=55 velocity=0 time=0
EXTRACT: note_on channel=8 note=55 velocity=0 time=0
EXTRACT: note_on channel=9 note=36 velocity=0 time=0
EXTRACT: note_on channel=9 note=62 velocity=0 time=0
EXTRACT: note_on channel=9 note=54 velocity=0 time=0.1076922
EXTRACT: note_on channel=9 note=54 velocity=36 time=0
EXTRACT: note_on channel=1 note=31 velocity=0 time=0.0076923
EXTRACT: note_on channel=1 note=33 velocity=101 time=0
EXTRACT: note_on channel=5 note=45 velocity=120 time=0
EXTRACT: note_on channel=6 note=67 velocity=0 time=0
EXTRACT: note_on channel=6 note=62 velocity=0 time=0
EXTRACT: note_on channel=7 note=57 velocity=120 time=0
EXTRACT: note_on channel=8 note=57 velocity=107 time=0
EXTRACT: note_on channel=9 note=40 velocity=93 time=0
EXTRACT: note_on channel=9 note=42 velocity=89 time=0
EXTRACT: note_on channel=9 note=62 velocity=52 time=0
EXTRACT: note_on channel=9 note=39 velocity=93 time=0
EXTRACT: note_on channel=9 note=54 velocity=0 time=0.1076922
EXTRACT: note_on channel=9 note=54 velocity=27 time=0
EXTRACT: note_on channel=9 note=40 velocity=0 time=0.0076923
EXTRACT: note_on channel=9 note=42 velocity=0 time=0
EXTRACT: note_on channel=9 note=62 velocity=0 time=0
EXTRACT: note_on channel=9 note=39 velocity=0 time=0
EXTRACT: note_on channel=9 note=54 velocity=0 time=0.1076922
EXTRACT: note_on channel=9 note=54 velocity=28 time=0
EXTRACT: note_on channel=9 note=36 velocity=71 time=0.0076923
EXTRACT: note_on channel=9 note=42 velocity=51 time=0
EXTRACT: note_on channel=9 note=63 velocity=67 time=0
EXTRACT: note_on channel=0 note=58 velocity=0 time=0.0153846
EXTRACT: note_on channel=0 note=53 velocity=0 time=0.0076923
EXTRACT: note_on channel=0 note=62 velocity=0 time=0.00384615
EXTRACT: note_on channel=9 note=54 velocity=0 time=0.08076915
EXTRACT: note_on channel=9 note=54 velocity=38 time=0
EXTRACT: note_on channel=1 note=33 velocity=0 time=0.0076923
EXTRACT: note_on channel=5 note=45 velocity=0 time=0
EXTRACT: note_on channel=7 note=57 velocity=0 time=0
EXTRACT: note_on channel=8 note=57 velocity=0 time=0
EXTRACT: note_on channel=9 note=36 velocity=0 time=0
EXTRACT: note_on channel=9 note=42 velocity=0 time=0
EXTRACT: note_on channel=9 note=63 velocity=0 time=0
EXTRACT: note_on channel=0 note=55 velocity=83 time=0.0999999
EXTRACT: note_on channel=0 note=60 velocity=92 time=0.00384615
EXTRACT: note_on channel=9 note=54 velocity=0 time=0.00384615
EXTRACT: note_on channel=9 note=54 velocity=39 time=0
EXTRACT: note_on channel=0 note=64 velocity=70 time=0.00384615
EXTRACT: note_on channel=1 note=36 velocity=80 time=0.00384615
EXTRACT: note_on channel=3 note=64 velocity=88 time=0
EXTRACT: note_on channel=6 note=60 velocity=116 time=0
EXTRACT: note_on channel=6 note=72 velocity=116 time=0
EXTRACT: note_on channel=9 note=36 velocity=97 time=0
EXTRACT: note_on channel=9 note=42 velocity=99 time=0
EXTRACT: note_on channel=9 note=49 velocity=84 time=0
EXTRACT: note_on channel=9 note=63 velocity=50 time=0
EXTRACT: note_on channel=3 note=72 velocity=78 time=0.01153845
EXTRACT: note_on channel=3 note=67 velocity=104 time=0.01153845
EXTRACT: note_on channel=9 note=54 velocity=0 time=0.0846153
EXTRACT: note_on channel=9 note=54 velocity=26 time=0
EXTRACT: note_on channel=9 note=36 velocity=0 time=0.0076923
EXTRACT: note_on channel=9 note=42 velocity=0 time=0
EXTRACT: note_on channel=9 note=49 velocity=0 time=0
EXTRACT: note_on channel=9 note=63 velocity=0 time=0
EXTRACT: note_on channel=9 note=54 velocity=0 time=0.1076922
EXTRACT: note_on channel=9 note=54 velocity=26 time=0
EXTRACT: note_on channel=1 note=36 velocity=0 time=0.0076923
EXTRACT: note_on channel=9 note=42 velocity=32 time=0
EXTRACT: note_on channel=9 note=62 velocity=56 time=0
EXTRACT: note_on channel=9 note=54 velocity=0 time=0.1076922
EXTRACT: note_on channel=9 note=54 velocity=27 time=0
EXTRACT: note_on channel=3 note=67 velocity=0 time=0.0076923
EXTRACT: note_on channel=3 note=72 velocity=0 time=0
EXTRACT: note_on channel=3 note=64 velocity=0 time=0
EXTRACT: note_on channel=9 note=42 velocity=0 time=0
EXTRACT: note_on channel=9 note=62 velocity=0 time=0
EXTRACT: note_on channel=9 note=54 velocity=0 time=0.1076922
EXTRACT: note_on channel=9 note=54 velocity=43 time=0
EXTRACT: note_on channel=1 note=36 velocity=88 time=0.0076923
EXTRACT: note_on channel=3 note=64 velocity=88 time=0
EXTRACT: note_on channel=5 note=48 velocity=117 time=0
EXTRACT: note_on channel=6 note=72 velocity=0 time=0
EXTRACT: note_on channel=6 note=60 velocity=0 time=0
EXTRACT: note_on channel=7 note=60 velocity=117 time=0
EXTRACT: note_on channel=8 note=60 velocity=110 time=0
EXTRACT: note_on channel=9 note=40 velocity=93 time=0
EXTRACT: note_on channel=9 note=42 velocity=99 time=0
EXTRACT: note_on channel=9 note=62 velocity=58 time=0
EXTRACT: note_on channel=9 note=39 velocity=93 time=0
EXTRACT: note_on channel=3 note=67 velocity=104 time=0.01153845
EXTRACT: note_on channel=3 note=72 velocity=94 time=0.01153845
EXTRACT: note_on channel=9 note=54 velocity=0 time=0.0846153
EXTRACT: note_on channel=9 note=54 velocity=27 time=0
EXTRACT: note_on channel=3 note=72 velocity=0 time=0.0076923
EXTRACT: note_on channel=3 note=67 velocity=0 time=0
EXTRACT: note_on channel=3 note=64 velocity=0 time=0
EXTRACT: note_on channel=9 note=40 velocity=0 time=0
EXTRACT: note_on channel=9 note=42 velocity=0 time=0
EXTRACT: note_on channel=9 note=62 velocity=0 time=0
EXTRACT: note_on channel=9 note=39 velocity=0 time=0
EXTRACT: note_on channel=9 note=54 velocity=0 time=0.1076922
EXTRACT: note_on channel=9 note=54 velocity=27 time=0
EXTRACT: note_on channel=1 note=36 velocity=0 time=0.0076923
EXTRACT: note_on channel=5 note=48 velocity=0 time=0
EXTRACT: note_on channel=7 note=60 velocity=0 time=0
EXTRACT: note_on channel=8 note=60 velocity=0 time=0
EXTRACT: note_on channel=9 note=42 velocity=49 time=0
EXTRACT: note_on channel=9 note=64 velocity=70 time=0
EXTRACT: note_on channel=9 note=54 velocity=0 time=0.1076922
EXTRACT: note_on channel=9 note=54 velocity=27 time=0
EXTRACT: note_on channel=9 note=42 velocity=0 time=0.0076923
EXTRACT: note_on channel=9 note=64 velocity=0 time=0
EXTRACT: note_on channel=9 note=54 velocity=0 time=0.1076922
EXTRACT: note_on channel=9 note=54 velocity=42 time=0
EXTRACT: note_on channel=1 note=36 velocity=86 time=0.0076923
EXTRACT: note_on channel=5 note=48 velocity=117 time=0
EXTRACT: note_on channel=6 note=60 velocity=115 time=0
EXTRACT: note_on channel=6 note=72 velocity=115 time=0
EXTRACT: note_on channel=7 note=60 velocity=117 time=0
EXTRACT: note_on channel=8 note=60 velocity=113 time=0
EXTRACT: note_on channel=9 note=36 velocity=88 time=0
EXTRACT: note_on channel=9 note=42 velocity=84 time=0
EXTRACT: note_on channel=9 note=54 velocity=0 time=0.1076922
EXTRACT: note_on channel=9 note=54 velocity=28 time=0
EXTRACT: note_on channel=9 note=36 velocity=0 time=0.0076923
EXTRACT: note_on channel=9 note=42 velocity=0 time=0
EXTRACT: note_on channel=6 note=72 velocity=0 time=0.0384615
EXTRACT: note_on channel=6 note=60 velocity=0 time=0
EXTRACT: note_on channel=9 note=54 velocity=0 time=0.0692307
EXTRACT: note_on channel=9 note=54 velocity=28 time=0
EXTRACT: note_on channel=1 note=36 velocity=0 time=0.0076923
EXTRACT: note_on channel=1 note=33 velocity=66 time=0
EXTRACT: note_on channel=3 note=72 velocity=86 time=0
EXTRACT: note_on channel=9 note=36 velocity=94 time=0
EXTRACT: note_on channel=9 note=42 velocity=53 time=0
EXTRACT: note_on channel=9 note=62 velocity=36 time=0
EXTRACT: note_on channel=3 note=64 velocity=86 time=0.01153845
EXTRACT: note_on channel=3 note=67 velocity=104 time=0.01153845
EXTRACT: note_on channel=9 note=54 velocity=0 time=0.0846153
EXTRACT: note_on channel=9 note=54 velocity=28 time=0
EXTRACT: note_on channel=3 note=67 velocity=0 time=0.0076923
EXTRACT: note_on channel=3 note=64 velocity=0 time=0
EXTRACT: note_on channel=3 note=72 velocity=0 time=0
EXTRACT: note_on channel=8 note=60 velocity=0 time=0
EXTRACT: note_on channel=9 note=36 velocity=0 time=0
EXTRACT: note_on channel=9 note=42 velocity=0 time=0
EXTRACT: note_on channel=9 note=62 velocity=0 time=0
EXTRACT: note_on channel=9 note=54 velocity=0 time=0.1076922
EXTRACT: note_on channel=9 note=54 velocity=41 time=0
EXTRACT: note_on channel=1 note=33 velocity=0 time=0.0076923
EXTRACT: note_on channel=1 note=31 velocity=72 time=0
EXTRACT: note_on channel=5 note=48 velocity=0 time=0
EXTRACT: note_on channel=6 note=64 velocity=113 time=0
EXTRACT: note_on channel=6 note=76 velocity=113 time=0
EXTRACT: note_on channel=7 note=60 velocity=0 time=0
EXTRACT: note_on channel=9 note=40 velocity=93 time=0
EXTRACT: note_on channel=9 note=42 velocity=94 time=0
EXTRACT: note_on channel=9 note=62 velocity=52 time=0
EXTRACT: note_on channel=9 note=39 velocity=93 time=0
EXTRACT: note_on channel=0 note=64 velocity=0 time=0.04999995
EXTRACT: note_on channel=0 note=60 velocity=0 time=0.0076923
EXTRACT: note_on channel=0 note=55 velocity=0 time=0
EXTRACT: note_on channel=9 note=54 velocity=0 time=0.04999995
EXTRACT: note_on channel=9 note=54 velocity=28 time=0
EXTRACT: note_on channel=9 note=40 velocity=0 time=0.0076923
EXTRACT: note_on channel=9 note=42 velocity=0 time=0
EXTRACT: note_on channel=9 note=62 velocity=0 time=0
EXTRACT: note_on channel=9 note=39 velocity=0 time=0
EXTRACT: note_on channel=9 note=54 velocity=0 time=0.1076922
EXTRACT: note_on channel=9 note=54 velocity=31 time=0
EXTRACT: note_on channel=0 note=53 velocity=70 time=0.00384615
EXTRACT: note_on channel=0 note=58 velocity=92 time=0.00384615
EXTRACT: note_on channel=0 note=62 velocity=85 time=0
EXTRACT: note_on channel=1 note=31 velocity=0 time=0
EXTRACT: note_on channel=1 note=36 velocity=79 time=0
EXTRACT: note_on channel=3 note=62 velocity=86 time=0
EXTRACT: note_on channel=6 note=76 velocity=0 time=0
EXTRACT: note_on channel=6 note=64 velocity=0 time=0
EXTRACT: note_on channel=6 note=65 velocity=97 time=0
EXTRACT: note_on channel=6 note=77 velocity=97 time=0
EXTRACT: note_on channel=9 note=36 velocity=70 time=0
EXTRACT: note_on channel=9 note=42 velocity=38 time=0
EXTRACT: note_on channel=9 note=63 velocity=56 time=0
EXTRACT: note_on channel=3 note=65 velocity=94 time=0.01153845
EXTRACT: note_on channel=3 note=70 velocity=92 time=0.01153845
EXTRACT: note_on channel=9 note=54 velocity=0 time=0.0846153
EXTRACT: note_on channel=9 note=54 velocity=37 time=0
EXTRACT: note_on channel=9 note=36 velocity=0 time=0.0076923
EXTRACT: note_on channel=9 note=42 velocity=0 time=0
EXTRACT: note_on channel=9 note=63 velocity=0 time=0
EXTRACT: note_on channel=9 note=54 velocity=0 time=0.1076922
EXTRACT: note_on channel=9 note=54 velocity=41 time=0
EXTRACT: note_on channel=1 note=36 velocity=0 time=0.0076923
EXTRACT: note_on channel=5 note=48 velocity=120 time=0
EXTRACT: note_on channel=7 note=60 velocity=120 time=0
EXTRACT: note_on channel=8 note=60 velocity=107 time=0
EXTRACT: note_on channel=9 note=36 velocity=104 time=0
EXTRACT: note_on channel=9 note=42 velocity=94 time=0
EXTRACT: note_on channel=9 note=54 velocity=0 time=0.1076922
EXTRACT: note_on channel=9 note=54 velocity=26 time=0
EXTRACT: note_on channel=5 note=48 velocity=0 time=0.0076923
EXTRACT: note_on channel=7 note=60 velocity=0 time=0
EXTRACT: note_on channel=8 note=60 velocity=0 time=0
EXTRACT: note_on channel=9 note=36 velocity=0 time=0
EXTRACT: note_on channel=9 note=42 velocity=0 time=0
EXTRACT: note_on channel=9 note=54 velocity=0 time=0.1076922
EXTRACT: note_on channel=9 note=54 velocity=27 time=0
EXTRACT: note_on channel=1 note=36 velocity=85 time=0.0076923
EXTRACT: note_on channel=5 note=48 velocity=107 time=0
EXTRACT: note_on channel=7 note=60 velocity=107 time=0
EXTRACT: note_on channel=8 note=60 velocity=99 time=0
EXTRACT: note_on channel=9 note=42 velocity=40 time=0
EXTRACT: note_on channel=9 note=62 velocity=46 time=0
EXTRACT: note_on channel=9 note=54 velocity=0 time=0.1076922
EXTRACT: note_on channel=9 note=54 velocity=30 time=0
EXTRACT: note_on channel=3 note=70 velocity=0 time=0.0076923
EXTRACT: note_on channel=3 note=65 velocity=0 time=0
EXTRACT: note_on channel=3 note=62 velocity=0 time=0
EXTRACT: note_on channel=5 note=48 velocity=0 time=0
EXTRACT: note_on channel=7 note=60 velocity=0 time=0
EXTRACT: note_on channel=8 note=60 velocity=0 time=0
EXTRACT: note_on channel=9 note=42 velocity=0 time=0
EXTRACT: note_on channel=9 note=62 velocity=0 time=0
EXTRACT: note_on channel=9 note=54 velocity=0 time=0.1076922
EXTRACT: note_on channel=9 note=54 velocity=46 time=0
EXTRACT: note_on channel=1 note=36 velocity=0 time=0.0076923
EXTRACT: note_on channel=3 note=65 velocity=94 time=0
EXTRACT: note_on channel=5 note=48 velocity=113 time=0
EXTRACT: note_on channel=7 note=60 velocity=113 time=0
EXTRACT: note_on channel=8 note=60 velocity=88 time=0
EXTRACT: note_on channel=9 note=40 velocity=87 time=0
EXTRACT: note_on channel=9 note=42 velocity=94 time=0
EXTRACT: note_on channel=9 note=62 velocity=50 time=0
EXTRACT: note_on channel=9 note=39 velocity=87 time=0
EXTRACT: note_on channel=3 note=62 velocity=85 time=0.01153845
EXTRACT: note_on channel=3 note=70 velocity=104 time=0.01153845
EXTRACT: note_on channel=9 note=54 velocity=0 time=0.0846153
EXTRACT: note_on channel=9 note=54 velocity=26 time=0
EXTRACT: note_on channel=3 note=70 velocity=0 time=0.0076923
EXTRACT: note_on channel=3 note=62 velocity=0 time=0
EXTRACT: note_on channel=3 note=65 velocity=0 time=0
EXTRACT: note_on channel=5 note=48 velocity=0 time=0
EXTRACT: note_on channel=7 note=60 velocity=0 time=0
EXTRACT: note_on channel=8 note=60 velocity=0 time=0
EXTRACT: note_on channel=9 note=40 velocity=0 time=0
EXTRACT: note_on channel=9 note=42 velocity=0 time=0
EXTRACT: note_on channel=9 note=62 velocity=0 time=0
EXTRACT: note_on channel=9 note=39 velocity=0 time=0
EXTRACT: pitchwheel channel=8 pitch=-579 time=0.0846153
EXTRACT: pitchwheel channel=8 pitch=-2249 time=0.01153845
EXTRACT: pitchwheel channel=8 pitch=-3920 time=0.0076923
EXTRACT: note_on channel=9 note=54 velocity=0 time=0.00384615
EXTRACT: note_on channel=9 note=54 velocity=28 time=0
EXTRACT: pitchwheel channel=5 pitch=-579 time=0.00384615
EXTRACT: pitchwheel channel=7 pitch=-579 time=0
EXTRACT: pitchwheel channel=8 pitch=-5719 time=0
EXTRACT: note_on channel=1 note=36 velocity=86 time=0.00384615
EXTRACT: note_on channel=5 note=52 velocity=117 time=0
EXTRACT: pitchwheel channel=5 pitch=-1960 time=0
EXTRACT: note_on channel=7 note=64 velocity=117 time=0
EXTRACT: pitchwheel channel=7 pitch=-1960 time=0
EXTRACT: note_on channel=8 note=64 velocity=97 time=0
EXTRACT: note_on channel=9 note=42 velocity=34 time=0
EXTRACT: note_on channel=9 note=64 velocity=66 time=0
EXTRACT: pitchwheel channel=5 pitch=-3309 time=0.0076923
EXTRACT: pitchwheel channel=7 pitch=-3309 time=0
EXTRACT: pitchwheel channel=8 pitch=-7775 time=0
EXTRACT: pitchwheel channel=5 pitch=-4209 time=0.0076923
EXTRACT: pitchwheel channel=7 pitch=-4209 time=0
EXTRACT: pitchwheel channel=8 pitch=-8192 time=0
EXTRACT: pitchwheel channel=5 pitch=-4819 time=0.0076923
EXTRACT: pitchwheel channel=7 pitch=-4819 time=0
EXTRACT: pitchwheel channel=5 pitch=-5141 time=0.0153846
EXTRACT: pitchwheel channel=7 pitch=-5141 time=0
EXTRACT: pitchwheel channel=5 pitch=-5301 time=0.0076923
EXTRACT: pitchwheel channel=7 pitch=-5301 time=0
EXTRACT: pitchwheel channel=5 pitch=-5269 time=0.00384615
EXTRACT: pitchwheel channel=7 pitch=-5269 time=0
EXTRACT: pitchwheel channel=5 pitch=-5076 time=0.0076923
EXTRACT: pitchwheel channel=7 pitch=-5076 time=0
EXTRACT: pitchwheel channel=8 pitch=-7839 time=0.00384615
EXTRACT: pitchwheel channel=5 pitch=-4755 time=0.0076923
EXTRACT: pitchwheel channel=7 pitch=-4755 time=0
EXTRACT: pitchwheel channel=8 pitch=-7004 time=0
EXTRACT: pitchwheel channel=5 pitch=-4209 time=0.0076923
EXTRACT: pitchwheel channel=7 pitch=-4209 time=0
EXTRACT: pitchwheel channel=5 pitch=-3727 time=0.0076923
EXTRACT: pitchwheel channel=7 pitch=-3727 time=0
EXTRACT: pitchwheel channel=8 pitch=-5976 time=0
EXTRACT: pitchwheel channel=8 pitch=-5141 time=0.0076923
EXTRACT: pitchwheel channel=5 pitch=-3117 time=0.00384615
EXTRACT: pitchwheel channel=7 pitch=-3117 time=0
EXTRACT: pitchwheel channel=5 pitch=-2442 time=0.00384615
EXTRACT: pitchwheel channel=7 pitch=-2442 time=0
EXTRACT: pitchwheel channel=8 pitch=-4594 time=0
EXTRACT: pitchwheel channel=8 pitch=-3888 time=0.0076923
EXTRACT: note_on channel=9 note=54 velocity=0 time=0
EXTRACT: note_on channel=9 note=54 velocity=29 time=0
EXTRACT: pitchwheel channel=5 pitch=-1735 time=0.00384615
EXTRACT: pitchwheel channel=7 pitch=-1735 time=0
EXTRACT: pitchwheel channel=8 pitch=-3277 time=0.00384615
EXTRACT: note_on channel=9 note=42 velocity=0 time=0
EXTRACT: note_on channel=9 note=64 velocity=0 time=0
EXTRACT: pitchwheel channel=5 pitch=-1061 time=0.00384615
EXTRACT: pitchwheel channel=7 pitch=-1061 time=0
EXTRACT: pitchwheel channel=8 pitch=-2571 time=0.00384615
EXTRACT: pitchwheel channel=5 pitch=-386 time=0.00384615
EXTRACT: pitchwheel channel=7 pitch=-386 time=0
EXTRACT: pitchwheel channel=5 pitch=0 time=0.0076923
EXTRACT: pitchwheel channel=7 pitch=0 time=0
EXTRACT: pitchwheel channel=8 pitch=-1992 time=0
EXTRACT: pitchwheel channel=8 pitch=-1189 time=0.00384615
EXTRACT: pitchwheel channel=8 pitch=-611 time=0.0076923
EXTRACT: pitchwheel channel=8 pitch=0 time=0.0076923
EXTRACT: note_on channel=9 note=54 velocity=0 time=0.0692307
EXTRACT: note_on channel=9 note=54 velocity=47 time=0
EXTRACT: note_on channel=9 note=36 velocity=86 time=0.0076923
EXTRACT: note_on channel=9 note=42 velocity=94 time=0
EXTRACT: note_on channel=9 note=54 velocity=0 time=0.1076922
EXTRACT: note_on channel=9 note=54 velocity=27 time=0
EXTRACT: note_on channel=5 note=52 velocity=0 time=0.0076923
EXTRACT: note_on channel=6 note=77 velocity=0 time=0
EXTRACT: note_on channel=6 note=65 velocity=0 time=0
EXTRACT: note_on channel=7 note=64 velocity=0 time=0
EXTRACT: note_on channel=9 note=36 velocity=0 time=0
EXTRACT: note_on channel=9 note=42 velocity=0 time=0
EXTRACT: note_on channel=9 note=54 velocity=0 time=0.1076922
EXTRACT: note_on channel=9 note=54 velocity=27 time=0
EXTRACT: note_on channel=1 note=36 velocity=0 time=0.0076923
EXTRACT: note_on channel=1 note=31 velocity=97 time=0
EXTRACT: note_on channel=3 note=62 velocity=90 time=0
EXTRACT: note_on channel=5 note=43 velocity=104 time=0
EXTRACT: note_on channel=6 note=67 velocity=109 time=0
EXTRACT: note_on channel=6 note=79 velocity=109 time=0
EXTRACT: note_on channel=7 note=55 velocity=104 time=0
EXTRACT: note_on channel=8 note=64 velocity=0 time=0
EXTRACT: note_on channel=8 note=55 velocity=101 time=0
EXTRACT: note_on channel=9 note=36 velocity=85 time=0
EXTRACT: note_on channel=9 note=42 velocity=31 time=0
EXTRACT: note_on channel=9 note=62 velocity=36 time=0
EXTRACT: note_on channel=3 note=65 velocity=101 time=0.01153845
EXTRACT: note_on channel=3 note=70 velocity=96 time=0.01153845
EXTRACT: note_on channel=9 note=54 velocity=0 time=0.0846153
EXTRACT: note_on channel=9 note=54 velocity=27 time=0
EXTRACT: note_on channel=3 note=70 velocity=0 time=0.0076923
EXTRACT: note_on channel=3 note=65 velocity=0 time=0
EXTRACT: note_on channel=3 note=62 velocity=0 time=0
EXTRACT: note_on channel=5 note=43 velocity=0 time=0
EXTRACT: note_on channel=6 note=79 velocity=0 time=0
EXTRACT: note_on channel=6 note=67 velocity=0 time=0
EXTRACT: note_on channel=7 note=55 velocity=0 time=0
EXTRACT: note_on channel=9 note=36 velocity=0 time=0
EXTRACT: note_on channel=9 note=42 velocity=0 time=0
EXTRACT: note_on channel=9 note=62 velocity=0 time=0
EXTRACT: note_on channel=9 note=54 velocity=0 time=0.1076922
EXTRACT: note_on channel=9 note=54 velocity=36 time=0
EXTRACT: note_on channel=1 note=31 velocity=0 time=0.0076923
EXTRACT: note_on channel=1 note=33 velocity=107 time=0
EXTRACT: note_on channel=5 note=45 velocity=113 time=0
EXTRACT: note_on channel=6 note=63 velocity=100 time=0
EXTRACT: note_on channel=6 note=75 velocity=100 time=0
EXTRACT: note_on channel=7 note=57 velocity=113 time=0
EXTRACT: note_on channel=8 note=55 velocity=0 time=0
EXTRACT: note_on channel=8 note=57 velocity=101 time=0
EXTRACT: note_on channel=9 note=40 velocity=87 time=0
EXTRACT: note_on channel=9 note=42 velocity=99 time=0
EXTRACT: note_on channel=9 note=62 velocity=50 time=0
EXTRACT: note_on channel=9 note=39 velocity=87 time=0
EXTRACT: note_on channel=9 note=54 velocity=0 time=0.1076922
EXTRACT: note_on channel=9 note=54 velocity=27 time=0
EXTRACT: note_on channel=6 note=75 velocity=0 time=0.0076923
EXTRACT: note_on channel=6 note=63 velocity=0 time=0
EXTRACT: note_on channel=6 note=62 velocity=73 time=0
EXTRACT: note_on channel=6 note=74 velocity=73 time=0
EXTRACT: note_on channel=9 note=40 velocity=0 time=0
EXTRACT: note_on channel=9 note=42 velocity=0 time=0
EXTRACT: note_on channel=9 note=62 velocity=0 time=0
EXTRACT: note_on channel=9 note=39 velocity=0 time=0
EXTRACT: note_on channel=9 note=54 velocity=0 time=0.1076922
EXTRACT: note_on channel=9 note=54 velocity=28 time=0
EXTRACT: note_on channel=5 note=45 velocity=0 time=0.0076923
EXTRACT: note_on channel=5 note=43 velocity=82 time=0
EXTRACT: note_on channel=6 note=74 velocity=0 time=0
EXTRACT: note_on channel=6 note=62 velocity=0 time=0
EXTRACT: note_on channel=6 note=60 velocity=88 time=0
EXTRACT: note_on channel=6 note=72 velocity=88 time=0
EXTRACT: note_on channel=7 note=57 velocity=0 time=0
EXTRACT: note_on channel=7 note=55 velocity=82 time=0
EXTRACT: note_on channel=8 note=57 velocity=0 time=0
EXTRACT: note_on channel=8 note=55 velocity=71 time=0
EXTRACT: note_on channel=9 note=36 velocity=71 time=0
EXTRACT: note_on channel=9 note=42 velocity=38 time=0
EXTRACT: note_on channel=9 note=63 velocity=58 time=0
EXTRACT: note_on channel=9 note=54 velocity=0 time=0.1076922
EXTRACT: note_on channel=9 note=54 velocity=38 time=0
EXTRACT: note_on channel=0 note=58 velocity=0 time=0.00384615
EXTRACT: note_on channel=5 note=43 velocity=0 time=0.00384615
EXTRACT: note_on channel=7 note=55 velocity=0 time=0
EXTRACT: note_on channel=8 note=55 velocity=0 time=0
EXTRACT: note_on channel=9 note=36 velocity=0 time=0
EXTRACT: note_on channel=9 note=42 velocity=0 time=0
EXTRACT: note_on channel=9 note=63 velocity=0 time=0
EXTRACT: note_on channel=0 note=62 velocity=0 time=0.00384615
EXTRACT: note_on channel=0 note=53 velocity=0 time=0.02692305
EXTRACT: note_on channel=9 note=54 velocity=0 time=0.076923
EXTRACT: note_on channel=9 note=54 velocity=39 time=0
EXTRACT: note_on channel=0 note=60 velocity=85 time=0.00384615
EXTRACT: note_on channel=0 note=57 velocity=94 time=0.00384615
EXTRACT: note_on channel=0 note=53 velocity=69 time=0
EXTRACT: note_on channel=1 note=33 velocity=0 time=0
EXTRACT: note_on channel=1 note=36 velocity=85 time=0
EXTRACT: note_on channel=3 note=60 velocity=86 time=0
EXTRACT: note_on channel=5 note=48 velocity=107 time=0
EXTRACT: note_on channel=7 note=60 velocity=107 time=0
EXTRACT: note_on channel=8 note=60 velocity=101 time=0
EXTRACT: note_on channel=9 note=36 velocity=101 time=0
EXTRACT: note_on channel=9 note=42 velocity=99 time=0
EXTRACT: note_on channel=3 note=69 velocity=85 time=0.01153845
EXTRACT: note_on channel=3 note=64 velocity=101 time=0.01153845
EXTRACT: note_on channel=9 note=54 velocity=0 time=0.0846153
EXTRACT: note_on channel=9 note=54 velocity=26 time=0
EXTRACT: note_on channel=5 note=48 velocity=0 time=0.0076923
EXTRACT: note_on channel=7 note=60 velocity=0 time=0
EXTRACT: note_on channel=8 note=60 velocity=0 time=0
EXTRACT: note_on channel=9 note=36 velocity=0 time=0
EXTRACT: note_on channel=9 note=42 velocity=0 time=0
EXTRACT: note_on channel=9 note=54 velocity=0 time=0.1076922
EXTRACT: note_on channel=9 note=54 velocity=26 time=0
EXTRACT: note_on channel=1 note=36 velocity=0 time=0.0076923
EXTRACT: note_on channel=5 note=48 velocity=104 time=0
EXTRACT: note_on channel=7 note=60 velocity=104 time=0
EXTRACT: note_on channel=8 note=60 velocity=97 time=0
EXTRACT: note_on channel=9 note=42 velocity=27 time=0
EXTRACT: note_on channel=9 note=62 velocity=34 time=0
EXTRACT: note_on channel=9 note=54 velocity=0 time=0.1076922
EXTRACT: note_on channel=9 note=54 velocity=27 time=0
EXTRACT: note_on channel=3 note=69 velocity=0 time=0.0076923
EXTRACT: note_on channel=5 note=48 velocity=0 time=0
EXTRACT: note_on channel=7 note=60 velocity=0 time=0
EXTRACT: note_on channel=8 note=60 velocity=0 time=0
EXTRACT: note_on channel=9 note=42 velocity=0 time=0
EXTRACT: note_on channel=9 note=62 velocity=0 time=0
EXTRACT: note_on channel=9 note=54 velocity=0 time=0.1076922
EXTRACT: note_on channel=9 note=54 velocity=43 time=0
EXTRACT: note_on channel=1 note=36 velocity=85 time=0.0076923
EXTRACT: note_on channel=3 note=64 velocity=0 time=0
EXTRACT: note_on channel=3 note=60 velocity=0 time=0
EXTRACT: note_on channel=3 note=60 velocity=83 time=0
EXTRACT: note_on channel=5 note=48 velocity=107 time=0
EXTRACT: note_on channel=7 note=60 velocity=107 time=0
EXTRACT: note_on channel=8 note=60 velocity=99 time=0
EXTRACT: note_on channel=9 note=40 velocity=93 time=0
EXTRACT: note_on channel=9 note=42 velocity=94 time=0
EXTRACT: note_on channel=9 note=62 velocity=46 time=0
EXTRACT: note_on channel=9 note=39 velocity=93 time=0
EXTRACT: note_on channel=3 note=69 velocity=85 time=0.01153845
EXTRACT: note_on channel=3 note=64 velocity=99 time=0.01153845
EXTRACT: note_on channel=9 note=54 velocity=0 time=0.0846153
EXTRACT: note_on channel=9 note=54 velocity=27 time=0
EXTRACT: note_on channel=3 note=64 velocity=0 time=0.0076923
EXTRACT: note_on channel=3 note=69 velocity=0 time=0
EXTRACT: note_on channel=3 note=60 velocity=0 time=0
EXTRACT: note_on channel=9 note=40 velocity=0 time=0
EXTRACT: note_on channel=9 note=42 velocity=0 time=0
EXTRACT: note_on channel=9 note=62 velocity=0 time=0
EXTRACT: note_on channel=9 note=39 velocity=0 time=0
EXTRACT: note_on channel=9 note=54 velocity=0 time=0.1076922
EXTRACT: note_on channel=9 note=54 velocity=27 time=0
EXTRACT: note_on channel=5 note=48 velocity=0 time=0.0076923
EXTRACT: note_on channel=7 note=60 velocity=0 time=0
EXTRACT: note_on channel=8 note=60 velocity=0 time=0
EXTRACT: note_on channel=9 note=42 velocity=23 time=0
EXTRACT: note_on channel=9 note=64 velocity=66 time=0
EXTRACT: note_on channel=9 note=54 velocity=0 time=0.1076922
EXTRACT: note_on channel=9 note=54 velocity=27 time=0
EXTRACT: note_on channel=1 note=36 velocity=0 time=0.0076923
EXTRACT: note_on channel=9 note=42 velocity=0 time=0
EXTRACT: note_on channel=9 note=64 velocity=0 time=0
EXTRACT: note_on channel=9 note=54 velocity=0 time=0.1076922
EXTRACT: note_on channel=9 note=54 velocity=42 time=0
EXTRACT: note_on channel=1 note=36 velocity=82 time=0.0076923
EXTRACT: note_on channel=5 note=48 velocity=117 time=0
EXTRACT: note_on channel=7 note=60 velocity=117 time=0
EXTRACT: note_on channel=8 note=60 velocity=110 time=0
EXTRACT: note_on channel=9 note=36 velocity=85 time=0
EXTRACT: note_on channel=9 note=42 velocity=99 time=0
EXTRACT: note_on channel=9 note=54 velocity=0 time=0.1076922
EXTRACT: note_on channel=9 note=54 velocity=28 time=0
EXTRACT: note_on channel=9 note=36 velocity=0 time=0.0076923
EXTRACT: note_on channel=9 note=42 velocity=0 time=0
EXTRACT: note_on channel=9 note=54 velocity=0 time=0.1076922
EXTRACT: note_on channel=9 note=54 velocity=28 time=0
EXTRACT: note_on channel=1 note=36 velocity=0 time=0.0076923
EXTRACT: note_on channel=1 note=33 velocity=80 time=0
EXTRACT: note_on channel=3 note=69 velocity=94 time=0
EXTRACT: note_on channel=5 note=48 velocity=0 time=0
EXTRACT: note_on channel=5 note=43 velocity=94 time=0
EXTRACT: note_on channel=7 note=60 velocity=0 time=0
EXTRACT: note_on channel=7 note=55 velocity=94 time=0
EXTRACT: note_on channel=8 note=60 velocity=0 time=0
EXTRACT: note_on channel=8 note=55 velocity=90 time=0
EXTRACT: note_on channel=9 note=36 velocity=83 time=0
EXTRACT: note_on channel=9 note=42 velocity=53 time=0
EXTRACT: note_on channel=9 note=62 velocity=37 time=0
EXTRACT: note_on channel=3 note=60 velocity=92 time=0.01153845
EXTRACT: note_on channel=3 note=64 velocity=104 time=0.01153845
EXTRACT: note_on channel=9 note=54 velocity=0 time=0.0846153
EXTRACT: note_on channel=9 note=54 velocity=28 time=0
EXTRACT: note_on channel=3 note=64 velocity=0 time=0.0076923
EXTRACT: note_on channel=3 note=60 velocity=0 time=0
EXTRACT: note_on channel=3 note=69 velocity=0 time=0
EXTRACT: note_on channel=5 note=43 velocity=0 time=0
EXTRACT: note_on channel=7 note=55 velocity=0 time=0
EXTRACT: note_on channel=9 note=36 velocity=0 time=0
EXTRACT: note_on channel=9 note=42 velocity=0 time=0
EXTRACT: note_on channel=9 note=62 velocity=0 time=0
EXTRACT: note_on channel=9 note=54 velocity=0 time=0.1076922
EXTRACT: note_on channel=9 note=54 velocity=41 time=0
EXTRACT: note_on channel=1 note=33 velocity=0 time=0.0076923
EXTRACT: note_on channel=1 note=31 velocity=86 time=0
EXTRACT: note_on channel=5 note=45 velocity=117 time=0
EXTRACT: note_on channel=7 note=57 velocity=117 time=0
EXTRACT: note_on channel=8 note=55 velocity=0 time=0
EXTRACT: note_on channel=8 note=64 velocity=104 time=0
EXTRACT: note_on channel=9 note=40 velocity=100 time=0
EXTRACT: note_on channel=9 note=42 velocity=99 time=0
EXTRACT: note_on channel=9 note=62 velocity=43 time=0
EXTRACT: note_on channel=9 note=39 velocity=100 time=0
EXTRACT: note_on channel=9 note=54 velocity=0 time=0.1076922
EXTRACT: note_on channel=9 note=54 velocity=28 time=0
EXTRACT: note_on channel=1 note=31 velocity=0 time=0.0076923
EXTRACT: note_on channel=6 note=72 velocity=0 time=0
EXTRACT: note_on channel=6 note=60 velocity=0 time=0
EXTRACT: note_on channel=9 note=40 velocity=0 time=0
EXTRACT: note_on channel=9 note=42 velocity=0 time=0
EXTRACT: note_on channel=9 note=62 velocity=0 time=0
EXTRACT: note_on channel=9 note=39 velocity=0 time=0
EXTRACT: note_on channel=9 note=54 velocity=0 time=0.1076922
EXTRACT: note_on channel=9 note=54 velocity=31 time=0
EXTRACT: note_on channel=1 note=31 velocity=68 time=0.0076923
EXTRACT: note_on channel=3 note=67 velocity=92 time=0
EXTRACT: note_on channel=5 note=45 velocity=0 time=0
EXTRACT: note_on channel=5 note=48 velocity=99 time=0
EXTRACT: note_on channel=7 note=57 velocity=0 time=0
EXTRACT: note_on channel=7 note=60 velocity=99 time=0
EXTRACT: note_on channel=8 note=64 velocity=0 time=0
EXTRACT: note_on channel=8 note=65 velocity=74 time=0
EXTRACT: note_on channel=9 note=36 velocity=71 time=0
EXTRACT: note_on channel=9 note=42 velocity=31 time=0
EXTRACT: note_on channel=9 note=63 velocity=58 time=0
EXTRACT: note_on channel=3 note=59 velocity=92 time=0.01153845
EXTRACT: note_on channel=3 note=62 velocity=107 time=0.01153845
EXTRACT: note_on channel=0 note=53 velocity=0 time=0.0153846
EXTRACT: note_on channel=0 note=60 velocity=0 time=0.03461535
EXTRACT: note_on channel=0 note=57 velocity=0 time=0.00384615
EXTRACT: note_on channel=9 note=54 velocity=0 time=0.0307692
EXTRACT: note_on channel=9 note=54 velocity=37 time=0
EXTRACT: note_on channel=9 note=36 velocity=0 time=0.0076923
EXTRACT: note_on channel=9 note=42 velocity=0 time=0
EXTRACT: note_on channel=9 note=63 velocity=0 time=0
EXTRACT: note_on channel=9 note=54 velocity=0 time=0.1076922
EXTRACT: note_on channel=9 note=54 velocity=39 time=0
EXTRACT: note_on channel=0 note=62 velocity=72 time=0.00384615
EXTRACT: note_on channel=0 note=67 velocity=94 time=0
EXTRACT: note_on channel=1 note=31 velocity=0 time=0.00384615
EXTRACT: note_on channel=5 note=48 velocity=0 time=0
EXTRACT: note_on channel=5 note=52 velocity=99 time=0
EXTRACT: note_on channel=6 note=67 velocity=110 time=0
EXTRACT: note_on channel=6 note=79 velocity=110 time=0
EXTRACT: note_on channel=7 note=60 velocity=0 time=0
EXTRACT: note_on channel=7 note=64 velocity=99 time=0
EXTRACT: note_on channel=8 note=65 velocity=0 time=0
EXTRACT: note_on channel=8 note=67 velocity=97 time=0
EXTRACT: note_on channel=9 note=36 velocity=101 time=0
EXTRACT: note_on channel=9 note=42 velocity=99 time=0
EXTRACT: note_on channel=0 note=59 velocity=86 time=0.0076923
EXTRACT: pitchwheel channel=5 pitch=-290 time=0.00384615
EXTRACT: pitchwheel channel=7 pitch=-290 time=0
EXTRACT: pitchwheel channel=5 pitch=-1382 time=0.0076923
EXTRACT: pitchwheel channel=7 pitch=-1382 time=0
EXTRACT: pitchwheel channel=5 pitch=-2763 time=0.0153846
EXTRACT: pitchwheel channel=7 pitch=-2763 time=0
EXTRACT: pitchwheel channel=5 pitch=-3856 time=0.0076923
EXTRACT: pitchwheel channel=7 pitch=-3856 time=0
EXTRACT: pitchwheel channel=5 pitch=-4594 time=0.00384615
EXTRACT: pitchwheel channel=7 pitch=-4594 time=0
EXTRACT: pitchwheel channel=5 pitch=-4819 time=0.0076923
EXTRACT: pitchwheel channel=7 pitch=-4819 time=0
EXTRACT: pitchwheel channel=5 pitch=-4691 time=0.0076923
EXTRACT: pitchwheel channel=7 pitch=-4691 time=0
EXTRACT: pitchwheel channel=5 pitch=-4209 time=0.0076923
EXTRACT: pitchwheel channel=7 pitch=-4209 time=0
EXTRACT: pitchwheel channel=5 pitch=-3277 time=0.01153845
EXTRACT: pitchwheel channel=7 pitch=-3277 time=0
EXTRACT: pitchwheel channel=5 pitch=-2410 time=0.0076923
EXTRACT: pitchwheel channel=7 pitch=-2410 time=0
EXTRACT: pitchwheel channel=5 pitch=-1478 time=0.0076923
EXTRACT: pitchwheel channel=7 pitch=-1478 time=0
EXTRACT: pitchwheel channel=5 pitch=-643 time=0.01153845
EXTRACT: pitchwheel channel=7 pitch=-643 time=0
EXTRACT: note_on channel=9 note=54 velocity=0 time=0
EXTRACT: note_on channel=9 note=54 velocity=26 time=0
EXTRACT: pitchwheel channel=5 pitch=0 time=0.0076923
EXTRACT: pitchwheel channel=7 pitch=0 time=0
EXTRACT: note_on channel=9 note=36 velocity=0 time=0
EXTRACT: note_on channel=9 note=42 velocity=0 time=0
EXTRACT: note_on channel=0 note=62 velocity=0 time=0.08846145
EXTRACT: note_on channel=0 note=59 velocity=0 time=0.00384615
EXTRACT: note_on channel=0 note=67 velocity=0 time=0.00384615
EXTRACT: note_on channel=9 note=54 velocity=0 time=0.01153845
EXTRACT: note_on channel=9 note=54 velocity=26 time=0
EXTRACT: note_on channel=1 note=31 velocity=97 time=0.0076923
EXTRACT: note_on channel=5 note=52 velocity=0 time=0
EXTRACT: note_on channel=5 note=50 velocity=101 time=0
EXTRACT: note_on channel=6 note=79 velocity=0 time=0
EXTRACT: note_on channel=6 note=67 velocity=0 time=0
EXTRACT: note_on channel=7 note=64 velocity=0 time=0
EXTRACT: note_on channel=7 note=62 velocity=101 time=0
EXTRACT: note_on channel=8 note=67 velocity=0 time=0
EXTRACT: note_on channel=8 note=65 velocity=104 time=0
EXTRACT: note_on channel=9 note=42 velocity=27 time=0
EXTRACT: note_on channel=9 note=62 velocity=38 time=0
EXTRACT: note_on channel=9 note=54 velocity=0 time=0.1076922
EXTRACT: note_on channel=9 note=54 velocity=27 time=0
EXTRACT: note_on channel=3 note=62 velocity=0 time=0.0076923
EXTRACT: note_on channel=3 note=59 velocity=0 time=0
EXTRACT: note_on channel=3 note=67 velocity=0 time=0
EXTRACT: note_on channel=9 note=42 velocity=0 time=0
EXTRACT: note_on channel=9 note=62 velocity=0 time=0
EXTRACT: note_on channel=0 note=67 velocity=88 time=0.0999999
EXTRACT: note_on channel=0 note=59 velocity=82 time=0.0076923
EXTRACT: note_on channel=9 note=54 velocity=0 time=0
EXTRACT: note_on channel=9 note=54 velocity=43 time=0
EXTRACT: note_on channel=1 note=31 velocity=0 time=0.0076923
EXTRACT: note_on channel=3 note=67 velocity=82 time=0
EXTRACT: note_on channel=5 note=50 velocity=0 time=0
EXTRACT: note_on channel=5 note=48 velocity=99 time=0
EXTRACT: note_on channel=6 note=67 velocity=113 time=0
EXTRACT: note_on channel=6 note=79 velocity=113 time=0
EXTRACT: note_on channel=7 note=62 velocity=0 time=0
EXTRACT: note_on channel=7 note=60 velocity=99 time=0
EXTRACT: note_on channel=8 note=65 velocity=0 time=0
EXTRACT: note_on channel=8 note=64 velocity=97 time=0
EXTRACT: note_on channel=9 note=36 velocity=100 time=0
EXTRACT: note_on channel=9 note=42 velocity=94 time=0
EXTRACT: note_on channel=9 note=62 velocity=49 time=0
EXTRACT: note_on channel=9 note=39 velocity=93 time=0
EXTRACT: note_on channel=3 note=59 velocity=85 time=0.01153845
EXTRACT: note_on channel=0 note=62 velocity=52 time=0.01153845
EXTRACT: note_on channel=3 note=62 velocity=101 time=0
EXTRACT: note_on channel=9 note=36 velocity=0 time=0.03461535
EXTRACT: note_on channel=9 note=54 velocity=0 time=0.04999995
EXTRACT: note_on channel=9 note=54 velocity=27 time=0
EXTRACT: note_on channel=3 note=62 velocity=0 time=0.0076923
EXTRACT: note_on channel=3 note=59 velocity=0 time=0
EXTRACT: note_on channel=3 note=67 velocity=0 time=0
EXTRACT: note_on channel=5 note=48 velocity=0 time=0
EXTRACT: note_on channel=7 note=60 velocity=0 time=0
EXTRACT: note_on channel=8 note=64 velocity=0 time=0
EXTRACT: note_on channel=9 note=42 velocity=0 time=0
EXTRACT: note_on channel=9 note=62 velocity=0 time=0
EXTRACT: note_on channel=9 note=39 velocity=0 time=0
EXTRACT: note_on channel=0 note=62 velocity=0 time=0.10384605
EXTRACT: note_on channel=9 note=54 velocity=0 time=0.00384615
EXTRACT: note_on channel=9 note=54 velocity=27 time=0
EXTRACT: note_on channel=0 note=59 velocity=0 time=0.0076923
EXTRACT: note_on channel=0 note=67 velocity=0 time=0
EXTRACT: note_on channel=1 note=31 velocity=85 time=0
EXTRACT: note_on channel=5 note=48 velocity=120 time=0
EXTRACT: note_on channel=6 note=79 velocity=0 time=0
EXTRACT: note_on channel=6 note=67 velocity=0 time=0
EXTRACT: note_on channel=7 note=60 velocity=120 time=0
EXTRACT: note_on channel=8 note=64 velocity=94 time=0
EXTRACT: note_on channel=9 note=42 velocity=23 time=0
EXTRACT: note_on channel=9 note=64 velocity=70 time=0
EXTRACT: note_on channel=9 note=54 velocity=0 time=0.1076922
EXTRACT: note_on channel=9 note=54 velocity=27 time=0
EXTRACT: note_on channel=1 note=31 velocity=0 time=0.0076923
EXTRACT: note_on channel=9 note=42 velocity=0 time=0
EXTRACT: note_on channel=9 note=64 velocity=0 time=0
EXTRACT: note_on channel=0 note=55 velocity=74 time=0.09615375
EXTRACT: note_on channel=9 note=54 velocity=0 time=0.01153845
EXTRACT: note_on channel=9 note=54 velocity=42 time=0
EXTRACT: note_on channel=1 note=31 velocity=94 time=0.0076923
EXTRACT: note_on channel=6 note=67 velocity=104 time=0
EXTRACT: note_on channel=6 note=79 velocity=104 time=0
EXTRACT: note_on channel=9 note=36 velocity=100 time=0
EXTRACT: note_on channel=9 note=42 velocity=99 time=0
EXTRACT: note_on channel=9 note=36 velocity=0 time=0.05769225
EXTRACT: note_on channel=9 note=54 velocity=0 time=0.04999995
EXTRACT: note_on channel=9 note=54 velocity=28 time=0
EXTRACT: note_on channel=9 note=42 velocity=0 time=0.0076923
EXTRACT: note_on channel=0 note=57 velocity=72 time=0.0999999
EXTRACT: note_on channel=9 note=54 velocity=0 time=0.0076923
EXTRACT: note_on channel=9 note=54 velocity=28 time=0
EXTRACT: note_on channel=1 note=31 velocity=0 time=0.0076923
EXTRACT: note_on channel=1 note=33 velocity=66 time=0
EXTRACT: note_on channel=3 note=67 velocity=94 time=0
EXTRACT: note_on channel=6 note=79 velocity=0 time=0
EXTRACT: note_on channel=6 note=67 velocity=0 time=0
EXTRACT: note_on channel=6 note=69 velocity=97 time=0
EXTRACT: note_on channel=6 note=81 velocity=97 time=0
EXTRACT: note_on channel=9 note=42 velocity=53 time=0
EXTRACT: note_on channel=9 note=62 velocity=48 time=0
EXTRACT: note_on channel=3 note=59 velocity=94 time=0.01153845
EXTRACT: note_on channel=0 note=55 velocity=0 time=0.01153845
EXTRACT: note_on channel=3 note=62 velocity=110 time=0
EXTRACT: note_on channel=2 note=35 velocity=111 time=0.0307692
EXTRACT: note_on channel=2 note=36 velocity=107 time=0.0153846
EXTRACT: note_on channel=2 note=35 velocity=0 time=0.01153845
EXTRACT: note_on channel=2 note=38 velocity=110 time=0.02692305
EXTRACT: note_on channel=9 note=54 velocity=0 time=0
EXTRACT: note_on channel=9 note=54 velocity=28 time=0
EXTRACT: note_on channel=2 note=36 velocity=0 time=0.0076923
EXTRACT: note_on channel=3 note=62 velocity=0 time=0
EXTRACT: note_on channel=3 note=59 velocity=0 time=0
EXTRACT: note_on channel=3 note=67 velocity=0 time=0
EXTRACT: note_on channel=5 note=48 velocity=0 time=0
EXTRACT: note_on channel=7 note=60 velocity=0 time=0
EXTRACT: note_on channel=8 note=64 velocity=0 time=0
EXTRACT: note_on channel=9 note=42 velocity=0 time=0
EXTRACT: note_on channel=9 note=62 velocity=0 time=0
EXTRACT: note_on channel=2 note=40 velocity=111 time=0.01153845
EXTRACT: note_on channel=2 note=38 velocity=0 time=0.0076923
EXTRACT: note_on channel=2 note=41 velocity=113 time=0.01153845
EXTRACT: note_on channel=2 note=40 velocity=0 time=0.0076923
EXTRACT: note_on channel=2 note=43 velocity=117 time=0.01153845
EXTRACT: note_on channel=2 note=41 velocity=0 time=0.0076923
EXTRACT: note_on channel=2 note=45 velocity=116 time=0.0076923
EXTRACT: note_on channel=2 note=43 velocity=0 time=0.0076923
EXTRACT: note_on channel=2 note=47 velocity=116 time=0.01153845
EXTRACT: note_on channel=2 note=45 velocity=0 time=0.0076923
EXTRACT: note_on channel=2 note=48 velocity=116 time=0.0076923
EXTRACT: note_on channel=2 note=47 velocity=0 time=0.0076923
EXTRACT: note_on channel=9 note=54 velocity=0 time=0
EXTRACT: note_on channel=9 note=54 velocity=41 time=0
EXTRACT: note_on channel=0 note=57 velocity=0 time=0.00384615
EXTRACT: note_on channel=2 note=50 velocity=116 time=0
EXTRACT: note_on channel=0 note=60 velocity=92 time=0.00384615
EXTRACT: note_on channel=1 note=33 velocity=0 time=0
EXTRACT: note_on channel=1 note=36 velocity=79 time=0
EXTRACT: note_on channel=6 note=81 velocity=0 time=0
EXTRACT: note_on channel=6 note=69 velocity=0 time=0
EXTRACT: note_on channel=6 note=72 velocity=101 time=0
EXTRACT: note_on channel=6 note=84 velocity=101 time=0
EXTRACT: note_on channel=9 note=42 velocity=99 time=0
EXTRACT: note_on channel=9 note=62 velocity=52 time=0
EXTRACT: note_on channel=9 note=39 velocity=93 time=0
EXTRACT: note_on channel=2 note=48 velocity=0 time=0.0076923
EXTRACT: note_on channel=2 note=52 velocity=115 time=0.00384615
EXTRACT: note_on channel=2 note=50 velocity=0 time=0.0153846
EXTRACT: note_on channel=2 note=53 velocity=115 time=0
EXTRACT: note_on channel=2 note=52 velocity=0 time=0.01153845
EXTRACT: note_on channel=2 note=55 velocity=116 time=0
EXTRACT: note_on channel=2 note=53 velocity=0 time=0.01153845
EXTRACT: note_on channel=2 note=57 velocity=116 time=0.0076923
EXTRACT: note_on channel=2 note=55 velocity=0 time=0.0153846
EXTRACT: note_on channel=2 note=59 velocity=117 time=0.00384615
EXTRACT: note_on channel=2 note=57 velocity=0 time=0.0076923
EXTRACT: note_on channel=2 note=60 velocity=120 time=0.01153845
EXTRACT: note_on channel=2 note=59 velocity=0 time=0.01153845
EXTRACT: note_on channel=9 note=54 velocity=0 time=0
EXTRACT: note_on channel=9 note=54 velocity=28 time=0
EXTRACT: note_on channel=9 note=42 velocity=0 time=0.0076923
EXTRACT: note_on channel=9 note=62 velocity=0 time=0
EXTRACT: note_on channel=9 note=39 velocity=0 time=0
EXTRACT: note_on channel=2 note=60 velocity=116 time=0.01153845
EXTRACT: note_on channel=2 note=60 velocity=0 time=0.0076923
EXTRACT: note_on channel=9 note=54 velocity=0 time=0.08846145
EXTRACT: note_on channel=9 note=54 velocity=31 time=0
EXTRACT: note_on channel=1 note=36 velocity=0 time=0.0076923
EXTRACT: note_on channel=1 note=33 velocity=70 time=0
EXTRACT: note_on channel=6 note=84 velocity=0 time=0
EXTRACT: note_on channel=6 note=72 velocity=0 time=0
EXTRACT: note_on channel=6 note=69 velocity=100 time=0
EXTRACT: note_on channel=6 note=81 velocity=100 time=0
EXTRACT: note_on channel=9 note=42 velocity=31 time=0
EXTRACT: note_on channel=9 note=63 velocity=67 time=0
EXTRACT: note_on channel=0 note=57 velocity=63 time=0.0076923
EXTRACT: note_on channel=0 note=60 velocity=0 time=0.0153846
EXTRACT: note_on channel=2 note=60 velocity=0 time=0.0153846
EXTRACT: note_on channel=2 note=60 velocity=103 time=0.01153845
EXTRACT: note_on channel=2 note=59 velocity=98 time=0.0076923
EXTRACT: note_on channel=2 note=57 velocity=113 time=0.0153846
EXTRACT: note_on channel=2 note=60 velocity=0 time=0.01923075
EXTRACT: note_on channel=2 note=55 velocity=116 time=0.00384615
EXTRACT: note_on channel=9 note=54 velocity=0 time=0.01153845
EXTRACT: note_on channel=9 note=54 velocity=37 time=0
EXTRACT: note_on channel=2 note=59 velocity=0 time=0.0076923
EXTRACT: note_on channel=9 note=42 velocity=0 time=0
EXTRACT: note_on channel=9 note=63 velocity=0 time=0
EXTRACT: note_on channel=2 note=53 velocity=113 time=0.00384615
EXTRACT: note_on channel=2 note=57 velocity=0 time=0.0153846
EXTRACT: note_on channel=2 note=52 velocity=113 time=0.0076923
EXTRACT: note_on channel=2 note=55 velocity=0 time=0.01153845
EXTRACT: note_on channel=2 note=50 velocity=111 time=0.0076923
EXTRACT: note_on channel=2 note=53 velocity=0 time=0.0076923
EXTRACT: note_on channel=2 note=48 velocity=110 time=0.01153845
EXTRACT: note_on channel=2 note=52 velocity=0 time=0.00384615
EXTRACT: note_on channel=2 note=47 velocity=109 time=0.0153846
EXTRACT: note_on channel=2 note=50 velocity=0 time=0.00384615
EXTRACT: note_on channel=2 note=45 velocity=108 time=0.0153846
EXTRACT: note_on channel=2 note=48 velocity=0 time=0.00384615
EXTRACT: note_on channel=9 note=54 velocity=0 time=0
EXTRACT: note_on channel=0 note=55 velocity=72 time=0.0076923
EXTRACT: note_on channel=0 note=52 velocity=66 time=0
EXTRACT: note_on channel=0 note=60 velocity=67 time=0
EXTRACT: note_on channel=1 note=33 velocity=0 time=0
EXTRACT: note_on channel=1 note=36 velocity=107 time=0
EXTRACT: note_on channel=3 note=72 velocity=80 time=0
EXTRACT: note_on channel=5 note=64 velocity=100 time=0
EXTRACT: note_on channel=6 note=81 velocity=0 time=0
EXTRACT: note_on channel=6 note=69 velocity=0 time=0
EXTRACT: note_on channel=6 note=84 velocity=100 time=0
EXTRACT: note_on channel=6 note=72 velocity=100 time=0
EXTRACT: note_on channel=7 note=67 velocity=110 time=0
EXTRACT: note_on channel=8 note=72 velocity=92 time=0
EXTRACT: note_on channel=9 note=36 velocity=97 time=0
EXTRACT: note_on channel=9 note=42 velocity=99 time=0
EXTRACT: note_on channel=9 note=49 velocity=83 time=0
EXTRACT: note_on channel=9 note=63 velocity=50 time=0
EXTRACT: note_on channel=2 note=43 velocity=108 time=0.0076923
EXTRACT: note_on channel=2 note=47 velocity=0 time=0.00384615
EXTRACT: note_on channel=3 note=67 velocity=85 time=0
EXTRACT: note_on channel=2 note=41 velocity=109 time=0.01153845
EXTRACT: note_on channel=3 note=64 velocity=82 time=0
EXTRACT: note_on channel=0 note=57 velocity=0 time=0.00384615
EXTRACT: note_on channel=2 note=45 velocity=0 time=0.00384615
EXTRACT: note_on channel=4 note=79 velocity=120 time=0.0076923
EXTRACT: note_on channel=2 note=40 velocity=109 time=0.0076923
EXTRACT: note_on channel=2 note=43 velocity=0 time=0.01153845
EXTRACT: note_on channel=2 note=41 velocity=0 time=0.01153845
EXTRACT: note_on channel=2 note=38 velocity=109 time=0.00384615
EXTRACT: note_on channel=2 note=40 velocity=0 time=0.0153846
EXTRACT: note_on channel=2 note=36 velocity=110 time=0
EXTRACT: note_on channel=2 note=38 velocity=0 time=0.01923075
EXTRACT: note_on channel=9 note=54 velocity=7 time=0
EXTRACT: note_on channel=9 note=36 velocity=0 time=0.0076923
EXTRACT: note_on channel=9 note=42 velocity=0 time=0
EXTRACT: note_on channel=9 note=49 velocity=0 time=0
EXTRACT: note_on channel=9 note=63 velocity=0 time=0
EXTRACT: note_on channel=2 note=35 velocity=113 time=0.00384615
EXTRACT: note_on channel=2 note=36 velocity=0 time=0.00384615
EXTRACT: note_on channel=2 note=35 velocity=0 time=0.02692305
EXTRACT: note_on channel=6 note=72 velocity=0 time=0.04230765
EXTRACT: note_on channel=6 note=84 velocity=0 time=0
EXTRACT: note_on channel=9 note=54 velocity=0 time=0.0307692
EXTRACT: note_on channel=9 note=54 velocity=7 time=0
EXTRACT: note_on channel=1 note=36 velocity=0 time=0.0076923
EXTRACT: note_on channel=7 note=67 velocity=0 time=0
EXTRACT: note_on channel=8 note=72 velocity=0 time=0
EXTRACT: note_on channel=9 note=42 velocity=32 time=0
EXTRACT: note_on channel=9 note=62 velocity=56 time=0
EXTRACT: note_on channel=9 note=54 velocity=0 time=0.1076922
EXTRACT: note_on channel=9 note=54 velocity=7 time=0
EXTRACT: note_on channel=3 note=64 velocity=0 time=0.0076923
EXTRACT: note_on channel=3 note=67 velocity=0 time=0
EXTRACT: note_on channel=3 note=72 velocity=0 time=0
EXTRACT: note_on channel=5 note=64 velocity=0 time=0
EXTRACT: note_on channel=9 note=42 velocity=0 time=0
EXTRACT: note_on channel=9 note=62 velocity=0 time=0
EXTRACT: note_on channel=9 note=54 velocity=0 time=0.1076922
EXTRACT: note_on channel=9 note=54 velocity=10 time=0
EXTRACT: note_on channel=1 note=36 velocity=110 time=0.0076923
EXTRACT: note_on channel=3 note=67 velocity=101 time=0
EXTRACT: note_on channel=5 note=60 velocity=117 time=0
EXTRACT: note_on channel=7 note=64 velocity=107 time=0
EXTRACT: note_on channel=8 note=67 velocity=90 time=0
EXTRACT: note_on channel=9 note=40 velocity=93 time=0
EXTRACT: note_on channel=9 note=42 velocity=99 time=0
EXTRACT: note_on channel=9 note=62 velocity=58 time=0
EXTRACT: note_on channel=9 note=39 velocity=93 time=0
EXTRACT: note_on channel=3 note=64 velocity=90 time=0.01153845
EXTRACT: note_on channel=3 note=72 velocity=94 time=0.01153845
EXTRACT: note_on channel=9 note=54 velocity=0 time=0.0846153
EXTRACT: note_on channel=9 note=54 velocity=13 time=0
EXTRACT: note_on channel=3 note=72 velocity=0 time=0.0076923
EXTRACT: note_on channel=3 note=64 velocity=0 time=0
EXTRACT: note_on channel=3 note=67 velocity=0 time=0
EXTRACT: note_on channel=9 note=40 velocity=0 time=0
EXTRACT: note_on channel=9 note=42 velocity=0 time=0
EXTRACT: note_on channel=9 note=62 velocity=0 time=0
EXTRACT: note_on channel=9 note=39 velocity=0 time=0
EXTRACT: note_on channel=9 note=54 velocity=0 time=0.1076922
EXTRACT: note_on channel=9 note=54 velocity=12 time=0
EXTRACT: note_on channel=1 note=36 velocity=0 time=0.0076923
EXTRACT: note_on channel=7 note=64 velocity=0 time=0
EXTRACT: note_on channel=8 note=67 velocity=0 time=0
EXTRACT: note_on channel=9 note=42 velocity=49 time=0
EXTRACT: note_on channel=9 note=64 velocity=70 time=0
EXTRACT: note_on channel=9 note=54 velocity=0 time=0.1076922
EXTRACT: note_on channel=9 note=54 velocity=13 time=0
EXTRACT: note_on channel=5 note=60 velocity=0 time=0.0076923
EXTRACT: note_on channel=9 note=42 velocity=0 time=0
EXTRACT: note_on channel=9 note=64 velocity=0 time=0
EXTRACT: note_on channel=9 note=54 velocity=0 time=0.1076922
EXTRACT: note_on channel=9 note=54 velocity=42 time=0
EXTRACT: note_on channel=1 note=36 velocity=104 time=0.0076923
EXTRACT: note_on channel=5 note=55 velocity=117 time=0
EXTRACT: note_on channel=7 note=60 velocity=110 time=0
EXTRACT: note_on channel=8 note=64 velocity=99 time=0
EXTRACT: note_on channel=9 note=36 velocity=88 time=0
EXTRACT: note_on channel=9 note=42 velocity=84 time=0
EXTRACT: note_on channel=9 note=54 velocity=0 time=0.1076922
EXTRACT: note_on channel=9 note=54 velocity=28 time=0
EXTRACT: note_on channel=9 note=36 velocity=0 time=0.0076923
EXTRACT: note_on channel=9 note=42 velocity=0 time=0
EXTRACT: note_on channel=9 note=54 velocity=0 time=0.1076922
EXTRACT: note_on channel=9 note=54 velocity=28 time=0
EXTRACT: note_on channel=1 note=36 velocity=0 time=0.0076923
EXTRACT: note_on channel=1 note=31 velocity=71 time=0
EXTRACT: note_on channel=3 note=72 velocity=83 time=0
EXTRACT: note_on channel=9 note=36 velocity=94 time=0
EXTRACT: note_on channel=9 note=42 velocity=53 time=0
EXTRACT: note_on channel=9 note=62 velocity=36 time=0
EXTRACT: note_on channel=3 note=64 velocity=85 time=0.01153845
EXTRACT: note_on channel=3 note=67 velocity=104 time=0.01153845
EXTRACT: note_on channel=9 note=54 velocity=0 time=0.0846153
EXTRACT: note_on channel=9 note=54 velocity=28 time=0
EXTRACT: note_on channel=3 note=67 velocity=0 time=0.0076923
EXTRACT: note_on channel=3 note=64 velocity=0 time=0
EXTRACT: note_on channel=3 note=72 velocity=0 time=0
EXTRACT: note_on channel=7 note=60 velocity=0 time=0
EXTRACT: note_on channel=9 note=36 velocity=0 time=0
EXTRACT: note_on channel=9 note=42 velocity=0 time=0
EXTRACT: note_on channel=9 note=62 velocity=0 time=0
EXTRACT: note_on channel=9 note=54 velocity=0 time=0.1076922
EXTRACT: note_on channel=9 note=54 velocity=41 time=0
EXTRACT: note_on channel=0 note=55 velocity=0 time=0.0076923
EXTRACT: note_on channel=1 note=31 velocity=0 time=0
EXTRACT: note_on channel=1 note=33 velocity=83 time=0
EXTRACT: note_on channel=5 note=55 velocity=0 time=0
EXTRACT: note_on channel=8 note=64 velocity=0 time=0
EXTRACT: note_on channel=9 note=40 velocity=93 time=0
EXTRACT: note_on channel=9 note=42 velocity=94 time=0
EXTRACT: note_on channel=9 note=62 velocity=52 time=0
EXTRACT: note_on channel=9 note=39 velocity=93 time=0
EXTRACT: note_on channel=9 note=54 velocity=0 time=0.1076922
EXTRACT: note_on channel=9 note=54 velocity=28 time=0
EXTRACT: note_on channel=0 note=52 velocity=0 time=0.0076923
EXTRACT: note_on channel=0 note=60 velocity=0 time=0
EXTRACT: note_on channel=9 note=40 velocity=0 time=0
EXTRACT: note_on channel=9 note=42 velocity=0 time=0
EXTRACT: note_on channel=9 note=62 velocity=0 time=0
EXTRACT: note_on channel=9 note=39 velocity=0 time=0
EXTRACT: note_on channel=9 note=54 velocity=0 time=0.1076922
EXTRACT: note_on channel=9 note=54 velocity=31 time=0
EXTRACT: note_on channel=0 note=53 velocity=78 time=0.0076923
EXTRACT: note_on channel=0 note=50 velocity=64 time=0
EXTRACT: note_on channel=0 note=58 velocity=68 time=0
EXTRACT: note_on channel=1 note=33 velocity=0 time=0
EXTRACT: note_on channel=1 note=34 velocity=104 time=0
EXTRACT: note_on channel=3 note=62 velocity=86 time=0
EXTRACT: note_on channel=5 note=58 velocity=109 time=0
EXTRACT: note_on channel=7 note=62 velocity=107 time=0
EXTRACT: note_on channel=8 note=65 velocity=104 time=0
EXTRACT: note_on channel=9 note=36 velocity=70 time=0
EXTRACT: note_on channel=9 note=42 velocity=38 time=0
EXTRACT: note_on channel=9 note=63 velocity=56 time=0
EXTRACT: note_on channel=3 note=65 velocity=92 time=0.01153845
EXTRACT: note_on channel=3 note=70 velocity=96 time=0.01153845
EXTRACT: note_on channel=9 note=54 velocity=0 time=0.0846153
EXTRACT: note_on channel=9 note=54 velocity=37 time=0
EXTRACT: note_on channel=9 note=36 velocity=0 time=0.0076923
EXTRACT: note_on channel=9 note=42 velocity=0 time=0
EXTRACT: note_on channel=9 note=63 velocity=0 time=0
EXTRACT: note_on channel=9 note=54 velocity=0 time=0.1076922
EXTRACT: note_on channel=9 note=54 velocity=41 time=0
EXTRACT: note_on channel=9 note=36 velocity=104 time=0.0076923
EXTRACT: note_on channel=9 note=42 velocity=94 time=0
EXTRACT: note_on channel=9 note=54 velocity=0 time=0.1076922
EXTRACT: note_on channel=9 note=54 velocity=10 time=0
EXTRACT: note_on channel=5 note=58 velocity=0 time=0.0076923
EXTRACT: note_on channel=7 note=62 velocity=0 time=0
EXTRACT: note_on channel=8 note=65 velocity=0 time=0
EXTRACT: note_on channel=9 note=36 velocity=0 time=0
EXTRACT: note_on channel=9 note=42 velocity=0 time=0
EXTRACT: note_on channel=9 note=54 velocity=0 time=0.1076922
EXTRACT: note_on channel=9 note=54 velocity=10 time=0
EXTRACT: note_on channel=1 note=34 velocity=0 time=0.0076923
EXTRACT: note_on channel=1 note=29 velocity=83 time=0
EXTRACT: note_on channel=5 note=58 velocity=114 time=0
EXTRACT: note_on channel=7 note=62 velocity=99 time=0
EXTRACT: note_on channel=8 note=65 velocity=88 time=0
EXTRACT: note_on channel=9 note=42 velocity=40 time=0
EXTRACT: note_on channel=9 note=62 velocity=46 time=0
EXTRACT: note_on channel=9 note=54 velocity=0 time=0.1076922
EXTRACT: note_on channel=9 note=54 velocity=11 time=0
EXTRACT: note_on channel=3 note=70 velocity=0 time=0.0076923
EXTRACT: note_on channel=3 note=62 velocity=0 time=0
EXTRACT: note_on channel=5 note=58 velocity=0 time=0
EXTRACT: note_on channel=7 note=62 velocity=0 time=0
EXTRACT: note_on channel=9 note=42 velocity=0 time=0
EXTRACT: note_on channel=9 note=62 velocity=0 time=0
EXTRACT: note_on channel=8 note=65 velocity=0 time=0.0384615
EXTRACT: note_on channel=4 note=79 velocity=0 time=0.04999995
EXTRACT: note_on channel=4 note=72 velocity=99 time=0.0153846
EXTRACT: note_on channel=9 note=54 velocity=0 time=0.00384615
EXTRACT: note_on channel=9 note=54 velocity=11 time=0
EXTRACT: note_on channel=1 note=29 velocity=0 time=0.0076923
EXTRACT: note_on channel=1 note=31 velocity=68 time=0
EXTRACT: note_on channel=3 note=65 velocity=0 time=0
EXTRACT: note_on channel=3 note=65 velocity=88 time=0
EXTRACT: note_on channel=5 note=58 velocity=109 time=0
EXTRACT: note_on channel=7 note=62 velocity=104 time=0
EXTRACT: note_on channel=8 note=65 velocity=94 time=0
EXTRACT: note_on channel=9 note=40 velocity=87 time=0
EXTRACT: note_on channel=9 note=42 velocity=94 time=0
EXTRACT: note_on channel=9 note=62 velocity=50 time=0
EXTRACT: note_on channel=9 note=39 velocity=87 time=0
EXTRACT: note_on channel=3 note=62 velocity=82 time=0.01153845
EXTRACT: note_on channel=3 note=70 velocity=100 time=0.01153845
EXTRACT: note_on channel=9 note=54 velocity=0 time=0.0846153
EXTRACT: note_on channel=9 note=54 velocity=11 time=0
EXTRACT: note_on channel=3 note=70 velocity=0 time=0.0076923
EXTRACT: note_on channel=3 note=62 velocity=0 time=0
EXTRACT: note_on channel=3 note=65 velocity=0 time=0
EXTRACT: note_on channel=9 note=40 velocity=0 time=0
EXTRACT: note_on channel=9 note=42 velocity=0 time=0
EXTRACT: note_on channel=9 note=62 velocity=0 time=0
EXTRACT: note_on channel=9 note=39 velocity=0 time=0
EXTRACT: note_on channel=9 note=54 velocity=0 time=0.1076922
EXTRACT: note_on channel=9 note=54 velocity=13 time=0
EXTRACT: note_on channel=1 note=31 velocity=0 time=0.0076923
EXTRACT: note_on channel=1 note=34 velocity=96 time=0
EXTRACT: note_on channel=5 note=58 velocity=0 time=0
EXTRACT: note_on channel=5 note=57 velocity=88 time=0
EXTRACT: note_on channel=7 note=62 velocity=0 time=0
EXTRACT: note_on channel=7 note=60 velocity=75 time=0
EXTRACT: note_on channel=8 note=65 velocity=0 time=0
EXTRACT: note_on channel=8 note=64 velocity=69 time=0
EXTRACT: note_on channel=9 note=42 velocity=34 time=0
EXTRACT: note_on channel=9 note=64 velocity=66 time=0
EXTRACT: note_on channel=9 note=54 velocity=0 time=0.1076922
EXTRACT: note_on channel=9 note=54 velocity=13 time=0
EXTRACT: note_on channel=8 note=64 velocity=0 time=0.0076923
EXTRACT: note_on channel=9 note=42 velocity=0 time=0
EXTRACT: note_on channel=9 note=64 velocity=0 time=0
EXTRACT: note_on channel=4 note=76 velocity=101 time=0.08846145
EXTRACT: note_on channel=9 note=54 velocity=0 time=0.01923075
EXTRACT: note_on channel=9 note=54 velocity=38 time=0
EXTRACT: note_on channel=5 note=57 velocity=0 time=0.0076923
EXTRACT: note_on channel=5 note=60 velocity=113 time=0
EXTRACT: note_on channel=7 note=60 velocity=0 time=0
EXTRACT: note_on channel=7 note=64 velocity=107 time=0
EXTRACT: note_on channel=8 note=67 velocity=99 time=0
EXTRACT: note_on channel=9 note=36 velocity=86 time=0
EXTRACT: note_on channel=9 note=42 velocity=94 time=0
EXTRACT: note_on channel=4 note=72 velocity=0 time=0.0076923
EXTRACT: note_on channel=9 note=54 velocity=0 time=0.0999999
EXTRACT: note_on channel=9 note=54 velocity=27 time=0
EXTRACT: note_on channel=9 note=36 velocity=0 time=0.0076923
EXTRACT: note_on channel=9 note=42 velocity=0 time=0
EXTRACT: note_on channel=9 note=54 velocity=0 time=0.1076922
EXTRACT: note_on channel=9 note=54 velocity=27 time=0
EXTRACT: note_on channel=1 note=34 velocity=0 time=0.0076923
EXTRACT: note_on channel=1 note=29 velocity=85 time=0
EXTRACT: note_on channel=3 note=65 velocity=94 time=0
EXTRACT: note_on channel=9 note=36 velocity=85 time=0
EXTRACT: note_on channel=9 note=42 velocity=31 time=0
EXTRACT: note_on channel=9 note=62 velocity=36 time=0
EXTRACT: note_on channel=3 note=62 velocity=90 time=0.01153845
EXTRACT: note_on channel=3 note=70 velocity=96 time=0.01153845
EXTRACT: note_on channel=9 note=54 velocity=0 time=0.0846153
EXTRACT: note_on channel=9 note=54 velocity=27 time=0
EXTRACT: note_on channel=3 note=70 velocity=0 time=0.0076923
EXTRACT: note_on channel=3 note=62 velocity=0 time=0
EXTRACT: note_on channel=3 note=65 velocity=0 time=0
EXTRACT: note_on channel=5 note=60 velocity=0 time=0
EXTRACT: note_on channel=7 note=64 velocity=0 time=0
EXTRACT: note_on channel=8 note=67 velocity=0 time=0
EXTRACT: note_on channel=9 note=36 velocity=0 time=0
EXTRACT: note_on channel=9 note=42 velocity=0 time=0
EXTRACT: note_on channel=9 note=62 velocity=0 time=0
EXTRACT: note_on channel=4 note=77 velocity=97 time=0.09615375
EXTRACT: note_on channel=4 note=76 velocity=0 time=0.0076923
EXTRACT: note_on channel=9 note=54 velocity=0 time=0.00384615
EXTRACT: note_on channel=9 note=54 velocity=36 time=0
EXTRACT: note_on channel=1 note=29 velocity=0 time=0.0076923
EXTRACT: note_on channel=1 note=31 velocity=71 time=0
EXTRACT: note_on channel=7 note=64 velocity=35 time=0
EXTRACT: note_on channel=9 note=40 velocity=87 time=0
EXTRACT: note_on channel=9 note=42 velocity=99 time=0
EXTRACT: note_on channel=9 note=62 velocity=50 time=0
EXTRACT: note_on channel=9 note=39 velocity=87 time=0
EXTRACT: note_on channel=9 note=54 velocity=0 time=0.1076922
EXTRACT: note_on channel=9 note=54 velocity=27 time=0
EXTRACT: note_on channel=7 note=64 velocity=0 time=0.0076923
EXTRACT: note_on channel=9 note=40 velocity=0 time=0
EXTRACT: note_on channel=9 note=42 velocity=0 time=0
EXTRACT: note_on channel=9 note=62 velocity=0 time=0
EXTRACT: note_on channel=9 note=39 velocity=0 time=0
EXTRACT: note_on channel=9 note=54 velocity=0 time=0.1076922
EXTRACT: note_on channel=9 note=54 velocity=28 time=0
EXTRACT: note_on channel=0 note=58 velocity=0 time=0.0076923
EXTRACT: note_on channel=0 note=53 velocity=0 time=0
EXTRACT: note_on channel=1 note=31 velocity=0 time=0
EXTRACT: note_on channel=1 note=34 velocity=92 time=0
EXTRACT: note_on channel=5 note=55 velocity=94 time=0
EXTRACT: note_on channel=7 note=60 velocity=97 time=0
EXTRACT: note_on channel=8 note=64 velocity=97 time=0
EXTRACT: note_on channel=9 note=36 velocity=71 time=0
EXTRACT: note_on channel=9 note=42 velocity=38 time=0
EXTRACT: note_on channel=9 note=63 velocity=58 time=0
EXTRACT: note_on channel=9 note=54 velocity=0 time=0.1076922
EXTRACT: note_on channel=9 note=54 velocity=38 time=0
EXTRACT: note_on channel=0 note=50 velocity=0 time=0.0076923
EXTRACT: note_on channel=8 note=64 velocity=0 time=0
EXTRACT: note_on channel=9 note=36 velocity=0 time=0
EXTRACT: note_on channel=9 note=42 velocity=0 time=0
EXTRACT: note_on channel=9 note=63 velocity=0 time=0
EXTRACT: note_on channel=5 note=55 velocity=0 time=0.076923
EXTRACT: note_on channel=9 note=54 velocity=0 time=0.0307692
EXTRACT: note_on channel=9 note=54 velocity=39 time=0
EXTRACT: note_on channel=0 note=52 velocity=62 time=0.0076923
EXTRACT: note_on channel=0 note=48 velocity=62 time=0
EXTRACT: note_on channel=0 note=57 velocity=67 time=0
EXTRACT: note_on channel=1 note=34 velocity=0 time=0
EXTRACT: note_on channel=1 note=33 velocity=85 time=0
EXTRACT: note_on channel=3 note=60 velocity=83 time=0
EXTRACT: note_on channel=5 note=57 velocity=109 time=0
EXTRACT: note_on channel=7 note=60 velocity=0 time=0
EXTRACT: note_on channel=7 note=62 velocity=97 time=0
EXTRACT: note_on channel=8 note=65 velocity=94 time=0
EXTRACT: note_on channel=9 note=36 velocity=101 time=0
EXTRACT: note_on channel=9 note=42 velocity=99 time=0
EXTRACT: note_on channel=3 note=69 velocity=75 time=0.01153845
EXTRACT: note_on channel=4 note=77 velocity=0 time=0
EXTRACT: note_on channel=4 note=81 velocity=88 time=0.00384615
EXTRACT: note_on channel=3 note=64 velocity=97 time=0.0076923
EXTRACT: note_on channel=9 note=54 velocity=0 time=0.0846153
EXTRACT: note_on channel=9 note=54 velocity=7 time=0
EXTRACT: note_on channel=9 note=36 velocity=0 time=0.0076923
EXTRACT: note_on channel=9 note=42 velocity=0 time=0
EXTRACT: note_on channel=9 note=54 velocity=0 time=0.1076922
EXTRACT: note_on channel=9 note=54 velocity=7 time=0
EXTRACT: note_on channel=1 note=33 velocity=0 time=0.0076923
EXTRACT: note_on channel=5 note=57 velocity=0 time=0
EXTRACT: note_on channel=7 note=62 velocity=0 time=0
EXTRACT: note_on channel=8 note=65 velocity=0 time=0
EXTRACT: note_on channel=9 note=42 velocity=27 time=0
EXTRACT: note_on channel=9 note=62 velocity=34 time=0
EXTRACT: note_on channel=9 note=54 velocity=0 time=0.1076922
EXTRACT: note_on channel=9 note=54 velocity=7 time=0
EXTRACT: note_on channel=9 note=42 velocity=0 time=0.0076923
EXTRACT: note_on channel=9 note=62 velocity=0 time=0
EXTRACT: note_on channel=9 note=54 velocity=0 time=0.1076922
EXTRACT: note_on channel=9 note=54 velocity=10 time=0
EXTRACT: note_on channel=1 note=33 velocity=90 time=0.0076923
EXTRACT: note_on channel=3 note=64 velocity=0 time=0
EXTRACT: note_on channel=3 note=69 velocity=0 time=0
EXTRACT: note_on channel=3 note=60 velocity=0 time=0
EXTRACT: note_on channel=3 note=60 velocity=88 time=0
EXTRACT: note_on channel=5 note=57 velocity=117 time=0
EXTRACT: note_on channel=7 note=62 velocity=101 time=0
EXTRACT: note_on channel=8 note=65 velocity=104 time=0
EXTRACT: note_on channel=9 note=40 velocity=93 time=0
EXTRACT: note_on channel=9 note=42 velocity=94 time=0
EXTRACT: note_on channel=9 note=62 velocity=46 time=0
EXTRACT: note_on channel=9 note=39 velocity=93 time=0
EXTRACT: note_on channel=3 note=69 velocity=85 time=0.01153845
EXTRACT: note_on channel=3 note=64 velocity=104 time=0.01153845
EXTRACT: note_on channel=9 note=54 velocity=0 time=0.0846153
EXTRACT: note_on channel=9 note=54 velocity=13 time=0
EXTRACT: note_on channel=3 note=64 velocity=0 time=0.0076923
EXTRACT: note_on channel=3 note=69 velocity=0 time=0
EXTRACT: note_on channel=3 note=60 velocity=0 time=0
EXTRACT: note_on channel=9 note=40 velocity=0 time=0
EXTRACT: note_on channel=9 note=42 velocity=0 time=0
EXTRACT: note_on channel=9 note=62 velocity=0 time=0
EXTRACT: note_on channel=9 note=39 velocity=0 time=0
EXTRACT: note_on channel=9 note=54 velocity=0 time=0.1076922
EXTRACT: note_on channel=9 note=54 velocity=12 time=0
EXTRACT: note_on channel=1 note=33 velocity=0 time=0.0076923
EXTRACT: note_on channel=5 note=57 velocity=0 time=0
EXTRACT: note_on channel=8 note=65 velocity=0 time=0
EXTRACT: note_on channel=9 note=42 velocity=23 time=0
EXTRACT: note_on channel=9 note=64 velocity=66 time=0
EXTRACT: note_on channel=9 note=54 velocity=0 time=0.1076922
EXTRACT: note_on channel=9 note=54 velocity=13 time=0
EXTRACT: note_on channel=7 note=62 velocity=0 time=0.0076923
EXTRACT: note_on channel=9 note=42 velocity=0 time=0
EXTRACT: note_on channel=9 note=64 velocity=0 time=0
EXTRACT: note_on channel=9 note=54 velocity=0 time=0.1076922
EXTRACT: note_on channel=9 note=54 velocity=42 time=0
EXTRACT: note_on channel=1 note=33 velocity=99 time=0.0076923
EXTRACT: note_on channel=5 note=57 velocity=117 time=0
EXTRACT: note_on channel=7 note=62 velocity=110 time=0
EXTRACT: note_on channel=8 note=65 velocity=101 time=0
EXTRACT: note_on channel=9 note=36 velocity=85 time=0
EXTRACT: note_on channel=9 note=42 velocity=99 time=0
EXTRACT: note_on channel=9 note=54 velocity=0 time=0.1076922
EXTRACT: note_on channel=9 note=54 velocity=28 time=0
EXTRACT: note_on channel=9 note=36 velocity=0 time=0.0076923
EXTRACT: note_on channel=9 note=42 velocity=0 time=0
EXTRACT: note_on channel=9 note=54 velocity=0 time=0.1076922
EXTRACT: note_on channel=9 note=54 velocity=28 time=0
EXTRACT: note_on channel=1 note=33 velocity=0 time=0.0076923
EXTRACT: note_on channel=1 note=29 velocity=76 time=0
EXTRACT: note_on channel=3 note=69 velocity=85 time=0
EXTRACT: note_on channel=5 note=57 velocity=0 time=0
EXTRACT: note_on channel=5 note=55 velocity=99 time=0
EXTRACT: note_on channel=7 note=62 velocity=0 time=0
EXTRACT: note_on channel=7 note=60 velocity=86 time=0
EXTRACT: note_on channel=8 note=65 velocity=0 time=0
EXTRACT: note_on channel=8 note=64 velocity=76 time=0
EXTRACT: note_on channel=9 note=36 velocity=83 time=0
EXTRACT: note_on channel=9 note=42 velocity=53 time=0
EXTRACT: note_on channel=9 note=62 velocity=37 time=0
EXTRACT: note_on channel=3 note=60 velocity=90 time=0.01153845
EXTRACT: note_on channel=3 note=64 velocity=104 time=0.01153845
EXTRACT: note_on channel=9 note=54 velocity=0 time=0.0846153
EXTRACT: note_on channel=9 note=54 velocity=28 time=0
EXTRACT: note_on channel=3 note=64 velocity=0 time=0.0076923
EXTRACT: note_on channel=3 note=60 velocity=0 time=0
EXTRACT: note_on channel=3 note=69 velocity=0 time=0
EXTRACT: note_on channel=9 note=36 velocity=0 time=0
EXTRACT: note_on channel=9 note=42 velocity=0 time=0
EXTRACT: note_on channel=9 note=62 velocity=0 time=0
EXTRACT: note_on channel=9 note=54 velocity=0 time=0.1076922
EXTRACT: note_on channel=9 note=54 velocity=41 time=0
EXTRACT: note_on channel=0 note=57 velocity=0 time=0.0076923
EXTRACT: note_on channel=1 note=29 velocity=0 time=0
EXTRACT: note_on channel=1 note=33 velocity=101 time=0
EXTRACT: note_on channel=5 note=55 velocity=0 time=0
EXTRACT: note_on channel=5 note=57 velocity=88 time=0
EXTRACT: note_on channel=7 note=60 velocity=0 time=0
EXTRACT: note_on channel=7 note=62 velocity=88 time=0
EXTRACT: note_on channel=8 note=64 velocity=0 time=0
EXTRACT: note_on channel=8 note=65 velocity=80 time=0
EXTRACT: note_on channel=9 note=40 velocity=100 time=0
EXTRACT: note_on channel=9 note=42 velocity=99 time=0
EXTRACT: note_on channel=9 note=62 velocity=43 time=0
EXTRACT: note_on channel=9 note=39 velocity=100 time=0
EXTRACT: note_on channel=9 note=54 velocity=0 time=0.1076922
EXTRACT: note_on channel=9 note=54 velocity=28 time=0
EXTRACT: note_on channel=0 note=48 velocity=0 time=0.0076923
EXTRACT: note_on channel=0 note=52 velocity=0 time=0
EXTRACT: note_on channel=9 note=40 velocity=0 time=0
EXTRACT: note_on channel=9 note=42 velocity=0 time=0
EXTRACT: note_on channel=9 note=62 velocity=0 time=0
EXTRACT: note_on channel=9 note=39 velocity=0 time=0
EXTRACT: note_on channel=4 note=79 velocity=97 time=0.04999995
EXTRACT: note_on channel=4 note=81 velocity=0 time=0.01923075
EXTRACT: note_on channel=9 note=54 velocity=0 time=0.0384615
EXTRACT: note_on channel=9 note=54 velocity=31 time=0
EXTRACT: note_on channel=0 note=50 velocity=72 time=0.0076923
EXTRACT: note_on channel=0 note=47 velocity=69 time=0
EXTRACT: note_on channel=0 note=55 velocity=68 time=0
EXTRACT: note_on channel=1 note=33 velocity=0 time=0
EXTRACT: note_on channel=1 note=31 velocity=86 time=0
EXTRACT: note_on channel=3 note=59 velocity=90 time=0
EXTRACT: note_on channel=5 note=57 velocity=0 time=0
EXTRACT: note_on channel=5 note=55 velocity=92 time=0
EXTRACT: note_on channel=7 note=62 velocity=0 time=0
EXTRACT: note_on channel=7 note=60 velocity=82 time=0
EXTRACT: note_on channel=8 note=65 velocity=0 time=0
EXTRACT: note_on channel=8 note=64 velocity=83 time=0
EXTRACT: note_on channel=9 note=36 velocity=71 time=0
EXTRACT: note_on channel=9 note=42 velocity=31 time=0
EXTRACT: note_on channel=9 note=63 velocity=58 time=0
EXTRACT: note_on channel=3 note=67 velocity=83 time=0.01153845
EXTRACT: note_on channel=3 note=62 velocity=104 time=0.01153845
EXTRACT: note_on channel=9 note=54 velocity=0 time=0.0846153
EXTRACT: note_on channel=9 note=54 velocity=37 time=0
EXTRACT: note_on channel=5 note=55 velocity=0 time=0.0076923
EXTRACT: note_on channel=9 note=36 velocity=0 time=0
EXTRACT: note_on channel=9 note=42 velocity=0 time=0
EXTRACT: note_on channel=9 note=63 velocity=0 time=0
EXTRACT: note_on channel=8 note=64 velocity=0 time=0.076923
EXTRACT: note_on channel=9 note=54 velocity=0 time=0.0307692
EXTRACT: note_on channel=9 note=54 velocity=41 time=0
EXTRACT: note_on channel=5 note=55 velocity=117 time=0.0076923
EXTRACT: note_on channel=7 note=60 velocity=0 time=0
EXTRACT: note_on channel=7 note=62 velocity=94 time=0
EXTRACT: note_on channel=8 note=65 velocity=86 time=0
EXTRACT: note_on channel=9 note=36 velocity=101 time=0
EXTRACT: note_on channel=9 note=42 velocity=99 time=0
EXTRACT: note_on channel=9 note=54 velocity=0 time=0.1076922
EXTRACT: note_on channel=9 note=54 velocity=10 time=0
EXTRACT: note_on channel=1 note=31 velocity=0 time=0.0076923
EXTRACT: note_on channel=9 note=36 velocity=0 time=0
EXTRACT: note_on channel=9 note=42 velocity=0 time=0
EXTRACT: note_on channel=9 note=54 velocity=0 time=0.1076922
EXTRACT: note_on channel=9 note=54 velocity=10 time=0
EXTRACT: note_on channel=1 note=31 velocity=94 time=0.0076923
EXTRACT: note_on channel=7 note=62 velocity=0 time=0
EXTRACT: note_on channel=8 note=65 velocity=0 time=0
EXTRACT: note_on channel=9 note=42 velocity=42 time=0
EXTRACT: note_on channel=9 note=62 velocity=38 time=0
EXTRACT: note_on channel=9 note=54 velocity=0 time=0.1076922
EXTRACT: note_on channel=9 note=54 velocity=11 time=0
EXTRACT: note_on channel=5 note=55 velocity=0 time=0.0076923
EXTRACT: note_on channel=9 note=42 velocity=0 time=0
EXTRACT: note_on channel=9 note=62 velocity=0 time=0
EXTRACT: note_on channel=9 note=54 velocity=0 time=0.1076922
EXTRACT: note_on channel=9 note=54 velocity=11 time=0
EXTRACT: note_on channel=1 note=31 velocity=0 time=0.0076923
EXTRACT: note_on channel=3 note=62 velocity=0 time=0
EXTRACT: note_on channel=3 note=67 velocity=0 time=0
EXTRACT: note_on channel=3 note=59 velocity=0 time=0
EXTRACT: note_on channel=3 note=59 velocity=94 time=0
EXTRACT: note_on channel=5 note=55 velocity=123 time=0
EXTRACT: note_on channel=7 note=62 velocity=110 time=0
EXTRACT: note_on channel=8 note=65 velocity=94 time=0
EXTRACT: note_on channel=9 note=40 velocity=93 time=0
EXTRACT: note_on channel=9 note=42 velocity=99 time=0
EXTRACT: note_on channel=9 note=62 velocity=49 time=0
EXTRACT: note_on channel=9 note=39 velocity=93 time=0
EXTRACT: note_on channel=3 note=67 velocity=90 time=0.01153845
EXTRACT: note_on channel=3 note=62 velocity=110 time=0.01153845
EXTRACT: note_on channel=9 note=54 velocity=0 time=0.0846153
EXTRACT: note_on channel=9 note=54 velocity=11 time=0
EXTRACT: note_on channel=3 note=62 velocity=0 time=0.0076923
EXTRACT: note_on channel=3 note=67 velocity=0 time=0
EXTRACT: note_on channel=3 note=59 velocity=0 time=0
EXTRACT: note_on channel=9 note=40 velocity=0 time=0
EXTRACT: note_on channel=9 note=42 velocity=0 time=0
EXTRACT: note_on channel=9 note=62 velocity=0 time=0
EXTRACT: note_on channel=9 note=39 velocity=0 time=0
EXTRACT: note_on channel=9 note=54 velocity=0 time=0.1076922
EXTRACT: note_on channel=9 note=54 velocity=13 time=0
EXTRACT: note_on channel=1 note=31 velocity=99 time=0.0076923
EXTRACT: note_on channel=7 note=62 velocity=0 time=0
EXTRACT: note_on channel=8 note=65 velocity=0 time=0
EXTRACT: note_on channel=9 note=42 velocity=46 time=0
EXTRACT: note_on channel=9 note=64 velocity=70 time=0
EXTRACT: note_on channel=6 note=43 velocity=110 time=0.0076923
EXTRACT: note_on channel=6 note=67 velocity=110 time=0.00384615
EXTRACT: note_on channel=9 note=54 velocity=0 time=0.09615375
EXTRACT: note_on channel=9 note=54 velocity=13 time=0
EXTRACT: note_on channel=5 note=55 velocity=0 time=0.0076923
EXTRACT: note_on channel=9 note=42 velocity=0 time=0
EXTRACT: note_on channel=9 note=64 velocity=0 time=0
EXTRACT: note_on channel=9 note=54 velocity=0 time=0.1076922
EXTRACT: note_on channel=9 note=54 velocity=38 time=0
EXTRACT: note_on channel=5 note=55 velocity=123 time=0.0076923
EXTRACT: note_on channel=7 note=64 velocity=107 time=0
EXTRACT: note_on channel=8 note=67 velocity=99 time=0
EXTRACT: note_on channel=9 note=36 velocity=94 time=0
EXTRACT: note_on channel=9 note=42 velocity=94 time=0
EXTRACT: note_on channel=9 note=54 velocity=0 time=0.1076922
EXTRACT: note_on channel=9 note=54 velocity=27 time=0
EXTRACT: note_on channel=9 note=36 velocity=0 time=0.0076923
EXTRACT: note_on channel=9 note=42 velocity=0 time=0
EXTRACT: note_on channel=9 note=54 velocity=0 time=0.1076922
EXTRACT: note_on channel=9 note=54 velocity=27 time=0
EXTRACT: note_on channel=1 note=31 velocity=0 time=0.0076923
EXTRACT: note_on channel=1 note=33 velocity=85 time=0
EXTRACT: note_on channel=3 note=67 velocity=92 time=0
EXTRACT: note_on channel=6 note=43 velocity=0 time=0
EXTRACT: note_on channel=6 note=45 velocity=101 time=0
EXTRACT: note_on channel=9 note=36 velocity=88 time=0
EXTRACT: note_on channel=9 note=42 velocity=46 time=0
EXTRACT: note_on channel=9 note=62 velocity=48 time=0
EXTRACT: note_on channel=3 note=59 velocity=97 time=0.01153845
EXTRACT: note_on channel=6 note=69 velocity=107 time=0
EXTRACT: note_on channel=3 note=62 velocity=107 time=0.01153845
EXTRACT: note_on channel=6 note=67 velocity=0 time=0
EXTRACT: note_on channel=9 note=42 velocity=0 time=0.03461535
EXTRACT: note_on channel=9 note=54 velocity=0 time=0.04999995
EXTRACT: note_on channel=9 note=54 velocity=27 time=0
EXTRACT: note_on channel=3 note=62 velocity=0 time=0.0076923
EXTRACT: note_on channel=3 note=59 velocity=0 time=0
EXTRACT: note_on channel=3 note=67 velocity=0 time=0
EXTRACT: note_on channel=9 note=36 velocity=0 time=0
EXTRACT: note_on channel=9 note=62 velocity=0 time=0
EXTRACT: note_on channel=9 note=54 velocity=0 time=0.1076922
EXTRACT: note_on channel=9 note=54 velocity=36 time=0
EXTRACT: note_on channel=1 note=33 velocity=0 time=0.0076923
EXTRACT: note_on channel=1 note=36 velocity=74 time=0
EXTRACT: note_on channel=5 note=55 velocity=0 time=0
EXTRACT: note_on channel=5 note=53 velocity=107 time=0
EXTRACT: note_on channel=7 note=64 velocity=0 time=0
EXTRACT: note_on channel=7 note=62 velocity=86 time=0
EXTRACT: note_on channel=8 note=67 velocity=0 time=0
EXTRACT: note_on channel=8 note=65 velocity=79 time=0
EXTRACT: note_on channel=9 note=40 velocity=93 time=0
EXTRACT: note_on channel=9 note=42 velocity=89 time=0
EXTRACT: note_on channel=9 note=62 velocity=52 time=0
EXTRACT: note_on channel=9 note=39 velocity=93 time=0
EXTRACT: note_on channel=6 note=48 velocity=107 time=0.00384615
EXTRACT: note_on channel=6 note=45 velocity=0 time=0.00384615
EXTRACT: note_on channel=6 note=72 velocity=107 time=0.01153845
EXTRACT: note_on channel=6 note=69 velocity=0 time=0.01153845
EXTRACT: note_on channel=9 note=54 velocity=0 time=0.076923
EXTRACT: note_on channel=9 note=54 velocity=27 time=0
EXTRACT: note_on channel=5 note=53 velocity=0 time=0.0076923
EXTRACT: note_on channel=9 note=40 velocity=0 time=0
EXTRACT: note_on channel=9 note=42 velocity=0 time=0
EXTRACT: note_on channel=9 note=62 velocity=0 time=0
EXTRACT: note_on channel=9 note=39 velocity=0 time=0
EXTRACT: note_on channel=7 note=62 velocity=0 time=0.076923
EXTRACT: note_on channel=6 note=45 velocity=101 time=0.02692305
EXTRACT: note_on channel=9 note=54 velocity=0 time=0.00384615
EXTRACT: note_on channel=9 note=54 velocity=28 time=0
EXTRACT: note_on channel=6 note=69 velocity=99 time=0.00384615
EXTRACT: note_on channel=0 note=47 velocity=0 time=0.00384615
EXTRACT: note_on channel=1 note=36 velocity=0 time=0
EXTRACT: note_on channel=1 note=33 velocity=72 time=0
EXTRACT: note_on channel=5 note=52 velocity=99 time=0
EXTRACT: note_on channel=6 note=72 velocity=0 time=0
EXTRACT: note_on channel=7 note=60 velocity=97 time=0
EXTRACT: note_on channel=8 note=65 velocity=0 time=0
EXTRACT: note_on channel=8 note=64 velocity=90 time=0
EXTRACT: note_on channel=9 note=36 velocity=71 time=0
EXTRACT: note_on channel=9 note=42 velocity=51 time=0
EXTRACT: note_on channel=9 note=63 velocity=67 time=0
EXTRACT: note_on channel=6 note=48 velocity=0 time=0.00384615
EXTRACT: note_on channel=9 note=54 velocity=0 time=0.10384605
EXTRACT: note_on channel=9 note=54 velocity=38 time=0
EXTRACT: note_on channel=0 note=55 velocity=0 time=0.0076923
EXTRACT: note_on channel=0 note=50 velocity=0 time=0
EXTRACT: note_on channel=9 note=36 velocity=0 time=0
EXTRACT: note_on channel=9 note=42 velocity=0 time=0
EXTRACT: note_on channel=9 note=63 velocity=0 time=0
EXTRACT: note_on channel=6 note=48 velocity=117 time=0.1076922
EXTRACT: note_on channel=6 note=72 velocity=113 time=0
EXTRACT: note_on channel=9 note=54 velocity=0 time=0
EXTRACT: note_on channel=9 note=54 velocity=39 time=0
EXTRACT: note_on channel=0 note=55 velocity=72 time=0.0076923
EXTRACT: note_on channel=0 note=52 velocity=66 time=0
EXTRACT: note_on channel=0 note=60 velocity=67 time=0
EXTRACT: note_on channel=1 note=33 velocity=0 time=0
EXTRACT: note_on channel=1 note=36 velocity=107 time=0
EXTRACT: note_on channel=3 note=64 velocity=88 time=0
EXTRACT: note_on channel=5 note=52 velocity=0 time=0
EXTRACT: note_on channel=6 note=69 velocity=0 time=0
EXTRACT: note_on channel=7 note=60 velocity=0 time=0
EXTRACT: note_on channel=8 note=64 velocity=0 time=0
EXTRACT: note_on channel=9 note=36 velocity=97 time=0
EXTRACT: note_on channel=9 note=42 velocity=99 time=0
EXTRACT: note_on channel=9 note=63 velocity=50 time=0
EXTRACT: note_on channel=3 note=72 velocity=78 time=0.01153845
EXTRACT: note_on channel=6 note=45 velocity=0 time=0.00384615
EXTRACT: note_on channel=3 note=67 velocity=104 time=0.0076923
EXTRACT: note_on channel=9 note=54 velocity=0 time=0.0846153
EXTRACT: note_on channel=9 note=54 velocity=7 time=0
EXTRACT: note_on channel=9 note=36 velocity=0 time=0.0076923
EXTRACT: note_on channel=9 note=42 velocity=0 time=0
EXTRACT: note_on channel=9 note=63 velocity=0 time=0
EXTRACT: note_on channel=6 note=72 velocity=0 time=0.04999995
EXTRACT: note_on channel=6 note=48 velocity=0 time=0.05769225
EXTRACT: note_on channel=9 note=54 velocity=0 time=0
EXTRACT: note_on channel=9 note=54 velocity=7 time=0
EXTRACT: note_on channel=1 note=36 velocity=0 time=0.0076923
EXTRACT: note_on channel=9 note=42 velocity=32 time=0
EXTRACT: note_on channel=9 note=62 velocity=56 time=0
EXTRACT: note_on channel=9 note=54 velocity=0 time=0.1076922
EXTRACT: note_on channel=9 note=54 velocity=7 time=0
EXTRACT: note_on channel=3 note=67 velocity=0 time=0.0076923
EXTRACT: note_on channel=3 note=72 velocity=0 time=0
EXTRACT: note_on channel=3 note=64 velocity=0 time=0
EXTRACT: note_on channel=9 note=42 velocity=0 time=0
EXTRACT: note_on channel=9 note=62 velocity=0 time=0
EXTRACT: note_on channel=9 note=54 velocity=0 time=0.1076922
EXTRACT: note_on channel=9 note=54 velocity=10 time=0
EXTRACT: note_on channel=1 note=36 velocity=110 time=0.0076923
EXTRACT: note_on channel=3 note=64 velocity=88 time=0
EXTRACT: note_on channel=5 note=64 velocity=117 time=0
EXTRACT: note_on channel=7 note=67 velocity=99 time=0
EXTRACT: note_on channel=8 note=72 velocity=99 time=0
EXTRACT: note_on channel=9 note=40 velocity=93 time=0
EXTRACT: note_on channel=9 note=42 velocity=99 time=0
EXTRACT: note_on channel=9 note=62 velocity=58 time=0
EXTRACT: note_on channel=9 note=39 velocity=93 time=0
EXTRACT: note_on channel=3 note=67 velocity=104 time=0.01153845
EXTRACT: note_on channel=3 note=72 velocity=94 time=0.01153845
EXTRACT: note_on channel=9 note=54 velocity=0 time=0.0846153
EXTRACT: note_on channel=9 note=54 velocity=13 time=0
EXTRACT: note_on channel=3 note=72 velocity=0 time=0.0076923
EXTRACT: note_on channel=3 note=67 velocity=0 time=0
EXTRACT: note_on channel=3 note=64 velocity=0 time=0
EXTRACT: note_on channel=9 note=40 velocity=0 time=0
EXTRACT: note_on channel=9 note=42 velocity=0 time=0
EXTRACT: note_on channel=9 note=62 velocity=0 time=0
EXTRACT: note_on channel=9 note=39 velocity=0 time=0
EXTRACT: note_on channel=9 note=54 velocity=0 time=0.1076922
EXTRACT: note_on channel=9 note=54 velocity=12 time=0
EXTRACT: note_on channel=1 note=36 velocity=0 time=0.0076923
EXTRACT: note_on channel=9 note=42 velocity=49 time=0
EXTRACT: note_on channel=9 note=64 velocity=70 time=0
EXTRACT: note_on channel=9 note=54 velocity=0 time=0.1076922
EXTRACT: note_on channel=9 note=54 velocity=13 time=0
EXTRACT: note_on channel=8 note=72 velocity=0 time=0.0076923
EXTRACT: note_on channel=9 note=42 velocity=0 time=0
EXTRACT: note_on channel=9 note=64 velocity=0 time=0
EXTRACT: note_on channel=9 note=54 velocity=0 time=0.1076922
EXTRACT: note_on channel=9 note=54 velocity=42 time=0
EXTRACT: note_on channel=1 note=36 velocity=104 time=0.0076923
EXTRACT: note_on channel=5 note=64 velocity=0 time=0
EXTRACT: note_on channel=5 note=60 velocity=107 time=0
EXTRACT: note_on channel=7 note=67 velocity=0 time=0
EXTRACT: note_on channel=7 note=64 velocity=99 time=0
EXTRACT: note_on channel=8 note=67 velocity=88 time=0
EXTRACT: note_on channel=9 note=36 velocity=88 time=0
EXTRACT: note_on channel=9 note=42 velocity=84 time=0
EXTRACT: note_on channel=9 note=54 velocity=0 time=0.1076922
EXTRACT: note_on channel=9 note=54 velocity=28 time=0
EXTRACT: note_on channel=9 note=36 velocity=0 time=0.0076923
EXTRACT: note_on channel=9 note=42 velocity=0 time=0
EXTRACT: note_on channel=9 note=54 velocity=0 time=0.1076922
EXTRACT: note_on channel=9 note=54 velocity=28 time=0
EXTRACT: note_on channel=1 note=36 velocity=0 time=0.0076923
EXTRACT: note_on channel=1 note=31 velocity=71 time=0
EXTRACT: note_on channel=3 note=72 velocity=86 time=0
EXTRACT: note_on channel=9 note=36 velocity=94 time=0
EXTRACT: note_on channel=9 note=42 velocity=53 time=0
EXTRACT: note_on channel=9 note=62 velocity=36 time=0
EXTRACT: note_on channel=3 note=64 velocity=86 time=0.01153845
EXTRACT: note_on channel=3 note=67 velocity=104 time=0.01153845
EXTRACT: note_on channel=9 note=54 velocity=0 time=0.0846153
EXTRACT: note_on channel=9 note=54 velocity=28 time=0
EXTRACT: note_on channel=3 note=67 velocity=0 time=0.0076923
EXTRACT: note_on channel=3 note=64 velocity=0 time=0
EXTRACT: note_on channel=3 note=72 velocity=0 time=0
EXTRACT: note_on channel=9 note=36 velocity=0 time=0
EXTRACT: note_on channel=9 note=42 velocity=0 time=0
EXTRACT: note_on channel=9 note=62 velocity=0 time=0
EXTRACT: note_on channel=9 note=54 velocity=0 time=0.1076922
EXTRACT: note_on channel=9 note=54 velocity=41 time=0
EXTRACT: note_on channel=0 note=55 velocity=0 time=0.0076923
EXTRACT: note_on channel=1 note=31 velocity=0 time=0
EXTRACT: note_on channel=1 note=33 velocity=83 time=0
EXTRACT: note_on channel=5 note=60 velocity=0 time=0
EXTRACT: note_on channel=7 note=64 velocity=0 time=0
EXTRACT: note_on channel=8 note=67 velocity=0 time=0
EXTRACT: note_on channel=9 note=40 velocity=93 time=0
EXTRACT: note_on channel=9 note=42 velocity=94 time=0
EXTRACT: note_on channel=9 note=62 velocity=52 time=0
EXTRACT: note_on channel=9 note=39 velocity=93 time=0
EXTRACT: note_on channel=9 note=54 velocity=0 time=0.1076922
EXTRACT: note_on channel=9 note=54 velocity=28 time=0
EXTRACT: note_on channel=0 note=60 velocity=0 time=0.0076923
EXTRACT: note_on channel=0 note=52 velocity=0 time=0
EXTRACT: note_on channel=9 note=40 velocity=0 time=0
EXTRACT: note_on channel=9 note=42 velocity=0 time=0
EXTRACT: note_on channel=9 note=62 velocity=0 time=0
EXTRACT: note_on channel=9 note=39 velocity=0 time=0
EXTRACT: note_on channel=9 note=54 velocity=0 time=0.1076922
EXTRACT: note_on channel=9 note=54 velocity=31 time=0
EXTRACT: note_on channel=0 note=53 velocity=78 time=0.0076923
EXTRACT: note_on channel=0 note=50 velocity=64 time=0
EXTRACT: note_on channel=0 note=58 velocity=68 time=0
EXTRACT: note_on channel=1 note=33 velocity=0 time=0
EXTRACT: note_on channel=1 note=34 velocity=104 time=0
EXTRACT: note_on channel=3 note=62 velocity=86 time=0
EXTRACT: note_on channel=5 note=58 velocity=114 time=0
EXTRACT: note_on channel=7 note=62 velocity=110 time=0
EXTRACT: note_on channel=8 note=65 velocity=101 time=0
EXTRACT: note_on channel=9 note=36 velocity=70 time=0
EXTRACT: note_on channel=9 note=42 velocity=38 time=0
EXTRACT: note_on channel=9 note=63 velocity=56 time=0
EXTRACT: note_on channel=3 note=65 velocity=94 time=0.01153845
EXTRACT: note_on channel=3 note=70 velocity=92 time=0.01153845
EXTRACT: note_on channel=9 note=54 velocity=0 time=0.0846153
EXTRACT: note_on channel=9 note=54 velocity=37 time=0
EXTRACT: note_on channel=9 note=36 velocity=0 time=0.0076923
EXTRACT: note_on channel=9 note=42 velocity=0 time=0
EXTRACT: note_on channel=9 note=63 velocity=0 time=0
EXTRACT: note_on channel=9 note=54 velocity=0 time=0.1076922
EXTRACT: note_on channel=9 note=54 velocity=41 time=0
EXTRACT: note_on channel=9 note=36 velocity=104 time=0.0076923
EXTRACT: note_on channel=9 note=42 velocity=94 time=0
EXTRACT: note_on channel=9 note=54 velocity=0 time=0.1076922
EXTRACT: note_on channel=9 note=54 velocity=10 time=0
EXTRACT: note_on channel=9 note=36 velocity=0 time=0.0076923
EXTRACT: note_on channel=9 note=42 velocity=0 time=0
EXTRACT: note_on channel=8 note=65 velocity=0 time=0.0384615
EXTRACT: note_on channel=9 note=54 velocity=0 time=0.0692307
EXTRACT: note_on channel=9 note=54 velocity=10 time=0
EXTRACT: note_on channel=1 note=34 velocity=0 time=0.0076923
EXTRACT: note_on channel=1 note=29 velocity=83 time=0
EXTRACT: note_on channel=5 note=58 velocity=0 time=0
EXTRACT: note_on channel=5 note=57 velocity=104 time=0
EXTRACT: note_on channel=7 note=62 velocity=0 time=0
EXTRACT: note_on channel=7 note=60 velocity=88 time=0
EXTRACT: note_on channel=8 note=65 velocity=88 time=0
EXTRACT: note_on channel=9 note=42 velocity=40 time=0
EXTRACT: note_on channel=9 note=62 velocity=46 time=0
EXTRACT: note_on channel=9 note=54 velocity=0 time=0.1076922
EXTRACT: note_on channel=9 note=54 velocity=11 time=0
EXTRACT: note_on channel=3 note=70 velocity=0 time=0.0076923
EXTRACT: note_on channel=3 note=65 velocity=0 time=0
EXTRACT: note_on channel=3 note=62 velocity=0 time=0
EXTRACT: note_on channel=9 note=42 velocity=0 time=0
EXTRACT: note_on channel=9 note=62 velocity=0 time=0
EXTRACT: note_on channel=8 note=65 velocity=0 time=0.0384615
EXTRACT: note_on channel=4 note=79 velocity=0 time=0.0461538
EXTRACT: note_on channel=4 note=72 velocity=99 time=0
EXTRACT: note_on channel=9 note=54 velocity=0 time=0.0230769
EXTRACT: note_on channel=9 note=54 velocity=11 time=0
EXTRACT: note_on channel=1 note=29 velocity=0 time=0.0076923
EXTRACT: note_on channel=1 note=31 velocity=68 time=0
EXTRACT: note_on channel=3 note=65 velocity=94 time=0
EXTRACT: note_on channel=5 note=57 velocity=0 time=0
EXTRACT: note_on channel=5 note=58 velocity=109 time=0
EXTRACT: note_on channel=7 note=60 velocity=0 time=0
EXTRACT: note_on channel=7 note=62 velocity=94 time=0
EXTRACT: note_on channel=8 note=65 velocity=90 time=0
EXTRACT: note_on channel=9 note=40 velocity=87 time=0
EXTRACT: note_on channel=9 note=42 velocity=94 time=0
EXTRACT: note_on channel=9 note=62 velocity=50 time=0
EXTRACT: note_on channel=9 note=39 velocity=87 time=0
EXTRACT: note_on channel=3 note=62 velocity=85 time=0.01153845
EXTRACT: note_on channel=3 note=70 velocity=104 time=0.01153845
EXTRACT: note_on channel=9 note=54 velocity=0 time=0.0846153
EXTRACT: note_on channel=9 note=54 velocity=11 time=0
EXTRACT: note_on channel=3 note=70 velocity=0 time=0.0076923
EXTRACT: note_on channel=3 note=62 velocity=0 time=0
EXTRACT: note_on channel=3 note=65 velocity=0 time=0
EXTRACT: note_on channel=9 note=40 velocity=0 time=0
EXTRACT: note_on channel=9 note=42 velocity=0 time=0
EXTRACT: note_on channel=9 note=62 velocity=0 time=0
EXTRACT: note_on channel=9 note=39 velocity=0 time=0
EXTRACT: note_on channel=9 note=54 velocity=0 time=0.1076922
EXTRACT: note_on channel=9 note=54 velocity=13 time=0
EXTRACT: note_on channel=1 note=31 velocity=0 time=0.0076923
EXTRACT: note_on channel=1 note=34 velocity=96 time=0
EXTRACT: note_on channel=5 note=58 velocity=0 time=0
EXTRACT: note_on channel=5 note=57 velocity=92 time=0
EXTRACT: note_on channel=7 note=62 velocity=0 time=0
EXTRACT: note_on channel=7 note=60 velocity=85 time=0
EXTRACT: note_on channel=8 note=65 velocity=0 time=0
EXTRACT: note_on channel=8 note=64 velocity=80 time=0
EXTRACT: note_on channel=9 note=42 velocity=34 time=0
EXTRACT: note_on channel=9 note=64 velocity=66 time=0
EXTRACT: note_on channel=9 note=54 velocity=0 time=0.1076922
EXTRACT: note_on channel=9 note=54 velocity=13 time=0
EXTRACT: note_on channel=9 note=42 velocity=0 time=0.0076923
EXTRACT: note_on channel=9 note=64 velocity=0 time=0
EXTRACT: note_on channel=4 note=76 velocity=80 time=0.08076915
EXTRACT: note_on channel=9 note=54 velocity=0 time=0.02692305
EXTRACT: note_on channel=9 note=54 velocity=38 time=0
EXTRACT: note_on channel=4 note=72 velocity=0 time=0.0076923
EXTRACT: note_on channel=5 note=57 velocity=0 time=0
EXTRACT: note_on channel=5 note=60 velocity=117 time=0
EXTRACT: note_on channel=7 note=60 velocity=0 time=0
EXTRACT: note_on channel=7 note=64 velocity=104 time=0
EXTRACT: note_on channel=8 note=64 velocity=0 time=0
EXTRACT: note_on channel=8 note=67 velocity=101 time=0
EXTRACT: note_on channel=9 note=36 velocity=86 time=0
EXTRACT: note_on channel=9 note=42 velocity=94 time=0
EXTRACT: note_on channel=9 note=54 velocity=0 time=0.1076922
EXTRACT: note_on channel=9 note=54 velocity=27 time=0
EXTRACT: note_on channel=9 note=36 velocity=0 time=0.0076923
EXTRACT: note_on channel=9 note=42 velocity=0 time=0
EXTRACT: note_on channel=9 note=54 velocity=0 time=0.1076922
EXTRACT: note_on channel=9 note=54 velocity=27 time=0
EXTRACT: note_on channel=1 note=34 velocity=0 time=0.0076923
EXTRACT: note_on channel=1 note=29 velocity=85 time=0
EXTRACT: note_on channel=3 note=62 velocity=90 time=0
EXTRACT: note_on channel=9 note=36 velocity=85 time=0
EXTRACT: note_on channel=9 note=42 velocity=31 time=0
EXTRACT: note_on channel=9 note=62 velocity=36 time=0
EXTRACT: note_on channel=3 note=65 velocity=101 time=0.01153845
EXTRACT: note_on channel=3 note=70 velocity=96 time=0.01153845
EXTRACT: note_on channel=9 note=54 velocity=0 time=0.0846153
EXTRACT: note_on channel=9 note=54 velocity=27 time=0
EXTRACT: note_on channel=3 note=70 velocity=0 time=0.0076923
EXTRACT: note_on channel=3 note=65 velocity=0 time=0
EXTRACT: note_on channel=3 note=62 velocity=0 time=0
EXTRACT: note_on channel=5 note=60 velocity=0 time=0
EXTRACT: note_on channel=7 note=64 velocity=0 time=0
EXTRACT: note_on channel=8 note=67 velocity=0 time=0
EXTRACT: note_on channel=9 note=36 velocity=0 time=0
EXTRACT: note_on channel=9 note=42 velocity=0 time=0
EXTRACT: note_on channel=9 note=62 velocity=0 time=0
EXTRACT: note_on channel=4 note=77 velocity=90 time=0.0923076
EXTRACT: note_on channel=9 note=54 velocity=0 time=0.0153846
EXTRACT: note_on channel=9 note=54 velocity=36 time=0
EXTRACT: note_on channel=1 note=29 velocity=0 time=0.0076923
EXTRACT: note_on channel=1 note=31 velocity=71 time=0
EXTRACT: note_on channel=5 note=53 velocity=74 time=0
EXTRACT: note_on channel=7 note=57 velocity=90 time=0
EXTRACT: note_on channel=8 note=60 velocity=88 time=0
EXTRACT: note_on channel=9 note=40 velocity=87 time=0
EXTRACT: note_on channel=9 note=42 velocity=99 time=0
EXTRACT: note_on channel=9 note=62 velocity=50 time=0
EXTRACT: note_on channel=9 note=39 velocity=87 time=0
EXTRACT: note_on channel=4 note=76 velocity=0 time=0.0153846
EXTRACT: note_on channel=9 note=54 velocity=0 time=0.0923076
EXTRACT: note_on channel=9 note=54 velocity=27 time=0
EXTRACT: note_on channel=9 note=40 velocity=0 time=0.0076923
EXTRACT: note_on channel=9 note=42 velocity=0 time=0
EXTRACT: note_on channel=9 note=62 velocity=0 time=0
EXTRACT: note_on channel=9 note=39 velocity=0 time=0
EXTRACT: note_on channel=9 note=54 velocity=0 time=0.1076922
EXTRACT: note_on channel=9 note=54 velocity=28 time=0
EXTRACT: note_on channel=0 note=58 velocity=0 time=0.0076923
EXTRACT: note_on channel=0 note=53 velocity=0 time=0
EXTRACT: note_on channel=1 note=31 velocity=0 time=0
EXTRACT: note_on channel=1 note=34 velocity=92 time=0
EXTRACT: note_on channel=5 note=53 velocity=0 time=0
EXTRACT: note_on channel=5 note=55 velocity=90 time=0
EXTRACT: note_on channel=7 note=57 velocity=0 time=0
EXTRACT: note_on channel=7 note=60 velocity=85 time=0
EXTRACT: note_on channel=8 note=60 velocity=0 time=0
EXTRACT: note_on channel=8 note=64 velocity=70 time=0
EXTRACT: note_on channel=9 note=36 velocity=71 time=0
EXTRACT: note_on channel=9 note=42 velocity=38 time=0
EXTRACT: note_on channel=9 note=63 velocity=58 time=0
EXTRACT: note_on channel=9 note=54 velocity=0 time=0.1076922
EXTRACT: note_on channel=9 note=54 velocity=38 time=0
EXTRACT: note_on channel=0 note=50 velocity=0 time=0.0076923
EXTRACT: note_on channel=9 note=36 velocity=0 time=0
EXTRACT: note_on channel=9 note=42 velocity=0 time=0
EXTRACT: note_on channel=9 note=63 velocity=0 time=0
EXTRACT: note_on channel=9 note=54 velocity=0 time=0.1076922
EXTRACT: note_on channel=9 note=54 velocity=39 time=0
EXTRACT: note_on channel=4 note=81 velocity=83 time=0.00384615
EXTRACT: note_on channel=0 note=52 velocity=62 time=0.00384615
EXTRACT: note_on channel=0 note=48 velocity=62 time=0
EXTRACT: note_on channel=0 note=57 velocity=67 time=0
EXTRACT: note_on channel=1 note=34 velocity=0 time=0
EXTRACT: note_on channel=1 note=33 velocity=85 time=0
EXTRACT: note_on channel=3 note=60 velocity=86 time=0
EXTRACT: note_on channel=4 note=77 velocity=0 time=0
EXTRACT: note_on channel=5 note=55 velocity=0 time=0
EXTRACT: note_on channel=5 note=57 velocity=88 time=0
EXTRACT: note_on channel=7 note=60 velocity=0 time=0
EXTRACT: note_on channel=7 note=62 velocity=83 time=0
EXTRACT: note_on channel=8 note=64 velocity=0 time=0
EXTRACT: note_on channel=8 note=65 velocity=80 time=0
EXTRACT: note_on channel=9 note=36 velocity=101 time=0
EXTRACT: note_on channel=9 note=42 velocity=99 time=0
EXTRACT: note_on channel=3 note=69 velocity=85 time=0.01153845
EXTRACT: note_on channel=3 note=64 velocity=101 time=0.01153845
EXTRACT: note_on channel=9 note=54 velocity=0 time=0.0846153
EXTRACT: note_on channel=9 note=54 velocity=7 time=0
EXTRACT: note_on channel=9 note=36 velocity=0 time=0.0076923
EXTRACT: note_on channel=9 note=42 velocity=0 time=0
EXTRACT: note_on channel=9 note=54 velocity=0 time=0.1076922
EXTRACT: note_on channel=9 note=54 velocity=7 time=0
EXTRACT: note_on channel=1 note=33 velocity=0 time=0.0076923
EXTRACT: note_on channel=5 note=57 velocity=0 time=0
EXTRACT: note_on channel=5 note=55 velocity=94 time=0
EXTRACT: note_on channel=7 note=62 velocity=0 time=0
EXTRACT: note_on channel=7 note=60 velocity=79 time=0
EXTRACT: note_on channel=8 note=65 velocity=0 time=0
EXTRACT: note_on channel=8 note=64 velocity=73 time=0
EXTRACT: note_on channel=9 note=42 velocity=27 time=0
EXTRACT: note_on channel=9 note=62 velocity=34 time=0
EXTRACT: note_on channel=9 note=54 velocity=0 time=0.1076922
EXTRACT: note_on channel=9 note=54 velocity=7 time=0
EXTRACT: note_on channel=3 note=69 velocity=0 time=0.0076923
EXTRACT: note_on channel=9 note=42 velocity=0 time=0
EXTRACT: note_on channel=9 note=62 velocity=0 time=0
EXTRACT: note_on channel=9 note=54 velocity=0 time=0.1076922
EXTRACT: note_on channel=9 note=54 velocity=10 time=0
EXTRACT: note_on channel=1 note=33 velocity=90 time=0.0076923
EXTRACT: note_on channel=3 note=64 velocity=0 time=0
EXTRACT: note_on channel=3 note=60 velocity=0 time=0
EXTRACT: note_on channel=3 note=60 velocity=83 time=0
EXTRACT: note_on channel=5 note=55 velocity=0 time=0
EXTRACT: note_on channel=5 note=57 velocity=94 time=0
EXTRACT: note_on channel=7 note=60 velocity=0 time=0
EXTRACT: note_on channel=7 note=62 velocity=90 time=0
EXTRACT: note_on channel=8 note=64 velocity=0 time=0
EXTRACT: note_on channel=8 note=65 velocity=86 time=0
EXTRACT: note_on channel=9 note=40 velocity=93 time=0
EXTRACT: note_on channel=9 note=42 velocity=94 time=0
EXTRACT: note_on channel=9 note=62 velocity=46 time=0
EXTRACT: note_on channel=9 note=39 velocity=93 time=0
EXTRACT: note_on channel=3 note=69 velocity=85 time=0.01153845
EXTRACT: note_on channel=3 note=64 velocity=99 time=0.01153845
EXTRACT: note_on channel=9 note=54 velocity=0 time=0.0846153
EXTRACT: note_on channel=9 note=54 velocity=13 time=0
EXTRACT: note_on channel=3 note=64 velocity=0 time=0.0076923
EXTRACT: note_on channel=3 note=69 velocity=0 time=0
EXTRACT: note_on channel=3 note=60 velocity=0 time=0
EXTRACT: note_on channel=9 note=40 velocity=0 time=0
EXTRACT: note_on channel=9 note=42 velocity=0 time=0
EXTRACT: note_on channel=9 note=62 velocity=0 time=0
EXTRACT: note_on channel=9 note=39 velocity=0 time=0
EXTRACT: note_on channel=9 note=54 velocity=0 time=0.1076922
EXTRACT: note_on channel=9 note=54 velocity=12 time=0
EXTRACT: note_on channel=1 note=33 velocity=0 time=0.0076923
EXTRACT: note_on channel=5 note=57 velocity=0 time=0
EXTRACT: note_on channel=9 note=42 velocity=23 time=0
EXTRACT: note_on channel=9 note=64 velocity=66 time=0
EXTRACT: note_on channel=9 note=54 velocity=0 time=0.1076922
EXTRACT: note_on channel=9 note=54 velocity=13 time=0
EXTRACT: note_on channel=7 note=62 velocity=0 time=0.0076923
EXTRACT: note_on channel=8 note=65 velocity=0 time=0
EXTRACT: note_on channel=9 note=42 velocity=0 time=0
EXTRACT: note_on channel=9 note=64 velocity=0 time=0
EXTRACT: note_on channel=9 note=54 velocity=0 time=0.1076922
EXTRACT: note_on channel=9 note=54 velocity=42 time=0
EXTRACT: note_on channel=1 note=33 velocity=99 time=0.0076923
EXTRACT: note_on channel=5 note=57 velocity=113 time=0
EXTRACT: note_on channel=7 note=62 velocity=101 time=0
EXTRACT: note_on channel=8 note=65 velocity=97 time=0
EXTRACT: note_on channel=9 note=36 velocity=85 time=0
EXTRACT: note_on channel=9 note=42 velocity=99 time=0
EXTRACT: note_on channel=9 note=54 velocity=0 time=0.1076922
EXTRACT: note_on channel=9 note=54 velocity=28 time=0
EXTRACT: note_on channel=9 note=36 velocity=0 time=0.0076923
EXTRACT: note_on channel=9 note=42 velocity=0 time=0
EXTRACT: note_on channel=9 note=54 velocity=0 time=0.1076922
EXTRACT: note_on channel=9 note=54 velocity=28 time=0
EXTRACT: note_on channel=1 note=33 velocity=0 time=0.0076923
EXTRACT: note_on channel=1 note=29 velocity=76 time=0
EXTRACT: note_on channel=3 note=69 velocity=94 time=0
EXTRACT: note_on channel=5 note=57 velocity=0 time=0
EXTRACT: note_on channel=5 note=55 velocity=101 time=0
EXTRACT: note_on channel=7 note=62 velocity=0 time=0
EXTRACT: note_on channel=7 note=60 velocity=92 time=0
EXTRACT: note_on channel=8 note=65 velocity=0 time=0
EXTRACT: note_on channel=8 note=64 velocity=74 time=0
EXTRACT: note_on channel=9 note=36 velocity=83 time=0
EXTRACT: note_on channel=9 note=42 velocity=53 time=0
EXTRACT: note_on channel=9 note=62 velocity=37 time=0
EXTRACT: note_on channel=3 note=60 velocity=92 time=0.01153845
EXTRACT: note_on channel=3 note=64 velocity=104 time=0.01153845
EXTRACT: note_on channel=9 note=54 velocity=0 time=0.0846153
EXTRACT: note_on channel=9 note=54 velocity=28 time=0
EXTRACT: note_on channel=3 note=64 velocity=0 time=0.0076923
EXTRACT: note_on channel=3 note=60 velocity=0 time=0
EXTRACT: note_on channel=3 note=69 velocity=0 time=0
EXTRACT: note_on channel=9 note=36 velocity=0 time=0
EXTRACT: note_on channel=9 note=42 velocity=0 time=0
EXTRACT: note_on channel=9 note=62 velocity=0 time=0
EXTRACT: note_on channel=9 note=54 velocity=0 time=0.1076922
EXTRACT: note_on channel=9 note=54 velocity=41 time=0
EXTRACT: note_on channel=0 note=57 velocity=0 time=0.0076923
EXTRACT: note_on channel=1 note=29 velocity=0 time=0
EXTRACT: note_on channel=1 note=33 velocity=101 time=0
EXTRACT: note_on channel=5 note=55 velocity=0 time=0
EXTRACT: note_on channel=5 note=57 velocity=90 time=0
EXTRACT: note_on channel=7 note=60 velocity=0 time=0
EXTRACT: note_on channel=7 note=62 velocity=90 time=0
EXTRACT: note_on channel=8 note=64 velocity=0 time=0
EXTRACT: note_on channel=8 note=65 velocity=83 time=0
EXTRACT: note_on channel=9 note=40 velocity=100 time=0
EXTRACT: note_on channel=9 note=42 velocity=99 time=0
EXTRACT: note_on channel=9 note=62 velocity=43 time=0
EXTRACT: note_on channel=9 note=39 velocity=100 time=0
EXTRACT: note_on channel=9 note=54 velocity=0 time=0.1076922
EXTRACT: note_on channel=9 note=54 velocity=28 time=0
EXTRACT: note_on channel=0 note=48 velocity=0 time=0.0076923
EXTRACT: note_on channel=0 note=52 velocity=0 time=0
EXTRACT: note_on channel=5 note=57 velocity=0 time=0
EXTRACT: note_on channel=9 note=40 velocity=0 time=0
EXTRACT: note_on channel=9 note=42 velocity=0 time=0
EXTRACT: note_on channel=9 note=62 velocity=0 time=0
EXTRACT: note_on channel=9 note=39 velocity=0 time=0
EXTRACT: note_on channel=4 note=79 velocity=82 time=0.07307685
EXTRACT: note_on channel=4 note=81 velocity=0 time=0.0307692
EXTRACT: note_on channel=9 note=54 velocity=0 time=0.00384615
EXTRACT: note_on channel=9 note=54 velocity=31 time=0
EXTRACT: note_on channel=0 note=50 velocity=72 time=0.0076923
EXTRACT: note_on channel=0 note=47 velocity=69 time=0
EXTRACT: note_on channel=0 note=55 velocity=68 time=0
EXTRACT: note_on channel=1 note=33 velocity=0 time=0
EXTRACT: note_on channel=1 note=31 velocity=86 time=0
EXTRACT: note_on channel=3 note=67 velocity=92 time=0
EXTRACT: note_on channel=5 note=53 velocity=99 time=0
EXTRACT: note_on channel=7 note=62 velocity=0 time=0
EXTRACT: note_on channel=7 note=60 velocity=92 time=0
EXTRACT: note_on channel=8 note=65 velocity=0 time=0
EXTRACT: note_on channel=8 note=64 velocity=80 time=0
EXTRACT: note_on channel=9 note=36 velocity=71 time=0
EXTRACT: note_on channel=9 note=42 velocity=31 time=0
EXTRACT: note_on channel=9 note=63 velocity=58 time=0
EXTRACT: note_on channel=3 note=59 velocity=92 time=0.01153845
EXTRACT: note_on channel=3 note=62 velocity=107 time=0.01153845
EXTRACT: note_on channel=9 note=54 velocity=0 time=0.0846153
EXTRACT: note_on channel=9 note=54 velocity=37 time=0
EXTRACT: note_on channel=9 note=36 velocity=0 time=0.0076923
EXTRACT: note_on channel=9 note=42 velocity=0 time=0
EXTRACT: note_on channel=9 note=63 velocity=0 time=0
EXTRACT: note_on channel=9 note=54 velocity=0 time=0.1076922
EXTRACT: note_on channel=9 note=54 velocity=41 time=0
EXTRACT: note_on channel=5 note=53 velocity=0 time=0.0076923
EXTRACT: note_on channel=5 note=55 velocity=99 time=0
EXTRACT: note_on channel=7 note=60 velocity=0 time=0
EXTRACT: note_on channel=7 note=62 velocity=90 time=0
EXTRACT: note_on channel=8 note=64 velocity=0 time=0
EXTRACT: note_on channel=8 note=65 velocity=82 time=0
EXTRACT: note_on channel=9 note=36 velocity=101 time=0
EXTRACT: note_on channel=9 note=42 velocity=99 time=0
EXTRACT: note_on channel=9 note=54 velocity=0 time=0.1076922
EXTRACT: note_on channel=9 note=54 velocity=10 time=0
EXTRACT: note_on channel=1 note=31 velocity=0 time=0.0076923
EXTRACT: note_on channel=9 note=36 velocity=0 time=0
EXTRACT: note_on channel=9 note=42 velocity=0 time=0
EXTRACT: note_on channel=9 note=54 velocity=0 time=0.1076922
EXTRACT: note_on channel=9 note=54 velocity=10 time=0
EXTRACT: note_on channel=1 note=31 velocity=94 time=0.0076923
EXTRACT: note_on channel=5 note=55 velocity=0 time=0
EXTRACT: note_on channel=8 note=65 velocity=0 time=0
EXTRACT: note_on channel=9 note=42 velocity=42 time=0
EXTRACT: note_on channel=9 note=62 velocity=38 time=0
EXTRACT: note_on channel=9 note=54 velocity=0 time=0.1076922
EXTRACT: note_on channel=9 note=54 velocity=11 time=0
EXTRACT: note_on channel=3 note=62 velocity=0 time=0.0076923
EXTRACT: note_on channel=3 note=59 velocity=0 time=0
EXTRACT: note_on channel=3 note=67 velocity=0 time=0
EXTRACT: note_on channel=7 note=62 velocity=0 time=0
EXTRACT: note_on channel=9 note=42 velocity=0 time=0
EXTRACT: note_on channel=9 note=62 velocity=0 time=0
EXTRACT: note_on channel=9 note=54 velocity=0 time=0.1076922
EXTRACT: note_on channel=9 note=54 velocity=11 time=0
EXTRACT: note_on channel=1 note=31 velocity=0 time=0.0076923
EXTRACT: note_on channel=3 note=67 velocity=82 time=0
EXTRACT: note_on channel=5 note=55 velocity=117 time=0
EXTRACT: note_on channel=7 note=62 velocity=107 time=0
EXTRACT: note_on channel=8 note=65 velocity=92 time=0
EXTRACT: note_on channel=9 note=40 velocity=93 time=0
EXTRACT: note_on channel=9 note=42 velocity=99 time=0
EXTRACT: note_on channel=9 note=62 velocity=49 time=0
EXTRACT: note_on channel=9 note=39 velocity=93 time=0
EXTRACT: note_on channel=3 note=59 velocity=85 time=0.01153845
EXTRACT: note_on channel=6 note=64 velocity=107 time=0
EXTRACT: note_on channel=6 note=76 velocity=104 time=0
EXTRACT: note_on channel=3 note=62 velocity=101 time=0.01153845
EXTRACT: note_on channel=9 note=54 velocity=0 time=0.0846153
EXTRACT: note_on channel=9 note=54 velocity=11 time=0
EXTRACT: note_on channel=3 note=62 velocity=0 time=0.0076923
EXTRACT: note_on channel=3 note=59 velocity=0 time=0
EXTRACT: note_on channel=3 note=67 velocity=0 time=0
EXTRACT: note_on channel=9 note=40 velocity=0 time=0
EXTRACT: note_on channel=9 note=42 velocity=0 time=0
EXTRACT: note_on channel=9 note=62 velocity=0 time=0
EXTRACT: note_on channel=9 note=39 velocity=0 time=0
EXTRACT: note_on channel=9 note=54 velocity=0 time=0.1076922
EXTRACT: note_on channel=9 note=54 velocity=13 time=0
EXTRACT: note_on channel=1 note=31 velocity=99 time=0.0076923
EXTRACT: note_on channel=6 note=76 velocity=0 time=0
EXTRACT: note_on channel=9 note=42 velocity=46 time=0
EXTRACT: note_on channel=9 note=64 velocity=70 time=0
EXTRACT: note_on channel=6 note=64 velocity=0 time=0.0461538
EXTRACT: note_on channel=9 note=54 velocity=0 time=0.0615384
EXTRACT: note_on channel=9 note=54 velocity=13 time=0
EXTRACT: note_on channel=5 note=55 velocity=0 time=0.0076923
EXTRACT: note_on channel=7 note=62 velocity=0 time=0
EXTRACT: note_on channel=8 note=65 velocity=0 time=0
EXTRACT: note_on channel=9 note=42 velocity=0 time=0
EXTRACT: note_on channel=9 note=64 velocity=0 time=0
EXTRACT: note_on channel=9 note=54 velocity=0 time=0.1076922
EXTRACT: note_on channel=9 note=54 velocity=38 time=0
EXTRACT: note_on channel=5 note=55 velocity=120 time=0.0076923
EXTRACT: note_on channel=6 note=74 velocity=107 time=0
EXTRACT: note_on channel=7 note=64 velocity=110 time=0
EXTRACT: note_on channel=8 note=67 velocity=99 time=0
EXTRACT: note_on channel=9 note=36 velocity=94 time=0
EXTRACT: note_on channel=9 note=42 velocity=94 time=0
EXTRACT: note_on channel=6 note=62 velocity=113 time=0.01923075
EXTRACT: note_on channel=9 note=54 velocity=0 time=0.08846145
EXTRACT: note_on channel=9 note=54 velocity=27 time=0
EXTRACT: note_on channel=9 note=36 velocity=0 time=0.0076923
EXTRACT: note_on channel=9 note=42 velocity=0 time=0
EXTRACT: note_on channel=6 note=72 velocity=85 time=0.0923076
EXTRACT: note_on channel=9 note=54 velocity=0 time=0.0153846
EXTRACT: note_on channel=9 note=54 velocity=27 time=0
EXTRACT: note_on channel=1 note=31 velocity=0 time=0.0076923
EXTRACT: note_on channel=1 note=33 velocity=85 time=0
EXTRACT: note_on channel=3 note=67 velocity=94 time=0
EXTRACT: note_on channel=6 note=60 velocity=104 time=0
EXTRACT: note_on channel=9 note=36 velocity=88 time=0
EXTRACT: note_on channel=9 note=42 velocity=46 time=0
EXTRACT: note_on channel=9 note=62 velocity=48 time=0
EXTRACT: note_on channel=3 note=59 velocity=94 time=0.01153845
EXTRACT: note_on channel=3 note=62 velocity=110 time=0.01153845
EXTRACT: note_on channel=6 note=74 velocity=0 time=0.03461535
EXTRACT: note_on channel=9 note=42 velocity=0 time=0
EXTRACT: note_on channel=6 note=62 velocity=0 time=0.04999995
EXTRACT: note_on channel=9 note=54 velocity=0 time=0
EXTRACT: note_on channel=9 note=54 velocity=27 time=0
EXTRACT: note_on channel=3 note=62 velocity=0 time=0.0076923
EXTRACT: note_on channel=3 note=59 velocity=0 time=0
EXTRACT: note_on channel=3 note=67 velocity=0 time=0
EXTRACT: note_on channel=9 note=36 velocity=0 time=0
EXTRACT: note_on channel=9 note=62 velocity=0 time=0
EXTRACT: note_on channel=6 note=60 velocity=0 time=0.0846153
EXTRACT: note_on channel=6 note=69 velocity=97 time=0.00384615
EXTRACT: note_on channel=6 note=72 velocity=0 time=0.0153846
EXTRACT: note_on channel=6 note=57 velocity=110 time=0
EXTRACT: note_on channel=9 note=54 velocity=0 time=0.00384615
EXTRACT: note_on channel=9 note=54 velocity=36 time=0
EXTRACT: note_on channel=1 note=33 velocity=0 time=0.0076923
EXTRACT: note_on channel=1 note=36 velocity=74 time=0
EXTRACT: note_on channel=5 note=55 velocity=0 time=0
EXTRACT: note_on channel=5 note=53 velocity=104 time=0
EXTRACT: note_on channel=7 note=64 velocity=0 time=0
EXTRACT: note_on channel=7 note=62 velocity=90 time=0
EXTRACT: note_on channel=8 note=67 velocity=0 time=0
EXTRACT: note_on channel=8 note=65 velocity=83 time=0
EXTRACT: note_on channel=9 note=40 velocity=93 time=0
EXTRACT: note_on channel=9 note=42 velocity=89 time=0
EXTRACT: note_on channel=9 note=62 velocity=52 time=0
EXTRACT: note_on channel=9 note=39 velocity=93 time=0
EXTRACT: note_on channel=9 note=54 velocity=0 time=0.1076922
EXTRACT: note_on channel=9 note=54 velocity=27 time=0
EXTRACT: note_on channel=9 note=40 velocity=0 time=0.0076923
EXTRACT: note_on channel=9 note=42 velocity=0 time=0
EXTRACT: note_on channel=9 note=62 velocity=0 time=0
EXTRACT: note_on channel=9 note=39 velocity=0 time=0
EXTRACT: note_on channel=6 note=69 velocity=0 time=0.09615375
EXTRACT: note_on channel=6 note=57 velocity=0 time=0.00384615
EXTRACT: note_on channel=6 note=67 velocity=107 time=0.00384615
EXTRACT: note_on channel=9 note=54 velocity=0 time=0.00384615
EXTRACT: note_on channel=9 note=54 velocity=28 time=0
EXTRACT: note_on channel=0 note=47 velocity=0 time=0.0076923
EXTRACT: note_on channel=1 note=36 velocity=0 time=0
EXTRACT: note_on channel=1 note=33 velocity=72 time=0
EXTRACT: note_on channel=5 note=53 velocity=0 time=0
EXTRACT: note_on channel=5 note=52 velocity=92 time=0
EXTRACT: note_on channel=7 note=62 velocity=0 time=0
EXTRACT: note_on channel=7 note=60 velocity=97 time=0
EXTRACT: note_on channel=8 note=65 velocity=0 time=0
EXTRACT: note_on channel=8 note=64 velocity=86 time=0
EXTRACT: note_on channel=9 note=36 velocity=71 time=0
EXTRACT: note_on channel=9 note=42 velocity=51 time=0
EXTRACT: note_on channel=9 note=63 velocity=67 time=0
EXTRACT: note_on channel=6 note=55 velocity=107 time=0.0076923
EXTRACT: note_on channel=9 note=54 velocity=0 time=0.0999999
EXTRACT: note_on channel=9 note=54 velocity=38 time=0
EXTRACT: note_on channel=0 note=55 velocity=0 time=0.0076923
EXTRACT: note_on channel=0 note=50 velocity=0 time=0
EXTRACT: note_on channel=9 note=36 velocity=0 time=0
EXTRACT: note_on channel=9 note=42 velocity=0 time=0
EXTRACT: note_on channel=9 note=63 velocity=0 time=0
EXTRACT: note_on channel=6 note=55 velocity=0 time=0.07307685
EXTRACT: note_on channel=9 note=54 velocity=0 time=0.03461535
EXTRACT: note_on channel=0 note=55 velocity=72 time=0.0076923
EXTRACT: note_on channel=0 note=52 velocity=66 time=0
EXTRACT: note_on channel=0 note=60 velocity=67 time=0
EXTRACT: note_on channel=1 note=33 velocity=0 time=0
EXTRACT: note_on channel=1 note=36 velocity=107 time=0
EXTRACT: note_on channel=3 note=72 velocity=80 time=0
EXTRACT: note_on channel=5 note=52 velocity=0 time=0
EXTRACT: note_on channel=5 note=64 velocity=100 time=0
EXTRACT: note_on channel=7 note=60 velocity=0 time=0
EXTRACT: note_on channel=7 note=67 velocity=110 time=0
EXTRACT: note_on channel=8 note=64 velocity=0 time=0
EXTRACT: note_on channel=8 note=72 velocity=92 time=0
EXTRACT: note_on channel=9 note=36 velocity=97 time=0
EXTRACT: note_on channel=9 note=42 velocity=99 time=0
EXTRACT: note_on channel=9 note=49 velocity=83 time=0
EXTRACT: note_on channel=9 note=63 velocity=50 time=0
EXTRACT: note_on channel=4 note=79 velocity=0 time=0.0076923
EXTRACT: note_on channel=6 note=67 velocity=0 time=0
EXTRACT: note_on channel=3 note=67 velocity=85 time=0.00384615
EXTRACT: note_on channel=3 note=64 velocity=82 time=0.01153845
EXTRACT: note_on channel=4 note=79 velocity=120 time=0.0153846
EXTRACT: note_on channel=9 note=54 velocity=7 time=0.0692307
EXTRACT: note_on channel=9 note=36 velocity=0 time=0.0076923
EXTRACT: note_on channel=9 note=42 velocity=0 time=0
EXTRACT: note_on channel=9 note=49 velocity=0 time=0
EXTRACT: note_on channel=9 note=63 velocity=0 time=0
EXTRACT: note_on channel=9 note=54 velocity=0 time=0.1076922
EXTRACT: note_on channel=9 note=54 velocity=7 time=0
EXTRACT: note_on channel=1 note=36 velocity=0 time=0.0076923
EXTRACT: note_on channel=7 note=67 velocity=0 time=0
EXTRACT: note_on channel=8 note=72 velocity=0 time=0
EXTRACT: note_on channel=9 note=42 velocity=32 time=0
EXTRACT: note_on channel=9 note=62 velocity=56 time=0
EXTRACT: note_on channel=9 note=54 velocity=0 time=0.1076922
EXTRACT: note_on channel=9 note=54 velocity=7 time=0
EXTRACT: note_on channel=3 note=64 velocity=0 time=0.0076923
EXTRACT: note_on channel=3 note=67 velocity=0 time=0
EXTRACT: note_on channel=3 note=72 velocity=0 time=0
EXTRACT: note_on channel=5 note=64 velocity=0 time=0
EXTRACT: note_on channel=9 note=42 velocity=0 time=0
EXTRACT: note_on channel=9 note=62 velocity=0 time=0
EXTRACT: note_on channel=9 note=54 velocity=0 time=0.1076922
EXTRACT: note_on channel=9 note=54 velocity=10 time=0
EXTRACT: note_on channel=1 note=36 velocity=110 time=0.0076923
EXTRACT: note_on channel=3 note=67 velocity=101 time=0
EXTRACT: note_on channel=5 note=60 velocity=117 time=0
EXTRACT: note_on channel=7 note=64 velocity=107 time=0
EXTRACT: note_on channel=8 note=67 velocity=90 time=0
EXTRACT: note_on channel=9 note=40 velocity=93 time=0
EXTRACT: note_on channel=9 note=42 velocity=99 time=0
EXTRACT: note_on channel=9 note=62 velocity=58 time=0
EXTRACT: note_on channel=9 note=39 velocity=93 time=0
EXTRACT: note_on channel=3 note=64 velocity=90 time=0.01153845
EXTRACT: note_on channel=3 note=72 velocity=94 time=0.01153845
EXTRACT: note_on channel=9 note=54 velocity=0 time=0.0846153
EXTRACT: note_on channel=9 note=54 velocity=13 time=0
EXTRACT: note_on channel=3 note=72 velocity=0 time=0.0076923
EXTRACT: note_on channel=3 note=64 velocity=0 time=0
EXTRACT: note_on channel=3 note=67 velocity=0 time=0
EXTRACT: note_on channel=9 note=40 velocity=0 time=0
EXTRACT: note_on channel=9 note=42 velocity=0 time=0
EXTRACT: note_on channel=9 note=62 velocity=0 time=0
EXTRACT: note_on channel=9 note=39 velocity=0 time=0
EXTRACT: note_on channel=9 note=54 velocity=0 time=0.1076922
EXTRACT: note_on channel=9 note=54 velocity=12 time=0
EXTRACT: note_on channel=1 note=36 velocity=0 time=0.0076923
EXTRACT: note_on channel=7 note=64 velocity=0 time=0
EXTRACT: note_on channel=8 note=67 velocity=0 time=0
EXTRACT: note_on channel=9 note=42 velocity=49 time=0
EXTRACT: note_on channel=9 note=64 velocity=70 time=0
EXTRACT: note_on channel=9 note=54 velocity=0 time=0.1076922
EXTRACT: note_on channel=9 note=54 velocity=13 time=0
EXTRACT: note_on channel=5 note=60 velocity=0 time=0.0076923
EXTRACT: note_on channel=9 note=42 velocity=0 time=0
EXTRACT: note_on channel=9 note=64 velocity=0 time=0
EXTRACT: note_on channel=9 note=54 velocity=0 time=0.1076922
EXTRACT: note_on channel=9 note=54 velocity=42 time=0
EXTRACT: note_on channel=1 note=36 velocity=104 time=0.0076923
EXTRACT: note_on channel=5 note=55 velocity=117 time=0
EXTRACT: note_on channel=7 note=60 velocity=110 time=0
EXTRACT: note_on channel=8 note=64 velocity=99 time=0
EXTRACT: note_on channel=9 note=36 velocity=88 time=0
EXTRACT: note_on channel=9 note=42 velocity=84 time=0
EXTRACT: note_on channel=6 note=72 velocity=117 time=0.03461535
EXTRACT: note_on channel=6 note=60 velocity=117 time=0
EXTRACT: note_on channel=9 note=54 velocity=0 time=0.07307685
EXTRACT: note_on channel=9 note=54 velocity=28 time=0
EXTRACT: note_on channel=9 note=36 velocity=0 time=0.0076923
EXTRACT: note_on channel=9 note=42 velocity=0 time=0
EXTRACT: note_on channel=6 note=60 velocity=0 time=0.0923076
EXTRACT: note_on channel=6 note=72 velocity=0 time=0
EXTRACT: note_on channel=9 note=54 velocity=0 time=0.0153846
EXTRACT: note_on channel=9 note=54 velocity=28 time=0
EXTRACT: note_on channel=1 note=36 velocity=0 time=0.0076923
EXTRACT: note_on channel=1 note=31 velocity=71 time=0
EXTRACT: note_on channel=3 note=72 velocity=83 time=0
EXTRACT: note_on channel=6 note=67 velocity=78 time=0
EXTRACT: note_on channel=6 note=55 velocity=78 time=0
EXTRACT: note_on channel=9 note=36 velocity=94 time=0
EXTRACT: note_on channel=9 note=42 velocity=53 time=0
EXTRACT: note_on channel=9 note=62 velocity=36 time=0
EXTRACT: note_on channel=3 note=64 velocity=85 time=0.01153845
EXTRACT: note_on channel=3 note=67 velocity=104 time=0.01153845
EXTRACT: note_on channel=9 note=54 velocity=0 time=0.0846153
EXTRACT: note_on channel=9 note=54 velocity=28 time=0
EXTRACT: note_on channel=3 note=67 velocity=0 time=0.0076923
EXTRACT: note_on channel=3 note=64 velocity=0 time=0
EXTRACT: note_on channel=3 note=72 velocity=0 time=0
EXTRACT: note_on channel=7 note=60 velocity=0 time=0
EXTRACT: note_on channel=9 note=36 velocity=0 time=0
EXTRACT: note_on channel=9 note=42 velocity=0 time=0
EXTRACT: note_on channel=9 note=62 velocity=0 time=0
EXTRACT: note_on channel=6 note=69 velocity=110 time=0.10384605
EXTRACT: note_on channel=6 note=57 velocity=110 time=0
EXTRACT: note_on channel=9 note=54 velocity=0 time=0.00384615
EXTRACT: note_on channel=9 note=54 velocity=41 time=0
EXTRACT: note_on channel=0 note=55 velocity=0 time=0.0076923
EXTRACT: note_on channel=1 note=31 velocity=0 time=0
EXTRACT: note_on channel=1 note=33 velocity=83 time=0
EXTRACT: note_on channel=5 note=55 velocity=0 time=0
EXTRACT: note_on channel=8 note=64 velocity=0 time=0
EXTRACT: note_on channel=9 note=40 velocity=93 time=0
EXTRACT: note_on channel=9 note=42 velocity=94 time=0
EXTRACT: note_on channel=9 note=62 velocity=52 time=0
EXTRACT: note_on channel=9 note=39 velocity=93 time=0
EXTRACT: note_on channel=6 note=55 velocity=0 time=0.01923075
EXTRACT: note_on channel=6 note=67 velocity=0 time=0
EXTRACT: note_on channel=9 note=54 velocity=0 time=0.08846145
EXTRACT: note_on channel=9 note=54 velocity=28 time=0
EXTRACT: note_on channel=0 note=60 velocity=0 time=0.0076923
EXTRACT: note_on channel=0 note=52 velocity=0 time=0
EXTRACT: note_on channel=9 note=40 velocity=0 time=0
EXTRACT: note_on channel=9 note=42 velocity=0 time=0
EXTRACT: note_on channel=9 note=62 velocity=0 time=0
EXTRACT: note_on channel=9 note=39 velocity=0 time=0
EXTRACT: note_on channel=9 note=54 velocity=0 time=0.1076922
EXTRACT: note_on channel=9 note=54 velocity=31 time=0
EXTRACT: note_on channel=0 note=53 velocity=78 time=0.0076923
EXTRACT: note_on channel=0 note=50 velocity=64 time=0
EXTRACT: note_on channel=0 note=58 velocity=68 time=0
EXTRACT: note_on channel=1 note=33 velocity=0 time=0
EXTRACT: note_on channel=1 note=34 velocity=104 time=0
EXTRACT: note_on channel=3 note=62 velocity=86 time=0
EXTRACT: note_on channel=5 note=58 velocity=109 time=0
EXTRACT: note_on channel=7 note=62 velocity=107 time=0
EXTRACT: note_on channel=8 note=65 velocity=104 time=0
EXTRACT: note_on channel=9 note=36 velocity=70 time=0
EXTRACT: note_on channel=9 note=42 velocity=38 time=0
EXTRACT: note_on channel=9 note=63 velocity=56 time=0
EXTRACT: note_on channel=6 note=70 velocity=100 time=0.00384615
EXTRACT: note_on channel=6 note=58 velocity=100 time=0
EXTRACT: note_on channel=3 note=65 velocity=92 time=0.0076923
EXTRACT: note_on channel=6 note=69 velocity=0 time=0.0076923
EXTRACT: note_on channel=6 note=57 velocity=0 time=0
EXTRACT: note_on channel=3 note=70 velocity=96 time=0.00384615
EXTRACT: note_on channel=9 note=54 velocity=0 time=0.0846153
EXTRACT: note_on channel=9 note=54 velocity=37 time=0
EXTRACT: note_on channel=9 note=36 velocity=0 time=0.0076923
EXTRACT: note_on channel=9 note=42 velocity=0 time=0
EXTRACT: note_on channel=9 note=63 velocity=0 time=0
EXTRACT: note_on channel=9 note=54 velocity=0 time=0.1076922
EXTRACT: note_on channel=9 note=54 velocity=41 time=0
EXTRACT: note_on channel=9 note=36 velocity=104 time=0.0076923
EXTRACT: note_on channel=9 note=42 velocity=94 time=0
EXTRACT: note_on channel=6 note=70 velocity=0 time=0.0230769
EXTRACT: note_on channel=6 note=58 velocity=0 time=0
EXTRACT: note_on channel=9 note=54 velocity=0 time=0.0846153
EXTRACT: note_on channel=9 note=54 velocity=10 time=0
EXTRACT: note_on channel=5 note=58 velocity=0 time=0.0076923
EXTRACT: note_on channel=7 note=62 velocity=0 time=0
EXTRACT: note_on channel=8 note=65 velocity=0 time=0
EXTRACT: note_on channel=9 note=36 velocity=0 time=0
EXTRACT: note_on channel=9 note=42 velocity=0 time=0
EXTRACT: note_on channel=9 note=54 velocity=0 time=0.1076922
EXTRACT: note_on channel=9 note=54 velocity=10 time=0
EXTRACT: note_on channel=1 note=34 velocity=0 time=0.0076923
EXTRACT: note_on channel=1 note=29 velocity=83 time=0
EXTRACT: note_on channel=5 note=58 velocity=114 time=0
EXTRACT: note_on channel=7 note=62 velocity=99 time=0
EXTRACT: note_on channel=8 note=65 velocity=88 time=0
EXTRACT: note_on channel=9 note=42 velocity=40 time=0
EXTRACT: note_on channel=9 note=62 velocity=46 time=0
EXTRACT: note_on channel=9 note=54 velocity=0 time=0.1076922
EXTRACT: note_on channel=9 note=54 velocity=11 time=0
EXTRACT: note_on channel=3 note=70 velocity=0 time=0.0076923
EXTRACT: note_on channel=3 note=62 velocity=0 time=0
EXTRACT: note_on channel=5 note=58 velocity=0 time=0
EXTRACT: note_on channel=7 note=62 velocity=0 time=0
EXTRACT: note_on channel=9 note=42 velocity=0 time=0
EXTRACT: note_on channel=9 note=62 velocity=0 time=0
EXTRACT: note_on channel=8 note=65 velocity=0 time=0.0384615
EXTRACT: note_on channel=4 note=79 velocity=0 time=0.04999995
EXTRACT: note_on channel=4 note=72 velocity=99 time=0.0153846
EXTRACT: note_on channel=9 note=54 velocity=0 time=0.00384615
EXTRACT: note_on channel=9 note=54 velocity=11 time=0
EXTRACT: note_on channel=1 note=29 velocity=0 time=0.0076923
EXTRACT: note_on channel=1 note=31 velocity=68 time=0
EXTRACT: note_on channel=3 note=65 velocity=0 time=0
EXTRACT: note_on channel=3 note=65 velocity=88 time=0
EXTRACT: note_on channel=5 note=58 velocity=109 time=0
EXTRACT: note_on channel=7 note=62 velocity=104 time=0
EXTRACT: note_on channel=8 note=65 velocity=94 time=0
EXTRACT: note_on channel=9 note=40 velocity=87 time=0
EXTRACT: note_on channel=9 note=42 velocity=94 time=0
EXTRACT: note_on channel=9 note=62 velocity=50 time=0
EXTRACT: note_on channel=9 note=39 velocity=87 time=0
EXTRACT: note_on channel=3 note=62 velocity=82 time=0.01153845
EXTRACT: note_on channel=3 note=70 velocity=100 time=0.01153845
EXTRACT: note_on channel=9 note=54 velocity=0 time=0.0846153
EXTRACT: note_on channel=9 note=54 velocity=11 time=0
EXTRACT: note_on channel=3 note=70 velocity=0 time=0.0076923
EXTRACT: note_on channel=3 note=62 velocity=0 time=0
EXTRACT: note_on channel=3 note=65 velocity=0 time=0
EXTRACT: note_on channel=9 note=40 velocity=0 time=0
EXTRACT: note_on channel=9 note=42 velocity=0 time=0
EXTRACT: note_on channel=9 note=62 velocity=0 time=0
EXTRACT: note_on channel=9 note=39 velocity=0 time=0
EXTRACT: note_on channel=9 note=54 velocity=0 time=0.1076922
EXTRACT: note_on channel=9 note=54 velocity=13 time=0
EXTRACT: note_on channel=1 note=31 velocity=0 time=0.0076923
EXTRACT: note_on channel=1 note=34 velocity=96 time=0
EXTRACT: note_on channel=5 note=58 velocity=0 time=0
EXTRACT: note_on channel=5 note=57 velocity=88 time=0
EXTRACT: note_on channel=7 note=62 velocity=0 time=0
EXTRACT: note_on channel=7 note=60 velocity=75 time=0
EXTRACT: note_on channel=8 note=65 velocity=0 time=0
EXTRACT: note_on channel=8 note=64 velocity=69 time=0
EXTRACT: note_on channel=9 note=42 velocity=34 time=0
EXTRACT: note_on channel=9 note=64 velocity=66 time=0
EXTRACT: note_on channel=9 note=54 velocity=0 time=0.1076922
EXTRACT: note_on channel=9 note=54 velocity=13 time=0
EXTRACT: note_on channel=8 note=64 velocity=0 time=0.0076923
EXTRACT: note_on channel=9 note=42 velocity=0 time=0
EXTRACT: note_on channel=9 note=64 velocity=0 time=0
EXTRACT: note_on channel=4 note=76 velocity=101 time=0.08846145
EXTRACT: note_on channel=9 note=54 velocity=0 time=0.01923075
EXTRACT: note_on channel=9 note=54 velocity=38 time=0
EXTRACT: note_on channel=5 note=57 velocity=0 time=0.0076923
EXTRACT: note_on channel=5 note=60 velocity=113 time=0
EXTRACT: note_on channel=7 note=60 velocity=0 time=0
EXTRACT: note_on channel=7 note=64 velocity=107 time=0
EXTRACT: note_on channel=8 note=67 velocity=99 time=0
EXTRACT: note_on channel=9 note=36 velocity=86 time=0
EXTRACT: note_on channel=9 note=42 velocity=94 time=0
EXTRACT: note_on channel=4 note=72 velocity=0 time=0.0076923
EXTRACT: note_on channel=9 note=54 velocity=0 time=0.0999999
EXTRACT: note_on channel=9 note=54 velocity=27 time=0
EXTRACT: note_on channel=9 note=36 velocity=0 time=0.0076923
EXTRACT: note_on channel=9 note=42 velocity=0 time=0
EXTRACT: note_on channel=9 note=54 velocity=0 time=0.1076922
EXTRACT: note_on channel=9 note=54 velocity=27 time=0
EXTRACT: note_on channel=1 note=34 velocity=0 time=0.0076923
EXTRACT: note_on channel=1 note=29 velocity=85 time=0
EXTRACT: note_on channel=3 note=65 velocity=94 time=0
EXTRACT: note_on channel=9 note=36 velocity=85 time=0
EXTRACT: note_on channel=9 note=42 velocity=31 time=0
EXTRACT: note_on channel=9 note=62 velocity=36 time=0
EXTRACT: note_on channel=3 note=62 velocity=90 time=0.01153845
EXTRACT: note_on channel=3 note=70 velocity=96 time=0.01153845
EXTRACT: note_on channel=9 note=54 velocity=0 time=0.0846153
EXTRACT: note_on channel=9 note=54 velocity=27 time=0
EXTRACT: note_on channel=3 note=70 velocity=0 time=0.0076923
EXTRACT: note_on channel=3 note=62 velocity=0 time=0
EXTRACT: note_on channel=3 note=65 velocity=0 time=0
EXTRACT: note_on channel=5 note=60 velocity=0 time=0
EXTRACT: note_on channel=7 note=64 velocity=0 time=0
EXTRACT: note_on channel=8 note=67 velocity=0 time=0
EXTRACT: note_on channel=9 note=36 velocity=0 time=0
EXTRACT: note_on channel=9 note=42 velocity=0 time=0
EXTRACT: note_on channel=9 note=62 velocity=0 time=0
EXTRACT: note_on channel=4 note=77 velocity=97 time=0.09615375
EXTRACT: note_on channel=4 note=76 velocity=0 time=0.0076923
EXTRACT: note_on channel=9 note=54 velocity=0 time=0.00384615
EXTRACT: note_on channel=9 note=54 velocity=36 time=0
EXTRACT: note_on channel=1 note=29 velocity=0 time=0.0076923
EXTRACT: note_on channel=1 note=31 velocity=71 time=0
EXTRACT: note_on channel=7 note=64 velocity=35 time=0
EXTRACT: note_on channel=9 note=40 velocity=87 time=0
EXTRACT: note_on channel=9 note=42 velocity=99 time=0
EXTRACT: note_on channel=9 note=62 velocity=50 time=0
EXTRACT: note_on channel=9 note=39 velocity=87 time=0
EXTRACT: note_on channel=9 note=54 velocity=0 time=0.1076922
EXTRACT: note_on channel=9 note=54 velocity=27 time=0
EXTRACT: note_on channel=7 note=64 velocity=0 time=0.0076923
EXTRACT: note_on channel=9 note=40 velocity=0 time=0
EXTRACT: note_on channel=9 note=42 velocity=0 time=0
EXTRACT: note_on channel=9 note=62 velocity=0 time=0
EXTRACT: note_on channel=9 note=39 velocity=0 time=0
EXTRACT: note_on channel=9 note=54 velocity=0 time=0.1076922
EXTRACT: note_on channel=9 note=54 velocity=28 time=0
EXTRACT: note_on channel=0 note=58 velocity=0 time=0.0076923
EXTRACT: note_on channel=0 note=53 velocity=0 time=0
EXTRACT: note_on channel=1 note=31 velocity=0 time=0
EXTRACT: note_on channel=1 note=34 velocity=92 time=0
EXTRACT: note_on channel=5 note=55 velocity=94 time=0
EXTRACT: note_on channel=7 note=60 velocity=97 time=0
EXTRACT: note_on channel=8 note=64 velocity=97 time=0
EXTRACT: note_on channel=9 note=36 velocity=71 time=0
EXTRACT: note_on channel=9 note=42 velocity=38 time=0
EXTRACT: note_on channel=9 note=63 velocity=58 time=0
EXTRACT: note_on channel=9 note=54 velocity=0 time=0.1076922
EXTRACT: note_on channel=9 note=54 velocity=38 time=0
EXTRACT: note_on channel=0 note=50 velocity=0 time=0.0076923
EXTRACT: note_on channel=8 note=64 velocity=0 time=0
EXTRACT: note_on channel=9 note=36 velocity=0 time=0
EXTRACT: note_on channel=9 note=42 velocity=0 time=0
EXTRACT: note_on channel=9 note=63 velocity=0 time=0
EXTRACT: note_on channel=5 note=55 velocity=0 time=0.076923
EXTRACT: note_on channel=9 note=54 velocity=0 time=0.0307692
EXTRACT: note_on channel=9 note=54 velocity=39 time=0
EXTRACT: note_on channel=0 note=52 velocity=62 time=0.0076923
EXTRACT: note_on channel=0 note=48 velocity=62 time=0
EXTRACT: note_on channel=0 note=57 velocity=67 time=0
EXTRACT: note_on channel=1 note=34 velocity=0 time=0
EXTRACT: note_on channel=1 note=33 velocity=85 time=0
EXTRACT: note_on channel=3 note=60 velocity=83 time=0
EXTRACT: note_on channel=5 note=57 velocity=109 time=0
EXTRACT: note_on channel=7 note=60 velocity=0 time=0
EXTRACT: note_on channel=7 note=62 velocity=97 time=0
EXTRACT: note_on channel=8 note=65 velocity=94 time=0
EXTRACT: note_on channel=9 note=36 velocity=101 time=0
EXTRACT: note_on channel=9 note=42 velocity=99 time=0
EXTRACT: note_on channel=3 note=69 velocity=75 time=0.01153845
EXTRACT: note_on channel=4 note=77 velocity=0 time=0
EXTRACT: note_on channel=4 note=81 velocity=88 time=0.00384615
EXTRACT: note_on channel=3 note=64 velocity=97 time=0.0076923
EXTRACT: note_on channel=9 note=54 velocity=0 time=0.0846153
EXTRACT: note_on channel=9 note=54 velocity=7 time=0
EXTRACT: note_on channel=9 note=36 velocity=0 time=0.0076923
EXTRACT: note_on channel=9 note=42 velocity=0 time=0
EXTRACT: note_on channel=9 note=54 velocity=0 time=0.1076922
EXTRACT: note_on channel=9 note=54 velocity=7 time=0
EXTRACT: note_on channel=1 note=33 velocity=0 time=0.0076923
EXTRACT: note_on channel=5 note=57 velocity=0 time=0
EXTRACT: note_on channel=7 note=62 velocity=0 time=0
EXTRACT: note_on channel=8 note=65 velocity=0 time=0
EXTRACT: note_on channel=9 note=42 velocity=27 time=0
EXTRACT: note_on channel=9 note=62 velocity=34 time=0
EXTRACT: note_on channel=9 note=54 velocity=0 time=0.1076922
EXTRACT: note_on channel=9 note=54 velocity=7 time=0
EXTRACT: note_on channel=9 note=42 velocity=0 time=0.0076923
EXTRACT: note_on channel=9 note=62 velocity=0 time=0
EXTRACT: note_on channel=9 note=54 velocity=0 time=0.1076922
EXTRACT: note_on channel=9 note=54 velocity=10 time=0
EXTRACT: note_on channel=1 note=33 velocity=90 time=0.0076923
EXTRACT: note_on channel=3 note=64 velocity=0 time=0
EXTRACT: note_on channel=3 note=69 velocity=0 time=0
EXTRACT: note_on channel=3 note=60 velocity=0 time=0
EXTRACT: note_on channel=3 note=60 velocity=88 time=0
EXTRACT: note_on channel=5 note=57 velocity=117 time=0
EXTRACT: note_on channel=7 note=62 velocity=101 time=0
EXTRACT: note_on channel=8 note=65 velocity=104 time=0
EXTRACT: note_on channel=9 note=40 velocity=93 time=0
EXTRACT: note_on channel=9 note=42 velocity=94 time=0
EXTRACT: note_on channel=9 note=62 velocity=46 time=0
EXTRACT: note_on channel=9 note=39 velocity=93 time=0
EXTRACT: note_on channel=3 note=69 velocity=85 time=0.01153845
EXTRACT: note_on channel=6 note=69 velocity=117 time=0.00384615
EXTRACT: note_on channel=6 note=57 velocity=117 time=0
EXTRACT: note_on channel=3 note=64 velocity=104 time=0.0076923
EXTRACT: note_on channel=9 note=54 velocity=0 time=0.0846153
EXTRACT: note_on channel=9 note=54 velocity=13 time=0
EXTRACT: note_on channel=3 note=64 velocity=0 time=0.0076923
EXTRACT: note_on channel=3 note=69 velocity=0 time=0
EXTRACT: note_on channel=3 note=60 velocity=0 time=0
EXTRACT: note_on channel=9 note=40 velocity=0 time=0
EXTRACT: note_on channel=9 note=42 velocity=0 time=0
EXTRACT: note_on channel=9 note=62 velocity=0 time=0
EXTRACT: note_on channel=9 note=39 velocity=0 time=0
EXTRACT: note_on channel=9 note=54 velocity=0 time=0.1076922
EXTRACT: note_on channel=9 note=54 velocity=12 time=0
EXTRACT: note_on channel=1 note=33 velocity=0 time=0.0076923
EXTRACT: note_on channel=5 note=57 velocity=0 time=0
EXTRACT: note_on channel=8 note=65 velocity=0 time=0
EXTRACT: note_on channel=9 note=42 velocity=23 time=0
EXTRACT: note_on channel=9 note=64 velocity=66 time=0
EXTRACT: note_on channel=6 note=57 velocity=0 time=0.0230769
EXTRACT: note_on channel=6 note=69 velocity=0 time=0
EXTRACT: note_on channel=9 note=54 velocity=0 time=0.0846153
EXTRACT: note_on channel=9 note=54 velocity=13 time=0
EXTRACT: note_on channel=7 note=62 velocity=0 time=0.0076923
EXTRACT: note_on channel=9 note=42 velocity=0 time=0
EXTRACT: note_on channel=9 note=64 velocity=0 time=0
EXTRACT: note_on channel=9 note=54 velocity=0 time=0.1076922
EXTRACT: note_on channel=9 note=54 velocity=42 time=0
EXTRACT: note_on channel=1 note=33 velocity=99 time=0.0076923
EXTRACT: note_on channel=5 note=57 velocity=117 time=0
EXTRACT: note_on channel=7 note=62 velocity=110 time=0
EXTRACT: note_on channel=8 note=65 velocity=101 time=0
EXTRACT: note_on channel=9 note=36 velocity=85 time=0
EXTRACT: note_on channel=9 note=42 velocity=99 time=0
EXTRACT: note_on channel=6 note=69 velocity=113 time=0.02692305
EXTRACT: note_on channel=6 note=57 velocity=113 time=0
EXTRACT: note_on channel=9 note=54 velocity=0 time=0.08076915
EXTRACT: note_on channel=9 note=54 velocity=28 time=0
EXTRACT: note_on channel=9 note=36 velocity=0 time=0.0076923
EXTRACT: note_on channel=9 note=42 velocity=0 time=0
EXTRACT: note_on channel=9 note=54 velocity=0 time=0.1076922
EXTRACT: note_on channel=9 note=54 velocity=28 time=0
EXTRACT: note_on channel=1 note=33 velocity=0 time=0.0076923
EXTRACT: note_on channel=1 note=29 velocity=76 time=0
EXTRACT: note_on channel=3 note=69 velocity=85 time=0
EXTRACT: note_on channel=5 note=57 velocity=0 time=0
EXTRACT: note_on channel=5 note=55 velocity=99 time=0
EXTRACT: note_on channel=7 note=62 velocity=0 time=0
EXTRACT: note_on channel=7 note=60 velocity=86 time=0
EXTRACT: note_on channel=8 note=65 velocity=0 time=0
EXTRACT: note_on channel=8 note=64 velocity=76 time=0
EXTRACT: note_on channel=9 note=36 velocity=83 time=0
EXTRACT: note_on channel=9 note=42 velocity=53 time=0
EXTRACT: note_on channel=9 note=62 velocity=37 time=0
EXTRACT: note_on channel=3 note=60 velocity=90 time=0.01153845
EXTRACT: note_on channel=6 note=70 velocity=96 time=0.00384615
EXTRACT: note_on channel=6 note=58 velocity=96 time=0
EXTRACT: note_on channel=3 note=64 velocity=104 time=0.0076923
EXTRACT: note_on channel=6 note=57 velocity=0 time=0.00384615
EXTRACT: note_on channel=6 note=69 velocity=0 time=0
EXTRACT: note_on channel=9 note=54 velocity=0 time=0.08076915
EXTRACT: note_on channel=9 note=54 velocity=28 time=0
EXTRACT: note_on channel=3 note=64 velocity=0 time=0.0076923
EXTRACT: note_on channel=3 note=60 velocity=0 time=0
EXTRACT: note_on channel=3 note=69 velocity=0 time=0
EXTRACT: note_on channel=9 note=36 velocity=0 time=0
EXTRACT: note_on channel=9 note=42 velocity=0 time=0
EXTRACT: note_on channel=9 note=62 velocity=0 time=0
EXTRACT: note_on channel=6 note=70 velocity=0 time=0.10384605
EXTRACT: note_on channel=6 note=58 velocity=0 time=0
EXTRACT: note_on channel=9 note=54 velocity=0 time=0.00384615
EXTRACT: note_on channel=9 note=54 velocity=41 time=0
EXTRACT: note_on channel=0 note=57 velocity=0 time=0.0076923
EXTRACT: note_on channel=1 note=29 velocity=0 time=0
EXTRACT: note_on channel=1 note=33 velocity=101 time=0
EXTRACT: note_on channel=5 note=55 velocity=0 time=0
EXTRACT: note_on channel=5 note=57 velocity=88 time=0
EXTRACT: note_on channel=7 note=60 velocity=0 time=0
EXTRACT: note_on channel=7 note=62 velocity=88 time=0
EXTRACT: note_on channel=8 note=64 velocity=0 time=0
EXTRACT: note_on channel=8 note=65 velocity=80 time=0
EXTRACT: note_on channel=9 note=40 velocity=100 time=0
EXTRACT: note_on channel=9 note=42 velocity=99 time=0
EXTRACT: note_on channel=9 note=62 velocity=43 time=0
EXTRACT: note_on channel=9 note=39 velocity=100 time=0
EXTRACT: note_on channel=6 note=69 velocity=107 time=0.01153845
EXTRACT: note_on channel=6 note=57 velocity=107 time=0
EXTRACT: note_on channel=9 note=54 velocity=0 time=0.09615375
EXTRACT: note_on channel=9 note=54 velocity=28 time=0
EXTRACT: note_on channel=0 note=48 velocity=0 time=0.0076923
EXTRACT: note_on channel=0 note=52 velocity=0 time=0
EXTRACT: note_on channel=9 note=40 velocity=0 time=0
EXTRACT: note_on channel=9 note=42 velocity=0 time=0
EXTRACT: note_on channel=9 note=62 velocity=0 time=0
EXTRACT: note_on channel=9 note=39 velocity=0 time=0
EXTRACT: note_on channel=4 note=79 velocity=97 time=0.04999995
EXTRACT: note_on channel=4 note=81 velocity=0 time=0.01923075
EXTRACT: note_on channel=6 note=57 velocity=0 time=0.02692305
EXTRACT: note_on channel=6 note=69 velocity=0 time=0
EXTRACT: note_on channel=9 note=54 velocity=0 time=0.01153845
EXTRACT: note_on channel=9 note=54 velocity=31 time=0
EXTRACT: note_on channel=0 note=50 velocity=72 time=0.0076923
EXTRACT: note_on channel=0 note=47 velocity=69 time=0
EXTRACT: note_on channel=0 note=55 velocity=68 time=0
EXTRACT: note_on channel=1 note=33 velocity=0 time=0
EXTRACT: note_on channel=1 note=31 velocity=86 time=0
EXTRACT: note_on channel=3 note=59 velocity=90 time=0
EXTRACT: note_on channel=5 note=57 velocity=0 time=0
EXTRACT: note_on channel=5 note=55 velocity=92 time=0
EXTRACT: note_on channel=6 note=67 velocity=97 time=0
EXTRACT: note_on channel=6 note=55 velocity=97 time=0
EXTRACT: note_on channel=7 note=62 velocity=0 time=0
EXTRACT: note_on channel=7 note=60 velocity=82 time=0
EXTRACT: note_on channel=8 note=65 velocity=0 time=0
EXTRACT: note_on channel=8 note=64 velocity=83 time=0
EXTRACT: note_on channel=9 note=36 velocity=71 time=0
EXTRACT: note_on channel=9 note=42 velocity=31 time=0
EXTRACT: note_on channel=9 note=63 velocity=58 time=0
EXTRACT: note_on channel=3 note=67 velocity=83 time=0.01153845
EXTRACT: note_on channel=3 note=62 velocity=104 time=0.01153845
EXTRACT: note_on channel=9 note=54 velocity=0 time=0.0846153
EXTRACT: note_on channel=9 note=54 velocity=37 time=0
EXTRACT: note_on channel=5 note=55 velocity=0 time=0.0076923
EXTRACT: note_on channel=9 note=36 velocity=0 time=0
EXTRACT: note_on channel=9 note=42 velocity=0 time=0
EXTRACT: note_on channel=9 note=63 velocity=0 time=0
EXTRACT: note_on channel=6 note=55 velocity=0 time=0.0692307
EXTRACT: note_on channel=6 note=67 velocity=0 time=0
EXTRACT: note_on channel=8 note=64 velocity=0 time=0.0076923
EXTRACT: note_on channel=9 note=54 velocity=0 time=0.0307692
EXTRACT: note_on channel=9 note=54 velocity=41 time=0
EXTRACT: note_on channel=5 note=55 velocity=117 time=0.0076923
EXTRACT: note_on channel=7 note=60 velocity=0 time=0
EXTRACT: note_on channel=7 note=62 velocity=94 time=0
EXTRACT: note_on channel=8 note=65 velocity=86 time=0
EXTRACT: note_on channel=9 note=36 velocity=101 time=0
EXTRACT: note_on channel=9 note=42 velocity=99 time=0
EXTRACT: note_on channel=9 note=54 velocity=0 time=0.1076922
EXTRACT: note_on channel=9 note=54 velocity=10 time=0
EXTRACT: note_on channel=1 note=31 velocity=0 time=0.0076923
EXTRACT: note_on channel=9 note=36 velocity=0 time=0
EXTRACT: note_on channel=9 note=42 velocity=0 time=0
EXTRACT: note_on channel=9 note=54 velocity=0 time=0.1076922
EXTRACT: note_on channel=9 note=54 velocity=10 time=0
EXTRACT: note_on channel=1 note=31 velocity=94 time=0.0076923
EXTRACT: note_on channel=7 note=62 velocity=0 time=0
EXTRACT: note_on channel=8 note=65 velocity=0 time=0
EXTRACT: note_on channel=9 note=42 velocity=42 time=0
EXTRACT: note_on channel=9 note=62 velocity=38 time=0
EXTRACT: note_on channel=9 note=54 velocity=0 time=0.1076922
EXTRACT: note_on channel=9 note=54 velocity=11 time=0
EXTRACT: note_on channel=5 note=55 velocity=0 time=0.0076923
EXTRACT: note_on channel=9 note=42 velocity=0 time=0
EXTRACT: note_on channel=9 note=62 velocity=0 time=0
EXTRACT: note_on channel=9 note=54 velocity=0 time=0.1076922
EXTRACT: note_on channel=9 note=54 velocity=11 time=0
EXTRACT: note_on channel=1 note=31 velocity=0 time=0.0076923
EXTRACT: note_on channel=3 note=62 velocity=0 time=0
EXTRACT: note_on channel=3 note=67 velocity=0 time=0
EXTRACT: note_on channel=3 note=59 velocity=0 time=0
EXTRACT: note_on channel=3 note=59 velocity=94 time=0
EXTRACT: note_on channel=5 note=55 velocity=123 time=0
EXTRACT: note_on channel=7 note=62 velocity=110 time=0
EXTRACT: note_on channel=8 note=65 velocity=94 time=0
EXTRACT: note_on channel=9 note=40 velocity=93 time=0
EXTRACT: note_on channel=9 note=42 velocity=99 time=0
EXTRACT: note_on channel=9 note=62 velocity=49 time=0
EXTRACT: note_on channel=9 note=39 velocity=93 time=0
EXTRACT: note_on channel=3 note=67 velocity=90 time=0.01153845
EXTRACT: note_on channel=3 note=62 velocity=110 time=0.01153845
EXTRACT: note_on channel=9 note=54 velocity=0 time=0.0846153
EXTRACT: note_on channel=9 note=54 velocity=11 time=0
EXTRACT: note_on channel=3 note=62 velocity=0 time=0.0076923
EXTRACT: note_on channel=3 note=67 velocity=0 time=0
EXTRACT: note_on channel=3 note=59 velocity=0 time=0
EXTRACT: note_on channel=9 note=40 velocity=0 time=0
EXTRACT: note_on channel=9 note=42 velocity=0 time=0
EXTRACT: note_on channel=9 note=62 velocity=0 time=0
EXTRACT: note_on channel=9 note=39 velocity=0 time=0
EXTRACT: note_on channel=9 note=54 velocity=0 time=0.1076922
EXTRACT: note_on channel=9 note=54 velocity=13 time=0
EXTRACT: note_on channel=1 note=31 velocity=99 time=0.0076923
EXTRACT: note_on channel=7 note=62 velocity=0 time=0
EXTRACT: note_on channel=8 note=65 velocity=0 time=0
EXTRACT: note_on channel=9 note=42 velocity=46 time=0
EXTRACT: note_on channel=9 note=64 velocity=70 time=0
EXTRACT: note_on channel=6 note=67 velocity=107 time=0.0461538
EXTRACT: note_on channel=6 note=55 velocity=107 time=0
EXTRACT: note_on channel=9 note=54 velocity=0 time=0.0615384
EXTRACT: note_on channel=9 note=54 velocity=13 time=0
EXTRACT: note_on channel=5 note=55 velocity=0 time=0.0076923
EXTRACT: note_on channel=9 note=42 velocity=0 time=0
EXTRACT: note_on channel=9 note=64 velocity=0 time=0
EXTRACT: note_on channel=9 note=54 velocity=0 time=0.1076922
EXTRACT: note_on channel=9 note=54 velocity=38 time=0
EXTRACT: note_on channel=5 note=55 velocity=123 time=0.0076923
EXTRACT: note_on channel=7 note=64 velocity=107 time=0
EXTRACT: note_on channel=8 note=67 velocity=99 time=0
EXTRACT: note_on channel=9 note=36 velocity=94 time=0
EXTRACT: note_on channel=9 note=42 velocity=94 time=0
EXTRACT: note_on channel=9 note=54 velocity=0 time=0.1076922
EXTRACT: note_on channel=9 note=54 velocity=27 time=0
EXTRACT: note_on channel=9 note=36 velocity=0 time=0.0076923
EXTRACT: note_on channel=9 note=42 velocity=0 time=0
EXTRACT: note_on channel=9 note=54 velocity=0 time=0.1076922
EXTRACT: note_on channel=9 note=54 velocity=27 time=0
EXTRACT: note_on channel=1 note=31 velocity=0 time=0.0076923
EXTRACT: note_on channel=1 note=33 velocity=85 time=0
EXTRACT: note_on channel=3 note=67 velocity=92 time=0
EXTRACT: note_on channel=9 note=36 velocity=88 time=0
EXTRACT: note_on channel=9 note=42 velocity=46 time=0
EXTRACT: note_on channel=9 note=62 velocity=48 time=0
EXTRACT: note_on channel=3 note=59 velocity=97 time=0.01153845
EXTRACT: note_on channel=6 note=69 velocity=113 time=0.00384615
EXTRACT: note_on channel=6 note=57 velocity=113 time=0
EXTRACT: note_on channel=3 note=62 velocity=107 time=0.0076923
EXTRACT: note_on channel=6 note=55 velocity=0 time=0.0307692
EXTRACT: note_on channel=6 note=67 velocity=0 time=0
EXTRACT: note_on channel=9 note=42 velocity=0 time=0.00384615
EXTRACT: note_on channel=9 note=54 velocity=0 time=0.04999995
EXTRACT: note_on channel=9 note=54 velocity=27 time=0
EXTRACT: note_on channel=3 note=62 velocity=0 time=0.0076923
EXTRACT: note_on channel=3 note=59 velocity=0 time=0
EXTRACT: note_on channel=3 note=67 velocity=0 time=0
EXTRACT: note_on channel=9 note=36 velocity=0 time=0
EXTRACT: note_on channel=9 note=62 velocity=0 time=0
EXTRACT: note_on channel=9 note=54 velocity=0 time=0.1076922
EXTRACT: note_on channel=9 note=54 velocity=36 time=0
EXTRACT: note_on channel=1 note=33 velocity=0 time=0.0076923
EXTRACT: note_on channel=1 note=36 velocity=74 time=0
EXTRACT: note_on channel=5 note=55 velocity=0 time=0
EXTRACT: note_on channel=5 note=53 velocity=107 time=0
EXTRACT: note_on channel=7 note=64 velocity=0 time=0
EXTRACT: note_on channel=7 note=62 velocity=86 time=0
EXTRACT: note_on channel=8 note=67 velocity=0 time=0
EXTRACT: note_on channel=8 note=65 velocity=79 time=0
EXTRACT: note_on channel=9 note=40 velocity=93 time=0
EXTRACT: note_on channel=9 note=42 velocity=89 time=0
EXTRACT: note_on channel=9 note=62 velocity=52 time=0
EXTRACT: note_on channel=9 note=39 velocity=93 time=0
EXTRACT: note_on channel=6 note=72 velocity=110 time=0.0153846
EXTRACT: note_on channel=6 note=60 velocity=110 time=0
EXTRACT: note_on channel=6 note=69 velocity=0 time=0.00384615
EXTRACT: note_on channel=6 note=57 velocity=0 time=0
EXTRACT: note_on channel=9 note=54 velocity=0 time=0.08846145
EXTRACT: note_on channel=9 note=54 velocity=27 time=0
EXTRACT: note_on channel=5 note=53 velocity=0 time=0.0076923
EXTRACT: note_on channel=9 note=40 velocity=0 time=0
EXTRACT: note_on channel=9 note=42 velocity=0 time=0
EXTRACT: note_on channel=9 note=62 velocity=0 time=0
EXTRACT: note_on channel=9 note=39 velocity=0 time=0
EXTRACT: note_on channel=7 note=62 velocity=0 time=0.076923
EXTRACT: note_on channel=6 note=69 velocity=101 time=0.02692305
EXTRACT: note_on channel=6 note=57 velocity=101 time=0
EXTRACT: note_on channel=9 note=54 velocity=0 time=0.00384615
EXTRACT: note_on channel=9 note=54 velocity=28 time=0
EXTRACT: note_on channel=0 note=47 velocity=0 time=0.0076923
EXTRACT: note_on channel=1 note=36 velocity=0 time=0
EXTRACT: note_on channel=1 note=33 velocity=72 time=0
EXTRACT: note_on channel=5 note=52 velocity=99 time=0
EXTRACT: note_on channel=7 note=60 velocity=97 time=0
EXTRACT: note_on channel=8 note=65 velocity=0 time=0
EXTRACT: note_on channel=8 note=64 velocity=90 time=0
EXTRACT: note_on channel=9 note=36 velocity=71 time=0
EXTRACT: note_on channel=9 note=42 velocity=51 time=0
EXTRACT: note_on channel=9 note=63 velocity=67 time=0
EXTRACT: note_on channel=6 note=72 velocity=0 time=0.01923075
EXTRACT: note_on channel=6 note=60 velocity=0 time=0
EXTRACT: note_on channel=9 note=54 velocity=0 time=0.08846145
EXTRACT: note_on channel=9 note=54 velocity=38 time=0
EXTRACT: note_on channel=0 note=55 velocity=0 time=0.0076923
EXTRACT: note_on channel=0 note=50 velocity=0 time=0
EXTRACT: note_on channel=9 note=36 velocity=0 time=0
EXTRACT: note_on channel=9 note=42 velocity=0 time=0
EXTRACT: note_on channel=9 note=63 velocity=0 time=0
EXTRACT: note_on channel=9 note=54 velocity=0 time=0.1076922
EXTRACT: note_on channel=9 note=54 velocity=39 time=0
EXTRACT: note_on channel=6 note=72 velocity=117 time=0.00384615
EXTRACT: note_on channel=6 note=60 velocity=117 time=0
EXTRACT: note_on channel=0 note=55 velocity=72 time=0.00384615
EXTRACT: note_on channel=0 note=52 velocity=66 time=0
EXTRACT: note_on channel=0 note=60 velocity=67 time=0
EXTRACT: note_on channel=1 note=33 velocity=0 time=0
EXTRACT: note_on channel=1 note=36 velocity=107 time=0
EXTRACT: note_on channel=3 note=64 velocity=88 time=0
EXTRACT: note_on channel=5 note=52 velocity=0 time=0
EXTRACT: note_on channel=6 note=69 velocity=0 time=0
EXTRACT: note_on channel=6 note=57 velocity=0 time=0
EXTRACT: note_on channel=7 note=60 velocity=0 time=0
EXTRACT: note_on channel=8 note=64 velocity=0 time=0
EXTRACT: note_on channel=9 note=36 velocity=97 time=0
EXTRACT: note_on channel=9 note=42 velocity=99 time=0
EXTRACT: note_on channel=9 note=63 velocity=50 time=0
EXTRACT: note_on channel=3 note=72 velocity=78 time=0.01153845
EXTRACT: note_on channel=3 note=67 velocity=104 time=0.01153845
EXTRACT: note_on channel=9 note=54 velocity=0 time=0.0846153
EXTRACT: note_on channel=9 note=54 velocity=7 time=0
EXTRACT: note_on channel=9 note=36 velocity=0 time=0.0076923
EXTRACT: note_on channel=9 note=42 velocity=0 time=0
EXTRACT: note_on channel=9 note=63 velocity=0 time=0
EXTRACT: note_on channel=9 note=54 velocity=0 time=0.1076922
EXTRACT: note_on channel=9 note=54 velocity=7 time=0
EXTRACT: note_on channel=1 note=36 velocity=0 time=0.0076923
EXTRACT: note_on channel=6 note=72 velocity=0 time=0
EXTRACT: note_on channel=6 note=60 velocity=0 time=0
EXTRACT: note_on channel=9 note=42 velocity=32 time=0
EXTRACT: note_on channel=9 note=62 velocity=56 time=0
EXTRACT: note_on channel=9 note=54 velocity=0 time=0.1076922
EXTRACT: note_on channel=9 note=54 velocity=7 time=0
EXTRACT: note_on channel=3 note=67 velocity=0 time=0.0076923
EXTRACT: note_on channel=3 note=72 velocity=0 time=0
EXTRACT: note_on channel=3 note=64 velocity=0 time=0
EXTRACT: note_on channel=9 note=42 velocity=0 time=0
EXTRACT: note_on channel=9 note=62 velocity=0 time=0
EXTRACT: note_on channel=9 note=54 velocity=0 time=0.1076922
EXTRACT: note_on channel=9 note=54 velocity=10 time=0
EXTRACT: note_on channel=1 note=36 velocity=110 time=0.0076923
EXTRACT: note_on channel=3 note=64 velocity=88 time=0
EXTRACT: note_on channel=5 note=64 velocity=117 time=0
EXTRACT: note_on channel=7 note=67 velocity=99 time=0
EXTRACT: note_on channel=8 note=72 velocity=99 time=0
EXTRACT: note_on channel=9 note=40 velocity=93 time=0
EXTRACT: note_on channel=9 note=42 velocity=99 time=0
EXTRACT: note_on channel=9 note=62 velocity=58 time=0
EXTRACT: note_on channel=9 note=39 velocity=93 time=0
EXTRACT: note_on channel=3 note=67 velocity=104 time=0.01153845
EXTRACT: note_on channel=3 note=72 velocity=94 time=0.01153845
EXTRACT: note_on channel=9 note=54 velocity=0 time=0.0846153
EXTRACT: note_on channel=9 note=54 velocity=13 time=0
EXTRACT: note_on channel=3 note=72 velocity=0 time=0.0076923
EXTRACT: note_on channel=3 note=67 velocity=0 time=0
EXTRACT: note_on channel=3 note=64 velocity=0 time=0
EXTRACT: note_on channel=9 note=40 velocity=0 time=0
EXTRACT: note_on channel=9 note=42 velocity=0 time=0
EXTRACT: note_on channel=9 note=62 velocity=0 time=0
EXTRACT: note_on channel=9 note=39 velocity=0 time=0
EXTRACT: note_on channel=9 note=54 velocity=0 time=0.1076922
EXTRACT: note_on channel=9 note=54 velocity=12 time=0
EXTRACT: note_on channel=1 note=36 velocity=0 time=0.0076923
EXTRACT: note_on channel=9 note=42 velocity=49 time=0
EXTRACT: note_on channel=9 note=64 velocity=70 time=0
EXTRACT: note_on channel=9 note=54 velocity=0 time=0.1076922
EXTRACT: note_on channel=9 note=54 velocity=13 time=0
EXTRACT: note_on channel=8 note=72 velocity=0 time=0.0076923
EXTRACT: note_on channel=9 note=42 velocity=0 time=0
EXTRACT: note_on channel=9 note=64 velocity=0 time=0
EXTRACT: note_on channel=9 note=54 velocity=0 time=0.1076922
EXTRACT: note_on channel=9 note=54 velocity=42 time=0
EXTRACT: note_on channel=1 note=36 velocity=104 time=0.0076923
EXTRACT: note_on channel=5 note=64 velocity=0 time=0
EXTRACT: note_on channel=5 note=60 velocity=107 time=0
EXTRACT: note_on channel=6 note=72 velocity=100 time=0
EXTRACT: note_on channel=6 note=60 velocity=100 time=0
EXTRACT: note_on channel=7 note=67 velocity=0 time=0
EXTRACT: note_on channel=7 note=64 velocity=99 time=0
EXTRACT: note_on channel=8 note=67 velocity=88 time=0
EXTRACT: note_on channel=9 note=36 velocity=88 time=0
EXTRACT: note_on channel=9 note=42 velocity=84 time=0
EXTRACT: note_on channel=9 note=54 velocity=0 time=0.1076922
EXTRACT: note_on channel=9 note=54 velocity=28 time=0
EXTRACT: note_on channel=9 note=36 velocity=0 time=0.0076923
EXTRACT: note_on channel=9 note=42 velocity=0 time=0
EXTRACT: note_on channel=9 note=54 velocity=0 time=0.1076922
EXTRACT: note_on channel=9 note=54 velocity=28 time=0
EXTRACT: note_on channel=1 note=36 velocity=0 time=0.0076923
EXTRACT: note_on channel=1 note=31 velocity=71 time=0
EXTRACT: note_on channel=3 note=72 velocity=86 time=0
EXTRACT: note_on channel=6 note=60 velocity=0 time=0
EXTRACT: note_on channel=6 note=72 velocity=0 time=0
EXTRACT: note_on channel=9 note=36 velocity=94 time=0
EXTRACT: note_on channel=9 note=42 velocity=53 time=0
EXTRACT: note_on channel=9 note=62 velocity=36 time=0
EXTRACT: note_on channel=3 note=64 velocity=86 time=0.01153845
EXTRACT: note_on channel=6 note=67 velocity=72 time=0
EXTRACT: note_on channel=6 note=55 velocity=72 time=0
EXTRACT: note_on channel=3 note=67 velocity=104 time=0.01153845
EXTRACT: note_on channel=9 note=54 velocity=0 time=0.0846153
EXTRACT: note_on channel=9 note=54 velocity=28 time=0
EXTRACT: note_on channel=3 note=67 velocity=0 time=0.0076923
EXTRACT: note_on channel=3 note=64 velocity=0 time=0
EXTRACT: note_on channel=3 note=72 velocity=0 time=0
EXTRACT: note_on channel=9 note=36 velocity=0 time=0
EXTRACT: note_on channel=9 note=42 velocity=0 time=0
EXTRACT: note_on channel=9 note=62 velocity=0 time=0
EXTRACT: note_on channel=6 note=55 velocity=0 time=0.06538455
EXTRACT: note_on channel=6 note=67 velocity=0 time=0
EXTRACT: note_on channel=6 note=69 velocity=99 time=0.04230765
EXTRACT: note_on channel=6 note=57 velocity=99 time=0
EXTRACT: note_on channel=9 note=54 velocity=0 time=0
EXTRACT: note_on channel=9 note=54 velocity=41 time=0
EXTRACT: note_on channel=0 note=55 velocity=0 time=0.0076923
EXTRACT: note_on channel=1 note=31 velocity=0 time=0
EXTRACT: note_on channel=1 note=33 velocity=83 time=0
EXTRACT: note_on channel=5 note=60 velocity=0 time=0
EXTRACT: note_on channel=7 note=64 velocity=0 time=0
EXTRACT: note_on channel=8 note=67 velocity=0 time=0
EXTRACT: note_on channel=9 note=40 velocity=93 time=0
EXTRACT: note_on channel=9 note=42 velocity=94 time=0
EXTRACT: note_on channel=9 note=62 velocity=52 time=0
EXTRACT: note_on channel=9 note=39 velocity=93 time=0
EXTRACT: note_on channel=9 note=54 velocity=0 time=0.1076922
EXTRACT: note_on channel=9 note=54 velocity=28 time=0
EXTRACT: note_on channel=0 note=60 velocity=0 time=0.0076923
EXTRACT: note_on channel=0 note=52 velocity=0 time=0
EXTRACT: note_on channel=9 note=40 velocity=0 time=0
EXTRACT: note_on channel=9 note=42 velocity=0 time=0
EXTRACT: note_on channel=9 note=62 velocity=0 time=0
EXTRACT: note_on channel=9 note=39 velocity=0 time=0
EXTRACT: note_on channel=6 note=57 velocity=0 time=0.0923076
EXTRACT: note_on channel=6 note=69 velocity=0 time=0
EXTRACT: note_on channel=6 note=70 velocity=104 time=0.01153845
EXTRACT: note_on channel=6 note=58 velocity=104 time=0
EXTRACT: note_on channel=9 note=54 velocity=0 time=0.00384615
EXTRACT: note_on channel=9 note=54 velocity=31 time=0
EXTRACT: note_on channel=0 note=53 velocity=78 time=0.0076923
EXTRACT: note_on channel=0 note=50 velocity=64 time=0
EXTRACT: note_on channel=0 note=58 velocity=68 time=0
EXTRACT: note_on channel=1 note=33 velocity=0 time=0
EXTRACT: note_on channel=1 note=34 velocity=104 time=0
EXTRACT: note_on channel=3 note=62 velocity=86 time=0
EXTRACT: note_on channel=5 note=58 velocity=114 time=0
EXTRACT: note_on channel=7 note=62 velocity=110 time=0
EXTRACT: note_on channel=8 note=65 velocity=101 time=0
EXTRACT: note_on channel=9 note=36 velocity=70 time=0
EXTRACT: note_on channel=9 note=42 velocity=38 time=0
EXTRACT: note_on channel=9 note=63 velocity=56 time=0
EXTRACT: note_on channel=3 note=65 velocity=94 time=0.01153845
EXTRACT: note_on channel=3 note=70 velocity=92 time=0.01153845
EXTRACT: note_on channel=9 note=54 velocity=0 time=0.0846153
EXTRACT: note_on channel=9 note=54 velocity=37 time=0
EXTRACT: note_on channel=9 note=36 velocity=0 time=0.0076923
EXTRACT: note_on channel=9 note=42 velocity=0 time=0
EXTRACT: note_on channel=9 note=63 velocity=0 time=0
EXTRACT: note_on channel=9 note=54 velocity=0 time=0.1076922
EXTRACT: note_on channel=9 note=54 velocity=41 time=0
EXTRACT: note_on channel=9 note=36 velocity=104 time=0.0076923
EXTRACT: note_on channel=9 note=42 velocity=94 time=0
EXTRACT: note_on channel=6 note=58 velocity=0 time=0.01153845
EXTRACT: note_on channel=6 note=70 velocity=0 time=0
EXTRACT: note_on channel=9 note=54 velocity=0 time=0.09615375
EXTRACT: note_on channel=9 note=54 velocity=10 time=0
EXTRACT: note_on channel=9 note=36 velocity=0 time=0.0076923
EXTRACT: note_on channel=9 note=42 velocity=0 time=0
EXTRACT: note_on channel=8 note=65 velocity=0 time=0.0384615
EXTRACT: note_on channel=9 note=54 velocity=0 time=0.0692307
EXTRACT: note_on channel=9 note=54 velocity=10 time=0
EXTRACT: note_on channel=1 note=34 velocity=0 time=0.0076923
EXTRACT: note_on channel=1 note=29 velocity=83 time=0
EXTRACT: note_on channel=5 note=58 velocity=0 time=0
EXTRACT: note_on channel=5 note=57 velocity=104 time=0
EXTRACT: note_on channel=7 note=62 velocity=0 time=0
EXTRACT: note_on channel=7 note=60 velocity=88 time=0
EXTRACT: note_on channel=8 note=65 velocity=88 time=0
EXTRACT: note_on channel=9 note=42 velocity=40 time=0
EXTRACT: note_on channel=9 note=62 velocity=46 time=0
EXTRACT: note_on channel=9 note=54 velocity=0 time=0.1076922
EXTRACT: note_on channel=9 note=54 velocity=11 time=0
EXTRACT: note_on channel=3 note=70 velocity=0 time=0.0076923
EXTRACT: note_on channel=3 note=65 velocity=0 time=0
EXTRACT: note_on channel=3 note=62 velocity=0 time=0
EXTRACT: note_on channel=9 note=42 velocity=0 time=0
EXTRACT: note_on channel=9 note=62 velocity=0 time=0
EXTRACT: note_on channel=8 note=65 velocity=0 time=0.0384615
EXTRACT: note_on channel=4 note=79 velocity=0 time=0.0461538
EXTRACT: note_on channel=4 note=72 velocity=99 time=0
EXTRACT: note_on channel=9 note=54 velocity=0 time=0.0230769
EXTRACT: note_on channel=9 note=54 velocity=11 time=0
EXTRACT: note_on channel=1 note=29 velocity=0 time=0.0076923
EXTRACT: note_on channel=1 note=31 velocity=68 time=0
EXTRACT: note_on channel=3 note=65 velocity=94 time=0
EXTRACT: note_on channel=5 note=57 velocity=0 time=0
EXTRACT: note_on channel=5 note=58 velocity=109 time=0
EXTRACT: note_on channel=7 note=60 velocity=0 time=0
EXTRACT: note_on channel=7 note=62 velocity=94 time=0
EXTRACT: note_on channel=8 note=65 velocity=90 time=0
EXTRACT: note_on channel=9 note=40 velocity=87 time=0
EXTRACT: note_on channel=9 note=42 velocity=94 time=0
EXTRACT: note_on channel=9 note=62 velocity=50 time=0
EXTRACT: note_on channel=9 note=39 velocity=87 time=0
EXTRACT: note_on channel=3 note=62 velocity=85 time=0.01153845
EXTRACT: note_on channel=3 note=70 velocity=104 time=0.01153845
EXTRACT: note_on channel=9 note=54 velocity=0 time=0.0846153
EXTRACT: note_on channel=9 note=54 velocity=11 time=0
EXTRACT: note_on channel=3 note=70 velocity=0 time=0.0076923
EXTRACT: note_on channel=3 note=62 velocity=0 time=0
EXTRACT: note_on channel=3 note=65 velocity=0 time=0
EXTRACT: note_on channel=9 note=40 velocity=0 time=0
EXTRACT: note_on channel=9 note=42 velocity=0 time=0
EXTRACT: note_on channel=9 note=62 velocity=0 time=0
EXTRACT: note_on channel=9 note=39 velocity=0 time=0
EXTRACT: note_on channel=9 note=54 velocity=0 time=0.1076922
EXTRACT: note_on channel=9 note=54 velocity=13 time=0
EXTRACT: note_on channel=1 note=31 velocity=0 time=0.0076923
EXTRACT: note_on channel=1 note=34 velocity=96 time=0
EXTRACT: note_on channel=5 note=58 velocity=0 time=0
EXTRACT: note_on channel=5 note=57 velocity=92 time=0
EXTRACT: note_on channel=7 note=62 velocity=0 time=0
EXTRACT: note_on channel=7 note=60 velocity=85 time=0
EXTRACT: note_on channel=8 note=65 velocity=0 time=0
EXTRACT: note_on channel=8 note=64 velocity=80 time=0
EXTRACT: note_on channel=9 note=42 velocity=34 time=0
EXTRACT: note_on channel=9 note=64 velocity=66 time=0
EXTRACT: note_on channel=9 note=54 velocity=0 time=0.1076922
EXTRACT: note_on channel=9 note=54 velocity=13 time=0
EXTRACT: note_on channel=9 note=42 velocity=0 time=0.0076923
EXTRACT: note_on channel=9 note=64 velocity=0 time=0
EXTRACT: note_on channel=4 note=76 velocity=80 time=0.08076915
EXTRACT: note_on channel=9 note=54 velocity=0 time=0.02692305
EXTRACT: note_on channel=9 note=54 velocity=38 time=0
EXTRACT: note_on channel=4 note=72 velocity=0 time=0.0076923
EXTRACT: note_on channel=5 note=57 velocity=0 time=0
EXTRACT: note_on channel=5 note=60 velocity=117 time=0
EXTRACT: note_on channel=7 note=60 velocity=0 time=0
EXTRACT: note_on channel=7 note=64 velocity=104 time=0
EXTRACT: note_on channel=8 note=64 velocity=0 time=0
EXTRACT: note_on channel=8 note=67 velocity=101 time=0
EXTRACT: note_on channel=9 note=36 velocity=86 time=0
EXTRACT: note_on channel=9 note=42 velocity=94 time=0
EXTRACT: note_on channel=9 note=54 velocity=0 time=0.1076922
EXTRACT: note_on channel=9 note=54 velocity=27 time=0
EXTRACT: note_on channel=9 note=36 velocity=0 time=0.0076923
EXTRACT: note_on channel=9 note=42 velocity=0 time=0
EXTRACT: note_on channel=9 note=54 velocity=0 time=0.1076922
EXTRACT: note_on channel=9 note=54 velocity=27 time=0
EXTRACT: note_on channel=1 note=34 velocity=0 time=0.0076923
EXTRACT: note_on channel=1 note=29 velocity=85 time=0
EXTRACT: note_on channel=3 note=62 velocity=90 time=0
EXTRACT: note_on channel=9 note=36 velocity=85 time=0
EXTRACT: note_on channel=9 note=42 velocity=31 time=0
EXTRACT: note_on channel=9 note=62 velocity=36 time=0
EXTRACT: note_on channel=3 note=65 velocity=101 time=0.01153845
EXTRACT: note_on channel=3 note=70 velocity=96 time=0.01153845
EXTRACT: note_on channel=9 note=54 velocity=0 time=0.0846153
EXTRACT: note_on channel=9 note=54 velocity=27 time=0
EXTRACT: note_on channel=3 note=70 velocity=0 time=0.0076923
EXTRACT: note_on channel=3 note=65 velocity=0 time=0
EXTRACT: note_on channel=3 note=62 velocity=0 time=0
EXTRACT: note_on channel=5 note=60 velocity=0 time=0
EXTRACT: note_on channel=7 note=64 velocity=0 time=0
EXTRACT: note_on channel=8 note=67 velocity=0 time=0
EXTRACT: note_on channel=9 note=36 velocity=0 time=0
EXTRACT: note_on channel=9 note=42 velocity=0 time=0
EXTRACT: note_on channel=9 note=62 velocity=0 time=0
EXTRACT: note_on channel=4 note=77 velocity=90 time=0.0923076
EXTRACT: note_on channel=9 note=54 velocity=0 time=0.0153846
EXTRACT: note_on channel=9 note=54 velocity=36 time=0
EXTRACT: note_on channel=1 note=29 velocity=0 time=0.0076923
EXTRACT: note_on channel=1 note=31 velocity=71 time=0
EXTRACT: note_on channel=5 note=53 velocity=74 time=0
EXTRACT: note_on channel=7 note=57 velocity=90 time=0
EXTRACT: note_on channel=8 note=60 velocity=88 time=0
EXTRACT: note_on channel=9 note=40 velocity=87 time=0
EXTRACT: note_on channel=9 note=42 velocity=99 time=0
EXTRACT: note_on channel=9 note=62 velocity=50 time=0
EXTRACT: note_on channel=9 note=39 velocity=87 time=0
EXTRACT: note_on channel=4 note=76 velocity=0 time=0.0153846
EXTRACT: note_on channel=9 note=54 velocity=0 time=0.0923076
EXTRACT: note_on channel=9 note=54 velocity=27 time=0
EXTRACT: note_on channel=9 note=40 velocity=0 time=0.0076923
EXTRACT: note_on channel=9 note=42 velocity=0 time=0
EXTRACT: note_on channel=9 note=62 velocity=0 time=0
EXTRACT: note_on channel=9 note=39 velocity=0 time=0
EXTRACT: note_on channel=9 note=54 velocity=0 time=0.1076922
EXTRACT: note_on channel=9 note=54 velocity=28 time=0
EXTRACT: note_on channel=0 note=58 velocity=0 time=0.0076923
EXTRACT: note_on channel=0 note=53 velocity=0 time=0
EXTRACT: note_on channel=1 note=31 velocity=0 time=0
EXTRACT: note_on channel=1 note=34 velocity=92 time=0
EXTRACT: note_on channel=5 note=53 velocity=0 time=0
EXTRACT: note_on channel=5 note=55 velocity=90 time=0
EXTRACT: note_on channel=7 note=57 velocity=0 time=0
EXTRACT: note_on channel=7 note=60 velocity=85 time=0
EXTRACT: note_on channel=8 note=60 velocity=0 time=0
EXTRACT: note_on channel=8 note=64 velocity=70 time=0
EXTRACT: note_on channel=9 note=36 velocity=71 time=0
EXTRACT: note_on channel=9 note=42 velocity=38 time=0
EXTRACT: note_on channel=9 note=63 velocity=58 time=0
EXTRACT: note_on channel=9 note=54 velocity=0 time=0.1076922
EXTRACT: note_on channel=9 note=54 velocity=38 time=0
EXTRACT: note_on channel=0 note=50 velocity=0 time=0.0076923
EXTRACT: note_on channel=9 note=36 velocity=0 time=0
EXTRACT: note_on channel=9 note=42 velocity=0 time=0
EXTRACT: note_on channel=9 note=63 velocity=0 time=0
EXTRACT: note_on channel=9 note=54 velocity=0 time=0.1076922
EXTRACT: note_on channel=9 note=54 velocity=39 time=0
EXTRACT: note_on channel=4 note=81 velocity=83 time=0.00384615
EXTRACT: note_on channel=0 note=52 velocity=62 time=0.00384615
EXTRACT: note_on channel=0 note=48 velocity=62 time=0
EXTRACT: note_on channel=0 note=57 velocity=67 time=0
EXTRACT: note_on channel=1 note=34 velocity=0 time=0
EXTRACT: note_on channel=1 note=33 velocity=85 time=0
EXTRACT: note_on channel=3 note=60 velocity=86 time=0
EXTRACT: note_on channel=4 note=77 velocity=0 time=0
EXTRACT: note_on channel=5 note=55 velocity=0 time=0
EXTRACT: note_on channel=5 note=57 velocity=88 time=0
EXTRACT: note_on channel=7 note=60 velocity=0 time=0
EXTRACT: note_on channel=7 note=62 velocity=83 time=0
EXTRACT: note_on channel=8 note=64 velocity=0 time=0
EXTRACT: note_on channel=8 note=65 velocity=80 time=0
EXTRACT: note_on channel=9 note=36 velocity=101 time=0
EXTRACT: note_on channel=9 note=42 velocity=99 time=0
EXTRACT: note_on channel=3 note=69 velocity=85 time=0.01153845
EXTRACT: note_on channel=3 note=64 velocity=101 time=0.01153845
EXTRACT: note_on channel=9 note=54 velocity=0 time=0.0846153
EXTRACT: note_on channel=9 note=54 velocity=7 time=0
EXTRACT: note_on channel=9 note=36 velocity=0 time=0.0076923
EXTRACT: note_on channel=9 note=42 velocity=0 time=0
EXTRACT: note_on channel=9 note=54 velocity=0 time=0.1076922
EXTRACT: note_on channel=9 note=54 velocity=7 time=0
EXTRACT: note_on channel=1 note=33 velocity=0 time=0.0076923
EXTRACT: note_on channel=5 note=57 velocity=0 time=0
EXTRACT: note_on channel=5 note=55 velocity=94 time=0
EXTRACT: note_on channel=7 note=62 velocity=0 time=0
EXTRACT: note_on channel=7 note=60 velocity=79 time=0
EXTRACT: note_on channel=8 note=65 velocity=0 time=0
EXTRACT: note_on channel=8 note=64 velocity=73 time=0
EXTRACT: note_on channel=9 note=42 velocity=27 time=0
EXTRACT: note_on channel=9 note=62 velocity=34 time=0
EXTRACT: note_on channel=9 note=54 velocity=0 time=0.1076922
EXTRACT: note_on channel=9 note=54 velocity=7 time=0
EXTRACT: note_on channel=3 note=69 velocity=0 time=0.0076923
EXTRACT: note_on channel=9 note=42 velocity=0 time=0
EXTRACT: note_on channel=9 note=62 velocity=0 time=0
EXTRACT: note_on channel=9 note=54 velocity=0 time=0.1076922
EXTRACT: note_on channel=9 note=54 velocity=10 time=0
EXTRACT: note_on channel=1 note=33 velocity=90 time=0.0076923
EXTRACT: note_on channel=3 note=64 velocity=0 time=0
EXTRACT: note_on channel=3 note=60 velocity=0 time=0
EXTRACT: note_on channel=3 note=60 velocity=83 time=0
EXTRACT: note_on channel=5 note=55 velocity=0 time=0
EXTRACT: note_on channel=5 note=57 velocity=94 time=0
EXTRACT: note_on channel=7 note=60 velocity=0 time=0
EXTRACT: note_on channel=7 note=62 velocity=90 time=0
EXTRACT: note_on channel=8 note=64 velocity=0 time=0
EXTRACT: note_on channel=8 note=65 velocity=86 time=0
EXTRACT: note_on channel=9 note=40 velocity=93 time=0
EXTRACT: note_on channel=9 note=42 velocity=94 time=0
EXTRACT: note_on channel=9 note=62 velocity=46 time=0
EXTRACT: note_on channel=9 note=39 velocity=93 time=0
EXTRACT: note_on channel=3 note=69 velocity=85 time=0.01153845
EXTRACT: note_on channel=3 note=64 velocity=99 time=0.01153845
EXTRACT: note_on channel=9 note=54 velocity=0 time=0.0846153
EXTRACT: note_on channel=9 note=54 velocity=13 time=0
EXTRACT: note_on channel=3 note=64 velocity=0 time=0.0076923
EXTRACT: note_on channel=3 note=69 velocity=0 time=0
EXTRACT: note_on channel=3 note=60 velocity=0 time=0
EXTRACT: note_on channel=9 note=40 velocity=0 time=0
EXTRACT: note_on channel=9 note=42 velocity=0 time=0
EXTRACT: note_on channel=9 note=62 velocity=0 time=0
EXTRACT: note_on channel=9 note=39 velocity=0 time=0
EXTRACT: note_on channel=9 note=54 velocity=0 time=0.1076922
EXTRACT: note_on channel=9 note=54 velocity=12 time=0
EXTRACT: note_on channel=1 note=33 velocity=0 time=0.0076923
EXTRACT: note_on channel=5 note=57 velocity=0 time=0
EXTRACT: note_on channel=9 note=42 velocity=23 time=0
EXTRACT: note_on channel=9 note=64 velocity=66 time=0
EXTRACT: note_on channel=9 note=54 velocity=0 time=0.1076922
EXTRACT: note_on channel=9 note=54 velocity=13 time=0
EXTRACT: note_on channel=7 note=62 velocity=0 time=0.0076923
EXTRACT: note_on channel=8 note=65 velocity=0 time=0
EXTRACT: note_on channel=9 note=42 velocity=0 time=0
EXTRACT: note_on channel=9 note=64 velocity=0 time=0
EXTRACT: note_on channel=9 note=54 velocity=0 time=0.1076922
EXTRACT: note_on channel=9 note=54 velocity=42 time=0
EXTRACT: note_on channel=1 note=33 velocity=99 time=0.0076923
EXTRACT: note_on channel=5 note=57 velocity=113 time=0
EXTRACT: note_on channel=7 note=62 velocity=101 time=0
EXTRACT: note_on channel=8 note=65 velocity=97 time=0
EXTRACT: note_on channel=9 note=36 velocity=85 time=0
EXTRACT: note_on channel=9 note=42 velocity=99 time=0
EXTRACT: note_on channel=9 note=54 velocity=0 time=0.1076922
EXTRACT: note_on channel=9 note=54 velocity=28 time=0
EXTRACT: note_on channel=9 note=36 velocity=0 time=0.0076923
EXTRACT: note_on channel=9 note=42 velocity=0 time=0
EXTRACT: note_on channel=9 note=54 velocity=0 time=0.1076922
EXTRACT: note_on channel=9 note=54 velocity=28 time=0
EXTRACT: note_on channel=1 note=33 velocity=0 time=0.0076923
EXTRACT: note_on channel=1 note=29 velocity=76 time=0
EXTRACT: note_on channel=3 note=69 velocity=94 time=0
EXTRACT: note_on channel=5 note=57 velocity=0 time=0
EXTRACT: note_on channel=5 note=55 velocity=101 time=0
EXTRACT: note_on channel=7 note=62 velocity=0 time=0
EXTRACT: note_on channel=7 note=60 velocity=92 time=0
EXTRACT: note_on channel=8 note=65 velocity=0 time=0
EXTRACT: note_on channel=8 note=64 velocity=74 time=0
EXTRACT: note_on channel=9 note=36 velocity=83 time=0
EXTRACT: note_on channel=9 note=42 velocity=53 time=0
EXTRACT: note_on channel=9 note=62 velocity=37 time=0
EXTRACT: note_on channel=3 note=60 velocity=92 time=0.01153845
EXTRACT: note_on channel=3 note=64 velocity=104 time=0.01153845
EXTRACT: note_on channel=9 note=54 velocity=0 time=0.0846153
EXTRACT: note_on channel=9 note=54 velocity=28 time=0
EXTRACT: note_on channel=3 note=64 velocity=0 time=0.0076923
EXTRACT: note_on channel=3 note=60 velocity=0 time=0
EXTRACT: note_on channel=3 note=69 velocity=0 time=0
EXTRACT: note_on channel=9 note=36 velocity=0 time=0
EXTRACT: note_on channel=9 note=42 velocity=0 time=0
EXTRACT: note_on channel=9 note=62 velocity=0 time=0
EXTRACT: note_on channel=9 note=54 velocity=0 time=0.1076922
EXTRACT: note_on channel=9 note=54 velocity=41 time=0
EXTRACT: note_on channel=0 note=57 velocity=0 time=0.0076923
EXTRACT: note_on channel=1 note=29 velocity=0 time=0
EXTRACT: note_on channel=1 note=33 velocity=101 time=0
EXTRACT: note_on channel=5 note=55 velocity=0 time=0
EXTRACT: note_on channel=5 note=57 velocity=90 time=0
EXTRACT: note_on channel=7 note=60 velocity=0 time=0
EXTRACT: note_on channel=7 note=62 velocity=90 time=0
EXTRACT: note_on channel=8 note=64 velocity=0 time=0
EXTRACT: note_on channel=8 note=65 velocity=83 time=0
EXTRACT: note_on channel=9 note=40 velocity=100 time=0
EXTRACT: note_on channel=9 note=42 velocity=99 time=0
EXTRACT: note_on channel=9 note=62 velocity=43 time=0
EXTRACT: note_on channel=9 note=39 velocity=100 time=0
EXTRACT: note_on channel=9 note=54 velocity=0 time=0.1076922
EXTRACT: note_on channel=9 note=54 velocity=28 time=0
EXTRACT: note_on channel=0 note=48 velocity=0 time=0.0076923
EXTRACT: note_on channel=0 note=52 velocity=0 time=0
EXTRACT: note_on channel=5 note=57 velocity=0 time=0
EXTRACT: note_on channel=9 note=40 velocity=0 time=0
EXTRACT: note_on channel=9 note=42 velocity=0 time=0
EXTRACT: note_on channel=9 note=62 velocity=0 time=0
EXTRACT: note_on channel=9 note=39 velocity=0 time=0
EXTRACT: note_on channel=4 note=79 velocity=82 time=0.07307685
EXTRACT: note_on channel=4 note=81 velocity=0 time=0.0307692
EXTRACT: note_on channel=9 note=54 velocity=0 time=0.00384615
EXTRACT: note_on channel=9 note=54 velocity=31 time=0
EXTRACT: note_on channel=0 note=50 velocity=72 time=0.0076923
EXTRACT: note_on channel=0 note=47 velocity=69 time=0
EXTRACT: note_on channel=0 note=55 velocity=68 time=0
EXTRACT: note_on channel=1 note=33 velocity=0 time=0
EXTRACT: note_on channel=1 note=31 velocity=86 time=0
EXTRACT: note_on channel=3 note=67 velocity=92 time=0
EXTRACT: note_on channel=5 note=53 velocity=99 time=0
EXTRACT: note_on channel=7 note=62 velocity=0 time=0
EXTRACT: note_on channel=7 note=60 velocity=92 time=0
EXTRACT: note_on channel=8 note=65 velocity=0 time=0
EXTRACT: note_on channel=8 note=64 velocity=80 time=0
EXTRACT: note_on channel=9 note=36 velocity=71 time=0
EXTRACT: note_on channel=9 note=42 velocity=31 time=0
EXTRACT: note_on channel=9 note=63 velocity=58 time=0
EXTRACT: note_on channel=3 note=59 velocity=92 time=0.01153845
EXTRACT: note_on channel=3 note=62 velocity=107 time=0.01153845
EXTRACT: note_on channel=9 note=54 velocity=0 time=0.0846153
EXTRACT: note_on channel=9 note=54 velocity=37 time=0
EXTRACT: note_on channel=9 note=36 velocity=0 time=0.0076923
EXTRACT: note_on channel=9 note=42 velocity=0 time=0
EXTRACT: note_on channel=9 note=63 velocity=0 time=0
EXTRACT: note_on channel=9 note=54 velocity=0 time=0.1076922
EXTRACT: note_on channel=9 note=54 velocity=41 time=0
EXTRACT: note_on channel=5 note=53 velocity=0 time=0.0076923
EXTRACT: note_on channel=5 note=55 velocity=99 time=0
EXTRACT: note_on channel=7 note=60 velocity=0 time=0
EXTRACT: note_on channel=7 note=62 velocity=90 time=0
EXTRACT: note_on channel=8 note=64 velocity=0 time=0
EXTRACT: note_on channel=8 note=65 velocity=82 time=0
EXTRACT: note_on channel=9 note=36 velocity=101 time=0
EXTRACT: note_on channel=9 note=42 velocity=99 time=0
EXTRACT: note_on channel=9 note=54 velocity=0 time=0.1076922
EXTRACT: note_on channel=9 note=54 velocity=10 time=0
EXTRACT: note_on channel=1 note=31 velocity=0 time=0.0076923
EXTRACT: note_on channel=9 note=36 velocity=0 time=0
EXTRACT: note_on channel=9 note=42 velocity=0 time=0
EXTRACT: note_on channel=9 note=54 velocity=0 time=0.1076922
EXTRACT: note_on channel=9 note=54 velocity=10 time=0
EXTRACT: note_on channel=1 note=31 velocity=94 time=0.0076923
EXTRACT: note_on channel=5 note=55 velocity=0 time=0
EXTRACT: note_on channel=8 note=65 velocity=0 time=0
EXTRACT: note_on channel=9 note=42 velocity=42 time=0
EXTRACT: note_on channel=9 note=62 velocity=38 time=0
EXTRACT: note_on channel=9 note=54 velocity=0 time=0.1076922
EXTRACT: note_on channel=9 note=54 velocity=11 time=0
EXTRACT: note_on channel=3 note=62 velocity=0 time=0.0076923
EXTRACT: note_on channel=3 note=59 velocity=0 time=0
EXTRACT: note_on channel=3 note=67 velocity=0 time=0
EXTRACT: note_on channel=7 note=62 velocity=0 time=0
EXTRACT: note_on channel=9 note=42 velocity=0 time=0
EXTRACT: note_on channel=9 note=62 velocity=0 time=0
EXTRACT: note_on channel=9 note=54 velocity=0 time=0.1076922
EXTRACT: note_on channel=9 note=54 velocity=11 time=0
EXTRACT: note_on channel=1 note=31 velocity=0 time=0.0076923
EXTRACT: note_on channel=3 note=67 velocity=82 time=0
EXTRACT: note_on channel=5 note=55 velocity=117 time=0
EXTRACT: note_on channel=6 note=76 velocity=101 time=0
EXTRACT: note_on channel=6 note=64 velocity=101 time=0
EXTRACT: note_on channel=7 note=62 velocity=107 time=0
EXTRACT: note_on channel=8 note=65 velocity=92 time=0
EXTRACT: note_on channel=9 note=40 velocity=93 time=0
EXTRACT: note_on channel=9 note=42 velocity=99 time=0
EXTRACT: note_on channel=9 note=62 velocity=49 time=0
EXTRACT: note_on channel=9 note=39 velocity=93 time=0
EXTRACT: note_on channel=3 note=59 velocity=85 time=0.01153845
EXTRACT: note_on channel=3 note=62 velocity=101 time=0.01153845
EXTRACT: note_on channel=9 note=54 velocity=0 time=0.0846153
EXTRACT: note_on channel=9 note=54 velocity=11 time=0
EXTRACT: note_on channel=3 note=62 velocity=0 time=0.0076923
EXTRACT: note_on channel=3 note=59 velocity=0 time=0
EXTRACT: note_on channel=3 note=67 velocity=0 time=0
EXTRACT: note_on channel=9 note=40 velocity=0 time=0
EXTRACT: note_on channel=9 note=42 velocity=0 time=0
EXTRACT: note_on channel=9 note=62 velocity=0 time=0
EXTRACT: note_on channel=9 note=39 velocity=0 time=0
EXTRACT: note_on channel=9 note=54 velocity=0 time=0.1076922
EXTRACT: note_on channel=9 note=54 velocity=13 time=0
EXTRACT: note_on channel=1 note=31 velocity=99 time=0.0076923
EXTRACT: note_on channel=9 note=42 velocity=46 time=0
EXTRACT: note_on channel=9 note=64 velocity=70 time=0
EXTRACT: note_on channel=6 note=64 velocity=0 time=0.01153845
EXTRACT: note_on channel=6 note=76 velocity=0 time=0
EXTRACT: note_on channel=9 note=54 velocity=0 time=0.09615375
EXTRACT: note_on channel=9 note=54 velocity=13 time=0
EXTRACT: note_on channel=5 note=55 velocity=0 time=0.0076923
EXTRACT: note_on channel=7 note=62 velocity=0 time=0
EXTRACT: note_on channel=8 note=65 velocity=0 time=0
EXTRACT: note_on channel=9 note=42 velocity=0 time=0
EXTRACT: note_on channel=9 note=64 velocity=0 time=0
EXTRACT: note_on channel=6 note=74 velocity=117 time=0.10384605
EXTRACT: note_on channel=6 note=62 velocity=117 time=0
EXTRACT: note_on channel=9 note=54 velocity=0 time=0.00384615
EXTRACT: note_on channel=9 note=54 velocity=38 time=0
EXTRACT: note_on channel=5 note=55 velocity=120 time=0.0076923
EXTRACT: note_on channel=7 note=64 velocity=110 time=0
EXTRACT: note_on channel=8 note=67 velocity=99 time=0
EXTRACT: note_on channel=9 note=36 velocity=94 time=0
EXTRACT: note_on channel=9 note=40 velocity=80 time=0
EXTRACT: note_on channel=9 note=42 velocity=94 time=0
EXTRACT: note_on channel=9 note=40 velocity=0 time=0.05769225
EXTRACT: note_on channel=9 note=54 velocity=0 time=0.04999995
EXTRACT: note_on channel=9 note=54 velocity=27 time=0
EXTRACT: note_on channel=9 note=36 velocity=0 time=0.0076923
EXTRACT: note_on channel=9 note=40 velocity=80 time=0
EXTRACT: note_on channel=9 note=42 velocity=0 time=0
EXTRACT: note_on channel=9 note=40 velocity=0 time=0.05769225
EXTRACT: note_on channel=6 note=72 velocity=107 time=0.0384615
EXTRACT: note_on channel=6 note=60 velocity=107 time=0
EXTRACT: note_on channel=9 note=54 velocity=0 time=0.01153845
EXTRACT: note_on channel=9 note=54 velocity=27 time=0
EXTRACT: note_on channel=1 note=31 velocity=0 time=0.0076923
EXTRACT: note_on channel=1 note=33 velocity=85 time=0
EXTRACT: note_on channel=3 note=67 velocity=94 time=0
EXTRACT: note_on channel=9 note=40 velocity=80 time=0
EXTRACT: note_on channel=9 note=42 velocity=46 time=0
EXTRACT: note_on channel=9 note=62 velocity=48 time=0
EXTRACT: note_on channel=3 note=59 velocity=94 time=0.01153845
EXTRACT: note_on channel=3 note=62 velocity=110 time=0.01153845
EXTRACT: note_on channel=9 note=40 velocity=0 time=0.03461535
EXTRACT: note_on channel=9 note=42 velocity=0 time=0
EXTRACT: note_on channel=6 note=62 velocity=0 time=0.02692305
EXTRACT: note_on channel=6 note=74 velocity=0 time=0
EXTRACT: note_on channel=9 note=54 velocity=0 time=0.0230769
EXTRACT: note_on channel=9 note=54 velocity=27 time=0
EXTRACT: note_on channel=3 note=62 velocity=0 time=0.0076923
EXTRACT: note_on channel=3 note=59 velocity=0 time=0
EXTRACT: note_on channel=3 note=67 velocity=0 time=0
EXTRACT: note_on channel=9 note=62 velocity=0 time=0
EXTRACT: note_on channel=6 note=72 velocity=0 time=0.07307685
EXTRACT: note_on channel=6 note=60 velocity=0 time=0
EXTRACT: note_on channel=6 note=69 velocity=113 time=0.01923075
EXTRACT: note_on channel=6 note=57 velocity=113 time=0
EXTRACT: note_on channel=9 note=54 velocity=0 time=0.0153846
EXTRACT: note_on channel=9 note=54 velocity=36 time=0
EXTRACT: note_on channel=1 note=33 velocity=0 time=0.0076923
EXTRACT: note_on channel=1 note=36 velocity=74 time=0
EXTRACT: note_on channel=5 note=55 velocity=0 time=0
EXTRACT: note_on channel=5 note=53 velocity=104 time=0
EXTRACT: note_on channel=7 note=64 velocity=0 time=0
EXTRACT: note_on channel=7 note=62 velocity=90 time=0
EXTRACT: note_on channel=8 note=67 velocity=0 time=0
EXTRACT: note_on channel=8 note=65 velocity=83 time=0
EXTRACT: note_on channel=9 note=40 velocity=93 time=0
EXTRACT: note_on channel=9 note=42 velocity=89 time=0
EXTRACT: note_on channel=9 note=62 velocity=52 time=0
EXTRACT: note_on channel=9 note=39 velocity=93 time=0
EXTRACT: note_on channel=9 note=54 velocity=0 time=0.1076922
EXTRACT: note_on channel=9 note=54 velocity=27 time=0
EXTRACT: note_on channel=9 note=40 velocity=0 time=0.0076923
EXTRACT: note_on channel=9 note=42 velocity=0 time=0
EXTRACT: note_on channel=9 note=62 velocity=0 time=0
EXTRACT: note_on channel=9 note=39 velocity=0 time=0
EXTRACT: note_on channel=6 note=57 velocity=0 time=0.09615375
EXTRACT: note_on channel=6 note=69 velocity=0 time=0
EXTRACT: note_on channel=9 note=54 velocity=0 time=0.01153845
EXTRACT: note_on channel=9 note=54 velocity=28 time=0
EXTRACT: note_on channel=0 note=47 velocity=0 time=0.0076923
EXTRACT: note_on channel=1 note=36 velocity=0 time=0
EXTRACT: note_on channel=1 note=33 velocity=72 time=0
EXTRACT: note_on channel=5 note=53 velocity=0 time=0
EXTRACT: note_on channel=5 note=52 velocity=92 time=0
EXTRACT: note_on channel=7 note=62 velocity=0 time=0
EXTRACT: note_on channel=7 note=60 velocity=97 time=0
EXTRACT: note_on channel=8 note=65 velocity=0 time=0
EXTRACT: note_on channel=8 note=64 velocity=86 time=0
EXTRACT: note_on channel=9 note=36 velocity=71 time=0
EXTRACT: note_on channel=9 note=42 velocity=51 time=0
EXTRACT: note_on channel=9 note=63 velocity=67 time=0
EXTRACT: note_on channel=6 note=67 velocity=107 time=0.00384615
EXTRACT: note_on channel=6 note=55 velocity=107 time=0
EXTRACT: note_on channel=9 note=54 velocity=0 time=0.10384605
EXTRACT: note_on channel=9 note=54 velocity=38 time=0
EXTRACT: note_on channel=0 note=55 velocity=0 time=0.0076923
EXTRACT: note_on channel=0 note=50 velocity=0 time=0
EXTRACT: note_on channel=9 note=36 velocity=0 time=0
EXTRACT: note_on channel=9 note=42 velocity=0 time=0
EXTRACT: note_on channel=9 note=63 velocity=0 time=0
EXTRACT: note_on channel=9 note=54 velocity=0 time=0.1076922
EXTRACT: note_on channel=0 note=55 velocity=72 time=0.0076923
EXTRACT: note_on channel=0 note=52 velocity=66 time=0
EXTRACT: note_on channel=0 note=60 velocity=67 time=0
EXTRACT: note_on channel=1 note=33 velocity=0 time=0
EXTRACT: note_on channel=1 note=36 velocity=107 time=0
EXTRACT: note_on channel=3 note=72 velocity=80 time=0
EXTRACT: note_on channel=5 note=52 velocity=0 time=0
EXTRACT: note_on channel=5 note=64 velocity=100 time=0
EXTRACT: note_on channel=7 note=60 velocity=0 time=0
EXTRACT: note_on channel=7 note=67 velocity=110 time=0
EXTRACT: note_on channel=7 note=72 velocity=125 time=0
EXTRACT: note_on channel=8 note=64 velocity=0 time=0
EXTRACT: note_on channel=8 note=72 velocity=92 time=0
EXTRACT: note_on channel=9 note=36 velocity=97 time=0
EXTRACT: note_on channel=9 note=42 velocity=99 time=0
EXTRACT: note_on channel=9 note=49 velocity=83 time=0
EXTRACT: note_on channel=9 note=63 velocity=50 time=0
EXTRACT: note_on channel=4 note=79 velocity=0 time=0.0076923
EXTRACT: note_on channel=3 note=67 velocity=85 time=0.00384615
EXTRACT: note_on channel=3 note=64 velocity=82 time=0.01153845
EXTRACT: note_on channel=4 note=79 velocity=120 time=0.0153846
EXTRACT: note_on channel=6 note=55 velocity=0 time=0.01153845
EXTRACT: note_on channel=6 note=67 velocity=0 time=0
EXTRACT: note_on channel=9 note=54 velocity=7 time=0.05769225
EXTRACT: note_on channel=9 note=36 velocity=0 time=0.0076923
EXTRACT: note_on channel=9 note=42 velocity=0 time=0
EXTRACT: note_on channel=9 note=49 velocity=0 time=0
EXTRACT: note_on channel=9 note=63 velocity=0 time=0
EXTRACT: note_on channel=9 note=54 velocity=0 time=0.1076922
EXTRACT: note_on channel=9 note=54 velocity=7 time=0
EXTRACT: note_on channel=1 note=36 velocity=0 time=0.0076923
EXTRACT: note_on channel=7 note=67 velocity=0 time=0
EXTRACT: note_on channel=8 note=72 velocity=0 time=0
EXTRACT: note_on channel=9 note=42 velocity=32 time=0
EXTRACT: note_on channel=9 note=62 velocity=56 time=0
EXTRACT: note_on channel=9 note=54 velocity=0 time=0.1076922
EXTRACT: note_on channel=9 note=54 velocity=7 time=0
EXTRACT: note_on channel=3 note=64 velocity=0 time=0.0076923
EXTRACT: note_on channel=3 note=67 velocity=0 time=0
EXTRACT: note_on channel=3 note=72 velocity=0 time=0
EXTRACT: note_on channel=5 note=64 velocity=0 time=0
EXTRACT: note_on channel=9 note=42 velocity=0 time=0
EXTRACT: note_on channel=9 note=62 velocity=0 time=0
EXTRACT: note_on channel=9 note=54 velocity=0 time=0.1076922
EXTRACT: note_on channel=9 note=54 velocity=10 time=0
EXTRACT: note_on channel=1 note=36 velocity=110 time=0.0076923
EXTRACT: note_on channel=3 note=67 velocity=101 time=0
EXTRACT: note_on channel=5 note=60 velocity=117 time=0
EXTRACT: note_on channel=7 note=64 velocity=107 time=0
EXTRACT: note_on channel=8 note=67 velocity=90 time=0
EXTRACT: note_on channel=9 note=40 velocity=93 time=0
EXTRACT: note_on channel=9 note=42 velocity=99 time=0
EXTRACT: note_on channel=9 note=62 velocity=58 time=0
EXTRACT: note_on channel=9 note=39 velocity=93 time=0
EXTRACT: note_on channel=3 note=64 velocity=90 time=0.01153845
EXTRACT: note_on channel=3 note=72 velocity=94 time=0.01153845
EXTRACT: note_on channel=9 note=54 velocity=0 time=0.0846153
EXTRACT: note_on channel=9 note=54 velocity=13 time=0
EXTRACT: note_on channel=3 note=72 velocity=0 time=0.0076923
EXTRACT: note_on channel=3 note=64 velocity=0 time=0
EXTRACT: note_on channel=3 note=67 velocity=0 time=0
EXTRACT: note_on channel=9 note=40 velocity=0 time=0
EXTRACT: note_on channel=9 note=42 velocity=0 time=0
EXTRACT: note_on channel=9 note=62 velocity=0 time=0
EXTRACT: note_on channel=9 note=39 velocity=0 time=0
EXTRACT: note_on channel=9 note=54 velocity=0 time=0.1076922
EXTRACT: note_on channel=9 note=54 velocity=12 time=0
EXTRACT: note_on channel=1 note=36 velocity=0 time=0.0076923
EXTRACT: note_on channel=7 note=64 velocity=0 time=0
EXTRACT: note_on channel=8 note=67 velocity=0 time=0
EXTRACT: note_on channel=9 note=42 velocity=49 time=0
EXTRACT: note_on channel=9 note=64 velocity=70 time=0
EXTRACT: note_on channel=9 note=54 velocity=0 time=0.1076922
EXTRACT: note_on channel=9 note=54 velocity=13 time=0
EXTRACT: note_on channel=5 note=60 velocity=0 time=0.0076923
EXTRACT: note_on channel=9 note=42 velocity=0 time=0
EXTRACT: note_on channel=9 note=64 velocity=0 time=0
EXTRACT: note_on channel=7 note=72 velocity=0 time=0.05769225
EXTRACT: note_on channel=9 note=54 velocity=0 time=0.04999995
EXTRACT: note_on channel=9 note=54 velocity=42 time=0
EXTRACT: note_on channel=1 note=36 velocity=104 time=0.0076923
EXTRACT: note_on channel=5 note=55 velocity=117 time=0
EXTRACT: note_on channel=7 note=60 velocity=110 time=0
EXTRACT: note_on channel=8 note=64 velocity=99 time=0
EXTRACT: note_on channel=9 note=36 velocity=88 time=0
EXTRACT: note_on channel=9 note=42 velocity=84 time=0
EXTRACT: note_on channel=7 note=67 velocity=123 time=0.0230769
EXTRACT: note_on channel=6 note=72 velocity=117 time=0.01153845
EXTRACT: note_on channel=6 note=60 velocity=117 time=0
EXTRACT: note_on channel=9 note=54 velocity=0 time=0.07307685
EXTRACT: note_on channel=9 note=54 velocity=28 time=0
EXTRACT: note_on channel=9 note=36 velocity=0 time=0.0076923
EXTRACT: note_on channel=9 note=42 velocity=0 time=0
EXTRACT: note_on channel=6 note=60 velocity=0 time=0.0923076
EXTRACT: note_on channel=6 note=72 velocity=0 time=0
EXTRACT: note_on channel=9 note=54 velocity=0 time=0.0153846
EXTRACT: note_on channel=9 note=54 velocity=28 time=0
EXTRACT: note_on channel=1 note=36 velocity=0 time=0.0076923
EXTRACT: note_on channel=1 note=31 velocity=71 time=0
EXTRACT: note_on channel=3 note=72 velocity=83 time=0
EXTRACT: note_on channel=6 note=67 velocity=78 time=0
EXTRACT: note_on channel=6 note=55 velocity=78 time=0
EXTRACT: note_on channel=9 note=36 velocity=94 time=0
EXTRACT: note_on channel=9 note=42 velocity=53 time=0
EXTRACT: note_on channel=9 note=62 velocity=36 time=0
EXTRACT: note_on channel=3 note=64 velocity=85 time=0.01153845
EXTRACT: note_on channel=3 note=67 velocity=104 time=0.01153845
EXTRACT: note_on channel=9 note=54 velocity=0 time=0.0846153
EXTRACT: note_on channel=9 note=54 velocity=28 time=0
EXTRACT: note_on channel=3 note=67 velocity=0 time=0.0076923
EXTRACT: note_on channel=3 note=64 velocity=0 time=0
EXTRACT: note_on channel=3 note=72 velocity=0 time=0
EXTRACT: note_on channel=7 note=60 velocity=0 time=0
EXTRACT: note_on channel=9 note=36 velocity=0 time=0
EXTRACT: note_on channel=9 note=42 velocity=0 time=0
EXTRACT: note_on channel=9 note=62 velocity=0 time=0
EXTRACT: note_on channel=6 note=69 velocity=110 time=0.10384605
EXTRACT: note_on channel=6 note=57 velocity=110 time=0
EXTRACT: note_on channel=9 note=54 velocity=0 time=0.00384615
EXTRACT: note_on channel=9 note=54 velocity=41 time=0
EXTRACT: note_on channel=0 note=55 velocity=0 time=0.0076923
EXTRACT: note_on channel=1 note=31 velocity=0 time=0
EXTRACT: note_on channel=1 note=33 velocity=83 time=0
EXTRACT: note_on channel=5 note=55 velocity=0 time=0
EXTRACT: note_on channel=8 note=64 velocity=0 time=0
EXTRACT: note_on channel=9 note=40 velocity=93 time=0
EXTRACT: note_on channel=9 note=42 velocity=94 time=0
EXTRACT: note_on channel=9 note=62 velocity=52 time=0
EXTRACT: note_on channel=9 note=39 velocity=93 time=0
EXTRACT: note_on channel=6 note=55 velocity=0 time=0.01923075
EXTRACT: note_on channel=6 note=67 velocity=0 time=0
EXTRACT: note_on channel=9 note=54 velocity=0 time=0.08846145
EXTRACT: note_on channel=9 note=54 velocity=28 time=0
EXTRACT: note_on channel=0 note=60 velocity=0 time=0.0076923
EXTRACT: note_on channel=0 note=52 velocity=0 time=0
EXTRACT: note_on channel=9 note=40 velocity=0 time=0
EXTRACT: note_on channel=9 note=42 velocity=0 time=0
EXTRACT: note_on channel=9 note=62 velocity=0 time=0
EXTRACT: note_on channel=9 note=39 velocity=0 time=0
EXTRACT: note_on channel=7 note=67 velocity=0 time=0.0615384
EXTRACT: note_on channel=9 note=54 velocity=0 time=0.0461538
EXTRACT: note_on channel=9 note=54 velocity=31 time=0
EXTRACT: note_on channel=0 note=53 velocity=78 time=0.0076923
EXTRACT: note_on channel=0 note=50 velocity=64 time=0
EXTRACT: note_on channel=0 note=58 velocity=68 time=0
EXTRACT: note_on channel=1 note=33 velocity=0 time=0
EXTRACT: note_on channel=1 note=34 velocity=104 time=0
EXTRACT: note_on channel=3 note=62 velocity=86 time=0
EXTRACT: note_on channel=5 note=58 velocity=109 time=0
EXTRACT: note_on channel=7 note=62 velocity=107 time=0
EXTRACT: note_on channel=8 note=65 velocity=104 time=0
EXTRACT: note_on channel=9 note=36 velocity=70 time=0
EXTRACT: note_on channel=9 note=42 velocity=38 time=0
EXTRACT: note_on channel=9 note=63 velocity=56 time=0
EXTRACT: note_on channel=6 note=70 velocity=100 time=0.00384615
EXTRACT: note_on channel=6 note=58 velocity=100 time=0
EXTRACT: note_on channel=3 note=65 velocity=92 time=0.0076923
EXTRACT: note_on channel=6 note=69 velocity=0 time=0.0076923
EXTRACT: note_on channel=6 note=57 velocity=0 time=0
EXTRACT: note_on channel=7 note=65 velocity=125 time=0
EXTRACT: note_on channel=3 note=70 velocity=96 time=0.00384615
EXTRACT: note_on channel=9 note=54 velocity=0 time=0.0846153
EXTRACT: note_on channel=9 note=54 velocity=37 time=0
EXTRACT: note_on channel=9 note=36 velocity=0 time=0.0076923
EXTRACT: note_on channel=9 note=42 velocity=0 time=0
EXTRACT: note_on channel=9 note=63 velocity=0 time=0
EXTRACT: note_on channel=9 note=54 velocity=0 time=0.1076922
EXTRACT: note_on channel=9 note=54 velocity=41 time=0
EXTRACT: note_on channel=9 note=36 velocity=104 time=0.0076923
EXTRACT: note_on channel=9 note=42 velocity=94 time=0
EXTRACT: note_on channel=6 note=70 velocity=0 time=0.0230769
EXTRACT: note_on channel=6 note=58 velocity=0 time=0
EXTRACT: note_on channel=9 note=54 velocity=0 time=0.0846153
EXTRACT: note_on channel=9 note=54 velocity=10 time=0
EXTRACT: note_on channel=5 note=58 velocity=0 time=0.0076923
EXTRACT: note_on channel=7 note=62 velocity=0 time=0
EXTRACT: note_on channel=8 note=65 velocity=0 time=0
EXTRACT: note_on channel=9 note=36 velocity=0 time=0
EXTRACT: note_on channel=9 note=42 velocity=0 time=0
EXTRACT: note_on channel=9 note=54 velocity=0 time=0.1076922
EXTRACT: note_on channel=9 note=54 velocity=10 time=0
EXTRACT: note_on channel=1 note=34 velocity=0 time=0.0076923
EXTRACT: note_on channel=1 note=29 velocity=83 time=0
EXTRACT: note_on channel=5 note=58 velocity=114 time=0
EXTRACT: note_on channel=7 note=62 velocity=99 time=0
EXTRACT: note_on channel=8 note=65 velocity=88 time=0
EXTRACT: note_on channel=9 note=42 velocity=40 time=0
EXTRACT: note_on channel=9 note=62 velocity=46 time=0
EXTRACT: note_on channel=9 note=54 velocity=0 time=0.1076922
EXTRACT: note_on channel=9 note=54 velocity=11 time=0
EXTRACT: note_on channel=3 note=70 velocity=0 time=0.0076923
EXTRACT: note_on channel=3 note=62 velocity=0 time=0
EXTRACT: note_on channel=5 note=58 velocity=0 time=0
EXTRACT: note_on channel=7 note=62 velocity=0 time=0
EXTRACT: note_on channel=9 note=42 velocity=0 time=0
EXTRACT: note_on channel=9 note=62 velocity=0 time=0
EXTRACT: note_on channel=8 note=65 velocity=0 time=0.0384615
EXTRACT: note_on channel=4 note=79 velocity=0 time=0.04999995
EXTRACT: note_on channel=4 note=72 velocity=99 time=0.0153846
EXTRACT: note_on channel=9 note=54 velocity=0 time=0.00384615
EXTRACT: note_on channel=9 note=54 velocity=11 time=0
EXTRACT: note_on channel=1 note=29 velocity=0 time=0.0076923
EXTRACT: note_on channel=1 note=31 velocity=68 time=0
EXTRACT: note_on channel=3 note=65 velocity=0 time=0
EXTRACT: note_on channel=3 note=65 velocity=88 time=0
EXTRACT: note_on channel=5 note=58 velocity=109 time=0
EXTRACT: note_on channel=7 note=62 velocity=104 time=0
EXTRACT: note_on channel=8 note=65 velocity=94 time=0
EXTRACT: note_on channel=9 note=40 velocity=87 time=0
EXTRACT: note_on channel=9 note=42 velocity=94 time=0
EXTRACT: note_on channel=9 note=62 velocity=50 time=0
EXTRACT: note_on channel=9 note=39 velocity=87 time=0
EXTRACT: note_on channel=3 note=62 velocity=82 time=0.01153845
EXTRACT: note_on channel=3 note=70 velocity=100 time=0.01153845
EXTRACT: note_on channel=9 note=54 velocity=0 time=0.0846153
EXTRACT: note_on channel=9 note=54 velocity=11 time=0
EXTRACT: note_on channel=3 note=70 velocity=0 time=0.0076923
EXTRACT: note_on channel=3 note=62 velocity=0 time=0
EXTRACT: note_on channel=3 note=65 velocity=0 time=0
EXTRACT: note_on channel=9 note=40 velocity=0 time=0
EXTRACT: note_on channel=9 note=42 velocity=0 time=0
EXTRACT: note_on channel=9 note=62 velocity=0 time=0
EXTRACT: note_on channel=9 note=39 velocity=0 time=0
EXTRACT: note_on channel=9 note=54 velocity=0 time=0.1076922
EXTRACT: note_on channel=9 note=54 velocity=13 time=0
EXTRACT: note_on channel=1 note=31 velocity=0 time=0.0076923
EXTRACT: note_on channel=1 note=34 velocity=96 time=0
EXTRACT: note_on channel=5 note=58 velocity=0 time=0
EXTRACT: note_on channel=5 note=57 velocity=88 time=0
EXTRACT: note_on channel=7 note=62 velocity=0 time=0
EXTRACT: note_on channel=7 note=60 velocity=75 time=0
EXTRACT: note_on channel=8 note=65 velocity=0 time=0
EXTRACT: note_on channel=8 note=64 velocity=69 time=0
EXTRACT: note_on channel=9 note=42 velocity=34 time=0
EXTRACT: note_on channel=9 note=64 velocity=66 time=0
EXTRACT: note_on channel=9 note=54 velocity=0 time=0.1076922
EXTRACT: note_on channel=9 note=54 velocity=13 time=0
EXTRACT: note_on channel=8 note=64 velocity=0 time=0.0076923
EXTRACT: note_on channel=9 note=42 velocity=0 time=0
EXTRACT: note_on channel=9 note=64 velocity=0 time=0
EXTRACT: note_on channel=4 note=76 velocity=101 time=0.08846145
EXTRACT: note_on channel=9 note=54 velocity=0 time=0.01923075
EXTRACT: note_on channel=9 note=54 velocity=38 time=0
EXTRACT: note_on channel=5 note=57 velocity=0 time=0.0076923
EXTRACT: note_on channel=5 note=60 velocity=113 time=0
EXTRACT: note_on channel=7 note=60 velocity=0 time=0
EXTRACT: note_on channel=7 note=64 velocity=107 time=0
EXTRACT: note_on channel=8 note=67 velocity=99 time=0
EXTRACT: note_on channel=9 note=36 velocity=86 time=0
EXTRACT: note_on channel=9 note=42 velocity=94 time=0
EXTRACT: note_on channel=4 note=72 velocity=0 time=0.0076923
EXTRACT: note_on channel=7 note=65 velocity=0 time=0.09615375
EXTRACT: note_on channel=9 note=54 velocity=0 time=0.00384615
EXTRACT: note_on channel=9 note=54 velocity=27 time=0
EXTRACT: note_on channel=9 note=36 velocity=0 time=0.0076923
EXTRACT: note_on channel=9 note=42 velocity=0 time=0
EXTRACT: note_on channel=9 note=54 velocity=0 time=0.1076922
EXTRACT: note_on channel=9 note=54 velocity=27 time=0
EXTRACT: note_on channel=1 note=34 velocity=0 time=0.0076923
EXTRACT: note_on channel=1 note=29 velocity=85 time=0
EXTRACT: note_on channel=3 note=65 velocity=94 time=0
EXTRACT: note_on channel=9 note=36 velocity=85 time=0
EXTRACT: note_on channel=9 note=42 velocity=31 time=0
EXTRACT: note_on channel=9 note=62 velocity=36 time=0
EXTRACT: note_on channel=3 note=62 velocity=90 time=0.01153845
EXTRACT: note_on channel=7 note=64 velocity=123 time=0.0076923
EXTRACT: note_on channel=3 note=70 velocity=96 time=0.00384615
EXTRACT: note_on channel=9 note=54 velocity=0 time=0.0846153
EXTRACT: note_on channel=9 note=54 velocity=27 time=0
EXTRACT: note_on channel=3 note=70 velocity=0 time=0.0076923
EXTRACT: note_on channel=3 note=62 velocity=0 time=0
EXTRACT: note_on channel=3 note=65 velocity=0 time=0
EXTRACT: note_on channel=5 note=60 velocity=0 time=0
EXTRACT: note_on channel=7 note=64 velocity=0 time=0
EXTRACT: note_on channel=8 note=67 velocity=0 time=0
EXTRACT: note_on channel=9 note=36 velocity=0 time=0
EXTRACT: note_on channel=9 note=42 velocity=0 time=0
EXTRACT: note_on channel=9 note=62 velocity=0 time=0
EXTRACT: note_on channel=4 note=77 velocity=97 time=0.09615375
EXTRACT: note_on channel=4 note=76 velocity=0 time=0.0076923
EXTRACT: note_on channel=9 note=54 velocity=0 time=0.00384615
EXTRACT: note_on channel=9 note=54 velocity=36 time=0
EXTRACT: note_on channel=1 note=29 velocity=0 time=0.0076923
EXTRACT: note_on channel=1 note=31 velocity=71 time=0
EXTRACT: note_on channel=7 note=64 velocity=35 time=0
EXTRACT: note_on channel=9 note=40 velocity=87 time=0
EXTRACT: note_on channel=9 note=42 velocity=99 time=0
EXTRACT: note_on channel=9 note=62 velocity=50 time=0
EXTRACT: note_on channel=9 note=39 velocity=87 time=0
EXTRACT: note_on channel=7 note=65 velocity=125 time=0.00384615
EXTRACT: note_on channel=7 note=64 velocity=0 time=0.04999995
EXTRACT: note_on channel=9 note=54 velocity=0 time=0.0538461
EXTRACT: note_on channel=9 note=54 velocity=27 time=0
EXTRACT: note_on channel=7 note=64 velocity=0 time=0.0076923
EXTRACT: note_on channel=9 note=40 velocity=0 time=0
EXTRACT: note_on channel=9 note=42 velocity=0 time=0
EXTRACT: note_on channel=9 note=62 velocity=0 time=0
EXTRACT: note_on channel=9 note=39 velocity=0 time=0
EXTRACT: note_on channel=7 note=64 velocity=94 time=0.0999999
EXTRACT: note_on channel=7 note=65 velocity=0 time=0.00384615
EXTRACT: note_on channel=9 note=54 velocity=0 time=0.00384615
EXTRACT: note_on channel=9 note=54 velocity=28 time=0
EXTRACT: note_on channel=0 note=58 velocity=0 time=0.0076923
EXTRACT: note_on channel=0 note=53 velocity=0 time=0
EXTRACT: note_on channel=1 note=31 velocity=0 time=0
EXTRACT: note_on channel=1 note=34 velocity=92 time=0
EXTRACT: note_on channel=5 note=55 velocity=94 time=0
EXTRACT: note_on channel=7 note=60 velocity=97 time=0
EXTRACT: note_on channel=8 note=64 velocity=97 time=0
EXTRACT: note_on channel=9 note=36 velocity=71 time=0
EXTRACT: note_on channel=9 note=42 velocity=38 time=0
EXTRACT: note_on channel=9 note=63 velocity=58 time=0
EXTRACT: note_on channel=9 note=54 velocity=0 time=0.1076922
EXTRACT: note_on channel=9 note=54 velocity=38 time=0
EXTRACT: note_on channel=0 note=50 velocity=0 time=0.0076923
EXTRACT: note_on channel=8 note=64 velocity=0 time=0
EXTRACT: note_on channel=9 note=36 velocity=0 time=0
EXTRACT: note_on channel=9 note=42 velocity=0 time=0
EXTRACT: note_on channel=9 note=63 velocity=0 time=0
EXTRACT: note_on channel=7 note=64 velocity=0 time=0.01923075
EXTRACT: note_on channel=5 note=55 velocity=0 time=0.05769225
EXTRACT: note_on channel=9 note=54 velocity=0 time=0.0307692
EXTRACT: note_on channel=9 note=54 velocity=39 time=0
EXTRACT: note_on channel=0 note=52 velocity=62 time=0.0076923
EXTRACT: note_on channel=0 note=48 velocity=62 time=0
EXTRACT: note_on channel=0 note=57 velocity=67 time=0
EXTRACT: note_on channel=1 note=34 velocity=0 time=0
EXTRACT: note_on channel=1 note=33 velocity=85 time=0
EXTRACT: note_on channel=3 note=60 velocity=83 time=0
EXTRACT: note_on channel=5 note=57 velocity=109 time=0
EXTRACT: note_on channel=7 note=60 velocity=0 time=0
EXTRACT: note_on channel=7 note=62 velocity=97 time=0
EXTRACT: note_on channel=7 note=65 velocity=125 time=0
EXTRACT: note_on channel=8 note=65 velocity=94 time=0
EXTRACT: note_on channel=9 note=36 velocity=101 time=0
EXTRACT: note_on channel=9 note=42 velocity=99 time=0
EXTRACT: note_on channel=3 note=69 velocity=75 time=0.01153845
EXTRACT: note_on channel=4 note=77 velocity=0 time=0
EXTRACT: note_on channel=4 note=81 velocity=88 time=0.00384615
EXTRACT: note_on channel=3 note=64 velocity=97 time=0.0076923
EXTRACT: note_on channel=9 note=54 velocity=0 time=0.0846153
EXTRACT: note_on channel=9 note=54 velocity=7 time=0
EXTRACT: note_on channel=9 note=36 velocity=0 time=0.0076923
EXTRACT: note_on channel=9 note=42 velocity=0 time=0
EXTRACT: note_on channel=9 note=54 velocity=0 time=0.1076922
EXTRACT: note_on channel=9 note=54 velocity=7 time=0
EXTRACT: note_on channel=1 note=33 velocity=0 time=0.0076923
EXTRACT: note_on channel=5 note=57 velocity=0 time=0
EXTRACT: note_on channel=7 note=62 velocity=0 time=0
EXTRACT: note_on channel=8 note=65 velocity=0 time=0
EXTRACT: note_on channel=9 note=42 velocity=27 time=0
EXTRACT: note_on channel=9 note=62 velocity=34 time=0
EXTRACT: note_on channel=7 note=65 velocity=0 time=0.0615384
EXTRACT: note_on channel=9 note=54 velocity=0 time=0.0461538
EXTRACT: note_on channel=9 note=54 velocity=7 time=0
EXTRACT: note_on channel=9 note=42 velocity=0 time=0.0076923
EXTRACT: note_on channel=9 note=62 velocity=0 time=0
EXTRACT: note_on channel=9 note=54 velocity=0 time=0.1076922
EXTRACT: note_on channel=9 note=54 velocity=10 time=0
EXTRACT: note_on channel=1 note=33 velocity=90 time=0.0076923
EXTRACT: note_on channel=3 note=64 velocity=0 time=0
EXTRACT: note_on channel=3 note=69 velocity=0 time=0
EXTRACT: note_on channel=3 note=60 velocity=0 time=0
EXTRACT: note_on channel=3 note=60 velocity=88 time=0
EXTRACT: note_on channel=5 note=57 velocity=117 time=0
EXTRACT: note_on channel=7 note=62 velocity=101 time=0
EXTRACT: pitchwheel channel=7 pitch=-1543 time=0
EXTRACT: note_on channel=8 note=65 velocity=104 time=0
EXTRACT: note_on channel=9 note=40 velocity=93 time=0
EXTRACT: note_on channel=9 note=42 velocity=94 time=0
EXTRACT: note_on channel=9 note=62 velocity=46 time=0
EXTRACT: note_on channel=9 note=39 velocity=93 time=0
EXTRACT: pitchwheel channel=7 pitch=-4241 time=0.0076923
EXTRACT: note_on channel=3 note=69 velocity=85 time=0.00384615
EXTRACT: note_on channel=6 note=69 velocity=117 time=0.00384615
EXTRACT: note_on channel=6 note=57 velocity=117 time=0
EXTRACT: note_on channel=7 note=67 velocity=126 time=0
EXTRACT: pitchwheel channel=7 pitch=-6940 time=0.00384615
EXTRACT: note_on channel=3 note=64 velocity=104 time=0.00384615
EXTRACT: pitchwheel channel=7 pitch=-8192 time=0.00384615
EXTRACT: pitchwheel channel=7 pitch=-8160 time=0.06538455
EXTRACT: pitchwheel channel=7 pitch=-7325 time=0.0076923
EXTRACT: pitchwheel channel=7 pitch=-6426 time=0.0076923
EXTRACT: note_on channel=9 note=54 velocity=0 time=0
EXTRACT: note_on channel=9 note=54 velocity=13 time=0
EXTRACT: note_on channel=3 note=64 velocity=0 time=0.0076923
EXTRACT: note_on channel=3 note=69 velocity=0 time=0
EXTRACT: note_on channel=3 note=60 velocity=0 time=0
EXTRACT: note_on channel=9 note=40 velocity=0 time=0
EXTRACT: note_on channel=9 note=42 velocity=0 time=0
EXTRACT: note_on channel=9 note=62 velocity=0 time=0
EXTRACT: note_on channel=9 note=39 velocity=0 time=0
EXTRACT: pitchwheel channel=7 pitch=-5526 time=0.00384615
EXTRACT: pitchwheel channel=7 pitch=-4884 time=0.0076923
EXTRACT: pitchwheel channel=7 pitch=-4209 time=0.0076923
EXTRACT: pitchwheel channel=7 pitch=-3534 time=0.0076923
EXTRACT: pitchwheel channel=7 pitch=-2538 time=0.01153845
EXTRACT: pitchwheel channel=7 pitch=-1639 time=0.0076923
EXTRACT: pitchwheel channel=7 pitch=-707 time=0.0076923
EXTRACT: pitchwheel channel=7 pitch=0 time=0.0076923
EXTRACT: note_on channel=9 note=54 velocity=0 time=0.0461538
EXTRACT: note_on channel=9 note=54 velocity=12 time=0
EXTRACT: note_on channel=1 note=33 velocity=0 time=0.0076923
EXTRACT: note_on channel=5 note=57 velocity=0 time=0
EXTRACT: note_on channel=8 note=65 velocity=0 time=0
EXTRACT: note_on channel=9 note=42 velocity=23 time=0
EXTRACT: note_on channel=9 note=64 velocity=66 time=0
EXTRACT: note_on channel=6 note=57 velocity=0 time=0.0230769
EXTRACT: note_on channel=6 note=69 velocity=0 time=0
EXTRACT: note_on channel=9 note=54 velocity=0 time=0.0846153
EXTRACT: note_on channel=9 note=54 velocity=13 time=0
EXTRACT: note_on channel=7 note=62 velocity=0 time=0.0076923
EXTRACT: note_on channel=9 note=42 velocity=0 time=0
EXTRACT: note_on channel=9 note=64 velocity=0 time=0
EXTRACT: note_on channel=9 note=54 velocity=0 time=0.1076922
EXTRACT: note_on channel=9 note=54 velocity=42 time=0
EXTRACT: note_on channel=1 note=33 velocity=99 time=0.0076923
EXTRACT: note_on channel=5 note=57 velocity=117 time=0
EXTRACT: note_on channel=7 note=62 velocity=110 time=0
EXTRACT: note_on channel=8 note=65 velocity=101 time=0
EXTRACT: note_on channel=9 note=36 velocity=85 time=0
EXTRACT: note_on channel=9 note=42 velocity=99 time=0
EXTRACT: note_on channel=6 note=69 velocity=113 time=0.02692305
EXTRACT: note_on channel=6 note=57 velocity=113 time=0
EXTRACT: note_on channel=9 note=54 velocity=0 time=0.08076915
EXTRACT: note_on channel=9 note=54 velocity=28 time=0
EXTRACT: note_on channel=9 note=36 velocity=0 time=0.0076923
EXTRACT: note_on channel=9 note=42 velocity=0 time=0
EXTRACT: note_on channel=9 note=54 velocity=0 time=0.1076922
EXTRACT: note_on channel=9 note=54 velocity=28 time=0
EXTRACT: note_on channel=1 note=33 velocity=0 time=0.0076923
EXTRACT: note_on channel=1 note=29 velocity=76 time=0
EXTRACT: note_on channel=3 note=69 velocity=85 time=0
EXTRACT: note_on channel=5 note=57 velocity=0 time=0
EXTRACT: note_on channel=5 note=55 velocity=99 time=0
EXTRACT: note_on channel=7 note=62 velocity=0 time=0
EXTRACT: note_on channel=7 note=60 velocity=86 time=0
EXTRACT: note_on channel=8 note=65 velocity=0 time=0
EXTRACT: note_on channel=8 note=64 velocity=76 time=0
EXTRACT: note_on channel=9 note=36 velocity=83 time=0
EXTRACT: note_on channel=9 note=42 velocity=53 time=0
EXTRACT: note_on channel=9 note=62 velocity=37 time=0
EXTRACT: note_on channel=3 note=60 velocity=90 time=0.01153845
EXTRACT: note_on channel=6 note=70 velocity=96 time=0.00384615
EXTRACT: note_on channel=6 note=58 velocity=96 time=0
EXTRACT: note_on channel=3 note=64 velocity=104 time=0.0076923
EXTRACT: note_on channel=6 note=57 velocity=0 time=0.00384615
EXTRACT: note_on channel=6 note=69 velocity=0 time=0
EXTRACT: note_on channel=9 note=54 velocity=0 time=0.08076915
EXTRACT: note_on channel=9 note=54 velocity=28 time=0
EXTRACT: note_on channel=7 note=67 velocity=0 time=0.00384615
EXTRACT: note_on channel=3 note=64 velocity=0 time=0.00384615
EXTRACT: note_on channel=3 note=60 velocity=0 time=0
EXTRACT: note_on channel=3 note=69 velocity=0 time=0
EXTRACT: note_on channel=9 note=36 velocity=0 time=0
EXTRACT: note_on channel=9 note=42 velocity=0 time=0
EXTRACT: note_on channel=9 note=62 velocity=0 time=0
EXTRACT: note_on channel=6 note=70 velocity=0 time=0.10384605
EXTRACT: note_on channel=6 note=58 velocity=0 time=0
EXTRACT: note_on channel=7 note=65 velocity=125 time=0.00384615
EXTRACT: note_on channel=9 note=54 velocity=0 time=0
EXTRACT: note_on channel=9 note=54 velocity=41 time=0
EXTRACT: note_on channel=0 note=57 velocity=0 time=0.0076923
EXTRACT: note_on channel=1 note=29 velocity=0 time=0
EXTRACT: note_on channel=1 note=33 velocity=101 time=0
EXTRACT: note_on channel=5 note=55 velocity=0 time=0
EXTRACT: note_on channel=5 note=57 velocity=88 time=0
EXTRACT: note_on channel=7 note=60 velocity=0 time=0
EXTRACT: note_on channel=7 note=62 velocity=88 time=0
EXTRACT: note_on channel=8 note=64 velocity=0 time=0
EXTRACT: note_on channel=8 note=65 velocity=80 time=0
EXTRACT: note_on channel=9 note=40 velocity=100 time=0
EXTRACT: note_on channel=9 note=42 velocity=99 time=0
EXTRACT: note_on channel=9 note=62 velocity=43 time=0
EXTRACT: note_on channel=9 note=39 velocity=100 time=0
EXTRACT: note_on channel=6 note=69 velocity=107 time=0.01153845
EXTRACT: note_on channel=6 note=57 velocity=107 time=0
EXTRACT: note_on channel=9 note=54 velocity=0 time=0.09615375
EXTRACT: note_on channel=9 note=54 velocity=28 time=0
EXTRACT: note_on channel=0 note=48 velocity=0 time=0.0076923
EXTRACT: note_on channel=0 note=52 velocity=0 time=0
EXTRACT: note_on channel=9 note=40 velocity=0 time=0
EXTRACT: note_on channel=9 note=42 velocity=0 time=0
EXTRACT: note_on channel=9 note=62 velocity=0 time=0
EXTRACT: note_on channel=9 note=39 velocity=0 time=0
EXTRACT: note_on channel=4 note=79 velocity=97 time=0.04999995
EXTRACT: note_on channel=4 note=81 velocity=0 time=0.01923075
EXTRACT: note_on channel=6 note=57 velocity=0 time=0.02692305
EXTRACT: note_on channel=6 note=69 velocity=0 time=0
EXTRACT: note_on channel=9 note=54 velocity=0 time=0.01153845
EXTRACT: note_on channel=9 note=54 velocity=31 time=0
EXTRACT: note_on channel=0 note=50 velocity=72 time=0.0076923
EXTRACT: note_on channel=0 note=47 velocity=69 time=0
EXTRACT: note_on channel=0 note=55 velocity=68 time=0
EXTRACT: note_on channel=1 note=33 velocity=0 time=0
EXTRACT: note_on channel=1 note=31 velocity=86 time=0
EXTRACT: note_on channel=3 note=59 velocity=90 time=0
EXTRACT: note_on channel=5 note=57 velocity=0 time=0
EXTRACT: note_on channel=5 note=55 velocity=92 time=0
EXTRACT: note_on channel=6 note=67 velocity=97 time=0
EXTRACT: note_on channel=6 note=55 velocity=97 time=0
EXTRACT: note_on channel=7 note=62 velocity=0 time=0
EXTRACT: note_on channel=7 note=60 velocity=82 time=0
EXTRACT: note_on channel=8 note=65 velocity=0 time=0
EXTRACT: note_on channel=8 note=64 velocity=83 time=0
EXTRACT: note_on channel=9 note=36 velocity=71 time=0
EXTRACT: note_on channel=9 note=42 velocity=31 time=0
EXTRACT: note_on channel=9 note=63 velocity=58 time=0
EXTRACT: note_on channel=7 note=64 velocity=99 time=0.00384615
EXTRACT: note_on channel=7 note=65 velocity=0 time=0.00384615
EXTRACT: note_on channel=3 note=67 velocity=83 time=0.00384615
EXTRACT: note_on channel=3 note=62 velocity=104 time=0.01153845
EXTRACT: note_on channel=9 note=54 velocity=0 time=0.0846153
EXTRACT: note_on channel=9 note=54 velocity=37 time=0
EXTRACT: note_on channel=5 note=55 velocity=0 time=0.0076923
EXTRACT: note_on channel=9 note=36 velocity=0 time=0
EXTRACT: note_on channel=9 note=42 velocity=0 time=0
EXTRACT: note_on channel=9 note=63 velocity=0 time=0
EXTRACT: note_on channel=6 note=55 velocity=0 time=0.0692307
EXTRACT: note_on channel=6 note=67 velocity=0 time=0
EXTRACT: note_on channel=8 note=64 velocity=0 time=0.0076923
EXTRACT: note_on channel=7 note=64 velocity=0 time=0.0230769
EXTRACT: note_on channel=9 note=54 velocity=0 time=0.0076923
EXTRACT: note_on channel=9 note=54 velocity=41 time=0
EXTRACT: note_on channel=5 note=55 velocity=117 time=0.0076923
EXTRACT: note_on channel=7 note=60 velocity=0 time=0
EXTRACT: note_on channel=7 note=62 velocity=94 time=0
EXTRACT: note_on channel=8 note=65 velocity=86 time=0
EXTRACT: note_on channel=9 note=36 velocity=101 time=0
EXTRACT: note_on channel=9 note=42 velocity=99 time=0
EXTRACT: note_on channel=7 note=65 velocity=120 time=0.00384615
EXTRACT: note_on channel=9 note=54 velocity=0 time=0.10384605
EXTRACT: note_on channel=9 note=54 velocity=10 time=0
EXTRACT: note_on channel=1 note=31 velocity=0 time=0.0076923
EXTRACT: note_on channel=9 note=36 velocity=0 time=0
EXTRACT: note_on channel=9 note=42 velocity=0 time=0
EXTRACT: note_on channel=9 note=54 velocity=0 time=0.1076922
EXTRACT: note_on channel=9 note=54 velocity=10 time=0
EXTRACT: note_on channel=1 note=31 velocity=94 time=0.0076923
EXTRACT: note_on channel=7 note=62 velocity=0 time=0
EXTRACT: note_on channel=8 note=65 velocity=0 time=0
EXTRACT: note_on channel=9 note=42 velocity=42 time=0
EXTRACT: note_on channel=9 note=62 velocity=38 time=0
EXTRACT: note_on channel=7 note=65 velocity=0 time=0.0615384
EXTRACT: note_on channel=9 note=54 velocity=0 time=0.0461538
EXTRACT: note_on channel=9 note=54 velocity=11 time=0
EXTRACT: note_on channel=5 note=55 velocity=0 time=0.0076923
EXTRACT: note_on channel=9 note=42 velocity=0 time=0
EXTRACT: note_on channel=9 note=62 velocity=0 time=0
EXTRACT: note_on channel=9 note=54 velocity=0 time=0.1076922
EXTRACT: note_on channel=9 note=54 velocity=11 time=0
EXTRACT: note_on channel=1 note=31 velocity=0 time=0.0076923
EXTRACT: note_on channel=3 note=62 velocity=0 time=0
EXTRACT: note_on channel=3 note=67 velocity=0 time=0
EXTRACT: note_on channel=3 note=59 velocity=0 time=0
EXTRACT: note_on channel=3 note=59 velocity=94 time=0
EXTRACT: note_on channel=5 note=55 velocity=123 time=0
EXTRACT: note_on channel=7 note=62 velocity=110 time=0
EXTRACT: pitchwheel channel=7 pitch=-1543 time=0
EXTRACT: note_on channel=8 note=65 velocity=94 time=0
EXTRACT: note_on channel=9 note=40 velocity=93 time=0
EXTRACT: note_on channel=9 note=42 velocity=99 time=0
EXTRACT: note_on channel=9 note=62 velocity=49 time=0
EXTRACT: note_on channel=9 note=39 velocity=93 time=0
EXTRACT: note_on channel=3 note=67 velocity=90 time=0.01153845
EXTRACT: pitchwheel channel=7 pitch=-4177 time=0
EXTRACT: pitchwheel channel=7 pitch=-6554 time=0.0076923
EXTRACT: note_on channel=3 note=62 velocity=110 time=0.00384615
EXTRACT: note_on channel=7 note=67 velocity=125 time=0.00384615
EXTRACT: pitchwheel channel=7 pitch=-8192 time=0
EXTRACT: pitchwheel channel=7 pitch=-8096 time=0.0615384
EXTRACT: pitchwheel channel=7 pitch=-7132 time=0.0076923
EXTRACT: pitchwheel channel=7 pitch=-6233 time=0.0076923
EXTRACT: note_on channel=9 note=54 velocity=0 time=0.00384615
EXTRACT: note_on channel=9 note=54 velocity=11 time=0
EXTRACT: pitchwheel channel=7 pitch=-5365 time=0.00384615
EXTRACT: note_on channel=3 note=62 velocity=0 time=0.00384615
EXTRACT: note_on channel=3 note=67 velocity=0 time=0
EXTRACT: note_on channel=3 note=59 velocity=0 time=0
EXTRACT: note_on channel=9 note=40 velocity=0 time=0
EXTRACT: note_on channel=9 note=42 velocity=0 time=0
EXTRACT: note_on channel=9 note=62 velocity=0 time=0
EXTRACT: note_on channel=9 note=39 velocity=0 time=0
EXTRACT: pitchwheel channel=7 pitch=-4659 time=0.0076923
EXTRACT: pitchwheel channel=7 pitch=-3823 time=0.0076923
EXTRACT: pitchwheel channel=7 pitch=-3085 time=0.00384615
EXTRACT: pitchwheel channel=7 pitch=-2185 time=0.0076923
EXTRACT: pitchwheel channel=7 pitch=-1382 time=0.0153846
EXTRACT: pitchwheel channel=7 pitch=-579 time=0.0076923
EXTRACT: pitchwheel channel=7 pitch=0 time=0.0076923
EXTRACT: note_on channel=9 note=54 velocity=0 time=0.04999995
EXTRACT: note_on channel=9 note=54 velocity=13 time=0
EXTRACT: note_on channel=1 note=31 velocity=99 time=0.0076923
EXTRACT: note_on channel=7 note=62 velocity=0 time=0
EXTRACT: note_on channel=8 note=65 velocity=0 time=0
EXTRACT: note_on channel=9 note=42 velocity=46 time=0
EXTRACT: note_on channel=9 note=64 velocity=70 time=0
EXTRACT: note_on channel=6 note=67 velocity=107 time=0.0461538
EXTRACT: note_on channel=6 note=55 velocity=107 time=0
EXTRACT: note_on channel=9 note=54 velocity=0 time=0.0615384
EXTRACT: note_on channel=9 note=54 velocity=13 time=0
EXTRACT: note_on channel=5 note=55 velocity=0 time=0.0076923
EXTRACT: note_on channel=9 note=42 velocity=0 time=0
EXTRACT: note_on channel=9 note=64 velocity=0 time=0
EXTRACT: note_on channel=9 note=54 velocity=0 time=0.1076922
EXTRACT: note_on channel=9 note=54 velocity=38 time=0
EXTRACT: note_on channel=5 note=55 velocity=123 time=0.0076923
EXTRACT: note_on channel=7 note=64 velocity=107 time=0
EXTRACT: note_on channel=8 note=67 velocity=99 time=0
EXTRACT: note_on channel=9 note=36 velocity=94 time=0
EXTRACT: note_on channel=9 note=42 velocity=94 time=0
EXTRACT: note_on channel=9 note=54 velocity=0 time=0.1076922
EXTRACT: note_on channel=9 note=54 velocity=27 time=0
EXTRACT: note_on channel=9 note=36 velocity=0 time=0.0076923
EXTRACT: note_on channel=9 note=42 velocity=0 time=0
EXTRACT: note_on channel=9 note=54 velocity=0 time=0.1076922
EXTRACT: note_on channel=9 note=54 velocity=27 time=0
EXTRACT: note_on channel=1 note=31 velocity=0 time=0.0076923
EXTRACT: note_on channel=1 note=33 velocity=85 time=0
EXTRACT: note_on channel=3 note=67 velocity=92 time=0
EXTRACT: note_on channel=9 note=36 velocity=88 time=0
EXTRACT: note_on channel=9 note=42 velocity=46 time=0
EXTRACT: note_on channel=9 note=62 velocity=48 time=0
EXTRACT: note_on channel=3 note=59 velocity=97 time=0.01153845
EXTRACT: note_on channel=6 note=69 velocity=113 time=0.00384615
EXTRACT: note_on channel=6 note=57 velocity=113 time=0
EXTRACT: note_on channel=3 note=62 velocity=107 time=0.0076923
EXTRACT: note_on channel=6 note=55 velocity=0 time=0.0307692
EXTRACT: note_on channel=6 note=67 velocity=0 time=0
EXTRACT: note_on channel=9 note=42 velocity=0 time=0.00384615
EXTRACT: note_on channel=9 note=54 velocity=0 time=0.04999995
EXTRACT: note_on channel=9 note=54 velocity=27 time=0
EXTRACT: note_on channel=3 note=62 velocity=0 time=0.0076923
EXTRACT: note_on channel=3 note=59 velocity=0 time=0
EXTRACT: note_on channel=3 note=67 velocity=0 time=0
EXTRACT: note_on channel=9 note=36 velocity=0 time=0
EXTRACT: note_on channel=9 note=62 velocity=0 time=0
EXTRACT: note_on channel=9 note=54 velocity=0 time=0.1076922
EXTRACT: note_on channel=9 note=54 velocity=36 time=0
EXTRACT: note_on channel=1 note=33 velocity=0 time=0.0076923
EXTRACT: note_on channel=1 note=36 velocity=74 time=0
EXTRACT: note_on channel=5 note=55 velocity=0 time=0
EXTRACT: note_on channel=5 note=53 velocity=107 time=0
EXTRACT: note_on channel=7 note=64 velocity=0 time=0
EXTRACT: note_on channel=7 note=62 velocity=86 time=0
EXTRACT: note_on channel=8 note=67 velocity=0 time=0
EXTRACT: note_on channel=8 note=65 velocity=79 time=0
EXTRACT: note_on channel=9 note=40 velocity=93 time=0
EXTRACT: note_on channel=9 note=42 velocity=89 time=0
EXTRACT: note_on channel=9 note=62 velocity=52 time=0
EXTRACT: note_on channel=9 note=39 velocity=93 time=0
EXTRACT: note_on channel=6 note=72 velocity=110 time=0.0153846
EXTRACT: note_on channel=6 note=60 velocity=110 time=0
EXTRACT: note_on channel=6 note=69 velocity=0 time=0.00384615
EXTRACT: note_on channel=6 note=57 velocity=0 time=0
EXTRACT: note_on channel=9 note=54 velocity=0 time=0.08846145
EXTRACT: note_on channel=9 note=54 velocity=27 time=0
EXTRACT: note_on channel=5 note=53 velocity=0 time=0.0076923
EXTRACT: note_on channel=9 note=40 velocity=0 time=0
EXTRACT: note_on channel=9 note=42 velocity=0 time=0
EXTRACT: note_on channel=9 note=62 velocity=0 time=0
EXTRACT: note_on channel=9 note=39 velocity=0 time=0
EXTRACT: note_on channel=7 note=67 velocity=0 time=0.0153846
EXTRACT: note_on channel=7 note=62 velocity=0 time=0.0615384
EXTRACT: note_on channel=6 note=69 velocity=101 time=0.02692305
EXTRACT: note_on channel=6 note=57 velocity=101 time=0
EXTRACT: note_on channel=9 note=54 velocity=0 time=0.00384615
EXTRACT: note_on channel=9 note=54 velocity=28 time=0
EXTRACT: note_on channel=0 note=47 velocity=0 time=0.0076923
EXTRACT: note_on channel=1 note=36 velocity=0 time=0
EXTRACT: note_on channel=1 note=33 velocity=72 time=0
EXTRACT: note_on channel=5 note=52 velocity=99 time=0
EXTRACT: note_on channel=7 note=60 velocity=97 time=0
EXTRACT: note_on channel=8 note=65 velocity=0 time=0
EXTRACT: note_on channel=8 note=64 velocity=90 time=0
EXTRACT: note_on channel=9 note=36 velocity=71 time=0
EXTRACT: note_on channel=9 note=42 velocity=51 time=0
EXTRACT: note_on channel=9 note=63 velocity=67 time=0
EXTRACT: note_on channel=6 note=72 velocity=0 time=0.01923075
EXTRACT: note_on channel=6 note=60 velocity=0 time=0
EXTRACT: note_on channel=9 note=54 velocity=0 time=0.08846145
EXTRACT: note_on channel=9 note=54 velocity=38 time=0
EXTRACT: note_on channel=0 note=55 velocity=0 time=0.0076923
EXTRACT: note_on channel=0 note=50 velocity=0 time=0
EXTRACT: note_on channel=9 note=36 velocity=0 time=0
EXTRACT: note_on channel=9 note=42 velocity=0 time=0
EXTRACT: note_on channel=9 note=63 velocity=0 time=0
EXTRACT: note_on channel=9 note=54 velocity=0 time=0.1076922
EXTRACT: note_on channel=9 note=54 velocity=39 time=0
EXTRACT: note_on channel=6 note=72 velocity=117 time=0.00384615
EXTRACT: note_on channel=6 note=60 velocity=117 time=0
EXTRACT: note_on channel=0 note=55 velocity=72 time=0.00384615
EXTRACT: note_on channel=0 note=52 velocity=66 time=0
EXTRACT: note_on channel=0 note=60 velocity=67 time=0
EXTRACT: note_on channel=1 note=33 velocity=0 time=0
EXTRACT: note_on channel=1 note=36 velocity=107 time=0
EXTRACT: note_on channel=3 note=64 velocity=88 time=0
EXTRACT: note_on channel=5 note=52 velocity=0 time=0
EXTRACT: note_on channel=6 note=69 velocity=0 time=0
EXTRACT: note_on channel=6 note=57 velocity=0 time=0
EXTRACT: note_on channel=7 note=60 velocity=0 time=0
EXTRACT: pitchwheel channel=7 pitch=-1510 time=0
EXTRACT: note_on channel=8 note=64 velocity=0 time=0
EXTRACT: note_on channel=9 note=36 velocity=97 time=0
EXTRACT: note_on channel=9 note=42 velocity=99 time=0
EXTRACT: note_on channel=9 note=63 velocity=50 time=0
EXTRACT: note_on channel=7 note=72 velocity=126 time=0.0076923
EXTRACT: note_on channel=3 note=72 velocity=78 time=0.00384615
EXTRACT: pitchwheel channel=7 pitch=-4466 time=0
EXTRACT: pitchwheel channel=7 pitch=-8192 time=0.0076923
EXTRACT: note_on channel=3 note=67 velocity=104 time=0.00384615
EXTRACT: pitchwheel channel=7 pitch=-7582 time=0.06538455
EXTRACT: pitchwheel channel=7 pitch=-5912 time=0.0076923
EXTRACT: pitchwheel channel=7 pitch=-4594 time=0.00384615
EXTRACT: pitchwheel channel=7 pitch=-3502 time=0.0076923
EXTRACT: note_on channel=9 note=54 velocity=0 time=0
EXTRACT: note_on channel=9 note=54 velocity=7 time=0
EXTRACT: note_on channel=9 note=36 velocity=0 time=0.0076923
EXTRACT: note_on channel=9 note=42 velocity=0 time=0
EXTRACT: note_on channel=9 note=63 velocity=0 time=0
EXTRACT: pitchwheel channel=7 pitch=-2057 time=0.00384615
EXTRACT: pitchwheel channel=7 pitch=-868 time=0.01153845
EXTRACT: pitchwheel channel=7 pitch=0 time=0.0076923
EXTRACT: note_on channel=9 note=54 velocity=0 time=0.0846153
EXTRACT: note_on channel=9 note=54 velocity=7 time=0
EXTRACT: note_on channel=1 note=36 velocity=0 time=0.0076923
EXTRACT: note_on channel=6 note=72 velocity=0 time=0
EXTRACT: note_on channel=6 note=60 velocity=0 time=0
EXTRACT: note_on channel=9 note=42 velocity=32 time=0
EXTRACT: note_on channel=9 note=62 velocity=56 time=0
EXTRACT: note_on channel=9 note=54 velocity=0 time=0.1076922
EXTRACT: note_on channel=9 note=54 velocity=7 time=0
EXTRACT: note_on channel=3 note=67 velocity=0 time=0.0076923
EXTRACT: note_on channel=3 note=72 velocity=0 time=0
EXTRACT: note_on channel=3 note=64 velocity=0 time=0
EXTRACT: note_on channel=9 note=42 velocity=0 time=0
EXTRACT: note_on channel=9 note=62 velocity=0 time=0
EXTRACT: note_on channel=9 note=54 velocity=0 time=0.1076922
EXTRACT: note_on channel=9 note=54 velocity=10 time=0
EXTRACT: note_on channel=1 note=36 velocity=110 time=0.0076923
EXTRACT: note_on channel=3 note=64 velocity=88 time=0
EXTRACT: note_on channel=5 note=64 velocity=117 time=0
EXTRACT: note_on channel=7 note=67 velocity=99 time=0
EXTRACT: note_on channel=8 note=72 velocity=99 time=0
EXTRACT: note_on channel=9 note=40 velocity=93 time=0
EXTRACT: note_on channel=9 note=42 velocity=99 time=0
EXTRACT: note_on channel=9 note=62 velocity=58 time=0
EXTRACT: note_on channel=9 note=39 velocity=93 time=0
EXTRACT: note_on channel=3 note=67 velocity=104 time=0.01153845
EXTRACT: note_on channel=3 note=72 velocity=94 time=0.01153845
EXTRACT: note_on channel=9 note=54 velocity=0 time=0.0846153
EXTRACT: note_on channel=9 note=54 velocity=13 time=0
EXTRACT: note_on channel=3 note=72 velocity=0 time=0.0076923
EXTRACT: note_on channel=3 note=67 velocity=0 time=0
EXTRACT: note_on channel=3 note=64 velocity=0 time=0
EXTRACT: note_on channel=9 note=40 velocity=0 time=0
EXTRACT: note_on channel=9 note=42 velocity=0 time=0
EXTRACT: note_on channel=9 note=62 velocity=0 time=0
EXTRACT: note_on channel=9 note=39 velocity=0 time=0
EXTRACT: note_on channel=9 note=54 velocity=0 time=0.1076922
EXTRACT: note_on channel=9 note=54 velocity=12 time=0
EXTRACT: note_on channel=1 note=36 velocity=0 time=0.0076923
EXTRACT: note_on channel=9 note=42 velocity=49 time=0
EXTRACT: note_on channel=9 note=64 velocity=70 time=0
EXTRACT: note_on channel=9 note=54 velocity=0 time=0.1076922
EXTRACT: note_on channel=9 note=54 velocity=13 time=0
EXTRACT: note_on channel=8 note=72 velocity=0 time=0.0076923
EXTRACT: note_on channel=9 note=42 velocity=0 time=0
EXTRACT: note_on channel=9 note=64 velocity=0 time=0
EXTRACT: note_on channel=7 note=72 velocity=0 time=0.10384605
EXTRACT: note_on channel=9 note=54 velocity=0 time=0.00384615
EXTRACT: note_on channel=9 note=54 velocity=42 time=0
EXTRACT: note_on channel=1 note=36 velocity=104 time=0.0076923
EXTRACT: note_on channel=5 note=64 velocity=0 time=0
EXTRACT: note_on channel=5 note=60 velocity=107 time=0
EXTRACT: note_on channel=6 note=72 velocity=100 time=0
EXTRACT: note_on channel=6 note=60 velocity=100 time=0
EXTRACT: note_on channel=7 note=67 velocity=0 time=0
EXTRACT: note_on channel=7 note=64 velocity=99 time=0
EXTRACT: note_on channel=8 note=67 velocity=88 time=0
EXTRACT: note_on channel=9 note=36 velocity=88 time=0
EXTRACT: note_on channel=9 note=42 velocity=84 time=0
EXTRACT: note_on channel=7 note=67 velocity=113 time=0.0230769
EXTRACT: note_on channel=9 note=54 velocity=0 time=0.0846153
EXTRACT: note_on channel=9 note=54 velocity=28 time=0
EXTRACT: note_on channel=9 note=36 velocity=0 time=0.0076923
EXTRACT: note_on channel=9 note=42 velocity=0 time=0
EXTRACT: note_on channel=9 note=54 velocity=0 time=0.1076922
EXTRACT: note_on channel=9 note=54 velocity=28 time=0
EXTRACT: note_on channel=1 note=36 velocity=0 time=0.0076923
EXTRACT: note_on channel=1 note=31 velocity=71 time=0
EXTRACT: note_on channel=3 note=72 velocity=86 time=0
EXTRACT: note_on channel=6 note=60 velocity=0 time=0
EXTRACT: note_on channel=6 note=72 velocity=0 time=0
EXTRACT: note_on channel=9 note=36 velocity=94 time=0
EXTRACT: note_on channel=9 note=42 velocity=53 time=0
EXTRACT: note_on channel=9 note=62 velocity=36 time=0
EXTRACT: note_on channel=3 note=64 velocity=86 time=0.01153845
EXTRACT: note_on channel=6 note=67 velocity=72 time=0
EXTRACT: note_on channel=6 note=55 velocity=72 time=0
EXTRACT: note_on channel=7 note=72 velocity=125 time=0.0076923
EXTRACT: note_on channel=3 note=67 velocity=104 time=0.00384615
EXTRACT: note_on channel=7 note=67 velocity=0 time=0
EXTRACT: note_on channel=9 note=54 velocity=0 time=0.0846153
EXTRACT: note_on channel=9 note=54 velocity=28 time=0
EXTRACT: note_on channel=3 note=67 velocity=0 time=0.0076923
EXTRACT: note_on channel=3 note=64 velocity=0 time=0
EXTRACT: note_on channel=3 note=72 velocity=0 time=0
EXTRACT: note_on channel=9 note=36 velocity=0 time=0
EXTRACT: note_on channel=9 note=42 velocity=0 time=0
EXTRACT: note_on channel=9 note=62 velocity=0 time=0
EXTRACT: note_on channel=6 note=55 velocity=0 time=0.06538455
EXTRACT: note_on channel=6 note=67 velocity=0 time=0
EXTRACT: note_on channel=6 note=69 velocity=99 time=0.04230765
EXTRACT: note_on channel=6 note=57 velocity=99 time=0
EXTRACT: note_on channel=9 note=54 velocity=0 time=0
EXTRACT: note_on channel=9 note=54 velocity=41 time=0
EXTRACT: note_on channel=0 note=55 velocity=0 time=0.0076923
EXTRACT: note_on channel=1 note=31 velocity=0 time=0
EXTRACT: note_on channel=1 note=33 velocity=83 time=0
EXTRACT: note_on channel=5 note=60 velocity=0 time=0
EXTRACT: note_on channel=7 note=64 velocity=0 time=0
EXTRACT: note_on channel=8 note=67 velocity=0 time=0
EXTRACT: note_on channel=9 note=40 velocity=93 time=0
EXTRACT: note_on channel=9 note=42 velocity=94 time=0
EXTRACT: note_on channel=9 note=62 velocity=52 time=0
EXTRACT: note_on channel=9 note=39 velocity=93 time=0
EXTRACT: note_on channel=7 note=72 velocity=0 time=0.1076922
EXTRACT: note_on channel=9 note=54 velocity=0 time=0
EXTRACT: note_on channel=9 note=54 velocity=28 time=0
EXTRACT: note_on channel=0 note=60 velocity=0 time=0.0076923
EXTRACT: note_on channel=0 note=52 velocity=0 time=0
EXTRACT: note_on channel=9 note=40 velocity=0 time=0
EXTRACT: note_on channel=9 note=42 velocity=0 time=0
EXTRACT: note_on channel=9 note=62 velocity=0 time=0
EXTRACT: note_on channel=9 note=39 velocity=0 time=0
EXTRACT: note_on channel=6 note=57 velocity=0 time=0.0923076
EXTRACT: note_on channel=6 note=69 velocity=0 time=0
EXTRACT: note_on channel=6 note=70 velocity=104 time=0.01153845
EXTRACT: note_on channel=6 note=58 velocity=104 time=0
EXTRACT: note_on channel=9 note=54 velocity=0 time=0.00384615
EXTRACT: note_on channel=9 note=54 velocity=31 time=0
EXTRACT: note_on channel=0 note=53 velocity=78 time=0.0076923
EXTRACT: note_on channel=0 note=50 velocity=64 time=0
EXTRACT: note_on channel=0 note=58 velocity=68 time=0
EXTRACT: note_on channel=1 note=33 velocity=0 time=0
EXTRACT: note_on channel=1 note=34 velocity=104 time=0
EXTRACT: note_on channel=3 note=62 velocity=86 time=0
EXTRACT: note_on channel=5 note=58 velocity=114 time=0
EXTRACT: note_on channel=7 note=62 velocity=110 time=0
EXTRACT: note_on channel=8 note=65 velocity=101 time=0
EXTRACT: note_on channel=9 note=36 velocity=70 time=0
EXTRACT: note_on channel=9 note=42 velocity=38 time=0
EXTRACT: note_on channel=9 note=63 velocity=56 time=0
EXTRACT: note_on channel=7 note=70 velocity=124 time=0.00384615
EXTRACT: note_on channel=3 note=65 velocity=94 time=0.0076923
EXTRACT: note_on channel=3 note=70 velocity=92 time=0.01153845
EXTRACT: note_on channel=9 note=54 velocity=0 time=0.0846153
EXTRACT: note_on channel=9 note=54 velocity=37 time=0
EXTRACT: note_on channel=9 note=36 velocity=0 time=0.0076923
EXTRACT: note_on channel=9 note=42 velocity=0 time=0
EXTRACT: note_on channel=9 note=63 velocity=0 time=0
EXTRACT: note_on channel=9 note=54 velocity=0 time=0.1076922
EXTRACT: note_on channel=9 note=54 velocity=41 time=0
EXTRACT: note_on channel=9 note=36 velocity=104 time=0.0076923
EXTRACT: note_on channel=9 note=42 velocity=94 time=0
EXTRACT: note_on channel=6 note=58 velocity=0 time=0.01153845
EXTRACT: note_on channel=6 note=70 velocity=0 time=0
EXTRACT: note_on channel=9 note=54 velocity=0 time=0.09615375
EXTRACT: note_on channel=9 note=54 velocity=10 time=0
EXTRACT: note_on channel=9 note=36 velocity=0 time=0.0076923
EXTRACT: note_on channel=9 note=42 velocity=0 time=0
EXTRACT: note_on channel=8 note=65 velocity=0 time=0.0384615
EXTRACT: note_on channel=9 note=54 velocity=0 time=0.0692307
EXTRACT: note_on channel=9 note=54 velocity=10 time=0
EXTRACT: note_on channel=1 note=34 velocity=0 time=0.0076923
EXTRACT: note_on channel=1 note=29 velocity=83 time=0
EXTRACT: note_on channel=5 note=58 velocity=0 time=0
EXTRACT: note_on channel=5 note=57 velocity=104 time=0
EXTRACT: note_on channel=7 note=62 velocity=0 time=0
EXTRACT: note_on channel=7 note=60 velocity=88 time=0
EXTRACT: note_on channel=8 note=65 velocity=88 time=0
EXTRACT: note_on channel=9 note=42 velocity=40 time=0
EXTRACT: note_on channel=9 note=62 velocity=46 time=0
EXTRACT: note_on channel=9 note=54 velocity=0 time=0.1076922
EXTRACT: note_on channel=9 note=54 velocity=11 time=0
EXTRACT: note_on channel=3 note=70 velocity=0 time=0.0076923
EXTRACT: note_on channel=3 note=65 velocity=0 time=0
EXTRACT: note_on channel=3 note=62 velocity=0 time=0
EXTRACT: note_on channel=9 note=42 velocity=0 time=0
EXTRACT: note_on channel=9 note=62 velocity=0 time=0
EXTRACT: note_on channel=8 note=65 velocity=0 time=0.0384615
EXTRACT: note_on channel=4 note=79 velocity=0 time=0.0461538
EXTRACT: note_on channel=4 note=72 velocity=99 time=0
EXTRACT: note_on channel=9 note=54 velocity=0 time=0.0230769
EXTRACT: note_on channel=9 note=54 velocity=11 time=0
EXTRACT: note_on channel=1 note=29 velocity=0 time=0.0076923
EXTRACT: note_on channel=1 note=31 velocity=68 time=0
EXTRACT: note_on channel=3 note=65 velocity=94 time=0
EXTRACT: note_on channel=5 note=57 velocity=0 time=0
EXTRACT: note_on channel=5 note=58 velocity=109 time=0
EXTRACT: note_on channel=7 note=60 velocity=0 time=0
EXTRACT: note_on channel=7 note=62 velocity=94 time=0
EXTRACT: note_on channel=8 note=65 velocity=90 time=0
EXTRACT: note_on channel=9 note=40 velocity=87 time=0
EXTRACT: note_on channel=9 note=42 velocity=94 time=0
EXTRACT: note_on channel=9 note=62 velocity=50 time=0
EXTRACT: note_on channel=9 note=39 velocity=87 time=0
EXTRACT: note_on channel=3 note=62 velocity=85 time=0.01153845
EXTRACT: note_on channel=3 note=70 velocity=104 time=0.01153845
EXTRACT: note_on channel=9 note=54 velocity=0 time=0.0846153
EXTRACT: note_on channel=9 note=54 velocity=11 time=0
EXTRACT: note_on channel=3 note=70 velocity=0 time=0.0076923
EXTRACT: note_on channel=3 note=62 velocity=0 time=0
EXTRACT: note_on channel=3 note=65 velocity=0 time=0
EXTRACT: note_on channel=9 note=40 velocity=0 time=0
EXTRACT: note_on channel=9 note=42 velocity=0 time=0
EXTRACT: note_on channel=9 note=62 velocity=0 time=0
EXTRACT: note_on channel=9 note=39 velocity=0 time=0
EXTRACT: note_on channel=9 note=54 velocity=0 time=0.1076922
EXTRACT: note_on channel=9 note=54 velocity=13 time=0
EXTRACT: note_on channel=1 note=31 velocity=0 time=0.0076923
EXTRACT: note_on channel=1 note=34 velocity=96 time=0
EXTRACT: note_on channel=5 note=58 velocity=0 time=0
EXTRACT: note_on channel=5 note=57 velocity=92 time=0
EXTRACT: note_on channel=7 note=62 velocity=0 time=0
EXTRACT: note_on channel=7 note=60 velocity=85 time=0
EXTRACT: note_on channel=8 note=65 velocity=0 time=0
EXTRACT: note_on channel=8 note=64 velocity=80 time=0
EXTRACT: note_on channel=9 note=42 velocity=34 time=0
EXTRACT: note_on channel=9 note=64 velocity=66 time=0
EXTRACT: note_on channel=9 note=54 velocity=0 time=0.1076922
EXTRACT: note_on channel=9 note=54 velocity=13 time=0
EXTRACT: note_on channel=9 note=42 velocity=0 time=0.0076923
EXTRACT: note_on channel=9 note=64 velocity=0 time=0
EXTRACT: note_on channel=4 note=76 velocity=80 time=0.08076915
EXTRACT: note_on channel=9 note=54 velocity=0 time=0.02692305
EXTRACT: note_on channel=9 note=54 velocity=38 time=0
EXTRACT: note_on channel=4 note=72 velocity=0 time=0.0076923
EXTRACT: note_on channel=5 note=57 velocity=0 time=0
EXTRACT: note_on channel=5 note=60 velocity=117 time=0
EXTRACT: note_on channel=7 note=60 velocity=0 time=0
EXTRACT: note_on channel=7 note=64 velocity=104 time=0
EXTRACT: note_on channel=8 note=64 velocity=0 time=0
EXTRACT: note_on channel=8 note=67 velocity=101 time=0
EXTRACT: note_on channel=9 note=36 velocity=86 time=0
EXTRACT: note_on channel=9 note=42 velocity=94 time=0
EXTRACT: note_on channel=9 note=54 velocity=0 time=0.1076922
EXTRACT: note_on channel=9 note=54 velocity=27 time=0
EXTRACT: note_on channel=9 note=36 velocity=0 time=0.0076923
EXTRACT: note_on channel=9 note=42 velocity=0 time=0
EXTRACT: note_on channel=9 note=54 velocity=0 time=0.1076922
EXTRACT: note_on channel=9 note=54 velocity=27 time=0
EXTRACT: note_on channel=1 note=34 velocity=0 time=0.0076923
EXTRACT: note_on channel=1 note=29 velocity=85 time=0
EXTRACT: note_on channel=3 note=62 velocity=90 time=0
EXTRACT: note_on channel=9 note=36 velocity=85 time=0
EXTRACT: note_on channel=9 note=42 velocity=31 time=0
EXTRACT: note_on channel=9 note=62 velocity=36 time=0
EXTRACT: note_on channel=3 note=65 velocity=101 time=0.01153845
EXTRACT: note_on channel=3 note=70 velocity=96 time=0.01153845
EXTRACT: note_on channel=9 note=54 velocity=0 time=0.0846153
EXTRACT: note_on channel=9 note=54 velocity=27 time=0
EXTRACT: note_on channel=3 note=70 velocity=0 time=0.0076923
EXTRACT: note_on channel=3 note=65 velocity=0 time=0
EXTRACT: note_on channel=3 note=62 velocity=0 time=0
EXTRACT: note_on channel=5 note=60 velocity=0 time=0
EXTRACT: note_on channel=7 note=64 velocity=0 time=0
EXTRACT: note_on channel=8 note=67 velocity=0 time=0
EXTRACT: note_on channel=9 note=36 velocity=0 time=0
EXTRACT: note_on channel=9 note=42 velocity=0 time=0
EXTRACT: note_on channel=9 note=62 velocity=0 time=0
EXTRACT: note_on channel=4 note=77 velocity=90 time=0.0923076
EXTRACT: note_on channel=9 note=54 velocity=0 time=0.0153846
EXTRACT: note_on channel=9 note=54 velocity=36 time=0
EXTRACT: note_on channel=1 note=29 velocity=0 time=0.0076923
EXTRACT: note_on channel=1 note=31 velocity=71 time=0
EXTRACT: note_on channel=5 note=53 velocity=74 time=0
EXTRACT: note_on channel=7 note=57 velocity=90 time=0
EXTRACT: note_on channel=8 note=60 velocity=88 time=0
EXTRACT: note_on channel=9 note=40 velocity=87 time=0
EXTRACT: note_on channel=9 note=42 velocity=99 time=0
EXTRACT: note_on channel=9 note=62 velocity=50 time=0
EXTRACT: note_on channel=9 note=39 velocity=87 time=0
EXTRACT: note_on channel=4 note=76 velocity=0 time=0.0153846
EXTRACT: note_on channel=7 note=70 velocity=0 time=0.01153845
EXTRACT: note_on channel=9 note=54 velocity=0 time=0.08076915
EXTRACT: note_on channel=9 note=54 velocity=27 time=0
EXTRACT: note_on channel=9 note=40 velocity=0 time=0.0076923
EXTRACT: note_on channel=9 note=42 velocity=0 time=0
EXTRACT: note_on channel=9 note=62 velocity=0 time=0
EXTRACT: note_on channel=9 note=39 velocity=0 time=0
EXTRACT: pitchwheel channel=7 pitch=-707 time=0.1076922
EXTRACT: note_on channel=9 note=54 velocity=0 time=0
EXTRACT: note_on channel=9 note=54 velocity=28 time=0
EXTRACT: pitchwheel channel=7 pitch=-4016 time=0.00384615
EXTRACT: note_on channel=0 note=58 velocity=0 time=0.00384615
EXTRACT: note_on channel=0 note=53 velocity=0 time=0
EXTRACT: note_on channel=1 note=31 velocity=0 time=0
EXTRACT: note_on channel=1 note=34 velocity=92 time=0
EXTRACT: note_on channel=5 note=53 velocity=0 time=0
EXTRACT: note_on channel=5 note=55 velocity=90 time=0
EXTRACT: note_on channel=7 note=57 velocity=0 time=0
EXTRACT: note_on channel=7 note=60 velocity=85 time=0
EXTRACT: note_on channel=8 note=60 velocity=0 time=0
EXTRACT: note_on channel=8 note=64 velocity=70 time=0
EXTRACT: note_on channel=9 note=36 velocity=71 time=0
EXTRACT: note_on channel=9 note=42 velocity=38 time=0
EXTRACT: note_on channel=9 note=63 velocity=58 time=0
EXTRACT: note_on channel=7 note=76 velocity=113 time=0.00384615
EXTRACT: pitchwheel channel=7 pitch=-8192 time=0.0076923
EXTRACT: pitchwheel channel=7 pitch=-7646 time=0.08076915
EXTRACT: pitchwheel channel=7 pitch=-6169 time=0.0076923
EXTRACT: pitchwheel channel=7 pitch=-4851 time=0.0076923
EXTRACT: note_on channel=9 note=54 velocity=0 time=0
EXTRACT: note_on channel=9 note=54 velocity=38 time=0
EXTRACT: note_on channel=0 note=50 velocity=0 time=0.0076923
EXTRACT: note_on channel=9 note=36 velocity=0 time=0
EXTRACT: note_on channel=9 note=42 velocity=0 time=0
EXTRACT: note_on channel=9 note=63 velocity=0 time=0
EXTRACT: pitchwheel channel=7 pitch=-3695 time=0.00384615
EXTRACT: pitchwheel channel=7 pitch=-2506 time=0.00384615
EXTRACT: pitchwheel channel=7 pitch=-1221 time=0.01153845
EXTRACT: pitchwheel channel=7 pitch=-129 time=0.0076923
EXTRACT: pitchwheel channel=7 pitch=0 time=0.0076923
EXTRACT: note_on channel=9 note=54 velocity=0 time=0.07307685
EXTRACT: note_on channel=9 note=54 velocity=39 time=0
EXTRACT: note_on channel=4 note=81 velocity=83 time=0.00384615
EXTRACT: note_on channel=0 note=52 velocity=62 time=0.00384615
EXTRACT: note_on channel=0 note=48 velocity=62 time=0
EXTRACT: note_on channel=0 note=57 velocity=67 time=0
EXTRACT: note_on channel=1 note=34 velocity=0 time=0
EXTRACT: note_on channel=1 note=33 velocity=85 time=0
EXTRACT: note_on channel=3 note=60 velocity=86 time=0
EXTRACT: note_on channel=4 note=77 velocity=0 time=0
EXTRACT: note_on channel=5 note=55 velocity=0 time=0
EXTRACT: note_on channel=5 note=57 velocity=88 time=0
EXTRACT: note_on channel=7 note=60 velocity=0 time=0
EXTRACT: note_on channel=7 note=62 velocity=83 time=0
EXTRACT: note_on channel=8 note=64 velocity=0 time=0
EXTRACT: note_on channel=8 note=65 velocity=80 time=0
EXTRACT: note_on channel=9 note=36 velocity=101 time=0
EXTRACT: note_on channel=9 note=42 velocity=99 time=0
EXTRACT: note_on channel=3 note=69 velocity=85 time=0.01153845
EXTRACT: note_on channel=3 note=64 velocity=101 time=0.01153845
EXTRACT: note_on channel=9 note=54 velocity=0 time=0.0846153
EXTRACT: note_on channel=9 note=54 velocity=7 time=0
EXTRACT: note_on channel=7 note=76 velocity=0 time=0.0076923
EXTRACT: note_on channel=9 note=36 velocity=0 time=0
EXTRACT: note_on channel=9 note=42 velocity=0 time=0
EXTRACT: note_on channel=7 note=76 velocity=123 time=0.0999999
EXTRACT: note_on channel=9 note=54 velocity=0 time=0.0076923
EXTRACT: note_on channel=9 note=54 velocity=7 time=0
EXTRACT: note_on channel=1 note=33 velocity=0 time=0.0076923
EXTRACT: note_on channel=5 note=57 velocity=0 time=0
EXTRACT: note_on channel=5 note=55 velocity=94 time=0
EXTRACT: note_on channel=7 note=62 velocity=0 time=0
EXTRACT: note_on channel=7 note=60 velocity=79 time=0
EXTRACT: note_on channel=8 note=65 velocity=0 time=0
EXTRACT: note_on channel=8 note=64 velocity=73 time=0
EXTRACT: note_on channel=9 note=42 velocity=27 time=0
EXTRACT: note_on channel=9 note=62 velocity=34 time=0
EXTRACT: note_on channel=9 note=54 velocity=0 time=0.1076922
EXTRACT: note_on channel=9 note=54 velocity=7 time=0
EXTRACT: note_on channel=3 note=69 velocity=0 time=0.0076923
EXTRACT: note_on channel=9 note=42 velocity=0 time=0
EXTRACT: note_on channel=9 note=62 velocity=0 time=0
EXTRACT: note_on channel=7 note=76 velocity=0 time=0.0538461
EXTRACT: note_on channel=7 note=74 velocity=120 time=0.04999995
EXTRACT: note_on channel=9 note=54 velocity=0 time=0.00384615
EXTRACT: note_on channel=9 note=54 velocity=10 time=0
EXTRACT: note_on channel=1 note=33 velocity=90 time=0.0076923
EXTRACT: note_on channel=3 note=64 velocity=0 time=0
EXTRACT: note_on channel=3 note=60 velocity=0 time=0
EXTRACT: note_on channel=3 note=60 velocity=83 time=0
EXTRACT: note_on channel=5 note=55 velocity=0 time=0
EXTRACT: note_on channel=5 note=57 velocity=94 time=0
EXTRACT: note_on channel=7 note=60 velocity=0 time=0
EXTRACT: note_on channel=7 note=62 velocity=90 time=0
EXTRACT: note_on channel=8 note=64 velocity=0 time=0
EXTRACT: note_on channel=8 note=65 velocity=86 time=0
EXTRACT: note_on channel=9 note=40 velocity=93 time=0
EXTRACT: note_on channel=9 note=42 velocity=94 time=0
EXTRACT: note_on channel=9 note=62 velocity=46 time=0
EXTRACT: note_on channel=9 note=39 velocity=93 time=0
EXTRACT: note_on channel=3 note=69 velocity=85 time=0.01153845
EXTRACT: note_on channel=3 note=64 velocity=99 time=0.01153845
EXTRACT: note_on channel=9 note=54 velocity=0 time=0.0846153
EXTRACT: note_on channel=9 note=54 velocity=13 time=0
EXTRACT: note_on channel=3 note=64 velocity=0 time=0.0076923
EXTRACT: note_on channel=3 note=69 velocity=0 time=0
EXTRACT: note_on channel=3 note=60 velocity=0 time=0
EXTRACT: note_on channel=9 note=40 velocity=0 time=0
EXTRACT: note_on channel=9 note=42 velocity=0 time=0
EXTRACT: note_on channel=9 note=62 velocity=0 time=0
EXTRACT: note_on channel=9 note=39 velocity=0 time=0
EXTRACT: note_on channel=7 note=72 velocity=120 time=0.10384605
EXTRACT: note_on channel=9 note=54 velocity=0 time=0.00384615
EXTRACT: note_on channel=9 note=54 velocity=12 time=0
EXTRACT: note_on channel=1 note=33 velocity=0 time=0.0076923
EXTRACT: note_on channel=5 note=57 velocity=0 time=0
EXTRACT: note_on channel=9 note=42 velocity=23 time=0
EXTRACT: note_on channel=9 note=64 velocity=66 time=0
EXTRACT: note_on channel=7 note=74 velocity=0 time=0.0384615
EXTRACT: note_on channel=9 note=54 velocity=0 time=0.0692307
EXTRACT: note_on channel=9 note=54 velocity=13 time=0
EXTRACT: note_on channel=7 note=62 velocity=0 time=0.0076923
EXTRACT: note_on channel=8 note=65 velocity=0 time=0
EXTRACT: note_on channel=9 note=42 velocity=0 time=0
EXTRACT: note_on channel=9 note=64 velocity=0 time=0
EXTRACT: note_on channel=7 note=72 velocity=0 time=0.01923075
EXTRACT: note_on channel=9 note=54 velocity=0 time=0.08846145
EXTRACT: note_on channel=9 note=54 velocity=42 time=0
EXTRACT: note_on channel=1 note=33 velocity=99 time=0.0076923
EXTRACT: note_on channel=5 note=57 velocity=113 time=0
EXTRACT: note_on channel=7 note=62 velocity=101 time=0
EXTRACT: note_on channel=8 note=65 velocity=97 time=0
EXTRACT: note_on channel=9 note=36 velocity=85 time=0
EXTRACT: note_on channel=9 note=42 velocity=99 time=0
EXTRACT: note_on channel=7 note=72 velocity=125 time=0.0076923
EXTRACT: note_on channel=9 note=54 velocity=0 time=0.0999999
EXTRACT: note_on channel=9 note=54 velocity=28 time=0
EXTRACT: note_on channel=9 note=36 velocity=0 time=0.0076923
EXTRACT: note_on channel=9 note=42 velocity=0 time=0
EXTRACT: note_on channel=9 note=54 velocity=0 time=0.1076922
EXTRACT: note_on channel=9 note=54 velocity=28 time=0
EXTRACT: note_on channel=1 note=33 velocity=0 time=0.0076923
EXTRACT: note_on channel=1 note=29 velocity=76 time=0
EXTRACT: note_on channel=3 note=69 velocity=94 time=0
EXTRACT: note_on channel=5 note=57 velocity=0 time=0
EXTRACT: note_on channel=5 note=55 velocity=101 time=0
EXTRACT: note_on channel=7 note=62 velocity=0 time=0
EXTRACT: note_on channel=7 note=60 velocity=92 time=0
EXTRACT: note_on channel=8 note=65 velocity=0 time=0
EXTRACT: note_on channel=8 note=64 velocity=74 time=0
EXTRACT: note_on channel=9 note=36 velocity=83 time=0
EXTRACT: note_on channel=9 note=42 velocity=53 time=0
EXTRACT: note_on channel=9 note=62 velocity=37 time=0
EXTRACT: note_on channel=3 note=60 velocity=92 time=0.01153845
EXTRACT: note_on channel=3 note=64 velocity=104 time=0.01153845
EXTRACT: note_on channel=7 note=72 velocity=0 time=0.08076915
EXTRACT: note_on channel=9 note=54 velocity=0 time=0.00384615
EXTRACT: note_on channel=9 note=54 velocity=28 time=0
EXTRACT: note_on channel=3 note=64 velocity=0 time=0.0076923
EXTRACT: note_on channel=3 note=60 velocity=0 time=0
EXTRACT: note_on channel=3 note=69 velocity=0 time=0
EXTRACT: note_on channel=9 note=36 velocity=0 time=0
EXTRACT: note_on channel=9 note=42 velocity=0 time=0
EXTRACT: note_on channel=9 note=62 velocity=0 time=0
EXTRACT: note_on channel=9 note=54 velocity=0 time=0.1076922
EXTRACT: note_on channel=9 note=54 velocity=41 time=0
EXTRACT: note_on channel=0 note=57 velocity=0 time=0.0076923
EXTRACT: note_on channel=1 note=29 velocity=0 time=0
EXTRACT: note_on channel=1 note=33 velocity=101 time=0
EXTRACT: note_on channel=5 note=55 velocity=0 time=0
EXTRACT: note_on channel=5 note=57 velocity=90 time=0
EXTRACT: note_on channel=7 note=60 velocity=0 time=0
EXTRACT: note_on channel=7 note=62 velocity=90 time=0
EXTRACT: note_on channel=8 note=64 velocity=0 time=0
EXTRACT: note_on channel=8 note=65 velocity=83 time=0
EXTRACT: note_on channel=9 note=40 velocity=100 time=0
EXTRACT: note_on channel=9 note=42 velocity=99 time=0
EXTRACT: note_on channel=9 note=62 velocity=43 time=0
EXTRACT: note_on channel=9 note=39 velocity=100 time=0
EXTRACT: note_on channel=9 note=54 velocity=0 time=0.1076922
EXTRACT: note_on channel=9 note=54 velocity=28 time=0
EXTRACT: note_on channel=0 note=48 velocity=0 time=0.0076923
EXTRACT: note_on channel=0 note=52 velocity=0 time=0
EXTRACT: note_on channel=5 note=57 velocity=0 time=0
EXTRACT: note_on channel=9 note=40 velocity=0 time=0
EXTRACT: note_on channel=9 note=42 velocity=0 time=0
EXTRACT: note_on channel=9 note=62 velocity=0 time=0
EXTRACT: note_on channel=9 note=39 velocity=0 time=0
EXTRACT: note_on channel=4 note=79 velocity=82 time=0.07307685
EXTRACT: note_on channel=4 note=81 velocity=0 time=0.0307692
EXTRACT: note_on channel=9 note=54 velocity=0 time=0.00384615
EXTRACT: note_on channel=9 note=54 velocity=31 time=0
EXTRACT: note_on channel=0 note=50 velocity=72 time=0.0076923
EXTRACT: note_on channel=0 note=47 velocity=69 time=0
EXTRACT: note_on channel=0 note=55 velocity=68 time=0
EXTRACT: note_on channel=1 note=33 velocity=0 time=0
EXTRACT: note_on channel=1 note=31 velocity=86 time=0
EXTRACT: note_on channel=3 note=67 velocity=92 time=0
EXTRACT: note_on channel=5 note=53 velocity=99 time=0
EXTRACT: note_on channel=7 note=62 velocity=0 time=0
EXTRACT: note_on channel=7 note=60 velocity=92 time=0
EXTRACT: note_on channel=8 note=65 velocity=0 time=0
EXTRACT: note_on channel=8 note=64 velocity=80 time=0
EXTRACT: note_on channel=9 note=36 velocity=71 time=0
EXTRACT: note_on channel=9 note=42 velocity=31 time=0
EXTRACT: note_on channel=9 note=63 velocity=58 time=0
EXTRACT: note_on channel=3 note=59 velocity=92 time=0.01153845
EXTRACT: note_on channel=3 note=62 velocity=107 time=0.01153845
EXTRACT: pitchwheel channel=7 pitch=-2217 time=0.00384615
EXTRACT: note_on channel=7 note=76 velocity=126 time=0.00384615
EXTRACT: pitchwheel channel=7 pitch=-4819 time=0.00384615
EXTRACT: pitchwheel channel=7 pitch=-8192 time=0.0076923
EXTRACT: pitchwheel channel=7 pitch=-8096 time=0.05769225
EXTRACT: note_on channel=9 note=54 velocity=0 time=0.0076923
EXTRACT: note_on channel=9 note=54 velocity=37 time=0
EXTRACT: pitchwheel channel=7 pitch=-6297 time=0.00384615
EXTRACT: note_on channel=9 note=36 velocity=0 time=0.00384615
EXTRACT: note_on channel=9 note=42 velocity=0 time=0
EXTRACT: note_on channel=9 note=63 velocity=0 time=0
EXTRACT: pitchwheel channel=7 pitch=-4819 time=0.00384615
EXTRACT: pitchwheel channel=7 pitch=-3727 time=0.0076923
EXTRACT: pitchwheel channel=7 pitch=-2281 time=0.0076923
EXTRACT: pitchwheel channel=7 pitch=-1093 time=0.01153845
EXTRACT: pitchwheel channel=7 pitch=0 time=0.0076923
EXTRACT: note_on channel=9 note=54 velocity=0 time=0.0692307
EXTRACT: note_on channel=9 note=54 velocity=41 time=0
EXTRACT: note_on channel=5 note=53 velocity=0 time=0.0076923
EXTRACT: note_on channel=5 note=55 velocity=99 time=0
EXTRACT: note_on channel=7 note=60 velocity=0 time=0
EXTRACT: note_on channel=7 note=62 velocity=90 time=0
EXTRACT: note_on channel=8 note=64 velocity=0 time=0
EXTRACT: note_on channel=8 note=65 velocity=82 time=0
EXTRACT: note_on channel=9 note=36 velocity=101 time=0
EXTRACT: note_on channel=9 note=42 velocity=99 time=0
EXTRACT: note_on channel=9 note=54 velocity=0 time=0.1076922
EXTRACT: note_on channel=9 note=54 velocity=10 time=0
EXTRACT: note_on channel=1 note=31 velocity=0 time=0.0076923
EXTRACT: note_on channel=9 note=36 velocity=0 time=0
EXTRACT: note_on channel=9 note=42 velocity=0 time=0
EXTRACT: note_on channel=7 note=76 velocity=0 time=0.03461535
EXTRACT: note_on channel=9 note=54 velocity=0 time=0.07307685
EXTRACT: note_on channel=9 note=54 velocity=10 time=0
EXTRACT: note_on channel=1 note=31 velocity=94 time=0.0076923
EXTRACT: note_on channel=5 note=55 velocity=0 time=0
EXTRACT: note_on channel=8 note=65 velocity=0 time=0
EXTRACT: note_on channel=9 note=42 velocity=42 time=0
EXTRACT: note_on channel=9 note=62 velocity=38 time=0
EXTRACT: note_on channel=7 note=76 velocity=126 time=0.0307692
EXTRACT: note_on channel=9 note=54 velocity=0 time=0.076923
EXTRACT: note_on channel=9 note=54 velocity=11 time=0
EXTRACT: note_on channel=3 note=62 velocity=0 time=0.0076923
EXTRACT: note_on channel=3 note=59 velocity=0 time=0
EXTRACT: note_on channel=3 note=67 velocity=0 time=0
EXTRACT: note_on channel=7 note=62 velocity=0 time=0
EXTRACT: note_on channel=9 note=42 velocity=0 time=0
EXTRACT: note_on channel=9 note=62 velocity=0 time=0
EXTRACT: note_on channel=7 note=76 velocity=0 time=0.10384605
EXTRACT: note_on channel=7 note=74 velocity=97 time=0.00384615
EXTRACT: note_on channel=9 note=54 velocity=0 time=0
EXTRACT: note_on channel=9 note=54 velocity=11 time=0
EXTRACT: note_on channel=1 note=31 velocity=0 time=0.0076923
EXTRACT: note_on channel=3 note=67 velocity=82 time=0
EXTRACT: note_on channel=5 note=55 velocity=117 time=0
EXTRACT: note_on channel=6 note=76 velocity=101 time=0
EXTRACT: note_on channel=6 note=64 velocity=101 time=0
EXTRACT: note_on channel=7 note=62 velocity=107 time=0
EXTRACT: note_on channel=8 note=65 velocity=92 time=0
EXTRACT: note_on channel=9 note=40 velocity=93 time=0
EXTRACT: note_on channel=9 note=42 velocity=99 time=0
EXTRACT: note_on channel=9 note=62 velocity=49 time=0
EXTRACT: note_on channel=9 note=39 velocity=93 time=0
EXTRACT: note_on channel=3 note=59 velocity=85 time=0.01153845
EXTRACT: note_on channel=3 note=62 velocity=101 time=0.01153845
EXTRACT: note_on channel=9 note=54 velocity=0 time=0.0846153
EXTRACT: note_on channel=9 note=54 velocity=11 time=0
EXTRACT: note_on channel=3 note=62 velocity=0 time=0.0076923
EXTRACT: note_on channel=3 note=59 velocity=0 time=0
EXTRACT: note_on channel=3 note=67 velocity=0 time=0
EXTRACT: note_on channel=9 note=40 velocity=0 time=0
EXTRACT: note_on channel=9 note=42 velocity=0 time=0
EXTRACT: note_on channel=9 note=62 velocity=0 time=0
EXTRACT: note_on channel=9 note=39 velocity=0 time=0
EXTRACT: note_on channel=7 note=74 velocity=0 time=0.1076922
EXTRACT: note_on channel=7 note=72 velocity=120 time=0
EXTRACT: note_on channel=9 note=54 velocity=0 time=0
EXTRACT: note_on channel=9 note=54 velocity=13 time=0
EXTRACT: note_on channel=1 note=31 velocity=99 time=0.0076923
EXTRACT: note_on channel=9 note=42 velocity=46 time=0
EXTRACT: note_on channel=9 note=64 velocity=70 time=0
EXTRACT: note_on channel=6 note=64 velocity=0 time=0.01153845
EXTRACT: note_on channel=6 note=76 velocity=0 time=0
EXTRACT: note_on channel=7 note=72 velocity=0 time=0.08846145
EXTRACT: note_on channel=9 note=54 velocity=0 time=0.0076923
EXTRACT: note_on channel=9 note=54 velocity=13 time=0
EXTRACT: note_on channel=5 note=55 velocity=0 time=0.0076923
EXTRACT: note_on channel=7 note=62 velocity=0 time=0
EXTRACT: note_on channel=8 note=65 velocity=0 time=0
EXTRACT: note_on channel=9 note=42 velocity=0 time=0
EXTRACT: note_on channel=9 note=64 velocity=0 time=0
EXTRACT: note_on channel=6 note=74 velocity=117 time=0.10384605
EXTRACT: note_on channel=6 note=62 velocity=117 time=0
EXTRACT: note_on channel=7 note=72 velocity=125 time=0
EXTRACT: note_on channel=9 note=54 velocity=0 time=0.00384615
EXTRACT: note_on channel=9 note=54 velocity=38 time=0
EXTRACT: note_on channel=5 note=55 velocity=120 time=0.0076923
EXTRACT: note_on channel=7 note=64 velocity=110 time=0
EXTRACT: note_on channel=8 note=67 velocity=99 time=0
EXTRACT: note_on channel=9 note=36 velocity=94 time=0
EXTRACT: note_on channel=9 note=42 velocity=94 time=0
EXTRACT: note_on channel=9 note=54 velocity=0 time=0.1076922
EXTRACT: note_on channel=9 note=54 velocity=27 time=0
EXTRACT: note_on channel=9 note=36 velocity=0 time=0.0076923
EXTRACT: note_on channel=9 note=40 velocity=80 time=0
EXTRACT: note_on channel=9 note=42 velocity=0 time=0
EXTRACT: note_on channel=7 note=72 velocity=0 time=0.05769225
EXTRACT: note_on channel=9 note=40 velocity=0 time=0
EXTRACT: note_on channel=6 note=72 velocity=107 time=0.0384615
EXTRACT: note_on channel=6 note=60 velocity=107 time=0
EXTRACT: note_on channel=7 note=67 velocity=99 time=0
EXTRACT: note_on channel=9 note=54 velocity=0 time=0.01153845
EXTRACT: note_on channel=9 note=54 velocity=27 time=0
EXTRACT: note_on channel=1 note=31 velocity=0 time=0.0076923
EXTRACT: note_on channel=1 note=33 velocity=85 time=0
EXTRACT: note_on channel=3 note=67 velocity=94 time=0
EXTRACT: note_on channel=9 note=36 velocity=88 time=0
EXTRACT: note_on channel=9 note=40 velocity=80 time=0
EXTRACT: note_on channel=9 note=42 velocity=46 time=0
EXTRACT: note_on channel=9 note=62 velocity=48 time=0
EXTRACT: note_on channel=3 note=59 velocity=94 time=0.01153845
EXTRACT: note_on channel=3 note=62 velocity=110 time=0.01153845
EXTRACT: note_on channel=9 note=40 velocity=0 time=0.03461535
EXTRACT: note_on channel=9 note=42 velocity=0 time=0
EXTRACT: note_on channel=6 note=62 velocity=0 time=0.02692305
EXTRACT: note_on channel=6 note=74 velocity=0 time=0
EXTRACT: note_on channel=9 note=54 velocity=0 time=0.0230769
EXTRACT: note_on channel=9 note=54 velocity=27 time=0
EXTRACT: note_on channel=3 note=62 velocity=0 time=0.0076923
EXTRACT: note_on channel=3 note=59 velocity=0 time=0
EXTRACT: note_on channel=3 note=67 velocity=0 time=0
EXTRACT: note_on channel=9 note=36 velocity=0 time=0
EXTRACT: note_on channel=9 note=62 velocity=0 time=0
EXTRACT: note_on channel=6 note=72 velocity=0 time=0.07307685
EXTRACT: note_on channel=6 note=60 velocity=0 time=0
EXTRACT: note_on channel=7 note=69 velocity=120 time=0.01153845
EXTRACT: note_on channel=6 note=69 velocity=113 time=0.0076923
EXTRACT: note_on channel=6 note=57 velocity=113 time=0
EXTRACT: note_on channel=9 note=54 velocity=0 time=0.0153846
EXTRACT: note_on channel=9 note=54 velocity=36 time=0
EXTRACT: note_on channel=1 note=33 velocity=0 time=0.0076923
EXTRACT: note_on channel=1 note=36 velocity=74 time=0
EXTRACT: note_on channel=5 note=55 velocity=0 time=0
EXTRACT: note_on channel=5 note=53 velocity=104 time=0
EXTRACT: note_on channel=7 note=64 velocity=0 time=0
EXTRACT: note_on channel=7 note=62 velocity=90 time=0
EXTRACT: note_on channel=8 note=67 velocity=0 time=0
EXTRACT: note_on channel=8 note=65 velocity=83 time=0
EXTRACT: note_on channel=9 note=40 velocity=93 time=0
EXTRACT: note_on channel=9 note=42 velocity=89 time=0
EXTRACT: note_on channel=9 note=62 velocity=52 time=0
EXTRACT: note_on channel=9 note=39 velocity=93 time=0
EXTRACT: note_on channel=7 note=67 velocity=0 time=0.0153846
EXTRACT: note_on channel=9 note=54 velocity=0 time=0.0923076
EXTRACT: note_on channel=9 note=54 velocity=27 time=0
EXTRACT: note_on channel=9 note=40 velocity=0 time=0.0076923
EXTRACT: note_on channel=9 note=42 velocity=0 time=0
EXTRACT: note_on channel=9 note=62 velocity=0 time=0
EXTRACT: note_on channel=9 note=39 velocity=0 time=0
EXTRACT: note_on channel=1 note=36 velocity=0 time=0.0384615
EXTRACT: note_on channel=7 note=69 velocity=0 time=0.0230769
EXTRACT: note_on channel=7 note=72 velocity=120 time=0.0153846
EXTRACT: note_on channel=6 note=57 velocity=0 time=0.01923075
EXTRACT: note_on channel=6 note=69 velocity=0 time=0
EXTRACT: note_on channel=9 note=54 velocity=0 time=0.01153845
EXTRACT: note_on channel=4 note=79 velocity=0 time=0.00384615
EXTRACT: note_on channel=0 note=55 velocity=0 time=0.00384615
EXTRACT: note_on channel=0 note=47 velocity=0 time=0
EXTRACT: note_on channel=0 note=50 velocity=0 time=0
EXTRACT: note_on channel=0 note=55 velocity=72 time=0
EXTRACT: note_on channel=0 note=60 velocity=100 time=0
EXTRACT: note_on channel=1 note=36 velocity=80 time=0
EXTRACT: note_on channel=3 note=60 velocity=100 time=0
EXTRACT: note_on channel=3 note=67 velocity=100 time=0
EXTRACT: note_on channel=3 note=72 velocity=100 time=0
EXTRACT: note_on channel=4 note=72 velocity=82 time=0
EXTRACT: note_on channel=5 note=53 velocity=0 time=0
EXTRACT: note_on channel=5 note=52 velocity=92 time=0
EXTRACT: note_on channel=7 note=62 velocity=0 time=0
EXTRACT: note_on channel=7 note=60 velocity=97 time=0
EXTRACT: note_on channel=8 note=65 velocity=0 time=0
EXTRACT: note_on channel=8 note=64 velocity=86 time=0
EXTRACT: note_on channel=9 note=36 velocity=71 time=0
EXTRACT: note_on channel=9 note=42 velocity=51 time=0
EXTRACT: note_on channel=9 note=49 velocity=48 time=0
EXTRACT: note_on channel=9 note=63 velocity=67 time=0
EXTRACT: note_on channel=6 note=72 velocity=107 time=0.00384615
EXTRACT: note_on channel=6 note=60 velocity=107 time=0
EXTRACT: note_on channel=9 note=36 velocity=0 time=0.11153835
EXTRACT: note_on channel=9 note=42 velocity=0 time=0
EXTRACT: note_on channel=9 note=63 velocity=0 time=0
EXTRACT: note_on channel=9 note=49 velocity=0 time=0.0692307
EXTRACT: note_on channel=1 note=36 velocity=0 time=0.0076923
EXTRACT: note_on channel=0 note=60 velocity=0 time=0.0384615
EXTRACT: note_on channel=0 note=55 velocity=0 time=0
EXTRACT: note_on channel=3 note=72 velocity=0 time=0
EXTRACT: note_on channel=3 note=67 velocity=0 time=0
EXTRACT: note_on channel=3 note=60 velocity=0 time=0
EXTRACT: note_on channel=4 note=72 velocity=0 time=0
EXTRACT: note_on channel=5 note=52 velocity=0 time=0
EXTRACT: note_on channel=7 note=60 velocity=0 time=0
EXTRACT: note_on channel=7 note=72 velocity=0 time=0
EXTRACT: note_on channel=8 note=64 velocity=0 time=0
EXTRACT: note_on channel=6 note=60 velocity=0 time=0.04999995
EXTRACT: note_on channel=6 note=72 velocity=0 time=0
