EXTRACT: control_change channel=0 control=101 value=0 time=0
EXTRACT: control_change channel=0 control=100 value=0 time=0
EXTRACT: control_change channel=0 control=6 value=12 time=0
EXTRACT: control_change channel=0 control=38 value=0 time=0
EXTRACT: control_change channel=1 control=101 value=0 time=0
EXTRACT: control_change channel=1 control=100 value=0 time=0
EXTRACT: control_change channel=1 control=6 value=12 time=0
EXTRACT: control_change channel=1 control=38 value=0 time=0
EXTRACT: control_change channel=2 control=101 value=0 time=0
EXTRACT: control_change channel=2 control=100 value=0 time=0
EXTRACT: control_change channel=2 control=6 value=12 time=0
EXTRACT: control_change channel=2 control=38 value=0 time=0
EXTRACT: control_change channel=3 control=101 value=0 time=0
EXTRACT: control_change channel=3 control=100 value=0 time=0
EXTRACT: control_change channel=3 control=6 value=12 time=0
EXTRACT: control_change channel=3 control=38 value=0 time=0
EXTRACT: control_change channel=4 control=101 value=0 time=0
EXTRACT: control_change channel=4 control=100 value=0 time=0
EXTRACT: control_change channel=4 control=6 value=12 time=0
EXTRACT: control_change channel=4 control=38 value=0 time=0
EXTRACT: control_change channel=5 control=101 value=0 time=0
EXTRACT: control_change channel=5 control=100 value=0 time=0
EXTRACT: control_change channel=5 control=6 value=12 time=0
EXTRACT: control_change channel=5 control=38 value=0 time=0
EXTRACT: control_change channel=6 control=101 value=0 time=0
EXTRACT: control_change channel=6 control=100 value=0 time=0
EXTRACT: control_change channel=6 control=6 value=12 time=0
EXTRACT: control_change channel=6 control=38 value=0 time=0
EXTRACT: control_change channel=7 control=101 value=0 time=0
EXTRACT: control_change channel=7 control=100 value=0 time=0
EXTRACT: control_change channel=7 control=6 value=12 time=0
EXTRACT: control_change channel=7 control=38 value=0 time=0
EXTRACT: control_change channel=8 control=101 value=0 time=0
EXTRACT: control_change channel=8 control=100 value=0 time=0
EXTRACT: control_change channel=8 control=6 value=12 time=0
EXTRACT: control_change channel=8 control=38 value=0 time=0
EXTRACT: control_change channel=9 control=101 value=0 time=0
EXTRACT: control_change channel=9 control=100 value=0 time=0
EXTRACT: control_change channel=9 control=6 value=12 time=0
EXTRACT: control_change channel=9 control=38 value=0 time=0
EXTRACT: control_change channel=10 control=101 value=0 time=0
EXTRACT: control_change channel=10 control=100 value=0 time=0
EXTRACT: control_change channel=10 control=6 value=12 time=0
EXTRACT: control_change channel=10 control=38 value=0 time=0
EXTRACT: control_change channel=11 control=101 value=0 time=0
EXTRACT: control_change channel=11 control=100 value=0 time=0
EXTRACT: control_change channel=11 control=6 value=12 time=0
EXTRACT: control_change channel=11 control=38 value=0 time=0
EXTRACT: control_change channel=12 control=101 value=0 time=0
EXTRACT: control_change channel=12 control=100 value=0 time=0
EXTRACT: control_change channel=12 control=6 value=12 time=0
EXTRACT: control_change channel=12 control=38 value=0 time=0
EXTRACT: control_change channel=13 control=101 value=0 time=0
EXTRACT: control_change channel=13 control=100 value=0 time=0
EXTRACT: control_change channel=13 control=6 value=12 time=0
EXTRACT: control_change channel=13 control=38 value=0 time=0
EXTRACT: control_change channel=14 control=101 value=0 time=0
EXTRACT: control_change channel=14 control=100 value=0 time=0
EXTRACT: control_change channel=14 control=6 value=12 time=0
EXTRACT: control_change channel=14 control=38 value=0 time=0
EXTRACT: control_change channel=15 control=101 value=0 time=0
EXTRACT: control_change channel=15 control=100 value=0 time=0
EXTRACT: control_change channel=15 control=6 value=12 time=0
EXTRACT: control_change channel=15 control=38 value=0 time=0
EXTRACT: pitchwheel channel=0 pitch=0 time=0
EXTRACT: control_change channel=0 control=7 value=103 time=0
EXTRACT: control_change channel=0 control=10 value=63 time=0
EXTRACT: control_change channel=0 control=93 value=0 time=0
EXTRACT: control_change channel=0 control=91 value=0 time=0
EXTRACT: control_change channel=0 control=95 value=0 time=0
EXTRACT: control_change channel=0 control=92 value=0 time=0
EXTRACT: control_change channel=0 control=11 value=127 time=0
EXTRACT: program_change channel=0 program=24 time=0
EXTRACT: control_change channel=1 control=7 value=103 time=0
EXTRACT: control_change channel=1 control=10 value=63 time=0
EXTRACT: control_change channel=1 control=93 value=0 time=0
EXTRACT: control_change channel=1 control=91 value=0 time=0
EXTRACT: control_change channel=1 control=95 value=0 time=0
EXTRACT: control_change channel=1 control=92 value=0 time=0
EXTRACT: control_change channel=1 control=11 value=127 time=0
EXTRACT: program_change channel=1 program=24 time=0
EXTRACT: note_on channel=0 note=72 velocity=63 time=0
EXTRACT: note_on channel=0 note=68 velocity=63 time=0
EXTRACT: note_on channel=0 note=65 velocity=63 time=0
EXTRACT: note_on channel=0 note=60 velocity=63 time=0
EXTRACT: note_on channel=0 note=53 velocity=63 time=0
EXTRACT: pitchwheel channel=2 pitch=0 time=0
EXTRACT: control_change channel=2 control=7 value=103 time=0
EXTRACT: control_change channel=2 control=10 value=63 time=0
EXTRACT: control_change channel=2 control=93 value=0 time=0
EXTRACT: control_change channel=2 control=91 value=0 time=0
EXTRACT: control_change channel=2 control=95 value=0 time=0
EXTRACT: control_change channel=2 control=92 value=0 time=0
EXTRACT: control_change channel=2 control=11 value=127 time=0
EXTRACT: program_change channel=2 program=26 time=0
EXTRACT: control_change channel=3 control=7 value=103 time=0
EXTRACT: control_change channel=3 control=10 value=63 time=0
EXTRACT: control_change channel=3 control=93 value=0 time=0
EXTRACT: control_change channel=3 control=91 value=0 time=0
EXTRACT: control_change channel=3 control=95 value=0 time=0
EXTRACT: control_change channel=3 control=92 value=0 time=0
EXTRACT: control_change channel=3 control=11 value=127 time=0
EXTRACT: program_change channel=3 program=26 time=0
EXTRACT: note_on channel=2 note=51 velocity=79 time=0
EXTRACT: pitchwheel channel=4 pitch=0 time=0
EXTRACT: control_change channel=4 control=7 value=103 time=0
EXTRACT: control_change channel=4 control=10 value=63 time=0
EXTRACT: control_change channel=4 control=93 value=0 time=0
EXTRACT: control_change channel=4 control=91 value=0 time=0
EXTRACT: control_change channel=4 control=95 value=0 time=0
EXTRACT: control_change channel=4 control=92 value=0 time=0
EXTRACT: control_change channel=4 control=11 value=127 time=0
EXTRACT: program_change channel=4 program=73 time=0
EXTRACT: control_change channel=5 control=7 value=103 time=0
EXTRACT: control_change channel=5 control=10 value=63 time=0
EXTRACT: control_change channel=5 control=93 value=0 time=0
EXTRACT: control_change channel=5 control=91 value=0 time=0
EXTRACT: control_change channel=5 control=95 value=0 time=0
EXTRACT: control_change channel=5 control=92 value=0 time=0
EXTRACT: control_change channel=5 control=11 value=127 time=0
EXTRACT: program_change channel=5 program=73 time=0
EXTRACT: pitchwheel channel=6 pitch=0 time=0
EXTRACT: control_change channel=6 control=7 value=103 time=0
EXTRACT: control_change channel=6 control=10 value=63 time=0
EXTRACT: control_change channel=6 control=93 value=0 time=0
EXTRACT: control_change channel=6 control=91 value=0 time=0
EXTRACT: control_change channel=6 control=95 value=0 time=0
EXTRACT: control_change channel=6 control=92 value=0 time=0
EXTRACT: control_change channel=6 control=11 value=127 time=0
EXTRACT: program_change channel=6 program=52 time=0
EXTRACT: control_change channel=7 control=7 value=103 time=0
EXTRACT: control_change channel=7 control=10 value=63 time=0
EXTRACT: control_change channel=7 control=93 value=0 time=0
EXTRACT: control_change channel=7 control=91 value=0 time=0
EXTRACT: control_change channel=7 control=95 value=0 time=0
EXTRACT: control_change channel=7 control=92 value=0 time=0
EXTRACT: control_change channel=7 control=11 value=127 time=0
EXTRACT: program_change channel=7 program=52 time=0
EXTRACT: note_off channel=0 note=72 velocity=63 time=0.14423075
EXTRACT: note_off channel=0 note=68 velocity=63 time=0
EXTRACT: note_off channel=0 note=65 velocity=63 time=0
EXTRACT: note_off channel=0 note=60 velocity=63 time=0
EXTRACT: note_off channel=0 note=53 velocity=63 time=0
EXTRACT: note_on channel=0 note=72 velocity=63 time=0
EXTRACT: note_on channel=0 note=68 velocity=63 time=0
EXTRACT: note_on channel=0 note=65 velocity=63 time=0
EXTRACT: note_on channel=0 note=60 velocity=63 time=0
EXTRACT: note_on channel=0 note=53 velocity=63 time=0
EXTRACT: note_off channel=2 note=51 velocity=79 time=0
EXTRACT: note_on channel=2 note=53 velocity=54 time=0
EXTRACT: note_off channel=0 note=72 velocity=63 time=0.14423075
EXTRACT: note_off channel=0 note=68 velocity=63 time=0
EXTRACT: note_off channel=0 note=65 velocity=63 time=0
EXTRACT: note_off channel=0 note=60 velocity=63 time=0
EXTRACT: note_off channel=0 note=53 velocity=63 time=0
EXTRACT: note_on channel=0 note=64 velocity=63 time=0
EXTRACT: note_on channel=0 note=59 velocity=63 time=0
EXTRACT: note_on channel=0 note=55 velocity=63 time=0
EXTRACT: note_on channel=0 note=50 velocity=63 time=0
EXTRACT: note_on channel=0 note=45 velocity=63 time=0
EXTRACT: note_off channel=0 note=64 velocity=63 time=0.031249995833333332
EXTRACT: note_off channel=0 note=59 velocity=63 time=0
EXTRACT: note_off channel=0 note=55 velocity=63 time=0
EXTRACT: note_off channel=0 note=50 velocity=63 time=0
EXTRACT: note_off channel=0 note=45 velocity=63 time=0
EXTRACT: note_on channel=0 note=64 velocity=63 time=0.11298075416666667
EXTRACT: note_on channel=0 note=59 velocity=63 time=0
EXTRACT: note_on channel=0 note=55 velocity=63 time=0
EXTRACT: note_on channel=0 note=50 velocity=63 time=0
EXTRACT: note_on channel=0 note=45 velocity=63 time=0
EXTRACT: note_off channel=2 note=53 velocity=54 time=0
EXTRACT: note_on channel=2 note=56 velocity=79 time=0
EXTRACT: note_off channel=0 note=64 velocity=63 time=0.031249995833333332
EXTRACT: note_off channel=0 note=59 velocity=63 time=0
EXTRACT: note_off channel=0 note=55 velocity=63 time=0
EXTRACT: note_off channel=0 note=50 velocity=63 time=0
EXTRACT: note_off channel=0 note=45 velocity=63 time=0
EXTRACT: note_on channel=0 note=72 velocity=63 time=0.11298075416666667
EXTRACT: note_on channel=0 note=68 velocity=63 time=0
EXTRACT: note_on channel=0 note=65 velocity=63 time=0
EXTRACT: note_on channel=0 note=60 velocity=63 time=0
EXTRACT: note_on channel=0 note=53 velocity=63 time=0
EXTRACT: note_off channel=2 note=56 velocity=79 time=0
EXTRACT: note_off channel=0 note=72 velocity=63 time=0.14423075
EXTRACT: note_off channel=0 note=68 velocity=63 time=0
EXTRACT: note_off channel=0 note=65 velocity=63 time=0
EXTRACT: note_off channel=0 note=60 velocity=63 time=0
EXTRACT: note_off channel=0 note=53 velocity=63 time=0
EXTRACT: note_on channel=0 note=72 velocity=63 time=0
EXTRACT: note_on channel=0 note=68 velocity=63 time=0
EXTRACT: note_on channel=0 note=65 velocity=63 time=0
EXTRACT: note_on channel=0 note=60 velocity=63 time=0
EXTRACT: note_on channel=0 note=53 velocity=63 time=0
EXTRACT: note_off channel=0 note=72 velocity=63 time=0.14423075
EXTRACT: note_off channel=0 note=68 velocity=63 time=0
EXTRACT: note_off channel=0 note=65 velocity=63 time=0
EXTRACT: note_off channel=0 note=60 velocity=63 time=0
EXTRACT: note_off channel=0 note=53 velocity=63 time=0
EXTRACT: note_on channel=0 note=64 velocity=63 time=0
EXTRACT: note_on channel=0 note=59 velocity=63 time=0
EXTRACT: note_on channel=0 note=55 velocity=63 time=0
EXTRACT: note_on channel=0 note=50 velocity=63 time=0
EXTRACT: note_on channel=0 note=45 velocity=63 time=0
EXTRACT: note_on channel=2 note=51 velocity=79 time=0
EXTRACT: note_off channel=0 note=64 velocity=63 time=0.031249995833333332
EXTRACT: note_off channel=0 note=59 velocity=63 time=0
EXTRACT: note_off channel=0 note=55 velocity=63 time=0
EXTRACT: note_off channel=0 note=50 velocity=63 time=0
EXTRACT: note_off channel=0 note=45 velocity=63 time=0
EXTRACT: note_on channel=0 note=64 velocity=63 time=0.11298075416666667
EXTRACT: note_on channel=0 note=59 velocity=63 time=0
EXTRACT: note_on channel=0 note=55 velocity=63 time=0
EXTRACT: note_on channel=0 note=50 velocity=63 time=0
EXTRACT: note_on channel=0 note=45 velocity=63 time=0
EXTRACT: note_off channel=0 note=64 velocity=63 time=0.031249995833333332
EXTRACT: note_off channel=0 note=59 velocity=63 time=0
EXTRACT: note_off channel=0 note=55 velocity=63 time=0
EXTRACT: note_off channel=0 note=50 velocity=63 time=0
EXTRACT: note_off channel=0 note=45 velocity=63 time=0
EXTRACT: note_on channel=0 note=72 velocity=63 time=0.11298075416666667
EXTRACT: note_on channel=0 note=68 velocity=63 time=0
EXTRACT: note_on channel=0 note=65 velocity=63 time=0
EXTRACT: note_on channel=0 note=60 velocity=63 time=0
EXTRACT: note_on channel=0 note=53 velocity=63 time=0
EXTRACT: note_off channel=2 note=51 velocity=79 time=0
EXTRACT: note_off channel=0 note=72 velocity=63 time=0.14423075
EXTRACT: note_off channel=0 note=68 velocity=63 time=0
EXTRACT: note_off channel=0 note=65 velocity=63 time=0
EXTRACT: note_off channel=0 note=60 velocity=63 time=0
EXTRACT: note_off channel=0 note=53 velocity=63 time=0
EXTRACT: note_on channel=0 note=72 velocity=63 time=0
EXTRACT: note_on channel=0 note=68 velocity=63 time=0
EXTRACT: note_on channel=0 note=65 velocity=63 time=0
EXTRACT: note_on channel=0 note=60 velocity=63 time=0
EXTRACT: note_on channel=0 note=53 velocity=63 time=0
EXTRACT: note_off channel=0 note=72 velocity=63 time=0.14423075
EXTRACT: note_off channel=0 note=68 velocity=63 time=0
EXTRACT: note_off channel=0 note=65 velocity=63 time=0
EXTRACT: note_off channel=0 note=60 velocity=63 time=0
EXTRACT: note_off channel=0 note=53 velocity=63 time=0
EXTRACT: note_on channel=0 note=64 velocity=63 time=0
EXTRACT: note_on channel=0 note=59 velocity=63 time=0
EXTRACT: note_on channel=0 note=55 velocity=63 time=0
EXTRACT: note_on channel=0 note=50 velocity=63 time=0
EXTRACT: note_on channel=0 note=45 velocity=63 time=0
EXTRACT: note_on channel=2 note=48 velocity=79 time=0
EXTRACT: note_off channel=0 note=64 velocity=63 time=0.031249995833333332
EXTRACT: note_off channel=0 note=59 velocity=63 time=0
EXTRACT: note_off channel=0 note=55 velocity=63 time=0
EXTRACT: note_off channel=0 note=50 velocity=63 time=0
EXTRACT: note_off channel=0 note=45 velocity=63 time=0
EXTRACT: note_on channel=0 note=64 velocity=63 time=0.11298075416666667
EXTRACT: note_on channel=0 note=59 velocity=63 time=0
EXTRACT: note_on channel=0 note=55 velocity=63 time=0
EXTRACT: note_on channel=0 note=50 velocity=63 time=0
EXTRACT: note_on channel=0 note=45 velocity=63 time=0
EXTRACT: note_off channel=0 note=64 velocity=63 time=0.031249995833333332
EXTRACT: note_off channel=0 note=59 velocity=63 time=0
EXTRACT: note_off channel=0 note=55 velocity=63 time=0
EXTRACT: note_off channel=0 note=50 velocity=63 time=0
EXTRACT: note_off channel=0 note=45 velocity=63 time=0
EXTRACT: note_on channel=0 note=72 velocity=63 time=0.11298075416666667
EXTRACT: note_on channel=0 note=68 velocity=63 time=0
EXTRACT: note_on channel=0 note=65 velocity=63 time=0
EXTRACT: note_on channel=0 note=60 velocity=63 time=0
EXTRACT: note_on channel=0 note=53 velocity=63 time=0
EXTRACT: note_off channel=2 note=48 velocity=79 time=0
EXTRACT: note_on channel=2 note=46 velocity=79 time=0
EXTRACT: note_off channel=0 note=72 velocity=63 time=0.14423075
EXTRACT: note_off channel=0 note=68 velocity=63 time=0
EXTRACT: note_off channel=0 note=65 velocity=63 time=0
EXTRACT: note_off channel=0 note=60 velocity=63 time=0
EXTRACT: note_off channel=0 note=53 velocity=63 time=0
EXTRACT: note_on channel=0 note=72 velocity=63 time=0
EXTRACT: note_on channel=0 note=68 velocity=63 time=0
EXTRACT: note_on channel=0 note=65 velocity=63 time=0
EXTRACT: note_on channel=0 note=60 velocity=63 time=0
EXTRACT: note_on channel=0 note=53 velocity=63 time=0
EXTRACT: note_off channel=2 note=46 velocity=79 time=0
EXTRACT: note_on channel=2 note=48 velocity=54 time=0
EXTRACT: note_off channel=0 note=72 velocity=63 time=0.14423075
EXTRACT: note_off channel=0 note=68 velocity=63 time=0
EXTRACT: note_off channel=0 note=65 velocity=63 time=0
EXTRACT: note_off channel=0 note=60 velocity=63 time=0
EXTRACT: note_off channel=0 note=53 velocity=63 time=0
EXTRACT: note_on channel=0 note=64 velocity=63 time=0
EXTRACT: note_on channel=0 note=59 velocity=63 time=0
EXTRACT: note_on channel=0 note=55 velocity=63 time=0
EXTRACT: note_on channel=0 note=50 velocity=63 time=0
EXTRACT: note_on channel=0 note=45 velocity=63 time=0
EXTRACT: note_off channel=2 note=48 velocity=54 time=0
EXTRACT: note_on channel=2 note=51 velocity=79 time=0
EXTRACT: note_off channel=0 note=64 velocity=63 time=0.031249995833333332
EXTRACT: note_off channel=0 note=59 velocity=63 time=0
EXTRACT: note_off channel=0 note=55 velocity=63 time=0
EXTRACT: note_off channel=0 note=50 velocity=63 time=0
EXTRACT: note_off channel=0 note=45 velocity=63 time=0
EXTRACT: note_on channel=0 note=64 velocity=63 time=0.11298075416666667
EXTRACT: note_on channel=0 note=59 velocity=63 time=0
EXTRACT: note_on channel=0 note=55 velocity=63 time=0
EXTRACT: note_on channel=0 note=50 velocity=63 time=0
EXTRACT: note_on channel=0 note=45 velocity=63 time=0
EXTRACT: note_off channel=0 note=64 velocity=63 time=0.031249995833333332
EXTRACT: note_off channel=0 note=59 velocity=63 time=0
EXTRACT: note_off channel=0 note=55 velocity=63 time=0
EXTRACT: note_off channel=0 note=50 velocity=63 time=0
EXTRACT: note_off channel=0 note=45 velocity=63 time=0
EXTRACT: note_on channel=0 note=72 velocity=63 time=0.11298075416666667
EXTRACT: note_on channel=0 note=68 velocity=63 time=0
EXTRACT: note_on channel=0 note=65 velocity=63 time=0
EXTRACT: note_on channel=0 note=60 velocity=63 time=0
EXTRACT: note_on channel=0 note=53 velocity=63 time=0
EXTRACT: note_off channel=2 note=51 velocity=79 time=0
EXTRACT: note_on channel=2 note=46 velocity=79 time=0
EXTRACT: note_off channel=0 note=72 velocity=63 time=0.14423075
EXTRACT: note_off channel=0 note=68 velocity=63 time=0
EXTRACT: note_off channel=0 note=65 velocity=63 time=0
EXTRACT: note_off channel=0 note=60 velocity=63 time=0
EXTRACT: note_off channel=0 note=53 velocity=63 time=0
EXTRACT: note_on channel=0 note=72 velocity=63 time=0
EXTRACT: note_on channel=0 note=68 velocity=63 time=0
EXTRACT: note_on channel=0 note=65 velocity=63 time=0
EXTRACT: note_on channel=0 note=60 velocity=63 time=0
EXTRACT: note_on channel=0 note=53 velocity=63 time=0
EXTRACT: note_off channel=2 note=46 velocity=79 time=0
EXTRACT: note_on channel=2 note=48 velocity=54 time=0
EXTRACT: note_off channel=0 note=72 velocity=63 time=0.14423075
EXTRACT: note_off channel=0 note=68 velocity=63 time=0
EXTRACT: note_off channel=0 note=65 velocity=63 time=0
EXTRACT: note_off channel=0 note=60 velocity=63 time=0
EXTRACT: note_off channel=0 note=53 velocity=63 time=0
EXTRACT: note_on channel=0 note=64 velocity=63 time=0
EXTRACT: note_on channel=0 note=59 velocity=63 time=0
EXTRACT: note_on channel=0 note=55 velocity=63 time=0
EXTRACT: note_on channel=0 note=50 velocity=63 time=0
EXTRACT: note_on channel=0 note=45 velocity=63 time=0
EXTRACT: note_off channel=2 note=48 velocity=54 time=0
EXTRACT: note_on channel=2 note=51 velocity=79 time=0
EXTRACT: note_off channel=0 note=64 velocity=63 time=0.031249995833333332
EXTRACT: note_off channel=0 note=59 velocity=63 time=0
EXTRACT: note_off channel=0 note=55 velocity=63 time=0
EXTRACT: note_off channel=0 note=50 velocity=63 time=0
EXTRACT: note_off channel=0 note=45 velocity=63 time=0
EXTRACT: note_on channel=0 note=64 velocity=63 time=0.11298075416666667
EXTRACT: note_on channel=0 note=59 velocity=63 time=0
EXTRACT: note_on channel=0 note=55 velocity=63 time=0
EXTRACT: note_on channel=0 note=50 velocity=63 time=0
EXTRACT: note_on channel=0 note=45 velocity=63 time=0
EXTRACT: note_off channel=0 note=64 velocity=63 time=0.031249995833333332
EXTRACT: note_off channel=0 note=59 velocity=63 time=0
EXTRACT: note_off channel=0 note=55 velocity=63 time=0
EXTRACT: note_off channel=0 note=50 velocity=63 time=0
EXTRACT: note_off channel=0 note=45 velocity=63 time=0
EXTRACT: note_on channel=0 note=72 velocity=63 time=0.11298075416666667
EXTRACT: note_on channel=0 note=68 velocity=63 time=0
EXTRACT: note_on channel=0 note=65 velocity=63 time=0
EXTRACT: note_on channel=0 note=60 velocity=63 time=0
EXTRACT: note_on channel=0 note=53 velocity=63 time=0
EXTRACT: note_off channel=2 note=51 velocity=79 time=0
EXTRACT: note_off channel=0 note=72 velocity=63 time=0.14423075
EXTRACT: note_off channel=0 note=68 velocity=63 time=0
EXTRACT: note_off channel=0 note=65 velocity=63 time=0
EXTRACT: note_off channel=0 note=60 velocity=63 time=0
EXTRACT: note_off channel=0 note=53 velocity=63 time=0
EXTRACT: note_on channel=0 note=72 velocity=63 time=0
EXTRACT: note_on channel=0 note=68 velocity=63 time=0
EXTRACT: note_on channel=0 note=65 velocity=63 time=0
EXTRACT: note_on channel=0 note=60 velocity=63 time=0
EXTRACT: note_on channel=0 note=53 velocity=63 time=0
EXTRACT: note_on channel=2 note=45 velocity=79 time=0
EXTRACT: note_off channel=2 note=45 velocity=79 time=0.031249995833333332
EXTRACT: note_off channel=0 note=72 velocity=63 time=0.11298075416666667
EXTRACT: note_off channel=0 note=68 velocity=63 time=0
EXTRACT: note_off channel=0 note=65 velocity=63 time=0
EXTRACT: note_off channel=0 note=60 velocity=63 time=0
EXTRACT: note_off channel=0 note=53 velocity=63 time=0
EXTRACT: note_on channel=0 note=64 velocity=63 time=0
EXTRACT: note_on channel=0 note=59 velocity=63 time=0
EXTRACT: note_on channel=0 note=55 velocity=63 time=0
EXTRACT: note_on channel=0 note=50 velocity=63 time=0
EXTRACT: note_on channel=0 note=45 velocity=63 time=0
EXTRACT: note_on channel=2 note=46 velocity=79 time=0
EXTRACT: note_off channel=0 note=64 velocity=63 time=0.031249995833333332
EXTRACT: note_off channel=0 note=59 velocity=63 time=0
EXTRACT: note_off channel=0 note=55 velocity=63 time=0
EXTRACT: note_off channel=0 note=50 velocity=63 time=0
EXTRACT: note_off channel=0 note=45 velocity=63 time=0
EXTRACT: note_on channel=0 note=64 velocity=63 time=0.11298075416666667
EXTRACT: note_on channel=0 note=59 velocity=63 time=0
EXTRACT: note_on channel=0 note=55 velocity=63 time=0
EXTRACT: note_on channel=0 note=50 velocity=63 time=0
EXTRACT: note_on channel=0 note=45 velocity=63 time=0
EXTRACT: note_off channel=0 note=64 velocity=63 time=0.031249995833333332
EXTRACT: note_off channel=0 note=59 velocity=63 time=0
EXTRACT: note_off channel=0 note=55 velocity=63 time=0
EXTRACT: note_off channel=0 note=50 velocity=63 time=0
EXTRACT: note_off channel=0 note=45 velocity=63 time=0
EXTRACT: note_on channel=0 note=72 velocity=63 time=0.11298075416666667
EXTRACT: note_on channel=0 note=68 velocity=63 time=0
EXTRACT: note_on channel=0 note=65 velocity=63 time=0
EXTRACT: note_on channel=0 note=60 velocity=63 time=0
EXTRACT: note_on channel=0 note=53 velocity=63 time=0
EXTRACT: note_off channel=2 note=46 velocity=79 time=0
EXTRACT: note_on channel=2 note=48 velocity=79 time=0
EXTRACT: note_off channel=0 note=72 velocity=63 time=0.14423075
EXTRACT: note_off channel=0 note=68 velocity=63 time=0
EXTRACT: note_off channel=0 note=65 velocity=63 time=0
EXTRACT: note_off channel=0 note=60 velocity=63 time=0
EXTRACT: note_off channel=0 note=53 velocity=63 time=0
EXTRACT: note_on channel=0 note=72 velocity=63 time=0
EXTRACT: note_on channel=0 note=68 velocity=63 time=0
EXTRACT: note_on channel=0 note=65 velocity=63 time=0
EXTRACT: note_on channel=0 note=60 velocity=63 time=0
EXTRACT: note_on channel=0 note=53 velocity=63 time=0
EXTRACT: note_off channel=0 note=72 velocity=63 time=0.14423075
EXTRACT: note_off channel=0 note=68 velocity=63 time=0
EXTRACT: note_off channel=0 note=65 velocity=63 time=0
EXTRACT: note_off channel=0 note=60 velocity=63 time=0
EXTRACT: note_off channel=0 note=53 velocity=63 time=0
EXTRACT: note_on channel=0 note=64 velocity=63 time=0
EXTRACT: note_on channel=0 note=59 velocity=63 time=0
EXTRACT: note_on channel=0 note=55 velocity=63 time=0
EXTRACT: note_on channel=0 note=50 velocity=63 time=0
EXTRACT: note_on channel=0 note=45 velocity=63 time=0
EXTRACT: note_off channel=2 note=48 velocity=79 time=0
EXTRACT: note_on channel=2 note=51 velocity=79 time=0
EXTRACT: note_off channel=0 note=64 velocity=63 time=0.031249995833333332
EXTRACT: note_off channel=0 note=59 velocity=63 time=0
EXTRACT: note_off channel=0 note=55 velocity=63 time=0
EXTRACT: note_off channel=0 note=50 velocity=63 time=0
EXTRACT: note_off channel=0 note=45 velocity=63 time=0
EXTRACT: note_on channel=0 note=64 velocity=63 time=0.11298075416666667
EXTRACT: note_on channel=0 note=59 velocity=63 time=0
EXTRACT: note_on channel=0 note=55 velocity=63 time=0
EXTRACT: note_on channel=0 note=50 velocity=63 time=0
EXTRACT: note_on channel=0 note=45 velocity=63 time=0
EXTRACT: note_off channel=0 note=64 velocity=63 time=0.031249995833333332
EXTRACT: note_off channel=0 note=59 velocity=63 time=0
EXTRACT: note_off channel=0 note=55 velocity=63 time=0
EXTRACT: note_off channel=0 note=50 velocity=63 time=0
EXTRACT: note_off channel=0 note=45 velocity=63 time=0
EXTRACT: note_on channel=0 note=72 velocity=63 time=0.11298075416666667
EXTRACT: note_on channel=0 note=68 velocity=63 time=0
EXTRACT: note_on channel=0 note=65 velocity=63 time=0
EXTRACT: note_on channel=0 note=60 velocity=63 time=0
EXTRACT: note_on channel=0 note=53 velocity=63 time=0
EXTRACT: note_off channel=2 note=51 velocity=79 time=0
EXTRACT: note_on channel=2 note=53 velocity=79 time=0
EXTRACT: note_off channel=0 note=72 velocity=63 time=0.14423075
EXTRACT: note_off channel=0 note=68 velocity=63 time=0
EXTRACT: note_off channel=0 note=65 velocity=63 time=0
EXTRACT: note_off channel=0 note=60 velocity=63 time=0
EXTRACT: note_off channel=0 note=53 velocity=63 time=0
EXTRACT: note_on channel=0 note=72 velocity=63 time=0
EXTRACT: note_on channel=0 note=68 velocity=63 time=0
EXTRACT: note_on channel=0 note=65 velocity=63 time=0
EXTRACT: note_on channel=0 note=60 velocity=63 time=0
EXTRACT: note_on channel=0 note=53 velocity=63 time=0
EXTRACT: note_off channel=0 note=72 velocity=63 time=0.14423075
EXTRACT: note_off channel=0 note=68 velocity=63 time=0
EXTRACT: note_off channel=0 note=65 velocity=63 time=0
EXTRACT: note_off channel=0 note=60 velocity=63 time=0
EXTRACT: note_off channel=0 note=53 velocity=63 time=0
EXTRACT: note_on channel=0 note=64 velocity=63 time=0
EXTRACT: note_on channel=0 note=59 velocity=63 time=0
EXTRACT: note_on channel=0 note=55 velocity=63 time=0
EXTRACT: note_on channel=0 note=50 velocity=63 time=0
EXTRACT: note_on channel=0 note=45 velocity=63 time=0
EXTRACT: note_off channel=2 note=53 velocity=79 time=0
EXTRACT: note_on channel=2 note=56 velocity=79 time=0
EXTRACT: note_off channel=0 note=64 velocity=63 time=0.031249995833333332
EXTRACT: note_off channel=0 note=59 velocity=63 time=0
EXTRACT: note_off channel=0 note=55 velocity=63 time=0
EXTRACT: note_off channel=0 note=50 velocity=63 time=0
EXTRACT: note_off channel=0 note=45 velocity=63 time=0
EXTRACT: note_on channel=0 note=64 velocity=63 time=0.11298075416666667
EXTRACT: note_on channel=0 note=59 velocity=63 time=0
EXTRACT: note_on channel=0 note=55 velocity=63 time=0
EXTRACT: note_on channel=0 note=50 velocity=63 time=0
EXTRACT: note_on channel=0 note=45 velocity=63 time=0
EXTRACT: note_off channel=0 note=64 velocity=63 time=0.031249995833333332
EXTRACT: note_off channel=0 note=59 velocity=63 time=0
EXTRACT: note_off channel=0 note=55 velocity=63 time=0
EXTRACT: note_off channel=0 note=50 velocity=63 time=0
EXTRACT: note_off channel=0 note=45 velocity=63 time=0
EXTRACT: note_on channel=0 note=70 velocity=63 time=0.11298075416666667
EXTRACT: note_on channel=0 note=65 velocity=63 time=0
EXTRACT: note_on channel=0 note=62 velocity=63 time=0
EXTRACT: note_on channel=0 note=58 velocity=63 time=0
EXTRACT: note_on channel=0 note=53 velocity=63 time=0
EXTRACT: note_on channel=0 note=46 velocity=63 time=0
EXTRACT: note_off channel=2 note=56 velocity=79 time=0
EXTRACT: note_on channel=2 note=53 velocity=79 time=0
EXTRACT: note_off channel=0 note=70 velocity=63 time=0.14423075
EXTRACT: note_off channel=0 note=65 velocity=63 time=0
EXTRACT: note_off channel=0 note=62 velocity=63 time=0
EXTRACT: note_off channel=0 note=58 velocity=63 time=0
EXTRACT: note_off channel=0 note=53 velocity=63 time=0
EXTRACT: note_off channel=0 note=46 velocity=63 time=0
EXTRACT: note_on channel=0 note=70 velocity=63 time=0
EXTRACT: note_on channel=0 note=65 velocity=63 time=0
EXTRACT: note_on channel=0 note=62 velocity=63 time=0
EXTRACT: note_on channel=0 note=58 velocity=63 time=0
EXTRACT: note_on channel=0 note=53 velocity=63 time=0
EXTRACT: note_on channel=0 note=46 velocity=63 time=0
EXTRACT: note_off channel=2 note=53 velocity=79 time=0
EXTRACT: note_off channel=0 note=70 velocity=63 time=0.14423075
EXTRACT: note_off channel=0 note=65 velocity=63 time=0
EXTRACT: note_off channel=0 note=62 velocity=63 time=0
EXTRACT: note_off channel=0 note=58 velocity=63 time=0
EXTRACT: note_off channel=0 note=53 velocity=63 time=0
EXTRACT: note_off channel=0 note=46 velocity=63 time=0
EXTRACT: note_on channel=0 note=64 velocity=63 time=0
EXTRACT: note_on channel=0 note=59 velocity=63 time=0
EXTRACT: note_on channel=0 note=55 velocity=63 time=0
EXTRACT: note_on channel=0 note=50 velocity=63 time=0
EXTRACT: note_on channel=0 note=45 velocity=63 time=0
EXTRACT: note_on channel=0 note=40 velocity=63 time=0
EXTRACT: note_on channel=2 note=58 velocity=79 time=0
EXTRACT: note_off channel=0 note=64 velocity=63 time=0.031249995833333332
EXTRACT: note_off channel=0 note=59 velocity=63 time=0
EXTRACT: note_off channel=0 note=55 velocity=63 time=0
EXTRACT: note_off channel=0 note=50 velocity=63 time=0
EXTRACT: note_off channel=0 note=45 velocity=63 time=0
EXTRACT: note_off channel=0 note=40 velocity=63 time=0
EXTRACT: note_on channel=0 note=64 velocity=63 time=0.11298075416666667
EXTRACT: note_on channel=0 note=59 velocity=63 time=0
EXTRACT: note_on channel=0 note=55 velocity=63 time=0
EXTRACT: note_on channel=0 note=50 velocity=63 time=0
EXTRACT: note_on channel=0 note=45 velocity=63 time=0
EXTRACT: note_on channel=0 note=40 velocity=63 time=0
EXTRACT: note_off channel=2 note=58 velocity=79 time=0
EXTRACT: note_off channel=0 note=64 velocity=63 time=0.031249995833333332
EXTRACT: note_off channel=0 note=59 velocity=63 time=0
EXTRACT: note_off channel=0 note=55 velocity=63 time=0
EXTRACT: note_off channel=0 note=50 velocity=63 time=0
EXTRACT: note_off channel=0 note=45 velocity=63 time=0
EXTRACT: note_off channel=0 note=40 velocity=63 time=0
EXTRACT: note_on channel=0 note=70 velocity=63 time=0.11298075416666667
EXTRACT: note_on channel=0 note=65 velocity=63 time=0
EXTRACT: note_on channel=0 note=62 velocity=63 time=0
EXTRACT: note_on channel=0 note=58 velocity=63 time=0
EXTRACT: note_on channel=0 note=53 velocity=63 time=0
EXTRACT: note_on channel=0 note=46 velocity=63 time=0
EXTRACT: note_on channel=2 note=70 velocity=79 time=0
EXTRACT: note_on channel=2 note=65 velocity=79 time=0
EXTRACT: note_on channel=2 note=62 velocity=79 time=0
EXTRACT: note_off channel=0 note=70 velocity=63 time=0.14423075
EXTRACT: note_off channel=0 note=65 velocity=63 time=0
EXTRACT: note_off channel=0 note=62 velocity=63 time=0
EXTRACT: note_off channel=0 note=58 velocity=63 time=0
EXTRACT: note_off channel=0 note=53 velocity=63 time=0
EXTRACT: note_off channel=0 note=46 velocity=63 time=0
EXTRACT: note_on channel=0 note=70 velocity=63 time=0
EXTRACT: note_on channel=0 note=65 velocity=63 time=0
EXTRACT: note_on channel=0 note=62 velocity=63 time=0
EXTRACT: note_on channel=0 note=58 velocity=63 time=0
EXTRACT: note_on channel=0 note=53 velocity=63 time=0
EXTRACT: note_on channel=0 note=46 velocity=63 time=0
EXTRACT: note_off channel=2 note=70 velocity=79 time=0
EXTRACT: note_off channel=2 note=65 velocity=79 time=0
EXTRACT: note_off channel=2 note=62 velocity=79 time=0
EXTRACT: note_off channel=0 note=70 velocity=63 time=0.14423075
EXTRACT: note_off channel=0 note=65 velocity=63 time=0
EXTRACT: note_off channel=0 note=62 velocity=63 time=0
EXTRACT: note_off channel=0 note=58 velocity=63 time=0
EXTRACT: note_off channel=0 note=53 velocity=63 time=0
EXTRACT: note_off channel=0 note=46 velocity=63 time=0
EXTRACT: note_on channel=0 note=64 velocity=63 time=0
EXTRACT: note_on channel=0 note=59 velocity=63 time=0
EXTRACT: note_on channel=0 note=55 velocity=63 time=0
EXTRACT: note_on channel=0 note=50 velocity=63 time=0
EXTRACT: note_on channel=0 note=45 velocity=63 time=0
EXTRACT: note_on channel=0 note=40 velocity=63 time=0
EXTRACT: note_off channel=0 note=64 velocity=63 time=0.031249995833333332
EXTRACT: note_off channel=0 note=59 velocity=63 time=0
EXTRACT: note_off channel=0 note=55 velocity=63 time=0
EXTRACT: note_off channel=0 note=50 velocity=63 time=0
EXTRACT: note_off channel=0 note=45 velocity=63 time=0
EXTRACT: note_off channel=0 note=40 velocity=63 time=0
EXTRACT: note_on channel=0 note=64 velocity=63 time=0.11298075416666667
EXTRACT: note_on channel=0 note=59 velocity=63 time=0
EXTRACT: note_on channel=0 note=55 velocity=63 time=0
EXTRACT: note_on channel=0 note=50 velocity=63 time=0
EXTRACT: note_on channel=0 note=45 velocity=63 time=0
EXTRACT: note_on channel=0 note=40 velocity=63 time=0
EXTRACT: note_off channel=0 note=64 velocity=63 time=0.031249995833333332
EXTRACT: note_off channel=0 note=59 velocity=63 time=0
EXTRACT: note_off channel=0 note=55 velocity=63 time=0
EXTRACT: note_off channel=0 note=50 velocity=63 time=0
EXTRACT: note_off channel=0 note=45 velocity=63 time=0
EXTRACT: note_off channel=0 note=40 velocity=63 time=0
EXTRACT: note_on channel=0 note=70 velocity=63 time=0.11298075416666667
EXTRACT: note_on channel=0 note=65 velocity=63 time=0
EXTRACT: note_on channel=0 note=62 velocity=63 time=0
EXTRACT: note_on channel=0 note=58 velocity=63 time=0
EXTRACT: note_on channel=0 note=53 velocity=63 time=0
EXTRACT: note_on channel=0 note=46 velocity=63 time=0
EXTRACT: note_off channel=0 note=70 velocity=63 time=0.14423075
EXTRACT: note_off channel=0 note=65 velocity=63 time=0
EXTRACT: note_off channel=0 note=62 velocity=63 time=0
EXTRACT: note_off channel=0 note=58 velocity=63 time=0
EXTRACT: note_off channel=0 note=53 velocity=63 time=0
EXTRACT: note_off channel=0 note=46 velocity=63 time=0
EXTRACT: note_on channel=0 note=70 velocity=63 time=0
EXTRACT: note_on channel=0 note=65 velocity=63 time=0
EXTRACT: note_on channel=0 note=62 velocity=63 time=0
EXTRACT: note_on channel=0 note=58 velocity=63 time=0
EXTRACT: note_on channel=0 note=53 velocity=63 time=0
EXTRACT: note_on channel=0 note=46 velocity=63 time=0
EXTRACT: note_on channel=2 note=56 velocity=79 time=0
EXTRACT: note_off channel=0 note=70 velocity=63 time=0.14423075
EXTRACT: note_off channel=0 note=65 velocity=63 time=0
EXTRACT: note_off channel=0 note=62 velocity=63 time=0
EXTRACT: note_off channel=0 note=58 velocity=63 time=0
EXTRACT: note_off channel=0 note=53 velocity=63 time=0
EXTRACT: note_off channel=0 note=46 velocity=63 time=0
EXTRACT: note_on channel=0 note=64 velocity=63 time=0
EXTRACT: note_on channel=0 note=59 velocity=63 time=0
EXTRACT: note_on channel=0 note=55 velocity=63 time=0
EXTRACT: note_on channel=0 note=50 velocity=63 time=0
EXTRACT: note_on channel=0 note=45 velocity=63 time=0
EXTRACT: note_on channel=0 note=40 velocity=63 time=0
EXTRACT: note_off channel=2 note=56 velocity=79 time=0
EXTRACT: note_off channel=0 note=64 velocity=63 time=0.031249995833333332
EXTRACT: note_off channel=0 note=59 velocity=63 time=0
EXTRACT: note_off channel=0 note=55 velocity=63 time=0
EXTRACT: note_off channel=0 note=50 velocity=63 time=0
EXTRACT: note_off channel=0 note=45 velocity=63 time=0
EXTRACT: note_off channel=0 note=40 velocity=63 time=0
EXTRACT: note_on channel=0 note=64 velocity=63 time=0.11298075416666667
EXTRACT: note_on channel=0 note=59 velocity=63 time=0
EXTRACT: note_on channel=0 note=55 velocity=63 time=0
EXTRACT: note_on channel=0 note=50 velocity=63 time=0
EXTRACT: note_on channel=0 note=45 velocity=63 time=0
EXTRACT: note_on channel=0 note=40 velocity=63 time=0
EXTRACT: note_on channel=2 note=50 velocity=79 time=0
EXTRACT: note_off channel=0 note=64 velocity=63 time=0.031249995833333332
EXTRACT: note_off channel=0 note=59 velocity=63 time=0
EXTRACT: note_off channel=0 note=55 velocity=63 time=0
EXTRACT: note_off channel=0 note=50 velocity=63 time=0
EXTRACT: note_off channel=0 note=45 velocity=63 time=0
EXTRACT: note_off channel=0 note=40 velocity=63 time=0
EXTRACT: note_on channel=0 note=70 velocity=63 time=0.11298075416666667
EXTRACT: note_on channel=0 note=65 velocity=63 time=0
EXTRACT: note_on channel=0 note=62 velocity=63 time=0
EXTRACT: note_on channel=0 note=58 velocity=63 time=0
EXTRACT: note_on channel=0 note=53 velocity=63 time=0
EXTRACT: note_on channel=0 note=46 velocity=63 time=0
EXTRACT: note_off channel=2 note=50 velocity=79 time=0
EXTRACT: note_on channel=2 note=56 velocity=79 time=0
EXTRACT: note_off channel=0 note=70 velocity=63 time=0.14423075
EXTRACT: note_off channel=0 note=65 velocity=63 time=0
EXTRACT: note_off channel=0 note=62 velocity=63 time=0
EXTRACT: note_off channel=0 note=58 velocity=63 time=0
EXTRACT: note_off channel=0 note=53 velocity=63 time=0
EXTRACT: note_off channel=0 note=46 velocity=63 time=0
EXTRACT: note_on channel=0 note=70 velocity=63 time=0
EXTRACT: note_on channel=0 note=65 velocity=63 time=0
EXTRACT: note_on channel=0 note=62 velocity=63 time=0
EXTRACT: note_on channel=0 note=58 velocity=63 time=0
EXTRACT: note_on channel=0 note=53 velocity=63 time=0
EXTRACT: note_on channel=0 note=46 velocity=63 time=0
EXTRACT: note_off channel=0 note=70 velocity=63 time=0.14423075
EXTRACT: note_off channel=0 note=65 velocity=63 time=0
EXTRACT: note_off channel=0 note=62 velocity=63 time=0
EXTRACT: note_off channel=0 note=58 velocity=63 time=0
EXTRACT: note_off channel=0 note=53 velocity=63 time=0
EXTRACT: note_off channel=0 note=46 velocity=63 time=0
EXTRACT: note_on channel=0 note=64 velocity=63 time=0
EXTRACT: note_on channel=0 note=59 velocity=63 time=0
EXTRACT: note_on channel=0 note=55 velocity=63 time=0
EXTRACT: note_on channel=0 note=50 velocity=63 time=0
EXTRACT: note_on channel=0 note=45 velocity=63 time=0
EXTRACT: note_on channel=0 note=40 velocity=63 time=0
EXTRACT: note_off channel=2 note=56 velocity=79 time=0
EXTRACT: note_on channel=2 note=70 velocity=79 time=0
EXTRACT: note_on channel=2 note=65 velocity=79 time=0
EXTRACT: note_on channel=2 note=62 velocity=79 time=0
EXTRACT: note_off channel=0 note=64 velocity=63 time=0.031249995833333332
EXTRACT: note_off channel=0 note=59 velocity=63 time=0
EXTRACT: note_off channel=0 note=55 velocity=63 time=0
EXTRACT: note_off channel=0 note=50 velocity=63 time=0
EXTRACT: note_off channel=0 note=45 velocity=63 time=0
EXTRACT: note_off channel=0 note=40 velocity=63 time=0
EXTRACT: note_on channel=0 note=64 velocity=63 time=0.11298075416666667
EXTRACT: note_on channel=0 note=59 velocity=63 time=0
EXTRACT: note_on channel=0 note=55 velocity=63 time=0
EXTRACT: note_on channel=0 note=50 velocity=63 time=0
EXTRACT: note_on channel=0 note=45 velocity=63 time=0
EXTRACT: note_on channel=0 note=40 velocity=63 time=0
EXTRACT: note_off channel=2 note=70 velocity=79 time=0
EXTRACT: note_off channel=2 note=65 velocity=79 time=0
EXTRACT: note_off channel=2 note=62 velocity=79 time=0
EXTRACT: note_off channel=0 note=64 velocity=63 time=0.031249995833333332
EXTRACT: note_off channel=0 note=59 velocity=63 time=0
EXTRACT: note_off channel=0 note=55 velocity=63 time=0
EXTRACT: note_off channel=0 note=50 velocity=63 time=0
EXTRACT: note_off channel=0 note=45 velocity=63 time=0
EXTRACT: note_off channel=0 note=40 velocity=63 time=0
EXTRACT: note_on channel=0 note=70 velocity=63 time=0.11298075416666667
EXTRACT: note_on channel=0 note=65 velocity=63 time=0
EXTRACT: note_on channel=0 note=62 velocity=63 time=0
EXTRACT: note_on channel=0 note=58 velocity=63 time=0
EXTRACT: note_on channel=0 note=53 velocity=63 time=0
EXTRACT: note_on channel=0 note=46 velocity=63 time=0
EXTRACT: note_off channel=0 note=70 velocity=63 time=0.14423075
EXTRACT: note_off channel=0 note=65 velocity=63 time=0
EXTRACT: note_off channel=0 note=62 velocity=63 time=0
EXTRACT: note_off channel=0 note=58 velocity=63 time=0
EXTRACT: note_off channel=0 note=53 velocity=63 time=0
EXTRACT: note_off channel=0 note=46 velocity=63 time=0
EXTRACT: note_on channel=0 note=70 velocity=63 time=0
EXTRACT: note_on channel=0 note=65 velocity=63 time=0
EXTRACT: note_on channel=0 note=62 velocity=63 time=0
EXTRACT: note_on channel=0 note=58 velocity=63 time=0
EXTRACT: note_on channel=0 note=53 velocity=63 time=0
EXTRACT: note_on channel=0 note=46 velocity=63 time=0
EXTRACT: note_off channel=0 note=70 velocity=63 time=0.14423075
EXTRACT: note_off channel=0 note=65 velocity=63 time=0
EXTRACT: note_off channel=0 note=62 velocity=63 time=0
EXTRACT: note_off channel=0 note=58 velocity=63 time=0
EXTRACT: note_off channel=0 note=53 velocity=63 time=0
EXTRACT: note_off channel=0 note=46 velocity=63 time=0
EXTRACT: note_on channel=0 note=64 velocity=63 time=0
EXTRACT: note_on channel=0 note=59 velocity=63 time=0
EXTRACT: note_on channel=0 note=55 velocity=63 time=0
EXTRACT: note_on channel=0 note=50 velocity=63 time=0
EXTRACT: note_on channel=0 note=45 velocity=63 time=0
EXTRACT: note_on channel=0 note=40 velocity=63 time=0
EXTRACT: note_on channel=2 note=58 velocity=79 time=0
EXTRACT: note_off channel=0 note=64 velocity=63 time=0.031249995833333332
EXTRACT: note_off channel=0 note=59 velocity=63 time=0
EXTRACT: note_off channel=0 note=55 velocity=63 time=0
EXTRACT: note_off channel=0 note=50 velocity=63 time=0
EXTRACT: note_off channel=0 note=45 velocity=63 time=0
EXTRACT: note_off channel=0 note=40 velocity=63 time=0
EXTRACT: note_on channel=0 note=64 velocity=63 time=0.11298075416666667
EXTRACT: note_on channel=0 note=59 velocity=63 time=0
EXTRACT: note_on channel=0 note=55 velocity=63 time=0
EXTRACT: note_on channel=0 note=50 velocity=63 time=0
EXTRACT: note_on channel=0 note=45 velocity=63 time=0
EXTRACT: note_on channel=0 note=40 velocity=63 time=0
EXTRACT: note_off channel=0 note=64 velocity=63 time=0.031249995833333332
EXTRACT: note_off channel=0 note=59 velocity=63 time=0
EXTRACT: note_off channel=0 note=55 velocity=63 time=0
EXTRACT: note_off channel=0 note=50 velocity=63 time=0
EXTRACT: note_off channel=0 note=45 velocity=63 time=0
EXTRACT: note_off channel=0 note=40 velocity=63 time=0
EXTRACT: note_on channel=0 note=70 velocity=63 time=0.11298075416666667
EXTRACT: note_on channel=0 note=65 velocity=63 time=0
EXTRACT: note_on channel=0 note=62 velocity=63 time=0
EXTRACT: note_on channel=0 note=58 velocity=63 time=0
EXTRACT: note_on channel=0 note=53 velocity=63 time=0
EXTRACT: note_on channel=0 note=46 velocity=63 time=0
EXTRACT: note_off channel=2 note=58 velocity=79 time=0
EXTRACT: note_off channel=0 note=70 velocity=63 time=0.14423075
EXTRACT: note_off channel=0 note=65 velocity=63 time=0
EXTRACT: note_off channel=0 note=62 velocity=63 time=0
EXTRACT: note_off channel=0 note=58 velocity=63 time=0
EXTRACT: note_off channel=0 note=53 velocity=63 time=0
EXTRACT: note_off channel=0 note=46 velocity=63 time=0
EXTRACT: note_on channel=0 note=70 velocity=63 time=0
EXTRACT: note_on channel=0 note=65 velocity=63 time=0
EXTRACT: note_on channel=0 note=62 velocity=63 time=0
EXTRACT: note_on channel=0 note=58 velocity=63 time=0
EXTRACT: note_on channel=0 note=53 velocity=63 time=0
EXTRACT: note_on channel=0 note=46 velocity=63 time=0
EXTRACT: note_off channel=0 note=70 velocity=63 time=0.14423075
EXTRACT: note_off channel=0 note=65 velocity=63 time=0
EXTRACT: note_off channel=0 note=62 velocity=63 time=0
EXTRACT: note_off channel=0 note=58 velocity=63 time=0
EXTRACT: note_off channel=0 note=53 velocity=63 time=0
EXTRACT: note_off channel=0 note=46 velocity=63 time=0
EXTRACT: note_on channel=0 note=64 velocity=63 time=0
EXTRACT: note_on channel=0 note=59 velocity=63 time=0
EXTRACT: note_on channel=0 note=55 velocity=63 time=0
EXTRACT: note_on channel=0 note=50 velocity=63 time=0
EXTRACT: note_on channel=0 note=45 velocity=63 time=0
EXTRACT: note_on channel=0 note=40 velocity=63 time=0
EXTRACT: note_off channel=0 note=64 velocity=63 time=0.031249995833333332
EXTRACT: note_off channel=0 note=59 velocity=63 time=0
EXTRACT: note_off channel=0 note=55 velocity=63 time=0
EXTRACT: note_off channel=0 note=50 velocity=63 time=0
EXTRACT: note_off channel=0 note=45 velocity=63 time=0
EXTRACT: note_off channel=0 note=40 velocity=63 time=0
EXTRACT: note_on channel=0 note=64 velocity=63 time=0.11298075416666667
EXTRACT: note_on channel=0 note=59 velocity=63 time=0
EXTRACT: note_on channel=0 note=55 velocity=63 time=0
EXTRACT: note_on channel=0 note=50 velocity=63 time=0
EXTRACT: note_on channel=0 note=45 velocity=63 time=0
EXTRACT: note_on channel=0 note=40 velocity=63 time=0
EXTRACT: note_on channel=2 note=56 velocity=79 time=0
EXTRACT: note_off channel=0 note=64 velocity=63 time=0.031249995833333332
EXTRACT: note_off channel=0 note=59 velocity=63 time=0
EXTRACT: note_off channel=0 note=55 velocity=63 time=0
EXTRACT: note_off channel=0 note=50 velocity=63 time=0
EXTRACT: note_off channel=0 note=45 velocity=63 time=0
EXTRACT: note_off channel=0 note=40 velocity=63 time=0
EXTRACT: note_on channel=0 note=70 velocity=63 time=0.11298075416666667
EXTRACT: note_on channel=0 note=65 velocity=63 time=0
EXTRACT: note_on channel=0 note=62 velocity=63 time=0
EXTRACT: note_on channel=0 note=58 velocity=63 time=0
EXTRACT: note_on channel=0 note=53 velocity=63 time=0
EXTRACT: note_on channel=0 note=46 velocity=63 time=0
EXTRACT: note_off channel=2 note=56 velocity=79 time=0
EXTRACT: note_off channel=0 note=70 velocity=63 time=0.14423075
EXTRACT: note_off channel=0 note=65 velocity=63 time=0
EXTRACT: note_off channel=0 note=62 velocity=63 time=0
EXTRACT: note_off channel=0 note=58 velocity=63 time=0
EXTRACT: note_off channel=0 note=53 velocity=63 time=0
EXTRACT: note_off channel=0 note=46 velocity=63 time=0
EXTRACT: note_on channel=0 note=70 velocity=63 time=0
EXTRACT: note_on channel=0 note=65 velocity=63 time=0
EXTRACT: note_on channel=0 note=62 velocity=63 time=0
EXTRACT: note_on channel=0 note=58 velocity=63 time=0
EXTRACT: note_on channel=0 note=53 velocity=63 time=0
EXTRACT: note_on channel=0 note=46 velocity=63 time=0
EXTRACT: note_on channel=2 note=56 velocity=79 time=0
EXTRACT: note_off channel=0 note=70 velocity=63 time=0.14423075
EXTRACT: note_off channel=0 note=65 velocity=63 time=0
EXTRACT: note_off channel=0 note=62 velocity=63 time=0
EXTRACT: note_off channel=0 note=58 velocity=63 time=0
EXTRACT: note_off channel=0 note=53 velocity=63 time=0
EXTRACT: note_off channel=0 note=46 velocity=63 time=0
EXTRACT: note_on channel=0 note=64 velocity=63 time=0
EXTRACT: note_on channel=0 note=59 velocity=63 time=0
EXTRACT: note_on channel=0 note=55 velocity=63 time=0
EXTRACT: note_on channel=0 note=50 velocity=63 time=0
EXTRACT: note_on channel=0 note=45 velocity=63 time=0
EXTRACT: note_on channel=0 note=40 velocity=63 time=0
EXTRACT: note_off channel=2 note=56 velocity=79 time=0
EXTRACT: note_off channel=0 note=64 velocity=63 time=0.031249995833333332
EXTRACT: note_off channel=0 note=59 velocity=63 time=0
EXTRACT: note_off channel=0 note=55 velocity=63 time=0
EXTRACT: note_off channel=0 note=50 velocity=63 time=0
EXTRACT: note_off channel=0 note=45 velocity=63 time=0
EXTRACT: note_off channel=0 note=40 velocity=63 time=0
EXTRACT: note_on channel=0 note=64 velocity=63 time=0.11298075416666667
EXTRACT: note_on channel=0 note=59 velocity=63 time=0
EXTRACT: note_on channel=0 note=55 velocity=63 time=0
EXTRACT: note_on channel=0 note=50 velocity=63 time=0
EXTRACT: note_on channel=0 note=45 velocity=63 time=0
EXTRACT: note_on channel=0 note=40 velocity=63 time=0
EXTRACT: note_on channel=2 note=50 velocity=79 time=0
EXTRACT: note_off channel=0 note=64 velocity=63 time=0.031249995833333332
EXTRACT: note_off channel=0 note=59 velocity=63 time=0
EXTRACT: note_off channel=0 note=55 velocity=63 time=0
EXTRACT: note_off channel=0 note=50 velocity=63 time=0
EXTRACT: note_off channel=0 note=45 velocity=63 time=0
EXTRACT: note_off channel=0 note=40 velocity=63 time=0
EXTRACT: note_on channel=0 note=70 velocity=63 time=0.11298075416666667
EXTRACT: note_on channel=0 note=65 velocity=63 time=0
EXTRACT: note_on channel=0 note=62 velocity=63 time=0
EXTRACT: note_on channel=0 note=58 velocity=63 time=0
EXTRACT: note_on channel=0 note=53 velocity=63 time=0
EXTRACT: note_on channel=0 note=46 velocity=63 time=0
EXTRACT: note_off channel=2 note=50 velocity=79 time=0
EXTRACT: note_on channel=2 note=56 velocity=79 time=0
EXTRACT: note_off channel=0 note=70 velocity=63 time=0.14423075
EXTRACT: note_off channel=0 note=65 velocity=63 time=0
EXTRACT: note_off channel=0 note=62 velocity=63 time=0
EXTRACT: note_off channel=0 note=58 velocity=63 time=0
EXTRACT: note_off channel=0 note=53 velocity=63 time=0
EXTRACT: note_off channel=0 note=46 velocity=63 time=0
EXTRACT: note_on channel=0 note=70 velocity=63 time=0
EXTRACT: note_on channel=0 note=65 velocity=63 time=0
EXTRACT: note_on channel=0 note=62 velocity=63 time=0
EXTRACT: note_on channel=0 note=58 velocity=63 time=0
EXTRACT: note_on channel=0 note=53 velocity=63 time=0
EXTRACT: note_on channel=0 note=46 velocity=63 time=0
EXTRACT: note_off channel=0 note=70 velocity=63 time=0.14423075
EXTRACT: note_off channel=0 note=65 velocity=63 time=0
EXTRACT: note_off channel=0 note=62 velocity=63 time=0
EXTRACT: note_off channel=0 note=58 velocity=63 time=0
EXTRACT: note_off channel=0 note=53 velocity=63 time=0
EXTRACT: note_off channel=0 note=46 velocity=63 time=0
EXTRACT: note_on channel=0 note=64 velocity=63 time=0
EXTRACT: note_on channel=0 note=59 velocity=63 time=0
EXTRACT: note_on channel=0 note=55 velocity=63 time=0
EXTRACT: note_on channel=0 note=50 velocity=63 time=0
EXTRACT: note_on channel=0 note=45 velocity=63 time=0
EXTRACT: note_on channel=0 note=40 velocity=63 time=0
EXTRACT: note_off channel=2 note=56 velocity=79 time=0
EXTRACT: note_on channel=2 note=58 velocity=79 time=0
EXTRACT: note_off channel=0 note=64 velocity=63 time=0.031249995833333332
EXTRACT: note_off channel=0 note=59 velocity=63 time=0
EXTRACT: note_off channel=0 note=55 velocity=63 time=0
EXTRACT: note_off channel=0 note=50 velocity=63 time=0
EXTRACT: note_off channel=0 note=45 velocity=63 time=0
EXTRACT: note_off channel=0 note=40 velocity=63 time=0
EXTRACT: note_on channel=0 note=64 velocity=63 time=0.11298075416666667
EXTRACT: note_on channel=0 note=59 velocity=63 time=0
EXTRACT: note_on channel=0 note=55 velocity=63 time=0
EXTRACT: note_on channel=0 note=50 velocity=63 time=0
EXTRACT: note_on channel=0 note=45 velocity=63 time=0
EXTRACT: note_on channel=0 note=40 velocity=63 time=0
EXTRACT: note_off channel=2 note=58 velocity=79 time=0
EXTRACT: note_off channel=0 note=64 velocity=63 time=0.031249995833333332
EXTRACT: note_off channel=0 note=59 velocity=63 time=0
EXTRACT: note_off channel=0 note=55 velocity=63 time=0
EXTRACT: note_off channel=0 note=50 velocity=63 time=0
EXTRACT: note_off channel=0 note=45 velocity=63 time=0
EXTRACT: note_off channel=0 note=40 velocity=63 time=0
EXTRACT: note_on channel=0 note=72 velocity=63 time=0.11298075416666667
EXTRACT: note_on channel=0 note=68 velocity=63 time=0
EXTRACT: note_on channel=0 note=65 velocity=63 time=0
EXTRACT: note_on channel=0 note=60 velocity=63 time=0
EXTRACT: note_on channel=0 note=53 velocity=63 time=0
EXTRACT: note_on channel=2 note=51 velocity=79 time=0
EXTRACT: note_off channel=0 note=72 velocity=63 time=0.14423075
EXTRACT: note_off channel=0 note=68 velocity=63 time=0
EXTRACT: note_off channel=0 note=65 velocity=63 time=0
EXTRACT: note_off channel=0 note=60 velocity=63 time=0
EXTRACT: note_off channel=0 note=53 velocity=63 time=0
EXTRACT: note_on channel=0 note=72 velocity=63 time=0
EXTRACT: note_on channel=0 note=68 velocity=63 time=0
EXTRACT: note_on channel=0 note=65 velocity=63 time=0
EXTRACT: note_on channel=0 note=60 velocity=63 time=0
EXTRACT: note_on channel=0 note=53 velocity=63 time=0
EXTRACT: note_off channel=2 note=51 velocity=79 time=0
EXTRACT: note_on channel=2 note=53 velocity=54 time=0
EXTRACT: note_off channel=0 note=72 velocity=63 time=0.14423075
EXTRACT: note_off channel=0 note=68 velocity=63 time=0
EXTRACT: note_off channel=0 note=65 velocity=63 time=0
EXTRACT: note_off channel=0 note=60 velocity=63 time=0
EXTRACT: note_off channel=0 note=53 velocity=63 time=0
EXTRACT: note_on channel=0 note=64 velocity=63 time=0
EXTRACT: note_on channel=0 note=59 velocity=63 time=0
EXTRACT: note_on channel=0 note=55 velocity=63 time=0
EXTRACT: note_on channel=0 note=50 velocity=63 time=0
EXTRACT: note_on channel=0 note=45 velocity=63 time=0
EXTRACT: note_off channel=0 note=64 velocity=63 time=0.031249995833333332
EXTRACT: note_off channel=0 note=59 velocity=63 time=0
EXTRACT: note_off channel=0 note=55 velocity=63 time=0
EXTRACT: note_off channel=0 note=50 velocity=63 time=0
EXTRACT: note_off channel=0 note=45 velocity=63 time=0
EXTRACT: note_on channel=0 note=64 velocity=63 time=0.11298075416666667
EXTRACT: note_on channel=0 note=59 velocity=63 time=0
EXTRACT: note_on channel=0 note=55 velocity=63 time=0
EXTRACT: note_on channel=0 note=50 velocity=63 time=0
EXTRACT: note_on channel=0 note=45 velocity=63 time=0
EXTRACT: note_off channel=2 note=53 velocity=54 time=0
EXTRACT: note_on channel=2 note=56 velocity=79 time=0
EXTRACT: note_off channel=0 note=64 velocity=63 time=0.031249995833333332
EXTRACT: note_off channel=0 note=59 velocity=63 time=0
EXTRACT: note_off channel=0 note=55 velocity=63 time=0
EXTRACT: note_off channel=0 note=50 velocity=63 time=0
EXTRACT: note_off channel=0 note=45 velocity=63 time=0
EXTRACT: note_on channel=0 note=72 velocity=63 time=0.11298075416666667
EXTRACT: note_on channel=0 note=68 velocity=63 time=0
EXTRACT: note_on channel=0 note=65 velocity=63 time=0
EXTRACT: note_on channel=0 note=60 velocity=63 time=0
EXTRACT: note_on channel=0 note=53 velocity=63 time=0
EXTRACT: note_off channel=2 note=56 velocity=79 time=0
EXTRACT: note_off channel=0 note=72 velocity=63 time=0.14423075
EXTRACT: note_off channel=0 note=68 velocity=63 time=0
EXTRACT: note_off channel=0 note=65 velocity=63 time=0
EXTRACT: note_off channel=0 note=60 velocity=63 time=0
EXTRACT: note_off channel=0 note=53 velocity=63 time=0
EXTRACT: note_on channel=0 note=72 velocity=63 time=0
EXTRACT: note_on channel=0 note=68 velocity=63 time=0
EXTRACT: note_on channel=0 note=65 velocity=63 time=0
EXTRACT: note_on channel=0 note=60 velocity=63 time=0
EXTRACT: note_on channel=0 note=53 velocity=63 time=0
EXTRACT: note_off channel=0 note=72 velocity=63 time=0.14423075
EXTRACT: note_off channel=0 note=68 velocity=63 time=0
EXTRACT: note_off channel=0 note=65 velocity=63 time=0
EXTRACT: note_off channel=0 note=60 velocity=63 time=0
EXTRACT: note_off channel=0 note=53 velocity=63 time=0
EXTRACT: note_on channel=0 note=64 velocity=63 time=0
EXTRACT: note_on channel=0 note=59 velocity=63 time=0
EXTRACT: note_on channel=0 note=55 velocity=63 time=0
EXTRACT: note_on channel=0 note=50 velocity=63 time=0
EXTRACT: note_on channel=0 note=45 velocity=63 time=0
EXTRACT: note_on channel=2 note=51 velocity=79 time=0
EXTRACT: note_off channel=0 note=64 velocity=63 time=0.031249995833333332
EXTRACT: note_off channel=0 note=59 velocity=63 time=0
EXTRACT: note_off channel=0 note=55 velocity=63 time=0
EXTRACT: note_off channel=0 note=50 velocity=63 time=0
EXTRACT: note_off channel=0 note=45 velocity=63 time=0
EXTRACT: note_on channel=0 note=64 velocity=63 time=0.11298075416666667
EXTRACT: note_on channel=0 note=59 velocity=63 time=0
EXTRACT: note_on channel=0 note=55 velocity=63 time=0
EXTRACT: note_on channel=0 note=50 velocity=63 time=0
EXTRACT: note_on channel=0 note=45 velocity=63 time=0
EXTRACT: note_off channel=0 note=64 velocity=63 time=0.031249995833333332
EXTRACT: note_off channel=0 note=59 velocity=63 time=0
EXTRACT: note_off channel=0 note=55 velocity=63 time=0
EXTRACT: note_off channel=0 note=50 velocity=63 time=0
EXTRACT: note_off channel=0 note=45 velocity=63 time=0
EXTRACT: note_on channel=0 note=72 velocity=63 time=0.11298075416666667
EXTRACT: note_on channel=0 note=68 velocity=63 time=0
EXTRACT: note_on channel=0 note=65 velocity=63 time=0
EXTRACT: note_on channel=0 note=60 velocity=63 time=0
EXTRACT: note_on channel=0 note=53 velocity=63 time=0
EXTRACT: note_off channel=2 note=51 velocity=79 time=0
EXTRACT: note_off channel=0 note=72 velocity=63 time=0.14423075
EXTRACT: note_off channel=0 note=68 velocity=63 time=0
EXTRACT: note_off channel=0 note=65 velocity=63 time=0
EXTRACT: note_off channel=0 note=60 velocity=63 time=0
EXTRACT: note_off channel=0 note=53 velocity=63 time=0
EXTRACT: note_on channel=0 note=72 velocity=63 time=0
EXTRACT: note_on channel=0 note=68 velocity=63 time=0
EXTRACT: note_on channel=0 note=65 velocity=63 time=0
EXTRACT: note_on channel=0 note=60 velocity=63 time=0
EXTRACT: note_on channel=0 note=53 velocity=63 time=0
EXTRACT: note_off channel=0 note=72 velocity=63 time=0.14423075
EXTRACT: note_off channel=0 note=68 velocity=63 time=0
EXTRACT: note_off channel=0 note=65 velocity=63 time=0
EXTRACT: note_off channel=0 note=60 velocity=63 time=0
EXTRACT: note_off channel=0 note=53 velocity=63 time=0
EXTRACT: note_on channel=0 note=64 velocity=63 time=0
EXTRACT: note_on channel=0 note=59 velocity=63 time=0
EXTRACT: note_on channel=0 note=55 velocity=63 time=0
EXTRACT: note_on channel=0 note=50 velocity=63 time=0
EXTRACT: note_on channel=0 note=45 velocity=63 time=0
EXTRACT: note_on channel=2 note=48 velocity=79 time=0
EXTRACT: note_off channel=0 note=64 velocity=63 time=0.031249995833333332
EXTRACT: note_off channel=0 note=59 velocity=63 time=0
EXTRACT: note_off channel=0 note=55 velocity=63 time=0
EXTRACT: note_off channel=0 note=50 velocity=63 time=0
EXTRACT: note_off channel=0 note=45 velocity=63 time=0
EXTRACT: note_on channel=0 note=64 velocity=63 time=0.11298075416666667
EXTRACT: note_on channel=0 note=59 velocity=63 time=0
EXTRACT: note_on channel=0 note=55 velocity=63 time=0
EXTRACT: note_on channel=0 note=50 velocity=63 time=0
EXTRACT: note_on channel=0 note=45 velocity=63 time=0
EXTRACT: note_off channel=0 note=64 velocity=63 time=0.031249995833333332
EXTRACT: note_off channel=0 note=59 velocity=63 time=0
EXTRACT: note_off channel=0 note=55 velocity=63 time=0
EXTRACT: note_off channel=0 note=50 velocity=63 time=0
EXTRACT: note_off channel=0 note=45 velocity=63 time=0
EXTRACT: note_on channel=0 note=72 velocity=63 time=0.11298075416666667
EXTRACT: note_on channel=0 note=68 velocity=63 time=0
EXTRACT: note_on channel=0 note=65 velocity=63 time=0
EXTRACT: note_on channel=0 note=60 velocity=63 time=0
EXTRACT: note_on channel=0 note=53 velocity=63 time=0
EXTRACT: note_off channel=2 note=48 velocity=79 time=0
EXTRACT: note_on channel=2 note=46 velocity=79 time=0
EXTRACT: note_off channel=0 note=72 velocity=63 time=0.14423075
EXTRACT: note_off channel=0 note=68 velocity=63 time=0
EXTRACT: note_off channel=0 note=65 velocity=63 time=0
EXTRACT: note_off channel=0 note=60 velocity=63 time=0
EXTRACT: note_off channel=0 note=53 velocity=63 time=0
EXTRACT: note_on channel=0 note=72 velocity=63 time=0
EXTRACT: note_on channel=0 note=68 velocity=63 time=0
EXTRACT: note_on channel=0 note=65 velocity=63 time=0
EXTRACT: note_on channel=0 note=60 velocity=63 time=0
EXTRACT: note_on channel=0 note=53 velocity=63 time=0
EXTRACT: note_off channel=2 note=46 velocity=79 time=0
EXTRACT: note_on channel=2 note=48 velocity=54 time=0
EXTRACT: note_off channel=0 note=72 velocity=63 time=0.14423075
EXTRACT: note_off channel=0 note=68 velocity=63 time=0
EXTRACT: note_off channel=0 note=65 velocity=63 time=0
EXTRACT: note_off channel=0 note=60 velocity=63 time=0
EXTRACT: note_off channel=0 note=53 velocity=63 time=0
EXTRACT: note_on channel=0 note=64 velocity=63 time=0
EXTRACT: note_on channel=0 note=59 velocity=63 time=0
EXTRACT: note_on channel=0 note=55 velocity=63 time=0
EXTRACT: note_on channel=0 note=50 velocity=63 time=0
EXTRACT: note_on channel=0 note=45 velocity=63 time=0
EXTRACT: note_off channel=2 note=48 velocity=54 time=0
EXTRACT: note_on channel=2 note=51 velocity=79 time=0
EXTRACT: note_off channel=0 note=64 velocity=63 time=0.031249995833333332
EXTRACT: note_off channel=0 note=59 velocity=63 time=0
EXTRACT: note_off channel=0 note=55 velocity=63 time=0
EXTRACT: note_off channel=0 note=50 velocity=63 time=0
EXTRACT: note_off channel=0 note=45 velocity=63 time=0
EXTRACT: note_on channel=0 note=64 velocity=63 time=0.11298075416666667
EXTRACT: note_on channel=0 note=59 velocity=63 time=0
EXTRACT: note_on channel=0 note=55 velocity=63 time=0
EXTRACT: note_on channel=0 note=50 velocity=63 time=0
EXTRACT: note_on channel=0 note=45 velocity=63 time=0
EXTRACT: note_off channel=0 note=64 velocity=63 time=0.031249995833333332
EXTRACT: note_off channel=0 note=59 velocity=63 time=0
EXTRACT: note_off channel=0 note=55 velocity=63 time=0
EXTRACT: note_off channel=0 note=50 velocity=63 time=0
EXTRACT: note_off channel=0 note=45 velocity=63 time=0
EXTRACT: note_on channel=0 note=72 velocity=63 time=0.11298075416666667
EXTRACT: note_on channel=0 note=68 velocity=63 time=0
EXTRACT: note_on channel=0 note=65 velocity=63 time=0
EXTRACT: note_on channel=0 note=60 velocity=63 time=0
EXTRACT: note_on channel=0 note=53 velocity=63 time=0
EXTRACT: note_off channel=2 note=51 velocity=79 time=0
EXTRACT: note_on channel=2 note=46 velocity=79 time=0
EXTRACT: note_off channel=0 note=72 velocity=63 time=0.14423075
EXTRACT: note_off channel=0 note=68 velocity=63 time=0
EXTRACT: note_off channel=0 note=65 velocity=63 time=0
EXTRACT: note_off channel=0 note=60 velocity=63 time=0
EXTRACT: note_off channel=0 note=53 velocity=63 time=0
EXTRACT: note_on channel=0 note=72 velocity=63 time=0
EXTRACT: note_on channel=0 note=68 velocity=63 time=0
EXTRACT: note_on channel=0 note=65 velocity=63 time=0
EXTRACT: note_on channel=0 note=60 velocity=63 time=0
EXTRACT: note_on channel=0 note=53 velocity=63 time=0
EXTRACT: note_off channel=2 note=46 velocity=79 time=0
EXTRACT: note_on channel=2 note=48 velocity=54 time=0
EXTRACT: note_off channel=0 note=72 velocity=63 time=0.14423075
EXTRACT: note_off channel=0 note=68 velocity=63 time=0
EXTRACT: note_off channel=0 note=65 velocity=63 time=0
EXTRACT: note_off channel=0 note=60 velocity=63 time=0
EXTRACT: note_off channel=0 note=53 velocity=63 time=0
EXTRACT: note_on channel=0 note=64 velocity=63 time=0
EXTRACT: note_on channel=0 note=59 velocity=63 time=0
EXTRACT: note_on channel=0 note=55 velocity=63 time=0
EXTRACT: note_on channel=0 note=50 velocity=63 time=0
EXTRACT: note_on channel=0 note=45 velocity=63 time=0
EXTRACT: note_off channel=2 note=48 velocity=54 time=0
EXTRACT: note_on channel=2 note=51 velocity=79 time=0
EXTRACT: note_off channel=0 note=64 velocity=63 time=0.031249995833333332
EXTRACT: note_off channel=0 note=59 velocity=63 time=0
EXTRACT: note_off channel=0 note=55 velocity=63 time=0
EXTRACT: note_off channel=0 note=50 velocity=63 time=0
EXTRACT: note_off channel=0 note=45 velocity=63 time=0
EXTRACT: note_on channel=0 note=64 velocity=63 time=0.11298075416666667
EXTRACT: note_on channel=0 note=59 velocity=63 time=0
EXTRACT: note_on channel=0 note=55 velocity=63 time=0
EXTRACT: note_on channel=0 note=50 velocity=63 time=0
EXTRACT: note_on channel=0 note=45 velocity=63 time=0
EXTRACT: note_off channel=0 note=64 velocity=63 time=0.031249995833333332
EXTRACT: note_off channel=0 note=59 velocity=63 time=0
EXTRACT: note_off channel=0 note=55 velocity=63 time=0
EXTRACT: note_off channel=0 note=50 velocity=63 time=0
EXTRACT: note_off channel=0 note=45 velocity=63 time=0
EXTRACT: note_on channel=0 note=72 velocity=63 time=0.11298075416666667
EXTRACT: note_on channel=0 note=68 velocity=63 time=0
EXTRACT: note_on channel=0 note=65 velocity=63 time=0
EXTRACT: note_on channel=0 note=60 velocity=63 time=0
EXTRACT: note_on channel=0 note=53 velocity=63 time=0
EXTRACT: note_off channel=2 note=51 velocity=79 time=0
EXTRACT: note_off channel=0 note=72 velocity=63 time=0.14423075
EXTRACT: note_off channel=0 note=68 velocity=63 time=0
EXTRACT: note_off channel=0 note=65 velocity=63 time=0
EXTRACT: note_off channel=0 note=60 velocity=63 time=0
EXTRACT: note_off channel=0 note=53 velocity=63 time=0
EXTRACT: note_on channel=0 note=72 velocity=63 time=0
EXTRACT: note_on channel=0 note=68 velocity=63 time=0
EXTRACT: note_on channel=0 note=65 velocity=63 time=0
EXTRACT: note_on channel=0 note=60 velocity=63 time=0
EXTRACT: note_on channel=0 note=53 velocity=63 time=0
EXTRACT: note_on channel=2 note=45 velocity=79 time=0
EXTRACT: note_off channel=2 note=45 velocity=79 time=0.031249995833333332
EXTRACT: note_off channel=0 note=72 velocity=63 time=0.11298075416666667
EXTRACT: note_off channel=0 note=68 velocity=63 time=0
EXTRACT: note_off channel=0 note=65 velocity=63 time=0
EXTRACT: note_off channel=0 note=60 velocity=63 time=0
EXTRACT: note_off channel=0 note=53 velocity=63 time=0
EXTRACT: note_on channel=0 note=64 velocity=63 time=0
EXTRACT: note_on channel=0 note=59 velocity=63 time=0
EXTRACT: note_on channel=0 note=55 velocity=63 time=0
EXTRACT: note_on channel=0 note=50 velocity=63 time=0
EXTRACT: note_on channel=0 note=45 velocity=63 time=0
EXTRACT: note_on channel=2 note=46 velocity=79 time=0
EXTRACT: note_off channel=0 note=64 velocity=63 time=0.031249995833333332
EXTRACT: note_off channel=0 note=59 velocity=63 time=0
EXTRACT: note_off channel=0 note=55 velocity=63 time=0
EXTRACT: note_off channel=0 note=50 velocity=63 time=0
EXTRACT: note_off channel=0 note=45 velocity=63 time=0
EXTRACT: note_on channel=0 note=64 velocity=63 time=0.11298075416666667
EXTRACT: note_on channel=0 note=59 velocity=63 time=0
EXTRACT: note_on channel=0 note=55 velocity=63 time=0
EXTRACT: note_on channel=0 note=50 velocity=63 time=0
EXTRACT: note_on channel=0 note=45 velocity=63 time=0
EXTRACT: note_off channel=0 note=64 velocity=63 time=0.031249995833333332
EXTRACT: note_off channel=0 note=59 velocity=63 time=0
EXTRACT: note_off channel=0 note=55 velocity=63 time=0
EXTRACT: note_off channel=0 note=50 velocity=63 time=0
EXTRACT: note_off channel=0 note=45 velocity=63 time=0
EXTRACT: note_on channel=0 note=72 velocity=63 time=0.11298075416666667
EXTRACT: note_on channel=0 note=68 velocity=63 time=0
EXTRACT: note_on channel=0 note=65 velocity=63 time=0
EXTRACT: note_on channel=0 note=60 velocity=63 time=0
EXTRACT: note_on channel=0 note=53 velocity=63 time=0
EXTRACT: note_off channel=2 note=46 velocity=79 time=0
EXTRACT: note_on channel=2 note=48 velocity=79 time=0
EXTRACT: note_off channel=0 note=72 velocity=63 time=0.14423075
EXTRACT: note_off channel=0 note=68 velocity=63 time=0
EXTRACT: note_off channel=0 note=65 velocity=63 time=0
EXTRACT: note_off channel=0 note=60 velocity=63 time=0
EXTRACT: note_off channel=0 note=53 velocity=63 time=0
EXTRACT: note_on channel=0 note=72 velocity=63 time=0
EXTRACT: note_on channel=0 note=68 velocity=63 time=0
EXTRACT: note_on channel=0 note=65 velocity=63 time=0
EXTRACT: note_on channel=0 note=60 velocity=63 time=0
EXTRACT: note_on channel=0 note=53 velocity=63 time=0
EXTRACT: note_off channel=0 note=72 velocity=63 time=0.14423075
EXTRACT: note_off channel=0 note=68 velocity=63 time=0
EXTRACT: note_off channel=0 note=65 velocity=63 time=0
EXTRACT: note_off channel=0 note=60 velocity=63 time=0
EXTRACT: note_off channel=0 note=53 velocity=63 time=0
EXTRACT: note_on channel=0 note=64 velocity=63 time=0
EXTRACT: note_on channel=0 note=59 velocity=63 time=0
EXTRACT: note_on channel=0 note=55 velocity=63 time=0
EXTRACT: note_on channel=0 note=50 velocity=63 time=0
EXTRACT: note_on channel=0 note=45 velocity=63 time=0
EXTRACT: note_off channel=2 note=48 velocity=79 time=0
EXTRACT: note_on channel=2 note=51 velocity=79 time=0
EXTRACT: note_on channel=4 note=65 velocity=95 time=0
EXTRACT: note_off channel=0 note=64 velocity=63 time=0.031249995833333332
EXTRACT: note_off channel=0 note=59 velocity=63 time=0
EXTRACT: note_off channel=0 note=55 velocity=63 time=0
EXTRACT: note_off channel=0 note=50 velocity=63 time=0
EXTRACT: note_off channel=0 note=45 velocity=63 time=0
EXTRACT: note_on channel=0 note=64 velocity=63 time=0.11298075416666667
EXTRACT: note_on channel=0 note=59 velocity=63 time=0
EXTRACT: note_on channel=0 note=55 velocity=63 time=0
EXTRACT: note_on channel=0 note=50 velocity=63 time=0
EXTRACT: note_on channel=0 note=45 velocity=63 time=0
EXTRACT: note_off channel=0 note=64 velocity=63 time=0.031249995833333332
EXTRACT: note_off channel=0 note=59 velocity=63 time=0
EXTRACT: note_off channel=0 note=55 velocity=63 time=0
EXTRACT: note_off channel=0 note=50 velocity=63 time=0
EXTRACT: note_off channel=0 note=45 velocity=63 time=0
EXTRACT: note_on channel=0 note=72 velocity=63 time=0.11298075416666667
EXTRACT: note_on channel=0 note=68 velocity=63 time=0
EXTRACT: note_on channel=0 note=65 velocity=63 time=0
EXTRACT: note_on channel=0 note=60 velocity=63 time=0
EXTRACT: note_on channel=0 note=53 velocity=63 time=0
EXTRACT: note_off channel=2 note=51 velocity=79 time=0
EXTRACT: note_on channel=2 note=53 velocity=79 time=0
EXTRACT: note_off channel=4 note=65 velocity=95 time=0
EXTRACT: note_on channel=4 note=68 velocity=95 time=0
EXTRACT: note_off channel=0 note=72 velocity=63 time=0.14423075
EXTRACT: note_off channel=0 note=68 velocity=63 time=0
EXTRACT: note_off channel=0 note=65 velocity=63 time=0
EXTRACT: note_off channel=0 note=60 velocity=63 time=0
EXTRACT: note_off channel=0 note=53 velocity=63 time=0
EXTRACT: note_on channel=0 note=72 velocity=63 time=0
EXTRACT: note_on channel=0 note=68 velocity=63 time=0
EXTRACT: note_on channel=0 note=65 velocity=63 time=0
EXTRACT: note_on channel=0 note=60 velocity=63 time=0
EXTRACT: note_on channel=0 note=53 velocity=63 time=0
EXTRACT: note_off channel=4 note=68 velocity=95 time=0
EXTRACT: note_on channel=4 note=70 velocity=95 time=0
EXTRACT: note_off channel=0 note=72 velocity=63 time=0.14423075
EXTRACT: note_off channel=0 note=68 velocity=63 time=0
EXTRACT: note_off channel=0 note=65 velocity=63 time=0
EXTRACT: note_off channel=0 note=60 velocity=63 time=0
EXTRACT: note_off channel=0 note=53 velocity=63 time=0
EXTRACT: note_on channel=0 note=64 velocity=63 time=0
EXTRACT: note_on channel=0 note=59 velocity=63 time=0
EXTRACT: note_on channel=0 note=55 velocity=63 time=0
EXTRACT: note_on channel=0 note=50 velocity=63 time=0
EXTRACT: note_on channel=0 note=45 velocity=63 time=0
EXTRACT: note_off channel=2 note=53 velocity=79 time=0
EXTRACT: note_on channel=2 note=56 velocity=79 time=0
EXTRACT: note_off channel=0 note=64 velocity=63 time=0.031249995833333332
EXTRACT: note_off channel=0 note=59 velocity=63 time=0
EXTRACT: note_off channel=0 note=55 velocity=63 time=0
EXTRACT: note_off channel=0 note=50 velocity=63 time=0
EXTRACT: note_off channel=0 note=45 velocity=63 time=0
EXTRACT: note_on channel=0 note=64 velocity=63 time=0.11298075416666667
EXTRACT: note_on channel=0 note=59 velocity=63 time=0
EXTRACT: note_on channel=0 note=55 velocity=63 time=0
EXTRACT: note_on channel=0 note=50 velocity=63 time=0
EXTRACT: note_on channel=0 note=45 velocity=63 time=0
EXTRACT: note_off channel=4 note=70 velocity=95 time=0
EXTRACT: note_on channel=4 note=72 velocity=95 time=0
EXTRACT: note_off channel=0 note=64 velocity=63 time=0.031249995833333332
EXTRACT: note_off channel=0 note=59 velocity=63 time=0
EXTRACT: note_off channel=0 note=55 velocity=63 time=0
EXTRACT: note_off channel=0 note=50 velocity=63 time=0
EXTRACT: note_off channel=0 note=45 velocity=63 time=0
EXTRACT: note_on channel=0 note=72 velocity=63 time=0.11298075416666667
EXTRACT: note_on channel=0 note=68 velocity=63 time=0
EXTRACT: note_on channel=0 note=65 velocity=63 time=0
EXTRACT: note_on channel=0 note=60 velocity=63 time=0
EXTRACT: note_on channel=0 note=53 velocity=63 time=0
EXTRACT: note_off channel=2 note=56 velocity=79 time=0
EXTRACT: note_on channel=2 note=51 velocity=79 time=0
EXTRACT: note_off channel=0 note=72 velocity=63 time=0.14423075
EXTRACT: note_off channel=0 note=68 velocity=63 time=0
EXTRACT: note_off channel=0 note=65 velocity=63 time=0
EXTRACT: note_off channel=0 note=60 velocity=63 time=0
EXTRACT: note_off channel=0 note=53 velocity=63 time=0
EXTRACT: note_on channel=0 note=72 velocity=63 time=0
EXTRACT: note_on channel=0 note=68 velocity=63 time=0
EXTRACT: note_on channel=0 note=65 velocity=63 time=0
EXTRACT: note_on channel=0 note=60 velocity=63 time=0
EXTRACT: note_on channel=0 note=53 velocity=63 time=0
EXTRACT: note_off channel=2 note=51 velocity=79 time=0
EXTRACT: note_on channel=2 note=53 velocity=54 time=0
EXTRACT: note_off channel=0 note=72 velocity=63 time=0.14423075
EXTRACT: note_off channel=0 note=68 velocity=63 time=0
EXTRACT: note_off channel=0 note=65 velocity=63 time=0
EXTRACT: note_off channel=0 note=60 velocity=63 time=0
EXTRACT: note_off channel=0 note=53 velocity=63 time=0
EXTRACT: note_on channel=0 note=64 velocity=63 time=0
EXTRACT: note_on channel=0 note=59 velocity=63 time=0
EXTRACT: note_on channel=0 note=55 velocity=63 time=0
EXTRACT: note_on channel=0 note=50 velocity=63 time=0
EXTRACT: note_on channel=0 note=45 velocity=63 time=0
EXTRACT: note_off channel=4 note=72 velocity=95 time=0
EXTRACT: note_on channel=4 note=70 velocity=95 time=0
EXTRACT: note_off channel=0 note=64 velocity=63 time=0.031249995833333332
EXTRACT: note_off channel=0 note=59 velocity=63 time=0
EXTRACT: note_off channel=0 note=55 velocity=63 time=0
EXTRACT: note_off channel=0 note=50 velocity=63 time=0
EXTRACT: note_off channel=0 note=45 velocity=63 time=0
EXTRACT: note_on channel=0 note=64 velocity=63 time=0.11298075416666667
EXTRACT: note_on channel=0 note=59 velocity=63 time=0
EXTRACT: note_on channel=0 note=55 velocity=63 time=0
EXTRACT: note_on channel=0 note=50 velocity=63 time=0
EXTRACT: note_on channel=0 note=45 velocity=63 time=0
EXTRACT: note_off channel=2 note=53 velocity=54 time=0
EXTRACT: note_on channel=2 note=56 velocity=79 time=0
EXTRACT: note_off channel=4 note=70 velocity=95 time=0
EXTRACT: note_on channel=4 note=68 velocity=95 time=0
EXTRACT: note_off channel=0 note=64 velocity=63 time=0.031249995833333332
EXTRACT: note_off channel=0 note=59 velocity=63 time=0
EXTRACT: note_off channel=0 note=55 velocity=63 time=0
EXTRACT: note_off channel=0 note=50 velocity=63 time=0
EXTRACT: note_off channel=0 note=45 velocity=63 time=0
EXTRACT: note_on channel=0 note=72 velocity=63 time=0.11298075416666667
EXTRACT: note_on channel=0 note=68 velocity=63 time=0
EXTRACT: note_on channel=0 note=65 velocity=63 time=0
EXTRACT: note_on channel=0 note=60 velocity=63 time=0
EXTRACT: note_on channel=0 note=53 velocity=63 time=0
EXTRACT: note_off channel=2 note=56 velocity=79 time=0
EXTRACT: note_off channel=4 note=68 velocity=95 time=0
EXTRACT: note_on channel=4 note=70 velocity=95 time=0
EXTRACT: note_off channel=0 note=72 velocity=63 time=0.14423075
EXTRACT: note_off channel=0 note=68 velocity=63 time=0
EXTRACT: note_off channel=0 note=65 velocity=63 time=0
EXTRACT: note_off channel=0 note=60 velocity=63 time=0
EXTRACT: note_off channel=0 note=53 velocity=63 time=0
EXTRACT: note_on channel=0 note=72 velocity=63 time=0
EXTRACT: note_on channel=0 note=68 velocity=63 time=0
EXTRACT: note_on channel=0 note=65 velocity=63 time=0
EXTRACT: note_on channel=0 note=60 velocity=63 time=0
EXTRACT: note_on channel=0 note=53 velocity=63 time=0
EXTRACT: note_off channel=4 note=70 velocity=95 time=0
EXTRACT: note_on channel=4 note=65 velocity=95 time=0
EXTRACT: note_off channel=0 note=72 velocity=63 time=0.14423075
EXTRACT: note_off channel=0 note=68 velocity=63 time=0
EXTRACT: note_off channel=0 note=65 velocity=63 time=0
EXTRACT: note_off channel=0 note=60 velocity=63 time=0
EXTRACT: note_off channel=0 note=53 velocity=63 time=0
EXTRACT: note_on channel=0 note=64 velocity=63 time=0
EXTRACT: note_on channel=0 note=59 velocity=63 time=0
EXTRACT: note_on channel=0 note=55 velocity=63 time=0
EXTRACT: note_on channel=0 note=50 velocity=63 time=0
EXTRACT: note_on channel=0 note=45 velocity=63 time=0
EXTRACT: note_on channel=2 note=51 velocity=79 time=0
EXTRACT: note_off channel=0 note=64 velocity=63 time=0.031249995833333332
EXTRACT: note_off channel=0 note=59 velocity=63 time=0
EXTRACT: note_off channel=0 note=55 velocity=63 time=0
EXTRACT: note_off channel=0 note=50 velocity=63 time=0
EXTRACT: note_off channel=0 note=45 velocity=63 time=0
EXTRACT: note_on channel=0 note=64 velocity=63 time=0.11298075416666667
EXTRACT: note_on channel=0 note=59 velocity=63 time=0
EXTRACT: note_on channel=0 note=55 velocity=63 time=0
EXTRACT: note_on channel=0 note=50 velocity=63 time=0
EXTRACT: note_on channel=0 note=45 velocity=63 time=0
EXTRACT: note_off channel=4 note=65 velocity=95 time=0
EXTRACT: note_on channel=4 note=68 velocity=95 time=0
EXTRACT: note_off channel=0 note=64 velocity=63 time=0.031249995833333332
EXTRACT: note_off channel=0 note=59 velocity=63 time=0
EXTRACT: note_off channel=0 note=55 velocity=63 time=0
EXTRACT: note_off channel=0 note=50 velocity=63 time=0
EXTRACT: note_off channel=0 note=45 velocity=63 time=0
EXTRACT: note_on channel=0 note=72 velocity=63 time=0.11298075416666667
EXTRACT: note_on channel=0 note=68 velocity=63 time=0
EXTRACT: note_on channel=0 note=65 velocity=63 time=0
EXTRACT: note_on channel=0 note=60 velocity=63 time=0
EXTRACT: note_on channel=0 note=53 velocity=63 time=0
EXTRACT: note_off channel=2 note=51 velocity=79 time=0
EXTRACT: note_off channel=0 note=72 velocity=63 time=0.14423075
EXTRACT: note_off channel=0 note=68 velocity=63 time=0
EXTRACT: note_off channel=0 note=65 velocity=63 time=0
EXTRACT: note_off channel=0 note=60 velocity=63 time=0
EXTRACT: note_off channel=0 note=53 velocity=63 time=0
EXTRACT: note_on channel=0 note=72 velocity=63 time=0
EXTRACT: note_on channel=0 note=68 velocity=63 time=0
EXTRACT: note_on channel=0 note=65 velocity=63 time=0
EXTRACT: note_on channel=0 note=60 velocity=63 time=0
EXTRACT: note_on channel=0 note=53 velocity=63 time=0
EXTRACT: note_off channel=4 note=68 velocity=95 time=0
EXTRACT: note_on channel=4 note=68 velocity=95 time=0
EXTRACT: note_off channel=0 note=72 velocity=63 time=0.14423075
EXTRACT: note_off channel=0 note=68 velocity=63 time=0
EXTRACT: note_off channel=0 note=65 velocity=63 time=0
EXTRACT: note_off channel=0 note=60 velocity=63 time=0
EXTRACT: note_off channel=0 note=53 velocity=63 time=0
EXTRACT: note_on channel=0 note=64 velocity=63 time=0
EXTRACT: note_on channel=0 note=59 velocity=63 time=0
EXTRACT: note_on channel=0 note=55 velocity=63 time=0
EXTRACT: note_on channel=0 note=50 velocity=63 time=0
EXTRACT: note_on channel=0 note=45 velocity=63 time=0
EXTRACT: note_on channel=2 note=48 velocity=79 time=0
EXTRACT: note_off channel=0 note=64 velocity=63 time=0.031249995833333332
EXTRACT: note_off channel=0 note=59 velocity=63 time=0
EXTRACT: note_off channel=0 note=55 velocity=63 time=0
EXTRACT: note_off channel=0 note=50 velocity=63 time=0
EXTRACT: note_off channel=0 note=45 velocity=63 time=0
EXTRACT: note_on channel=0 note=64 velocity=63 time=0.11298075416666667
EXTRACT: note_on channel=0 note=59 velocity=63 time=0
EXTRACT: note_on channel=0 note=55 velocity=63 time=0
EXTRACT: note_on channel=0 note=50 velocity=63 time=0
EXTRACT: note_on channel=0 note=45 velocity=63 time=0
EXTRACT: note_off channel=4 note=68 velocity=95 time=0
EXTRACT: note_on channel=4 note=70 velocity=95 time=0
EXTRACT: note_off channel=0 note=64 velocity=63 time=0.031249995833333332
EXTRACT: note_off channel=0 note=59 velocity=63 time=0
EXTRACT: note_off channel=0 note=55 velocity=63 time=0
EXTRACT: note_off channel=0 note=50 velocity=63 time=0
EXTRACT: note_off channel=0 note=45 velocity=63 time=0
EXTRACT: note_on channel=0 note=72 velocity=63 time=0.11298075416666667
EXTRACT: note_on channel=0 note=68 velocity=63 time=0
EXTRACT: note_on channel=0 note=65 velocity=63 time=0
EXTRACT: note_on channel=0 note=60 velocity=63 time=0
EXTRACT: note_on channel=0 note=53 velocity=63 time=0
EXTRACT: note_off channel=2 note=48 velocity=79 time=0
EXTRACT: note_on channel=2 note=46 velocity=79 time=0
EXTRACT: note_off channel=4 note=70 velocity=95 time=0
EXTRACT: note_off channel=0 note=72 velocity=63 time=0.14423075
EXTRACT: note_off channel=0 note=68 velocity=63 time=0
EXTRACT: note_off channel=0 note=65 velocity=63 time=0
EXTRACT: note_off channel=0 note=60 velocity=63 time=0
EXTRACT: note_off channel=0 note=53 velocity=63 time=0
EXTRACT: note_on channel=0 note=72 velocity=63 time=0
EXTRACT: note_on channel=0 note=68 velocity=63 time=0
EXTRACT: note_on channel=0 note=65 velocity=63 time=0
EXTRACT: note_on channel=0 note=60 velocity=63 time=0
EXTRACT: note_on channel=0 note=53 velocity=63 time=0
EXTRACT: note_off channel=2 note=46 velocity=79 time=0
EXTRACT: note_on channel=2 note=48 velocity=54 time=0
EXTRACT: note_on channel=4 note=65 velocity=95 time=0
EXTRACT: note_off channel=0 note=72 velocity=63 time=0.14423075
EXTRACT: note_off channel=0 note=68 velocity=63 time=0
EXTRACT: note_off channel=0 note=65 velocity=63 time=0
EXTRACT: note_off channel=0 note=60 velocity=63 time=0
EXTRACT: note_off channel=0 note=53 velocity=63 time=0
EXTRACT: note_on channel=0 note=64 velocity=63 time=0
EXTRACT: note_on channel=0 note=59 velocity=63 time=0
EXTRACT: note_on channel=0 note=55 velocity=63 time=0
EXTRACT: note_on channel=0 note=50 velocity=63 time=0
EXTRACT: note_on channel=0 note=45 velocity=63 time=0
EXTRACT: note_off channel=2 note=48 velocity=54 time=0
EXTRACT: note_on channel=2 note=51 velocity=79 time=0
EXTRACT: note_off channel=4 note=65 velocity=95 time=0
EXTRACT: note_on channel=4 note=65 velocity=95 time=0
EXTRACT: note_off channel=0 note=64 velocity=63 time=0.031249995833333332
EXTRACT: note_off channel=0 note=59 velocity=63 time=0
EXTRACT: note_off channel=0 note=55 velocity=63 time=0
EXTRACT: note_off channel=0 note=50 velocity=63 time=0
EXTRACT: note_off channel=0 note=45 velocity=63 time=0
EXTRACT: note_on channel=0 note=64 velocity=63 time=0.11298075416666667
EXTRACT: note_on channel=0 note=59 velocity=63 time=0
EXTRACT: note_on channel=0 note=55 velocity=63 time=0
EXTRACT: note_on channel=0 note=50 velocity=63 time=0
EXTRACT: note_on channel=0 note=45 velocity=63 time=0
EXTRACT: note_off channel=4 note=65 velocity=95 time=0
EXTRACT: note_on channel=4 note=68 velocity=95 time=0
EXTRACT: note_off channel=0 note=64 velocity=63 time=0.031249995833333332
EXTRACT: note_off channel=0 note=59 velocity=63 time=0
EXTRACT: note_off channel=0 note=55 velocity=63 time=0
EXTRACT: note_off channel=0 note=50 velocity=63 time=0
EXTRACT: note_off channel=0 note=45 velocity=63 time=0
EXTRACT: note_off channel=2 note=51 velocity=79 time=0.11298075416666667
EXTRACT: note_on channel=2 note=46 velocity=79 time=0
EXTRACT: note_off channel=2 note=46 velocity=79 time=0.14423075
EXTRACT: note_on channel=2 note=48 velocity=54 time=0
EXTRACT: note_off channel=4 note=68 velocity=95 time=0
EXTRACT: note_on channel=4 note=68 velocity=95 time=0
EXTRACT: note_on channel=0 note=75 velocity=63 time=0.14423075
EXTRACT: note_on channel=0 note=70 velocity=63 time=0
EXTRACT: note_on channel=0 note=67 velocity=63 time=0
EXTRACT: note_on channel=0 note=63 velocity=63 time=0
EXTRACT: note_off channel=2 note=48 velocity=54 time=0
EXTRACT: note_on channel=2 note=51 velocity=79 time=0
EXTRACT: note_off channel=4 note=68 velocity=95 time=0
EXTRACT: note_on channel=4 note=70 velocity=95 time=0
EXTRACT: note_off channel=0 note=75 velocity=63 time=0.14423075
EXTRACT: note_off channel=0 note=70 velocity=63 time=0
EXTRACT: note_off channel=0 note=67 velocity=63 time=0
EXTRACT: note_off channel=0 note=63 velocity=63 time=0
EXTRACT: note_on channel=0 note=75 velocity=63 time=0
EXTRACT: note_on channel=0 note=70 velocity=63 time=0
EXTRACT: note_on channel=0 note=67 velocity=63 time=0
EXTRACT: note_on channel=0 note=63 velocity=63 time=0
EXTRACT: note_off channel=0 note=75 velocity=63 time=0.14423075
EXTRACT: note_off channel=0 note=70 velocity=63 time=0
EXTRACT: note_off channel=0 note=67 velocity=63 time=0
EXTRACT: note_off channel=0 note=63 velocity=63 time=0
EXTRACT: note_on channel=0 note=75 velocity=63 time=0
EXTRACT: note_on channel=0 note=70 velocity=63 time=0
EXTRACT: note_on channel=0 note=67 velocity=63 time=0
EXTRACT: note_on channel=0 note=63 velocity=63 time=0
EXTRACT: note_off channel=2 note=51 velocity=79 time=0
EXTRACT: note_off channel=4 note=70 velocity=95 time=0
EXTRACT: note_off channel=0 note=75 velocity=63 time=0.14423075
EXTRACT: note_off channel=0 note=70 velocity=63 time=0
EXTRACT: note_off channel=0 note=67 velocity=63 time=0
EXTRACT: note_off channel=0 note=63 velocity=63 time=0
EXTRACT: note_on channel=0 note=75 velocity=63 time=0
EXTRACT: note_on channel=0 note=70 velocity=63 time=0
EXTRACT: note_on channel=0 note=67 velocity=63 time=0
EXTRACT: note_on channel=0 note=63 velocity=63 time=0
EXTRACT: note_on channel=2 note=45 velocity=79 time=0
EXTRACT: note_off channel=2 note=45 velocity=79 time=0.031249995833333332
EXTRACT: note_off channel=0 note=75 velocity=63 time=0.11298075416666667
EXTRACT: note_off channel=0 note=70 velocity=63 time=0
EXTRACT: note_off channel=0 note=67 velocity=63 time=0
EXTRACT: note_off channel=0 note=63 velocity=63 time=0
EXTRACT: note_on channel=0 note=64 velocity=63 time=0
EXTRACT: note_on channel=0 note=59 velocity=63 time=0
EXTRACT: note_on channel=0 note=55 velocity=63 time=0
EXTRACT: note_on channel=0 note=50 velocity=63 time=0
EXTRACT: note_on channel=2 note=46 velocity=79 time=0
EXTRACT: note_on channel=4 note=63 velocity=95 time=0
EXTRACT: note_off channel=0 note=64 velocity=63 time=0.031249995833333332
EXTRACT: note_off channel=0 note=59 velocity=63 time=0
EXTRACT: note_off channel=0 note=55 velocity=63 time=0
EXTRACT: note_off channel=0 note=50 velocity=63 time=0
EXTRACT: note_on channel=0 note=64 velocity=63 time=0.11298075416666667
EXTRACT: note_on channel=0 note=59 velocity=63 time=0
EXTRACT: note_on channel=0 note=55 velocity=63 time=0
EXTRACT: note_on channel=0 note=50 velocity=63 time=0
EXTRACT: note_off channel=4 note=63 velocity=95 time=0
EXTRACT: note_on channel=4 note=65 velocity=95 time=0
EXTRACT: note_off channel=0 note=64 velocity=63 time=0.031249995833333332
EXTRACT: note_off channel=0 note=59 velocity=63 time=0
EXTRACT: note_off channel=0 note=55 velocity=63 time=0
EXTRACT: note_off channel=0 note=50 velocity=63 time=0
EXTRACT: note_off channel=2 note=46 velocity=79 time=0.11298075416666667
EXTRACT: note_on channel=2 note=48 velocity=79 time=0
EXTRACT: note_off channel=4 note=65 velocity=95 time=0
EXTRACT: note_on channel=4 note=65 velocity=95 time=0
EXTRACT: note_on channel=0 note=72 velocity=63 time=0.2884615
EXTRACT: note_on channel=0 note=68 velocity=63 time=0
EXTRACT: note_on channel=0 note=65 velocity=63 time=0
EXTRACT: note_on channel=0 note=60 velocity=63 time=0
EXTRACT: note_on channel=0 note=53 velocity=63 time=0
EXTRACT: note_off channel=2 note=48 velocity=79 time=0
EXTRACT: note_on channel=2 note=51 velocity=79 time=0
EXTRACT: note_off channel=4 note=65 velocity=95 time=0
EXTRACT: note_on channel=4 note=65 velocity=95 time=0
EXTRACT: note_off channel=0 note=72 velocity=63 time=0.14423075
EXTRACT: note_off channel=0 note=68 velocity=63 time=0
EXTRACT: note_off channel=0 note=65 velocity=63 time=0
EXTRACT: note_off channel=0 note=60 velocity=63 time=0
EXTRACT: note_off channel=0 note=53 velocity=63 time=0
EXTRACT: note_on channel=0 note=72 velocity=63 time=0
EXTRACT: note_on channel=0 note=68 velocity=63 time=0
EXTRACT: note_on channel=0 note=65 velocity=63 time=0
EXTRACT: note_on channel=0 note=60 velocity=63 time=0
EXTRACT: note_on channel=0 note=53 velocity=63 time=0
EXTRACT: note_off channel=4 note=65 velocity=95 time=0
EXTRACT: note_on channel=4 note=65 velocity=95 time=0
EXTRACT: note_off channel=0 note=72 velocity=63 time=0.14423075
EXTRACT: note_off channel=0 note=68 velocity=63 time=0
EXTRACT: note_off channel=0 note=65 velocity=63 time=0
EXTRACT: note_off channel=0 note=60 velocity=63 time=0
EXTRACT: note_off channel=0 note=53 velocity=63 time=0
EXTRACT: note_on channel=0 note=72 velocity=63 time=0
EXTRACT: note_on channel=0 note=68 velocity=63 time=0
EXTRACT: note_on channel=0 note=65 velocity=63 time=0
EXTRACT: note_on channel=0 note=60 velocity=63 time=0
EXTRACT: note_on channel=0 note=53 velocity=63 time=0
EXTRACT: note_off channel=2 note=51 velocity=79 time=0
EXTRACT: note_on channel=2 note=53 velocity=79 time=0
EXTRACT: note_off channel=4 note=65 velocity=95 time=0
EXTRACT: note_off channel=0 note=72 velocity=63 time=0.14423075
EXTRACT: note_off channel=0 note=68 velocity=63 time=0
EXTRACT: note_off channel=0 note=65 velocity=63 time=0
EXTRACT: note_off channel=0 note=60 velocity=63 time=0
EXTRACT: note_off channel=0 note=53 velocity=63 time=0
EXTRACT: note_on channel=0 note=72 velocity=63 time=0
EXTRACT: note_on channel=0 note=68 velocity=63 time=0
EXTRACT: note_on channel=0 note=65 velocity=63 time=0
EXTRACT: note_on channel=0 note=60 velocity=63 time=0
EXTRACT: note_on channel=0 note=53 velocity=63 time=0
EXTRACT: note_off channel=0 note=72 velocity=63 time=0.14423075
EXTRACT: note_off channel=0 note=68 velocity=63 time=0
EXTRACT: note_off channel=0 note=65 velocity=63 time=0
EXTRACT: note_off channel=0 note=60 velocity=63 time=0
EXTRACT: note_off channel=0 note=53 velocity=63 time=0
EXTRACT: note_on channel=0 note=64 velocity=63 time=0
EXTRACT: note_on channel=0 note=59 velocity=63 time=0
EXTRACT: note_on channel=0 note=55 velocity=63 time=0
EXTRACT: note_on channel=0 note=50 velocity=63 time=0
EXTRACT: note_on channel=0 note=45 velocity=63 time=0
EXTRACT: note_on channel=0 note=40 velocity=63 time=0
EXTRACT: note_off channel=2 note=53 velocity=79 time=0
EXTRACT: note_on channel=2 note=56 velocity=79 time=0
EXTRACT: note_off channel=0 note=64 velocity=63 time=0.031249995833333332
EXTRACT: note_off channel=0 note=59 velocity=63 time=0
EXTRACT: note_off channel=0 note=55 velocity=63 time=0
EXTRACT: note_off channel=0 note=50 velocity=63 time=0
EXTRACT: note_off channel=0 note=45 velocity=63 time=0
EXTRACT: note_off channel=0 note=40 velocity=63 time=0
EXTRACT: note_on channel=0 note=64 velocity=63 time=0.11298075416666667
EXTRACT: note_on channel=0 note=59 velocity=63 time=0
EXTRACT: note_on channel=0 note=55 velocity=63 time=0
EXTRACT: note_on channel=0 note=50 velocity=63 time=0
EXTRACT: note_on channel=0 note=45 velocity=63 time=0
EXTRACT: note_on channel=0 note=40 velocity=63 time=0
EXTRACT: note_on channel=4 note=65 velocity=95 time=0
EXTRACT: note_off channel=0 note=64 velocity=63 time=0.031249995833333332
EXTRACT: note_off channel=0 note=59 velocity=63 time=0
EXTRACT: note_off channel=0 note=55 velocity=63 time=0
EXTRACT: note_off channel=0 note=50 velocity=63 time=0
EXTRACT: note_off channel=0 note=45 velocity=63 time=0
EXTRACT: note_off channel=0 note=40 velocity=63 time=0
EXTRACT: note_on channel=0 note=72 velocity=63 time=0.11298075416666667
EXTRACT: note_on channel=0 note=68 velocity=63 time=0
EXTRACT: note_on channel=0 note=65 velocity=63 time=0
EXTRACT: note_on channel=0 note=60 velocity=63 time=0
EXTRACT: note_on channel=0 note=53 velocity=63 time=0
EXTRACT: note_off channel=2 note=56 velocity=79 time=0
EXTRACT: note_on channel=2 note=51 velocity=79 time=0
EXTRACT: note_off channel=4 note=65 velocity=95 time=0
EXTRACT: note_on channel=4 note=72 velocity=95 time=0
EXTRACT: note_off channel=0 note=72 velocity=63 time=0.14423075
EXTRACT: note_off channel=0 note=68 velocity=63 time=0
EXTRACT: note_off channel=0 note=65 velocity=63 time=0
EXTRACT: note_off channel=0 note=60 velocity=63 time=0
EXTRACT: note_off channel=0 note=53 velocity=63 time=0
EXTRACT: note_on channel=0 note=72 velocity=63 time=0
EXTRACT: note_on channel=0 note=68 velocity=63 time=0
EXTRACT: note_on channel=0 note=65 velocity=63 time=0
EXTRACT: note_on channel=0 note=60 velocity=63 time=0
EXTRACT: note_on channel=0 note=53 velocity=63 time=0
EXTRACT: note_off channel=2 note=51 velocity=79 time=0
EXTRACT: note_on channel=2 note=53 velocity=54 time=0
EXTRACT: note_off channel=4 note=72 velocity=95 time=0
EXTRACT: note_on channel=4 note=72 velocity=95 time=0
EXTRACT: note_off channel=0 note=72 velocity=63 time=0.14423075
EXTRACT: note_off channel=0 note=68 velocity=63 time=0
EXTRACT: note_off channel=0 note=65 velocity=63 time=0
EXTRACT: note_off channel=0 note=60 velocity=63 time=0
EXTRACT: note_off channel=0 note=53 velocity=63 time=0
EXTRACT: note_on channel=0 note=64 velocity=63 time=0
EXTRACT: note_on channel=0 note=59 velocity=63 time=0
EXTRACT: note_on channel=0 note=55 velocity=63 time=0
EXTRACT: note_on channel=0 note=50 velocity=63 time=0
EXTRACT: note_on channel=0 note=45 velocity=63 time=0
EXTRACT: note_off channel=0 note=64 velocity=63 time=0.031249995833333332
EXTRACT: note_off channel=0 note=59 velocity=63 time=0
EXTRACT: note_off channel=0 note=55 velocity=63 time=0
EXTRACT: note_off channel=0 note=50 velocity=63 time=0
EXTRACT: note_off channel=0 note=45 velocity=63 time=0
EXTRACT: note_on channel=0 note=64 velocity=63 time=0.11298075416666667
EXTRACT: note_on channel=0 note=59 velocity=63 time=0
EXTRACT: note_on channel=0 note=55 velocity=63 time=0
EXTRACT: note_on channel=0 note=50 velocity=63 time=0
EXTRACT: note_on channel=0 note=45 velocity=63 time=0
EXTRACT: note_off channel=2 note=53 velocity=54 time=0
EXTRACT: note_on channel=2 note=56 velocity=79 time=0
EXTRACT: note_off channel=4 note=72 velocity=95 time=0
EXTRACT: note_on channel=4 note=72 velocity=95 time=0
EXTRACT: note_off channel=0 note=64 velocity=63 time=0.031249995833333332
EXTRACT: note_off channel=0 note=59 velocity=63 time=0
EXTRACT: note_off channel=0 note=55 velocity=63 time=0
EXTRACT: note_off channel=0 note=50 velocity=63 time=0
EXTRACT: note_off channel=0 note=45 velocity=63 time=0
EXTRACT: note_on channel=0 note=72 velocity=63 time=0.11298075416666667
EXTRACT: note_on channel=0 note=68 velocity=63 time=0
EXTRACT: note_on channel=0 note=65 velocity=63 time=0
EXTRACT: note_on channel=0 note=60 velocity=63 time=0
EXTRACT: note_on channel=0 note=53 velocity=63 time=0
EXTRACT: note_off channel=2 note=56 velocity=79 time=0
EXTRACT: note_off channel=4 note=72 velocity=95 time=0
EXTRACT: note_off channel=0 note=72 velocity=63 time=0.14423075
EXTRACT: note_off channel=0 note=68 velocity=63 time=0
EXTRACT: note_off channel=0 note=65 velocity=63 time=0
EXTRACT: note_off channel=0 note=60 velocity=63 time=0
EXTRACT: note_off channel=0 note=53 velocity=63 time=0
EXTRACT: note_on channel=0 note=72 velocity=63 time=0
EXTRACT: note_on channel=0 note=68 velocity=63 time=0
EXTRACT: note_on channel=0 note=65 velocity=63 time=0
EXTRACT: note_on channel=0 note=60 velocity=63 time=0
EXTRACT: note_on channel=0 note=53 velocity=63 time=0
EXTRACT: note_off channel=0 note=72 velocity=63 time=0.14423075
EXTRACT: note_off channel=0 note=68 velocity=63 time=0
EXTRACT: note_off channel=0 note=65 velocity=63 time=0
EXTRACT: note_off channel=0 note=60 velocity=63 time=0
EXTRACT: note_off channel=0 note=53 velocity=63 time=0
EXTRACT: note_on channel=0 note=64 velocity=63 time=0
EXTRACT: note_on channel=0 note=59 velocity=63 time=0
EXTRACT: note_on channel=0 note=55 velocity=63 time=0
EXTRACT: note_on channel=0 note=50 velocity=63 time=0
EXTRACT: note_on channel=0 note=45 velocity=63 time=0
EXTRACT: note_on channel=2 note=51 velocity=79 time=0
EXTRACT: note_on channel=4 note=65 velocity=95 time=0
EXTRACT: note_off channel=0 note=64 velocity=63 time=0.031249995833333332
EXTRACT: note_off channel=0 note=59 velocity=63 time=0
EXTRACT: note_off channel=0 note=55 velocity=63 time=0
EXTRACT: note_off channel=0 note=50 velocity=63 time=0
EXTRACT: note_off channel=0 note=45 velocity=63 time=0
EXTRACT: note_on channel=0 note=64 velocity=63 time=0.11298075416666667
EXTRACT: note_on channel=0 note=59 velocity=63 time=0
EXTRACT: note_on channel=0 note=55 velocity=63 time=0
EXTRACT: note_on channel=0 note=50 velocity=63 time=0
EXTRACT: note_on channel=0 note=45 velocity=63 time=0
EXTRACT: note_off channel=4 note=65 velocity=95 time=0
EXTRACT: note_on channel=4 note=68 velocity=95 time=0
EXTRACT: note_off channel=0 note=64 velocity=63 time=0.031249995833333332
EXTRACT: note_off channel=0 note=59 velocity=63 time=0
EXTRACT: note_off channel=0 note=55 velocity=63 time=0
EXTRACT: note_off channel=0 note=50 velocity=63 time=0
EXTRACT: note_off channel=0 note=45 velocity=63 time=0
EXTRACT: note_on channel=0 note=72 velocity=63 time=0.11298075416666667
EXTRACT: note_on channel=0 note=68 velocity=63 time=0
EXTRACT: note_on channel=0 note=65 velocity=63 time=0
EXTRACT: note_on channel=0 note=60 velocity=63 time=0
EXTRACT: note_on channel=0 note=53 velocity=63 time=0
EXTRACT: note_off channel=2 note=51 velocity=79 time=0
EXTRACT: note_off channel=0 note=72 velocity=63 time=0.14423075
EXTRACT: note_off channel=0 note=68 velocity=63 time=0
EXTRACT: note_off channel=0 note=65 velocity=63 time=0
EXTRACT: note_off channel=0 note=60 velocity=63 time=0
EXTRACT: note_off channel=0 note=53 velocity=63 time=0
EXTRACT: note_on channel=0 note=72 velocity=63 time=0
EXTRACT: note_on channel=0 note=68 velocity=63 time=0
EXTRACT: note_on channel=0 note=65 velocity=63 time=0
EXTRACT: note_on channel=0 note=60 velocity=63 time=0
EXTRACT: note_on channel=0 note=53 velocity=63 time=0
EXTRACT: note_off channel=4 note=68 velocity=95 time=0
EXTRACT: note_on channel=4 note=68 velocity=95 time=0
EXTRACT: note_off channel=0 note=72 velocity=63 time=0.14423075
EXTRACT: note_off channel=0 note=68 velocity=63 time=0
EXTRACT: note_off channel=0 note=65 velocity=63 time=0
EXTRACT: note_off channel=0 note=60 velocity=63 time=0
EXTRACT: note_off channel=0 note=53 velocity=63 time=0
EXTRACT: note_on channel=0 note=64 velocity=63 time=0
EXTRACT: note_on channel=0 note=59 velocity=63 time=0
EXTRACT: note_on channel=0 note=55 velocity=63 time=0
EXTRACT: note_on channel=0 note=50 velocity=63 time=0
EXTRACT: note_on channel=0 note=45 velocity=63 time=0
EXTRACT: note_on channel=2 note=48 velocity=79 time=0
EXTRACT: note_off channel=0 note=64 velocity=63 time=0.031249995833333332
EXTRACT: note_off channel=0 note=59 velocity=63 time=0
EXTRACT: note_off channel=0 note=55 velocity=63 time=0
EXTRACT: note_off channel=0 note=50 velocity=63 time=0
EXTRACT: note_off channel=0 note=45 velocity=63 time=0
EXTRACT: note_on channel=0 note=64 velocity=63 time=0.11298075416666667
EXTRACT: note_on channel=0 note=59 velocity=63 time=0
EXTRACT: note_on channel=0 note=55 velocity=63 time=0
EXTRACT: note_on channel=0 note=50 velocity=63 time=0
EXTRACT: note_on channel=0 note=45 velocity=63 time=0
EXTRACT: note_off channel=4 note=68 velocity=95 time=0
EXTRACT: note_on channel=4 note=70 velocity=95 time=0
EXTRACT: note_off channel=0 note=64 velocity=63 time=0.031249995833333332
EXTRACT: note_off channel=0 note=59 velocity=63 time=0
EXTRACT: note_off channel=0 note=55 velocity=63 time=0
EXTRACT: note_off channel=0 note=50 velocity=63 time=0
EXTRACT: note_off channel=0 note=45 velocity=63 time=0
EXTRACT: note_on channel=0 note=72 velocity=63 time=0.11298075416666667
EXTRACT: note_on channel=0 note=68 velocity=63 time=0
EXTRACT: note_on channel=0 note=65 velocity=63 time=0
EXTRACT: note_on channel=0 note=60 velocity=63 time=0
EXTRACT: note_on channel=0 note=53 velocity=63 time=0
EXTRACT: note_off channel=2 note=48 velocity=79 time=0
EXTRACT: note_on channel=2 note=46 velocity=79 time=0
EXTRACT: note_off channel=4 note=70 velocity=95 time=0
EXTRACT: note_off channel=0 note=72 velocity=63 time=0.14423075
EXTRACT: note_off channel=0 note=68 velocity=63 time=0
EXTRACT: note_off channel=0 note=65 velocity=63 time=0
EXTRACT: note_off channel=0 note=60 velocity=63 time=0
EXTRACT: note_off channel=0 note=53 velocity=63 time=0
EXTRACT: note_on channel=0 note=72 velocity=63 time=0
EXTRACT: note_on channel=0 note=68 velocity=63 time=0
EXTRACT: note_on channel=0 note=65 velocity=63 time=0
EXTRACT: note_on channel=0 note=60 velocity=63 time=0
EXTRACT: note_on channel=0 note=53 velocity=63 time=0
EXTRACT: note_off channel=2 note=46 velocity=79 time=0
EXTRACT: note_on channel=2 note=48 velocity=54 time=0
EXTRACT: note_on channel=4 note=65 velocity=95 time=0
EXTRACT: note_off channel=0 note=72 velocity=63 time=0.14423075
EXTRACT: note_off channel=0 note=68 velocity=63 time=0
EXTRACT: note_off channel=0 note=65 velocity=63 time=0
EXTRACT: note_off channel=0 note=60 velocity=63 time=0
EXTRACT: note_off channel=0 note=53 velocity=63 time=0
EXTRACT: note_on channel=0 note=64 velocity=63 time=0
EXTRACT: note_on channel=0 note=59 velocity=63 time=0
EXTRACT: note_on channel=0 note=55 velocity=63 time=0
EXTRACT: note_on channel=0 note=50 velocity=63 time=0
EXTRACT: note_on channel=0 note=45 velocity=63 time=0
EXTRACT: note_off channel=2 note=48 velocity=54 time=0
EXTRACT: note_on channel=2 note=51 velocity=79 time=0
EXTRACT: note_off channel=4 note=65 velocity=95 time=0
EXTRACT: note_on channel=4 note=65 velocity=95 time=0
EXTRACT: note_off channel=0 note=64 velocity=63 time=0.031249995833333332
EXTRACT: note_off channel=0 note=59 velocity=63 time=0
EXTRACT: note_off channel=0 note=55 velocity=63 time=0
EXTRACT: note_off channel=0 note=50 velocity=63 time=0
EXTRACT: note_off channel=0 note=45 velocity=63 time=0
EXTRACT: note_on channel=0 note=64 velocity=63 time=0.11298075416666667
EXTRACT: note_on channel=0 note=59 velocity=63 time=0
EXTRACT: note_on channel=0 note=55 velocity=63 time=0
EXTRACT: note_on channel=0 note=50 velocity=63 time=0
EXTRACT: note_on channel=0 note=45 velocity=63 time=0
EXTRACT: note_off channel=0 note=64 velocity=63 time=0.031249995833333332
EXTRACT: note_off channel=0 note=59 velocity=63 time=0
EXTRACT: note_off channel=0 note=55 velocity=63 time=0
EXTRACT: note_off channel=0 note=50 velocity=63 time=0
EXTRACT: note_off channel=0 note=45 velocity=63 time=0
EXTRACT: note_off channel=2 note=51 velocity=79 time=0.11298075416666667
EXTRACT: note_on channel=2 note=46 velocity=79 time=0
EXTRACT: note_off channel=4 note=65 velocity=95 time=0
EXTRACT: note_on channel=4 note=68 velocity=95 time=0
EXTRACT: note_off channel=2 note=46 velocity=79 time=0.14423075
EXTRACT: note_on channel=2 note=48 velocity=54 time=0
EXTRACT: note_on channel=0 note=75 velocity=63 time=0.14423075
EXTRACT: note_on channel=0 note=70 velocity=63 time=0
EXTRACT: note_on channel=0 note=67 velocity=63 time=0
EXTRACT: note_on channel=0 note=63 velocity=63 time=0
EXTRACT: note_off channel=2 note=48 velocity=54 time=0
EXTRACT: note_on channel=2 note=51 velocity=79 time=0
EXTRACT: note_off channel=4 note=68 velocity=95 time=0
EXTRACT: note_on channel=4 note=68 velocity=95 time=0
EXTRACT: note_off channel=0 note=75 velocity=63 time=0.14423075
EXTRACT: note_off channel=0 note=70 velocity=63 time=0
EXTRACT: note_off channel=0 note=67 velocity=63 time=0
EXTRACT: note_off channel=0 note=63 velocity=63 time=0
EXTRACT: note_on channel=0 note=75 velocity=63 time=0
EXTRACT: note_on channel=0 note=70 velocity=63 time=0
EXTRACT: note_on channel=0 note=67 velocity=63 time=0
EXTRACT: note_on channel=0 note=63 velocity=63 time=0
EXTRACT: note_off channel=4 note=68 velocity=95 time=0
EXTRACT: note_on channel=4 note=68 velocity=95 time=0
EXTRACT: note_off channel=0 note=75 velocity=63 time=0.14423075
EXTRACT: note_off channel=0 note=70 velocity=63 time=0
EXTRACT: note_off channel=0 note=67 velocity=63 time=0
EXTRACT: note_off channel=0 note=63 velocity=63 time=0
EXTRACT: note_on channel=0 note=75 velocity=63 time=0
EXTRACT: note_on channel=0 note=70 velocity=63 time=0
EXTRACT: note_on channel=0 note=67 velocity=63 time=0
EXTRACT: note_on channel=0 note=63 velocity=63 time=0
EXTRACT: note_off channel=2 note=51 velocity=79 time=0
EXTRACT: note_off channel=4 note=68 velocity=95 time=0
EXTRACT: note_on channel=4 note=63 velocity=95 time=0
EXTRACT: note_off channel=0 note=75 velocity=63 time=0.14423075
EXTRACT: note_off channel=0 note=70 velocity=63 time=0
EXTRACT: note_off channel=0 note=67 velocity=63 time=0
EXTRACT: note_off channel=0 note=63 velocity=63 time=0
EXTRACT: note_on channel=0 note=75 velocity=63 time=0
EXTRACT: note_on channel=0 note=70 velocity=63 time=0
EXTRACT: note_on channel=0 note=67 velocity=63 time=0
EXTRACT: note_on channel=0 note=63 velocity=63 time=0
EXTRACT: note_on channel=2 note=45 velocity=79 time=0
EXTRACT: note_off channel=2 note=45 velocity=79 time=0.031249995833333332
EXTRACT: note_off channel=0 note=75 velocity=63 time=0.11298075416666667
EXTRACT: note_off channel=0 note=70 velocity=63 time=0
EXTRACT: note_off channel=0 note=67 velocity=63 time=0
EXTRACT: note_off channel=0 note=63 velocity=63 time=0
EXTRACT: note_on channel=0 note=64 velocity=63 time=0
EXTRACT: note_on channel=0 note=59 velocity=63 time=0
EXTRACT: note_on channel=0 note=55 velocity=63 time=0
EXTRACT: note_on channel=0 note=50 velocity=63 time=0
EXTRACT: note_on channel=2 note=46 velocity=79 time=0
EXTRACT: note_off channel=4 note=63 velocity=95 time=0
EXTRACT: note_on channel=4 note=63 velocity=95 time=0
EXTRACT: note_off channel=0 note=64 velocity=63 time=0.031249995833333332
EXTRACT: note_off channel=0 note=59 velocity=63 time=0
EXTRACT: note_off channel=0 note=55 velocity=63 time=0
EXTRACT: note_off channel=0 note=50 velocity=63 time=0
EXTRACT: note_on channel=0 note=64 velocity=63 time=0.11298075416666667
EXTRACT: note_on channel=0 note=59 velocity=63 time=0
EXTRACT: note_on channel=0 note=55 velocity=63 time=0
EXTRACT: note_on channel=0 note=50 velocity=63 time=0
EXTRACT: note_off channel=4 note=63 velocity=95 time=0
EXTRACT: note_on channel=4 note=65 velocity=95 time=0
EXTRACT: note_off channel=0 note=64 velocity=63 time=0.031249995833333332
EXTRACT: note_off channel=0 note=59 velocity=63 time=0
EXTRACT: note_off channel=0 note=55 velocity=63 time=0
EXTRACT: note_off channel=0 note=50 velocity=63 time=0
EXTRACT: note_off channel=2 note=46 velocity=79 time=0.11298075416666667
EXTRACT: note_on channel=2 note=48 velocity=79 time=0
EXTRACT: note_off channel=4 note=65 velocity=95 time=0.14423075
EXTRACT: note_on channel=4 note=65 velocity=95 time=0
EXTRACT: note_on channel=0 note=72 velocity=63 time=0.14423075
EXTRACT: note_on channel=0 note=68 velocity=63 time=0
EXTRACT: note_on channel=0 note=65 velocity=63 time=0
EXTRACT: note_on channel=0 note=60 velocity=63 time=0
EXTRACT: note_on channel=0 note=53 velocity=63 time=0
EXTRACT: note_off channel=2 note=48 velocity=79 time=0
EXTRACT: note_on channel=2 note=51 velocity=79 time=0
EXTRACT: note_off channel=0 note=72 velocity=63 time=0.14423075
EXTRACT: note_off channel=0 note=68 velocity=63 time=0
EXTRACT: note_off channel=0 note=65 velocity=63 time=0
EXTRACT: note_off channel=0 note=60 velocity=63 time=0
EXTRACT: note_off channel=0 note=53 velocity=63 time=0
EXTRACT: note_on channel=0 note=72 velocity=63 time=0
EXTRACT: note_on channel=0 note=68 velocity=63 time=0
EXTRACT: note_on channel=0 note=65 velocity=63 time=0
EXTRACT: note_on channel=0 note=60 velocity=63 time=0
EXTRACT: note_on channel=0 note=53 velocity=63 time=0
EXTRACT: note_off channel=4 note=65 velocity=95 time=0
EXTRACT: note_on channel=4 note=65 velocity=95 time=0
EXTRACT: note_off channel=0 note=72 velocity=63 time=0.14423075
EXTRACT: note_off channel=0 note=68 velocity=63 time=0
EXTRACT: note_off channel=0 note=65 velocity=63 time=0
EXTRACT: note_off channel=0 note=60 velocity=63 time=0
EXTRACT: note_off channel=0 note=53 velocity=63 time=0
EXTRACT: note_on channel=0 note=72 velocity=63 time=0
EXTRACT: note_on channel=0 note=68 velocity=63 time=0
EXTRACT: note_on channel=0 note=65 velocity=63 time=0
EXTRACT: note_on channel=0 note=60 velocity=63 time=0
EXTRACT: note_on channel=0 note=53 velocity=63 time=0
EXTRACT: note_off channel=2 note=51 velocity=79 time=0
EXTRACT: note_on channel=2 note=53 velocity=79 time=0
EXTRACT: note_off channel=0 note=72 velocity=63 time=0.14423075
EXTRACT: note_off channel=0 note=68 velocity=63 time=0
EXTRACT: note_off channel=0 note=65 velocity=63 time=0
EXTRACT: note_off channel=0 note=60 velocity=63 time=0
EXTRACT: note_off channel=0 note=53 velocity=63 time=0
EXTRACT: note_on channel=0 note=72 velocity=63 time=0
EXTRACT: note_on channel=0 note=68 velocity=63 time=0
EXTRACT: note_on channel=0 note=65 velocity=63 time=0
EXTRACT: note_on channel=0 note=60 velocity=63 time=0
EXTRACT: note_on channel=0 note=53 velocity=63 time=0
EXTRACT: note_off channel=4 note=65 velocity=95 time=0
EXTRACT: note_on channel=4 note=65 velocity=95 time=0
EXTRACT: note_off channel=0 note=72 velocity=63 time=0.14423075
EXTRACT: note_off channel=0 note=68 velocity=63 time=0
EXTRACT: note_off channel=0 note=65 velocity=63 time=0
EXTRACT: note_off channel=0 note=60 velocity=63 time=0
EXTRACT: note_off channel=0 note=53 velocity=63 time=0
EXTRACT: note_on channel=0 note=64 velocity=63 time=0
EXTRACT: note_on channel=0 note=59 velocity=63 time=0
EXTRACT: note_on channel=0 note=55 velocity=63 time=0
EXTRACT: note_on channel=0 note=50 velocity=63 time=0
EXTRACT: note_on channel=0 note=45 velocity=63 time=0
EXTRACT: note_on channel=0 note=40 velocity=63 time=0
EXTRACT: note_off channel=2 note=53 velocity=79 time=0
EXTRACT: note_on channel=2 note=56 velocity=79 time=0
EXTRACT: note_off channel=4 note=65 velocity=95 time=0
EXTRACT: note_on channel=4 note=68 velocity=95 time=0
EXTRACT: note_off channel=0 note=64 velocity=63 time=0.031249995833333332
EXTRACT: note_off channel=0 note=59 velocity=63 time=0
EXTRACT: note_off channel=0 note=55 velocity=63 time=0
EXTRACT: note_off channel=0 note=50 velocity=63 time=0
EXTRACT: note_off channel=0 note=45 velocity=63 time=0
EXTRACT: note_off channel=0 note=40 velocity=63 time=0
EXTRACT: note_on channel=0 note=64 velocity=63 time=0.11298075416666667
EXTRACT: note_on channel=0 note=59 velocity=63 time=0
EXTRACT: note_on channel=0 note=55 velocity=63 time=0
EXTRACT: note_on channel=0 note=50 velocity=63 time=0
EXTRACT: note_on channel=0 note=45 velocity=63 time=0
EXTRACT: note_on channel=0 note=40 velocity=63 time=0
EXTRACT: note_off channel=4 note=68 velocity=95 time=0
EXTRACT: note_on channel=4 note=68 velocity=95 time=0
EXTRACT: note_off channel=0 note=64 velocity=63 time=0.031249995833333332
EXTRACT: note_off channel=0 note=59 velocity=63 time=0
EXTRACT: note_off channel=0 note=55 velocity=63 time=0
EXTRACT: note_off channel=0 note=50 velocity=63 time=0
EXTRACT: note_off channel=0 note=45 velocity=63 time=0
EXTRACT: note_off channel=0 note=40 velocity=63 time=0
EXTRACT: note_off channel=2 note=56 velocity=79 time=0.11298075416666667
EXTRACT: note_on channel=2 note=53 velocity=79 time=0
EXTRACT: note_off channel=4 note=68 velocity=95 time=0
EXTRACT: note_on channel=4 note=68 velocity=95 time=0
EXTRACT: note_off channel=2 note=53 velocity=79 time=0.14423075
EXTRACT: note_off channel=4 note=68 velocity=95 time=0
EXTRACT: note_on channel=4 note=70 velocity=95 time=0
EXTRACT: note_on channel=0 note=70 velocity=63 time=0.14423075
EXTRACT: note_on channel=0 note=65 velocity=63 time=0
EXTRACT: note_on channel=0 note=62 velocity=63 time=0
EXTRACT: note_on channel=0 note=58 velocity=63 time=0
EXTRACT: note_on channel=0 note=53 velocity=63 time=0
EXTRACT: note_on channel=0 note=46 velocity=63 time=0
EXTRACT: note_on channel=2 note=58 velocity=79 time=0
EXTRACT: note_off channel=0 note=70 velocity=63 time=0.14423075
EXTRACT: note_off channel=0 note=65 velocity=63 time=0
EXTRACT: note_off channel=0 note=62 velocity=63 time=0
EXTRACT: note_off channel=0 note=58 velocity=63 time=0
EXTRACT: note_off channel=0 note=53 velocity=63 time=0
EXTRACT: note_off channel=0 note=46 velocity=63 time=0
EXTRACT: note_on channel=0 note=70 velocity=63 time=0
EXTRACT: note_on channel=0 note=65 velocity=63 time=0
EXTRACT: note_on channel=0 note=62 velocity=63 time=0
EXTRACT: note_on channel=0 note=58 velocity=63 time=0
EXTRACT: note_on channel=0 note=53 velocity=63 time=0
EXTRACT: note_on channel=0 note=46 velocity=63 time=0
EXTRACT: note_off channel=2 note=58 velocity=79 time=0
EXTRACT: note_off channel=4 note=70 velocity=95 time=0
EXTRACT: note_on channel=4 note=70 velocity=95 time=0
EXTRACT: note_off channel=0 note=70 velocity=63 time=0.14423075
EXTRACT: note_off channel=0 note=65 velocity=63 time=0
EXTRACT: note_off channel=0 note=62 velocity=63 time=0
EXTRACT: note_off channel=0 note=58 velocity=63 time=0
EXTRACT: note_off channel=0 note=53 velocity=63 time=0
EXTRACT: note_off channel=0 note=46 velocity=63 time=0
EXTRACT: note_on channel=0 note=70 velocity=63 time=0
EXTRACT: note_on channel=0 note=65 velocity=63 time=0
EXTRACT: note_on channel=0 note=62 velocity=63 time=0
EXTRACT: note_on channel=0 note=58 velocity=63 time=0
EXTRACT: note_on channel=0 note=53 velocity=63 time=0
EXTRACT: note_on channel=0 note=46 velocity=63 time=0
EXTRACT: note_on channel=2 note=58 velocity=79 time=0
EXTRACT: note_off channel=4 note=70 velocity=95 time=0
EXTRACT: note_off channel=0 note=70 velocity=63 time=0.14423075
EXTRACT: note_off channel=0 note=65 velocity=63 time=0
EXTRACT: note_off channel=0 note=62 velocity=63 time=0
EXTRACT: note_off channel=0 note=58 velocity=63 time=0
EXTRACT: note_off channel=0 note=53 velocity=63 time=0
EXTRACT: note_off channel=0 note=46 velocity=63 time=0
EXTRACT: note_on channel=0 note=70 velocity=63 time=0
EXTRACT: note_on channel=0 note=65 velocity=63 time=0
EXTRACT: note_on channel=0 note=62 velocity=63 time=0
EXTRACT: note_on channel=0 note=58 velocity=63 time=0
EXTRACT: note_on channel=0 note=53 velocity=63 time=0
EXTRACT: note_on channel=0 note=46 velocity=63 time=0
EXTRACT: note_off channel=2 note=58 velocity=79 time=0
EXTRACT: note_off channel=0 note=70 velocity=63 time=0.14423075
EXTRACT: note_off channel=0 note=65 velocity=63 time=0
EXTRACT: note_off channel=0 note=62 velocity=63 time=0
EXTRACT: note_off channel=0 note=58 velocity=63 time=0
EXTRACT: note_off channel=0 note=53 velocity=63 time=0
EXTRACT: note_off channel=0 note=46 velocity=63 time=0
EXTRACT: note_on channel=0 note=64 velocity=63 time=0
EXTRACT: note_on channel=0 note=59 velocity=63 time=0
EXTRACT: note_on channel=0 note=55 velocity=63 time=0
EXTRACT: note_on channel=0 note=50 velocity=63 time=0
EXTRACT: note_on channel=0 note=45 velocity=63 time=0
EXTRACT: note_on channel=0 note=40 velocity=63 time=0
EXTRACT: note_off channel=0 note=64 velocity=63 time=0.031249995833333332
EXTRACT: note_off channel=0 note=59 velocity=63 time=0
EXTRACT: note_off channel=0 note=55 velocity=63 time=0
EXTRACT: note_off channel=0 note=50 velocity=63 time=0
EXTRACT: note_off channel=0 note=45 velocity=63 time=0
EXTRACT: note_off channel=0 note=40 velocity=63 time=0
EXTRACT: note_on channel=0 note=64 velocity=63 time=0.11298075416666667
EXTRACT: note_on channel=0 note=59 velocity=63 time=0
EXTRACT: note_on channel=0 note=55 velocity=63 time=0
EXTRACT: note_on channel=0 note=50 velocity=63 time=0
EXTRACT: note_on channel=0 note=45 velocity=63 time=0
EXTRACT: note_on channel=0 note=40 velocity=63 time=0
EXTRACT: note_on channel=2 note=56 velocity=79 time=0
EXTRACT: note_off channel=0 note=64 velocity=63 time=0.031249995833333332
EXTRACT: note_off channel=0 note=59 velocity=63 time=0
EXTRACT: note_off channel=0 note=55 velocity=63 time=0
EXTRACT: note_off channel=0 note=50 velocity=63 time=0
EXTRACT: note_off channel=0 note=45 velocity=63 time=0
EXTRACT: note_off channel=0 note=40 velocity=63 time=0
EXTRACT: note_off channel=2 note=56 velocity=79 time=0.11298075416666667
EXTRACT: note_on channel=4 note=68 velocity=95 time=0
EXTRACT: note_on channel=2 note=56 velocity=79 time=0.14423075
EXTRACT: note_off channel=4 note=68 velocity=95 time=0
EXTRACT: note_on channel=4 note=70 velocity=95 time=0
EXTRACT: note_on channel=0 note=70 velocity=63 time=0.14423075
EXTRACT: note_on channel=0 note=65 velocity=63 time=0
EXTRACT: note_on channel=0 note=62 velocity=63 time=0
EXTRACT: note_on channel=0 note=58 velocity=63 time=0
EXTRACT: note_on channel=0 note=53 velocity=63 time=0
EXTRACT: note_on channel=0 note=46 velocity=63 time=0
EXTRACT: note_off channel=2 note=56 velocity=79 time=0
EXTRACT: note_off channel=0 note=70 velocity=63 time=0.14423075
EXTRACT: note_off channel=0 note=65 velocity=63 time=0
EXTRACT: note_off channel=0 note=62 velocity=63 time=0
EXTRACT: note_off channel=0 note=58 velocity=63 time=0
EXTRACT: note_off channel=0 note=53 velocity=63 time=0
EXTRACT: note_off channel=0 note=46 velocity=63 time=0
EXTRACT: note_on channel=0 note=70 velocity=63 time=0
EXTRACT: note_on channel=0 note=65 velocity=63 time=0
EXTRACT: note_on channel=0 note=62 velocity=63 time=0
EXTRACT: note_on channel=0 note=58 velocity=63 time=0
EXTRACT: note_on channel=0 note=53 velocity=63 time=0
EXTRACT: note_on channel=0 note=46 velocity=63 time=0
EXTRACT: note_on channel=2 note=53 velocity=79 time=0
EXTRACT: note_off channel=4 note=70 velocity=95 time=0
EXTRACT: note_on channel=4 note=70 velocity=95 time=0
EXTRACT: note_off channel=0 note=70 velocity=63 time=0.14423075
EXTRACT: note_off channel=0 note=65 velocity=63 time=0
EXTRACT: note_off channel=0 note=62 velocity=63 time=0
EXTRACT: note_off channel=0 note=58 velocity=63 time=0
EXTRACT: note_off channel=0 note=53 velocity=63 time=0
EXTRACT: note_off channel=0 note=46 velocity=63 time=0
EXTRACT: note_on channel=0 note=70 velocity=63 time=0
EXTRACT: note_on channel=0 note=65 velocity=63 time=0
EXTRACT: note_on channel=0 note=62 velocity=63 time=0
EXTRACT: note_on channel=0 note=58 velocity=63 time=0
EXTRACT: note_on channel=0 note=53 velocity=63 time=0
EXTRACT: note_on channel=0 note=46 velocity=63 time=0
EXTRACT: note_off channel=2 note=53 velocity=79 time=0
EXTRACT: note_on channel=2 note=56 velocity=79 time=0
EXTRACT: note_off channel=4 note=70 velocity=95 time=0
EXTRACT: note_off channel=0 note=70 velocity=63 time=0.14423075
EXTRACT: note_off channel=0 note=65 velocity=63 time=0
EXTRACT: note_off channel=0 note=62 velocity=63 time=0
EXTRACT: note_off channel=0 note=58 velocity=63 time=0
EXTRACT: note_off channel=0 note=53 velocity=63 time=0
EXTRACT: note_off channel=0 note=46 velocity=63 time=0
EXTRACT: note_on channel=0 note=70 velocity=63 time=0
EXTRACT: note_on channel=0 note=65 velocity=63 time=0
EXTRACT: note_on channel=0 note=62 velocity=63 time=0
EXTRACT: note_on channel=0 note=58 velocity=63 time=0
EXTRACT: note_on channel=0 note=53 velocity=63 time=0
EXTRACT: note_on channel=0 note=46 velocity=63 time=0
EXTRACT: note_off channel=0 note=70 velocity=63 time=0.14423075
EXTRACT: note_off channel=0 note=65 velocity=63 time=0
EXTRACT: note_off channel=0 note=62 velocity=63 time=0
EXTRACT: note_off channel=0 note=58 velocity=63 time=0
EXTRACT: note_off channel=0 note=53 velocity=63 time=0
EXTRACT: note_off channel=0 note=46 velocity=63 time=0
EXTRACT: note_on channel=0 note=64 velocity=63 time=0
EXTRACT: note_on channel=0 note=59 velocity=63 time=0
EXTRACT: note_on channel=0 note=55 velocity=63 time=0
EXTRACT: note_on channel=0 note=50 velocity=63 time=0
EXTRACT: note_on channel=0 note=45 velocity=63 time=0
EXTRACT: note_on channel=0 note=40 velocity=63 time=0
EXTRACT: note_off channel=2 note=56 velocity=79 time=0
EXTRACT: note_on channel=2 note=53 velocity=79 time=0
EXTRACT: note_off channel=0 note=64 velocity=63 time=0.031249995833333332
EXTRACT: note_off channel=0 note=59 velocity=63 time=0
EXTRACT: note_off channel=0 note=55 velocity=63 time=0
EXTRACT: note_off channel=0 note=50 velocity=63 time=0
EXTRACT: note_off channel=0 note=45 velocity=63 time=0
EXTRACT: note_off channel=0 note=40 velocity=63 time=0
EXTRACT: note_on channel=0 note=64 velocity=63 time=0.11298075416666667
EXTRACT: note_on channel=0 note=59 velocity=63 time=0
EXTRACT: note_on channel=0 note=55 velocity=63 time=0
EXTRACT: note_on channel=0 note=50 velocity=63 time=0
EXTRACT: note_on channel=0 note=45 velocity=63 time=0
EXTRACT: note_on channel=0 note=40 velocity=63 time=0
EXTRACT: note_off channel=2 note=53 velocity=79 time=0
EXTRACT: note_on channel=4 note=65 velocity=95 time=0
EXTRACT: note_off channel=0 note=64 velocity=63 time=0.031249995833333332
EXTRACT: note_off channel=0 note=59 velocity=63 time=0
EXTRACT: note_off channel=0 note=55 velocity=63 time=0
EXTRACT: note_off channel=0 note=50 velocity=63 time=0
EXTRACT: note_off channel=0 note=45 velocity=63 time=0
EXTRACT: note_off channel=0 note=40 velocity=63 time=0
EXTRACT: note_on channel=2 note=53 velocity=79 time=0.11298075416666667
EXTRACT: note_off channel=4 note=65 velocity=95 time=0
EXTRACT: note_on channel=4 note=68 velocity=95 time=0
EXTRACT: note_off channel=2 note=53 velocity=79 time=0.14423075
EXTRACT: note_off channel=4 note=68 velocity=95 time=0
EXTRACT: note_on channel=4 note=70 velocity=95 time=0
EXTRACT: note_on channel=0 note=70 velocity=63 time=0.14423075
EXTRACT: note_on channel=0 note=65 velocity=63 time=0
EXTRACT: note_on channel=0 note=62 velocity=63 time=0
EXTRACT: note_on channel=0 note=58 velocity=63 time=0
EXTRACT: note_on channel=0 note=53 velocity=63 time=0
EXTRACT: note_on channel=0 note=46 velocity=63 time=0
EXTRACT: note_on channel=2 note=58 velocity=79 time=0
EXTRACT: note_off channel=0 note=70 velocity=63 time=0.14423075
EXTRACT: note_off channel=0 note=65 velocity=63 time=0
EXTRACT: note_off channel=0 note=62 velocity=63 time=0
EXTRACT: note_off channel=0 note=58 velocity=63 time=0
EXTRACT: note_off channel=0 note=53 velocity=63 time=0
EXTRACT: note_off channel=0 note=46 velocity=63 time=0
EXTRACT: note_on channel=0 note=70 velocity=63 time=0
EXTRACT: note_on channel=0 note=65 velocity=63 time=0
EXTRACT: note_on channel=0 note=62 velocity=63 time=0
EXTRACT: note_on channel=0 note=58 velocity=63 time=0
EXTRACT: note_on channel=0 note=53 velocity=63 time=0
EXTRACT: note_on channel=0 note=46 velocity=63 time=0
EXTRACT: note_off channel=2 note=58 velocity=79 time=0
EXTRACT: note_off channel=4 note=70 velocity=95 time=0
EXTRACT: note_on channel=4 note=70 velocity=95 time=0
EXTRACT: note_off channel=0 note=70 velocity=63 time=0.14423075
EXTRACT: note_off channel=0 note=65 velocity=63 time=0
EXTRACT: note_off channel=0 note=62 velocity=63 time=0
EXTRACT: note_off channel=0 note=58 velocity=63 time=0
EXTRACT: note_off channel=0 note=53 velocity=63 time=0
EXTRACT: note_off channel=0 note=46 velocity=63 time=0
EXTRACT: note_on channel=0 note=70 velocity=63 time=0
EXTRACT: note_on channel=0 note=65 velocity=63 time=0
EXTRACT: note_on channel=0 note=62 velocity=63 time=0
EXTRACT: note_on channel=0 note=58 velocity=63 time=0
EXTRACT: note_on channel=0 note=53 velocity=63 time=0
EXTRACT: note_on channel=0 note=46 velocity=63 time=0
EXTRACT: note_on channel=2 note=58 velocity=79 time=0
EXTRACT: note_off channel=4 note=70 velocity=95 time=0
EXTRACT: note_off channel=0 note=70 velocity=63 time=0.14423075
EXTRACT: note_off channel=0 note=65 velocity=63 time=0
EXTRACT: note_off channel=0 note=62 velocity=63 time=0
EXTRACT: note_off channel=0 note=58 velocity=63 time=0
EXTRACT: note_off channel=0 note=53 velocity=63 time=0
EXTRACT: note_off channel=0 note=46 velocity=63 time=0
EXTRACT: note_on channel=0 note=70 velocity=63 time=0
EXTRACT: note_on channel=0 note=65 velocity=63 time=0
EXTRACT: note_on channel=0 note=62 velocity=63 time=0
EXTRACT: note_on channel=0 note=58 velocity=63 time=0
EXTRACT: note_on channel=0 note=53 velocity=63 time=0
EXTRACT: note_on channel=0 note=46 velocity=63 time=0
EXTRACT: note_off channel=2 note=58 velocity=79 time=0
EXTRACT: note_on channel=4 note=68 velocity=95 time=0
EXTRACT: note_off channel=0 note=70 velocity=63 time=0.14423075
EXTRACT: note_off channel=0 note=65 velocity=63 time=0
EXTRACT: note_off channel=0 note=62 velocity=63 time=0
EXTRACT: note_off channel=0 note=58 velocity=63 time=0
EXTRACT: note_off channel=0 note=53 velocity=63 time=0
EXTRACT: note_off channel=0 note=46 velocity=63 time=0
EXTRACT: note_on channel=0 note=64 velocity=63 time=0
EXTRACT: note_on channel=0 note=59 velocity=63 time=0
EXTRACT: note_on channel=0 note=55 velocity=63 time=0
EXTRACT: note_on channel=0 note=50 velocity=63 time=0
EXTRACT: note_on channel=0 note=45 velocity=63 time=0
EXTRACT: note_on channel=0 note=40 velocity=63 time=0
EXTRACT: note_off channel=0 note=64 velocity=63 time=0.031249995833333332
EXTRACT: note_off channel=0 note=59 velocity=63 time=0
EXTRACT: note_off channel=0 note=55 velocity=63 time=0
EXTRACT: note_off channel=0 note=50 velocity=63 time=0
EXTRACT: note_off channel=0 note=45 velocity=63 time=0
EXTRACT: note_off channel=0 note=40 velocity=63 time=0
EXTRACT: note_on channel=0 note=64 velocity=63 time=0.11298075416666667
EXTRACT: note_on channel=0 note=59 velocity=63 time=0
EXTRACT: note_on channel=0 note=55 velocity=63 time=0
EXTRACT: note_on channel=0 note=50 velocity=63 time=0
EXTRACT: note_on channel=0 note=45 velocity=63 time=0
EXTRACT: note_on channel=0 note=40 velocity=63 time=0
EXTRACT: note_on channel=2 note=56 velocity=79 time=0
EXTRACT: note_off channel=4 note=68 velocity=95 time=0
EXTRACT: note_on channel=4 note=70 velocity=95 time=0
EXTRACT: note_off channel=0 note=64 velocity=63 time=0.031249995833333332
EXTRACT: note_off channel=0 note=59 velocity=63 time=0
EXTRACT: note_off channel=0 note=55 velocity=63 time=0
EXTRACT: note_off channel=0 note=50 velocity=63 time=0
EXTRACT: note_off channel=0 note=45 velocity=63 time=0
EXTRACT: note_off channel=0 note=40 velocity=63 time=0
EXTRACT: note_off channel=2 note=56 velocity=79 time=0.11298075416666667
EXTRACT: note_off channel=4 note=70 velocity=95 time=0
EXTRACT: note_on channel=4 note=72 velocity=95 time=0
EXTRACT: note_on channel=2 note=56 velocity=79 time=0.14423075
EXTRACT: note_off channel=4 note=72 velocity=95 time=0
EXTRACT: note_on channel=4 note=70 velocity=95 time=0
EXTRACT: note_on channel=0 note=70 velocity=63 time=0.14423075
EXTRACT: note_on channel=0 note=65 velocity=63 time=0
EXTRACT: note_on channel=0 note=62 velocity=63 time=0
EXTRACT: note_on channel=0 note=58 velocity=63 time=0
EXTRACT: note_on channel=0 note=53 velocity=63 time=0
EXTRACT: note_on channel=0 note=46 velocity=63 time=0
EXTRACT: note_off channel=2 note=56 velocity=79 time=0
EXTRACT: note_off channel=0 note=70 velocity=63 time=0.14423075
EXTRACT: note_off channel=0 note=65 velocity=63 time=0
EXTRACT: note_off channel=0 note=62 velocity=63 time=0
EXTRACT: note_off channel=0 note=58 velocity=63 time=0
EXTRACT: note_off channel=0 note=53 velocity=63 time=0
EXTRACT: note_off channel=0 note=46 velocity=63 time=0
EXTRACT: note_on channel=0 note=70 velocity=63 time=0
EXTRACT: note_on channel=0 note=65 velocity=63 time=0
EXTRACT: note_on channel=0 note=62 velocity=63 time=0
EXTRACT: note_on channel=0 note=58 velocity=63 time=0
EXTRACT: note_on channel=0 note=53 velocity=63 time=0
EXTRACT: note_on channel=0 note=46 velocity=63 time=0
EXTRACT: note_on channel=2 note=53 velocity=79 time=0
EXTRACT: note_off channel=4 note=70 velocity=95 time=0
EXTRACT: note_on channel=4 note=70 velocity=95 time=0
EXTRACT: note_off channel=0 note=70 velocity=63 time=0.14423075
EXTRACT: note_off channel=0 note=65 velocity=63 time=0
EXTRACT: note_off channel=0 note=62 velocity=63 time=0
EXTRACT: note_off channel=0 note=58 velocity=63 time=0
EXTRACT: note_off channel=0 note=53 velocity=63 time=0
EXTRACT: note_off channel=0 note=46 velocity=63 time=0
EXTRACT: note_on channel=0 note=70 velocity=63 time=0
EXTRACT: note_on channel=0 note=65 velocity=63 time=0
EXTRACT: note_on channel=0 note=62 velocity=63 time=0
EXTRACT: note_on channel=0 note=58 velocity=63 time=0
EXTRACT: note_on channel=0 note=53 velocity=63 time=0
EXTRACT: note_on channel=0 note=46 velocity=63 time=0
EXTRACT: note_off channel=2 note=53 velocity=79 time=0
EXTRACT: note_on channel=2 note=56 velocity=79 time=0
EXTRACT: note_off channel=4 note=70 velocity=95 time=0
EXTRACT: note_off channel=0 note=70 velocity=63 time=0.14423075
EXTRACT: note_off channel=0 note=65 velocity=63 time=0
EXTRACT: note_off channel=0 note=62 velocity=63 time=0
EXTRACT: note_off channel=0 note=58 velocity=63 time=0
EXTRACT: note_off channel=0 note=53 velocity=63 time=0
EXTRACT: note_off channel=0 note=46 velocity=63 time=0
EXTRACT: note_on channel=0 note=70 velocity=63 time=0
EXTRACT: note_on channel=0 note=65 velocity=63 time=0
EXTRACT: note_on channel=0 note=62 velocity=63 time=0
EXTRACT: note_on channel=0 note=58 velocity=63 time=0
EXTRACT: note_on channel=0 note=53 velocity=63 time=0
EXTRACT: note_on channel=0 note=46 velocity=63 time=0
EXTRACT: note_off channel=0 note=70 velocity=63 time=0.14423075
EXTRACT: note_off channel=0 note=65 velocity=63 time=0
EXTRACT: note_off channel=0 note=62 velocity=63 time=0
EXTRACT: note_off channel=0 note=58 velocity=63 time=0
EXTRACT: note_off channel=0 note=53 velocity=63 time=0
EXTRACT: note_off channel=0 note=46 velocity=63 time=0
EXTRACT: note_on channel=0 note=64 velocity=63 time=0
EXTRACT: note_on channel=0 note=59 velocity=63 time=0
EXTRACT: note_on channel=0 note=55 velocity=63 time=0
EXTRACT: note_on channel=0 note=50 velocity=63 time=0
EXTRACT: note_on channel=0 note=45 velocity=63 time=0
EXTRACT: note_on channel=0 note=40 velocity=63 time=0
EXTRACT: note_off channel=2 note=56 velocity=79 time=0
EXTRACT: note_on channel=2 note=53 velocity=79 time=0
EXTRACT: note_off channel=0 note=64 velocity=63 time=0.031249995833333332
EXTRACT: note_off channel=0 note=59 velocity=63 time=0
EXTRACT: note_off channel=0 note=55 velocity=63 time=0
EXTRACT: note_off channel=0 note=50 velocity=63 time=0
EXTRACT: note_off channel=0 note=45 velocity=63 time=0
EXTRACT: note_off channel=0 note=40 velocity=63 time=0
EXTRACT: note_on channel=0 note=64 velocity=63 time=0.11298075416666667
EXTRACT: note_on channel=0 note=59 velocity=63 time=0
EXTRACT: note_on channel=0 note=55 velocity=63 time=0
EXTRACT: note_on channel=0 note=50 velocity=63 time=0
EXTRACT: note_on channel=0 note=45 velocity=63 time=0
EXTRACT: note_on channel=0 note=40 velocity=63 time=0
EXTRACT: note_off channel=2 note=53 velocity=79 time=0
EXTRACT: note_on channel=4 note=70 velocity=95 time=0
EXTRACT: note_on channel=4 note=65 velocity=95 time=0
EXTRACT: note_off channel=0 note=64 velocity=63 time=0.031249995833333332
EXTRACT: note_off channel=0 note=59 velocity=63 time=0
EXTRACT: note_off channel=0 note=55 velocity=63 time=0
EXTRACT: note_off channel=0 note=50 velocity=63 time=0
EXTRACT: note_off channel=0 note=45 velocity=63 time=0
EXTRACT: note_off channel=0 note=40 velocity=63 time=0
EXTRACT: note_on channel=2 note=53 velocity=79 time=0.11298075416666667
EXTRACT: note_off channel=4 note=70 velocity=95 time=0
EXTRACT: note_off channel=4 note=65 velocity=95 time=0
EXTRACT: note_on channel=4 note=68 velocity=95 time=0
EXTRACT: note_on channel=4 note=72 velocity=95 time=0
EXTRACT: note_off channel=2 note=53 velocity=79 time=0.14423075
EXTRACT: note_off channel=4 note=68 velocity=95 time=0
EXTRACT: note_off channel=4 note=72 velocity=95 time=0
EXTRACT: note_on channel=4 note=73 velocity=95 time=0
EXTRACT: note_on channel=4 note=70 velocity=95 time=0
EXTRACT: note_on channel=0 note=70 velocity=63 time=0.14423075
EXTRACT: note_on channel=0 note=65 velocity=63 time=0
EXTRACT: note_on channel=0 note=62 velocity=63 time=0
EXTRACT: note_on channel=0 note=58 velocity=63 time=0
EXTRACT: note_on channel=0 note=53 velocity=63 time=0
EXTRACT: note_on channel=0 note=46 velocity=63 time=0
EXTRACT: note_on channel=2 note=58 velocity=79 time=0
EXTRACT: note_off channel=0 note=70 velocity=63 time=0.14423075
EXTRACT: note_off channel=0 note=65 velocity=63 time=0
EXTRACT: note_off channel=0 note=62 velocity=63 time=0
EXTRACT: note_off channel=0 note=58 velocity=63 time=0
EXTRACT: note_off channel=0 note=53 velocity=63 time=0
EXTRACT: note_off channel=0 note=46 velocity=63 time=0
EXTRACT: note_on channel=0 note=70 velocity=63 time=0
EXTRACT: note_on channel=0 note=65 velocity=63 time=0
EXTRACT: note_on channel=0 note=62 velocity=63 time=0
EXTRACT: note_on channel=0 note=58 velocity=63 time=0
EXTRACT: note_on channel=0 note=53 velocity=63 time=0
EXTRACT: note_on channel=0 note=46 velocity=63 time=0
EXTRACT: note_off channel=2 note=58 velocity=79 time=0
EXTRACT: note_off channel=4 note=73 velocity=95 time=0
EXTRACT: note_off channel=4 note=70 velocity=95 time=0
EXTRACT: note_on channel=4 note=73 velocity=95 time=0
EXTRACT: note_on channel=4 note=70 velocity=95 time=0
EXTRACT: note_off channel=0 note=70 velocity=63 time=0.14423075
EXTRACT: note_off channel=0 note=65 velocity=63 time=0
EXTRACT: note_off channel=0 note=62 velocity=63 time=0
EXTRACT: note_off channel=0 note=58 velocity=63 time=0
EXTRACT: note_off channel=0 note=53 velocity=63 time=0
EXTRACT: note_off channel=0 note=46 velocity=63 time=0
EXTRACT: note_on channel=0 note=70 velocity=63 time=0
EXTRACT: note_on channel=0 note=65 velocity=63 time=0
EXTRACT: note_on channel=0 note=62 velocity=63 time=0
EXTRACT: note_on channel=0 note=58 velocity=63 time=0
EXTRACT: note_on channel=0 note=53 velocity=63 time=0
EXTRACT: note_on channel=0 note=46 velocity=63 time=0
EXTRACT: note_on channel=2 note=58 velocity=79 time=0
EXTRACT: note_off channel=4 note=73 velocity=95 time=0
EXTRACT: note_off channel=4 note=70 velocity=95 time=0
EXTRACT: note_off channel=0 note=70 velocity=63 time=0.14423075
EXTRACT: note_off channel=0 note=65 velocity=63 time=0
EXTRACT: note_off channel=0 note=62 velocity=63 time=0
EXTRACT: note_off channel=0 note=58 velocity=63 time=0
EXTRACT: note_off channel=0 note=53 velocity=63 time=0
EXTRACT: note_off channel=0 note=46 velocity=63 time=0
EXTRACT: note_on channel=0 note=70 velocity=63 time=0
EXTRACT: note_on channel=0 note=65 velocity=63 time=0
EXTRACT: note_on channel=0 note=62 velocity=63 time=0
EXTRACT: note_on channel=0 note=58 velocity=63 time=0
EXTRACT: note_on channel=0 note=53 velocity=63 time=0
EXTRACT: note_on channel=0 note=46 velocity=63 time=0
EXTRACT: note_off channel=2 note=58 velocity=79 time=0
EXTRACT: note_off channel=0 note=70 velocity=63 time=0.14423075
EXTRACT: note_off channel=0 note=65 velocity=63 time=0
EXTRACT: note_off channel=0 note=62 velocity=63 time=0
EXTRACT: note_off channel=0 note=58 velocity=63 time=0
EXTRACT: note_off channel=0 note=53 velocity=63 time=0
EXTRACT: note_off channel=0 note=46 velocity=63 time=0
EXTRACT: note_on channel=0 note=64 velocity=63 time=0
EXTRACT: note_on channel=0 note=59 velocity=63 time=0
EXTRACT: note_on channel=0 note=55 velocity=63 time=0
EXTRACT: note_on channel=0 note=50 velocity=63 time=0
EXTRACT: note_on channel=0 note=45 velocity=63 time=0
EXTRACT: note_on channel=0 note=40 velocity=63 time=0
EXTRACT: note_off channel=0 note=64 velocity=63 time=0.031249995833333332
EXTRACT: note_off channel=0 note=59 velocity=63 time=0
EXTRACT: note_off channel=0 note=55 velocity=63 time=0
EXTRACT: note_off channel=0 note=50 velocity=63 time=0
EXTRACT: note_off channel=0 note=45 velocity=63 time=0
EXTRACT: note_off channel=0 note=40 velocity=63 time=0
EXTRACT: note_on channel=0 note=64 velocity=63 time=0.11298075416666667
EXTRACT: note_on channel=0 note=59 velocity=63 time=0
EXTRACT: note_on channel=0 note=55 velocity=63 time=0
EXTRACT: note_on channel=0 note=50 velocity=63 time=0
EXTRACT: note_on channel=0 note=45 velocity=63 time=0
EXTRACT: note_on channel=0 note=40 velocity=63 time=0
EXTRACT: note_on channel=2 note=56 velocity=79 time=0
EXTRACT: note_on channel=4 note=68 velocity=95 time=0
EXTRACT: note_on channel=4 note=72 velocity=95 time=0
EXTRACT: note_off channel=0 note=64 velocity=63 time=0.031249995833333332
EXTRACT: note_off channel=0 note=59 velocity=63 time=0
EXTRACT: note_off channel=0 note=55 velocity=63 time=0
EXTRACT: note_off channel=0 note=50 velocity=63 time=0
EXTRACT: note_off channel=0 note=45 velocity=63 time=0
EXTRACT: note_off channel=0 note=40 velocity=63 time=0
EXTRACT: note_off channel=2 note=56 velocity=79 time=0.11298075416666667
EXTRACT: note_off channel=4 note=68 velocity=95 time=0
EXTRACT: note_off channel=4 note=72 velocity=95 time=0
EXTRACT: note_on channel=4 note=72 velocity=95 time=0
EXTRACT: note_on channel=4 note=68 velocity=95 time=0
EXTRACT: note_on channel=2 note=56 velocity=79 time=0.14423075
EXTRACT: note_off channel=4 note=72 velocity=95 time=0
EXTRACT: note_off channel=4 note=68 velocity=95 time=0
EXTRACT: note_on channel=4 note=70 velocity=95 time=0
EXTRACT: note_on channel=4 note=73 velocity=95 time=0
EXTRACT: note_on channel=0 note=70 velocity=63 time=0.14423075
EXTRACT: note_on channel=0 note=65 velocity=63 time=0
EXTRACT: note_on channel=0 note=62 velocity=63 time=0
EXTRACT: note_on channel=0 note=58 velocity=63 time=0
EXTRACT: note_on channel=0 note=53 velocity=63 time=0
EXTRACT: note_on channel=0 note=46 velocity=63 time=0
EXTRACT: note_off channel=2 note=56 velocity=79 time=0
EXTRACT: note_off channel=0 note=70 velocity=63 time=0.14423075
EXTRACT: note_off channel=0 note=65 velocity=63 time=0
EXTRACT: note_off channel=0 note=62 velocity=63 time=0
EXTRACT: note_off channel=0 note=58 velocity=63 time=0
EXTRACT: note_off channel=0 note=53 velocity=63 time=0
EXTRACT: note_off channel=0 note=46 velocity=63 time=0
EXTRACT: note_on channel=0 note=70 velocity=63 time=0
EXTRACT: note_on channel=0 note=65 velocity=63 time=0
EXTRACT: note_on channel=0 note=62 velocity=63 time=0
EXTRACT: note_on channel=0 note=58 velocity=63 time=0
EXTRACT: note_on channel=0 note=53 velocity=63 time=0
EXTRACT: note_on channel=0 note=46 velocity=63 time=0
EXTRACT: note_on channel=2 note=53 velocity=79 time=0
EXTRACT: note_off channel=4 note=70 velocity=95 time=0
EXTRACT: note_off channel=4 note=73 velocity=95 time=0
EXTRACT: note_on channel=4 note=73 velocity=95 time=0
EXTRACT: note_on channel=4 note=70 velocity=95 time=0
EXTRACT: note_off channel=0 note=70 velocity=63 time=0.14423075
EXTRACT: note_off channel=0 note=65 velocity=63 time=0
EXTRACT: note_off channel=0 note=62 velocity=63 time=0
EXTRACT: note_off channel=0 note=58 velocity=63 time=0
EXTRACT: note_off channel=0 note=53 velocity=63 time=0
EXTRACT: note_off channel=0 note=46 velocity=63 time=0
EXTRACT: note_on channel=0 note=70 velocity=63 time=0
EXTRACT: note_on channel=0 note=65 velocity=63 time=0
EXTRACT: note_on channel=0 note=62 velocity=63 time=0
EXTRACT: note_on channel=0 note=58 velocity=63 time=0
EXTRACT: note_on channel=0 note=53 velocity=63 time=0
EXTRACT: note_on channel=0 note=46 velocity=63 time=0
EXTRACT: note_off channel=2 note=53 velocity=79 time=0
EXTRACT: note_on channel=2 note=56 velocity=79 time=0
EXTRACT: note_off channel=4 note=73 velocity=95 time=0
EXTRACT: note_off channel=4 note=70 velocity=95 time=0
EXTRACT: note_off channel=0 note=70 velocity=63 time=0.14423075
EXTRACT: note_off channel=0 note=65 velocity=63 time=0
EXTRACT: note_off channel=0 note=62 velocity=63 time=0
EXTRACT: note_off channel=0 note=58 velocity=63 time=0
EXTRACT: note_off channel=0 note=53 velocity=63 time=0
EXTRACT: note_off channel=0 note=46 velocity=63 time=0
EXTRACT: note_on channel=0 note=70 velocity=63 time=0
EXTRACT: note_on channel=0 note=65 velocity=63 time=0
EXTRACT: note_on channel=0 note=62 velocity=63 time=0
EXTRACT: note_on channel=0 note=58 velocity=63 time=0
EXTRACT: note_on channel=0 note=53 velocity=63 time=0
EXTRACT: note_on channel=0 note=46 velocity=63 time=0
EXTRACT: note_off channel=0 note=70 velocity=63 time=0.14423075
EXTRACT: note_off channel=0 note=65 velocity=63 time=0
EXTRACT: note_off channel=0 note=62 velocity=63 time=0
EXTRACT: note_off channel=0 note=58 velocity=63 time=0
EXTRACT: note_off channel=0 note=53 velocity=63 time=0
EXTRACT: note_off channel=0 note=46 velocity=63 time=0
EXTRACT: note_on channel=0 note=64 velocity=63 time=0
EXTRACT: note_on channel=0 note=59 velocity=63 time=0
EXTRACT: note_on channel=0 note=55 velocity=63 time=0
EXTRACT: note_on channel=0 note=50 velocity=63 time=0
EXTRACT: note_on channel=0 note=45 velocity=63 time=0
EXTRACT: note_on channel=0 note=40 velocity=63 time=0
EXTRACT: note_off channel=2 note=56 velocity=79 time=0
EXTRACT: note_on channel=2 note=53 velocity=79 time=0
EXTRACT: note_off channel=0 note=64 velocity=63 time=0.031249995833333332
EXTRACT: note_off channel=0 note=59 velocity=63 time=0
EXTRACT: note_off channel=0 note=55 velocity=63 time=0
EXTRACT: note_off channel=0 note=50 velocity=63 time=0
EXTRACT: note_off channel=0 note=45 velocity=63 time=0
EXTRACT: note_off channel=0 note=40 velocity=63 time=0
EXTRACT: note_on channel=0 note=64 velocity=63 time=0.11298075416666667
EXTRACT: note_on channel=0 note=59 velocity=63 time=0
EXTRACT: note_on channel=0 note=55 velocity=63 time=0
EXTRACT: note_on channel=0 note=50 velocity=63 time=0
EXTRACT: note_on channel=0 note=45 velocity=63 time=0
EXTRACT: note_on channel=0 note=40 velocity=63 time=0
EXTRACT: note_off channel=2 note=53 velocity=79 time=0
EXTRACT: note_on channel=4 note=65 velocity=95 time=0
EXTRACT: note_on channel=4 note=70 velocity=95 time=0
EXTRACT: note_off channel=0 note=64 velocity=63 time=0.031249995833333332
EXTRACT: note_off channel=0 note=59 velocity=63 time=0
EXTRACT: note_off channel=0 note=55 velocity=63 time=0
EXTRACT: note_off channel=0 note=50 velocity=63 time=0
EXTRACT: note_off channel=0 note=45 velocity=63 time=0
EXTRACT: note_off channel=0 note=40 velocity=63 time=0
EXTRACT: note_on channel=2 note=53 velocity=79 time=0.11298075416666667
EXTRACT: note_off channel=4 note=65 velocity=95 time=0
EXTRACT: note_off channel=4 note=70 velocity=95 time=0
EXTRACT: note_on channel=4 note=72 velocity=95 time=0
EXTRACT: note_on channel=4 note=68 velocity=95 time=0
EXTRACT: note_off channel=2 note=53 velocity=79 time=0.14423075
EXTRACT: note_off channel=4 note=72 velocity=95 time=0
EXTRACT: note_off channel=4 note=68 velocity=95 time=0
EXTRACT: note_on channel=4 note=70 velocity=95 time=0
EXTRACT: note_on channel=4 note=73 velocity=95 time=0
EXTRACT: note_on channel=0 note=70 velocity=63 time=0.14423075
EXTRACT: note_on channel=0 note=65 velocity=63 time=0
EXTRACT: note_on channel=0 note=62 velocity=63 time=0
EXTRACT: note_on channel=0 note=58 velocity=63 time=0
EXTRACT: note_on channel=0 note=53 velocity=63 time=0
EXTRACT: note_on channel=0 note=46 velocity=63 time=0
EXTRACT: note_on channel=2 note=58 velocity=79 time=0
EXTRACT: note_off channel=0 note=70 velocity=63 time=0.14423075
EXTRACT: note_off channel=0 note=65 velocity=63 time=0
EXTRACT: note_off channel=0 note=62 velocity=63 time=0
EXTRACT: note_off channel=0 note=58 velocity=63 time=0
EXTRACT: note_off channel=0 note=53 velocity=63 time=0
EXTRACT: note_off channel=0 note=46 velocity=63 time=0
EXTRACT: note_on channel=0 note=70 velocity=63 time=0
EXTRACT: note_on channel=0 note=65 velocity=63 time=0
EXTRACT: note_on channel=0 note=62 velocity=63 time=0
EXTRACT: note_on channel=0 note=58 velocity=63 time=0
EXTRACT: note_on channel=0 note=53 velocity=63 time=0
EXTRACT: note_on channel=0 note=46 velocity=63 time=0
EXTRACT: note_off channel=2 note=58 velocity=79 time=0
EXTRACT: note_off channel=4 note=70 velocity=95 time=0
EXTRACT: note_off channel=4 note=73 velocity=95 time=0
EXTRACT: note_on channel=4 note=73 velocity=95 time=0
EXTRACT: note_on channel=4 note=70 velocity=95 time=0
EXTRACT: note_off channel=0 note=70 velocity=63 time=0.14423075
EXTRACT: note_off channel=0 note=65 velocity=63 time=0
EXTRACT: note_off channel=0 note=62 velocity=63 time=0
EXTRACT: note_off channel=0 note=58 velocity=63 time=0
EXTRACT: note_off channel=0 note=53 velocity=63 time=0
EXTRACT: note_off channel=0 note=46 velocity=63 time=0
EXTRACT: note_on channel=0 note=70 velocity=63 time=0
EXTRACT: note_on channel=0 note=65 velocity=63 time=0
EXTRACT: note_on channel=0 note=62 velocity=63 time=0
EXTRACT: note_on channel=0 note=58 velocity=63 time=0
EXTRACT: note_on channel=0 note=53 velocity=63 time=0
EXTRACT: note_on channel=0 note=46 velocity=63 time=0
EXTRACT: note_on channel=2 note=58 velocity=79 time=0
EXTRACT: note_off channel=0 note=70 velocity=63 time=0.14423075
EXTRACT: note_off channel=0 note=65 velocity=63 time=0
EXTRACT: note_off channel=0 note=62 velocity=63 time=0
EXTRACT: note_off channel=0 note=58 velocity=63 time=0
EXTRACT: note_off channel=0 note=53 velocity=63 time=0
EXTRACT: note_off channel=0 note=46 velocity=63 time=0
EXTRACT: note_on channel=0 note=70 velocity=63 time=0
EXTRACT: note_on channel=0 note=65 velocity=63 time=0
EXTRACT: note_on channel=0 note=62 velocity=63 time=0
EXTRACT: note_on channel=0 note=58 velocity=63 time=0
EXTRACT: note_on channel=0 note=53 velocity=63 time=0
EXTRACT: note_on channel=0 note=46 velocity=63 time=0
EXTRACT: note_off channel=2 note=58 velocity=79 time=0
EXTRACT: note_off channel=4 note=73 velocity=95 time=0
EXTRACT: note_off channel=4 note=70 velocity=95 time=0
EXTRACT: note_on channel=4 note=72 velocity=95 time=0
EXTRACT: note_on channel=4 note=68 velocity=95 time=0
EXTRACT: note_off channel=0 note=70 velocity=63 time=0.14423075
EXTRACT: note_off channel=0 note=65 velocity=63 time=0
EXTRACT: note_off channel=0 note=62 velocity=63 time=0
EXTRACT: note_off channel=0 note=58 velocity=63 time=0
EXTRACT: note_off channel=0 note=53 velocity=63 time=0
EXTRACT: note_off channel=0 note=46 velocity=63 time=0
EXTRACT: note_on channel=0 note=64 velocity=63 time=0
EXTRACT: note_on channel=0 note=59 velocity=63 time=0
EXTRACT: note_on channel=0 note=55 velocity=63 time=0
EXTRACT: note_on channel=0 note=50 velocity=63 time=0
EXTRACT: note_on channel=0 note=45 velocity=63 time=0
EXTRACT: note_on channel=0 note=40 velocity=63 time=0
EXTRACT: note_off channel=0 note=64 velocity=63 time=0.031249995833333332
EXTRACT: note_off channel=0 note=59 velocity=63 time=0
EXTRACT: note_off channel=0 note=55 velocity=63 time=0
EXTRACT: note_off channel=0 note=50 velocity=63 time=0
EXTRACT: note_off channel=0 note=45 velocity=63 time=0
EXTRACT: note_off channel=0 note=40 velocity=63 time=0
EXTRACT: note_on channel=0 note=64 velocity=63 time=0.11298075416666667
EXTRACT: note_on channel=0 note=59 velocity=63 time=0
EXTRACT: note_on channel=0 note=55 velocity=63 time=0
EXTRACT: note_on channel=0 note=50 velocity=63 time=0
EXTRACT: note_on channel=0 note=45 velocity=63 time=0
EXTRACT: note_on channel=0 note=40 velocity=63 time=0
EXTRACT: note_on channel=2 note=56 velocity=79 time=0
EXTRACT: note_off channel=4 note=72 velocity=95 time=0
EXTRACT: note_off channel=4 note=68 velocity=95 time=0
EXTRACT: note_on channel=4 note=72 velocity=95 time=0
EXTRACT: note_on channel=4 note=75 velocity=95 time=0
EXTRACT: note_off channel=0 note=64 velocity=63 time=0.031249995833333332
EXTRACT: note_off channel=0 note=59 velocity=63 time=0
EXTRACT: note_off channel=0 note=55 velocity=63 time=0
EXTRACT: note_off channel=0 note=50 velocity=63 time=0
EXTRACT: note_off channel=0 note=45 velocity=63 time=0
EXTRACT: note_off channel=0 note=40 velocity=63 time=0
EXTRACT: note_off channel=2 note=56 velocity=79 time=0.11298075416666667
EXTRACT: note_on channel=2 note=56 velocity=79 time=0.14423075
EXTRACT: note_off channel=4 note=72 velocity=95 time=0
EXTRACT: note_off channel=4 note=75 velocity=95 time=0
EXTRACT: note_on channel=4 note=73 velocity=95 time=0
EXTRACT: note_on channel=4 note=70 velocity=95 time=0
EXTRACT: note_on channel=0 note=70 velocity=63 time=0.14423075
EXTRACT: note_on channel=0 note=65 velocity=63 time=0
EXTRACT: note_on channel=0 note=62 velocity=63 time=0
EXTRACT: note_on channel=0 note=58 velocity=63 time=0
EXTRACT: note_on channel=0 note=53 velocity=63 time=0
EXTRACT: note_on channel=0 note=46 velocity=63 time=0
EXTRACT: note_off channel=2 note=56 velocity=79 time=0
EXTRACT: note_off channel=0 note=70 velocity=63 time=0.14423075
EXTRACT: note_off channel=0 note=65 velocity=63 time=0
EXTRACT: note_off channel=0 note=62 velocity=63 time=0
EXTRACT: note_off channel=0 note=58 velocity=63 time=0
EXTRACT: note_off channel=0 note=53 velocity=63 time=0
EXTRACT: note_off channel=0 note=46 velocity=63 time=0
EXTRACT: note_on channel=0 note=70 velocity=63 time=0
EXTRACT: note_on channel=0 note=65 velocity=63 time=0
EXTRACT: note_on channel=0 note=62 velocity=63 time=0
EXTRACT: note_on channel=0 note=58 velocity=63 time=0
EXTRACT: note_on channel=0 note=53 velocity=63 time=0
EXTRACT: note_on channel=0 note=46 velocity=63 time=0
EXTRACT: note_on channel=2 note=53 velocity=79 time=0
EXTRACT: note_off channel=4 note=73 velocity=95 time=0
EXTRACT: note_off channel=4 note=70 velocity=95 time=0
EXTRACT: note_on channel=4 note=70 velocity=95 time=0
EXTRACT: note_on channel=4 note=73 velocity=95 time=0
EXTRACT: note_off channel=0 note=70 velocity=63 time=0.14423075
EXTRACT: note_off channel=0 note=65 velocity=63 time=0
EXTRACT: note_off channel=0 note=62 velocity=63 time=0
EXTRACT: note_off channel=0 note=58 velocity=63 time=0
EXTRACT: note_off channel=0 note=53 velocity=63 time=0
EXTRACT: note_off channel=0 note=46 velocity=63 time=0
EXTRACT: note_on channel=0 note=70 velocity=63 time=0
EXTRACT: note_on channel=0 note=65 velocity=63 time=0
EXTRACT: note_on channel=0 note=62 velocity=63 time=0
EXTRACT: note_on channel=0 note=58 velocity=63 time=0
EXTRACT: note_on channel=0 note=53 velocity=63 time=0
EXTRACT: note_on channel=0 note=46 velocity=63 time=0
EXTRACT: note_off channel=2 note=53 velocity=79 time=0
EXTRACT: note_on channel=2 note=56 velocity=79 time=0
EXTRACT: note_off channel=0 note=70 velocity=63 time=0.14423075
EXTRACT: note_off channel=0 note=65 velocity=63 time=0
EXTRACT: note_off channel=0 note=62 velocity=63 time=0
EXTRACT: note_off channel=0 note=58 velocity=63 time=0
EXTRACT: note_off channel=0 note=53 velocity=63 time=0
EXTRACT: note_off channel=0 note=46 velocity=63 time=0
EXTRACT: note_on channel=0 note=70 velocity=63 time=0
EXTRACT: note_on channel=0 note=65 velocity=63 time=0
EXTRACT: note_on channel=0 note=62 velocity=63 time=0
EXTRACT: note_on channel=0 note=58 velocity=63 time=0
EXTRACT: note_on channel=0 note=53 velocity=63 time=0
EXTRACT: note_on channel=0 note=46 velocity=63 time=0
EXTRACT: note_off channel=4 note=70 velocity=95 time=0
EXTRACT: note_off channel=4 note=73 velocity=95 time=0
EXTRACT: note_on channel=4 note=72 velocity=47 time=0
EXTRACT: note_on channel=4 note=68 velocity=47 time=0
EXTRACT: note_off channel=0 note=70 velocity=63 time=0.14423075
EXTRACT: note_off channel=0 note=65 velocity=63 time=0
EXTRACT: note_off channel=0 note=62 velocity=63 time=0
EXTRACT: note_off channel=0 note=58 velocity=63 time=0
EXTRACT: note_off channel=0 note=53 velocity=63 time=0
EXTRACT: note_off channel=0 note=46 velocity=63 time=0
EXTRACT: note_on channel=0 note=64 velocity=63 time=0
EXTRACT: note_on channel=0 note=59 velocity=63 time=0
EXTRACT: note_on channel=0 note=55 velocity=63 time=0
EXTRACT: note_on channel=0 note=50 velocity=63 time=0
EXTRACT: note_on channel=0 note=45 velocity=63 time=0
EXTRACT: note_on channel=0 note=40 velocity=63 time=0
EXTRACT: note_off channel=2 note=56 velocity=79 time=0
EXTRACT: note_on channel=2 note=53 velocity=79 time=0
EXTRACT: note_off channel=4 note=72 velocity=47 time=0
EXTRACT: note_off channel=4 note=68 velocity=47 time=0
EXTRACT: note_off channel=0 note=64 velocity=63 time=0.031249995833333332
EXTRACT: note_off channel=0 note=59 velocity=63 time=0
EXTRACT: note_off channel=0 note=55 velocity=63 time=0
EXTRACT: note_off channel=0 note=50 velocity=63 time=0
EXTRACT: note_off channel=0 note=45 velocity=63 time=0
EXTRACT: note_off channel=0 note=40 velocity=63 time=0
EXTRACT: note_on channel=0 note=64 velocity=63 time=0.11298075416666667
EXTRACT: note_on channel=0 note=59 velocity=63 time=0
EXTRACT: note_on channel=0 note=55 velocity=63 time=0
EXTRACT: note_on channel=0 note=50 velocity=63 time=0
EXTRACT: note_on channel=0 note=45 velocity=63 time=0
EXTRACT: note_on channel=0 note=40 velocity=63 time=0
EXTRACT: note_off channel=2 note=53 velocity=79 time=0
EXTRACT: note_off channel=0 note=64 velocity=63 time=0.031249995833333332
EXTRACT: note_off channel=0 note=59 velocity=63 time=0
EXTRACT: note_off channel=0 note=55 velocity=63 time=0
EXTRACT: note_off channel=0 note=50 velocity=63 time=0
EXTRACT: note_off channel=0 note=45 velocity=63 time=0
EXTRACT: note_off channel=0 note=40 velocity=63 time=0
EXTRACT: note_on channel=0 note=72 velocity=63 time=0.11298075416666667
EXTRACT: note_on channel=0 note=68 velocity=63 time=0
EXTRACT: note_on channel=0 note=65 velocity=63 time=0
EXTRACT: note_on channel=0 note=60 velocity=63 time=0
EXTRACT: note_on channel=0 note=53 velocity=63 time=0
EXTRACT: note_on channel=4 note=67 velocity=95 time=0
EXTRACT: note_on channel=4 note=61 velocity=95 time=0
EXTRACT: note_on channel=4 note=70 velocity=95 time=0
EXTRACT: note_off channel=0 note=72 velocity=63 time=0.14423075
EXTRACT: note_off channel=0 note=68 velocity=63 time=0
EXTRACT: note_off channel=0 note=65 velocity=63 time=0
EXTRACT: note_off channel=0 note=60 velocity=63 time=0
EXTRACT: note_off channel=0 note=53 velocity=63 time=0
EXTRACT: note_on channel=0 note=72 velocity=63 time=0
EXTRACT: note_on channel=0 note=68 velocity=63 time=0
EXTRACT: note_on channel=0 note=65 velocity=63 time=0
EXTRACT: note_on channel=0 note=60 velocity=63 time=0
EXTRACT: note_on channel=0 note=53 velocity=63 time=0
EXTRACT: note_off channel=4 note=67 velocity=95 time=0
EXTRACT: note_off channel=4 note=61 velocity=95 time=0
EXTRACT: note_off channel=4 note=70 velocity=95 time=0
EXTRACT: note_on channel=4 note=72 velocity=95 time=0
EXTRACT: note_on channel=4 note=68 velocity=95 time=0
EXTRACT: note_on channel=4 note=63 velocity=95 time=0
EXTRACT: note_off channel=0 note=72 velocity=63 time=0.14423075
EXTRACT: note_off channel=0 note=68 velocity=63 time=0
EXTRACT: note_off channel=0 note=65 velocity=63 time=0
EXTRACT: note_off channel=0 note=60 velocity=63 time=0
EXTRACT: note_off channel=0 note=53 velocity=63 time=0
EXTRACT: note_on channel=0 note=64 velocity=63 time=0
EXTRACT: note_on channel=0 note=59 velocity=63 time=0
EXTRACT: note_on channel=0 note=55 velocity=63 time=0
EXTRACT: note_on channel=0 note=50 velocity=63 time=0
EXTRACT: note_on channel=0 note=45 velocity=63 time=0
EXTRACT: note_off channel=4 note=72 velocity=95 time=0
EXTRACT: note_off channel=4 note=68 velocity=95 time=0
EXTRACT: note_off channel=4 note=63 velocity=95 time=0
EXTRACT: note_on channel=4 note=72 velocity=95 time=0
EXTRACT: note_on channel=4 note=68 velocity=95 time=0
EXTRACT: note_on channel=4 note=63 velocity=95 time=0
EXTRACT: note_off channel=0 note=64 velocity=63 time=0.031249995833333332
EXTRACT: note_off channel=0 note=59 velocity=63 time=0
EXTRACT: note_off channel=0 note=55 velocity=63 time=0
EXTRACT: note_off channel=0 note=50 velocity=63 time=0
EXTRACT: note_off channel=0 note=45 velocity=63 time=0
EXTRACT: note_on channel=0 note=64 velocity=63 time=0.11298075416666667
EXTRACT: note_on channel=0 note=59 velocity=63 time=0
EXTRACT: note_on channel=0 note=55 velocity=63 time=0
EXTRACT: note_on channel=0 note=50 velocity=63 time=0
EXTRACT: note_on channel=0 note=45 velocity=63 time=0
EXTRACT: note_off channel=4 note=72 velocity=95 time=0
EXTRACT: note_off channel=4 note=68 velocity=95 time=0
EXTRACT: note_off channel=4 note=63 velocity=95 time=0
EXTRACT: note_on channel=4 note=72 velocity=95 time=0
EXTRACT: note_on channel=4 note=68 velocity=95 time=0
EXTRACT: note_on channel=4 note=63 velocity=95 time=0
EXTRACT: note_off channel=0 note=64 velocity=63 time=0.031249995833333332
EXTRACT: note_off channel=0 note=59 velocity=63 time=0
EXTRACT: note_off channel=0 note=55 velocity=63 time=0
EXTRACT: note_off channel=0 note=50 velocity=63 time=0
EXTRACT: note_off channel=0 note=45 velocity=63 time=0
EXTRACT: note_on channel=0 note=72 velocity=63 time=0.11298075416666667
EXTRACT: note_on channel=0 note=68 velocity=63 time=0
EXTRACT: note_on channel=0 note=65 velocity=63 time=0
EXTRACT: note_on channel=0 note=60 velocity=63 time=0
EXTRACT: note_on channel=0 note=53 velocity=63 time=0
EXTRACT: note_off channel=4 note=72 velocity=95 time=0
EXTRACT: note_off channel=4 note=68 velocity=95 time=0
EXTRACT: note_off channel=4 note=63 velocity=95 time=0
EXTRACT: note_on channel=4 note=72 velocity=95 time=0
EXTRACT: note_on channel=4 note=68 velocity=95 time=0
EXTRACT: note_on channel=4 note=63 velocity=95 time=0
EXTRACT: note_off channel=0 note=72 velocity=63 time=0.14423075
EXTRACT: note_off channel=0 note=68 velocity=63 time=0
EXTRACT: note_off channel=0 note=65 velocity=63 time=0
EXTRACT: note_off channel=0 note=60 velocity=63 time=0
EXTRACT: note_off channel=0 note=53 velocity=63 time=0
EXTRACT: note_on channel=0 note=72 velocity=63 time=0
EXTRACT: note_on channel=0 note=68 velocity=63 time=0
EXTRACT: note_on channel=0 note=65 velocity=63 time=0
EXTRACT: note_on channel=0 note=60 velocity=63 time=0
EXTRACT: note_on channel=0 note=53 velocity=63 time=0
EXTRACT: note_off channel=4 note=72 velocity=95 time=0
EXTRACT: note_off channel=4 note=68 velocity=95 time=0
EXTRACT: note_off channel=4 note=63 velocity=95 time=0
EXTRACT: note_on channel=4 note=67 velocity=95 time=0
EXTRACT: note_on channel=4 note=61 velocity=95 time=0
EXTRACT: note_on channel=4 note=70 velocity=95 time=0
EXTRACT: note_off channel=0 note=72 velocity=63 time=0.14423075
EXTRACT: note_off channel=0 note=68 velocity=63 time=0
EXTRACT: note_off channel=0 note=65 velocity=63 time=0
EXTRACT: note_off channel=0 note=60 velocity=63 time=0
EXTRACT: note_off channel=0 note=53 velocity=63 time=0
EXTRACT: note_on channel=0 note=64 velocity=63 time=0
EXTRACT: note_on channel=0 note=59 velocity=63 time=0
EXTRACT: note_on channel=0 note=55 velocity=63 time=0
EXTRACT: note_on channel=0 note=50 velocity=63 time=0
EXTRACT: note_on channel=0 note=45 velocity=63 time=0
EXTRACT: note_off channel=4 note=67 velocity=95 time=0
EXTRACT: note_off channel=4 note=61 velocity=95 time=0
EXTRACT: note_off channel=4 note=70 velocity=95 time=0
EXTRACT: note_on channel=4 note=67 velocity=95 time=0
EXTRACT: note_on channel=4 note=61 velocity=95 time=0
EXTRACT: note_on channel=4 note=70 velocity=95 time=0
EXTRACT: note_off channel=0 note=64 velocity=63 time=0.031249995833333332
EXTRACT: note_off channel=0 note=59 velocity=63 time=0
EXTRACT: note_off channel=0 note=55 velocity=63 time=0
EXTRACT: note_off channel=0 note=50 velocity=63 time=0
EXTRACT: note_off channel=0 note=45 velocity=63 time=0
EXTRACT: note_on channel=0 note=64 velocity=63 time=0.11298075416666667
EXTRACT: note_on channel=0 note=59 velocity=63 time=0
EXTRACT: note_on channel=0 note=55 velocity=63 time=0
EXTRACT: note_on channel=0 note=50 velocity=63 time=0
EXTRACT: note_on channel=0 note=45 velocity=63 time=0
EXTRACT: note_off channel=4 note=67 velocity=95 time=0
EXTRACT: note_off channel=4 note=61 velocity=95 time=0
EXTRACT: note_off channel=4 note=70 velocity=95 time=0
EXTRACT: note_on channel=4 note=67 velocity=95 time=0
EXTRACT: note_on channel=4 note=61 velocity=95 time=0
EXTRACT: note_on channel=4 note=70 velocity=95 time=0
EXTRACT: note_off channel=0 note=64 velocity=63 time=0.031249995833333332
EXTRACT: note_off channel=0 note=59 velocity=63 time=0
EXTRACT: note_off channel=0 note=55 velocity=63 time=0
EXTRACT: note_off channel=0 note=50 velocity=63 time=0
EXTRACT: note_off channel=0 note=45 velocity=63 time=0
EXTRACT: note_on channel=0 note=72 velocity=63 time=0.11298075416666667
EXTRACT: note_on channel=0 note=68 velocity=63 time=0
EXTRACT: note_on channel=0 note=65 velocity=63 time=0
EXTRACT: note_on channel=0 note=60 velocity=63 time=0
EXTRACT: note_on channel=0 note=53 velocity=63 time=0
EXTRACT: note_off channel=0 note=72 velocity=63 time=0.14423075
EXTRACT: note_off channel=0 note=68 velocity=63 time=0
EXTRACT: note_off channel=0 note=65 velocity=63 time=0
EXTRACT: note_off channel=0 note=60 velocity=63 time=0
EXTRACT: note_off channel=0 note=53 velocity=63 time=0
EXTRACT: note_on channel=0 note=72 velocity=63 time=0
EXTRACT: note_on channel=0 note=68 velocity=63 time=0
EXTRACT: note_on channel=0 note=65 velocity=63 time=0
EXTRACT: note_on channel=0 note=60 velocity=63 time=0
EXTRACT: note_on channel=0 note=53 velocity=63 time=0
EXTRACT: note_off channel=4 note=67 velocity=95 time=0
EXTRACT: note_off channel=4 note=61 velocity=95 time=0
EXTRACT: note_off channel=4 note=70 velocity=95 time=0
EXTRACT: note_on channel=4 note=68 velocity=95 time=0
EXTRACT: note_on channel=4 note=65 velocity=95 time=0
EXTRACT: note_on channel=4 note=60 velocity=95 time=0
EXTRACT: note_off channel=0 note=72 velocity=63 time=0.14423075
EXTRACT: note_off channel=0 note=68 velocity=63 time=0
EXTRACT: note_off channel=0 note=65 velocity=63 time=0
EXTRACT: note_off channel=0 note=60 velocity=63 time=0
EXTRACT: note_off channel=0 note=53 velocity=63 time=0
EXTRACT: note_on channel=0 note=64 velocity=63 time=0
EXTRACT: note_on channel=0 note=59 velocity=63 time=0
EXTRACT: note_on channel=0 note=55 velocity=63 time=0
EXTRACT: note_on channel=0 note=50 velocity=63 time=0
EXTRACT: note_on channel=0 note=45 velocity=63 time=0
EXTRACT: note_off channel=4 note=68 velocity=95 time=0
EXTRACT: note_off channel=4 note=65 velocity=95 time=0
EXTRACT: note_off channel=4 note=60 velocity=95 time=0
EXTRACT: note_on channel=4 note=68 velocity=95 time=0
EXTRACT: note_on channel=4 note=65 velocity=95 time=0
EXTRACT: note_on channel=4 note=60 velocity=95 time=0
EXTRACT: note_off channel=0 note=64 velocity=63 time=0.031249995833333332
EXTRACT: note_off channel=0 note=59 velocity=63 time=0
EXTRACT: note_off channel=0 note=55 velocity=63 time=0
EXTRACT: note_off channel=0 note=50 velocity=63 time=0
EXTRACT: note_off channel=0 note=45 velocity=63 time=0
EXTRACT: note_on channel=0 note=64 velocity=63 time=0.11298075416666667
EXTRACT: note_on channel=0 note=59 velocity=63 time=0
EXTRACT: note_on channel=0 note=55 velocity=63 time=0
EXTRACT: note_on channel=0 note=50 velocity=63 time=0
EXTRACT: note_on channel=0 note=45 velocity=63 time=0
EXTRACT: note_on channel=2 note=72 velocity=79 time=0
EXTRACT: note_on channel=2 note=68 velocity=79 time=0
EXTRACT: note_on channel=2 note=65 velocity=79 time=0
EXTRACT: note_off channel=4 note=68 velocity=95 time=0
EXTRACT: note_off channel=4 note=65 velocity=95 time=0
EXTRACT: note_off channel=4 note=60 velocity=95 time=0
EXTRACT: note_on channel=4 note=68 velocity=95 time=0
EXTRACT: note_on channel=4 note=65 velocity=95 time=0
EXTRACT: note_on channel=4 note=60 velocity=95 time=0
EXTRACT: note_off channel=0 note=64 velocity=63 time=0.031249995833333332
EXTRACT: note_off channel=0 note=59 velocity=63 time=0
EXTRACT: note_off channel=0 note=55 velocity=63 time=0
EXTRACT: note_off channel=0 note=50 velocity=63 time=0
EXTRACT: note_off channel=0 note=45 velocity=63 time=0
EXTRACT: note_on channel=0 note=72 velocity=63 time=0.11298075416666667
EXTRACT: note_on channel=0 note=68 velocity=63 time=0
EXTRACT: note_on channel=0 note=65 velocity=63 time=0
EXTRACT: note_on channel=0 note=60 velocity=63 time=0
EXTRACT: note_on channel=0 note=53 velocity=63 time=0
EXTRACT: note_off channel=2 note=72 velocity=79 time=0
EXTRACT: note_off channel=2 note=68 velocity=79 time=0
EXTRACT: note_off channel=2 note=65 velocity=79 time=0
EXTRACT: note_off channel=4 note=68 velocity=95 time=0
EXTRACT: note_off channel=4 note=65 velocity=95 time=0
EXTRACT: note_off channel=4 note=60 velocity=95 time=0
EXTRACT: note_on channel=4 note=68 velocity=95 time=0
EXTRACT: note_on channel=4 note=65 velocity=95 time=0
EXTRACT: note_on channel=4 note=60 velocity=95 time=0
EXTRACT: note_off channel=0 note=72 velocity=63 time=0.14423075
EXTRACT: note_off channel=0 note=68 velocity=63 time=0
EXTRACT: note_off channel=0 note=65 velocity=63 time=0
EXTRACT: note_off channel=0 note=60 velocity=63 time=0
EXTRACT: note_off channel=0 note=53 velocity=63 time=0
EXTRACT: note_on channel=0 note=72 velocity=63 time=0
EXTRACT: note_on channel=0 note=68 velocity=63 time=0
EXTRACT: note_on channel=0 note=65 velocity=63 time=0
EXTRACT: note_on channel=0 note=60 velocity=63 time=0
EXTRACT: note_on channel=0 note=53 velocity=63 time=0
EXTRACT: note_off channel=4 note=68 velocity=95 time=0
EXTRACT: note_off channel=4 note=65 velocity=95 time=0
EXTRACT: note_off channel=4 note=60 velocity=95 time=0
EXTRACT: note_on channel=4 note=67 velocity=95 time=0
EXTRACT: note_on channel=4 note=63 velocity=95 time=0
EXTRACT: note_on channel=4 note=58 velocity=95 time=0
EXTRACT: note_off channel=0 note=72 velocity=63 time=0.14423075
EXTRACT: note_off channel=0 note=68 velocity=63 time=0
EXTRACT: note_off channel=0 note=65 velocity=63 time=0
EXTRACT: note_off channel=0 note=60 velocity=63 time=0
EXTRACT: note_off channel=0 note=53 velocity=63 time=0
EXTRACT: note_on channel=0 note=64 velocity=63 time=0
EXTRACT: note_on channel=0 note=59 velocity=63 time=0
EXTRACT: note_on channel=0 note=55 velocity=63 time=0
EXTRACT: note_on channel=0 note=50 velocity=63 time=0
EXTRACT: note_on channel=0 note=45 velocity=63 time=0
EXTRACT: note_off channel=4 note=67 velocity=95 time=0
EXTRACT: note_off channel=4 note=63 velocity=95 time=0
EXTRACT: note_off channel=4 note=58 velocity=95 time=0
EXTRACT: note_on channel=4 note=67 velocity=95 time=0
EXTRACT: note_on channel=4 note=63 velocity=95 time=0
EXTRACT: note_on channel=4 note=58 velocity=95 time=0
EXTRACT: note_off channel=0 note=64 velocity=63 time=0.031249995833333332
EXTRACT: note_off channel=0 note=59 velocity=63 time=0
EXTRACT: note_off channel=0 note=55 velocity=63 time=0
EXTRACT: note_off channel=0 note=50 velocity=63 time=0
EXTRACT: note_off channel=0 note=45 velocity=63 time=0
EXTRACT: note_on channel=0 note=64 velocity=63 time=0.11298075416666667
EXTRACT: note_on channel=0 note=59 velocity=63 time=0
EXTRACT: note_on channel=0 note=55 velocity=63 time=0
EXTRACT: note_on channel=0 note=50 velocity=63 time=0
EXTRACT: note_on channel=0 note=45 velocity=63 time=0
EXTRACT: note_off channel=4 note=67 velocity=95 time=0
EXTRACT: note_off channel=4 note=63 velocity=95 time=0
EXTRACT: note_off channel=4 note=58 velocity=95 time=0
EXTRACT: note_on channel=4 note=67 velocity=95 time=0
EXTRACT: note_on channel=4 note=63 velocity=95 time=0
EXTRACT: note_on channel=4 note=58 velocity=95 time=0
EXTRACT: note_off channel=0 note=64 velocity=63 time=0.031249995833333332
EXTRACT: note_off channel=0 note=59 velocity=63 time=0
EXTRACT: note_off channel=0 note=55 velocity=63 time=0
EXTRACT: note_off channel=0 note=50 velocity=63 time=0
EXTRACT: note_off channel=0 note=45 velocity=63 time=0
EXTRACT: note_on channel=0 note=72 velocity=63 time=0.11298075416666667
EXTRACT: note_on channel=0 note=68 velocity=63 time=0
EXTRACT: note_on channel=0 note=65 velocity=63 time=0
EXTRACT: note_on channel=0 note=60 velocity=63 time=0
EXTRACT: note_on channel=0 note=53 velocity=63 time=0
EXTRACT: note_off channel=0 note=72 velocity=63 time=0.14423075
EXTRACT: note_off channel=0 note=68 velocity=63 time=0
EXTRACT: note_off channel=0 note=65 velocity=63 time=0
EXTRACT: note_off channel=0 note=60 velocity=63 time=0
EXTRACT: note_off channel=0 note=53 velocity=63 time=0
EXTRACT: note_on channel=0 note=72 velocity=63 time=0
EXTRACT: note_on channel=0 note=68 velocity=63 time=0
EXTRACT: note_on channel=0 note=65 velocity=63 time=0
EXTRACT: note_on channel=0 note=60 velocity=63 time=0
EXTRACT: note_on channel=0 note=53 velocity=63 time=0
EXTRACT: note_off channel=4 note=67 velocity=95 time=0
EXTRACT: note_off channel=4 note=63 velocity=95 time=0
EXTRACT: note_off channel=4 note=58 velocity=95 time=0
EXTRACT: note_on channel=4 note=68 velocity=95 time=0
EXTRACT: note_on channel=4 note=65 velocity=95 time=0
EXTRACT: note_on channel=4 note=60 velocity=95 time=0
EXTRACT: note_off channel=0 note=72 velocity=63 time=0.14423075
EXTRACT: note_off channel=0 note=68 velocity=63 time=0
EXTRACT: note_off channel=0 note=65 velocity=63 time=0
EXTRACT: note_off channel=0 note=60 velocity=63 time=0
EXTRACT: note_off channel=0 note=53 velocity=63 time=0
EXTRACT: note_on channel=0 note=64 velocity=63 time=0
EXTRACT: note_on channel=0 note=59 velocity=63 time=0
EXTRACT: note_on channel=0 note=55 velocity=63 time=0
EXTRACT: note_on channel=0 note=50 velocity=63 time=0
EXTRACT: note_on channel=0 note=45 velocity=63 time=0
EXTRACT: note_on channel=2 note=72 velocity=79 time=0
EXTRACT: note_on channel=2 note=68 velocity=79 time=0
EXTRACT: note_on channel=2 note=65 velocity=79 time=0
EXTRACT: note_off channel=4 note=68 velocity=95 time=0
EXTRACT: note_off channel=4 note=65 velocity=95 time=0
EXTRACT: note_off channel=4 note=60 velocity=95 time=0
EXTRACT: note_on channel=4 note=68 velocity=95 time=0
EXTRACT: note_on channel=4 note=65 velocity=95 time=0
EXTRACT: note_on channel=4 note=60 velocity=95 time=0
EXTRACT: note_off channel=0 note=64 velocity=63 time=0.031249995833333332
EXTRACT: note_off channel=0 note=59 velocity=63 time=0
EXTRACT: note_off channel=0 note=55 velocity=63 time=0
EXTRACT: note_off channel=0 note=50 velocity=63 time=0
EXTRACT: note_off channel=0 note=45 velocity=63 time=0
EXTRACT: note_on channel=0 note=64 velocity=63 time=0.11298075416666667
EXTRACT: note_on channel=0 note=59 velocity=63 time=0
EXTRACT: note_on channel=0 note=55 velocity=63 time=0
EXTRACT: note_on channel=0 note=50 velocity=63 time=0
EXTRACT: note_on channel=0 note=45 velocity=63 time=0
EXTRACT: note_off channel=2 note=72 velocity=79 time=0
EXTRACT: note_off channel=2 note=68 velocity=79 time=0
EXTRACT: note_off channel=2 note=65 velocity=79 time=0
EXTRACT: note_on channel=2 note=72 velocity=79 time=0
EXTRACT: note_on channel=2 note=68 velocity=79 time=0
EXTRACT: note_on channel=2 note=65 velocity=79 time=0
EXTRACT: note_off channel=4 note=68 velocity=95 time=0
EXTRACT: note_off channel=4 note=65 velocity=95 time=0
EXTRACT: note_off channel=4 note=60 velocity=95 time=0
EXTRACT: note_on channel=4 note=68 velocity=95 time=0
EXTRACT: note_on channel=4 note=65 velocity=95 time=0
EXTRACT: note_on channel=4 note=60 velocity=95 time=0
EXTRACT: note_off channel=0 note=64 velocity=63 time=0.031249995833333332
EXTRACT: note_off channel=0 note=59 velocity=63 time=0
EXTRACT: note_off channel=0 note=55 velocity=63 time=0
EXTRACT: note_off channel=0 note=50 velocity=63 time=0
EXTRACT: note_off channel=0 note=45 velocity=63 time=0
EXTRACT: note_on channel=0 note=72 velocity=63 time=0.11298075416666667
EXTRACT: note_on channel=0 note=68 velocity=63 time=0
EXTRACT: note_on channel=0 note=65 velocity=63 time=0
EXTRACT: note_on channel=0 note=60 velocity=63 time=0
EXTRACT: note_on channel=0 note=53 velocity=63 time=0
EXTRACT: note_off channel=2 note=72 velocity=79 time=0
EXTRACT: note_off channel=2 note=68 velocity=79 time=0
EXTRACT: note_off channel=2 note=65 velocity=79 time=0
EXTRACT: note_on channel=2 note=72 velocity=79 time=0
EXTRACT: note_on channel=2 note=68 velocity=79 time=0
EXTRACT: note_on channel=2 note=65 velocity=79 time=0
EXTRACT: note_off channel=4 note=68 velocity=95 time=0
EXTRACT: note_off channel=4 note=65 velocity=95 time=0
EXTRACT: note_off channel=4 note=60 velocity=95 time=0
EXTRACT: note_off channel=0 note=72 velocity=63 time=0.14423075
EXTRACT: note_off channel=0 note=68 velocity=63 time=0
EXTRACT: note_off channel=0 note=65 velocity=63 time=0
EXTRACT: note_off channel=0 note=60 velocity=63 time=0
EXTRACT: note_off channel=0 note=53 velocity=63 time=0
EXTRACT: note_on channel=0 note=72 velocity=63 time=0
EXTRACT: note_on channel=0 note=68 velocity=63 time=0
EXTRACT: note_on channel=0 note=65 velocity=63 time=0
EXTRACT: note_on channel=0 note=60 velocity=63 time=0
EXTRACT: note_on channel=0 note=53 velocity=63 time=0
EXTRACT: note_off channel=2 note=72 velocity=79 time=0
EXTRACT: note_off channel=2 note=68 velocity=79 time=0
EXTRACT: note_off channel=2 note=65 velocity=79 time=0
EXTRACT: note_on channel=2 note=72 velocity=79 time=0
EXTRACT: note_on channel=2 note=68 velocity=79 time=0
EXTRACT: note_on channel=2 note=65 velocity=79 time=0
EXTRACT: note_off channel=0 note=72 velocity=63 time=0.14423075
EXTRACT: note_off channel=0 note=68 velocity=63 time=0
EXTRACT: note_off channel=0 note=65 velocity=63 time=0
EXTRACT: note_off channel=0 note=60 velocity=63 time=0
EXTRACT: note_off channel=0 note=53 velocity=63 time=0
EXTRACT: note_on channel=0 note=64 velocity=63 time=0
EXTRACT: note_on channel=0 note=59 velocity=63 time=0
EXTRACT: note_on channel=0 note=55 velocity=63 time=0
EXTRACT: note_on channel=0 note=50 velocity=63 time=0
EXTRACT: note_on channel=0 note=45 velocity=63 time=0
EXTRACT: note_off channel=2 note=72 velocity=79 time=0
EXTRACT: note_off channel=2 note=68 velocity=79 time=0
EXTRACT: note_off channel=2 note=65 velocity=79 time=0
EXTRACT: note_off channel=0 note=64 velocity=63 time=0.031249995833333332
EXTRACT: note_off channel=0 note=59 velocity=63 time=0
EXTRACT: note_off channel=0 note=55 velocity=63 time=0
EXTRACT: note_off channel=0 note=50 velocity=63 time=0
EXTRACT: note_off channel=0 note=45 velocity=63 time=0
EXTRACT: note_on channel=0 note=64 velocity=63 time=0.11298075416666667
EXTRACT: note_on channel=0 note=59 velocity=63 time=0
EXTRACT: note_on channel=0 note=55 velocity=63 time=0
EXTRACT: note_on channel=0 note=50 velocity=63 time=0
EXTRACT: note_on channel=0 note=45 velocity=63 time=0
EXTRACT: note_off channel=0 note=64 velocity=63 time=0.031249995833333332
EXTRACT: note_off channel=0 note=59 velocity=63 time=0
EXTRACT: note_off channel=0 note=55 velocity=63 time=0
EXTRACT: note_off channel=0 note=50 velocity=63 time=0
EXTRACT: note_off channel=0 note=45 velocity=63 time=0
EXTRACT: note_on channel=0 note=72 velocity=63 time=0.11298075416666667
EXTRACT: note_on channel=0 note=68 velocity=63 time=0
EXTRACT: note_on channel=0 note=65 velocity=63 time=0
EXTRACT: note_on channel=0 note=60 velocity=63 time=0
EXTRACT: note_on channel=0 note=53 velocity=63 time=0
EXTRACT: note_on channel=4 note=67 velocity=95 time=0
EXTRACT: note_on channel=4 note=63 velocity=95 time=0
EXTRACT: note_on channel=4 note=58 velocity=95 time=0
EXTRACT: note_off channel=0 note=72 velocity=63 time=0.14423075
EXTRACT: note_off channel=0 note=68 velocity=63 time=0
EXTRACT: note_off channel=0 note=65 velocity=63 time=0
EXTRACT: note_off channel=0 note=60 velocity=63 time=0
EXTRACT: note_off channel=0 note=53 velocity=63 time=0
EXTRACT: note_on channel=0 note=72 velocity=63 time=0
EXTRACT: note_on channel=0 note=68 velocity=63 time=0
EXTRACT: note_on channel=0 note=65 velocity=63 time=0
EXTRACT: note_on channel=0 note=60 velocity=63 time=0
EXTRACT: note_on channel=0 note=53 velocity=63 time=0
EXTRACT: note_off channel=4 note=67 velocity=95 time=0
EXTRACT: note_off channel=4 note=63 velocity=95 time=0
EXTRACT: note_off channel=4 note=58 velocity=95 time=0
EXTRACT: note_on channel=4 note=68 velocity=95 time=0
EXTRACT: note_on channel=4 note=65 velocity=95 time=0
EXTRACT: note_on channel=4 note=60 velocity=95 time=0
EXTRACT: note_off channel=0 note=72 velocity=63 time=0.14423075
EXTRACT: note_off channel=0 note=68 velocity=63 time=0
EXTRACT: note_off channel=0 note=65 velocity=63 time=0
EXTRACT: note_off channel=0 note=60 velocity=63 time=0
EXTRACT: note_off channel=0 note=53 velocity=63 time=0
EXTRACT: note_on channel=0 note=64 velocity=63 time=0
EXTRACT: note_on channel=0 note=59 velocity=63 time=0
EXTRACT: note_on channel=0 note=55 velocity=63 time=0
EXTRACT: note_on channel=0 note=50 velocity=63 time=0
EXTRACT: note_on channel=0 note=45 velocity=63 time=0
EXTRACT: note_on channel=2 note=72 velocity=79 time=0
EXTRACT: note_on channel=2 note=68 velocity=79 time=0
EXTRACT: note_on channel=2 note=65 velocity=79 time=0
EXTRACT: note_off channel=4 note=68 velocity=95 time=0
EXTRACT: note_off channel=4 note=65 velocity=95 time=0
EXTRACT: note_off channel=4 note=60 velocity=95 time=0
EXTRACT: note_on channel=4 note=68 velocity=95 time=0
EXTRACT: note_on channel=4 note=65 velocity=95 time=0
EXTRACT: note_on channel=4 note=60 velocity=95 time=0
EXTRACT: note_off channel=0 note=64 velocity=63 time=0.031249995833333332
EXTRACT: note_off channel=0 note=59 velocity=63 time=0
EXTRACT: note_off channel=0 note=55 velocity=63 time=0
EXTRACT: note_off channel=0 note=50 velocity=63 time=0
EXTRACT: note_off channel=0 note=45 velocity=63 time=0
EXTRACT: note_on channel=0 note=64 velocity=63 time=0.11298075416666667
EXTRACT: note_on channel=0 note=59 velocity=63 time=0
EXTRACT: note_on channel=0 note=55 velocity=63 time=0
EXTRACT: note_on channel=0 note=50 velocity=63 time=0
EXTRACT: note_on channel=0 note=45 velocity=63 time=0
EXTRACT: note_off channel=2 note=72 velocity=79 time=0
EXTRACT: note_off channel=2 note=68 velocity=79 time=0
EXTRACT: note_off channel=2 note=65 velocity=79 time=0
EXTRACT: note_on channel=2 note=72 velocity=79 time=0
EXTRACT: note_on channel=2 note=68 velocity=79 time=0
EXTRACT: note_on channel=2 note=65 velocity=79 time=0
EXTRACT: note_off channel=4 note=68 velocity=95 time=0
EXTRACT: note_off channel=4 note=65 velocity=95 time=0
EXTRACT: note_off channel=4 note=60 velocity=95 time=0
EXTRACT: note_on channel=4 note=68 velocity=95 time=0
EXTRACT: note_on channel=4 note=65 velocity=95 time=0
EXTRACT: note_on channel=4 note=60 velocity=95 time=0
EXTRACT: note_off channel=0 note=64 velocity=63 time=0.031249995833333332
EXTRACT: note_off channel=0 note=59 velocity=63 time=0
EXTRACT: note_off channel=0 note=55 velocity=63 time=0
EXTRACT: note_off channel=0 note=50 velocity=63 time=0
EXTRACT: note_off channel=0 note=45 velocity=63 time=0
EXTRACT: note_on channel=0 note=72 velocity=63 time=0.11298075416666667
EXTRACT: note_on channel=0 note=68 velocity=63 time=0
EXTRACT: note_on channel=0 note=65 velocity=63 time=0
EXTRACT: note_on channel=0 note=60 velocity=63 time=0
EXTRACT: note_on channel=0 note=53 velocity=63 time=0
EXTRACT: note_off channel=2 note=72 velocity=79 time=0
EXTRACT: note_off channel=2 note=68 velocity=79 time=0
EXTRACT: note_off channel=2 note=65 velocity=79 time=0
EXTRACT: note_on channel=2 note=72 velocity=79 time=0
EXTRACT: note_on channel=2 note=68 velocity=79 time=0
EXTRACT: note_on channel=2 note=65 velocity=79 time=0
EXTRACT: note_off channel=4 note=68 velocity=95 time=0
EXTRACT: note_off channel=4 note=65 velocity=95 time=0
EXTRACT: note_off channel=4 note=60 velocity=95 time=0
EXTRACT: note_off channel=0 note=72 velocity=63 time=0.14423075
EXTRACT: note_off channel=0 note=68 velocity=63 time=0
EXTRACT: note_off channel=0 note=65 velocity=63 time=0
EXTRACT: note_off channel=0 note=60 velocity=63 time=0
EXTRACT: note_off channel=0 note=53 velocity=63 time=0
EXTRACT: note_on channel=0 note=72 velocity=63 time=0
EXTRACT: note_on channel=0 note=68 velocity=63 time=0
EXTRACT: note_on channel=0 note=65 velocity=63 time=0
EXTRACT: note_on channel=0 note=60 velocity=63 time=0
EXTRACT: note_on channel=0 note=53 velocity=63 time=0
EXTRACT: note_off channel=2 note=72 velocity=79 time=0
EXTRACT: note_off channel=2 note=68 velocity=79 time=0
EXTRACT: note_off channel=2 note=65 velocity=79 time=0
EXTRACT: note_on channel=2 note=72 velocity=79 time=0
EXTRACT: note_on channel=2 note=68 velocity=79 time=0
EXTRACT: note_on channel=2 note=65 velocity=79 time=0
EXTRACT: note_off channel=0 note=72 velocity=63 time=0.14423075
EXTRACT: note_off channel=0 note=68 velocity=63 time=0
EXTRACT: note_off channel=0 note=65 velocity=63 time=0
EXTRACT: note_off channel=0 note=60 velocity=63 time=0
EXTRACT: note_off channel=0 note=53 velocity=63 time=0
EXTRACT: note_on channel=0 note=64 velocity=63 time=0
EXTRACT: note_on channel=0 note=59 velocity=63 time=0
EXTRACT: note_on channel=0 note=55 velocity=63 time=0
EXTRACT: note_on channel=0 note=50 velocity=63 time=0
EXTRACT: note_on channel=0 note=45 velocity=63 time=0
EXTRACT: note_off channel=2 note=72 velocity=79 time=0
EXTRACT: note_off channel=2 note=68 velocity=79 time=0
EXTRACT: note_off channel=2 note=65 velocity=79 time=0
EXTRACT: note_off channel=0 note=64 velocity=63 time=0.031249995833333332
EXTRACT: note_off channel=0 note=59 velocity=63 time=0
EXTRACT: note_off channel=0 note=55 velocity=63 time=0
EXTRACT: note_off channel=0 note=50 velocity=63 time=0
EXTRACT: note_off channel=0 note=45 velocity=63 time=0
EXTRACT: note_on channel=0 note=64 velocity=63 time=0.11298075416666667
EXTRACT: note_on channel=0 note=59 velocity=63 time=0
EXTRACT: note_on channel=0 note=55 velocity=63 time=0
EXTRACT: note_on channel=0 note=50 velocity=63 time=0
EXTRACT: note_on channel=0 note=45 velocity=63 time=0
EXTRACT: note_off channel=0 note=64 velocity=63 time=0.031249995833333332
EXTRACT: note_off channel=0 note=59 velocity=63 time=0
EXTRACT: note_off channel=0 note=55 velocity=63 time=0
EXTRACT: note_off channel=0 note=50 velocity=63 time=0
EXTRACT: note_off channel=0 note=45 velocity=63 time=0
EXTRACT: note_on channel=0 note=72 velocity=63 time=0.11298075416666667
EXTRACT: note_on channel=0 note=68 velocity=63 time=0
EXTRACT: note_on channel=0 note=65 velocity=63 time=0
EXTRACT: note_on channel=0 note=60 velocity=63 time=0
EXTRACT: note_on channel=0 note=53 velocity=63 time=0
EXTRACT: note_on channel=4 note=67 velocity=95 time=0
EXTRACT: note_on channel=4 note=61 velocity=95 time=0
EXTRACT: note_on channel=4 note=70 velocity=95 time=0
EXTRACT: note_off channel=0 note=72 velocity=63 time=0.14423075
EXTRACT: note_off channel=0 note=68 velocity=63 time=0
EXTRACT: note_off channel=0 note=65 velocity=63 time=0
EXTRACT: note_off channel=0 note=60 velocity=63 time=0
EXTRACT: note_off channel=0 note=53 velocity=63 time=0
EXTRACT: note_on channel=0 note=72 velocity=63 time=0
EXTRACT: note_on channel=0 note=68 velocity=63 time=0
EXTRACT: note_on channel=0 note=65 velocity=63 time=0
EXTRACT: note_on channel=0 note=60 velocity=63 time=0
EXTRACT: note_on channel=0 note=53 velocity=63 time=0
EXTRACT: note_off channel=4 note=67 velocity=95 time=0
EXTRACT: note_off channel=4 note=61 velocity=95 time=0
EXTRACT: note_off channel=4 note=70 velocity=95 time=0
EXTRACT: note_on channel=4 note=72 velocity=95 time=0
EXTRACT: note_on channel=4 note=68 velocity=95 time=0
EXTRACT: note_on channel=4 note=63 velocity=95 time=0
EXTRACT: note_off channel=0 note=72 velocity=63 time=0.14423075
EXTRACT: note_off channel=0 note=68 velocity=63 time=0
EXTRACT: note_off channel=0 note=65 velocity=63 time=0
EXTRACT: note_off channel=0 note=60 velocity=63 time=0
EXTRACT: note_off channel=0 note=53 velocity=63 time=0
EXTRACT: note_on channel=0 note=64 velocity=63 time=0
EXTRACT: note_on channel=0 note=59 velocity=63 time=0
EXTRACT: note_on channel=0 note=55 velocity=63 time=0
EXTRACT: note_on channel=0 note=50 velocity=63 time=0
EXTRACT: note_on channel=0 note=45 velocity=63 time=0
EXTRACT: note_on channel=2 note=72 velocity=79 time=0
EXTRACT: note_on channel=2 note=68 velocity=79 time=0
EXTRACT: note_on channel=2 note=65 velocity=79 time=0
EXTRACT: note_off channel=4 note=72 velocity=95 time=0
EXTRACT: note_off channel=4 note=68 velocity=95 time=0
EXTRACT: note_off channel=4 note=63 velocity=95 time=0
EXTRACT: note_on channel=4 note=72 velocity=95 time=0
EXTRACT: note_on channel=4 note=68 velocity=95 time=0
EXTRACT: note_on channel=4 note=63 velocity=95 time=0
EXTRACT: note_off channel=0 note=64 velocity=63 time=0.031249995833333332
EXTRACT: note_off channel=0 note=59 velocity=63 time=0
EXTRACT: note_off channel=0 note=55 velocity=63 time=0
EXTRACT: note_off channel=0 note=50 velocity=63 time=0
EXTRACT: note_off channel=0 note=45 velocity=63 time=0
EXTRACT: note_on channel=0 note=64 velocity=63 time=0.11298075416666667
EXTRACT: note_on channel=0 note=59 velocity=63 time=0
EXTRACT: note_on channel=0 note=55 velocity=63 time=0
EXTRACT: note_on channel=0 note=50 velocity=63 time=0
EXTRACT: note_on channel=0 note=45 velocity=63 time=0
EXTRACT: note_off channel=4 note=72 velocity=95 time=0
EXTRACT: note_off channel=4 note=68 velocity=95 time=0
EXTRACT: note_off channel=4 note=63 velocity=95 time=0
EXTRACT: note_on channel=4 note=72 velocity=95 time=0
EXTRACT: note_on channel=4 note=68 velocity=95 time=0
EXTRACT: note_on channel=4 note=63 velocity=95 time=0
EXTRACT: note_off channel=0 note=64 velocity=63 time=0.031249995833333332
EXTRACT: note_off channel=0 note=59 velocity=63 time=0
EXTRACT: note_off channel=0 note=55 velocity=63 time=0
EXTRACT: note_off channel=0 note=50 velocity=63 time=0
EXTRACT: note_off channel=0 note=45 velocity=63 time=0
EXTRACT: note_on channel=0 note=72 velocity=63 time=0.11298075416666667
EXTRACT: note_on channel=0 note=68 velocity=63 time=0
EXTRACT: note_on channel=0 note=65 velocity=63 time=0
EXTRACT: note_on channel=0 note=60 velocity=63 time=0
EXTRACT: note_on channel=0 note=53 velocity=63 time=0
EXTRACT: note_off channel=4 note=72 velocity=95 time=0
EXTRACT: note_off channel=4 note=68 velocity=95 time=0
EXTRACT: note_off channel=4 note=63 velocity=95 time=0
EXTRACT: note_on channel=4 note=72 velocity=95 time=0
EXTRACT: note_on channel=4 note=68 velocity=95 time=0
EXTRACT: note_on channel=4 note=63 velocity=95 time=0
EXTRACT: note_off channel=0 note=72 velocity=63 time=0.14423075
EXTRACT: note_off channel=0 note=68 velocity=63 time=0
EXTRACT: note_off channel=0 note=65 velocity=63 time=0
EXTRACT: note_off channel=0 note=60 velocity=63 time=0
EXTRACT: note_off channel=0 note=53 velocity=63 time=0
EXTRACT: note_on channel=0 note=72 velocity=63 time=0
EXTRACT: note_on channel=0 note=68 velocity=63 time=0
EXTRACT: note_on channel=0 note=65 velocity=63 time=0
EXTRACT: note_on channel=0 note=60 velocity=63 time=0
EXTRACT: note_on channel=0 note=53 velocity=63 time=0
EXTRACT: note_off channel=4 note=72 velocity=95 time=0
EXTRACT: note_off channel=4 note=68 velocity=95 time=0
EXTRACT: note_off channel=4 note=63 velocity=95 time=0
EXTRACT: note_on channel=4 note=67 velocity=95 time=0
EXTRACT: note_on channel=4 note=61 velocity=95 time=0
EXTRACT: note_on channel=4 note=70 velocity=95 time=0
EXTRACT: note_off channel=0 note=72 velocity=63 time=0.14423075
EXTRACT: note_off channel=0 note=68 velocity=63 time=0
EXTRACT: note_off channel=0 note=65 velocity=63 time=0
EXTRACT: note_off channel=0 note=60 velocity=63 time=0
EXTRACT: note_off channel=0 note=53 velocity=63 time=0
EXTRACT: note_on channel=0 note=64 velocity=63 time=0
EXTRACT: note_on channel=0 note=59 velocity=63 time=0
EXTRACT: note_on channel=0 note=55 velocity=63 time=0
EXTRACT: note_on channel=0 note=50 velocity=63 time=0
EXTRACT: note_on channel=0 note=45 velocity=63 time=0
EXTRACT: note_off channel=4 note=67 velocity=95 time=0
EXTRACT: note_off channel=4 note=61 velocity=95 time=0
EXTRACT: note_off channel=4 note=70 velocity=95 time=0
EXTRACT: note_on channel=4 note=67 velocity=95 time=0
EXTRACT: note_on channel=4 note=61 velocity=95 time=0
EXTRACT: note_on channel=4 note=70 velocity=95 time=0
EXTRACT: note_off channel=0 note=64 velocity=63 time=0.031249995833333332
EXTRACT: note_off channel=0 note=59 velocity=63 time=0
EXTRACT: note_off channel=0 note=55 velocity=63 time=0
EXTRACT: note_off channel=0 note=50 velocity=63 time=0
EXTRACT: note_off channel=0 note=45 velocity=63 time=0
EXTRACT: note_on channel=0 note=64 velocity=63 time=0.11298075416666667
EXTRACT: note_on channel=0 note=59 velocity=63 time=0
EXTRACT: note_on channel=0 note=55 velocity=63 time=0
EXTRACT: note_on channel=0 note=50 velocity=63 time=0
EXTRACT: note_on channel=0 note=45 velocity=63 time=0
EXTRACT: note_off channel=4 note=67 velocity=95 time=0
EXTRACT: note_off channel=4 note=61 velocity=95 time=0
EXTRACT: note_off channel=4 note=70 velocity=95 time=0
EXTRACT: note_on channel=4 note=67 velocity=95 time=0
EXTRACT: note_on channel=4 note=61 velocity=95 time=0
EXTRACT: note_on channel=4 note=70 velocity=95 time=0
EXTRACT: note_off channel=0 note=64 velocity=63 time=0.031249995833333332
EXTRACT: note_off channel=0 note=59 velocity=63 time=0
EXTRACT: note_off channel=0 note=55 velocity=63 time=0
EXTRACT: note_off channel=0 note=50 velocity=63 time=0
EXTRACT: note_off channel=0 note=45 velocity=63 time=0
EXTRACT: note_on channel=0 note=72 velocity=63 time=0.11298075416666667
EXTRACT: note_on channel=0 note=68 velocity=63 time=0
EXTRACT: note_on channel=0 note=65 velocity=63 time=0
EXTRACT: note_on channel=0 note=60 velocity=63 time=0
EXTRACT: note_on channel=0 note=53 velocity=63 time=0
EXTRACT: note_off channel=0 note=72 velocity=63 time=0.14423075
EXTRACT: note_off channel=0 note=68 velocity=63 time=0
EXTRACT: note_off channel=0 note=65 velocity=63 time=0
EXTRACT: note_off channel=0 note=60 velocity=63 time=0
EXTRACT: note_off channel=0 note=53 velocity=63 time=0
EXTRACT: note_on channel=0 note=72 velocity=63 time=0
EXTRACT: note_on channel=0 note=68 velocity=63 time=0
EXTRACT: note_on channel=0 note=65 velocity=63 time=0
EXTRACT: note_on channel=0 note=60 velocity=63 time=0
EXTRACT: note_on channel=0 note=53 velocity=63 time=0
EXTRACT: note_off channel=4 note=67 velocity=95 time=0
EXTRACT: note_off channel=4 note=61 velocity=95 time=0
EXTRACT: note_off channel=4 note=70 velocity=95 time=0
EXTRACT: note_on channel=4 note=68 velocity=95 time=0
EXTRACT: note_on channel=4 note=65 velocity=95 time=0
EXTRACT: note_on channel=4 note=60 velocity=95 time=0
EXTRACT: note_off channel=0 note=72 velocity=63 time=0.14423075
EXTRACT: note_off channel=0 note=68 velocity=63 time=0
EXTRACT: note_off channel=0 note=65 velocity=63 time=0
EXTRACT: note_off channel=0 note=60 velocity=63 time=0
EXTRACT: note_off channel=0 note=53 velocity=63 time=0
EXTRACT: note_on channel=0 note=64 velocity=63 time=0
EXTRACT: note_on channel=0 note=59 velocity=63 time=0
EXTRACT: note_on channel=0 note=55 velocity=63 time=0
EXTRACT: note_on channel=0 note=50 velocity=63 time=0
EXTRACT: note_on channel=0 note=45 velocity=63 time=0
EXTRACT: note_off channel=4 note=68 velocity=95 time=0
EXTRACT: note_off channel=4 note=65 velocity=95 time=0
EXTRACT: note_off channel=4 note=60 velocity=95 time=0
EXTRACT: note_on channel=4 note=68 velocity=95 time=0
EXTRACT: note_on channel=4 note=65 velocity=95 time=0
EXTRACT: note_on channel=4 note=60 velocity=95 time=0
EXTRACT: note_off channel=0 note=64 velocity=63 time=0.031249995833333332
EXTRACT: note_off channel=0 note=59 velocity=63 time=0
EXTRACT: note_off channel=0 note=55 velocity=63 time=0
EXTRACT: note_off channel=0 note=50 velocity=63 time=0
EXTRACT: note_off channel=0 note=45 velocity=63 time=0
EXTRACT: note_on channel=0 note=64 velocity=63 time=0.11298075416666667
EXTRACT: note_on channel=0 note=59 velocity=63 time=0
EXTRACT: note_on channel=0 note=55 velocity=63 time=0
EXTRACT: note_on channel=0 note=50 velocity=63 time=0
EXTRACT: note_on channel=0 note=45 velocity=63 time=0
EXTRACT: note_off channel=2 note=72 velocity=79 time=0
EXTRACT: note_off channel=2 note=68 velocity=79 time=0
EXTRACT: note_off channel=2 note=65 velocity=79 time=0
EXTRACT: note_on channel=2 note=72 velocity=79 time=0
EXTRACT: note_on channel=2 note=68 velocity=79 time=0
EXTRACT: note_on channel=2 note=65 velocity=79 time=0
EXTRACT: note_off channel=4 note=68 velocity=95 time=0
EXTRACT: note_off channel=4 note=65 velocity=95 time=0
EXTRACT: note_off channel=4 note=60 velocity=95 time=0
EXTRACT: note_on channel=4 note=68 velocity=95 time=0
EXTRACT: note_on channel=4 note=65 velocity=95 time=0
EXTRACT: note_on channel=4 note=60 velocity=95 time=0
EXTRACT: note_off channel=0 note=64 velocity=63 time=0.031249995833333332
EXTRACT: note_off channel=0 note=59 velocity=63 time=0
EXTRACT: note_off channel=0 note=55 velocity=63 time=0
EXTRACT: note_off channel=0 note=50 velocity=63 time=0
EXTRACT: note_off channel=0 note=45 velocity=63 time=0
EXTRACT: note_on channel=0 note=72 velocity=63 time=0.11298075416666667
EXTRACT: note_on channel=0 note=68 velocity=63 time=0
EXTRACT: note_on channel=0 note=65 velocity=63 time=0
EXTRACT: note_on channel=0 note=60 velocity=63 time=0
EXTRACT: note_on channel=0 note=53 velocity=63 time=0
EXTRACT: note_off channel=2 note=72 velocity=79 time=0
EXTRACT: note_off channel=2 note=68 velocity=79 time=0
EXTRACT: note_off channel=2 note=65 velocity=79 time=0
EXTRACT: note_off channel=4 note=68 velocity=95 time=0
EXTRACT: note_off channel=4 note=65 velocity=95 time=0
EXTRACT: note_off channel=4 note=60 velocity=95 time=0
EXTRACT: note_on channel=4 note=68 velocity=95 time=0
EXTRACT: note_on channel=4 note=65 velocity=95 time=0
EXTRACT: note_on channel=4 note=60 velocity=95 time=0
EXTRACT: note_off channel=0 note=72 velocity=63 time=0.14423075
EXTRACT: note_off channel=0 note=68 velocity=63 time=0
EXTRACT: note_off channel=0 note=65 velocity=63 time=0
EXTRACT: note_off channel=0 note=60 velocity=63 time=0
EXTRACT: note_off channel=0 note=53 velocity=63 time=0
EXTRACT: note_on channel=0 note=72 velocity=63 time=0
EXTRACT: note_on channel=0 note=68 velocity=63 time=0
EXTRACT: note_on channel=0 note=65 velocity=63 time=0
EXTRACT: note_on channel=0 note=60 velocity=63 time=0
EXTRACT: note_on channel=0 note=53 velocity=63 time=0
EXTRACT: note_off channel=4 note=68 velocity=95 time=0
EXTRACT: note_off channel=4 note=65 velocity=95 time=0
EXTRACT: note_off channel=4 note=60 velocity=95 time=0
EXTRACT: note_on channel=4 note=67 velocity=95 time=0
EXTRACT: note_on channel=4 note=63 velocity=95 time=0
EXTRACT: note_on channel=4 note=58 velocity=95 time=0
EXTRACT: note_off channel=0 note=72 velocity=63 time=0.14423075
EXTRACT: note_off channel=0 note=68 velocity=63 time=0
EXTRACT: note_off channel=0 note=65 velocity=63 time=0
EXTRACT: note_off channel=0 note=60 velocity=63 time=0
EXTRACT: note_off channel=0 note=53 velocity=63 time=0
EXTRACT: note_on channel=0 note=64 velocity=63 time=0
EXTRACT: note_on channel=0 note=59 velocity=63 time=0
EXTRACT: note_on channel=0 note=55 velocity=63 time=0
EXTRACT: note_on channel=0 note=50 velocity=63 time=0
EXTRACT: note_on channel=0 note=45 velocity=63 time=0
EXTRACT: note_on channel=2 note=72 velocity=79 time=0
EXTRACT: note_on channel=2 note=68 velocity=79 time=0
EXTRACT: note_on channel=2 note=65 velocity=79 time=0
EXTRACT: note_off channel=4 note=67 velocity=95 time=0
EXTRACT: note_off channel=4 note=63 velocity=95 time=0
EXTRACT: note_off channel=4 note=58 velocity=95 time=0
EXTRACT: note_on channel=4 note=67 velocity=95 time=0
EXTRACT: note_on channel=4 note=63 velocity=95 time=0
EXTRACT: note_on channel=4 note=58 velocity=95 time=0
EXTRACT: note_off channel=0 note=64 velocity=63 time=0.031249995833333332
EXTRACT: note_off channel=0 note=59 velocity=63 time=0
EXTRACT: note_off channel=0 note=55 velocity=63 time=0
EXTRACT: note_off channel=0 note=50 velocity=63 time=0
EXTRACT: note_off channel=0 note=45 velocity=63 time=0
EXTRACT: note_on channel=0 note=64 velocity=63 time=0.11298075416666667
EXTRACT: note_on channel=0 note=59 velocity=63 time=0
EXTRACT: note_on channel=0 note=55 velocity=63 time=0
EXTRACT: note_on channel=0 note=50 velocity=63 time=0
EXTRACT: note_on channel=0 note=45 velocity=63 time=0
EXTRACT: note_off channel=4 note=67 velocity=95 time=0
EXTRACT: note_off channel=4 note=63 velocity=95 time=0
EXTRACT: note_off channel=4 note=58 velocity=95 time=0
EXTRACT: note_on channel=4 note=67 velocity=95 time=0
EXTRACT: note_on channel=4 note=63 velocity=95 time=0
EXTRACT: note_on channel=4 note=58 velocity=95 time=0
EXTRACT: note_off channel=0 note=64 velocity=63 time=0.031249995833333332
EXTRACT: note_off channel=0 note=59 velocity=63 time=0
EXTRACT: note_off channel=0 note=55 velocity=63 time=0
EXTRACT: note_off channel=0 note=50 velocity=63 time=0
EXTRACT: note_off channel=0 note=45 velocity=63 time=0
EXTRACT: note_on channel=0 note=72 velocity=63 time=0.11298075416666667
EXTRACT: note_on channel=0 note=68 velocity=63 time=0
EXTRACT: note_on channel=0 note=65 velocity=63 time=0
EXTRACT: note_on channel=0 note=60 velocity=63 time=0
EXTRACT: note_on channel=0 note=53 velocity=63 time=0
EXTRACT: note_off channel=0 note=72 velocity=63 time=0.14423075
EXTRACT: note_off channel=0 note=68 velocity=63 time=0
EXTRACT: note_off channel=0 note=65 velocity=63 time=0
EXTRACT: note_off channel=0 note=60 velocity=63 time=0
EXTRACT: note_off channel=0 note=53 velocity=63 time=0
EXTRACT: note_on channel=0 note=72 velocity=63 time=0
EXTRACT: note_on channel=0 note=68 velocity=63 time=0
EXTRACT: note_on channel=0 note=65 velocity=63 time=0
EXTRACT: note_on channel=0 note=60 velocity=63 time=0
EXTRACT: note_on channel=0 note=53 velocity=63 time=0
EXTRACT: note_off channel=4 note=67 velocity=95 time=0
EXTRACT: note_off channel=4 note=63 velocity=95 time=0
EXTRACT: note_off channel=4 note=58 velocity=95 time=0
EXTRACT: note_on channel=4 note=68 velocity=95 time=0
EXTRACT: note_on channel=4 note=65 velocity=95 time=0
EXTRACT: note_on channel=4 note=60 velocity=95 time=0
EXTRACT: note_off channel=0 note=72 velocity=63 time=0.14423075
EXTRACT: note_off channel=0 note=68 velocity=63 time=0
EXTRACT: note_off channel=0 note=65 velocity=63 time=0
EXTRACT: note_off channel=0 note=60 velocity=63 time=0
EXTRACT: note_off channel=0 note=53 velocity=63 time=0
EXTRACT: note_on channel=0 note=64 velocity=63 time=0
EXTRACT: note_on channel=0 note=59 velocity=63 time=0
EXTRACT: note_on channel=0 note=55 velocity=63 time=0
EXTRACT: note_on channel=0 note=50 velocity=63 time=0
EXTRACT: note_on channel=0 note=45 velocity=63 time=0
EXTRACT: note_off channel=2 note=72 velocity=79 time=0
EXTRACT: note_off channel=2 note=68 velocity=79 time=0
EXTRACT: note_off channel=2 note=65 velocity=79 time=0
EXTRACT: note_on channel=2 note=72 velocity=79 time=0
EXTRACT: note_on channel=2 note=68 velocity=79 time=0
EXTRACT: note_on channel=2 note=65 velocity=79 time=0
EXTRACT: note_off channel=4 note=68 velocity=95 time=0
EXTRACT: note_off channel=4 note=65 velocity=95 time=0
EXTRACT: note_off channel=4 note=60 velocity=95 time=0
EXTRACT: note_on channel=4 note=68 velocity=95 time=0
EXTRACT: note_on channel=4 note=65 velocity=95 time=0
EXTRACT: note_on channel=4 note=60 velocity=95 time=0
EXTRACT: note_off channel=0 note=64 velocity=63 time=0.031249995833333332
EXTRACT: note_off channel=0 note=59 velocity=63 time=0
EXTRACT: note_off channel=0 note=55 velocity=63 time=0
EXTRACT: note_off channel=0 note=50 velocity=63 time=0
EXTRACT: note_off channel=0 note=45 velocity=63 time=0
EXTRACT: note_on channel=0 note=64 velocity=63 time=0.11298075416666667
EXTRACT: note_on channel=0 note=59 velocity=63 time=0
EXTRACT: note_on channel=0 note=55 velocity=63 time=0
EXTRACT: note_on channel=0 note=50 velocity=63 time=0
EXTRACT: note_on channel=0 note=45 velocity=63 time=0
EXTRACT: note_off channel=2 note=72 velocity=79 time=0
EXTRACT: note_off channel=2 note=68 velocity=79 time=0
EXTRACT: note_off channel=2 note=65 velocity=79 time=0
EXTRACT: note_off channel=4 note=68 velocity=95 time=0
EXTRACT: note_off channel=4 note=65 velocity=95 time=0
EXTRACT: note_off channel=4 note=60 velocity=95 time=0
EXTRACT: note_on channel=4 note=68 velocity=95 time=0
EXTRACT: note_on channel=4 note=65 velocity=95 time=0
EXTRACT: note_on channel=4 note=60 velocity=95 time=0
EXTRACT: note_off channel=0 note=64 velocity=63 time=0.031249995833333332
EXTRACT: note_off channel=0 note=59 velocity=63 time=0
EXTRACT: note_off channel=0 note=55 velocity=63 time=0
EXTRACT: note_off channel=0 note=50 velocity=63 time=0
EXTRACT: note_off channel=0 note=45 velocity=63 time=0
EXTRACT: note_on channel=0 note=72 velocity=63 time=0.11298075416666667
EXTRACT: note_on channel=0 note=68 velocity=63 time=0
EXTRACT: note_on channel=0 note=65 velocity=63 time=0
EXTRACT: note_on channel=0 note=60 velocity=63 time=0
EXTRACT: note_on channel=0 note=53 velocity=63 time=0
EXTRACT: note_on channel=2 note=72 velocity=79 time=0
EXTRACT: note_on channel=2 note=68 velocity=79 time=0
EXTRACT: note_on channel=2 note=65 velocity=79 time=0
EXTRACT: note_off channel=4 note=68 velocity=95 time=0
EXTRACT: note_off channel=4 note=65 velocity=95 time=0
EXTRACT: note_off channel=4 note=60 velocity=95 time=0
EXTRACT: note_off channel=0 note=72 velocity=63 time=0.14423075
EXTRACT: note_off channel=0 note=68 velocity=63 time=0
EXTRACT: note_off channel=0 note=65 velocity=63 time=0
EXTRACT: note_off channel=0 note=60 velocity=63 time=0
EXTRACT: note_off channel=0 note=53 velocity=63 time=0
EXTRACT: note_on channel=0 note=72 velocity=63 time=0
EXTRACT: note_on channel=0 note=68 velocity=63 time=0
EXTRACT: note_on channel=0 note=65 velocity=63 time=0
EXTRACT: note_on channel=0 note=60 velocity=63 time=0
EXTRACT: note_on channel=0 note=53 velocity=63 time=0
EXTRACT: note_off channel=2 note=72 velocity=79 time=0
EXTRACT: note_off channel=2 note=68 velocity=79 time=0
EXTRACT: note_off channel=2 note=65 velocity=79 time=0
EXTRACT: note_on channel=2 note=72 velocity=79 time=0
EXTRACT: note_on channel=2 note=68 velocity=79 time=0
EXTRACT: note_on channel=2 note=65 velocity=79 time=0
EXTRACT: note_off channel=0 note=72 velocity=63 time=0.14423075
EXTRACT: note_off channel=0 note=68 velocity=63 time=0
EXTRACT: note_off channel=0 note=65 velocity=63 time=0
EXTRACT: note_off channel=0 note=60 velocity=63 time=0
EXTRACT: note_off channel=0 note=53 velocity=63 time=0
EXTRACT: note_on channel=0 note=64 velocity=63 time=0
EXTRACT: note_on channel=0 note=59 velocity=63 time=0
EXTRACT: note_on channel=0 note=55 velocity=63 time=0
EXTRACT: note_on channel=0 note=50 velocity=63 time=0
EXTRACT: note_on channel=0 note=45 velocity=63 time=0
EXTRACT: note_off channel=2 note=72 velocity=79 time=0
EXTRACT: note_off channel=2 note=68 velocity=79 time=0
EXTRACT: note_off channel=2 note=65 velocity=79 time=0
EXTRACT: note_off channel=0 note=64 velocity=63 time=0.031249995833333332
EXTRACT: note_off channel=0 note=59 velocity=63 time=0
EXTRACT: note_off channel=0 note=55 velocity=63 time=0
EXTRACT: note_off channel=0 note=50 velocity=63 time=0
EXTRACT: note_off channel=0 note=45 velocity=63 time=0
EXTRACT: note_on channel=0 note=64 velocity=63 time=0.11298075416666667
EXTRACT: note_on channel=0 note=59 velocity=63 time=0
EXTRACT: note_on channel=0 note=55 velocity=63 time=0
EXTRACT: note_on channel=0 note=50 velocity=63 time=0
EXTRACT: note_on channel=0 note=45 velocity=63 time=0
EXTRACT: note_off channel=0 note=64 velocity=63 time=0.031249995833333332
EXTRACT: note_off channel=0 note=59 velocity=63 time=0
EXTRACT: note_off channel=0 note=55 velocity=63 time=0
EXTRACT: note_off channel=0 note=50 velocity=63 time=0
EXTRACT: note_off channel=0 note=45 velocity=63 time=0
EXTRACT: note_on channel=0 note=72 velocity=63 time=0.11298075416666667
EXTRACT: note_on channel=0 note=68 velocity=63 time=0
EXTRACT: note_on channel=0 note=65 velocity=63 time=0
EXTRACT: note_on channel=0 note=60 velocity=63 time=0
EXTRACT: note_on channel=0 note=53 velocity=63 time=0
EXTRACT: note_on channel=4 note=67 velocity=95 time=0
EXTRACT: note_on channel=4 note=63 velocity=95 time=0
EXTRACT: note_on channel=4 note=58 velocity=95 time=0
EXTRACT: note_off channel=0 note=72 velocity=63 time=0.14423075
EXTRACT: note_off channel=0 note=68 velocity=63 time=0
EXTRACT: note_off channel=0 note=65 velocity=63 time=0
EXTRACT: note_off channel=0 note=60 velocity=63 time=0
EXTRACT: note_off channel=0 note=53 velocity=63 time=0
EXTRACT: note_on channel=0 note=72 velocity=63 time=0
EXTRACT: note_on channel=0 note=68 velocity=63 time=0
EXTRACT: note_on channel=0 note=65 velocity=63 time=0
EXTRACT: note_on channel=0 note=60 velocity=63 time=0
EXTRACT: note_on channel=0 note=53 velocity=63 time=0
EXTRACT: note_off channel=4 note=67 velocity=95 time=0
EXTRACT: note_off channel=4 note=63 velocity=95 time=0
EXTRACT: note_off channel=4 note=58 velocity=95 time=0
EXTRACT: note_on channel=4 note=68 velocity=95 time=0
EXTRACT: note_on channel=4 note=65 velocity=95 time=0
EXTRACT: note_on channel=4 note=60 velocity=95 time=0
EXTRACT: note_off channel=0 note=72 velocity=63 time=0.14423075
EXTRACT: note_off channel=0 note=68 velocity=63 time=0
EXTRACT: note_off channel=0 note=65 velocity=63 time=0
EXTRACT: note_off channel=0 note=60 velocity=63 time=0
EXTRACT: note_off channel=0 note=53 velocity=63 time=0
EXTRACT: note_on channel=0 note=64 velocity=63 time=0
EXTRACT: note_on channel=0 note=59 velocity=63 time=0
EXTRACT: note_on channel=0 note=55 velocity=63 time=0
EXTRACT: note_on channel=0 note=50 velocity=63 time=0
EXTRACT: note_on channel=0 note=45 velocity=63 time=0
EXTRACT: note_on channel=2 note=72 velocity=79 time=0
EXTRACT: note_on channel=2 note=68 velocity=79 time=0
EXTRACT: note_on channel=2 note=65 velocity=79 time=0
EXTRACT: note_off channel=4 note=68 velocity=95 time=0
EXTRACT: note_off channel=4 note=65 velocity=95 time=0
EXTRACT: note_off channel=4 note=60 velocity=95 time=0
EXTRACT: note_on channel=4 note=68 velocity=95 time=0
EXTRACT: note_on channel=4 note=65 velocity=95 time=0
EXTRACT: note_on channel=4 note=60 velocity=95 time=0
EXTRACT: note_off channel=0 note=64 velocity=63 time=0.031249995833333332
EXTRACT: note_off channel=0 note=59 velocity=63 time=0
EXTRACT: note_off channel=0 note=55 velocity=63 time=0
EXTRACT: note_off channel=0 note=50 velocity=63 time=0
EXTRACT: note_off channel=0 note=45 velocity=63 time=0
EXTRACT: note_on channel=0 note=64 velocity=63 time=0.11298075416666667
EXTRACT: note_on channel=0 note=59 velocity=63 time=0
EXTRACT: note_on channel=0 note=55 velocity=63 time=0
EXTRACT: note_on channel=0 note=50 velocity=63 time=0
EXTRACT: note_on channel=0 note=45 velocity=63 time=0
EXTRACT: note_off channel=2 note=72 velocity=79 time=0
EXTRACT: note_off channel=2 note=68 velocity=79 time=0
EXTRACT: note_off channel=2 note=65 velocity=79 time=0
EXTRACT: note_on channel=2 note=72 velocity=79 time=0
EXTRACT: note_on channel=2 note=68 velocity=79 time=0
EXTRACT: note_on channel=2 note=65 velocity=79 time=0
EXTRACT: note_off channel=4 note=68 velocity=95 time=0
EXTRACT: note_off channel=4 note=65 velocity=95 time=0
EXTRACT: note_off channel=4 note=60 velocity=95 time=0
EXTRACT: note_on channel=4 note=68 velocity=95 time=0
EXTRACT: note_on channel=4 note=65 velocity=95 time=0
EXTRACT: note_on channel=4 note=60 velocity=95 time=0
EXTRACT: note_off channel=0 note=64 velocity=63 time=0.031249995833333332
EXTRACT: note_off channel=0 note=59 velocity=63 time=0
EXTRACT: note_off channel=0 note=55 velocity=63 time=0
EXTRACT: note_off channel=0 note=50 velocity=63 time=0
EXTRACT: note_off channel=0 note=45 velocity=63 time=0
EXTRACT: note_on channel=0 note=72 velocity=63 time=0.11298075416666667
EXTRACT: note_on channel=0 note=68 velocity=63 time=0
EXTRACT: note_on channel=0 note=65 velocity=63 time=0
EXTRACT: note_on channel=0 note=60 velocity=63 time=0
EXTRACT: note_on channel=0 note=53 velocity=63 time=0
EXTRACT: note_off channel=4 note=68 velocity=95 time=0
EXTRACT: note_off channel=4 note=65 velocity=95 time=0
EXTRACT: note_off channel=4 note=60 velocity=95 time=0
EXTRACT: note_off channel=0 note=72 velocity=63 time=0.14423075
EXTRACT: note_off channel=0 note=68 velocity=63 time=0
EXTRACT: note_off channel=0 note=65 velocity=63 time=0
EXTRACT: note_off channel=0 note=60 velocity=63 time=0
EXTRACT: note_off channel=0 note=53 velocity=63 time=0
EXTRACT: note_on channel=0 note=72 velocity=63 time=0
EXTRACT: note_on channel=0 note=68 velocity=63 time=0
EXTRACT: note_on channel=0 note=65 velocity=63 time=0
EXTRACT: note_on channel=0 note=60 velocity=63 time=0
EXTRACT: note_on channel=0 note=53 velocity=63 time=0
EXTRACT: note_off channel=2 note=72 velocity=79 time=0
EXTRACT: note_off channel=2 note=68 velocity=79 time=0
EXTRACT: note_off channel=2 note=65 velocity=79 time=0
EXTRACT: note_on channel=2 note=72 velocity=79 time=0
EXTRACT: note_on channel=2 note=68 velocity=79 time=0
EXTRACT: note_on channel=2 note=65 velocity=79 time=0
EXTRACT: note_off channel=0 note=72 velocity=63 time=0.14423075
EXTRACT: note_off channel=0 note=68 velocity=63 time=0
EXTRACT: note_off channel=0 note=65 velocity=63 time=0
EXTRACT: note_off channel=0 note=60 velocity=63 time=0
EXTRACT: note_off channel=0 note=53 velocity=63 time=0
EXTRACT: note_on channel=0 note=64 velocity=63 time=0
EXTRACT: note_on channel=0 note=59 velocity=63 time=0
EXTRACT: note_on channel=0 note=55 velocity=63 time=0
EXTRACT: note_on channel=0 note=50 velocity=63 time=0
EXTRACT: note_on channel=0 note=45 velocity=63 time=0
EXTRACT: note_off channel=2 note=72 velocity=79 time=0
EXTRACT: note_off channel=2 note=68 velocity=79 time=0
EXTRACT: note_off channel=2 note=65 velocity=79 time=0
EXTRACT: note_on channel=2 note=72 velocity=79 time=0
EXTRACT: note_on channel=2 note=68 velocity=79 time=0
EXTRACT: note_on channel=2 note=65 velocity=79 time=0
EXTRACT: note_off channel=0 note=64 velocity=63 time=0.031249995833333332
EXTRACT: note_off channel=0 note=59 velocity=63 time=0
EXTRACT: note_off channel=0 note=55 velocity=63 time=0
EXTRACT: note_off channel=0 note=50 velocity=63 time=0
EXTRACT: note_off channel=0 note=45 velocity=63 time=0
EXTRACT: note_on channel=0 note=64 velocity=63 time=0.11298075416666667
EXTRACT: note_on channel=0 note=59 velocity=63 time=0
EXTRACT: note_on channel=0 note=55 velocity=63 time=0
EXTRACT: note_on channel=0 note=50 velocity=63 time=0
EXTRACT: note_on channel=0 note=45 velocity=63 time=0
EXTRACT: note_off channel=0 note=64 velocity=63 time=0.031249995833333332
EXTRACT: note_off channel=0 note=59 velocity=63 time=0
EXTRACT: note_off channel=0 note=55 velocity=63 time=0
EXTRACT: note_off channel=0 note=50 velocity=63 time=0
EXTRACT: note_off channel=0 note=45 velocity=63 time=0
EXTRACT: note_on channel=0 note=72 velocity=63 time=0.11298075416666667
EXTRACT: note_on channel=0 note=68 velocity=63 time=0
EXTRACT: note_on channel=0 note=65 velocity=63 time=0
EXTRACT: note_on channel=0 note=60 velocity=63 time=0
EXTRACT: note_on channel=0 note=53 velocity=63 time=0
EXTRACT: note_on channel=4 note=72 velocity=95 time=0
EXTRACT: note_on channel=4 note=68 velocity=95 time=0
EXTRACT: note_on channel=4 note=65 velocity=95 time=0
EXTRACT: note_off channel=0 note=72 velocity=63 time=0.14423075
EXTRACT: note_off channel=0 note=68 velocity=63 time=0
EXTRACT: note_off channel=0 note=65 velocity=63 time=0
EXTRACT: note_off channel=0 note=60 velocity=63 time=0
EXTRACT: note_off channel=0 note=53 velocity=63 time=0
EXTRACT: note_on channel=0 note=72 velocity=63 time=0
EXTRACT: note_on channel=0 note=68 velocity=63 time=0
EXTRACT: note_on channel=0 note=65 velocity=63 time=0
EXTRACT: note_on channel=0 note=60 velocity=63 time=0
EXTRACT: note_on channel=0 note=53 velocity=63 time=0
EXTRACT: note_off channel=0 note=72 velocity=63 time=0.14423075
EXTRACT: note_off channel=0 note=68 velocity=63 time=0
EXTRACT: note_off channel=0 note=65 velocity=63 time=0
EXTRACT: note_off channel=0 note=60 velocity=63 time=0
EXTRACT: note_off channel=0 note=53 velocity=63 time=0
EXTRACT: note_on channel=0 note=64 velocity=63 time=0
EXTRACT: note_on channel=0 note=59 velocity=63 time=0
EXTRACT: note_on channel=0 note=55 velocity=63 time=0
EXTRACT: note_on channel=0 note=50 velocity=63 time=0
EXTRACT: note_on channel=0 note=45 velocity=63 time=0
EXTRACT: note_off channel=2 note=72 velocity=79 time=0
EXTRACT: note_off channel=2 note=68 velocity=79 time=0
EXTRACT: note_off channel=2 note=65 velocity=79 time=0
EXTRACT: note_on channel=2 note=72 velocity=79 time=0
EXTRACT: note_on channel=2 note=68 velocity=79 time=0
EXTRACT: note_on channel=2 note=65 velocity=79 time=0
EXTRACT: note_off channel=4 note=72 velocity=95 time=0
EXTRACT: note_off channel=4 note=68 velocity=95 time=0
EXTRACT: note_off channel=4 note=65 velocity=95 time=0
EXTRACT: note_off channel=0 note=64 velocity=63 time=0.031249995833333332
EXTRACT: note_off channel=0 note=59 velocity=63 time=0
EXTRACT: note_off channel=0 note=55 velocity=63 time=0
EXTRACT: note_off channel=0 note=50 velocity=63 time=0
EXTRACT: note_off channel=0 note=45 velocity=63 time=0
EXTRACT: note_on channel=0 note=64 velocity=63 time=0.11298075416666667
EXTRACT: note_on channel=0 note=59 velocity=63 time=0
EXTRACT: note_on channel=0 note=55 velocity=63 time=0
EXTRACT: note_on channel=0 note=50 velocity=63 time=0
EXTRACT: note_on channel=0 note=45 velocity=63 time=0
EXTRACT: note_off channel=2 note=72 velocity=79 time=0
EXTRACT: note_off channel=2 note=68 velocity=79 time=0
EXTRACT: note_off channel=2 note=65 velocity=79 time=0
EXTRACT: note_on channel=2 note=72 velocity=79 time=0
EXTRACT: note_on channel=2 note=68 velocity=79 time=0
EXTRACT: note_on channel=2 note=65 velocity=79 time=0
EXTRACT: note_off channel=0 note=64 velocity=63 time=0.031249995833333332
EXTRACT: note_off channel=0 note=59 velocity=63 time=0
EXTRACT: note_off channel=0 note=55 velocity=63 time=0
EXTRACT: note_off channel=0 note=50 velocity=63 time=0
EXTRACT: note_off channel=0 note=45 velocity=63 time=0
EXTRACT: note_on channel=0 note=72 velocity=63 time=0.11298075416666667
EXTRACT: note_on channel=0 note=68 velocity=63 time=0
EXTRACT: note_on channel=0 note=65 velocity=63 time=0
EXTRACT: note_on channel=0 note=60 velocity=63 time=0
EXTRACT: note_on channel=0 note=53 velocity=63 time=0
EXTRACT: note_on channel=4 note=70 velocity=95 time=0
EXTRACT: note_on channel=4 note=67 velocity=95 time=0
EXTRACT: note_on channel=4 note=63 velocity=95 time=0
EXTRACT: note_off channel=0 note=72 velocity=63 time=0.14423075
EXTRACT: note_off channel=0 note=68 velocity=63 time=0
EXTRACT: note_off channel=0 note=65 velocity=63 time=0
EXTRACT: note_off channel=0 note=60 velocity=63 time=0
EXTRACT: note_off channel=0 note=53 velocity=63 time=0
EXTRACT: note_on channel=0 note=72 velocity=63 time=0
EXTRACT: note_on channel=0 note=68 velocity=63 time=0
EXTRACT: note_on channel=0 note=65 velocity=63 time=0
EXTRACT: note_on channel=0 note=60 velocity=63 time=0
EXTRACT: note_on channel=0 note=53 velocity=63 time=0
EXTRACT: note_off channel=0 note=72 velocity=63 time=0.14423075
EXTRACT: note_off channel=0 note=68 velocity=63 time=0
EXTRACT: note_off channel=0 note=65 velocity=63 time=0
EXTRACT: note_off channel=0 note=60 velocity=63 time=0
EXTRACT: note_off channel=0 note=53 velocity=63 time=0
EXTRACT: note_on channel=0 note=64 velocity=63 time=0
EXTRACT: note_on channel=0 note=59 velocity=63 time=0
EXTRACT: note_on channel=0 note=55 velocity=63 time=0
EXTRACT: note_on channel=0 note=50 velocity=63 time=0
EXTRACT: note_on channel=0 note=45 velocity=63 time=0
EXTRACT: note_off channel=2 note=72 velocity=79 time=0
EXTRACT: note_off channel=2 note=68 velocity=79 time=0
EXTRACT: note_off channel=2 note=65 velocity=79 time=0
EXTRACT: note_off channel=4 note=70 velocity=95 time=0
EXTRACT: note_off channel=4 note=67 velocity=95 time=0
EXTRACT: note_off channel=4 note=63 velocity=95 time=0
EXTRACT: note_off channel=0 note=64 velocity=63 time=0.031249995833333332
EXTRACT: note_off channel=0 note=59 velocity=63 time=0
EXTRACT: note_off channel=0 note=55 velocity=63 time=0
EXTRACT: note_off channel=0 note=50 velocity=63 time=0
EXTRACT: note_off channel=0 note=45 velocity=63 time=0
EXTRACT: note_on channel=0 note=64 velocity=63 time=0.11298075416666667
EXTRACT: note_on channel=0 note=59 velocity=63 time=0
EXTRACT: note_on channel=0 note=55 velocity=63 time=0
EXTRACT: note_on channel=0 note=50 velocity=63 time=0
EXTRACT: note_on channel=0 note=45 velocity=63 time=0
EXTRACT: note_off channel=0 note=64 velocity=63 time=0.031249995833333332
EXTRACT: note_off channel=0 note=59 velocity=63 time=0
EXTRACT: note_off channel=0 note=55 velocity=63 time=0
EXTRACT: note_off channel=0 note=50 velocity=63 time=0
EXTRACT: note_off channel=0 note=45 velocity=63 time=0
EXTRACT: note_on channel=0 note=72 velocity=63 time=0.11298075416666667
EXTRACT: note_on channel=0 note=68 velocity=63 time=0
EXTRACT: note_on channel=0 note=65 velocity=63 time=0
EXTRACT: note_on channel=0 note=60 velocity=63 time=0
EXTRACT: note_on channel=0 note=53 velocity=63 time=0
EXTRACT: note_on channel=2 note=64 velocity=79 time=0
EXTRACT: note_on channel=2 note=59 velocity=79 time=0
EXTRACT: note_on channel=2 note=55 velocity=79 time=0
EXTRACT: note_on channel=4 note=68 velocity=95 time=0
EXTRACT: note_on channel=4 note=65 velocity=95 time=0
EXTRACT: note_on channel=4 note=60 velocity=95 time=0
EXTRACT: note_off channel=2 note=64 velocity=79 time=0.031249995833333332
EXTRACT: note_off channel=2 note=59 velocity=79 time=0
EXTRACT: note_off channel=2 note=55 velocity=79 time=0
EXTRACT: note_off channel=0 note=72 velocity=63 time=0.11298075416666667
EXTRACT: note_off channel=0 note=68 velocity=63 time=0
EXTRACT: note_off channel=0 note=65 velocity=63 time=0
EXTRACT: note_off channel=0 note=60 velocity=63 time=0
EXTRACT: note_off channel=0 note=53 velocity=63 time=0
EXTRACT: note_on channel=0 note=72 velocity=63 time=0
EXTRACT: note_on channel=0 note=68 velocity=63 time=0
EXTRACT: note_on channel=0 note=65 velocity=63 time=0
EXTRACT: note_on channel=0 note=60 velocity=63 time=0
EXTRACT: note_on channel=0 note=53 velocity=63 time=0
EXTRACT: note_on channel=2 note=72 velocity=79 time=0
EXTRACT: note_on channel=2 note=68 velocity=79 time=0
EXTRACT: note_on channel=2 note=65 velocity=79 time=0
EXTRACT: note_off channel=0 note=72 velocity=63 time=0.14423075
EXTRACT: note_off channel=0 note=68 velocity=63 time=0
EXTRACT: note_off channel=0 note=65 velocity=63 time=0
EXTRACT: note_off channel=0 note=60 velocity=63 time=0
EXTRACT: note_off channel=0 note=53 velocity=63 time=0
EXTRACT: note_on channel=0 note=64 velocity=63 time=0
EXTRACT: note_on channel=0 note=59 velocity=63 time=0
EXTRACT: note_on channel=0 note=55 velocity=63 time=0
EXTRACT: note_on channel=0 note=50 velocity=63 time=0
EXTRACT: note_on channel=0 note=45 velocity=63 time=0
EXTRACT: note_off channel=2 note=72 velocity=79 time=0
EXTRACT: note_off channel=2 note=68 velocity=79 time=0
EXTRACT: note_off channel=2 note=65 velocity=79 time=0
EXTRACT: note_off channel=4 note=68 velocity=95 time=0
EXTRACT: note_off channel=4 note=65 velocity=95 time=0
EXTRACT: note_off channel=4 note=60 velocity=95 time=0
EXTRACT: note_off channel=0 note=64 velocity=63 time=0.031249995833333332
EXTRACT: note_off channel=0 note=59 velocity=63 time=0
EXTRACT: note_off channel=0 note=55 velocity=63 time=0
EXTRACT: note_off channel=0 note=50 velocity=63 time=0
EXTRACT: note_off channel=0 note=45 velocity=63 time=0
EXTRACT: note_on channel=0 note=64 velocity=63 time=0.11298075416666667
EXTRACT: note_on channel=0 note=59 velocity=63 time=0
EXTRACT: note_on channel=0 note=55 velocity=63 time=0
EXTRACT: note_on channel=0 note=50 velocity=63 time=0
EXTRACT: note_on channel=0 note=45 velocity=63 time=0
EXTRACT: note_off channel=0 note=64 velocity=63 time=0.031249995833333332
EXTRACT: note_off channel=0 note=59 velocity=63 time=0
EXTRACT: note_off channel=0 note=55 velocity=63 time=0
EXTRACT: note_off channel=0 note=50 velocity=63 time=0
EXTRACT: note_off channel=0 note=45 velocity=63 time=0
EXTRACT: note_on channel=0 note=72 velocity=63 time=0.11298075416666667
EXTRACT: note_on channel=0 note=68 velocity=63 time=0
EXTRACT: note_on channel=0 note=65 velocity=63 time=0
EXTRACT: note_on channel=0 note=60 velocity=63 time=0
EXTRACT: note_on channel=0 note=53 velocity=63 time=0
EXTRACT: note_on channel=4 note=67 velocity=95 time=0
EXTRACT: note_on channel=4 note=63 velocity=95 time=0
EXTRACT: note_on channel=4 note=58 velocity=95 time=0
EXTRACT: note_off channel=0 note=72 velocity=63 time=0.14423075
EXTRACT: note_off channel=0 note=68 velocity=63 time=0
EXTRACT: note_off channel=0 note=65 velocity=63 time=0
EXTRACT: note_off channel=0 note=60 velocity=63 time=0
EXTRACT: note_off channel=0 note=53 velocity=63 time=0
EXTRACT: note_on channel=0 note=72 velocity=63 time=0
EXTRACT: note_on channel=0 note=68 velocity=63 time=0
EXTRACT: note_on channel=0 note=65 velocity=63 time=0
EXTRACT: note_on channel=0 note=60 velocity=63 time=0
EXTRACT: note_on channel=0 note=53 velocity=63 time=0
EXTRACT: note_off channel=0 note=72 velocity=63 time=0.14423075
EXTRACT: note_off channel=0 note=68 velocity=63 time=0
EXTRACT: note_off channel=0 note=65 velocity=63 time=0
EXTRACT: note_off channel=0 note=60 velocity=63 time=0
EXTRACT: note_off channel=0 note=53 velocity=63 time=0
EXTRACT: note_on channel=0 note=64 velocity=63 time=0
EXTRACT: note_on channel=0 note=59 velocity=63 time=0
EXTRACT: note_on channel=0 note=55 velocity=63 time=0
EXTRACT: note_on channel=0 note=50 velocity=63 time=0
EXTRACT: note_on channel=0 note=45 velocity=63 time=0
EXTRACT: note_on channel=2 note=72 velocity=79 time=0
EXTRACT: note_on channel=2 note=68 velocity=79 time=0
EXTRACT: note_on channel=2 note=65 velocity=79 time=0
EXTRACT: note_off channel=4 note=67 velocity=95 time=0
EXTRACT: note_off channel=4 note=63 velocity=95 time=0
EXTRACT: note_off channel=4 note=58 velocity=95 time=0
EXTRACT: note_off channel=0 note=64 velocity=63 time=0.031249995833333332
EXTRACT: note_off channel=0 note=59 velocity=63 time=0
EXTRACT: note_off channel=0 note=55 velocity=63 time=0
EXTRACT: note_off channel=0 note=50 velocity=63 time=0
EXTRACT: note_off channel=0 note=45 velocity=63 time=0
EXTRACT: note_on channel=0 note=64 velocity=63 time=0.11298075416666667
EXTRACT: note_on channel=0 note=59 velocity=63 time=0
EXTRACT: note_on channel=0 note=55 velocity=63 time=0
EXTRACT: note_on channel=0 note=50 velocity=63 time=0
EXTRACT: note_on channel=0 note=45 velocity=63 time=0
EXTRACT: note_off channel=2 note=72 velocity=79 time=0
EXTRACT: note_off channel=2 note=68 velocity=79 time=0
EXTRACT: note_off channel=2 note=65 velocity=79 time=0
EXTRACT: note_off channel=0 note=64 velocity=63 time=0.031249995833333332
EXTRACT: note_off channel=0 note=59 velocity=63 time=0
EXTRACT: note_off channel=0 note=55 velocity=63 time=0
EXTRACT: note_off channel=0 note=50 velocity=63 time=0
EXTRACT: note_off channel=0 note=45 velocity=63 time=0
EXTRACT: note_on channel=0 note=72 velocity=63 time=0.11298075416666667
EXTRACT: note_on channel=0 note=68 velocity=63 time=0
EXTRACT: note_on channel=0 note=65 velocity=63 time=0
EXTRACT: note_on channel=0 note=60 velocity=63 time=0
EXTRACT: note_on channel=0 note=53 velocity=63 time=0
EXTRACT: note_on channel=4 note=67 velocity=95 time=0
EXTRACT: note_on channel=4 note=63 velocity=95 time=0
EXTRACT: note_on channel=4 note=58 velocity=95 time=0
EXTRACT: note_off channel=0 note=72 velocity=63 time=0.14423075
EXTRACT: note_off channel=0 note=68 velocity=63 time=0
EXTRACT: note_off channel=0 note=65 velocity=63 time=0
EXTRACT: note_off channel=0 note=60 velocity=63 time=0
EXTRACT: note_off channel=0 note=53 velocity=63 time=0
EXTRACT: note_on channel=0 note=72 velocity=63 time=0
EXTRACT: note_on channel=0 note=68 velocity=63 time=0
EXTRACT: note_on channel=0 note=65 velocity=63 time=0
EXTRACT: note_on channel=0 note=60 velocity=63 time=0
EXTRACT: note_on channel=0 note=53 velocity=63 time=0
EXTRACT: note_off channel=4 note=67 velocity=95 time=0
EXTRACT: note_off channel=4 note=63 velocity=95 time=0
EXTRACT: note_off channel=4 note=58 velocity=95 time=0
EXTRACT: note_on channel=4 note=68 velocity=95 time=0
EXTRACT: note_on channel=4 note=65 velocity=95 time=0
EXTRACT: note_on channel=4 note=60 velocity=95 time=0
EXTRACT: note_off channel=0 note=72 velocity=63 time=0.14423075
EXTRACT: note_off channel=0 note=68 velocity=63 time=0
EXTRACT: note_off channel=0 note=65 velocity=63 time=0
EXTRACT: note_off channel=0 note=60 velocity=63 time=0
EXTRACT: note_off channel=0 note=53 velocity=63 time=0
EXTRACT: note_on channel=0 note=64 velocity=63 time=0
EXTRACT: note_on channel=0 note=59 velocity=63 time=0
EXTRACT: note_on channel=0 note=55 velocity=63 time=0
EXTRACT: note_on channel=0 note=50 velocity=63 time=0
EXTRACT: note_on channel=0 note=45 velocity=63 time=0
EXTRACT: note_on channel=2 note=72 velocity=79 time=0
EXTRACT: note_on channel=2 note=68 velocity=79 time=0
EXTRACT: note_on channel=2 note=65 velocity=79 time=0
EXTRACT: note_off channel=4 note=68 velocity=95 time=0
EXTRACT: note_off channel=4 note=65 velocity=95 time=0
EXTRACT: note_off channel=4 note=60 velocity=95 time=0
EXTRACT: note_on channel=4 note=68 velocity=95 time=0
EXTRACT: note_on channel=4 note=65 velocity=95 time=0
EXTRACT: note_on channel=4 note=60 velocity=95 time=0
EXTRACT: note_off channel=0 note=64 velocity=63 time=0.031249995833333332
EXTRACT: note_off channel=0 note=59 velocity=63 time=0
EXTRACT: note_off channel=0 note=55 velocity=63 time=0
EXTRACT: note_off channel=0 note=50 velocity=63 time=0
EXTRACT: note_off channel=0 note=45 velocity=63 time=0
EXTRACT: note_on channel=0 note=64 velocity=63 time=0.11298075416666667
EXTRACT: note_on channel=0 note=59 velocity=63 time=0
EXTRACT: note_on channel=0 note=55 velocity=63 time=0
EXTRACT: note_on channel=0 note=50 velocity=63 time=0
EXTRACT: note_on channel=0 note=45 velocity=63 time=0
EXTRACT: note_off channel=2 note=72 velocity=79 time=0
EXTRACT: note_off channel=2 note=68 velocity=79 time=0
EXTRACT: note_off channel=2 note=65 velocity=79 time=0
EXTRACT: note_on channel=2 note=72 velocity=79 time=0
EXTRACT: note_on channel=2 note=68 velocity=79 time=0
EXTRACT: note_on channel=2 note=65 velocity=79 time=0
EXTRACT: note_off channel=4 note=68 velocity=95 time=0
EXTRACT: note_off channel=4 note=65 velocity=95 time=0
EXTRACT: note_off channel=4 note=60 velocity=95 time=0
EXTRACT: note_on channel=4 note=68 velocity=95 time=0
EXTRACT: note_on channel=4 note=65 velocity=95 time=0
EXTRACT: note_on channel=4 note=60 velocity=95 time=0
EXTRACT: note_off channel=0 note=64 velocity=63 time=0.031249995833333332
EXTRACT: note_off channel=0 note=59 velocity=63 time=0
EXTRACT: note_off channel=0 note=55 velocity=63 time=0
EXTRACT: note_off channel=0 note=50 velocity=63 time=0
EXTRACT: note_off channel=0 note=45 velocity=63 time=0
EXTRACT: note_on channel=0 note=72 velocity=63 time=0.11298075416666667
EXTRACT: note_on channel=0 note=68 velocity=63 time=0
EXTRACT: note_on channel=0 note=65 velocity=63 time=0
EXTRACT: note_on channel=0 note=60 velocity=63 time=0
EXTRACT: note_on channel=0 note=53 velocity=63 time=0
EXTRACT: note_off channel=2 note=72 velocity=79 time=0
EXTRACT: note_off channel=2 note=68 velocity=79 time=0
EXTRACT: note_off channel=2 note=65 velocity=79 time=0
EXTRACT: note_on channel=2 note=72 velocity=79 time=0
EXTRACT: note_on channel=2 note=68 velocity=79 time=0
EXTRACT: note_on channel=2 note=65 velocity=79 time=0
EXTRACT: note_off channel=4 note=68 velocity=95 time=0
EXTRACT: note_off channel=4 note=65 velocity=95 time=0
EXTRACT: note_off channel=4 note=60 velocity=95 time=0
EXTRACT: note_off channel=0 note=72 velocity=63 time=0.14423075
EXTRACT: note_off channel=0 note=68 velocity=63 time=0
EXTRACT: note_off channel=0 note=65 velocity=63 time=0
EXTRACT: note_off channel=0 note=60 velocity=63 time=0
EXTRACT: note_off channel=0 note=53 velocity=63 time=0
EXTRACT: note_on channel=0 note=72 velocity=63 time=0
EXTRACT: note_on channel=0 note=68 velocity=63 time=0
EXTRACT: note_on channel=0 note=65 velocity=63 time=0
EXTRACT: note_on channel=0 note=60 velocity=63 time=0
EXTRACT: note_on channel=0 note=53 velocity=63 time=0
EXTRACT: note_off channel=2 note=72 velocity=79 time=0
EXTRACT: note_off channel=2 note=68 velocity=79 time=0
EXTRACT: note_off channel=2 note=65 velocity=79 time=0
EXTRACT: note_on channel=2 note=72 velocity=79 time=0
EXTRACT: note_on channel=2 note=68 velocity=79 time=0
EXTRACT: note_on channel=2 note=65 velocity=79 time=0
EXTRACT: note_off channel=0 note=72 velocity=63 time=0.14423075
EXTRACT: note_off channel=0 note=68 velocity=63 time=0
EXTRACT: note_off channel=0 note=65 velocity=63 time=0
EXTRACT: note_off channel=0 note=60 velocity=63 time=0
EXTRACT: note_off channel=0 note=53 velocity=63 time=0
EXTRACT: note_on channel=0 note=64 velocity=63 time=0
EXTRACT: note_on channel=0 note=59 velocity=63 time=0
EXTRACT: note_on channel=0 note=55 velocity=63 time=0
EXTRACT: note_on channel=0 note=50 velocity=63 time=0
EXTRACT: note_on channel=0 note=45 velocity=63 time=0
EXTRACT: note_off channel=2 note=72 velocity=79 time=0
EXTRACT: note_off channel=2 note=68 velocity=79 time=0
EXTRACT: note_off channel=2 note=65 velocity=79 time=0
EXTRACT: note_off channel=0 note=64 velocity=63 time=0.031249995833333332
EXTRACT: note_off channel=0 note=59 velocity=63 time=0
EXTRACT: note_off channel=0 note=55 velocity=63 time=0
EXTRACT: note_off channel=0 note=50 velocity=63 time=0
EXTRACT: note_off channel=0 note=45 velocity=63 time=0
EXTRACT: note_on channel=0 note=64 velocity=63 time=0.11298075416666667
EXTRACT: note_on channel=0 note=59 velocity=63 time=0
EXTRACT: note_on channel=0 note=55 velocity=63 time=0
EXTRACT: note_on channel=0 note=50 velocity=63 time=0
EXTRACT: note_on channel=0 note=45 velocity=63 time=0
EXTRACT: note_off channel=0 note=64 velocity=63 time=0.031249995833333332
EXTRACT: note_off channel=0 note=59 velocity=63 time=0
EXTRACT: note_off channel=0 note=55 velocity=63 time=0
EXTRACT: note_off channel=0 note=50 velocity=63 time=0
EXTRACT: note_off channel=0 note=45 velocity=63 time=0
EXTRACT: note_on channel=0 note=72 velocity=63 time=0.11298075416666667
EXTRACT: note_on channel=0 note=68 velocity=63 time=0
EXTRACT: note_on channel=0 note=65 velocity=63 time=0
EXTRACT: note_on channel=0 note=60 velocity=63 time=0
EXTRACT: note_on channel=0 note=53 velocity=63 time=0
EXTRACT: note_on channel=4 note=67 velocity=95 time=0
EXTRACT: note_on channel=4 note=63 velocity=95 time=0
EXTRACT: note_on channel=4 note=58 velocity=95 time=0
EXTRACT: note_off channel=0 note=72 velocity=63 time=0.14423075
EXTRACT: note_off channel=0 note=68 velocity=63 time=0
EXTRACT: note_off channel=0 note=65 velocity=63 time=0
EXTRACT: note_off channel=0 note=60 velocity=63 time=0
EXTRACT: note_off channel=0 note=53 velocity=63 time=0
EXTRACT: note_on channel=0 note=72 velocity=63 time=0
EXTRACT: note_on channel=0 note=68 velocity=63 time=0
EXTRACT: note_on channel=0 note=65 velocity=63 time=0
EXTRACT: note_on channel=0 note=60 velocity=63 time=0
EXTRACT: note_on channel=0 note=53 velocity=63 time=0
EXTRACT: note_off channel=4 note=67 velocity=95 time=0
EXTRACT: note_off channel=4 note=63 velocity=95 time=0
EXTRACT: note_off channel=4 note=58 velocity=95 time=0
EXTRACT: note_on channel=4 note=68 velocity=95 time=0
EXTRACT: note_on channel=4 note=65 velocity=95 time=0
EXTRACT: note_on channel=4 note=60 velocity=95 time=0
EXTRACT: note_off channel=0 note=72 velocity=63 time=0.14423075
EXTRACT: note_off channel=0 note=68 velocity=63 time=0
EXTRACT: note_off channel=0 note=65 velocity=63 time=0
EXTRACT: note_off channel=0 note=60 velocity=63 time=0
EXTRACT: note_off channel=0 note=53 velocity=63 time=0
EXTRACT: note_on channel=0 note=64 velocity=63 time=0
EXTRACT: note_on channel=0 note=59 velocity=63 time=0
EXTRACT: note_on channel=0 note=55 velocity=63 time=0
EXTRACT: note_on channel=0 note=50 velocity=63 time=0
EXTRACT: note_on channel=0 note=45 velocity=63 time=0
EXTRACT: note_off channel=4 note=68 velocity=95 time=0
EXTRACT: note_off channel=4 note=65 velocity=95 time=0
EXTRACT: note_off channel=4 note=60 velocity=95 time=0
EXTRACT: note_on channel=4 note=68 velocity=95 time=0
EXTRACT: note_on channel=4 note=65 velocity=95 time=0
EXTRACT: note_on channel=4 note=60 velocity=95 time=0
EXTRACT: note_off channel=0 note=64 velocity=63 time=0.031249995833333332
EXTRACT: note_off channel=0 note=59 velocity=63 time=0
EXTRACT: note_off channel=0 note=55 velocity=63 time=0
EXTRACT: note_off channel=0 note=50 velocity=63 time=0
EXTRACT: note_off channel=0 note=45 velocity=63 time=0
EXTRACT: note_on channel=0 note=64 velocity=63 time=0.11298075416666667
EXTRACT: note_on channel=0 note=59 velocity=63 time=0
EXTRACT: note_on channel=0 note=55 velocity=63 time=0
EXTRACT: note_on channel=0 note=50 velocity=63 time=0
EXTRACT: note_on channel=0 note=45 velocity=63 time=0
EXTRACT: note_off channel=4 note=68 velocity=95 time=0
EXTRACT: note_off channel=4 note=65 velocity=95 time=0
EXTRACT: note_off channel=4 note=60 velocity=95 time=0
EXTRACT: note_on channel=4 note=68 velocity=95 time=0
EXTRACT: note_on channel=4 note=65 velocity=95 time=0
EXTRACT: note_on channel=4 note=60 velocity=95 time=0
EXTRACT: note_off channel=0 note=64 velocity=63 time=0.031249995833333332
EXTRACT: note_off channel=0 note=59 velocity=63 time=0
EXTRACT: note_off channel=0 note=55 velocity=63 time=0
EXTRACT: note_off channel=0 note=50 velocity=63 time=0
EXTRACT: note_off channel=0 note=45 velocity=63 time=0
EXTRACT: note_on channel=0 note=72 velocity=63 time=0.11298075416666667
EXTRACT: note_on channel=0 note=68 velocity=63 time=0
EXTRACT: note_on channel=0 note=65 velocity=63 time=0
EXTRACT: note_on channel=0 note=60 velocity=63 time=0
EXTRACT: note_on channel=0 note=53 velocity=63 time=0
EXTRACT: note_off channel=4 note=68 velocity=95 time=0
EXTRACT: note_off channel=4 note=65 velocity=95 time=0
EXTRACT: note_off channel=4 note=60 velocity=95 time=0
EXTRACT: note_off channel=0 note=72 velocity=63 time=0.14423075
EXTRACT: note_off channel=0 note=68 velocity=63 time=0
EXTRACT: note_off channel=0 note=65 velocity=63 time=0
EXTRACT: note_off channel=0 note=60 velocity=63 time=0
EXTRACT: note_off channel=0 note=53 velocity=63 time=0
EXTRACT: note_on channel=0 note=72 velocity=63 time=0
EXTRACT: note_on channel=0 note=68 velocity=63 time=0
EXTRACT: note_on channel=0 note=65 velocity=63 time=0
EXTRACT: note_on channel=0 note=60 velocity=63 time=0
EXTRACT: note_on channel=0 note=53 velocity=63 time=0
EXTRACT: note_off channel=0 note=72 velocity=63 time=0.14423075
EXTRACT: note_off channel=0 note=68 velocity=63 time=0
EXTRACT: note_off channel=0 note=65 velocity=63 time=0
EXTRACT: note_off channel=0 note=60 velocity=63 time=0
EXTRACT: note_off channel=0 note=53 velocity=63 time=0
EXTRACT: note_on channel=0 note=64 velocity=63 time=0
EXTRACT: note_on channel=0 note=59 velocity=63 time=0
EXTRACT: note_on channel=0 note=55 velocity=63 time=0
EXTRACT: note_on channel=0 note=50 velocity=63 time=0
EXTRACT: note_on channel=0 note=45 velocity=63 time=0
EXTRACT: note_on channel=2 note=72 velocity=79 time=0
EXTRACT: note_on channel=2 note=68 velocity=79 time=0
EXTRACT: note_on channel=2 note=65 velocity=79 time=0
EXTRACT: note_off channel=0 note=64 velocity=63 time=0.031249995833333332
EXTRACT: note_off channel=0 note=59 velocity=63 time=0
EXTRACT: note_off channel=0 note=55 velocity=63 time=0
EXTRACT: note_off channel=0 note=50 velocity=63 time=0
EXTRACT: note_off channel=0 note=45 velocity=63 time=0
EXTRACT: note_on channel=0 note=64 velocity=63 time=0.11298075416666667
EXTRACT: note_on channel=0 note=59 velocity=63 time=0
EXTRACT: note_on channel=0 note=55 velocity=63 time=0
EXTRACT: note_on channel=0 note=50 velocity=63 time=0
EXTRACT: note_on channel=0 note=45 velocity=63 time=0
EXTRACT: note_off channel=0 note=64 velocity=63 time=0.031249995833333332
EXTRACT: note_off channel=0 note=59 velocity=63 time=0
EXTRACT: note_off channel=0 note=55 velocity=63 time=0
EXTRACT: note_off channel=0 note=50 velocity=63 time=0
EXTRACT: note_off channel=0 note=45 velocity=63 time=0
EXTRACT: note_on channel=0 note=72 velocity=63 time=0.11298075416666667
EXTRACT: note_on channel=0 note=68 velocity=63 time=0
EXTRACT: note_on channel=0 note=65 velocity=63 time=0
EXTRACT: note_on channel=0 note=60 velocity=63 time=0
EXTRACT: note_on channel=0 note=53 velocity=63 time=0
EXTRACT: note_on channel=4 note=72 velocity=95 time=0
EXTRACT: note_on channel=4 note=68 velocity=95 time=0
EXTRACT: note_on channel=4 note=65 velocity=95 time=0
EXTRACT: note_off channel=0 note=72 velocity=63 time=0.14423075
EXTRACT: note_off channel=0 note=68 velocity=63 time=0
EXTRACT: note_off channel=0 note=65 velocity=63 time=0
EXTRACT: note_off channel=0 note=60 velocity=63 time=0
EXTRACT: note_off channel=0 note=53 velocity=63 time=0
EXTRACT: note_on channel=0 note=72 velocity=63 time=0
EXTRACT: note_on channel=0 note=68 velocity=63 time=0
EXTRACT: note_on channel=0 note=65 velocity=63 time=0
EXTRACT: note_on channel=0 note=60 velocity=63 time=0
EXTRACT: note_on channel=0 note=53 velocity=63 time=0
EXTRACT: note_off channel=0 note=72 velocity=63 time=0.14423075
EXTRACT: note_off channel=0 note=68 velocity=63 time=0
EXTRACT: note_off channel=0 note=65 velocity=63 time=0
EXTRACT: note_off channel=0 note=60 velocity=63 time=0
EXTRACT: note_off channel=0 note=53 velocity=63 time=0
EXTRACT: note_on channel=0 note=64 velocity=63 time=0
EXTRACT: note_on channel=0 note=59 velocity=63 time=0
EXTRACT: note_on channel=0 note=55 velocity=63 time=0
EXTRACT: note_on channel=0 note=50 velocity=63 time=0
EXTRACT: note_on channel=0 note=45 velocity=63 time=0
EXTRACT: note_off channel=2 note=72 velocity=79 time=0
EXTRACT: note_off channel=2 note=68 velocity=79 time=0
EXTRACT: note_off channel=2 note=65 velocity=79 time=0
EXTRACT: note_off channel=4 note=72 velocity=95 time=0
EXTRACT: note_off channel=4 note=68 velocity=95 time=0
EXTRACT: note_off channel=4 note=65 velocity=95 time=0
EXTRACT: note_off channel=0 note=64 velocity=63 time=0.031249995833333332
EXTRACT: note_off channel=0 note=59 velocity=63 time=0
EXTRACT: note_off channel=0 note=55 velocity=63 time=0
EXTRACT: note_off channel=0 note=50 velocity=63 time=0
EXTRACT: note_off channel=0 note=45 velocity=63 time=0
EXTRACT: note_on channel=0 note=64 velocity=63 time=0.11298075416666667
EXTRACT: note_on channel=0 note=59 velocity=63 time=0
EXTRACT: note_on channel=0 note=55 velocity=63 time=0
EXTRACT: note_on channel=0 note=50 velocity=63 time=0
EXTRACT: note_on channel=0 note=45 velocity=63 time=0
EXTRACT: note_off channel=0 note=64 velocity=63 time=0.031249995833333332
EXTRACT: note_off channel=0 note=59 velocity=63 time=0
EXTRACT: note_off channel=0 note=55 velocity=63 time=0
EXTRACT: note_off channel=0 note=50 velocity=63 time=0
EXTRACT: note_off channel=0 note=45 velocity=63 time=0
EXTRACT: note_on channel=0 note=72 velocity=63 time=0.11298075416666667
EXTRACT: note_on channel=0 note=68 velocity=63 time=0
EXTRACT: note_on channel=0 note=65 velocity=63 time=0
EXTRACT: note_on channel=0 note=60 velocity=63 time=0
EXTRACT: note_on channel=0 note=53 velocity=63 time=0
EXTRACT: note_on channel=4 note=70 velocity=95 time=0
EXTRACT: note_on channel=4 note=67 velocity=95 time=0
EXTRACT: note_on channel=4 note=63 velocity=95 time=0
EXTRACT: note_off channel=0 note=72 velocity=63 time=0.14423075
EXTRACT: note_off channel=0 note=68 velocity=63 time=0
EXTRACT: note_off channel=0 note=65 velocity=63 time=0
EXTRACT: note_off channel=0 note=60 velocity=63 time=0
EXTRACT: note_off channel=0 note=53 velocity=63 time=0
EXTRACT: note_on channel=0 note=72 velocity=63 time=0
EXTRACT: note_on channel=0 note=68 velocity=63 time=0
EXTRACT: note_on channel=0 note=65 velocity=63 time=0
EXTRACT: note_on channel=0 note=60 velocity=63 time=0
EXTRACT: note_on channel=0 note=53 velocity=63 time=0
EXTRACT: note_off channel=0 note=72 velocity=63 time=0.14423075
EXTRACT: note_off channel=0 note=68 velocity=63 time=0
EXTRACT: note_off channel=0 note=65 velocity=63 time=0
EXTRACT: note_off channel=0 note=60 velocity=63 time=0
EXTRACT: note_off channel=0 note=53 velocity=63 time=0
EXTRACT: note_on channel=0 note=64 velocity=63 time=0
EXTRACT: note_on channel=0 note=59 velocity=63 time=0
EXTRACT: note_on channel=0 note=55 velocity=63 time=0
EXTRACT: note_on channel=0 note=50 velocity=63 time=0
EXTRACT: note_on channel=0 note=45 velocity=63 time=0
EXTRACT: note_off channel=4 note=70 velocity=95 time=0
EXTRACT: note_off channel=4 note=67 velocity=95 time=0
EXTRACT: note_off channel=4 note=63 velocity=95 time=0
EXTRACT: note_off channel=0 note=64 velocity=63 time=0.031249995833333332
EXTRACT: note_off channel=0 note=59 velocity=63 time=0
EXTRACT: note_off channel=0 note=55 velocity=63 time=0
EXTRACT: note_off channel=0 note=50 velocity=63 time=0
EXTRACT: note_off channel=0 note=45 velocity=63 time=0
EXTRACT: note_on channel=0 note=64 velocity=63 time=0.11298075416666667
EXTRACT: note_on channel=0 note=59 velocity=63 time=0
EXTRACT: note_on channel=0 note=55 velocity=63 time=0
EXTRACT: note_on channel=0 note=50 velocity=63 time=0
EXTRACT: note_on channel=0 note=45 velocity=63 time=0
EXTRACT: note_off channel=0 note=64 velocity=63 time=0.031249995833333332
EXTRACT: note_off channel=0 note=59 velocity=63 time=0
EXTRACT: note_off channel=0 note=55 velocity=63 time=0
EXTRACT: note_off channel=0 note=50 velocity=63 time=0
EXTRACT: note_off channel=0 note=45 velocity=63 time=0
EXTRACT: note_on channel=0 note=72 velocity=63 time=0.11298075416666667
EXTRACT: note_on channel=0 note=68 velocity=63 time=0
EXTRACT: note_on channel=0 note=65 velocity=63 time=0
EXTRACT: note_on channel=0 note=60 velocity=63 time=0
EXTRACT: note_on channel=0 note=53 velocity=63 time=0
EXTRACT: note_on channel=4 note=68 velocity=95 time=0
EXTRACT: note_on channel=4 note=65 velocity=95 time=0
EXTRACT: note_on channel=4 note=60 velocity=95 time=0
EXTRACT: note_off channel=0 note=72 velocity=63 time=0.14423075
EXTRACT: note_off channel=0 note=68 velocity=63 time=0
EXTRACT: note_off channel=0 note=65 velocity=63 time=0
EXTRACT: note_off channel=0 note=60 velocity=63 time=0
EXTRACT: note_off channel=0 note=53 velocity=63 time=0
EXTRACT: note_on channel=0 note=72 velocity=63 time=0
EXTRACT: note_on channel=0 note=68 velocity=63 time=0
EXTRACT: note_on channel=0 note=65 velocity=63 time=0
EXTRACT: note_on channel=0 note=60 velocity=63 time=0
EXTRACT: note_on channel=0 note=53 velocity=63 time=0
EXTRACT: note_off channel=0 note=72 velocity=63 time=0.14423075
EXTRACT: note_off channel=0 note=68 velocity=63 time=0
EXTRACT: note_off channel=0 note=65 velocity=63 time=0
EXTRACT: note_off channel=0 note=60 velocity=63 time=0
EXTRACT: note_off channel=0 note=53 velocity=63 time=0
EXTRACT: note_on channel=0 note=64 velocity=63 time=0
EXTRACT: note_on channel=0 note=59 velocity=63 time=0
EXTRACT: note_on channel=0 note=55 velocity=63 time=0
EXTRACT: note_on channel=0 note=50 velocity=63 time=0
EXTRACT: note_on channel=0 note=45 velocity=63 time=0
EXTRACT: note_on channel=2 note=64 velocity=79 time=0
EXTRACT: note_on channel=2 note=59 velocity=79 time=0
EXTRACT: note_on channel=2 note=55 velocity=79 time=0
EXTRACT: note_off channel=4 note=68 velocity=95 time=0
EXTRACT: note_off channel=4 note=65 velocity=95 time=0
EXTRACT: note_off channel=4 note=60 velocity=95 time=0
EXTRACT: note_off channel=0 note=64 velocity=63 time=0.031249995833333332
EXTRACT: note_off channel=0 note=59 velocity=63 time=0
EXTRACT: note_off channel=0 note=55 velocity=63 time=0
EXTRACT: note_off channel=0 note=50 velocity=63 time=0
EXTRACT: note_off channel=0 note=45 velocity=63 time=0
EXTRACT: note_off channel=2 note=64 velocity=79 time=0
EXTRACT: note_off channel=2 note=59 velocity=79 time=0
EXTRACT: note_off channel=2 note=55 velocity=79 time=0
EXTRACT: note_on channel=0 note=64 velocity=63 time=0.11298075416666667
EXTRACT: note_on channel=0 note=59 velocity=63 time=0
EXTRACT: note_on channel=0 note=55 velocity=63 time=0
EXTRACT: note_on channel=0 note=50 velocity=63 time=0
EXTRACT: note_on channel=0 note=45 velocity=63 time=0
EXTRACT: note_on channel=2 note=72 velocity=79 time=0
EXTRACT: note_on channel=2 note=68 velocity=79 time=0
EXTRACT: note_on channel=2 note=65 velocity=79 time=0
EXTRACT: note_off channel=0 note=64 velocity=63 time=0.031249995833333332
EXTRACT: note_off channel=0 note=59 velocity=63 time=0
EXTRACT: note_off channel=0 note=55 velocity=63 time=0
EXTRACT: note_off channel=0 note=50 velocity=63 time=0
EXTRACT: note_off channel=0 note=45 velocity=63 time=0
EXTRACT: note_on channel=0 note=72 velocity=63 time=0.11298075416666667
EXTRACT: note_on channel=0 note=68 velocity=63 time=0
EXTRACT: note_on channel=0 note=65 velocity=63 time=0
EXTRACT: note_on channel=0 note=60 velocity=63 time=0
EXTRACT: note_on channel=0 note=53 velocity=63 time=0
EXTRACT: note_off channel=2 note=72 velocity=79 time=0
EXTRACT: note_off channel=2 note=68 velocity=79 time=0
EXTRACT: note_off channel=2 note=65 velocity=79 time=0
EXTRACT: note_on channel=4 note=67 velocity=95 time=0
EXTRACT: note_on channel=4 note=63 velocity=95 time=0
EXTRACT: note_on channel=4 note=58 velocity=95 time=0
EXTRACT: note_off channel=0 note=72 velocity=63 time=0.14423075
EXTRACT: note_off channel=0 note=68 velocity=63 time=0
EXTRACT: note_off channel=0 note=65 velocity=63 time=0
EXTRACT: note_off channel=0 note=60 velocity=63 time=0
EXTRACT: note_off channel=0 note=53 velocity=63 time=0
EXTRACT: note_on channel=0 note=72 velocity=63 time=0
EXTRACT: note_on channel=0 note=68 velocity=63 time=0
EXTRACT: note_on channel=0 note=65 velocity=63 time=0
EXTRACT: note_on channel=0 note=60 velocity=63 time=0
EXTRACT: note_on channel=0 note=53 velocity=63 time=0
EXTRACT: note_off channel=0 note=72 velocity=63 time=0.14423075
EXTRACT: note_off channel=0 note=68 velocity=63 time=0
EXTRACT: note_off channel=0 note=65 velocity=63 time=0
EXTRACT: note_off channel=0 note=60 velocity=63 time=0
EXTRACT: note_off channel=0 note=53 velocity=63 time=0
EXTRACT: note_on channel=0 note=64 velocity=63 time=0
EXTRACT: note_on channel=0 note=59 velocity=63 time=0
EXTRACT: note_on channel=0 note=55 velocity=63 time=0
EXTRACT: note_on channel=0 note=50 velocity=63 time=0
EXTRACT: note_on channel=0 note=45 velocity=63 time=0
EXTRACT: note_off channel=4 note=67 velocity=95 time=0
EXTRACT: note_off channel=4 note=63 velocity=95 time=0
EXTRACT: note_off channel=4 note=58 velocity=95 time=0
EXTRACT: note_off channel=0 note=64 velocity=63 time=0.031249995833333332
EXTRACT: note_off channel=0 note=59 velocity=63 time=0
EXTRACT: note_off channel=0 note=55 velocity=63 time=0
EXTRACT: note_off channel=0 note=50 velocity=63 time=0
EXTRACT: note_off channel=0 note=45 velocity=63 time=0
EXTRACT: note_on channel=0 note=64 velocity=63 time=0.11298075416666667
EXTRACT: note_on channel=0 note=59 velocity=63 time=0
EXTRACT: note_on channel=0 note=55 velocity=63 time=0
EXTRACT: note_on channel=0 note=50 velocity=63 time=0
EXTRACT: note_on channel=0 note=45 velocity=63 time=0
EXTRACT: note_off channel=0 note=64 velocity=63 time=0.031249995833333332
EXTRACT: note_off channel=0 note=59 velocity=63 time=0
EXTRACT: note_off channel=0 note=55 velocity=63 time=0
EXTRACT: note_off channel=0 note=50 velocity=63 time=0
EXTRACT: note_off channel=0 note=45 velocity=63 time=0
EXTRACT: note_on channel=0 note=72 velocity=63 time=0.11298075416666667
EXTRACT: note_on channel=0 note=68 velocity=63 time=0
EXTRACT: note_on channel=0 note=65 velocity=63 time=0
EXTRACT: note_on channel=0 note=60 velocity=63 time=0
EXTRACT: note_on channel=0 note=53 velocity=63 time=0
EXTRACT: note_on channel=2 note=65 velocity=79 time=0
EXTRACT: note_on channel=2 note=60 velocity=79 time=0
EXTRACT: note_on channel=2 note=56 velocity=79 time=0
EXTRACT: note_on channel=2 note=53 velocity=79 time=0
EXTRACT: note_on channel=4 note=67 velocity=95 time=0
EXTRACT: note_on channel=4 note=63 velocity=95 time=0
EXTRACT: note_on channel=4 note=56 velocity=95 time=0
EXTRACT: note_off channel=0 note=72 velocity=63 time=0.14423075
EXTRACT: note_off channel=0 note=68 velocity=63 time=0
EXTRACT: note_off channel=0 note=65 velocity=63 time=0
EXTRACT: note_off channel=0 note=60 velocity=63 time=0
EXTRACT: note_off channel=0 note=53 velocity=63 time=0
EXTRACT: note_on channel=0 note=72 velocity=63 time=0
EXTRACT: note_on channel=0 note=68 velocity=63 time=0
EXTRACT: note_on channel=0 note=65 velocity=63 time=0
EXTRACT: note_on channel=0 note=60 velocity=63 time=0
EXTRACT: note_on channel=0 note=53 velocity=63 time=0
EXTRACT: note_off channel=4 note=67 velocity=95 time=0
EXTRACT: note_off channel=4 note=63 velocity=95 time=0
EXTRACT: note_off channel=4 note=56 velocity=95 time=0
EXTRACT: note_on channel=4 note=65 velocity=95 time=0
EXTRACT: note_on channel=4 note=68 velocity=95 time=0
EXTRACT: note_on channel=4 note=56 velocity=95 time=0
EXTRACT: note_off channel=0 note=72 velocity=63 time=0.14423075
EXTRACT: note_off channel=0 note=68 velocity=63 time=0
EXTRACT: note_off channel=0 note=65 velocity=63 time=0
EXTRACT: note_off channel=0 note=60 velocity=63 time=0
EXTRACT: note_off channel=0 note=53 velocity=63 time=0
EXTRACT: note_on channel=0 note=64 velocity=63 time=0
EXTRACT: note_on channel=0 note=59 velocity=63 time=0
EXTRACT: note_on channel=0 note=55 velocity=63 time=0
EXTRACT: note_on channel=0 note=50 velocity=63 time=0
EXTRACT: note_on channel=0 note=45 velocity=63 time=0
EXTRACT: note_off channel=4 note=65 velocity=95 time=0
EXTRACT: note_off channel=4 note=68 velocity=95 time=0
EXTRACT: note_off channel=4 note=56 velocity=95 time=0
EXTRACT: note_on channel=4 note=65 velocity=95 time=0
EXTRACT: note_on channel=4 note=68 velocity=95 time=0
EXTRACT: note_on channel=4 note=56 velocity=95 time=0
EXTRACT: note_off channel=0 note=64 velocity=63 time=0.031249995833333332
EXTRACT: note_off channel=0 note=59 velocity=63 time=0
EXTRACT: note_off channel=0 note=55 velocity=63 time=0
EXTRACT: note_off channel=0 note=50 velocity=63 time=0
EXTRACT: note_off channel=0 note=45 velocity=63 time=0
EXTRACT: note_on channel=0 note=64 velocity=63 time=0.11298075416666667
EXTRACT: note_on channel=0 note=59 velocity=63 time=0
EXTRACT: note_on channel=0 note=55 velocity=63 time=0
EXTRACT: note_on channel=0 note=50 velocity=63 time=0
EXTRACT: note_on channel=0 note=45 velocity=63 time=0
EXTRACT: note_off channel=4 note=65 velocity=95 time=0
EXTRACT: note_off channel=4 note=68 velocity=95 time=0
EXTRACT: note_off channel=4 note=56 velocity=95 time=0
EXTRACT: note_on channel=4 note=65 velocity=95 time=0
EXTRACT: note_on channel=4 note=68 velocity=95 time=0
EXTRACT: note_on channel=4 note=72 velocity=95 time=0
EXTRACT: note_off channel=0 note=64 velocity=63 time=0.031249995833333332
EXTRACT: note_off channel=0 note=59 velocity=63 time=0
EXTRACT: note_off channel=0 note=55 velocity=63 time=0
EXTRACT: note_off channel=0 note=50 velocity=63 time=0
EXTRACT: note_off channel=0 note=45 velocity=63 time=0
EXTRACT: note_on channel=0 note=72 velocity=63 time=0.11298075416666667
EXTRACT: note_on channel=0 note=68 velocity=63 time=0
EXTRACT: note_on channel=0 note=65 velocity=63 time=0
EXTRACT: note_on channel=0 note=60 velocity=63 time=0
EXTRACT: note_on channel=0 note=53 velocity=63 time=0
EXTRACT: note_off channel=0 note=72 velocity=63 time=0.14423075
EXTRACT: note_off channel=0 note=68 velocity=63 time=0
EXTRACT: note_off channel=0 note=65 velocity=63 time=0
EXTRACT: note_off channel=0 note=60 velocity=63 time=0
EXTRACT: note_off channel=0 note=53 velocity=63 time=0
EXTRACT: note_on channel=0 note=72 velocity=63 time=0
EXTRACT: note_on channel=0 note=68 velocity=63 time=0
EXTRACT: note_on channel=0 note=65 velocity=63 time=0
EXTRACT: note_on channel=0 note=60 velocity=63 time=0
EXTRACT: note_on channel=0 note=53 velocity=63 time=0
EXTRACT: note_off channel=0 note=72 velocity=63 time=0.14423075
EXTRACT: note_off channel=0 note=68 velocity=63 time=0
EXTRACT: note_off channel=0 note=65 velocity=63 time=0
EXTRACT: note_off channel=0 note=60 velocity=63 time=0
EXTRACT: note_off channel=0 note=53 velocity=63 time=0
EXTRACT: note_on channel=0 note=64 velocity=63 time=0
EXTRACT: note_on channel=0 note=59 velocity=63 time=0
EXTRACT: note_on channel=0 note=55 velocity=63 time=0
EXTRACT: note_on channel=0 note=50 velocity=63 time=0
EXTRACT: note_on channel=0 note=45 velocity=63 time=0
EXTRACT: note_off channel=0 note=64 velocity=63 time=0.031249995833333332
EXTRACT: note_off channel=0 note=59 velocity=63 time=0
EXTRACT: note_off channel=0 note=55 velocity=63 time=0
EXTRACT: note_off channel=0 note=50 velocity=63 time=0
EXTRACT: note_off channel=0 note=45 velocity=63 time=0
EXTRACT: note_on channel=0 note=64 velocity=63 time=0.11298075416666667
EXTRACT: note_on channel=0 note=59 velocity=63 time=0
EXTRACT: note_on channel=0 note=55 velocity=63 time=0
EXTRACT: note_on channel=0 note=50 velocity=63 time=0
EXTRACT: note_on channel=0 note=45 velocity=63 time=0
EXTRACT: note_off channel=0 note=64 velocity=63 time=0.031249995833333332
EXTRACT: note_off channel=0 note=59 velocity=63 time=0
EXTRACT: note_off channel=0 note=55 velocity=63 time=0
EXTRACT: note_off channel=0 note=50 velocity=63 time=0
EXTRACT: note_off channel=0 note=45 velocity=63 time=0
EXTRACT: note_on channel=0 note=72 velocity=63 time=0.11298075416666667
EXTRACT: note_on channel=0 note=68 velocity=63 time=0
EXTRACT: note_on channel=0 note=65 velocity=63 time=0
EXTRACT: note_on channel=0 note=60 velocity=63 time=0
EXTRACT: note_on channel=0 note=53 velocity=63 time=0
EXTRACT: note_off channel=0 note=72 velocity=63 time=0.14423075
EXTRACT: note_off channel=0 note=68 velocity=63 time=0
EXTRACT: note_off channel=0 note=65 velocity=63 time=0
EXTRACT: note_off channel=0 note=60 velocity=63 time=0
EXTRACT: note_off channel=0 note=53 velocity=63 time=0
EXTRACT: note_on channel=0 note=72 velocity=63 time=0
EXTRACT: note_on channel=0 note=68 velocity=63 time=0
EXTRACT: note_on channel=0 note=65 velocity=63 time=0
EXTRACT: note_on channel=0 note=60 velocity=63 time=0
EXTRACT: note_on channel=0 note=53 velocity=63 time=0
EXTRACT: note_off channel=0 note=72 velocity=63 time=0.14423075
EXTRACT: note_off channel=0 note=68 velocity=63 time=0
EXTRACT: note_off channel=0 note=65 velocity=63 time=0
EXTRACT: note_off channel=0 note=60 velocity=63 time=0
EXTRACT: note_off channel=0 note=53 velocity=63 time=0
EXTRACT: note_on channel=0 note=64 velocity=63 time=0
EXTRACT: note_on channel=0 note=59 velocity=63 time=0
EXTRACT: note_on channel=0 note=55 velocity=63 time=0
EXTRACT: note_on channel=0 note=50 velocity=63 time=0
EXTRACT: note_on channel=0 note=45 velocity=63 time=0
EXTRACT: note_off channel=0 note=64 velocity=63 time=0.031249995833333332
EXTRACT: note_off channel=0 note=59 velocity=63 time=0
EXTRACT: note_off channel=0 note=55 velocity=63 time=0
EXTRACT: note_off channel=0 note=50 velocity=63 time=0
EXTRACT: note_off channel=0 note=45 velocity=63 time=0
EXTRACT: note_on channel=0 note=64 velocity=63 time=0.11298075416666667
EXTRACT: note_on channel=0 note=59 velocity=63 time=0
EXTRACT: note_on channel=0 note=55 velocity=63 time=0
EXTRACT: note_on channel=0 note=50 velocity=63 time=0
EXTRACT: note_on channel=0 note=45 velocity=63 time=0
EXTRACT: note_off channel=0 note=64 velocity=63 time=0.031249995833333332
EXTRACT: note_off channel=0 note=59 velocity=63 time=0
EXTRACT: note_off channel=0 note=55 velocity=63 time=0
EXTRACT: note_off channel=0 note=50 velocity=63 time=0
EXTRACT: note_off channel=0 note=45 velocity=63 time=0
EXTRACT: note_on channel=0 note=72 velocity=63 time=0.11298075416666667
EXTRACT: note_on channel=0 note=68 velocity=63 time=0
EXTRACT: note_on channel=0 note=65 velocity=63 time=0
EXTRACT: note_on channel=0 note=60 velocity=63 time=0
EXTRACT: note_on channel=0 note=53 velocity=63 time=0
EXTRACT: note_off channel=0 note=72 velocity=63 time=0.14423075
EXTRACT: note_off channel=0 note=68 velocity=63 time=0
EXTRACT: note_off channel=0 note=65 velocity=63 time=0
EXTRACT: note_off channel=0 note=60 velocity=63 time=0
EXTRACT: note_off channel=0 note=53 velocity=63 time=0
EXTRACT: note_on channel=0 note=72 velocity=63 time=0
EXTRACT: note_on channel=0 note=68 velocity=63 time=0
EXTRACT: note_on channel=0 note=65 velocity=63 time=0
EXTRACT: note_on channel=0 note=60 velocity=63 time=0
EXTRACT: note_on channel=0 note=53 velocity=63 time=0
EXTRACT: note_off channel=0 note=72 velocity=63 time=0.14423075
EXTRACT: note_off channel=0 note=68 velocity=63 time=0
EXTRACT: note_off channel=0 note=65 velocity=63 time=0
EXTRACT: note_off channel=0 note=60 velocity=63 time=0
EXTRACT: note_off channel=0 note=53 velocity=63 time=0
EXTRACT: note_on channel=0 note=64 velocity=63 time=0
EXTRACT: note_on channel=0 note=59 velocity=63 time=0
EXTRACT: note_on channel=0 note=55 velocity=63 time=0
EXTRACT: note_on channel=0 note=50 velocity=63 time=0
EXTRACT: note_on channel=0 note=45 velocity=63 time=0
EXTRACT: note_off channel=0 note=64 velocity=63 time=0.031249995833333332
EXTRACT: note_off channel=0 note=59 velocity=63 time=0
EXTRACT: note_off channel=0 note=55 velocity=63 time=0
EXTRACT: note_off channel=0 note=50 velocity=63 time=0
EXTRACT: note_off channel=0 note=45 velocity=63 time=0
EXTRACT: note_on channel=0 note=64 velocity=63 time=0.11298075416666667
EXTRACT: note_on channel=0 note=59 velocity=63 time=0
EXTRACT: note_on channel=0 note=55 velocity=63 time=0
EXTRACT: note_on channel=0 note=50 velocity=63 time=0
EXTRACT: note_on channel=0 note=45 velocity=63 time=0
EXTRACT: note_off channel=0 note=64 velocity=63 time=0.031249995833333332
EXTRACT: note_off channel=0 note=59 velocity=63 time=0
EXTRACT: note_off channel=0 note=55 velocity=63 time=0
EXTRACT: note_off channel=0 note=50 velocity=63 time=0
EXTRACT: note_off channel=0 note=45 velocity=63 time=0
EXTRACT: note_on channel=0 note=72 velocity=63 time=0.11298075416666667
EXTRACT: note_on channel=0 note=68 velocity=63 time=0
EXTRACT: note_on channel=0 note=65 velocity=63 time=0
EXTRACT: note_on channel=0 note=60 velocity=63 time=0
EXTRACT: note_on channel=0 note=53 velocity=63 time=0
EXTRACT: note_off channel=4 note=65 velocity=95 time=0
EXTRACT: note_off channel=4 note=68 velocity=95 time=0
EXTRACT: note_off channel=4 note=72 velocity=95 time=0
EXTRACT: note_on channel=4 note=70 velocity=95 time=0
EXTRACT: note_on channel=4 note=67 velocity=95 time=0
EXTRACT: note_on channel=4 note=63 velocity=95 time=0
EXTRACT: note_off channel=0 note=72 velocity=63 time=0.14423075
EXTRACT: note_off channel=0 note=68 velocity=63 time=0
EXTRACT: note_off channel=0 note=65 velocity=63 time=0
EXTRACT: note_off channel=0 note=60 velocity=63 time=0
EXTRACT: note_off channel=0 note=53 velocity=63 time=0
EXTRACT: note_on channel=0 note=72 velocity=63 time=0
EXTRACT: note_on channel=0 note=68 velocity=63 time=0
EXTRACT: note_on channel=0 note=65 velocity=63 time=0
EXTRACT: note_on channel=0 note=60 velocity=63 time=0
EXTRACT: note_on channel=0 note=53 velocity=63 time=0
EXTRACT: note_off channel=0 note=72 velocity=63 time=0.14423075
EXTRACT: note_off channel=0 note=68 velocity=63 time=0
EXTRACT: note_off channel=0 note=65 velocity=63 time=0
EXTRACT: note_off channel=0 note=60 velocity=63 time=0
EXTRACT: note_off channel=0 note=53 velocity=63 time=0
EXTRACT: note_on channel=0 note=64 velocity=63 time=0
EXTRACT: note_on channel=0 note=59 velocity=63 time=0
EXTRACT: note_on channel=0 note=55 velocity=63 time=0
EXTRACT: note_on channel=0 note=50 velocity=63 time=0
EXTRACT: note_on channel=0 note=45 velocity=63 time=0
EXTRACT: note_off channel=0 note=64 velocity=63 time=0.031249995833333332
EXTRACT: note_off channel=0 note=59 velocity=63 time=0
EXTRACT: note_off channel=0 note=55 velocity=63 time=0
EXTRACT: note_off channel=0 note=50 velocity=63 time=0
EXTRACT: note_off channel=0 note=45 velocity=63 time=0
EXTRACT: note_on channel=0 note=64 velocity=63 time=0.11298075416666667
EXTRACT: note_on channel=0 note=59 velocity=63 time=0
EXTRACT: note_on channel=0 note=55 velocity=63 time=0
EXTRACT: note_on channel=0 note=50 velocity=63 time=0
EXTRACT: note_on channel=0 note=45 velocity=63 time=0
EXTRACT: note_off channel=0 note=64 velocity=63 time=0.031249995833333332
EXTRACT: note_off channel=0 note=59 velocity=63 time=0
EXTRACT: note_off channel=0 note=55 velocity=63 time=0
EXTRACT: note_off channel=0 note=50 velocity=63 time=0
EXTRACT: note_off channel=0 note=45 velocity=63 time=0
EXTRACT: note_on channel=0 note=72 velocity=63 time=0.11298075416666667
EXTRACT: note_on channel=0 note=68 velocity=63 time=0
EXTRACT: note_on channel=0 note=65 velocity=63 time=0
EXTRACT: note_on channel=0 note=60 velocity=63 time=0
EXTRACT: note_on channel=0 note=53 velocity=63 time=0
EXTRACT: note_off channel=0 note=72 velocity=63 time=0.14423075
EXTRACT: note_off channel=0 note=68 velocity=63 time=0
EXTRACT: note_off channel=0 note=65 velocity=63 time=0
EXTRACT: note_off channel=0 note=60 velocity=63 time=0
EXTRACT: note_off channel=0 note=53 velocity=63 time=0
EXTRACT: note_on channel=0 note=72 velocity=63 time=0
EXTRACT: note_on channel=0 note=68 velocity=63 time=0
EXTRACT: note_on channel=0 note=65 velocity=63 time=0
EXTRACT: note_on channel=0 note=60 velocity=63 time=0
EXTRACT: note_on channel=0 note=53 velocity=63 time=0
EXTRACT: note_off channel=0 note=72 velocity=63 time=0.14423075
EXTRACT: note_off channel=0 note=68 velocity=63 time=0
EXTRACT: note_off channel=0 note=65 velocity=63 time=0
EXTRACT: note_off channel=0 note=60 velocity=63 time=0
EXTRACT: note_off channel=0 note=53 velocity=63 time=0
EXTRACT: note_on channel=0 note=64 velocity=63 time=0
EXTRACT: note_on channel=0 note=59 velocity=63 time=0
EXTRACT: note_on channel=0 note=55 velocity=63 time=0
EXTRACT: note_on channel=0 note=50 velocity=63 time=0
EXTRACT: note_on channel=0 note=45 velocity=63 time=0
EXTRACT: note_off channel=0 note=64 velocity=63 time=0.031249995833333332
EXTRACT: note_off channel=0 note=59 velocity=63 time=0
EXTRACT: note_off channel=0 note=55 velocity=63 time=0
EXTRACT: note_off channel=0 note=50 velocity=63 time=0
EXTRACT: note_off channel=0 note=45 velocity=63 time=0
EXTRACT: note_on channel=0 note=64 velocity=63 time=0.11298075416666667
EXTRACT: note_on channel=0 note=59 velocity=63 time=0
EXTRACT: note_on channel=0 note=55 velocity=63 time=0
EXTRACT: note_on channel=0 note=50 velocity=63 time=0
EXTRACT: note_on channel=0 note=45 velocity=63 time=0
EXTRACT: note_off channel=0 note=64 velocity=63 time=0.031249995833333332
EXTRACT: note_off channel=0 note=59 velocity=63 time=0
EXTRACT: note_off channel=0 note=55 velocity=63 time=0
EXTRACT: note_off channel=0 note=50 velocity=63 time=0
EXTRACT: note_off channel=0 note=45 velocity=63 time=0
EXTRACT: note_on channel=0 note=72 velocity=63 time=0.11298075416666667
EXTRACT: note_on channel=0 note=68 velocity=63 time=0
EXTRACT: note_on channel=0 note=65 velocity=63 time=0
EXTRACT: note_on channel=0 note=60 velocity=63 time=0
EXTRACT: note_on channel=0 note=53 velocity=63 time=0
EXTRACT: note_off channel=0 note=72 velocity=63 time=0.14423075
EXTRACT: note_off channel=0 note=68 velocity=63 time=0
EXTRACT: note_off channel=0 note=65 velocity=63 time=0
EXTRACT: note_off channel=0 note=60 velocity=63 time=0
EXTRACT: note_off channel=0 note=53 velocity=63 time=0
EXTRACT: note_on channel=0 note=72 velocity=63 time=0
EXTRACT: note_on channel=0 note=68 velocity=63 time=0
EXTRACT: note_on channel=0 note=65 velocity=63 time=0
EXTRACT: note_on channel=0 note=60 velocity=63 time=0
EXTRACT: note_on channel=0 note=53 velocity=63 time=0
EXTRACT: note_off channel=0 note=72 velocity=63 time=0.14423075
EXTRACT: note_off channel=0 note=68 velocity=63 time=0
EXTRACT: note_off channel=0 note=65 velocity=63 time=0
EXTRACT: note_off channel=0 note=60 velocity=63 time=0
EXTRACT: note_off channel=0 note=53 velocity=63 time=0
EXTRACT: note_on channel=0 note=64 velocity=63 time=0
EXTRACT: note_on channel=0 note=59 velocity=63 time=0
EXTRACT: note_on channel=0 note=55 velocity=63 time=0
EXTRACT: note_on channel=0 note=50 velocity=63 time=0
EXTRACT: note_on channel=0 note=45 velocity=63 time=0
EXTRACT: note_off channel=0 note=64 velocity=63 time=0.031249995833333332
EXTRACT: note_off channel=0 note=59 velocity=63 time=0
EXTRACT: note_off channel=0 note=55 velocity=63 time=0
EXTRACT: note_off channel=0 note=50 velocity=63 time=0
EXTRACT: note_off channel=0 note=45 velocity=63 time=0
EXTRACT: note_on channel=0 note=64 velocity=63 time=0.11298075416666667
EXTRACT: note_on channel=0 note=59 velocity=63 time=0
EXTRACT: note_on channel=0 note=55 velocity=63 time=0
EXTRACT: note_on channel=0 note=50 velocity=63 time=0
EXTRACT: note_on channel=0 note=45 velocity=63 time=0
EXTRACT: note_off channel=0 note=64 velocity=63 time=0.031249995833333332
EXTRACT: note_off channel=0 note=59 velocity=63 time=0
EXTRACT: note_off channel=0 note=55 velocity=63 time=0
EXTRACT: note_off channel=0 note=50 velocity=63 time=0
EXTRACT: note_off channel=0 note=45 velocity=63 time=0
EXTRACT: note_on channel=0 note=72 velocity=63 time=0.11298075416666667
EXTRACT: note_on channel=0 note=68 velocity=63 time=0
EXTRACT: note_on channel=0 note=65 velocity=63 time=0
EXTRACT: note_on channel=0 note=60 velocity=63 time=0
EXTRACT: note_on channel=0 note=53 velocity=63 time=0
EXTRACT: note_off channel=0 note=72 velocity=63 time=0.14423075
EXTRACT: note_off channel=0 note=68 velocity=63 time=0
EXTRACT: note_off channel=0 note=65 velocity=63 time=0
EXTRACT: note_off channel=0 note=60 velocity=63 time=0
EXTRACT: note_off channel=0 note=53 velocity=63 time=0
EXTRACT: note_on channel=0 note=72 velocity=63 time=0
EXTRACT: note_on channel=0 note=68 velocity=63 time=0
EXTRACT: note_on channel=0 note=65 velocity=63 time=0
EXTRACT: note_on channel=0 note=60 velocity=63 time=0
EXTRACT: note_on channel=0 note=53 velocity=63 time=0
EXTRACT: note_off channel=4 note=70 velocity=95 time=0
EXTRACT: note_off channel=4 note=67 velocity=95 time=0
EXTRACT: note_on channel=4 note=72 velocity=95 time=0
EXTRACT: note_on channel=4 note=68 velocity=95 time=0
EXTRACT: note_off channel=0 note=72 velocity=63 time=0.14423075
EXTRACT: note_off channel=0 note=68 velocity=63 time=0
EXTRACT: note_off channel=0 note=65 velocity=63 time=0
EXTRACT: note_off channel=0 note=60 velocity=63 time=0
EXTRACT: note_off channel=0 note=53 velocity=63 time=0
EXTRACT: note_on channel=0 note=64 velocity=63 time=0
EXTRACT: note_on channel=0 note=59 velocity=63 time=0
EXTRACT: note_on channel=0 note=55 velocity=63 time=0
EXTRACT: note_on channel=0 note=50 velocity=63 time=0
EXTRACT: note_on channel=0 note=45 velocity=63 time=0
EXTRACT: note_off channel=4 note=72 velocity=95 time=0
EXTRACT: note_off channel=4 note=68 velocity=95 time=0
EXTRACT: note_on channel=4 note=67 velocity=95 time=0
EXTRACT: note_on channel=4 note=63 velocity=95 time=0
EXTRACT: note_off channel=0 note=64 velocity=63 time=0.031249995833333332
EXTRACT: note_off channel=0 note=59 velocity=63 time=0
EXTRACT: note_off channel=0 note=55 velocity=63 time=0
EXTRACT: note_off channel=0 note=50 velocity=63 time=0
EXTRACT: note_off channel=0 note=45 velocity=63 time=0
EXTRACT: note_on channel=0 note=64 velocity=63 time=0.11298075416666667
EXTRACT: note_on channel=0 note=59 velocity=63 time=0
EXTRACT: note_on channel=0 note=55 velocity=63 time=0
EXTRACT: note_on channel=0 note=50 velocity=63 time=0
EXTRACT: note_on channel=0 note=45 velocity=63 time=0
EXTRACT: note_off channel=4 note=63 velocity=95 time=0
EXTRACT: note_off channel=4 note=67 velocity=95 time=0
EXTRACT: note_off channel=4 note=63 velocity=95 time=0
EXTRACT: note_on channel=4 note=68 velocity=95 time=0
EXTRACT: note_on channel=4 note=65 velocity=95 time=0
EXTRACT: note_on channel=4 note=60 velocity=95 time=0
EXTRACT: note_off channel=0 note=64 velocity=63 time=0.031249995833333332
EXTRACT: note_off channel=0 note=59 velocity=63 time=0
EXTRACT: note_off channel=0 note=55 velocity=63 time=0
EXTRACT: note_off channel=0 note=50 velocity=63 time=0
EXTRACT: note_off channel=0 note=45 velocity=63 time=0
EXTRACT: note_on channel=0 note=72 velocity=63 time=0.11298075416666667
EXTRACT: note_on channel=0 note=68 velocity=63 time=0
EXTRACT: note_on channel=0 note=65 velocity=63 time=0
EXTRACT: note_on channel=0 note=60 velocity=63 time=0
EXTRACT: note_on channel=0 note=53 velocity=63 time=0
EXTRACT: note_off channel=4 note=68 velocity=95 time=0
EXTRACT: note_off channel=4 note=65 velocity=95 time=0
EXTRACT: note_on channel=4 note=67 velocity=95 time=0
EXTRACT: note_on channel=4 note=63 velocity=95 time=0
EXTRACT: note_off channel=0 note=72 velocity=63 time=0.14423075
EXTRACT: note_off channel=0 note=68 velocity=63 time=0
EXTRACT: note_off channel=0 note=65 velocity=63 time=0
EXTRACT: note_off channel=0 note=60 velocity=63 time=0
EXTRACT: note_off channel=0 note=53 velocity=63 time=0
EXTRACT: note_on channel=0 note=72 velocity=63 time=0
EXTRACT: note_on channel=0 note=68 velocity=63 time=0
EXTRACT: note_on channel=0 note=65 velocity=63 time=0
EXTRACT: note_on channel=0 note=60 velocity=63 time=0
EXTRACT: note_on channel=0 note=53 velocity=63 time=0
EXTRACT: note_off channel=4 note=67 velocity=95 time=0
EXTRACT: note_off channel=4 note=63 velocity=95 time=0
EXTRACT: note_on channel=4 note=68 velocity=95 time=0
EXTRACT: note_on channel=4 note=65 velocity=95 time=0
EXTRACT: note_off channel=0 note=72 velocity=63 time=0.14423075
EXTRACT: note_off channel=0 note=68 velocity=63 time=0
EXTRACT: note_off channel=0 note=65 velocity=63 time=0
EXTRACT: note_off channel=0 note=60 velocity=63 time=0
EXTRACT: note_off channel=0 note=53 velocity=63 time=0
EXTRACT: note_on channel=0 note=64 velocity=63 time=0
EXTRACT: note_on channel=0 note=59 velocity=63 time=0
EXTRACT: note_on channel=0 note=55 velocity=63 time=0
EXTRACT: note_on channel=0 note=50 velocity=63 time=0
EXTRACT: note_on channel=0 note=45 velocity=63 time=0
EXTRACT: note_off channel=0 note=64 velocity=63 time=0.031249995833333332
EXTRACT: note_off channel=0 note=59 velocity=63 time=0
EXTRACT: note_off channel=0 note=55 velocity=63 time=0
EXTRACT: note_off channel=0 note=50 velocity=63 time=0
EXTRACT: note_off channel=0 note=45 velocity=63 time=0
EXTRACT: note_on channel=0 note=64 velocity=63 time=0.11298075416666667
EXTRACT: note_on channel=0 note=59 velocity=63 time=0
EXTRACT: note_on channel=0 note=55 velocity=63 time=0
EXTRACT: note_on channel=0 note=50 velocity=63 time=0
EXTRACT: note_on channel=0 note=45 velocity=63 time=0
EXTRACT: note_off channel=0 note=64 velocity=63 time=0.031249995833333332
EXTRACT: note_off channel=0 note=59 velocity=63 time=0
EXTRACT: note_off channel=0 note=55 velocity=63 time=0
EXTRACT: note_off channel=0 note=50 velocity=63 time=0
EXTRACT: note_off channel=0 note=45 velocity=63 time=0
EXTRACT: note_on channel=0 note=72 velocity=63 time=0.11298075416666667
EXTRACT: note_on channel=0 note=68 velocity=63 time=0
EXTRACT: note_on channel=0 note=65 velocity=63 time=0
EXTRACT: note_on channel=0 note=60 velocity=63 time=0
EXTRACT: note_on channel=0 note=53 velocity=63 time=0
EXTRACT: note_off channel=0 note=72 velocity=63 time=0.14423075
EXTRACT: note_off channel=0 note=68 velocity=63 time=0
EXTRACT: note_off channel=0 note=65 velocity=63 time=0
EXTRACT: note_off channel=0 note=60 velocity=63 time=0
EXTRACT: note_off channel=0 note=53 velocity=63 time=0
EXTRACT: note_on channel=0 note=72 velocity=63 time=0
EXTRACT: note_on channel=0 note=68 velocity=63 time=0
EXTRACT: note_on channel=0 note=65 velocity=63 time=0
EXTRACT: note_on channel=0 note=60 velocity=63 time=0
EXTRACT: note_on channel=0 note=53 velocity=63 time=0
EXTRACT: note_off channel=0 note=72 velocity=63 time=0.14423075
EXTRACT: note_off channel=0 note=68 velocity=63 time=0
EXTRACT: note_off channel=0 note=65 velocity=63 time=0
EXTRACT: note_off channel=0 note=60 velocity=63 time=0
EXTRACT: note_off channel=0 note=53 velocity=63 time=0
EXTRACT: note_on channel=0 note=64 velocity=63 time=0
EXTRACT: note_on channel=0 note=59 velocity=63 time=0
EXTRACT: note_on channel=0 note=55 velocity=63 time=0
EXTRACT: note_on channel=0 note=50 velocity=63 time=0
EXTRACT: note_on channel=0 note=45 velocity=63 time=0
EXTRACT: note_off channel=0 note=64 velocity=63 time=0.031249995833333332
EXTRACT: note_off channel=0 note=59 velocity=63 time=0
EXTRACT: note_off channel=0 note=55 velocity=63 time=0
EXTRACT: note_off channel=0 note=50 velocity=63 time=0
EXTRACT: note_off channel=0 note=45 velocity=63 time=0
EXTRACT: note_on channel=0 note=64 velocity=63 time=0.11298075416666667
EXTRACT: note_on channel=0 note=59 velocity=63 time=0
EXTRACT: note_on channel=0 note=55 velocity=63 time=0
EXTRACT: note_on channel=0 note=50 velocity=63 time=0
EXTRACT: note_on channel=0 note=45 velocity=63 time=0
EXTRACT: note_off channel=0 note=64 velocity=63 time=0.031249995833333332
EXTRACT: note_off channel=0 note=59 velocity=63 time=0
EXTRACT: note_off channel=0 note=55 velocity=63 time=0
EXTRACT: note_off channel=0 note=50 velocity=63 time=0
EXTRACT: note_off channel=0 note=45 velocity=63 time=0
EXTRACT: note_on channel=0 note=72 velocity=63 time=0.11298075416666667
EXTRACT: note_on channel=0 note=68 velocity=63 time=0
EXTRACT: note_on channel=0 note=65 velocity=63 time=0
EXTRACT: note_on channel=0 note=60 velocity=63 time=0
EXTRACT: note_on channel=0 note=53 velocity=63 time=0
EXTRACT: note_off channel=0 note=72 velocity=63 time=0.14423075
EXTRACT: note_off channel=0 note=68 velocity=63 time=0
EXTRACT: note_off channel=0 note=65 velocity=63 time=0
EXTRACT: note_off channel=0 note=60 velocity=63 time=0
EXTRACT: note_off channel=0 note=53 velocity=63 time=0
EXTRACT: note_on channel=0 note=72 velocity=63 time=0
EXTRACT: note_on channel=0 note=68 velocity=63 time=0
EXTRACT: note_on channel=0 note=65 velocity=63 time=0
EXTRACT: note_on channel=0 note=60 velocity=63 time=0
EXTRACT: note_on channel=0 note=53 velocity=63 time=0
EXTRACT: note_off channel=0 note=72 velocity=63 time=0.14423075
EXTRACT: note_off channel=0 note=68 velocity=63 time=0
EXTRACT: note_off channel=0 note=65 velocity=63 time=0
EXTRACT: note_off channel=0 note=60 velocity=63 time=0
EXTRACT: note_off channel=0 note=53 velocity=63 time=0
EXTRACT: note_on channel=0 note=64 velocity=63 time=0
EXTRACT: note_on channel=0 note=59 velocity=63 time=0
EXTRACT: note_on channel=0 note=55 velocity=63 time=0
EXTRACT: note_on channel=0 note=50 velocity=63 time=0
EXTRACT: note_on channel=0 note=45 velocity=63 time=0
EXTRACT: note_off channel=0 note=64 velocity=63 time=0.031249995833333332
EXTRACT: note_off channel=0 note=59 velocity=63 time=0
EXTRACT: note_off channel=0 note=55 velocity=63 time=0
EXTRACT: note_off channel=0 note=50 velocity=63 time=0
EXTRACT: note_off channel=0 note=45 velocity=63 time=0
EXTRACT: note_on channel=0 note=64 velocity=63 time=0.11298075416666667
EXTRACT: note_on channel=0 note=59 velocity=63 time=0
EXTRACT: note_on channel=0 note=55 velocity=63 time=0
EXTRACT: note_on channel=0 note=50 velocity=63 time=0
EXTRACT: note_on channel=0 note=45 velocity=63 time=0
EXTRACT: note_off channel=0 note=64 velocity=63 time=0.031249995833333332
EXTRACT: note_off channel=0 note=59 velocity=63 time=0
EXTRACT: note_off channel=0 note=55 velocity=63 time=0
EXTRACT: note_off channel=0 note=50 velocity=63 time=0
EXTRACT: note_off channel=0 note=45 velocity=63 time=0
EXTRACT: note_on channel=0 note=72 velocity=63 time=0.11298075416666667
EXTRACT: note_on channel=0 note=68 velocity=63 time=0
EXTRACT: note_on channel=0 note=65 velocity=63 time=0
EXTRACT: note_on channel=0 note=60 velocity=63 time=0
EXTRACT: note_on channel=0 note=53 velocity=63 time=0
EXTRACT: note_off channel=0 note=72 velocity=63 time=0.14423075
EXTRACT: note_off channel=0 note=68 velocity=63 time=0
EXTRACT: note_off channel=0 note=65 velocity=63 time=0
EXTRACT: note_off channel=0 note=60 velocity=63 time=0
EXTRACT: note_off channel=0 note=53 velocity=63 time=0
EXTRACT: note_on channel=0 note=72 velocity=63 time=0
EXTRACT: note_on channel=0 note=68 velocity=63 time=0
EXTRACT: note_on channel=0 note=65 velocity=63 time=0
EXTRACT: note_on channel=0 note=60 velocity=63 time=0
EXTRACT: note_on channel=0 note=53 velocity=63 time=0
EXTRACT: note_off channel=0 note=72 velocity=63 time=0.14423075
EXTRACT: note_off channel=0 note=68 velocity=63 time=0
EXTRACT: note_off channel=0 note=65 velocity=63 time=0
EXTRACT: note_off channel=0 note=60 velocity=63 time=0
EXTRACT: note_off channel=0 note=53 velocity=63 time=0
EXTRACT: note_on channel=0 note=64 velocity=63 time=0
EXTRACT: note_on channel=0 note=59 velocity=63 time=0
EXTRACT: note_on channel=0 note=55 velocity=63 time=0
EXTRACT: note_on channel=0 note=50 velocity=63 time=0
EXTRACT: note_on channel=0 note=45 velocity=63 time=0
EXTRACT: note_off channel=0 note=64 velocity=63 time=0.031249995833333332
EXTRACT: note_off channel=0 note=59 velocity=63 time=0
EXTRACT: note_off channel=0 note=55 velocity=63 time=0
EXTRACT: note_off channel=0 note=50 velocity=63 time=0
EXTRACT: note_off channel=0 note=45 velocity=63 time=0
EXTRACT: note_on channel=0 note=64 velocity=63 time=0.11298075416666667
EXTRACT: note_on channel=0 note=59 velocity=63 time=0
EXTRACT: note_on channel=0 note=55 velocity=63 time=0
EXTRACT: note_on channel=0 note=50 velocity=63 time=0
EXTRACT: note_on channel=0 note=45 velocity=63 time=0
EXTRACT: note_off channel=0 note=64 velocity=63 time=0.031249995833333332
EXTRACT: note_off channel=0 note=59 velocity=63 time=0
EXTRACT: note_off channel=0 note=55 velocity=63 time=0
EXTRACT: note_off channel=0 note=50 velocity=63 time=0
EXTRACT: note_off channel=0 note=45 velocity=63 time=0
EXTRACT: note_off channel=2 note=65 velocity=79 time=0.11298075416666667
EXTRACT: note_off channel=2 note=60 velocity=79 time=0
EXTRACT: note_off channel=2 note=56 velocity=79 time=0
EXTRACT: note_off channel=2 note=53 velocity=79 time=0
EXTRACT: note_off channel=4 note=60 velocity=95 time=0
EXTRACT: note_off channel=4 note=68 velocity=95 time=0
EXTRACT: note_off channel=4 note=65 velocity=95 time=0
EXTRACT: note_on channel=4 note=67 velocity=95 time=0
EXTRACT: note_on channel=4 note=63 velocity=95 time=0
EXTRACT: note_on channel=4 note=58 velocity=95 time=0
EXTRACT: note_off channel=4 note=67 velocity=95 time=1.153846
EXTRACT: note_off channel=4 note=63 velocity=95 time=0
EXTRACT: note_off channel=4 note=58 velocity=95 time=0
EXTRACT: note_on channel=4 note=72 velocity=95 time=0.2884615
EXTRACT: note_off channel=4 note=72 velocity=95 time=0.43269225
EXTRACT: note_on channel=4 note=72 velocity=95 time=0
EXTRACT: note_off channel=4 note=72 velocity=95 time=0.14423075
EXTRACT: note_on channel=4 note=70 velocity=95 time=0
EXTRACT: note_off channel=4 note=70 velocity=95 time=0.14423075
EXTRACT: note_on channel=4 note=72 velocity=95 time=0
EXTRACT: note_on channel=0 note=72 velocity=63 time=0.14423075
EXTRACT: note_on channel=0 note=68 velocity=63 time=0
EXTRACT: note_on channel=0 note=65 velocity=63 time=0
EXTRACT: note_on channel=0 note=60 velocity=63 time=0
EXTRACT: note_on channel=0 note=53 velocity=63 time=0
EXTRACT: note_on channel=2 note=51 velocity=79 time=0
EXTRACT: note_off channel=4 note=72 velocity=95 time=0
EXTRACT: note_on channel=4 note=70 velocity=95 time=0
EXTRACT: note_off channel=0 note=72 velocity=63 time=0.14423075
EXTRACT: note_off channel=0 note=68 velocity=63 time=0
EXTRACT: note_off channel=0 note=65 velocity=63 time=0
EXTRACT: note_off channel=0 note=60 velocity=63 time=0
EXTRACT: note_off channel=0 note=53 velocity=63 time=0
EXTRACT: note_on channel=0 note=72 velocity=63 time=0
EXTRACT: note_on channel=0 note=68 velocity=63 time=0
EXTRACT: note_on channel=0 note=65 velocity=63 time=0
EXTRACT: note_on channel=0 note=60 velocity=63 time=0
EXTRACT: note_on channel=0 note=53 velocity=63 time=0
EXTRACT: note_off channel=2 note=51 velocity=79 time=0
EXTRACT: note_on channel=2 note=53 velocity=54 time=0
EXTRACT: note_off channel=4 note=70 velocity=95 time=0
EXTRACT: note_on channel=4 note=68 velocity=95 time=0
EXTRACT: note_off channel=0 note=72 velocity=63 time=0.14423075
EXTRACT: note_off channel=0 note=68 velocity=63 time=0
EXTRACT: note_off channel=0 note=65 velocity=63 time=0
EXTRACT: note_off channel=0 note=60 velocity=63 time=0
EXTRACT: note_off channel=0 note=53 velocity=63 time=0
EXTRACT: note_on channel=0 note=64 velocity=63 time=0
EXTRACT: note_on channel=0 note=59 velocity=63 time=0
EXTRACT: note_on channel=0 note=55 velocity=63 time=0
EXTRACT: note_on channel=0 note=50 velocity=63 time=0
EXTRACT: note_on channel=0 note=45 velocity=63 time=0
EXTRACT: note_off channel=4 note=68 velocity=95 time=0
EXTRACT: note_off channel=0 note=64 velocity=63 time=0.031249995833333332
EXTRACT: note_off channel=0 note=59 velocity=63 time=0
EXTRACT: note_off channel=0 note=55 velocity=63 time=0
EXTRACT: note_off channel=0 note=50 velocity=63 time=0
EXTRACT: note_off channel=0 note=45 velocity=63 time=0
EXTRACT: note_on channel=0 note=64 velocity=63 time=0.11298075416666667
EXTRACT: note_on channel=0 note=59 velocity=63 time=0
EXTRACT: note_on channel=0 note=55 velocity=63 time=0
EXTRACT: note_on channel=0 note=50 velocity=63 time=0
EXTRACT: note_on channel=0 note=45 velocity=63 time=0
EXTRACT: note_off channel=2 note=53 velocity=54 time=0
EXTRACT: note_on channel=2 note=56 velocity=79 time=0
EXTRACT: note_off channel=0 note=64 velocity=63 time=0.031249995833333332
EXTRACT: note_off channel=0 note=59 velocity=63 time=0
EXTRACT: note_off channel=0 note=55 velocity=63 time=0
EXTRACT: note_off channel=0 note=50 velocity=63 time=0
EXTRACT: note_off channel=0 note=45 velocity=63 time=0
EXTRACT: note_on channel=0 note=72 velocity=63 time=0.11298075416666667
EXTRACT: note_on channel=0 note=68 velocity=63 time=0
EXTRACT: note_on channel=0 note=65 velocity=63 time=0
EXTRACT: note_on channel=0 note=60 velocity=63 time=0
EXTRACT: note_on channel=0 note=53 velocity=63 time=0
EXTRACT: note_off channel=2 note=56 velocity=79 time=0
EXTRACT: note_off channel=0 note=72 velocity=63 time=0.14423075
EXTRACT: note_off channel=0 note=68 velocity=63 time=0
EXTRACT: note_off channel=0 note=65 velocity=63 time=0
EXTRACT: note_off channel=0 note=60 velocity=63 time=0
EXTRACT: note_off channel=0 note=53 velocity=63 time=0
EXTRACT: note_on channel=0 note=72 velocity=63 time=0
EXTRACT: note_on channel=0 note=68 velocity=63 time=0
EXTRACT: note_on channel=0 note=65 velocity=63 time=0
EXTRACT: note_on channel=0 note=60 velocity=63 time=0
EXTRACT: note_on channel=0 note=53 velocity=63 time=0
EXTRACT: note_off channel=0 note=72 velocity=63 time=0.14423075
EXTRACT: note_off channel=0 note=68 velocity=63 time=0
EXTRACT: note_off channel=0 note=65 velocity=63 time=0
EXTRACT: note_off channel=0 note=60 velocity=63 time=0
EXTRACT: note_off channel=0 note=53 velocity=63 time=0
EXTRACT: note_on channel=0 note=64 velocity=63 time=0
EXTRACT: note_on channel=0 note=59 velocity=63 time=0
EXTRACT: note_on channel=0 note=55 velocity=63 time=0
EXTRACT: note_on channel=0 note=50 velocity=63 time=0
EXTRACT: note_on channel=0 note=45 velocity=63 time=0
EXTRACT: note_on channel=2 note=51 velocity=79 time=0
EXTRACT: note_off channel=0 note=64 velocity=63 time=0.031249995833333332
EXTRACT: note_off channel=0 note=59 velocity=63 time=0
EXTRACT: note_off channel=0 note=55 velocity=63 time=0
EXTRACT: note_off channel=0 note=50 velocity=63 time=0
EXTRACT: note_off channel=0 note=45 velocity=63 time=0
EXTRACT: note_on channel=0 note=64 velocity=63 time=0.11298075416666667
EXTRACT: note_on channel=0 note=59 velocity=63 time=0
EXTRACT: note_on channel=0 note=55 velocity=63 time=0
EXTRACT: note_on channel=0 note=50 velocity=63 time=0
EXTRACT: note_on channel=0 note=45 velocity=63 time=0
EXTRACT: note_off channel=0 note=64 velocity=63 time=0.031249995833333332
EXTRACT: note_off channel=0 note=59 velocity=63 time=0
EXTRACT: note_off channel=0 note=55 velocity=63 time=0
EXTRACT: note_off channel=0 note=50 velocity=63 time=0
EXTRACT: note_off channel=0 note=45 velocity=63 time=0
EXTRACT: note_on channel=0 note=72 velocity=63 time=0.11298075416666667
EXTRACT: note_on channel=0 note=68 velocity=63 time=0
EXTRACT: note_on channel=0 note=65 velocity=63 time=0
EXTRACT: note_on channel=0 note=60 velocity=63 time=0
EXTRACT: note_on channel=0 note=53 velocity=63 time=0
EXTRACT: note_off channel=2 note=51 velocity=79 time=0
EXTRACT: note_off channel=0 note=72 velocity=63 time=0.14423075
EXTRACT: note_off channel=0 note=68 velocity=63 time=0
EXTRACT: note_off channel=0 note=65 velocity=63 time=0
EXTRACT: note_off channel=0 note=60 velocity=63 time=0
EXTRACT: note_off channel=0 note=53 velocity=63 time=0
EXTRACT: note_on channel=0 note=72 velocity=63 time=0
EXTRACT: note_on channel=0 note=68 velocity=63 time=0
EXTRACT: note_on channel=0 note=65 velocity=63 time=0
EXTRACT: note_on channel=0 note=60 velocity=63 time=0
EXTRACT: note_on channel=0 note=53 velocity=63 time=0
EXTRACT: note_off channel=0 note=72 velocity=63 time=0.14423075
EXTRACT: note_off channel=0 note=68 velocity=63 time=0
EXTRACT: note_off channel=0 note=65 velocity=63 time=0
EXTRACT: note_off channel=0 note=60 velocity=63 time=0
EXTRACT: note_off channel=0 note=53 velocity=63 time=0
EXTRACT: note_on channel=0 note=64 velocity=63 time=0
EXTRACT: note_on channel=0 note=59 velocity=63 time=0
EXTRACT: note_on channel=0 note=55 velocity=63 time=0
EXTRACT: note_on channel=0 note=50 velocity=63 time=0
EXTRACT: note_on channel=0 note=45 velocity=63 time=0
EXTRACT: note_on channel=2 note=48 velocity=79 time=0
EXTRACT: note_off channel=0 note=64 velocity=63 time=0.031249995833333332
EXTRACT: note_off channel=0 note=59 velocity=63 time=0
EXTRACT: note_off channel=0 note=55 velocity=63 time=0
EXTRACT: note_off channel=0 note=50 velocity=63 time=0
EXTRACT: note_off channel=0 note=45 velocity=63 time=0
EXTRACT: note_on channel=0 note=64 velocity=63 time=0.11298075416666667
EXTRACT: note_on channel=0 note=59 velocity=63 time=0
EXTRACT: note_on channel=0 note=55 velocity=63 time=0
EXTRACT: note_on channel=0 note=50 velocity=63 time=0
EXTRACT: note_on channel=0 note=45 velocity=63 time=0
EXTRACT: note_off channel=0 note=64 velocity=63 time=0.031249995833333332
EXTRACT: note_off channel=0 note=59 velocity=63 time=0
EXTRACT: note_off channel=0 note=55 velocity=63 time=0
EXTRACT: note_off channel=0 note=50 velocity=63 time=0
EXTRACT: note_off channel=0 note=45 velocity=63 time=0
EXTRACT: note_on channel=0 note=72 velocity=63 time=0.11298075416666667
EXTRACT: note_on channel=0 note=68 velocity=63 time=0
EXTRACT: note_on channel=0 note=65 velocity=63 time=0
EXTRACT: note_on channel=0 note=60 velocity=63 time=0
EXTRACT: note_on channel=0 note=53 velocity=63 time=0
EXTRACT: note_off channel=2 note=48 velocity=79 time=0
EXTRACT: note_on channel=2 note=46 velocity=79 time=0
EXTRACT: note_off channel=0 note=72 velocity=63 time=0.14423075
EXTRACT: note_off channel=0 note=68 velocity=63 time=0
EXTRACT: note_off channel=0 note=65 velocity=63 time=0
EXTRACT: note_off channel=0 note=60 velocity=63 time=0
EXTRACT: note_off channel=0 note=53 velocity=63 time=0
EXTRACT: note_on channel=0 note=72 velocity=63 time=0
EXTRACT: note_on channel=0 note=68 velocity=63 time=0
EXTRACT: note_on channel=0 note=65 velocity=63 time=0
EXTRACT: note_on channel=0 note=60 velocity=63 time=0
EXTRACT: note_on channel=0 note=53 velocity=63 time=0
EXTRACT: note_off channel=2 note=46 velocity=79 time=0
EXTRACT: note_on channel=2 note=48 velocity=54 time=0
EXTRACT: note_off channel=0 note=72 velocity=63 time=0.14423075
EXTRACT: note_off channel=0 note=68 velocity=63 time=0
EXTRACT: note_off channel=0 note=65 velocity=63 time=0
EXTRACT: note_off channel=0 note=60 velocity=63 time=0
EXTRACT: note_off channel=0 note=53 velocity=63 time=0
EXTRACT: note_on channel=0 note=64 velocity=63 time=0
EXTRACT: note_on channel=0 note=59 velocity=63 time=0
EXTRACT: note_on channel=0 note=55 velocity=63 time=0
EXTRACT: note_on channel=0 note=50 velocity=63 time=0
EXTRACT: note_on channel=0 note=45 velocity=63 time=0
EXTRACT: note_off channel=2 note=48 velocity=54 time=0
EXTRACT: note_on channel=2 note=51 velocity=79 time=0
EXTRACT: note_off channel=0 note=64 velocity=63 time=0.031249995833333332
EXTRACT: note_off channel=0 note=59 velocity=63 time=0
EXTRACT: note_off channel=0 note=55 velocity=63 time=0
EXTRACT: note_off channel=0 note=50 velocity=63 time=0
EXTRACT: note_off channel=0 note=45 velocity=63 time=0
EXTRACT: note_on channel=0 note=64 velocity=63 time=0.11298075416666667
EXTRACT: note_on channel=0 note=59 velocity=63 time=0
EXTRACT: note_on channel=0 note=55 velocity=63 time=0
EXTRACT: note_on channel=0 note=50 velocity=63 time=0
EXTRACT: note_on channel=0 note=45 velocity=63 time=0
EXTRACT: note_off channel=0 note=64 velocity=63 time=0.031249995833333332
EXTRACT: note_off channel=0 note=59 velocity=63 time=0
EXTRACT: note_off channel=0 note=55 velocity=63 time=0
EXTRACT: note_off channel=0 note=50 velocity=63 time=0
EXTRACT: note_off channel=0 note=45 velocity=63 time=0
EXTRACT: note_on channel=0 note=72 velocity=63 time=0.11298075416666667
EXTRACT: note_on channel=0 note=68 velocity=63 time=0
EXTRACT: note_on channel=0 note=65 velocity=63 time=0
EXTRACT: note_on channel=0 note=60 velocity=63 time=0
EXTRACT: note_on channel=0 note=53 velocity=63 time=0
EXTRACT: note_off channel=2 note=51 velocity=79 time=0
EXTRACT: note_on channel=2 note=46 velocity=79 time=0
EXTRACT: note_off channel=0 note=72 velocity=63 time=0.14423075
EXTRACT: note_off channel=0 note=68 velocity=63 time=0
EXTRACT: note_off channel=0 note=65 velocity=63 time=0
EXTRACT: note_off channel=0 note=60 velocity=63 time=0
EXTRACT: note_off channel=0 note=53 velocity=63 time=0
EXTRACT: note_on channel=0 note=72 velocity=63 time=0
EXTRACT: note_on channel=0 note=68 velocity=63 time=0
EXTRACT: note_on channel=0 note=65 velocity=63 time=0
EXTRACT: note_on channel=0 note=60 velocity=63 time=0
EXTRACT: note_on channel=0 note=53 velocity=63 time=0
EXTRACT: note_off channel=2 note=46 velocity=79 time=0
EXTRACT: note_on channel=2 note=48 velocity=54 time=0
EXTRACT: note_off channel=0 note=72 velocity=63 time=0.14423075
EXTRACT: note_off channel=0 note=68 velocity=63 time=0
EXTRACT: note_off channel=0 note=65 velocity=63 time=0
EXTRACT: note_off channel=0 note=60 velocity=63 time=0
EXTRACT: note_off channel=0 note=53 velocity=63 time=0
EXTRACT: note_on channel=0 note=64 velocity=63 time=0
EXTRACT: note_on channel=0 note=59 velocity=63 time=0
EXTRACT: note_on channel=0 note=55 velocity=63 time=0
EXTRACT: note_on channel=0 note=50 velocity=63 time=0
EXTRACT: note_on channel=0 note=45 velocity=63 time=0
EXTRACT: note_off channel=2 note=48 velocity=54 time=0
EXTRACT: note_on channel=2 note=51 velocity=79 time=0
EXTRACT: note_off channel=0 note=64 velocity=63 time=0.031249995833333332
EXTRACT: note_off channel=0 note=59 velocity=63 time=0
EXTRACT: note_off channel=0 note=55 velocity=63 time=0
EXTRACT: note_off channel=0 note=50 velocity=63 time=0
EXTRACT: note_off channel=0 note=45 velocity=63 time=0
EXTRACT: note_on channel=0 note=64 velocity=63 time=0.11298075416666667
EXTRACT: note_on channel=0 note=59 velocity=63 time=0
EXTRACT: note_on channel=0 note=55 velocity=63 time=0
EXTRACT: note_on channel=0 note=50 velocity=63 time=0
EXTRACT: note_on channel=0 note=45 velocity=63 time=0
EXTRACT: note_off channel=0 note=64 velocity=63 time=0.031249995833333332
EXTRACT: note_off channel=0 note=59 velocity=63 time=0
EXTRACT: note_off channel=0 note=55 velocity=63 time=0
EXTRACT: note_off channel=0 note=50 velocity=63 time=0
EXTRACT: note_off channel=0 note=45 velocity=63 time=0
EXTRACT: note_on channel=0 note=72 velocity=63 time=0.11298075416666667
EXTRACT: note_on channel=0 note=68 velocity=63 time=0
EXTRACT: note_on channel=0 note=65 velocity=63 time=0
EXTRACT: note_on channel=0 note=60 velocity=63 time=0
EXTRACT: note_on channel=0 note=53 velocity=63 time=0
EXTRACT: note_off channel=2 note=51 velocity=79 time=0
EXTRACT: note_off channel=0 note=72 velocity=63 time=0.14423075
EXTRACT: note_off channel=0 note=68 velocity=63 time=0
EXTRACT: note_off channel=0 note=65 velocity=63 time=0
EXTRACT: note_off channel=0 note=60 velocity=63 time=0
EXTRACT: note_off channel=0 note=53 velocity=63 time=0
EXTRACT: note_on channel=0 note=72 velocity=63 time=0
EXTRACT: note_on channel=0 note=68 velocity=63 time=0
EXTRACT: note_on channel=0 note=65 velocity=63 time=0
EXTRACT: note_on channel=0 note=60 velocity=63 time=0
EXTRACT: note_on channel=0 note=53 velocity=63 time=0
EXTRACT: note_on channel=2 note=45 velocity=79 time=0
EXTRACT: note_off channel=2 note=45 velocity=79 time=0.031249995833333332
EXTRACT: note_off channel=0 note=72 velocity=63 time=0.11298075416666667
EXTRACT: note_off channel=0 note=68 velocity=63 time=0
EXTRACT: note_off channel=0 note=65 velocity=63 time=0
EXTRACT: note_off channel=0 note=60 velocity=63 time=0
EXTRACT: note_off channel=0 note=53 velocity=63 time=0
EXTRACT: note_on channel=0 note=64 velocity=63 time=0
EXTRACT: note_on channel=0 note=59 velocity=63 time=0
EXTRACT: note_on channel=0 note=55 velocity=63 time=0
EXTRACT: note_on channel=0 note=50 velocity=63 time=0
EXTRACT: note_on channel=0 note=45 velocity=63 time=0
EXTRACT: note_on channel=2 note=46 velocity=79 time=0
EXTRACT: note_off channel=0 note=64 velocity=63 time=0.031249995833333332
EXTRACT: note_off channel=0 note=59 velocity=63 time=0
EXTRACT: note_off channel=0 note=55 velocity=63 time=0
EXTRACT: note_off channel=0 note=50 velocity=63 time=0
EXTRACT: note_off channel=0 note=45 velocity=63 time=0
EXTRACT: note_on channel=0 note=64 velocity=63 time=0.11298075416666667
EXTRACT: note_on channel=0 note=59 velocity=63 time=0
EXTRACT: note_on channel=0 note=55 velocity=63 time=0
EXTRACT: note_on channel=0 note=50 velocity=63 time=0
EXTRACT: note_on channel=0 note=45 velocity=63 time=0
EXTRACT: note_off channel=0 note=64 velocity=63 time=0.031249995833333332
EXTRACT: note_off channel=0 note=59 velocity=63 time=0
EXTRACT: note_off channel=0 note=55 velocity=63 time=0
EXTRACT: note_off channel=0 note=50 velocity=63 time=0
EXTRACT: note_off channel=0 note=45 velocity=63 time=0
EXTRACT: note_on channel=0 note=72 velocity=63 time=0.11298075416666667
EXTRACT: note_on channel=0 note=68 velocity=63 time=0
EXTRACT: note_on channel=0 note=65 velocity=63 time=0
EXTRACT: note_on channel=0 note=60 velocity=63 time=0
EXTRACT: note_on channel=0 note=53 velocity=63 time=0
EXTRACT: note_off channel=2 note=46 velocity=79 time=0
EXTRACT: note_on channel=2 note=48 velocity=79 time=0
EXTRACT: note_off channel=0 note=72 velocity=63 time=0.14423075
EXTRACT: note_off channel=0 note=68 velocity=63 time=0
EXTRACT: note_off channel=0 note=65 velocity=63 time=0
EXTRACT: note_off channel=0 note=60 velocity=63 time=0
EXTRACT: note_off channel=0 note=53 velocity=63 time=0
EXTRACT: note_on channel=0 note=72 velocity=63 time=0
EXTRACT: note_on channel=0 note=68 velocity=63 time=0
EXTRACT: note_on channel=0 note=65 velocity=63 time=0
EXTRACT: note_on channel=0 note=60 velocity=63 time=0
EXTRACT: note_on channel=0 note=53 velocity=63 time=0
EXTRACT: note_off channel=0 note=72 velocity=63 time=0.14423075
EXTRACT: note_off channel=0 note=68 velocity=63 time=0
EXTRACT: note_off channel=0 note=65 velocity=63 time=0
EXTRACT: note_off channel=0 note=60 velocity=63 time=0
EXTRACT: note_off channel=0 note=53 velocity=63 time=0
EXTRACT: note_on channel=0 note=64 velocity=63 time=0
EXTRACT: note_on channel=0 note=59 velocity=63 time=0
EXTRACT: note_on channel=0 note=55 velocity=63 time=0
EXTRACT: note_on channel=0 note=50 velocity=63 time=0
EXTRACT: note_on channel=0 note=45 velocity=63 time=0
EXTRACT: note_off channel=2 note=48 velocity=79 time=0
EXTRACT: note_on channel=2 note=51 velocity=79 time=0
EXTRACT: note_off channel=0 note=64 velocity=63 time=0.031249995833333332
EXTRACT: note_off channel=0 note=59 velocity=63 time=0
EXTRACT: note_off channel=0 note=55 velocity=63 time=0
EXTRACT: note_off channel=0 note=50 velocity=63 time=0
EXTRACT: note_off channel=0 note=45 velocity=63 time=0
EXTRACT: note_on channel=0 note=64 velocity=63 time=0.11298075416666667
EXTRACT: note_on channel=0 note=59 velocity=63 time=0
EXTRACT: note_on channel=0 note=55 velocity=63 time=0
EXTRACT: note_on channel=0 note=50 velocity=63 time=0
EXTRACT: note_on channel=0 note=45 velocity=63 time=0
EXTRACT: note_off channel=0 note=64 velocity=63 time=0.031249995833333332
EXTRACT: note_off channel=0 note=59 velocity=63 time=0
EXTRACT: note_off channel=0 note=55 velocity=63 time=0
EXTRACT: note_off channel=0 note=50 velocity=63 time=0
EXTRACT: note_off channel=0 note=45 velocity=63 time=0
EXTRACT: note_on channel=0 note=72 velocity=63 time=0.11298075416666667
EXTRACT: note_on channel=0 note=68 velocity=63 time=0
EXTRACT: note_on channel=0 note=65 velocity=63 time=0
EXTRACT: note_on channel=0 note=60 velocity=63 time=0
EXTRACT: note_on channel=0 note=53 velocity=63 time=0
EXTRACT: note_off channel=2 note=51 velocity=79 time=0
EXTRACT: note_on channel=2 note=53 velocity=79 time=0
EXTRACT: note_on channel=4 note=70 velocity=95 time=0
EXTRACT: note_off channel=0 note=72 velocity=63 time=0.14423075
EXTRACT: note_off channel=0 note=68 velocity=63 time=0
EXTRACT: note_off channel=0 note=65 velocity=63 time=0
EXTRACT: note_off channel=0 note=60 velocity=63 time=0
EXTRACT: note_off channel=0 note=53 velocity=63 time=0
EXTRACT: note_on channel=0 note=72 velocity=63 time=0
EXTRACT: note_on channel=0 note=68 velocity=63 time=0
EXTRACT: note_on channel=0 note=65 velocity=63 time=0
EXTRACT: note_on channel=0 note=60 velocity=63 time=0
EXTRACT: note_on channel=0 note=53 velocity=63 time=0
EXTRACT: note_off channel=4 note=70 velocity=95 time=0
EXTRACT: note_on channel=4 note=72 velocity=95 time=0
EXTRACT: note_off channel=0 note=72 velocity=63 time=0.14423075
EXTRACT: note_off channel=0 note=68 velocity=63 time=0
EXTRACT: note_off channel=0 note=65 velocity=63 time=0
EXTRACT: note_off channel=0 note=60 velocity=63 time=0
EXTRACT: note_off channel=0 note=53 velocity=63 time=0
EXTRACT: note_on channel=0 note=64 velocity=63 time=0
EXTRACT: note_on channel=0 note=59 velocity=63 time=0
EXTRACT: note_on channel=0 note=55 velocity=63 time=0
EXTRACT: note_on channel=0 note=50 velocity=63 time=0
EXTRACT: note_on channel=0 note=45 velocity=63 time=0
EXTRACT: note_off channel=2 note=53 velocity=79 time=0
EXTRACT: note_on channel=2 note=56 velocity=79 time=0
EXTRACT: note_off channel=0 note=64 velocity=63 time=0.031249995833333332
EXTRACT: note_off channel=0 note=59 velocity=63 time=0
EXTRACT: note_off channel=0 note=55 velocity=63 time=0
EXTRACT: note_off channel=0 note=50 velocity=63 time=0
EXTRACT: note_off channel=0 note=45 velocity=63 time=0
EXTRACT: note_on channel=0 note=64 velocity=63 time=0.11298075416666667
EXTRACT: note_on channel=0 note=59 velocity=63 time=0
EXTRACT: note_on channel=0 note=55 velocity=63 time=0
EXTRACT: note_on channel=0 note=50 velocity=63 time=0
EXTRACT: note_on channel=0 note=45 velocity=63 time=0
EXTRACT: note_off channel=4 note=72 velocity=95 time=0
EXTRACT: note_on channel=4 note=75 velocity=95 time=0
EXTRACT: note_off channel=0 note=64 velocity=63 time=0.031249995833333332
EXTRACT: note_off channel=0 note=59 velocity=63 time=0
EXTRACT: note_off channel=0 note=55 velocity=63 time=0
EXTRACT: note_off channel=0 note=50 velocity=63 time=0
EXTRACT: note_off channel=0 note=45 velocity=63 time=0
EXTRACT: note_on channel=0 note=72 velocity=63 time=0.11298075416666667
EXTRACT: note_on channel=0 note=68 velocity=63 time=0
EXTRACT: note_on channel=0 note=65 velocity=63 time=0
EXTRACT: note_on channel=0 note=60 velocity=63 time=0
EXTRACT: note_on channel=0 note=53 velocity=63 time=0
EXTRACT: note_off channel=2 note=56 velocity=79 time=0
EXTRACT: note_on channel=2 note=51 velocity=79 time=0
EXTRACT: note_off channel=0 note=72 velocity=63 time=0.14423075
EXTRACT: note_off channel=0 note=68 velocity=63 time=0
EXTRACT: note_off channel=0 note=65 velocity=63 time=0
EXTRACT: note_off channel=0 note=60 velocity=63 time=0
EXTRACT: note_off channel=0 note=53 velocity=63 time=0
EXTRACT: note_on channel=0 note=72 velocity=63 time=0
EXTRACT: note_on channel=0 note=68 velocity=63 time=0
EXTRACT: note_on channel=0 note=65 velocity=63 time=0
EXTRACT: note_on channel=0 note=60 velocity=63 time=0
EXTRACT: note_on channel=0 note=53 velocity=63 time=0
EXTRACT: note_off channel=2 note=51 velocity=79 time=0
EXTRACT: note_on channel=2 note=53 velocity=54 time=0
EXTRACT: note_off channel=0 note=72 velocity=63 time=0.14423075
EXTRACT: note_off channel=0 note=68 velocity=63 time=0
EXTRACT: note_off channel=0 note=65 velocity=63 time=0
EXTRACT: note_off channel=0 note=60 velocity=63 time=0
EXTRACT: note_off channel=0 note=53 velocity=63 time=0
EXTRACT: note_on channel=0 note=64 velocity=63 time=0
EXTRACT: note_on channel=0 note=59 velocity=63 time=0
EXTRACT: note_on channel=0 note=55 velocity=63 time=0
EXTRACT: note_on channel=0 note=50 velocity=63 time=0
EXTRACT: note_on channel=0 note=45 velocity=63 time=0
EXTRACT: note_off channel=4 note=75 velocity=95 time=0
EXTRACT: note_on channel=4 note=70 velocity=95 time=0
EXTRACT: note_off channel=0 note=64 velocity=63 time=0.031249995833333332
EXTRACT: note_off channel=0 note=59 velocity=63 time=0
EXTRACT: note_off channel=0 note=55 velocity=63 time=0
EXTRACT: note_off channel=0 note=50 velocity=63 time=0
EXTRACT: note_off channel=0 note=45 velocity=63 time=0
EXTRACT: note_on channel=0 note=64 velocity=63 time=0.11298075416666667
EXTRACT: note_on channel=0 note=59 velocity=63 time=0
EXTRACT: note_on channel=0 note=55 velocity=63 time=0
EXTRACT: note_on channel=0 note=50 velocity=63 time=0
EXTRACT: note_on channel=0 note=45 velocity=63 time=0
EXTRACT: note_off channel=2 note=53 velocity=54 time=0
EXTRACT: note_on channel=2 note=56 velocity=79 time=0
EXTRACT: note_off channel=4 note=70 velocity=95 time=0
EXTRACT: note_on channel=4 note=70 velocity=95 time=0
EXTRACT: note_off channel=0 note=64 velocity=63 time=0.031249995833333332
EXTRACT: note_off channel=0 note=59 velocity=63 time=0
EXTRACT: note_off channel=0 note=55 velocity=63 time=0
EXTRACT: note_off channel=0 note=50 velocity=63 time=0
EXTRACT: note_off channel=0 note=45 velocity=63 time=0
EXTRACT: note_on channel=0 note=72 velocity=63 time=0.11298075416666667
EXTRACT: note_on channel=0 note=68 velocity=63 time=0
EXTRACT: note_on channel=0 note=65 velocity=63 time=0
EXTRACT: note_on channel=0 note=60 velocity=63 time=0
EXTRACT: note_on channel=0 note=53 velocity=63 time=0
EXTRACT: note_off channel=2 note=56 velocity=79 time=0
EXTRACT: note_off channel=4 note=70 velocity=95 time=0
EXTRACT: note_on channel=4 note=72 velocity=95 time=0
EXTRACT: note_off channel=0 note=72 velocity=63 time=0.14423075
EXTRACT: note_off channel=0 note=68 velocity=63 time=0
EXTRACT: note_off channel=0 note=65 velocity=63 time=0
EXTRACT: note_off channel=0 note=60 velocity=63 time=0
EXTRACT: note_off channel=0 note=53 velocity=63 time=0
EXTRACT: note_on channel=0 note=72 velocity=63 time=0
EXTRACT: note_on channel=0 note=68 velocity=63 time=0
EXTRACT: note_on channel=0 note=65 velocity=63 time=0
EXTRACT: note_on channel=0 note=60 velocity=63 time=0
EXTRACT: note_on channel=0 note=53 velocity=63 time=0
EXTRACT: note_off channel=4 note=72 velocity=95 time=0
EXTRACT: note_on channel=4 note=70 velocity=95 time=0
EXTRACT: note_off channel=0 note=72 velocity=63 time=0.14423075
EXTRACT: note_off channel=0 note=68 velocity=63 time=0
EXTRACT: note_off channel=0 note=65 velocity=63 time=0
EXTRACT: note_off channel=0 note=60 velocity=63 time=0
EXTRACT: note_off channel=0 note=53 velocity=63 time=0
EXTRACT: note_on channel=0 note=64 velocity=63 time=0
EXTRACT: note_on channel=0 note=59 velocity=63 time=0
EXTRACT: note_on channel=0 note=55 velocity=63 time=0
EXTRACT: note_on channel=0 note=50 velocity=63 time=0
EXTRACT: note_on channel=0 note=45 velocity=63 time=0
EXTRACT: note_on channel=2 note=51 velocity=79 time=0
EXTRACT: note_off channel=4 note=70 velocity=95 time=0
EXTRACT: note_on channel=4 note=68 velocity=95 time=0
EXTRACT: note_off channel=0 note=64 velocity=63 time=0.031249995833333332
EXTRACT: note_off channel=0 note=59 velocity=63 time=0
EXTRACT: note_off channel=0 note=55 velocity=63 time=0
EXTRACT: note_off channel=0 note=50 velocity=63 time=0
EXTRACT: note_off channel=0 note=45 velocity=63 time=0
EXTRACT: note_on channel=0 note=64 velocity=63 time=0.11298075416666667
EXTRACT: note_on channel=0 note=59 velocity=63 time=0
EXTRACT: note_on channel=0 note=55 velocity=63 time=0
EXTRACT: note_on channel=0 note=50 velocity=63 time=0
EXTRACT: note_on channel=0 note=45 velocity=63 time=0
EXTRACT: note_off channel=4 note=68 velocity=95 time=0
EXTRACT: note_on channel=4 note=70 velocity=95 time=0
EXTRACT: note_off channel=0 note=64 velocity=63 time=0.031249995833333332
EXTRACT: note_off channel=0 note=59 velocity=63 time=0
EXTRACT: note_off channel=0 note=55 velocity=63 time=0
EXTRACT: note_off channel=0 note=50 velocity=63 time=0
EXTRACT: note_off channel=0 note=45 velocity=63 time=0
EXTRACT: note_on channel=0 note=72 velocity=63 time=0.11298075416666667
EXTRACT: note_on channel=0 note=68 velocity=63 time=0
EXTRACT: note_on channel=0 note=65 velocity=63 time=0
EXTRACT: note_on channel=0 note=60 velocity=63 time=0
EXTRACT: note_on channel=0 note=53 velocity=63 time=0
EXTRACT: note_off channel=2 note=51 velocity=79 time=0
EXTRACT: note_off channel=0 note=72 velocity=63 time=0.14423075
EXTRACT: note_off channel=0 note=68 velocity=63 time=0
EXTRACT: note_off channel=0 note=65 velocity=63 time=0
EXTRACT: note_off channel=0 note=60 velocity=63 time=0
EXTRACT: note_off channel=0 note=53 velocity=63 time=0
EXTRACT: note_on channel=0 note=72 velocity=63 time=0
EXTRACT: note_on channel=0 note=68 velocity=63 time=0
EXTRACT: note_on channel=0 note=65 velocity=63 time=0
EXTRACT: note_on channel=0 note=60 velocity=63 time=0
EXTRACT: note_on channel=0 note=53 velocity=63 time=0
EXTRACT: note_off channel=4 note=70 velocity=95 time=0
EXTRACT: note_on channel=4 note=70 velocity=95 time=0
EXTRACT: note_off channel=0 note=72 velocity=63 time=0.14423075
EXTRACT: note_off channel=0 note=68 velocity=63 time=0
EXTRACT: note_off channel=0 note=65 velocity=63 time=0
EXTRACT: note_off channel=0 note=60 velocity=63 time=0
EXTRACT: note_off channel=0 note=53 velocity=63 time=0
EXTRACT: note_on channel=0 note=64 velocity=63 time=0
EXTRACT: note_on channel=0 note=59 velocity=63 time=0
EXTRACT: note_on channel=0 note=55 velocity=63 time=0
EXTRACT: note_on channel=0 note=50 velocity=63 time=0
EXTRACT: note_on channel=0 note=45 velocity=63 time=0
EXTRACT: note_on channel=2 note=48 velocity=79 time=0
EXTRACT: note_off channel=0 note=64 velocity=63 time=0.031249995833333332
EXTRACT: note_off channel=0 note=59 velocity=63 time=0
EXTRACT: note_off channel=0 note=55 velocity=63 time=0
EXTRACT: note_off channel=0 note=50 velocity=63 time=0
EXTRACT: note_off channel=0 note=45 velocity=63 time=0
EXTRACT: note_on channel=0 note=64 velocity=63 time=0.11298075416666667
EXTRACT: note_on channel=0 note=59 velocity=63 time=0
EXTRACT: note_on channel=0 note=55 velocity=63 time=0
EXTRACT: note_on channel=0 note=50 velocity=63 time=0
EXTRACT: note_on channel=0 note=45 velocity=63 time=0
EXTRACT: note_off channel=4 note=70 velocity=95 time=0
EXTRACT: note_on channel=4 note=72 velocity=95 time=0
EXTRACT: note_off channel=0 note=64 velocity=63 time=0.031249995833333332
EXTRACT: note_off channel=0 note=59 velocity=63 time=0
EXTRACT: note_off channel=0 note=55 velocity=63 time=0
EXTRACT: note_off channel=0 note=50 velocity=63 time=0
EXTRACT: note_off channel=0 note=45 velocity=63 time=0
EXTRACT: note_on channel=0 note=72 velocity=63 time=0.11298075416666667
EXTRACT: note_on channel=0 note=68 velocity=63 time=0
EXTRACT: note_on channel=0 note=65 velocity=63 time=0
EXTRACT: note_on channel=0 note=60 velocity=63 time=0
EXTRACT: note_on channel=0 note=53 velocity=63 time=0
EXTRACT: note_off channel=2 note=48 velocity=79 time=0
EXTRACT: note_on channel=2 note=46 velocity=79 time=0
EXTRACT: note_off channel=0 note=72 velocity=63 time=0.14423075
EXTRACT: note_off channel=0 note=68 velocity=63 time=0
EXTRACT: note_off channel=0 note=65 velocity=63 time=0
EXTRACT: note_off channel=0 note=60 velocity=63 time=0
EXTRACT: note_off channel=0 note=53 velocity=63 time=0
EXTRACT: note_on channel=0 note=72 velocity=63 time=0
EXTRACT: note_on channel=0 note=68 velocity=63 time=0
EXTRACT: note_on channel=0 note=65 velocity=63 time=0
EXTRACT: note_on channel=0 note=60 velocity=63 time=0
EXTRACT: note_on channel=0 note=53 velocity=63 time=0
EXTRACT: note_off channel=2 note=46 velocity=79 time=0
EXTRACT: note_on channel=2 note=48 velocity=54 time=0
EXTRACT: note_off channel=4 note=72 velocity=95 time=0
EXTRACT: note_on channel=4 note=65 velocity=95 time=0
EXTRACT: note_off channel=0 note=72 velocity=63 time=0.14423075
EXTRACT: note_off channel=0 note=68 velocity=63 time=0
EXTRACT: note_off channel=0 note=65 velocity=63 time=0
EXTRACT: note_off channel=0 note=60 velocity=63 time=0
EXTRACT: note_off channel=0 note=53 velocity=63 time=0
EXTRACT: note_on channel=0 note=64 velocity=63 time=0
EXTRACT: note_on channel=0 note=59 velocity=63 time=0
EXTRACT: note_on channel=0 note=55 velocity=63 time=0
EXTRACT: note_on channel=0 note=50 velocity=63 time=0
EXTRACT: note_on channel=0 note=45 velocity=63 time=0
EXTRACT: note_off channel=2 note=48 velocity=54 time=0
EXTRACT: note_on channel=2 note=51 velocity=79 time=0
EXTRACT: note_off channel=4 note=65 velocity=95 time=0
EXTRACT: note_on channel=4 note=65 velocity=95 time=0
EXTRACT: note_off channel=0 note=64 velocity=63 time=0.031249995833333332
EXTRACT: note_off channel=0 note=59 velocity=63 time=0
EXTRACT: note_off channel=0 note=55 velocity=63 time=0
EXTRACT: note_off channel=0 note=50 velocity=63 time=0
EXTRACT: note_off channel=0 note=45 velocity=63 time=0
EXTRACT: note_on channel=0 note=64 velocity=63 time=0.11298075416666667
EXTRACT: note_on channel=0 note=59 velocity=63 time=0
EXTRACT: note_on channel=0 note=55 velocity=63 time=0
EXTRACT: note_on channel=0 note=50 velocity=63 time=0
EXTRACT: note_on channel=0 note=45 velocity=63 time=0
EXTRACT: note_off channel=4 note=65 velocity=95 time=0
EXTRACT: note_on channel=4 note=65 velocity=95 time=0
EXTRACT: note_off channel=0 note=64 velocity=63 time=0.031249995833333332
EXTRACT: note_off channel=0 note=59 velocity=63 time=0
EXTRACT: note_off channel=0 note=55 velocity=63 time=0
EXTRACT: note_off channel=0 note=50 velocity=63 time=0
EXTRACT: note_off channel=0 note=45 velocity=63 time=0
EXTRACT: note_off channel=2 note=51 velocity=79 time=0.11298075416666667
EXTRACT: note_on channel=2 note=46 velocity=79 time=0
EXTRACT: note_off channel=4 note=65 velocity=95 time=0
EXTRACT: note_on channel=4 note=68 velocity=95 time=0
EXTRACT: note_off channel=2 note=46 velocity=79 time=0.14423075
EXTRACT: note_on channel=2 note=48 velocity=54 time=0
EXTRACT: note_on channel=0 note=75 velocity=63 time=0.14423075
EXTRACT: note_on channel=0 note=70 velocity=63 time=0
EXTRACT: note_on channel=0 note=67 velocity=63 time=0
EXTRACT: note_on channel=0 note=63 velocity=63 time=0
EXTRACT: note_off channel=2 note=48 velocity=54 time=0
EXTRACT: note_on channel=2 note=51 velocity=79 time=0
EXTRACT: note_off channel=4 note=68 velocity=95 time=0
EXTRACT: note_on channel=4 note=68 velocity=95 time=0
EXTRACT: note_off channel=0 note=75 velocity=63 time=0.14423075
EXTRACT: note_off channel=0 note=70 velocity=63 time=0
EXTRACT: note_off channel=0 note=67 velocity=63 time=0
EXTRACT: note_off channel=0 note=63 velocity=63 time=0
EXTRACT: note_on channel=0 note=75 velocity=63 time=0
EXTRACT: note_on channel=0 note=70 velocity=63 time=0
EXTRACT: note_on channel=0 note=67 velocity=63 time=0
EXTRACT: note_on channel=0 note=63 velocity=63 time=0
EXTRACT: note_off channel=4 note=68 velocity=95 time=0
EXTRACT: note_on channel=4 note=70 velocity=95 time=0
EXTRACT: note_off channel=0 note=75 velocity=63 time=0.14423075
EXTRACT: note_off channel=0 note=70 velocity=63 time=0
EXTRACT: note_off channel=0 note=67 velocity=63 time=0
EXTRACT: note_off channel=0 note=63 velocity=63 time=0
EXTRACT: note_on channel=0 note=75 velocity=63 time=0
EXTRACT: note_on channel=0 note=70 velocity=63 time=0
EXTRACT: note_on channel=0 note=67 velocity=63 time=0
EXTRACT: note_on channel=0 note=63 velocity=63 time=0
EXTRACT: note_off channel=2 note=51 velocity=79 time=0
EXTRACT: note_off channel=4 note=70 velocity=95 time=0
EXTRACT: note_on channel=4 note=70 velocity=95 time=0
EXTRACT: note_off channel=0 note=75 velocity=63 time=0.14423075
EXTRACT: note_off channel=0 note=70 velocity=63 time=0
EXTRACT: note_off channel=0 note=67 velocity=63 time=0
EXTRACT: note_off channel=0 note=63 velocity=63 time=0
EXTRACT: note_on channel=0 note=75 velocity=63 time=0
EXTRACT: note_on channel=0 note=70 velocity=63 time=0
EXTRACT: note_on channel=0 note=67 velocity=63 time=0
EXTRACT: note_on channel=0 note=63 velocity=63 time=0
EXTRACT: note_on channel=2 note=45 velocity=79 time=0
EXTRACT: note_off channel=4 note=70 velocity=95 time=0
EXTRACT: note_off channel=2 note=45 velocity=79 time=0.031249995833333332
EXTRACT: note_off channel=0 note=75 velocity=63 time=0.11298075416666667
EXTRACT: note_off channel=0 note=70 velocity=63 time=0
EXTRACT: note_off channel=0 note=67 velocity=63 time=0
EXTRACT: note_off channel=0 note=63 velocity=63 time=0
EXTRACT: note_on channel=0 note=64 velocity=63 time=0
EXTRACT: note_on channel=0 note=59 velocity=63 time=0
EXTRACT: note_on channel=0 note=55 velocity=63 time=0
EXTRACT: note_on channel=0 note=50 velocity=63 time=0
EXTRACT: note_on channel=2 note=46 velocity=79 time=0
EXTRACT: note_off channel=0 note=64 velocity=63 time=0.031249995833333332
EXTRACT: note_off channel=0 note=59 velocity=63 time=0
EXTRACT: note_off channel=0 note=55 velocity=63 time=0
EXTRACT: note_off channel=0 note=50 velocity=63 time=0
EXTRACT: note_on channel=0 note=64 velocity=63 time=0.11298075416666667
EXTRACT: note_on channel=0 note=59 velocity=63 time=0
EXTRACT: note_on channel=0 note=55 velocity=63 time=0
EXTRACT: note_on channel=0 note=50 velocity=63 time=0
EXTRACT: note_on channel=4 note=63 velocity=95 time=0
EXTRACT: note_off channel=0 note=64 velocity=63 time=0.031249995833333332
EXTRACT: note_off channel=0 note=59 velocity=63 time=0
EXTRACT: note_off channel=0 note=55 velocity=63 time=0
EXTRACT: note_off channel=0 note=50 velocity=63 time=0
EXTRACT: note_off channel=2 note=46 velocity=79 time=0.11298075416666667
EXTRACT: note_on channel=2 note=48 velocity=79 time=0
EXTRACT: note_off channel=4 note=63 velocity=95 time=0
EXTRACT: note_on channel=4 note=65 velocity=95 time=0
EXTRACT: note_off channel=4 note=65 velocity=95 time=0.14423075
EXTRACT: note_on channel=4 note=65 velocity=95 time=0
EXTRACT: note_on channel=0 note=72 velocity=63 time=0.14423075
EXTRACT: note_on channel=0 note=68 velocity=63 time=0
EXTRACT: note_on channel=0 note=65 velocity=63 time=0
EXTRACT: note_on channel=0 note=60 velocity=63 time=0
EXTRACT: note_on channel=0 note=53 velocity=63 time=0
EXTRACT: note_off channel=2 note=48 velocity=79 time=0
EXTRACT: note_on channel=2 note=51 velocity=79 time=0
EXTRACT: note_off channel=4 note=65 velocity=95 time=0
EXTRACT: note_on channel=4 note=65 velocity=95 time=0
EXTRACT: note_off channel=0 note=72 velocity=63 time=0.14423075
EXTRACT: note_off channel=0 note=68 velocity=63 time=0
EXTRACT: note_off channel=0 note=65 velocity=63 time=0
EXTRACT: note_off channel=0 note=60 velocity=63 time=0
EXTRACT: note_off channel=0 note=53 velocity=63 time=0
EXTRACT: note_on channel=0 note=72 velocity=63 time=0
EXTRACT: note_on channel=0 note=68 velocity=63 time=0
EXTRACT: note_on channel=0 note=65 velocity=63 time=0
EXTRACT: note_on channel=0 note=60 velocity=63 time=0
EXTRACT: note_on channel=0 note=53 velocity=63 time=0
EXTRACT: note_off channel=0 note=72 velocity=63 time=0.14423075
EXTRACT: note_off channel=0 note=68 velocity=63 time=0
EXTRACT: note_off channel=0 note=65 velocity=63 time=0
EXTRACT: note_off channel=0 note=60 velocity=63 time=0
EXTRACT: note_off channel=0 note=53 velocity=63 time=0
EXTRACT: note_on channel=0 note=72 velocity=63 time=0
EXTRACT: note_on channel=0 note=68 velocity=63 time=0
EXTRACT: note_on channel=0 note=65 velocity=63 time=0
EXTRACT: note_on channel=0 note=60 velocity=63 time=0
EXTRACT: note_on channel=0 note=53 velocity=63 time=0
EXTRACT: note_off channel=2 note=51 velocity=79 time=0
EXTRACT: note_on channel=2 note=53 velocity=79 time=0
EXTRACT: note_off channel=4 note=65 velocity=95 time=0
EXTRACT: note_off channel=0 note=72 velocity=63 time=0.14423075
EXTRACT: note_off channel=0 note=68 velocity=63 time=0
EXTRACT: note_off channel=0 note=65 velocity=63 time=0
EXTRACT: note_off channel=0 note=60 velocity=63 time=0
EXTRACT: note_off channel=0 note=53 velocity=63 time=0
EXTRACT: note_on channel=0 note=72 velocity=63 time=0
EXTRACT: note_on channel=0 note=68 velocity=63 time=0
EXTRACT: note_on channel=0 note=65 velocity=63 time=0
EXTRACT: note_on channel=0 note=60 velocity=63 time=0
EXTRACT: note_on channel=0 note=53 velocity=63 time=0
EXTRACT: note_off channel=0 note=72 velocity=63 time=0.14423075
EXTRACT: note_off channel=0 note=68 velocity=63 time=0
EXTRACT: note_off channel=0 note=65 velocity=63 time=0
EXTRACT: note_off channel=0 note=60 velocity=63 time=0
EXTRACT: note_off channel=0 note=53 velocity=63 time=0
EXTRACT: note_on channel=0 note=64 velocity=63 time=0
EXTRACT: note_on channel=0 note=59 velocity=63 time=0
EXTRACT: note_on channel=0 note=55 velocity=63 time=0
EXTRACT: note_on channel=0 note=50 velocity=63 time=0
EXTRACT: note_on channel=0 note=45 velocity=63 time=0
EXTRACT: note_on channel=0 note=40 velocity=63 time=0
EXTRACT: note_off channel=2 note=53 velocity=79 time=0
EXTRACT: note_on channel=2 note=56 velocity=79 time=0
EXTRACT: note_on channel=4 note=72 velocity=95 time=0
EXTRACT: note_off channel=0 note=64 velocity=63 time=0.031249995833333332
EXTRACT: note_off channel=0 note=59 velocity=63 time=0
EXTRACT: note_off channel=0 note=55 velocity=63 time=0
EXTRACT: note_off channel=0 note=50 velocity=63 time=0
EXTRACT: note_off channel=0 note=45 velocity=63 time=0
EXTRACT: note_off channel=0 note=40 velocity=63 time=0
EXTRACT: note_on channel=0 note=64 velocity=63 time=0.11298075416666667
EXTRACT: note_on channel=0 note=59 velocity=63 time=0
EXTRACT: note_on channel=0 note=55 velocity=63 time=0
EXTRACT: note_on channel=0 note=50 velocity=63 time=0
EXTRACT: note_on channel=0 note=45 velocity=63 time=0
EXTRACT: note_on channel=0 note=40 velocity=63 time=0
EXTRACT: note_off channel=4 note=72 velocity=95 time=0
EXTRACT: note_on channel=4 note=72 velocity=95 time=0
EXTRACT: note_off channel=0 note=64 velocity=63 time=0.031249995833333332
EXTRACT: note_off channel=0 note=59 velocity=63 time=0
EXTRACT: note_off channel=0 note=55 velocity=63 time=0
EXTRACT: note_off channel=0 note=50 velocity=63 time=0
EXTRACT: note_off channel=0 note=45 velocity=63 time=0
EXTRACT: note_off channel=0 note=40 velocity=63 time=0
EXTRACT: note_on channel=0 note=72 velocity=63 time=0.11298075416666667
EXTRACT: note_on channel=0 note=68 velocity=63 time=0
EXTRACT: note_on channel=0 note=65 velocity=63 time=0
EXTRACT: note_on channel=0 note=60 velocity=63 time=0
EXTRACT: note_on channel=0 note=53 velocity=63 time=0
EXTRACT: note_off channel=2 note=56 velocity=79 time=0
EXTRACT: note_on channel=2 note=51 velocity=79 time=0
EXTRACT: note_off channel=4 note=72 velocity=95 time=0
EXTRACT: note_on channel=4 note=75 velocity=95 time=0
EXTRACT: note_off channel=0 note=72 velocity=63 time=0.14423075
EXTRACT: note_off channel=0 note=68 velocity=63 time=0
EXTRACT: note_off channel=0 note=65 velocity=63 time=0
EXTRACT: note_off channel=0 note=60 velocity=63 time=0
EXTRACT: note_off channel=0 note=53 velocity=63 time=0
EXTRACT: note_on channel=0 note=72 velocity=63 time=0
EXTRACT: note_on channel=0 note=68 velocity=63 time=0
EXTRACT: note_on channel=0 note=65 velocity=63 time=0
EXTRACT: note_on channel=0 note=60 velocity=63 time=0
EXTRACT: note_on channel=0 note=53 velocity=63 time=0
EXTRACT: note_off channel=2 note=51 velocity=79 time=0
EXTRACT: note_on channel=2 note=53 velocity=54 time=0
EXTRACT: note_off channel=4 note=75 velocity=95 time=0
EXTRACT: note_on channel=4 note=72 velocity=95 time=0
EXTRACT: note_off channel=0 note=72 velocity=63 time=0.14423075
EXTRACT: note_off channel=0 note=68 velocity=63 time=0
EXTRACT: note_off channel=0 note=65 velocity=63 time=0
EXTRACT: note_off channel=0 note=60 velocity=63 time=0
EXTRACT: note_off channel=0 note=53 velocity=63 time=0
EXTRACT: note_on channel=0 note=64 velocity=63 time=0
EXTRACT: note_on channel=0 note=59 velocity=63 time=0
EXTRACT: note_on channel=0 note=55 velocity=63 time=0
EXTRACT: note_on channel=0 note=50 velocity=63 time=0
EXTRACT: note_on channel=0 note=45 velocity=63 time=0
EXTRACT: note_off channel=0 note=64 velocity=63 time=0.031249995833333332
EXTRACT: note_off channel=0 note=59 velocity=63 time=0
EXTRACT: note_off channel=0 note=55 velocity=63 time=0
EXTRACT: note_off channel=0 note=50 velocity=63 time=0
EXTRACT: note_off channel=0 note=45 velocity=63 time=0
EXTRACT: note_on channel=0 note=64 velocity=63 time=0.11298075416666667
EXTRACT: note_on channel=0 note=59 velocity=63 time=0
EXTRACT: note_on channel=0 note=55 velocity=63 time=0
EXTRACT: note_on channel=0 note=50 velocity=63 time=0
EXTRACT: note_on channel=0 note=45 velocity=63 time=0
EXTRACT: note_off channel=2 note=53 velocity=54 time=0
EXTRACT: note_on channel=2 note=56 velocity=79 time=0
EXTRACT: note_off channel=4 note=72 velocity=95 time=0
EXTRACT: note_on channel=4 note=72 velocity=95 time=0
EXTRACT: note_off channel=0 note=64 velocity=63 time=0.031249995833333332
EXTRACT: note_off channel=0 note=59 velocity=63 time=0
EXTRACT: note_off channel=0 note=55 velocity=63 time=0
EXTRACT: note_off channel=0 note=50 velocity=63 time=0
EXTRACT: note_off channel=0 note=45 velocity=63 time=0
EXTRACT: note_on channel=0 note=72 velocity=63 time=0.11298075416666667
EXTRACT: note_on channel=0 note=68 velocity=63 time=0
EXTRACT: note_on channel=0 note=65 velocity=63 time=0
EXTRACT: note_on channel=0 note=60 velocity=63 time=0
EXTRACT: note_on channel=0 note=53 velocity=63 time=0
EXTRACT: note_off channel=2 note=56 velocity=79 time=0
EXTRACT: note_off channel=0 note=72 velocity=63 time=0.14423075
EXTRACT: note_off channel=0 note=68 velocity=63 time=0
EXTRACT: note_off channel=0 note=65 velocity=63 time=0
EXTRACT: note_off channel=0 note=60 velocity=63 time=0
EXTRACT: note_off channel=0 note=53 velocity=63 time=0
EXTRACT: note_on channel=0 note=72 velocity=63 time=0
EXTRACT: note_on channel=0 note=68 velocity=63 time=0
EXTRACT: note_on channel=0 note=65 velocity=63 time=0
EXTRACT: note_on channel=0 note=60 velocity=63 time=0
EXTRACT: note_on channel=0 note=53 velocity=63 time=0
EXTRACT: note_off channel=4 note=72 velocity=95 time=0
EXTRACT: note_on channel=4 note=68 velocity=95 time=0
EXTRACT: note_off channel=0 note=72 velocity=63 time=0.14423075
EXTRACT: note_off channel=0 note=68 velocity=63 time=0
EXTRACT: note_off channel=0 note=65 velocity=63 time=0
EXTRACT: note_off channel=0 note=60 velocity=63 time=0
EXTRACT: note_off channel=0 note=53 velocity=63 time=0
EXTRACT: note_on channel=0 note=64 velocity=63 time=0
EXTRACT: note_on channel=0 note=59 velocity=63 time=0
EXTRACT: note_on channel=0 note=55 velocity=63 time=0
EXTRACT: note_on channel=0 note=50 velocity=63 time=0
EXTRACT: note_on channel=0 note=45 velocity=63 time=0
EXTRACT: note_on channel=2 note=51 velocity=79 time=0
EXTRACT: note_off channel=0 note=64 velocity=63 time=0.031249995833333332
EXTRACT: note_off channel=0 note=59 velocity=63 time=0
EXTRACT: note_off channel=0 note=55 velocity=63 time=0
EXTRACT: note_off channel=0 note=50 velocity=63 time=0
EXTRACT: note_off channel=0 note=45 velocity=63 time=0
EXTRACT: note_on channel=0 note=64 velocity=63 time=0.11298075416666667
EXTRACT: note_on channel=0 note=59 velocity=63 time=0
EXTRACT: note_on channel=0 note=55 velocity=63 time=0
EXTRACT: note_on channel=0 note=50 velocity=63 time=0
EXTRACT: note_on channel=0 note=45 velocity=63 time=0
EXTRACT: note_off channel=4 note=68 velocity=95 time=0
EXTRACT: note_on channel=4 note=70 velocity=95 time=0
EXTRACT: note_off channel=0 note=64 velocity=63 time=0.031249995833333332
EXTRACT: note_off channel=0 note=59 velocity=63 time=0
EXTRACT: note_off channel=0 note=55 velocity=63 time=0
EXTRACT: note_off channel=0 note=50 velocity=63 time=0
EXTRACT: note_off channel=0 note=45 velocity=63 time=0
EXTRACT: note_on channel=0 note=72 velocity=63 time=0.11298075416666667
EXTRACT: note_on channel=0 note=68 velocity=63 time=0
EXTRACT: note_on channel=0 note=65 velocity=63 time=0
EXTRACT: note_on channel=0 note=60 velocity=63 time=0
EXTRACT: note_on channel=0 note=53 velocity=63 time=0
EXTRACT: note_off channel=2 note=51 velocity=79 time=0
EXTRACT: note_off channel=0 note=72 velocity=63 time=0.14423075
EXTRACT: note_off channel=0 note=68 velocity=63 time=0
EXTRACT: note_off channel=0 note=65 velocity=63 time=0
EXTRACT: note_off channel=0 note=60 velocity=63 time=0
EXTRACT: note_off channel=0 note=53 velocity=63 time=0
EXTRACT: note_on channel=0 note=72 velocity=63 time=0
EXTRACT: note_on channel=0 note=68 velocity=63 time=0
EXTRACT: note_on channel=0 note=65 velocity=63 time=0
EXTRACT: note_on channel=0 note=60 velocity=63 time=0
EXTRACT: note_on channel=0 note=53 velocity=63 time=0
EXTRACT: note_off channel=4 note=70 velocity=95 time=0
EXTRACT: note_on channel=4 note=68 velocity=95 time=0
EXTRACT: note_off channel=0 note=72 velocity=63 time=0.14423075
EXTRACT: note_off channel=0 note=68 velocity=63 time=0
EXTRACT: note_off channel=0 note=65 velocity=63 time=0
EXTRACT: note_off channel=0 note=60 velocity=63 time=0
EXTRACT: note_off channel=0 note=53 velocity=63 time=0
EXTRACT: note_on channel=0 note=64 velocity=63 time=0
EXTRACT: note_on channel=0 note=59 velocity=63 time=0
EXTRACT: note_on channel=0 note=55 velocity=63 time=0
EXTRACT: note_on channel=0 note=50 velocity=63 time=0
EXTRACT: note_on channel=0 note=45 velocity=63 time=0
EXTRACT: note_on channel=2 note=48 velocity=79 time=0
EXTRACT: note_off channel=0 note=64 velocity=63 time=0.031249995833333332
EXTRACT: note_off channel=0 note=59 velocity=63 time=0
EXTRACT: note_off channel=0 note=55 velocity=63 time=0
EXTRACT: note_off channel=0 note=50 velocity=63 time=0
EXTRACT: note_off channel=0 note=45 velocity=63 time=0
EXTRACT: note_on channel=0 note=64 velocity=63 time=0.11298075416666667
EXTRACT: note_on channel=0 note=59 velocity=63 time=0
EXTRACT: note_on channel=0 note=55 velocity=63 time=0
EXTRACT: note_on channel=0 note=50 velocity=63 time=0
EXTRACT: note_on channel=0 note=45 velocity=63 time=0
EXTRACT: note_off channel=4 note=68 velocity=95 time=0
EXTRACT: note_on channel=4 note=70 velocity=95 time=0
EXTRACT: note_off channel=0 note=64 velocity=63 time=0.031249995833333332
EXTRACT: note_off channel=0 note=59 velocity=63 time=0
EXTRACT: note_off channel=0 note=55 velocity=63 time=0
EXTRACT: note_off channel=0 note=50 velocity=63 time=0
EXTRACT: note_off channel=0 note=45 velocity=63 time=0
EXTRACT: note_on channel=0 note=72 velocity=63 time=0.11298075416666667
EXTRACT: note_on channel=0 note=68 velocity=63 time=0
EXTRACT: note_on channel=0 note=65 velocity=63 time=0
EXTRACT: note_on channel=0 note=60 velocity=63 time=0
EXTRACT: note_on channel=0 note=53 velocity=63 time=0
EXTRACT: note_off channel=2 note=48 velocity=79 time=0
EXTRACT: note_on channel=2 note=46 velocity=79 time=0
EXTRACT: note_off channel=4 note=70 velocity=95 time=0
EXTRACT: note_on channel=4 note=72 velocity=95 time=0
EXTRACT: note_off channel=0 note=72 velocity=63 time=0.14423075
EXTRACT: note_off channel=0 note=68 velocity=63 time=0
EXTRACT: note_off channel=0 note=65 velocity=63 time=0
EXTRACT: note_off channel=0 note=60 velocity=63 time=0
EXTRACT: note_off channel=0 note=53 velocity=63 time=0
EXTRACT: note_on channel=0 note=72 velocity=63 time=0
EXTRACT: note_on channel=0 note=68 velocity=63 time=0
EXTRACT: note_on channel=0 note=65 velocity=63 time=0
EXTRACT: note_on channel=0 note=60 velocity=63 time=0
EXTRACT: note_on channel=0 note=53 velocity=63 time=0
EXTRACT: note_off channel=2 note=46 velocity=79 time=0
EXTRACT: note_on channel=2 note=48 velocity=54 time=0
EXTRACT: note_off channel=4 note=72 velocity=95 time=0
EXTRACT: note_on channel=4 note=65 velocity=95 time=0
EXTRACT: note_off channel=0 note=72 velocity=63 time=0.14423075
EXTRACT: note_off channel=0 note=68 velocity=63 time=0
EXTRACT: note_off channel=0 note=65 velocity=63 time=0
EXTRACT: note_off channel=0 note=60 velocity=63 time=0
EXTRACT: note_off channel=0 note=53 velocity=63 time=0
EXTRACT: note_on channel=0 note=64 velocity=63 time=0
EXTRACT: note_on channel=0 note=59 velocity=63 time=0
EXTRACT: note_on channel=0 note=55 velocity=63 time=0
EXTRACT: note_on channel=0 note=50 velocity=63 time=0
EXTRACT: note_on channel=0 note=45 velocity=63 time=0
EXTRACT: note_off channel=2 note=48 velocity=54 time=0
EXTRACT: note_on channel=2 note=51 velocity=79 time=0
EXTRACT: note_off channel=4 note=65 velocity=95 time=0
EXTRACT: note_on channel=4 note=65 velocity=95 time=0
EXTRACT: note_off channel=0 note=64 velocity=63 time=0.031249995833333332
EXTRACT: note_off channel=0 note=59 velocity=63 time=0
EXTRACT: note_off channel=0 note=55 velocity=63 time=0
EXTRACT: note_off channel=0 note=50 velocity=63 time=0
EXTRACT: note_off channel=0 note=45 velocity=63 time=0
EXTRACT: note_on channel=0 note=64 velocity=63 time=0.11298075416666667
EXTRACT: note_on channel=0 note=59 velocity=63 time=0
EXTRACT: note_on channel=0 note=55 velocity=63 time=0
EXTRACT: note_on channel=0 note=50 velocity=63 time=0
EXTRACT: note_on channel=0 note=45 velocity=63 time=0
EXTRACT: note_off channel=4 note=65 velocity=95 time=0
EXTRACT: note_on channel=4 note=68 velocity=95 time=0
EXTRACT: note_off channel=0 note=64 velocity=63 time=0.031249995833333332
EXTRACT: note_off channel=0 note=59 velocity=63 time=0
EXTRACT: note_off channel=0 note=55 velocity=63 time=0
EXTRACT: note_off channel=0 note=50 velocity=63 time=0
EXTRACT: note_off channel=0 note=45 velocity=63 time=0
EXTRACT: note_off channel=2 note=51 velocity=79 time=0.11298075416666667
EXTRACT: note_on channel=2 note=46 velocity=79 time=0
EXTRACT: note_off channel=2 note=46 velocity=79 time=0.14423075
EXTRACT: note_on channel=2 note=48 velocity=54 time=0
EXTRACT: note_off channel=4 note=68 velocity=95 time=0
EXTRACT: note_on channel=4 note=68 velocity=95 time=0
EXTRACT: note_on channel=0 note=75 velocity=63 time=0.14423075
EXTRACT: note_on channel=0 note=70 velocity=63 time=0
EXTRACT: note_on channel=0 note=67 velocity=63 time=0
EXTRACT: note_on channel=0 note=63 velocity=63 time=0
EXTRACT: note_off channel=2 note=48 velocity=54 time=0
EXTRACT: note_on channel=2 note=51 velocity=79 time=0
EXTRACT: note_off channel=4 note=68 velocity=95 time=0
EXTRACT: note_on channel=4 note=65 velocity=95 time=0
EXTRACT: note_off channel=0 note=75 velocity=63 time=0.14423075
EXTRACT: note_off channel=0 note=70 velocity=63 time=0
EXTRACT: note_off channel=0 note=67 velocity=63 time=0
EXTRACT: note_off channel=0 note=63 velocity=63 time=0
EXTRACT: note_on channel=0 note=75 velocity=63 time=0
EXTRACT: note_on channel=0 note=70 velocity=63 time=0
EXTRACT: note_on channel=0 note=67 velocity=63 time=0
EXTRACT: note_on channel=0 note=63 velocity=63 time=0
EXTRACT: note_off channel=0 note=75 velocity=63 time=0.14423075
EXTRACT: note_off channel=0 note=70 velocity=63 time=0
EXTRACT: note_off channel=0 note=67 velocity=63 time=0
EXTRACT: note_off channel=0 note=63 velocity=63 time=0
EXTRACT: note_on channel=0 note=75 velocity=63 time=0
EXTRACT: note_on channel=0 note=70 velocity=63 time=0
EXTRACT: note_on channel=0 note=67 velocity=63 time=0
EXTRACT: note_on channel=0 note=63 velocity=63 time=0
EXTRACT: note_off channel=2 note=51 velocity=79 time=0
EXTRACT: note_off channel=4 note=65 velocity=95 time=0
EXTRACT: note_off channel=0 note=75 velocity=63 time=0.14423075
EXTRACT: note_off channel=0 note=70 velocity=63 time=0
EXTRACT: note_off channel=0 note=67 velocity=63 time=0
EXTRACT: note_off channel=0 note=63 velocity=63 time=0
EXTRACT: note_on channel=0 note=75 velocity=63 time=0
EXTRACT: note_on channel=0 note=70 velocity=63 time=0
EXTRACT: note_on channel=0 note=67 velocity=63 time=0
EXTRACT: note_on channel=0 note=63 velocity=63 time=0
EXTRACT: note_on channel=2 note=45 velocity=79 time=0
EXTRACT: note_on channel=4 note=65 velocity=95 time=0
EXTRACT: note_off channel=2 note=45 velocity=79 time=0.031249995833333332
EXTRACT: note_off channel=0 note=75 velocity=63 time=0.11298075416666667
EXTRACT: note_off channel=0 note=70 velocity=63 time=0
EXTRACT: note_off channel=0 note=67 velocity=63 time=0
EXTRACT: note_off channel=0 note=63 velocity=63 time=0
EXTRACT: note_on channel=0 note=64 velocity=63 time=0
EXTRACT: note_on channel=0 note=59 velocity=63 time=0
EXTRACT: note_on channel=0 note=55 velocity=63 time=0
EXTRACT: note_on channel=0 note=50 velocity=63 time=0
EXTRACT: note_on channel=2 note=46 velocity=79 time=0
EXTRACT: note_off channel=4 note=65 velocity=95 time=0
EXTRACT: note_on channel=4 note=63 velocity=95 time=0
EXTRACT: note_off channel=0 note=64 velocity=63 time=0.031249995833333332
EXTRACT: note_off channel=0 note=59 velocity=63 time=0
EXTRACT: note_off channel=0 note=55 velocity=63 time=0
EXTRACT: note_off channel=0 note=50 velocity=63 time=0
EXTRACT: note_on channel=0 note=64 velocity=63 time=0.11298075416666667
EXTRACT: note_on channel=0 note=59 velocity=63 time=0
EXTRACT: note_on channel=0 note=55 velocity=63 time=0
EXTRACT: note_on channel=0 note=50 velocity=63 time=0
EXTRACT: note_off channel=4 note=63 velocity=95 time=0
EXTRACT: note_on channel=4 note=65 velocity=95 time=0
EXTRACT: note_off channel=0 note=64 velocity=63 time=0.031249995833333332
EXTRACT: note_off channel=0 note=59 velocity=63 time=0
EXTRACT: note_off channel=0 note=55 velocity=63 time=0
EXTRACT: note_off channel=0 note=50 velocity=63 time=0
EXTRACT: note_off channel=2 note=46 velocity=79 time=0.11298075416666667
EXTRACT: note_on channel=2 note=48 velocity=79 time=0
EXTRACT: note_off channel=4 note=65 velocity=95 time=0.14423075
EXTRACT: note_on channel=4 note=65 velocity=95 time=0
EXTRACT: note_on channel=0 note=72 velocity=63 time=0.14423075
EXTRACT: note_on channel=0 note=68 velocity=63 time=0
EXTRACT: note_on channel=0 note=65 velocity=63 time=0
EXTRACT: note_on channel=0 note=60 velocity=63 time=0
EXTRACT: note_on channel=0 note=53 velocity=63 time=0
EXTRACT: note_off channel=2 note=48 velocity=79 time=0
EXTRACT: note_on channel=2 note=51 velocity=79 time=0
EXTRACT: note_off channel=0 note=72 velocity=63 time=0.14423075
EXTRACT: note_off channel=0 note=68 velocity=63 time=0
EXTRACT: note_off channel=0 note=65 velocity=63 time=0
EXTRACT: note_off channel=0 note=60 velocity=63 time=0
EXTRACT: note_off channel=0 note=53 velocity=63 time=0
EXTRACT: note_on channel=0 note=72 velocity=63 time=0
EXTRACT: note_on channel=0 note=68 velocity=63 time=0
EXTRACT: note_on channel=0 note=65 velocity=63 time=0
EXTRACT: note_on channel=0 note=60 velocity=63 time=0
EXTRACT: note_on channel=0 note=53 velocity=63 time=0
EXTRACT: note_off channel=4 note=65 velocity=95 time=0
EXTRACT: note_on channel=4 note=65 velocity=95 time=0
EXTRACT: note_off channel=0 note=72 velocity=63 time=0.14423075
EXTRACT: note_off channel=0 note=68 velocity=63 time=0
EXTRACT: note_off channel=0 note=65 velocity=63 time=0
EXTRACT: note_off channel=0 note=60 velocity=63 time=0
EXTRACT: note_off channel=0 note=53 velocity=63 time=0
EXTRACT: note_on channel=0 note=72 velocity=63 time=0
EXTRACT: note_on channel=0 note=68 velocity=63 time=0
EXTRACT: note_on channel=0 note=65 velocity=63 time=0
EXTRACT: note_on channel=0 note=60 velocity=63 time=0
EXTRACT: note_on channel=0 note=53 velocity=63 time=0
EXTRACT: note_off channel=2 note=51 velocity=79 time=0
EXTRACT: note_on channel=2 note=53 velocity=79 time=0
EXTRACT: note_off channel=0 note=72 velocity=63 time=0.14423075
EXTRACT: note_off channel=0 note=68 velocity=63 time=0
EXTRACT: note_off channel=0 note=65 velocity=63 time=0
EXTRACT: note_off channel=0 note=60 velocity=63 time=0
EXTRACT: note_off channel=0 note=53 velocity=63 time=0
EXTRACT: note_on channel=0 note=72 velocity=63 time=0
EXTRACT: note_on channel=0 note=68 velocity=63 time=0
EXTRACT: note_on channel=0 note=65 velocity=63 time=0
EXTRACT: note_on channel=0 note=60 velocity=63 time=0
EXTRACT: note_on channel=0 note=53 velocity=63 time=0
EXTRACT: note_off channel=4 note=65 velocity=95 time=0
EXTRACT: note_on channel=4 note=65 velocity=95 time=0
EXTRACT: note_off channel=0 note=72 velocity=63 time=0.14423075
EXTRACT: note_off channel=0 note=68 velocity=63 time=0
EXTRACT: note_off channel=0 note=65 velocity=63 time=0
EXTRACT: note_off channel=0 note=60 velocity=63 time=0
EXTRACT: note_off channel=0 note=53 velocity=63 time=0
EXTRACT: note_on channel=0 note=64 velocity=63 time=0
EXTRACT: note_on channel=0 note=59 velocity=63 time=0
EXTRACT: note_on channel=0 note=55 velocity=63 time=0
EXTRACT: note_on channel=0 note=50 velocity=63 time=0
EXTRACT: note_on channel=0 note=45 velocity=63 time=0
EXTRACT: note_on channel=0 note=40 velocity=63 time=0
EXTRACT: note_off channel=2 note=53 velocity=79 time=0
EXTRACT: note_on channel=2 note=56 velocity=79 time=0
EXTRACT: note_off channel=4 note=65 velocity=95 time=0
EXTRACT: note_on channel=4 note=68 velocity=95 time=0
EXTRACT: note_off channel=0 note=64 velocity=63 time=0.031249995833333332
EXTRACT: note_off channel=0 note=59 velocity=63 time=0
EXTRACT: note_off channel=0 note=55 velocity=63 time=0
EXTRACT: note_off channel=0 note=50 velocity=63 time=0
EXTRACT: note_off channel=0 note=45 velocity=63 time=0
EXTRACT: note_off channel=0 note=40 velocity=63 time=0
EXTRACT: note_on channel=0 note=64 velocity=63 time=0.11298075416666667
EXTRACT: note_on channel=0 note=59 velocity=63 time=0
EXTRACT: note_on channel=0 note=55 velocity=63 time=0
EXTRACT: note_on channel=0 note=50 velocity=63 time=0
EXTRACT: note_on channel=0 note=45 velocity=63 time=0
EXTRACT: note_on channel=0 note=40 velocity=63 time=0
EXTRACT: note_off channel=4 note=68 velocity=95 time=0
EXTRACT: note_on channel=4 note=68 velocity=95 time=0
EXTRACT: note_off channel=0 note=64 velocity=63 time=0.031249995833333332
EXTRACT: note_off channel=0 note=59 velocity=63 time=0
EXTRACT: note_off channel=0 note=55 velocity=63 time=0
EXTRACT: note_off channel=0 note=50 velocity=63 time=0
EXTRACT: note_off channel=0 note=45 velocity=63 time=0
EXTRACT: note_off channel=0 note=40 velocity=63 time=0
EXTRACT: note_off channel=2 note=56 velocity=79 time=0.11298075416666667
EXTRACT: note_on channel=2 note=53 velocity=79 time=0
EXTRACT: note_off channel=4 note=68 velocity=95 time=0
EXTRACT: note_on channel=4 note=68 velocity=95 time=0
EXTRACT: note_off channel=2 note=53 velocity=79 time=0.14423075
EXTRACT: note_off channel=4 note=68 velocity=95 time=0
EXTRACT: note_on channel=4 note=70 velocity=95 time=0
EXTRACT: note_on channel=0 note=70 velocity=63 time=0.14423075
EXTRACT: note_on channel=0 note=65 velocity=63 time=0
EXTRACT: note_on channel=0 note=62 velocity=63 time=0
EXTRACT: note_on channel=0 note=58 velocity=63 time=0
EXTRACT: note_on channel=0 note=53 velocity=63 time=0
EXTRACT: note_on channel=0 note=46 velocity=63 time=0
EXTRACT: note_on channel=2 note=58 velocity=79 time=0
EXTRACT: note_off channel=0 note=70 velocity=63 time=0.14423075
EXTRACT: note_off channel=0 note=65 velocity=63 time=0
EXTRACT: note_off channel=0 note=62 velocity=63 time=0
EXTRACT: note_off channel=0 note=58 velocity=63 time=0
EXTRACT: note_off channel=0 note=53 velocity=63 time=0
EXTRACT: note_off channel=0 note=46 velocity=63 time=0
EXTRACT: note_on channel=0 note=70 velocity=63 time=0
EXTRACT: note_on channel=0 note=65 velocity=63 time=0
EXTRACT: note_on channel=0 note=62 velocity=63 time=0
EXTRACT: note_on channel=0 note=58 velocity=63 time=0
EXTRACT: note_on channel=0 note=53 velocity=63 time=0
EXTRACT: note_on channel=0 note=46 velocity=63 time=0
EXTRACT: note_off channel=2 note=58 velocity=79 time=0
EXTRACT: note_off channel=4 note=70 velocity=95 time=0
EXTRACT: note_on channel=4 note=70 velocity=95 time=0
EXTRACT: note_off channel=0 note=70 velocity=63 time=0.14423075
EXTRACT: note_off channel=0 note=65 velocity=63 time=0
EXTRACT: note_off channel=0 note=62 velocity=63 time=0
EXTRACT: note_off channel=0 note=58 velocity=63 time=0
EXTRACT: note_off channel=0 note=53 velocity=63 time=0
EXTRACT: note_off channel=0 note=46 velocity=63 time=0
EXTRACT: note_on channel=0 note=70 velocity=63 time=0
EXTRACT: note_on channel=0 note=65 velocity=63 time=0
EXTRACT: note_on channel=0 note=62 velocity=63 time=0
EXTRACT: note_on channel=0 note=58 velocity=63 time=0
EXTRACT: note_on channel=0 note=53 velocity=63 time=0
EXTRACT: note_on channel=0 note=46 velocity=63 time=0
EXTRACT: note_on channel=2 note=58 velocity=79 time=0
EXTRACT: note_off channel=4 note=70 velocity=95 time=0
EXTRACT: note_off channel=0 note=70 velocity=63 time=0.14423075
EXTRACT: note_off channel=0 note=65 velocity=63 time=0
EXTRACT: note_off channel=0 note=62 velocity=63 time=0
EXTRACT: note_off channel=0 note=58 velocity=63 time=0
EXTRACT: note_off channel=0 note=53 velocity=63 time=0
EXTRACT: note_off channel=0 note=46 velocity=63 time=0
EXTRACT: note_on channel=0 note=70 velocity=63 time=0
EXTRACT: note_on channel=0 note=65 velocity=63 time=0
EXTRACT: note_on channel=0 note=62 velocity=63 time=0
EXTRACT: note_on channel=0 note=58 velocity=63 time=0
EXTRACT: note_on channel=0 note=53 velocity=63 time=0
EXTRACT: note_on channel=0 note=46 velocity=63 time=0
EXTRACT: note_off channel=2 note=58 velocity=79 time=0
EXTRACT: note_off channel=0 note=70 velocity=63 time=0.14423075
EXTRACT: note_off channel=0 note=65 velocity=63 time=0
EXTRACT: note_off channel=0 note=62 velocity=63 time=0
EXTRACT: note_off channel=0 note=58 velocity=63 time=0
EXTRACT: note_off channel=0 note=53 velocity=63 time=0
EXTRACT: note_off channel=0 note=46 velocity=63 time=0
EXTRACT: note_on channel=0 note=64 velocity=63 time=0
EXTRACT: note_on channel=0 note=59 velocity=63 time=0
EXTRACT: note_on channel=0 note=55 velocity=63 time=0
EXTRACT: note_on channel=0 note=50 velocity=63 time=0
EXTRACT: note_on channel=0 note=45 velocity=63 time=0
EXTRACT: note_on channel=0 note=40 velocity=63 time=0
EXTRACT: note_off channel=0 note=64 velocity=63 time=0.031249995833333332
EXTRACT: note_off channel=0 note=59 velocity=63 time=0
EXTRACT: note_off channel=0 note=55 velocity=63 time=0
EXTRACT: note_off channel=0 note=50 velocity=63 time=0
EXTRACT: note_off channel=0 note=45 velocity=63 time=0
EXTRACT: note_off channel=0 note=40 velocity=63 time=0
EXTRACT: note_on channel=0 note=64 velocity=63 time=0.11298075416666667
EXTRACT: note_on channel=0 note=59 velocity=63 time=0
EXTRACT: note_on channel=0 note=55 velocity=63 time=0
EXTRACT: note_on channel=0 note=50 velocity=63 time=0
EXTRACT: note_on channel=0 note=45 velocity=63 time=0
EXTRACT: note_on channel=0 note=40 velocity=63 time=0
EXTRACT: note_on channel=2 note=56 velocity=79 time=0
EXTRACT: note_off channel=0 note=64 velocity=63 time=0.031249995833333332
EXTRACT: note_off channel=0 note=59 velocity=63 time=0
EXTRACT: note_off channel=0 note=55 velocity=63 time=0
EXTRACT: note_off channel=0 note=50 velocity=63 time=0
EXTRACT: note_off channel=0 note=45 velocity=63 time=0
EXTRACT: note_off channel=0 note=40 velocity=63 time=0
EXTRACT: note_off channel=2 note=56 velocity=79 time=0.11298075416666667
EXTRACT: note_on channel=4 note=68 velocity=95 time=0
EXTRACT: note_on channel=2 note=56 velocity=79 time=0.14423075
EXTRACT: note_off channel=4 note=68 velocity=95 time=0
EXTRACT: note_on channel=4 note=70 velocity=95 time=0
EXTRACT: note_on channel=0 note=70 velocity=63 time=0.14423075
EXTRACT: note_on channel=0 note=65 velocity=63 time=0
EXTRACT: note_on channel=0 note=62 velocity=63 time=0
EXTRACT: note_on channel=0 note=58 velocity=63 time=0
EXTRACT: note_on channel=0 note=53 velocity=63 time=0
EXTRACT: note_on channel=0 note=46 velocity=63 time=0
EXTRACT: note_off channel=2 note=56 velocity=79 time=0
EXTRACT: note_off channel=0 note=70 velocity=63 time=0.14423075
EXTRACT: note_off channel=0 note=65 velocity=63 time=0
EXTRACT: note_off channel=0 note=62 velocity=63 time=0
EXTRACT: note_off channel=0 note=58 velocity=63 time=0
EXTRACT: note_off channel=0 note=53 velocity=63 time=0
EXTRACT: note_off channel=0 note=46 velocity=63 time=0
EXTRACT: note_on channel=0 note=70 velocity=63 time=0
EXTRACT: note_on channel=0 note=65 velocity=63 time=0
EXTRACT: note_on channel=0 note=62 velocity=63 time=0
EXTRACT: note_on channel=0 note=58 velocity=63 time=0
EXTRACT: note_on channel=0 note=53 velocity=63 time=0
EXTRACT: note_on channel=0 note=46 velocity=63 time=0
EXTRACT: note_on channel=2 note=53 velocity=79 time=0
EXTRACT: note_off channel=4 note=70 velocity=95 time=0
EXTRACT: note_on channel=4 note=70 velocity=95 time=0
EXTRACT: note_off channel=0 note=70 velocity=63 time=0.14423075
EXTRACT: note_off channel=0 note=65 velocity=63 time=0
EXTRACT: note_off channel=0 note=62 velocity=63 time=0
EXTRACT: note_off channel=0 note=58 velocity=63 time=0
EXTRACT: note_off channel=0 note=53 velocity=63 time=0
EXTRACT: note_off channel=0 note=46 velocity=63 time=0
EXTRACT: note_on channel=0 note=70 velocity=63 time=0
EXTRACT: note_on channel=0 note=65 velocity=63 time=0
EXTRACT: note_on channel=0 note=62 velocity=63 time=0
EXTRACT: note_on channel=0 note=58 velocity=63 time=0
EXTRACT: note_on channel=0 note=53 velocity=63 time=0
EXTRACT: note_on channel=0 note=46 velocity=63 time=0
EXTRACT: note_off channel=2 note=53 velocity=79 time=0
EXTRACT: note_on channel=2 note=56 velocity=79 time=0
EXTRACT: note_off channel=4 note=70 velocity=95 time=0
EXTRACT: note_off channel=0 note=70 velocity=63 time=0.14423075
EXTRACT: note_off channel=0 note=65 velocity=63 time=0
EXTRACT: note_off channel=0 note=62 velocity=63 time=0
EXTRACT: note_off channel=0 note=58 velocity=63 time=0
EXTRACT: note_off channel=0 note=53 velocity=63 time=0
EXTRACT: note_off channel=0 note=46 velocity=63 time=0
EXTRACT: note_on channel=0 note=70 velocity=63 time=0
EXTRACT: note_on channel=0 note=65 velocity=63 time=0
EXTRACT: note_on channel=0 note=62 velocity=63 time=0
EXTRACT: note_on channel=0 note=58 velocity=63 time=0
EXTRACT: note_on channel=0 note=53 velocity=63 time=0
EXTRACT: note_on channel=0 note=46 velocity=63 time=0
EXTRACT: note_off channel=0 note=70 velocity=63 time=0.14423075
EXTRACT: note_off channel=0 note=65 velocity=63 time=0
EXTRACT: note_off channel=0 note=62 velocity=63 time=0
EXTRACT: note_off channel=0 note=58 velocity=63 time=0
EXTRACT: note_off channel=0 note=53 velocity=63 time=0
EXTRACT: note_off channel=0 note=46 velocity=63 time=0
EXTRACT: note_on channel=0 note=64 velocity=63 time=0
EXTRACT: note_on channel=0 note=59 velocity=63 time=0
EXTRACT: note_on channel=0 note=55 velocity=63 time=0
EXTRACT: note_on channel=0 note=50 velocity=63 time=0
EXTRACT: note_on channel=0 note=45 velocity=63 time=0
EXTRACT: note_on channel=0 note=40 velocity=63 time=0
EXTRACT: note_off channel=2 note=56 velocity=79 time=0
EXTRACT: note_on channel=2 note=53 velocity=79 time=0
EXTRACT: note_off channel=0 note=64 velocity=63 time=0.031249995833333332
EXTRACT: note_off channel=0 note=59 velocity=63 time=0
EXTRACT: note_off channel=0 note=55 velocity=63 time=0
EXTRACT: note_off channel=0 note=50 velocity=63 time=0
EXTRACT: note_off channel=0 note=45 velocity=63 time=0
EXTRACT: note_off channel=0 note=40 velocity=63 time=0
EXTRACT: note_on channel=0 note=64 velocity=63 time=0.11298075416666667
EXTRACT: note_on channel=0 note=59 velocity=63 time=0
EXTRACT: note_on channel=0 note=55 velocity=63 time=0
EXTRACT: note_on channel=0 note=50 velocity=63 time=0
EXTRACT: note_on channel=0 note=45 velocity=63 time=0
EXTRACT: note_on channel=0 note=40 velocity=63 time=0
EXTRACT: note_off channel=2 note=53 velocity=79 time=0
EXTRACT: note_on channel=4 note=65 velocity=95 time=0
EXTRACT: note_off channel=0 note=64 velocity=63 time=0.031249995833333332
EXTRACT: note_off channel=0 note=59 velocity=63 time=0
EXTRACT: note_off channel=0 note=55 velocity=63 time=0
EXTRACT: note_off channel=0 note=50 velocity=63 time=0
EXTRACT: note_off channel=0 note=45 velocity=63 time=0
EXTRACT: note_off channel=0 note=40 velocity=63 time=0
EXTRACT: note_on channel=2 note=53 velocity=79 time=0.11298075416666667
EXTRACT: note_off channel=4 note=65 velocity=95 time=0
EXTRACT: note_on channel=4 note=68 velocity=95 time=0
EXTRACT: note_off channel=2 note=53 velocity=79 time=0.14423075
EXTRACT: note_off channel=4 note=68 velocity=95 time=0
EXTRACT: note_on channel=4 note=70 velocity=95 time=0
EXTRACT: note_on channel=0 note=70 velocity=63 time=0.14423075
EXTRACT: note_on channel=0 note=65 velocity=63 time=0
EXTRACT: note_on channel=0 note=62 velocity=63 time=0
EXTRACT: note_on channel=0 note=58 velocity=63 time=0
EXTRACT: note_on channel=0 note=53 velocity=63 time=0
EXTRACT: note_on channel=0 note=46 velocity=63 time=0
EXTRACT: note_on channel=2 note=58 velocity=79 time=0
EXTRACT: note_off channel=0 note=70 velocity=63 time=0.14423075
EXTRACT: note_off channel=0 note=65 velocity=63 time=0
EXTRACT: note_off channel=0 note=62 velocity=63 time=0
EXTRACT: note_off channel=0 note=58 velocity=63 time=0
EXTRACT: note_off channel=0 note=53 velocity=63 time=0
EXTRACT: note_off channel=0 note=46 velocity=63 time=0
EXTRACT: note_on channel=0 note=70 velocity=63 time=0
EXTRACT: note_on channel=0 note=65 velocity=63 time=0
EXTRACT: note_on channel=0 note=62 velocity=63 time=0
EXTRACT: note_on channel=0 note=58 velocity=63 time=0
EXTRACT: note_on channel=0 note=53 velocity=63 time=0
EXTRACT: note_on channel=0 note=46 velocity=63 time=0
EXTRACT: note_off channel=2 note=58 velocity=79 time=0
EXTRACT: note_off channel=4 note=70 velocity=95 time=0
EXTRACT: note_on channel=4 note=70 velocity=95 time=0
EXTRACT: note_off channel=0 note=70 velocity=63 time=0.14423075
EXTRACT: note_off channel=0 note=65 velocity=63 time=0
EXTRACT: note_off channel=0 note=62 velocity=63 time=0
EXTRACT: note_off channel=0 note=58 velocity=63 time=0
EXTRACT: note_off channel=0 note=53 velocity=63 time=0
EXTRACT: note_off channel=0 note=46 velocity=63 time=0
EXTRACT: note_on channel=0 note=70 velocity=63 time=0
EXTRACT: note_on channel=0 note=65 velocity=63 time=0
EXTRACT: note_on channel=0 note=62 velocity=63 time=0
EXTRACT: note_on channel=0 note=58 velocity=63 time=0
EXTRACT: note_on channel=0 note=53 velocity=63 time=0
EXTRACT: note_on channel=0 note=46 velocity=63 time=0
EXTRACT: note_on channel=2 note=58 velocity=79 time=0
EXTRACT: note_off channel=4 note=70 velocity=95 time=0
EXTRACT: note_off channel=0 note=70 velocity=63 time=0.14423075
EXTRACT: note_off channel=0 note=65 velocity=63 time=0
EXTRACT: note_off channel=0 note=62 velocity=63 time=0
EXTRACT: note_off channel=0 note=58 velocity=63 time=0
EXTRACT: note_off channel=0 note=53 velocity=63 time=0
EXTRACT: note_off channel=0 note=46 velocity=63 time=0
EXTRACT: note_on channel=0 note=70 velocity=63 time=0
EXTRACT: note_on channel=0 note=65 velocity=63 time=0
EXTRACT: note_on channel=0 note=62 velocity=63 time=0
EXTRACT: note_on channel=0 note=58 velocity=63 time=0
EXTRACT: note_on channel=0 note=53 velocity=63 time=0
EXTRACT: note_on channel=0 note=46 velocity=63 time=0
EXTRACT: note_off channel=2 note=58 velocity=79 time=0
EXTRACT: note_on channel=4 note=68 velocity=95 time=0
EXTRACT: note_off channel=0 note=70 velocity=63 time=0.14423075
EXTRACT: note_off channel=0 note=65 velocity=63 time=0
EXTRACT: note_off channel=0 note=62 velocity=63 time=0
EXTRACT: note_off channel=0 note=58 velocity=63 time=0
EXTRACT: note_off channel=0 note=53 velocity=63 time=0
EXTRACT: note_off channel=0 note=46 velocity=63 time=0
EXTRACT: note_on channel=0 note=64 velocity=63 time=0
EXTRACT: note_on channel=0 note=59 velocity=63 time=0
EXTRACT: note_on channel=0 note=55 velocity=63 time=0
EXTRACT: note_on channel=0 note=50 velocity=63 time=0
EXTRACT: note_on channel=0 note=45 velocity=63 time=0
EXTRACT: note_on channel=0 note=40 velocity=63 time=0
EXTRACT: note_off channel=0 note=64 velocity=63 time=0.031249995833333332
EXTRACT: note_off channel=0 note=59 velocity=63 time=0
EXTRACT: note_off channel=0 note=55 velocity=63 time=0
EXTRACT: note_off channel=0 note=50 velocity=63 time=0
EXTRACT: note_off channel=0 note=45 velocity=63 time=0
EXTRACT: note_off channel=0 note=40 velocity=63 time=0
EXTRACT: note_on channel=0 note=64 velocity=63 time=0.11298075416666667
EXTRACT: note_on channel=0 note=59 velocity=63 time=0
EXTRACT: note_on channel=0 note=55 velocity=63 time=0
EXTRACT: note_on channel=0 note=50 velocity=63 time=0
EXTRACT: note_on channel=0 note=45 velocity=63 time=0
EXTRACT: note_on channel=0 note=40 velocity=63 time=0
EXTRACT: note_on channel=2 note=56 velocity=79 time=0
EXTRACT: note_off channel=4 note=68 velocity=95 time=0
EXTRACT: note_on channel=4 note=70 velocity=95 time=0
EXTRACT: note_off channel=0 note=64 velocity=63 time=0.031249995833333332
EXTRACT: note_off channel=0 note=59 velocity=63 time=0
EXTRACT: note_off channel=0 note=55 velocity=63 time=0
EXTRACT: note_off channel=0 note=50 velocity=63 time=0
EXTRACT: note_off channel=0 note=45 velocity=63 time=0
EXTRACT: note_off channel=0 note=40 velocity=63 time=0
EXTRACT: note_off channel=2 note=56 velocity=79 time=0.11298075416666667
EXTRACT: note_off channel=4 note=70 velocity=95 time=0
EXTRACT: note_on channel=4 note=72 velocity=95 time=0
EXTRACT: note_on channel=2 note=56 velocity=79 time=0.14423075
EXTRACT: note_off channel=4 note=72 velocity=95 time=0
EXTRACT: note_on channel=4 note=70 velocity=95 time=0
EXTRACT: note_on channel=0 note=70 velocity=63 time=0.14423075
EXTRACT: note_on channel=0 note=65 velocity=63 time=0
EXTRACT: note_on channel=0 note=62 velocity=63 time=0
EXTRACT: note_on channel=0 note=58 velocity=63 time=0
EXTRACT: note_on channel=0 note=53 velocity=63 time=0
EXTRACT: note_on channel=0 note=46 velocity=63 time=0
EXTRACT: note_off channel=2 note=56 velocity=79 time=0
EXTRACT: note_off channel=0 note=70 velocity=63 time=0.14423075
EXTRACT: note_off channel=0 note=65 velocity=63 time=0
EXTRACT: note_off channel=0 note=62 velocity=63 time=0
EXTRACT: note_off channel=0 note=58 velocity=63 time=0
EXTRACT: note_off channel=0 note=53 velocity=63 time=0
EXTRACT: note_off channel=0 note=46 velocity=63 time=0
EXTRACT: note_on channel=0 note=70 velocity=63 time=0
EXTRACT: note_on channel=0 note=65 velocity=63 time=0
EXTRACT: note_on channel=0 note=62 velocity=63 time=0
EXTRACT: note_on channel=0 note=58 velocity=63 time=0
EXTRACT: note_on channel=0 note=53 velocity=63 time=0
EXTRACT: note_on channel=0 note=46 velocity=63 time=0
EXTRACT: note_on channel=2 note=53 velocity=79 time=0
EXTRACT: note_off channel=4 note=70 velocity=95 time=0
EXTRACT: note_on channel=4 note=70 velocity=95 time=0
EXTRACT: note_off channel=0 note=70 velocity=63 time=0.14423075
EXTRACT: note_off channel=0 note=65 velocity=63 time=0
EXTRACT: note_off channel=0 note=62 velocity=63 time=0
EXTRACT: note_off channel=0 note=58 velocity=63 time=0
EXTRACT: note_off channel=0 note=53 velocity=63 time=0
EXTRACT: note_off channel=0 note=46 velocity=63 time=0
EXTRACT: note_on channel=0 note=70 velocity=63 time=0
EXTRACT: note_on channel=0 note=65 velocity=63 time=0
EXTRACT: note_on channel=0 note=62 velocity=63 time=0
EXTRACT: note_on channel=0 note=58 velocity=63 time=0
EXTRACT: note_on channel=0 note=53 velocity=63 time=0
EXTRACT: note_on channel=0 note=46 velocity=63 time=0
EXTRACT: note_off channel=2 note=53 velocity=79 time=0
EXTRACT: note_on channel=2 note=56 velocity=79 time=0
EXTRACT: note_off channel=4 note=70 velocity=95 time=0
EXTRACT: note_off channel=0 note=70 velocity=63 time=0.14423075
EXTRACT: note_off channel=0 note=65 velocity=63 time=0
EXTRACT: note_off channel=0 note=62 velocity=63 time=0
EXTRACT: note_off channel=0 note=58 velocity=63 time=0
EXTRACT: note_off channel=0 note=53 velocity=63 time=0
EXTRACT: note_off channel=0 note=46 velocity=63 time=0
EXTRACT: note_on channel=0 note=70 velocity=63 time=0
EXTRACT: note_on channel=0 note=65 velocity=63 time=0
EXTRACT: note_on channel=0 note=62 velocity=63 time=0
EXTRACT: note_on channel=0 note=58 velocity=63 time=0
EXTRACT: note_on channel=0 note=53 velocity=63 time=0
EXTRACT: note_on channel=0 note=46 velocity=63 time=0
EXTRACT: note_off channel=0 note=70 velocity=63 time=0.14423075
EXTRACT: note_off channel=0 note=65 velocity=63 time=0
EXTRACT: note_off channel=0 note=62 velocity=63 time=0
EXTRACT: note_off channel=0 note=58 velocity=63 time=0
EXTRACT: note_off channel=0 note=53 velocity=63 time=0
EXTRACT: note_off channel=0 note=46 velocity=63 time=0
EXTRACT: note_on channel=0 note=64 velocity=63 time=0
EXTRACT: note_on channel=0 note=59 velocity=63 time=0
EXTRACT: note_on channel=0 note=55 velocity=63 time=0
EXTRACT: note_on channel=0 note=50 velocity=63 time=0
EXTRACT: note_on channel=0 note=45 velocity=63 time=0
EXTRACT: note_on channel=0 note=40 velocity=63 time=0
EXTRACT: note_off channel=2 note=56 velocity=79 time=0
EXTRACT: note_on channel=2 note=53 velocity=79 time=0
EXTRACT: note_off channel=0 note=64 velocity=63 time=0.031249995833333332
EXTRACT: note_off channel=0 note=59 velocity=63 time=0
EXTRACT: note_off channel=0 note=55 velocity=63 time=0
EXTRACT: note_off channel=0 note=50 velocity=63 time=0
EXTRACT: note_off channel=0 note=45 velocity=63 time=0
EXTRACT: note_off channel=0 note=40 velocity=63 time=0
EXTRACT: note_on channel=0 note=64 velocity=63 time=0.11298075416666667
EXTRACT: note_on channel=0 note=59 velocity=63 time=0
EXTRACT: note_on channel=0 note=55 velocity=63 time=0
EXTRACT: note_on channel=0 note=50 velocity=63 time=0
EXTRACT: note_on channel=0 note=45 velocity=63 time=0
EXTRACT: note_on channel=0 note=40 velocity=63 time=0
EXTRACT: note_off channel=2 note=53 velocity=79 time=0
EXTRACT: note_on channel=4 note=70 velocity=95 time=0
EXTRACT: note_on channel=4 note=65 velocity=95 time=0
EXTRACT: note_off channel=0 note=64 velocity=63 time=0.031249995833333332
EXTRACT: note_off channel=0 note=59 velocity=63 time=0
EXTRACT: note_off channel=0 note=55 velocity=63 time=0
EXTRACT: note_off channel=0 note=50 velocity=63 time=0
EXTRACT: note_off channel=0 note=45 velocity=63 time=0
EXTRACT: note_off channel=0 note=40 velocity=63 time=0
EXTRACT: note_on channel=2 note=53 velocity=79 time=0.11298075416666667
EXTRACT: note_off channel=4 note=70 velocity=95 time=0
EXTRACT: note_off channel=4 note=65 velocity=95 time=0
EXTRACT: note_on channel=4 note=68 velocity=95 time=0
EXTRACT: note_on channel=4 note=72 velocity=95 time=0
EXTRACT: note_off channel=2 note=53 velocity=79 time=0.14423075
EXTRACT: note_off channel=4 note=68 velocity=95 time=0
EXTRACT: note_off channel=4 note=72 velocity=95 time=0
EXTRACT: note_on channel=4 note=73 velocity=95 time=0
EXTRACT: note_on channel=4 note=70 velocity=95 time=0
EXTRACT: note_on channel=0 note=70 velocity=63 time=0.14423075
EXTRACT: note_on channel=0 note=65 velocity=63 time=0
EXTRACT: note_on channel=0 note=62 velocity=63 time=0
EXTRACT: note_on channel=0 note=58 velocity=63 time=0
EXTRACT: note_on channel=0 note=53 velocity=63 time=0
EXTRACT: note_on channel=0 note=46 velocity=63 time=0
EXTRACT: note_on channel=2 note=58 velocity=79 time=0
EXTRACT: note_off channel=0 note=70 velocity=63 time=0.14423075
EXTRACT: note_off channel=0 note=65 velocity=63 time=0
EXTRACT: note_off channel=0 note=62 velocity=63 time=0
EXTRACT: note_off channel=0 note=58 velocity=63 time=0
EXTRACT: note_off channel=0 note=53 velocity=63 time=0
EXTRACT: note_off channel=0 note=46 velocity=63 time=0
EXTRACT: note_on channel=0 note=70 velocity=63 time=0
EXTRACT: note_on channel=0 note=65 velocity=63 time=0
EXTRACT: note_on channel=0 note=62 velocity=63 time=0
EXTRACT: note_on channel=0 note=58 velocity=63 time=0
EXTRACT: note_on channel=0 note=53 velocity=63 time=0
EXTRACT: note_on channel=0 note=46 velocity=63 time=0
EXTRACT: note_off channel=2 note=58 velocity=79 time=0
EXTRACT: note_off channel=4 note=73 velocity=95 time=0
EXTRACT: note_off channel=4 note=70 velocity=95 time=0
EXTRACT: note_on channel=4 note=73 velocity=95 time=0
EXTRACT: note_on channel=4 note=70 velocity=95 time=0
EXTRACT: note_off channel=0 note=70 velocity=63 time=0.14423075
EXTRACT: note_off channel=0 note=65 velocity=63 time=0
EXTRACT: note_off channel=0 note=62 velocity=63 time=0
EXTRACT: note_off channel=0 note=58 velocity=63 time=0
EXTRACT: note_off channel=0 note=53 velocity=63 time=0
EXTRACT: note_off channel=0 note=46 velocity=63 time=0
EXTRACT: note_on channel=0 note=70 velocity=63 time=0
EXTRACT: note_on channel=0 note=65 velocity=63 time=0
EXTRACT: note_on channel=0 note=62 velocity=63 time=0
EXTRACT: note_on channel=0 note=58 velocity=63 time=0
EXTRACT: note_on channel=0 note=53 velocity=63 time=0
EXTRACT: note_on channel=0 note=46 velocity=63 time=0
EXTRACT: note_on channel=2 note=58 velocity=79 time=0
EXTRACT: note_off channel=4 note=73 velocity=95 time=0
EXTRACT: note_off channel=4 note=70 velocity=95 time=0
EXTRACT: note_off channel=0 note=70 velocity=63 time=0.14423075
EXTRACT: note_off channel=0 note=65 velocity=63 time=0
EXTRACT: note_off channel=0 note=62 velocity=63 time=0
EXTRACT: note_off channel=0 note=58 velocity=63 time=0
EXTRACT: note_off channel=0 note=53 velocity=63 time=0
EXTRACT: note_off channel=0 note=46 velocity=63 time=0
EXTRACT: note_on channel=0 note=70 velocity=63 time=0
EXTRACT: note_on channel=0 note=65 velocity=63 time=0
EXTRACT: note_on channel=0 note=62 velocity=63 time=0
EXTRACT: note_on channel=0 note=58 velocity=63 time=0
EXTRACT: note_on channel=0 note=53 velocity=63 time=0
EXTRACT: note_on channel=0 note=46 velocity=63 time=0
EXTRACT: note_off channel=2 note=58 velocity=79 time=0
EXTRACT: note_off channel=0 note=70 velocity=63 time=0.14423075
EXTRACT: note_off channel=0 note=65 velocity=63 time=0
EXTRACT: note_off channel=0 note=62 velocity=63 time=0
EXTRACT: note_off channel=0 note=58 velocity=63 time=0
EXTRACT: note_off channel=0 note=53 velocity=63 time=0
EXTRACT: note_off channel=0 note=46 velocity=63 time=0
EXTRACT: note_on channel=0 note=64 velocity=63 time=0
EXTRACT: note_on channel=0 note=59 velocity=63 time=0
EXTRACT: note_on channel=0 note=55 velocity=63 time=0
EXTRACT: note_on channel=0 note=50 velocity=63 time=0
EXTRACT: note_on channel=0 note=45 velocity=63 time=0
EXTRACT: note_on channel=0 note=40 velocity=63 time=0
EXTRACT: note_off channel=0 note=64 velocity=63 time=0.031249995833333332
EXTRACT: note_off channel=0 note=59 velocity=63 time=0
EXTRACT: note_off channel=0 note=55 velocity=63 time=0
EXTRACT: note_off channel=0 note=50 velocity=63 time=0
EXTRACT: note_off channel=0 note=45 velocity=63 time=0
EXTRACT: note_off channel=0 note=40 velocity=63 time=0
EXTRACT: note_on channel=0 note=64 velocity=63 time=0.11298075416666667
EXTRACT: note_on channel=0 note=59 velocity=63 time=0
EXTRACT: note_on channel=0 note=55 velocity=63 time=0
EXTRACT: note_on channel=0 note=50 velocity=63 time=0
EXTRACT: note_on channel=0 note=45 velocity=63 time=0
EXTRACT: note_on channel=0 note=40 velocity=63 time=0
EXTRACT: note_on channel=2 note=56 velocity=79 time=0
EXTRACT: note_on channel=4 note=68 velocity=95 time=0
EXTRACT: note_on channel=4 note=72 velocity=95 time=0
EXTRACT: note_off channel=0 note=64 velocity=63 time=0.031249995833333332
EXTRACT: note_off channel=0 note=59 velocity=63 time=0
EXTRACT: note_off channel=0 note=55 velocity=63 time=0
EXTRACT: note_off channel=0 note=50 velocity=63 time=0
EXTRACT: note_off channel=0 note=45 velocity=63 time=0
EXTRACT: note_off channel=0 note=40 velocity=63 time=0
EXTRACT: note_off channel=2 note=56 velocity=79 time=0.11298075416666667
EXTRACT: note_off channel=4 note=68 velocity=95 time=0
EXTRACT: note_off channel=4 note=72 velocity=95 time=0
EXTRACT: note_on channel=4 note=72 velocity=95 time=0
EXTRACT: note_on channel=4 note=68 velocity=95 time=0
EXTRACT: note_on channel=2 note=56 velocity=79 time=0.14423075
EXTRACT: note_off channel=4 note=72 velocity=95 time=0
EXTRACT: note_off channel=4 note=68 velocity=95 time=0
EXTRACT: note_on channel=4 note=70 velocity=95 time=0
EXTRACT: note_on channel=4 note=73 velocity=95 time=0
EXTRACT: note_on channel=0 note=70 velocity=63 time=0.14423075
EXTRACT: note_on channel=0 note=65 velocity=63 time=0
EXTRACT: note_on channel=0 note=62 velocity=63 time=0
EXTRACT: note_on channel=0 note=58 velocity=63 time=0
EXTRACT: note_on channel=0 note=53 velocity=63 time=0
EXTRACT: note_on channel=0 note=46 velocity=63 time=0
EXTRACT: note_off channel=2 note=56 velocity=79 time=0
EXTRACT: note_off channel=0 note=70 velocity=63 time=0.14423075
EXTRACT: note_off channel=0 note=65 velocity=63 time=0
EXTRACT: note_off channel=0 note=62 velocity=63 time=0
EXTRACT: note_off channel=0 note=58 velocity=63 time=0
EXTRACT: note_off channel=0 note=53 velocity=63 time=0
EXTRACT: note_off channel=0 note=46 velocity=63 time=0
EXTRACT: note_on channel=0 note=70 velocity=63 time=0
EXTRACT: note_on channel=0 note=65 velocity=63 time=0
EXTRACT: note_on channel=0 note=62 velocity=63 time=0
EXTRACT: note_on channel=0 note=58 velocity=63 time=0
EXTRACT: note_on channel=0 note=53 velocity=63 time=0
EXTRACT: note_on channel=0 note=46 velocity=63 time=0
EXTRACT: note_on channel=2 note=53 velocity=79 time=0
EXTRACT: note_off channel=4 note=70 velocity=95 time=0
EXTRACT: note_off channel=4 note=73 velocity=95 time=0
EXTRACT: note_on channel=4 note=73 velocity=95 time=0
EXTRACT: note_on channel=4 note=70 velocity=95 time=0
EXTRACT: note_off channel=0 note=70 velocity=63 time=0.14423075
EXTRACT: note_off channel=0 note=65 velocity=63 time=0
EXTRACT: note_off channel=0 note=62 velocity=63 time=0
EXTRACT: note_off channel=0 note=58 velocity=63 time=0
EXTRACT: note_off channel=0 note=53 velocity=63 time=0
EXTRACT: note_off channel=0 note=46 velocity=63 time=0
EXTRACT: note_on channel=0 note=70 velocity=63 time=0
EXTRACT: note_on channel=0 note=65 velocity=63 time=0
EXTRACT: note_on channel=0 note=62 velocity=63 time=0
EXTRACT: note_on channel=0 note=58 velocity=63 time=0
EXTRACT: note_on channel=0 note=53 velocity=63 time=0
EXTRACT: note_on channel=0 note=46 velocity=63 time=0
EXTRACT: note_off channel=2 note=53 velocity=79 time=0
EXTRACT: note_on channel=2 note=56 velocity=79 time=0
EXTRACT: note_off channel=4 note=73 velocity=95 time=0
EXTRACT: note_off channel=4 note=70 velocity=95 time=0
EXTRACT: note_off channel=0 note=70 velocity=63 time=0.14423075
EXTRACT: note_off channel=0 note=65 velocity=63 time=0
EXTRACT: note_off channel=0 note=62 velocity=63 time=0
EXTRACT: note_off channel=0 note=58 velocity=63 time=0
EXTRACT: note_off channel=0 note=53 velocity=63 time=0
EXTRACT: note_off channel=0 note=46 velocity=63 time=0
EXTRACT: note_on channel=0 note=70 velocity=63 time=0
EXTRACT: note_on channel=0 note=65 velocity=63 time=0
EXTRACT: note_on channel=0 note=62 velocity=63 time=0
EXTRACT: note_on channel=0 note=58 velocity=63 time=0
EXTRACT: note_on channel=0 note=53 velocity=63 time=0
EXTRACT: note_on channel=0 note=46 velocity=63 time=0
EXTRACT: note_off channel=0 note=70 velocity=63 time=0.14423075
EXTRACT: note_off channel=0 note=65 velocity=63 time=0
EXTRACT: note_off channel=0 note=62 velocity=63 time=0
EXTRACT: note_off channel=0 note=58 velocity=63 time=0
EXTRACT: note_off channel=0 note=53 velocity=63 time=0
EXTRACT: note_off channel=0 note=46 velocity=63 time=0
EXTRACT: note_on channel=0 note=64 velocity=63 time=0
EXTRACT: note_on channel=0 note=59 velocity=63 time=0
EXTRACT: note_on channel=0 note=55 velocity=63 time=0
EXTRACT: note_on channel=0 note=50 velocity=63 time=0
EXTRACT: note_on channel=0 note=45 velocity=63 time=0
EXTRACT: note_on channel=0 note=40 velocity=63 time=0
EXTRACT: note_off channel=2 note=56 velocity=79 time=0
EXTRACT: note_on channel=2 note=53 velocity=79 time=0
EXTRACT: note_off channel=0 note=64 velocity=63 time=0.031249995833333332
EXTRACT: note_off channel=0 note=59 velocity=63 time=0
EXTRACT: note_off channel=0 note=55 velocity=63 time=0
EXTRACT: note_off channel=0 note=50 velocity=63 time=0
EXTRACT: note_off channel=0 note=45 velocity=63 time=0
EXTRACT: note_off channel=0 note=40 velocity=63 time=0
EXTRACT: note_on channel=0 note=64 velocity=63 time=0.11298075416666667
EXTRACT: note_on channel=0 note=59 velocity=63 time=0
EXTRACT: note_on channel=0 note=55 velocity=63 time=0
EXTRACT: note_on channel=0 note=50 velocity=63 time=0
EXTRACT: note_on channel=0 note=45 velocity=63 time=0
EXTRACT: note_on channel=0 note=40 velocity=63 time=0
EXTRACT: note_off channel=2 note=53 velocity=79 time=0
EXTRACT: note_on channel=4 note=65 velocity=95 time=0
EXTRACT: note_on channel=4 note=70 velocity=95 time=0
EXTRACT: note_off channel=0 note=64 velocity=63 time=0.031249995833333332
EXTRACT: note_off channel=0 note=59 velocity=63 time=0
EXTRACT: note_off channel=0 note=55 velocity=63 time=0
EXTRACT: note_off channel=0 note=50 velocity=63 time=0
EXTRACT: note_off channel=0 note=45 velocity=63 time=0
EXTRACT: note_off channel=0 note=40 velocity=63 time=0
EXTRACT: note_on channel=2 note=53 velocity=79 time=0.11298075416666667
EXTRACT: note_off channel=4 note=65 velocity=95 time=0
EXTRACT: note_off channel=4 note=70 velocity=95 time=0
EXTRACT: note_on channel=4 note=72 velocity=95 time=0
EXTRACT: note_on channel=4 note=68 velocity=95 time=0
EXTRACT: note_off channel=2 note=53 velocity=79 time=0.14423075
EXTRACT: note_off channel=4 note=72 velocity=95 time=0
EXTRACT: note_off channel=4 note=68 velocity=95 time=0
EXTRACT: note_on channel=4 note=70 velocity=95 time=0
EXTRACT: note_on channel=4 note=73 velocity=95 time=0
EXTRACT: note_on channel=0 note=70 velocity=63 time=0.14423075
EXTRACT: note_on channel=0 note=65 velocity=63 time=0
EXTRACT: note_on channel=0 note=62 velocity=63 time=0
EXTRACT: note_on channel=0 note=58 velocity=63 time=0
EXTRACT: note_on channel=0 note=53 velocity=63 time=0
EXTRACT: note_on channel=0 note=46 velocity=63 time=0
EXTRACT: note_on channel=2 note=58 velocity=79 time=0
EXTRACT: note_off channel=0 note=70 velocity=63 time=0.14423075
EXTRACT: note_off channel=0 note=65 velocity=63 time=0
EXTRACT: note_off channel=0 note=62 velocity=63 time=0
EXTRACT: note_off channel=0 note=58 velocity=63 time=0
EXTRACT: note_off channel=0 note=53 velocity=63 time=0
EXTRACT: note_off channel=0 note=46 velocity=63 time=0
EXTRACT: note_on channel=0 note=70 velocity=63 time=0
EXTRACT: note_on channel=0 note=65 velocity=63 time=0
EXTRACT: note_on channel=0 note=62 velocity=63 time=0
EXTRACT: note_on channel=0 note=58 velocity=63 time=0
EXTRACT: note_on channel=0 note=53 velocity=63 time=0
EXTRACT: note_on channel=0 note=46 velocity=63 time=0
EXTRACT: note_off channel=2 note=58 velocity=79 time=0
EXTRACT: note_off channel=4 note=70 velocity=95 time=0
EXTRACT: note_off channel=4 note=73 velocity=95 time=0
EXTRACT: note_on channel=4 note=73 velocity=95 time=0
EXTRACT: note_on channel=4 note=70 velocity=95 time=0
EXTRACT: note_off channel=0 note=70 velocity=63 time=0.14423075
EXTRACT: note_off channel=0 note=65 velocity=63 time=0
EXTRACT: note_off channel=0 note=62 velocity=63 time=0
EXTRACT: note_off channel=0 note=58 velocity=63 time=0
EXTRACT: note_off channel=0 note=53 velocity=63 time=0
EXTRACT: note_off channel=0 note=46 velocity=63 time=0
EXTRACT: note_on channel=0 note=70 velocity=63 time=0
EXTRACT: note_on channel=0 note=65 velocity=63 time=0
EXTRACT: note_on channel=0 note=62 velocity=63 time=0
EXTRACT: note_on channel=0 note=58 velocity=63 time=0
EXTRACT: note_on channel=0 note=53 velocity=63 time=0
EXTRACT: note_on channel=0 note=46 velocity=63 time=0
EXTRACT: note_on channel=2 note=58 velocity=79 time=0
EXTRACT: note_off channel=0 note=70 velocity=63 time=0.14423075
EXTRACT: note_off channel=0 note=65 velocity=63 time=0
EXTRACT: note_off channel=0 note=62 velocity=63 time=0
EXTRACT: note_off channel=0 note=58 velocity=63 time=0
EXTRACT: note_off channel=0 note=53 velocity=63 time=0
EXTRACT: note_off channel=0 note=46 velocity=63 time=0
EXTRACT: note_on channel=0 note=70 velocity=63 time=0
EXTRACT: note_on channel=0 note=65 velocity=63 time=0
EXTRACT: note_on channel=0 note=62 velocity=63 time=0
EXTRACT: note_on channel=0 note=58 velocity=63 time=0
EXTRACT: note_on channel=0 note=53 velocity=63 time=0
EXTRACT: note_on channel=0 note=46 velocity=63 time=0
EXTRACT: note_off channel=2 note=58 velocity=79 time=0
EXTRACT: note_off channel=4 note=73 velocity=95 time=0
EXTRACT: note_off channel=4 note=70 velocity=95 time=0
EXTRACT: note_on channel=4 note=72 velocity=95 time=0
EXTRACT: note_on channel=4 note=68 velocity=95 time=0
EXTRACT: note_off channel=0 note=70 velocity=63 time=0.14423075
EXTRACT: note_off channel=0 note=65 velocity=63 time=0
EXTRACT: note_off channel=0 note=62 velocity=63 time=0
EXTRACT: note_off channel=0 note=58 velocity=63 time=0
EXTRACT: note_off channel=0 note=53 velocity=63 time=0
EXTRACT: note_off channel=0 note=46 velocity=63 time=0
EXTRACT: note_on channel=0 note=64 velocity=63 time=0
EXTRACT: note_on channel=0 note=59 velocity=63 time=0
EXTRACT: note_on channel=0 note=55 velocity=63 time=0
EXTRACT: note_on channel=0 note=50 velocity=63 time=0
EXTRACT: note_on channel=0 note=45 velocity=63 time=0
EXTRACT: note_on channel=0 note=40 velocity=63 time=0
EXTRACT: note_off channel=0 note=64 velocity=63 time=0.031249995833333332
EXTRACT: note_off channel=0 note=59 velocity=63 time=0
EXTRACT: note_off channel=0 note=55 velocity=63 time=0
EXTRACT: note_off channel=0 note=50 velocity=63 time=0
EXTRACT: note_off channel=0 note=45 velocity=63 time=0
EXTRACT: note_off channel=0 note=40 velocity=63 time=0
EXTRACT: note_on channel=0 note=64 velocity=63 time=0.11298075416666667
EXTRACT: note_on channel=0 note=59 velocity=63 time=0
EXTRACT: note_on channel=0 note=55 velocity=63 time=0
EXTRACT: note_on channel=0 note=50 velocity=63 time=0
EXTRACT: note_on channel=0 note=45 velocity=63 time=0
EXTRACT: note_on channel=0 note=40 velocity=63 time=0
EXTRACT: note_on channel=2 note=56 velocity=79 time=0
EXTRACT: note_off channel=4 note=72 velocity=95 time=0
EXTRACT: note_off channel=4 note=68 velocity=95 time=0
EXTRACT: note_on channel=4 note=72 velocity=95 time=0
EXTRACT: note_on channel=4 note=75 velocity=95 time=0
EXTRACT: note_off channel=0 note=64 velocity=63 time=0.031249995833333332
EXTRACT: note_off channel=0 note=59 velocity=63 time=0
EXTRACT: note_off channel=0 note=55 velocity=63 time=0
EXTRACT: note_off channel=0 note=50 velocity=63 time=0
EXTRACT: note_off channel=0 note=45 velocity=63 time=0
EXTRACT: note_off channel=0 note=40 velocity=63 time=0
EXTRACT: note_off channel=2 note=56 velocity=79 time=0.11298075416666667
EXTRACT: note_on channel=2 note=56 velocity=79 time=0.14423075
EXTRACT: note_off channel=4 note=72 velocity=95 time=0
EXTRACT: note_off channel=4 note=75 velocity=95 time=0
EXTRACT: note_on channel=4 note=73 velocity=95 time=0
EXTRACT: note_on channel=4 note=70 velocity=95 time=0
EXTRACT: note_on channel=0 note=70 velocity=63 time=0.14423075
EXTRACT: note_on channel=0 note=65 velocity=63 time=0
EXTRACT: note_on channel=0 note=62 velocity=63 time=0
EXTRACT: note_on channel=0 note=58 velocity=63 time=0
EXTRACT: note_on channel=0 note=53 velocity=63 time=0
EXTRACT: note_on channel=0 note=46 velocity=63 time=0
EXTRACT: note_off channel=2 note=56 velocity=79 time=0
EXTRACT: note_off channel=0 note=70 velocity=63 time=0.14423075
EXTRACT: note_off channel=0 note=65 velocity=63 time=0
EXTRACT: note_off channel=0 note=62 velocity=63 time=0
EXTRACT: note_off channel=0 note=58 velocity=63 time=0
EXTRACT: note_off channel=0 note=53 velocity=63 time=0
EXTRACT: note_off channel=0 note=46 velocity=63 time=0
EXTRACT: note_on channel=0 note=70 velocity=63 time=0
EXTRACT: note_on channel=0 note=65 velocity=63 time=0
EXTRACT: note_on channel=0 note=62 velocity=63 time=0
EXTRACT: note_on channel=0 note=58 velocity=63 time=0
EXTRACT: note_on channel=0 note=53 velocity=63 time=0
EXTRACT: note_on channel=0 note=46 velocity=63 time=0
EXTRACT: note_on channel=2 note=53 velocity=79 time=0
EXTRACT: note_off channel=4 note=73 velocity=95 time=0
EXTRACT: note_off channel=4 note=70 velocity=95 time=0
EXTRACT: note_on channel=4 note=70 velocity=95 time=0
EXTRACT: note_on channel=4 note=73 velocity=95 time=0
EXTRACT: note_off channel=0 note=70 velocity=63 time=0.14423075
EXTRACT: note_off channel=0 note=65 velocity=63 time=0
EXTRACT: note_off channel=0 note=62 velocity=63 time=0
EXTRACT: note_off channel=0 note=58 velocity=63 time=0
EXTRACT: note_off channel=0 note=53 velocity=63 time=0
EXTRACT: note_off channel=0 note=46 velocity=63 time=0
EXTRACT: note_on channel=0 note=70 velocity=63 time=0
EXTRACT: note_on channel=0 note=65 velocity=63 time=0
EXTRACT: note_on channel=0 note=62 velocity=63 time=0
EXTRACT: note_on channel=0 note=58 velocity=63 time=0
EXTRACT: note_on channel=0 note=53 velocity=63 time=0
EXTRACT: note_on channel=0 note=46 velocity=63 time=0
EXTRACT: note_off channel=2 note=53 velocity=79 time=0
EXTRACT: note_on channel=2 note=56 velocity=79 time=0
EXTRACT: note_off channel=0 note=70 velocity=63 time=0.14423075
EXTRACT: note_off channel=0 note=65 velocity=63 time=0
EXTRACT: note_off channel=0 note=62 velocity=63 time=0
EXTRACT: note_off channel=0 note=58 velocity=63 time=0
EXTRACT: note_off channel=0 note=53 velocity=63 time=0
EXTRACT: note_off channel=0 note=46 velocity=63 time=0
EXTRACT: note_on channel=0 note=70 velocity=63 time=0
EXTRACT: note_on channel=0 note=65 velocity=63 time=0
EXTRACT: note_on channel=0 note=62 velocity=63 time=0
EXTRACT: note_on channel=0 note=58 velocity=63 time=0
EXTRACT: note_on channel=0 note=53 velocity=63 time=0
EXTRACT: note_on channel=0 note=46 velocity=63 time=0
EXTRACT: note_off channel=4 note=70 velocity=95 time=0
EXTRACT: note_off channel=4 note=73 velocity=95 time=0
EXTRACT: note_on channel=4 note=72 velocity=47 time=0
EXTRACT: note_on channel=4 note=68 velocity=47 time=0
EXTRACT: note_off channel=0 note=70 velocity=63 time=0.14423075
EXTRACT: note_off channel=0 note=65 velocity=63 time=0
EXTRACT: note_off channel=0 note=62 velocity=63 time=0
EXTRACT: note_off channel=0 note=58 velocity=63 time=0
EXTRACT: note_off channel=0 note=53 velocity=63 time=0
EXTRACT: note_off channel=0 note=46 velocity=63 time=0
EXTRACT: note_on channel=0 note=64 velocity=63 time=0
EXTRACT: note_on channel=0 note=59 velocity=63 time=0
EXTRACT: note_on channel=0 note=55 velocity=63 time=0
EXTRACT: note_on channel=0 note=50 velocity=63 time=0
EXTRACT: note_on channel=0 note=45 velocity=63 time=0
EXTRACT: note_on channel=0 note=40 velocity=63 time=0
EXTRACT: note_off channel=2 note=56 velocity=79 time=0
EXTRACT: note_on channel=2 note=53 velocity=79 time=0
EXTRACT: note_off channel=4 note=72 velocity=47 time=0
EXTRACT: note_off channel=4 note=68 velocity=47 time=0
EXTRACT: note_off channel=0 note=64 velocity=63 time=0.031249995833333332
EXTRACT: note_off channel=0 note=59 velocity=63 time=0
EXTRACT: note_off channel=0 note=55 velocity=63 time=0
EXTRACT: note_off channel=0 note=50 velocity=63 time=0
EXTRACT: note_off channel=0 note=45 velocity=63 time=0
EXTRACT: note_off channel=0 note=40 velocity=63 time=0
EXTRACT: note_on channel=0 note=64 velocity=63 time=0.11298075416666667
EXTRACT: note_on channel=0 note=59 velocity=63 time=0
EXTRACT: note_on channel=0 note=55 velocity=63 time=0
EXTRACT: note_on channel=0 note=50 velocity=63 time=0
EXTRACT: note_on channel=0 note=45 velocity=63 time=0
EXTRACT: note_on channel=0 note=40 velocity=63 time=0
EXTRACT: note_off channel=2 note=53 velocity=79 time=0
EXTRACT: note_off channel=0 note=64 velocity=63 time=0.031249995833333332
EXTRACT: note_off channel=0 note=59 velocity=63 time=0
EXTRACT: note_off channel=0 note=55 velocity=63 time=0
EXTRACT: note_off channel=0 note=50 velocity=63 time=0
EXTRACT: note_off channel=0 note=45 velocity=63 time=0
EXTRACT: note_off channel=0 note=40 velocity=63 time=0
EXTRACT: note_on channel=0 note=72 velocity=63 time=0.11298075416666667
EXTRACT: note_on channel=0 note=68 velocity=63 time=0
EXTRACT: note_on channel=0 note=65 velocity=63 time=0
EXTRACT: note_on channel=0 note=60 velocity=63 time=0
EXTRACT: note_on channel=0 note=53 velocity=63 time=0
EXTRACT: note_on channel=4 note=67 velocity=95 time=0
EXTRACT: note_on channel=4 note=61 velocity=95 time=0
EXTRACT: note_on channel=4 note=70 velocity=95 time=0
EXTRACT: note_off channel=0 note=72 velocity=63 time=0.14423075
EXTRACT: note_off channel=0 note=68 velocity=63 time=0
EXTRACT: note_off channel=0 note=65 velocity=63 time=0
EXTRACT: note_off channel=0 note=60 velocity=63 time=0
EXTRACT: note_off channel=0 note=53 velocity=63 time=0
EXTRACT: note_on channel=0 note=72 velocity=63 time=0
EXTRACT: note_on channel=0 note=68 velocity=63 time=0
EXTRACT: note_on channel=0 note=65 velocity=63 time=0
EXTRACT: note_on channel=0 note=60 velocity=63 time=0
EXTRACT: note_on channel=0 note=53 velocity=63 time=0
EXTRACT: note_off channel=4 note=67 velocity=95 time=0
EXTRACT: note_off channel=4 note=61 velocity=95 time=0
EXTRACT: note_off channel=4 note=70 velocity=95 time=0
EXTRACT: note_on channel=4 note=72 velocity=95 time=0
EXTRACT: note_on channel=4 note=68 velocity=95 time=0
EXTRACT: note_on channel=4 note=63 velocity=95 time=0
EXTRACT: note_off channel=0 note=72 velocity=63 time=0.14423075
EXTRACT: note_off channel=0 note=68 velocity=63 time=0
EXTRACT: note_off channel=0 note=65 velocity=63 time=0
EXTRACT: note_off channel=0 note=60 velocity=63 time=0
EXTRACT: note_off channel=0 note=53 velocity=63 time=0
EXTRACT: note_on channel=0 note=64 velocity=63 time=0
EXTRACT: note_on channel=0 note=59 velocity=63 time=0
EXTRACT: note_on channel=0 note=55 velocity=63 time=0
EXTRACT: note_on channel=0 note=50 velocity=63 time=0
EXTRACT: note_on channel=0 note=45 velocity=63 time=0
EXTRACT: note_off channel=4 note=72 velocity=95 time=0
EXTRACT: note_off channel=4 note=68 velocity=95 time=0
EXTRACT: note_off channel=4 note=63 velocity=95 time=0
EXTRACT: note_on channel=4 note=72 velocity=95 time=0
EXTRACT: note_on channel=4 note=68 velocity=95 time=0
EXTRACT: note_on channel=4 note=63 velocity=95 time=0
EXTRACT: note_off channel=0 note=64 velocity=63 time=0.031249995833333332
EXTRACT: note_off channel=0 note=59 velocity=63 time=0
EXTRACT: note_off channel=0 note=55 velocity=63 time=0
EXTRACT: note_off channel=0 note=50 velocity=63 time=0
EXTRACT: note_off channel=0 note=45 velocity=63 time=0
EXTRACT: note_on channel=0 note=64 velocity=63 time=0.11298075416666667
EXTRACT: note_on channel=0 note=59 velocity=63 time=0
EXTRACT: note_on channel=0 note=55 velocity=63 time=0
EXTRACT: note_on channel=0 note=50 velocity=63 time=0
EXTRACT: note_on channel=0 note=45 velocity=63 time=0
EXTRACT: note_off channel=4 note=72 velocity=95 time=0
EXTRACT: note_off channel=4 note=68 velocity=95 time=0
EXTRACT: note_off channel=4 note=63 velocity=95 time=0
EXTRACT: note_on channel=4 note=72 velocity=95 time=0
EXTRACT: note_on channel=4 note=68 velocity=95 time=0
EXTRACT: note_on channel=4 note=63 velocity=95 time=0
EXTRACT: note_off channel=0 note=64 velocity=63 time=0.031249995833333332
EXTRACT: note_off channel=0 note=59 velocity=63 time=0
EXTRACT: note_off channel=0 note=55 velocity=63 time=0
EXTRACT: note_off channel=0 note=50 velocity=63 time=0
EXTRACT: note_off channel=0 note=45 velocity=63 time=0
EXTRACT: note_on channel=0 note=72 velocity=63 time=0.11298075416666667
EXTRACT: note_on channel=0 note=68 velocity=63 time=0
EXTRACT: note_on channel=0 note=65 velocity=63 time=0
EXTRACT: note_on channel=0 note=60 velocity=63 time=0
EXTRACT: note_on channel=0 note=53 velocity=63 time=0
EXTRACT: note_off channel=4 note=72 velocity=95 time=0
EXTRACT: note_off channel=4 note=68 velocity=95 time=0
EXTRACT: note_off channel=4 note=63 velocity=95 time=0
EXTRACT: note_on channel=4 note=72 velocity=95 time=0
EXTRACT: note_on channel=4 note=68 velocity=95 time=0
EXTRACT: note_on channel=4 note=63 velocity=95 time=0
EXTRACT: note_off channel=0 note=72 velocity=63 time=0.14423075
EXTRACT: note_off channel=0 note=68 velocity=63 time=0
EXTRACT: note_off channel=0 note=65 velocity=63 time=0
EXTRACT: note_off channel=0 note=60 velocity=63 time=0
EXTRACT: note_off channel=0 note=53 velocity=63 time=0
EXTRACT: note_on channel=0 note=72 velocity=63 time=0
EXTRACT: note_on channel=0 note=68 velocity=63 time=0
EXTRACT: note_on channel=0 note=65 velocity=63 time=0
EXTRACT: note_on channel=0 note=60 velocity=63 time=0
EXTRACT: note_on channel=0 note=53 velocity=63 time=0
EXTRACT: note_off channel=4 note=72 velocity=95 time=0
EXTRACT: note_off channel=4 note=68 velocity=95 time=0
EXTRACT: note_off channel=4 note=63 velocity=95 time=0
EXTRACT: note_on channel=4 note=67 velocity=95 time=0
EXTRACT: note_on channel=4 note=61 velocity=95 time=0
EXTRACT: note_on channel=4 note=70 velocity=95 time=0
EXTRACT: note_off channel=0 note=72 velocity=63 time=0.14423075
EXTRACT: note_off channel=0 note=68 velocity=63 time=0
EXTRACT: note_off channel=0 note=65 velocity=63 time=0
EXTRACT: note_off channel=0 note=60 velocity=63 time=0
EXTRACT: note_off channel=0 note=53 velocity=63 time=0
EXTRACT: note_on channel=0 note=64 velocity=63 time=0
EXTRACT: note_on channel=0 note=59 velocity=63 time=0
EXTRACT: note_on channel=0 note=55 velocity=63 time=0
EXTRACT: note_on channel=0 note=50 velocity=63 time=0
EXTRACT: note_on channel=0 note=45 velocity=63 time=0
EXTRACT: note_off channel=4 note=67 velocity=95 time=0
EXTRACT: note_off channel=4 note=61 velocity=95 time=0
EXTRACT: note_off channel=4 note=70 velocity=95 time=0
EXTRACT: note_on channel=4 note=67 velocity=95 time=0
EXTRACT: note_on channel=4 note=61 velocity=95 time=0
EXTRACT: note_on channel=4 note=70 velocity=95 time=0
EXTRACT: note_off channel=0 note=64 velocity=63 time=0.031249995833333332
EXTRACT: note_off channel=0 note=59 velocity=63 time=0
EXTRACT: note_off channel=0 note=55 velocity=63 time=0
EXTRACT: note_off channel=0 note=50 velocity=63 time=0
EXTRACT: note_off channel=0 note=45 velocity=63 time=0
EXTRACT: note_on channel=0 note=64 velocity=63 time=0.11298075416666667
EXTRACT: note_on channel=0 note=59 velocity=63 time=0
EXTRACT: note_on channel=0 note=55 velocity=63 time=0
EXTRACT: note_on channel=0 note=50 velocity=63 time=0
EXTRACT: note_on channel=0 note=45 velocity=63 time=0
EXTRACT: note_off channel=4 note=67 velocity=95 time=0
EXTRACT: note_off channel=4 note=61 velocity=95 time=0
EXTRACT: note_off channel=4 note=70 velocity=95 time=0
EXTRACT: note_on channel=4 note=67 velocity=95 time=0
EXTRACT: note_on channel=4 note=61 velocity=95 time=0
EXTRACT: note_on channel=4 note=70 velocity=95 time=0
EXTRACT: note_off channel=0 note=64 velocity=63 time=0.031249995833333332
EXTRACT: note_off channel=0 note=59 velocity=63 time=0
EXTRACT: note_off channel=0 note=55 velocity=63 time=0
EXTRACT: note_off channel=0 note=50 velocity=63 time=0
EXTRACT: note_off channel=0 note=45 velocity=63 time=0
EXTRACT: note_on channel=0 note=72 velocity=63 time=0.11298075416666667
EXTRACT: note_on channel=0 note=68 velocity=63 time=0
EXTRACT: note_on channel=0 note=65 velocity=63 time=0
EXTRACT: note_on channel=0 note=60 velocity=63 time=0
EXTRACT: note_on channel=0 note=53 velocity=63 time=0
EXTRACT: note_off channel=0 note=72 velocity=63 time=0.14423075
EXTRACT: note_off channel=0 note=68 velocity=63 time=0
EXTRACT: note_off channel=0 note=65 velocity=63 time=0
EXTRACT: note_off channel=0 note=60 velocity=63 time=0
EXTRACT: note_off channel=0 note=53 velocity=63 time=0
EXTRACT: note_on channel=0 note=72 velocity=63 time=0
EXTRACT: note_on channel=0 note=68 velocity=63 time=0
EXTRACT: note_on channel=0 note=65 velocity=63 time=0
EXTRACT: note_on channel=0 note=60 velocity=63 time=0
EXTRACT: note_on channel=0 note=53 velocity=63 time=0
EXTRACT: note_off channel=4 note=67 velocity=95 time=0
EXTRACT: note_off channel=4 note=61 velocity=95 time=0
EXTRACT: note_off channel=4 note=70 velocity=95 time=0
EXTRACT: note_on channel=4 note=68 velocity=95 time=0
EXTRACT: note_on channel=4 note=65 velocity=95 time=0
EXTRACT: note_on channel=4 note=60 velocity=95 time=0
EXTRACT: note_off channel=0 note=72 velocity=63 time=0.14423075
EXTRACT: note_off channel=0 note=68 velocity=63 time=0
EXTRACT: note_off channel=0 note=65 velocity=63 time=0
EXTRACT: note_off channel=0 note=60 velocity=63 time=0
EXTRACT: note_off channel=0 note=53 velocity=63 time=0
EXTRACT: note_on channel=0 note=64 velocity=63 time=0
EXTRACT: note_on channel=0 note=59 velocity=63 time=0
EXTRACT: note_on channel=0 note=55 velocity=63 time=0
EXTRACT: note_on channel=0 note=50 velocity=63 time=0
EXTRACT: note_on channel=0 note=45 velocity=63 time=0
EXTRACT: note_off channel=4 note=68 velocity=95 time=0
EXTRACT: note_off channel=4 note=65 velocity=95 time=0
EXTRACT: note_off channel=4 note=60 velocity=95 time=0
EXTRACT: note_on channel=4 note=68 velocity=95 time=0
EXTRACT: note_on channel=4 note=65 velocity=95 time=0
EXTRACT: note_on channel=4 note=60 velocity=95 time=0
EXTRACT: note_off channel=0 note=64 velocity=63 time=0.031249995833333332
EXTRACT: note_off channel=0 note=59 velocity=63 time=0
EXTRACT: note_off channel=0 note=55 velocity=63 time=0
EXTRACT: note_off channel=0 note=50 velocity=63 time=0
EXTRACT: note_off channel=0 note=45 velocity=63 time=0
EXTRACT: note_on channel=0 note=64 velocity=63 time=0.11298075416666667
EXTRACT: note_on channel=0 note=59 velocity=63 time=0
EXTRACT: note_on channel=0 note=55 velocity=63 time=0
EXTRACT: note_on channel=0 note=50 velocity=63 time=0
EXTRACT: note_on channel=0 note=45 velocity=63 time=0
EXTRACT: note_on channel=2 note=72 velocity=79 time=0
EXTRACT: note_on channel=2 note=68 velocity=79 time=0
EXTRACT: note_on channel=2 note=65 velocity=79 time=0
EXTRACT: note_off channel=4 note=68 velocity=95 time=0
EXTRACT: note_off channel=4 note=65 velocity=95 time=0
EXTRACT: note_off channel=4 note=60 velocity=95 time=0
EXTRACT: note_on channel=4 note=68 velocity=95 time=0
EXTRACT: note_on channel=4 note=65 velocity=95 time=0
EXTRACT: note_on channel=4 note=60 velocity=95 time=0
EXTRACT: note_off channel=0 note=64 velocity=63 time=0.031249995833333332
EXTRACT: note_off channel=0 note=59 velocity=63 time=0
EXTRACT: note_off channel=0 note=55 velocity=63 time=0
EXTRACT: note_off channel=0 note=50 velocity=63 time=0
EXTRACT: note_off channel=0 note=45 velocity=63 time=0
EXTRACT: note_on channel=0 note=72 velocity=63 time=0.11298075416666667
EXTRACT: note_on channel=0 note=68 velocity=63 time=0
EXTRACT: note_on channel=0 note=65 velocity=63 time=0
EXTRACT: note_on channel=0 note=60 velocity=63 time=0
EXTRACT: note_on channel=0 note=53 velocity=63 time=0
EXTRACT: note_off channel=2 note=72 velocity=79 time=0
EXTRACT: note_off channel=2 note=68 velocity=79 time=0
EXTRACT: note_off channel=2 note=65 velocity=79 time=0
EXTRACT: note_off channel=4 note=68 velocity=95 time=0
EXTRACT: note_off channel=4 note=65 velocity=95 time=0
EXTRACT: note_off channel=4 note=60 velocity=95 time=0
EXTRACT: note_on channel=4 note=68 velocity=95 time=0
EXTRACT: note_on channel=4 note=65 velocity=95 time=0
EXTRACT: note_on channel=4 note=60 velocity=95 time=0
EXTRACT: note_off channel=0 note=72 velocity=63 time=0.14423075
EXTRACT: note_off channel=0 note=68 velocity=63 time=0
EXTRACT: note_off channel=0 note=65 velocity=63 time=0
EXTRACT: note_off channel=0 note=60 velocity=63 time=0
EXTRACT: note_off channel=0 note=53 velocity=63 time=0
EXTRACT: note_on channel=0 note=72 velocity=63 time=0
EXTRACT: note_on channel=0 note=68 velocity=63 time=0
EXTRACT: note_on channel=0 note=65 velocity=63 time=0
EXTRACT: note_on channel=0 note=60 velocity=63 time=0
EXTRACT: note_on channel=0 note=53 velocity=63 time=0
EXTRACT: note_off channel=4 note=68 velocity=95 time=0
EXTRACT: note_off channel=4 note=65 velocity=95 time=0
EXTRACT: note_off channel=4 note=60 velocity=95 time=0
EXTRACT: note_on channel=4 note=67 velocity=95 time=0
EXTRACT: note_on channel=4 note=63 velocity=95 time=0
EXTRACT: note_on channel=4 note=58 velocity=95 time=0
EXTRACT: note_off channel=0 note=72 velocity=63 time=0.14423075
EXTRACT: note_off channel=0 note=68 velocity=63 time=0
EXTRACT: note_off channel=0 note=65 velocity=63 time=0
EXTRACT: note_off channel=0 note=60 velocity=63 time=0
EXTRACT: note_off channel=0 note=53 velocity=63 time=0
EXTRACT: note_on channel=0 note=64 velocity=63 time=0
EXTRACT: note_on channel=0 note=59 velocity=63 time=0
EXTRACT: note_on channel=0 note=55 velocity=63 time=0
EXTRACT: note_on channel=0 note=50 velocity=63 time=0
EXTRACT: note_on channel=0 note=45 velocity=63 time=0
EXTRACT: note_off channel=4 note=67 velocity=95 time=0
EXTRACT: note_off channel=4 note=63 velocity=95 time=0
EXTRACT: note_off channel=4 note=58 velocity=95 time=0
EXTRACT: note_on channel=4 note=67 velocity=95 time=0
EXTRACT: note_on channel=4 note=63 velocity=95 time=0
EXTRACT: note_on channel=4 note=58 velocity=95 time=0
EXTRACT: note_off channel=0 note=64 velocity=63 time=0.031249995833333332
EXTRACT: note_off channel=0 note=59 velocity=63 time=0
EXTRACT: note_off channel=0 note=55 velocity=63 time=0
EXTRACT: note_off channel=0 note=50 velocity=63 time=0
EXTRACT: note_off channel=0 note=45 velocity=63 time=0
EXTRACT: note_on channel=0 note=64 velocity=63 time=0.11298075416666667
EXTRACT: note_on channel=0 note=59 velocity=63 time=0
EXTRACT: note_on channel=0 note=55 velocity=63 time=0
EXTRACT: note_on channel=0 note=50 velocity=63 time=0
EXTRACT: note_on channel=0 note=45 velocity=63 time=0
EXTRACT: note_off channel=4 note=67 velocity=95 time=0
EXTRACT: note_off channel=4 note=63 velocity=95 time=0
EXTRACT: note_off channel=4 note=58 velocity=95 time=0
EXTRACT: note_on channel=4 note=67 velocity=95 time=0
EXTRACT: note_on channel=4 note=63 velocity=95 time=0
EXTRACT: note_on channel=4 note=58 velocity=95 time=0
EXTRACT: note_off channel=0 note=64 velocity=63 time=0.031249995833333332
EXTRACT: note_off channel=0 note=59 velocity=63 time=0
EXTRACT: note_off channel=0 note=55 velocity=63 time=0
EXTRACT: note_off channel=0 note=50 velocity=63 time=0
EXTRACT: note_off channel=0 note=45 velocity=63 time=0
EXTRACT: note_on channel=0 note=72 velocity=63 time=0.11298075416666667
EXTRACT: note_on channel=0 note=68 velocity=63 time=0
EXTRACT: note_on channel=0 note=65 velocity=63 time=0
EXTRACT: note_on channel=0 note=60 velocity=63 time=0
EXTRACT: note_on channel=0 note=53 velocity=63 time=0
EXTRACT: note_off channel=0 note=72 velocity=63 time=0.14423075
EXTRACT: note_off channel=0 note=68 velocity=63 time=0
EXTRACT: note_off channel=0 note=65 velocity=63 time=0
EXTRACT: note_off channel=0 note=60 velocity=63 time=0
EXTRACT: note_off channel=0 note=53 velocity=63 time=0
EXTRACT: note_on channel=0 note=72 velocity=63 time=0
EXTRACT: note_on channel=0 note=68 velocity=63 time=0
EXTRACT: note_on channel=0 note=65 velocity=63 time=0
EXTRACT: note_on channel=0 note=60 velocity=63 time=0
EXTRACT: note_on channel=0 note=53 velocity=63 time=0
EXTRACT: note_off channel=4 note=67 velocity=95 time=0
EXTRACT: note_off channel=4 note=63 velocity=95 time=0
EXTRACT: note_off channel=4 note=58 velocity=95 time=0
EXTRACT: note_on channel=4 note=68 velocity=95 time=0
EXTRACT: note_on channel=4 note=65 velocity=95 time=0
EXTRACT: note_on channel=4 note=60 velocity=95 time=0
EXTRACT: note_off channel=0 note=72 velocity=63 time=0.14423075
EXTRACT: note_off channel=0 note=68 velocity=63 time=0
EXTRACT: note_off channel=0 note=65 velocity=63 time=0
EXTRACT: note_off channel=0 note=60 velocity=63 time=0
EXTRACT: note_off channel=0 note=53 velocity=63 time=0
EXTRACT: note_on channel=0 note=64 velocity=63 time=0
EXTRACT: note_on channel=0 note=59 velocity=63 time=0
EXTRACT: note_on channel=0 note=55 velocity=63 time=0
EXTRACT: note_on channel=0 note=50 velocity=63 time=0
EXTRACT: note_on channel=0 note=45 velocity=63 time=0
EXTRACT: note_on channel=2 note=72 velocity=79 time=0
EXTRACT: note_on channel=2 note=68 velocity=79 time=0
EXTRACT: note_on channel=2 note=65 velocity=79 time=0
EXTRACT: note_off channel=4 note=68 velocity=95 time=0
EXTRACT: note_off channel=4 note=65 velocity=95 time=0
EXTRACT: note_off channel=4 note=60 velocity=95 time=0
EXTRACT: note_on channel=4 note=68 velocity=95 time=0
EXTRACT: note_on channel=4 note=65 velocity=95 time=0
EXTRACT: note_on channel=4 note=60 velocity=95 time=0
EXTRACT: note_off channel=0 note=64 velocity=63 time=0.031249995833333332
EXTRACT: note_off channel=0 note=59 velocity=63 time=0
EXTRACT: note_off channel=0 note=55 velocity=63 time=0
EXTRACT: note_off channel=0 note=50 velocity=63 time=0
EXTRACT: note_off channel=0 note=45 velocity=63 time=0
EXTRACT: note_on channel=0 note=64 velocity=63 time=0.11298075416666667
EXTRACT: note_on channel=0 note=59 velocity=63 time=0
EXTRACT: note_on channel=0 note=55 velocity=63 time=0
EXTRACT: note_on channel=0 note=50 velocity=63 time=0
EXTRACT: note_on channel=0 note=45 velocity=63 time=0
EXTRACT: note_off channel=2 note=72 velocity=79 time=0
EXTRACT: note_off channel=2 note=68 velocity=79 time=0
EXTRACT: note_off channel=2 note=65 velocity=79 time=0
EXTRACT: note_on channel=2 note=72 velocity=79 time=0
EXTRACT: note_on channel=2 note=68 velocity=79 time=0
EXTRACT: note_on channel=2 note=65 velocity=79 time=0
EXTRACT: note_off channel=4 note=68 velocity=95 time=0
EXTRACT: note_off channel=4 note=65 velocity=95 time=0
EXTRACT: note_off channel=4 note=60 velocity=95 time=0
EXTRACT: note_on channel=4 note=68 velocity=95 time=0
EXTRACT: note_on channel=4 note=65 velocity=95 time=0
EXTRACT: note_on channel=4 note=60 velocity=95 time=0
EXTRACT: note_off channel=0 note=64 velocity=63 time=0.031249995833333332
EXTRACT: note_off channel=0 note=59 velocity=63 time=0
EXTRACT: note_off channel=0 note=55 velocity=63 time=0
EXTRACT: note_off channel=0 note=50 velocity=63 time=0
EXTRACT: note_off channel=0 note=45 velocity=63 time=0
EXTRACT: note_on channel=0 note=72 velocity=63 time=0.11298075416666667
EXTRACT: note_on channel=0 note=68 velocity=63 time=0
EXTRACT: note_on channel=0 note=65 velocity=63 time=0
EXTRACT: note_on channel=0 note=60 velocity=63 time=0
EXTRACT: note_on channel=0 note=53 velocity=63 time=0
EXTRACT: note_off channel=2 note=72 velocity=79 time=0
EXTRACT: note_off channel=2 note=68 velocity=79 time=0
EXTRACT: note_off channel=2 note=65 velocity=79 time=0
EXTRACT: note_on channel=2 note=72 velocity=79 time=0
EXTRACT: note_on channel=2 note=68 velocity=79 time=0
EXTRACT: note_on channel=2 note=65 velocity=79 time=0
EXTRACT: note_off channel=4 note=68 velocity=95 time=0
EXTRACT: note_off channel=4 note=65 velocity=95 time=0
EXTRACT: note_off channel=4 note=60 velocity=95 time=0
EXTRACT: note_off channel=0 note=72 velocity=63 time=0.14423075
EXTRACT: note_off channel=0 note=68 velocity=63 time=0
EXTRACT: note_off channel=0 note=65 velocity=63 time=0
EXTRACT: note_off channel=0 note=60 velocity=63 time=0
EXTRACT: note_off channel=0 note=53 velocity=63 time=0
EXTRACT: note_on channel=0 note=72 velocity=63 time=0
EXTRACT: note_on channel=0 note=68 velocity=63 time=0
EXTRACT: note_on channel=0 note=65 velocity=63 time=0
EXTRACT: note_on channel=0 note=60 velocity=63 time=0
EXTRACT: note_on channel=0 note=53 velocity=63 time=0
EXTRACT: note_off channel=2 note=72 velocity=79 time=0
EXTRACT: note_off channel=2 note=68 velocity=79 time=0
EXTRACT: note_off channel=2 note=65 velocity=79 time=0
EXTRACT: note_on channel=2 note=72 velocity=79 time=0
EXTRACT: note_on channel=2 note=68 velocity=79 time=0
EXTRACT: note_on channel=2 note=65 velocity=79 time=0
EXTRACT: note_off channel=0 note=72 velocity=63 time=0.14423075
EXTRACT: note_off channel=0 note=68 velocity=63 time=0
EXTRACT: note_off channel=0 note=65 velocity=63 time=0
EXTRACT: note_off channel=0 note=60 velocity=63 time=0
EXTRACT: note_off channel=0 note=53 velocity=63 time=0
EXTRACT: note_on channel=0 note=64 velocity=63 time=0
EXTRACT: note_on channel=0 note=59 velocity=63 time=0
EXTRACT: note_on channel=0 note=55 velocity=63 time=0
EXTRACT: note_on channel=0 note=50 velocity=63 time=0
EXTRACT: note_on channel=0 note=45 velocity=63 time=0
EXTRACT: note_off channel=2 note=72 velocity=79 time=0
EXTRACT: note_off channel=2 note=68 velocity=79 time=0
EXTRACT: note_off channel=2 note=65 velocity=79 time=0
EXTRACT: note_off channel=0 note=64 velocity=63 time=0.031249995833333332
EXTRACT: note_off channel=0 note=59 velocity=63 time=0
EXTRACT: note_off channel=0 note=55 velocity=63 time=0
EXTRACT: note_off channel=0 note=50 velocity=63 time=0
EXTRACT: note_off channel=0 note=45 velocity=63 time=0
EXTRACT: note_on channel=0 note=64 velocity=63 time=0.11298075416666667
EXTRACT: note_on channel=0 note=59 velocity=63 time=0
EXTRACT: note_on channel=0 note=55 velocity=63 time=0
EXTRACT: note_on channel=0 note=50 velocity=63 time=0
EXTRACT: note_on channel=0 note=45 velocity=63 time=0
EXTRACT: note_off channel=0 note=64 velocity=63 time=0.031249995833333332
EXTRACT: note_off channel=0 note=59 velocity=63 time=0
EXTRACT: note_off channel=0 note=55 velocity=63 time=0
EXTRACT: note_off channel=0 note=50 velocity=63 time=0
EXTRACT: note_off channel=0 note=45 velocity=63 time=0
EXTRACT: note_on channel=0 note=72 velocity=63 time=0.11298075416666667
EXTRACT: note_on channel=0 note=68 velocity=63 time=0
EXTRACT: note_on channel=0 note=65 velocity=63 time=0
EXTRACT: note_on channel=0 note=60 velocity=63 time=0
EXTRACT: note_on channel=0 note=53 velocity=63 time=0
EXTRACT: note_on channel=4 note=67 velocity=95 time=0
EXTRACT: note_on channel=4 note=63 velocity=95 time=0
EXTRACT: note_on channel=4 note=58 velocity=95 time=0
EXTRACT: note_off channel=0 note=72 velocity=63 time=0.14423075
EXTRACT: note_off channel=0 note=68 velocity=63 time=0
EXTRACT: note_off channel=0 note=65 velocity=63 time=0
EXTRACT: note_off channel=0 note=60 velocity=63 time=0
EXTRACT: note_off channel=0 note=53 velocity=63 time=0
EXTRACT: note_on channel=0 note=72 velocity=63 time=0
EXTRACT: note_on channel=0 note=68 velocity=63 time=0
EXTRACT: note_on channel=0 note=65 velocity=63 time=0
EXTRACT: note_on channel=0 note=60 velocity=63 time=0
EXTRACT: note_on channel=0 note=53 velocity=63 time=0
EXTRACT: note_off channel=4 note=67 velocity=95 time=0
EXTRACT: note_off channel=4 note=63 velocity=95 time=0
EXTRACT: note_off channel=4 note=58 velocity=95 time=0
EXTRACT: note_on channel=4 note=68 velocity=95 time=0
EXTRACT: note_on channel=4 note=65 velocity=95 time=0
EXTRACT: note_on channel=4 note=60 velocity=95 time=0
EXTRACT: note_off channel=0 note=72 velocity=63 time=0.14423075
EXTRACT: note_off channel=0 note=68 velocity=63 time=0
EXTRACT: note_off channel=0 note=65 velocity=63 time=0
EXTRACT: note_off channel=0 note=60 velocity=63 time=0
EXTRACT: note_off channel=0 note=53 velocity=63 time=0
EXTRACT: note_on channel=0 note=64 velocity=63 time=0
EXTRACT: note_on channel=0 note=59 velocity=63 time=0
EXTRACT: note_on channel=0 note=55 velocity=63 time=0
EXTRACT: note_on channel=0 note=50 velocity=63 time=0
EXTRACT: note_on channel=0 note=45 velocity=63 time=0
EXTRACT: note_on channel=2 note=72 velocity=79 time=0
EXTRACT: note_on channel=2 note=68 velocity=79 time=0
EXTRACT: note_on channel=2 note=65 velocity=79 time=0
EXTRACT: note_off channel=4 note=68 velocity=95 time=0
EXTRACT: note_off channel=4 note=65 velocity=95 time=0
EXTRACT: note_off channel=4 note=60 velocity=95 time=0
EXTRACT: note_on channel=4 note=68 velocity=95 time=0
EXTRACT: note_on channel=4 note=65 velocity=95 time=0
EXTRACT: note_on channel=4 note=60 velocity=95 time=0
EXTRACT: note_off channel=0 note=64 velocity=63 time=0.031249995833333332
EXTRACT: note_off channel=0 note=59 velocity=63 time=0
EXTRACT: note_off channel=0 note=55 velocity=63 time=0
EXTRACT: note_off channel=0 note=50 velocity=63 time=0
EXTRACT: note_off channel=0 note=45 velocity=63 time=0
EXTRACT: note_on channel=0 note=64 velocity=63 time=0.11298075416666667
EXTRACT: note_on channel=0 note=59 velocity=63 time=0
EXTRACT: note_on channel=0 note=55 velocity=63 time=0
EXTRACT: note_on channel=0 note=50 velocity=63 time=0
EXTRACT: note_on channel=0 note=45 velocity=63 time=0
EXTRACT: note_off channel=2 note=72 velocity=79 time=0
EXTRACT: note_off channel=2 note=68 velocity=79 time=0
EXTRACT: note_off channel=2 note=65 velocity=79 time=0
EXTRACT: note_on channel=2 note=72 velocity=79 time=0
EXTRACT: note_on channel=2 note=68 velocity=79 time=0
EXTRACT: note_on channel=2 note=65 velocity=79 time=0
EXTRACT: note_off channel=4 note=68 velocity=95 time=0
EXTRACT: note_off channel=4 note=65 velocity=95 time=0
EXTRACT: note_off channel=4 note=60 velocity=95 time=0
EXTRACT: note_on channel=4 note=68 velocity=95 time=0
EXTRACT: note_on channel=4 note=65 velocity=95 time=0
EXTRACT: note_on channel=4 note=60 velocity=95 time=0
EXTRACT: note_off channel=0 note=64 velocity=63 time=0.031249995833333332
EXTRACT: note_off channel=0 note=59 velocity=63 time=0
EXTRACT: note_off channel=0 note=55 velocity=63 time=0
EXTRACT: note_off channel=0 note=50 velocity=63 time=0
EXTRACT: note_off channel=0 note=45 velocity=63 time=0
EXTRACT: note_on channel=0 note=72 velocity=63 time=0.11298075416666667
EXTRACT: note_on channel=0 note=68 velocity=63 time=0
EXTRACT: note_on channel=0 note=65 velocity=63 time=0
EXTRACT: note_on channel=0 note=60 velocity=63 time=0
EXTRACT: note_on channel=0 note=53 velocity=63 time=0
EXTRACT: note_off channel=2 note=72 velocity=79 time=0
EXTRACT: note_off channel=2 note=68 velocity=79 time=0
EXTRACT: note_off channel=2 note=65 velocity=79 time=0
EXTRACT: note_on channel=2 note=72 velocity=79 time=0
EXTRACT: note_on channel=2 note=68 velocity=79 time=0
EXTRACT: note_on channel=2 note=65 velocity=79 time=0
EXTRACT: note_off channel=4 note=68 velocity=95 time=0
EXTRACT: note_off channel=4 note=65 velocity=95 time=0
EXTRACT: note_off channel=4 note=60 velocity=95 time=0
EXTRACT: note_off channel=0 note=72 velocity=63 time=0.14423075
EXTRACT: note_off channel=0 note=68 velocity=63 time=0
EXTRACT: note_off channel=0 note=65 velocity=63 time=0
EXTRACT: note_off channel=0 note=60 velocity=63 time=0
EXTRACT: note_off channel=0 note=53 velocity=63 time=0
EXTRACT: note_on channel=0 note=72 velocity=63 time=0
EXTRACT: note_on channel=0 note=68 velocity=63 time=0
EXTRACT: note_on channel=0 note=65 velocity=63 time=0
EXTRACT: note_on channel=0 note=60 velocity=63 time=0
EXTRACT: note_on channel=0 note=53 velocity=63 time=0
EXTRACT: note_off channel=2 note=72 velocity=79 time=0
EXTRACT: note_off channel=2 note=68 velocity=79 time=0
EXTRACT: note_off channel=2 note=65 velocity=79 time=0
EXTRACT: note_on channel=2 note=72 velocity=79 time=0
EXTRACT: note_on channel=2 note=68 velocity=79 time=0
EXTRACT: note_on channel=2 note=65 velocity=79 time=0
EXTRACT: note_off channel=0 note=72 velocity=63 time=0.14423075
EXTRACT: note_off channel=0 note=68 velocity=63 time=0
EXTRACT: note_off channel=0 note=65 velocity=63 time=0
EXTRACT: note_off channel=0 note=60 velocity=63 time=0
EXTRACT: note_off channel=0 note=53 velocity=63 time=0
EXTRACT: note_on channel=0 note=64 velocity=63 time=0
EXTRACT: note_on channel=0 note=59 velocity=63 time=0
EXTRACT: note_on channel=0 note=55 velocity=63 time=0
EXTRACT: note_on channel=0 note=50 velocity=63 time=0
EXTRACT: note_on channel=0 note=45 velocity=63 time=0
EXTRACT: note_off channel=2 note=72 velocity=79 time=0
EXTRACT: note_off channel=2 note=68 velocity=79 time=0
EXTRACT: note_off channel=2 note=65 velocity=79 time=0
EXTRACT: note_off channel=0 note=64 velocity=63 time=0.031249995833333332
EXTRACT: note_off channel=0 note=59 velocity=63 time=0
EXTRACT: note_off channel=0 note=55 velocity=63 time=0
EXTRACT: note_off channel=0 note=50 velocity=63 time=0
EXTRACT: note_off channel=0 note=45 velocity=63 time=0
EXTRACT: note_on channel=0 note=64 velocity=63 time=0.11298075416666667
EXTRACT: note_on channel=0 note=59 velocity=63 time=0
EXTRACT: note_on channel=0 note=55 velocity=63 time=0
EXTRACT: note_on channel=0 note=50 velocity=63 time=0
EXTRACT: note_on channel=0 note=45 velocity=63 time=0
EXTRACT: note_off channel=0 note=64 velocity=63 time=0.031249995833333332
EXTRACT: note_off channel=0 note=59 velocity=63 time=0
EXTRACT: note_off channel=0 note=55 velocity=63 time=0
EXTRACT: note_off channel=0 note=50 velocity=63 time=0
EXTRACT: note_off channel=0 note=45 velocity=63 time=0
EXTRACT: note_on channel=0 note=72 velocity=63 time=0.11298075416666667
EXTRACT: note_on channel=0 note=68 velocity=63 time=0
EXTRACT: note_on channel=0 note=65 velocity=63 time=0
EXTRACT: note_on channel=0 note=60 velocity=63 time=0
EXTRACT: note_on channel=0 note=53 velocity=63 time=0
EXTRACT: note_on channel=4 note=67 velocity=95 time=0
EXTRACT: note_on channel=4 note=61 velocity=95 time=0
EXTRACT: note_on channel=4 note=70 velocity=95 time=0
EXTRACT: note_off channel=0 note=72 velocity=63 time=0.14423075
EXTRACT: note_off channel=0 note=68 velocity=63 time=0
EXTRACT: note_off channel=0 note=65 velocity=63 time=0
EXTRACT: note_off channel=0 note=60 velocity=63 time=0
EXTRACT: note_off channel=0 note=53 velocity=63 time=0
EXTRACT: note_on channel=0 note=72 velocity=63 time=0
EXTRACT: note_on channel=0 note=68 velocity=63 time=0
EXTRACT: note_on channel=0 note=65 velocity=63 time=0
EXTRACT: note_on channel=0 note=60 velocity=63 time=0
EXTRACT: note_on channel=0 note=53 velocity=63 time=0
EXTRACT: note_off channel=4 note=67 velocity=95 time=0
EXTRACT: note_off channel=4 note=61 velocity=95 time=0
EXTRACT: note_off channel=4 note=70 velocity=95 time=0
EXTRACT: note_on channel=4 note=72 velocity=95 time=0
EXTRACT: note_on channel=4 note=68 velocity=95 time=0
EXTRACT: note_on channel=4 note=63 velocity=95 time=0
EXTRACT: note_off channel=0 note=72 velocity=63 time=0.14423075
EXTRACT: note_off channel=0 note=68 velocity=63 time=0
EXTRACT: note_off channel=0 note=65 velocity=63 time=0
EXTRACT: note_off channel=0 note=60 velocity=63 time=0
EXTRACT: note_off channel=0 note=53 velocity=63 time=0
EXTRACT: note_on channel=0 note=64 velocity=63 time=0
EXTRACT: note_on channel=0 note=59 velocity=63 time=0
EXTRACT: note_on channel=0 note=55 velocity=63 time=0
EXTRACT: note_on channel=0 note=50 velocity=63 time=0
EXTRACT: note_on channel=0 note=45 velocity=63 time=0
EXTRACT: note_on channel=2 note=72 velocity=79 time=0
EXTRACT: note_on channel=2 note=68 velocity=79 time=0
EXTRACT: note_on channel=2 note=65 velocity=79 time=0
EXTRACT: note_off channel=4 note=72 velocity=95 time=0
EXTRACT: note_off channel=4 note=68 velocity=95 time=0
EXTRACT: note_off channel=4 note=63 velocity=95 time=0
EXTRACT: note_on channel=4 note=72 velocity=95 time=0
EXTRACT: note_on channel=4 note=68 velocity=95 time=0
EXTRACT: note_on channel=4 note=63 velocity=95 time=0
EXTRACT: note_off channel=0 note=64 velocity=63 time=0.031249995833333332
EXTRACT: note_off channel=0 note=59 velocity=63 time=0
EXTRACT: note_off channel=0 note=55 velocity=63 time=0
EXTRACT: note_off channel=0 note=50 velocity=63 time=0
EXTRACT: note_off channel=0 note=45 velocity=63 time=0
EXTRACT: note_on channel=0 note=64 velocity=63 time=0.11298075416666667
EXTRACT: note_on channel=0 note=59 velocity=63 time=0
EXTRACT: note_on channel=0 note=55 velocity=63 time=0
EXTRACT: note_on channel=0 note=50 velocity=63 time=0
EXTRACT: note_on channel=0 note=45 velocity=63 time=0
EXTRACT: note_off channel=4 note=72 velocity=95 time=0
EXTRACT: note_off channel=4 note=68 velocity=95 time=0
EXTRACT: note_off channel=4 note=63 velocity=95 time=0
EXTRACT: note_on channel=4 note=72 velocity=95 time=0
EXTRACT: note_on channel=4 note=68 velocity=95 time=0
EXTRACT: note_on channel=4 note=63 velocity=95 time=0
EXTRACT: note_off channel=0 note=64 velocity=63 time=0.031249995833333332
EXTRACT: note_off channel=0 note=59 velocity=63 time=0
EXTRACT: note_off channel=0 note=55 velocity=63 time=0
EXTRACT: note_off channel=0 note=50 velocity=63 time=0
EXTRACT: note_off channel=0 note=45 velocity=63 time=0
EXTRACT: note_on channel=0 note=72 velocity=63 time=0.11298075416666667
EXTRACT: note_on channel=0 note=68 velocity=63 time=0
EXTRACT: note_on channel=0 note=65 velocity=63 time=0
EXTRACT: note_on channel=0 note=60 velocity=63 time=0
EXTRACT: note_on channel=0 note=53 velocity=63 time=0
EXTRACT: note_off channel=4 note=72 velocity=95 time=0
EXTRACT: note_off channel=4 note=68 velocity=95 time=0
EXTRACT: note_off channel=4 note=63 velocity=95 time=0
EXTRACT: note_on channel=4 note=72 velocity=95 time=0
EXTRACT: note_on channel=4 note=68 velocity=95 time=0
EXTRACT: note_on channel=4 note=63 velocity=95 time=0
EXTRACT: note_off channel=0 note=72 velocity=63 time=0.14423075
EXTRACT: note_off channel=0 note=68 velocity=63 time=0
EXTRACT: note_off channel=0 note=65 velocity=63 time=0
EXTRACT: note_off channel=0 note=60 velocity=63 time=0
EXTRACT: note_off channel=0 note=53 velocity=63 time=0
EXTRACT: note_on channel=0 note=72 velocity=63 time=0
EXTRACT: note_on channel=0 note=68 velocity=63 time=0
EXTRACT: note_on channel=0 note=65 velocity=63 time=0
EXTRACT: note_on channel=0 note=60 velocity=63 time=0
EXTRACT: note_on channel=0 note=53 velocity=63 time=0
EXTRACT: note_off channel=4 note=72 velocity=95 time=0
EXTRACT: note_off channel=4 note=68 velocity=95 time=0
EXTRACT: note_off channel=4 note=63 velocity=95 time=0
EXTRACT: note_on channel=4 note=67 velocity=95 time=0
EXTRACT: note_on channel=4 note=61 velocity=95 time=0
EXTRACT: note_on channel=4 note=70 velocity=95 time=0
EXTRACT: note_off channel=0 note=72 velocity=63 time=0.14423075
EXTRACT: note_off channel=0 note=68 velocity=63 time=0
EXTRACT: note_off channel=0 note=65 velocity=63 time=0
EXTRACT: note_off channel=0 note=60 velocity=63 time=0
EXTRACT: note_off channel=0 note=53 velocity=63 time=0
EXTRACT: note_on channel=0 note=64 velocity=63 time=0
EXTRACT: note_on channel=0 note=59 velocity=63 time=0
EXTRACT: note_on channel=0 note=55 velocity=63 time=0
EXTRACT: note_on channel=0 note=50 velocity=63 time=0
EXTRACT: note_on channel=0 note=45 velocity=63 time=0
EXTRACT: note_off channel=4 note=67 velocity=95 time=0
EXTRACT: note_off channel=4 note=61 velocity=95 time=0
EXTRACT: note_off channel=4 note=70 velocity=95 time=0
EXTRACT: note_on channel=4 note=67 velocity=95 time=0
EXTRACT: note_on channel=4 note=61 velocity=95 time=0
EXTRACT: note_on channel=4 note=70 velocity=95 time=0
EXTRACT: note_off channel=0 note=64 velocity=63 time=0.031249995833333332
EXTRACT: note_off channel=0 note=59 velocity=63 time=0
EXTRACT: note_off channel=0 note=55 velocity=63 time=0
EXTRACT: note_off channel=0 note=50 velocity=63 time=0
EXTRACT: note_off channel=0 note=45 velocity=63 time=0
EXTRACT: note_on channel=0 note=64 velocity=63 time=0.11298075416666667
EXTRACT: note_on channel=0 note=59 velocity=63 time=0
EXTRACT: note_on channel=0 note=55 velocity=63 time=0
EXTRACT: note_on channel=0 note=50 velocity=63 time=0
EXTRACT: note_on channel=0 note=45 velocity=63 time=0
EXTRACT: note_off channel=4 note=67 velocity=95 time=0
EXTRACT: note_off channel=4 note=61 velocity=95 time=0
EXTRACT: note_off channel=4 note=70 velocity=95 time=0
EXTRACT: note_on channel=4 note=67 velocity=95 time=0
EXTRACT: note_on channel=4 note=61 velocity=95 time=0
EXTRACT: note_on channel=4 note=70 velocity=95 time=0
EXTRACT: note_off channel=0 note=64 velocity=63 time=0.031249995833333332
EXTRACT: note_off channel=0 note=59 velocity=63 time=0
EXTRACT: note_off channel=0 note=55 velocity=63 time=0
EXTRACT: note_off channel=0 note=50 velocity=63 time=0
EXTRACT: note_off channel=0 note=45 velocity=63 time=0
EXTRACT: note_on channel=0 note=72 velocity=63 time=0.11298075416666667
EXTRACT: note_on channel=0 note=68 velocity=63 time=0
EXTRACT: note_on channel=0 note=65 velocity=63 time=0
EXTRACT: note_on channel=0 note=60 velocity=63 time=0
EXTRACT: note_on channel=0 note=53 velocity=63 time=0
EXTRACT: note_off channel=0 note=72 velocity=63 time=0.14423075
EXTRACT: note_off channel=0 note=68 velocity=63 time=0
EXTRACT: note_off channel=0 note=65 velocity=63 time=0
EXTRACT: note_off channel=0 note=60 velocity=63 time=0
EXTRACT: note_off channel=0 note=53 velocity=63 time=0
EXTRACT: note_on channel=0 note=72 velocity=63 time=0
EXTRACT: note_on channel=0 note=68 velocity=63 time=0
EXTRACT: note_on channel=0 note=65 velocity=63 time=0
EXTRACT: note_on channel=0 note=60 velocity=63 time=0
EXTRACT: note_on channel=0 note=53 velocity=63 time=0
EXTRACT: note_off channel=4 note=67 velocity=95 time=0
EXTRACT: note_off channel=4 note=61 velocity=95 time=0
EXTRACT: note_off channel=4 note=70 velocity=95 time=0
EXTRACT: note_on channel=4 note=68 velocity=95 time=0
EXTRACT: note_on channel=4 note=65 velocity=95 time=0
EXTRACT: note_on channel=4 note=60 velocity=95 time=0
EXTRACT: note_off channel=0 note=72 velocity=63 time=0.14423075
EXTRACT: note_off channel=0 note=68 velocity=63 time=0
EXTRACT: note_off channel=0 note=65 velocity=63 time=0
EXTRACT: note_off channel=0 note=60 velocity=63 time=0
EXTRACT: note_off channel=0 note=53 velocity=63 time=0
EXTRACT: note_on channel=0 note=64 velocity=63 time=0
EXTRACT: note_on channel=0 note=59 velocity=63 time=0
EXTRACT: note_on channel=0 note=55 velocity=63 time=0
EXTRACT: note_on channel=0 note=50 velocity=63 time=0
EXTRACT: note_on channel=0 note=45 velocity=63 time=0
EXTRACT: note_off channel=4 note=68 velocity=95 time=0
EXTRACT: note_off channel=4 note=65 velocity=95 time=0
EXTRACT: note_off channel=4 note=60 velocity=95 time=0
EXTRACT: note_on channel=4 note=68 velocity=95 time=0
EXTRACT: note_on channel=4 note=65 velocity=95 time=0
EXTRACT: note_on channel=4 note=60 velocity=95 time=0
EXTRACT: note_off channel=0 note=64 velocity=63 time=0.031249995833333332
EXTRACT: note_off channel=0 note=59 velocity=63 time=0
EXTRACT: note_off channel=0 note=55 velocity=63 time=0
EXTRACT: note_off channel=0 note=50 velocity=63 time=0
EXTRACT: note_off channel=0 note=45 velocity=63 time=0
EXTRACT: note_on channel=0 note=64 velocity=63 time=0.11298075416666667
EXTRACT: note_on channel=0 note=59 velocity=63 time=0
EXTRACT: note_on channel=0 note=55 velocity=63 time=0
EXTRACT: note_on channel=0 note=50 velocity=63 time=0
EXTRACT: note_on channel=0 note=45 velocity=63 time=0
EXTRACT: note_off channel=2 note=72 velocity=79 time=0
EXTRACT: note_off channel=2 note=68 velocity=79 time=0
EXTRACT: note_off channel=2 note=65 velocity=79 time=0
EXTRACT: note_on channel=2 note=72 velocity=79 time=0
EXTRACT: note_on channel=2 note=68 velocity=79 time=0
EXTRACT: note_on channel=2 note=65 velocity=79 time=0
EXTRACT: note_off channel=4 note=68 velocity=95 time=0
EXTRACT: note_off channel=4 note=65 velocity=95 time=0
EXTRACT: note_off channel=4 note=60 velocity=95 time=0
EXTRACT: note_on channel=4 note=68 velocity=95 time=0
EXTRACT: note_on channel=4 note=65 velocity=95 time=0
EXTRACT: note_on channel=4 note=60 velocity=95 time=0
EXTRACT: note_off channel=0 note=64 velocity=63 time=0.031249995833333332
EXTRACT: note_off channel=0 note=59 velocity=63 time=0
EXTRACT: note_off channel=0 note=55 velocity=63 time=0
EXTRACT: note_off channel=0 note=50 velocity=63 time=0
EXTRACT: note_off channel=0 note=45 velocity=63 time=0
EXTRACT: note_on channel=0 note=72 velocity=63 time=0.11298075416666667
EXTRACT: note_on channel=0 note=68 velocity=63 time=0
EXTRACT: note_on channel=0 note=65 velocity=63 time=0
EXTRACT: note_on channel=0 note=60 velocity=63 time=0
EXTRACT: note_on channel=0 note=53 velocity=63 time=0
EXTRACT: note_off channel=2 note=72 velocity=79 time=0
EXTRACT: note_off channel=2 note=68 velocity=79 time=0
EXTRACT: note_off channel=2 note=65 velocity=79 time=0
EXTRACT: note_off channel=4 note=68 velocity=95 time=0
EXTRACT: note_off channel=4 note=65 velocity=95 time=0
EXTRACT: note_off channel=4 note=60 velocity=95 time=0
EXTRACT: note_on channel=4 note=68 velocity=95 time=0
EXTRACT: note_on channel=4 note=65 velocity=95 time=0
EXTRACT: note_on channel=4 note=60 velocity=95 time=0
EXTRACT: note_off channel=0 note=72 velocity=63 time=0.14423075
EXTRACT: note_off channel=0 note=68 velocity=63 time=0
EXTRACT: note_off channel=0 note=65 velocity=63 time=0
EXTRACT: note_off channel=0 note=60 velocity=63 time=0
EXTRACT: note_off channel=0 note=53 velocity=63 time=0
EXTRACT: note_on channel=0 note=72 velocity=63 time=0
EXTRACT: note_on channel=0 note=68 velocity=63 time=0
EXTRACT: note_on channel=0 note=65 velocity=63 time=0
EXTRACT: note_on channel=0 note=60 velocity=63 time=0
EXTRACT: note_on channel=0 note=53 velocity=63 time=0
EXTRACT: note_off channel=4 note=68 velocity=95 time=0
EXTRACT: note_off channel=4 note=65 velocity=95 time=0
EXTRACT: note_off channel=4 note=60 velocity=95 time=0
EXTRACT: note_on channel=4 note=67 velocity=95 time=0
EXTRACT: note_on channel=4 note=63 velocity=95 time=0
EXTRACT: note_on channel=4 note=58 velocity=95 time=0
EXTRACT: note_off channel=0 note=72 velocity=63 time=0.14423075
EXTRACT: note_off channel=0 note=68 velocity=63 time=0
EXTRACT: note_off channel=0 note=65 velocity=63 time=0
EXTRACT: note_off channel=0 note=60 velocity=63 time=0
EXTRACT: note_off channel=0 note=53 velocity=63 time=0
EXTRACT: note_on channel=0 note=64 velocity=63 time=0
EXTRACT: note_on channel=0 note=59 velocity=63 time=0
EXTRACT: note_on channel=0 note=55 velocity=63 time=0
EXTRACT: note_on channel=0 note=50 velocity=63 time=0
EXTRACT: note_on channel=0 note=45 velocity=63 time=0
EXTRACT: note_on channel=2 note=72 velocity=79 time=0
EXTRACT: note_on channel=2 note=68 velocity=79 time=0
EXTRACT: note_on channel=2 note=65 velocity=79 time=0
EXTRACT: note_off channel=4 note=67 velocity=95 time=0
EXTRACT: note_off channel=4 note=63 velocity=95 time=0
EXTRACT: note_off channel=4 note=58 velocity=95 time=0
EXTRACT: note_on channel=4 note=67 velocity=95 time=0
EXTRACT: note_on channel=4 note=63 velocity=95 time=0
EXTRACT: note_on channel=4 note=58 velocity=95 time=0
EXTRACT: note_off channel=0 note=64 velocity=63 time=0.031249995833333332
EXTRACT: note_off channel=0 note=59 velocity=63 time=0
EXTRACT: note_off channel=0 note=55 velocity=63 time=0
EXTRACT: note_off channel=0 note=50 velocity=63 time=0
EXTRACT: note_off channel=0 note=45 velocity=63 time=0
EXTRACT: note_on channel=0 note=64 velocity=63 time=0.11298075416666667
EXTRACT: note_on channel=0 note=59 velocity=63 time=0
EXTRACT: note_on channel=0 note=55 velocity=63 time=0
EXTRACT: note_on channel=0 note=50 velocity=63 time=0
EXTRACT: note_on channel=0 note=45 velocity=63 time=0
EXTRACT: note_off channel=4 note=67 velocity=95 time=0
EXTRACT: note_off channel=4 note=63 velocity=95 time=0
EXTRACT: note_off channel=4 note=58 velocity=95 time=0
EXTRACT: note_on channel=4 note=67 velocity=95 time=0
EXTRACT: note_on channel=4 note=63 velocity=95 time=0
EXTRACT: note_on channel=4 note=58 velocity=95 time=0
EXTRACT: note_off channel=0 note=64 velocity=63 time=0.031249995833333332
EXTRACT: note_off channel=0 note=59 velocity=63 time=0
EXTRACT: note_off channel=0 note=55 velocity=63 time=0
EXTRACT: note_off channel=0 note=50 velocity=63 time=0
EXTRACT: note_off channel=0 note=45 velocity=63 time=0
EXTRACT: note_on channel=0 note=72 velocity=63 time=0.11298075416666667
EXTRACT: note_on channel=0 note=68 velocity=63 time=0
EXTRACT: note_on channel=0 note=65 velocity=63 time=0
EXTRACT: note_on channel=0 note=60 velocity=63 time=0
EXTRACT: note_on channel=0 note=53 velocity=63 time=0
EXTRACT: note_off channel=0 note=72 velocity=63 time=0.14423075
EXTRACT: note_off channel=0 note=68 velocity=63 time=0
EXTRACT: note_off channel=0 note=65 velocity=63 time=0
EXTRACT: note_off channel=0 note=60 velocity=63 time=0
EXTRACT: note_off channel=0 note=53 velocity=63 time=0
EXTRACT: note_on channel=0 note=72 velocity=63 time=0
EXTRACT: note_on channel=0 note=68 velocity=63 time=0
EXTRACT: note_on channel=0 note=65 velocity=63 time=0
EXTRACT: note_on channel=0 note=60 velocity=63 time=0
EXTRACT: note_on channel=0 note=53 velocity=63 time=0
EXTRACT: note_off channel=4 note=67 velocity=95 time=0
EXTRACT: note_off channel=4 note=63 velocity=95 time=0
EXTRACT: note_off channel=4 note=58 velocity=95 time=0
EXTRACT: note_on channel=4 note=68 velocity=95 time=0
EXTRACT: note_on channel=4 note=65 velocity=95 time=0
EXTRACT: note_on channel=4 note=60 velocity=95 time=0
EXTRACT: note_off channel=0 note=72 velocity=63 time=0.14423075
EXTRACT: note_off channel=0 note=68 velocity=63 time=0
EXTRACT: note_off channel=0 note=65 velocity=63 time=0
EXTRACT: note_off channel=0 note=60 velocity=63 time=0
EXTRACT: note_off channel=0 note=53 velocity=63 time=0
EXTRACT: note_on channel=0 note=64 velocity=63 time=0
EXTRACT: note_on channel=0 note=59 velocity=63 time=0
EXTRACT: note_on channel=0 note=55 velocity=63 time=0
EXTRACT: note_on channel=0 note=50 velocity=63 time=0
EXTRACT: note_on channel=0 note=45 velocity=63 time=0
EXTRACT: note_off channel=2 note=72 velocity=79 time=0
EXTRACT: note_off channel=2 note=68 velocity=79 time=0
EXTRACT: note_off channel=2 note=65 velocity=79 time=0
EXTRACT: note_on channel=2 note=72 velocity=79 time=0
EXTRACT: note_on channel=2 note=68 velocity=79 time=0
EXTRACT: note_on channel=2 note=65 velocity=79 time=0
EXTRACT: note_off channel=4 note=68 velocity=95 time=0
EXTRACT: note_off channel=4 note=65 velocity=95 time=0
EXTRACT: note_off channel=4 note=60 velocity=95 time=0
EXTRACT: note_on channel=4 note=68 velocity=95 time=0
EXTRACT: note_on channel=4 note=65 velocity=95 time=0
EXTRACT: note_on channel=4 note=60 velocity=95 time=0
EXTRACT: note_off channel=0 note=64 velocity=63 time=0.031249995833333332
EXTRACT: note_off channel=0 note=59 velocity=63 time=0
EXTRACT: note_off channel=0 note=55 velocity=63 time=0
EXTRACT: note_off channel=0 note=50 velocity=63 time=0
EXTRACT: note_off channel=0 note=45 velocity=63 time=0
EXTRACT: note_on channel=0 note=64 velocity=63 time=0.11298075416666667
EXTRACT: note_on channel=0 note=59 velocity=63 time=0
EXTRACT: note_on channel=0 note=55 velocity=63 time=0
EXTRACT: note_on channel=0 note=50 velocity=63 time=0
EXTRACT: note_on channel=0 note=45 velocity=63 time=0
EXTRACT: note_off channel=2 note=72 velocity=79 time=0
EXTRACT: note_off channel=2 note=68 velocity=79 time=0
EXTRACT: note_off channel=2 note=65 velocity=79 time=0
EXTRACT: note_off channel=4 note=68 velocity=95 time=0
EXTRACT: note_off channel=4 note=65 velocity=95 time=0
EXTRACT: note_off channel=4 note=60 velocity=95 time=0
EXTRACT: note_on channel=4 note=68 velocity=95 time=0
EXTRACT: note_on channel=4 note=65 velocity=95 time=0
EXTRACT: note_on channel=4 note=60 velocity=95 time=0
EXTRACT: note_off channel=0 note=64 velocity=63 time=0.031249995833333332
EXTRACT: note_off channel=0 note=59 velocity=63 time=0
EXTRACT: note_off channel=0 note=55 velocity=63 time=0
EXTRACT: note_off channel=0 note=50 velocity=63 time=0
EXTRACT: note_off channel=0 note=45 velocity=63 time=0
EXTRACT: note_on channel=0 note=72 velocity=63 time=0.11298075416666667
EXTRACT: note_on channel=0 note=68 velocity=63 time=0
EXTRACT: note_on channel=0 note=65 velocity=63 time=0
EXTRACT: note_on channel=0 note=60 velocity=63 time=0
EXTRACT: note_on channel=0 note=53 velocity=63 time=0
EXTRACT: note_on channel=2 note=72 velocity=79 time=0
EXTRACT: note_on channel=2 note=68 velocity=79 time=0
EXTRACT: note_on channel=2 note=65 velocity=79 time=0
EXTRACT: note_off channel=4 note=68 velocity=95 time=0
EXTRACT: note_off channel=4 note=65 velocity=95 time=0
EXTRACT: note_off channel=4 note=60 velocity=95 time=0
EXTRACT: note_off channel=0 note=72 velocity=63 time=0.14423075
EXTRACT: note_off channel=0 note=68 velocity=63 time=0
EXTRACT: note_off channel=0 note=65 velocity=63 time=0
EXTRACT: note_off channel=0 note=60 velocity=63 time=0
EXTRACT: note_off channel=0 note=53 velocity=63 time=0
EXTRACT: note_on channel=0 note=72 velocity=63 time=0
EXTRACT: note_on channel=0 note=68 velocity=63 time=0
EXTRACT: note_on channel=0 note=65 velocity=63 time=0
EXTRACT: note_on channel=0 note=60 velocity=63 time=0
EXTRACT: note_on channel=0 note=53 velocity=63 time=0
EXTRACT: note_off channel=2 note=72 velocity=79 time=0
EXTRACT: note_off channel=2 note=68 velocity=79 time=0
EXTRACT: note_off channel=2 note=65 velocity=79 time=0
EXTRACT: note_on channel=2 note=72 velocity=79 time=0
EXTRACT: note_on channel=2 note=68 velocity=79 time=0
EXTRACT: note_on channel=2 note=65 velocity=79 time=0
EXTRACT: note_off channel=0 note=72 velocity=63 time=0.14423075
EXTRACT: note_off channel=0 note=68 velocity=63 time=0
EXTRACT: note_off channel=0 note=65 velocity=63 time=0
EXTRACT: note_off channel=0 note=60 velocity=63 time=0
EXTRACT: note_off channel=0 note=53 velocity=63 time=0
EXTRACT: note_on channel=0 note=64 velocity=63 time=0
EXTRACT: note_on channel=0 note=59 velocity=63 time=0
EXTRACT: note_on channel=0 note=55 velocity=63 time=0
EXTRACT: note_on channel=0 note=50 velocity=63 time=0
EXTRACT: note_on channel=0 note=45 velocity=63 time=0
EXTRACT: note_off channel=2 note=72 velocity=79 time=0
EXTRACT: note_off channel=2 note=68 velocity=79 time=0
EXTRACT: note_off channel=2 note=65 velocity=79 time=0
EXTRACT: note_off channel=0 note=64 velocity=63 time=0.031249995833333332
EXTRACT: note_off channel=0 note=59 velocity=63 time=0
EXTRACT: note_off channel=0 note=55 velocity=63 time=0
EXTRACT: note_off channel=0 note=50 velocity=63 time=0
EXTRACT: note_off channel=0 note=45 velocity=63 time=0
EXTRACT: note_on channel=0 note=64 velocity=63 time=0.11298075416666667
EXTRACT: note_on channel=0 note=59 velocity=63 time=0
EXTRACT: note_on channel=0 note=55 velocity=63 time=0
EXTRACT: note_on channel=0 note=50 velocity=63 time=0
EXTRACT: note_on channel=0 note=45 velocity=63 time=0
EXTRACT: note_off channel=0 note=64 velocity=63 time=0.031249995833333332
EXTRACT: note_off channel=0 note=59 velocity=63 time=0
EXTRACT: note_off channel=0 note=55 velocity=63 time=0
EXTRACT: note_off channel=0 note=50 velocity=63 time=0
EXTRACT: note_off channel=0 note=45 velocity=63 time=0
EXTRACT: note_on channel=0 note=72 velocity=63 time=0.11298075416666667
EXTRACT: note_on channel=0 note=68 velocity=63 time=0
EXTRACT: note_on channel=0 note=65 velocity=63 time=0
EXTRACT: note_on channel=0 note=60 velocity=63 time=0
EXTRACT: note_on channel=0 note=53 velocity=63 time=0
EXTRACT: note_on channel=4 note=67 velocity=95 time=0
EXTRACT: note_on channel=4 note=63 velocity=95 time=0
EXTRACT: note_on channel=4 note=58 velocity=95 time=0
EXTRACT: note_off channel=0 note=72 velocity=63 time=0.14423075
EXTRACT: note_off channel=0 note=68 velocity=63 time=0
EXTRACT: note_off channel=0 note=65 velocity=63 time=0
EXTRACT: note_off channel=0 note=60 velocity=63 time=0
EXTRACT: note_off channel=0 note=53 velocity=63 time=0
EXTRACT: note_on channel=0 note=72 velocity=63 time=0
EXTRACT: note_on channel=0 note=68 velocity=63 time=0
EXTRACT: note_on channel=0 note=65 velocity=63 time=0
EXTRACT: note_on channel=0 note=60 velocity=63 time=0
EXTRACT: note_on channel=0 note=53 velocity=63 time=0
EXTRACT: note_off channel=4 note=67 velocity=95 time=0
EXTRACT: note_off channel=4 note=63 velocity=95 time=0
EXTRACT: note_off channel=4 note=58 velocity=95 time=0
EXTRACT: note_on channel=4 note=68 velocity=95 time=0
EXTRACT: note_on channel=4 note=65 velocity=95 time=0
EXTRACT: note_on channel=4 note=60 velocity=95 time=0
EXTRACT: note_off channel=0 note=72 velocity=63 time=0.14423075
EXTRACT: note_off channel=0 note=68 velocity=63 time=0
EXTRACT: note_off channel=0 note=65 velocity=63 time=0
EXTRACT: note_off channel=0 note=60 velocity=63 time=0
EXTRACT: note_off channel=0 note=53 velocity=63 time=0
EXTRACT: note_on channel=0 note=64 velocity=63 time=0
EXTRACT: note_on channel=0 note=59 velocity=63 time=0
EXTRACT: note_on channel=0 note=55 velocity=63 time=0
EXTRACT: note_on channel=0 note=50 velocity=63 time=0
EXTRACT: note_on channel=0 note=45 velocity=63 time=0
EXTRACT: note_on channel=2 note=72 velocity=79 time=0
EXTRACT: note_on channel=2 note=68 velocity=79 time=0
EXTRACT: note_on channel=2 note=65 velocity=79 time=0
EXTRACT: note_off channel=4 note=68 velocity=95 time=0
EXTRACT: note_off channel=4 note=65 velocity=95 time=0
EXTRACT: note_off channel=4 note=60 velocity=95 time=0
EXTRACT: note_on channel=4 note=68 velocity=95 time=0
EXTRACT: note_on channel=4 note=65 velocity=95 time=0
EXTRACT: note_on channel=4 note=60 velocity=95 time=0
EXTRACT: note_off channel=0 note=64 velocity=63 time=0.031249995833333332
EXTRACT: note_off channel=0 note=59 velocity=63 time=0
EXTRACT: note_off channel=0 note=55 velocity=63 time=0
EXTRACT: note_off channel=0 note=50 velocity=63 time=0
EXTRACT: note_off channel=0 note=45 velocity=63 time=0
EXTRACT: note_on channel=0 note=64 velocity=63 time=0.11298075416666667
EXTRACT: note_on channel=0 note=59 velocity=63 time=0
EXTRACT: note_on channel=0 note=55 velocity=63 time=0
EXTRACT: note_on channel=0 note=50 velocity=63 time=0
EXTRACT: note_on channel=0 note=45 velocity=63 time=0
EXTRACT: note_off channel=2 note=72 velocity=79 time=0
EXTRACT: note_off channel=2 note=68 velocity=79 time=0
EXTRACT: note_off channel=2 note=65 velocity=79 time=0
EXTRACT: note_on channel=2 note=72 velocity=79 time=0
EXTRACT: note_on channel=2 note=68 velocity=79 time=0
EXTRACT: note_on channel=2 note=65 velocity=79 time=0
EXTRACT: note_off channel=4 note=68 velocity=95 time=0
EXTRACT: note_off channel=4 note=65 velocity=95 time=0
EXTRACT: note_off channel=4 note=60 velocity=95 time=0
EXTRACT: note_on channel=4 note=68 velocity=95 time=0
EXTRACT: note_on channel=4 note=65 velocity=95 time=0
EXTRACT: note_on channel=4 note=60 velocity=95 time=0
EXTRACT: note_off channel=0 note=64 velocity=63 time=0.031249995833333332
EXTRACT: note_off channel=0 note=59 velocity=63 time=0
EXTRACT: note_off channel=0 note=55 velocity=63 time=0
EXTRACT: note_off channel=0 note=50 velocity=63 time=0
EXTRACT: note_off channel=0 note=45 velocity=63 time=0
EXTRACT: note_on channel=0 note=72 velocity=63 time=0.11298075416666667
EXTRACT: note_on channel=0 note=68 velocity=63 time=0
EXTRACT: note_on channel=0 note=65 velocity=63 time=0
EXTRACT: note_on channel=0 note=60 velocity=63 time=0
EXTRACT: note_on channel=0 note=53 velocity=63 time=0
EXTRACT: note_off channel=4 note=68 velocity=95 time=0
EXTRACT: note_off channel=4 note=65 velocity=95 time=0
EXTRACT: note_off channel=4 note=60 velocity=95 time=0
EXTRACT: note_off channel=0 note=72 velocity=63 time=0.14423075
EXTRACT: note_off channel=0 note=68 velocity=63 time=0
EXTRACT: note_off channel=0 note=65 velocity=63 time=0
EXTRACT: note_off channel=0 note=60 velocity=63 time=0
EXTRACT: note_off channel=0 note=53 velocity=63 time=0
EXTRACT: note_on channel=0 note=72 velocity=63 time=0
EXTRACT: note_on channel=0 note=68 velocity=63 time=0
EXTRACT: note_on channel=0 note=65 velocity=63 time=0
EXTRACT: note_on channel=0 note=60 velocity=63 time=0
EXTRACT: note_on channel=0 note=53 velocity=63 time=0
EXTRACT: note_off channel=2 note=72 velocity=79 time=0
EXTRACT: note_off channel=2 note=68 velocity=79 time=0
EXTRACT: note_off channel=2 note=65 velocity=79 time=0
EXTRACT: note_on channel=2 note=72 velocity=79 time=0
EXTRACT: note_on channel=2 note=68 velocity=79 time=0
EXTRACT: note_on channel=2 note=65 velocity=79 time=0
EXTRACT: note_off channel=0 note=72 velocity=63 time=0.14423075
EXTRACT: note_off channel=0 note=68 velocity=63 time=0
EXTRACT: note_off channel=0 note=65 velocity=63 time=0
EXTRACT: note_off channel=0 note=60 velocity=63 time=0
EXTRACT: note_off channel=0 note=53 velocity=63 time=0
EXTRACT: note_on channel=0 note=64 velocity=63 time=0
EXTRACT: note_on channel=0 note=59 velocity=63 time=0
EXTRACT: note_on channel=0 note=55 velocity=63 time=0
EXTRACT: note_on channel=0 note=50 velocity=63 time=0
EXTRACT: note_on channel=0 note=45 velocity=63 time=0
EXTRACT: note_off channel=2 note=72 velocity=79 time=0
EXTRACT: note_off channel=2 note=68 velocity=79 time=0
EXTRACT: note_off channel=2 note=65 velocity=79 time=0
EXTRACT: note_on channel=2 note=72 velocity=79 time=0
EXTRACT: note_on channel=2 note=68 velocity=79 time=0
EXTRACT: note_on channel=2 note=65 velocity=79 time=0
EXTRACT: note_off channel=0 note=64 velocity=63 time=0.031249995833333332
EXTRACT: note_off channel=0 note=59 velocity=63 time=0
EXTRACT: note_off channel=0 note=55 velocity=63 time=0
EXTRACT: note_off channel=0 note=50 velocity=63 time=0
EXTRACT: note_off channel=0 note=45 velocity=63 time=0
EXTRACT: note_on channel=0 note=64 velocity=63 time=0.11298075416666667
EXTRACT: note_on channel=0 note=59 velocity=63 time=0
EXTRACT: note_on channel=0 note=55 velocity=63 time=0
EXTRACT: note_on channel=0 note=50 velocity=63 time=0
EXTRACT: note_on channel=0 note=45 velocity=63 time=0
EXTRACT: note_off channel=0 note=64 velocity=63 time=0.031249995833333332
EXTRACT: note_off channel=0 note=59 velocity=63 time=0
EXTRACT: note_off channel=0 note=55 velocity=63 time=0
EXTRACT: note_off channel=0 note=50 velocity=63 time=0
EXTRACT: note_off channel=0 note=45 velocity=63 time=0
EXTRACT: note_on channel=0 note=72 velocity=63 time=0.11298075416666667
EXTRACT: note_on channel=0 note=68 velocity=63 time=0
EXTRACT: note_on channel=0 note=65 velocity=63 time=0
EXTRACT: note_on channel=0 note=60 velocity=63 time=0
EXTRACT: note_on channel=0 note=53 velocity=63 time=0
EXTRACT: note_on channel=4 note=72 velocity=95 time=0
EXTRACT: note_on channel=4 note=68 velocity=95 time=0
EXTRACT: note_on channel=4 note=65 velocity=95 time=0
EXTRACT: note_off channel=0 note=72 velocity=63 time=0.14423075
EXTRACT: note_off channel=0 note=68 velocity=63 time=0
EXTRACT: note_off channel=0 note=65 velocity=63 time=0
EXTRACT: note_off channel=0 note=60 velocity=63 time=0
EXTRACT: note_off channel=0 note=53 velocity=63 time=0
EXTRACT: note_on channel=0 note=72 velocity=63 time=0
EXTRACT: note_on channel=0 note=68 velocity=63 time=0
EXTRACT: note_on channel=0 note=65 velocity=63 time=0
EXTRACT: note_on channel=0 note=60 velocity=63 time=0
EXTRACT: note_on channel=0 note=53 velocity=63 time=0
EXTRACT: note_off channel=0 note=72 velocity=63 time=0.14423075
EXTRACT: note_off channel=0 note=68 velocity=63 time=0
EXTRACT: note_off channel=0 note=65 velocity=63 time=0
EXTRACT: note_off channel=0 note=60 velocity=63 time=0
EXTRACT: note_off channel=0 note=53 velocity=63 time=0
EXTRACT: note_on channel=0 note=64 velocity=63 time=0
EXTRACT: note_on channel=0 note=59 velocity=63 time=0
EXTRACT: note_on channel=0 note=55 velocity=63 time=0
EXTRACT: note_on channel=0 note=50 velocity=63 time=0
EXTRACT: note_on channel=0 note=45 velocity=63 time=0
EXTRACT: note_off channel=2 note=72 velocity=79 time=0
EXTRACT: note_off channel=2 note=68 velocity=79 time=0
EXTRACT: note_off channel=2 note=65 velocity=79 time=0
EXTRACT: note_on channel=2 note=72 velocity=79 time=0
EXTRACT: note_on channel=2 note=68 velocity=79 time=0
EXTRACT: note_on channel=2 note=65 velocity=79 time=0
EXTRACT: note_off channel=4 note=72 velocity=95 time=0
EXTRACT: note_off channel=4 note=68 velocity=95 time=0
EXTRACT: note_off channel=4 note=65 velocity=95 time=0
EXTRACT: note_off channel=0 note=64 velocity=63 time=0.031249995833333332
EXTRACT: note_off channel=0 note=59 velocity=63 time=0
EXTRACT: note_off channel=0 note=55 velocity=63 time=0
EXTRACT: note_off channel=0 note=50 velocity=63 time=0
EXTRACT: note_off channel=0 note=45 velocity=63 time=0
EXTRACT: note_on channel=0 note=64 velocity=63 time=0.11298075416666667
EXTRACT: note_on channel=0 note=59 velocity=63 time=0
EXTRACT: note_on channel=0 note=55 velocity=63 time=0
EXTRACT: note_on channel=0 note=50 velocity=63 time=0
EXTRACT: note_on channel=0 note=45 velocity=63 time=0
EXTRACT: note_off channel=2 note=72 velocity=79 time=0
EXTRACT: note_off channel=2 note=68 velocity=79 time=0
EXTRACT: note_off channel=2 note=65 velocity=79 time=0
EXTRACT: note_on channel=2 note=72 velocity=79 time=0
EXTRACT: note_on channel=2 note=68 velocity=79 time=0
EXTRACT: note_on channel=2 note=65 velocity=79 time=0
EXTRACT: note_off channel=0 note=64 velocity=63 time=0.031249995833333332
EXTRACT: note_off channel=0 note=59 velocity=63 time=0
EXTRACT: note_off channel=0 note=55 velocity=63 time=0
EXTRACT: note_off channel=0 note=50 velocity=63 time=0
EXTRACT: note_off channel=0 note=45 velocity=63 time=0
EXTRACT: note_on channel=0 note=72 velocity=63 time=0.11298075416666667
EXTRACT: note_on channel=0 note=68 velocity=63 time=0
EXTRACT: note_on channel=0 note=65 velocity=63 time=0
EXTRACT: note_on channel=0 note=60 velocity=63 time=0
EXTRACT: note_on channel=0 note=53 velocity=63 time=0
EXTRACT: note_on channel=4 note=70 velocity=95 time=0
EXTRACT: note_on channel=4 note=67 velocity=95 time=0
EXTRACT: note_on channel=4 note=63 velocity=95 time=0
EXTRACT: note_off channel=0 note=72 velocity=63 time=0.14423075
EXTRACT: note_off channel=0 note=68 velocity=63 time=0
EXTRACT: note_off channel=0 note=65 velocity=63 time=0
EXTRACT: note_off channel=0 note=60 velocity=63 time=0
EXTRACT: note_off channel=0 note=53 velocity=63 time=0
EXTRACT: note_on channel=0 note=72 velocity=63 time=0
EXTRACT: note_on channel=0 note=68 velocity=63 time=0
EXTRACT: note_on channel=0 note=65 velocity=63 time=0
EXTRACT: note_on channel=0 note=60 velocity=63 time=0
EXTRACT: note_on channel=0 note=53 velocity=63 time=0
EXTRACT: note_off channel=0 note=72 velocity=63 time=0.14423075
EXTRACT: note_off channel=0 note=68 velocity=63 time=0
EXTRACT: note_off channel=0 note=65 velocity=63 time=0
EXTRACT: note_off channel=0 note=60 velocity=63 time=0
EXTRACT: note_off channel=0 note=53 velocity=63 time=0
EXTRACT: note_on channel=0 note=64 velocity=63 time=0
EXTRACT: note_on channel=0 note=59 velocity=63 time=0
EXTRACT: note_on channel=0 note=55 velocity=63 time=0
EXTRACT: note_on channel=0 note=50 velocity=63 time=0
EXTRACT: note_on channel=0 note=45 velocity=63 time=0
EXTRACT: note_off channel=2 note=72 velocity=79 time=0
EXTRACT: note_off channel=2 note=68 velocity=79 time=0
EXTRACT: note_off channel=2 note=65 velocity=79 time=0
EXTRACT: note_off channel=4 note=70 velocity=95 time=0
EXTRACT: note_off channel=4 note=67 velocity=95 time=0
EXTRACT: note_off channel=4 note=63 velocity=95 time=0
EXTRACT: note_off channel=0 note=64 velocity=63 time=0.031249995833333332
EXTRACT: note_off channel=0 note=59 velocity=63 time=0
EXTRACT: note_off channel=0 note=55 velocity=63 time=0
EXTRACT: note_off channel=0 note=50 velocity=63 time=0
EXTRACT: note_off channel=0 note=45 velocity=63 time=0
EXTRACT: note_on channel=0 note=64 velocity=63 time=0.11298075416666667
EXTRACT: note_on channel=0 note=59 velocity=63 time=0
EXTRACT: note_on channel=0 note=55 velocity=63 time=0
EXTRACT: note_on channel=0 note=50 velocity=63 time=0
EXTRACT: note_on channel=0 note=45 velocity=63 time=0
EXTRACT: note_off channel=0 note=64 velocity=63 time=0.031249995833333332
EXTRACT: note_off channel=0 note=59 velocity=63 time=0
EXTRACT: note_off channel=0 note=55 velocity=63 time=0
EXTRACT: note_off channel=0 note=50 velocity=63 time=0
EXTRACT: note_off channel=0 note=45 velocity=63 time=0
EXTRACT: note_on channel=0 note=72 velocity=63 time=0.11298075416666667
EXTRACT: note_on channel=0 note=68 velocity=63 time=0
EXTRACT: note_on channel=0 note=65 velocity=63 time=0
EXTRACT: note_on channel=0 note=60 velocity=63 time=0
EXTRACT: note_on channel=0 note=53 velocity=63 time=0
EXTRACT: note_on channel=2 note=64 velocity=79 time=0
EXTRACT: note_on channel=2 note=59 velocity=79 time=0
EXTRACT: note_on channel=2 note=55 velocity=79 time=0
EXTRACT: note_on channel=4 note=68 velocity=95 time=0
EXTRACT: note_on channel=4 note=65 velocity=95 time=0
EXTRACT: note_on channel=4 note=60 velocity=95 time=0
EXTRACT: note_off channel=2 note=64 velocity=79 time=0.031249995833333332
EXTRACT: note_off channel=2 note=59 velocity=79 time=0
EXTRACT: note_off channel=2 note=55 velocity=79 time=0
EXTRACT: note_off channel=0 note=72 velocity=63 time=0.11298075416666667
EXTRACT: note_off channel=0 note=68 velocity=63 time=0
EXTRACT: note_off channel=0 note=65 velocity=63 time=0
EXTRACT: note_off channel=0 note=60 velocity=63 time=0
EXTRACT: note_off channel=0 note=53 velocity=63 time=0
EXTRACT: note_on channel=0 note=72 velocity=63 time=0
EXTRACT: note_on channel=0 note=68 velocity=63 time=0
EXTRACT: note_on channel=0 note=65 velocity=63 time=0
EXTRACT: note_on channel=0 note=60 velocity=63 time=0
EXTRACT: note_on channel=0 note=53 velocity=63 time=0
EXTRACT: note_on channel=2 note=72 velocity=79 time=0
EXTRACT: note_on channel=2 note=68 velocity=79 time=0
EXTRACT: note_on channel=2 note=65 velocity=79 time=0
EXTRACT: note_off channel=0 note=72 velocity=63 time=0.14423075
EXTRACT: note_off channel=0 note=68 velocity=63 time=0
EXTRACT: note_off channel=0 note=65 velocity=63 time=0
EXTRACT: note_off channel=0 note=60 velocity=63 time=0
EXTRACT: note_off channel=0 note=53 velocity=63 time=0
EXTRACT: note_on channel=0 note=64 velocity=63 time=0
EXTRACT: note_on channel=0 note=59 velocity=63 time=0
EXTRACT: note_on channel=0 note=55 velocity=63 time=0
EXTRACT: note_on channel=0 note=50 velocity=63 time=0
EXTRACT: note_on channel=0 note=45 velocity=63 time=0
EXTRACT: note_off channel=2 note=72 velocity=79 time=0
EXTRACT: note_off channel=2 note=68 velocity=79 time=0
EXTRACT: note_off channel=2 note=65 velocity=79 time=0
EXTRACT: note_off channel=4 note=68 velocity=95 time=0
EXTRACT: note_off channel=4 note=65 velocity=95 time=0
EXTRACT: note_off channel=4 note=60 velocity=95 time=0
EXTRACT: note_off channel=0 note=64 velocity=63 time=0.031249995833333332
EXTRACT: note_off channel=0 note=59 velocity=63 time=0
EXTRACT: note_off channel=0 note=55 velocity=63 time=0
EXTRACT: note_off channel=0 note=50 velocity=63 time=0
EXTRACT: note_off channel=0 note=45 velocity=63 time=0
EXTRACT: note_on channel=0 note=64 velocity=63 time=0.11298075416666667
EXTRACT: note_on channel=0 note=59 velocity=63 time=0
EXTRACT: note_on channel=0 note=55 velocity=63 time=0
EXTRACT: note_on channel=0 note=50 velocity=63 time=0
EXTRACT: note_on channel=0 note=45 velocity=63 time=0
EXTRACT: note_off channel=0 note=64 velocity=63 time=0.031249995833333332
EXTRACT: note_off channel=0 note=59 velocity=63 time=0
EXTRACT: note_off channel=0 note=55 velocity=63 time=0
EXTRACT: note_off channel=0 note=50 velocity=63 time=0
EXTRACT: note_off channel=0 note=45 velocity=63 time=0
EXTRACT: note_on channel=0 note=72 velocity=63 time=0.11298075416666667
EXTRACT: note_on channel=0 note=68 velocity=63 time=0
EXTRACT: note_on channel=0 note=65 velocity=63 time=0
EXTRACT: note_on channel=0 note=60 velocity=63 time=0
EXTRACT: note_on channel=0 note=53 velocity=63 time=0
EXTRACT: note_on channel=4 note=67 velocity=95 time=0
EXTRACT: note_on channel=4 note=63 velocity=95 time=0
EXTRACT: note_on channel=4 note=58 velocity=95 time=0
EXTRACT: note_off channel=0 note=72 velocity=63 time=0.14423075
EXTRACT: note_off channel=0 note=68 velocity=63 time=0
EXTRACT: note_off channel=0 note=65 velocity=63 time=0
EXTRACT: note_off channel=0 note=60 velocity=63 time=0
EXTRACT: note_off channel=0 note=53 velocity=63 time=0
EXTRACT: note_on channel=0 note=72 velocity=63 time=0
EXTRACT: note_on channel=0 note=68 velocity=63 time=0
EXTRACT: note_on channel=0 note=65 velocity=63 time=0
EXTRACT: note_on channel=0 note=60 velocity=63 time=0
EXTRACT: note_on channel=0 note=53 velocity=63 time=0
EXTRACT: note_off channel=0 note=72 velocity=63 time=0.14423075
EXTRACT: note_off channel=0 note=68 velocity=63 time=0
EXTRACT: note_off channel=0 note=65 velocity=63 time=0
EXTRACT: note_off channel=0 note=60 velocity=63 time=0
EXTRACT: note_off channel=0 note=53 velocity=63 time=0
EXTRACT: note_on channel=0 note=64 velocity=63 time=0
EXTRACT: note_on channel=0 note=59 velocity=63 time=0
EXTRACT: note_on channel=0 note=55 velocity=63 time=0
EXTRACT: note_on channel=0 note=50 velocity=63 time=0
EXTRACT: note_on channel=0 note=45 velocity=63 time=0
EXTRACT: note_on channel=2 note=72 velocity=79 time=0
EXTRACT: note_on channel=2 note=68 velocity=79 time=0
EXTRACT: note_on channel=2 note=65 velocity=79 time=0
EXTRACT: note_off channel=4 note=67 velocity=95 time=0
EXTRACT: note_off channel=4 note=63 velocity=95 time=0
EXTRACT: note_off channel=4 note=58 velocity=95 time=0
EXTRACT: note_off channel=0 note=64 velocity=63 time=0.031249995833333332
EXTRACT: note_off channel=0 note=59 velocity=63 time=0
EXTRACT: note_off channel=0 note=55 velocity=63 time=0
EXTRACT: note_off channel=0 note=50 velocity=63 time=0
EXTRACT: note_off channel=0 note=45 velocity=63 time=0
EXTRACT: note_on channel=0 note=64 velocity=63 time=0.11298075416666667
EXTRACT: note_on channel=0 note=59 velocity=63 time=0
EXTRACT: note_on channel=0 note=55 velocity=63 time=0
EXTRACT: note_on channel=0 note=50 velocity=63 time=0
EXTRACT: note_on channel=0 note=45 velocity=63 time=0
EXTRACT: note_off channel=2 note=72 velocity=79 time=0
EXTRACT: note_off channel=2 note=68 velocity=79 time=0
EXTRACT: note_off channel=2 note=65 velocity=79 time=0
EXTRACT: note_off channel=0 note=64 velocity=63 time=0.031249995833333332
EXTRACT: note_off channel=0 note=59 velocity=63 time=0
EXTRACT: note_off channel=0 note=55 velocity=63 time=0
EXTRACT: note_off channel=0 note=50 velocity=63 time=0
EXTRACT: note_off channel=0 note=45 velocity=63 time=0
EXTRACT: note_on channel=0 note=72 velocity=63 time=0.11298075416666667
EXTRACT: note_on channel=0 note=68 velocity=63 time=0
EXTRACT: note_on channel=0 note=65 velocity=63 time=0
EXTRACT: note_on channel=0 note=60 velocity=63 time=0
EXTRACT: note_on channel=0 note=53 velocity=63 time=0
EXTRACT: note_on channel=4 note=67 velocity=95 time=0
EXTRACT: note_on channel=4 note=63 velocity=95 time=0
EXTRACT: note_on channel=4 note=58 velocity=95 time=0
EXTRACT: note_off channel=0 note=72 velocity=63 time=0.14423075
EXTRACT: note_off channel=0 note=68 velocity=63 time=0
EXTRACT: note_off channel=0 note=65 velocity=63 time=0
EXTRACT: note_off channel=0 note=60 velocity=63 time=0
EXTRACT: note_off channel=0 note=53 velocity=63 time=0
EXTRACT: note_on channel=0 note=72 velocity=63 time=0
EXTRACT: note_on channel=0 note=68 velocity=63 time=0
EXTRACT: note_on channel=0 note=65 velocity=63 time=0
EXTRACT: note_on channel=0 note=60 velocity=63 time=0
EXTRACT: note_on channel=0 note=53 velocity=63 time=0
EXTRACT: note_off channel=4 note=67 velocity=95 time=0
EXTRACT: note_off channel=4 note=63 velocity=95 time=0
EXTRACT: note_off channel=4 note=58 velocity=95 time=0
EXTRACT: note_on channel=4 note=68 velocity=95 time=0
EXTRACT: note_on channel=4 note=65 velocity=95 time=0
EXTRACT: note_on channel=4 note=60 velocity=95 time=0
EXTRACT: note_off channel=0 note=72 velocity=63 time=0.14423075
EXTRACT: note_off channel=0 note=68 velocity=63 time=0
EXTRACT: note_off channel=0 note=65 velocity=63 time=0
EXTRACT: note_off channel=0 note=60 velocity=63 time=0
EXTRACT: note_off channel=0 note=53 velocity=63 time=0
EXTRACT: note_on channel=0 note=64 velocity=63 time=0
EXTRACT: note_on channel=0 note=59 velocity=63 time=0
EXTRACT: note_on channel=0 note=55 velocity=63 time=0
EXTRACT: note_on channel=0 note=50 velocity=63 time=0
EXTRACT: note_on channel=0 note=45 velocity=63 time=0
EXTRACT: note_on channel=2 note=72 velocity=79 time=0
EXTRACT: note_on channel=2 note=68 velocity=79 time=0
EXTRACT: note_on channel=2 note=65 velocity=79 time=0
EXTRACT: note_off channel=4 note=68 velocity=95 time=0
EXTRACT: note_off channel=4 note=65 velocity=95 time=0
EXTRACT: note_off channel=4 note=60 velocity=95 time=0
EXTRACT: note_on channel=4 note=68 velocity=95 time=0
EXTRACT: note_on channel=4 note=65 velocity=95 time=0
EXTRACT: note_on channel=4 note=60 velocity=95 time=0
EXTRACT: note_off channel=0 note=64 velocity=63 time=0.031249995833333332
EXTRACT: note_off channel=0 note=59 velocity=63 time=0
EXTRACT: note_off channel=0 note=55 velocity=63 time=0
EXTRACT: note_off channel=0 note=50 velocity=63 time=0
EXTRACT: note_off channel=0 note=45 velocity=63 time=0
EXTRACT: note_on channel=0 note=64 velocity=63 time=0.11298075416666667
EXTRACT: note_on channel=0 note=59 velocity=63 time=0
EXTRACT: note_on channel=0 note=55 velocity=63 time=0
EXTRACT: note_on channel=0 note=50 velocity=63 time=0
EXTRACT: note_on channel=0 note=45 velocity=63 time=0
EXTRACT: note_off channel=2 note=72 velocity=79 time=0
EXTRACT: note_off channel=2 note=68 velocity=79 time=0
EXTRACT: note_off channel=2 note=65 velocity=79 time=0
EXTRACT: note_on channel=2 note=72 velocity=79 time=0
EXTRACT: note_on channel=2 note=68 velocity=79 time=0
EXTRACT: note_on channel=2 note=65 velocity=79 time=0
EXTRACT: note_off channel=4 note=68 velocity=95 time=0
EXTRACT: note_off channel=4 note=65 velocity=95 time=0
EXTRACT: note_off channel=4 note=60 velocity=95 time=0
EXTRACT: note_on channel=4 note=68 velocity=95 time=0
EXTRACT: note_on channel=4 note=65 velocity=95 time=0
EXTRACT: note_on channel=4 note=60 velocity=95 time=0
EXTRACT: note_off channel=0 note=64 velocity=63 time=0.031249995833333332
EXTRACT: note_off channel=0 note=59 velocity=63 time=0
EXTRACT: note_off channel=0 note=55 velocity=63 time=0
EXTRACT: note_off channel=0 note=50 velocity=63 time=0
EXTRACT: note_off channel=0 note=45 velocity=63 time=0
EXTRACT: note_on channel=0 note=72 velocity=63 time=0.11298075416666667
EXTRACT: note_on channel=0 note=68 velocity=63 time=0
EXTRACT: note_on channel=0 note=65 velocity=63 time=0
EXTRACT: note_on channel=0 note=60 velocity=63 time=0
EXTRACT: note_on channel=0 note=53 velocity=63 time=0
EXTRACT: note_off channel=2 note=72 velocity=79 time=0
EXTRACT: note_off channel=2 note=68 velocity=79 time=0
EXTRACT: note_off channel=2 note=65 velocity=79 time=0
EXTRACT: note_on channel=2 note=72 velocity=79 time=0
EXTRACT: note_on channel=2 note=68 velocity=79 time=0
EXTRACT: note_on channel=2 note=65 velocity=79 time=0
EXTRACT: note_off channel=4 note=68 velocity=95 time=0
EXTRACT: note_off channel=4 note=65 velocity=95 time=0
EXTRACT: note_off channel=4 note=60 velocity=95 time=0
EXTRACT: note_off channel=0 note=72 velocity=63 time=0.14423075
EXTRACT: note_off channel=0 note=68 velocity=63 time=0
EXTRACT: note_off channel=0 note=65 velocity=63 time=0
EXTRACT: note_off channel=0 note=60 velocity=63 time=0
EXTRACT: note_off channel=0 note=53 velocity=63 time=0
EXTRACT: note_on channel=0 note=72 velocity=63 time=0
EXTRACT: note_on channel=0 note=68 velocity=63 time=0
EXTRACT: note_on channel=0 note=65 velocity=63 time=0
EXTRACT: note_on channel=0 note=60 velocity=63 time=0
EXTRACT: note_on channel=0 note=53 velocity=63 time=0
EXTRACT: note_off channel=2 note=72 velocity=79 time=0
EXTRACT: note_off channel=2 note=68 velocity=79 time=0
EXTRACT: note_off channel=2 note=65 velocity=79 time=0
EXTRACT: note_on channel=2 note=72 velocity=79 time=0
EXTRACT: note_on channel=2 note=68 velocity=79 time=0
EXTRACT: note_on channel=2 note=65 velocity=79 time=0
EXTRACT: note_off channel=0 note=72 velocity=63 time=0.14423075
EXTRACT: note_off channel=0 note=68 velocity=63 time=0
EXTRACT: note_off channel=0 note=65 velocity=63 time=0
EXTRACT: note_off channel=0 note=60 velocity=63 time=0
EXTRACT: note_off channel=0 note=53 velocity=63 time=0
EXTRACT: note_on channel=0 note=64 velocity=63 time=0
EXTRACT: note_on channel=0 note=59 velocity=63 time=0
EXTRACT: note_on channel=0 note=55 velocity=63 time=0
EXTRACT: note_on channel=0 note=50 velocity=63 time=0
EXTRACT: note_on channel=0 note=45 velocity=63 time=0
EXTRACT: note_off channel=2 note=72 velocity=79 time=0
EXTRACT: note_off channel=2 note=68 velocity=79 time=0
EXTRACT: note_off channel=2 note=65 velocity=79 time=0
EXTRACT: note_off channel=0 note=64 velocity=63 time=0.031249995833333332
EXTRACT: note_off channel=0 note=59 velocity=63 time=0
EXTRACT: note_off channel=0 note=55 velocity=63 time=0
EXTRACT: note_off channel=0 note=50 velocity=63 time=0
EXTRACT: note_off channel=0 note=45 velocity=63 time=0
EXTRACT: note_on channel=0 note=64 velocity=63 time=0.11298075416666667
EXTRACT: note_on channel=0 note=59 velocity=63 time=0
EXTRACT: note_on channel=0 note=55 velocity=63 time=0
EXTRACT: note_on channel=0 note=50 velocity=63 time=0
EXTRACT: note_on channel=0 note=45 velocity=63 time=0
EXTRACT: note_off channel=0 note=64 velocity=63 time=0.031249995833333332
EXTRACT: note_off channel=0 note=59 velocity=63 time=0
EXTRACT: note_off channel=0 note=55 velocity=63 time=0
EXTRACT: note_off channel=0 note=50 velocity=63 time=0
EXTRACT: note_off channel=0 note=45 velocity=63 time=0
EXTRACT: note_on channel=0 note=72 velocity=63 time=0.11298075416666667
EXTRACT: note_on channel=0 note=68 velocity=63 time=0
EXTRACT: note_on channel=0 note=65 velocity=63 time=0
EXTRACT: note_on channel=0 note=60 velocity=63 time=0
EXTRACT: note_on channel=0 note=53 velocity=63 time=0
EXTRACT: note_on channel=4 note=67 velocity=95 time=0
EXTRACT: note_on channel=4 note=63 velocity=95 time=0
EXTRACT: note_on channel=4 note=58 velocity=95 time=0
EXTRACT: note_off channel=0 note=72 velocity=63 time=0.14423075
EXTRACT: note_off channel=0 note=68 velocity=63 time=0
EXTRACT: note_off channel=0 note=65 velocity=63 time=0
EXTRACT: note_off channel=0 note=60 velocity=63 time=0
EXTRACT: note_off channel=0 note=53 velocity=63 time=0
EXTRACT: note_on channel=0 note=72 velocity=63 time=0
EXTRACT: note_on channel=0 note=68 velocity=63 time=0
EXTRACT: note_on channel=0 note=65 velocity=63 time=0
EXTRACT: note_on channel=0 note=60 velocity=63 time=0
EXTRACT: note_on channel=0 note=53 velocity=63 time=0
EXTRACT: note_off channel=4 note=67 velocity=95 time=0
EXTRACT: note_off channel=4 note=63 velocity=95 time=0
EXTRACT: note_off channel=4 note=58 velocity=95 time=0
EXTRACT: note_on channel=4 note=68 velocity=95 time=0
EXTRACT: note_on channel=4 note=65 velocity=95 time=0
EXTRACT: note_on channel=4 note=60 velocity=95 time=0
EXTRACT: note_on channel=6 note=77 velocity=95 time=0
EXTRACT: note_off channel=0 note=72 velocity=63 time=0.14423075
EXTRACT: note_off channel=0 note=68 velocity=63 time=0
EXTRACT: note_off channel=0 note=65 velocity=63 time=0
EXTRACT: note_off channel=0 note=60 velocity=63 time=0
EXTRACT: note_off channel=0 note=53 velocity=63 time=0
EXTRACT: note_on channel=0 note=64 velocity=63 time=0
EXTRACT: note_on channel=0 note=59 velocity=63 time=0
EXTRACT: note_on channel=0 note=55 velocity=63 time=0
EXTRACT: note_on channel=0 note=50 velocity=63 time=0
EXTRACT: note_on channel=0 note=45 velocity=63 time=0
EXTRACT: note_off channel=4 note=68 velocity=95 time=0
EXTRACT: note_off channel=4 note=65 velocity=95 time=0
EXTRACT: note_off channel=4 note=60 velocity=95 time=0
EXTRACT: note_on channel=4 note=68 velocity=95 time=0
EXTRACT: note_on channel=4 note=65 velocity=95 time=0
EXTRACT: note_on channel=4 note=60 velocity=95 time=0
EXTRACT: note_off channel=0 note=64 velocity=63 time=0.031249995833333332
EXTRACT: note_off channel=0 note=59 velocity=63 time=0
EXTRACT: note_off channel=0 note=55 velocity=63 time=0
EXTRACT: note_off channel=0 note=50 velocity=63 time=0
EXTRACT: note_off channel=0 note=45 velocity=63 time=0
EXTRACT: note_on channel=0 note=64 velocity=63 time=0.11298075416666667
EXTRACT: note_on channel=0 note=59 velocity=63 time=0
EXTRACT: note_on channel=0 note=55 velocity=63 time=0
EXTRACT: note_on channel=0 note=50 velocity=63 time=0
EXTRACT: note_on channel=0 note=45 velocity=63 time=0
EXTRACT: note_off channel=4 note=68 velocity=95 time=0
EXTRACT: note_off channel=4 note=65 velocity=95 time=0
EXTRACT: note_off channel=4 note=60 velocity=95 time=0
EXTRACT: note_on channel=4 note=68 velocity=95 time=0
EXTRACT: note_on channel=4 note=65 velocity=95 time=0
EXTRACT: note_on channel=4 note=60 velocity=95 time=0
EXTRACT: note_off channel=0 note=64 velocity=63 time=0.031249995833333332
EXTRACT: note_off channel=0 note=59 velocity=63 time=0
EXTRACT: note_off channel=0 note=55 velocity=63 time=0
EXTRACT: note_off channel=0 note=50 velocity=63 time=0
EXTRACT: note_off channel=0 note=45 velocity=63 time=0
EXTRACT: note_on channel=0 note=72 velocity=63 time=0.11298075416666667
EXTRACT: note_on channel=0 note=68 velocity=63 time=0
EXTRACT: note_on channel=0 note=65 velocity=63 time=0
EXTRACT: note_on channel=0 note=60 velocity=63 time=0
EXTRACT: note_on channel=0 note=53 velocity=63 time=0
EXTRACT: note_off channel=4 note=68 velocity=95 time=0
EXTRACT: note_off channel=4 note=65 velocity=95 time=0
EXTRACT: note_off channel=4 note=60 velocity=95 time=0
EXTRACT: note_off channel=0 note=72 velocity=63 time=0.14423075
EXTRACT: note_off channel=0 note=68 velocity=63 time=0
EXTRACT: note_off channel=0 note=65 velocity=63 time=0
EXTRACT: note_off channel=0 note=60 velocity=63 time=0
EXTRACT: note_off channel=0 note=53 velocity=63 time=0
EXTRACT: note_on channel=0 note=72 velocity=63 time=0
EXTRACT: note_on channel=0 note=68 velocity=63 time=0
EXTRACT: note_on channel=0 note=65 velocity=63 time=0
EXTRACT: note_on channel=0 note=60 velocity=63 time=0
EXTRACT: note_on channel=0 note=53 velocity=63 time=0
EXTRACT: note_off channel=6 note=77 velocity=95 time=0
EXTRACT: note_on channel=6 note=75 velocity=95 time=0
EXTRACT: note_off channel=0 note=72 velocity=63 time=0.14423075
EXTRACT: note_off channel=0 note=68 velocity=63 time=0
EXTRACT: note_off channel=0 note=65 velocity=63 time=0
EXTRACT: note_off channel=0 note=60 velocity=63 time=0
EXTRACT: note_off channel=0 note=53 velocity=63 time=0
EXTRACT: note_on channel=0 note=64 velocity=63 time=0
EXTRACT: note_on channel=0 note=59 velocity=63 time=0
EXTRACT: note_on channel=0 note=55 velocity=63 time=0
EXTRACT: note_on channel=0 note=50 velocity=63 time=0
EXTRACT: note_on channel=0 note=45 velocity=63 time=0
EXTRACT: note_on channel=2 note=72 velocity=79 time=0
EXTRACT: note_on channel=2 note=68 velocity=79 time=0
EXTRACT: note_on channel=2 note=65 velocity=79 time=0
EXTRACT: note_off channel=6 note=75 velocity=95 time=0
EXTRACT: note_on channel=6 note=72 velocity=95 time=0
EXTRACT: note_off channel=0 note=64 velocity=63 time=0.031249995833333332
EXTRACT: note_off channel=0 note=59 velocity=63 time=0
EXTRACT: note_off channel=0 note=55 velocity=63 time=0
EXTRACT: note_off channel=0 note=50 velocity=63 time=0
EXTRACT: note_off channel=0 note=45 velocity=63 time=0
EXTRACT: note_on channel=0 note=64 velocity=63 time=0.11298075416666667
EXTRACT: note_on channel=0 note=59 velocity=63 time=0
EXTRACT: note_on channel=0 note=55 velocity=63 time=0
EXTRACT: note_on channel=0 note=50 velocity=63 time=0
EXTRACT: note_on channel=0 note=45 velocity=63 time=0
EXTRACT: note_off channel=0 note=64 velocity=63 time=0.031249995833333332
EXTRACT: note_off channel=0 note=59 velocity=63 time=0
EXTRACT: note_off channel=0 note=55 velocity=63 time=0
EXTRACT: note_off channel=0 note=50 velocity=63 time=0
EXTRACT: note_off channel=0 note=45 velocity=63 time=0
EXTRACT: note_on channel=0 note=72 velocity=63 time=0.11298075416666667
EXTRACT: note_on channel=0 note=68 velocity=63 time=0
EXTRACT: note_on channel=0 note=65 velocity=63 time=0
EXTRACT: note_on channel=0 note=60 velocity=63 time=0
EXTRACT: note_on channel=0 note=53 velocity=63 time=0
EXTRACT: note_on channel=4 note=72 velocity=95 time=0
EXTRACT: note_on channel=4 note=68 velocity=95 time=0
EXTRACT: note_on channel=4 note=65 velocity=95 time=0
EXTRACT: note_off channel=6 note=72 velocity=95 time=0
EXTRACT: note_off channel=0 note=72 velocity=63 time=0.14423075
EXTRACT: note_off channel=0 note=68 velocity=63 time=0
EXTRACT: note_off channel=0 note=65 velocity=63 time=0
EXTRACT: note_off channel=0 note=60 velocity=63 time=0
EXTRACT: note_off channel=0 note=53 velocity=63 time=0
EXTRACT: note_on channel=0 note=72 velocity=63 time=0
EXTRACT: note_on channel=0 note=68 velocity=63 time=0
EXTRACT: note_on channel=0 note=65 velocity=63 time=0
EXTRACT: note_on channel=0 note=60 velocity=63 time=0
EXTRACT: note_on channel=0 note=53 velocity=63 time=0
EXTRACT: note_off channel=0 note=72 velocity=63 time=0.14423075
EXTRACT: note_off channel=0 note=68 velocity=63 time=0
EXTRACT: note_off channel=0 note=65 velocity=63 time=0
EXTRACT: note_off channel=0 note=60 velocity=63 time=0
EXTRACT: note_off channel=0 note=53 velocity=63 time=0
EXTRACT: note_on channel=0 note=64 velocity=63 time=0
EXTRACT: note_on channel=0 note=59 velocity=63 time=0
EXTRACT: note_on channel=0 note=55 velocity=63 time=0
EXTRACT: note_on channel=0 note=50 velocity=63 time=0
EXTRACT: note_on channel=0 note=45 velocity=63 time=0
EXTRACT: note_off channel=2 note=72 velocity=79 time=0
EXTRACT: note_off channel=2 note=68 velocity=79 time=0
EXTRACT: note_off channel=2 note=65 velocity=79 time=0
EXTRACT: note_off channel=4 note=72 velocity=95 time=0
EXTRACT: note_off channel=4 note=68 velocity=95 time=0
EXTRACT: note_off channel=4 note=65 velocity=95 time=0
EXTRACT: note_off channel=0 note=64 velocity=63 time=0.031249995833333332
EXTRACT: note_off channel=0 note=59 velocity=63 time=0
EXTRACT: note_off channel=0 note=55 velocity=63 time=0
EXTRACT: note_off channel=0 note=50 velocity=63 time=0
EXTRACT: note_off channel=0 note=45 velocity=63 time=0
EXTRACT: note_on channel=0 note=64 velocity=63 time=0.11298075416666667
EXTRACT: note_on channel=0 note=59 velocity=63 time=0
EXTRACT: note_on channel=0 note=55 velocity=63 time=0
EXTRACT: note_on channel=0 note=50 velocity=63 time=0
EXTRACT: note_on channel=0 note=45 velocity=63 time=0
EXTRACT: note_off channel=0 note=64 velocity=63 time=0.031249995833333332
EXTRACT: note_off channel=0 note=59 velocity=63 time=0
EXTRACT: note_off channel=0 note=55 velocity=63 time=0
EXTRACT: note_off channel=0 note=50 velocity=63 time=0
EXTRACT: note_off channel=0 note=45 velocity=63 time=0
EXTRACT: note_on channel=0 note=72 velocity=63 time=0.11298075416666667
EXTRACT: note_on channel=0 note=68 velocity=63 time=0
EXTRACT: note_on channel=0 note=65 velocity=63 time=0
EXTRACT: note_on channel=0 note=60 velocity=63 time=0
EXTRACT: note_on channel=0 note=53 velocity=63 time=0
EXTRACT: note_on channel=4 note=70 velocity=95 time=0
EXTRACT: note_on channel=4 note=67 velocity=95 time=0
EXTRACT: note_on channel=4 note=63 velocity=95 time=0
EXTRACT: note_off channel=0 note=72 velocity=63 time=0.14423075
EXTRACT: note_off channel=0 note=68 velocity=63 time=0
EXTRACT: note_off channel=0 note=65 velocity=63 time=0
EXTRACT: note_off channel=0 note=60 velocity=63 time=0
EXTRACT: note_off channel=0 note=53 velocity=63 time=0
EXTRACT: note_on channel=0 note=72 velocity=63 time=0
EXTRACT: note_on channel=0 note=68 velocity=63 time=0
EXTRACT: note_on channel=0 note=65 velocity=63 time=0
EXTRACT: note_on channel=0 note=60 velocity=63 time=0
EXTRACT: note_on channel=0 note=53 velocity=63 time=0
EXTRACT: note_off channel=0 note=72 velocity=63 time=0.14423075
EXTRACT: note_off channel=0 note=68 velocity=63 time=0
EXTRACT: note_off channel=0 note=65 velocity=63 time=0
EXTRACT: note_off channel=0 note=60 velocity=63 time=0
EXTRACT: note_off channel=0 note=53 velocity=63 time=0
EXTRACT: note_on channel=0 note=64 velocity=63 time=0
EXTRACT: note_on channel=0 note=59 velocity=63 time=0
EXTRACT: note_on channel=0 note=55 velocity=63 time=0
EXTRACT: note_on channel=0 note=50 velocity=63 time=0
EXTRACT: note_on channel=0 note=45 velocity=63 time=0
EXTRACT: note_off channel=4 note=70 velocity=95 time=0
EXTRACT: note_off channel=4 note=67 velocity=95 time=0
EXTRACT: note_off channel=4 note=63 velocity=95 time=0
EXTRACT: note_off channel=0 note=64 velocity=63 time=0.031249995833333332
EXTRACT: note_off channel=0 note=59 velocity=63 time=0
EXTRACT: note_off channel=0 note=55 velocity=63 time=0
EXTRACT: note_off channel=0 note=50 velocity=63 time=0
EXTRACT: note_off channel=0 note=45 velocity=63 time=0
EXTRACT: note_on channel=0 note=64 velocity=63 time=0.11298075416666667
EXTRACT: note_on channel=0 note=59 velocity=63 time=0
EXTRACT: note_on channel=0 note=55 velocity=63 time=0
EXTRACT: note_on channel=0 note=50 velocity=63 time=0
EXTRACT: note_on channel=0 note=45 velocity=63 time=0
EXTRACT: note_off channel=0 note=64 velocity=63 time=0.031249995833333332
EXTRACT: note_off channel=0 note=59 velocity=63 time=0
EXTRACT: note_off channel=0 note=55 velocity=63 time=0
EXTRACT: note_off channel=0 note=50 velocity=63 time=0
EXTRACT: note_off channel=0 note=45 velocity=63 time=0
EXTRACT: note_on channel=0 note=72 velocity=63 time=0.11298075416666667
EXTRACT: note_on channel=0 note=68 velocity=63 time=0
EXTRACT: note_on channel=0 note=65 velocity=63 time=0
EXTRACT: note_on channel=0 note=60 velocity=63 time=0
EXTRACT: note_on channel=0 note=53 velocity=63 time=0
EXTRACT: note_on channel=4 note=68 velocity=95 time=0
EXTRACT: note_on channel=4 note=65 velocity=95 time=0
EXTRACT: note_on channel=4 note=60 velocity=95 time=0
EXTRACT: note_off channel=0 note=72 velocity=63 time=0.14423075
EXTRACT: note_off channel=0 note=68 velocity=63 time=0
EXTRACT: note_off channel=0 note=65 velocity=63 time=0
EXTRACT: note_off channel=0 note=60 velocity=63 time=0
EXTRACT: note_off channel=0 note=53 velocity=63 time=0
EXTRACT: note_on channel=0 note=72 velocity=63 time=0
EXTRACT: note_on channel=0 note=68 velocity=63 time=0
EXTRACT: note_on channel=0 note=65 velocity=63 time=0
EXTRACT: note_on channel=0 note=60 velocity=63 time=0
EXTRACT: note_on channel=0 note=53 velocity=63 time=0
EXTRACT: note_off channel=0 note=72 velocity=63 time=0.14423075
EXTRACT: note_off channel=0 note=68 velocity=63 time=0
EXTRACT: note_off channel=0 note=65 velocity=63 time=0
EXTRACT: note_off channel=0 note=60 velocity=63 time=0
EXTRACT: note_off channel=0 note=53 velocity=63 time=0
EXTRACT: note_on channel=0 note=64 velocity=63 time=0
EXTRACT: note_on channel=0 note=59 velocity=63 time=0
EXTRACT: note_on channel=0 note=55 velocity=63 time=0
EXTRACT: note_on channel=0 note=50 velocity=63 time=0
EXTRACT: note_on channel=0 note=45 velocity=63 time=0
EXTRACT: note_on channel=2 note=64 velocity=79 time=0
EXTRACT: note_on channel=2 note=59 velocity=79 time=0
EXTRACT: note_on channel=2 note=55 velocity=79 time=0
EXTRACT: note_off channel=4 note=68 velocity=95 time=0
EXTRACT: note_off channel=4 note=65 velocity=95 time=0
EXTRACT: note_off channel=4 note=60 velocity=95 time=0
EXTRACT: note_off channel=0 note=64 velocity=63 time=0.031249995833333332
EXTRACT: note_off channel=0 note=59 velocity=63 time=0
EXTRACT: note_off channel=0 note=55 velocity=63 time=0
EXTRACT: note_off channel=0 note=50 velocity=63 time=0
EXTRACT: note_off channel=0 note=45 velocity=63 time=0
EXTRACT: note_off channel=2 note=64 velocity=79 time=0
EXTRACT: note_off channel=2 note=59 velocity=79 time=0
EXTRACT: note_off channel=2 note=55 velocity=79 time=0
EXTRACT: note_on channel=0 note=64 velocity=63 time=0.11298075416666667
EXTRACT: note_on channel=0 note=59 velocity=63 time=0
EXTRACT: note_on channel=0 note=55 velocity=63 time=0
EXTRACT: note_on channel=0 note=50 velocity=63 time=0
EXTRACT: note_on channel=0 note=45 velocity=63 time=0
EXTRACT: note_on channel=2 note=72 velocity=79 time=0
EXTRACT: note_on channel=2 note=68 velocity=79 time=0
EXTRACT: note_on channel=2 note=65 velocity=79 time=0
EXTRACT: note_off channel=0 note=64 velocity=63 time=0.031249995833333332
EXTRACT: note_off channel=0 note=59 velocity=63 time=0
EXTRACT: note_off channel=0 note=55 velocity=63 time=0
EXTRACT: note_off channel=0 note=50 velocity=63 time=0
EXTRACT: note_off channel=0 note=45 velocity=63 time=0
EXTRACT: note_on channel=0 note=72 velocity=63 time=0.11298075416666667
EXTRACT: note_on channel=0 note=68 velocity=63 time=0
EXTRACT: note_on channel=0 note=65 velocity=63 time=0
EXTRACT: note_on channel=0 note=60 velocity=63 time=0
EXTRACT: note_on channel=0 note=53 velocity=63 time=0
EXTRACT: note_off channel=2 note=72 velocity=79 time=0
EXTRACT: note_off channel=2 note=68 velocity=79 time=0
EXTRACT: note_off channel=2 note=65 velocity=79 time=0
EXTRACT: note_on channel=4 note=67 velocity=95 time=0
EXTRACT: note_on channel=4 note=63 velocity=95 time=0
EXTRACT: note_on channel=4 note=58 velocity=95 time=0
EXTRACT: note_off channel=0 note=72 velocity=63 time=0.14423075
EXTRACT: note_off channel=0 note=68 velocity=63 time=0
EXTRACT: note_off channel=0 note=65 velocity=63 time=0
EXTRACT: note_off channel=0 note=60 velocity=63 time=0
EXTRACT: note_off channel=0 note=53 velocity=63 time=0
EXTRACT: note_on channel=0 note=72 velocity=63 time=0
EXTRACT: note_on channel=0 note=68 velocity=63 time=0
EXTRACT: note_on channel=0 note=65 velocity=63 time=0
EXTRACT: note_on channel=0 note=60 velocity=63 time=0
EXTRACT: note_on channel=0 note=53 velocity=63 time=0
EXTRACT: note_off channel=0 note=72 velocity=63 time=0.14423075
EXTRACT: note_off channel=0 note=68 velocity=63 time=0
EXTRACT: note_off channel=0 note=65 velocity=63 time=0
EXTRACT: note_off channel=0 note=60 velocity=63 time=0
EXTRACT: note_off channel=0 note=53 velocity=63 time=0
EXTRACT: note_on channel=0 note=64 velocity=63 time=0
EXTRACT: note_on channel=0 note=59 velocity=63 time=0
EXTRACT: note_on channel=0 note=55 velocity=63 time=0
EXTRACT: note_on channel=0 note=50 velocity=63 time=0
EXTRACT: note_on channel=0 note=45 velocity=63 time=0
EXTRACT: note_off channel=4 note=67 velocity=95 time=0
EXTRACT: note_off channel=4 note=63 velocity=95 time=0
EXTRACT: note_off channel=4 note=58 velocity=95 time=0
EXTRACT: note_off channel=0 note=64 velocity=63 time=0.031249995833333332
EXTRACT: note_off channel=0 note=59 velocity=63 time=0
EXTRACT: note_off channel=0 note=55 velocity=63 time=0
EXTRACT: note_off channel=0 note=50 velocity=63 time=0
EXTRACT: note_off channel=0 note=45 velocity=63 time=0
EXTRACT: note_on channel=0 note=64 velocity=63 time=0.11298075416666667
EXTRACT: note_on channel=0 note=59 velocity=63 time=0
EXTRACT: note_on channel=0 note=55 velocity=63 time=0
EXTRACT: note_on channel=0 note=50 velocity=63 time=0
EXTRACT: note_on channel=0 note=45 velocity=63 time=0
EXTRACT: note_off channel=0 note=64 velocity=63 time=0.031249995833333332
EXTRACT: note_off channel=0 note=59 velocity=63 time=0
EXTRACT: note_off channel=0 note=55 velocity=63 time=0
EXTRACT: note_off channel=0 note=50 velocity=63 time=0
EXTRACT: note_off channel=0 note=45 velocity=63 time=0
EXTRACT: note_on channel=0 note=72 velocity=63 time=0.11298075416666667
EXTRACT: note_on channel=0 note=68 velocity=63 time=0
EXTRACT: note_on channel=0 note=65 velocity=63 time=0
EXTRACT: note_on channel=0 note=60 velocity=63 time=0
EXTRACT: note_on channel=0 note=53 velocity=63 time=0
EXTRACT: note_on channel=2 note=65 velocity=79 time=0
EXTRACT: note_on channel=2 note=60 velocity=79 time=0
EXTRACT: note_on channel=2 note=56 velocity=79 time=0
EXTRACT: note_on channel=2 note=53 velocity=79 time=0
EXTRACT: note_on channel=4 note=67 velocity=95 time=0
EXTRACT: note_on channel=4 note=63 velocity=95 time=0
EXTRACT: note_on channel=4 note=56 velocity=95 time=0
EXTRACT: note_off channel=0 note=72 velocity=63 time=0.14423075
EXTRACT: note_off channel=0 note=68 velocity=63 time=0
EXTRACT: note_off channel=0 note=65 velocity=63 time=0
EXTRACT: note_off channel=0 note=60 velocity=63 time=0
EXTRACT: note_off channel=0 note=53 velocity=63 time=0
EXTRACT: note_on channel=0 note=72 velocity=63 time=0
EXTRACT: note_on channel=0 note=68 velocity=63 time=0
EXTRACT: note_on channel=0 note=65 velocity=63 time=0
EXTRACT: note_on channel=0 note=60 velocity=63 time=0
EXTRACT: note_on channel=0 note=53 velocity=63 time=0
EXTRACT: note_off channel=4 note=67 velocity=95 time=0
EXTRACT: note_off channel=4 note=63 velocity=95 time=0
EXTRACT: note_off channel=4 note=56 velocity=95 time=0
EXTRACT: note_on channel=4 note=65 velocity=95 time=0
EXTRACT: note_on channel=4 note=68 velocity=95 time=0
EXTRACT: note_on channel=4 note=56 velocity=95 time=0
EXTRACT: note_off channel=0 note=72 velocity=63 time=0.14423075
EXTRACT: note_off channel=0 note=68 velocity=63 time=0
EXTRACT: note_off channel=0 note=65 velocity=63 time=0
EXTRACT: note_off channel=0 note=60 velocity=63 time=0
EXTRACT: note_off channel=0 note=53 velocity=63 time=0
EXTRACT: note_on channel=0 note=64 velocity=63 time=0
EXTRACT: note_on channel=0 note=59 velocity=63 time=0
EXTRACT: note_on channel=0 note=55 velocity=63 time=0
EXTRACT: note_on channel=0 note=50 velocity=63 time=0
EXTRACT: note_on channel=0 note=45 velocity=63 time=0
EXTRACT: note_off channel=4 note=65 velocity=95 time=0
EXTRACT: note_off channel=4 note=68 velocity=95 time=0
EXTRACT: note_off channel=4 note=56 velocity=95 time=0
EXTRACT: note_on channel=4 note=65 velocity=95 time=0
EXTRACT: note_on channel=4 note=68 velocity=95 time=0
EXTRACT: note_on channel=4 note=56 velocity=95 time=0
EXTRACT: note_off channel=0 note=64 velocity=63 time=0.031249995833333332
EXTRACT: note_off channel=0 note=59 velocity=63 time=0
EXTRACT: note_off channel=0 note=55 velocity=63 time=0
EXTRACT: note_off channel=0 note=50 velocity=63 time=0
EXTRACT: note_off channel=0 note=45 velocity=63 time=0
EXTRACT: note_on channel=0 note=64 velocity=63 time=0.11298075416666667
EXTRACT: note_on channel=0 note=59 velocity=63 time=0
EXTRACT: note_on channel=0 note=55 velocity=63 time=0
EXTRACT: note_on channel=0 note=50 velocity=63 time=0
EXTRACT: note_on channel=0 note=45 velocity=63 time=0
EXTRACT: note_off channel=4 note=65 velocity=95 time=0
EXTRACT: note_off channel=4 note=68 velocity=95 time=0
EXTRACT: note_off channel=4 note=56 velocity=95 time=0
EXTRACT: note_on channel=4 note=65 velocity=95 time=0
EXTRACT: note_on channel=4 note=68 velocity=95 time=0
EXTRACT: note_on channel=4 note=72 velocity=95 time=0
EXTRACT: note_off channel=0 note=64 velocity=63 time=0.031249995833333332
EXTRACT: note_off channel=0 note=59 velocity=63 time=0
EXTRACT: note_off channel=0 note=55 velocity=63 time=0
EXTRACT: note_off channel=0 note=50 velocity=63 time=0
EXTRACT: note_off channel=0 note=45 velocity=63 time=0
EXTRACT: note_on channel=0 note=72 velocity=63 time=0.11298075416666667
EXTRACT: note_on channel=0 note=68 velocity=63 time=0
EXTRACT: note_on channel=0 note=65 velocity=63 time=0
EXTRACT: note_on channel=0 note=60 velocity=63 time=0
EXTRACT: note_on channel=0 note=53 velocity=63 time=0
EXTRACT: note_off channel=0 note=72 velocity=63 time=0.14423075
EXTRACT: note_off channel=0 note=68 velocity=63 time=0
EXTRACT: note_off channel=0 note=65 velocity=63 time=0
EXTRACT: note_off channel=0 note=60 velocity=63 time=0
EXTRACT: note_off channel=0 note=53 velocity=63 time=0
EXTRACT: note_on channel=0 note=72 velocity=63 time=0
EXTRACT: note_on channel=0 note=68 velocity=63 time=0
EXTRACT: note_on channel=0 note=65 velocity=63 time=0
EXTRACT: note_on channel=0 note=60 velocity=63 time=0
EXTRACT: note_on channel=0 note=53 velocity=63 time=0
EXTRACT: note_off channel=0 note=72 velocity=63 time=0.14423075
EXTRACT: note_off channel=0 note=68 velocity=63 time=0
EXTRACT: note_off channel=0 note=65 velocity=63 time=0
EXTRACT: note_off channel=0 note=60 velocity=63 time=0
EXTRACT: note_off channel=0 note=53 velocity=63 time=0
EXTRACT: note_on channel=0 note=64 velocity=63 time=0
EXTRACT: note_on channel=0 note=59 velocity=63 time=0
EXTRACT: note_on channel=0 note=55 velocity=63 time=0
EXTRACT: note_on channel=0 note=50 velocity=63 time=0
EXTRACT: note_on channel=0 note=45 velocity=63 time=0
EXTRACT: note_off channel=0 note=64 velocity=63 time=0.031249995833333332
EXTRACT: note_off channel=0 note=59 velocity=63 time=0
EXTRACT: note_off channel=0 note=55 velocity=63 time=0
EXTRACT: note_off channel=0 note=50 velocity=63 time=0
EXTRACT: note_off channel=0 note=45 velocity=63 time=0
EXTRACT: note_on channel=0 note=64 velocity=63 time=0.11298075416666667
EXTRACT: note_on channel=0 note=59 velocity=63 time=0
EXTRACT: note_on channel=0 note=55 velocity=63 time=0
EXTRACT: note_on channel=0 note=50 velocity=63 time=0
EXTRACT: note_on channel=0 note=45 velocity=63 time=0
EXTRACT: note_off channel=0 note=64 velocity=63 time=0.031249995833333332
EXTRACT: note_off channel=0 note=59 velocity=63 time=0
EXTRACT: note_off channel=0 note=55 velocity=63 time=0
EXTRACT: note_off channel=0 note=50 velocity=63 time=0
EXTRACT: note_off channel=0 note=45 velocity=63 time=0
EXTRACT: note_on channel=0 note=72 velocity=63 time=0.11298075416666667
EXTRACT: note_on channel=0 note=68 velocity=63 time=0
EXTRACT: note_on channel=0 note=65 velocity=63 time=0
EXTRACT: note_on channel=0 note=60 velocity=63 time=0
EXTRACT: note_on channel=0 note=53 velocity=63 time=0
EXTRACT: note_off channel=0 note=72 velocity=63 time=0.14423075
EXTRACT: note_off channel=0 note=68 velocity=63 time=0
EXTRACT: note_off channel=0 note=65 velocity=63 time=0
EXTRACT: note_off channel=0 note=60 velocity=63 time=0
EXTRACT: note_off channel=0 note=53 velocity=63 time=0
EXTRACT: note_on channel=0 note=72 velocity=63 time=0
EXTRACT: note_on channel=0 note=68 velocity=63 time=0
EXTRACT: note_on channel=0 note=65 velocity=63 time=0
EXTRACT: note_on channel=0 note=60 velocity=63 time=0
EXTRACT: note_on channel=0 note=53 velocity=63 time=0
EXTRACT: note_off channel=0 note=72 velocity=63 time=0.14423075
EXTRACT: note_off channel=0 note=68 velocity=63 time=0
EXTRACT: note_off channel=0 note=65 velocity=63 time=0
EXTRACT: note_off channel=0 note=60 velocity=63 time=0
EXTRACT: note_off channel=0 note=53 velocity=63 time=0
EXTRACT: note_on channel=0 note=64 velocity=63 time=0
EXTRACT: note_on channel=0 note=59 velocity=63 time=0
EXTRACT: note_on channel=0 note=55 velocity=63 time=0
EXTRACT: note_on channel=0 note=50 velocity=63 time=0
EXTRACT: note_on channel=0 note=45 velocity=63 time=0
EXTRACT: note_off channel=0 note=64 velocity=63 time=0.031249995833333332
EXTRACT: note_off channel=0 note=59 velocity=63 time=0
EXTRACT: note_off channel=0 note=55 velocity=63 time=0
EXTRACT: note_off channel=0 note=50 velocity=63 time=0
EXTRACT: note_off channel=0 note=45 velocity=63 time=0
EXTRACT: note_on channel=0 note=64 velocity=63 time=0.11298075416666667
EXTRACT: note_on channel=0 note=59 velocity=63 time=0
EXTRACT: note_on channel=0 note=55 velocity=63 time=0
EXTRACT: note_on channel=0 note=50 velocity=63 time=0
EXTRACT: note_on channel=0 note=45 velocity=63 time=0
EXTRACT: note_off channel=0 note=64 velocity=63 time=0.031249995833333332
EXTRACT: note_off channel=0 note=59 velocity=63 time=0
EXTRACT: note_off channel=0 note=55 velocity=63 time=0
EXTRACT: note_off channel=0 note=50 velocity=63 time=0
EXTRACT: note_off channel=0 note=45 velocity=63 time=0
EXTRACT: note_on channel=0 note=72 velocity=63 time=0.11298075416666667
EXTRACT: note_on channel=0 note=68 velocity=63 time=0
EXTRACT: note_on channel=0 note=65 velocity=63 time=0
EXTRACT: note_on channel=0 note=60 velocity=63 time=0
EXTRACT: note_on channel=0 note=53 velocity=63 time=0
EXTRACT: note_off channel=0 note=72 velocity=63 time=0.14423075
EXTRACT: note_off channel=0 note=68 velocity=63 time=0
EXTRACT: note_off channel=0 note=65 velocity=63 time=0
EXTRACT: note_off channel=0 note=60 velocity=63 time=0
EXTRACT: note_off channel=0 note=53 velocity=63 time=0
EXTRACT: note_on channel=0 note=72 velocity=63 time=0
EXTRACT: note_on channel=0 note=68 velocity=63 time=0
EXTRACT: note_on channel=0 note=65 velocity=63 time=0
EXTRACT: note_on channel=0 note=60 velocity=63 time=0
EXTRACT: note_on channel=0 note=53 velocity=63 time=0
EXTRACT: note_off channel=0 note=72 velocity=63 time=0.14423075
EXTRACT: note_off channel=0 note=68 velocity=63 time=0
EXTRACT: note_off channel=0 note=65 velocity=63 time=0
EXTRACT: note_off channel=0 note=60 velocity=63 time=0
EXTRACT: note_off channel=0 note=53 velocity=63 time=0
EXTRACT: note_on channel=0 note=64 velocity=63 time=0
EXTRACT: note_on channel=0 note=59 velocity=63 time=0
EXTRACT: note_on channel=0 note=55 velocity=63 time=0
EXTRACT: note_on channel=0 note=50 velocity=63 time=0
EXTRACT: note_on channel=0 note=45 velocity=63 time=0
EXTRACT: note_off channel=0 note=64 velocity=63 time=0.031249995833333332
EXTRACT: note_off channel=0 note=59 velocity=63 time=0
EXTRACT: note_off channel=0 note=55 velocity=63 time=0
EXTRACT: note_off channel=0 note=50 velocity=63 time=0
EXTRACT: note_off channel=0 note=45 velocity=63 time=0
EXTRACT: note_on channel=0 note=64 velocity=63 time=0.11298075416666667
EXTRACT: note_on channel=0 note=59 velocity=63 time=0
EXTRACT: note_on channel=0 note=55 velocity=63 time=0
EXTRACT: note_on channel=0 note=50 velocity=63 time=0
EXTRACT: note_on channel=0 note=45 velocity=63 time=0
EXTRACT: note_off channel=0 note=64 velocity=63 time=0.031249995833333332
EXTRACT: note_off channel=0 note=59 velocity=63 time=0
EXTRACT: note_off channel=0 note=55 velocity=63 time=0
EXTRACT: note_off channel=0 note=50 velocity=63 time=0
EXTRACT: note_off channel=0 note=45 velocity=63 time=0
EXTRACT: note_on channel=0 note=72 velocity=63 time=0.11298075416666667
EXTRACT: note_on channel=0 note=68 velocity=63 time=0
EXTRACT: note_on channel=0 note=65 velocity=63 time=0
EXTRACT: note_on channel=0 note=60 velocity=63 time=0
EXTRACT: note_on channel=0 note=53 velocity=63 time=0
EXTRACT: note_off channel=4 note=65 velocity=95 time=0
EXTRACT: note_off channel=4 note=68 velocity=95 time=0
EXTRACT: note_off channel=4 note=72 velocity=95 time=0
EXTRACT: note_on channel=4 note=70 velocity=95 time=0
EXTRACT: note_on channel=4 note=67 velocity=95 time=0
EXTRACT: note_on channel=4 note=63 velocity=95 time=0
EXTRACT: note_off channel=0 note=72 velocity=63 time=0.14423075
EXTRACT: note_off channel=0 note=68 velocity=63 time=0
EXTRACT: note_off channel=0 note=65 velocity=63 time=0
EXTRACT: note_off channel=0 note=60 velocity=63 time=0
EXTRACT: note_off channel=0 note=53 velocity=63 time=0
EXTRACT: note_on channel=0 note=72 velocity=63 time=0
EXTRACT: note_on channel=0 note=68 velocity=63 time=0
EXTRACT: note_on channel=0 note=65 velocity=63 time=0
EXTRACT: note_on channel=0 note=60 velocity=63 time=0
EXTRACT: note_on channel=0 note=53 velocity=63 time=0
EXTRACT: note_off channel=0 note=72 velocity=63 time=0.14423075
EXTRACT: note_off channel=0 note=68 velocity=63 time=0
EXTRACT: note_off channel=0 note=65 velocity=63 time=0
EXTRACT: note_off channel=0 note=60 velocity=63 time=0
EXTRACT: note_off channel=0 note=53 velocity=63 time=0
EXTRACT: note_on channel=0 note=64 velocity=63 time=0
EXTRACT: note_on channel=0 note=59 velocity=63 time=0
EXTRACT: note_on channel=0 note=55 velocity=63 time=0
EXTRACT: note_on channel=0 note=50 velocity=63 time=0
EXTRACT: note_on channel=0 note=45 velocity=63 time=0
EXTRACT: note_off channel=0 note=64 velocity=63 time=0.031249995833333332
EXTRACT: note_off channel=0 note=59 velocity=63 time=0
EXTRACT: note_off channel=0 note=55 velocity=63 time=0
EXTRACT: note_off channel=0 note=50 velocity=63 time=0
EXTRACT: note_off channel=0 note=45 velocity=63 time=0
EXTRACT: note_on channel=0 note=64 velocity=63 time=0.11298075416666667
EXTRACT: note_on channel=0 note=59 velocity=63 time=0
EXTRACT: note_on channel=0 note=55 velocity=63 time=0
EXTRACT: note_on channel=0 note=50 velocity=63 time=0
EXTRACT: note_on channel=0 note=45 velocity=63 time=0
EXTRACT: note_off channel=0 note=64 velocity=63 time=0.031249995833333332
EXTRACT: note_off channel=0 note=59 velocity=63 time=0
EXTRACT: note_off channel=0 note=55 velocity=63 time=0
EXTRACT: note_off channel=0 note=50 velocity=63 time=0
EXTRACT: note_off channel=0 note=45 velocity=63 time=0
EXTRACT: note_on channel=0 note=72 velocity=63 time=0.11298075416666667
EXTRACT: note_on channel=0 note=68 velocity=63 time=0
EXTRACT: note_on channel=0 note=65 velocity=63 time=0
EXTRACT: note_on channel=0 note=60 velocity=63 time=0
EXTRACT: note_on channel=0 note=53 velocity=63 time=0
EXTRACT: note_off channel=0 note=72 velocity=63 time=0.14423075
EXTRACT: note_off channel=0 note=68 velocity=63 time=0
EXTRACT: note_off channel=0 note=65 velocity=63 time=0
EXTRACT: note_off channel=0 note=60 velocity=63 time=0
EXTRACT: note_off channel=0 note=53 velocity=63 time=0
EXTRACT: note_on channel=0 note=72 velocity=63 time=0
EXTRACT: note_on channel=0 note=68 velocity=63 time=0
EXTRACT: note_on channel=0 note=65 velocity=63 time=0
EXTRACT: note_on channel=0 note=60 velocity=63 time=0
EXTRACT: note_on channel=0 note=53 velocity=63 time=0
EXTRACT: note_off channel=0 note=72 velocity=63 time=0.14423075
EXTRACT: note_off channel=0 note=68 velocity=63 time=0
EXTRACT: note_off channel=0 note=65 velocity=63 time=0
EXTRACT: note_off channel=0 note=60 velocity=63 time=0
EXTRACT: note_off channel=0 note=53 velocity=63 time=0
EXTRACT: note_on channel=0 note=64 velocity=63 time=0
EXTRACT: note_on channel=0 note=59 velocity=63 time=0
EXTRACT: note_on channel=0 note=55 velocity=63 time=0
EXTRACT: note_on channel=0 note=50 velocity=63 time=0
EXTRACT: note_on channel=0 note=45 velocity=63 time=0
EXTRACT: note_off channel=0 note=64 velocity=63 time=0.031249995833333332
EXTRACT: note_off channel=0 note=59 velocity=63 time=0
EXTRACT: note_off channel=0 note=55 velocity=63 time=0
EXTRACT: note_off channel=0 note=50 velocity=63 time=0
EXTRACT: note_off channel=0 note=45 velocity=63 time=0
EXTRACT: note_on channel=0 note=64 velocity=63 time=0.11298075416666667
EXTRACT: note_on channel=0 note=59 velocity=63 time=0
EXTRACT: note_on channel=0 note=55 velocity=63 time=0
EXTRACT: note_on channel=0 note=50 velocity=63 time=0
EXTRACT: note_on channel=0 note=45 velocity=63 time=0
EXTRACT: note_off channel=0 note=64 velocity=63 time=0.031249995833333332
EXTRACT: note_off channel=0 note=59 velocity=63 time=0
EXTRACT: note_off channel=0 note=55 velocity=63 time=0
EXTRACT: note_off channel=0 note=50 velocity=63 time=0
EXTRACT: note_off channel=0 note=45 velocity=63 time=0
EXTRACT: note_on channel=0 note=72 velocity=63 time=0.11298075416666667
EXTRACT: note_on channel=0 note=68 velocity=63 time=0
EXTRACT: note_on channel=0 note=65 velocity=63 time=0
EXTRACT: note_on channel=0 note=60 velocity=63 time=0
EXTRACT: note_on channel=0 note=53 velocity=63 time=0
EXTRACT: note_off channel=0 note=72 velocity=63 time=0.14423075
EXTRACT: note_off channel=0 note=68 velocity=63 time=0
EXTRACT: note_off channel=0 note=65 velocity=63 time=0
EXTRACT: note_off channel=0 note=60 velocity=63 time=0
EXTRACT: note_off channel=0 note=53 velocity=63 time=0
EXTRACT: note_on channel=0 note=72 velocity=63 time=0
EXTRACT: note_on channel=0 note=68 velocity=63 time=0
EXTRACT: note_on channel=0 note=65 velocity=63 time=0
EXTRACT: note_on channel=0 note=60 velocity=63 time=0
EXTRACT: note_on channel=0 note=53 velocity=63 time=0
EXTRACT: note_off channel=0 note=72 velocity=63 time=0.14423075
EXTRACT: note_off channel=0 note=68 velocity=63 time=0
EXTRACT: note_off channel=0 note=65 velocity=63 time=0
EXTRACT: note_off channel=0 note=60 velocity=63 time=0
EXTRACT: note_off channel=0 note=53 velocity=63 time=0
EXTRACT: note_on channel=0 note=64 velocity=63 time=0
EXTRACT: note_on channel=0 note=59 velocity=63 time=0
EXTRACT: note_on channel=0 note=55 velocity=63 time=0
EXTRACT: note_on channel=0 note=50 velocity=63 time=0
EXTRACT: note_on channel=0 note=45 velocity=63 time=0
EXTRACT: note_off channel=0 note=64 velocity=63 time=0.031249995833333332
EXTRACT: note_off channel=0 note=59 velocity=63 time=0
EXTRACT: note_off channel=0 note=55 velocity=63 time=0
EXTRACT: note_off channel=0 note=50 velocity=63 time=0
EXTRACT: note_off channel=0 note=45 velocity=63 time=0
EXTRACT: note_on channel=0 note=64 velocity=63 time=0.11298075416666667
EXTRACT: note_on channel=0 note=59 velocity=63 time=0
EXTRACT: note_on channel=0 note=55 velocity=63 time=0
EXTRACT: note_on channel=0 note=50 velocity=63 time=0
EXTRACT: note_on channel=0 note=45 velocity=63 time=0
EXTRACT: note_off channel=0 note=64 velocity=63 time=0.031249995833333332
EXTRACT: note_off channel=0 note=59 velocity=63 time=0
EXTRACT: note_off channel=0 note=55 velocity=63 time=0
EXTRACT: note_off channel=0 note=50 velocity=63 time=0
EXTRACT: note_off channel=0 note=45 velocity=63 time=0
EXTRACT: note_on channel=0 note=72 velocity=63 time=0.11298075416666667
EXTRACT: note_on channel=0 note=68 velocity=63 time=0
EXTRACT: note_on channel=0 note=65 velocity=63 time=0
EXTRACT: note_on channel=0 note=60 velocity=63 time=0
EXTRACT: note_on channel=0 note=53 velocity=63 time=0
EXTRACT: note_off channel=0 note=72 velocity=63 time=0.14423075
EXTRACT: note_off channel=0 note=68 velocity=63 time=0
EXTRACT: note_off channel=0 note=65 velocity=63 time=0
EXTRACT: note_off channel=0 note=60 velocity=63 time=0
EXTRACT: note_off channel=0 note=53 velocity=63 time=0
EXTRACT: note_on channel=0 note=72 velocity=63 time=0
EXTRACT: note_on channel=0 note=68 velocity=63 time=0
EXTRACT: note_on channel=0 note=65 velocity=63 time=0
EXTRACT: note_on channel=0 note=60 velocity=63 time=0
EXTRACT: note_on channel=0 note=53 velocity=63 time=0
EXTRACT: note_off channel=4 note=70 velocity=95 time=0
EXTRACT: note_off channel=4 note=67 velocity=95 time=0
EXTRACT: note_on channel=4 note=72 velocity=95 time=0
EXTRACT: note_on channel=4 note=68 velocity=95 time=0
EXTRACT: note_off channel=0 note=72 velocity=63 time=0.14423075
EXTRACT: note_off channel=0 note=68 velocity=63 time=0
EXTRACT: note_off channel=0 note=65 velocity=63 time=0
EXTRACT: note_off channel=0 note=60 velocity=63 time=0
EXTRACT: note_off channel=0 note=53 velocity=63 time=0
EXTRACT: note_on channel=0 note=64 velocity=63 time=0
EXTRACT: note_on channel=0 note=59 velocity=63 time=0
EXTRACT: note_on channel=0 note=55 velocity=63 time=0
EXTRACT: note_on channel=0 note=50 velocity=63 time=0
EXTRACT: note_on channel=0 note=45 velocity=63 time=0
EXTRACT: note_off channel=4 note=72 velocity=95 time=0
EXTRACT: note_off channel=4 note=68 velocity=95 time=0
EXTRACT: note_on channel=4 note=67 velocity=95 time=0
EXTRACT: note_on channel=4 note=63 velocity=95 time=0
EXTRACT: note_off channel=0 note=64 velocity=63 time=0.031249995833333332
EXTRACT: note_off channel=0 note=59 velocity=63 time=0
EXTRACT: note_off channel=0 note=55 velocity=63 time=0
EXTRACT: note_off channel=0 note=50 velocity=63 time=0
EXTRACT: note_off channel=0 note=45 velocity=63 time=0
EXTRACT: note_on channel=0 note=64 velocity=63 time=0.11298075416666667
EXTRACT: note_on channel=0 note=59 velocity=63 time=0
EXTRACT: note_on channel=0 note=55 velocity=63 time=0
EXTRACT: note_on channel=0 note=50 velocity=63 time=0
EXTRACT: note_on channel=0 note=45 velocity=63 time=0
EXTRACT: note_off channel=4 note=63 velocity=95 time=0
EXTRACT: note_off channel=4 note=67 velocity=95 time=0
EXTRACT: note_off channel=4 note=63 velocity=95 time=0
EXTRACT: note_on channel=4 note=68 velocity=95 time=0
EXTRACT: note_on channel=4 note=65 velocity=95 time=0
EXTRACT: note_on channel=4 note=60 velocity=95 time=0
EXTRACT: note_off channel=0 note=64 velocity=63 time=0.031249995833333332
EXTRACT: note_off channel=0 note=59 velocity=63 time=0
EXTRACT: note_off channel=0 note=55 velocity=63 time=0
EXTRACT: note_off channel=0 note=50 velocity=63 time=0
EXTRACT: note_off channel=0 note=45 velocity=63 time=0
EXTRACT: note_on channel=0 note=72 velocity=63 time=0.11298075416666667
EXTRACT: note_on channel=0 note=68 velocity=63 time=0
EXTRACT: note_on channel=0 note=65 velocity=63 time=0
EXTRACT: note_on channel=0 note=60 velocity=63 time=0
EXTRACT: note_on channel=0 note=53 velocity=63 time=0
EXTRACT: note_off channel=4 note=68 velocity=95 time=0
EXTRACT: note_off channel=4 note=65 velocity=95 time=0
EXTRACT: note_on channel=4 note=67 velocity=95 time=0
EXTRACT: note_on channel=4 note=63 velocity=95 time=0
EXTRACT: note_off channel=0 note=72 velocity=63 time=0.14423075
EXTRACT: note_off channel=0 note=68 velocity=63 time=0
EXTRACT: note_off channel=0 note=65 velocity=63 time=0
EXTRACT: note_off channel=0 note=60 velocity=63 time=0
EXTRACT: note_off channel=0 note=53 velocity=63 time=0
EXTRACT: note_on channel=0 note=72 velocity=63 time=0
EXTRACT: note_on channel=0 note=68 velocity=63 time=0
EXTRACT: note_on channel=0 note=65 velocity=63 time=0
EXTRACT: note_on channel=0 note=60 velocity=63 time=0
EXTRACT: note_on channel=0 note=53 velocity=63 time=0
EXTRACT: note_off channel=4 note=67 velocity=95 time=0
EXTRACT: note_off channel=4 note=63 velocity=95 time=0
EXTRACT: note_on channel=4 note=68 velocity=95 time=0
EXTRACT: note_on channel=4 note=65 velocity=95 time=0
EXTRACT: note_off channel=0 note=72 velocity=63 time=0.14423075
EXTRACT: note_off channel=0 note=68 velocity=63 time=0
EXTRACT: note_off channel=0 note=65 velocity=63 time=0
EXTRACT: note_off channel=0 note=60 velocity=63 time=0
EXTRACT: note_off channel=0 note=53 velocity=63 time=0
EXTRACT: note_on channel=0 note=64 velocity=63 time=0
EXTRACT: note_on channel=0 note=59 velocity=63 time=0
EXTRACT: note_on channel=0 note=55 velocity=63 time=0
EXTRACT: note_on channel=0 note=50 velocity=63 time=0
EXTRACT: note_on channel=0 note=45 velocity=63 time=0
EXTRACT: note_off channel=0 note=64 velocity=63 time=0.031249995833333332
EXTRACT: note_off channel=0 note=59 velocity=63 time=0
EXTRACT: note_off channel=0 note=55 velocity=63 time=0
EXTRACT: note_off channel=0 note=50 velocity=63 time=0
EXTRACT: note_off channel=0 note=45 velocity=63 time=0
EXTRACT: note_on channel=0 note=64 velocity=63 time=0.11298075416666667
EXTRACT: note_on channel=0 note=59 velocity=63 time=0
EXTRACT: note_on channel=0 note=55 velocity=63 time=0
EXTRACT: note_on channel=0 note=50 velocity=63 time=0
EXTRACT: note_on channel=0 note=45 velocity=63 time=0
EXTRACT: note_off channel=0 note=64 velocity=63 time=0.031249995833333332
EXTRACT: note_off channel=0 note=59 velocity=63 time=0
EXTRACT: note_off channel=0 note=55 velocity=63 time=0
EXTRACT: note_off channel=0 note=50 velocity=63 time=0
EXTRACT: note_off channel=0 note=45 velocity=63 time=0
EXTRACT: note_on channel=0 note=72 velocity=63 time=0.11298075416666667
EXTRACT: note_on channel=0 note=68 velocity=63 time=0
EXTRACT: note_on channel=0 note=65 velocity=63 time=0
EXTRACT: note_on channel=0 note=60 velocity=63 time=0
EXTRACT: note_on channel=0 note=53 velocity=63 time=0
EXTRACT: note_off channel=0 note=72 velocity=63 time=0.14423075
EXTRACT: note_off channel=0 note=68 velocity=63 time=0
EXTRACT: note_off channel=0 note=65 velocity=63 time=0
EXTRACT: note_off channel=0 note=60 velocity=63 time=0
EXTRACT: note_off channel=0 note=53 velocity=63 time=0
EXTRACT: note_on channel=0 note=72 velocity=63 time=0
EXTRACT: note_on channel=0 note=68 velocity=63 time=0
EXTRACT: note_on channel=0 note=65 velocity=63 time=0
EXTRACT: note_on channel=0 note=60 velocity=63 time=0
EXTRACT: note_on channel=0 note=53 velocity=63 time=0
EXTRACT: note_off channel=0 note=72 velocity=63 time=0.14423075
EXTRACT: note_off channel=0 note=68 velocity=63 time=0
EXTRACT: note_off channel=0 note=65 velocity=63 time=0
EXTRACT: note_off channel=0 note=60 velocity=63 time=0
EXTRACT: note_off channel=0 note=53 velocity=63 time=0
EXTRACT: note_on channel=0 note=64 velocity=63 time=0
EXTRACT: note_on channel=0 note=59 velocity=63 time=0
EXTRACT: note_on channel=0 note=55 velocity=63 time=0
EXTRACT: note_on channel=0 note=50 velocity=63 time=0
EXTRACT: note_on channel=0 note=45 velocity=63 time=0
EXTRACT: note_off channel=0 note=64 velocity=63 time=0.031249995833333332
EXTRACT: note_off channel=0 note=59 velocity=63 time=0
EXTRACT: note_off channel=0 note=55 velocity=63 time=0
EXTRACT: note_off channel=0 note=50 velocity=63 time=0
EXTRACT: note_off channel=0 note=45 velocity=63 time=0
EXTRACT: note_on channel=0 note=64 velocity=63 time=0.11298075416666667
EXTRACT: note_on channel=0 note=59 velocity=63 time=0
EXTRACT: note_on channel=0 note=55 velocity=63 time=0
EXTRACT: note_on channel=0 note=50 velocity=63 time=0
EXTRACT: note_on channel=0 note=45 velocity=63 time=0
EXTRACT: note_off channel=0 note=64 velocity=63 time=0.031249995833333332
EXTRACT: note_off channel=0 note=59 velocity=63 time=0
EXTRACT: note_off channel=0 note=55 velocity=63 time=0
EXTRACT: note_off channel=0 note=50 velocity=63 time=0
EXTRACT: note_off channel=0 note=45 velocity=63 time=0
EXTRACT: note_on channel=0 note=72 velocity=63 time=0.11298075416666667
EXTRACT: note_on channel=0 note=68 velocity=63 time=0
EXTRACT: note_on channel=0 note=65 velocity=63 time=0
EXTRACT: note_on channel=0 note=60 velocity=63 time=0
EXTRACT: note_on channel=0 note=53 velocity=63 time=0
EXTRACT: note_off channel=0 note=72 velocity=63 time=0.14423075
EXTRACT: note_off channel=0 note=68 velocity=63 time=0
EXTRACT: note_off channel=0 note=65 velocity=63 time=0
EXTRACT: note_off channel=0 note=60 velocity=63 time=0
EXTRACT: note_off channel=0 note=53 velocity=63 time=0
EXTRACT: note_on channel=0 note=72 velocity=63 time=0
EXTRACT: note_on channel=0 note=68 velocity=63 time=0
EXTRACT: note_on channel=0 note=65 velocity=63 time=0
EXTRACT: note_on channel=0 note=60 velocity=63 time=0
EXTRACT: note_on channel=0 note=53 velocity=63 time=0
EXTRACT: note_off channel=0 note=72 velocity=63 time=0.14423075
EXTRACT: note_off channel=0 note=68 velocity=63 time=0
EXTRACT: note_off channel=0 note=65 velocity=63 time=0
EXTRACT: note_off channel=0 note=60 velocity=63 time=0
EXTRACT: note_off channel=0 note=53 velocity=63 time=0
EXTRACT: note_on channel=0 note=64 velocity=63 time=0
EXTRACT: note_on channel=0 note=59 velocity=63 time=0
EXTRACT: note_on channel=0 note=55 velocity=63 time=0
EXTRACT: note_on channel=0 note=50 velocity=63 time=0
EXTRACT: note_on channel=0 note=45 velocity=63 time=0
EXTRACT: note_off channel=0 note=64 velocity=63 time=0.031249995833333332
EXTRACT: note_off channel=0 note=59 velocity=63 time=0
EXTRACT: note_off channel=0 note=55 velocity=63 time=0
EXTRACT: note_off channel=0 note=50 velocity=63 time=0
EXTRACT: note_off channel=0 note=45 velocity=63 time=0
EXTRACT: note_on channel=0 note=64 velocity=63 time=0.11298075416666667
EXTRACT: note_on channel=0 note=59 velocity=63 time=0
EXTRACT: note_on channel=0 note=55 velocity=63 time=0
EXTRACT: note_on channel=0 note=50 velocity=63 time=0
EXTRACT: note_on channel=0 note=45 velocity=63 time=0
EXTRACT: note_off channel=0 note=64 velocity=63 time=0.031249995833333332
EXTRACT: note_off channel=0 note=59 velocity=63 time=0
EXTRACT: note_off channel=0 note=55 velocity=63 time=0
EXTRACT: note_off channel=0 note=50 velocity=63 time=0
EXTRACT: note_off channel=0 note=45 velocity=63 time=0
EXTRACT: note_on channel=0 note=72 velocity=63 time=0.11298075416666667
EXTRACT: note_on channel=0 note=68 velocity=63 time=0
EXTRACT: note_on channel=0 note=65 velocity=63 time=0
EXTRACT: note_on channel=0 note=60 velocity=63 time=0
EXTRACT: note_on channel=0 note=53 velocity=63 time=0
EXTRACT: note_off channel=0 note=72 velocity=63 time=0.14423075
EXTRACT: note_off channel=0 note=68 velocity=63 time=0
EXTRACT: note_off channel=0 note=65 velocity=63 time=0
EXTRACT: note_off channel=0 note=60 velocity=63 time=0
EXTRACT: note_off channel=0 note=53 velocity=63 time=0
EXTRACT: note_on channel=0 note=72 velocity=63 time=0
EXTRACT: note_on channel=0 note=68 velocity=63 time=0
EXTRACT: note_on channel=0 note=65 velocity=63 time=0
EXTRACT: note_on channel=0 note=60 velocity=63 time=0
EXTRACT: note_on channel=0 note=53 velocity=63 time=0
EXTRACT: note_off channel=0 note=72 velocity=63 time=0.14423075
EXTRACT: note_off channel=0 note=68 velocity=63 time=0
EXTRACT: note_off channel=0 note=65 velocity=63 time=0
EXTRACT: note_off channel=0 note=60 velocity=63 time=0
EXTRACT: note_off channel=0 note=53 velocity=63 time=0
EXTRACT: note_on channel=0 note=64 velocity=63 time=0
EXTRACT: note_on channel=0 note=59 velocity=63 time=0
EXTRACT: note_on channel=0 note=55 velocity=63 time=0
EXTRACT: note_on channel=0 note=50 velocity=63 time=0
EXTRACT: note_on channel=0 note=45 velocity=63 time=0
EXTRACT: note_off channel=0 note=64 velocity=63 time=0.031249995833333332
EXTRACT: note_off channel=0 note=59 velocity=63 time=0
EXTRACT: note_off channel=0 note=55 velocity=63 time=0
EXTRACT: note_off channel=0 note=50 velocity=63 time=0
EXTRACT: note_off channel=0 note=45 velocity=63 time=0
EXTRACT: note_on channel=0 note=64 velocity=63 time=0.11298075416666667
EXTRACT: note_on channel=0 note=59 velocity=63 time=0
EXTRACT: note_on channel=0 note=55 velocity=63 time=0
EXTRACT: note_on channel=0 note=50 velocity=63 time=0
EXTRACT: note_on channel=0 note=45 velocity=63 time=0
EXTRACT: note_off channel=0 note=64 velocity=63 time=0.031249995833333332
EXTRACT: note_off channel=0 note=59 velocity=63 time=0
EXTRACT: note_off channel=0 note=55 velocity=63 time=0
EXTRACT: note_off channel=0 note=50 velocity=63 time=0
EXTRACT: note_off channel=0 note=45 velocity=63 time=0
EXTRACT: note_off channel=2 note=65 velocity=79 time=0.11298075416666667
EXTRACT: note_off channel=2 note=60 velocity=79 time=0
EXTRACT: note_off channel=2 note=56 velocity=79 time=0
EXTRACT: note_off channel=2 note=53 velocity=79 time=0
EXTRACT: note_off channel=4 note=60 velocity=95 time=0
EXTRACT: note_off channel=4 note=68 velocity=95 time=0
EXTRACT: note_off channel=4 note=65 velocity=95 time=0
EXTRACT: note_on channel=4 note=67 velocity=95 time=0
EXTRACT: note_on channel=4 note=63 velocity=95 time=0
EXTRACT: note_on channel=4 note=58 velocity=95 time=0
EXTRACT: note_on channel=0 note=67 velocity=95 time=0.43269225
EXTRACT: note_on channel=0 note=63 velocity=95 time=0
EXTRACT: note_on channel=0 note=58 velocity=95 time=0
EXTRACT: note_on channel=0 note=45 velocity=95 time=0
EXTRACT: note_on channel=0 note=48 velocity=95 time=0
EXTRACT: note_off channel=0 note=45 velocity=95 time=0.031249995833333332
EXTRACT: note_off channel=0 note=67 velocity=95 time=0.11298075416666667
EXTRACT: note_off channel=0 note=63 velocity=95 time=0
EXTRACT: note_off channel=0 note=58 velocity=95 time=0
EXTRACT: note_off channel=0 note=48 velocity=95 time=0
EXTRACT: note_on channel=0 note=67 velocity=95 time=0
EXTRACT: note_on channel=0 note=63 velocity=95 time=0
EXTRACT: note_on channel=0 note=58 velocity=95 time=0
EXTRACT: note_on channel=0 note=45 velocity=95 time=0
EXTRACT: note_on channel=0 note=48 velocity=95 time=0
EXTRACT: note_off channel=0 note=45 velocity=95 time=0.031249995833333332
EXTRACT: note_off channel=0 note=67 velocity=95 time=0.11298075416666667
EXTRACT: note_off channel=0 note=63 velocity=95 time=0
EXTRACT: note_off channel=0 note=58 velocity=95 time=0
EXTRACT: note_off channel=0 note=48 velocity=95 time=0
EXTRACT: note_on channel=0 note=67 velocity=95 time=0
EXTRACT: note_on channel=0 note=63 velocity=95 time=0
EXTRACT: note_on channel=0 note=58 velocity=95 time=0
EXTRACT: note_on channel=0 note=45 velocity=95 time=0
EXTRACT: note_on channel=0 note=48 velocity=95 time=0
EXTRACT: note_off channel=0 note=45 velocity=95 time=0.031249995833333332
EXTRACT: note_off channel=0 note=67 velocity=95 time=0.11298075416666667
EXTRACT: note_off channel=0 note=63 velocity=95 time=0
EXTRACT: note_off channel=0 note=58 velocity=95 time=0
EXTRACT: note_off channel=0 note=48 velocity=95 time=0
EXTRACT: note_on channel=0 note=67 velocity=95 time=0
EXTRACT: note_on channel=0 note=63 velocity=95 time=0
EXTRACT: note_on channel=0 note=58 velocity=95 time=0
EXTRACT: note_on channel=0 note=45 velocity=95 time=0
EXTRACT: note_on channel=0 note=48 velocity=95 time=0
EXTRACT: note_off channel=4 note=67 velocity=95 time=0
EXTRACT: note_off channel=4 note=63 velocity=95 time=0
EXTRACT: note_off channel=4 note=58 velocity=95 time=0
EXTRACT: note_on channel=4 note=77 velocity=95 time=0
EXTRACT: note_off channel=0 note=45 velocity=95 time=0.031249995833333332
EXTRACT: note_off channel=0 note=67 velocity=95 time=1.4110575041666666
EXTRACT: note_off channel=0 note=63 velocity=95 time=0
EXTRACT: note_off channel=0 note=58 velocity=95 time=0
EXTRACT: note_off channel=0 note=48 velocity=95 time=0
EXTRACT: note_off channel=4 note=77 velocity=95 time=0.576923
EXTRACT: note_on channel=4 note=73 velocity=95 time=0
EXTRACT: note_off channel=4 note=73 velocity=95 time=0.2884615
EXTRACT: note_on channel=0 note=64 velocity=95 time=0.576923
EXTRACT: note_on channel=0 note=59 velocity=95 time=0
EXTRACT: note_on channel=0 note=55 velocity=95 time=0
EXTRACT: note_on channel=0 note=50 velocity=95 time=0
EXTRACT: note_on channel=0 note=45 velocity=95 time=0
EXTRACT: note_on channel=0 note=40 velocity=95 time=0
EXTRACT: note_off channel=0 note=64 velocity=95 time=0.031249995833333332
EXTRACT: note_off channel=0 note=59 velocity=95 time=0
EXTRACT: note_off channel=0 note=55 velocity=95 time=0
EXTRACT: note_off channel=0 note=50 velocity=95 time=0
EXTRACT: note_off channel=0 note=45 velocity=95 time=0
EXTRACT: note_off channel=0 note=40 velocity=95 time=0
EXTRACT: note_on channel=0 note=64 velocity=95 time=0.25721150416666666
EXTRACT: note_on channel=0 note=59 velocity=95 time=0
EXTRACT: note_on channel=0 note=55 velocity=95 time=0
EXTRACT: note_on channel=0 note=50 velocity=95 time=0
EXTRACT: note_on channel=0 note=45 velocity=95 time=0
EXTRACT: note_on channel=0 note=40 velocity=95 time=0
EXTRACT: note_off channel=0 note=64 velocity=95 time=0.031249995833333332
EXTRACT: note_off channel=0 note=59 velocity=95 time=0
EXTRACT: note_off channel=0 note=55 velocity=95 time=0
EXTRACT: note_off channel=0 note=50 velocity=95 time=0
EXTRACT: note_off channel=0 note=45 velocity=95 time=0
EXTRACT: note_off channel=0 note=40 velocity=95 time=0
EXTRACT: note_on channel=0 note=64 velocity=95 time=0.25721150416666666
EXTRACT: note_on channel=0 note=59 velocity=95 time=0
EXTRACT: note_on channel=0 note=55 velocity=95 time=0
EXTRACT: note_on channel=0 note=50 velocity=95 time=0
EXTRACT: note_on channel=0 note=45 velocity=95 time=0
EXTRACT: note_on channel=0 note=40 velocity=95 time=0
EXTRACT: note_off channel=0 note=64 velocity=95 time=0.031249995833333332
EXTRACT: note_off channel=0 note=59 velocity=95 time=0
EXTRACT: note_off channel=0 note=55 velocity=95 time=0
EXTRACT: note_off channel=0 note=50 velocity=95 time=0
EXTRACT: note_off channel=0 note=45 velocity=95 time=0
EXTRACT: note_off channel=0 note=40 velocity=95 time=0
EXTRACT: note_on channel=0 note=64 velocity=95 time=0.5456730041666666
EXTRACT: note_on channel=0 note=59 velocity=95 time=0
EXTRACT: note_on channel=0 note=55 velocity=95 time=0
EXTRACT: note_on channel=0 note=50 velocity=95 time=0
EXTRACT: note_on channel=0 note=45 velocity=95 time=0
EXTRACT: note_off channel=0 note=64 velocity=95 time=0.031249995833333332
EXTRACT: note_off channel=0 note=59 velocity=95 time=0
EXTRACT: note_off channel=0 note=55 velocity=95 time=0
EXTRACT: note_off channel=0 note=50 velocity=95 time=0
EXTRACT: note_off channel=0 note=45 velocity=95 time=0
EXTRACT: note_on channel=0 note=72 velocity=95 time=0.25721150416666666
EXTRACT: note_on channel=0 note=68 velocity=95 time=0
EXTRACT: note_on channel=0 note=65 velocity=95 time=0
EXTRACT: note_on channel=0 note=60 velocity=95 time=0
EXTRACT: note_on channel=0 note=53 velocity=95 time=0
EXTRACT: note_off channel=0 note=72 velocity=95 time=0.14423075
EXTRACT: note_off channel=0 note=68 velocity=95 time=0
EXTRACT: note_off channel=0 note=65 velocity=95 time=0
EXTRACT: note_off channel=0 note=60 velocity=95 time=0
EXTRACT: note_off channel=0 note=53 velocity=95 time=0
EXTRACT: note_on channel=0 note=72 velocity=95 time=0
EXTRACT: note_on channel=0 note=68 velocity=95 time=0
EXTRACT: note_on channel=0 note=65 velocity=95 time=0
EXTRACT: note_on channel=0 note=60 velocity=95 time=0
EXTRACT: note_on channel=0 note=53 velocity=95 time=0
EXTRACT: note_off channel=0 note=72 velocity=95 time=0.14423075
EXTRACT: note_off channel=0 note=68 velocity=95 time=0
EXTRACT: note_off channel=0 note=65 velocity=95 time=0
EXTRACT: note_off channel=0 note=60 velocity=95 time=0
EXTRACT: note_off channel=0 note=53 velocity=95 time=0
EXTRACT: note_on channel=0 note=64 velocity=95 time=0
EXTRACT: note_on channel=0 note=59 velocity=95 time=0
EXTRACT: note_on channel=0 note=55 velocity=95 time=0
EXTRACT: note_on channel=0 note=50 velocity=95 time=0
EXTRACT: note_on channel=0 note=45 velocity=95 time=0
EXTRACT: note_off channel=0 note=64 velocity=95 time=0.031249995833333332
EXTRACT: note_off channel=0 note=59 velocity=95 time=0
EXTRACT: note_off channel=0 note=55 velocity=95 time=0
EXTRACT: note_off channel=0 note=50 velocity=95 time=0
EXTRACT: note_off channel=0 note=45 velocity=95 time=0
EXTRACT: note_on channel=0 note=64 velocity=95 time=0.11298075416666667
EXTRACT: note_on channel=0 note=59 velocity=95 time=0
EXTRACT: note_on channel=0 note=55 velocity=95 time=0
EXTRACT: note_on channel=0 note=50 velocity=95 time=0
EXTRACT: note_on channel=0 note=45 velocity=95 time=0
EXTRACT: note_off channel=0 note=64 velocity=95 time=0.031249995833333332
EXTRACT: note_off channel=0 note=59 velocity=95 time=0
EXTRACT: note_off channel=0 note=55 velocity=95 time=0
EXTRACT: note_off channel=0 note=50 velocity=95 time=0
EXTRACT: note_off channel=0 note=45 velocity=95 time=0
EXTRACT: note_on channel=0 note=72 velocity=95 time=0.11298075416666667
EXTRACT: note_on channel=0 note=68 velocity=95 time=0
EXTRACT: note_on channel=0 note=65 velocity=95 time=0
EXTRACT: note_on channel=0 note=60 velocity=95 time=0
EXTRACT: note_on channel=0 note=53 velocity=95 time=0
EXTRACT: note_off channel=0 note=72 velocity=95 time=0.14423075
EXTRACT: note_off channel=0 note=68 velocity=95 time=0
EXTRACT: note_off channel=0 note=65 velocity=95 time=0
EXTRACT: note_off channel=0 note=60 velocity=95 time=0
EXTRACT: note_off channel=0 note=53 velocity=95 time=0
EXTRACT: note_on channel=0 note=72 velocity=95 time=0
EXTRACT: note_on channel=0 note=68 velocity=95 time=0
EXTRACT: note_on channel=0 note=65 velocity=95 time=0
EXTRACT: note_on channel=0 note=60 velocity=95 time=0
EXTRACT: note_on channel=0 note=53 velocity=95 time=0
EXTRACT: note_off channel=0 note=72 velocity=95 time=0.14423075
EXTRACT: note_off channel=0 note=68 velocity=95 time=0
EXTRACT: note_off channel=0 note=65 velocity=95 time=0
EXTRACT: note_off channel=0 note=60 velocity=95 time=0
EXTRACT: note_off channel=0 note=53 velocity=95 time=0
EXTRACT: note_on channel=0 note=64 velocity=95 time=0
EXTRACT: note_on channel=0 note=59 velocity=95 time=0
EXTRACT: note_on channel=0 note=55 velocity=95 time=0
EXTRACT: note_on channel=0 note=50 velocity=95 time=0
EXTRACT: note_on channel=0 note=45 velocity=95 time=0
EXTRACT: note_off channel=0 note=64 velocity=95 time=0.031249995833333332
EXTRACT: note_off channel=0 note=59 velocity=95 time=0
EXTRACT: note_off channel=0 note=55 velocity=95 time=0
EXTRACT: note_off channel=0 note=50 velocity=95 time=0
EXTRACT: note_off channel=0 note=45 velocity=95 time=0
EXTRACT: note_on channel=0 note=64 velocity=95 time=0.11298075416666667
EXTRACT: note_on channel=0 note=59 velocity=95 time=0
EXTRACT: note_on channel=0 note=55 velocity=95 time=0
EXTRACT: note_on channel=0 note=50 velocity=95 time=0
EXTRACT: note_on channel=0 note=45 velocity=95 time=0
EXTRACT: note_off channel=0 note=64 velocity=95 time=0.031249995833333332
EXTRACT: note_off channel=0 note=59 velocity=95 time=0
EXTRACT: note_off channel=0 note=55 velocity=95 time=0
EXTRACT: note_off channel=0 note=50 velocity=95 time=0
EXTRACT: note_off channel=0 note=45 velocity=95 time=0
EXTRACT: note_on channel=0 note=72 velocity=95 time=0.11298075416666667
EXTRACT: note_on channel=0 note=68 velocity=95 time=0
EXTRACT: note_on channel=0 note=65 velocity=95 time=0
EXTRACT: note_on channel=0 note=60 velocity=95 time=0
EXTRACT: note_on channel=0 note=53 velocity=95 time=0
EXTRACT: note_off channel=0 note=72 velocity=95 time=0.14423075
EXTRACT: note_off channel=0 note=68 velocity=95 time=0
EXTRACT: note_off channel=0 note=65 velocity=95 time=0
EXTRACT: note_off channel=0 note=60 velocity=95 time=0
EXTRACT: note_off channel=0 note=53 velocity=95 time=0
EXTRACT: note_on channel=0 note=72 velocity=95 time=0
EXTRACT: note_on channel=0 note=68 velocity=95 time=0
EXTRACT: note_on channel=0 note=65 velocity=95 time=0
EXTRACT: note_on channel=0 note=60 velocity=95 time=0
EXTRACT: note_on channel=0 note=53 velocity=95 time=0
EXTRACT: note_off channel=0 note=72 velocity=95 time=0.14423075
EXTRACT: note_off channel=0 note=68 velocity=95 time=0
EXTRACT: note_off channel=0 note=65 velocity=95 time=0
EXTRACT: note_off channel=0 note=60 velocity=95 time=0
EXTRACT: note_off channel=0 note=53 velocity=95 time=0
EXTRACT: note_on channel=0 note=64 velocity=95 time=0
EXTRACT: note_on channel=0 note=59 velocity=95 time=0
EXTRACT: note_on channel=0 note=55 velocity=95 time=0
EXTRACT: note_on channel=0 note=50 velocity=95 time=0
EXTRACT: note_on channel=0 note=45 velocity=95 time=0
EXTRACT: note_off channel=0 note=64 velocity=95 time=0.031249995833333332
EXTRACT: note_off channel=0 note=59 velocity=95 time=0
EXTRACT: note_off channel=0 note=55 velocity=95 time=0
EXTRACT: note_off channel=0 note=50 velocity=95 time=0
EXTRACT: note_off channel=0 note=45 velocity=95 time=0
EXTRACT: note_on channel=0 note=64 velocity=95 time=0.11298075416666667
EXTRACT: note_on channel=0 note=59 velocity=95 time=0
EXTRACT: note_on channel=0 note=55 velocity=95 time=0
EXTRACT: note_on channel=0 note=50 velocity=95 time=0
EXTRACT: note_on channel=0 note=45 velocity=95 time=0
EXTRACT: note_off channel=0 note=64 velocity=95 time=0.031249995833333332
EXTRACT: note_off channel=0 note=59 velocity=95 time=0
EXTRACT: note_off channel=0 note=55 velocity=95 time=0
EXTRACT: note_off channel=0 note=50 velocity=95 time=0
EXTRACT: note_off channel=0 note=45 velocity=95 time=0
EXTRACT: note_on channel=0 note=70 velocity=63 time=0.11298075416666667
EXTRACT: note_on channel=0 note=65 velocity=63 time=0
EXTRACT: note_on channel=0 note=62 velocity=63 time=0
EXTRACT: note_on channel=0 note=58 velocity=63 time=0
EXTRACT: note_on channel=0 note=53 velocity=63 time=0
EXTRACT: note_on channel=0 note=46 velocity=63 time=0
EXTRACT: note_on channel=2 note=53 velocity=79 time=0
EXTRACT: note_off channel=0 note=70 velocity=63 time=0.14423075
EXTRACT: note_off channel=0 note=65 velocity=63 time=0
EXTRACT: note_off channel=0 note=62 velocity=63 time=0
EXTRACT: note_off channel=0 note=58 velocity=63 time=0
EXTRACT: note_off channel=0 note=53 velocity=63 time=0
EXTRACT: note_off channel=0 note=46 velocity=63 time=0
EXTRACT: note_on channel=0 note=70 velocity=63 time=0
EXTRACT: note_on channel=0 note=65 velocity=63 time=0
EXTRACT: note_on channel=0 note=62 velocity=63 time=0
EXTRACT: note_on channel=0 note=58 velocity=63 time=0
EXTRACT: note_on channel=0 note=53 velocity=63 time=0
EXTRACT: note_on channel=0 note=46 velocity=63 time=0
EXTRACT: note_off channel=2 note=53 velocity=79 time=0
EXTRACT: note_off channel=0 note=70 velocity=63 time=0.14423075
EXTRACT: note_off channel=0 note=65 velocity=63 time=0
EXTRACT: note_off channel=0 note=62 velocity=63 time=0
EXTRACT: note_off channel=0 note=58 velocity=63 time=0
EXTRACT: note_off channel=0 note=53 velocity=63 time=0
EXTRACT: note_off channel=0 note=46 velocity=63 time=0
EXTRACT: note_on channel=0 note=64 velocity=63 time=0
EXTRACT: note_on channel=0 note=59 velocity=63 time=0
EXTRACT: note_on channel=0 note=55 velocity=63 time=0
EXTRACT: note_on channel=0 note=50 velocity=63 time=0
EXTRACT: note_on channel=0 note=45 velocity=63 time=0
EXTRACT: note_on channel=0 note=40 velocity=63 time=0
EXTRACT: note_on channel=2 note=58 velocity=79 time=0
EXTRACT: note_on channel=4 note=58 velocity=95 time=0
EXTRACT: note_off channel=0 note=64 velocity=63 time=0.031249995833333332
EXTRACT: note_off channel=0 note=59 velocity=63 time=0
EXTRACT: note_off channel=0 note=55 velocity=63 time=0
EXTRACT: note_off channel=0 note=50 velocity=63 time=0
EXTRACT: note_off channel=0 note=45 velocity=63 time=0
EXTRACT: note_off channel=0 note=40 velocity=63 time=0
EXTRACT: note_on channel=0 note=64 velocity=63 time=0.11298075416666667
EXTRACT: note_on channel=0 note=59 velocity=63 time=0
EXTRACT: note_on channel=0 note=55 velocity=63 time=0
EXTRACT: note_on channel=0 note=50 velocity=63 time=0
EXTRACT: note_on channel=0 note=45 velocity=63 time=0
EXTRACT: note_on channel=0 note=40 velocity=63 time=0
EXTRACT: note_off channel=2 note=58 velocity=79 time=0
EXTRACT: note_off channel=0 note=64 velocity=63 time=0.031249995833333332
EXTRACT: note_off channel=0 note=59 velocity=63 time=0
EXTRACT: note_off channel=0 note=55 velocity=63 time=0
EXTRACT: note_off channel=0 note=50 velocity=63 time=0
EXTRACT: note_off channel=0 note=45 velocity=63 time=0
EXTRACT: note_off channel=0 note=40 velocity=63 time=0
EXTRACT: note_on channel=0 note=70 velocity=63 time=0.11298075416666667
EXTRACT: note_on channel=0 note=65 velocity=63 time=0
EXTRACT: note_on channel=0 note=62 velocity=63 time=0
EXTRACT: note_on channel=0 note=58 velocity=63 time=0
EXTRACT: note_on channel=0 note=53 velocity=63 time=0
EXTRACT: note_on channel=0 note=46 velocity=63 time=0
EXTRACT: note_on channel=2 note=70 velocity=79 time=0
EXTRACT: note_on channel=2 note=65 velocity=79 time=0
EXTRACT: note_on channel=2 note=62 velocity=79 time=0
EXTRACT: note_off channel=4 note=58 velocity=95 time=0
EXTRACT: note_on channel=4 note=58 velocity=95 time=0
EXTRACT: note_off channel=0 note=70 velocity=63 time=0.14423075
EXTRACT: note_off channel=0 note=65 velocity=63 time=0
EXTRACT: note_off channel=0 note=62 velocity=63 time=0
EXTRACT: note_off channel=0 note=58 velocity=63 time=0
EXTRACT: note_off channel=0 note=53 velocity=63 time=0
EXTRACT: note_off channel=0 note=46 velocity=63 time=0
EXTRACT: note_on channel=0 note=70 velocity=63 time=0
EXTRACT: note_on channel=0 note=65 velocity=63 time=0
EXTRACT: note_on channel=0 note=62 velocity=63 time=0
EXTRACT: note_on channel=0 note=58 velocity=63 time=0
EXTRACT: note_on channel=0 note=53 velocity=63 time=0
EXTRACT: note_on channel=0 note=46 velocity=63 time=0
EXTRACT: note_off channel=2 note=70 velocity=79 time=0
EXTRACT: note_off channel=2 note=65 velocity=79 time=0
EXTRACT: note_off channel=2 note=62 velocity=79 time=0
EXTRACT: note_off channel=0 note=70 velocity=63 time=0.14423075
EXTRACT: note_off channel=0 note=65 velocity=63 time=0
EXTRACT: note_off channel=0 note=62 velocity=63 time=0
EXTRACT: note_off channel=0 note=58 velocity=63 time=0
EXTRACT: note_off channel=0 note=53 velocity=63 time=0
EXTRACT: note_off channel=0 note=46 velocity=63 time=0
EXTRACT: note_on channel=0 note=64 velocity=63 time=0
EXTRACT: note_on channel=0 note=59 velocity=63 time=0
EXTRACT: note_on channel=0 note=55 velocity=63 time=0
EXTRACT: note_on channel=0 note=50 velocity=63 time=0
EXTRACT: note_on channel=0 note=45 velocity=63 time=0
EXTRACT: note_on channel=0 note=40 velocity=63 time=0
EXTRACT: note_off channel=4 note=58 velocity=95 time=0
EXTRACT: note_on channel=4 note=56 velocity=95 time=0
EXTRACT: note_off channel=0 note=64 velocity=63 time=0.031249995833333332
EXTRACT: note_off channel=0 note=59 velocity=63 time=0
EXTRACT: note_off channel=0 note=55 velocity=63 time=0
EXTRACT: note_off channel=0 note=50 velocity=63 time=0
EXTRACT: note_off channel=0 note=45 velocity=63 time=0
EXTRACT: note_off channel=0 note=40 velocity=63 time=0
EXTRACT: note_on channel=0 note=64 velocity=63 time=0.11298075416666667
EXTRACT: note_on channel=0 note=59 velocity=63 time=0
EXTRACT: note_on channel=0 note=55 velocity=63 time=0
EXTRACT: note_on channel=0 note=50 velocity=63 time=0
EXTRACT: note_on channel=0 note=45 velocity=63 time=0
EXTRACT: note_on channel=0 note=40 velocity=63 time=0
EXTRACT: note_off channel=0 note=64 velocity=63 time=0.031249995833333332
EXTRACT: note_off channel=0 note=59 velocity=63 time=0
EXTRACT: note_off channel=0 note=55 velocity=63 time=0
EXTRACT: note_off channel=0 note=50 velocity=63 time=0
EXTRACT: note_off channel=0 note=45 velocity=63 time=0
EXTRACT: note_off channel=0 note=40 velocity=63 time=0
EXTRACT: note_on channel=5 note=60 velocity=95 time=0.04086537916666667
EXTRACT: note_on channel=0 note=70 velocity=63 time=0.072115375
EXTRACT: note_on channel=0 note=65 velocity=63 time=0
EXTRACT: note_on channel=0 note=62 velocity=63 time=0
EXTRACT: note_on channel=0 note=58 velocity=63 time=0
EXTRACT: note_on channel=0 note=53 velocity=63 time=0
EXTRACT: note_on channel=0 note=46 velocity=63 time=0
EXTRACT: note_off channel=4 note=56 velocity=95 time=0
EXTRACT: note_off channel=5 note=60 velocity=95 time=0
EXTRACT: note_on channel=5 note=60 velocity=95 time=0
EXTRACT: note_off channel=0 note=70 velocity=63 time=0.14423075
EXTRACT: note_off channel=0 note=65 velocity=63 time=0
EXTRACT: note_off channel=0 note=62 velocity=63 time=0
EXTRACT: note_off channel=0 note=58 velocity=63 time=0
EXTRACT: note_off channel=0 note=53 velocity=63 time=0
EXTRACT: note_off channel=0 note=46 velocity=63 time=0
EXTRACT: note_on channel=0 note=70 velocity=63 time=0
EXTRACT: note_on channel=0 note=65 velocity=63 time=0
EXTRACT: note_on channel=0 note=62 velocity=63 time=0
EXTRACT: note_on channel=0 note=58 velocity=63 time=0
EXTRACT: note_on channel=0 note=53 velocity=63 time=0
EXTRACT: note_on channel=0 note=46 velocity=63 time=0
EXTRACT: note_on channel=2 note=56 velocity=79 time=0
EXTRACT: note_off channel=0 note=70 velocity=63 time=0.14423075
EXTRACT: note_off channel=0 note=65 velocity=63 time=0
EXTRACT: note_off channel=0 note=62 velocity=63 time=0
EXTRACT: note_off channel=0 note=58 velocity=63 time=0
EXTRACT: note_off channel=0 note=53 velocity=63 time=0
EXTRACT: note_off channel=0 note=46 velocity=63 time=0
EXTRACT: note_on channel=0 note=64 velocity=63 time=0
EXTRACT: note_on channel=0 note=59 velocity=63 time=0
EXTRACT: note_on channel=0 note=55 velocity=63 time=0
EXTRACT: note_on channel=0 note=50 velocity=63 time=0
EXTRACT: note_on channel=0 note=45 velocity=63 time=0
EXTRACT: note_on channel=0 note=40 velocity=63 time=0
EXTRACT: note_off channel=2 note=56 velocity=79 time=0
EXTRACT: note_off channel=0 note=64 velocity=63 time=0.031249995833333332
EXTRACT: note_off channel=0 note=59 velocity=63 time=0
EXTRACT: note_off channel=0 note=55 velocity=63 time=0
EXTRACT: note_off channel=0 note=50 velocity=63 time=0
EXTRACT: note_off channel=0 note=45 velocity=63 time=0
EXTRACT: note_off channel=0 note=40 velocity=63 time=0
EXTRACT: note_on channel=0 note=64 velocity=63 time=0.11298075416666667
EXTRACT: note_on channel=0 note=59 velocity=63 time=0
EXTRACT: note_on channel=0 note=55 velocity=63 time=0
EXTRACT: note_on channel=0 note=50 velocity=63 time=0
EXTRACT: note_on channel=0 note=45 velocity=63 time=0
EXTRACT: note_on channel=0 note=40 velocity=63 time=0
EXTRACT: note_on channel=2 note=50 velocity=79 time=0
EXTRACT: note_off channel=5 note=60 velocity=95 time=0
EXTRACT: note_on channel=4 note=58 velocity=95 time=0
EXTRACT: note_off channel=0 note=64 velocity=63 time=0.031249995833333332
EXTRACT: note_off channel=0 note=59 velocity=63 time=0
EXTRACT: note_off channel=0 note=55 velocity=63 time=0
EXTRACT: note_off channel=0 note=50 velocity=63 time=0
EXTRACT: note_off channel=0 note=45 velocity=63 time=0
EXTRACT: note_off channel=0 note=40 velocity=63 time=0
EXTRACT: note_on channel=0 note=70 velocity=63 time=0.11298075416666667
EXTRACT: note_on channel=0 note=65 velocity=63 time=0
EXTRACT: note_on channel=0 note=62 velocity=63 time=0
EXTRACT: note_on channel=0 note=58 velocity=63 time=0
EXTRACT: note_on channel=0 note=53 velocity=63 time=0
EXTRACT: note_on channel=0 note=46 velocity=63 time=0
EXTRACT: note_off channel=2 note=50 velocity=79 time=0
EXTRACT: note_on channel=2 note=56 velocity=79 time=0
EXTRACT: note_off channel=0 note=70 velocity=63 time=0.14423075
EXTRACT: note_off channel=0 note=65 velocity=63 time=0
EXTRACT: note_off channel=0 note=62 velocity=63 time=0
EXTRACT: note_off channel=0 note=58 velocity=63 time=0
EXTRACT: note_off channel=0 note=53 velocity=63 time=0
EXTRACT: note_off channel=0 note=46 velocity=63 time=0
EXTRACT: note_on channel=0 note=70 velocity=63 time=0
EXTRACT: note_on channel=0 note=65 velocity=63 time=0
EXTRACT: note_on channel=0 note=62 velocity=63 time=0
EXTRACT: note_on channel=0 note=58 velocity=63 time=0
EXTRACT: note_on channel=0 note=53 velocity=63 time=0
EXTRACT: note_on channel=0 note=46 velocity=63 time=0
EXTRACT: note_off channel=4 note=58 velocity=95 time=0
EXTRACT: note_on channel=4 note=56 velocity=95 time=0
EXTRACT: note_off channel=0 note=70 velocity=63 time=0.14423075
EXTRACT: note_off channel=0 note=65 velocity=63 time=0
EXTRACT: note_off channel=0 note=62 velocity=63 time=0
EXTRACT: note_off channel=0 note=58 velocity=63 time=0
EXTRACT: note_off channel=0 note=53 velocity=63 time=0
EXTRACT: note_off channel=0 note=46 velocity=63 time=0
EXTRACT: note_on channel=0 note=64 velocity=63 time=0
EXTRACT: note_on channel=0 note=59 velocity=63 time=0
EXTRACT: note_on channel=0 note=55 velocity=63 time=0
EXTRACT: note_on channel=0 note=50 velocity=63 time=0
EXTRACT: note_on channel=0 note=45 velocity=63 time=0
EXTRACT: note_on channel=0 note=40 velocity=63 time=0
EXTRACT: note_off channel=2 note=56 velocity=79 time=0
EXTRACT: note_on channel=2 note=70 velocity=79 time=0
EXTRACT: note_on channel=2 note=65 velocity=79 time=0
EXTRACT: note_on channel=2 note=62 velocity=79 time=0
EXTRACT: note_off channel=4 note=56 velocity=95 time=0
EXTRACT: note_on channel=4 note=53 velocity=95 time=0
EXTRACT: note_off channel=0 note=64 velocity=63 time=0.031249995833333332
EXTRACT: note_off channel=0 note=59 velocity=63 time=0
EXTRACT: note_off channel=0 note=55 velocity=63 time=0
EXTRACT: note_off channel=0 note=50 velocity=63 time=0
EXTRACT: note_off channel=0 note=45 velocity=63 time=0
EXTRACT: note_off channel=0 note=40 velocity=63 time=0
EXTRACT: note_on channel=0 note=64 velocity=63 time=0.11298075416666667
EXTRACT: note_on channel=0 note=59 velocity=63 time=0
EXTRACT: note_on channel=0 note=55 velocity=63 time=0
EXTRACT: note_on channel=0 note=50 velocity=63 time=0
EXTRACT: note_on channel=0 note=45 velocity=63 time=0
EXTRACT: note_on channel=0 note=40 velocity=63 time=0
EXTRACT: note_off channel=2 note=70 velocity=79 time=0
EXTRACT: note_off channel=2 note=65 velocity=79 time=0
EXTRACT: note_off channel=2 note=62 velocity=79 time=0
EXTRACT: note_off channel=4 note=53 velocity=95 time=0
EXTRACT: note_off channel=0 note=64 velocity=63 time=0.031249995833333332
EXTRACT: note_off channel=0 note=59 velocity=63 time=0
EXTRACT: note_off channel=0 note=55 velocity=63 time=0
EXTRACT: note_off channel=0 note=50 velocity=63 time=0
EXTRACT: note_off channel=0 note=45 velocity=63 time=0
EXTRACT: note_off channel=0 note=40 velocity=63 time=0
EXTRACT: note_on channel=0 note=70 velocity=63 time=0.11298075416666667
EXTRACT: note_on channel=0 note=65 velocity=63 time=0
EXTRACT: note_on channel=0 note=62 velocity=63 time=0
EXTRACT: note_on channel=0 note=58 velocity=63 time=0
EXTRACT: note_on channel=0 note=53 velocity=63 time=0
EXTRACT: note_on channel=0 note=46 velocity=63 time=0
EXTRACT: note_on channel=2 note=53 velocity=79 time=0
EXTRACT: note_off channel=0 note=70 velocity=63 time=0.14423075
EXTRACT: note_off channel=0 note=65 velocity=63 time=0
EXTRACT: note_off channel=0 note=62 velocity=63 time=0
EXTRACT: note_off channel=0 note=58 velocity=63 time=0
EXTRACT: note_off channel=0 note=53 velocity=63 time=0
EXTRACT: note_off channel=0 note=46 velocity=63 time=0
EXTRACT: note_on channel=0 note=70 velocity=63 time=0
EXTRACT: note_on channel=0 note=65 velocity=63 time=0
EXTRACT: note_on channel=0 note=62 velocity=63 time=0
EXTRACT: note_on channel=0 note=58 velocity=63 time=0
EXTRACT: note_on channel=0 note=53 velocity=63 time=0
EXTRACT: note_on channel=0 note=46 velocity=63 time=0
EXTRACT: note_off channel=2 note=53 velocity=79 time=0
EXTRACT: note_off channel=0 note=70 velocity=63 time=0.14423075
EXTRACT: note_off channel=0 note=65 velocity=63 time=0
EXTRACT: note_off channel=0 note=62 velocity=63 time=0
EXTRACT: note_off channel=0 note=58 velocity=63 time=0
EXTRACT: note_off channel=0 note=53 velocity=63 time=0
EXTRACT: note_off channel=0 note=46 velocity=63 time=0
EXTRACT: note_on channel=0 note=64 velocity=63 time=0
EXTRACT: note_on channel=0 note=59 velocity=63 time=0
EXTRACT: note_on channel=0 note=55 velocity=63 time=0
EXTRACT: note_on channel=0 note=50 velocity=63 time=0
EXTRACT: note_on channel=0 note=45 velocity=63 time=0
EXTRACT: note_on channel=0 note=40 velocity=63 time=0
EXTRACT: note_on channel=2 note=58 velocity=79 time=0
EXTRACT: note_on channel=4 note=58 velocity=95 time=0
EXTRACT: note_off channel=0 note=64 velocity=63 time=0.031249995833333332
EXTRACT: note_off channel=0 note=59 velocity=63 time=0
EXTRACT: note_off channel=0 note=55 velocity=63 time=0
EXTRACT: note_off channel=0 note=50 velocity=63 time=0
EXTRACT: note_off channel=0 note=45 velocity=63 time=0
EXTRACT: note_off channel=0 note=40 velocity=63 time=0
EXTRACT: note_on channel=0 note=64 velocity=63 time=0.11298075416666667
EXTRACT: note_on channel=0 note=59 velocity=63 time=0
EXTRACT: note_on channel=0 note=55 velocity=63 time=0
EXTRACT: note_on channel=0 note=50 velocity=63 time=0
EXTRACT: note_on channel=0 note=45 velocity=63 time=0
EXTRACT: note_on channel=0 note=40 velocity=63 time=0
EXTRACT: note_off channel=2 note=58 velocity=79 time=0
EXTRACT: note_off channel=0 note=64 velocity=63 time=0.031249995833333332
EXTRACT: note_off channel=0 note=59 velocity=63 time=0
EXTRACT: note_off channel=0 note=55 velocity=63 time=0
EXTRACT: note_off channel=0 note=50 velocity=63 time=0
EXTRACT: note_off channel=0 note=45 velocity=63 time=0
EXTRACT: note_off channel=0 note=40 velocity=63 time=0
EXTRACT: note_on channel=0 note=70 velocity=63 time=0.11298075416666667
EXTRACT: note_on channel=0 note=65 velocity=63 time=0
EXTRACT: note_on channel=0 note=62 velocity=63 time=0
EXTRACT: note_on channel=0 note=58 velocity=63 time=0
EXTRACT: note_on channel=0 note=53 velocity=63 time=0
EXTRACT: note_on channel=0 note=46 velocity=63 time=0
EXTRACT: note_on channel=2 note=70 velocity=79 time=0
EXTRACT: note_on channel=2 note=65 velocity=79 time=0
EXTRACT: note_on channel=2 note=62 velocity=79 time=0
EXTRACT: note_off channel=4 note=58 velocity=95 time=0
EXTRACT: note_on channel=4 note=58 velocity=95 time=0
EXTRACT: note_off channel=0 note=70 velocity=63 time=0.14423075
EXTRACT: note_off channel=0 note=65 velocity=63 time=0
EXTRACT: note_off channel=0 note=62 velocity=63 time=0
EXTRACT: note_off channel=0 note=58 velocity=63 time=0
EXTRACT: note_off channel=0 note=53 velocity=63 time=0
EXTRACT: note_off channel=0 note=46 velocity=63 time=0
EXTRACT: note_on channel=0 note=70 velocity=63 time=0
EXTRACT: note_on channel=0 note=65 velocity=63 time=0
EXTRACT: note_on channel=0 note=62 velocity=63 time=0
EXTRACT: note_on channel=0 note=58 velocity=63 time=0
EXTRACT: note_on channel=0 note=53 velocity=63 time=0
EXTRACT: note_on channel=0 note=46 velocity=63 time=0
EXTRACT: note_off channel=2 note=70 velocity=79 time=0
EXTRACT: note_off channel=2 note=65 velocity=79 time=0
EXTRACT: note_off channel=2 note=62 velocity=79 time=0
EXTRACT: note_off channel=0 note=70 velocity=63 time=0.14423075
EXTRACT: note_off channel=0 note=65 velocity=63 time=0
EXTRACT: note_off channel=0 note=62 velocity=63 time=0
EXTRACT: note_off channel=0 note=58 velocity=63 time=0
EXTRACT: note_off channel=0 note=53 velocity=63 time=0
EXTRACT: note_off channel=0 note=46 velocity=63 time=0
EXTRACT: note_on channel=0 note=64 velocity=63 time=0
EXTRACT: note_on channel=0 note=59 velocity=63 time=0
EXTRACT: note_on channel=0 note=55 velocity=63 time=0
EXTRACT: note_on channel=0 note=50 velocity=63 time=0
EXTRACT: note_on channel=0 note=45 velocity=63 time=0
EXTRACT: note_on channel=0 note=40 velocity=63 time=0
EXTRACT: note_off channel=4 note=58 velocity=95 time=0
EXTRACT: note_on channel=4 note=56 velocity=95 time=0
EXTRACT: note_off channel=0 note=64 velocity=63 time=0.031249995833333332
EXTRACT: note_off channel=0 note=59 velocity=63 time=0
EXTRACT: note_off channel=0 note=55 velocity=63 time=0
EXTRACT: note_off channel=0 note=50 velocity=63 time=0
EXTRACT: note_off channel=0 note=45 velocity=63 time=0
EXTRACT: note_off channel=0 note=40 velocity=63 time=0
EXTRACT: note_on channel=0 note=64 velocity=63 time=0.11298075416666667
EXTRACT: note_on channel=0 note=59 velocity=63 time=0
EXTRACT: note_on channel=0 note=55 velocity=63 time=0
EXTRACT: note_on channel=0 note=50 velocity=63 time=0
EXTRACT: note_on channel=0 note=45 velocity=63 time=0
EXTRACT: note_on channel=0 note=40 velocity=63 time=0
EXTRACT: note_off channel=0 note=64 velocity=63 time=0.031249995833333332
EXTRACT: note_off channel=0 note=59 velocity=63 time=0
EXTRACT: note_off channel=0 note=55 velocity=63 time=0
EXTRACT: note_off channel=0 note=50 velocity=63 time=0
EXTRACT: note_off channel=0 note=45 velocity=63 time=0
EXTRACT: note_off channel=0 note=40 velocity=63 time=0
EXTRACT: note_on channel=0 note=70 velocity=63 time=0.11298075416666667
EXTRACT: note_on channel=0 note=65 velocity=63 time=0
EXTRACT: note_on channel=0 note=62 velocity=63 time=0
EXTRACT: note_on channel=0 note=58 velocity=63 time=0
EXTRACT: note_on channel=0 note=53 velocity=63 time=0
EXTRACT: note_on channel=0 note=46 velocity=63 time=0
EXTRACT: note_off channel=4 note=56 velocity=95 time=0
EXTRACT: note_on channel=4 note=60 velocity=95 time=0
EXTRACT: note_off channel=0 note=70 velocity=63 time=0.14423075
EXTRACT: note_off channel=0 note=65 velocity=63 time=0
EXTRACT: note_off channel=0 note=62 velocity=63 time=0
EXTRACT: note_off channel=0 note=58 velocity=63 time=0
EXTRACT: note_off channel=0 note=53 velocity=63 time=0
EXTRACT: note_off channel=0 note=46 velocity=63 time=0
EXTRACT: note_on channel=0 note=70 velocity=63 time=0
EXTRACT: note_on channel=0 note=65 velocity=63 time=0
EXTRACT: note_on channel=0 note=62 velocity=63 time=0
EXTRACT: note_on channel=0 note=58 velocity=63 time=0
EXTRACT: note_on channel=0 note=53 velocity=63 time=0
EXTRACT: note_on channel=0 note=46 velocity=63 time=0
EXTRACT: note_on channel=2 note=56 velocity=79 time=0
EXTRACT: note_off channel=0 note=70 velocity=63 time=0.14423075
EXTRACT: note_off channel=0 note=65 velocity=63 time=0
EXTRACT: note_off channel=0 note=62 velocity=63 time=0
EXTRACT: note_off channel=0 note=58 velocity=63 time=0
EXTRACT: note_off channel=0 note=53 velocity=63 time=0
EXTRACT: note_off channel=0 note=46 velocity=63 time=0
EXTRACT: note_on channel=0 note=64 velocity=63 time=0
EXTRACT: note_on channel=0 note=59 velocity=63 time=0
EXTRACT: note_on channel=0 note=55 velocity=63 time=0
EXTRACT: note_on channel=0 note=50 velocity=63 time=0
EXTRACT: note_on channel=0 note=45 velocity=63 time=0
EXTRACT: note_on channel=0 note=40 velocity=63 time=0
EXTRACT: note_off channel=2 note=56 velocity=79 time=0
EXTRACT: note_off channel=0 note=64 velocity=63 time=0.031249995833333332
EXTRACT: note_off channel=0 note=59 velocity=63 time=0
EXTRACT: note_off channel=0 note=55 velocity=63 time=0
EXTRACT: note_off channel=0 note=50 velocity=63 time=0
EXTRACT: note_off channel=0 note=45 velocity=63 time=0
EXTRACT: note_off channel=0 note=40 velocity=63 time=0
EXTRACT: note_on channel=0 note=64 velocity=63 time=0.11298075416666667
EXTRACT: note_on channel=0 note=59 velocity=63 time=0
EXTRACT: note_on channel=0 note=55 velocity=63 time=0
EXTRACT: note_on channel=0 note=50 velocity=63 time=0
EXTRACT: note_on channel=0 note=45 velocity=63 time=0
EXTRACT: note_on channel=0 note=40 velocity=63 time=0
EXTRACT: note_on channel=2 note=50 velocity=79 time=0
EXTRACT: note_off channel=4 note=60 velocity=95 time=0
EXTRACT: note_on channel=4 note=58 velocity=95 time=0
EXTRACT: note_off channel=0 note=64 velocity=63 time=0.031249995833333332
EXTRACT: note_off channel=0 note=59 velocity=63 time=0
EXTRACT: note_off channel=0 note=55 velocity=63 time=0
EXTRACT: note_off channel=0 note=50 velocity=63 time=0
EXTRACT: note_off channel=0 note=45 velocity=63 time=0
EXTRACT: note_off channel=0 note=40 velocity=63 time=0
EXTRACT: note_on channel=0 note=70 velocity=63 time=0.11298075416666667
EXTRACT: note_on channel=0 note=65 velocity=63 time=0
EXTRACT: note_on channel=0 note=62 velocity=63 time=0
EXTRACT: note_on channel=0 note=58 velocity=63 time=0
EXTRACT: note_on channel=0 note=53 velocity=63 time=0
EXTRACT: note_on channel=0 note=46 velocity=63 time=0
EXTRACT: note_off channel=2 note=50 velocity=79 time=0
EXTRACT: note_on channel=2 note=56 velocity=79 time=0
EXTRACT: note_off channel=0 note=70 velocity=63 time=0.14423075
EXTRACT: note_off channel=0 note=65 velocity=63 time=0
EXTRACT: note_off channel=0 note=62 velocity=63 time=0
EXTRACT: note_off channel=0 note=58 velocity=63 time=0
EXTRACT: note_off channel=0 note=53 velocity=63 time=0
EXTRACT: note_off channel=0 note=46 velocity=63 time=0
EXTRACT: note_on channel=0 note=70 velocity=63 time=0
EXTRACT: note_on channel=0 note=65 velocity=63 time=0
EXTRACT: note_on channel=0 note=62 velocity=63 time=0
EXTRACT: note_on channel=0 note=58 velocity=63 time=0
EXTRACT: note_on channel=0 note=53 velocity=63 time=0
EXTRACT: note_on channel=0 note=46 velocity=63 time=0
EXTRACT: note_off channel=4 note=58 velocity=95 time=0
EXTRACT: note_on channel=4 note=56 velocity=95 time=0
EXTRACT: note_off channel=0 note=70 velocity=63 time=0.14423075
EXTRACT: note_off channel=0 note=65 velocity=63 time=0
EXTRACT: note_off channel=0 note=62 velocity=63 time=0
EXTRACT: note_off channel=0 note=58 velocity=63 time=0
EXTRACT: note_off channel=0 note=53 velocity=63 time=0
EXTRACT: note_off channel=0 note=46 velocity=63 time=0
EXTRACT: note_on channel=0 note=64 velocity=63 time=0
EXTRACT: note_on channel=0 note=59 velocity=63 time=0
EXTRACT: note_on channel=0 note=55 velocity=63 time=0
EXTRACT: note_on channel=0 note=50 velocity=63 time=0
EXTRACT: note_on channel=0 note=45 velocity=63 time=0
EXTRACT: note_on channel=0 note=40 velocity=63 time=0
EXTRACT: note_off channel=2 note=56 velocity=79 time=0
EXTRACT: note_on channel=2 note=70 velocity=79 time=0
EXTRACT: note_on channel=2 note=65 velocity=79 time=0
EXTRACT: note_on channel=2 note=62 velocity=79 time=0
EXTRACT: note_off channel=4 note=56 velocity=95 time=0
EXTRACT: note_on channel=4 note=53 velocity=95 time=0
EXTRACT: note_off channel=0 note=64 velocity=63 time=0.031249995833333332
EXTRACT: note_off channel=0 note=59 velocity=63 time=0
EXTRACT: note_off channel=0 note=55 velocity=63 time=0
EXTRACT: note_off channel=0 note=50 velocity=63 time=0
EXTRACT: note_off channel=0 note=45 velocity=63 time=0
EXTRACT: note_off channel=0 note=40 velocity=63 time=0
EXTRACT: note_on channel=0 note=64 velocity=63 time=0.11298075416666667
EXTRACT: note_on channel=0 note=59 velocity=63 time=0
EXTRACT: note_on channel=0 note=55 velocity=63 time=0
EXTRACT: note_on channel=0 note=50 velocity=63 time=0
EXTRACT: note_on channel=0 note=45 velocity=63 time=0
EXTRACT: note_on channel=0 note=40 velocity=63 time=0
EXTRACT: note_off channel=2 note=70 velocity=79 time=0
EXTRACT: note_off channel=2 note=65 velocity=79 time=0
EXTRACT: note_off channel=2 note=62 velocity=79 time=0
EXTRACT: note_off channel=0 note=64 velocity=63 time=0.031249995833333332
EXTRACT: note_off channel=0 note=59 velocity=63 time=0
EXTRACT: note_off channel=0 note=55 velocity=63 time=0
EXTRACT: note_off channel=0 note=50 velocity=63 time=0
EXTRACT: note_off channel=0 note=45 velocity=63 time=0
EXTRACT: note_off channel=0 note=40 velocity=63 time=0
EXTRACT: note_on channel=0 note=70 velocity=63 time=0.11298075416666667
EXTRACT: note_on channel=0 note=65 velocity=63 time=0
EXTRACT: note_on channel=0 note=62 velocity=63 time=0
EXTRACT: note_on channel=0 note=58 velocity=63 time=0
EXTRACT: note_on channel=0 note=53 velocity=63 time=0
EXTRACT: note_on channel=0 note=46 velocity=63 time=0
EXTRACT: note_off channel=4 note=53 velocity=95 time=0
EXTRACT: note_off channel=0 note=70 velocity=63 time=0.14423075
EXTRACT: note_off channel=0 note=65 velocity=63 time=0
EXTRACT: note_off channel=0 note=62 velocity=63 time=0
EXTRACT: note_off channel=0 note=58 velocity=63 time=0
EXTRACT: note_off channel=0 note=53 velocity=63 time=0
EXTRACT: note_off channel=0 note=46 velocity=63 time=0
EXTRACT: note_on channel=0 note=70 velocity=63 time=0
EXTRACT: note_on channel=0 note=65 velocity=63 time=0
EXTRACT: note_on channel=0 note=62 velocity=63 time=0
EXTRACT: note_on channel=0 note=58 velocity=63 time=0
EXTRACT: note_on channel=0 note=53 velocity=63 time=0
EXTRACT: note_on channel=0 note=46 velocity=63 time=0
EXTRACT: note_off channel=0 note=70 velocity=63 time=0.14423075
EXTRACT: note_off channel=0 note=65 velocity=63 time=0
EXTRACT: note_off channel=0 note=62 velocity=63 time=0
EXTRACT: note_off channel=0 note=58 velocity=63 time=0
EXTRACT: note_off channel=0 note=53 velocity=63 time=0
EXTRACT: note_off channel=0 note=46 velocity=63 time=0
EXTRACT: note_on channel=0 note=64 velocity=63 time=0
EXTRACT: note_on channel=0 note=59 velocity=63 time=0
EXTRACT: note_on channel=0 note=55 velocity=63 time=0
EXTRACT: note_on channel=0 note=50 velocity=63 time=0
EXTRACT: note_on channel=0 note=45 velocity=63 time=0
EXTRACT: note_on channel=0 note=40 velocity=63 time=0
EXTRACT: note_on channel=2 note=58 velocity=79 time=0
EXTRACT: note_off channel=0 note=64 velocity=63 time=0.031249995833333332
EXTRACT: note_off channel=0 note=59 velocity=63 time=0
EXTRACT: note_off channel=0 note=55 velocity=63 time=0
EXTRACT: note_off channel=0 note=50 velocity=63 time=0
EXTRACT: note_off channel=0 note=45 velocity=63 time=0
EXTRACT: note_off channel=0 note=40 velocity=63 time=0
EXTRACT: note_on channel=0 note=64 velocity=63 time=0.11298075416666667
EXTRACT: note_on channel=0 note=59 velocity=63 time=0
EXTRACT: note_on channel=0 note=55 velocity=63 time=0
EXTRACT: note_on channel=0 note=50 velocity=63 time=0
EXTRACT: note_on channel=0 note=45 velocity=63 time=0
EXTRACT: note_on channel=0 note=40 velocity=63 time=0
EXTRACT: note_off channel=0 note=64 velocity=63 time=0.031249995833333332
EXTRACT: note_off channel=0 note=59 velocity=63 time=0
EXTRACT: note_off channel=0 note=55 velocity=63 time=0
EXTRACT: note_off channel=0 note=50 velocity=63 time=0
EXTRACT: note_off channel=0 note=45 velocity=63 time=0
EXTRACT: note_off channel=0 note=40 velocity=63 time=0
EXTRACT: note_on channel=0 note=70 velocity=63 time=0.11298075416666667
EXTRACT: note_on channel=0 note=65 velocity=63 time=0
EXTRACT: note_on channel=0 note=62 velocity=63 time=0
EXTRACT: note_on channel=0 note=58 velocity=63 time=0
EXTRACT: note_on channel=0 note=53 velocity=63 time=0
EXTRACT: note_on channel=0 note=46 velocity=63 time=0
EXTRACT: note_off channel=2 note=58 velocity=79 time=0
EXTRACT: note_off channel=0 note=70 velocity=63 time=0.14423075
EXTRACT: note_off channel=0 note=65 velocity=63 time=0
EXTRACT: note_off channel=0 note=62 velocity=63 time=0
EXTRACT: note_off channel=0 note=58 velocity=63 time=0
EXTRACT: note_off channel=0 note=53 velocity=63 time=0
EXTRACT: note_off channel=0 note=46 velocity=63 time=0
EXTRACT: note_on channel=0 note=70 velocity=63 time=0
EXTRACT: note_on channel=0 note=65 velocity=63 time=0
EXTRACT: note_on channel=0 note=62 velocity=63 time=0
EXTRACT: note_on channel=0 note=58 velocity=63 time=0
EXTRACT: note_on channel=0 note=53 velocity=63 time=0
EXTRACT: note_on channel=0 note=46 velocity=63 time=0
EXTRACT: note_off channel=0 note=70 velocity=63 time=0.14423075
EXTRACT: note_off channel=0 note=65 velocity=63 time=0
EXTRACT: note_off channel=0 note=62 velocity=63 time=0
EXTRACT: note_off channel=0 note=58 velocity=63 time=0
EXTRACT: note_off channel=0 note=53 velocity=63 time=0
EXTRACT: note_off channel=0 note=46 velocity=63 time=0
EXTRACT: note_on channel=0 note=64 velocity=63 time=0
EXTRACT: note_on channel=0 note=59 velocity=63 time=0
EXTRACT: note_on channel=0 note=55 velocity=63 time=0
EXTRACT: note_on channel=0 note=50 velocity=63 time=0
EXTRACT: note_on channel=0 note=45 velocity=63 time=0
EXTRACT: note_on channel=0 note=40 velocity=63 time=0
EXTRACT: note_on channel=4 note=58 velocity=95 time=0
EXTRACT: note_off channel=0 note=64 velocity=63 time=0.031249995833333332
EXTRACT: note_off channel=0 note=59 velocity=63 time=0
EXTRACT: note_off channel=0 note=55 velocity=63 time=0
EXTRACT: note_off channel=0 note=50 velocity=63 time=0
EXTRACT: note_off channel=0 note=45 velocity=63 time=0
EXTRACT: note_off channel=0 note=40 velocity=63 time=0
EXTRACT: note_on channel=0 note=64 velocity=63 time=0.11298075416666667
EXTRACT: note_on channel=0 note=59 velocity=63 time=0
EXTRACT: note_on channel=0 note=55 velocity=63 time=0
EXTRACT: note_on channel=0 note=50 velocity=63 time=0
EXTRACT: note_on channel=0 note=45 velocity=63 time=0
EXTRACT: note_on channel=0 note=40 velocity=63 time=0
EXTRACT: note_on channel=2 note=56 velocity=79 time=0
EXTRACT: note_off channel=4 note=58 velocity=95 time=0
EXTRACT: note_on channel=4 note=56 velocity=95 time=0
EXTRACT: note_off channel=0 note=64 velocity=63 time=0.031249995833333332
EXTRACT: note_off channel=0 note=59 velocity=63 time=0
EXTRACT: note_off channel=0 note=55 velocity=63 time=0
EXTRACT: note_off channel=0 note=50 velocity=63 time=0
EXTRACT: note_off channel=0 note=45 velocity=63 time=0
EXTRACT: note_off channel=0 note=40 velocity=63 time=0
EXTRACT: note_on channel=0 note=70 velocity=63 time=0.11298075416666667
EXTRACT: note_on channel=0 note=65 velocity=63 time=0
EXTRACT: note_on channel=0 note=62 velocity=63 time=0
EXTRACT: note_on channel=0 note=58 velocity=63 time=0
EXTRACT: note_on channel=0 note=53 velocity=63 time=0
EXTRACT: note_on channel=0 note=46 velocity=63 time=0
EXTRACT: note_off channel=2 note=56 velocity=79 time=0
EXTRACT: note_off channel=4 note=56 velocity=95 time=0
EXTRACT: note_on channel=4 note=58 velocity=95 time=0
EXTRACT: note_off channel=0 note=70 velocity=63 time=0.14423075
EXTRACT: note_off channel=0 note=65 velocity=63 time=0
EXTRACT: note_off channel=0 note=62 velocity=63 time=0
EXTRACT: note_off channel=0 note=58 velocity=63 time=0
EXTRACT: note_off channel=0 note=53 velocity=63 time=0
EXTRACT: note_off channel=0 note=46 velocity=63 time=0
EXTRACT: note_on channel=0 note=70 velocity=63 time=0
EXTRACT: note_on channel=0 note=65 velocity=63 time=0
EXTRACT: note_on channel=0 note=62 velocity=63 time=0
EXTRACT: note_on channel=0 note=58 velocity=63 time=0
EXTRACT: note_on channel=0 note=53 velocity=63 time=0
EXTRACT: note_on channel=0 note=46 velocity=63 time=0
EXTRACT: note_on channel=2 note=56 velocity=79 time=0
EXTRACT: note_off channel=0 note=70 velocity=63 time=0.14423075
EXTRACT: note_off channel=0 note=65 velocity=63 time=0
EXTRACT: note_off channel=0 note=62 velocity=63 time=0
EXTRACT: note_off channel=0 note=58 velocity=63 time=0
EXTRACT: note_off channel=0 note=53 velocity=63 time=0
EXTRACT: note_off channel=0 note=46 velocity=63 time=0
EXTRACT: note_on channel=0 note=64 velocity=63 time=0
EXTRACT: note_on channel=0 note=59 velocity=63 time=0
EXTRACT: note_on channel=0 note=55 velocity=63 time=0
EXTRACT: note_on channel=0 note=50 velocity=63 time=0
EXTRACT: note_on channel=0 note=45 velocity=63 time=0
EXTRACT: note_on channel=0 note=40 velocity=63 time=0
EXTRACT: note_off channel=2 note=56 velocity=79 time=0
EXTRACT: note_off channel=4 note=58 velocity=95 time=0
EXTRACT: note_on channel=4 note=56 velocity=95 time=0
EXTRACT: note_off channel=0 note=64 velocity=63 time=0.031249995833333332
EXTRACT: note_off channel=0 note=59 velocity=63 time=0
EXTRACT: note_off channel=0 note=55 velocity=63 time=0
EXTRACT: note_off channel=0 note=50 velocity=63 time=0
EXTRACT: note_off channel=0 note=45 velocity=63 time=0
EXTRACT: note_off channel=0 note=40 velocity=63 time=0
EXTRACT: note_on channel=0 note=64 velocity=63 time=0.11298075416666667
EXTRACT: note_on channel=0 note=59 velocity=63 time=0
EXTRACT: note_on channel=0 note=55 velocity=63 time=0
EXTRACT: note_on channel=0 note=50 velocity=63 time=0
EXTRACT: note_on channel=0 note=45 velocity=63 time=0
EXTRACT: note_on channel=0 note=40 velocity=63 time=0
EXTRACT: note_on channel=2 note=50 velocity=79 time=0
EXTRACT: note_off channel=4 note=56 velocity=95 time=0
EXTRACT: note_on channel=4 note=58 velocity=95 time=0
EXTRACT: note_off channel=0 note=64 velocity=63 time=0.031249995833333332
EXTRACT: note_off channel=0 note=59 velocity=63 time=0
EXTRACT: note_off channel=0 note=55 velocity=63 time=0
EXTRACT: note_off channel=0 note=50 velocity=63 time=0
EXTRACT: note_off channel=0 note=45 velocity=63 time=0
EXTRACT: note_off channel=0 note=40 velocity=63 time=0
EXTRACT: note_on channel=0 note=70 velocity=63 time=0.11298075416666667
EXTRACT: note_on channel=0 note=65 velocity=63 time=0
EXTRACT: note_on channel=0 note=62 velocity=63 time=0
EXTRACT: note_on channel=0 note=58 velocity=63 time=0
EXTRACT: note_on channel=0 note=53 velocity=63 time=0
EXTRACT: note_on channel=0 note=46 velocity=63 time=0
EXTRACT: note_off channel=2 note=50 velocity=79 time=0
EXTRACT: note_on channel=2 note=56 velocity=79 time=0
EXTRACT: note_off channel=0 note=70 velocity=63 time=0.14423075
EXTRACT: note_off channel=0 note=65 velocity=63 time=0
EXTRACT: note_off channel=0 note=62 velocity=63 time=0
EXTRACT: note_off channel=0 note=58 velocity=63 time=0
EXTRACT: note_off channel=0 note=53 velocity=63 time=0
EXTRACT: note_off channel=0 note=46 velocity=63 time=0
EXTRACT: note_on channel=0 note=70 velocity=63 time=0
EXTRACT: note_on channel=0 note=65 velocity=63 time=0
EXTRACT: note_on channel=0 note=62 velocity=63 time=0
EXTRACT: note_on channel=0 note=58 velocity=63 time=0
EXTRACT: note_on channel=0 note=53 velocity=63 time=0
EXTRACT: note_on channel=0 note=46 velocity=63 time=0
EXTRACT: note_off channel=4 note=58 velocity=95 time=0
EXTRACT: note_on channel=4 note=56 velocity=95 time=0
EXTRACT: note_off channel=0 note=70 velocity=63 time=0.14423075
EXTRACT: note_off channel=0 note=65 velocity=63 time=0
EXTRACT: note_off channel=0 note=62 velocity=63 time=0
EXTRACT: note_off channel=0 note=58 velocity=63 time=0
EXTRACT: note_off channel=0 note=53 velocity=63 time=0
EXTRACT: note_off channel=0 note=46 velocity=63 time=0
EXTRACT: note_on channel=0 note=64 velocity=63 time=0
EXTRACT: note_on channel=0 note=59 velocity=63 time=0
EXTRACT: note_on channel=0 note=55 velocity=63 time=0
EXTRACT: note_on channel=0 note=50 velocity=63 time=0
EXTRACT: note_on channel=0 note=45 velocity=63 time=0
EXTRACT: note_on channel=0 note=40 velocity=63 time=0
EXTRACT: note_off channel=2 note=56 velocity=79 time=0
EXTRACT: note_on channel=2 note=58 velocity=79 time=0
EXTRACT: note_off channel=4 note=56 velocity=95 time=0
EXTRACT: note_on channel=4 note=58 velocity=95 time=0
EXTRACT: note_off channel=0 note=64 velocity=63 time=0.031249995833333332
EXTRACT: note_off channel=0 note=59 velocity=63 time=0
EXTRACT: note_off channel=0 note=55 velocity=63 time=0
EXTRACT: note_off channel=0 note=50 velocity=63 time=0
EXTRACT: note_off channel=0 note=45 velocity=63 time=0
EXTRACT: note_off channel=0 note=40 velocity=63 time=0
EXTRACT: note_on channel=0 note=64 velocity=63 time=0.11298075416666667
EXTRACT: note_on channel=0 note=59 velocity=63 time=0
EXTRACT: note_on channel=0 note=55 velocity=63 time=0
EXTRACT: note_on channel=0 note=50 velocity=63 time=0
EXTRACT: note_on channel=0 note=45 velocity=63 time=0
EXTRACT: note_on channel=0 note=40 velocity=63 time=0
EXTRACT: note_off channel=2 note=58 velocity=79 time=0
EXTRACT: note_off channel=4 note=58 velocity=95 time=0
EXTRACT: note_on channel=4 note=56 velocity=95 time=0
EXTRACT: note_off channel=0 note=64 velocity=63 time=0.031249995833333332
EXTRACT: note_off channel=0 note=59 velocity=63 time=0
EXTRACT: note_off channel=0 note=55 velocity=63 time=0
EXTRACT: note_off channel=0 note=50 velocity=63 time=0
EXTRACT: note_off channel=0 note=45 velocity=63 time=0
EXTRACT: note_off channel=0 note=40 velocity=63 time=0
EXTRACT: note_on channel=0 note=72 velocity=63 time=0.11298075416666667
EXTRACT: note_on channel=0 note=68 velocity=63 time=0
EXTRACT: note_on channel=0 note=65 velocity=63 time=0
EXTRACT: note_on channel=0 note=60 velocity=63 time=0
EXTRACT: note_on channel=0 note=53 velocity=63 time=0
EXTRACT: note_on channel=2 note=51 velocity=79 time=0
EXTRACT: note_off channel=4 note=56 velocity=95 time=0
EXTRACT: note_on channel=4 note=53 velocity=95 time=0
EXTRACT: note_off channel=0 note=72 velocity=63 time=0.14423075
EXTRACT: note_off channel=0 note=68 velocity=63 time=0
EXTRACT: note_off channel=0 note=65 velocity=63 time=0
EXTRACT: note_off channel=0 note=60 velocity=63 time=0
EXTRACT: note_off channel=0 note=53 velocity=63 time=0
EXTRACT: note_on channel=0 note=72 velocity=63 time=0
EXTRACT: note_on channel=0 note=68 velocity=63 time=0
EXTRACT: note_on channel=0 note=65 velocity=63 time=0
EXTRACT: note_on channel=0 note=60 velocity=63 time=0
EXTRACT: note_on channel=0 note=53 velocity=63 time=0
EXTRACT: note_off channel=2 note=51 velocity=79 time=0
EXTRACT: note_on channel=2 note=53 velocity=54 time=0
EXTRACT: note_off channel=0 note=72 velocity=63 time=0.14423075
EXTRACT: note_off channel=0 note=68 velocity=63 time=0
EXTRACT: note_off channel=0 note=65 velocity=63 time=0
EXTRACT: note_off channel=0 note=60 velocity=63 time=0
EXTRACT: note_off channel=0 note=53 velocity=63 time=0
EXTRACT: note_on channel=0 note=64 velocity=63 time=0
EXTRACT: note_on channel=0 note=59 velocity=63 time=0
EXTRACT: note_on channel=0 note=55 velocity=63 time=0
EXTRACT: note_on channel=0 note=50 velocity=63 time=0
EXTRACT: note_on channel=0 note=45 velocity=63 time=0
EXTRACT: note_off channel=4 note=53 velocity=95 time=0
EXTRACT: note_off channel=0 note=64 velocity=63 time=0.031249995833333332
EXTRACT: note_off channel=0 note=59 velocity=63 time=0
EXTRACT: note_off channel=0 note=55 velocity=63 time=0
EXTRACT: note_off channel=0 note=50 velocity=63 time=0
EXTRACT: note_off channel=0 note=45 velocity=63 time=0
EXTRACT: note_on channel=0 note=64 velocity=63 time=0.11298075416666667
EXTRACT: note_on channel=0 note=59 velocity=63 time=0
EXTRACT: note_on channel=0 note=55 velocity=63 time=0
EXTRACT: note_on channel=0 note=50 velocity=63 time=0
EXTRACT: note_on channel=0 note=45 velocity=63 time=0
EXTRACT: note_off channel=2 note=53 velocity=54 time=0
EXTRACT: note_on channel=2 note=56 velocity=79 time=0
EXTRACT: note_off channel=0 note=64 velocity=63 time=0.031249995833333332
EXTRACT: note_off channel=0 note=59 velocity=63 time=0
EXTRACT: note_off channel=0 note=55 velocity=63 time=0
EXTRACT: note_off channel=0 note=50 velocity=63 time=0
EXTRACT: note_off channel=0 note=45 velocity=63 time=0
EXTRACT: note_on channel=0 note=72 velocity=63 time=0.11298075416666667
EXTRACT: note_on channel=0 note=68 velocity=63 time=0
EXTRACT: note_on channel=0 note=65 velocity=63 time=0
EXTRACT: note_on channel=0 note=60 velocity=63 time=0
EXTRACT: note_on channel=0 note=53 velocity=63 time=0
EXTRACT: note_off channel=2 note=56 velocity=79 time=0
EXTRACT: note_off channel=0 note=72 velocity=63 time=0.14423075
EXTRACT: note_off channel=0 note=68 velocity=63 time=0
EXTRACT: note_off channel=0 note=65 velocity=63 time=0
EXTRACT: note_off channel=0 note=60 velocity=63 time=0
EXTRACT: note_off channel=0 note=53 velocity=63 time=0
EXTRACT: note_on channel=0 note=72 velocity=63 time=0
EXTRACT: note_on channel=0 note=68 velocity=63 time=0
EXTRACT: note_on channel=0 note=65 velocity=63 time=0
EXTRACT: note_on channel=0 note=60 velocity=63 time=0
EXTRACT: note_on channel=0 note=53 velocity=63 time=0
EXTRACT: note_off channel=0 note=72 velocity=63 time=0.14423075
EXTRACT: note_off channel=0 note=68 velocity=63 time=0
EXTRACT: note_off channel=0 note=65 velocity=63 time=0
EXTRACT: note_off channel=0 note=60 velocity=63 time=0
EXTRACT: note_off channel=0 note=53 velocity=63 time=0
EXTRACT: note_on channel=0 note=64 velocity=63 time=0
EXTRACT: note_on channel=0 note=59 velocity=63 time=0
EXTRACT: note_on channel=0 note=55 velocity=63 time=0
EXTRACT: note_on channel=0 note=50 velocity=63 time=0
EXTRACT: note_on channel=0 note=45 velocity=63 time=0
EXTRACT: note_on channel=2 note=51 velocity=79 time=0
EXTRACT: note_off channel=0 note=64 velocity=63 time=0.031249995833333332
EXTRACT: note_off channel=0 note=59 velocity=63 time=0
EXTRACT: note_off channel=0 note=55 velocity=63 time=0
EXTRACT: note_off channel=0 note=50 velocity=63 time=0
EXTRACT: note_off channel=0 note=45 velocity=63 time=0
EXTRACT: note_on channel=0 note=64 velocity=63 time=0.11298075416666667
EXTRACT: note_on channel=0 note=59 velocity=63 time=0
EXTRACT: note_on channel=0 note=55 velocity=63 time=0
EXTRACT: note_on channel=0 note=50 velocity=63 time=0
EXTRACT: note_on channel=0 note=45 velocity=63 time=0
EXTRACT: note_off channel=0 note=64 velocity=63 time=0.031249995833333332
EXTRACT: note_off channel=0 note=59 velocity=63 time=0
EXTRACT: note_off channel=0 note=55 velocity=63 time=0
EXTRACT: note_off channel=0 note=50 velocity=63 time=0
EXTRACT: note_off channel=0 note=45 velocity=63 time=0
EXTRACT: note_on channel=0 note=72 velocity=63 time=0.11298075416666667
EXTRACT: note_on channel=0 note=68 velocity=63 time=0
EXTRACT: note_on channel=0 note=65 velocity=63 time=0
EXTRACT: note_on channel=0 note=60 velocity=63 time=0
EXTRACT: note_on channel=0 note=53 velocity=63 time=0
EXTRACT: note_off channel=2 note=51 velocity=79 time=0
EXTRACT: note_off channel=0 note=72 velocity=63 time=0.14423075
EXTRACT: note_off channel=0 note=68 velocity=63 time=0
EXTRACT: note_off channel=0 note=65 velocity=63 time=0
EXTRACT: note_off channel=0 note=60 velocity=63 time=0
EXTRACT: note_off channel=0 note=53 velocity=63 time=0
EXTRACT: note_on channel=0 note=72 velocity=63 time=0
EXTRACT: note_on channel=0 note=68 velocity=63 time=0
EXTRACT: note_on channel=0 note=65 velocity=63 time=0
EXTRACT: note_on channel=0 note=60 velocity=63 time=0
EXTRACT: note_on channel=0 note=53 velocity=63 time=0
EXTRACT: note_off channel=0 note=72 velocity=63 time=0.14423075
EXTRACT: note_off channel=0 note=68 velocity=63 time=0
EXTRACT: note_off channel=0 note=65 velocity=63 time=0
EXTRACT: note_off channel=0 note=60 velocity=63 time=0
EXTRACT: note_off channel=0 note=53 velocity=63 time=0
EXTRACT: note_on channel=0 note=64 velocity=63 time=0
EXTRACT: note_on channel=0 note=59 velocity=63 time=0
EXTRACT: note_on channel=0 note=55 velocity=63 time=0
EXTRACT: note_on channel=0 note=50 velocity=63 time=0
EXTRACT: note_on channel=0 note=45 velocity=63 time=0
EXTRACT: note_on channel=2 note=48 velocity=79 time=0
EXTRACT: note_off channel=0 note=64 velocity=63 time=0.031249995833333332
EXTRACT: note_off channel=0 note=59 velocity=63 time=0
EXTRACT: note_off channel=0 note=55 velocity=63 time=0
EXTRACT: note_off channel=0 note=50 velocity=63 time=0
EXTRACT: note_off channel=0 note=45 velocity=63 time=0
EXTRACT: note_on channel=0 note=64 velocity=63 time=0.11298075416666667
EXTRACT: note_on channel=0 note=59 velocity=63 time=0
EXTRACT: note_on channel=0 note=55 velocity=63 time=0
EXTRACT: note_on channel=0 note=50 velocity=63 time=0
EXTRACT: note_on channel=0 note=45 velocity=63 time=0
EXTRACT: note_off channel=0 note=64 velocity=63 time=0.031249995833333332
EXTRACT: note_off channel=0 note=59 velocity=63 time=0
EXTRACT: note_off channel=0 note=55 velocity=63 time=0
EXTRACT: note_off channel=0 note=50 velocity=63 time=0
EXTRACT: note_off channel=0 note=45 velocity=63 time=0
EXTRACT: note_on channel=0 note=72 velocity=63 time=0.11298075416666667
EXTRACT: note_on channel=0 note=68 velocity=63 time=0
EXTRACT: note_on channel=0 note=65 velocity=63 time=0
EXTRACT: note_on channel=0 note=60 velocity=63 time=0
EXTRACT: note_on channel=0 note=53 velocity=63 time=0
EXTRACT: note_off channel=2 note=48 velocity=79 time=0
EXTRACT: note_on channel=2 note=46 velocity=79 time=0
EXTRACT: note_off channel=0 note=72 velocity=63 time=0.14423075
EXTRACT: note_off channel=0 note=68 velocity=63 time=0
EXTRACT: note_off channel=0 note=65 velocity=63 time=0
EXTRACT: note_off channel=0 note=60 velocity=63 time=0
EXTRACT: note_off channel=0 note=53 velocity=63 time=0
EXTRACT: note_on channel=0 note=72 velocity=63 time=0
EXTRACT: note_on channel=0 note=68 velocity=63 time=0
EXTRACT: note_on channel=0 note=65 velocity=63 time=0
EXTRACT: note_on channel=0 note=60 velocity=63 time=0
EXTRACT: note_on channel=0 note=53 velocity=63 time=0
EXTRACT: note_off channel=2 note=46 velocity=79 time=0
EXTRACT: note_on channel=2 note=48 velocity=54 time=0
EXTRACT: note_off channel=0 note=72 velocity=63 time=0.14423075
EXTRACT: note_off channel=0 note=68 velocity=63 time=0
EXTRACT: note_off channel=0 note=65 velocity=63 time=0
EXTRACT: note_off channel=0 note=60 velocity=63 time=0
EXTRACT: note_off channel=0 note=53 velocity=63 time=0
EXTRACT: note_on channel=0 note=64 velocity=63 time=0
EXTRACT: note_on channel=0 note=59 velocity=63 time=0
EXTRACT: note_on channel=0 note=55 velocity=63 time=0
EXTRACT: note_on channel=0 note=50 velocity=63 time=0
EXTRACT: note_on channel=0 note=45 velocity=63 time=0
EXTRACT: note_off channel=2 note=48 velocity=54 time=0
EXTRACT: note_on channel=2 note=51 velocity=79 time=0
EXTRACT: note_off channel=0 note=64 velocity=63 time=0.031249995833333332
EXTRACT: note_off channel=0 note=59 velocity=63 time=0
EXTRACT: note_off channel=0 note=55 velocity=63 time=0
EXTRACT: note_off channel=0 note=50 velocity=63 time=0
EXTRACT: note_off channel=0 note=45 velocity=63 time=0
EXTRACT: note_on channel=0 note=64 velocity=63 time=0.11298075416666667
EXTRACT: note_on channel=0 note=59 velocity=63 time=0
EXTRACT: note_on channel=0 note=55 velocity=63 time=0
EXTRACT: note_on channel=0 note=50 velocity=63 time=0
EXTRACT: note_on channel=0 note=45 velocity=63 time=0
EXTRACT: note_off channel=0 note=64 velocity=63 time=0.031249995833333332
EXTRACT: note_off channel=0 note=59 velocity=63 time=0
EXTRACT: note_off channel=0 note=55 velocity=63 time=0
EXTRACT: note_off channel=0 note=50 velocity=63 time=0
EXTRACT: note_off channel=0 note=45 velocity=63 time=0
EXTRACT: note_on channel=0 note=72 velocity=63 time=0.11298075416666667
EXTRACT: note_on channel=0 note=68 velocity=63 time=0
EXTRACT: note_on channel=0 note=65 velocity=63 time=0
EXTRACT: note_on channel=0 note=60 velocity=63 time=0
EXTRACT: note_on channel=0 note=53 velocity=63 time=0
EXTRACT: note_off channel=2 note=51 velocity=79 time=0
EXTRACT: note_on channel=2 note=46 velocity=79 time=0
EXTRACT: note_off channel=0 note=72 velocity=63 time=0.14423075
EXTRACT: note_off channel=0 note=68 velocity=63 time=0
EXTRACT: note_off channel=0 note=65 velocity=63 time=0
EXTRACT: note_off channel=0 note=60 velocity=63 time=0
EXTRACT: note_off channel=0 note=53 velocity=63 time=0
EXTRACT: note_on channel=0 note=72 velocity=63 time=0
EXTRACT: note_on channel=0 note=68 velocity=63 time=0
EXTRACT: note_on channel=0 note=65 velocity=63 time=0
EXTRACT: note_on channel=0 note=60 velocity=63 time=0
EXTRACT: note_on channel=0 note=53 velocity=63 time=0
EXTRACT: note_off channel=2 note=46 velocity=79 time=0
EXTRACT: note_on channel=2 note=48 velocity=54 time=0
EXTRACT: note_off channel=0 note=72 velocity=63 time=0.14423075
EXTRACT: note_off channel=0 note=68 velocity=63 time=0
EXTRACT: note_off channel=0 note=65 velocity=63 time=0
EXTRACT: note_off channel=0 note=60 velocity=63 time=0
EXTRACT: note_off channel=0 note=53 velocity=63 time=0
EXTRACT: note_on channel=0 note=64 velocity=63 time=0
EXTRACT: note_on channel=0 note=59 velocity=63 time=0
EXTRACT: note_on channel=0 note=55 velocity=63 time=0
EXTRACT: note_on channel=0 note=50 velocity=63 time=0
EXTRACT: note_on channel=0 note=45 velocity=63 time=0
EXTRACT: note_off channel=2 note=48 velocity=54 time=0
EXTRACT: note_on channel=2 note=51 velocity=79 time=0
EXTRACT: note_off channel=0 note=64 velocity=63 time=0.031249995833333332
EXTRACT: note_off channel=0 note=59 velocity=63 time=0
EXTRACT: note_off channel=0 note=55 velocity=63 time=0
EXTRACT: note_off channel=0 note=50 velocity=63 time=0
EXTRACT: note_off channel=0 note=45 velocity=63 time=0
EXTRACT: note_on channel=0 note=64 velocity=63 time=0.11298075416666667
EXTRACT: note_on channel=0 note=59 velocity=63 time=0
EXTRACT: note_on channel=0 note=55 velocity=63 time=0
EXTRACT: note_on channel=0 note=50 velocity=63 time=0
EXTRACT: note_on channel=0 note=45 velocity=63 time=0
EXTRACT: note_off channel=0 note=64 velocity=63 time=0.031249995833333332
EXTRACT: note_off channel=0 note=59 velocity=63 time=0
EXTRACT: note_off channel=0 note=55 velocity=63 time=0
EXTRACT: note_off channel=0 note=50 velocity=63 time=0
EXTRACT: note_off channel=0 note=45 velocity=63 time=0
EXTRACT: note_on channel=0 note=72 velocity=63 time=0.11298075416666667
EXTRACT: note_on channel=0 note=68 velocity=63 time=0
EXTRACT: note_on channel=0 note=65 velocity=63 time=0
EXTRACT: note_on channel=0 note=60 velocity=63 time=0
EXTRACT: note_on channel=0 note=53 velocity=63 time=0
EXTRACT: note_off channel=2 note=51 velocity=79 time=0
EXTRACT: note_off channel=0 note=72 velocity=63 time=0.14423075
EXTRACT: note_off channel=0 note=68 velocity=63 time=0
EXTRACT: note_off channel=0 note=65 velocity=63 time=0
EXTRACT: note_off channel=0 note=60 velocity=63 time=0
EXTRACT: note_off channel=0 note=53 velocity=63 time=0
EXTRACT: note_on channel=0 note=72 velocity=63 time=0
EXTRACT: note_on channel=0 note=68 velocity=63 time=0
EXTRACT: note_on channel=0 note=65 velocity=63 time=0
EXTRACT: note_on channel=0 note=60 velocity=63 time=0
EXTRACT: note_on channel=0 note=53 velocity=63 time=0
EXTRACT: note_on channel=2 note=45 velocity=79 time=0
EXTRACT: note_off channel=2 note=45 velocity=79 time=0.031249995833333332
EXTRACT: note_off channel=0 note=72 velocity=63 time=0.11298075416666667
EXTRACT: note_off channel=0 note=68 velocity=63 time=0
EXTRACT: note_off channel=0 note=65 velocity=63 time=0
EXTRACT: note_off channel=0 note=60 velocity=63 time=0
EXTRACT: note_off channel=0 note=53 velocity=63 time=0
EXTRACT: note_on channel=0 note=64 velocity=63 time=0
EXTRACT: note_on channel=0 note=59 velocity=63 time=0
EXTRACT: note_on channel=0 note=55 velocity=63 time=0
EXTRACT: note_on channel=0 note=50 velocity=63 time=0
EXTRACT: note_on channel=0 note=45 velocity=63 time=0
EXTRACT: note_on channel=2 note=46 velocity=79 time=0
EXTRACT: note_off channel=0 note=64 velocity=63 time=0.031249995833333332
EXTRACT: note_off channel=0 note=59 velocity=63 time=0
EXTRACT: note_off channel=0 note=55 velocity=63 time=0
EXTRACT: note_off channel=0 note=50 velocity=63 time=0
EXTRACT: note_off channel=0 note=45 velocity=63 time=0
EXTRACT: note_on channel=0 note=64 velocity=63 time=0.11298075416666667
EXTRACT: note_on channel=0 note=59 velocity=63 time=0
EXTRACT: note_on channel=0 note=55 velocity=63 time=0
EXTRACT: note_on channel=0 note=50 velocity=63 time=0
EXTRACT: note_on channel=0 note=45 velocity=63 time=0
EXTRACT: note_off channel=0 note=64 velocity=63 time=0.031249995833333332
EXTRACT: note_off channel=0 note=59 velocity=63 time=0
EXTRACT: note_off channel=0 note=55 velocity=63 time=0
EXTRACT: note_off channel=0 note=50 velocity=63 time=0
EXTRACT: note_off channel=0 note=45 velocity=63 time=0
EXTRACT: note_on channel=0 note=72 velocity=63 time=0.11298075416666667
EXTRACT: note_on channel=0 note=68 velocity=63 time=0
EXTRACT: note_on channel=0 note=65 velocity=63 time=0
EXTRACT: note_on channel=0 note=60 velocity=63 time=0
EXTRACT: note_on channel=0 note=53 velocity=63 time=0
EXTRACT: note_off channel=2 note=46 velocity=79 time=0
EXTRACT: note_on channel=2 note=48 velocity=79 time=0
EXTRACT: note_off channel=0 note=72 velocity=63 time=0.14423075
EXTRACT: note_off channel=0 note=68 velocity=63 time=0
EXTRACT: note_off channel=0 note=65 velocity=63 time=0
EXTRACT: note_off channel=0 note=60 velocity=63 time=0
EXTRACT: note_off channel=0 note=53 velocity=63 time=0
EXTRACT: note_on channel=0 note=72 velocity=63 time=0
EXTRACT: note_on channel=0 note=68 velocity=63 time=0
EXTRACT: note_on channel=0 note=65 velocity=63 time=0
EXTRACT: note_on channel=0 note=60 velocity=63 time=0
EXTRACT: note_on channel=0 note=53 velocity=63 time=0
EXTRACT: note_off channel=0 note=72 velocity=63 time=0.14423075
EXTRACT: note_off channel=0 note=68 velocity=63 time=0
EXTRACT: note_off channel=0 note=65 velocity=63 time=0
EXTRACT: note_off channel=0 note=60 velocity=63 time=0
EXTRACT: note_off channel=0 note=53 velocity=63 time=0
EXTRACT: note_on channel=0 note=64 velocity=63 time=0
EXTRACT: note_on channel=0 note=59 velocity=63 time=0
EXTRACT: note_on channel=0 note=55 velocity=63 time=0
EXTRACT: note_on channel=0 note=50 velocity=63 time=0
EXTRACT: note_on channel=0 note=45 velocity=63 time=0
EXTRACT: note_off channel=2 note=48 velocity=79 time=0
EXTRACT: note_on channel=2 note=51 velocity=79 time=0
EXTRACT: note_off channel=0 note=64 velocity=63 time=0.031249995833333332
EXTRACT: note_off channel=0 note=59 velocity=63 time=0
EXTRACT: note_off channel=0 note=55 velocity=63 time=0
EXTRACT: note_off channel=0 note=50 velocity=63 time=0
EXTRACT: note_off channel=0 note=45 velocity=63 time=0
EXTRACT: note_on channel=0 note=64 velocity=63 time=0.11298075416666667
EXTRACT: note_on channel=0 note=59 velocity=63 time=0
EXTRACT: note_on channel=0 note=55 velocity=63 time=0
EXTRACT: note_on channel=0 note=50 velocity=63 time=0
EXTRACT: note_on channel=0 note=45 velocity=63 time=0
EXTRACT: note_off channel=0 note=64 velocity=63 time=0.031249995833333332
EXTRACT: note_off channel=0 note=59 velocity=63 time=0
EXTRACT: note_off channel=0 note=55 velocity=63 time=0
EXTRACT: note_off channel=0 note=50 velocity=63 time=0
EXTRACT: note_off channel=0 note=45 velocity=63 time=0
EXTRACT: note_on channel=0 note=72 velocity=63 time=0.11298075416666667
EXTRACT: note_on channel=0 note=68 velocity=63 time=0
EXTRACT: note_on channel=0 note=65 velocity=63 time=0
EXTRACT: note_on channel=0 note=60 velocity=63 time=0
EXTRACT: note_on channel=0 note=53 velocity=63 time=0
EXTRACT: note_off channel=2 note=51 velocity=79 time=0
EXTRACT: note_on channel=2 note=53 velocity=79 time=0
EXTRACT: note_off channel=0 note=72 velocity=63 time=0.14423075
EXTRACT: note_off channel=0 note=68 velocity=63 time=0
EXTRACT: note_off channel=0 note=65 velocity=63 time=0
EXTRACT: note_off channel=0 note=60 velocity=63 time=0
EXTRACT: note_off channel=0 note=53 velocity=63 time=0
EXTRACT: note_on channel=0 note=72 velocity=63 time=0
EXTRACT: note_on channel=0 note=68 velocity=63 time=0
EXTRACT: note_on channel=0 note=65 velocity=63 time=0
EXTRACT: note_on channel=0 note=60 velocity=63 time=0
EXTRACT: note_on channel=0 note=53 velocity=63 time=0
EXTRACT: note_off channel=0 note=72 velocity=63 time=0.14423075
EXTRACT: note_off channel=0 note=68 velocity=63 time=0
EXTRACT: note_off channel=0 note=65 velocity=63 time=0
EXTRACT: note_off channel=0 note=60 velocity=63 time=0
EXTRACT: note_off channel=0 note=53 velocity=63 time=0
EXTRACT: note_on channel=0 note=64 velocity=63 time=0
EXTRACT: note_on channel=0 note=59 velocity=63 time=0
EXTRACT: note_on channel=0 note=55 velocity=63 time=0
EXTRACT: note_on channel=0 note=50 velocity=63 time=0
EXTRACT: note_on channel=0 note=45 velocity=63 time=0
EXTRACT: note_off channel=2 note=53 velocity=79 time=0
EXTRACT: note_on channel=2 note=56 velocity=79 time=0
EXTRACT: note_off channel=0 note=64 velocity=63 time=0.031249995833333332
EXTRACT: note_off channel=0 note=59 velocity=63 time=0
EXTRACT: note_off channel=0 note=55 velocity=63 time=0
EXTRACT: note_off channel=0 note=50 velocity=63 time=0
EXTRACT: note_off channel=0 note=45 velocity=63 time=0
EXTRACT: note_on channel=0 note=64 velocity=63 time=0.11298075416666667
EXTRACT: note_on channel=0 note=59 velocity=63 time=0
EXTRACT: note_on channel=0 note=55 velocity=63 time=0
EXTRACT: note_on channel=0 note=50 velocity=63 time=0
EXTRACT: note_on channel=0 note=45 velocity=63 time=0
EXTRACT: note_off channel=0 note=64 velocity=63 time=0.031249995833333332
EXTRACT: note_off channel=0 note=59 velocity=63 time=0
EXTRACT: note_off channel=0 note=55 velocity=63 time=0
EXTRACT: note_off channel=0 note=50 velocity=63 time=0
EXTRACT: note_off channel=0 note=45 velocity=63 time=0
EXTRACT: note_on channel=0 note=70 velocity=63 time=0.11298075416666667
EXTRACT: note_on channel=0 note=65 velocity=63 time=0
EXTRACT: note_on channel=0 note=62 velocity=63 time=0
EXTRACT: note_on channel=0 note=58 velocity=63 time=0
EXTRACT: note_on channel=0 note=53 velocity=63 time=0
EXTRACT: note_on channel=0 note=46 velocity=63 time=0
EXTRACT: note_off channel=2 note=56 velocity=79 time=0
EXTRACT: note_on channel=2 note=53 velocity=79 time=0
EXTRACT: note_off channel=0 note=70 velocity=63 time=0.14423075
EXTRACT: note_off channel=0 note=65 velocity=63 time=0
EXTRACT: note_off channel=0 note=62 velocity=63 time=0
EXTRACT: note_off channel=0 note=58 velocity=63 time=0
EXTRACT: note_off channel=0 note=53 velocity=63 time=0
EXTRACT: note_off channel=0 note=46 velocity=63 time=0
EXTRACT: note_on channel=0 note=70 velocity=63 time=0
EXTRACT: note_on channel=0 note=65 velocity=63 time=0
EXTRACT: note_on channel=0 note=62 velocity=63 time=0
EXTRACT: note_on channel=0 note=58 velocity=63 time=0
EXTRACT: note_on channel=0 note=53 velocity=63 time=0
EXTRACT: note_on channel=0 note=46 velocity=63 time=0
EXTRACT: note_off channel=2 note=53 velocity=79 time=0
EXTRACT: note_off channel=0 note=70 velocity=63 time=0.14423075
EXTRACT: note_off channel=0 note=65 velocity=63 time=0
EXTRACT: note_off channel=0 note=62 velocity=63 time=0
EXTRACT: note_off channel=0 note=58 velocity=63 time=0
EXTRACT: note_off channel=0 note=53 velocity=63 time=0
EXTRACT: note_off channel=0 note=46 velocity=63 time=0
EXTRACT: note_on channel=0 note=64 velocity=63 time=0
EXTRACT: note_on channel=0 note=59 velocity=63 time=0
EXTRACT: note_on channel=0 note=55 velocity=63 time=0
EXTRACT: note_on channel=0 note=50 velocity=63 time=0
EXTRACT: note_on channel=0 note=45 velocity=63 time=0
EXTRACT: note_on channel=0 note=40 velocity=63 time=0
EXTRACT: note_on channel=2 note=58 velocity=79 time=0
EXTRACT: note_on channel=4 note=58 velocity=95 time=0
EXTRACT: note_off channel=0 note=64 velocity=63 time=0.031249995833333332
EXTRACT: note_off channel=0 note=59 velocity=63 time=0
EXTRACT: note_off channel=0 note=55 velocity=63 time=0
EXTRACT: note_off channel=0 note=50 velocity=63 time=0
EXTRACT: note_off channel=0 note=45 velocity=63 time=0
EXTRACT: note_off channel=0 note=40 velocity=63 time=0
EXTRACT: note_on channel=0 note=64 velocity=63 time=0.11298075416666667
EXTRACT: note_on channel=0 note=59 velocity=63 time=0
EXTRACT: note_on channel=0 note=55 velocity=63 time=0
EXTRACT: note_on channel=0 note=50 velocity=63 time=0
EXTRACT: note_on channel=0 note=45 velocity=63 time=0
EXTRACT: note_on channel=0 note=40 velocity=63 time=0
EXTRACT: note_off channel=2 note=58 velocity=79 time=0
EXTRACT: note_off channel=0 note=64 velocity=63 time=0.031249995833333332
EXTRACT: note_off channel=0 note=59 velocity=63 time=0
EXTRACT: note_off channel=0 note=55 velocity=63 time=0
EXTRACT: note_off channel=0 note=50 velocity=63 time=0
EXTRACT: note_off channel=0 note=45 velocity=63 time=0
EXTRACT: note_off channel=0 note=40 velocity=63 time=0
EXTRACT: note_on channel=0 note=70 velocity=63 time=0.11298075416666667
EXTRACT: note_on channel=0 note=65 velocity=63 time=0
EXTRACT: note_on channel=0 note=62 velocity=63 time=0
EXTRACT: note_on channel=0 note=58 velocity=63 time=0
EXTRACT: note_on channel=0 note=53 velocity=63 time=0
EXTRACT: note_on channel=0 note=46 velocity=63 time=0
EXTRACT: note_on channel=2 note=70 velocity=79 time=0
EXTRACT: note_on channel=2 note=65 velocity=79 time=0
EXTRACT: note_on channel=2 note=62 velocity=79 time=0
EXTRACT: note_off channel=4 note=58 velocity=95 time=0
EXTRACT: note_on channel=4 note=58 velocity=95 time=0
EXTRACT: note_off channel=0 note=70 velocity=63 time=0.14423075
EXTRACT: note_off channel=0 note=65 velocity=63 time=0
EXTRACT: note_off channel=0 note=62 velocity=63 time=0
EXTRACT: note_off channel=0 note=58 velocity=63 time=0
EXTRACT: note_off channel=0 note=53 velocity=63 time=0
EXTRACT: note_off channel=0 note=46 velocity=63 time=0
EXTRACT: note_on channel=0 note=70 velocity=63 time=0
EXTRACT: note_on channel=0 note=65 velocity=63 time=0
EXTRACT: note_on channel=0 note=62 velocity=63 time=0
EXTRACT: note_on channel=0 note=58 velocity=63 time=0
EXTRACT: note_on channel=0 note=53 velocity=63 time=0
EXTRACT: note_on channel=0 note=46 velocity=63 time=0
EXTRACT: note_off channel=2 note=70 velocity=79 time=0
EXTRACT: note_off channel=2 note=65 velocity=79 time=0
EXTRACT: note_off channel=2 note=62 velocity=79 time=0
EXTRACT: note_off channel=0 note=70 velocity=63 time=0.14423075
EXTRACT: note_off channel=0 note=65 velocity=63 time=0
EXTRACT: note_off channel=0 note=62 velocity=63 time=0
EXTRACT: note_off channel=0 note=58 velocity=63 time=0
EXTRACT: note_off channel=0 note=53 velocity=63 time=0
EXTRACT: note_off channel=0 note=46 velocity=63 time=0
EXTRACT: note_on channel=0 note=64 velocity=63 time=0
EXTRACT: note_on channel=0 note=59 velocity=63 time=0
EXTRACT: note_on channel=0 note=55 velocity=63 time=0
EXTRACT: note_on channel=0 note=50 velocity=63 time=0
EXTRACT: note_on channel=0 note=45 velocity=63 time=0
EXTRACT: note_on channel=0 note=40 velocity=63 time=0
EXTRACT: note_off channel=4 note=58 velocity=95 time=0
EXTRACT: note_on channel=4 note=56 velocity=95 time=0
EXTRACT: note_off channel=0 note=64 velocity=63 time=0.031249995833333332
EXTRACT: note_off channel=0 note=59 velocity=63 time=0
EXTRACT: note_off channel=0 note=55 velocity=63 time=0
EXTRACT: note_off channel=0 note=50 velocity=63 time=0
EXTRACT: note_off channel=0 note=45 velocity=63 time=0
EXTRACT: note_off channel=0 note=40 velocity=63 time=0
EXTRACT: note_on channel=0 note=64 velocity=63 time=0.11298075416666667
EXTRACT: note_on channel=0 note=59 velocity=63 time=0
EXTRACT: note_on channel=0 note=55 velocity=63 time=0
EXTRACT: note_on channel=0 note=50 velocity=63 time=0
EXTRACT: note_on channel=0 note=45 velocity=63 time=0
EXTRACT: note_on channel=0 note=40 velocity=63 time=0
EXTRACT: note_off channel=0 note=64 velocity=63 time=0.031249995833333332
EXTRACT: note_off channel=0 note=59 velocity=63 time=0
EXTRACT: note_off channel=0 note=55 velocity=63 time=0
EXTRACT: note_off channel=0 note=50 velocity=63 time=0
EXTRACT: note_off channel=0 note=45 velocity=63 time=0
EXTRACT: note_off channel=0 note=40 velocity=63 time=0
EXTRACT: note_on channel=5 note=60 velocity=95 time=0.04086537916666667
EXTRACT: note_on channel=0 note=70 velocity=63 time=0.072115375
EXTRACT: note_on channel=0 note=65 velocity=63 time=0
EXTRACT: note_on channel=0 note=62 velocity=63 time=0
EXTRACT: note_on channel=0 note=58 velocity=63 time=0
EXTRACT: note_on channel=0 note=53 velocity=63 time=0
EXTRACT: note_on channel=0 note=46 velocity=63 time=0
EXTRACT: note_off channel=4 note=56 velocity=95 time=0
EXTRACT: note_off channel=5 note=60 velocity=95 time=0
EXTRACT: note_on channel=5 note=60 velocity=95 time=0
EXTRACT: note_off channel=0 note=70 velocity=63 time=0.14423075
EXTRACT: note_off channel=0 note=65 velocity=63 time=0
EXTRACT: note_off channel=0 note=62 velocity=63 time=0
EXTRACT: note_off channel=0 note=58 velocity=63 time=0
EXTRACT: note_off channel=0 note=53 velocity=63 time=0
EXTRACT: note_off channel=0 note=46 velocity=63 time=0
EXTRACT: note_on channel=0 note=70 velocity=63 time=0
EXTRACT: note_on channel=0 note=65 velocity=63 time=0
EXTRACT: note_on channel=0 note=62 velocity=63 time=0
EXTRACT: note_on channel=0 note=58 velocity=63 time=0
EXTRACT: note_on channel=0 note=53 velocity=63 time=0
EXTRACT: note_on channel=0 note=46 velocity=63 time=0
EXTRACT: note_on channel=2 note=56 velocity=79 time=0
EXTRACT: note_off channel=0 note=70 velocity=63 time=0.14423075
EXTRACT: note_off channel=0 note=65 velocity=63 time=0
EXTRACT: note_off channel=0 note=62 velocity=63 time=0
EXTRACT: note_off channel=0 note=58 velocity=63 time=0
EXTRACT: note_off channel=0 note=53 velocity=63 time=0
EXTRACT: note_off channel=0 note=46 velocity=63 time=0
EXTRACT: note_on channel=0 note=64 velocity=63 time=0
EXTRACT: note_on channel=0 note=59 velocity=63 time=0
EXTRACT: note_on channel=0 note=55 velocity=63 time=0
EXTRACT: note_on channel=0 note=50 velocity=63 time=0
EXTRACT: note_on channel=0 note=45 velocity=63 time=0
EXTRACT: note_on channel=0 note=40 velocity=63 time=0
EXTRACT: note_off channel=2 note=56 velocity=79 time=0
EXTRACT: note_off channel=0 note=64 velocity=63 time=0.031249995833333332
EXTRACT: note_off channel=0 note=59 velocity=63 time=0
EXTRACT: note_off channel=0 note=55 velocity=63 time=0
EXTRACT: note_off channel=0 note=50 velocity=63 time=0
EXTRACT: note_off channel=0 note=45 velocity=63 time=0
EXTRACT: note_off channel=0 note=40 velocity=63 time=0
EXTRACT: note_on channel=0 note=64 velocity=63 time=0.11298075416666667
EXTRACT: note_on channel=0 note=59 velocity=63 time=0
EXTRACT: note_on channel=0 note=55 velocity=63 time=0
EXTRACT: note_on channel=0 note=50 velocity=63 time=0
EXTRACT: note_on channel=0 note=45 velocity=63 time=0
EXTRACT: note_on channel=0 note=40 velocity=63 time=0
EXTRACT: note_on channel=2 note=50 velocity=79 time=0
EXTRACT: note_off channel=5 note=60 velocity=95 time=0
EXTRACT: note_on channel=4 note=58 velocity=95 time=0
EXTRACT: note_off channel=0 note=64 velocity=63 time=0.031249995833333332
EXTRACT: note_off channel=0 note=59 velocity=63 time=0
EXTRACT: note_off channel=0 note=55 velocity=63 time=0
EXTRACT: note_off channel=0 note=50 velocity=63 time=0
EXTRACT: note_off channel=0 note=45 velocity=63 time=0
EXTRACT: note_off channel=0 note=40 velocity=63 time=0
EXTRACT: note_on channel=0 note=70 velocity=63 time=0.11298075416666667
EXTRACT: note_on channel=0 note=65 velocity=63 time=0
EXTRACT: note_on channel=0 note=62 velocity=63 time=0
EXTRACT: note_on channel=0 note=58 velocity=63 time=0
EXTRACT: note_on channel=0 note=53 velocity=63 time=0
EXTRACT: note_on channel=0 note=46 velocity=63 time=0
EXTRACT: note_off channel=2 note=50 velocity=79 time=0
EXTRACT: note_on channel=2 note=56 velocity=79 time=0
EXTRACT: note_off channel=0 note=70 velocity=63 time=0.14423075
EXTRACT: note_off channel=0 note=65 velocity=63 time=0
EXTRACT: note_off channel=0 note=62 velocity=63 time=0
EXTRACT: note_off channel=0 note=58 velocity=63 time=0
EXTRACT: note_off channel=0 note=53 velocity=63 time=0
EXTRACT: note_off channel=0 note=46 velocity=63 time=0
EXTRACT: note_on channel=0 note=70 velocity=63 time=0
EXTRACT: note_on channel=0 note=65 velocity=63 time=0
EXTRACT: note_on channel=0 note=62 velocity=63 time=0
EXTRACT: note_on channel=0 note=58 velocity=63 time=0
EXTRACT: note_on channel=0 note=53 velocity=63 time=0
EXTRACT: note_on channel=0 note=46 velocity=63 time=0
EXTRACT: note_off channel=4 note=58 velocity=95 time=0
EXTRACT: note_on channel=4 note=56 velocity=95 time=0
EXTRACT: note_off channel=0 note=70 velocity=63 time=0.14423075
EXTRACT: note_off channel=0 note=65 velocity=63 time=0
EXTRACT: note_off channel=0 note=62 velocity=63 time=0
EXTRACT: note_off channel=0 note=58 velocity=63 time=0
EXTRACT: note_off channel=0 note=53 velocity=63 time=0
EXTRACT: note_off channel=0 note=46 velocity=63 time=0
EXTRACT: note_on channel=0 note=64 velocity=63 time=0
EXTRACT: note_on channel=0 note=59 velocity=63 time=0
EXTRACT: note_on channel=0 note=55 velocity=63 time=0
EXTRACT: note_on channel=0 note=50 velocity=63 time=0
EXTRACT: note_on channel=0 note=45 velocity=63 time=0
EXTRACT: note_on channel=0 note=40 velocity=63 time=0
EXTRACT: note_off channel=2 note=56 velocity=79 time=0
EXTRACT: note_on channel=2 note=70 velocity=79 time=0
EXTRACT: note_on channel=2 note=65 velocity=79 time=0
EXTRACT: note_on channel=2 note=62 velocity=79 time=0
EXTRACT: note_off channel=4 note=56 velocity=95 time=0
EXTRACT: note_on channel=4 note=53 velocity=95 time=0
EXTRACT: note_off channel=0 note=64 velocity=63 time=0.031249995833333332
EXTRACT: note_off channel=0 note=59 velocity=63 time=0
EXTRACT: note_off channel=0 note=55 velocity=63 time=0
EXTRACT: note_off channel=0 note=50 velocity=63 time=0
EXTRACT: note_off channel=0 note=45 velocity=63 time=0
EXTRACT: note_off channel=0 note=40 velocity=63 time=0
EXTRACT: note_on channel=0 note=64 velocity=63 time=0.11298075416666667
EXTRACT: note_on channel=0 note=59 velocity=63 time=0
EXTRACT: note_on channel=0 note=55 velocity=63 time=0
EXTRACT: note_on channel=0 note=50 velocity=63 time=0
EXTRACT: note_on channel=0 note=45 velocity=63 time=0
EXTRACT: note_on channel=0 note=40 velocity=63 time=0
EXTRACT: note_off channel=2 note=70 velocity=79 time=0
EXTRACT: note_off channel=2 note=65 velocity=79 time=0
EXTRACT: note_off channel=2 note=62 velocity=79 time=0
EXTRACT: note_off channel=4 note=53 velocity=95 time=0
EXTRACT: note_off channel=0 note=64 velocity=63 time=0.031249995833333332
EXTRACT: note_off channel=0 note=59 velocity=63 time=0
EXTRACT: note_off channel=0 note=55 velocity=63 time=0
EXTRACT: note_off channel=0 note=50 velocity=63 time=0
EXTRACT: note_off channel=0 note=45 velocity=63 time=0
EXTRACT: note_off channel=0 note=40 velocity=63 time=0
EXTRACT: note_on channel=0 note=70 velocity=63 time=0.11298075416666667
EXTRACT: note_on channel=0 note=65 velocity=63 time=0
EXTRACT: note_on channel=0 note=62 velocity=63 time=0
EXTRACT: note_on channel=0 note=58 velocity=63 time=0
EXTRACT: note_on channel=0 note=53 velocity=63 time=0
EXTRACT: note_on channel=0 note=46 velocity=63 time=0
EXTRACT: note_on channel=2 note=53 velocity=79 time=0
EXTRACT: note_off channel=0 note=70 velocity=63 time=0.14423075
EXTRACT: note_off channel=0 note=65 velocity=63 time=0
EXTRACT: note_off channel=0 note=62 velocity=63 time=0
EXTRACT: note_off channel=0 note=58 velocity=63 time=0
EXTRACT: note_off channel=0 note=53 velocity=63 time=0
EXTRACT: note_off channel=0 note=46 velocity=63 time=0
EXTRACT: note_on channel=0 note=70 velocity=63 time=0
EXTRACT: note_on channel=0 note=65 velocity=63 time=0
EXTRACT: note_on channel=0 note=62 velocity=63 time=0
EXTRACT: note_on channel=0 note=58 velocity=63 time=0
EXTRACT: note_on channel=0 note=53 velocity=63 time=0
EXTRACT: note_on channel=0 note=46 velocity=63 time=0
EXTRACT: note_off channel=2 note=53 velocity=79 time=0
EXTRACT: note_off channel=0 note=70 velocity=63 time=0.14423075
EXTRACT: note_off channel=0 note=65 velocity=63 time=0
EXTRACT: note_off channel=0 note=62 velocity=63 time=0
EXTRACT: note_off channel=0 note=58 velocity=63 time=0
EXTRACT: note_off channel=0 note=53 velocity=63 time=0
EXTRACT: note_off channel=0 note=46 velocity=63 time=0
EXTRACT: note_on channel=0 note=64 velocity=63 time=0
EXTRACT: note_on channel=0 note=59 velocity=63 time=0
EXTRACT: note_on channel=0 note=55 velocity=63 time=0
EXTRACT: note_on channel=0 note=50 velocity=63 time=0
EXTRACT: note_on channel=0 note=45 velocity=63 time=0
EXTRACT: note_on channel=0 note=40 velocity=63 time=0
EXTRACT: note_on channel=2 note=58 velocity=79 time=0
EXTRACT: note_off channel=0 note=64 velocity=63 time=0.031249995833333332
EXTRACT: note_off channel=0 note=59 velocity=63 time=0
EXTRACT: note_off channel=0 note=55 velocity=63 time=0
EXTRACT: note_off channel=0 note=50 velocity=63 time=0
EXTRACT: note_off channel=0 note=45 velocity=63 time=0
EXTRACT: note_off channel=0 note=40 velocity=63 time=0
EXTRACT: note_on channel=0 note=64 velocity=63 time=0.11298075416666667
EXTRACT: note_on channel=0 note=59 velocity=63 time=0
EXTRACT: note_on channel=0 note=55 velocity=63 time=0
EXTRACT: note_on channel=0 note=50 velocity=63 time=0
EXTRACT: note_on channel=0 note=45 velocity=63 time=0
EXTRACT: note_on channel=0 note=40 velocity=63 time=0
EXTRACT: note_off channel=2 note=58 velocity=79 time=0
EXTRACT: note_off channel=0 note=64 velocity=63 time=0.031249995833333332
EXTRACT: note_off channel=0 note=59 velocity=63 time=0
EXTRACT: note_off channel=0 note=55 velocity=63 time=0
EXTRACT: note_off channel=0 note=50 velocity=63 time=0
EXTRACT: note_off channel=0 note=45 velocity=63 time=0
EXTRACT: note_off channel=0 note=40 velocity=63 time=0
EXTRACT: note_on channel=0 note=70 velocity=63 time=0.11298075416666667
EXTRACT: note_on channel=0 note=65 velocity=63 time=0
EXTRACT: note_on channel=0 note=62 velocity=63 time=0
EXTRACT: note_on channel=0 note=58 velocity=63 time=0
EXTRACT: note_on channel=0 note=53 velocity=63 time=0
EXTRACT: note_on channel=0 note=46 velocity=63 time=0
EXTRACT: note_on channel=2 note=70 velocity=79 time=0
EXTRACT: note_on channel=2 note=65 velocity=79 time=0
EXTRACT: note_on channel=2 note=62 velocity=79 time=0
EXTRACT: note_off channel=0 note=70 velocity=63 time=0.14423075
EXTRACT: note_off channel=0 note=65 velocity=63 time=0
EXTRACT: note_off channel=0 note=62 velocity=63 time=0
EXTRACT: note_off channel=0 note=58 velocity=63 time=0
EXTRACT: note_off channel=0 note=53 velocity=63 time=0
EXTRACT: note_off channel=0 note=46 velocity=63 time=0
EXTRACT: note_on channel=0 note=70 velocity=63 time=0
EXTRACT: note_on channel=0 note=65 velocity=63 time=0
EXTRACT: note_on channel=0 note=62 velocity=63 time=0
EXTRACT: note_on channel=0 note=58 velocity=63 time=0
EXTRACT: note_on channel=0 note=53 velocity=63 time=0
EXTRACT: note_on channel=0 note=46 velocity=63 time=0
EXTRACT: note_off channel=2 note=70 velocity=79 time=0
EXTRACT: note_off channel=2 note=65 velocity=79 time=0
EXTRACT: note_off channel=2 note=62 velocity=79 time=0
EXTRACT: note_off channel=0 note=70 velocity=63 time=0.14423075
EXTRACT: note_off channel=0 note=65 velocity=63 time=0
EXTRACT: note_off channel=0 note=62 velocity=63 time=0
EXTRACT: note_off channel=0 note=58 velocity=63 time=0
EXTRACT: note_off channel=0 note=53 velocity=63 time=0
EXTRACT: note_off channel=0 note=46 velocity=63 time=0
EXTRACT: note_on channel=0 note=64 velocity=63 time=0
EXTRACT: note_on channel=0 note=59 velocity=63 time=0
EXTRACT: note_on channel=0 note=55 velocity=63 time=0
EXTRACT: note_on channel=0 note=50 velocity=63 time=0
EXTRACT: note_on channel=0 note=45 velocity=63 time=0
EXTRACT: note_on channel=0 note=40 velocity=63 time=0
EXTRACT: note_on channel=4 note=58 velocity=95 time=0
EXTRACT: note_off channel=0 note=64 velocity=63 time=0.031249995833333332
EXTRACT: note_off channel=0 note=59 velocity=63 time=0
EXTRACT: note_off channel=0 note=55 velocity=63 time=0
EXTRACT: note_off channel=0 note=50 velocity=63 time=0
EXTRACT: note_off channel=0 note=45 velocity=63 time=0
EXTRACT: note_off channel=0 note=40 velocity=63 time=0
EXTRACT: note_on channel=0 note=64 velocity=63 time=0.11298075416666667
EXTRACT: note_on channel=0 note=59 velocity=63 time=0
EXTRACT: note_on channel=0 note=55 velocity=63 time=0
EXTRACT: note_on channel=0 note=50 velocity=63 time=0
EXTRACT: note_on channel=0 note=45 velocity=63 time=0
EXTRACT: note_on channel=0 note=40 velocity=63 time=0
EXTRACT: note_off channel=4 note=58 velocity=95 time=0
EXTRACT: note_on channel=4 note=56 velocity=95 time=0
EXTRACT: note_off channel=0 note=64 velocity=63 time=0.031249995833333332
EXTRACT: note_off channel=0 note=59 velocity=63 time=0
EXTRACT: note_off channel=0 note=55 velocity=63 time=0
EXTRACT: note_off channel=0 note=50 velocity=63 time=0
EXTRACT: note_off channel=0 note=45 velocity=63 time=0
EXTRACT: note_off channel=0 note=40 velocity=63 time=0
EXTRACT: note_on channel=0 note=70 velocity=63 time=0.11298075416666667
EXTRACT: note_on channel=0 note=65 velocity=63 time=0
EXTRACT: note_on channel=0 note=62 velocity=63 time=0
EXTRACT: note_on channel=0 note=58 velocity=63 time=0
EXTRACT: note_on channel=0 note=53 velocity=63 time=0
EXTRACT: note_on channel=0 note=46 velocity=63 time=0
EXTRACT: note_off channel=4 note=56 velocity=95 time=0
EXTRACT: note_on channel=4 note=58 velocity=95 time=0
EXTRACT: note_off channel=0 note=70 velocity=63 time=0.14423075
EXTRACT: note_off channel=0 note=65 velocity=63 time=0
EXTRACT: note_off channel=0 note=62 velocity=63 time=0
EXTRACT: note_off channel=0 note=58 velocity=63 time=0
EXTRACT: note_off channel=0 note=53 velocity=63 time=0
EXTRACT: note_off channel=0 note=46 velocity=63 time=0
EXTRACT: note_on channel=0 note=70 velocity=63 time=0
EXTRACT: note_on channel=0 note=65 velocity=63 time=0
EXTRACT: note_on channel=0 note=62 velocity=63 time=0
EXTRACT: note_on channel=0 note=58 velocity=63 time=0
EXTRACT: note_on channel=0 note=53 velocity=63 time=0
EXTRACT: note_on channel=0 note=46 velocity=63 time=0
EXTRACT: note_on channel=2 note=56 velocity=79 time=0
EXTRACT: note_off channel=0 note=70 velocity=63 time=0.14423075
EXTRACT: note_off channel=0 note=65 velocity=63 time=0
EXTRACT: note_off channel=0 note=62 velocity=63 time=0
EXTRACT: note_off channel=0 note=58 velocity=63 time=0
EXTRACT: note_off channel=0 note=53 velocity=63 time=0
EXTRACT: note_off channel=0 note=46 velocity=63 time=0
EXTRACT: note_on channel=0 note=64 velocity=63 time=0
EXTRACT: note_on channel=0 note=59 velocity=63 time=0
EXTRACT: note_on channel=0 note=55 velocity=63 time=0
EXTRACT: note_on channel=0 note=50 velocity=63 time=0
EXTRACT: note_on channel=0 note=45 velocity=63 time=0
EXTRACT: note_on channel=0 note=40 velocity=63 time=0
EXTRACT: note_off channel=2 note=56 velocity=79 time=0
EXTRACT: note_off channel=4 note=58 velocity=95 time=0
EXTRACT: note_on channel=4 note=56 velocity=95 time=0
EXTRACT: note_off channel=0 note=64 velocity=63 time=0.031249995833333332
EXTRACT: note_off channel=0 note=59 velocity=63 time=0
EXTRACT: note_off channel=0 note=55 velocity=63 time=0
EXTRACT: note_off channel=0 note=50 velocity=63 time=0
EXTRACT: note_off channel=0 note=45 velocity=63 time=0
EXTRACT: note_off channel=0 note=40 velocity=63 time=0
EXTRACT: note_on channel=0 note=64 velocity=63 time=0.11298075416666667
EXTRACT: note_on channel=0 note=59 velocity=63 time=0
EXTRACT: note_on channel=0 note=55 velocity=63 time=0
EXTRACT: note_on channel=0 note=50 velocity=63 time=0
EXTRACT: note_on channel=0 note=45 velocity=63 time=0
EXTRACT: note_on channel=0 note=40 velocity=63 time=0
EXTRACT: note_on channel=2 note=50 velocity=79 time=0
EXTRACT: note_off channel=4 note=56 velocity=95 time=0
EXTRACT: note_on channel=4 note=58 velocity=95 time=0
EXTRACT: note_off channel=0 note=64 velocity=63 time=0.031249995833333332
EXTRACT: note_off channel=0 note=59 velocity=63 time=0
EXTRACT: note_off channel=0 note=55 velocity=63 time=0
EXTRACT: note_off channel=0 note=50 velocity=63 time=0
EXTRACT: note_off channel=0 note=45 velocity=63 time=0
EXTRACT: note_off channel=0 note=40 velocity=63 time=0
EXTRACT: note_on channel=0 note=70 velocity=63 time=0.11298075416666667
EXTRACT: note_on channel=0 note=65 velocity=63 time=0
EXTRACT: note_on channel=0 note=62 velocity=63 time=0
EXTRACT: note_on channel=0 note=58 velocity=63 time=0
EXTRACT: note_on channel=0 note=53 velocity=63 time=0
EXTRACT: note_on channel=0 note=46 velocity=63 time=0
EXTRACT: note_off channel=2 note=50 velocity=79 time=0
EXTRACT: note_on channel=2 note=56 velocity=79 time=0
EXTRACT: note_off channel=0 note=70 velocity=63 time=0.14423075
EXTRACT: note_off channel=0 note=65 velocity=63 time=0
EXTRACT: note_off channel=0 note=62 velocity=63 time=0
EXTRACT: note_off channel=0 note=58 velocity=63 time=0
EXTRACT: note_off channel=0 note=53 velocity=63 time=0
EXTRACT: note_off channel=0 note=46 velocity=63 time=0
EXTRACT: note_on channel=0 note=70 velocity=63 time=0
EXTRACT: note_on channel=0 note=65 velocity=63 time=0
EXTRACT: note_on channel=0 note=62 velocity=63 time=0
EXTRACT: note_on channel=0 note=58 velocity=63 time=0
EXTRACT: note_on channel=0 note=53 velocity=63 time=0
EXTRACT: note_on channel=0 note=46 velocity=63 time=0
EXTRACT: note_off channel=4 note=58 velocity=95 time=0
EXTRACT: note_on channel=4 note=56 velocity=95 time=0
EXTRACT: note_off channel=0 note=70 velocity=63 time=0.14423075
EXTRACT: note_off channel=0 note=65 velocity=63 time=0
EXTRACT: note_off channel=0 note=62 velocity=63 time=0
EXTRACT: note_off channel=0 note=58 velocity=63 time=0
EXTRACT: note_off channel=0 note=53 velocity=63 time=0
EXTRACT: note_off channel=0 note=46 velocity=63 time=0
EXTRACT: note_on channel=0 note=64 velocity=63 time=0
EXTRACT: note_on channel=0 note=59 velocity=63 time=0
EXTRACT: note_on channel=0 note=55 velocity=63 time=0
EXTRACT: note_on channel=0 note=50 velocity=63 time=0
EXTRACT: note_on channel=0 note=45 velocity=63 time=0
EXTRACT: note_on channel=0 note=40 velocity=63 time=0
EXTRACT: note_off channel=2 note=56 velocity=79 time=0
EXTRACT: note_on channel=2 note=70 velocity=79 time=0
EXTRACT: note_on channel=2 note=65 velocity=79 time=0
EXTRACT: note_on channel=2 note=62 velocity=79 time=0
EXTRACT: note_off channel=4 note=56 velocity=95 time=0
EXTRACT: note_on channel=4 note=58 velocity=95 time=0
EXTRACT: note_off channel=0 note=64 velocity=63 time=0.031249995833333332
EXTRACT: note_off channel=0 note=59 velocity=63 time=0
EXTRACT: note_off channel=0 note=55 velocity=63 time=0
EXTRACT: note_off channel=0 note=50 velocity=63 time=0
EXTRACT: note_off channel=0 note=45 velocity=63 time=0
EXTRACT: note_off channel=0 note=40 velocity=63 time=0
EXTRACT: note_on channel=0 note=64 velocity=63 time=0.11298075416666667
EXTRACT: note_on channel=0 note=59 velocity=63 time=0
EXTRACT: note_on channel=0 note=55 velocity=63 time=0
EXTRACT: note_on channel=0 note=50 velocity=63 time=0
EXTRACT: note_on channel=0 note=45 velocity=63 time=0
EXTRACT: note_on channel=0 note=40 velocity=63 time=0
EXTRACT: note_off channel=2 note=70 velocity=79 time=0
EXTRACT: note_off channel=2 note=65 velocity=79 time=0
EXTRACT: note_off channel=2 note=62 velocity=79 time=0
EXTRACT: note_off channel=4 note=58 velocity=95 time=0
EXTRACT: note_on channel=4 note=56 velocity=95 time=0
EXTRACT: note_off channel=0 note=64 velocity=63 time=0.031249995833333332
EXTRACT: note_off channel=0 note=59 velocity=63 time=0
EXTRACT: note_off channel=0 note=55 velocity=63 time=0
EXTRACT: note_off channel=0 note=50 velocity=63 time=0
EXTRACT: note_off channel=0 note=45 velocity=63 time=0
EXTRACT: note_off channel=0 note=40 velocity=63 time=0
EXTRACT: note_on channel=0 note=70 velocity=63 time=0.11298075416666667
EXTRACT: note_on channel=0 note=65 velocity=63 time=0
EXTRACT: note_on channel=0 note=62 velocity=63 time=0
EXTRACT: note_on channel=0 note=58 velocity=63 time=0
EXTRACT: note_on channel=0 note=53 velocity=63 time=0
EXTRACT: note_on channel=0 note=46 velocity=63 time=0
EXTRACT: note_off channel=4 note=56 velocity=95 time=0
EXTRACT: note_off channel=0 note=70 velocity=63 time=0.14423075
EXTRACT: note_off channel=0 note=65 velocity=63 time=0
EXTRACT: note_off channel=0 note=62 velocity=63 time=0
EXTRACT: note_off channel=0 note=58 velocity=63 time=0
EXTRACT: note_off channel=0 note=53 velocity=63 time=0
EXTRACT: note_off channel=0 note=46 velocity=63 time=0
EXTRACT: note_on channel=0 note=70 velocity=63 time=0
EXTRACT: note_on channel=0 note=65 velocity=63 time=0
EXTRACT: note_on channel=0 note=62 velocity=63 time=0
EXTRACT: note_on channel=0 note=58 velocity=63 time=0
EXTRACT: note_on channel=0 note=53 velocity=63 time=0
EXTRACT: note_on channel=0 note=46 velocity=63 time=0
EXTRACT: note_off channel=0 note=70 velocity=63 time=0.14423075
EXTRACT: note_off channel=0 note=65 velocity=63 time=0
EXTRACT: note_off channel=0 note=62 velocity=63 time=0
EXTRACT: note_off channel=0 note=58 velocity=63 time=0
EXTRACT: note_off channel=0 note=53 velocity=63 time=0
EXTRACT: note_off channel=0 note=46 velocity=63 time=0
EXTRACT: note_on channel=0 note=64 velocity=63 time=0
EXTRACT: note_on channel=0 note=59 velocity=63 time=0
EXTRACT: note_on channel=0 note=55 velocity=63 time=0
EXTRACT: note_on channel=0 note=50 velocity=63 time=0
EXTRACT: note_on channel=0 note=45 velocity=63 time=0
EXTRACT: note_on channel=0 note=40 velocity=63 time=0
EXTRACT: note_on channel=2 note=58 velocity=79 time=0
EXTRACT: note_off channel=0 note=64 velocity=63 time=0.031249995833333332
EXTRACT: note_off channel=0 note=59 velocity=63 time=0
EXTRACT: note_off channel=0 note=55 velocity=63 time=0
EXTRACT: note_off channel=0 note=50 velocity=63 time=0
EXTRACT: note_off channel=0 note=45 velocity=63 time=0
EXTRACT: note_off channel=0 note=40 velocity=63 time=0
EXTRACT: note_on channel=0 note=64 velocity=63 time=0.11298075416666667
EXTRACT: note_on channel=0 note=59 velocity=63 time=0
EXTRACT: note_on channel=0 note=55 velocity=63 time=0
EXTRACT: note_on channel=0 note=50 velocity=63 time=0
EXTRACT: note_on channel=0 note=45 velocity=63 time=0
EXTRACT: note_on channel=0 note=40 velocity=63 time=0
EXTRACT: note_off channel=0 note=64 velocity=63 time=0.031249995833333332
EXTRACT: note_off channel=0 note=59 velocity=63 time=0
EXTRACT: note_off channel=0 note=55 velocity=63 time=0
EXTRACT: note_off channel=0 note=50 velocity=63 time=0
EXTRACT: note_off channel=0 note=45 velocity=63 time=0
EXTRACT: note_off channel=0 note=40 velocity=63 time=0
EXTRACT: note_on channel=0 note=70 velocity=63 time=0.11298075416666667
EXTRACT: note_on channel=0 note=65 velocity=63 time=0
EXTRACT: note_on channel=0 note=62 velocity=63 time=0
EXTRACT: note_on channel=0 note=58 velocity=63 time=0
EXTRACT: note_on channel=0 note=53 velocity=63 time=0
EXTRACT: note_on channel=0 note=46 velocity=63 time=0
EXTRACT: note_off channel=2 note=58 velocity=79 time=0
EXTRACT: note_off channel=0 note=70 velocity=63 time=0.14423075
EXTRACT: note_off channel=0 note=65 velocity=63 time=0
EXTRACT: note_off channel=0 note=62 velocity=63 time=0
EXTRACT: note_off channel=0 note=58 velocity=63 time=0
EXTRACT: note_off channel=0 note=53 velocity=63 time=0
EXTRACT: note_off channel=0 note=46 velocity=63 time=0
EXTRACT: note_on channel=0 note=70 velocity=63 time=0
EXTRACT: note_on channel=0 note=65 velocity=63 time=0
EXTRACT: note_on channel=0 note=62 velocity=63 time=0
EXTRACT: note_on channel=0 note=58 velocity=63 time=0
EXTRACT: note_on channel=0 note=53 velocity=63 time=0
EXTRACT: note_on channel=0 note=46 velocity=63 time=0
EXTRACT: note_off channel=0 note=70 velocity=63 time=0.14423075
EXTRACT: note_off channel=0 note=65 velocity=63 time=0
EXTRACT: note_off channel=0 note=62 velocity=63 time=0
EXTRACT: note_off channel=0 note=58 velocity=63 time=0
EXTRACT: note_off channel=0 note=53 velocity=63 time=0
EXTRACT: note_off channel=0 note=46 velocity=63 time=0
EXTRACT: note_on channel=0 note=64 velocity=63 time=0
EXTRACT: note_on channel=0 note=59 velocity=63 time=0
EXTRACT: note_on channel=0 note=55 velocity=63 time=0
EXTRACT: note_on channel=0 note=50 velocity=63 time=0
EXTRACT: note_on channel=0 note=45 velocity=63 time=0
EXTRACT: note_on channel=0 note=40 velocity=63 time=0
EXTRACT: note_off channel=0 note=64 velocity=63 time=0.031249995833333332
EXTRACT: note_off channel=0 note=59 velocity=63 time=0
EXTRACT: note_off channel=0 note=55 velocity=63 time=0
EXTRACT: note_off channel=0 note=50 velocity=63 time=0
EXTRACT: note_off channel=0 note=45 velocity=63 time=0
EXTRACT: note_off channel=0 note=40 velocity=63 time=0
EXTRACT: note_on channel=0 note=64 velocity=63 time=0.11298075416666667
EXTRACT: note_on channel=0 note=59 velocity=63 time=0
EXTRACT: note_on channel=0 note=55 velocity=63 time=0
EXTRACT: note_on channel=0 note=50 velocity=63 time=0
EXTRACT: note_on channel=0 note=45 velocity=63 time=0
EXTRACT: note_on channel=0 note=40 velocity=63 time=0
EXTRACT: note_on channel=2 note=56 velocity=79 time=0
EXTRACT: note_off channel=0 note=64 velocity=63 time=0.031249995833333332
EXTRACT: note_off channel=0 note=59 velocity=63 time=0
EXTRACT: note_off channel=0 note=55 velocity=63 time=0
EXTRACT: note_off channel=0 note=50 velocity=63 time=0
EXTRACT: note_off channel=0 note=45 velocity=63 time=0
EXTRACT: note_off channel=0 note=40 velocity=63 time=0
EXTRACT: note_on channel=0 note=70 velocity=63 time=0.11298075416666667
EXTRACT: note_on channel=0 note=65 velocity=63 time=0
EXTRACT: note_on channel=0 note=62 velocity=63 time=0
EXTRACT: note_on channel=0 note=58 velocity=63 time=0
EXTRACT: note_on channel=0 note=53 velocity=63 time=0
EXTRACT: note_on channel=0 note=46 velocity=63 time=0
EXTRACT: note_off channel=2 note=56 velocity=79 time=0
EXTRACT: note_off channel=0 note=70 velocity=63 time=0.14423075
EXTRACT: note_off channel=0 note=65 velocity=63 time=0
EXTRACT: note_off channel=0 note=62 velocity=63 time=0
EXTRACT: note_off channel=0 note=58 velocity=63 time=0
EXTRACT: note_off channel=0 note=53 velocity=63 time=0
EXTRACT: note_off channel=0 note=46 velocity=63 time=0
EXTRACT: note_on channel=0 note=70 velocity=63 time=0
EXTRACT: note_on channel=0 note=65 velocity=63 time=0
EXTRACT: note_on channel=0 note=62 velocity=63 time=0
EXTRACT: note_on channel=0 note=58 velocity=63 time=0
EXTRACT: note_on channel=0 note=53 velocity=63 time=0
EXTRACT: note_on channel=0 note=46 velocity=63 time=0
EXTRACT: note_on channel=2 note=56 velocity=79 time=0
EXTRACT: note_off channel=0 note=70 velocity=63 time=0.14423075
EXTRACT: note_off channel=0 note=65 velocity=63 time=0
EXTRACT: note_off channel=0 note=62 velocity=63 time=0
EXTRACT: note_off channel=0 note=58 velocity=63 time=0
EXTRACT: note_off channel=0 note=53 velocity=63 time=0
EXTRACT: note_off channel=0 note=46 velocity=63 time=0
EXTRACT: note_on channel=0 note=64 velocity=63 time=0
EXTRACT: note_on channel=0 note=59 velocity=63 time=0
EXTRACT: note_on channel=0 note=55 velocity=63 time=0
EXTRACT: note_on channel=0 note=50 velocity=63 time=0
EXTRACT: note_on channel=0 note=45 velocity=63 time=0
EXTRACT: note_on channel=0 note=40 velocity=63 time=0
EXTRACT: note_off channel=2 note=56 velocity=79 time=0
EXTRACT: note_on channel=4 note=72 velocity=95 time=0
EXTRACT: note_off channel=0 note=64 velocity=63 time=0.031249995833333332
EXTRACT: note_off channel=0 note=59 velocity=63 time=0
EXTRACT: note_off channel=0 note=55 velocity=63 time=0
EXTRACT: note_off channel=0 note=50 velocity=63 time=0
EXTRACT: note_off channel=0 note=45 velocity=63 time=0
EXTRACT: note_off channel=0 note=40 velocity=63 time=0
EXTRACT: note_on channel=0 note=64 velocity=63 time=0.11298075416666667
EXTRACT: note_on channel=0 note=59 velocity=63 time=0
EXTRACT: note_on channel=0 note=55 velocity=63 time=0
EXTRACT: note_on channel=0 note=50 velocity=63 time=0
EXTRACT: note_on channel=0 note=45 velocity=63 time=0
EXTRACT: note_on channel=0 note=40 velocity=63 time=0
EXTRACT: note_on channel=2 note=50 velocity=79 time=0
EXTRACT: note_off channel=0 note=64 velocity=63 time=0.031249995833333332
EXTRACT: note_off channel=0 note=59 velocity=63 time=0
EXTRACT: note_off channel=0 note=55 velocity=63 time=0
EXTRACT: note_off channel=0 note=50 velocity=63 time=0
EXTRACT: note_off channel=0 note=45 velocity=63 time=0
EXTRACT: note_off channel=0 note=40 velocity=63 time=0
EXTRACT: note_on channel=0 note=70 velocity=63 time=0.11298075416666667
EXTRACT: note_on channel=0 note=65 velocity=63 time=0
EXTRACT: note_on channel=0 note=62 velocity=63 time=0
EXTRACT: note_on channel=0 note=58 velocity=63 time=0
EXTRACT: note_on channel=0 note=53 velocity=63 time=0
EXTRACT: note_on channel=0 note=46 velocity=63 time=0
EXTRACT: note_off channel=2 note=50 velocity=79 time=0
EXTRACT: note_on channel=2 note=56 velocity=79 time=0
EXTRACT: note_off channel=4 note=72 velocity=95 time=0
EXTRACT: note_on channel=4 note=72 velocity=95 time=0
EXTRACT: note_off channel=0 note=70 velocity=63 time=0.14423075
EXTRACT: note_off channel=0 note=65 velocity=63 time=0
EXTRACT: note_off channel=0 note=62 velocity=63 time=0
EXTRACT: note_off channel=0 note=58 velocity=63 time=0
EXTRACT: note_off channel=0 note=53 velocity=63 time=0
EXTRACT: note_off channel=0 note=46 velocity=63 time=0
EXTRACT: note_on channel=0 note=70 velocity=63 time=0
EXTRACT: note_on channel=0 note=65 velocity=63 time=0
EXTRACT: note_on channel=0 note=62 velocity=63 time=0
EXTRACT: note_on channel=0 note=58 velocity=63 time=0
EXTRACT: note_on channel=0 note=53 velocity=63 time=0
EXTRACT: note_on channel=0 note=46 velocity=63 time=0
EXTRACT: note_off channel=4 note=72 velocity=95 time=0
EXTRACT: note_on channel=4 note=70 velocity=95 time=0
EXTRACT: note_off channel=0 note=70 velocity=63 time=0.14423075
EXTRACT: note_off channel=0 note=65 velocity=63 time=0
EXTRACT: note_off channel=0 note=62 velocity=63 time=0
EXTRACT: note_off channel=0 note=58 velocity=63 time=0
EXTRACT: note_off channel=0 note=53 velocity=63 time=0
EXTRACT: note_off channel=0 note=46 velocity=63 time=0
EXTRACT: note_on channel=0 note=64 velocity=63 time=0
EXTRACT: note_on channel=0 note=59 velocity=63 time=0
EXTRACT: note_on channel=0 note=55 velocity=63 time=0
EXTRACT: note_on channel=0 note=50 velocity=63 time=0
EXTRACT: note_on channel=0 note=45 velocity=63 time=0
EXTRACT: note_on channel=0 note=40 velocity=63 time=0
EXTRACT: note_off channel=2 note=56 velocity=79 time=0
EXTRACT: note_on channel=2 note=58 velocity=79 time=0
EXTRACT: note_off channel=4 note=70 velocity=95 time=0
EXTRACT: note_on channel=4 note=68 velocity=95 time=0
EXTRACT: note_off channel=0 note=64 velocity=63 time=0.031249995833333332
EXTRACT: note_off channel=0 note=59 velocity=63 time=0
EXTRACT: note_off channel=0 note=55 velocity=63 time=0
EXTRACT: note_off channel=0 note=50 velocity=63 time=0
EXTRACT: note_off channel=0 note=45 velocity=63 time=0
EXTRACT: note_off channel=0 note=40 velocity=63 time=0
EXTRACT: note_on channel=0 note=64 velocity=63 time=0.11298075416666667
EXTRACT: note_on channel=0 note=59 velocity=63 time=0
EXTRACT: note_on channel=0 note=55 velocity=63 time=0
EXTRACT: note_on channel=0 note=50 velocity=63 time=0
EXTRACT: note_on channel=0 note=45 velocity=63 time=0
EXTRACT: note_on channel=0 note=40 velocity=63 time=0
EXTRACT: note_off channel=2 note=58 velocity=79 time=0
EXTRACT: note_off channel=4 note=68 velocity=95 time=0
EXTRACT: note_on channel=4 note=72 velocity=95 time=0
EXTRACT: note_off channel=0 note=64 velocity=63 time=0.031249995833333332
EXTRACT: note_off channel=0 note=59 velocity=63 time=0
EXTRACT: note_off channel=0 note=55 velocity=63 time=0
EXTRACT: note_off channel=0 note=50 velocity=63 time=0
EXTRACT: note_off channel=0 note=45 velocity=63 time=0
EXTRACT: note_off channel=0 note=40 velocity=63 time=0
EXTRACT: note_on channel=0 note=72 velocity=63 time=0.11298075416666667
EXTRACT: note_on channel=0 note=68 velocity=63 time=0
EXTRACT: note_on channel=0 note=65 velocity=63 time=0
EXTRACT: note_on channel=0 note=60 velocity=63 time=0
EXTRACT: note_on channel=0 note=53 velocity=63 time=0
EXTRACT: note_on channel=2 note=51 velocity=79 time=0
EXTRACT: note_off channel=0 note=72 velocity=63 time=0.14423075
EXTRACT: note_off channel=0 note=68 velocity=63 time=0
EXTRACT: note_off channel=0 note=65 velocity=63 time=0
EXTRACT: note_off channel=0 note=60 velocity=63 time=0
EXTRACT: note_off channel=0 note=53 velocity=63 time=0
EXTRACT: note_on channel=0 note=72 velocity=63 time=0
EXTRACT: note_on channel=0 note=68 velocity=63 time=0
EXTRACT: note_on channel=0 note=65 velocity=63 time=0
EXTRACT: note_on channel=0 note=60 velocity=63 time=0
EXTRACT: note_on channel=0 note=53 velocity=63 time=0
EXTRACT: note_off channel=2 note=51 velocity=79 time=0
EXTRACT: note_on channel=2 note=53 velocity=54 time=0
EXTRACT: note_off channel=0 note=72 velocity=63 time=0.14423075
EXTRACT: note_off channel=0 note=68 velocity=63 time=0
EXTRACT: note_off channel=0 note=65 velocity=63 time=0
EXTRACT: note_off channel=0 note=60 velocity=63 time=0
EXTRACT: note_off channel=0 note=53 velocity=63 time=0
EXTRACT: note_on channel=0 note=64 velocity=63 time=0
EXTRACT: note_on channel=0 note=59 velocity=63 time=0
EXTRACT: note_on channel=0 note=55 velocity=63 time=0
EXTRACT: note_on channel=0 note=50 velocity=63 time=0
EXTRACT: note_on channel=0 note=45 velocity=63 time=0
EXTRACT: note_off channel=0 note=64 velocity=63 time=0.031249995833333332
EXTRACT: note_off channel=0 note=59 velocity=63 time=0
EXTRACT: note_off channel=0 note=55 velocity=63 time=0
EXTRACT: note_off channel=0 note=50 velocity=63 time=0
EXTRACT: note_off channel=0 note=45 velocity=63 time=0
EXTRACT: note_on channel=0 note=64 velocity=63 time=0.11298075416666667
EXTRACT: note_on channel=0 note=59 velocity=63 time=0
EXTRACT: note_on channel=0 note=55 velocity=63 time=0
EXTRACT: note_on channel=0 note=50 velocity=63 time=0
EXTRACT: note_on channel=0 note=45 velocity=63 time=0
EXTRACT: note_off channel=2 note=53 velocity=54 time=0
EXTRACT: note_on channel=2 note=56 velocity=79 time=0
EXTRACT: note_off channel=0 note=64 velocity=63 time=0.031249995833333332
EXTRACT: note_off channel=0 note=59 velocity=63 time=0
EXTRACT: note_off channel=0 note=55 velocity=63 time=0
EXTRACT: note_off channel=0 note=50 velocity=63 time=0
EXTRACT: note_off channel=0 note=45 velocity=63 time=0
EXTRACT: note_on channel=0 note=72 velocity=63 time=0.11298075416666667
EXTRACT: note_on channel=0 note=68 velocity=63 time=0
EXTRACT: note_on channel=0 note=65 velocity=63 time=0
EXTRACT: note_on channel=0 note=60 velocity=63 time=0
EXTRACT: note_on channel=0 note=53 velocity=63 time=0
EXTRACT: note_off channel=2 note=56 velocity=79 time=0
EXTRACT: note_off channel=0 note=72 velocity=63 time=0.14423075
EXTRACT: note_off channel=0 note=68 velocity=63 time=0
EXTRACT: note_off channel=0 note=65 velocity=63 time=0
EXTRACT: note_off channel=0 note=60 velocity=63 time=0
EXTRACT: note_off channel=0 note=53 velocity=63 time=0
EXTRACT: note_on channel=0 note=72 velocity=63 time=0
EXTRACT: note_on channel=0 note=68 velocity=63 time=0
EXTRACT: note_on channel=0 note=65 velocity=63 time=0
EXTRACT: note_on channel=0 note=60 velocity=63 time=0
EXTRACT: note_on channel=0 note=53 velocity=63 time=0
EXTRACT: note_off channel=0 note=72 velocity=63 time=0.14423075
EXTRACT: note_off channel=0 note=68 velocity=63 time=0
EXTRACT: note_off channel=0 note=65 velocity=63 time=0
EXTRACT: note_off channel=0 note=60 velocity=63 time=0
EXTRACT: note_off channel=0 note=53 velocity=63 time=0
EXTRACT: note_on channel=0 note=64 velocity=63 time=0
EXTRACT: note_on channel=0 note=59 velocity=63 time=0
EXTRACT: note_on channel=0 note=55 velocity=63 time=0
EXTRACT: note_on channel=0 note=50 velocity=63 time=0
EXTRACT: note_on channel=0 note=45 velocity=63 time=0
EXTRACT: note_on channel=2 note=51 velocity=79 time=0
EXTRACT: note_off channel=0 note=64 velocity=63 time=0.031249995833333332
EXTRACT: note_off channel=0 note=59 velocity=63 time=0
EXTRACT: note_off channel=0 note=55 velocity=63 time=0
EXTRACT: note_off channel=0 note=50 velocity=63 time=0
EXTRACT: note_off channel=0 note=45 velocity=63 time=0
EXTRACT: note_on channel=0 note=64 velocity=63 time=0.11298075416666667
EXTRACT: note_on channel=0 note=59 velocity=63 time=0
EXTRACT: note_on channel=0 note=55 velocity=63 time=0
EXTRACT: note_on channel=0 note=50 velocity=63 time=0
EXTRACT: note_on channel=0 note=45 velocity=63 time=0
EXTRACT: note_off channel=0 note=64 velocity=63 time=0.031249995833333332
EXTRACT: note_off channel=0 note=59 velocity=63 time=0
EXTRACT: note_off channel=0 note=55 velocity=63 time=0
EXTRACT: note_off channel=0 note=50 velocity=63 time=0
EXTRACT: note_off channel=0 note=45 velocity=63 time=0
EXTRACT: note_on channel=0 note=72 velocity=63 time=0.11298075416666667
EXTRACT: note_on channel=0 note=68 velocity=63 time=0
EXTRACT: note_on channel=0 note=65 velocity=63 time=0
EXTRACT: note_on channel=0 note=60 velocity=63 time=0
EXTRACT: note_on channel=0 note=53 velocity=63 time=0
EXTRACT: note_off channel=2 note=51 velocity=79 time=0
EXTRACT: note_off channel=0 note=72 velocity=63 time=0.14423075
EXTRACT: note_off channel=0 note=68 velocity=63 time=0
EXTRACT: note_off channel=0 note=65 velocity=63 time=0
EXTRACT: note_off channel=0 note=60 velocity=63 time=0
EXTRACT: note_off channel=0 note=53 velocity=63 time=0
EXTRACT: note_on channel=0 note=72 velocity=63 time=0
EXTRACT: note_on channel=0 note=68 velocity=63 time=0
EXTRACT: note_on channel=0 note=65 velocity=63 time=0
EXTRACT: note_on channel=0 note=60 velocity=63 time=0
EXTRACT: note_on channel=0 note=53 velocity=63 time=0
EXTRACT: note_off channel=0 note=72 velocity=63 time=0.14423075
EXTRACT: note_off channel=0 note=68 velocity=63 time=0
EXTRACT: note_off channel=0 note=65 velocity=63 time=0
EXTRACT: note_off channel=0 note=60 velocity=63 time=0
EXTRACT: note_off channel=0 note=53 velocity=63 time=0
EXTRACT: note_on channel=0 note=64 velocity=63 time=0
EXTRACT: note_on channel=0 note=59 velocity=63 time=0
EXTRACT: note_on channel=0 note=55 velocity=63 time=0
EXTRACT: note_on channel=0 note=50 velocity=63 time=0
EXTRACT: note_on channel=0 note=45 velocity=63 time=0
EXTRACT: note_on channel=2 note=48 velocity=79 time=0
EXTRACT: note_off channel=0 note=64 velocity=63 time=0.031249995833333332
EXTRACT: note_off channel=0 note=59 velocity=63 time=0
EXTRACT: note_off channel=0 note=55 velocity=63 time=0
EXTRACT: note_off channel=0 note=50 velocity=63 time=0
EXTRACT: note_off channel=0 note=45 velocity=63 time=0
EXTRACT: note_on channel=0 note=64 velocity=63 time=0.11298075416666667
EXTRACT: note_on channel=0 note=59 velocity=63 time=0
EXTRACT: note_on channel=0 note=55 velocity=63 time=0
EXTRACT: note_on channel=0 note=50 velocity=63 time=0
EXTRACT: note_on channel=0 note=45 velocity=63 time=0
EXTRACT: note_off channel=0 note=64 velocity=63 time=0.031249995833333332
EXTRACT: note_off channel=0 note=59 velocity=63 time=0
EXTRACT: note_off channel=0 note=55 velocity=63 time=0
EXTRACT: note_off channel=0 note=50 velocity=63 time=0
EXTRACT: note_off channel=0 note=45 velocity=63 time=0
EXTRACT: note_on channel=0 note=72 velocity=63 time=0.11298075416666667
EXTRACT: note_on channel=0 note=68 velocity=63 time=0
EXTRACT: note_on channel=0 note=65 velocity=63 time=0
EXTRACT: note_on channel=0 note=60 velocity=63 time=0
EXTRACT: note_on channel=0 note=53 velocity=63 time=0
EXTRACT: note_off channel=2 note=48 velocity=79 time=0
EXTRACT: note_on channel=2 note=46 velocity=79 time=0
EXTRACT: note_off channel=0 note=72 velocity=63 time=0.14423075
EXTRACT: note_off channel=0 note=68 velocity=63 time=0
EXTRACT: note_off channel=0 note=65 velocity=63 time=0
EXTRACT: note_off channel=0 note=60 velocity=63 time=0
EXTRACT: note_off channel=0 note=53 velocity=63 time=0
EXTRACT: note_on channel=0 note=72 velocity=63 time=0
EXTRACT: note_on channel=0 note=68 velocity=63 time=0
EXTRACT: note_on channel=0 note=65 velocity=63 time=0
EXTRACT: note_on channel=0 note=60 velocity=63 time=0
EXTRACT: note_on channel=0 note=53 velocity=63 time=0
EXTRACT: note_off channel=2 note=46 velocity=79 time=0
EXTRACT: note_on channel=2 note=48 velocity=54 time=0
EXTRACT: note_off channel=0 note=72 velocity=63 time=0.14423075
EXTRACT: note_off channel=0 note=68 velocity=63 time=0
EXTRACT: note_off channel=0 note=65 velocity=63 time=0
EXTRACT: note_off channel=0 note=60 velocity=63 time=0
EXTRACT: note_off channel=0 note=53 velocity=63 time=0
EXTRACT: note_on channel=0 note=64 velocity=63 time=0
EXTRACT: note_on channel=0 note=59 velocity=63 time=0
EXTRACT: note_on channel=0 note=55 velocity=63 time=0
EXTRACT: note_on channel=0 note=50 velocity=63 time=0
EXTRACT: note_on channel=0 note=45 velocity=63 time=0
EXTRACT: note_off channel=2 note=48 velocity=54 time=0
EXTRACT: note_on channel=2 note=51 velocity=79 time=0
EXTRACT: note_off channel=0 note=64 velocity=63 time=0.031249995833333332
EXTRACT: note_off channel=0 note=59 velocity=63 time=0
EXTRACT: note_off channel=0 note=55 velocity=63 time=0
EXTRACT: note_off channel=0 note=50 velocity=63 time=0
EXTRACT: note_off channel=0 note=45 velocity=63 time=0
EXTRACT: note_on channel=0 note=64 velocity=63 time=0.11298075416666667
EXTRACT: note_on channel=0 note=59 velocity=63 time=0
EXTRACT: note_on channel=0 note=55 velocity=63 time=0
EXTRACT: note_on channel=0 note=50 velocity=63 time=0
EXTRACT: note_on channel=0 note=45 velocity=63 time=0
EXTRACT: note_off channel=0 note=64 velocity=63 time=0.031249995833333332
EXTRACT: note_off channel=0 note=59 velocity=63 time=0
EXTRACT: note_off channel=0 note=55 velocity=63 time=0
EXTRACT: note_off channel=0 note=50 velocity=63 time=0
EXTRACT: note_off channel=0 note=45 velocity=63 time=0
EXTRACT: note_on channel=0 note=72 velocity=63 time=0.11298075416666667
EXTRACT: note_on channel=0 note=68 velocity=63 time=0
EXTRACT: note_on channel=0 note=65 velocity=63 time=0
EXTRACT: note_on channel=0 note=60 velocity=63 time=0
EXTRACT: note_on channel=0 note=53 velocity=63 time=0
EXTRACT: note_off channel=2 note=51 velocity=79 time=0
EXTRACT: note_on channel=2 note=46 velocity=79 time=0
EXTRACT: note_off channel=0 note=72 velocity=63 time=0.14423075
EXTRACT: note_off channel=0 note=68 velocity=63 time=0
EXTRACT: note_off channel=0 note=65 velocity=63 time=0
EXTRACT: note_off channel=0 note=60 velocity=63 time=0
EXTRACT: note_off channel=0 note=53 velocity=63 time=0
EXTRACT: note_on channel=0 note=72 velocity=63 time=0
EXTRACT: note_on channel=0 note=68 velocity=63 time=0
EXTRACT: note_on channel=0 note=65 velocity=63 time=0
EXTRACT: note_on channel=0 note=60 velocity=63 time=0
EXTRACT: note_on channel=0 note=53 velocity=63 time=0
EXTRACT: note_off channel=2 note=46 velocity=79 time=0
EXTRACT: note_on channel=2 note=48 velocity=54 time=0
EXTRACT: note_off channel=0 note=72 velocity=63 time=0.14423075
EXTRACT: note_off channel=0 note=68 velocity=63 time=0
EXTRACT: note_off channel=0 note=65 velocity=63 time=0
EXTRACT: note_off channel=0 note=60 velocity=63 time=0
EXTRACT: note_off channel=0 note=53 velocity=63 time=0
EXTRACT: note_on channel=0 note=64 velocity=63 time=0
EXTRACT: note_on channel=0 note=59 velocity=63 time=0
EXTRACT: note_on channel=0 note=55 velocity=63 time=0
EXTRACT: note_on channel=0 note=50 velocity=63 time=0
EXTRACT: note_on channel=0 note=45 velocity=63 time=0
EXTRACT: note_off channel=2 note=48 velocity=54 time=0
EXTRACT: note_on channel=2 note=51 velocity=79 time=0
EXTRACT: note_off channel=0 note=64 velocity=63 time=0.031249995833333332
EXTRACT: note_off channel=0 note=59 velocity=63 time=0
EXTRACT: note_off channel=0 note=55 velocity=63 time=0
EXTRACT: note_off channel=0 note=50 velocity=63 time=0
EXTRACT: note_off channel=0 note=45 velocity=63 time=0
EXTRACT: note_on channel=0 note=64 velocity=63 time=0.11298075416666667
EXTRACT: note_on channel=0 note=59 velocity=63 time=0
EXTRACT: note_on channel=0 note=55 velocity=63 time=0
EXTRACT: note_on channel=0 note=50 velocity=63 time=0
EXTRACT: note_on channel=0 note=45 velocity=63 time=0
EXTRACT: note_off channel=0 note=64 velocity=63 time=0.031249995833333332
EXTRACT: note_off channel=0 note=59 velocity=63 time=0
EXTRACT: note_off channel=0 note=55 velocity=63 time=0
EXTRACT: note_off channel=0 note=50 velocity=63 time=0
EXTRACT: note_off channel=0 note=45 velocity=63 time=0
EXTRACT: note_on channel=0 note=72 velocity=63 time=0.11298075416666667
EXTRACT: note_on channel=0 note=68 velocity=63 time=0
EXTRACT: note_on channel=0 note=65 velocity=63 time=0
EXTRACT: note_on channel=0 note=60 velocity=63 time=0
EXTRACT: note_on channel=0 note=53 velocity=63 time=0
EXTRACT: note_off channel=2 note=51 velocity=79 time=0
EXTRACT: note_off channel=0 note=72 velocity=63 time=0.14423075
EXTRACT: note_off channel=0 note=68 velocity=63 time=0
EXTRACT: note_off channel=0 note=65 velocity=63 time=0
EXTRACT: note_off channel=0 note=60 velocity=63 time=0
EXTRACT: note_off channel=0 note=53 velocity=63 time=0
EXTRACT: note_on channel=0 note=72 velocity=63 time=0
EXTRACT: note_on channel=0 note=68 velocity=63 time=0
EXTRACT: note_on channel=0 note=65 velocity=63 time=0
EXTRACT: note_on channel=0 note=60 velocity=63 time=0
EXTRACT: note_on channel=0 note=53 velocity=63 time=0
EXTRACT: note_on channel=2 note=45 velocity=79 time=0
EXTRACT: note_off channel=2 note=45 velocity=79 time=0.031249995833333332
EXTRACT: note_off channel=0 note=72 velocity=63 time=0.11298075416666667
EXTRACT: note_off channel=0 note=68 velocity=63 time=0
EXTRACT: note_off channel=0 note=65 velocity=63 time=0
EXTRACT: note_off channel=0 note=60 velocity=63 time=0
EXTRACT: note_off channel=0 note=53 velocity=63 time=0
EXTRACT: note_on channel=0 note=64 velocity=63 time=0
EXTRACT: note_on channel=0 note=59 velocity=63 time=0
EXTRACT: note_on channel=0 note=55 velocity=63 time=0
EXTRACT: note_on channel=0 note=50 velocity=63 time=0
EXTRACT: note_on channel=0 note=45 velocity=63 time=0
EXTRACT: note_on channel=2 note=46 velocity=79 time=0
EXTRACT: note_off channel=0 note=64 velocity=63 time=0.031249995833333332
EXTRACT: note_off channel=0 note=59 velocity=63 time=0
EXTRACT: note_off channel=0 note=55 velocity=63 time=0
EXTRACT: note_off channel=0 note=50 velocity=63 time=0
EXTRACT: note_off channel=0 note=45 velocity=63 time=0
EXTRACT: note_on channel=0 note=64 velocity=63 time=0.11298075416666667
EXTRACT: note_on channel=0 note=59 velocity=63 time=0
EXTRACT: note_on channel=0 note=55 velocity=63 time=0
EXTRACT: note_on channel=0 note=50 velocity=63 time=0
EXTRACT: note_on channel=0 note=45 velocity=63 time=0
EXTRACT: note_off channel=0 note=64 velocity=63 time=0.031249995833333332
EXTRACT: note_off channel=0 note=59 velocity=63 time=0
EXTRACT: note_off channel=0 note=55 velocity=63 time=0
EXTRACT: note_off channel=0 note=50 velocity=63 time=0
EXTRACT: note_off channel=0 note=45 velocity=63 time=0
EXTRACT: note_on channel=0 note=72 velocity=63 time=0.11298075416666667
EXTRACT: note_on channel=0 note=68 velocity=63 time=0
EXTRACT: note_on channel=0 note=65 velocity=63 time=0
EXTRACT: note_on channel=0 note=60 velocity=63 time=0
EXTRACT: note_on channel=0 note=53 velocity=63 time=0
EXTRACT: note_off channel=2 note=46 velocity=79 time=0
EXTRACT: note_on channel=2 note=48 velocity=79 time=0
EXTRACT: note_off channel=4 note=72 velocity=95 time=0
EXTRACT: note_off channel=0 note=72 velocity=63 time=0.14423075
EXTRACT: note_off channel=0 note=68 velocity=63 time=0
EXTRACT: note_off channel=0 note=65 velocity=63 time=0
EXTRACT: note_off channel=0 note=60 velocity=63 time=0
EXTRACT: note_off channel=0 note=53 velocity=63 time=0
EXTRACT: note_on channel=0 note=72 velocity=63 time=0
EXTRACT: note_on channel=0 note=68 velocity=63 time=0
EXTRACT: note_on channel=0 note=65 velocity=63 time=0
EXTRACT: note_on channel=0 note=60 velocity=63 time=0
EXTRACT: note_on channel=0 note=53 velocity=63 time=0
EXTRACT: note_off channel=0 note=72 velocity=63 time=0.14423075
EXTRACT: note_off channel=0 note=68 velocity=63 time=0
EXTRACT: note_off channel=0 note=65 velocity=63 time=0
EXTRACT: note_off channel=0 note=60 velocity=63 time=0
EXTRACT: note_off channel=0 note=53 velocity=63 time=0
EXTRACT: note_on channel=0 note=64 velocity=63 time=0
EXTRACT: note_on channel=0 note=59 velocity=63 time=0
EXTRACT: note_on channel=0 note=55 velocity=63 time=0
EXTRACT: note_on channel=0 note=50 velocity=63 time=0
EXTRACT: note_on channel=0 note=45 velocity=63 time=0
EXTRACT: note_off channel=2 note=48 velocity=79 time=0
EXTRACT: note_on channel=2 note=51 velocity=79 time=0
EXTRACT: note_on channel=4 note=65 velocity=95 time=0
EXTRACT: note_off channel=0 note=64 velocity=63 time=0.031249995833333332
EXTRACT: note_off channel=0 note=59 velocity=63 time=0
EXTRACT: note_off channel=0 note=55 velocity=63 time=0
EXTRACT: note_off channel=0 note=50 velocity=63 time=0
EXTRACT: note_off channel=0 note=45 velocity=63 time=0
EXTRACT: note_on channel=0 note=64 velocity=63 time=0.11298075416666667
EXTRACT: note_on channel=0 note=59 velocity=63 time=0
EXTRACT: note_on channel=0 note=55 velocity=63 time=0
EXTRACT: note_on channel=0 note=50 velocity=63 time=0
EXTRACT: note_on channel=0 note=45 velocity=63 time=0
EXTRACT: note_off channel=0 note=64 velocity=63 time=0.031249995833333332
EXTRACT: note_off channel=0 note=59 velocity=63 time=0
EXTRACT: note_off channel=0 note=55 velocity=63 time=0
EXTRACT: note_off channel=0 note=50 velocity=63 time=0
EXTRACT: note_off channel=0 note=45 velocity=63 time=0
EXTRACT: note_on channel=0 note=72 velocity=63 time=0.11298075416666667
EXTRACT: note_on channel=0 note=68 velocity=63 time=0
EXTRACT: note_on channel=0 note=65 velocity=63 time=0
EXTRACT: note_on channel=0 note=60 velocity=63 time=0
EXTRACT: note_on channel=0 note=53 velocity=63 time=0
EXTRACT: note_off channel=2 note=51 velocity=79 time=0
EXTRACT: note_on channel=2 note=53 velocity=79 time=0
EXTRACT: note_off channel=4 note=65 velocity=95 time=0
EXTRACT: note_on channel=4 note=68 velocity=95 time=0
EXTRACT: note_off channel=0 note=72 velocity=63 time=0.14423075
EXTRACT: note_off channel=0 note=68 velocity=63 time=0
EXTRACT: note_off channel=0 note=65 velocity=63 time=0
EXTRACT: note_off channel=0 note=60 velocity=63 time=0
EXTRACT: note_off channel=0 note=53 velocity=63 time=0
EXTRACT: note_on channel=0 note=72 velocity=63 time=0
EXTRACT: note_on channel=0 note=68 velocity=63 time=0
EXTRACT: note_on channel=0 note=65 velocity=63 time=0
EXTRACT: note_on channel=0 note=60 velocity=63 time=0
EXTRACT: note_on channel=0 note=53 velocity=63 time=0
EXTRACT: note_off channel=4 note=68 velocity=95 time=0
EXTRACT: note_on channel=4 note=70 velocity=95 time=0
EXTRACT: note_off channel=0 note=72 velocity=63 time=0.14423075
EXTRACT: note_off channel=0 note=68 velocity=63 time=0
EXTRACT: note_off channel=0 note=65 velocity=63 time=0
EXTRACT: note_off channel=0 note=60 velocity=63 time=0
EXTRACT: note_off channel=0 note=53 velocity=63 time=0
EXTRACT: note_on channel=0 note=64 velocity=63 time=0
EXTRACT: note_on channel=0 note=59 velocity=63 time=0
EXTRACT: note_on channel=0 note=55 velocity=63 time=0
EXTRACT: note_on channel=0 note=50 velocity=63 time=0
EXTRACT: note_on channel=0 note=45 velocity=63 time=0
EXTRACT: note_off channel=2 note=53 velocity=79 time=0
EXTRACT: note_on channel=2 note=56 velocity=79 time=0
EXTRACT: note_off channel=0 note=64 velocity=63 time=0.031249995833333332
EXTRACT: note_off channel=0 note=59 velocity=63 time=0
EXTRACT: note_off channel=0 note=55 velocity=63 time=0
EXTRACT: note_off channel=0 note=50 velocity=63 time=0
EXTRACT: note_off channel=0 note=45 velocity=63 time=0
EXTRACT: note_on channel=0 note=64 velocity=63 time=0.11298075416666667
EXTRACT: note_on channel=0 note=59 velocity=63 time=0
EXTRACT: note_on channel=0 note=55 velocity=63 time=0
EXTRACT: note_on channel=0 note=50 velocity=63 time=0
EXTRACT: note_on channel=0 note=45 velocity=63 time=0
EXTRACT: note_off channel=4 note=70 velocity=95 time=0
EXTRACT: note_on channel=4 note=72 velocity=95 time=0
EXTRACT: note_off channel=0 note=64 velocity=63 time=0.031249995833333332
EXTRACT: note_off channel=0 note=59 velocity=63 time=0
EXTRACT: note_off channel=0 note=55 velocity=63 time=0
EXTRACT: note_off channel=0 note=50 velocity=63 time=0
EXTRACT: note_off channel=0 note=45 velocity=63 time=0
EXTRACT: note_on channel=0 note=72 velocity=63 time=0.11298075416666667
EXTRACT: note_on channel=0 note=68 velocity=63 time=0
EXTRACT: note_on channel=0 note=65 velocity=63 time=0
EXTRACT: note_on channel=0 note=60 velocity=63 time=0
EXTRACT: note_on channel=0 note=53 velocity=63 time=0
EXTRACT: note_off channel=2 note=56 velocity=79 time=0
EXTRACT: note_on channel=2 note=51 velocity=79 time=0
EXTRACT: note_off channel=0 note=72 velocity=63 time=0.14423075
EXTRACT: note_off channel=0 note=68 velocity=63 time=0
EXTRACT: note_off channel=0 note=65 velocity=63 time=0
EXTRACT: note_off channel=0 note=60 velocity=63 time=0
EXTRACT: note_off channel=0 note=53 velocity=63 time=0
EXTRACT: note_on channel=0 note=72 velocity=63 time=0
EXTRACT: note_on channel=0 note=68 velocity=63 time=0
EXTRACT: note_on channel=0 note=65 velocity=63 time=0
EXTRACT: note_on channel=0 note=60 velocity=63 time=0
EXTRACT: note_on channel=0 note=53 velocity=63 time=0
EXTRACT: note_off channel=2 note=51 velocity=79 time=0
EXTRACT: note_on channel=2 note=53 velocity=54 time=0
EXTRACT: note_off channel=0 note=72 velocity=63 time=0.14423075
EXTRACT: note_off channel=0 note=68 velocity=63 time=0
EXTRACT: note_off channel=0 note=65 velocity=63 time=0
EXTRACT: note_off channel=0 note=60 velocity=63 time=0
EXTRACT: note_off channel=0 note=53 velocity=63 time=0
EXTRACT: note_on channel=0 note=64 velocity=63 time=0
EXTRACT: note_on channel=0 note=59 velocity=63 time=0
EXTRACT: note_on channel=0 note=55 velocity=63 time=0
EXTRACT: note_on channel=0 note=50 velocity=63 time=0
EXTRACT: note_on channel=0 note=45 velocity=63 time=0
EXTRACT: note_off channel=4 note=72 velocity=95 time=0
EXTRACT: note_on channel=4 note=70 velocity=95 time=0
EXTRACT: note_off channel=0 note=64 velocity=63 time=0.031249995833333332
EXTRACT: note_off channel=0 note=59 velocity=63 time=0
EXTRACT: note_off channel=0 note=55 velocity=63 time=0
EXTRACT: note_off channel=0 note=50 velocity=63 time=0
EXTRACT: note_off channel=0 note=45 velocity=63 time=0
EXTRACT: note_on channel=0 note=64 velocity=63 time=0.11298075416666667
EXTRACT: note_on channel=0 note=59 velocity=63 time=0
EXTRACT: note_on channel=0 note=55 velocity=63 time=0
EXTRACT: note_on channel=0 note=50 velocity=63 time=0
EXTRACT: note_on channel=0 note=45 velocity=63 time=0
EXTRACT: note_off channel=2 note=53 velocity=54 time=0
EXTRACT: note_on channel=2 note=56 velocity=79 time=0
EXTRACT: note_off channel=4 note=70 velocity=95 time=0
EXTRACT: note_on channel=4 note=68 velocity=95 time=0
EXTRACT: note_off channel=0 note=64 velocity=63 time=0.031249995833333332
EXTRACT: note_off channel=0 note=59 velocity=63 time=0
EXTRACT: note_off channel=0 note=55 velocity=63 time=0
EXTRACT: note_off channel=0 note=50 velocity=63 time=0
EXTRACT: note_off channel=0 note=45 velocity=63 time=0
EXTRACT: note_on channel=0 note=72 velocity=63 time=0.11298075416666667
EXTRACT: note_on channel=0 note=68 velocity=63 time=0
EXTRACT: note_on channel=0 note=65 velocity=63 time=0
EXTRACT: note_on channel=0 note=60 velocity=63 time=0
EXTRACT: note_on channel=0 note=53 velocity=63 time=0
EXTRACT: note_off channel=2 note=56 velocity=79 time=0
EXTRACT: note_off channel=4 note=68 velocity=95 time=0
EXTRACT: note_on channel=4 note=70 velocity=95 time=0
EXTRACT: note_off channel=0 note=72 velocity=63 time=0.14423075
EXTRACT: note_off channel=0 note=68 velocity=63 time=0
EXTRACT: note_off channel=0 note=65 velocity=63 time=0
EXTRACT: note_off channel=0 note=60 velocity=63 time=0
EXTRACT: note_off channel=0 note=53 velocity=63 time=0
EXTRACT: note_on channel=0 note=72 velocity=63 time=0
EXTRACT: note_on channel=0 note=68 velocity=63 time=0
EXTRACT: note_on channel=0 note=65 velocity=63 time=0
EXTRACT: note_on channel=0 note=60 velocity=63 time=0
EXTRACT: note_on channel=0 note=53 velocity=63 time=0
EXTRACT: note_off channel=4 note=70 velocity=95 time=0
EXTRACT: note_on channel=4 note=65 velocity=95 time=0
EXTRACT: note_off channel=0 note=72 velocity=63 time=0.14423075
EXTRACT: note_off channel=0 note=68 velocity=63 time=0
EXTRACT: note_off channel=0 note=65 velocity=63 time=0
EXTRACT: note_off channel=0 note=60 velocity=63 time=0
EXTRACT: note_off channel=0 note=53 velocity=63 time=0
EXTRACT: note_on channel=0 note=64 velocity=63 time=0
EXTRACT: note_on channel=0 note=59 velocity=63 time=0
EXTRACT: note_on channel=0 note=55 velocity=63 time=0
EXTRACT: note_on channel=0 note=50 velocity=63 time=0
EXTRACT: note_on channel=0 note=45 velocity=63 time=0
EXTRACT: note_on channel=2 note=51 velocity=79 time=0
EXTRACT: note_off channel=0 note=64 velocity=63 time=0.031249995833333332
EXTRACT: note_off channel=0 note=59 velocity=63 time=0
EXTRACT: note_off channel=0 note=55 velocity=63 time=0
EXTRACT: note_off channel=0 note=50 velocity=63 time=0
EXTRACT: note_off channel=0 note=45 velocity=63 time=0
EXTRACT: note_on channel=0 note=64 velocity=63 time=0.11298075416666667
EXTRACT: note_on channel=0 note=59 velocity=63 time=0
EXTRACT: note_on channel=0 note=55 velocity=63 time=0
EXTRACT: note_on channel=0 note=50 velocity=63 time=0
EXTRACT: note_on channel=0 note=45 velocity=63 time=0
EXTRACT: note_off channel=4 note=65 velocity=95 time=0
EXTRACT: note_on channel=4 note=68 velocity=95 time=0
EXTRACT: note_off channel=0 note=64 velocity=63 time=0.031249995833333332
EXTRACT: note_off channel=0 note=59 velocity=63 time=0
EXTRACT: note_off channel=0 note=55 velocity=63 time=0
EXTRACT: note_off channel=0 note=50 velocity=63 time=0
EXTRACT: note_off channel=0 note=45 velocity=63 time=0
EXTRACT: note_on channel=0 note=72 velocity=63 time=0.11298075416666667
EXTRACT: note_on channel=0 note=68 velocity=63 time=0
EXTRACT: note_on channel=0 note=65 velocity=63 time=0
EXTRACT: note_on channel=0 note=60 velocity=63 time=0
EXTRACT: note_on channel=0 note=53 velocity=63 time=0
EXTRACT: note_off channel=2 note=51 velocity=79 time=0
EXTRACT: note_off channel=0 note=72 velocity=63 time=0.14423075
EXTRACT: note_off channel=0 note=68 velocity=63 time=0
EXTRACT: note_off channel=0 note=65 velocity=63 time=0
EXTRACT: note_off channel=0 note=60 velocity=63 time=0
EXTRACT: note_off channel=0 note=53 velocity=63 time=0
EXTRACT: note_on channel=0 note=72 velocity=63 time=0
EXTRACT: note_on channel=0 note=68 velocity=63 time=0
EXTRACT: note_on channel=0 note=65 velocity=63 time=0
EXTRACT: note_on channel=0 note=60 velocity=63 time=0
EXTRACT: note_on channel=0 note=53 velocity=63 time=0
EXTRACT: note_off channel=4 note=68 velocity=95 time=0
EXTRACT: note_on channel=4 note=68 velocity=95 time=0
EXTRACT: note_off channel=0 note=72 velocity=63 time=0.14423075
EXTRACT: note_off channel=0 note=68 velocity=63 time=0
EXTRACT: note_off channel=0 note=65 velocity=63 time=0
EXTRACT: note_off channel=0 note=60 velocity=63 time=0
EXTRACT: note_off channel=0 note=53 velocity=63 time=0
EXTRACT: note_on channel=0 note=64 velocity=63 time=0
EXTRACT: note_on channel=0 note=59 velocity=63 time=0
EXTRACT: note_on channel=0 note=55 velocity=63 time=0
EXTRACT: note_on channel=0 note=50 velocity=63 time=0
EXTRACT: note_on channel=0 note=45 velocity=63 time=0
EXTRACT: note_on channel=2 note=48 velocity=79 time=0
EXTRACT: note_off channel=0 note=64 velocity=63 time=0.031249995833333332
EXTRACT: note_off channel=0 note=59 velocity=63 time=0
EXTRACT: note_off channel=0 note=55 velocity=63 time=0
EXTRACT: note_off channel=0 note=50 velocity=63 time=0
EXTRACT: note_off channel=0 note=45 velocity=63 time=0
EXTRACT: note_on channel=0 note=64 velocity=63 time=0.11298075416666667
EXTRACT: note_on channel=0 note=59 velocity=63 time=0
EXTRACT: note_on channel=0 note=55 velocity=63 time=0
EXTRACT: note_on channel=0 note=50 velocity=63 time=0
EXTRACT: note_on channel=0 note=45 velocity=63 time=0
EXTRACT: note_off channel=4 note=68 velocity=95 time=0
EXTRACT: note_on channel=4 note=70 velocity=95 time=0
EXTRACT: note_off channel=0 note=64 velocity=63 time=0.031249995833333332
EXTRACT: note_off channel=0 note=59 velocity=63 time=0
EXTRACT: note_off channel=0 note=55 velocity=63 time=0
EXTRACT: note_off channel=0 note=50 velocity=63 time=0
EXTRACT: note_off channel=0 note=45 velocity=63 time=0
EXTRACT: note_on channel=0 note=72 velocity=63 time=0.11298075416666667
EXTRACT: note_on channel=0 note=68 velocity=63 time=0
EXTRACT: note_on channel=0 note=65 velocity=63 time=0
EXTRACT: note_on channel=0 note=60 velocity=63 time=0
EXTRACT: note_on channel=0 note=53 velocity=63 time=0
EXTRACT: note_off channel=2 note=48 velocity=79 time=0
EXTRACT: note_on channel=2 note=46 velocity=79 time=0
EXTRACT: note_off channel=4 note=70 velocity=95 time=0
EXTRACT: note_off channel=0 note=72 velocity=63 time=0.14423075
EXTRACT: note_off channel=0 note=68 velocity=63 time=0
EXTRACT: note_off channel=0 note=65 velocity=63 time=0
EXTRACT: note_off channel=0 note=60 velocity=63 time=0
EXTRACT: note_off channel=0 note=53 velocity=63 time=0
EXTRACT: note_on channel=0 note=72 velocity=63 time=0
EXTRACT: note_on channel=0 note=68 velocity=63 time=0
EXTRACT: note_on channel=0 note=65 velocity=63 time=0
EXTRACT: note_on channel=0 note=60 velocity=63 time=0
EXTRACT: note_on channel=0 note=53 velocity=63 time=0
EXTRACT: note_off channel=2 note=46 velocity=79 time=0
EXTRACT: note_on channel=2 note=48 velocity=54 time=0
EXTRACT: note_on channel=4 note=65 velocity=95 time=0
EXTRACT: note_off channel=0 note=72 velocity=63 time=0.14423075
EXTRACT: note_off channel=0 note=68 velocity=63 time=0
EXTRACT: note_off channel=0 note=65 velocity=63 time=0
EXTRACT: note_off channel=0 note=60 velocity=63 time=0
EXTRACT: note_off channel=0 note=53 velocity=63 time=0
EXTRACT: note_on channel=0 note=64 velocity=63 time=0
EXTRACT: note_on channel=0 note=59 velocity=63 time=0
EXTRACT: note_on channel=0 note=55 velocity=63 time=0
EXTRACT: note_on channel=0 note=50 velocity=63 time=0
EXTRACT: note_on channel=0 note=45 velocity=63 time=0
EXTRACT: note_off channel=2 note=48 velocity=54 time=0
EXTRACT: note_on channel=2 note=51 velocity=79 time=0
EXTRACT: note_off channel=4 note=65 velocity=95 time=0
EXTRACT: note_on channel=4 note=65 velocity=95 time=0
EXTRACT: note_off channel=0 note=64 velocity=63 time=0.031249995833333332
EXTRACT: note_off channel=0 note=59 velocity=63 time=0
EXTRACT: note_off channel=0 note=55 velocity=63 time=0
EXTRACT: note_off channel=0 note=50 velocity=63 time=0
EXTRACT: note_off channel=0 note=45 velocity=63 time=0
EXTRACT: note_on channel=0 note=64 velocity=63 time=0.11298075416666667
EXTRACT: note_on channel=0 note=59 velocity=63 time=0
EXTRACT: note_on channel=0 note=55 velocity=63 time=0
EXTRACT: note_on channel=0 note=50 velocity=63 time=0
EXTRACT: note_on channel=0 note=45 velocity=63 time=0
EXTRACT: note_off channel=4 note=65 velocity=95 time=0
EXTRACT: note_on channel=4 note=68 velocity=95 time=0
EXTRACT: note_off channel=0 note=64 velocity=63 time=0.031249995833333332
EXTRACT: note_off channel=0 note=59 velocity=63 time=0
EXTRACT: note_off channel=0 note=55 velocity=63 time=0
EXTRACT: note_off channel=0 note=50 velocity=63 time=0
EXTRACT: note_off channel=0 note=45 velocity=63 time=0
EXTRACT: note_off channel=2 note=51 velocity=79 time=0.11298075416666667
EXTRACT: note_on channel=2 note=46 velocity=79 time=0
EXTRACT: note_off channel=2 note=46 velocity=79 time=0.14423075
EXTRACT: note_on channel=2 note=48 velocity=54 time=0
EXTRACT: note_off channel=4 note=68 velocity=95 time=0
EXTRACT: note_on channel=4 note=68 velocity=95 time=0
EXTRACT: note_on channel=0 note=75 velocity=63 time=0.14423075
EXTRACT: note_on channel=0 note=70 velocity=63 time=0
EXTRACT: note_on channel=0 note=67 velocity=63 time=0
EXTRACT: note_on channel=0 note=63 velocity=63 time=0
EXTRACT: note_off channel=2 note=48 velocity=54 time=0
EXTRACT: note_on channel=2 note=51 velocity=79 time=0
EXTRACT: note_off channel=4 note=68 velocity=95 time=0
EXTRACT: note_on channel=4 note=70 velocity=95 time=0
EXTRACT: note_off channel=0 note=75 velocity=63 time=0.14423075
EXTRACT: note_off channel=0 note=70 velocity=63 time=0
EXTRACT: note_off channel=0 note=67 velocity=63 time=0
EXTRACT: note_off channel=0 note=63 velocity=63 time=0
EXTRACT: note_on channel=0 note=75 velocity=63 time=0
EXTRACT: note_on channel=0 note=70 velocity=63 time=0
EXTRACT: note_on channel=0 note=67 velocity=63 time=0
EXTRACT: note_on channel=0 note=63 velocity=63 time=0
EXTRACT: note_off channel=0 note=75 velocity=63 time=0.14423075
EXTRACT: note_off channel=0 note=70 velocity=63 time=0
EXTRACT: note_off channel=0 note=67 velocity=63 time=0
EXTRACT: note_off channel=0 note=63 velocity=63 time=0
EXTRACT: note_on channel=0 note=75 velocity=63 time=0
EXTRACT: note_on channel=0 note=70 velocity=63 time=0
EXTRACT: note_on channel=0 note=67 velocity=63 time=0
EXTRACT: note_on channel=0 note=63 velocity=63 time=0
EXTRACT: note_off channel=2 note=51 velocity=79 time=0
EXTRACT: note_off channel=4 note=70 velocity=95 time=0
EXTRACT: note_off channel=0 note=75 velocity=63 time=0.14423075
EXTRACT: note_off channel=0 note=70 velocity=63 time=0
EXTRACT: note_off channel=0 note=67 velocity=63 time=0
EXTRACT: note_off channel=0 note=63 velocity=63 time=0
EXTRACT: note_on channel=0 note=75 velocity=63 time=0
EXTRACT: note_on channel=0 note=70 velocity=63 time=0
EXTRACT: note_on channel=0 note=67 velocity=63 time=0
EXTRACT: note_on channel=0 note=63 velocity=63 time=0
EXTRACT: note_on channel=2 note=45 velocity=79 time=0
EXTRACT: note_off channel=2 note=45 velocity=79 time=0.031249995833333332
EXTRACT: note_off channel=0 note=75 velocity=63 time=0.11298075416666667
EXTRACT: note_off channel=0 note=70 velocity=63 time=0
EXTRACT: note_off channel=0 note=67 velocity=63 time=0
EXTRACT: note_off channel=0 note=63 velocity=63 time=0
EXTRACT: note_on channel=0 note=64 velocity=63 time=0
EXTRACT: note_on channel=0 note=59 velocity=63 time=0
EXTRACT: note_on channel=0 note=55 velocity=63 time=0
EXTRACT: note_on channel=0 note=50 velocity=63 time=0
EXTRACT: note_on channel=2 note=46 velocity=79 time=0
EXTRACT: note_on channel=4 note=63 velocity=95 time=0
EXTRACT: note_off channel=0 note=64 velocity=63 time=0.031249995833333332
EXTRACT: note_off channel=0 note=59 velocity=63 time=0
EXTRACT: note_off channel=0 note=55 velocity=63 time=0
EXTRACT: note_off channel=0 note=50 velocity=63 time=0
EXTRACT: note_on channel=0 note=64 velocity=63 time=0.11298075416666667
EXTRACT: note_on channel=0 note=59 velocity=63 time=0
EXTRACT: note_on channel=0 note=55 velocity=63 time=0
EXTRACT: note_on channel=0 note=50 velocity=63 time=0
EXTRACT: note_off channel=4 note=63 velocity=95 time=0
EXTRACT: note_on channel=4 note=65 velocity=95 time=0
EXTRACT: note_off channel=0 note=64 velocity=63 time=0.031249995833333332
EXTRACT: note_off channel=0 note=59 velocity=63 time=0
EXTRACT: note_off channel=0 note=55 velocity=63 time=0
EXTRACT: note_off channel=0 note=50 velocity=63 time=0
EXTRACT: note_off channel=2 note=46 velocity=79 time=0.11298075416666667
EXTRACT: note_on channel=2 note=48 velocity=79 time=0
EXTRACT: note_off channel=4 note=65 velocity=95 time=0
EXTRACT: note_on channel=4 note=65 velocity=95 time=0
EXTRACT: note_on channel=0 note=72 velocity=63 time=0.2884615
EXTRACT: note_on channel=0 note=68 velocity=63 time=0
EXTRACT: note_on channel=0 note=65 velocity=63 time=0
EXTRACT: note_on channel=0 note=60 velocity=63 time=0
EXTRACT: note_on channel=0 note=53 velocity=63 time=0
EXTRACT: note_off channel=2 note=48 velocity=79 time=0
EXTRACT: note_on channel=2 note=51 velocity=79 time=0
EXTRACT: note_off channel=4 note=65 velocity=95 time=0
EXTRACT: note_on channel=4 note=65 velocity=95 time=0
EXTRACT: note_off channel=0 note=72 velocity=63 time=0.14423075
EXTRACT: note_off channel=0 note=68 velocity=63 time=0
EXTRACT: note_off channel=0 note=65 velocity=63 time=0
EXTRACT: note_off channel=0 note=60 velocity=63 time=0
EXTRACT: note_off channel=0 note=53 velocity=63 time=0
EXTRACT: note_on channel=0 note=72 velocity=63 time=0
EXTRACT: note_on channel=0 note=68 velocity=63 time=0
EXTRACT: note_on channel=0 note=65 velocity=63 time=0
EXTRACT: note_on channel=0 note=60 velocity=63 time=0
EXTRACT: note_on channel=0 note=53 velocity=63 time=0
EXTRACT: note_off channel=4 note=65 velocity=95 time=0
EXTRACT: note_on channel=4 note=65 velocity=95 time=0
EXTRACT: note_off channel=0 note=72 velocity=63 time=0.14423075
EXTRACT: note_off channel=0 note=68 velocity=63 time=0
EXTRACT: note_off channel=0 note=65 velocity=63 time=0
EXTRACT: note_off channel=0 note=60 velocity=63 time=0
EXTRACT: note_off channel=0 note=53 velocity=63 time=0
EXTRACT: note_on channel=0 note=72 velocity=63 time=0
EXTRACT: note_on channel=0 note=68 velocity=63 time=0
EXTRACT: note_on channel=0 note=65 velocity=63 time=0
EXTRACT: note_on channel=0 note=60 velocity=63 time=0
EXTRACT: note_on channel=0 note=53 velocity=63 time=0
EXTRACT: note_off channel=2 note=51 velocity=79 time=0
EXTRACT: note_on channel=2 note=53 velocity=79 time=0
EXTRACT: note_off channel=4 note=65 velocity=95 time=0
EXTRACT: note_off channel=0 note=72 velocity=63 time=0.14423075
EXTRACT: note_off channel=0 note=68 velocity=63 time=0
EXTRACT: note_off channel=0 note=65 velocity=63 time=0
EXTRACT: note_off channel=0 note=60 velocity=63 time=0
EXTRACT: note_off channel=0 note=53 velocity=63 time=0
EXTRACT: note_on channel=0 note=72 velocity=63 time=0
EXTRACT: note_on channel=0 note=68 velocity=63 time=0
EXTRACT: note_on channel=0 note=65 velocity=63 time=0
EXTRACT: note_on channel=0 note=60 velocity=63 time=0
EXTRACT: note_on channel=0 note=53 velocity=63 time=0
EXTRACT: note_off channel=0 note=72 velocity=63 time=0.14423075
EXTRACT: note_off channel=0 note=68 velocity=63 time=0
EXTRACT: note_off channel=0 note=65 velocity=63 time=0
EXTRACT: note_off channel=0 note=60 velocity=63 time=0
EXTRACT: note_off channel=0 note=53 velocity=63 time=0
EXTRACT: note_on channel=0 note=64 velocity=63 time=0
EXTRACT: note_on channel=0 note=59 velocity=63 time=0
EXTRACT: note_on channel=0 note=55 velocity=63 time=0
EXTRACT: note_on channel=0 note=50 velocity=63 time=0
EXTRACT: note_on channel=0 note=45 velocity=63 time=0
EXTRACT: note_on channel=0 note=40 velocity=63 time=0
EXTRACT: note_off channel=2 note=53 velocity=79 time=0
EXTRACT: note_on channel=2 note=56 velocity=79 time=0
EXTRACT: note_off channel=0 note=64 velocity=63 time=0.031249995833333332
EXTRACT: note_off channel=0 note=59 velocity=63 time=0
EXTRACT: note_off channel=0 note=55 velocity=63 time=0
EXTRACT: note_off channel=0 note=50 velocity=63 time=0
EXTRACT: note_off channel=0 note=45 velocity=63 time=0
EXTRACT: note_off channel=0 note=40 velocity=63 time=0
EXTRACT: note_on channel=0 note=64 velocity=63 time=0.11298075416666667
EXTRACT: note_on channel=0 note=59 velocity=63 time=0
EXTRACT: note_on channel=0 note=55 velocity=63 time=0
EXTRACT: note_on channel=0 note=50 velocity=63 time=0
EXTRACT: note_on channel=0 note=45 velocity=63 time=0
EXTRACT: note_on channel=0 note=40 velocity=63 time=0
EXTRACT: note_on channel=4 note=65 velocity=95 time=0
EXTRACT: note_off channel=0 note=64 velocity=63 time=0.031249995833333332
EXTRACT: note_off channel=0 note=59 velocity=63 time=0
EXTRACT: note_off channel=0 note=55 velocity=63 time=0
EXTRACT: note_off channel=0 note=50 velocity=63 time=0
EXTRACT: note_off channel=0 note=45 velocity=63 time=0
EXTRACT: note_off channel=0 note=40 velocity=63 time=0
EXTRACT: note_on channel=0 note=72 velocity=63 time=0.11298075416666667
EXTRACT: note_on channel=0 note=68 velocity=63 time=0
EXTRACT: note_on channel=0 note=65 velocity=63 time=0
EXTRACT: note_on channel=0 note=60 velocity=63 time=0
EXTRACT: note_on channel=0 note=53 velocity=63 time=0
EXTRACT: note_off channel=2 note=56 velocity=79 time=0
EXTRACT: note_on channel=2 note=51 velocity=79 time=0
EXTRACT: note_off channel=4 note=65 velocity=95 time=0
EXTRACT: note_on channel=4 note=72 velocity=95 time=0
EXTRACT: note_off channel=0 note=72 velocity=63 time=0.14423075
EXTRACT: note_off channel=0 note=68 velocity=63 time=0
EXTRACT: note_off channel=0 note=65 velocity=63 time=0
EXTRACT: note_off channel=0 note=60 velocity=63 time=0
EXTRACT: note_off channel=0 note=53 velocity=63 time=0
EXTRACT: note_on channel=0 note=72 velocity=63 time=0
EXTRACT: note_on channel=0 note=68 velocity=63 time=0
EXTRACT: note_on channel=0 note=65 velocity=63 time=0
EXTRACT: note_on channel=0 note=60 velocity=63 time=0
EXTRACT: note_on channel=0 note=53 velocity=63 time=0
EXTRACT: note_off channel=2 note=51 velocity=79 time=0
EXTRACT: note_on channel=2 note=53 velocity=54 time=0
EXTRACT: note_off channel=4 note=72 velocity=95 time=0
EXTRACT: note_on channel=4 note=72 velocity=95 time=0
EXTRACT: note_off channel=0 note=72 velocity=63 time=0.14423075
EXTRACT: note_off channel=0 note=68 velocity=63 time=0
EXTRACT: note_off channel=0 note=65 velocity=63 time=0
EXTRACT: note_off channel=0 note=60 velocity=63 time=0
EXTRACT: note_off channel=0 note=53 velocity=63 time=0
EXTRACT: note_on channel=0 note=64 velocity=63 time=0
EXTRACT: note_on channel=0 note=59 velocity=63 time=0
EXTRACT: note_on channel=0 note=55 velocity=63 time=0
EXTRACT: note_on channel=0 note=50 velocity=63 time=0
EXTRACT: note_on channel=0 note=45 velocity=63 time=0
EXTRACT: note_off channel=0 note=64 velocity=63 time=0.031249995833333332
EXTRACT: note_off channel=0 note=59 velocity=63 time=0
EXTRACT: note_off channel=0 note=55 velocity=63 time=0
EXTRACT: note_off channel=0 note=50 velocity=63 time=0
EXTRACT: note_off channel=0 note=45 velocity=63 time=0
EXTRACT: note_on channel=0 note=64 velocity=63 time=0.11298075416666667
EXTRACT: note_on channel=0 note=59 velocity=63 time=0
EXTRACT: note_on channel=0 note=55 velocity=63 time=0
EXTRACT: note_on channel=0 note=50 velocity=63 time=0
EXTRACT: note_on channel=0 note=45 velocity=63 time=0
EXTRACT: note_off channel=2 note=53 velocity=54 time=0
EXTRACT: note_on channel=2 note=56 velocity=79 time=0
EXTRACT: note_off channel=4 note=72 velocity=95 time=0
EXTRACT: note_on channel=4 note=72 velocity=95 time=0
EXTRACT: note_off channel=0 note=64 velocity=63 time=0.031249995833333332
EXTRACT: note_off channel=0 note=59 velocity=63 time=0
EXTRACT: note_off channel=0 note=55 velocity=63 time=0
EXTRACT: note_off channel=0 note=50 velocity=63 time=0
EXTRACT: note_off channel=0 note=45 velocity=63 time=0
EXTRACT: note_on channel=0 note=72 velocity=63 time=0.11298075416666667
EXTRACT: note_on channel=0 note=68 velocity=63 time=0
EXTRACT: note_on channel=0 note=65 velocity=63 time=0
EXTRACT: note_on channel=0 note=60 velocity=63 time=0
EXTRACT: note_on channel=0 note=53 velocity=63 time=0
EXTRACT: note_off channel=2 note=56 velocity=79 time=0
EXTRACT: note_off channel=4 note=72 velocity=95 time=0
EXTRACT: note_off channel=0 note=72 velocity=63 time=0.14423075
EXTRACT: note_off channel=0 note=68 velocity=63 time=0
EXTRACT: note_off channel=0 note=65 velocity=63 time=0
EXTRACT: note_off channel=0 note=60 velocity=63 time=0
EXTRACT: note_off channel=0 note=53 velocity=63 time=0
EXTRACT: note_on channel=0 note=72 velocity=63 time=0
EXTRACT: note_on channel=0 note=68 velocity=63 time=0
EXTRACT: note_on channel=0 note=65 velocity=63 time=0
EXTRACT: note_on channel=0 note=60 velocity=63 time=0
EXTRACT: note_on channel=0 note=53 velocity=63 time=0
EXTRACT: note_off channel=0 note=72 velocity=63 time=0.14423075
EXTRACT: note_off channel=0 note=68 velocity=63 time=0
EXTRACT: note_off channel=0 note=65 velocity=63 time=0
EXTRACT: note_off channel=0 note=60 velocity=63 time=0
EXTRACT: note_off channel=0 note=53 velocity=63 time=0
EXTRACT: note_on channel=0 note=64 velocity=63 time=0
EXTRACT: note_on channel=0 note=59 velocity=63 time=0
EXTRACT: note_on channel=0 note=55 velocity=63 time=0
EXTRACT: note_on channel=0 note=50 velocity=63 time=0
EXTRACT: note_on channel=0 note=45 velocity=63 time=0
EXTRACT: note_on channel=2 note=51 velocity=79 time=0
EXTRACT: note_on channel=4 note=65 velocity=95 time=0
EXTRACT: note_off channel=0 note=64 velocity=63 time=0.031249995833333332
EXTRACT: note_off channel=0 note=59 velocity=63 time=0
EXTRACT: note_off channel=0 note=55 velocity=63 time=0
EXTRACT: note_off channel=0 note=50 velocity=63 time=0
EXTRACT: note_off channel=0 note=45 velocity=63 time=0
EXTRACT: note_on channel=0 note=64 velocity=63 time=0.11298075416666667
EXTRACT: note_on channel=0 note=59 velocity=63 time=0
EXTRACT: note_on channel=0 note=55 velocity=63 time=0
EXTRACT: note_on channel=0 note=50 velocity=63 time=0
EXTRACT: note_on channel=0 note=45 velocity=63 time=0
EXTRACT: note_off channel=4 note=65 velocity=95 time=0
EXTRACT: note_on channel=4 note=68 velocity=95 time=0
EXTRACT: note_off channel=0 note=64 velocity=63 time=0.031249995833333332
EXTRACT: note_off channel=0 note=59 velocity=63 time=0
EXTRACT: note_off channel=0 note=55 velocity=63 time=0
EXTRACT: note_off channel=0 note=50 velocity=63 time=0
EXTRACT: note_off channel=0 note=45 velocity=63 time=0
EXTRACT: note_on channel=0 note=72 velocity=63 time=0.11298075416666667
EXTRACT: note_on channel=0 note=68 velocity=63 time=0
EXTRACT: note_on channel=0 note=65 velocity=63 time=0
EXTRACT: note_on channel=0 note=60 velocity=63 time=0
EXTRACT: note_on channel=0 note=53 velocity=63 time=0
EXTRACT: note_off channel=2 note=51 velocity=79 time=0
EXTRACT: note_off channel=0 note=72 velocity=63 time=0.14423075
EXTRACT: note_off channel=0 note=68 velocity=63 time=0
EXTRACT: note_off channel=0 note=65 velocity=63 time=0
EXTRACT: note_off channel=0 note=60 velocity=63 time=0
EXTRACT: note_off channel=0 note=53 velocity=63 time=0
EXTRACT: note_on channel=0 note=72 velocity=63 time=0
EXTRACT: note_on channel=0 note=68 velocity=63 time=0
EXTRACT: note_on channel=0 note=65 velocity=63 time=0
EXTRACT: note_on channel=0 note=60 velocity=63 time=0
EXTRACT: note_on channel=0 note=53 velocity=63 time=0
EXTRACT: note_off channel=4 note=68 velocity=95 time=0
EXTRACT: note_on channel=4 note=68 velocity=95 time=0
EXTRACT: note_off channel=0 note=72 velocity=63 time=0.14423075
EXTRACT: note_off channel=0 note=68 velocity=63 time=0
EXTRACT: note_off channel=0 note=65 velocity=63 time=0
EXTRACT: note_off channel=0 note=60 velocity=63 time=0
EXTRACT: note_off channel=0 note=53 velocity=63 time=0
EXTRACT: note_on channel=0 note=64 velocity=63 time=0
EXTRACT: note_on channel=0 note=59 velocity=63 time=0
EXTRACT: note_on channel=0 note=55 velocity=63 time=0
EXTRACT: note_on channel=0 note=50 velocity=63 time=0
EXTRACT: note_on channel=0 note=45 velocity=63 time=0
EXTRACT: note_on channel=2 note=48 velocity=79 time=0
EXTRACT: note_off channel=0 note=64 velocity=63 time=0.031249995833333332
EXTRACT: note_off channel=0 note=59 velocity=63 time=0
EXTRACT: note_off channel=0 note=55 velocity=63 time=0
EXTRACT: note_off channel=0 note=50 velocity=63 time=0
EXTRACT: note_off channel=0 note=45 velocity=63 time=0
EXTRACT: note_on channel=0 note=64 velocity=63 time=0.11298075416666667
EXTRACT: note_on channel=0 note=59 velocity=63 time=0
EXTRACT: note_on channel=0 note=55 velocity=63 time=0
EXTRACT: note_on channel=0 note=50 velocity=63 time=0
EXTRACT: note_on channel=0 note=45 velocity=63 time=0
EXTRACT: note_off channel=4 note=68 velocity=95 time=0
EXTRACT: note_on channel=4 note=70 velocity=95 time=0
EXTRACT: note_off channel=0 note=64 velocity=63 time=0.031249995833333332
EXTRACT: note_off channel=0 note=59 velocity=63 time=0
EXTRACT: note_off channel=0 note=55 velocity=63 time=0
EXTRACT: note_off channel=0 note=50 velocity=63 time=0
EXTRACT: note_off channel=0 note=45 velocity=63 time=0
EXTRACT: note_on channel=0 note=72 velocity=63 time=0.11298075416666667
EXTRACT: note_on channel=0 note=68 velocity=63 time=0
EXTRACT: note_on channel=0 note=65 velocity=63 time=0
EXTRACT: note_on channel=0 note=60 velocity=63 time=0
EXTRACT: note_on channel=0 note=53 velocity=63 time=0
EXTRACT: note_off channel=2 note=48 velocity=79 time=0
EXTRACT: note_on channel=2 note=46 velocity=79 time=0
EXTRACT: note_off channel=4 note=70 velocity=95 time=0
EXTRACT: note_off channel=0 note=72 velocity=63 time=0.14423075
EXTRACT: note_off channel=0 note=68 velocity=63 time=0
EXTRACT: note_off channel=0 note=65 velocity=63 time=0
EXTRACT: note_off channel=0 note=60 velocity=63 time=0
EXTRACT: note_off channel=0 note=53 velocity=63 time=0
EXTRACT: note_on channel=0 note=72 velocity=63 time=0
EXTRACT: note_on channel=0 note=68 velocity=63 time=0
EXTRACT: note_on channel=0 note=65 velocity=63 time=0
EXTRACT: note_on channel=0 note=60 velocity=63 time=0
EXTRACT: note_on channel=0 note=53 velocity=63 time=0
EXTRACT: note_off channel=2 note=46 velocity=79 time=0
EXTRACT: note_on channel=2 note=48 velocity=54 time=0
EXTRACT: note_on channel=4 note=65 velocity=95 time=0
EXTRACT: note_off channel=0 note=72 velocity=63 time=0.14423075
EXTRACT: note_off channel=0 note=68 velocity=63 time=0
EXTRACT: note_off channel=0 note=65 velocity=63 time=0
EXTRACT: note_off channel=0 note=60 velocity=63 time=0
EXTRACT: note_off channel=0 note=53 velocity=63 time=0
EXTRACT: note_on channel=0 note=64 velocity=63 time=0
EXTRACT: note_on channel=0 note=59 velocity=63 time=0
EXTRACT: note_on channel=0 note=55 velocity=63 time=0
EXTRACT: note_on channel=0 note=50 velocity=63 time=0
EXTRACT: note_on channel=0 note=45 velocity=63 time=0
EXTRACT: note_off channel=2 note=48 velocity=54 time=0
EXTRACT: note_on channel=2 note=51 velocity=79 time=0
EXTRACT: note_off channel=4 note=65 velocity=95 time=0
EXTRACT: note_on channel=4 note=65 velocity=95 time=0
EXTRACT: note_off channel=0 note=64 velocity=63 time=0.031249995833333332
EXTRACT: note_off channel=0 note=59 velocity=63 time=0
EXTRACT: note_off channel=0 note=55 velocity=63 time=0
EXTRACT: note_off channel=0 note=50 velocity=63 time=0
EXTRACT: note_off channel=0 note=45 velocity=63 time=0
EXTRACT: note_on channel=0 note=64 velocity=63 time=0.11298075416666667
EXTRACT: note_on channel=0 note=59 velocity=63 time=0
EXTRACT: note_on channel=0 note=55 velocity=63 time=0
EXTRACT: note_on channel=0 note=50 velocity=63 time=0
EXTRACT: note_on channel=0 note=45 velocity=63 time=0
EXTRACT: note_off channel=0 note=64 velocity=63 time=0.031249995833333332
EXTRACT: note_off channel=0 note=59 velocity=63 time=0
EXTRACT: note_off channel=0 note=55 velocity=63 time=0
EXTRACT: note_off channel=0 note=50 velocity=63 time=0
EXTRACT: note_off channel=0 note=45 velocity=63 time=0
EXTRACT: note_off channel=2 note=51 velocity=79 time=0.11298075416666667
EXTRACT: note_on channel=2 note=46 velocity=79 time=0
EXTRACT: note_off channel=4 note=65 velocity=95 time=0
EXTRACT: note_on channel=4 note=68 velocity=95 time=0
EXTRACT: note_off channel=2 note=46 velocity=79 time=0.14423075
EXTRACT: note_on channel=2 note=48 velocity=54 time=0
EXTRACT: note_on channel=0 note=75 velocity=63 time=0.14423075
EXTRACT: note_on channel=0 note=70 velocity=63 time=0
EXTRACT: note_on channel=0 note=67 velocity=63 time=0
EXTRACT: note_on channel=0 note=63 velocity=63 time=0
EXTRACT: note_off channel=2 note=48 velocity=54 time=0
EXTRACT: note_on channel=2 note=51 velocity=79 time=0
EXTRACT: note_off channel=4 note=68 velocity=95 time=0
EXTRACT: note_on channel=4 note=68 velocity=95 time=0
EXTRACT: note_off channel=0 note=75 velocity=63 time=0.14423075
EXTRACT: note_off channel=0 note=70 velocity=63 time=0
EXTRACT: note_off channel=0 note=67 velocity=63 time=0
EXTRACT: note_off channel=0 note=63 velocity=63 time=0
EXTRACT: note_on channel=0 note=75 velocity=63 time=0
EXTRACT: note_on channel=0 note=70 velocity=63 time=0
EXTRACT: note_on channel=0 note=67 velocity=63 time=0
EXTRACT: note_on channel=0 note=63 velocity=63 time=0
EXTRACT: note_off channel=4 note=68 velocity=95 time=0
EXTRACT: note_on channel=4 note=68 velocity=95 time=0
EXTRACT: note_off channel=0 note=75 velocity=63 time=0.14423075
EXTRACT: note_off channel=0 note=70 velocity=63 time=0
EXTRACT: note_off channel=0 note=67 velocity=63 time=0
EXTRACT: note_off channel=0 note=63 velocity=63 time=0
EXTRACT: note_on channel=0 note=75 velocity=63 time=0
EXTRACT: note_on channel=0 note=70 velocity=63 time=0
EXTRACT: note_on channel=0 note=67 velocity=63 time=0
EXTRACT: note_on channel=0 note=63 velocity=63 time=0
EXTRACT: note_off channel=2 note=51 velocity=79 time=0
EXTRACT: note_off channel=4 note=68 velocity=95 time=0
EXTRACT: note_on channel=4 note=63 velocity=95 time=0
EXTRACT: note_off channel=0 note=75 velocity=63 time=0.14423075
EXTRACT: note_off channel=0 note=70 velocity=63 time=0
EXTRACT: note_off channel=0 note=67 velocity=63 time=0
EXTRACT: note_off channel=0 note=63 velocity=63 time=0
EXTRACT: note_on channel=0 note=75 velocity=63 time=0
EXTRACT: note_on channel=0 note=70 velocity=63 time=0
EXTRACT: note_on channel=0 note=67 velocity=63 time=0
EXTRACT: note_on channel=0 note=63 velocity=63 time=0
EXTRACT: note_on channel=2 note=45 velocity=79 time=0
EXTRACT: note_off channel=2 note=45 velocity=79 time=0.031249995833333332
EXTRACT: note_off channel=0 note=75 velocity=63 time=0.11298075416666667
EXTRACT: note_off channel=0 note=70 velocity=63 time=0
EXTRACT: note_off channel=0 note=67 velocity=63 time=0
EXTRACT: note_off channel=0 note=63 velocity=63 time=0
EXTRACT: note_on channel=0 note=64 velocity=63 time=0
EXTRACT: note_on channel=0 note=59 velocity=63 time=0
EXTRACT: note_on channel=0 note=55 velocity=63 time=0
EXTRACT: note_on channel=0 note=50 velocity=63 time=0
EXTRACT: note_on channel=2 note=46 velocity=79 time=0
EXTRACT: note_off channel=4 note=63 velocity=95 time=0
EXTRACT: note_on channel=4 note=63 velocity=95 time=0
EXTRACT: note_off channel=0 note=64 velocity=63 time=0.031249995833333332
EXTRACT: note_off channel=0 note=59 velocity=63 time=0
EXTRACT: note_off channel=0 note=55 velocity=63 time=0
EXTRACT: note_off channel=0 note=50 velocity=63 time=0
EXTRACT: note_on channel=0 note=64 velocity=63 time=0.11298075416666667
EXTRACT: note_on channel=0 note=59 velocity=63 time=0
EXTRACT: note_on channel=0 note=55 velocity=63 time=0
EXTRACT: note_on channel=0 note=50 velocity=63 time=0
EXTRACT: note_off channel=4 note=63 velocity=95 time=0
EXTRACT: note_on channel=4 note=65 velocity=95 time=0
EXTRACT: note_off channel=0 note=64 velocity=63 time=0.031249995833333332
EXTRACT: note_off channel=0 note=59 velocity=63 time=0
EXTRACT: note_off channel=0 note=55 velocity=63 time=0
EXTRACT: note_off channel=0 note=50 velocity=63 time=0
EXTRACT: note_off channel=2 note=46 velocity=79 time=0.11298075416666667
EXTRACT: note_on channel=2 note=48 velocity=79 time=0
EXTRACT: note_off channel=4 note=65 velocity=95 time=0.14423075
EXTRACT: note_on channel=4 note=65 velocity=95 time=0
EXTRACT: note_on channel=0 note=72 velocity=63 time=0.14423075
EXTRACT: note_on channel=0 note=68 velocity=63 time=0
EXTRACT: note_on channel=0 note=65 velocity=63 time=0
EXTRACT: note_on channel=0 note=60 velocity=63 time=0
EXTRACT: note_on channel=0 note=53 velocity=63 time=0
EXTRACT: note_off channel=2 note=48 velocity=79 time=0
EXTRACT: note_on channel=2 note=51 velocity=79 time=0
EXTRACT: note_off channel=0 note=72 velocity=63 time=0.14423075
EXTRACT: note_off channel=0 note=68 velocity=63 time=0
EXTRACT: note_off channel=0 note=65 velocity=63 time=0
EXTRACT: note_off channel=0 note=60 velocity=63 time=0
EXTRACT: note_off channel=0 note=53 velocity=63 time=0
EXTRACT: note_on channel=0 note=72 velocity=63 time=0
EXTRACT: note_on channel=0 note=68 velocity=63 time=0
EXTRACT: note_on channel=0 note=65 velocity=63 time=0
EXTRACT: note_on channel=0 note=60 velocity=63 time=0
EXTRACT: note_on channel=0 note=53 velocity=63 time=0
EXTRACT: note_off channel=4 note=65 velocity=95 time=0
EXTRACT: note_on channel=4 note=65 velocity=95 time=0
EXTRACT: note_off channel=0 note=72 velocity=63 time=0.14423075
EXTRACT: note_off channel=0 note=68 velocity=63 time=0
EXTRACT: note_off channel=0 note=65 velocity=63 time=0
EXTRACT: note_off channel=0 note=60 velocity=63 time=0
EXTRACT: note_off channel=0 note=53 velocity=63 time=0
EXTRACT: note_on channel=0 note=72 velocity=63 time=0
EXTRACT: note_on channel=0 note=68 velocity=63 time=0
EXTRACT: note_on channel=0 note=65 velocity=63 time=0
EXTRACT: note_on channel=0 note=60 velocity=63 time=0
EXTRACT: note_on channel=0 note=53 velocity=63 time=0
EXTRACT: note_off channel=2 note=51 velocity=79 time=0
EXTRACT: note_on channel=2 note=53 velocity=79 time=0
EXTRACT: note_off channel=0 note=72 velocity=63 time=0.14423075
EXTRACT: note_off channel=0 note=68 velocity=63 time=0
EXTRACT: note_off channel=0 note=65 velocity=63 time=0
EXTRACT: note_off channel=0 note=60 velocity=63 time=0
EXTRACT: note_off channel=0 note=53 velocity=63 time=0
EXTRACT: note_on channel=0 note=72 velocity=63 time=0
EXTRACT: note_on channel=0 note=68 velocity=63 time=0
EXTRACT: note_on channel=0 note=65 velocity=63 time=0
EXTRACT: note_on channel=0 note=60 velocity=63 time=0
EXTRACT: note_on channel=0 note=53 velocity=63 time=0
EXTRACT: note_off channel=4 note=65 velocity=95 time=0
EXTRACT: note_on channel=4 note=65 velocity=95 time=0
EXTRACT: note_off channel=0 note=72 velocity=63 time=0.14423075
EXTRACT: note_off channel=0 note=68 velocity=63 time=0
EXTRACT: note_off channel=0 note=65 velocity=63 time=0
EXTRACT: note_off channel=0 note=60 velocity=63 time=0
EXTRACT: note_off channel=0 note=53 velocity=63 time=0
EXTRACT: note_on channel=0 note=64 velocity=63 time=0
EXTRACT: note_on channel=0 note=59 velocity=63 time=0
EXTRACT: note_on channel=0 note=55 velocity=63 time=0
EXTRACT: note_on channel=0 note=50 velocity=63 time=0
EXTRACT: note_on channel=0 note=45 velocity=63 time=0
EXTRACT: note_on channel=0 note=40 velocity=63 time=0
EXTRACT: note_off channel=2 note=53 velocity=79 time=0
EXTRACT: note_on channel=2 note=56 velocity=79 time=0
EXTRACT: note_off channel=4 note=65 velocity=95 time=0
EXTRACT: note_on channel=4 note=68 velocity=95 time=0
EXTRACT: note_off channel=0 note=64 velocity=63 time=0.031249995833333332
EXTRACT: note_off channel=0 note=59 velocity=63 time=0
EXTRACT: note_off channel=0 note=55 velocity=63 time=0
EXTRACT: note_off channel=0 note=50 velocity=63 time=0
EXTRACT: note_off channel=0 note=45 velocity=63 time=0
EXTRACT: note_off channel=0 note=40 velocity=63 time=0
EXTRACT: note_on channel=0 note=64 velocity=63 time=0.11298075416666667
EXTRACT: note_on channel=0 note=59 velocity=63 time=0
EXTRACT: note_on channel=0 note=55 velocity=63 time=0
EXTRACT: note_on channel=0 note=50 velocity=63 time=0
EXTRACT: note_on channel=0 note=45 velocity=63 time=0
EXTRACT: note_on channel=0 note=40 velocity=63 time=0
EXTRACT: note_off channel=4 note=68 velocity=95 time=0
EXTRACT: note_on channel=4 note=68 velocity=95 time=0
EXTRACT: note_off channel=0 note=64 velocity=63 time=0.031249995833333332
EXTRACT: note_off channel=0 note=59 velocity=63 time=0
EXTRACT: note_off channel=0 note=55 velocity=63 time=0
EXTRACT: note_off channel=0 note=50 velocity=63 time=0
EXTRACT: note_off channel=0 note=45 velocity=63 time=0
EXTRACT: note_off channel=0 note=40 velocity=63 time=0
EXTRACT: note_off channel=2 note=56 velocity=79 time=0.11298075416666667
EXTRACT: note_on channel=2 note=53 velocity=79 time=0
EXTRACT: note_off channel=4 note=68 velocity=95 time=0
EXTRACT: note_on channel=4 note=68 velocity=95 time=0
EXTRACT: note_off channel=2 note=53 velocity=79 time=0.14423075
EXTRACT: note_off channel=4 note=68 velocity=95 time=0
EXTRACT: note_on channel=4 note=70 velocity=95 time=0
EXTRACT: note_on channel=0 note=70 velocity=63 time=0.14423075
EXTRACT: note_on channel=0 note=65 velocity=63 time=0
EXTRACT: note_on channel=0 note=62 velocity=63 time=0
EXTRACT: note_on channel=0 note=58 velocity=63 time=0
EXTRACT: note_on channel=0 note=53 velocity=63 time=0
EXTRACT: note_on channel=0 note=46 velocity=63 time=0
EXTRACT: note_on channel=2 note=58 velocity=79 time=0
EXTRACT: note_off channel=0 note=70 velocity=63 time=0.14423075
EXTRACT: note_off channel=0 note=65 velocity=63 time=0
EXTRACT: note_off channel=0 note=62 velocity=63 time=0
EXTRACT: note_off channel=0 note=58 velocity=63 time=0
EXTRACT: note_off channel=0 note=53 velocity=63 time=0
EXTRACT: note_off channel=0 note=46 velocity=63 time=0
EXTRACT: note_on channel=0 note=70 velocity=63 time=0
EXTRACT: note_on channel=0 note=65 velocity=63 time=0
EXTRACT: note_on channel=0 note=62 velocity=63 time=0
EXTRACT: note_on channel=0 note=58 velocity=63 time=0
EXTRACT: note_on channel=0 note=53 velocity=63 time=0
EXTRACT: note_on channel=0 note=46 velocity=63 time=0
EXTRACT: note_off channel=2 note=58 velocity=79 time=0
EXTRACT: note_off channel=4 note=70 velocity=95 time=0
EXTRACT: note_on channel=4 note=70 velocity=95 time=0
EXTRACT: note_off channel=0 note=70 velocity=63 time=0.14423075
EXTRACT: note_off channel=0 note=65 velocity=63 time=0
EXTRACT: note_off channel=0 note=62 velocity=63 time=0
EXTRACT: note_off channel=0 note=58 velocity=63 time=0
EXTRACT: note_off channel=0 note=53 velocity=63 time=0
EXTRACT: note_off channel=0 note=46 velocity=63 time=0
EXTRACT: note_on channel=0 note=70 velocity=63 time=0
EXTRACT: note_on channel=0 note=65 velocity=63 time=0
EXTRACT: note_on channel=0 note=62 velocity=63 time=0
EXTRACT: note_on channel=0 note=58 velocity=63 time=0
EXTRACT: note_on channel=0 note=53 velocity=63 time=0
EXTRACT: note_on channel=0 note=46 velocity=63 time=0
EXTRACT: note_on channel=2 note=58 velocity=79 time=0
EXTRACT: note_off channel=4 note=70 velocity=95 time=0
EXTRACT: note_off channel=0 note=70 velocity=63 time=0.14423075
EXTRACT: note_off channel=0 note=65 velocity=63 time=0
EXTRACT: note_off channel=0 note=62 velocity=63 time=0
EXTRACT: note_off channel=0 note=58 velocity=63 time=0
EXTRACT: note_off channel=0 note=53 velocity=63 time=0
EXTRACT: note_off channel=0 note=46 velocity=63 time=0
EXTRACT: note_on channel=0 note=70 velocity=63 time=0
EXTRACT: note_on channel=0 note=65 velocity=63 time=0
EXTRACT: note_on channel=0 note=62 velocity=63 time=0
EXTRACT: note_on channel=0 note=58 velocity=63 time=0
EXTRACT: note_on channel=0 note=53 velocity=63 time=0
EXTRACT: note_on channel=0 note=46 velocity=63 time=0
EXTRACT: note_off channel=2 note=58 velocity=79 time=0
EXTRACT: note_off channel=0 note=70 velocity=63 time=0.14423075
EXTRACT: note_off channel=0 note=65 velocity=63 time=0
EXTRACT: note_off channel=0 note=62 velocity=63 time=0
EXTRACT: note_off channel=0 note=58 velocity=63 time=0
EXTRACT: note_off channel=0 note=53 velocity=63 time=0
EXTRACT: note_off channel=0 note=46 velocity=63 time=0
EXTRACT: note_on channel=0 note=64 velocity=63 time=0
EXTRACT: note_on channel=0 note=59 velocity=63 time=0
EXTRACT: note_on channel=0 note=55 velocity=63 time=0
EXTRACT: note_on channel=0 note=50 velocity=63 time=0
EXTRACT: note_on channel=0 note=45 velocity=63 time=0
EXTRACT: note_on channel=0 note=40 velocity=63 time=0
EXTRACT: note_off channel=0 note=64 velocity=63 time=0.031249995833333332
EXTRACT: note_off channel=0 note=59 velocity=63 time=0
EXTRACT: note_off channel=0 note=55 velocity=63 time=0
EXTRACT: note_off channel=0 note=50 velocity=63 time=0
EXTRACT: note_off channel=0 note=45 velocity=63 time=0
EXTRACT: note_off channel=0 note=40 velocity=63 time=0
EXTRACT: note_on channel=0 note=64 velocity=63 time=0.11298075416666667
EXTRACT: note_on channel=0 note=59 velocity=63 time=0
EXTRACT: note_on channel=0 note=55 velocity=63 time=0
EXTRACT: note_on channel=0 note=50 velocity=63 time=0
EXTRACT: note_on channel=0 note=45 velocity=63 time=0
EXTRACT: note_on channel=0 note=40 velocity=63 time=0
EXTRACT: note_on channel=2 note=56 velocity=79 time=0
EXTRACT: note_off channel=0 note=64 velocity=63 time=0.031249995833333332
EXTRACT: note_off channel=0 note=59 velocity=63 time=0
EXTRACT: note_off channel=0 note=55 velocity=63 time=0
EXTRACT: note_off channel=0 note=50 velocity=63 time=0
EXTRACT: note_off channel=0 note=45 velocity=63 time=0
EXTRACT: note_off channel=0 note=40 velocity=63 time=0
EXTRACT: note_off channel=2 note=56 velocity=79 time=0.11298075416666667
EXTRACT: note_on channel=4 note=68 velocity=95 time=0
EXTRACT: note_on channel=2 note=56 velocity=79 time=0.14423075
EXTRACT: note_off channel=4 note=68 velocity=95 time=0
EXTRACT: note_on channel=4 note=70 velocity=95 time=0
EXTRACT: note_on channel=0 note=70 velocity=63 time=0.14423075
EXTRACT: note_on channel=0 note=65 velocity=63 time=0
EXTRACT: note_on channel=0 note=62 velocity=63 time=0
EXTRACT: note_on channel=0 note=58 velocity=63 time=0
EXTRACT: note_on channel=0 note=53 velocity=63 time=0
EXTRACT: note_on channel=0 note=46 velocity=63 time=0
EXTRACT: note_off channel=2 note=56 velocity=79 time=0
EXTRACT: note_off channel=0 note=70 velocity=63 time=0.14423075
EXTRACT: note_off channel=0 note=65 velocity=63 time=0
EXTRACT: note_off channel=0 note=62 velocity=63 time=0
EXTRACT: note_off channel=0 note=58 velocity=63 time=0
EXTRACT: note_off channel=0 note=53 velocity=63 time=0
EXTRACT: note_off channel=0 note=46 velocity=63 time=0
EXTRACT: note_on channel=0 note=70 velocity=63 time=0
EXTRACT: note_on channel=0 note=65 velocity=63 time=0
EXTRACT: note_on channel=0 note=62 velocity=63 time=0
EXTRACT: note_on channel=0 note=58 velocity=63 time=0
EXTRACT: note_on channel=0 note=53 velocity=63 time=0
EXTRACT: note_on channel=0 note=46 velocity=63 time=0
EXTRACT: note_on channel=2 note=53 velocity=79 time=0
EXTRACT: note_off channel=4 note=70 velocity=95 time=0
EXTRACT: note_on channel=4 note=70 velocity=95 time=0
EXTRACT: note_off channel=0 note=70 velocity=63 time=0.14423075
EXTRACT: note_off channel=0 note=65 velocity=63 time=0
EXTRACT: note_off channel=0 note=62 velocity=63 time=0
EXTRACT: note_off channel=0 note=58 velocity=63 time=0
EXTRACT: note_off channel=0 note=53 velocity=63 time=0
EXTRACT: note_off channel=0 note=46 velocity=63 time=0
EXTRACT: note_on channel=0 note=70 velocity=63 time=0
EXTRACT: note_on channel=0 note=65 velocity=63 time=0
EXTRACT: note_on channel=0 note=62 velocity=63 time=0
EXTRACT: note_on channel=0 note=58 velocity=63 time=0
EXTRACT: note_on channel=0 note=53 velocity=63 time=0
EXTRACT: note_on channel=0 note=46 velocity=63 time=0
EXTRACT: note_off channel=2 note=53 velocity=79 time=0
EXTRACT: note_on channel=2 note=56 velocity=79 time=0
EXTRACT: note_off channel=4 note=70 velocity=95 time=0
EXTRACT: note_off channel=0 note=70 velocity=63 time=0.14423075
EXTRACT: note_off channel=0 note=65 velocity=63 time=0
EXTRACT: note_off channel=0 note=62 velocity=63 time=0
EXTRACT: note_off channel=0 note=58 velocity=63 time=0
EXTRACT: note_off channel=0 note=53 velocity=63 time=0
EXTRACT: note_off channel=0 note=46 velocity=63 time=0
EXTRACT: note_on channel=0 note=70 velocity=63 time=0
EXTRACT: note_on channel=0 note=65 velocity=63 time=0
EXTRACT: note_on channel=0 note=62 velocity=63 time=0
EXTRACT: note_on channel=0 note=58 velocity=63 time=0
EXTRACT: note_on channel=0 note=53 velocity=63 time=0
EXTRACT: note_on channel=0 note=46 velocity=63 time=0
EXTRACT: note_off channel=0 note=70 velocity=63 time=0.14423075
EXTRACT: note_off channel=0 note=65 velocity=63 time=0
EXTRACT: note_off channel=0 note=62 velocity=63 time=0
EXTRACT: note_off channel=0 note=58 velocity=63 time=0
EXTRACT: note_off channel=0 note=53 velocity=63 time=0
EXTRACT: note_off channel=0 note=46 velocity=63 time=0
EXTRACT: note_on channel=0 note=64 velocity=63 time=0
EXTRACT: note_on channel=0 note=59 velocity=63 time=0
EXTRACT: note_on channel=0 note=55 velocity=63 time=0
EXTRACT: note_on channel=0 note=50 velocity=63 time=0
EXTRACT: note_on channel=0 note=45 velocity=63 time=0
EXTRACT: note_on channel=0 note=40 velocity=63 time=0
EXTRACT: note_off channel=2 note=56 velocity=79 time=0
EXTRACT: note_on channel=2 note=53 velocity=79 time=0
EXTRACT: note_off channel=0 note=64 velocity=63 time=0.031249995833333332
EXTRACT: note_off channel=0 note=59 velocity=63 time=0
EXTRACT: note_off channel=0 note=55 velocity=63 time=0
EXTRACT: note_off channel=0 note=50 velocity=63 time=0
EXTRACT: note_off channel=0 note=45 velocity=63 time=0
EXTRACT: note_off channel=0 note=40 velocity=63 time=0
EXTRACT: note_on channel=0 note=64 velocity=63 time=0.11298075416666667
EXTRACT: note_on channel=0 note=59 velocity=63 time=0
EXTRACT: note_on channel=0 note=55 velocity=63 time=0
EXTRACT: note_on channel=0 note=50 velocity=63 time=0
EXTRACT: note_on channel=0 note=45 velocity=63 time=0
EXTRACT: note_on channel=0 note=40 velocity=63 time=0
EXTRACT: note_off channel=2 note=53 velocity=79 time=0
EXTRACT: note_on channel=4 note=65 velocity=95 time=0
EXTRACT: note_off channel=0 note=64 velocity=63 time=0.031249995833333332
EXTRACT: note_off channel=0 note=59 velocity=63 time=0
EXTRACT: note_off channel=0 note=55 velocity=63 time=0
EXTRACT: note_off channel=0 note=50 velocity=63 time=0
EXTRACT: note_off channel=0 note=45 velocity=63 time=0
EXTRACT: note_off channel=0 note=40 velocity=63 time=0
EXTRACT: note_on channel=2 note=53 velocity=79 time=0.11298075416666667
EXTRACT: note_off channel=4 note=65 velocity=95 time=0
EXTRACT: note_on channel=4 note=68 velocity=95 time=0
EXTRACT: note_off channel=2 note=53 velocity=79 time=0.14423075
EXTRACT: note_off channel=4 note=68 velocity=95 time=0
EXTRACT: note_on channel=4 note=70 velocity=95 time=0
EXTRACT: note_on channel=0 note=70 velocity=63 time=0.14423075
EXTRACT: note_on channel=0 note=65 velocity=63 time=0
EXTRACT: note_on channel=0 note=62 velocity=63 time=0
EXTRACT: note_on channel=0 note=58 velocity=63 time=0
EXTRACT: note_on channel=0 note=53 velocity=63 time=0
EXTRACT: note_on channel=0 note=46 velocity=63 time=0
EXTRACT: note_on channel=2 note=58 velocity=79 time=0
EXTRACT: note_off channel=0 note=70 velocity=63 time=0.14423075
EXTRACT: note_off channel=0 note=65 velocity=63 time=0
EXTRACT: note_off channel=0 note=62 velocity=63 time=0
EXTRACT: note_off channel=0 note=58 velocity=63 time=0
EXTRACT: note_off channel=0 note=53 velocity=63 time=0
EXTRACT: note_off channel=0 note=46 velocity=63 time=0
EXTRACT: note_on channel=0 note=70 velocity=63 time=0
EXTRACT: note_on channel=0 note=65 velocity=63 time=0
EXTRACT: note_on channel=0 note=62 velocity=63 time=0
EXTRACT: note_on channel=0 note=58 velocity=63 time=0
EXTRACT: note_on channel=0 note=53 velocity=63 time=0
EXTRACT: note_on channel=0 note=46 velocity=63 time=0
EXTRACT: note_off channel=2 note=58 velocity=79 time=0
EXTRACT: note_off channel=4 note=70 velocity=95 time=0
EXTRACT: note_on channel=4 note=70 velocity=95 time=0
EXTRACT: note_off channel=0 note=70 velocity=63 time=0.14423075
EXTRACT: note_off channel=0 note=65 velocity=63 time=0
EXTRACT: note_off channel=0 note=62 velocity=63 time=0
EXTRACT: note_off channel=0 note=58 velocity=63 time=0
EXTRACT: note_off channel=0 note=53 velocity=63 time=0
EXTRACT: note_off channel=0 note=46 velocity=63 time=0
EXTRACT: note_on channel=0 note=70 velocity=63 time=0
EXTRACT: note_on channel=0 note=65 velocity=63 time=0
EXTRACT: note_on channel=0 note=62 velocity=63 time=0
EXTRACT: note_on channel=0 note=58 velocity=63 time=0
EXTRACT: note_on channel=0 note=53 velocity=63 time=0
EXTRACT: note_on channel=0 note=46 velocity=63 time=0
EXTRACT: note_on channel=2 note=58 velocity=79 time=0
EXTRACT: note_off channel=4 note=70 velocity=95 time=0
EXTRACT: note_off channel=0 note=70 velocity=63 time=0.14423075
EXTRACT: note_off channel=0 note=65 velocity=63 time=0
EXTRACT: note_off channel=0 note=62 velocity=63 time=0
EXTRACT: note_off channel=0 note=58 velocity=63 time=0
EXTRACT: note_off channel=0 note=53 velocity=63 time=0
EXTRACT: note_off channel=0 note=46 velocity=63 time=0
EXTRACT: note_on channel=0 note=70 velocity=63 time=0
EXTRACT: note_on channel=0 note=65 velocity=63 time=0
EXTRACT: note_on channel=0 note=62 velocity=63 time=0
EXTRACT: note_on channel=0 note=58 velocity=63 time=0
EXTRACT: note_on channel=0 note=53 velocity=63 time=0
EXTRACT: note_on channel=0 note=46 velocity=63 time=0
EXTRACT: note_off channel=2 note=58 velocity=79 time=0
EXTRACT: note_on channel=4 note=68 velocity=95 time=0
EXTRACT: note_off channel=0 note=70 velocity=63 time=0.14423075
EXTRACT: note_off channel=0 note=65 velocity=63 time=0
EXTRACT: note_off channel=0 note=62 velocity=63 time=0
EXTRACT: note_off channel=0 note=58 velocity=63 time=0
EXTRACT: note_off channel=0 note=53 velocity=63 time=0
EXTRACT: note_off channel=0 note=46 velocity=63 time=0
EXTRACT: note_on channel=0 note=64 velocity=63 time=0
EXTRACT: note_on channel=0 note=59 velocity=63 time=0
EXTRACT: note_on channel=0 note=55 velocity=63 time=0
EXTRACT: note_on channel=0 note=50 velocity=63 time=0
EXTRACT: note_on channel=0 note=45 velocity=63 time=0
EXTRACT: note_on channel=0 note=40 velocity=63 time=0
EXTRACT: note_off channel=0 note=64 velocity=63 time=0.031249995833333332
EXTRACT: note_off channel=0 note=59 velocity=63 time=0
EXTRACT: note_off channel=0 note=55 velocity=63 time=0
EXTRACT: note_off channel=0 note=50 velocity=63 time=0
EXTRACT: note_off channel=0 note=45 velocity=63 time=0
EXTRACT: note_off channel=0 note=40 velocity=63 time=0
EXTRACT: note_on channel=0 note=64 velocity=63 time=0.11298075416666667
EXTRACT: note_on channel=0 note=59 velocity=63 time=0
EXTRACT: note_on channel=0 note=55 velocity=63 time=0
EXTRACT: note_on channel=0 note=50 velocity=63 time=0
EXTRACT: note_on channel=0 note=45 velocity=63 time=0
EXTRACT: note_on channel=0 note=40 velocity=63 time=0
EXTRACT: note_on channel=2 note=56 velocity=79 time=0
EXTRACT: note_off channel=4 note=68 velocity=95 time=0
EXTRACT: note_on channel=4 note=70 velocity=95 time=0
EXTRACT: note_off channel=0 note=64 velocity=63 time=0.031249995833333332
EXTRACT: note_off channel=0 note=59 velocity=63 time=0
EXTRACT: note_off channel=0 note=55 velocity=63 time=0
EXTRACT: note_off channel=0 note=50 velocity=63 time=0
EXTRACT: note_off channel=0 note=45 velocity=63 time=0
EXTRACT: note_off channel=0 note=40 velocity=63 time=0
EXTRACT: note_off channel=2 note=56 velocity=79 time=0.11298075416666667
EXTRACT: note_off channel=4 note=70 velocity=95 time=0
EXTRACT: note_on channel=4 note=72 velocity=95 time=0
EXTRACT: note_on channel=2 note=56 velocity=79 time=0.14423075
EXTRACT: note_off channel=4 note=72 velocity=95 time=0
EXTRACT: note_on channel=4 note=70 velocity=95 time=0
EXTRACT: note_on channel=0 note=70 velocity=63 time=0.14423075
EXTRACT: note_on channel=0 note=65 velocity=63 time=0
EXTRACT: note_on channel=0 note=62 velocity=63 time=0
EXTRACT: note_on channel=0 note=58 velocity=63 time=0
EXTRACT: note_on channel=0 note=53 velocity=63 time=0
EXTRACT: note_on channel=0 note=46 velocity=63 time=0
EXTRACT: note_off channel=2 note=56 velocity=79 time=0
EXTRACT: note_off channel=0 note=70 velocity=63 time=0.14423075
EXTRACT: note_off channel=0 note=65 velocity=63 time=0
EXTRACT: note_off channel=0 note=62 velocity=63 time=0
EXTRACT: note_off channel=0 note=58 velocity=63 time=0
EXTRACT: note_off channel=0 note=53 velocity=63 time=0
EXTRACT: note_off channel=0 note=46 velocity=63 time=0
EXTRACT: note_on channel=0 note=70 velocity=63 time=0
EXTRACT: note_on channel=0 note=65 velocity=63 time=0
EXTRACT: note_on channel=0 note=62 velocity=63 time=0
EXTRACT: note_on channel=0 note=58 velocity=63 time=0
EXTRACT: note_on channel=0 note=53 velocity=63 time=0
EXTRACT: note_on channel=0 note=46 velocity=63 time=0
EXTRACT: note_on channel=2 note=53 velocity=79 time=0
EXTRACT: note_off channel=4 note=70 velocity=95 time=0
EXTRACT: note_on channel=4 note=70 velocity=95 time=0
EXTRACT: note_off channel=0 note=70 velocity=63 time=0.14423075
EXTRACT: note_off channel=0 note=65 velocity=63 time=0
EXTRACT: note_off channel=0 note=62 velocity=63 time=0
EXTRACT: note_off channel=0 note=58 velocity=63 time=0
EXTRACT: note_off channel=0 note=53 velocity=63 time=0
EXTRACT: note_off channel=0 note=46 velocity=63 time=0
EXTRACT: note_on channel=0 note=70 velocity=63 time=0
EXTRACT: note_on channel=0 note=65 velocity=63 time=0
EXTRACT: note_on channel=0 note=62 velocity=63 time=0
EXTRACT: note_on channel=0 note=58 velocity=63 time=0
EXTRACT: note_on channel=0 note=53 velocity=63 time=0
EXTRACT: note_on channel=0 note=46 velocity=63 time=0
EXTRACT: note_off channel=2 note=53 velocity=79 time=0
EXTRACT: note_on channel=2 note=56 velocity=79 time=0
EXTRACT: note_off channel=4 note=70 velocity=95 time=0
EXTRACT: note_off channel=0 note=70 velocity=63 time=0.14423075
EXTRACT: note_off channel=0 note=65 velocity=63 time=0
EXTRACT: note_off channel=0 note=62 velocity=63 time=0
EXTRACT: note_off channel=0 note=58 velocity=63 time=0
EXTRACT: note_off channel=0 note=53 velocity=63 time=0
EXTRACT: note_off channel=0 note=46 velocity=63 time=0
EXTRACT: note_on channel=0 note=70 velocity=63 time=0
EXTRACT: note_on channel=0 note=65 velocity=63 time=0
EXTRACT: note_on channel=0 note=62 velocity=63 time=0
EXTRACT: note_on channel=0 note=58 velocity=63 time=0
EXTRACT: note_on channel=0 note=53 velocity=63 time=0
EXTRACT: note_on channel=0 note=46 velocity=63 time=0
EXTRACT: note_off channel=0 note=70 velocity=63 time=0.14423075
EXTRACT: note_off channel=0 note=65 velocity=63 time=0
EXTRACT: note_off channel=0 note=62 velocity=63 time=0
EXTRACT: note_off channel=0 note=58 velocity=63 time=0
EXTRACT: note_off channel=0 note=53 velocity=63 time=0
EXTRACT: note_off channel=0 note=46 velocity=63 time=0
EXTRACT: note_on channel=0 note=64 velocity=63 time=0
EXTRACT: note_on channel=0 note=59 velocity=63 time=0
EXTRACT: note_on channel=0 note=55 velocity=63 time=0
EXTRACT: note_on channel=0 note=50 velocity=63 time=0
EXTRACT: note_on channel=0 note=45 velocity=63 time=0
EXTRACT: note_on channel=0 note=40 velocity=63 time=0
EXTRACT: note_off channel=2 note=56 velocity=79 time=0
EXTRACT: note_on channel=2 note=53 velocity=79 time=0
EXTRACT: note_off channel=0 note=64 velocity=63 time=0.031249995833333332
EXTRACT: note_off channel=0 note=59 velocity=63 time=0
EXTRACT: note_off channel=0 note=55 velocity=63 time=0
EXTRACT: note_off channel=0 note=50 velocity=63 time=0
EXTRACT: note_off channel=0 note=45 velocity=63 time=0
EXTRACT: note_off channel=0 note=40 velocity=63 time=0
EXTRACT: note_on channel=0 note=64 velocity=63 time=0.11298075416666667
EXTRACT: note_on channel=0 note=59 velocity=63 time=0
EXTRACT: note_on channel=0 note=55 velocity=63 time=0
EXTRACT: note_on channel=0 note=50 velocity=63 time=0
EXTRACT: note_on channel=0 note=45 velocity=63 time=0
EXTRACT: note_on channel=0 note=40 velocity=63 time=0
EXTRACT: note_off channel=2 note=53 velocity=79 time=0
EXTRACT: note_on channel=4 note=70 velocity=95 time=0
EXTRACT: note_on channel=4 note=65 velocity=95 time=0
EXTRACT: note_off channel=0 note=64 velocity=63 time=0.031249995833333332
EXTRACT: note_off channel=0 note=59 velocity=63 time=0
EXTRACT: note_off channel=0 note=55 velocity=63 time=0
EXTRACT: note_off channel=0 note=50 velocity=63 time=0
EXTRACT: note_off channel=0 note=45 velocity=63 time=0
EXTRACT: note_off channel=0 note=40 velocity=63 time=0
EXTRACT: note_on channel=2 note=53 velocity=79 time=0.11298075416666667
EXTRACT: note_off channel=4 note=70 velocity=95 time=0
EXTRACT: note_off channel=4 note=65 velocity=95 time=0
EXTRACT: note_on channel=4 note=68 velocity=95 time=0
EXTRACT: note_on channel=4 note=72 velocity=95 time=0
EXTRACT: note_off channel=2 note=53 velocity=79 time=0.14423075
EXTRACT: note_off channel=4 note=68 velocity=95 time=0
EXTRACT: note_off channel=4 note=72 velocity=95 time=0
EXTRACT: note_on channel=4 note=73 velocity=95 time=0
EXTRACT: note_on channel=4 note=70 velocity=95 time=0
EXTRACT: note_on channel=0 note=70 velocity=63 time=0.14423075
EXTRACT: note_on channel=0 note=65 velocity=63 time=0
EXTRACT: note_on channel=0 note=62 velocity=63 time=0
EXTRACT: note_on channel=0 note=58 velocity=63 time=0
EXTRACT: note_on channel=0 note=53 velocity=63 time=0
EXTRACT: note_on channel=0 note=46 velocity=63 time=0
EXTRACT: note_on channel=2 note=58 velocity=79 time=0
EXTRACT: note_off channel=0 note=70 velocity=63 time=0.14423075
EXTRACT: note_off channel=0 note=65 velocity=63 time=0
EXTRACT: note_off channel=0 note=62 velocity=63 time=0
EXTRACT: note_off channel=0 note=58 velocity=63 time=0
EXTRACT: note_off channel=0 note=53 velocity=63 time=0
EXTRACT: note_off channel=0 note=46 velocity=63 time=0
EXTRACT: note_on channel=0 note=70 velocity=63 time=0
EXTRACT: note_on channel=0 note=65 velocity=63 time=0
EXTRACT: note_on channel=0 note=62 velocity=63 time=0
EXTRACT: note_on channel=0 note=58 velocity=63 time=0
EXTRACT: note_on channel=0 note=53 velocity=63 time=0
EXTRACT: note_on channel=0 note=46 velocity=63 time=0
EXTRACT: note_off channel=2 note=58 velocity=79 time=0
EXTRACT: note_off channel=4 note=73 velocity=95 time=0
EXTRACT: note_off channel=4 note=70 velocity=95 time=0
EXTRACT: note_on channel=4 note=73 velocity=95 time=0
EXTRACT: note_on channel=4 note=70 velocity=95 time=0
EXTRACT: note_off channel=0 note=70 velocity=63 time=0.14423075
EXTRACT: note_off channel=0 note=65 velocity=63 time=0
EXTRACT: note_off channel=0 note=62 velocity=63 time=0
EXTRACT: note_off channel=0 note=58 velocity=63 time=0
EXTRACT: note_off channel=0 note=53 velocity=63 time=0
EXTRACT: note_off channel=0 note=46 velocity=63 time=0
EXTRACT: note_on channel=0 note=70 velocity=63 time=0
EXTRACT: note_on channel=0 note=65 velocity=63 time=0
EXTRACT: note_on channel=0 note=62 velocity=63 time=0
EXTRACT: note_on channel=0 note=58 velocity=63 time=0
EXTRACT: note_on channel=0 note=53 velocity=63 time=0
EXTRACT: note_on channel=0 note=46 velocity=63 time=0
EXTRACT: note_on channel=2 note=58 velocity=79 time=0
EXTRACT: note_off channel=4 note=73 velocity=95 time=0
EXTRACT: note_off channel=4 note=70 velocity=95 time=0
EXTRACT: note_off channel=0 note=70 velocity=63 time=0.14423075
EXTRACT: note_off channel=0 note=65 velocity=63 time=0
EXTRACT: note_off channel=0 note=62 velocity=63 time=0
EXTRACT: note_off channel=0 note=58 velocity=63 time=0
EXTRACT: note_off channel=0 note=53 velocity=63 time=0
EXTRACT: note_off channel=0 note=46 velocity=63 time=0
EXTRACT: note_on channel=0 note=70 velocity=63 time=0
EXTRACT: note_on channel=0 note=65 velocity=63 time=0
EXTRACT: note_on channel=0 note=62 velocity=63 time=0
EXTRACT: note_on channel=0 note=58 velocity=63 time=0
EXTRACT: note_on channel=0 note=53 velocity=63 time=0
EXTRACT: note_on channel=0 note=46 velocity=63 time=0
EXTRACT: note_off channel=2 note=58 velocity=79 time=0
EXTRACT: note_off channel=0 note=70 velocity=63 time=0.14423075
EXTRACT: note_off channel=0 note=65 velocity=63 time=0
EXTRACT: note_off channel=0 note=62 velocity=63 time=0
EXTRACT: note_off channel=0 note=58 velocity=63 time=0
EXTRACT: note_off channel=0 note=53 velocity=63 time=0
EXTRACT: note_off channel=0 note=46 velocity=63 time=0
EXTRACT: note_on channel=0 note=64 velocity=63 time=0
EXTRACT: note_on channel=0 note=59 velocity=63 time=0
EXTRACT: note_on channel=0 note=55 velocity=63 time=0
EXTRACT: note_on channel=0 note=50 velocity=63 time=0
EXTRACT: note_on channel=0 note=45 velocity=63 time=0
EXTRACT: note_on channel=0 note=40 velocity=63 time=0
EXTRACT: note_off channel=0 note=64 velocity=63 time=0.031249995833333332
EXTRACT: note_off channel=0 note=59 velocity=63 time=0
EXTRACT: note_off channel=0 note=55 velocity=63 time=0
EXTRACT: note_off channel=0 note=50 velocity=63 time=0
EXTRACT: note_off channel=0 note=45 velocity=63 time=0
EXTRACT: note_off channel=0 note=40 velocity=63 time=0
EXTRACT: note_on channel=0 note=64 velocity=63 time=0.11298075416666667
EXTRACT: note_on channel=0 note=59 velocity=63 time=0
EXTRACT: note_on channel=0 note=55 velocity=63 time=0
EXTRACT: note_on channel=0 note=50 velocity=63 time=0
EXTRACT: note_on channel=0 note=45 velocity=63 time=0
EXTRACT: note_on channel=0 note=40 velocity=63 time=0
EXTRACT: note_on channel=2 note=56 velocity=79 time=0
EXTRACT: note_on channel=4 note=68 velocity=95 time=0
EXTRACT: note_on channel=4 note=72 velocity=95 time=0
EXTRACT: note_off channel=0 note=64 velocity=63 time=0.031249995833333332
EXTRACT: note_off channel=0 note=59 velocity=63 time=0
EXTRACT: note_off channel=0 note=55 velocity=63 time=0
EXTRACT: note_off channel=0 note=50 velocity=63 time=0
EXTRACT: note_off channel=0 note=45 velocity=63 time=0
EXTRACT: note_off channel=0 note=40 velocity=63 time=0
EXTRACT: note_off channel=2 note=56 velocity=79 time=0.11298075416666667
EXTRACT: note_off channel=4 note=68 velocity=95 time=0
EXTRACT: note_off channel=4 note=72 velocity=95 time=0
EXTRACT: note_on channel=4 note=72 velocity=95 time=0
EXTRACT: note_on channel=4 note=68 velocity=95 time=0
EXTRACT: note_on channel=2 note=56 velocity=79 time=0.14423075
EXTRACT: note_off channel=4 note=72 velocity=95 time=0
EXTRACT: note_off channel=4 note=68 velocity=95 time=0
EXTRACT: note_on channel=4 note=70 velocity=95 time=0
EXTRACT: note_on channel=4 note=73 velocity=95 time=0
EXTRACT: note_on channel=0 note=70 velocity=63 time=0.14423075
EXTRACT: note_on channel=0 note=65 velocity=63 time=0
EXTRACT: note_on channel=0 note=62 velocity=63 time=0
EXTRACT: note_on channel=0 note=58 velocity=63 time=0
EXTRACT: note_on channel=0 note=53 velocity=63 time=0
EXTRACT: note_on channel=0 note=46 velocity=63 time=0
EXTRACT: note_off channel=2 note=56 velocity=79 time=0
EXTRACT: note_off channel=0 note=70 velocity=63 time=0.14423075
EXTRACT: note_off channel=0 note=65 velocity=63 time=0
EXTRACT: note_off channel=0 note=62 velocity=63 time=0
EXTRACT: note_off channel=0 note=58 velocity=63 time=0
EXTRACT: note_off channel=0 note=53 velocity=63 time=0
EXTRACT: note_off channel=0 note=46 velocity=63 time=0
EXTRACT: note_on channel=0 note=70 velocity=63 time=0
EXTRACT: note_on channel=0 note=65 velocity=63 time=0
EXTRACT: note_on channel=0 note=62 velocity=63 time=0
EXTRACT: note_on channel=0 note=58 velocity=63 time=0
EXTRACT: note_on channel=0 note=53 velocity=63 time=0
EXTRACT: note_on channel=0 note=46 velocity=63 time=0
EXTRACT: note_on channel=2 note=53 velocity=79 time=0
EXTRACT: note_off channel=4 note=70 velocity=95 time=0
EXTRACT: note_off channel=4 note=73 velocity=95 time=0
EXTRACT: note_on channel=4 note=73 velocity=95 time=0
EXTRACT: note_on channel=4 note=70 velocity=95 time=0
EXTRACT: note_off channel=0 note=70 velocity=63 time=0.14423075
EXTRACT: note_off channel=0 note=65 velocity=63 time=0
EXTRACT: note_off channel=0 note=62 velocity=63 time=0
EXTRACT: note_off channel=0 note=58 velocity=63 time=0
EXTRACT: note_off channel=0 note=53 velocity=63 time=0
EXTRACT: note_off channel=0 note=46 velocity=63 time=0
EXTRACT: note_on channel=0 note=70 velocity=63 time=0
EXTRACT: note_on channel=0 note=65 velocity=63 time=0
EXTRACT: note_on channel=0 note=62 velocity=63 time=0
EXTRACT: note_on channel=0 note=58 velocity=63 time=0
EXTRACT: note_on channel=0 note=53 velocity=63 time=0
EXTRACT: note_on channel=0 note=46 velocity=63 time=0
EXTRACT: note_off channel=2 note=53 velocity=79 time=0
EXTRACT: note_on channel=2 note=56 velocity=79 time=0
EXTRACT: note_off channel=4 note=73 velocity=95 time=0
EXTRACT: note_off channel=4 note=70 velocity=95 time=0
EXTRACT: note_off channel=0 note=70 velocity=63 time=0.14423075
EXTRACT: note_off channel=0 note=65 velocity=63 time=0
EXTRACT: note_off channel=0 note=62 velocity=63 time=0
EXTRACT: note_off channel=0 note=58 velocity=63 time=0
EXTRACT: note_off channel=0 note=53 velocity=63 time=0
EXTRACT: note_off channel=0 note=46 velocity=63 time=0
EXTRACT: note_on channel=0 note=70 velocity=63 time=0
EXTRACT: note_on channel=0 note=65 velocity=63 time=0
EXTRACT: note_on channel=0 note=62 velocity=63 time=0
EXTRACT: note_on channel=0 note=58 velocity=63 time=0
EXTRACT: note_on channel=0 note=53 velocity=63 time=0
EXTRACT: note_on channel=0 note=46 velocity=63 time=0
EXTRACT: note_off channel=0 note=70 velocity=63 time=0.14423075
EXTRACT: note_off channel=0 note=65 velocity=63 time=0
EXTRACT: note_off channel=0 note=62 velocity=63 time=0
EXTRACT: note_off channel=0 note=58 velocity=63 time=0
EXTRACT: note_off channel=0 note=53 velocity=63 time=0
EXTRACT: note_off channel=0 note=46 velocity=63 time=0
EXTRACT: note_on channel=0 note=64 velocity=63 time=0
EXTRACT: note_on channel=0 note=59 velocity=63 time=0
EXTRACT: note_on channel=0 note=55 velocity=63 time=0
EXTRACT: note_on channel=0 note=50 velocity=63 time=0
EXTRACT: note_on channel=0 note=45 velocity=63 time=0
EXTRACT: note_on channel=0 note=40 velocity=63 time=0
EXTRACT: note_off channel=2 note=56 velocity=79 time=0
EXTRACT: note_on channel=2 note=53 velocity=79 time=0
EXTRACT: note_off channel=0 note=64 velocity=63 time=0.031249995833333332
EXTRACT: note_off channel=0 note=59 velocity=63 time=0
EXTRACT: note_off channel=0 note=55 velocity=63 time=0
EXTRACT: note_off channel=0 note=50 velocity=63 time=0
EXTRACT: note_off channel=0 note=45 velocity=63 time=0
EXTRACT: note_off channel=0 note=40 velocity=63 time=0
EXTRACT: note_on channel=0 note=64 velocity=63 time=0.11298075416666667
EXTRACT: note_on channel=0 note=59 velocity=63 time=0
EXTRACT: note_on channel=0 note=55 velocity=63 time=0
EXTRACT: note_on channel=0 note=50 velocity=63 time=0
EXTRACT: note_on channel=0 note=45 velocity=63 time=0
EXTRACT: note_on channel=0 note=40 velocity=63 time=0
EXTRACT: note_off channel=2 note=53 velocity=79 time=0
EXTRACT: note_on channel=4 note=65 velocity=95 time=0
EXTRACT: note_on channel=4 note=70 velocity=95 time=0
EXTRACT: note_off channel=0 note=64 velocity=63 time=0.031249995833333332
EXTRACT: note_off channel=0 note=59 velocity=63 time=0
EXTRACT: note_off channel=0 note=55 velocity=63 time=0
EXTRACT: note_off channel=0 note=50 velocity=63 time=0
EXTRACT: note_off channel=0 note=45 velocity=63 time=0
EXTRACT: note_off channel=0 note=40 velocity=63 time=0
EXTRACT: note_on channel=2 note=53 velocity=79 time=0.11298075416666667
EXTRACT: note_off channel=4 note=65 velocity=95 time=0
EXTRACT: note_off channel=4 note=70 velocity=95 time=0
EXTRACT: note_on channel=4 note=72 velocity=95 time=0
EXTRACT: note_on channel=4 note=68 velocity=95 time=0
EXTRACT: note_off channel=2 note=53 velocity=79 time=0.14423075
EXTRACT: note_off channel=4 note=72 velocity=95 time=0
EXTRACT: note_off channel=4 note=68 velocity=95 time=0
EXTRACT: note_on channel=4 note=70 velocity=95 time=0
EXTRACT: note_on channel=4 note=73 velocity=95 time=0
EXTRACT: note_on channel=0 note=70 velocity=63 time=0.14423075
EXTRACT: note_on channel=0 note=65 velocity=63 time=0
EXTRACT: note_on channel=0 note=62 velocity=63 time=0
EXTRACT: note_on channel=0 note=58 velocity=63 time=0
EXTRACT: note_on channel=0 note=53 velocity=63 time=0
EXTRACT: note_on channel=0 note=46 velocity=63 time=0
EXTRACT: note_on channel=2 note=58 velocity=79 time=0
EXTRACT: note_off channel=0 note=70 velocity=63 time=0.14423075
EXTRACT: note_off channel=0 note=65 velocity=63 time=0
EXTRACT: note_off channel=0 note=62 velocity=63 time=0
EXTRACT: note_off channel=0 note=58 velocity=63 time=0
EXTRACT: note_off channel=0 note=53 velocity=63 time=0
EXTRACT: note_off channel=0 note=46 velocity=63 time=0
EXTRACT: note_on channel=0 note=70 velocity=63 time=0
EXTRACT: note_on channel=0 note=65 velocity=63 time=0
EXTRACT: note_on channel=0 note=62 velocity=63 time=0
EXTRACT: note_on channel=0 note=58 velocity=63 time=0
EXTRACT: note_on channel=0 note=53 velocity=63 time=0
EXTRACT: note_on channel=0 note=46 velocity=63 time=0
EXTRACT: note_off channel=2 note=58 velocity=79 time=0
EXTRACT: note_off channel=4 note=70 velocity=95 time=0
EXTRACT: note_off channel=4 note=73 velocity=95 time=0
EXTRACT: note_on channel=4 note=73 velocity=95 time=0
EXTRACT: note_on channel=4 note=70 velocity=95 time=0
EXTRACT: note_off channel=0 note=70 velocity=63 time=0.14423075
EXTRACT: note_off channel=0 note=65 velocity=63 time=0
EXTRACT: note_off channel=0 note=62 velocity=63 time=0
EXTRACT: note_off channel=0 note=58 velocity=63 time=0
EXTRACT: note_off channel=0 note=53 velocity=63 time=0
EXTRACT: note_off channel=0 note=46 velocity=63 time=0
EXTRACT: note_on channel=0 note=70 velocity=63 time=0
EXTRACT: note_on channel=0 note=65 velocity=63 time=0
EXTRACT: note_on channel=0 note=62 velocity=63 time=0
EXTRACT: note_on channel=0 note=58 velocity=63 time=0
EXTRACT: note_on channel=0 note=53 velocity=63 time=0
EXTRACT: note_on channel=0 note=46 velocity=63 time=0
EXTRACT: note_on channel=2 note=58 velocity=79 time=0
EXTRACT: note_off channel=0 note=70 velocity=63 time=0.14423075
EXTRACT: note_off channel=0 note=65 velocity=63 time=0
EXTRACT: note_off channel=0 note=62 velocity=63 time=0
EXTRACT: note_off channel=0 note=58 velocity=63 time=0
EXTRACT: note_off channel=0 note=53 velocity=63 time=0
EXTRACT: note_off channel=0 note=46 velocity=63 time=0
EXTRACT: note_on channel=0 note=70 velocity=63 time=0
EXTRACT: note_on channel=0 note=65 velocity=63 time=0
EXTRACT: note_on channel=0 note=62 velocity=63 time=0
EXTRACT: note_on channel=0 note=58 velocity=63 time=0
EXTRACT: note_on channel=0 note=53 velocity=63 time=0
EXTRACT: note_on channel=0 note=46 velocity=63 time=0
EXTRACT: note_off channel=2 note=58 velocity=79 time=0
EXTRACT: note_off channel=4 note=73 velocity=95 time=0
EXTRACT: note_off channel=4 note=70 velocity=95 time=0
EXTRACT: note_on channel=4 note=72 velocity=95 time=0
EXTRACT: note_on channel=4 note=68 velocity=95 time=0
EXTRACT: note_off channel=0 note=70 velocity=63 time=0.14423075
EXTRACT: note_off channel=0 note=65 velocity=63 time=0
EXTRACT: note_off channel=0 note=62 velocity=63 time=0
EXTRACT: note_off channel=0 note=58 velocity=63 time=0
EXTRACT: note_off channel=0 note=53 velocity=63 time=0
EXTRACT: note_off channel=0 note=46 velocity=63 time=0
EXTRACT: note_on channel=0 note=64 velocity=63 time=0
EXTRACT: note_on channel=0 note=59 velocity=63 time=0
EXTRACT: note_on channel=0 note=55 velocity=63 time=0
EXTRACT: note_on channel=0 note=50 velocity=63 time=0
EXTRACT: note_on channel=0 note=45 velocity=63 time=0
EXTRACT: note_on channel=0 note=40 velocity=63 time=0
EXTRACT: note_off channel=0 note=64 velocity=63 time=0.031249995833333332
EXTRACT: note_off channel=0 note=59 velocity=63 time=0
EXTRACT: note_off channel=0 note=55 velocity=63 time=0
EXTRACT: note_off channel=0 note=50 velocity=63 time=0
EXTRACT: note_off channel=0 note=45 velocity=63 time=0
EXTRACT: note_off channel=0 note=40 velocity=63 time=0
EXTRACT: note_on channel=0 note=64 velocity=63 time=0.11298075416666667
EXTRACT: note_on channel=0 note=59 velocity=63 time=0
EXTRACT: note_on channel=0 note=55 velocity=63 time=0
EXTRACT: note_on channel=0 note=50 velocity=63 time=0
EXTRACT: note_on channel=0 note=45 velocity=63 time=0
EXTRACT: note_on channel=0 note=40 velocity=63 time=0
EXTRACT: note_on channel=2 note=56 velocity=79 time=0
EXTRACT: note_off channel=4 note=72 velocity=95 time=0
EXTRACT: note_off channel=4 note=68 velocity=95 time=0
EXTRACT: note_on channel=4 note=72 velocity=95 time=0
EXTRACT: note_on channel=4 note=75 velocity=95 time=0
EXTRACT: note_off channel=0 note=64 velocity=63 time=0.031249995833333332
EXTRACT: note_off channel=0 note=59 velocity=63 time=0
EXTRACT: note_off channel=0 note=55 velocity=63 time=0
EXTRACT: note_off channel=0 note=50 velocity=63 time=0
EXTRACT: note_off channel=0 note=45 velocity=63 time=0
EXTRACT: note_off channel=0 note=40 velocity=63 time=0
EXTRACT: note_off channel=2 note=56 velocity=79 time=0.11298075416666667
EXTRACT: note_on channel=2 note=56 velocity=79 time=0.14423075
EXTRACT: note_off channel=4 note=72 velocity=95 time=0
EXTRACT: note_off channel=4 note=75 velocity=95 time=0
EXTRACT: note_on channel=4 note=73 velocity=95 time=0
EXTRACT: note_on channel=4 note=70 velocity=95 time=0
EXTRACT: note_on channel=0 note=70 velocity=63 time=0.14423075
EXTRACT: note_on channel=0 note=65 velocity=63 time=0
EXTRACT: note_on channel=0 note=62 velocity=63 time=0
EXTRACT: note_on channel=0 note=58 velocity=63 time=0
EXTRACT: note_on channel=0 note=53 velocity=63 time=0
EXTRACT: note_on channel=0 note=46 velocity=63 time=0
EXTRACT: note_off channel=2 note=56 velocity=79 time=0
EXTRACT: note_off channel=0 note=70 velocity=63 time=0.14423075
EXTRACT: note_off channel=0 note=65 velocity=63 time=0
EXTRACT: note_off channel=0 note=62 velocity=63 time=0
EXTRACT: note_off channel=0 note=58 velocity=63 time=0
EXTRACT: note_off channel=0 note=53 velocity=63 time=0
EXTRACT: note_off channel=0 note=46 velocity=63 time=0
EXTRACT: note_on channel=0 note=70 velocity=63 time=0
EXTRACT: note_on channel=0 note=65 velocity=63 time=0
EXTRACT: note_on channel=0 note=62 velocity=63 time=0
EXTRACT: note_on channel=0 note=58 velocity=63 time=0
EXTRACT: note_on channel=0 note=53 velocity=63 time=0
EXTRACT: note_on channel=0 note=46 velocity=63 time=0
EXTRACT: note_on channel=2 note=53 velocity=79 time=0
EXTRACT: note_off channel=4 note=73 velocity=95 time=0
EXTRACT: note_off channel=4 note=70 velocity=95 time=0
EXTRACT: note_on channel=4 note=70 velocity=95 time=0
EXTRACT: note_on channel=4 note=73 velocity=95 time=0
EXTRACT: note_off channel=0 note=70 velocity=63 time=0.14423075
EXTRACT: note_off channel=0 note=65 velocity=63 time=0
EXTRACT: note_off channel=0 note=62 velocity=63 time=0
EXTRACT: note_off channel=0 note=58 velocity=63 time=0
EXTRACT: note_off channel=0 note=53 velocity=63 time=0
EXTRACT: note_off channel=0 note=46 velocity=63 time=0
EXTRACT: note_on channel=0 note=70 velocity=63 time=0
EXTRACT: note_on channel=0 note=65 velocity=63 time=0
EXTRACT: note_on channel=0 note=62 velocity=63 time=0
EXTRACT: note_on channel=0 note=58 velocity=63 time=0
EXTRACT: note_on channel=0 note=53 velocity=63 time=0
EXTRACT: note_on channel=0 note=46 velocity=63 time=0
EXTRACT: note_off channel=2 note=53 velocity=79 time=0
EXTRACT: note_on channel=2 note=56 velocity=79 time=0
EXTRACT: note_off channel=0 note=70 velocity=63 time=0.14423075
EXTRACT: note_off channel=0 note=65 velocity=63 time=0
EXTRACT: note_off channel=0 note=62 velocity=63 time=0
EXTRACT: note_off channel=0 note=58 velocity=63 time=0
EXTRACT: note_off channel=0 note=53 velocity=63 time=0
EXTRACT: note_off channel=0 note=46 velocity=63 time=0
EXTRACT: note_on channel=0 note=70 velocity=63 time=0
EXTRACT: note_on channel=0 note=65 velocity=63 time=0
EXTRACT: note_on channel=0 note=62 velocity=63 time=0
EXTRACT: note_on channel=0 note=58 velocity=63 time=0
EXTRACT: note_on channel=0 note=53 velocity=63 time=0
EXTRACT: note_on channel=0 note=46 velocity=63 time=0
EXTRACT: note_off channel=4 note=70 velocity=95 time=0
EXTRACT: note_off channel=4 note=73 velocity=95 time=0
EXTRACT: note_on channel=4 note=72 velocity=47 time=0
EXTRACT: note_on channel=4 note=68 velocity=47 time=0
EXTRACT: note_off channel=0 note=70 velocity=63 time=0.14423075
EXTRACT: note_off channel=0 note=65 velocity=63 time=0
EXTRACT: note_off channel=0 note=62 velocity=63 time=0
EXTRACT: note_off channel=0 note=58 velocity=63 time=0
EXTRACT: note_off channel=0 note=53 velocity=63 time=0
EXTRACT: note_off channel=0 note=46 velocity=63 time=0
EXTRACT: note_on channel=0 note=64 velocity=63 time=0
EXTRACT: note_on channel=0 note=59 velocity=63 time=0
EXTRACT: note_on channel=0 note=55 velocity=63 time=0
EXTRACT: note_on channel=0 note=50 velocity=63 time=0
EXTRACT: note_on channel=0 note=45 velocity=63 time=0
EXTRACT: note_on channel=0 note=40 velocity=63 time=0
EXTRACT: note_off channel=2 note=56 velocity=79 time=0
EXTRACT: note_on channel=2 note=53 velocity=79 time=0
EXTRACT: note_off channel=4 note=72 velocity=47 time=0
EXTRACT: note_off channel=4 note=68 velocity=47 time=0
EXTRACT: note_off channel=0 note=64 velocity=63 time=0.031249995833333332
EXTRACT: note_off channel=0 note=59 velocity=63 time=0
EXTRACT: note_off channel=0 note=55 velocity=63 time=0
EXTRACT: note_off channel=0 note=50 velocity=63 time=0
EXTRACT: note_off channel=0 note=45 velocity=63 time=0
EXTRACT: note_off channel=0 note=40 velocity=63 time=0
EXTRACT: note_on channel=0 note=64 velocity=63 time=0.11298075416666667
EXTRACT: note_on channel=0 note=59 velocity=63 time=0
EXTRACT: note_on channel=0 note=55 velocity=63 time=0
EXTRACT: note_on channel=0 note=50 velocity=63 time=0
EXTRACT: note_on channel=0 note=45 velocity=63 time=0
EXTRACT: note_on channel=0 note=40 velocity=63 time=0
EXTRACT: note_off channel=2 note=53 velocity=79 time=0
EXTRACT: note_off channel=0 note=64 velocity=63 time=0.031249995833333332
EXTRACT: note_off channel=0 note=59 velocity=63 time=0
EXTRACT: note_off channel=0 note=55 velocity=63 time=0
EXTRACT: note_off channel=0 note=50 velocity=63 time=0
EXTRACT: note_off channel=0 note=45 velocity=63 time=0
EXTRACT: note_off channel=0 note=40 velocity=63 time=0
EXTRACT: note_on channel=0 note=72 velocity=63 time=0.11298075416666667
EXTRACT: note_on channel=0 note=68 velocity=63 time=0
EXTRACT: note_on channel=0 note=65 velocity=63 time=0
EXTRACT: note_on channel=0 note=60 velocity=63 time=0
EXTRACT: note_on channel=0 note=53 velocity=63 time=0
EXTRACT: note_on channel=4 note=67 velocity=95 time=0
EXTRACT: note_on channel=4 note=61 velocity=95 time=0
EXTRACT: note_on channel=4 note=70 velocity=95 time=0
EXTRACT: note_off channel=0 note=72 velocity=63 time=0.14423075
EXTRACT: note_off channel=0 note=68 velocity=63 time=0
EXTRACT: note_off channel=0 note=65 velocity=63 time=0
EXTRACT: note_off channel=0 note=60 velocity=63 time=0
EXTRACT: note_off channel=0 note=53 velocity=63 time=0
EXTRACT: note_on channel=0 note=72 velocity=63 time=0
EXTRACT: note_on channel=0 note=68 velocity=63 time=0
EXTRACT: note_on channel=0 note=65 velocity=63 time=0
EXTRACT: note_on channel=0 note=60 velocity=63 time=0
EXTRACT: note_on channel=0 note=53 velocity=63 time=0
EXTRACT: note_off channel=4 note=67 velocity=95 time=0
EXTRACT: note_off channel=4 note=61 velocity=95 time=0
EXTRACT: note_off channel=4 note=70 velocity=95 time=0
EXTRACT: note_on channel=4 note=72 velocity=95 time=0
EXTRACT: note_on channel=4 note=68 velocity=95 time=0
EXTRACT: note_on channel=4 note=63 velocity=95 time=0
EXTRACT: note_off channel=0 note=72 velocity=63 time=0.14423075
EXTRACT: note_off channel=0 note=68 velocity=63 time=0
EXTRACT: note_off channel=0 note=65 velocity=63 time=0
EXTRACT: note_off channel=0 note=60 velocity=63 time=0
EXTRACT: note_off channel=0 note=53 velocity=63 time=0
EXTRACT: note_on channel=0 note=64 velocity=63 time=0
EXTRACT: note_on channel=0 note=59 velocity=63 time=0
EXTRACT: note_on channel=0 note=55 velocity=63 time=0
EXTRACT: note_on channel=0 note=50 velocity=63 time=0
EXTRACT: note_on channel=0 note=45 velocity=63 time=0
EXTRACT: note_off channel=4 note=72 velocity=95 time=0
EXTRACT: note_off channel=4 note=68 velocity=95 time=0
EXTRACT: note_off channel=4 note=63 velocity=95 time=0
EXTRACT: note_on channel=4 note=72 velocity=95 time=0
EXTRACT: note_on channel=4 note=68 velocity=95 time=0
EXTRACT: note_on channel=4 note=63 velocity=95 time=0
EXTRACT: note_off channel=0 note=64 velocity=63 time=0.031249995833333332
EXTRACT: note_off channel=0 note=59 velocity=63 time=0
EXTRACT: note_off channel=0 note=55 velocity=63 time=0
EXTRACT: note_off channel=0 note=50 velocity=63 time=0
EXTRACT: note_off channel=0 note=45 velocity=63 time=0
EXTRACT: note_on channel=0 note=64 velocity=63 time=0.11298075416666667
EXTRACT: note_on channel=0 note=59 velocity=63 time=0
EXTRACT: note_on channel=0 note=55 velocity=63 time=0
EXTRACT: note_on channel=0 note=50 velocity=63 time=0
EXTRACT: note_on channel=0 note=45 velocity=63 time=0
EXTRACT: note_off channel=4 note=72 velocity=95 time=0
EXTRACT: note_off channel=4 note=68 velocity=95 time=0
EXTRACT: note_off channel=4 note=63 velocity=95 time=0
EXTRACT: note_on channel=4 note=72 velocity=95 time=0
EXTRACT: note_on channel=4 note=68 velocity=95 time=0
EXTRACT: note_on channel=4 note=63 velocity=95 time=0
EXTRACT: note_off channel=0 note=64 velocity=63 time=0.031249995833333332
EXTRACT: note_off channel=0 note=59 velocity=63 time=0
EXTRACT: note_off channel=0 note=55 velocity=63 time=0
EXTRACT: note_off channel=0 note=50 velocity=63 time=0
EXTRACT: note_off channel=0 note=45 velocity=63 time=0
EXTRACT: note_on channel=0 note=72 velocity=63 time=0.11298075416666667
EXTRACT: note_on channel=0 note=68 velocity=63 time=0
EXTRACT: note_on channel=0 note=65 velocity=63 time=0
EXTRACT: note_on channel=0 note=60 velocity=63 time=0
EXTRACT: note_on channel=0 note=53 velocity=63 time=0
EXTRACT: note_off channel=4 note=72 velocity=95 time=0
EXTRACT: note_off channel=4 note=68 velocity=95 time=0
EXTRACT: note_off channel=4 note=63 velocity=95 time=0
EXTRACT: note_on channel=4 note=72 velocity=95 time=0
EXTRACT: note_on channel=4 note=68 velocity=95 time=0
EXTRACT: note_on channel=4 note=63 velocity=95 time=0
EXTRACT: note_off channel=0 note=72 velocity=63 time=0.14423075
EXTRACT: note_off channel=0 note=68 velocity=63 time=0
EXTRACT: note_off channel=0 note=65 velocity=63 time=0
EXTRACT: note_off channel=0 note=60 velocity=63 time=0
EXTRACT: note_off channel=0 note=53 velocity=63 time=0
EXTRACT: note_on channel=0 note=72 velocity=63 time=0
EXTRACT: note_on channel=0 note=68 velocity=63 time=0
EXTRACT: note_on channel=0 note=65 velocity=63 time=0
EXTRACT: note_on channel=0 note=60 velocity=63 time=0
EXTRACT: note_on channel=0 note=53 velocity=63 time=0
EXTRACT: note_off channel=4 note=72 velocity=95 time=0
EXTRACT: note_off channel=4 note=68 velocity=95 time=0
EXTRACT: note_off channel=4 note=63 velocity=95 time=0
EXTRACT: note_on channel=4 note=67 velocity=95 time=0
EXTRACT: note_on channel=4 note=61 velocity=95 time=0
EXTRACT: note_on channel=4 note=70 velocity=95 time=0
EXTRACT: note_off channel=0 note=72 velocity=63 time=0.14423075
EXTRACT: note_off channel=0 note=68 velocity=63 time=0
EXTRACT: note_off channel=0 note=65 velocity=63 time=0
EXTRACT: note_off channel=0 note=60 velocity=63 time=0
EXTRACT: note_off channel=0 note=53 velocity=63 time=0
EXTRACT: note_on channel=0 note=64 velocity=63 time=0
EXTRACT: note_on channel=0 note=59 velocity=63 time=0
EXTRACT: note_on channel=0 note=55 velocity=63 time=0
EXTRACT: note_on channel=0 note=50 velocity=63 time=0
EXTRACT: note_on channel=0 note=45 velocity=63 time=0
EXTRACT: note_off channel=4 note=67 velocity=95 time=0
EXTRACT: note_off channel=4 note=61 velocity=95 time=0
EXTRACT: note_off channel=4 note=70 velocity=95 time=0
EXTRACT: note_on channel=4 note=67 velocity=95 time=0
EXTRACT: note_on channel=4 note=61 velocity=95 time=0
EXTRACT: note_on channel=4 note=70 velocity=95 time=0
EXTRACT: note_off channel=0 note=64 velocity=63 time=0.031249995833333332
EXTRACT: note_off channel=0 note=59 velocity=63 time=0
EXTRACT: note_off channel=0 note=55 velocity=63 time=0
EXTRACT: note_off channel=0 note=50 velocity=63 time=0
EXTRACT: note_off channel=0 note=45 velocity=63 time=0
EXTRACT: note_on channel=0 note=64 velocity=63 time=0.11298075416666667
EXTRACT: note_on channel=0 note=59 velocity=63 time=0
EXTRACT: note_on channel=0 note=55 velocity=63 time=0
EXTRACT: note_on channel=0 note=50 velocity=63 time=0
EXTRACT: note_on channel=0 note=45 velocity=63 time=0
EXTRACT: note_off channel=4 note=67 velocity=95 time=0
EXTRACT: note_off channel=4 note=61 velocity=95 time=0
EXTRACT: note_off channel=4 note=70 velocity=95 time=0
EXTRACT: note_on channel=4 note=67 velocity=95 time=0
EXTRACT: note_on channel=4 note=61 velocity=95 time=0
EXTRACT: note_on channel=4 note=70 velocity=95 time=0
EXTRACT: note_off channel=0 note=64 velocity=63 time=0.031249995833333332
EXTRACT: note_off channel=0 note=59 velocity=63 time=0
EXTRACT: note_off channel=0 note=55 velocity=63 time=0
EXTRACT: note_off channel=0 note=50 velocity=63 time=0
EXTRACT: note_off channel=0 note=45 velocity=63 time=0
EXTRACT: note_on channel=0 note=72 velocity=63 time=0.11298075416666667
EXTRACT: note_on channel=0 note=68 velocity=63 time=0
EXTRACT: note_on channel=0 note=65 velocity=63 time=0
EXTRACT: note_on channel=0 note=60 velocity=63 time=0
EXTRACT: note_on channel=0 note=53 velocity=63 time=0
EXTRACT: note_off channel=0 note=72 velocity=63 time=0.14423075
EXTRACT: note_off channel=0 note=68 velocity=63 time=0
EXTRACT: note_off channel=0 note=65 velocity=63 time=0
EXTRACT: note_off channel=0 note=60 velocity=63 time=0
EXTRACT: note_off channel=0 note=53 velocity=63 time=0
EXTRACT: note_on channel=0 note=72 velocity=63 time=0
EXTRACT: note_on channel=0 note=68 velocity=63 time=0
EXTRACT: note_on channel=0 note=65 velocity=63 time=0
EXTRACT: note_on channel=0 note=60 velocity=63 time=0
EXTRACT: note_on channel=0 note=53 velocity=63 time=0
EXTRACT: note_off channel=4 note=67 velocity=95 time=0
EXTRACT: note_off channel=4 note=61 velocity=95 time=0
EXTRACT: note_off channel=4 note=70 velocity=95 time=0
EXTRACT: note_on channel=4 note=68 velocity=95 time=0
EXTRACT: note_on channel=4 note=65 velocity=95 time=0
EXTRACT: note_on channel=4 note=60 velocity=95 time=0
EXTRACT: note_off channel=0 note=72 velocity=63 time=0.14423075
EXTRACT: note_off channel=0 note=68 velocity=63 time=0
EXTRACT: note_off channel=0 note=65 velocity=63 time=0
EXTRACT: note_off channel=0 note=60 velocity=63 time=0
EXTRACT: note_off channel=0 note=53 velocity=63 time=0
EXTRACT: note_on channel=0 note=64 velocity=63 time=0
EXTRACT: note_on channel=0 note=59 velocity=63 time=0
EXTRACT: note_on channel=0 note=55 velocity=63 time=0
EXTRACT: note_on channel=0 note=50 velocity=63 time=0
EXTRACT: note_on channel=0 note=45 velocity=63 time=0
EXTRACT: note_off channel=4 note=68 velocity=95 time=0
EXTRACT: note_off channel=4 note=65 velocity=95 time=0
EXTRACT: note_off channel=4 note=60 velocity=95 time=0
EXTRACT: note_on channel=4 note=68 velocity=95 time=0
EXTRACT: note_on channel=4 note=65 velocity=95 time=0
EXTRACT: note_on channel=4 note=60 velocity=95 time=0
EXTRACT: note_off channel=0 note=64 velocity=63 time=0.031249995833333332
EXTRACT: note_off channel=0 note=59 velocity=63 time=0
EXTRACT: note_off channel=0 note=55 velocity=63 time=0
EXTRACT: note_off channel=0 note=50 velocity=63 time=0
EXTRACT: note_off channel=0 note=45 velocity=63 time=0
EXTRACT: note_on channel=0 note=64 velocity=63 time=0.11298075416666667
EXTRACT: note_on channel=0 note=59 velocity=63 time=0
EXTRACT: note_on channel=0 note=55 velocity=63 time=0
EXTRACT: note_on channel=0 note=50 velocity=63 time=0
EXTRACT: note_on channel=0 note=45 velocity=63 time=0
EXTRACT: note_on channel=2 note=72 velocity=79 time=0
EXTRACT: note_on channel=2 note=68 velocity=79 time=0
EXTRACT: note_on channel=2 note=65 velocity=79 time=0
EXTRACT: note_off channel=4 note=68 velocity=95 time=0
EXTRACT: note_off channel=4 note=65 velocity=95 time=0
EXTRACT: note_off channel=4 note=60 velocity=95 time=0
EXTRACT: note_on channel=4 note=68 velocity=95 time=0
EXTRACT: note_on channel=4 note=65 velocity=95 time=0
EXTRACT: note_on channel=4 note=60 velocity=95 time=0
EXTRACT: note_off channel=0 note=64 velocity=63 time=0.031249995833333332
EXTRACT: note_off channel=0 note=59 velocity=63 time=0
EXTRACT: note_off channel=0 note=55 velocity=63 time=0
EXTRACT: note_off channel=0 note=50 velocity=63 time=0
EXTRACT: note_off channel=0 note=45 velocity=63 time=0
EXTRACT: note_on channel=0 note=72 velocity=63 time=0.11298075416666667
EXTRACT: note_on channel=0 note=68 velocity=63 time=0
EXTRACT: note_on channel=0 note=65 velocity=63 time=0
EXTRACT: note_on channel=0 note=60 velocity=63 time=0
EXTRACT: note_on channel=0 note=53 velocity=63 time=0
EXTRACT: note_off channel=2 note=72 velocity=79 time=0
EXTRACT: note_off channel=2 note=68 velocity=79 time=0
EXTRACT: note_off channel=2 note=65 velocity=79 time=0
EXTRACT: note_off channel=4 note=68 velocity=95 time=0
EXTRACT: note_off channel=4 note=65 velocity=95 time=0
EXTRACT: note_off channel=4 note=60 velocity=95 time=0
EXTRACT: note_on channel=4 note=68 velocity=95 time=0
EXTRACT: note_on channel=4 note=65 velocity=95 time=0
EXTRACT: note_on channel=4 note=60 velocity=95 time=0
EXTRACT: note_off channel=0 note=72 velocity=63 time=0.14423075
EXTRACT: note_off channel=0 note=68 velocity=63 time=0
EXTRACT: note_off channel=0 note=65 velocity=63 time=0
EXTRACT: note_off channel=0 note=60 velocity=63 time=0
EXTRACT: note_off channel=0 note=53 velocity=63 time=0
EXTRACT: note_on channel=0 note=72 velocity=63 time=0
EXTRACT: note_on channel=0 note=68 velocity=63 time=0
EXTRACT: note_on channel=0 note=65 velocity=63 time=0
EXTRACT: note_on channel=0 note=60 velocity=63 time=0
EXTRACT: note_on channel=0 note=53 velocity=63 time=0
EXTRACT: note_off channel=4 note=68 velocity=95 time=0
EXTRACT: note_off channel=4 note=65 velocity=95 time=0
EXTRACT: note_off channel=4 note=60 velocity=95 time=0
EXTRACT: note_on channel=4 note=67 velocity=95 time=0
EXTRACT: note_on channel=4 note=63 velocity=95 time=0
EXTRACT: note_on channel=4 note=58 velocity=95 time=0
EXTRACT: note_off channel=0 note=72 velocity=63 time=0.14423075
EXTRACT: note_off channel=0 note=68 velocity=63 time=0
EXTRACT: note_off channel=0 note=65 velocity=63 time=0
EXTRACT: note_off channel=0 note=60 velocity=63 time=0
EXTRACT: note_off channel=0 note=53 velocity=63 time=0
EXTRACT: note_on channel=0 note=64 velocity=63 time=0
EXTRACT: note_on channel=0 note=59 velocity=63 time=0
EXTRACT: note_on channel=0 note=55 velocity=63 time=0
EXTRACT: note_on channel=0 note=50 velocity=63 time=0
EXTRACT: note_on channel=0 note=45 velocity=63 time=0
EXTRACT: note_off channel=4 note=67 velocity=95 time=0
EXTRACT: note_off channel=4 note=63 velocity=95 time=0
EXTRACT: note_off channel=4 note=58 velocity=95 time=0
EXTRACT: note_on channel=4 note=67 velocity=95 time=0
EXTRACT: note_on channel=4 note=63 velocity=95 time=0
EXTRACT: note_on channel=4 note=58 velocity=95 time=0
EXTRACT: note_off channel=0 note=64 velocity=63 time=0.031249995833333332
EXTRACT: note_off channel=0 note=59 velocity=63 time=0
EXTRACT: note_off channel=0 note=55 velocity=63 time=0
EXTRACT: note_off channel=0 note=50 velocity=63 time=0
EXTRACT: note_off channel=0 note=45 velocity=63 time=0
EXTRACT: note_on channel=0 note=64 velocity=63 time=0.11298075416666667
EXTRACT: note_on channel=0 note=59 velocity=63 time=0
EXTRACT: note_on channel=0 note=55 velocity=63 time=0
EXTRACT: note_on channel=0 note=50 velocity=63 time=0
EXTRACT: note_on channel=0 note=45 velocity=63 time=0
EXTRACT: note_off channel=4 note=67 velocity=95 time=0
EXTRACT: note_off channel=4 note=63 velocity=95 time=0
EXTRACT: note_off channel=4 note=58 velocity=95 time=0
EXTRACT: note_on channel=4 note=67 velocity=95 time=0
EXTRACT: note_on channel=4 note=63 velocity=95 time=0
EXTRACT: note_on channel=4 note=58 velocity=95 time=0
EXTRACT: note_off channel=0 note=64 velocity=63 time=0.031249995833333332
EXTRACT: note_off channel=0 note=59 velocity=63 time=0
EXTRACT: note_off channel=0 note=55 velocity=63 time=0
EXTRACT: note_off channel=0 note=50 velocity=63 time=0
EXTRACT: note_off channel=0 note=45 velocity=63 time=0
EXTRACT: note_on channel=0 note=72 velocity=63 time=0.11298075416666667
EXTRACT: note_on channel=0 note=68 velocity=63 time=0
EXTRACT: note_on channel=0 note=65 velocity=63 time=0
EXTRACT: note_on channel=0 note=60 velocity=63 time=0
EXTRACT: note_on channel=0 note=53 velocity=63 time=0
EXTRACT: note_off channel=0 note=72 velocity=63 time=0.14423075
EXTRACT: note_off channel=0 note=68 velocity=63 time=0
EXTRACT: note_off channel=0 note=65 velocity=63 time=0
EXTRACT: note_off channel=0 note=60 velocity=63 time=0
EXTRACT: note_off channel=0 note=53 velocity=63 time=0
EXTRACT: note_on channel=0 note=72 velocity=63 time=0
EXTRACT: note_on channel=0 note=68 velocity=63 time=0
EXTRACT: note_on channel=0 note=65 velocity=63 time=0
EXTRACT: note_on channel=0 note=60 velocity=63 time=0
EXTRACT: note_on channel=0 note=53 velocity=63 time=0
EXTRACT: note_off channel=4 note=67 velocity=95 time=0
EXTRACT: note_off channel=4 note=63 velocity=95 time=0
EXTRACT: note_off channel=4 note=58 velocity=95 time=0
EXTRACT: note_on channel=4 note=68 velocity=95 time=0
EXTRACT: note_on channel=4 note=65 velocity=95 time=0
EXTRACT: note_on channel=4 note=60 velocity=95 time=0
EXTRACT: note_off channel=0 note=72 velocity=63 time=0.14423075
EXTRACT: note_off channel=0 note=68 velocity=63 time=0
EXTRACT: note_off channel=0 note=65 velocity=63 time=0
EXTRACT: note_off channel=0 note=60 velocity=63 time=0
EXTRACT: note_off channel=0 note=53 velocity=63 time=0
EXTRACT: note_on channel=0 note=64 velocity=63 time=0
EXTRACT: note_on channel=0 note=59 velocity=63 time=0
EXTRACT: note_on channel=0 note=55 velocity=63 time=0
EXTRACT: note_on channel=0 note=50 velocity=63 time=0
EXTRACT: note_on channel=0 note=45 velocity=63 time=0
EXTRACT: note_on channel=2 note=72 velocity=79 time=0
EXTRACT: note_on channel=2 note=68 velocity=79 time=0
EXTRACT: note_on channel=2 note=65 velocity=79 time=0
EXTRACT: note_off channel=4 note=68 velocity=95 time=0
EXTRACT: note_off channel=4 note=65 velocity=95 time=0
EXTRACT: note_off channel=4 note=60 velocity=95 time=0
EXTRACT: note_on channel=4 note=68 velocity=95 time=0
EXTRACT: note_on channel=4 note=65 velocity=95 time=0
EXTRACT: note_on channel=4 note=60 velocity=95 time=0
EXTRACT: note_off channel=0 note=64 velocity=63 time=0.031249995833333332
EXTRACT: note_off channel=0 note=59 velocity=63 time=0
EXTRACT: note_off channel=0 note=55 velocity=63 time=0
EXTRACT: note_off channel=0 note=50 velocity=63 time=0
EXTRACT: note_off channel=0 note=45 velocity=63 time=0
EXTRACT: note_on channel=0 note=64 velocity=63 time=0.11298075416666667
EXTRACT: note_on channel=0 note=59 velocity=63 time=0
EXTRACT: note_on channel=0 note=55 velocity=63 time=0
EXTRACT: note_on channel=0 note=50 velocity=63 time=0
EXTRACT: note_on channel=0 note=45 velocity=63 time=0
EXTRACT: note_off channel=2 note=72 velocity=79 time=0
EXTRACT: note_off channel=2 note=68 velocity=79 time=0
EXTRACT: note_off channel=2 note=65 velocity=79 time=0
EXTRACT: note_on channel=2 note=72 velocity=79 time=0
EXTRACT: note_on channel=2 note=68 velocity=79 time=0
EXTRACT: note_on channel=2 note=65 velocity=79 time=0
EXTRACT: note_off channel=4 note=68 velocity=95 time=0
EXTRACT: note_off channel=4 note=65 velocity=95 time=0
EXTRACT: note_off channel=4 note=60 velocity=95 time=0
EXTRACT: note_on channel=4 note=68 velocity=95 time=0
EXTRACT: note_on channel=4 note=65 velocity=95 time=0
EXTRACT: note_on channel=4 note=60 velocity=95 time=0
EXTRACT: note_off channel=0 note=64 velocity=63 time=0.031249995833333332
EXTRACT: note_off channel=0 note=59 velocity=63 time=0
EXTRACT: note_off channel=0 note=55 velocity=63 time=0
EXTRACT: note_off channel=0 note=50 velocity=63 time=0
EXTRACT: note_off channel=0 note=45 velocity=63 time=0
EXTRACT: note_on channel=0 note=72 velocity=63 time=0.11298075416666667
EXTRACT: note_on channel=0 note=68 velocity=63 time=0
EXTRACT: note_on channel=0 note=65 velocity=63 time=0
EXTRACT: note_on channel=0 note=60 velocity=63 time=0
EXTRACT: note_on channel=0 note=53 velocity=63 time=0
EXTRACT: note_off channel=2 note=72 velocity=79 time=0
EXTRACT: note_off channel=2 note=68 velocity=79 time=0
EXTRACT: note_off channel=2 note=65 velocity=79 time=0
EXTRACT: note_on channel=2 note=72 velocity=79 time=0
EXTRACT: note_on channel=2 note=68 velocity=79 time=0
EXTRACT: note_on channel=2 note=65 velocity=79 time=0
EXTRACT: note_off channel=4 note=68 velocity=95 time=0
EXTRACT: note_off channel=4 note=65 velocity=95 time=0
EXTRACT: note_off channel=4 note=60 velocity=95 time=0
EXTRACT: note_off channel=0 note=72 velocity=63 time=0.14423075
EXTRACT: note_off channel=0 note=68 velocity=63 time=0
EXTRACT: note_off channel=0 note=65 velocity=63 time=0
EXTRACT: note_off channel=0 note=60 velocity=63 time=0
EXTRACT: note_off channel=0 note=53 velocity=63 time=0
EXTRACT: note_on channel=0 note=72 velocity=63 time=0
EXTRACT: note_on channel=0 note=68 velocity=63 time=0
EXTRACT: note_on channel=0 note=65 velocity=63 time=0
EXTRACT: note_on channel=0 note=60 velocity=63 time=0
EXTRACT: note_on channel=0 note=53 velocity=63 time=0
EXTRACT: note_off channel=2 note=72 velocity=79 time=0
EXTRACT: note_off channel=2 note=68 velocity=79 time=0
EXTRACT: note_off channel=2 note=65 velocity=79 time=0
EXTRACT: note_on channel=2 note=72 velocity=79 time=0
EXTRACT: note_on channel=2 note=68 velocity=79 time=0
EXTRACT: note_on channel=2 note=65 velocity=79 time=0
EXTRACT: note_off channel=0 note=72 velocity=63 time=0.14423075
EXTRACT: note_off channel=0 note=68 velocity=63 time=0
EXTRACT: note_off channel=0 note=65 velocity=63 time=0
EXTRACT: note_off channel=0 note=60 velocity=63 time=0
EXTRACT: note_off channel=0 note=53 velocity=63 time=0
EXTRACT: note_on channel=0 note=64 velocity=63 time=0
EXTRACT: note_on channel=0 note=59 velocity=63 time=0
EXTRACT: note_on channel=0 note=55 velocity=63 time=0
EXTRACT: note_on channel=0 note=50 velocity=63 time=0
EXTRACT: note_on channel=0 note=45 velocity=63 time=0
EXTRACT: note_off channel=2 note=72 velocity=79 time=0
EXTRACT: note_off channel=2 note=68 velocity=79 time=0
EXTRACT: note_off channel=2 note=65 velocity=79 time=0
EXTRACT: note_off channel=0 note=64 velocity=63 time=0.031249995833333332
EXTRACT: note_off channel=0 note=59 velocity=63 time=0
EXTRACT: note_off channel=0 note=55 velocity=63 time=0
EXTRACT: note_off channel=0 note=50 velocity=63 time=0
EXTRACT: note_off channel=0 note=45 velocity=63 time=0
EXTRACT: note_on channel=0 note=64 velocity=63 time=0.11298075416666667
EXTRACT: note_on channel=0 note=59 velocity=63 time=0
EXTRACT: note_on channel=0 note=55 velocity=63 time=0
EXTRACT: note_on channel=0 note=50 velocity=63 time=0
EXTRACT: note_on channel=0 note=45 velocity=63 time=0
EXTRACT: note_off channel=0 note=64 velocity=63 time=0.031249995833333332
EXTRACT: note_off channel=0 note=59 velocity=63 time=0
EXTRACT: note_off channel=0 note=55 velocity=63 time=0
EXTRACT: note_off channel=0 note=50 velocity=63 time=0
EXTRACT: note_off channel=0 note=45 velocity=63 time=0
EXTRACT: note_on channel=0 note=72 velocity=63 time=0.11298075416666667
EXTRACT: note_on channel=0 note=68 velocity=63 time=0
EXTRACT: note_on channel=0 note=65 velocity=63 time=0
EXTRACT: note_on channel=0 note=60 velocity=63 time=0
EXTRACT: note_on channel=0 note=53 velocity=63 time=0
EXTRACT: note_on channel=4 note=67 velocity=95 time=0
EXTRACT: note_on channel=4 note=63 velocity=95 time=0
EXTRACT: note_on channel=4 note=58 velocity=95 time=0
EXTRACT: note_off channel=0 note=72 velocity=63 time=0.14423075
EXTRACT: note_off channel=0 note=68 velocity=63 time=0
EXTRACT: note_off channel=0 note=65 velocity=63 time=0
EXTRACT: note_off channel=0 note=60 velocity=63 time=0
EXTRACT: note_off channel=0 note=53 velocity=63 time=0
EXTRACT: note_on channel=0 note=72 velocity=63 time=0
EXTRACT: note_on channel=0 note=68 velocity=63 time=0
EXTRACT: note_on channel=0 note=65 velocity=63 time=0
EXTRACT: note_on channel=0 note=60 velocity=63 time=0
EXTRACT: note_on channel=0 note=53 velocity=63 time=0
EXTRACT: note_off channel=4 note=67 velocity=95 time=0
EXTRACT: note_off channel=4 note=63 velocity=95 time=0
EXTRACT: note_off channel=4 note=58 velocity=95 time=0
EXTRACT: note_on channel=4 note=68 velocity=95 time=0
EXTRACT: note_on channel=4 note=65 velocity=95 time=0
EXTRACT: note_on channel=4 note=60 velocity=95 time=0
EXTRACT: note_off channel=0 note=72 velocity=63 time=0.14423075
EXTRACT: note_off channel=0 note=68 velocity=63 time=0
EXTRACT: note_off channel=0 note=65 velocity=63 time=0
EXTRACT: note_off channel=0 note=60 velocity=63 time=0
EXTRACT: note_off channel=0 note=53 velocity=63 time=0
EXTRACT: note_on channel=0 note=64 velocity=63 time=0
EXTRACT: note_on channel=0 note=59 velocity=63 time=0
EXTRACT: note_on channel=0 note=55 velocity=63 time=0
EXTRACT: note_on channel=0 note=50 velocity=63 time=0
EXTRACT: note_on channel=0 note=45 velocity=63 time=0
EXTRACT: note_on channel=2 note=72 velocity=79 time=0
EXTRACT: note_on channel=2 note=68 velocity=79 time=0
EXTRACT: note_on channel=2 note=65 velocity=79 time=0
EXTRACT: note_off channel=4 note=68 velocity=95 time=0
EXTRACT: note_off channel=4 note=65 velocity=95 time=0
EXTRACT: note_off channel=4 note=60 velocity=95 time=0
EXTRACT: note_on channel=4 note=68 velocity=95 time=0
EXTRACT: note_on channel=4 note=65 velocity=95 time=0
EXTRACT: note_on channel=4 note=60 velocity=95 time=0
EXTRACT: note_off channel=0 note=64 velocity=63 time=0.031249995833333332
EXTRACT: note_off channel=0 note=59 velocity=63 time=0
EXTRACT: note_off channel=0 note=55 velocity=63 time=0
EXTRACT: note_off channel=0 note=50 velocity=63 time=0
EXTRACT: note_off channel=0 note=45 velocity=63 time=0
EXTRACT: note_on channel=0 note=64 velocity=63 time=0.11298075416666667
EXTRACT: note_on channel=0 note=59 velocity=63 time=0
EXTRACT: note_on channel=0 note=55 velocity=63 time=0
EXTRACT: note_on channel=0 note=50 velocity=63 time=0
EXTRACT: note_on channel=0 note=45 velocity=63 time=0
EXTRACT: note_off channel=2 note=72 velocity=79 time=0
EXTRACT: note_off channel=2 note=68 velocity=79 time=0
EXTRACT: note_off channel=2 note=65 velocity=79 time=0
EXTRACT: note_on channel=2 note=72 velocity=79 time=0
EXTRACT: note_on channel=2 note=68 velocity=79 time=0
EXTRACT: note_on channel=2 note=65 velocity=79 time=0
EXTRACT: note_off channel=4 note=68 velocity=95 time=0
EXTRACT: note_off channel=4 note=65 velocity=95 time=0
EXTRACT: note_off channel=4 note=60 velocity=95 time=0
EXTRACT: note_on channel=4 note=68 velocity=95 time=0
EXTRACT: note_on channel=4 note=65 velocity=95 time=0
EXTRACT: note_on channel=4 note=60 velocity=95 time=0
EXTRACT: note_off channel=0 note=64 velocity=63 time=0.031249995833333332
EXTRACT: note_off channel=0 note=59 velocity=63 time=0
EXTRACT: note_off channel=0 note=55 velocity=63 time=0
EXTRACT: note_off channel=0 note=50 velocity=63 time=0
EXTRACT: note_off channel=0 note=45 velocity=63 time=0
EXTRACT: note_on channel=0 note=72 velocity=63 time=0.11298075416666667
EXTRACT: note_on channel=0 note=68 velocity=63 time=0
EXTRACT: note_on channel=0 note=65 velocity=63 time=0
EXTRACT: note_on channel=0 note=60 velocity=63 time=0
EXTRACT: note_on channel=0 note=53 velocity=63 time=0
EXTRACT: note_off channel=2 note=72 velocity=79 time=0
EXTRACT: note_off channel=2 note=68 velocity=79 time=0
EXTRACT: note_off channel=2 note=65 velocity=79 time=0
EXTRACT: note_on channel=2 note=72 velocity=79 time=0
EXTRACT: note_on channel=2 note=68 velocity=79 time=0
EXTRACT: note_on channel=2 note=65 velocity=79 time=0
EXTRACT: note_off channel=4 note=68 velocity=95 time=0
EXTRACT: note_off channel=4 note=65 velocity=95 time=0
EXTRACT: note_off channel=4 note=60 velocity=95 time=0
EXTRACT: note_off channel=0 note=72 velocity=63 time=0.14423075
EXTRACT: note_off channel=0 note=68 velocity=63 time=0
EXTRACT: note_off channel=0 note=65 velocity=63 time=0
EXTRACT: note_off channel=0 note=60 velocity=63 time=0
EXTRACT: note_off channel=0 note=53 velocity=63 time=0
EXTRACT: note_on channel=0 note=72 velocity=63 time=0
EXTRACT: note_on channel=0 note=68 velocity=63 time=0
EXTRACT: note_on channel=0 note=65 velocity=63 time=0
EXTRACT: note_on channel=0 note=60 velocity=63 time=0
EXTRACT: note_on channel=0 note=53 velocity=63 time=0
EXTRACT: note_off channel=2 note=72 velocity=79 time=0
EXTRACT: note_off channel=2 note=68 velocity=79 time=0
EXTRACT: note_off channel=2 note=65 velocity=79 time=0
EXTRACT: note_on channel=2 note=72 velocity=79 time=0
EXTRACT: note_on channel=2 note=68 velocity=79 time=0
EXTRACT: note_on channel=2 note=65 velocity=79 time=0
EXTRACT: note_off channel=0 note=72 velocity=63 time=0.14423075
EXTRACT: note_off channel=0 note=68 velocity=63 time=0
EXTRACT: note_off channel=0 note=65 velocity=63 time=0
EXTRACT: note_off channel=0 note=60 velocity=63 time=0
EXTRACT: note_off channel=0 note=53 velocity=63 time=0
EXTRACT: note_on channel=0 note=64 velocity=63 time=0
EXTRACT: note_on channel=0 note=59 velocity=63 time=0
EXTRACT: note_on channel=0 note=55 velocity=63 time=0
EXTRACT: note_on channel=0 note=50 velocity=63 time=0
EXTRACT: note_on channel=0 note=45 velocity=63 time=0
EXTRACT: note_off channel=2 note=72 velocity=79 time=0
EXTRACT: note_off channel=2 note=68 velocity=79 time=0
EXTRACT: note_off channel=2 note=65 velocity=79 time=0
EXTRACT: note_off channel=0 note=64 velocity=63 time=0.031249995833333332
EXTRACT: note_off channel=0 note=59 velocity=63 time=0
EXTRACT: note_off channel=0 note=55 velocity=63 time=0
EXTRACT: note_off channel=0 note=50 velocity=63 time=0
EXTRACT: note_off channel=0 note=45 velocity=63 time=0
EXTRACT: note_on channel=0 note=64 velocity=63 time=0.11298075416666667
EXTRACT: note_on channel=0 note=59 velocity=63 time=0
EXTRACT: note_on channel=0 note=55 velocity=63 time=0
EXTRACT: note_on channel=0 note=50 velocity=63 time=0
EXTRACT: note_on channel=0 note=45 velocity=63 time=0
EXTRACT: note_off channel=0 note=64 velocity=63 time=0.031249995833333332
EXTRACT: note_off channel=0 note=59 velocity=63 time=0
EXTRACT: note_off channel=0 note=55 velocity=63 time=0
EXTRACT: note_off channel=0 note=50 velocity=63 time=0
EXTRACT: note_off channel=0 note=45 velocity=63 time=0
EXTRACT: note_on channel=0 note=72 velocity=63 time=0.11298075416666667
EXTRACT: note_on channel=0 note=68 velocity=63 time=0
EXTRACT: note_on channel=0 note=65 velocity=63 time=0
EXTRACT: note_on channel=0 note=60 velocity=63 time=0
EXTRACT: note_on channel=0 note=53 velocity=63 time=0
EXTRACT: note_on channel=4 note=67 velocity=95 time=0
EXTRACT: note_on channel=4 note=61 velocity=95 time=0
EXTRACT: note_on channel=4 note=70 velocity=95 time=0
EXTRACT: note_off channel=0 note=72 velocity=63 time=0.14423075
EXTRACT: note_off channel=0 note=68 velocity=63 time=0
EXTRACT: note_off channel=0 note=65 velocity=63 time=0
EXTRACT: note_off channel=0 note=60 velocity=63 time=0
EXTRACT: note_off channel=0 note=53 velocity=63 time=0
EXTRACT: note_on channel=0 note=72 velocity=63 time=0
EXTRACT: note_on channel=0 note=68 velocity=63 time=0
EXTRACT: note_on channel=0 note=65 velocity=63 time=0
EXTRACT: note_on channel=0 note=60 velocity=63 time=0
EXTRACT: note_on channel=0 note=53 velocity=63 time=0
EXTRACT: note_off channel=4 note=67 velocity=95 time=0
EXTRACT: note_off channel=4 note=61 velocity=95 time=0
EXTRACT: note_off channel=4 note=70 velocity=95 time=0
EXTRACT: note_on channel=4 note=72 velocity=95 time=0
EXTRACT: note_on channel=4 note=68 velocity=95 time=0
EXTRACT: note_on channel=4 note=63 velocity=95 time=0
EXTRACT: note_off channel=0 note=72 velocity=63 time=0.14423075
EXTRACT: note_off channel=0 note=68 velocity=63 time=0
EXTRACT: note_off channel=0 note=65 velocity=63 time=0
EXTRACT: note_off channel=0 note=60 velocity=63 time=0
EXTRACT: note_off channel=0 note=53 velocity=63 time=0
EXTRACT: note_on channel=0 note=64 velocity=63 time=0
EXTRACT: note_on channel=0 note=59 velocity=63 time=0
EXTRACT: note_on channel=0 note=55 velocity=63 time=0
EXTRACT: note_on channel=0 note=50 velocity=63 time=0
EXTRACT: note_on channel=0 note=45 velocity=63 time=0
EXTRACT: note_on channel=2 note=72 velocity=79 time=0
EXTRACT: note_on channel=2 note=68 velocity=79 time=0
EXTRACT: note_on channel=2 note=65 velocity=79 time=0
EXTRACT: note_off channel=4 note=72 velocity=95 time=0
EXTRACT: note_off channel=4 note=68 velocity=95 time=0
EXTRACT: note_off channel=4 note=63 velocity=95 time=0
EXTRACT: note_on channel=4 note=72 velocity=95 time=0
EXTRACT: note_on channel=4 note=68 velocity=95 time=0
EXTRACT: note_on channel=4 note=63 velocity=95 time=0
EXTRACT: note_off channel=0 note=64 velocity=63 time=0.031249995833333332
EXTRACT: note_off channel=0 note=59 velocity=63 time=0
EXTRACT: note_off channel=0 note=55 velocity=63 time=0
EXTRACT: note_off channel=0 note=50 velocity=63 time=0
EXTRACT: note_off channel=0 note=45 velocity=63 time=0
EXTRACT: note_on channel=0 note=64 velocity=63 time=0.11298075416666667
EXTRACT: note_on channel=0 note=59 velocity=63 time=0
EXTRACT: note_on channel=0 note=55 velocity=63 time=0
EXTRACT: note_on channel=0 note=50 velocity=63 time=0
EXTRACT: note_on channel=0 note=45 velocity=63 time=0
EXTRACT: note_off channel=4 note=72 velocity=95 time=0
EXTRACT: note_off channel=4 note=68 velocity=95 time=0
EXTRACT: note_off channel=4 note=63 velocity=95 time=0
EXTRACT: note_on channel=4 note=72 velocity=95 time=0
EXTRACT: note_on channel=4 note=68 velocity=95 time=0
EXTRACT: note_on channel=4 note=63 velocity=95 time=0
EXTRACT: note_off channel=0 note=64 velocity=63 time=0.031249995833333332
EXTRACT: note_off channel=0 note=59 velocity=63 time=0
EXTRACT: note_off channel=0 note=55 velocity=63 time=0
EXTRACT: note_off channel=0 note=50 velocity=63 time=0
EXTRACT: note_off channel=0 note=45 velocity=63 time=0
EXTRACT: note_on channel=0 note=72 velocity=63 time=0.11298075416666667
EXTRACT: note_on channel=0 note=68 velocity=63 time=0
EXTRACT: note_on channel=0 note=65 velocity=63 time=0
EXTRACT: note_on channel=0 note=60 velocity=63 time=0
EXTRACT: note_on channel=0 note=53 velocity=63 time=0
EXTRACT: note_off channel=4 note=72 velocity=95 time=0
EXTRACT: note_off channel=4 note=68 velocity=95 time=0
EXTRACT: note_off channel=4 note=63 velocity=95 time=0
EXTRACT: note_on channel=4 note=72 velocity=95 time=0
EXTRACT: note_on channel=4 note=68 velocity=95 time=0
EXTRACT: note_on channel=4 note=63 velocity=95 time=0
EXTRACT: note_off channel=0 note=72 velocity=63 time=0.14423075
EXTRACT: note_off channel=0 note=68 velocity=63 time=0
EXTRACT: note_off channel=0 note=65 velocity=63 time=0
EXTRACT: note_off channel=0 note=60 velocity=63 time=0
EXTRACT: note_off channel=0 note=53 velocity=63 time=0
EXTRACT: note_on channel=0 note=72 velocity=63 time=0
EXTRACT: note_on channel=0 note=68 velocity=63 time=0
EXTRACT: note_on channel=0 note=65 velocity=63 time=0
EXTRACT: note_on channel=0 note=60 velocity=63 time=0
EXTRACT: note_on channel=0 note=53 velocity=63 time=0
EXTRACT: note_off channel=4 note=72 velocity=95 time=0
EXTRACT: note_off channel=4 note=68 velocity=95 time=0
EXTRACT: note_off channel=4 note=63 velocity=95 time=0
EXTRACT: note_on channel=4 note=67 velocity=95 time=0
EXTRACT: note_on channel=4 note=61 velocity=95 time=0
EXTRACT: note_on channel=4 note=70 velocity=95 time=0
EXTRACT: note_off channel=0 note=72 velocity=63 time=0.14423075
EXTRACT: note_off channel=0 note=68 velocity=63 time=0
EXTRACT: note_off channel=0 note=65 velocity=63 time=0
EXTRACT: note_off channel=0 note=60 velocity=63 time=0
EXTRACT: note_off channel=0 note=53 velocity=63 time=0
EXTRACT: note_on channel=0 note=64 velocity=63 time=0
EXTRACT: note_on channel=0 note=59 velocity=63 time=0
EXTRACT: note_on channel=0 note=55 velocity=63 time=0
EXTRACT: note_on channel=0 note=50 velocity=63 time=0
EXTRACT: note_on channel=0 note=45 velocity=63 time=0
EXTRACT: note_off channel=4 note=67 velocity=95 time=0
EXTRACT: note_off channel=4 note=61 velocity=95 time=0
EXTRACT: note_off channel=4 note=70 velocity=95 time=0
EXTRACT: note_on channel=4 note=67 velocity=95 time=0
EXTRACT: note_on channel=4 note=61 velocity=95 time=0
EXTRACT: note_on channel=4 note=70 velocity=95 time=0
EXTRACT: note_off channel=0 note=64 velocity=63 time=0.031249995833333332
EXTRACT: note_off channel=0 note=59 velocity=63 time=0
EXTRACT: note_off channel=0 note=55 velocity=63 time=0
EXTRACT: note_off channel=0 note=50 velocity=63 time=0
EXTRACT: note_off channel=0 note=45 velocity=63 time=0
EXTRACT: note_on channel=0 note=64 velocity=63 time=0.11298075416666667
EXTRACT: note_on channel=0 note=59 velocity=63 time=0
EXTRACT: note_on channel=0 note=55 velocity=63 time=0
EXTRACT: note_on channel=0 note=50 velocity=63 time=0
EXTRACT: note_on channel=0 note=45 velocity=63 time=0
EXTRACT: note_off channel=4 note=67 velocity=95 time=0
EXTRACT: note_off channel=4 note=61 velocity=95 time=0
EXTRACT: note_off channel=4 note=70 velocity=95 time=0
EXTRACT: note_on channel=4 note=67 velocity=95 time=0
EXTRACT: note_on channel=4 note=61 velocity=95 time=0
EXTRACT: note_on channel=4 note=70 velocity=95 time=0
EXTRACT: note_off channel=0 note=64 velocity=63 time=0.031249995833333332
EXTRACT: note_off channel=0 note=59 velocity=63 time=0
EXTRACT: note_off channel=0 note=55 velocity=63 time=0
EXTRACT: note_off channel=0 note=50 velocity=63 time=0
EXTRACT: note_off channel=0 note=45 velocity=63 time=0
EXTRACT: note_on channel=0 note=72 velocity=63 time=0.11298075416666667
EXTRACT: note_on channel=0 note=68 velocity=63 time=0
EXTRACT: note_on channel=0 note=65 velocity=63 time=0
EXTRACT: note_on channel=0 note=60 velocity=63 time=0
EXTRACT: note_on channel=0 note=53 velocity=63 time=0
EXTRACT: note_off channel=0 note=72 velocity=63 time=0.14423075
EXTRACT: note_off channel=0 note=68 velocity=63 time=0
EXTRACT: note_off channel=0 note=65 velocity=63 time=0
EXTRACT: note_off channel=0 note=60 velocity=63 time=0
EXTRACT: note_off channel=0 note=53 velocity=63 time=0
EXTRACT: note_on channel=0 note=72 velocity=63 time=0
EXTRACT: note_on channel=0 note=68 velocity=63 time=0
EXTRACT: note_on channel=0 note=65 velocity=63 time=0
EXTRACT: note_on channel=0 note=60 velocity=63 time=0
EXTRACT: note_on channel=0 note=53 velocity=63 time=0
EXTRACT: note_off channel=4 note=67 velocity=95 time=0
EXTRACT: note_off channel=4 note=61 velocity=95 time=0
EXTRACT: note_off channel=4 note=70 velocity=95 time=0
EXTRACT: note_on channel=4 note=68 velocity=95 time=0
EXTRACT: note_on channel=4 note=65 velocity=95 time=0
EXTRACT: note_on channel=4 note=60 velocity=95 time=0
EXTRACT: note_off channel=0 note=72 velocity=63 time=0.14423075
EXTRACT: note_off channel=0 note=68 velocity=63 time=0
EXTRACT: note_off channel=0 note=65 velocity=63 time=0
EXTRACT: note_off channel=0 note=60 velocity=63 time=0
EXTRACT: note_off channel=0 note=53 velocity=63 time=0
EXTRACT: note_on channel=0 note=64 velocity=63 time=0
EXTRACT: note_on channel=0 note=59 velocity=63 time=0
EXTRACT: note_on channel=0 note=55 velocity=63 time=0
EXTRACT: note_on channel=0 note=50 velocity=63 time=0
EXTRACT: note_on channel=0 note=45 velocity=63 time=0
EXTRACT: note_off channel=4 note=68 velocity=95 time=0
EXTRACT: note_off channel=4 note=65 velocity=95 time=0
EXTRACT: note_off channel=4 note=60 velocity=95 time=0
EXTRACT: note_on channel=4 note=68 velocity=95 time=0
EXTRACT: note_on channel=4 note=65 velocity=95 time=0
EXTRACT: note_on channel=4 note=60 velocity=95 time=0
EXTRACT: note_off channel=0 note=64 velocity=63 time=0.031249995833333332
EXTRACT: note_off channel=0 note=59 velocity=63 time=0
EXTRACT: note_off channel=0 note=55 velocity=63 time=0
EXTRACT: note_off channel=0 note=50 velocity=63 time=0
EXTRACT: note_off channel=0 note=45 velocity=63 time=0
EXTRACT: note_on channel=0 note=64 velocity=63 time=0.11298075416666667
EXTRACT: note_on channel=0 note=59 velocity=63 time=0
EXTRACT: note_on channel=0 note=55 velocity=63 time=0
EXTRACT: note_on channel=0 note=50 velocity=63 time=0
EXTRACT: note_on channel=0 note=45 velocity=63 time=0
EXTRACT: note_off channel=2 note=72 velocity=79 time=0
EXTRACT: note_off channel=2 note=68 velocity=79 time=0
EXTRACT: note_off channel=2 note=65 velocity=79 time=0
EXTRACT: note_on channel=2 note=72 velocity=79 time=0
EXTRACT: note_on channel=2 note=68 velocity=79 time=0
EXTRACT: note_on channel=2 note=65 velocity=79 time=0
EXTRACT: note_off channel=4 note=68 velocity=95 time=0
EXTRACT: note_off channel=4 note=65 velocity=95 time=0
EXTRACT: note_off channel=4 note=60 velocity=95 time=0
EXTRACT: note_on channel=4 note=68 velocity=95 time=0
EXTRACT: note_on channel=4 note=65 velocity=95 time=0
EXTRACT: note_on channel=4 note=60 velocity=95 time=0
EXTRACT: note_off channel=0 note=64 velocity=63 time=0.031249995833333332
EXTRACT: note_off channel=0 note=59 velocity=63 time=0
EXTRACT: note_off channel=0 note=55 velocity=63 time=0
EXTRACT: note_off channel=0 note=50 velocity=63 time=0
EXTRACT: note_off channel=0 note=45 velocity=63 time=0
EXTRACT: note_on channel=0 note=72 velocity=63 time=0.11298075416666667
EXTRACT: note_on channel=0 note=68 velocity=63 time=0
EXTRACT: note_on channel=0 note=65 velocity=63 time=0
EXTRACT: note_on channel=0 note=60 velocity=63 time=0
EXTRACT: note_on channel=0 note=53 velocity=63 time=0
EXTRACT: note_off channel=2 note=72 velocity=79 time=0
EXTRACT: note_off channel=2 note=68 velocity=79 time=0
EXTRACT: note_off channel=2 note=65 velocity=79 time=0
EXTRACT: note_off channel=4 note=68 velocity=95 time=0
EXTRACT: note_off channel=4 note=65 velocity=95 time=0
EXTRACT: note_off channel=4 note=60 velocity=95 time=0
EXTRACT: note_on channel=4 note=68 velocity=95 time=0
EXTRACT: note_on channel=4 note=65 velocity=95 time=0
EXTRACT: note_on channel=4 note=60 velocity=95 time=0
EXTRACT: note_off channel=0 note=72 velocity=63 time=0.14423075
EXTRACT: note_off channel=0 note=68 velocity=63 time=0
EXTRACT: note_off channel=0 note=65 velocity=63 time=0
EXTRACT: note_off channel=0 note=60 velocity=63 time=0
EXTRACT: note_off channel=0 note=53 velocity=63 time=0
EXTRACT: note_on channel=0 note=72 velocity=63 time=0
EXTRACT: note_on channel=0 note=68 velocity=63 time=0
EXTRACT: note_on channel=0 note=65 velocity=63 time=0
EXTRACT: note_on channel=0 note=60 velocity=63 time=0
EXTRACT: note_on channel=0 note=53 velocity=63 time=0
EXTRACT: note_off channel=4 note=68 velocity=95 time=0
EXTRACT: note_off channel=4 note=65 velocity=95 time=0
EXTRACT: note_off channel=4 note=60 velocity=95 time=0
EXTRACT: note_on channel=4 note=67 velocity=95 time=0
EXTRACT: note_on channel=4 note=63 velocity=95 time=0
EXTRACT: note_on channel=4 note=58 velocity=95 time=0
EXTRACT: note_off channel=0 note=72 velocity=63 time=0.14423075
EXTRACT: note_off channel=0 note=68 velocity=63 time=0
EXTRACT: note_off channel=0 note=65 velocity=63 time=0
EXTRACT: note_off channel=0 note=60 velocity=63 time=0
EXTRACT: note_off channel=0 note=53 velocity=63 time=0
EXTRACT: note_on channel=0 note=64 velocity=63 time=0
EXTRACT: note_on channel=0 note=59 velocity=63 time=0
EXTRACT: note_on channel=0 note=55 velocity=63 time=0
EXTRACT: note_on channel=0 note=50 velocity=63 time=0
EXTRACT: note_on channel=0 note=45 velocity=63 time=0
EXTRACT: note_on channel=2 note=72 velocity=79 time=0
EXTRACT: note_on channel=2 note=68 velocity=79 time=0
EXTRACT: note_on channel=2 note=65 velocity=79 time=0
EXTRACT: note_off channel=4 note=67 velocity=95 time=0
EXTRACT: note_off channel=4 note=63 velocity=95 time=0
EXTRACT: note_off channel=4 note=58 velocity=95 time=0
EXTRACT: note_on channel=4 note=67 velocity=95 time=0
EXTRACT: note_on channel=4 note=63 velocity=95 time=0
EXTRACT: note_on channel=4 note=58 velocity=95 time=0
EXTRACT: note_off channel=0 note=64 velocity=63 time=0.031249995833333332
EXTRACT: note_off channel=0 note=59 velocity=63 time=0
EXTRACT: note_off channel=0 note=55 velocity=63 time=0
EXTRACT: note_off channel=0 note=50 velocity=63 time=0
EXTRACT: note_off channel=0 note=45 velocity=63 time=0
EXTRACT: note_on channel=0 note=64 velocity=63 time=0.11298075416666667
EXTRACT: note_on channel=0 note=59 velocity=63 time=0
EXTRACT: note_on channel=0 note=55 velocity=63 time=0
EXTRACT: note_on channel=0 note=50 velocity=63 time=0
EXTRACT: note_on channel=0 note=45 velocity=63 time=0
EXTRACT: note_off channel=4 note=67 velocity=95 time=0
EXTRACT: note_off channel=4 note=63 velocity=95 time=0
EXTRACT: note_off channel=4 note=58 velocity=95 time=0
EXTRACT: note_on channel=4 note=67 velocity=95 time=0
EXTRACT: note_on channel=4 note=63 velocity=95 time=0
EXTRACT: note_on channel=4 note=58 velocity=95 time=0
EXTRACT: note_off channel=0 note=64 velocity=63 time=0.031249995833333332
EXTRACT: note_off channel=0 note=59 velocity=63 time=0
EXTRACT: note_off channel=0 note=55 velocity=63 time=0
EXTRACT: note_off channel=0 note=50 velocity=63 time=0
EXTRACT: note_off channel=0 note=45 velocity=63 time=0
EXTRACT: note_on channel=0 note=72 velocity=63 time=0.11298075416666667
EXTRACT: note_on channel=0 note=68 velocity=63 time=0
EXTRACT: note_on channel=0 note=65 velocity=63 time=0
EXTRACT: note_on channel=0 note=60 velocity=63 time=0
EXTRACT: note_on channel=0 note=53 velocity=63 time=0
EXTRACT: note_off channel=0 note=72 velocity=63 time=0.14423075
EXTRACT: note_off channel=0 note=68 velocity=63 time=0
EXTRACT: note_off channel=0 note=65 velocity=63 time=0
EXTRACT: note_off channel=0 note=60 velocity=63 time=0
EXTRACT: note_off channel=0 note=53 velocity=63 time=0
EXTRACT: note_on channel=0 note=72 velocity=63 time=0
EXTRACT: note_on channel=0 note=68 velocity=63 time=0
EXTRACT: note_on channel=0 note=65 velocity=63 time=0
EXTRACT: note_on channel=0 note=60 velocity=63 time=0
EXTRACT: note_on channel=0 note=53 velocity=63 time=0
EXTRACT: note_off channel=4 note=67 velocity=95 time=0
EXTRACT: note_off channel=4 note=63 velocity=95 time=0
EXTRACT: note_off channel=4 note=58 velocity=95 time=0
EXTRACT: note_on channel=4 note=68 velocity=95 time=0
EXTRACT: note_on channel=4 note=65 velocity=95 time=0
EXTRACT: note_on channel=4 note=60 velocity=95 time=0
EXTRACT: note_off channel=0 note=72 velocity=63 time=0.14423075
EXTRACT: note_off channel=0 note=68 velocity=63 time=0
EXTRACT: note_off channel=0 note=65 velocity=63 time=0
EXTRACT: note_off channel=0 note=60 velocity=63 time=0
EXTRACT: note_off channel=0 note=53 velocity=63 time=0
EXTRACT: note_on channel=0 note=64 velocity=63 time=0
EXTRACT: note_on channel=0 note=59 velocity=63 time=0
EXTRACT: note_on channel=0 note=55 velocity=63 time=0
EXTRACT: note_on channel=0 note=50 velocity=63 time=0
EXTRACT: note_on channel=0 note=45 velocity=63 time=0
EXTRACT: note_off channel=2 note=72 velocity=79 time=0
EXTRACT: note_off channel=2 note=68 velocity=79 time=0
EXTRACT: note_off channel=2 note=65 velocity=79 time=0
EXTRACT: note_on channel=2 note=72 velocity=79 time=0
EXTRACT: note_on channel=2 note=68 velocity=79 time=0
EXTRACT: note_on channel=2 note=65 velocity=79 time=0
EXTRACT: note_off channel=4 note=68 velocity=95 time=0
EXTRACT: note_off channel=4 note=65 velocity=95 time=0
EXTRACT: note_off channel=4 note=60 velocity=95 time=0
EXTRACT: note_on channel=4 note=68 velocity=95 time=0
EXTRACT: note_on channel=4 note=65 velocity=95 time=0
EXTRACT: note_on channel=4 note=60 velocity=95 time=0
EXTRACT: note_off channel=0 note=64 velocity=63 time=0.031249995833333332
EXTRACT: note_off channel=0 note=59 velocity=63 time=0
EXTRACT: note_off channel=0 note=55 velocity=63 time=0
EXTRACT: note_off channel=0 note=50 velocity=63 time=0
EXTRACT: note_off channel=0 note=45 velocity=63 time=0
EXTRACT: note_on channel=0 note=64 velocity=63 time=0.11298075416666667
EXTRACT: note_on channel=0 note=59 velocity=63 time=0
EXTRACT: note_on channel=0 note=55 velocity=63 time=0
EXTRACT: note_on channel=0 note=50 velocity=63 time=0
EXTRACT: note_on channel=0 note=45 velocity=63 time=0
EXTRACT: note_off channel=2 note=72 velocity=79 time=0
EXTRACT: note_off channel=2 note=68 velocity=79 time=0
EXTRACT: note_off channel=2 note=65 velocity=79 time=0
EXTRACT: note_off channel=4 note=68 velocity=95 time=0
EXTRACT: note_off channel=4 note=65 velocity=95 time=0
EXTRACT: note_off channel=4 note=60 velocity=95 time=0
EXTRACT: note_on channel=4 note=68 velocity=95 time=0
EXTRACT: note_on channel=4 note=65 velocity=95 time=0
EXTRACT: note_on channel=4 note=60 velocity=95 time=0
EXTRACT: note_off channel=0 note=64 velocity=63 time=0.031249995833333332
EXTRACT: note_off channel=0 note=59 velocity=63 time=0
EXTRACT: note_off channel=0 note=55 velocity=63 time=0
EXTRACT: note_off channel=0 note=50 velocity=63 time=0
EXTRACT: note_off channel=0 note=45 velocity=63 time=0
EXTRACT: note_on channel=0 note=72 velocity=63 time=0.11298075416666667
EXTRACT: note_on channel=0 note=68 velocity=63 time=0
EXTRACT: note_on channel=0 note=65 velocity=63 time=0
EXTRACT: note_on channel=0 note=60 velocity=63 time=0
EXTRACT: note_on channel=0 note=53 velocity=63 time=0
EXTRACT: note_on channel=2 note=72 velocity=79 time=0
EXTRACT: note_on channel=2 note=68 velocity=79 time=0
EXTRACT: note_on channel=2 note=65 velocity=79 time=0
EXTRACT: note_off channel=4 note=68 velocity=95 time=0
EXTRACT: note_off channel=4 note=65 velocity=95 time=0
EXTRACT: note_off channel=4 note=60 velocity=95 time=0
EXTRACT: note_off channel=0 note=72 velocity=63 time=0.14423075
EXTRACT: note_off channel=0 note=68 velocity=63 time=0
EXTRACT: note_off channel=0 note=65 velocity=63 time=0
EXTRACT: note_off channel=0 note=60 velocity=63 time=0
EXTRACT: note_off channel=0 note=53 velocity=63 time=0
EXTRACT: note_on channel=0 note=72 velocity=63 time=0
EXTRACT: note_on channel=0 note=68 velocity=63 time=0
EXTRACT: note_on channel=0 note=65 velocity=63 time=0
EXTRACT: note_on channel=0 note=60 velocity=63 time=0
EXTRACT: note_on channel=0 note=53 velocity=63 time=0
EXTRACT: note_off channel=2 note=72 velocity=79 time=0
EXTRACT: note_off channel=2 note=68 velocity=79 time=0
EXTRACT: note_off channel=2 note=65 velocity=79 time=0
EXTRACT: note_on channel=2 note=72 velocity=79 time=0
EXTRACT: note_on channel=2 note=68 velocity=79 time=0
EXTRACT: note_on channel=2 note=65 velocity=79 time=0
EXTRACT: note_off channel=0 note=72 velocity=63 time=0.14423075
EXTRACT: note_off channel=0 note=68 velocity=63 time=0
EXTRACT: note_off channel=0 note=65 velocity=63 time=0
EXTRACT: note_off channel=0 note=60 velocity=63 time=0
EXTRACT: note_off channel=0 note=53 velocity=63 time=0
EXTRACT: note_on channel=0 note=64 velocity=63 time=0
EXTRACT: note_on channel=0 note=59 velocity=63 time=0
EXTRACT: note_on channel=0 note=55 velocity=63 time=0
EXTRACT: note_on channel=0 note=50 velocity=63 time=0
EXTRACT: note_on channel=0 note=45 velocity=63 time=0
EXTRACT: note_off channel=2 note=72 velocity=79 time=0
EXTRACT: note_off channel=2 note=68 velocity=79 time=0
EXTRACT: note_off channel=2 note=65 velocity=79 time=0
EXTRACT: note_off channel=0 note=64 velocity=63 time=0.031249995833333332
EXTRACT: note_off channel=0 note=59 velocity=63 time=0
EXTRACT: note_off channel=0 note=55 velocity=63 time=0
EXTRACT: note_off channel=0 note=50 velocity=63 time=0
EXTRACT: note_off channel=0 note=45 velocity=63 time=0
EXTRACT: note_on channel=0 note=64 velocity=63 time=0.11298075416666667
EXTRACT: note_on channel=0 note=59 velocity=63 time=0
EXTRACT: note_on channel=0 note=55 velocity=63 time=0
EXTRACT: note_on channel=0 note=50 velocity=63 time=0
EXTRACT: note_on channel=0 note=45 velocity=63 time=0
EXTRACT: note_off channel=0 note=64 velocity=63 time=0.031249995833333332
EXTRACT: note_off channel=0 note=59 velocity=63 time=0
EXTRACT: note_off channel=0 note=55 velocity=63 time=0
EXTRACT: note_off channel=0 note=50 velocity=63 time=0
EXTRACT: note_off channel=0 note=45 velocity=63 time=0
EXTRACT: note_on channel=0 note=72 velocity=63 time=0.11298075416666667
EXTRACT: note_on channel=0 note=68 velocity=63 time=0
EXTRACT: note_on channel=0 note=65 velocity=63 time=0
EXTRACT: note_on channel=0 note=60 velocity=63 time=0
EXTRACT: note_on channel=0 note=53 velocity=63 time=0
EXTRACT: note_on channel=4 note=67 velocity=95 time=0
EXTRACT: note_on channel=4 note=63 velocity=95 time=0
EXTRACT: note_on channel=4 note=58 velocity=95 time=0
EXTRACT: note_off channel=0 note=72 velocity=63 time=0.14423075
EXTRACT: note_off channel=0 note=68 velocity=63 time=0
EXTRACT: note_off channel=0 note=65 velocity=63 time=0
EXTRACT: note_off channel=0 note=60 velocity=63 time=0
EXTRACT: note_off channel=0 note=53 velocity=63 time=0
EXTRACT: note_on channel=0 note=72 velocity=63 time=0
EXTRACT: note_on channel=0 note=68 velocity=63 time=0
EXTRACT: note_on channel=0 note=65 velocity=63 time=0
EXTRACT: note_on channel=0 note=60 velocity=63 time=0
EXTRACT: note_on channel=0 note=53 velocity=63 time=0
EXTRACT: note_off channel=4 note=67 velocity=95 time=0
EXTRACT: note_off channel=4 note=63 velocity=95 time=0
EXTRACT: note_off channel=4 note=58 velocity=95 time=0
EXTRACT: note_on channel=4 note=68 velocity=95 time=0
EXTRACT: note_on channel=4 note=65 velocity=95 time=0
EXTRACT: note_on channel=4 note=60 velocity=95 time=0
EXTRACT: note_off channel=0 note=72 velocity=63 time=0.14423075
EXTRACT: note_off channel=0 note=68 velocity=63 time=0
EXTRACT: note_off channel=0 note=65 velocity=63 time=0
EXTRACT: note_off channel=0 note=60 velocity=63 time=0
EXTRACT: note_off channel=0 note=53 velocity=63 time=0
EXTRACT: note_on channel=0 note=64 velocity=63 time=0
EXTRACT: note_on channel=0 note=59 velocity=63 time=0
EXTRACT: note_on channel=0 note=55 velocity=63 time=0
EXTRACT: note_on channel=0 note=50 velocity=63 time=0
EXTRACT: note_on channel=0 note=45 velocity=63 time=0
EXTRACT: note_on channel=2 note=72 velocity=79 time=0
EXTRACT: note_on channel=2 note=68 velocity=79 time=0
EXTRACT: note_on channel=2 note=65 velocity=79 time=0
EXTRACT: note_off channel=4 note=68 velocity=95 time=0
EXTRACT: note_off channel=4 note=65 velocity=95 time=0
EXTRACT: note_off channel=4 note=60 velocity=95 time=0
EXTRACT: note_on channel=4 note=68 velocity=95 time=0
EXTRACT: note_on channel=4 note=65 velocity=95 time=0
EXTRACT: note_on channel=4 note=60 velocity=95 time=0
EXTRACT: note_off channel=0 note=64 velocity=63 time=0.031249995833333332
EXTRACT: note_off channel=0 note=59 velocity=63 time=0
EXTRACT: note_off channel=0 note=55 velocity=63 time=0
EXTRACT: note_off channel=0 note=50 velocity=63 time=0
EXTRACT: note_off channel=0 note=45 velocity=63 time=0
EXTRACT: note_on channel=0 note=64 velocity=63 time=0.11298075416666667
EXTRACT: note_on channel=0 note=59 velocity=63 time=0
EXTRACT: note_on channel=0 note=55 velocity=63 time=0
EXTRACT: note_on channel=0 note=50 velocity=63 time=0
EXTRACT: note_on channel=0 note=45 velocity=63 time=0
EXTRACT: note_off channel=2 note=72 velocity=79 time=0
EXTRACT: note_off channel=2 note=68 velocity=79 time=0
EXTRACT: note_off channel=2 note=65 velocity=79 time=0
EXTRACT: note_on channel=2 note=72 velocity=79 time=0
EXTRACT: note_on channel=2 note=68 velocity=79 time=0
EXTRACT: note_on channel=2 note=65 velocity=79 time=0
EXTRACT: note_off channel=4 note=68 velocity=95 time=0
EXTRACT: note_off channel=4 note=65 velocity=95 time=0
EXTRACT: note_off channel=4 note=60 velocity=95 time=0
EXTRACT: note_on channel=4 note=68 velocity=95 time=0
EXTRACT: note_on channel=4 note=65 velocity=95 time=0
EXTRACT: note_on channel=4 note=60 velocity=95 time=0
EXTRACT: note_off channel=0 note=64 velocity=63 time=0.031249995833333332
EXTRACT: note_off channel=0 note=59 velocity=63 time=0
EXTRACT: note_off channel=0 note=55 velocity=63 time=0
EXTRACT: note_off channel=0 note=50 velocity=63 time=0
EXTRACT: note_off channel=0 note=45 velocity=63 time=0
EXTRACT: note_on channel=0 note=72 velocity=63 time=0.11298075416666667
EXTRACT: note_on channel=0 note=68 velocity=63 time=0
EXTRACT: note_on channel=0 note=65 velocity=63 time=0
EXTRACT: note_on channel=0 note=60 velocity=63 time=0
EXTRACT: note_on channel=0 note=53 velocity=63 time=0
EXTRACT: note_off channel=4 note=68 velocity=95 time=0
EXTRACT: note_off channel=4 note=65 velocity=95 time=0
EXTRACT: note_off channel=4 note=60 velocity=95 time=0
EXTRACT: note_off channel=0 note=72 velocity=63 time=0.14423075
EXTRACT: note_off channel=0 note=68 velocity=63 time=0
EXTRACT: note_off channel=0 note=65 velocity=63 time=0
EXTRACT: note_off channel=0 note=60 velocity=63 time=0
EXTRACT: note_off channel=0 note=53 velocity=63 time=0
EXTRACT: note_on channel=0 note=72 velocity=63 time=0
EXTRACT: note_on channel=0 note=68 velocity=63 time=0
EXTRACT: note_on channel=0 note=65 velocity=63 time=0
EXTRACT: note_on channel=0 note=60 velocity=63 time=0
EXTRACT: note_on channel=0 note=53 velocity=63 time=0
EXTRACT: note_off channel=2 note=72 velocity=79 time=0
EXTRACT: note_off channel=2 note=68 velocity=79 time=0
EXTRACT: note_off channel=2 note=65 velocity=79 time=0
EXTRACT: note_on channel=2 note=72 velocity=79 time=0
EXTRACT: note_on channel=2 note=68 velocity=79 time=0
EXTRACT: note_on channel=2 note=65 velocity=79 time=0
EXTRACT: note_off channel=0 note=72 velocity=63 time=0.14423075
EXTRACT: note_off channel=0 note=68 velocity=63 time=0
EXTRACT: note_off channel=0 note=65 velocity=63 time=0
EXTRACT: note_off channel=0 note=60 velocity=63 time=0
EXTRACT: note_off channel=0 note=53 velocity=63 time=0
EXTRACT: note_on channel=0 note=64 velocity=63 time=0
EXTRACT: note_on channel=0 note=59 velocity=63 time=0
EXTRACT: note_on channel=0 note=55 velocity=63 time=0
EXTRACT: note_on channel=0 note=50 velocity=63 time=0
EXTRACT: note_on channel=0 note=45 velocity=63 time=0
EXTRACT: note_off channel=2 note=72 velocity=79 time=0
EXTRACT: note_off channel=2 note=68 velocity=79 time=0
EXTRACT: note_off channel=2 note=65 velocity=79 time=0
EXTRACT: note_on channel=2 note=72 velocity=79 time=0
EXTRACT: note_on channel=2 note=68 velocity=79 time=0
EXTRACT: note_on channel=2 note=65 velocity=79 time=0
EXTRACT: note_off channel=0 note=64 velocity=63 time=0.031249995833333332
EXTRACT: note_off channel=0 note=59 velocity=63 time=0
EXTRACT: note_off channel=0 note=55 velocity=63 time=0
EXTRACT: note_off channel=0 note=50 velocity=63 time=0
EXTRACT: note_off channel=0 note=45 velocity=63 time=0
EXTRACT: note_on channel=0 note=64 velocity=63 time=0.11298075416666667
EXTRACT: note_on channel=0 note=59 velocity=63 time=0
EXTRACT: note_on channel=0 note=55 velocity=63 time=0
EXTRACT: note_on channel=0 note=50 velocity=63 time=0
EXTRACT: note_on channel=0 note=45 velocity=63 time=0
EXTRACT: note_off channel=0 note=64 velocity=63 time=0.031249995833333332
EXTRACT: note_off channel=0 note=59 velocity=63 time=0
EXTRACT: note_off channel=0 note=55 velocity=63 time=0
EXTRACT: note_off channel=0 note=50 velocity=63 time=0
EXTRACT: note_off channel=0 note=45 velocity=63 time=0
EXTRACT: note_on channel=0 note=72 velocity=63 time=0.11298075416666667
EXTRACT: note_on channel=0 note=68 velocity=63 time=0
EXTRACT: note_on channel=0 note=65 velocity=63 time=0
EXTRACT: note_on channel=0 note=60 velocity=63 time=0
EXTRACT: note_on channel=0 note=53 velocity=63 time=0
EXTRACT: note_on channel=4 note=72 velocity=95 time=0
EXTRACT: note_on channel=4 note=68 velocity=95 time=0
EXTRACT: note_on channel=4 note=65 velocity=95 time=0
EXTRACT: note_off channel=0 note=72 velocity=63 time=0.14423075
EXTRACT: note_off channel=0 note=68 velocity=63 time=0
EXTRACT: note_off channel=0 note=65 velocity=63 time=0
EXTRACT: note_off channel=0 note=60 velocity=63 time=0
EXTRACT: note_off channel=0 note=53 velocity=63 time=0
EXTRACT: note_on channel=0 note=72 velocity=63 time=0
EXTRACT: note_on channel=0 note=68 velocity=63 time=0
EXTRACT: note_on channel=0 note=65 velocity=63 time=0
EXTRACT: note_on channel=0 note=60 velocity=63 time=0
EXTRACT: note_on channel=0 note=53 velocity=63 time=0
EXTRACT: note_off channel=0 note=72 velocity=63 time=0.14423075
EXTRACT: note_off channel=0 note=68 velocity=63 time=0
EXTRACT: note_off channel=0 note=65 velocity=63 time=0
EXTRACT: note_off channel=0 note=60 velocity=63 time=0
EXTRACT: note_off channel=0 note=53 velocity=63 time=0
EXTRACT: note_on channel=0 note=64 velocity=63 time=0
EXTRACT: note_on channel=0 note=59 velocity=63 time=0
EXTRACT: note_on channel=0 note=55 velocity=63 time=0
EXTRACT: note_on channel=0 note=50 velocity=63 time=0
EXTRACT: note_on channel=0 note=45 velocity=63 time=0
EXTRACT: note_off channel=2 note=72 velocity=79 time=0
EXTRACT: note_off channel=2 note=68 velocity=79 time=0
EXTRACT: note_off channel=2 note=65 velocity=79 time=0
EXTRACT: note_on channel=2 note=72 velocity=79 time=0
EXTRACT: note_on channel=2 note=68 velocity=79 time=0
EXTRACT: note_on channel=2 note=65 velocity=79 time=0
EXTRACT: note_off channel=4 note=72 velocity=95 time=0
EXTRACT: note_off channel=4 note=68 velocity=95 time=0
EXTRACT: note_off channel=4 note=65 velocity=95 time=0
EXTRACT: note_off channel=0 note=64 velocity=63 time=0.031249995833333332
EXTRACT: note_off channel=0 note=59 velocity=63 time=0
EXTRACT: note_off channel=0 note=55 velocity=63 time=0
EXTRACT: note_off channel=0 note=50 velocity=63 time=0
EXTRACT: note_off channel=0 note=45 velocity=63 time=0
EXTRACT: note_on channel=0 note=64 velocity=63 time=0.11298075416666667
EXTRACT: note_on channel=0 note=59 velocity=63 time=0
EXTRACT: note_on channel=0 note=55 velocity=63 time=0
EXTRACT: note_on channel=0 note=50 velocity=63 time=0
EXTRACT: note_on channel=0 note=45 velocity=63 time=0
EXTRACT: note_off channel=2 note=72 velocity=79 time=0
EXTRACT: note_off channel=2 note=68 velocity=79 time=0
EXTRACT: note_off channel=2 note=65 velocity=79 time=0
EXTRACT: note_on channel=2 note=72 velocity=79 time=0
EXTRACT: note_on channel=2 note=68 velocity=79 time=0
EXTRACT: note_on channel=2 note=65 velocity=79 time=0
EXTRACT: note_off channel=0 note=64 velocity=63 time=0.031249995833333332
EXTRACT: note_off channel=0 note=59 velocity=63 time=0
EXTRACT: note_off channel=0 note=55 velocity=63 time=0
EXTRACT: note_off channel=0 note=50 velocity=63 time=0
EXTRACT: note_off channel=0 note=45 velocity=63 time=0
EXTRACT: note_on channel=0 note=72 velocity=63 time=0.11298075416666667
EXTRACT: note_on channel=0 note=68 velocity=63 time=0
EXTRACT: note_on channel=0 note=65 velocity=63 time=0
EXTRACT: note_on channel=0 note=60 velocity=63 time=0
EXTRACT: note_on channel=0 note=53 velocity=63 time=0
EXTRACT: note_on channel=4 note=70 velocity=95 time=0
EXTRACT: note_on channel=4 note=67 velocity=95 time=0
EXTRACT: note_on channel=4 note=63 velocity=95 time=0
EXTRACT: note_off channel=0 note=72 velocity=63 time=0.14423075
EXTRACT: note_off channel=0 note=68 velocity=63 time=0
EXTRACT: note_off channel=0 note=65 velocity=63 time=0
EXTRACT: note_off channel=0 note=60 velocity=63 time=0
EXTRACT: note_off channel=0 note=53 velocity=63 time=0
EXTRACT: note_on channel=0 note=72 velocity=63 time=0
EXTRACT: note_on channel=0 note=68 velocity=63 time=0
EXTRACT: note_on channel=0 note=65 velocity=63 time=0
EXTRACT: note_on channel=0 note=60 velocity=63 time=0
EXTRACT: note_on channel=0 note=53 velocity=63 time=0
EXTRACT: note_off channel=0 note=72 velocity=63 time=0.14423075
EXTRACT: note_off channel=0 note=68 velocity=63 time=0
EXTRACT: note_off channel=0 note=65 velocity=63 time=0
EXTRACT: note_off channel=0 note=60 velocity=63 time=0
EXTRACT: note_off channel=0 note=53 velocity=63 time=0
EXTRACT: note_on channel=0 note=64 velocity=63 time=0
EXTRACT: note_on channel=0 note=59 velocity=63 time=0
EXTRACT: note_on channel=0 note=55 velocity=63 time=0
EXTRACT: note_on channel=0 note=50 velocity=63 time=0
EXTRACT: note_on channel=0 note=45 velocity=63 time=0
EXTRACT: note_off channel=2 note=72 velocity=79 time=0
EXTRACT: note_off channel=2 note=68 velocity=79 time=0
EXTRACT: note_off channel=2 note=65 velocity=79 time=0
EXTRACT: note_off channel=4 note=70 velocity=95 time=0
EXTRACT: note_off channel=4 note=67 velocity=95 time=0
EXTRACT: note_off channel=4 note=63 velocity=95 time=0
EXTRACT: note_off channel=0 note=64 velocity=63 time=0.031249995833333332
EXTRACT: note_off channel=0 note=59 velocity=63 time=0
EXTRACT: note_off channel=0 note=55 velocity=63 time=0
EXTRACT: note_off channel=0 note=50 velocity=63 time=0
EXTRACT: note_off channel=0 note=45 velocity=63 time=0
EXTRACT: note_on channel=0 note=64 velocity=63 time=0.11298075416666667
EXTRACT: note_on channel=0 note=59 velocity=63 time=0
EXTRACT: note_on channel=0 note=55 velocity=63 time=0
EXTRACT: note_on channel=0 note=50 velocity=63 time=0
EXTRACT: note_on channel=0 note=45 velocity=63 time=0
EXTRACT: note_off channel=0 note=64 velocity=63 time=0.031249995833333332
EXTRACT: note_off channel=0 note=59 velocity=63 time=0
EXTRACT: note_off channel=0 note=55 velocity=63 time=0
EXTRACT: note_off channel=0 note=50 velocity=63 time=0
EXTRACT: note_off channel=0 note=45 velocity=63 time=0
EXTRACT: note_on channel=0 note=72 velocity=63 time=0.11298075416666667
EXTRACT: note_on channel=0 note=68 velocity=63 time=0
EXTRACT: note_on channel=0 note=65 velocity=63 time=0
EXTRACT: note_on channel=0 note=60 velocity=63 time=0
EXTRACT: note_on channel=0 note=53 velocity=63 time=0
EXTRACT: note_on channel=2 note=64 velocity=79 time=0
EXTRACT: note_on channel=2 note=59 velocity=79 time=0
EXTRACT: note_on channel=2 note=55 velocity=79 time=0
EXTRACT: note_on channel=4 note=68 velocity=95 time=0
EXTRACT: note_on channel=4 note=65 velocity=95 time=0
EXTRACT: note_on channel=4 note=60 velocity=95 time=0
EXTRACT: note_off channel=2 note=64 velocity=79 time=0.031249995833333332
EXTRACT: note_off channel=2 note=59 velocity=79 time=0
EXTRACT: note_off channel=2 note=55 velocity=79 time=0
EXTRACT: note_off channel=0 note=72 velocity=63 time=0.11298075416666667
EXTRACT: note_off channel=0 note=68 velocity=63 time=0
EXTRACT: note_off channel=0 note=65 velocity=63 time=0
EXTRACT: note_off channel=0 note=60 velocity=63 time=0
EXTRACT: note_off channel=0 note=53 velocity=63 time=0
EXTRACT: note_on channel=0 note=72 velocity=63 time=0
EXTRACT: note_on channel=0 note=68 velocity=63 time=0
EXTRACT: note_on channel=0 note=65 velocity=63 time=0
EXTRACT: note_on channel=0 note=60 velocity=63 time=0
EXTRACT: note_on channel=0 note=53 velocity=63 time=0
EXTRACT: note_on channel=2 note=72 velocity=79 time=0
EXTRACT: note_on channel=2 note=68 velocity=79 time=0
EXTRACT: note_on channel=2 note=65 velocity=79 time=0
EXTRACT: note_off channel=0 note=72 velocity=63 time=0.14423075
EXTRACT: note_off channel=0 note=68 velocity=63 time=0
EXTRACT: note_off channel=0 note=65 velocity=63 time=0
EXTRACT: note_off channel=0 note=60 velocity=63 time=0
EXTRACT: note_off channel=0 note=53 velocity=63 time=0
EXTRACT: note_on channel=0 note=64 velocity=63 time=0
EXTRACT: note_on channel=0 note=59 velocity=63 time=0
EXTRACT: note_on channel=0 note=55 velocity=63 time=0
EXTRACT: note_on channel=0 note=50 velocity=63 time=0
EXTRACT: note_on channel=0 note=45 velocity=63 time=0
EXTRACT: note_off channel=2 note=72 velocity=79 time=0
EXTRACT: note_off channel=2 note=68 velocity=79 time=0
EXTRACT: note_off channel=2 note=65 velocity=79 time=0
EXTRACT: note_off channel=4 note=68 velocity=95 time=0
EXTRACT: note_off channel=4 note=65 velocity=95 time=0
EXTRACT: note_off channel=4 note=60 velocity=95 time=0
EXTRACT: note_off channel=0 note=64 velocity=63 time=0.031249995833333332
EXTRACT: note_off channel=0 note=59 velocity=63 time=0
EXTRACT: note_off channel=0 note=55 velocity=63 time=0
EXTRACT: note_off channel=0 note=50 velocity=63 time=0
EXTRACT: note_off channel=0 note=45 velocity=63 time=0
EXTRACT: note_on channel=0 note=64 velocity=63 time=0.11298075416666667
EXTRACT: note_on channel=0 note=59 velocity=63 time=0
EXTRACT: note_on channel=0 note=55 velocity=63 time=0
EXTRACT: note_on channel=0 note=50 velocity=63 time=0
EXTRACT: note_on channel=0 note=45 velocity=63 time=0
EXTRACT: note_off channel=0 note=64 velocity=63 time=0.031249995833333332
EXTRACT: note_off channel=0 note=59 velocity=63 time=0
EXTRACT: note_off channel=0 note=55 velocity=63 time=0
EXTRACT: note_off channel=0 note=50 velocity=63 time=0
EXTRACT: note_off channel=0 note=45 velocity=63 time=0
EXTRACT: note_on channel=0 note=72 velocity=63 time=0.11298075416666667
EXTRACT: note_on channel=0 note=68 velocity=63 time=0
EXTRACT: note_on channel=0 note=65 velocity=63 time=0
EXTRACT: note_on channel=0 note=60 velocity=63 time=0
EXTRACT: note_on channel=0 note=53 velocity=63 time=0
EXTRACT: note_on channel=4 note=67 velocity=95 time=0
EXTRACT: note_on channel=4 note=63 velocity=95 time=0
EXTRACT: note_on channel=4 note=58 velocity=95 time=0
EXTRACT: note_off channel=0 note=72 velocity=63 time=0.14423075
EXTRACT: note_off channel=0 note=68 velocity=63 time=0
EXTRACT: note_off channel=0 note=65 velocity=63 time=0
EXTRACT: note_off channel=0 note=60 velocity=63 time=0
EXTRACT: note_off channel=0 note=53 velocity=63 time=0
EXTRACT: note_on channel=0 note=72 velocity=63 time=0
EXTRACT: note_on channel=0 note=68 velocity=63 time=0
EXTRACT: note_on channel=0 note=65 velocity=63 time=0
EXTRACT: note_on channel=0 note=60 velocity=63 time=0
EXTRACT: note_on channel=0 note=53 velocity=63 time=0
EXTRACT: note_off channel=0 note=72 velocity=63 time=0.14423075
EXTRACT: note_off channel=0 note=68 velocity=63 time=0
EXTRACT: note_off channel=0 note=65 velocity=63 time=0
EXTRACT: note_off channel=0 note=60 velocity=63 time=0
EXTRACT: note_off channel=0 note=53 velocity=63 time=0
EXTRACT: note_on channel=0 note=64 velocity=63 time=0
EXTRACT: note_on channel=0 note=59 velocity=63 time=0
EXTRACT: note_on channel=0 note=55 velocity=63 time=0
EXTRACT: note_on channel=0 note=50 velocity=63 time=0
EXTRACT: note_on channel=0 note=45 velocity=63 time=0
EXTRACT: note_on channel=2 note=72 velocity=79 time=0
EXTRACT: note_on channel=2 note=68 velocity=79 time=0
EXTRACT: note_on channel=2 note=65 velocity=79 time=0
EXTRACT: note_off channel=4 note=67 velocity=95 time=0
EXTRACT: note_off channel=4 note=63 velocity=95 time=0
EXTRACT: note_off channel=4 note=58 velocity=95 time=0
EXTRACT: note_off channel=0 note=64 velocity=63 time=0.031249995833333332
EXTRACT: note_off channel=0 note=59 velocity=63 time=0
EXTRACT: note_off channel=0 note=55 velocity=63 time=0
EXTRACT: note_off channel=0 note=50 velocity=63 time=0
EXTRACT: note_off channel=0 note=45 velocity=63 time=0
EXTRACT: note_on channel=0 note=64 velocity=63 time=0.11298075416666667
EXTRACT: note_on channel=0 note=59 velocity=63 time=0
EXTRACT: note_on channel=0 note=55 velocity=63 time=0
EXTRACT: note_on channel=0 note=50 velocity=63 time=0
EXTRACT: note_on channel=0 note=45 velocity=63 time=0
EXTRACT: note_off channel=2 note=72 velocity=79 time=0
EXTRACT: note_off channel=2 note=68 velocity=79 time=0
EXTRACT: note_off channel=2 note=65 velocity=79 time=0
EXTRACT: note_off channel=0 note=64 velocity=63 time=0.031249995833333332
EXTRACT: note_off channel=0 note=59 velocity=63 time=0
EXTRACT: note_off channel=0 note=55 velocity=63 time=0
EXTRACT: note_off channel=0 note=50 velocity=63 time=0
EXTRACT: note_off channel=0 note=45 velocity=63 time=0
EXTRACT: note_on channel=0 note=72 velocity=63 time=0.11298075416666667
EXTRACT: note_on channel=0 note=68 velocity=63 time=0
EXTRACT: note_on channel=0 note=65 velocity=63 time=0
EXTRACT: note_on channel=0 note=60 velocity=63 time=0
EXTRACT: note_on channel=0 note=53 velocity=63 time=0
EXTRACT: note_on channel=4 note=67 velocity=95 time=0
EXTRACT: note_on channel=4 note=63 velocity=95 time=0
EXTRACT: note_on channel=4 note=58 velocity=95 time=0
EXTRACT: note_off channel=0 note=72 velocity=63 time=0.14423075
EXTRACT: note_off channel=0 note=68 velocity=63 time=0
EXTRACT: note_off channel=0 note=65 velocity=63 time=0
EXTRACT: note_off channel=0 note=60 velocity=63 time=0
EXTRACT: note_off channel=0 note=53 velocity=63 time=0
EXTRACT: note_on channel=0 note=72 velocity=63 time=0
EXTRACT: note_on channel=0 note=68 velocity=63 time=0
EXTRACT: note_on channel=0 note=65 velocity=63 time=0
EXTRACT: note_on channel=0 note=60 velocity=63 time=0
EXTRACT: note_on channel=0 note=53 velocity=63 time=0
EXTRACT: note_off channel=4 note=67 velocity=95 time=0
EXTRACT: note_off channel=4 note=63 velocity=95 time=0
EXTRACT: note_off channel=4 note=58 velocity=95 time=0
EXTRACT: note_on channel=4 note=68 velocity=95 time=0
EXTRACT: note_on channel=4 note=65 velocity=95 time=0
EXTRACT: note_on channel=4 note=60 velocity=95 time=0
EXTRACT: note_off channel=0 note=72 velocity=63 time=0.14423075
EXTRACT: note_off channel=0 note=68 velocity=63 time=0
EXTRACT: note_off channel=0 note=65 velocity=63 time=0
EXTRACT: note_off channel=0 note=60 velocity=63 time=0
EXTRACT: note_off channel=0 note=53 velocity=63 time=0
EXTRACT: note_on channel=0 note=64 velocity=63 time=0
EXTRACT: note_on channel=0 note=59 velocity=63 time=0
EXTRACT: note_on channel=0 note=55 velocity=63 time=0
EXTRACT: note_on channel=0 note=50 velocity=63 time=0
EXTRACT: note_on channel=0 note=45 velocity=63 time=0
EXTRACT: note_on channel=2 note=72 velocity=79 time=0
EXTRACT: note_on channel=2 note=68 velocity=79 time=0
EXTRACT: note_on channel=2 note=65 velocity=79 time=0
EXTRACT: note_off channel=4 note=68 velocity=95 time=0
EXTRACT: note_off channel=4 note=65 velocity=95 time=0
EXTRACT: note_off channel=4 note=60 velocity=95 time=0
EXTRACT: note_on channel=4 note=68 velocity=95 time=0
EXTRACT: note_on channel=4 note=65 velocity=95 time=0
EXTRACT: note_on channel=4 note=60 velocity=95 time=0
EXTRACT: note_off channel=0 note=64 velocity=63 time=0.031249995833333332
EXTRACT: note_off channel=0 note=59 velocity=63 time=0
EXTRACT: note_off channel=0 note=55 velocity=63 time=0
EXTRACT: note_off channel=0 note=50 velocity=63 time=0
EXTRACT: note_off channel=0 note=45 velocity=63 time=0
EXTRACT: note_on channel=0 note=64 velocity=63 time=0.11298075416666667
EXTRACT: note_on channel=0 note=59 velocity=63 time=0
EXTRACT: note_on channel=0 note=55 velocity=63 time=0
EXTRACT: note_on channel=0 note=50 velocity=63 time=0
EXTRACT: note_on channel=0 note=45 velocity=63 time=0
EXTRACT: note_off channel=2 note=72 velocity=79 time=0
EXTRACT: note_off channel=2 note=68 velocity=79 time=0
EXTRACT: note_off channel=2 note=65 velocity=79 time=0
EXTRACT: note_on channel=2 note=72 velocity=79 time=0
EXTRACT: note_on channel=2 note=68 velocity=79 time=0
EXTRACT: note_on channel=2 note=65 velocity=79 time=0
EXTRACT: note_off channel=4 note=68 velocity=95 time=0
EXTRACT: note_off channel=4 note=65 velocity=95 time=0
EXTRACT: note_off channel=4 note=60 velocity=95 time=0
EXTRACT: note_on channel=4 note=68 velocity=95 time=0
EXTRACT: note_on channel=4 note=65 velocity=95 time=0
EXTRACT: note_on channel=4 note=60 velocity=95 time=0
EXTRACT: note_off channel=0 note=64 velocity=63 time=0.031249995833333332
EXTRACT: note_off channel=0 note=59 velocity=63 time=0
EXTRACT: note_off channel=0 note=55 velocity=63 time=0
EXTRACT: note_off channel=0 note=50 velocity=63 time=0
EXTRACT: note_off channel=0 note=45 velocity=63 time=0
EXTRACT: note_on channel=0 note=72 velocity=63 time=0.11298075416666667
EXTRACT: note_on channel=0 note=68 velocity=63 time=0
EXTRACT: note_on channel=0 note=65 velocity=63 time=0
EXTRACT: note_on channel=0 note=60 velocity=63 time=0
EXTRACT: note_on channel=0 note=53 velocity=63 time=0
EXTRACT: note_off channel=2 note=72 velocity=79 time=0
EXTRACT: note_off channel=2 note=68 velocity=79 time=0
EXTRACT: note_off channel=2 note=65 velocity=79 time=0
EXTRACT: note_on channel=2 note=72 velocity=79 time=0
EXTRACT: note_on channel=2 note=68 velocity=79 time=0
EXTRACT: note_on channel=2 note=65 velocity=79 time=0
EXTRACT: note_off channel=4 note=68 velocity=95 time=0
EXTRACT: note_off channel=4 note=65 velocity=95 time=0
EXTRACT: note_off channel=4 note=60 velocity=95 time=0
EXTRACT: note_off channel=0 note=72 velocity=63 time=0.14423075
EXTRACT: note_off channel=0 note=68 velocity=63 time=0
EXTRACT: note_off channel=0 note=65 velocity=63 time=0
EXTRACT: note_off channel=0 note=60 velocity=63 time=0
EXTRACT: note_off channel=0 note=53 velocity=63 time=0
EXTRACT: note_on channel=0 note=72 velocity=63 time=0
EXTRACT: note_on channel=0 note=68 velocity=63 time=0
EXTRACT: note_on channel=0 note=65 velocity=63 time=0
EXTRACT: note_on channel=0 note=60 velocity=63 time=0
EXTRACT: note_on channel=0 note=53 velocity=63 time=0
EXTRACT: note_off channel=2 note=72 velocity=79 time=0
EXTRACT: note_off channel=2 note=68 velocity=79 time=0
EXTRACT: note_off channel=2 note=65 velocity=79 time=0
EXTRACT: note_on channel=2 note=72 velocity=79 time=0
EXTRACT: note_on channel=2 note=68 velocity=79 time=0
EXTRACT: note_on channel=2 note=65 velocity=79 time=0
EXTRACT: note_off channel=0 note=72 velocity=63 time=0.14423075
EXTRACT: note_off channel=0 note=68 velocity=63 time=0
EXTRACT: note_off channel=0 note=65 velocity=63 time=0
EXTRACT: note_off channel=0 note=60 velocity=63 time=0
EXTRACT: note_off channel=0 note=53 velocity=63 time=0
EXTRACT: note_on channel=0 note=64 velocity=63 time=0
EXTRACT: note_on channel=0 note=59 velocity=63 time=0
EXTRACT: note_on channel=0 note=55 velocity=63 time=0
EXTRACT: note_on channel=0 note=50 velocity=63 time=0
EXTRACT: note_on channel=0 note=45 velocity=63 time=0
EXTRACT: note_off channel=2 note=72 velocity=79 time=0
EXTRACT: note_off channel=2 note=68 velocity=79 time=0
EXTRACT: note_off channel=2 note=65 velocity=79 time=0
EXTRACT: note_off channel=0 note=64 velocity=63 time=0.031249995833333332
EXTRACT: note_off channel=0 note=59 velocity=63 time=0
EXTRACT: note_off channel=0 note=55 velocity=63 time=0
EXTRACT: note_off channel=0 note=50 velocity=63 time=0
EXTRACT: note_off channel=0 note=45 velocity=63 time=0
EXTRACT: note_on channel=0 note=64 velocity=63 time=0.11298075416666667
EXTRACT: note_on channel=0 note=59 velocity=63 time=0
EXTRACT: note_on channel=0 note=55 velocity=63 time=0
EXTRACT: note_on channel=0 note=50 velocity=63 time=0
EXTRACT: note_on channel=0 note=45 velocity=63 time=0
EXTRACT: note_off channel=0 note=64 velocity=63 time=0.031249995833333332
EXTRACT: note_off channel=0 note=59 velocity=63 time=0
EXTRACT: note_off channel=0 note=55 velocity=63 time=0
EXTRACT: note_off channel=0 note=50 velocity=63 time=0
EXTRACT: note_off channel=0 note=45 velocity=63 time=0
EXTRACT: note_on channel=0 note=72 velocity=63 time=0.11298075416666667
EXTRACT: note_on channel=0 note=68 velocity=63 time=0
EXTRACT: note_on channel=0 note=65 velocity=63 time=0
EXTRACT: note_on channel=0 note=60 velocity=63 time=0
EXTRACT: note_on channel=0 note=53 velocity=63 time=0
EXTRACT: note_on channel=4 note=67 velocity=95 time=0
EXTRACT: note_on channel=4 note=63 velocity=95 time=0
EXTRACT: note_on channel=4 note=58 velocity=95 time=0
EXTRACT: note_off channel=0 note=72 velocity=63 time=0.14423075
EXTRACT: note_off channel=0 note=68 velocity=63 time=0
EXTRACT: note_off channel=0 note=65 velocity=63 time=0
EXTRACT: note_off channel=0 note=60 velocity=63 time=0
EXTRACT: note_off channel=0 note=53 velocity=63 time=0
EXTRACT: note_on channel=0 note=72 velocity=63 time=0
EXTRACT: note_on channel=0 note=68 velocity=63 time=0
EXTRACT: note_on channel=0 note=65 velocity=63 time=0
EXTRACT: note_on channel=0 note=60 velocity=63 time=0
EXTRACT: note_on channel=0 note=53 velocity=63 time=0
EXTRACT: note_off channel=4 note=67 velocity=95 time=0
EXTRACT: note_off channel=4 note=63 velocity=95 time=0
EXTRACT: note_off channel=4 note=58 velocity=95 time=0
EXTRACT: note_on channel=4 note=68 velocity=95 time=0
EXTRACT: note_on channel=4 note=65 velocity=95 time=0
EXTRACT: note_on channel=4 note=60 velocity=95 time=0
EXTRACT: note_off channel=0 note=72 velocity=63 time=0.14423075
EXTRACT: note_off channel=0 note=68 velocity=63 time=0
EXTRACT: note_off channel=0 note=65 velocity=63 time=0
EXTRACT: note_off channel=0 note=60 velocity=63 time=0
EXTRACT: note_off channel=0 note=53 velocity=63 time=0
EXTRACT: note_on channel=0 note=64 velocity=63 time=0
EXTRACT: note_on channel=0 note=59 velocity=63 time=0
EXTRACT: note_on channel=0 note=55 velocity=63 time=0
EXTRACT: note_on channel=0 note=50 velocity=63 time=0
EXTRACT: note_on channel=0 note=45 velocity=63 time=0
EXTRACT: note_off channel=4 note=68 velocity=95 time=0
EXTRACT: note_off channel=4 note=65 velocity=95 time=0
EXTRACT: note_off channel=4 note=60 velocity=95 time=0
EXTRACT: note_on channel=4 note=68 velocity=95 time=0
EXTRACT: note_on channel=4 note=65 velocity=95 time=0
EXTRACT: note_on channel=4 note=60 velocity=95 time=0
EXTRACT: note_off channel=0 note=64 velocity=63 time=0.031249995833333332
EXTRACT: note_off channel=0 note=59 velocity=63 time=0
EXTRACT: note_off channel=0 note=55 velocity=63 time=0
EXTRACT: note_off channel=0 note=50 velocity=63 time=0
EXTRACT: note_off channel=0 note=45 velocity=63 time=0
EXTRACT: note_on channel=0 note=64 velocity=63 time=0.11298075416666667
EXTRACT: note_on channel=0 note=59 velocity=63 time=0
EXTRACT: note_on channel=0 note=55 velocity=63 time=0
EXTRACT: note_on channel=0 note=50 velocity=63 time=0
EXTRACT: note_on channel=0 note=45 velocity=63 time=0
EXTRACT: note_off channel=4 note=68 velocity=95 time=0
EXTRACT: note_off channel=4 note=65 velocity=95 time=0
EXTRACT: note_off channel=4 note=60 velocity=95 time=0
EXTRACT: note_on channel=4 note=68 velocity=95 time=0
EXTRACT: note_on channel=4 note=65 velocity=95 time=0
EXTRACT: note_on channel=4 note=60 velocity=95 time=0
EXTRACT: note_off channel=0 note=64 velocity=63 time=0.031249995833333332
EXTRACT: note_off channel=0 note=59 velocity=63 time=0
EXTRACT: note_off channel=0 note=55 velocity=63 time=0
EXTRACT: note_off channel=0 note=50 velocity=63 time=0
EXTRACT: note_off channel=0 note=45 velocity=63 time=0
EXTRACT: note_on channel=0 note=72 velocity=63 time=0.11298075416666667
EXTRACT: note_on channel=0 note=68 velocity=63 time=0
EXTRACT: note_on channel=0 note=65 velocity=63 time=0
EXTRACT: note_on channel=0 note=60 velocity=63 time=0
EXTRACT: note_on channel=0 note=53 velocity=63 time=0
EXTRACT: note_off channel=4 note=68 velocity=95 time=0
EXTRACT: note_off channel=4 note=65 velocity=95 time=0
EXTRACT: note_off channel=4 note=60 velocity=95 time=0
EXTRACT: note_off channel=0 note=72 velocity=63 time=0.14423075
EXTRACT: note_off channel=0 note=68 velocity=63 time=0
EXTRACT: note_off channel=0 note=65 velocity=63 time=0
EXTRACT: note_off channel=0 note=60 velocity=63 time=0
EXTRACT: note_off channel=0 note=53 velocity=63 time=0
EXTRACT: note_on channel=0 note=72 velocity=63 time=0
EXTRACT: note_on channel=0 note=68 velocity=63 time=0
EXTRACT: note_on channel=0 note=65 velocity=63 time=0
EXTRACT: note_on channel=0 note=60 velocity=63 time=0
EXTRACT: note_on channel=0 note=53 velocity=63 time=0
EXTRACT: note_off channel=0 note=72 velocity=63 time=0.14423075
EXTRACT: note_off channel=0 note=68 velocity=63 time=0
EXTRACT: note_off channel=0 note=65 velocity=63 time=0
EXTRACT: note_off channel=0 note=60 velocity=63 time=0
EXTRACT: note_off channel=0 note=53 velocity=63 time=0
EXTRACT: note_on channel=0 note=64 velocity=63 time=0
EXTRACT: note_on channel=0 note=59 velocity=63 time=0
EXTRACT: note_on channel=0 note=55 velocity=63 time=0
EXTRACT: note_on channel=0 note=50 velocity=63 time=0
EXTRACT: note_on channel=0 note=45 velocity=63 time=0
EXTRACT: note_on channel=2 note=72 velocity=79 time=0
EXTRACT: note_on channel=2 note=68 velocity=79 time=0
EXTRACT: note_on channel=2 note=65 velocity=79 time=0
EXTRACT: note_off channel=0 note=64 velocity=63 time=0.031249995833333332
EXTRACT: note_off channel=0 note=59 velocity=63 time=0
EXTRACT: note_off channel=0 note=55 velocity=63 time=0
EXTRACT: note_off channel=0 note=50 velocity=63 time=0
EXTRACT: note_off channel=0 note=45 velocity=63 time=0
EXTRACT: note_on channel=0 note=64 velocity=63 time=0.11298075416666667
EXTRACT: note_on channel=0 note=59 velocity=63 time=0
EXTRACT: note_on channel=0 note=55 velocity=63 time=0
EXTRACT: note_on channel=0 note=50 velocity=63 time=0
EXTRACT: note_on channel=0 note=45 velocity=63 time=0
EXTRACT: note_off channel=0 note=64 velocity=63 time=0.031249995833333332
EXTRACT: note_off channel=0 note=59 velocity=63 time=0
EXTRACT: note_off channel=0 note=55 velocity=63 time=0
EXTRACT: note_off channel=0 note=50 velocity=63 time=0
EXTRACT: note_off channel=0 note=45 velocity=63 time=0
EXTRACT: note_on channel=0 note=72 velocity=63 time=0.11298075416666667
EXTRACT: note_on channel=0 note=68 velocity=63 time=0
EXTRACT: note_on channel=0 note=65 velocity=63 time=0
EXTRACT: note_on channel=0 note=60 velocity=63 time=0
EXTRACT: note_on channel=0 note=53 velocity=63 time=0
EXTRACT: note_on channel=4 note=72 velocity=95 time=0
EXTRACT: note_on channel=4 note=68 velocity=95 time=0
EXTRACT: note_on channel=4 note=65 velocity=95 time=0
EXTRACT: note_off channel=0 note=72 velocity=63 time=0.14423075
EXTRACT: note_off channel=0 note=68 velocity=63 time=0
EXTRACT: note_off channel=0 note=65 velocity=63 time=0
EXTRACT: note_off channel=0 note=60 velocity=63 time=0
EXTRACT: note_off channel=0 note=53 velocity=63 time=0
EXTRACT: note_on channel=0 note=72 velocity=63 time=0
EXTRACT: note_on channel=0 note=68 velocity=63 time=0
EXTRACT: note_on channel=0 note=65 velocity=63 time=0
EXTRACT: note_on channel=0 note=60 velocity=63 time=0
EXTRACT: note_on channel=0 note=53 velocity=63 time=0
EXTRACT: note_off channel=0 note=72 velocity=63 time=0.14423075
EXTRACT: note_off channel=0 note=68 velocity=63 time=0
EXTRACT: note_off channel=0 note=65 velocity=63 time=0
EXTRACT: note_off channel=0 note=60 velocity=63 time=0
EXTRACT: note_off channel=0 note=53 velocity=63 time=0
EXTRACT: note_on channel=0 note=64 velocity=63 time=0
EXTRACT: note_on channel=0 note=59 velocity=63 time=0
EXTRACT: note_on channel=0 note=55 velocity=63 time=0
EXTRACT: note_on channel=0 note=50 velocity=63 time=0
EXTRACT: note_on channel=0 note=45 velocity=63 time=0
EXTRACT: note_off channel=2 note=72 velocity=79 time=0
EXTRACT: note_off channel=2 note=68 velocity=79 time=0
EXTRACT: note_off channel=2 note=65 velocity=79 time=0
EXTRACT: note_off channel=4 note=72 velocity=95 time=0
EXTRACT: note_off channel=4 note=68 velocity=95 time=0
EXTRACT: note_off channel=4 note=65 velocity=95 time=0
EXTRACT: note_off channel=0 note=64 velocity=63 time=0.031249995833333332
EXTRACT: note_off channel=0 note=59 velocity=63 time=0
EXTRACT: note_off channel=0 note=55 velocity=63 time=0
EXTRACT: note_off channel=0 note=50 velocity=63 time=0
EXTRACT: note_off channel=0 note=45 velocity=63 time=0
EXTRACT: note_on channel=0 note=64 velocity=63 time=0.11298075416666667
EXTRACT: note_on channel=0 note=59 velocity=63 time=0
EXTRACT: note_on channel=0 note=55 velocity=63 time=0
EXTRACT: note_on channel=0 note=50 velocity=63 time=0
EXTRACT: note_on channel=0 note=45 velocity=63 time=0
EXTRACT: note_off channel=0 note=64 velocity=63 time=0.031249995833333332
EXTRACT: note_off channel=0 note=59 velocity=63 time=0
EXTRACT: note_off channel=0 note=55 velocity=63 time=0
EXTRACT: note_off channel=0 note=50 velocity=63 time=0
EXTRACT: note_off channel=0 note=45 velocity=63 time=0
EXTRACT: note_on channel=0 note=72 velocity=63 time=0.11298075416666667
EXTRACT: note_on channel=0 note=68 velocity=63 time=0
EXTRACT: note_on channel=0 note=65 velocity=63 time=0
EXTRACT: note_on channel=0 note=60 velocity=63 time=0
EXTRACT: note_on channel=0 note=53 velocity=63 time=0
EXTRACT: note_on channel=4 note=70 velocity=95 time=0
EXTRACT: note_on channel=4 note=67 velocity=95 time=0
EXTRACT: note_on channel=4 note=63 velocity=95 time=0
EXTRACT: note_off channel=0 note=72 velocity=63 time=0.14423075
EXTRACT: note_off channel=0 note=68 velocity=63 time=0
EXTRACT: note_off channel=0 note=65 velocity=63 time=0
EXTRACT: note_off channel=0 note=60 velocity=63 time=0
EXTRACT: note_off channel=0 note=53 velocity=63 time=0
EXTRACT: note_on channel=0 note=72 velocity=63 time=0
EXTRACT: note_on channel=0 note=68 velocity=63 time=0
EXTRACT: note_on channel=0 note=65 velocity=63 time=0
EXTRACT: note_on channel=0 note=60 velocity=63 time=0
EXTRACT: note_on channel=0 note=53 velocity=63 time=0
EXTRACT: note_off channel=0 note=72 velocity=63 time=0.14423075
EXTRACT: note_off channel=0 note=68 velocity=63 time=0
EXTRACT: note_off channel=0 note=65 velocity=63 time=0
EXTRACT: note_off channel=0 note=60 velocity=63 time=0
EXTRACT: note_off channel=0 note=53 velocity=63 time=0
EXTRACT: note_on channel=0 note=64 velocity=63 time=0
EXTRACT: note_on channel=0 note=59 velocity=63 time=0
EXTRACT: note_on channel=0 note=55 velocity=63 time=0
EXTRACT: note_on channel=0 note=50 velocity=63 time=0
EXTRACT: note_on channel=0 note=45 velocity=63 time=0
EXTRACT: note_off channel=4 note=70 velocity=95 time=0
EXTRACT: note_off channel=4 note=67 velocity=95 time=0
EXTRACT: note_off channel=4 note=63 velocity=95 time=0
EXTRACT: note_off channel=0 note=64 velocity=63 time=0.031249995833333332
EXTRACT: note_off channel=0 note=59 velocity=63 time=0
EXTRACT: note_off channel=0 note=55 velocity=63 time=0
EXTRACT: note_off channel=0 note=50 velocity=63 time=0
EXTRACT: note_off channel=0 note=45 velocity=63 time=0
EXTRACT: note_on channel=0 note=64 velocity=63 time=0.11298075416666667
EXTRACT: note_on channel=0 note=59 velocity=63 time=0
EXTRACT: note_on channel=0 note=55 velocity=63 time=0
EXTRACT: note_on channel=0 note=50 velocity=63 time=0
EXTRACT: note_on channel=0 note=45 velocity=63 time=0
EXTRACT: note_off channel=0 note=64 velocity=63 time=0.031249995833333332
EXTRACT: note_off channel=0 note=59 velocity=63 time=0
EXTRACT: note_off channel=0 note=55 velocity=63 time=0
EXTRACT: note_off channel=0 note=50 velocity=63 time=0
EXTRACT: note_off channel=0 note=45 velocity=63 time=0
EXTRACT: note_on channel=0 note=72 velocity=63 time=0.11298075416666667
EXTRACT: note_on channel=0 note=68 velocity=63 time=0
EXTRACT: note_on channel=0 note=65 velocity=63 time=0
EXTRACT: note_on channel=0 note=60 velocity=63 time=0
EXTRACT: note_on channel=0 note=53 velocity=63 time=0
EXTRACT: note_on channel=4 note=68 velocity=95 time=0
EXTRACT: note_on channel=4 note=65 velocity=95 time=0
EXTRACT: note_on channel=4 note=60 velocity=95 time=0
EXTRACT: note_off channel=0 note=72 velocity=63 time=0.14423075
EXTRACT: note_off channel=0 note=68 velocity=63 time=0
EXTRACT: note_off channel=0 note=65 velocity=63 time=0
EXTRACT: note_off channel=0 note=60 velocity=63 time=0
EXTRACT: note_off channel=0 note=53 velocity=63 time=0
EXTRACT: note_on channel=0 note=72 velocity=63 time=0
EXTRACT: note_on channel=0 note=68 velocity=63 time=0
EXTRACT: note_on channel=0 note=65 velocity=63 time=0
EXTRACT: note_on channel=0 note=60 velocity=63 time=0
EXTRACT: note_on channel=0 note=53 velocity=63 time=0
EXTRACT: note_off channel=0 note=72 velocity=63 time=0.14423075
EXTRACT: note_off channel=0 note=68 velocity=63 time=0
EXTRACT: note_off channel=0 note=65 velocity=63 time=0
EXTRACT: note_off channel=0 note=60 velocity=63 time=0
EXTRACT: note_off channel=0 note=53 velocity=63 time=0
EXTRACT: note_on channel=0 note=64 velocity=63 time=0
EXTRACT: note_on channel=0 note=59 velocity=63 time=0
EXTRACT: note_on channel=0 note=55 velocity=63 time=0
EXTRACT: note_on channel=0 note=50 velocity=63 time=0
EXTRACT: note_on channel=0 note=45 velocity=63 time=0
EXTRACT: note_on channel=2 note=64 velocity=79 time=0
EXTRACT: note_on channel=2 note=59 velocity=79 time=0
EXTRACT: note_on channel=2 note=55 velocity=79 time=0
EXTRACT: note_off channel=4 note=68 velocity=95 time=0
EXTRACT: note_off channel=4 note=65 velocity=95 time=0
EXTRACT: note_off channel=4 note=60 velocity=95 time=0
EXTRACT: note_off channel=0 note=64 velocity=63 time=0.031249995833333332
EXTRACT: note_off channel=0 note=59 velocity=63 time=0
EXTRACT: note_off channel=0 note=55 velocity=63 time=0
EXTRACT: note_off channel=0 note=50 velocity=63 time=0
EXTRACT: note_off channel=0 note=45 velocity=63 time=0
EXTRACT: note_off channel=2 note=64 velocity=79 time=0
EXTRACT: note_off channel=2 note=59 velocity=79 time=0
EXTRACT: note_off channel=2 note=55 velocity=79 time=0
EXTRACT: note_on channel=0 note=64 velocity=63 time=0.11298075416666667
EXTRACT: note_on channel=0 note=59 velocity=63 time=0
EXTRACT: note_on channel=0 note=55 velocity=63 time=0
EXTRACT: note_on channel=0 note=50 velocity=63 time=0
EXTRACT: note_on channel=0 note=45 velocity=63 time=0
EXTRACT: note_on channel=2 note=72 velocity=79 time=0
EXTRACT: note_on channel=2 note=68 velocity=79 time=0
EXTRACT: note_on channel=2 note=65 velocity=79 time=0
EXTRACT: note_off channel=0 note=64 velocity=63 time=0.031249995833333332
EXTRACT: note_off channel=0 note=59 velocity=63 time=0
EXTRACT: note_off channel=0 note=55 velocity=63 time=0
EXTRACT: note_off channel=0 note=50 velocity=63 time=0
EXTRACT: note_off channel=0 note=45 velocity=63 time=0
EXTRACT: note_on channel=0 note=72 velocity=63 time=0.11298075416666667
EXTRACT: note_on channel=0 note=68 velocity=63 time=0
EXTRACT: note_on channel=0 note=65 velocity=63 time=0
EXTRACT: note_on channel=0 note=60 velocity=63 time=0
EXTRACT: note_on channel=0 note=53 velocity=63 time=0
EXTRACT: note_off channel=2 note=72 velocity=79 time=0
EXTRACT: note_off channel=2 note=68 velocity=79 time=0
EXTRACT: note_off channel=2 note=65 velocity=79 time=0
EXTRACT: note_on channel=4 note=67 velocity=95 time=0
EXTRACT: note_on channel=4 note=63 velocity=95 time=0
EXTRACT: note_on channel=4 note=58 velocity=95 time=0
EXTRACT: note_off channel=0 note=72 velocity=63 time=0.14423075
EXTRACT: note_off channel=0 note=68 velocity=63 time=0
EXTRACT: note_off channel=0 note=65 velocity=63 time=0
EXTRACT: note_off channel=0 note=60 velocity=63 time=0
EXTRACT: note_off channel=0 note=53 velocity=63 time=0
EXTRACT: note_on channel=0 note=72 velocity=63 time=0
EXTRACT: note_on channel=0 note=68 velocity=63 time=0
EXTRACT: note_on channel=0 note=65 velocity=63 time=0
EXTRACT: note_on channel=0 note=60 velocity=63 time=0
EXTRACT: note_on channel=0 note=53 velocity=63 time=0
EXTRACT: note_off channel=0 note=72 velocity=63 time=0.14423075
EXTRACT: note_off channel=0 note=68 velocity=63 time=0
EXTRACT: note_off channel=0 note=65 velocity=63 time=0
EXTRACT: note_off channel=0 note=60 velocity=63 time=0
EXTRACT: note_off channel=0 note=53 velocity=63 time=0
EXTRACT: note_on channel=0 note=64 velocity=63 time=0
EXTRACT: note_on channel=0 note=59 velocity=63 time=0
EXTRACT: note_on channel=0 note=55 velocity=63 time=0
EXTRACT: note_on channel=0 note=50 velocity=63 time=0
EXTRACT: note_on channel=0 note=45 velocity=63 time=0
EXTRACT: note_off channel=4 note=67 velocity=95 time=0
EXTRACT: note_off channel=4 note=63 velocity=95 time=0
EXTRACT: note_off channel=4 note=58 velocity=95 time=0
EXTRACT: note_off channel=0 note=64 velocity=63 time=0.031249995833333332
EXTRACT: note_off channel=0 note=59 velocity=63 time=0
EXTRACT: note_off channel=0 note=55 velocity=63 time=0
EXTRACT: note_off channel=0 note=50 velocity=63 time=0
EXTRACT: note_off channel=0 note=45 velocity=63 time=0
EXTRACT: note_on channel=0 note=64 velocity=63 time=0.11298075416666667
EXTRACT: note_on channel=0 note=59 velocity=63 time=0
EXTRACT: note_on channel=0 note=55 velocity=63 time=0
EXTRACT: note_on channel=0 note=50 velocity=63 time=0
EXTRACT: note_on channel=0 note=45 velocity=63 time=0
EXTRACT: note_off channel=0 note=64 velocity=63 time=0.031249995833333332
EXTRACT: note_off channel=0 note=59 velocity=63 time=0
EXTRACT: note_off channel=0 note=55 velocity=63 time=0
EXTRACT: note_off channel=0 note=50 velocity=63 time=0
EXTRACT: note_off channel=0 note=45 velocity=63 time=0
EXTRACT: note_on channel=0 note=72 velocity=63 time=0.11298075416666667
EXTRACT: note_on channel=0 note=68 velocity=63 time=0
EXTRACT: note_on channel=0 note=65 velocity=63 time=0
EXTRACT: note_on channel=0 note=60 velocity=63 time=0
EXTRACT: note_on channel=0 note=53 velocity=63 time=0
EXTRACT: note_on channel=2 note=65 velocity=79 time=0
EXTRACT: note_on channel=2 note=60 velocity=79 time=0
EXTRACT: note_on channel=2 note=56 velocity=79 time=0
EXTRACT: note_on channel=2 note=53 velocity=79 time=0
EXTRACT: note_on channel=4 note=67 velocity=95 time=0
EXTRACT: note_on channel=4 note=63 velocity=95 time=0
EXTRACT: note_on channel=4 note=56 velocity=95 time=0
EXTRACT: note_off channel=0 note=72 velocity=63 time=0.14423075
EXTRACT: note_off channel=0 note=68 velocity=63 time=0
EXTRACT: note_off channel=0 note=65 velocity=63 time=0
EXTRACT: note_off channel=0 note=60 velocity=63 time=0
EXTRACT: note_off channel=0 note=53 velocity=63 time=0
EXTRACT: note_on channel=0 note=72 velocity=63 time=0
EXTRACT: note_on channel=0 note=68 velocity=63 time=0
EXTRACT: note_on channel=0 note=65 velocity=63 time=0
EXTRACT: note_on channel=0 note=60 velocity=63 time=0
EXTRACT: note_on channel=0 note=53 velocity=63 time=0
EXTRACT: note_off channel=4 note=67 velocity=95 time=0
EXTRACT: note_off channel=4 note=63 velocity=95 time=0
EXTRACT: note_off channel=4 note=56 velocity=95 time=0
EXTRACT: note_on channel=4 note=65 velocity=95 time=0
EXTRACT: note_on channel=4 note=68 velocity=95 time=0
EXTRACT: note_on channel=4 note=56 velocity=95 time=0
EXTRACT: note_off channel=0 note=72 velocity=63 time=0.14423075
EXTRACT: note_off channel=0 note=68 velocity=63 time=0
EXTRACT: note_off channel=0 note=65 velocity=63 time=0
EXTRACT: note_off channel=0 note=60 velocity=63 time=0
EXTRACT: note_off channel=0 note=53 velocity=63 time=0
EXTRACT: note_on channel=0 note=64 velocity=63 time=0
EXTRACT: note_on channel=0 note=59 velocity=63 time=0
EXTRACT: note_on channel=0 note=55 velocity=63 time=0
EXTRACT: note_on channel=0 note=50 velocity=63 time=0
EXTRACT: note_on channel=0 note=45 velocity=63 time=0
EXTRACT: note_off channel=4 note=65 velocity=95 time=0
EXTRACT: note_off channel=4 note=68 velocity=95 time=0
EXTRACT: note_off channel=4 note=56 velocity=95 time=0
EXTRACT: note_on channel=4 note=65 velocity=95 time=0
EXTRACT: note_on channel=4 note=68 velocity=95 time=0
EXTRACT: note_on channel=4 note=56 velocity=95 time=0
EXTRACT: note_off channel=0 note=64 velocity=63 time=0.031249995833333332
EXTRACT: note_off channel=0 note=59 velocity=63 time=0
EXTRACT: note_off channel=0 note=55 velocity=63 time=0
EXTRACT: note_off channel=0 note=50 velocity=63 time=0
EXTRACT: note_off channel=0 note=45 velocity=63 time=0
EXTRACT: note_on channel=0 note=64 velocity=63 time=0.11298075416666667
EXTRACT: note_on channel=0 note=59 velocity=63 time=0
EXTRACT: note_on channel=0 note=55 velocity=63 time=0
EXTRACT: note_on channel=0 note=50 velocity=63 time=0
EXTRACT: note_on channel=0 note=45 velocity=63 time=0
EXTRACT: note_off channel=4 note=65 velocity=95 time=0
EXTRACT: note_off channel=4 note=68 velocity=95 time=0
EXTRACT: note_off channel=4 note=56 velocity=95 time=0
EXTRACT: note_on channel=4 note=65 velocity=95 time=0
EXTRACT: note_on channel=4 note=68 velocity=95 time=0
EXTRACT: note_on channel=4 note=72 velocity=95 time=0
EXTRACT: note_off channel=0 note=64 velocity=63 time=0.031249995833333332
EXTRACT: note_off channel=0 note=59 velocity=63 time=0
EXTRACT: note_off channel=0 note=55 velocity=63 time=0
EXTRACT: note_off channel=0 note=50 velocity=63 time=0
EXTRACT: note_off channel=0 note=45 velocity=63 time=0
EXTRACT: note_on channel=0 note=72 velocity=63 time=0.11298075416666667
EXTRACT: note_on channel=0 note=68 velocity=63 time=0
EXTRACT: note_on channel=0 note=65 velocity=63 time=0
EXTRACT: note_on channel=0 note=60 velocity=63 time=0
EXTRACT: note_on channel=0 note=53 velocity=63 time=0
EXTRACT: note_off channel=0 note=72 velocity=63 time=0.14423075
EXTRACT: note_off channel=0 note=68 velocity=63 time=0
EXTRACT: note_off channel=0 note=65 velocity=63 time=0
EXTRACT: note_off channel=0 note=60 velocity=63 time=0
EXTRACT: note_off channel=0 note=53 velocity=63 time=0
EXTRACT: note_on channel=0 note=72 velocity=63 time=0
EXTRACT: note_on channel=0 note=68 velocity=63 time=0
EXTRACT: note_on channel=0 note=65 velocity=63 time=0
EXTRACT: note_on channel=0 note=60 velocity=63 time=0
EXTRACT: note_on channel=0 note=53 velocity=63 time=0
EXTRACT: note_off channel=0 note=72 velocity=63 time=0.14423075
EXTRACT: note_off channel=0 note=68 velocity=63 time=0
EXTRACT: note_off channel=0 note=65 velocity=63 time=0
EXTRACT: note_off channel=0 note=60 velocity=63 time=0
EXTRACT: note_off channel=0 note=53 velocity=63 time=0
EXTRACT: note_on channel=0 note=64 velocity=63 time=0
EXTRACT: note_on channel=0 note=59 velocity=63 time=0
EXTRACT: note_on channel=0 note=55 velocity=63 time=0
EXTRACT: note_on channel=0 note=50 velocity=63 time=0
EXTRACT: note_on channel=0 note=45 velocity=63 time=0
EXTRACT: note_off channel=0 note=64 velocity=63 time=0.031249995833333332
EXTRACT: note_off channel=0 note=59 velocity=63 time=0
EXTRACT: note_off channel=0 note=55 velocity=63 time=0
EXTRACT: note_off channel=0 note=50 velocity=63 time=0
EXTRACT: note_off channel=0 note=45 velocity=63 time=0
EXTRACT: note_on channel=0 note=64 velocity=63 time=0.11298075416666667
EXTRACT: note_on channel=0 note=59 velocity=63 time=0
EXTRACT: note_on channel=0 note=55 velocity=63 time=0
EXTRACT: note_on channel=0 note=50 velocity=63 time=0
EXTRACT: note_on channel=0 note=45 velocity=63 time=0
EXTRACT: note_off channel=0 note=64 velocity=63 time=0.031249995833333332
EXTRACT: note_off channel=0 note=59 velocity=63 time=0
EXTRACT: note_off channel=0 note=55 velocity=63 time=0
EXTRACT: note_off channel=0 note=50 velocity=63 time=0
EXTRACT: note_off channel=0 note=45 velocity=63 time=0
EXTRACT: note_on channel=0 note=72 velocity=63 time=0.11298075416666667
EXTRACT: note_on channel=0 note=68 velocity=63 time=0
EXTRACT: note_on channel=0 note=65 velocity=63 time=0
EXTRACT: note_on channel=0 note=60 velocity=63 time=0
EXTRACT: note_on channel=0 note=53 velocity=63 time=0
EXTRACT: note_off channel=0 note=72 velocity=63 time=0.14423075
EXTRACT: note_off channel=0 note=68 velocity=63 time=0
EXTRACT: note_off channel=0 note=65 velocity=63 time=0
EXTRACT: note_off channel=0 note=60 velocity=63 time=0
EXTRACT: note_off channel=0 note=53 velocity=63 time=0
EXTRACT: note_on channel=0 note=72 velocity=63 time=0
EXTRACT: note_on channel=0 note=68 velocity=63 time=0
EXTRACT: note_on channel=0 note=65 velocity=63 time=0
EXTRACT: note_on channel=0 note=60 velocity=63 time=0
EXTRACT: note_on channel=0 note=53 velocity=63 time=0
EXTRACT: note_off channel=0 note=72 velocity=63 time=0.14423075
EXTRACT: note_off channel=0 note=68 velocity=63 time=0
EXTRACT: note_off channel=0 note=65 velocity=63 time=0
EXTRACT: note_off channel=0 note=60 velocity=63 time=0
EXTRACT: note_off channel=0 note=53 velocity=63 time=0
EXTRACT: note_on channel=0 note=64 velocity=63 time=0
EXTRACT: note_on channel=0 note=59 velocity=63 time=0
EXTRACT: note_on channel=0 note=55 velocity=63 time=0
EXTRACT: note_on channel=0 note=50 velocity=63 time=0
EXTRACT: note_on channel=0 note=45 velocity=63 time=0
EXTRACT: note_off channel=0 note=64 velocity=63 time=0.031249995833333332
EXTRACT: note_off channel=0 note=59 velocity=63 time=0
EXTRACT: note_off channel=0 note=55 velocity=63 time=0
EXTRACT: note_off channel=0 note=50 velocity=63 time=0
EXTRACT: note_off channel=0 note=45 velocity=63 time=0
EXTRACT: note_on channel=0 note=64 velocity=63 time=0.11298075416666667
EXTRACT: note_on channel=0 note=59 velocity=63 time=0
EXTRACT: note_on channel=0 note=55 velocity=63 time=0
EXTRACT: note_on channel=0 note=50 velocity=63 time=0
EXTRACT: note_on channel=0 note=45 velocity=63 time=0
EXTRACT: note_off channel=0 note=64 velocity=63 time=0.031249995833333332
EXTRACT: note_off channel=0 note=59 velocity=63 time=0
EXTRACT: note_off channel=0 note=55 velocity=63 time=0
EXTRACT: note_off channel=0 note=50 velocity=63 time=0
EXTRACT: note_off channel=0 note=45 velocity=63 time=0
EXTRACT: note_on channel=0 note=72 velocity=63 time=0.11298075416666667
EXTRACT: note_on channel=0 note=68 velocity=63 time=0
EXTRACT: note_on channel=0 note=65 velocity=63 time=0
EXTRACT: note_on channel=0 note=60 velocity=63 time=0
EXTRACT: note_on channel=0 note=53 velocity=63 time=0
EXTRACT: note_off channel=0 note=72 velocity=63 time=0.14423075
EXTRACT: note_off channel=0 note=68 velocity=63 time=0
EXTRACT: note_off channel=0 note=65 velocity=63 time=0
EXTRACT: note_off channel=0 note=60 velocity=63 time=0
EXTRACT: note_off channel=0 note=53 velocity=63 time=0
EXTRACT: note_on channel=0 note=72 velocity=63 time=0
EXTRACT: note_on channel=0 note=68 velocity=63 time=0
EXTRACT: note_on channel=0 note=65 velocity=63 time=0
EXTRACT: note_on channel=0 note=60 velocity=63 time=0
EXTRACT: note_on channel=0 note=53 velocity=63 time=0
EXTRACT: note_off channel=0 note=72 velocity=63 time=0.14423075
EXTRACT: note_off channel=0 note=68 velocity=63 time=0
EXTRACT: note_off channel=0 note=65 velocity=63 time=0
EXTRACT: note_off channel=0 note=60 velocity=63 time=0
EXTRACT: note_off channel=0 note=53 velocity=63 time=0
EXTRACT: note_on channel=0 note=64 velocity=63 time=0
EXTRACT: note_on channel=0 note=59 velocity=63 time=0
EXTRACT: note_on channel=0 note=55 velocity=63 time=0
EXTRACT: note_on channel=0 note=50 velocity=63 time=0
EXTRACT: note_on channel=0 note=45 velocity=63 time=0
EXTRACT: note_off channel=0 note=64 velocity=63 time=0.031249995833333332
EXTRACT: note_off channel=0 note=59 velocity=63 time=0
EXTRACT: note_off channel=0 note=55 velocity=63 time=0
EXTRACT: note_off channel=0 note=50 velocity=63 time=0
EXTRACT: note_off channel=0 note=45 velocity=63 time=0
EXTRACT: note_on channel=0 note=64 velocity=63 time=0.11298075416666667
EXTRACT: note_on channel=0 note=59 velocity=63 time=0
EXTRACT: note_on channel=0 note=55 velocity=63 time=0
EXTRACT: note_on channel=0 note=50 velocity=63 time=0
EXTRACT: note_on channel=0 note=45 velocity=63 time=0
EXTRACT: note_off channel=0 note=64 velocity=63 time=0.031249995833333332
EXTRACT: note_off channel=0 note=59 velocity=63 time=0
EXTRACT: note_off channel=0 note=55 velocity=63 time=0
EXTRACT: note_off channel=0 note=50 velocity=63 time=0
EXTRACT: note_off channel=0 note=45 velocity=63 time=0
EXTRACT: note_on channel=0 note=72 velocity=63 time=0.11298075416666667
EXTRACT: note_on channel=0 note=68 velocity=63 time=0
EXTRACT: note_on channel=0 note=65 velocity=63 time=0
EXTRACT: note_on channel=0 note=60 velocity=63 time=0
EXTRACT: note_on channel=0 note=53 velocity=63 time=0
EXTRACT: note_off channel=4 note=65 velocity=95 time=0
EXTRACT: note_off channel=4 note=68 velocity=95 time=0
EXTRACT: note_off channel=4 note=72 velocity=95 time=0
EXTRACT: note_on channel=4 note=70 velocity=95 time=0
EXTRACT: note_on channel=4 note=67 velocity=95 time=0
EXTRACT: note_on channel=4 note=63 velocity=95 time=0
EXTRACT: note_off channel=0 note=72 velocity=63 time=0.14423075
EXTRACT: note_off channel=0 note=68 velocity=63 time=0
EXTRACT: note_off channel=0 note=65 velocity=63 time=0
EXTRACT: note_off channel=0 note=60 velocity=63 time=0
EXTRACT: note_off channel=0 note=53 velocity=63 time=0
EXTRACT: note_on channel=0 note=72 velocity=63 time=0
EXTRACT: note_on channel=0 note=68 velocity=63 time=0
EXTRACT: note_on channel=0 note=65 velocity=63 time=0
EXTRACT: note_on channel=0 note=60 velocity=63 time=0
EXTRACT: note_on channel=0 note=53 velocity=63 time=0
EXTRACT: note_off channel=0 note=72 velocity=63 time=0.14423075
EXTRACT: note_off channel=0 note=68 velocity=63 time=0
EXTRACT: note_off channel=0 note=65 velocity=63 time=0
EXTRACT: note_off channel=0 note=60 velocity=63 time=0
EXTRACT: note_off channel=0 note=53 velocity=63 time=0
EXTRACT: note_on channel=0 note=64 velocity=63 time=0
EXTRACT: note_on channel=0 note=59 velocity=63 time=0
EXTRACT: note_on channel=0 note=55 velocity=63 time=0
EXTRACT: note_on channel=0 note=50 velocity=63 time=0
EXTRACT: note_on channel=0 note=45 velocity=63 time=0
EXTRACT: note_off channel=0 note=64 velocity=63 time=0.031249995833333332
EXTRACT: note_off channel=0 note=59 velocity=63 time=0
EXTRACT: note_off channel=0 note=55 velocity=63 time=0
EXTRACT: note_off channel=0 note=50 velocity=63 time=0
EXTRACT: note_off channel=0 note=45 velocity=63 time=0
EXTRACT: note_on channel=0 note=64 velocity=63 time=0.11298075416666667
EXTRACT: note_on channel=0 note=59 velocity=63 time=0
EXTRACT: note_on channel=0 note=55 velocity=63 time=0
EXTRACT: note_on channel=0 note=50 velocity=63 time=0
EXTRACT: note_on channel=0 note=45 velocity=63 time=0
EXTRACT: note_off channel=0 note=64 velocity=63 time=0.031249995833333332
EXTRACT: note_off channel=0 note=59 velocity=63 time=0
EXTRACT: note_off channel=0 note=55 velocity=63 time=0
EXTRACT: note_off channel=0 note=50 velocity=63 time=0
EXTRACT: note_off channel=0 note=45 velocity=63 time=0
EXTRACT: note_on channel=0 note=72 velocity=63 time=0.11298075416666667
EXTRACT: note_on channel=0 note=68 velocity=63 time=0
EXTRACT: note_on channel=0 note=65 velocity=63 time=0
EXTRACT: note_on channel=0 note=60 velocity=63 time=0
EXTRACT: note_on channel=0 note=53 velocity=63 time=0
EXTRACT: note_off channel=0 note=72 velocity=63 time=0.14423075
EXTRACT: note_off channel=0 note=68 velocity=63 time=0
EXTRACT: note_off channel=0 note=65 velocity=63 time=0
EXTRACT: note_off channel=0 note=60 velocity=63 time=0
EXTRACT: note_off channel=0 note=53 velocity=63 time=0
EXTRACT: note_on channel=0 note=72 velocity=63 time=0
EXTRACT: note_on channel=0 note=68 velocity=63 time=0
EXTRACT: note_on channel=0 note=65 velocity=63 time=0
EXTRACT: note_on channel=0 note=60 velocity=63 time=0
EXTRACT: note_on channel=0 note=53 velocity=63 time=0
EXTRACT: note_off channel=0 note=72 velocity=63 time=0.14423075
EXTRACT: note_off channel=0 note=68 velocity=63 time=0
EXTRACT: note_off channel=0 note=65 velocity=63 time=0
EXTRACT: note_off channel=0 note=60 velocity=63 time=0
EXTRACT: note_off channel=0 note=53 velocity=63 time=0
EXTRACT: note_on channel=0 note=64 velocity=63 time=0
EXTRACT: note_on channel=0 note=59 velocity=63 time=0
EXTRACT: note_on channel=0 note=55 velocity=63 time=0
EXTRACT: note_on channel=0 note=50 velocity=63 time=0
EXTRACT: note_on channel=0 note=45 velocity=63 time=0
EXTRACT: note_off channel=0 note=64 velocity=63 time=0.031249995833333332
EXTRACT: note_off channel=0 note=59 velocity=63 time=0
EXTRACT: note_off channel=0 note=55 velocity=63 time=0
EXTRACT: note_off channel=0 note=50 velocity=63 time=0
EXTRACT: note_off channel=0 note=45 velocity=63 time=0
EXTRACT: note_on channel=0 note=64 velocity=63 time=0.11298075416666667
EXTRACT: note_on channel=0 note=59 velocity=63 time=0
EXTRACT: note_on channel=0 note=55 velocity=63 time=0
EXTRACT: note_on channel=0 note=50 velocity=63 time=0
EXTRACT: note_on channel=0 note=45 velocity=63 time=0
EXTRACT: note_off channel=0 note=64 velocity=63 time=0.031249995833333332
EXTRACT: note_off channel=0 note=59 velocity=63 time=0
EXTRACT: note_off channel=0 note=55 velocity=63 time=0
EXTRACT: note_off channel=0 note=50 velocity=63 time=0
EXTRACT: note_off channel=0 note=45 velocity=63 time=0
EXTRACT: note_on channel=0 note=72 velocity=63 time=0.11298075416666667
EXTRACT: note_on channel=0 note=68 velocity=63 time=0
EXTRACT: note_on channel=0 note=65 velocity=63 time=0
EXTRACT: note_on channel=0 note=60 velocity=63 time=0
EXTRACT: note_on channel=0 note=53 velocity=63 time=0
EXTRACT: note_off channel=0 note=72 velocity=63 time=0.14423075
EXTRACT: note_off channel=0 note=68 velocity=63 time=0
EXTRACT: note_off channel=0 note=65 velocity=63 time=0
EXTRACT: note_off channel=0 note=60 velocity=63 time=0
EXTRACT: note_off channel=0 note=53 velocity=63 time=0
EXTRACT: note_on channel=0 note=72 velocity=63 time=0
EXTRACT: note_on channel=0 note=68 velocity=63 time=0
EXTRACT: note_on channel=0 note=65 velocity=63 time=0
EXTRACT: note_on channel=0 note=60 velocity=63 time=0
EXTRACT: note_on channel=0 note=53 velocity=63 time=0
EXTRACT: note_off channel=0 note=72 velocity=63 time=0.14423075
EXTRACT: note_off channel=0 note=68 velocity=63 time=0
EXTRACT: note_off channel=0 note=65 velocity=63 time=0
EXTRACT: note_off channel=0 note=60 velocity=63 time=0
EXTRACT: note_off channel=0 note=53 velocity=63 time=0
EXTRACT: note_on channel=0 note=64 velocity=63 time=0
EXTRACT: note_on channel=0 note=59 velocity=63 time=0
EXTRACT: note_on channel=0 note=55 velocity=63 time=0
EXTRACT: note_on channel=0 note=50 velocity=63 time=0
EXTRACT: note_on channel=0 note=45 velocity=63 time=0
EXTRACT: note_off channel=0 note=64 velocity=63 time=0.031249995833333332
EXTRACT: note_off channel=0 note=59 velocity=63 time=0
EXTRACT: note_off channel=0 note=55 velocity=63 time=0
EXTRACT: note_off channel=0 note=50 velocity=63 time=0
EXTRACT: note_off channel=0 note=45 velocity=63 time=0
EXTRACT: note_on channel=0 note=64 velocity=63 time=0.11298075416666667
EXTRACT: note_on channel=0 note=59 velocity=63 time=0
EXTRACT: note_on channel=0 note=55 velocity=63 time=0
EXTRACT: note_on channel=0 note=50 velocity=63 time=0
EXTRACT: note_on channel=0 note=45 velocity=63 time=0
EXTRACT: note_off channel=0 note=64 velocity=63 time=0.031249995833333332
EXTRACT: note_off channel=0 note=59 velocity=63 time=0
EXTRACT: note_off channel=0 note=55 velocity=63 time=0
EXTRACT: note_off channel=0 note=50 velocity=63 time=0
EXTRACT: note_off channel=0 note=45 velocity=63 time=0
EXTRACT: note_on channel=0 note=72 velocity=63 time=0.11298075416666667
EXTRACT: note_on channel=0 note=68 velocity=63 time=0
EXTRACT: note_on channel=0 note=65 velocity=63 time=0
EXTRACT: note_on channel=0 note=60 velocity=63 time=0
EXTRACT: note_on channel=0 note=53 velocity=63 time=0
EXTRACT: note_off channel=0 note=72 velocity=63 time=0.14423075
EXTRACT: note_off channel=0 note=68 velocity=63 time=0
EXTRACT: note_off channel=0 note=65 velocity=63 time=0
EXTRACT: note_off channel=0 note=60 velocity=63 time=0
EXTRACT: note_off channel=0 note=53 velocity=63 time=0
EXTRACT: note_on channel=0 note=72 velocity=63 time=0
EXTRACT: note_on channel=0 note=68 velocity=63 time=0
EXTRACT: note_on channel=0 note=65 velocity=63 time=0
EXTRACT: note_on channel=0 note=60 velocity=63 time=0
EXTRACT: note_on channel=0 note=53 velocity=63 time=0
EXTRACT: note_off channel=4 note=70 velocity=95 time=0
EXTRACT: note_off channel=4 note=67 velocity=95 time=0
EXTRACT: note_on channel=4 note=72 velocity=95 time=0
EXTRACT: note_on channel=4 note=68 velocity=95 time=0
EXTRACT: note_off channel=0 note=72 velocity=63 time=0.14423075
EXTRACT: note_off channel=0 note=68 velocity=63 time=0
EXTRACT: note_off channel=0 note=65 velocity=63 time=0
EXTRACT: note_off channel=0 note=60 velocity=63 time=0
EXTRACT: note_off channel=0 note=53 velocity=63 time=0
EXTRACT: note_on channel=0 note=64 velocity=63 time=0
EXTRACT: note_on channel=0 note=59 velocity=63 time=0
EXTRACT: note_on channel=0 note=55 velocity=63 time=0
EXTRACT: note_on channel=0 note=50 velocity=63 time=0
EXTRACT: note_on channel=0 note=45 velocity=63 time=0
EXTRACT: note_off channel=4 note=72 velocity=95 time=0
EXTRACT: note_off channel=4 note=68 velocity=95 time=0
EXTRACT: note_on channel=4 note=67 velocity=95 time=0
EXTRACT: note_on channel=4 note=63 velocity=95 time=0
EXTRACT: note_off channel=0 note=64 velocity=63 time=0.031249995833333332
EXTRACT: note_off channel=0 note=59 velocity=63 time=0
EXTRACT: note_off channel=0 note=55 velocity=63 time=0
EXTRACT: note_off channel=0 note=50 velocity=63 time=0
EXTRACT: note_off channel=0 note=45 velocity=63 time=0
EXTRACT: note_on channel=0 note=64 velocity=63 time=0.11298075416666667
EXTRACT: note_on channel=0 note=59 velocity=63 time=0
EXTRACT: note_on channel=0 note=55 velocity=63 time=0
EXTRACT: note_on channel=0 note=50 velocity=63 time=0
EXTRACT: note_on channel=0 note=45 velocity=63 time=0
EXTRACT: note_off channel=4 note=63 velocity=95 time=0
EXTRACT: note_off channel=4 note=67 velocity=95 time=0
EXTRACT: note_off channel=4 note=63 velocity=95 time=0
EXTRACT: note_on channel=4 note=68 velocity=95 time=0
EXTRACT: note_on channel=4 note=65 velocity=95 time=0
EXTRACT: note_on channel=4 note=60 velocity=95 time=0
EXTRACT: note_off channel=0 note=64 velocity=63 time=0.031249995833333332
EXTRACT: note_off channel=0 note=59 velocity=63 time=0
EXTRACT: note_off channel=0 note=55 velocity=63 time=0
EXTRACT: note_off channel=0 note=50 velocity=63 time=0
EXTRACT: note_off channel=0 note=45 velocity=63 time=0
EXTRACT: note_on channel=0 note=72 velocity=63 time=0.11298075416666667
EXTRACT: note_on channel=0 note=68 velocity=63 time=0
EXTRACT: note_on channel=0 note=65 velocity=63 time=0
EXTRACT: note_on channel=0 note=60 velocity=63 time=0
EXTRACT: note_on channel=0 note=53 velocity=63 time=0
EXTRACT: note_off channel=4 note=68 velocity=95 time=0
EXTRACT: note_off channel=4 note=65 velocity=95 time=0
EXTRACT: note_on channel=4 note=67 velocity=95 time=0
EXTRACT: note_on channel=4 note=63 velocity=95 time=0
EXTRACT: note_off channel=0 note=72 velocity=63 time=0.14423075
EXTRACT: note_off channel=0 note=68 velocity=63 time=0
EXTRACT: note_off channel=0 note=65 velocity=63 time=0
EXTRACT: note_off channel=0 note=60 velocity=63 time=0
EXTRACT: note_off channel=0 note=53 velocity=63 time=0
EXTRACT: note_on channel=0 note=72 velocity=63 time=0
EXTRACT: note_on channel=0 note=68 velocity=63 time=0
EXTRACT: note_on channel=0 note=65 velocity=63 time=0
EXTRACT: note_on channel=0 note=60 velocity=63 time=0
EXTRACT: note_on channel=0 note=53 velocity=63 time=0
EXTRACT: note_off channel=4 note=67 velocity=95 time=0
EXTRACT: note_off channel=4 note=63 velocity=95 time=0
EXTRACT: note_on channel=4 note=68 velocity=95 time=0
EXTRACT: note_on channel=4 note=65 velocity=95 time=0
EXTRACT: note_off channel=0 note=72 velocity=63 time=0.14423075
EXTRACT: note_off channel=0 note=68 velocity=63 time=0
EXTRACT: note_off channel=0 note=65 velocity=63 time=0
EXTRACT: note_off channel=0 note=60 velocity=63 time=0
EXTRACT: note_off channel=0 note=53 velocity=63 time=0
EXTRACT: note_on channel=0 note=64 velocity=63 time=0
EXTRACT: note_on channel=0 note=59 velocity=63 time=0
EXTRACT: note_on channel=0 note=55 velocity=63 time=0
EXTRACT: note_on channel=0 note=50 velocity=63 time=0
EXTRACT: note_on channel=0 note=45 velocity=63 time=0
EXTRACT: note_off channel=0 note=64 velocity=63 time=0.031249995833333332
EXTRACT: note_off channel=0 note=59 velocity=63 time=0
EXTRACT: note_off channel=0 note=55 velocity=63 time=0
EXTRACT: note_off channel=0 note=50 velocity=63 time=0
EXTRACT: note_off channel=0 note=45 velocity=63 time=0
EXTRACT: note_on channel=0 note=64 velocity=63 time=0.11298075416666667
EXTRACT: note_on channel=0 note=59 velocity=63 time=0
EXTRACT: note_on channel=0 note=55 velocity=63 time=0
EXTRACT: note_on channel=0 note=50 velocity=63 time=0
EXTRACT: note_on channel=0 note=45 velocity=63 time=0
EXTRACT: note_off channel=0 note=64 velocity=63 time=0.031249995833333332
EXTRACT: note_off channel=0 note=59 velocity=63 time=0
EXTRACT: note_off channel=0 note=55 velocity=63 time=0
EXTRACT: note_off channel=0 note=50 velocity=63 time=0
EXTRACT: note_off channel=0 note=45 velocity=63 time=0
EXTRACT: note_on channel=0 note=72 velocity=63 time=0.11298075416666667
EXTRACT: note_on channel=0 note=68 velocity=63 time=0
EXTRACT: note_on channel=0 note=65 velocity=63 time=0
EXTRACT: note_on channel=0 note=60 velocity=63 time=0
EXTRACT: note_on channel=0 note=53 velocity=63 time=0
EXTRACT: note_off channel=0 note=72 velocity=63 time=0.14423075
EXTRACT: note_off channel=0 note=68 velocity=63 time=0
EXTRACT: note_off channel=0 note=65 velocity=63 time=0
EXTRACT: note_off channel=0 note=60 velocity=63 time=0
EXTRACT: note_off channel=0 note=53 velocity=63 time=0
EXTRACT: note_on channel=0 note=72 velocity=63 time=0
EXTRACT: note_on channel=0 note=68 velocity=63 time=0
EXTRACT: note_on channel=0 note=65 velocity=63 time=0
EXTRACT: note_on channel=0 note=60 velocity=63 time=0
EXTRACT: note_on channel=0 note=53 velocity=63 time=0
EXTRACT: note_off channel=0 note=72 velocity=63 time=0.14423075
EXTRACT: note_off channel=0 note=68 velocity=63 time=0
EXTRACT: note_off channel=0 note=65 velocity=63 time=0
EXTRACT: note_off channel=0 note=60 velocity=63 time=0
EXTRACT: note_off channel=0 note=53 velocity=63 time=0
EXTRACT: note_on channel=0 note=64 velocity=63 time=0
EXTRACT: note_on channel=0 note=59 velocity=63 time=0
EXTRACT: note_on channel=0 note=55 velocity=63 time=0
EXTRACT: note_on channel=0 note=50 velocity=63 time=0
EXTRACT: note_on channel=0 note=45 velocity=63 time=0
EXTRACT: note_off channel=0 note=64 velocity=63 time=0.031249995833333332
EXTRACT: note_off channel=0 note=59 velocity=63 time=0
EXTRACT: note_off channel=0 note=55 velocity=63 time=0
EXTRACT: note_off channel=0 note=50 velocity=63 time=0
EXTRACT: note_off channel=0 note=45 velocity=63 time=0
EXTRACT: note_on channel=0 note=64 velocity=63 time=0.11298075416666667
EXTRACT: note_on channel=0 note=59 velocity=63 time=0
EXTRACT: note_on channel=0 note=55 velocity=63 time=0
EXTRACT: note_on channel=0 note=50 velocity=63 time=0
EXTRACT: note_on channel=0 note=45 velocity=63 time=0
EXTRACT: note_off channel=0 note=64 velocity=63 time=0.031249995833333332
EXTRACT: note_off channel=0 note=59 velocity=63 time=0
EXTRACT: note_off channel=0 note=55 velocity=63 time=0
EXTRACT: note_off channel=0 note=50 velocity=63 time=0
EXTRACT: note_off channel=0 note=45 velocity=63 time=0
EXTRACT: note_on channel=0 note=72 velocity=63 time=0.11298075416666667
EXTRACT: note_on channel=0 note=68 velocity=63 time=0
EXTRACT: note_on channel=0 note=65 velocity=63 time=0
EXTRACT: note_on channel=0 note=60 velocity=63 time=0
EXTRACT: note_on channel=0 note=53 velocity=63 time=0
EXTRACT: note_off channel=0 note=72 velocity=63 time=0.14423075
EXTRACT: note_off channel=0 note=68 velocity=63 time=0
EXTRACT: note_off channel=0 note=65 velocity=63 time=0
EXTRACT: note_off channel=0 note=60 velocity=63 time=0
EXTRACT: note_off channel=0 note=53 velocity=63 time=0
EXTRACT: note_on channel=0 note=72 velocity=63 time=0
EXTRACT: note_on channel=0 note=68 velocity=63 time=0
EXTRACT: note_on channel=0 note=65 velocity=63 time=0
EXTRACT: note_on channel=0 note=60 velocity=63 time=0
EXTRACT: note_on channel=0 note=53 velocity=63 time=0
EXTRACT: note_off channel=0 note=72 velocity=63 time=0.14423075
EXTRACT: note_off channel=0 note=68 velocity=63 time=0
EXTRACT: note_off channel=0 note=65 velocity=63 time=0
EXTRACT: note_off channel=0 note=60 velocity=63 time=0
EXTRACT: note_off channel=0 note=53 velocity=63 time=0
EXTRACT: note_on channel=0 note=64 velocity=63 time=0
EXTRACT: note_on channel=0 note=59 velocity=63 time=0
EXTRACT: note_on channel=0 note=55 velocity=63 time=0
EXTRACT: note_on channel=0 note=50 velocity=63 time=0
EXTRACT: note_on channel=0 note=45 velocity=63 time=0
EXTRACT: note_off channel=0 note=64 velocity=63 time=0.031249995833333332
EXTRACT: note_off channel=0 note=59 velocity=63 time=0
EXTRACT: note_off channel=0 note=55 velocity=63 time=0
EXTRACT: note_off channel=0 note=50 velocity=63 time=0
EXTRACT: note_off channel=0 note=45 velocity=63 time=0
EXTRACT: note_on channel=0 note=64 velocity=63 time=0.11298075416666667
EXTRACT: note_on channel=0 note=59 velocity=63 time=0
EXTRACT: note_on channel=0 note=55 velocity=63 time=0
EXTRACT: note_on channel=0 note=50 velocity=63 time=0
EXTRACT: note_on channel=0 note=45 velocity=63 time=0
EXTRACT: note_off channel=0 note=64 velocity=63 time=0.031249995833333332
EXTRACT: note_off channel=0 note=59 velocity=63 time=0
EXTRACT: note_off channel=0 note=55 velocity=63 time=0
EXTRACT: note_off channel=0 note=50 velocity=63 time=0
EXTRACT: note_off channel=0 note=45 velocity=63 time=0
EXTRACT: note_on channel=0 note=72 velocity=63 time=0.11298075416666667
EXTRACT: note_on channel=0 note=68 velocity=63 time=0
EXTRACT: note_on channel=0 note=65 velocity=63 time=0
EXTRACT: note_on channel=0 note=60 velocity=63 time=0
EXTRACT: note_on channel=0 note=53 velocity=63 time=0
EXTRACT: note_off channel=0 note=72 velocity=63 time=0.14423075
EXTRACT: note_off channel=0 note=68 velocity=63 time=0
EXTRACT: note_off channel=0 note=65 velocity=63 time=0
EXTRACT: note_off channel=0 note=60 velocity=63 time=0
EXTRACT: note_off channel=0 note=53 velocity=63 time=0
EXTRACT: note_on channel=0 note=72 velocity=63 time=0
EXTRACT: note_on channel=0 note=68 velocity=63 time=0
EXTRACT: note_on channel=0 note=65 velocity=63 time=0
EXTRACT: note_on channel=0 note=60 velocity=63 time=0
EXTRACT: note_on channel=0 note=53 velocity=63 time=0
EXTRACT: note_off channel=0 note=72 velocity=63 time=0.14423075
EXTRACT: note_off channel=0 note=68 velocity=63 time=0
EXTRACT: note_off channel=0 note=65 velocity=63 time=0
EXTRACT: note_off channel=0 note=60 velocity=63 time=0
EXTRACT: note_off channel=0 note=53 velocity=63 time=0
EXTRACT: note_on channel=0 note=64 velocity=63 time=0
EXTRACT: note_on channel=0 note=59 velocity=63 time=0
EXTRACT: note_on channel=0 note=55 velocity=63 time=0
EXTRACT: note_on channel=0 note=50 velocity=63 time=0
EXTRACT: note_on channel=0 note=45 velocity=63 time=0
EXTRACT: note_off channel=0 note=64 velocity=63 time=0.031249995833333332
EXTRACT: note_off channel=0 note=59 velocity=63 time=0
EXTRACT: note_off channel=0 note=55 velocity=63 time=0
EXTRACT: note_off channel=0 note=50 velocity=63 time=0
EXTRACT: note_off channel=0 note=45 velocity=63 time=0
EXTRACT: note_on channel=0 note=64 velocity=63 time=0.11298075416666667
EXTRACT: note_on channel=0 note=59 velocity=63 time=0
EXTRACT: note_on channel=0 note=55 velocity=63 time=0
EXTRACT: note_on channel=0 note=50 velocity=63 time=0
EXTRACT: note_on channel=0 note=45 velocity=63 time=0
EXTRACT: note_off channel=0 note=64 velocity=63 time=0.031249995833333332
EXTRACT: note_off channel=0 note=59 velocity=63 time=0
EXTRACT: note_off channel=0 note=55 velocity=63 time=0
EXTRACT: note_off channel=0 note=50 velocity=63 time=0
EXTRACT: note_off channel=0 note=45 velocity=63 time=0
EXTRACT: note_off channel=2 note=65 velocity=79 time=0.11298075416666667
EXTRACT: note_off channel=2 note=60 velocity=79 time=0
EXTRACT: note_off channel=2 note=56 velocity=79 time=0
EXTRACT: note_off channel=2 note=53 velocity=79 time=0
EXTRACT: note_off channel=4 note=60 velocity=95 time=0
EXTRACT: note_off channel=4 note=68 velocity=95 time=0
EXTRACT: note_off channel=4 note=65 velocity=95 time=0
EXTRACT: note_on channel=4 note=67 velocity=95 time=0
EXTRACT: note_on channel=4 note=63 velocity=95 time=0
EXTRACT: note_on channel=4 note=58 velocity=95 time=0
EXTRACT: note_on channel=0 note=67 velocity=95 time=0.2884615
EXTRACT: note_on channel=0 note=63 velocity=95 time=0
EXTRACT: note_on channel=0 note=58 velocity=95 time=0
EXTRACT: note_on channel=0 note=53 velocity=95 time=0
EXTRACT: note_on channel=0 note=48 velocity=95 time=0
EXTRACT: note_off channel=0 note=53 velocity=95 time=0.031249995833333332
EXTRACT: note_off channel=0 note=67 velocity=95 time=0.25721150416666666
EXTRACT: note_off channel=0 note=63 velocity=95 time=0
EXTRACT: note_off channel=0 note=58 velocity=95 time=0
EXTRACT: note_off channel=0 note=48 velocity=95 time=0
EXTRACT: note_on channel=0 note=67 velocity=95 time=0.576923
EXTRACT: note_on channel=0 note=63 velocity=95 time=0
EXTRACT: note_on channel=0 note=58 velocity=95 time=0
EXTRACT: note_on channel=0 note=53 velocity=95 time=0
EXTRACT: note_on channel=0 note=48 velocity=95 time=0
EXTRACT: note_off channel=4 note=67 velocity=95 time=0
EXTRACT: note_off channel=4 note=63 velocity=95 time=0
EXTRACT: note_off channel=4 note=58 velocity=95 time=0
EXTRACT: note_off channel=0 note=53 velocity=95 time=0.031249995833333332
EXTRACT: note_off channel=0 note=67 velocity=95 time=0.04086537916666667
EXTRACT: note_on channel=0 note=67 velocity=95 time=0
EXTRACT: note_off channel=0 note=63 velocity=95 time=0
EXTRACT: note_on channel=0 note=63 velocity=95 time=0
EXTRACT: note_off channel=0 note=58 velocity=95 time=0
EXTRACT: note_on channel=0 note=58 velocity=95 time=0
EXTRACT: note_off channel=0 note=48 velocity=95 time=0
EXTRACT: note_on channel=0 note=48 velocity=95 time=0
EXTRACT: note_off channel=0 note=67 velocity=95 time=0.072115375
EXTRACT: note_on channel=0 note=67 velocity=95 time=0
EXTRACT: note_off channel=0 note=63 velocity=95 time=0
EXTRACT: note_on channel=0 note=63 velocity=95 time=0
EXTRACT: note_off channel=0 note=58 velocity=95 time=0
EXTRACT: note_on channel=0 note=58 velocity=95 time=0
EXTRACT: note_off channel=0 note=48 velocity=95 time=0
EXTRACT: note_on channel=0 note=48 velocity=95 time=0
EXTRACT: note_off channel=0 note=67 velocity=95 time=0.072115375
EXTRACT: note_on channel=0 note=67 velocity=95 time=0
EXTRACT: note_off channel=0 note=63 velocity=95 time=0
EXTRACT: note_on channel=0 note=63 velocity=95 time=0
EXTRACT: note_off channel=0 note=58 velocity=95 time=0
EXTRACT: note_on channel=0 note=58 velocity=95 time=0
EXTRACT: note_off channel=0 note=48 velocity=95 time=0
EXTRACT: note_on channel=0 note=48 velocity=95 time=0
EXTRACT: note_off channel=0 note=67 velocity=95 time=0.072115375
EXTRACT: note_on channel=0 note=67 velocity=95 time=0
EXTRACT: note_off channel=0 note=63 velocity=95 time=0
EXTRACT: note_on channel=0 note=63 velocity=95 time=0
EXTRACT: note_off channel=0 note=58 velocity=95 time=0
EXTRACT: note_on channel=0 note=58 velocity=95 time=0
EXTRACT: note_off channel=0 note=48 velocity=95 time=0
EXTRACT: note_on channel=0 note=48 velocity=95 time=0
EXTRACT: note_on channel=4 note=72 velocity=95 time=0
EXTRACT: note_off channel=0 note=67 velocity=95 time=0.072115375
EXTRACT: note_on channel=0 note=67 velocity=95 time=0
EXTRACT: note_off channel=0 note=63 velocity=95 time=0
EXTRACT: note_on channel=0 note=63 velocity=95 time=0
EXTRACT: note_off channel=0 note=58 velocity=95 time=0
EXTRACT: note_on channel=0 note=58 velocity=95 time=0
EXTRACT: note_off channel=0 note=48 velocity=95 time=0
EXTRACT: note_on channel=0 note=48 velocity=95 time=0
EXTRACT: note_off channel=0 note=67 velocity=95 time=0.072115375
EXTRACT: note_on channel=0 note=67 velocity=95 time=0
EXTRACT: note_off channel=0 note=63 velocity=95 time=0
EXTRACT: note_on channel=0 note=63 velocity=95 time=0
EXTRACT: note_off channel=0 note=58 velocity=95 time=0
EXTRACT: note_on channel=0 note=58 velocity=95 time=0
EXTRACT: note_off channel=0 note=48 velocity=95 time=0
EXTRACT: note_on channel=0 note=48 velocity=95 time=0
EXTRACT: note_off channel=0 note=67 velocity=95 time=0.072115375
EXTRACT: note_on channel=0 note=67 velocity=95 time=0
EXTRACT: note_off channel=0 note=63 velocity=95 time=0
EXTRACT: note_on channel=0 note=63 velocity=95 time=0
EXTRACT: note_off channel=0 note=58 velocity=95 time=0
EXTRACT: note_on channel=0 note=58 velocity=95 time=0
EXTRACT: note_off channel=0 note=48 velocity=95 time=0
EXTRACT: note_on channel=0 note=48 velocity=95 time=0
EXTRACT: note_off channel=0 note=67 velocity=95 time=0.072115375
EXTRACT: note_on channel=0 note=67 velocity=95 time=0
EXTRACT: note_off channel=0 note=63 velocity=95 time=0
EXTRACT: note_on channel=0 note=63 velocity=95 time=0
EXTRACT: note_off channel=0 note=58 velocity=95 time=0
EXTRACT: note_on channel=0 note=58 velocity=95 time=0
EXTRACT: note_off channel=0 note=48 velocity=95 time=0
EXTRACT: note_on channel=0 note=48 velocity=95 time=0
EXTRACT: note_off channel=0 note=67 velocity=95 time=0.072115375
EXTRACT: note_on channel=0 note=67 velocity=95 time=0
EXTRACT: note_off channel=0 note=63 velocity=95 time=0
EXTRACT: note_on channel=0 note=63 velocity=95 time=0
EXTRACT: note_off channel=0 note=58 velocity=95 time=0
EXTRACT: note_on channel=0 note=58 velocity=95 time=0
EXTRACT: note_off channel=0 note=48 velocity=95 time=0
EXTRACT: note_on channel=0 note=48 velocity=95 time=0
EXTRACT: note_off channel=0 note=67 velocity=95 time=0.072115375
EXTRACT: note_on channel=0 note=67 velocity=95 time=0
EXTRACT: note_off channel=0 note=63 velocity=95 time=0
EXTRACT: note_on channel=0 note=63 velocity=95 time=0
EXTRACT: note_off channel=0 note=58 velocity=95 time=0
EXTRACT: note_on channel=0 note=58 velocity=95 time=0
EXTRACT: note_off channel=0 note=48 velocity=95 time=0
EXTRACT: note_on channel=0 note=48 velocity=95 time=0
EXTRACT: note_off channel=0 note=67 velocity=95 time=0.072115375
EXTRACT: note_on channel=0 note=67 velocity=95 time=0
EXTRACT: note_off channel=0 note=63 velocity=95 time=0
EXTRACT: note_on channel=0 note=63 velocity=95 time=0
EXTRACT: note_off channel=0 note=58 velocity=95 time=0
EXTRACT: note_on channel=0 note=58 velocity=95 time=0
EXTRACT: note_off channel=0 note=48 velocity=95 time=0
EXTRACT: note_on channel=0 note=48 velocity=95 time=0
EXTRACT: note_off channel=0 note=67 velocity=95 time=0.072115375
EXTRACT: note_on channel=0 note=67 velocity=95 time=0
EXTRACT: note_off channel=0 note=63 velocity=95 time=0
EXTRACT: note_on channel=0 note=63 velocity=95 time=0
EXTRACT: note_off channel=0 note=58 velocity=95 time=0
EXTRACT: note_on channel=0 note=58 velocity=95 time=0
EXTRACT: note_off channel=0 note=48 velocity=95 time=0
EXTRACT: note_on channel=0 note=48 velocity=95 time=0
EXTRACT: note_off channel=0 note=67 velocity=95 time=0.072115375
EXTRACT: note_on channel=0 note=67 velocity=95 time=0
EXTRACT: note_off channel=0 note=63 velocity=95 time=0
EXTRACT: note_on channel=0 note=63 velocity=95 time=0
EXTRACT: note_off channel=0 note=58 velocity=95 time=0
EXTRACT: note_on channel=0 note=58 velocity=95 time=0
EXTRACT: note_off channel=0 note=48 velocity=95 time=0
EXTRACT: note_on channel=0 note=48 velocity=95 time=0
EXTRACT: note_off channel=0 note=67 velocity=95 time=0.072115375
EXTRACT: note_on channel=0 note=67 velocity=95 time=0
EXTRACT: note_off channel=0 note=63 velocity=95 time=0
EXTRACT: note_on channel=0 note=63 velocity=95 time=0
EXTRACT: note_off channel=0 note=58 velocity=95 time=0
EXTRACT: note_on channel=0 note=58 velocity=95 time=0
EXTRACT: note_off channel=0 note=48 velocity=95 time=0
EXTRACT: note_on channel=0 note=48 velocity=95 time=0
EXTRACT: note_off channel=0 note=67 velocity=95 time=0.072115375
EXTRACT: note_on channel=0 note=67 velocity=95 time=0
EXTRACT: note_off channel=0 note=63 velocity=95 time=0
EXTRACT: note_on channel=0 note=63 velocity=95 time=0
EXTRACT: note_off channel=0 note=58 velocity=95 time=0
EXTRACT: note_on channel=0 note=58 velocity=95 time=0
EXTRACT: note_off channel=0 note=48 velocity=95 time=0
EXTRACT: note_on channel=0 note=48 velocity=95 time=0
EXTRACT: note_off channel=0 note=67 velocity=95 time=0.07151441354166667
EXTRACT: note_off channel=0 note=63 velocity=95 time=0
EXTRACT: note_off channel=0 note=58 velocity=95 time=0
EXTRACT: note_off channel=0 note=48 velocity=95 time=0
EXTRACT: note_on channel=0 note=72 velocity=95 time=0.0006009614583333333
EXTRACT: note_on channel=0 note=68 velocity=95 time=0
EXTRACT: note_on channel=0 note=65 velocity=95 time=0
EXTRACT: note_on channel=0 note=60 velocity=95 time=0
EXTRACT: note_on channel=0 note=53 velocity=95 time=0
EXTRACT: note_on channel=2 note=51 velocity=79 time=0
EXTRACT: note_off channel=4 note=72 velocity=95 time=0
EXTRACT: note_on channel=4 note=70 velocity=95 time=0
EXTRACT: note_off channel=0 note=72 velocity=95 time=0.14423075
EXTRACT: note_off channel=0 note=68 velocity=95 time=0
EXTRACT: note_off channel=0 note=65 velocity=95 time=0
EXTRACT: note_off channel=0 note=60 velocity=95 time=0
EXTRACT: note_off channel=0 note=53 velocity=95 time=0
EXTRACT: note_on channel=0 note=72 velocity=95 time=0
EXTRACT: note_on channel=0 note=68 velocity=95 time=0
EXTRACT: note_on channel=0 note=65 velocity=95 time=0
EXTRACT: note_on channel=0 note=60 velocity=95 time=0
EXTRACT: note_on channel=0 note=53 velocity=95 time=0
EXTRACT: note_off channel=2 note=51 velocity=79 time=0
EXTRACT: note_on channel=2 note=53 velocity=54 time=0
EXTRACT: note_off channel=4 note=70 velocity=95 time=0
EXTRACT: note_on channel=4 note=68 velocity=95 time=0
EXTRACT: note_off channel=0 note=72 velocity=95 time=0.14423075
EXTRACT: note_off channel=0 note=68 velocity=95 time=0
EXTRACT: note_off channel=0 note=65 velocity=95 time=0
EXTRACT: note_off channel=0 note=60 velocity=95 time=0
EXTRACT: note_off channel=0 note=53 velocity=95 time=0
EXTRACT: note_on channel=0 note=64 velocity=95 time=0
EXTRACT: note_on channel=0 note=59 velocity=95 time=0
EXTRACT: note_on channel=0 note=55 velocity=95 time=0
EXTRACT: note_on channel=0 note=50 velocity=95 time=0
EXTRACT: note_on channel=0 note=45 velocity=95 time=0
EXTRACT: note_off channel=4 note=68 velocity=95 time=0
EXTRACT: note_off channel=0 note=64 velocity=95 time=0.031249995833333332
EXTRACT: note_off channel=0 note=59 velocity=95 time=0
EXTRACT: note_off channel=0 note=55 velocity=95 time=0
EXTRACT: note_off channel=0 note=50 velocity=95 time=0
EXTRACT: note_off channel=0 note=45 velocity=95 time=0
EXTRACT: note_on channel=0 note=64 velocity=95 time=0.11298075416666667
EXTRACT: note_on channel=0 note=59 velocity=95 time=0
EXTRACT: note_on channel=0 note=55 velocity=95 time=0
EXTRACT: note_on channel=0 note=50 velocity=95 time=0
EXTRACT: note_on channel=0 note=45 velocity=95 time=0
EXTRACT: note_off channel=2 note=53 velocity=54 time=0
EXTRACT: note_on channel=2 note=56 velocity=79 time=0
EXTRACT: note_off channel=0 note=64 velocity=95 time=0.031249995833333332
EXTRACT: note_off channel=0 note=59 velocity=95 time=0
EXTRACT: note_off channel=0 note=55 velocity=95 time=0
EXTRACT: note_off channel=0 note=50 velocity=95 time=0
EXTRACT: note_off channel=0 note=45 velocity=95 time=0
EXTRACT: note_on channel=0 note=72 velocity=95 time=0.11298075416666667
EXTRACT: note_on channel=0 note=68 velocity=95 time=0
EXTRACT: note_on channel=0 note=65 velocity=95 time=0
EXTRACT: note_on channel=0 note=60 velocity=95 time=0
EXTRACT: note_on channel=0 note=53 velocity=95 time=0
EXTRACT: note_off channel=2 note=56 velocity=79 time=0
EXTRACT: note_off channel=0 note=72 velocity=95 time=0.14423075
EXTRACT: note_off channel=0 note=68 velocity=95 time=0
EXTRACT: note_off channel=0 note=65 velocity=95 time=0
EXTRACT: note_off channel=0 note=60 velocity=95 time=0
EXTRACT: note_off channel=0 note=53 velocity=95 time=0
EXTRACT: note_on channel=0 note=72 velocity=95 time=0
EXTRACT: note_on channel=0 note=68 velocity=95 time=0
EXTRACT: note_on channel=0 note=65 velocity=95 time=0
EXTRACT: note_on channel=0 note=60 velocity=95 time=0
EXTRACT: note_on channel=0 note=53 velocity=95 time=0
EXTRACT: note_off channel=0 note=72 velocity=95 time=0.14423075
EXTRACT: note_off channel=0 note=68 velocity=95 time=0
EXTRACT: note_off channel=0 note=65 velocity=95 time=0
EXTRACT: note_off channel=0 note=60 velocity=95 time=0
EXTRACT: note_off channel=0 note=53 velocity=95 time=0
EXTRACT: note_on channel=0 note=64 velocity=95 time=0
EXTRACT: note_on channel=0 note=59 velocity=95 time=0
EXTRACT: note_on channel=0 note=55 velocity=95 time=0
EXTRACT: note_on channel=0 note=50 velocity=95 time=0
EXTRACT: note_on channel=0 note=45 velocity=95 time=0
EXTRACT: note_on channel=2 note=51 velocity=79 time=0
EXTRACT: note_off channel=0 note=64 velocity=95 time=0.031249995833333332
EXTRACT: note_off channel=0 note=59 velocity=95 time=0
EXTRACT: note_off channel=0 note=55 velocity=95 time=0
EXTRACT: note_off channel=0 note=50 velocity=95 time=0
EXTRACT: note_off channel=0 note=45 velocity=95 time=0
EXTRACT: note_on channel=0 note=64 velocity=95 time=0.11298075416666667
EXTRACT: note_on channel=0 note=59 velocity=95 time=0
EXTRACT: note_on channel=0 note=55 velocity=95 time=0
EXTRACT: note_on channel=0 note=50 velocity=95 time=0
EXTRACT: note_on channel=0 note=45 velocity=95 time=0
EXTRACT: note_off channel=0 note=64 velocity=95 time=0.031249995833333332
EXTRACT: note_off channel=0 note=59 velocity=95 time=0
EXTRACT: note_off channel=0 note=55 velocity=95 time=0
EXTRACT: note_off channel=0 note=50 velocity=95 time=0
EXTRACT: note_off channel=0 note=45 velocity=95 time=0
EXTRACT: note_on channel=0 note=72 velocity=95 time=0.11298075416666667
EXTRACT: note_on channel=0 note=68 velocity=95 time=0
EXTRACT: note_on channel=0 note=65 velocity=95 time=0
EXTRACT: note_on channel=0 note=60 velocity=95 time=0
EXTRACT: note_on channel=0 note=53 velocity=95 time=0
EXTRACT: note_off channel=2 note=51 velocity=79 time=0
EXTRACT: note_off channel=0 note=72 velocity=95 time=0.14423075
EXTRACT: note_off channel=0 note=68 velocity=95 time=0
EXTRACT: note_off channel=0 note=65 velocity=95 time=0
EXTRACT: note_off channel=0 note=60 velocity=95 time=0
EXTRACT: note_off channel=0 note=53 velocity=95 time=0
EXTRACT: note_on channel=0 note=72 velocity=95 time=0
EXTRACT: note_on channel=0 note=68 velocity=95 time=0
EXTRACT: note_on channel=0 note=65 velocity=95 time=0
EXTRACT: note_on channel=0 note=60 velocity=95 time=0
EXTRACT: note_on channel=0 note=53 velocity=95 time=0
EXTRACT: note_off channel=0 note=72 velocity=95 time=0.14423075
EXTRACT: note_off channel=0 note=68 velocity=95 time=0
EXTRACT: note_off channel=0 note=65 velocity=95 time=0
EXTRACT: note_off channel=0 note=60 velocity=95 time=0
EXTRACT: note_off channel=0 note=53 velocity=95 time=0
EXTRACT: note_on channel=0 note=64 velocity=95 time=0
EXTRACT: note_on channel=0 note=59 velocity=95 time=0
EXTRACT: note_on channel=0 note=55 velocity=95 time=0
EXTRACT: note_on channel=0 note=50 velocity=95 time=0
EXTRACT: note_on channel=0 note=45 velocity=95 time=0
EXTRACT: note_on channel=2 note=48 velocity=79 time=0
EXTRACT: note_off channel=0 note=64 velocity=95 time=0.031249995833333332
EXTRACT: note_off channel=0 note=59 velocity=95 time=0
EXTRACT: note_off channel=0 note=55 velocity=95 time=0
EXTRACT: note_off channel=0 note=50 velocity=95 time=0
EXTRACT: note_off channel=0 note=45 velocity=95 time=0
EXTRACT: note_on channel=0 note=64 velocity=95 time=0.11298075416666667
EXTRACT: note_on channel=0 note=59 velocity=95 time=0
EXTRACT: note_on channel=0 note=55 velocity=95 time=0
EXTRACT: note_on channel=0 note=50 velocity=95 time=0
EXTRACT: note_on channel=0 note=45 velocity=95 time=0
EXTRACT: note_off channel=0 note=64 velocity=95 time=0.031249995833333332
EXTRACT: note_off channel=0 note=59 velocity=95 time=0
EXTRACT: note_off channel=0 note=55 velocity=95 time=0
EXTRACT: note_off channel=0 note=50 velocity=95 time=0
EXTRACT: note_off channel=0 note=45 velocity=95 time=0
EXTRACT: note_on channel=0 note=72 velocity=95 time=0.11298075416666667
EXTRACT: note_on channel=0 note=68 velocity=95 time=0
EXTRACT: note_on channel=0 note=65 velocity=95 time=0
EXTRACT: note_on channel=0 note=60 velocity=95 time=0
EXTRACT: note_on channel=0 note=53 velocity=95 time=0
EXTRACT: note_off channel=2 note=48 velocity=79 time=0
EXTRACT: note_on channel=2 note=46 velocity=79 time=0
EXTRACT: note_off channel=0 note=72 velocity=95 time=0.14423075
EXTRACT: note_off channel=0 note=68 velocity=95 time=0
EXTRACT: note_off channel=0 note=65 velocity=95 time=0
EXTRACT: note_off channel=0 note=60 velocity=95 time=0
EXTRACT: note_off channel=0 note=53 velocity=95 time=0
EXTRACT: note_on channel=0 note=72 velocity=95 time=0
EXTRACT: note_on channel=0 note=68 velocity=95 time=0
EXTRACT: note_on channel=0 note=65 velocity=95 time=0
EXTRACT: note_on channel=0 note=60 velocity=95 time=0
EXTRACT: note_on channel=0 note=53 velocity=95 time=0
EXTRACT: note_off channel=2 note=46 velocity=79 time=0
EXTRACT: note_on channel=2 note=48 velocity=54 time=0
EXTRACT: note_off channel=0 note=72 velocity=95 time=0.14423075
EXTRACT: note_off channel=0 note=68 velocity=95 time=0
EXTRACT: note_off channel=0 note=65 velocity=95 time=0
EXTRACT: note_off channel=0 note=60 velocity=95 time=0
EXTRACT: note_off channel=0 note=53 velocity=95 time=0
EXTRACT: note_on channel=0 note=64 velocity=95 time=0
EXTRACT: note_on channel=0 note=59 velocity=95 time=0
EXTRACT: note_on channel=0 note=55 velocity=95 time=0
EXTRACT: note_on channel=0 note=50 velocity=95 time=0
EXTRACT: note_on channel=0 note=45 velocity=95 time=0
EXTRACT: note_off channel=2 note=48 velocity=54 time=0
EXTRACT: note_on channel=2 note=51 velocity=79 time=0
EXTRACT: note_off channel=0 note=64 velocity=95 time=0.031249995833333332
EXTRACT: note_off channel=0 note=59 velocity=95 time=0
EXTRACT: note_off channel=0 note=55 velocity=95 time=0
EXTRACT: note_off channel=0 note=50 velocity=95 time=0
EXTRACT: note_off channel=0 note=45 velocity=95 time=0
EXTRACT: note_on channel=0 note=64 velocity=95 time=0.11298075416666667
EXTRACT: note_on channel=0 note=59 velocity=95 time=0
EXTRACT: note_on channel=0 note=55 velocity=95 time=0
EXTRACT: note_on channel=0 note=50 velocity=95 time=0
EXTRACT: note_on channel=0 note=45 velocity=95 time=0
EXTRACT: note_off channel=0 note=64 velocity=95 time=0.031249995833333332
EXTRACT: note_off channel=0 note=59 velocity=95 time=0
EXTRACT: note_off channel=0 note=55 velocity=95 time=0
EXTRACT: note_off channel=0 note=50 velocity=95 time=0
EXTRACT: note_off channel=0 note=45 velocity=95 time=0
EXTRACT: note_on channel=0 note=72 velocity=95 time=0.11298075416666667
EXTRACT: note_on channel=0 note=68 velocity=95 time=0
EXTRACT: note_on channel=0 note=65 velocity=95 time=0
EXTRACT: note_on channel=0 note=60 velocity=95 time=0
EXTRACT: note_on channel=0 note=53 velocity=95 time=0
EXTRACT: note_off channel=2 note=51 velocity=79 time=0
EXTRACT: note_on channel=2 note=46 velocity=79 time=0
EXTRACT: note_off channel=0 note=72 velocity=95 time=0.14423075
EXTRACT: note_off channel=0 note=68 velocity=95 time=0
EXTRACT: note_off channel=0 note=65 velocity=95 time=0
EXTRACT: note_off channel=0 note=60 velocity=95 time=0
EXTRACT: note_off channel=0 note=53 velocity=95 time=0
EXTRACT: note_on channel=0 note=72 velocity=95 time=0
EXTRACT: note_on channel=0 note=68 velocity=95 time=0
EXTRACT: note_on channel=0 note=65 velocity=95 time=0
EXTRACT: note_on channel=0 note=60 velocity=95 time=0
EXTRACT: note_on channel=0 note=53 velocity=95 time=0
EXTRACT: note_off channel=2 note=46 velocity=79 time=0
EXTRACT: note_on channel=2 note=48 velocity=54 time=0
EXTRACT: note_off channel=0 note=72 velocity=95 time=0.14423075
EXTRACT: note_off channel=0 note=68 velocity=95 time=0
EXTRACT: note_off channel=0 note=65 velocity=95 time=0
EXTRACT: note_off channel=0 note=60 velocity=95 time=0
EXTRACT: note_off channel=0 note=53 velocity=95 time=0
EXTRACT: note_on channel=0 note=64 velocity=95 time=0
EXTRACT: note_on channel=0 note=59 velocity=95 time=0
EXTRACT: note_on channel=0 note=55 velocity=95 time=0
EXTRACT: note_on channel=0 note=50 velocity=95 time=0
EXTRACT: note_on channel=0 note=45 velocity=95 time=0
EXTRACT: note_off channel=2 note=48 velocity=54 time=0
EXTRACT: note_on channel=2 note=51 velocity=79 time=0
EXTRACT: note_off channel=0 note=64 velocity=95 time=0.031249995833333332
EXTRACT: note_off channel=0 note=59 velocity=95 time=0
EXTRACT: note_off channel=0 note=55 velocity=95 time=0
EXTRACT: note_off channel=0 note=50 velocity=95 time=0
EXTRACT: note_off channel=0 note=45 velocity=95 time=0
EXTRACT: note_on channel=0 note=64 velocity=95 time=0.11298075416666667
EXTRACT: note_on channel=0 note=59 velocity=95 time=0
EXTRACT: note_on channel=0 note=55 velocity=95 time=0
EXTRACT: note_on channel=0 note=50 velocity=95 time=0
EXTRACT: note_on channel=0 note=45 velocity=95 time=0
EXTRACT: note_off channel=0 note=64 velocity=95 time=0.031249995833333332
EXTRACT: note_off channel=0 note=59 velocity=95 time=0
EXTRACT: note_off channel=0 note=55 velocity=95 time=0
EXTRACT: note_off channel=0 note=50 velocity=95 time=0
EXTRACT: note_off channel=0 note=45 velocity=95 time=0
EXTRACT: note_on channel=0 note=72 velocity=95 time=0.11298075416666667
EXTRACT: note_on channel=0 note=68 velocity=95 time=0
EXTRACT: note_on channel=0 note=65 velocity=95 time=0
EXTRACT: note_on channel=0 note=60 velocity=95 time=0
EXTRACT: note_on channel=0 note=53 velocity=95 time=0
EXTRACT: note_off channel=2 note=51 velocity=79 time=0
EXTRACT: note_off channel=0 note=72 velocity=95 time=0.14423075
EXTRACT: note_off channel=0 note=68 velocity=95 time=0
EXTRACT: note_off channel=0 note=65 velocity=95 time=0
EXTRACT: note_off channel=0 note=60 velocity=95 time=0
EXTRACT: note_off channel=0 note=53 velocity=95 time=0
EXTRACT: note_on channel=0 note=72 velocity=95 time=0
EXTRACT: note_on channel=0 note=68 velocity=95 time=0
EXTRACT: note_on channel=0 note=65 velocity=95 time=0
EXTRACT: note_on channel=0 note=60 velocity=95 time=0
EXTRACT: note_on channel=0 note=53 velocity=95 time=0
EXTRACT: note_on channel=2 note=45 velocity=79 time=0
EXTRACT: note_off channel=2 note=45 velocity=79 time=0.031249995833333332
EXTRACT: note_off channel=0 note=72 velocity=95 time=0.11298075416666667
EXTRACT: note_off channel=0 note=68 velocity=95 time=0
EXTRACT: note_off channel=0 note=65 velocity=95 time=0
EXTRACT: note_off channel=0 note=60 velocity=95 time=0
EXTRACT: note_off channel=0 note=53 velocity=95 time=0
EXTRACT: note_on channel=0 note=64 velocity=95 time=0
EXTRACT: note_on channel=0 note=59 velocity=95 time=0
EXTRACT: note_on channel=0 note=55 velocity=95 time=0
EXTRACT: note_on channel=0 note=50 velocity=95 time=0
EXTRACT: note_on channel=0 note=45 velocity=95 time=0
EXTRACT: note_on channel=2 note=46 velocity=79 time=0
EXTRACT: note_off channel=0 note=64 velocity=95 time=0.031249995833333332
EXTRACT: note_off channel=0 note=59 velocity=95 time=0
EXTRACT: note_off channel=0 note=55 velocity=95 time=0
EXTRACT: note_off channel=0 note=50 velocity=95 time=0
EXTRACT: note_off channel=0 note=45 velocity=95 time=0
EXTRACT: note_on channel=0 note=64 velocity=95 time=0.11298075416666667
EXTRACT: note_on channel=0 note=59 velocity=95 time=0
EXTRACT: note_on channel=0 note=55 velocity=95 time=0
EXTRACT: note_on channel=0 note=50 velocity=95 time=0
EXTRACT: note_on channel=0 note=45 velocity=95 time=0
EXTRACT: note_off channel=0 note=64 velocity=95 time=0.031249995833333332
EXTRACT: note_off channel=0 note=59 velocity=95 time=0
EXTRACT: note_off channel=0 note=55 velocity=95 time=0
EXTRACT: note_off channel=0 note=50 velocity=95 time=0
EXTRACT: note_off channel=0 note=45 velocity=95 time=0
EXTRACT: note_on channel=0 note=72 velocity=95 time=0.11298075416666667
EXTRACT: note_on channel=0 note=68 velocity=95 time=0
EXTRACT: note_on channel=0 note=65 velocity=95 time=0
EXTRACT: note_on channel=0 note=60 velocity=95 time=0
EXTRACT: note_on channel=0 note=53 velocity=95 time=0
EXTRACT: note_off channel=2 note=46 velocity=79 time=0
EXTRACT: note_on channel=2 note=48 velocity=79 time=0
EXTRACT: note_off channel=0 note=72 velocity=95 time=0.14423075
EXTRACT: note_off channel=0 note=68 velocity=95 time=0
EXTRACT: note_off channel=0 note=65 velocity=95 time=0
EXTRACT: note_off channel=0 note=60 velocity=95 time=0
EXTRACT: note_off channel=0 note=53 velocity=95 time=0
EXTRACT: note_on channel=0 note=72 velocity=95 time=0
EXTRACT: note_on channel=0 note=68 velocity=95 time=0
EXTRACT: note_on channel=0 note=65 velocity=95 time=0
EXTRACT: note_on channel=0 note=60 velocity=95 time=0
EXTRACT: note_on channel=0 note=53 velocity=95 time=0
EXTRACT: note_off channel=0 note=72 velocity=95 time=0.14423075
EXTRACT: note_off channel=0 note=68 velocity=95 time=0
EXTRACT: note_off channel=0 note=65 velocity=95 time=0
EXTRACT: note_off channel=0 note=60 velocity=95 time=0
EXTRACT: note_off channel=0 note=53 velocity=95 time=0
EXTRACT: note_on channel=0 note=64 velocity=95 time=0
EXTRACT: note_on channel=0 note=59 velocity=95 time=0
EXTRACT: note_on channel=0 note=55 velocity=95 time=0
EXTRACT: note_on channel=0 note=50 velocity=95 time=0
EXTRACT: note_on channel=0 note=45 velocity=95 time=0
EXTRACT: note_off channel=2 note=48 velocity=79 time=0
EXTRACT: note_on channel=2 note=51 velocity=79 time=0
EXTRACT: note_off channel=0 note=64 velocity=95 time=0.031249995833333332
EXTRACT: note_off channel=0 note=59 velocity=95 time=0
EXTRACT: note_off channel=0 note=55 velocity=95 time=0
EXTRACT: note_off channel=0 note=50 velocity=95 time=0
EXTRACT: note_off channel=0 note=45 velocity=95 time=0
EXTRACT: note_on channel=0 note=64 velocity=95 time=0.11298075416666667
EXTRACT: note_on channel=0 note=59 velocity=95 time=0
EXTRACT: note_on channel=0 note=55 velocity=95 time=0
EXTRACT: note_on channel=0 note=50 velocity=95 time=0
EXTRACT: note_on channel=0 note=45 velocity=95 time=0
EXTRACT: note_off channel=0 note=64 velocity=95 time=0.031249995833333332
EXTRACT: note_off channel=0 note=59 velocity=95 time=0
EXTRACT: note_off channel=0 note=55 velocity=95 time=0
EXTRACT: note_off channel=0 note=50 velocity=95 time=0
EXTRACT: note_off channel=0 note=45 velocity=95 time=0
EXTRACT: note_on channel=0 note=72 velocity=95 time=0.11298075416666667
EXTRACT: note_on channel=0 note=68 velocity=95 time=0
EXTRACT: note_on channel=0 note=65 velocity=95 time=0
EXTRACT: note_on channel=0 note=60 velocity=95 time=0
EXTRACT: note_on channel=0 note=53 velocity=95 time=0
EXTRACT: note_off channel=2 note=51 velocity=79 time=0
EXTRACT: note_on channel=2 note=53 velocity=79 time=0
EXTRACT: note_off channel=0 note=72 velocity=95 time=0.14423075
EXTRACT: note_off channel=0 note=68 velocity=95 time=0
EXTRACT: note_off channel=0 note=65 velocity=95 time=0
EXTRACT: note_off channel=0 note=60 velocity=95 time=0
EXTRACT: note_off channel=0 note=53 velocity=95 time=0
EXTRACT: note_on channel=0 note=72 velocity=95 time=0
EXTRACT: note_on channel=0 note=68 velocity=95 time=0
EXTRACT: note_on channel=0 note=65 velocity=95 time=0
EXTRACT: note_on channel=0 note=60 velocity=95 time=0
EXTRACT: note_on channel=0 note=53 velocity=95 time=0
EXTRACT: note_off channel=0 note=72 velocity=95 time=0.14423075
EXTRACT: note_off channel=0 note=68 velocity=95 time=0
EXTRACT: note_off channel=0 note=65 velocity=95 time=0
EXTRACT: note_off channel=0 note=60 velocity=95 time=0
EXTRACT: note_off channel=0 note=53 velocity=95 time=0
EXTRACT: note_on channel=0 note=64 velocity=95 time=0
EXTRACT: note_on channel=0 note=59 velocity=95 time=0
EXTRACT: note_on channel=0 note=55 velocity=95 time=0
EXTRACT: note_on channel=0 note=50 velocity=95 time=0
EXTRACT: note_on channel=0 note=45 velocity=95 time=0
EXTRACT: note_off channel=2 note=53 velocity=79 time=0
EXTRACT: note_on channel=2 note=56 velocity=79 time=0
EXTRACT: note_off channel=0 note=64 velocity=95 time=0.031249995833333332
EXTRACT: note_off channel=0 note=59 velocity=95 time=0
EXTRACT: note_off channel=0 note=55 velocity=95 time=0
EXTRACT: note_off channel=0 note=50 velocity=95 time=0
EXTRACT: note_off channel=0 note=45 velocity=95 time=0
EXTRACT: note_on channel=0 note=64 velocity=95 time=0.11298075416666667
EXTRACT: note_on channel=0 note=59 velocity=95 time=0
EXTRACT: note_on channel=0 note=55 velocity=95 time=0
EXTRACT: note_on channel=0 note=50 velocity=95 time=0
EXTRACT: note_on channel=0 note=45 velocity=95 time=0
EXTRACT: note_off channel=0 note=64 velocity=95 time=0.031249995833333332
EXTRACT: note_off channel=0 note=59 velocity=95 time=0
EXTRACT: note_off channel=0 note=55 velocity=95 time=0
EXTRACT: note_off channel=0 note=50 velocity=95 time=0
EXTRACT: note_off channel=0 note=45 velocity=95 time=0
EXTRACT: note_on channel=0 note=70 velocity=63 time=0.11298075416666667
EXTRACT: note_on channel=0 note=65 velocity=63 time=0
EXTRACT: note_on channel=0 note=62 velocity=63 time=0
EXTRACT: note_on channel=0 note=58 velocity=63 time=0
EXTRACT: note_on channel=0 note=53 velocity=63 time=0
EXTRACT: note_on channel=0 note=46 velocity=63 time=0
EXTRACT: note_off channel=2 note=56 velocity=79 time=0
EXTRACT: note_on channel=2 note=53 velocity=79 time=0
EXTRACT: note_off channel=0 note=70 velocity=63 time=0.14423075
EXTRACT: note_off channel=0 note=65 velocity=63 time=0
EXTRACT: note_off channel=0 note=62 velocity=63 time=0
EXTRACT: note_off channel=0 note=58 velocity=63 time=0
EXTRACT: note_off channel=0 note=53 velocity=63 time=0
EXTRACT: note_off channel=0 note=46 velocity=63 time=0
EXTRACT: note_on channel=0 note=70 velocity=63 time=0
EXTRACT: note_on channel=0 note=65 velocity=63 time=0
EXTRACT: note_on channel=0 note=62 velocity=63 time=0
EXTRACT: note_on channel=0 note=58 velocity=63 time=0
EXTRACT: note_on channel=0 note=53 velocity=63 time=0
EXTRACT: note_on channel=0 note=46 velocity=63 time=0
EXTRACT: note_off channel=2 note=53 velocity=79 time=0
EXTRACT: note_off channel=0 note=70 velocity=63 time=0.14423075
EXTRACT: note_off channel=0 note=65 velocity=63 time=0
EXTRACT: note_off channel=0 note=62 velocity=63 time=0
EXTRACT: note_off channel=0 note=58 velocity=63 time=0
EXTRACT: note_off channel=0 note=53 velocity=63 time=0
EXTRACT: note_off channel=0 note=46 velocity=63 time=0
EXTRACT: note_on channel=0 note=64 velocity=63 time=0
EXTRACT: note_on channel=0 note=59 velocity=63 time=0
EXTRACT: note_on channel=0 note=55 velocity=63 time=0
EXTRACT: note_on channel=0 note=50 velocity=63 time=0
EXTRACT: note_on channel=0 note=45 velocity=63 time=0
EXTRACT: note_on channel=0 note=40 velocity=63 time=0
EXTRACT: note_on channel=2 note=58 velocity=79 time=0
EXTRACT: note_on channel=4 note=58 velocity=95 time=0
EXTRACT: note_off channel=0 note=64 velocity=63 time=0.031249995833333332
EXTRACT: note_off channel=0 note=59 velocity=63 time=0
EXTRACT: note_off channel=0 note=55 velocity=63 time=0
EXTRACT: note_off channel=0 note=50 velocity=63 time=0
EXTRACT: note_off channel=0 note=45 velocity=63 time=0
EXTRACT: note_off channel=0 note=40 velocity=63 time=0
EXTRACT: note_on channel=0 note=64 velocity=63 time=0.11298075416666667
EXTRACT: note_on channel=0 note=59 velocity=63 time=0
EXTRACT: note_on channel=0 note=55 velocity=63 time=0
EXTRACT: note_on channel=0 note=50 velocity=63 time=0
EXTRACT: note_on channel=0 note=45 velocity=63 time=0
EXTRACT: note_on channel=0 note=40 velocity=63 time=0
EXTRACT: note_off channel=2 note=58 velocity=79 time=0
EXTRACT: note_off channel=0 note=64 velocity=63 time=0.031249995833333332
EXTRACT: note_off channel=0 note=59 velocity=63 time=0
EXTRACT: note_off channel=0 note=55 velocity=63 time=0
EXTRACT: note_off channel=0 note=50 velocity=63 time=0
EXTRACT: note_off channel=0 note=45 velocity=63 time=0
EXTRACT: note_off channel=0 note=40 velocity=63 time=0
EXTRACT: note_on channel=0 note=70 velocity=63 time=0.11298075416666667
EXTRACT: note_on channel=0 note=65 velocity=63 time=0
EXTRACT: note_on channel=0 note=62 velocity=63 time=0
EXTRACT: note_on channel=0 note=58 velocity=63 time=0
EXTRACT: note_on channel=0 note=53 velocity=63 time=0
EXTRACT: note_on channel=0 note=46 velocity=63 time=0
EXTRACT: note_on channel=2 note=70 velocity=79 time=0
EXTRACT: note_on channel=2 note=65 velocity=79 time=0
EXTRACT: note_on channel=2 note=62 velocity=79 time=0
EXTRACT: note_off channel=4 note=58 velocity=95 time=0
EXTRACT: note_on channel=4 note=58 velocity=95 time=0
EXTRACT: note_off channel=0 note=70 velocity=63 time=0.14423075
EXTRACT: note_off channel=0 note=65 velocity=63 time=0
EXTRACT: note_off channel=0 note=62 velocity=63 time=0
EXTRACT: note_off channel=0 note=58 velocity=63 time=0
EXTRACT: note_off channel=0 note=53 velocity=63 time=0
EXTRACT: note_off channel=0 note=46 velocity=63 time=0
EXTRACT: note_on channel=0 note=70 velocity=63 time=0
EXTRACT: note_on channel=0 note=65 velocity=63 time=0
EXTRACT: note_on channel=0 note=62 velocity=63 time=0
EXTRACT: note_on channel=0 note=58 velocity=63 time=0
EXTRACT: note_on channel=0 note=53 velocity=63 time=0
EXTRACT: note_on channel=0 note=46 velocity=63 time=0
EXTRACT: note_off channel=2 note=70 velocity=79 time=0
EXTRACT: note_off channel=2 note=65 velocity=79 time=0
EXTRACT: note_off channel=2 note=62 velocity=79 time=0
EXTRACT: note_off channel=0 note=70 velocity=63 time=0.14423075
EXTRACT: note_off channel=0 note=65 velocity=63 time=0
EXTRACT: note_off channel=0 note=62 velocity=63 time=0
EXTRACT: note_off channel=0 note=58 velocity=63 time=0
EXTRACT: note_off channel=0 note=53 velocity=63 time=0
EXTRACT: note_off channel=0 note=46 velocity=63 time=0
EXTRACT: note_on channel=0 note=64 velocity=63 time=0
EXTRACT: note_on channel=0 note=59 velocity=63 time=0
EXTRACT: note_on channel=0 note=55 velocity=63 time=0
EXTRACT: note_on channel=0 note=50 velocity=63 time=0
EXTRACT: note_on channel=0 note=45 velocity=63 time=0
EXTRACT: note_on channel=0 note=40 velocity=63 time=0
EXTRACT: note_off channel=4 note=58 velocity=95 time=0
EXTRACT: note_on channel=4 note=56 velocity=95 time=0
EXTRACT: note_off channel=0 note=64 velocity=63 time=0.031249995833333332
EXTRACT: note_off channel=0 note=59 velocity=63 time=0
EXTRACT: note_off channel=0 note=55 velocity=63 time=0
EXTRACT: note_off channel=0 note=50 velocity=63 time=0
EXTRACT: note_off channel=0 note=45 velocity=63 time=0
EXTRACT: note_off channel=0 note=40 velocity=63 time=0
EXTRACT: note_on channel=0 note=64 velocity=63 time=0.11298075416666667
EXTRACT: note_on channel=0 note=59 velocity=63 time=0
EXTRACT: note_on channel=0 note=55 velocity=63 time=0
EXTRACT: note_on channel=0 note=50 velocity=63 time=0
EXTRACT: note_on channel=0 note=45 velocity=63 time=0
EXTRACT: note_on channel=0 note=40 velocity=63 time=0
EXTRACT: note_off channel=0 note=64 velocity=63 time=0.031249995833333332
EXTRACT: note_off channel=0 note=59 velocity=63 time=0
EXTRACT: note_off channel=0 note=55 velocity=63 time=0
EXTRACT: note_off channel=0 note=50 velocity=63 time=0
EXTRACT: note_off channel=0 note=45 velocity=63 time=0
EXTRACT: note_off channel=0 note=40 velocity=63 time=0
EXTRACT: note_on channel=5 note=60 velocity=95 time=0.04086537916666667
EXTRACT: note_on channel=0 note=70 velocity=63 time=0.072115375
EXTRACT: note_on channel=0 note=65 velocity=63 time=0
EXTRACT: note_on channel=0 note=62 velocity=63 time=0
EXTRACT: note_on channel=0 note=58 velocity=63 time=0
EXTRACT: note_on channel=0 note=53 velocity=63 time=0
EXTRACT: note_on channel=0 note=46 velocity=63 time=0
EXTRACT: note_off channel=4 note=56 velocity=95 time=0
EXTRACT: note_off channel=5 note=60 velocity=95 time=0
EXTRACT: note_on channel=5 note=60 velocity=95 time=0
EXTRACT: note_off channel=0 note=70 velocity=63 time=0.14423075
EXTRACT: note_off channel=0 note=65 velocity=63 time=0
EXTRACT: note_off channel=0 note=62 velocity=63 time=0
EXTRACT: note_off channel=0 note=58 velocity=63 time=0
EXTRACT: note_off channel=0 note=53 velocity=63 time=0
EXTRACT: note_off channel=0 note=46 velocity=63 time=0
EXTRACT: note_on channel=0 note=70 velocity=63 time=0
EXTRACT: note_on channel=0 note=65 velocity=63 time=0
EXTRACT: note_on channel=0 note=62 velocity=63 time=0
EXTRACT: note_on channel=0 note=58 velocity=63 time=0
EXTRACT: note_on channel=0 note=53 velocity=63 time=0
EXTRACT: note_on channel=0 note=46 velocity=63 time=0
EXTRACT: note_on channel=2 note=56 velocity=79 time=0
EXTRACT: note_off channel=0 note=70 velocity=63 time=0.14423075
EXTRACT: note_off channel=0 note=65 velocity=63 time=0
EXTRACT: note_off channel=0 note=62 velocity=63 time=0
EXTRACT: note_off channel=0 note=58 velocity=63 time=0
EXTRACT: note_off channel=0 note=53 velocity=63 time=0
EXTRACT: note_off channel=0 note=46 velocity=63 time=0
EXTRACT: note_on channel=0 note=64 velocity=63 time=0
EXTRACT: note_on channel=0 note=59 velocity=63 time=0
EXTRACT: note_on channel=0 note=55 velocity=63 time=0
EXTRACT: note_on channel=0 note=50 velocity=63 time=0
EXTRACT: note_on channel=0 note=45 velocity=63 time=0
EXTRACT: note_on channel=0 note=40 velocity=63 time=0
EXTRACT: note_off channel=2 note=56 velocity=79 time=0
EXTRACT: note_off channel=0 note=64 velocity=63 time=0.031249995833333332
EXTRACT: note_off channel=0 note=59 velocity=63 time=0
EXTRACT: note_off channel=0 note=55 velocity=63 time=0
EXTRACT: note_off channel=0 note=50 velocity=63 time=0
EXTRACT: note_off channel=0 note=45 velocity=63 time=0
EXTRACT: note_off channel=0 note=40 velocity=63 time=0
EXTRACT: note_on channel=0 note=64 velocity=63 time=0.11298075416666667
EXTRACT: note_on channel=0 note=59 velocity=63 time=0
EXTRACT: note_on channel=0 note=55 velocity=63 time=0
EXTRACT: note_on channel=0 note=50 velocity=63 time=0
EXTRACT: note_on channel=0 note=45 velocity=63 time=0
EXTRACT: note_on channel=0 note=40 velocity=63 time=0
EXTRACT: note_on channel=2 note=50 velocity=79 time=0
EXTRACT: note_off channel=5 note=60 velocity=95 time=0
EXTRACT: note_on channel=4 note=58 velocity=95 time=0
EXTRACT: note_off channel=0 note=64 velocity=63 time=0.031249995833333332
EXTRACT: note_off channel=0 note=59 velocity=63 time=0
EXTRACT: note_off channel=0 note=55 velocity=63 time=0
EXTRACT: note_off channel=0 note=50 velocity=63 time=0
EXTRACT: note_off channel=0 note=45 velocity=63 time=0
EXTRACT: note_off channel=0 note=40 velocity=63 time=0
EXTRACT: note_on channel=0 note=70 velocity=63 time=0.11298075416666667
EXTRACT: note_on channel=0 note=65 velocity=63 time=0
EXTRACT: note_on channel=0 note=62 velocity=63 time=0
EXTRACT: note_on channel=0 note=58 velocity=63 time=0
EXTRACT: note_on channel=0 note=53 velocity=63 time=0
EXTRACT: note_on channel=0 note=46 velocity=63 time=0
EXTRACT: note_off channel=2 note=50 velocity=79 time=0
EXTRACT: note_on channel=2 note=56 velocity=79 time=0
EXTRACT: note_off channel=0 note=70 velocity=63 time=0.14423075
EXTRACT: note_off channel=0 note=65 velocity=63 time=0
EXTRACT: note_off channel=0 note=62 velocity=63 time=0
EXTRACT: note_off channel=0 note=58 velocity=63 time=0
EXTRACT: note_off channel=0 note=53 velocity=63 time=0
EXTRACT: note_off channel=0 note=46 velocity=63 time=0
EXTRACT: note_on channel=0 note=70 velocity=63 time=0
EXTRACT: note_on channel=0 note=65 velocity=63 time=0
EXTRACT: note_on channel=0 note=62 velocity=63 time=0
EXTRACT: note_on channel=0 note=58 velocity=63 time=0
EXTRACT: note_on channel=0 note=53 velocity=63 time=0
EXTRACT: note_on channel=0 note=46 velocity=63 time=0
EXTRACT: note_off channel=4 note=58 velocity=95 time=0
EXTRACT: note_on channel=4 note=56 velocity=95 time=0
EXTRACT: note_off channel=0 note=70 velocity=63 time=0.14423075
EXTRACT: note_off channel=0 note=65 velocity=63 time=0
EXTRACT: note_off channel=0 note=62 velocity=63 time=0
EXTRACT: note_off channel=0 note=58 velocity=63 time=0
EXTRACT: note_off channel=0 note=53 velocity=63 time=0
EXTRACT: note_off channel=0 note=46 velocity=63 time=0
EXTRACT: note_on channel=0 note=64 velocity=63 time=0
EXTRACT: note_on channel=0 note=59 velocity=63 time=0
EXTRACT: note_on channel=0 note=55 velocity=63 time=0
EXTRACT: note_on channel=0 note=50 velocity=63 time=0
EXTRACT: note_on channel=0 note=45 velocity=63 time=0
EXTRACT: note_on channel=0 note=40 velocity=63 time=0
EXTRACT: note_off channel=2 note=56 velocity=79 time=0
EXTRACT: note_on channel=2 note=70 velocity=79 time=0
EXTRACT: note_on channel=2 note=65 velocity=79 time=0
EXTRACT: note_on channel=2 note=62 velocity=79 time=0
EXTRACT: note_off channel=4 note=56 velocity=95 time=0
EXTRACT: note_on channel=4 note=53 velocity=95 time=0
EXTRACT: note_off channel=0 note=64 velocity=63 time=0.031249995833333332
EXTRACT: note_off channel=0 note=59 velocity=63 time=0
EXTRACT: note_off channel=0 note=55 velocity=63 time=0
EXTRACT: note_off channel=0 note=50 velocity=63 time=0
EXTRACT: note_off channel=0 note=45 velocity=63 time=0
EXTRACT: note_off channel=0 note=40 velocity=63 time=0
EXTRACT: note_on channel=0 note=64 velocity=63 time=0.11298075416666667
EXTRACT: note_on channel=0 note=59 velocity=63 time=0
EXTRACT: note_on channel=0 note=55 velocity=63 time=0
EXTRACT: note_on channel=0 note=50 velocity=63 time=0
EXTRACT: note_on channel=0 note=45 velocity=63 time=0
EXTRACT: note_on channel=0 note=40 velocity=63 time=0
EXTRACT: note_off channel=2 note=70 velocity=79 time=0
EXTRACT: note_off channel=2 note=65 velocity=79 time=0
EXTRACT: note_off channel=2 note=62 velocity=79 time=0
EXTRACT: note_off channel=4 note=53 velocity=95 time=0
EXTRACT: note_off channel=0 note=64 velocity=63 time=0.031249995833333332
EXTRACT: note_off channel=0 note=59 velocity=63 time=0
EXTRACT: note_off channel=0 note=55 velocity=63 time=0
EXTRACT: note_off channel=0 note=50 velocity=63 time=0
EXTRACT: note_off channel=0 note=45 velocity=63 time=0
EXTRACT: note_off channel=0 note=40 velocity=63 time=0
EXTRACT: note_on channel=0 note=70 velocity=63 time=0.11298075416666667
EXTRACT: note_on channel=0 note=65 velocity=63 time=0
EXTRACT: note_on channel=0 note=62 velocity=63 time=0
EXTRACT: note_on channel=0 note=58 velocity=63 time=0
EXTRACT: note_on channel=0 note=53 velocity=63 time=0
EXTRACT: note_on channel=0 note=46 velocity=63 time=0
EXTRACT: note_on channel=2 note=53 velocity=79 time=0
EXTRACT: note_off channel=0 note=70 velocity=63 time=0.14423075
EXTRACT: note_off channel=0 note=65 velocity=63 time=0
EXTRACT: note_off channel=0 note=62 velocity=63 time=0
EXTRACT: note_off channel=0 note=58 velocity=63 time=0
EXTRACT: note_off channel=0 note=53 velocity=63 time=0
EXTRACT: note_off channel=0 note=46 velocity=63 time=0
EXTRACT: note_on channel=0 note=70 velocity=63 time=0
EXTRACT: note_on channel=0 note=65 velocity=63 time=0
EXTRACT: note_on channel=0 note=62 velocity=63 time=0
EXTRACT: note_on channel=0 note=58 velocity=63 time=0
EXTRACT: note_on channel=0 note=53 velocity=63 time=0
EXTRACT: note_on channel=0 note=46 velocity=63 time=0
EXTRACT: note_off channel=2 note=53 velocity=79 time=0
EXTRACT: note_off channel=0 note=70 velocity=63 time=0.14423075
EXTRACT: note_off channel=0 note=65 velocity=63 time=0
EXTRACT: note_off channel=0 note=62 velocity=63 time=0
EXTRACT: note_off channel=0 note=58 velocity=63 time=0
EXTRACT: note_off channel=0 note=53 velocity=63 time=0
EXTRACT: note_off channel=0 note=46 velocity=63 time=0
EXTRACT: note_on channel=0 note=64 velocity=63 time=0
EXTRACT: note_on channel=0 note=59 velocity=63 time=0
EXTRACT: note_on channel=0 note=55 velocity=63 time=0
EXTRACT: note_on channel=0 note=50 velocity=63 time=0
EXTRACT: note_on channel=0 note=45 velocity=63 time=0
EXTRACT: note_on channel=0 note=40 velocity=63 time=0
EXTRACT: note_on channel=2 note=58 velocity=79 time=0
EXTRACT: note_on channel=4 note=58 velocity=95 time=0
EXTRACT: note_off channel=0 note=64 velocity=63 time=0.031249995833333332
EXTRACT: note_off channel=0 note=59 velocity=63 time=0
EXTRACT: note_off channel=0 note=55 velocity=63 time=0
EXTRACT: note_off channel=0 note=50 velocity=63 time=0
EXTRACT: note_off channel=0 note=45 velocity=63 time=0
EXTRACT: note_off channel=0 note=40 velocity=63 time=0
EXTRACT: note_on channel=0 note=64 velocity=63 time=0.11298075416666667
EXTRACT: note_on channel=0 note=59 velocity=63 time=0
EXTRACT: note_on channel=0 note=55 velocity=63 time=0
EXTRACT: note_on channel=0 note=50 velocity=63 time=0
EXTRACT: note_on channel=0 note=45 velocity=63 time=0
EXTRACT: note_on channel=0 note=40 velocity=63 time=0
EXTRACT: note_off channel=2 note=58 velocity=79 time=0
EXTRACT: note_off channel=0 note=64 velocity=63 time=0.031249995833333332
EXTRACT: note_off channel=0 note=59 velocity=63 time=0
EXTRACT: note_off channel=0 note=55 velocity=63 time=0
EXTRACT: note_off channel=0 note=50 velocity=63 time=0
EXTRACT: note_off channel=0 note=45 velocity=63 time=0
EXTRACT: note_off channel=0 note=40 velocity=63 time=0
EXTRACT: note_on channel=0 note=70 velocity=63 time=0.11298075416666667
EXTRACT: note_on channel=0 note=65 velocity=63 time=0
EXTRACT: note_on channel=0 note=62 velocity=63 time=0
EXTRACT: note_on channel=0 note=58 velocity=63 time=0
EXTRACT: note_on channel=0 note=53 velocity=63 time=0
EXTRACT: note_on channel=0 note=46 velocity=63 time=0
EXTRACT: note_on channel=2 note=70 velocity=79 time=0
EXTRACT: note_on channel=2 note=65 velocity=79 time=0
EXTRACT: note_on channel=2 note=62 velocity=79 time=0
EXTRACT: note_off channel=4 note=58 velocity=95 time=0
EXTRACT: note_on channel=4 note=58 velocity=95 time=0
EXTRACT: note_off channel=0 note=70 velocity=63 time=0.14423075
EXTRACT: note_off channel=0 note=65 velocity=63 time=0
EXTRACT: note_off channel=0 note=62 velocity=63 time=0
EXTRACT: note_off channel=0 note=58 velocity=63 time=0
EXTRACT: note_off channel=0 note=53 velocity=63 time=0
EXTRACT: note_off channel=0 note=46 velocity=63 time=0
EXTRACT: note_on channel=0 note=70 velocity=63 time=0
EXTRACT: note_on channel=0 note=65 velocity=63 time=0
EXTRACT: note_on channel=0 note=62 velocity=63 time=0
EXTRACT: note_on channel=0 note=58 velocity=63 time=0
EXTRACT: note_on channel=0 note=53 velocity=63 time=0
EXTRACT: note_on channel=0 note=46 velocity=63 time=0
EXTRACT: note_off channel=2 note=70 velocity=79 time=0
EXTRACT: note_off channel=2 note=65 velocity=79 time=0
EXTRACT: note_off channel=2 note=62 velocity=79 time=0
EXTRACT: note_off channel=0 note=70 velocity=63 time=0.14423075
EXTRACT: note_off channel=0 note=65 velocity=63 time=0
EXTRACT: note_off channel=0 note=62 velocity=63 time=0
EXTRACT: note_off channel=0 note=58 velocity=63 time=0
EXTRACT: note_off channel=0 note=53 velocity=63 time=0
EXTRACT: note_off channel=0 note=46 velocity=63 time=0
EXTRACT: note_on channel=0 note=64 velocity=63 time=0
EXTRACT: note_on channel=0 note=59 velocity=63 time=0
EXTRACT: note_on channel=0 note=55 velocity=63 time=0
EXTRACT: note_on channel=0 note=50 velocity=63 time=0
EXTRACT: note_on channel=0 note=45 velocity=63 time=0
EXTRACT: note_on channel=0 note=40 velocity=63 time=0
EXTRACT: note_off channel=4 note=58 velocity=95 time=0
EXTRACT: note_on channel=4 note=56 velocity=95 time=0
EXTRACT: note_off channel=0 note=64 velocity=63 time=0.031249995833333332
EXTRACT: note_off channel=0 note=59 velocity=63 time=0
EXTRACT: note_off channel=0 note=55 velocity=63 time=0
EXTRACT: note_off channel=0 note=50 velocity=63 time=0
EXTRACT: note_off channel=0 note=45 velocity=63 time=0
EXTRACT: note_off channel=0 note=40 velocity=63 time=0
EXTRACT: note_on channel=0 note=64 velocity=63 time=0.11298075416666667
EXTRACT: note_on channel=0 note=59 velocity=63 time=0
EXTRACT: note_on channel=0 note=55 velocity=63 time=0
EXTRACT: note_on channel=0 note=50 velocity=63 time=0
EXTRACT: note_on channel=0 note=45 velocity=63 time=0
EXTRACT: note_on channel=0 note=40 velocity=63 time=0
EXTRACT: note_off channel=0 note=64 velocity=63 time=0.031249995833333332
EXTRACT: note_off channel=0 note=59 velocity=63 time=0
EXTRACT: note_off channel=0 note=55 velocity=63 time=0
EXTRACT: note_off channel=0 note=50 velocity=63 time=0
EXTRACT: note_off channel=0 note=45 velocity=63 time=0
EXTRACT: note_off channel=0 note=40 velocity=63 time=0
EXTRACT: note_on channel=0 note=70 velocity=63 time=0.11298075416666667
EXTRACT: note_on channel=0 note=65 velocity=63 time=0
EXTRACT: note_on channel=0 note=62 velocity=63 time=0
EXTRACT: note_on channel=0 note=58 velocity=63 time=0
EXTRACT: note_on channel=0 note=53 velocity=63 time=0
EXTRACT: note_on channel=0 note=46 velocity=63 time=0
EXTRACT: note_off channel=4 note=56 velocity=95 time=0
EXTRACT: note_on channel=4 note=60 velocity=95 time=0
EXTRACT: note_off channel=0 note=70 velocity=63 time=0.14423075
EXTRACT: note_off channel=0 note=65 velocity=63 time=0
EXTRACT: note_off channel=0 note=62 velocity=63 time=0
EXTRACT: note_off channel=0 note=58 velocity=63 time=0
EXTRACT: note_off channel=0 note=53 velocity=63 time=0
EXTRACT: note_off channel=0 note=46 velocity=63 time=0
EXTRACT: note_on channel=0 note=70 velocity=63 time=0
EXTRACT: note_on channel=0 note=65 velocity=63 time=0
EXTRACT: note_on channel=0 note=62 velocity=63 time=0
EXTRACT: note_on channel=0 note=58 velocity=63 time=0
EXTRACT: note_on channel=0 note=53 velocity=63 time=0
EXTRACT: note_on channel=0 note=46 velocity=63 time=0
EXTRACT: note_on channel=2 note=56 velocity=79 time=0
EXTRACT: note_off channel=0 note=70 velocity=63 time=0.14423075
EXTRACT: note_off channel=0 note=65 velocity=63 time=0
EXTRACT: note_off channel=0 note=62 velocity=63 time=0
EXTRACT: note_off channel=0 note=58 velocity=63 time=0
EXTRACT: note_off channel=0 note=53 velocity=63 time=0
EXTRACT: note_off channel=0 note=46 velocity=63 time=0
EXTRACT: note_on channel=0 note=64 velocity=63 time=0
EXTRACT: note_on channel=0 note=59 velocity=63 time=0
EXTRACT: note_on channel=0 note=55 velocity=63 time=0
EXTRACT: note_on channel=0 note=50 velocity=63 time=0
EXTRACT: note_on channel=0 note=45 velocity=63 time=0
EXTRACT: note_on channel=0 note=40 velocity=63 time=0
EXTRACT: note_off channel=2 note=56 velocity=79 time=0
EXTRACT: note_off channel=0 note=64 velocity=63 time=0.031249995833333332
EXTRACT: note_off channel=0 note=59 velocity=63 time=0
EXTRACT: note_off channel=0 note=55 velocity=63 time=0
EXTRACT: note_off channel=0 note=50 velocity=63 time=0
EXTRACT: note_off channel=0 note=45 velocity=63 time=0
EXTRACT: note_off channel=0 note=40 velocity=63 time=0
EXTRACT: note_on channel=0 note=64 velocity=63 time=0.11298075416666667
EXTRACT: note_on channel=0 note=59 velocity=63 time=0
EXTRACT: note_on channel=0 note=55 velocity=63 time=0
EXTRACT: note_on channel=0 note=50 velocity=63 time=0
EXTRACT: note_on channel=0 note=45 velocity=63 time=0
EXTRACT: note_on channel=0 note=40 velocity=63 time=0
EXTRACT: note_on channel=2 note=50 velocity=79 time=0
EXTRACT: note_off channel=4 note=60 velocity=95 time=0
EXTRACT: note_on channel=4 note=58 velocity=95 time=0
EXTRACT: note_off channel=0 note=64 velocity=63 time=0.031249995833333332
EXTRACT: note_off channel=0 note=59 velocity=63 time=0
EXTRACT: note_off channel=0 note=55 velocity=63 time=0
EXTRACT: note_off channel=0 note=50 velocity=63 time=0
EXTRACT: note_off channel=0 note=45 velocity=63 time=0
EXTRACT: note_off channel=0 note=40 velocity=63 time=0
EXTRACT: note_on channel=0 note=70 velocity=63 time=0.11298075416666667
EXTRACT: note_on channel=0 note=65 velocity=63 time=0
EXTRACT: note_on channel=0 note=62 velocity=63 time=0
EXTRACT: note_on channel=0 note=58 velocity=63 time=0
EXTRACT: note_on channel=0 note=53 velocity=63 time=0
EXTRACT: note_on channel=0 note=46 velocity=63 time=0
EXTRACT: note_off channel=2 note=50 velocity=79 time=0
EXTRACT: note_on channel=2 note=56 velocity=79 time=0
EXTRACT: note_off channel=0 note=70 velocity=63 time=0.14423075
EXTRACT: note_off channel=0 note=65 velocity=63 time=0
EXTRACT: note_off channel=0 note=62 velocity=63 time=0
EXTRACT: note_off channel=0 note=58 velocity=63 time=0
EXTRACT: note_off channel=0 note=53 velocity=63 time=0
EXTRACT: note_off channel=0 note=46 velocity=63 time=0
EXTRACT: note_on channel=0 note=70 velocity=63 time=0
EXTRACT: note_on channel=0 note=65 velocity=63 time=0
EXTRACT: note_on channel=0 note=62 velocity=63 time=0
EXTRACT: note_on channel=0 note=58 velocity=63 time=0
EXTRACT: note_on channel=0 note=53 velocity=63 time=0
EXTRACT: note_on channel=0 note=46 velocity=63 time=0
EXTRACT: note_off channel=4 note=58 velocity=95 time=0
EXTRACT: note_on channel=4 note=56 velocity=95 time=0
EXTRACT: note_off channel=0 note=70 velocity=63 time=0.14423075
EXTRACT: note_off channel=0 note=65 velocity=63 time=0
EXTRACT: note_off channel=0 note=62 velocity=63 time=0
EXTRACT: note_off channel=0 note=58 velocity=63 time=0
EXTRACT: note_off channel=0 note=53 velocity=63 time=0
EXTRACT: note_off channel=0 note=46 velocity=63 time=0
EXTRACT: note_on channel=0 note=64 velocity=63 time=0
EXTRACT: note_on channel=0 note=59 velocity=63 time=0
EXTRACT: note_on channel=0 note=55 velocity=63 time=0
EXTRACT: note_on channel=0 note=50 velocity=63 time=0
EXTRACT: note_on channel=0 note=45 velocity=63 time=0
EXTRACT: note_on channel=0 note=40 velocity=63 time=0
EXTRACT: note_off channel=2 note=56 velocity=79 time=0
EXTRACT: note_on channel=2 note=70 velocity=79 time=0
EXTRACT: note_on channel=2 note=65 velocity=79 time=0
EXTRACT: note_on channel=2 note=62 velocity=79 time=0
EXTRACT: note_off channel=4 note=56 velocity=95 time=0
EXTRACT: note_on channel=4 note=53 velocity=95 time=0
EXTRACT: note_off channel=0 note=64 velocity=63 time=0.031249995833333332
EXTRACT: note_off channel=0 note=59 velocity=63 time=0
EXTRACT: note_off channel=0 note=55 velocity=63 time=0
EXTRACT: note_off channel=0 note=50 velocity=63 time=0
EXTRACT: note_off channel=0 note=45 velocity=63 time=0
EXTRACT: note_off channel=0 note=40 velocity=63 time=0
EXTRACT: note_on channel=0 note=64 velocity=63 time=0.11298075416666667
EXTRACT: note_on channel=0 note=59 velocity=63 time=0
EXTRACT: note_on channel=0 note=55 velocity=63 time=0
EXTRACT: note_on channel=0 note=50 velocity=63 time=0
EXTRACT: note_on channel=0 note=45 velocity=63 time=0
EXTRACT: note_on channel=0 note=40 velocity=63 time=0
EXTRACT: note_off channel=2 note=70 velocity=79 time=0
EXTRACT: note_off channel=2 note=65 velocity=79 time=0
EXTRACT: note_off channel=2 note=62 velocity=79 time=0
EXTRACT: note_off channel=0 note=64 velocity=63 time=0.031249995833333332
EXTRACT: note_off channel=0 note=59 velocity=63 time=0
EXTRACT: note_off channel=0 note=55 velocity=63 time=0
EXTRACT: note_off channel=0 note=50 velocity=63 time=0
EXTRACT: note_off channel=0 note=45 velocity=63 time=0
EXTRACT: note_off channel=0 note=40 velocity=63 time=0
EXTRACT: note_on channel=0 note=70 velocity=63 time=0.11298075416666667
EXTRACT: note_on channel=0 note=65 velocity=63 time=0
EXTRACT: note_on channel=0 note=62 velocity=63 time=0
EXTRACT: note_on channel=0 note=58 velocity=63 time=0
EXTRACT: note_on channel=0 note=53 velocity=63 time=0
EXTRACT: note_on channel=0 note=46 velocity=63 time=0
EXTRACT: note_off channel=4 note=53 velocity=95 time=0
EXTRACT: note_off channel=0 note=70 velocity=63 time=0.14423075
EXTRACT: note_off channel=0 note=65 velocity=63 time=0
EXTRACT: note_off channel=0 note=62 velocity=63 time=0
EXTRACT: note_off channel=0 note=58 velocity=63 time=0
EXTRACT: note_off channel=0 note=53 velocity=63 time=0
EXTRACT: note_off channel=0 note=46 velocity=63 time=0
EXTRACT: note_on channel=0 note=70 velocity=63 time=0
EXTRACT: note_on channel=0 note=65 velocity=63 time=0
EXTRACT: note_on channel=0 note=62 velocity=63 time=0
EXTRACT: note_on channel=0 note=58 velocity=63 time=0
EXTRACT: note_on channel=0 note=53 velocity=63 time=0
EXTRACT: note_on channel=0 note=46 velocity=63 time=0
EXTRACT: note_off channel=0 note=70 velocity=63 time=0.14423075
EXTRACT: note_off channel=0 note=65 velocity=63 time=0
EXTRACT: note_off channel=0 note=62 velocity=63 time=0
EXTRACT: note_off channel=0 note=58 velocity=63 time=0
EXTRACT: note_off channel=0 note=53 velocity=63 time=0
EXTRACT: note_off channel=0 note=46 velocity=63 time=0
EXTRACT: note_on channel=0 note=64 velocity=63 time=0
EXTRACT: note_on channel=0 note=59 velocity=63 time=0
EXTRACT: note_on channel=0 note=55 velocity=63 time=0
EXTRACT: note_on channel=0 note=50 velocity=63 time=0
EXTRACT: note_on channel=0 note=45 velocity=63 time=0
EXTRACT: note_on channel=0 note=40 velocity=63 time=0
EXTRACT: note_on channel=2 note=58 velocity=79 time=0
EXTRACT: note_off channel=0 note=64 velocity=63 time=0.031249995833333332
EXTRACT: note_off channel=0 note=59 velocity=63 time=0
EXTRACT: note_off channel=0 note=55 velocity=63 time=0
EXTRACT: note_off channel=0 note=50 velocity=63 time=0
EXTRACT: note_off channel=0 note=45 velocity=63 time=0
EXTRACT: note_off channel=0 note=40 velocity=63 time=0
EXTRACT: note_on channel=0 note=64 velocity=63 time=0.11298075416666667
EXTRACT: note_on channel=0 note=59 velocity=63 time=0
EXTRACT: note_on channel=0 note=55 velocity=63 time=0
EXTRACT: note_on channel=0 note=50 velocity=63 time=0
EXTRACT: note_on channel=0 note=45 velocity=63 time=0
EXTRACT: note_on channel=0 note=40 velocity=63 time=0
EXTRACT: note_off channel=0 note=64 velocity=63 time=0.031249995833333332
EXTRACT: note_off channel=0 note=59 velocity=63 time=0
EXTRACT: note_off channel=0 note=55 velocity=63 time=0
EXTRACT: note_off channel=0 note=50 velocity=63 time=0
EXTRACT: note_off channel=0 note=45 velocity=63 time=0
EXTRACT: note_off channel=0 note=40 velocity=63 time=0
EXTRACT: note_on channel=0 note=70 velocity=63 time=0.11298075416666667
EXTRACT: note_on channel=0 note=65 velocity=63 time=0
EXTRACT: note_on channel=0 note=62 velocity=63 time=0
EXTRACT: note_on channel=0 note=58 velocity=63 time=0
EXTRACT: note_on channel=0 note=53 velocity=63 time=0
EXTRACT: note_on channel=0 note=46 velocity=63 time=0
EXTRACT: note_off channel=2 note=58 velocity=79 time=0
EXTRACT: note_off channel=0 note=70 velocity=63 time=0.14423075
EXTRACT: note_off channel=0 note=65 velocity=63 time=0
EXTRACT: note_off channel=0 note=62 velocity=63 time=0
EXTRACT: note_off channel=0 note=58 velocity=63 time=0
EXTRACT: note_off channel=0 note=53 velocity=63 time=0
EXTRACT: note_off channel=0 note=46 velocity=63 time=0
EXTRACT: note_on channel=0 note=70 velocity=63 time=0
EXTRACT: note_on channel=0 note=65 velocity=63 time=0
EXTRACT: note_on channel=0 note=62 velocity=63 time=0
EXTRACT: note_on channel=0 note=58 velocity=63 time=0
EXTRACT: note_on channel=0 note=53 velocity=63 time=0
EXTRACT: note_on channel=0 note=46 velocity=63 time=0
EXTRACT: note_off channel=0 note=70 velocity=63 time=0.14423075
EXTRACT: note_off channel=0 note=65 velocity=63 time=0
EXTRACT: note_off channel=0 note=62 velocity=63 time=0
EXTRACT: note_off channel=0 note=58 velocity=63 time=0
EXTRACT: note_off channel=0 note=53 velocity=63 time=0
EXTRACT: note_off channel=0 note=46 velocity=63 time=0
EXTRACT: note_on channel=0 note=64 velocity=63 time=0
EXTRACT: note_on channel=0 note=59 velocity=63 time=0
EXTRACT: note_on channel=0 note=55 velocity=63 time=0
EXTRACT: note_on channel=0 note=50 velocity=63 time=0
EXTRACT: note_on channel=0 note=45 velocity=63 time=0
EXTRACT: note_on channel=0 note=40 velocity=63 time=0
EXTRACT: note_on channel=4 note=58 velocity=95 time=0
EXTRACT: note_off channel=0 note=64 velocity=63 time=0.031249995833333332
EXTRACT: note_off channel=0 note=59 velocity=63 time=0
EXTRACT: note_off channel=0 note=55 velocity=63 time=0
EXTRACT: note_off channel=0 note=50 velocity=63 time=0
EXTRACT: note_off channel=0 note=45 velocity=63 time=0
EXTRACT: note_off channel=0 note=40 velocity=63 time=0
EXTRACT: note_on channel=0 note=64 velocity=63 time=0.11298075416666667
EXTRACT: note_on channel=0 note=59 velocity=63 time=0
EXTRACT: note_on channel=0 note=55 velocity=63 time=0
EXTRACT: note_on channel=0 note=50 velocity=63 time=0
EXTRACT: note_on channel=0 note=45 velocity=63 time=0
EXTRACT: note_on channel=0 note=40 velocity=63 time=0
EXTRACT: note_on channel=2 note=56 velocity=79 time=0
EXTRACT: note_off channel=4 note=58 velocity=95 time=0
EXTRACT: note_on channel=4 note=56 velocity=95 time=0
EXTRACT: note_off channel=0 note=64 velocity=63 time=0.031249995833333332
EXTRACT: note_off channel=0 note=59 velocity=63 time=0
EXTRACT: note_off channel=0 note=55 velocity=63 time=0
EXTRACT: note_off channel=0 note=50 velocity=63 time=0
EXTRACT: note_off channel=0 note=45 velocity=63 time=0
EXTRACT: note_off channel=0 note=40 velocity=63 time=0
EXTRACT: note_on channel=0 note=70 velocity=63 time=0.11298075416666667
EXTRACT: note_on channel=0 note=65 velocity=63 time=0
EXTRACT: note_on channel=0 note=62 velocity=63 time=0
EXTRACT: note_on channel=0 note=58 velocity=63 time=0
EXTRACT: note_on channel=0 note=53 velocity=63 time=0
EXTRACT: note_on channel=0 note=46 velocity=63 time=0
EXTRACT: note_off channel=2 note=56 velocity=79 time=0
EXTRACT: note_off channel=4 note=56 velocity=95 time=0
EXTRACT: note_on channel=4 note=58 velocity=95 time=0
EXTRACT: note_off channel=0 note=70 velocity=63 time=0.14423075
EXTRACT: note_off channel=0 note=65 velocity=63 time=0
EXTRACT: note_off channel=0 note=62 velocity=63 time=0
EXTRACT: note_off channel=0 note=58 velocity=63 time=0
EXTRACT: note_off channel=0 note=53 velocity=63 time=0
EXTRACT: note_off channel=0 note=46 velocity=63 time=0
EXTRACT: note_on channel=0 note=70 velocity=63 time=0
EXTRACT: note_on channel=0 note=65 velocity=63 time=0
EXTRACT: note_on channel=0 note=62 velocity=63 time=0
EXTRACT: note_on channel=0 note=58 velocity=63 time=0
EXTRACT: note_on channel=0 note=53 velocity=63 time=0
EXTRACT: note_on channel=0 note=46 velocity=63 time=0
EXTRACT: note_on channel=2 note=56 velocity=79 time=0
EXTRACT: note_off channel=0 note=70 velocity=63 time=0.14423075
EXTRACT: note_off channel=0 note=65 velocity=63 time=0
EXTRACT: note_off channel=0 note=62 velocity=63 time=0
EXTRACT: note_off channel=0 note=58 velocity=63 time=0
EXTRACT: note_off channel=0 note=53 velocity=63 time=0
EXTRACT: note_off channel=0 note=46 velocity=63 time=0
EXTRACT: note_on channel=0 note=64 velocity=63 time=0
EXTRACT: note_on channel=0 note=59 velocity=63 time=0
EXTRACT: note_on channel=0 note=55 velocity=63 time=0
EXTRACT: note_on channel=0 note=50 velocity=63 time=0
EXTRACT: note_on channel=0 note=45 velocity=63 time=0
EXTRACT: note_on channel=0 note=40 velocity=63 time=0
EXTRACT: note_off channel=2 note=56 velocity=79 time=0
EXTRACT: note_off channel=4 note=58 velocity=95 time=0
EXTRACT: note_on channel=4 note=56 velocity=95 time=0
EXTRACT: note_off channel=0 note=64 velocity=63 time=0.031249995833333332
EXTRACT: note_off channel=0 note=59 velocity=63 time=0
EXTRACT: note_off channel=0 note=55 velocity=63 time=0
EXTRACT: note_off channel=0 note=50 velocity=63 time=0
EXTRACT: note_off channel=0 note=45 velocity=63 time=0
EXTRACT: note_off channel=0 note=40 velocity=63 time=0
EXTRACT: note_on channel=0 note=64 velocity=63 time=0.11298075416666667
EXTRACT: note_on channel=0 note=59 velocity=63 time=0
EXTRACT: note_on channel=0 note=55 velocity=63 time=0
EXTRACT: note_on channel=0 note=50 velocity=63 time=0
EXTRACT: note_on channel=0 note=45 velocity=63 time=0
EXTRACT: note_on channel=0 note=40 velocity=63 time=0
EXTRACT: note_on channel=2 note=50 velocity=79 time=0
EXTRACT: note_off channel=4 note=56 velocity=95 time=0
EXTRACT: note_on channel=4 note=58 velocity=95 time=0
EXTRACT: note_off channel=0 note=64 velocity=63 time=0.031249995833333332
EXTRACT: note_off channel=0 note=59 velocity=63 time=0
EXTRACT: note_off channel=0 note=55 velocity=63 time=0
EXTRACT: note_off channel=0 note=50 velocity=63 time=0
EXTRACT: note_off channel=0 note=45 velocity=63 time=0
EXTRACT: note_off channel=0 note=40 velocity=63 time=0
EXTRACT: note_on channel=0 note=70 velocity=63 time=0.11298075416666667
EXTRACT: note_on channel=0 note=65 velocity=63 time=0
EXTRACT: note_on channel=0 note=62 velocity=63 time=0
EXTRACT: note_on channel=0 note=58 velocity=63 time=0
EXTRACT: note_on channel=0 note=53 velocity=63 time=0
EXTRACT: note_on channel=0 note=46 velocity=63 time=0
EXTRACT: note_off channel=2 note=50 velocity=79 time=0
EXTRACT: note_on channel=2 note=56 velocity=79 time=0
EXTRACT: note_off channel=0 note=70 velocity=63 time=0.14423075
EXTRACT: note_off channel=0 note=65 velocity=63 time=0
EXTRACT: note_off channel=0 note=62 velocity=63 time=0
EXTRACT: note_off channel=0 note=58 velocity=63 time=0
EXTRACT: note_off channel=0 note=53 velocity=63 time=0
EXTRACT: note_off channel=0 note=46 velocity=63 time=0
EXTRACT: note_on channel=0 note=70 velocity=63 time=0
EXTRACT: note_on channel=0 note=65 velocity=63 time=0
EXTRACT: note_on channel=0 note=62 velocity=63 time=0
EXTRACT: note_on channel=0 note=58 velocity=63 time=0
EXTRACT: note_on channel=0 note=53 velocity=63 time=0
EXTRACT: note_on channel=0 note=46 velocity=63 time=0
EXTRACT: note_off channel=4 note=58 velocity=95 time=0
EXTRACT: note_on channel=4 note=56 velocity=95 time=0
EXTRACT: note_off channel=0 note=70 velocity=63 time=0.14423075
EXTRACT: note_off channel=0 note=65 velocity=63 time=0
EXTRACT: note_off channel=0 note=62 velocity=63 time=0
EXTRACT: note_off channel=0 note=58 velocity=63 time=0
EXTRACT: note_off channel=0 note=53 velocity=63 time=0
EXTRACT: note_off channel=0 note=46 velocity=63 time=0
EXTRACT: note_on channel=0 note=64 velocity=63 time=0
EXTRACT: note_on channel=0 note=59 velocity=63 time=0
EXTRACT: note_on channel=0 note=55 velocity=63 time=0
EXTRACT: note_on channel=0 note=50 velocity=63 time=0
EXTRACT: note_on channel=0 note=45 velocity=63 time=0
EXTRACT: note_on channel=0 note=40 velocity=63 time=0
EXTRACT: note_off channel=2 note=56 velocity=79 time=0
EXTRACT: note_on channel=2 note=58 velocity=79 time=0
EXTRACT: note_off channel=4 note=56 velocity=95 time=0
EXTRACT: note_on channel=4 note=58 velocity=95 time=0
EXTRACT: note_off channel=0 note=64 velocity=63 time=0.031249995833333332
EXTRACT: note_off channel=0 note=59 velocity=63 time=0
EXTRACT: note_off channel=0 note=55 velocity=63 time=0
EXTRACT: note_off channel=0 note=50 velocity=63 time=0
EXTRACT: note_off channel=0 note=45 velocity=63 time=0
EXTRACT: note_off channel=0 note=40 velocity=63 time=0
EXTRACT: note_on channel=0 note=64 velocity=63 time=0.11298075416666667
EXTRACT: note_on channel=0 note=59 velocity=63 time=0
EXTRACT: note_on channel=0 note=55 velocity=63 time=0
EXTRACT: note_on channel=0 note=50 velocity=63 time=0
EXTRACT: note_on channel=0 note=45 velocity=63 time=0
EXTRACT: note_on channel=0 note=40 velocity=63 time=0
EXTRACT: note_off channel=2 note=58 velocity=79 time=0
EXTRACT: note_off channel=4 note=58 velocity=95 time=0
EXTRACT: note_on channel=4 note=56 velocity=95 time=0
EXTRACT: note_off channel=0 note=64 velocity=63 time=0.031249995833333332
EXTRACT: note_off channel=0 note=59 velocity=63 time=0
EXTRACT: note_off channel=0 note=55 velocity=63 time=0
EXTRACT: note_off channel=0 note=50 velocity=63 time=0
EXTRACT: note_off channel=0 note=45 velocity=63 time=0
EXTRACT: note_off channel=0 note=40 velocity=63 time=0
EXTRACT: note_on channel=0 note=72 velocity=63 time=0.11298075416666667
EXTRACT: note_on channel=0 note=68 velocity=63 time=0
EXTRACT: note_on channel=0 note=65 velocity=63 time=0
EXTRACT: note_on channel=0 note=60 velocity=63 time=0
EXTRACT: note_on channel=0 note=53 velocity=63 time=0
EXTRACT: note_on channel=2 note=51 velocity=79 time=0
EXTRACT: note_off channel=4 note=56 velocity=95 time=0
EXTRACT: note_on channel=4 note=53 velocity=95 time=0
EXTRACT: note_off channel=0 note=72 velocity=63 time=0.14423075
EXTRACT: note_off channel=0 note=68 velocity=63 time=0
EXTRACT: note_off channel=0 note=65 velocity=63 time=0
EXTRACT: note_off channel=0 note=60 velocity=63 time=0
EXTRACT: note_off channel=0 note=53 velocity=63 time=0
EXTRACT: note_on channel=0 note=72 velocity=63 time=0
EXTRACT: note_on channel=0 note=68 velocity=63 time=0
EXTRACT: note_on channel=0 note=65 velocity=63 time=0
EXTRACT: note_on channel=0 note=60 velocity=63 time=0
EXTRACT: note_on channel=0 note=53 velocity=63 time=0
EXTRACT: note_off channel=2 note=51 velocity=79 time=0
EXTRACT: note_on channel=2 note=53 velocity=54 time=0
EXTRACT: note_off channel=0 note=72 velocity=63 time=0.14423075
EXTRACT: note_off channel=0 note=68 velocity=63 time=0
EXTRACT: note_off channel=0 note=65 velocity=63 time=0
EXTRACT: note_off channel=0 note=60 velocity=63 time=0
EXTRACT: note_off channel=0 note=53 velocity=63 time=0
EXTRACT: note_on channel=0 note=64 velocity=63 time=0
EXTRACT: note_on channel=0 note=59 velocity=63 time=0
EXTRACT: note_on channel=0 note=55 velocity=63 time=0
EXTRACT: note_on channel=0 note=50 velocity=63 time=0
EXTRACT: note_on channel=0 note=45 velocity=63 time=0
EXTRACT: note_off channel=4 note=53 velocity=95 time=0
EXTRACT: note_off channel=0 note=64 velocity=63 time=0.031249995833333332
EXTRACT: note_off channel=0 note=59 velocity=63 time=0
EXTRACT: note_off channel=0 note=55 velocity=63 time=0
EXTRACT: note_off channel=0 note=50 velocity=63 time=0
EXTRACT: note_off channel=0 note=45 velocity=63 time=0
EXTRACT: note_on channel=0 note=64 velocity=63 time=0.11298075416666667
EXTRACT: note_on channel=0 note=59 velocity=63 time=0
EXTRACT: note_on channel=0 note=55 velocity=63 time=0
EXTRACT: note_on channel=0 note=50 velocity=63 time=0
EXTRACT: note_on channel=0 note=45 velocity=63 time=0
EXTRACT: note_off channel=2 note=53 velocity=54 time=0
EXTRACT: note_on channel=2 note=56 velocity=79 time=0
EXTRACT: note_off channel=0 note=64 velocity=63 time=0.031249995833333332
EXTRACT: note_off channel=0 note=59 velocity=63 time=0
EXTRACT: note_off channel=0 note=55 velocity=63 time=0
EXTRACT: note_off channel=0 note=50 velocity=63 time=0
EXTRACT: note_off channel=0 note=45 velocity=63 time=0
EXTRACT: note_on channel=0 note=72 velocity=63 time=0.11298075416666667
EXTRACT: note_on channel=0 note=68 velocity=63 time=0
EXTRACT: note_on channel=0 note=65 velocity=63 time=0
EXTRACT: note_on channel=0 note=60 velocity=63 time=0
EXTRACT: note_on channel=0 note=53 velocity=63 time=0
EXTRACT: note_off channel=2 note=56 velocity=79 time=0
EXTRACT: note_off channel=0 note=72 velocity=63 time=0.14423075
EXTRACT: note_off channel=0 note=68 velocity=63 time=0
EXTRACT: note_off channel=0 note=65 velocity=63 time=0
EXTRACT: note_off channel=0 note=60 velocity=63 time=0
EXTRACT: note_off channel=0 note=53 velocity=63 time=0
EXTRACT: note_on channel=0 note=72 velocity=63 time=0
EXTRACT: note_on channel=0 note=68 velocity=63 time=0
EXTRACT: note_on channel=0 note=65 velocity=63 time=0
EXTRACT: note_on channel=0 note=60 velocity=63 time=0
EXTRACT: note_on channel=0 note=53 velocity=63 time=0
EXTRACT: note_off channel=0 note=72 velocity=63 time=0.14423075
EXTRACT: note_off channel=0 note=68 velocity=63 time=0
EXTRACT: note_off channel=0 note=65 velocity=63 time=0
EXTRACT: note_off channel=0 note=60 velocity=63 time=0
EXTRACT: note_off channel=0 note=53 velocity=63 time=0
EXTRACT: note_on channel=0 note=64 velocity=63 time=0
EXTRACT: note_on channel=0 note=59 velocity=63 time=0
EXTRACT: note_on channel=0 note=55 velocity=63 time=0
EXTRACT: note_on channel=0 note=50 velocity=63 time=0
EXTRACT: note_on channel=0 note=45 velocity=63 time=0
EXTRACT: note_on channel=2 note=51 velocity=79 time=0
EXTRACT: note_off channel=0 note=64 velocity=63 time=0.031249995833333332
EXTRACT: note_off channel=0 note=59 velocity=63 time=0
EXTRACT: note_off channel=0 note=55 velocity=63 time=0
EXTRACT: note_off channel=0 note=50 velocity=63 time=0
EXTRACT: note_off channel=0 note=45 velocity=63 time=0
EXTRACT: note_on channel=0 note=64 velocity=63 time=0.11298075416666667
EXTRACT: note_on channel=0 note=59 velocity=63 time=0
EXTRACT: note_on channel=0 note=55 velocity=63 time=0
EXTRACT: note_on channel=0 note=50 velocity=63 time=0
EXTRACT: note_on channel=0 note=45 velocity=63 time=0
EXTRACT: note_off channel=0 note=64 velocity=63 time=0.031249995833333332
EXTRACT: note_off channel=0 note=59 velocity=63 time=0
EXTRACT: note_off channel=0 note=55 velocity=63 time=0
EXTRACT: note_off channel=0 note=50 velocity=63 time=0
EXTRACT: note_off channel=0 note=45 velocity=63 time=0
EXTRACT: note_on channel=0 note=72 velocity=63 time=0.11298075416666667
EXTRACT: note_on channel=0 note=68 velocity=63 time=0
EXTRACT: note_on channel=0 note=65 velocity=63 time=0
EXTRACT: note_on channel=0 note=60 velocity=63 time=0
EXTRACT: note_on channel=0 note=53 velocity=63 time=0
EXTRACT: note_off channel=2 note=51 velocity=79 time=0
EXTRACT: note_off channel=0 note=72 velocity=63 time=0.14423075
EXTRACT: note_off channel=0 note=68 velocity=63 time=0
EXTRACT: note_off channel=0 note=65 velocity=63 time=0
EXTRACT: note_off channel=0 note=60 velocity=63 time=0
EXTRACT: note_off channel=0 note=53 velocity=63 time=0
EXTRACT: note_on channel=0 note=72 velocity=63 time=0
EXTRACT: note_on channel=0 note=68 velocity=63 time=0
EXTRACT: note_on channel=0 note=65 velocity=63 time=0
EXTRACT: note_on channel=0 note=60 velocity=63 time=0
EXTRACT: note_on channel=0 note=53 velocity=63 time=0
EXTRACT: note_off channel=0 note=72 velocity=63 time=0.14423075
EXTRACT: note_off channel=0 note=68 velocity=63 time=0
EXTRACT: note_off channel=0 note=65 velocity=63 time=0
EXTRACT: note_off channel=0 note=60 velocity=63 time=0
EXTRACT: note_off channel=0 note=53 velocity=63 time=0
EXTRACT: note_on channel=0 note=64 velocity=63 time=0
EXTRACT: note_on channel=0 note=59 velocity=63 time=0
EXTRACT: note_on channel=0 note=55 velocity=63 time=0
EXTRACT: note_on channel=0 note=50 velocity=63 time=0
EXTRACT: note_on channel=0 note=45 velocity=63 time=0
EXTRACT: note_on channel=2 note=48 velocity=79 time=0
EXTRACT: note_off channel=0 note=64 velocity=63 time=0.031249995833333332
EXTRACT: note_off channel=0 note=59 velocity=63 time=0
EXTRACT: note_off channel=0 note=55 velocity=63 time=0
EXTRACT: note_off channel=0 note=50 velocity=63 time=0
EXTRACT: note_off channel=0 note=45 velocity=63 time=0
EXTRACT: note_on channel=0 note=64 velocity=63 time=0.11298075416666667
EXTRACT: note_on channel=0 note=59 velocity=63 time=0
EXTRACT: note_on channel=0 note=55 velocity=63 time=0
EXTRACT: note_on channel=0 note=50 velocity=63 time=0
EXTRACT: note_on channel=0 note=45 velocity=63 time=0
EXTRACT: note_off channel=0 note=64 velocity=63 time=0.031249995833333332
EXTRACT: note_off channel=0 note=59 velocity=63 time=0
EXTRACT: note_off channel=0 note=55 velocity=63 time=0
EXTRACT: note_off channel=0 note=50 velocity=63 time=0
EXTRACT: note_off channel=0 note=45 velocity=63 time=0
EXTRACT: note_on channel=0 note=72 velocity=63 time=0.11298075416666667
EXTRACT: note_on channel=0 note=68 velocity=63 time=0
EXTRACT: note_on channel=0 note=65 velocity=63 time=0
EXTRACT: note_on channel=0 note=60 velocity=63 time=0
EXTRACT: note_on channel=0 note=53 velocity=63 time=0
EXTRACT: note_off channel=2 note=48 velocity=79 time=0
EXTRACT: note_on channel=2 note=46 velocity=79 time=0
EXTRACT: note_on channel=4 note=48 velocity=95 time=0
EXTRACT: note_off channel=0 note=72 velocity=63 time=0.14423075
EXTRACT: note_off channel=0 note=68 velocity=63 time=0
EXTRACT: note_off channel=0 note=65 velocity=63 time=0
EXTRACT: note_off channel=0 note=60 velocity=63 time=0
EXTRACT: note_off channel=0 note=53 velocity=63 time=0
EXTRACT: note_on channel=0 note=72 velocity=63 time=0
EXTRACT: note_on channel=0 note=68 velocity=63 time=0
EXTRACT: note_on channel=0 note=65 velocity=63 time=0
EXTRACT: note_on channel=0 note=60 velocity=63 time=0
EXTRACT: note_on channel=0 note=53 velocity=63 time=0
EXTRACT: note_off channel=2 note=46 velocity=79 time=0
EXTRACT: note_on channel=2 note=48 velocity=54 time=0
EXTRACT: note_off channel=0 note=72 velocity=63 time=0.14423075
EXTRACT: note_off channel=0 note=68 velocity=63 time=0
EXTRACT: note_off channel=0 note=65 velocity=63 time=0
EXTRACT: note_off channel=0 note=60 velocity=63 time=0
EXTRACT: note_off channel=0 note=53 velocity=63 time=0
EXTRACT: note_on channel=0 note=64 velocity=63 time=0
EXTRACT: note_on channel=0 note=59 velocity=63 time=0
EXTRACT: note_on channel=0 note=55 velocity=63 time=0
EXTRACT: note_on channel=0 note=50 velocity=63 time=0
EXTRACT: note_on channel=0 note=45 velocity=63 time=0
EXTRACT: note_off channel=2 note=48 velocity=54 time=0
EXTRACT: note_on channel=2 note=51 velocity=79 time=0
EXTRACT: note_off channel=4 note=48 velocity=95 time=0
EXTRACT: note_off channel=0 note=64 velocity=63 time=0.031249995833333332
EXTRACT: note_off channel=0 note=59 velocity=63 time=0
EXTRACT: note_off channel=0 note=55 velocity=63 time=0
EXTRACT: note_off channel=0 note=50 velocity=63 time=0
EXTRACT: note_off channel=0 note=45 velocity=63 time=0
EXTRACT: note_on channel=0 note=64 velocity=63 time=0.11298075416666667
EXTRACT: note_on channel=0 note=59 velocity=63 time=0
EXTRACT: note_on channel=0 note=55 velocity=63 time=0
EXTRACT: note_on channel=0 note=50 velocity=63 time=0
EXTRACT: note_on channel=0 note=45 velocity=63 time=0
EXTRACT: note_off channel=0 note=64 velocity=63 time=0.031249995833333332
EXTRACT: note_off channel=0 note=59 velocity=63 time=0
EXTRACT: note_off channel=0 note=55 velocity=63 time=0
EXTRACT: note_off channel=0 note=50 velocity=63 time=0
EXTRACT: note_off channel=0 note=45 velocity=63 time=0
EXTRACT: note_on channel=0 note=72 velocity=63 time=0.11298075416666667
EXTRACT: note_on channel=0 note=68 velocity=63 time=0
EXTRACT: note_on channel=0 note=65 velocity=63 time=0
EXTRACT: note_on channel=0 note=60 velocity=63 time=0
EXTRACT: note_on channel=0 note=53 velocity=63 time=0
EXTRACT: note_off channel=2 note=51 velocity=79 time=0
EXTRACT: note_on channel=2 note=46 velocity=79 time=0
EXTRACT: note_off channel=0 note=72 velocity=63 time=0.14423075
EXTRACT: note_off channel=0 note=68 velocity=63 time=0
EXTRACT: note_off channel=0 note=65 velocity=63 time=0
EXTRACT: note_off channel=0 note=60 velocity=63 time=0
EXTRACT: note_off channel=0 note=53 velocity=63 time=0
EXTRACT: note_on channel=0 note=72 velocity=63 time=0
EXTRACT: note_on channel=0 note=68 velocity=63 time=0
EXTRACT: note_on channel=0 note=65 velocity=63 time=0
EXTRACT: note_on channel=0 note=60 velocity=63 time=0
EXTRACT: note_on channel=0 note=53 velocity=63 time=0
EXTRACT: note_off channel=2 note=46 velocity=79 time=0
EXTRACT: note_on channel=2 note=48 velocity=54 time=0
EXTRACT: note_off channel=0 note=72 velocity=63 time=0.14423075
EXTRACT: note_off channel=0 note=68 velocity=63 time=0
EXTRACT: note_off channel=0 note=65 velocity=63 time=0
EXTRACT: note_off channel=0 note=60 velocity=63 time=0
EXTRACT: note_off channel=0 note=53 velocity=63 time=0
EXTRACT: note_on channel=0 note=64 velocity=63 time=0
EXTRACT: note_on channel=0 note=59 velocity=63 time=0
EXTRACT: note_on channel=0 note=55 velocity=63 time=0
EXTRACT: note_on channel=0 note=50 velocity=63 time=0
EXTRACT: note_on channel=0 note=45 velocity=63 time=0
EXTRACT: note_off channel=2 note=48 velocity=54 time=0
EXTRACT: note_on channel=2 note=51 velocity=79 time=0
EXTRACT: note_off channel=0 note=64 velocity=63 time=0.031249995833333332
EXTRACT: note_off channel=0 note=59 velocity=63 time=0
EXTRACT: note_off channel=0 note=55 velocity=63 time=0
EXTRACT: note_off channel=0 note=50 velocity=63 time=0
EXTRACT: note_off channel=0 note=45 velocity=63 time=0
EXTRACT: note_on channel=0 note=64 velocity=63 time=0.11298075416666667
EXTRACT: note_on channel=0 note=59 velocity=63 time=0
EXTRACT: note_on channel=0 note=55 velocity=63 time=0
EXTRACT: note_on channel=0 note=50 velocity=63 time=0
EXTRACT: note_on channel=0 note=45 velocity=63 time=0
EXTRACT: note_off channel=0 note=64 velocity=63 time=0.031249995833333332
EXTRACT: note_off channel=0 note=59 velocity=63 time=0
EXTRACT: note_off channel=0 note=55 velocity=63 time=0
EXTRACT: note_off channel=0 note=50 velocity=63 time=0
EXTRACT: note_off channel=0 note=45 velocity=63 time=0
EXTRACT: note_on channel=0 note=72 velocity=63 time=0.11298075416666667
EXTRACT: note_on channel=0 note=68 velocity=63 time=0
EXTRACT: note_on channel=0 note=65 velocity=63 time=0
EXTRACT: note_on channel=0 note=60 velocity=63 time=0
EXTRACT: note_on channel=0 note=53 velocity=63 time=0
EXTRACT: note_off channel=2 note=51 velocity=79 time=0
EXTRACT: note_off channel=0 note=72 velocity=63 time=0.14423075
EXTRACT: note_off channel=0 note=68 velocity=63 time=0
EXTRACT: note_off channel=0 note=65 velocity=63 time=0
EXTRACT: note_off channel=0 note=60 velocity=63 time=0
EXTRACT: note_off channel=0 note=53 velocity=63 time=0
EXTRACT: note_on channel=0 note=72 velocity=63 time=0
EXTRACT: note_on channel=0 note=68 velocity=63 time=0
EXTRACT: note_on channel=0 note=65 velocity=63 time=0
EXTRACT: note_on channel=0 note=60 velocity=63 time=0
EXTRACT: note_on channel=0 note=53 velocity=63 time=0
EXTRACT: note_on channel=2 note=45 velocity=79 time=0
EXTRACT: note_off channel=2 note=45 velocity=79 time=0.031249995833333332
EXTRACT: note_off channel=0 note=72 velocity=63 time=0.11298075416666667
EXTRACT: note_off channel=0 note=68 velocity=63 time=0
EXTRACT: note_off channel=0 note=65 velocity=63 time=0
EXTRACT: note_off channel=0 note=60 velocity=63 time=0
EXTRACT: note_off channel=0 note=53 velocity=63 time=0
EXTRACT: note_on channel=0 note=64 velocity=63 time=0
EXTRACT: note_on channel=0 note=59 velocity=63 time=0
EXTRACT: note_on channel=0 note=55 velocity=63 time=0
EXTRACT: note_on channel=0 note=50 velocity=63 time=0
EXTRACT: note_on channel=0 note=45 velocity=63 time=0
EXTRACT: note_on channel=2 note=46 velocity=79 time=0
EXTRACT: note_off channel=0 note=64 velocity=63 time=0.031249995833333332
EXTRACT: note_off channel=0 note=59 velocity=63 time=0
EXTRACT: note_off channel=0 note=55 velocity=63 time=0
EXTRACT: note_off channel=0 note=50 velocity=63 time=0
EXTRACT: note_off channel=0 note=45 velocity=63 time=0
EXTRACT: note_on channel=0 note=64 velocity=63 time=0.11298075416666667
EXTRACT: note_on channel=0 note=59 velocity=63 time=0
EXTRACT: note_on channel=0 note=55 velocity=63 time=0
EXTRACT: note_on channel=0 note=50 velocity=63 time=0
EXTRACT: note_on channel=0 note=45 velocity=63 time=0
EXTRACT: note_off channel=0 note=64 velocity=63 time=0.031249995833333332
EXTRACT: note_off channel=0 note=59 velocity=63 time=0
EXTRACT: note_off channel=0 note=55 velocity=63 time=0
EXTRACT: note_off channel=0 note=50 velocity=63 time=0
EXTRACT: note_off channel=0 note=45 velocity=63 time=0
EXTRACT: note_on channel=0 note=72 velocity=63 time=0.11298075416666667
EXTRACT: note_on channel=0 note=68 velocity=63 time=0
EXTRACT: note_on channel=0 note=65 velocity=63 time=0
EXTRACT: note_on channel=0 note=60 velocity=63 time=0
EXTRACT: note_on channel=0 note=53 velocity=63 time=0
EXTRACT: note_off channel=2 note=46 velocity=79 time=0
EXTRACT: note_on channel=2 note=48 velocity=79 time=0
EXTRACT: note_off channel=0 note=72 velocity=63 time=0.14423075
EXTRACT: note_off channel=0 note=68 velocity=63 time=0
EXTRACT: note_off channel=0 note=65 velocity=63 time=0
EXTRACT: note_off channel=0 note=60 velocity=63 time=0
EXTRACT: note_off channel=0 note=53 velocity=63 time=0
EXTRACT: note_on channel=0 note=72 velocity=63 time=0
EXTRACT: note_on channel=0 note=68 velocity=63 time=0
EXTRACT: note_on channel=0 note=65 velocity=63 time=0
EXTRACT: note_on channel=0 note=60 velocity=63 time=0
EXTRACT: note_on channel=0 note=53 velocity=63 time=0
EXTRACT: note_off channel=0 note=72 velocity=63 time=0.14423075
EXTRACT: note_off channel=0 note=68 velocity=63 time=0
EXTRACT: note_off channel=0 note=65 velocity=63 time=0
EXTRACT: note_off channel=0 note=60 velocity=63 time=0
EXTRACT: note_off channel=0 note=53 velocity=63 time=0
EXTRACT: note_on channel=0 note=64 velocity=63 time=0
EXTRACT: note_on channel=0 note=59 velocity=63 time=0
EXTRACT: note_on channel=0 note=55 velocity=63 time=0
EXTRACT: note_on channel=0 note=50 velocity=63 time=0
EXTRACT: note_on channel=0 note=45 velocity=63 time=0
EXTRACT: note_off channel=2 note=48 velocity=79 time=0
EXTRACT: note_on channel=2 note=51 velocity=79 time=0
EXTRACT: note_off channel=0 note=64 velocity=63 time=0.031249995833333332
EXTRACT: note_off channel=0 note=59 velocity=63 time=0
EXTRACT: note_off channel=0 note=55 velocity=63 time=0
EXTRACT: note_off channel=0 note=50 velocity=63 time=0
EXTRACT: note_off channel=0 note=45 velocity=63 time=0
EXTRACT: note_on channel=0 note=64 velocity=63 time=0.11298075416666667
EXTRACT: note_on channel=0 note=59 velocity=63 time=0
EXTRACT: note_on channel=0 note=55 velocity=63 time=0
EXTRACT: note_on channel=0 note=50 velocity=63 time=0
EXTRACT: note_on channel=0 note=45 velocity=63 time=0
EXTRACT: note_off channel=0 note=64 velocity=63 time=0.031249995833333332
EXTRACT: note_off channel=0 note=59 velocity=63 time=0
EXTRACT: note_off channel=0 note=55 velocity=63 time=0
EXTRACT: note_off channel=0 note=50 velocity=63 time=0
EXTRACT: note_off channel=0 note=45 velocity=63 time=0
EXTRACT: note_on channel=0 note=72 velocity=63 time=0.11298075416666667
EXTRACT: note_on channel=0 note=68 velocity=63 time=0
EXTRACT: note_on channel=0 note=65 velocity=63 time=0
EXTRACT: note_on channel=0 note=60 velocity=63 time=0
EXTRACT: note_on channel=0 note=53 velocity=63 time=0
EXTRACT: note_off channel=2 note=51 velocity=79 time=0
EXTRACT: note_on channel=2 note=53 velocity=79 time=0
EXTRACT: note_off channel=0 note=72 velocity=63 time=0.14423075
EXTRACT: note_off channel=0 note=68 velocity=63 time=0
EXTRACT: note_off channel=0 note=65 velocity=63 time=0
EXTRACT: note_off channel=0 note=60 velocity=63 time=0
EXTRACT: note_off channel=0 note=53 velocity=63 time=0
EXTRACT: note_on channel=0 note=72 velocity=63 time=0
EXTRACT: note_on channel=0 note=68 velocity=63 time=0
EXTRACT: note_on channel=0 note=65 velocity=63 time=0
EXTRACT: note_on channel=0 note=60 velocity=63 time=0
EXTRACT: note_on channel=0 note=53 velocity=63 time=0
EXTRACT: note_off channel=0 note=72 velocity=63 time=0.14423075
EXTRACT: note_off channel=0 note=68 velocity=63 time=0
EXTRACT: note_off channel=0 note=65 velocity=63 time=0
EXTRACT: note_off channel=0 note=60 velocity=63 time=0
EXTRACT: note_off channel=0 note=53 velocity=63 time=0
EXTRACT: note_on channel=0 note=64 velocity=63 time=0
EXTRACT: note_on channel=0 note=59 velocity=63 time=0
EXTRACT: note_on channel=0 note=55 velocity=63 time=0
EXTRACT: note_on channel=0 note=50 velocity=63 time=0
EXTRACT: note_on channel=0 note=45 velocity=63 time=0
EXTRACT: note_off channel=2 note=53 velocity=79 time=0
EXTRACT: note_on channel=2 note=56 velocity=79 time=0
EXTRACT: note_off channel=0 note=64 velocity=63 time=0.031249995833333332
EXTRACT: note_off channel=0 note=59 velocity=63 time=0
EXTRACT: note_off channel=0 note=55 velocity=63 time=0
EXTRACT: note_off channel=0 note=50 velocity=63 time=0
EXTRACT: note_off channel=0 note=45 velocity=63 time=0
EXTRACT: note_on channel=0 note=64 velocity=63 time=0.11298075416666667
EXTRACT: note_on channel=0 note=59 velocity=63 time=0
EXTRACT: note_on channel=0 note=55 velocity=63 time=0
EXTRACT: note_on channel=0 note=50 velocity=63 time=0
EXTRACT: note_on channel=0 note=45 velocity=63 time=0
EXTRACT: note_off channel=0 note=64 velocity=63 time=0.031249995833333332
EXTRACT: note_off channel=0 note=59 velocity=63 time=0
EXTRACT: note_off channel=0 note=55 velocity=63 time=0
EXTRACT: note_off channel=0 note=50 velocity=63 time=0
EXTRACT: note_off channel=0 note=45 velocity=63 time=0
EXTRACT: note_on channel=0 note=70 velocity=63 time=0.11298075416666667
EXTRACT: note_on channel=0 note=65 velocity=63 time=0
EXTRACT: note_on channel=0 note=62 velocity=63 time=0
EXTRACT: note_on channel=0 note=58 velocity=63 time=0
EXTRACT: note_on channel=0 note=53 velocity=63 time=0
EXTRACT: note_on channel=0 note=46 velocity=63 time=0
EXTRACT: note_off channel=2 note=56 velocity=79 time=0
EXTRACT: note_on channel=2 note=53 velocity=79 time=0
EXTRACT: note_off channel=0 note=70 velocity=63 time=0.14423075
EXTRACT: note_off channel=0 note=65 velocity=63 time=0
EXTRACT: note_off channel=0 note=62 velocity=63 time=0
EXTRACT: note_off channel=0 note=58 velocity=63 time=0
EXTRACT: note_off channel=0 note=53 velocity=63 time=0
EXTRACT: note_off channel=0 note=46 velocity=63 time=0
EXTRACT: note_on channel=0 note=70 velocity=63 time=0
EXTRACT: note_on channel=0 note=65 velocity=63 time=0
EXTRACT: note_on channel=0 note=62 velocity=63 time=0
EXTRACT: note_on channel=0 note=58 velocity=63 time=0
EXTRACT: note_on channel=0 note=53 velocity=63 time=0
EXTRACT: note_on channel=0 note=46 velocity=63 time=0
EXTRACT: note_off channel=2 note=53 velocity=79 time=0
EXTRACT: note_off channel=0 note=70 velocity=63 time=0.14423075
EXTRACT: note_off channel=0 note=65 velocity=63 time=0
EXTRACT: note_off channel=0 note=62 velocity=63 time=0
EXTRACT: note_off channel=0 note=58 velocity=63 time=0
EXTRACT: note_off channel=0 note=53 velocity=63 time=0
EXTRACT: note_off channel=0 note=46 velocity=63 time=0
EXTRACT: note_on channel=0 note=64 velocity=63 time=0
EXTRACT: note_on channel=0 note=59 velocity=63 time=0
EXTRACT: note_on channel=0 note=55 velocity=63 time=0
EXTRACT: note_on channel=0 note=50 velocity=63 time=0
EXTRACT: note_on channel=0 note=45 velocity=63 time=0
EXTRACT: note_on channel=0 note=40 velocity=63 time=0
EXTRACT: note_on channel=2 note=58 velocity=79 time=0
EXTRACT: note_on channel=4 note=58 velocity=95 time=0
EXTRACT: note_off channel=0 note=64 velocity=63 time=0.031249995833333332
EXTRACT: note_off channel=0 note=59 velocity=63 time=0
EXTRACT: note_off channel=0 note=55 velocity=63 time=0
EXTRACT: note_off channel=0 note=50 velocity=63 time=0
EXTRACT: note_off channel=0 note=45 velocity=63 time=0
EXTRACT: note_off channel=0 note=40 velocity=63 time=0
EXTRACT: note_on channel=0 note=64 velocity=63 time=0.11298075416666667
EXTRACT: note_on channel=0 note=59 velocity=63 time=0
EXTRACT: note_on channel=0 note=55 velocity=63 time=0
EXTRACT: note_on channel=0 note=50 velocity=63 time=0
EXTRACT: note_on channel=0 note=45 velocity=63 time=0
EXTRACT: note_on channel=0 note=40 velocity=63 time=0
EXTRACT: note_off channel=2 note=58 velocity=79 time=0
EXTRACT: note_off channel=0 note=64 velocity=63 time=0.031249995833333332
EXTRACT: note_off channel=0 note=59 velocity=63 time=0
EXTRACT: note_off channel=0 note=55 velocity=63 time=0
EXTRACT: note_off channel=0 note=50 velocity=63 time=0
EXTRACT: note_off channel=0 note=45 velocity=63 time=0
EXTRACT: note_off channel=0 note=40 velocity=63 time=0
EXTRACT: note_on channel=0 note=70 velocity=63 time=0.11298075416666667
EXTRACT: note_on channel=0 note=65 velocity=63 time=0
EXTRACT: note_on channel=0 note=62 velocity=63 time=0
EXTRACT: note_on channel=0 note=58 velocity=63 time=0
EXTRACT: note_on channel=0 note=53 velocity=63 time=0
EXTRACT: note_on channel=0 note=46 velocity=63 time=0
EXTRACT: note_on channel=2 note=70 velocity=79 time=0
EXTRACT: note_on channel=2 note=65 velocity=79 time=0
EXTRACT: note_on channel=2 note=62 velocity=79 time=0
EXTRACT: note_off channel=4 note=58 velocity=95 time=0
EXTRACT: note_on channel=4 note=58 velocity=95 time=0
EXTRACT: note_off channel=0 note=70 velocity=63 time=0.14423075
EXTRACT: note_off channel=0 note=65 velocity=63 time=0
EXTRACT: note_off channel=0 note=62 velocity=63 time=0
EXTRACT: note_off channel=0 note=58 velocity=63 time=0
EXTRACT: note_off channel=0 note=53 velocity=63 time=0
EXTRACT: note_off channel=0 note=46 velocity=63 time=0
EXTRACT: note_on channel=0 note=70 velocity=63 time=0
EXTRACT: note_on channel=0 note=65 velocity=63 time=0
EXTRACT: note_on channel=0 note=62 velocity=63 time=0
EXTRACT: note_on channel=0 note=58 velocity=63 time=0
EXTRACT: note_on channel=0 note=53 velocity=63 time=0
EXTRACT: note_on channel=0 note=46 velocity=63 time=0
EXTRACT: note_off channel=2 note=70 velocity=79 time=0
EXTRACT: note_off channel=2 note=65 velocity=79 time=0
EXTRACT: note_off channel=2 note=62 velocity=79 time=0
EXTRACT: note_off channel=0 note=70 velocity=63 time=0.14423075
EXTRACT: note_off channel=0 note=65 velocity=63 time=0
EXTRACT: note_off channel=0 note=62 velocity=63 time=0
EXTRACT: note_off channel=0 note=58 velocity=63 time=0
EXTRACT: note_off channel=0 note=53 velocity=63 time=0
EXTRACT: note_off channel=0 note=46 velocity=63 time=0
EXTRACT: note_on channel=0 note=64 velocity=63 time=0
EXTRACT: note_on channel=0 note=59 velocity=63 time=0
EXTRACT: note_on channel=0 note=55 velocity=63 time=0
EXTRACT: note_on channel=0 note=50 velocity=63 time=0
EXTRACT: note_on channel=0 note=45 velocity=63 time=0
EXTRACT: note_on channel=0 note=40 velocity=63 time=0
EXTRACT: note_off channel=4 note=58 velocity=95 time=0
EXTRACT: note_on channel=4 note=56 velocity=95 time=0
EXTRACT: note_off channel=0 note=64 velocity=63 time=0.031249995833333332
EXTRACT: note_off channel=0 note=59 velocity=63 time=0
EXTRACT: note_off channel=0 note=55 velocity=63 time=0
EXTRACT: note_off channel=0 note=50 velocity=63 time=0
EXTRACT: note_off channel=0 note=45 velocity=63 time=0
EXTRACT: note_off channel=0 note=40 velocity=63 time=0
EXTRACT: note_on channel=0 note=64 velocity=63 time=0.11298075416666667
EXTRACT: note_on channel=0 note=59 velocity=63 time=0
EXTRACT: note_on channel=0 note=55 velocity=63 time=0
EXTRACT: note_on channel=0 note=50 velocity=63 time=0
EXTRACT: note_on channel=0 note=45 velocity=63 time=0
EXTRACT: note_on channel=0 note=40 velocity=63 time=0
EXTRACT: note_off channel=0 note=64 velocity=63 time=0.031249995833333332
EXTRACT: note_off channel=0 note=59 velocity=63 time=0
EXTRACT: note_off channel=0 note=55 velocity=63 time=0
EXTRACT: note_off channel=0 note=50 velocity=63 time=0
EXTRACT: note_off channel=0 note=45 velocity=63 time=0
EXTRACT: note_off channel=0 note=40 velocity=63 time=0
EXTRACT: note_on channel=5 note=60 velocity=95 time=0.04086537916666667
EXTRACT: note_on channel=0 note=70 velocity=63 time=0.072115375
EXTRACT: note_on channel=0 note=65 velocity=63 time=0
EXTRACT: note_on channel=0 note=62 velocity=63 time=0
EXTRACT: note_on channel=0 note=58 velocity=63 time=0
EXTRACT: note_on channel=0 note=53 velocity=63 time=0
EXTRACT: note_on channel=0 note=46 velocity=63 time=0
EXTRACT: note_off channel=4 note=56 velocity=95 time=0
EXTRACT: note_off channel=5 note=60 velocity=95 time=0
EXTRACT: note_on channel=5 note=60 velocity=95 time=0
EXTRACT: note_off channel=0 note=70 velocity=63 time=0.14423075
EXTRACT: note_off channel=0 note=65 velocity=63 time=0
EXTRACT: note_off channel=0 note=62 velocity=63 time=0
EXTRACT: note_off channel=0 note=58 velocity=63 time=0
EXTRACT: note_off channel=0 note=53 velocity=63 time=0
EXTRACT: note_off channel=0 note=46 velocity=63 time=0
EXTRACT: note_on channel=0 note=70 velocity=63 time=0
EXTRACT: note_on channel=0 note=65 velocity=63 time=0
EXTRACT: note_on channel=0 note=62 velocity=63 time=0
EXTRACT: note_on channel=0 note=58 velocity=63 time=0
EXTRACT: note_on channel=0 note=53 velocity=63 time=0
EXTRACT: note_on channel=0 note=46 velocity=63 time=0
EXTRACT: note_on channel=2 note=56 velocity=79 time=0
EXTRACT: note_off channel=0 note=70 velocity=63 time=0.14423075
EXTRACT: note_off channel=0 note=65 velocity=63 time=0
EXTRACT: note_off channel=0 note=62 velocity=63 time=0
EXTRACT: note_off channel=0 note=58 velocity=63 time=0
EXTRACT: note_off channel=0 note=53 velocity=63 time=0
EXTRACT: note_off channel=0 note=46 velocity=63 time=0
EXTRACT: note_on channel=0 note=64 velocity=63 time=0
EXTRACT: note_on channel=0 note=59 velocity=63 time=0
EXTRACT: note_on channel=0 note=55 velocity=63 time=0
EXTRACT: note_on channel=0 note=50 velocity=63 time=0
EXTRACT: note_on channel=0 note=45 velocity=63 time=0
EXTRACT: note_on channel=0 note=40 velocity=63 time=0
EXTRACT: note_off channel=2 note=56 velocity=79 time=0
EXTRACT: note_off channel=0 note=64 velocity=63 time=0.031249995833333332
EXTRACT: note_off channel=0 note=59 velocity=63 time=0
EXTRACT: note_off channel=0 note=55 velocity=63 time=0
EXTRACT: note_off channel=0 note=50 velocity=63 time=0
EXTRACT: note_off channel=0 note=45 velocity=63 time=0
EXTRACT: note_off channel=0 note=40 velocity=63 time=0
EXTRACT: note_on channel=0 note=64 velocity=63 time=0.11298075416666667
EXTRACT: note_on channel=0 note=59 velocity=63 time=0
EXTRACT: note_on channel=0 note=55 velocity=63 time=0
EXTRACT: note_on channel=0 note=50 velocity=63 time=0
EXTRACT: note_on channel=0 note=45 velocity=63 time=0
EXTRACT: note_on channel=0 note=40 velocity=63 time=0
EXTRACT: note_on channel=2 note=50 velocity=79 time=0
EXTRACT: note_off channel=5 note=60 velocity=95 time=0
EXTRACT: note_on channel=4 note=58 velocity=95 time=0
EXTRACT: note_off channel=0 note=64 velocity=63 time=0.031249995833333332
EXTRACT: note_off channel=0 note=59 velocity=63 time=0
EXTRACT: note_off channel=0 note=55 velocity=63 time=0
EXTRACT: note_off channel=0 note=50 velocity=63 time=0
EXTRACT: note_off channel=0 note=45 velocity=63 time=0
EXTRACT: note_off channel=0 note=40 velocity=63 time=0
EXTRACT: note_on channel=0 note=70 velocity=63 time=0.11298075416666667
EXTRACT: note_on channel=0 note=65 velocity=63 time=0
EXTRACT: note_on channel=0 note=62 velocity=63 time=0
EXTRACT: note_on channel=0 note=58 velocity=63 time=0
EXTRACT: note_on channel=0 note=53 velocity=63 time=0
EXTRACT: note_on channel=0 note=46 velocity=63 time=0
EXTRACT: note_off channel=2 note=50 velocity=79 time=0
EXTRACT: note_on channel=2 note=56 velocity=79 time=0
EXTRACT: note_off channel=0 note=70 velocity=63 time=0.14423075
EXTRACT: note_off channel=0 note=65 velocity=63 time=0
EXTRACT: note_off channel=0 note=62 velocity=63 time=0
EXTRACT: note_off channel=0 note=58 velocity=63 time=0
EXTRACT: note_off channel=0 note=53 velocity=63 time=0
EXTRACT: note_off channel=0 note=46 velocity=63 time=0
EXTRACT: note_on channel=0 note=70 velocity=63 time=0
EXTRACT: note_on channel=0 note=65 velocity=63 time=0
EXTRACT: note_on channel=0 note=62 velocity=63 time=0
EXTRACT: note_on channel=0 note=58 velocity=63 time=0
EXTRACT: note_on channel=0 note=53 velocity=63 time=0
EXTRACT: note_on channel=0 note=46 velocity=63 time=0
EXTRACT: note_off channel=4 note=58 velocity=95 time=0
EXTRACT: note_on channel=4 note=56 velocity=95 time=0
EXTRACT: note_off channel=0 note=70 velocity=63 time=0.14423075
EXTRACT: note_off channel=0 note=65 velocity=63 time=0
EXTRACT: note_off channel=0 note=62 velocity=63 time=0
EXTRACT: note_off channel=0 note=58 velocity=63 time=0
EXTRACT: note_off channel=0 note=53 velocity=63 time=0
EXTRACT: note_off channel=0 note=46 velocity=63 time=0
EXTRACT: note_on channel=0 note=64 velocity=63 time=0
EXTRACT: note_on channel=0 note=59 velocity=63 time=0
EXTRACT: note_on channel=0 note=55 velocity=63 time=0
EXTRACT: note_on channel=0 note=50 velocity=63 time=0
EXTRACT: note_on channel=0 note=45 velocity=63 time=0
EXTRACT: note_on channel=0 note=40 velocity=63 time=0
EXTRACT: note_off channel=2 note=56 velocity=79 time=0
EXTRACT: note_on channel=2 note=70 velocity=79 time=0
EXTRACT: note_on channel=2 note=65 velocity=79 time=0
EXTRACT: note_on channel=2 note=62 velocity=79 time=0
EXTRACT: note_off channel=4 note=56 velocity=95 time=0
EXTRACT: note_on channel=4 note=53 velocity=95 time=0
EXTRACT: note_off channel=0 note=64 velocity=63 time=0.031249995833333332
EXTRACT: note_off channel=0 note=59 velocity=63 time=0
EXTRACT: note_off channel=0 note=55 velocity=63 time=0
EXTRACT: note_off channel=0 note=50 velocity=63 time=0
EXTRACT: note_off channel=0 note=45 velocity=63 time=0
EXTRACT: note_off channel=0 note=40 velocity=63 time=0
EXTRACT: note_on channel=0 note=64 velocity=63 time=0.11298075416666667
EXTRACT: note_on channel=0 note=59 velocity=63 time=0
EXTRACT: note_on channel=0 note=55 velocity=63 time=0
EXTRACT: note_on channel=0 note=50 velocity=63 time=0
EXTRACT: note_on channel=0 note=45 velocity=63 time=0
EXTRACT: note_on channel=0 note=40 velocity=63 time=0
EXTRACT: note_off channel=2 note=70 velocity=79 time=0
EXTRACT: note_off channel=2 note=65 velocity=79 time=0
EXTRACT: note_off channel=2 note=62 velocity=79 time=0
EXTRACT: note_off channel=4 note=53 velocity=95 time=0
EXTRACT: note_off channel=0 note=64 velocity=63 time=0.031249995833333332
EXTRACT: note_off channel=0 note=59 velocity=63 time=0
EXTRACT: note_off channel=0 note=55 velocity=63 time=0
EXTRACT: note_off channel=0 note=50 velocity=63 time=0
EXTRACT: note_off channel=0 note=45 velocity=63 time=0
EXTRACT: note_off channel=0 note=40 velocity=63 time=0
EXTRACT: note_on channel=0 note=70 velocity=63 time=0.11298075416666667
EXTRACT: note_on channel=0 note=65 velocity=63 time=0
EXTRACT: note_on channel=0 note=62 velocity=63 time=0
EXTRACT: note_on channel=0 note=58 velocity=63 time=0
EXTRACT: note_on channel=0 note=53 velocity=63 time=0
EXTRACT: note_on channel=0 note=46 velocity=63 time=0
EXTRACT: note_off channel=0 note=70 velocity=63 time=0.14423075
EXTRACT: note_off channel=0 note=65 velocity=63 time=0
EXTRACT: note_off channel=0 note=62 velocity=63 time=0
EXTRACT: note_off channel=0 note=58 velocity=63 time=0
EXTRACT: note_off channel=0 note=53 velocity=63 time=0
EXTRACT: note_off channel=0 note=46 velocity=63 time=0
EXTRACT: note_on channel=0 note=70 velocity=63 time=0
EXTRACT: note_on channel=0 note=65 velocity=63 time=0
EXTRACT: note_on channel=0 note=62 velocity=63 time=0
EXTRACT: note_on channel=0 note=58 velocity=63 time=0
EXTRACT: note_on channel=0 note=53 velocity=63 time=0
EXTRACT: note_on channel=0 note=46 velocity=63 time=0
EXTRACT: note_off channel=0 note=70 velocity=63 time=0.14423075
EXTRACT: note_off channel=0 note=65 velocity=63 time=0
EXTRACT: note_off channel=0 note=62 velocity=63 time=0
EXTRACT: note_off channel=0 note=58 velocity=63 time=0
EXTRACT: note_off channel=0 note=53 velocity=63 time=0
EXTRACT: note_off channel=0 note=46 velocity=63 time=0
EXTRACT: note_on channel=0 note=64 velocity=63 time=0
EXTRACT: note_on channel=0 note=59 velocity=63 time=0
EXTRACT: note_on channel=0 note=55 velocity=63 time=0
EXTRACT: note_on channel=0 note=50 velocity=63 time=0
EXTRACT: note_on channel=0 note=45 velocity=63 time=0
EXTRACT: note_on channel=0 note=40 velocity=63 time=0
EXTRACT: note_on channel=2 note=58 velocity=79 time=0
EXTRACT: note_off channel=0 note=64 velocity=63 time=0.031249995833333332
EXTRACT: note_off channel=0 note=59 velocity=63 time=0
EXTRACT: note_off channel=0 note=55 velocity=63 time=0
EXTRACT: note_off channel=0 note=50 velocity=63 time=0
EXTRACT: note_off channel=0 note=45 velocity=63 time=0
EXTRACT: note_off channel=0 note=40 velocity=63 time=0
EXTRACT: note_on channel=0 note=64 velocity=63 time=0.11298075416666667
EXTRACT: note_on channel=0 note=59 velocity=63 time=0
EXTRACT: note_on channel=0 note=55 velocity=63 time=0
EXTRACT: note_on channel=0 note=50 velocity=63 time=0
EXTRACT: note_on channel=0 note=45 velocity=63 time=0
EXTRACT: note_on channel=0 note=40 velocity=63 time=0
EXTRACT: note_off channel=0 note=64 velocity=63 time=0.031249995833333332
EXTRACT: note_off channel=0 note=59 velocity=63 time=0
EXTRACT: note_off channel=0 note=55 velocity=63 time=0
EXTRACT: note_off channel=0 note=50 velocity=63 time=0
EXTRACT: note_off channel=0 note=45 velocity=63 time=0
EXTRACT: note_off channel=0 note=40 velocity=63 time=0
EXTRACT: note_on channel=0 note=70 velocity=63 time=0.11298075416666667
EXTRACT: note_on channel=0 note=65 velocity=63 time=0
EXTRACT: note_on channel=0 note=62 velocity=63 time=0
EXTRACT: note_on channel=0 note=58 velocity=63 time=0
EXTRACT: note_on channel=0 note=53 velocity=63 time=0
EXTRACT: note_on channel=0 note=46 velocity=63 time=0
EXTRACT: note_off channel=2 note=58 velocity=79 time=0
EXTRACT: note_off channel=0 note=70 velocity=63 time=0.14423075
EXTRACT: note_off channel=0 note=65 velocity=63 time=0
EXTRACT: note_off channel=0 note=62 velocity=63 time=0
EXTRACT: note_off channel=0 note=58 velocity=63 time=0
EXTRACT: note_off channel=0 note=53 velocity=63 time=0
EXTRACT: note_off channel=0 note=46 velocity=63 time=0
EXTRACT: note_on channel=0 note=70 velocity=63 time=0
EXTRACT: note_on channel=0 note=65 velocity=63 time=0
EXTRACT: note_on channel=0 note=62 velocity=63 time=0
EXTRACT: note_on channel=0 note=58 velocity=63 time=0
EXTRACT: note_on channel=0 note=53 velocity=63 time=0
EXTRACT: note_on channel=0 note=46 velocity=63 time=0
EXTRACT: note_off channel=0 note=70 velocity=63 time=0.14423075
EXTRACT: note_off channel=0 note=65 velocity=63 time=0
EXTRACT: note_off channel=0 note=62 velocity=63 time=0
EXTRACT: note_off channel=0 note=58 velocity=63 time=0
EXTRACT: note_off channel=0 note=53 velocity=63 time=0
EXTRACT: note_off channel=0 note=46 velocity=63 time=0
EXTRACT: note_on channel=0 note=64 velocity=63 time=0
EXTRACT: note_on channel=0 note=59 velocity=63 time=0
EXTRACT: note_on channel=0 note=55 velocity=63 time=0
EXTRACT: note_on channel=0 note=50 velocity=63 time=0
EXTRACT: note_on channel=0 note=45 velocity=63 time=0
EXTRACT: note_on channel=0 note=40 velocity=63 time=0
EXTRACT: note_on channel=4 note=58 velocity=95 time=0
EXTRACT: note_off channel=0 note=64 velocity=63 time=0.031249995833333332
EXTRACT: note_off channel=0 note=59 velocity=63 time=0
EXTRACT: note_off channel=0 note=55 velocity=63 time=0
EXTRACT: note_off channel=0 note=50 velocity=63 time=0
EXTRACT: note_off channel=0 note=45 velocity=63 time=0
EXTRACT: note_off channel=0 note=40 velocity=63 time=0
EXTRACT: note_on channel=0 note=64 velocity=63 time=0.11298075416666667
EXTRACT: note_on channel=0 note=59 velocity=63 time=0
EXTRACT: note_on channel=0 note=55 velocity=63 time=0
EXTRACT: note_on channel=0 note=50 velocity=63 time=0
EXTRACT: note_on channel=0 note=45 velocity=63 time=0
EXTRACT: note_on channel=0 note=40 velocity=63 time=0
EXTRACT: note_on channel=2 note=56 velocity=79 time=0
EXTRACT: note_off channel=4 note=58 velocity=95 time=0
EXTRACT: note_on channel=4 note=56 velocity=95 time=0
EXTRACT: note_off channel=0 note=64 velocity=63 time=0.031249995833333332
EXTRACT: note_off channel=0 note=59 velocity=63 time=0
EXTRACT: note_off channel=0 note=55 velocity=63 time=0
EXTRACT: note_off channel=0 note=50 velocity=63 time=0
EXTRACT: note_off channel=0 note=45 velocity=63 time=0
EXTRACT: note_off channel=0 note=40 velocity=63 time=0
EXTRACT: note_on channel=0 note=70 velocity=63 time=0.11298075416666667
EXTRACT: note_on channel=0 note=65 velocity=63 time=0
EXTRACT: note_on channel=0 note=62 velocity=63 time=0
EXTRACT: note_on channel=0 note=58 velocity=63 time=0
EXTRACT: note_on channel=0 note=53 velocity=63 time=0
EXTRACT: note_on channel=0 note=46 velocity=63 time=0
EXTRACT: note_off channel=2 note=56 velocity=79 time=0
EXTRACT: note_off channel=4 note=56 velocity=95 time=0
EXTRACT: note_on channel=4 note=58 velocity=95 time=0
EXTRACT: note_off channel=0 note=70 velocity=63 time=0.14423075
EXTRACT: note_off channel=0 note=65 velocity=63 time=0
EXTRACT: note_off channel=0 note=62 velocity=63 time=0
EXTRACT: note_off channel=0 note=58 velocity=63 time=0
EXTRACT: note_off channel=0 note=53 velocity=63 time=0
EXTRACT: note_off channel=0 note=46 velocity=63 time=0
EXTRACT: note_on channel=0 note=70 velocity=63 time=0
EXTRACT: note_on channel=0 note=65 velocity=63 time=0
EXTRACT: note_on channel=0 note=62 velocity=63 time=0
EXTRACT: note_on channel=0 note=58 velocity=63 time=0
EXTRACT: note_on channel=0 note=53 velocity=63 time=0
EXTRACT: note_on channel=0 note=46 velocity=63 time=0
EXTRACT: note_on channel=2 note=56 velocity=79 time=0
EXTRACT: note_off channel=0 note=70 velocity=63 time=0.14423075
EXTRACT: note_off channel=0 note=65 velocity=63 time=0
EXTRACT: note_off channel=0 note=62 velocity=63 time=0
EXTRACT: note_off channel=0 note=58 velocity=63 time=0
EXTRACT: note_off channel=0 note=53 velocity=63 time=0
EXTRACT: note_off channel=0 note=46 velocity=63 time=0
EXTRACT: note_on channel=0 note=64 velocity=63 time=0
EXTRACT: note_on channel=0 note=59 velocity=63 time=0
EXTRACT: note_on channel=0 note=55 velocity=63 time=0
EXTRACT: note_on channel=0 note=50 velocity=63 time=0
EXTRACT: note_on channel=0 note=45 velocity=63 time=0
EXTRACT: note_on channel=0 note=40 velocity=63 time=0
EXTRACT: note_off channel=2 note=56 velocity=79 time=0
EXTRACT: note_off channel=4 note=58 velocity=95 time=0
EXTRACT: note_on channel=4 note=56 velocity=95 time=0
EXTRACT: note_off channel=0 note=64 velocity=63 time=0.031249995833333332
EXTRACT: note_off channel=0 note=59 velocity=63 time=0
EXTRACT: note_off channel=0 note=55 velocity=63 time=0
EXTRACT: note_off channel=0 note=50 velocity=63 time=0
EXTRACT: note_off channel=0 note=45 velocity=63 time=0
EXTRACT: note_off channel=0 note=40 velocity=63 time=0
EXTRACT: note_on channel=0 note=64 velocity=63 time=0.11298075416666667
EXTRACT: note_on channel=0 note=59 velocity=63 time=0
EXTRACT: note_on channel=0 note=55 velocity=63 time=0
EXTRACT: note_on channel=0 note=50 velocity=63 time=0
EXTRACT: note_on channel=0 note=45 velocity=63 time=0
EXTRACT: note_on channel=0 note=40 velocity=63 time=0
EXTRACT: note_on channel=2 note=50 velocity=79 time=0
EXTRACT: note_off channel=4 note=56 velocity=95 time=0
EXTRACT: note_on channel=4 note=58 velocity=95 time=0
EXTRACT: note_off channel=0 note=64 velocity=63 time=0.031249995833333332
EXTRACT: note_off channel=0 note=59 velocity=63 time=0
EXTRACT: note_off channel=0 note=55 velocity=63 time=0
EXTRACT: note_off channel=0 note=50 velocity=63 time=0
EXTRACT: note_off channel=0 note=45 velocity=63 time=0
EXTRACT: note_off channel=0 note=40 velocity=63 time=0
EXTRACT: note_on channel=0 note=70 velocity=63 time=0.11298075416666667
EXTRACT: note_on channel=0 note=65 velocity=63 time=0
EXTRACT: note_on channel=0 note=62 velocity=63 time=0
EXTRACT: note_on channel=0 note=58 velocity=63 time=0
EXTRACT: note_on channel=0 note=53 velocity=63 time=0
EXTRACT: note_on channel=0 note=46 velocity=63 time=0
EXTRACT: note_off channel=2 note=50 velocity=79 time=0
EXTRACT: note_on channel=2 note=56 velocity=79 time=0
EXTRACT: note_off channel=0 note=70 velocity=63 time=0.14423075
EXTRACT: note_off channel=0 note=65 velocity=63 time=0
EXTRACT: note_off channel=0 note=62 velocity=63 time=0
EXTRACT: note_off channel=0 note=58 velocity=63 time=0
EXTRACT: note_off channel=0 note=53 velocity=63 time=0
EXTRACT: note_off channel=0 note=46 velocity=63 time=0
EXTRACT: note_on channel=0 note=70 velocity=63 time=0
EXTRACT: note_on channel=0 note=65 velocity=63 time=0
EXTRACT: note_on channel=0 note=62 velocity=63 time=0
EXTRACT: note_on channel=0 note=58 velocity=63 time=0
EXTRACT: note_on channel=0 note=53 velocity=63 time=0
EXTRACT: note_on channel=0 note=46 velocity=63 time=0
EXTRACT: note_off channel=4 note=58 velocity=95 time=0
EXTRACT: note_on channel=4 note=56 velocity=95 time=0
EXTRACT: note_off channel=0 note=70 velocity=63 time=0.14423075
EXTRACT: note_off channel=0 note=65 velocity=63 time=0
EXTRACT: note_off channel=0 note=62 velocity=63 time=0
EXTRACT: note_off channel=0 note=58 velocity=63 time=0
EXTRACT: note_off channel=0 note=53 velocity=63 time=0
EXTRACT: note_off channel=0 note=46 velocity=63 time=0
EXTRACT: note_on channel=0 note=64 velocity=63 time=0
EXTRACT: note_on channel=0 note=59 velocity=63 time=0
EXTRACT: note_on channel=0 note=55 velocity=63 time=0
EXTRACT: note_on channel=0 note=50 velocity=63 time=0
EXTRACT: note_on channel=0 note=45 velocity=63 time=0
EXTRACT: note_on channel=0 note=40 velocity=63 time=0
EXTRACT: note_off channel=2 note=56 velocity=79 time=0
EXTRACT: note_on channel=2 note=58 velocity=79 time=0
EXTRACT: note_off channel=4 note=56 velocity=95 time=0
EXTRACT: note_on channel=4 note=58 velocity=95 time=0
EXTRACT: note_off channel=0 note=64 velocity=63 time=0.031249995833333332
EXTRACT: note_off channel=0 note=59 velocity=63 time=0
EXTRACT: note_off channel=0 note=55 velocity=63 time=0
EXTRACT: note_off channel=0 note=50 velocity=63 time=0
EXTRACT: note_off channel=0 note=45 velocity=63 time=0
EXTRACT: note_off channel=0 note=40 velocity=63 time=0
EXTRACT: note_on channel=0 note=64 velocity=63 time=0.11298075416666667
EXTRACT: note_on channel=0 note=59 velocity=63 time=0
EXTRACT: note_on channel=0 note=55 velocity=63 time=0
EXTRACT: note_on channel=0 note=50 velocity=63 time=0
EXTRACT: note_on channel=0 note=45 velocity=63 time=0
EXTRACT: note_on channel=0 note=40 velocity=63 time=0
EXTRACT: note_off channel=2 note=58 velocity=79 time=0
EXTRACT: note_off channel=4 note=58 velocity=95 time=0
EXTRACT: note_on channel=4 note=56 velocity=95 time=0
EXTRACT: note_off channel=0 note=64 velocity=63 time=0.031249995833333332
EXTRACT: note_off channel=0 note=59 velocity=63 time=0
EXTRACT: note_off channel=0 note=55 velocity=63 time=0
EXTRACT: note_off channel=0 note=50 velocity=63 time=0
EXTRACT: note_off channel=0 note=45 velocity=63 time=0
EXTRACT: note_off channel=0 note=40 velocity=63 time=0
EXTRACT: note_on channel=0 note=72 velocity=63 time=0.11298075416666667
EXTRACT: note_on channel=0 note=68 velocity=63 time=0
EXTRACT: note_on channel=0 note=65 velocity=63 time=0
EXTRACT: note_on channel=0 note=60 velocity=63 time=0
EXTRACT: note_on channel=0 note=53 velocity=63 time=0
EXTRACT: note_on channel=2 note=51 velocity=79 time=0
EXTRACT: note_off channel=4 note=56 velocity=95 time=0
EXTRACT: note_on channel=4 note=53 velocity=95 time=0
EXTRACT: note_off channel=0 note=72 velocity=63 time=0.14423075
EXTRACT: note_off channel=0 note=68 velocity=63 time=0
EXTRACT: note_off channel=0 note=65 velocity=63 time=0
EXTRACT: note_off channel=0 note=60 velocity=63 time=0
EXTRACT: note_off channel=0 note=53 velocity=63 time=0
EXTRACT: note_on channel=0 note=72 velocity=63 time=0
EXTRACT: note_on channel=0 note=68 velocity=63 time=0
EXTRACT: note_on channel=0 note=65 velocity=63 time=0
EXTRACT: note_on channel=0 note=60 velocity=63 time=0
EXTRACT: note_on channel=0 note=53 velocity=63 time=0
EXTRACT: note_off channel=2 note=51 velocity=79 time=0
EXTRACT: note_on channel=2 note=53 velocity=54 time=0
EXTRACT: note_off channel=0 note=72 velocity=63 time=0.14423075
EXTRACT: note_off channel=0 note=68 velocity=63 time=0
EXTRACT: note_off channel=0 note=65 velocity=63 time=0
EXTRACT: note_off channel=0 note=60 velocity=63 time=0
EXTRACT: note_off channel=0 note=53 velocity=63 time=0
EXTRACT: note_on channel=0 note=64 velocity=63 time=0
EXTRACT: note_on channel=0 note=59 velocity=63 time=0
EXTRACT: note_on channel=0 note=55 velocity=63 time=0
EXTRACT: note_on channel=0 note=50 velocity=63 time=0
EXTRACT: note_on channel=0 note=45 velocity=63 time=0
EXTRACT: note_off channel=0 note=64 velocity=63 time=0.031249995833333332
EXTRACT: note_off channel=0 note=59 velocity=63 time=0
EXTRACT: note_off channel=0 note=55 velocity=63 time=0
EXTRACT: note_off channel=0 note=50 velocity=63 time=0
EXTRACT: note_off channel=0 note=45 velocity=63 time=0
EXTRACT: note_on channel=0 note=64 velocity=63 time=0.11298075416666667
EXTRACT: note_on channel=0 note=59 velocity=63 time=0
EXTRACT: note_on channel=0 note=55 velocity=63 time=0
EXTRACT: note_on channel=0 note=50 velocity=63 time=0
EXTRACT: note_on channel=0 note=45 velocity=63 time=0
EXTRACT: note_off channel=2 note=53 velocity=54 time=0
EXTRACT: note_on channel=2 note=56 velocity=79 time=0
EXTRACT: note_off channel=0 note=64 velocity=63 time=0.031249995833333332
EXTRACT: note_off channel=0 note=59 velocity=63 time=0
EXTRACT: note_off channel=0 note=55 velocity=63 time=0
EXTRACT: note_off channel=0 note=50 velocity=63 time=0
EXTRACT: note_off channel=0 note=45 velocity=63 time=0
EXTRACT: note_on channel=0 note=72 velocity=63 time=0.11298075416666667
EXTRACT: note_on channel=0 note=68 velocity=63 time=0
EXTRACT: note_on channel=0 note=65 velocity=63 time=0
EXTRACT: note_on channel=0 note=60 velocity=63 time=0
EXTRACT: note_on channel=0 note=53 velocity=63 time=0
EXTRACT: note_off channel=2 note=56 velocity=79 time=0
EXTRACT: note_off channel=0 note=72 velocity=63 time=0.14423075
EXTRACT: note_off channel=0 note=68 velocity=63 time=0
EXTRACT: note_off channel=0 note=65 velocity=63 time=0
EXTRACT: note_off channel=0 note=60 velocity=63 time=0
EXTRACT: note_off channel=0 note=53 velocity=63 time=0
EXTRACT: note_on channel=0 note=72 velocity=63 time=0
EXTRACT: note_on channel=0 note=68 velocity=63 time=0
EXTRACT: note_on channel=0 note=65 velocity=63 time=0
EXTRACT: note_on channel=0 note=60 velocity=63 time=0
EXTRACT: note_on channel=0 note=53 velocity=63 time=0
EXTRACT: note_off channel=0 note=72 velocity=63 time=0.14423075
EXTRACT: note_off channel=0 note=68 velocity=63 time=0
EXTRACT: note_off channel=0 note=65 velocity=63 time=0
EXTRACT: note_off channel=0 note=60 velocity=63 time=0
EXTRACT: note_off channel=0 note=53 velocity=63 time=0
EXTRACT: note_on channel=0 note=64 velocity=63 time=0
EXTRACT: note_on channel=0 note=59 velocity=63 time=0
EXTRACT: note_on channel=0 note=55 velocity=63 time=0
EXTRACT: note_on channel=0 note=50 velocity=63 time=0
EXTRACT: note_on channel=0 note=45 velocity=63 time=0
EXTRACT: note_on channel=2 note=51 velocity=79 time=0
EXTRACT: note_off channel=0 note=64 velocity=63 time=0.031249995833333332
EXTRACT: note_off channel=0 note=59 velocity=63 time=0
EXTRACT: note_off channel=0 note=55 velocity=63 time=0
EXTRACT: note_off channel=0 note=50 velocity=63 time=0
EXTRACT: note_off channel=0 note=45 velocity=63 time=0
EXTRACT: note_on channel=0 note=64 velocity=63 time=0.11298075416666667
EXTRACT: note_on channel=0 note=59 velocity=63 time=0
EXTRACT: note_on channel=0 note=55 velocity=63 time=0
EXTRACT: note_on channel=0 note=50 velocity=63 time=0
EXTRACT: note_on channel=0 note=45 velocity=63 time=0
EXTRACT: note_off channel=0 note=64 velocity=63 time=0.031249995833333332
EXTRACT: note_off channel=0 note=59 velocity=63 time=0
EXTRACT: note_off channel=0 note=55 velocity=63 time=0
EXTRACT: note_off channel=0 note=50 velocity=63 time=0
EXTRACT: note_off channel=0 note=45 velocity=63 time=0
EXTRACT: note_on channel=0 note=72 velocity=63 time=0.11298075416666667
EXTRACT: note_on channel=0 note=68 velocity=63 time=0
EXTRACT: note_on channel=0 note=65 velocity=63 time=0
EXTRACT: note_on channel=0 note=60 velocity=63 time=0
EXTRACT: note_on channel=0 note=53 velocity=63 time=0
EXTRACT: note_off channel=2 note=51 velocity=79 time=0
EXTRACT: note_off channel=4 note=53 velocity=95 time=0
EXTRACT: note_off channel=0 note=72 velocity=63 time=0.14423075
EXTRACT: note_off channel=0 note=68 velocity=63 time=0
EXTRACT: note_off channel=0 note=65 velocity=63 time=0
EXTRACT: note_off channel=0 note=60 velocity=63 time=0
EXTRACT: note_off channel=0 note=53 velocity=63 time=0
EXTRACT: note_on channel=0 note=72 velocity=63 time=0
EXTRACT: note_on channel=0 note=68 velocity=63 time=0
EXTRACT: note_on channel=0 note=65 velocity=63 time=0
EXTRACT: note_on channel=0 note=60 velocity=63 time=0
EXTRACT: note_on channel=0 note=53 velocity=63 time=0
EXTRACT: note_off channel=0 note=72 velocity=63 time=0.14423075
EXTRACT: note_off channel=0 note=68 velocity=63 time=0
EXTRACT: note_off channel=0 note=65 velocity=63 time=0
EXTRACT: note_off channel=0 note=60 velocity=63 time=0
EXTRACT: note_off channel=0 note=53 velocity=63 time=0
EXTRACT: note_on channel=0 note=64 velocity=63 time=0
EXTRACT: note_on channel=0 note=59 velocity=63 time=0
EXTRACT: note_on channel=0 note=55 velocity=63 time=0
EXTRACT: note_on channel=0 note=50 velocity=63 time=0
EXTRACT: note_on channel=0 note=45 velocity=63 time=0
EXTRACT: note_on channel=2 note=48 velocity=79 time=0
EXTRACT: note_on channel=4 note=72 velocity=95 time=0
EXTRACT: note_off channel=0 note=64 velocity=63 time=0.031249995833333332
EXTRACT: note_off channel=0 note=59 velocity=63 time=0
EXTRACT: note_off channel=0 note=55 velocity=63 time=0
EXTRACT: note_off channel=0 note=50 velocity=63 time=0
EXTRACT: note_off channel=0 note=45 velocity=63 time=0
EXTRACT: note_on channel=0 note=64 velocity=63 time=0.11298075416666667
EXTRACT: note_on channel=0 note=59 velocity=63 time=0
EXTRACT: note_on channel=0 note=55 velocity=63 time=0
EXTRACT: note_on channel=0 note=50 velocity=63 time=0
EXTRACT: note_on channel=0 note=45 velocity=63 time=0
EXTRACT: note_off channel=0 note=64 velocity=63 time=0.031249995833333332
EXTRACT: note_off channel=0 note=59 velocity=63 time=0
EXTRACT: note_off channel=0 note=55 velocity=63 time=0
EXTRACT: note_off channel=0 note=50 velocity=63 time=0
EXTRACT: note_off channel=0 note=45 velocity=63 time=0
EXTRACT: note_on channel=0 note=72 velocity=63 time=0.11298075416666667
EXTRACT: note_on channel=0 note=68 velocity=63 time=0
EXTRACT: note_on channel=0 note=65 velocity=63 time=0
EXTRACT: note_on channel=0 note=60 velocity=63 time=0
EXTRACT: note_on channel=0 note=53 velocity=63 time=0
EXTRACT: note_off channel=2 note=48 velocity=79 time=0
EXTRACT: note_on channel=2 note=46 velocity=79 time=0
EXTRACT: note_off channel=4 note=72 velocity=95 time=0
EXTRACT: note_on channel=4 note=72 velocity=95 time=0
EXTRACT: note_on channel=4 note=48 velocity=95 time=0
EXTRACT: note_off channel=0 note=72 velocity=63 time=0.14423075
EXTRACT: note_off channel=0 note=68 velocity=63 time=0
EXTRACT: note_off channel=0 note=65 velocity=63 time=0
EXTRACT: note_off channel=0 note=60 velocity=63 time=0
EXTRACT: note_off channel=0 note=53 velocity=63 time=0
EXTRACT: note_on channel=0 note=72 velocity=63 time=0
EXTRACT: note_on channel=0 note=68 velocity=63 time=0
EXTRACT: note_on channel=0 note=65 velocity=63 time=0
EXTRACT: note_on channel=0 note=60 velocity=63 time=0
EXTRACT: note_on channel=0 note=53 velocity=63 time=0
EXTRACT: note_off channel=2 note=46 velocity=79 time=0
EXTRACT: note_on channel=2 note=48 velocity=54 time=0
EXTRACT: note_off channel=4 note=72 velocity=95 time=0
EXTRACT: note_off channel=4 note=48 velocity=95 time=0
EXTRACT: note_on channel=4 note=70 velocity=95 time=0
EXTRACT: note_off channel=0 note=72 velocity=63 time=0.14423075
EXTRACT: note_off channel=0 note=68 velocity=63 time=0
EXTRACT: note_off channel=0 note=65 velocity=63 time=0
EXTRACT: note_off channel=0 note=60 velocity=63 time=0
EXTRACT: note_off channel=0 note=53 velocity=63 time=0
EXTRACT: note_on channel=0 note=64 velocity=63 time=0
EXTRACT: note_on channel=0 note=59 velocity=63 time=0
EXTRACT: note_on channel=0 note=55 velocity=63 time=0
EXTRACT: note_on channel=0 note=50 velocity=63 time=0
EXTRACT: note_on channel=0 note=45 velocity=63 time=0
EXTRACT: note_off channel=2 note=48 velocity=54 time=0
EXTRACT: note_on channel=2 note=51 velocity=79 time=0
EXTRACT: note_off channel=4 note=70 velocity=95 time=0
EXTRACT: note_on channel=4 note=68 velocity=95 time=0
EXTRACT: note_off channel=0 note=64 velocity=63 time=0.031249995833333332
EXTRACT: note_off channel=0 note=59 velocity=63 time=0
EXTRACT: note_off channel=0 note=55 velocity=63 time=0
EXTRACT: note_off channel=0 note=50 velocity=63 time=0
EXTRACT: note_off channel=0 note=45 velocity=63 time=0
EXTRACT: note_on channel=0 note=64 velocity=63 time=0.11298075416666667
EXTRACT: note_on channel=0 note=59 velocity=63 time=0
EXTRACT: note_on channel=0 note=55 velocity=63 time=0
EXTRACT: note_on channel=0 note=50 velocity=63 time=0
EXTRACT: note_on channel=0 note=45 velocity=63 time=0
EXTRACT: note_off channel=4 note=68 velocity=95 time=0
EXTRACT: note_on channel=4 note=72 velocity=95 time=0
EXTRACT: note_off channel=0 note=64 velocity=63 time=0.031249995833333332
EXTRACT: note_off channel=0 note=59 velocity=63 time=0
EXTRACT: note_off channel=0 note=55 velocity=63 time=0
EXTRACT: note_off channel=0 note=50 velocity=63 time=0
EXTRACT: note_off channel=0 note=45 velocity=63 time=0
EXTRACT: note_on channel=0 note=72 velocity=63 time=0.11298075416666667
EXTRACT: note_on channel=0 note=68 velocity=63 time=0
EXTRACT: note_on channel=0 note=65 velocity=63 time=0
EXTRACT: note_on channel=0 note=60 velocity=63 time=0
EXTRACT: note_on channel=0 note=53 velocity=63 time=0
EXTRACT: note_off channel=2 note=51 velocity=79 time=0
EXTRACT: note_on channel=2 note=46 velocity=79 time=0
EXTRACT: note_off channel=0 note=72 velocity=63 time=0.14423075
EXTRACT: note_off channel=0 note=68 velocity=63 time=0
EXTRACT: note_off channel=0 note=65 velocity=63 time=0
EXTRACT: note_off channel=0 note=60 velocity=63 time=0
EXTRACT: note_off channel=0 note=53 velocity=63 time=0
EXTRACT: note_on channel=0 note=72 velocity=63 time=0
EXTRACT: note_on channel=0 note=68 velocity=63 time=0
EXTRACT: note_on channel=0 note=65 velocity=63 time=0
EXTRACT: note_on channel=0 note=60 velocity=63 time=0
EXTRACT: note_on channel=0 note=53 velocity=63 time=0
EXTRACT: note_off channel=2 note=46 velocity=79 time=0
EXTRACT: note_on channel=2 note=48 velocity=54 time=0
EXTRACT: note_off channel=0 note=72 velocity=63 time=0.14423075
EXTRACT: note_off channel=0 note=68 velocity=63 time=0
EXTRACT: note_off channel=0 note=65 velocity=63 time=0
EXTRACT: note_off channel=0 note=60 velocity=63 time=0
EXTRACT: note_off channel=0 note=53 velocity=63 time=0
EXTRACT: note_on channel=0 note=64 velocity=63 time=0
EXTRACT: note_on channel=0 note=59 velocity=63 time=0
EXTRACT: note_on channel=0 note=55 velocity=63 time=0
EXTRACT: note_on channel=0 note=50 velocity=63 time=0
EXTRACT: note_on channel=0 note=45 velocity=63 time=0
EXTRACT: note_off channel=2 note=48 velocity=54 time=0
EXTRACT: note_on channel=2 note=51 velocity=79 time=0
EXTRACT: note_off channel=0 note=64 velocity=63 time=0.031249995833333332
EXTRACT: note_off channel=0 note=59 velocity=63 time=0
EXTRACT: note_off channel=0 note=55 velocity=63 time=0
EXTRACT: note_off channel=0 note=50 velocity=63 time=0
EXTRACT: note_off channel=0 note=45 velocity=63 time=0
EXTRACT: note_on channel=0 note=64 velocity=63 time=0.11298075416666667
EXTRACT: note_on channel=0 note=59 velocity=63 time=0
EXTRACT: note_on channel=0 note=55 velocity=63 time=0
EXTRACT: note_on channel=0 note=50 velocity=63 time=0
EXTRACT: note_on channel=0 note=45 velocity=63 time=0
EXTRACT: note_off channel=0 note=64 velocity=63 time=0.031249995833333332
EXTRACT: note_off channel=0 note=59 velocity=63 time=0
EXTRACT: note_off channel=0 note=55 velocity=63 time=0
EXTRACT: note_off channel=0 note=50 velocity=63 time=0
EXTRACT: note_off channel=0 note=45 velocity=63 time=0
EXTRACT: note_on channel=0 note=72 velocity=63 time=0.11298075416666667
EXTRACT: note_on channel=0 note=68 velocity=63 time=0
EXTRACT: note_on channel=0 note=65 velocity=63 time=0
EXTRACT: note_on channel=0 note=60 velocity=63 time=0
EXTRACT: note_on channel=0 note=53 velocity=63 time=0
EXTRACT: note_off channel=2 note=51 velocity=79 time=0
EXTRACT: note_off channel=0 note=72 velocity=63 time=0.14423075
EXTRACT: note_off channel=0 note=68 velocity=63 time=0
EXTRACT: note_off channel=0 note=65 velocity=63 time=0
EXTRACT: note_off channel=0 note=60 velocity=63 time=0
EXTRACT: note_off channel=0 note=53 velocity=63 time=0
EXTRACT: note_on channel=0 note=72 velocity=63 time=0
EXTRACT: note_on channel=0 note=68 velocity=63 time=0
EXTRACT: note_on channel=0 note=65 velocity=63 time=0
EXTRACT: note_on channel=0 note=60 velocity=63 time=0
EXTRACT: note_on channel=0 note=53 velocity=63 time=0
EXTRACT: note_on channel=2 note=45 velocity=79 time=0
EXTRACT: note_off channel=2 note=45 velocity=79 time=0.031249995833333332
EXTRACT: note_off channel=0 note=72 velocity=63 time=0.11298075416666667
EXTRACT: note_off channel=0 note=68 velocity=63 time=0
EXTRACT: note_off channel=0 note=65 velocity=63 time=0
EXTRACT: note_off channel=0 note=60 velocity=63 time=0
EXTRACT: note_off channel=0 note=53 velocity=63 time=0
EXTRACT: note_on channel=0 note=64 velocity=63 time=0
EXTRACT: note_on channel=0 note=59 velocity=63 time=0
EXTRACT: note_on channel=0 note=55 velocity=63 time=0
EXTRACT: note_on channel=0 note=50 velocity=63 time=0
EXTRACT: note_on channel=0 note=45 velocity=63 time=0
EXTRACT: note_on channel=2 note=46 velocity=79 time=0
EXTRACT: note_off channel=0 note=64 velocity=63 time=0.031249995833333332
EXTRACT: note_off channel=0 note=59 velocity=63 time=0
EXTRACT: note_off channel=0 note=55 velocity=63 time=0
EXTRACT: note_off channel=0 note=50 velocity=63 time=0
EXTRACT: note_off channel=0 note=45 velocity=63 time=0
EXTRACT: note_on channel=0 note=64 velocity=63 time=0.11298075416666667
EXTRACT: note_on channel=0 note=59 velocity=63 time=0
EXTRACT: note_on channel=0 note=55 velocity=63 time=0
EXTRACT: note_on channel=0 note=50 velocity=63 time=0
EXTRACT: note_on channel=0 note=45 velocity=63 time=0
EXTRACT: note_off channel=0 note=64 velocity=63 time=0.031249995833333332
EXTRACT: note_off channel=0 note=59 velocity=63 time=0
EXTRACT: note_off channel=0 note=55 velocity=63 time=0
EXTRACT: note_off channel=0 note=50 velocity=63 time=0
EXTRACT: note_off channel=0 note=45 velocity=63 time=0
EXTRACT: note_on channel=0 note=72 velocity=63 time=0.11298075416666667
EXTRACT: note_on channel=0 note=68 velocity=63 time=0
EXTRACT: note_on channel=0 note=65 velocity=63 time=0
EXTRACT: note_on channel=0 note=60 velocity=63 time=0
EXTRACT: note_on channel=0 note=53 velocity=63 time=0
EXTRACT: note_off channel=2 note=46 velocity=79 time=0
EXTRACT: note_on channel=2 note=48 velocity=79 time=0
EXTRACT: note_off channel=0 note=72 velocity=63 time=0.14423075
EXTRACT: note_off channel=0 note=68 velocity=63 time=0
EXTRACT: note_off channel=0 note=65 velocity=63 time=0
EXTRACT: note_off channel=0 note=60 velocity=63 time=0
EXTRACT: note_off channel=0 note=53 velocity=63 time=0
EXTRACT: note_on channel=0 note=72 velocity=63 time=0
EXTRACT: note_on channel=0 note=68 velocity=63 time=0
EXTRACT: note_on channel=0 note=65 velocity=63 time=0
EXTRACT: note_on channel=0 note=60 velocity=63 time=0
EXTRACT: note_on channel=0 note=53 velocity=63 time=0
EXTRACT: note_off channel=0 note=72 velocity=63 time=0.14423075
EXTRACT: note_off channel=0 note=68 velocity=63 time=0
EXTRACT: note_off channel=0 note=65 velocity=63 time=0
EXTRACT: note_off channel=0 note=60 velocity=63 time=0
EXTRACT: note_off channel=0 note=53 velocity=63 time=0
EXTRACT: note_on channel=0 note=64 velocity=63 time=0
EXTRACT: note_on channel=0 note=59 velocity=63 time=0
EXTRACT: note_on channel=0 note=55 velocity=63 time=0
EXTRACT: note_on channel=0 note=50 velocity=63 time=0
EXTRACT: note_on channel=0 note=45 velocity=63 time=0
EXTRACT: note_off channel=2 note=48 velocity=79 time=0
EXTRACT: note_on channel=2 note=51 velocity=79 time=0
EXTRACT: note_off channel=0 note=64 velocity=63 time=0.031249995833333332
EXTRACT: note_off channel=0 note=59 velocity=63 time=0
EXTRACT: note_off channel=0 note=55 velocity=63 time=0
EXTRACT: note_off channel=0 note=50 velocity=63 time=0
EXTRACT: note_off channel=0 note=45 velocity=63 time=0
EXTRACT: note_on channel=0 note=64 velocity=63 time=0.11298075416666667
EXTRACT: note_on channel=0 note=59 velocity=63 time=0
EXTRACT: note_on channel=0 note=55 velocity=63 time=0
EXTRACT: note_on channel=0 note=50 velocity=63 time=0
EXTRACT: note_on channel=0 note=45 velocity=63 time=0
EXTRACT: note_off channel=0 note=64 velocity=63 time=0.031249995833333332
EXTRACT: note_off channel=0 note=59 velocity=63 time=0
EXTRACT: note_off channel=0 note=55 velocity=63 time=0
EXTRACT: note_off channel=0 note=50 velocity=63 time=0
EXTRACT: note_off channel=0 note=45 velocity=63 time=0
EXTRACT: note_on channel=0 note=72 velocity=63 time=0.11298075416666667
EXTRACT: note_on channel=0 note=68 velocity=63 time=0
EXTRACT: note_on channel=0 note=65 velocity=63 time=0
EXTRACT: note_on channel=0 note=60 velocity=63 time=0
EXTRACT: note_on channel=0 note=53 velocity=63 time=0
EXTRACT: note_off channel=2 note=51 velocity=79 time=0
EXTRACT: note_on channel=2 note=53 velocity=79 time=0
EXTRACT: note_off channel=0 note=72 velocity=63 time=0.14423075
EXTRACT: note_off channel=0 note=68 velocity=63 time=0
EXTRACT: note_off channel=0 note=65 velocity=63 time=0
EXTRACT: note_off channel=0 note=60 velocity=63 time=0
EXTRACT: note_off channel=0 note=53 velocity=63 time=0
EXTRACT: note_on channel=0 note=72 velocity=63 time=0
EXTRACT: note_on channel=0 note=68 velocity=63 time=0
EXTRACT: note_on channel=0 note=65 velocity=63 time=0
EXTRACT: note_on channel=0 note=60 velocity=63 time=0
EXTRACT: note_on channel=0 note=53 velocity=63 time=0
EXTRACT: note_off channel=0 note=72 velocity=63 time=0.14423075
EXTRACT: note_off channel=0 note=68 velocity=63 time=0
EXTRACT: note_off channel=0 note=65 velocity=63 time=0
EXTRACT: note_off channel=0 note=60 velocity=63 time=0
EXTRACT: note_off channel=0 note=53 velocity=63 time=0
EXTRACT: note_on channel=0 note=64 velocity=63 time=0
EXTRACT: note_on channel=0 note=59 velocity=63 time=0
EXTRACT: note_on channel=0 note=55 velocity=63 time=0
EXTRACT: note_on channel=0 note=50 velocity=63 time=0
EXTRACT: note_on channel=0 note=45 velocity=63 time=0
EXTRACT: note_off channel=2 note=53 velocity=79 time=0
EXTRACT: note_on channel=2 note=56 velocity=79 time=0
EXTRACT: note_off channel=0 note=64 velocity=63 time=0.031249995833333332
EXTRACT: note_off channel=0 note=59 velocity=63 time=0
EXTRACT: note_off channel=0 note=55 velocity=63 time=0
EXTRACT: note_off channel=0 note=50 velocity=63 time=0
EXTRACT: note_off channel=0 note=45 velocity=63 time=0
EXTRACT: note_on channel=0 note=64 velocity=63 time=0.11298075416666667
EXTRACT: note_on channel=0 note=59 velocity=63 time=0
EXTRACT: note_on channel=0 note=55 velocity=63 time=0
EXTRACT: note_on channel=0 note=50 velocity=63 time=0
EXTRACT: note_on channel=0 note=45 velocity=63 time=0
EXTRACT: note_off channel=0 note=64 velocity=63 time=0.031249995833333332
EXTRACT: note_off channel=0 note=59 velocity=63 time=0
EXTRACT: note_off channel=0 note=55 velocity=63 time=0
EXTRACT: note_off channel=0 note=50 velocity=63 time=0
EXTRACT: note_off channel=0 note=45 velocity=63 time=0
EXTRACT: note_on channel=0 note=72 velocity=63 time=0.11298075416666667
EXTRACT: note_on channel=0 note=68 velocity=63 time=0
EXTRACT: note_on channel=0 note=65 velocity=63 time=0
EXTRACT: note_on channel=0 note=60 velocity=63 time=0
EXTRACT: note_on channel=0 note=53 velocity=63 time=0
EXTRACT: note_off channel=2 note=56 velocity=79 time=0
EXTRACT: note_on channel=2 note=51 velocity=79 time=0
EXTRACT: note_off channel=0 note=72 velocity=63 time=0.14423075
EXTRACT: note_off channel=0 note=68 velocity=63 time=0
EXTRACT: note_off channel=0 note=65 velocity=63 time=0
EXTRACT: note_off channel=0 note=60 velocity=63 time=0
EXTRACT: note_off channel=0 note=53 velocity=63 time=0
EXTRACT: note_on channel=0 note=72 velocity=63 time=0
EXTRACT: note_on channel=0 note=68 velocity=63 time=0
EXTRACT: note_on channel=0 note=65 velocity=63 time=0
EXTRACT: note_on channel=0 note=60 velocity=63 time=0
EXTRACT: note_on channel=0 note=53 velocity=63 time=0
EXTRACT: note_off channel=2 note=51 velocity=79 time=0
EXTRACT: note_on channel=2 note=53 velocity=54 time=0
EXTRACT: note_off channel=0 note=72 velocity=63 time=0.14423075
EXTRACT: note_off channel=0 note=68 velocity=63 time=0
EXTRACT: note_off channel=0 note=65 velocity=63 time=0
EXTRACT: note_off channel=0 note=60 velocity=63 time=0
EXTRACT: note_off channel=0 note=53 velocity=63 time=0
EXTRACT: note_on channel=0 note=64 velocity=63 time=0
EXTRACT: note_on channel=0 note=59 velocity=63 time=0
EXTRACT: note_on channel=0 note=55 velocity=63 time=0
EXTRACT: note_on channel=0 note=50 velocity=63 time=0
EXTRACT: note_on channel=0 note=45 velocity=63 time=0
EXTRACT: note_off channel=0 note=64 velocity=63 time=0.031249995833333332
EXTRACT: note_off channel=0 note=59 velocity=63 time=0
EXTRACT: note_off channel=0 note=55 velocity=63 time=0
EXTRACT: note_off channel=0 note=50 velocity=63 time=0
EXTRACT: note_off channel=0 note=45 velocity=63 time=0
EXTRACT: note_on channel=0 note=64 velocity=63 time=0.11298075416666667
EXTRACT: note_on channel=0 note=59 velocity=63 time=0
EXTRACT: note_on channel=0 note=55 velocity=63 time=0
EXTRACT: note_on channel=0 note=50 velocity=63 time=0
EXTRACT: note_on channel=0 note=45 velocity=63 time=0
EXTRACT: note_off channel=2 note=53 velocity=54 time=0
EXTRACT: note_on channel=2 note=56 velocity=79 time=0
EXTRACT: note_off channel=0 note=64 velocity=63 time=0.031249995833333332
EXTRACT: note_off channel=0 note=59 velocity=63 time=0
EXTRACT: note_off channel=0 note=55 velocity=63 time=0
EXTRACT: note_off channel=0 note=50 velocity=63 time=0
EXTRACT: note_off channel=0 note=45 velocity=63 time=0
EXTRACT: note_on channel=0 note=72 velocity=63 time=0.11298075416666667
EXTRACT: note_on channel=0 note=68 velocity=63 time=0
EXTRACT: note_on channel=0 note=65 velocity=63 time=0
EXTRACT: note_on channel=0 note=60 velocity=63 time=0
EXTRACT: note_on channel=0 note=53 velocity=63 time=0
EXTRACT: note_off channel=2 note=56 velocity=79 time=0
EXTRACT: note_off channel=0 note=72 velocity=63 time=0.14423075
EXTRACT: note_off channel=0 note=68 velocity=63 time=0
EXTRACT: note_off channel=0 note=65 velocity=63 time=0
EXTRACT: note_off channel=0 note=60 velocity=63 time=0
EXTRACT: note_off channel=0 note=53 velocity=63 time=0
EXTRACT: note_on channel=0 note=72 velocity=63 time=0
EXTRACT: note_on channel=0 note=68 velocity=63 time=0
EXTRACT: note_on channel=0 note=65 velocity=63 time=0
EXTRACT: note_on channel=0 note=60 velocity=63 time=0
EXTRACT: note_on channel=0 note=53 velocity=63 time=0
EXTRACT: note_off channel=0 note=72 velocity=63 time=0.14423075
EXTRACT: note_off channel=0 note=68 velocity=63 time=0
EXTRACT: note_off channel=0 note=65 velocity=63 time=0
EXTRACT: note_off channel=0 note=60 velocity=63 time=0
EXTRACT: note_off channel=0 note=53 velocity=63 time=0
EXTRACT: note_on channel=0 note=64 velocity=63 time=0
EXTRACT: note_on channel=0 note=59 velocity=63 time=0
EXTRACT: note_on channel=0 note=55 velocity=63 time=0
EXTRACT: note_on channel=0 note=50 velocity=63 time=0
EXTRACT: note_on channel=0 note=45 velocity=63 time=0
EXTRACT: note_on channel=2 note=51 velocity=79 time=0
EXTRACT: note_off channel=0 note=64 velocity=63 time=0.031249995833333332
EXTRACT: note_off channel=0 note=59 velocity=63 time=0
EXTRACT: note_off channel=0 note=55 velocity=63 time=0
EXTRACT: note_off channel=0 note=50 velocity=63 time=0
EXTRACT: note_off channel=0 note=45 velocity=63 time=0
EXTRACT: note_on channel=0 note=64 velocity=63 time=0.11298075416666667
EXTRACT: note_on channel=0 note=59 velocity=63 time=0
EXTRACT: note_on channel=0 note=55 velocity=63 time=0
EXTRACT: note_on channel=0 note=50 velocity=63 time=0
EXTRACT: note_on channel=0 note=45 velocity=63 time=0
EXTRACT: note_off channel=0 note=64 velocity=63 time=0.031249995833333332
EXTRACT: note_off channel=0 note=59 velocity=63 time=0
EXTRACT: note_off channel=0 note=55 velocity=63 time=0
EXTRACT: note_off channel=0 note=50 velocity=63 time=0
EXTRACT: note_off channel=0 note=45 velocity=63 time=0
EXTRACT: note_on channel=0 note=72 velocity=63 time=0.11298075416666667
EXTRACT: note_on channel=0 note=68 velocity=63 time=0
EXTRACT: note_on channel=0 note=65 velocity=63 time=0
EXTRACT: note_on channel=0 note=60 velocity=63 time=0
EXTRACT: note_on channel=0 note=53 velocity=63 time=0
EXTRACT: note_off channel=2 note=51 velocity=79 time=0
EXTRACT: note_off channel=0 note=72 velocity=63 time=0.14423075
EXTRACT: note_off channel=0 note=68 velocity=63 time=0
EXTRACT: note_off channel=0 note=65 velocity=63 time=0
EXTRACT: note_off channel=0 note=60 velocity=63 time=0
EXTRACT: note_off channel=0 note=53 velocity=63 time=0
EXTRACT: note_on channel=0 note=72 velocity=63 time=0
EXTRACT: note_on channel=0 note=68 velocity=63 time=0
EXTRACT: note_on channel=0 note=65 velocity=63 time=0
EXTRACT: note_on channel=0 note=60 velocity=63 time=0
EXTRACT: note_on channel=0 note=53 velocity=63 time=0
EXTRACT: note_off channel=0 note=72 velocity=63 time=0.14423075
EXTRACT: note_off channel=0 note=68 velocity=63 time=0
EXTRACT: note_off channel=0 note=65 velocity=63 time=0
EXTRACT: note_off channel=0 note=60 velocity=63 time=0
EXTRACT: note_off channel=0 note=53 velocity=63 time=0
EXTRACT: note_on channel=0 note=64 velocity=63 time=0
EXTRACT: note_on channel=0 note=59 velocity=63 time=0
EXTRACT: note_on channel=0 note=55 velocity=63 time=0
EXTRACT: note_on channel=0 note=50 velocity=63 time=0
EXTRACT: note_on channel=0 note=45 velocity=63 time=0
EXTRACT: note_on channel=2 note=48 velocity=79 time=0
EXTRACT: note_off channel=0 note=64 velocity=63 time=0.031249995833333332
EXTRACT: note_off channel=0 note=59 velocity=63 time=0
EXTRACT: note_off channel=0 note=55 velocity=63 time=0
EXTRACT: note_off channel=0 note=50 velocity=63 time=0
EXTRACT: note_off channel=0 note=45 velocity=63 time=0
EXTRACT: note_on channel=0 note=64 velocity=63 time=0.11298075416666667
EXTRACT: note_on channel=0 note=59 velocity=63 time=0
EXTRACT: note_on channel=0 note=55 velocity=63 time=0
EXTRACT: note_on channel=0 note=50 velocity=63 time=0
EXTRACT: note_on channel=0 note=45 velocity=63 time=0
EXTRACT: note_off channel=0 note=64 velocity=63 time=0.031249995833333332
EXTRACT: note_off channel=0 note=59 velocity=63 time=0
EXTRACT: note_off channel=0 note=55 velocity=63 time=0
EXTRACT: note_off channel=0 note=50 velocity=63 time=0
EXTRACT: note_off channel=0 note=45 velocity=63 time=0
EXTRACT: note_on channel=0 note=72 velocity=63 time=0.11298075416666667
EXTRACT: note_on channel=0 note=68 velocity=63 time=0
EXTRACT: note_on channel=0 note=65 velocity=63 time=0
EXTRACT: note_on channel=0 note=60 velocity=63 time=0
EXTRACT: note_on channel=0 note=53 velocity=63 time=0
EXTRACT: note_off channel=2 note=48 velocity=79 time=0
EXTRACT: note_on channel=2 note=46 velocity=79 time=0
EXTRACT: note_off channel=0 note=72 velocity=63 time=0.14423075
EXTRACT: note_off channel=0 note=68 velocity=63 time=0
EXTRACT: note_off channel=0 note=65 velocity=63 time=0
EXTRACT: note_off channel=0 note=60 velocity=63 time=0
EXTRACT: note_off channel=0 note=53 velocity=63 time=0
EXTRACT: note_on channel=0 note=72 velocity=63 time=0
EXTRACT: note_on channel=0 note=68 velocity=63 time=0
EXTRACT: note_on channel=0 note=65 velocity=63 time=0
EXTRACT: note_on channel=0 note=60 velocity=63 time=0
EXTRACT: note_on channel=0 note=53 velocity=63 time=0
EXTRACT: note_off channel=2 note=46 velocity=79 time=0
EXTRACT: note_on channel=2 note=48 velocity=54 time=0
EXTRACT: note_off channel=0 note=72 velocity=63 time=0.14423075
EXTRACT: note_off channel=0 note=68 velocity=63 time=0
EXTRACT: note_off channel=0 note=65 velocity=63 time=0
EXTRACT: note_off channel=0 note=60 velocity=63 time=0
EXTRACT: note_off channel=0 note=53 velocity=63 time=0
EXTRACT: note_on channel=0 note=64 velocity=63 time=0
EXTRACT: note_on channel=0 note=59 velocity=63 time=0
EXTRACT: note_on channel=0 note=55 velocity=63 time=0
EXTRACT: note_on channel=0 note=50 velocity=63 time=0
EXTRACT: note_on channel=0 note=45 velocity=63 time=0
EXTRACT: note_off channel=2 note=48 velocity=54 time=0
EXTRACT: note_on channel=2 note=51 velocity=79 time=0
EXTRACT: note_off channel=0 note=64 velocity=63 time=0.031249995833333332
EXTRACT: note_off channel=0 note=59 velocity=63 time=0
EXTRACT: note_off channel=0 note=55 velocity=63 time=0
EXTRACT: note_off channel=0 note=50 velocity=63 time=0
EXTRACT: note_off channel=0 note=45 velocity=63 time=0
EXTRACT: note_on channel=0 note=64 velocity=63 time=0.11298075416666667
EXTRACT: note_on channel=0 note=59 velocity=63 time=0
EXTRACT: note_on channel=0 note=55 velocity=63 time=0
EXTRACT: note_on channel=0 note=50 velocity=63 time=0
EXTRACT: note_on channel=0 note=45 velocity=63 time=0
EXTRACT: note_off channel=0 note=64 velocity=63 time=0.031249995833333332
EXTRACT: note_off channel=0 note=59 velocity=63 time=0
EXTRACT: note_off channel=0 note=55 velocity=63 time=0
EXTRACT: note_off channel=0 note=50 velocity=63 time=0
EXTRACT: note_off channel=0 note=45 velocity=63 time=0
EXTRACT: note_on channel=0 note=72 velocity=63 time=0.11298075416666667
EXTRACT: note_on channel=0 note=68 velocity=63 time=0
EXTRACT: note_on channel=0 note=65 velocity=63 time=0
EXTRACT: note_on channel=0 note=60 velocity=63 time=0
EXTRACT: note_on channel=0 note=53 velocity=63 time=0
EXTRACT: note_off channel=2 note=51 velocity=79 time=0
EXTRACT: note_on channel=2 note=46 velocity=79 time=0
EXTRACT: note_off channel=0 note=72 velocity=63 time=0.14423075
EXTRACT: note_off channel=0 note=68 velocity=63 time=0
EXTRACT: note_off channel=0 note=65 velocity=63 time=0
EXTRACT: note_off channel=0 note=60 velocity=63 time=0
EXTRACT: note_off channel=0 note=53 velocity=63 time=0
EXTRACT: note_on channel=0 note=72 velocity=63 time=0
EXTRACT: note_on channel=0 note=68 velocity=63 time=0
EXTRACT: note_on channel=0 note=65 velocity=63 time=0
EXTRACT: note_on channel=0 note=60 velocity=63 time=0
EXTRACT: note_on channel=0 note=53 velocity=63 time=0
EXTRACT: note_off channel=2 note=46 velocity=79 time=0
EXTRACT: note_on channel=2 note=48 velocity=54 time=0
EXTRACT: note_off channel=0 note=72 velocity=63 time=0.14423075
EXTRACT: note_off channel=0 note=68 velocity=63 time=0
EXTRACT: note_off channel=0 note=65 velocity=63 time=0
EXTRACT: note_off channel=0 note=60 velocity=63 time=0
EXTRACT: note_off channel=0 note=53 velocity=63 time=0
EXTRACT: note_on channel=0 note=64 velocity=63 time=0
EXTRACT: note_on channel=0 note=59 velocity=63 time=0
EXTRACT: note_on channel=0 note=55 velocity=63 time=0
EXTRACT: note_on channel=0 note=50 velocity=63 time=0
EXTRACT: note_on channel=0 note=45 velocity=63 time=0
EXTRACT: note_off channel=2 note=48 velocity=54 time=0
EXTRACT: note_on channel=2 note=51 velocity=79 time=0
EXTRACT: note_off channel=0 note=64 velocity=63 time=0.031249995833333332
EXTRACT: note_off channel=0 note=59 velocity=63 time=0
EXTRACT: note_off channel=0 note=55 velocity=63 time=0
EXTRACT: note_off channel=0 note=50 velocity=63 time=0
EXTRACT: note_off channel=0 note=45 velocity=63 time=0
EXTRACT: note_on channel=0 note=64 velocity=63 time=0.11298075416666667
EXTRACT: note_on channel=0 note=59 velocity=63 time=0
EXTRACT: note_on channel=0 note=55 velocity=63 time=0
EXTRACT: note_on channel=0 note=50 velocity=63 time=0
EXTRACT: note_on channel=0 note=45 velocity=63 time=0
EXTRACT: note_off channel=0 note=64 velocity=63 time=0.031249995833333332
EXTRACT: note_off channel=0 note=59 velocity=63 time=0
EXTRACT: note_off channel=0 note=55 velocity=63 time=0
EXTRACT: note_off channel=0 note=50 velocity=63 time=0
EXTRACT: note_off channel=0 note=45 velocity=63 time=0
EXTRACT: note_on channel=0 note=72 velocity=63 time=0.11298075416666667
EXTRACT: note_on channel=0 note=68 velocity=63 time=0
EXTRACT: note_on channel=0 note=65 velocity=63 time=0
EXTRACT: note_on channel=0 note=60 velocity=63 time=0
EXTRACT: note_on channel=0 note=53 velocity=63 time=0
EXTRACT: note_off channel=2 note=51 velocity=79 time=0
EXTRACT: note_off channel=0 note=72 velocity=63 time=0.14423075
EXTRACT: note_off channel=0 note=68 velocity=63 time=0
EXTRACT: note_off channel=0 note=65 velocity=63 time=0
EXTRACT: note_off channel=0 note=60 velocity=63 time=0
EXTRACT: note_off channel=0 note=53 velocity=63 time=0
EXTRACT: note_on channel=0 note=72 velocity=63 time=0
EXTRACT: note_on channel=0 note=68 velocity=63 time=0
EXTRACT: note_on channel=0 note=65 velocity=63 time=0
EXTRACT: note_on channel=0 note=60 velocity=63 time=0
EXTRACT: note_on channel=0 note=53 velocity=63 time=0
EXTRACT: note_on channel=2 note=45 velocity=79 time=0
EXTRACT: note_off channel=2 note=45 velocity=79 time=0.031249995833333332
EXTRACT: note_on channel=5 note=72 velocity=95 time=0.04086537916666667
EXTRACT: note_off channel=0 note=72 velocity=63 time=0.072115375
EXTRACT: note_off channel=0 note=68 velocity=63 time=0
EXTRACT: note_off channel=0 note=65 velocity=63 time=0
EXTRACT: note_off channel=0 note=60 velocity=63 time=0
EXTRACT: note_off channel=0 note=53 velocity=63 time=0
EXTRACT: note_on channel=0 note=64 velocity=63 time=0
EXTRACT: note_on channel=0 note=59 velocity=63 time=0
EXTRACT: note_on channel=0 note=55 velocity=63 time=0
EXTRACT: note_on channel=0 note=50 velocity=63 time=0
EXTRACT: note_on channel=0 note=45 velocity=63 time=0
EXTRACT: note_on channel=2 note=46 velocity=79 time=0
EXTRACT: note_off channel=4 note=72 velocity=95 time=0
EXTRACT: note_off channel=5 note=72 velocity=95 time=0
EXTRACT: note_on channel=5 note=72 velocity=95 time=0
EXTRACT: note_off channel=0 note=64 velocity=63 time=0.031249995833333332
EXTRACT: note_off channel=0 note=59 velocity=63 time=0
EXTRACT: note_off channel=0 note=55 velocity=63 time=0
EXTRACT: note_off channel=0 note=50 velocity=63 time=0
EXTRACT: note_off channel=0 note=45 velocity=63 time=0
EXTRACT: note_on channel=0 note=64 velocity=63 time=0.11298075416666667
EXTRACT: note_on channel=0 note=59 velocity=63 time=0
EXTRACT: note_on channel=0 note=55 velocity=63 time=0
EXTRACT: note_on channel=0 note=50 velocity=63 time=0
EXTRACT: note_on channel=0 note=45 velocity=63 time=0
EXTRACT: note_off channel=0 note=64 velocity=63 time=0.031249995833333332
EXTRACT: note_off channel=0 note=59 velocity=63 time=0
EXTRACT: note_off channel=0 note=55 velocity=63 time=0
EXTRACT: note_off channel=0 note=50 velocity=63 time=0
EXTRACT: note_off channel=0 note=45 velocity=63 time=0
EXTRACT: note_on channel=5 note=72 velocity=95 time=0.04086537916666667
EXTRACT: note_on channel=0 note=72 velocity=63 time=0.072115375
EXTRACT: note_on channel=0 note=68 velocity=63 time=0
EXTRACT: note_on channel=0 note=65 velocity=63 time=0
EXTRACT: note_on channel=0 note=60 velocity=63 time=0
EXTRACT: note_on channel=0 note=53 velocity=63 time=0
EXTRACT: note_off channel=2 note=46 velocity=79 time=0
EXTRACT: note_on channel=2 note=48 velocity=79 time=0
EXTRACT: note_off channel=5 note=72 velocity=95 time=0
EXTRACT: note_off channel=5 note=72 velocity=95 time=0
EXTRACT: note_on channel=5 note=72 velocity=95 time=0
EXTRACT: note_off channel=0 note=72 velocity=63 time=0.14423075
EXTRACT: note_off channel=0 note=68 velocity=63 time=0
EXTRACT: note_off channel=0 note=65 velocity=63 time=0
EXTRACT: note_off channel=0 note=60 velocity=63 time=0
EXTRACT: note_off channel=0 note=53 velocity=63 time=0
EXTRACT: note_on channel=0 note=72 velocity=63 time=0
EXTRACT: note_on channel=0 note=68 velocity=63 time=0
EXTRACT: note_on channel=0 note=65 velocity=63 time=0
EXTRACT: note_on channel=0 note=60 velocity=63 time=0
EXTRACT: note_on channel=0 note=53 velocity=63 time=0
EXTRACT: note_off channel=0 note=72 velocity=63 time=0.14423075
EXTRACT: note_off channel=0 note=68 velocity=63 time=0
EXTRACT: note_off channel=0 note=65 velocity=63 time=0
EXTRACT: note_off channel=0 note=60 velocity=63 time=0
EXTRACT: note_off channel=0 note=53 velocity=63 time=0
EXTRACT: note_on channel=0 note=64 velocity=63 time=0
EXTRACT: note_on channel=0 note=59 velocity=63 time=0
EXTRACT: note_on channel=0 note=55 velocity=63 time=0
EXTRACT: note_on channel=0 note=50 velocity=63 time=0
EXTRACT: note_on channel=0 note=45 velocity=63 time=0
EXTRACT: note_off channel=2 note=48 velocity=79 time=0
EXTRACT: note_on channel=2 note=51 velocity=79 time=0
EXTRACT: note_off channel=5 note=72 velocity=95 time=0
EXTRACT: note_on channel=4 note=70 velocity=95 time=0
EXTRACT: note_off channel=0 note=64 velocity=63 time=0.031249995833333332
EXTRACT: note_off channel=0 note=59 velocity=63 time=0
EXTRACT: note_off channel=0 note=55 velocity=63 time=0
EXTRACT: note_off channel=0 note=50 velocity=63 time=0
EXTRACT: note_off channel=0 note=45 velocity=63 time=0
EXTRACT: note_on channel=0 note=64 velocity=63 time=0.11298075416666667
EXTRACT: note_on channel=0 note=59 velocity=63 time=0
EXTRACT: note_on channel=0 note=55 velocity=63 time=0
EXTRACT: note_on channel=0 note=50 velocity=63 time=0
EXTRACT: note_on channel=0 note=45 velocity=63 time=0
EXTRACT: note_off channel=0 note=64 velocity=63 time=0.031249995833333332
EXTRACT: note_off channel=0 note=59 velocity=63 time=0
EXTRACT: note_off channel=0 note=55 velocity=63 time=0
EXTRACT: note_off channel=0 note=50 velocity=63 time=0
EXTRACT: note_off channel=0 note=45 velocity=63 time=0
EXTRACT: note_on channel=5 note=70 velocity=95 time=0.04086537916666667
EXTRACT: note_on channel=0 note=72 velocity=63 time=0.072115375
EXTRACT: note_on channel=0 note=68 velocity=63 time=0
EXTRACT: note_on channel=0 note=65 velocity=63 time=0
EXTRACT: note_on channel=0 note=60 velocity=63 time=0
EXTRACT: note_on channel=0 note=53 velocity=63 time=0
EXTRACT: note_off channel=2 note=51 velocity=79 time=0
EXTRACT: note_on channel=2 note=53 velocity=79 time=0
EXTRACT: note_off channel=4 note=70 velocity=95 time=0
EXTRACT: note_off channel=5 note=70 velocity=95 time=0
EXTRACT: note_on channel=5 note=70 velocity=95 time=0
EXTRACT: note_off channel=0 note=72 velocity=63 time=0.14423075
EXTRACT: note_off channel=0 note=68 velocity=63 time=0
EXTRACT: note_off channel=0 note=65 velocity=63 time=0
EXTRACT: note_off channel=0 note=60 velocity=63 time=0
EXTRACT: note_off channel=0 note=53 velocity=63 time=0
EXTRACT: note_on channel=0 note=72 velocity=63 time=0
EXTRACT: note_on channel=0 note=68 velocity=63 time=0
EXTRACT: note_on channel=0 note=65 velocity=63 time=0
EXTRACT: note_on channel=0 note=60 velocity=63 time=0
EXTRACT: note_on channel=0 note=53 velocity=63 time=0
EXTRACT: note_off channel=0 note=72 velocity=63 time=0.14423075
EXTRACT: note_off channel=0 note=68 velocity=63 time=0
EXTRACT: note_off channel=0 note=65 velocity=63 time=0
EXTRACT: note_off channel=0 note=60 velocity=63 time=0
EXTRACT: note_off channel=0 note=53 velocity=63 time=0
EXTRACT: note_on channel=0 note=64 velocity=63 time=0
EXTRACT: note_on channel=0 note=59 velocity=63 time=0
EXTRACT: note_on channel=0 note=55 velocity=63 time=0
EXTRACT: note_on channel=0 note=50 velocity=63 time=0
EXTRACT: note_on channel=0 note=45 velocity=63 time=0
EXTRACT: note_off channel=2 note=53 velocity=79 time=0
EXTRACT: note_on channel=2 note=56 velocity=79 time=0
EXTRACT: note_off channel=5 note=70 velocity=95 time=0
EXTRACT: note_on channel=4 note=68 velocity=95 time=0
EXTRACT: note_off channel=0 note=64 velocity=63 time=0.031249995833333332
EXTRACT: note_off channel=0 note=59 velocity=63 time=0
EXTRACT: note_off channel=0 note=55 velocity=63 time=0
EXTRACT: note_off channel=0 note=50 velocity=63 time=0
EXTRACT: note_off channel=0 note=45 velocity=63 time=0
EXTRACT: note_on channel=0 note=64 velocity=63 time=0.11298075416666667
EXTRACT: note_on channel=0 note=59 velocity=63 time=0
EXTRACT: note_on channel=0 note=55 velocity=63 time=0
EXTRACT: note_on channel=0 note=50 velocity=63 time=0
EXTRACT: note_on channel=0 note=45 velocity=63 time=0
EXTRACT: note_off channel=0 note=64 velocity=63 time=0.031249995833333332
EXTRACT: note_off channel=0 note=59 velocity=63 time=0
EXTRACT: note_off channel=0 note=55 velocity=63 time=0
EXTRACT: note_off channel=0 note=50 velocity=63 time=0
EXTRACT: note_off channel=0 note=45 velocity=63 time=0
EXTRACT: note_on channel=0 note=70 velocity=63 time=0.11298075416666667
EXTRACT: note_on channel=0 note=65 velocity=63 time=0
EXTRACT: note_on channel=0 note=62 velocity=63 time=0
EXTRACT: note_on channel=0 note=58 velocity=63 time=0
EXTRACT: note_on channel=0 note=53 velocity=63 time=0
EXTRACT: note_on channel=0 note=46 velocity=63 time=0
EXTRACT: note_off channel=2 note=56 velocity=79 time=0
EXTRACT: note_on channel=2 note=53 velocity=79 time=0
EXTRACT: note_off channel=4 note=68 velocity=95 time=0
EXTRACT: note_off channel=0 note=70 velocity=63 time=0.14423075
EXTRACT: note_off channel=0 note=65 velocity=63 time=0
EXTRACT: note_off channel=0 note=62 velocity=63 time=0
EXTRACT: note_off channel=0 note=58 velocity=63 time=0
EXTRACT: note_off channel=0 note=53 velocity=63 time=0
EXTRACT: note_off channel=0 note=46 velocity=63 time=0
EXTRACT: note_on channel=0 note=70 velocity=63 time=0
EXTRACT: note_on channel=0 note=65 velocity=63 time=0
EXTRACT: note_on channel=0 note=62 velocity=63 time=0
EXTRACT: note_on channel=0 note=58 velocity=63 time=0
EXTRACT: note_on channel=0 note=53 velocity=63 time=0
EXTRACT: note_on channel=0 note=46 velocity=63 time=0
EXTRACT: note_off channel=2 note=53 velocity=79 time=0
EXTRACT: note_off channel=0 note=70 velocity=63 time=0.14423075
EXTRACT: note_off channel=0 note=65 velocity=63 time=0
EXTRACT: note_off channel=0 note=62 velocity=63 time=0
EXTRACT: note_off channel=0 note=58 velocity=63 time=0
EXTRACT: note_off channel=0 note=53 velocity=63 time=0
EXTRACT: note_off channel=0 note=46 velocity=63 time=0
EXTRACT: note_on channel=0 note=64 velocity=63 time=0
EXTRACT: note_on channel=0 note=59 velocity=63 time=0
EXTRACT: note_on channel=0 note=55 velocity=63 time=0
EXTRACT: note_on channel=0 note=50 velocity=63 time=0
EXTRACT: note_on channel=0 note=45 velocity=63 time=0
EXTRACT: note_on channel=0 note=40 velocity=63 time=0
EXTRACT: note_on channel=2 note=58 velocity=79 time=0
EXTRACT: note_on channel=4 note=58 velocity=95 time=0
EXTRACT: note_off channel=0 note=64 velocity=63 time=0.031249995833333332
EXTRACT: note_off channel=0 note=59 velocity=63 time=0
EXTRACT: note_off channel=0 note=55 velocity=63 time=0
EXTRACT: note_off channel=0 note=50 velocity=63 time=0
EXTRACT: note_off channel=0 note=45 velocity=63 time=0
EXTRACT: note_off channel=0 note=40 velocity=63 time=0
EXTRACT: note_on channel=0 note=64 velocity=63 time=0.11298075416666667
EXTRACT: note_on channel=0 note=59 velocity=63 time=0
EXTRACT: note_on channel=0 note=55 velocity=63 time=0
EXTRACT: note_on channel=0 note=50 velocity=63 time=0
EXTRACT: note_on channel=0 note=45 velocity=63 time=0
EXTRACT: note_on channel=0 note=40 velocity=63 time=0
EXTRACT: note_off channel=2 note=58 velocity=79 time=0
EXTRACT: note_off channel=0 note=64 velocity=63 time=0.031249995833333332
EXTRACT: note_off channel=0 note=59 velocity=63 time=0
EXTRACT: note_off channel=0 note=55 velocity=63 time=0
EXTRACT: note_off channel=0 note=50 velocity=63 time=0
EXTRACT: note_off channel=0 note=45 velocity=63 time=0
EXTRACT: note_off channel=0 note=40 velocity=63 time=0
EXTRACT: note_on channel=0 note=70 velocity=63 time=0.11298075416666667
EXTRACT: note_on channel=0 note=65 velocity=63 time=0
EXTRACT: note_on channel=0 note=62 velocity=63 time=0
EXTRACT: note_on channel=0 note=58 velocity=63 time=0
EXTRACT: note_on channel=0 note=53 velocity=63 time=0
EXTRACT: note_on channel=0 note=46 velocity=63 time=0
EXTRACT: note_on channel=2 note=70 velocity=79 time=0
EXTRACT: note_on channel=2 note=65 velocity=79 time=0
EXTRACT: note_on channel=2 note=62 velocity=79 time=0
EXTRACT: note_off channel=4 note=58 velocity=95 time=0
EXTRACT: note_on channel=4 note=58 velocity=95 time=0
EXTRACT: note_off channel=0 note=70 velocity=63 time=0.14423075
EXTRACT: note_off channel=0 note=65 velocity=63 time=0
EXTRACT: note_off channel=0 note=62 velocity=63 time=0
EXTRACT: note_off channel=0 note=58 velocity=63 time=0
EXTRACT: note_off channel=0 note=53 velocity=63 time=0
EXTRACT: note_off channel=0 note=46 velocity=63 time=0
EXTRACT: note_on channel=0 note=70 velocity=63 time=0
EXTRACT: note_on channel=0 note=65 velocity=63 time=0
EXTRACT: note_on channel=0 note=62 velocity=63 time=0
EXTRACT: note_on channel=0 note=58 velocity=63 time=0
EXTRACT: note_on channel=0 note=53 velocity=63 time=0
EXTRACT: note_on channel=0 note=46 velocity=63 time=0
EXTRACT: note_off channel=2 note=70 velocity=79 time=0
EXTRACT: note_off channel=2 note=65 velocity=79 time=0
EXTRACT: note_off channel=2 note=62 velocity=79 time=0
EXTRACT: note_off channel=0 note=70 velocity=63 time=0.14423075
EXTRACT: note_off channel=0 note=65 velocity=63 time=0
EXTRACT: note_off channel=0 note=62 velocity=63 time=0
EXTRACT: note_off channel=0 note=58 velocity=63 time=0
EXTRACT: note_off channel=0 note=53 velocity=63 time=0
EXTRACT: note_off channel=0 note=46 velocity=63 time=0
EXTRACT: note_on channel=0 note=64 velocity=63 time=0
EXTRACT: note_on channel=0 note=59 velocity=63 time=0
EXTRACT: note_on channel=0 note=55 velocity=63 time=0
EXTRACT: note_on channel=0 note=50 velocity=63 time=0
EXTRACT: note_on channel=0 note=45 velocity=63 time=0
EXTRACT: note_on channel=0 note=40 velocity=63 time=0
EXTRACT: note_off channel=4 note=58 velocity=95 time=0
EXTRACT: note_on channel=4 note=56 velocity=95 time=0
EXTRACT: note_off channel=0 note=64 velocity=63 time=0.031249995833333332
EXTRACT: note_off channel=0 note=59 velocity=63 time=0
EXTRACT: note_off channel=0 note=55 velocity=63 time=0
EXTRACT: note_off channel=0 note=50 velocity=63 time=0
EXTRACT: note_off channel=0 note=45 velocity=63 time=0
EXTRACT: note_off channel=0 note=40 velocity=63 time=0
EXTRACT: note_on channel=0 note=64 velocity=63 time=0.11298075416666667
EXTRACT: note_on channel=0 note=59 velocity=63 time=0
EXTRACT: note_on channel=0 note=55 velocity=63 time=0
EXTRACT: note_on channel=0 note=50 velocity=63 time=0
EXTRACT: note_on channel=0 note=45 velocity=63 time=0
EXTRACT: note_on channel=0 note=40 velocity=63 time=0
EXTRACT: note_off channel=0 note=64 velocity=63 time=0.031249995833333332
EXTRACT: note_off channel=0 note=59 velocity=63 time=0
EXTRACT: note_off channel=0 note=55 velocity=63 time=0
EXTRACT: note_off channel=0 note=50 velocity=63 time=0
EXTRACT: note_off channel=0 note=45 velocity=63 time=0
EXTRACT: note_off channel=0 note=40 velocity=63 time=0
EXTRACT: note_on channel=5 note=60 velocity=95 time=0.04086537916666667
EXTRACT: note_on channel=0 note=70 velocity=63 time=0.072115375
EXTRACT: note_on channel=0 note=65 velocity=63 time=0
EXTRACT: note_on channel=0 note=62 velocity=63 time=0
EXTRACT: note_on channel=0 note=58 velocity=63 time=0
EXTRACT: note_on channel=0 note=53 velocity=63 time=0
EXTRACT: note_on channel=0 note=46 velocity=63 time=0
EXTRACT: note_off channel=4 note=56 velocity=95 time=0
EXTRACT: note_off channel=5 note=60 velocity=95 time=0
EXTRACT: note_on channel=5 note=60 velocity=95 time=0
EXTRACT: note_off channel=0 note=70 velocity=63 time=0.14423075
EXTRACT: note_off channel=0 note=65 velocity=63 time=0
EXTRACT: note_off channel=0 note=62 velocity=63 time=0
EXTRACT: note_off channel=0 note=58 velocity=63 time=0
EXTRACT: note_off channel=0 note=53 velocity=63 time=0
EXTRACT: note_off channel=0 note=46 velocity=63 time=0
EXTRACT: note_on channel=0 note=70 velocity=63 time=0
EXTRACT: note_on channel=0 note=65 velocity=63 time=0
EXTRACT: note_on channel=0 note=62 velocity=63 time=0
EXTRACT: note_on channel=0 note=58 velocity=63 time=0
EXTRACT: note_on channel=0 note=53 velocity=63 time=0
EXTRACT: note_on channel=0 note=46 velocity=63 time=0
EXTRACT: note_on channel=2 note=56 velocity=79 time=0
EXTRACT: note_off channel=0 note=70 velocity=63 time=0.14423075
EXTRACT: note_off channel=0 note=65 velocity=63 time=0
EXTRACT: note_off channel=0 note=62 velocity=63 time=0
EXTRACT: note_off channel=0 note=58 velocity=63 time=0
EXTRACT: note_off channel=0 note=53 velocity=63 time=0
EXTRACT: note_off channel=0 note=46 velocity=63 time=0
EXTRACT: note_on channel=0 note=64 velocity=63 time=0
EXTRACT: note_on channel=0 note=59 velocity=63 time=0
EXTRACT: note_on channel=0 note=55 velocity=63 time=0
EXTRACT: note_on channel=0 note=50 velocity=63 time=0
EXTRACT: note_on channel=0 note=45 velocity=63 time=0
EXTRACT: note_on channel=0 note=40 velocity=63 time=0
EXTRACT: note_off channel=2 note=56 velocity=79 time=0
EXTRACT: note_off channel=0 note=64 velocity=63 time=0.031249995833333332
EXTRACT: note_off channel=0 note=59 velocity=63 time=0
EXTRACT: note_off channel=0 note=55 velocity=63 time=0
EXTRACT: note_off channel=0 note=50 velocity=63 time=0
EXTRACT: note_off channel=0 note=45 velocity=63 time=0
EXTRACT: note_off channel=0 note=40 velocity=63 time=0
EXTRACT: note_on channel=0 note=64 velocity=63 time=0.11298075416666667
EXTRACT: note_on channel=0 note=59 velocity=63 time=0
EXTRACT: note_on channel=0 note=55 velocity=63 time=0
EXTRACT: note_on channel=0 note=50 velocity=63 time=0
EXTRACT: note_on channel=0 note=45 velocity=63 time=0
EXTRACT: note_on channel=0 note=40 velocity=63 time=0
EXTRACT: note_on channel=2 note=50 velocity=79 time=0
EXTRACT: note_off channel=5 note=60 velocity=95 time=0
EXTRACT: note_on channel=4 note=58 velocity=95 time=0
EXTRACT: note_off channel=0 note=64 velocity=63 time=0.031249995833333332
EXTRACT: note_off channel=0 note=59 velocity=63 time=0
EXTRACT: note_off channel=0 note=55 velocity=63 time=0
EXTRACT: note_off channel=0 note=50 velocity=63 time=0
EXTRACT: note_off channel=0 note=45 velocity=63 time=0
EXTRACT: note_off channel=0 note=40 velocity=63 time=0
EXTRACT: note_on channel=0 note=70 velocity=63 time=0.11298075416666667
EXTRACT: note_on channel=0 note=65 velocity=63 time=0
EXTRACT: note_on channel=0 note=62 velocity=63 time=0
EXTRACT: note_on channel=0 note=58 velocity=63 time=0
EXTRACT: note_on channel=0 note=53 velocity=63 time=0
EXTRACT: note_on channel=0 note=46 velocity=63 time=0
EXTRACT: note_off channel=2 note=50 velocity=79 time=0
EXTRACT: note_on channel=2 note=56 velocity=79 time=0
EXTRACT: note_off channel=0 note=70 velocity=63 time=0.14423075
EXTRACT: note_off channel=0 note=65 velocity=63 time=0
EXTRACT: note_off channel=0 note=62 velocity=63 time=0
EXTRACT: note_off channel=0 note=58 velocity=63 time=0
EXTRACT: note_off channel=0 note=53 velocity=63 time=0
EXTRACT: note_off channel=0 note=46 velocity=63 time=0
EXTRACT: note_on channel=0 note=70 velocity=63 time=0
EXTRACT: note_on channel=0 note=65 velocity=63 time=0
EXTRACT: note_on channel=0 note=62 velocity=63 time=0
EXTRACT: note_on channel=0 note=58 velocity=63 time=0
EXTRACT: note_on channel=0 note=53 velocity=63 time=0
EXTRACT: note_on channel=0 note=46 velocity=63 time=0
EXTRACT: note_off channel=4 note=58 velocity=95 time=0
EXTRACT: note_on channel=4 note=56 velocity=95 time=0
EXTRACT: note_off channel=0 note=70 velocity=63 time=0.14423075
EXTRACT: note_off channel=0 note=65 velocity=63 time=0
EXTRACT: note_off channel=0 note=62 velocity=63 time=0
EXTRACT: note_off channel=0 note=58 velocity=63 time=0
EXTRACT: note_off channel=0 note=53 velocity=63 time=0
EXTRACT: note_off channel=0 note=46 velocity=63 time=0
EXTRACT: note_on channel=0 note=64 velocity=63 time=0
EXTRACT: note_on channel=0 note=59 velocity=63 time=0
EXTRACT: note_on channel=0 note=55 velocity=63 time=0
EXTRACT: note_on channel=0 note=50 velocity=63 time=0
EXTRACT: note_on channel=0 note=45 velocity=63 time=0
EXTRACT: note_on channel=0 note=40 velocity=63 time=0
EXTRACT: note_off channel=2 note=56 velocity=79 time=0
EXTRACT: note_on channel=2 note=70 velocity=79 time=0
EXTRACT: note_on channel=2 note=65 velocity=79 time=0
EXTRACT: note_on channel=2 note=62 velocity=79 time=0
EXTRACT: note_off channel=4 note=56 velocity=95 time=0
EXTRACT: note_on channel=4 note=53 velocity=95 time=0
EXTRACT: note_off channel=0 note=64 velocity=63 time=0.031249995833333332
EXTRACT: note_off channel=0 note=59 velocity=63 time=0
EXTRACT: note_off channel=0 note=55 velocity=63 time=0
EXTRACT: note_off channel=0 note=50 velocity=63 time=0
EXTRACT: note_off channel=0 note=45 velocity=63 time=0
EXTRACT: note_off channel=0 note=40 velocity=63 time=0
EXTRACT: note_on channel=0 note=64 velocity=63 time=0.11298075416666667
EXTRACT: note_on channel=0 note=59 velocity=63 time=0
EXTRACT: note_on channel=0 note=55 velocity=63 time=0
EXTRACT: note_on channel=0 note=50 velocity=63 time=0
EXTRACT: note_on channel=0 note=45 velocity=63 time=0
EXTRACT: note_on channel=0 note=40 velocity=63 time=0
EXTRACT: note_off channel=2 note=70 velocity=79 time=0
EXTRACT: note_off channel=2 note=65 velocity=79 time=0
EXTRACT: note_off channel=2 note=62 velocity=79 time=0
EXTRACT: note_off channel=4 note=53 velocity=95 time=0
EXTRACT: note_off channel=0 note=64 velocity=63 time=0.031249995833333332
EXTRACT: note_off channel=0 note=59 velocity=63 time=0
EXTRACT: note_off channel=0 note=55 velocity=63 time=0
EXTRACT: note_off channel=0 note=50 velocity=63 time=0
EXTRACT: note_off channel=0 note=45 velocity=63 time=0
EXTRACT: note_off channel=0 note=40 velocity=63 time=0
EXTRACT: note_on channel=0 note=70 velocity=63 time=0.11298075416666667
EXTRACT: note_on channel=0 note=65 velocity=63 time=0
EXTRACT: note_on channel=0 note=62 velocity=63 time=0
EXTRACT: note_on channel=0 note=58 velocity=63 time=0
EXTRACT: note_on channel=0 note=53 velocity=63 time=0
EXTRACT: note_on channel=0 note=46 velocity=63 time=0
EXTRACT: note_on channel=2 note=53 velocity=79 time=0
EXTRACT: note_off channel=0 note=70 velocity=63 time=0.14423075
EXTRACT: note_off channel=0 note=65 velocity=63 time=0
EXTRACT: note_off channel=0 note=62 velocity=63 time=0
EXTRACT: note_off channel=0 note=58 velocity=63 time=0
EXTRACT: note_off channel=0 note=53 velocity=63 time=0
EXTRACT: note_off channel=0 note=46 velocity=63 time=0
EXTRACT: note_on channel=0 note=70 velocity=63 time=0
EXTRACT: note_on channel=0 note=65 velocity=63 time=0
EXTRACT: note_on channel=0 note=62 velocity=63 time=0
EXTRACT: note_on channel=0 note=58 velocity=63 time=0
EXTRACT: note_on channel=0 note=53 velocity=63 time=0
EXTRACT: note_on channel=0 note=46 velocity=63 time=0
EXTRACT: note_off channel=2 note=53 velocity=79 time=0
EXTRACT: note_off channel=0 note=70 velocity=63 time=0.14423075
EXTRACT: note_off channel=0 note=65 velocity=63 time=0
EXTRACT: note_off channel=0 note=62 velocity=63 time=0
EXTRACT: note_off channel=0 note=58 velocity=63 time=0
EXTRACT: note_off channel=0 note=53 velocity=63 time=0
EXTRACT: note_off channel=0 note=46 velocity=63 time=0
EXTRACT: note_on channel=0 note=64 velocity=63 time=0
EXTRACT: note_on channel=0 note=59 velocity=63 time=0
EXTRACT: note_on channel=0 note=55 velocity=63 time=0
EXTRACT: note_on channel=0 note=50 velocity=63 time=0
EXTRACT: note_on channel=0 note=45 velocity=63 time=0
EXTRACT: note_on channel=0 note=40 velocity=63 time=0
EXTRACT: note_on channel=2 note=58 velocity=79 time=0
EXTRACT: note_on channel=4 note=58 velocity=95 time=0
EXTRACT: note_off channel=0 note=64 velocity=63 time=0.031249995833333332
EXTRACT: note_off channel=0 note=59 velocity=63 time=0
EXTRACT: note_off channel=0 note=55 velocity=63 time=0
EXTRACT: note_off channel=0 note=50 velocity=63 time=0
EXTRACT: note_off channel=0 note=45 velocity=63 time=0
EXTRACT: note_off channel=0 note=40 velocity=63 time=0
EXTRACT: note_on channel=0 note=64 velocity=63 time=0.11298075416666667
EXTRACT: note_on channel=0 note=59 velocity=63 time=0
EXTRACT: note_on channel=0 note=55 velocity=63 time=0
EXTRACT: note_on channel=0 note=50 velocity=63 time=0
EXTRACT: note_on channel=0 note=45 velocity=63 time=0
EXTRACT: note_on channel=0 note=40 velocity=63 time=0
EXTRACT: note_off channel=2 note=58 velocity=79 time=0
EXTRACT: note_off channel=0 note=64 velocity=63 time=0.031249995833333332
EXTRACT: note_off channel=0 note=59 velocity=63 time=0
EXTRACT: note_off channel=0 note=55 velocity=63 time=0
EXTRACT: note_off channel=0 note=50 velocity=63 time=0
EXTRACT: note_off channel=0 note=45 velocity=63 time=0
EXTRACT: note_off channel=0 note=40 velocity=63 time=0
EXTRACT: note_on channel=0 note=70 velocity=63 time=0.11298075416666667
EXTRACT: note_on channel=0 note=65 velocity=63 time=0
EXTRACT: note_on channel=0 note=62 velocity=63 time=0
EXTRACT: note_on channel=0 note=58 velocity=63 time=0
EXTRACT: note_on channel=0 note=53 velocity=63 time=0
EXTRACT: note_on channel=0 note=46 velocity=63 time=0
EXTRACT: note_on channel=2 note=70 velocity=79 time=0
EXTRACT: note_on channel=2 note=65 velocity=79 time=0
EXTRACT: note_on channel=2 note=62 velocity=79 time=0
EXTRACT: note_off channel=4 note=58 velocity=95 time=0
EXTRACT: note_on channel=4 note=58 velocity=95 time=0
EXTRACT: note_off channel=0 note=70 velocity=63 time=0.14423075
EXTRACT: note_off channel=0 note=65 velocity=63 time=0
EXTRACT: note_off channel=0 note=62 velocity=63 time=0
EXTRACT: note_off channel=0 note=58 velocity=63 time=0
EXTRACT: note_off channel=0 note=53 velocity=63 time=0
EXTRACT: note_off channel=0 note=46 velocity=63 time=0
EXTRACT: note_on channel=0 note=70 velocity=63 time=0
EXTRACT: note_on channel=0 note=65 velocity=63 time=0
EXTRACT: note_on channel=0 note=62 velocity=63 time=0
EXTRACT: note_on channel=0 note=58 velocity=63 time=0
EXTRACT: note_on channel=0 note=53 velocity=63 time=0
EXTRACT: note_on channel=0 note=46 velocity=63 time=0
EXTRACT: note_off channel=2 note=70 velocity=79 time=0
EXTRACT: note_off channel=2 note=65 velocity=79 time=0
EXTRACT: note_off channel=2 note=62 velocity=79 time=0
EXTRACT: note_off channel=0 note=70 velocity=63 time=0.14423075
EXTRACT: note_off channel=0 note=65 velocity=63 time=0
EXTRACT: note_off channel=0 note=62 velocity=63 time=0
EXTRACT: note_off channel=0 note=58 velocity=63 time=0
EXTRACT: note_off channel=0 note=53 velocity=63 time=0
EXTRACT: note_off channel=0 note=46 velocity=63 time=0
EXTRACT: note_on channel=0 note=64 velocity=63 time=0
EXTRACT: note_on channel=0 note=59 velocity=63 time=0
EXTRACT: note_on channel=0 note=55 velocity=63 time=0
EXTRACT: note_on channel=0 note=50 velocity=63 time=0
EXTRACT: note_on channel=0 note=45 velocity=63 time=0
EXTRACT: note_on channel=0 note=40 velocity=63 time=0
EXTRACT: note_off channel=4 note=58 velocity=95 time=0
EXTRACT: note_on channel=4 note=56 velocity=95 time=0
EXTRACT: note_off channel=0 note=64 velocity=63 time=0.031249995833333332
EXTRACT: note_off channel=0 note=59 velocity=63 time=0
EXTRACT: note_off channel=0 note=55 velocity=63 time=0
EXTRACT: note_off channel=0 note=50 velocity=63 time=0
EXTRACT: note_off channel=0 note=45 velocity=63 time=0
EXTRACT: note_off channel=0 note=40 velocity=63 time=0
EXTRACT: note_on channel=0 note=64 velocity=63 time=0.11298075416666667
EXTRACT: note_on channel=0 note=59 velocity=63 time=0
EXTRACT: note_on channel=0 note=55 velocity=63 time=0
EXTRACT: note_on channel=0 note=50 velocity=63 time=0
EXTRACT: note_on channel=0 note=45 velocity=63 time=0
EXTRACT: note_on channel=0 note=40 velocity=63 time=0
EXTRACT: note_off channel=0 note=64 velocity=63 time=0.031249995833333332
EXTRACT: note_off channel=0 note=59 velocity=63 time=0
EXTRACT: note_off channel=0 note=55 velocity=63 time=0
EXTRACT: note_off channel=0 note=50 velocity=63 time=0
EXTRACT: note_off channel=0 note=45 velocity=63 time=0
EXTRACT: note_off channel=0 note=40 velocity=63 time=0
EXTRACT: note_on channel=0 note=70 velocity=63 time=0.11298075416666667
EXTRACT: note_on channel=0 note=65 velocity=63 time=0
EXTRACT: note_on channel=0 note=62 velocity=63 time=0
EXTRACT: note_on channel=0 note=58 velocity=63 time=0
EXTRACT: note_on channel=0 note=53 velocity=63 time=0
EXTRACT: note_on channel=0 note=46 velocity=63 time=0
EXTRACT: note_off channel=4 note=56 velocity=95 time=0
EXTRACT: note_on channel=4 note=60 velocity=95 time=0
EXTRACT: note_off channel=0 note=70 velocity=63 time=0.14423075
EXTRACT: note_off channel=0 note=65 velocity=63 time=0
EXTRACT: note_off channel=0 note=62 velocity=63 time=0
EXTRACT: note_off channel=0 note=58 velocity=63 time=0
EXTRACT: note_off channel=0 note=53 velocity=63 time=0
EXTRACT: note_off channel=0 note=46 velocity=63 time=0
EXTRACT: note_on channel=0 note=70 velocity=63 time=0
EXTRACT: note_on channel=0 note=65 velocity=63 time=0
EXTRACT: note_on channel=0 note=62 velocity=63 time=0
EXTRACT: note_on channel=0 note=58 velocity=63 time=0
EXTRACT: note_on channel=0 note=53 velocity=63 time=0
EXTRACT: note_on channel=0 note=46 velocity=63 time=0
EXTRACT: note_on channel=2 note=56 velocity=79 time=0
EXTRACT: note_off channel=0 note=70 velocity=63 time=0.14423075
EXTRACT: note_off channel=0 note=65 velocity=63 time=0
EXTRACT: note_off channel=0 note=62 velocity=63 time=0
EXTRACT: note_off channel=0 note=58 velocity=63 time=0
EXTRACT: note_off channel=0 note=53 velocity=63 time=0
EXTRACT: note_off channel=0 note=46 velocity=63 time=0
EXTRACT: note_on channel=0 note=64 velocity=63 time=0
EXTRACT: note_on channel=0 note=59 velocity=63 time=0
EXTRACT: note_on channel=0 note=55 velocity=63 time=0
EXTRACT: note_on channel=0 note=50 velocity=63 time=0
EXTRACT: note_on channel=0 note=45 velocity=63 time=0
EXTRACT: note_on channel=0 note=40 velocity=63 time=0
EXTRACT: note_off channel=2 note=56 velocity=79 time=0
EXTRACT: note_off channel=0 note=64 velocity=63 time=0.031249995833333332
EXTRACT: note_off channel=0 note=59 velocity=63 time=0
EXTRACT: note_off channel=0 note=55 velocity=63 time=0
EXTRACT: note_off channel=0 note=50 velocity=63 time=0
EXTRACT: note_off channel=0 note=45 velocity=63 time=0
EXTRACT: note_off channel=0 note=40 velocity=63 time=0
EXTRACT: note_on channel=0 note=64 velocity=63 time=0.11298075416666667
EXTRACT: note_on channel=0 note=59 velocity=63 time=0
EXTRACT: note_on channel=0 note=55 velocity=63 time=0
EXTRACT: note_on channel=0 note=50 velocity=63 time=0
EXTRACT: note_on channel=0 note=45 velocity=63 time=0
EXTRACT: note_on channel=0 note=40 velocity=63 time=0
EXTRACT: note_on channel=2 note=50 velocity=79 time=0
EXTRACT: note_off channel=4 note=60 velocity=95 time=0
EXTRACT: note_on channel=4 note=58 velocity=95 time=0
EXTRACT: note_off channel=0 note=64 velocity=63 time=0.031249995833333332
EXTRACT: note_off channel=0 note=59 velocity=63 time=0
EXTRACT: note_off channel=0 note=55 velocity=63 time=0
EXTRACT: note_off channel=0 note=50 velocity=63 time=0
EXTRACT: note_off channel=0 note=45 velocity=63 time=0
EXTRACT: note_off channel=0 note=40 velocity=63 time=0
EXTRACT: note_on channel=0 note=70 velocity=63 time=0.11298075416666667
EXTRACT: note_on channel=0 note=65 velocity=63 time=0
EXTRACT: note_on channel=0 note=62 velocity=63 time=0
EXTRACT: note_on channel=0 note=58 velocity=63 time=0
EXTRACT: note_on channel=0 note=53 velocity=63 time=0
EXTRACT: note_on channel=0 note=46 velocity=63 time=0
EXTRACT: note_off channel=2 note=50 velocity=79 time=0
EXTRACT: note_on channel=2 note=56 velocity=79 time=0
EXTRACT: note_off channel=0 note=70 velocity=63 time=0.14423075
EXTRACT: note_off channel=0 note=65 velocity=63 time=0
EXTRACT: note_off channel=0 note=62 velocity=63 time=0
EXTRACT: note_off channel=0 note=58 velocity=63 time=0
EXTRACT: note_off channel=0 note=53 velocity=63 time=0
EXTRACT: note_off channel=0 note=46 velocity=63 time=0
EXTRACT: note_on channel=0 note=70 velocity=63 time=0
EXTRACT: note_on channel=0 note=65 velocity=63 time=0
EXTRACT: note_on channel=0 note=62 velocity=63 time=0
EXTRACT: note_on channel=0 note=58 velocity=63 time=0
EXTRACT: note_on channel=0 note=53 velocity=63 time=0
EXTRACT: note_on channel=0 note=46 velocity=63 time=0
EXTRACT: note_off channel=4 note=58 velocity=95 time=0
EXTRACT: note_on channel=4 note=56 velocity=95 time=0
EXTRACT: note_off channel=0 note=70 velocity=63 time=0.14423075
EXTRACT: note_off channel=0 note=65 velocity=63 time=0
EXTRACT: note_off channel=0 note=62 velocity=63 time=0
EXTRACT: note_off channel=0 note=58 velocity=63 time=0
EXTRACT: note_off channel=0 note=53 velocity=63 time=0
EXTRACT: note_off channel=0 note=46 velocity=63 time=0
EXTRACT: note_on channel=0 note=64 velocity=63 time=0
EXTRACT: note_on channel=0 note=59 velocity=63 time=0
EXTRACT: note_on channel=0 note=55 velocity=63 time=0
EXTRACT: note_on channel=0 note=50 velocity=63 time=0
EXTRACT: note_on channel=0 note=45 velocity=63 time=0
EXTRACT: note_on channel=0 note=40 velocity=63 time=0
EXTRACT: note_off channel=2 note=56 velocity=79 time=0
EXTRACT: note_on channel=2 note=70 velocity=79 time=0
EXTRACT: note_on channel=2 note=65 velocity=79 time=0
EXTRACT: note_on channel=2 note=62 velocity=79 time=0
EXTRACT: note_off channel=4 note=56 velocity=95 time=0
EXTRACT: note_on channel=4 note=53 velocity=95 time=0
EXTRACT: note_off channel=0 note=64 velocity=63 time=0.031249995833333332
EXTRACT: note_off channel=0 note=59 velocity=63 time=0
EXTRACT: note_off channel=0 note=55 velocity=63 time=0
EXTRACT: note_off channel=0 note=50 velocity=63 time=0
EXTRACT: note_off channel=0 note=45 velocity=63 time=0
EXTRACT: note_off channel=0 note=40 velocity=63 time=0
EXTRACT: note_on channel=0 note=64 velocity=63 time=0.11298075416666667
EXTRACT: note_on channel=0 note=59 velocity=63 time=0
EXTRACT: note_on channel=0 note=55 velocity=63 time=0
EXTRACT: note_on channel=0 note=50 velocity=63 time=0
EXTRACT: note_on channel=0 note=45 velocity=63 time=0
EXTRACT: note_on channel=0 note=40 velocity=63 time=0
EXTRACT: note_off channel=2 note=70 velocity=79 time=0
EXTRACT: note_off channel=2 note=65 velocity=79 time=0
EXTRACT: note_off channel=2 note=62 velocity=79 time=0
EXTRACT: note_off channel=0 note=64 velocity=63 time=0.031249995833333332
EXTRACT: note_off channel=0 note=59 velocity=63 time=0
EXTRACT: note_off channel=0 note=55 velocity=63 time=0
EXTRACT: note_off channel=0 note=50 velocity=63 time=0
EXTRACT: note_off channel=0 note=45 velocity=63 time=0
EXTRACT: note_off channel=0 note=40 velocity=63 time=0
EXTRACT: note_on channel=0 note=70 velocity=63 time=0.11298075416666667
EXTRACT: note_on channel=0 note=65 velocity=63 time=0
EXTRACT: note_on channel=0 note=62 velocity=63 time=0
EXTRACT: note_on channel=0 note=58 velocity=63 time=0
EXTRACT: note_on channel=0 note=53 velocity=63 time=0
EXTRACT: note_on channel=0 note=46 velocity=63 time=0
EXTRACT: note_off channel=4 note=53 velocity=95 time=0
EXTRACT: note_off channel=0 note=70 velocity=63 time=0.14423075
EXTRACT: note_off channel=0 note=65 velocity=63 time=0
EXTRACT: note_off channel=0 note=62 velocity=63 time=0
EXTRACT: note_off channel=0 note=58 velocity=63 time=0
EXTRACT: note_off channel=0 note=53 velocity=63 time=0
EXTRACT: note_off channel=0 note=46 velocity=63 time=0
EXTRACT: note_on channel=0 note=70 velocity=63 time=0
EXTRACT: note_on channel=0 note=65 velocity=63 time=0
EXTRACT: note_on channel=0 note=62 velocity=63 time=0
EXTRACT: note_on channel=0 note=58 velocity=63 time=0
EXTRACT: note_on channel=0 note=53 velocity=63 time=0
EXTRACT: note_on channel=0 note=46 velocity=63 time=0
EXTRACT: note_off channel=0 note=70 velocity=63 time=0.14423075
EXTRACT: note_off channel=0 note=65 velocity=63 time=0
EXTRACT: note_off channel=0 note=62 velocity=63 time=0
EXTRACT: note_off channel=0 note=58 velocity=63 time=0
EXTRACT: note_off channel=0 note=53 velocity=63 time=0
EXTRACT: note_off channel=0 note=46 velocity=63 time=0
EXTRACT: note_on channel=0 note=64 velocity=63 time=0
EXTRACT: note_on channel=0 note=59 velocity=63 time=0
EXTRACT: note_on channel=0 note=55 velocity=63 time=0
EXTRACT: note_on channel=0 note=50 velocity=63 time=0
EXTRACT: note_on channel=0 note=45 velocity=63 time=0
EXTRACT: note_on channel=0 note=40 velocity=63 time=0
EXTRACT: note_on channel=2 note=58 velocity=79 time=0
EXTRACT: note_off channel=0 note=64 velocity=63 time=0.031249995833333332
EXTRACT: note_off channel=0 note=59 velocity=63 time=0
EXTRACT: note_off channel=0 note=55 velocity=63 time=0
EXTRACT: note_off channel=0 note=50 velocity=63 time=0
EXTRACT: note_off channel=0 note=45 velocity=63 time=0
EXTRACT: note_off channel=0 note=40 velocity=63 time=0
EXTRACT: note_on channel=0 note=64 velocity=63 time=0.11298075416666667
EXTRACT: note_on channel=0 note=59 velocity=63 time=0
EXTRACT: note_on channel=0 note=55 velocity=63 time=0
EXTRACT: note_on channel=0 note=50 velocity=63 time=0
EXTRACT: note_on channel=0 note=45 velocity=63 time=0
EXTRACT: note_on channel=0 note=40 velocity=63 time=0
EXTRACT: note_off channel=0 note=64 velocity=63 time=0.031249995833333332
EXTRACT: note_off channel=0 note=59 velocity=63 time=0
EXTRACT: note_off channel=0 note=55 velocity=63 time=0
EXTRACT: note_off channel=0 note=50 velocity=63 time=0
EXTRACT: note_off channel=0 note=45 velocity=63 time=0
EXTRACT: note_off channel=0 note=40 velocity=63 time=0
EXTRACT: note_on channel=0 note=70 velocity=63 time=0.11298075416666667
EXTRACT: note_on channel=0 note=65 velocity=63 time=0
EXTRACT: note_on channel=0 note=62 velocity=63 time=0
EXTRACT: note_on channel=0 note=58 velocity=63 time=0
EXTRACT: note_on channel=0 note=53 velocity=63 time=0
EXTRACT: note_on channel=0 note=46 velocity=63 time=0
EXTRACT: note_off channel=2 note=58 velocity=79 time=0
EXTRACT: note_off channel=0 note=70 velocity=63 time=0.14423075
EXTRACT: note_off channel=0 note=65 velocity=63 time=0
EXTRACT: note_off channel=0 note=62 velocity=63 time=0
EXTRACT: note_off channel=0 note=58 velocity=63 time=0
EXTRACT: note_off channel=0 note=53 velocity=63 time=0
EXTRACT: note_off channel=0 note=46 velocity=63 time=0
EXTRACT: note_on channel=0 note=70 velocity=63 time=0
EXTRACT: note_on channel=0 note=65 velocity=63 time=0
EXTRACT: note_on channel=0 note=62 velocity=63 time=0
EXTRACT: note_on channel=0 note=58 velocity=63 time=0
EXTRACT: note_on channel=0 note=53 velocity=63 time=0
EXTRACT: note_on channel=0 note=46 velocity=63 time=0
EXTRACT: note_off channel=0 note=70 velocity=63 time=0.14423075
EXTRACT: note_off channel=0 note=65 velocity=63 time=0
EXTRACT: note_off channel=0 note=62 velocity=63 time=0
EXTRACT: note_off channel=0 note=58 velocity=63 time=0
EXTRACT: note_off channel=0 note=53 velocity=63 time=0
EXTRACT: note_off channel=0 note=46 velocity=63 time=0
EXTRACT: note_on channel=0 note=64 velocity=63 time=0
EXTRACT: note_on channel=0 note=59 velocity=63 time=0
EXTRACT: note_on channel=0 note=55 velocity=63 time=0
EXTRACT: note_on channel=0 note=50 velocity=63 time=0
EXTRACT: note_on channel=0 note=45 velocity=63 time=0
EXTRACT: note_on channel=0 note=40 velocity=63 time=0
EXTRACT: note_on channel=4 note=58 velocity=95 time=0
EXTRACT: note_off channel=0 note=64 velocity=63 time=0.031249995833333332
EXTRACT: note_off channel=0 note=59 velocity=63 time=0
EXTRACT: note_off channel=0 note=55 velocity=63 time=0
EXTRACT: note_off channel=0 note=50 velocity=63 time=0
EXTRACT: note_off channel=0 note=45 velocity=63 time=0
EXTRACT: note_off channel=0 note=40 velocity=63 time=0
EXTRACT: note_on channel=0 note=64 velocity=63 time=0.11298075416666667
EXTRACT: note_on channel=0 note=59 velocity=63 time=0
EXTRACT: note_on channel=0 note=55 velocity=63 time=0
EXTRACT: note_on channel=0 note=50 velocity=63 time=0
EXTRACT: note_on channel=0 note=45 velocity=63 time=0
EXTRACT: note_on channel=0 note=40 velocity=63 time=0
EXTRACT: note_on channel=2 note=56 velocity=79 time=0
EXTRACT: note_off channel=4 note=58 velocity=95 time=0
EXTRACT: note_on channel=4 note=56 velocity=95 time=0
EXTRACT: note_off channel=0 note=64 velocity=63 time=0.031249995833333332
EXTRACT: note_off channel=0 note=59 velocity=63 time=0
EXTRACT: note_off channel=0 note=55 velocity=63 time=0
EXTRACT: note_off channel=0 note=50 velocity=63 time=0
EXTRACT: note_off channel=0 note=45 velocity=63 time=0
EXTRACT: note_off channel=0 note=40 velocity=63 time=0
EXTRACT: note_on channel=0 note=70 velocity=63 time=0.11298075416666667
EXTRACT: note_on channel=0 note=65 velocity=63 time=0
EXTRACT: note_on channel=0 note=62 velocity=63 time=0
EXTRACT: note_on channel=0 note=58 velocity=63 time=0
EXTRACT: note_on channel=0 note=53 velocity=63 time=0
EXTRACT: note_on channel=0 note=46 velocity=63 time=0
EXTRACT: note_off channel=2 note=56 velocity=79 time=0
EXTRACT: note_off channel=4 note=56 velocity=95 time=0
EXTRACT: note_on channel=4 note=58 velocity=95 time=0
EXTRACT: note_off channel=0 note=70 velocity=63 time=0.14423075
EXTRACT: note_off channel=0 note=65 velocity=63 time=0
EXTRACT: note_off channel=0 note=62 velocity=63 time=0
EXTRACT: note_off channel=0 note=58 velocity=63 time=0
EXTRACT: note_off channel=0 note=53 velocity=63 time=0
EXTRACT: note_off channel=0 note=46 velocity=63 time=0
EXTRACT: note_on channel=0 note=70 velocity=63 time=0
EXTRACT: note_on channel=0 note=65 velocity=63 time=0
EXTRACT: note_on channel=0 note=62 velocity=63 time=0
EXTRACT: note_on channel=0 note=58 velocity=63 time=0
EXTRACT: note_on channel=0 note=53 velocity=63 time=0
EXTRACT: note_on channel=0 note=46 velocity=63 time=0
EXTRACT: note_on channel=2 note=56 velocity=79 time=0
EXTRACT: note_off channel=0 note=70 velocity=63 time=0.14423075
EXTRACT: note_off channel=0 note=65 velocity=63 time=0
EXTRACT: note_off channel=0 note=62 velocity=63 time=0
EXTRACT: note_off channel=0 note=58 velocity=63 time=0
EXTRACT: note_off channel=0 note=53 velocity=63 time=0
EXTRACT: note_off channel=0 note=46 velocity=63 time=0
EXTRACT: note_on channel=0 note=64 velocity=63 time=0
EXTRACT: note_on channel=0 note=59 velocity=63 time=0
EXTRACT: note_on channel=0 note=55 velocity=63 time=0
EXTRACT: note_on channel=0 note=50 velocity=63 time=0
EXTRACT: note_on channel=0 note=45 velocity=63 time=0
EXTRACT: note_on channel=0 note=40 velocity=63 time=0
EXTRACT: note_off channel=2 note=56 velocity=79 time=0
EXTRACT: note_off channel=4 note=58 velocity=95 time=0
EXTRACT: note_on channel=4 note=56 velocity=95 time=0
EXTRACT: note_off channel=0 note=64 velocity=63 time=0.031249995833333332
EXTRACT: note_off channel=0 note=59 velocity=63 time=0
EXTRACT: note_off channel=0 note=55 velocity=63 time=0
EXTRACT: note_off channel=0 note=50 velocity=63 time=0
EXTRACT: note_off channel=0 note=45 velocity=63 time=0
EXTRACT: note_off channel=0 note=40 velocity=63 time=0
EXTRACT: note_on channel=0 note=64 velocity=63 time=0.11298075416666667
EXTRACT: note_on channel=0 note=59 velocity=63 time=0
EXTRACT: note_on channel=0 note=55 velocity=63 time=0
EXTRACT: note_on channel=0 note=50 velocity=63 time=0
EXTRACT: note_on channel=0 note=45 velocity=63 time=0
EXTRACT: note_on channel=0 note=40 velocity=63 time=0
EXTRACT: note_on channel=2 note=50 velocity=79 time=0
EXTRACT: note_off channel=4 note=56 velocity=95 time=0
EXTRACT: note_on channel=4 note=58 velocity=95 time=0
EXTRACT: note_off channel=0 note=64 velocity=63 time=0.031249995833333332
EXTRACT: note_off channel=0 note=59 velocity=63 time=0
EXTRACT: note_off channel=0 note=55 velocity=63 time=0
EXTRACT: note_off channel=0 note=50 velocity=63 time=0
EXTRACT: note_off channel=0 note=45 velocity=63 time=0
EXTRACT: note_off channel=0 note=40 velocity=63 time=0
EXTRACT: note_on channel=0 note=70 velocity=63 time=0.11298075416666667
EXTRACT: note_on channel=0 note=65 velocity=63 time=0
EXTRACT: note_on channel=0 note=62 velocity=63 time=0
EXTRACT: note_on channel=0 note=58 velocity=63 time=0
EXTRACT: note_on channel=0 note=53 velocity=63 time=0
EXTRACT: note_on channel=0 note=46 velocity=63 time=0
EXTRACT: note_off channel=2 note=50 velocity=79 time=0
EXTRACT: note_on channel=2 note=56 velocity=79 time=0
EXTRACT: note_off channel=0 note=70 velocity=63 time=0.14423075
EXTRACT: note_off channel=0 note=65 velocity=63 time=0
EXTRACT: note_off channel=0 note=62 velocity=63 time=0
EXTRACT: note_off channel=0 note=58 velocity=63 time=0
EXTRACT: note_off channel=0 note=53 velocity=63 time=0
EXTRACT: note_off channel=0 note=46 velocity=63 time=0
EXTRACT: note_on channel=0 note=70 velocity=63 time=0
EXTRACT: note_on channel=0 note=65 velocity=63 time=0
EXTRACT: note_on channel=0 note=62 velocity=63 time=0
EXTRACT: note_on channel=0 note=58 velocity=63 time=0
EXTRACT: note_on channel=0 note=53 velocity=63 time=0
EXTRACT: note_on channel=0 note=46 velocity=63 time=0
EXTRACT: note_off channel=4 note=58 velocity=95 time=0
EXTRACT: note_on channel=4 note=56 velocity=95 time=0
EXTRACT: note_off channel=0 note=70 velocity=63 time=0.14423075
EXTRACT: note_off channel=0 note=65 velocity=63 time=0
EXTRACT: note_off channel=0 note=62 velocity=63 time=0
EXTRACT: note_off channel=0 note=58 velocity=63 time=0
EXTRACT: note_off channel=0 note=53 velocity=63 time=0
EXTRACT: note_off channel=0 note=46 velocity=63 time=0
EXTRACT: note_on channel=0 note=64 velocity=63 time=0
EXTRACT: note_on channel=0 note=59 velocity=63 time=0
EXTRACT: note_on channel=0 note=55 velocity=63 time=0
EXTRACT: note_on channel=0 note=50 velocity=63 time=0
EXTRACT: note_on channel=0 note=45 velocity=63 time=0
EXTRACT: note_on channel=0 note=40 velocity=63 time=0
EXTRACT: note_off channel=2 note=56 velocity=79 time=0
EXTRACT: note_on channel=2 note=58 velocity=79 time=0
EXTRACT: note_off channel=4 note=56 velocity=95 time=0
EXTRACT: note_on channel=4 note=58 velocity=95 time=0
EXTRACT: note_off channel=0 note=64 velocity=63 time=0.031249995833333332
EXTRACT: note_off channel=0 note=59 velocity=63 time=0
EXTRACT: note_off channel=0 note=55 velocity=63 time=0
EXTRACT: note_off channel=0 note=50 velocity=63 time=0
EXTRACT: note_off channel=0 note=45 velocity=63 time=0
EXTRACT: note_off channel=0 note=40 velocity=63 time=0
EXTRACT: note_on channel=0 note=64 velocity=63 time=0.11298075416666667
EXTRACT: note_on channel=0 note=59 velocity=63 time=0
EXTRACT: note_on channel=0 note=55 velocity=63 time=0
EXTRACT: note_on channel=0 note=50 velocity=63 time=0
EXTRACT: note_on channel=0 note=45 velocity=63 time=0
EXTRACT: note_on channel=0 note=40 velocity=63 time=0
EXTRACT: note_off channel=2 note=58 velocity=79 time=0
EXTRACT: note_off channel=4 note=58 velocity=95 time=0
EXTRACT: note_on channel=4 note=56 velocity=95 time=0
EXTRACT: note_off channel=0 note=64 velocity=63 time=0.031249995833333332
EXTRACT: note_off channel=0 note=59 velocity=63 time=0
EXTRACT: note_off channel=0 note=55 velocity=63 time=0
EXTRACT: note_off channel=0 note=50 velocity=63 time=0
EXTRACT: note_off channel=0 note=45 velocity=63 time=0
EXTRACT: note_off channel=0 note=40 velocity=63 time=0
EXTRACT: note_on channel=0 note=72 velocity=63 time=0.11298075416666667
EXTRACT: note_on channel=0 note=68 velocity=63 time=0
EXTRACT: note_on channel=0 note=65 velocity=63 time=0
EXTRACT: note_on channel=0 note=60 velocity=63 time=0
EXTRACT: note_on channel=0 note=53 velocity=63 time=0
EXTRACT: note_on channel=2 note=51 velocity=79 time=0
EXTRACT: note_off channel=4 note=56 velocity=95 time=0
EXTRACT: note_on channel=4 note=53 velocity=95 time=0
EXTRACT: note_off channel=0 note=72 velocity=63 time=0.14423075
EXTRACT: note_off channel=0 note=68 velocity=63 time=0
EXTRACT: note_off channel=0 note=65 velocity=63 time=0
EXTRACT: note_off channel=0 note=60 velocity=63 time=0
EXTRACT: note_off channel=0 note=53 velocity=63 time=0
EXTRACT: note_on channel=0 note=72 velocity=63 time=0
EXTRACT: note_on channel=0 note=68 velocity=63 time=0
EXTRACT: note_on channel=0 note=65 velocity=63 time=0
EXTRACT: note_on channel=0 note=60 velocity=63 time=0
EXTRACT: note_on channel=0 note=53 velocity=63 time=0
EXTRACT: note_off channel=2 note=51 velocity=79 time=0
EXTRACT: note_on channel=2 note=53 velocity=54 time=0
EXTRACT: note_off channel=0 note=72 velocity=63 time=0.14423075
EXTRACT: note_off channel=0 note=68 velocity=63 time=0
EXTRACT: note_off channel=0 note=65 velocity=63 time=0
EXTRACT: note_off channel=0 note=60 velocity=63 time=0
EXTRACT: note_off channel=0 note=53 velocity=63 time=0
EXTRACT: note_on channel=0 note=64 velocity=63 time=0
EXTRACT: note_on channel=0 note=59 velocity=63 time=0
EXTRACT: note_on channel=0 note=55 velocity=63 time=0
EXTRACT: note_on channel=0 note=50 velocity=63 time=0
EXTRACT: note_on channel=0 note=45 velocity=63 time=0
EXTRACT: note_off channel=4 note=53 velocity=95 time=0
EXTRACT: note_off channel=0 note=64 velocity=63 time=0.031249995833333332
EXTRACT: note_off channel=0 note=59 velocity=63 time=0
EXTRACT: note_off channel=0 note=55 velocity=63 time=0
EXTRACT: note_off channel=0 note=50 velocity=63 time=0
EXTRACT: note_off channel=0 note=45 velocity=63 time=0
EXTRACT: note_on channel=0 note=64 velocity=63 time=0.11298075416666667
EXTRACT: note_on channel=0 note=59 velocity=63 time=0
EXTRACT: note_on channel=0 note=55 velocity=63 time=0
EXTRACT: note_on channel=0 note=50 velocity=63 time=0
EXTRACT: note_on channel=0 note=45 velocity=63 time=0
EXTRACT: note_off channel=2 note=53 velocity=54 time=0
EXTRACT: note_on channel=2 note=56 velocity=79 time=0
EXTRACT: note_off channel=0 note=64 velocity=63 time=0.031249995833333332
EXTRACT: note_off channel=0 note=59 velocity=63 time=0
EXTRACT: note_off channel=0 note=55 velocity=63 time=0
EXTRACT: note_off channel=0 note=50 velocity=63 time=0
EXTRACT: note_off channel=0 note=45 velocity=63 time=0
EXTRACT: note_on channel=0 note=72 velocity=63 time=0.11298075416666667
EXTRACT: note_on channel=0 note=68 velocity=63 time=0
EXTRACT: note_on channel=0 note=65 velocity=63 time=0
EXTRACT: note_on channel=0 note=60 velocity=63 time=0
EXTRACT: note_on channel=0 note=53 velocity=63 time=0
EXTRACT: note_off channel=2 note=56 velocity=79 time=0
EXTRACT: note_off channel=0 note=72 velocity=63 time=0.14423075
EXTRACT: note_off channel=0 note=68 velocity=63 time=0
EXTRACT: note_off channel=0 note=65 velocity=63 time=0
EXTRACT: note_off channel=0 note=60 velocity=63 time=0
EXTRACT: note_off channel=0 note=53 velocity=63 time=0
EXTRACT: note_on channel=0 note=72 velocity=63 time=0
EXTRACT: note_on channel=0 note=68 velocity=63 time=0
EXTRACT: note_on channel=0 note=65 velocity=63 time=0
EXTRACT: note_on channel=0 note=60 velocity=63 time=0
EXTRACT: note_on channel=0 note=53 velocity=63 time=0
EXTRACT: note_off channel=0 note=72 velocity=63 time=0.14423075
EXTRACT: note_off channel=0 note=68 velocity=63 time=0
EXTRACT: note_off channel=0 note=65 velocity=63 time=0
EXTRACT: note_off channel=0 note=60 velocity=63 time=0
EXTRACT: note_off channel=0 note=53 velocity=63 time=0
EXTRACT: note_on channel=0 note=64 velocity=63 time=0
EXTRACT: note_on channel=0 note=59 velocity=63 time=0
EXTRACT: note_on channel=0 note=55 velocity=63 time=0
EXTRACT: note_on channel=0 note=50 velocity=63 time=0
EXTRACT: note_on channel=0 note=45 velocity=63 time=0
EXTRACT: note_on channel=2 note=51 velocity=79 time=0
EXTRACT: note_on channel=6 note=65 velocity=95 time=0
EXTRACT: note_off channel=0 note=64 velocity=63 time=0.031249995833333332
EXTRACT: note_off channel=0 note=59 velocity=63 time=0
EXTRACT: note_off channel=0 note=55 velocity=63 time=0
EXTRACT: note_off channel=0 note=50 velocity=63 time=0
EXTRACT: note_off channel=0 note=45 velocity=63 time=0
EXTRACT: note_on channel=0 note=64 velocity=63 time=0.11298075416666667
EXTRACT: note_on channel=0 note=59 velocity=63 time=0
EXTRACT: note_on channel=0 note=55 velocity=63 time=0
EXTRACT: note_on channel=0 note=50 velocity=63 time=0
EXTRACT: note_on channel=0 note=45 velocity=63 time=0
EXTRACT: note_off channel=6 note=65 velocity=95 time=0
EXTRACT: note_on channel=6 note=68 velocity=95 time=0
EXTRACT: note_off channel=0 note=64 velocity=63 time=0.031249995833333332
EXTRACT: note_off channel=0 note=59 velocity=63 time=0
EXTRACT: note_off channel=0 note=55 velocity=63 time=0
EXTRACT: note_off channel=0 note=50 velocity=63 time=0
EXTRACT: note_off channel=0 note=45 velocity=63 time=0
EXTRACT: note_on channel=0 note=72 velocity=63 time=0.11298075416666667
EXTRACT: note_on channel=0 note=68 velocity=63 time=0
EXTRACT: note_on channel=0 note=65 velocity=63 time=0
EXTRACT: note_on channel=0 note=60 velocity=63 time=0
EXTRACT: note_on channel=0 note=53 velocity=63 time=0
EXTRACT: note_off channel=2 note=51 velocity=79 time=0
EXTRACT: note_off channel=6 note=68 velocity=95 time=0
EXTRACT: note_off channel=0 note=72 velocity=63 time=0.14423075
EXTRACT: note_off channel=0 note=68 velocity=63 time=0
EXTRACT: note_off channel=0 note=65 velocity=63 time=0
EXTRACT: note_off channel=0 note=60 velocity=63 time=0
EXTRACT: note_off channel=0 note=53 velocity=63 time=0
EXTRACT: note_on channel=0 note=72 velocity=63 time=0
EXTRACT: note_on channel=0 note=68 velocity=63 time=0
EXTRACT: note_on channel=0 note=65 velocity=63 time=0
EXTRACT: note_on channel=0 note=60 velocity=63 time=0
EXTRACT: note_on channel=0 note=53 velocity=63 time=0
EXTRACT: note_off channel=0 note=72 velocity=63 time=0.14423075
EXTRACT: note_off channel=0 note=68 velocity=63 time=0
EXTRACT: note_off channel=0 note=65 velocity=63 time=0
EXTRACT: note_off channel=0 note=60 velocity=63 time=0
EXTRACT: note_off channel=0 note=53 velocity=63 time=0
EXTRACT: note_on channel=0 note=64 velocity=63 time=0
EXTRACT: note_on channel=0 note=59 velocity=63 time=0
EXTRACT: note_on channel=0 note=55 velocity=63 time=0
EXTRACT: note_on channel=0 note=50 velocity=63 time=0
EXTRACT: note_on channel=0 note=45 velocity=63 time=0
EXTRACT: note_on channel=2 note=48 velocity=79 time=0
EXTRACT: note_off channel=0 note=64 velocity=63 time=0.031249995833333332
EXTRACT: note_off channel=0 note=59 velocity=63 time=0
EXTRACT: note_off channel=0 note=55 velocity=63 time=0
EXTRACT: note_off channel=0 note=50 velocity=63 time=0
EXTRACT: note_off channel=0 note=45 velocity=63 time=0
EXTRACT: note_on channel=0 note=64 velocity=63 time=0.11298075416666667
EXTRACT: note_on channel=0 note=59 velocity=63 time=0
EXTRACT: note_on channel=0 note=55 velocity=63 time=0
EXTRACT: note_on channel=0 note=50 velocity=63 time=0
EXTRACT: note_on channel=0 note=45 velocity=63 time=0
EXTRACT: note_off channel=0 note=64 velocity=63 time=0.031249995833333332
EXTRACT: note_off channel=0 note=59 velocity=63 time=0
EXTRACT: note_off channel=0 note=55 velocity=63 time=0
EXTRACT: note_off channel=0 note=50 velocity=63 time=0
EXTRACT: note_off channel=0 note=45 velocity=63 time=0
EXTRACT: note_on channel=0 note=72 velocity=63 time=0.11298075416666667
EXTRACT: note_on channel=0 note=68 velocity=63 time=0
EXTRACT: note_on channel=0 note=65 velocity=63 time=0
EXTRACT: note_on channel=0 note=60 velocity=63 time=0
EXTRACT: note_on channel=0 note=53 velocity=63 time=0
EXTRACT: note_off channel=2 note=48 velocity=79 time=0
EXTRACT: note_on channel=2 note=46 velocity=79 time=0
EXTRACT: note_on channel=4 note=48 velocity=95 time=0
EXTRACT: note_off channel=0 note=72 velocity=63 time=0.14423075
EXTRACT: note_off channel=0 note=68 velocity=63 time=0
EXTRACT: note_off channel=0 note=65 velocity=63 time=0
EXTRACT: note_off channel=0 note=60 velocity=63 time=0
EXTRACT: note_off channel=0 note=53 velocity=63 time=0
EXTRACT: note_on channel=0 note=72 velocity=63 time=0
EXTRACT: note_on channel=0 note=68 velocity=63 time=0
EXTRACT: note_on channel=0 note=65 velocity=63 time=0
EXTRACT: note_on channel=0 note=60 velocity=63 time=0
EXTRACT: note_on channel=0 note=53 velocity=63 time=0
EXTRACT: note_off channel=2 note=46 velocity=79 time=0
EXTRACT: note_on channel=2 note=48 velocity=54 time=0
EXTRACT: note_off channel=0 note=72 velocity=63 time=0.14423075
EXTRACT: note_off channel=0 note=68 velocity=63 time=0
EXTRACT: note_off channel=0 note=65 velocity=63 time=0
EXTRACT: note_off channel=0 note=60 velocity=63 time=0
EXTRACT: note_off channel=0 note=53 velocity=63 time=0
EXTRACT: note_on channel=0 note=64 velocity=63 time=0
EXTRACT: note_on channel=0 note=59 velocity=63 time=0
EXTRACT: note_on channel=0 note=55 velocity=63 time=0
EXTRACT: note_on channel=0 note=50 velocity=63 time=0
EXTRACT: note_on channel=0 note=45 velocity=63 time=0
EXTRACT: note_off channel=2 note=48 velocity=54 time=0
EXTRACT: note_on channel=2 note=51 velocity=79 time=0
EXTRACT: note_off channel=4 note=48 velocity=95 time=0
EXTRACT: note_off channel=0 note=64 velocity=63 time=0.031249995833333332
EXTRACT: note_off channel=0 note=59 velocity=63 time=0
EXTRACT: note_off channel=0 note=55 velocity=63 time=0
EXTRACT: note_off channel=0 note=50 velocity=63 time=0
EXTRACT: note_off channel=0 note=45 velocity=63 time=0
EXTRACT: note_on channel=0 note=64 velocity=63 time=0.11298075416666667
EXTRACT: note_on channel=0 note=59 velocity=63 time=0
EXTRACT: note_on channel=0 note=55 velocity=63 time=0
EXTRACT: note_on channel=0 note=50 velocity=63 time=0
EXTRACT: note_on channel=0 note=45 velocity=63 time=0
EXTRACT: note_off channel=0 note=64 velocity=63 time=0.031249995833333332
EXTRACT: note_off channel=0 note=59 velocity=63 time=0
EXTRACT: note_off channel=0 note=55 velocity=63 time=0
EXTRACT: note_off channel=0 note=50 velocity=63 time=0
EXTRACT: note_off channel=0 note=45 velocity=63 time=0
EXTRACT: note_on channel=0 note=72 velocity=63 time=0.11298075416666667
EXTRACT: note_on channel=0 note=68 velocity=63 time=0
EXTRACT: note_on channel=0 note=65 velocity=63 time=0
EXTRACT: note_on channel=0 note=60 velocity=63 time=0
EXTRACT: note_on channel=0 note=53 velocity=63 time=0
EXTRACT: note_off channel=2 note=51 velocity=79 time=0
EXTRACT: note_on channel=2 note=46 velocity=79 time=0
EXTRACT: note_on channel=6 note=65 velocity=95 time=0
EXTRACT: note_off channel=0 note=72 velocity=63 time=0.14423075
EXTRACT: note_off channel=0 note=68 velocity=63 time=0
EXTRACT: note_off channel=0 note=65 velocity=63 time=0
EXTRACT: note_off channel=0 note=60 velocity=63 time=0
EXTRACT: note_off channel=0 note=53 velocity=63 time=0
EXTRACT: note_on channel=0 note=72 velocity=63 time=0
EXTRACT: note_on channel=0 note=68 velocity=63 time=0
EXTRACT: note_on channel=0 note=65 velocity=63 time=0
EXTRACT: note_on channel=0 note=60 velocity=63 time=0
EXTRACT: note_on channel=0 note=53 velocity=63 time=0
EXTRACT: note_off channel=2 note=46 velocity=79 time=0
EXTRACT: note_on channel=2 note=48 velocity=54 time=0
EXTRACT: note_off channel=6 note=65 velocity=95 time=0
EXTRACT: note_on channel=6 note=68 velocity=95 time=0
EXTRACT: note_off channel=0 note=72 velocity=63 time=0.14423075
EXTRACT: note_off channel=0 note=68 velocity=63 time=0
EXTRACT: note_off channel=0 note=65 velocity=63 time=0
EXTRACT: note_off channel=0 note=60 velocity=63 time=0
EXTRACT: note_off channel=0 note=53 velocity=63 time=0
EXTRACT: note_on channel=0 note=64 velocity=63 time=0
EXTRACT: note_on channel=0 note=59 velocity=63 time=0
EXTRACT: note_on channel=0 note=55 velocity=63 time=0
EXTRACT: note_on channel=0 note=50 velocity=63 time=0
EXTRACT: note_on channel=0 note=45 velocity=63 time=0
EXTRACT: note_off channel=2 note=48 velocity=54 time=0
EXTRACT: note_on channel=2 note=51 velocity=79 time=0
EXTRACT: note_off channel=6 note=68 velocity=95 time=0
EXTRACT: note_on channel=6 note=70 velocity=95 time=0
EXTRACT: note_off channel=0 note=64 velocity=63 time=0.031249995833333332
EXTRACT: note_off channel=0 note=59 velocity=63 time=0
EXTRACT: note_off channel=0 note=55 velocity=63 time=0
EXTRACT: note_off channel=0 note=50 velocity=63 time=0
EXTRACT: note_off channel=0 note=45 velocity=63 time=0
EXTRACT: note_on channel=0 note=64 velocity=63 time=0.11298075416666667
EXTRACT: note_on channel=0 note=59 velocity=63 time=0
EXTRACT: note_on channel=0 note=55 velocity=63 time=0
EXTRACT: note_on channel=0 note=50 velocity=63 time=0
EXTRACT: note_on channel=0 note=45 velocity=63 time=0
EXTRACT: note_off channel=6 note=70 velocity=95 time=0
EXTRACT: note_on channel=6 note=72 velocity=95 time=0
EXTRACT: note_off channel=0 note=64 velocity=63 time=0.031249995833333332
EXTRACT: note_off channel=0 note=59 velocity=63 time=0
EXTRACT: note_off channel=0 note=55 velocity=63 time=0
EXTRACT: note_off channel=0 note=50 velocity=63 time=0
EXTRACT: note_off channel=0 note=45 velocity=63 time=0
EXTRACT: note_on channel=0 note=72 velocity=63 time=0.11298075416666667
EXTRACT: note_on channel=0 note=68 velocity=63 time=0
EXTRACT: note_on channel=0 note=65 velocity=63 time=0
EXTRACT: note_on channel=0 note=60 velocity=63 time=0
EXTRACT: note_on channel=0 note=53 velocity=63 time=0
EXTRACT: note_off channel=2 note=51 velocity=79 time=0
EXTRACT: note_off channel=6 note=72 velocity=95 time=0
EXTRACT: note_off channel=0 note=72 velocity=63 time=0.14423075
EXTRACT: note_off channel=0 note=68 velocity=63 time=0
EXTRACT: note_off channel=0 note=65 velocity=63 time=0
EXTRACT: note_off channel=0 note=60 velocity=63 time=0
EXTRACT: note_off channel=0 note=53 velocity=63 time=0
EXTRACT: note_on channel=0 note=72 velocity=63 time=0
EXTRACT: note_on channel=0 note=68 velocity=63 time=0
EXTRACT: note_on channel=0 note=65 velocity=63 time=0
EXTRACT: note_on channel=0 note=60 velocity=63 time=0
EXTRACT: note_on channel=0 note=53 velocity=63 time=0
EXTRACT: note_on channel=2 note=45 velocity=79 time=0
EXTRACT: note_off channel=2 note=45 velocity=79 time=0.031249995833333332
EXTRACT: note_off channel=0 note=72 velocity=63 time=0.11298075416666667
EXTRACT: note_off channel=0 note=68 velocity=63 time=0
EXTRACT: note_off channel=0 note=65 velocity=63 time=0
EXTRACT: note_off channel=0 note=60 velocity=63 time=0
EXTRACT: note_off channel=0 note=53 velocity=63 time=0
EXTRACT: note_on channel=0 note=64 velocity=63 time=0
EXTRACT: note_on channel=0 note=59 velocity=63 time=0
EXTRACT: note_on channel=0 note=55 velocity=63 time=0
EXTRACT: note_on channel=0 note=50 velocity=63 time=0
EXTRACT: note_on channel=0 note=45 velocity=63 time=0
EXTRACT: note_on channel=2 note=46 velocity=79 time=0
EXTRACT: note_off channel=0 note=64 velocity=63 time=0.031249995833333332
EXTRACT: note_off channel=0 note=59 velocity=63 time=0
EXTRACT: note_off channel=0 note=55 velocity=63 time=0
EXTRACT: note_off channel=0 note=50 velocity=63 time=0
EXTRACT: note_off channel=0 note=45 velocity=63 time=0
EXTRACT: note_on channel=0 note=64 velocity=63 time=0.11298075416666667
EXTRACT: note_on channel=0 note=59 velocity=63 time=0
EXTRACT: note_on channel=0 note=55 velocity=63 time=0
EXTRACT: note_on channel=0 note=50 velocity=63 time=0
EXTRACT: note_on channel=0 note=45 velocity=63 time=0
EXTRACT: note_off channel=0 note=64 velocity=63 time=0.031249995833333332
EXTRACT: note_off channel=0 note=59 velocity=63 time=0
EXTRACT: note_off channel=0 note=55 velocity=63 time=0
EXTRACT: note_off channel=0 note=50 velocity=63 time=0
EXTRACT: note_off channel=0 note=45 velocity=63 time=0
EXTRACT: note_on channel=0 note=72 velocity=63 time=0.11298075416666667
EXTRACT: note_on channel=0 note=68 velocity=63 time=0
EXTRACT: note_on channel=0 note=65 velocity=63 time=0
EXTRACT: note_on channel=0 note=60 velocity=63 time=0
EXTRACT: note_on channel=0 note=53 velocity=63 time=0
EXTRACT: note_off channel=2 note=46 velocity=79 time=0
EXTRACT: note_on channel=2 note=48 velocity=79 time=0
EXTRACT: note_on channel=6 note=72 velocity=95 time=0
EXTRACT: note_off channel=0 note=72 velocity=63 time=0.14423075
EXTRACT: note_off channel=0 note=68 velocity=63 time=0
EXTRACT: note_off channel=0 note=65 velocity=63 time=0
EXTRACT: note_off channel=0 note=60 velocity=63 time=0
EXTRACT: note_off channel=0 note=53 velocity=63 time=0
EXTRACT: note_on channel=0 note=72 velocity=63 time=0
EXTRACT: note_on channel=0 note=68 velocity=63 time=0
EXTRACT: note_on channel=0 note=65 velocity=63 time=0
EXTRACT: note_on channel=0 note=60 velocity=63 time=0
EXTRACT: note_on channel=0 note=53 velocity=63 time=0
EXTRACT: note_off channel=6 note=72 velocity=95 time=0
EXTRACT: note_on channel=6 note=75 velocity=95 time=0
EXTRACT: note_off channel=0 note=72 velocity=63 time=0.14423075
EXTRACT: note_off channel=0 note=68 velocity=63 time=0
EXTRACT: note_off channel=0 note=65 velocity=63 time=0
EXTRACT: note_off channel=0 note=60 velocity=63 time=0
EXTRACT: note_off channel=0 note=53 velocity=63 time=0
EXTRACT: note_on channel=0 note=64 velocity=63 time=0
EXTRACT: note_on channel=0 note=59 velocity=63 time=0
EXTRACT: note_on channel=0 note=55 velocity=63 time=0
EXTRACT: note_on channel=0 note=50 velocity=63 time=0
EXTRACT: note_on channel=0 note=45 velocity=63 time=0
EXTRACT: note_off channel=2 note=48 velocity=79 time=0
EXTRACT: note_on channel=2 note=51 velocity=79 time=0
EXTRACT: note_off channel=6 note=75 velocity=95 time=0
EXTRACT: note_on channel=6 note=77 velocity=95 time=0
EXTRACT: note_off channel=0 note=64 velocity=63 time=0.031249995833333332
EXTRACT: note_off channel=0 note=59 velocity=63 time=0
EXTRACT: note_off channel=0 note=55 velocity=63 time=0
EXTRACT: note_off channel=0 note=50 velocity=63 time=0
EXTRACT: note_off channel=0 note=45 velocity=63 time=0
EXTRACT: note_on channel=0 note=64 velocity=63 time=0.11298075416666667
EXTRACT: note_on channel=0 note=59 velocity=63 time=0
EXTRACT: note_on channel=0 note=55 velocity=63 time=0
EXTRACT: note_on channel=0 note=50 velocity=63 time=0
EXTRACT: note_on channel=0 note=45 velocity=63 time=0
EXTRACT: note_off channel=0 note=64 velocity=63 time=0.031249995833333332
EXTRACT: note_off channel=0 note=59 velocity=63 time=0
EXTRACT: note_off channel=0 note=55 velocity=63 time=0
EXTRACT: note_off channel=0 note=50 velocity=63 time=0
EXTRACT: note_off channel=0 note=45 velocity=63 time=0
EXTRACT: note_on channel=0 note=72 velocity=63 time=0.11298075416666667
EXTRACT: note_on channel=0 note=68 velocity=63 time=0
EXTRACT: note_on channel=0 note=65 velocity=63 time=0
EXTRACT: note_on channel=0 note=60 velocity=63 time=0
EXTRACT: note_on channel=0 note=53 velocity=63 time=0
EXTRACT: note_off channel=2 note=51 velocity=79 time=0
EXTRACT: note_on channel=2 note=53 velocity=79 time=0
EXTRACT: note_off channel=6 note=77 velocity=95 time=0
EXTRACT: note_off channel=0 note=72 velocity=63 time=0.14423075
EXTRACT: note_off channel=0 note=68 velocity=63 time=0
EXTRACT: note_off channel=0 note=65 velocity=63 time=0
EXTRACT: note_off channel=0 note=60 velocity=63 time=0
EXTRACT: note_off channel=0 note=53 velocity=63 time=0
EXTRACT: note_on channel=0 note=72 velocity=63 time=0
EXTRACT: note_on channel=0 note=68 velocity=63 time=0
EXTRACT: note_on channel=0 note=65 velocity=63 time=0
EXTRACT: note_on channel=0 note=60 velocity=63 time=0
EXTRACT: note_on channel=0 note=53 velocity=63 time=0
EXTRACT: note_off channel=0 note=72 velocity=63 time=0.14423075
EXTRACT: note_off channel=0 note=68 velocity=63 time=0
EXTRACT: note_off channel=0 note=65 velocity=63 time=0
EXTRACT: note_off channel=0 note=60 velocity=63 time=0
EXTRACT: note_off channel=0 note=53 velocity=63 time=0
EXTRACT: note_on channel=0 note=64 velocity=63 time=0
EXTRACT: note_on channel=0 note=59 velocity=63 time=0
EXTRACT: note_on channel=0 note=55 velocity=63 time=0
EXTRACT: note_on channel=0 note=50 velocity=63 time=0
EXTRACT: note_on channel=0 note=45 velocity=63 time=0
EXTRACT: note_off channel=2 note=53 velocity=79 time=0
EXTRACT: note_on channel=2 note=56 velocity=79 time=0
EXTRACT: note_off channel=0 note=64 velocity=63 time=0.031249995833333332
EXTRACT: note_off channel=0 note=59 velocity=63 time=0
EXTRACT: note_off channel=0 note=55 velocity=63 time=0
EXTRACT: note_off channel=0 note=50 velocity=63 time=0
EXTRACT: note_off channel=0 note=45 velocity=63 time=0
EXTRACT: note_on channel=0 note=64 velocity=63 time=0.11298075416666667
EXTRACT: note_on channel=0 note=59 velocity=63 time=0
EXTRACT: note_on channel=0 note=55 velocity=63 time=0
EXTRACT: note_on channel=0 note=50 velocity=63 time=0
EXTRACT: note_on channel=0 note=45 velocity=63 time=0
EXTRACT: note_off channel=0 note=64 velocity=63 time=0.031249995833333332
EXTRACT: note_off channel=0 note=59 velocity=63 time=0
EXTRACT: note_off channel=0 note=55 velocity=63 time=0
EXTRACT: note_off channel=0 note=50 velocity=63 time=0
EXTRACT: note_off channel=0 note=45 velocity=63 time=0
EXTRACT: note_on channel=0 note=70 velocity=63 time=0.11298075416666667
EXTRACT: note_on channel=0 note=65 velocity=63 time=0
EXTRACT: note_on channel=0 note=62 velocity=63 time=0
EXTRACT: note_on channel=0 note=58 velocity=63 time=0
EXTRACT: note_on channel=0 note=53 velocity=63 time=0
EXTRACT: note_on channel=0 note=46 velocity=63 time=0
EXTRACT: note_off channel=2 note=56 velocity=79 time=0
EXTRACT: note_on channel=2 note=53 velocity=79 time=0
EXTRACT: note_off channel=0 note=70 velocity=63 time=0.14423075
EXTRACT: note_off channel=0 note=65 velocity=63 time=0
EXTRACT: note_off channel=0 note=62 velocity=63 time=0
EXTRACT: note_off channel=0 note=58 velocity=63 time=0
EXTRACT: note_off channel=0 note=53 velocity=63 time=0
EXTRACT: note_off channel=0 note=46 velocity=63 time=0
EXTRACT: note_on channel=0 note=70 velocity=63 time=0
EXTRACT: note_on channel=0 note=65 velocity=63 time=0
EXTRACT: note_on channel=0 note=62 velocity=63 time=0
EXTRACT: note_on channel=0 note=58 velocity=63 time=0
EXTRACT: note_on channel=0 note=53 velocity=63 time=0
EXTRACT: note_on channel=0 note=46 velocity=63 time=0
EXTRACT: note_off channel=2 note=53 velocity=79 time=0
EXTRACT: note_off channel=0 note=70 velocity=63 time=0.14423075
EXTRACT: note_off channel=0 note=65 velocity=63 time=0
EXTRACT: note_off channel=0 note=62 velocity=63 time=0
EXTRACT: note_off channel=0 note=58 velocity=63 time=0
EXTRACT: note_off channel=0 note=53 velocity=63 time=0
EXTRACT: note_off channel=0 note=46 velocity=63 time=0
EXTRACT: note_on channel=0 note=64 velocity=63 time=0
EXTRACT: note_on channel=0 note=59 velocity=63 time=0
EXTRACT: note_on channel=0 note=55 velocity=63 time=0
EXTRACT: note_on channel=0 note=50 velocity=63 time=0
EXTRACT: note_on channel=0 note=45 velocity=63 time=0
EXTRACT: note_on channel=0 note=40 velocity=63 time=0
EXTRACT: note_on channel=2 note=58 velocity=79 time=0
EXTRACT: note_on channel=4 note=58 velocity=95 time=0
EXTRACT: note_off channel=0 note=64 velocity=63 time=0.031249995833333332
EXTRACT: note_off channel=0 note=59 velocity=63 time=0
EXTRACT: note_off channel=0 note=55 velocity=63 time=0
EXTRACT: note_off channel=0 note=50 velocity=63 time=0
EXTRACT: note_off channel=0 note=45 velocity=63 time=0
EXTRACT: note_off channel=0 note=40 velocity=63 time=0
EXTRACT: note_on channel=0 note=64 velocity=63 time=0.11298075416666667
EXTRACT: note_on channel=0 note=59 velocity=63 time=0
EXTRACT: note_on channel=0 note=55 velocity=63 time=0
EXTRACT: note_on channel=0 note=50 velocity=63 time=0
EXTRACT: note_on channel=0 note=45 velocity=63 time=0
EXTRACT: note_on channel=0 note=40 velocity=63 time=0
EXTRACT: note_off channel=2 note=58 velocity=79 time=0
EXTRACT: note_off channel=0 note=64 velocity=63 time=0.031249995833333332
EXTRACT: note_off channel=0 note=59 velocity=63 time=0
EXTRACT: note_off channel=0 note=55 velocity=63 time=0
EXTRACT: note_off channel=0 note=50 velocity=63 time=0
EXTRACT: note_off channel=0 note=45 velocity=63 time=0
EXTRACT: note_off channel=0 note=40 velocity=63 time=0
EXTRACT: note_on channel=0 note=70 velocity=63 time=0.11298075416666667
EXTRACT: note_on channel=0 note=65 velocity=63 time=0
EXTRACT: note_on channel=0 note=62 velocity=63 time=0
EXTRACT: note_on channel=0 note=58 velocity=63 time=0
EXTRACT: note_on channel=0 note=53 velocity=63 time=0
EXTRACT: note_on channel=0 note=46 velocity=63 time=0
EXTRACT: note_on channel=2 note=70 velocity=79 time=0
EXTRACT: note_on channel=2 note=65 velocity=79 time=0
EXTRACT: note_on channel=2 note=62 velocity=79 time=0
EXTRACT: note_off channel=4 note=58 velocity=95 time=0
EXTRACT: note_on channel=4 note=58 velocity=95 time=0
EXTRACT: note_off channel=0 note=70 velocity=63 time=0.14423075
EXTRACT: note_off channel=0 note=65 velocity=63 time=0
EXTRACT: note_off channel=0 note=62 velocity=63 time=0
EXTRACT: note_off channel=0 note=58 velocity=63 time=0
EXTRACT: note_off channel=0 note=53 velocity=63 time=0
EXTRACT: note_off channel=0 note=46 velocity=63 time=0
EXTRACT: note_on channel=0 note=70 velocity=63 time=0
EXTRACT: note_on channel=0 note=65 velocity=63 time=0
EXTRACT: note_on channel=0 note=62 velocity=63 time=0
EXTRACT: note_on channel=0 note=58 velocity=63 time=0
EXTRACT: note_on channel=0 note=53 velocity=63 time=0
EXTRACT: note_on channel=0 note=46 velocity=63 time=0
EXTRACT: note_off channel=2 note=70 velocity=79 time=0
EXTRACT: note_off channel=2 note=65 velocity=79 time=0
EXTRACT: note_off channel=2 note=62 velocity=79 time=0
EXTRACT: note_off channel=0 note=70 velocity=63 time=0.14423075
EXTRACT: note_off channel=0 note=65 velocity=63 time=0
EXTRACT: note_off channel=0 note=62 velocity=63 time=0
EXTRACT: note_off channel=0 note=58 velocity=63 time=0
EXTRACT: note_off channel=0 note=53 velocity=63 time=0
EXTRACT: note_off channel=0 note=46 velocity=63 time=0
EXTRACT: note_on channel=0 note=64 velocity=63 time=0
EXTRACT: note_on channel=0 note=59 velocity=63 time=0
EXTRACT: note_on channel=0 note=55 velocity=63 time=0
EXTRACT: note_on channel=0 note=50 velocity=63 time=0
EXTRACT: note_on channel=0 note=45 velocity=63 time=0
EXTRACT: note_on channel=0 note=40 velocity=63 time=0
EXTRACT: note_off channel=4 note=58 velocity=95 time=0
EXTRACT: note_on channel=4 note=56 velocity=95 time=0
EXTRACT: note_off channel=0 note=64 velocity=63 time=0.031249995833333332
EXTRACT: note_off channel=0 note=59 velocity=63 time=0
EXTRACT: note_off channel=0 note=55 velocity=63 time=0
EXTRACT: note_off channel=0 note=50 velocity=63 time=0
EXTRACT: note_off channel=0 note=45 velocity=63 time=0
EXTRACT: note_off channel=0 note=40 velocity=63 time=0
EXTRACT: note_on channel=0 note=64 velocity=63 time=0.11298075416666667
EXTRACT: note_on channel=0 note=59 velocity=63 time=0
EXTRACT: note_on channel=0 note=55 velocity=63 time=0
EXTRACT: note_on channel=0 note=50 velocity=63 time=0
EXTRACT: note_on channel=0 note=45 velocity=63 time=0
EXTRACT: note_on channel=0 note=40 velocity=63 time=0
EXTRACT: note_off channel=0 note=64 velocity=63 time=0.031249995833333332
EXTRACT: note_off channel=0 note=59 velocity=63 time=0
EXTRACT: note_off channel=0 note=55 velocity=63 time=0
EXTRACT: note_off channel=0 note=50 velocity=63 time=0
EXTRACT: note_off channel=0 note=45 velocity=63 time=0
EXTRACT: note_off channel=0 note=40 velocity=63 time=0
EXTRACT: note_on channel=5 note=60 velocity=95 time=0.04086537916666667
EXTRACT: note_on channel=0 note=70 velocity=63 time=0.072115375
EXTRACT: note_on channel=0 note=65 velocity=63 time=0
EXTRACT: note_on channel=0 note=62 velocity=63 time=0
EXTRACT: note_on channel=0 note=58 velocity=63 time=0
EXTRACT: note_on channel=0 note=53 velocity=63 time=0
EXTRACT: note_on channel=0 note=46 velocity=63 time=0
EXTRACT: note_off channel=4 note=56 velocity=95 time=0
EXTRACT: note_off channel=5 note=60 velocity=95 time=0
EXTRACT: note_on channel=5 note=60 velocity=95 time=0
EXTRACT: note_off channel=0 note=70 velocity=63 time=0.14423075
EXTRACT: note_off channel=0 note=65 velocity=63 time=0
EXTRACT: note_off channel=0 note=62 velocity=63 time=0
EXTRACT: note_off channel=0 note=58 velocity=63 time=0
EXTRACT: note_off channel=0 note=53 velocity=63 time=0
EXTRACT: note_off channel=0 note=46 velocity=63 time=0
EXTRACT: note_on channel=0 note=70 velocity=63 time=0
EXTRACT: note_on channel=0 note=65 velocity=63 time=0
EXTRACT: note_on channel=0 note=62 velocity=63 time=0
EXTRACT: note_on channel=0 note=58 velocity=63 time=0
EXTRACT: note_on channel=0 note=53 velocity=63 time=0
EXTRACT: note_on channel=0 note=46 velocity=63 time=0
EXTRACT: note_on channel=2 note=56 velocity=79 time=0
EXTRACT: note_off channel=0 note=70 velocity=63 time=0.14423075
EXTRACT: note_off channel=0 note=65 velocity=63 time=0
EXTRACT: note_off channel=0 note=62 velocity=63 time=0
EXTRACT: note_off channel=0 note=58 velocity=63 time=0
EXTRACT: note_off channel=0 note=53 velocity=63 time=0
EXTRACT: note_off channel=0 note=46 velocity=63 time=0
EXTRACT: note_on channel=0 note=64 velocity=63 time=0
EXTRACT: note_on channel=0 note=59 velocity=63 time=0
EXTRACT: note_on channel=0 note=55 velocity=63 time=0
EXTRACT: note_on channel=0 note=50 velocity=63 time=0
EXTRACT: note_on channel=0 note=45 velocity=63 time=0
EXTRACT: note_on channel=0 note=40 velocity=63 time=0
EXTRACT: note_off channel=2 note=56 velocity=79 time=0
EXTRACT: note_off channel=0 note=64 velocity=63 time=0.031249995833333332
EXTRACT: note_off channel=0 note=59 velocity=63 time=0
EXTRACT: note_off channel=0 note=55 velocity=63 time=0
EXTRACT: note_off channel=0 note=50 velocity=63 time=0
EXTRACT: note_off channel=0 note=45 velocity=63 time=0
EXTRACT: note_off channel=0 note=40 velocity=63 time=0
EXTRACT: note_on channel=0 note=64 velocity=63 time=0.11298075416666667
EXTRACT: note_on channel=0 note=59 velocity=63 time=0
EXTRACT: note_on channel=0 note=55 velocity=63 time=0
EXTRACT: note_on channel=0 note=50 velocity=63 time=0
EXTRACT: note_on channel=0 note=45 velocity=63 time=0
EXTRACT: note_on channel=0 note=40 velocity=63 time=0
EXTRACT: note_on channel=2 note=50 velocity=79 time=0
EXTRACT: note_off channel=5 note=60 velocity=95 time=0
EXTRACT: note_on channel=4 note=58 velocity=95 time=0
EXTRACT: note_off channel=0 note=64 velocity=63 time=0.031249995833333332
EXTRACT: note_off channel=0 note=59 velocity=63 time=0
EXTRACT: note_off channel=0 note=55 velocity=63 time=0
EXTRACT: note_off channel=0 note=50 velocity=63 time=0
EXTRACT: note_off channel=0 note=45 velocity=63 time=0
EXTRACT: note_off channel=0 note=40 velocity=63 time=0
EXTRACT: note_on channel=0 note=70 velocity=63 time=0.11298075416666667
EXTRACT: note_on channel=0 note=65 velocity=63 time=0
EXTRACT: note_on channel=0 note=62 velocity=63 time=0
EXTRACT: note_on channel=0 note=58 velocity=63 time=0
EXTRACT: note_on channel=0 note=53 velocity=63 time=0
EXTRACT: note_on channel=0 note=46 velocity=63 time=0
EXTRACT: note_off channel=2 note=50 velocity=79 time=0
EXTRACT: note_on channel=2 note=56 velocity=79 time=0
EXTRACT: note_off channel=0 note=70 velocity=63 time=0.14423075
EXTRACT: note_off channel=0 note=65 velocity=63 time=0
EXTRACT: note_off channel=0 note=62 velocity=63 time=0
EXTRACT: note_off channel=0 note=58 velocity=63 time=0
EXTRACT: note_off channel=0 note=53 velocity=63 time=0
EXTRACT: note_off channel=0 note=46 velocity=63 time=0
EXTRACT: note_on channel=0 note=70 velocity=63 time=0
EXTRACT: note_on channel=0 note=65 velocity=63 time=0
EXTRACT: note_on channel=0 note=62 velocity=63 time=0
EXTRACT: note_on channel=0 note=58 velocity=63 time=0
EXTRACT: note_on channel=0 note=53 velocity=63 time=0
EXTRACT: note_on channel=0 note=46 velocity=63 time=0
EXTRACT: note_off channel=4 note=58 velocity=95 time=0
EXTRACT: note_on channel=4 note=56 velocity=95 time=0
EXTRACT: note_off channel=0 note=70 velocity=63 time=0.14423075
EXTRACT: note_off channel=0 note=65 velocity=63 time=0
EXTRACT: note_off channel=0 note=62 velocity=63 time=0
EXTRACT: note_off channel=0 note=58 velocity=63 time=0
EXTRACT: note_off channel=0 note=53 velocity=63 time=0
EXTRACT: note_off channel=0 note=46 velocity=63 time=0
EXTRACT: note_on channel=0 note=64 velocity=63 time=0
EXTRACT: note_on channel=0 note=59 velocity=63 time=0
EXTRACT: note_on channel=0 note=55 velocity=63 time=0
EXTRACT: note_on channel=0 note=50 velocity=63 time=0
EXTRACT: note_on channel=0 note=45 velocity=63 time=0
EXTRACT: note_on channel=0 note=40 velocity=63 time=0
EXTRACT: note_off channel=2 note=56 velocity=79 time=0
EXTRACT: note_on channel=2 note=70 velocity=79 time=0
EXTRACT: note_on channel=2 note=65 velocity=79 time=0
EXTRACT: note_on channel=2 note=62 velocity=79 time=0
EXTRACT: note_off channel=4 note=56 velocity=95 time=0
EXTRACT: note_on channel=4 note=53 velocity=95 time=0
EXTRACT: note_off channel=0 note=64 velocity=63 time=0.031249995833333332
EXTRACT: note_off channel=0 note=59 velocity=63 time=0
EXTRACT: note_off channel=0 note=55 velocity=63 time=0
EXTRACT: note_off channel=0 note=50 velocity=63 time=0
EXTRACT: note_off channel=0 note=45 velocity=63 time=0
EXTRACT: note_off channel=0 note=40 velocity=63 time=0
EXTRACT: note_on channel=0 note=64 velocity=63 time=0.11298075416666667
EXTRACT: note_on channel=0 note=59 velocity=63 time=0
EXTRACT: note_on channel=0 note=55 velocity=63 time=0
EXTRACT: note_on channel=0 note=50 velocity=63 time=0
EXTRACT: note_on channel=0 note=45 velocity=63 time=0
EXTRACT: note_on channel=0 note=40 velocity=63 time=0
EXTRACT: note_off channel=2 note=70 velocity=79 time=0
EXTRACT: note_off channel=2 note=65 velocity=79 time=0
EXTRACT: note_off channel=2 note=62 velocity=79 time=0
EXTRACT: note_off channel=4 note=53 velocity=95 time=0
EXTRACT: note_off channel=0 note=64 velocity=63 time=0.031249995833333332
EXTRACT: note_off channel=0 note=59 velocity=63 time=0
EXTRACT: note_off channel=0 note=55 velocity=63 time=0
EXTRACT: note_off channel=0 note=50 velocity=63 time=0
EXTRACT: note_off channel=0 note=45 velocity=63 time=0
EXTRACT: note_off channel=0 note=40 velocity=63 time=0
EXTRACT: note_on channel=0 note=70 velocity=63 time=0.11298075416666667
EXTRACT: note_on channel=0 note=65 velocity=63 time=0
EXTRACT: note_on channel=0 note=62 velocity=63 time=0
EXTRACT: note_on channel=0 note=58 velocity=63 time=0
EXTRACT: note_on channel=0 note=53 velocity=63 time=0
EXTRACT: note_on channel=0 note=46 velocity=63 time=0
EXTRACT: note_off channel=0 note=70 velocity=63 time=0.14423075
EXTRACT: note_off channel=0 note=65 velocity=63 time=0
EXTRACT: note_off channel=0 note=62 velocity=63 time=0
EXTRACT: note_off channel=0 note=58 velocity=63 time=0
EXTRACT: note_off channel=0 note=53 velocity=63 time=0
EXTRACT: note_off channel=0 note=46 velocity=63 time=0
EXTRACT: note_on channel=0 note=70 velocity=63 time=0
EXTRACT: note_on channel=0 note=65 velocity=63 time=0
EXTRACT: note_on channel=0 note=62 velocity=63 time=0
EXTRACT: note_on channel=0 note=58 velocity=63 time=0
EXTRACT: note_on channel=0 note=53 velocity=63 time=0
EXTRACT: note_on channel=0 note=46 velocity=63 time=0
EXTRACT: note_off channel=0 note=70 velocity=63 time=0.14423075
EXTRACT: note_off channel=0 note=65 velocity=63 time=0
EXTRACT: note_off channel=0 note=62 velocity=63 time=0
EXTRACT: note_off channel=0 note=58 velocity=63 time=0
EXTRACT: note_off channel=0 note=53 velocity=63 time=0
EXTRACT: note_off channel=0 note=46 velocity=63 time=0
EXTRACT: note_on channel=0 note=64 velocity=63 time=0
EXTRACT: note_on channel=0 note=59 velocity=63 time=0
EXTRACT: note_on channel=0 note=55 velocity=63 time=0
EXTRACT: note_on channel=0 note=50 velocity=63 time=0
EXTRACT: note_on channel=0 note=45 velocity=63 time=0
EXTRACT: note_on channel=0 note=40 velocity=63 time=0
EXTRACT: note_on channel=2 note=58 velocity=79 time=0
EXTRACT: note_off channel=0 note=64 velocity=63 time=0.031249995833333332
EXTRACT: note_off channel=0 note=59 velocity=63 time=0
EXTRACT: note_off channel=0 note=55 velocity=63 time=0
EXTRACT: note_off channel=0 note=50 velocity=63 time=0
EXTRACT: note_off channel=0 note=45 velocity=63 time=0
EXTRACT: note_off channel=0 note=40 velocity=63 time=0
EXTRACT: note_on channel=0 note=64 velocity=63 time=0.11298075416666667
EXTRACT: note_on channel=0 note=59 velocity=63 time=0
EXTRACT: note_on channel=0 note=55 velocity=63 time=0
EXTRACT: note_on channel=0 note=50 velocity=63 time=0
EXTRACT: note_on channel=0 note=45 velocity=63 time=0
EXTRACT: note_on channel=0 note=40 velocity=63 time=0
EXTRACT: note_off channel=0 note=64 velocity=63 time=0.031249995833333332
EXTRACT: note_off channel=0 note=59 velocity=63 time=0
EXTRACT: note_off channel=0 note=55 velocity=63 time=0
EXTRACT: note_off channel=0 note=50 velocity=63 time=0
EXTRACT: note_off channel=0 note=45 velocity=63 time=0
EXTRACT: note_off channel=0 note=40 velocity=63 time=0
EXTRACT: note_on channel=0 note=70 velocity=63 time=0.11298075416666667
EXTRACT: note_on channel=0 note=65 velocity=63 time=0
EXTRACT: note_on channel=0 note=62 velocity=63 time=0
EXTRACT: note_on channel=0 note=58 velocity=63 time=0
EXTRACT: note_on channel=0 note=53 velocity=63 time=0
EXTRACT: note_on channel=0 note=46 velocity=63 time=0
EXTRACT: note_off channel=2 note=58 velocity=79 time=0
EXTRACT: note_off channel=0 note=70 velocity=63 time=0.14423075
EXTRACT: note_off channel=0 note=65 velocity=63 time=0
EXTRACT: note_off channel=0 note=62 velocity=63 time=0
EXTRACT: note_off channel=0 note=58 velocity=63 time=0
EXTRACT: note_off channel=0 note=53 velocity=63 time=0
EXTRACT: note_off channel=0 note=46 velocity=63 time=0
EXTRACT: note_on channel=0 note=70 velocity=63 time=0
EXTRACT: note_on channel=0 note=65 velocity=63 time=0
EXTRACT: note_on channel=0 note=62 velocity=63 time=0
EXTRACT: note_on channel=0 note=58 velocity=63 time=0
EXTRACT: note_on channel=0 note=53 velocity=63 time=0
EXTRACT: note_on channel=0 note=46 velocity=63 time=0
EXTRACT: note_off channel=0 note=70 velocity=63 time=0.14423075
EXTRACT: note_off channel=0 note=65 velocity=63 time=0
EXTRACT: note_off channel=0 note=62 velocity=63 time=0
EXTRACT: note_off channel=0 note=58 velocity=63 time=0
EXTRACT: note_off channel=0 note=53 velocity=63 time=0
EXTRACT: note_off channel=0 note=46 velocity=63 time=0
EXTRACT: note_on channel=0 note=64 velocity=63 time=0
EXTRACT: note_on channel=0 note=59 velocity=63 time=0
EXTRACT: note_on channel=0 note=55 velocity=63 time=0
EXTRACT: note_on channel=0 note=50 velocity=63 time=0
EXTRACT: note_on channel=0 note=45 velocity=63 time=0
EXTRACT: note_on channel=0 note=40 velocity=63 time=0
EXTRACT: note_on channel=4 note=58 velocity=95 time=0
EXTRACT: note_off channel=0 note=64 velocity=63 time=0.031249995833333332
EXTRACT: note_off channel=0 note=59 velocity=63 time=0
EXTRACT: note_off channel=0 note=55 velocity=63 time=0
EXTRACT: note_off channel=0 note=50 velocity=63 time=0
EXTRACT: note_off channel=0 note=45 velocity=63 time=0
EXTRACT: note_off channel=0 note=40 velocity=63 time=0
EXTRACT: note_on channel=0 note=64 velocity=63 time=0.11298075416666667
EXTRACT: note_on channel=0 note=59 velocity=63 time=0
EXTRACT: note_on channel=0 note=55 velocity=63 time=0
EXTRACT: note_on channel=0 note=50 velocity=63 time=0
EXTRACT: note_on channel=0 note=45 velocity=63 time=0
EXTRACT: note_on channel=0 note=40 velocity=63 time=0
EXTRACT: note_on channel=2 note=56 velocity=79 time=0
EXTRACT: note_off channel=4 note=58 velocity=95 time=0
EXTRACT: note_on channel=4 note=56 velocity=95 time=0
EXTRACT: note_off channel=0 note=64 velocity=63 time=0.031249995833333332
EXTRACT: note_off channel=0 note=59 velocity=63 time=0
EXTRACT: note_off channel=0 note=55 velocity=63 time=0
EXTRACT: note_off channel=0 note=50 velocity=63 time=0
EXTRACT: note_off channel=0 note=45 velocity=63 time=0
EXTRACT: note_off channel=0 note=40 velocity=63 time=0
EXTRACT: note_on channel=0 note=70 velocity=63 time=0.11298075416666667
EXTRACT: note_on channel=0 note=65 velocity=63 time=0
EXTRACT: note_on channel=0 note=62 velocity=63 time=0
EXTRACT: note_on channel=0 note=58 velocity=63 time=0
EXTRACT: note_on channel=0 note=53 velocity=63 time=0
EXTRACT: note_on channel=0 note=46 velocity=63 time=0
EXTRACT: note_off channel=2 note=56 velocity=79 time=0
EXTRACT: note_off channel=4 note=56 velocity=95 time=0
EXTRACT: note_on channel=4 note=58 velocity=95 time=0
EXTRACT: note_off channel=0 note=70 velocity=63 time=0.14423075
EXTRACT: note_off channel=0 note=65 velocity=63 time=0
EXTRACT: note_off channel=0 note=62 velocity=63 time=0
EXTRACT: note_off channel=0 note=58 velocity=63 time=0
EXTRACT: note_off channel=0 note=53 velocity=63 time=0
EXTRACT: note_off channel=0 note=46 velocity=63 time=0
EXTRACT: note_on channel=0 note=70 velocity=63 time=0
EXTRACT: note_on channel=0 note=65 velocity=63 time=0
EXTRACT: note_on channel=0 note=62 velocity=63 time=0
EXTRACT: note_on channel=0 note=58 velocity=63 time=0
EXTRACT: note_on channel=0 note=53 velocity=63 time=0
EXTRACT: note_on channel=0 note=46 velocity=63 time=0
EXTRACT: note_on channel=2 note=56 velocity=79 time=0
EXTRACT: note_off channel=0 note=70 velocity=63 time=0.14423075
EXTRACT: note_off channel=0 note=65 velocity=63 time=0
EXTRACT: note_off channel=0 note=62 velocity=63 time=0
EXTRACT: note_off channel=0 note=58 velocity=63 time=0
EXTRACT: note_off channel=0 note=53 velocity=63 time=0
EXTRACT: note_off channel=0 note=46 velocity=63 time=0
EXTRACT: note_on channel=0 note=64 velocity=63 time=0
EXTRACT: note_on channel=0 note=59 velocity=63 time=0
EXTRACT: note_on channel=0 note=55 velocity=63 time=0
EXTRACT: note_on channel=0 note=50 velocity=63 time=0
EXTRACT: note_on channel=0 note=45 velocity=63 time=0
EXTRACT: note_on channel=0 note=40 velocity=63 time=0
EXTRACT: note_off channel=2 note=56 velocity=79 time=0
EXTRACT: note_off channel=4 note=58 velocity=95 time=0
EXTRACT: note_on channel=4 note=56 velocity=95 time=0
EXTRACT: note_off channel=0 note=64 velocity=63 time=0.031249995833333332
EXTRACT: note_off channel=0 note=59 velocity=63 time=0
EXTRACT: note_off channel=0 note=55 velocity=63 time=0
EXTRACT: note_off channel=0 note=50 velocity=63 time=0
EXTRACT: note_off channel=0 note=45 velocity=63 time=0
EXTRACT: note_off channel=0 note=40 velocity=63 time=0
EXTRACT: note_on channel=0 note=64 velocity=63 time=0.11298075416666667
EXTRACT: note_on channel=0 note=59 velocity=63 time=0
EXTRACT: note_on channel=0 note=55 velocity=63 time=0
EXTRACT: note_on channel=0 note=50 velocity=63 time=0
EXTRACT: note_on channel=0 note=45 velocity=63 time=0
EXTRACT: note_on channel=0 note=40 velocity=63 time=0
EXTRACT: note_on channel=2 note=50 velocity=79 time=0
EXTRACT: note_off channel=4 note=56 velocity=95 time=0
EXTRACT: note_on channel=4 note=58 velocity=95 time=0
EXTRACT: note_off channel=0 note=64 velocity=63 time=0.031249995833333332
EXTRACT: note_off channel=0 note=59 velocity=63 time=0
EXTRACT: note_off channel=0 note=55 velocity=63 time=0
EXTRACT: note_off channel=0 note=50 velocity=63 time=0
EXTRACT: note_off channel=0 note=45 velocity=63 time=0
EXTRACT: note_off channel=0 note=40 velocity=63 time=0
EXTRACT: note_on channel=0 note=70 velocity=63 time=0.11298075416666667
EXTRACT: note_on channel=0 note=65 velocity=63 time=0
EXTRACT: note_on channel=0 note=62 velocity=63 time=0
EXTRACT: note_on channel=0 note=58 velocity=63 time=0
EXTRACT: note_on channel=0 note=53 velocity=63 time=0
EXTRACT: note_on channel=0 note=46 velocity=63 time=0
EXTRACT: note_off channel=2 note=50 velocity=79 time=0
EXTRACT: note_on channel=2 note=56 velocity=79 time=0
EXTRACT: note_off channel=0 note=70 velocity=63 time=0.14423075
EXTRACT: note_off channel=0 note=65 velocity=63 time=0
EXTRACT: note_off channel=0 note=62 velocity=63 time=0
EXTRACT: note_off channel=0 note=58 velocity=63 time=0
EXTRACT: note_off channel=0 note=53 velocity=63 time=0
EXTRACT: note_off channel=0 note=46 velocity=63 time=0
EXTRACT: note_on channel=0 note=70 velocity=63 time=0
EXTRACT: note_on channel=0 note=65 velocity=63 time=0
EXTRACT: note_on channel=0 note=62 velocity=63 time=0
EXTRACT: note_on channel=0 note=58 velocity=63 time=0
EXTRACT: note_on channel=0 note=53 velocity=63 time=0
EXTRACT: note_on channel=0 note=46 velocity=63 time=0
EXTRACT: note_off channel=4 note=58 velocity=95 time=0
EXTRACT: note_on channel=4 note=56 velocity=95 time=0
EXTRACT: note_off channel=0 note=70 velocity=63 time=0.14423075
EXTRACT: note_off channel=0 note=65 velocity=63 time=0
EXTRACT: note_off channel=0 note=62 velocity=63 time=0
EXTRACT: note_off channel=0 note=58 velocity=63 time=0
EXTRACT: note_off channel=0 note=53 velocity=63 time=0
EXTRACT: note_off channel=0 note=46 velocity=63 time=0
EXTRACT: note_on channel=0 note=64 velocity=63 time=0
EXTRACT: note_on channel=0 note=59 velocity=63 time=0
EXTRACT: note_on channel=0 note=55 velocity=63 time=0
EXTRACT: note_on channel=0 note=50 velocity=63 time=0
EXTRACT: note_on channel=0 note=45 velocity=63 time=0
EXTRACT: note_on channel=0 note=40 velocity=63 time=0
EXTRACT: note_off channel=2 note=56 velocity=79 time=0
EXTRACT: note_on channel=2 note=58 velocity=79 time=0
EXTRACT: note_off channel=4 note=56 velocity=95 time=0
EXTRACT: note_on channel=4 note=58 velocity=95 time=0
EXTRACT: note_off channel=0 note=64 velocity=63 time=0.031249995833333332
EXTRACT: note_off channel=0 note=59 velocity=63 time=0
EXTRACT: note_off channel=0 note=55 velocity=63 time=0
EXTRACT: note_off channel=0 note=50 velocity=63 time=0
EXTRACT: note_off channel=0 note=45 velocity=63 time=0
EXTRACT: note_off channel=0 note=40 velocity=63 time=0
EXTRACT: note_on channel=0 note=64 velocity=63 time=0.11298075416666667
EXTRACT: note_on channel=0 note=59 velocity=63 time=0
EXTRACT: note_on channel=0 note=55 velocity=63 time=0
EXTRACT: note_on channel=0 note=50 velocity=63 time=0
EXTRACT: note_on channel=0 note=45 velocity=63 time=0
EXTRACT: note_on channel=0 note=40 velocity=63 time=0
EXTRACT: note_off channel=2 note=58 velocity=79 time=0
EXTRACT: note_off channel=4 note=58 velocity=95 time=0
EXTRACT: note_on channel=4 note=56 velocity=95 time=0
EXTRACT: note_off channel=0 note=64 velocity=63 time=0.031249995833333332
EXTRACT: note_off channel=0 note=59 velocity=63 time=0
EXTRACT: note_off channel=0 note=55 velocity=63 time=0
EXTRACT: note_off channel=0 note=50 velocity=63 time=0
EXTRACT: note_off channel=0 note=45 velocity=63 time=0
EXTRACT: note_off channel=0 note=40 velocity=63 time=0
EXTRACT: note_on channel=0 note=72 velocity=63 time=0.11298075416666667
EXTRACT: note_on channel=0 note=68 velocity=63 time=0
EXTRACT: note_on channel=0 note=65 velocity=63 time=0
EXTRACT: note_on channel=0 note=60 velocity=63 time=0
EXTRACT: note_on channel=0 note=53 velocity=63 time=0
EXTRACT: note_on channel=2 note=51 velocity=79 time=0
EXTRACT: note_off channel=4 note=56 velocity=95 time=0
EXTRACT: note_on channel=4 note=53 velocity=95 time=0
EXTRACT: note_off channel=0 note=72 velocity=63 time=0.14423075
EXTRACT: note_off channel=0 note=68 velocity=63 time=0
EXTRACT: note_off channel=0 note=65 velocity=63 time=0
EXTRACT: note_off channel=0 note=60 velocity=63 time=0
EXTRACT: note_off channel=0 note=53 velocity=63 time=0
EXTRACT: note_on channel=0 note=72 velocity=63 time=0
EXTRACT: note_on channel=0 note=68 velocity=63 time=0
EXTRACT: note_on channel=0 note=65 velocity=63 time=0
EXTRACT: note_on channel=0 note=60 velocity=63 time=0
EXTRACT: note_on channel=0 note=53 velocity=63 time=0
EXTRACT: note_off channel=2 note=51 velocity=79 time=0
EXTRACT: note_on channel=2 note=53 velocity=54 time=0
EXTRACT: note_off channel=0 note=72 velocity=63 time=0.14423075
EXTRACT: note_off channel=0 note=68 velocity=63 time=0
EXTRACT: note_off channel=0 note=65 velocity=63 time=0
EXTRACT: note_off channel=0 note=60 velocity=63 time=0
EXTRACT: note_off channel=0 note=53 velocity=63 time=0
EXTRACT: note_on channel=0 note=64 velocity=63 time=0
EXTRACT: note_on channel=0 note=59 velocity=63 time=0
EXTRACT: note_on channel=0 note=55 velocity=63 time=0
EXTRACT: note_on channel=0 note=50 velocity=63 time=0
EXTRACT: note_on channel=0 note=45 velocity=63 time=0
EXTRACT: note_off channel=0 note=64 velocity=63 time=0.031249995833333332
EXTRACT: note_off channel=0 note=59 velocity=63 time=0
EXTRACT: note_off channel=0 note=55 velocity=63 time=0
EXTRACT: note_off channel=0 note=50 velocity=63 time=0
EXTRACT: note_off channel=0 note=45 velocity=63 time=0
EXTRACT: note_on channel=0 note=64 velocity=63 time=0.11298075416666667
EXTRACT: note_on channel=0 note=59 velocity=63 time=0
EXTRACT: note_on channel=0 note=55 velocity=63 time=0
EXTRACT: note_on channel=0 note=50 velocity=63 time=0
EXTRACT: note_on channel=0 note=45 velocity=63 time=0
EXTRACT: note_off channel=2 note=53 velocity=54 time=0
EXTRACT: note_on channel=2 note=56 velocity=79 time=0
EXTRACT: note_off channel=0 note=64 velocity=63 time=0.031249995833333332
EXTRACT: note_off channel=0 note=59 velocity=63 time=0
EXTRACT: note_off channel=0 note=55 velocity=63 time=0
EXTRACT: note_off channel=0 note=50 velocity=63 time=0
EXTRACT: note_off channel=0 note=45 velocity=63 time=0
EXTRACT: note_on channel=0 note=72 velocity=63 time=0.11298075416666667
EXTRACT: note_on channel=0 note=68 velocity=63 time=0
EXTRACT: note_on channel=0 note=65 velocity=63 time=0
EXTRACT: note_on channel=0 note=60 velocity=63 time=0
EXTRACT: note_on channel=0 note=53 velocity=63 time=0
EXTRACT: note_off channel=2 note=56 velocity=79 time=0
EXTRACT: note_off channel=0 note=72 velocity=63 time=0.14423075
EXTRACT: note_off channel=0 note=68 velocity=63 time=0
EXTRACT: note_off channel=0 note=65 velocity=63 time=0
EXTRACT: note_off channel=0 note=60 velocity=63 time=0
EXTRACT: note_off channel=0 note=53 velocity=63 time=0
EXTRACT: note_on channel=0 note=72 velocity=63 time=0
EXTRACT: note_on channel=0 note=68 velocity=63 time=0
EXTRACT: note_on channel=0 note=65 velocity=63 time=0
EXTRACT: note_on channel=0 note=60 velocity=63 time=0
EXTRACT: note_on channel=0 note=53 velocity=63 time=0
EXTRACT: note_off channel=0 note=72 velocity=63 time=0.14423075
EXTRACT: note_off channel=0 note=68 velocity=63 time=0
EXTRACT: note_off channel=0 note=65 velocity=63 time=0
EXTRACT: note_off channel=0 note=60 velocity=63 time=0
EXTRACT: note_off channel=0 note=53 velocity=63 time=0
EXTRACT: note_on channel=0 note=64 velocity=63 time=0
EXTRACT: note_on channel=0 note=59 velocity=63 time=0
EXTRACT: note_on channel=0 note=55 velocity=63 time=0
EXTRACT: note_on channel=0 note=50 velocity=63 time=0
EXTRACT: note_on channel=0 note=45 velocity=63 time=0
EXTRACT: note_on channel=2 note=51 velocity=79 time=0
EXTRACT: note_off channel=0 note=64 velocity=63 time=0.031249995833333332
EXTRACT: note_off channel=0 note=59 velocity=63 time=0
EXTRACT: note_off channel=0 note=55 velocity=63 time=0
EXTRACT: note_off channel=0 note=50 velocity=63 time=0
EXTRACT: note_off channel=0 note=45 velocity=63 time=0
EXTRACT: note_on channel=0 note=64 velocity=63 time=0.11298075416666667
EXTRACT: note_on channel=0 note=59 velocity=63 time=0
EXTRACT: note_on channel=0 note=55 velocity=63 time=0
EXTRACT: note_on channel=0 note=50 velocity=63 time=0
EXTRACT: note_on channel=0 note=45 velocity=63 time=0
EXTRACT: note_off channel=0 note=64 velocity=63 time=0.031249995833333332
EXTRACT: note_off channel=0 note=59 velocity=63 time=0
EXTRACT: note_off channel=0 note=55 velocity=63 time=0
EXTRACT: note_off channel=0 note=50 velocity=63 time=0
EXTRACT: note_off channel=0 note=45 velocity=63 time=0
EXTRACT: note_on channel=0 note=72 velocity=63 time=0.11298075416666667
EXTRACT: note_on channel=0 note=68 velocity=63 time=0
EXTRACT: note_on channel=0 note=65 velocity=63 time=0
EXTRACT: note_on channel=0 note=60 velocity=63 time=0
EXTRACT: note_on channel=0 note=53 velocity=63 time=0
EXTRACT: note_off channel=2 note=51 velocity=79 time=0
EXTRACT: note_off channel=4 note=53 velocity=95 time=0
EXTRACT: note_off channel=0 note=72 velocity=63 time=0.14423075
EXTRACT: note_off channel=0 note=68 velocity=63 time=0
EXTRACT: note_off channel=0 note=65 velocity=63 time=0
EXTRACT: note_off channel=0 note=60 velocity=63 time=0
EXTRACT: note_off channel=0 note=53 velocity=63 time=0
EXTRACT: note_on channel=0 note=72 velocity=63 time=0
EXTRACT: note_on channel=0 note=68 velocity=63 time=0
EXTRACT: note_on channel=0 note=65 velocity=63 time=0
EXTRACT: note_on channel=0 note=60 velocity=63 time=0
EXTRACT: note_on channel=0 note=53 velocity=63 time=0
EXTRACT: note_off channel=0 note=72 velocity=63 time=0.14423075
EXTRACT: note_off channel=0 note=68 velocity=63 time=0
EXTRACT: note_off channel=0 note=65 velocity=63 time=0
EXTRACT: note_off channel=0 note=60 velocity=63 time=0
EXTRACT: note_off channel=0 note=53 velocity=63 time=0
EXTRACT: note_on channel=0 note=64 velocity=63 time=0
EXTRACT: note_on channel=0 note=59 velocity=63 time=0
EXTRACT: note_on channel=0 note=55 velocity=63 time=0
EXTRACT: note_on channel=0 note=50 velocity=63 time=0
EXTRACT: note_on channel=0 note=45 velocity=63 time=0
EXTRACT: note_on channel=2 note=48 velocity=79 time=0
EXTRACT: note_on channel=4 note=72 velocity=95 time=0
EXTRACT: note_off channel=0 note=64 velocity=63 time=0.031249995833333332
EXTRACT: note_off channel=0 note=59 velocity=63 time=0
EXTRACT: note_off channel=0 note=55 velocity=63 time=0
EXTRACT: note_off channel=0 note=50 velocity=63 time=0
EXTRACT: note_off channel=0 note=45 velocity=63 time=0
EXTRACT: note_on channel=0 note=64 velocity=63 time=0.11298075416666667
EXTRACT: note_on channel=0 note=59 velocity=63 time=0
EXTRACT: note_on channel=0 note=55 velocity=63 time=0
EXTRACT: note_on channel=0 note=50 velocity=63 time=0
EXTRACT: note_on channel=0 note=45 velocity=63 time=0
EXTRACT: note_off channel=0 note=64 velocity=63 time=0.031249995833333332
EXTRACT: note_off channel=0 note=59 velocity=63 time=0
EXTRACT: note_off channel=0 note=55 velocity=63 time=0
EXTRACT: note_off channel=0 note=50 velocity=63 time=0
EXTRACT: note_off channel=0 note=45 velocity=63 time=0
EXTRACT: note_on channel=0 note=72 velocity=63 time=0.11298075416666667
EXTRACT: note_on channel=0 note=68 velocity=63 time=0
EXTRACT: note_on channel=0 note=65 velocity=63 time=0
EXTRACT: note_on channel=0 note=60 velocity=63 time=0
EXTRACT: note_on channel=0 note=53 velocity=63 time=0
EXTRACT: note_off channel=2 note=48 velocity=79 time=0
EXTRACT: note_on channel=2 note=46 velocity=79 time=0
EXTRACT: note_off channel=4 note=72 velocity=95 time=0
EXTRACT: note_on channel=4 note=72 velocity=95 time=0
EXTRACT: note_on channel=4 note=48 velocity=95 time=0
EXTRACT: note_off channel=0 note=72 velocity=63 time=0.14423075
EXTRACT: note_off channel=0 note=68 velocity=63 time=0
EXTRACT: note_off channel=0 note=65 velocity=63 time=0
EXTRACT: note_off channel=0 note=60 velocity=63 time=0
EXTRACT: note_off channel=0 note=53 velocity=63 time=0
EXTRACT: note_on channel=0 note=72 velocity=63 time=0
EXTRACT: note_on channel=0 note=68 velocity=63 time=0
EXTRACT: note_on channel=0 note=65 velocity=63 time=0
EXTRACT: note_on channel=0 note=60 velocity=63 time=0
EXTRACT: note_on channel=0 note=53 velocity=63 time=0
EXTRACT: note_off channel=2 note=46 velocity=79 time=0
EXTRACT: note_on channel=2 note=48 velocity=54 time=0
EXTRACT: note_off channel=4 note=72 velocity=95 time=0
EXTRACT: note_off channel=4 note=48 velocity=95 time=0
EXTRACT: note_on channel=4 note=70 velocity=95 time=0
EXTRACT: note_off channel=0 note=72 velocity=63 time=0.14423075
EXTRACT: note_off channel=0 note=68 velocity=63 time=0
EXTRACT: note_off channel=0 note=65 velocity=63 time=0
EXTRACT: note_off channel=0 note=60 velocity=63 time=0
EXTRACT: note_off channel=0 note=53 velocity=63 time=0
EXTRACT: note_on channel=0 note=64 velocity=63 time=0
EXTRACT: note_on channel=0 note=59 velocity=63 time=0
EXTRACT: note_on channel=0 note=55 velocity=63 time=0
EXTRACT: note_on channel=0 note=50 velocity=63 time=0
EXTRACT: note_on channel=0 note=45 velocity=63 time=0
EXTRACT: note_off channel=2 note=48 velocity=54 time=0
EXTRACT: note_on channel=2 note=51 velocity=79 time=0
EXTRACT: note_off channel=4 note=70 velocity=95 time=0
EXTRACT: note_on channel=4 note=68 velocity=95 time=0
EXTRACT: note_off channel=0 note=64 velocity=63 time=0.031249995833333332
EXTRACT: note_off channel=0 note=59 velocity=63 time=0
EXTRACT: note_off channel=0 note=55 velocity=63 time=0
EXTRACT: note_off channel=0 note=50 velocity=63 time=0
EXTRACT: note_off channel=0 note=45 velocity=63 time=0
EXTRACT: note_on channel=0 note=64 velocity=63 time=0.11298075416666667
EXTRACT: note_on channel=0 note=59 velocity=63 time=0
EXTRACT: note_on channel=0 note=55 velocity=63 time=0
EXTRACT: note_on channel=0 note=50 velocity=63 time=0
EXTRACT: note_on channel=0 note=45 velocity=63 time=0
EXTRACT: note_off channel=4 note=68 velocity=95 time=0
EXTRACT: note_on channel=4 note=72 velocity=95 time=0
EXTRACT: note_off channel=0 note=64 velocity=63 time=0.031249995833333332
EXTRACT: note_off channel=0 note=59 velocity=63 time=0
EXTRACT: note_off channel=0 note=55 velocity=63 time=0
EXTRACT: note_off channel=0 note=50 velocity=63 time=0
EXTRACT: note_off channel=0 note=45 velocity=63 time=0
EXTRACT: note_on channel=0 note=72 velocity=63 time=0.11298075416666667
EXTRACT: note_on channel=0 note=68 velocity=63 time=0
EXTRACT: note_on channel=0 note=65 velocity=63 time=0
EXTRACT: note_on channel=0 note=60 velocity=63 time=0
EXTRACT: note_on channel=0 note=53 velocity=63 time=0
EXTRACT: note_off channel=2 note=51 velocity=79 time=0
EXTRACT: note_on channel=2 note=46 velocity=79 time=0
EXTRACT: note_off channel=0 note=72 velocity=63 time=0.14423075
EXTRACT: note_off channel=0 note=68 velocity=63 time=0
EXTRACT: note_off channel=0 note=65 velocity=63 time=0
EXTRACT: note_off channel=0 note=60 velocity=63 time=0
EXTRACT: note_off channel=0 note=53 velocity=63 time=0
EXTRACT: note_on channel=0 note=72 velocity=63 time=0
EXTRACT: note_on channel=0 note=68 velocity=63 time=0
EXTRACT: note_on channel=0 note=65 velocity=63 time=0
EXTRACT: note_on channel=0 note=60 velocity=63 time=0
EXTRACT: note_on channel=0 note=53 velocity=63 time=0
EXTRACT: note_off channel=2 note=46 velocity=79 time=0
EXTRACT: note_on channel=2 note=48 velocity=54 time=0
EXTRACT: note_off channel=0 note=72 velocity=63 time=0.14423075
EXTRACT: note_off channel=0 note=68 velocity=63 time=0
EXTRACT: note_off channel=0 note=65 velocity=63 time=0
EXTRACT: note_off channel=0 note=60 velocity=63 time=0
EXTRACT: note_off channel=0 note=53 velocity=63 time=0
EXTRACT: note_on channel=0 note=64 velocity=63 time=0
EXTRACT: note_on channel=0 note=59 velocity=63 time=0
EXTRACT: note_on channel=0 note=55 velocity=63 time=0
EXTRACT: note_on channel=0 note=50 velocity=63 time=0
EXTRACT: note_on channel=0 note=45 velocity=63 time=0
EXTRACT: note_off channel=2 note=48 velocity=54 time=0
EXTRACT: note_on channel=2 note=51 velocity=79 time=0
EXTRACT: note_off channel=0 note=64 velocity=63 time=0.031249995833333332
EXTRACT: note_off channel=0 note=59 velocity=63 time=0
EXTRACT: note_off channel=0 note=55 velocity=63 time=0
EXTRACT: note_off channel=0 note=50 velocity=63 time=0
EXTRACT: note_off channel=0 note=45 velocity=63 time=0
EXTRACT: note_on channel=0 note=64 velocity=63 time=0.11298075416666667
EXTRACT: note_on channel=0 note=59 velocity=63 time=0
EXTRACT: note_on channel=0 note=55 velocity=63 time=0
EXTRACT: note_on channel=0 note=50 velocity=63 time=0
EXTRACT: note_on channel=0 note=45 velocity=63 time=0
EXTRACT: note_off channel=0 note=64 velocity=63 time=0.031249995833333332
EXTRACT: note_off channel=0 note=59 velocity=63 time=0
EXTRACT: note_off channel=0 note=55 velocity=63 time=0
EXTRACT: note_off channel=0 note=50 velocity=63 time=0
EXTRACT: note_off channel=0 note=45 velocity=63 time=0
EXTRACT: note_on channel=0 note=72 velocity=63 time=0.11298075416666667
EXTRACT: note_on channel=0 note=68 velocity=63 time=0
EXTRACT: note_on channel=0 note=65 velocity=63 time=0
EXTRACT: note_on channel=0 note=60 velocity=63 time=0
EXTRACT: note_on channel=0 note=53 velocity=63 time=0
EXTRACT: note_off channel=2 note=51 velocity=79 time=0
EXTRACT: note_off channel=0 note=72 velocity=63 time=0.14423075
EXTRACT: note_off channel=0 note=68 velocity=63 time=0
EXTRACT: note_off channel=0 note=65 velocity=63 time=0
EXTRACT: note_off channel=0 note=60 velocity=63 time=0
EXTRACT: note_off channel=0 note=53 velocity=63 time=0
EXTRACT: note_on channel=0 note=72 velocity=63 time=0
EXTRACT: note_on channel=0 note=68 velocity=63 time=0
EXTRACT: note_on channel=0 note=65 velocity=63 time=0
EXTRACT: note_on channel=0 note=60 velocity=63 time=0
EXTRACT: note_on channel=0 note=53 velocity=63 time=0
EXTRACT: note_on channel=2 note=45 velocity=79 time=0
EXTRACT: note_off channel=2 note=45 velocity=79 time=0.031249995833333332
EXTRACT: note_off channel=0 note=72 velocity=63 time=0.11298075416666667
EXTRACT: note_off channel=0 note=68 velocity=63 time=0
EXTRACT: note_off channel=0 note=65 velocity=63 time=0
EXTRACT: note_off channel=0 note=60 velocity=63 time=0
EXTRACT: note_off channel=0 note=53 velocity=63 time=0
EXTRACT: note_on channel=0 note=64 velocity=63 time=0
EXTRACT: note_on channel=0 note=59 velocity=63 time=0
EXTRACT: note_on channel=0 note=55 velocity=63 time=0
EXTRACT: note_on channel=0 note=50 velocity=63 time=0
EXTRACT: note_on channel=0 note=45 velocity=63 time=0
EXTRACT: note_on channel=2 note=46 velocity=79 time=0
EXTRACT: note_off channel=0 note=64 velocity=63 time=0.031249995833333332
EXTRACT: note_off channel=0 note=59 velocity=63 time=0
EXTRACT: note_off channel=0 note=55 velocity=63 time=0
EXTRACT: note_off channel=0 note=50 velocity=63 time=0
EXTRACT: note_off channel=0 note=45 velocity=63 time=0
EXTRACT: note_on channel=0 note=64 velocity=63 time=0.11298075416666667
EXTRACT: note_on channel=0 note=59 velocity=63 time=0
EXTRACT: note_on channel=0 note=55 velocity=63 time=0
EXTRACT: note_on channel=0 note=50 velocity=63 time=0
EXTRACT: note_on channel=0 note=45 velocity=63 time=0
EXTRACT: note_off channel=0 note=64 velocity=63 time=0.031249995833333332
EXTRACT: note_off channel=0 note=59 velocity=63 time=0
EXTRACT: note_off channel=0 note=55 velocity=63 time=0
EXTRACT: note_off channel=0 note=50 velocity=63 time=0
EXTRACT: note_off channel=0 note=45 velocity=63 time=0
EXTRACT: note_on channel=0 note=72 velocity=63 time=0.11298075416666667
EXTRACT: note_on channel=0 note=68 velocity=63 time=0
EXTRACT: note_on channel=0 note=65 velocity=63 time=0
EXTRACT: note_on channel=0 note=60 velocity=63 time=0
EXTRACT: note_on channel=0 note=53 velocity=63 time=0
EXTRACT: note_off channel=2 note=46 velocity=79 time=0
EXTRACT: note_on channel=2 note=48 velocity=79 time=0
EXTRACT: note_off channel=0 note=72 velocity=63 time=0.14423075
EXTRACT: note_off channel=0 note=68 velocity=63 time=0
EXTRACT: note_off channel=0 note=65 velocity=63 time=0
EXTRACT: note_off channel=0 note=60 velocity=63 time=0
EXTRACT: note_off channel=0 note=53 velocity=63 time=0
EXTRACT: note_on channel=0 note=72 velocity=63 time=0
EXTRACT: note_on channel=0 note=68 velocity=63 time=0
EXTRACT: note_on channel=0 note=65 velocity=63 time=0
EXTRACT: note_on channel=0 note=60 velocity=63 time=0
EXTRACT: note_on channel=0 note=53 velocity=63 time=0
EXTRACT: note_off channel=0 note=72 velocity=63 time=0.14423075
EXTRACT: note_off channel=0 note=68 velocity=63 time=0
EXTRACT: note_off channel=0 note=65 velocity=63 time=0
EXTRACT: note_off channel=0 note=60 velocity=63 time=0
EXTRACT: note_off channel=0 note=53 velocity=63 time=0
EXTRACT: note_on channel=0 note=64 velocity=63 time=0
EXTRACT: note_on channel=0 note=59 velocity=63 time=0
EXTRACT: note_on channel=0 note=55 velocity=63 time=0
EXTRACT: note_on channel=0 note=50 velocity=63 time=0
EXTRACT: note_on channel=0 note=45 velocity=63 time=0
EXTRACT: note_off channel=2 note=48 velocity=79 time=0
EXTRACT: note_on channel=2 note=51 velocity=79 time=0
EXTRACT: note_off channel=0 note=64 velocity=63 time=0.031249995833333332
EXTRACT: note_off channel=0 note=59 velocity=63 time=0
EXTRACT: note_off channel=0 note=55 velocity=63 time=0
EXTRACT: note_off channel=0 note=50 velocity=63 time=0
EXTRACT: note_off channel=0 note=45 velocity=63 time=0
EXTRACT: note_on channel=0 note=64 velocity=63 time=0.11298075416666667
EXTRACT: note_on channel=0 note=59 velocity=63 time=0
EXTRACT: note_on channel=0 note=55 velocity=63 time=0
EXTRACT: note_on channel=0 note=50 velocity=63 time=0
EXTRACT: note_on channel=0 note=45 velocity=63 time=0
EXTRACT: note_off channel=0 note=64 velocity=63 time=0.031249995833333332
EXTRACT: note_off channel=0 note=59 velocity=63 time=0
EXTRACT: note_off channel=0 note=55 velocity=63 time=0
EXTRACT: note_off channel=0 note=50 velocity=63 time=0
EXTRACT: note_off channel=0 note=45 velocity=63 time=0
EXTRACT: note_on channel=0 note=72 velocity=63 time=0.11298075416666667
EXTRACT: note_on channel=0 note=68 velocity=63 time=0
EXTRACT: note_on channel=0 note=65 velocity=63 time=0
EXTRACT: note_on channel=0 note=60 velocity=63 time=0
EXTRACT: note_on channel=0 note=53 velocity=63 time=0
EXTRACT: note_off channel=2 note=51 velocity=79 time=0
EXTRACT: note_on channel=2 note=53 velocity=79 time=0
EXTRACT: note_off channel=0 note=72 velocity=63 time=0.14423075
EXTRACT: note_off channel=0 note=68 velocity=63 time=0
EXTRACT: note_off channel=0 note=65 velocity=63 time=0
EXTRACT: note_off channel=0 note=60 velocity=63 time=0
EXTRACT: note_off channel=0 note=53 velocity=63 time=0
EXTRACT: note_on channel=0 note=72 velocity=63 time=0
EXTRACT: note_on channel=0 note=68 velocity=63 time=0
EXTRACT: note_on channel=0 note=65 velocity=63 time=0
EXTRACT: note_on channel=0 note=60 velocity=63 time=0
EXTRACT: note_on channel=0 note=53 velocity=63 time=0
EXTRACT: note_off channel=0 note=72 velocity=63 time=0.14423075
EXTRACT: note_off channel=0 note=68 velocity=63 time=0
EXTRACT: note_off channel=0 note=65 velocity=63 time=0
EXTRACT: note_off channel=0 note=60 velocity=63 time=0
EXTRACT: note_off channel=0 note=53 velocity=63 time=0
EXTRACT: note_on channel=0 note=64 velocity=63 time=0
EXTRACT: note_on channel=0 note=59 velocity=63 time=0
EXTRACT: note_on channel=0 note=55 velocity=63 time=0
EXTRACT: note_on channel=0 note=50 velocity=63 time=0
EXTRACT: note_on channel=0 note=45 velocity=63 time=0
EXTRACT: note_off channel=2 note=53 velocity=79 time=0
EXTRACT: note_on channel=2 note=56 velocity=79 time=0
EXTRACT: note_off channel=0 note=64 velocity=63 time=0.031249995833333332
EXTRACT: note_off channel=0 note=59 velocity=63 time=0
EXTRACT: note_off channel=0 note=55 velocity=63 time=0
EXTRACT: note_off channel=0 note=50 velocity=63 time=0
EXTRACT: note_off channel=0 note=45 velocity=63 time=0
EXTRACT: note_on channel=0 note=64 velocity=63 time=0.11298075416666667
EXTRACT: note_on channel=0 note=59 velocity=63 time=0
EXTRACT: note_on channel=0 note=55 velocity=63 time=0
EXTRACT: note_on channel=0 note=50 velocity=63 time=0
EXTRACT: note_on channel=0 note=45 velocity=63 time=0
EXTRACT: note_off channel=0 note=64 velocity=63 time=0.031249995833333332
EXTRACT: note_off channel=0 note=59 velocity=63 time=0
EXTRACT: note_off channel=0 note=55 velocity=63 time=0
EXTRACT: note_off channel=0 note=50 velocity=63 time=0
EXTRACT: note_off channel=0 note=45 velocity=63 time=0
EXTRACT: note_on channel=0 note=72 velocity=63 time=0.11298075416666667
EXTRACT: note_on channel=0 note=68 velocity=63 time=0
EXTRACT: note_on channel=0 note=65 velocity=63 time=0
EXTRACT: note_on channel=0 note=60 velocity=63 time=0
EXTRACT: note_on channel=0 note=53 velocity=63 time=0
EXTRACT: note_off channel=2 note=56 velocity=79 time=0
EXTRACT: note_on channel=2 note=51 velocity=79 time=0
EXTRACT: note_off channel=0 note=72 velocity=63 time=0.14423075
EXTRACT: note_off channel=0 note=68 velocity=63 time=0
EXTRACT: note_off channel=0 note=65 velocity=63 time=0
EXTRACT: note_off channel=0 note=60 velocity=63 time=0
EXTRACT: note_off channel=0 note=53 velocity=63 time=0
EXTRACT: note_on channel=0 note=72 velocity=63 time=0
EXTRACT: note_on channel=0 note=68 velocity=63 time=0
EXTRACT: note_on channel=0 note=65 velocity=63 time=0
EXTRACT: note_on channel=0 note=60 velocity=63 time=0
EXTRACT: note_on channel=0 note=53 velocity=63 time=0
EXTRACT: note_off channel=2 note=51 velocity=79 time=0
EXTRACT: note_on channel=2 note=53 velocity=54 time=0
EXTRACT: note_off channel=0 note=72 velocity=63 time=0.14423075
EXTRACT: note_off channel=0 note=68 velocity=63 time=0
EXTRACT: note_off channel=0 note=65 velocity=63 time=0
EXTRACT: note_off channel=0 note=60 velocity=63 time=0
EXTRACT: note_off channel=0 note=53 velocity=63 time=0
EXTRACT: note_on channel=0 note=64 velocity=63 time=0
EXTRACT: note_on channel=0 note=59 velocity=63 time=0
EXTRACT: note_on channel=0 note=55 velocity=63 time=0
EXTRACT: note_on channel=0 note=50 velocity=63 time=0
EXTRACT: note_on channel=0 note=45 velocity=63 time=0
EXTRACT: note_off channel=0 note=64 velocity=63 time=0.031249995833333332
EXTRACT: note_off channel=0 note=59 velocity=63 time=0
EXTRACT: note_off channel=0 note=55 velocity=63 time=0
EXTRACT: note_off channel=0 note=50 velocity=63 time=0
EXTRACT: note_off channel=0 note=45 velocity=63 time=0
EXTRACT: note_on channel=0 note=64 velocity=63 time=0.11298075416666667
EXTRACT: note_on channel=0 note=59 velocity=63 time=0
EXTRACT: note_on channel=0 note=55 velocity=63 time=0
EXTRACT: note_on channel=0 note=50 velocity=63 time=0
EXTRACT: note_on channel=0 note=45 velocity=63 time=0
EXTRACT: note_off channel=2 note=53 velocity=54 time=0
EXTRACT: note_on channel=2 note=56 velocity=79 time=0
EXTRACT: note_off channel=0 note=64 velocity=63 time=0.031249995833333332
EXTRACT: note_off channel=0 note=59 velocity=63 time=0
EXTRACT: note_off channel=0 note=55 velocity=63 time=0
EXTRACT: note_off channel=0 note=50 velocity=63 time=0
EXTRACT: note_off channel=0 note=45 velocity=63 time=0
EXTRACT: note_on channel=0 note=72 velocity=63 time=0.11298075416666667
EXTRACT: note_on channel=0 note=68 velocity=63 time=0
EXTRACT: note_on channel=0 note=65 velocity=63 time=0
EXTRACT: note_on channel=0 note=60 velocity=63 time=0
EXTRACT: note_on channel=0 note=53 velocity=63 time=0
EXTRACT: note_off channel=2 note=56 velocity=79 time=0
EXTRACT: note_off channel=0 note=72 velocity=63 time=0.14423075
EXTRACT: note_off channel=0 note=68 velocity=63 time=0
EXTRACT: note_off channel=0 note=65 velocity=63 time=0
EXTRACT: note_off channel=0 note=60 velocity=63 time=0
EXTRACT: note_off channel=0 note=53 velocity=63 time=0
EXTRACT: note_on channel=0 note=72 velocity=63 time=0
EXTRACT: note_on channel=0 note=68 velocity=63 time=0
EXTRACT: note_on channel=0 note=65 velocity=63 time=0
EXTRACT: note_on channel=0 note=60 velocity=63 time=0
EXTRACT: note_on channel=0 note=53 velocity=63 time=0
EXTRACT: note_off channel=0 note=72 velocity=63 time=0.14423075
EXTRACT: note_off channel=0 note=68 velocity=63 time=0
EXTRACT: note_off channel=0 note=65 velocity=63 time=0
EXTRACT: note_off channel=0 note=60 velocity=63 time=0
EXTRACT: note_off channel=0 note=53 velocity=63 time=0
EXTRACT: note_on channel=0 note=64 velocity=63 time=0
EXTRACT: note_on channel=0 note=59 velocity=63 time=0
EXTRACT: note_on channel=0 note=55 velocity=63 time=0
EXTRACT: note_on channel=0 note=50 velocity=63 time=0
EXTRACT: note_on channel=0 note=45 velocity=63 time=0
EXTRACT: note_on channel=2 note=51 velocity=79 time=0
EXTRACT: note_off channel=0 note=64 velocity=63 time=0.031249995833333332
EXTRACT: note_off channel=0 note=59 velocity=63 time=0
EXTRACT: note_off channel=0 note=55 velocity=63 time=0
EXTRACT: note_off channel=0 note=50 velocity=63 time=0
EXTRACT: note_off channel=0 note=45 velocity=63 time=0
EXTRACT: note_on channel=0 note=64 velocity=63 time=0.11298075416666667
EXTRACT: note_on channel=0 note=59 velocity=63 time=0
EXTRACT: note_on channel=0 note=55 velocity=63 time=0
EXTRACT: note_on channel=0 note=50 velocity=63 time=0
EXTRACT: note_on channel=0 note=45 velocity=63 time=0
EXTRACT: note_off channel=0 note=64 velocity=63 time=0.031249995833333332
EXTRACT: note_off channel=0 note=59 velocity=63 time=0
EXTRACT: note_off channel=0 note=55 velocity=63 time=0
EXTRACT: note_off channel=0 note=50 velocity=63 time=0
EXTRACT: note_off channel=0 note=45 velocity=63 time=0
EXTRACT: note_on channel=0 note=72 velocity=63 time=0.11298075416666667
EXTRACT: note_on channel=0 note=68 velocity=63 time=0
EXTRACT: note_on channel=0 note=65 velocity=63 time=0
EXTRACT: note_on channel=0 note=60 velocity=63 time=0
EXTRACT: note_on channel=0 note=53 velocity=63 time=0
EXTRACT: note_off channel=2 note=51 velocity=79 time=0
EXTRACT: note_off channel=0 note=72 velocity=63 time=0.14423075
EXTRACT: note_off channel=0 note=68 velocity=63 time=0
EXTRACT: note_off channel=0 note=65 velocity=63 time=0
EXTRACT: note_off channel=0 note=60 velocity=63 time=0
EXTRACT: note_off channel=0 note=53 velocity=63 time=0
EXTRACT: note_on channel=0 note=72 velocity=63 time=0
EXTRACT: note_on channel=0 note=68 velocity=63 time=0
EXTRACT: note_on channel=0 note=65 velocity=63 time=0
EXTRACT: note_on channel=0 note=60 velocity=63 time=0
EXTRACT: note_on channel=0 note=53 velocity=63 time=0
EXTRACT: note_off channel=0 note=72 velocity=63 time=0.14423075
EXTRACT: note_off channel=0 note=68 velocity=63 time=0
EXTRACT: note_off channel=0 note=65 velocity=63 time=0
EXTRACT: note_off channel=0 note=60 velocity=63 time=0
EXTRACT: note_off channel=0 note=53 velocity=63 time=0
EXTRACT: note_on channel=0 note=64 velocity=63 time=0
EXTRACT: note_on channel=0 note=59 velocity=63 time=0
EXTRACT: note_on channel=0 note=55 velocity=63 time=0
EXTRACT: note_on channel=0 note=50 velocity=63 time=0
EXTRACT: note_on channel=0 note=45 velocity=63 time=0
EXTRACT: note_on channel=2 note=48 velocity=79 time=0
EXTRACT: note_off channel=0 note=64 velocity=63 time=0.031249995833333332
EXTRACT: note_off channel=0 note=59 velocity=63 time=0
EXTRACT: note_off channel=0 note=55 velocity=63 time=0
EXTRACT: note_off channel=0 note=50 velocity=63 time=0
EXTRACT: note_off channel=0 note=45 velocity=63 time=0
EXTRACT: note_on channel=0 note=64 velocity=63 time=0.11298075416666667
EXTRACT: note_on channel=0 note=59 velocity=63 time=0
EXTRACT: note_on channel=0 note=55 velocity=63 time=0
EXTRACT: note_on channel=0 note=50 velocity=63 time=0
EXTRACT: note_on channel=0 note=45 velocity=63 time=0
EXTRACT: note_off channel=0 note=64 velocity=63 time=0.031249995833333332
EXTRACT: note_off channel=0 note=59 velocity=63 time=0
EXTRACT: note_off channel=0 note=55 velocity=63 time=0
EXTRACT: note_off channel=0 note=50 velocity=63 time=0
EXTRACT: note_off channel=0 note=45 velocity=63 time=0
EXTRACT: note_on channel=0 note=72 velocity=63 time=0.11298075416666667
EXTRACT: note_on channel=0 note=68 velocity=63 time=0
EXTRACT: note_on channel=0 note=65 velocity=63 time=0
EXTRACT: note_on channel=0 note=60 velocity=63 time=0
EXTRACT: note_on channel=0 note=53 velocity=63 time=0
EXTRACT: note_off channel=2 note=48 velocity=79 time=0
EXTRACT: note_on channel=2 note=46 velocity=79 time=0
EXTRACT: note_off channel=0 note=72 velocity=63 time=0.14423075
EXTRACT: note_off channel=0 note=68 velocity=63 time=0
EXTRACT: note_off channel=0 note=65 velocity=63 time=0
EXTRACT: note_off channel=0 note=60 velocity=63 time=0
EXTRACT: note_off channel=0 note=53 velocity=63 time=0
EXTRACT: note_on channel=0 note=72 velocity=63 time=0
EXTRACT: note_on channel=0 note=68 velocity=63 time=0
EXTRACT: note_on channel=0 note=65 velocity=63 time=0
EXTRACT: note_on channel=0 note=60 velocity=63 time=0
EXTRACT: note_on channel=0 note=53 velocity=63 time=0
EXTRACT: note_off channel=2 note=46 velocity=79 time=0
EXTRACT: note_on channel=2 note=48 velocity=54 time=0
EXTRACT: note_off channel=0 note=72 velocity=63 time=0.14423075
EXTRACT: note_off channel=0 note=68 velocity=63 time=0
EXTRACT: note_off channel=0 note=65 velocity=63 time=0
EXTRACT: note_off channel=0 note=60 velocity=63 time=0
EXTRACT: note_off channel=0 note=53 velocity=63 time=0
EXTRACT: note_on channel=0 note=64 velocity=63 time=0
EXTRACT: note_on channel=0 note=59 velocity=63 time=0
EXTRACT: note_on channel=0 note=55 velocity=63 time=0
EXTRACT: note_on channel=0 note=50 velocity=63 time=0
EXTRACT: note_on channel=0 note=45 velocity=63 time=0
EXTRACT: note_off channel=2 note=48 velocity=54 time=0
EXTRACT: note_on channel=2 note=51 velocity=79 time=0
EXTRACT: note_off channel=0 note=64 velocity=63 time=0.031249995833333332
EXTRACT: note_off channel=0 note=59 velocity=63 time=0
EXTRACT: note_off channel=0 note=55 velocity=63 time=0
EXTRACT: note_off channel=0 note=50 velocity=63 time=0
EXTRACT: note_off channel=0 note=45 velocity=63 time=0
EXTRACT: note_on channel=0 note=64 velocity=63 time=0.11298075416666667
EXTRACT: note_on channel=0 note=59 velocity=63 time=0
EXTRACT: note_on channel=0 note=55 velocity=63 time=0
EXTRACT: note_on channel=0 note=50 velocity=63 time=0
EXTRACT: note_on channel=0 note=45 velocity=63 time=0
EXTRACT: note_off channel=0 note=64 velocity=63 time=0.031249995833333332
EXTRACT: note_off channel=0 note=59 velocity=63 time=0
EXTRACT: note_off channel=0 note=55 velocity=63 time=0
EXTRACT: note_off channel=0 note=50 velocity=63 time=0
EXTRACT: note_off channel=0 note=45 velocity=63 time=0
EXTRACT: note_on channel=0 note=72 velocity=63 time=0.11298075416666667
EXTRACT: note_on channel=0 note=68 velocity=63 time=0
EXTRACT: note_on channel=0 note=65 velocity=63 time=0
EXTRACT: note_on channel=0 note=60 velocity=63 time=0
EXTRACT: note_on channel=0 note=53 velocity=63 time=0
EXTRACT: note_off channel=2 note=51 velocity=79 time=0
EXTRACT: note_on channel=2 note=46 velocity=79 time=0
EXTRACT: note_off channel=0 note=72 velocity=63 time=0.14423075
EXTRACT: note_off channel=0 note=68 velocity=63 time=0
EXTRACT: note_off channel=0 note=65 velocity=63 time=0
EXTRACT: note_off channel=0 note=60 velocity=63 time=0
EXTRACT: note_off channel=0 note=53 velocity=63 time=0
EXTRACT: note_on channel=0 note=72 velocity=63 time=0
EXTRACT: note_on channel=0 note=68 velocity=63 time=0
EXTRACT: note_on channel=0 note=65 velocity=63 time=0
EXTRACT: note_on channel=0 note=60 velocity=63 time=0
EXTRACT: note_on channel=0 note=53 velocity=63 time=0
EXTRACT: note_off channel=2 note=46 velocity=79 time=0
EXTRACT: note_on channel=2 note=48 velocity=54 time=0
EXTRACT: note_off channel=0 note=72 velocity=63 time=0.14423075
EXTRACT: note_off channel=0 note=68 velocity=63 time=0
EXTRACT: note_off channel=0 note=65 velocity=63 time=0
EXTRACT: note_off channel=0 note=60 velocity=63 time=0
EXTRACT: note_off channel=0 note=53 velocity=63 time=0
EXTRACT: note_on channel=0 note=64 velocity=63 time=0
EXTRACT: note_on channel=0 note=59 velocity=63 time=0
EXTRACT: note_on channel=0 note=55 velocity=63 time=0
EXTRACT: note_on channel=0 note=50 velocity=63 time=0
EXTRACT: note_on channel=0 note=45 velocity=63 time=0
EXTRACT: note_off channel=2 note=48 velocity=54 time=0
EXTRACT: note_on channel=2 note=51 velocity=79 time=0
EXTRACT: note_off channel=0 note=64 velocity=63 time=0.031249995833333332
EXTRACT: note_off channel=0 note=59 velocity=63 time=0
EXTRACT: note_off channel=0 note=55 velocity=63 time=0
EXTRACT: note_off channel=0 note=50 velocity=63 time=0
EXTRACT: note_off channel=0 note=45 velocity=63 time=0
EXTRACT: note_on channel=0 note=64 velocity=63 time=0.11298075416666667
EXTRACT: note_on channel=0 note=59 velocity=63 time=0
EXTRACT: note_on channel=0 note=55 velocity=63 time=0
EXTRACT: note_on channel=0 note=50 velocity=63 time=0
EXTRACT: note_on channel=0 note=45 velocity=63 time=0
EXTRACT: note_off channel=0 note=64 velocity=63 time=0.031249995833333332
EXTRACT: note_off channel=0 note=59 velocity=63 time=0
EXTRACT: note_off channel=0 note=55 velocity=63 time=0
EXTRACT: note_off channel=0 note=50 velocity=63 time=0
EXTRACT: note_off channel=0 note=45 velocity=63 time=0
EXTRACT: note_on channel=0 note=72 velocity=63 time=0.11298075416666667
EXTRACT: note_on channel=0 note=68 velocity=63 time=0
EXTRACT: note_on channel=0 note=65 velocity=63 time=0
EXTRACT: note_on channel=0 note=60 velocity=63 time=0
EXTRACT: note_on channel=0 note=53 velocity=63 time=0
EXTRACT: note_off channel=2 note=51 velocity=79 time=0
EXTRACT: note_off channel=0 note=72 velocity=63 time=0.14423075
EXTRACT: note_off channel=0 note=68 velocity=63 time=0
EXTRACT: note_off channel=0 note=65 velocity=63 time=0
EXTRACT: note_off channel=0 note=60 velocity=63 time=0
EXTRACT: note_off channel=0 note=53 velocity=63 time=0
EXTRACT: note_on channel=0 note=72 velocity=63 time=0
EXTRACT: note_on channel=0 note=68 velocity=63 time=0
EXTRACT: note_on channel=0 note=65 velocity=63 time=0
EXTRACT: note_on channel=0 note=60 velocity=63 time=0
EXTRACT: note_on channel=0 note=53 velocity=63 time=0
EXTRACT: note_on channel=2 note=45 velocity=79 time=0
EXTRACT: note_off channel=2 note=45 velocity=79 time=0.031249995833333332
EXTRACT: note_on channel=5 note=72 velocity=95 time=0.04086537916666667
EXTRACT: note_off channel=0 note=72 velocity=63 time=0.072115375
EXTRACT: note_off channel=0 note=68 velocity=63 time=0
EXTRACT: note_off channel=0 note=65 velocity=63 time=0
EXTRACT: note_off channel=0 note=60 velocity=63 time=0
EXTRACT: note_off channel=0 note=53 velocity=63 time=0
EXTRACT: note_on channel=0 note=64 velocity=63 time=0
EXTRACT: note_on channel=0 note=59 velocity=63 time=0
EXTRACT: note_on channel=0 note=55 velocity=63 time=0
EXTRACT: note_on channel=0 note=50 velocity=63 time=0
EXTRACT: note_on channel=0 note=45 velocity=63 time=0
EXTRACT: note_on channel=2 note=46 velocity=79 time=0
EXTRACT: note_off channel=4 note=72 velocity=95 time=0
EXTRACT: note_off channel=5 note=72 velocity=95 time=0
EXTRACT: note_on channel=5 note=72 velocity=95 time=0
EXTRACT: note_off channel=0 note=64 velocity=63 time=0.031249995833333332
EXTRACT: note_off channel=0 note=59 velocity=63 time=0
EXTRACT: note_off channel=0 note=55 velocity=63 time=0
EXTRACT: note_off channel=0 note=50 velocity=63 time=0
EXTRACT: note_off channel=0 note=45 velocity=63 time=0
EXTRACT: note_on channel=0 note=64 velocity=63 time=0.11298075416666667
EXTRACT: note_on channel=0 note=59 velocity=63 time=0
EXTRACT: note_on channel=0 note=55 velocity=63 time=0
EXTRACT: note_on channel=0 note=50 velocity=63 time=0
EXTRACT: note_on channel=0 note=45 velocity=63 time=0
EXTRACT: note_off channel=0 note=64 velocity=63 time=0.031249995833333332
EXTRACT: note_off channel=0 note=59 velocity=63 time=0
EXTRACT: note_off channel=0 note=55 velocity=63 time=0
EXTRACT: note_off channel=0 note=50 velocity=63 time=0
EXTRACT: note_off channel=0 note=45 velocity=63 time=0
EXTRACT: note_on channel=5 note=72 velocity=95 time=0.04086537916666667
EXTRACT: note_on channel=0 note=72 velocity=63 time=0.072115375
EXTRACT: note_on channel=0 note=68 velocity=63 time=0
EXTRACT: note_on channel=0 note=65 velocity=63 time=0
EXTRACT: note_on channel=0 note=60 velocity=63 time=0
EXTRACT: note_on channel=0 note=53 velocity=63 time=0
EXTRACT: note_off channel=2 note=46 velocity=79 time=0
EXTRACT: note_on channel=2 note=48 velocity=79 time=0
EXTRACT: note_off channel=5 note=72 velocity=95 time=0
EXTRACT: note_off channel=5 note=72 velocity=95 time=0
EXTRACT: note_on channel=5 note=72 velocity=95 time=0
EXTRACT: note_off channel=0 note=72 velocity=63 time=0.14423075
EXTRACT: note_off channel=0 note=68 velocity=63 time=0
EXTRACT: note_off channel=0 note=65 velocity=63 time=0
EXTRACT: note_off channel=0 note=60 velocity=63 time=0
EXTRACT: note_off channel=0 note=53 velocity=63 time=0
EXTRACT: note_on channel=0 note=72 velocity=63 time=0
EXTRACT: note_on channel=0 note=68 velocity=63 time=0
EXTRACT: note_on channel=0 note=65 velocity=63 time=0
EXTRACT: note_on channel=0 note=60 velocity=63 time=0
EXTRACT: note_on channel=0 note=53 velocity=63 time=0
EXTRACT: note_off channel=0 note=72 velocity=63 time=0.14423075
EXTRACT: note_off channel=0 note=68 velocity=63 time=0
EXTRACT: note_off channel=0 note=65 velocity=63 time=0
EXTRACT: note_off channel=0 note=60 velocity=63 time=0
EXTRACT: note_off channel=0 note=53 velocity=63 time=0
EXTRACT: note_on channel=0 note=64 velocity=63 time=0
EXTRACT: note_on channel=0 note=59 velocity=63 time=0
EXTRACT: note_on channel=0 note=55 velocity=63 time=0
EXTRACT: note_on channel=0 note=50 velocity=63 time=0
EXTRACT: note_on channel=0 note=45 velocity=63 time=0
EXTRACT: note_off channel=2 note=48 velocity=79 time=0
EXTRACT: note_on channel=2 note=51 velocity=79 time=0
EXTRACT: note_off channel=5 note=72 velocity=95 time=0
EXTRACT: note_on channel=4 note=70 velocity=95 time=0
EXTRACT: note_off channel=0 note=64 velocity=63 time=0.031249995833333332
EXTRACT: note_off channel=0 note=59 velocity=63 time=0
EXTRACT: note_off channel=0 note=55 velocity=63 time=0
EXTRACT: note_off channel=0 note=50 velocity=63 time=0
EXTRACT: note_off channel=0 note=45 velocity=63 time=0
EXTRACT: note_on channel=0 note=64 velocity=63 time=0.11298075416666667
EXTRACT: note_on channel=0 note=59 velocity=63 time=0
EXTRACT: note_on channel=0 note=55 velocity=63 time=0
EXTRACT: note_on channel=0 note=50 velocity=63 time=0
EXTRACT: note_on channel=0 note=45 velocity=63 time=0
EXTRACT: note_off channel=0 note=64 velocity=63 time=0.031249995833333332
EXTRACT: note_off channel=0 note=59 velocity=63 time=0
EXTRACT: note_off channel=0 note=55 velocity=63 time=0
EXTRACT: note_off channel=0 note=50 velocity=63 time=0
EXTRACT: note_off channel=0 note=45 velocity=63 time=0
EXTRACT: note_on channel=5 note=70 velocity=95 time=0.04086537916666667
EXTRACT: note_on channel=0 note=72 velocity=63 time=0.072115375
EXTRACT: note_on channel=0 note=68 velocity=63 time=0
EXTRACT: note_on channel=0 note=65 velocity=63 time=0
EXTRACT: note_on channel=0 note=60 velocity=63 time=0
EXTRACT: note_on channel=0 note=53 velocity=63 time=0
EXTRACT: note_off channel=2 note=51 velocity=79 time=0
EXTRACT: note_on channel=2 note=53 velocity=79 time=0
EXTRACT: note_off channel=4 note=70 velocity=95 time=0
EXTRACT: note_off channel=5 note=70 velocity=95 time=0
EXTRACT: note_on channel=5 note=70 velocity=95 time=0
EXTRACT: note_off channel=0 note=72 velocity=63 time=0.14423075
EXTRACT: note_off channel=0 note=68 velocity=63 time=0
EXTRACT: note_off channel=0 note=65 velocity=63 time=0
EXTRACT: note_off channel=0 note=60 velocity=63 time=0
EXTRACT: note_off channel=0 note=53 velocity=63 time=0
EXTRACT: note_on channel=0 note=72 velocity=63 time=0
EXTRACT: note_on channel=0 note=68 velocity=63 time=0
EXTRACT: note_on channel=0 note=65 velocity=63 time=0
EXTRACT: note_on channel=0 note=60 velocity=63 time=0
EXTRACT: note_on channel=0 note=53 velocity=63 time=0
EXTRACT: note_off channel=0 note=72 velocity=63 time=0.14423075
EXTRACT: note_off channel=0 note=68 velocity=63 time=0
EXTRACT: note_off channel=0 note=65 velocity=63 time=0
EXTRACT: note_off channel=0 note=60 velocity=63 time=0
EXTRACT: note_off channel=0 note=53 velocity=63 time=0
EXTRACT: note_on channel=0 note=64 velocity=63 time=0
EXTRACT: note_on channel=0 note=59 velocity=63 time=0
EXTRACT: note_on channel=0 note=55 velocity=63 time=0
EXTRACT: note_on channel=0 note=50 velocity=63 time=0
EXTRACT: note_on channel=0 note=45 velocity=63 time=0
EXTRACT: note_off channel=2 note=53 velocity=79 time=0
EXTRACT: note_on channel=2 note=56 velocity=79 time=0
EXTRACT: note_off channel=5 note=70 velocity=95 time=0
EXTRACT: note_on channel=4 note=68 velocity=95 time=0
EXTRACT: note_off channel=0 note=64 velocity=63 time=0.031249995833333332
EXTRACT: note_off channel=0 note=59 velocity=63 time=0
EXTRACT: note_off channel=0 note=55 velocity=63 time=0
EXTRACT: note_off channel=0 note=50 velocity=63 time=0
EXTRACT: note_off channel=0 note=45 velocity=63 time=0
EXTRACT: note_on channel=0 note=64 velocity=63 time=0.11298075416666667
EXTRACT: note_on channel=0 note=59 velocity=63 time=0
EXTRACT: note_on channel=0 note=55 velocity=63 time=0
EXTRACT: note_on channel=0 note=50 velocity=63 time=0
EXTRACT: note_on channel=0 note=45 velocity=63 time=0
EXTRACT: note_off channel=0 note=64 velocity=63 time=0.031249995833333332
EXTRACT: note_off channel=0 note=59 velocity=63 time=0
EXTRACT: note_off channel=0 note=55 velocity=63 time=0
EXTRACT: note_off channel=0 note=50 velocity=63 time=0
EXTRACT: note_off channel=0 note=45 velocity=63 time=0
EXTRACT: note_on channel=0 note=70 velocity=63 time=0.11298075416666667
EXTRACT: note_on channel=0 note=65 velocity=63 time=0
EXTRACT: note_on channel=0 note=62 velocity=63 time=0
EXTRACT: note_on channel=0 note=58 velocity=63 time=0
EXTRACT: note_on channel=0 note=53 velocity=63 time=0
EXTRACT: note_on channel=0 note=46 velocity=63 time=0
EXTRACT: note_off channel=2 note=56 velocity=79 time=0
EXTRACT: note_on channel=2 note=53 velocity=79 time=0
EXTRACT: note_off channel=4 note=68 velocity=95 time=0
EXTRACT: note_off channel=0 note=70 velocity=63 time=0.14423075
EXTRACT: note_off channel=0 note=65 velocity=63 time=0
EXTRACT: note_off channel=0 note=62 velocity=63 time=0
EXTRACT: note_off channel=0 note=58 velocity=63 time=0
EXTRACT: note_off channel=0 note=53 velocity=63 time=0
EXTRACT: note_off channel=0 note=46 velocity=63 time=0
EXTRACT: note_on channel=0 note=70 velocity=63 time=0
EXTRACT: note_on channel=0 note=65 velocity=63 time=0
EXTRACT: note_on channel=0 note=62 velocity=63 time=0
EXTRACT: note_on channel=0 note=58 velocity=63 time=0
EXTRACT: note_on channel=0 note=53 velocity=63 time=0
EXTRACT: note_on channel=0 note=46 velocity=63 time=0
EXTRACT: note_off channel=2 note=53 velocity=79 time=0
EXTRACT: note_off channel=0 note=70 velocity=63 time=0.14423075
EXTRACT: note_off channel=0 note=65 velocity=63 time=0
EXTRACT: note_off channel=0 note=62 velocity=63 time=0
EXTRACT: note_off channel=0 note=58 velocity=63 time=0
EXTRACT: note_off channel=0 note=53 velocity=63 time=0
EXTRACT: note_off channel=0 note=46 velocity=63 time=0
EXTRACT: note_on channel=0 note=64 velocity=63 time=0
EXTRACT: note_on channel=0 note=59 velocity=63 time=0
EXTRACT: note_on channel=0 note=55 velocity=63 time=0
EXTRACT: note_on channel=0 note=50 velocity=63 time=0
EXTRACT: note_on channel=0 note=45 velocity=63 time=0
EXTRACT: note_on channel=0 note=40 velocity=63 time=0
EXTRACT: note_on channel=2 note=58 velocity=79 time=0
EXTRACT: note_on channel=4 note=58 velocity=95 time=0
EXTRACT: note_off channel=0 note=64 velocity=63 time=0.031249995833333332
EXTRACT: note_off channel=0 note=59 velocity=63 time=0
EXTRACT: note_off channel=0 note=55 velocity=63 time=0
EXTRACT: note_off channel=0 note=50 velocity=63 time=0
EXTRACT: note_off channel=0 note=45 velocity=63 time=0
EXTRACT: note_off channel=0 note=40 velocity=63 time=0
EXTRACT: note_on channel=0 note=64 velocity=63 time=0.11298075416666667
EXTRACT: note_on channel=0 note=59 velocity=63 time=0
EXTRACT: note_on channel=0 note=55 velocity=63 time=0
EXTRACT: note_on channel=0 note=50 velocity=63 time=0
EXTRACT: note_on channel=0 note=45 velocity=63 time=0
EXTRACT: note_on channel=0 note=40 velocity=63 time=0
EXTRACT: note_off channel=2 note=58 velocity=79 time=0
EXTRACT: note_off channel=0 note=64 velocity=63 time=0.031249995833333332
EXTRACT: note_off channel=0 note=59 velocity=63 time=0
EXTRACT: note_off channel=0 note=55 velocity=63 time=0
EXTRACT: note_off channel=0 note=50 velocity=63 time=0
EXTRACT: note_off channel=0 note=45 velocity=63 time=0
EXTRACT: note_off channel=0 note=40 velocity=63 time=0
EXTRACT: note_on channel=0 note=70 velocity=63 time=0.11298075416666667
EXTRACT: note_on channel=0 note=65 velocity=63 time=0
EXTRACT: note_on channel=0 note=62 velocity=63 time=0
EXTRACT: note_on channel=0 note=58 velocity=63 time=0
EXTRACT: note_on channel=0 note=53 velocity=63 time=0
EXTRACT: note_on channel=0 note=46 velocity=63 time=0
EXTRACT: note_on channel=2 note=70 velocity=79 time=0
EXTRACT: note_on channel=2 note=65 velocity=79 time=0
EXTRACT: note_on channel=2 note=62 velocity=79 time=0
EXTRACT: note_off channel=4 note=58 velocity=95 time=0
EXTRACT: note_on channel=4 note=58 velocity=95 time=0
EXTRACT: note_off channel=0 note=70 velocity=63 time=0.14423075
EXTRACT: note_off channel=0 note=65 velocity=63 time=0
EXTRACT: note_off channel=0 note=62 velocity=63 time=0
EXTRACT: note_off channel=0 note=58 velocity=63 time=0
EXTRACT: note_off channel=0 note=53 velocity=63 time=0
EXTRACT: note_off channel=0 note=46 velocity=63 time=0
EXTRACT: note_on channel=0 note=70 velocity=63 time=0
EXTRACT: note_on channel=0 note=65 velocity=63 time=0
EXTRACT: note_on channel=0 note=62 velocity=63 time=0
EXTRACT: note_on channel=0 note=58 velocity=63 time=0
EXTRACT: note_on channel=0 note=53 velocity=63 time=0
EXTRACT: note_on channel=0 note=46 velocity=63 time=0
EXTRACT: note_off channel=2 note=70 velocity=79 time=0
EXTRACT: note_off channel=2 note=65 velocity=79 time=0
EXTRACT: note_off channel=2 note=62 velocity=79 time=0
EXTRACT: note_off channel=0 note=70 velocity=63 time=0.14423075
EXTRACT: note_off channel=0 note=65 velocity=63 time=0
EXTRACT: note_off channel=0 note=62 velocity=63 time=0
EXTRACT: note_off channel=0 note=58 velocity=63 time=0
EXTRACT: note_off channel=0 note=53 velocity=63 time=0
EXTRACT: note_off channel=0 note=46 velocity=63 time=0
EXTRACT: note_on channel=0 note=64 velocity=63 time=0
EXTRACT: note_on channel=0 note=59 velocity=63 time=0
EXTRACT: note_on channel=0 note=55 velocity=63 time=0
EXTRACT: note_on channel=0 note=50 velocity=63 time=0
EXTRACT: note_on channel=0 note=45 velocity=63 time=0
EXTRACT: note_on channel=0 note=40 velocity=63 time=0
EXTRACT: note_off channel=4 note=58 velocity=95 time=0
EXTRACT: note_on channel=4 note=56 velocity=95 time=0
EXTRACT: note_off channel=0 note=64 velocity=63 time=0.031249995833333332
EXTRACT: note_off channel=0 note=59 velocity=63 time=0
EXTRACT: note_off channel=0 note=55 velocity=63 time=0
EXTRACT: note_off channel=0 note=50 velocity=63 time=0
EXTRACT: note_off channel=0 note=45 velocity=63 time=0
EXTRACT: note_off channel=0 note=40 velocity=63 time=0
EXTRACT: note_on channel=0 note=64 velocity=63 time=0.11298075416666667
EXTRACT: note_on channel=0 note=59 velocity=63 time=0
EXTRACT: note_on channel=0 note=55 velocity=63 time=0
EXTRACT: note_on channel=0 note=50 velocity=63 time=0
EXTRACT: note_on channel=0 note=45 velocity=63 time=0
EXTRACT: note_on channel=0 note=40 velocity=63 time=0
EXTRACT: note_off channel=0 note=64 velocity=63 time=0.031249995833333332
EXTRACT: note_off channel=0 note=59 velocity=63 time=0
EXTRACT: note_off channel=0 note=55 velocity=63 time=0
EXTRACT: note_off channel=0 note=50 velocity=63 time=0
EXTRACT: note_off channel=0 note=45 velocity=63 time=0
EXTRACT: note_off channel=0 note=40 velocity=63 time=0
EXTRACT: note_on channel=5 note=60 velocity=95 time=0.04086537916666667
EXTRACT: note_on channel=0 note=70 velocity=63 time=0.072115375
EXTRACT: note_on channel=0 note=65 velocity=63 time=0
EXTRACT: note_on channel=0 note=62 velocity=63 time=0
EXTRACT: note_on channel=0 note=58 velocity=63 time=0
EXTRACT: note_on channel=0 note=53 velocity=63 time=0
EXTRACT: note_on channel=0 note=46 velocity=63 time=0
EXTRACT: note_off channel=4 note=56 velocity=95 time=0
EXTRACT: note_off channel=5 note=60 velocity=95 time=0
EXTRACT: note_on channel=5 note=60 velocity=95 time=0
EXTRACT: note_off channel=0 note=70 velocity=63 time=0.14423075
EXTRACT: note_off channel=0 note=65 velocity=63 time=0
EXTRACT: note_off channel=0 note=62 velocity=63 time=0
EXTRACT: note_off channel=0 note=58 velocity=63 time=0
EXTRACT: note_off channel=0 note=53 velocity=63 time=0
EXTRACT: note_off channel=0 note=46 velocity=63 time=0
EXTRACT: note_on channel=0 note=70 velocity=63 time=0
EXTRACT: note_on channel=0 note=65 velocity=63 time=0
EXTRACT: note_on channel=0 note=62 velocity=63 time=0
EXTRACT: note_on channel=0 note=58 velocity=63 time=0
EXTRACT: note_on channel=0 note=53 velocity=63 time=0
EXTRACT: note_on channel=0 note=46 velocity=63 time=0
EXTRACT: note_on channel=2 note=56 velocity=79 time=0
EXTRACT: note_off channel=0 note=70 velocity=63 time=0.14423075
EXTRACT: note_off channel=0 note=65 velocity=63 time=0
EXTRACT: note_off channel=0 note=62 velocity=63 time=0
EXTRACT: note_off channel=0 note=58 velocity=63 time=0
EXTRACT: note_off channel=0 note=53 velocity=63 time=0
EXTRACT: note_off channel=0 note=46 velocity=63 time=0
EXTRACT: note_on channel=0 note=64 velocity=63 time=0
EXTRACT: note_on channel=0 note=59 velocity=63 time=0
EXTRACT: note_on channel=0 note=55 velocity=63 time=0
EXTRACT: note_on channel=0 note=50 velocity=63 time=0
EXTRACT: note_on channel=0 note=45 velocity=63 time=0
EXTRACT: note_on channel=0 note=40 velocity=63 time=0
EXTRACT: note_off channel=2 note=56 velocity=79 time=0
EXTRACT: note_off channel=0 note=64 velocity=63 time=0.031249995833333332
EXTRACT: note_off channel=0 note=59 velocity=63 time=0
EXTRACT: note_off channel=0 note=55 velocity=63 time=0
EXTRACT: note_off channel=0 note=50 velocity=63 time=0
EXTRACT: note_off channel=0 note=45 velocity=63 time=0
EXTRACT: note_off channel=0 note=40 velocity=63 time=0
EXTRACT: note_on channel=0 note=64 velocity=63 time=0.11298075416666667
EXTRACT: note_on channel=0 note=59 velocity=63 time=0
EXTRACT: note_on channel=0 note=55 velocity=63 time=0
EXTRACT: note_on channel=0 note=50 velocity=63 time=0
EXTRACT: note_on channel=0 note=45 velocity=63 time=0
EXTRACT: note_on channel=0 note=40 velocity=63 time=0
EXTRACT: note_on channel=2 note=50 velocity=79 time=0
EXTRACT: note_off channel=5 note=60 velocity=95 time=0
EXTRACT: note_on channel=4 note=58 velocity=95 time=0
EXTRACT: note_off channel=0 note=64 velocity=63 time=0.031249995833333332
EXTRACT: note_off channel=0 note=59 velocity=63 time=0
EXTRACT: note_off channel=0 note=55 velocity=63 time=0
EXTRACT: note_off channel=0 note=50 velocity=63 time=0
EXTRACT: note_off channel=0 note=45 velocity=63 time=0
EXTRACT: note_off channel=0 note=40 velocity=63 time=0
EXTRACT: note_on channel=0 note=70 velocity=63 time=0.11298075416666667
EXTRACT: note_on channel=0 note=65 velocity=63 time=0
EXTRACT: note_on channel=0 note=62 velocity=63 time=0
EXTRACT: note_on channel=0 note=58 velocity=63 time=0
EXTRACT: note_on channel=0 note=53 velocity=63 time=0
EXTRACT: note_on channel=0 note=46 velocity=63 time=0
EXTRACT: note_off channel=2 note=50 velocity=79 time=0
EXTRACT: note_on channel=2 note=56 velocity=79 time=0
EXTRACT: note_off channel=0 note=70 velocity=63 time=0.14423075
EXTRACT: note_off channel=0 note=65 velocity=63 time=0
EXTRACT: note_off channel=0 note=62 velocity=63 time=0
EXTRACT: note_off channel=0 note=58 velocity=63 time=0
EXTRACT: note_off channel=0 note=53 velocity=63 time=0
EXTRACT: note_off channel=0 note=46 velocity=63 time=0
EXTRACT: note_on channel=0 note=70 velocity=63 time=0
EXTRACT: note_on channel=0 note=65 velocity=63 time=0
EXTRACT: note_on channel=0 note=62 velocity=63 time=0
EXTRACT: note_on channel=0 note=58 velocity=63 time=0
EXTRACT: note_on channel=0 note=53 velocity=63 time=0
EXTRACT: note_on channel=0 note=46 velocity=63 time=0
EXTRACT: note_off channel=4 note=58 velocity=95 time=0
EXTRACT: note_on channel=4 note=56 velocity=95 time=0
EXTRACT: note_off channel=0 note=70 velocity=63 time=0.14423075
EXTRACT: note_off channel=0 note=65 velocity=63 time=0
EXTRACT: note_off channel=0 note=62 velocity=63 time=0
EXTRACT: note_off channel=0 note=58 velocity=63 time=0
EXTRACT: note_off channel=0 note=53 velocity=63 time=0
EXTRACT: note_off channel=0 note=46 velocity=63 time=0
EXTRACT: note_on channel=0 note=64 velocity=63 time=0
EXTRACT: note_on channel=0 note=59 velocity=63 time=0
EXTRACT: note_on channel=0 note=55 velocity=63 time=0
EXTRACT: note_on channel=0 note=50 velocity=63 time=0
EXTRACT: note_on channel=0 note=45 velocity=63 time=0
EXTRACT: note_on channel=0 note=40 velocity=63 time=0
EXTRACT: note_off channel=2 note=56 velocity=79 time=0
EXTRACT: note_on channel=2 note=70 velocity=79 time=0
EXTRACT: note_on channel=2 note=65 velocity=79 time=0
EXTRACT: note_on channel=2 note=62 velocity=79 time=0
EXTRACT: note_off channel=4 note=56 velocity=95 time=0
EXTRACT: note_on channel=4 note=53 velocity=95 time=0
EXTRACT: note_off channel=0 note=64 velocity=63 time=0.031249995833333332
EXTRACT: note_off channel=0 note=59 velocity=63 time=0
EXTRACT: note_off channel=0 note=55 velocity=63 time=0
EXTRACT: note_off channel=0 note=50 velocity=63 time=0
EXTRACT: note_off channel=0 note=45 velocity=63 time=0
EXTRACT: note_off channel=0 note=40 velocity=63 time=0
EXTRACT: note_on channel=0 note=64 velocity=63 time=0.11298075416666667
EXTRACT: note_on channel=0 note=59 velocity=63 time=0
EXTRACT: note_on channel=0 note=55 velocity=63 time=0
EXTRACT: note_on channel=0 note=50 velocity=63 time=0
EXTRACT: note_on channel=0 note=45 velocity=63 time=0
EXTRACT: note_on channel=0 note=40 velocity=63 time=0
EXTRACT: note_off channel=2 note=70 velocity=79 time=0
EXTRACT: note_off channel=2 note=65 velocity=79 time=0
EXTRACT: note_off channel=2 note=62 velocity=79 time=0
EXTRACT: note_off channel=4 note=53 velocity=95 time=0
EXTRACT: note_off channel=0 note=64 velocity=63 time=0.031249995833333332
EXTRACT: note_off channel=0 note=59 velocity=63 time=0
EXTRACT: note_off channel=0 note=55 velocity=63 time=0
EXTRACT: note_off channel=0 note=50 velocity=63 time=0
EXTRACT: note_off channel=0 note=45 velocity=63 time=0
EXTRACT: note_off channel=0 note=40 velocity=63 time=0
EXTRACT: note_on channel=0 note=70 velocity=63 time=0.11298075416666667
EXTRACT: note_on channel=0 note=65 velocity=63 time=0
EXTRACT: note_on channel=0 note=62 velocity=63 time=0
EXTRACT: note_on channel=0 note=58 velocity=63 time=0
EXTRACT: note_on channel=0 note=53 velocity=63 time=0
EXTRACT: note_on channel=0 note=46 velocity=63 time=0
EXTRACT: note_on channel=2 note=53 velocity=79 time=0
EXTRACT: note_off channel=0 note=70 velocity=63 time=0.14423075
EXTRACT: note_off channel=0 note=65 velocity=63 time=0
EXTRACT: note_off channel=0 note=62 velocity=63 time=0
EXTRACT: note_off channel=0 note=58 velocity=63 time=0
EXTRACT: note_off channel=0 note=53 velocity=63 time=0
EXTRACT: note_off channel=0 note=46 velocity=63 time=0
EXTRACT: note_on channel=0 note=70 velocity=63 time=0
EXTRACT: note_on channel=0 note=65 velocity=63 time=0
EXTRACT: note_on channel=0 note=62 velocity=63 time=0
EXTRACT: note_on channel=0 note=58 velocity=63 time=0
EXTRACT: note_on channel=0 note=53 velocity=63 time=0
EXTRACT: note_on channel=0 note=46 velocity=63 time=0
EXTRACT: note_off channel=2 note=53 velocity=79 time=0
EXTRACT: note_off channel=0 note=70 velocity=63 time=0.14423075
EXTRACT: note_off channel=0 note=65 velocity=63 time=0
EXTRACT: note_off channel=0 note=62 velocity=63 time=0
EXTRACT: note_off channel=0 note=58 velocity=63 time=0
EXTRACT: note_off channel=0 note=53 velocity=63 time=0
EXTRACT: note_off channel=0 note=46 velocity=63 time=0
EXTRACT: note_on channel=0 note=64 velocity=63 time=0
EXTRACT: note_on channel=0 note=59 velocity=63 time=0
EXTRACT: note_on channel=0 note=55 velocity=63 time=0
EXTRACT: note_on channel=0 note=50 velocity=63 time=0
EXTRACT: note_on channel=0 note=45 velocity=63 time=0
EXTRACT: note_on channel=0 note=40 velocity=63 time=0
EXTRACT: note_on channel=2 note=58 velocity=79 time=0
EXTRACT: note_on channel=4 note=58 velocity=95 time=0
EXTRACT: note_off channel=0 note=64 velocity=63 time=0.031249995833333332
EXTRACT: note_off channel=0 note=59 velocity=63 time=0
EXTRACT: note_off channel=0 note=55 velocity=63 time=0
EXTRACT: note_off channel=0 note=50 velocity=63 time=0
EXTRACT: note_off channel=0 note=45 velocity=63 time=0
EXTRACT: note_off channel=0 note=40 velocity=63 time=0
EXTRACT: note_on channel=0 note=64 velocity=63 time=0.11298075416666667
EXTRACT: note_on channel=0 note=59 velocity=63 time=0
EXTRACT: note_on channel=0 note=55 velocity=63 time=0
EXTRACT: note_on channel=0 note=50 velocity=63 time=0
EXTRACT: note_on channel=0 note=45 velocity=63 time=0
EXTRACT: note_on channel=0 note=40 velocity=63 time=0
EXTRACT: note_off channel=2 note=58 velocity=79 time=0
EXTRACT: note_off channel=0 note=64 velocity=63 time=0.031249995833333332
EXTRACT: note_off channel=0 note=59 velocity=63 time=0
EXTRACT: note_off channel=0 note=55 velocity=63 time=0
EXTRACT: note_off channel=0 note=50 velocity=63 time=0
EXTRACT: note_off channel=0 note=45 velocity=63 time=0
EXTRACT: note_off channel=0 note=40 velocity=63 time=0
EXTRACT: note_on channel=0 note=70 velocity=63 time=0.11298075416666667
EXTRACT: note_on channel=0 note=65 velocity=63 time=0
EXTRACT: note_on channel=0 note=62 velocity=63 time=0
EXTRACT: note_on channel=0 note=58 velocity=63 time=0
EXTRACT: note_on channel=0 note=53 velocity=63 time=0
EXTRACT: note_on channel=0 note=46 velocity=63 time=0
EXTRACT: note_on channel=2 note=70 velocity=79 time=0
EXTRACT: note_on channel=2 note=65 velocity=79 time=0
EXTRACT: note_on channel=2 note=62 velocity=79 time=0
EXTRACT: note_off channel=4 note=58 velocity=95 time=0
EXTRACT: note_on channel=4 note=58 velocity=95 time=0
EXTRACT: note_off channel=0 note=70 velocity=63 time=0.14423075
EXTRACT: note_off channel=0 note=65 velocity=63 time=0
EXTRACT: note_off channel=0 note=62 velocity=63 time=0
EXTRACT: note_off channel=0 note=58 velocity=63 time=0
EXTRACT: note_off channel=0 note=53 velocity=63 time=0
EXTRACT: note_off channel=0 note=46 velocity=63 time=0
EXTRACT: note_on channel=0 note=70 velocity=63 time=0
EXTRACT: note_on channel=0 note=65 velocity=63 time=0
EXTRACT: note_on channel=0 note=62 velocity=63 time=0
EXTRACT: note_on channel=0 note=58 velocity=63 time=0
EXTRACT: note_on channel=0 note=53 velocity=63 time=0
EXTRACT: note_on channel=0 note=46 velocity=63 time=0
EXTRACT: note_off channel=2 note=70 velocity=79 time=0
EXTRACT: note_off channel=2 note=65 velocity=79 time=0
EXTRACT: note_off channel=2 note=62 velocity=79 time=0
EXTRACT: note_off channel=0 note=70 velocity=63 time=0.14423075
EXTRACT: note_off channel=0 note=65 velocity=63 time=0
EXTRACT: note_off channel=0 note=62 velocity=63 time=0
EXTRACT: note_off channel=0 note=58 velocity=63 time=0
EXTRACT: note_off channel=0 note=53 velocity=63 time=0
EXTRACT: note_off channel=0 note=46 velocity=63 time=0
EXTRACT: note_on channel=0 note=64 velocity=63 time=0
EXTRACT: note_on channel=0 note=59 velocity=63 time=0
EXTRACT: note_on channel=0 note=55 velocity=63 time=0
EXTRACT: note_on channel=0 note=50 velocity=63 time=0
EXTRACT: note_on channel=0 note=45 velocity=63 time=0
EXTRACT: note_on channel=0 note=40 velocity=63 time=0
EXTRACT: note_off channel=4 note=58 velocity=95 time=0
EXTRACT: note_on channel=4 note=56 velocity=95 time=0
EXTRACT: note_off channel=0 note=64 velocity=63 time=0.031249995833333332
EXTRACT: note_off channel=0 note=59 velocity=63 time=0
EXTRACT: note_off channel=0 note=55 velocity=63 time=0
EXTRACT: note_off channel=0 note=50 velocity=63 time=0
EXTRACT: note_off channel=0 note=45 velocity=63 time=0
EXTRACT: note_off channel=0 note=40 velocity=63 time=0
EXTRACT: note_on channel=0 note=64 velocity=63 time=0.11298075416666667
EXTRACT: note_on channel=0 note=59 velocity=63 time=0
EXTRACT: note_on channel=0 note=55 velocity=63 time=0
EXTRACT: note_on channel=0 note=50 velocity=63 time=0
EXTRACT: note_on channel=0 note=45 velocity=63 time=0
EXTRACT: note_on channel=0 note=40 velocity=63 time=0
EXTRACT: note_off channel=0 note=64 velocity=63 time=0.031249995833333332
EXTRACT: note_off channel=0 note=59 velocity=63 time=0
EXTRACT: note_off channel=0 note=55 velocity=63 time=0
EXTRACT: note_off channel=0 note=50 velocity=63 time=0
EXTRACT: note_off channel=0 note=45 velocity=63 time=0
EXTRACT: note_off channel=0 note=40 velocity=63 time=0
EXTRACT: note_on channel=0 note=70 velocity=63 time=0.11298075416666667
EXTRACT: note_on channel=0 note=65 velocity=63 time=0
EXTRACT: note_on channel=0 note=62 velocity=63 time=0
EXTRACT: note_on channel=0 note=58 velocity=63 time=0
EXTRACT: note_on channel=0 note=53 velocity=63 time=0
EXTRACT: note_on channel=0 note=46 velocity=63 time=0
EXTRACT: note_off channel=4 note=56 velocity=95 time=0
EXTRACT: note_on channel=4 note=60 velocity=95 time=0
EXTRACT: note_off channel=0 note=70 velocity=63 time=0.14423075
EXTRACT: note_off channel=0 note=65 velocity=63 time=0
EXTRACT: note_off channel=0 note=62 velocity=63 time=0
EXTRACT: note_off channel=0 note=58 velocity=63 time=0
EXTRACT: note_off channel=0 note=53 velocity=63 time=0
EXTRACT: note_off channel=0 note=46 velocity=63 time=0
EXTRACT: note_on channel=0 note=70 velocity=63 time=0
EXTRACT: note_on channel=0 note=65 velocity=63 time=0
EXTRACT: note_on channel=0 note=62 velocity=63 time=0
EXTRACT: note_on channel=0 note=58 velocity=63 time=0
EXTRACT: note_on channel=0 note=53 velocity=63 time=0
EXTRACT: note_on channel=0 note=46 velocity=63 time=0
EXTRACT: note_on channel=2 note=56 velocity=79 time=0
EXTRACT: note_off channel=0 note=70 velocity=63 time=0.14423075
EXTRACT: note_off channel=0 note=65 velocity=63 time=0
EXTRACT: note_off channel=0 note=62 velocity=63 time=0
EXTRACT: note_off channel=0 note=58 velocity=63 time=0
EXTRACT: note_off channel=0 note=53 velocity=63 time=0
EXTRACT: note_off channel=0 note=46 velocity=63 time=0
EXTRACT: note_on channel=0 note=64 velocity=63 time=0
EXTRACT: note_on channel=0 note=59 velocity=63 time=0
EXTRACT: note_on channel=0 note=55 velocity=63 time=0
EXTRACT: note_on channel=0 note=50 velocity=63 time=0
EXTRACT: note_on channel=0 note=45 velocity=63 time=0
EXTRACT: note_on channel=0 note=40 velocity=63 time=0
EXTRACT: note_off channel=2 note=56 velocity=79 time=0
EXTRACT: note_off channel=0 note=64 velocity=63 time=0.031249995833333332
EXTRACT: note_off channel=0 note=59 velocity=63 time=0
EXTRACT: note_off channel=0 note=55 velocity=63 time=0
EXTRACT: note_off channel=0 note=50 velocity=63 time=0
EXTRACT: note_off channel=0 note=45 velocity=63 time=0
EXTRACT: note_off channel=0 note=40 velocity=63 time=0
EXTRACT: note_on channel=0 note=64 velocity=63 time=0.11298075416666667
EXTRACT: note_on channel=0 note=59 velocity=63 time=0
EXTRACT: note_on channel=0 note=55 velocity=63 time=0
EXTRACT: note_on channel=0 note=50 velocity=63 time=0
EXTRACT: note_on channel=0 note=45 velocity=63 time=0
EXTRACT: note_on channel=0 note=40 velocity=63 time=0
EXTRACT: note_on channel=2 note=50 velocity=79 time=0
EXTRACT: note_off channel=4 note=60 velocity=95 time=0
EXTRACT: note_on channel=4 note=58 velocity=95 time=0
EXTRACT: note_off channel=0 note=64 velocity=63 time=0.031249995833333332
EXTRACT: note_off channel=0 note=59 velocity=63 time=0
EXTRACT: note_off channel=0 note=55 velocity=63 time=0
EXTRACT: note_off channel=0 note=50 velocity=63 time=0
EXTRACT: note_off channel=0 note=45 velocity=63 time=0
EXTRACT: note_off channel=0 note=40 velocity=63 time=0
EXTRACT: note_on channel=0 note=70 velocity=63 time=0.11298075416666667
EXTRACT: note_on channel=0 note=65 velocity=63 time=0
EXTRACT: note_on channel=0 note=62 velocity=63 time=0
EXTRACT: note_on channel=0 note=58 velocity=63 time=0
EXTRACT: note_on channel=0 note=53 velocity=63 time=0
EXTRACT: note_on channel=0 note=46 velocity=63 time=0
EXTRACT: note_off channel=2 note=50 velocity=79 time=0
EXTRACT: note_on channel=2 note=56 velocity=79 time=0
EXTRACT: note_off channel=0 note=70 velocity=63 time=0.14423075
EXTRACT: note_off channel=0 note=65 velocity=63 time=0
EXTRACT: note_off channel=0 note=62 velocity=63 time=0
EXTRACT: note_off channel=0 note=58 velocity=63 time=0
EXTRACT: note_off channel=0 note=53 velocity=63 time=0
EXTRACT: note_off channel=0 note=46 velocity=63 time=0
EXTRACT: note_on channel=0 note=70 velocity=63 time=0
EXTRACT: note_on channel=0 note=65 velocity=63 time=0
EXTRACT: note_on channel=0 note=62 velocity=63 time=0
EXTRACT: note_on channel=0 note=58 velocity=63 time=0
EXTRACT: note_on channel=0 note=53 velocity=63 time=0
EXTRACT: note_on channel=0 note=46 velocity=63 time=0
EXTRACT: note_off channel=4 note=58 velocity=95 time=0
EXTRACT: note_on channel=4 note=56 velocity=95 time=0
EXTRACT: note_off channel=0 note=70 velocity=63 time=0.14423075
EXTRACT: note_off channel=0 note=65 velocity=63 time=0
EXTRACT: note_off channel=0 note=62 velocity=63 time=0
EXTRACT: note_off channel=0 note=58 velocity=63 time=0
EXTRACT: note_off channel=0 note=53 velocity=63 time=0
EXTRACT: note_off channel=0 note=46 velocity=63 time=0
EXTRACT: note_on channel=0 note=64 velocity=63 time=0
EXTRACT: note_on channel=0 note=59 velocity=63 time=0
EXTRACT: note_on channel=0 note=55 velocity=63 time=0
EXTRACT: note_on channel=0 note=50 velocity=63 time=0
EXTRACT: note_on channel=0 note=45 velocity=63 time=0
EXTRACT: note_on channel=0 note=40 velocity=63 time=0
EXTRACT: note_off channel=2 note=56 velocity=79 time=0
EXTRACT: note_on channel=2 note=70 velocity=79 time=0
EXTRACT: note_on channel=2 note=65 velocity=79 time=0
EXTRACT: note_on channel=2 note=62 velocity=79 time=0
EXTRACT: note_off channel=4 note=56 velocity=95 time=0
EXTRACT: note_on channel=4 note=53 velocity=95 time=0
EXTRACT: note_off channel=0 note=64 velocity=63 time=0.031249995833333332
EXTRACT: note_off channel=0 note=59 velocity=63 time=0
EXTRACT: note_off channel=0 note=55 velocity=63 time=0
EXTRACT: note_off channel=0 note=50 velocity=63 time=0
EXTRACT: note_off channel=0 note=45 velocity=63 time=0
EXTRACT: note_off channel=0 note=40 velocity=63 time=0
EXTRACT: note_on channel=0 note=64 velocity=63 time=0.11298075416666667
EXTRACT: note_on channel=0 note=59 velocity=63 time=0
EXTRACT: note_on channel=0 note=55 velocity=63 time=0
EXTRACT: note_on channel=0 note=50 velocity=63 time=0
EXTRACT: note_on channel=0 note=45 velocity=63 time=0
EXTRACT: note_on channel=0 note=40 velocity=63 time=0
EXTRACT: note_off channel=2 note=70 velocity=79 time=0
EXTRACT: note_off channel=2 note=65 velocity=79 time=0
EXTRACT: note_off channel=2 note=62 velocity=79 time=0
EXTRACT: note_off channel=0 note=64 velocity=63 time=0.031249995833333332
EXTRACT: note_off channel=0 note=59 velocity=63 time=0
EXTRACT: note_off channel=0 note=55 velocity=63 time=0
EXTRACT: note_off channel=0 note=50 velocity=63 time=0
EXTRACT: note_off channel=0 note=45 velocity=63 time=0
EXTRACT: note_off channel=0 note=40 velocity=63 time=0
EXTRACT: note_on channel=0 note=70 velocity=63 time=0.11298075416666667
EXTRACT: note_on channel=0 note=65 velocity=63 time=0
EXTRACT: note_on channel=0 note=62 velocity=63 time=0
EXTRACT: note_on channel=0 note=58 velocity=63 time=0
EXTRACT: note_on channel=0 note=53 velocity=63 time=0
EXTRACT: note_on channel=0 note=46 velocity=63 time=0
EXTRACT: note_off channel=4 note=53 velocity=95 time=0
EXTRACT: note_off channel=0 note=70 velocity=63 time=0.14423075
EXTRACT: note_off channel=0 note=65 velocity=63 time=0
EXTRACT: note_off channel=0 note=62 velocity=63 time=0
EXTRACT: note_off channel=0 note=58 velocity=63 time=0
EXTRACT: note_off channel=0 note=53 velocity=63 time=0
EXTRACT: note_off channel=0 note=46 velocity=63 time=0
EXTRACT: note_on channel=0 note=70 velocity=63 time=0
EXTRACT: note_on channel=0 note=65 velocity=63 time=0
EXTRACT: note_on channel=0 note=62 velocity=63 time=0
EXTRACT: note_on channel=0 note=58 velocity=63 time=0
EXTRACT: note_on channel=0 note=53 velocity=63 time=0
EXTRACT: note_on channel=0 note=46 velocity=63 time=0
EXTRACT: note_off channel=0 note=70 velocity=63 time=0.14423075
EXTRACT: note_off channel=0 note=65 velocity=63 time=0
EXTRACT: note_off channel=0 note=62 velocity=63 time=0
EXTRACT: note_off channel=0 note=58 velocity=63 time=0
EXTRACT: note_off channel=0 note=53 velocity=63 time=0
EXTRACT: note_off channel=0 note=46 velocity=63 time=0
EXTRACT: note_on channel=0 note=64 velocity=63 time=0
EXTRACT: note_on channel=0 note=59 velocity=63 time=0
EXTRACT: note_on channel=0 note=55 velocity=63 time=0
EXTRACT: note_on channel=0 note=50 velocity=63 time=0
EXTRACT: note_on channel=0 note=45 velocity=63 time=0
EXTRACT: note_on channel=0 note=40 velocity=63 time=0
EXTRACT: note_on channel=2 note=58 velocity=79 time=0
EXTRACT: note_off channel=0 note=64 velocity=63 time=0.031249995833333332
EXTRACT: note_off channel=0 note=59 velocity=63 time=0
EXTRACT: note_off channel=0 note=55 velocity=63 time=0
EXTRACT: note_off channel=0 note=50 velocity=63 time=0
EXTRACT: note_off channel=0 note=45 velocity=63 time=0
EXTRACT: note_off channel=0 note=40 velocity=63 time=0
EXTRACT: note_on channel=0 note=64 velocity=63 time=0.11298075416666667
EXTRACT: note_on channel=0 note=59 velocity=63 time=0
EXTRACT: note_on channel=0 note=55 velocity=63 time=0
EXTRACT: note_on channel=0 note=50 velocity=63 time=0
EXTRACT: note_on channel=0 note=45 velocity=63 time=0
EXTRACT: note_on channel=0 note=40 velocity=63 time=0
EXTRACT: note_off channel=0 note=64 velocity=63 time=0.031249995833333332
EXTRACT: note_off channel=0 note=59 velocity=63 time=0
EXTRACT: note_off channel=0 note=55 velocity=63 time=0
EXTRACT: note_off channel=0 note=50 velocity=63 time=0
EXTRACT: note_off channel=0 note=45 velocity=63 time=0
EXTRACT: note_off channel=0 note=40 velocity=63 time=0
EXTRACT: note_on channel=0 note=70 velocity=63 time=0.11298075416666667
EXTRACT: note_on channel=0 note=65 velocity=63 time=0
EXTRACT: note_on channel=0 note=62 velocity=63 time=0
EXTRACT: note_on channel=0 note=58 velocity=63 time=0
EXTRACT: note_on channel=0 note=53 velocity=63 time=0
EXTRACT: note_on channel=0 note=46 velocity=63 time=0
EXTRACT: note_off channel=2 note=58 velocity=79 time=0
EXTRACT: note_off channel=0 note=70 velocity=63 time=0.14423075
EXTRACT: note_off channel=0 note=65 velocity=63 time=0
EXTRACT: note_off channel=0 note=62 velocity=63 time=0
EXTRACT: note_off channel=0 note=58 velocity=63 time=0
EXTRACT: note_off channel=0 note=53 velocity=63 time=0
EXTRACT: note_off channel=0 note=46 velocity=63 time=0
EXTRACT: note_on channel=0 note=70 velocity=63 time=0
EXTRACT: note_on channel=0 note=65 velocity=63 time=0
EXTRACT: note_on channel=0 note=62 velocity=63 time=0
EXTRACT: note_on channel=0 note=58 velocity=63 time=0
EXTRACT: note_on channel=0 note=53 velocity=63 time=0
EXTRACT: note_on channel=0 note=46 velocity=63 time=0
EXTRACT: note_off channel=0 note=70 velocity=63 time=0.14423075
EXTRACT: note_off channel=0 note=65 velocity=63 time=0
EXTRACT: note_off channel=0 note=62 velocity=63 time=0
EXTRACT: note_off channel=0 note=58 velocity=63 time=0
EXTRACT: note_off channel=0 note=53 velocity=63 time=0
EXTRACT: note_off channel=0 note=46 velocity=63 time=0
EXTRACT: note_on channel=0 note=64 velocity=63 time=0
EXTRACT: note_on channel=0 note=59 velocity=63 time=0
EXTRACT: note_on channel=0 note=55 velocity=63 time=0
EXTRACT: note_on channel=0 note=50 velocity=63 time=0
EXTRACT: note_on channel=0 note=45 velocity=63 time=0
EXTRACT: note_on channel=0 note=40 velocity=63 time=0
EXTRACT: note_on channel=4 note=58 velocity=95 time=0
EXTRACT: note_off channel=0 note=64 velocity=63 time=0.031249995833333332
EXTRACT: note_off channel=0 note=59 velocity=63 time=0
EXTRACT: note_off channel=0 note=55 velocity=63 time=0
EXTRACT: note_off channel=0 note=50 velocity=63 time=0
EXTRACT: note_off channel=0 note=45 velocity=63 time=0
EXTRACT: note_off channel=0 note=40 velocity=63 time=0
EXTRACT: note_on channel=0 note=64 velocity=63 time=0.11298075416666667
EXTRACT: note_on channel=0 note=59 velocity=63 time=0
EXTRACT: note_on channel=0 note=55 velocity=63 time=0
EXTRACT: note_on channel=0 note=50 velocity=63 time=0
EXTRACT: note_on channel=0 note=45 velocity=63 time=0
EXTRACT: note_on channel=0 note=40 velocity=63 time=0
EXTRACT: note_on channel=2 note=56 velocity=79 time=0
EXTRACT: note_off channel=4 note=58 velocity=95 time=0
EXTRACT: note_on channel=4 note=56 velocity=95 time=0
EXTRACT: note_off channel=0 note=64 velocity=63 time=0.031249995833333332
EXTRACT: note_off channel=0 note=59 velocity=63 time=0
EXTRACT: note_off channel=0 note=55 velocity=63 time=0
EXTRACT: note_off channel=0 note=50 velocity=63 time=0
EXTRACT: note_off channel=0 note=45 velocity=63 time=0
EXTRACT: note_off channel=0 note=40 velocity=63 time=0
EXTRACT: note_on channel=0 note=70 velocity=63 time=0.11298075416666667
EXTRACT: note_on channel=0 note=65 velocity=63 time=0
EXTRACT: note_on channel=0 note=62 velocity=63 time=0
EXTRACT: note_on channel=0 note=58 velocity=63 time=0
EXTRACT: note_on channel=0 note=53 velocity=63 time=0
EXTRACT: note_on channel=0 note=46 velocity=63 time=0
EXTRACT: note_off channel=2 note=56 velocity=79 time=0
EXTRACT: note_off channel=4 note=56 velocity=95 time=0
EXTRACT: note_on channel=4 note=58 velocity=95 time=0
EXTRACT: note_off channel=0 note=70 velocity=63 time=0.14423075
EXTRACT: note_off channel=0 note=65 velocity=63 time=0
EXTRACT: note_off channel=0 note=62 velocity=63 time=0
EXTRACT: note_off channel=0 note=58 velocity=63 time=0
EXTRACT: note_off channel=0 note=53 velocity=63 time=0
EXTRACT: note_off channel=0 note=46 velocity=63 time=0
EXTRACT: note_on channel=0 note=70 velocity=63 time=0
EXTRACT: note_on channel=0 note=65 velocity=63 time=0
EXTRACT: note_on channel=0 note=62 velocity=63 time=0
EXTRACT: note_on channel=0 note=58 velocity=63 time=0
EXTRACT: note_on channel=0 note=53 velocity=63 time=0
EXTRACT: note_on channel=0 note=46 velocity=63 time=0
EXTRACT: note_on channel=2 note=56 velocity=79 time=0
EXTRACT: note_off channel=0 note=70 velocity=63 time=0.14423075
EXTRACT: note_off channel=0 note=65 velocity=63 time=0
EXTRACT: note_off channel=0 note=62 velocity=63 time=0
EXTRACT: note_off channel=0 note=58 velocity=63 time=0
EXTRACT: note_off channel=0 note=53 velocity=63 time=0
EXTRACT: note_off channel=0 note=46 velocity=63 time=0
EXTRACT: note_on channel=0 note=64 velocity=63 time=0
EXTRACT: note_on channel=0 note=59 velocity=63 time=0
EXTRACT: note_on channel=0 note=55 velocity=63 time=0
EXTRACT: note_on channel=0 note=50 velocity=63 time=0
EXTRACT: note_on channel=0 note=45 velocity=63 time=0
EXTRACT: note_on channel=0 note=40 velocity=63 time=0
EXTRACT: note_off channel=2 note=56 velocity=79 time=0
EXTRACT: note_off channel=4 note=58 velocity=95 time=0
EXTRACT: note_on channel=4 note=56 velocity=95 time=0
EXTRACT: note_off channel=0 note=64 velocity=63 time=0.031249995833333332
EXTRACT: note_off channel=0 note=59 velocity=63 time=0
EXTRACT: note_off channel=0 note=55 velocity=63 time=0
EXTRACT: note_off channel=0 note=50 velocity=63 time=0
EXTRACT: note_off channel=0 note=45 velocity=63 time=0
EXTRACT: note_off channel=0 note=40 velocity=63 time=0
EXTRACT: note_on channel=0 note=64 velocity=63 time=0.11298075416666667
EXTRACT: note_on channel=0 note=59 velocity=63 time=0
EXTRACT: note_on channel=0 note=55 velocity=63 time=0
EXTRACT: note_on channel=0 note=50 velocity=63 time=0
EXTRACT: note_on channel=0 note=45 velocity=63 time=0
EXTRACT: note_on channel=0 note=40 velocity=63 time=0
EXTRACT: note_on channel=2 note=50 velocity=79 time=0
EXTRACT: note_off channel=4 note=56 velocity=95 time=0
EXTRACT: note_on channel=4 note=58 velocity=95 time=0
EXTRACT: note_off channel=0 note=64 velocity=63 time=0.031249995833333332
EXTRACT: note_off channel=0 note=59 velocity=63 time=0
EXTRACT: note_off channel=0 note=55 velocity=63 time=0
EXTRACT: note_off channel=0 note=50 velocity=63 time=0
EXTRACT: note_off channel=0 note=45 velocity=63 time=0
EXTRACT: note_off channel=0 note=40 velocity=63 time=0
EXTRACT: note_on channel=0 note=70 velocity=63 time=0.11298075416666667
EXTRACT: note_on channel=0 note=65 velocity=63 time=0
EXTRACT: note_on channel=0 note=62 velocity=63 time=0
EXTRACT: note_on channel=0 note=58 velocity=63 time=0
EXTRACT: note_on channel=0 note=53 velocity=63 time=0
EXTRACT: note_on channel=0 note=46 velocity=63 time=0
EXTRACT: note_off channel=2 note=50 velocity=79 time=0
EXTRACT: note_on channel=2 note=56 velocity=79 time=0
EXTRACT: note_off channel=0 note=70 velocity=63 time=0.14423075
EXTRACT: note_off channel=0 note=65 velocity=63 time=0
EXTRACT: note_off channel=0 note=62 velocity=63 time=0
EXTRACT: note_off channel=0 note=58 velocity=63 time=0
EXTRACT: note_off channel=0 note=53 velocity=63 time=0
EXTRACT: note_off channel=0 note=46 velocity=63 time=0
EXTRACT: note_on channel=0 note=70 velocity=63 time=0
EXTRACT: note_on channel=0 note=65 velocity=63 time=0
EXTRACT: note_on channel=0 note=62 velocity=63 time=0
EXTRACT: note_on channel=0 note=58 velocity=63 time=0
EXTRACT: note_on channel=0 note=53 velocity=63 time=0
EXTRACT: note_on channel=0 note=46 velocity=63 time=0
EXTRACT: note_off channel=4 note=58 velocity=95 time=0
EXTRACT: note_on channel=4 note=56 velocity=95 time=0
EXTRACT: note_off channel=0 note=70 velocity=63 time=0.14423075
EXTRACT: note_off channel=0 note=65 velocity=63 time=0
EXTRACT: note_off channel=0 note=62 velocity=63 time=0
EXTRACT: note_off channel=0 note=58 velocity=63 time=0
EXTRACT: note_off channel=0 note=53 velocity=63 time=0
EXTRACT: note_off channel=0 note=46 velocity=63 time=0
EXTRACT: note_on channel=0 note=64 velocity=63 time=0
EXTRACT: note_on channel=0 note=59 velocity=63 time=0
EXTRACT: note_on channel=0 note=55 velocity=63 time=0
EXTRACT: note_on channel=0 note=50 velocity=63 time=0
EXTRACT: note_on channel=0 note=45 velocity=63 time=0
EXTRACT: note_on channel=0 note=40 velocity=63 time=0
EXTRACT: note_off channel=2 note=56 velocity=79 time=0
EXTRACT: note_on channel=2 note=58 velocity=79 time=0
EXTRACT: note_off channel=4 note=56 velocity=95 time=0
EXTRACT: note_on channel=4 note=58 velocity=95 time=0
EXTRACT: note_off channel=0 note=64 velocity=63 time=0.031249995833333332
EXTRACT: note_off channel=0 note=59 velocity=63 time=0
EXTRACT: note_off channel=0 note=55 velocity=63 time=0
EXTRACT: note_off channel=0 note=50 velocity=63 time=0
EXTRACT: note_off channel=0 note=45 velocity=63 time=0
EXTRACT: note_off channel=0 note=40 velocity=63 time=0
EXTRACT: note_on channel=0 note=64 velocity=63 time=0.11298075416666667
EXTRACT: note_on channel=0 note=59 velocity=63 time=0
EXTRACT: note_on channel=0 note=55 velocity=63 time=0
EXTRACT: note_on channel=0 note=50 velocity=63 time=0
EXTRACT: note_on channel=0 note=45 velocity=63 time=0
EXTRACT: note_on channel=0 note=40 velocity=63 time=0
EXTRACT: note_off channel=2 note=58 velocity=79 time=0
EXTRACT: note_off channel=4 note=58 velocity=95 time=0
EXTRACT: note_on channel=4 note=56 velocity=95 time=0
EXTRACT: note_off channel=0 note=64 velocity=63 time=0.031249995833333332
EXTRACT: note_off channel=0 note=59 velocity=63 time=0
EXTRACT: note_off channel=0 note=55 velocity=63 time=0
EXTRACT: note_off channel=0 note=50 velocity=63 time=0
EXTRACT: note_off channel=0 note=45 velocity=63 time=0
EXTRACT: note_off channel=0 note=40 velocity=63 time=0
EXTRACT: note_on channel=0 note=72 velocity=63 time=0.11298075416666667
EXTRACT: note_on channel=0 note=68 velocity=63 time=0
EXTRACT: note_on channel=0 note=65 velocity=63 time=0
EXTRACT: note_on channel=0 note=60 velocity=63 time=0
EXTRACT: note_on channel=0 note=53 velocity=63 time=0
EXTRACT: note_on channel=2 note=51 velocity=79 time=0
EXTRACT: note_off channel=4 note=56 velocity=95 time=0
EXTRACT: note_on channel=4 note=53 velocity=95 time=0
EXTRACT: note_off channel=0 note=72 velocity=63 time=0.14423075
EXTRACT: note_off channel=0 note=68 velocity=63 time=0
EXTRACT: note_off channel=0 note=65 velocity=63 time=0
EXTRACT: note_off channel=0 note=60 velocity=63 time=0
EXTRACT: note_off channel=0 note=53 velocity=63 time=0
EXTRACT: note_on channel=0 note=72 velocity=63 time=0
EXTRACT: note_on channel=0 note=68 velocity=63 time=0
EXTRACT: note_on channel=0 note=65 velocity=63 time=0
EXTRACT: note_on channel=0 note=60 velocity=63 time=0
EXTRACT: note_on channel=0 note=53 velocity=63 time=0
EXTRACT: note_off channel=2 note=51 velocity=79 time=0
EXTRACT: note_on channel=2 note=53 velocity=54 time=0
EXTRACT: note_off channel=0 note=72 velocity=63 time=0.14423075
EXTRACT: note_off channel=0 note=68 velocity=63 time=0
EXTRACT: note_off channel=0 note=65 velocity=63 time=0
EXTRACT: note_off channel=0 note=60 velocity=63 time=0
EXTRACT: note_off channel=0 note=53 velocity=63 time=0
EXTRACT: note_on channel=0 note=64 velocity=63 time=0
EXTRACT: note_on channel=0 note=59 velocity=63 time=0
EXTRACT: note_on channel=0 note=55 velocity=63 time=0
EXTRACT: note_on channel=0 note=50 velocity=63 time=0
EXTRACT: note_on channel=0 note=45 velocity=63 time=0
EXTRACT: note_off channel=4 note=53 velocity=95 time=0
EXTRACT: note_on channel=6 note=65 velocity=95 time=0
EXTRACT: note_off channel=0 note=64 velocity=63 time=0.031249995833333332
EXTRACT: note_off channel=0 note=59 velocity=63 time=0
EXTRACT: note_off channel=0 note=55 velocity=63 time=0
EXTRACT: note_off channel=0 note=50 velocity=63 time=0
EXTRACT: note_off channel=0 note=45 velocity=63 time=0
EXTRACT: note_on channel=0 note=64 velocity=63 time=0.11298075416666667
EXTRACT: note_on channel=0 note=59 velocity=63 time=0
EXTRACT: note_on channel=0 note=55 velocity=63 time=0
EXTRACT: note_on channel=0 note=50 velocity=63 time=0
EXTRACT: note_on channel=0 note=45 velocity=63 time=0
EXTRACT: note_off channel=2 note=53 velocity=54 time=0
EXTRACT: note_on channel=2 note=56 velocity=79 time=0
EXTRACT: note_off channel=6 note=65 velocity=95 time=0
EXTRACT: note_on channel=6 note=68 velocity=95 time=0
EXTRACT: note_off channel=0 note=64 velocity=63 time=0.031249995833333332
EXTRACT: note_off channel=0 note=59 velocity=63 time=0
EXTRACT: note_off channel=0 note=55 velocity=63 time=0
EXTRACT: note_off channel=0 note=50 velocity=63 time=0
EXTRACT: note_off channel=0 note=45 velocity=63 time=0
EXTRACT: note_on channel=0 note=72 velocity=63 time=0.11298075416666667
EXTRACT: note_on channel=0 note=68 velocity=63 time=0
EXTRACT: note_on channel=0 note=65 velocity=63 time=0
EXTRACT: note_on channel=0 note=60 velocity=63 time=0
EXTRACT: note_on channel=0 note=53 velocity=63 time=0
EXTRACT: note_off channel=2 note=56 velocity=79 time=0
EXTRACT: note_off channel=6 note=68 velocity=95 time=0
EXTRACT: note_off channel=0 note=72 velocity=63 time=0.14423075
EXTRACT: note_off channel=0 note=68 velocity=63 time=0
EXTRACT: note_off channel=0 note=65 velocity=63 time=0
EXTRACT: note_off channel=0 note=60 velocity=63 time=0
EXTRACT: note_off channel=0 note=53 velocity=63 time=0
EXTRACT: note_on channel=0 note=72 velocity=63 time=0
EXTRACT: note_on channel=0 note=68 velocity=63 time=0
EXTRACT: note_on channel=0 note=65 velocity=63 time=0
EXTRACT: note_on channel=0 note=60 velocity=63 time=0
EXTRACT: note_on channel=0 note=53 velocity=63 time=0
EXTRACT: note_off channel=0 note=72 velocity=63 time=0.14423075
EXTRACT: note_off channel=0 note=68 velocity=63 time=0
EXTRACT: note_off channel=0 note=65 velocity=63 time=0
EXTRACT: note_off channel=0 note=60 velocity=63 time=0
EXTRACT: note_off channel=0 note=53 velocity=63 time=0
EXTRACT: note_on channel=0 note=64 velocity=63 time=0
EXTRACT: note_on channel=0 note=59 velocity=63 time=0
EXTRACT: note_on channel=0 note=55 velocity=63 time=0
EXTRACT: note_on channel=0 note=50 velocity=63 time=0
EXTRACT: note_on channel=0 note=45 velocity=63 time=0
EXTRACT: note_on channel=2 note=51 velocity=79 time=0
EXTRACT: note_off channel=0 note=64 velocity=63 time=0.031249995833333332
EXTRACT: note_off channel=0 note=59 velocity=63 time=0
EXTRACT: note_off channel=0 note=55 velocity=63 time=0
EXTRACT: note_off channel=0 note=50 velocity=63 time=0
EXTRACT: note_off channel=0 note=45 velocity=63 time=0
EXTRACT: note_on channel=0 note=64 velocity=63 time=0.11298075416666667
EXTRACT: note_on channel=0 note=59 velocity=63 time=0
EXTRACT: note_on channel=0 note=55 velocity=63 time=0
EXTRACT: note_on channel=0 note=50 velocity=63 time=0
EXTRACT: note_on channel=0 note=45 velocity=63 time=0
EXTRACT: note_off channel=0 note=64 velocity=63 time=0.031249995833333332
EXTRACT: note_off channel=0 note=59 velocity=63 time=0
EXTRACT: note_off channel=0 note=55 velocity=63 time=0
EXTRACT: note_off channel=0 note=50 velocity=63 time=0
EXTRACT: note_off channel=0 note=45 velocity=63 time=0
EXTRACT: note_on channel=0 note=72 velocity=63 time=0.11298075416666667
EXTRACT: note_on channel=0 note=68 velocity=63 time=0
EXTRACT: note_on channel=0 note=65 velocity=63 time=0
EXTRACT: note_on channel=0 note=60 velocity=63 time=0
EXTRACT: note_on channel=0 note=53 velocity=63 time=0
EXTRACT: note_off channel=2 note=51 velocity=79 time=0
EXTRACT: note_off channel=0 note=72 velocity=63 time=0.14423075
EXTRACT: note_off channel=0 note=68 velocity=63 time=0
EXTRACT: note_off channel=0 note=65 velocity=63 time=0
EXTRACT: note_off channel=0 note=60 velocity=63 time=0
EXTRACT: note_off channel=0 note=53 velocity=63 time=0
EXTRACT: note_on channel=0 note=72 velocity=63 time=0
EXTRACT: note_on channel=0 note=68 velocity=63 time=0
EXTRACT: note_on channel=0 note=65 velocity=63 time=0
EXTRACT: note_on channel=0 note=60 velocity=63 time=0
EXTRACT: note_on channel=0 note=53 velocity=63 time=0
EXTRACT: note_off channel=0 note=72 velocity=63 time=0.14423075
EXTRACT: note_off channel=0 note=68 velocity=63 time=0
EXTRACT: note_off channel=0 note=65 velocity=63 time=0
EXTRACT: note_off channel=0 note=60 velocity=63 time=0
EXTRACT: note_off channel=0 note=53 velocity=63 time=0
EXTRACT: note_on channel=0 note=64 velocity=63 time=0
EXTRACT: note_on channel=0 note=59 velocity=63 time=0
EXTRACT: note_on channel=0 note=55 velocity=63 time=0
EXTRACT: note_on channel=0 note=50 velocity=63 time=0
EXTRACT: note_on channel=0 note=45 velocity=63 time=0
EXTRACT: note_on channel=2 note=48 velocity=79 time=0
EXTRACT: note_off channel=0 note=64 velocity=63 time=0.031249995833333332
EXTRACT: note_off channel=0 note=59 velocity=63 time=0
EXTRACT: note_off channel=0 note=55 velocity=63 time=0
EXTRACT: note_off channel=0 note=50 velocity=63 time=0
EXTRACT: note_off channel=0 note=45 velocity=63 time=0
EXTRACT: note_on channel=0 note=64 velocity=63 time=0.11298075416666667
EXTRACT: note_on channel=0 note=59 velocity=63 time=0
EXTRACT: note_on channel=0 note=55 velocity=63 time=0
EXTRACT: note_on channel=0 note=50 velocity=63 time=0
EXTRACT: note_on channel=0 note=45 velocity=63 time=0
EXTRACT: note_on channel=6 note=70 velocity=95 time=0
EXTRACT: note_off channel=0 note=64 velocity=63 time=0.031249995833333332
EXTRACT: note_off channel=0 note=59 velocity=63 time=0
EXTRACT: note_off channel=0 note=55 velocity=63 time=0
EXTRACT: note_off channel=0 note=50 velocity=63 time=0
EXTRACT: note_off channel=0 note=45 velocity=63 time=0
EXTRACT: note_on channel=0 note=72 velocity=63 time=0.11298075416666667
EXTRACT: note_on channel=0 note=68 velocity=63 time=0
EXTRACT: note_on channel=0 note=65 velocity=63 time=0
EXTRACT: note_on channel=0 note=60 velocity=63 time=0
EXTRACT: note_on channel=0 note=53 velocity=63 time=0
EXTRACT: note_off channel=2 note=48 velocity=79 time=0
EXTRACT: note_on channel=2 note=46 velocity=79 time=0
EXTRACT: note_on channel=4 note=48 velocity=95 time=0
EXTRACT: note_off channel=6 note=70 velocity=95 time=0
EXTRACT: note_on channel=6 note=72 velocity=95 time=0
EXTRACT: note_off channel=0 note=72 velocity=63 time=0.14423075
EXTRACT: note_off channel=0 note=68 velocity=63 time=0
EXTRACT: note_off channel=0 note=65 velocity=63 time=0
EXTRACT: note_off channel=0 note=60 velocity=63 time=0
EXTRACT: note_off channel=0 note=53 velocity=63 time=0
EXTRACT: note_on channel=0 note=72 velocity=63 time=0
EXTRACT: note_on channel=0 note=68 velocity=63 time=0
EXTRACT: note_on channel=0 note=65 velocity=63 time=0
EXTRACT: note_on channel=0 note=60 velocity=63 time=0
EXTRACT: note_on channel=0 note=53 velocity=63 time=0
EXTRACT: note_off channel=2 note=46 velocity=79 time=0
EXTRACT: note_on channel=2 note=48 velocity=54 time=0
EXTRACT: note_off channel=0 note=72 velocity=63 time=0.14423075
EXTRACT: note_off channel=0 note=68 velocity=63 time=0
EXTRACT: note_off channel=0 note=65 velocity=63 time=0
EXTRACT: note_off channel=0 note=60 velocity=63 time=0
EXTRACT: note_off channel=0 note=53 velocity=63 time=0
EXTRACT: note_on channel=0 note=64 velocity=63 time=0
EXTRACT: note_on channel=0 note=59 velocity=63 time=0
EXTRACT: note_on channel=0 note=55 velocity=63 time=0
EXTRACT: note_on channel=0 note=50 velocity=63 time=0
EXTRACT: note_on channel=0 note=45 velocity=63 time=0
EXTRACT: note_off channel=2 note=48 velocity=54 time=0
EXTRACT: note_on channel=2 note=51 velocity=79 time=0
EXTRACT: note_off channel=4 note=48 velocity=95 time=0
EXTRACT: note_off channel=6 note=72 velocity=95 time=0
EXTRACT: note_off channel=0 note=64 velocity=63 time=0.031249995833333332
EXTRACT: note_off channel=0 note=59 velocity=63 time=0
EXTRACT: note_off channel=0 note=55 velocity=63 time=0
EXTRACT: note_off channel=0 note=50 velocity=63 time=0
EXTRACT: note_off channel=0 note=45 velocity=63 time=0
EXTRACT: note_on channel=0 note=64 velocity=63 time=0.11298075416666667
EXTRACT: note_on channel=0 note=59 velocity=63 time=0
EXTRACT: note_on channel=0 note=55 velocity=63 time=0
EXTRACT: note_on channel=0 note=50 velocity=63 time=0
EXTRACT: note_on channel=0 note=45 velocity=63 time=0
EXTRACT: note_off channel=0 note=64 velocity=63 time=0.031249995833333332
EXTRACT: note_off channel=0 note=59 velocity=63 time=0
EXTRACT: note_off channel=0 note=55 velocity=63 time=0
EXTRACT: note_off channel=0 note=50 velocity=63 time=0
EXTRACT: note_off channel=0 note=45 velocity=63 time=0
EXTRACT: note_on channel=0 note=72 velocity=63 time=0.11298075416666667
EXTRACT: note_on channel=0 note=68 velocity=63 time=0
EXTRACT: note_on channel=0 note=65 velocity=63 time=0
EXTRACT: note_on channel=0 note=60 velocity=63 time=0
EXTRACT: note_on channel=0 note=53 velocity=63 time=0
EXTRACT: note_off channel=2 note=51 velocity=79 time=0
EXTRACT: note_on channel=2 note=46 velocity=79 time=0
EXTRACT: note_off channel=0 note=72 velocity=63 time=0.14423075
EXTRACT: note_off channel=0 note=68 velocity=63 time=0
EXTRACT: note_off channel=0 note=65 velocity=63 time=0
EXTRACT: note_off channel=0 note=60 velocity=63 time=0
EXTRACT: note_off channel=0 note=53 velocity=63 time=0
EXTRACT: note_on channel=0 note=72 velocity=63 time=0
EXTRACT: note_on channel=0 note=68 velocity=63 time=0
EXTRACT: note_on channel=0 note=65 velocity=63 time=0
EXTRACT: note_on channel=0 note=60 velocity=63 time=0
EXTRACT: note_on channel=0 note=53 velocity=63 time=0
EXTRACT: note_off channel=2 note=46 velocity=79 time=0
EXTRACT: note_on channel=2 note=48 velocity=54 time=0
EXTRACT: note_on channel=6 note=77 velocity=95 time=0
EXTRACT: note_off channel=0 note=72 velocity=63 time=0.14423075
EXTRACT: note_off channel=0 note=68 velocity=63 time=0
EXTRACT: note_off channel=0 note=65 velocity=63 time=0
EXTRACT: note_off channel=0 note=60 velocity=63 time=0
EXTRACT: note_off channel=0 note=53 velocity=63 time=0
EXTRACT: note_on channel=0 note=64 velocity=63 time=0
EXTRACT: note_on channel=0 note=59 velocity=63 time=0
EXTRACT: note_on channel=0 note=55 velocity=63 time=0
EXTRACT: note_on channel=0 note=50 velocity=63 time=0
EXTRACT: note_on channel=0 note=45 velocity=63 time=0
EXTRACT: note_off channel=2 note=48 velocity=54 time=0
EXTRACT: note_on channel=2 note=51 velocity=79 time=0
EXTRACT: note_off channel=0 note=64 velocity=63 time=0.031249995833333332
EXTRACT: note_off channel=0 note=59 velocity=63 time=0
EXTRACT: note_off channel=0 note=55 velocity=63 time=0
EXTRACT: note_off channel=0 note=50 velocity=63 time=0
EXTRACT: note_off channel=0 note=45 velocity=63 time=0
EXTRACT: note_on channel=0 note=64 velocity=63 time=0.11298075416666667
EXTRACT: note_on channel=0 note=59 velocity=63 time=0
EXTRACT: note_on channel=0 note=55 velocity=63 time=0
EXTRACT: note_on channel=0 note=50 velocity=63 time=0
EXTRACT: note_on channel=0 note=45 velocity=63 time=0
EXTRACT: note_off channel=0 note=64 velocity=63 time=0.031249995833333332
EXTRACT: note_off channel=0 note=59 velocity=63 time=0
EXTRACT: note_off channel=0 note=55 velocity=63 time=0
EXTRACT: note_off channel=0 note=50 velocity=63 time=0
EXTRACT: note_off channel=0 note=45 velocity=63 time=0
EXTRACT: note_on channel=0 note=72 velocity=63 time=0.11298075416666667
EXTRACT: note_on channel=0 note=68 velocity=63 time=0
EXTRACT: note_on channel=0 note=65 velocity=63 time=0
EXTRACT: note_on channel=0 note=60 velocity=63 time=0
EXTRACT: note_on channel=0 note=53 velocity=63 time=0
EXTRACT: note_off channel=2 note=51 velocity=79 time=0
EXTRACT: note_off channel=0 note=72 velocity=63 time=0.14423075
EXTRACT: note_off channel=0 note=68 velocity=63 time=0
EXTRACT: note_off channel=0 note=65 velocity=63 time=0
EXTRACT: note_off channel=0 note=60 velocity=63 time=0
EXTRACT: note_off channel=0 note=53 velocity=63 time=0
EXTRACT: note_on channel=0 note=72 velocity=63 time=0
EXTRACT: note_on channel=0 note=68 velocity=63 time=0
EXTRACT: note_on channel=0 note=65 velocity=63 time=0
EXTRACT: note_on channel=0 note=60 velocity=63 time=0
EXTRACT: note_on channel=0 note=53 velocity=63 time=0
EXTRACT: note_on channel=2 note=45 velocity=79 time=0
EXTRACT: note_off channel=2 note=45 velocity=79 time=0.031249995833333332
EXTRACT: note_off channel=0 note=72 velocity=63 time=0.11298075416666667
EXTRACT: note_off channel=0 note=68 velocity=63 time=0
EXTRACT: note_off channel=0 note=65 velocity=63 time=0
EXTRACT: note_off channel=0 note=60 velocity=63 time=0
EXTRACT: note_off channel=0 note=53 velocity=63 time=0
EXTRACT: note_on channel=0 note=64 velocity=63 time=0
EXTRACT: note_on channel=0 note=59 velocity=63 time=0
EXTRACT: note_on channel=0 note=55 velocity=63 time=0
EXTRACT: note_on channel=0 note=50 velocity=63 time=0
EXTRACT: note_on channel=0 note=45 velocity=63 time=0
EXTRACT: note_on channel=2 note=46 velocity=79 time=0
EXTRACT: note_off channel=6 note=77 velocity=95 time=0
EXTRACT: note_on channel=6 note=75 velocity=95 time=0
EXTRACT: note_off channel=0 note=64 velocity=63 time=0.031249995833333332
EXTRACT: note_off channel=0 note=59 velocity=63 time=0
EXTRACT: note_off channel=0 note=55 velocity=63 time=0
EXTRACT: note_off channel=0 note=50 velocity=63 time=0
EXTRACT: note_off channel=0 note=45 velocity=63 time=0
EXTRACT: note_on channel=0 note=64 velocity=63 time=0.11298075416666667
EXTRACT: note_on channel=0 note=59 velocity=63 time=0
EXTRACT: note_on channel=0 note=55 velocity=63 time=0
EXTRACT: note_on channel=0 note=50 velocity=63 time=0
EXTRACT: note_on channel=0 note=45 velocity=63 time=0
EXTRACT: note_off channel=6 note=75 velocity=95 time=0
EXTRACT: note_off channel=0 note=64 velocity=63 time=0.031249995833333332
EXTRACT: note_off channel=0 note=59 velocity=63 time=0
EXTRACT: note_off channel=0 note=55 velocity=63 time=0
EXTRACT: note_off channel=0 note=50 velocity=63 time=0
EXTRACT: note_off channel=0 note=45 velocity=63 time=0
EXTRACT: note_on channel=0 note=72 velocity=63 time=0.11298075416666667
EXTRACT: note_on channel=0 note=68 velocity=63 time=0
EXTRACT: note_on channel=0 note=65 velocity=63 time=0
EXTRACT: note_on channel=0 note=60 velocity=63 time=0
EXTRACT: note_on channel=0 note=53 velocity=63 time=0
EXTRACT: note_off channel=2 note=46 velocity=79 time=0
EXTRACT: note_on channel=2 note=48 velocity=79 time=0
EXTRACT: note_off channel=0 note=72 velocity=63 time=0.14423075
EXTRACT: note_off channel=0 note=68 velocity=63 time=0
EXTRACT: note_off channel=0 note=65 velocity=63 time=0
EXTRACT: note_off channel=0 note=60 velocity=63 time=0
EXTRACT: note_off channel=0 note=53 velocity=63 time=0
EXTRACT: note_on channel=0 note=72 velocity=63 time=0
EXTRACT: note_on channel=0 note=68 velocity=63 time=0
EXTRACT: note_on channel=0 note=65 velocity=63 time=0
EXTRACT: note_on channel=0 note=60 velocity=63 time=0
EXTRACT: note_on channel=0 note=53 velocity=63 time=0
EXTRACT: note_off channel=0 note=72 velocity=63 time=0.14423075
EXTRACT: note_off channel=0 note=68 velocity=63 time=0
EXTRACT: note_off channel=0 note=65 velocity=63 time=0
EXTRACT: note_off channel=0 note=60 velocity=63 time=0
EXTRACT: note_off channel=0 note=53 velocity=63 time=0
EXTRACT: note_on channel=0 note=64 velocity=63 time=0
EXTRACT: note_on channel=0 note=59 velocity=63 time=0
EXTRACT: note_on channel=0 note=55 velocity=63 time=0
EXTRACT: note_on channel=0 note=50 velocity=63 time=0
EXTRACT: note_on channel=0 note=45 velocity=63 time=0
EXTRACT: note_off channel=2 note=48 velocity=79 time=0
EXTRACT: note_on channel=2 note=51 velocity=79 time=0
EXTRACT: note_on channel=6 note=70 velocity=95 time=0
EXTRACT: note_off channel=0 note=64 velocity=63 time=0.031249995833333332
EXTRACT: note_off channel=0 note=59 velocity=63 time=0
EXTRACT: note_off channel=0 note=55 velocity=63 time=0
EXTRACT: note_off channel=0 note=50 velocity=63 time=0
EXTRACT: note_off channel=0 note=45 velocity=63 time=0
EXTRACT: note_on channel=0 note=64 velocity=63 time=0.11298075416666667
EXTRACT: note_on channel=0 note=59 velocity=63 time=0
EXTRACT: note_on channel=0 note=55 velocity=63 time=0
EXTRACT: note_on channel=0 note=50 velocity=63 time=0
EXTRACT: note_on channel=0 note=45 velocity=63 time=0
EXTRACT: note_off channel=6 note=70 velocity=95 time=0
EXTRACT: note_on channel=6 note=72 velocity=95 time=0
EXTRACT: note_off channel=0 note=64 velocity=63 time=0.031249995833333332
EXTRACT: note_off channel=0 note=59 velocity=63 time=0
EXTRACT: note_off channel=0 note=55 velocity=63 time=0
EXTRACT: note_off channel=0 note=50 velocity=63 time=0
EXTRACT: note_off channel=0 note=45 velocity=63 time=0
EXTRACT: note_on channel=0 note=72 velocity=63 time=0.11298075416666667
EXTRACT: note_on channel=0 note=68 velocity=63 time=0
EXTRACT: note_on channel=0 note=65 velocity=63 time=0
EXTRACT: note_on channel=0 note=60 velocity=63 time=0
EXTRACT: note_on channel=0 note=53 velocity=63 time=0
EXTRACT: note_off channel=2 note=51 velocity=79 time=0
EXTRACT: note_on channel=2 note=53 velocity=79 time=0
EXTRACT: note_off channel=6 note=72 velocity=95 time=0
EXTRACT: note_on channel=6 note=70 velocity=95 time=0
EXTRACT: note_off channel=0 note=72 velocity=63 time=0.14423075
EXTRACT: note_off channel=0 note=68 velocity=63 time=0
EXTRACT: note_off channel=0 note=65 velocity=63 time=0
EXTRACT: note_off channel=0 note=60 velocity=63 time=0
EXTRACT: note_off channel=0 note=53 velocity=63 time=0
EXTRACT: note_on channel=0 note=72 velocity=63 time=0
EXTRACT: note_on channel=0 note=68 velocity=63 time=0
EXTRACT: note_on channel=0 note=65 velocity=63 time=0
EXTRACT: note_on channel=0 note=60 velocity=63 time=0
EXTRACT: note_on channel=0 note=53 velocity=63 time=0
EXTRACT: note_off channel=0 note=72 velocity=63 time=0.14423075
EXTRACT: note_off channel=0 note=68 velocity=63 time=0
EXTRACT: note_off channel=0 note=65 velocity=63 time=0
EXTRACT: note_off channel=0 note=60 velocity=63 time=0
EXTRACT: note_off channel=0 note=53 velocity=63 time=0
EXTRACT: note_on channel=0 note=64 velocity=63 time=0
EXTRACT: note_on channel=0 note=59 velocity=63 time=0
EXTRACT: note_on channel=0 note=55 velocity=63 time=0
EXTRACT: note_on channel=0 note=50 velocity=63 time=0
EXTRACT: note_on channel=0 note=45 velocity=63 time=0
EXTRACT: note_off channel=2 note=53 velocity=79 time=0
EXTRACT: note_on channel=2 note=56 velocity=79 time=0
EXTRACT: note_off channel=6 note=70 velocity=95 time=0
EXTRACT: note_on channel=6 note=68 velocity=95 time=0
EXTRACT: note_off channel=0 note=64 velocity=63 time=0.031249995833333332
EXTRACT: note_off channel=0 note=59 velocity=63 time=0
EXTRACT: note_off channel=0 note=55 velocity=63 time=0
EXTRACT: note_off channel=0 note=50 velocity=63 time=0
EXTRACT: note_off channel=0 note=45 velocity=63 time=0
EXTRACT: note_on channel=0 note=64 velocity=63 time=0.11298075416666667
EXTRACT: note_on channel=0 note=59 velocity=63 time=0
EXTRACT: note_on channel=0 note=55 velocity=63 time=0
EXTRACT: note_on channel=0 note=50 velocity=63 time=0
EXTRACT: note_on channel=0 note=45 velocity=63 time=0
EXTRACT: note_off channel=0 note=64 velocity=63 time=0.031249995833333332
EXTRACT: note_off channel=0 note=59 velocity=63 time=0
EXTRACT: note_off channel=0 note=55 velocity=63 time=0
EXTRACT: note_off channel=0 note=50 velocity=63 time=0
EXTRACT: note_off channel=0 note=45 velocity=63 time=0
EXTRACT: note_on channel=0 note=70 velocity=63 time=0.11298075416666667
EXTRACT: note_on channel=0 note=65 velocity=63 time=0
EXTRACT: note_on channel=0 note=62 velocity=63 time=0
EXTRACT: note_on channel=0 note=58 velocity=63 time=0
EXTRACT: note_on channel=0 note=53 velocity=63 time=0
EXTRACT: note_on channel=0 note=46 velocity=63 time=0
EXTRACT: note_off channel=2 note=56 velocity=79 time=0
EXTRACT: note_on channel=2 note=53 velocity=79 time=0
EXTRACT: note_off channel=6 note=68 velocity=95 time=0
EXTRACT: note_off channel=0 note=70 velocity=63 time=0.14423075
EXTRACT: note_off channel=0 note=65 velocity=63 time=0
EXTRACT: note_off channel=0 note=62 velocity=63 time=0
EXTRACT: note_off channel=0 note=58 velocity=63 time=0
EXTRACT: note_off channel=0 note=53 velocity=63 time=0
EXTRACT: note_off channel=0 note=46 velocity=63 time=0
EXTRACT: note_on channel=0 note=70 velocity=63 time=0
EXTRACT: note_on channel=0 note=65 velocity=63 time=0
EXTRACT: note_on channel=0 note=62 velocity=63 time=0
EXTRACT: note_on channel=0 note=58 velocity=63 time=0
EXTRACT: note_on channel=0 note=53 velocity=63 time=0
EXTRACT: note_on channel=0 note=46 velocity=63 time=0
EXTRACT: note_off channel=2 note=53 velocity=79 time=0
EXTRACT: note_off channel=0 note=70 velocity=63 time=0.14423075
EXTRACT: note_off channel=0 note=65 velocity=63 time=0
EXTRACT: note_off channel=0 note=62 velocity=63 time=0
EXTRACT: note_off channel=0 note=58 velocity=63 time=0
EXTRACT: note_off channel=0 note=53 velocity=63 time=0
EXTRACT: note_off channel=0 note=46 velocity=63 time=0
EXTRACT: note_on channel=0 note=64 velocity=63 time=0
EXTRACT: note_on channel=0 note=59 velocity=63 time=0
EXTRACT: note_on channel=0 note=55 velocity=63 time=0
EXTRACT: note_on channel=0 note=50 velocity=63 time=0
EXTRACT: note_on channel=0 note=45 velocity=63 time=0
EXTRACT: note_on channel=0 note=40 velocity=63 time=0
EXTRACT: note_on channel=2 note=58 velocity=79 time=0
EXTRACT: note_on channel=4 note=58 velocity=95 time=0
EXTRACT: note_off channel=0 note=64 velocity=63 time=0.031249995833333332
EXTRACT: note_off channel=0 note=59 velocity=63 time=0
EXTRACT: note_off channel=0 note=55 velocity=63 time=0
EXTRACT: note_off channel=0 note=50 velocity=63 time=0
EXTRACT: note_off channel=0 note=45 velocity=63 time=0
EXTRACT: note_off channel=0 note=40 velocity=63 time=0
EXTRACT: note_on channel=0 note=64 velocity=63 time=0.11298075416666667
EXTRACT: note_on channel=0 note=59 velocity=63 time=0
EXTRACT: note_on channel=0 note=55 velocity=63 time=0
EXTRACT: note_on channel=0 note=50 velocity=63 time=0
EXTRACT: note_on channel=0 note=45 velocity=63 time=0
EXTRACT: note_on channel=0 note=40 velocity=63 time=0
EXTRACT: note_off channel=2 note=58 velocity=79 time=0
EXTRACT: note_off channel=0 note=64 velocity=63 time=0.031249995833333332
EXTRACT: note_off channel=0 note=59 velocity=63 time=0
EXTRACT: note_off channel=0 note=55 velocity=63 time=0
EXTRACT: note_off channel=0 note=50 velocity=63 time=0
EXTRACT: note_off channel=0 note=45 velocity=63 time=0
EXTRACT: note_off channel=0 note=40 velocity=63 time=0
EXTRACT: note_on channel=0 note=70 velocity=63 time=0.11298075416666667
EXTRACT: note_on channel=0 note=65 velocity=63 time=0
EXTRACT: note_on channel=0 note=62 velocity=63 time=0
EXTRACT: note_on channel=0 note=58 velocity=63 time=0
EXTRACT: note_on channel=0 note=53 velocity=63 time=0
EXTRACT: note_on channel=0 note=46 velocity=63 time=0
EXTRACT: note_on channel=2 note=70 velocity=79 time=0
EXTRACT: note_on channel=2 note=65 velocity=79 time=0
EXTRACT: note_on channel=2 note=62 velocity=79 time=0
EXTRACT: note_off channel=4 note=58 velocity=95 time=0
EXTRACT: note_on channel=4 note=58 velocity=95 time=0
EXTRACT: note_off channel=0 note=70 velocity=63 time=0.14423075
EXTRACT: note_off channel=0 note=65 velocity=63 time=0
EXTRACT: note_off channel=0 note=62 velocity=63 time=0
EXTRACT: note_off channel=0 note=58 velocity=63 time=0
EXTRACT: note_off channel=0 note=53 velocity=63 time=0
EXTRACT: note_off channel=0 note=46 velocity=63 time=0
EXTRACT: note_on channel=0 note=70 velocity=63 time=0
EXTRACT: note_on channel=0 note=65 velocity=63 time=0
EXTRACT: note_on channel=0 note=62 velocity=63 time=0
EXTRACT: note_on channel=0 note=58 velocity=63 time=0
EXTRACT: note_on channel=0 note=53 velocity=63 time=0
EXTRACT: note_on channel=0 note=46 velocity=63 time=0
EXTRACT: note_off channel=2 note=70 velocity=79 time=0
EXTRACT: note_off channel=2 note=65 velocity=79 time=0
EXTRACT: note_off channel=2 note=62 velocity=79 time=0
EXTRACT: note_off channel=0 note=70 velocity=63 time=0.14423075
EXTRACT: note_off channel=0 note=65 velocity=63 time=0
EXTRACT: note_off channel=0 note=62 velocity=63 time=0
EXTRACT: note_off channel=0 note=58 velocity=63 time=0
EXTRACT: note_off channel=0 note=53 velocity=63 time=0
EXTRACT: note_off channel=0 note=46 velocity=63 time=0
EXTRACT: note_on channel=0 note=64 velocity=63 time=0
EXTRACT: note_on channel=0 note=59 velocity=63 time=0
EXTRACT: note_on channel=0 note=55 velocity=63 time=0
EXTRACT: note_on channel=0 note=50 velocity=63 time=0
EXTRACT: note_on channel=0 note=45 velocity=63 time=0
EXTRACT: note_on channel=0 note=40 velocity=63 time=0
EXTRACT: note_off channel=4 note=58 velocity=95 time=0
EXTRACT: note_on channel=4 note=56 velocity=95 time=0
EXTRACT: note_off channel=0 note=64 velocity=63 time=0.031249995833333332
EXTRACT: note_off channel=0 note=59 velocity=63 time=0
EXTRACT: note_off channel=0 note=55 velocity=63 time=0
EXTRACT: note_off channel=0 note=50 velocity=63 time=0
EXTRACT: note_off channel=0 note=45 velocity=63 time=0
EXTRACT: note_off channel=0 note=40 velocity=63 time=0
EXTRACT: note_on channel=0 note=64 velocity=63 time=0.11298075416666667
EXTRACT: note_on channel=0 note=59 velocity=63 time=0
EXTRACT: note_on channel=0 note=55 velocity=63 time=0
EXTRACT: note_on channel=0 note=50 velocity=63 time=0
EXTRACT: note_on channel=0 note=45 velocity=63 time=0
EXTRACT: note_on channel=0 note=40 velocity=63 time=0
EXTRACT: note_off channel=0 note=64 velocity=63 time=0.031249995833333332
EXTRACT: note_off channel=0 note=59 velocity=63 time=0
EXTRACT: note_off channel=0 note=55 velocity=63 time=0
EXTRACT: note_off channel=0 note=50 velocity=63 time=0
EXTRACT: note_off channel=0 note=45 velocity=63 time=0
EXTRACT: note_off channel=0 note=40 velocity=63 time=0
EXTRACT: note_on channel=5 note=60 velocity=95 time=0.04086537916666667
EXTRACT: note_on channel=0 note=70 velocity=63 time=0.072115375
EXTRACT: note_on channel=0 note=65 velocity=63 time=0
EXTRACT: note_on channel=0 note=62 velocity=63 time=0
EXTRACT: note_on channel=0 note=58 velocity=63 time=0
EXTRACT: note_on channel=0 note=53 velocity=63 time=0
EXTRACT: note_on channel=0 note=46 velocity=63 time=0
EXTRACT: note_off channel=4 note=56 velocity=95 time=0
EXTRACT: note_off channel=5 note=60 velocity=95 time=0
EXTRACT: note_on channel=5 note=60 velocity=95 time=0
EXTRACT: note_off channel=0 note=70 velocity=63 time=0.14423075
EXTRACT: note_off channel=0 note=65 velocity=63 time=0
EXTRACT: note_off channel=0 note=62 velocity=63 time=0
EXTRACT: note_off channel=0 note=58 velocity=63 time=0
EXTRACT: note_off channel=0 note=53 velocity=63 time=0
EXTRACT: note_off channel=0 note=46 velocity=63 time=0
EXTRACT: note_on channel=0 note=70 velocity=63 time=0
EXTRACT: note_on channel=0 note=65 velocity=63 time=0
EXTRACT: note_on channel=0 note=62 velocity=63 time=0
EXTRACT: note_on channel=0 note=58 velocity=63 time=0
EXTRACT: note_on channel=0 note=53 velocity=63 time=0
EXTRACT: note_on channel=0 note=46 velocity=63 time=0
EXTRACT: note_on channel=2 note=56 velocity=79 time=0
EXTRACT: note_off channel=0 note=70 velocity=63 time=0.14423075
EXTRACT: note_off channel=0 note=65 velocity=63 time=0
EXTRACT: note_off channel=0 note=62 velocity=63 time=0
EXTRACT: note_off channel=0 note=58 velocity=63 time=0
EXTRACT: note_off channel=0 note=53 velocity=63 time=0
EXTRACT: note_off channel=0 note=46 velocity=63 time=0
EXTRACT: note_on channel=0 note=64 velocity=63 time=0
EXTRACT: note_on channel=0 note=59 velocity=63 time=0
EXTRACT: note_on channel=0 note=55 velocity=63 time=0
EXTRACT: note_on channel=0 note=50 velocity=63 time=0
EXTRACT: note_on channel=0 note=45 velocity=63 time=0
EXTRACT: note_on channel=0 note=40 velocity=63 time=0
EXTRACT: note_off channel=2 note=56 velocity=79 time=0
EXTRACT: note_off channel=0 note=64 velocity=63 time=0.031249995833333332
EXTRACT: note_off channel=0 note=59 velocity=63 time=0
EXTRACT: note_off channel=0 note=55 velocity=63 time=0
EXTRACT: note_off channel=0 note=50 velocity=63 time=0
EXTRACT: note_off channel=0 note=45 velocity=63 time=0
EXTRACT: note_off channel=0 note=40 velocity=63 time=0
EXTRACT: note_on channel=0 note=64 velocity=63 time=0.11298075416666667
EXTRACT: note_on channel=0 note=59 velocity=63 time=0
EXTRACT: note_on channel=0 note=55 velocity=63 time=0
EXTRACT: note_on channel=0 note=50 velocity=63 time=0
EXTRACT: note_on channel=0 note=45 velocity=63 time=0
EXTRACT: note_on channel=0 note=40 velocity=63 time=0
EXTRACT: note_on channel=2 note=50 velocity=79 time=0
EXTRACT: note_off channel=5 note=60 velocity=95 time=0
EXTRACT: note_on channel=4 note=58 velocity=95 time=0
EXTRACT: note_off channel=0 note=64 velocity=63 time=0.031249995833333332
EXTRACT: note_off channel=0 note=59 velocity=63 time=0
EXTRACT: note_off channel=0 note=55 velocity=63 time=0
EXTRACT: note_off channel=0 note=50 velocity=63 time=0
EXTRACT: note_off channel=0 note=45 velocity=63 time=0
EXTRACT: note_off channel=0 note=40 velocity=63 time=0
EXTRACT: note_on channel=0 note=70 velocity=63 time=0.11298075416666667
EXTRACT: note_on channel=0 note=65 velocity=63 time=0
EXTRACT: note_on channel=0 note=62 velocity=63 time=0
EXTRACT: note_on channel=0 note=58 velocity=63 time=0
EXTRACT: note_on channel=0 note=53 velocity=63 time=0
EXTRACT: note_on channel=0 note=46 velocity=63 time=0
EXTRACT: note_off channel=2 note=50 velocity=79 time=0
EXTRACT: note_on channel=2 note=56 velocity=79 time=0
EXTRACT: note_off channel=0 note=70 velocity=63 time=0.14423075
EXTRACT: note_off channel=0 note=65 velocity=63 time=0
EXTRACT: note_off channel=0 note=62 velocity=63 time=0
EXTRACT: note_off channel=0 note=58 velocity=63 time=0
EXTRACT: note_off channel=0 note=53 velocity=63 time=0
EXTRACT: note_off channel=0 note=46 velocity=63 time=0
EXTRACT: note_on channel=0 note=70 velocity=63 time=0
EXTRACT: note_on channel=0 note=65 velocity=63 time=0
EXTRACT: note_on channel=0 note=62 velocity=63 time=0
EXTRACT: note_on channel=0 note=58 velocity=63 time=0
EXTRACT: note_on channel=0 note=53 velocity=63 time=0
EXTRACT: note_on channel=0 note=46 velocity=63 time=0
EXTRACT: note_off channel=4 note=58 velocity=95 time=0
EXTRACT: note_on channel=4 note=56 velocity=95 time=0
EXTRACT: note_off channel=0 note=70 velocity=63 time=0.14423075
EXTRACT: note_off channel=0 note=65 velocity=63 time=0
EXTRACT: note_off channel=0 note=62 velocity=63 time=0
EXTRACT: note_off channel=0 note=58 velocity=63 time=0
EXTRACT: note_off channel=0 note=53 velocity=63 time=0
EXTRACT: note_off channel=0 note=46 velocity=63 time=0
EXTRACT: note_on channel=0 note=64 velocity=63 time=0
EXTRACT: note_on channel=0 note=59 velocity=63 time=0
EXTRACT: note_on channel=0 note=55 velocity=63 time=0
EXTRACT: note_on channel=0 note=50 velocity=63 time=0
EXTRACT: note_on channel=0 note=45 velocity=63 time=0
EXTRACT: note_on channel=0 note=40 velocity=63 time=0
EXTRACT: note_off channel=2 note=56 velocity=79 time=0
EXTRACT: note_on channel=2 note=70 velocity=79 time=0
EXTRACT: note_on channel=2 note=65 velocity=79 time=0
EXTRACT: note_on channel=2 note=62 velocity=79 time=0
EXTRACT: note_off channel=4 note=56 velocity=95 time=0
EXTRACT: note_on channel=4 note=53 velocity=95 time=0
EXTRACT: note_off channel=0 note=64 velocity=63 time=0.031249995833333332
EXTRACT: note_off channel=0 note=59 velocity=63 time=0
EXTRACT: note_off channel=0 note=55 velocity=63 time=0
EXTRACT: note_off channel=0 note=50 velocity=63 time=0
EXTRACT: note_off channel=0 note=45 velocity=63 time=0
EXTRACT: note_off channel=0 note=40 velocity=63 time=0
EXTRACT: note_on channel=0 note=64 velocity=63 time=0.11298075416666667
EXTRACT: note_on channel=0 note=59 velocity=63 time=0
EXTRACT: note_on channel=0 note=55 velocity=63 time=0
EXTRACT: note_on channel=0 note=50 velocity=63 time=0
EXTRACT: note_on channel=0 note=45 velocity=63 time=0
EXTRACT: note_on channel=0 note=40 velocity=63 time=0
EXTRACT: note_off channel=2 note=70 velocity=79 time=0
EXTRACT: note_off channel=2 note=65 velocity=79 time=0
EXTRACT: note_off channel=2 note=62 velocity=79 time=0
EXTRACT: note_off channel=4 note=53 velocity=95 time=0
EXTRACT: note_off channel=0 note=64 velocity=63 time=0.031249995833333332
EXTRACT: note_off channel=0 note=59 velocity=63 time=0
EXTRACT: note_off channel=0 note=55 velocity=63 time=0
EXTRACT: note_off channel=0 note=50 velocity=63 time=0
EXTRACT: note_off channel=0 note=45 velocity=63 time=0
EXTRACT: note_off channel=0 note=40 velocity=63 time=0
EXTRACT: note_on channel=0 note=70 velocity=63 time=0.11298075416666667
EXTRACT: note_on channel=0 note=65 velocity=63 time=0
EXTRACT: note_on channel=0 note=62 velocity=63 time=0
EXTRACT: note_on channel=0 note=58 velocity=63 time=0
EXTRACT: note_on channel=0 note=53 velocity=63 time=0
EXTRACT: note_on channel=0 note=46 velocity=63 time=0
EXTRACT: note_off channel=0 note=70 velocity=63 time=0.14423075
EXTRACT: note_off channel=0 note=65 velocity=63 time=0
EXTRACT: note_off channel=0 note=62 velocity=63 time=0
EXTRACT: note_off channel=0 note=58 velocity=63 time=0
EXTRACT: note_off channel=0 note=53 velocity=63 time=0
EXTRACT: note_off channel=0 note=46 velocity=63 time=0
EXTRACT: note_on channel=0 note=70 velocity=63 time=0
EXTRACT: note_on channel=0 note=65 velocity=63 time=0
EXTRACT: note_on channel=0 note=62 velocity=63 time=0
EXTRACT: note_on channel=0 note=58 velocity=63 time=0
EXTRACT: note_on channel=0 note=53 velocity=63 time=0
EXTRACT: note_on channel=0 note=46 velocity=63 time=0
EXTRACT: note_off channel=0 note=70 velocity=63 time=0.14423075
EXTRACT: note_off channel=0 note=65 velocity=63 time=0
EXTRACT: note_off channel=0 note=62 velocity=63 time=0
EXTRACT: note_off channel=0 note=58 velocity=63 time=0
EXTRACT: note_off channel=0 note=53 velocity=63 time=0
EXTRACT: note_off channel=0 note=46 velocity=63 time=0
EXTRACT: note_on channel=0 note=64 velocity=63 time=0
EXTRACT: note_on channel=0 note=59 velocity=63 time=0
EXTRACT: note_on channel=0 note=55 velocity=63 time=0
EXTRACT: note_on channel=0 note=50 velocity=63 time=0
EXTRACT: note_on channel=0 note=45 velocity=63 time=0
EXTRACT: note_on channel=0 note=40 velocity=63 time=0
EXTRACT: note_on channel=2 note=58 velocity=79 time=0
EXTRACT: note_off channel=0 note=64 velocity=63 time=0.031249995833333332
EXTRACT: note_off channel=0 note=59 velocity=63 time=0
EXTRACT: note_off channel=0 note=55 velocity=63 time=0
EXTRACT: note_off channel=0 note=50 velocity=63 time=0
EXTRACT: note_off channel=0 note=45 velocity=63 time=0
EXTRACT: note_off channel=0 note=40 velocity=63 time=0
EXTRACT: note_on channel=0 note=64 velocity=63 time=0.11298075416666667
EXTRACT: note_on channel=0 note=59 velocity=63 time=0
EXTRACT: note_on channel=0 note=55 velocity=63 time=0
EXTRACT: note_on channel=0 note=50 velocity=63 time=0
EXTRACT: note_on channel=0 note=45 velocity=63 time=0
EXTRACT: note_on channel=0 note=40 velocity=63 time=0
EXTRACT: note_off channel=0 note=64 velocity=63 time=0.031249995833333332
EXTRACT: note_off channel=0 note=59 velocity=63 time=0
EXTRACT: note_off channel=0 note=55 velocity=63 time=0
EXTRACT: note_off channel=0 note=50 velocity=63 time=0
EXTRACT: note_off channel=0 note=45 velocity=63 time=0
EXTRACT: note_off channel=0 note=40 velocity=63 time=0
EXTRACT: note_on channel=0 note=70 velocity=63 time=0.11298075416666667
EXTRACT: note_on channel=0 note=65 velocity=63 time=0
EXTRACT: note_on channel=0 note=62 velocity=63 time=0
EXTRACT: note_on channel=0 note=58 velocity=63 time=0
EXTRACT: note_on channel=0 note=53 velocity=63 time=0
EXTRACT: note_on channel=0 note=46 velocity=63 time=0
EXTRACT: note_off channel=2 note=58 velocity=79 time=0
EXTRACT: note_off channel=0 note=70 velocity=63 time=0.14423075
EXTRACT: note_off channel=0 note=65 velocity=63 time=0
EXTRACT: note_off channel=0 note=62 velocity=63 time=0
EXTRACT: note_off channel=0 note=58 velocity=63 time=0
EXTRACT: note_off channel=0 note=53 velocity=63 time=0
EXTRACT: note_off channel=0 note=46 velocity=63 time=0
EXTRACT: note_on channel=0 note=70 velocity=63 time=0
EXTRACT: note_on channel=0 note=65 velocity=63 time=0
EXTRACT: note_on channel=0 note=62 velocity=63 time=0
EXTRACT: note_on channel=0 note=58 velocity=63 time=0
EXTRACT: note_on channel=0 note=53 velocity=63 time=0
EXTRACT: note_on channel=0 note=46 velocity=63 time=0
EXTRACT: note_off channel=0 note=70 velocity=63 time=0.14423075
EXTRACT: note_off channel=0 note=65 velocity=63 time=0
EXTRACT: note_off channel=0 note=62 velocity=63 time=0
EXTRACT: note_off channel=0 note=58 velocity=63 time=0
EXTRACT: note_off channel=0 note=53 velocity=63 time=0
EXTRACT: note_off channel=0 note=46 velocity=63 time=0
EXTRACT: note_on channel=0 note=64 velocity=63 time=0
EXTRACT: note_on channel=0 note=59 velocity=63 time=0
EXTRACT: note_on channel=0 note=55 velocity=63 time=0
EXTRACT: note_on channel=0 note=50 velocity=63 time=0
EXTRACT: note_on channel=0 note=45 velocity=63 time=0
EXTRACT: note_on channel=0 note=40 velocity=63 time=0
EXTRACT: note_on channel=4 note=58 velocity=95 time=0
EXTRACT: note_off channel=0 note=64 velocity=63 time=0.031249995833333332
EXTRACT: note_off channel=0 note=59 velocity=63 time=0
EXTRACT: note_off channel=0 note=55 velocity=63 time=0
EXTRACT: note_off channel=0 note=50 velocity=63 time=0
EXTRACT: note_off channel=0 note=45 velocity=63 time=0
EXTRACT: note_off channel=0 note=40 velocity=63 time=0
EXTRACT: note_on channel=0 note=64 velocity=63 time=0.11298075416666667
EXTRACT: note_on channel=0 note=59 velocity=63 time=0
EXTRACT: note_on channel=0 note=55 velocity=63 time=0
EXTRACT: note_on channel=0 note=50 velocity=63 time=0
EXTRACT: note_on channel=0 note=45 velocity=63 time=0
EXTRACT: note_on channel=0 note=40 velocity=63 time=0
EXTRACT: note_on channel=2 note=56 velocity=79 time=0
EXTRACT: note_off channel=4 note=58 velocity=95 time=0
EXTRACT: note_on channel=4 note=56 velocity=95 time=0
EXTRACT: note_off channel=0 note=64 velocity=63 time=0.031249995833333332
EXTRACT: note_off channel=0 note=59 velocity=63 time=0
EXTRACT: note_off channel=0 note=55 velocity=63 time=0
EXTRACT: note_off channel=0 note=50 velocity=63 time=0
EXTRACT: note_off channel=0 note=45 velocity=63 time=0
EXTRACT: note_off channel=0 note=40 velocity=63 time=0
EXTRACT: note_on channel=0 note=70 velocity=63 time=0.11298075416666667
EXTRACT: note_on channel=0 note=65 velocity=63 time=0
EXTRACT: note_on channel=0 note=62 velocity=63 time=0
EXTRACT: note_on channel=0 note=58 velocity=63 time=0
EXTRACT: note_on channel=0 note=53 velocity=63 time=0
EXTRACT: note_on channel=0 note=46 velocity=63 time=0
EXTRACT: note_off channel=2 note=56 velocity=79 time=0
EXTRACT: note_off channel=4 note=56 velocity=95 time=0
EXTRACT: note_on channel=4 note=58 velocity=95 time=0
EXTRACT: note_off channel=0 note=70 velocity=63 time=0.14423075
EXTRACT: note_off channel=0 note=65 velocity=63 time=0
EXTRACT: note_off channel=0 note=62 velocity=63 time=0
EXTRACT: note_off channel=0 note=58 velocity=63 time=0
EXTRACT: note_off channel=0 note=53 velocity=63 time=0
EXTRACT: note_off channel=0 note=46 velocity=63 time=0
EXTRACT: note_on channel=0 note=70 velocity=63 time=0
EXTRACT: note_on channel=0 note=65 velocity=63 time=0
EXTRACT: note_on channel=0 note=62 velocity=63 time=0
EXTRACT: note_on channel=0 note=58 velocity=63 time=0
EXTRACT: note_on channel=0 note=53 velocity=63 time=0
EXTRACT: note_on channel=0 note=46 velocity=63 time=0
EXTRACT: note_on channel=2 note=56 velocity=79 time=0
EXTRACT: note_off channel=0 note=70 velocity=63 time=0.14423075
EXTRACT: note_off channel=0 note=65 velocity=63 time=0
EXTRACT: note_off channel=0 note=62 velocity=63 time=0
EXTRACT: note_off channel=0 note=58 velocity=63 time=0
EXTRACT: note_off channel=0 note=53 velocity=63 time=0
EXTRACT: note_off channel=0 note=46 velocity=63 time=0
EXTRACT: note_on channel=0 note=64 velocity=63 time=0
EXTRACT: note_on channel=0 note=59 velocity=63 time=0
EXTRACT: note_on channel=0 note=55 velocity=63 time=0
EXTRACT: note_on channel=0 note=50 velocity=63 time=0
EXTRACT: note_on channel=0 note=45 velocity=63 time=0
EXTRACT: note_on channel=0 note=40 velocity=63 time=0
EXTRACT: note_off channel=2 note=56 velocity=79 time=0
EXTRACT: note_off channel=4 note=58 velocity=95 time=0
EXTRACT: note_on channel=4 note=56 velocity=95 time=0
EXTRACT: note_off channel=0 note=64 velocity=63 time=0.031249995833333332
EXTRACT: note_off channel=0 note=59 velocity=63 time=0
EXTRACT: note_off channel=0 note=55 velocity=63 time=0
EXTRACT: note_off channel=0 note=50 velocity=63 time=0
EXTRACT: note_off channel=0 note=45 velocity=63 time=0
EXTRACT: note_off channel=0 note=40 velocity=63 time=0
EXTRACT: note_on channel=0 note=64 velocity=63 time=0.11298075416666667
EXTRACT: note_on channel=0 note=59 velocity=63 time=0
EXTRACT: note_on channel=0 note=55 velocity=63 time=0
EXTRACT: note_on channel=0 note=50 velocity=63 time=0
EXTRACT: note_on channel=0 note=45 velocity=63 time=0
EXTRACT: note_on channel=0 note=40 velocity=63 time=0
EXTRACT: note_on channel=2 note=50 velocity=79 time=0
EXTRACT: note_off channel=4 note=56 velocity=95 time=0
EXTRACT: note_on channel=4 note=58 velocity=95 time=0
EXTRACT: note_off channel=0 note=64 velocity=63 time=0.031249995833333332
EXTRACT: note_off channel=0 note=59 velocity=63 time=0
EXTRACT: note_off channel=0 note=55 velocity=63 time=0
EXTRACT: note_off channel=0 note=50 velocity=63 time=0
EXTRACT: note_off channel=0 note=45 velocity=63 time=0
EXTRACT: note_off channel=0 note=40 velocity=63 time=0
EXTRACT: note_on channel=0 note=70 velocity=63 time=0.11298075416666667
EXTRACT: note_on channel=0 note=65 velocity=63 time=0
EXTRACT: note_on channel=0 note=62 velocity=63 time=0
EXTRACT: note_on channel=0 note=58 velocity=63 time=0
EXTRACT: note_on channel=0 note=53 velocity=63 time=0
EXTRACT: note_on channel=0 note=46 velocity=63 time=0
EXTRACT: note_off channel=2 note=50 velocity=79 time=0
EXTRACT: note_on channel=2 note=56 velocity=79 time=0
EXTRACT: note_off channel=0 note=70 velocity=63 time=0.14423075
EXTRACT: note_off channel=0 note=65 velocity=63 time=0
EXTRACT: note_off channel=0 note=62 velocity=63 time=0
EXTRACT: note_off channel=0 note=58 velocity=63 time=0
EXTRACT: note_off channel=0 note=53 velocity=63 time=0
EXTRACT: note_off channel=0 note=46 velocity=63 time=0
EXTRACT: note_on channel=0 note=70 velocity=63 time=0
EXTRACT: note_on channel=0 note=65 velocity=63 time=0
EXTRACT: note_on channel=0 note=62 velocity=63 time=0
EXTRACT: note_on channel=0 note=58 velocity=63 time=0
EXTRACT: note_on channel=0 note=53 velocity=63 time=0
EXTRACT: note_on channel=0 note=46 velocity=63 time=0
EXTRACT: note_off channel=4 note=58 velocity=95 time=0
EXTRACT: note_on channel=4 note=56 velocity=95 time=0
EXTRACT: note_off channel=0 note=70 velocity=63 time=0.14423075
EXTRACT: note_off channel=0 note=65 velocity=63 time=0
EXTRACT: note_off channel=0 note=62 velocity=63 time=0
EXTRACT: note_off channel=0 note=58 velocity=63 time=0
EXTRACT: note_off channel=0 note=53 velocity=63 time=0
EXTRACT: note_off channel=0 note=46 velocity=63 time=0
EXTRACT: note_on channel=0 note=64 velocity=63 time=0
EXTRACT: note_on channel=0 note=59 velocity=63 time=0
EXTRACT: note_on channel=0 note=55 velocity=63 time=0
EXTRACT: note_on channel=0 note=50 velocity=63 time=0
EXTRACT: note_on channel=0 note=45 velocity=63 time=0
EXTRACT: note_on channel=0 note=40 velocity=63 time=0
EXTRACT: note_off channel=2 note=56 velocity=79 time=0
EXTRACT: note_on channel=2 note=58 velocity=79 time=0
EXTRACT: note_off channel=4 note=56 velocity=95 time=0
EXTRACT: note_on channel=4 note=58 velocity=95 time=0
EXTRACT: note_off channel=0 note=64 velocity=63 time=0.031249995833333332
EXTRACT: note_off channel=0 note=59 velocity=63 time=0
EXTRACT: note_off channel=0 note=55 velocity=63 time=0
EXTRACT: note_off channel=0 note=50 velocity=63 time=0
EXTRACT: note_off channel=0 note=45 velocity=63 time=0
EXTRACT: note_off channel=0 note=40 velocity=63 time=0
EXTRACT: note_on channel=0 note=64 velocity=63 time=0.11298075416666667
EXTRACT: note_on channel=0 note=59 velocity=63 time=0
EXTRACT: note_on channel=0 note=55 velocity=63 time=0
EXTRACT: note_on channel=0 note=50 velocity=63 time=0
EXTRACT: note_on channel=0 note=45 velocity=63 time=0
EXTRACT: note_on channel=0 note=40 velocity=63 time=0
EXTRACT: note_off channel=2 note=58 velocity=79 time=0
EXTRACT: note_off channel=4 note=58 velocity=95 time=0
EXTRACT: note_on channel=4 note=56 velocity=95 time=0
EXTRACT: note_off channel=0 note=64 velocity=63 time=0.031249995833333332
EXTRACT: note_off channel=0 note=59 velocity=63 time=0
EXTRACT: note_off channel=0 note=55 velocity=63 time=0
EXTRACT: note_off channel=0 note=50 velocity=63 time=0
EXTRACT: note_off channel=0 note=45 velocity=63 time=0
EXTRACT: note_off channel=0 note=40 velocity=63 time=0
EXTRACT: note_on channel=0 note=72 velocity=63 time=0.11298075416666667
EXTRACT: note_on channel=0 note=68 velocity=63 time=0
EXTRACT: note_on channel=0 note=65 velocity=63 time=0
EXTRACT: note_on channel=0 note=60 velocity=63 time=0
EXTRACT: note_on channel=0 note=53 velocity=63 time=0
EXTRACT: note_on channel=2 note=51 velocity=79 time=0
EXTRACT: note_off channel=4 note=56 velocity=95 time=0
EXTRACT: note_on channel=4 note=53 velocity=95 time=0
EXTRACT: note_off channel=0 note=72 velocity=63 time=0.14423075
EXTRACT: note_off channel=0 note=68 velocity=63 time=0
EXTRACT: note_off channel=0 note=65 velocity=63 time=0
EXTRACT: note_off channel=0 note=60 velocity=63 time=0
EXTRACT: note_off channel=0 note=53 velocity=63 time=0
EXTRACT: note_on channel=0 note=72 velocity=63 time=0
EXTRACT: note_on channel=0 note=68 velocity=63 time=0
EXTRACT: note_on channel=0 note=65 velocity=63 time=0
EXTRACT: note_on channel=0 note=60 velocity=63 time=0
EXTRACT: note_on channel=0 note=53 velocity=63 time=0
EXTRACT: note_off channel=2 note=51 velocity=79 time=0
EXTRACT: note_on channel=2 note=53 velocity=54 time=0
EXTRACT: note_off channel=0 note=72 velocity=63 time=0.14423075
EXTRACT: note_off channel=0 note=68 velocity=63 time=0
EXTRACT: note_off channel=0 note=65 velocity=63 time=0
EXTRACT: note_off channel=0 note=60 velocity=63 time=0
EXTRACT: note_off channel=0 note=53 velocity=63 time=0
EXTRACT: note_on channel=0 note=64 velocity=63 time=0
EXTRACT: note_on channel=0 note=59 velocity=63 time=0
EXTRACT: note_on channel=0 note=55 velocity=63 time=0
EXTRACT: note_on channel=0 note=50 velocity=63 time=0
EXTRACT: note_on channel=0 note=45 velocity=63 time=0
EXTRACT: note_off channel=0 note=64 velocity=63 time=0.031249995833333332
EXTRACT: note_off channel=0 note=59 velocity=63 time=0
EXTRACT: note_off channel=0 note=55 velocity=63 time=0
EXTRACT: note_off channel=0 note=50 velocity=63 time=0
EXTRACT: note_off channel=0 note=45 velocity=63 time=0
EXTRACT: note_on channel=0 note=64 velocity=63 time=0.11298075416666667
EXTRACT: note_on channel=0 note=59 velocity=63 time=0
EXTRACT: note_on channel=0 note=55 velocity=63 time=0
EXTRACT: note_on channel=0 note=50 velocity=63 time=0
EXTRACT: note_on channel=0 note=45 velocity=63 time=0
EXTRACT: note_off channel=2 note=53 velocity=54 time=0
EXTRACT: note_on channel=2 note=56 velocity=79 time=0
EXTRACT: note_off channel=0 note=64 velocity=63 time=0.031249995833333332
EXTRACT: note_off channel=0 note=59 velocity=63 time=0
EXTRACT: note_off channel=0 note=55 velocity=63 time=0
EXTRACT: note_off channel=0 note=50 velocity=63 time=0
EXTRACT: note_off channel=0 note=45 velocity=63 time=0
EXTRACT: note_on channel=0 note=72 velocity=63 time=0.11298075416666667
EXTRACT: note_on channel=0 note=68 velocity=63 time=0
EXTRACT: note_on channel=0 note=65 velocity=63 time=0
EXTRACT: note_on channel=0 note=60 velocity=63 time=0
EXTRACT: note_on channel=0 note=53 velocity=63 time=0
EXTRACT: note_off channel=2 note=56 velocity=79 time=0
EXTRACT: note_off channel=0 note=72 velocity=63 time=0.14423075
EXTRACT: note_off channel=0 note=68 velocity=63 time=0
EXTRACT: note_off channel=0 note=65 velocity=63 time=0
EXTRACT: note_off channel=0 note=60 velocity=63 time=0
EXTRACT: note_off channel=0 note=53 velocity=63 time=0
EXTRACT: note_on channel=0 note=72 velocity=63 time=0
EXTRACT: note_on channel=0 note=68 velocity=63 time=0
EXTRACT: note_on channel=0 note=65 velocity=63 time=0
EXTRACT: note_on channel=0 note=60 velocity=63 time=0
EXTRACT: note_on channel=0 note=53 velocity=63 time=0
EXTRACT: note_off channel=0 note=72 velocity=63 time=0.14423075
EXTRACT: note_off channel=0 note=68 velocity=63 time=0
EXTRACT: note_off channel=0 note=65 velocity=63 time=0
EXTRACT: note_off channel=0 note=60 velocity=63 time=0
EXTRACT: note_off channel=0 note=53 velocity=63 time=0
EXTRACT: note_on channel=0 note=64 velocity=63 time=0
EXTRACT: note_on channel=0 note=59 velocity=63 time=0
EXTRACT: note_on channel=0 note=55 velocity=63 time=0
EXTRACT: note_on channel=0 note=50 velocity=63 time=0
EXTRACT: note_on channel=0 note=45 velocity=63 time=0
EXTRACT: note_on channel=2 note=51 velocity=79 time=0
EXTRACT: note_off channel=0 note=64 velocity=63 time=0.031249995833333332
EXTRACT: note_off channel=0 note=59 velocity=63 time=0
EXTRACT: note_off channel=0 note=55 velocity=63 time=0
EXTRACT: note_off channel=0 note=50 velocity=63 time=0
EXTRACT: note_off channel=0 note=45 velocity=63 time=0
EXTRACT: note_on channel=0 note=64 velocity=63 time=0.11298075416666667
EXTRACT: note_on channel=0 note=59 velocity=63 time=0
EXTRACT: note_on channel=0 note=55 velocity=63 time=0
EXTRACT: note_on channel=0 note=50 velocity=63 time=0
EXTRACT: note_on channel=0 note=45 velocity=63 time=0
EXTRACT: note_off channel=0 note=64 velocity=63 time=0.031249995833333332
EXTRACT: note_off channel=0 note=59 velocity=63 time=0
EXTRACT: note_off channel=0 note=55 velocity=63 time=0
EXTRACT: note_off channel=0 note=50 velocity=63 time=0
EXTRACT: note_off channel=0 note=45 velocity=63 time=0
EXTRACT: note_on channel=0 note=72 velocity=63 time=0.11298075416666667
EXTRACT: note_on channel=0 note=68 velocity=63 time=0
EXTRACT: note_on channel=0 note=65 velocity=63 time=0
EXTRACT: note_on channel=0 note=60 velocity=63 time=0
EXTRACT: note_on channel=0 note=53 velocity=63 time=0
EXTRACT: note_off channel=2 note=51 velocity=79 time=0
EXTRACT: note_off channel=4 note=53 velocity=95 time=0
EXTRACT: note_off channel=0 note=72 velocity=63 time=0.14423075
EXTRACT: note_off channel=0 note=68 velocity=63 time=0
EXTRACT: note_off channel=0 note=65 velocity=63 time=0
EXTRACT: note_off channel=0 note=60 velocity=63 time=0
EXTRACT: note_off channel=0 note=53 velocity=63 time=0
EXTRACT: note_on channel=0 note=72 velocity=63 time=0
EXTRACT: note_on channel=0 note=68 velocity=63 time=0
EXTRACT: note_on channel=0 note=65 velocity=63 time=0
EXTRACT: note_on channel=0 note=60 velocity=63 time=0
EXTRACT: note_on channel=0 note=53 velocity=63 time=0
EXTRACT: note_off channel=0 note=72 velocity=63 time=0.14423075
EXTRACT: note_off channel=0 note=68 velocity=63 time=0
EXTRACT: note_off channel=0 note=65 velocity=63 time=0
EXTRACT: note_off channel=0 note=60 velocity=63 time=0
EXTRACT: note_off channel=0 note=53 velocity=63 time=0
EXTRACT: note_on channel=0 note=64 velocity=63 time=0
EXTRACT: note_on channel=0 note=59 velocity=63 time=0
EXTRACT: note_on channel=0 note=55 velocity=63 time=0
EXTRACT: note_on channel=0 note=50 velocity=63 time=0
EXTRACT: note_on channel=0 note=45 velocity=63 time=0
EXTRACT: note_on channel=2 note=48 velocity=79 time=0
EXTRACT: note_on channel=4 note=72 velocity=95 time=0
EXTRACT: note_off channel=0 note=64 velocity=63 time=0.031249995833333332
EXTRACT: note_off channel=0 note=59 velocity=63 time=0
EXTRACT: note_off channel=0 note=55 velocity=63 time=0
EXTRACT: note_off channel=0 note=50 velocity=63 time=0
EXTRACT: note_off channel=0 note=45 velocity=63 time=0
EXTRACT: note_on channel=0 note=64 velocity=63 time=0.11298075416666667
EXTRACT: note_on channel=0 note=59 velocity=63 time=0
EXTRACT: note_on channel=0 note=55 velocity=63 time=0
EXTRACT: note_on channel=0 note=50 velocity=63 time=0
EXTRACT: note_on channel=0 note=45 velocity=63 time=0
EXTRACT: note_off channel=0 note=64 velocity=63 time=0.031249995833333332
EXTRACT: note_off channel=0 note=59 velocity=63 time=0
EXTRACT: note_off channel=0 note=55 velocity=63 time=0
EXTRACT: note_off channel=0 note=50 velocity=63 time=0
EXTRACT: note_off channel=0 note=45 velocity=63 time=0
EXTRACT: note_on channel=0 note=72 velocity=63 time=0.11298075416666667
EXTRACT: note_on channel=0 note=68 velocity=63 time=0
EXTRACT: note_on channel=0 note=65 velocity=63 time=0
EXTRACT: note_on channel=0 note=60 velocity=63 time=0
EXTRACT: note_on channel=0 note=53 velocity=63 time=0
EXTRACT: note_off channel=2 note=48 velocity=79 time=0
EXTRACT: note_on channel=2 note=46 velocity=79 time=0
EXTRACT: note_off channel=4 note=72 velocity=95 time=0
EXTRACT: note_on channel=4 note=72 velocity=95 time=0
EXTRACT: note_on channel=4 note=48 velocity=95 time=0
EXTRACT: note_off channel=0 note=72 velocity=63 time=0.14423075
EXTRACT: note_off channel=0 note=68 velocity=63 time=0
EXTRACT: note_off channel=0 note=65 velocity=63 time=0
EXTRACT: note_off channel=0 note=60 velocity=63 time=0
EXTRACT: note_off channel=0 note=53 velocity=63 time=0
EXTRACT: note_on channel=0 note=72 velocity=63 time=0
EXTRACT: note_on channel=0 note=68 velocity=63 time=0
EXTRACT: note_on channel=0 note=65 velocity=63 time=0
EXTRACT: note_on channel=0 note=60 velocity=63 time=0
EXTRACT: note_on channel=0 note=53 velocity=63 time=0
EXTRACT: note_off channel=2 note=46 velocity=79 time=0
EXTRACT: note_on channel=2 note=48 velocity=54 time=0
EXTRACT: note_off channel=4 note=72 velocity=95 time=0
EXTRACT: note_off channel=4 note=48 velocity=95 time=0
EXTRACT: note_on channel=4 note=70 velocity=95 time=0
EXTRACT: note_off channel=0 note=72 velocity=63 time=0.14423075
EXTRACT: note_off channel=0 note=68 velocity=63 time=0
EXTRACT: note_off channel=0 note=65 velocity=63 time=0
EXTRACT: note_off channel=0 note=60 velocity=63 time=0
EXTRACT: note_off channel=0 note=53 velocity=63 time=0
EXTRACT: note_on channel=0 note=64 velocity=63 time=0
EXTRACT: note_on channel=0 note=59 velocity=63 time=0
EXTRACT: note_on channel=0 note=55 velocity=63 time=0
EXTRACT: note_on channel=0 note=50 velocity=63 time=0
EXTRACT: note_on channel=0 note=45 velocity=63 time=0
EXTRACT: note_off channel=2 note=48 velocity=54 time=0
EXTRACT: note_on channel=2 note=51 velocity=79 time=0
EXTRACT: note_off channel=4 note=70 velocity=95 time=0
EXTRACT: note_on channel=4 note=68 velocity=95 time=0
EXTRACT: note_off channel=0 note=64 velocity=63 time=0.031249995833333332
EXTRACT: note_off channel=0 note=59 velocity=63 time=0
EXTRACT: note_off channel=0 note=55 velocity=63 time=0
EXTRACT: note_off channel=0 note=50 velocity=63 time=0
EXTRACT: note_off channel=0 note=45 velocity=63 time=0
EXTRACT: note_on channel=0 note=64 velocity=63 time=0.11298075416666667
EXTRACT: note_on channel=0 note=59 velocity=63 time=0
EXTRACT: note_on channel=0 note=55 velocity=63 time=0
EXTRACT: note_on channel=0 note=50 velocity=63 time=0
EXTRACT: note_on channel=0 note=45 velocity=63 time=0
EXTRACT: note_off channel=4 note=68 velocity=95 time=0
EXTRACT: note_on channel=4 note=72 velocity=95 time=0
EXTRACT: note_off channel=0 note=64 velocity=63 time=0.031249995833333332
EXTRACT: note_off channel=0 note=59 velocity=63 time=0
EXTRACT: note_off channel=0 note=55 velocity=63 time=0
EXTRACT: note_off channel=0 note=50 velocity=63 time=0
EXTRACT: note_off channel=0 note=45 velocity=63 time=0
EXTRACT: note_on channel=0 note=72 velocity=63 time=0.11298075416666667
EXTRACT: note_on channel=0 note=68 velocity=63 time=0
EXTRACT: note_on channel=0 note=65 velocity=63 time=0
EXTRACT: note_on channel=0 note=60 velocity=63 time=0
EXTRACT: note_on channel=0 note=53 velocity=63 time=0
EXTRACT: note_off channel=2 note=51 velocity=79 time=0
EXTRACT: note_on channel=2 note=46 velocity=79 time=0
EXTRACT: note_off channel=0 note=72 velocity=63 time=0.14423075
EXTRACT: note_off channel=0 note=68 velocity=63 time=0
EXTRACT: note_off channel=0 note=65 velocity=63 time=0
EXTRACT: note_off channel=0 note=60 velocity=63 time=0
EXTRACT: note_off channel=0 note=53 velocity=63 time=0
EXTRACT: note_on channel=0 note=72 velocity=63 time=0
EXTRACT: note_on channel=0 note=68 velocity=63 time=0
EXTRACT: note_on channel=0 note=65 velocity=63 time=0
EXTRACT: note_on channel=0 note=60 velocity=63 time=0
EXTRACT: note_on channel=0 note=53 velocity=63 time=0
EXTRACT: note_off channel=2 note=46 velocity=79 time=0
EXTRACT: note_on channel=2 note=48 velocity=54 time=0
EXTRACT: note_off channel=0 note=72 velocity=63 time=0.14423075
EXTRACT: note_off channel=0 note=68 velocity=63 time=0
EXTRACT: note_off channel=0 note=65 velocity=63 time=0
EXTRACT: note_off channel=0 note=60 velocity=63 time=0
EXTRACT: note_off channel=0 note=53 velocity=63 time=0
EXTRACT: note_on channel=0 note=64 velocity=63 time=0
EXTRACT: note_on channel=0 note=59 velocity=63 time=0
EXTRACT: note_on channel=0 note=55 velocity=63 time=0
EXTRACT: note_on channel=0 note=50 velocity=63 time=0
EXTRACT: note_on channel=0 note=45 velocity=63 time=0
EXTRACT: note_off channel=2 note=48 velocity=54 time=0
EXTRACT: note_on channel=2 note=51 velocity=79 time=0
EXTRACT: note_off channel=0 note=64 velocity=63 time=0.031249995833333332
EXTRACT: note_off channel=0 note=59 velocity=63 time=0
EXTRACT: note_off channel=0 note=55 velocity=63 time=0
EXTRACT: note_off channel=0 note=50 velocity=63 time=0
EXTRACT: note_off channel=0 note=45 velocity=63 time=0
EXTRACT: note_on channel=0 note=64 velocity=63 time=0.11298075416666667
EXTRACT: note_on channel=0 note=59 velocity=63 time=0
EXTRACT: note_on channel=0 note=55 velocity=63 time=0
EXTRACT: note_on channel=0 note=50 velocity=63 time=0
EXTRACT: note_on channel=0 note=45 velocity=63 time=0
EXTRACT: note_off channel=0 note=64 velocity=63 time=0.031249995833333332
EXTRACT: note_off channel=0 note=59 velocity=63 time=0
EXTRACT: note_off channel=0 note=55 velocity=63 time=0
EXTRACT: note_off channel=0 note=50 velocity=63 time=0
EXTRACT: note_off channel=0 note=45 velocity=63 time=0
EXTRACT: note_on channel=0 note=72 velocity=63 time=0.11298075416666667
EXTRACT: note_on channel=0 note=68 velocity=63 time=0
EXTRACT: note_on channel=0 note=65 velocity=63 time=0
EXTRACT: note_on channel=0 note=60 velocity=63 time=0
EXTRACT: note_on channel=0 note=53 velocity=63 time=0
EXTRACT: note_off channel=2 note=51 velocity=79 time=0
EXTRACT: note_off channel=0 note=72 velocity=63 time=0.14423075
EXTRACT: note_off channel=0 note=68 velocity=63 time=0
EXTRACT: note_off channel=0 note=65 velocity=63 time=0
EXTRACT: note_off channel=0 note=60 velocity=63 time=0
EXTRACT: note_off channel=0 note=53 velocity=63 time=0
EXTRACT: note_on channel=0 note=72 velocity=63 time=0
EXTRACT: note_on channel=0 note=68 velocity=63 time=0
EXTRACT: note_on channel=0 note=65 velocity=63 time=0
EXTRACT: note_on channel=0 note=60 velocity=63 time=0
EXTRACT: note_on channel=0 note=53 velocity=63 time=0
EXTRACT: note_on channel=2 note=45 velocity=79 time=0
EXTRACT: note_off channel=2 note=45 velocity=79 time=0.031249995833333332
EXTRACT: note_off channel=0 note=72 velocity=63 time=0.11298075416666667
EXTRACT: note_off channel=0 note=68 velocity=63 time=0
EXTRACT: note_off channel=0 note=65 velocity=63 time=0
EXTRACT: note_off channel=0 note=60 velocity=63 time=0
EXTRACT: note_off channel=0 note=53 velocity=63 time=0
EXTRACT: note_on channel=0 note=64 velocity=63 time=0
EXTRACT: note_on channel=0 note=59 velocity=63 time=0
EXTRACT: note_on channel=0 note=55 velocity=63 time=0
EXTRACT: note_on channel=0 note=50 velocity=63 time=0
EXTRACT: note_on channel=0 note=45 velocity=63 time=0
EXTRACT: note_on channel=2 note=46 velocity=79 time=0
EXTRACT: note_off channel=0 note=64 velocity=63 time=0.031249995833333332
EXTRACT: note_off channel=0 note=59 velocity=63 time=0
EXTRACT: note_off channel=0 note=55 velocity=63 time=0
EXTRACT: note_off channel=0 note=50 velocity=63 time=0
EXTRACT: note_off channel=0 note=45 velocity=63 time=0
EXTRACT: note_on channel=0 note=64 velocity=63 time=0.11298075416666667
EXTRACT: note_on channel=0 note=59 velocity=63 time=0
EXTRACT: note_on channel=0 note=55 velocity=63 time=0
EXTRACT: note_on channel=0 note=50 velocity=63 time=0
EXTRACT: note_on channel=0 note=45 velocity=63 time=0
EXTRACT: note_off channel=0 note=64 velocity=63 time=0.031249995833333332
EXTRACT: note_off channel=0 note=59 velocity=63 time=0
EXTRACT: note_off channel=0 note=55 velocity=63 time=0
EXTRACT: note_off channel=0 note=50 velocity=63 time=0
EXTRACT: note_off channel=0 note=45 velocity=63 time=0
EXTRACT: note_on channel=0 note=72 velocity=63 time=0.11298075416666667
EXTRACT: note_on channel=0 note=68 velocity=63 time=0
EXTRACT: note_on channel=0 note=65 velocity=63 time=0
EXTRACT: note_on channel=0 note=60 velocity=63 time=0
EXTRACT: note_on channel=0 note=53 velocity=63 time=0
EXTRACT: note_off channel=2 note=46 velocity=79 time=0
EXTRACT: note_on channel=2 note=48 velocity=79 time=0
EXTRACT: note_off channel=0 note=72 velocity=63 time=0.14423075
EXTRACT: note_off channel=0 note=68 velocity=63 time=0
EXTRACT: note_off channel=0 note=65 velocity=63 time=0
EXTRACT: note_off channel=0 note=60 velocity=63 time=0
EXTRACT: note_off channel=0 note=53 velocity=63 time=0
EXTRACT: note_on channel=0 note=72 velocity=63 time=0
EXTRACT: note_on channel=0 note=68 velocity=63 time=0
EXTRACT: note_on channel=0 note=65 velocity=63 time=0
EXTRACT: note_on channel=0 note=60 velocity=63 time=0
EXTRACT: note_on channel=0 note=53 velocity=63 time=0
EXTRACT: note_off channel=0 note=72 velocity=63 time=0.14423075
EXTRACT: note_off channel=0 note=68 velocity=63 time=0
EXTRACT: note_off channel=0 note=65 velocity=63 time=0
EXTRACT: note_off channel=0 note=60 velocity=63 time=0
EXTRACT: note_off channel=0 note=53 velocity=63 time=0
EXTRACT: note_on channel=0 note=64 velocity=63 time=0
EXTRACT: note_on channel=0 note=59 velocity=63 time=0
EXTRACT: note_on channel=0 note=55 velocity=63 time=0
EXTRACT: note_on channel=0 note=50 velocity=63 time=0
EXTRACT: note_on channel=0 note=45 velocity=63 time=0
EXTRACT: note_off channel=2 note=48 velocity=79 time=0
EXTRACT: note_on channel=2 note=51 velocity=79 time=0
EXTRACT: note_off channel=0 note=64 velocity=63 time=0.031249995833333332
EXTRACT: note_off channel=0 note=59 velocity=63 time=0
EXTRACT: note_off channel=0 note=55 velocity=63 time=0
EXTRACT: note_off channel=0 note=50 velocity=63 time=0
EXTRACT: note_off channel=0 note=45 velocity=63 time=0
EXTRACT: note_on channel=0 note=64 velocity=63 time=0.11298075416666667
EXTRACT: note_on channel=0 note=59 velocity=63 time=0
EXTRACT: note_on channel=0 note=55 velocity=63 time=0
EXTRACT: note_on channel=0 note=50 velocity=63 time=0
EXTRACT: note_on channel=0 note=45 velocity=63 time=0
EXTRACT: note_off channel=0 note=64 velocity=63 time=0.031249995833333332
EXTRACT: note_off channel=0 note=59 velocity=63 time=0
EXTRACT: note_off channel=0 note=55 velocity=63 time=0
EXTRACT: note_off channel=0 note=50 velocity=63 time=0
EXTRACT: note_off channel=0 note=45 velocity=63 time=0
EXTRACT: note_on channel=0 note=72 velocity=63 time=0.11298075416666667
EXTRACT: note_on channel=0 note=68 velocity=63 time=0
EXTRACT: note_on channel=0 note=65 velocity=63 time=0
EXTRACT: note_on channel=0 note=60 velocity=63 time=0
EXTRACT: note_on channel=0 note=53 velocity=63 time=0
EXTRACT: note_off channel=2 note=51 velocity=79 time=0
EXTRACT: note_on channel=2 note=53 velocity=79 time=0
EXTRACT: note_off channel=0 note=72 velocity=63 time=0.14423075
EXTRACT: note_off channel=0 note=68 velocity=63 time=0
EXTRACT: note_off channel=0 note=65 velocity=63 time=0
EXTRACT: note_off channel=0 note=60 velocity=63 time=0
EXTRACT: note_off channel=0 note=53 velocity=63 time=0
EXTRACT: note_on channel=0 note=72 velocity=63 time=0
EXTRACT: note_on channel=0 note=68 velocity=63 time=0
EXTRACT: note_on channel=0 note=65 velocity=63 time=0
EXTRACT: note_on channel=0 note=60 velocity=63 time=0
EXTRACT: note_on channel=0 note=53 velocity=63 time=0
EXTRACT: note_off channel=0 note=72 velocity=63 time=0.14423075
EXTRACT: note_off channel=0 note=68 velocity=63 time=0
EXTRACT: note_off channel=0 note=65 velocity=63 time=0
EXTRACT: note_off channel=0 note=60 velocity=63 time=0
EXTRACT: note_off channel=0 note=53 velocity=63 time=0
EXTRACT: note_on channel=0 note=64 velocity=63 time=0
EXTRACT: note_on channel=0 note=59 velocity=63 time=0
EXTRACT: note_on channel=0 note=55 velocity=63 time=0
EXTRACT: note_on channel=0 note=50 velocity=63 time=0
EXTRACT: note_on channel=0 note=45 velocity=63 time=0
EXTRACT: note_off channel=2 note=53 velocity=79 time=0
EXTRACT: note_on channel=2 note=56 velocity=79 time=0
EXTRACT: note_off channel=0 note=64 velocity=63 time=0.031249995833333332
EXTRACT: note_off channel=0 note=59 velocity=63 time=0
EXTRACT: note_off channel=0 note=55 velocity=63 time=0
EXTRACT: note_off channel=0 note=50 velocity=63 time=0
EXTRACT: note_off channel=0 note=45 velocity=63 time=0
EXTRACT: note_on channel=0 note=64 velocity=63 time=0.11298075416666667
EXTRACT: note_on channel=0 note=59 velocity=63 time=0
EXTRACT: note_on channel=0 note=55 velocity=63 time=0
EXTRACT: note_on channel=0 note=50 velocity=63 time=0
EXTRACT: note_on channel=0 note=45 velocity=63 time=0
EXTRACT: note_off channel=0 note=64 velocity=63 time=0.031249995833333332
EXTRACT: note_off channel=0 note=59 velocity=63 time=0
EXTRACT: note_off channel=0 note=55 velocity=63 time=0
EXTRACT: note_off channel=0 note=50 velocity=63 time=0
EXTRACT: note_off channel=0 note=45 velocity=63 time=0
EXTRACT: note_on channel=0 note=72 velocity=63 time=0.11298075416666667
EXTRACT: note_on channel=0 note=68 velocity=63 time=0
EXTRACT: note_on channel=0 note=65 velocity=63 time=0
EXTRACT: note_on channel=0 note=60 velocity=63 time=0
EXTRACT: note_on channel=0 note=53 velocity=63 time=0
EXTRACT: note_off channel=2 note=56 velocity=79 time=0
EXTRACT: note_on channel=2 note=51 velocity=79 time=0
EXTRACT: note_off channel=0 note=72 velocity=63 time=0.14423075
EXTRACT: note_off channel=0 note=68 velocity=63 time=0
EXTRACT: note_off channel=0 note=65 velocity=63 time=0
EXTRACT: note_off channel=0 note=60 velocity=63 time=0
EXTRACT: note_off channel=0 note=53 velocity=63 time=0
EXTRACT: note_on channel=0 note=72 velocity=63 time=0
EXTRACT: note_on channel=0 note=68 velocity=63 time=0
EXTRACT: note_on channel=0 note=65 velocity=63 time=0
EXTRACT: note_on channel=0 note=60 velocity=63 time=0
EXTRACT: note_on channel=0 note=53 velocity=63 time=0
EXTRACT: note_off channel=2 note=51 velocity=79 time=0
EXTRACT: note_on channel=2 note=53 velocity=54 time=0
EXTRACT: note_off channel=0 note=72 velocity=63 time=0.14423075
EXTRACT: note_off channel=0 note=68 velocity=63 time=0
EXTRACT: note_off channel=0 note=65 velocity=63 time=0
EXTRACT: note_off channel=0 note=60 velocity=63 time=0
EXTRACT: note_off channel=0 note=53 velocity=63 time=0
EXTRACT: note_on channel=0 note=64 velocity=63 time=0
EXTRACT: note_on channel=0 note=59 velocity=63 time=0
EXTRACT: note_on channel=0 note=55 velocity=63 time=0
EXTRACT: note_on channel=0 note=50 velocity=63 time=0
EXTRACT: note_on channel=0 note=45 velocity=63 time=0
EXTRACT: note_off channel=0 note=64 velocity=63 time=0.031249995833333332
EXTRACT: note_off channel=0 note=59 velocity=63 time=0
EXTRACT: note_off channel=0 note=55 velocity=63 time=0
EXTRACT: note_off channel=0 note=50 velocity=63 time=0
EXTRACT: note_off channel=0 note=45 velocity=63 time=0
EXTRACT: note_on channel=0 note=64 velocity=63 time=0.11298075416666667
EXTRACT: note_on channel=0 note=59 velocity=63 time=0
EXTRACT: note_on channel=0 note=55 velocity=63 time=0
EXTRACT: note_on channel=0 note=50 velocity=63 time=0
EXTRACT: note_on channel=0 note=45 velocity=63 time=0
EXTRACT: note_off channel=2 note=53 velocity=54 time=0
EXTRACT: note_on channel=2 note=56 velocity=79 time=0
EXTRACT: note_off channel=0 note=64 velocity=63 time=0.031249995833333332
EXTRACT: note_off channel=0 note=59 velocity=63 time=0
EXTRACT: note_off channel=0 note=55 velocity=63 time=0
EXTRACT: note_off channel=0 note=50 velocity=63 time=0
EXTRACT: note_off channel=0 note=45 velocity=63 time=0
EXTRACT: note_on channel=0 note=72 velocity=63 time=0.11298075416666667
EXTRACT: note_on channel=0 note=68 velocity=63 time=0
EXTRACT: note_on channel=0 note=65 velocity=63 time=0
EXTRACT: note_on channel=0 note=60 velocity=63 time=0
EXTRACT: note_on channel=0 note=53 velocity=63 time=0
EXTRACT: note_off channel=2 note=56 velocity=79 time=0
EXTRACT: note_off channel=0 note=72 velocity=63 time=0.14423075
EXTRACT: note_off channel=0 note=68 velocity=63 time=0
EXTRACT: note_off channel=0 note=65 velocity=63 time=0
EXTRACT: note_off channel=0 note=60 velocity=63 time=0
EXTRACT: note_off channel=0 note=53 velocity=63 time=0
EXTRACT: note_on channel=0 note=72 velocity=63 time=0
EXTRACT: note_on channel=0 note=68 velocity=63 time=0
EXTRACT: note_on channel=0 note=65 velocity=63 time=0
EXTRACT: note_on channel=0 note=60 velocity=63 time=0
EXTRACT: note_on channel=0 note=53 velocity=63 time=0
EXTRACT: note_off channel=0 note=72 velocity=63 time=0.14423075
EXTRACT: note_off channel=0 note=68 velocity=63 time=0
EXTRACT: note_off channel=0 note=65 velocity=63 time=0
EXTRACT: note_off channel=0 note=60 velocity=63 time=0
EXTRACT: note_off channel=0 note=53 velocity=63 time=0
EXTRACT: note_on channel=0 note=64 velocity=63 time=0
EXTRACT: note_on channel=0 note=59 velocity=63 time=0
EXTRACT: note_on channel=0 note=55 velocity=63 time=0
EXTRACT: note_on channel=0 note=50 velocity=63 time=0
EXTRACT: note_on channel=0 note=45 velocity=63 time=0
EXTRACT: note_on channel=2 note=51 velocity=79 time=0
EXTRACT: note_off channel=0 note=64 velocity=63 time=0.031249995833333332
EXTRACT: note_off channel=0 note=59 velocity=63 time=0
EXTRACT: note_off channel=0 note=55 velocity=63 time=0
EXTRACT: note_off channel=0 note=50 velocity=63 time=0
EXTRACT: note_off channel=0 note=45 velocity=63 time=0
EXTRACT: note_on channel=0 note=64 velocity=63 time=0.11298075416666667
EXTRACT: note_on channel=0 note=59 velocity=63 time=0
EXTRACT: note_on channel=0 note=55 velocity=63 time=0
EXTRACT: note_on channel=0 note=50 velocity=63 time=0
EXTRACT: note_on channel=0 note=45 velocity=63 time=0
EXTRACT: note_off channel=0 note=64 velocity=63 time=0.031249995833333332
EXTRACT: note_off channel=0 note=59 velocity=63 time=0
EXTRACT: note_off channel=0 note=55 velocity=63 time=0
EXTRACT: note_off channel=0 note=50 velocity=63 time=0
EXTRACT: note_off channel=0 note=45 velocity=63 time=0
EXTRACT: note_on channel=0 note=72 velocity=63 time=0.11298075416666667
EXTRACT: note_on channel=0 note=68 velocity=63 time=0
EXTRACT: note_on channel=0 note=65 velocity=63 time=0
EXTRACT: note_on channel=0 note=60 velocity=63 time=0
EXTRACT: note_on channel=0 note=53 velocity=63 time=0
EXTRACT: note_off channel=2 note=51 velocity=79 time=0
EXTRACT: note_off channel=0 note=72 velocity=63 time=0.14423075
EXTRACT: note_off channel=0 note=68 velocity=63 time=0
EXTRACT: note_off channel=0 note=65 velocity=63 time=0
EXTRACT: note_off channel=0 note=60 velocity=63 time=0
EXTRACT: note_off channel=0 note=53 velocity=63 time=0
EXTRACT: note_on channel=0 note=72 velocity=63 time=0
EXTRACT: note_on channel=0 note=68 velocity=63 time=0
EXTRACT: note_on channel=0 note=65 velocity=63 time=0
EXTRACT: note_on channel=0 note=60 velocity=63 time=0
EXTRACT: note_on channel=0 note=53 velocity=63 time=0
EXTRACT: note_off channel=0 note=72 velocity=63 time=0.14423075
EXTRACT: note_off channel=0 note=68 velocity=63 time=0
EXTRACT: note_off channel=0 note=65 velocity=63 time=0
EXTRACT: note_off channel=0 note=60 velocity=63 time=0
EXTRACT: note_off channel=0 note=53 velocity=63 time=0
EXTRACT: note_on channel=0 note=64 velocity=63 time=0
EXTRACT: note_on channel=0 note=59 velocity=63 time=0
EXTRACT: note_on channel=0 note=55 velocity=63 time=0
EXTRACT: note_on channel=0 note=50 velocity=63 time=0
EXTRACT: note_on channel=0 note=45 velocity=63 time=0
EXTRACT: note_on channel=2 note=48 velocity=79 time=0
EXTRACT: note_off channel=0 note=64 velocity=63 time=0.031249995833333332
EXTRACT: note_off channel=0 note=59 velocity=63 time=0
EXTRACT: note_off channel=0 note=55 velocity=63 time=0
EXTRACT: note_off channel=0 note=50 velocity=63 time=0
EXTRACT: note_off channel=0 note=45 velocity=63 time=0
EXTRACT: note_on channel=0 note=64 velocity=63 time=0.11298075416666667
EXTRACT: note_on channel=0 note=59 velocity=63 time=0
EXTRACT: note_on channel=0 note=55 velocity=63 time=0
EXTRACT: note_on channel=0 note=50 velocity=63 time=0
EXTRACT: note_on channel=0 note=45 velocity=63 time=0
EXTRACT: note_off channel=0 note=64 velocity=63 time=0.031249995833333332
EXTRACT: note_off channel=0 note=59 velocity=63 time=0
EXTRACT: note_off channel=0 note=55 velocity=63 time=0
EXTRACT: note_off channel=0 note=50 velocity=63 time=0
EXTRACT: note_off channel=0 note=45 velocity=63 time=0
EXTRACT: note_on channel=0 note=72 velocity=63 time=0.11298075416666667
EXTRACT: note_on channel=0 note=68 velocity=63 time=0
EXTRACT: note_on channel=0 note=65 velocity=63 time=0
EXTRACT: note_on channel=0 note=60 velocity=63 time=0
EXTRACT: note_on channel=0 note=53 velocity=63 time=0
EXTRACT: note_off channel=2 note=48 velocity=79 time=0
EXTRACT: note_on channel=2 note=46 velocity=79 time=0
EXTRACT: note_off channel=0 note=72 velocity=63 time=0.14423075
EXTRACT: note_off channel=0 note=68 velocity=63 time=0
EXTRACT: note_off channel=0 note=65 velocity=63 time=0
EXTRACT: note_off channel=0 note=60 velocity=63 time=0
EXTRACT: note_off channel=0 note=53 velocity=63 time=0
EXTRACT: note_on channel=0 note=72 velocity=63 time=0
EXTRACT: note_on channel=0 note=68 velocity=63 time=0
EXTRACT: note_on channel=0 note=65 velocity=63 time=0
EXTRACT: note_on channel=0 note=60 velocity=63 time=0
EXTRACT: note_on channel=0 note=53 velocity=63 time=0
EXTRACT: note_off channel=2 note=46 velocity=79 time=0
EXTRACT: note_on channel=2 note=48 velocity=54 time=0
EXTRACT: note_off channel=0 note=72 velocity=63 time=0.14423075
EXTRACT: note_off channel=0 note=68 velocity=63 time=0
EXTRACT: note_off channel=0 note=65 velocity=63 time=0
EXTRACT: note_off channel=0 note=60 velocity=63 time=0
EXTRACT: note_off channel=0 note=53 velocity=63 time=0
EXTRACT: note_on channel=0 note=64 velocity=63 time=0
EXTRACT: note_on channel=0 note=59 velocity=63 time=0
EXTRACT: note_on channel=0 note=55 velocity=63 time=0
EXTRACT: note_on channel=0 note=50 velocity=63 time=0
EXTRACT: note_on channel=0 note=45 velocity=63 time=0
EXTRACT: note_off channel=2 note=48 velocity=54 time=0
EXTRACT: note_on channel=2 note=51 velocity=79 time=0
EXTRACT: note_off channel=0 note=64 velocity=63 time=0.031249995833333332
EXTRACT: note_off channel=0 note=59 velocity=63 time=0
EXTRACT: note_off channel=0 note=55 velocity=63 time=0
EXTRACT: note_off channel=0 note=50 velocity=63 time=0
EXTRACT: note_off channel=0 note=45 velocity=63 time=0
EXTRACT: note_on channel=0 note=64 velocity=63 time=0.11298075416666667
EXTRACT: note_on channel=0 note=59 velocity=63 time=0
EXTRACT: note_on channel=0 note=55 velocity=63 time=0
EXTRACT: note_on channel=0 note=50 velocity=63 time=0
EXTRACT: note_on channel=0 note=45 velocity=63 time=0
EXTRACT: note_off channel=0 note=64 velocity=63 time=0.031249995833333332
EXTRACT: note_off channel=0 note=59 velocity=63 time=0
EXTRACT: note_off channel=0 note=55 velocity=63 time=0
EXTRACT: note_off channel=0 note=50 velocity=63 time=0
EXTRACT: note_off channel=0 note=45 velocity=63 time=0
EXTRACT: note_on channel=0 note=72 velocity=63 time=0.11298075416666667
EXTRACT: note_on channel=0 note=68 velocity=63 time=0
EXTRACT: note_on channel=0 note=65 velocity=63 time=0
EXTRACT: note_on channel=0 note=60 velocity=63 time=0
EXTRACT: note_on channel=0 note=53 velocity=63 time=0
EXTRACT: note_off channel=2 note=51 velocity=79 time=0
EXTRACT: note_on channel=2 note=46 velocity=79 time=0
EXTRACT: note_off channel=0 note=72 velocity=63 time=0.14423075
EXTRACT: note_off channel=0 note=68 velocity=63 time=0
EXTRACT: note_off channel=0 note=65 velocity=63 time=0
EXTRACT: note_off channel=0 note=60 velocity=63 time=0
EXTRACT: note_off channel=0 note=53 velocity=63 time=0
EXTRACT: note_on channel=0 note=72 velocity=63 time=0
EXTRACT: note_on channel=0 note=68 velocity=63 time=0
EXTRACT: note_on channel=0 note=65 velocity=63 time=0
EXTRACT: note_on channel=0 note=60 velocity=63 time=0
EXTRACT: note_on channel=0 note=53 velocity=63 time=0
EXTRACT: note_off channel=2 note=46 velocity=79 time=0
EXTRACT: note_on channel=2 note=48 velocity=54 time=0
EXTRACT: note_off channel=0 note=72 velocity=63 time=0.14423075
EXTRACT: note_off channel=0 note=68 velocity=63 time=0
EXTRACT: note_off channel=0 note=65 velocity=63 time=0
EXTRACT: note_off channel=0 note=60 velocity=63 time=0
EXTRACT: note_off channel=0 note=53 velocity=63 time=0
EXTRACT: note_on channel=0 note=64 velocity=63 time=0
EXTRACT: note_on channel=0 note=59 velocity=63 time=0
EXTRACT: note_on channel=0 note=55 velocity=63 time=0
EXTRACT: note_on channel=0 note=50 velocity=63 time=0
EXTRACT: note_on channel=0 note=45 velocity=63 time=0
EXTRACT: note_off channel=2 note=48 velocity=54 time=0
EXTRACT: note_on channel=2 note=51 velocity=79 time=0
EXTRACT: note_off channel=0 note=64 velocity=63 time=0.031249995833333332
EXTRACT: note_off channel=0 note=59 velocity=63 time=0
EXTRACT: note_off channel=0 note=55 velocity=63 time=0
EXTRACT: note_off channel=0 note=50 velocity=63 time=0
EXTRACT: note_off channel=0 note=45 velocity=63 time=0
EXTRACT: note_on channel=0 note=64 velocity=63 time=0.11298075416666667
EXTRACT: note_on channel=0 note=59 velocity=63 time=0
EXTRACT: note_on channel=0 note=55 velocity=63 time=0
EXTRACT: note_on channel=0 note=50 velocity=63 time=0
EXTRACT: note_on channel=0 note=45 velocity=63 time=0
EXTRACT: note_off channel=0 note=64 velocity=63 time=0.031249995833333332
EXTRACT: note_off channel=0 note=59 velocity=63 time=0
EXTRACT: note_off channel=0 note=55 velocity=63 time=0
EXTRACT: note_off channel=0 note=50 velocity=63 time=0
EXTRACT: note_off channel=0 note=45 velocity=63 time=0
EXTRACT: note_on channel=0 note=72 velocity=63 time=0.11298075416666667
EXTRACT: note_on channel=0 note=68 velocity=63 time=0
EXTRACT: note_on channel=0 note=65 velocity=63 time=0
EXTRACT: note_on channel=0 note=60 velocity=63 time=0
EXTRACT: note_on channel=0 note=53 velocity=63 time=0
EXTRACT: note_off channel=2 note=51 velocity=79 time=0
EXTRACT: note_off channel=0 note=72 velocity=63 time=0.14423075
EXTRACT: note_off channel=0 note=68 velocity=63 time=0
EXTRACT: note_off channel=0 note=65 velocity=63 time=0
EXTRACT: note_off channel=0 note=60 velocity=63 time=0
EXTRACT: note_off channel=0 note=53 velocity=63 time=0
EXTRACT: note_on channel=0 note=72 velocity=63 time=0
EXTRACT: note_on channel=0 note=68 velocity=63 time=0
EXTRACT: note_on channel=0 note=65 velocity=63 time=0
EXTRACT: note_on channel=0 note=60 velocity=63 time=0
EXTRACT: note_on channel=0 note=53 velocity=63 time=0
EXTRACT: note_on channel=2 note=45 velocity=79 time=0
EXTRACT: note_off channel=2 note=45 velocity=79 time=0.031249995833333332
EXTRACT: note_on channel=5 note=72 velocity=95 time=0.04086537916666667
EXTRACT: note_off channel=0 note=72 velocity=63 time=0.072115375
EXTRACT: note_off channel=0 note=68 velocity=63 time=0
EXTRACT: note_off channel=0 note=65 velocity=63 time=0
EXTRACT: note_off channel=0 note=60 velocity=63 time=0
EXTRACT: note_off channel=0 note=53 velocity=63 time=0
EXTRACT: note_on channel=0 note=64 velocity=63 time=0
EXTRACT: note_on channel=0 note=59 velocity=63 time=0
EXTRACT: note_on channel=0 note=55 velocity=63 time=0
EXTRACT: note_on channel=0 note=50 velocity=63 time=0
EXTRACT: note_on channel=0 note=45 velocity=63 time=0
EXTRACT: note_on channel=2 note=46 velocity=79 time=0
EXTRACT: note_off channel=4 note=72 velocity=95 time=0
EXTRACT: note_off channel=5 note=72 velocity=95 time=0
EXTRACT: note_on channel=5 note=72 velocity=95 time=0
EXTRACT: note_off channel=0 note=64 velocity=63 time=0.031249995833333332
EXTRACT: note_off channel=0 note=59 velocity=63 time=0
EXTRACT: note_off channel=0 note=55 velocity=63 time=0
EXTRACT: note_off channel=0 note=50 velocity=63 time=0
EXTRACT: note_off channel=0 note=45 velocity=63 time=0
EXTRACT: note_on channel=0 note=64 velocity=63 time=0.11298075416666667
EXTRACT: note_on channel=0 note=59 velocity=63 time=0
EXTRACT: note_on channel=0 note=55 velocity=63 time=0
EXTRACT: note_on channel=0 note=50 velocity=63 time=0
EXTRACT: note_on channel=0 note=45 velocity=63 time=0
EXTRACT: note_off channel=0 note=64 velocity=63 time=0.031249995833333332
EXTRACT: note_off channel=0 note=59 velocity=63 time=0
EXTRACT: note_off channel=0 note=55 velocity=63 time=0
EXTRACT: note_off channel=0 note=50 velocity=63 time=0
EXTRACT: note_off channel=0 note=45 velocity=63 time=0
EXTRACT: note_on channel=5 note=72 velocity=95 time=0.04086537916666667
EXTRACT: note_on channel=0 note=72 velocity=63 time=0.072115375
EXTRACT: note_on channel=0 note=68 velocity=63 time=0
EXTRACT: note_on channel=0 note=65 velocity=63 time=0
EXTRACT: note_on channel=0 note=60 velocity=63 time=0
EXTRACT: note_on channel=0 note=53 velocity=63 time=0
EXTRACT: note_off channel=2 note=46 velocity=79 time=0
EXTRACT: note_on channel=2 note=48 velocity=79 time=0
EXTRACT: note_off channel=5 note=72 velocity=95 time=0
EXTRACT: note_off channel=5 note=72 velocity=95 time=0
EXTRACT: note_on channel=5 note=72 velocity=95 time=0
EXTRACT: note_off channel=0 note=72 velocity=63 time=0.14423075
EXTRACT: note_off channel=0 note=68 velocity=63 time=0
EXTRACT: note_off channel=0 note=65 velocity=63 time=0
EXTRACT: note_off channel=0 note=60 velocity=63 time=0
EXTRACT: note_off channel=0 note=53 velocity=63 time=0
EXTRACT: note_on channel=0 note=72 velocity=63 time=0
EXTRACT: note_on channel=0 note=68 velocity=63 time=0
EXTRACT: note_on channel=0 note=65 velocity=63 time=0
EXTRACT: note_on channel=0 note=60 velocity=63 time=0
EXTRACT: note_on channel=0 note=53 velocity=63 time=0
EXTRACT: note_off channel=0 note=72 velocity=63 time=0.14423075
EXTRACT: note_off channel=0 note=68 velocity=63 time=0
EXTRACT: note_off channel=0 note=65 velocity=63 time=0
EXTRACT: note_off channel=0 note=60 velocity=63 time=0
EXTRACT: note_off channel=0 note=53 velocity=63 time=0
EXTRACT: note_on channel=0 note=64 velocity=63 time=0
EXTRACT: note_on channel=0 note=59 velocity=63 time=0
EXTRACT: note_on channel=0 note=55 velocity=63 time=0
EXTRACT: note_on channel=0 note=50 velocity=63 time=0
EXTRACT: note_on channel=0 note=45 velocity=63 time=0
EXTRACT: note_off channel=2 note=48 velocity=79 time=0
EXTRACT: note_on channel=2 note=51 velocity=79 time=0
EXTRACT: note_off channel=5 note=72 velocity=95 time=0
EXTRACT: note_on channel=4 note=70 velocity=95 time=0
EXTRACT: note_off channel=0 note=64 velocity=63 time=0.031249995833333332
EXTRACT: note_off channel=0 note=59 velocity=63 time=0
EXTRACT: note_off channel=0 note=55 velocity=63 time=0
EXTRACT: note_off channel=0 note=50 velocity=63 time=0
EXTRACT: note_off channel=0 note=45 velocity=63 time=0
EXTRACT: note_on channel=0 note=64 velocity=63 time=0.11298075416666667
EXTRACT: note_on channel=0 note=59 velocity=63 time=0
EXTRACT: note_on channel=0 note=55 velocity=63 time=0
EXTRACT: note_on channel=0 note=50 velocity=63 time=0
EXTRACT: note_on channel=0 note=45 velocity=63 time=0
EXTRACT: note_off channel=0 note=64 velocity=63 time=0.031249995833333332
EXTRACT: note_off channel=0 note=59 velocity=63 time=0
EXTRACT: note_off channel=0 note=55 velocity=63 time=0
EXTRACT: note_off channel=0 note=50 velocity=63 time=0
EXTRACT: note_off channel=0 note=45 velocity=63 time=0
EXTRACT: note_on channel=5 note=70 velocity=95 time=0.04086537916666667
EXTRACT: note_on channel=0 note=72 velocity=63 time=0.072115375
EXTRACT: note_on channel=0 note=68 velocity=63 time=0
EXTRACT: note_on channel=0 note=65 velocity=63 time=0
EXTRACT: note_on channel=0 note=60 velocity=63 time=0
EXTRACT: note_on channel=0 note=53 velocity=63 time=0
EXTRACT: note_off channel=2 note=51 velocity=79 time=0
EXTRACT: note_on channel=2 note=53 velocity=79 time=0
EXTRACT: note_off channel=4 note=70 velocity=95 time=0
EXTRACT: note_off channel=5 note=70 velocity=95 time=0
EXTRACT: note_on channel=5 note=70 velocity=95 time=0
EXTRACT: note_off channel=0 note=72 velocity=63 time=0.14423075
EXTRACT: note_off channel=0 note=68 velocity=63 time=0
EXTRACT: note_off channel=0 note=65 velocity=63 time=0
EXTRACT: note_off channel=0 note=60 velocity=63 time=0
EXTRACT: note_off channel=0 note=53 velocity=63 time=0
EXTRACT: note_on channel=0 note=72 velocity=63 time=0
EXTRACT: note_on channel=0 note=68 velocity=63 time=0
EXTRACT: note_on channel=0 note=65 velocity=63 time=0
EXTRACT: note_on channel=0 note=60 velocity=63 time=0
EXTRACT: note_on channel=0 note=53 velocity=63 time=0
EXTRACT: note_off channel=0 note=72 velocity=63 time=0.14423075
EXTRACT: note_off channel=0 note=68 velocity=63 time=0
EXTRACT: note_off channel=0 note=65 velocity=63 time=0
EXTRACT: note_off channel=0 note=60 velocity=63 time=0
EXTRACT: note_off channel=0 note=53 velocity=63 time=0
EXTRACT: note_on channel=0 note=64 velocity=63 time=0
EXTRACT: note_on channel=0 note=59 velocity=63 time=0
EXTRACT: note_on channel=0 note=55 velocity=63 time=0
EXTRACT: note_on channel=0 note=50 velocity=63 time=0
EXTRACT: note_on channel=0 note=45 velocity=63 time=0
EXTRACT: note_off channel=2 note=53 velocity=79 time=0
EXTRACT: note_on channel=2 note=56 velocity=79 time=0
EXTRACT: note_off channel=5 note=70 velocity=95 time=0
EXTRACT: note_on channel=4 note=68 velocity=95 time=0
EXTRACT: note_off channel=0 note=64 velocity=63 time=0.031249995833333332
EXTRACT: note_off channel=0 note=59 velocity=63 time=0
EXTRACT: note_off channel=0 note=55 velocity=63 time=0
EXTRACT: note_off channel=0 note=50 velocity=63 time=0
EXTRACT: note_off channel=0 note=45 velocity=63 time=0
EXTRACT: note_on channel=0 note=64 velocity=63 time=0.11298075416666667
EXTRACT: note_on channel=0 note=59 velocity=63 time=0
EXTRACT: note_on channel=0 note=55 velocity=63 time=0
EXTRACT: note_on channel=0 note=50 velocity=63 time=0
EXTRACT: note_on channel=0 note=45 velocity=63 time=0
EXTRACT: note_off channel=0 note=64 velocity=63 time=0.031249995833333332
EXTRACT: note_off channel=0 note=59 velocity=63 time=0
EXTRACT: note_off channel=0 note=55 velocity=63 time=0
EXTRACT: note_off channel=0 note=50 velocity=63 time=0
EXTRACT: note_off channel=0 note=45 velocity=63 time=0
EXTRACT: note_on channel=0 note=70 velocity=63 time=0.11298075416666667
EXTRACT: note_on channel=0 note=65 velocity=63 time=0
EXTRACT: note_on channel=0 note=62 velocity=63 time=0
EXTRACT: note_on channel=0 note=58 velocity=63 time=0
EXTRACT: note_on channel=0 note=53 velocity=63 time=0
EXTRACT: note_on channel=0 note=46 velocity=63 time=0
EXTRACT: note_off channel=2 note=56 velocity=79 time=0
EXTRACT: note_on channel=2 note=53 velocity=79 time=0
EXTRACT: note_off channel=4 note=68 velocity=95 time=0
EXTRACT: note_off channel=0 note=70 velocity=63 time=0.14423075
EXTRACT: note_off channel=0 note=65 velocity=63 time=0
EXTRACT: note_off channel=0 note=62 velocity=63 time=0
EXTRACT: note_off channel=0 note=58 velocity=63 time=0
EXTRACT: note_off channel=0 note=53 velocity=63 time=0
EXTRACT: note_off channel=0 note=46 velocity=63 time=0
EXTRACT: note_on channel=0 note=70 velocity=63 time=0
EXTRACT: note_on channel=0 note=65 velocity=63 time=0
EXTRACT: note_on channel=0 note=62 velocity=63 time=0
EXTRACT: note_on channel=0 note=58 velocity=63 time=0
EXTRACT: note_on channel=0 note=53 velocity=63 time=0
EXTRACT: note_on channel=0 note=46 velocity=63 time=0
EXTRACT: note_off channel=2 note=53 velocity=79 time=0
EXTRACT: note_off channel=0 note=70 velocity=63 time=0.14423075
EXTRACT: note_off channel=0 note=65 velocity=63 time=0
EXTRACT: note_off channel=0 note=62 velocity=63 time=0
EXTRACT: note_off channel=0 note=58 velocity=63 time=0
EXTRACT: note_off channel=0 note=53 velocity=63 time=0
EXTRACT: note_off channel=0 note=46 velocity=63 time=0
EXTRACT: note_on channel=0 note=64 velocity=63 time=0
EXTRACT: note_on channel=0 note=59 velocity=63 time=0
EXTRACT: note_on channel=0 note=55 velocity=63 time=0
EXTRACT: note_on channel=0 note=50 velocity=63 time=0
EXTRACT: note_on channel=0 note=45 velocity=63 time=0
EXTRACT: note_on channel=0 note=40 velocity=63 time=0
EXTRACT: note_on channel=2 note=58 velocity=79 time=0
EXTRACT: note_on channel=4 note=58 velocity=95 time=0
EXTRACT: note_off channel=0 note=64 velocity=63 time=0.031249995833333332
EXTRACT: note_off channel=0 note=59 velocity=63 time=0
EXTRACT: note_off channel=0 note=55 velocity=63 time=0
EXTRACT: note_off channel=0 note=50 velocity=63 time=0
EXTRACT: note_off channel=0 note=45 velocity=63 time=0
EXTRACT: note_off channel=0 note=40 velocity=63 time=0
EXTRACT: note_on channel=0 note=64 velocity=63 time=0.11298075416666667
EXTRACT: note_on channel=0 note=59 velocity=63 time=0
EXTRACT: note_on channel=0 note=55 velocity=63 time=0
EXTRACT: note_on channel=0 note=50 velocity=63 time=0
EXTRACT: note_on channel=0 note=45 velocity=63 time=0
EXTRACT: note_on channel=0 note=40 velocity=63 time=0
EXTRACT: note_off channel=2 note=58 velocity=79 time=0
EXTRACT: note_off channel=0 note=64 velocity=63 time=0.031249995833333332
EXTRACT: note_off channel=0 note=59 velocity=63 time=0
EXTRACT: note_off channel=0 note=55 velocity=63 time=0
EXTRACT: note_off channel=0 note=50 velocity=63 time=0
EXTRACT: note_off channel=0 note=45 velocity=63 time=0
EXTRACT: note_off channel=0 note=40 velocity=63 time=0
EXTRACT: note_on channel=0 note=70 velocity=63 time=0.11298075416666667
EXTRACT: note_on channel=0 note=65 velocity=63 time=0
EXTRACT: note_on channel=0 note=62 velocity=63 time=0
EXTRACT: note_on channel=0 note=58 velocity=63 time=0
EXTRACT: note_on channel=0 note=53 velocity=63 time=0
EXTRACT: note_on channel=0 note=46 velocity=63 time=0
EXTRACT: note_on channel=2 note=70 velocity=79 time=0
EXTRACT: note_on channel=2 note=65 velocity=79 time=0
EXTRACT: note_on channel=2 note=62 velocity=79 time=0
EXTRACT: note_off channel=4 note=58 velocity=95 time=0
EXTRACT: note_on channel=4 note=58 velocity=95 time=0
EXTRACT: note_off channel=0 note=70 velocity=63 time=0.14423075
EXTRACT: note_off channel=0 note=65 velocity=63 time=0
EXTRACT: note_off channel=0 note=62 velocity=63 time=0
EXTRACT: note_off channel=0 note=58 velocity=63 time=0
EXTRACT: note_off channel=0 note=53 velocity=63 time=0
EXTRACT: note_off channel=0 note=46 velocity=63 time=0
EXTRACT: note_on channel=0 note=70 velocity=63 time=0
EXTRACT: note_on channel=0 note=65 velocity=63 time=0
EXTRACT: note_on channel=0 note=62 velocity=63 time=0
EXTRACT: note_on channel=0 note=58 velocity=63 time=0
EXTRACT: note_on channel=0 note=53 velocity=63 time=0
EXTRACT: note_on channel=0 note=46 velocity=63 time=0
EXTRACT: note_off channel=2 note=70 velocity=79 time=0
EXTRACT: note_off channel=2 note=65 velocity=79 time=0
EXTRACT: note_off channel=2 note=62 velocity=79 time=0
EXTRACT: note_off channel=0 note=70 velocity=63 time=0.14423075
EXTRACT: note_off channel=0 note=65 velocity=63 time=0
EXTRACT: note_off channel=0 note=62 velocity=63 time=0
EXTRACT: note_off channel=0 note=58 velocity=63 time=0
EXTRACT: note_off channel=0 note=53 velocity=63 time=0
EXTRACT: note_off channel=0 note=46 velocity=63 time=0
EXTRACT: note_on channel=0 note=64 velocity=63 time=0
EXTRACT: note_on channel=0 note=59 velocity=63 time=0
EXTRACT: note_on channel=0 note=55 velocity=63 time=0
EXTRACT: note_on channel=0 note=50 velocity=63 time=0
EXTRACT: note_on channel=0 note=45 velocity=63 time=0
EXTRACT: note_on channel=0 note=40 velocity=63 time=0
EXTRACT: note_off channel=4 note=58 velocity=95 time=0
EXTRACT: note_on channel=4 note=56 velocity=95 time=0
EXTRACT: note_off channel=0 note=64 velocity=63 time=0.031249995833333332
EXTRACT: note_off channel=0 note=59 velocity=63 time=0
EXTRACT: note_off channel=0 note=55 velocity=63 time=0
EXTRACT: note_off channel=0 note=50 velocity=63 time=0
EXTRACT: note_off channel=0 note=45 velocity=63 time=0
EXTRACT: note_off channel=0 note=40 velocity=63 time=0
EXTRACT: note_on channel=0 note=64 velocity=63 time=0.11298075416666667
EXTRACT: note_on channel=0 note=59 velocity=63 time=0
EXTRACT: note_on channel=0 note=55 velocity=63 time=0
EXTRACT: note_on channel=0 note=50 velocity=63 time=0
EXTRACT: note_on channel=0 note=45 velocity=63 time=0
EXTRACT: note_on channel=0 note=40 velocity=63 time=0
EXTRACT: note_off channel=0 note=64 velocity=63 time=0.031249995833333332
EXTRACT: note_off channel=0 note=59 velocity=63 time=0
EXTRACT: note_off channel=0 note=55 velocity=63 time=0
EXTRACT: note_off channel=0 note=50 velocity=63 time=0
EXTRACT: note_off channel=0 note=45 velocity=63 time=0
EXTRACT: note_off channel=0 note=40 velocity=63 time=0
EXTRACT: note_on channel=5 note=60 velocity=95 time=0.04086537916666667
EXTRACT: note_on channel=0 note=70 velocity=63 time=0.072115375
EXTRACT: note_on channel=0 note=65 velocity=63 time=0
EXTRACT: note_on channel=0 note=62 velocity=63 time=0
EXTRACT: note_on channel=0 note=58 velocity=63 time=0
EXTRACT: note_on channel=0 note=53 velocity=63 time=0
EXTRACT: note_on channel=0 note=46 velocity=63 time=0
EXTRACT: note_off channel=4 note=56 velocity=95 time=0
EXTRACT: note_off channel=5 note=60 velocity=95 time=0
EXTRACT: note_on channel=5 note=60 velocity=95 time=0
EXTRACT: note_off channel=0 note=70 velocity=63 time=0.14423075
EXTRACT: note_off channel=0 note=65 velocity=63 time=0
EXTRACT: note_off channel=0 note=62 velocity=63 time=0
EXTRACT: note_off channel=0 note=58 velocity=63 time=0
EXTRACT: note_off channel=0 note=53 velocity=63 time=0
EXTRACT: note_off channel=0 note=46 velocity=63 time=0
EXTRACT: note_on channel=0 note=70 velocity=63 time=0
EXTRACT: note_on channel=0 note=65 velocity=63 time=0
EXTRACT: note_on channel=0 note=62 velocity=63 time=0
EXTRACT: note_on channel=0 note=58 velocity=63 time=0
EXTRACT: note_on channel=0 note=53 velocity=63 time=0
EXTRACT: note_on channel=0 note=46 velocity=63 time=0
EXTRACT: note_on channel=2 note=56 velocity=79 time=0
EXTRACT: note_off channel=0 note=70 velocity=63 time=0.14423075
EXTRACT: note_off channel=0 note=65 velocity=63 time=0
EXTRACT: note_off channel=0 note=62 velocity=63 time=0
EXTRACT: note_off channel=0 note=58 velocity=63 time=0
EXTRACT: note_off channel=0 note=53 velocity=63 time=0
EXTRACT: note_off channel=0 note=46 velocity=63 time=0
EXTRACT: note_on channel=0 note=64 velocity=63 time=0
EXTRACT: note_on channel=0 note=59 velocity=63 time=0
EXTRACT: note_on channel=0 note=55 velocity=63 time=0
EXTRACT: note_on channel=0 note=50 velocity=63 time=0
EXTRACT: note_on channel=0 note=45 velocity=63 time=0
EXTRACT: note_on channel=0 note=40 velocity=63 time=0
EXTRACT: note_off channel=2 note=56 velocity=79 time=0
EXTRACT: note_off channel=0 note=64 velocity=63 time=0.031249995833333332
EXTRACT: note_off channel=0 note=59 velocity=63 time=0
EXTRACT: note_off channel=0 note=55 velocity=63 time=0
EXTRACT: note_off channel=0 note=50 velocity=63 time=0
EXTRACT: note_off channel=0 note=45 velocity=63 time=0
EXTRACT: note_off channel=0 note=40 velocity=63 time=0
EXTRACT: note_on channel=0 note=64 velocity=63 time=0.11298075416666667
EXTRACT: note_on channel=0 note=59 velocity=63 time=0
EXTRACT: note_on channel=0 note=55 velocity=63 time=0
EXTRACT: note_on channel=0 note=50 velocity=63 time=0
EXTRACT: note_on channel=0 note=45 velocity=63 time=0
EXTRACT: note_on channel=0 note=40 velocity=63 time=0
EXTRACT: note_on channel=2 note=50 velocity=79 time=0
EXTRACT: note_off channel=5 note=60 velocity=95 time=0
EXTRACT: note_on channel=4 note=58 velocity=95 time=0
EXTRACT: note_off channel=0 note=64 velocity=63 time=0.031249995833333332
EXTRACT: note_off channel=0 note=59 velocity=63 time=0
EXTRACT: note_off channel=0 note=55 velocity=63 time=0
EXTRACT: note_off channel=0 note=50 velocity=63 time=0
EXTRACT: note_off channel=0 note=45 velocity=63 time=0
EXTRACT: note_off channel=0 note=40 velocity=63 time=0
EXTRACT: note_on channel=0 note=70 velocity=63 time=0.11298075416666667
EXTRACT: note_on channel=0 note=65 velocity=63 time=0
EXTRACT: note_on channel=0 note=62 velocity=63 time=0
EXTRACT: note_on channel=0 note=58 velocity=63 time=0
EXTRACT: note_on channel=0 note=53 velocity=63 time=0
EXTRACT: note_on channel=0 note=46 velocity=63 time=0
EXTRACT: note_off channel=2 note=50 velocity=79 time=0
EXTRACT: note_on channel=2 note=56 velocity=79 time=0
EXTRACT: note_off channel=0 note=70 velocity=63 time=0.14423075
EXTRACT: note_off channel=0 note=65 velocity=63 time=0
EXTRACT: note_off channel=0 note=62 velocity=63 time=0
EXTRACT: note_off channel=0 note=58 velocity=63 time=0
EXTRACT: note_off channel=0 note=53 velocity=63 time=0
EXTRACT: note_off channel=0 note=46 velocity=63 time=0
EXTRACT: note_on channel=0 note=70 velocity=63 time=0
EXTRACT: note_on channel=0 note=65 velocity=63 time=0
EXTRACT: note_on channel=0 note=62 velocity=63 time=0
EXTRACT: note_on channel=0 note=58 velocity=63 time=0
EXTRACT: note_on channel=0 note=53 velocity=63 time=0
EXTRACT: note_on channel=0 note=46 velocity=63 time=0
EXTRACT: note_off channel=4 note=58 velocity=95 time=0
EXTRACT: note_on channel=4 note=56 velocity=95 time=0
EXTRACT: note_off channel=0 note=70 velocity=63 time=0.14423075
EXTRACT: note_off channel=0 note=65 velocity=63 time=0
EXTRACT: note_off channel=0 note=62 velocity=63 time=0
EXTRACT: note_off channel=0 note=58 velocity=63 time=0
EXTRACT: note_off channel=0 note=53 velocity=63 time=0
EXTRACT: note_off channel=0 note=46 velocity=63 time=0
EXTRACT: note_on channel=0 note=64 velocity=63 time=0
EXTRACT: note_on channel=0 note=59 velocity=63 time=0
EXTRACT: note_on channel=0 note=55 velocity=63 time=0
EXTRACT: note_on channel=0 note=50 velocity=63 time=0
EXTRACT: note_on channel=0 note=45 velocity=63 time=0
EXTRACT: note_on channel=0 note=40 velocity=63 time=0
EXTRACT: note_off channel=2 note=56 velocity=79 time=0
EXTRACT: note_on channel=2 note=70 velocity=79 time=0
EXTRACT: note_on channel=2 note=65 velocity=79 time=0
EXTRACT: note_on channel=2 note=62 velocity=79 time=0
EXTRACT: note_off channel=4 note=56 velocity=95 time=0
EXTRACT: note_on channel=4 note=53 velocity=95 time=0
EXTRACT: note_off channel=0 note=64 velocity=63 time=0.031249995833333332
EXTRACT: note_off channel=0 note=59 velocity=63 time=0
EXTRACT: note_off channel=0 note=55 velocity=63 time=0
EXTRACT: note_off channel=0 note=50 velocity=63 time=0
EXTRACT: note_off channel=0 note=45 velocity=63 time=0
EXTRACT: note_off channel=0 note=40 velocity=63 time=0
EXTRACT: note_on channel=0 note=64 velocity=63 time=0.11298075416666667
EXTRACT: note_on channel=0 note=59 velocity=63 time=0
EXTRACT: note_on channel=0 note=55 velocity=63 time=0
EXTRACT: note_on channel=0 note=50 velocity=63 time=0
EXTRACT: note_on channel=0 note=45 velocity=63 time=0
EXTRACT: note_on channel=0 note=40 velocity=63 time=0
EXTRACT: note_off channel=2 note=70 velocity=79 time=0
EXTRACT: note_off channel=2 note=65 velocity=79 time=0
EXTRACT: note_off channel=2 note=62 velocity=79 time=0
EXTRACT: note_off channel=4 note=53 velocity=95 time=0
EXTRACT: note_off channel=0 note=64 velocity=63 time=0.031249995833333332
EXTRACT: note_off channel=0 note=59 velocity=63 time=0
EXTRACT: note_off channel=0 note=55 velocity=63 time=0
EXTRACT: note_off channel=0 note=50 velocity=63 time=0
EXTRACT: note_off channel=0 note=45 velocity=63 time=0
EXTRACT: note_off channel=0 note=40 velocity=63 time=0
EXTRACT: note_on channel=0 note=70 velocity=63 time=0.11298075416666667
EXTRACT: note_on channel=0 note=65 velocity=63 time=0
EXTRACT: note_on channel=0 note=62 velocity=63 time=0
EXTRACT: note_on channel=0 note=58 velocity=63 time=0
EXTRACT: note_on channel=0 note=53 velocity=63 time=0
EXTRACT: note_on channel=0 note=46 velocity=63 time=0
EXTRACT: note_on channel=2 note=53 velocity=79 time=0
EXTRACT: note_off channel=0 note=70 velocity=63 time=0.14423075
EXTRACT: note_off channel=0 note=65 velocity=63 time=0
EXTRACT: note_off channel=0 note=62 velocity=63 time=0
EXTRACT: note_off channel=0 note=58 velocity=63 time=0
EXTRACT: note_off channel=0 note=53 velocity=63 time=0
EXTRACT: note_off channel=0 note=46 velocity=63 time=0
EXTRACT: note_on channel=0 note=70 velocity=63 time=0
EXTRACT: note_on channel=0 note=65 velocity=63 time=0
EXTRACT: note_on channel=0 note=62 velocity=63 time=0
EXTRACT: note_on channel=0 note=58 velocity=63 time=0
EXTRACT: note_on channel=0 note=53 velocity=63 time=0
EXTRACT: note_on channel=0 note=46 velocity=63 time=0
EXTRACT: note_off channel=2 note=53 velocity=79 time=0
EXTRACT: note_off channel=0 note=70 velocity=63 time=0.14423075
EXTRACT: note_off channel=0 note=65 velocity=63 time=0
EXTRACT: note_off channel=0 note=62 velocity=63 time=0
EXTRACT: note_off channel=0 note=58 velocity=63 time=0
EXTRACT: note_off channel=0 note=53 velocity=63 time=0
EXTRACT: note_off channel=0 note=46 velocity=63 time=0
EXTRACT: note_on channel=0 note=64 velocity=63 time=0
EXTRACT: note_on channel=0 note=59 velocity=63 time=0
EXTRACT: note_on channel=0 note=55 velocity=63 time=0
EXTRACT: note_on channel=0 note=50 velocity=63 time=0
EXTRACT: note_on channel=0 note=45 velocity=63 time=0
EXTRACT: note_on channel=0 note=40 velocity=63 time=0
EXTRACT: note_on channel=2 note=58 velocity=79 time=0
EXTRACT: note_on channel=4 note=58 velocity=95 time=0
EXTRACT: note_off channel=0 note=64 velocity=63 time=0.031249995833333332
EXTRACT: note_off channel=0 note=59 velocity=63 time=0
EXTRACT: note_off channel=0 note=55 velocity=63 time=0
EXTRACT: note_off channel=0 note=50 velocity=63 time=0
EXTRACT: note_off channel=0 note=45 velocity=63 time=0
EXTRACT: note_off channel=0 note=40 velocity=63 time=0
EXTRACT: note_on channel=0 note=64 velocity=63 time=0.11298075416666667
EXTRACT: note_on channel=0 note=59 velocity=63 time=0
EXTRACT: note_on channel=0 note=55 velocity=63 time=0
EXTRACT: note_on channel=0 note=50 velocity=63 time=0
EXTRACT: note_on channel=0 note=45 velocity=63 time=0
EXTRACT: note_on channel=0 note=40 velocity=63 time=0
EXTRACT: note_off channel=2 note=58 velocity=79 time=0
EXTRACT: note_off channel=0 note=64 velocity=63 time=0.031249995833333332
EXTRACT: note_off channel=0 note=59 velocity=63 time=0
EXTRACT: note_off channel=0 note=55 velocity=63 time=0
EXTRACT: note_off channel=0 note=50 velocity=63 time=0
EXTRACT: note_off channel=0 note=45 velocity=63 time=0
EXTRACT: note_off channel=0 note=40 velocity=63 time=0
EXTRACT: note_on channel=0 note=70 velocity=63 time=0.11298075416666667
EXTRACT: note_on channel=0 note=65 velocity=63 time=0
EXTRACT: note_on channel=0 note=62 velocity=63 time=0
EXTRACT: note_on channel=0 note=58 velocity=63 time=0
EXTRACT: note_on channel=0 note=53 velocity=63 time=0
EXTRACT: note_on channel=0 note=46 velocity=63 time=0
EXTRACT: note_on channel=2 note=70 velocity=79 time=0
EXTRACT: note_on channel=2 note=65 velocity=79 time=0
EXTRACT: note_on channel=2 note=62 velocity=79 time=0
EXTRACT: note_off channel=4 note=58 velocity=95 time=0
EXTRACT: note_on channel=4 note=58 velocity=95 time=0
EXTRACT: note_off channel=0 note=70 velocity=63 time=0.14423075
EXTRACT: note_off channel=0 note=65 velocity=63 time=0
EXTRACT: note_off channel=0 note=62 velocity=63 time=0
EXTRACT: note_off channel=0 note=58 velocity=63 time=0
EXTRACT: note_off channel=0 note=53 velocity=63 time=0
EXTRACT: note_off channel=0 note=46 velocity=63 time=0
EXTRACT: note_on channel=0 note=70 velocity=63 time=0
EXTRACT: note_on channel=0 note=65 velocity=63 time=0
EXTRACT: note_on channel=0 note=62 velocity=63 time=0
EXTRACT: note_on channel=0 note=58 velocity=63 time=0
EXTRACT: note_on channel=0 note=53 velocity=63 time=0
EXTRACT: note_on channel=0 note=46 velocity=63 time=0
EXTRACT: note_off channel=2 note=70 velocity=79 time=0
EXTRACT: note_off channel=2 note=65 velocity=79 time=0
EXTRACT: note_off channel=2 note=62 velocity=79 time=0
EXTRACT: note_off channel=0 note=70 velocity=63 time=0.14423075
EXTRACT: note_off channel=0 note=65 velocity=63 time=0
EXTRACT: note_off channel=0 note=62 velocity=63 time=0
EXTRACT: note_off channel=0 note=58 velocity=63 time=0
EXTRACT: note_off channel=0 note=53 velocity=63 time=0
EXTRACT: note_off channel=0 note=46 velocity=63 time=0
EXTRACT: note_on channel=0 note=64 velocity=63 time=0
EXTRACT: note_on channel=0 note=59 velocity=63 time=0
EXTRACT: note_on channel=0 note=55 velocity=63 time=0
EXTRACT: note_on channel=0 note=50 velocity=63 time=0
EXTRACT: note_on channel=0 note=45 velocity=63 time=0
EXTRACT: note_on channel=0 note=40 velocity=63 time=0
EXTRACT: note_off channel=4 note=58 velocity=95 time=0
EXTRACT: note_on channel=4 note=56 velocity=95 time=0
EXTRACT: note_off channel=0 note=64 velocity=63 time=0.031249995833333332
EXTRACT: note_off channel=0 note=59 velocity=63 time=0
EXTRACT: note_off channel=0 note=55 velocity=63 time=0
EXTRACT: note_off channel=0 note=50 velocity=63 time=0
EXTRACT: note_off channel=0 note=45 velocity=63 time=0
EXTRACT: note_off channel=0 note=40 velocity=63 time=0
EXTRACT: note_on channel=0 note=64 velocity=63 time=0.11298075416666667
EXTRACT: note_on channel=0 note=59 velocity=63 time=0
EXTRACT: note_on channel=0 note=55 velocity=63 time=0
EXTRACT: note_on channel=0 note=50 velocity=63 time=0
EXTRACT: note_on channel=0 note=45 velocity=63 time=0
EXTRACT: note_on channel=0 note=40 velocity=63 time=0
EXTRACT: note_off channel=0 note=64 velocity=63 time=0.031249995833333332
EXTRACT: note_off channel=0 note=59 velocity=63 time=0
EXTRACT: note_off channel=0 note=55 velocity=63 time=0
EXTRACT: note_off channel=0 note=50 velocity=63 time=0
EXTRACT: note_off channel=0 note=45 velocity=63 time=0
EXTRACT: note_off channel=0 note=40 velocity=63 time=0
EXTRACT: note_on channel=0 note=70 velocity=63 time=0.11298075416666667
EXTRACT: note_on channel=0 note=65 velocity=63 time=0
EXTRACT: note_on channel=0 note=62 velocity=63 time=0
EXTRACT: note_on channel=0 note=58 velocity=63 time=0
EXTRACT: note_on channel=0 note=53 velocity=63 time=0
EXTRACT: note_on channel=0 note=46 velocity=63 time=0
EXTRACT: note_off channel=4 note=56 velocity=95 time=0
EXTRACT: note_on channel=4 note=60 velocity=95 time=0
EXTRACT: note_off channel=0 note=70 velocity=63 time=0.14423075
EXTRACT: note_off channel=0 note=65 velocity=63 time=0
EXTRACT: note_off channel=0 note=62 velocity=63 time=0
EXTRACT: note_off channel=0 note=58 velocity=63 time=0
EXTRACT: note_off channel=0 note=53 velocity=63 time=0
EXTRACT: note_off channel=0 note=46 velocity=63 time=0
EXTRACT: note_on channel=0 note=70 velocity=63 time=0
EXTRACT: note_on channel=0 note=65 velocity=63 time=0
EXTRACT: note_on channel=0 note=62 velocity=63 time=0
EXTRACT: note_on channel=0 note=58 velocity=63 time=0
EXTRACT: note_on channel=0 note=53 velocity=63 time=0
EXTRACT: note_on channel=0 note=46 velocity=63 time=0
EXTRACT: note_on channel=2 note=56 velocity=79 time=0
EXTRACT: note_off channel=0 note=70 velocity=63 time=0.14423075
EXTRACT: note_off channel=0 note=65 velocity=63 time=0
EXTRACT: note_off channel=0 note=62 velocity=63 time=0
EXTRACT: note_off channel=0 note=58 velocity=63 time=0
EXTRACT: note_off channel=0 note=53 velocity=63 time=0
EXTRACT: note_off channel=0 note=46 velocity=63 time=0
EXTRACT: note_on channel=0 note=64 velocity=63 time=0
EXTRACT: note_on channel=0 note=59 velocity=63 time=0
EXTRACT: note_on channel=0 note=55 velocity=63 time=0
EXTRACT: note_on channel=0 note=50 velocity=63 time=0
EXTRACT: note_on channel=0 note=45 velocity=63 time=0
EXTRACT: note_on channel=0 note=40 velocity=63 time=0
EXTRACT: note_off channel=2 note=56 velocity=79 time=0
EXTRACT: note_off channel=0 note=64 velocity=63 time=0.031249995833333332
EXTRACT: note_off channel=0 note=59 velocity=63 time=0
EXTRACT: note_off channel=0 note=55 velocity=63 time=0
EXTRACT: note_off channel=0 note=50 velocity=63 time=0
EXTRACT: note_off channel=0 note=45 velocity=63 time=0
EXTRACT: note_off channel=0 note=40 velocity=63 time=0
EXTRACT: note_on channel=0 note=64 velocity=63 time=0.11298075416666667
EXTRACT: note_on channel=0 note=59 velocity=63 time=0
EXTRACT: note_on channel=0 note=55 velocity=63 time=0
EXTRACT: note_on channel=0 note=50 velocity=63 time=0
EXTRACT: note_on channel=0 note=45 velocity=63 time=0
EXTRACT: note_on channel=0 note=40 velocity=63 time=0
EXTRACT: note_on channel=2 note=50 velocity=79 time=0
EXTRACT: note_off channel=4 note=60 velocity=95 time=0
EXTRACT: note_on channel=4 note=58 velocity=95 time=0
EXTRACT: note_off channel=0 note=64 velocity=63 time=0.031249995833333332
EXTRACT: note_off channel=0 note=59 velocity=63 time=0
EXTRACT: note_off channel=0 note=55 velocity=63 time=0
EXTRACT: note_off channel=0 note=50 velocity=63 time=0
EXTRACT: note_off channel=0 note=45 velocity=63 time=0
EXTRACT: note_off channel=0 note=40 velocity=63 time=0
EXTRACT: note_on channel=0 note=70 velocity=63 time=0.11298075416666667
EXTRACT: note_on channel=0 note=65 velocity=63 time=0
EXTRACT: note_on channel=0 note=62 velocity=63 time=0
EXTRACT: note_on channel=0 note=58 velocity=63 time=0
EXTRACT: note_on channel=0 note=53 velocity=63 time=0
EXTRACT: note_on channel=0 note=46 velocity=63 time=0
EXTRACT: note_off channel=2 note=50 velocity=79 time=0
EXTRACT: note_on channel=2 note=56 velocity=79 time=0
EXTRACT: note_off channel=0 note=70 velocity=63 time=0.14423075
EXTRACT: note_off channel=0 note=65 velocity=63 time=0
EXTRACT: note_off channel=0 note=62 velocity=63 time=0
EXTRACT: note_off channel=0 note=58 velocity=63 time=0
EXTRACT: note_off channel=0 note=53 velocity=63 time=0
EXTRACT: note_off channel=0 note=46 velocity=63 time=0
EXTRACT: note_on channel=0 note=70 velocity=63 time=0
EXTRACT: note_on channel=0 note=65 velocity=63 time=0
EXTRACT: note_on channel=0 note=62 velocity=63 time=0
EXTRACT: note_on channel=0 note=58 velocity=63 time=0
EXTRACT: note_on channel=0 note=53 velocity=63 time=0
EXTRACT: note_on channel=0 note=46 velocity=63 time=0
EXTRACT: note_off channel=4 note=58 velocity=95 time=0
EXTRACT: note_on channel=4 note=56 velocity=95 time=0
EXTRACT: note_off channel=0 note=70 velocity=63 time=0.14423075
EXTRACT: note_off channel=0 note=65 velocity=63 time=0
EXTRACT: note_off channel=0 note=62 velocity=63 time=0
EXTRACT: note_off channel=0 note=58 velocity=63 time=0
EXTRACT: note_off channel=0 note=53 velocity=63 time=0
EXTRACT: note_off channel=0 note=46 velocity=63 time=0
EXTRACT: note_on channel=0 note=64 velocity=63 time=0
EXTRACT: note_on channel=0 note=59 velocity=63 time=0
EXTRACT: note_on channel=0 note=55 velocity=63 time=0
EXTRACT: note_on channel=0 note=50 velocity=63 time=0
EXTRACT: note_on channel=0 note=45 velocity=63 time=0
EXTRACT: note_on channel=0 note=40 velocity=63 time=0
EXTRACT: note_off channel=2 note=56 velocity=79 time=0
EXTRACT: note_on channel=2 note=70 velocity=79 time=0
EXTRACT: note_on channel=2 note=65 velocity=79 time=0
EXTRACT: note_on channel=2 note=62 velocity=79 time=0
EXTRACT: note_off channel=4 note=56 velocity=95 time=0
EXTRACT: note_on channel=4 note=53 velocity=95 time=0
EXTRACT: note_off channel=0 note=64 velocity=63 time=0.031249995833333332
EXTRACT: note_off channel=0 note=59 velocity=63 time=0
EXTRACT: note_off channel=0 note=55 velocity=63 time=0
EXTRACT: note_off channel=0 note=50 velocity=63 time=0
EXTRACT: note_off channel=0 note=45 velocity=63 time=0
EXTRACT: note_off channel=0 note=40 velocity=63 time=0
EXTRACT: note_on channel=0 note=64 velocity=63 time=0.11298075416666667
EXTRACT: note_on channel=0 note=59 velocity=63 time=0
EXTRACT: note_on channel=0 note=55 velocity=63 time=0
EXTRACT: note_on channel=0 note=50 velocity=63 time=0
EXTRACT: note_on channel=0 note=45 velocity=63 time=0
EXTRACT: note_on channel=0 note=40 velocity=63 time=0
EXTRACT: note_off channel=2 note=70 velocity=79 time=0
EXTRACT: note_off channel=2 note=65 velocity=79 time=0
EXTRACT: note_off channel=2 note=62 velocity=79 time=0
EXTRACT: note_off channel=0 note=64 velocity=63 time=0.031249995833333332
EXTRACT: note_off channel=0 note=59 velocity=63 time=0
EXTRACT: note_off channel=0 note=55 velocity=63 time=0
EXTRACT: note_off channel=0 note=50 velocity=63 time=0
EXTRACT: note_off channel=0 note=45 velocity=63 time=0
EXTRACT: note_off channel=0 note=40 velocity=63 time=0
EXTRACT: note_on channel=0 note=70 velocity=63 time=0.11298075416666667
EXTRACT: note_on channel=0 note=65 velocity=63 time=0
EXTRACT: note_on channel=0 note=62 velocity=63 time=0
EXTRACT: note_on channel=0 note=58 velocity=63 time=0
EXTRACT: note_on channel=0 note=53 velocity=63 time=0
EXTRACT: note_on channel=0 note=46 velocity=63 time=0
EXTRACT: note_off channel=4 note=53 velocity=95 time=0
EXTRACT: note_off channel=0 note=70 velocity=63 time=0.14423075
EXTRACT: note_off channel=0 note=65 velocity=63 time=0
EXTRACT: note_off channel=0 note=62 velocity=63 time=0
EXTRACT: note_off channel=0 note=58 velocity=63 time=0
EXTRACT: note_off channel=0 note=53 velocity=63 time=0
EXTRACT: note_off channel=0 note=46 velocity=63 time=0
EXTRACT: note_on channel=0 note=70 velocity=63 time=0
EXTRACT: note_on channel=0 note=65 velocity=63 time=0
EXTRACT: note_on channel=0 note=62 velocity=63 time=0
EXTRACT: note_on channel=0 note=58 velocity=63 time=0
EXTRACT: note_on channel=0 note=53 velocity=63 time=0
EXTRACT: note_on channel=0 note=46 velocity=63 time=0
EXTRACT: note_off channel=0 note=70 velocity=63 time=0.14423075
EXTRACT: note_off channel=0 note=65 velocity=63 time=0
EXTRACT: note_off channel=0 note=62 velocity=63 time=0
EXTRACT: note_off channel=0 note=58 velocity=63 time=0
EXTRACT: note_off channel=0 note=53 velocity=63 time=0
EXTRACT: note_off channel=0 note=46 velocity=63 time=0
EXTRACT: note_on channel=0 note=64 velocity=63 time=0
EXTRACT: note_on channel=0 note=59 velocity=63 time=0
EXTRACT: note_on channel=0 note=55 velocity=63 time=0
EXTRACT: note_on channel=0 note=50 velocity=63 time=0
EXTRACT: note_on channel=0 note=45 velocity=63 time=0
EXTRACT: note_on channel=0 note=40 velocity=63 time=0
EXTRACT: note_on channel=2 note=58 velocity=79 time=0
EXTRACT: note_off channel=0 note=64 velocity=63 time=0.031249995833333332
EXTRACT: note_off channel=0 note=59 velocity=63 time=0
EXTRACT: note_off channel=0 note=55 velocity=63 time=0
EXTRACT: note_off channel=0 note=50 velocity=63 time=0
EXTRACT: note_off channel=0 note=45 velocity=63 time=0
EXTRACT: note_off channel=0 note=40 velocity=63 time=0
EXTRACT: note_on channel=0 note=64 velocity=63 time=0.11298075416666667
EXTRACT: note_on channel=0 note=59 velocity=63 time=0
EXTRACT: note_on channel=0 note=55 velocity=63 time=0
EXTRACT: note_on channel=0 note=50 velocity=63 time=0
EXTRACT: note_on channel=0 note=45 velocity=63 time=0
EXTRACT: note_on channel=0 note=40 velocity=63 time=0
EXTRACT: note_off channel=0 note=64 velocity=63 time=0.031249995833333332
EXTRACT: note_off channel=0 note=59 velocity=63 time=0
EXTRACT: note_off channel=0 note=55 velocity=63 time=0
EXTRACT: note_off channel=0 note=50 velocity=63 time=0
EXTRACT: note_off channel=0 note=45 velocity=63 time=0
EXTRACT: note_off channel=0 note=40 velocity=63 time=0
EXTRACT: note_on channel=0 note=70 velocity=63 time=0.11298075416666667
EXTRACT: note_on channel=0 note=65 velocity=63 time=0
EXTRACT: note_on channel=0 note=62 velocity=63 time=0
EXTRACT: note_on channel=0 note=58 velocity=63 time=0
EXTRACT: note_on channel=0 note=53 velocity=63 time=0
EXTRACT: note_on channel=0 note=46 velocity=63 time=0
EXTRACT: note_off channel=2 note=58 velocity=79 time=0
EXTRACT: note_off channel=0 note=70 velocity=63 time=0.14423075
EXTRACT: note_off channel=0 note=65 velocity=63 time=0
EXTRACT: note_off channel=0 note=62 velocity=63 time=0
EXTRACT: note_off channel=0 note=58 velocity=63 time=0
EXTRACT: note_off channel=0 note=53 velocity=63 time=0
EXTRACT: note_off channel=0 note=46 velocity=63 time=0
EXTRACT: note_on channel=0 note=70 velocity=63 time=0
EXTRACT: note_on channel=0 note=65 velocity=63 time=0
EXTRACT: note_on channel=0 note=62 velocity=63 time=0
EXTRACT: note_on channel=0 note=58 velocity=63 time=0
EXTRACT: note_on channel=0 note=53 velocity=63 time=0
EXTRACT: note_on channel=0 note=46 velocity=63 time=0
EXTRACT: note_off channel=0 note=70 velocity=63 time=0.14423075
EXTRACT: note_off channel=0 note=65 velocity=63 time=0
EXTRACT: note_off channel=0 note=62 velocity=63 time=0
EXTRACT: note_off channel=0 note=58 velocity=63 time=0
EXTRACT: note_off channel=0 note=53 velocity=63 time=0
EXTRACT: note_off channel=0 note=46 velocity=63 time=0
EXTRACT: note_on channel=0 note=64 velocity=63 time=0
EXTRACT: note_on channel=0 note=59 velocity=63 time=0
EXTRACT: note_on channel=0 note=55 velocity=63 time=0
EXTRACT: note_on channel=0 note=50 velocity=63 time=0
EXTRACT: note_on channel=0 note=45 velocity=63 time=0
EXTRACT: note_on channel=0 note=40 velocity=63 time=0
EXTRACT: note_on channel=4 note=58 velocity=95 time=0
EXTRACT: note_off channel=0 note=64 velocity=63 time=0.031249995833333332
EXTRACT: note_off channel=0 note=59 velocity=63 time=0
EXTRACT: note_off channel=0 note=55 velocity=63 time=0
EXTRACT: note_off channel=0 note=50 velocity=63 time=0
EXTRACT: note_off channel=0 note=45 velocity=63 time=0
EXTRACT: note_off channel=0 note=40 velocity=63 time=0
EXTRACT: note_on channel=0 note=64 velocity=63 time=0.11298075416666667
EXTRACT: note_on channel=0 note=59 velocity=63 time=0
EXTRACT: note_on channel=0 note=55 velocity=63 time=0
EXTRACT: note_on channel=0 note=50 velocity=63 time=0
EXTRACT: note_on channel=0 note=45 velocity=63 time=0
EXTRACT: note_on channel=0 note=40 velocity=63 time=0
EXTRACT: note_on channel=2 note=56 velocity=79 time=0
EXTRACT: note_off channel=4 note=58 velocity=95 time=0
EXTRACT: note_on channel=4 note=56 velocity=95 time=0
EXTRACT: note_off channel=0 note=64 velocity=63 time=0.031249995833333332
EXTRACT: note_off channel=0 note=59 velocity=63 time=0
EXTRACT: note_off channel=0 note=55 velocity=63 time=0
EXTRACT: note_off channel=0 note=50 velocity=63 time=0
EXTRACT: note_off channel=0 note=45 velocity=63 time=0
EXTRACT: note_off channel=0 note=40 velocity=63 time=0
EXTRACT: note_on channel=0 note=70 velocity=63 time=0.11298075416666667
EXTRACT: note_on channel=0 note=65 velocity=63 time=0
EXTRACT: note_on channel=0 note=62 velocity=63 time=0
EXTRACT: note_on channel=0 note=58 velocity=63 time=0
EXTRACT: note_on channel=0 note=53 velocity=63 time=0
EXTRACT: note_on channel=0 note=46 velocity=63 time=0
EXTRACT: note_off channel=2 note=56 velocity=79 time=0
EXTRACT: note_off channel=4 note=56 velocity=95 time=0
EXTRACT: note_on channel=4 note=58 velocity=95 time=0
EXTRACT: note_off channel=0 note=70 velocity=63 time=0.14423075
EXTRACT: note_off channel=0 note=65 velocity=63 time=0
EXTRACT: note_off channel=0 note=62 velocity=63 time=0
EXTRACT: note_off channel=0 note=58 velocity=63 time=0
EXTRACT: note_off channel=0 note=53 velocity=63 time=0
EXTRACT: note_off channel=0 note=46 velocity=63 time=0
EXTRACT: note_on channel=0 note=70 velocity=63 time=0
EXTRACT: note_on channel=0 note=65 velocity=63 time=0
EXTRACT: note_on channel=0 note=62 velocity=63 time=0
EXTRACT: note_on channel=0 note=58 velocity=63 time=0
EXTRACT: note_on channel=0 note=53 velocity=63 time=0
EXTRACT: note_on channel=0 note=46 velocity=63 time=0
EXTRACT: note_on channel=2 note=56 velocity=79 time=0
EXTRACT: note_off channel=0 note=70 velocity=63 time=0.14423075
EXTRACT: note_off channel=0 note=65 velocity=63 time=0
EXTRACT: note_off channel=0 note=62 velocity=63 time=0
EXTRACT: note_off channel=0 note=58 velocity=63 time=0
EXTRACT: note_off channel=0 note=53 velocity=63 time=0
EXTRACT: note_off channel=0 note=46 velocity=63 time=0
EXTRACT: note_on channel=0 note=64 velocity=63 time=0
EXTRACT: note_on channel=0 note=59 velocity=63 time=0
EXTRACT: note_on channel=0 note=55 velocity=63 time=0
EXTRACT: note_on channel=0 note=50 velocity=63 time=0
EXTRACT: note_on channel=0 note=45 velocity=63 time=0
EXTRACT: note_on channel=0 note=40 velocity=63 time=0
EXTRACT: note_off channel=2 note=56 velocity=79 time=0
EXTRACT: note_off channel=4 note=58 velocity=95 time=0
EXTRACT: note_on channel=4 note=56 velocity=95 time=0
EXTRACT: note_off channel=0 note=64 velocity=63 time=0.031249995833333332
EXTRACT: note_off channel=0 note=59 velocity=63 time=0
EXTRACT: note_off channel=0 note=55 velocity=63 time=0
EXTRACT: note_off channel=0 note=50 velocity=63 time=0
EXTRACT: note_off channel=0 note=45 velocity=63 time=0
EXTRACT: note_off channel=0 note=40 velocity=63 time=0
EXTRACT: note_on channel=0 note=64 velocity=63 time=0.11298075416666667
EXTRACT: note_on channel=0 note=59 velocity=63 time=0
EXTRACT: note_on channel=0 note=55 velocity=63 time=0
EXTRACT: note_on channel=0 note=50 velocity=63 time=0
EXTRACT: note_on channel=0 note=45 velocity=63 time=0
EXTRACT: note_on channel=0 note=40 velocity=63 time=0
EXTRACT: note_on channel=2 note=50 velocity=79 time=0
EXTRACT: note_off channel=4 note=56 velocity=95 time=0
EXTRACT: note_on channel=4 note=58 velocity=95 time=0
EXTRACT: note_off channel=0 note=64 velocity=63 time=0.031249995833333332
EXTRACT: note_off channel=0 note=59 velocity=63 time=0
EXTRACT: note_off channel=0 note=55 velocity=63 time=0
EXTRACT: note_off channel=0 note=50 velocity=63 time=0
EXTRACT: note_off channel=0 note=45 velocity=63 time=0
EXTRACT: note_off channel=0 note=40 velocity=63 time=0
EXTRACT: note_on channel=0 note=70 velocity=63 time=0.11298075416666667
EXTRACT: note_on channel=0 note=65 velocity=63 time=0
EXTRACT: note_on channel=0 note=62 velocity=63 time=0
EXTRACT: note_on channel=0 note=58 velocity=63 time=0
EXTRACT: note_on channel=0 note=53 velocity=63 time=0
EXTRACT: note_on channel=0 note=46 velocity=63 time=0
EXTRACT: note_off channel=2 note=50 velocity=79 time=0
EXTRACT: note_on channel=2 note=56 velocity=79 time=0
EXTRACT: note_off channel=0 note=70 velocity=63 time=0.14423075
EXTRACT: note_off channel=0 note=65 velocity=63 time=0
EXTRACT: note_off channel=0 note=62 velocity=63 time=0
EXTRACT: note_off channel=0 note=58 velocity=63 time=0
EXTRACT: note_off channel=0 note=53 velocity=63 time=0
EXTRACT: note_off channel=0 note=46 velocity=63 time=0
EXTRACT: note_on channel=0 note=70 velocity=63 time=0
EXTRACT: note_on channel=0 note=65 velocity=63 time=0
EXTRACT: note_on channel=0 note=62 velocity=63 time=0
EXTRACT: note_on channel=0 note=58 velocity=63 time=0
EXTRACT: note_on channel=0 note=53 velocity=63 time=0
EXTRACT: note_on channel=0 note=46 velocity=63 time=0
EXTRACT: note_off channel=4 note=58 velocity=95 time=0
EXTRACT: note_on channel=4 note=56 velocity=95 time=0
EXTRACT: note_off channel=0 note=70 velocity=63 time=0.14423075
EXTRACT: note_off channel=0 note=65 velocity=63 time=0
EXTRACT: note_off channel=0 note=62 velocity=63 time=0
EXTRACT: note_off channel=0 note=58 velocity=63 time=0
EXTRACT: note_off channel=0 note=53 velocity=63 time=0
EXTRACT: note_off channel=0 note=46 velocity=63 time=0
EXTRACT: note_on channel=0 note=64 velocity=63 time=0
EXTRACT: note_on channel=0 note=59 velocity=63 time=0
EXTRACT: note_on channel=0 note=55 velocity=63 time=0
EXTRACT: note_on channel=0 note=50 velocity=63 time=0
EXTRACT: note_on channel=0 note=45 velocity=63 time=0
EXTRACT: note_on channel=0 note=40 velocity=63 time=0
EXTRACT: note_off channel=2 note=56 velocity=79 time=0
EXTRACT: note_on channel=2 note=58 velocity=79 time=0
EXTRACT: note_off channel=4 note=56 velocity=95 time=0
EXTRACT: note_on channel=4 note=58 velocity=95 time=0
EXTRACT: note_off channel=0 note=64 velocity=63 time=0.031249995833333332
EXTRACT: note_off channel=0 note=59 velocity=63 time=0
EXTRACT: note_off channel=0 note=55 velocity=63 time=0
EXTRACT: note_off channel=0 note=50 velocity=63 time=0
EXTRACT: note_off channel=0 note=45 velocity=63 time=0
EXTRACT: note_off channel=0 note=40 velocity=63 time=0
EXTRACT: note_on channel=0 note=64 velocity=63 time=0.11298075416666667
EXTRACT: note_on channel=0 note=59 velocity=63 time=0
EXTRACT: note_on channel=0 note=55 velocity=63 time=0
EXTRACT: note_on channel=0 note=50 velocity=63 time=0
EXTRACT: note_on channel=0 note=45 velocity=63 time=0
EXTRACT: note_on channel=0 note=40 velocity=63 time=0
EXTRACT: note_off channel=2 note=58 velocity=79 time=0
EXTRACT: note_off channel=4 note=58 velocity=95 time=0
EXTRACT: note_on channel=4 note=56 velocity=95 time=0
EXTRACT: note_off channel=0 note=64 velocity=63 time=0.031249995833333332
EXTRACT: note_off channel=0 note=59 velocity=63 time=0
EXTRACT: note_off channel=0 note=55 velocity=63 time=0
EXTRACT: note_off channel=0 note=50 velocity=63 time=0
EXTRACT: note_off channel=0 note=45 velocity=63 time=0
EXTRACT: note_off channel=0 note=40 velocity=63 time=0
EXTRACT: note_on channel=0 note=72 velocity=63 time=0.11298075416666667
EXTRACT: note_on channel=0 note=68 velocity=63 time=0
EXTRACT: note_on channel=0 note=65 velocity=63 time=0
EXTRACT: note_on channel=0 note=60 velocity=63 time=0
EXTRACT: note_on channel=0 note=53 velocity=63 time=0
EXTRACT: note_on channel=2 note=51 velocity=79 time=0
EXTRACT: note_off channel=4 note=56 velocity=95 time=0
EXTRACT: note_on channel=4 note=53 velocity=95 time=0
EXTRACT: note_off channel=0 note=72 velocity=63 time=0.14423075
EXTRACT: note_off channel=0 note=68 velocity=63 time=0
EXTRACT: note_off channel=0 note=65 velocity=63 time=0
EXTRACT: note_off channel=0 note=60 velocity=63 time=0
EXTRACT: note_off channel=0 note=53 velocity=63 time=0
EXTRACT: note_on channel=0 note=72 velocity=63 time=0
EXTRACT: note_on channel=0 note=68 velocity=63 time=0
EXTRACT: note_on channel=0 note=65 velocity=63 time=0
EXTRACT: note_on channel=0 note=60 velocity=63 time=0
EXTRACT: note_on channel=0 note=53 velocity=63 time=0
EXTRACT: note_off channel=2 note=51 velocity=79 time=0
EXTRACT: note_on channel=2 note=53 velocity=54 time=0
EXTRACT: note_off channel=0 note=72 velocity=63 time=0.14423075
EXTRACT: note_off channel=0 note=68 velocity=63 time=0
EXTRACT: note_off channel=0 note=65 velocity=63 time=0
EXTRACT: note_off channel=0 note=60 velocity=63 time=0
EXTRACT: note_off channel=0 note=53 velocity=63 time=0
EXTRACT: note_on channel=0 note=64 velocity=63 time=0
EXTRACT: note_on channel=0 note=59 velocity=63 time=0
EXTRACT: note_on channel=0 note=55 velocity=63 time=0
EXTRACT: note_on channel=0 note=50 velocity=63 time=0
EXTRACT: note_on channel=0 note=45 velocity=63 time=0
EXTRACT: note_off channel=4 note=53 velocity=95 time=0
EXTRACT: note_on channel=6 note=68 velocity=95 time=0
EXTRACT: note_off channel=0 note=64 velocity=63 time=0.031249995833333332
EXTRACT: note_off channel=0 note=59 velocity=63 time=0
EXTRACT: note_off channel=0 note=55 velocity=63 time=0
EXTRACT: note_off channel=0 note=50 velocity=63 time=0
EXTRACT: note_off channel=0 note=45 velocity=63 time=0
EXTRACT: note_on channel=0 note=64 velocity=63 time=0.11298075416666667
EXTRACT: note_on channel=0 note=59 velocity=63 time=0
EXTRACT: note_on channel=0 note=55 velocity=63 time=0
EXTRACT: note_on channel=0 note=50 velocity=63 time=0
EXTRACT: note_on channel=0 note=45 velocity=63 time=0
EXTRACT: note_off channel=2 note=53 velocity=54 time=0
EXTRACT: note_on channel=2 note=56 velocity=79 time=0
EXTRACT: note_off channel=0 note=64 velocity=63 time=0.031249995833333332
EXTRACT: note_off channel=0 note=59 velocity=63 time=0
EXTRACT: note_off channel=0 note=55 velocity=63 time=0
EXTRACT: note_off channel=0 note=50 velocity=63 time=0
EXTRACT: note_off channel=0 note=45 velocity=63 time=0
EXTRACT: note_on channel=0 note=72 velocity=63 time=0.11298075416666667
EXTRACT: note_on channel=0 note=68 velocity=63 time=0
EXTRACT: note_on channel=0 note=65 velocity=63 time=0
EXTRACT: note_on channel=0 note=60 velocity=63 time=0
EXTRACT: note_on channel=0 note=53 velocity=63 time=0
EXTRACT: note_off channel=2 note=56 velocity=79 time=0
EXTRACT: note_off channel=0 note=72 velocity=63 time=0.14423075
EXTRACT: note_off channel=0 note=68 velocity=63 time=0
EXTRACT: note_off channel=0 note=65 velocity=63 time=0
EXTRACT: note_off channel=0 note=60 velocity=63 time=0
EXTRACT: note_off channel=0 note=53 velocity=63 time=0
EXTRACT: note_on channel=0 note=72 velocity=63 time=0
EXTRACT: note_on channel=0 note=68 velocity=63 time=0
EXTRACT: note_on channel=0 note=65 velocity=63 time=0
EXTRACT: note_on channel=0 note=60 velocity=63 time=0
EXTRACT: note_on channel=0 note=53 velocity=63 time=0
EXTRACT: note_off channel=0 note=72 velocity=63 time=0.14423075
EXTRACT: note_off channel=0 note=68 velocity=63 time=0
EXTRACT: note_off channel=0 note=65 velocity=63 time=0
EXTRACT: note_off channel=0 note=60 velocity=63 time=0
EXTRACT: note_off channel=0 note=53 velocity=63 time=0
EXTRACT: note_on channel=0 note=64 velocity=63 time=0
EXTRACT: note_on channel=0 note=59 velocity=63 time=0
EXTRACT: note_on channel=0 note=55 velocity=63 time=0
EXTRACT: note_on channel=0 note=50 velocity=63 time=0
EXTRACT: note_on channel=0 note=45 velocity=63 time=0
EXTRACT: note_on channel=2 note=51 velocity=79 time=0
EXTRACT: note_off channel=0 note=64 velocity=63 time=0.031249995833333332
EXTRACT: note_off channel=0 note=59 velocity=63 time=0
EXTRACT: note_off channel=0 note=55 velocity=63 time=0
EXTRACT: note_off channel=0 note=50 velocity=63 time=0
EXTRACT: note_off channel=0 note=45 velocity=63 time=0
EXTRACT: note_on channel=0 note=64 velocity=63 time=0.11298075416666667
EXTRACT: note_on channel=0 note=59 velocity=63 time=0
EXTRACT: note_on channel=0 note=55 velocity=63 time=0
EXTRACT: note_on channel=0 note=50 velocity=63 time=0
EXTRACT: note_on channel=0 note=45 velocity=63 time=0
EXTRACT: note_off channel=0 note=64 velocity=63 time=0.031249995833333332
EXTRACT: note_off channel=0 note=59 velocity=63 time=0
EXTRACT: note_off channel=0 note=55 velocity=63 time=0
EXTRACT: note_off channel=0 note=50 velocity=63 time=0
EXTRACT: note_off channel=0 note=45 velocity=63 time=0
EXTRACT: note_on channel=0 note=72 velocity=63 time=0.11298075416666667
EXTRACT: note_on channel=0 note=68 velocity=63 time=0
EXTRACT: note_on channel=0 note=65 velocity=63 time=0
EXTRACT: note_on channel=0 note=60 velocity=63 time=0
EXTRACT: note_on channel=0 note=53 velocity=63 time=0
EXTRACT: note_off channel=2 note=51 velocity=79 time=0
EXTRACT: note_off channel=0 note=72 velocity=63 time=0.14423075
EXTRACT: note_off channel=0 note=68 velocity=63 time=0
EXTRACT: note_off channel=0 note=65 velocity=63 time=0
EXTRACT: note_off channel=0 note=60 velocity=63 time=0
EXTRACT: note_off channel=0 note=53 velocity=63 time=0
EXTRACT: note_on channel=0 note=72 velocity=63 time=0
EXTRACT: note_on channel=0 note=68 velocity=63 time=0
EXTRACT: note_on channel=0 note=65 velocity=63 time=0
EXTRACT: note_on channel=0 note=60 velocity=63 time=0
EXTRACT: note_on channel=0 note=53 velocity=63 time=0
EXTRACT: note_off channel=0 note=72 velocity=63 time=0.14423075
EXTRACT: note_off channel=0 note=68 velocity=63 time=0
EXTRACT: note_off channel=0 note=65 velocity=63 time=0
EXTRACT: note_off channel=0 note=60 velocity=63 time=0
EXTRACT: note_off channel=0 note=53 velocity=63 time=0
EXTRACT: note_on channel=0 note=64 velocity=63 time=0
EXTRACT: note_on channel=0 note=59 velocity=63 time=0
EXTRACT: note_on channel=0 note=55 velocity=63 time=0
EXTRACT: note_on channel=0 note=50 velocity=63 time=0
EXTRACT: note_on channel=0 note=45 velocity=63 time=0
EXTRACT: note_on channel=2 note=48 velocity=79 time=0
EXTRACT: note_off channel=0 note=64 velocity=63 time=0.031249995833333332
EXTRACT: note_off channel=0 note=59 velocity=63 time=0
EXTRACT: note_off channel=0 note=55 velocity=63 time=0
EXTRACT: note_off channel=0 note=50 velocity=63 time=0
EXTRACT: note_off channel=0 note=45 velocity=63 time=0
EXTRACT: note_on channel=0 note=64 velocity=63 time=0.11298075416666667
EXTRACT: note_on channel=0 note=59 velocity=63 time=0
EXTRACT: note_on channel=0 note=55 velocity=63 time=0
EXTRACT: note_on channel=0 note=50 velocity=63 time=0
EXTRACT: note_on channel=0 note=45 velocity=63 time=0
EXTRACT: note_off channel=0 note=64 velocity=63 time=0.031249995833333332
EXTRACT: note_off channel=0 note=59 velocity=63 time=0
EXTRACT: note_off channel=0 note=55 velocity=63 time=0
EXTRACT: note_off channel=0 note=50 velocity=63 time=0
EXTRACT: note_off channel=0 note=45 velocity=63 time=0
EXTRACT: note_on channel=0 note=72 velocity=63 time=0.11298075416666667
EXTRACT: note_on channel=0 note=68 velocity=63 time=0
EXTRACT: note_on channel=0 note=65 velocity=63 time=0
EXTRACT: note_on channel=0 note=60 velocity=63 time=0
EXTRACT: note_on channel=0 note=53 velocity=63 time=0
EXTRACT: note_off channel=2 note=48 velocity=79 time=0
EXTRACT: note_on channel=2 note=46 velocity=79 time=0
EXTRACT: note_on channel=4 note=48 velocity=95 time=0
EXTRACT: note_off channel=0 note=72 velocity=63 time=0.14423075
EXTRACT: note_off channel=0 note=68 velocity=63 time=0
EXTRACT: note_off channel=0 note=65 velocity=63 time=0
EXTRACT: note_off channel=0 note=60 velocity=63 time=0
EXTRACT: note_off channel=0 note=53 velocity=63 time=0
EXTRACT: note_on channel=0 note=72 velocity=63 time=0
EXTRACT: note_on channel=0 note=68 velocity=63 time=0
EXTRACT: note_on channel=0 note=65 velocity=63 time=0
EXTRACT: note_on channel=0 note=60 velocity=63 time=0
EXTRACT: note_on channel=0 note=53 velocity=63 time=0
EXTRACT: note_off channel=2 note=46 velocity=79 time=0
EXTRACT: note_on channel=2 note=48 velocity=54 time=0
EXTRACT: note_off channel=0 note=72 velocity=63 time=0.14423075
EXTRACT: note_off channel=0 note=68 velocity=63 time=0
EXTRACT: note_off channel=0 note=65 velocity=63 time=0
EXTRACT: note_off channel=0 note=60 velocity=63 time=0
EXTRACT: note_off channel=0 note=53 velocity=63 time=0
EXTRACT: note_on channel=0 note=64 velocity=63 time=0
EXTRACT: note_on channel=0 note=59 velocity=63 time=0
EXTRACT: note_on channel=0 note=55 velocity=63 time=0
EXTRACT: note_on channel=0 note=50 velocity=63 time=0
EXTRACT: note_on channel=0 note=45 velocity=63 time=0
EXTRACT: note_off channel=2 note=48 velocity=54 time=0
EXTRACT: note_on channel=2 note=51 velocity=79 time=0
EXTRACT: note_off channel=4 note=48 velocity=95 time=0
EXTRACT: note_off channel=6 note=68 velocity=95 time=0
EXTRACT: note_off channel=0 note=64 velocity=63 time=0.031249995833333332
EXTRACT: note_off channel=0 note=59 velocity=63 time=0
EXTRACT: note_off channel=0 note=55 velocity=63 time=0
EXTRACT: note_off channel=0 note=50 velocity=63 time=0
EXTRACT: note_off channel=0 note=45 velocity=63 time=0
EXTRACT: note_on channel=0 note=64 velocity=63 time=0.11298075416666667
EXTRACT: note_on channel=0 note=59 velocity=63 time=0
EXTRACT: note_on channel=0 note=55 velocity=63 time=0
EXTRACT: note_on channel=0 note=50 velocity=63 time=0
EXTRACT: note_on channel=0 note=45 velocity=63 time=0
EXTRACT: note_on channel=6 note=75 velocity=95 time=0
EXTRACT: note_off channel=0 note=64 velocity=63 time=0.031249995833333332
EXTRACT: note_off channel=0 note=59 velocity=63 time=0
EXTRACT: note_off channel=0 note=55 velocity=63 time=0
EXTRACT: note_off channel=0 note=50 velocity=63 time=0
EXTRACT: note_off channel=0 note=45 velocity=63 time=0
EXTRACT: note_on channel=0 note=72 velocity=63 time=0.11298075416666667
EXTRACT: note_on channel=0 note=68 velocity=63 time=0
EXTRACT: note_on channel=0 note=65 velocity=63 time=0
EXTRACT: note_on channel=0 note=60 velocity=63 time=0
EXTRACT: note_on channel=0 note=53 velocity=63 time=0
EXTRACT: note_off channel=2 note=51 velocity=79 time=0
EXTRACT: note_on channel=2 note=46 velocity=79 time=0
EXTRACT: note_off channel=6 note=75 velocity=95 time=0
EXTRACT: note_on channel=6 note=77 velocity=95 time=0
EXTRACT: note_off channel=0 note=72 velocity=63 time=0.14423075
EXTRACT: note_off channel=0 note=68 velocity=63 time=0
EXTRACT: note_off channel=0 note=65 velocity=63 time=0
EXTRACT: note_off channel=0 note=60 velocity=63 time=0
EXTRACT: note_off channel=0 note=53 velocity=63 time=0
EXTRACT: note_on channel=0 note=72 velocity=63 time=0
EXTRACT: note_on channel=0 note=68 velocity=63 time=0
EXTRACT: note_on channel=0 note=65 velocity=63 time=0
EXTRACT: note_on channel=0 note=60 velocity=63 time=0
EXTRACT: note_on channel=0 note=53 velocity=63 time=0
EXTRACT: note_off channel=2 note=46 velocity=79 time=0
EXTRACT: note_on channel=2 note=48 velocity=54 time=0
EXTRACT: note_off channel=0 note=72 velocity=63 time=0.14423075
EXTRACT: note_off channel=0 note=68 velocity=63 time=0
EXTRACT: note_off channel=0 note=65 velocity=63 time=0
EXTRACT: note_off channel=0 note=60 velocity=63 time=0
EXTRACT: note_off channel=0 note=53 velocity=63 time=0
EXTRACT: note_on channel=0 note=64 velocity=63 time=0
EXTRACT: note_on channel=0 note=59 velocity=63 time=0
EXTRACT: note_on channel=0 note=55 velocity=63 time=0
EXTRACT: note_on channel=0 note=50 velocity=63 time=0
EXTRACT: note_on channel=0 note=45 velocity=63 time=0
EXTRACT: note_off channel=2 note=48 velocity=54 time=0
EXTRACT: note_on channel=2 note=51 velocity=79 time=0
EXTRACT: note_off channel=6 note=77 velocity=95 time=0
EXTRACT: note_on channel=6 note=75 velocity=95 time=0
EXTRACT: note_off channel=0 note=64 velocity=63 time=0.031249995833333332
EXTRACT: note_off channel=0 note=59 velocity=63 time=0
EXTRACT: note_off channel=0 note=55 velocity=63 time=0
EXTRACT: note_off channel=0 note=50 velocity=63 time=0
EXTRACT: note_off channel=0 note=45 velocity=63 time=0
EXTRACT: note_on channel=0 note=64 velocity=63 time=0.11298075416666667
EXTRACT: note_on channel=0 note=59 velocity=63 time=0
EXTRACT: note_on channel=0 note=55 velocity=63 time=0
EXTRACT: note_on channel=0 note=50 velocity=63 time=0
EXTRACT: note_on channel=0 note=45 velocity=63 time=0
EXTRACT: note_off channel=6 note=75 velocity=95 time=0
EXTRACT: note_off channel=0 note=64 velocity=63 time=0.031249995833333332
EXTRACT: note_off channel=0 note=59 velocity=63 time=0
EXTRACT: note_off channel=0 note=55 velocity=63 time=0
EXTRACT: note_off channel=0 note=50 velocity=63 time=0
EXTRACT: note_off channel=0 note=45 velocity=63 time=0
EXTRACT: note_on channel=0 note=72 velocity=63 time=0.11298075416666667
EXTRACT: note_on channel=0 note=68 velocity=63 time=0
EXTRACT: note_on channel=0 note=65 velocity=63 time=0
EXTRACT: note_on channel=0 note=60 velocity=63 time=0
EXTRACT: note_on channel=0 note=53 velocity=63 time=0
EXTRACT: note_off channel=2 note=51 velocity=79 time=0
EXTRACT: note_off channel=0 note=72 velocity=63 time=0.14423075
EXTRACT: note_off channel=0 note=68 velocity=63 time=0
EXTRACT: note_off channel=0 note=65 velocity=63 time=0
EXTRACT: note_off channel=0 note=60 velocity=63 time=0
EXTRACT: note_off channel=0 note=53 velocity=63 time=0
EXTRACT: note_on channel=0 note=72 velocity=63 time=0
EXTRACT: note_on channel=0 note=68 velocity=63 time=0
EXTRACT: note_on channel=0 note=65 velocity=63 time=0
EXTRACT: note_on channel=0 note=60 velocity=63 time=0
EXTRACT: note_on channel=0 note=53 velocity=63 time=0
EXTRACT: note_on channel=2 note=45 velocity=79 time=0
EXTRACT: note_off channel=2 note=45 velocity=79 time=0.031249995833333332
EXTRACT: note_on channel=7 note=72 velocity=95 time=0.04086537916666667
EXTRACT: note_off channel=0 note=72 velocity=63 time=0.072115375
EXTRACT: note_off channel=0 note=68 velocity=63 time=0
EXTRACT: note_off channel=0 note=65 velocity=63 time=0
EXTRACT: note_off channel=0 note=60 velocity=63 time=0
EXTRACT: note_off channel=0 note=53 velocity=63 time=0
EXTRACT: note_on channel=0 note=64 velocity=63 time=0
EXTRACT: note_on channel=0 note=59 velocity=63 time=0
EXTRACT: note_on channel=0 note=55 velocity=63 time=0
EXTRACT: note_on channel=0 note=50 velocity=63 time=0
EXTRACT: note_on channel=0 note=45 velocity=63 time=0
EXTRACT: note_on channel=2 note=46 velocity=79 time=0
EXTRACT: note_off channel=7 note=72 velocity=95 time=0
EXTRACT: note_on channel=7 note=72 velocity=95 time=0
EXTRACT: note_off channel=0 note=64 velocity=63 time=0.031249995833333332
EXTRACT: note_off channel=0 note=59 velocity=63 time=0
EXTRACT: note_off channel=0 note=55 velocity=63 time=0
EXTRACT: note_off channel=0 note=50 velocity=63 time=0
EXTRACT: note_off channel=0 note=45 velocity=63 time=0
EXTRACT: note_on channel=0 note=64 velocity=63 time=0.11298075416666667
EXTRACT: note_on channel=0 note=59 velocity=63 time=0
EXTRACT: note_on channel=0 note=55 velocity=63 time=0
EXTRACT: note_on channel=0 note=50 velocity=63 time=0
EXTRACT: note_on channel=0 note=45 velocity=63 time=0
EXTRACT: note_off channel=0 note=64 velocity=63 time=0.031249995833333332
EXTRACT: note_off channel=0 note=59 velocity=63 time=0
EXTRACT: note_off channel=0 note=55 velocity=63 time=0
EXTRACT: note_off channel=0 note=50 velocity=63 time=0
EXTRACT: note_off channel=0 note=45 velocity=63 time=0
EXTRACT: note_on channel=0 note=72 velocity=63 time=0.11298075416666667
EXTRACT: note_on channel=0 note=68 velocity=63 time=0
EXTRACT: note_on channel=0 note=65 velocity=63 time=0
EXTRACT: note_on channel=0 note=60 velocity=63 time=0
EXTRACT: note_on channel=0 note=53 velocity=63 time=0
EXTRACT: note_off channel=2 note=46 velocity=79 time=0
EXTRACT: note_on channel=2 note=48 velocity=79 time=0
EXTRACT: note_off channel=7 note=72 velocity=95 time=0
EXTRACT: note_on channel=6 note=70 velocity=95 time=0
EXTRACT: note_off channel=0 note=72 velocity=63 time=0.14423075
EXTRACT: note_off channel=0 note=68 velocity=63 time=0
EXTRACT: note_off channel=0 note=65 velocity=63 time=0
EXTRACT: note_off channel=0 note=60 velocity=63 time=0
EXTRACT: note_off channel=0 note=53 velocity=63 time=0
EXTRACT: note_on channel=0 note=72 velocity=63 time=0
EXTRACT: note_on channel=0 note=68 velocity=63 time=0
EXTRACT: note_on channel=0 note=65 velocity=63 time=0
EXTRACT: note_on channel=0 note=60 velocity=63 time=0
EXTRACT: note_on channel=0 note=53 velocity=63 time=0
EXTRACT: note_off channel=0 note=72 velocity=63 time=0.14423075
EXTRACT: note_off channel=0 note=68 velocity=63 time=0
EXTRACT: note_off channel=0 note=65 velocity=63 time=0
EXTRACT: note_off channel=0 note=60 velocity=63 time=0
EXTRACT: note_off channel=0 note=53 velocity=63 time=0
EXTRACT: note_on channel=0 note=64 velocity=63 time=0
EXTRACT: note_on channel=0 note=59 velocity=63 time=0
EXTRACT: note_on channel=0 note=55 velocity=63 time=0
EXTRACT: note_on channel=0 note=50 velocity=63 time=0
EXTRACT: note_on channel=0 note=45 velocity=63 time=0
EXTRACT: note_off channel=2 note=48 velocity=79 time=0
EXTRACT: note_on channel=2 note=51 velocity=79 time=0
EXTRACT: note_off channel=6 note=70 velocity=95 time=0
EXTRACT: note_on channel=6 note=68 velocity=95 time=0
EXTRACT: note_off channel=0 note=64 velocity=63 time=0.031249995833333332
EXTRACT: note_off channel=0 note=59 velocity=63 time=0
EXTRACT: note_off channel=0 note=55 velocity=63 time=0
EXTRACT: note_off channel=0 note=50 velocity=63 time=0
EXTRACT: note_off channel=0 note=45 velocity=63 time=0
EXTRACT: note_on channel=0 note=64 velocity=63 time=0.11298075416666667
EXTRACT: note_on channel=0 note=59 velocity=63 time=0
EXTRACT: note_on channel=0 note=55 velocity=63 time=0
EXTRACT: note_on channel=0 note=50 velocity=63 time=0
EXTRACT: note_on channel=0 note=45 velocity=63 time=0
EXTRACT: note_off channel=0 note=64 velocity=63 time=0.031249995833333332
EXTRACT: note_off channel=0 note=59 velocity=63 time=0
EXTRACT: note_off channel=0 note=55 velocity=63 time=0
EXTRACT: note_off channel=0 note=50 velocity=63 time=0
EXTRACT: note_off channel=0 note=45 velocity=63 time=0
EXTRACT: note_on channel=0 note=72 velocity=63 time=0.11298075416666667
EXTRACT: note_on channel=0 note=68 velocity=63 time=0
EXTRACT: note_on channel=0 note=65 velocity=63 time=0
EXTRACT: note_on channel=0 note=60 velocity=63 time=0
EXTRACT: note_on channel=0 note=53 velocity=63 time=0
EXTRACT: note_off channel=2 note=51 velocity=79 time=0
EXTRACT: note_on channel=2 note=53 velocity=79 time=0
EXTRACT: note_off channel=6 note=68 velocity=95 time=0
EXTRACT: note_on channel=6 note=72 velocity=95 time=0
EXTRACT: note_off channel=0 note=72 velocity=63 time=0.14423075
EXTRACT: note_off channel=0 note=68 velocity=63 time=0
EXTRACT: note_off channel=0 note=65 velocity=63 time=0
EXTRACT: note_off channel=0 note=60 velocity=63 time=0
EXTRACT: note_off channel=0 note=53 velocity=63 time=0
EXTRACT: note_on channel=0 note=72 velocity=63 time=0
EXTRACT: note_on channel=0 note=68 velocity=63 time=0
EXTRACT: note_on channel=0 note=65 velocity=63 time=0
EXTRACT: note_on channel=0 note=60 velocity=63 time=0
EXTRACT: note_on channel=0 note=53 velocity=63 time=0
EXTRACT: note_off channel=0 note=72 velocity=63 time=0.14423075
EXTRACT: note_off channel=0 note=68 velocity=63 time=0
EXTRACT: note_off channel=0 note=65 velocity=63 time=0
EXTRACT: note_off channel=0 note=60 velocity=63 time=0
EXTRACT: note_off channel=0 note=53 velocity=63 time=0
EXTRACT: note_on channel=0 note=64 velocity=63 time=0
EXTRACT: note_on channel=0 note=59 velocity=63 time=0
EXTRACT: note_on channel=0 note=55 velocity=63 time=0
EXTRACT: note_on channel=0 note=50 velocity=63 time=0
EXTRACT: note_on channel=0 note=45 velocity=63 time=0
EXTRACT: note_off channel=2 note=53 velocity=79 time=0
EXTRACT: note_on channel=2 note=56 velocity=79 time=0
EXTRACT: note_off channel=6 note=72 velocity=95 time=0
EXTRACT: note_on channel=6 note=70 velocity=95 time=0
EXTRACT: note_off channel=0 note=64 velocity=63 time=0.031249995833333332
EXTRACT: note_off channel=0 note=59 velocity=63 time=0
EXTRACT: note_off channel=0 note=55 velocity=63 time=0
EXTRACT: note_off channel=0 note=50 velocity=63 time=0
EXTRACT: note_off channel=0 note=45 velocity=63 time=0
EXTRACT: note_on channel=0 note=64 velocity=63 time=0.11298075416666667
EXTRACT: note_on channel=0 note=59 velocity=63 time=0
EXTRACT: note_on channel=0 note=55 velocity=63 time=0
EXTRACT: note_on channel=0 note=50 velocity=63 time=0
EXTRACT: note_on channel=0 note=45 velocity=63 time=0
EXTRACT: note_off channel=0 note=64 velocity=63 time=0.031249995833333332
EXTRACT: note_off channel=0 note=59 velocity=63 time=0
EXTRACT: note_off channel=0 note=55 velocity=63 time=0
EXTRACT: note_off channel=0 note=50 velocity=63 time=0
EXTRACT: note_off channel=0 note=45 velocity=63 time=0
EXTRACT: note_on channel=0 note=70 velocity=63 time=0.11298075416666667
EXTRACT: note_on channel=0 note=65 velocity=63 time=0
EXTRACT: note_on channel=0 note=62 velocity=63 time=0
EXTRACT: note_on channel=0 note=58 velocity=63 time=0
EXTRACT: note_on channel=0 note=53 velocity=63 time=0
EXTRACT: note_on channel=0 note=46 velocity=63 time=0
EXTRACT: note_off channel=2 note=56 velocity=79 time=0
EXTRACT: note_on channel=2 note=53 velocity=79 time=0
EXTRACT: note_off channel=6 note=70 velocity=95 time=0
EXTRACT: note_off channel=0 note=70 velocity=63 time=0.14423075
EXTRACT: note_off channel=0 note=65 velocity=63 time=0
EXTRACT: note_off channel=0 note=62 velocity=63 time=0
EXTRACT: note_off channel=0 note=58 velocity=63 time=0
EXTRACT: note_off channel=0 note=53 velocity=63 time=0
EXTRACT: note_off channel=0 note=46 velocity=63 time=0
EXTRACT: note_on channel=0 note=70 velocity=63 time=0
EXTRACT: note_on channel=0 note=65 velocity=63 time=0
EXTRACT: note_on channel=0 note=62 velocity=63 time=0
EXTRACT: note_on channel=0 note=58 velocity=63 time=0
EXTRACT: note_on channel=0 note=53 velocity=63 time=0
EXTRACT: note_on channel=0 note=46 velocity=63 time=0
EXTRACT: note_off channel=2 note=53 velocity=79 time=0
EXTRACT: note_off channel=0 note=70 velocity=63 time=0.14423075
EXTRACT: note_off channel=0 note=65 velocity=63 time=0
EXTRACT: note_off channel=0 note=62 velocity=63 time=0
EXTRACT: note_off channel=0 note=58 velocity=63 time=0
EXTRACT: note_off channel=0 note=53 velocity=63 time=0
EXTRACT: note_off channel=0 note=46 velocity=63 time=0
EXTRACT: note_on channel=0 note=64 velocity=63 time=0
EXTRACT: note_on channel=0 note=59 velocity=63 time=0
EXTRACT: note_on channel=0 note=55 velocity=63 time=0
EXTRACT: note_on channel=0 note=50 velocity=63 time=0
EXTRACT: note_on channel=0 note=45 velocity=63 time=0
EXTRACT: note_on channel=0 note=40 velocity=63 time=0
EXTRACT: note_on channel=2 note=58 velocity=79 time=0
EXTRACT: note_on channel=4 note=58 velocity=95 time=0
EXTRACT: note_off channel=0 note=64 velocity=63 time=0.031249995833333332
EXTRACT: note_off channel=0 note=59 velocity=63 time=0
EXTRACT: note_off channel=0 note=55 velocity=63 time=0
EXTRACT: note_off channel=0 note=50 velocity=63 time=0
EXTRACT: note_off channel=0 note=45 velocity=63 time=0
EXTRACT: note_off channel=0 note=40 velocity=63 time=0
EXTRACT: note_on channel=0 note=64 velocity=63 time=0.11298075416666667
EXTRACT: note_on channel=0 note=59 velocity=63 time=0
EXTRACT: note_on channel=0 note=55 velocity=63 time=0
EXTRACT: note_on channel=0 note=50 velocity=63 time=0
EXTRACT: note_on channel=0 note=45 velocity=63 time=0
EXTRACT: note_on channel=0 note=40 velocity=63 time=0
EXTRACT: note_off channel=2 note=58 velocity=79 time=0
EXTRACT: note_off channel=0 note=64 velocity=63 time=0.031249995833333332
EXTRACT: note_off channel=0 note=59 velocity=63 time=0
EXTRACT: note_off channel=0 note=55 velocity=63 time=0
EXTRACT: note_off channel=0 note=50 velocity=63 time=0
EXTRACT: note_off channel=0 note=45 velocity=63 time=0
EXTRACT: note_off channel=0 note=40 velocity=63 time=0
EXTRACT: note_on channel=0 note=70 velocity=63 time=0.11298075416666667
EXTRACT: note_on channel=0 note=65 velocity=63 time=0
EXTRACT: note_on channel=0 note=62 velocity=63 time=0
EXTRACT: note_on channel=0 note=58 velocity=63 time=0
EXTRACT: note_on channel=0 note=53 velocity=63 time=0
EXTRACT: note_on channel=0 note=46 velocity=63 time=0
EXTRACT: note_on channel=2 note=70 velocity=79 time=0
EXTRACT: note_on channel=2 note=65 velocity=79 time=0
EXTRACT: note_on channel=2 note=62 velocity=79 time=0
EXTRACT: note_off channel=4 note=58 velocity=95 time=0
EXTRACT: note_on channel=4 note=58 velocity=95 time=0
EXTRACT: note_off channel=0 note=70 velocity=63 time=0.14423075
EXTRACT: note_off channel=0 note=65 velocity=63 time=0
EXTRACT: note_off channel=0 note=62 velocity=63 time=0
EXTRACT: note_off channel=0 note=58 velocity=63 time=0
EXTRACT: note_off channel=0 note=53 velocity=63 time=0
EXTRACT: note_off channel=0 note=46 velocity=63 time=0
EXTRACT: note_on channel=0 note=70 velocity=63 time=0
EXTRACT: note_on channel=0 note=65 velocity=63 time=0
EXTRACT: note_on channel=0 note=62 velocity=63 time=0
EXTRACT: note_on channel=0 note=58 velocity=63 time=0
EXTRACT: note_on channel=0 note=53 velocity=63 time=0
EXTRACT: note_on channel=0 note=46 velocity=63 time=0
EXTRACT: note_off channel=2 note=70 velocity=79 time=0
EXTRACT: note_off channel=2 note=65 velocity=79 time=0
EXTRACT: note_off channel=2 note=62 velocity=79 time=0
EXTRACT: note_off channel=0 note=70 velocity=63 time=0.14423075
EXTRACT: note_off channel=0 note=65 velocity=63 time=0
EXTRACT: note_off channel=0 note=62 velocity=63 time=0
EXTRACT: note_off channel=0 note=58 velocity=63 time=0
EXTRACT: note_off channel=0 note=53 velocity=63 time=0
EXTRACT: note_off channel=0 note=46 velocity=63 time=0
EXTRACT: note_on channel=0 note=64 velocity=63 time=0
EXTRACT: note_on channel=0 note=59 velocity=63 time=0
EXTRACT: note_on channel=0 note=55 velocity=63 time=0
EXTRACT: note_on channel=0 note=50 velocity=63 time=0
EXTRACT: note_on channel=0 note=45 velocity=63 time=0
EXTRACT: note_on channel=0 note=40 velocity=63 time=0
EXTRACT: note_off channel=4 note=58 velocity=95 time=0
EXTRACT: note_on channel=4 note=56 velocity=95 time=0
EXTRACT: note_off channel=0 note=64 velocity=63 time=0.031249995833333332
EXTRACT: note_off channel=0 note=59 velocity=63 time=0
EXTRACT: note_off channel=0 note=55 velocity=63 time=0
EXTRACT: note_off channel=0 note=50 velocity=63 time=0
EXTRACT: note_off channel=0 note=45 velocity=63 time=0
EXTRACT: note_off channel=0 note=40 velocity=63 time=0
EXTRACT: note_on channel=0 note=64 velocity=63 time=0.11298075416666667
EXTRACT: note_on channel=0 note=59 velocity=63 time=0
EXTRACT: note_on channel=0 note=55 velocity=63 time=0
EXTRACT: note_on channel=0 note=50 velocity=63 time=0
EXTRACT: note_on channel=0 note=45 velocity=63 time=0
EXTRACT: note_on channel=0 note=40 velocity=63 time=0
EXTRACT: note_off channel=0 note=64 velocity=63 time=0.031249995833333332
EXTRACT: note_off channel=0 note=59 velocity=63 time=0
EXTRACT: note_off channel=0 note=55 velocity=63 time=0
EXTRACT: note_off channel=0 note=50 velocity=63 time=0
EXTRACT: note_off channel=0 note=45 velocity=63 time=0
EXTRACT: note_off channel=0 note=40 velocity=63 time=0
EXTRACT: note_on channel=5 note=60 velocity=95 time=0.04086537916666667
EXTRACT: note_on channel=0 note=70 velocity=47 time=0.072115375
EXTRACT: note_on channel=0 note=65 velocity=47 time=0
EXTRACT: note_on channel=0 note=62 velocity=47 time=0
EXTRACT: note_on channel=0 note=58 velocity=47 time=0
EXTRACT: note_on channel=0 note=53 velocity=47 time=0
EXTRACT: note_on channel=0 note=46 velocity=47 time=0
EXTRACT: note_off channel=4 note=56 velocity=95 time=0
EXTRACT: note_off channel=5 note=60 velocity=95 time=0
EXTRACT: note_on channel=5 note=60 velocity=79 time=0
EXTRACT: note_off channel=0 note=70 velocity=47 time=0.14423075
EXTRACT: note_off channel=0 note=65 velocity=47 time=0
EXTRACT: note_off channel=0 note=62 velocity=47 time=0
EXTRACT: note_off channel=0 note=58 velocity=47 time=0
EXTRACT: note_off channel=0 note=53 velocity=47 time=0
EXTRACT: note_off channel=0 note=46 velocity=47 time=0
EXTRACT: note_on channel=0 note=70 velocity=47 time=0
EXTRACT: note_on channel=0 note=65 velocity=47 time=0
EXTRACT: note_on channel=0 note=62 velocity=47 time=0
EXTRACT: note_on channel=0 note=58 velocity=47 time=0
EXTRACT: note_on channel=0 note=53 velocity=47 time=0
EXTRACT: note_on channel=0 note=46 velocity=47 time=0
EXTRACT: note_on channel=2 note=56 velocity=63 time=0
EXTRACT: note_off channel=0 note=70 velocity=47 time=0.14423075
EXTRACT: note_off channel=0 note=65 velocity=47 time=0
EXTRACT: note_off channel=0 note=62 velocity=47 time=0
EXTRACT: note_off channel=0 note=58 velocity=47 time=0
EXTRACT: note_off channel=0 note=53 velocity=47 time=0
EXTRACT: note_off channel=0 note=46 velocity=47 time=0
EXTRACT: note_on channel=0 note=64 velocity=47 time=0
EXTRACT: note_on channel=0 note=59 velocity=47 time=0
EXTRACT: note_on channel=0 note=55 velocity=47 time=0
EXTRACT: note_on channel=0 note=50 velocity=47 time=0
EXTRACT: note_on channel=0 note=45 velocity=47 time=0
EXTRACT: note_on channel=0 note=40 velocity=47 time=0
EXTRACT: note_off channel=2 note=56 velocity=63 time=0
EXTRACT: note_off channel=0 note=64 velocity=47 time=0.031249995833333332
EXTRACT: note_off channel=0 note=59 velocity=47 time=0
EXTRACT: note_off channel=0 note=55 velocity=47 time=0
EXTRACT: note_off channel=0 note=50 velocity=47 time=0
EXTRACT: note_off channel=0 note=45 velocity=47 time=0
EXTRACT: note_off channel=0 note=40 velocity=47 time=0
EXTRACT: note_on channel=0 note=64 velocity=47 time=0.11298075416666667
EXTRACT: note_on channel=0 note=59 velocity=47 time=0
EXTRACT: note_on channel=0 note=55 velocity=47 time=0
EXTRACT: note_on channel=0 note=50 velocity=47 time=0
EXTRACT: note_on channel=0 note=45 velocity=47 time=0
EXTRACT: note_on channel=0 note=40 velocity=47 time=0
EXTRACT: note_on channel=2 note=50 velocity=63 time=0
EXTRACT: note_off channel=5 note=60 velocity=79 time=0
EXTRACT: note_on channel=4 note=58 velocity=79 time=0
EXTRACT: note_off channel=0 note=64 velocity=47 time=0.031249995833333332
EXTRACT: note_off channel=0 note=59 velocity=47 time=0
EXTRACT: note_off channel=0 note=55 velocity=47 time=0
EXTRACT: note_off channel=0 note=50 velocity=47 time=0
EXTRACT: note_off channel=0 note=45 velocity=47 time=0
EXTRACT: note_off channel=0 note=40 velocity=47 time=0
EXTRACT: note_on channel=0 note=70 velocity=47 time=0.11298075416666667
EXTRACT: note_on channel=0 note=65 velocity=47 time=0
EXTRACT: note_on channel=0 note=62 velocity=47 time=0
EXTRACT: note_on channel=0 note=58 velocity=47 time=0
EXTRACT: note_on channel=0 note=53 velocity=47 time=0
EXTRACT: note_on channel=0 note=46 velocity=47 time=0
EXTRACT: note_off channel=2 note=50 velocity=63 time=0
EXTRACT: note_on channel=2 note=56 velocity=63 time=0
EXTRACT: note_off channel=0 note=70 velocity=47 time=0.14423075
EXTRACT: note_off channel=0 note=65 velocity=47 time=0
EXTRACT: note_off channel=0 note=62 velocity=47 time=0
EXTRACT: note_off channel=0 note=58 velocity=47 time=0
EXTRACT: note_off channel=0 note=53 velocity=47 time=0
EXTRACT: note_off channel=0 note=46 velocity=47 time=0
EXTRACT: note_on channel=0 note=70 velocity=47 time=0
EXTRACT: note_on channel=0 note=65 velocity=47 time=0
EXTRACT: note_on channel=0 note=62 velocity=47 time=0
EXTRACT: note_on channel=0 note=58 velocity=47 time=0
EXTRACT: note_on channel=0 note=53 velocity=47 time=0
EXTRACT: note_on channel=0 note=46 velocity=47 time=0
EXTRACT: note_off channel=4 note=58 velocity=79 time=0
EXTRACT: note_on channel=4 note=56 velocity=79 time=0
EXTRACT: note_off channel=0 note=70 velocity=47 time=0.14423075
EXTRACT: note_off channel=0 note=65 velocity=47 time=0
EXTRACT: note_off channel=0 note=62 velocity=47 time=0
EXTRACT: note_off channel=0 note=58 velocity=47 time=0
EXTRACT: note_off channel=0 note=53 velocity=47 time=0
EXTRACT: note_off channel=0 note=46 velocity=47 time=0
EXTRACT: note_on channel=0 note=64 velocity=47 time=0
EXTRACT: note_on channel=0 note=59 velocity=47 time=0
EXTRACT: note_on channel=0 note=55 velocity=47 time=0
EXTRACT: note_on channel=0 note=50 velocity=47 time=0
EXTRACT: note_on channel=0 note=45 velocity=47 time=0
EXTRACT: note_on channel=0 note=40 velocity=47 time=0
EXTRACT: note_off channel=2 note=56 velocity=63 time=0
EXTRACT: note_on channel=2 note=70 velocity=63 time=0
EXTRACT: note_on channel=2 note=65 velocity=63 time=0
EXTRACT: note_on channel=2 note=62 velocity=63 time=0
EXTRACT: note_off channel=4 note=56 velocity=79 time=0
EXTRACT: note_on channel=4 note=53 velocity=79 time=0
EXTRACT: note_off channel=0 note=64 velocity=47 time=0.031249995833333332
EXTRACT: note_off channel=0 note=59 velocity=47 time=0
EXTRACT: note_off channel=0 note=55 velocity=47 time=0
EXTRACT: note_off channel=0 note=50 velocity=47 time=0
EXTRACT: note_off channel=0 note=45 velocity=47 time=0
EXTRACT: note_off channel=0 note=40 velocity=47 time=0
EXTRACT: note_on channel=0 note=64 velocity=47 time=0.11298075416666667
EXTRACT: note_on channel=0 note=59 velocity=47 time=0
EXTRACT: note_on channel=0 note=55 velocity=47 time=0
EXTRACT: note_on channel=0 note=50 velocity=47 time=0
EXTRACT: note_on channel=0 note=45 velocity=47 time=0
EXTRACT: note_on channel=0 note=40 velocity=47 time=0
EXTRACT: note_off channel=2 note=70 velocity=63 time=0
EXTRACT: note_off channel=2 note=65 velocity=63 time=0
EXTRACT: note_off channel=2 note=62 velocity=63 time=0
EXTRACT: note_off channel=4 note=53 velocity=79 time=0
EXTRACT: note_off channel=0 note=64 velocity=47 time=0.031249995833333332
EXTRACT: note_off channel=0 note=59 velocity=47 time=0
EXTRACT: note_off channel=0 note=55 velocity=47 time=0
EXTRACT: note_off channel=0 note=50 velocity=47 time=0
EXTRACT: note_off channel=0 note=45 velocity=47 time=0
EXTRACT: note_off channel=0 note=40 velocity=47 time=0
EXTRACT: note_on channel=0 note=70 velocity=47 time=0.11298075416666667
EXTRACT: note_on channel=0 note=65 velocity=47 time=0
EXTRACT: note_on channel=0 note=62 velocity=47 time=0
EXTRACT: note_on channel=0 note=58 velocity=47 time=0
EXTRACT: note_on channel=0 note=53 velocity=47 time=0
EXTRACT: note_on channel=0 note=46 velocity=47 time=0
EXTRACT: note_off channel=0 note=70 velocity=47 time=0.14423075
EXTRACT: note_off channel=0 note=65 velocity=47 time=0
EXTRACT: note_off channel=0 note=62 velocity=47 time=0
EXTRACT: note_off channel=0 note=58 velocity=47 time=0
EXTRACT: note_off channel=0 note=53 velocity=47 time=0
EXTRACT: note_off channel=0 note=46 velocity=47 time=0
EXTRACT: note_on channel=0 note=70 velocity=47 time=0
EXTRACT: note_on channel=0 note=65 velocity=47 time=0
EXTRACT: note_on channel=0 note=62 velocity=47 time=0
EXTRACT: note_on channel=0 note=58 velocity=47 time=0
EXTRACT: note_on channel=0 note=53 velocity=47 time=0
EXTRACT: note_on channel=0 note=46 velocity=47 time=0
EXTRACT: note_off channel=0 note=70 velocity=47 time=0.14423075
EXTRACT: note_off channel=0 note=65 velocity=47 time=0
EXTRACT: note_off channel=0 note=62 velocity=47 time=0
EXTRACT: note_off channel=0 note=58 velocity=47 time=0
EXTRACT: note_off channel=0 note=53 velocity=47 time=0
EXTRACT: note_off channel=0 note=46 velocity=47 time=0
EXTRACT: note_on channel=0 note=64 velocity=47 time=0
EXTRACT: note_on channel=0 note=59 velocity=47 time=0
EXTRACT: note_on channel=0 note=55 velocity=47 time=0
EXTRACT: note_on channel=0 note=50 velocity=47 time=0
EXTRACT: note_on channel=0 note=45 velocity=47 time=0
EXTRACT: note_on channel=0 note=40 velocity=47 time=0
EXTRACT: note_on channel=2 note=58 velocity=63 time=0
EXTRACT: note_off channel=0 note=64 velocity=47 time=0.031249995833333332
EXTRACT: note_off channel=0 note=59 velocity=47 time=0
EXTRACT: note_off channel=0 note=55 velocity=47 time=0
EXTRACT: note_off channel=0 note=50 velocity=47 time=0
EXTRACT: note_off channel=0 note=45 velocity=47 time=0
EXTRACT: note_off channel=0 note=40 velocity=47 time=0
EXTRACT: note_on channel=0 note=64 velocity=47 time=0.11298075416666667
EXTRACT: note_on channel=0 note=59 velocity=47 time=0
EXTRACT: note_on channel=0 note=55 velocity=47 time=0
EXTRACT: note_on channel=0 note=50 velocity=47 time=0
EXTRACT: note_on channel=0 note=45 velocity=47 time=0
EXTRACT: note_on channel=0 note=40 velocity=47 time=0
EXTRACT: note_off channel=0 note=64 velocity=47 time=0.031249995833333332
EXTRACT: note_off channel=0 note=59 velocity=47 time=0
EXTRACT: note_off channel=0 note=55 velocity=47 time=0
EXTRACT: note_off channel=0 note=50 velocity=47 time=0
EXTRACT: note_off channel=0 note=45 velocity=47 time=0
EXTRACT: note_off channel=0 note=40 velocity=47 time=0
EXTRACT: note_on channel=0 note=70 velocity=47 time=0.11298075416666667
EXTRACT: note_on channel=0 note=65 velocity=47 time=0
EXTRACT: note_on channel=0 note=62 velocity=47 time=0
EXTRACT: note_on channel=0 note=58 velocity=47 time=0
EXTRACT: note_on channel=0 note=53 velocity=47 time=0
EXTRACT: note_on channel=0 note=46 velocity=47 time=0
EXTRACT: note_off channel=2 note=58 velocity=63 time=0
EXTRACT: note_off channel=0 note=70 velocity=47 time=0.14423075
EXTRACT: note_off channel=0 note=65 velocity=47 time=0
EXTRACT: note_off channel=0 note=62 velocity=47 time=0
EXTRACT: note_off channel=0 note=58 velocity=47 time=0
EXTRACT: note_off channel=0 note=53 velocity=47 time=0
EXTRACT: note_off channel=0 note=46 velocity=47 time=0
EXTRACT: note_on channel=0 note=70 velocity=47 time=0
EXTRACT: note_on channel=0 note=65 velocity=47 time=0
EXTRACT: note_on channel=0 note=62 velocity=47 time=0
EXTRACT: note_on channel=0 note=58 velocity=47 time=0
EXTRACT: note_on channel=0 note=53 velocity=47 time=0
EXTRACT: note_on channel=0 note=46 velocity=47 time=0
EXTRACT: note_off channel=0 note=70 velocity=47 time=0.14423075
EXTRACT: note_off channel=0 note=65 velocity=47 time=0
EXTRACT: note_off channel=0 note=62 velocity=47 time=0
EXTRACT: note_off channel=0 note=58 velocity=47 time=0
EXTRACT: note_off channel=0 note=53 velocity=47 time=0
EXTRACT: note_off channel=0 note=46 velocity=47 time=0
EXTRACT: note_on channel=0 note=64 velocity=47 time=0
EXTRACT: note_on channel=0 note=59 velocity=47 time=0
EXTRACT: note_on channel=0 note=55 velocity=47 time=0
EXTRACT: note_on channel=0 note=50 velocity=47 time=0
EXTRACT: note_on channel=0 note=45 velocity=47 time=0
EXTRACT: note_on channel=0 note=40 velocity=47 time=0
EXTRACT: note_on channel=4 note=58 velocity=79 time=0
EXTRACT: note_off channel=0 note=64 velocity=47 time=0.031249995833333332
EXTRACT: note_off channel=0 note=59 velocity=47 time=0
EXTRACT: note_off channel=0 note=55 velocity=47 time=0
EXTRACT: note_off channel=0 note=50 velocity=47 time=0
EXTRACT: note_off channel=0 note=45 velocity=47 time=0
EXTRACT: note_off channel=0 note=40 velocity=47 time=0
EXTRACT: note_on channel=0 note=64 velocity=47 time=0.11298075416666667
EXTRACT: note_on channel=0 note=59 velocity=47 time=0
EXTRACT: note_on channel=0 note=55 velocity=47 time=0
EXTRACT: note_on channel=0 note=50 velocity=47 time=0
EXTRACT: note_on channel=0 note=45 velocity=47 time=0
EXTRACT: note_on channel=0 note=40 velocity=47 time=0
EXTRACT: note_on channel=2 note=56 velocity=63 time=0
EXTRACT: note_off channel=4 note=58 velocity=79 time=0
EXTRACT: note_on channel=4 note=56 velocity=63 time=0
EXTRACT: note_off channel=0 note=64 velocity=47 time=0.031249995833333332
EXTRACT: note_off channel=0 note=59 velocity=47 time=0
EXTRACT: note_off channel=0 note=55 velocity=47 time=0
EXTRACT: note_off channel=0 note=50 velocity=47 time=0
EXTRACT: note_off channel=0 note=45 velocity=47 time=0
EXTRACT: note_off channel=0 note=40 velocity=47 time=0
EXTRACT: note_on channel=0 note=70 velocity=47 time=0.11298075416666667
EXTRACT: note_on channel=0 note=65 velocity=47 time=0
EXTRACT: note_on channel=0 note=62 velocity=47 time=0
EXTRACT: note_on channel=0 note=58 velocity=47 time=0
EXTRACT: note_on channel=0 note=53 velocity=47 time=0
EXTRACT: note_on channel=0 note=46 velocity=47 time=0
EXTRACT: note_off channel=2 note=56 velocity=63 time=0
EXTRACT: note_off channel=4 note=56 velocity=63 time=0
EXTRACT: note_on channel=4 note=58 velocity=63 time=0
EXTRACT: note_off channel=0 note=70 velocity=47 time=0.14423075
EXTRACT: note_off channel=0 note=65 velocity=47 time=0
EXTRACT: note_off channel=0 note=62 velocity=47 time=0
EXTRACT: note_off channel=0 note=58 velocity=47 time=0
EXTRACT: note_off channel=0 note=53 velocity=47 time=0
EXTRACT: note_off channel=0 note=46 velocity=47 time=0
EXTRACT: note_on channel=0 note=70 velocity=47 time=0
EXTRACT: note_on channel=0 note=65 velocity=47 time=0
EXTRACT: note_on channel=0 note=62 velocity=47 time=0
EXTRACT: note_on channel=0 note=58 velocity=47 time=0
EXTRACT: note_on channel=0 note=53 velocity=47 time=0
EXTRACT: note_on channel=0 note=46 velocity=47 time=0
EXTRACT: note_on channel=2 note=56 velocity=63 time=0
EXTRACT: note_off channel=0 note=70 velocity=47 time=0.14423075
EXTRACT: note_off channel=0 note=65 velocity=47 time=0
EXTRACT: note_off channel=0 note=62 velocity=47 time=0
EXTRACT: note_off channel=0 note=58 velocity=47 time=0
EXTRACT: note_off channel=0 note=53 velocity=47 time=0
EXTRACT: note_off channel=0 note=46 velocity=47 time=0
EXTRACT: note_on channel=0 note=64 velocity=47 time=0
EXTRACT: note_on channel=0 note=59 velocity=47 time=0
EXTRACT: note_on channel=0 note=55 velocity=47 time=0
EXTRACT: note_on channel=0 note=50 velocity=47 time=0
EXTRACT: note_on channel=0 note=45 velocity=47 time=0
EXTRACT: note_on channel=0 note=40 velocity=47 time=0
EXTRACT: note_off channel=2 note=56 velocity=63 time=0
EXTRACT: note_off channel=4 note=58 velocity=63 time=0
EXTRACT: note_on channel=4 note=56 velocity=63 time=0
EXTRACT: note_off channel=0 note=64 velocity=47 time=0.031249995833333332
EXTRACT: note_off channel=0 note=59 velocity=47 time=0
EXTRACT: note_off channel=0 note=55 velocity=47 time=0
EXTRACT: note_off channel=0 note=50 velocity=47 time=0
EXTRACT: note_off channel=0 note=45 velocity=47 time=0
EXTRACT: note_off channel=0 note=40 velocity=47 time=0
EXTRACT: note_on channel=0 note=64 velocity=47 time=0.11298075416666667
EXTRACT: note_on channel=0 note=59 velocity=47 time=0
EXTRACT: note_on channel=0 note=55 velocity=47 time=0
EXTRACT: note_on channel=0 note=50 velocity=47 time=0
EXTRACT: note_on channel=0 note=45 velocity=47 time=0
EXTRACT: note_on channel=0 note=40 velocity=47 time=0
EXTRACT: note_on channel=2 note=50 velocity=63 time=0
EXTRACT: note_off channel=4 note=56 velocity=63 time=0
EXTRACT: note_on channel=4 note=58 velocity=63 time=0
EXTRACT: note_off channel=0 note=64 velocity=47 time=0.031249995833333332
EXTRACT: note_off channel=0 note=59 velocity=47 time=0
EXTRACT: note_off channel=0 note=55 velocity=47 time=0
EXTRACT: note_off channel=0 note=50 velocity=47 time=0
EXTRACT: note_off channel=0 note=45 velocity=47 time=0
EXTRACT: note_off channel=0 note=40 velocity=47 time=0
EXTRACT: note_on channel=0 note=70 velocity=47 time=0.11298075416666667
EXTRACT: note_on channel=0 note=65 velocity=47 time=0
EXTRACT: note_on channel=0 note=62 velocity=47 time=0
EXTRACT: note_on channel=0 note=58 velocity=47 time=0
EXTRACT: note_on channel=0 note=53 velocity=47 time=0
EXTRACT: note_on channel=0 note=46 velocity=47 time=0
EXTRACT: note_off channel=2 note=50 velocity=63 time=0
EXTRACT: note_on channel=2 note=56 velocity=47 time=0
EXTRACT: note_off channel=0 note=70 velocity=47 time=0.14423075
EXTRACT: note_off channel=0 note=65 velocity=47 time=0
EXTRACT: note_off channel=0 note=62 velocity=47 time=0
EXTRACT: note_off channel=0 note=58 velocity=47 time=0
EXTRACT: note_off channel=0 note=53 velocity=47 time=0
EXTRACT: note_off channel=0 note=46 velocity=47 time=0
EXTRACT: note_on channel=0 note=70 velocity=47 time=0
EXTRACT: note_on channel=0 note=65 velocity=47 time=0
EXTRACT: note_on channel=0 note=62 velocity=47 time=0
EXTRACT: note_on channel=0 note=58 velocity=47 time=0
EXTRACT: note_on channel=0 note=53 velocity=47 time=0
EXTRACT: note_on channel=0 note=46 velocity=47 time=0
EXTRACT: note_off channel=4 note=58 velocity=63 time=0
EXTRACT: note_on channel=4 note=56 velocity=63 time=0
EXTRACT: note_off channel=0 note=70 velocity=47 time=0.14423075
EXTRACT: note_off channel=0 note=65 velocity=47 time=0
EXTRACT: note_off channel=0 note=62 velocity=47 time=0
EXTRACT: note_off channel=0 note=58 velocity=47 time=0
EXTRACT: note_off channel=0 note=53 velocity=47 time=0
EXTRACT: note_off channel=0 note=46 velocity=47 time=0
EXTRACT: note_on channel=0 note=64 velocity=47 time=0
EXTRACT: note_on channel=0 note=59 velocity=47 time=0
EXTRACT: note_on channel=0 note=55 velocity=47 time=0
EXTRACT: note_on channel=0 note=50 velocity=47 time=0
EXTRACT: note_on channel=0 note=45 velocity=47 time=0
EXTRACT: note_on channel=0 note=40 velocity=47 time=0
EXTRACT: note_off channel=2 note=56 velocity=47 time=0
EXTRACT: note_on channel=2 note=58 velocity=47 time=0
EXTRACT: note_off channel=4 note=56 velocity=63 time=0
EXTRACT: note_on channel=4 note=58 velocity=63 time=0
EXTRACT: note_off channel=0 note=64 velocity=47 time=0.031249995833333332
EXTRACT: note_off channel=0 note=59 velocity=47 time=0
EXTRACT: note_off channel=0 note=55 velocity=47 time=0
EXTRACT: note_off channel=0 note=50 velocity=47 time=0
EXTRACT: note_off channel=0 note=45 velocity=47 time=0
EXTRACT: note_off channel=0 note=40 velocity=47 time=0
EXTRACT: note_on channel=0 note=64 velocity=47 time=0.11298075416666667
EXTRACT: note_on channel=0 note=59 velocity=47 time=0
EXTRACT: note_on channel=0 note=55 velocity=47 time=0
EXTRACT: note_on channel=0 note=50 velocity=47 time=0
EXTRACT: note_on channel=0 note=45 velocity=47 time=0
EXTRACT: note_on channel=0 note=40 velocity=47 time=0
EXTRACT: note_off channel=2 note=58 velocity=47 time=0
EXTRACT: note_off channel=4 note=58 velocity=63 time=0
EXTRACT: note_on channel=4 note=56 velocity=63 time=0
EXTRACT: note_off channel=0 note=64 velocity=47 time=0.031249995833333332
EXTRACT: note_off channel=0 note=59 velocity=47 time=0
EXTRACT: note_off channel=0 note=55 velocity=47 time=0
EXTRACT: note_off channel=0 note=50 velocity=47 time=0
EXTRACT: note_off channel=0 note=45 velocity=47 time=0
EXTRACT: note_off channel=0 note=40 velocity=47 time=0
EXTRACT: note_on channel=0 note=72 velocity=31 time=0.11298075416666667
EXTRACT: note_on channel=0 note=68 velocity=31 time=0
EXTRACT: note_on channel=0 note=65 velocity=31 time=0
EXTRACT: note_on channel=0 note=60 velocity=31 time=0
EXTRACT: note_on channel=0 note=53 velocity=31 time=0
EXTRACT: note_on channel=2 note=51 velocity=47 time=0
EXTRACT: note_off channel=4 note=56 velocity=63 time=0
EXTRACT: note_on channel=4 note=53 velocity=47 time=0
EXTRACT: note_off channel=0 note=72 velocity=31 time=0.14423075
EXTRACT: note_off channel=0 note=68 velocity=31 time=0
EXTRACT: note_off channel=0 note=65 velocity=31 time=0
EXTRACT: note_off channel=0 note=60 velocity=31 time=0
EXTRACT: note_off channel=0 note=53 velocity=31 time=0
EXTRACT: note_on channel=0 note=72 velocity=31 time=0
EXTRACT: note_on channel=0 note=68 velocity=31 time=0
EXTRACT: note_on channel=0 note=65 velocity=31 time=0
EXTRACT: note_on channel=0 note=60 velocity=31 time=0
EXTRACT: note_on channel=0 note=53 velocity=31 time=0
EXTRACT: note_off channel=2 note=51 velocity=47 time=0
EXTRACT: note_on channel=2 note=53 velocity=22 time=0
EXTRACT: note_off channel=0 note=72 velocity=31 time=0.14423075
EXTRACT: note_off channel=0 note=68 velocity=31 time=0
EXTRACT: note_off channel=0 note=65 velocity=31 time=0
EXTRACT: note_off channel=0 note=60 velocity=31 time=0
EXTRACT: note_off channel=0 note=53 velocity=31 time=0
EXTRACT: note_on channel=0 note=64 velocity=31 time=0
EXTRACT: note_on channel=0 note=59 velocity=31 time=0
EXTRACT: note_on channel=0 note=55 velocity=31 time=0
EXTRACT: note_on channel=0 note=50 velocity=31 time=0
EXTRACT: note_on channel=0 note=45 velocity=31 time=0
EXTRACT: note_off channel=0 note=64 velocity=31 time=0.031249995833333332
EXTRACT: note_off channel=0 note=59 velocity=31 time=0
EXTRACT: note_off channel=0 note=55 velocity=31 time=0
EXTRACT: note_off channel=0 note=50 velocity=31 time=0
EXTRACT: note_off channel=0 note=45 velocity=31 time=0
EXTRACT: note_on channel=0 note=64 velocity=31 time=0.11298075416666667
EXTRACT: note_on channel=0 note=59 velocity=31 time=0
EXTRACT: note_on channel=0 note=55 velocity=31 time=0
EXTRACT: note_on channel=0 note=50 velocity=31 time=0
EXTRACT: note_on channel=0 note=45 velocity=31 time=0
EXTRACT: note_off channel=2 note=53 velocity=22 time=0
EXTRACT: note_on channel=2 note=56 velocity=47 time=0
EXTRACT: note_off channel=0 note=64 velocity=31 time=0.031249995833333332
EXTRACT: note_off channel=0 note=59 velocity=31 time=0
EXTRACT: note_off channel=0 note=55 velocity=31 time=0
EXTRACT: note_off channel=0 note=50 velocity=31 time=0
EXTRACT: note_off channel=0 note=45 velocity=31 time=0
EXTRACT: note_on channel=0 note=72 velocity=31 time=0.11298075416666667
EXTRACT: note_on channel=0 note=68 velocity=31 time=0
EXTRACT: note_on channel=0 note=65 velocity=31 time=0
EXTRACT: note_on channel=0 note=60 velocity=31 time=0
EXTRACT: note_on channel=0 note=53 velocity=31 time=0
EXTRACT: note_off channel=2 note=56 velocity=47 time=0
EXTRACT: note_off channel=0 note=72 velocity=31 time=0.14423075
EXTRACT: note_off channel=0 note=68 velocity=31 time=0
EXTRACT: note_off channel=0 note=65 velocity=31 time=0
EXTRACT: note_off channel=0 note=60 velocity=31 time=0
EXTRACT: note_off channel=0 note=53 velocity=31 time=0
EXTRACT: note_on channel=0 note=72 velocity=31 time=0
EXTRACT: note_on channel=0 note=68 velocity=31 time=0
EXTRACT: note_on channel=0 note=65 velocity=31 time=0
EXTRACT: note_on channel=0 note=60 velocity=31 time=0
EXTRACT: note_on channel=0 note=53 velocity=31 time=0
EXTRACT: note_off channel=0 note=72 velocity=31 time=0.14423075
EXTRACT: note_off channel=0 note=68 velocity=31 time=0
EXTRACT: note_off channel=0 note=65 velocity=31 time=0
EXTRACT: note_off channel=0 note=60 velocity=31 time=0
EXTRACT: note_off channel=0 note=53 velocity=31 time=0
EXTRACT: note_on channel=0 note=64 velocity=31 time=0
EXTRACT: note_on channel=0 note=59 velocity=31 time=0
EXTRACT: note_on channel=0 note=55 velocity=31 time=0
EXTRACT: note_on channel=0 note=50 velocity=31 time=0
EXTRACT: note_on channel=0 note=45 velocity=31 time=0
EXTRACT: note_on channel=2 note=51 velocity=47 time=0
EXTRACT: note_off channel=0 note=64 velocity=31 time=0.031249995833333332
EXTRACT: note_off channel=0 note=59 velocity=31 time=0
EXTRACT: note_off channel=0 note=55 velocity=31 time=0
EXTRACT: note_off channel=0 note=50 velocity=31 time=0
EXTRACT: note_off channel=0 note=45 velocity=31 time=0
EXTRACT: note_on channel=0 note=64 velocity=31 time=0.11298075416666667
EXTRACT: note_on channel=0 note=59 velocity=31 time=0
EXTRACT: note_on channel=0 note=55 velocity=31 time=0
EXTRACT: note_on channel=0 note=50 velocity=31 time=0
EXTRACT: note_on channel=0 note=45 velocity=31 time=0
EXTRACT: note_off channel=0 note=64 velocity=31 time=0.031249995833333332
EXTRACT: note_off channel=0 note=59 velocity=31 time=0
EXTRACT: note_off channel=0 note=55 velocity=31 time=0
EXTRACT: note_off channel=0 note=50 velocity=31 time=0
EXTRACT: note_off channel=0 note=45 velocity=31 time=0
EXTRACT: note_on channel=0 note=72 velocity=31 time=0.11298075416666667
EXTRACT: note_on channel=0 note=68 velocity=31 time=0
EXTRACT: note_on channel=0 note=65 velocity=31 time=0
EXTRACT: note_on channel=0 note=60 velocity=31 time=0
EXTRACT: note_on channel=0 note=53 velocity=31 time=0
EXTRACT: note_off channel=2 note=51 velocity=47 time=0
EXTRACT: note_off channel=4 note=53 velocity=47 time=0
EXTRACT: note_off channel=0 note=72 velocity=31 time=0.14423075
EXTRACT: note_off channel=0 note=68 velocity=31 time=0
EXTRACT: note_off channel=0 note=65 velocity=31 time=0
EXTRACT: note_off channel=0 note=60 velocity=31 time=0
EXTRACT: note_off channel=0 note=53 velocity=31 time=0
EXTRACT: note_on channel=0 note=72 velocity=31 time=0
EXTRACT: note_on channel=0 note=68 velocity=31 time=0
EXTRACT: note_on channel=0 note=65 velocity=31 time=0
EXTRACT: note_on channel=0 note=60 velocity=31 time=0
EXTRACT: note_on channel=0 note=53 velocity=31 time=0
EXTRACT: note_off channel=0 note=72 velocity=31 time=0.14423075
EXTRACT: note_off channel=0 note=68 velocity=31 time=0
EXTRACT: note_off channel=0 note=65 velocity=31 time=0
EXTRACT: note_off channel=0 note=60 velocity=31 time=0
EXTRACT: note_off channel=0 note=53 velocity=31 time=0
EXTRACT: note_on channel=0 note=64 velocity=31 time=0
EXTRACT: note_on channel=0 note=59 velocity=31 time=0
EXTRACT: note_on channel=0 note=55 velocity=31 time=0
EXTRACT: note_on channel=0 note=50 velocity=31 time=0
EXTRACT: note_on channel=0 note=45 velocity=31 time=0
EXTRACT: note_on channel=2 note=48 velocity=47 time=0
EXTRACT: note_on channel=4 note=72 velocity=47 time=0
EXTRACT: note_off channel=0 note=64 velocity=31 time=0.031249995833333332
EXTRACT: note_off channel=0 note=59 velocity=31 time=0
EXTRACT: note_off channel=0 note=55 velocity=31 time=0
EXTRACT: note_off channel=0 note=50 velocity=31 time=0
EXTRACT: note_off channel=0 note=45 velocity=31 time=0
EXTRACT: note_on channel=0 note=64 velocity=31 time=0.11298075416666667
EXTRACT: note_on channel=0 note=59 velocity=31 time=0
EXTRACT: note_on channel=0 note=55 velocity=31 time=0
EXTRACT: note_on channel=0 note=50 velocity=31 time=0
EXTRACT: note_on channel=0 note=45 velocity=31 time=0
EXTRACT: note_off channel=0 note=64 velocity=31 time=0.031249995833333332
EXTRACT: note_off channel=0 note=59 velocity=31 time=0
EXTRACT: note_off channel=0 note=55 velocity=31 time=0
EXTRACT: note_off channel=0 note=50 velocity=31 time=0
EXTRACT: note_off channel=0 note=45 velocity=31 time=0
EXTRACT: note_on channel=0 note=72 velocity=31 time=0.11298075416666667
EXTRACT: note_on channel=0 note=68 velocity=31 time=0
EXTRACT: note_on channel=0 note=65 velocity=31 time=0
EXTRACT: note_on channel=0 note=60 velocity=31 time=0
EXTRACT: note_on channel=0 note=53 velocity=31 time=0
EXTRACT: note_off channel=2 note=48 velocity=47 time=0
EXTRACT: note_on channel=2 note=46 velocity=31 time=0
EXTRACT: note_off channel=4 note=72 velocity=47 time=0
EXTRACT: note_on channel=4 note=72 velocity=47 time=0
EXTRACT: note_on channel=4 note=48 velocity=47 time=0
EXTRACT: note_off channel=0 note=72 velocity=31 time=0.14423075
EXTRACT: note_off channel=0 note=68 velocity=31 time=0
EXTRACT: note_off channel=0 note=65 velocity=31 time=0
EXTRACT: note_off channel=0 note=60 velocity=31 time=0
EXTRACT: note_off channel=0 note=53 velocity=31 time=0
EXTRACT: note_on channel=0 note=72 velocity=31 time=0
EXTRACT: note_on channel=0 note=68 velocity=31 time=0
EXTRACT: note_on channel=0 note=65 velocity=31 time=0
EXTRACT: note_on channel=0 note=60 velocity=31 time=0
EXTRACT: note_on channel=0 note=53 velocity=31 time=0
EXTRACT: note_off channel=2 note=46 velocity=31 time=0
EXTRACT: note_on channel=2 note=48 velocity=15 time=0
EXTRACT: note_off channel=4 note=72 velocity=47 time=0
EXTRACT: note_off channel=4 note=48 velocity=47 time=0
EXTRACT: note_on channel=4 note=70 velocity=47 time=0
EXTRACT: note_off channel=0 note=72 velocity=31 time=0.14423075
EXTRACT: note_off channel=0 note=68 velocity=31 time=0
EXTRACT: note_off channel=0 note=65 velocity=31 time=0
EXTRACT: note_off channel=0 note=60 velocity=31 time=0
EXTRACT: note_off channel=0 note=53 velocity=31 time=0
EXTRACT: note_on channel=0 note=64 velocity=31 time=0
EXTRACT: note_on channel=0 note=59 velocity=31 time=0
EXTRACT: note_on channel=0 note=55 velocity=31 time=0
EXTRACT: note_on channel=0 note=50 velocity=31 time=0
EXTRACT: note_on channel=0 note=45 velocity=31 time=0
EXTRACT: note_off channel=2 note=48 velocity=15 time=0
EXTRACT: note_on channel=2 note=51 velocity=31 time=0
EXTRACT: note_off channel=4 note=70 velocity=47 time=0
EXTRACT: note_on channel=4 note=68 velocity=47 time=0
EXTRACT: note_off channel=0 note=64 velocity=31 time=0.031249995833333332
EXTRACT: note_off channel=0 note=59 velocity=31 time=0
EXTRACT: note_off channel=0 note=55 velocity=31 time=0
EXTRACT: note_off channel=0 note=50 velocity=31 time=0
EXTRACT: note_off channel=0 note=45 velocity=31 time=0
EXTRACT: note_on channel=0 note=64 velocity=31 time=0.11298075416666667
EXTRACT: note_on channel=0 note=59 velocity=31 time=0
EXTRACT: note_on channel=0 note=55 velocity=31 time=0
EXTRACT: note_on channel=0 note=50 velocity=31 time=0
EXTRACT: note_on channel=0 note=45 velocity=31 time=0
EXTRACT: note_off channel=4 note=68 velocity=47 time=0
EXTRACT: note_on channel=4 note=72 velocity=47 time=0
EXTRACT: note_off channel=0 note=64 velocity=31 time=0.031249995833333332
EXTRACT: note_off channel=0 note=59 velocity=31 time=0
EXTRACT: note_off channel=0 note=55 velocity=31 time=0
EXTRACT: note_off channel=0 note=50 velocity=31 time=0
EXTRACT: note_off channel=0 note=45 velocity=31 time=0
EXTRACT: note_on channel=0 note=72 velocity=31 time=0.11298075416666667
EXTRACT: note_on channel=0 note=68 velocity=31 time=0
EXTRACT: note_on channel=0 note=65 velocity=31 time=0
EXTRACT: note_on channel=0 note=60 velocity=31 time=0
EXTRACT: note_on channel=0 note=53 velocity=31 time=0
EXTRACT: note_off channel=2 note=51 velocity=31 time=0
EXTRACT: note_on channel=2 note=46 velocity=31 time=0
EXTRACT: note_off channel=0 note=72 velocity=31 time=0.14423075
EXTRACT: note_off channel=0 note=68 velocity=31 time=0
EXTRACT: note_off channel=0 note=65 velocity=31 time=0
EXTRACT: note_off channel=0 note=60 velocity=31 time=0
EXTRACT: note_off channel=0 note=53 velocity=31 time=0
EXTRACT: note_on channel=0 note=72 velocity=31 time=0
EXTRACT: note_on channel=0 note=68 velocity=31 time=0
EXTRACT: note_on channel=0 note=65 velocity=31 time=0
EXTRACT: note_on channel=0 note=60 velocity=31 time=0
EXTRACT: note_on channel=0 note=53 velocity=31 time=0
EXTRACT: note_off channel=2 note=46 velocity=31 time=0
EXTRACT: note_on channel=2 note=48 velocity=15 time=0
EXTRACT: note_off channel=0 note=72 velocity=31 time=0.14423075
EXTRACT: note_off channel=0 note=68 velocity=31 time=0
EXTRACT: note_off channel=0 note=65 velocity=31 time=0
EXTRACT: note_off channel=0 note=60 velocity=31 time=0
EXTRACT: note_off channel=0 note=53 velocity=31 time=0
EXTRACT: note_on channel=0 note=64 velocity=31 time=0
EXTRACT: note_on channel=0 note=59 velocity=31 time=0
EXTRACT: note_on channel=0 note=55 velocity=31 time=0
EXTRACT: note_on channel=0 note=50 velocity=31 time=0
EXTRACT: note_on channel=0 note=45 velocity=31 time=0
EXTRACT: note_off channel=2 note=48 velocity=15 time=0
EXTRACT: note_on channel=2 note=51 velocity=31 time=0
EXTRACT: note_off channel=0 note=64 velocity=31 time=0.031249995833333332
EXTRACT: note_off channel=0 note=59 velocity=31 time=0
EXTRACT: note_off channel=0 note=55 velocity=31 time=0
EXTRACT: note_off channel=0 note=50 velocity=31 time=0
EXTRACT: note_off channel=0 note=45 velocity=31 time=0
EXTRACT: note_on channel=0 note=64 velocity=31 time=0.11298075416666667
EXTRACT: note_on channel=0 note=59 velocity=31 time=0
EXTRACT: note_on channel=0 note=55 velocity=31 time=0
EXTRACT: note_on channel=0 note=50 velocity=31 time=0
EXTRACT: note_on channel=0 note=45 velocity=31 time=0
EXTRACT: note_off channel=0 note=64 velocity=31 time=0.031249995833333332
EXTRACT: note_off channel=0 note=59 velocity=31 time=0
EXTRACT: note_off channel=0 note=55 velocity=31 time=0
EXTRACT: note_off channel=0 note=50 velocity=31 time=0
EXTRACT: note_off channel=0 note=45 velocity=31 time=0
EXTRACT: note_on channel=0 note=72 velocity=31 time=0.11298075416666667
EXTRACT: note_on channel=0 note=68 velocity=31 time=0
EXTRACT: note_on channel=0 note=65 velocity=31 time=0
EXTRACT: note_on channel=0 note=60 velocity=31 time=0
EXTRACT: note_on channel=0 note=53 velocity=31 time=0
EXTRACT: note_off channel=2 note=51 velocity=31 time=0
EXTRACT: note_off channel=0 note=72 velocity=31 time=0.14423075
EXTRACT: note_off channel=0 note=68 velocity=31 time=0
EXTRACT: note_off channel=0 note=65 velocity=31 time=0
EXTRACT: note_off channel=0 note=60 velocity=31 time=0
EXTRACT: note_off channel=0 note=53 velocity=31 time=0
EXTRACT: note_on channel=0 note=72 velocity=31 time=0
EXTRACT: note_on channel=0 note=68 velocity=31 time=0
EXTRACT: note_on channel=0 note=65 velocity=31 time=0
EXTRACT: note_on channel=0 note=60 velocity=31 time=0
EXTRACT: note_on channel=0 note=53 velocity=31 time=0
EXTRACT: note_on channel=2 note=45 velocity=31 time=0
EXTRACT: note_off channel=2 note=45 velocity=31 time=0.031249995833333332
EXTRACT: note_off channel=0 note=72 velocity=31 time=0.11298075416666667
EXTRACT: note_off channel=0 note=68 velocity=31 time=0
EXTRACT: note_off channel=0 note=65 velocity=31 time=0
EXTRACT: note_off channel=0 note=60 velocity=31 time=0
EXTRACT: note_off channel=0 note=53 velocity=31 time=0
EXTRACT: note_on channel=0 note=64 velocity=31 time=0
EXTRACT: note_on channel=0 note=59 velocity=31 time=0
EXTRACT: note_on channel=0 note=55 velocity=31 time=0
EXTRACT: note_on channel=0 note=50 velocity=31 time=0
EXTRACT: note_on channel=0 note=45 velocity=31 time=0
EXTRACT: note_on channel=2 note=46 velocity=31 time=0
EXTRACT: note_off channel=0 note=64 velocity=31 time=0.031249995833333332
EXTRACT: note_off channel=0 note=59 velocity=31 time=0
EXTRACT: note_off channel=0 note=55 velocity=31 time=0
EXTRACT: note_off channel=0 note=50 velocity=31 time=0
EXTRACT: note_off channel=0 note=45 velocity=31 time=0
EXTRACT: note_on channel=0 note=64 velocity=31 time=0.11298075416666667
EXTRACT: note_on channel=0 note=59 velocity=31 time=0
EXTRACT: note_on channel=0 note=55 velocity=31 time=0
EXTRACT: note_on channel=0 note=50 velocity=31 time=0
EXTRACT: note_on channel=0 note=45 velocity=31 time=0
EXTRACT: note_off channel=0 note=64 velocity=31 time=0.031249995833333332
EXTRACT: note_off channel=0 note=59 velocity=31 time=0
EXTRACT: note_off channel=0 note=55 velocity=31 time=0
EXTRACT: note_off channel=0 note=50 velocity=31 time=0
EXTRACT: note_off channel=0 note=45 velocity=31 time=0
EXTRACT: note_on channel=0 note=72 velocity=31 time=0.11298075416666667
EXTRACT: note_on channel=0 note=68 velocity=31 time=0
EXTRACT: note_on channel=0 note=65 velocity=31 time=0
EXTRACT: note_on channel=0 note=60 velocity=31 time=0
EXTRACT: note_on channel=0 note=53 velocity=31 time=0
EXTRACT: note_off channel=2 note=46 velocity=31 time=0
EXTRACT: note_on channel=2 note=48 velocity=31 time=0
EXTRACT: note_off channel=0 note=72 velocity=31 time=0.14423075
EXTRACT: note_off channel=0 note=68 velocity=31 time=0
EXTRACT: note_off channel=0 note=65 velocity=31 time=0
EXTRACT: note_off channel=0 note=60 velocity=31 time=0
EXTRACT: note_off channel=0 note=53 velocity=31 time=0
EXTRACT: note_on channel=0 note=72 velocity=31 time=0
EXTRACT: note_on channel=0 note=68 velocity=31 time=0
EXTRACT: note_on channel=0 note=65 velocity=31 time=0
EXTRACT: note_on channel=0 note=60 velocity=31 time=0
EXTRACT: note_on channel=0 note=53 velocity=31 time=0
EXTRACT: note_off channel=0 note=72 velocity=31 time=0.14423075
EXTRACT: note_off channel=0 note=68 velocity=31 time=0
EXTRACT: note_off channel=0 note=65 velocity=31 time=0
EXTRACT: note_off channel=0 note=60 velocity=31 time=0
EXTRACT: note_off channel=0 note=53 velocity=31 time=0
EXTRACT: note_on channel=0 note=64 velocity=31 time=0
EXTRACT: note_on channel=0 note=59 velocity=31 time=0
EXTRACT: note_on channel=0 note=55 velocity=31 time=0
EXTRACT: note_on channel=0 note=50 velocity=31 time=0
EXTRACT: note_on channel=0 note=45 velocity=31 time=0
EXTRACT: note_off channel=2 note=48 velocity=31 time=0
EXTRACT: note_on channel=2 note=51 velocity=31 time=0
EXTRACT: note_off channel=0 note=64 velocity=31 time=0.031249995833333332
EXTRACT: note_off channel=0 note=59 velocity=31 time=0
EXTRACT: note_off channel=0 note=55 velocity=31 time=0
EXTRACT: note_off channel=0 note=50 velocity=31 time=0
EXTRACT: note_off channel=0 note=45 velocity=31 time=0
EXTRACT: note_on channel=0 note=64 velocity=31 time=0.11298075416666667
EXTRACT: note_on channel=0 note=59 velocity=31 time=0
EXTRACT: note_on channel=0 note=55 velocity=31 time=0
EXTRACT: note_on channel=0 note=50 velocity=31 time=0
EXTRACT: note_on channel=0 note=45 velocity=31 time=0
EXTRACT: note_off channel=0 note=64 velocity=31 time=0.031249995833333332
EXTRACT: note_off channel=0 note=59 velocity=31 time=0
EXTRACT: note_off channel=0 note=55 velocity=31 time=0
EXTRACT: note_off channel=0 note=50 velocity=31 time=0
EXTRACT: note_off channel=0 note=45 velocity=31 time=0
EXTRACT: note_on channel=0 note=72 velocity=31 time=0.11298075416666667
EXTRACT: note_on channel=0 note=68 velocity=31 time=0
EXTRACT: note_on channel=0 note=65 velocity=31 time=0
EXTRACT: note_on channel=0 note=60 velocity=31 time=0
EXTRACT: note_on channel=0 note=53 velocity=31 time=0
EXTRACT: note_off channel=2 note=51 velocity=31 time=0
EXTRACT: note_on channel=2 note=53 velocity=31 time=0
EXTRACT: note_off channel=0 note=72 velocity=31 time=0.14423075
EXTRACT: note_off channel=0 note=68 velocity=31 time=0
EXTRACT: note_off channel=0 note=65 velocity=31 time=0
EXTRACT: note_off channel=0 note=60 velocity=31 time=0
EXTRACT: note_off channel=0 note=53 velocity=31 time=0
EXTRACT: note_on channel=0 note=72 velocity=31 time=0
EXTRACT: note_on channel=0 note=68 velocity=31 time=0
EXTRACT: note_on channel=0 note=65 velocity=31 time=0
EXTRACT: note_on channel=0 note=60 velocity=31 time=0
EXTRACT: note_on channel=0 note=53 velocity=31 time=0
EXTRACT: note_off channel=0 note=72 velocity=31 time=0.14423075
EXTRACT: note_off channel=0 note=68 velocity=31 time=0
EXTRACT: note_off channel=0 note=65 velocity=31 time=0
EXTRACT: note_off channel=0 note=60 velocity=31 time=0
EXTRACT: note_off channel=0 note=53 velocity=31 time=0
EXTRACT: note_on channel=0 note=64 velocity=31 time=0
EXTRACT: note_on channel=0 note=59 velocity=31 time=0
EXTRACT: note_on channel=0 note=55 velocity=31 time=0
EXTRACT: note_on channel=0 note=50 velocity=31 time=0
EXTRACT: note_on channel=0 note=45 velocity=31 time=0
EXTRACT: note_off channel=2 note=53 velocity=31 time=0
EXTRACT: note_on channel=2 note=56 velocity=31 time=0
EXTRACT: note_off channel=0 note=64 velocity=31 time=0.031249995833333332
EXTRACT: note_off channel=0 note=59 velocity=31 time=0
EXTRACT: note_off channel=0 note=55 velocity=31 time=0
EXTRACT: note_off channel=0 note=50 velocity=31 time=0
EXTRACT: note_off channel=0 note=45 velocity=31 time=0
EXTRACT: note_on channel=0 note=64 velocity=31 time=0.11298075416666667
EXTRACT: note_on channel=0 note=59 velocity=31 time=0
EXTRACT: note_on channel=0 note=55 velocity=31 time=0
EXTRACT: note_on channel=0 note=50 velocity=31 time=0
EXTRACT: note_on channel=0 note=45 velocity=31 time=0
EXTRACT: note_off channel=0 note=64 velocity=31 time=0.031249995833333332
EXTRACT: note_off channel=0 note=59 velocity=31 time=0
EXTRACT: note_off channel=0 note=55 velocity=31 time=0
EXTRACT: note_off channel=0 note=50 velocity=31 time=0
EXTRACT: note_off channel=0 note=45 velocity=31 time=0
EXTRACT: note_on channel=0 note=72 velocity=15 time=0.11298075416666667
EXTRACT: note_on channel=0 note=68 velocity=15 time=0
EXTRACT: note_on channel=0 note=65 velocity=15 time=0
EXTRACT: note_on channel=0 note=60 velocity=15 time=0
EXTRACT: note_on channel=0 note=53 velocity=15 time=0
EXTRACT: note_off channel=2 note=56 velocity=31 time=0
EXTRACT: note_on channel=2 note=51 velocity=15 time=0
EXTRACT: note_off channel=0 note=72 velocity=15 time=0.14423075
EXTRACT: note_off channel=0 note=68 velocity=15 time=0
EXTRACT: note_off channel=0 note=65 velocity=15 time=0
EXTRACT: note_off channel=0 note=60 velocity=15 time=0
EXTRACT: note_off channel=0 note=53 velocity=15 time=0
EXTRACT: note_on channel=0 note=72 velocity=15 time=0
EXTRACT: note_on channel=0 note=68 velocity=15 time=0
EXTRACT: note_on channel=0 note=65 velocity=15 time=0
EXTRACT: note_on channel=0 note=60 velocity=15 time=0
EXTRACT: note_on channel=0 note=53 velocity=15 time=0
EXTRACT: note_off channel=2 note=51 velocity=15 time=0
EXTRACT: note_on channel=2 note=53 velocity=15 time=0
EXTRACT: note_off channel=0 note=72 velocity=15 time=0.14423075
EXTRACT: note_off channel=0 note=68 velocity=15 time=0
EXTRACT: note_off channel=0 note=65 velocity=15 time=0
EXTRACT: note_off channel=0 note=60 velocity=15 time=0
EXTRACT: note_off channel=0 note=53 velocity=15 time=0
EXTRACT: note_on channel=0 note=64 velocity=15 time=0
EXTRACT: note_on channel=0 note=59 velocity=15 time=0
EXTRACT: note_on channel=0 note=55 velocity=15 time=0
EXTRACT: note_on channel=0 note=50 velocity=15 time=0
EXTRACT: note_on channel=0 note=45 velocity=15 time=0
EXTRACT: note_off channel=0 note=64 velocity=15 time=0.031249995833333332
EXTRACT: note_off channel=0 note=59 velocity=15 time=0
EXTRACT: note_off channel=0 note=55 velocity=15 time=0
EXTRACT: note_off channel=0 note=50 velocity=15 time=0
EXTRACT: note_off channel=0 note=45 velocity=15 time=0
EXTRACT: note_on channel=0 note=64 velocity=15 time=0.11298075416666667
EXTRACT: note_on channel=0 note=59 velocity=15 time=0
EXTRACT: note_on channel=0 note=55 velocity=15 time=0
EXTRACT: note_on channel=0 note=50 velocity=15 time=0
EXTRACT: note_on channel=0 note=45 velocity=15 time=0
EXTRACT: note_off channel=2 note=53 velocity=15 time=0
EXTRACT: note_on channel=2 note=56 velocity=15 time=0
EXTRACT: note_off channel=0 note=64 velocity=15 time=0.031249995833333332
EXTRACT: note_off channel=0 note=59 velocity=15 time=0
EXTRACT: note_off channel=0 note=55 velocity=15 time=0
EXTRACT: note_off channel=0 note=50 velocity=15 time=0
EXTRACT: note_off channel=0 note=45 velocity=15 time=0
EXTRACT: note_on channel=0 note=72 velocity=15 time=0.11298075416666667
EXTRACT: note_on channel=0 note=68 velocity=15 time=0
EXTRACT: note_on channel=0 note=65 velocity=15 time=0
EXTRACT: note_on channel=0 note=60 velocity=15 time=0
EXTRACT: note_on channel=0 note=53 velocity=15 time=0
EXTRACT: note_off channel=2 note=56 velocity=15 time=0
EXTRACT: note_off channel=0 note=72 velocity=15 time=0.14423075
EXTRACT: note_off channel=0 note=68 velocity=15 time=0
EXTRACT: note_off channel=0 note=65 velocity=15 time=0
EXTRACT: note_off channel=0 note=60 velocity=15 time=0
EXTRACT: note_off channel=0 note=53 velocity=15 time=0
EXTRACT: note_on channel=0 note=72 velocity=15 time=0
EXTRACT: note_on channel=0 note=68 velocity=15 time=0
EXTRACT: note_on channel=0 note=65 velocity=15 time=0
EXTRACT: note_on channel=0 note=60 velocity=15 time=0
EXTRACT: note_on channel=0 note=53 velocity=15 time=0
EXTRACT: note_off channel=0 note=72 velocity=15 time=0.14423075
EXTRACT: note_off channel=0 note=68 velocity=15 time=0
EXTRACT: note_off channel=0 note=65 velocity=15 time=0
EXTRACT: note_off channel=0 note=60 velocity=15 time=0
EXTRACT: note_off channel=0 note=53 velocity=15 time=0
EXTRACT: note_on channel=0 note=64 velocity=15 time=0
EXTRACT: note_on channel=0 note=59 velocity=15 time=0
EXTRACT: note_on channel=0 note=55 velocity=15 time=0
EXTRACT: note_on channel=0 note=50 velocity=15 time=0
EXTRACT: note_on channel=0 note=45 velocity=15 time=0
EXTRACT: note_on channel=2 note=51 velocity=15 time=0
EXTRACT: note_off channel=0 note=64 velocity=15 time=0.031249995833333332
EXTRACT: note_off channel=0 note=59 velocity=15 time=0
EXTRACT: note_off channel=0 note=55 velocity=15 time=0
EXTRACT: note_off channel=0 note=50 velocity=15 time=0
EXTRACT: note_off channel=0 note=45 velocity=15 time=0
EXTRACT: note_on channel=0 note=64 velocity=15 time=0.11298075416666667
EXTRACT: note_on channel=0 note=59 velocity=15 time=0
EXTRACT: note_on channel=0 note=55 velocity=15 time=0
EXTRACT: note_on channel=0 note=50 velocity=15 time=0
EXTRACT: note_on channel=0 note=45 velocity=15 time=0
EXTRACT: note_off channel=0 note=64 velocity=15 time=0.031249995833333332
EXTRACT: note_off channel=0 note=59 velocity=15 time=0
EXTRACT: note_off channel=0 note=55 velocity=15 time=0
EXTRACT: note_off channel=0 note=50 velocity=15 time=0
EXTRACT: note_off channel=0 note=45 velocity=15 time=0
EXTRACT: note_on channel=0 note=72 velocity=15 time=0.11298075416666667
EXTRACT: note_on channel=0 note=68 velocity=15 time=0
EXTRACT: note_on channel=0 note=65 velocity=15 time=0
EXTRACT: note_on channel=0 note=60 velocity=15 time=0
EXTRACT: note_on channel=0 note=53 velocity=15 time=0
EXTRACT: note_off channel=2 note=51 velocity=15 time=0
EXTRACT: note_off channel=0 note=72 velocity=15 time=0.14423075
EXTRACT: note_off channel=0 note=68 velocity=15 time=0
EXTRACT: note_off channel=0 note=65 velocity=15 time=0
EXTRACT: note_off channel=0 note=60 velocity=15 time=0
EXTRACT: note_off channel=0 note=53 velocity=15 time=0
EXTRACT: note_on channel=0 note=72 velocity=15 time=0
EXTRACT: note_on channel=0 note=68 velocity=15 time=0
EXTRACT: note_on channel=0 note=65 velocity=15 time=0
EXTRACT: note_on channel=0 note=60 velocity=15 time=0
EXTRACT: note_on channel=0 note=53 velocity=15 time=0
EXTRACT: note_off channel=0 note=72 velocity=15 time=0.14423075
EXTRACT: note_off channel=0 note=68 velocity=15 time=0
EXTRACT: note_off channel=0 note=65 velocity=15 time=0
EXTRACT: note_off channel=0 note=60 velocity=15 time=0
EXTRACT: note_off channel=0 note=53 velocity=15 time=0
EXTRACT: note_on channel=0 note=64 velocity=15 time=0
EXTRACT: note_on channel=0 note=59 velocity=15 time=0
EXTRACT: note_on channel=0 note=55 velocity=15 time=0
EXTRACT: note_on channel=0 note=50 velocity=15 time=0
EXTRACT: note_on channel=0 note=45 velocity=15 time=0
EXTRACT: note_on channel=2 note=48 velocity=15 time=0
EXTRACT: note_off channel=0 note=64 velocity=15 time=0.031249995833333332
EXTRACT: note_off channel=0 note=59 velocity=15 time=0
EXTRACT: note_off channel=0 note=55 velocity=15 time=0
EXTRACT: note_off channel=0 note=50 velocity=15 time=0
EXTRACT: note_off channel=0 note=45 velocity=15 time=0
EXTRACT: note_on channel=0 note=64 velocity=15 time=0.11298075416666667
EXTRACT: note_on channel=0 note=59 velocity=15 time=0
EXTRACT: note_on channel=0 note=55 velocity=15 time=0
EXTRACT: note_on channel=0 note=50 velocity=15 time=0
EXTRACT: note_on channel=0 note=45 velocity=15 time=0
EXTRACT: note_off channel=0 note=64 velocity=15 time=0.031249995833333332
EXTRACT: note_off channel=0 note=59 velocity=15 time=0
EXTRACT: note_off channel=0 note=55 velocity=15 time=0
EXTRACT: note_off channel=0 note=50 velocity=15 time=0
EXTRACT: note_off channel=0 note=45 velocity=15 time=0
EXTRACT: note_on channel=0 note=72 velocity=15 time=0.11298075416666667
EXTRACT: note_on channel=0 note=68 velocity=15 time=0
EXTRACT: note_on channel=0 note=65 velocity=15 time=0
EXTRACT: note_on channel=0 note=60 velocity=15 time=0
EXTRACT: note_on channel=0 note=53 velocity=15 time=0
EXTRACT: note_off channel=2 note=48 velocity=15 time=0
EXTRACT: note_on channel=2 note=46 velocity=15 time=0
EXTRACT: note_off channel=0 note=72 velocity=15 time=0.14423075
EXTRACT: note_off channel=0 note=68 velocity=15 time=0
EXTRACT: note_off channel=0 note=65 velocity=15 time=0
EXTRACT: note_off channel=0 note=60 velocity=15 time=0
EXTRACT: note_off channel=0 note=53 velocity=15 time=0
EXTRACT: note_on channel=0 note=72 velocity=15 time=0
EXTRACT: note_on channel=0 note=68 velocity=15 time=0
EXTRACT: note_on channel=0 note=65 velocity=15 time=0
EXTRACT: note_on channel=0 note=60 velocity=15 time=0
EXTRACT: note_on channel=0 note=53 velocity=15 time=0
EXTRACT: note_off channel=2 note=46 velocity=15 time=0
EXTRACT: note_on channel=2 note=48 velocity=15 time=0
EXTRACT: note_off channel=0 note=72 velocity=15 time=0.14423075
EXTRACT: note_off channel=0 note=68 velocity=15 time=0
EXTRACT: note_off channel=0 note=65 velocity=15 time=0
EXTRACT: note_off channel=0 note=60 velocity=15 time=0
EXTRACT: note_off channel=0 note=53 velocity=15 time=0
EXTRACT: note_on channel=0 note=64 velocity=15 time=0
EXTRACT: note_on channel=0 note=59 velocity=15 time=0
EXTRACT: note_on channel=0 note=55 velocity=15 time=0
EXTRACT: note_on channel=0 note=50 velocity=15 time=0
EXTRACT: note_on channel=0 note=45 velocity=15 time=0
EXTRACT: note_off channel=2 note=48 velocity=15 time=0
EXTRACT: note_on channel=2 note=51 velocity=15 time=0
EXTRACT: note_off channel=0 note=64 velocity=15 time=0.031249995833333332
EXTRACT: note_off channel=0 note=59 velocity=15 time=0
EXTRACT: note_off channel=0 note=55 velocity=15 time=0
EXTRACT: note_off channel=0 note=50 velocity=15 time=0
EXTRACT: note_off channel=0 note=45 velocity=15 time=0
EXTRACT: note_on channel=0 note=64 velocity=15 time=0.11298075416666667
EXTRACT: note_on channel=0 note=59 velocity=15 time=0
EXTRACT: note_on channel=0 note=55 velocity=15 time=0
EXTRACT: note_on channel=0 note=50 velocity=15 time=0
EXTRACT: note_on channel=0 note=45 velocity=15 time=0
EXTRACT: note_off channel=0 note=64 velocity=15 time=0.031249995833333332
EXTRACT: note_off channel=0 note=59 velocity=15 time=0
EXTRACT: note_off channel=0 note=55 velocity=15 time=0
EXTRACT: note_off channel=0 note=50 velocity=15 time=0
EXTRACT: note_off channel=0 note=45 velocity=15 time=0
EXTRACT: note_on channel=0 note=72 velocity=15 time=0.11298075416666667
EXTRACT: note_on channel=0 note=68 velocity=15 time=0
EXTRACT: note_on channel=0 note=65 velocity=15 time=0
EXTRACT: note_on channel=0 note=60 velocity=15 time=0
EXTRACT: note_on channel=0 note=53 velocity=15 time=0
EXTRACT: note_off channel=2 note=51 velocity=15 time=0
EXTRACT: note_on channel=2 note=46 velocity=15 time=0
EXTRACT: note_off channel=0 note=72 velocity=15 time=0.14423075
EXTRACT: note_off channel=0 note=68 velocity=15 time=0
EXTRACT: note_off channel=0 note=65 velocity=15 time=0
EXTRACT: note_off channel=0 note=60 velocity=15 time=0
EXTRACT: note_off channel=0 note=53 velocity=15 time=0
EXTRACT: note_on channel=0 note=72 velocity=15 time=0
EXTRACT: note_on channel=0 note=68 velocity=15 time=0
EXTRACT: note_on channel=0 note=65 velocity=15 time=0
EXTRACT: note_on channel=0 note=60 velocity=15 time=0
EXTRACT: note_on channel=0 note=53 velocity=15 time=0
EXTRACT: note_off channel=2 note=46 velocity=15 time=0
EXTRACT: note_on channel=2 note=48 velocity=15 time=0
EXTRACT: note_off channel=0 note=72 velocity=15 time=0.14423075
EXTRACT: note_off channel=0 note=68 velocity=15 time=0
EXTRACT: note_off channel=0 note=65 velocity=15 time=0
EXTRACT: note_off channel=0 note=60 velocity=15 time=0
EXTRACT: note_off channel=0 note=53 velocity=15 time=0
EXTRACT: note_on channel=0 note=64 velocity=15 time=0
EXTRACT: note_on channel=0 note=59 velocity=15 time=0
EXTRACT: note_on channel=0 note=55 velocity=15 time=0
EXTRACT: note_on channel=0 note=50 velocity=15 time=0
EXTRACT: note_on channel=0 note=45 velocity=15 time=0
EXTRACT: note_off channel=2 note=48 velocity=15 time=0
EXTRACT: note_on channel=2 note=51 velocity=15 time=0
EXTRACT: note_off channel=0 note=64 velocity=15 time=0.031249995833333332
EXTRACT: note_off channel=0 note=59 velocity=15 time=0
EXTRACT: note_off channel=0 note=55 velocity=15 time=0
EXTRACT: note_off channel=0 note=50 velocity=15 time=0
EXTRACT: note_off channel=0 note=45 velocity=15 time=0
EXTRACT: note_on channel=0 note=64 velocity=15 time=0.11298075416666667
EXTRACT: note_on channel=0 note=59 velocity=15 time=0
EXTRACT: note_on channel=0 note=55 velocity=15 time=0
EXTRACT: note_on channel=0 note=50 velocity=15 time=0
EXTRACT: note_on channel=0 note=45 velocity=15 time=0
EXTRACT: note_off channel=0 note=64 velocity=15 time=0.031249995833333332
EXTRACT: note_off channel=0 note=59 velocity=15 time=0
EXTRACT: note_off channel=0 note=55 velocity=15 time=0
EXTRACT: note_off channel=0 note=50 velocity=15 time=0
EXTRACT: note_off channel=0 note=45 velocity=15 time=0
EXTRACT: note_on channel=0 note=72 velocity=15 time=0.11298075416666667
EXTRACT: note_on channel=0 note=68 velocity=15 time=0
EXTRACT: note_on channel=0 note=65 velocity=15 time=0
EXTRACT: note_on channel=0 note=60 velocity=15 time=0
EXTRACT: note_on channel=0 note=53 velocity=15 time=0
EXTRACT: note_off channel=2 note=51 velocity=15 time=0
EXTRACT: note_off channel=0 note=72 velocity=15 time=0.14423075
EXTRACT: note_off channel=0 note=68 velocity=15 time=0
EXTRACT: note_off channel=0 note=65 velocity=15 time=0
EXTRACT: note_off channel=0 note=60 velocity=15 time=0
EXTRACT: note_off channel=0 note=53 velocity=15 time=0
EXTRACT: note_on channel=0 note=72 velocity=15 time=0
EXTRACT: note_on channel=0 note=68 velocity=15 time=0
EXTRACT: note_on channel=0 note=65 velocity=15 time=0
EXTRACT: note_on channel=0 note=60 velocity=15 time=0
EXTRACT: note_on channel=0 note=53 velocity=15 time=0
EXTRACT: note_on channel=2 note=45 velocity=15 time=0
EXTRACT: note_off channel=2 note=45 velocity=15 time=0.031249995833333332
EXTRACT: note_on channel=5 note=72 velocity=95 time=0.04086537916666667
EXTRACT: note_off channel=0 note=72 velocity=15 time=0.072115375
EXTRACT: note_off channel=0 note=68 velocity=15 time=0
EXTRACT: note_off channel=0 note=65 velocity=15 time=0
EXTRACT: note_off channel=0 note=60 velocity=15 time=0
EXTRACT: note_off channel=0 note=53 velocity=15 time=0
EXTRACT: note_on channel=0 note=64 velocity=15 time=0
EXTRACT: note_on channel=0 note=59 velocity=15 time=0
EXTRACT: note_on channel=0 note=55 velocity=15 time=0
EXTRACT: note_on channel=0 note=50 velocity=15 time=0
EXTRACT: note_on channel=0 note=45 velocity=15 time=0
EXTRACT: note_on channel=2 note=46 velocity=15 time=0
EXTRACT: note_off channel=4 note=72 velocity=47 time=0
EXTRACT: note_off channel=5 note=72 velocity=95 time=0
EXTRACT: note_on channel=5 note=72 velocity=95 time=0
EXTRACT: note_off channel=0 note=64 velocity=15 time=0.031249995833333332
EXTRACT: note_off channel=0 note=59 velocity=15 time=0
EXTRACT: note_off channel=0 note=55 velocity=15 time=0
EXTRACT: note_off channel=0 note=50 velocity=15 time=0
EXTRACT: note_off channel=0 note=45 velocity=15 time=0
EXTRACT: note_on channel=0 note=64 velocity=15 time=0.11298075416666667
EXTRACT: note_on channel=0 note=59 velocity=15 time=0
EXTRACT: note_on channel=0 note=55 velocity=15 time=0
EXTRACT: note_on channel=0 note=50 velocity=15 time=0
EXTRACT: note_on channel=0 note=45 velocity=15 time=0
EXTRACT: note_off channel=0 note=64 velocity=15 time=0.031249995833333332
EXTRACT: note_off channel=0 note=59 velocity=15 time=0
EXTRACT: note_off channel=0 note=55 velocity=15 time=0
EXTRACT: note_off channel=0 note=50 velocity=15 time=0
EXTRACT: note_off channel=0 note=45 velocity=15 time=0
EXTRACT: note_on channel=5 note=72 velocity=95 time=0.04086537916666667
EXTRACT: note_on channel=0 note=72 velocity=15 time=0.072115375
EXTRACT: note_on channel=0 note=68 velocity=15 time=0
EXTRACT: note_on channel=0 note=65 velocity=15 time=0
EXTRACT: note_on channel=0 note=60 velocity=15 time=0
EXTRACT: note_on channel=0 note=53 velocity=15 time=0
EXTRACT: note_off channel=2 note=46 velocity=15 time=0
EXTRACT: note_on channel=2 note=48 velocity=15 time=0
EXTRACT: note_off channel=5 note=72 velocity=95 time=0
EXTRACT: note_off channel=5 note=72 velocity=95 time=0
EXTRACT: note_on channel=5 note=72 velocity=95 time=0
EXTRACT: note_off channel=0 note=72 velocity=15 time=0.14423075
EXTRACT: note_off channel=0 note=68 velocity=15 time=0
EXTRACT: note_off channel=0 note=65 velocity=15 time=0
EXTRACT: note_off channel=0 note=60 velocity=15 time=0
EXTRACT: note_off channel=0 note=53 velocity=15 time=0
EXTRACT: note_on channel=0 note=72 velocity=15 time=0
EXTRACT: note_on channel=0 note=68 velocity=15 time=0
EXTRACT: note_on channel=0 note=65 velocity=15 time=0
EXTRACT: note_on channel=0 note=60 velocity=15 time=0
EXTRACT: note_on channel=0 note=53 velocity=15 time=0
EXTRACT: note_off channel=0 note=72 velocity=15 time=0.14423075
EXTRACT: note_off channel=0 note=68 velocity=15 time=0
EXTRACT: note_off channel=0 note=65 velocity=15 time=0
EXTRACT: note_off channel=0 note=60 velocity=15 time=0
EXTRACT: note_off channel=0 note=53 velocity=15 time=0
EXTRACT: note_on channel=0 note=64 velocity=15 time=0
EXTRACT: note_on channel=0 note=59 velocity=15 time=0
EXTRACT: note_on channel=0 note=55 velocity=15 time=0
EXTRACT: note_on channel=0 note=50 velocity=15 time=0
EXTRACT: note_on channel=0 note=45 velocity=15 time=0
EXTRACT: note_off channel=2 note=48 velocity=15 time=0
EXTRACT: note_on channel=2 note=51 velocity=15 time=0
EXTRACT: note_off channel=5 note=72 velocity=95 time=0
EXTRACT: note_on channel=4 note=70 velocity=95 time=0
EXTRACT: note_off channel=0 note=64 velocity=15 time=0.031249995833333332
EXTRACT: note_off channel=0 note=59 velocity=15 time=0
EXTRACT: note_off channel=0 note=55 velocity=15 time=0
EXTRACT: note_off channel=0 note=50 velocity=15 time=0
EXTRACT: note_off channel=0 note=45 velocity=15 time=0
EXTRACT: note_on channel=0 note=64 velocity=15 time=0.11298075416666667
EXTRACT: note_on channel=0 note=59 velocity=15 time=0
EXTRACT: note_on channel=0 note=55 velocity=15 time=0
EXTRACT: note_on channel=0 note=50 velocity=15 time=0
EXTRACT: note_on channel=0 note=45 velocity=15 time=0
EXTRACT: note_off channel=0 note=64 velocity=15 time=0.031249995833333332
EXTRACT: note_off channel=0 note=59 velocity=15 time=0
EXTRACT: note_off channel=0 note=55 velocity=15 time=0
EXTRACT: note_off channel=0 note=50 velocity=15 time=0
EXTRACT: note_off channel=0 note=45 velocity=15 time=0
EXTRACT: note_on channel=5 note=70 velocity=95 time=0.04086537916666667
EXTRACT: note_on channel=0 note=72 velocity=15 time=0.072115375
EXTRACT: note_on channel=0 note=68 velocity=15 time=0
EXTRACT: note_on channel=0 note=65 velocity=15 time=0
EXTRACT: note_on channel=0 note=60 velocity=15 time=0
EXTRACT: note_on channel=0 note=53 velocity=15 time=0
EXTRACT: note_off channel=2 note=51 velocity=15 time=0
EXTRACT: note_on channel=2 note=53 velocity=15 time=0
EXTRACT: note_off channel=4 note=70 velocity=95 time=0
EXTRACT: note_off channel=5 note=70 velocity=95 time=0
EXTRACT: note_on channel=5 note=70 velocity=95 time=0
EXTRACT: note_off channel=0 note=72 velocity=15 time=0.14423075
EXTRACT: note_off channel=0 note=68 velocity=15 time=0
EXTRACT: note_off channel=0 note=65 velocity=15 time=0
EXTRACT: note_off channel=0 note=60 velocity=15 time=0
EXTRACT: note_off channel=0 note=53 velocity=15 time=0
EXTRACT: note_on channel=0 note=72 velocity=15 time=0
EXTRACT: note_on channel=0 note=68 velocity=15 time=0
EXTRACT: note_on channel=0 note=65 velocity=15 time=0
EXTRACT: note_on channel=0 note=60 velocity=15 time=0
EXTRACT: note_on channel=0 note=53 velocity=15 time=0
EXTRACT: note_off channel=0 note=72 velocity=15 time=0.14423075
EXTRACT: note_off channel=0 note=68 velocity=15 time=0
EXTRACT: note_off channel=0 note=65 velocity=15 time=0
EXTRACT: note_off channel=0 note=60 velocity=15 time=0
EXTRACT: note_off channel=0 note=53 velocity=15 time=0
EXTRACT: note_on channel=0 note=64 velocity=15 time=0
EXTRACT: note_on channel=0 note=59 velocity=15 time=0
EXTRACT: note_on channel=0 note=55 velocity=15 time=0
EXTRACT: note_on channel=0 note=50 velocity=15 time=0
EXTRACT: note_on channel=0 note=45 velocity=15 time=0
EXTRACT: note_off channel=2 note=53 velocity=15 time=0
EXTRACT: note_on channel=2 note=56 velocity=15 time=0
EXTRACT: note_off channel=5 note=70 velocity=95 time=0
EXTRACT: note_on channel=4 note=68 velocity=95 time=0
EXTRACT: note_off channel=0 note=64 velocity=15 time=0.031249995833333332
EXTRACT: note_off channel=0 note=59 velocity=15 time=0
EXTRACT: note_off channel=0 note=55 velocity=15 time=0
EXTRACT: note_off channel=0 note=50 velocity=15 time=0
EXTRACT: note_off channel=0 note=45 velocity=15 time=0
EXTRACT: note_on channel=0 note=64 velocity=15 time=0.11298075416666667
EXTRACT: note_on channel=0 note=59 velocity=15 time=0
EXTRACT: note_on channel=0 note=55 velocity=15 time=0
EXTRACT: note_on channel=0 note=50 velocity=15 time=0
EXTRACT: note_on channel=0 note=45 velocity=15 time=0
EXTRACT: note_off channel=0 note=64 velocity=15 time=0.031249995833333332
EXTRACT: note_off channel=0 note=59 velocity=15 time=0
EXTRACT: note_off channel=0 note=55 velocity=15 time=0
EXTRACT: note_off channel=0 note=50 velocity=15 time=0
EXTRACT: note_off channel=0 note=45 velocity=15 time=0
EXTRACT: note_off channel=2 note=56 velocity=15 time=0.11298075416666667
EXTRACT: note_off channel=4 note=68 velocity=95 time=0
