EXTRACT: sysex data=(126,127,9,1) time=0
EXTRACT: sysex data=(65,16,66,18,64,0,127,0,65) time=0.0010416666666666667
EXTRACT: sysex data=(65,16,66,18,64,1,51,80,60) time=0.0010416666666666667
EXTRACT: sysex data=(65,16,66,18,64,1,52,100,39) time=0.0010416666666666667
EXTRACT: sysex data=(65,16,66,18,64,1,0,32,40,99,41,32,69,77,80,32,115,114,108,32,32,32,32,120) time=0.0010416666666666667
EXTRACT: control_change channel=1 control=121 value=0 time=0.697674
EXTRACT: control_change channel=2 control=121 value=0 time=0
EXTRACT: control_change channel=9 control=121 value=0 time=0
EXTRACT: control_change channel=1 control=0 value=0 time=0.002906975
EXTRACT: control_change channel=1 control=32 value=0 time=0.0014534875
EXTRACT: program_change channel=1 program=38 time=0
EXTRACT: control_change channel=1 control=7 value=120 time=0.0014534875
EXTRACT: control_change channel=1 control=10 value=64 time=0
EXTRACT: control_change channel=1 control=91 value=10 time=0
EXTRACT: control_change channel=1 control=93 value=0 time=0
EXTRACT: control_change channel=2 control=0 value=0 time=0.0014534875
EXTRACT: control_change channel=2 control=32 value=0 time=0
EXTRACT: program_change channel=2 program=49 time=0.0014534875
EXTRACT: control_change channel=2 control=7 value=70 time=0
EXTRACT: control_change channel=2 control=10 value=64 time=0
EXTRACT: control_change channel=2 control=91 value=40 time=0
EXTRACT: control_change channel=2 control=93 value=10 time=0
EXTRACT: control_change channel=3 control=0 value=0 time=0.0014534875
EXTRACT: control_change channel=3 control=32 value=0 time=0.0014534875
EXTRACT: program_change channel=3 program=82 time=0
EXTRACT: control_change channel=3 control=7 value=100 time=0.0014534875
EXTRACT: control_change channel=3 control=10 value=64 time=0
EXTRACT: control_change channel=3 control=91 value=20 time=0
EXTRACT: control_change channel=3 control=93 value=0 time=0
EXTRACT: control_change channel=4 control=0 value=0 time=0.0014534875
EXTRACT: control_change channel=4 control=32 value=0 time=0
EXTRACT: program_change channel=4 program=53 time=0.0014534875
EXTRACT: control_change channel=4 control=7 value=100 time=0
EXTRACT: control_change channel=4 control=10 value=64 time=0
EXTRACT: control_change channel=4 control=91 value=40 time=0
EXTRACT: control_change channel=4 control=93 value=0 time=0
EXTRACT: control_change channel=5 control=0 value=0 time=0.0014534875
EXTRACT: control_change channel=5 control=32 value=0 time=0.0014534875
EXTRACT: program_change channel=5 program=79 time=0
EXTRACT: control_change channel=5 control=7 value=80 time=0.0014534875
EXTRACT: control_change channel=5 control=10 value=64 time=0
EXTRACT: control_change channel=5 control=91 value=40 time=0
EXTRACT: control_change channel=5 control=93 value=20 time=0
EXTRACT: control_change channel=6 control=0 value=0 time=0.0014534875
EXTRACT: control_change channel=6 control=32 value=0 time=0
EXTRACT: program_change channel=6 program=0 time=0.0014534875
EXTRACT: control_change channel=6 control=7 value=80 time=0
EXTRACT: control_change channel=6 control=10 value=64 time=0
EXTRACT: control_change channel=6 control=91 value=40 time=0
EXTRACT: control_change channel=6 control=93 value=0 time=0
EXTRACT: control_change channel=7 control=0 value=0 time=0.0014534875
EXTRACT: control_change channel=7 control=32 value=5 time=0.0014534875
EXTRACT: program_change channel=7 program=124 time=0
EXTRACT: control_change channel=7 control=7 value=80 time=0.0014534875
EXTRACT: control_change channel=7 control=10 value=64 time=0
EXTRACT: control_change channel=7 control=91 value=40 time=0
EXTRACT: control_change channel=7 control=93 value=0 time=0
EXTRACT: control_change channel=1 control=11 value=127 time=0.0014534875
EXTRACT: control_change channel=2 control=11 value=127 time=0
EXTRACT: control_change channel=8 control=0 value=0 time=0
EXTRACT: control_change channel=9 control=11 value=127 time=0
EXTRACT: control_change channel=8 control=32 value=1 time=0
EXTRACT: program_change channel=8 program=80 time=0.0014534875
EXTRACT: control_change channel=8 control=7 value=60 time=0
EXTRACT: control_change channel=8 control=10 value=64 time=0
EXTRACT: control_change channel=8 control=91 value=40 time=0
EXTRACT: control_change channel=8 control=93 value=0 time=0
EXTRACT: program_change channel=9 program=0 time=0.002906975
EXTRACT: control_change channel=9 control=7 value=120 time=0.0014534875
EXTRACT: control_change channel=9 control=91 value=30 time=0
EXTRACT: control_change channel=9 control=93 value=0 time=0
EXTRACT: control_change channel=10 control=0 value=0 time=0.0014534875
EXTRACT: control_change channel=10 control=32 value=0 time=0
EXTRACT: program_change channel=10 program=17 time=0.0014534875
EXTRACT: control_change channel=10 control=7 value=60 time=0
EXTRACT: control_change channel=10 control=10 value=64 time=0
EXTRACT: control_change channel=10 control=91 value=40 time=0
EXTRACT: control_change channel=10 control=93 value=0 time=0
EXTRACT: control_change channel=11 control=0 value=0 time=0.0014534875
EXTRACT: control_change channel=11 control=32 value=0 time=0.0014534875
EXTRACT: program_change channel=11 program=47 time=0
EXTRACT: control_change channel=11 control=7 value=80 time=0.0014534875
EXTRACT: control_change channel=11 control=10 value=64 time=0
EXTRACT: control_change channel=11 control=91 value=40 time=0
EXTRACT: control_change channel=11 control=93 value=0 time=0
EXTRACT: pitchwheel channel=1 pitch=0 time=0.0014534875
EXTRACT: pitchwheel channel=2 pitch=0 time=0
EXTRACT: pitchwheel channel=9 pitch=0 time=0
EXTRACT: control_change channel=3 control=121 value=0 time=0.08720925
EXTRACT: control_change channel=11 control=121 value=0 time=0
EXTRACT: control_change channel=3 control=11 value=127 time=0.02906975
EXTRACT: control_change channel=11 control=11 value=127 time=0
EXTRACT: pitchwheel channel=3 pitch=0 time=0.014534875
EXTRACT: pitchwheel channel=11 pitch=0 time=0
EXTRACT: control_change channel=9 control=99 value=24 time=0.3444765375
EXTRACT: control_change channel=9 control=98 value=36 time=0.0014534875
EXTRACT: control_change channel=9 control=6 value=74 time=0.0014534875
EXTRACT: control_change channel=9 control=38 value=0 time=0.0014534875
EXTRACT: control_change channel=1 control=99 value=1 time=0.1700580375
EXTRACT: control_change channel=1 control=98 value=33 time=0.0014534875
EXTRACT: control_change channel=1 control=6 value=59 time=0.0014534875
EXTRACT: control_change channel=1 control=38 value=0 time=0.0014534875
EXTRACT: control_change channel=7 control=121 value=0 time=0.0218023125
EXTRACT: control_change channel=7 control=11 value=127 time=0.02906975
EXTRACT: pitchwheel channel=7 pitch=0 time=0.014534875
EXTRACT: control_change channel=4 control=121 value=0 time=0.0218023125
EXTRACT: control_change channel=5 control=121 value=0 time=0
EXTRACT: control_change channel=6 control=121 value=0 time=0
EXTRACT: control_change channel=8 control=121 value=0 time=0
EXTRACT: control_change channel=10 control=121 value=0 time=0
EXTRACT: control_change channel=4 control=11 value=127 time=0.02906975
EXTRACT: control_change channel=5 control=11 value=127 time=0
EXTRACT: control_change channel=6 control=11 value=127 time=0
EXTRACT: control_change channel=8 control=11 value=127 time=0
EXTRACT: control_change channel=10 control=11 value=127 time=0
EXTRACT: pitchwheel channel=4 pitch=0 time=0.014534875
EXTRACT: pitchwheel channel=5 pitch=0 time=0
EXTRACT: pitchwheel channel=6 pitch=0 time=0
EXTRACT: pitchwheel channel=8 pitch=0 time=0
EXTRACT: pitchwheel channel=10 pitch=0 time=0
EXTRACT: control_change channel=2 control=99 value=1 time=0.0392441625
EXTRACT: control_change channel=2 control=98 value=32 time=0.0014534875
EXTRACT: control_change channel=2 control=6 value=74 time=0.0014534875
EXTRACT: control_change channel=2 control=38 value=0 time=0.0014534875
EXTRACT: control_change channel=1 control=99 value=1 time=0.1700580375
EXTRACT: control_change channel=1 control=98 value=32 time=0.0014534875
EXTRACT: control_change channel=1 control=6 value=39 time=0.0014534875
EXTRACT: control_change channel=1 control=38 value=0 time=0.0014534875
EXTRACT: control_change channel=5 control=99 value=1 time=0.1700580375
EXTRACT: control_change channel=5 control=98 value=32 time=0.0014534875
EXTRACT: control_change channel=5 control=6 value=24 time=0.0014534875
EXTRACT: control_change channel=5 control=38 value=0 time=0.0014534875
EXTRACT: control_change channel=6 control=99 value=1 time=0
EXTRACT: control_change channel=6 control=98 value=32 time=0.0014534875
EXTRACT: control_change channel=6 control=6 value=84 time=0.0014534875
EXTRACT: control_change channel=6 control=38 value=0 time=0.0014534875
EXTRACT: control_change channel=9 control=99 value=24 time=0
EXTRACT: control_change channel=9 control=98 value=39 time=0.0014534875
EXTRACT: control_change channel=9 control=6 value=74 time=0.0014534875
EXTRACT: control_change channel=9 control=38 value=0 time=0.0014534875
EXTRACT: control_change channel=8 control=99 value=1 time=0.1613371125
EXTRACT: control_change channel=8 control=98 value=32 time=0.0014534875
EXTRACT: control_change channel=8 control=6 value=94 time=0.0014534875
EXTRACT: control_change channel=8 control=38 value=0 time=0.0014534875
EXTRACT: control_change channel=10 control=99 value=1 time=0
EXTRACT: control_change channel=10 control=98 value=32 time=0.0014534875
EXTRACT: control_change channel=10 control=6 value=74 time=0.0014534875
EXTRACT: control_change channel=10 control=38 value=0 time=0.0014534875
EXTRACT: control_change channel=7 control=99 value=1 time=0.165697575
EXTRACT: control_change channel=7 control=98 value=102 time=0.0014534875
EXTRACT: control_change channel=7 control=6 value=89 time=0.0014534875
EXTRACT: control_change channel=7 control=38 value=0 time=0.0014534875
EXTRACT: control_change channel=8 control=5 value=30 time=0.1744185
EXTRACT: control_change channel=10 control=5 value=30 time=0
EXTRACT: control_change channel=7 control=99 value=1 time=0.1700580375
EXTRACT: control_change channel=7 control=98 value=99 time=0.0014534875
EXTRACT: control_change channel=7 control=6 value=84 time=0.0014534875
EXTRACT: control_change channel=7 control=38 value=0 time=0.0014534875
EXTRACT: control_change channel=8 control=65 value=127 time=0
EXTRACT: control_change channel=10 control=65 value=127 time=0
EXTRACT: note_on channel=7 note=49 velocity=62 time=2.9651145
EXTRACT: note_on channel=7 note=55 velocity=62 time=0.697674
EXTRACT: note_on channel=7 note=49 velocity=0 time=0.380813725
EXTRACT: note_on channel=7 note=60 velocity=62 time=0.316860275
EXTRACT: note_on channel=7 note=55 velocity=0 time=0.380813725
EXTRACT: note_on channel=7 note=67 velocity=62 time=0.316860275
EXTRACT: control_change channel=2 control=7 value=34 time=0.348837
EXTRACT: control_change channel=6 control=7 value=34 time=0
EXTRACT: note_on channel=7 note=60 velocity=0 time=0.031976725
EXTRACT: note_on channel=7 note=72 velocity=51 time=0.316860275
EXTRACT: note_on channel=7 note=67 velocity=0 time=0.380813725
EXTRACT: note_on channel=7 note=79 velocity=42 time=0.316860275
EXTRACT: note_on channel=7 note=72 velocity=0 time=0.380813725
EXTRACT: note_on channel=7 note=84 velocity=37 time=0.316860275
EXTRACT: note_on channel=7 note=79 velocity=0 time=0.380813725
EXTRACT: note_on channel=7 note=84 velocity=0 time=0.697674
EXTRACT: note_on channel=2 note=65 velocity=80 time=0.316860275
EXTRACT: control_change channel=2 control=7 value=33 time=0
EXTRACT: note_on channel=6 note=82 velocity=88 time=0
EXTRACT: note_on channel=6 note=86 velocity=86 time=0
EXTRACT: note_on channel=6 note=94 velocity=91 time=0
EXTRACT: control_change channel=6 control=7 value=33 time=0
EXTRACT: control_change channel=6 control=64 value=127 time=0
EXTRACT: control_change channel=2 control=7 value=35 time=0.08720925
EXTRACT: control_change channel=6 control=7 value=35 time=0
EXTRACT: control_change channel=2 control=7 value=36 time=0.08720925
EXTRACT: control_change channel=6 control=7 value=36 time=0
EXTRACT: note_on channel=6 note=82 velocity=0 time=0.0828487875
EXTRACT: control_change channel=2 control=7 value=38 time=0.0043604625000000004
EXTRACT: control_change channel=6 control=7 value=38 time=0
EXTRACT: note_on channel=6 note=86 velocity=0 time=0.0479650875
EXTRACT: note_on channel=6 note=94 velocity=0 time=0.0392441625
EXTRACT: control_change channel=2 control=7 value=39 time=0
EXTRACT: control_change channel=6 control=7 value=39 time=0
EXTRACT: note_on channel=6 note=89 velocity=81 time=0
EXTRACT: note_on channel=6 note=89 velocity=0 time=0.07558135
EXTRACT: control_change channel=2 control=7 value=41 time=0.0116279
EXTRACT: control_change channel=6 control=7 value=41 time=0
EXTRACT: control_change channel=2 control=7 value=43 time=0.08720925
EXTRACT: control_change channel=6 control=7 value=43 time=0
EXTRACT: control_change channel=2 control=7 value=44 time=0.08720925
EXTRACT: control_change channel=6 control=7 value=44 time=0
EXTRACT: control_change channel=2 control=7 value=46 time=0.08720925
EXTRACT: note_on channel=6 note=82 velocity=86 time=0
EXTRACT: control_change channel=6 control=7 value=46 time=0
EXTRACT: note_on channel=6 note=89 velocity=92 time=0
EXTRACT: control_change channel=6 control=64 value=0 time=0.0799418125
EXTRACT: control_change channel=2 control=7 value=47 time=0.0072674375
EXTRACT: control_change channel=6 control=7 value=47 time=0
EXTRACT: control_change channel=2 control=7 value=49 time=0.08720925
EXTRACT: control_change channel=6 control=7 value=49 time=0
EXTRACT: control_change channel=6 control=64 value=127 time=0.0116279
EXTRACT: control_change channel=2 control=7 value=51 time=0.07558135
EXTRACT: control_change channel=6 control=7 value=51 time=0
EXTRACT: note_on channel=6 note=82 velocity=0 time=0.0479650875
EXTRACT: control_change channel=2 control=7 value=52 time=0.0392441625
EXTRACT: control_change channel=6 control=7 value=52 time=0
EXTRACT: note_on channel=6 note=86 velocity=94 time=0
EXTRACT: note_on channel=6 note=89 velocity=0 time=0.014534875
EXTRACT: control_change channel=2 control=7 value=54 time=0.072674375
EXTRACT: control_change channel=6 control=7 value=54 time=0
EXTRACT: note_on channel=6 note=86 velocity=0 time=0.0043604625000000004
EXTRACT: control_change channel=2 control=7 value=56 time=0.0828487875
EXTRACT: control_change channel=6 control=7 value=56 time=0
EXTRACT: control_change channel=2 control=7 value=57 time=0.08720925
EXTRACT: control_change channel=6 control=7 value=57 time=0
EXTRACT: control_change channel=2 control=7 value=59 time=0.08720925
EXTRACT: note_on channel=6 note=77 velocity=85 time=0
EXTRACT: control_change channel=6 control=7 value=59 time=0
EXTRACT: note_on channel=6 note=84 velocity=75 time=0
EXTRACT: control_change channel=6 control=64 value=0 time=0.0712208875
EXTRACT: control_change channel=2 control=7 value=60 time=0.0159883625
EXTRACT: control_change channel=6 control=7 value=60 time=0
EXTRACT: control_change channel=2 control=7 value=62 time=0.08720925
EXTRACT: control_change channel=6 control=7 value=62 time=0
EXTRACT: control_change channel=6 control=64 value=127 time=0.0566860125
EXTRACT: control_change channel=2 control=7 value=64 time=0.0305232375
EXTRACT: control_change channel=6 control=7 value=64 time=0
EXTRACT: note_on channel=6 note=84 velocity=0 time=0.0828487875
EXTRACT: control_change channel=2 control=7 value=65 time=0.0043604625000000004
EXTRACT: control_change channel=6 control=7 value=65 time=0
EXTRACT: note_on channel=6 note=81 velocity=63 time=0
EXTRACT: control_change channel=2 control=7 value=67 time=0.08720925
EXTRACT: control_change channel=6 control=7 value=67 time=0
EXTRACT: control_change channel=2 control=7 value=69 time=0.08720925
EXTRACT: control_change channel=6 control=7 value=69 time=0
EXTRACT: control_change channel=2 control=7 value=70 time=0.08720925
EXTRACT: control_change channel=6 control=7 value=70 time=0
EXTRACT: note_on channel=6 note=77 velocity=0 time=0.0188953375
EXTRACT: note_on channel=6 note=81 velocity=0 time=0.043604625
EXTRACT: control_change channel=2 control=7 value=72 time=0.0247092875
EXTRACT: note_on channel=6 note=81 velocity=85 time=0
EXTRACT: control_change channel=6 control=7 value=72 time=0
EXTRACT: note_on channel=6 note=89 velocity=94 time=0
EXTRACT: control_change channel=2 control=7 value=73 time=0.08720925
EXTRACT: control_change channel=6 control=7 value=73 time=0
EXTRACT: control_change channel=2 control=7 value=75 time=0.08720925
EXTRACT: control_change channel=6 control=7 value=75 time=0
EXTRACT: control_change channel=2 control=7 value=77 time=0.08720925
EXTRACT: control_change channel=6 control=7 value=77 time=0
EXTRACT: note_on channel=6 note=89 velocity=0 time=0.0799418125
EXTRACT: control_change channel=2 control=7 value=78 time=0.0072674375
EXTRACT: control_change channel=6 control=7 value=78 time=0
EXTRACT: note_on channel=6 note=84 velocity=96 time=0
EXTRACT: note_on channel=6 note=84 velocity=0 time=0.2543603125
EXTRACT: control_change channel=2 control=7 value=79 time=0.0072674375
EXTRACT: control_change channel=6 control=7 value=79 time=0
EXTRACT: note_on channel=6 note=81 velocity=0 time=0.0188953375
EXTRACT: control_change channel=2 control=7 value=80 time=0.0683139125
EXTRACT: control_change channel=6 control=64 value=0 time=0.026162775
EXTRACT: control_change channel=6 control=64 value=127 time=0.0101744125
EXTRACT: note_on channel=6 note=82 velocity=90 time=0.3124998125
EXTRACT: note_on channel=2 note=63 velocity=80 time=0.34302305
EXTRACT: note_on channel=6 note=82 velocity=0 time=0.002906975
EXTRACT: note_on channel=2 note=65 velocity=0 time=0
EXTRACT: note_on channel=6 note=79 velocity=83 time=0.002906975
EXTRACT: note_on channel=6 note=87 velocity=91 time=0
EXTRACT: note_on channel=2 note=63 velocity=0 time=0.340116075
EXTRACT: note_on channel=6 note=82 velocity=76 time=0.008720925000000001
EXTRACT: note_on channel=2 note=65 velocity=80 time=0.0014534875
EXTRACT: note_on channel=6 note=79 velocity=0 time=0.002906975
EXTRACT: note_on channel=6 note=87 velocity=0 time=0.0508720625
EXTRACT: note_on channel=6 note=82 velocity=0 time=0.107558075
EXTRACT: note_on channel=2 note=63 velocity=80 time=0.177325475
EXTRACT: note_on channel=2 note=65 velocity=0 time=0.008720925000000001
EXTRACT: control_change channel=6 control=64 value=0 time=0.0159883625
EXTRACT: note_on channel=2 note=63 velocity=0 time=0.322674225
EXTRACT: note_on channel=2 note=62 velocity=80 time=0.0043604625000000004
EXTRACT: note_on channel=6 note=79 velocity=87 time=0.00581395
EXTRACT: control_change channel=6 control=64 value=127 time=0.037790675
EXTRACT: note_on channel=6 note=79 velocity=0 time=0.2441859
EXTRACT: note_on channel=6 note=87 velocity=90 time=0.05232555
EXTRACT: note_on channel=6 note=79 velocity=85 time=0.002906975
EXTRACT: note_on channel=2 note=62 velocity=0 time=0.0043604625000000004
EXTRACT: note_on channel=2 note=60 velocity=80 time=0.0014534875
EXTRACT: note_on channel=6 note=79 velocity=0 time=0.21511615
EXTRACT: note_on channel=6 note=87 velocity=0 time=0.0508720625
EXTRACT: note_on channel=6 note=77 velocity=58 time=0.0712208875
EXTRACT: note_on channel=6 note=84 velocity=87 time=0.002906975
EXTRACT: note_on channel=2 note=60 velocity=0 time=0.00581395
EXTRACT: note_on channel=6 note=81 velocity=76 time=0
EXTRACT: note_on channel=2 note=58 velocity=80 time=0.002906975
EXTRACT: note_on channel=9 note=84 velocity=72 time=0.18023245
EXTRACT: note_on channel=9 note=84 velocity=0 time=0
EXTRACT: note_on channel=6 note=84 velocity=0 time=0.1090115625
EXTRACT: note_on channel=6 note=81 velocity=0 time=0.0072674375
EXTRACT: note_on channel=6 note=77 velocity=0 time=0.020348825
EXTRACT: control_change channel=6 control=64 value=0 time=0.008720925000000001
EXTRACT: note_on channel=2 note=58 velocity=0 time=0.0218023125
EXTRACT: note_on channel=2 note=53 velocity=80 time=0.002906975
EXTRACT: note_on channel=6 note=82 velocity=88 time=0.0043604625000000004
EXTRACT: note_on channel=6 note=86 velocity=86 time=0
EXTRACT: note_on channel=6 note=94 velocity=91 time=0
EXTRACT: control_change channel=6 control=64 value=127 time=0
EXTRACT: control_change channel=2 control=7 value=78 time=0.08720925
EXTRACT: control_change channel=2 control=7 value=76 time=0.08720925
EXTRACT: note_on channel=6 note=82 velocity=0 time=0.0828487875
EXTRACT: control_change channel=2 control=7 value=74 time=0.0043604625000000004
EXTRACT: note_on channel=6 note=86 velocity=0 time=0.0479650875
EXTRACT: note_on channel=6 note=94 velocity=0 time=0.0392441625
EXTRACT: control_change channel=2 control=7 value=72 time=0
EXTRACT: note_on channel=6 note=89 velocity=81 time=0
EXTRACT: note_on channel=6 note=89 velocity=0 time=0.07558135
EXTRACT: control_change channel=2 control=7 value=70 time=0.0116279
EXTRACT: control_change channel=2 control=7 value=68 time=0.08720925
EXTRACT: note_on channel=8 note=77 velocity=85 time=0.0392441625
EXTRACT: note_on channel=10 note=65 velocity=95 time=0
EXTRACT: control_change channel=2 control=7 value=66 time=0.0479650875
EXTRACT: note_on channel=8 note=86 velocity=85 time=0.0392441625
EXTRACT: note_on channel=10 note=74 velocity=95 time=0
EXTRACT: note_on channel=10 note=65 velocity=0 time=0.0072674375
EXTRACT: note_on channel=8 note=77 velocity=0 time=0
EXTRACT: control_change channel=2 control=7 value=64 time=0.04069765
EXTRACT: note_on channel=6 note=82 velocity=86 time=0
EXTRACT: note_on channel=6 note=89 velocity=92 time=0
EXTRACT: control_change channel=6 control=64 value=0 time=0.0799418125
EXTRACT: control_change channel=2 control=7 value=62 time=0.0072674375
EXTRACT: control_change channel=2 control=7 value=60 time=0.08720925
EXTRACT: control_change channel=6 control=64 value=127 time=0.0116279
EXTRACT: control_change channel=2 control=7 value=58 time=0.07558135
EXTRACT: note_on channel=10 note=74 velocity=0 time=0.031976725
EXTRACT: note_on channel=8 note=86 velocity=0 time=0
EXTRACT: note_on channel=8 note=87 velocity=85 time=0.014534875
EXTRACT: note_on channel=10 note=75 velocity=95 time=0
EXTRACT: note_on channel=6 note=82 velocity=0 time=0.0014534875
EXTRACT: control_change channel=2 control=7 value=56 time=0.0392441625
EXTRACT: note_on channel=6 note=86 velocity=94 time=0
EXTRACT: note_on channel=6 note=89 velocity=0 time=0.014534875
EXTRACT: control_change channel=2 control=7 value=54 time=0.072674375
EXTRACT: note_on channel=6 note=86 velocity=0 time=0.0043604625000000004
EXTRACT: control_change channel=2 control=7 value=52 time=0.0828487875
EXTRACT: control_change channel=2 control=7 value=50 time=0.08720925
EXTRACT: note_on channel=8 note=89 velocity=85 time=0.049418575
EXTRACT: note_on channel=10 note=77 velocity=95 time=0
EXTRACT: note_on channel=10 note=75 velocity=0 time=0.0043604625000000004
EXTRACT: note_on channel=8 note=87 velocity=0 time=0
EXTRACT: control_change channel=2 control=7 value=48 time=0.0334302125
EXTRACT: note_on channel=6 note=77 velocity=85 time=0
EXTRACT: note_on channel=6 note=84 velocity=75 time=0
EXTRACT: control_change channel=6 control=64 value=0 time=0.0712208875
EXTRACT: control_change channel=2 control=7 value=46 time=0.0159883625
EXTRACT: control_change channel=2 control=7 value=44 time=0.08720925
EXTRACT: control_change channel=6 control=64 value=127 time=0.0566860125
EXTRACT: control_change channel=2 control=7 value=42 time=0.0305232375
EXTRACT: note_on channel=6 note=84 velocity=0 time=0.0828487875
EXTRACT: control_change channel=2 control=7 value=40 time=0.0043604625000000004
EXTRACT: note_on channel=6 note=81 velocity=63 time=0
EXTRACT: control_change channel=2 control=7 value=38 time=0.08720925
EXTRACT: control_change channel=2 control=7 value=36 time=0.08720925
EXTRACT: note_on channel=10 note=77 velocity=0 time=0.0828487875
EXTRACT: note_on channel=8 note=89 velocity=0 time=0
EXTRACT: control_change channel=2 control=7 value=34 time=0.0043604625000000004
EXTRACT: note_on channel=8 note=84 velocity=85 time=0
EXTRACT: note_on channel=10 note=72 velocity=95 time=0
EXTRACT: note_on channel=6 note=77 velocity=0 time=0.0188953375
EXTRACT: note_on channel=6 note=81 velocity=0 time=0.043604625
EXTRACT: note_on channel=8 note=86 velocity=85 time=0.0188953375
EXTRACT: note_on channel=10 note=74 velocity=95 time=0
EXTRACT: control_change channel=2 control=7 value=32 time=0.00581395
EXTRACT: note_on channel=6 note=81 velocity=85 time=0
EXTRACT: note_on channel=6 note=89 velocity=94 time=0
EXTRACT: note_on channel=10 note=72 velocity=0 time=0.0305232375
EXTRACT: note_on channel=8 note=84 velocity=0 time=0
EXTRACT: control_change channel=2 control=7 value=29 time=0.0566860125
EXTRACT: note_on channel=8 note=82 velocity=85 time=0.0654069375
EXTRACT: note_on channel=10 note=70 velocity=95 time=0
EXTRACT: note_on channel=10 note=74 velocity=0 time=0.008720925000000001
EXTRACT: note_on channel=8 note=86 velocity=0 time=0
EXTRACT: control_change channel=2 control=7 value=27 time=0.0130813875
EXTRACT: control_change channel=2 control=7 value=25 time=0.08720925
EXTRACT: note_on channel=6 note=89 velocity=0 time=0.0799418125
EXTRACT: control_change channel=2 control=7 value=23 time=0.0072674375
EXTRACT: note_on channel=6 note=84 velocity=96 time=0
EXTRACT: control_change channel=2 control=7 value=21 time=0.08720925
EXTRACT: control_change channel=2 control=7 value=19 time=0.08720925
EXTRACT: note_on channel=6 note=84 velocity=0 time=0.0799418125
EXTRACT: control_change channel=2 control=7 value=17 time=0.0072674375
EXTRACT: note_on channel=6 note=81 velocity=0 time=0.0188953375
EXTRACT: note_on channel=2 note=53 velocity=0 time=0.0624999625
EXTRACT: note_on channel=7 note=49 velocity=62 time=0.00581395
EXTRACT: control_change channel=6 control=64 value=0 time=0.026162775
EXTRACT: control_change channel=6 control=64 value=127 time=0.0101744125
EXTRACT: pitchwheel channel=5 pitch=-6656 time=0.066860425
EXTRACT: pitchwheel channel=5 pitch=-7296 time=0.00581395
EXTRACT: pitchwheel channel=5 pitch=-8064 time=0.00581395
EXTRACT: note_on channel=6 note=82 velocity=90 time=0.2340114875
EXTRACT: note_on channel=6 note=79 velocity=90 time=0
EXTRACT: note_on channel=8 note=82 velocity=0 time=0.017441850000000002
EXTRACT: note_on channel=10 note=70 velocity=0 time=0
EXTRACT: note_on channel=6 note=82 velocity=0 time=0.328488175
EXTRACT: note_on channel=6 note=79 velocity=0 time=0
EXTRACT: note_on channel=6 note=87 velocity=91 time=0.002906975
EXTRACT: note_on channel=7 note=55 velocity=62 time=0
EXTRACT: note_on channel=6 note=82 velocity=76 time=0.348837
EXTRACT: note_on channel=7 note=49 velocity=0 time=0.031976725
EXTRACT: note_on channel=6 note=87 velocity=0 time=0.0232558
EXTRACT: note_on channel=6 note=82 velocity=0 time=0.20348825
EXTRACT: note_on channel=6 note=82 velocity=97 time=0.0813953
EXTRACT: note_on channel=7 note=60 velocity=62 time=0.008720925000000001
EXTRACT: control_change channel=6 control=64 value=0 time=0.0159883625
EXTRACT: note_on channel=6 note=94 velocity=76 time=0.072674375
EXTRACT: note_on channel=7 note=55 velocity=0 time=0.2921509875
EXTRACT: control_change channel=6 control=64 value=127 time=0.00581395
EXTRACT: note_on channel=11 note=46 velocity=50 time=0.30813935
EXTRACT: note_on channel=7 note=67 velocity=62 time=0.002906975
EXTRACT: note_on channel=11 note=46 velocity=0 time=0.0828487875
EXTRACT: note_on channel=11 note=46 velocity=58 time=0.090116225
EXTRACT: note_on channel=11 note=46 velocity=0 time=0.0857557625
EXTRACT: note_on channel=11 note=46 velocity=72 time=0.08720925
EXTRACT: note_on channel=7 note=60 velocity=0 time=0.034883700000000004
EXTRACT: note_on channel=11 note=46 velocity=0 time=0.0508720625
EXTRACT: note_on channel=11 note=46 velocity=78 time=0.0886627375
EXTRACT: note_on channel=11 note=46 velocity=0 time=0.0857557625
EXTRACT: control_change channel=6 control=64 value=0 time=0.0624999625
EXTRACT: note_on channel=6 note=94 velocity=0 time=0.0159883625
EXTRACT: note_on channel=6 note=82 velocity=0 time=0.002906975
EXTRACT: note_on channel=11 note=46 velocity=92 time=0.0072674375
EXTRACT: note_on channel=1 note=34 velocity=107 time=0.002906975
EXTRACT: note_on channel=7 note=72 velocity=51 time=0
EXTRACT: control_change channel=6 control=64 value=127 time=0.0813953
EXTRACT: note_on channel=11 note=46 velocity=0 time=0.0014534875
EXTRACT: note_on channel=6 note=86 velocity=82 time=0.264534725
EXTRACT: note_on channel=6 note=77 velocity=68 time=0
EXTRACT: note_on channel=7 note=67 velocity=0 time=0.0334302125
EXTRACT: note_on channel=1 note=34 velocity=0 time=0.0813953
EXTRACT: note_on channel=6 note=86 velocity=0 time=0.0363371875
EXTRACT: note_on channel=6 note=77 velocity=0 time=0.0014534875
EXTRACT: note_on channel=6 note=82 velocity=71 time=0.1962208125
EXTRACT: note_on channel=6 note=89 velocity=75 time=0
EXTRACT: note_on channel=5 note=70 velocity=78 time=0.0014534875
EXTRACT: note_on channel=5 note=74 velocity=78 time=0
EXTRACT: note_on channel=7 note=79 velocity=42 time=0
EXTRACT: pitchwheel channel=5 pitch=-6784 time=0.034883700000000004
EXTRACT: pitchwheel channel=5 pitch=-5120 time=0.00581395
EXTRACT: pitchwheel channel=5 pitch=-3584 time=0.00581395
EXTRACT: pitchwheel channel=5 pitch=-1792 time=0.00581395
EXTRACT: pitchwheel channel=5 pitch=-384 time=0.0072674375
EXTRACT: pitchwheel channel=5 pitch=0 time=0.00581395
EXTRACT: note_on channel=6 note=89 velocity=0 time=0.06976740000000001
EXTRACT: note_on channel=6 note=82 velocity=0 time=0.0450581125
EXTRACT: note_on channel=6 note=86 velocity=78 time=0.16860455
EXTRACT: note_on channel=7 note=72 velocity=0 time=0.031976725
EXTRACT: note_on channel=6 note=86 velocity=0 time=0.1046511
EXTRACT: note_on channel=5 note=70 velocity=0 time=0.2093022
EXTRACT: note_on channel=5 note=74 velocity=0 time=0
EXTRACT: note_on channel=6 note=77 velocity=71 time=0.0014534875
EXTRACT: note_on channel=6 note=84 velocity=81 time=0
EXTRACT: note_on channel=1 note=34 velocity=107 time=0.0014534875
EXTRACT: note_on channel=5 note=69 velocity=78 time=0
EXTRACT: note_on channel=5 note=72 velocity=78 time=0
EXTRACT: note_on channel=7 note=84 velocity=37 time=0
EXTRACT: control_change channel=6 control=64 value=127 time=0.0276162625
EXTRACT: control_change channel=6 control=64 value=0 time=0.0363371875
EXTRACT: control_change channel=6 control=64 value=127 time=0.0813953
EXTRACT: note_on channel=6 note=84 velocity=0 time=0.171511525
EXTRACT: note_on channel=6 note=77 velocity=0 time=0.008720925000000001
EXTRACT: note_on channel=6 note=81 velocity=78 time=0.0232558
EXTRACT: note_on channel=7 note=79 velocity=0 time=0.031976725
EXTRACT: note_on channel=1 note=34 velocity=0 time=0.0813953
EXTRACT: note_on channel=6 note=81 velocity=0 time=0.031976725
EXTRACT: note_on channel=6 note=89 velocity=70 time=0.20348825
EXTRACT: note_on channel=6 note=89 velocity=0 time=0.21511615
EXTRACT: note_on channel=6 note=84 velocity=72 time=0.13372085
EXTRACT: note_on channel=7 note=84 velocity=0 time=0.031976725
EXTRACT: note_on channel=6 note=84 velocity=0 time=0.0944766875
EXTRACT: control_change channel=6 control=64 value=0 time=0.2049417375
EXTRACT: note_on channel=5 note=69 velocity=0 time=0.014534875
EXTRACT: note_on channel=5 note=72 velocity=0 time=0
EXTRACT: note_on channel=1 note=34 velocity=101 time=0.002906975
EXTRACT: note_on channel=5 note=67 velocity=78 time=0
EXTRACT: note_on channel=5 note=70 velocity=78 time=0
EXTRACT: control_change channel=6 control=64 value=0 time=0.0188953375
EXTRACT: note_on channel=6 note=82 velocity=75 time=0.3270346875
EXTRACT: note_on channel=1 note=34 velocity=0 time=0.116279
EXTRACT: note_on channel=6 note=87 velocity=81 time=0.2340114875
EXTRACT: note_on channel=6 note=79 velocity=73 time=0
EXTRACT: control_change channel=6 control=64 value=127 time=0.020348825
EXTRACT: note_on channel=6 note=82 velocity=0 time=0.0276162625
EXTRACT: note_on channel=6 note=87 velocity=0 time=0.2805230875
EXTRACT: note_on channel=6 note=82 velocity=73 time=0.0218023125
EXTRACT: note_on channel=6 note=79 velocity=0 time=0.002906975
EXTRACT: control_change channel=6 control=64 value=0 time=0.2747091375
EXTRACT: note_on channel=6 note=82 velocity=0 time=0.02906975
EXTRACT: note_on channel=5 note=67 velocity=0 time=0.0392441625
EXTRACT: note_on channel=1 note=34 velocity=105 time=0.002906975
EXTRACT: note_on channel=5 note=66 velocity=78 time=0
EXTRACT: note_on channel=6 note=78 velocity=70 time=0.348837
EXTRACT: note_on channel=1 note=34 velocity=0 time=0.113372025
EXTRACT: note_on channel=6 note=87 velocity=83 time=0.2340114875
EXTRACT: note_on channel=4 note=82 velocity=78 time=0.0014534875
EXTRACT: note_on channel=6 note=82 velocity=71 time=0
EXTRACT: note_on channel=6 note=78 velocity=0 time=0.0276162625
EXTRACT: note_on channel=4 note=82 velocity=0 time=0.20348825
EXTRACT: note_on channel=4 note=81 velocity=78 time=0.0014534875
EXTRACT: control_change channel=6 control=64 value=127 time=0.0043604625000000004
EXTRACT: note_on channel=6 note=82 velocity=0 time=0.1090115625
EXTRACT: note_on channel=6 note=78 velocity=78 time=0.002906975
EXTRACT: note_on channel=6 note=87 velocity=0 time=0.1031976125
EXTRACT: note_on channel=4 note=81 velocity=0 time=0.0116279
EXTRACT: note_on channel=4 note=79 velocity=78 time=0.0014534875
EXTRACT: note_on channel=6 note=78 velocity=0 time=0.0886627375
EXTRACT: note_on channel=5 note=70 velocity=0 time=0.1409882875
EXTRACT: note_on channel=5 note=66 velocity=0 time=0
EXTRACT: note_on channel=4 note=79 velocity=0 time=0.0014534875
EXTRACT: note_on channel=1 note=34 velocity=102 time=0.0014534875
EXTRACT: note_on channel=4 note=77 velocity=78 time=0.0014534875
EXTRACT: control_change channel=6 control=64 value=0 time=0.04069765
EXTRACT: pitchwheel channel=5 pitch=-6656 time=0.061046475
EXTRACT: pitchwheel channel=5 pitch=-7296 time=0.00581395
EXTRACT: pitchwheel channel=5 pitch=-8064 time=0.00581395
EXTRACT: note_on channel=4 note=77 velocity=0 time=0.1177324875
EXTRACT: note_on channel=4 note=74 velocity=78 time=0.0014534875
EXTRACT: control_change channel=6 control=64 value=127 time=0.1046511
EXTRACT: note_on channel=6 note=86 velocity=83 time=0.0072674375
EXTRACT: note_on channel=6 note=77 velocity=60 time=0.0014534875
EXTRACT: note_on channel=1 note=34 velocity=0 time=0.1148255125
EXTRACT: note_on channel=4 note=74 velocity=0 time=0.0014534875
EXTRACT: note_on channel=4 note=72 velocity=78 time=0.002906975
EXTRACT: note_on channel=6 note=77 velocity=0 time=0.0770348375
EXTRACT: note_on channel=6 note=86 velocity=0 time=0.008720925000000001
EXTRACT: note_on channel=6 note=82 velocity=80 time=0.142441775
EXTRACT: note_on channel=4 note=72 velocity=0 time=0.002906975
EXTRACT: note_on channel=5 note=70 velocity=78 time=0
EXTRACT: note_on channel=5 note=74 velocity=78 time=0
EXTRACT: note_on channel=6 note=74 velocity=67 time=0
EXTRACT: note_on channel=4 note=70 velocity=78 time=0.0014534875
EXTRACT: pitchwheel channel=5 pitch=-6784 time=0.0334302125
EXTRACT: pitchwheel channel=5 pitch=-5120 time=0.00581395
EXTRACT: pitchwheel channel=5 pitch=-3584 time=0.00581395
EXTRACT: pitchwheel channel=5 pitch=-1792 time=0.00581395
EXTRACT: pitchwheel channel=5 pitch=-384 time=0.0072674375
EXTRACT: pitchwheel channel=5 pitch=0 time=0.00581395
EXTRACT: note_on channel=6 note=74 velocity=0 time=0.066860425
EXTRACT: note_on channel=6 note=82 velocity=0 time=0.0043604625000000004
EXTRACT: note_on channel=6 note=77 velocity=73 time=0.2093022
EXTRACT: note_on channel=6 note=70 velocity=73 time=0.002906975
EXTRACT: note_on channel=6 note=77 velocity=0 time=0.30813935
EXTRACT: note_on channel=6 note=70 velocity=0 time=0.002906975
EXTRACT: note_on channel=5 note=70 velocity=0 time=0.034883700000000004
EXTRACT: note_on channel=5 note=74 velocity=0 time=0
EXTRACT: note_on channel=1 note=34 velocity=105 time=0.002906975
EXTRACT: note_on channel=5 note=69 velocity=78 time=0
EXTRACT: note_on channel=5 note=72 velocity=78 time=0
EXTRACT: note_on channel=6 note=72 velocity=85 time=0
EXTRACT: control_change channel=6 control=64 value=0 time=0.02906975
EXTRACT: control_change channel=6 control=64 value=127 time=0.014534875
EXTRACT: note_on channel=4 note=70 velocity=0 time=0.188953375
EXTRACT: note_on channel=6 note=69 velocity=80 time=0.116279
EXTRACT: note_on channel=6 note=72 velocity=0 time=0.0276162625
EXTRACT: note_on channel=1 note=34 velocity=0 time=0.0857557625
EXTRACT: note_on channel=6 note=69 velocity=0 time=0.0188953375
EXTRACT: note_on channel=3 note=58 velocity=70 time=0.212209175
EXTRACT: note_on channel=6 note=84 velocity=85 time=0.002906975
EXTRACT: note_on channel=6 note=77 velocity=73 time=0.0014534875
EXTRACT: note_on channel=3 note=58 velocity=0 time=0.1671510625
EXTRACT: note_on channel=6 note=84 velocity=0 time=0.0276162625
EXTRACT: note_on channel=6 note=77 velocity=0 time=0.0043604625000000004
EXTRACT: note_on channel=3 note=58 velocity=72 time=0.02906975
EXTRACT: note_on channel=6 note=81 velocity=82 time=0.1206394625
EXTRACT: note_on channel=6 note=81 velocity=0 time=0.15697665
EXTRACT: note_on channel=3 note=58 velocity=0 time=0.1293603875
EXTRACT: control_change channel=6 control=64 value=0 time=0.0334302125
EXTRACT: note_on channel=6 note=53 velocity=81 time=0.0218023125
EXTRACT: note_on channel=5 note=69 velocity=0 time=0.0043604625000000004
EXTRACT: note_on channel=5 note=72 velocity=0 time=0
EXTRACT: note_on channel=1 note=29 velocity=107 time=0.002906975
EXTRACT: note_on channel=5 note=67 velocity=78 time=0
EXTRACT: note_on channel=5 note=70 velocity=78 time=0
EXTRACT: note_on channel=6 note=67 velocity=87 time=0.00581395
EXTRACT: note_on channel=6 note=70 velocity=82 time=0.0014534875
EXTRACT: note_on channel=6 note=63 velocity=73 time=0
EXTRACT: control_change channel=6 control=64 value=127 time=0.014534875
EXTRACT: note_on channel=6 note=53 velocity=0 time=0.27325565
EXTRACT: note_on channel=6 note=67 velocity=0 time=0.0581395
EXTRACT: note_on channel=6 note=70 velocity=0 time=0.0014534875
EXTRACT: note_on channel=6 note=63 velocity=0 time=0
EXTRACT: note_on channel=1 note=29 velocity=0 time=0.107558075
EXTRACT: control_change channel=6 control=64 value=0 time=0.194767325
EXTRACT: note_on channel=6 note=53 velocity=77 time=0.031976725
EXTRACT: note_on channel=6 note=69 velocity=80 time=0.0014534875
EXTRACT: note_on channel=6 note=72 velocity=77 time=0.0014534875
EXTRACT: note_on channel=6 note=65 velocity=66 time=0.0014534875
EXTRACT: note_on channel=5 note=67 velocity=0 time=0.0014534875
EXTRACT: note_on channel=5 note=70 velocity=0 time=0
EXTRACT: note_on channel=1 note=29 velocity=112 time=0.002906975
EXTRACT: note_on channel=5 note=69 velocity=78 time=0
EXTRACT: note_on channel=5 note=72 velocity=78 time=0
EXTRACT: control_change channel=6 control=64 value=127 time=0.14534875
EXTRACT: note_on channel=6 note=65 velocity=0 time=0.159883625
EXTRACT: note_on channel=6 note=69 velocity=0 time=0.0276162625
EXTRACT: note_on channel=6 note=72 velocity=0 time=0.002906975
EXTRACT: note_on channel=6 note=53 velocity=0 time=0.0159883625
EXTRACT: note_on channel=1 note=29 velocity=0 time=0.11046505
EXTRACT: control_change channel=6 control=64 value=0 time=0.218023125
EXTRACT: note_on channel=6 note=70 velocity=76 time=0.0101744125
EXTRACT: note_on channel=6 note=67 velocity=83 time=0.0014534875
EXTRACT: note_on channel=6 note=53 velocity=80 time=0.0014534875
EXTRACT: note_on channel=5 note=69 velocity=0 time=0.0014534875
EXTRACT: note_on channel=5 note=72 velocity=0 time=0
EXTRACT: note_on channel=6 note=74 velocity=84 time=0
EXTRACT: note_on channel=1 note=29 velocity=106 time=0.002906975
EXTRACT: note_on channel=5 note=70 velocity=78 time=0
EXTRACT: note_on channel=5 note=74 velocity=78 time=0
EXTRACT: control_change channel=6 control=64 value=127 time=0.1627906
EXTRACT: note_on channel=6 note=74 velocity=0 time=0.08720925
EXTRACT: note_on channel=6 note=67 velocity=0 time=0.0072674375
EXTRACT: note_on channel=6 note=70 velocity=0 time=0.00581395
EXTRACT: note_on channel=6 note=53 velocity=0 time=0.014534875
EXTRACT: note_on channel=1 note=29 velocity=0 time=0.1845929125
EXTRACT: control_change channel=6 control=64 value=0 time=0.20348825
EXTRACT: note_on channel=5 note=70 velocity=0 time=0.02906975
EXTRACT: note_on channel=5 note=74 velocity=0 time=0
EXTRACT: note_on channel=6 note=53 velocity=76 time=0
EXTRACT: note_on channel=1 note=29 velocity=113 time=0.002906975
EXTRACT: note_on channel=5 note=72 velocity=78 time=0
EXTRACT: note_on channel=5 note=75 velocity=76 time=0
EXTRACT: note_on channel=6 note=70 velocity=86 time=0
EXTRACT: note_on channel=6 note=67 velocity=75 time=0
EXTRACT: note_on channel=6 note=75 velocity=84 time=0
EXTRACT: control_change channel=6 control=64 value=127 time=0.101744125
EXTRACT: note_on channel=5 note=75 velocity=0 time=0.06976740000000001
EXTRACT: note_on channel=5 note=74 velocity=71 time=0.002906975
EXTRACT: note_on channel=6 note=67 velocity=0 time=0.05232555
EXTRACT: note_on channel=6 note=70 velocity=0 time=0.002906975
EXTRACT: note_on channel=6 note=53 velocity=0 time=0.0072674375
EXTRACT: note_on channel=6 note=75 velocity=0 time=0
EXTRACT: note_on channel=5 note=74 velocity=0 time=0.1090115625
EXTRACT: note_on channel=5 note=75 velocity=76 time=0.002906975
EXTRACT: note_on channel=1 note=29 velocity=0 time=0.113372025
EXTRACT: note_on channel=5 note=75 velocity=0 time=0.0581395
EXTRACT: note_on channel=5 note=77 velocity=75 time=0.0043604625000000004
EXTRACT: control_change channel=6 control=64 value=0 time=0.0813953
EXTRACT: note_on channel=5 note=72 velocity=0 time=0.0886627375
EXTRACT: note_on channel=5 note=77 velocity=0 time=0.002906975
EXTRACT: note_on channel=1 note=34 velocity=127 time=0
EXTRACT: note_on channel=9 note=36 velocity=116 time=0
EXTRACT: note_on channel=9 note=36 velocity=0 time=0
EXTRACT: control_change channel=6 control=64 value=127 time=0.0813953
EXTRACT: pitchwheel channel=5 pitch=-6656 time=0.0218023125
EXTRACT: pitchwheel channel=5 pitch=-7296 time=0.00581395
EXTRACT: pitchwheel channel=5 pitch=-8064 time=0.00581395
EXTRACT: note_on channel=6 note=86 velocity=82 time=0.232558
EXTRACT: note_on channel=6 note=77 velocity=68 time=0
EXTRACT: note_on channel=9 note=69 velocity=88 time=0.0014534875
EXTRACT: note_on channel=9 note=69 velocity=0 time=0
EXTRACT: note_on channel=6 note=86 velocity=0 time=0.1497092125
EXTRACT: note_on channel=6 note=77 velocity=0 time=0.0014534875
EXTRACT: note_on channel=9 note=69 velocity=82 time=0.0232558
EXTRACT: note_on channel=9 note=69 velocity=0 time=0
EXTRACT: note_on channel=1 note=34 velocity=0 time=0.13953480000000001
EXTRACT: note_on channel=6 note=82 velocity=71 time=0.0334302125
EXTRACT: note_on channel=6 note=89 velocity=75 time=0
EXTRACT: note_on channel=5 note=70 velocity=78 time=0.0014534875
EXTRACT: note_on channel=5 note=74 velocity=78 time=0
EXTRACT: note_on channel=9 note=39 velocity=126 time=0
EXTRACT: note_on channel=9 note=39 velocity=0 time=0
EXTRACT: pitchwheel channel=5 pitch=-6784 time=0.034883700000000004
EXTRACT: pitchwheel channel=5 pitch=-5120 time=0.00581395
EXTRACT: pitchwheel channel=5 pitch=-3584 time=0.00581395
EXTRACT: pitchwheel channel=5 pitch=-1792 time=0.00581395
EXTRACT: pitchwheel channel=5 pitch=-384 time=0.0072674375
EXTRACT: pitchwheel channel=5 pitch=0 time=0.00581395
EXTRACT: note_on channel=6 note=89 velocity=0 time=0.06976740000000001
EXTRACT: note_on channel=3 note=70 velocity=72 time=0.0392441625
EXTRACT: note_on channel=6 note=82 velocity=0 time=0.00581395
EXTRACT: note_on channel=3 note=70 velocity=0 time=0.072674375
EXTRACT: note_on channel=3 note=70 velocity=70 time=0.0944766875
EXTRACT: note_on channel=6 note=86 velocity=78 time=0.0014534875
EXTRACT: note_on channel=3 note=70 velocity=0 time=0.07558135
EXTRACT: note_on channel=6 note=86 velocity=0 time=0.061046475
EXTRACT: note_on channel=3 note=70 velocity=72 time=0.0363371875
EXTRACT: note_on channel=1 note=34 velocity=103 time=0.0014534875
EXTRACT: note_on channel=9 note=36 velocity=75 time=0
EXTRACT: note_on channel=9 note=36 velocity=0 time=0
EXTRACT: note_on channel=1 note=34 velocity=0 time=0.0624999625
EXTRACT: note_on channel=3 note=70 velocity=0 time=0.037790675
EXTRACT: note_on channel=5 note=70 velocity=0 time=0.0712208875
EXTRACT: note_on channel=5 note=74 velocity=0 time=0
EXTRACT: note_on channel=3 note=77 velocity=73 time=0.0014534875
EXTRACT: note_on channel=6 note=77 velocity=71 time=0
EXTRACT: note_on channel=6 note=84 velocity=81 time=0
EXTRACT: note_on channel=1 note=34 velocity=127 time=0.0014534875
EXTRACT: note_on channel=5 note=69 velocity=78 time=0
EXTRACT: note_on channel=5 note=72 velocity=78 time=0
EXTRACT: note_on channel=9 note=36 velocity=119 time=0
EXTRACT: note_on channel=9 note=36 velocity=0 time=0
EXTRACT: control_change channel=6 control=64 value=127 time=0.0276162625
EXTRACT: control_change channel=6 control=64 value=0 time=0.0363371875
EXTRACT: note_on channel=3 note=77 velocity=0 time=0.0392441625
EXTRACT: control_change channel=6 control=64 value=127 time=0.0421511375
EXTRACT: note_on channel=3 note=77 velocity=72 time=0.0276162625
EXTRACT: note_on channel=3 note=77 velocity=0 time=0.1031976125
EXTRACT: note_on channel=6 note=84 velocity=0 time=0.04069765
EXTRACT: note_on channel=6 note=77 velocity=0 time=0.008720925000000001
EXTRACT: note_on channel=3 note=77 velocity=72 time=0.020348825
EXTRACT: note_on channel=6 note=81 velocity=78 time=0.002906975
EXTRACT: note_on channel=9 note=36 velocity=108 time=0
EXTRACT: note_on channel=9 note=36 velocity=0 time=0
EXTRACT: note_on channel=9 note=69 velocity=85 time=0
EXTRACT: note_on channel=9 note=69 velocity=0 time=0
EXTRACT: note_on channel=3 note=77 velocity=0 time=0.090116225
EXTRACT: note_on channel=6 note=81 velocity=0 time=0.055232525
EXTRACT: note_on channel=3 note=77 velocity=72 time=0.0276162625
EXTRACT: note_on channel=9 note=69 velocity=81 time=0.0014534875
EXTRACT: note_on channel=9 note=69 velocity=0 time=0
EXTRACT: note_on channel=6 note=89 velocity=70 time=0.1744185
EXTRACT: note_on channel=9 note=39 velocity=123 time=0
EXTRACT: note_on channel=9 note=39 velocity=0 time=0
EXTRACT: note_on channel=1 note=34 velocity=0 time=0.0043604625000000004
EXTRACT: note_on channel=6 note=89 velocity=0 time=0.2107556875
EXTRACT: note_on channel=6 note=84 velocity=72 time=0.13372085
EXTRACT: note_on channel=3 note=77 velocity=0 time=0.008720925000000001
EXTRACT: note_on channel=6 note=84 velocity=0 time=0.1177324875
EXTRACT: control_change channel=6 control=64 value=0 time=0.2049417375
EXTRACT: note_on channel=5 note=72 velocity=0 time=0.014534875
EXTRACT: note_on channel=5 note=69 velocity=0 time=0
EXTRACT: note_on channel=1 note=34 velocity=121 time=0.002906975
EXTRACT: note_on channel=5 note=67 velocity=78 time=0
EXTRACT: note_on channel=5 note=70 velocity=78 time=0
EXTRACT: note_on channel=9 note=36 velocity=116 time=0
EXTRACT: note_on channel=9 note=36 velocity=0 time=0
EXTRACT: control_change channel=6 control=64 value=0 time=0.0188953375
EXTRACT: note_on channel=6 note=82 velocity=75 time=0.3270346875
EXTRACT: note_on channel=9 note=69 velocity=88 time=0.002906975
EXTRACT: note_on channel=9 note=69 velocity=0 time=0
EXTRACT: note_on channel=9 note=69 velocity=82 time=0.1744185
EXTRACT: note_on channel=9 note=69 velocity=0 time=0
EXTRACT: note_on channel=1 note=34 velocity=0 time=0.159883625
EXTRACT: note_on channel=6 note=87 velocity=81 time=0.0130813875
EXTRACT: note_on channel=6 note=79 velocity=73 time=0
EXTRACT: note_on channel=9 note=39 velocity=126 time=0.0014534875
EXTRACT: note_on channel=9 note=39 velocity=0 time=0
EXTRACT: control_change channel=6 control=64 value=127 time=0.0188953375
EXTRACT: note_on channel=6 note=82 velocity=0 time=0.0276162625
EXTRACT: note_on channel=3 note=77 velocity=70 time=0.1264534125
EXTRACT: note_on channel=3 note=77 velocity=0 time=0.08720925
EXTRACT: note_on channel=6 note=87 velocity=0 time=0.066860425
EXTRACT: note_on channel=3 note=77 velocity=70 time=0.0188953375
EXTRACT: note_on channel=6 note=82 velocity=73 time=0.002906975
EXTRACT: note_on channel=6 note=79 velocity=0 time=0.002906975
EXTRACT: note_on channel=3 note=77 velocity=0 time=0.1511627
EXTRACT: note_on channel=3 note=74 velocity=72 time=0.0188953375
EXTRACT: note_on channel=1 note=34 velocity=105 time=0.0014534875
EXTRACT: note_on channel=9 note=36 velocity=75 time=0
EXTRACT: note_on channel=9 note=36 velocity=0 time=0
EXTRACT: note_on channel=1 note=34 velocity=0 time=0.0537790375
EXTRACT: control_change channel=6 control=64 value=0 time=0.049418575
EXTRACT: note_on channel=6 note=82 velocity=0 time=0.02906975
EXTRACT: note_on channel=3 note=74 velocity=0 time=0.0188953375
EXTRACT: note_on channel=5 note=67 velocity=0 time=0.020348825
EXTRACT: note_on channel=1 note=34 velocity=121 time=0.002906975
EXTRACT: note_on channel=3 note=77 velocity=72 time=0
EXTRACT: note_on channel=5 note=66 velocity=78 time=0
EXTRACT: note_on channel=9 note=36 velocity=119 time=0
EXTRACT: note_on channel=9 note=36 velocity=0 time=0
EXTRACT: note_on channel=3 note=77 velocity=0 time=0.27906960000000003
EXTRACT: note_on channel=3 note=79 velocity=72 time=0.06976740000000001
EXTRACT: note_on channel=6 note=78 velocity=70 time=0
EXTRACT: note_on channel=9 note=36 velocity=108 time=0
EXTRACT: note_on channel=9 note=36 velocity=0 time=0
EXTRACT: note_on channel=9 note=69 velocity=85 time=0
EXTRACT: note_on channel=9 note=69 velocity=0 time=0
EXTRACT: note_on channel=9 note=69 velocity=81 time=0.1744185
EXTRACT: note_on channel=9 note=69 velocity=0 time=0
EXTRACT: note_on channel=3 note=79 velocity=0 time=0.0930232
EXTRACT: note_on channel=3 note=77 velocity=70 time=0.0799418125
EXTRACT: note_on channel=6 note=87 velocity=83 time=0
EXTRACT: note_on channel=4 note=82 velocity=78 time=0.0014534875
EXTRACT: note_on channel=6 note=82 velocity=71 time=0
EXTRACT: note_on channel=9 note=39 velocity=123 time=0
EXTRACT: note_on channel=9 note=39 velocity=0 time=0
EXTRACT: note_on channel=1 note=34 velocity=0 time=0.0043604625000000004
EXTRACT: note_on channel=6 note=78 velocity=0 time=0.0232558
EXTRACT: note_on channel=4 note=82 velocity=0 time=0.20348825
EXTRACT: note_on channel=4 note=81 velocity=78 time=0.0014534875
EXTRACT: control_change channel=6 control=64 value=127 time=0.0043604625000000004
EXTRACT: note_on channel=6 note=82 velocity=0 time=0.1090115625
EXTRACT: note_on channel=6 note=78 velocity=78 time=0.002906975
EXTRACT: note_on channel=3 note=77 velocity=0 time=0.0624999625
EXTRACT: note_on channel=6 note=87 velocity=0 time=0.04069765
EXTRACT: note_on channel=4 note=81 velocity=0 time=0.0116279
EXTRACT: note_on channel=4 note=79 velocity=78 time=0.0014534875
EXTRACT: note_on channel=9 note=84 velocity=76 time=0.0581395
EXTRACT: note_on channel=9 note=84 velocity=0 time=0
EXTRACT: note_on channel=6 note=78 velocity=0 time=0.0305232375
EXTRACT: note_on channel=5 note=70 velocity=0 time=0.1409882875
EXTRACT: note_on channel=5 note=66 velocity=0 time=0
EXTRACT: note_on channel=4 note=79 velocity=0 time=0.0014534875
EXTRACT: note_on channel=1 note=34 velocity=127 time=0.0014534875
EXTRACT: note_on channel=9 note=36 velocity=116 time=0
EXTRACT: note_on channel=9 note=36 velocity=0 time=0
EXTRACT: note_on channel=4 note=77 velocity=78 time=0.0014534875
EXTRACT: control_change channel=6 control=64 value=0 time=0.04069765
EXTRACT: pitchwheel channel=5 pitch=-6656 time=0.061046475
EXTRACT: pitchwheel channel=5 pitch=-7296 time=0.00581395
EXTRACT: pitchwheel channel=5 pitch=-8064 time=0.00581395
EXTRACT: note_on channel=3 note=70 velocity=72 time=0.0624999625
EXTRACT: note_on channel=4 note=77 velocity=0 time=0.055232525
EXTRACT: note_on channel=4 note=74 velocity=78 time=0.0014534875
EXTRACT: note_on channel=3 note=70 velocity=0 time=0.049418575
EXTRACT: control_change channel=6 control=64 value=127 time=0.055232525
EXTRACT: note_on channel=6 note=86 velocity=83 time=0.0072674375
EXTRACT: note_on channel=6 note=77 velocity=60 time=0.0014534875
EXTRACT: note_on channel=3 note=77 velocity=72 time=0.0014534875
EXTRACT: note_on channel=9 note=69 velocity=88 time=0
EXTRACT: note_on channel=9 note=69 velocity=0 time=0
EXTRACT: note_on channel=4 note=74 velocity=0 time=0.1148255125
EXTRACT: note_on channel=4 note=72 velocity=78 time=0.002906975
EXTRACT: note_on channel=9 note=69 velocity=82 time=0.0566860125
EXTRACT: note_on channel=9 note=69 velocity=0 time=0
EXTRACT: note_on channel=6 note=77 velocity=0 time=0.020348825
EXTRACT: note_on channel=6 note=86 velocity=0 time=0.008720925000000001
EXTRACT: note_on channel=3 note=77 velocity=0 time=0.0159883625
EXTRACT: note_on channel=1 note=34 velocity=0 time=0.1061045875
EXTRACT: note_on channel=6 note=82 velocity=80 time=0.020348825
EXTRACT: note_on channel=3 note=74 velocity=72 time=0.0014534875
EXTRACT: note_on channel=4 note=72 velocity=0 time=0.0014534875
EXTRACT: note_on channel=5 note=70 velocity=78 time=0
EXTRACT: note_on channel=5 note=74 velocity=78 time=0
EXTRACT: note_on channel=6 note=74 velocity=67 time=0
EXTRACT: note_on channel=9 note=39 velocity=126 time=0
EXTRACT: note_on channel=9 note=39 velocity=0 time=0
EXTRACT: note_on channel=4 note=70 velocity=78 time=0.0014534875
EXTRACT: pitchwheel channel=5 pitch=-6784 time=0.0334302125
EXTRACT: pitchwheel channel=5 pitch=-5120 time=0.00581395
EXTRACT: pitchwheel channel=5 pitch=-3584 time=0.00581395
EXTRACT: pitchwheel channel=5 pitch=-1792 time=0.00581395
EXTRACT: pitchwheel channel=5 pitch=-384 time=0.0072674375
EXTRACT: pitchwheel channel=5 pitch=0 time=0.00581395
EXTRACT: note_on channel=6 note=74 velocity=0 time=0.066860425
EXTRACT: note_on channel=6 note=82 velocity=0 time=0.0043604625000000004
EXTRACT: note_on channel=3 note=74 velocity=0 time=0.124999925
EXTRACT: note_on channel=6 note=77 velocity=73 time=0.084302275
EXTRACT: note_on channel=3 note=70 velocity=72 time=0.002906975
EXTRACT: note_on channel=6 note=70 velocity=73 time=0
EXTRACT: note_on channel=3 note=70 velocity=0 time=0.0944766875
EXTRACT: note_on channel=1 note=34 velocity=99 time=0.0799418125
EXTRACT: note_on channel=3 note=70 velocity=70 time=0
EXTRACT: note_on channel=9 note=36 velocity=75 time=0
EXTRACT: note_on channel=9 note=36 velocity=0 time=0
EXTRACT: note_on channel=1 note=34 velocity=0 time=0.055232525
EXTRACT: note_on channel=6 note=77 velocity=0 time=0.078488325
EXTRACT: note_on channel=6 note=70 velocity=0 time=0.002906975
EXTRACT: note_on channel=5 note=74 velocity=0 time=0.034883700000000004
EXTRACT: note_on channel=5 note=70 velocity=0 time=0
EXTRACT: note_on channel=1 note=34 velocity=127 time=0.002906975
EXTRACT: note_on channel=5 note=69 velocity=78 time=0
EXTRACT: note_on channel=5 note=72 velocity=78 time=0
EXTRACT: note_on channel=6 note=72 velocity=85 time=0
EXTRACT: note_on channel=9 note=36 velocity=119 time=0
EXTRACT: note_on channel=9 note=36 velocity=0 time=0
EXTRACT: control_change channel=6 control=64 value=0 time=0.02906975
EXTRACT: control_change channel=6 control=64 value=127 time=0.014534875
EXTRACT: note_on channel=3 note=70 velocity=0 time=0.084302275
EXTRACT: note_on channel=3 note=72 velocity=72 time=0.0450581125
EXTRACT: note_on channel=4 note=70 velocity=0 time=0.0595929875
EXTRACT: note_on channel=3 note=72 velocity=0 time=0.0973836625
EXTRACT: note_on channel=3 note=74 velocity=70 time=0.017441850000000002
EXTRACT: note_on channel=6 note=69 velocity=80 time=0.0014534875
EXTRACT: note_on channel=9 note=36 velocity=108 time=0
EXTRACT: note_on channel=9 note=36 velocity=0 time=0
EXTRACT: note_on channel=9 note=69 velocity=85 time=0
EXTRACT: note_on channel=9 note=69 velocity=0 time=0
EXTRACT: note_on channel=6 note=72 velocity=0 time=0.0276162625
EXTRACT: note_on channel=6 note=69 velocity=0 time=0.1046511
EXTRACT: note_on channel=9 note=69 velocity=81 time=0.0421511375
EXTRACT: note_on channel=9 note=69 velocity=0 time=0
EXTRACT: note_on channel=3 note=74 velocity=0 time=0.0537790375
EXTRACT: note_on channel=6 note=84 velocity=85 time=0.119185975
EXTRACT: note_on channel=3 note=74 velocity=72 time=0.0014534875
EXTRACT: note_on channel=6 note=77 velocity=73 time=0
EXTRACT: note_on channel=9 note=39 velocity=123 time=0
EXTRACT: note_on channel=9 note=39 velocity=0 time=0
EXTRACT: note_on channel=1 note=34 velocity=0 time=0.1090115625
EXTRACT: note_on channel=6 note=84 velocity=0 time=0.0857557625
EXTRACT: note_on channel=6 note=77 velocity=0 time=0.0043604625000000004
EXTRACT: note_on channel=3 note=72 velocity=70 time=0.1497092125
EXTRACT: note_on channel=6 note=81 velocity=82 time=0
EXTRACT: note_on channel=3 note=74 velocity=0 time=0.0188953375
EXTRACT: note_on channel=6 note=81 velocity=0 time=0.1380813125
EXTRACT: note_on channel=3 note=72 velocity=0 time=0.0712208875
EXTRACT: control_change channel=6 control=64 value=0 time=0.0915697125
EXTRACT: note_on channel=6 note=53 velocity=81 time=0.0218023125
EXTRACT: note_on channel=5 note=72 velocity=0 time=0.0043604625000000004
EXTRACT: note_on channel=5 note=69 velocity=0 time=0
EXTRACT: note_on channel=1 note=29 velocity=127 time=0.002906975
EXTRACT: note_on channel=5 note=67 velocity=78 time=0
EXTRACT: note_on channel=5 note=70 velocity=78 time=0
EXTRACT: note_on channel=7 note=49 velocity=62 time=0
EXTRACT: note_on channel=9 note=36 velocity=116 time=0
EXTRACT: note_on channel=9 note=36 velocity=0 time=0
EXTRACT: note_on channel=6 note=67 velocity=87 time=0.00581395
EXTRACT: note_on channel=6 note=70 velocity=82 time=0.0014534875
EXTRACT: note_on channel=6 note=63 velocity=73 time=0
EXTRACT: control_change channel=6 control=64 value=127 time=0.014534875
EXTRACT: note_on channel=3 note=77 velocity=72 time=0.1526161875
EXTRACT: note_on channel=3 note=77 velocity=0 time=0.1119185375
EXTRACT: note_on channel=6 note=53 velocity=0 time=0.008720925000000001
EXTRACT: note_on channel=9 note=69 velocity=88 time=0.0537790375
EXTRACT: note_on channel=9 note=69 velocity=0 time=0
EXTRACT: note_on channel=3 note=77 velocity=72 time=0.0014534875
EXTRACT: note_on channel=6 note=67 velocity=0 time=0.002906975
EXTRACT: note_on channel=6 note=63 velocity=0 time=0.0014534875
EXTRACT: note_on channel=6 note=70 velocity=0 time=0
EXTRACT: note_on channel=3 note=77 velocity=0 time=0.16860455
EXTRACT: note_on channel=3 note=74 velocity=71 time=0
EXTRACT: note_on channel=9 note=69 velocity=82 time=0
EXTRACT: note_on channel=9 note=69 velocity=0 time=0
EXTRACT: note_on channel=1 note=29 velocity=0 time=0.0508720625
EXTRACT: note_on channel=3 note=74 velocity=0 time=0.037790675
EXTRACT: control_change channel=6 control=64 value=0 time=0.0450581125
EXTRACT: note_on channel=6 note=53 velocity=77 time=0.031976725
EXTRACT: note_on channel=6 note=69 velocity=80 time=0.0014534875
EXTRACT: note_on channel=6 note=72 velocity=77 time=0.0014534875
EXTRACT: note_on channel=6 note=65 velocity=66 time=0.0014534875
EXTRACT: note_on channel=5 note=67 velocity=0 time=0.0014534875
EXTRACT: note_on channel=5 note=70 velocity=0 time=0
EXTRACT: note_on channel=1 note=29 velocity=126 time=0.002906975
EXTRACT: note_on channel=3 note=74 velocity=72 time=0
EXTRACT: note_on channel=5 note=69 velocity=78 time=0
EXTRACT: note_on channel=5 note=72 velocity=78 time=0
EXTRACT: note_on channel=7 note=55 velocity=62 time=0
EXTRACT: note_on channel=9 note=36 velocity=119 time=0
EXTRACT: note_on channel=9 note=36 velocity=0 time=0
EXTRACT: control_change channel=6 control=64 value=127 time=0.14534875
EXTRACT: note_on channel=6 note=65 velocity=0 time=0.159883625
EXTRACT: note_on channel=6 note=69 velocity=0 time=0.0276162625
EXTRACT: note_on channel=6 note=72 velocity=0 time=0.002906975
EXTRACT: note_on channel=3 note=74 velocity=0 time=0.0101744125
EXTRACT: note_on channel=3 note=72 velocity=71 time=0.002906975
EXTRACT: note_on channel=6 note=53 velocity=0 time=0.002906975
EXTRACT: note_on channel=7 note=49 velocity=0 time=0.02906975
EXTRACT: note_on channel=3 note=72 velocity=0 time=0.0566860125
EXTRACT: note_on channel=3 note=70 velocity=72 time=0.0857557625
EXTRACT: note_on channel=1 note=29 velocity=0 time=0.0450581125
EXTRACT: note_on channel=3 note=70 velocity=0 time=0.0363371875
EXTRACT: control_change channel=6 control=64 value=0 time=0.07558135
EXTRACT: note_on channel=6 note=70 velocity=76 time=0.0101744125
EXTRACT: note_on channel=6 note=67 velocity=83 time=0.0014534875
EXTRACT: note_on channel=6 note=53 velocity=80 time=0.0014534875
EXTRACT: note_on channel=5 note=72 velocity=0 time=0.0014534875
EXTRACT: note_on channel=5 note=69 velocity=0 time=0
EXTRACT: note_on channel=6 note=74 velocity=84 time=0
EXTRACT: note_on channel=1 note=29 velocity=127 time=0.002906975
EXTRACT: note_on channel=3 note=70 velocity=72 time=0
EXTRACT: note_on channel=5 note=70 velocity=78 time=0
EXTRACT: note_on channel=5 note=74 velocity=78 time=0
EXTRACT: note_on channel=7 note=60 velocity=62 time=0
EXTRACT: note_on channel=9 note=36 velocity=108 time=0
EXTRACT: note_on channel=9 note=36 velocity=0 time=0
EXTRACT: note_on channel=3 note=70 velocity=0 time=0.0813953
EXTRACT: control_change channel=6 control=64 value=127 time=0.0813953
EXTRACT: note_on channel=3 note=72 velocity=72 time=0.0116279
EXTRACT: note_on channel=6 note=74 velocity=0 time=0.07558135
EXTRACT: note_on channel=6 note=67 velocity=0 time=0.0072674375
EXTRACT: note_on channel=6 note=70 velocity=0 time=0.00581395
EXTRACT: note_on channel=6 note=53 velocity=0 time=0.014534875
EXTRACT: note_on channel=3 note=72 velocity=0 time=0.0159883625
EXTRACT: note_on channel=3 note=74 velocity=72 time=0.055232525
EXTRACT: note_on channel=9 note=69 velocity=85 time=0
EXTRACT: note_on channel=9 note=69 velocity=0 time=0
EXTRACT: note_on channel=7 note=55 velocity=0 time=0.031976725
EXTRACT: note_on channel=3 note=74 velocity=0 time=0.08720925
EXTRACT: note_on channel=3 note=74 velocity=72 time=0.0537790375
EXTRACT: note_on channel=9 note=69 velocity=81 time=0.0014534875
EXTRACT: note_on channel=9 note=69 velocity=0 time=0
EXTRACT: note_on channel=1 note=29 velocity=0 time=0.049418575
EXTRACT: control_change channel=6 control=64 value=0 time=0.0930232
EXTRACT: note_on channel=5 note=70 velocity=0 time=0.02906975
EXTRACT: note_on channel=5 note=74 velocity=0 time=0
EXTRACT: note_on channel=6 note=53 velocity=76 time=0
EXTRACT: note_on channel=1 note=29 velocity=127 time=0.002906975
EXTRACT: note_on channel=5 note=72 velocity=78 time=0
EXTRACT: note_on channel=5 note=75 velocity=76 time=0
EXTRACT: note_on channel=6 note=70 velocity=86 time=0
EXTRACT: note_on channel=6 note=67 velocity=75 time=0
EXTRACT: note_on channel=6 note=75 velocity=84 time=0
EXTRACT: note_on channel=7 note=67 velocity=62 time=0
EXTRACT: note_on channel=9 note=36 velocity=119 time=0
EXTRACT: note_on channel=9 note=36 velocity=0 time=0
EXTRACT: control_change channel=6 control=64 value=127 time=0.101744125
EXTRACT: note_on channel=5 note=75 velocity=0 time=0.06976740000000001
EXTRACT: note_on channel=3 note=72 velocity=72 time=0.0014534875
EXTRACT: note_on channel=5 note=74 velocity=71 time=0.0014534875
EXTRACT: note_on channel=3 note=74 velocity=0 time=0.0072674375
EXTRACT: note_on channel=6 note=67 velocity=0 time=0.0450581125
EXTRACT: note_on channel=6 note=70 velocity=0 time=0.002906975
EXTRACT: note_on channel=6 note=75 velocity=0 time=0.0072674375
EXTRACT: note_on channel=6 note=53 velocity=0 time=0
EXTRACT: note_on channel=5 note=74 velocity=0 time=0.1090115625
EXTRACT: note_on channel=5 note=75 velocity=76 time=0.002906975
EXTRACT: note_on channel=7 note=60 velocity=0 time=0.031976725
EXTRACT: note_on channel=5 note=75 velocity=0 time=0.13953480000000001
EXTRACT: note_on channel=5 note=77 velocity=75 time=0.0043604625000000004
EXTRACT: note_on channel=3 note=72 velocity=0 time=0.04069765
EXTRACT: note_on channel=1 note=29 velocity=0 time=0.020348825
EXTRACT: control_change channel=6 control=64 value=0 time=0.020348825
EXTRACT: note_on channel=5 note=72 velocity=0 time=0.0886627375
EXTRACT: note_on channel=5 note=77 velocity=0 time=0.002906975
EXTRACT: note_on channel=1 note=34 velocity=127 time=0
EXTRACT: note_on channel=7 note=72 velocity=51 time=0
EXTRACT: note_on channel=9 note=36 velocity=116 time=0
EXTRACT: note_on channel=9 note=36 velocity=0 time=0
EXTRACT: control_change channel=6 control=64 value=127 time=0.0813953
EXTRACT: pitchwheel channel=5 pitch=-6656 time=0.0218023125
EXTRACT: pitchwheel channel=5 pitch=-7296 time=0.00581395
EXTRACT: pitchwheel channel=5 pitch=-8064 time=0.00581395
EXTRACT: note_on channel=3 note=77 velocity=72 time=0.0581395
EXTRACT: note_on channel=6 note=86 velocity=82 time=0.1744185
EXTRACT: note_on channel=6 note=77 velocity=68 time=0
EXTRACT: note_on channel=9 note=69 velocity=88 time=0.0014534875
EXTRACT: note_on channel=9 note=69 velocity=0 time=0
EXTRACT: note_on channel=3 note=77 velocity=0 time=0.008720925000000001
EXTRACT: note_on channel=7 note=67 velocity=0 time=0.0232558
EXTRACT: note_on channel=6 note=86 velocity=0 time=0.1177324875
EXTRACT: note_on channel=6 note=77 velocity=0 time=0.0014534875
EXTRACT: note_on channel=3 note=77 velocity=72 time=0.0232558
EXTRACT: note_on channel=9 note=69 velocity=82 time=0
EXTRACT: note_on channel=9 note=69 velocity=0 time=0
EXTRACT: note_on channel=3 note=77 velocity=0 time=0.0930232
EXTRACT: note_on channel=1 note=34 velocity=0 time=0.0465116
EXTRACT: note_on channel=3 note=77 velocity=72 time=0.0334302125
EXTRACT: note_on channel=6 note=82 velocity=71 time=0
EXTRACT: note_on channel=6 note=89 velocity=75 time=0
EXTRACT: note_on channel=5 note=70 velocity=78 time=0.0014534875
EXTRACT: note_on channel=5 note=74 velocity=78 time=0
EXTRACT: note_on channel=7 note=79 velocity=42 time=0
EXTRACT: note_on channel=9 note=39 velocity=126 time=0
EXTRACT: note_on channel=9 note=39 velocity=0 time=0
EXTRACT: pitchwheel channel=5 pitch=-6784 time=0.034883700000000004
EXTRACT: pitchwheel channel=5 pitch=-5120 time=0.00581395
EXTRACT: pitchwheel channel=5 pitch=-3584 time=0.00581395
EXTRACT: pitchwheel channel=5 pitch=-1792 time=0.00581395
EXTRACT: pitchwheel channel=5 pitch=-384 time=0.0072674375
EXTRACT: pitchwheel channel=5 pitch=0 time=0.00581395
EXTRACT: note_on channel=6 note=89 velocity=0 time=0.06976740000000001
EXTRACT: note_on channel=6 note=82 velocity=0 time=0.0450581125
EXTRACT: note_on channel=3 note=77 velocity=0 time=0.148255725
EXTRACT: note_on channel=6 note=86 velocity=78 time=0.020348825
EXTRACT: note_on channel=3 note=70 velocity=72 time=0.002906975
EXTRACT: note_on channel=7 note=72 velocity=0 time=0.02906975
EXTRACT: note_on channel=6 note=86 velocity=0 time=0.1046511
EXTRACT: note_on channel=1 note=34 velocity=103 time=0.037790675
EXTRACT: note_on channel=9 note=36 velocity=75 time=0
EXTRACT: note_on channel=9 note=36 velocity=0 time=0
EXTRACT: note_on channel=3 note=70 velocity=0 time=0.017441850000000002
EXTRACT: note_on channel=1 note=34 velocity=0 time=0.0450581125
EXTRACT: note_on channel=5 note=74 velocity=0 time=0.1090115625
EXTRACT: note_on channel=5 note=70 velocity=0 time=0
EXTRACT: note_on channel=3 note=77 velocity=72 time=0.0014534875
EXTRACT: note_on channel=6 note=77 velocity=71 time=0
EXTRACT: note_on channel=6 note=84 velocity=81 time=0
EXTRACT: note_on channel=1 note=34 velocity=127 time=0.0014534875
EXTRACT: note_on channel=5 note=69 velocity=78 time=0
EXTRACT: note_on channel=5 note=72 velocity=78 time=0
EXTRACT: note_on channel=7 note=84 velocity=37 time=0
EXTRACT: note_on channel=9 note=36 velocity=119 time=0
EXTRACT: note_on channel=9 note=36 velocity=0 time=0
EXTRACT: control_change channel=6 control=64 value=127 time=0.0276162625
EXTRACT: control_change channel=6 control=64 value=0 time=0.0363371875
EXTRACT: control_change channel=6 control=64 value=127 time=0.0813953
EXTRACT: note_on channel=3 note=77 velocity=0 time=0.0930232
EXTRACT: note_on channel=6 note=84 velocity=0 time=0.078488325
EXTRACT: note_on channel=6 note=77 velocity=0 time=0.008720925000000001
EXTRACT: note_on channel=3 note=79 velocity=70 time=0.0232558
EXTRACT: note_on channel=6 note=81 velocity=78 time=0
EXTRACT: note_on channel=9 note=36 velocity=108 time=0
EXTRACT: note_on channel=9 note=36 velocity=0 time=0
EXTRACT: note_on channel=9 note=69 velocity=85 time=0
EXTRACT: note_on channel=9 note=69 velocity=0 time=0
EXTRACT: note_on channel=7 note=79 velocity=0 time=0.031976725
EXTRACT: note_on channel=3 note=79 velocity=0 time=0.1119185375
EXTRACT: note_on channel=6 note=81 velocity=0 time=0.0014534875
EXTRACT: note_on channel=9 note=69 velocity=81 time=0.02906975
EXTRACT: note_on channel=9 note=69 velocity=0 time=0
EXTRACT: note_on channel=3 note=77 velocity=70 time=0.0014534875
EXTRACT: note_on channel=6 note=89 velocity=70 time=0.1729650125
EXTRACT: note_on channel=9 note=39 velocity=123 time=0
EXTRACT: note_on channel=9 note=39 velocity=0 time=0
EXTRACT: note_on channel=1 note=34 velocity=0 time=0.0043604625000000004
EXTRACT: note_on channel=3 note=77 velocity=0 time=0.1264534125
EXTRACT: note_on channel=6 note=89 velocity=0 time=0.084302275
EXTRACT: note_on channel=3 note=74 velocity=72 time=0.1322673625
EXTRACT: note_on channel=6 note=84 velocity=72 time=0.0014534875
EXTRACT: note_on channel=7 note=84 velocity=0 time=0.031976725
EXTRACT: note_on channel=6 note=84 velocity=0 time=0.0944766875
EXTRACT: note_on channel=3 note=74 velocity=0 time=0.0014534875
EXTRACT: note_on channel=3 note=75 velocity=70 time=0.0479650875
EXTRACT: note_on channel=3 note=75 velocity=0 time=0.0930232
EXTRACT: control_change channel=6 control=64 value=0 time=0.0624999625
EXTRACT: note_on channel=5 note=72 velocity=0 time=0.014534875
EXTRACT: note_on channel=5 note=69 velocity=0 time=0
EXTRACT: note_on channel=3 note=77 velocity=70 time=0
EXTRACT: note_on channel=1 note=34 velocity=121 time=0.002906975
EXTRACT: note_on channel=5 note=67 velocity=78 time=0
EXTRACT: note_on channel=5 note=70 velocity=78 time=0
EXTRACT: note_on channel=9 note=36 velocity=116 time=0
EXTRACT: note_on channel=9 note=36 velocity=0 time=0
EXTRACT: control_change channel=6 control=64 value=0 time=0.0188953375
EXTRACT: note_on channel=3 note=77 velocity=0 time=0.0799418125
EXTRACT: note_on channel=3 note=77 velocity=70 time=0.07558135
EXTRACT: note_on channel=3 note=77 velocity=0 time=0.0930232
EXTRACT: note_on channel=6 note=82 velocity=75 time=0.078488325
EXTRACT: note_on channel=3 note=77 velocity=70 time=0.0014534875
EXTRACT: note_on channel=9 note=69 velocity=88 time=0.0014534875
EXTRACT: note_on channel=9 note=69 velocity=0 time=0
EXTRACT: note_on channel=3 note=77 velocity=0 time=0.0886627375
EXTRACT: note_on channel=3 note=77 velocity=70 time=0.0828487875
EXTRACT: note_on channel=9 note=69 velocity=82 time=0.002906975
EXTRACT: note_on channel=9 note=69 velocity=0 time=0
EXTRACT: note_on channel=3 note=77 velocity=0 time=0.0828487875
EXTRACT: note_on channel=1 note=34 velocity=0 time=0.0770348375
EXTRACT: note_on channel=3 note=77 velocity=68 time=0.0130813875
EXTRACT: note_on channel=6 note=87 velocity=81 time=0
EXTRACT: note_on channel=6 note=79 velocity=73 time=0
EXTRACT: note_on channel=9 note=39 velocity=126 time=0.0014534875
EXTRACT: note_on channel=9 note=39 velocity=0 time=0
EXTRACT: control_change channel=6 control=64 value=127 time=0.0188953375
EXTRACT: note_on channel=6 note=82 velocity=0 time=0.0276162625
EXTRACT: note_on channel=3 note=74 velocity=72 time=0.1351743375
EXTRACT: note_on channel=3 note=77 velocity=0 time=0.0334302125
EXTRACT: note_on channel=3 note=74 velocity=0 time=0.04069765
EXTRACT: note_on channel=6 note=87 velocity=0 time=0.0712208875
EXTRACT: note_on channel=3 note=74 velocity=70 time=0.020348825
EXTRACT: note_on channel=6 note=82 velocity=73 time=0.0014534875
EXTRACT: note_on channel=6 note=79 velocity=0 time=0.002906975
EXTRACT: note_on channel=3 note=74 velocity=0 time=0.15697665
EXTRACT: note_on channel=1 note=34 velocity=105 time=0.014534875
EXTRACT: note_on channel=9 note=36 velocity=75 time=0
EXTRACT: note_on channel=9 note=36 velocity=0 time=0
EXTRACT: note_on channel=3 note=75 velocity=68 time=0.008720925000000001
EXTRACT: note_on channel=1 note=34 velocity=0 time=0.0450581125
EXTRACT: control_change channel=6 control=64 value=0 time=0.049418575
EXTRACT: note_on channel=6 note=82 velocity=0 time=0.02906975
EXTRACT: note_on channel=3 note=75 velocity=0 time=0.0072674375
EXTRACT: note_on channel=5 note=67 velocity=0 time=0.031976725
EXTRACT: note_on channel=1 note=34 velocity=121 time=0.002906975
EXTRACT: note_on channel=5 note=66 velocity=78 time=0
EXTRACT: note_on channel=9 note=36 velocity=119 time=0
EXTRACT: note_on channel=9 note=36 velocity=0 time=0
EXTRACT: note_on channel=3 note=77 velocity=70 time=0.002906975
EXTRACT: note_on channel=3 note=77 velocity=0 time=0.3124998125
EXTRACT: note_on channel=3 note=79 velocity=70 time=0.0334302125
EXTRACT: note_on channel=6 note=78 velocity=70 time=0
EXTRACT: note_on channel=9 note=36 velocity=108 time=0
EXTRACT: note_on channel=9 note=36 velocity=0 time=0
EXTRACT: note_on channel=9 note=69 velocity=85 time=0
EXTRACT: note_on channel=9 note=69 velocity=0 time=0
EXTRACT: note_on channel=3 note=79 velocity=0 time=0.1438952625
EXTRACT: note_on channel=9 note=69 velocity=81 time=0.0305232375
EXTRACT: note_on channel=9 note=69 velocity=0 time=0
EXTRACT: note_on channel=3 note=77 velocity=71 time=0.002906975
EXTRACT: note_on channel=6 note=87 velocity=83 time=0.1700580375
EXTRACT: note_on channel=4 note=82 velocity=78 time=0.0014534875
EXTRACT: note_on channel=6 note=82 velocity=71 time=0
EXTRACT: note_on channel=9 note=39 velocity=123 time=0
EXTRACT: note_on channel=9 note=39 velocity=0 time=0
EXTRACT: note_on channel=1 note=34 velocity=0 time=0.0043604625000000004
EXTRACT: note_on channel=6 note=78 velocity=0 time=0.0232558
EXTRACT: note_on channel=3 note=77 velocity=0 time=0.101744125
EXTRACT: note_on channel=4 note=82 velocity=0 time=0.101744125
EXTRACT: note_on channel=4 note=81 velocity=78 time=0.0014534875
EXTRACT: control_change channel=6 control=64 value=127 time=0.0043604625000000004
EXTRACT: note_on channel=6 note=82 velocity=0 time=0.1090115625
EXTRACT: note_on channel=3 note=74 velocity=72 time=0.0014534875
EXTRACT: note_on channel=6 note=78 velocity=78 time=0.0014534875
EXTRACT: note_on channel=6 note=87 velocity=0 time=0.1031976125
EXTRACT: note_on channel=3 note=74 velocity=0 time=0.00581395
EXTRACT: note_on channel=4 note=81 velocity=0 time=0.00581395
EXTRACT: note_on channel=4 note=79 velocity=78 time=0.0014534875
EXTRACT: note_on channel=3 note=75 velocity=69 time=0.0566860125
EXTRACT: note_on channel=9 note=84 velocity=76 time=0.0014534875
EXTRACT: note_on channel=9 note=84 velocity=0 time=0
EXTRACT: note_on channel=6 note=78 velocity=0 time=0.0305232375
EXTRACT: note_on channel=3 note=75 velocity=0 time=0.0973836625
EXTRACT: note_on channel=5 note=66 velocity=0 time=0.043604625
EXTRACT: note_on channel=5 note=70 velocity=0 time=0
EXTRACT: note_on channel=4 note=79 velocity=0 time=0.0014534875
EXTRACT: note_on channel=3 note=77 velocity=70 time=0
EXTRACT: note_on channel=1 note=34 velocity=127 time=0.0014534875
EXTRACT: note_on channel=9 note=36 velocity=116 time=0
EXTRACT: note_on channel=9 note=36 velocity=0 time=0
EXTRACT: note_on channel=4 note=77 velocity=78 time=0.0014534875
EXTRACT: control_change channel=6 control=64 value=0 time=0.04069765
EXTRACT: pitchwheel channel=5 pitch=-6656 time=0.061046475
EXTRACT: pitchwheel channel=5 pitch=-7296 time=0.00581395
EXTRACT: pitchwheel channel=5 pitch=-8064 time=0.00581395
EXTRACT: note_on channel=4 note=77 velocity=0 time=0.1177324875
EXTRACT: note_on channel=4 note=74 velocity=78 time=0.0014534875
EXTRACT: note_on channel=3 note=77 velocity=0 time=0.0247092875
EXTRACT: control_change channel=6 control=64 value=127 time=0.0799418125
EXTRACT: note_on channel=3 note=77 velocity=70 time=0.0072674375
EXTRACT: note_on channel=6 note=86 velocity=83 time=0
EXTRACT: note_on channel=6 note=77 velocity=60 time=0.0014534875
EXTRACT: note_on channel=9 note=69 velocity=88 time=0.0014534875
EXTRACT: note_on channel=9 note=69 velocity=0 time=0
EXTRACT: note_on channel=3 note=77 velocity=0 time=0.0886627375
EXTRACT: note_on channel=4 note=74 velocity=0 time=0.026162775
EXTRACT: note_on channel=4 note=72 velocity=78 time=0.002906975
EXTRACT: note_on channel=3 note=77 velocity=70 time=0.0537790375
EXTRACT: note_on channel=9 note=69 velocity=82 time=0.002906975
EXTRACT: note_on channel=9 note=69 velocity=0 time=0
EXTRACT: note_on channel=6 note=77 velocity=0 time=0.020348825
EXTRACT: note_on channel=6 note=86 velocity=0 time=0.008720925000000001
EXTRACT: note_on channel=3 note=77 velocity=0 time=0.0363371875
EXTRACT: note_on channel=1 note=34 velocity=0 time=0.0857557625
EXTRACT: note_on channel=3 note=77 velocity=70 time=0.020348825
EXTRACT: note_on channel=6 note=82 velocity=80 time=0
EXTRACT: note_on channel=4 note=72 velocity=0 time=0.002906975
EXTRACT: note_on channel=5 note=70 velocity=78 time=0
EXTRACT: note_on channel=5 note=74 velocity=78 time=0
EXTRACT: note_on channel=6 note=74 velocity=67 time=0
EXTRACT: note_on channel=9 note=39 velocity=126 time=0
EXTRACT: note_on channel=9 note=39 velocity=0 time=0
EXTRACT: note_on channel=4 note=70 velocity=78 time=0.0014534875
EXTRACT: pitchwheel channel=5 pitch=-6784 time=0.0334302125
EXTRACT: pitchwheel channel=5 pitch=-5120 time=0.00581395
EXTRACT: pitchwheel channel=5 pitch=-3584 time=0.00581395
EXTRACT: pitchwheel channel=5 pitch=-1792 time=0.00581395
EXTRACT: pitchwheel channel=5 pitch=-384 time=0.0072674375
EXTRACT: pitchwheel channel=5 pitch=0 time=0.00581395
EXTRACT: note_on channel=3 note=77 velocity=0 time=0.061046475
EXTRACT: note_on channel=6 note=74 velocity=0 time=0.00581395
EXTRACT: note_on channel=6 note=82 velocity=0 time=0.0043604625000000004
EXTRACT: note_on channel=3 note=70 velocity=72 time=0.034883700000000004
EXTRACT: note_on channel=3 note=70 velocity=0 time=0.1031976125
EXTRACT: note_on channel=6 note=77 velocity=73 time=0.0712208875
EXTRACT: note_on channel=3 note=70 velocity=72 time=0.0014534875
EXTRACT: note_on channel=6 note=70 velocity=73 time=0.0014534875
EXTRACT: note_on channel=3 note=70 velocity=0 time=0.0930232
EXTRACT: note_on channel=3 note=70 velocity=72 time=0.0799418125
EXTRACT: note_on channel=1 note=34 velocity=99 time=0.0014534875
EXTRACT: note_on channel=9 note=36 velocity=75 time=0
EXTRACT: note_on channel=9 note=36 velocity=0 time=0
EXTRACT: note_on channel=1 note=34 velocity=0 time=0.055232525
EXTRACT: note_on channel=3 note=70 velocity=0 time=0.04069765
EXTRACT: note_on channel=6 note=77 velocity=0 time=0.037790675
EXTRACT: note_on channel=6 note=70 velocity=0 time=0.002906975
EXTRACT: note_on channel=5 note=70 velocity=0 time=0.034883700000000004
EXTRACT: note_on channel=5 note=74 velocity=0 time=0
EXTRACT: note_on channel=1 note=34 velocity=127 time=0.002906975
EXTRACT: note_on channel=3 note=77 velocity=69 time=0
EXTRACT: note_on channel=5 note=69 velocity=78 time=0
EXTRACT: note_on channel=5 note=72 velocity=78 time=0
EXTRACT: note_on channel=6 note=72 velocity=85 time=0
EXTRACT: note_on channel=9 note=36 velocity=119 time=0
EXTRACT: note_on channel=9 note=36 velocity=0 time=0
EXTRACT: control_change channel=6 control=64 value=0 time=0.02906975
EXTRACT: control_change channel=6 control=64 value=127 time=0.014534875
EXTRACT: note_on channel=3 note=77 velocity=0 time=0.06395345
EXTRACT: note_on channel=3 note=77 velocity=70 time=0.0654069375
EXTRACT: note_on channel=4 note=70 velocity=0 time=0.0595929875
EXTRACT: note_on channel=3 note=77 velocity=0 time=0.04069765
EXTRACT: note_on channel=3 note=77 velocity=70 time=0.072674375
EXTRACT: note_on channel=6 note=69 velocity=80 time=0.002906975
EXTRACT: note_on channel=9 note=36 velocity=108 time=0
EXTRACT: note_on channel=9 note=36 velocity=0 time=0
EXTRACT: note_on channel=9 note=69 velocity=85 time=0
EXTRACT: note_on channel=9 note=69 velocity=0 time=0
EXTRACT: note_on channel=6 note=72 velocity=0 time=0.0276162625
EXTRACT: note_on channel=3 note=77 velocity=0 time=0.07558135
EXTRACT: note_on channel=6 note=69 velocity=0 time=0.02906975
EXTRACT: note_on channel=3 note=77 velocity=70 time=0.04069765
EXTRACT: note_on channel=9 note=69 velocity=81 time=0.0014534875
EXTRACT: note_on channel=9 note=69 velocity=0 time=0
EXTRACT: note_on channel=3 note=77 velocity=0 time=0.09883715
EXTRACT: note_on channel=3 note=77 velocity=70 time=0.0741278625
EXTRACT: note_on channel=6 note=84 velocity=85 time=0
EXTRACT: note_on channel=6 note=77 velocity=73 time=0.0014534875
EXTRACT: note_on channel=9 note=39 velocity=123 time=0
EXTRACT: note_on channel=9 note=39 velocity=0 time=0
EXTRACT: note_on channel=1 note=34 velocity=0 time=0.1090115625
EXTRACT: note_on channel=3 note=77 velocity=0 time=0.0247092875
EXTRACT: note_on channel=3 note=70 velocity=70 time=0.0392441625
EXTRACT: note_on channel=6 note=84 velocity=0 time=0.0218023125
EXTRACT: note_on channel=6 note=77 velocity=0 time=0.0043604625000000004
EXTRACT: note_on channel=3 note=70 velocity=0 time=0.06976740000000001
EXTRACT: note_on channel=3 note=74 velocity=72 time=0.078488325
EXTRACT: note_on channel=6 note=81 velocity=82 time=0.0014534875
EXTRACT: note_on channel=3 note=74 velocity=0 time=0.1351743375
EXTRACT: note_on channel=6 note=81 velocity=0 time=0.0218023125
EXTRACT: note_on channel=3 note=75 velocity=69 time=0.017441850000000002
EXTRACT: note_on channel=3 note=75 velocity=0 time=0.1380813125
EXTRACT: control_change channel=6 control=64 value=0 time=0.0072674375
EXTRACT: note_on channel=6 note=53 velocity=81 time=0.0218023125
EXTRACT: note_on channel=5 note=72 velocity=0 time=0.0043604625000000004
EXTRACT: note_on channel=5 note=69 velocity=0 time=0
EXTRACT: note_on channel=1 note=29 velocity=127 time=0.002906975
EXTRACT: note_on channel=3 note=77 velocity=71 time=0
EXTRACT: note_on channel=5 note=67 velocity=78 time=0
EXTRACT: note_on channel=5 note=70 velocity=78 time=0
EXTRACT: note_on channel=7 note=49 velocity=62 time=0
EXTRACT: note_on channel=9 note=36 velocity=116 time=0
EXTRACT: note_on channel=9 note=36 velocity=0 time=0
EXTRACT: note_on channel=6 note=67 velocity=87 time=0.00581395
EXTRACT: note_on channel=6 note=70 velocity=82 time=0.0014534875
EXTRACT: note_on channel=6 note=63 velocity=73 time=0
EXTRACT: control_change channel=6 control=64 value=127 time=0.014534875
EXTRACT: note_on channel=3 note=77 velocity=0 time=0.0944766875
EXTRACT: note_on channel=3 note=77 velocity=69 time=0.0595929875
EXTRACT: note_on channel=3 note=77 velocity=0 time=0.1002906375
EXTRACT: note_on channel=6 note=53 velocity=0 time=0.0188953375
EXTRACT: note_on channel=9 note=69 velocity=88 time=0.0537790375
EXTRACT: note_on channel=9 note=69 velocity=0 time=0
EXTRACT: note_on channel=3 note=77 velocity=72 time=0.0014534875
EXTRACT: note_on channel=6 note=67 velocity=0 time=0.002906975
EXTRACT: note_on channel=6 note=63 velocity=0 time=0.0014534875
EXTRACT: note_on channel=6 note=70 velocity=0 time=0
EXTRACT: note_on channel=3 note=77 velocity=0 time=0.0944766875
EXTRACT: note_on channel=3 note=77 velocity=70 time=0.0741278625
EXTRACT: note_on channel=9 note=69 velocity=82 time=0
EXTRACT: note_on channel=9 note=69 velocity=0 time=0
EXTRACT: note_on channel=1 note=29 velocity=0 time=0.0508720625
EXTRACT: note_on channel=3 note=77 velocity=0 time=0.05232555
EXTRACT: control_change channel=6 control=64 value=0 time=0.0305232375
EXTRACT: note_on channel=6 note=53 velocity=77 time=0.031976725
EXTRACT: note_on channel=6 note=69 velocity=80 time=0.0014534875
EXTRACT: note_on channel=6 note=72 velocity=77 time=0.0014534875
EXTRACT: note_on channel=6 note=65 velocity=66 time=0.0014534875
EXTRACT: note_on channel=5 note=67 velocity=0 time=0.0014534875
EXTRACT: note_on channel=5 note=70 velocity=0 time=0
EXTRACT: note_on channel=1 note=29 velocity=126 time=0.002906975
EXTRACT: note_on channel=3 note=77 velocity=70 time=0
EXTRACT: note_on channel=5 note=69 velocity=78 time=0
EXTRACT: note_on channel=5 note=72 velocity=78 time=0
EXTRACT: note_on channel=7 note=55 velocity=62 time=0
EXTRACT: note_on channel=9 note=36 velocity=119 time=0
EXTRACT: note_on channel=9 note=36 velocity=0 time=0
EXTRACT: note_on channel=3 note=77 velocity=0 time=0.1090115625
EXTRACT: control_change channel=6 control=64 value=127 time=0.0363371875
EXTRACT: note_on channel=3 note=77 velocity=70 time=0.02906975
EXTRACT: note_on channel=6 note=65 velocity=0 time=0.130813875
EXTRACT: note_on channel=3 note=77 velocity=0 time=0.008720925000000001
EXTRACT: note_on channel=6 note=69 velocity=0 time=0.0188953375
EXTRACT: note_on channel=6 note=72 velocity=0 time=0.002906975
EXTRACT: note_on channel=3 note=84 velocity=72 time=0.0130813875
EXTRACT: note_on channel=6 note=53 velocity=0 time=0.002906975
EXTRACT: note_on channel=7 note=49 velocity=0 time=0.02906975
EXTRACT: note_on channel=1 note=29 velocity=0 time=0.1874998875
EXTRACT: note_on channel=3 note=84 velocity=0 time=0.049418575
EXTRACT: control_change channel=6 control=64 value=0 time=0.0624999625
EXTRACT: note_on channel=6 note=70 velocity=76 time=0.0101744125
EXTRACT: note_on channel=6 note=67 velocity=83 time=0.0014534875
EXTRACT: note_on channel=6 note=53 velocity=80 time=0.0014534875
EXTRACT: note_on channel=5 note=72 velocity=0 time=0.0014534875
EXTRACT: note_on channel=5 note=69 velocity=0 time=0
EXTRACT: note_on channel=6 note=74 velocity=84 time=0
EXTRACT: note_on channel=1 note=29 velocity=127 time=0.002906975
EXTRACT: note_on channel=3 note=82 velocity=72 time=0
EXTRACT: note_on channel=5 note=70 velocity=78 time=0
EXTRACT: note_on channel=5 note=74 velocity=78 time=0
EXTRACT: note_on channel=7 note=60 velocity=62 time=0
EXTRACT: note_on channel=9 note=36 velocity=108 time=0
EXTRACT: note_on channel=9 note=36 velocity=0 time=0
EXTRACT: control_change channel=6 control=64 value=127 time=0.1627906
EXTRACT: note_on channel=6 note=74 velocity=0 time=0.08720925
EXTRACT: note_on channel=6 note=67 velocity=0 time=0.0072674375
EXTRACT: note_on channel=6 note=70 velocity=0 time=0.00581395
EXTRACT: note_on channel=6 note=53 velocity=0 time=0.014534875
EXTRACT: note_on channel=9 note=69 velocity=85 time=0.0712208875
EXTRACT: note_on channel=9 note=69 velocity=0 time=0
EXTRACT: note_on channel=7 note=55 velocity=0 time=0.031976725
EXTRACT: note_on channel=3 note=82 velocity=0 time=0.095930175
EXTRACT: note_on channel=9 note=69 velocity=81 time=0.0465116
EXTRACT: note_on channel=9 note=69 velocity=0 time=0
EXTRACT: note_on channel=1 note=29 velocity=0 time=0.049418575
EXTRACT: control_change channel=6 control=64 value=0 time=0.0930232
EXTRACT: note_on channel=5 note=74 velocity=0 time=0.02906975
EXTRACT: note_on channel=5 note=70 velocity=0 time=0
EXTRACT: note_on channel=6 note=53 velocity=76 time=0
EXTRACT: note_on channel=1 note=29 velocity=127 time=0.002906975
EXTRACT: note_on channel=5 note=72 velocity=78 time=0
EXTRACT: note_on channel=5 note=75 velocity=76 time=0
EXTRACT: note_on channel=6 note=70 velocity=86 time=0
EXTRACT: note_on channel=6 note=67 velocity=75 time=0
EXTRACT: note_on channel=6 note=75 velocity=84 time=0
EXTRACT: note_on channel=7 note=67 velocity=62 time=0
EXTRACT: note_on channel=9 note=36 velocity=119 time=0
EXTRACT: note_on channel=9 note=36 velocity=0 time=0
EXTRACT: note_on channel=3 note=77 velocity=70 time=0.0101744125
EXTRACT: control_change channel=6 control=64 value=127 time=0.0915697125
EXTRACT: note_on channel=5 note=75 velocity=0 time=0.06976740000000001
EXTRACT: note_on channel=5 note=74 velocity=71 time=0.002906975
EXTRACT: note_on channel=6 note=67 velocity=0 time=0.05232555
EXTRACT: note_on channel=6 note=70 velocity=0 time=0.002906975
EXTRACT: note_on channel=6 note=53 velocity=0 time=0.0072674375
EXTRACT: note_on channel=6 note=75 velocity=0 time=0
EXTRACT: note_on channel=5 note=74 velocity=0 time=0.1090115625
EXTRACT: note_on channel=3 note=72 velocity=70 time=0.002906975
EXTRACT: note_on channel=5 note=75 velocity=76 time=0
EXTRACT: note_on channel=3 note=77 velocity=0 time=0.020348825
EXTRACT: note_on channel=7 note=60 velocity=0 time=0.0116279
EXTRACT: note_on channel=5 note=75 velocity=0 time=0.13953480000000001
EXTRACT: note_on channel=5 note=77 velocity=75 time=0.0043604625000000004
EXTRACT: note_on channel=1 note=29 velocity=0 time=0.061046475
EXTRACT: note_on channel=3 note=72 velocity=0 time=0.020348825
EXTRACT: control_change channel=6 control=64 value=0 time=0
EXTRACT: note_on channel=5 note=72 velocity=0 time=0.0886627375
EXTRACT: note_on channel=5 note=77 velocity=0 time=0.002906975
EXTRACT: note_on channel=1 note=34 velocity=127 time=0
EXTRACT: note_on channel=7 note=72 velocity=51 time=0
EXTRACT: note_on channel=9 note=36 velocity=116 time=0
EXTRACT: note_on channel=9 note=36 velocity=0 time=0
EXTRACT: control_change channel=6 control=64 value=127 time=0.0813953
EXTRACT: pitchwheel channel=5 pitch=-6656 time=0.0218023125
EXTRACT: pitchwheel channel=5 pitch=-7296 time=0.00581395
EXTRACT: pitchwheel channel=5 pitch=-8064 time=0.00581395
EXTRACT: note_on channel=3 note=58 velocity=72 time=0.229651025
EXTRACT: note_on channel=6 note=86 velocity=82 time=0.002906975
EXTRACT: note_on channel=6 note=77 velocity=68 time=0
EXTRACT: note_on channel=9 note=69 velocity=88 time=0.0014534875
EXTRACT: note_on channel=9 note=69 velocity=0 time=0
EXTRACT: note_on channel=7 note=67 velocity=0 time=0.031976725
EXTRACT: note_on channel=3 note=58 velocity=0 time=0.0624999625
EXTRACT: note_on channel=6 note=86 velocity=0 time=0.055232525
EXTRACT: note_on channel=6 note=77 velocity=0 time=0.0014534875
EXTRACT: note_on channel=3 note=58 velocity=70 time=0.0232558
EXTRACT: note_on channel=9 note=69 velocity=82 time=0
EXTRACT: note_on channel=9 note=69 velocity=0 time=0
EXTRACT: note_on channel=3 note=58 velocity=0 time=0.101744125
EXTRACT: note_on channel=1 note=34 velocity=0 time=0.037790675
EXTRACT: note_on channel=3 note=58 velocity=70 time=0.0247092875
EXTRACT: note_on channel=6 note=82 velocity=71 time=0.008720925000000001
EXTRACT: note_on channel=6 note=89 velocity=75 time=0
EXTRACT: note_on channel=5 note=70 velocity=78 time=0.0014534875
EXTRACT: note_on channel=5 note=74 velocity=78 time=0
EXTRACT: note_on channel=7 note=79 velocity=42 time=0
EXTRACT: note_on channel=9 note=39 velocity=126 time=0
EXTRACT: note_on channel=9 note=39 velocity=0 time=0
EXTRACT: pitchwheel channel=5 pitch=-6784 time=0.034883700000000004
EXTRACT: pitchwheel channel=5 pitch=-5120 time=0.00581395
EXTRACT: pitchwheel channel=5 pitch=-3584 time=0.00581395
EXTRACT: pitchwheel channel=5 pitch=-1792 time=0.00581395
EXTRACT: pitchwheel channel=5 pitch=-384 time=0.0072674375
EXTRACT: pitchwheel channel=5 pitch=0 time=0.00581395
EXTRACT: note_on channel=3 note=58 velocity=0 time=0.0247092875
EXTRACT: note_on channel=6 note=89 velocity=0 time=0.0450581125
EXTRACT: note_on channel=3 note=58 velocity=70 time=0.020348825
EXTRACT: note_on channel=6 note=82 velocity=0 time=0.0247092875
EXTRACT: note_on channel=3 note=58 velocity=0 time=0.0712208875
EXTRACT: note_on channel=3 note=58 velocity=70 time=0.08720925
EXTRACT: note_on channel=6 note=86 velocity=78 time=0.0101744125
EXTRACT: note_on channel=7 note=72 velocity=0 time=0.031976725
EXTRACT: note_on channel=3 note=58 velocity=0 time=0.0479650875
EXTRACT: note_on channel=6 note=86 velocity=0 time=0.0566860125
EXTRACT: note_on channel=1 note=34 velocity=103 time=0.037790675
EXTRACT: note_on channel=9 note=36 velocity=75 time=0
EXTRACT: note_on channel=9 note=36 velocity=0 time=0
EXTRACT: note_on channel=1 note=34 velocity=0 time=0.0624999625
EXTRACT: note_on channel=5 note=74 velocity=0 time=0.1090115625
EXTRACT: note_on channel=5 note=70 velocity=0 time=0
EXTRACT: note_on channel=6 note=77 velocity=71 time=0.0014534875
EXTRACT: note_on channel=6 note=84 velocity=81 time=0
EXTRACT: note_on channel=1 note=34 velocity=127 time=0.0014534875
EXTRACT: note_on channel=3 note=58 velocity=71 time=0
EXTRACT: note_on channel=5 note=69 velocity=78 time=0
EXTRACT: note_on channel=5 note=72 velocity=78 time=0
EXTRACT: note_on channel=7 note=84 velocity=37 time=0
EXTRACT: note_on channel=9 note=36 velocity=119 time=0
EXTRACT: note_on channel=9 note=36 velocity=0 time=0
EXTRACT: control_change channel=6 control=64 value=127 time=0.0276162625
EXTRACT: control_change channel=6 control=64 value=0 time=0.0363371875
EXTRACT: control_change channel=6 control=64 value=127 time=0.0813953
EXTRACT: note_on channel=3 note=58 velocity=0 time=0.00581395
EXTRACT: note_on channel=6 note=84 velocity=0 time=0.165697575
EXTRACT: note_on channel=6 note=77 velocity=0 time=0.008720925000000001
EXTRACT: note_on channel=3 note=58 velocity=72 time=0.0159883625
EXTRACT: note_on channel=6 note=81 velocity=78 time=0.0072674375
EXTRACT: note_on channel=9 note=36 velocity=108 time=0
EXTRACT: note_on channel=9 note=36 velocity=0 time=0
EXTRACT: note_on channel=9 note=69 velocity=85 time=0
EXTRACT: note_on channel=9 note=69 velocity=0 time=0
EXTRACT: note_on channel=7 note=79 velocity=0 time=0.031976725
EXTRACT: note_on channel=6 note=81 velocity=0 time=0.113372025
EXTRACT: note_on channel=9 note=69 velocity=81 time=0.02906975
EXTRACT: note_on channel=9 note=69 velocity=0 time=0
EXTRACT: note_on channel=3 note=58 velocity=0 time=0.0741278625
EXTRACT: note_on channel=6 note=89 velocity=70 time=0.1002906375
EXTRACT: note_on channel=9 note=39 velocity=123 time=0
EXTRACT: note_on channel=9 note=39 velocity=0 time=0
EXTRACT: note_on channel=3 note=58 velocity=70 time=0.0014534875
EXTRACT: note_on channel=1 note=34 velocity=0 time=0.002906975
EXTRACT: note_on channel=3 note=58 velocity=0 time=0.0770348375
EXTRACT: note_on channel=3 note=58 velocity=72 time=0.095930175
EXTRACT: note_on channel=6 note=89 velocity=0 time=0.037790675
EXTRACT: note_on channel=6 note=84 velocity=72 time=0.13372085
EXTRACT: note_on channel=7 note=84 velocity=0 time=0.031976725
EXTRACT: note_on channel=3 note=58 velocity=0 time=0.07558135
EXTRACT: note_on channel=6 note=84 velocity=0 time=0.0188953375
EXTRACT: note_on channel=3 note=58 velocity=72 time=0.0479650875
EXTRACT: control_change channel=6 control=64 value=0 time=0.15697665
EXTRACT: note_on channel=5 note=72 velocity=0 time=0.014534875
EXTRACT: note_on channel=5 note=69 velocity=0 time=0
EXTRACT: note_on channel=1 note=34 velocity=121 time=0.002906975
EXTRACT: note_on channel=5 note=67 velocity=78 time=0
EXTRACT: note_on channel=5 note=70 velocity=78 time=0
EXTRACT: note_on channel=9 note=36 velocity=116 time=0
EXTRACT: note_on channel=9 note=36 velocity=0 time=0
EXTRACT: control_change channel=6 control=64 value=0 time=0.0188953375
EXTRACT: note_on channel=3 note=58 velocity=0 time=0.0334302125
EXTRACT: note_on channel=3 note=58 velocity=72 time=0.124999925
EXTRACT: note_on channel=3 note=58 velocity=0 time=0.130813875
EXTRACT: note_on channel=6 note=82 velocity=75 time=0.037790675
EXTRACT: note_on channel=9 note=69 velocity=88 time=0.002906975
EXTRACT: note_on channel=9 note=69 velocity=0 time=0
EXTRACT: note_on channel=3 note=58 velocity=72 time=0.0101744125
EXTRACT: note_on channel=3 note=58 velocity=0 time=0.1046511
EXTRACT: note_on channel=9 note=69 velocity=82 time=0.0595929875
EXTRACT: note_on channel=9 note=69 velocity=0 time=0
EXTRACT: note_on channel=3 note=58 velocity=70 time=0.008720925000000001
EXTRACT: note_on channel=1 note=34 velocity=0 time=0.1511627
EXTRACT: note_on channel=6 note=87 velocity=81 time=0.0130813875
EXTRACT: note_on channel=6 note=79 velocity=73 time=0
EXTRACT: note_on channel=9 note=39 velocity=126 time=0.0014534875
EXTRACT: note_on channel=9 note=39 velocity=0 time=0
EXTRACT: control_change channel=6 control=64 value=127 time=0.0188953375
EXTRACT: note_on channel=6 note=82 velocity=0 time=0.0276162625
EXTRACT: note_on channel=3 note=58 velocity=0 time=0.02906975
EXTRACT: note_on channel=3 note=58 velocity=72 time=0.1279069
EXTRACT: note_on channel=6 note=87 velocity=0 time=0.1235464375
EXTRACT: note_on channel=6 note=82 velocity=73 time=0.0218023125
EXTRACT: note_on channel=6 note=79 velocity=0 time=0.002906975
EXTRACT: note_on channel=1 note=34 velocity=105 time=0.171511525
EXTRACT: note_on channel=9 note=36 velocity=75 time=0
EXTRACT: note_on channel=9 note=36 velocity=0 time=0
EXTRACT: note_on channel=3 note=58 velocity=0 time=0.017441850000000002
EXTRACT: note_on channel=1 note=34 velocity=0 time=0.0363371875
EXTRACT: control_change channel=6 control=64 value=0 time=0.049418575
EXTRACT: note_on channel=6 note=82 velocity=0 time=0.02906975
EXTRACT: note_on channel=5 note=67 velocity=0 time=0.0392441625
EXTRACT: note_on channel=1 note=34 velocity=121 time=0.002906975
EXTRACT: note_on channel=5 note=66 velocity=78 time=0
EXTRACT: note_on channel=9 note=36 velocity=119 time=0
EXTRACT: note_on channel=9 note=36 velocity=0 time=0
EXTRACT: note_on channel=3 note=58 velocity=72 time=0.159883625
EXTRACT: note_on channel=3 note=58 velocity=0 time=0.08720925
EXTRACT: note_on channel=3 note=58 velocity=72 time=0.07558135
EXTRACT: note_on channel=6 note=78 velocity=70 time=0.026162775
EXTRACT: note_on channel=9 note=36 velocity=108 time=0
EXTRACT: note_on channel=9 note=36 velocity=0 time=0
EXTRACT: note_on channel=9 note=69 velocity=85 time=0
EXTRACT: note_on channel=9 note=69 velocity=0 time=0
EXTRACT: note_on channel=3 note=58 velocity=0 time=0.0581395
EXTRACT: note_on channel=3 note=58 velocity=72 time=0.049418575
EXTRACT: note_on channel=9 note=69 velocity=81 time=0.066860425
EXTRACT: note_on channel=9 note=69 velocity=0 time=0
EXTRACT: note_on channel=3 note=58 velocity=0 time=0.0043604625000000004
EXTRACT: note_on channel=3 note=58 velocity=72 time=0.061046475
EXTRACT: note_on channel=6 note=87 velocity=83 time=0.107558075
EXTRACT: note_on channel=4 note=82 velocity=78 time=0.0014534875
EXTRACT: note_on channel=6 note=82 velocity=71 time=0
EXTRACT: note_on channel=9 note=39 velocity=123 time=0
EXTRACT: note_on channel=9 note=39 velocity=0 time=0
EXTRACT: note_on channel=1 note=34 velocity=0 time=0.0043604625000000004
EXTRACT: note_on channel=6 note=78 velocity=0 time=0.0232558
EXTRACT: note_on channel=3 note=58 velocity=0 time=0.0944766875
EXTRACT: note_on channel=3 note=58 velocity=72 time=0.0770348375
EXTRACT: note_on channel=4 note=82 velocity=0 time=0.031976725
EXTRACT: note_on channel=4 note=81 velocity=78 time=0.0014534875
EXTRACT: control_change channel=6 control=64 value=127 time=0.0043604625000000004
EXTRACT: note_on channel=6 note=82 velocity=0 time=0.1090115625
EXTRACT: note_on channel=6 note=78 velocity=78 time=0.002906975
EXTRACT: note_on channel=3 note=58 velocity=0 time=0.017441850000000002
EXTRACT: note_on channel=3 note=58 velocity=70 time=0.0595929875
EXTRACT: note_on channel=6 note=87 velocity=0 time=0.026162775
EXTRACT: note_on channel=4 note=81 velocity=0 time=0.0116279
EXTRACT: note_on channel=4 note=79 velocity=78 time=0.0014534875
EXTRACT: note_on channel=3 note=58 velocity=0 time=0.0363371875
EXTRACT: note_on channel=9 note=84 velocity=76 time=0.0218023125
EXTRACT: note_on channel=9 note=84 velocity=0 time=0
EXTRACT: note_on channel=6 note=78 velocity=0 time=0.0305232375
EXTRACT: note_on channel=3 note=58 velocity=70 time=0.0014534875
EXTRACT: note_on channel=3 note=58 velocity=0 time=0.1279069
EXTRACT: note_on channel=5 note=66 velocity=0 time=0.0116279
EXTRACT: note_on channel=5 note=70 velocity=0 time=0
EXTRACT: note_on channel=4 note=79 velocity=0 time=0.0014534875
EXTRACT: note_on channel=1 note=34 velocity=127 time=0.0014534875
EXTRACT: note_on channel=9 note=36 velocity=116 time=0
EXTRACT: note_on channel=9 note=36 velocity=0 time=0
EXTRACT: note_on channel=4 note=77 velocity=78 time=0.0014534875
EXTRACT: control_change channel=6 control=64 value=0 time=0.04069765
EXTRACT: pitchwheel channel=5 pitch=-6656 time=0.061046475
EXTRACT: pitchwheel channel=5 pitch=-7296 time=0.00581395
EXTRACT: pitchwheel channel=5 pitch=-8064 time=0.00581395
EXTRACT: note_on channel=3 note=58 velocity=72 time=0.107558075
EXTRACT: note_on channel=4 note=77 velocity=0 time=0.0101744125
EXTRACT: note_on channel=4 note=74 velocity=78 time=0.0014534875
EXTRACT: note_on channel=3 note=58 velocity=0 time=0.0683139125
EXTRACT: control_change channel=6 control=64 value=127 time=0.0363371875
EXTRACT: note_on channel=6 note=86 velocity=83 time=0.0072674375
EXTRACT: note_on channel=6 note=77 velocity=60 time=0.0014534875
EXTRACT: note_on channel=9 note=69 velocity=88 time=0.0014534875
EXTRACT: note_on channel=9 note=69 velocity=0 time=0
EXTRACT: note_on channel=3 note=58 velocity=72 time=0.0247092875
EXTRACT: note_on channel=3 note=58 velocity=0 time=0.0828487875
EXTRACT: note_on channel=4 note=74 velocity=0 time=0.0072674375
EXTRACT: note_on channel=4 note=72 velocity=78 time=0.002906975
EXTRACT: note_on channel=3 note=58 velocity=72 time=0.0566860125
EXTRACT: note_on channel=9 note=69 velocity=82 time=0
EXTRACT: note_on channel=9 note=69 velocity=0 time=0
EXTRACT: note_on channel=6 note=77 velocity=0 time=0.020348825
EXTRACT: note_on channel=6 note=86 velocity=0 time=0.008720925000000001
EXTRACT: note_on channel=3 note=58 velocity=0 time=0.061046475
EXTRACT: note_on channel=1 note=34 velocity=0 time=0.061046475
EXTRACT: note_on channel=3 note=58 velocity=72 time=0.008720925000000001
EXTRACT: note_on channel=6 note=82 velocity=80 time=0.0116279
EXTRACT: note_on channel=4 note=72 velocity=0 time=0.002906975
EXTRACT: note_on channel=5 note=70 velocity=78 time=0
EXTRACT: note_on channel=5 note=74 velocity=78 time=0
EXTRACT: note_on channel=6 note=74 velocity=67 time=0
EXTRACT: note_on channel=9 note=39 velocity=126 time=0
EXTRACT: note_on channel=9 note=39 velocity=0 time=0
EXTRACT: note_on channel=4 note=70 velocity=78 time=0.0014534875
EXTRACT: pitchwheel channel=5 pitch=-6784 time=0.0334302125
EXTRACT: pitchwheel channel=5 pitch=-5120 time=0.00581395
EXTRACT: pitchwheel channel=5 pitch=-3584 time=0.00581395
EXTRACT: pitchwheel channel=5 pitch=-1792 time=0.00581395
EXTRACT: note_on channel=3 note=58 velocity=0 time=0.0072674375
EXTRACT: pitchwheel channel=5 pitch=-384 time=0
EXTRACT: pitchwheel channel=5 pitch=0 time=0.00581395
EXTRACT: note_on channel=6 note=74 velocity=0 time=0.066860425
EXTRACT: note_on channel=6 note=82 velocity=0 time=0.0043604625000000004
EXTRACT: note_on channel=3 note=58 velocity=72 time=0.0014534875
EXTRACT: note_on channel=6 note=77 velocity=73 time=0.2078487125
EXTRACT: note_on channel=6 note=70 velocity=73 time=0.002906975
EXTRACT: note_on channel=3 note=58 velocity=0 time=0.00581395
EXTRACT: note_on channel=3 note=58 velocity=72 time=0.0973836625
EXTRACT: note_on channel=1 note=34 velocity=99 time=0.0712208875
EXTRACT: note_on channel=9 note=36 velocity=75 time=0
EXTRACT: note_on channel=9 note=36 velocity=0 time=0
EXTRACT: note_on channel=3 note=58 velocity=0 time=0.020348825
EXTRACT: note_on channel=1 note=34 velocity=0 time=0.034883700000000004
EXTRACT: note_on channel=3 note=58 velocity=71 time=0.0421511375
EXTRACT: note_on channel=6 note=77 velocity=0 time=0.0363371875
EXTRACT: note_on channel=6 note=70 velocity=0 time=0.002906975
EXTRACT: note_on channel=5 note=74 velocity=0 time=0.034883700000000004
EXTRACT: note_on channel=5 note=70 velocity=0 time=0
EXTRACT: note_on channel=1 note=34 velocity=127 time=0.002906975
EXTRACT: note_on channel=5 note=69 velocity=78 time=0
EXTRACT: note_on channel=5 note=72 velocity=78 time=0
EXTRACT: note_on channel=6 note=72 velocity=85 time=0
EXTRACT: note_on channel=9 note=36 velocity=119 time=0
EXTRACT: note_on channel=9 note=36 velocity=0 time=0
EXTRACT: note_on channel=3 note=58 velocity=0 time=0.0043604625000000004
EXTRACT: control_change channel=6 control=64 value=0 time=0.0247092875
EXTRACT: control_change channel=6 control=64 value=127 time=0.014534875
EXTRACT: note_on channel=3 note=58 velocity=72 time=0.034883700000000004
EXTRACT: note_on channel=4 note=70 velocity=0 time=0.154069675
EXTRACT: note_on channel=6 note=69 velocity=80 time=0.116279
EXTRACT: note_on channel=9 note=36 velocity=108 time=0
EXTRACT: note_on channel=9 note=36 velocity=0 time=0
EXTRACT: note_on channel=9 note=69 velocity=85 time=0
EXTRACT: note_on channel=9 note=69 velocity=0 time=0
EXTRACT: note_on channel=6 note=72 velocity=0 time=0.0276162625
EXTRACT: note_on channel=3 note=58 velocity=0 time=0.0247092875
EXTRACT: note_on channel=6 note=69 velocity=0 time=0.0799418125
EXTRACT: note_on channel=9 note=69 velocity=81 time=0.0421511375
EXTRACT: note_on channel=9 note=69 velocity=0 time=0
EXTRACT: note_on channel=3 note=58 velocity=70 time=0.0886627375
EXTRACT: note_on channel=6 note=84 velocity=85 time=0.084302275
EXTRACT: note_on channel=6 note=77 velocity=73 time=0.0014534875
EXTRACT: note_on channel=9 note=39 velocity=123 time=0
EXTRACT: note_on channel=9 note=39 velocity=0 time=0
EXTRACT: note_on channel=3 note=58 velocity=0 time=0.026162775
EXTRACT: note_on channel=3 note=58 velocity=73 time=0.06976740000000001
EXTRACT: note_on channel=1 note=34 velocity=0 time=0.0130813875
EXTRACT: note_on channel=6 note=84 velocity=0 time=0.0857557625
EXTRACT: note_on channel=6 note=77 velocity=0 time=0.0043604625000000004
EXTRACT: note_on channel=3 note=58 velocity=0 time=0.124999925
EXTRACT: note_on channel=6 note=81 velocity=82 time=0.0247092875
EXTRACT: note_on channel=3 note=58 velocity=72 time=0.049418575
EXTRACT: note_on channel=6 note=81 velocity=0 time=0.107558075
EXTRACT: note_on channel=3 note=58 velocity=0 time=0.034883700000000004
EXTRACT: control_change channel=6 control=64 value=0 time=0.1279069
EXTRACT: note_on channel=6 note=53 velocity=81 time=0.0218023125
EXTRACT: note_on channel=5 note=72 velocity=0 time=0.0043604625000000004
EXTRACT: note_on channel=5 note=69 velocity=0 time=0
EXTRACT: note_on channel=1 note=29 velocity=127 time=0.002906975
EXTRACT: note_on channel=5 note=67 velocity=78 time=0
EXTRACT: note_on channel=5 note=70 velocity=78 time=0
EXTRACT: note_on channel=7 note=49 velocity=62 time=0
EXTRACT: note_on channel=9 note=36 velocity=116 time=0
EXTRACT: note_on channel=9 note=36 velocity=0 time=0
EXTRACT: note_on channel=6 note=67 velocity=87 time=0.00581395
EXTRACT: note_on channel=6 note=70 velocity=82 time=0.0014534875
EXTRACT: note_on channel=6 note=63 velocity=73 time=0
EXTRACT: control_change channel=6 control=64 value=127 time=0.014534875
EXTRACT: note_on channel=6 note=53 velocity=0 time=0.27325565
EXTRACT: note_on channel=9 note=69 velocity=88 time=0.0537790375
EXTRACT: note_on channel=9 note=69 velocity=0 time=0
EXTRACT: note_on channel=6 note=67 velocity=0 time=0.0043604625000000004
EXTRACT: note_on channel=6 note=63 velocity=0 time=0.0014534875
EXTRACT: note_on channel=6 note=70 velocity=0 time=0
EXTRACT: note_on channel=3 note=58 velocity=70 time=0.1279069
EXTRACT: note_on channel=9 note=69 velocity=82 time=0.04069765
EXTRACT: note_on channel=9 note=69 velocity=0 time=0
EXTRACT: note_on channel=1 note=29 velocity=0 time=0.0508720625
EXTRACT: note_on channel=3 note=58 velocity=0 time=0.0116279
EXTRACT: control_change channel=6 control=64 value=0 time=0.0712208875
EXTRACT: note_on channel=3 note=58 velocity=70 time=0.008720925000000001
EXTRACT: note_on channel=6 note=53 velocity=77 time=0.0232558
EXTRACT: note_on channel=6 note=69 velocity=80 time=0.0014534875
EXTRACT: note_on channel=6 note=72 velocity=77 time=0.0014534875
EXTRACT: note_on channel=6 note=65 velocity=66 time=0.0014534875
EXTRACT: note_on channel=5 note=70 velocity=0 time=0.0014534875
EXTRACT: note_on channel=5 note=67 velocity=0 time=0
EXTRACT: note_on channel=1 note=29 velocity=126 time=0.002906975
EXTRACT: note_on channel=5 note=69 velocity=78 time=0
EXTRACT: note_on channel=5 note=72 velocity=78 time=0
EXTRACT: note_on channel=7 note=55 velocity=62 time=0
EXTRACT: note_on channel=9 note=36 velocity=119 time=0
EXTRACT: note_on channel=9 note=36 velocity=0 time=0
EXTRACT: control_change channel=6 control=64 value=127 time=0.14534875
EXTRACT: note_on channel=3 note=58 velocity=0 time=0.0828487875
EXTRACT: note_on channel=3 note=58 velocity=72 time=0.066860425
EXTRACT: note_on channel=6 note=65 velocity=0 time=0.0101744125
EXTRACT: note_on channel=6 note=69 velocity=0 time=0.0276162625
EXTRACT: note_on channel=6 note=72 velocity=0 time=0.002906975
EXTRACT: note_on channel=6 note=53 velocity=0 time=0.0159883625
EXTRACT: note_on channel=7 note=49 velocity=0 time=0.02906975
EXTRACT: note_on channel=3 note=58 velocity=0 time=0.0232558
EXTRACT: note_on channel=3 note=58 velocity=71 time=0.06395345
EXTRACT: note_on channel=1 note=29 velocity=0 time=0.1002906375
EXTRACT: note_on channel=3 note=58 velocity=0 time=0.002906975
EXTRACT: note_on channel=3 note=58 velocity=72 time=0.06395345
EXTRACT: control_change channel=6 control=64 value=0 time=0.0450581125
EXTRACT: note_on channel=6 note=70 velocity=76 time=0.0101744125
EXTRACT: note_on channel=6 note=67 velocity=83 time=0.0014534875
EXTRACT: note_on channel=6 note=53 velocity=80 time=0.0014534875
EXTRACT: note_on channel=5 note=69 velocity=0 time=0.0014534875
EXTRACT: note_on channel=5 note=72 velocity=0 time=0
EXTRACT: note_on channel=6 note=74 velocity=84 time=0
EXTRACT: note_on channel=1 note=29 velocity=127 time=0.002906975
EXTRACT: note_on channel=5 note=70 velocity=78 time=0
EXTRACT: note_on channel=5 note=74 velocity=78 time=0
EXTRACT: note_on channel=7 note=60 velocity=62 time=0
EXTRACT: note_on channel=9 note=36 velocity=108 time=0
EXTRACT: note_on channel=9 note=36 velocity=0 time=0
EXTRACT: control_change channel=6 control=64 value=127 time=0.1627906
EXTRACT: note_on channel=3 note=58 velocity=0 time=0.049418575
EXTRACT: note_on channel=6 note=74 velocity=0 time=0.037790675
EXTRACT: note_on channel=6 note=67 velocity=0 time=0.0072674375
EXTRACT: note_on channel=6 note=70 velocity=0 time=0.00581395
EXTRACT: note_on channel=6 note=53 velocity=0 time=0.014534875
EXTRACT: note_on channel=3 note=58 velocity=72 time=0.034883700000000004
EXTRACT: note_on channel=9 note=69 velocity=85 time=0.0363371875
EXTRACT: note_on channel=9 note=69 velocity=0 time=0
EXTRACT: note_on channel=7 note=55 velocity=0 time=0.031976725
EXTRACT: note_on channel=3 note=58 velocity=0 time=0.034883700000000004
EXTRACT: note_on channel=3 note=58 velocity=72 time=0.0654069375
EXTRACT: note_on channel=9 note=69 velocity=81 time=0.0421511375
EXTRACT: note_on channel=9 note=69 velocity=0 time=0
EXTRACT: note_on channel=1 note=29 velocity=0 time=0.049418575
EXTRACT: note_on channel=3 note=58 velocity=0 time=0.0159883625
EXTRACT: control_change channel=6 control=64 value=0 time=0.0770348375
EXTRACT: note_on channel=3 note=58 velocity=72 time=0.0014534875
EXTRACT: note_on channel=5 note=74 velocity=0 time=0.0276162625
EXTRACT: note_on channel=5 note=70 velocity=0 time=0
EXTRACT: note_on channel=6 note=53 velocity=76 time=0
EXTRACT: note_on channel=1 note=29 velocity=127 time=0.002906975
EXTRACT: note_on channel=5 note=72 velocity=78 time=0
EXTRACT: note_on channel=5 note=75 velocity=76 time=0
EXTRACT: note_on channel=6 note=70 velocity=86 time=0
EXTRACT: note_on channel=6 note=67 velocity=75 time=0
EXTRACT: note_on channel=6 note=75 velocity=84 time=0
EXTRACT: note_on channel=7 note=67 velocity=62 time=0
EXTRACT: note_on channel=9 note=36 velocity=119 time=0
EXTRACT: note_on channel=9 note=36 velocity=0 time=0
EXTRACT: control_change channel=6 control=64 value=127 time=0.101744125
EXTRACT: note_on channel=5 note=75 velocity=0 time=0.06976740000000001
EXTRACT: note_on channel=5 note=74 velocity=71 time=0.002906975
EXTRACT: note_on channel=6 note=67 velocity=0 time=0.05232555
EXTRACT: note_on channel=6 note=70 velocity=0 time=0.002906975
EXTRACT: note_on channel=6 note=75 velocity=0 time=0.0072674375
EXTRACT: note_on channel=6 note=53 velocity=0 time=0
EXTRACT: note_on channel=3 note=58 velocity=0 time=0.026162775
EXTRACT: note_on channel=3 note=58 velocity=72 time=0.0654069375
EXTRACT: note_on channel=5 note=74 velocity=0 time=0.017441850000000002
EXTRACT: note_on channel=5 note=75 velocity=76 time=0.002906975
EXTRACT: note_on channel=7 note=60 velocity=0 time=0.031976725
EXTRACT: note_on channel=3 note=58 velocity=0 time=0.101744125
EXTRACT: note_on channel=5 note=75 velocity=0 time=0.037790675
EXTRACT: note_on channel=5 note=77 velocity=75 time=0.0043604625000000004
EXTRACT: note_on channel=1 note=29 velocity=0 time=0.061046475
EXTRACT: control_change channel=6 control=64 value=0 time=0.020348825
EXTRACT: note_on channel=5 note=72 velocity=0 time=0.0886627375
EXTRACT: note_on channel=5 note=77 velocity=0 time=0.002906975
EXTRACT: note_on channel=1 note=34 velocity=127 time=0
EXTRACT: note_on channel=7 note=72 velocity=51 time=0
EXTRACT: note_on channel=9 note=36 velocity=116 time=0
EXTRACT: note_on channel=9 note=36 velocity=0 time=0
EXTRACT: control_change channel=6 control=64 value=127 time=0.0813953
EXTRACT: pitchwheel channel=5 pitch=-6656 time=0.0218023125
EXTRACT: pitchwheel channel=5 pitch=-7296 time=0.00581395
EXTRACT: pitchwheel channel=5 pitch=-8064 time=0.00581395
EXTRACT: note_on channel=6 note=86 velocity=82 time=0.232558
EXTRACT: note_on channel=6 note=77 velocity=68 time=0
EXTRACT: note_on channel=3 note=58 velocity=71 time=0.0014534875
EXTRACT: note_on channel=9 note=69 velocity=88 time=0
EXTRACT: note_on channel=9 note=69 velocity=0 time=0
EXTRACT: note_on channel=7 note=67 velocity=0 time=0.031976725
EXTRACT: note_on channel=3 note=58 velocity=0 time=0.0450581125
EXTRACT: note_on channel=6 note=86 velocity=0 time=0.072674375
EXTRACT: note_on channel=6 note=77 velocity=0 time=0.0014534875
EXTRACT: note_on channel=3 note=58 velocity=72 time=0.020348825
EXTRACT: note_on channel=9 note=69 velocity=82 time=0.002906975
EXTRACT: note_on channel=9 note=69 velocity=0 time=0
EXTRACT: note_on channel=1 note=34 velocity=0 time=0.13953480000000001
EXTRACT: note_on channel=6 note=82 velocity=71 time=0.0334302125
EXTRACT: note_on channel=6 note=89 velocity=75 time=0
EXTRACT: note_on channel=5 note=70 velocity=78 time=0.0014534875
EXTRACT: note_on channel=5 note=74 velocity=78 time=0
EXTRACT: note_on channel=7 note=79 velocity=42 time=0
EXTRACT: note_on channel=9 note=39 velocity=126 time=0
EXTRACT: note_on channel=9 note=39 velocity=0 time=0
EXTRACT: pitchwheel channel=5 pitch=-6784 time=0.034883700000000004
EXTRACT: pitchwheel channel=5 pitch=-5120 time=0.00581395
EXTRACT: pitchwheel channel=5 pitch=-3584 time=0.00581395
EXTRACT: pitchwheel channel=5 pitch=-1792 time=0.00581395
EXTRACT: pitchwheel channel=5 pitch=-384 time=0.0072674375
EXTRACT: pitchwheel channel=5 pitch=0 time=0.00581395
EXTRACT: note_on channel=3 note=58 velocity=0 time=0.037790675
EXTRACT: note_on channel=6 note=89 velocity=0 time=0.031976725
EXTRACT: note_on channel=3 note=58 velocity=72 time=0.0363371875
EXTRACT: note_on channel=6 note=82 velocity=0 time=0.008720925000000001
EXTRACT: note_on channel=6 note=86 velocity=78 time=0.16860455
EXTRACT: note_on channel=7 note=72 velocity=0 time=0.031976725
EXTRACT: note_on channel=3 note=58 velocity=0 time=0.0654069375
EXTRACT: note_on channel=6 note=86 velocity=0 time=0.0392441625
EXTRACT: note_on channel=1 note=34 velocity=103 time=0.037790675
EXTRACT: note_on channel=9 note=36 velocity=75 time=0
EXTRACT: note_on channel=9 note=36 velocity=0 time=0
EXTRACT: note_on channel=3 note=58 velocity=70 time=0.0072674375
EXTRACT: note_on channel=1 note=34 velocity=0 time=0.055232525
EXTRACT: note_on channel=3 note=58 velocity=0 time=0.0247092875
EXTRACT: note_on channel=5 note=74 velocity=0 time=0.084302275
EXTRACT: note_on channel=5 note=70 velocity=0 time=0
EXTRACT: note_on channel=6 note=77 velocity=71 time=0.0014534875
EXTRACT: note_on channel=6 note=84 velocity=81 time=0
EXTRACT: note_on channel=1 note=34 velocity=127 time=0.0014534875
EXTRACT: note_on channel=5 note=69 velocity=78 time=0
EXTRACT: note_on channel=5 note=72 velocity=78 time=0
EXTRACT: note_on channel=7 note=84 velocity=37 time=0
EXTRACT: note_on channel=9 note=36 velocity=119 time=0
EXTRACT: note_on channel=9 note=36 velocity=0 time=0
EXTRACT: note_on channel=3 note=58 velocity=72 time=0.00581395
EXTRACT: control_change channel=6 control=64 value=127 time=0.0218023125
EXTRACT: control_change channel=6 control=64 value=0 time=0.0363371875
EXTRACT: note_on channel=3 note=58 velocity=0 time=0.031976725
EXTRACT: control_change channel=6 control=64 value=127 time=0.049418575
EXTRACT: note_on channel=3 note=58 velocity=72 time=0.02906975
EXTRACT: note_on channel=6 note=84 velocity=0 time=0.142441775
EXTRACT: note_on channel=6 note=77 velocity=0 time=0.008720925000000001
EXTRACT: note_on channel=6 note=81 velocity=78 time=0.0232558
EXTRACT: note_on channel=9 note=36 velocity=108 time=0
EXTRACT: note_on channel=9 note=36 velocity=0 time=0
EXTRACT: note_on channel=9 note=69 velocity=85 time=0
EXTRACT: note_on channel=9 note=69 velocity=0 time=0
EXTRACT: note_on channel=7 note=79 velocity=0 time=0.031976725
EXTRACT: note_on channel=3 note=58 velocity=0 time=0.113372025
EXTRACT: note_on channel=6 note=81 velocity=0 time=0
EXTRACT: note_on channel=9 note=69 velocity=81 time=0.02906975
EXTRACT: note_on channel=9 note=69 velocity=0 time=0
EXTRACT: note_on channel=3 note=58 velocity=70 time=0.1584301375
EXTRACT: note_on channel=6 note=89 velocity=70 time=0.0159883625
EXTRACT: note_on channel=9 note=39 velocity=123 time=0
EXTRACT: note_on channel=9 note=39 velocity=0 time=0
EXTRACT: note_on channel=1 note=34 velocity=0 time=0.0043604625000000004
EXTRACT: note_on channel=3 note=58 velocity=0 time=0.090116225
EXTRACT: note_on channel=3 note=58 velocity=72 time=0.0828487875
EXTRACT: note_on channel=6 note=89 velocity=0 time=0.037790675
EXTRACT: note_on channel=6 note=84 velocity=72 time=0.13372085
EXTRACT: note_on channel=7 note=84 velocity=0 time=0.031976725
EXTRACT: note_on channel=3 note=58 velocity=0 time=0.0770348375
EXTRACT: note_on channel=6 note=84 velocity=0 time=0.017441850000000002
EXTRACT: note_on channel=3 note=58 velocity=72 time=0.04069765
EXTRACT: control_change channel=6 control=64 value=0 time=0.1642440875
EXTRACT: note_on channel=5 note=72 velocity=0 time=0.014534875
EXTRACT: note_on channel=5 note=69 velocity=0 time=0
EXTRACT: note_on channel=1 note=34 velocity=121 time=0.002906975
EXTRACT: note_on channel=5 note=67 velocity=78 time=0
EXTRACT: note_on channel=5 note=70 velocity=78 time=0
EXTRACT: note_on channel=9 note=36 velocity=116 time=0
EXTRACT: note_on channel=9 note=36 velocity=0 time=0
EXTRACT: note_on channel=3 note=58 velocity=0 time=0.0072674375
EXTRACT: control_change channel=6 control=64 value=0 time=0.0116279
EXTRACT: note_on channel=6 note=82 velocity=75 time=0.3270346875
EXTRACT: note_on channel=9 note=69 velocity=88 time=0.002906975
EXTRACT: note_on channel=9 note=69 velocity=0 time=0
EXTRACT: note_on channel=3 note=58 velocity=72 time=0.13953480000000001
EXTRACT: note_on channel=9 note=69 velocity=82 time=0.034883700000000004
EXTRACT: note_on channel=9 note=69 velocity=0 time=0
EXTRACT: note_on channel=3 note=58 velocity=0 time=0.0683139125
EXTRACT: note_on channel=1 note=34 velocity=0 time=0.0915697125
EXTRACT: note_on channel=3 note=58 velocity=72 time=0.0014534875
EXTRACT: note_on channel=6 note=87 velocity=81 time=0.0116279
EXTRACT: note_on channel=6 note=79 velocity=73 time=0
EXTRACT: note_on channel=9 note=39 velocity=126 time=0.0014534875
EXTRACT: note_on channel=9 note=39 velocity=0 time=0
EXTRACT: control_change channel=6 control=64 value=127 time=0.0188953375
EXTRACT: note_on channel=6 note=82 velocity=0 time=0.0276162625
EXTRACT: note_on channel=3 note=58 velocity=0 time=0.037790675
EXTRACT: note_on channel=3 note=58 velocity=72 time=0.07558135
EXTRACT: note_on channel=3 note=58 velocity=0 time=0.09883715
EXTRACT: note_on channel=6 note=87 velocity=0 time=0.0683139125
EXTRACT: note_on channel=3 note=58 velocity=72 time=0.0101744125
EXTRACT: note_on channel=6 note=82 velocity=73 time=0.0116279
EXTRACT: note_on channel=6 note=79 velocity=0 time=0.002906975
EXTRACT: note_on channel=1 note=34 velocity=105 time=0.171511525
EXTRACT: note_on channel=9 note=36 velocity=75 time=0
EXTRACT: note_on channel=9 note=36 velocity=0 time=0
EXTRACT: note_on channel=3 note=58 velocity=0 time=0.037790675
EXTRACT: note_on channel=1 note=34 velocity=0 time=0.0159883625
EXTRACT: control_change channel=6 control=64 value=0 time=0.049418575
EXTRACT: note_on channel=6 note=82 velocity=0 time=0.02906975
EXTRACT: note_on channel=3 note=58 velocity=72 time=0
EXTRACT: note_on channel=5 note=67 velocity=0 time=0.0392441625
EXTRACT: note_on channel=1 note=34 velocity=121 time=0.002906975
EXTRACT: note_on channel=5 note=66 velocity=78 time=0
EXTRACT: note_on channel=9 note=36 velocity=119 time=0
EXTRACT: note_on channel=9 note=36 velocity=0 time=0
EXTRACT: note_on channel=3 note=58 velocity=0 time=0.1264534125
EXTRACT: note_on channel=3 note=58 velocity=72 time=0.072674375
EXTRACT: note_on channel=6 note=78 velocity=70 time=0.1497092125
EXTRACT: note_on channel=9 note=36 velocity=108 time=0
EXTRACT: note_on channel=9 note=36 velocity=0 time=0
EXTRACT: note_on channel=9 note=69 velocity=85 time=0
EXTRACT: note_on channel=9 note=69 velocity=0 time=0
EXTRACT: note_on channel=3 note=58 velocity=0 time=0.017441850000000002
EXTRACT: note_on channel=3 note=58 velocity=73 time=0.0828487875
EXTRACT: note_on channel=9 note=69 velocity=81 time=0.0741278625
EXTRACT: note_on channel=9 note=69 velocity=0 time=0
EXTRACT: note_on channel=3 note=58 velocity=0 time=0.037790675
EXTRACT: note_on channel=3 note=58 velocity=72 time=0.0813953
EXTRACT: note_on channel=6 note=87 velocity=83 time=0.0537790375
EXTRACT: note_on channel=4 note=82 velocity=78 time=0.0014534875
EXTRACT: note_on channel=6 note=82 velocity=71 time=0
EXTRACT: note_on channel=9 note=39 velocity=123 time=0
EXTRACT: note_on channel=9 note=39 velocity=0 time=0
EXTRACT: note_on channel=1 note=34 velocity=0 time=0.0043604625000000004
EXTRACT: note_on channel=6 note=78 velocity=0 time=0.0232558
EXTRACT: note_on channel=3 note=58 velocity=0 time=0.113372025
EXTRACT: note_on channel=3 note=58 velocity=72 time=0.0813953
EXTRACT: note_on channel=4 note=82 velocity=0 time=0.008720925000000001
EXTRACT: note_on channel=4 note=81 velocity=78 time=0.0014534875
EXTRACT: control_change channel=6 control=64 value=127 time=0.0043604625000000004
EXTRACT: note_on channel=6 note=82 velocity=0 time=0.1090115625
EXTRACT: note_on channel=6 note=78 velocity=78 time=0.002906975
EXTRACT: note_on channel=6 note=87 velocity=0 time=0.1031976125
EXTRACT: note_on channel=4 note=81 velocity=0 time=0.0116279
EXTRACT: note_on channel=4 note=79 velocity=78 time=0.0014534875
EXTRACT: note_on channel=3 note=58 velocity=0 time=0.020348825
EXTRACT: note_on channel=3 note=58 velocity=74 time=0.037790675
EXTRACT: note_on channel=9 note=84 velocity=76 time=0
EXTRACT: note_on channel=9 note=84 velocity=0 time=0
EXTRACT: note_on channel=6 note=78 velocity=0 time=0.0305232375
EXTRACT: note_on channel=5 note=66 velocity=0 time=0.1409882875
EXTRACT: note_on channel=5 note=70 velocity=0 time=0
EXTRACT: note_on channel=3 note=58 velocity=0 time=0
EXTRACT: note_on channel=4 note=79 velocity=0 time=0.0014534875
EXTRACT: note_on channel=1 note=34 velocity=127 time=0.0014534875
EXTRACT: note_on channel=9 note=36 velocity=116 time=0
EXTRACT: note_on channel=9 note=36 velocity=0 time=0
EXTRACT: note_on channel=4 note=77 velocity=78 time=0.0014534875
EXTRACT: control_change channel=6 control=64 value=0 time=0.04069765
EXTRACT: pitchwheel channel=5 pitch=-6656 time=0.061046475
EXTRACT: pitchwheel channel=5 pitch=-7296 time=0.00581395
EXTRACT: pitchwheel channel=5 pitch=-8064 time=0.00581395
EXTRACT: note_on channel=4 note=77 velocity=0 time=0.1177324875
EXTRACT: note_on channel=4 note=74 velocity=78 time=0.0014534875
EXTRACT: control_change channel=6 control=64 value=127 time=0.1046511
EXTRACT: note_on channel=6 note=86 velocity=83 time=0.0072674375
EXTRACT: note_on channel=6 note=77 velocity=60 time=0.0014534875
EXTRACT: note_on channel=9 note=69 velocity=88 time=0.0014534875
EXTRACT: note_on channel=9 note=69 velocity=0 time=0
EXTRACT: note_on channel=3 note=58 velocity=73 time=0.0712208875
EXTRACT: note_on channel=4 note=74 velocity=0 time=0.043604625
EXTRACT: note_on channel=4 note=72 velocity=78 time=0.002906975
EXTRACT: note_on channel=3 note=58 velocity=0 time=0.0465116
EXTRACT: note_on channel=9 note=69 velocity=82 time=0.0101744125
EXTRACT: note_on channel=9 note=69 velocity=0 time=0
EXTRACT: note_on channel=6 note=77 velocity=0 time=0.020348825
EXTRACT: note_on channel=6 note=86 velocity=0 time=0.008720925000000001
EXTRACT: note_on channel=3 note=58 velocity=70 time=0.0232558
EXTRACT: note_on channel=3 note=58 velocity=0 time=0.08720925
EXTRACT: note_on channel=1 note=34 velocity=0 time=0.0116279
EXTRACT: note_on channel=6 note=82 velocity=80 time=0.020348825
EXTRACT: note_on channel=4 note=72 velocity=0 time=0.002906975
EXTRACT: note_on channel=5 note=70 velocity=78 time=0
EXTRACT: note_on channel=5 note=74 velocity=78 time=0
EXTRACT: note_on channel=6 note=74 velocity=67 time=0
EXTRACT: note_on channel=9 note=39 velocity=126 time=0
EXTRACT: note_on channel=9 note=39 velocity=0 time=0
EXTRACT: note_on channel=4 note=70 velocity=78 time=0.0014534875
EXTRACT: pitchwheel channel=5 pitch=-6784 time=0.0334302125
EXTRACT: note_on channel=3 note=58 velocity=70 time=0.002906975
EXTRACT: pitchwheel channel=5 pitch=-5120 time=0.002906975
EXTRACT: pitchwheel channel=5 pitch=-3584 time=0.00581395
EXTRACT: pitchwheel channel=5 pitch=-1792 time=0.00581395
EXTRACT: pitchwheel channel=5 pitch=-384 time=0.0072674375
EXTRACT: pitchwheel channel=5 pitch=0 time=0.00581395
EXTRACT: note_on channel=6 note=74 velocity=0 time=0.066860425
EXTRACT: note_on channel=6 note=82 velocity=0 time=0.0043604625000000004
EXTRACT: note_on channel=3 note=58 velocity=0 time=0
EXTRACT: note_on channel=3 note=58 velocity=72 time=0.0654069375
EXTRACT: note_on channel=3 note=58 velocity=0 time=0.1206394625
EXTRACT: note_on channel=6 note=77 velocity=73 time=0.0232558
EXTRACT: note_on channel=6 note=70 velocity=73 time=0.002906975
EXTRACT: note_on channel=3 note=58 velocity=70 time=0.037790675
EXTRACT: note_on channel=1 note=34 velocity=99 time=0.136627825
EXTRACT: note_on channel=9 note=36 velocity=75 time=0
EXTRACT: note_on channel=9 note=36 velocity=0 time=0
EXTRACT: note_on channel=1 note=34 velocity=0 time=0.055232525
EXTRACT: note_on channel=3 note=58 velocity=0 time=0.066860425
EXTRACT: note_on channel=6 note=77 velocity=0 time=0.0116279
EXTRACT: note_on channel=6 note=70 velocity=0 time=0.002906975
EXTRACT: note_on channel=5 note=70 velocity=0 time=0.034883700000000004
EXTRACT: note_on channel=5 note=74 velocity=0 time=0
EXTRACT: note_on channel=1 note=34 velocity=127 time=0.002906975
EXTRACT: note_on channel=5 note=69 velocity=78 time=0
EXTRACT: note_on channel=5 note=72 velocity=78 time=0
EXTRACT: note_on channel=6 note=72 velocity=85 time=0
EXTRACT: note_on channel=9 note=36 velocity=119 time=0
EXTRACT: note_on channel=9 note=36 velocity=0 time=0
EXTRACT: control_change channel=6 control=64 value=0 time=0.02906975
EXTRACT: note_on channel=3 note=58 velocity=72 time=0.008720925000000001
EXTRACT: control_change channel=6 control=64 value=127 time=0.00581395
EXTRACT: note_on channel=3 note=58 velocity=0 time=0.095930175
EXTRACT: note_on channel=3 note=58 velocity=72 time=0.07558135
EXTRACT: note_on channel=4 note=70 velocity=0 time=0.017441850000000002
EXTRACT: note_on channel=6 note=69 velocity=80 time=0.116279
EXTRACT: note_on channel=9 note=36 velocity=108 time=0
EXTRACT: note_on channel=9 note=36 velocity=0 time=0
EXTRACT: note_on channel=9 note=69 velocity=85 time=0
EXTRACT: note_on channel=9 note=69 velocity=0 time=0
EXTRACT: note_on channel=6 note=72 velocity=0 time=0.0276162625
EXTRACT: note_on channel=3 note=58 velocity=0 time=0.0857557625
EXTRACT: note_on channel=6 note=69 velocity=0 time=0.0188953375
EXTRACT: note_on channel=9 note=69 velocity=81 time=0.0421511375
EXTRACT: note_on channel=9 note=69 velocity=0 time=0
EXTRACT: note_on channel=3 note=58 velocity=72 time=0.0232558
EXTRACT: note_on channel=3 note=58 velocity=0 time=0.12209295
EXTRACT: note_on channel=6 note=84 velocity=85 time=0.0276162625
EXTRACT: note_on channel=6 note=77 velocity=73 time=0.0014534875
EXTRACT: note_on channel=9 note=39 velocity=123 time=0
EXTRACT: note_on channel=9 note=39 velocity=0 time=0
EXTRACT: note_on channel=3 note=58 velocity=72 time=0.049418575
EXTRACT: note_on channel=1 note=34 velocity=0 time=0.0595929875
EXTRACT: note_on channel=6 note=84 velocity=0 time=0.0857557625
EXTRACT: note_on channel=6 note=77 velocity=0 time=0.0043604625000000004
EXTRACT: note_on channel=3 note=58 velocity=0 time=0.0857557625
EXTRACT: note_on channel=6 note=81 velocity=82 time=0.06395345
EXTRACT: note_on channel=3 note=58 velocity=72 time=0.0232558
EXTRACT: note_on channel=6 note=81 velocity=0 time=0.13372085
EXTRACT: note_on channel=3 note=58 velocity=0 time=0.09883715
EXTRACT: control_change channel=6 control=64 value=0 time=0.06395345
EXTRACT: note_on channel=6 note=53 velocity=81 time=0.0218023125
EXTRACT: note_on channel=5 note=72 velocity=0 time=0.0043604625000000004
EXTRACT: note_on channel=5 note=69 velocity=0 time=0
EXTRACT: note_on channel=1 note=29 velocity=127 time=0.002906975
EXTRACT: note_on channel=3 note=58 velocity=70 time=0
EXTRACT: note_on channel=5 note=67 velocity=78 time=0
EXTRACT: note_on channel=5 note=70 velocity=78 time=0
EXTRACT: note_on channel=7 note=49 velocity=62 time=0
EXTRACT: note_on channel=9 note=36 velocity=116 time=0
EXTRACT: note_on channel=9 note=36 velocity=0 time=0
EXTRACT: note_on channel=6 note=67 velocity=87 time=0.00581395
EXTRACT: note_on channel=6 note=70 velocity=82 time=0.0014534875
EXTRACT: note_on channel=6 note=63 velocity=73 time=0
EXTRACT: control_change channel=6 control=64 value=127 time=0.014534875
EXTRACT: note_on channel=3 note=58 velocity=0 time=0.21511615
EXTRACT: note_on channel=3 note=58 velocity=72 time=0.034883700000000004
EXTRACT: note_on channel=6 note=53 velocity=0 time=0.0232558
EXTRACT: note_on channel=9 note=69 velocity=88 time=0.0537790375
EXTRACT: note_on channel=9 note=69 velocity=0 time=0
EXTRACT: note_on channel=6 note=67 velocity=0 time=0.0043604625000000004
EXTRACT: note_on channel=6 note=70 velocity=0 time=0.0014534875
EXTRACT: note_on channel=6 note=63 velocity=0 time=0
EXTRACT: note_on channel=3 note=58 velocity=0 time=0.008720925000000001
EXTRACT: note_on channel=3 note=58 velocity=72 time=0.06976740000000001
EXTRACT: note_on channel=3 note=58 velocity=0 time=0.0857557625
EXTRACT: note_on channel=9 note=69 velocity=82 time=0.0043604625000000004
EXTRACT: note_on channel=9 note=69 velocity=0 time=0
EXTRACT: note_on channel=3 note=58 velocity=72 time=0.0465116
EXTRACT: note_on channel=1 note=29 velocity=0 time=0.0043604625000000004
EXTRACT: control_change channel=6 control=64 value=0 time=0.0828487875
EXTRACT: note_on channel=3 note=58 velocity=0 time=0.0072674375
EXTRACT: note_on channel=6 note=53 velocity=77 time=0.0247092875
EXTRACT: note_on channel=6 note=69 velocity=80 time=0.0014534875
EXTRACT: note_on channel=6 note=72 velocity=77 time=0.0014534875
EXTRACT: note_on channel=6 note=65 velocity=66 time=0.0014534875
EXTRACT: note_on channel=5 note=67 velocity=0 time=0.0014534875
EXTRACT: note_on channel=5 note=70 velocity=0 time=0
EXTRACT: note_on channel=1 note=29 velocity=126 time=0.002906975
EXTRACT: note_on channel=5 note=69 velocity=78 time=0
EXTRACT: note_on channel=5 note=72 velocity=78 time=0
EXTRACT: note_on channel=7 note=55 velocity=62 time=0
EXTRACT: note_on channel=9 note=36 velocity=119 time=0
EXTRACT: note_on channel=9 note=36 velocity=0 time=0
EXTRACT: note_on channel=3 note=58 velocity=72 time=0.020348825
EXTRACT: control_change channel=6 control=64 value=127 time=0.124999925
EXTRACT: note_on channel=3 note=58 velocity=0 time=0.0915697125
EXTRACT: note_on channel=6 note=65 velocity=0 time=0.0683139125
EXTRACT: note_on channel=6 note=69 velocity=0 time=0.0276162625
EXTRACT: note_on channel=3 note=58 velocity=72 time=0.0014534875
EXTRACT: note_on channel=6 note=72 velocity=0 time=0.0014534875
EXTRACT: note_on channel=6 note=53 velocity=0 time=0.0159883625
EXTRACT: note_on channel=7 note=49 velocity=0 time=0.02906975
EXTRACT: note_on channel=3 note=58 velocity=0 time=0.0479650875
EXTRACT: note_on channel=3 note=58 velocity=72 time=0.0930232
EXTRACT: note_on channel=1 note=29 velocity=0 time=0.0465116
EXTRACT: control_change channel=6 control=64 value=0 time=0.1119185375
EXTRACT: note_on channel=6 note=70 velocity=76 time=0.0101744125
EXTRACT: note_on channel=6 note=67 velocity=83 time=0.0014534875
EXTRACT: note_on channel=6 note=53 velocity=80 time=0.0014534875
EXTRACT: note_on channel=5 note=69 velocity=0 time=0.0014534875
EXTRACT: note_on channel=5 note=72 velocity=0 time=0
EXTRACT: note_on channel=6 note=74 velocity=84 time=0
EXTRACT: note_on channel=1 note=29 velocity=127 time=0.002906975
EXTRACT: note_on channel=5 note=70 velocity=78 time=0
EXTRACT: note_on channel=5 note=74 velocity=78 time=0
EXTRACT: note_on channel=7 note=60 velocity=62 time=0
EXTRACT: note_on channel=9 note=36 velocity=108 time=0
EXTRACT: note_on channel=9 note=36 velocity=0 time=0
EXTRACT: note_on channel=3 note=58 velocity=0 time=0.0799418125
EXTRACT: control_change channel=6 control=64 value=127 time=0.0828487875
EXTRACT: note_on channel=6 note=74 velocity=0 time=0.08720925
EXTRACT: note_on channel=6 note=67 velocity=0 time=0.0072674375
EXTRACT: note_on channel=6 note=70 velocity=0 time=0.00581395
EXTRACT: note_on channel=3 note=58 velocity=72 time=0.0014534875
EXTRACT: note_on channel=6 note=53 velocity=0 time=0.0130813875
EXTRACT: note_on channel=9 note=69 velocity=85 time=0.0712208875
EXTRACT: note_on channel=9 note=69 velocity=0 time=0
EXTRACT: note_on channel=7 note=55 velocity=0 time=0.031976725
EXTRACT: note_on channel=3 note=58 velocity=0 time=0.1177324875
EXTRACT: note_on channel=9 note=69 velocity=81 time=0.0247092875
EXTRACT: note_on channel=9 note=69 velocity=0 time=0
EXTRACT: note_on channel=1 note=29 velocity=0 time=0.049418575
EXTRACT: note_on channel=3 note=58 velocity=72 time=0.031976725
EXTRACT: control_change channel=6 control=64 value=0 time=0.061046475
EXTRACT: note_on channel=5 note=70 velocity=0 time=0.02906975
EXTRACT: note_on channel=5 note=74 velocity=0 time=0
EXTRACT: note_on channel=6 note=53 velocity=76 time=0
EXTRACT: note_on channel=1 note=29 velocity=127 time=0.002906975
EXTRACT: note_on channel=5 note=72 velocity=78 time=0
EXTRACT: note_on channel=5 note=75 velocity=76 time=0
EXTRACT: note_on channel=6 note=70 velocity=86 time=0
EXTRACT: note_on channel=6 note=67 velocity=75 time=0
EXTRACT: note_on channel=6 note=75 velocity=84 time=0
EXTRACT: note_on channel=7 note=67 velocity=62 time=0
EXTRACT: note_on channel=9 note=36 velocity=119 time=0
EXTRACT: note_on channel=9 note=36 velocity=0 time=0
EXTRACT: note_on channel=3 note=58 velocity=0 time=0.0043604625000000004
EXTRACT: note_on channel=3 note=58 velocity=72 time=0.0581395
EXTRACT: control_change channel=6 control=64 value=127 time=0.0392441625
EXTRACT: note_on channel=5 note=75 velocity=0 time=0.06976740000000001
EXTRACT: note_on channel=5 note=74 velocity=71 time=0.002906975
EXTRACT: note_on channel=6 note=67 velocity=0 time=0.05232555
EXTRACT: note_on channel=6 note=70 velocity=0 time=0.002906975
EXTRACT: note_on channel=6 note=75 velocity=0 time=0.0072674375
EXTRACT: note_on channel=6 note=53 velocity=0 time=0
EXTRACT: note_on channel=3 note=58 velocity=0 time=0.0799418125
EXTRACT: note_on channel=5 note=74 velocity=0 time=0.02906975
EXTRACT: note_on channel=5 note=75 velocity=76 time=0.002906975
EXTRACT: note_on channel=3 note=70 velocity=71 time=0.00581395
EXTRACT: note_on channel=7 note=60 velocity=0 time=0.026162775
EXTRACT: note_on channel=3 note=72 velocity=70 time=0.1264534125
EXTRACT: note_on channel=5 note=75 velocity=0 time=0.0130813875
EXTRACT: note_on channel=3 note=70 velocity=0 time=0.002906975
EXTRACT: note_on channel=5 note=77 velocity=75 time=0.0014534875
EXTRACT: note_on channel=1 note=29 velocity=0 time=0.061046475
EXTRACT: control_change channel=6 control=64 value=0 time=0.020348825
EXTRACT: note_on channel=3 note=72 velocity=0 time=0.084302275
EXTRACT: note_on channel=5 note=72 velocity=0 time=0.0043604625000000004
EXTRACT: note_on channel=5 note=77 velocity=0 time=0.002906975
EXTRACT: note_on channel=1 note=34 velocity=127 time=0
EXTRACT: note_on channel=7 note=72 velocity=51 time=0
EXTRACT: note_on channel=9 note=36 velocity=116 time=0
EXTRACT: note_on channel=9 note=36 velocity=0 time=0
EXTRACT: note_on channel=3 note=74 velocity=70 time=0.0232558
EXTRACT: control_change channel=6 control=64 value=127 time=0.0581395
EXTRACT: pitchwheel channel=5 pitch=-6656 time=0.0218023125
EXTRACT: pitchwheel channel=5 pitch=-7296 time=0.00581395
EXTRACT: pitchwheel channel=5 pitch=-8064 time=0.00581395
EXTRACT: note_on channel=3 note=74 velocity=0 time=0.1526161875
EXTRACT: note_on channel=6 note=86 velocity=82 time=0.0799418125
EXTRACT: note_on channel=6 note=77 velocity=68 time=0
EXTRACT: note_on channel=9 note=69 velocity=88 time=0.0014534875
EXTRACT: note_on channel=9 note=69 velocity=0 time=0
EXTRACT: note_on channel=3 note=74 velocity=72 time=0.017441850000000002
EXTRACT: note_on channel=7 note=67 velocity=0 time=0.014534875
EXTRACT: note_on channel=6 note=86 velocity=0 time=0.1177324875
EXTRACT: note_on channel=6 note=77 velocity=0 time=0.0014534875
EXTRACT: note_on channel=9 note=69 velocity=82 time=0.0232558
EXTRACT: note_on channel=9 note=69 velocity=0 time=0
EXTRACT: note_on channel=3 note=74 velocity=0 time=0.0683139125
EXTRACT: note_on channel=1 note=34 velocity=0 time=0.0712208875
EXTRACT: note_on channel=6 note=82 velocity=71 time=0.0334302125
EXTRACT: note_on channel=6 note=89 velocity=75 time=0
EXTRACT: note_on channel=5 note=70 velocity=78 time=0.0014534875
EXTRACT: note_on channel=5 note=74 velocity=78 time=0
EXTRACT: note_on channel=7 note=79 velocity=42 time=0
EXTRACT: note_on channel=9 note=39 velocity=126 time=0
EXTRACT: note_on channel=9 note=39 velocity=0 time=0
EXTRACT: note_on channel=3 note=74 velocity=72 time=0.008720925000000001
EXTRACT: pitchwheel channel=5 pitch=-6784 time=0.026162775
EXTRACT: pitchwheel channel=5 pitch=-5120 time=0.00581395
EXTRACT: pitchwheel channel=5 pitch=-3584 time=0.00581395
EXTRACT: pitchwheel channel=5 pitch=-1792 time=0.00581395
EXTRACT: pitchwheel channel=5 pitch=-384 time=0.0072674375
EXTRACT: pitchwheel channel=5 pitch=0 time=0.00581395
EXTRACT: note_on channel=6 note=89 velocity=0 time=0.06976740000000001
EXTRACT: note_on channel=6 note=82 velocity=0 time=0.0450581125
EXTRACT: note_on channel=6 note=86 velocity=78 time=0.16860455
EXTRACT: note_on channel=7 note=72 velocity=0 time=0.031976725
EXTRACT: note_on channel=3 note=74 velocity=0 time=0.090116225
EXTRACT: note_on channel=6 note=86 velocity=0 time=0.014534875
EXTRACT: note_on channel=1 note=34 velocity=103 time=0.037790675
EXTRACT: note_on channel=9 note=36 velocity=75 time=0
EXTRACT: note_on channel=9 note=36 velocity=0 time=0
EXTRACT: note_on channel=3 note=75 velocity=72 time=0.04069765
EXTRACT: note_on channel=1 note=34 velocity=0 time=0.0218023125
EXTRACT: note_on channel=5 note=70 velocity=0 time=0.1090115625
EXTRACT: note_on channel=5 note=74 velocity=0 time=0
EXTRACT: note_on channel=6 note=77 velocity=71 time=0.0014534875
EXTRACT: note_on channel=6 note=84 velocity=81 time=0
EXTRACT: note_on channel=1 note=34 velocity=127 time=0.0014534875
EXTRACT: note_on channel=5 note=69 velocity=78 time=0
EXTRACT: note_on channel=5 note=72 velocity=78 time=0
EXTRACT: note_on channel=7 note=84 velocity=37 time=0
EXTRACT: note_on channel=9 note=36 velocity=119 time=0
EXTRACT: note_on channel=9 note=36 velocity=0 time=0
EXTRACT: note_on channel=3 note=75 velocity=0 time=0.017441850000000002
EXTRACT: control_change channel=6 control=64 value=127 time=0.0101744125
EXTRACT: note_on channel=3 note=72 velocity=70 time=0.0014534875
EXTRACT: control_change channel=6 control=64 value=0 time=0.034883700000000004
EXTRACT: control_change channel=6 control=64 value=127 time=0.0813953
EXTRACT: note_on channel=3 note=72 velocity=0 time=0.1206394625
EXTRACT: note_on channel=6 note=84 velocity=0 time=0.0508720625
EXTRACT: note_on channel=6 note=77 velocity=0 time=0.008720925000000001
EXTRACT: note_on channel=6 note=81 velocity=78 time=0.0232558
EXTRACT: note_on channel=9 note=36 velocity=108 time=0
EXTRACT: note_on channel=9 note=36 velocity=0 time=0
EXTRACT: note_on channel=9 note=69 velocity=85 time=0
EXTRACT: note_on channel=9 note=69 velocity=0 time=0
EXTRACT: note_on channel=3 note=72 velocity=72 time=0.020348825
EXTRACT: note_on channel=7 note=79 velocity=0 time=0.0116279
EXTRACT: note_on channel=6 note=81 velocity=0 time=0.113372025
EXTRACT: note_on channel=9 note=69 velocity=81 time=0.02906975
EXTRACT: note_on channel=9 note=69 velocity=0 time=0
EXTRACT: note_on channel=3 note=72 velocity=0 time=0.037790675
EXTRACT: note_on channel=3 note=72 velocity=72 time=0.113372025
EXTRACT: note_on channel=6 note=89 velocity=70 time=0.0232558
EXTRACT: note_on channel=9 note=39 velocity=123 time=0
EXTRACT: note_on channel=9 note=39 velocity=0 time=0
EXTRACT: note_on channel=1 note=34 velocity=0 time=0.0043604625000000004
EXTRACT: note_on channel=6 note=89 velocity=0 time=0.2107556875
EXTRACT: note_on channel=6 note=84 velocity=72 time=0.13372085
EXTRACT: note_on channel=7 note=84 velocity=0 time=0.031976725
EXTRACT: note_on channel=3 note=72 velocity=0 time=0.031976725
EXTRACT: note_on channel=6 note=84 velocity=0 time=0.0624999625
EXTRACT: note_on channel=3 note=74 velocity=70 time=0.0508720625
EXTRACT: note_on channel=3 note=74 velocity=0 time=0.1438952625
EXTRACT: note_on channel=3 note=75 velocity=72 time=0.0072674375
EXTRACT: control_change channel=6 control=64 value=0 time=0.002906975
EXTRACT: note_on channel=5 note=72 velocity=0 time=0.014534875
EXTRACT: note_on channel=5 note=69 velocity=0 time=0
EXTRACT: note_on channel=1 note=34 velocity=121 time=0.002906975
EXTRACT: note_on channel=5 note=67 velocity=78 time=0
EXTRACT: note_on channel=5 note=70 velocity=78 time=0
EXTRACT: note_on channel=9 note=36 velocity=116 time=0
EXTRACT: note_on channel=9 note=36 velocity=0 time=0
EXTRACT: control_change channel=6 control=64 value=0 time=0.0188953375
EXTRACT: note_on channel=3 note=75 velocity=0 time=0.2863370375
EXTRACT: note_on channel=3 note=74 velocity=72 time=0.014534875
EXTRACT: note_on channel=6 note=82 velocity=75 time=0.026162775
EXTRACT: note_on channel=9 note=69 velocity=88 time=0.002906975
EXTRACT: note_on channel=9 note=69 velocity=0 time=0
EXTRACT: note_on channel=9 note=69 velocity=82 time=0.1744185
EXTRACT: note_on channel=9 note=69 velocity=0 time=0
EXTRACT: note_on channel=3 note=74 velocity=0 time=0.0712208875
EXTRACT: note_on channel=3 note=72 velocity=72 time=0.06395345
EXTRACT: note_on channel=1 note=34 velocity=0 time=0.0247092875
EXTRACT: note_on channel=6 note=87 velocity=81 time=0.0130813875
EXTRACT: note_on channel=6 note=79 velocity=73 time=0
EXTRACT: note_on channel=9 note=39 velocity=126 time=0.0014534875
EXTRACT: note_on channel=9 note=39 velocity=0 time=0
EXTRACT: control_change channel=6 control=64 value=127 time=0.0188953375
EXTRACT: note_on channel=6 note=82 velocity=0 time=0.0276162625
EXTRACT: note_on channel=3 note=72 velocity=0 time=0.2688951875
EXTRACT: note_on channel=6 note=87 velocity=0 time=0.0116279
EXTRACT: note_on channel=3 note=70 velocity=70 time=0.0159883625
EXTRACT: note_on channel=6 note=82 velocity=73 time=0.00581395
EXTRACT: note_on channel=6 note=79 velocity=0 time=0.002906975
EXTRACT: note_on channel=1 note=34 velocity=105 time=0.171511525
EXTRACT: note_on channel=9 note=36 velocity=75 time=0
EXTRACT: note_on channel=9 note=36 velocity=0 time=0
EXTRACT: note_on channel=1 note=34 velocity=0 time=0.0537790375
EXTRACT: control_change channel=6 control=64 value=0 time=0.049418575
EXTRACT: note_on channel=3 note=70 velocity=0 time=0.0159883625
EXTRACT: note_on channel=6 note=82 velocity=0 time=0.0130813875
EXTRACT: note_on channel=3 note=72 velocity=72 time=0.031976725
EXTRACT: note_on channel=5 note=67 velocity=0 time=0.0072674375
EXTRACT: note_on channel=1 note=34 velocity=121 time=0.002906975
EXTRACT: note_on channel=5 note=66 velocity=78 time=0
EXTRACT: note_on channel=9 note=36 velocity=119 time=0
EXTRACT: note_on channel=9 note=36 velocity=0 time=0
EXTRACT: note_on channel=3 note=72 velocity=0 time=0.328488175
EXTRACT: note_on channel=6 note=78 velocity=70 time=0.020348825
EXTRACT: note_on channel=9 note=36 velocity=108 time=0
EXTRACT: note_on channel=9 note=36 velocity=0 time=0
EXTRACT: note_on channel=9 note=69 velocity=85 time=0
EXTRACT: note_on channel=9 note=69 velocity=0 time=0
EXTRACT: note_on channel=3 note=74 velocity=72 time=0.002906975
EXTRACT: note_on channel=9 note=69 velocity=81 time=0.171511525
EXTRACT: note_on channel=9 note=69 velocity=0 time=0
EXTRACT: note_on channel=3 note=74 velocity=0 time=0.14534875
EXTRACT: note_on channel=6 note=87 velocity=83 time=0.0276162625
EXTRACT: note_on channel=4 note=82 velocity=78 time=0.0014534875
EXTRACT: note_on channel=6 note=82 velocity=71 time=0
EXTRACT: note_on channel=9 note=39 velocity=123 time=0
EXTRACT: note_on channel=9 note=39 velocity=0 time=0
EXTRACT: note_on channel=1 note=34 velocity=0 time=0.0043604625000000004
EXTRACT: note_on channel=6 note=78 velocity=0 time=0.0232558
EXTRACT: note_on channel=4 note=82 velocity=0 time=0.20348825
EXTRACT: note_on channel=4 note=81 velocity=78 time=0.0014534875
EXTRACT: control_change channel=6 control=64 value=127 time=0.0043604625000000004
EXTRACT: note_on channel=6 note=82 velocity=0 time=0.1090115625
EXTRACT: note_on channel=6 note=78 velocity=78 time=0.002906975
EXTRACT: note_on channel=6 note=87 velocity=0 time=0.1031976125
EXTRACT: note_on channel=4 note=81 velocity=0 time=0.0116279
EXTRACT: note_on channel=4 note=79 velocity=78 time=0.0014534875
EXTRACT: note_on channel=3 note=72 velocity=71 time=0.0479650875
EXTRACT: note_on channel=9 note=84 velocity=76 time=0.0101744125
EXTRACT: note_on channel=9 note=84 velocity=0 time=0
EXTRACT: note_on channel=6 note=78 velocity=0 time=0.0305232375
EXTRACT: note_on channel=3 note=72 velocity=0 time=0.1090115625
EXTRACT: note_on channel=3 note=74 velocity=72 time=0.0101744125
EXTRACT: note_on channel=5 note=66 velocity=0 time=0.0218023125
EXTRACT: note_on channel=5 note=70 velocity=0 time=0
EXTRACT: note_on channel=4 note=79 velocity=0 time=0.0014534875
EXTRACT: note_on channel=1 note=34 velocity=127 time=0.0014534875
EXTRACT: note_on channel=9 note=36 velocity=116 time=0
EXTRACT: note_on channel=9 note=36 velocity=0 time=0
EXTRACT: note_on channel=4 note=77 velocity=78 time=0.0014534875
EXTRACT: control_change channel=6 control=64 value=0 time=0.04069765
EXTRACT: pitchwheel channel=5 pitch=-6656 time=0.061046475
EXTRACT: pitchwheel channel=5 pitch=-7296 time=0.00581395
EXTRACT: pitchwheel channel=5 pitch=-8064 time=0.00581395
EXTRACT: note_on channel=4 note=77 velocity=0 time=0.1177324875
EXTRACT: note_on channel=4 note=74 velocity=78 time=0.0014534875
EXTRACT: note_on channel=3 note=74 velocity=0 time=0.017441850000000002
EXTRACT: note_on channel=3 note=74 velocity=72 time=0.0799418125
EXTRACT: control_change channel=6 control=64 value=127 time=0.0072674375
EXTRACT: note_on channel=6 note=86 velocity=83 time=0.0072674375
EXTRACT: note_on channel=6 note=77 velocity=60 time=0.0014534875
EXTRACT: note_on channel=9 note=69 velocity=88 time=0.0014534875
EXTRACT: note_on channel=9 note=69 velocity=0 time=0
EXTRACT: note_on channel=4 note=74 velocity=0 time=0.1148255125
EXTRACT: note_on channel=4 note=72 velocity=78 time=0.002906975
EXTRACT: note_on channel=9 note=69 velocity=82 time=0.0566860125
EXTRACT: note_on channel=9 note=69 velocity=0 time=0
EXTRACT: note_on channel=6 note=77 velocity=0 time=0.020348825
EXTRACT: note_on channel=6 note=86 velocity=0 time=0.008720925000000001
EXTRACT: note_on channel=8 note=77 velocity=85 time=0.0101744125
EXTRACT: note_on channel=10 note=65 velocity=95 time=0
EXTRACT: note_on channel=3 note=74 velocity=0 time=0.0188953375
EXTRACT: note_on channel=8 note=86 velocity=85 time=0.0683139125
EXTRACT: note_on channel=10 note=74 velocity=95 time=0
EXTRACT: note_on channel=8 note=77 velocity=0 time=0.0072674375
EXTRACT: note_on channel=10 note=65 velocity=0 time=0
EXTRACT: note_on channel=1 note=34 velocity=0 time=0.017441850000000002
EXTRACT: note_on channel=3 note=74 velocity=70 time=0.0116279
EXTRACT: note_on channel=6 note=82 velocity=80 time=0.008720925000000001
EXTRACT: note_on channel=4 note=72 velocity=0 time=0.002906975
EXTRACT: note_on channel=5 note=70 velocity=78 time=0
EXTRACT: note_on channel=5 note=74 velocity=78 time=0
EXTRACT: note_on channel=6 note=74 velocity=67 time=0
EXTRACT: note_on channel=9 note=39 velocity=126 time=0
EXTRACT: note_on channel=9 note=39 velocity=0 time=0
EXTRACT: note_on channel=4 note=70 velocity=78 time=0.0014534875
EXTRACT: pitchwheel channel=5 pitch=-6784 time=0.0334302125
EXTRACT: pitchwheel channel=5 pitch=-5120 time=0.00581395
EXTRACT: pitchwheel channel=5 pitch=-3584 time=0.00581395
EXTRACT: pitchwheel channel=5 pitch=-1792 time=0.00581395
EXTRACT: pitchwheel channel=5 pitch=-384 time=0.0072674375
EXTRACT: pitchwheel channel=5 pitch=0 time=0.00581395
EXTRACT: note_on channel=6 note=74 velocity=0 time=0.066860425
EXTRACT: note_on channel=6 note=82 velocity=0 time=0.0043604625000000004
EXTRACT: note_on channel=8 note=86 velocity=0 time=0.15697665
EXTRACT: note_on channel=10 note=74 velocity=0 time=0
EXTRACT: note_on channel=8 note=87 velocity=85 time=0.014534875
EXTRACT: note_on channel=10 note=75 velocity=95 time=0
EXTRACT: note_on channel=6 note=77 velocity=73 time=0.037790675
EXTRACT: note_on channel=6 note=70 velocity=73 time=0.002906975
EXTRACT: note_on channel=1 note=34 velocity=99 time=0.1744185
EXTRACT: note_on channel=9 note=36 velocity=75 time=0
EXTRACT: note_on channel=9 note=36 velocity=0 time=0
EXTRACT: note_on channel=3 note=74 velocity=0 time=0.00581395
EXTRACT: note_on channel=3 note=75 velocity=70 time=0.0116279
EXTRACT: note_on channel=1 note=34 velocity=0 time=0.037790675
EXTRACT: note_on channel=6 note=77 velocity=0 time=0.078488325
EXTRACT: note_on channel=6 note=70 velocity=0 time=0.002906975
EXTRACT: note_on channel=8 note=89 velocity=85 time=0
EXTRACT: note_on channel=10 note=77 velocity=95 time=0
EXTRACT: note_on channel=8 note=87 velocity=0 time=0.0043604625000000004
EXTRACT: note_on channel=10 note=75 velocity=0 time=0
EXTRACT: note_on channel=5 note=70 velocity=0 time=0.0305232375
EXTRACT: note_on channel=5 note=74 velocity=0 time=0
EXTRACT: note_on channel=1 note=34 velocity=127 time=0.002906975
EXTRACT: note_on channel=5 note=69 velocity=78 time=0
EXTRACT: note_on channel=5 note=72 velocity=78 time=0
EXTRACT: note_on channel=6 note=72 velocity=85 time=0
EXTRACT: note_on channel=9 note=36 velocity=119 time=0
EXTRACT: note_on channel=9 note=36 velocity=0 time=0
EXTRACT: note_on channel=3 note=72 velocity=72 time=0.0130813875
EXTRACT: control_change channel=6 control=64 value=0 time=0.0159883625
EXTRACT: note_on channel=3 note=75 velocity=0 time=0.0130813875
EXTRACT: control_change channel=6 control=64 value=127 time=0.0014534875
EXTRACT: note_on channel=4 note=70 velocity=0 time=0.188953375
EXTRACT: note_on channel=3 note=72 velocity=0 time=0.0232558
EXTRACT: note_on channel=6 note=69 velocity=80 time=0.0930232
EXTRACT: note_on channel=9 note=36 velocity=108 time=0
EXTRACT: note_on channel=9 note=36 velocity=0 time=0
EXTRACT: note_on channel=9 note=69 velocity=85 time=0
EXTRACT: note_on channel=9 note=69 velocity=0 time=0
EXTRACT: note_on channel=3 note=72 velocity=72 time=0.0188953375
EXTRACT: note_on channel=6 note=72 velocity=0 time=0.008720925000000001
EXTRACT: note_on channel=6 note=69 velocity=0 time=0.1046511
EXTRACT: note_on channel=9 note=69 velocity=81 time=0.0421511375
EXTRACT: note_on channel=9 note=69 velocity=0 time=0
EXTRACT: note_on channel=10 note=77 velocity=0 time=0.0828487875
EXTRACT: note_on channel=8 note=89 velocity=0 time=0
EXTRACT: note_on channel=8 note=84 velocity=85 time=0.0043604625000000004
EXTRACT: note_on channel=10 note=72 velocity=95 time=0
EXTRACT: note_on channel=3 note=72 velocity=0 time=0.017441850000000002
EXTRACT: note_on channel=8 note=86 velocity=85 time=0.06395345
EXTRACT: note_on channel=10 note=74 velocity=95 time=0
EXTRACT: note_on channel=6 note=84 velocity=85 time=0.0043604625000000004
EXTRACT: note_on channel=6 note=77 velocity=73 time=0.0014534875
EXTRACT: note_on channel=9 note=39 velocity=123 time=0
EXTRACT: note_on channel=9 note=39 velocity=0 time=0
EXTRACT: note_on channel=3 note=72 velocity=72 time=0.0130813875
EXTRACT: note_on channel=8 note=84 velocity=0 time=0.017441850000000002
EXTRACT: note_on channel=10 note=72 velocity=0 time=0
EXTRACT: note_on channel=1 note=34 velocity=0 time=0.078488325
EXTRACT: note_on channel=8 note=82 velocity=85 time=0.043604625
EXTRACT: note_on channel=10 note=70 velocity=95 time=0
EXTRACT: note_on channel=8 note=86 velocity=0 time=0.008720925000000001
EXTRACT: note_on channel=10 note=74 velocity=0 time=0
EXTRACT: note_on channel=6 note=84 velocity=0 time=0.0334302125
EXTRACT: note_on channel=6 note=77 velocity=0 time=0.0043604625000000004
EXTRACT: note_on channel=6 note=81 velocity=82 time=0.1497092125
EXTRACT: note_on channel=3 note=72 velocity=0 time=0.113372025
EXTRACT: note_on channel=6 note=81 velocity=0 time=0.043604625
EXTRACT: note_on channel=3 note=74 velocity=72 time=0.017441850000000002
EXTRACT: note_on channel=3 note=74 velocity=0 time=0.1322673625
EXTRACT: control_change channel=6 control=64 value=0 time=0.0130813875
EXTRACT: note_on channel=6 note=53 velocity=81 time=0.0218023125
EXTRACT: note_on channel=5 note=72 velocity=0 time=0.0043604625000000004
EXTRACT: note_on channel=5 note=69 velocity=0 time=0
EXTRACT: note_on channel=1 note=29 velocity=127 time=0.002906975
EXTRACT: note_on channel=3 note=77 velocity=70 time=0
EXTRACT: note_on channel=5 note=67 velocity=78 time=0
EXTRACT: note_on channel=5 note=70 velocity=78 time=0
EXTRACT: note_on channel=7 note=49 velocity=62 time=0
EXTRACT: note_on channel=9 note=36 velocity=116 time=0
EXTRACT: note_on channel=9 note=36 velocity=0 time=0
EXTRACT: note_on channel=6 note=67 velocity=87 time=0.00581395
EXTRACT: note_on channel=6 note=70 velocity=82 time=0.0014534875
EXTRACT: note_on channel=6 note=63 velocity=73 time=0
EXTRACT: control_change channel=6 control=64 value=127 time=0.014534875
EXTRACT: note_on channel=3 note=77 velocity=0 time=0.0857557625
EXTRACT: note_on channel=3 note=77 velocity=72 time=0.0654069375
EXTRACT: note_on channel=3 note=77 velocity=0 time=0.1090115625
EXTRACT: note_on channel=6 note=53 velocity=0 time=0.0130813875
EXTRACT: note_on channel=3 note=74 velocity=72 time=0.0537790375
EXTRACT: note_on channel=9 note=69 velocity=88 time=0
EXTRACT: note_on channel=9 note=69 velocity=0 time=0
EXTRACT: note_on channel=6 note=67 velocity=0 time=0.0043604625000000004
EXTRACT: note_on channel=6 note=63 velocity=0 time=0.0014534875
EXTRACT: note_on channel=6 note=70 velocity=0 time=0
EXTRACT: note_on channel=8 note=82 velocity=0 time=0.0116279
EXTRACT: note_on channel=10 note=70 velocity=0 time=0
EXTRACT: note_on channel=3 note=74 velocity=0 time=0.0915697125
EXTRACT: note_on channel=9 note=69 velocity=82 time=0.0654069375
EXTRACT: note_on channel=9 note=69 velocity=0 time=0
EXTRACT: note_on channel=3 note=74 velocity=69 time=0.0014534875
EXTRACT: note_on channel=1 note=29 velocity=0 time=0.049418575
EXTRACT: note_on channel=3 note=74 velocity=0 time=0.0712208875
EXTRACT: control_change channel=6 control=64 value=0 time=0.0116279
EXTRACT: note_on channel=6 note=53 velocity=77 time=0.031976725
EXTRACT: note_on channel=6 note=69 velocity=80 time=0.0014534875
EXTRACT: note_on channel=6 note=72 velocity=77 time=0.0014534875
EXTRACT: note_on channel=6 note=65 velocity=66 time=0.0014534875
EXTRACT: note_on channel=5 note=67 velocity=0 time=0.0014534875
EXTRACT: note_on channel=5 note=70 velocity=0 time=0
EXTRACT: note_on channel=1 note=29 velocity=126 time=0.002906975
EXTRACT: note_on channel=3 note=77 velocity=72 time=0
EXTRACT: note_on channel=5 note=69 velocity=78 time=0
EXTRACT: note_on channel=5 note=72 velocity=78 time=0
EXTRACT: note_on channel=7 note=55 velocity=62 time=0
EXTRACT: note_on channel=9 note=36 velocity=119 time=0
EXTRACT: note_on channel=9 note=36 velocity=0 time=0
EXTRACT: control_change channel=6 control=64 value=127 time=0.14534875
EXTRACT: note_on channel=3 note=77 velocity=0 time=0.0712208875
EXTRACT: note_on channel=6 note=65 velocity=0 time=0.0886627375
EXTRACT: note_on channel=6 note=69 velocity=0 time=0.0276162625
EXTRACT: note_on channel=6 note=72 velocity=0 time=0.002906975
EXTRACT: note_on channel=3 note=79 velocity=72 time=0.0116279
EXTRACT: note_on channel=6 note=53 velocity=0 time=0.0043604625000000004
EXTRACT: note_on channel=7 note=49 velocity=0 time=0.02906975
EXTRACT: note_on channel=1 note=29 velocity=0 time=0.1874998875
EXTRACT: note_on channel=3 note=79 velocity=0 time=0.0624999625
EXTRACT: control_change channel=6 control=64 value=0 time=0.049418575
EXTRACT: note_on channel=6 note=70 velocity=76 time=0.0101744125
EXTRACT: note_on channel=6 note=67 velocity=83 time=0.0014534875
EXTRACT: note_on channel=6 note=53 velocity=80 time=0.0014534875
EXTRACT: note_on channel=5 note=72 velocity=0 time=0.0014534875
EXTRACT: note_on channel=5 note=69 velocity=0 time=0
EXTRACT: note_on channel=6 note=74 velocity=84 time=0
EXTRACT: note_on channel=3 note=81 velocity=72 time=0.0014534875
EXTRACT: note_on channel=1 note=29 velocity=127 time=0.0014534875
EXTRACT: note_on channel=5 note=70 velocity=78 time=0
EXTRACT: note_on channel=5 note=74 velocity=78 time=0
EXTRACT: note_on channel=7 note=60 velocity=62 time=0
EXTRACT: note_on channel=9 note=36 velocity=108 time=0
EXTRACT: note_on channel=9 note=36 velocity=0 time=0
EXTRACT: control_change channel=6 control=64 value=127 time=0.1627906
EXTRACT: note_on channel=6 note=74 velocity=0 time=0.08720925
EXTRACT: note_on channel=6 note=67 velocity=0 time=0.0072674375
EXTRACT: note_on channel=6 note=70 velocity=0 time=0.00581395
EXTRACT: note_on channel=6 note=53 velocity=0 time=0.014534875
EXTRACT: note_on channel=3 note=81 velocity=0 time=0.05232555
EXTRACT: note_on channel=3 note=79 velocity=70 time=0.0188953375
EXTRACT: note_on channel=9 note=69 velocity=85 time=0
EXTRACT: note_on channel=9 note=69 velocity=0 time=0
EXTRACT: note_on channel=7 note=55 velocity=0 time=0.031976725
EXTRACT: note_on channel=9 note=69 velocity=81 time=0.142441775
EXTRACT: note_on channel=9 note=69 velocity=0 time=0
EXTRACT: note_on channel=1 note=29 velocity=0 time=0.049418575
EXTRACT: note_on channel=3 note=79 velocity=0 time=0.055232525
EXTRACT: control_change channel=6 control=64 value=0 time=0.037790675
EXTRACT: note_on channel=5 note=74 velocity=0 time=0.02906975
EXTRACT: note_on channel=5 note=70 velocity=0 time=0
EXTRACT: note_on channel=6 note=53 velocity=76 time=0
EXTRACT: note_on channel=1 note=29 velocity=127 time=0.002906975
EXTRACT: note_on channel=3 note=77 velocity=70 time=0
EXTRACT: note_on channel=5 note=72 velocity=78 time=0
EXTRACT: note_on channel=5 note=75 velocity=76 time=0
EXTRACT: note_on channel=6 note=70 velocity=86 time=0
EXTRACT: note_on channel=6 note=67 velocity=75 time=0
EXTRACT: note_on channel=6 note=75 velocity=84 time=0
EXTRACT: note_on channel=7 note=67 velocity=62 time=0
EXTRACT: note_on channel=9 note=36 velocity=119 time=0
EXTRACT: note_on channel=9 note=36 velocity=0 time=0
EXTRACT: control_change channel=6 control=64 value=127 time=0.101744125
EXTRACT: note_on channel=5 note=75 velocity=0 time=0.06976740000000001
EXTRACT: note_on channel=5 note=74 velocity=71 time=0.002906975
EXTRACT: note_on channel=6 note=67 velocity=0 time=0.05232555
EXTRACT: note_on channel=6 note=70 velocity=0 time=0.002906975
EXTRACT: note_on channel=6 note=75 velocity=0 time=0.0072674375
EXTRACT: note_on channel=6 note=53 velocity=0 time=0
EXTRACT: note_on channel=5 note=74 velocity=0 time=0.1090115625
EXTRACT: note_on channel=5 note=75 velocity=76 time=0.002906975
EXTRACT: note_on channel=7 note=60 velocity=0 time=0.031976725
EXTRACT: note_on channel=3 note=77 velocity=0 time=0.0421511375
EXTRACT: note_on channel=5 note=75 velocity=0 time=0.0973836625
EXTRACT: note_on channel=5 note=77 velocity=75 time=0.0043604625000000004
EXTRACT: note_on channel=1 note=29 velocity=0 time=0.061046475
EXTRACT: control_change channel=6 control=64 value=0 time=0.020348825
EXTRACT: note_on channel=5 note=72 velocity=0 time=0.0886627375
EXTRACT: note_on channel=5 note=77 velocity=0 time=0.002906975
EXTRACT: note_on channel=1 note=34 velocity=127 time=0
EXTRACT: note_on channel=7 note=72 velocity=51 time=0
EXTRACT: note_on channel=9 note=36 velocity=116 time=0
EXTRACT: note_on channel=9 note=36 velocity=0 time=0
EXTRACT: control_change channel=6 control=64 value=127 time=0.0813953
EXTRACT: pitchwheel channel=5 pitch=-6656 time=0.0218023125
EXTRACT: pitchwheel channel=5 pitch=-7296 time=0.00581395
EXTRACT: pitchwheel channel=5 pitch=-8064 time=0.00581395
EXTRACT: note_on channel=6 note=86 velocity=82 time=0.232558
EXTRACT: note_on channel=6 note=77 velocity=68 time=0
EXTRACT: note_on channel=3 note=77 velocity=72 time=0.0014534875
EXTRACT: note_on channel=9 note=69 velocity=88 time=0
EXTRACT: note_on channel=9 note=69 velocity=0 time=0
EXTRACT: note_on channel=7 note=67 velocity=0 time=0.031976725
EXTRACT: note_on channel=6 note=86 velocity=0 time=0.1177324875
EXTRACT: note_on channel=6 note=77 velocity=0 time=0.0014534875
EXTRACT: note_on channel=3 note=77 velocity=0 time=0.0130813875
EXTRACT: note_on channel=9 note=69 velocity=82 time=0.0101744125
EXTRACT: note_on channel=9 note=69 velocity=0 time=0
EXTRACT: note_on channel=1 note=34 velocity=0 time=0.13953480000000001
EXTRACT: note_on channel=6 note=82 velocity=71 time=0.0334302125
EXTRACT: note_on channel=6 note=89 velocity=75 time=0
EXTRACT: note_on channel=5 note=70 velocity=78 time=0.0014534875
EXTRACT: note_on channel=5 note=74 velocity=78 time=0
EXTRACT: note_on channel=7 note=79 velocity=42 time=0
EXTRACT: note_on channel=9 note=39 velocity=126 time=0
EXTRACT: note_on channel=9 note=39 velocity=0 time=0
EXTRACT: pitchwheel channel=5 pitch=-6784 time=0.034883700000000004
EXTRACT: pitchwheel channel=5 pitch=-5120 time=0.00581395
EXTRACT: pitchwheel channel=5 pitch=-3584 time=0.00581395
EXTRACT: pitchwheel channel=5 pitch=-1792 time=0.00581395
EXTRACT: pitchwheel channel=5 pitch=-384 time=0.0072674375
EXTRACT: pitchwheel channel=5 pitch=0 time=0.00581395
EXTRACT: note_on channel=6 note=89 velocity=0 time=0.06976740000000001
EXTRACT: note_on channel=3 note=70 velocity=72 time=0.037790675
EXTRACT: note_on channel=6 note=82 velocity=0 time=0.0072674375
EXTRACT: note_on channel=6 note=86 velocity=78 time=0.16860455
EXTRACT: note_on channel=7 note=72 velocity=0 time=0.031976725
EXTRACT: note_on channel=3 note=70 velocity=0 time=0.0043604625000000004
EXTRACT: note_on channel=6 note=86 velocity=0 time=0.1002906375
EXTRACT: note_on channel=3 note=70 velocity=72 time=0.0363371875
EXTRACT: note_on channel=1 note=34 velocity=103 time=0.0014534875
EXTRACT: note_on channel=9 note=36 velocity=75 time=0
EXTRACT: note_on channel=9 note=36 velocity=0 time=0
EXTRACT: note_on channel=1 note=34 velocity=0 time=0.0624999625
EXTRACT: note_on channel=3 note=70 velocity=0 time=0.0247092875
EXTRACT: note_on channel=5 note=70 velocity=0 time=0.084302275
EXTRACT: note_on channel=5 note=74 velocity=0 time=0
EXTRACT: note_on channel=3 note=70 velocity=72 time=0.0014534875
EXTRACT: note_on channel=6 note=77 velocity=71 time=0
EXTRACT: note_on channel=6 note=84 velocity=81 time=0
EXTRACT: note_on channel=1 note=34 velocity=127 time=0.0014534875
EXTRACT: note_on channel=5 note=69 velocity=78 time=0
EXTRACT: note_on channel=5 note=72 velocity=78 time=0
EXTRACT: note_on channel=7 note=84 velocity=37 time=0
EXTRACT: note_on channel=9 note=36 velocity=119 time=0
EXTRACT: note_on channel=9 note=36 velocity=0 time=0
EXTRACT: control_change channel=6 control=64 value=127 time=0.0276162625
EXTRACT: control_change channel=6 control=64 value=0 time=0.0363371875
EXTRACT: control_change channel=6 control=64 value=127 time=0.0813953
EXTRACT: note_on channel=3 note=70 velocity=0 time=0.0654069375
EXTRACT: note_on channel=6 note=84 velocity=0 time=0.1061045875
EXTRACT: note_on channel=6 note=77 velocity=0 time=0.008720925000000001
EXTRACT: note_on channel=3 note=70 velocity=72 time=0.0218023125
EXTRACT: note_on channel=6 note=81 velocity=78 time=0.0014534875
EXTRACT: note_on channel=9 note=36 velocity=108 time=0
EXTRACT: note_on channel=9 note=36 velocity=0 time=0
EXTRACT: note_on channel=9 note=69 velocity=85 time=0
EXTRACT: note_on channel=9 note=69 velocity=0 time=0
EXTRACT: note_on channel=7 note=79 velocity=0 time=0.031976725
EXTRACT: note_on channel=3 note=70 velocity=0 time=0.072674375
EXTRACT: note_on channel=6 note=81 velocity=0 time=0.04069765
EXTRACT: note_on channel=3 note=70 velocity=70 time=0.0276162625
EXTRACT: note_on channel=9 note=69 velocity=81 time=0.0014534875
EXTRACT: note_on channel=9 note=69 velocity=0 time=0
EXTRACT: note_on channel=3 note=70 velocity=0 time=0.0944766875
EXTRACT: note_on channel=3 note=70 velocity=72 time=0.078488325
EXTRACT: note_on channel=6 note=89 velocity=70 time=0.0014534875
EXTRACT: note_on channel=9 note=39 velocity=123 time=0
EXTRACT: note_on channel=9 note=39 velocity=0 time=0
EXTRACT: note_on channel=1 note=34 velocity=0 time=0.0043604625000000004
EXTRACT: note_on channel=3 note=72 velocity=72 time=0.16860455
EXTRACT: note_on channel=3 note=70 velocity=0 time=0.008720925000000001
EXTRACT: note_on channel=6 note=89 velocity=0 time=0.0334302125
EXTRACT: note_on channel=3 note=72 velocity=0 time=0.1264534125
EXTRACT: note_on channel=6 note=84 velocity=72 time=0.0072674375
EXTRACT: note_on channel=3 note=74 velocity=72 time=0.0014534875
EXTRACT: note_on channel=7 note=84 velocity=0 time=0.0305232375
EXTRACT: note_on channel=6 note=84 velocity=0 time=0.0944766875
EXTRACT: note_on channel=3 note=74 velocity=0 time=0.0741278625
EXTRACT: control_change channel=6 control=64 value=0 time=0.130813875
EXTRACT: note_on channel=5 note=72 velocity=0 time=0.014534875
EXTRACT: note_on channel=5 note=69 velocity=0 time=0
EXTRACT: note_on channel=1 note=34 velocity=121 time=0.002906975
EXTRACT: note_on channel=5 note=67 velocity=78 time=0
EXTRACT: note_on channel=5 note=70 velocity=78 time=0
EXTRACT: note_on channel=9 note=36 velocity=116 time=0
EXTRACT: note_on channel=9 note=36 velocity=0 time=0
EXTRACT: control_change channel=6 control=64 value=0 time=0.0188953375
EXTRACT: note_on channel=3 note=70 velocity=73 time=0.15697665
EXTRACT: note_on channel=3 note=70 velocity=0 time=0.124999925
EXTRACT: note_on channel=3 note=77 velocity=70 time=0.0450581125
EXTRACT: note_on channel=6 note=82 velocity=75 time=0
EXTRACT: note_on channel=9 note=69 velocity=88 time=0.002906975
EXTRACT: note_on channel=9 note=69 velocity=0 time=0
EXTRACT: note_on channel=3 note=77 velocity=0 time=0.0915697125
EXTRACT: note_on channel=3 note=77 velocity=70 time=0.0799418125
EXTRACT: note_on channel=9 note=69 velocity=82 time=0.002906975
EXTRACT: note_on channel=9 note=69 velocity=0 time=0
EXTRACT: note_on channel=3 note=77 velocity=0 time=0.09883715
EXTRACT: note_on channel=1 note=34 velocity=0 time=0.061046475
EXTRACT: note_on channel=6 note=87 velocity=81 time=0.0130813875
EXTRACT: note_on channel=6 note=79 velocity=73 time=0
EXTRACT: note_on channel=9 note=39 velocity=126 time=0.0014534875
EXTRACT: note_on channel=9 note=39 velocity=0 time=0
EXTRACT: note_on channel=3 note=77 velocity=70 time=0.002906975
EXTRACT: control_change channel=6 control=64 value=127 time=0.0159883625
EXTRACT: note_on channel=6 note=82 velocity=0 time=0.0276162625
EXTRACT: note_on channel=3 note=70 velocity=72 time=0.13372085
EXTRACT: note_on channel=3 note=77 velocity=0 time=0.026162775
EXTRACT: note_on channel=6 note=87 velocity=0 time=0.1206394625
EXTRACT: note_on channel=6 note=82 velocity=73 time=0.0218023125
EXTRACT: note_on channel=6 note=79 velocity=0 time=0.002906975
EXTRACT: note_on channel=3 note=70 velocity=0 time=0.0712208875
EXTRACT: note_on channel=1 note=34 velocity=105 time=0.1002906375
EXTRACT: note_on channel=9 note=36 velocity=75 time=0
EXTRACT: note_on channel=9 note=36 velocity=0 time=0
EXTRACT: note_on channel=3 note=70 velocity=72 time=0.00581395
EXTRACT: note_on channel=1 note=34 velocity=0 time=0.0479650875
EXTRACT: control_change channel=6 control=64 value=0 time=0.049418575
EXTRACT: note_on channel=3 note=70 velocity=0 time=0.0116279
EXTRACT: note_on channel=6 note=82 velocity=0 time=0.017441850000000002
EXTRACT: note_on channel=5 note=67 velocity=0 time=0.0392441625
EXTRACT: note_on channel=1 note=34 velocity=121 time=0.002906975
EXTRACT: note_on channel=5 note=66 velocity=78 time=0
EXTRACT: note_on channel=9 note=36 velocity=119 time=0
EXTRACT: note_on channel=9 note=36 velocity=0 time=0
EXTRACT: note_on channel=3 note=70 velocity=72 time=0.020348825
EXTRACT: note_on channel=3 note=70 velocity=0 time=0.1671510625
EXTRACT: note_on channel=3 note=70 velocity=70 time=0.0537790375
EXTRACT: note_on channel=6 note=78 velocity=70 time=0.107558075
EXTRACT: note_on channel=9 note=36 velocity=108 time=0
EXTRACT: note_on channel=9 note=36 velocity=0 time=0
EXTRACT: note_on channel=9 note=69 velocity=85 time=0
EXTRACT: note_on channel=9 note=69 velocity=0 time=0
EXTRACT: note_on channel=3 note=72 velocity=72 time=0.1235464375
EXTRACT: note_on channel=3 note=70 velocity=0 time=0.0188953375
EXTRACT: note_on channel=9 note=69 velocity=81 time=0.031976725
EXTRACT: note_on channel=9 note=69 velocity=0 time=0
EXTRACT: note_on channel=3 note=72 velocity=0 time=0.1380813125
EXTRACT: note_on channel=6 note=87 velocity=83 time=0.034883700000000004
EXTRACT: note_on channel=4 note=82 velocity=78 time=0.0014534875
EXTRACT: note_on channel=6 note=82 velocity=71 time=0
EXTRACT: note_on channel=9 note=39 velocity=123 time=0
EXTRACT: note_on channel=9 note=39 velocity=0 time=0
EXTRACT: note_on channel=1 note=34 velocity=0 time=0.0043604625000000004
EXTRACT: note_on channel=3 note=75 velocity=70 time=0
EXTRACT: note_on channel=6 note=78 velocity=0 time=0.0232558
EXTRACT: note_on channel=4 note=82 velocity=0 time=0.20348825
EXTRACT: note_on channel=4 note=81 velocity=78 time=0.0014534875
EXTRACT: control_change channel=6 control=64 value=127 time=0.0043604625000000004
EXTRACT: note_on channel=3 note=74 velocity=72 time=0.0247092875
EXTRACT: note_on channel=3 note=75 velocity=0 time=0.031976725
EXTRACT: note_on channel=6 note=82 velocity=0 time=0.05232555
EXTRACT: note_on channel=6 note=78 velocity=78 time=0.002906975
EXTRACT: note_on channel=3 note=74 velocity=0 time=0.0915697125
EXTRACT: note_on channel=6 note=87 velocity=0 time=0.0116279
EXTRACT: note_on channel=4 note=81 velocity=0 time=0.0116279
EXTRACT: note_on channel=4 note=79 velocity=78 time=0.0014534875
EXTRACT: note_on channel=3 note=72 velocity=71 time=0.014534875
EXTRACT: note_on channel=9 note=84 velocity=76 time=0.043604625
EXTRACT: note_on channel=9 note=84 velocity=0 time=0
EXTRACT: note_on channel=6 note=78 velocity=0 time=0.0305232375
EXTRACT: note_on channel=5 note=66 velocity=0 time=0.1409882875
EXTRACT: note_on channel=5 note=70 velocity=0 time=0
EXTRACT: note_on channel=4 note=79 velocity=0 time=0.0014534875
EXTRACT: note_on channel=1 note=34 velocity=127 time=0.0014534875
EXTRACT: note_on channel=9 note=36 velocity=116 time=0
EXTRACT: note_on channel=9 note=36 velocity=0 time=0
EXTRACT: note_on channel=4 note=77 velocity=78 time=0.0014534875
EXTRACT: note_on channel=3 note=72 velocity=0 time=0.034883700000000004
EXTRACT: control_change channel=6 control=64 value=0 time=0.00581395
EXTRACT: pitchwheel channel=5 pitch=-6656 time=0.061046475
EXTRACT: pitchwheel channel=5 pitch=-7296 time=0.00581395
EXTRACT: pitchwheel channel=5 pitch=-8064 time=0.00581395
EXTRACT: note_on channel=4 note=77 velocity=0 time=0.1177324875
EXTRACT: note_on channel=4 note=74 velocity=78 time=0.0014534875
EXTRACT: control_change channel=6 control=64 value=127 time=0.1046511
EXTRACT: note_on channel=6 note=86 velocity=83 time=0.0072674375
EXTRACT: note_on channel=6 note=77 velocity=60 time=0.0014534875
EXTRACT: note_on channel=9 note=69 velocity=88 time=0.0014534875
EXTRACT: note_on channel=9 note=69 velocity=0 time=0
EXTRACT: note_on channel=4 note=74 velocity=0 time=0.1148255125
EXTRACT: note_on channel=4 note=72 velocity=78 time=0.002906975
EXTRACT: note_on channel=3 note=72 velocity=73 time=0.049418575
EXTRACT: note_on channel=9 note=69 velocity=82 time=0.0072674375
EXTRACT: note_on channel=9 note=69 velocity=0 time=0
EXTRACT: note_on channel=6 note=77 velocity=0 time=0.020348825
EXTRACT: note_on channel=6 note=86 velocity=0 time=0.008720925000000001
EXTRACT: note_on channel=3 note=72 velocity=0 time=0.116279
EXTRACT: note_on channel=1 note=34 velocity=0 time=0.00581395
EXTRACT: note_on channel=6 note=82 velocity=80 time=0.020348825
EXTRACT: note_on channel=4 note=72 velocity=0 time=0.002906975
EXTRACT: note_on channel=5 note=70 velocity=78 time=0
EXTRACT: note_on channel=5 note=74 velocity=78 time=0
EXTRACT: note_on channel=6 note=74 velocity=67 time=0
EXTRACT: note_on channel=9 note=39 velocity=126 time=0
EXTRACT: note_on channel=9 note=39 velocity=0 time=0
EXTRACT: note_on channel=3 note=70 velocity=72 time=0.0014534875
EXTRACT: note_on channel=4 note=70 velocity=78 time=0
EXTRACT: pitchwheel channel=5 pitch=-6784 time=0.0334302125
EXTRACT: pitchwheel channel=5 pitch=-5120 time=0.00581395
EXTRACT: pitchwheel channel=5 pitch=-3584 time=0.00581395
EXTRACT: pitchwheel channel=5 pitch=-1792 time=0.00581395
EXTRACT: pitchwheel channel=5 pitch=-384 time=0.0072674375
EXTRACT: pitchwheel channel=5 pitch=0 time=0.00581395
EXTRACT: note_on channel=6 note=74 velocity=0 time=0.066860425
EXTRACT: note_on channel=6 note=82 velocity=0 time=0.0043604625000000004
EXTRACT: note_on channel=3 note=70 velocity=0 time=0.0770348375
EXTRACT: note_on channel=3 note=70 velocity=72 time=0.107558075
EXTRACT: note_on channel=6 note=77 velocity=73 time=0.0247092875
EXTRACT: note_on channel=6 note=70 velocity=73 time=0.002906975
EXTRACT: note_on channel=3 note=70 velocity=0 time=0.1511627
EXTRACT: note_on channel=3 note=72 velocity=72 time=0.0130813875
EXTRACT: note_on channel=1 note=34 velocity=99 time=0.0101744125
EXTRACT: note_on channel=9 note=36 velocity=75 time=0
EXTRACT: note_on channel=9 note=36 velocity=0 time=0
EXTRACT: note_on channel=1 note=34 velocity=0 time=0.055232525
EXTRACT: note_on channel=6 note=77 velocity=0 time=0.078488325
EXTRACT: note_on channel=6 note=70 velocity=0 time=0.002906975
EXTRACT: note_on channel=5 note=70 velocity=0 time=0.034883700000000004
EXTRACT: note_on channel=5 note=74 velocity=0 time=0
EXTRACT: note_on channel=1 note=34 velocity=127 time=0.002906975
EXTRACT: note_on channel=5 note=69 velocity=78 time=0
EXTRACT: note_on channel=5 note=72 velocity=78 time=0
EXTRACT: note_on channel=6 note=72 velocity=85 time=0
EXTRACT: note_on channel=9 note=36 velocity=119 time=0
EXTRACT: note_on channel=9 note=36 velocity=0 time=0
EXTRACT: note_on channel=3 note=72 velocity=0 time=0.00581395
EXTRACT: note_on channel=3 note=77 velocity=72 time=0.00581395
EXTRACT: control_change channel=6 control=64 value=0 time=0.017441850000000002
EXTRACT: control_change channel=6 control=64 value=127 time=0.014534875
EXTRACT: note_on channel=3 note=77 velocity=0 time=0.18023245
EXTRACT: note_on channel=4 note=70 velocity=0 time=0.008720925000000001
EXTRACT: note_on channel=6 note=69 velocity=80 time=0.116279
EXTRACT: note_on channel=9 note=36 velocity=108 time=0
EXTRACT: note_on channel=9 note=36 velocity=0 time=0
EXTRACT: note_on channel=9 note=69 velocity=85 time=0
EXTRACT: note_on channel=9 note=69 velocity=0 time=0
EXTRACT: note_on channel=3 note=72 velocity=72 time=0.0116279
EXTRACT: note_on channel=6 note=72 velocity=0 time=0.0159883625
EXTRACT: note_on channel=6 note=69 velocity=0 time=0.1046511
EXTRACT: note_on channel=3 note=72 velocity=0 time=0.0232558
EXTRACT: note_on channel=9 note=69 velocity=81 time=0.0188953375
EXTRACT: note_on channel=9 note=69 velocity=0 time=0
EXTRACT: note_on channel=3 note=70 velocity=72 time=0.0130813875
EXTRACT: note_on channel=6 note=84 velocity=85 time=0.159883625
EXTRACT: note_on channel=6 note=77 velocity=73 time=0.0014534875
EXTRACT: note_on channel=9 note=39 velocity=123 time=0
EXTRACT: note_on channel=9 note=39 velocity=0 time=0
EXTRACT: note_on channel=3 note=70 velocity=0 time=0.090116225
EXTRACT: note_on channel=1 note=34 velocity=0 time=0.0188953375
EXTRACT: note_on channel=3 note=72 velocity=72 time=0.0624999625
EXTRACT: note_on channel=6 note=84 velocity=0 time=0.0232558
EXTRACT: note_on channel=6 note=77 velocity=0 time=0.0043604625000000004
EXTRACT: note_on channel=6 note=81 velocity=82 time=0.1497092125
EXTRACT: note_on channel=3 note=72 velocity=0 time=0.0537790375
EXTRACT: note_on channel=6 note=81 velocity=0 time=0.1031976125
EXTRACT: note_on channel=3 note=70 velocity=72 time=0.0276162625
EXTRACT: control_change channel=6 control=64 value=0 time=0.1351743375
EXTRACT: note_on channel=3 note=70 velocity=0 time=0.00581395
EXTRACT: note_on channel=6 note=53 velocity=81 time=0.0159883625
EXTRACT: note_on channel=5 note=72 velocity=0 time=0.0043604625000000004
EXTRACT: note_on channel=5 note=69 velocity=0 time=0
EXTRACT: note_on channel=1 note=29 velocity=127 time=0.002906975
EXTRACT: note_on channel=5 note=67 velocity=78 time=0
EXTRACT: note_on channel=5 note=70 velocity=78 time=0
EXTRACT: note_on channel=7 note=49 velocity=62 time=0
EXTRACT: note_on channel=9 note=36 velocity=116 time=0
EXTRACT: note_on channel=9 note=36 velocity=0 time=0
EXTRACT: note_on channel=3 note=75 velocity=72 time=0.0014534875
EXTRACT: note_on channel=6 note=67 velocity=87 time=0.0043604625000000004
EXTRACT: note_on channel=6 note=70 velocity=82 time=0.0014534875
EXTRACT: note_on channel=6 note=63 velocity=73 time=0
EXTRACT: control_change channel=6 control=64 value=127 time=0.014534875
EXTRACT: note_on channel=6 note=53 velocity=0 time=0.27325565
EXTRACT: note_on channel=3 note=75 velocity=0 time=0.0130813875
EXTRACT: note_on channel=3 note=74 velocity=72 time=0.04069765
EXTRACT: note_on channel=9 note=69 velocity=88 time=0
EXTRACT: note_on channel=9 note=69 velocity=0 time=0
EXTRACT: note_on channel=6 note=67 velocity=0 time=0.0043604625000000004
EXTRACT: note_on channel=6 note=70 velocity=0 time=0.0014534875
EXTRACT: note_on channel=6 note=63 velocity=0 time=0
EXTRACT: note_on channel=3 note=74 velocity=0 time=0.15697665
EXTRACT: note_on channel=3 note=72 velocity=70 time=0.0116279
EXTRACT: note_on channel=9 note=69 velocity=82 time=0
EXTRACT: note_on channel=9 note=69 velocity=0 time=0
EXTRACT: note_on channel=1 note=29 velocity=0 time=0.0508720625
EXTRACT: control_change channel=6 control=64 value=0 time=0.0828487875
EXTRACT: note_on channel=6 note=53 velocity=77 time=0.031976725
EXTRACT: note_on channel=6 note=69 velocity=80 time=0.0014534875
EXTRACT: note_on channel=6 note=72 velocity=77 time=0.0014534875
EXTRACT: note_on channel=6 note=65 velocity=66 time=0.0014534875
EXTRACT: note_on channel=5 note=67 velocity=0 time=0.0014534875
EXTRACT: note_on channel=5 note=70 velocity=0 time=0
EXTRACT: note_on channel=1 note=29 velocity=126 time=0.002906975
EXTRACT: note_on channel=5 note=69 velocity=78 time=0
EXTRACT: note_on channel=5 note=72 velocity=78 time=0
EXTRACT: note_on channel=7 note=55 velocity=62 time=0
EXTRACT: note_on channel=9 note=36 velocity=119 time=0
EXTRACT: note_on channel=9 note=36 velocity=0 time=0
EXTRACT: note_on channel=3 note=72 velocity=0 time=0.072674375
EXTRACT: control_change channel=6 control=64 value=127 time=0.072674375
EXTRACT: note_on channel=3 note=70 velocity=70 time=0.0276162625
EXTRACT: note_on channel=6 note=65 velocity=0 time=0.1322673625
EXTRACT: note_on channel=6 note=69 velocity=0 time=0.0276162625
EXTRACT: note_on channel=6 note=72 velocity=0 time=0.002906975
EXTRACT: note_on channel=6 note=53 velocity=0 time=0.0159883625
EXTRACT: note_on channel=7 note=49 velocity=0 time=0.02906975
EXTRACT: note_on channel=3 note=70 velocity=0 time=0.0683139125
EXTRACT: note_on channel=3 note=75 velocity=70 time=0.0712208875
EXTRACT: note_on channel=4 note=75 velocity=76 time=0
EXTRACT: note_on channel=4 note=79 velocity=76 time=0.002906975
EXTRACT: note_on channel=4 note=82 velocity=76 time=0
EXTRACT: note_on channel=1 note=29 velocity=0 time=0.0450581125
EXTRACT: control_change channel=6 control=64 value=0 time=0.1119185375
EXTRACT: note_on channel=6 note=70 velocity=76 time=0.0101744125
EXTRACT: note_on channel=6 note=67 velocity=83 time=0.0014534875
EXTRACT: note_on channel=6 note=53 velocity=80 time=0.0014534875
EXTRACT: note_on channel=5 note=69 velocity=0 time=0.0014534875
EXTRACT: note_on channel=5 note=72 velocity=0 time=0
EXTRACT: note_on channel=6 note=74 velocity=84 time=0
EXTRACT: note_on channel=1 note=29 velocity=127 time=0.002906975
EXTRACT: note_on channel=5 note=70 velocity=78 time=0
EXTRACT: note_on channel=5 note=74 velocity=78 time=0
EXTRACT: note_on channel=7 note=60 velocity=62 time=0
EXTRACT: note_on channel=9 note=36 velocity=108 time=0
EXTRACT: note_on channel=9 note=36 velocity=0 time=0
EXTRACT: note_on channel=3 note=75 velocity=0 time=0.13953480000000001
EXTRACT: note_on channel=4 note=75 velocity=0 time=0
EXTRACT: note_on channel=4 note=82 velocity=0 time=0.002906975
EXTRACT: note_on channel=4 note=79 velocity=0 time=0
EXTRACT: control_change channel=6 control=64 value=127 time=0.020348825
EXTRACT: note_on channel=3 note=74 velocity=72 time=0.0072674375
EXTRACT: note_on channel=4 note=74 velocity=76 time=0
EXTRACT: note_on channel=4 note=79 velocity=76 time=0.0043604625000000004
EXTRACT: note_on channel=4 note=82 velocity=76 time=0
EXTRACT: note_on channel=6 note=74 velocity=0 time=0.07558135
EXTRACT: note_on channel=6 note=67 velocity=0 time=0.0072674375
EXTRACT: note_on channel=6 note=70 velocity=0 time=0.00581395
EXTRACT: note_on channel=6 note=53 velocity=0 time=0.014534875
EXTRACT: note_on channel=9 note=69 velocity=85 time=0.0712208875
EXTRACT: note_on channel=9 note=69 velocity=0 time=0
EXTRACT: note_on channel=7 note=55 velocity=0 time=0.031976725
EXTRACT: note_on channel=3 note=74 velocity=0 time=0.1206394625
EXTRACT: note_on channel=4 note=74 velocity=0 time=0
EXTRACT: note_on channel=4 note=79 velocity=0 time=0.002906975
EXTRACT: note_on channel=4 note=82 velocity=0 time=0
EXTRACT: note_on channel=4 note=72 velocity=76 time=0.014534875
EXTRACT: note_on channel=3 note=72 velocity=72 time=0.0014534875
EXTRACT: note_on channel=4 note=77 velocity=76 time=0.002906975
EXTRACT: note_on channel=4 note=81 velocity=76 time=0
EXTRACT: note_on channel=9 note=69 velocity=81 time=0
EXTRACT: note_on channel=9 note=69 velocity=0 time=0
EXTRACT: note_on channel=1 note=29 velocity=0 time=0.049418575
EXTRACT: control_change channel=6 control=64 value=0 time=0.0930232
EXTRACT: note_on channel=5 note=74 velocity=0 time=0.02906975
EXTRACT: note_on channel=5 note=70 velocity=0 time=0
EXTRACT: note_on channel=6 note=53 velocity=76 time=0
EXTRACT: note_on channel=3 note=72 velocity=0 time=0.0014534875
EXTRACT: note_on channel=1 note=29 velocity=127 time=0.0014534875
EXTRACT: note_on channel=5 note=72 velocity=78 time=0
EXTRACT: note_on channel=5 note=75 velocity=76 time=0
EXTRACT: note_on channel=6 note=70 velocity=86 time=0
EXTRACT: note_on channel=6 note=67 velocity=75 time=0
EXTRACT: note_on channel=6 note=75 velocity=84 time=0
EXTRACT: note_on channel=7 note=67 velocity=62 time=0
EXTRACT: note_on channel=9 note=36 velocity=119 time=0
EXTRACT: note_on channel=9 note=36 velocity=0 time=0
EXTRACT: note_on channel=3 note=86 velocity=72 time=0.017441850000000002
EXTRACT: control_change channel=6 control=64 value=127 time=0.084302275
EXTRACT: note_on channel=4 note=72 velocity=0 time=0.0450581125
EXTRACT: note_on channel=4 note=81 velocity=0 time=0.002906975
EXTRACT: note_on channel=4 note=77 velocity=0 time=0
EXTRACT: note_on channel=4 note=70 velocity=76 time=0.020348825
EXTRACT: note_on channel=5 note=75 velocity=0 time=0.0014534875
EXTRACT: note_on channel=4 note=75 velocity=76 time=0.002906975
EXTRACT: note_on channel=4 note=79 velocity=76 time=0
EXTRACT: note_on channel=5 note=74 velocity=71 time=0
EXTRACT: note_on channel=6 note=67 velocity=0 time=0.05232555
EXTRACT: note_on channel=6 note=70 velocity=0 time=0.002906975
EXTRACT: note_on channel=6 note=53 velocity=0 time=0.0072674375
EXTRACT: note_on channel=6 note=75 velocity=0 time=0
EXTRACT: note_on channel=3 note=86 velocity=0 time=0.0915697125
EXTRACT: note_on channel=5 note=74 velocity=0 time=0.017441850000000002
EXTRACT: note_on channel=5 note=75 velocity=76 time=0.002906975
EXTRACT: note_on channel=3 note=84 velocity=72 time=0.008720925000000001
EXTRACT: note_on channel=7 note=60 velocity=0 time=0.0232558
EXTRACT: note_on channel=5 note=75 velocity=0 time=0.13953480000000001
EXTRACT: note_on channel=5 note=77 velocity=75 time=0.0043604625000000004
EXTRACT: note_on channel=1 note=29 velocity=0 time=0.061046475
EXTRACT: note_on channel=4 note=70 velocity=0 time=0.008720925000000001
EXTRACT: note_on channel=4 note=75 velocity=0 time=0.0043604625000000004
EXTRACT: note_on channel=4 note=79 velocity=0 time=0
EXTRACT: control_change channel=6 control=64 value=0 time=0.0072674375
EXTRACT: note_on channel=3 note=84 velocity=0 time=0.07558135
EXTRACT: note_on channel=5 note=72 velocity=0 time=0.0130813875
EXTRACT: note_on channel=5 note=77 velocity=0 time=0.002906975
EXTRACT: note_on channel=1 note=34 velocity=127 time=0
EXTRACT: note_on channel=7 note=72 velocity=51 time=0
EXTRACT: note_on channel=9 note=36 velocity=116 time=0
EXTRACT: note_on channel=9 note=36 velocity=0 time=0
EXTRACT: note_on channel=3 note=82 velocity=70 time=0.0072674375
EXTRACT: control_change channel=6 control=64 value=127 time=0.0741278625
EXTRACT: pitchwheel channel=5 pitch=-6656 time=0.0218023125
EXTRACT: pitchwheel channel=5 pitch=-7296 time=0.00581395
EXTRACT: pitchwheel channel=5 pitch=-8064 time=0.00581395
EXTRACT: note_on channel=3 note=77 velocity=70 time=0.1627906
EXTRACT: note_on channel=6 note=86 velocity=82 time=0.06976740000000001
EXTRACT: note_on channel=6 note=77 velocity=68 time=0
EXTRACT: note_on channel=9 note=69 velocity=88 time=0.0014534875
EXTRACT: note_on channel=9 note=69 velocity=0 time=0
EXTRACT: note_on channel=3 note=82 velocity=0 time=0.0014534875
EXTRACT: note_on channel=7 note=67 velocity=0 time=0.0305232375
EXTRACT: note_on channel=6 note=86 velocity=0 time=0.1177324875
EXTRACT: note_on channel=6 note=77 velocity=0 time=0.0014534875
EXTRACT: note_on channel=9 note=69 velocity=82 time=0.0232558
EXTRACT: note_on channel=9 note=69 velocity=0 time=0
EXTRACT: note_on channel=3 note=77 velocity=0 time=0.0566860125
EXTRACT: note_on channel=1 note=34 velocity=0 time=0.0828487875
EXTRACT: note_on channel=6 note=82 velocity=71 time=0.0334302125
EXTRACT: note_on channel=6 note=89 velocity=75 time=0
EXTRACT: note_on channel=5 note=70 velocity=78 time=0.0014534875
EXTRACT: note_on channel=5 note=74 velocity=78 time=0
EXTRACT: note_on channel=7 note=79 velocity=42 time=0
EXTRACT: note_on channel=9 note=39 velocity=126 time=0
EXTRACT: note_on channel=9 note=39 velocity=0 time=0
EXTRACT: pitchwheel channel=5 pitch=-6784 time=0.034883700000000004
EXTRACT: pitchwheel channel=5 pitch=-5120 time=0.00581395
EXTRACT: pitchwheel channel=5 pitch=-3584 time=0.00581395
EXTRACT: pitchwheel channel=5 pitch=-1792 time=0.00581395
EXTRACT: pitchwheel channel=5 pitch=-384 time=0.0072674375
EXTRACT: pitchwheel channel=5 pitch=0 time=0.00581395
EXTRACT: note_on channel=6 note=89 velocity=0 time=0.06976740000000001
EXTRACT: note_on channel=3 note=70 velocity=70 time=0.0305232375
EXTRACT: note_on channel=6 note=82 velocity=0 time=0.014534875
EXTRACT: note_on channel=6 note=86 velocity=78 time=0.16860455
EXTRACT: note_on channel=7 note=72 velocity=0 time=0.031976725
EXTRACT: note_on channel=3 note=70 velocity=0 time=0.0116279
EXTRACT: note_on channel=6 note=86 velocity=0 time=0.0930232
EXTRACT: note_on channel=1 note=34 velocity=103 time=0.037790675
EXTRACT: note_on channel=9 note=36 velocity=75 time=0
EXTRACT: note_on channel=9 note=36 velocity=0 time=0
EXTRACT: note_on channel=3 note=70 velocity=72 time=0.014534875
EXTRACT: note_on channel=1 note=34 velocity=0 time=0.0479650875
EXTRACT: note_on channel=5 note=70 velocity=0 time=0.1090115625
EXTRACT: note_on channel=5 note=74 velocity=0 time=0
EXTRACT: note_on channel=6 note=77 velocity=71 time=0.0014534875
EXTRACT: note_on channel=6 note=84 velocity=81 time=0
EXTRACT: note_on channel=1 note=34 velocity=127 time=0.0014534875
EXTRACT: note_on channel=5 note=69 velocity=78 time=0
EXTRACT: note_on channel=5 note=72 velocity=78 time=0
EXTRACT: note_on channel=7 note=84 velocity=37 time=0
EXTRACT: note_on channel=9 note=36 velocity=119 time=0
EXTRACT: note_on channel=9 note=36 velocity=0 time=0
EXTRACT: control_change channel=6 control=64 value=127 time=0.0276162625
EXTRACT: control_change channel=6 control=64 value=0 time=0.0363371875
EXTRACT: note_on channel=3 note=70 velocity=0 time=0.0043604625000000004
EXTRACT: control_change channel=6 control=64 value=127 time=0.0770348375
EXTRACT: note_on channel=3 note=70 velocity=70 time=0.0247092875
EXTRACT: note_on channel=6 note=84 velocity=0 time=0.1468022375
EXTRACT: note_on channel=6 note=77 velocity=0 time=0.008720925000000001
EXTRACT: note_on channel=6 note=81 velocity=78 time=0.0232558
EXTRACT: note_on channel=9 note=36 velocity=108 time=0
EXTRACT: note_on channel=9 note=36 velocity=0 time=0
EXTRACT: note_on channel=9 note=69 velocity=85 time=0
EXTRACT: note_on channel=9 note=69 velocity=0 time=0
EXTRACT: note_on channel=7 note=79 velocity=0 time=0.031976725
EXTRACT: note_on channel=3 note=70 velocity=0 time=0.0101744125
EXTRACT: note_on channel=3 note=70 velocity=72 time=0.09883715
EXTRACT: note_on channel=6 note=81 velocity=0 time=0.0043604625000000004
EXTRACT: note_on channel=9 note=69 velocity=81 time=0.02906975
EXTRACT: note_on channel=9 note=69 velocity=0 time=0
EXTRACT: note_on channel=3 note=70 velocity=0 time=0.1046511
EXTRACT: note_on channel=6 note=89 velocity=70 time=0.06976740000000001
EXTRACT: note_on channel=9 note=39 velocity=123 time=0
EXTRACT: note_on channel=9 note=39 velocity=0 time=0
EXTRACT: note_on channel=1 note=34 velocity=0 time=0.0043604625000000004
EXTRACT: note_on channel=3 note=70 velocity=72 time=0.0072674375
EXTRACT: note_on channel=6 note=89 velocity=0 time=0.20348825
EXTRACT: note_on channel=3 note=72 velocity=72 time=0.0392441625
EXTRACT: note_on channel=3 note=70 velocity=0 time=0.02906975
EXTRACT: note_on channel=6 note=84 velocity=72 time=0.0654069375
EXTRACT: note_on channel=7 note=84 velocity=0 time=0.031976725
EXTRACT: note_on channel=3 note=72 velocity=0 time=0.034883700000000004
EXTRACT: note_on channel=6 note=84 velocity=0 time=0.0595929875
EXTRACT: note_on channel=3 note=74 velocity=72 time=0.0043604625000000004
EXTRACT: control_change channel=6 control=64 value=0 time=0.200581275
EXTRACT: note_on channel=5 note=69 velocity=0 time=0.014534875
EXTRACT: note_on channel=5 note=72 velocity=0 time=0
EXTRACT: note_on channel=1 note=34 velocity=121 time=0.002906975
EXTRACT: note_on channel=5 note=67 velocity=78 time=0
EXTRACT: note_on channel=5 note=70 velocity=78 time=0
EXTRACT: note_on channel=9 note=36 velocity=116 time=0
EXTRACT: note_on channel=9 note=36 velocity=0 time=0
EXTRACT: control_change channel=6 control=64 value=0 time=0.0188953375
EXTRACT: note_on channel=3 note=74 velocity=0 time=0.0188953375
EXTRACT: note_on channel=3 note=70 velocity=72 time=0.1438952625
EXTRACT: note_on channel=3 note=70 velocity=0 time=0.130813875
EXTRACT: note_on channel=6 note=82 velocity=75 time=0.0334302125
EXTRACT: note_on channel=9 note=69 velocity=88 time=0.002906975
EXTRACT: note_on channel=9 note=69 velocity=0 time=0
EXTRACT: note_on channel=3 note=77 velocity=72 time=0.0072674375
EXTRACT: note_on channel=3 note=77 velocity=0 time=0.09883715
EXTRACT: note_on channel=3 note=77 velocity=70 time=0.0624999625
EXTRACT: note_on channel=9 note=69 velocity=82 time=0.00581395
EXTRACT: note_on channel=9 note=69 velocity=0 time=0
EXTRACT: note_on channel=3 note=77 velocity=0 time=0.08720925
EXTRACT: note_on channel=1 note=34 velocity=0 time=0.072674375
EXTRACT: note_on channel=3 note=77 velocity=73 time=0.008720925000000001
EXTRACT: note_on channel=6 note=87 velocity=81 time=0.0043604625000000004
EXTRACT: note_on channel=6 note=79 velocity=73 time=0
EXTRACT: note_on channel=9 note=39 velocity=126 time=0.0014534875
EXTRACT: note_on channel=9 note=39 velocity=0 time=0
EXTRACT: control_change channel=6 control=64 value=127 time=0.0188953375
EXTRACT: note_on channel=6 note=82 velocity=0 time=0.0276162625
EXTRACT: note_on channel=3 note=77 velocity=0 time=0.136627825
EXTRACT: note_on channel=3 note=70 velocity=72 time=0.055232525
EXTRACT: note_on channel=6 note=87 velocity=0 time=0.0886627375
EXTRACT: note_on channel=6 note=82 velocity=73 time=0.0218023125
EXTRACT: note_on channel=6 note=79 velocity=0 time=0.002906975
EXTRACT: note_on channel=3 note=70 velocity=0 time=0.0508720625
EXTRACT: note_on channel=3 note=70 velocity=72 time=0.0828487875
EXTRACT: note_on channel=1 note=34 velocity=105 time=0.037790675
EXTRACT: note_on channel=9 note=36 velocity=75 time=0
EXTRACT: note_on channel=9 note=36 velocity=0 time=0
EXTRACT: note_on channel=1 note=34 velocity=0 time=0.0537790375
EXTRACT: control_change channel=6 control=64 value=0 time=0.049418575
EXTRACT: note_on channel=3 note=70 velocity=0 time=0.008720925000000001
EXTRACT: note_on channel=6 note=82 velocity=0 time=0.020348825
EXTRACT: note_on channel=5 note=67 velocity=0 time=0.0392441625
EXTRACT: note_on channel=1 note=34 velocity=121 time=0.002906975
EXTRACT: note_on channel=3 note=70 velocity=70 time=0
EXTRACT: note_on channel=5 note=66 velocity=78 time=0
EXTRACT: note_on channel=9 note=36 velocity=119 time=0
EXTRACT: note_on channel=9 note=36 velocity=0 time=0
EXTRACT: note_on channel=3 note=70 velocity=0 time=0.0930232
EXTRACT: note_on channel=3 note=70 velocity=70 time=0.0813953
EXTRACT: note_on channel=3 note=70 velocity=0 time=0.0930232
EXTRACT: note_on channel=3 note=70 velocity=74 time=0.0712208875
EXTRACT: note_on channel=6 note=78 velocity=70 time=0.0101744125
EXTRACT: note_on channel=9 note=36 velocity=108 time=0
EXTRACT: note_on channel=9 note=36 velocity=0 time=0
EXTRACT: note_on channel=9 note=69 velocity=85 time=0
EXTRACT: note_on channel=9 note=69 velocity=0 time=0
EXTRACT: note_on channel=3 note=70 velocity=0 time=0.1671510625
EXTRACT: note_on channel=9 note=69 velocity=81 time=0.0072674375
EXTRACT: note_on channel=9 note=69 velocity=0 time=0
EXTRACT: note_on channel=3 note=72 velocity=71 time=0.0014534875
EXTRACT: note_on channel=3 note=72 velocity=0 time=0.142441775
EXTRACT: note_on channel=6 note=87 velocity=83 time=0.02906975
EXTRACT: note_on channel=4 note=82 velocity=78 time=0.0014534875
EXTRACT: note_on channel=6 note=82 velocity=71 time=0
EXTRACT: note_on channel=9 note=39 velocity=123 time=0
EXTRACT: note_on channel=9 note=39 velocity=0 time=0
EXTRACT: note_on channel=1 note=34 velocity=0 time=0.0043604625000000004
EXTRACT: note_on channel=6 note=78 velocity=0 time=0.0232558
EXTRACT: note_on channel=3 note=75 velocity=72 time=0.0159883625
EXTRACT: note_on channel=4 note=82 velocity=0 time=0.1874998875
EXTRACT: note_on channel=4 note=81 velocity=78 time=0.0014534875
EXTRACT: control_change channel=6 control=64 value=127 time=0.0043604625000000004
EXTRACT: note_on channel=3 note=75 velocity=0 time=0.031976725
EXTRACT: note_on channel=3 note=74 velocity=72 time=0.014534875
EXTRACT: note_on channel=6 note=82 velocity=0 time=0.0624999625
EXTRACT: note_on channel=6 note=78 velocity=78 time=0.002906975
EXTRACT: note_on channel=6 note=87 velocity=0 time=0.1031976125
EXTRACT: note_on channel=4 note=81 velocity=0 time=0.0116279
EXTRACT: note_on channel=4 note=79 velocity=78 time=0.0014534875
EXTRACT: note_on channel=3 note=74 velocity=0 time=0.0014534875
EXTRACT: note_on channel=3 note=72 velocity=72 time=0.043604625
EXTRACT: note_on channel=9 note=84 velocity=76 time=0.0130813875
EXTRACT: note_on channel=9 note=84 velocity=0 time=0
EXTRACT: note_on channel=6 note=78 velocity=0 time=0.0305232375
EXTRACT: note_on channel=5 note=70 velocity=0 time=0.1409882875
EXTRACT: note_on channel=5 note=66 velocity=0 time=0
EXTRACT: note_on channel=4 note=79 velocity=0 time=0.0014534875
EXTRACT: note_on channel=1 note=34 velocity=127 time=0.0014534875
EXTRACT: note_on channel=9 note=36 velocity=116 time=0
EXTRACT: note_on channel=9 note=36 velocity=0 time=0
EXTRACT: note_on channel=4 note=77 velocity=78 time=0.0014534875
EXTRACT: note_on channel=3 note=72 velocity=0 time=0.031976725
EXTRACT: control_change channel=6 control=64 value=0 time=0.008720925000000001
EXTRACT: pitchwheel channel=5 pitch=-6656 time=0.061046475
EXTRACT: pitchwheel channel=5 pitch=-7296 time=0.00581395
EXTRACT: pitchwheel channel=5 pitch=-8064 time=0.00581395
EXTRACT: note_on channel=4 note=77 velocity=0 time=0.1177324875
EXTRACT: note_on channel=4 note=74 velocity=78 time=0.0014534875
EXTRACT: control_change channel=6 control=64 value=127 time=0.1046511
EXTRACT: note_on channel=6 note=86 velocity=83 time=0.0072674375
EXTRACT: note_on channel=6 note=77 velocity=60 time=0.0014534875
EXTRACT: note_on channel=9 note=69 velocity=88 time=0.0014534875
EXTRACT: note_on channel=9 note=69 velocity=0 time=0
EXTRACT: note_on channel=4 note=74 velocity=0 time=0.1148255125
EXTRACT: note_on channel=4 note=72 velocity=78 time=0.002906975
EXTRACT: note_on channel=3 note=72 velocity=72 time=0.055232525
EXTRACT: note_on channel=9 note=69 velocity=82 time=0.0014534875
EXTRACT: note_on channel=9 note=69 velocity=0 time=0
EXTRACT: note_on channel=6 note=77 velocity=0 time=0.020348825
EXTRACT: note_on channel=6 note=86 velocity=0 time=0.008720925000000001
EXTRACT: note_on channel=3 note=72 velocity=0 time=0.11046505
EXTRACT: note_on channel=1 note=34 velocity=0 time=0.0116279
EXTRACT: note_on channel=6 note=82 velocity=80 time=0.020348825
EXTRACT: note_on channel=4 note=72 velocity=0 time=0.002906975
EXTRACT: note_on channel=5 note=70 velocity=78 time=0
EXTRACT: note_on channel=5 note=74 velocity=78 time=0
EXTRACT: note_on channel=6 note=74 velocity=67 time=0
EXTRACT: note_on channel=9 note=39 velocity=126 time=0
EXTRACT: note_on channel=9 note=39 velocity=0 time=0
EXTRACT: note_on channel=4 note=70 velocity=78 time=0.0014534875
EXTRACT: note_on channel=3 note=70 velocity=72 time=0.002906975
EXTRACT: pitchwheel channel=5 pitch=-6784 time=0.0305232375
EXTRACT: pitchwheel channel=5 pitch=-5120 time=0.00581395
EXTRACT: pitchwheel channel=5 pitch=-3584 time=0.00581395
EXTRACT: pitchwheel channel=5 pitch=-1792 time=0.00581395
EXTRACT: pitchwheel channel=5 pitch=-384 time=0.0072674375
EXTRACT: pitchwheel channel=5 pitch=0 time=0.00581395
EXTRACT: note_on channel=6 note=74 velocity=0 time=0.066860425
EXTRACT: note_on channel=6 note=82 velocity=0 time=0.0043604625000000004
EXTRACT: note_on channel=3 note=70 velocity=0 time=0.0654069375
EXTRACT: note_on channel=3 note=72 velocity=72 time=0.072674375
EXTRACT: note_on channel=6 note=77 velocity=73 time=0.0712208875
EXTRACT: note_on channel=6 note=70 velocity=73 time=0.002906975
EXTRACT: note_on channel=3 note=72 velocity=0 time=0.1002906375
EXTRACT: note_on channel=3 note=70 velocity=72 time=0.06976740000000001
EXTRACT: note_on channel=1 note=34 velocity=99 time=0.0043604625000000004
EXTRACT: note_on channel=9 note=36 velocity=75 time=0
EXTRACT: note_on channel=9 note=36 velocity=0 time=0
EXTRACT: note_on channel=1 note=34 velocity=0 time=0.055232525
EXTRACT: note_on channel=6 note=77 velocity=0 time=0.078488325
EXTRACT: note_on channel=6 note=70 velocity=0 time=0.002906975
EXTRACT: note_on channel=3 note=70 velocity=0 time=0.0072674375
EXTRACT: note_on channel=5 note=74 velocity=0 time=0.0276162625
EXTRACT: note_on channel=5 note=70 velocity=0 time=0
EXTRACT: note_on channel=3 note=77 velocity=72 time=0.0014534875
EXTRACT: note_on channel=1 note=34 velocity=127 time=0.0014534875
EXTRACT: note_on channel=5 note=69 velocity=78 time=0
EXTRACT: note_on channel=5 note=72 velocity=78 time=0
EXTRACT: note_on channel=6 note=72 velocity=85 time=0
EXTRACT: note_on channel=9 note=36 velocity=119 time=0
EXTRACT: note_on channel=9 note=36 velocity=0 time=0
EXTRACT: control_change channel=6 control=64 value=0 time=0.02906975
EXTRACT: control_change channel=6 control=64 value=127 time=0.014534875
EXTRACT: note_on channel=3 note=77 velocity=0 time=0.1700580375
EXTRACT: note_on channel=4 note=70 velocity=0 time=0.0188953375
EXTRACT: note_on channel=6 note=69 velocity=80 time=0.116279
EXTRACT: note_on channel=9 note=36 velocity=108 time=0
EXTRACT: note_on channel=9 note=36 velocity=0 time=0
EXTRACT: note_on channel=9 note=69 velocity=85 time=0
EXTRACT: note_on channel=9 note=69 velocity=0 time=0
EXTRACT: note_on channel=3 note=72 velocity=70 time=0.0043604625000000004
EXTRACT: note_on channel=6 note=72 velocity=0 time=0.0232558
EXTRACT: note_on channel=6 note=69 velocity=0 time=0.1046511
EXTRACT: note_on channel=9 note=69 velocity=81 time=0.0421511375
EXTRACT: note_on channel=9 note=69 velocity=0 time=0
EXTRACT: note_on channel=3 note=70 velocity=72 time=0.0072674375
EXTRACT: note_on channel=3 note=72 velocity=0 time=0.0101744125
EXTRACT: note_on channel=6 note=84 velocity=85 time=0.1555231625
EXTRACT: note_on channel=6 note=77 velocity=73 time=0.0014534875
EXTRACT: note_on channel=9 note=39 velocity=123 time=0
EXTRACT: note_on channel=9 note=39 velocity=0 time=0
EXTRACT: note_on channel=3 note=70 velocity=0 time=0.078488325
EXTRACT: note_on channel=1 note=34 velocity=0 time=0.0305232375
EXTRACT: note_on channel=3 note=72 velocity=72 time=0.0712208875
EXTRACT: note_on channel=6 note=84 velocity=0 time=0.014534875
EXTRACT: note_on channel=6 note=77 velocity=0 time=0.0043604625000000004
EXTRACT: note_on channel=6 note=81 velocity=82 time=0.1497092125
EXTRACT: note_on channel=3 note=72 velocity=0 time=0.06395345
EXTRACT: note_on channel=6 note=81 velocity=0 time=0.0930232
EXTRACT: note_on channel=3 note=70 velocity=72 time=0.04069765
EXTRACT: control_change channel=6 control=64 value=0 time=0.12209295
EXTRACT: note_on channel=3 note=70 velocity=0 time=0.0072674375
EXTRACT: note_on channel=6 note=53 velocity=81 time=0.014534875
EXTRACT: note_on channel=5 note=72 velocity=0 time=0.0043604625000000004
EXTRACT: note_on channel=5 note=69 velocity=0 time=0
EXTRACT: note_on channel=1 note=29 velocity=127 time=0.002906975
EXTRACT: note_on channel=5 note=67 velocity=78 time=0
EXTRACT: note_on channel=5 note=70 velocity=78 time=0
EXTRACT: note_on channel=7 note=49 velocity=62 time=0
EXTRACT: note_on channel=9 note=36 velocity=116 time=0
EXTRACT: note_on channel=9 note=36 velocity=0 time=0
EXTRACT: note_on channel=6 note=67 velocity=87 time=0.00581395
EXTRACT: note_on channel=6 note=70 velocity=82 time=0.0014534875
EXTRACT: note_on channel=6 note=63 velocity=73 time=0
EXTRACT: note_on channel=3 note=75 velocity=71 time=0.00581395
EXTRACT: control_change channel=6 control=64 value=127 time=0.008720925000000001
EXTRACT: note_on channel=3 note=75 velocity=0 time=0.2543603125
EXTRACT: note_on channel=6 note=53 velocity=0 time=0.0188953375
EXTRACT: note_on channel=9 note=69 velocity=88 time=0.0537790375
EXTRACT: note_on channel=9 note=69 velocity=0 time=0
EXTRACT: note_on channel=6 note=67 velocity=0 time=0.0043604625000000004
EXTRACT: note_on channel=3 note=74 velocity=72 time=0
EXTRACT: note_on channel=6 note=63 velocity=0 time=0.0014534875
EXTRACT: note_on channel=6 note=70 velocity=0 time=0
EXTRACT: note_on channel=9 note=69 velocity=82 time=0.16860455
EXTRACT: note_on channel=9 note=69 velocity=0 time=0
EXTRACT: note_on channel=3 note=74 velocity=0 time=0.008720925000000001
EXTRACT: note_on channel=3 note=72 velocity=70 time=0.0130813875
EXTRACT: note_on channel=1 note=29 velocity=0 time=0.02906975
EXTRACT: control_change channel=6 control=64 value=0 time=0.0828487875
EXTRACT: note_on channel=6 note=53 velocity=77 time=0.031976725
EXTRACT: note_on channel=6 note=69 velocity=80 time=0.0014534875
EXTRACT: note_on channel=6 note=72 velocity=77 time=0.0014534875
EXTRACT: note_on channel=6 note=65 velocity=66 time=0.0014534875
EXTRACT: note_on channel=5 note=70 velocity=0 time=0.0014534875
EXTRACT: note_on channel=5 note=67 velocity=0 time=0
EXTRACT: note_on channel=1 note=29 velocity=126 time=0.002906975
EXTRACT: note_on channel=5 note=69 velocity=78 time=0
EXTRACT: note_on channel=5 note=72 velocity=78 time=0
EXTRACT: note_on channel=7 note=55 velocity=62 time=0
EXTRACT: note_on channel=9 note=36 velocity=119 time=0
EXTRACT: note_on channel=9 note=36 velocity=0 time=0
EXTRACT: note_on channel=3 note=72 velocity=0 time=0.06395345
EXTRACT: control_change channel=6 control=64 value=127 time=0.0813953
EXTRACT: note_on channel=3 note=70 velocity=72 time=0.0305232375
EXTRACT: note_on channel=6 note=65 velocity=0 time=0.1293603875
EXTRACT: note_on channel=6 note=69 velocity=0 time=0.0276162625
EXTRACT: note_on channel=6 note=72 velocity=0 time=0.002906975
EXTRACT: note_on channel=6 note=53 velocity=0 time=0.0159883625
EXTRACT: note_on channel=7 note=49 velocity=0 time=0.02906975
EXTRACT: note_on channel=3 note=70 velocity=0 time=0.055232525
EXTRACT: note_on channel=4 note=75 velocity=76 time=0.084302275
EXTRACT: note_on channel=4 note=79 velocity=76 time=0.002906975
EXTRACT: note_on channel=4 note=82 velocity=76 time=0
EXTRACT: note_on channel=3 note=75 velocity=70 time=0.0014534875
EXTRACT: note_on channel=1 note=29 velocity=0 time=0.043604625
EXTRACT: control_change channel=6 control=64 value=0 time=0.1119185375
EXTRACT: note_on channel=6 note=70 velocity=76 time=0.0101744125
EXTRACT: note_on channel=6 note=67 velocity=83 time=0.0014534875
EXTRACT: note_on channel=6 note=53 velocity=80 time=0.0014534875
EXTRACT: note_on channel=5 note=69 velocity=0 time=0.0014534875
EXTRACT: note_on channel=5 note=72 velocity=0 time=0
EXTRACT: note_on channel=6 note=74 velocity=84 time=0
EXTRACT: note_on channel=1 note=29 velocity=127 time=0.002906975
EXTRACT: note_on channel=5 note=70 velocity=78 time=0
EXTRACT: note_on channel=5 note=74 velocity=78 time=0
EXTRACT: note_on channel=7 note=60 velocity=62 time=0
EXTRACT: note_on channel=9 note=36 velocity=108 time=0
EXTRACT: note_on channel=9 note=36 velocity=0 time=0
EXTRACT: note_on channel=3 note=75 velocity=0 time=0.07558135
EXTRACT: note_on channel=4 note=75 velocity=0 time=0.06395345
EXTRACT: note_on channel=4 note=82 velocity=0 time=0.002906975
EXTRACT: note_on channel=4 note=79 velocity=0 time=0
EXTRACT: control_change channel=6 control=64 value=127 time=0.020348825
EXTRACT: note_on channel=3 note=74 velocity=71 time=0.002906975
EXTRACT: note_on channel=4 note=74 velocity=76 time=0.0043604625000000004
EXTRACT: note_on channel=4 note=79 velocity=76 time=0.0043604625000000004
EXTRACT: note_on channel=4 note=82 velocity=76 time=0
EXTRACT: note_on channel=6 note=74 velocity=0 time=0.07558135
EXTRACT: note_on channel=6 note=67 velocity=0 time=0.0072674375
EXTRACT: note_on channel=6 note=70 velocity=0 time=0.00581395
EXTRACT: note_on channel=6 note=53 velocity=0 time=0.014534875
EXTRACT: note_on channel=9 note=69 velocity=85 time=0.0712208875
EXTRACT: note_on channel=9 note=69 velocity=0 time=0
EXTRACT: note_on channel=7 note=55 velocity=0 time=0.031976725
EXTRACT: note_on channel=3 note=74 velocity=0 time=0.04069765
EXTRACT: note_on channel=3 note=72 velocity=71 time=0.06976740000000001
EXTRACT: note_on channel=4 note=74 velocity=0 time=0.0101744125
EXTRACT: note_on channel=4 note=79 velocity=0 time=0.002906975
EXTRACT: note_on channel=4 note=82 velocity=0 time=0
EXTRACT: note_on channel=4 note=72 velocity=76 time=0.014534875
EXTRACT: note_on channel=4 note=77 velocity=76 time=0.0043604625000000004
EXTRACT: note_on channel=4 note=81 velocity=76 time=0
EXTRACT: note_on channel=9 note=69 velocity=81 time=0
EXTRACT: note_on channel=9 note=69 velocity=0 time=0
EXTRACT: note_on channel=1 note=29 velocity=0 time=0.049418575
EXTRACT: control_change channel=6 control=64 value=0 time=0.0930232
EXTRACT: note_on channel=5 note=70 velocity=0 time=0.02906975
EXTRACT: note_on channel=5 note=74 velocity=0 time=0
EXTRACT: note_on channel=6 note=53 velocity=76 time=0
EXTRACT: note_on channel=1 note=29 velocity=127 time=0.002906975
EXTRACT: note_on channel=5 note=72 velocity=78 time=0
EXTRACT: note_on channel=5 note=75 velocity=76 time=0
EXTRACT: note_on channel=6 note=70 velocity=86 time=0
EXTRACT: note_on channel=6 note=67 velocity=75 time=0
EXTRACT: note_on channel=6 note=75 velocity=84 time=0
EXTRACT: note_on channel=7 note=67 velocity=62 time=0
EXTRACT: note_on channel=9 note=36 velocity=119 time=0
EXTRACT: note_on channel=9 note=36 velocity=0 time=0
EXTRACT: note_on channel=3 note=72 velocity=0 time=0.0944766875
EXTRACT: control_change channel=6 control=64 value=127 time=0.0072674375
EXTRACT: note_on channel=4 note=72 velocity=0 time=0.0450581125
EXTRACT: note_on channel=4 note=77 velocity=0 time=0.002906975
EXTRACT: note_on channel=4 note=81 velocity=0 time=0
EXTRACT: note_on channel=3 note=70 velocity=70 time=0.0188953375
EXTRACT: note_on channel=4 note=70 velocity=76 time=0.0014534875
EXTRACT: note_on channel=5 note=75 velocity=0 time=0.0014534875
EXTRACT: note_on channel=4 note=75 velocity=76 time=0.002906975
EXTRACT: note_on channel=4 note=79 velocity=76 time=0
EXTRACT: note_on channel=5 note=74 velocity=71 time=0
EXTRACT: note_on channel=6 note=67 velocity=0 time=0.05232555
EXTRACT: note_on channel=6 note=70 velocity=0 time=0.002906975
EXTRACT: note_on channel=6 note=75 velocity=0 time=0.0072674375
EXTRACT: note_on channel=6 note=53 velocity=0 time=0
EXTRACT: note_on channel=5 note=74 velocity=0 time=0.1090115625
EXTRACT: note_on channel=5 note=75 velocity=76 time=0.002906975
EXTRACT: note_on channel=7 note=60 velocity=0 time=0.031976725
EXTRACT: note_on channel=5 note=75 velocity=0 time=0.13953480000000001
EXTRACT: note_on channel=5 note=77 velocity=75 time=0.0043604625000000004
EXTRACT: note_on channel=3 note=70 velocity=0 time=0.008720925000000001
EXTRACT: note_on channel=1 note=29 velocity=0 time=0.05232555
EXTRACT: note_on channel=4 note=70 velocity=0 time=0.008720925000000001
EXTRACT: note_on channel=4 note=75 velocity=0 time=0.0043604625000000004
EXTRACT: note_on channel=4 note=79 velocity=0 time=0
EXTRACT: control_change channel=6 control=64 value=0 time=0.0072674375
EXTRACT: note_on channel=5 note=72 velocity=0 time=0.0886627375
EXTRACT: note_on channel=5 note=77 velocity=0 time=0.002906975
EXTRACT: note_on channel=1 note=34 velocity=127 time=0
EXTRACT: note_on channel=7 note=72 velocity=51 time=0
EXTRACT: note_on channel=9 note=36 velocity=116 time=0
EXTRACT: note_on channel=9 note=36 velocity=0 time=0
EXTRACT: control_change channel=6 control=64 value=127 time=0.0813953
EXTRACT: pitchwheel channel=5 pitch=-6656 time=0.0218023125
EXTRACT: pitchwheel channel=5 pitch=-7296 time=0.00581395
EXTRACT: pitchwheel channel=5 pitch=-8064 time=0.00581395
EXTRACT: note_on channel=3 note=58 velocity=72 time=0.113372025
EXTRACT: note_on channel=6 note=86 velocity=82 time=0.119185975
EXTRACT: note_on channel=6 note=77 velocity=68 time=0
EXTRACT: note_on channel=9 note=69 velocity=88 time=0.0014534875
EXTRACT: note_on channel=9 note=69 velocity=0 time=0
EXTRACT: note_on channel=7 note=67 velocity=0 time=0.031976725
EXTRACT: note_on channel=3 note=58 velocity=0 time=0.084302275
EXTRACT: note_on channel=6 note=86 velocity=0 time=0.0334302125
EXTRACT: note_on channel=6 note=77 velocity=0 time=0.0014534875
EXTRACT: note_on channel=9 note=69 velocity=82 time=0.0232558
EXTRACT: note_on channel=9 note=69 velocity=0 time=0
EXTRACT: note_on channel=3 note=58 velocity=72 time=0.02906975
EXTRACT: note_on channel=1 note=34 velocity=0 time=0.11046505
EXTRACT: note_on channel=6 note=82 velocity=71 time=0.0334302125
EXTRACT: note_on channel=6 note=89 velocity=75 time=0
EXTRACT: note_on channel=5 note=70 velocity=78 time=0.0014534875
EXTRACT: note_on channel=5 note=74 velocity=78 time=0
EXTRACT: note_on channel=7 note=79 velocity=42 time=0
EXTRACT: note_on channel=9 note=39 velocity=126 time=0
EXTRACT: note_on channel=9 note=39 velocity=0 time=0
EXTRACT: pitchwheel channel=5 pitch=-6784 time=0.034883700000000004
EXTRACT: note_on channel=3 note=58 velocity=0 time=0.002906975
EXTRACT: pitchwheel channel=5 pitch=-5120 time=0.002906975
EXTRACT: pitchwheel channel=5 pitch=-3584 time=0.00581395
EXTRACT: pitchwheel channel=5 pitch=-1792 time=0.00581395
EXTRACT: pitchwheel channel=5 pitch=-384 time=0.0072674375
EXTRACT: pitchwheel channel=5 pitch=0 time=0.00581395
EXTRACT: note_on channel=3 note=58 velocity=72 time=0.04069765
EXTRACT: note_on channel=6 note=89 velocity=0 time=0.02906975
EXTRACT: note_on channel=6 note=82 velocity=0 time=0.0450581125
EXTRACT: note_on channel=3 note=58 velocity=0 time=0.0857557625
EXTRACT: note_on channel=3 note=58 velocity=72 time=0.066860425
EXTRACT: note_on channel=6 note=86 velocity=78 time=0.0159883625
EXTRACT: note_on channel=7 note=72 velocity=0 time=0.031976725
EXTRACT: note_on channel=6 note=86 velocity=0 time=0.1046511
EXTRACT: note_on channel=3 note=58 velocity=0 time=0.0276162625
EXTRACT: note_on channel=1 note=34 velocity=103 time=0.0101744125
EXTRACT: note_on channel=9 note=36 velocity=75 time=0
EXTRACT: note_on channel=9 note=36 velocity=0 time=0
EXTRACT: note_on channel=1 note=34 velocity=0 time=0.0624999625
EXTRACT: note_on channel=3 note=58 velocity=72 time=0.002906975
EXTRACT: note_on channel=5 note=70 velocity=0 time=0.1061045875
EXTRACT: note_on channel=5 note=74 velocity=0 time=0
EXTRACT: note_on channel=6 note=77 velocity=71 time=0.0014534875
EXTRACT: note_on channel=6 note=84 velocity=81 time=0
EXTRACT: note_on channel=1 note=34 velocity=127 time=0.0014534875
EXTRACT: note_on channel=5 note=69 velocity=78 time=0
EXTRACT: note_on channel=5 note=72 velocity=78 time=0
EXTRACT: note_on channel=7 note=84 velocity=37 time=0
EXTRACT: note_on channel=9 note=36 velocity=119 time=0
EXTRACT: note_on channel=9 note=36 velocity=0 time=0
EXTRACT: control_change channel=6 control=64 value=127 time=0.0276162625
EXTRACT: note_on channel=3 note=58 velocity=0 time=0.020348825
EXTRACT: control_change channel=6 control=64 value=0 time=0.0159883625
EXTRACT: note_on channel=3 note=58 velocity=70 time=0.0508720625
EXTRACT: control_change channel=6 control=64 value=127 time=0.0305232375
EXTRACT: note_on channel=3 note=58 velocity=0 time=0.15697665
EXTRACT: note_on channel=6 note=84 velocity=0 time=0.014534875
EXTRACT: note_on channel=6 note=77 velocity=0 time=0.008720925000000001
EXTRACT: note_on channel=6 note=81 velocity=78 time=0.0232558
EXTRACT: note_on channel=9 note=36 velocity=108 time=0
EXTRACT: note_on channel=9 note=36 velocity=0 time=0
EXTRACT: note_on channel=9 note=69 velocity=85 time=0
EXTRACT: note_on channel=9 note=69 velocity=0 time=0
EXTRACT: note_on channel=3 note=58 velocity=73 time=0.0305232375
EXTRACT: note_on channel=7 note=79 velocity=0 time=0.0014534875
EXTRACT: note_on channel=6 note=81 velocity=0 time=0.113372025
EXTRACT: note_on channel=9 note=69 velocity=81 time=0.02906975
EXTRACT: note_on channel=9 note=69 velocity=0 time=0
EXTRACT: note_on channel=3 note=58 velocity=0 time=0.0276162625
EXTRACT: note_on channel=3 note=58 velocity=72 time=0.09883715
EXTRACT: note_on channel=6 note=89 velocity=70 time=0.0479650875
EXTRACT: note_on channel=9 note=39 velocity=123 time=0
EXTRACT: note_on channel=9 note=39 velocity=0 time=0
EXTRACT: note_on channel=1 note=34 velocity=0 time=0.0043604625000000004
EXTRACT: note_on channel=3 note=58 velocity=0 time=0.0813953
EXTRACT: note_on channel=3 note=58 velocity=70 time=0.0566860125
EXTRACT: note_on channel=6 note=89 velocity=0 time=0.072674375
EXTRACT: note_on channel=3 note=58 velocity=0 time=0.0363371875
EXTRACT: note_on channel=3 note=58 velocity=70 time=0.06395345
EXTRACT: note_on channel=6 note=84 velocity=72 time=0.0334302125
EXTRACT: note_on channel=7 note=84 velocity=0 time=0.031976725
EXTRACT: note_on channel=3 note=58 velocity=0 time=0.0886627375
EXTRACT: note_on channel=6 note=84 velocity=0 time=0.00581395
EXTRACT: note_on channel=3 note=58 velocity=71 time=0.061046475
EXTRACT: note_on channel=3 note=58 velocity=0 time=0.113372025
EXTRACT: control_change channel=6 control=64 value=0 time=0.0305232375
EXTRACT: note_on channel=5 note=72 velocity=0 time=0.014534875
EXTRACT: note_on channel=5 note=69 velocity=0 time=0
EXTRACT: note_on channel=1 note=34 velocity=121 time=0.002906975
EXTRACT: note_on channel=5 note=67 velocity=78 time=0
EXTRACT: note_on channel=5 note=70 velocity=78 time=0
EXTRACT: note_on channel=9 note=36 velocity=116 time=0
EXTRACT: note_on channel=9 note=36 velocity=0 time=0
EXTRACT: control_change channel=6 control=64 value=0 time=0.0188953375
EXTRACT: note_on channel=3 note=58 velocity=72 time=0.0276162625
EXTRACT: note_on channel=3 note=58 velocity=0 time=0.232558
EXTRACT: note_on channel=6 note=82 velocity=75 time=0.066860425
EXTRACT: note_on channel=9 note=69 velocity=88 time=0.002906975
EXTRACT: note_on channel=9 note=69 velocity=0 time=0
EXTRACT: note_on channel=3 note=58 velocity=72 time=0.130813875
EXTRACT: note_on channel=9 note=69 velocity=82 time=0.043604625
EXTRACT: note_on channel=9 note=69 velocity=0 time=0
EXTRACT: note_on channel=3 note=58 velocity=0 time=0.0624999625
EXTRACT: note_on channel=3 note=58 velocity=71 time=0.0799418125
EXTRACT: note_on channel=1 note=34 velocity=0 time=0.017441850000000002
EXTRACT: note_on channel=6 note=87 velocity=81 time=0.0130813875
EXTRACT: note_on channel=6 note=79 velocity=73 time=0
EXTRACT: note_on channel=9 note=39 velocity=126 time=0.0014534875
EXTRACT: note_on channel=9 note=39 velocity=0 time=0
EXTRACT: control_change channel=6 control=64 value=127 time=0.0188953375
EXTRACT: note_on channel=6 note=82 velocity=0 time=0.0276162625
EXTRACT: note_on channel=3 note=58 velocity=0 time=0.0421511375
EXTRACT: note_on channel=3 note=58 velocity=70 time=0.0508720625
EXTRACT: note_on channel=3 note=58 velocity=0 time=0.1046511
EXTRACT: note_on channel=3 note=58 velocity=70 time=0.0799418125
EXTRACT: note_on channel=6 note=87 velocity=0 time=0.002906975
EXTRACT: note_on channel=6 note=82 velocity=73 time=0.0218023125
EXTRACT: note_on channel=6 note=79 velocity=0 time=0.002906975
EXTRACT: note_on channel=3 note=58 velocity=0 time=0.084302275
EXTRACT: note_on channel=3 note=58 velocity=70 time=0.061046475
EXTRACT: note_on channel=1 note=34 velocity=105 time=0.026162775
EXTRACT: note_on channel=9 note=36 velocity=75 time=0
EXTRACT: note_on channel=9 note=36 velocity=0 time=0
EXTRACT: note_on channel=1 note=34 velocity=0 time=0.0537790375
EXTRACT: note_on channel=3 note=58 velocity=0 time=0.034883700000000004
EXTRACT: control_change channel=6 control=64 value=0 time=0.014534875
EXTRACT: note_on channel=6 note=82 velocity=0 time=0.02906975
EXTRACT: note_on channel=3 note=58 velocity=70 time=0.0247092875
EXTRACT: note_on channel=5 note=67 velocity=0 time=0.014534875
EXTRACT: note_on channel=1 note=34 velocity=121 time=0.002906975
EXTRACT: note_on channel=5 note=66 velocity=78 time=0
EXTRACT: note_on channel=9 note=36 velocity=119 time=0
EXTRACT: note_on channel=9 note=36 velocity=0 time=0
EXTRACT: note_on channel=3 note=58 velocity=0 time=0.2252905625
EXTRACT: note_on channel=3 note=58 velocity=72 time=0.1046511
EXTRACT: note_on channel=6 note=78 velocity=70 time=0.0188953375
EXTRACT: note_on channel=9 note=36 velocity=108 time=0
EXTRACT: note_on channel=9 note=36 velocity=0 time=0
EXTRACT: note_on channel=9 note=69 velocity=85 time=0
EXTRACT: note_on channel=9 note=69 velocity=0 time=0
EXTRACT: note_on channel=3 note=58 velocity=0 time=0.0741278625
EXTRACT: note_on channel=3 note=58 velocity=72 time=0.0886627375
EXTRACT: note_on channel=9 note=69 velocity=81 time=0.0116279
EXTRACT: note_on channel=9 note=69 velocity=0 time=0
EXTRACT: note_on channel=6 note=87 velocity=83 time=0.1729650125
EXTRACT: note_on channel=4 note=82 velocity=78 time=0.0014534875
EXTRACT: note_on channel=6 note=82 velocity=71 time=0
EXTRACT: note_on channel=9 note=39 velocity=123 time=0
EXTRACT: note_on channel=9 note=39 velocity=0 time=0
EXTRACT: note_on channel=1 note=34 velocity=0 time=0.0043604625000000004
EXTRACT: note_on channel=6 note=78 velocity=0 time=0.0232558
EXTRACT: note_on channel=3 note=58 velocity=0 time=0.0014534875
EXTRACT: note_on channel=3 note=58 velocity=70 time=0.0886627375
EXTRACT: note_on channel=3 note=58 velocity=0 time=0.1031976125
EXTRACT: note_on channel=4 note=82 velocity=0 time=0.0101744125
EXTRACT: note_on channel=4 note=81 velocity=78 time=0.0014534875
EXTRACT: control_change channel=6 control=64 value=127 time=0.0043604625000000004
EXTRACT: note_on channel=3 note=58 velocity=72 time=0.0712208875
EXTRACT: note_on channel=6 note=82 velocity=0 time=0.037790675
EXTRACT: note_on channel=6 note=78 velocity=78 time=0.002906975
EXTRACT: note_on channel=6 note=87 velocity=0 time=0.1031976125
EXTRACT: note_on channel=4 note=81 velocity=0 time=0.0116279
EXTRACT: note_on channel=4 note=79 velocity=78 time=0.0014534875
EXTRACT: note_on channel=9 note=84 velocity=76 time=0.0581395
EXTRACT: note_on channel=9 note=84 velocity=0 time=0
EXTRACT: note_on channel=6 note=78 velocity=0 time=0.0305232375
EXTRACT: note_on channel=3 note=58 velocity=0 time=0.0334302125
EXTRACT: note_on channel=3 note=58 velocity=72 time=0.101744125
EXTRACT: note_on channel=5 note=66 velocity=0 time=0.00581395
EXTRACT: note_on channel=5 note=70 velocity=0 time=0
EXTRACT: note_on channel=4 note=79 velocity=0 time=0.0014534875
EXTRACT: note_on channel=1 note=34 velocity=127 time=0.0014534875
EXTRACT: note_on channel=9 note=36 velocity=116 time=0
EXTRACT: note_on channel=9 note=36 velocity=0 time=0
EXTRACT: note_on channel=4 note=77 velocity=78 time=0.0014534875
EXTRACT: control_change channel=6 control=64 value=0 time=0.04069765
EXTRACT: pitchwheel channel=5 pitch=-6656 time=0.061046475
EXTRACT: pitchwheel channel=5 pitch=-7296 time=0.00581395
EXTRACT: pitchwheel channel=5 pitch=-8064 time=0.00581395
EXTRACT: note_on channel=4 note=77 velocity=0 time=0.1177324875
EXTRACT: note_on channel=4 note=74 velocity=78 time=0.0014534875
EXTRACT: note_on channel=3 note=58 velocity=0 time=0.0363371875
EXTRACT: control_change channel=6 control=64 value=127 time=0.0683139125
EXTRACT: note_on channel=6 note=86 velocity=83 time=0.0072674375
EXTRACT: note_on channel=6 note=77 velocity=60 time=0.0014534875
EXTRACT: note_on channel=9 note=69 velocity=88 time=0.0014534875
EXTRACT: note_on channel=9 note=69 velocity=0 time=0
EXTRACT: note_on channel=4 note=74 velocity=0 time=0.1148255125
EXTRACT: note_on channel=4 note=72 velocity=78 time=0.002906975
EXTRACT: note_on channel=9 note=69 velocity=82 time=0.0566860125
EXTRACT: note_on channel=9 note=69 velocity=0 time=0
EXTRACT: note_on channel=6 note=77 velocity=0 time=0.020348825
EXTRACT: note_on channel=3 note=58 velocity=72 time=0.00581395
EXTRACT: note_on channel=6 note=86 velocity=0 time=0.002906975
EXTRACT: note_on channel=3 note=58 velocity=0 time=0.0857557625
EXTRACT: note_on channel=1 note=34 velocity=0 time=0.0363371875
EXTRACT: note_on channel=6 note=82 velocity=80 time=0.020348825
EXTRACT: note_on channel=4 note=72 velocity=0 time=0.002906975
EXTRACT: note_on channel=5 note=70 velocity=78 time=0
EXTRACT: note_on channel=5 note=74 velocity=78 time=0
EXTRACT: note_on channel=6 note=74 velocity=67 time=0
EXTRACT: note_on channel=9 note=39 velocity=126 time=0
EXTRACT: note_on channel=9 note=39 velocity=0 time=0
EXTRACT: note_on channel=4 note=70 velocity=78 time=0.0014534875
EXTRACT: note_on channel=3 note=58 velocity=69 time=0.0232558
EXTRACT: pitchwheel channel=5 pitch=-6784 time=0.0101744125
EXTRACT: pitchwheel channel=5 pitch=-5120 time=0.00581395
EXTRACT: pitchwheel channel=5 pitch=-3584 time=0.00581395
EXTRACT: pitchwheel channel=5 pitch=-1792 time=0.00581395
EXTRACT: pitchwheel channel=5 pitch=-384 time=0.0072674375
EXTRACT: pitchwheel channel=5 pitch=0 time=0.00581395
EXTRACT: note_on channel=3 note=58 velocity=0 time=0.0508720625
EXTRACT: note_on channel=6 note=74 velocity=0 time=0.0159883625
EXTRACT: note_on channel=6 note=82 velocity=0 time=0.0043604625000000004
EXTRACT: note_on channel=3 note=58 velocity=70 time=0.0566860125
EXTRACT: note_on channel=3 note=58 velocity=0 time=0.0973836625
EXTRACT: note_on channel=6 note=77 velocity=73 time=0.055232525
EXTRACT: note_on channel=6 note=70 velocity=73 time=0.002906975
EXTRACT: note_on channel=3 note=58 velocity=70 time=0.0043604625000000004
EXTRACT: note_on channel=3 note=58 velocity=0 time=0.09883715
EXTRACT: note_on channel=1 note=34 velocity=99 time=0.0712208875
EXTRACT: note_on channel=9 note=36 velocity=75 time=0
EXTRACT: note_on channel=9 note=36 velocity=0 time=0
EXTRACT: note_on channel=3 note=58 velocity=70 time=0.002906975
EXTRACT: note_on channel=1 note=34 velocity=0 time=0.05232555
EXTRACT: note_on channel=3 note=58 velocity=0 time=0.0450581125
EXTRACT: note_on channel=6 note=77 velocity=0 time=0.0334302125
EXTRACT: note_on channel=6 note=70 velocity=0 time=0.002906975
EXTRACT: note_on channel=5 note=70 velocity=0 time=0.034883700000000004
EXTRACT: note_on channel=5 note=74 velocity=0 time=0
EXTRACT: note_on channel=1 note=34 velocity=127 time=0.002906975
EXTRACT: note_on channel=5 note=69 velocity=78 time=0
EXTRACT: note_on channel=5 note=72 velocity=78 time=0
EXTRACT: note_on channel=6 note=72 velocity=85 time=0
EXTRACT: note_on channel=9 note=36 velocity=119 time=0
EXTRACT: note_on channel=9 note=36 velocity=0 time=0
EXTRACT: note_on channel=3 note=58 velocity=70 time=0.008720925000000001
EXTRACT: control_change channel=6 control=64 value=0 time=0.020348825
EXTRACT: control_change channel=6 control=64 value=127 time=0.014534875
EXTRACT: note_on channel=3 note=58 velocity=0 time=0.1555231625
EXTRACT: note_on channel=4 note=70 velocity=0 time=0.0334302125
EXTRACT: note_on channel=3 note=58 velocity=70 time=0.0334302125
EXTRACT: note_on channel=6 note=69 velocity=80 time=0.0828487875
EXTRACT: note_on channel=9 note=36 velocity=108 time=0
EXTRACT: note_on channel=9 note=36 velocity=0 time=0
EXTRACT: note_on channel=9 note=69 velocity=85 time=0
EXTRACT: note_on channel=9 note=69 velocity=0 time=0
EXTRACT: note_on channel=6 note=72 velocity=0 time=0.0276162625
EXTRACT: note_on channel=3 note=58 velocity=0 time=0.0232558
EXTRACT: note_on channel=3 note=58 velocity=70 time=0.072674375
EXTRACT: note_on channel=6 note=69 velocity=0 time=0.008720925000000001
EXTRACT: note_on channel=9 note=69 velocity=81 time=0.0421511375
EXTRACT: note_on channel=9 note=69 velocity=0 time=0
EXTRACT: note_on channel=3 note=58 velocity=0 time=0.1002906375
EXTRACT: note_on channel=6 note=84 velocity=85 time=0.072674375
EXTRACT: note_on channel=6 note=77 velocity=73 time=0.0014534875
EXTRACT: note_on channel=9 note=39 velocity=123 time=0
EXTRACT: note_on channel=9 note=39 velocity=0 time=0
EXTRACT: note_on channel=3 note=58 velocity=72 time=0.0247092875
EXTRACT: note_on channel=1 note=34 velocity=0 time=0.084302275
EXTRACT: note_on channel=6 note=84 velocity=0 time=0.0857557625
EXTRACT: note_on channel=6 note=77 velocity=0 time=0.0043604625000000004
EXTRACT: note_on channel=3 note=58 velocity=0 time=0.0334302125
EXTRACT: note_on channel=6 note=81 velocity=82 time=0.116279
EXTRACT: note_on channel=3 note=58 velocity=72 time=0.0159883625
EXTRACT: note_on channel=6 note=81 velocity=0 time=0.1409882875
EXTRACT: note_on channel=3 note=58 velocity=0 time=0.05232555
EXTRACT: control_change channel=6 control=64 value=0 time=0.11046505
EXTRACT: note_on channel=6 note=53 velocity=81 time=0.0218023125
EXTRACT: note_on channel=3 note=58 velocity=72 time=0.002906975
EXTRACT: note_on channel=5 note=72 velocity=0 time=0.0014534875
EXTRACT: note_on channel=5 note=69 velocity=0 time=0
EXTRACT: note_on channel=1 note=29 velocity=127 time=0.002906975
EXTRACT: note_on channel=5 note=67 velocity=78 time=0
EXTRACT: note_on channel=5 note=70 velocity=78 time=0
EXTRACT: note_on channel=7 note=49 velocity=62 time=0
EXTRACT: note_on channel=9 note=36 velocity=116 time=0
EXTRACT: note_on channel=9 note=36 velocity=0 time=0
EXTRACT: note_on channel=6 note=67 velocity=87 time=0.00581395
EXTRACT: note_on channel=6 note=70 velocity=82 time=0.0014534875
EXTRACT: note_on channel=6 note=63 velocity=73 time=0
EXTRACT: control_change channel=6 control=64 value=127 time=0.014534875
EXTRACT: note_on channel=3 note=58 velocity=0 time=0.2020347625
EXTRACT: note_on channel=6 note=53 velocity=0 time=0.0712208875
EXTRACT: note_on channel=9 note=69 velocity=88 time=0.0537790375
EXTRACT: note_on channel=9 note=69 velocity=0 time=0
EXTRACT: note_on channel=6 note=67 velocity=0 time=0.0043604625000000004
EXTRACT: note_on channel=6 note=63 velocity=0 time=0.0014534875
EXTRACT: note_on channel=6 note=70 velocity=0 time=0
EXTRACT: note_on channel=3 note=58 velocity=72 time=0.159883625
EXTRACT: note_on channel=9 note=69 velocity=82 time=0.008720925000000001
EXTRACT: note_on channel=9 note=69 velocity=0 time=0
EXTRACT: note_on channel=1 note=29 velocity=0 time=0.0508720625
EXTRACT: note_on channel=3 note=58 velocity=0 time=0.05232555
EXTRACT: control_change channel=6 control=64 value=0 time=0.0305232375
EXTRACT: note_on channel=6 note=53 velocity=77 time=0.031976725
EXTRACT: note_on channel=3 note=58 velocity=70 time=0.0014534875
EXTRACT: note_on channel=6 note=69 velocity=80 time=0
EXTRACT: note_on channel=6 note=72 velocity=77 time=0.0014534875
EXTRACT: note_on channel=6 note=65 velocity=66 time=0.0014534875
EXTRACT: note_on channel=5 note=67 velocity=0 time=0.0014534875
EXTRACT: note_on channel=5 note=70 velocity=0 time=0
EXTRACT: note_on channel=1 note=29 velocity=126 time=0.002906975
EXTRACT: note_on channel=5 note=69 velocity=78 time=0
EXTRACT: note_on channel=5 note=72 velocity=78 time=0
EXTRACT: note_on channel=7 note=55 velocity=62 time=0
EXTRACT: note_on channel=9 note=36 velocity=119 time=0
EXTRACT: note_on channel=9 note=36 velocity=0 time=0
EXTRACT: note_on channel=3 note=58 velocity=0 time=0.1090115625
EXTRACT: control_change channel=6 control=64 value=127 time=0.0363371875
EXTRACT: note_on channel=3 note=58 velocity=73 time=0.031976725
EXTRACT: note_on channel=3 note=58 velocity=0 time=0.09883715
EXTRACT: note_on channel=6 note=65 velocity=0 time=0.02906975
EXTRACT: note_on channel=6 note=69 velocity=0 time=0.0276162625
EXTRACT: note_on channel=6 note=72 velocity=0 time=0.002906975
EXTRACT: note_on channel=3 note=58 velocity=72 time=0.0130813875
EXTRACT: note_on channel=6 note=53 velocity=0 time=0.002906975
EXTRACT: note_on channel=7 note=49 velocity=0 time=0.02906975
EXTRACT: note_on channel=3 note=58 velocity=0 time=0.0712208875
EXTRACT: note_on channel=3 note=58 velocity=70 time=0.0624999625
EXTRACT: note_on channel=1 note=29 velocity=0 time=0.0537790375
EXTRACT: note_on channel=3 note=58 velocity=0 time=0.0566860125
EXTRACT: control_change channel=6 control=64 value=0 time=0.055232525
EXTRACT: note_on channel=6 note=70 velocity=76 time=0.0101744125
EXTRACT: note_on channel=6 note=67 velocity=83 time=0.0014534875
EXTRACT: note_on channel=6 note=53 velocity=80 time=0.0014534875
EXTRACT: note_on channel=5 note=69 velocity=0 time=0.0014534875
EXTRACT: note_on channel=5 note=72 velocity=0 time=0
EXTRACT: note_on channel=6 note=74 velocity=84 time=0
EXTRACT: note_on channel=1 note=29 velocity=127 time=0.002906975
EXTRACT: note_on channel=5 note=70 velocity=78 time=0
EXTRACT: note_on channel=5 note=74 velocity=78 time=0
EXTRACT: note_on channel=7 note=60 velocity=62 time=0
EXTRACT: note_on channel=9 note=36 velocity=108 time=0
EXTRACT: note_on channel=9 note=36 velocity=0 time=0
EXTRACT: note_on channel=3 note=58 velocity=72 time=0.00581395
EXTRACT: control_change channel=6 control=64 value=127 time=0.15697665
EXTRACT: note_on channel=3 note=58 velocity=0 time=0.072674375
EXTRACT: note_on channel=6 note=74 velocity=0 time=0.014534875
EXTRACT: note_on channel=6 note=67 velocity=0 time=0.0072674375
EXTRACT: note_on channel=6 note=70 velocity=0 time=0.00581395
EXTRACT: note_on channel=6 note=53 velocity=0 time=0.014534875
EXTRACT: note_on channel=3 note=58 velocity=72 time=0.02906975
EXTRACT: note_on channel=9 note=69 velocity=85 time=0.0421511375
EXTRACT: note_on channel=9 note=69 velocity=0 time=0
EXTRACT: note_on channel=7 note=55 velocity=0 time=0.031976725
EXTRACT: note_on channel=3 note=58 velocity=0 time=0.1380813125
EXTRACT: note_on channel=9 note=69 velocity=81 time=0.0043604625000000004
EXTRACT: note_on channel=9 note=69 velocity=0 time=0
EXTRACT: note_on channel=1 note=29 velocity=0 time=0.049418575
EXTRACT: note_on channel=3 note=58 velocity=72 time=0.037790675
EXTRACT: control_change channel=6 control=64 value=0 time=0.055232525
EXTRACT: note_on channel=5 note=74 velocity=0 time=0.02906975
EXTRACT: note_on channel=5 note=70 velocity=0 time=0
EXTRACT: note_on channel=6 note=53 velocity=76 time=0
EXTRACT: note_on channel=1 note=29 velocity=127 time=0.002906975
EXTRACT: note_on channel=5 note=72 velocity=78 time=0
EXTRACT: note_on channel=5 note=75 velocity=76 time=0
EXTRACT: note_on channel=6 note=70 velocity=86 time=0
EXTRACT: note_on channel=6 note=67 velocity=75 time=0
EXTRACT: note_on channel=6 note=75 velocity=84 time=0
EXTRACT: note_on channel=7 note=67 velocity=62 time=0
EXTRACT: note_on channel=9 note=36 velocity=119 time=0
EXTRACT: note_on channel=9 note=36 velocity=0 time=0
EXTRACT: note_on channel=3 note=58 velocity=0 time=0.00581395
EXTRACT: note_on channel=3 note=58 velocity=72 time=0.0537790375
EXTRACT: control_change channel=6 control=64 value=127 time=0.0421511375
EXTRACT: note_on channel=3 note=58 velocity=0 time=0.05232555
EXTRACT: note_on channel=5 note=75 velocity=0 time=0.017441850000000002
EXTRACT: note_on channel=5 note=74 velocity=71 time=0.002906975
EXTRACT: note_on channel=6 note=67 velocity=0 time=0.05232555
EXTRACT: note_on channel=6 note=70 velocity=0 time=0.002906975
EXTRACT: note_on channel=6 note=75 velocity=0 time=0.0072674375
EXTRACT: note_on channel=6 note=53 velocity=0 time=0
EXTRACT: note_on channel=3 note=58 velocity=72 time=0
EXTRACT: note_on channel=5 note=74 velocity=0 time=0.1090115625
EXTRACT: note_on channel=5 note=75 velocity=76 time=0.002906975
EXTRACT: note_on channel=3 note=74 velocity=72 time=0.008720925000000001
EXTRACT: note_on channel=3 note=58 velocity=0 time=0.014534875
EXTRACT: note_on channel=7 note=60 velocity=0 time=0.008720925000000001
EXTRACT: note_on channel=3 note=74 velocity=0 time=0.0828487875
EXTRACT: note_on channel=5 note=75 velocity=0 time=0.0566860125
EXTRACT: note_on channel=5 note=77 velocity=75 time=0.0043604625000000004
EXTRACT: note_on channel=3 note=75 velocity=70 time=0.0072674375
EXTRACT: note_on channel=1 note=29 velocity=0 time=0.0537790375
EXTRACT: control_change channel=6 control=64 value=0 time=0.020348825
EXTRACT: note_on channel=3 note=75 velocity=0 time=0.06395345
EXTRACT: note_on channel=5 note=72 velocity=0 time=0.0247092875
EXTRACT: note_on channel=5 note=77 velocity=0 time=0.002906975
EXTRACT: note_on channel=1 note=34 velocity=127 time=0
EXTRACT: note_on channel=7 note=72 velocity=51 time=0
EXTRACT: note_on channel=9 note=36 velocity=116 time=0
EXTRACT: note_on channel=9 note=36 velocity=0 time=0
EXTRACT: note_on channel=3 note=77 velocity=70 time=0.008720925000000001
EXTRACT: control_change channel=6 control=64 value=127 time=0.072674375
EXTRACT: pitchwheel channel=5 pitch=-6656 time=0.0218023125
EXTRACT: pitchwheel channel=5 pitch=-7296 time=0.00581395
EXTRACT: pitchwheel channel=5 pitch=-8064 time=0.00581395
EXTRACT: note_on channel=3 note=77 velocity=0 time=0.055232525
EXTRACT: note_on channel=3 note=77 velocity=70 time=0.177325475
EXTRACT: note_on channel=6 note=86 velocity=82 time=0
EXTRACT: note_on channel=6 note=77 velocity=68 time=0
EXTRACT: note_on channel=9 note=69 velocity=88 time=0.0014534875
EXTRACT: note_on channel=9 note=69 velocity=0 time=0
EXTRACT: note_on channel=7 note=67 velocity=0 time=0.031976725
EXTRACT: note_on channel=6 note=86 velocity=0 time=0.1177324875
EXTRACT: note_on channel=6 note=77 velocity=0 time=0.0014534875
EXTRACT: note_on channel=3 note=77 velocity=0 time=0.014534875
EXTRACT: note_on channel=9 note=69 velocity=82 time=0.008720925000000001
EXTRACT: note_on channel=9 note=69 velocity=0 time=0
EXTRACT: note_on channel=1 note=34 velocity=0 time=0.13953480000000001
EXTRACT: note_on channel=3 note=77 velocity=70 time=0.026162775
EXTRACT: note_on channel=6 note=82 velocity=71 time=0.0072674375
EXTRACT: note_on channel=6 note=89 velocity=75 time=0
EXTRACT: note_on channel=5 note=70 velocity=78 time=0.0014534875
EXTRACT: note_on channel=5 note=74 velocity=78 time=0
EXTRACT: note_on channel=7 note=79 velocity=42 time=0
EXTRACT: note_on channel=9 note=39 velocity=126 time=0
EXTRACT: note_on channel=9 note=39 velocity=0 time=0
EXTRACT: pitchwheel channel=5 pitch=-6784 time=0.034883700000000004
EXTRACT: pitchwheel channel=5 pitch=-5120 time=0.00581395
EXTRACT: pitchwheel channel=5 pitch=-3584 time=0.00581395
EXTRACT: pitchwheel channel=5 pitch=-1792 time=0.00581395
EXTRACT: pitchwheel channel=5 pitch=-384 time=0.0072674375
EXTRACT: pitchwheel channel=5 pitch=0 time=0.00581395
EXTRACT: note_on channel=6 note=89 velocity=0 time=0.06976740000000001
EXTRACT: note_on channel=6 note=82 velocity=0 time=0.0450581125
EXTRACT: note_on channel=3 note=77 velocity=0 time=0.165697575
EXTRACT: note_on channel=3 note=74 velocity=72 time=0.002906975
EXTRACT: note_on channel=6 note=86 velocity=78 time=0
EXTRACT: note_on channel=7 note=72 velocity=0 time=0.031976725
EXTRACT: note_on channel=3 note=74 velocity=0 time=0.0813953
EXTRACT: note_on channel=6 note=86 velocity=0 time=0.0232558
EXTRACT: note_on channel=1 note=34 velocity=103 time=0.037790675
EXTRACT: note_on channel=3 note=77 velocity=70 time=0
EXTRACT: note_on channel=9 note=36 velocity=75 time=0
EXTRACT: note_on channel=9 note=36 velocity=0 time=0
EXTRACT: note_on channel=1 note=34 velocity=0 time=0.0624999625
EXTRACT: note_on channel=5 note=74 velocity=0 time=0.1090115625
EXTRACT: note_on channel=5 note=70 velocity=0 time=0
EXTRACT: note_on channel=6 note=77 velocity=71 time=0.0014534875
EXTRACT: note_on channel=6 note=84 velocity=81 time=0
EXTRACT: note_on channel=1 note=34 velocity=127 time=0.0014534875
EXTRACT: note_on channel=5 note=69 velocity=78 time=0
EXTRACT: note_on channel=5 note=72 velocity=78 time=0
EXTRACT: note_on channel=7 note=84 velocity=37 time=0
EXTRACT: note_on channel=9 note=36 velocity=119 time=0
EXTRACT: note_on channel=9 note=36 velocity=0 time=0
EXTRACT: control_change channel=6 control=64 value=127 time=0.0276162625
EXTRACT: note_on channel=3 note=77 velocity=0 time=0.031976725
EXTRACT: control_change channel=6 control=64 value=0 time=0.0043604625000000004
EXTRACT: control_change channel=6 control=64 value=127 time=0.0813953
EXTRACT: note_on channel=3 note=74 velocity=70 time=0.02906975
EXTRACT: note_on channel=3 note=74 velocity=0 time=0.1279069
EXTRACT: note_on channel=6 note=84 velocity=0 time=0.014534875
EXTRACT: note_on channel=6 note=77 velocity=0 time=0.008720925000000001
EXTRACT: note_on channel=6 note=81 velocity=78 time=0.0232558
EXTRACT: note_on channel=9 note=36 velocity=108 time=0
EXTRACT: note_on channel=9 note=36 velocity=0 time=0
EXTRACT: note_on channel=9 note=69 velocity=85 time=0
EXTRACT: note_on channel=9 note=69 velocity=0 time=0
EXTRACT: note_on channel=3 note=79 velocity=72 time=0.0014534875
EXTRACT: note_on channel=7 note=79 velocity=0 time=0.0305232375
EXTRACT: note_on channel=6 note=81 velocity=0 time=0.113372025
EXTRACT: note_on channel=9 note=69 velocity=81 time=0.02906975
EXTRACT: note_on channel=9 note=69 velocity=0 time=0
EXTRACT: note_on channel=3 note=79 velocity=0 time=0.0450581125
EXTRACT: note_on channel=3 note=77 velocity=70 time=0.1293603875
EXTRACT: note_on channel=6 note=89 velocity=70 time=0
EXTRACT: note_on channel=9 note=39 velocity=123 time=0
EXTRACT: note_on channel=9 note=39 velocity=0 time=0
EXTRACT: note_on channel=1 note=34 velocity=0 time=0.0043604625000000004
EXTRACT: note_on channel=6 note=89 velocity=0 time=0.2107556875
EXTRACT: note_on channel=3 note=77 velocity=0 time=0.034883700000000004
EXTRACT: note_on channel=3 note=74 velocity=72 time=0.09883715
EXTRACT: note_on channel=6 note=84 velocity=72 time=0
EXTRACT: note_on channel=7 note=84 velocity=0 time=0.031976725
EXTRACT: note_on channel=3 note=74 velocity=0 time=0.072674375
EXTRACT: note_on channel=6 note=84 velocity=0 time=0.0218023125
EXTRACT: note_on channel=3 note=75 velocity=70 time=0.0465116
EXTRACT: note_on channel=3 note=75 velocity=0 time=0.1380813125
EXTRACT: control_change channel=6 control=64 value=0 time=0.020348825
EXTRACT: note_on channel=5 note=72 velocity=0 time=0.014534875
EXTRACT: note_on channel=5 note=69 velocity=0 time=0
EXTRACT: note_on channel=3 note=77 velocity=70 time=0.0014534875
EXTRACT: note_on channel=1 note=34 velocity=121 time=0.0014534875
EXTRACT: note_on channel=5 note=67 velocity=78 time=0
EXTRACT: note_on channel=5 note=70 velocity=78 time=0
EXTRACT: note_on channel=9 note=36 velocity=116 time=0
EXTRACT: note_on channel=9 note=36 velocity=0 time=0
EXTRACT: control_change channel=6 control=64 value=0 time=0.0188953375
EXTRACT: note_on channel=3 note=77 velocity=0 time=0.1409882875
EXTRACT: note_on channel=3 note=77 velocity=70 time=0.177325475
EXTRACT: note_on channel=6 note=82 velocity=75 time=0.008720925000000001
EXTRACT: note_on channel=9 note=69 velocity=88 time=0.002906975
EXTRACT: note_on channel=9 note=69 velocity=0 time=0
EXTRACT: note_on channel=3 note=77 velocity=0 time=0.1555231625
EXTRACT: note_on channel=9 note=69 velocity=82 time=0.0188953375
EXTRACT: note_on channel=9 note=69 velocity=0 time=0
EXTRACT: note_on channel=3 note=77 velocity=70 time=0.1555231625
EXTRACT: note_on channel=1 note=34 velocity=0 time=0.0043604625000000004
EXTRACT: note_on channel=6 note=87 velocity=81 time=0.0130813875
EXTRACT: note_on channel=6 note=79 velocity=73 time=0
EXTRACT: note_on channel=9 note=39 velocity=126 time=0.0014534875
EXTRACT: note_on channel=9 note=39 velocity=0 time=0
EXTRACT: control_change channel=6 control=64 value=127 time=0.0188953375
EXTRACT: note_on channel=6 note=82 velocity=0 time=0.0276162625
EXTRACT: note_on channel=6 note=87 velocity=0 time=0.2805230875
EXTRACT: note_on channel=3 note=77 velocity=0 time=0.008720925000000001
EXTRACT: note_on channel=3 note=74 velocity=72 time=0.002906975
EXTRACT: note_on channel=6 note=82 velocity=73 time=0.0101744125
EXTRACT: note_on channel=6 note=79 velocity=0 time=0.002906975
EXTRACT: note_on channel=3 note=74 velocity=0 time=0.1002906375
EXTRACT: note_on channel=3 note=77 velocity=70 time=0.061046475
EXTRACT: note_on channel=1 note=34 velocity=105 time=0.0101744125
EXTRACT: note_on channel=9 note=36 velocity=75 time=0
EXTRACT: note_on channel=9 note=36 velocity=0 time=0
EXTRACT: note_on channel=1 note=34 velocity=0 time=0.0537790375
EXTRACT: control_change channel=6 control=64 value=0 time=0.049418575
EXTRACT: note_on channel=6 note=82 velocity=0 time=0.02906975
EXTRACT: note_on channel=5 note=67 velocity=0 time=0.0392441625
EXTRACT: note_on channel=1 note=34 velocity=121 time=0.002906975
EXTRACT: note_on channel=5 note=66 velocity=78 time=0
EXTRACT: note_on channel=9 note=36 velocity=119 time=0
EXTRACT: note_on channel=9 note=36 velocity=0 time=0
EXTRACT: note_on channel=3 note=77 velocity=0 time=0.049418575
EXTRACT: note_on channel=3 note=74 velocity=70 time=0.1148255125
EXTRACT: note_on channel=3 note=74 velocity=0 time=0.1279069
EXTRACT: note_on channel=3 note=79 velocity=72 time=0.0479650875
EXTRACT: note_on channel=6 note=78 velocity=70 time=0.008720925000000001
EXTRACT: note_on channel=9 note=36 velocity=108 time=0
EXTRACT: note_on channel=9 note=36 velocity=0 time=0
EXTRACT: note_on channel=9 note=69 velocity=85 time=0
EXTRACT: note_on channel=9 note=69 velocity=0 time=0
EXTRACT: note_on channel=9 note=69 velocity=81 time=0.1744185
EXTRACT: note_on channel=9 note=69 velocity=0 time=0
EXTRACT: note_on channel=3 note=79 velocity=0 time=0.034883700000000004
EXTRACT: note_on channel=3 note=77 velocity=70 time=0.1293603875
EXTRACT: note_on channel=6 note=87 velocity=83 time=0.008720925000000001
EXTRACT: note_on channel=4 note=82 velocity=78 time=0.0014534875
EXTRACT: note_on channel=6 note=82 velocity=71 time=0
EXTRACT: note_on channel=9 note=39 velocity=123 time=0
EXTRACT: note_on channel=9 note=39 velocity=0 time=0
EXTRACT: note_on channel=1 note=34 velocity=0 time=0.0043604625000000004
EXTRACT: note_on channel=6 note=78 velocity=0 time=0.0232558
EXTRACT: note_on channel=4 note=82 velocity=0 time=0.20348825
EXTRACT: note_on channel=4 note=81 velocity=78 time=0.0014534875
EXTRACT: control_change channel=6 control=64 value=127 time=0.0043604625000000004
EXTRACT: note_on channel=3 note=77 velocity=0 time=0.002906975
EXTRACT: note_on channel=6 note=82 velocity=0 time=0.1061045875
EXTRACT: note_on channel=3 note=74 velocity=72 time=0.002906975
EXTRACT: note_on channel=6 note=78 velocity=78 time=0
EXTRACT: note_on channel=6 note=87 velocity=0 time=0.1031976125
EXTRACT: note_on channel=3 note=74 velocity=0 time=0.0014534875
EXTRACT: note_on channel=4 note=81 velocity=0 time=0.0101744125
EXTRACT: note_on channel=4 note=79 velocity=78 time=0.0014534875
EXTRACT: note_on channel=3 note=75 velocity=70 time=0.0566860125
EXTRACT: note_on channel=9 note=84 velocity=76 time=0.0014534875
EXTRACT: note_on channel=9 note=84 velocity=0 time=0
EXTRACT: note_on channel=6 note=78 velocity=0 time=0.0305232375
EXTRACT: note_on channel=3 note=75 velocity=0 time=0.1061045875
EXTRACT: note_on channel=5 note=66 velocity=0 time=0.034883700000000004
EXTRACT: note_on channel=5 note=70 velocity=0 time=0
EXTRACT: note_on channel=4 note=79 velocity=0 time=0.0014534875
EXTRACT: note_on channel=3 note=77 velocity=70 time=0
EXTRACT: note_on channel=1 note=34 velocity=127 time=0.0014534875
EXTRACT: note_on channel=9 note=36 velocity=116 time=0
EXTRACT: note_on channel=9 note=36 velocity=0 time=0
EXTRACT: note_on channel=4 note=77 velocity=78 time=0.0014534875
EXTRACT: control_change channel=6 control=64 value=0 time=0.04069765
EXTRACT: pitchwheel channel=5 pitch=-6656 time=0.061046475
EXTRACT: pitchwheel channel=5 pitch=-7296 time=0.00581395
EXTRACT: pitchwheel channel=5 pitch=-8064 time=0.00581395
EXTRACT: note_on channel=3 note=77 velocity=0 time=0.0450581125
EXTRACT: note_on channel=4 note=77 velocity=0 time=0.072674375
EXTRACT: note_on channel=4 note=74 velocity=78 time=0.0014534875
EXTRACT: note_on channel=3 note=77 velocity=70 time=0.1031976125
EXTRACT: control_change channel=6 control=64 value=127 time=0.0014534875
EXTRACT: note_on channel=6 note=86 velocity=83 time=0.0072674375
EXTRACT: note_on channel=6 note=77 velocity=60 time=0.0014534875
EXTRACT: note_on channel=9 note=69 velocity=88 time=0.0014534875
EXTRACT: note_on channel=9 note=69 velocity=0 time=0
EXTRACT: note_on channel=4 note=74 velocity=0 time=0.1148255125
EXTRACT: note_on channel=4 note=72 velocity=78 time=0.002906975
EXTRACT: note_on channel=3 note=77 velocity=0 time=0.037790675
EXTRACT: note_on channel=9 note=69 velocity=82 time=0.0188953375
EXTRACT: note_on channel=9 note=69 velocity=0 time=0
EXTRACT: note_on channel=6 note=77 velocity=0 time=0.020348825
EXTRACT: note_on channel=6 note=86 velocity=0 time=0.008720925000000001
EXTRACT: note_on channel=1 note=34 velocity=0 time=0.12209295
EXTRACT: note_on channel=3 note=77 velocity=70 time=0.0043604625000000004
EXTRACT: note_on channel=6 note=82 velocity=80 time=0.0159883625
EXTRACT: note_on channel=4 note=72 velocity=0 time=0.002906975
EXTRACT: note_on channel=5 note=70 velocity=78 time=0
EXTRACT: note_on channel=5 note=74 velocity=78 time=0
EXTRACT: note_on channel=6 note=74 velocity=67 time=0
EXTRACT: note_on channel=9 note=39 velocity=126 time=0
EXTRACT: note_on channel=9 note=39 velocity=0 time=0
EXTRACT: note_on channel=4 note=70 velocity=78 time=0.0014534875
EXTRACT: pitchwheel channel=5 pitch=-6784 time=0.0334302125
EXTRACT: pitchwheel channel=5 pitch=-5120 time=0.00581395
EXTRACT: pitchwheel channel=5 pitch=-3584 time=0.00581395
EXTRACT: pitchwheel channel=5 pitch=-1792 time=0.00581395
EXTRACT: pitchwheel channel=5 pitch=-384 time=0.0072674375
EXTRACT: pitchwheel channel=5 pitch=0 time=0.00581395
EXTRACT: note_on channel=6 note=74 velocity=0 time=0.066860425
EXTRACT: note_on channel=6 note=82 velocity=0 time=0.0043604625000000004
EXTRACT: note_on channel=3 note=77 velocity=0 time=0.19912778750000001
EXTRACT: note_on channel=3 note=74 velocity=72 time=0.002906975
EXTRACT: note_on channel=6 note=77 velocity=73 time=0.0072674375
EXTRACT: note_on channel=6 note=70 velocity=73 time=0.002906975
EXTRACT: note_on channel=3 note=74 velocity=0 time=0.1031976125
EXTRACT: note_on channel=3 note=77 velocity=70 time=0.061046475
EXTRACT: note_on channel=1 note=34 velocity=99 time=0.0101744125
EXTRACT: note_on channel=9 note=36 velocity=75 time=0
EXTRACT: note_on channel=9 note=36 velocity=0 time=0
EXTRACT: note_on channel=1 note=34 velocity=0 time=0.055232525
EXTRACT: note_on channel=6 note=77 velocity=0 time=0.078488325
EXTRACT: note_on channel=6 note=70 velocity=0 time=0.002906975
EXTRACT: note_on channel=5 note=74 velocity=0 time=0.034883700000000004
EXTRACT: note_on channel=5 note=70 velocity=0 time=0
EXTRACT: note_on channel=1 note=34 velocity=127 time=0.002906975
EXTRACT: note_on channel=5 note=69 velocity=78 time=0
EXTRACT: note_on channel=5 note=72 velocity=78 time=0
EXTRACT: note_on channel=6 note=72 velocity=85 time=0
EXTRACT: note_on channel=9 note=36 velocity=119 time=0
EXTRACT: note_on channel=9 note=36 velocity=0 time=0
EXTRACT: control_change channel=6 control=64 value=0 time=0.02906975
EXTRACT: control_change channel=6 control=64 value=127 time=0.014534875
EXTRACT: note_on channel=3 note=77 velocity=0 time=0.00581395
EXTRACT: note_on channel=3 note=74 velocity=70 time=0.1148255125
EXTRACT: note_on channel=4 note=70 velocity=0 time=0.0683139125
EXTRACT: note_on channel=3 note=74 velocity=0 time=0.0595929875
EXTRACT: note_on channel=3 note=79 velocity=72 time=0.0479650875
EXTRACT: note_on channel=6 note=69 velocity=80 time=0.008720925000000001
EXTRACT: note_on channel=9 note=36 velocity=108 time=0
EXTRACT: note_on channel=9 note=36 velocity=0 time=0
EXTRACT: note_on channel=9 note=69 velocity=85 time=0
EXTRACT: note_on channel=9 note=69 velocity=0 time=0
EXTRACT: note_on channel=6 note=72 velocity=0 time=0.0276162625
EXTRACT: note_on channel=6 note=69 velocity=0 time=0.1046511
EXTRACT: note_on channel=9 note=69 velocity=81 time=0.0421511375
EXTRACT: note_on channel=9 note=69 velocity=0 time=0
EXTRACT: note_on channel=3 note=79 velocity=0 time=0.034883700000000004
EXTRACT: note_on channel=3 note=77 velocity=70 time=0.1293603875
EXTRACT: note_on channel=6 note=84 velocity=85 time=0.008720925000000001
EXTRACT: note_on channel=6 note=77 velocity=73 time=0.0014534875
EXTRACT: note_on channel=9 note=39 velocity=123 time=0
EXTRACT: note_on channel=9 note=39 velocity=0 time=0
EXTRACT: note_on channel=1 note=34 velocity=0 time=0.1090115625
EXTRACT: note_on channel=6 note=84 velocity=0 time=0.0857557625
EXTRACT: note_on channel=6 note=77 velocity=0 time=0.0043604625000000004
EXTRACT: note_on channel=3 note=77 velocity=0 time=0.04069765
EXTRACT: note_on channel=6 note=81 velocity=82 time=0.1090115625
EXTRACT: note_on channel=3 note=77 velocity=72 time=0.1511627
EXTRACT: note_on channel=6 note=81 velocity=0 time=0.00581395
EXTRACT: note_on channel=3 note=77 velocity=0 time=0.0799418125
EXTRACT: control_change channel=6 control=64 value=0 time=0.0828487875
EXTRACT: note_on channel=6 note=53 velocity=81 time=0.0218023125
EXTRACT: note_on channel=5 note=72 velocity=0 time=0.0043604625000000004
EXTRACT: note_on channel=5 note=69 velocity=0 time=0
EXTRACT: note_on channel=1 note=29 velocity=127 time=0.002906975
EXTRACT: note_on channel=3 note=77 velocity=70 time=0
EXTRACT: note_on channel=4 note=77 velocity=76 time=0
EXTRACT: note_on channel=4 note=82 velocity=76 time=0
EXTRACT: note_on channel=4 note=86 velocity=76 time=0
EXTRACT: note_on channel=5 note=67 velocity=78 time=0
EXTRACT: note_on channel=5 note=70 velocity=78 time=0
EXTRACT: note_on channel=7 note=49 velocity=62 time=0
EXTRACT: note_on channel=9 note=36 velocity=116 time=0
EXTRACT: note_on channel=9 note=36 velocity=0 time=0
EXTRACT: note_on channel=6 note=67 velocity=87 time=0.00581395
EXTRACT: note_on channel=6 note=70 velocity=82 time=0.0014534875
EXTRACT: note_on channel=6 note=63 velocity=73 time=0
EXTRACT: control_change channel=6 control=64 value=127 time=0.014534875
EXTRACT: note_on channel=3 note=77 velocity=0 time=0.1206394625
EXTRACT: note_on channel=4 note=86 velocity=0 time=0
EXTRACT: note_on channel=4 note=77 velocity=0 time=0
EXTRACT: note_on channel=4 note=82 velocity=0 time=0
EXTRACT: note_on channel=3 note=79 velocity=71 time=0.031976725
EXTRACT: note_on channel=4 note=79 velocity=76 time=0
EXTRACT: note_on channel=4 note=84 velocity=76 time=0
EXTRACT: note_on channel=4 note=87 velocity=76 time=0
EXTRACT: note_on channel=6 note=53 velocity=0 time=0.1206394625
EXTRACT: note_on channel=4 note=84 velocity=0 time=0.0130813875
EXTRACT: note_on channel=4 note=79 velocity=0 time=0
EXTRACT: note_on channel=3 note=79 velocity=0 time=0
EXTRACT: note_on channel=4 note=87 velocity=0 time=0
EXTRACT: note_on channel=3 note=77 velocity=72 time=0.04069765
EXTRACT: note_on channel=4 note=77 velocity=76 time=0
EXTRACT: note_on channel=4 note=82 velocity=76 time=0
EXTRACT: note_on channel=4 note=86 velocity=76 time=0
EXTRACT: note_on channel=9 note=69 velocity=88 time=0
EXTRACT: note_on channel=9 note=69 velocity=0 time=0
EXTRACT: note_on channel=6 note=67 velocity=0 time=0.0043604625000000004
EXTRACT: note_on channel=6 note=70 velocity=0 time=0.0014534875
EXTRACT: note_on channel=6 note=63 velocity=0 time=0
EXTRACT: note_on channel=9 note=69 velocity=82 time=0.16860455
EXTRACT: note_on channel=9 note=69 velocity=0 time=0
EXTRACT: note_on channel=1 note=29 velocity=0 time=0.0508720625
EXTRACT: control_change channel=6 control=64 value=0 time=0.0828487875
EXTRACT: note_on channel=6 note=53 velocity=77 time=0.031976725
EXTRACT: note_on channel=6 note=69 velocity=80 time=0.0014534875
EXTRACT: note_on channel=6 note=72 velocity=77 time=0.0014534875
EXTRACT: note_on channel=6 note=65 velocity=66 time=0.0014534875
EXTRACT: note_on channel=5 note=70 velocity=0 time=0.0014534875
EXTRACT: note_on channel=5 note=67 velocity=0 time=0
EXTRACT: note_on channel=1 note=29 velocity=126 time=0.002906975
EXTRACT: note_on channel=5 note=69 velocity=78 time=0
EXTRACT: note_on channel=5 note=72 velocity=78 time=0
EXTRACT: note_on channel=7 note=55 velocity=62 time=0
EXTRACT: note_on channel=9 note=36 velocity=119 time=0
EXTRACT: note_on channel=9 note=36 velocity=0 time=0
EXTRACT: control_change channel=6 control=64 value=127 time=0.14534875
EXTRACT: note_on channel=4 note=86 velocity=0 time=0.0392441625
EXTRACT: note_on channel=4 note=77 velocity=0 time=0
EXTRACT: note_on channel=3 note=77 velocity=0 time=0
EXTRACT: note_on channel=4 note=82 velocity=0 time=0
EXTRACT: note_on channel=6 note=65 velocity=0 time=0.1206394625
EXTRACT: note_on channel=6 note=69 velocity=0 time=0.0276162625
EXTRACT: note_on channel=6 note=72 velocity=0 time=0.002906975
EXTRACT: note_on channel=3 note=77 velocity=70 time=0.002906975
EXTRACT: note_on channel=4 note=77 velocity=75 time=0
EXTRACT: note_on channel=4 note=82 velocity=75 time=0
EXTRACT: note_on channel=4 note=86 velocity=75 time=0
EXTRACT: note_on channel=6 note=53 velocity=0 time=0.0130813875
EXTRACT: note_on channel=7 note=49 velocity=0 time=0.02906975
EXTRACT: note_on channel=1 note=29 velocity=0 time=0.1874998875
EXTRACT: note_on channel=4 note=77 velocity=0 time=0.0101744125
EXTRACT: note_on channel=4 note=82 velocity=0 time=0
EXTRACT: note_on channel=4 note=86 velocity=0 time=0
EXTRACT: note_on channel=3 note=77 velocity=0 time=0
EXTRACT: control_change channel=6 control=64 value=0 time=0.101744125
EXTRACT: note_on channel=6 note=70 velocity=76 time=0.0101744125
EXTRACT: note_on channel=6 note=67 velocity=83 time=0.0014534875
EXTRACT: note_on channel=3 note=77 velocity=70 time=0.0014534875
EXTRACT: note_on channel=4 note=77 velocity=75 time=0
EXTRACT: note_on channel=4 note=82 velocity=75 time=0
EXTRACT: note_on channel=4 note=86 velocity=75 time=0
EXTRACT: note_on channel=6 note=53 velocity=80 time=0
EXTRACT: note_on channel=5 note=69 velocity=0 time=0.0014534875
EXTRACT: note_on channel=5 note=72 velocity=0 time=0
EXTRACT: note_on channel=6 note=74 velocity=84 time=0
EXTRACT: note_on channel=1 note=29 velocity=127 time=0.002906975
EXTRACT: note_on channel=5 note=70 velocity=78 time=0
EXTRACT: note_on channel=5 note=74 velocity=78 time=0
EXTRACT: note_on channel=7 note=60 velocity=62 time=0
EXTRACT: note_on channel=9 note=36 velocity=108 time=0
EXTRACT: note_on channel=9 note=36 velocity=0 time=0
EXTRACT: control_change channel=6 control=64 value=127 time=0.1627906
EXTRACT: note_on channel=6 note=74 velocity=0 time=0.08720925
EXTRACT: note_on channel=6 note=67 velocity=0 time=0.0072674375
EXTRACT: note_on channel=6 note=70 velocity=0 time=0.00581395
EXTRACT: note_on channel=6 note=53 velocity=0 time=0.014534875
EXTRACT: note_on channel=4 note=86 velocity=0 time=0.0247092875
EXTRACT: note_on channel=4 note=82 velocity=0 time=0
EXTRACT: note_on channel=3 note=77 velocity=0 time=0
EXTRACT: note_on channel=4 note=77 velocity=0 time=0
EXTRACT: note_on channel=3 note=74 velocity=70 time=0.0450581125
EXTRACT: note_on channel=4 note=74 velocity=75 time=0
EXTRACT: note_on channel=4 note=77 velocity=75 time=0.0014534875
EXTRACT: note_on channel=4 note=82 velocity=75 time=0
EXTRACT: note_on channel=9 note=69 velocity=85 time=0
EXTRACT: note_on channel=9 note=69 velocity=0 time=0
EXTRACT: note_on channel=7 note=55 velocity=0 time=0.031976725
EXTRACT: note_on channel=9 note=69 velocity=81 time=0.142441775
EXTRACT: note_on channel=9 note=69 velocity=0 time=0
EXTRACT: note_on channel=1 note=29 velocity=0 time=0.049418575
EXTRACT: control_change channel=6 control=64 value=0 time=0.0930232
EXTRACT: note_on channel=4 note=74 velocity=0 time=0.017441850000000002
EXTRACT: note_on channel=3 note=74 velocity=0 time=0
EXTRACT: note_on channel=4 note=82 velocity=0 time=0.0014534875
EXTRACT: note_on channel=4 note=77 velocity=0 time=0
EXTRACT: note_on channel=5 note=70 velocity=0 time=0.0101744125
EXTRACT: note_on channel=5 note=74 velocity=0 time=0
EXTRACT: note_on channel=6 note=53 velocity=76 time=0
EXTRACT: note_on channel=1 note=29 velocity=127 time=0.002906975
EXTRACT: note_on channel=4 note=75 velocity=78 time=0
EXTRACT: note_on channel=4 note=79 velocity=78 time=0
EXTRACT: note_on channel=5 note=72 velocity=78 time=0
EXTRACT: note_on channel=5 note=75 velocity=76 time=0
EXTRACT: note_on channel=6 note=70 velocity=86 time=0
EXTRACT: note_on channel=6 note=67 velocity=75 time=0
EXTRACT: note_on channel=6 note=75 velocity=84 time=0
EXTRACT: note_on channel=7 note=67 velocity=62 time=0
EXTRACT: note_on channel=9 note=36 velocity=119 time=0
EXTRACT: note_on channel=9 note=36 velocity=0 time=0
EXTRACT: note_on channel=3 note=72 velocity=72 time=0.0043604625000000004
EXTRACT: note_on channel=4 note=72 velocity=78 time=0
EXTRACT: control_change channel=6 control=64 value=127 time=0.0973836625
EXTRACT: note_on channel=5 note=75 velocity=0 time=0.06976740000000001
EXTRACT: note_on channel=5 note=74 velocity=71 time=0.002906975
EXTRACT: note_on channel=6 note=67 velocity=0 time=0.05232555
EXTRACT: note_on channel=6 note=70 velocity=0 time=0.002906975
EXTRACT: note_on channel=6 note=75 velocity=0 time=0.0072674375
EXTRACT: note_on channel=6 note=53 velocity=0 time=0
EXTRACT: note_on channel=4 note=79 velocity=0 time=0.0595929875
EXTRACT: note_on channel=4 note=75 velocity=0 time=0
EXTRACT: note_on channel=3 note=72 velocity=0 time=0.0043604625000000004
EXTRACT: note_on channel=4 note=72 velocity=0 time=0
EXTRACT: note_on channel=5 note=74 velocity=0 time=0.0450581125
EXTRACT: note_on channel=4 note=74 velocity=76 time=0.002906975
EXTRACT: note_on channel=4 note=77 velocity=76 time=0
EXTRACT: note_on channel=5 note=75 velocity=76 time=0
EXTRACT: note_on channel=3 note=70 velocity=71 time=0.00581395
EXTRACT: note_on channel=3 note=70 velocity=70 time=0.0014534875
EXTRACT: note_on channel=4 note=70 velocity=76 time=0
EXTRACT: note_on channel=7 note=60 velocity=0 time=0.0247092875
EXTRACT: note_on channel=3 note=72 velocity=70 time=0.1264534125
EXTRACT: note_on channel=5 note=75 velocity=0 time=0.0130813875
EXTRACT: note_on channel=3 note=70 velocity=0 time=0.002906975
EXTRACT: note_on channel=5 note=77 velocity=75 time=0.0014534875
EXTRACT: note_on channel=1 note=29 velocity=0 time=0.061046475
EXTRACT: note_on channel=4 note=74 velocity=0 time=0.0072674375
EXTRACT: note_on channel=4 note=77 velocity=0 time=0
EXTRACT: note_on channel=3 note=70 velocity=0 time=0.0072674375
EXTRACT: note_on channel=4 note=70 velocity=0 time=0
EXTRACT: control_change channel=6 control=64 value=0 time=0.00581395
EXTRACT: note_on channel=3 note=72 velocity=0 time=0.084302275
EXTRACT: note_on channel=5 note=72 velocity=0 time=0.0043604625000000004
EXTRACT: note_on channel=5 note=77 velocity=0 time=0.002906975
EXTRACT: note_on channel=1 note=34 velocity=127 time=0
EXTRACT: note_on channel=7 note=72 velocity=51 time=0
EXTRACT: note_on channel=9 note=36 velocity=116 time=0
EXTRACT: note_on channel=9 note=36 velocity=0 time=0
EXTRACT: note_on channel=3 note=74 velocity=70 time=0.0232558
EXTRACT: control_change channel=6 control=64 value=127 time=0.0581395
EXTRACT: pitchwheel channel=5 pitch=-6656 time=0.0218023125
EXTRACT: pitchwheel channel=5 pitch=-7296 time=0.00581395
EXTRACT: pitchwheel channel=5 pitch=-8064 time=0.00581395
EXTRACT: note_on channel=3 note=74 velocity=0 time=0.1526161875
EXTRACT: note_on channel=6 note=86 velocity=82 time=0.0799418125
EXTRACT: note_on channel=6 note=77 velocity=68 time=0
EXTRACT: note_on channel=9 note=69 velocity=88 time=0.0014534875
EXTRACT: note_on channel=9 note=69 velocity=0 time=0
EXTRACT: note_on channel=3 note=74 velocity=72 time=0.017441850000000002
EXTRACT: note_on channel=7 note=67 velocity=0 time=0.014534875
EXTRACT: note_on channel=6 note=86 velocity=0 time=0.1177324875
EXTRACT: note_on channel=6 note=77 velocity=0 time=0.0014534875
EXTRACT: note_on channel=9 note=69 velocity=82 time=0.0232558
EXTRACT: note_on channel=9 note=69 velocity=0 time=0
EXTRACT: note_on channel=3 note=74 velocity=0 time=0.0683139125
EXTRACT: note_on channel=1 note=34 velocity=0 time=0.0712208875
EXTRACT: note_on channel=6 note=82 velocity=71 time=0.0334302125
EXTRACT: note_on channel=6 note=89 velocity=75 time=0
EXTRACT: note_on channel=5 note=70 velocity=78 time=0.0014534875
EXTRACT: note_on channel=5 note=74 velocity=78 time=0
EXTRACT: note_on channel=7 note=79 velocity=42 time=0
EXTRACT: note_on channel=9 note=39 velocity=126 time=0
EXTRACT: note_on channel=9 note=39 velocity=0 time=0
EXTRACT: note_on channel=3 note=74 velocity=72 time=0.008720925000000001
EXTRACT: pitchwheel channel=5 pitch=-6784 time=0.026162775
EXTRACT: pitchwheel channel=5 pitch=-5120 time=0.00581395
EXTRACT: pitchwheel channel=5 pitch=-3584 time=0.00581395
EXTRACT: pitchwheel channel=5 pitch=-1792 time=0.00581395
EXTRACT: pitchwheel channel=5 pitch=-384 time=0.0072674375
EXTRACT: pitchwheel channel=5 pitch=0 time=0.00581395
EXTRACT: note_on channel=6 note=89 velocity=0 time=0.06976740000000001
EXTRACT: note_on channel=6 note=82 velocity=0 time=0.0450581125
EXTRACT: note_on channel=6 note=86 velocity=78 time=0.16860455
EXTRACT: note_on channel=7 note=72 velocity=0 time=0.031976725
EXTRACT: note_on channel=3 note=74 velocity=0 time=0.090116225
EXTRACT: note_on channel=6 note=86 velocity=0 time=0.014534875
EXTRACT: note_on channel=1 note=34 velocity=103 time=0.037790675
EXTRACT: note_on channel=9 note=36 velocity=75 time=0
EXTRACT: note_on channel=9 note=36 velocity=0 time=0
EXTRACT: note_on channel=3 note=75 velocity=72 time=0.04069765
EXTRACT: note_on channel=1 note=34 velocity=0 time=0.0218023125
EXTRACT: note_on channel=5 note=70 velocity=0 time=0.1090115625
EXTRACT: note_on channel=5 note=74 velocity=0 time=0
EXTRACT: note_on channel=6 note=77 velocity=71 time=0.0014534875
EXTRACT: note_on channel=6 note=84 velocity=81 time=0
EXTRACT: note_on channel=1 note=34 velocity=127 time=0.0014534875
EXTRACT: note_on channel=5 note=69 velocity=78 time=0
EXTRACT: note_on channel=5 note=72 velocity=78 time=0
EXTRACT: note_on channel=7 note=84 velocity=37 time=0
EXTRACT: note_on channel=9 note=36 velocity=119 time=0
EXTRACT: note_on channel=9 note=36 velocity=0 time=0
EXTRACT: note_on channel=3 note=75 velocity=0 time=0.017441850000000002
EXTRACT: control_change channel=6 control=64 value=127 time=0.0101744125
EXTRACT: note_on channel=3 note=72 velocity=70 time=0.0014534875
EXTRACT: control_change channel=6 control=64 value=0 time=0.034883700000000004
EXTRACT: control_change channel=6 control=64 value=127 time=0.0813953
EXTRACT: note_on channel=3 note=72 velocity=0 time=0.1206394625
EXTRACT: note_on channel=6 note=84 velocity=0 time=0.0508720625
EXTRACT: note_on channel=6 note=77 velocity=0 time=0.008720925000000001
EXTRACT: note_on channel=6 note=81 velocity=78 time=0.0232558
EXTRACT: note_on channel=9 note=36 velocity=108 time=0
EXTRACT: note_on channel=9 note=36 velocity=0 time=0
EXTRACT: note_on channel=9 note=69 velocity=85 time=0
EXTRACT: note_on channel=9 note=69 velocity=0 time=0
EXTRACT: note_on channel=3 note=72 velocity=72 time=0.020348825
EXTRACT: note_on channel=7 note=79 velocity=0 time=0.0116279
EXTRACT: note_on channel=6 note=81 velocity=0 time=0.113372025
EXTRACT: note_on channel=9 note=69 velocity=81 time=0.02906975
EXTRACT: note_on channel=9 note=69 velocity=0 time=0
EXTRACT: note_on channel=3 note=72 velocity=0 time=0.037790675
EXTRACT: note_on channel=3 note=72 velocity=72 time=0.113372025
EXTRACT: note_on channel=6 note=89 velocity=70 time=0.0232558
EXTRACT: note_on channel=9 note=39 velocity=123 time=0
EXTRACT: note_on channel=9 note=39 velocity=0 time=0
EXTRACT: note_on channel=1 note=34 velocity=0 time=0.0043604625000000004
EXTRACT: note_on channel=6 note=89 velocity=0 time=0.2107556875
EXTRACT: note_on channel=6 note=84 velocity=72 time=0.13372085
EXTRACT: note_on channel=7 note=84 velocity=0 time=0.031976725
EXTRACT: note_on channel=3 note=72 velocity=0 time=0.031976725
EXTRACT: note_on channel=6 note=84 velocity=0 time=0.0624999625
EXTRACT: note_on channel=3 note=74 velocity=70 time=0.0508720625
EXTRACT: note_on channel=3 note=74 velocity=0 time=0.1438952625
EXTRACT: note_on channel=3 note=75 velocity=72 time=0.0072674375
EXTRACT: control_change channel=6 control=64 value=0 time=0.002906975
EXTRACT: note_on channel=5 note=72 velocity=0 time=0.014534875
EXTRACT: note_on channel=5 note=69 velocity=0 time=0
EXTRACT: note_on channel=1 note=34 velocity=121 time=0.002906975
EXTRACT: note_on channel=5 note=67 velocity=78 time=0
EXTRACT: note_on channel=5 note=70 velocity=78 time=0
EXTRACT: note_on channel=9 note=36 velocity=116 time=0
EXTRACT: note_on channel=9 note=36 velocity=0 time=0
EXTRACT: control_change channel=6 control=64 value=0 time=0.0188953375
EXTRACT: note_on channel=3 note=75 velocity=0 time=0.2863370375
EXTRACT: note_on channel=3 note=74 velocity=72 time=0.014534875
EXTRACT: note_on channel=6 note=82 velocity=75 time=0.026162775
EXTRACT: note_on channel=9 note=69 velocity=88 time=0.002906975
EXTRACT: note_on channel=9 note=69 velocity=0 time=0
EXTRACT: note_on channel=9 note=69 velocity=82 time=0.1744185
EXTRACT: note_on channel=9 note=69 velocity=0 time=0
EXTRACT: note_on channel=3 note=74 velocity=0 time=0.0712208875
EXTRACT: note_on channel=3 note=72 velocity=72 time=0.06395345
EXTRACT: note_on channel=1 note=34 velocity=0 time=0.0247092875
EXTRACT: note_on channel=6 note=87 velocity=81 time=0.0130813875
EXTRACT: note_on channel=6 note=79 velocity=73 time=0
EXTRACT: note_on channel=9 note=39 velocity=126 time=0.0014534875
EXTRACT: note_on channel=9 note=39 velocity=0 time=0
EXTRACT: control_change channel=6 control=64 value=127 time=0.0188953375
EXTRACT: note_on channel=6 note=82 velocity=0 time=0.0276162625
EXTRACT: note_on channel=3 note=72 velocity=0 time=0.2688951875
EXTRACT: note_on channel=6 note=87 velocity=0 time=0.0116279
EXTRACT: note_on channel=3 note=70 velocity=70 time=0.0159883625
EXTRACT: note_on channel=6 note=82 velocity=73 time=0.00581395
EXTRACT: note_on channel=6 note=79 velocity=0 time=0.002906975
EXTRACT: note_on channel=1 note=34 velocity=105 time=0.171511525
EXTRACT: note_on channel=9 note=36 velocity=75 time=0
EXTRACT: note_on channel=9 note=36 velocity=0 time=0
EXTRACT: note_on channel=1 note=34 velocity=0 time=0.0537790375
EXTRACT: control_change channel=6 control=64 value=0 time=0.049418575
EXTRACT: note_on channel=3 note=70 velocity=0 time=0.0159883625
EXTRACT: note_on channel=6 note=82 velocity=0 time=0.0130813875
EXTRACT: note_on channel=3 note=72 velocity=72 time=0.031976725
EXTRACT: note_on channel=5 note=67 velocity=0 time=0.0072674375
EXTRACT: note_on channel=1 note=34 velocity=121 time=0.002906975
EXTRACT: note_on channel=5 note=66 velocity=78 time=0
EXTRACT: note_on channel=9 note=36 velocity=119 time=0
EXTRACT: note_on channel=9 note=36 velocity=0 time=0
EXTRACT: note_on channel=3 note=72 velocity=0 time=0.328488175
EXTRACT: note_on channel=6 note=78 velocity=70 time=0.020348825
EXTRACT: note_on channel=9 note=36 velocity=108 time=0
EXTRACT: note_on channel=9 note=36 velocity=0 time=0
EXTRACT: note_on channel=9 note=69 velocity=85 time=0
EXTRACT: note_on channel=9 note=69 velocity=0 time=0
EXTRACT: note_on channel=3 note=74 velocity=72 time=0.002906975
EXTRACT: note_on channel=9 note=69 velocity=81 time=0.171511525
EXTRACT: note_on channel=9 note=69 velocity=0 time=0
EXTRACT: note_on channel=3 note=74 velocity=0 time=0.14534875
EXTRACT: note_on channel=6 note=87 velocity=83 time=0.0276162625
EXTRACT: note_on channel=4 note=82 velocity=78 time=0.0014534875
EXTRACT: note_on channel=6 note=82 velocity=71 time=0
EXTRACT: note_on channel=9 note=39 velocity=123 time=0
EXTRACT: note_on channel=9 note=39 velocity=0 time=0
EXTRACT: note_on channel=1 note=34 velocity=0 time=0.0043604625000000004
EXTRACT: note_on channel=6 note=78 velocity=0 time=0.0232558
EXTRACT: note_on channel=4 note=82 velocity=0 time=0.20348825
EXTRACT: note_on channel=4 note=81 velocity=78 time=0.0014534875
EXTRACT: control_change channel=6 control=64 value=127 time=0.0043604625000000004
EXTRACT: note_on channel=6 note=82 velocity=0 time=0.1090115625
EXTRACT: note_on channel=6 note=78 velocity=78 time=0.002906975
EXTRACT: note_on channel=6 note=87 velocity=0 time=0.1031976125
EXTRACT: note_on channel=4 note=81 velocity=0 time=0.0116279
EXTRACT: note_on channel=4 note=79 velocity=78 time=0.0014534875
EXTRACT: note_on channel=3 note=72 velocity=71 time=0.0479650875
EXTRACT: note_on channel=9 note=84 velocity=76 time=0.0101744125
EXTRACT: note_on channel=9 note=84 velocity=0 time=0
EXTRACT: note_on channel=6 note=78 velocity=0 time=0.0305232375
EXTRACT: note_on channel=3 note=72 velocity=0 time=0.1090115625
EXTRACT: note_on channel=3 note=74 velocity=72 time=0.0101744125
EXTRACT: note_on channel=5 note=66 velocity=0 time=0.0218023125
EXTRACT: note_on channel=5 note=70 velocity=0 time=0
EXTRACT: note_on channel=4 note=79 velocity=0 time=0.0014534875
EXTRACT: note_on channel=1 note=34 velocity=127 time=0.0014534875
EXTRACT: note_on channel=9 note=36 velocity=116 time=0
EXTRACT: note_on channel=9 note=36 velocity=0 time=0
EXTRACT: note_on channel=4 note=77 velocity=78 time=0.0014534875
EXTRACT: control_change channel=6 control=64 value=0 time=0.04069765
EXTRACT: pitchwheel channel=5 pitch=-6656 time=0.061046475
EXTRACT: pitchwheel channel=5 pitch=-7296 time=0.00581395
EXTRACT: pitchwheel channel=5 pitch=-8064 time=0.00581395
EXTRACT: note_on channel=4 note=77 velocity=0 time=0.1177324875
EXTRACT: note_on channel=4 note=74 velocity=78 time=0.0014534875
EXTRACT: note_on channel=3 note=74 velocity=0 time=0.017441850000000002
EXTRACT: note_on channel=3 note=74 velocity=72 time=0.0799418125
EXTRACT: control_change channel=6 control=64 value=127 time=0.0072674375
EXTRACT: note_on channel=6 note=86 velocity=83 time=0.0072674375
EXTRACT: note_on channel=6 note=77 velocity=60 time=0.0014534875
EXTRACT: note_on channel=9 note=69 velocity=88 time=0.0014534875
EXTRACT: note_on channel=9 note=69 velocity=0 time=0
EXTRACT: note_on channel=4 note=74 velocity=0 time=0.1148255125
EXTRACT: note_on channel=4 note=72 velocity=78 time=0.002906975
EXTRACT: note_on channel=9 note=69 velocity=82 time=0.0566860125
EXTRACT: note_on channel=9 note=69 velocity=0 time=0
EXTRACT: note_on channel=6 note=77 velocity=0 time=0.020348825
EXTRACT: note_on channel=6 note=86 velocity=0 time=0.008720925000000001
EXTRACT: note_on channel=8 note=77 velocity=85 time=0.0101744125
EXTRACT: note_on channel=10 note=65 velocity=95 time=0
EXTRACT: note_on channel=3 note=74 velocity=0 time=0.0188953375
EXTRACT: note_on channel=8 note=86 velocity=85 time=0.0683139125
EXTRACT: note_on channel=10 note=74 velocity=95 time=0
EXTRACT: note_on channel=8 note=77 velocity=0 time=0.0072674375
EXTRACT: note_on channel=10 note=65 velocity=0 time=0
EXTRACT: note_on channel=1 note=34 velocity=0 time=0.017441850000000002
EXTRACT: note_on channel=3 note=74 velocity=70 time=0.0116279
EXTRACT: note_on channel=6 note=82 velocity=80 time=0.008720925000000001
EXTRACT: note_on channel=4 note=72 velocity=0 time=0.002906975
EXTRACT: note_on channel=5 note=70 velocity=78 time=0
EXTRACT: note_on channel=5 note=74 velocity=78 time=0
EXTRACT: note_on channel=6 note=74 velocity=67 time=0
EXTRACT: note_on channel=9 note=39 velocity=126 time=0
EXTRACT: note_on channel=9 note=39 velocity=0 time=0
EXTRACT: note_on channel=4 note=70 velocity=78 time=0.0014534875
EXTRACT: pitchwheel channel=5 pitch=-6784 time=0.0334302125
EXTRACT: pitchwheel channel=5 pitch=-5120 time=0.00581395
EXTRACT: pitchwheel channel=5 pitch=-3584 time=0.00581395
EXTRACT: pitchwheel channel=5 pitch=-1792 time=0.00581395
EXTRACT: pitchwheel channel=5 pitch=-384 time=0.0072674375
EXTRACT: pitchwheel channel=5 pitch=0 time=0.00581395
EXTRACT: note_on channel=6 note=74 velocity=0 time=0.066860425
EXTRACT: note_on channel=6 note=82 velocity=0 time=0.0043604625000000004
EXTRACT: note_on channel=8 note=86 velocity=0 time=0.15697665
EXTRACT: note_on channel=10 note=74 velocity=0 time=0
EXTRACT: note_on channel=8 note=87 velocity=85 time=0.014534875
EXTRACT: note_on channel=10 note=75 velocity=95 time=0
EXTRACT: note_on channel=6 note=77 velocity=73 time=0.037790675
EXTRACT: note_on channel=6 note=70 velocity=73 time=0.002906975
EXTRACT: note_on channel=1 note=34 velocity=99 time=0.1744185
EXTRACT: note_on channel=9 note=36 velocity=75 time=0
EXTRACT: note_on channel=9 note=36 velocity=0 time=0
EXTRACT: note_on channel=3 note=74 velocity=0 time=0.00581395
EXTRACT: note_on channel=3 note=75 velocity=70 time=0.0116279
EXTRACT: note_on channel=1 note=34 velocity=0 time=0.037790675
EXTRACT: note_on channel=6 note=77 velocity=0 time=0.078488325
EXTRACT: note_on channel=6 note=70 velocity=0 time=0.002906975
EXTRACT: note_on channel=8 note=89 velocity=85 time=0
EXTRACT: note_on channel=10 note=77 velocity=95 time=0
EXTRACT: note_on channel=8 note=87 velocity=0 time=0.0043604625000000004
EXTRACT: note_on channel=10 note=75 velocity=0 time=0
EXTRACT: note_on channel=5 note=70 velocity=0 time=0.0305232375
EXTRACT: note_on channel=5 note=74 velocity=0 time=0
EXTRACT: note_on channel=1 note=34 velocity=127 time=0.002906975
EXTRACT: note_on channel=5 note=69 velocity=78 time=0
EXTRACT: note_on channel=5 note=72 velocity=78 time=0
EXTRACT: note_on channel=6 note=72 velocity=85 time=0
EXTRACT: note_on channel=9 note=36 velocity=119 time=0
EXTRACT: note_on channel=9 note=36 velocity=0 time=0
EXTRACT: note_on channel=3 note=72 velocity=72 time=0.0130813875
EXTRACT: control_change channel=6 control=64 value=0 time=0.0159883625
EXTRACT: note_on channel=3 note=75 velocity=0 time=0.0130813875
EXTRACT: control_change channel=6 control=64 value=127 time=0.0014534875
EXTRACT: note_on channel=4 note=70 velocity=0 time=0.188953375
EXTRACT: note_on channel=3 note=72 velocity=0 time=0.0232558
EXTRACT: note_on channel=6 note=69 velocity=80 time=0.0930232
EXTRACT: note_on channel=9 note=36 velocity=108 time=0
EXTRACT: note_on channel=9 note=36 velocity=0 time=0
EXTRACT: note_on channel=9 note=69 velocity=85 time=0
EXTRACT: note_on channel=9 note=69 velocity=0 time=0
EXTRACT: note_on channel=3 note=72 velocity=72 time=0.0188953375
EXTRACT: note_on channel=6 note=72 velocity=0 time=0.008720925000000001
EXTRACT: note_on channel=6 note=69 velocity=0 time=0.1046511
EXTRACT: note_on channel=9 note=69 velocity=81 time=0.0421511375
EXTRACT: note_on channel=9 note=69 velocity=0 time=0
EXTRACT: note_on channel=10 note=77 velocity=0 time=0.0828487875
EXTRACT: note_on channel=8 note=89 velocity=0 time=0
EXTRACT: note_on channel=8 note=84 velocity=85 time=0.0043604625000000004
EXTRACT: note_on channel=10 note=72 velocity=95 time=0
EXTRACT: note_on channel=3 note=72 velocity=0 time=0.017441850000000002
EXTRACT: note_on channel=8 note=86 velocity=85 time=0.06395345
EXTRACT: note_on channel=10 note=74 velocity=95 time=0
EXTRACT: note_on channel=6 note=84 velocity=85 time=0.0043604625000000004
EXTRACT: note_on channel=6 note=77 velocity=73 time=0.0014534875
EXTRACT: note_on channel=9 note=39 velocity=123 time=0
EXTRACT: note_on channel=9 note=39 velocity=0 time=0
EXTRACT: note_on channel=3 note=72 velocity=72 time=0.0130813875
EXTRACT: note_on channel=8 note=84 velocity=0 time=0.017441850000000002
EXTRACT: note_on channel=10 note=72 velocity=0 time=0
EXTRACT: note_on channel=1 note=34 velocity=0 time=0.078488325
EXTRACT: note_on channel=8 note=82 velocity=85 time=0.043604625
EXTRACT: note_on channel=10 note=70 velocity=95 time=0
EXTRACT: note_on channel=8 note=86 velocity=0 time=0.008720925000000001
EXTRACT: note_on channel=10 note=74 velocity=0 time=0
EXTRACT: note_on channel=6 note=84 velocity=0 time=0.0334302125
EXTRACT: note_on channel=6 note=77 velocity=0 time=0.0043604625000000004
EXTRACT: note_on channel=6 note=81 velocity=82 time=0.1497092125
EXTRACT: note_on channel=3 note=72 velocity=0 time=0.113372025
EXTRACT: note_on channel=6 note=81 velocity=0 time=0.043604625
EXTRACT: note_on channel=3 note=74 velocity=72 time=0.017441850000000002
EXTRACT: note_on channel=3 note=74 velocity=0 time=0.1322673625
EXTRACT: control_change channel=6 control=64 value=0 time=0.0130813875
EXTRACT: note_on channel=6 note=53 velocity=81 time=0.0218023125
EXTRACT: note_on channel=5 note=72 velocity=0 time=0.0043604625000000004
EXTRACT: note_on channel=5 note=69 velocity=0 time=0
EXTRACT: note_on channel=1 note=29 velocity=127 time=0.002906975
EXTRACT: note_on channel=3 note=77 velocity=70 time=0
EXTRACT: note_on channel=5 note=67 velocity=78 time=0
EXTRACT: note_on channel=5 note=70 velocity=78 time=0
EXTRACT: note_on channel=7 note=49 velocity=62 time=0
EXTRACT: note_on channel=9 note=36 velocity=116 time=0
EXTRACT: note_on channel=9 note=36 velocity=0 time=0
EXTRACT: note_on channel=6 note=67 velocity=87 time=0.00581395
EXTRACT: note_on channel=6 note=70 velocity=82 time=0.0014534875
EXTRACT: note_on channel=6 note=63 velocity=73 time=0
EXTRACT: control_change channel=6 control=64 value=127 time=0.014534875
EXTRACT: note_on channel=3 note=77 velocity=0 time=0.0857557625
EXTRACT: note_on channel=3 note=77 velocity=72 time=0.0654069375
EXTRACT: note_on channel=3 note=77 velocity=0 time=0.1090115625
EXTRACT: note_on channel=6 note=53 velocity=0 time=0.0130813875
EXTRACT: note_on channel=3 note=74 velocity=72 time=0.0537790375
EXTRACT: note_on channel=9 note=69 velocity=88 time=0
EXTRACT: note_on channel=9 note=69 velocity=0 time=0
EXTRACT: note_on channel=6 note=67 velocity=0 time=0.0043604625000000004
EXTRACT: note_on channel=6 note=63 velocity=0 time=0.0014534875
EXTRACT: note_on channel=6 note=70 velocity=0 time=0
EXTRACT: note_on channel=8 note=82 velocity=0 time=0.0116279
EXTRACT: note_on channel=10 note=70 velocity=0 time=0
EXTRACT: note_on channel=3 note=74 velocity=0 time=0.0915697125
EXTRACT: note_on channel=9 note=69 velocity=82 time=0.0654069375
EXTRACT: note_on channel=9 note=69 velocity=0 time=0
EXTRACT: note_on channel=3 note=74 velocity=69 time=0.0014534875
EXTRACT: note_on channel=1 note=29 velocity=0 time=0.049418575
EXTRACT: note_on channel=3 note=74 velocity=0 time=0.0712208875
EXTRACT: control_change channel=6 control=64 value=0 time=0.0116279
EXTRACT: note_on channel=6 note=53 velocity=77 time=0.031976725
EXTRACT: note_on channel=6 note=69 velocity=80 time=0.0014534875
EXTRACT: note_on channel=6 note=72 velocity=77 time=0.0014534875
EXTRACT: note_on channel=6 note=65 velocity=66 time=0.0014534875
EXTRACT: note_on channel=5 note=67 velocity=0 time=0.0014534875
EXTRACT: note_on channel=5 note=70 velocity=0 time=0
EXTRACT: note_on channel=1 note=29 velocity=126 time=0.002906975
EXTRACT: note_on channel=3 note=77 velocity=72 time=0
EXTRACT: note_on channel=5 note=69 velocity=78 time=0
EXTRACT: note_on channel=5 note=72 velocity=78 time=0
EXTRACT: note_on channel=7 note=55 velocity=62 time=0
EXTRACT: note_on channel=9 note=36 velocity=119 time=0
EXTRACT: note_on channel=9 note=36 velocity=0 time=0
EXTRACT: control_change channel=6 control=64 value=127 time=0.14534875
EXTRACT: note_on channel=3 note=77 velocity=0 time=0.0712208875
EXTRACT: note_on channel=6 note=65 velocity=0 time=0.0886627375
EXTRACT: note_on channel=6 note=69 velocity=0 time=0.0276162625
EXTRACT: note_on channel=6 note=72 velocity=0 time=0.002906975
EXTRACT: note_on channel=3 note=79 velocity=72 time=0.0116279
EXTRACT: note_on channel=6 note=53 velocity=0 time=0.0043604625000000004
EXTRACT: note_on channel=7 note=49 velocity=0 time=0.02906975
EXTRACT: note_on channel=1 note=29 velocity=0 time=0.1874998875
EXTRACT: note_on channel=3 note=79 velocity=0 time=0.0624999625
EXTRACT: control_change channel=6 control=64 value=0 time=0.049418575
EXTRACT: note_on channel=6 note=70 velocity=76 time=0.0101744125
EXTRACT: note_on channel=6 note=67 velocity=83 time=0.0014534875
EXTRACT: note_on channel=6 note=53 velocity=80 time=0.0014534875
EXTRACT: note_on channel=5 note=72 velocity=0 time=0.0014534875
EXTRACT: note_on channel=5 note=69 velocity=0 time=0
EXTRACT: note_on channel=6 note=74 velocity=84 time=0
EXTRACT: note_on channel=3 note=81 velocity=72 time=0.0014534875
EXTRACT: note_on channel=1 note=29 velocity=127 time=0.0014534875
EXTRACT: note_on channel=5 note=70 velocity=78 time=0
EXTRACT: note_on channel=5 note=74 velocity=78 time=0
EXTRACT: note_on channel=7 note=60 velocity=62 time=0
EXTRACT: note_on channel=9 note=36 velocity=108 time=0
EXTRACT: note_on channel=9 note=36 velocity=0 time=0
EXTRACT: control_change channel=6 control=64 value=127 time=0.1627906
EXTRACT: note_on channel=6 note=74 velocity=0 time=0.08720925
EXTRACT: note_on channel=6 note=67 velocity=0 time=0.0072674375
EXTRACT: note_on channel=6 note=70 velocity=0 time=0.00581395
EXTRACT: note_on channel=6 note=53 velocity=0 time=0.014534875
EXTRACT: note_on channel=3 note=81 velocity=0 time=0.05232555
EXTRACT: note_on channel=3 note=79 velocity=70 time=0.0188953375
EXTRACT: note_on channel=9 note=69 velocity=85 time=0
EXTRACT: note_on channel=9 note=69 velocity=0 time=0
EXTRACT: note_on channel=7 note=55 velocity=0 time=0.031976725
EXTRACT: note_on channel=9 note=69 velocity=81 time=0.142441775
EXTRACT: note_on channel=9 note=69 velocity=0 time=0
EXTRACT: note_on channel=1 note=29 velocity=0 time=0.049418575
EXTRACT: note_on channel=3 note=79 velocity=0 time=0.055232525
EXTRACT: control_change channel=6 control=64 value=0 time=0.037790675
EXTRACT: note_on channel=5 note=74 velocity=0 time=0.02906975
EXTRACT: note_on channel=5 note=70 velocity=0 time=0
EXTRACT: note_on channel=6 note=53 velocity=76 time=0
EXTRACT: note_on channel=1 note=29 velocity=127 time=0.002906975
EXTRACT: note_on channel=3 note=77 velocity=70 time=0
EXTRACT: note_on channel=5 note=72 velocity=78 time=0
EXTRACT: note_on channel=5 note=75 velocity=76 time=0
EXTRACT: note_on channel=6 note=70 velocity=86 time=0
EXTRACT: note_on channel=6 note=67 velocity=75 time=0
EXTRACT: note_on channel=6 note=75 velocity=84 time=0
EXTRACT: note_on channel=7 note=67 velocity=62 time=0
EXTRACT: note_on channel=9 note=36 velocity=119 time=0
EXTRACT: note_on channel=9 note=36 velocity=0 time=0
EXTRACT: control_change channel=6 control=64 value=127 time=0.101744125
EXTRACT: note_on channel=5 note=75 velocity=0 time=0.06976740000000001
EXTRACT: note_on channel=5 note=74 velocity=71 time=0.002906975
EXTRACT: note_on channel=6 note=67 velocity=0 time=0.05232555
EXTRACT: note_on channel=6 note=70 velocity=0 time=0.002906975
EXTRACT: note_on channel=6 note=75 velocity=0 time=0.0072674375
EXTRACT: note_on channel=6 note=53 velocity=0 time=0
EXTRACT: note_on channel=5 note=74 velocity=0 time=0.1090115625
EXTRACT: note_on channel=5 note=75 velocity=76 time=0.002906975
EXTRACT: note_on channel=7 note=60 velocity=0 time=0.031976725
EXTRACT: note_on channel=3 note=77 velocity=0 time=0.0421511375
EXTRACT: note_on channel=5 note=75 velocity=0 time=0.0973836625
EXTRACT: note_on channel=5 note=77 velocity=75 time=0.0043604625000000004
EXTRACT: note_on channel=1 note=29 velocity=0 time=0.061046475
EXTRACT: control_change channel=6 control=64 value=0 time=0.020348825
EXTRACT: note_on channel=5 note=72 velocity=0 time=0.0886627375
EXTRACT: note_on channel=5 note=77 velocity=0 time=0.002906975
EXTRACT: note_on channel=1 note=34 velocity=127 time=0
EXTRACT: note_on channel=7 note=72 velocity=51 time=0
EXTRACT: note_on channel=9 note=36 velocity=116 time=0
EXTRACT: note_on channel=9 note=36 velocity=0 time=0
EXTRACT: control_change channel=6 control=64 value=127 time=0.0813953
EXTRACT: pitchwheel channel=5 pitch=-6656 time=0.0218023125
EXTRACT: pitchwheel channel=5 pitch=-7296 time=0.00581395
EXTRACT: pitchwheel channel=5 pitch=-8064 time=0.00581395
EXTRACT: note_on channel=6 note=86 velocity=82 time=0.232558
EXTRACT: note_on channel=6 note=77 velocity=68 time=0
EXTRACT: note_on channel=3 note=77 velocity=72 time=0.0014534875
EXTRACT: note_on channel=9 note=69 velocity=88 time=0
EXTRACT: note_on channel=9 note=69 velocity=0 time=0
EXTRACT: note_on channel=7 note=67 velocity=0 time=0.031976725
EXTRACT: note_on channel=6 note=86 velocity=0 time=0.1177324875
EXTRACT: note_on channel=6 note=77 velocity=0 time=0.0014534875
EXTRACT: note_on channel=3 note=77 velocity=0 time=0.0130813875
EXTRACT: note_on channel=9 note=69 velocity=82 time=0.0101744125
EXTRACT: note_on channel=9 note=69 velocity=0 time=0
EXTRACT: note_on channel=1 note=34 velocity=0 time=0.13953480000000001
EXTRACT: note_on channel=6 note=82 velocity=71 time=0.0334302125
EXTRACT: note_on channel=6 note=89 velocity=75 time=0
EXTRACT: note_on channel=5 note=70 velocity=78 time=0.0014534875
EXTRACT: note_on channel=5 note=74 velocity=78 time=0
EXTRACT: note_on channel=7 note=79 velocity=42 time=0
EXTRACT: note_on channel=9 note=39 velocity=126 time=0
EXTRACT: note_on channel=9 note=39 velocity=0 time=0
EXTRACT: pitchwheel channel=5 pitch=-6784 time=0.034883700000000004
EXTRACT: pitchwheel channel=5 pitch=-5120 time=0.00581395
EXTRACT: pitchwheel channel=5 pitch=-3584 time=0.00581395
EXTRACT: pitchwheel channel=5 pitch=-1792 time=0.00581395
EXTRACT: pitchwheel channel=5 pitch=-384 time=0.0072674375
EXTRACT: pitchwheel channel=5 pitch=0 time=0.00581395
EXTRACT: note_on channel=6 note=89 velocity=0 time=0.06976740000000001
EXTRACT: note_on channel=3 note=70 velocity=72 time=0.037790675
EXTRACT: note_on channel=6 note=82 velocity=0 time=0.0072674375
EXTRACT: note_on channel=6 note=86 velocity=78 time=0.16860455
EXTRACT: note_on channel=7 note=72 velocity=0 time=0.031976725
EXTRACT: note_on channel=3 note=70 velocity=0 time=0.0043604625000000004
EXTRACT: note_on channel=6 note=86 velocity=0 time=0.1002906375
EXTRACT: note_on channel=3 note=70 velocity=72 time=0.0363371875
EXTRACT: note_on channel=1 note=34 velocity=103 time=0.0014534875
EXTRACT: note_on channel=9 note=36 velocity=75 time=0
EXTRACT: note_on channel=9 note=36 velocity=0 time=0
EXTRACT: note_on channel=1 note=34 velocity=0 time=0.0624999625
EXTRACT: note_on channel=3 note=70 velocity=0 time=0.0247092875
EXTRACT: note_on channel=5 note=70 velocity=0 time=0.084302275
EXTRACT: note_on channel=5 note=74 velocity=0 time=0
EXTRACT: note_on channel=3 note=70 velocity=72 time=0.0014534875
EXTRACT: note_on channel=6 note=77 velocity=71 time=0
EXTRACT: note_on channel=6 note=84 velocity=81 time=0
EXTRACT: note_on channel=1 note=34 velocity=127 time=0.0014534875
EXTRACT: note_on channel=5 note=69 velocity=78 time=0
EXTRACT: note_on channel=5 note=72 velocity=78 time=0
EXTRACT: note_on channel=7 note=84 velocity=37 time=0
EXTRACT: note_on channel=9 note=36 velocity=119 time=0
EXTRACT: note_on channel=9 note=36 velocity=0 time=0
EXTRACT: control_change channel=6 control=64 value=127 time=0.0276162625
EXTRACT: control_change channel=6 control=64 value=0 time=0.0363371875
EXTRACT: control_change channel=6 control=64 value=127 time=0.0813953
EXTRACT: note_on channel=3 note=70 velocity=0 time=0.0654069375
EXTRACT: note_on channel=6 note=84 velocity=0 time=0.1061045875
EXTRACT: note_on channel=6 note=77 velocity=0 time=0.008720925000000001
EXTRACT: note_on channel=3 note=70 velocity=72 time=0.0218023125
EXTRACT: note_on channel=6 note=81 velocity=78 time=0.0014534875
EXTRACT: note_on channel=9 note=36 velocity=108 time=0
EXTRACT: note_on channel=9 note=36 velocity=0 time=0
EXTRACT: note_on channel=9 note=69 velocity=85 time=0
EXTRACT: note_on channel=9 note=69 velocity=0 time=0
EXTRACT: note_on channel=7 note=79 velocity=0 time=0.031976725
EXTRACT: note_on channel=3 note=70 velocity=0 time=0.072674375
EXTRACT: note_on channel=6 note=81 velocity=0 time=0.04069765
EXTRACT: note_on channel=3 note=70 velocity=70 time=0.0276162625
EXTRACT: note_on channel=9 note=69 velocity=81 time=0.0014534875
EXTRACT: note_on channel=9 note=69 velocity=0 time=0
EXTRACT: note_on channel=3 note=70 velocity=0 time=0.0944766875
EXTRACT: note_on channel=3 note=70 velocity=72 time=0.078488325
EXTRACT: note_on channel=6 note=89 velocity=70 time=0.0014534875
EXTRACT: note_on channel=9 note=39 velocity=123 time=0
EXTRACT: note_on channel=9 note=39 velocity=0 time=0
EXTRACT: note_on channel=1 note=34 velocity=0 time=0.0043604625000000004
EXTRACT: note_on channel=3 note=72 velocity=72 time=0.16860455
EXTRACT: note_on channel=3 note=70 velocity=0 time=0.008720925000000001
EXTRACT: note_on channel=6 note=89 velocity=0 time=0.0334302125
EXTRACT: note_on channel=3 note=72 velocity=0 time=0.1264534125
EXTRACT: note_on channel=6 note=84 velocity=72 time=0.0072674375
EXTRACT: note_on channel=3 note=74 velocity=72 time=0.0014534875
EXTRACT: note_on channel=7 note=84 velocity=0 time=0.0305232375
EXTRACT: note_on channel=6 note=84 velocity=0 time=0.0944766875
EXTRACT: note_on channel=3 note=74 velocity=0 time=0.0741278625
EXTRACT: control_change channel=6 control=64 value=0 time=0.130813875
EXTRACT: note_on channel=5 note=72 velocity=0 time=0.014534875
EXTRACT: note_on channel=5 note=69 velocity=0 time=0
EXTRACT: note_on channel=1 note=34 velocity=121 time=0.002906975
EXTRACT: note_on channel=5 note=67 velocity=78 time=0
EXTRACT: note_on channel=5 note=70 velocity=78 time=0
EXTRACT: note_on channel=9 note=36 velocity=116 time=0
EXTRACT: note_on channel=9 note=36 velocity=0 time=0
EXTRACT: control_change channel=6 control=64 value=0 time=0.0188953375
EXTRACT: note_on channel=3 note=70 velocity=73 time=0.15697665
EXTRACT: note_on channel=3 note=70 velocity=0 time=0.124999925
EXTRACT: note_on channel=3 note=77 velocity=70 time=0.0450581125
EXTRACT: note_on channel=6 note=82 velocity=75 time=0
EXTRACT: note_on channel=9 note=69 velocity=88 time=0.002906975
EXTRACT: note_on channel=9 note=69 velocity=0 time=0
EXTRACT: note_on channel=3 note=77 velocity=0 time=0.0915697125
EXTRACT: note_on channel=3 note=77 velocity=70 time=0.0799418125
EXTRACT: note_on channel=9 note=69 velocity=82 time=0.002906975
EXTRACT: note_on channel=9 note=69 velocity=0 time=0
EXTRACT: note_on channel=3 note=77 velocity=0 time=0.09883715
EXTRACT: note_on channel=1 note=34 velocity=0 time=0.061046475
EXTRACT: note_on channel=6 note=87 velocity=81 time=0.0130813875
EXTRACT: note_on channel=6 note=79 velocity=73 time=0
EXTRACT: note_on channel=9 note=39 velocity=126 time=0.0014534875
EXTRACT: note_on channel=9 note=39 velocity=0 time=0
EXTRACT: note_on channel=3 note=77 velocity=70 time=0.002906975
EXTRACT: control_change channel=6 control=64 value=127 time=0.0159883625
EXTRACT: note_on channel=6 note=82 velocity=0 time=0.0276162625
EXTRACT: note_on channel=3 note=70 velocity=72 time=0.13372085
EXTRACT: note_on channel=3 note=77 velocity=0 time=0.026162775
EXTRACT: note_on channel=6 note=87 velocity=0 time=0.1206394625
EXTRACT: note_on channel=6 note=82 velocity=73 time=0.0218023125
EXTRACT: note_on channel=6 note=79 velocity=0 time=0.002906975
EXTRACT: note_on channel=3 note=70 velocity=0 time=0.0712208875
EXTRACT: note_on channel=1 note=34 velocity=105 time=0.1002906375
EXTRACT: note_on channel=9 note=36 velocity=75 time=0
EXTRACT: note_on channel=9 note=36 velocity=0 time=0
EXTRACT: note_on channel=3 note=70 velocity=72 time=0.00581395
EXTRACT: note_on channel=1 note=34 velocity=0 time=0.0479650875
EXTRACT: control_change channel=6 control=64 value=0 time=0.049418575
EXTRACT: note_on channel=3 note=70 velocity=0 time=0.0116279
EXTRACT: note_on channel=6 note=82 velocity=0 time=0.017441850000000002
EXTRACT: note_on channel=5 note=67 velocity=0 time=0.0392441625
EXTRACT: note_on channel=1 note=34 velocity=121 time=0.002906975
EXTRACT: note_on channel=5 note=66 velocity=78 time=0
EXTRACT: note_on channel=9 note=36 velocity=119 time=0
EXTRACT: note_on channel=9 note=36 velocity=0 time=0
EXTRACT: note_on channel=3 note=70 velocity=72 time=0.020348825
EXTRACT: note_on channel=3 note=70 velocity=0 time=0.1671510625
EXTRACT: note_on channel=3 note=70 velocity=70 time=0.0537790375
EXTRACT: note_on channel=6 note=78 velocity=70 time=0.107558075
EXTRACT: note_on channel=9 note=36 velocity=108 time=0
EXTRACT: note_on channel=9 note=36 velocity=0 time=0
EXTRACT: note_on channel=9 note=69 velocity=85 time=0
EXTRACT: note_on channel=9 note=69 velocity=0 time=0
EXTRACT: note_on channel=3 note=72 velocity=72 time=0.1235464375
EXTRACT: note_on channel=3 note=70 velocity=0 time=0.0188953375
EXTRACT: note_on channel=9 note=69 velocity=81 time=0.031976725
EXTRACT: note_on channel=9 note=69 velocity=0 time=0
EXTRACT: note_on channel=3 note=72 velocity=0 time=0.1380813125
EXTRACT: note_on channel=6 note=87 velocity=83 time=0.034883700000000004
EXTRACT: note_on channel=4 note=82 velocity=78 time=0.0014534875
EXTRACT: note_on channel=6 note=82 velocity=71 time=0
EXTRACT: note_on channel=9 note=39 velocity=123 time=0
EXTRACT: note_on channel=9 note=39 velocity=0 time=0
EXTRACT: note_on channel=1 note=34 velocity=0 time=0.0043604625000000004
EXTRACT: note_on channel=3 note=75 velocity=70 time=0
EXTRACT: note_on channel=6 note=78 velocity=0 time=0.0232558
EXTRACT: note_on channel=4 note=82 velocity=0 time=0.20348825
EXTRACT: note_on channel=4 note=81 velocity=78 time=0.0014534875
EXTRACT: control_change channel=6 control=64 value=127 time=0.0043604625000000004
EXTRACT: note_on channel=3 note=74 velocity=72 time=0.0247092875
EXTRACT: note_on channel=3 note=75 velocity=0 time=0.031976725
EXTRACT: note_on channel=6 note=82 velocity=0 time=0.05232555
EXTRACT: note_on channel=6 note=78 velocity=78 time=0.002906975
EXTRACT: note_on channel=3 note=74 velocity=0 time=0.0915697125
EXTRACT: note_on channel=6 note=87 velocity=0 time=0.0116279
EXTRACT: note_on channel=4 note=81 velocity=0 time=0.0116279
EXTRACT: note_on channel=4 note=79 velocity=78 time=0.0014534875
EXTRACT: note_on channel=3 note=72 velocity=71 time=0.014534875
EXTRACT: note_on channel=9 note=84 velocity=76 time=0.043604625
EXTRACT: note_on channel=9 note=84 velocity=0 time=0
EXTRACT: note_on channel=6 note=78 velocity=0 time=0.0305232375
EXTRACT: note_on channel=5 note=66 velocity=0 time=0.1409882875
EXTRACT: note_on channel=5 note=70 velocity=0 time=0
EXTRACT: note_on channel=4 note=79 velocity=0 time=0.0014534875
EXTRACT: note_on channel=1 note=34 velocity=127 time=0.0014534875
EXTRACT: note_on channel=9 note=36 velocity=116 time=0
EXTRACT: note_on channel=9 note=36 velocity=0 time=0
EXTRACT: note_on channel=4 note=77 velocity=78 time=0.0014534875
EXTRACT: note_on channel=3 note=72 velocity=0 time=0.034883700000000004
EXTRACT: control_change channel=6 control=64 value=0 time=0.00581395
EXTRACT: pitchwheel channel=5 pitch=-6656 time=0.061046475
EXTRACT: pitchwheel channel=5 pitch=-7296 time=0.00581395
EXTRACT: pitchwheel channel=5 pitch=-8064 time=0.00581395
EXTRACT: note_on channel=4 note=77 velocity=0 time=0.1177324875
EXTRACT: note_on channel=4 note=74 velocity=78 time=0.0014534875
EXTRACT: control_change channel=6 control=64 value=127 time=0.1046511
EXTRACT: note_on channel=6 note=86 velocity=83 time=0.0072674375
EXTRACT: note_on channel=6 note=77 velocity=60 time=0.0014534875
EXTRACT: note_on channel=9 note=69 velocity=88 time=0.0014534875
EXTRACT: note_on channel=9 note=69 velocity=0 time=0
EXTRACT: note_on channel=4 note=74 velocity=0 time=0.1148255125
EXTRACT: note_on channel=4 note=72 velocity=78 time=0.002906975
EXTRACT: note_on channel=3 note=72 velocity=73 time=0.049418575
EXTRACT: note_on channel=9 note=69 velocity=82 time=0.0072674375
EXTRACT: note_on channel=9 note=69 velocity=0 time=0
EXTRACT: note_on channel=6 note=77 velocity=0 time=0.020348825
EXTRACT: note_on channel=6 note=86 velocity=0 time=0.008720925000000001
EXTRACT: note_on channel=3 note=72 velocity=0 time=0.116279
EXTRACT: note_on channel=1 note=34 velocity=0 time=0.00581395
EXTRACT: note_on channel=6 note=82 velocity=80 time=0.020348825
EXTRACT: note_on channel=4 note=72 velocity=0 time=0.002906975
EXTRACT: note_on channel=5 note=70 velocity=78 time=0
EXTRACT: note_on channel=5 note=74 velocity=78 time=0
EXTRACT: note_on channel=6 note=74 velocity=67 time=0
EXTRACT: note_on channel=9 note=39 velocity=126 time=0
EXTRACT: note_on channel=9 note=39 velocity=0 time=0
EXTRACT: note_on channel=3 note=70 velocity=72 time=0.0014534875
EXTRACT: note_on channel=4 note=70 velocity=78 time=0
EXTRACT: pitchwheel channel=5 pitch=-6784 time=0.0334302125
EXTRACT: pitchwheel channel=5 pitch=-5120 time=0.00581395
EXTRACT: pitchwheel channel=5 pitch=-3584 time=0.00581395
EXTRACT: pitchwheel channel=5 pitch=-1792 time=0.00581395
EXTRACT: pitchwheel channel=5 pitch=-384 time=0.0072674375
EXTRACT: pitchwheel channel=5 pitch=0 time=0.00581395
EXTRACT: note_on channel=6 note=74 velocity=0 time=0.066860425
EXTRACT: note_on channel=6 note=82 velocity=0 time=0.0043604625000000004
EXTRACT: note_on channel=3 note=70 velocity=0 time=0.0770348375
EXTRACT: note_on channel=3 note=70 velocity=72 time=0.107558075
EXTRACT: note_on channel=6 note=77 velocity=73 time=0.0247092875
EXTRACT: note_on channel=6 note=70 velocity=73 time=0.002906975
EXTRACT: note_on channel=3 note=70 velocity=0 time=0.1511627
EXTRACT: note_on channel=3 note=72 velocity=72 time=0.0130813875
EXTRACT: note_on channel=1 note=34 velocity=99 time=0.0101744125
EXTRACT: note_on channel=9 note=36 velocity=75 time=0
EXTRACT: note_on channel=9 note=36 velocity=0 time=0
EXTRACT: note_on channel=1 note=34 velocity=0 time=0.055232525
EXTRACT: note_on channel=6 note=77 velocity=0 time=0.078488325
EXTRACT: note_on channel=6 note=70 velocity=0 time=0.002906975
EXTRACT: note_on channel=5 note=70 velocity=0 time=0.034883700000000004
EXTRACT: note_on channel=5 note=74 velocity=0 time=0
EXTRACT: note_on channel=1 note=34 velocity=127 time=0.002906975
EXTRACT: note_on channel=5 note=69 velocity=78 time=0
EXTRACT: note_on channel=5 note=72 velocity=78 time=0
EXTRACT: note_on channel=6 note=72 velocity=85 time=0
EXTRACT: note_on channel=9 note=36 velocity=119 time=0
EXTRACT: note_on channel=9 note=36 velocity=0 time=0
EXTRACT: note_on channel=3 note=72 velocity=0 time=0.00581395
EXTRACT: note_on channel=3 note=77 velocity=72 time=0.00581395
EXTRACT: control_change channel=6 control=64 value=0 time=0.017441850000000002
EXTRACT: control_change channel=6 control=64 value=127 time=0.014534875
EXTRACT: note_on channel=3 note=77 velocity=0 time=0.18023245
EXTRACT: note_on channel=4 note=70 velocity=0 time=0.008720925000000001
EXTRACT: note_on channel=6 note=69 velocity=80 time=0.116279
EXTRACT: note_on channel=9 note=36 velocity=108 time=0
EXTRACT: note_on channel=9 note=36 velocity=0 time=0
EXTRACT: note_on channel=9 note=69 velocity=85 time=0
EXTRACT: note_on channel=9 note=69 velocity=0 time=0
EXTRACT: note_on channel=3 note=72 velocity=72 time=0.0116279
EXTRACT: note_on channel=6 note=72 velocity=0 time=0.0159883625
EXTRACT: note_on channel=6 note=69 velocity=0 time=0.1046511
EXTRACT: note_on channel=3 note=72 velocity=0 time=0.0232558
EXTRACT: note_on channel=9 note=69 velocity=81 time=0.0188953375
EXTRACT: note_on channel=9 note=69 velocity=0 time=0
EXTRACT: note_on channel=3 note=70 velocity=72 time=0.0130813875
EXTRACT: note_on channel=6 note=84 velocity=85 time=0.159883625
EXTRACT: note_on channel=6 note=77 velocity=73 time=0.0014534875
EXTRACT: note_on channel=9 note=39 velocity=123 time=0
EXTRACT: note_on channel=9 note=39 velocity=0 time=0
EXTRACT: note_on channel=3 note=70 velocity=0 time=0.090116225
EXTRACT: note_on channel=1 note=34 velocity=0 time=0.0188953375
EXTRACT: note_on channel=3 note=72 velocity=72 time=0.0624999625
EXTRACT: note_on channel=6 note=84 velocity=0 time=0.0232558
EXTRACT: note_on channel=6 note=77 velocity=0 time=0.0043604625000000004
EXTRACT: note_on channel=6 note=81 velocity=82 time=0.1497092125
EXTRACT: note_on channel=3 note=72 velocity=0 time=0.0537790375
EXTRACT: note_on channel=6 note=81 velocity=0 time=0.1031976125
EXTRACT: note_on channel=3 note=70 velocity=72 time=0.0276162625
EXTRACT: control_change channel=6 control=64 value=0 time=0.1351743375
EXTRACT: note_on channel=3 note=70 velocity=0 time=0.00581395
EXTRACT: note_on channel=6 note=53 velocity=81 time=0.0159883625
EXTRACT: note_on channel=5 note=72 velocity=0 time=0.0043604625000000004
EXTRACT: note_on channel=5 note=69 velocity=0 time=0
EXTRACT: note_on channel=1 note=29 velocity=127 time=0.002906975
EXTRACT: note_on channel=5 note=67 velocity=78 time=0
EXTRACT: note_on channel=5 note=70 velocity=78 time=0
EXTRACT: note_on channel=7 note=49 velocity=62 time=0
EXTRACT: note_on channel=9 note=36 velocity=116 time=0
EXTRACT: note_on channel=9 note=36 velocity=0 time=0
EXTRACT: note_on channel=3 note=75 velocity=72 time=0.0014534875
EXTRACT: note_on channel=6 note=67 velocity=87 time=0.0043604625000000004
EXTRACT: note_on channel=6 note=70 velocity=82 time=0.0014534875
EXTRACT: note_on channel=6 note=63 velocity=73 time=0
EXTRACT: control_change channel=6 control=64 value=127 time=0.014534875
EXTRACT: note_on channel=6 note=53 velocity=0 time=0.27325565
EXTRACT: note_on channel=3 note=75 velocity=0 time=0.0130813875
EXTRACT: note_on channel=3 note=74 velocity=72 time=0.04069765
EXTRACT: note_on channel=9 note=69 velocity=88 time=0
EXTRACT: note_on channel=9 note=69 velocity=0 time=0
EXTRACT: note_on channel=6 note=67 velocity=0 time=0.0043604625000000004
EXTRACT: note_on channel=6 note=70 velocity=0 time=0.0014534875
EXTRACT: note_on channel=6 note=63 velocity=0 time=0
EXTRACT: note_on channel=3 note=74 velocity=0 time=0.15697665
EXTRACT: note_on channel=3 note=72 velocity=70 time=0.0116279
EXTRACT: note_on channel=9 note=69 velocity=82 time=0
EXTRACT: note_on channel=9 note=69 velocity=0 time=0
EXTRACT: note_on channel=1 note=29 velocity=0 time=0.0508720625
EXTRACT: control_change channel=6 control=64 value=0 time=0.0828487875
EXTRACT: note_on channel=6 note=53 velocity=77 time=0.031976725
EXTRACT: note_on channel=6 note=69 velocity=80 time=0.0014534875
EXTRACT: note_on channel=6 note=72 velocity=77 time=0.0014534875
EXTRACT: note_on channel=6 note=65 velocity=66 time=0.0014534875
EXTRACT: note_on channel=5 note=67 velocity=0 time=0.0014534875
EXTRACT: note_on channel=5 note=70 velocity=0 time=0
EXTRACT: note_on channel=1 note=29 velocity=126 time=0.002906975
EXTRACT: note_on channel=5 note=69 velocity=78 time=0
EXTRACT: note_on channel=5 note=72 velocity=78 time=0
EXTRACT: note_on channel=7 note=55 velocity=62 time=0
EXTRACT: note_on channel=9 note=36 velocity=119 time=0
EXTRACT: note_on channel=9 note=36 velocity=0 time=0
EXTRACT: note_on channel=3 note=72 velocity=0 time=0.072674375
EXTRACT: control_change channel=6 control=64 value=127 time=0.072674375
EXTRACT: note_on channel=3 note=70 velocity=70 time=0.0276162625
EXTRACT: note_on channel=6 note=65 velocity=0 time=0.1322673625
EXTRACT: note_on channel=6 note=69 velocity=0 time=0.0276162625
EXTRACT: note_on channel=6 note=72 velocity=0 time=0.002906975
EXTRACT: note_on channel=6 note=53 velocity=0 time=0.0159883625
EXTRACT: note_on channel=7 note=49 velocity=0 time=0.02906975
EXTRACT: note_on channel=3 note=70 velocity=0 time=0.0683139125
EXTRACT: note_on channel=3 note=75 velocity=70 time=0.0712208875
EXTRACT: note_on channel=4 note=75 velocity=76 time=0
EXTRACT: note_on channel=4 note=79 velocity=76 time=0.002906975
EXTRACT: note_on channel=4 note=82 velocity=76 time=0
EXTRACT: note_on channel=1 note=29 velocity=0 time=0.0450581125
EXTRACT: control_change channel=6 control=64 value=0 time=0.1119185375
EXTRACT: note_on channel=6 note=70 velocity=76 time=0.0101744125
EXTRACT: note_on channel=6 note=67 velocity=83 time=0.0014534875
EXTRACT: note_on channel=6 note=53 velocity=80 time=0.0014534875
EXTRACT: note_on channel=5 note=69 velocity=0 time=0.0014534875
EXTRACT: note_on channel=5 note=72 velocity=0 time=0
EXTRACT: note_on channel=6 note=74 velocity=84 time=0
EXTRACT: note_on channel=1 note=29 velocity=127 time=0.002906975
EXTRACT: note_on channel=5 note=70 velocity=78 time=0
EXTRACT: note_on channel=5 note=74 velocity=78 time=0
EXTRACT: note_on channel=7 note=60 velocity=62 time=0
EXTRACT: note_on channel=9 note=36 velocity=108 time=0
EXTRACT: note_on channel=9 note=36 velocity=0 time=0
EXTRACT: note_on channel=3 note=75 velocity=0 time=0.13953480000000001
EXTRACT: note_on channel=4 note=75 velocity=0 time=0
EXTRACT: note_on channel=4 note=82 velocity=0 time=0.002906975
EXTRACT: note_on channel=4 note=79 velocity=0 time=0
EXTRACT: control_change channel=6 control=64 value=127 time=0.020348825
EXTRACT: note_on channel=3 note=74 velocity=72 time=0.0072674375
EXTRACT: note_on channel=4 note=74 velocity=76 time=0
EXTRACT: note_on channel=4 note=79 velocity=76 time=0.0043604625000000004
EXTRACT: note_on channel=4 note=82 velocity=76 time=0
EXTRACT: note_on channel=6 note=74 velocity=0 time=0.07558135
EXTRACT: note_on channel=6 note=67 velocity=0 time=0.0072674375
EXTRACT: note_on channel=6 note=70 velocity=0 time=0.00581395
EXTRACT: note_on channel=6 note=53 velocity=0 time=0.014534875
EXTRACT: note_on channel=9 note=69 velocity=85 time=0.0712208875
EXTRACT: note_on channel=9 note=69 velocity=0 time=0
EXTRACT: note_on channel=7 note=55 velocity=0 time=0.031976725
EXTRACT: note_on channel=3 note=74 velocity=0 time=0.1206394625
EXTRACT: note_on channel=4 note=74 velocity=0 time=0
EXTRACT: note_on channel=4 note=79 velocity=0 time=0.002906975
EXTRACT: note_on channel=4 note=82 velocity=0 time=0
EXTRACT: note_on channel=4 note=72 velocity=76 time=0.014534875
EXTRACT: note_on channel=3 note=72 velocity=72 time=0.0014534875
EXTRACT: note_on channel=4 note=77 velocity=76 time=0.002906975
EXTRACT: note_on channel=4 note=81 velocity=76 time=0
EXTRACT: note_on channel=9 note=69 velocity=81 time=0
EXTRACT: note_on channel=9 note=69 velocity=0 time=0
EXTRACT: note_on channel=1 note=29 velocity=0 time=0.049418575
EXTRACT: control_change channel=6 control=64 value=0 time=0.0930232
EXTRACT: note_on channel=5 note=74 velocity=0 time=0.02906975
EXTRACT: note_on channel=5 note=70 velocity=0 time=0
EXTRACT: note_on channel=6 note=53 velocity=76 time=0
EXTRACT: note_on channel=3 note=72 velocity=0 time=0.0014534875
EXTRACT: note_on channel=1 note=29 velocity=127 time=0.0014534875
EXTRACT: note_on channel=5 note=72 velocity=78 time=0
EXTRACT: note_on channel=5 note=75 velocity=76 time=0
EXTRACT: note_on channel=6 note=70 velocity=86 time=0
EXTRACT: note_on channel=6 note=67 velocity=75 time=0
EXTRACT: note_on channel=6 note=75 velocity=84 time=0
EXTRACT: note_on channel=7 note=67 velocity=62 time=0
EXTRACT: note_on channel=9 note=36 velocity=119 time=0
EXTRACT: note_on channel=9 note=36 velocity=0 time=0
EXTRACT: note_on channel=3 note=86 velocity=72 time=0.017441850000000002
EXTRACT: control_change channel=6 control=64 value=127 time=0.084302275
EXTRACT: note_on channel=4 note=72 velocity=0 time=0.0450581125
EXTRACT: note_on channel=4 note=81 velocity=0 time=0.002906975
EXTRACT: note_on channel=4 note=77 velocity=0 time=0
EXTRACT: note_on channel=4 note=70 velocity=76 time=0.020348825
EXTRACT: note_on channel=5 note=75 velocity=0 time=0.0014534875
EXTRACT: note_on channel=4 note=75 velocity=76 time=0.002906975
EXTRACT: note_on channel=4 note=79 velocity=76 time=0
EXTRACT: note_on channel=5 note=74 velocity=71 time=0
EXTRACT: note_on channel=6 note=67 velocity=0 time=0.05232555
EXTRACT: note_on channel=6 note=70 velocity=0 time=0.002906975
EXTRACT: note_on channel=6 note=53 velocity=0 time=0.0072674375
EXTRACT: note_on channel=6 note=75 velocity=0 time=0
EXTRACT: note_on channel=3 note=86 velocity=0 time=0.0915697125
EXTRACT: note_on channel=5 note=74 velocity=0 time=0.017441850000000002
EXTRACT: note_on channel=5 note=75 velocity=76 time=0.002906975
EXTRACT: note_on channel=3 note=84 velocity=72 time=0.008720925000000001
EXTRACT: note_on channel=7 note=60 velocity=0 time=0.0232558
EXTRACT: note_on channel=5 note=75 velocity=0 time=0.13953480000000001
EXTRACT: note_on channel=5 note=77 velocity=75 time=0.0043604625000000004
EXTRACT: note_on channel=1 note=29 velocity=0 time=0.061046475
EXTRACT: note_on channel=4 note=70 velocity=0 time=0.008720925000000001
EXTRACT: note_on channel=4 note=75 velocity=0 time=0.0043604625000000004
EXTRACT: note_on channel=4 note=79 velocity=0 time=0
EXTRACT: control_change channel=6 control=64 value=0 time=0.0072674375
EXTRACT: note_on channel=3 note=84 velocity=0 time=0.07558135
EXTRACT: note_on channel=5 note=72 velocity=0 time=0.0130813875
EXTRACT: note_on channel=5 note=77 velocity=0 time=0.002906975
EXTRACT: note_on channel=1 note=34 velocity=127 time=0
EXTRACT: note_on channel=7 note=72 velocity=51 time=0
EXTRACT: note_on channel=9 note=36 velocity=116 time=0
EXTRACT: note_on channel=9 note=36 velocity=0 time=0
EXTRACT: note_on channel=3 note=82 velocity=70 time=0.0072674375
EXTRACT: control_change channel=6 control=64 value=127 time=0.0741278625
EXTRACT: pitchwheel channel=5 pitch=-6656 time=0.0218023125
EXTRACT: pitchwheel channel=5 pitch=-7296 time=0.00581395
EXTRACT: pitchwheel channel=5 pitch=-8064 time=0.00581395
EXTRACT: note_on channel=3 note=77 velocity=70 time=0.1627906
EXTRACT: note_on channel=6 note=86 velocity=82 time=0.06976740000000001
EXTRACT: note_on channel=6 note=77 velocity=68 time=0
EXTRACT: note_on channel=9 note=69 velocity=88 time=0.0014534875
EXTRACT: note_on channel=9 note=69 velocity=0 time=0
EXTRACT: note_on channel=3 note=82 velocity=0 time=0.0014534875
EXTRACT: note_on channel=7 note=67 velocity=0 time=0.0305232375
EXTRACT: note_on channel=6 note=86 velocity=0 time=0.1177324875
EXTRACT: note_on channel=6 note=77 velocity=0 time=0.0014534875
EXTRACT: note_on channel=9 note=69 velocity=82 time=0.0232558
EXTRACT: note_on channel=9 note=69 velocity=0 time=0
EXTRACT: note_on channel=3 note=77 velocity=0 time=0.0566860125
EXTRACT: note_on channel=1 note=34 velocity=0 time=0.0828487875
EXTRACT: note_on channel=6 note=82 velocity=71 time=0.0334302125
EXTRACT: note_on channel=6 note=89 velocity=75 time=0
EXTRACT: note_on channel=5 note=70 velocity=78 time=0.0014534875
EXTRACT: note_on channel=5 note=74 velocity=78 time=0
EXTRACT: note_on channel=7 note=79 velocity=42 time=0
EXTRACT: note_on channel=9 note=39 velocity=126 time=0
EXTRACT: note_on channel=9 note=39 velocity=0 time=0
EXTRACT: pitchwheel channel=5 pitch=-6784 time=0.034883700000000004
EXTRACT: pitchwheel channel=5 pitch=-5120 time=0.00581395
EXTRACT: pitchwheel channel=5 pitch=-3584 time=0.00581395
EXTRACT: pitchwheel channel=5 pitch=-1792 time=0.00581395
EXTRACT: pitchwheel channel=5 pitch=-384 time=0.0072674375
EXTRACT: pitchwheel channel=5 pitch=0 time=0.00581395
EXTRACT: note_on channel=6 note=89 velocity=0 time=0.06976740000000001
EXTRACT: note_on channel=3 note=70 velocity=70 time=0.0305232375
EXTRACT: note_on channel=6 note=82 velocity=0 time=0.014534875
EXTRACT: note_on channel=6 note=86 velocity=78 time=0.16860455
EXTRACT: note_on channel=7 note=72 velocity=0 time=0.031976725
EXTRACT: note_on channel=3 note=70 velocity=0 time=0.0116279
EXTRACT: note_on channel=6 note=86 velocity=0 time=0.0930232
EXTRACT: note_on channel=1 note=34 velocity=103 time=0.037790675
EXTRACT: note_on channel=9 note=36 velocity=75 time=0
EXTRACT: note_on channel=9 note=36 velocity=0 time=0
EXTRACT: note_on channel=3 note=70 velocity=72 time=0.014534875
EXTRACT: note_on channel=1 note=34 velocity=0 time=0.0479650875
EXTRACT: note_on channel=5 note=70 velocity=0 time=0.1090115625
EXTRACT: note_on channel=5 note=74 velocity=0 time=0
EXTRACT: note_on channel=6 note=77 velocity=71 time=0.0014534875
EXTRACT: note_on channel=6 note=84 velocity=81 time=0
EXTRACT: note_on channel=1 note=34 velocity=127 time=0.0014534875
EXTRACT: note_on channel=5 note=69 velocity=78 time=0
EXTRACT: note_on channel=5 note=72 velocity=78 time=0
EXTRACT: note_on channel=7 note=84 velocity=37 time=0
EXTRACT: note_on channel=9 note=36 velocity=119 time=0
EXTRACT: note_on channel=9 note=36 velocity=0 time=0
EXTRACT: control_change channel=6 control=64 value=127 time=0.0276162625
EXTRACT: control_change channel=6 control=64 value=0 time=0.0363371875
EXTRACT: note_on channel=3 note=70 velocity=0 time=0.0043604625000000004
EXTRACT: control_change channel=6 control=64 value=127 time=0.0770348375
EXTRACT: note_on channel=3 note=70 velocity=70 time=0.0247092875
EXTRACT: note_on channel=6 note=84 velocity=0 time=0.1468022375
EXTRACT: note_on channel=6 note=77 velocity=0 time=0.008720925000000001
EXTRACT: note_on channel=6 note=81 velocity=78 time=0.0232558
EXTRACT: note_on channel=9 note=36 velocity=108 time=0
EXTRACT: note_on channel=9 note=36 velocity=0 time=0
EXTRACT: note_on channel=9 note=69 velocity=85 time=0
EXTRACT: note_on channel=9 note=69 velocity=0 time=0
EXTRACT: note_on channel=7 note=79 velocity=0 time=0.031976725
EXTRACT: note_on channel=3 note=70 velocity=0 time=0.0101744125
EXTRACT: note_on channel=3 note=70 velocity=72 time=0.09883715
EXTRACT: note_on channel=6 note=81 velocity=0 time=0.0043604625000000004
EXTRACT: note_on channel=9 note=69 velocity=81 time=0.02906975
EXTRACT: note_on channel=9 note=69 velocity=0 time=0
EXTRACT: note_on channel=3 note=70 velocity=0 time=0.1046511
EXTRACT: note_on channel=6 note=89 velocity=70 time=0.06976740000000001
EXTRACT: note_on channel=9 note=39 velocity=123 time=0
EXTRACT: note_on channel=9 note=39 velocity=0 time=0
EXTRACT: note_on channel=1 note=34 velocity=0 time=0.0043604625000000004
EXTRACT: note_on channel=3 note=70 velocity=72 time=0.0072674375
EXTRACT: note_on channel=6 note=89 velocity=0 time=0.20348825
EXTRACT: note_on channel=3 note=72 velocity=72 time=0.0392441625
EXTRACT: note_on channel=3 note=70 velocity=0 time=0.02906975
EXTRACT: note_on channel=6 note=84 velocity=72 time=0.0654069375
EXTRACT: note_on channel=7 note=84 velocity=0 time=0.031976725
EXTRACT: note_on channel=3 note=72 velocity=0 time=0.034883700000000004
EXTRACT: note_on channel=6 note=84 velocity=0 time=0.0595929875
EXTRACT: note_on channel=3 note=74 velocity=72 time=0.0043604625000000004
EXTRACT: control_change channel=6 control=64 value=0 time=0.200581275
EXTRACT: note_on channel=5 note=69 velocity=0 time=0.014534875
EXTRACT: note_on channel=5 note=72 velocity=0 time=0
EXTRACT: note_on channel=1 note=34 velocity=121 time=0.002906975
EXTRACT: note_on channel=5 note=67 velocity=78 time=0
EXTRACT: note_on channel=5 note=70 velocity=78 time=0
EXTRACT: note_on channel=9 note=36 velocity=116 time=0
EXTRACT: note_on channel=9 note=36 velocity=0 time=0
EXTRACT: control_change channel=6 control=64 value=0 time=0.0188953375
EXTRACT: note_on channel=3 note=74 velocity=0 time=0.0188953375
EXTRACT: note_on channel=3 note=70 velocity=72 time=0.1438952625
EXTRACT: note_on channel=3 note=70 velocity=0 time=0.130813875
EXTRACT: note_on channel=6 note=82 velocity=75 time=0.0334302125
EXTRACT: note_on channel=9 note=69 velocity=88 time=0.002906975
EXTRACT: note_on channel=9 note=69 velocity=0 time=0
EXTRACT: note_on channel=3 note=77 velocity=72 time=0.0072674375
EXTRACT: note_on channel=3 note=77 velocity=0 time=0.09883715
EXTRACT: note_on channel=3 note=77 velocity=70 time=0.0624999625
EXTRACT: note_on channel=9 note=69 velocity=82 time=0.00581395
EXTRACT: note_on channel=9 note=69 velocity=0 time=0
EXTRACT: note_on channel=3 note=77 velocity=0 time=0.08720925
EXTRACT: note_on channel=1 note=34 velocity=0 time=0.072674375
EXTRACT: note_on channel=3 note=77 velocity=73 time=0.008720925000000001
EXTRACT: note_on channel=6 note=87 velocity=81 time=0.0043604625000000004
EXTRACT: note_on channel=6 note=79 velocity=73 time=0
EXTRACT: note_on channel=9 note=39 velocity=126 time=0.0014534875
EXTRACT: note_on channel=9 note=39 velocity=0 time=0
EXTRACT: control_change channel=6 control=64 value=127 time=0.0188953375
EXTRACT: note_on channel=6 note=82 velocity=0 time=0.0276162625
EXTRACT: note_on channel=3 note=77 velocity=0 time=0.136627825
EXTRACT: note_on channel=3 note=70 velocity=72 time=0.055232525
EXTRACT: note_on channel=6 note=87 velocity=0 time=0.0886627375
EXTRACT: note_on channel=6 note=82 velocity=73 time=0.0218023125
EXTRACT: note_on channel=6 note=79 velocity=0 time=0.002906975
EXTRACT: note_on channel=3 note=70 velocity=0 time=0.0508720625
EXTRACT: note_on channel=3 note=70 velocity=72 time=0.0828487875
EXTRACT: note_on channel=1 note=34 velocity=105 time=0.037790675
EXTRACT: note_on channel=9 note=36 velocity=75 time=0
EXTRACT: note_on channel=9 note=36 velocity=0 time=0
EXTRACT: note_on channel=1 note=34 velocity=0 time=0.0537790375
EXTRACT: control_change channel=6 control=64 value=0 time=0.049418575
EXTRACT: note_on channel=3 note=70 velocity=0 time=0.008720925000000001
EXTRACT: note_on channel=6 note=82 velocity=0 time=0.020348825
EXTRACT: note_on channel=5 note=67 velocity=0 time=0.0392441625
EXTRACT: note_on channel=1 note=34 velocity=121 time=0.002906975
EXTRACT: note_on channel=3 note=70 velocity=70 time=0
EXTRACT: note_on channel=5 note=66 velocity=78 time=0
EXTRACT: note_on channel=9 note=36 velocity=119 time=0
EXTRACT: note_on channel=9 note=36 velocity=0 time=0
EXTRACT: note_on channel=3 note=70 velocity=0 time=0.0930232
EXTRACT: note_on channel=3 note=70 velocity=70 time=0.0813953
EXTRACT: note_on channel=3 note=70 velocity=0 time=0.0930232
EXTRACT: note_on channel=3 note=70 velocity=74 time=0.0712208875
EXTRACT: note_on channel=6 note=78 velocity=70 time=0.0101744125
EXTRACT: note_on channel=9 note=36 velocity=108 time=0
EXTRACT: note_on channel=9 note=36 velocity=0 time=0
EXTRACT: note_on channel=9 note=69 velocity=85 time=0
EXTRACT: note_on channel=9 note=69 velocity=0 time=0
EXTRACT: note_on channel=3 note=70 velocity=0 time=0.1671510625
EXTRACT: note_on channel=9 note=69 velocity=81 time=0.0072674375
EXTRACT: note_on channel=9 note=69 velocity=0 time=0
EXTRACT: note_on channel=3 note=72 velocity=71 time=0.0014534875
EXTRACT: note_on channel=3 note=72 velocity=0 time=0.142441775
EXTRACT: note_on channel=6 note=87 velocity=83 time=0.02906975
EXTRACT: note_on channel=4 note=82 velocity=78 time=0.0014534875
EXTRACT: note_on channel=6 note=82 velocity=71 time=0
EXTRACT: note_on channel=9 note=39 velocity=123 time=0
EXTRACT: note_on channel=9 note=39 velocity=0 time=0
EXTRACT: note_on channel=1 note=34 velocity=0 time=0.0043604625000000004
EXTRACT: note_on channel=6 note=78 velocity=0 time=0.0232558
EXTRACT: note_on channel=3 note=75 velocity=72 time=0.0159883625
EXTRACT: note_on channel=4 note=82 velocity=0 time=0.1874998875
EXTRACT: note_on channel=4 note=81 velocity=78 time=0.0014534875
EXTRACT: control_change channel=6 control=64 value=127 time=0.0043604625000000004
EXTRACT: note_on channel=3 note=75 velocity=0 time=0.031976725
EXTRACT: note_on channel=3 note=74 velocity=72 time=0.014534875
EXTRACT: note_on channel=6 note=82 velocity=0 time=0.0624999625
EXTRACT: note_on channel=6 note=78 velocity=78 time=0.002906975
EXTRACT: note_on channel=6 note=87 velocity=0 time=0.1031976125
EXTRACT: note_on channel=4 note=81 velocity=0 time=0.0116279
EXTRACT: note_on channel=4 note=79 velocity=78 time=0.0014534875
EXTRACT: note_on channel=3 note=74 velocity=0 time=0.0014534875
EXTRACT: note_on channel=3 note=72 velocity=72 time=0.043604625
EXTRACT: note_on channel=9 note=84 velocity=76 time=0.0130813875
EXTRACT: note_on channel=9 note=84 velocity=0 time=0
EXTRACT: note_on channel=6 note=78 velocity=0 time=0.0305232375
EXTRACT: note_on channel=5 note=70 velocity=0 time=0.1409882875
EXTRACT: note_on channel=5 note=66 velocity=0 time=0
EXTRACT: note_on channel=4 note=79 velocity=0 time=0.0014534875
EXTRACT: note_on channel=1 note=34 velocity=127 time=0.0014534875
EXTRACT: note_on channel=9 note=36 velocity=116 time=0
EXTRACT: note_on channel=9 note=36 velocity=0 time=0
EXTRACT: note_on channel=4 note=77 velocity=78 time=0.0014534875
EXTRACT: note_on channel=3 note=72 velocity=0 time=0.031976725
EXTRACT: control_change channel=6 control=64 value=0 time=0.008720925000000001
EXTRACT: pitchwheel channel=5 pitch=-6656 time=0.061046475
EXTRACT: pitchwheel channel=5 pitch=-7296 time=0.00581395
EXTRACT: pitchwheel channel=5 pitch=-8064 time=0.00581395
EXTRACT: note_on channel=4 note=77 velocity=0 time=0.1177324875
EXTRACT: note_on channel=4 note=74 velocity=78 time=0.0014534875
EXTRACT: control_change channel=6 control=64 value=127 time=0.1046511
EXTRACT: note_on channel=6 note=86 velocity=83 time=0.0072674375
EXTRACT: note_on channel=6 note=77 velocity=60 time=0.0014534875
EXTRACT: note_on channel=9 note=69 velocity=88 time=0.0014534875
EXTRACT: note_on channel=9 note=69 velocity=0 time=0
EXTRACT: note_on channel=4 note=74 velocity=0 time=0.1148255125
EXTRACT: note_on channel=4 note=72 velocity=78 time=0.002906975
EXTRACT: note_on channel=3 note=72 velocity=72 time=0.055232525
EXTRACT: note_on channel=9 note=69 velocity=82 time=0.0014534875
EXTRACT: note_on channel=9 note=69 velocity=0 time=0
EXTRACT: note_on channel=6 note=77 velocity=0 time=0.020348825
EXTRACT: note_on channel=6 note=86 velocity=0 time=0.008720925000000001
EXTRACT: note_on channel=3 note=72 velocity=0 time=0.11046505
EXTRACT: note_on channel=1 note=34 velocity=0 time=0.0116279
EXTRACT: note_on channel=6 note=82 velocity=80 time=0.020348825
EXTRACT: note_on channel=4 note=72 velocity=0 time=0.002906975
EXTRACT: note_on channel=5 note=70 velocity=78 time=0
EXTRACT: note_on channel=5 note=74 velocity=78 time=0
EXTRACT: note_on channel=6 note=74 velocity=67 time=0
EXTRACT: note_on channel=9 note=39 velocity=126 time=0
EXTRACT: note_on channel=9 note=39 velocity=0 time=0
EXTRACT: note_on channel=4 note=70 velocity=78 time=0.0014534875
EXTRACT: note_on channel=3 note=70 velocity=72 time=0.002906975
EXTRACT: pitchwheel channel=5 pitch=-6784 time=0.0305232375
EXTRACT: pitchwheel channel=5 pitch=-5120 time=0.00581395
EXTRACT: pitchwheel channel=5 pitch=-3584 time=0.00581395
EXTRACT: pitchwheel channel=5 pitch=-1792 time=0.00581395
EXTRACT: pitchwheel channel=5 pitch=-384 time=0.0072674375
EXTRACT: pitchwheel channel=5 pitch=0 time=0.00581395
EXTRACT: note_on channel=6 note=74 velocity=0 time=0.066860425
EXTRACT: note_on channel=6 note=82 velocity=0 time=0.0043604625000000004
EXTRACT: note_on channel=3 note=70 velocity=0 time=0.0654069375
EXTRACT: note_on channel=3 note=72 velocity=72 time=0.072674375
EXTRACT: note_on channel=6 note=77 velocity=73 time=0.0712208875
EXTRACT: note_on channel=6 note=70 velocity=73 time=0.002906975
EXTRACT: note_on channel=3 note=72 velocity=0 time=0.1002906375
EXTRACT: note_on channel=3 note=70 velocity=72 time=0.06976740000000001
EXTRACT: note_on channel=1 note=34 velocity=99 time=0.0043604625000000004
EXTRACT: note_on channel=9 note=36 velocity=75 time=0
EXTRACT: note_on channel=9 note=36 velocity=0 time=0
EXTRACT: note_on channel=1 note=34 velocity=0 time=0.055232525
EXTRACT: note_on channel=6 note=77 velocity=0 time=0.078488325
EXTRACT: note_on channel=6 note=70 velocity=0 time=0.002906975
EXTRACT: note_on channel=3 note=70 velocity=0 time=0.0072674375
EXTRACT: note_on channel=5 note=74 velocity=0 time=0.0276162625
EXTRACT: note_on channel=5 note=70 velocity=0 time=0
EXTRACT: note_on channel=3 note=77 velocity=72 time=0.0014534875
EXTRACT: note_on channel=1 note=34 velocity=127 time=0.0014534875
EXTRACT: note_on channel=5 note=69 velocity=78 time=0
EXTRACT: note_on channel=5 note=72 velocity=78 time=0
EXTRACT: note_on channel=6 note=72 velocity=85 time=0
EXTRACT: note_on channel=9 note=36 velocity=119 time=0
EXTRACT: note_on channel=9 note=36 velocity=0 time=0
EXTRACT: control_change channel=6 control=64 value=0 time=0.02906975
EXTRACT: control_change channel=6 control=64 value=127 time=0.014534875
EXTRACT: note_on channel=3 note=77 velocity=0 time=0.1700580375
EXTRACT: note_on channel=4 note=70 velocity=0 time=0.0188953375
EXTRACT: note_on channel=6 note=69 velocity=80 time=0.116279
EXTRACT: note_on channel=9 note=36 velocity=108 time=0
EXTRACT: note_on channel=9 note=36 velocity=0 time=0
EXTRACT: note_on channel=9 note=69 velocity=85 time=0
EXTRACT: note_on channel=9 note=69 velocity=0 time=0
EXTRACT: note_on channel=3 note=72 velocity=70 time=0.0043604625000000004
EXTRACT: note_on channel=6 note=72 velocity=0 time=0.0232558
EXTRACT: note_on channel=6 note=69 velocity=0 time=0.1046511
EXTRACT: note_on channel=9 note=69 velocity=81 time=0.0421511375
EXTRACT: note_on channel=9 note=69 velocity=0 time=0
EXTRACT: note_on channel=3 note=70 velocity=72 time=0.0072674375
EXTRACT: note_on channel=3 note=72 velocity=0 time=0.0101744125
EXTRACT: note_on channel=6 note=84 velocity=85 time=0.1555231625
EXTRACT: note_on channel=6 note=77 velocity=73 time=0.0014534875
EXTRACT: note_on channel=9 note=39 velocity=123 time=0
EXTRACT: note_on channel=9 note=39 velocity=0 time=0
EXTRACT: note_on channel=3 note=70 velocity=0 time=0.078488325
EXTRACT: note_on channel=1 note=34 velocity=0 time=0.0305232375
EXTRACT: note_on channel=3 note=72 velocity=72 time=0.0712208875
EXTRACT: note_on channel=6 note=84 velocity=0 time=0.014534875
EXTRACT: note_on channel=6 note=77 velocity=0 time=0.0043604625000000004
EXTRACT: note_on channel=6 note=81 velocity=82 time=0.1497092125
EXTRACT: note_on channel=3 note=72 velocity=0 time=0.06395345
EXTRACT: note_on channel=6 note=81 velocity=0 time=0.0930232
EXTRACT: note_on channel=3 note=70 velocity=72 time=0.04069765
EXTRACT: control_change channel=6 control=64 value=0 time=0.12209295
EXTRACT: note_on channel=3 note=70 velocity=0 time=0.0072674375
EXTRACT: note_on channel=6 note=53 velocity=81 time=0.014534875
EXTRACT: note_on channel=5 note=72 velocity=0 time=0.0043604625000000004
EXTRACT: note_on channel=5 note=69 velocity=0 time=0
EXTRACT: note_on channel=1 note=29 velocity=127 time=0.002906975
EXTRACT: note_on channel=5 note=67 velocity=78 time=0
EXTRACT: note_on channel=5 note=70 velocity=78 time=0
EXTRACT: note_on channel=7 note=49 velocity=62 time=0
EXTRACT: note_on channel=9 note=36 velocity=116 time=0
EXTRACT: note_on channel=9 note=36 velocity=0 time=0
EXTRACT: note_on channel=6 note=67 velocity=87 time=0.00581395
EXTRACT: note_on channel=6 note=70 velocity=82 time=0.0014534875
EXTRACT: note_on channel=6 note=63 velocity=73 time=0
EXTRACT: note_on channel=3 note=75 velocity=71 time=0.00581395
EXTRACT: control_change channel=6 control=64 value=127 time=0.008720925000000001
EXTRACT: note_on channel=3 note=75 velocity=0 time=0.2543603125
EXTRACT: note_on channel=6 note=53 velocity=0 time=0.0188953375
EXTRACT: note_on channel=9 note=69 velocity=88 time=0.0537790375
EXTRACT: note_on channel=9 note=69 velocity=0 time=0
EXTRACT: note_on channel=6 note=67 velocity=0 time=0.0043604625000000004
EXTRACT: note_on channel=3 note=74 velocity=72 time=0
EXTRACT: note_on channel=6 note=63 velocity=0 time=0.0014534875
EXTRACT: note_on channel=6 note=70 velocity=0 time=0
EXTRACT: note_on channel=9 note=69 velocity=82 time=0.16860455
EXTRACT: note_on channel=9 note=69 velocity=0 time=0
EXTRACT: note_on channel=3 note=74 velocity=0 time=0.008720925000000001
EXTRACT: note_on channel=3 note=72 velocity=70 time=0.0130813875
EXTRACT: note_on channel=1 note=29 velocity=0 time=0.02906975
EXTRACT: control_change channel=6 control=64 value=0 time=0.0828487875
EXTRACT: note_on channel=6 note=53 velocity=77 time=0.031976725
EXTRACT: note_on channel=6 note=69 velocity=80 time=0.0014534875
EXTRACT: note_on channel=6 note=72 velocity=77 time=0.0014534875
EXTRACT: note_on channel=6 note=65 velocity=66 time=0.0014534875
EXTRACT: note_on channel=5 note=70 velocity=0 time=0.0014534875
EXTRACT: note_on channel=5 note=67 velocity=0 time=0
EXTRACT: note_on channel=1 note=29 velocity=126 time=0.002906975
EXTRACT: note_on channel=5 note=69 velocity=78 time=0
EXTRACT: note_on channel=5 note=72 velocity=78 time=0
EXTRACT: note_on channel=7 note=55 velocity=62 time=0
EXTRACT: note_on channel=9 note=36 velocity=119 time=0
EXTRACT: note_on channel=9 note=36 velocity=0 time=0
EXTRACT: note_on channel=3 note=72 velocity=0 time=0.06395345
EXTRACT: control_change channel=6 control=64 value=127 time=0.0813953
EXTRACT: note_on channel=3 note=70 velocity=72 time=0.0305232375
EXTRACT: note_on channel=6 note=65 velocity=0 time=0.1293603875
EXTRACT: note_on channel=6 note=69 velocity=0 time=0.0276162625
EXTRACT: note_on channel=6 note=72 velocity=0 time=0.002906975
EXTRACT: note_on channel=6 note=53 velocity=0 time=0.0159883625
EXTRACT: note_on channel=7 note=49 velocity=0 time=0.02906975
EXTRACT: note_on channel=3 note=70 velocity=0 time=0.055232525
EXTRACT: note_on channel=4 note=75 velocity=76 time=0.084302275
EXTRACT: note_on channel=4 note=79 velocity=76 time=0.002906975
EXTRACT: note_on channel=4 note=82 velocity=76 time=0
EXTRACT: note_on channel=3 note=75 velocity=70 time=0.0014534875
EXTRACT: note_on channel=1 note=29 velocity=0 time=0.043604625
EXTRACT: control_change channel=6 control=64 value=0 time=0.1119185375
EXTRACT: note_on channel=6 note=70 velocity=76 time=0.0101744125
EXTRACT: note_on channel=6 note=67 velocity=83 time=0.0014534875
EXTRACT: note_on channel=6 note=53 velocity=80 time=0.0014534875
EXTRACT: note_on channel=5 note=69 velocity=0 time=0.0014534875
EXTRACT: note_on channel=5 note=72 velocity=0 time=0
EXTRACT: note_on channel=6 note=74 velocity=84 time=0
EXTRACT: note_on channel=1 note=29 velocity=127 time=0.002906975
EXTRACT: note_on channel=5 note=70 velocity=78 time=0
EXTRACT: note_on channel=5 note=74 velocity=78 time=0
EXTRACT: note_on channel=7 note=60 velocity=62 time=0
EXTRACT: note_on channel=9 note=36 velocity=108 time=0
EXTRACT: note_on channel=9 note=36 velocity=0 time=0
EXTRACT: note_on channel=3 note=75 velocity=0 time=0.07558135
EXTRACT: note_on channel=4 note=75 velocity=0 time=0.06395345
EXTRACT: note_on channel=4 note=82 velocity=0 time=0.002906975
EXTRACT: note_on channel=4 note=79 velocity=0 time=0
EXTRACT: control_change channel=6 control=64 value=127 time=0.020348825
EXTRACT: note_on channel=3 note=74 velocity=71 time=0.002906975
EXTRACT: note_on channel=4 note=74 velocity=76 time=0.0043604625000000004
EXTRACT: note_on channel=4 note=79 velocity=76 time=0.0043604625000000004
EXTRACT: note_on channel=4 note=82 velocity=76 time=0
EXTRACT: note_on channel=6 note=74 velocity=0 time=0.07558135
EXTRACT: note_on channel=6 note=67 velocity=0 time=0.0072674375
EXTRACT: note_on channel=6 note=70 velocity=0 time=0.00581395
EXTRACT: note_on channel=6 note=53 velocity=0 time=0.014534875
EXTRACT: note_on channel=9 note=69 velocity=85 time=0.0712208875
EXTRACT: note_on channel=9 note=69 velocity=0 time=0
EXTRACT: note_on channel=7 note=55 velocity=0 time=0.031976725
EXTRACT: note_on channel=3 note=74 velocity=0 time=0.04069765
EXTRACT: note_on channel=3 note=72 velocity=71 time=0.06976740000000001
EXTRACT: note_on channel=4 note=74 velocity=0 time=0.0101744125
EXTRACT: note_on channel=4 note=79 velocity=0 time=0.002906975
EXTRACT: note_on channel=4 note=82 velocity=0 time=0
EXTRACT: note_on channel=4 note=72 velocity=76 time=0.014534875
EXTRACT: note_on channel=4 note=77 velocity=76 time=0.0043604625000000004
EXTRACT: note_on channel=4 note=81 velocity=76 time=0
EXTRACT: note_on channel=9 note=69 velocity=81 time=0
EXTRACT: note_on channel=9 note=69 velocity=0 time=0
EXTRACT: note_on channel=1 note=29 velocity=0 time=0.049418575
EXTRACT: control_change channel=6 control=64 value=0 time=0.0930232
EXTRACT: note_on channel=5 note=70 velocity=0 time=0.02906975
EXTRACT: note_on channel=5 note=74 velocity=0 time=0
EXTRACT: note_on channel=6 note=53 velocity=76 time=0
EXTRACT: note_on channel=1 note=29 velocity=127 time=0.002906975
EXTRACT: note_on channel=5 note=72 velocity=78 time=0
EXTRACT: note_on channel=5 note=75 velocity=76 time=0
EXTRACT: note_on channel=6 note=70 velocity=86 time=0
EXTRACT: note_on channel=6 note=67 velocity=75 time=0
EXTRACT: note_on channel=6 note=75 velocity=84 time=0
EXTRACT: note_on channel=7 note=67 velocity=62 time=0
EXTRACT: note_on channel=9 note=36 velocity=119 time=0
EXTRACT: note_on channel=9 note=36 velocity=0 time=0
EXTRACT: note_on channel=3 note=72 velocity=0 time=0.0944766875
EXTRACT: control_change channel=6 control=64 value=127 time=0.0072674375
EXTRACT: note_on channel=4 note=72 velocity=0 time=0.0450581125
EXTRACT: note_on channel=4 note=77 velocity=0 time=0.002906975
EXTRACT: note_on channel=4 note=81 velocity=0 time=0
EXTRACT: note_on channel=3 note=70 velocity=70 time=0.0188953375
EXTRACT: note_on channel=4 note=70 velocity=76 time=0.0014534875
EXTRACT: note_on channel=5 note=75 velocity=0 time=0.0014534875
EXTRACT: note_on channel=4 note=75 velocity=76 time=0.002906975
EXTRACT: note_on channel=4 note=79 velocity=76 time=0
EXTRACT: note_on channel=5 note=74 velocity=71 time=0
EXTRACT: note_on channel=6 note=67 velocity=0 time=0.05232555
EXTRACT: note_on channel=6 note=70 velocity=0 time=0.002906975
EXTRACT: note_on channel=6 note=75 velocity=0 time=0.0072674375
EXTRACT: note_on channel=6 note=53 velocity=0 time=0
EXTRACT: note_on channel=5 note=74 velocity=0 time=0.1090115625
EXTRACT: note_on channel=5 note=75 velocity=76 time=0.002906975
EXTRACT: note_on channel=7 note=60 velocity=0 time=0.031976725
EXTRACT: note_on channel=5 note=75 velocity=0 time=0.13953480000000001
EXTRACT: note_on channel=3 note=58 velocity=70 time=0.0043604625000000004
EXTRACT: note_on channel=5 note=77 velocity=75 time=0
EXTRACT: note_on channel=3 note=70 velocity=0 time=0.008720925000000001
EXTRACT: note_on channel=1 note=29 velocity=0 time=0.05232555
EXTRACT: note_on channel=4 note=70 velocity=0 time=0.008720925000000001
EXTRACT: note_on channel=4 note=75 velocity=0 time=0.0043604625000000004
EXTRACT: note_on channel=4 note=79 velocity=0 time=0
EXTRACT: control_change channel=6 control=64 value=0 time=0.0072674375
EXTRACT: note_on channel=3 note=58 velocity=0 time=0.026162775
EXTRACT: note_on channel=5 note=72 velocity=0 time=0.0624999625
EXTRACT: note_on channel=5 note=77 velocity=0 time=0.002906975
EXTRACT: note_on channel=1 note=34 velocity=127 time=0
EXTRACT: note_on channel=7 note=72 velocity=51 time=0
EXTRACT: note_on channel=9 note=36 velocity=116 time=0
EXTRACT: note_on channel=9 note=36 velocity=0 time=0
EXTRACT: note_on channel=3 note=58 velocity=72 time=0.0159883625
EXTRACT: control_change channel=6 control=64 value=127 time=0.0654069375
EXTRACT: pitchwheel channel=5 pitch=-6656 time=0.0218023125
EXTRACT: pitchwheel channel=5 pitch=-7296 time=0.00581395
EXTRACT: pitchwheel channel=5 pitch=-8064 time=0.00581395
EXTRACT: note_on channel=3 note=58 velocity=0 time=0.1380813125
EXTRACT: note_on channel=3 note=58 velocity=70 time=0.078488325
EXTRACT: note_on channel=6 note=86 velocity=82 time=0.0159883625
EXTRACT: note_on channel=6 note=77 velocity=68 time=0
EXTRACT: note_on channel=9 note=69 velocity=88 time=0.0014534875
EXTRACT: note_on channel=9 note=69 velocity=0 time=0
EXTRACT: note_on channel=7 note=67 velocity=0 time=0.031976725
EXTRACT: note_on channel=3 note=58 velocity=0 time=0.049418575
EXTRACT: note_on channel=3 note=58 velocity=70 time=0.061046475
EXTRACT: note_on channel=6 note=86 velocity=0 time=0.0072674375
EXTRACT: note_on channel=6 note=77 velocity=0 time=0.0014534875
EXTRACT: note_on channel=9 note=69 velocity=82 time=0.0232558
EXTRACT: note_on channel=9 note=69 velocity=0 time=0
EXTRACT: note_on channel=3 note=58 velocity=0 time=0.06976740000000001
EXTRACT: note_on channel=1 note=34 velocity=0 time=0.06976740000000001
EXTRACT: note_on channel=3 note=58 velocity=72 time=0.020348825
EXTRACT: note_on channel=6 note=82 velocity=71 time=0.0130813875
EXTRACT: note_on channel=6 note=89 velocity=75 time=0
EXTRACT: note_on channel=5 note=70 velocity=78 time=0.0014534875
EXTRACT: note_on channel=5 note=74 velocity=78 time=0
EXTRACT: note_on channel=7 note=79 velocity=42 time=0
EXTRACT: note_on channel=9 note=39 velocity=126 time=0
EXTRACT: note_on channel=9 note=39 velocity=0 time=0
EXTRACT: pitchwheel channel=5 pitch=-6784 time=0.034883700000000004
EXTRACT: pitchwheel channel=5 pitch=-5120 time=0.00581395
EXTRACT: pitchwheel channel=5 pitch=-3584 time=0.00581395
EXTRACT: pitchwheel channel=5 pitch=-1792 time=0.00581395
EXTRACT: pitchwheel channel=5 pitch=-384 time=0.0072674375
EXTRACT: pitchwheel channel=5 pitch=0 time=0.00581395
EXTRACT: note_on channel=6 note=89 velocity=0 time=0.06976740000000001
EXTRACT: note_on channel=6 note=82 velocity=0 time=0.0450581125
EXTRACT: note_on channel=3 note=58 velocity=0 time=0.0944766875
EXTRACT: note_on channel=6 note=86 velocity=78 time=0.0741278625
EXTRACT: note_on channel=3 note=58 velocity=70 time=0.0130813875
EXTRACT: note_on channel=7 note=72 velocity=0 time=0.0188953375
EXTRACT: note_on channel=3 note=58 velocity=0 time=0.078488325
EXTRACT: note_on channel=6 note=86 velocity=0 time=0.026162775
EXTRACT: note_on channel=1 note=34 velocity=103 time=0.037790675
EXTRACT: note_on channel=9 note=36 velocity=75 time=0
EXTRACT: note_on channel=9 note=36 velocity=0 time=0
EXTRACT: note_on channel=3 note=58 velocity=70 time=0.0043604625000000004
EXTRACT: note_on channel=1 note=34 velocity=0 time=0.0581395
EXTRACT: note_on channel=3 note=58 velocity=0 time=0.026162775
EXTRACT: note_on channel=5 note=70 velocity=0 time=0.0828487875
EXTRACT: note_on channel=5 note=74 velocity=0 time=0
EXTRACT: note_on channel=6 note=77 velocity=71 time=0.0014534875
EXTRACT: note_on channel=6 note=84 velocity=81 time=0
EXTRACT: note_on channel=1 note=34 velocity=127 time=0.0014534875
EXTRACT: note_on channel=5 note=69 velocity=78 time=0
EXTRACT: note_on channel=5 note=72 velocity=78 time=0
EXTRACT: note_on channel=7 note=84 velocity=37 time=0
EXTRACT: note_on channel=9 note=36 velocity=119 time=0
EXTRACT: note_on channel=9 note=36 velocity=0 time=0
EXTRACT: note_on channel=3 note=58 velocity=72 time=0.0072674375
EXTRACT: control_change channel=6 control=64 value=127 time=0.020348825
EXTRACT: control_change channel=6 control=64 value=0 time=0.0363371875
EXTRACT: control_change channel=6 control=64 value=127 time=0.0813953
EXTRACT: note_on channel=3 note=58 velocity=0 time=0.0886627375
EXTRACT: note_on channel=6 note=84 velocity=0 time=0.0828487875
EXTRACT: note_on channel=6 note=77 velocity=0 time=0.008720925000000001
EXTRACT: note_on channel=3 note=58 velocity=70 time=0.017441850000000002
EXTRACT: note_on channel=6 note=81 velocity=78 time=0.00581395
EXTRACT: note_on channel=9 note=36 velocity=108 time=0
EXTRACT: note_on channel=9 note=36 velocity=0 time=0
EXTRACT: note_on channel=9 note=69 velocity=85 time=0
EXTRACT: note_on channel=9 note=69 velocity=0 time=0
EXTRACT: note_on channel=7 note=79 velocity=0 time=0.031976725
EXTRACT: note_on channel=3 note=58 velocity=0 time=0.0624999625
EXTRACT: note_on channel=6 note=81 velocity=0 time=0.0508720625
EXTRACT: note_on channel=9 note=69 velocity=81 time=0.02906975
EXTRACT: note_on channel=9 note=69 velocity=0 time=0
EXTRACT: note_on channel=3 note=58 velocity=72 time=0.0116279
EXTRACT: note_on channel=6 note=89 velocity=70 time=0.1627906
EXTRACT: note_on channel=9 note=39 velocity=123 time=0
EXTRACT: note_on channel=9 note=39 velocity=0 time=0
EXTRACT: note_on channel=1 note=34 velocity=0 time=0.0043604625000000004
EXTRACT: note_on channel=3 note=58 velocity=0 time=0.1409882875
EXTRACT: note_on channel=3 note=58 velocity=72 time=0.0276162625
EXTRACT: note_on channel=6 note=89 velocity=0 time=0.0421511375
EXTRACT: note_on channel=3 note=58 velocity=0 time=0.066860425
EXTRACT: note_on channel=3 note=58 velocity=72 time=0.06395345
EXTRACT: note_on channel=6 note=84 velocity=72 time=0.002906975
EXTRACT: note_on channel=7 note=84 velocity=0 time=0.031976725
EXTRACT: note_on channel=3 note=58 velocity=0 time=0.0770348375
EXTRACT: note_on channel=6 note=84 velocity=0 time=0.017441850000000002
EXTRACT: note_on channel=3 note=58 velocity=70 time=0.034883700000000004
EXTRACT: note_on channel=3 note=58 velocity=0 time=0.1002906375
EXTRACT: control_change channel=6 control=64 value=0 time=0.06976740000000001
EXTRACT: note_on channel=3 note=58 velocity=72 time=0.008720925000000001
EXTRACT: note_on channel=5 note=69 velocity=0 time=0.00581395
EXTRACT: note_on channel=5 note=72 velocity=0 time=0
EXTRACT: note_on channel=1 note=34 velocity=121 time=0.002906975
EXTRACT: note_on channel=5 note=67 velocity=78 time=0
EXTRACT: note_on channel=5 note=70 velocity=78 time=0
EXTRACT: note_on channel=9 note=36 velocity=116 time=0
EXTRACT: note_on channel=9 note=36 velocity=0 time=0
EXTRACT: control_change channel=6 control=64 value=0 time=0.0188953375
EXTRACT: note_on channel=3 note=58 velocity=0 time=0.2020347625
EXTRACT: note_on channel=3 note=58 velocity=72 time=0.0886627375
EXTRACT: note_on channel=6 note=82 velocity=75 time=0.0363371875
EXTRACT: note_on channel=9 note=69 velocity=88 time=0.002906975
EXTRACT: note_on channel=9 note=69 velocity=0 time=0
EXTRACT: note_on channel=3 note=58 velocity=0 time=0.084302275
EXTRACT: note_on channel=3 note=58 velocity=72 time=0.0741278625
EXTRACT: note_on channel=9 note=69 velocity=82 time=0.0159883625
EXTRACT: note_on channel=9 note=69 velocity=0 time=0
EXTRACT: note_on channel=1 note=34 velocity=0 time=0.159883625
EXTRACT: note_on channel=6 note=87 velocity=81 time=0.0130813875
EXTRACT: note_on channel=6 note=79 velocity=73 time=0
EXTRACT: note_on channel=9 note=39 velocity=126 time=0.0014534875
EXTRACT: note_on channel=9 note=39 velocity=0 time=0
EXTRACT: control_change channel=6 control=64 value=127 time=0.0188953375
EXTRACT: note_on channel=3 note=58 velocity=0 time=0.026162775
EXTRACT: note_on channel=6 note=82 velocity=0 time=0.0014534875
EXTRACT: note_on channel=3 note=58 velocity=70 time=0.0683139125
EXTRACT: note_on channel=3 note=58 velocity=0 time=0.1322673625
EXTRACT: note_on channel=3 note=58 velocity=72 time=0.0712208875
EXTRACT: note_on channel=6 note=87 velocity=0 time=0.008720925000000001
EXTRACT: note_on channel=6 note=82 velocity=73 time=0.0218023125
EXTRACT: note_on channel=6 note=79 velocity=0 time=0.002906975
EXTRACT: note_on channel=1 note=34 velocity=105 time=0.171511525
EXTRACT: note_on channel=9 note=36 velocity=75 time=0
EXTRACT: note_on channel=9 note=36 velocity=0 time=0
EXTRACT: note_on channel=3 note=58 velocity=0 time=0.0276162625
EXTRACT: note_on channel=1 note=34 velocity=0 time=0.026162775
EXTRACT: control_change channel=6 control=64 value=0 time=0.049418575
EXTRACT: note_on channel=3 note=58 velocity=72 time=0.0072674375
EXTRACT: note_on channel=6 note=82 velocity=0 time=0.0218023125
EXTRACT: note_on channel=5 note=67 velocity=0 time=0.0392441625
EXTRACT: note_on channel=1 note=34 velocity=121 time=0.002906975
EXTRACT: note_on channel=5 note=66 velocity=78 time=0
EXTRACT: note_on channel=9 note=36 velocity=119 time=0
EXTRACT: note_on channel=9 note=36 velocity=0 time=0
EXTRACT: note_on channel=3 note=58 velocity=0 time=0.0828487875
EXTRACT: note_on channel=3 note=58 velocity=73 time=0.0770348375
EXTRACT: note_on channel=6 note=78 velocity=70 time=0.188953375
EXTRACT: note_on channel=9 note=36 velocity=108 time=0
EXTRACT: note_on channel=9 note=36 velocity=0 time=0
EXTRACT: note_on channel=9 note=69 velocity=85 time=0
EXTRACT: note_on channel=9 note=69 velocity=0 time=0
EXTRACT: note_on channel=3 note=58 velocity=0 time=0.1002906375
EXTRACT: note_on channel=9 note=69 velocity=81 time=0.0741278625
EXTRACT: note_on channel=9 note=69 velocity=0 time=0
EXTRACT: note_on channel=6 note=87 velocity=83 time=0.1729650125
EXTRACT: note_on channel=4 note=82 velocity=78 time=0.0014534875
EXTRACT: note_on channel=6 note=82 velocity=71 time=0
EXTRACT: note_on channel=9 note=39 velocity=123 time=0
EXTRACT: note_on channel=9 note=39 velocity=0 time=0
EXTRACT: note_on channel=1 note=34 velocity=0 time=0.0043604625000000004
EXTRACT: note_on channel=6 note=78 velocity=0 time=0.0232558
EXTRACT: note_on channel=4 note=82 velocity=0 time=0.20348825
EXTRACT: note_on channel=4 note=81 velocity=78 time=0.0014534875
EXTRACT: control_change channel=6 control=64 value=127 time=0.0043604625000000004
EXTRACT: note_on channel=6 note=82 velocity=0 time=0.1090115625
EXTRACT: note_on channel=6 note=78 velocity=78 time=0.002906975
EXTRACT: note_on channel=3 note=58 velocity=72 time=0.0014534875
EXTRACT: note_on channel=3 note=58 velocity=0 time=0.084302275
EXTRACT: note_on channel=6 note=87 velocity=0 time=0.017441850000000002
EXTRACT: note_on channel=4 note=81 velocity=0 time=0.0116279
EXTRACT: note_on channel=4 note=79 velocity=78 time=0.0014534875
EXTRACT: note_on channel=3 note=58 velocity=72 time=0.0537790375
EXTRACT: note_on channel=9 note=84 velocity=76 time=0.0043604625000000004
EXTRACT: note_on channel=9 note=84 velocity=0 time=0
EXTRACT: note_on channel=6 note=78 velocity=0 time=0.0305232375
EXTRACT: note_on channel=3 note=58 velocity=0 time=0.055232525
EXTRACT: note_on channel=5 note=66 velocity=0 time=0.0857557625
EXTRACT: note_on channel=5 note=70 velocity=0 time=0
EXTRACT: note_on channel=4 note=79 velocity=0 time=0.0014534875
EXTRACT: note_on channel=1 note=34 velocity=127 time=0.0014534875
EXTRACT: note_on channel=9 note=36 velocity=116 time=0
EXTRACT: note_on channel=9 note=36 velocity=0 time=0
EXTRACT: note_on channel=4 note=77 velocity=78 time=0.0014534875
EXTRACT: note_on channel=3 note=58 velocity=72 time=0.0043604625000000004
EXTRACT: control_change channel=6 control=64 value=0 time=0.0363371875
EXTRACT: pitchwheel channel=5 pitch=-6656 time=0.061046475
EXTRACT: pitchwheel channel=5 pitch=-7296 time=0.00581395
EXTRACT: pitchwheel channel=5 pitch=-8064 time=0.00581395
EXTRACT: note_on channel=4 note=77 velocity=0 time=0.1177324875
EXTRACT: note_on channel=4 note=74 velocity=78 time=0.0014534875
EXTRACT: note_on channel=3 note=58 velocity=0 time=0.0247092875
EXTRACT: control_change channel=6 control=64 value=127 time=0.0799418125
EXTRACT: note_on channel=3 note=58 velocity=70 time=0.002906975
EXTRACT: note_on channel=6 note=86 velocity=83 time=0.0043604625000000004
EXTRACT: note_on channel=6 note=77 velocity=60 time=0.0014534875
EXTRACT: note_on channel=9 note=69 velocity=88 time=0.0014534875
EXTRACT: note_on channel=9 note=69 velocity=0 time=0
EXTRACT: note_on channel=4 note=74 velocity=0 time=0.1148255125
EXTRACT: note_on channel=4 note=72 velocity=78 time=0.002906975
EXTRACT: note_on channel=9 note=69 velocity=82 time=0.0566860125
EXTRACT: note_on channel=9 note=69 velocity=0 time=0
EXTRACT: note_on channel=6 note=77 velocity=0 time=0.020348825
EXTRACT: note_on channel=6 note=86 velocity=0 time=0.008720925000000001
EXTRACT: note_on channel=3 note=58 velocity=0 time=0.0130813875
EXTRACT: note_on channel=3 note=58 velocity=72 time=0.0915697125
EXTRACT: note_on channel=1 note=34 velocity=0 time=0.017441850000000002
EXTRACT: note_on channel=6 note=82 velocity=80 time=0.020348825
EXTRACT: note_on channel=4 note=72 velocity=0 time=0.002906975
EXTRACT: note_on channel=5 note=70 velocity=78 time=0
EXTRACT: note_on channel=5 note=74 velocity=78 time=0
EXTRACT: note_on channel=6 note=74 velocity=67 time=0
EXTRACT: note_on channel=9 note=39 velocity=126 time=0
EXTRACT: note_on channel=9 note=39 velocity=0 time=0
EXTRACT: note_on channel=4 note=70 velocity=78 time=0.0014534875
EXTRACT: pitchwheel channel=5 pitch=-6784 time=0.0334302125
EXTRACT: pitchwheel channel=5 pitch=-5120 time=0.00581395
EXTRACT: pitchwheel channel=5 pitch=-3584 time=0.00581395
EXTRACT: pitchwheel channel=5 pitch=-1792 time=0.00581395
EXTRACT: pitchwheel channel=5 pitch=-384 time=0.0072674375
EXTRACT: pitchwheel channel=5 pitch=0 time=0.00581395
EXTRACT: note_on channel=6 note=74 velocity=0 time=0.066860425
EXTRACT: note_on channel=6 note=82 velocity=0 time=0.0043604625000000004
EXTRACT: note_on channel=3 note=58 velocity=0 time=0.0654069375
EXTRACT: note_on channel=3 note=58 velocity=72 time=0.078488325
EXTRACT: note_on channel=6 note=77 velocity=73 time=0.0654069375
EXTRACT: note_on channel=6 note=70 velocity=73 time=0.002906975
EXTRACT: note_on channel=3 note=58 velocity=0 time=0.0828487875
EXTRACT: note_on channel=3 note=58 velocity=72 time=0.08720925
EXTRACT: note_on channel=1 note=34 velocity=99 time=0.0043604625000000004
EXTRACT: note_on channel=9 note=36 velocity=75 time=0
EXTRACT: note_on channel=9 note=36 velocity=0 time=0
EXTRACT: note_on channel=1 note=34 velocity=0 time=0.055232525
EXTRACT: note_on channel=6 note=77 velocity=0 time=0.078488325
EXTRACT: note_on channel=6 note=70 velocity=0 time=0.002906975
EXTRACT: note_on channel=3 note=58 velocity=0 time=0.0232558
EXTRACT: note_on channel=5 note=70 velocity=0 time=0.0116279
EXTRACT: note_on channel=5 note=74 velocity=0 time=0
EXTRACT: note_on channel=1 note=34 velocity=127 time=0.002906975
EXTRACT: note_on channel=5 note=69 velocity=78 time=0
EXTRACT: note_on channel=5 note=72 velocity=78 time=0
EXTRACT: note_on channel=6 note=72 velocity=85 time=0
EXTRACT: note_on channel=9 note=36 velocity=119 time=0
EXTRACT: note_on channel=9 note=36 velocity=0 time=0
EXTRACT: control_change channel=6 control=64 value=0 time=0.02906975
EXTRACT: control_change channel=6 control=64 value=127 time=0.014534875
EXTRACT: note_on channel=3 note=58 velocity=72 time=0.0276162625
EXTRACT: note_on channel=3 note=58 velocity=0 time=0.1613371125
EXTRACT: note_on channel=4 note=70 velocity=0 time=0
EXTRACT: note_on channel=3 note=58 velocity=72 time=0.0915697125
EXTRACT: note_on channel=6 note=69 velocity=80 time=0.0247092875
EXTRACT: note_on channel=9 note=36 velocity=108 time=0
EXTRACT: note_on channel=9 note=36 velocity=0 time=0
EXTRACT: note_on channel=9 note=69 velocity=85 time=0
EXTRACT: note_on channel=9 note=69 velocity=0 time=0
EXTRACT: note_on channel=6 note=72 velocity=0 time=0.0276162625
EXTRACT: note_on channel=6 note=69 velocity=0 time=0.1046511
EXTRACT: note_on channel=3 note=58 velocity=0 time=0.008720925000000001
EXTRACT: note_on channel=9 note=69 velocity=81 time=0.0334302125
EXTRACT: note_on channel=9 note=69 velocity=0 time=0
EXTRACT: note_on channel=3 note=58 velocity=72 time=0.0537790375
EXTRACT: note_on channel=6 note=84 velocity=85 time=0.119185975
EXTRACT: note_on channel=6 note=77 velocity=73 time=0.0014534875
EXTRACT: note_on channel=9 note=39 velocity=123 time=0
EXTRACT: note_on channel=9 note=39 velocity=0 time=0
EXTRACT: note_on channel=1 note=34 velocity=0 time=0.1090115625
EXTRACT: note_on channel=3 note=58 velocity=0 time=0.0624999625
EXTRACT: note_on channel=6 note=84 velocity=0 time=0.0232558
EXTRACT: note_on channel=6 note=77 velocity=0 time=0.0043604625000000004
EXTRACT: note_on channel=3 note=58 velocity=72 time=0.055232525
EXTRACT: note_on channel=3 note=58 velocity=0 time=0.090116225
EXTRACT: note_on channel=6 note=81 velocity=82 time=0.0043604625000000004
EXTRACT: note_on channel=3 note=58 velocity=70 time=0.06976740000000001
EXTRACT: note_on channel=6 note=81 velocity=0 time=0.08720925
EXTRACT: note_on channel=3 note=58 velocity=0 time=0.008720925000000001
EXTRACT: note_on channel=3 note=58 velocity=70 time=0.0624999625
EXTRACT: note_on channel=3 note=58 velocity=0 time=0.08720925
EXTRACT: control_change channel=6 control=64 value=0 time=0.0043604625000000004
EXTRACT: note_on channel=6 note=53 velocity=81 time=0.0218023125
EXTRACT: note_on channel=5 note=72 velocity=0 time=0.0043604625000000004
EXTRACT: note_on channel=5 note=69 velocity=0 time=0
EXTRACT: note_on channel=1 note=29 velocity=127 time=0.002906975
EXTRACT: note_on channel=5 note=67 velocity=78 time=0
EXTRACT: note_on channel=5 note=70 velocity=78 time=0
EXTRACT: note_on channel=7 note=49 velocity=62 time=0
EXTRACT: note_on channel=9 note=36 velocity=116 time=0
EXTRACT: note_on channel=9 note=36 velocity=0 time=0
EXTRACT: note_on channel=6 note=67 velocity=87 time=0.00581395
EXTRACT: note_on channel=6 note=70 velocity=82 time=0.0014534875
EXTRACT: note_on channel=6 note=63 velocity=73 time=0
EXTRACT: control_change channel=6 control=64 value=127 time=0.014534875
EXTRACT: note_on channel=3 note=58 velocity=72 time=0.0159883625
EXTRACT: note_on channel=3 note=58 velocity=0 time=0.2456393875
EXTRACT: note_on channel=6 note=53 velocity=0 time=0.0116279
EXTRACT: note_on channel=9 note=69 velocity=88 time=0.0537790375
EXTRACT: note_on channel=9 note=69 velocity=0 time=0
EXTRACT: note_on channel=3 note=58 velocity=70 time=0.0014534875
EXTRACT: note_on channel=6 note=67 velocity=0 time=0.002906975
EXTRACT: note_on channel=6 note=63 velocity=0 time=0.0014534875
EXTRACT: note_on channel=6 note=70 velocity=0 time=0
EXTRACT: note_on channel=3 note=58 velocity=0 time=0.11046505
EXTRACT: note_on channel=3 note=58 velocity=72 time=0.05232555
EXTRACT: note_on channel=9 note=69 velocity=82 time=0.00581395
EXTRACT: note_on channel=9 note=69 velocity=0 time=0
EXTRACT: note_on channel=1 note=29 velocity=0 time=0.0508720625
EXTRACT: note_on channel=3 note=58 velocity=0 time=0.0450581125
EXTRACT: control_change channel=6 control=64 value=0 time=0.037790675
EXTRACT: note_on channel=3 note=58 velocity=72 time=0.0232558
EXTRACT: note_on channel=6 note=53 velocity=77 time=0.008720925000000001
EXTRACT: note_on channel=6 note=69 velocity=80 time=0.0014534875
EXTRACT: note_on channel=6 note=72 velocity=77 time=0.0014534875
EXTRACT: note_on channel=6 note=65 velocity=66 time=0.0014534875
EXTRACT: note_on channel=5 note=67 velocity=0 time=0.0014534875
EXTRACT: note_on channel=5 note=70 velocity=0 time=0
EXTRACT: note_on channel=1 note=29 velocity=126 time=0.002906975
EXTRACT: note_on channel=5 note=69 velocity=78 time=0
EXTRACT: note_on channel=5 note=72 velocity=78 time=0
EXTRACT: note_on channel=7 note=55 velocity=62 time=0
EXTRACT: note_on channel=9 note=36 velocity=119 time=0
EXTRACT: note_on channel=9 note=36 velocity=0 time=0
EXTRACT: control_change channel=6 control=64 value=127 time=0.14534875
EXTRACT: note_on channel=6 note=65 velocity=0 time=0.159883625
EXTRACT: note_on channel=6 note=69 velocity=0 time=0.0276162625
EXTRACT: note_on channel=6 note=72 velocity=0 time=0.002906975
EXTRACT: note_on channel=3 note=58 velocity=72 time=0.0130813875
EXTRACT: note_on channel=6 note=53 velocity=0 time=0.002906975
EXTRACT: note_on channel=3 note=58 velocity=0 time=0.0072674375
EXTRACT: note_on channel=7 note=49 velocity=0 time=0.0218023125
EXTRACT: note_on channel=3 note=58 velocity=0 time=0.07558135
EXTRACT: note_on channel=3 note=58 velocity=70 time=0.0654069375
EXTRACT: note_on channel=1 note=29 velocity=0 time=0.0465116
EXTRACT: note_on channel=3 note=58 velocity=0 time=0.0537790375
EXTRACT: control_change channel=6 control=64 value=0 time=0.0581395
EXTRACT: note_on channel=6 note=70 velocity=76 time=0.0101744125
EXTRACT: note_on channel=6 note=67 velocity=83 time=0.0014534875
EXTRACT: note_on channel=6 note=53 velocity=80 time=0.0014534875
EXTRACT: note_on channel=5 note=72 velocity=0 time=0.0014534875
EXTRACT: note_on channel=5 note=69 velocity=0 time=0
EXTRACT: note_on channel=3 note=58 velocity=72 time=0
EXTRACT: note_on channel=6 note=74 velocity=84 time=0
EXTRACT: note_on channel=1 note=29 velocity=127 time=0.002906975
EXTRACT: note_on channel=5 note=70 velocity=78 time=0
EXTRACT: note_on channel=5 note=74 velocity=78 time=0
EXTRACT: note_on channel=7 note=60 velocity=62 time=0
EXTRACT: note_on channel=9 note=36 velocity=108 time=0
EXTRACT: note_on channel=9 note=36 velocity=0 time=0
EXTRACT: control_change channel=6 control=64 value=127 time=0.1627906
EXTRACT: note_on channel=6 note=74 velocity=0 time=0.08720925
EXTRACT: note_on channel=6 note=67 velocity=0 time=0.0072674375
EXTRACT: note_on channel=6 note=70 velocity=0 time=0.00581395
EXTRACT: note_on channel=3 note=58 velocity=0 time=0.0101744125
EXTRACT: note_on channel=6 note=53 velocity=0 time=0.0043604625000000004
EXTRACT: note_on channel=9 note=69 velocity=85 time=0.0712208875
EXTRACT: note_on channel=9 note=69 velocity=0 time=0
EXTRACT: note_on channel=3 note=58 velocity=72 time=0.0101744125
EXTRACT: note_on channel=7 note=55 velocity=0 time=0.0218023125
EXTRACT: note_on channel=9 note=69 velocity=81 time=0.142441775
EXTRACT: note_on channel=9 note=69 velocity=0 time=0
EXTRACT: note_on channel=1 note=29 velocity=0 time=0.049418575
EXTRACT: note_on channel=3 note=58 velocity=0 time=0.049418575
EXTRACT: control_change channel=6 control=64 value=0 time=0.043604625
EXTRACT: note_on channel=5 note=70 velocity=0 time=0.02906975
EXTRACT: note_on channel=5 note=74 velocity=0 time=0
EXTRACT: note_on channel=6 note=53 velocity=76 time=0
EXTRACT: note_on channel=1 note=29 velocity=127 time=0.002906975
EXTRACT: note_on channel=5 note=72 velocity=78 time=0
EXTRACT: note_on channel=5 note=75 velocity=76 time=0
EXTRACT: note_on channel=6 note=70 velocity=86 time=0
EXTRACT: note_on channel=6 note=67 velocity=75 time=0
EXTRACT: note_on channel=6 note=75 velocity=84 time=0
EXTRACT: note_on channel=7 note=67 velocity=62 time=0
EXTRACT: note_on channel=9 note=36 velocity=119 time=0
EXTRACT: note_on channel=9 note=36 velocity=0 time=0
EXTRACT: note_on channel=3 note=58 velocity=72 time=0.0116279
EXTRACT: control_change channel=6 control=64 value=127 time=0.090116225
EXTRACT: note_on channel=5 note=75 velocity=0 time=0.06976740000000001
EXTRACT: note_on channel=3 note=77 velocity=72 time=0.002906975
EXTRACT: note_on channel=5 note=74 velocity=71 time=0
EXTRACT: note_on channel=6 note=67 velocity=0 time=0.05232555
EXTRACT: note_on channel=6 note=70 velocity=0 time=0.002906975
EXTRACT: note_on channel=6 note=53 velocity=0 time=0.0072674375
EXTRACT: note_on channel=6 note=75 velocity=0 time=0
EXTRACT: note_on channel=3 note=58 velocity=0 time=0.0392441625
EXTRACT: note_on channel=3 note=77 velocity=0 time=0.043604625
EXTRACT: note_on channel=5 note=74 velocity=0 time=0.026162775
EXTRACT: note_on channel=5 note=75 velocity=76 time=0.002906975
EXTRACT: note_on channel=3 note=77 velocity=72 time=0.0043604625000000004
EXTRACT: note_on channel=7 note=60 velocity=0 time=0.0276162625
EXTRACT: note_on channel=3 note=77 velocity=0 time=0.119185975
EXTRACT: note_on channel=3 note=79 velocity=72 time=0.0159883625
EXTRACT: note_on channel=5 note=75 velocity=0 time=0.0043604625000000004
EXTRACT: note_on channel=5 note=77 velocity=75 time=0.0043604625000000004
EXTRACT: note_on channel=1 note=29 velocity=0 time=0.061046475
EXTRACT: control_change channel=6 control=64 value=0 time=0.020348825
EXTRACT: note_on channel=3 note=79 velocity=0 time=0.04069765
EXTRACT: note_on channel=5 note=72 velocity=0 time=0.0479650875
EXTRACT: note_on channel=5 note=77 velocity=0 time=0.002906975
EXTRACT: note_on channel=1 note=34 velocity=127 time=0
EXTRACT: note_on channel=3 note=82 velocity=72 time=0
EXTRACT: note_on channel=7 note=72 velocity=51 time=0
EXTRACT: note_on channel=9 note=36 velocity=116 time=0
EXTRACT: note_on channel=9 note=36 velocity=0 time=0
EXTRACT: control_change channel=6 control=64 value=127 time=0.0813953
EXTRACT: pitchwheel channel=5 pitch=-6656 time=0.0218023125
EXTRACT: pitchwheel channel=5 pitch=-7296 time=0.00581395
EXTRACT: pitchwheel channel=5 pitch=-8064 time=0.00581395
EXTRACT: note_on channel=3 note=82 velocity=0 time=0.09883715
EXTRACT: note_on channel=3 note=79 velocity=72 time=0.1235464375
EXTRACT: note_on channel=6 note=86 velocity=82 time=0.0101744125
EXTRACT: note_on channel=6 note=77 velocity=68 time=0
EXTRACT: note_on channel=9 note=69 velocity=88 time=0.0014534875
EXTRACT: note_on channel=9 note=69 velocity=0 time=0
EXTRACT: note_on channel=7 note=67 velocity=0 time=0.031976725
EXTRACT: note_on channel=6 note=86 velocity=0 time=0.1177324875
EXTRACT: note_on channel=6 note=77 velocity=0 time=0.0014534875
EXTRACT: note_on channel=3 note=79 velocity=0 time=0.0101744125
EXTRACT: note_on channel=9 note=69 velocity=82 time=0.0130813875
EXTRACT: note_on channel=9 note=69 velocity=0 time=0
EXTRACT: note_on channel=1 note=34 velocity=0 time=0.13953480000000001
EXTRACT: note_on channel=3 note=82 velocity=72 time=0.017441850000000002
EXTRACT: note_on channel=6 note=82 velocity=71 time=0.0159883625
EXTRACT: note_on channel=6 note=89 velocity=75 time=0
EXTRACT: note_on channel=5 note=70 velocity=78 time=0.0014534875
EXTRACT: note_on channel=5 note=74 velocity=78 time=0
EXTRACT: note_on channel=7 note=79 velocity=42 time=0
EXTRACT: note_on channel=9 note=39 velocity=126 time=0
EXTRACT: note_on channel=9 note=39 velocity=0 time=0
EXTRACT: pitchwheel channel=5 pitch=-6784 time=0.034883700000000004
EXTRACT: pitchwheel channel=5 pitch=-5120 time=0.00581395
EXTRACT: pitchwheel channel=5 pitch=-3584 time=0.00581395
EXTRACT: pitchwheel channel=5 pitch=-1792 time=0.00581395
EXTRACT: pitchwheel channel=5 pitch=-384 time=0.0072674375
EXTRACT: pitchwheel channel=5 pitch=0 time=0.00581395
EXTRACT: note_on channel=6 note=89 velocity=0 time=0.06976740000000001
EXTRACT: note_on channel=6 note=82 velocity=0 time=0.0450581125
EXTRACT: note_on channel=3 note=82 velocity=0 time=0.0363371875
EXTRACT: note_on channel=3 note=79 velocity=72 time=0.124999925
EXTRACT: note_on channel=6 note=86 velocity=78 time=0.0072674375
EXTRACT: note_on channel=7 note=72 velocity=0 time=0.031976725
EXTRACT: note_on channel=6 note=86 velocity=0 time=0.1046511
EXTRACT: note_on channel=3 note=79 velocity=0 time=0.031976725
EXTRACT: note_on channel=1 note=34 velocity=103 time=0.00581395
EXTRACT: note_on channel=9 note=36 velocity=75 time=0
EXTRACT: note_on channel=9 note=36 velocity=0 time=0
EXTRACT: note_on channel=1 note=34 velocity=0 time=0.0624999625
EXTRACT: note_on channel=3 note=82 velocity=72 time=0.09883715
EXTRACT: note_on channel=5 note=70 velocity=0 time=0.0101744125
EXTRACT: note_on channel=5 note=74 velocity=0 time=0
EXTRACT: note_on channel=6 note=77 velocity=71 time=0.0014534875
EXTRACT: note_on channel=6 note=84 velocity=81 time=0
EXTRACT: note_on channel=1 note=34 velocity=127 time=0.0014534875
EXTRACT: note_on channel=4 note=77 velocity=76 time=0
EXTRACT: note_on channel=5 note=69 velocity=78 time=0
EXTRACT: note_on channel=5 note=72 velocity=78 time=0
EXTRACT: note_on channel=7 note=84 velocity=37 time=0
EXTRACT: note_on channel=9 note=36 velocity=119 time=0
EXTRACT: note_on channel=9 note=36 velocity=0 time=0
EXTRACT: control_change channel=6 control=64 value=127 time=0.0276162625
EXTRACT: control_change channel=6 control=64 value=0 time=0.0363371875
EXTRACT: control_change channel=6 control=64 value=127 time=0.0813953
EXTRACT: note_on channel=3 note=82 velocity=0 time=0.159883625
EXTRACT: note_on channel=6 note=84 velocity=0 time=0.0116279
EXTRACT: note_on channel=4 note=77 velocity=0 time=0.0014534875
EXTRACT: note_on channel=6 note=77 velocity=0 time=0.0072674375
EXTRACT: note_on channel=3 note=84 velocity=72 time=0.020348825
EXTRACT: note_on channel=4 note=79 velocity=76 time=0.002906975
EXTRACT: note_on channel=6 note=81 velocity=78 time=0
EXTRACT: note_on channel=9 note=36 velocity=108 time=0
EXTRACT: note_on channel=9 note=36 velocity=0 time=0
EXTRACT: note_on channel=9 note=69 velocity=85 time=0
EXTRACT: note_on channel=9 note=69 velocity=0 time=0
EXTRACT: note_on channel=7 note=79 velocity=0 time=0.031976725
EXTRACT: note_on channel=3 note=84 velocity=0 time=0.0741278625
EXTRACT: note_on channel=4 note=79 velocity=0 time=0.0014534875
EXTRACT: note_on channel=6 note=81 velocity=0 time=0.037790675
EXTRACT: note_on channel=9 note=69 velocity=81 time=0.02906975
EXTRACT: note_on channel=9 note=69 velocity=0 time=0
EXTRACT: note_on channel=3 note=82 velocity=72 time=0.0043604625000000004
EXTRACT: note_on channel=4 note=77 velocity=78 time=0.0116279
EXTRACT: note_on channel=6 note=89 velocity=70 time=0.1584301375
EXTRACT: note_on channel=9 note=39 velocity=123 time=0
EXTRACT: note_on channel=9 note=39 velocity=0 time=0
EXTRACT: note_on channel=1 note=34 velocity=0 time=0.0043604625000000004
EXTRACT: note_on channel=3 note=82 velocity=0 time=0.0218023125
EXTRACT: note_on channel=4 note=77 velocity=0 time=0.0116279
EXTRACT: note_on channel=3 note=77 velocity=72 time=0.1409882875
EXTRACT: note_on channel=6 note=89 velocity=0 time=0.0363371875
EXTRACT: note_on channel=3 note=77 velocity=0 time=0.06395345
EXTRACT: note_on channel=6 note=84 velocity=72 time=0.06976740000000001
EXTRACT: note_on channel=3 note=77 velocity=70 time=0.0101744125
EXTRACT: note_on channel=7 note=84 velocity=0 time=0.0218023125
EXTRACT: note_on channel=6 note=84 velocity=0 time=0.0944766875
EXTRACT: note_on channel=3 note=79 velocity=72 time=0.0566860125
EXTRACT: note_on channel=3 note=77 velocity=0 time=0.0159883625
EXTRACT: note_on channel=3 note=79 velocity=0 time=0.1061045875
EXTRACT: control_change channel=6 control=64 value=0 time=0.026162775
EXTRACT: note_on channel=5 note=69 velocity=0 time=0.014534875
EXTRACT: note_on channel=5 note=72 velocity=0 time=0
EXTRACT: note_on channel=1 note=34 velocity=121 time=0.002906975
EXTRACT: note_on channel=3 note=82 velocity=72 time=0
EXTRACT: note_on channel=5 note=67 velocity=78 time=0
EXTRACT: note_on channel=5 note=70 velocity=78 time=0
EXTRACT: note_on channel=9 note=36 velocity=116 time=0
EXTRACT: note_on channel=9 note=36 velocity=0 time=0
EXTRACT: control_change channel=6 control=64 value=0 time=0.0188953375
EXTRACT: note_on channel=3 note=82 velocity=0 time=0.1627906
EXTRACT: note_on channel=3 note=79 velocity=70 time=0.1584301375
EXTRACT: note_on channel=6 note=82 velocity=75 time=0.00581395
EXTRACT: note_on channel=9 note=69 velocity=88 time=0.002906975
EXTRACT: note_on channel=9 note=69 velocity=0 time=0
EXTRACT: note_on channel=3 note=82 velocity=72 time=0.1744185
EXTRACT: note_on channel=9 note=69 velocity=82 time=0
EXTRACT: note_on channel=9 note=69 velocity=0 time=0
EXTRACT: note_on channel=3 note=79 velocity=0 time=0.017441850000000002
EXTRACT: note_on channel=1 note=34 velocity=0 time=0.142441775
EXTRACT: note_on channel=6 note=87 velocity=81 time=0.0130813875
EXTRACT: note_on channel=6 note=79 velocity=73 time=0
EXTRACT: note_on channel=9 note=39 velocity=126 time=0.0014534875
EXTRACT: note_on channel=9 note=39 velocity=0 time=0
EXTRACT: note_on channel=3 note=82 velocity=0 time=0.00581395
EXTRACT: control_change channel=6 control=64 value=127 time=0.0130813875
EXTRACT: note_on channel=6 note=82 velocity=0 time=0.0276162625
EXTRACT: note_on channel=3 note=77 velocity=72 time=0.1279069
EXTRACT: note_on channel=3 note=77 velocity=0 time=0.119185975
EXTRACT: note_on channel=6 note=87 velocity=0 time=0.0334302125
EXTRACT: note_on channel=3 note=77 velocity=72 time=0.0218023125
EXTRACT: note_on channel=6 note=82 velocity=73 time=0
EXTRACT: note_on channel=6 note=79 velocity=0 time=0.002906975
EXTRACT: note_on channel=3 note=77 velocity=0 time=0.1235464375
EXTRACT: note_on channel=3 note=79 velocity=72 time=0.043604625
EXTRACT: note_on channel=1 note=34 velocity=105 time=0.0043604625000000004
EXTRACT: note_on channel=9 note=36 velocity=75 time=0
EXTRACT: note_on channel=9 note=36 velocity=0 time=0
EXTRACT: note_on channel=1 note=34 velocity=0 time=0.0537790375
EXTRACT: control_change channel=6 control=64 value=0 time=0.049418575
EXTRACT: note_on channel=6 note=82 velocity=0 time=0.02906975
EXTRACT: note_on channel=3 note=79 velocity=0 time=0.0188953375
EXTRACT: note_on channel=5 note=67 velocity=0 time=0.020348825
EXTRACT: note_on channel=3 note=82 velocity=72 time=0.0014534875
EXTRACT: note_on channel=1 note=34 velocity=121 time=0.0014534875
EXTRACT: note_on channel=4 note=77 velocity=76 time=0
EXTRACT: note_on channel=5 note=66 velocity=78 time=0
EXTRACT: note_on channel=9 note=36 velocity=119 time=0
EXTRACT: note_on channel=9 note=36 velocity=0 time=0
EXTRACT: note_on channel=3 note=82 velocity=0 time=0.2223835875
EXTRACT: note_on channel=4 note=77 velocity=0 time=0
EXTRACT: note_on channel=3 note=84 velocity=72 time=0.12209295
EXTRACT: note_on channel=4 note=79 velocity=77 time=0
EXTRACT: note_on channel=6 note=78 velocity=70 time=0.0043604625000000004
EXTRACT: note_on channel=9 note=36 velocity=108 time=0
EXTRACT: note_on channel=9 note=36 velocity=0 time=0
EXTRACT: note_on channel=9 note=69 velocity=85 time=0
EXTRACT: note_on channel=9 note=69 velocity=0 time=0
EXTRACT: note_on channel=3 note=84 velocity=0 time=0.1526161875
EXTRACT: note_on channel=4 note=79 velocity=0 time=0.0014534875
EXTRACT: note_on channel=3 note=82 velocity=70 time=0.017441850000000002
EXTRACT: note_on channel=4 note=77 velocity=76 time=0
EXTRACT: note_on channel=9 note=69 velocity=81 time=0.002906975
EXTRACT: note_on channel=9 note=69 velocity=0 time=0
EXTRACT: note_on channel=6 note=87 velocity=83 time=0.1729650125
EXTRACT: note_on channel=4 note=82 velocity=78 time=0.0014534875
EXTRACT: note_on channel=6 note=82 velocity=71 time=0
EXTRACT: note_on channel=9 note=39 velocity=123 time=0
EXTRACT: note_on channel=9 note=39 velocity=0 time=0
EXTRACT: note_on channel=1 note=34 velocity=0 time=0.0043604625000000004
EXTRACT: note_on channel=6 note=78 velocity=0 time=0.0232558
EXTRACT: note_on channel=3 note=82 velocity=0 time=0.002906975
EXTRACT: note_on channel=4 note=77 velocity=0 time=0
EXTRACT: note_on channel=3 note=74 velocity=72 time=0.1409882875
EXTRACT: note_on channel=4 note=82 velocity=0 time=0.0595929875
EXTRACT: note_on channel=4 note=81 velocity=78 time=0.0014534875
EXTRACT: control_change channel=6 control=64 value=127 time=0.0043604625000000004
EXTRACT: note_on channel=3 note=74 velocity=0 time=0.0581395
EXTRACT: note_on channel=6 note=82 velocity=0 time=0.0508720625
EXTRACT: note_on channel=3 note=74 velocity=71 time=0.0014534875
EXTRACT: note_on channel=6 note=78 velocity=78 time=0.0014534875
EXTRACT: note_on channel=6 note=87 velocity=0 time=0.1031976125
EXTRACT: note_on channel=4 note=81 velocity=0 time=0.0116279
EXTRACT: note_on channel=4 note=79 velocity=78 time=0.0014534875
EXTRACT: note_on channel=3 note=74 velocity=0 time=0.017441850000000002
EXTRACT: note_on channel=3 note=75 velocity=69 time=0.0392441625
EXTRACT: note_on channel=9 note=84 velocity=76 time=0.0014534875
EXTRACT: note_on channel=9 note=84 velocity=0 time=0
EXTRACT: note_on channel=6 note=78 velocity=0 time=0.0305232375
EXTRACT: note_on channel=5 note=66 velocity=0 time=0.1409882875
EXTRACT: note_on channel=5 note=70 velocity=0 time=0
EXTRACT: note_on channel=4 note=79 velocity=0 time=0.0014534875
EXTRACT: note_on channel=3 note=77 velocity=72 time=0
EXTRACT: note_on channel=1 note=34 velocity=127 time=0.0014534875
EXTRACT: note_on channel=9 note=36 velocity=116 time=0
EXTRACT: note_on channel=9 note=36 velocity=0 time=0
EXTRACT: note_on channel=4 note=77 velocity=78 time=0.0014534875
EXTRACT: note_on channel=3 note=75 velocity=0 time=0.002906975
EXTRACT: control_change channel=6 control=64 value=0 time=0.037790675
EXTRACT: pitchwheel channel=5 pitch=-6656 time=0.061046475
EXTRACT: pitchwheel channel=5 pitch=-7296 time=0.00581395
EXTRACT: pitchwheel channel=5 pitch=-8064 time=0.00581395
EXTRACT: note_on channel=4 note=77 velocity=0 time=0.1177324875
EXTRACT: note_on channel=4 note=74 velocity=78 time=0.0014534875
EXTRACT: note_on channel=3 note=77 velocity=0 time=0.0130813875
EXTRACT: control_change channel=6 control=64 value=127 time=0.0915697125
EXTRACT: note_on channel=3 note=74 velocity=70 time=0.0072674375
EXTRACT: note_on channel=6 note=86 velocity=83 time=0
EXTRACT: note_on channel=6 note=77 velocity=60 time=0.0014534875
EXTRACT: note_on channel=9 note=69 velocity=88 time=0.0014534875
EXTRACT: note_on channel=9 note=69 velocity=0 time=0
EXTRACT: note_on channel=4 note=74 velocity=0 time=0.1148255125
EXTRACT: note_on channel=4 note=72 velocity=78 time=0.002906975
EXTRACT: note_on channel=9 note=69 velocity=82 time=0.0566860125
EXTRACT: note_on channel=9 note=69 velocity=0 time=0
EXTRACT: note_on channel=3 note=74 velocity=0 time=0.0116279
EXTRACT: note_on channel=6 note=77 velocity=0 time=0.008720925000000001
EXTRACT: note_on channel=6 note=86 velocity=0 time=0.008720925000000001
EXTRACT: note_on channel=1 note=34 velocity=0 time=0.12209295
EXTRACT: note_on channel=3 note=77 velocity=72 time=0.020348825
EXTRACT: note_on channel=6 note=82 velocity=80 time=0
EXTRACT: note_on channel=4 note=72 velocity=0 time=0.002906975
EXTRACT: note_on channel=5 note=70 velocity=78 time=0
EXTRACT: note_on channel=5 note=74 velocity=78 time=0
EXTRACT: note_on channel=6 note=74 velocity=67 time=0
EXTRACT: note_on channel=9 note=39 velocity=126 time=0
EXTRACT: note_on channel=9 note=39 velocity=0 time=0
EXTRACT: note_on channel=4 note=70 velocity=78 time=0.0014534875
EXTRACT: pitchwheel channel=5 pitch=-6784 time=0.0334302125
EXTRACT: pitchwheel channel=5 pitch=-5120 time=0.00581395
EXTRACT: pitchwheel channel=5 pitch=-3584 time=0.00581395
EXTRACT: pitchwheel channel=5 pitch=-1792 time=0.00581395
EXTRACT: pitchwheel channel=5 pitch=-384 time=0.0072674375
EXTRACT: pitchwheel channel=5 pitch=0 time=0.00581395
EXTRACT: note_on channel=6 note=74 velocity=0 time=0.066860425
EXTRACT: note_on channel=6 note=82 velocity=0 time=0.0043604625000000004
EXTRACT: note_on channel=3 note=77 velocity=0 time=0.1845929125
EXTRACT: note_on channel=6 note=77 velocity=73 time=0.0247092875
EXTRACT: note_on channel=3 note=74 velocity=70 time=0.0014534875
EXTRACT: note_on channel=6 note=70 velocity=73 time=0.0014534875
EXTRACT: note_on channel=1 note=34 velocity=99 time=0.1744185
EXTRACT: note_on channel=9 note=36 velocity=75 time=0
EXTRACT: note_on channel=9 note=36 velocity=0 time=0
EXTRACT: note_on channel=3 note=74 velocity=0 time=0.0392441625
EXTRACT: note_on channel=1 note=34 velocity=0 time=0.0159883625
EXTRACT: note_on channel=6 note=77 velocity=0 time=0.078488325
EXTRACT: note_on channel=6 note=70 velocity=0 time=0.002906975
EXTRACT: note_on channel=5 note=70 velocity=0 time=0.034883700000000004
EXTRACT: note_on channel=5 note=74 velocity=0 time=0
EXTRACT: note_on channel=1 note=34 velocity=127 time=0.002906975
EXTRACT: note_on channel=3 note=77 velocity=72 time=0
EXTRACT: note_on channel=5 note=69 velocity=78 time=0
EXTRACT: note_on channel=5 note=72 velocity=78 time=0
EXTRACT: note_on channel=6 note=72 velocity=85 time=0
EXTRACT: note_on channel=9 note=36 velocity=119 time=0
EXTRACT: note_on channel=9 note=36 velocity=0 time=0
EXTRACT: control_change channel=6 control=64 value=0 time=0.02906975
EXTRACT: control_change channel=6 control=64 value=127 time=0.014534875
EXTRACT: note_on channel=3 note=77 velocity=0 time=0.1700580375
EXTRACT: note_on channel=4 note=70 velocity=0 time=0.0188953375
EXTRACT: note_on channel=3 note=79 velocity=70 time=0.1148255125
EXTRACT: note_on channel=6 note=69 velocity=80 time=0.0014534875
EXTRACT: note_on channel=9 note=36 velocity=108 time=0
EXTRACT: note_on channel=9 note=36 velocity=0 time=0
EXTRACT: note_on channel=9 note=69 velocity=85 time=0
EXTRACT: note_on channel=9 note=69 velocity=0 time=0
EXTRACT: note_on channel=6 note=72 velocity=0 time=0.0276162625
EXTRACT: note_on channel=6 note=69 velocity=0 time=0.1046511
EXTRACT: note_on channel=3 note=79 velocity=0 time=0.04069765
EXTRACT: note_on channel=3 note=77 velocity=70 time=0.0014534875
EXTRACT: note_on channel=9 note=69 velocity=81 time=0
EXTRACT: note_on channel=9 note=69 velocity=0 time=0
EXTRACT: note_on channel=6 note=84 velocity=85 time=0.1729650125
EXTRACT: note_on channel=6 note=77 velocity=73 time=0.0014534875
EXTRACT: note_on channel=9 note=39 velocity=123 time=0
EXTRACT: note_on channel=9 note=39 velocity=0 time=0
EXTRACT: note_on channel=3 note=77 velocity=0 time=0.07558135
EXTRACT: note_on channel=1 note=34 velocity=0 time=0.0334302125
EXTRACT: note_on channel=3 note=74 velocity=72 time=0.0741278625
EXTRACT: note_on channel=6 note=84 velocity=0 time=0.0116279
EXTRACT: note_on channel=6 note=77 velocity=0 time=0.0043604625000000004
EXTRACT: note_on channel=3 note=74 velocity=0 time=0.08720925
EXTRACT: note_on channel=6 note=81 velocity=82 time=0.0624999625
EXTRACT: note_on channel=3 note=74 velocity=72 time=0.0072674375
EXTRACT: note_on channel=3 note=74 velocity=0 time=0.1438952625
EXTRACT: note_on channel=6 note=81 velocity=0 time=0.00581395
EXTRACT: note_on channel=3 note=75 velocity=70 time=0.0188953375
EXTRACT: note_on channel=3 note=75 velocity=0 time=0.1031976125
EXTRACT: control_change channel=6 control=64 value=0 time=0.04069765
EXTRACT: note_on channel=6 note=53 velocity=81 time=0.0218023125
EXTRACT: note_on channel=5 note=72 velocity=0 time=0.0043604625000000004
EXTRACT: note_on channel=5 note=69 velocity=0 time=0
EXTRACT: note_on channel=1 note=29 velocity=127 time=0.002906975
EXTRACT: note_on channel=3 note=77 velocity=70 time=0
EXTRACT: note_on channel=5 note=67 velocity=78 time=0
EXTRACT: note_on channel=5 note=70 velocity=78 time=0
EXTRACT: note_on channel=7 note=49 velocity=62 time=0
EXTRACT: note_on channel=9 note=36 velocity=116 time=0
EXTRACT: note_on channel=9 note=36 velocity=0 time=0
EXTRACT: note_on channel=6 note=67 velocity=87 time=0.00581395
EXTRACT: note_on channel=6 note=70 velocity=82 time=0.0014534875
EXTRACT: note_on channel=6 note=63 velocity=73 time=0
EXTRACT: control_change channel=6 control=64 value=127 time=0.014534875
EXTRACT: note_on channel=6 note=53 velocity=0 time=0.27325565
EXTRACT: note_on channel=3 note=77 velocity=0 time=0.017441850000000002
EXTRACT: note_on channel=9 note=69 velocity=88 time=0.0363371875
EXTRACT: note_on channel=9 note=69 velocity=0 time=0
EXTRACT: note_on channel=3 note=74 velocity=72 time=0.0014534875
EXTRACT: note_on channel=6 note=67 velocity=0 time=0.002906975
EXTRACT: note_on channel=6 note=70 velocity=0 time=0.0014534875
EXTRACT: note_on channel=6 note=63 velocity=0 time=0
EXTRACT: note_on channel=3 note=74 velocity=0 time=0.0973836625
EXTRACT: note_on channel=3 note=74 velocity=70 time=0.0683139125
EXTRACT: note_on channel=9 note=69 velocity=82 time=0.002906975
EXTRACT: note_on channel=9 note=69 velocity=0 time=0
EXTRACT: note_on channel=1 note=29 velocity=0 time=0.0508720625
EXTRACT: note_on channel=3 note=74 velocity=0 time=0.06395345
EXTRACT: control_change channel=6 control=64 value=0 time=0.0188953375
EXTRACT: note_on channel=6 note=53 velocity=77 time=0.031976725
EXTRACT: note_on channel=6 note=69 velocity=80 time=0.0014534875
EXTRACT: note_on channel=6 note=72 velocity=77 time=0.0014534875
EXTRACT: note_on channel=6 note=65 velocity=66 time=0.0014534875
EXTRACT: note_on channel=5 note=67 velocity=0 time=0.0014534875
EXTRACT: note_on channel=5 note=70 velocity=0 time=0
EXTRACT: note_on channel=3 note=77 velocity=72 time=0.0014534875
EXTRACT: note_on channel=1 note=29 velocity=126 time=0.0014534875
EXTRACT: note_on channel=5 note=69 velocity=78 time=0
EXTRACT: note_on channel=5 note=72 velocity=78 time=0
EXTRACT: note_on channel=7 note=55 velocity=62 time=0
EXTRACT: note_on channel=9 note=36 velocity=119 time=0
EXTRACT: note_on channel=9 note=36 velocity=0 time=0
EXTRACT: control_change channel=6 control=64 value=127 time=0.14534875
EXTRACT: note_on channel=3 note=77 velocity=0 time=0.136627825
EXTRACT: note_on channel=6 note=65 velocity=0 time=0.0232558
EXTRACT: note_on channel=6 note=69 velocity=0 time=0.0276162625
EXTRACT: note_on channel=6 note=72 velocity=0 time=0.002906975
EXTRACT: note_on channel=3 note=74 velocity=72 time=0.0043604625000000004
EXTRACT: note_on channel=6 note=53 velocity=0 time=0.0116279
EXTRACT: note_on channel=7 note=49 velocity=0 time=0.02906975
EXTRACT: note_on channel=1 note=29 velocity=0 time=0.1874998875
EXTRACT: note_on channel=3 note=74 velocity=0 time=0.0479650875
EXTRACT: control_change channel=6 control=64 value=0 time=0.06395345
EXTRACT: note_on channel=6 note=70 velocity=76 time=0.0101744125
EXTRACT: note_on channel=6 note=67 velocity=83 time=0.0014534875
EXTRACT: note_on channel=6 note=53 velocity=80 time=0.0014534875
EXTRACT: note_on channel=5 note=69 velocity=0 time=0.0014534875
EXTRACT: note_on channel=5 note=72 velocity=0 time=0
EXTRACT: note_on channel=6 note=74 velocity=84 time=0
EXTRACT: note_on channel=1 note=29 velocity=127 time=0.002906975
EXTRACT: note_on channel=4 note=82 velocity=76 time=0
EXTRACT: note_on channel=5 note=70 velocity=78 time=0
EXTRACT: note_on channel=5 note=74 velocity=78 time=0
EXTRACT: note_on channel=7 note=60 velocity=62 time=0
EXTRACT: note_on channel=9 note=36 velocity=108 time=0
EXTRACT: note_on channel=9 note=36 velocity=0 time=0
EXTRACT: note_on channel=3 note=77 velocity=72 time=0.0014534875
EXTRACT: control_change channel=6 control=64 value=127 time=0.1613371125
EXTRACT: note_on channel=4 note=82 velocity=0 time=0.0624999625
EXTRACT: note_on channel=3 note=77 velocity=0 time=0.002906975
EXTRACT: note_on channel=6 note=74 velocity=0 time=0.0218023125
EXTRACT: note_on channel=6 note=67 velocity=0 time=0.0072674375
EXTRACT: note_on channel=6 note=70 velocity=0 time=0.00581395
EXTRACT: note_on channel=6 note=53 velocity=0 time=0.014534875
EXTRACT: note_on channel=4 note=84 velocity=76 time=0.066860425
EXTRACT: note_on channel=3 note=79 velocity=72 time=0.0014534875
EXTRACT: note_on channel=9 note=69 velocity=85 time=0.002906975
EXTRACT: note_on channel=9 note=69 velocity=0 time=0
EXTRACT: note_on channel=7 note=55 velocity=0 time=0.031976725
EXTRACT: note_on channel=4 note=84 velocity=0 time=0.136627825
EXTRACT: note_on channel=3 note=79 velocity=0 time=0.0014534875
EXTRACT: note_on channel=4 note=82 velocity=75 time=0.002906975
EXTRACT: note_on channel=3 note=77 velocity=70 time=0.0014534875
EXTRACT: note_on channel=9 note=69 velocity=81 time=0
EXTRACT: note_on channel=9 note=69 velocity=0 time=0
EXTRACT: note_on channel=1 note=29 velocity=0 time=0.049418575
EXTRACT: control_change channel=6 control=64 value=0 time=0.0930232
EXTRACT: note_on channel=5 note=70 velocity=0 time=0.02906975
EXTRACT: note_on channel=5 note=74 velocity=0 time=0
EXTRACT: note_on channel=6 note=53 velocity=76 time=0
EXTRACT: note_on channel=1 note=29 velocity=127 time=0.002906975
EXTRACT: note_on channel=5 note=72 velocity=78 time=0
EXTRACT: note_on channel=5 note=75 velocity=76 time=0
EXTRACT: note_on channel=6 note=70 velocity=86 time=0
EXTRACT: note_on channel=6 note=67 velocity=75 time=0
EXTRACT: note_on channel=6 note=75 velocity=84 time=0
EXTRACT: note_on channel=7 note=67 velocity=62 time=0
EXTRACT: note_on channel=9 note=36 velocity=119 time=0
EXTRACT: note_on channel=9 note=36 velocity=0 time=0
EXTRACT: note_on channel=4 note=82 velocity=0 time=0.0624999625
EXTRACT: note_on channel=3 note=77 velocity=0 time=0.0014534875
EXTRACT: control_change channel=6 control=64 value=127 time=0.037790675
EXTRACT: note_on channel=5 note=75 velocity=0 time=0.06976740000000001
EXTRACT: note_on channel=5 note=74 velocity=71 time=0.002906975
EXTRACT: note_on channel=6 note=67 velocity=0 time=0.05232555
EXTRACT: note_on channel=6 note=70 velocity=0 time=0.002906975
EXTRACT: note_on channel=6 note=53 velocity=0 time=0.0072674375
EXTRACT: note_on channel=6 note=75 velocity=0 time=0
EXTRACT: note_on channel=5 note=74 velocity=0 time=0.1090115625
EXTRACT: note_on channel=5 note=75 velocity=76 time=0.002906975
EXTRACT: note_on channel=3 note=70 velocity=71 time=0.00581395
EXTRACT: note_on channel=7 note=60 velocity=0 time=0.026162775
EXTRACT: note_on channel=3 note=72 velocity=70 time=0.1264534125
EXTRACT: note_on channel=5 note=75 velocity=0 time=0.0130813875
EXTRACT: note_on channel=3 note=70 velocity=0 time=0.002906975
EXTRACT: note_on channel=5 note=77 velocity=75 time=0.0014534875
EXTRACT: note_on channel=1 note=29 velocity=0 time=0.061046475
EXTRACT: control_change channel=6 control=64 value=0 time=0.020348825
EXTRACT: note_on channel=3 note=72 velocity=0 time=0.084302275
EXTRACT: note_on channel=5 note=72 velocity=0 time=0.0043604625000000004
EXTRACT: note_on channel=5 note=77 velocity=0 time=0.002906975
EXTRACT: note_on channel=1 note=34 velocity=127 time=0
EXTRACT: note_on channel=7 note=72 velocity=51 time=0
EXTRACT: note_on channel=9 note=36 velocity=116 time=0
EXTRACT: note_on channel=9 note=36 velocity=0 time=0
EXTRACT: note_on channel=3 note=74 velocity=70 time=0.0232558
EXTRACT: control_change channel=6 control=64 value=127 time=0.0581395
EXTRACT: pitchwheel channel=5 pitch=-6656 time=0.0218023125
EXTRACT: pitchwheel channel=5 pitch=-7296 time=0.00581395
EXTRACT: pitchwheel channel=5 pitch=-8064 time=0.00581395
EXTRACT: note_on channel=3 note=74 velocity=0 time=0.1526161875
EXTRACT: note_on channel=4 note=86 velocity=78 time=0.06976740000000001
EXTRACT: note_on channel=6 note=86 velocity=82 time=0.0101744125
EXTRACT: note_on channel=6 note=77 velocity=68 time=0
EXTRACT: note_on channel=9 note=69 velocity=88 time=0.0014534875
EXTRACT: note_on channel=9 note=69 velocity=0 time=0
EXTRACT: note_on channel=4 note=82 velocity=76 time=0.0014534875
EXTRACT: note_on channel=3 note=74 velocity=72 time=0.0159883625
EXTRACT: note_on channel=7 note=67 velocity=0 time=0.014534875
EXTRACT: note_on channel=4 note=82 velocity=0 time=0.0886627375
EXTRACT: note_on channel=6 note=86 velocity=0 time=0.02906975
EXTRACT: note_on channel=6 note=77 velocity=0 time=0.0014534875
EXTRACT: note_on channel=4 note=86 velocity=0 time=0.0014534875
EXTRACT: note_on channel=4 note=87 velocity=76 time=0.020348825
EXTRACT: note_on channel=4 note=84 velocity=76 time=0
EXTRACT: note_on channel=9 note=69 velocity=82 time=0.0014534875
EXTRACT: note_on channel=9 note=69 velocity=0 time=0
EXTRACT: note_on channel=3 note=74 velocity=0 time=0.0683139125
EXTRACT: note_on channel=1 note=34 velocity=0 time=0.0712208875
EXTRACT: note_on channel=4 note=84 velocity=0 time=0.0218023125
EXTRACT: note_on channel=4 note=82 velocity=76 time=0.0116279
EXTRACT: note_on channel=6 note=82 velocity=71 time=0
EXTRACT: note_on channel=6 note=89 velocity=75 time=0
EXTRACT: note_on channel=4 note=87 velocity=0 time=0.0014534875
EXTRACT: note_on channel=4 note=86 velocity=76 time=0
EXTRACT: note_on channel=5 note=70 velocity=78 time=0
EXTRACT: note_on channel=5 note=74 velocity=78 time=0
EXTRACT: note_on channel=7 note=79 velocity=42 time=0
EXTRACT: note_on channel=9 note=39 velocity=126 time=0
EXTRACT: note_on channel=9 note=39 velocity=0 time=0
EXTRACT: note_on channel=3 note=74 velocity=72 time=0.008720925000000001
EXTRACT: pitchwheel channel=5 pitch=-6784 time=0.026162775
EXTRACT: pitchwheel channel=5 pitch=-5120 time=0.00581395
EXTRACT: pitchwheel channel=5 pitch=-3584 time=0.00581395
EXTRACT: pitchwheel channel=5 pitch=-1792 time=0.00581395
EXTRACT: pitchwheel channel=5 pitch=-384 time=0.0072674375
EXTRACT: pitchwheel channel=5 pitch=0 time=0.00581395
EXTRACT: note_on channel=4 note=82 velocity=0 time=0.055232525
EXTRACT: note_on channel=6 note=89 velocity=0 time=0.014534875
EXTRACT: note_on channel=4 note=84 velocity=76 time=0.034883700000000004
EXTRACT: note_on channel=4 note=87 velocity=76 time=0.00581395
EXTRACT: note_on channel=6 note=82 velocity=0 time=0.0043604625000000004
EXTRACT: note_on channel=4 note=86 velocity=0 time=0.0116279
EXTRACT: note_on channel=4 note=87 velocity=0 time=0.116279
EXTRACT: note_on channel=4 note=84 velocity=0 time=0.037790675
EXTRACT: note_on channel=4 note=82 velocity=77 time=0.0014534875
EXTRACT: note_on channel=6 note=86 velocity=78 time=0.0014534875
EXTRACT: note_on channel=4 note=86 velocity=77 time=0.0014534875
EXTRACT: note_on channel=7 note=72 velocity=0 time=0.0305232375
EXTRACT: note_on channel=3 note=74 velocity=0 time=0.090116225
EXTRACT: note_on channel=4 note=82 velocity=0 time=0.0043604625000000004
EXTRACT: note_on channel=6 note=86 velocity=0 time=0.0101744125
EXTRACT: note_on channel=4 note=86 velocity=0 time=0.020348825
EXTRACT: note_on channel=4 note=84 velocity=76 time=0.0159883625
EXTRACT: note_on channel=1 note=34 velocity=103 time=0.0014534875
EXTRACT: note_on channel=4 note=87 velocity=76 time=0
EXTRACT: note_on channel=9 note=36 velocity=75 time=0
EXTRACT: note_on channel=9 note=36 velocity=0 time=0
EXTRACT: note_on channel=3 note=75 velocity=72 time=0.04069765
EXTRACT: note_on channel=1 note=34 velocity=0 time=0.0218023125
EXTRACT: note_on channel=4 note=87 velocity=0 time=0.08720925
EXTRACT: note_on channel=5 note=74 velocity=0 time=0.0218023125
EXTRACT: note_on channel=5 note=70 velocity=0 time=0
EXTRACT: note_on channel=4 note=82 velocity=76 time=0.0014534875
EXTRACT: note_on channel=6 note=77 velocity=71 time=0
EXTRACT: note_on channel=6 note=84 velocity=81 time=0
EXTRACT: note_on channel=1 note=34 velocity=127 time=0.0014534875
EXTRACT: note_on channel=4 note=86 velocity=78 time=0
EXTRACT: note_on channel=5 note=69 velocity=78 time=0
EXTRACT: note_on channel=5 note=72 velocity=78 time=0
EXTRACT: note_on channel=7 note=84 velocity=37 time=0
EXTRACT: note_on channel=9 note=36 velocity=119 time=0
EXTRACT: note_on channel=9 note=36 velocity=0 time=0
EXTRACT: note_on channel=4 note=84 velocity=0 time=0.0072674375
EXTRACT: note_on channel=3 note=75 velocity=0 time=0.0101744125
EXTRACT: control_change channel=6 control=64 value=127 time=0.0101744125
EXTRACT: note_on channel=3 note=72 velocity=70 time=0.0014534875
EXTRACT: control_change channel=6 control=64 value=0 time=0.034883700000000004
EXTRACT: control_change channel=6 control=64 value=127 time=0.0813953
EXTRACT: note_on channel=4 note=82 velocity=0 time=0.0072674375
EXTRACT: note_on channel=4 note=86 velocity=0 time=0.0188953375
EXTRACT: note_on channel=4 note=84 velocity=76 time=0
EXTRACT: note_on channel=4 note=87 velocity=78 time=0.002906975
EXTRACT: note_on channel=3 note=72 velocity=0 time=0.0915697125
EXTRACT: note_on channel=4 note=87 velocity=0 time=0.02906975
EXTRACT: note_on channel=6 note=84 velocity=0 time=0.0218023125
EXTRACT: note_on channel=6 note=77 velocity=0 time=0.008720925000000001
EXTRACT: note_on channel=4 note=82 velocity=76 time=0.0232558
EXTRACT: note_on channel=4 note=86 velocity=78 time=0
EXTRACT: note_on channel=6 note=81 velocity=78 time=0
EXTRACT: note_on channel=9 note=36 velocity=108 time=0
EXTRACT: note_on channel=9 note=36 velocity=0 time=0
EXTRACT: note_on channel=9 note=69 velocity=85 time=0
EXTRACT: note_on channel=9 note=69 velocity=0 time=0
EXTRACT: note_on channel=4 note=84 velocity=0 time=0.0014534875
EXTRACT: note_on channel=3 note=72 velocity=72 time=0.0188953375
EXTRACT: note_on channel=7 note=79 velocity=0 time=0.0116279
EXTRACT: note_on channel=6 note=81 velocity=0 time=0.113372025
EXTRACT: note_on channel=9 note=69 velocity=81 time=0.02906975
EXTRACT: note_on channel=9 note=69 velocity=0 time=0
EXTRACT: note_on channel=3 note=72 velocity=0 time=0.037790675
EXTRACT: note_on channel=3 note=72 velocity=72 time=0.113372025
EXTRACT: note_on channel=6 note=89 velocity=70 time=0.0232558
EXTRACT: note_on channel=9 note=39 velocity=123 time=0
EXTRACT: note_on channel=9 note=39 velocity=0 time=0
EXTRACT: note_on channel=4 note=86 velocity=0 time=0.0014534875
EXTRACT: note_on channel=1 note=34 velocity=0 time=0.002906975
EXTRACT: note_on channel=4 note=82 velocity=0 time=0.0116279
EXTRACT: note_on channel=6 note=89 velocity=0 time=0.19912778750000001
EXTRACT: note_on channel=6 note=84 velocity=72 time=0.13372085
EXTRACT: note_on channel=7 note=84 velocity=0 time=0.031976725
EXTRACT: note_on channel=3 note=72 velocity=0 time=0.031976725
EXTRACT: note_on channel=6 note=84 velocity=0 time=0.0624999625
EXTRACT: note_on channel=3 note=74 velocity=70 time=0.0508720625
EXTRACT: note_on channel=3 note=74 velocity=0 time=0.1438952625
EXTRACT: note_on channel=3 note=75 velocity=72 time=0.0072674375
EXTRACT: control_change channel=6 control=64 value=0 time=0.002906975
EXTRACT: note_on channel=5 note=69 velocity=0 time=0.014534875
EXTRACT: note_on channel=5 note=72 velocity=0 time=0
EXTRACT: note_on channel=1 note=34 velocity=121 time=0.002906975
EXTRACT: note_on channel=5 note=67 velocity=78 time=0
EXTRACT: note_on channel=5 note=70 velocity=78 time=0
EXTRACT: note_on channel=9 note=36 velocity=116 time=0
EXTRACT: note_on channel=9 note=36 velocity=0 time=0
EXTRACT: control_change channel=6 control=64 value=0 time=0.0188953375
EXTRACT: note_on channel=3 note=75 velocity=0 time=0.2863370375
EXTRACT: note_on channel=3 note=74 velocity=72 time=0.014534875
EXTRACT: note_on channel=6 note=82 velocity=75 time=0.026162775
EXTRACT: note_on channel=9 note=69 velocity=88 time=0.002906975
EXTRACT: note_on channel=9 note=69 velocity=0 time=0
EXTRACT: note_on channel=4 note=84 velocity=76 time=0.1729650125
EXTRACT: note_on channel=4 note=87 velocity=77 time=0.0014534875
EXTRACT: note_on channel=9 note=69 velocity=82 time=0
EXTRACT: note_on channel=9 note=69 velocity=0 time=0
EXTRACT: note_on channel=3 note=74 velocity=0 time=0.0712208875
EXTRACT: note_on channel=4 note=87 velocity=0 time=0.04069765
EXTRACT: note_on channel=4 note=84 velocity=0 time=0.0232558
EXTRACT: note_on channel=3 note=72 velocity=72 time=0
EXTRACT: note_on channel=1 note=34 velocity=0 time=0.0247092875
EXTRACT: note_on channel=4 note=82 velocity=76 time=0.0130813875
EXTRACT: note_on channel=6 note=87 velocity=81 time=0
EXTRACT: note_on channel=6 note=79 velocity=73 time=0
EXTRACT: note_on channel=4 note=86 velocity=76 time=0.0014534875
EXTRACT: note_on channel=9 note=39 velocity=126 time=0
EXTRACT: note_on channel=9 note=39 velocity=0 time=0
EXTRACT: control_change channel=6 control=64 value=127 time=0.0188953375
EXTRACT: note_on channel=6 note=82 velocity=0 time=0.0276162625
EXTRACT: note_on channel=4 note=86 velocity=0 time=0.0624999625
EXTRACT: note_on channel=4 note=82 velocity=0 time=0.0188953375
EXTRACT: note_on channel=4 note=84 velocity=75 time=0.0450581125
EXTRACT: note_on channel=4 note=87 velocity=75 time=0.0014534875
EXTRACT: note_on channel=4 note=87 velocity=0 time=0.1090115625
EXTRACT: note_on channel=4 note=84 velocity=0 time=0.0014534875
EXTRACT: note_on channel=3 note=72 velocity=0 time=0.0305232375
EXTRACT: note_on channel=6 note=87 velocity=0 time=0.0116279
EXTRACT: note_on channel=3 note=70 velocity=70 time=0.0159883625
EXTRACT: note_on channel=4 note=86 velocity=76 time=0.00581395
EXTRACT: note_on channel=4 note=82 velocity=76 time=0
EXTRACT: note_on channel=6 note=82 velocity=73 time=0
EXTRACT: note_on channel=6 note=79 velocity=0 time=0.002906975
EXTRACT: note_on channel=4 note=82 velocity=0 time=0.1046511
EXTRACT: note_on channel=4 note=86 velocity=0 time=0.0232558
EXTRACT: note_on channel=1 note=34 velocity=105 time=0.043604625
EXTRACT: note_on channel=4 note=87 velocity=75 time=0
EXTRACT: note_on channel=4 note=84 velocity=76 time=0
EXTRACT: note_on channel=9 note=36 velocity=75 time=0
EXTRACT: note_on channel=9 note=36 velocity=0 time=0
EXTRACT: note_on channel=1 note=34 velocity=0 time=0.0537790375
EXTRACT: control_change channel=6 control=64 value=0 time=0.049418575
EXTRACT: note_on channel=4 note=84 velocity=0 time=0.0130813875
EXTRACT: note_on channel=3 note=70 velocity=0 time=0.002906975
EXTRACT: note_on channel=4 note=87 velocity=0 time=0.0014534875
EXTRACT: note_on channel=6 note=82 velocity=0 time=0.0116279
EXTRACT: note_on channel=3 note=72 velocity=72 time=0.031976725
EXTRACT: note_on channel=5 note=67 velocity=0 time=0.0072674375
EXTRACT: note_on channel=4 note=86 velocity=78 time=0.0014534875
EXTRACT: note_on channel=1 note=34 velocity=121 time=0.0014534875
EXTRACT: note_on channel=4 note=82 velocity=77 time=0
EXTRACT: note_on channel=5 note=66 velocity=78 time=0
EXTRACT: note_on channel=9 note=36 velocity=119 time=0
EXTRACT: note_on channel=9 note=36 velocity=0 time=0
EXTRACT: note_on channel=4 note=82 velocity=0 time=0.1002906375
EXTRACT: note_on channel=4 note=86 velocity=0 time=0.0334302125
EXTRACT: note_on channel=4 note=87 velocity=74 time=0.04069765
EXTRACT: note_on channel=4 note=84 velocity=76 time=0
EXTRACT: note_on channel=4 note=84 velocity=0 time=0.1090115625
EXTRACT: note_on channel=4 note=87 velocity=0 time=0.0392441625
EXTRACT: note_on channel=3 note=72 velocity=0 time=0.00581395
EXTRACT: note_on channel=4 note=86 velocity=78 time=0.020348825
EXTRACT: note_on channel=4 note=82 velocity=76 time=0
EXTRACT: note_on channel=6 note=78 velocity=70 time=0
EXTRACT: note_on channel=9 note=36 velocity=108 time=0
EXTRACT: note_on channel=9 note=36 velocity=0 time=0
EXTRACT: note_on channel=9 note=69 velocity=85 time=0
EXTRACT: note_on channel=9 note=69 velocity=0 time=0
EXTRACT: note_on channel=3 note=74 velocity=72 time=0.002906975
EXTRACT: note_on channel=9 note=69 velocity=81 time=0.171511525
EXTRACT: note_on channel=9 note=69 velocity=0 time=0
EXTRACT: note_on channel=4 note=82 velocity=0 time=0.0741278625
EXTRACT: note_on channel=4 note=86 velocity=0 time=0.043604625
EXTRACT: note_on channel=3 note=74 velocity=0 time=0.0276162625
EXTRACT: note_on channel=4 note=84 velocity=76 time=0.0276162625
EXTRACT: note_on channel=6 note=87 velocity=83 time=0
EXTRACT: note_on channel=4 note=79 velocity=76 time=0.0014534875
EXTRACT: note_on channel=6 note=82 velocity=71 time=0
EXTRACT: note_on channel=9 note=39 velocity=123 time=0
EXTRACT: note_on channel=9 note=39 velocity=0 time=0
EXTRACT: note_on channel=1 note=34 velocity=0 time=0.0043604625000000004
EXTRACT: note_on channel=6 note=78 velocity=0 time=0.0232558
EXTRACT: control_change channel=6 control=64 value=127 time=0.2093022
EXTRACT: note_on channel=4 note=79 velocity=0 time=0.04069765
EXTRACT: note_on channel=4 note=84 velocity=0 time=0.049418575
EXTRACT: note_on channel=6 note=82 velocity=0 time=0.0188953375
EXTRACT: note_on channel=4 note=82 velocity=76 time=0.0014534875
EXTRACT: note_on channel=4 note=77 velocity=76 time=0.0014534875
EXTRACT: note_on channel=6 note=78 velocity=78 time=0
EXTRACT: note_on channel=6 note=87 velocity=0 time=0.1031976125
EXTRACT: note_on channel=3 note=72 velocity=71 time=0.061046475
EXTRACT: note_on channel=9 note=84 velocity=76 time=0.0101744125
EXTRACT: note_on channel=9 note=84 velocity=0 time=0
EXTRACT: note_on channel=6 note=78 velocity=0 time=0.0305232375
EXTRACT: note_on channel=4 note=82 velocity=0 time=0.08720925
EXTRACT: note_on channel=3 note=72 velocity=0 time=0.0218023125
EXTRACT: note_on channel=3 note=74 velocity=72 time=0.0101744125
EXTRACT: note_on channel=4 note=77 velocity=0 time=0.00581395
EXTRACT: note_on channel=5 note=70 velocity=0 time=0.0159883625
EXTRACT: note_on channel=5 note=66 velocity=0 time=0
EXTRACT: note_on channel=1 note=34 velocity=127 time=0.002906975
EXTRACT: note_on channel=9 note=36 velocity=116 time=0
EXTRACT: note_on channel=9 note=36 velocity=0 time=0
EXTRACT: control_change channel=6 control=64 value=0 time=0.0421511375
EXTRACT: pitchwheel channel=5 pitch=-6656 time=0.061046475
EXTRACT: pitchwheel channel=5 pitch=-7296 time=0.00581395
EXTRACT: pitchwheel channel=5 pitch=-8064 time=0.00581395
EXTRACT: note_on channel=3 note=74 velocity=0 time=0.136627825
EXTRACT: note_on channel=3 note=74 velocity=72 time=0.0799418125
EXTRACT: control_change channel=6 control=64 value=127 time=0.0072674375
EXTRACT: note_on channel=6 note=86 velocity=83 time=0.0072674375
EXTRACT: note_on channel=6 note=77 velocity=60 time=0.0014534875
EXTRACT: note_on channel=9 note=69 velocity=88 time=0.0014534875
EXTRACT: note_on channel=9 note=69 velocity=0 time=0
EXTRACT: note_on channel=9 note=69 velocity=82 time=0.1744185
EXTRACT: note_on channel=9 note=69 velocity=0 time=0
EXTRACT: note_on channel=6 note=77 velocity=0 time=0.020348825
EXTRACT: note_on channel=6 note=86 velocity=0 time=0.008720925000000001
EXTRACT: note_on channel=8 note=77 velocity=85 time=0.0101744125
EXTRACT: note_on channel=10 note=65 velocity=95 time=0
EXTRACT: note_on channel=3 note=74 velocity=0 time=0.0188953375
EXTRACT: note_on channel=8 note=86 velocity=85 time=0.0683139125
EXTRACT: note_on channel=10 note=74 velocity=95 time=0
EXTRACT: note_on channel=10 note=65 velocity=0 time=0.0072674375
EXTRACT: note_on channel=8 note=77 velocity=0 time=0
EXTRACT: note_on channel=1 note=34 velocity=0 time=0.017441850000000002
EXTRACT: note_on channel=3 note=74 velocity=70 time=0.0116279
EXTRACT: note_on channel=6 note=82 velocity=80 time=0.008720925000000001
EXTRACT: note_on channel=5 note=70 velocity=78 time=0.002906975
EXTRACT: note_on channel=5 note=74 velocity=78 time=0
EXTRACT: note_on channel=6 note=74 velocity=67 time=0
EXTRACT: note_on channel=9 note=39 velocity=126 time=0
EXTRACT: note_on channel=9 note=39 velocity=0 time=0
EXTRACT: pitchwheel channel=5 pitch=-6784 time=0.034883700000000004
EXTRACT: pitchwheel channel=5 pitch=-5120 time=0.00581395
EXTRACT: pitchwheel channel=5 pitch=-3584 time=0.00581395
EXTRACT: pitchwheel channel=5 pitch=-1792 time=0.00581395
EXTRACT: pitchwheel channel=5 pitch=-384 time=0.0072674375
EXTRACT: pitchwheel channel=5 pitch=0 time=0.00581395
EXTRACT: note_on channel=6 note=74 velocity=0 time=0.066860425
EXTRACT: note_on channel=6 note=82 velocity=0 time=0.0043604625000000004
EXTRACT: note_on channel=8 note=86 velocity=0 time=0.15697665
EXTRACT: note_on channel=10 note=74 velocity=0 time=0
EXTRACT: note_on channel=8 note=87 velocity=85 time=0.014534875
EXTRACT: note_on channel=10 note=75 velocity=95 time=0
EXTRACT: note_on channel=6 note=77 velocity=73 time=0.037790675
EXTRACT: note_on channel=6 note=70 velocity=73 time=0.002906975
EXTRACT: note_on channel=1 note=34 velocity=99 time=0.1744185
EXTRACT: note_on channel=9 note=36 velocity=75 time=0
EXTRACT: note_on channel=9 note=36 velocity=0 time=0
EXTRACT: note_on channel=3 note=74 velocity=0 time=0.00581395
EXTRACT: note_on channel=3 note=75 velocity=70 time=0.0116279
EXTRACT: note_on channel=1 note=34 velocity=0 time=0.037790675
EXTRACT: note_on channel=6 note=77 velocity=0 time=0.078488325
EXTRACT: note_on channel=6 note=70 velocity=0 time=0.002906975
EXTRACT: note_on channel=8 note=89 velocity=85 time=0
EXTRACT: note_on channel=10 note=77 velocity=95 time=0
EXTRACT: note_on channel=10 note=75 velocity=0 time=0.0043604625000000004
EXTRACT: note_on channel=8 note=87 velocity=0 time=0
EXTRACT: note_on channel=5 note=70 velocity=0 time=0.0305232375
EXTRACT: note_on channel=5 note=74 velocity=0 time=0
EXTRACT: note_on channel=1 note=34 velocity=127 time=0.002906975
EXTRACT: note_on channel=5 note=69 velocity=78 time=0
EXTRACT: note_on channel=5 note=72 velocity=78 time=0
EXTRACT: note_on channel=6 note=72 velocity=85 time=0
EXTRACT: note_on channel=9 note=36 velocity=119 time=0
EXTRACT: note_on channel=9 note=36 velocity=0 time=0
EXTRACT: note_on channel=3 note=72 velocity=72 time=0.0130813875
EXTRACT: control_change channel=6 control=64 value=0 time=0.0159883625
EXTRACT: note_on channel=3 note=75 velocity=0 time=0.0130813875
EXTRACT: control_change channel=6 control=64 value=127 time=0.0014534875
EXTRACT: note_on channel=3 note=72 velocity=0 time=0.212209175
EXTRACT: note_on channel=6 note=69 velocity=80 time=0.0930232
EXTRACT: note_on channel=9 note=36 velocity=108 time=0
EXTRACT: note_on channel=9 note=36 velocity=0 time=0
EXTRACT: note_on channel=9 note=69 velocity=85 time=0
EXTRACT: note_on channel=9 note=69 velocity=0 time=0
EXTRACT: note_on channel=3 note=72 velocity=72 time=0.0188953375
EXTRACT: note_on channel=6 note=72 velocity=0 time=0.008720925000000001
EXTRACT: note_on channel=6 note=69 velocity=0 time=0.1046511
EXTRACT: note_on channel=9 note=69 velocity=81 time=0.0421511375
EXTRACT: note_on channel=9 note=69 velocity=0 time=0
EXTRACT: note_on channel=8 note=89 velocity=0 time=0.0828487875
EXTRACT: note_on channel=10 note=77 velocity=0 time=0
EXTRACT: note_on channel=8 note=84 velocity=85 time=0.0043604625000000004
EXTRACT: note_on channel=10 note=72 velocity=95 time=0
EXTRACT: note_on channel=3 note=72 velocity=0 time=0.017441850000000002
EXTRACT: note_on channel=8 note=86 velocity=85 time=0.06395345
EXTRACT: note_on channel=10 note=74 velocity=95 time=0
EXTRACT: note_on channel=6 note=84 velocity=85 time=0.0043604625000000004
EXTRACT: note_on channel=6 note=77 velocity=73 time=0.0014534875
EXTRACT: note_on channel=9 note=39 velocity=123 time=0
EXTRACT: note_on channel=9 note=39 velocity=0 time=0
EXTRACT: note_on channel=3 note=72 velocity=72 time=0.0130813875
EXTRACT: note_on channel=8 note=84 velocity=0 time=0.017441850000000002
EXTRACT: note_on channel=10 note=72 velocity=0 time=0
EXTRACT: note_on channel=1 note=34 velocity=0 time=0.078488325
EXTRACT: note_on channel=8 note=82 velocity=85 time=0.043604625
EXTRACT: note_on channel=10 note=70 velocity=95 time=0
EXTRACT: note_on channel=8 note=86 velocity=0 time=0.008720925000000001
EXTRACT: note_on channel=10 note=74 velocity=0 time=0
EXTRACT: note_on channel=6 note=84 velocity=0 time=0.0334302125
EXTRACT: note_on channel=6 note=77 velocity=0 time=0.0043604625000000004
EXTRACT: note_on channel=6 note=81 velocity=82 time=0.1497092125
EXTRACT: note_on channel=3 note=72 velocity=0 time=0.113372025
EXTRACT: note_on channel=6 note=81 velocity=0 time=0.043604625
EXTRACT: note_on channel=3 note=74 velocity=72 time=0.0479650875
EXTRACT: control_change channel=6 control=64 value=0 time=0.1148255125
EXTRACT: note_on channel=3 note=74 velocity=0 time=0.017441850000000002
EXTRACT: note_on channel=3 note=77 velocity=70 time=0.0043604625000000004
EXTRACT: note_on channel=6 note=53 velocity=81 time=0
EXTRACT: note_on channel=5 note=69 velocity=0 time=0.0043604625000000004
EXTRACT: note_on channel=5 note=72 velocity=0 time=0
EXTRACT: note_on channel=1 note=29 velocity=127 time=0.002906975
EXTRACT: note_on channel=5 note=67 velocity=78 time=0
EXTRACT: note_on channel=5 note=70 velocity=78 time=0
EXTRACT: note_on channel=7 note=49 velocity=62 time=0
EXTRACT: note_on channel=9 note=36 velocity=116 time=0
EXTRACT: note_on channel=9 note=36 velocity=0 time=0
EXTRACT: note_on channel=6 note=67 velocity=87 time=0.00581395
EXTRACT: note_on channel=6 note=70 velocity=82 time=0.0014534875
EXTRACT: note_on channel=6 note=63 velocity=73 time=0
EXTRACT: control_change channel=6 control=64 value=127 time=0.014534875
EXTRACT: note_on channel=3 note=77 velocity=0 time=0.078488325
EXTRACT: note_on channel=3 note=77 velocity=72 time=0.061046475
EXTRACT: note_on channel=3 note=77 velocity=0 time=0.1090115625
EXTRACT: note_on channel=6 note=53 velocity=0 time=0.0247092875
EXTRACT: note_on channel=3 note=74 velocity=72 time=0.0537790375
EXTRACT: note_on channel=9 note=69 velocity=88 time=0
EXTRACT: note_on channel=9 note=69 velocity=0 time=0
EXTRACT: note_on channel=6 note=67 velocity=0 time=0.0043604625000000004
EXTRACT: note_on channel=6 note=63 velocity=0 time=0.0014534875
EXTRACT: note_on channel=6 note=70 velocity=0 time=0
EXTRACT: note_on channel=8 note=82 velocity=0 time=0.0116279
EXTRACT: note_on channel=10 note=70 velocity=0 time=0
EXTRACT: note_on channel=3 note=74 velocity=0 time=0.0915697125
EXTRACT: note_on channel=9 note=69 velocity=82 time=0.0654069375
EXTRACT: note_on channel=9 note=69 velocity=0 time=0
EXTRACT: note_on channel=1 note=29 velocity=0 time=0.0508720625
EXTRACT: note_on channel=3 note=74 velocity=69 time=0.0305232375
EXTRACT: control_change channel=6 control=64 value=0 time=0.05232555
EXTRACT: note_on channel=6 note=53 velocity=77 time=0.031976725
EXTRACT: note_on channel=6 note=69 velocity=80 time=0.0014534875
EXTRACT: note_on channel=6 note=72 velocity=77 time=0.0014534875
EXTRACT: note_on channel=6 note=65 velocity=66 time=0.0014534875
EXTRACT: note_on channel=5 note=67 velocity=0 time=0.0014534875
EXTRACT: note_on channel=5 note=70 velocity=0 time=0
EXTRACT: note_on channel=1 note=29 velocity=126 time=0.002906975
EXTRACT: note_on channel=5 note=69 velocity=78 time=0
EXTRACT: note_on channel=5 note=72 velocity=78 time=0
EXTRACT: note_on channel=7 note=55 velocity=62 time=0
EXTRACT: note_on channel=9 note=36 velocity=119 time=0
EXTRACT: note_on channel=9 note=36 velocity=0 time=0
EXTRACT: note_on channel=3 note=77 velocity=72 time=0.017441850000000002
EXTRACT: note_on channel=3 note=74 velocity=0 time=0.0101744125
EXTRACT: control_change channel=6 control=64 value=127 time=0.1177324875
EXTRACT: note_on channel=3 note=77 velocity=0 time=0.090116225
EXTRACT: note_on channel=6 note=65 velocity=0 time=0.06976740000000001
EXTRACT: note_on channel=3 note=79 velocity=72 time=0.020348825
EXTRACT: note_on channel=6 note=69 velocity=0 time=0.0072674375
EXTRACT: note_on channel=6 note=72 velocity=0 time=0.002906975
EXTRACT: note_on channel=6 note=53 velocity=0 time=0.0159883625
EXTRACT: note_on channel=7 note=49 velocity=0 time=0.02906975
EXTRACT: note_on channel=1 note=29 velocity=0 time=0.1874998875
EXTRACT: note_on channel=3 note=79 velocity=0 time=0.04069765
EXTRACT: note_on channel=3 note=81 velocity=72 time=0.0683139125
EXTRACT: control_change channel=6 control=64 value=0 time=0.002906975
EXTRACT: note_on channel=6 note=70 velocity=76 time=0.0101744125
EXTRACT: note_on channel=6 note=67 velocity=83 time=0.0014534875
EXTRACT: note_on channel=6 note=53 velocity=80 time=0.0014534875
EXTRACT: note_on channel=5 note=69 velocity=0 time=0.0014534875
EXTRACT: note_on channel=5 note=72 velocity=0 time=0
EXTRACT: note_on channel=6 note=74 velocity=84 time=0
EXTRACT: note_on channel=1 note=29 velocity=127 time=0.002906975
EXTRACT: note_on channel=5 note=70 velocity=78 time=0
EXTRACT: note_on channel=5 note=74 velocity=78 time=0
EXTRACT: note_on channel=7 note=60 velocity=62 time=0
EXTRACT: note_on channel=9 note=36 velocity=108 time=0
EXTRACT: note_on channel=9 note=36 velocity=0 time=0
EXTRACT: control_change channel=6 control=64 value=127 time=0.1627906
EXTRACT: note_on channel=6 note=74 velocity=0 time=0.08720925
EXTRACT: note_on channel=6 note=67 velocity=0 time=0.0072674375
EXTRACT: note_on channel=6 note=70 velocity=0 time=0.00581395
EXTRACT: note_on channel=6 note=53 velocity=0 time=0.014534875
EXTRACT: note_on channel=3 note=81 velocity=0 time=0.031976725
EXTRACT: note_on channel=9 note=69 velocity=85 time=0.0392441625
EXTRACT: note_on channel=9 note=69 velocity=0 time=0
EXTRACT: note_on channel=3 note=79 velocity=70 time=0.002906975
EXTRACT: note_on channel=7 note=55 velocity=0 time=0.02906975
EXTRACT: note_on channel=9 note=69 velocity=81 time=0.142441775
EXTRACT: note_on channel=9 note=69 velocity=0 time=0
EXTRACT: note_on channel=1 note=29 velocity=0 time=0.049418575
EXTRACT: note_on channel=3 note=79 velocity=0 time=0.0581395
EXTRACT: control_change channel=6 control=64 value=0 time=0.034883700000000004
EXTRACT: note_on channel=5 note=70 velocity=0 time=0.02906975
EXTRACT: note_on channel=5 note=74 velocity=0 time=0
EXTRACT: note_on channel=6 note=53 velocity=76 time=0
EXTRACT: note_on channel=1 note=29 velocity=127 time=0.002906975
EXTRACT: note_on channel=5 note=72 velocity=78 time=0
EXTRACT: note_on channel=5 note=75 velocity=76 time=0
EXTRACT: note_on channel=6 note=70 velocity=86 time=0
EXTRACT: note_on channel=6 note=67 velocity=75 time=0
EXTRACT: note_on channel=6 note=75 velocity=84 time=0
EXTRACT: note_on channel=7 note=67 velocity=62 time=0
EXTRACT: note_on channel=9 note=36 velocity=119 time=0
EXTRACT: note_on channel=9 note=36 velocity=0 time=0
EXTRACT: note_on channel=3 note=77 velocity=70 time=0.017441850000000002
EXTRACT: control_change channel=6 control=64 value=127 time=0.084302275
EXTRACT: note_on channel=5 note=75 velocity=0 time=0.06976740000000001
EXTRACT: note_on channel=5 note=74 velocity=71 time=0.002906975
EXTRACT: note_on channel=6 note=67 velocity=0 time=0.05232555
EXTRACT: note_on channel=6 note=70 velocity=0 time=0.002906975
EXTRACT: note_on channel=6 note=53 velocity=0 time=0.0072674375
EXTRACT: note_on channel=6 note=75 velocity=0 time=0
EXTRACT: note_on channel=5 note=74 velocity=0 time=0.1090115625
EXTRACT: note_on channel=5 note=75 velocity=76 time=0.002906975
EXTRACT: note_on channel=7 note=60 velocity=0 time=0.031976725
EXTRACT: note_on channel=3 note=77 velocity=0 time=0.0595929875
EXTRACT: note_on channel=5 note=75 velocity=0 time=0.0799418125
EXTRACT: note_on channel=5 note=77 velocity=75 time=0.0043604625000000004
EXTRACT: note_on channel=1 note=29 velocity=0 time=0.061046475
EXTRACT: control_change channel=6 control=64 value=0 time=0.020348825
EXTRACT: note_on channel=5 note=72 velocity=0 time=0.0886627375
EXTRACT: note_on channel=5 note=77 velocity=0 time=0.002906975
EXTRACT: note_on channel=1 note=34 velocity=127 time=0
EXTRACT: note_on channel=7 note=72 velocity=51 time=0
EXTRACT: note_on channel=9 note=36 velocity=116 time=0
EXTRACT: note_on channel=9 note=36 velocity=0 time=0
EXTRACT: control_change channel=6 control=64 value=127 time=0.0813953
EXTRACT: pitchwheel channel=5 pitch=-6656 time=0.0218023125
EXTRACT: pitchwheel channel=5 pitch=-7296 time=0.00581395
EXTRACT: pitchwheel channel=5 pitch=-8064 time=0.00581395
EXTRACT: note_on channel=6 note=86 velocity=82 time=0.232558
EXTRACT: note_on channel=6 note=77 velocity=68 time=0
EXTRACT: note_on channel=9 note=69 velocity=88 time=0.0014534875
EXTRACT: note_on channel=9 note=69 velocity=0 time=0
EXTRACT: note_on channel=3 note=77 velocity=72 time=0.0014534875
EXTRACT: note_on channel=7 note=67 velocity=0 time=0.0305232375
EXTRACT: note_on channel=6 note=86 velocity=0 time=0.1177324875
EXTRACT: note_on channel=6 note=77 velocity=0 time=0.0014534875
EXTRACT: note_on channel=3 note=77 velocity=0 time=0.014534875
EXTRACT: note_on channel=9 note=69 velocity=82 time=0.008720925000000001
EXTRACT: note_on channel=9 note=69 velocity=0 time=0
EXTRACT: note_on channel=1 note=34 velocity=0 time=0.13953480000000001
EXTRACT: note_on channel=6 note=82 velocity=71 time=0.0334302125
EXTRACT: note_on channel=6 note=89 velocity=75 time=0
EXTRACT: note_on channel=5 note=70 velocity=78 time=0.0014534875
EXTRACT: note_on channel=5 note=74 velocity=78 time=0
EXTRACT: note_on channel=7 note=79 velocity=42 time=0
EXTRACT: note_on channel=9 note=39 velocity=126 time=0
EXTRACT: note_on channel=9 note=39 velocity=0 time=0
EXTRACT: pitchwheel channel=5 pitch=-6784 time=0.034883700000000004
EXTRACT: pitchwheel channel=5 pitch=-5120 time=0.00581395
EXTRACT: pitchwheel channel=5 pitch=-3584 time=0.00581395
EXTRACT: pitchwheel channel=5 pitch=-1792 time=0.00581395
EXTRACT: pitchwheel channel=5 pitch=-384 time=0.0072674375
EXTRACT: pitchwheel channel=5 pitch=0 time=0.00581395
EXTRACT: note_on channel=6 note=89 velocity=0 time=0.06976740000000001
EXTRACT: note_on channel=3 note=70 velocity=72 time=0.034883700000000004
EXTRACT: note_on channel=6 note=82 velocity=0 time=0.0101744125
EXTRACT: note_on channel=6 note=86 velocity=78 time=0.16860455
EXTRACT: note_on channel=7 note=72 velocity=0 time=0.031976725
EXTRACT: note_on channel=3 note=70 velocity=0 time=0.0014534875
EXTRACT: note_on channel=6 note=86 velocity=0 time=0.1031976125
EXTRACT: note_on channel=3 note=70 velocity=72 time=0.034883700000000004
EXTRACT: note_on channel=1 note=34 velocity=103 time=0.002906975
EXTRACT: note_on channel=9 note=36 velocity=75 time=0
EXTRACT: note_on channel=9 note=36 velocity=0 time=0
EXTRACT: note_on channel=1 note=34 velocity=0 time=0.0624999625
EXTRACT: note_on channel=3 note=70 velocity=0 time=0.0218023125
EXTRACT: note_on channel=3 note=70 velocity=72 time=0.0813953
EXTRACT: note_on channel=5 note=70 velocity=0 time=0.00581395
EXTRACT: note_on channel=5 note=74 velocity=0 time=0
EXTRACT: note_on channel=6 note=77 velocity=71 time=0.0014534875
EXTRACT: note_on channel=6 note=84 velocity=81 time=0
EXTRACT: note_on channel=1 note=34 velocity=127 time=0.0014534875
EXTRACT: note_on channel=5 note=69 velocity=78 time=0
EXTRACT: note_on channel=5 note=72 velocity=78 time=0
EXTRACT: note_on channel=7 note=84 velocity=37 time=0
EXTRACT: note_on channel=9 note=36 velocity=119 time=0
EXTRACT: note_on channel=9 note=36 velocity=0 time=0
EXTRACT: control_change channel=6 control=64 value=127 time=0.0276162625
EXTRACT: control_change channel=6 control=64 value=0 time=0.0363371875
EXTRACT: control_change channel=6 control=64 value=127 time=0.0813953
EXTRACT: note_on channel=3 note=70 velocity=0 time=0.0581395
EXTRACT: note_on channel=6 note=84 velocity=0 time=0.113372025
EXTRACT: note_on channel=6 note=77 velocity=0 time=0.008720925000000001
EXTRACT: note_on channel=3 note=70 velocity=72 time=0.014534875
EXTRACT: note_on channel=6 note=81 velocity=78 time=0.008720925000000001
EXTRACT: note_on channel=9 note=36 velocity=108 time=0
EXTRACT: note_on channel=9 note=36 velocity=0 time=0
EXTRACT: note_on channel=9 note=69 velocity=85 time=0
EXTRACT: note_on channel=9 note=69 velocity=0 time=0
EXTRACT: note_on channel=7 note=79 velocity=0 time=0.031976725
EXTRACT: note_on channel=3 note=70 velocity=0 time=0.0654069375
EXTRACT: note_on channel=6 note=81 velocity=0 time=0.0479650875
EXTRACT: note_on channel=3 note=70 velocity=70 time=0.0232558
EXTRACT: note_on channel=9 note=69 velocity=81 time=0.00581395
EXTRACT: note_on channel=9 note=69 velocity=0 time=0
EXTRACT: note_on channel=3 note=70 velocity=0 time=0.090116225
EXTRACT: note_on channel=3 note=70 velocity=72 time=0.072674375
EXTRACT: note_on channel=6 note=89 velocity=70 time=0.0116279
EXTRACT: note_on channel=9 note=39 velocity=123 time=0
EXTRACT: note_on channel=9 note=39 velocity=0 time=0
EXTRACT: note_on channel=1 note=34 velocity=0 time=0.0043604625000000004
EXTRACT: note_on channel=3 note=72 velocity=72 time=0.1584301375
EXTRACT: note_on channel=3 note=70 velocity=0 time=0.008720925000000001
EXTRACT: note_on channel=6 note=89 velocity=0 time=0.043604625
EXTRACT: note_on channel=3 note=72 velocity=0 time=0.116279
EXTRACT: note_on channel=6 note=84 velocity=72 time=0.017441850000000002
EXTRACT: note_on channel=3 note=74 velocity=72 time=0.017441850000000002
EXTRACT: note_on channel=7 note=84 velocity=0 time=0.014534875
EXTRACT: note_on channel=6 note=84 velocity=0 time=0.0944766875
EXTRACT: note_on channel=3 note=74 velocity=0 time=0.090116225
EXTRACT: control_change channel=6 control=64 value=0 time=0.1148255125
EXTRACT: note_on channel=5 note=72 velocity=0 time=0.014534875
EXTRACT: note_on channel=5 note=69 velocity=0 time=0
EXTRACT: note_on channel=1 note=34 velocity=121 time=0.002906975
EXTRACT: note_on channel=5 note=67 velocity=78 time=0
EXTRACT: note_on channel=5 note=70 velocity=78 time=0
EXTRACT: note_on channel=9 note=36 velocity=116 time=0
EXTRACT: note_on channel=9 note=36 velocity=0 time=0
EXTRACT: control_change channel=6 control=64 value=0 time=0.0188953375
EXTRACT: note_on channel=3 note=70 velocity=73 time=0.1627906
EXTRACT: note_on channel=3 note=70 velocity=0 time=0.124999925
EXTRACT: note_on channel=3 note=77 velocity=70 time=0.031976725
EXTRACT: note_on channel=6 note=82 velocity=75 time=0.0072674375
EXTRACT: note_on channel=9 note=69 velocity=88 time=0.002906975
EXTRACT: note_on channel=9 note=69 velocity=0 time=0
EXTRACT: note_on channel=3 note=77 velocity=0 time=0.0857557625
EXTRACT: note_on channel=3 note=77 velocity=70 time=0.0799418125
EXTRACT: note_on channel=9 note=69 velocity=82 time=0.008720925000000001
EXTRACT: note_on channel=9 note=69 velocity=0 time=0
EXTRACT: note_on channel=3 note=77 velocity=0 time=0.0915697125
EXTRACT: note_on channel=1 note=34 velocity=0 time=0.0683139125
EXTRACT: note_on channel=6 note=87 velocity=81 time=0.0130813875
EXTRACT: note_on channel=6 note=79 velocity=73 time=0
EXTRACT: note_on channel=9 note=39 velocity=126 time=0.0014534875
EXTRACT: note_on channel=9 note=39 velocity=0 time=0
EXTRACT: note_on channel=3 note=77 velocity=70 time=0.014534875
EXTRACT: control_change channel=6 control=64 value=127 time=0.0043604625000000004
EXTRACT: note_on channel=6 note=82 velocity=0 time=0.0276162625
EXTRACT: note_on channel=3 note=70 velocity=72 time=0.1526161875
EXTRACT: note_on channel=3 note=77 velocity=0 time=0.0188953375
EXTRACT: note_on channel=6 note=87 velocity=0 time=0.1090115625
EXTRACT: note_on channel=6 note=82 velocity=73 time=0.0218023125
EXTRACT: note_on channel=6 note=79 velocity=0 time=0.002906975
EXTRACT: note_on channel=3 note=70 velocity=0 time=0.090116225
EXTRACT: note_on channel=1 note=34 velocity=105 time=0.0813953
EXTRACT: note_on channel=9 note=36 velocity=75 time=0
EXTRACT: note_on channel=9 note=36 velocity=0 time=0
EXTRACT: note_on channel=3 note=70 velocity=72 time=0.0276162625
EXTRACT: note_on channel=1 note=34 velocity=0 time=0.026162775
EXTRACT: control_change channel=6 control=64 value=0 time=0.049418575
EXTRACT: note_on channel=6 note=82 velocity=0 time=0.02906975
EXTRACT: note_on channel=3 note=70 velocity=0 time=0.0043604625000000004
EXTRACT: note_on channel=5 note=67 velocity=0 time=0.034883700000000004
EXTRACT: note_on channel=1 note=34 velocity=121 time=0.002906975
EXTRACT: note_on channel=5 note=66 velocity=78 time=0
EXTRACT: note_on channel=9 note=36 velocity=119 time=0
EXTRACT: note_on channel=9 note=36 velocity=0 time=0
EXTRACT: note_on channel=3 note=70 velocity=72 time=0.020348825
EXTRACT: note_on channel=3 note=70 velocity=0 time=0.1671510625
EXTRACT: note_on channel=3 note=70 velocity=70 time=0.0537790375
EXTRACT: note_on channel=6 note=78 velocity=70 time=0.107558075
EXTRACT: note_on channel=9 note=36 velocity=108 time=0
EXTRACT: note_on channel=9 note=36 velocity=0 time=0
EXTRACT: note_on channel=9 note=69 velocity=85 time=0
EXTRACT: note_on channel=9 note=69 velocity=0 time=0
EXTRACT: note_on channel=3 note=72 velocity=72 time=0.1235464375
EXTRACT: note_on channel=3 note=70 velocity=0 time=0.0188953375
EXTRACT: note_on channel=9 note=69 velocity=81 time=0.031976725
EXTRACT: note_on channel=9 note=69 velocity=0 time=0
EXTRACT: note_on channel=3 note=72 velocity=0 time=0.1380813125
EXTRACT: note_on channel=6 note=87 velocity=83 time=0.034883700000000004
EXTRACT: note_on channel=4 note=82 velocity=78 time=0.0014534875
EXTRACT: note_on channel=6 note=82 velocity=71 time=0
EXTRACT: note_on channel=9 note=39 velocity=123 time=0
EXTRACT: note_on channel=9 note=39 velocity=0 time=0
EXTRACT: note_on channel=1 note=34 velocity=0 time=0.0043604625000000004
EXTRACT: note_on channel=3 note=75 velocity=70 time=0
EXTRACT: note_on channel=6 note=78 velocity=0 time=0.0232558
EXTRACT: note_on channel=4 note=82 velocity=0 time=0.20348825
EXTRACT: note_on channel=4 note=81 velocity=78 time=0.0014534875
EXTRACT: control_change channel=6 control=64 value=127 time=0.0043604625000000004
EXTRACT: note_on channel=3 note=74 velocity=72 time=0.0247092875
EXTRACT: note_on channel=3 note=75 velocity=0 time=0.031976725
EXTRACT: note_on channel=6 note=82 velocity=0 time=0.05232555
EXTRACT: note_on channel=6 note=78 velocity=78 time=0.002906975
EXTRACT: note_on channel=3 note=74 velocity=0 time=0.0915697125
EXTRACT: note_on channel=6 note=87 velocity=0 time=0.0116279
EXTRACT: note_on channel=4 note=81 velocity=0 time=0.0116279
EXTRACT: note_on channel=4 note=79 velocity=78 time=0.0014534875
EXTRACT: note_on channel=3 note=72 velocity=71 time=0.014534875
EXTRACT: note_on channel=9 note=84 velocity=76 time=0.043604625
EXTRACT: note_on channel=9 note=84 velocity=0 time=0
EXTRACT: note_on channel=6 note=78 velocity=0 time=0.0305232375
EXTRACT: note_on channel=5 note=66 velocity=0 time=0.1409882875
EXTRACT: note_on channel=5 note=70 velocity=0 time=0
EXTRACT: note_on channel=4 note=79 velocity=0 time=0.0014534875
EXTRACT: note_on channel=1 note=34 velocity=127 time=0.0014534875
EXTRACT: note_on channel=9 note=36 velocity=116 time=0
EXTRACT: note_on channel=9 note=36 velocity=0 time=0
EXTRACT: note_on channel=4 note=77 velocity=78 time=0.0014534875
EXTRACT: note_on channel=3 note=72 velocity=0 time=0.034883700000000004
EXTRACT: control_change channel=6 control=64 value=0 time=0.00581395
EXTRACT: pitchwheel channel=5 pitch=-6656 time=0.061046475
EXTRACT: pitchwheel channel=5 pitch=-7296 time=0.00581395
EXTRACT: pitchwheel channel=5 pitch=-8064 time=0.00581395
EXTRACT: note_on channel=4 note=77 velocity=0 time=0.1177324875
EXTRACT: note_on channel=4 note=74 velocity=78 time=0.0014534875
EXTRACT: control_change channel=6 control=64 value=127 time=0.1046511
EXTRACT: note_on channel=6 note=86 velocity=83 time=0.0072674375
EXTRACT: note_on channel=6 note=77 velocity=60 time=0.0014534875
EXTRACT: note_on channel=9 note=69 velocity=88 time=0.0014534875
EXTRACT: note_on channel=9 note=69 velocity=0 time=0
EXTRACT: note_on channel=4 note=74 velocity=0 time=0.1148255125
EXTRACT: note_on channel=4 note=72 velocity=78 time=0.002906975
EXTRACT: note_on channel=3 note=72 velocity=73 time=0.0421511375
EXTRACT: note_on channel=9 note=69 velocity=82 time=0.014534875
EXTRACT: note_on channel=9 note=69 velocity=0 time=0
EXTRACT: note_on channel=6 note=77 velocity=0 time=0.020348825
EXTRACT: note_on channel=6 note=86 velocity=0 time=0.008720925000000001
EXTRACT: note_on channel=3 note=72 velocity=0 time=0.1090115625
EXTRACT: note_on channel=1 note=34 velocity=0 time=0.0130813875
EXTRACT: note_on channel=6 note=82 velocity=80 time=0.020348825
EXTRACT: note_on channel=4 note=72 velocity=0 time=0.002906975
EXTRACT: note_on channel=5 note=70 velocity=78 time=0
EXTRACT: note_on channel=5 note=74 velocity=78 time=0
EXTRACT: note_on channel=6 note=74 velocity=67 time=0
EXTRACT: note_on channel=9 note=39 velocity=126 time=0
EXTRACT: note_on channel=9 note=39 velocity=0 time=0
EXTRACT: note_on channel=4 note=70 velocity=78 time=0.0014534875
EXTRACT: note_on channel=3 note=70 velocity=72 time=0.0014534875
EXTRACT: pitchwheel channel=5 pitch=-6784 time=0.031976725
EXTRACT: pitchwheel channel=5 pitch=-5120 time=0.00581395
EXTRACT: pitchwheel channel=5 pitch=-3584 time=0.00581395
EXTRACT: pitchwheel channel=5 pitch=-1792 time=0.00581395
EXTRACT: pitchwheel channel=5 pitch=-384 time=0.0072674375
EXTRACT: pitchwheel channel=5 pitch=0 time=0.00581395
EXTRACT: note_on channel=6 note=74 velocity=0 time=0.066860425
EXTRACT: note_on channel=6 note=82 velocity=0 time=0.0043604625000000004
EXTRACT: note_on channel=3 note=70 velocity=0 time=0.078488325
EXTRACT: note_on channel=3 note=70 velocity=72 time=0.0799418125
EXTRACT: note_on channel=6 note=77 velocity=73 time=0.0508720625
EXTRACT: note_on channel=6 note=70 velocity=73 time=0.002906975
EXTRACT: note_on channel=3 note=70 velocity=0 time=0.124999925
EXTRACT: note_on channel=3 note=72 velocity=72 time=0.0305232375
EXTRACT: note_on channel=1 note=34 velocity=99 time=0.0188953375
EXTRACT: note_on channel=9 note=36 velocity=75 time=0
EXTRACT: note_on channel=9 note=36 velocity=0 time=0
EXTRACT: note_on channel=1 note=34 velocity=0 time=0.055232525
EXTRACT: note_on channel=6 note=77 velocity=0 time=0.078488325
EXTRACT: note_on channel=6 note=70 velocity=0 time=0.002906975
EXTRACT: note_on channel=5 note=70 velocity=0 time=0.034883700000000004
EXTRACT: note_on channel=5 note=74 velocity=0 time=0
EXTRACT: note_on channel=3 note=72 velocity=0 time=0
EXTRACT: note_on channel=1 note=34 velocity=127 time=0.002906975
EXTRACT: note_on channel=5 note=69 velocity=78 time=0
EXTRACT: note_on channel=5 note=72 velocity=78 time=0
EXTRACT: note_on channel=6 note=72 velocity=85 time=0
EXTRACT: note_on channel=9 note=36 velocity=119 time=0
EXTRACT: note_on channel=9 note=36 velocity=0 time=0
EXTRACT: note_on channel=3 note=77 velocity=72 time=0.0232558
EXTRACT: control_change channel=6 control=64 value=0 time=0.00581395
EXTRACT: control_change channel=6 control=64 value=127 time=0.014534875
EXTRACT: note_on channel=4 note=70 velocity=0 time=0.188953375
EXTRACT: note_on channel=3 note=77 velocity=0 time=0.002906975
EXTRACT: note_on channel=6 note=69 velocity=80 time=0.113372025
EXTRACT: note_on channel=9 note=36 velocity=108 time=0
EXTRACT: note_on channel=9 note=36 velocity=0 time=0
EXTRACT: note_on channel=9 note=69 velocity=85 time=0
EXTRACT: note_on channel=9 note=69 velocity=0 time=0
EXTRACT: note_on channel=3 note=72 velocity=72 time=0.0247092875
EXTRACT: note_on channel=6 note=72 velocity=0 time=0.002906975
EXTRACT: note_on channel=6 note=69 velocity=0 time=0.1046511
EXTRACT: note_on channel=3 note=72 velocity=0 time=0.0363371875
EXTRACT: note_on channel=9 note=69 velocity=81 time=0.00581395
EXTRACT: note_on channel=9 note=69 velocity=0 time=0
EXTRACT: note_on channel=3 note=70 velocity=72 time=0.0276162625
EXTRACT: note_on channel=6 note=84 velocity=85 time=0.14534875
EXTRACT: note_on channel=6 note=77 velocity=73 time=0.0014534875
EXTRACT: note_on channel=9 note=39 velocity=123 time=0
EXTRACT: note_on channel=9 note=39 velocity=0 time=0
EXTRACT: note_on channel=3 note=70 velocity=0 time=0.1031976125
EXTRACT: note_on channel=1 note=34 velocity=0 time=0.00581395
EXTRACT: note_on channel=3 note=72 velocity=72 time=0.061046475
EXTRACT: note_on channel=6 note=84 velocity=0 time=0.0247092875
EXTRACT: note_on channel=6 note=77 velocity=0 time=0.0043604625000000004
EXTRACT: note_on channel=6 note=81 velocity=82 time=0.1497092125
EXTRACT: note_on channel=3 note=72 velocity=0 time=0.05232555
EXTRACT: note_on channel=6 note=81 velocity=0 time=0.1046511
EXTRACT: note_on channel=3 note=70 velocity=72 time=0.0276162625
EXTRACT: control_change channel=6 control=64 value=0 time=0.1351743375
EXTRACT: note_on channel=3 note=70 velocity=0 time=0.00581395
EXTRACT: note_on channel=6 note=53 velocity=81 time=0.0159883625
EXTRACT: note_on channel=5 note=69 velocity=0 time=0.0043604625000000004
EXTRACT: note_on channel=5 note=72 velocity=0 time=0
EXTRACT: note_on channel=1 note=29 velocity=127 time=0.002906975
EXTRACT: note_on channel=5 note=67 velocity=78 time=0
EXTRACT: note_on channel=5 note=70 velocity=78 time=0
EXTRACT: note_on channel=7 note=49 velocity=62 time=0
EXTRACT: note_on channel=9 note=36 velocity=116 time=0
EXTRACT: note_on channel=9 note=36 velocity=0 time=0
EXTRACT: note_on channel=3 note=75 velocity=72 time=0.0014534875
EXTRACT: note_on channel=6 note=67 velocity=87 time=0.0043604625000000004
EXTRACT: note_on channel=6 note=70 velocity=82 time=0.0014534875
EXTRACT: note_on channel=6 note=63 velocity=73 time=0
EXTRACT: control_change channel=6 control=64 value=127 time=0.014534875
EXTRACT: note_on channel=6 note=53 velocity=0 time=0.27325565
EXTRACT: note_on channel=3 note=75 velocity=0 time=0.0130813875
EXTRACT: note_on channel=3 note=74 velocity=72 time=0.04069765
EXTRACT: note_on channel=9 note=69 velocity=88 time=0
EXTRACT: note_on channel=9 note=69 velocity=0 time=0
EXTRACT: note_on channel=6 note=67 velocity=0 time=0.0043604625000000004
EXTRACT: note_on channel=6 note=70 velocity=0 time=0.0014534875
EXTRACT: note_on channel=6 note=63 velocity=0 time=0
EXTRACT: note_on channel=3 note=74 velocity=0 time=0.15697665
EXTRACT: note_on channel=3 note=72 velocity=70 time=0.0116279
EXTRACT: note_on channel=9 note=69 velocity=82 time=0
EXTRACT: note_on channel=9 note=69 velocity=0 time=0
EXTRACT: note_on channel=1 note=29 velocity=0 time=0.0508720625
EXTRACT: control_change channel=6 control=64 value=0 time=0.0828487875
EXTRACT: note_on channel=6 note=53 velocity=77 time=0.031976725
EXTRACT: note_on channel=6 note=69 velocity=80 time=0.0014534875
EXTRACT: note_on channel=6 note=72 velocity=77 time=0.0014534875
EXTRACT: note_on channel=6 note=65 velocity=66 time=0.0014534875
EXTRACT: note_on channel=5 note=67 velocity=0 time=0.0014534875
EXTRACT: note_on channel=5 note=70 velocity=0 time=0
EXTRACT: note_on channel=1 note=29 velocity=126 time=0.002906975
EXTRACT: note_on channel=5 note=69 velocity=78 time=0
EXTRACT: note_on channel=5 note=72 velocity=78 time=0
EXTRACT: note_on channel=7 note=55 velocity=62 time=0
EXTRACT: note_on channel=9 note=36 velocity=119 time=0
EXTRACT: note_on channel=9 note=36 velocity=0 time=0
EXTRACT: note_on channel=3 note=72 velocity=0 time=0.072674375
EXTRACT: control_change channel=6 control=64 value=127 time=0.072674375
EXTRACT: note_on channel=3 note=70 velocity=70 time=0.0276162625
EXTRACT: note_on channel=6 note=65 velocity=0 time=0.1322673625
EXTRACT: note_on channel=6 note=69 velocity=0 time=0.0276162625
EXTRACT: note_on channel=6 note=72 velocity=0 time=0.002906975
EXTRACT: note_on channel=6 note=53 velocity=0 time=0.0159883625
EXTRACT: note_on channel=7 note=49 velocity=0 time=0.02906975
EXTRACT: note_on channel=3 note=70 velocity=0 time=0.0683139125
EXTRACT: note_on channel=4 note=75 velocity=76 time=0.0712208875
EXTRACT: note_on channel=3 note=75 velocity=70 time=0.0014534875
EXTRACT: note_on channel=4 note=79 velocity=76 time=0.0014534875
EXTRACT: note_on channel=4 note=82 velocity=76 time=0
EXTRACT: note_on channel=1 note=29 velocity=0 time=0.0450581125
EXTRACT: control_change channel=6 control=64 value=0 time=0.1119185375
EXTRACT: note_on channel=6 note=70 velocity=76 time=0.0101744125
EXTRACT: note_on channel=6 note=67 velocity=83 time=0.0014534875
EXTRACT: note_on channel=6 note=53 velocity=80 time=0.0014534875
EXTRACT: note_on channel=5 note=69 velocity=0 time=0.0014534875
EXTRACT: note_on channel=5 note=72 velocity=0 time=0
EXTRACT: note_on channel=6 note=74 velocity=84 time=0
EXTRACT: note_on channel=1 note=29 velocity=127 time=0.002906975
EXTRACT: note_on channel=5 note=70 velocity=78 time=0
EXTRACT: note_on channel=5 note=74 velocity=78 time=0
EXTRACT: note_on channel=7 note=60 velocity=62 time=0
EXTRACT: note_on channel=9 note=36 velocity=108 time=0
EXTRACT: note_on channel=9 note=36 velocity=0 time=0
EXTRACT: note_on channel=4 note=75 velocity=0 time=0.13953480000000001
EXTRACT: note_on channel=3 note=75 velocity=0 time=0.0014534875
EXTRACT: note_on channel=4 note=82 velocity=0 time=0.0014534875
EXTRACT: note_on channel=4 note=79 velocity=0 time=0
EXTRACT: control_change channel=6 control=64 value=127 time=0.020348825
EXTRACT: note_on channel=4 note=74 velocity=76 time=0.0072674375
EXTRACT: note_on channel=3 note=74 velocity=72 time=0.002906975
EXTRACT: note_on channel=4 note=79 velocity=76 time=0.0014534875
EXTRACT: note_on channel=4 note=82 velocity=76 time=0
EXTRACT: note_on channel=6 note=74 velocity=0 time=0.07558135
EXTRACT: note_on channel=6 note=67 velocity=0 time=0.0072674375
EXTRACT: note_on channel=6 note=70 velocity=0 time=0.00581395
EXTRACT: note_on channel=6 note=53 velocity=0 time=0.014534875
EXTRACT: note_on channel=9 note=69 velocity=85 time=0.0712208875
EXTRACT: note_on channel=9 note=69 velocity=0 time=0
EXTRACT: note_on channel=7 note=55 velocity=0 time=0.031976725
EXTRACT: note_on channel=4 note=74 velocity=0 time=0.1206394625
EXTRACT: note_on channel=4 note=79 velocity=0 time=0.002906975
EXTRACT: note_on channel=3 note=74 velocity=0 time=0
EXTRACT: note_on channel=4 note=82 velocity=0 time=0
EXTRACT: note_on channel=4 note=72 velocity=76 time=0.014534875
EXTRACT: note_on channel=3 note=72 velocity=72 time=0.002906975
EXTRACT: note_on channel=4 note=77 velocity=76 time=0.0014534875
EXTRACT: note_on channel=4 note=81 velocity=76 time=0
EXTRACT: note_on channel=9 note=69 velocity=81 time=0
EXTRACT: note_on channel=9 note=69 velocity=0 time=0
EXTRACT: note_on channel=1 note=29 velocity=0 time=0.049418575
EXTRACT: control_change channel=6 control=64 value=0 time=0.0930232
EXTRACT: note_on channel=5 note=74 velocity=0 time=0.02906975
EXTRACT: note_on channel=5 note=70 velocity=0 time=0
EXTRACT: note_on channel=6 note=53 velocity=76 time=0
EXTRACT: note_on channel=1 note=29 velocity=127 time=0.002906975
EXTRACT: note_on channel=5 note=72 velocity=78 time=0
EXTRACT: note_on channel=5 note=75 velocity=76 time=0
EXTRACT: note_on channel=6 note=70 velocity=86 time=0
EXTRACT: note_on channel=6 note=67 velocity=75 time=0
EXTRACT: note_on channel=6 note=75 velocity=84 time=0
EXTRACT: note_on channel=7 note=67 velocity=62 time=0
EXTRACT: note_on channel=9 note=36 velocity=119 time=0
EXTRACT: note_on channel=9 note=36 velocity=0 time=0
EXTRACT: control_change channel=6 control=64 value=127 time=0.101744125
EXTRACT: note_on channel=4 note=72 velocity=0 time=0.0450581125
EXTRACT: note_on channel=4 note=81 velocity=0 time=0.002906975
EXTRACT: note_on channel=4 note=77 velocity=0 time=0
EXTRACT: note_on channel=4 note=70 velocity=76 time=0.020348825
EXTRACT: note_on channel=5 note=75 velocity=0 time=0.0014534875
EXTRACT: note_on channel=3 note=70 velocity=70 time=0
EXTRACT: note_on channel=3 note=72 velocity=0 time=0.0014534875
EXTRACT: note_on channel=4 note=75 velocity=76 time=0.0014534875
EXTRACT: note_on channel=4 note=79 velocity=76 time=0
EXTRACT: note_on channel=5 note=74 velocity=71 time=0
EXTRACT: note_on channel=6 note=67 velocity=0 time=0.05232555
EXTRACT: note_on channel=6 note=70 velocity=0 time=0.002906975
EXTRACT: note_on channel=6 note=53 velocity=0 time=0.0072674375
EXTRACT: note_on channel=6 note=75 velocity=0 time=0
EXTRACT: note_on channel=5 note=74 velocity=0 time=0.1090115625
EXTRACT: note_on channel=5 note=75 velocity=76 time=0.002906975
EXTRACT: note_on channel=7 note=60 velocity=0 time=0.031976725
EXTRACT: note_on channel=3 note=70 velocity=0 time=0.1279069
EXTRACT: note_on channel=3 note=72 velocity=72 time=0.0101744125
EXTRACT: note_on channel=5 note=75 velocity=0 time=0.0014534875
EXTRACT: note_on channel=5 note=77 velocity=75 time=0.0043604625000000004
EXTRACT: note_on channel=1 note=29 velocity=0 time=0.061046475
EXTRACT: note_on channel=4 note=70 velocity=0 time=0.008720925000000001
EXTRACT: note_on channel=4 note=75 velocity=0 time=0.0043604625000000004
EXTRACT: note_on channel=4 note=79 velocity=0 time=0
EXTRACT: control_change channel=6 control=64 value=0 time=0.0072674375
EXTRACT: note_on channel=5 note=72 velocity=0 time=0.0886627375
EXTRACT: note_on channel=5 note=77 velocity=0 time=0.002906975
EXTRACT: note_on channel=1 note=34 velocity=127 time=0
EXTRACT: note_on channel=3 note=70 velocity=71 time=0
EXTRACT: note_on channel=7 note=72 velocity=51 time=0
EXTRACT: note_on channel=9 note=36 velocity=116 time=0
EXTRACT: note_on channel=9 note=36 velocity=0 time=0
EXTRACT: note_on channel=3 note=72 velocity=0 time=0.0188953375
EXTRACT: control_change channel=6 control=64 value=127 time=0.0624999625
EXTRACT: pitchwheel channel=5 pitch=-6656 time=0.0218023125
EXTRACT: pitchwheel channel=5 pitch=-7296 time=0.00581395
EXTRACT: pitchwheel channel=5 pitch=-8064 time=0.00581395
EXTRACT: note_on channel=6 note=86 velocity=82 time=0.232558
EXTRACT: note_on channel=6 note=77 velocity=68 time=0
EXTRACT: note_on channel=9 note=69 velocity=88 time=0.0014534875
EXTRACT: note_on channel=9 note=69 velocity=0 time=0
EXTRACT: note_on channel=7 note=67 velocity=0 time=0.031976725
EXTRACT: note_on channel=6 note=86 velocity=0 time=0.1177324875
EXTRACT: note_on channel=6 note=77 velocity=0 time=0.0014534875
EXTRACT: note_on channel=3 note=70 velocity=0 time=0.0072674375
EXTRACT: note_on channel=9 note=69 velocity=82 time=0.0159883625
EXTRACT: note_on channel=9 note=69 velocity=0 time=0
EXTRACT: note_on channel=1 note=34 velocity=0 time=0.13953480000000001
EXTRACT: note_on channel=6 note=82 velocity=71 time=0.0334302125
EXTRACT: note_on channel=6 note=89 velocity=75 time=0
EXTRACT: note_on channel=5 note=70 velocity=78 time=0.0014534875
EXTRACT: note_on channel=5 note=74 velocity=78 time=0
EXTRACT: note_on channel=7 note=79 velocity=42 time=0
EXTRACT: note_on channel=9 note=39 velocity=126 time=0
EXTRACT: note_on channel=9 note=39 velocity=0 time=0
EXTRACT: pitchwheel channel=5 pitch=-6784 time=0.034883700000000004
EXTRACT: pitchwheel channel=5 pitch=-5120 time=0.00581395
EXTRACT: pitchwheel channel=5 pitch=-3584 time=0.00581395
EXTRACT: pitchwheel channel=5 pitch=-1792 time=0.00581395
EXTRACT: pitchwheel channel=5 pitch=-384 time=0.0072674375
EXTRACT: pitchwheel channel=5 pitch=0 time=0.00581395
EXTRACT: note_on channel=6 note=89 velocity=0 time=0.06976740000000001
EXTRACT: note_on channel=3 note=70 velocity=70 time=0.0305232375
EXTRACT: note_on channel=6 note=82 velocity=0 time=0.014534875
EXTRACT: note_on channel=6 note=86 velocity=78 time=0.16860455
EXTRACT: note_on channel=7 note=72 velocity=0 time=0.031976725
EXTRACT: note_on channel=3 note=70 velocity=0 time=0.0116279
EXTRACT: note_on channel=6 note=86 velocity=0 time=0.0930232
EXTRACT: note_on channel=1 note=34 velocity=103 time=0.037790675
EXTRACT: note_on channel=9 note=36 velocity=75 time=0
EXTRACT: note_on channel=9 note=36 velocity=0 time=0
EXTRACT: note_on channel=3 note=70 velocity=72 time=0.014534875
EXTRACT: note_on channel=1 note=34 velocity=0 time=0.0479650875
EXTRACT: note_on channel=5 note=70 velocity=0 time=0.1090115625
EXTRACT: note_on channel=5 note=74 velocity=0 time=0
EXTRACT: note_on channel=6 note=77 velocity=71 time=0.0014534875
EXTRACT: note_on channel=6 note=84 velocity=81 time=0
EXTRACT: note_on channel=1 note=34 velocity=127 time=0.0014534875
EXTRACT: note_on channel=5 note=69 velocity=78 time=0
EXTRACT: note_on channel=5 note=72 velocity=78 time=0
EXTRACT: note_on channel=7 note=84 velocity=37 time=0
EXTRACT: note_on channel=9 note=36 velocity=119 time=0
EXTRACT: note_on channel=9 note=36 velocity=0 time=0
EXTRACT: control_change channel=6 control=64 value=127 time=0.0276162625
EXTRACT: control_change channel=6 control=64 value=0 time=0.0363371875
EXTRACT: note_on channel=3 note=70 velocity=0 time=0.0043604625000000004
EXTRACT: control_change channel=6 control=64 value=127 time=0.0770348375
EXTRACT: note_on channel=3 note=70 velocity=70 time=0.0247092875
EXTRACT: note_on channel=6 note=84 velocity=0 time=0.1468022375
EXTRACT: note_on channel=6 note=77 velocity=0 time=0.008720925000000001
EXTRACT: note_on channel=6 note=81 velocity=78 time=0.0232558
EXTRACT: note_on channel=9 note=36 velocity=108 time=0
EXTRACT: note_on channel=9 note=36 velocity=0 time=0
EXTRACT: note_on channel=9 note=69 velocity=85 time=0
EXTRACT: note_on channel=9 note=69 velocity=0 time=0
EXTRACT: note_on channel=7 note=79 velocity=0 time=0.031976725
EXTRACT: note_on channel=3 note=70 velocity=0 time=0.0101744125
EXTRACT: note_on channel=3 note=70 velocity=72 time=0.09883715
EXTRACT: note_on channel=6 note=81 velocity=0 time=0.0043604625000000004
EXTRACT: note_on channel=9 note=69 velocity=81 time=0.02906975
EXTRACT: note_on channel=9 note=69 velocity=0 time=0
EXTRACT: note_on channel=3 note=70 velocity=0 time=0.1046511
EXTRACT: note_on channel=6 note=89 velocity=70 time=0.06976740000000001
EXTRACT: note_on channel=9 note=39 velocity=123 time=0
EXTRACT: note_on channel=9 note=39 velocity=0 time=0
EXTRACT: note_on channel=1 note=34 velocity=0 time=0.0043604625000000004
EXTRACT: note_on channel=3 note=70 velocity=72 time=0.0072674375
EXTRACT: note_on channel=6 note=89 velocity=0 time=0.20348825
EXTRACT: note_on channel=3 note=72 velocity=72 time=0.0392441625
EXTRACT: note_on channel=3 note=70 velocity=0 time=0.02906975
EXTRACT: note_on channel=6 note=84 velocity=72 time=0.0654069375
EXTRACT: note_on channel=7 note=84 velocity=0 time=0.031976725
EXTRACT: note_on channel=3 note=72 velocity=0 time=0.034883700000000004
EXTRACT: note_on channel=6 note=84 velocity=0 time=0.0595929875
EXTRACT: note_on channel=3 note=74 velocity=72 time=0.0043604625000000004
EXTRACT: control_change channel=6 control=64 value=0 time=0.200581275
EXTRACT: note_on channel=5 note=69 velocity=0 time=0.014534875
EXTRACT: note_on channel=5 note=72 velocity=0 time=0
EXTRACT: note_on channel=1 note=34 velocity=121 time=0.002906975
EXTRACT: note_on channel=5 note=67 velocity=78 time=0
EXTRACT: note_on channel=5 note=70 velocity=78 time=0
EXTRACT: note_on channel=9 note=36 velocity=116 time=0
EXTRACT: note_on channel=9 note=36 velocity=0 time=0
EXTRACT: control_change channel=6 control=64 value=0 time=0.0188953375
EXTRACT: note_on channel=3 note=74 velocity=0 time=0.0188953375
EXTRACT: note_on channel=3 note=70 velocity=72 time=0.1438952625
EXTRACT: note_on channel=3 note=70 velocity=0 time=0.130813875
EXTRACT: note_on channel=6 note=82 velocity=75 time=0.0334302125
EXTRACT: note_on channel=9 note=69 velocity=88 time=0.002906975
EXTRACT: note_on channel=9 note=69 velocity=0 time=0
EXTRACT: note_on channel=3 note=77 velocity=72 time=0.0072674375
EXTRACT: note_on channel=3 note=77 velocity=0 time=0.09883715
EXTRACT: note_on channel=3 note=77 velocity=70 time=0.0624999625
EXTRACT: note_on channel=9 note=69 velocity=82 time=0.00581395
EXTRACT: note_on channel=9 note=69 velocity=0 time=0
EXTRACT: note_on channel=3 note=77 velocity=0 time=0.08720925
EXTRACT: note_on channel=1 note=34 velocity=0 time=0.072674375
EXTRACT: note_on channel=3 note=77 velocity=73 time=0.008720925000000001
EXTRACT: note_on channel=6 note=87 velocity=81 time=0.0043604625000000004
EXTRACT: note_on channel=6 note=79 velocity=73 time=0
EXTRACT: note_on channel=9 note=39 velocity=126 time=0.0014534875
EXTRACT: note_on channel=9 note=39 velocity=0 time=0
EXTRACT: control_change channel=6 control=64 value=127 time=0.0188953375
EXTRACT: note_on channel=6 note=82 velocity=0 time=0.0276162625
EXTRACT: note_on channel=3 note=77 velocity=0 time=0.136627825
EXTRACT: note_on channel=3 note=70 velocity=72 time=0.055232525
EXTRACT: note_on channel=6 note=87 velocity=0 time=0.0886627375
EXTRACT: note_on channel=6 note=82 velocity=73 time=0.0218023125
EXTRACT: note_on channel=6 note=79 velocity=0 time=0.002906975
EXTRACT: note_on channel=3 note=70 velocity=0 time=0.0508720625
EXTRACT: note_on channel=3 note=70 velocity=72 time=0.0828487875
EXTRACT: note_on channel=1 note=34 velocity=105 time=0.037790675
EXTRACT: note_on channel=9 note=36 velocity=75 time=0
EXTRACT: note_on channel=9 note=36 velocity=0 time=0
EXTRACT: note_on channel=1 note=34 velocity=0 time=0.0537790375
EXTRACT: control_change channel=6 control=64 value=0 time=0.049418575
EXTRACT: note_on channel=3 note=70 velocity=0 time=0.008720925000000001
EXTRACT: note_on channel=6 note=82 velocity=0 time=0.020348825
EXTRACT: note_on channel=5 note=67 velocity=0 time=0.0392441625
EXTRACT: note_on channel=1 note=34 velocity=121 time=0.002906975
EXTRACT: note_on channel=3 note=70 velocity=70 time=0
EXTRACT: note_on channel=5 note=66 velocity=78 time=0
EXTRACT: note_on channel=9 note=36 velocity=119 time=0
EXTRACT: note_on channel=9 note=36 velocity=0 time=0
EXTRACT: note_on channel=3 note=70 velocity=0 time=0.0930232
EXTRACT: note_on channel=3 note=70 velocity=70 time=0.0813953
EXTRACT: note_on channel=3 note=70 velocity=0 time=0.0930232
EXTRACT: note_on channel=3 note=70 velocity=74 time=0.0712208875
EXTRACT: note_on channel=6 note=78 velocity=70 time=0.0101744125
EXTRACT: note_on channel=9 note=36 velocity=108 time=0
EXTRACT: note_on channel=9 note=36 velocity=0 time=0
EXTRACT: note_on channel=9 note=69 velocity=85 time=0
EXTRACT: note_on channel=9 note=69 velocity=0 time=0
EXTRACT: note_on channel=3 note=70 velocity=0 time=0.1671510625
EXTRACT: note_on channel=9 note=69 velocity=81 time=0.0072674375
EXTRACT: note_on channel=9 note=69 velocity=0 time=0
EXTRACT: note_on channel=3 note=72 velocity=71 time=0.0014534875
EXTRACT: note_on channel=3 note=72 velocity=0 time=0.142441775
EXTRACT: note_on channel=6 note=87 velocity=83 time=0.02906975
EXTRACT: note_on channel=4 note=82 velocity=78 time=0.0014534875
EXTRACT: note_on channel=6 note=82 velocity=71 time=0
EXTRACT: note_on channel=9 note=39 velocity=123 time=0
EXTRACT: note_on channel=9 note=39 velocity=0 time=0
EXTRACT: note_on channel=1 note=34 velocity=0 time=0.0043604625000000004
EXTRACT: note_on channel=6 note=78 velocity=0 time=0.0232558
EXTRACT: note_on channel=3 note=75 velocity=72 time=0.0159883625
EXTRACT: note_on channel=4 note=82 velocity=0 time=0.1874998875
EXTRACT: note_on channel=4 note=81 velocity=78 time=0.0014534875
EXTRACT: control_change channel=6 control=64 value=127 time=0.0043604625000000004
EXTRACT: note_on channel=3 note=75 velocity=0 time=0.031976725
EXTRACT: note_on channel=3 note=74 velocity=72 time=0.014534875
EXTRACT: note_on channel=6 note=82 velocity=0 time=0.0624999625
EXTRACT: note_on channel=6 note=78 velocity=78 time=0.002906975
EXTRACT: note_on channel=6 note=87 velocity=0 time=0.1031976125
EXTRACT: note_on channel=4 note=81 velocity=0 time=0.0116279
EXTRACT: note_on channel=4 note=79 velocity=78 time=0.0014534875
EXTRACT: note_on channel=3 note=74 velocity=0 time=0.0014534875
EXTRACT: note_on channel=3 note=72 velocity=72 time=0.043604625
EXTRACT: note_on channel=9 note=84 velocity=76 time=0.0130813875
EXTRACT: note_on channel=9 note=84 velocity=0 time=0
EXTRACT: note_on channel=6 note=78 velocity=0 time=0.0305232375
EXTRACT: note_on channel=5 note=70 velocity=0 time=0.1409882875
EXTRACT: note_on channel=5 note=66 velocity=0 time=0
EXTRACT: note_on channel=4 note=79 velocity=0 time=0.0014534875
EXTRACT: note_on channel=1 note=34 velocity=127 time=0.0014534875
EXTRACT: note_on channel=9 note=36 velocity=116 time=0
EXTRACT: note_on channel=9 note=36 velocity=0 time=0
EXTRACT: note_on channel=4 note=77 velocity=78 time=0.0014534875
EXTRACT: note_on channel=3 note=72 velocity=0 time=0.031976725
EXTRACT: control_change channel=6 control=64 value=0 time=0.008720925000000001
EXTRACT: pitchwheel channel=5 pitch=-6656 time=0.061046475
EXTRACT: pitchwheel channel=5 pitch=-7296 time=0.00581395
EXTRACT: pitchwheel channel=5 pitch=-8064 time=0.00581395
EXTRACT: note_on channel=4 note=77 velocity=0 time=0.1177324875
EXTRACT: note_on channel=4 note=74 velocity=78 time=0.0014534875
EXTRACT: control_change channel=6 control=64 value=127 time=0.1046511
EXTRACT: note_on channel=6 note=86 velocity=83 time=0.0072674375
EXTRACT: note_on channel=6 note=77 velocity=60 time=0.0014534875
EXTRACT: note_on channel=9 note=69 velocity=88 time=0.0014534875
EXTRACT: note_on channel=9 note=69 velocity=0 time=0
EXTRACT: note_on channel=4 note=74 velocity=0 time=0.1148255125
EXTRACT: note_on channel=4 note=72 velocity=78 time=0.002906975
EXTRACT: note_on channel=3 note=72 velocity=72 time=0.055232525
EXTRACT: note_on channel=9 note=69 velocity=82 time=0.0014534875
EXTRACT: note_on channel=9 note=69 velocity=0 time=0
EXTRACT: note_on channel=6 note=77 velocity=0 time=0.020348825
EXTRACT: note_on channel=6 note=86 velocity=0 time=0.008720925000000001
EXTRACT: note_on channel=3 note=72 velocity=0 time=0.11046505
EXTRACT: note_on channel=1 note=34 velocity=0 time=0.0116279
EXTRACT: note_on channel=6 note=82 velocity=80 time=0.020348825
EXTRACT: note_on channel=4 note=72 velocity=0 time=0.002906975
EXTRACT: note_on channel=5 note=70 velocity=78 time=0
EXTRACT: note_on channel=5 note=74 velocity=78 time=0
EXTRACT: note_on channel=6 note=74 velocity=67 time=0
EXTRACT: note_on channel=9 note=39 velocity=126 time=0
EXTRACT: note_on channel=9 note=39 velocity=0 time=0
EXTRACT: note_on channel=4 note=70 velocity=78 time=0.0014534875
EXTRACT: note_on channel=3 note=70 velocity=72 time=0.002906975
EXTRACT: pitchwheel channel=5 pitch=-6784 time=0.0305232375
EXTRACT: pitchwheel channel=5 pitch=-5120 time=0.00581395
EXTRACT: pitchwheel channel=5 pitch=-3584 time=0.00581395
EXTRACT: pitchwheel channel=5 pitch=-1792 time=0.00581395
EXTRACT: pitchwheel channel=5 pitch=-384 time=0.0072674375
EXTRACT: pitchwheel channel=5 pitch=0 time=0.00581395
EXTRACT: note_on channel=6 note=74 velocity=0 time=0.066860425
EXTRACT: note_on channel=6 note=82 velocity=0 time=0.0043604625000000004
EXTRACT: note_on channel=3 note=70 velocity=0 time=0.0654069375
EXTRACT: note_on channel=3 note=72 velocity=72 time=0.072674375
EXTRACT: note_on channel=6 note=77 velocity=73 time=0.0712208875
EXTRACT: note_on channel=6 note=70 velocity=73 time=0.002906975
EXTRACT: note_on channel=3 note=72 velocity=0 time=0.1002906375
EXTRACT: note_on channel=3 note=70 velocity=72 time=0.06976740000000001
EXTRACT: note_on channel=1 note=34 velocity=99 time=0.0043604625000000004
EXTRACT: note_on channel=9 note=36 velocity=75 time=0
EXTRACT: note_on channel=9 note=36 velocity=0 time=0
EXTRACT: note_on channel=1 note=34 velocity=0 time=0.055232525
EXTRACT: note_on channel=6 note=77 velocity=0 time=0.078488325
EXTRACT: note_on channel=6 note=70 velocity=0 time=0.002906975
EXTRACT: note_on channel=3 note=70 velocity=0 time=0.0072674375
EXTRACT: note_on channel=5 note=74 velocity=0 time=0.0276162625
EXTRACT: note_on channel=5 note=70 velocity=0 time=0
EXTRACT: note_on channel=3 note=77 velocity=72 time=0.0014534875
EXTRACT: note_on channel=1 note=34 velocity=127 time=0.0014534875
EXTRACT: note_on channel=5 note=69 velocity=78 time=0
EXTRACT: note_on channel=5 note=72 velocity=78 time=0
EXTRACT: note_on channel=6 note=72 velocity=85 time=0
EXTRACT: note_on channel=9 note=36 velocity=119 time=0
EXTRACT: note_on channel=9 note=36 velocity=0 time=0
EXTRACT: control_change channel=6 control=64 value=0 time=0.02906975
EXTRACT: control_change channel=6 control=64 value=127 time=0.014534875
EXTRACT: note_on channel=3 note=77 velocity=0 time=0.1700580375
EXTRACT: note_on channel=4 note=70 velocity=0 time=0.0188953375
EXTRACT: note_on channel=6 note=69 velocity=80 time=0.116279
EXTRACT: note_on channel=9 note=36 velocity=108 time=0
EXTRACT: note_on channel=9 note=36 velocity=0 time=0
EXTRACT: note_on channel=9 note=69 velocity=85 time=0
EXTRACT: note_on channel=9 note=69 velocity=0 time=0
EXTRACT: note_on channel=3 note=72 velocity=70 time=0.0043604625000000004
EXTRACT: note_on channel=6 note=72 velocity=0 time=0.0232558
EXTRACT: note_on channel=6 note=69 velocity=0 time=0.1046511
EXTRACT: note_on channel=9 note=69 velocity=81 time=0.0421511375
EXTRACT: note_on channel=9 note=69 velocity=0 time=0
EXTRACT: note_on channel=3 note=70 velocity=72 time=0.0072674375
EXTRACT: note_on channel=3 note=72 velocity=0 time=0.0101744125
EXTRACT: note_on channel=6 note=84 velocity=85 time=0.1555231625
EXTRACT: note_on channel=6 note=77 velocity=73 time=0.0014534875
EXTRACT: note_on channel=9 note=39 velocity=123 time=0
EXTRACT: note_on channel=9 note=39 velocity=0 time=0
EXTRACT: note_on channel=3 note=70 velocity=0 time=0.078488325
EXTRACT: note_on channel=1 note=34 velocity=0 time=0.0305232375
EXTRACT: note_on channel=3 note=72 velocity=72 time=0.0712208875
EXTRACT: note_on channel=6 note=84 velocity=0 time=0.014534875
EXTRACT: note_on channel=6 note=77 velocity=0 time=0.0043604625000000004
EXTRACT: note_on channel=6 note=81 velocity=82 time=0.1497092125
EXTRACT: note_on channel=3 note=72 velocity=0 time=0.06395345
EXTRACT: note_on channel=6 note=81 velocity=0 time=0.0930232
EXTRACT: note_on channel=3 note=70 velocity=72 time=0.04069765
EXTRACT: control_change channel=6 control=64 value=0 time=0.12209295
EXTRACT: note_on channel=3 note=70 velocity=0 time=0.0072674375
EXTRACT: note_on channel=6 note=53 velocity=81 time=0.014534875
EXTRACT: note_on channel=5 note=72 velocity=0 time=0.0043604625000000004
EXTRACT: note_on channel=5 note=69 velocity=0 time=0
EXTRACT: note_on channel=1 note=29 velocity=127 time=0.002906975
EXTRACT: note_on channel=5 note=67 velocity=78 time=0
EXTRACT: note_on channel=5 note=70 velocity=78 time=0
EXTRACT: note_on channel=7 note=49 velocity=62 time=0
EXTRACT: note_on channel=9 note=36 velocity=116 time=0
EXTRACT: note_on channel=9 note=36 velocity=0 time=0
EXTRACT: note_on channel=6 note=67 velocity=87 time=0.00581395
EXTRACT: note_on channel=6 note=70 velocity=82 time=0.0014534875
EXTRACT: note_on channel=6 note=63 velocity=73 time=0
EXTRACT: note_on channel=3 note=75 velocity=71 time=0.00581395
EXTRACT: control_change channel=6 control=64 value=127 time=0.008720925000000001
EXTRACT: note_on channel=3 note=75 velocity=0 time=0.2543603125
EXTRACT: note_on channel=6 note=53 velocity=0 time=0.0188953375
EXTRACT: note_on channel=9 note=69 velocity=88 time=0.0537790375
EXTRACT: note_on channel=9 note=69 velocity=0 time=0
EXTRACT: note_on channel=6 note=67 velocity=0 time=0.0043604625000000004
EXTRACT: note_on channel=3 note=74 velocity=72 time=0
EXTRACT: note_on channel=6 note=63 velocity=0 time=0.0014534875
EXTRACT: note_on channel=6 note=70 velocity=0 time=0
EXTRACT: note_on channel=9 note=69 velocity=82 time=0.16860455
EXTRACT: note_on channel=9 note=69 velocity=0 time=0
EXTRACT: note_on channel=3 note=74 velocity=0 time=0.008720925000000001
EXTRACT: note_on channel=3 note=72 velocity=70 time=0.0130813875
EXTRACT: note_on channel=1 note=29 velocity=0 time=0.02906975
EXTRACT: control_change channel=6 control=64 value=0 time=0.0828487875
EXTRACT: note_on channel=6 note=53 velocity=77 time=0.031976725
EXTRACT: note_on channel=6 note=69 velocity=80 time=0.0014534875
EXTRACT: note_on channel=6 note=72 velocity=77 time=0.0014534875
EXTRACT: note_on channel=6 note=65 velocity=66 time=0.0014534875
EXTRACT: note_on channel=5 note=70 velocity=0 time=0.0014534875
EXTRACT: note_on channel=5 note=67 velocity=0 time=0
EXTRACT: note_on channel=1 note=29 velocity=126 time=0.002906975
EXTRACT: note_on channel=5 note=69 velocity=78 time=0
EXTRACT: note_on channel=5 note=72 velocity=78 time=0
EXTRACT: note_on channel=7 note=55 velocity=62 time=0
EXTRACT: note_on channel=9 note=36 velocity=119 time=0
EXTRACT: note_on channel=9 note=36 velocity=0 time=0
EXTRACT: note_on channel=3 note=72 velocity=0 time=0.06395345
EXTRACT: control_change channel=6 control=64 value=127 time=0.0813953
EXTRACT: note_on channel=3 note=70 velocity=72 time=0.0305232375
EXTRACT: note_on channel=6 note=65 velocity=0 time=0.1293603875
EXTRACT: note_on channel=6 note=69 velocity=0 time=0.0276162625
EXTRACT: note_on channel=6 note=72 velocity=0 time=0.002906975
EXTRACT: note_on channel=6 note=53 velocity=0 time=0.0159883625
EXTRACT: note_on channel=7 note=49 velocity=0 time=0.02906975
EXTRACT: note_on channel=3 note=70 velocity=0 time=0.055232525
EXTRACT: note_on channel=4 note=75 velocity=76 time=0.084302275
EXTRACT: note_on channel=4 note=79 velocity=76 time=0.002906975
EXTRACT: note_on channel=4 note=82 velocity=76 time=0
EXTRACT: note_on channel=3 note=75 velocity=70 time=0.0014534875
EXTRACT: note_on channel=1 note=29 velocity=0 time=0.043604625
EXTRACT: control_change channel=6 control=64 value=0 time=0.1119185375
EXTRACT: note_on channel=6 note=70 velocity=76 time=0.0101744125
EXTRACT: note_on channel=6 note=67 velocity=83 time=0.0014534875
EXTRACT: note_on channel=6 note=53 velocity=80 time=0.0014534875
EXTRACT: note_on channel=5 note=69 velocity=0 time=0.0014534875
EXTRACT: note_on channel=5 note=72 velocity=0 time=0
EXTRACT: note_on channel=6 note=74 velocity=84 time=0
EXTRACT: note_on channel=1 note=29 velocity=127 time=0.002906975
EXTRACT: note_on channel=5 note=70 velocity=78 time=0
EXTRACT: note_on channel=5 note=74 velocity=78 time=0
EXTRACT: note_on channel=7 note=60 velocity=62 time=0
EXTRACT: note_on channel=9 note=36 velocity=108 time=0
EXTRACT: note_on channel=9 note=36 velocity=0 time=0
EXTRACT: note_on channel=3 note=75 velocity=0 time=0.07558135
EXTRACT: note_on channel=4 note=75 velocity=0 time=0.06395345
EXTRACT: note_on channel=4 note=82 velocity=0 time=0.002906975
EXTRACT: note_on channel=4 note=79 velocity=0 time=0
EXTRACT: control_change channel=6 control=64 value=127 time=0.020348825
EXTRACT: note_on channel=3 note=74 velocity=71 time=0.002906975
EXTRACT: note_on channel=4 note=74 velocity=76 time=0.0043604625000000004
EXTRACT: note_on channel=4 note=79 velocity=76 time=0.0043604625000000004
EXTRACT: note_on channel=4 note=82 velocity=76 time=0
EXTRACT: note_on channel=6 note=74 velocity=0 time=0.07558135
EXTRACT: note_on channel=6 note=67 velocity=0 time=0.0072674375
EXTRACT: note_on channel=6 note=70 velocity=0 time=0.00581395
EXTRACT: note_on channel=6 note=53 velocity=0 time=0.014534875
EXTRACT: note_on channel=9 note=69 velocity=85 time=0.0712208875
EXTRACT: note_on channel=9 note=69 velocity=0 time=0
EXTRACT: note_on channel=7 note=55 velocity=0 time=0.031976725
EXTRACT: note_on channel=3 note=74 velocity=0 time=0.04069765
EXTRACT: note_on channel=3 note=72 velocity=71 time=0.06976740000000001
EXTRACT: note_on channel=4 note=74 velocity=0 time=0.0101744125
EXTRACT: note_on channel=4 note=79 velocity=0 time=0.002906975
EXTRACT: note_on channel=4 note=82 velocity=0 time=0
EXTRACT: note_on channel=4 note=72 velocity=76 time=0.014534875
EXTRACT: note_on channel=4 note=77 velocity=76 time=0.0043604625000000004
EXTRACT: note_on channel=4 note=81 velocity=76 time=0
EXTRACT: note_on channel=9 note=69 velocity=81 time=0
EXTRACT: note_on channel=9 note=69 velocity=0 time=0
EXTRACT: note_on channel=1 note=29 velocity=0 time=0.049418575
EXTRACT: control_change channel=6 control=64 value=0 time=0.0930232
EXTRACT: note_on channel=5 note=70 velocity=0 time=0.02906975
EXTRACT: note_on channel=5 note=74 velocity=0 time=0
EXTRACT: note_on channel=6 note=53 velocity=76 time=0
EXTRACT: note_on channel=1 note=29 velocity=127 time=0.002906975
EXTRACT: note_on channel=5 note=72 velocity=78 time=0
EXTRACT: note_on channel=5 note=75 velocity=76 time=0
EXTRACT: note_on channel=6 note=70 velocity=86 time=0
EXTRACT: note_on channel=6 note=67 velocity=75 time=0
EXTRACT: note_on channel=6 note=75 velocity=84 time=0
EXTRACT: note_on channel=7 note=67 velocity=62 time=0
EXTRACT: note_on channel=9 note=36 velocity=119 time=0
EXTRACT: note_on channel=9 note=36 velocity=0 time=0
EXTRACT: note_on channel=3 note=72 velocity=0 time=0.0944766875
EXTRACT: control_change channel=6 control=64 value=127 time=0.0072674375
EXTRACT: note_on channel=4 note=72 velocity=0 time=0.0450581125
EXTRACT: note_on channel=4 note=77 velocity=0 time=0.002906975
EXTRACT: note_on channel=4 note=81 velocity=0 time=0
EXTRACT: note_on channel=3 note=70 velocity=70 time=0.0188953375
EXTRACT: note_on channel=4 note=70 velocity=76 time=0.0014534875
EXTRACT: note_on channel=5 note=75 velocity=0 time=0.0014534875
EXTRACT: note_on channel=4 note=75 velocity=76 time=0.002906975
EXTRACT: note_on channel=4 note=79 velocity=76 time=0
EXTRACT: note_on channel=5 note=74 velocity=71 time=0
EXTRACT: note_on channel=6 note=67 velocity=0 time=0.05232555
EXTRACT: note_on channel=6 note=70 velocity=0 time=0.002906975
EXTRACT: note_on channel=6 note=75 velocity=0 time=0.0072674375
EXTRACT: note_on channel=6 note=53 velocity=0 time=0
EXTRACT: note_on channel=5 note=74 velocity=0 time=0.1090115625
EXTRACT: note_on channel=5 note=75 velocity=76 time=0.002906975
EXTRACT: note_on channel=7 note=60 velocity=0 time=0.031976725
EXTRACT: note_on channel=5 note=75 velocity=0 time=0.13953480000000001
EXTRACT: note_on channel=5 note=77 velocity=75 time=0.0043604625000000004
EXTRACT: note_on channel=3 note=70 velocity=0 time=0.008720925000000001
EXTRACT: note_on channel=1 note=29 velocity=0 time=0.05232555
EXTRACT: note_on channel=4 note=70 velocity=0 time=0.008720925000000001
EXTRACT: note_on channel=4 note=75 velocity=0 time=0.0043604625000000004
EXTRACT: note_on channel=4 note=79 velocity=0 time=0
EXTRACT: control_change channel=6 control=64 value=0 time=0.0072674375
EXTRACT: note_on channel=5 note=72 velocity=0 time=0.0886627375
EXTRACT: note_on channel=5 note=77 velocity=0 time=0.002906975
EXTRACT: note_on channel=1 note=34 velocity=127 time=0
EXTRACT: note_on channel=7 note=72 velocity=51 time=0
EXTRACT: note_on channel=9 note=36 velocity=116 time=0
EXTRACT: note_on channel=9 note=36 velocity=0 time=0
EXTRACT: control_change channel=6 control=64 value=127 time=0.0813953
EXTRACT: pitchwheel channel=5 pitch=-6656 time=0.0218023125
EXTRACT: pitchwheel channel=5 pitch=-7296 time=0.00581395
EXTRACT: pitchwheel channel=5 pitch=-8064 time=0.00581395
EXTRACT: note_on channel=6 note=86 velocity=82 time=0.232558
EXTRACT: note_on channel=6 note=77 velocity=68 time=0
EXTRACT: note_on channel=9 note=69 velocity=88 time=0.0014534875
EXTRACT: note_on channel=9 note=69 velocity=0 time=0
EXTRACT: note_on channel=7 note=67 velocity=0 time=0.031976725
EXTRACT: note_on channel=6 note=86 velocity=0 time=0.1177324875
EXTRACT: note_on channel=6 note=77 velocity=0 time=0.0014534875
EXTRACT: note_on channel=9 note=69 velocity=82 time=0.0232558
EXTRACT: note_on channel=9 note=69 velocity=0 time=0
EXTRACT: note_on channel=1 note=34 velocity=0 time=0.13953480000000001
EXTRACT: note_on channel=6 note=82 velocity=71 time=0.0334302125
EXTRACT: note_on channel=6 note=89 velocity=75 time=0
EXTRACT: note_on channel=5 note=70 velocity=78 time=0.0014534875
EXTRACT: note_on channel=5 note=74 velocity=78 time=0
EXTRACT: note_on channel=7 note=79 velocity=42 time=0
EXTRACT: note_on channel=9 note=39 velocity=126 time=0
EXTRACT: note_on channel=9 note=39 velocity=0 time=0
EXTRACT: pitchwheel channel=5 pitch=-6784 time=0.034883700000000004
EXTRACT: pitchwheel channel=5 pitch=-5120 time=0.00581395
EXTRACT: pitchwheel channel=5 pitch=-3584 time=0.00581395
EXTRACT: pitchwheel channel=5 pitch=-1792 time=0.00581395
EXTRACT: pitchwheel channel=5 pitch=-384 time=0.0072674375
EXTRACT: pitchwheel channel=5 pitch=0 time=0.00581395
EXTRACT: note_on channel=6 note=89 velocity=0 time=0.06976740000000001
EXTRACT: note_on channel=3 note=70 velocity=70 time=0.0305232375
EXTRACT: note_on channel=6 note=82 velocity=0 time=0.014534875
EXTRACT: note_on channel=6 note=86 velocity=78 time=0.16860455
EXTRACT: note_on channel=7 note=72 velocity=0 time=0.031976725
EXTRACT: note_on channel=3 note=70 velocity=0 time=0.0116279
EXTRACT: note_on channel=6 note=86 velocity=0 time=0.0930232
EXTRACT: note_on channel=1 note=34 velocity=103 time=0.037790675
EXTRACT: note_on channel=9 note=36 velocity=75 time=0
EXTRACT: note_on channel=9 note=36 velocity=0 time=0
EXTRACT: note_on channel=3 note=70 velocity=72 time=0.014534875
EXTRACT: note_on channel=1 note=34 velocity=0 time=0.0479650875
EXTRACT: note_on channel=5 note=70 velocity=0 time=0.1090115625
EXTRACT: note_on channel=5 note=74 velocity=0 time=0
EXTRACT: note_on channel=6 note=77 velocity=71 time=0.0014534875
EXTRACT: note_on channel=6 note=84 velocity=81 time=0
EXTRACT: note_on channel=1 note=34 velocity=127 time=0.0014534875
EXTRACT: note_on channel=5 note=69 velocity=78 time=0
EXTRACT: note_on channel=5 note=72 velocity=78 time=0
EXTRACT: note_on channel=7 note=84 velocity=37 time=0
EXTRACT: note_on channel=9 note=36 velocity=119 time=0
EXTRACT: note_on channel=9 note=36 velocity=0 time=0
EXTRACT: control_change channel=6 control=64 value=127 time=0.0276162625
EXTRACT: control_change channel=6 control=64 value=0 time=0.0363371875
EXTRACT: note_on channel=3 note=70 velocity=0 time=0.0043604625000000004
EXTRACT: control_change channel=6 control=64 value=127 time=0.0770348375
EXTRACT: note_on channel=3 note=70 velocity=70 time=0.0247092875
EXTRACT: note_on channel=6 note=84 velocity=0 time=0.1468022375
EXTRACT: note_on channel=6 note=77 velocity=0 time=0.008720925000000001
EXTRACT: note_on channel=6 note=81 velocity=78 time=0.0232558
EXTRACT: note_on channel=9 note=36 velocity=108 time=0
EXTRACT: note_on channel=9 note=36 velocity=0 time=0
EXTRACT: note_on channel=9 note=69 velocity=85 time=0
EXTRACT: note_on channel=9 note=69 velocity=0 time=0
EXTRACT: note_on channel=7 note=79 velocity=0 time=0.031976725
EXTRACT: note_on channel=3 note=70 velocity=0 time=0.0101744125
EXTRACT: note_on channel=3 note=70 velocity=72 time=0.09883715
EXTRACT: note_on channel=6 note=81 velocity=0 time=0.0043604625000000004
EXTRACT: note_on channel=9 note=69 velocity=81 time=0.02906975
EXTRACT: note_on channel=9 note=69 velocity=0 time=0
EXTRACT: note_on channel=3 note=70 velocity=0 time=0.1046511
EXTRACT: note_on channel=6 note=89 velocity=70 time=0.06976740000000001
EXTRACT: note_on channel=9 note=39 velocity=123 time=0
EXTRACT: note_on channel=9 note=39 velocity=0 time=0
EXTRACT: note_on channel=1 note=34 velocity=0 time=0.0043604625000000004
EXTRACT: note_on channel=3 note=70 velocity=72 time=0.0072674375
EXTRACT: note_on channel=6 note=89 velocity=0 time=0.20348825
EXTRACT: note_on channel=3 note=72 velocity=72 time=0.0392441625
EXTRACT: note_on channel=3 note=70 velocity=0 time=0.02906975
EXTRACT: note_on channel=6 note=84 velocity=72 time=0.0654069375
EXTRACT: note_on channel=7 note=84 velocity=0 time=0.031976725
EXTRACT: note_on channel=3 note=72 velocity=0 time=0.034883700000000004
EXTRACT: note_on channel=6 note=84 velocity=0 time=0.0595929875
EXTRACT: note_on channel=3 note=74 velocity=72 time=0.0043604625000000004
EXTRACT: control_change channel=6 control=64 value=0 time=0.200581275
EXTRACT: note_on channel=5 note=69 velocity=0 time=0.014534875
EXTRACT: note_on channel=5 note=72 velocity=0 time=0
EXTRACT: note_on channel=1 note=34 velocity=121 time=0.002906975
EXTRACT: note_on channel=5 note=67 velocity=78 time=0
EXTRACT: note_on channel=5 note=70 velocity=78 time=0
EXTRACT: note_on channel=9 note=36 velocity=116 time=0
EXTRACT: note_on channel=9 note=36 velocity=0 time=0
EXTRACT: control_change channel=6 control=64 value=0 time=0.0188953375
EXTRACT: note_on channel=3 note=74 velocity=0 time=0.0188953375
EXTRACT: note_on channel=3 note=70 velocity=72 time=0.1438952625
EXTRACT: note_on channel=3 note=70 velocity=0 time=0.130813875
EXTRACT: note_on channel=6 note=82 velocity=75 time=0.0334302125
EXTRACT: note_on channel=9 note=69 velocity=88 time=0.002906975
EXTRACT: note_on channel=9 note=69 velocity=0 time=0
EXTRACT: note_on channel=3 note=77 velocity=72 time=0.0072674375
EXTRACT: note_on channel=3 note=77 velocity=0 time=0.09883715
EXTRACT: note_on channel=3 note=77 velocity=70 time=0.0624999625
EXTRACT: note_on channel=9 note=69 velocity=82 time=0.00581395
EXTRACT: note_on channel=9 note=69 velocity=0 time=0
EXTRACT: note_on channel=3 note=77 velocity=0 time=0.08720925
EXTRACT: note_on channel=1 note=34 velocity=0 time=0.072674375
EXTRACT: note_on channel=3 note=77 velocity=73 time=0.008720925000000001
EXTRACT: note_on channel=6 note=87 velocity=81 time=0.0043604625000000004
EXTRACT: note_on channel=6 note=79 velocity=73 time=0
EXTRACT: note_on channel=9 note=39 velocity=126 time=0.0014534875
EXTRACT: note_on channel=9 note=39 velocity=0 time=0
EXTRACT: control_change channel=6 control=64 value=127 time=0.0188953375
EXTRACT: note_on channel=6 note=82 velocity=0 time=0.0276162625
EXTRACT: note_on channel=3 note=77 velocity=0 time=0.136627825
EXTRACT: note_on channel=3 note=70 velocity=72 time=0.055232525
EXTRACT: note_on channel=6 note=87 velocity=0 time=0.0886627375
EXTRACT: note_on channel=6 note=82 velocity=73 time=0.0218023125
EXTRACT: note_on channel=6 note=79 velocity=0 time=0.002906975
EXTRACT: note_on channel=3 note=70 velocity=0 time=0.0508720625
EXTRACT: note_on channel=3 note=70 velocity=72 time=0.0828487875
EXTRACT: note_on channel=1 note=34 velocity=105 time=0.037790675
EXTRACT: note_on channel=9 note=36 velocity=75 time=0
EXTRACT: note_on channel=9 note=36 velocity=0 time=0
EXTRACT: note_on channel=1 note=34 velocity=0 time=0.0537790375
EXTRACT: control_change channel=6 control=64 value=0 time=0.049418575
EXTRACT: note_on channel=3 note=70 velocity=0 time=0.008720925000000001
EXTRACT: note_on channel=6 note=82 velocity=0 time=0.020348825
EXTRACT: note_on channel=5 note=67 velocity=0 time=0.0392441625
EXTRACT: note_on channel=1 note=34 velocity=121 time=0.002906975
EXTRACT: note_on channel=3 note=70 velocity=70 time=0
EXTRACT: note_on channel=5 note=66 velocity=78 time=0
EXTRACT: note_on channel=9 note=36 velocity=119 time=0
EXTRACT: note_on channel=9 note=36 velocity=0 time=0
EXTRACT: note_on channel=3 note=70 velocity=0 time=0.0930232
EXTRACT: note_on channel=3 note=70 velocity=70 time=0.0813953
EXTRACT: note_on channel=3 note=70 velocity=0 time=0.0930232
EXTRACT: note_on channel=3 note=70 velocity=74 time=0.0712208875
EXTRACT: note_on channel=6 note=78 velocity=70 time=0.0101744125
EXTRACT: note_on channel=9 note=36 velocity=108 time=0
EXTRACT: note_on channel=9 note=36 velocity=0 time=0
EXTRACT: note_on channel=9 note=69 velocity=85 time=0
EXTRACT: note_on channel=9 note=69 velocity=0 time=0
EXTRACT: note_on channel=3 note=70 velocity=0 time=0.1671510625
EXTRACT: note_on channel=9 note=69 velocity=81 time=0.0072674375
EXTRACT: note_on channel=9 note=69 velocity=0 time=0
EXTRACT: note_on channel=3 note=72 velocity=71 time=0.0014534875
EXTRACT: note_on channel=3 note=72 velocity=0 time=0.142441775
EXTRACT: note_on channel=6 note=87 velocity=83 time=0.02906975
EXTRACT: note_on channel=4 note=82 velocity=78 time=0.0014534875
EXTRACT: note_on channel=6 note=82 velocity=71 time=0
EXTRACT: note_on channel=9 note=39 velocity=123 time=0
EXTRACT: note_on channel=9 note=39 velocity=0 time=0
EXTRACT: note_on channel=1 note=34 velocity=0 time=0.0043604625000000004
EXTRACT: note_on channel=6 note=78 velocity=0 time=0.0232558
EXTRACT: note_on channel=3 note=75 velocity=72 time=0.0159883625
EXTRACT: note_on channel=4 note=82 velocity=0 time=0.1874998875
EXTRACT: note_on channel=4 note=81 velocity=78 time=0.0014534875
EXTRACT: control_change channel=6 control=64 value=127 time=0.0043604625000000004
EXTRACT: note_on channel=3 note=75 velocity=0 time=0.031976725
EXTRACT: note_on channel=3 note=74 velocity=72 time=0.014534875
EXTRACT: note_on channel=6 note=82 velocity=0 time=0.0624999625
EXTRACT: note_on channel=6 note=78 velocity=78 time=0.002906975
EXTRACT: note_on channel=6 note=87 velocity=0 time=0.1031976125
EXTRACT: note_on channel=4 note=81 velocity=0 time=0.0116279
EXTRACT: note_on channel=4 note=79 velocity=78 time=0.0014534875
EXTRACT: note_on channel=3 note=74 velocity=0 time=0.0014534875
EXTRACT: note_on channel=3 note=72 velocity=72 time=0.043604625
EXTRACT: note_on channel=9 note=84 velocity=76 time=0.0130813875
EXTRACT: note_on channel=9 note=84 velocity=0 time=0
EXTRACT: note_on channel=6 note=78 velocity=0 time=0.0305232375
EXTRACT: note_on channel=5 note=70 velocity=0 time=0.1409882875
EXTRACT: note_on channel=5 note=66 velocity=0 time=0
EXTRACT: note_on channel=4 note=79 velocity=0 time=0.0014534875
EXTRACT: note_on channel=1 note=34 velocity=127 time=0.0014534875
EXTRACT: note_on channel=9 note=36 velocity=116 time=0
EXTRACT: note_on channel=9 note=36 velocity=0 time=0
EXTRACT: note_on channel=4 note=77 velocity=78 time=0.0014534875
EXTRACT: note_on channel=3 note=72 velocity=0 time=0.031976725
EXTRACT: control_change channel=6 control=64 value=0 time=0.008720925000000001
EXTRACT: pitchwheel channel=5 pitch=-6656 time=0.061046475
EXTRACT: pitchwheel channel=5 pitch=-7296 time=0.00581395
EXTRACT: pitchwheel channel=5 pitch=-8064 time=0.00581395
EXTRACT: note_on channel=4 note=77 velocity=0 time=0.1177324875
EXTRACT: note_on channel=4 note=74 velocity=78 time=0.0014534875
EXTRACT: control_change channel=6 control=64 value=127 time=0.1046511
EXTRACT: note_on channel=6 note=86 velocity=83 time=0.0072674375
EXTRACT: note_on channel=6 note=77 velocity=60 time=0.0014534875
EXTRACT: note_on channel=9 note=69 velocity=88 time=0.0014534875
EXTRACT: note_on channel=9 note=69 velocity=0 time=0
EXTRACT: note_on channel=4 note=74 velocity=0 time=0.1148255125
EXTRACT: note_on channel=4 note=72 velocity=78 time=0.002906975
EXTRACT: note_on channel=3 note=72 velocity=72 time=0.055232525
EXTRACT: note_on channel=9 note=69 velocity=82 time=0.0014534875
EXTRACT: note_on channel=9 note=69 velocity=0 time=0
EXTRACT: note_on channel=6 note=77 velocity=0 time=0.020348825
EXTRACT: note_on channel=6 note=86 velocity=0 time=0.008720925000000001
EXTRACT: note_on channel=3 note=72 velocity=0 time=0.11046505
EXTRACT: note_on channel=1 note=34 velocity=0 time=0.0116279
EXTRACT: note_on channel=6 note=82 velocity=80 time=0.020348825
EXTRACT: note_on channel=4 note=72 velocity=0 time=0.002906975
EXTRACT: note_on channel=5 note=70 velocity=78 time=0
EXTRACT: note_on channel=5 note=74 velocity=78 time=0
EXTRACT: note_on channel=6 note=74 velocity=67 time=0
EXTRACT: note_on channel=9 note=39 velocity=126 time=0
EXTRACT: note_on channel=9 note=39 velocity=0 time=0
EXTRACT: note_on channel=4 note=70 velocity=78 time=0.0014534875
EXTRACT: note_on channel=3 note=70 velocity=72 time=0.002906975
EXTRACT: pitchwheel channel=5 pitch=-6784 time=0.0305232375
EXTRACT: pitchwheel channel=5 pitch=-5120 time=0.00581395
EXTRACT: pitchwheel channel=5 pitch=-3584 time=0.00581395
EXTRACT: pitchwheel channel=5 pitch=-1792 time=0.00581395
EXTRACT: pitchwheel channel=5 pitch=-384 time=0.0072674375
EXTRACT: pitchwheel channel=5 pitch=0 time=0.00581395
EXTRACT: note_on channel=6 note=74 velocity=0 time=0.066860425
EXTRACT: note_on channel=6 note=82 velocity=0 time=0.0043604625000000004
EXTRACT: note_on channel=3 note=70 velocity=0 time=0.0654069375
EXTRACT: note_on channel=3 note=72 velocity=72 time=0.072674375
EXTRACT: note_on channel=6 note=77 velocity=73 time=0.0712208875
EXTRACT: note_on channel=6 note=70 velocity=73 time=0.002906975
EXTRACT: note_on channel=3 note=72 velocity=0 time=0.1002906375
EXTRACT: note_on channel=3 note=70 velocity=72 time=0.06976740000000001
EXTRACT: note_on channel=1 note=34 velocity=99 time=0.0043604625000000004
EXTRACT: note_on channel=9 note=36 velocity=75 time=0
EXTRACT: note_on channel=9 note=36 velocity=0 time=0
EXTRACT: note_on channel=1 note=34 velocity=0 time=0.055232525
EXTRACT: note_on channel=6 note=77 velocity=0 time=0.078488325
EXTRACT: note_on channel=6 note=70 velocity=0 time=0.002906975
EXTRACT: note_on channel=3 note=70 velocity=0 time=0.0072674375
EXTRACT: note_on channel=5 note=74 velocity=0 time=0.0276162625
EXTRACT: note_on channel=5 note=70 velocity=0 time=0
EXTRACT: note_on channel=3 note=77 velocity=72 time=0.0014534875
EXTRACT: note_on channel=1 note=34 velocity=127 time=0.0014534875
EXTRACT: note_on channel=5 note=69 velocity=78 time=0
EXTRACT: note_on channel=5 note=72 velocity=78 time=0
EXTRACT: note_on channel=6 note=72 velocity=85 time=0
EXTRACT: note_on channel=9 note=36 velocity=119 time=0
EXTRACT: note_on channel=9 note=36 velocity=0 time=0
EXTRACT: control_change channel=6 control=64 value=0 time=0.02906975
EXTRACT: control_change channel=6 control=64 value=127 time=0.014534875
EXTRACT: note_on channel=3 note=77 velocity=0 time=0.1700580375
EXTRACT: note_on channel=4 note=70 velocity=0 time=0.0188953375
EXTRACT: note_on channel=6 note=69 velocity=80 time=0.116279
EXTRACT: note_on channel=9 note=36 velocity=108 time=0
EXTRACT: note_on channel=9 note=36 velocity=0 time=0
EXTRACT: note_on channel=9 note=69 velocity=85 time=0
EXTRACT: note_on channel=9 note=69 velocity=0 time=0
EXTRACT: note_on channel=3 note=72 velocity=70 time=0.0043604625000000004
EXTRACT: note_on channel=6 note=72 velocity=0 time=0.0232558
EXTRACT: note_on channel=6 note=69 velocity=0 time=0.1046511
EXTRACT: note_on channel=9 note=69 velocity=81 time=0.0421511375
EXTRACT: note_on channel=9 note=69 velocity=0 time=0
EXTRACT: note_on channel=3 note=70 velocity=72 time=0.0072674375
EXTRACT: note_on channel=3 note=72 velocity=0 time=0.0101744125
EXTRACT: note_on channel=6 note=84 velocity=85 time=0.1555231625
EXTRACT: note_on channel=6 note=77 velocity=73 time=0.0014534875
EXTRACT: note_on channel=9 note=39 velocity=123 time=0
EXTRACT: note_on channel=9 note=39 velocity=0 time=0
EXTRACT: note_on channel=3 note=70 velocity=0 time=0.078488325
EXTRACT: note_on channel=1 note=34 velocity=0 time=0.0305232375
EXTRACT: note_on channel=3 note=72 velocity=72 time=0.0712208875
EXTRACT: note_on channel=6 note=84 velocity=0 time=0.014534875
EXTRACT: note_on channel=6 note=77 velocity=0 time=0.0043604625000000004
EXTRACT: note_on channel=6 note=81 velocity=82 time=0.1497092125
EXTRACT: note_on channel=3 note=72 velocity=0 time=0.06395345
EXTRACT: note_on channel=6 note=81 velocity=0 time=0.0930232
EXTRACT: note_on channel=3 note=70 velocity=72 time=0.04069765
EXTRACT: control_change channel=6 control=64 value=0 time=0.12209295
EXTRACT: note_on channel=3 note=70 velocity=0 time=0.0072674375
EXTRACT: note_on channel=6 note=53 velocity=81 time=0.014534875
EXTRACT: note_on channel=5 note=72 velocity=0 time=0.0043604625000000004
EXTRACT: note_on channel=5 note=69 velocity=0 time=0
EXTRACT: note_on channel=1 note=29 velocity=127 time=0.002906975
EXTRACT: note_on channel=5 note=67 velocity=78 time=0
EXTRACT: note_on channel=5 note=70 velocity=78 time=0
EXTRACT: note_on channel=7 note=49 velocity=62 time=0
EXTRACT: note_on channel=9 note=36 velocity=116 time=0
EXTRACT: note_on channel=9 note=36 velocity=0 time=0
EXTRACT: note_on channel=6 note=67 velocity=87 time=0.00581395
EXTRACT: note_on channel=6 note=70 velocity=82 time=0.0014534875
EXTRACT: note_on channel=6 note=63 velocity=73 time=0
EXTRACT: note_on channel=3 note=75 velocity=71 time=0.00581395
EXTRACT: control_change channel=6 control=64 value=127 time=0.008720925000000001
EXTRACT: note_on channel=3 note=75 velocity=0 time=0.2543603125
EXTRACT: note_on channel=6 note=53 velocity=0 time=0.0188953375
EXTRACT: note_on channel=9 note=69 velocity=88 time=0.0537790375
EXTRACT: note_on channel=9 note=69 velocity=0 time=0
EXTRACT: note_on channel=6 note=67 velocity=0 time=0.0043604625000000004
EXTRACT: note_on channel=3 note=74 velocity=72 time=0
EXTRACT: note_on channel=6 note=63 velocity=0 time=0.0014534875
EXTRACT: note_on channel=6 note=70 velocity=0 time=0
EXTRACT: note_on channel=9 note=69 velocity=82 time=0.16860455
EXTRACT: note_on channel=9 note=69 velocity=0 time=0
EXTRACT: note_on channel=3 note=74 velocity=0 time=0.008720925000000001
EXTRACT: note_on channel=3 note=72 velocity=70 time=0.0130813875
EXTRACT: note_on channel=1 note=29 velocity=0 time=0.02906975
EXTRACT: control_change channel=6 control=64 value=0 time=0.0828487875
EXTRACT: note_on channel=6 note=53 velocity=77 time=0.031976725
EXTRACT: note_on channel=6 note=69 velocity=80 time=0.0014534875
EXTRACT: note_on channel=6 note=72 velocity=77 time=0.0014534875
EXTRACT: note_on channel=6 note=65 velocity=66 time=0.0014534875
EXTRACT: note_on channel=5 note=70 velocity=0 time=0.0014534875
EXTRACT: note_on channel=5 note=67 velocity=0 time=0
EXTRACT: note_on channel=1 note=29 velocity=126 time=0.002906975
EXTRACT: note_on channel=5 note=69 velocity=78 time=0
EXTRACT: note_on channel=5 note=72 velocity=78 time=0
EXTRACT: note_on channel=7 note=55 velocity=62 time=0
EXTRACT: note_on channel=9 note=36 velocity=119 time=0
EXTRACT: note_on channel=9 note=36 velocity=0 time=0
EXTRACT: note_on channel=3 note=72 velocity=0 time=0.06395345
EXTRACT: control_change channel=6 control=64 value=127 time=0.0813953
EXTRACT: note_on channel=3 note=70 velocity=72 time=0.0305232375
EXTRACT: note_on channel=6 note=65 velocity=0 time=0.1293603875
EXTRACT: note_on channel=6 note=69 velocity=0 time=0.0276162625
EXTRACT: note_on channel=6 note=72 velocity=0 time=0.002906975
EXTRACT: note_on channel=6 note=53 velocity=0 time=0.0159883625
EXTRACT: note_on channel=7 note=49 velocity=0 time=0.02906975
EXTRACT: note_on channel=3 note=70 velocity=0 time=0.055232525
EXTRACT: note_on channel=4 note=75 velocity=76 time=0.084302275
EXTRACT: note_on channel=4 note=79 velocity=76 time=0.002906975
EXTRACT: note_on channel=4 note=82 velocity=76 time=0
EXTRACT: note_on channel=3 note=75 velocity=70 time=0.0014534875
EXTRACT: note_on channel=1 note=29 velocity=0 time=0.043604625
EXTRACT: control_change channel=6 control=64 value=0 time=0.1119185375
EXTRACT: note_on channel=6 note=70 velocity=76 time=0.0101744125
EXTRACT: note_on channel=6 note=67 velocity=83 time=0.0014534875
EXTRACT: note_on channel=6 note=53 velocity=80 time=0.0014534875
EXTRACT: note_on channel=5 note=69 velocity=0 time=0.0014534875
EXTRACT: note_on channel=5 note=72 velocity=0 time=0
EXTRACT: note_on channel=6 note=74 velocity=84 time=0
EXTRACT: note_on channel=1 note=29 velocity=127 time=0.002906975
EXTRACT: note_on channel=5 note=70 velocity=78 time=0
EXTRACT: note_on channel=5 note=74 velocity=78 time=0
EXTRACT: note_on channel=7 note=60 velocity=62 time=0
EXTRACT: note_on channel=9 note=36 velocity=108 time=0
EXTRACT: note_on channel=9 note=36 velocity=0 time=0
EXTRACT: note_on channel=3 note=75 velocity=0 time=0.07558135
EXTRACT: note_on channel=4 note=75 velocity=0 time=0.06395345
EXTRACT: note_on channel=4 note=82 velocity=0 time=0.002906975
EXTRACT: note_on channel=4 note=79 velocity=0 time=0
EXTRACT: control_change channel=6 control=64 value=127 time=0.020348825
EXTRACT: note_on channel=3 note=74 velocity=71 time=0.002906975
EXTRACT: note_on channel=4 note=74 velocity=76 time=0.0043604625000000004
EXTRACT: note_on channel=4 note=79 velocity=76 time=0.0043604625000000004
EXTRACT: note_on channel=4 note=82 velocity=76 time=0
EXTRACT: note_on channel=6 note=74 velocity=0 time=0.07558135
EXTRACT: note_on channel=6 note=67 velocity=0 time=0.0072674375
EXTRACT: note_on channel=6 note=70 velocity=0 time=0.00581395
EXTRACT: note_on channel=6 note=53 velocity=0 time=0.014534875
EXTRACT: note_on channel=9 note=69 velocity=85 time=0.0712208875
EXTRACT: note_on channel=9 note=69 velocity=0 time=0
EXTRACT: note_on channel=7 note=55 velocity=0 time=0.031976725
EXTRACT: note_on channel=3 note=74 velocity=0 time=0.04069765
EXTRACT: note_on channel=3 note=72 velocity=71 time=0.06976740000000001
EXTRACT: note_on channel=4 note=74 velocity=0 time=0.0101744125
EXTRACT: note_on channel=4 note=79 velocity=0 time=0.002906975
EXTRACT: note_on channel=4 note=82 velocity=0 time=0
EXTRACT: note_on channel=4 note=72 velocity=76 time=0.014534875
EXTRACT: note_on channel=4 note=77 velocity=76 time=0.0043604625000000004
EXTRACT: note_on channel=4 note=81 velocity=76 time=0
EXTRACT: note_on channel=9 note=69 velocity=81 time=0
EXTRACT: note_on channel=9 note=69 velocity=0 time=0
EXTRACT: note_on channel=1 note=29 velocity=0 time=0.049418575
EXTRACT: control_change channel=6 control=64 value=0 time=0.0930232
EXTRACT: note_on channel=5 note=70 velocity=0 time=0.02906975
EXTRACT: note_on channel=5 note=74 velocity=0 time=0
EXTRACT: note_on channel=6 note=53 velocity=76 time=0
EXTRACT: note_on channel=1 note=29 velocity=127 time=0.002906975
EXTRACT: note_on channel=5 note=72 velocity=78 time=0
EXTRACT: note_on channel=5 note=75 velocity=76 time=0
EXTRACT: note_on channel=6 note=70 velocity=86 time=0
EXTRACT: note_on channel=6 note=67 velocity=75 time=0
EXTRACT: note_on channel=6 note=75 velocity=84 time=0
EXTRACT: note_on channel=7 note=67 velocity=62 time=0
EXTRACT: note_on channel=9 note=36 velocity=119 time=0
EXTRACT: note_on channel=9 note=36 velocity=0 time=0
EXTRACT: note_on channel=3 note=72 velocity=0 time=0.0944766875
EXTRACT: control_change channel=6 control=64 value=127 time=0.0072674375
EXTRACT: note_on channel=4 note=72 velocity=0 time=0.0450581125
EXTRACT: note_on channel=4 note=77 velocity=0 time=0.002906975
EXTRACT: note_on channel=4 note=81 velocity=0 time=0
EXTRACT: note_on channel=3 note=70 velocity=70 time=0.0188953375
EXTRACT: note_on channel=4 note=70 velocity=76 time=0.0014534875
EXTRACT: note_on channel=5 note=75 velocity=0 time=0.0014534875
EXTRACT: note_on channel=4 note=75 velocity=76 time=0.002906975
EXTRACT: note_on channel=4 note=79 velocity=76 time=0
EXTRACT: note_on channel=5 note=74 velocity=71 time=0
EXTRACT: note_on channel=6 note=67 velocity=0 time=0.05232555
EXTRACT: note_on channel=6 note=70 velocity=0 time=0.002906975
EXTRACT: note_on channel=6 note=75 velocity=0 time=0.0072674375
EXTRACT: note_on channel=6 note=53 velocity=0 time=0
EXTRACT: note_on channel=5 note=74 velocity=0 time=0.1090115625
EXTRACT: note_on channel=5 note=75 velocity=76 time=0.002906975
EXTRACT: note_on channel=7 note=60 velocity=0 time=0.031976725
EXTRACT: note_on channel=5 note=75 velocity=0 time=0.13953480000000001
EXTRACT: note_on channel=5 note=77 velocity=75 time=0.0043604625000000004
EXTRACT: note_on channel=3 note=70 velocity=0 time=0.008720925000000001
EXTRACT: note_on channel=1 note=29 velocity=0 time=0.05232555
EXTRACT: note_on channel=4 note=70 velocity=0 time=0.008720925000000001
EXTRACT: note_on channel=4 note=75 velocity=0 time=0.0043604625000000004
EXTRACT: note_on channel=4 note=79 velocity=0 time=0
EXTRACT: control_change channel=6 control=64 value=0 time=0.0072674375
EXTRACT: note_on channel=5 note=72 velocity=0 time=0.0886627375
EXTRACT: note_on channel=5 note=77 velocity=0 time=0.002906975
EXTRACT: note_on channel=1 note=34 velocity=127 time=0
EXTRACT: note_on channel=7 note=72 velocity=51 time=0
EXTRACT: control_change channel=6 control=64 value=127 time=0.0813953
EXTRACT: pitchwheel channel=5 pitch=-6656 time=0.0218023125
EXTRACT: pitchwheel channel=5 pitch=-7296 time=0.00581395
EXTRACT: pitchwheel channel=5 pitch=-8064 time=0.00581395
EXTRACT: note_on channel=6 note=86 velocity=82 time=0.232558
EXTRACT: note_on channel=6 note=77 velocity=68 time=0
EXTRACT: note_on channel=7 note=67 velocity=0 time=0.0334302125
EXTRACT: note_on channel=6 note=86 velocity=0 time=0.1177324875
EXTRACT: note_on channel=6 note=77 velocity=0 time=0.0014534875
EXTRACT: note_on channel=1 note=34 velocity=0 time=0.1627906
EXTRACT: note_on channel=6 note=82 velocity=71 time=0.0334302125
EXTRACT: note_on channel=6 note=89 velocity=75 time=0
EXTRACT: note_on channel=5 note=70 velocity=78 time=0.0014534875
EXTRACT: note_on channel=5 note=74 velocity=78 time=0
EXTRACT: note_on channel=7 note=79 velocity=42 time=0
EXTRACT: pitchwheel channel=5 pitch=-6784 time=0.034883700000000004
EXTRACT: pitchwheel channel=5 pitch=-5120 time=0.00581395
EXTRACT: pitchwheel channel=5 pitch=-3584 time=0.00581395
EXTRACT: pitchwheel channel=5 pitch=-1792 time=0.00581395
EXTRACT: pitchwheel channel=5 pitch=-384 time=0.0072674375
EXTRACT: pitchwheel channel=5 pitch=0 time=0.00581395
EXTRACT: note_on channel=6 note=89 velocity=0 time=0.06976740000000001
EXTRACT: note_on channel=3 note=70 velocity=70 time=0.0305232375
EXTRACT: note_on channel=6 note=82 velocity=0 time=0.014534875
EXTRACT: note_on channel=6 note=86 velocity=78 time=0.16860455
EXTRACT: note_on channel=7 note=72 velocity=0 time=0.031976725
EXTRACT: note_on channel=3 note=70 velocity=0 time=0.0116279
EXTRACT: note_on channel=6 note=86 velocity=0 time=0.0930232
EXTRACT: note_on channel=1 note=34 velocity=103 time=0.037790675
EXTRACT: note_on channel=3 note=70 velocity=72 time=0.014534875
EXTRACT: note_on channel=1 note=34 velocity=0 time=0.0479650875
EXTRACT: note_on channel=5 note=70 velocity=0 time=0.1090115625
EXTRACT: note_on channel=5 note=74 velocity=0 time=0
EXTRACT: note_on channel=6 note=77 velocity=71 time=0.0014534875
EXTRACT: note_on channel=6 note=84 velocity=81 time=0
EXTRACT: note_on channel=1 note=34 velocity=127 time=0.0014534875
EXTRACT: note_on channel=5 note=69 velocity=78 time=0
EXTRACT: note_on channel=5 note=72 velocity=78 time=0
EXTRACT: note_on channel=7 note=84 velocity=37 time=0
EXTRACT: control_change channel=6 control=64 value=127 time=0.0276162625
EXTRACT: control_change channel=6 control=64 value=0 time=0.0363371875
EXTRACT: note_on channel=3 note=70 velocity=0 time=0.0043604625000000004
EXTRACT: control_change channel=6 control=64 value=127 time=0.0770348375
EXTRACT: note_on channel=3 note=70 velocity=70 time=0.0247092875
EXTRACT: note_on channel=6 note=84 velocity=0 time=0.1468022375
EXTRACT: note_on channel=6 note=77 velocity=0 time=0.008720925000000001
EXTRACT: note_on channel=6 note=81 velocity=78 time=0.0232558
EXTRACT: note_on channel=7 note=79 velocity=0 time=0.031976725
EXTRACT: note_on channel=3 note=70 velocity=0 time=0.0101744125
EXTRACT: note_on channel=3 note=70 velocity=72 time=0.09883715
EXTRACT: note_on channel=6 note=81 velocity=0 time=0.0043604625000000004
EXTRACT: note_on channel=3 note=70 velocity=0 time=0.13372085
EXTRACT: note_on channel=6 note=89 velocity=70 time=0.06976740000000001
EXTRACT: note_on channel=1 note=34 velocity=0 time=0.0043604625000000004
EXTRACT: note_on channel=3 note=70 velocity=72 time=0.0072674375
EXTRACT: note_on channel=6 note=89 velocity=0 time=0.20348825
EXTRACT: note_on channel=3 note=72 velocity=72 time=0.0392441625
EXTRACT: note_on channel=3 note=70 velocity=0 time=0.02906975
EXTRACT: note_on channel=6 note=84 velocity=72 time=0.0654069375
EXTRACT: note_on channel=7 note=84 velocity=0 time=0.031976725
EXTRACT: note_on channel=3 note=72 velocity=0 time=0.034883700000000004
EXTRACT: note_on channel=6 note=84 velocity=0 time=0.0595929875
EXTRACT: note_on channel=3 note=74 velocity=72 time=0.0043604625000000004
EXTRACT: control_change channel=6 control=64 value=0 time=0.200581275
EXTRACT: note_on channel=5 note=69 velocity=0 time=0.014534875
EXTRACT: note_on channel=5 note=72 velocity=0 time=0
EXTRACT: note_on channel=1 note=34 velocity=121 time=0.002906975
EXTRACT: note_on channel=5 note=67 velocity=78 time=0
EXTRACT: note_on channel=5 note=70 velocity=78 time=0
EXTRACT: control_change channel=6 control=64 value=0 time=0.0188953375
EXTRACT: note_on channel=3 note=74 velocity=0 time=0.0188953375
EXTRACT: note_on channel=3 note=70 velocity=72 time=0.1438952625
EXTRACT: note_on channel=3 note=70 velocity=0 time=0.130813875
EXTRACT: note_on channel=6 note=82 velocity=75 time=0.0334302125
EXTRACT: note_on channel=3 note=77 velocity=72 time=0.0101744125
EXTRACT: note_on channel=3 note=77 velocity=0 time=0.09883715
EXTRACT: note_on channel=3 note=77 velocity=70 time=0.0624999625
EXTRACT: note_on channel=3 note=77 velocity=0 time=0.0930232
EXTRACT: note_on channel=1 note=34 velocity=0 time=0.072674375
EXTRACT: note_on channel=3 note=77 velocity=73 time=0.008720925000000001
EXTRACT: note_on channel=6 note=87 velocity=81 time=0.0043604625000000004
EXTRACT: note_on channel=6 note=79 velocity=73 time=0
EXTRACT: control_change channel=6 control=64 value=127 time=0.020348825
EXTRACT: note_on channel=6 note=82 velocity=0 time=0.0276162625
EXTRACT: note_on channel=3 note=77 velocity=0 time=0.136627825
EXTRACT: note_on channel=3 note=70 velocity=72 time=0.055232525
EXTRACT: note_on channel=6 note=87 velocity=0 time=0.0886627375
EXTRACT: note_on channel=6 note=82 velocity=73 time=0.0218023125
EXTRACT: note_on channel=6 note=79 velocity=0 time=0.002906975
EXTRACT: note_on channel=3 note=70 velocity=0 time=0.0508720625
EXTRACT: note_on channel=3 note=70 velocity=72 time=0.0828487875
EXTRACT: note_on channel=1 note=34 velocity=105 time=0.037790675
EXTRACT: note_on channel=1 note=34 velocity=0 time=0.0537790375
EXTRACT: control_change channel=6 control=64 value=0 time=0.049418575
EXTRACT: note_on channel=3 note=70 velocity=0 time=0.008720925000000001
EXTRACT: note_on channel=6 note=82 velocity=0 time=0.020348825
EXTRACT: note_on channel=5 note=67 velocity=0 time=0.0392441625
EXTRACT: note_on channel=1 note=34 velocity=121 time=0.002906975
EXTRACT: note_on channel=3 note=70 velocity=70 time=0
EXTRACT: note_on channel=5 note=66 velocity=78 time=0
EXTRACT: note_on channel=3 note=70 velocity=0 time=0.0930232
EXTRACT: note_on channel=3 note=70 velocity=70 time=0.0813953
EXTRACT: note_on channel=3 note=70 velocity=0 time=0.0930232
EXTRACT: note_on channel=3 note=70 velocity=74 time=0.0712208875
EXTRACT: note_on channel=6 note=78 velocity=70 time=0.0101744125
EXTRACT: note_on channel=3 note=70 velocity=0 time=0.1671510625
EXTRACT: note_on channel=3 note=72 velocity=71 time=0.008720925000000001
EXTRACT: note_on channel=3 note=72 velocity=0 time=0.142441775
EXTRACT: note_on channel=6 note=87 velocity=83 time=0.02906975
EXTRACT: note_on channel=4 note=82 velocity=78 time=0.0014534875
EXTRACT: note_on channel=6 note=82 velocity=71 time=0
EXTRACT: note_on channel=1 note=34 velocity=0 time=0.0043604625000000004
EXTRACT: note_on channel=6 note=78 velocity=0 time=0.0232558
EXTRACT: note_on channel=3 note=75 velocity=72 time=0.0159883625
EXTRACT: note_on channel=4 note=82 velocity=0 time=0.1874998875
EXTRACT: note_on channel=4 note=81 velocity=78 time=0.0014534875
EXTRACT: control_change channel=6 control=64 value=127 time=0.0043604625000000004
EXTRACT: note_on channel=3 note=75 velocity=0 time=0.031976725
EXTRACT: note_on channel=3 note=74 velocity=72 time=0.014534875
EXTRACT: note_on channel=6 note=82 velocity=0 time=0.0624999625
EXTRACT: note_on channel=6 note=78 velocity=78 time=0.002906975
EXTRACT: note_on channel=6 note=87 velocity=0 time=0.1031976125
EXTRACT: note_on channel=4 note=81 velocity=0 time=0.0116279
EXTRACT: note_on channel=4 note=79 velocity=78 time=0.0014534875
EXTRACT: note_on channel=3 note=74 velocity=0 time=0.0014534875
EXTRACT: note_on channel=3 note=72 velocity=72 time=0.043604625
EXTRACT: note_on channel=9 note=84 velocity=76 time=0.0130813875
EXTRACT: note_on channel=9 note=84 velocity=0 time=0
EXTRACT: note_on channel=6 note=78 velocity=0 time=0.0305232375
EXTRACT: note_on channel=5 note=70 velocity=0 time=0.1409882875
EXTRACT: note_on channel=5 note=66 velocity=0 time=0
EXTRACT: note_on channel=4 note=79 velocity=0 time=0.0014534875
EXTRACT: note_on channel=1 note=34 velocity=127 time=0.0014534875
EXTRACT: note_on channel=4 note=77 velocity=78 time=0.0014534875
EXTRACT: note_on channel=3 note=72 velocity=0 time=0.031976725
EXTRACT: control_change channel=6 control=64 value=0 time=0.008720925000000001
EXTRACT: pitchwheel channel=5 pitch=-6656 time=0.061046475
EXTRACT: pitchwheel channel=5 pitch=-7296 time=0.00581395
EXTRACT: pitchwheel channel=5 pitch=-8064 time=0.00581395
EXTRACT: note_on channel=4 note=77 velocity=0 time=0.1177324875
EXTRACT: note_on channel=4 note=74 velocity=78 time=0.0014534875
EXTRACT: control_change channel=6 control=64 value=127 time=0.1046511
EXTRACT: note_on channel=6 note=86 velocity=83 time=0.0072674375
EXTRACT: note_on channel=6 note=77 velocity=60 time=0.0014534875
EXTRACT: note_on channel=4 note=74 velocity=0 time=0.116279
EXTRACT: note_on channel=4 note=72 velocity=78 time=0.002906975
EXTRACT: note_on channel=3 note=72 velocity=72 time=0.055232525
EXTRACT: note_on channel=6 note=77 velocity=0 time=0.0218023125
EXTRACT: note_on channel=6 note=86 velocity=0 time=0.008720925000000001
EXTRACT: note_on channel=3 note=72 velocity=0 time=0.11046505
EXTRACT: note_on channel=1 note=34 velocity=0 time=0.0116279
EXTRACT: note_on channel=6 note=82 velocity=80 time=0.020348825
EXTRACT: note_on channel=4 note=72 velocity=0 time=0.002906975
EXTRACT: note_on channel=5 note=70 velocity=78 time=0
EXTRACT: note_on channel=5 note=74 velocity=78 time=0
EXTRACT: note_on channel=6 note=74 velocity=67 time=0
EXTRACT: note_on channel=4 note=70 velocity=78 time=0.0014534875
EXTRACT: note_on channel=3 note=70 velocity=72 time=0.002906975
EXTRACT: pitchwheel channel=5 pitch=-6784 time=0.0305232375
EXTRACT: pitchwheel channel=5 pitch=-5120 time=0.00581395
EXTRACT: pitchwheel channel=5 pitch=-3584 time=0.00581395
EXTRACT: pitchwheel channel=5 pitch=-1792 time=0.00581395
EXTRACT: pitchwheel channel=5 pitch=-384 time=0.0072674375
EXTRACT: pitchwheel channel=5 pitch=0 time=0.00581395
EXTRACT: note_on channel=6 note=74 velocity=0 time=0.066860425
EXTRACT: note_on channel=6 note=82 velocity=0 time=0.0043604625000000004
EXTRACT: note_on channel=3 note=70 velocity=0 time=0.0654069375
EXTRACT: note_on channel=3 note=72 velocity=72 time=0.072674375
EXTRACT: note_on channel=6 note=77 velocity=73 time=0.0712208875
EXTRACT: note_on channel=6 note=70 velocity=73 time=0.002906975
EXTRACT: note_on channel=3 note=72 velocity=0 time=0.1002906375
EXTRACT: note_on channel=3 note=70 velocity=72 time=0.06976740000000001
EXTRACT: note_on channel=1 note=34 velocity=99 time=0.0043604625000000004
EXTRACT: note_on channel=1 note=34 velocity=0 time=0.055232525
EXTRACT: note_on channel=6 note=77 velocity=0 time=0.078488325
EXTRACT: note_on channel=6 note=70 velocity=0 time=0.002906975
EXTRACT: note_on channel=3 note=70 velocity=0 time=0.0072674375
EXTRACT: note_on channel=5 note=74 velocity=0 time=0.0276162625
EXTRACT: note_on channel=5 note=70 velocity=0 time=0
EXTRACT: note_on channel=3 note=77 velocity=72 time=0.0014534875
EXTRACT: note_on channel=1 note=34 velocity=127 time=0.0014534875
EXTRACT: note_on channel=5 note=69 velocity=78 time=0
EXTRACT: note_on channel=5 note=72 velocity=78 time=0
EXTRACT: note_on channel=6 note=72 velocity=85 time=0
EXTRACT: control_change channel=6 control=64 value=0 time=0.02906975
EXTRACT: control_change channel=6 control=64 value=127 time=0.014534875
EXTRACT: note_on channel=3 note=77 velocity=0 time=0.1700580375
EXTRACT: note_on channel=4 note=70 velocity=0 time=0.0188953375
EXTRACT: note_on channel=6 note=69 velocity=80 time=0.116279
EXTRACT: note_on channel=3 note=72 velocity=70 time=0.0043604625000000004
EXTRACT: note_on channel=6 note=72 velocity=0 time=0.0232558
EXTRACT: note_on channel=6 note=69 velocity=0 time=0.1046511
EXTRACT: note_on channel=3 note=70 velocity=72 time=0.049418575
EXTRACT: note_on channel=3 note=72 velocity=0 time=0.0101744125
EXTRACT: note_on channel=6 note=84 velocity=85 time=0.1555231625
EXTRACT: note_on channel=6 note=77 velocity=73 time=0.0014534875
EXTRACT: note_on channel=3 note=70 velocity=0 time=0.078488325
EXTRACT: note_on channel=1 note=34 velocity=0 time=0.0305232375
EXTRACT: note_on channel=3 note=72 velocity=72 time=0.0712208875
EXTRACT: note_on channel=6 note=84 velocity=0 time=0.014534875
EXTRACT: note_on channel=6 note=77 velocity=0 time=0.0043604625000000004
EXTRACT: note_on channel=6 note=81 velocity=82 time=0.1497092125
EXTRACT: note_on channel=3 note=72 velocity=0 time=0.06395345
EXTRACT: note_on channel=6 note=81 velocity=0 time=0.0930232
EXTRACT: note_on channel=3 note=70 velocity=72 time=0.04069765
EXTRACT: control_change channel=6 control=64 value=0 time=0.12209295
EXTRACT: note_on channel=3 note=70 velocity=0 time=0.0072674375
EXTRACT: note_on channel=6 note=53 velocity=81 time=0.014534875
EXTRACT: note_on channel=5 note=72 velocity=0 time=0.0043604625000000004
EXTRACT: note_on channel=5 note=69 velocity=0 time=0
EXTRACT: note_on channel=1 note=29 velocity=127 time=0.002906975
EXTRACT: note_on channel=5 note=67 velocity=78 time=0
EXTRACT: note_on channel=5 note=70 velocity=78 time=0
EXTRACT: note_on channel=7 note=49 velocity=62 time=0
EXTRACT: note_on channel=6 note=67 velocity=87 time=0.00581395
EXTRACT: note_on channel=6 note=70 velocity=82 time=0.0014534875
EXTRACT: note_on channel=6 note=63 velocity=73 time=0
EXTRACT: note_on channel=3 note=75 velocity=71 time=0.00581395
EXTRACT: control_change channel=6 control=64 value=127 time=0.008720925000000001
EXTRACT: note_on channel=3 note=75 velocity=0 time=0.2543603125
EXTRACT: note_on channel=6 note=53 velocity=0 time=0.0188953375
EXTRACT: note_on channel=6 note=67 velocity=0 time=0.0581395
EXTRACT: note_on channel=3 note=74 velocity=72 time=0
EXTRACT: note_on channel=6 note=63 velocity=0 time=0.0014534875
EXTRACT: note_on channel=6 note=70 velocity=0 time=0
EXTRACT: note_on channel=3 note=74 velocity=0 time=0.177325475
EXTRACT: note_on channel=3 note=72 velocity=70 time=0.0130813875
EXTRACT: note_on channel=1 note=29 velocity=0 time=0.02906975
EXTRACT: control_change channel=6 control=64 value=0 time=0.0828487875
EXTRACT: note_on channel=6 note=53 velocity=77 time=0.031976725
EXTRACT: note_on channel=6 note=69 velocity=80 time=0.0014534875
EXTRACT: note_on channel=6 note=72 velocity=77 time=0.0014534875
EXTRACT: note_on channel=6 note=65 velocity=66 time=0.0014534875
EXTRACT: note_on channel=5 note=70 velocity=0 time=0.0014534875
EXTRACT: note_on channel=5 note=67 velocity=0 time=0
EXTRACT: note_on channel=1 note=29 velocity=126 time=0.002906975
EXTRACT: note_on channel=5 note=69 velocity=78 time=0
EXTRACT: note_on channel=5 note=72 velocity=78 time=0
EXTRACT: note_on channel=7 note=55 velocity=62 time=0
EXTRACT: note_on channel=3 note=72 velocity=0 time=0.06395345
EXTRACT: control_change channel=6 control=64 value=127 time=0.0813953
EXTRACT: note_on channel=3 note=70 velocity=72 time=0.0305232375
EXTRACT: note_on channel=6 note=65 velocity=0 time=0.1293603875
EXTRACT: note_on channel=6 note=69 velocity=0 time=0.0276162625
EXTRACT: note_on channel=6 note=72 velocity=0 time=0.002906975
EXTRACT: note_on channel=6 note=53 velocity=0 time=0.0159883625
EXTRACT: note_on channel=7 note=49 velocity=0 time=0.02906975
EXTRACT: note_on channel=3 note=70 velocity=0 time=0.055232525
EXTRACT: note_on channel=4 note=75 velocity=76 time=0.084302275
EXTRACT: note_on channel=4 note=79 velocity=76 time=0.002906975
EXTRACT: note_on channel=4 note=82 velocity=76 time=0
EXTRACT: note_on channel=3 note=75 velocity=70 time=0.0014534875
EXTRACT: note_on channel=1 note=29 velocity=0 time=0.043604625
EXTRACT: control_change channel=6 control=64 value=0 time=0.1119185375
EXTRACT: note_on channel=6 note=70 velocity=76 time=0.0101744125
EXTRACT: note_on channel=6 note=67 velocity=83 time=0.0014534875
EXTRACT: note_on channel=6 note=53 velocity=80 time=0.0014534875
EXTRACT: note_on channel=5 note=69 velocity=0 time=0.0014534875
EXTRACT: note_on channel=5 note=72 velocity=0 time=0
EXTRACT: note_on channel=6 note=74 velocity=84 time=0
EXTRACT: note_on channel=1 note=29 velocity=127 time=0.002906975
EXTRACT: note_on channel=5 note=70 velocity=78 time=0
EXTRACT: note_on channel=5 note=74 velocity=78 time=0
EXTRACT: note_on channel=7 note=60 velocity=62 time=0
EXTRACT: note_on channel=3 note=75 velocity=0 time=0.07558135
EXTRACT: note_on channel=4 note=75 velocity=0 time=0.06395345
EXTRACT: note_on channel=4 note=79 velocity=0 time=0.002906975
EXTRACT: note_on channel=4 note=82 velocity=0 time=0
EXTRACT: control_change channel=6 control=64 value=127 time=0.020348825
EXTRACT: note_on channel=3 note=74 velocity=71 time=0.002906975
EXTRACT: note_on channel=4 note=74 velocity=76 time=0.0043604625000000004
EXTRACT: note_on channel=4 note=79 velocity=76 time=0.0043604625000000004
EXTRACT: note_on channel=4 note=82 velocity=76 time=0
EXTRACT: note_on channel=6 note=74 velocity=0 time=0.07558135
EXTRACT: note_on channel=6 note=67 velocity=0 time=0.0072674375
EXTRACT: note_on channel=6 note=70 velocity=0 time=0.00581395
EXTRACT: note_on channel=6 note=53 velocity=0 time=0.014534875
EXTRACT: note_on channel=7 note=55 velocity=0 time=0.1031976125
EXTRACT: note_on channel=3 note=74 velocity=0 time=0.04069765
EXTRACT: note_on channel=3 note=72 velocity=71 time=0.06976740000000001
EXTRACT: note_on channel=4 note=74 velocity=0 time=0.0101744125
EXTRACT: note_on channel=4 note=79 velocity=0 time=0.002906975
EXTRACT: note_on channel=4 note=82 velocity=0 time=0
EXTRACT: note_on channel=4 note=72 velocity=76 time=0.014534875
EXTRACT: note_on channel=4 note=77 velocity=76 time=0.0043604625000000004
EXTRACT: note_on channel=4 note=81 velocity=76 time=0
EXTRACT: note_on channel=1 note=29 velocity=0 time=0.049418575
EXTRACT: control_change channel=6 control=64 value=0 time=0.0930232
EXTRACT: note_on channel=5 note=70 velocity=0 time=0.02906975
EXTRACT: note_on channel=5 note=74 velocity=0 time=0
EXTRACT: note_on channel=6 note=53 velocity=76 time=0
EXTRACT: note_on channel=1 note=29 velocity=127 time=0.002906975
EXTRACT: note_on channel=5 note=72 velocity=78 time=0
EXTRACT: note_on channel=5 note=75 velocity=76 time=0
EXTRACT: note_on channel=6 note=70 velocity=86 time=0
EXTRACT: note_on channel=6 note=67 velocity=75 time=0
EXTRACT: note_on channel=6 note=75 velocity=84 time=0
EXTRACT: note_on channel=7 note=67 velocity=62 time=0
EXTRACT: note_on channel=3 note=72 velocity=0 time=0.0944766875
EXTRACT: control_change channel=6 control=64 value=127 time=0.0072674375
EXTRACT: note_on channel=4 note=72 velocity=0 time=0.0450581125
EXTRACT: note_on channel=4 note=77 velocity=0 time=0.002906975
EXTRACT: note_on channel=4 note=81 velocity=0 time=0
EXTRACT: note_on channel=3 note=70 velocity=70 time=0.0188953375
EXTRACT: note_on channel=4 note=70 velocity=76 time=0.0014534875
EXTRACT: note_on channel=5 note=75 velocity=0 time=0.0014534875
EXTRACT: note_on channel=4 note=75 velocity=76 time=0.002906975
EXTRACT: note_on channel=4 note=79 velocity=76 time=0
EXTRACT: note_on channel=5 note=74 velocity=71 time=0
EXTRACT: note_on channel=6 note=67 velocity=0 time=0.05232555
EXTRACT: note_on channel=6 note=70 velocity=0 time=0.002906975
EXTRACT: note_on channel=6 note=75 velocity=0 time=0.0072674375
EXTRACT: note_on channel=6 note=53 velocity=0 time=0
EXTRACT: note_on channel=5 note=74 velocity=0 time=0.1090115625
EXTRACT: note_on channel=5 note=75 velocity=76 time=0.002906975
EXTRACT: note_on channel=7 note=60 velocity=0 time=0.031976725
EXTRACT: note_on channel=5 note=75 velocity=0 time=0.13953480000000001
EXTRACT: note_on channel=5 note=77 velocity=75 time=0.0043604625000000004
EXTRACT: note_on channel=3 note=70 velocity=0 time=0.008720925000000001
EXTRACT: note_on channel=1 note=29 velocity=0 time=0.05232555
EXTRACT: note_on channel=4 note=70 velocity=0 time=0.008720925000000001
EXTRACT: note_on channel=4 note=75 velocity=0 time=0.0043604625000000004
EXTRACT: note_on channel=4 note=79 velocity=0 time=0
EXTRACT: control_change channel=6 control=64 value=0 time=0.0072674375
EXTRACT: note_on channel=5 note=72 velocity=0 time=0.0886627375
EXTRACT: note_on channel=5 note=77 velocity=0 time=0.002906975
EXTRACT: note_on channel=1 note=34 velocity=127 time=0
EXTRACT: note_on channel=7 note=72 velocity=51 time=0
EXTRACT: note_on channel=9 note=36 velocity=116 time=0
EXTRACT: note_on channel=9 note=36 velocity=0 time=0
EXTRACT: control_change channel=6 control=64 value=127 time=0.0813953
EXTRACT: pitchwheel channel=5 pitch=-6656 time=0.0218023125
EXTRACT: pitchwheel channel=5 pitch=-7296 time=0.00581395
EXTRACT: pitchwheel channel=5 pitch=-8064 time=0.00581395
EXTRACT: note_on channel=6 note=86 velocity=82 time=0.232558
EXTRACT: note_on channel=6 note=77 velocity=68 time=0
EXTRACT: note_on channel=9 note=69 velocity=88 time=0.0014534875
EXTRACT: note_on channel=9 note=69 velocity=0 time=0
EXTRACT: note_on channel=7 note=67 velocity=0 time=0.031976725
EXTRACT: note_on channel=6 note=86 velocity=0 time=0.1177324875
EXTRACT: note_on channel=6 note=77 velocity=0 time=0.0014534875
EXTRACT: note_on channel=9 note=69 velocity=82 time=0.0232558
EXTRACT: note_on channel=9 note=69 velocity=0 time=0
EXTRACT: note_on channel=1 note=34 velocity=0 time=0.13953480000000001
EXTRACT: note_on channel=6 note=82 velocity=71 time=0.0334302125
EXTRACT: note_on channel=6 note=89 velocity=75 time=0
EXTRACT: note_on channel=5 note=70 velocity=78 time=0.0014534875
EXTRACT: note_on channel=5 note=74 velocity=78 time=0
EXTRACT: note_on channel=7 note=79 velocity=42 time=0
EXTRACT: note_on channel=9 note=39 velocity=126 time=0
EXTRACT: note_on channel=9 note=39 velocity=0 time=0
EXTRACT: pitchwheel channel=5 pitch=-6784 time=0.034883700000000004
EXTRACT: pitchwheel channel=5 pitch=-5120 time=0.00581395
EXTRACT: pitchwheel channel=5 pitch=-3584 time=0.00581395
EXTRACT: pitchwheel channel=5 pitch=-1792 time=0.00581395
EXTRACT: pitchwheel channel=5 pitch=-384 time=0.0072674375
EXTRACT: pitchwheel channel=5 pitch=0 time=0.00581395
EXTRACT: note_on channel=6 note=89 velocity=0 time=0.06976740000000001
EXTRACT: note_on channel=6 note=82 velocity=0 time=0.0450581125
EXTRACT: note_on channel=6 note=86 velocity=78 time=0.16860455
EXTRACT: note_on channel=7 note=72 velocity=0 time=0.031976725
EXTRACT: note_on channel=6 note=86 velocity=0 time=0.1046511
EXTRACT: note_on channel=1 note=34 velocity=103 time=0.037790675
EXTRACT: note_on channel=9 note=36 velocity=75 time=0
EXTRACT: note_on channel=9 note=36 velocity=0 time=0
EXTRACT: note_on channel=1 note=34 velocity=0 time=0.0624999625
EXTRACT: note_on channel=5 note=74 velocity=0 time=0.1090115625
EXTRACT: note_on channel=5 note=70 velocity=0 time=0
EXTRACT: note_on channel=6 note=77 velocity=71 time=0.0014534875
EXTRACT: note_on channel=6 note=84 velocity=81 time=0
EXTRACT: note_on channel=1 note=34 velocity=127 time=0.0014534875
EXTRACT: note_on channel=5 note=69 velocity=78 time=0
EXTRACT: note_on channel=5 note=72 velocity=78 time=0
EXTRACT: note_on channel=7 note=84 velocity=37 time=0
EXTRACT: note_on channel=9 note=36 velocity=119 time=0
EXTRACT: note_on channel=9 note=36 velocity=0 time=0
EXTRACT: control_change channel=6 control=64 value=127 time=0.0276162625
EXTRACT: control_change channel=6 control=64 value=0 time=0.0363371875
EXTRACT: control_change channel=6 control=64 value=127 time=0.0813953
EXTRACT: note_on channel=6 note=84 velocity=0 time=0.171511525
EXTRACT: note_on channel=6 note=77 velocity=0 time=0.008720925000000001
EXTRACT: note_on channel=6 note=81 velocity=78 time=0.0232558
EXTRACT: note_on channel=9 note=36 velocity=108 time=0
EXTRACT: note_on channel=9 note=36 velocity=0 time=0
EXTRACT: note_on channel=9 note=69 velocity=85 time=0
EXTRACT: note_on channel=9 note=69 velocity=0 time=0
EXTRACT: note_on channel=7 note=79 velocity=0 time=0.031976725
EXTRACT: note_on channel=6 note=81 velocity=0 time=0.113372025
EXTRACT: note_on channel=9 note=69 velocity=81 time=0.02906975
EXTRACT: note_on channel=9 note=69 velocity=0 time=0
EXTRACT: note_on channel=6 note=89 velocity=70 time=0.1744185
EXTRACT: note_on channel=9 note=39 velocity=123 time=0
EXTRACT: note_on channel=9 note=39 velocity=0 time=0
EXTRACT: note_on channel=1 note=34 velocity=0 time=0.0043604625000000004
EXTRACT: note_on channel=6 note=89 velocity=0 time=0.2107556875
EXTRACT: note_on channel=6 note=84 velocity=72 time=0.13372085
EXTRACT: note_on channel=7 note=84 velocity=0 time=0.031976725
EXTRACT: note_on channel=6 note=84 velocity=0 time=0.0944766875
EXTRACT: control_change channel=6 control=64 value=0 time=0.2049417375
EXTRACT: note_on channel=5 note=72 velocity=0 time=0.014534875
EXTRACT: note_on channel=5 note=69 velocity=0 time=0
EXTRACT: note_on channel=1 note=34 velocity=121 time=0.002906975
EXTRACT: note_on channel=5 note=67 velocity=78 time=0
EXTRACT: note_on channel=5 note=70 velocity=78 time=0
EXTRACT: note_on channel=9 note=36 velocity=116 time=0
EXTRACT: note_on channel=9 note=36 velocity=0 time=0
EXTRACT: control_change channel=6 control=64 value=0 time=0.0188953375
EXTRACT: note_on channel=6 note=82 velocity=75 time=0.3270346875
EXTRACT: note_on channel=9 note=69 velocity=88 time=0.002906975
EXTRACT: note_on channel=9 note=69 velocity=0 time=0
EXTRACT: note_on channel=9 note=69 velocity=82 time=0.1744185
EXTRACT: note_on channel=9 note=69 velocity=0 time=0
EXTRACT: note_on channel=1 note=34 velocity=0 time=0.159883625
EXTRACT: note_on channel=6 note=87 velocity=81 time=0.0130813875
EXTRACT: note_on channel=6 note=79 velocity=73 time=0
EXTRACT: note_on channel=9 note=39 velocity=126 time=0.0014534875
EXTRACT: note_on channel=9 note=39 velocity=0 time=0
EXTRACT: control_change channel=6 control=64 value=127 time=0.0188953375
EXTRACT: note_on channel=6 note=82 velocity=0 time=0.0276162625
EXTRACT: note_on channel=6 note=87 velocity=0 time=0.2805230875
EXTRACT: note_on channel=6 note=82 velocity=73 time=0.0218023125
EXTRACT: note_on channel=6 note=79 velocity=0 time=0.002906975
EXTRACT: note_on channel=1 note=34 velocity=105 time=0.171511525
EXTRACT: note_on channel=9 note=36 velocity=75 time=0
EXTRACT: note_on channel=9 note=36 velocity=0 time=0
EXTRACT: note_on channel=1 note=34 velocity=0 time=0.0537790375
EXTRACT: control_change channel=6 control=64 value=0 time=0.049418575
EXTRACT: note_on channel=6 note=82 velocity=0 time=0.02906975
EXTRACT: note_on channel=5 note=67 velocity=0 time=0.0392441625
EXTRACT: note_on channel=1 note=34 velocity=121 time=0.002906975
EXTRACT: note_on channel=5 note=66 velocity=78 time=0
EXTRACT: note_on channel=9 note=36 velocity=119 time=0
EXTRACT: note_on channel=9 note=36 velocity=0 time=0
EXTRACT: note_on channel=6 note=78 velocity=70 time=0.348837
EXTRACT: note_on channel=9 note=36 velocity=108 time=0
EXTRACT: note_on channel=9 note=36 velocity=0 time=0
EXTRACT: note_on channel=9 note=69 velocity=85 time=0
EXTRACT: note_on channel=9 note=69 velocity=0 time=0
EXTRACT: note_on channel=9 note=69 velocity=81 time=0.1744185
EXTRACT: note_on channel=9 note=69 velocity=0 time=0
EXTRACT: note_on channel=6 note=87 velocity=83 time=0.1729650125
EXTRACT: note_on channel=4 note=82 velocity=78 time=0.0014534875
EXTRACT: note_on channel=6 note=82 velocity=71 time=0
EXTRACT: note_on channel=9 note=39 velocity=123 time=0
EXTRACT: note_on channel=9 note=39 velocity=0 time=0
EXTRACT: note_on channel=1 note=34 velocity=0 time=0.0043604625000000004
EXTRACT: note_on channel=6 note=78 velocity=0 time=0.0232558
EXTRACT: note_on channel=4 note=82 velocity=0 time=0.20348825
EXTRACT: note_on channel=4 note=81 velocity=78 time=0.0014534875
EXTRACT: control_change channel=6 control=64 value=127 time=0.0043604625000000004
EXTRACT: note_on channel=3 note=84 velocity=70 time=0.1031976125
EXTRACT: note_on channel=6 note=82 velocity=0 time=0.00581395
EXTRACT: note_on channel=6 note=78 velocity=78 time=0.002906975
EXTRACT: note_on channel=6 note=87 velocity=0 time=0.1031976125
EXTRACT: note_on channel=4 note=81 velocity=0 time=0.0116279
EXTRACT: note_on channel=4 note=79 velocity=78 time=0.0014534875
EXTRACT: note_on channel=9 note=84 velocity=76 time=0.0581395
EXTRACT: note_on channel=9 note=84 velocity=0 time=0
EXTRACT: note_on channel=6 note=78 velocity=0 time=0.0305232375
EXTRACT: note_on channel=3 note=84 velocity=0 time=0.1206394625
EXTRACT: note_on channel=3 note=82 velocity=69 time=0.0130813875
EXTRACT: note_on channel=5 note=70 velocity=0 time=0.0072674375
EXTRACT: note_on channel=5 note=66 velocity=0 time=0
EXTRACT: note_on channel=4 note=79 velocity=0 time=0.0014534875
EXTRACT: note_on channel=1 note=34 velocity=127 time=0.0014534875
EXTRACT: note_on channel=9 note=36 velocity=116 time=0
EXTRACT: note_on channel=9 note=36 velocity=0 time=0
EXTRACT: note_on channel=4 note=77 velocity=78 time=0.0014534875
EXTRACT: control_change channel=6 control=64 value=0 time=0.04069765
EXTRACT: pitchwheel channel=5 pitch=-6656 time=0.061046475
EXTRACT: pitchwheel channel=5 pitch=-7296 time=0.00581395
EXTRACT: pitchwheel channel=5 pitch=-8064 time=0.00581395
EXTRACT: note_on channel=4 note=77 velocity=0 time=0.1177324875
EXTRACT: note_on channel=4 note=74 velocity=78 time=0.0014534875
EXTRACT: control_change channel=6 control=64 value=127 time=0.1046511
EXTRACT: note_on channel=6 note=86 velocity=83 time=0.0072674375
EXTRACT: note_on channel=6 note=77 velocity=60 time=0.0014534875
EXTRACT: note_on channel=9 note=69 velocity=88 time=0.0014534875
EXTRACT: note_on channel=9 note=69 velocity=0 time=0
EXTRACT: note_on channel=4 note=74 velocity=0 time=0.1148255125
EXTRACT: note_on channel=4 note=72 velocity=78 time=0.002906975
EXTRACT: note_on channel=9 note=69 velocity=82 time=0.0566860125
EXTRACT: note_on channel=9 note=69 velocity=0 time=0
EXTRACT: note_on channel=6 note=77 velocity=0 time=0.020348825
EXTRACT: note_on channel=6 note=86 velocity=0 time=0.008720925000000001
EXTRACT: note_on channel=1 note=34 velocity=0 time=0.12209295
EXTRACT: note_on channel=6 note=82 velocity=80 time=0.020348825
EXTRACT: note_on channel=4 note=72 velocity=0 time=0.002906975
EXTRACT: note_on channel=5 note=70 velocity=78 time=0
EXTRACT: note_on channel=5 note=74 velocity=78 time=0
EXTRACT: note_on channel=6 note=74 velocity=67 time=0
EXTRACT: note_on channel=9 note=39 velocity=126 time=0
EXTRACT: note_on channel=9 note=39 velocity=0 time=0
EXTRACT: note_on channel=4 note=70 velocity=78 time=0.0014534875
EXTRACT: pitchwheel channel=5 pitch=-6784 time=0.0334302125
EXTRACT: pitchwheel channel=5 pitch=-5120 time=0.00581395
EXTRACT: pitchwheel channel=5 pitch=-3584 time=0.00581395
EXTRACT: pitchwheel channel=5 pitch=-1792 time=0.00581395
EXTRACT: pitchwheel channel=5 pitch=-384 time=0.0072674375
EXTRACT: pitchwheel channel=5 pitch=0 time=0.00581395
EXTRACT: note_on channel=6 note=74 velocity=0 time=0.066860425
EXTRACT: note_on channel=6 note=82 velocity=0 time=0.0043604625000000004
EXTRACT: note_on channel=6 note=77 velocity=73 time=0.2093022
EXTRACT: note_on channel=6 note=70 velocity=73 time=0.002906975
EXTRACT: note_on channel=1 note=34 velocity=99 time=0.1744185
EXTRACT: note_on channel=9 note=36 velocity=75 time=0
EXTRACT: note_on channel=9 note=36 velocity=0 time=0
EXTRACT: note_on channel=1 note=34 velocity=0 time=0.055232525
EXTRACT: note_on channel=6 note=77 velocity=0 time=0.078488325
EXTRACT: note_on channel=6 note=70 velocity=0 time=0.002906975
EXTRACT: note_on channel=3 note=82 velocity=0 time=0.0276162625
EXTRACT: note_on channel=5 note=74 velocity=0 time=0.0072674375
EXTRACT: note_on channel=5 note=70 velocity=0 time=0
EXTRACT: note_on channel=1 note=34 velocity=127 time=0.002906975
EXTRACT: note_on channel=5 note=69 velocity=78 time=0
EXTRACT: note_on channel=5 note=72 velocity=78 time=0
EXTRACT: note_on channel=6 note=72 velocity=85 time=0
EXTRACT: note_on channel=9 note=36 velocity=119 time=0
EXTRACT: note_on channel=9 note=36 velocity=0 time=0
EXTRACT: control_change channel=6 control=64 value=0 time=0.02906975
EXTRACT: control_change channel=6 control=64 value=127 time=0.014534875
EXTRACT: note_on channel=4 note=70 velocity=0 time=0.188953375
EXTRACT: note_on channel=6 note=69 velocity=80 time=0.116279
EXTRACT: note_on channel=9 note=36 velocity=108 time=0
EXTRACT: note_on channel=9 note=36 velocity=0 time=0
EXTRACT: note_on channel=9 note=69 velocity=85 time=0
EXTRACT: note_on channel=9 note=69 velocity=0 time=0
EXTRACT: note_on channel=6 note=72 velocity=0 time=0.0276162625
EXTRACT: note_on channel=6 note=69 velocity=0 time=0.1046511
EXTRACT: note_on channel=9 note=69 velocity=81 time=0.0421511375
EXTRACT: note_on channel=9 note=69 velocity=0 time=0
EXTRACT: note_on channel=6 note=84 velocity=85 time=0.1729650125
EXTRACT: note_on channel=6 note=77 velocity=73 time=0.0014534875
EXTRACT: note_on channel=9 note=39 velocity=123 time=0
EXTRACT: note_on channel=9 note=39 velocity=0 time=0
EXTRACT: note_on channel=1 note=34 velocity=0 time=0.1090115625
EXTRACT: note_on channel=6 note=84 velocity=0 time=0.0857557625
EXTRACT: note_on channel=6 note=77 velocity=0 time=0.0043604625000000004
EXTRACT: note_on channel=6 note=81 velocity=82 time=0.1497092125
EXTRACT: note_on channel=6 note=81 velocity=0 time=0.15697665
EXTRACT: control_change channel=6 control=64 value=0 time=0.1627906
EXTRACT: note_on channel=6 note=53 velocity=81 time=0.0218023125
EXTRACT: note_on channel=5 note=69 velocity=0 time=0.0043604625000000004
EXTRACT: note_on channel=5 note=72 velocity=0 time=0
EXTRACT: note_on channel=1 note=29 velocity=127 time=0.002906975
EXTRACT: note_on channel=3 note=82 velocity=70 time=0
EXTRACT: note_on channel=5 note=67 velocity=78 time=0
EXTRACT: note_on channel=5 note=70 velocity=78 time=0
EXTRACT: note_on channel=7 note=49 velocity=62 time=0
EXTRACT: note_on channel=9 note=36 velocity=116 time=0
EXTRACT: note_on channel=9 note=36 velocity=0 time=0
EXTRACT: note_on channel=6 note=67 velocity=87 time=0.00581395
EXTRACT: note_on channel=6 note=70 velocity=82 time=0.0014534875
EXTRACT: note_on channel=6 note=63 velocity=73 time=0
EXTRACT: control_change channel=6 control=64 value=127 time=0.014534875
EXTRACT: note_on channel=6 note=53 velocity=0 time=0.27325565
EXTRACT: note_on channel=9 note=69 velocity=88 time=0.0537790375
EXTRACT: note_on channel=9 note=69 velocity=0 time=0
EXTRACT: note_on channel=6 note=67 velocity=0 time=0.0043604625000000004
EXTRACT: note_on channel=6 note=70 velocity=0 time=0.0014534875
EXTRACT: note_on channel=6 note=63 velocity=0 time=0
EXTRACT: note_on channel=3 note=82 velocity=0 time=0.061046475
EXTRACT: note_on channel=9 note=69 velocity=82 time=0.107558075
EXTRACT: note_on channel=9 note=69 velocity=0 time=0
EXTRACT: note_on channel=1 note=29 velocity=0 time=0.0508720625
EXTRACT: control_change channel=6 control=64 value=0 time=0.0828487875
EXTRACT: note_on channel=6 note=53 velocity=77 time=0.031976725
EXTRACT: note_on channel=6 note=69 velocity=80 time=0.0014534875
EXTRACT: note_on channel=6 note=72 velocity=77 time=0.0014534875
EXTRACT: note_on channel=6 note=65 velocity=66 time=0.0014534875
EXTRACT: note_on channel=5 note=67 velocity=0 time=0.0014534875
EXTRACT: note_on channel=5 note=70 velocity=0 time=0
EXTRACT: note_on channel=3 note=82 velocity=70 time=0
EXTRACT: note_on channel=1 note=29 velocity=126 time=0.002906975
EXTRACT: note_on channel=5 note=69 velocity=78 time=0
EXTRACT: note_on channel=5 note=72 velocity=78 time=0
EXTRACT: note_on channel=7 note=55 velocity=62 time=0
EXTRACT: note_on channel=9 note=36 velocity=119 time=0
EXTRACT: note_on channel=9 note=36 velocity=0 time=0
EXTRACT: control_change channel=6 control=64 value=127 time=0.14534875
EXTRACT: note_on channel=6 note=65 velocity=0 time=0.159883625
EXTRACT: note_on channel=6 note=69 velocity=0 time=0.0276162625
EXTRACT: note_on channel=6 note=72 velocity=0 time=0.002906975
EXTRACT: note_on channel=6 note=53 velocity=0 time=0.0159883625
EXTRACT: note_on channel=7 note=49 velocity=0 time=0.02906975
EXTRACT: note_on channel=3 note=82 velocity=0 time=0.037790675
EXTRACT: note_on channel=1 note=29 velocity=0 time=0.1497092125
EXTRACT: control_change channel=6 control=64 value=0 time=0.1119185375
EXTRACT: note_on channel=6 note=70 velocity=76 time=0.0101744125
EXTRACT: note_on channel=6 note=67 velocity=83 time=0.0014534875
EXTRACT: note_on channel=6 note=53 velocity=80 time=0.0014534875
EXTRACT: note_on channel=5 note=72 velocity=0 time=0.0014534875
EXTRACT: note_on channel=5 note=69 velocity=0 time=0
EXTRACT: note_on channel=3 note=77 velocity=70 time=0
EXTRACT: note_on channel=6 note=74 velocity=84 time=0
EXTRACT: note_on channel=1 note=29 velocity=127 time=0.002906975
EXTRACT: note_on channel=5 note=70 velocity=78 time=0
EXTRACT: note_on channel=5 note=74 velocity=78 time=0
EXTRACT: note_on channel=7 note=60 velocity=62 time=0
EXTRACT: note_on channel=9 note=36 velocity=108 time=0
EXTRACT: note_on channel=9 note=36 velocity=0 time=0
EXTRACT: control_change channel=6 control=64 value=127 time=0.1627906
EXTRACT: note_on channel=3 note=77 velocity=0 time=0.0828487875
EXTRACT: note_on channel=6 note=74 velocity=0 time=0.0043604625000000004
EXTRACT: note_on channel=6 note=67 velocity=0 time=0.0072674375
EXTRACT: note_on channel=6 note=70 velocity=0 time=0.00581395
EXTRACT: note_on channel=6 note=53 velocity=0 time=0.014534875
EXTRACT: note_on channel=3 note=77 velocity=72 time=0.0654069375
EXTRACT: note_on channel=9 note=69 velocity=85 time=0.00581395
EXTRACT: note_on channel=9 note=69 velocity=0 time=0
EXTRACT: note_on channel=7 note=55 velocity=0 time=0.031976725
EXTRACT: note_on channel=3 note=77 velocity=0 time=0.06395345
EXTRACT: note_on channel=3 note=77 velocity=70 time=0.06976740000000001
EXTRACT: note_on channel=9 note=69 velocity=81 time=0.008720925000000001
EXTRACT: note_on channel=9 note=69 velocity=0 time=0
EXTRACT: note_on channel=1 note=29 velocity=0 time=0.049418575
EXTRACT: note_on channel=3 note=77 velocity=0 time=0.031976725
EXTRACT: control_change channel=6 control=64 value=0 time=0.061046475
EXTRACT: note_on channel=3 note=77 velocity=72 time=0.0159883625
EXTRACT: note_on channel=5 note=70 velocity=0 time=0.0130813875
EXTRACT: note_on channel=5 note=74 velocity=0 time=0
EXTRACT: note_on channel=6 note=53 velocity=76 time=0
EXTRACT: note_on channel=1 note=29 velocity=127 time=0.002906975
EXTRACT: note_on channel=5 note=72 velocity=78 time=0
EXTRACT: note_on channel=5 note=75 velocity=76 time=0
EXTRACT: note_on channel=6 note=70 velocity=86 time=0
EXTRACT: note_on channel=6 note=67 velocity=75 time=0
EXTRACT: note_on channel=6 note=75 velocity=84 time=0
EXTRACT: note_on channel=7 note=67 velocity=62 time=0
EXTRACT: note_on channel=9 note=36 velocity=119 time=0
EXTRACT: note_on channel=9 note=36 velocity=0 time=0
EXTRACT: control_change channel=6 control=64 value=127 time=0.101744125
EXTRACT: note_on channel=5 note=75 velocity=0 time=0.06976740000000001
EXTRACT: note_on channel=5 note=74 velocity=71 time=0.002906975
EXTRACT: note_on channel=6 note=67 velocity=0 time=0.05232555
EXTRACT: note_on channel=6 note=70 velocity=0 time=0.002906975
EXTRACT: note_on channel=6 note=75 velocity=0 time=0.0072674375
EXTRACT: note_on channel=6 note=53 velocity=0 time=0
EXTRACT: note_on channel=5 note=74 velocity=0 time=0.1090115625
EXTRACT: note_on channel=3 note=84 velocity=72 time=0.002906975
EXTRACT: note_on channel=5 note=75 velocity=76 time=0
EXTRACT: note_on channel=3 note=77 velocity=0 time=0.0247092875
EXTRACT: note_on channel=7 note=60 velocity=0 time=0.0072674375
EXTRACT: note_on channel=5 note=75 velocity=0 time=0.13953480000000001
EXTRACT: note_on channel=5 note=77 velocity=75 time=0.0043604625000000004
EXTRACT: note_on channel=1 note=29 velocity=0 time=0.061046475
EXTRACT: control_change channel=6 control=64 value=0 time=0.020348825
EXTRACT: note_on channel=5 note=72 velocity=0 time=0.0886627375
EXTRACT: note_on channel=3 note=84 velocity=0 time=0
EXTRACT: note_on channel=5 note=77 velocity=0 time=0.002906975
EXTRACT: note_on channel=1 note=34 velocity=127 time=0
EXTRACT: note_on channel=7 note=72 velocity=51 time=0
EXTRACT: note_on channel=3 note=82 velocity=70 time=0.0043604625000000004
EXTRACT: control_change channel=6 control=64 value=127 time=0.0770348375
EXTRACT: pitchwheel channel=5 pitch=-6656 time=0.0218023125
EXTRACT: pitchwheel channel=5 pitch=-7296 time=0.00581395
EXTRACT: pitchwheel channel=5 pitch=-8064 time=0.00581395
EXTRACT: note_on channel=6 note=86 velocity=82 time=0.232558
EXTRACT: note_on channel=6 note=77 velocity=68 time=0
EXTRACT: note_on channel=7 note=67 velocity=0 time=0.0334302125
EXTRACT: note_on channel=6 note=86 velocity=0 time=0.1177324875
EXTRACT: note_on channel=6 note=77 velocity=0 time=0.0014534875
EXTRACT: note_on channel=1 note=34 velocity=0 time=0.1627906
EXTRACT: note_on channel=6 note=82 velocity=71 time=0.0334302125
EXTRACT: note_on channel=6 note=89 velocity=75 time=0
EXTRACT: note_on channel=5 note=70 velocity=78 time=0.0014534875
EXTRACT: note_on channel=5 note=74 velocity=78 time=0
EXTRACT: note_on channel=7 note=79 velocity=42 time=0
EXTRACT: pitchwheel channel=5 pitch=-6784 time=0.034883700000000004
EXTRACT: pitchwheel channel=5 pitch=-5120 time=0.00581395
EXTRACT: pitchwheel channel=5 pitch=-3584 time=0.00581395
EXTRACT: pitchwheel channel=5 pitch=-1792 time=0.00581395
EXTRACT: pitchwheel channel=5 pitch=-384 time=0.0072674375
EXTRACT: pitchwheel channel=5 pitch=0 time=0.00581395
EXTRACT: note_on channel=6 note=89 velocity=0 time=0.06976740000000001
EXTRACT: note_on channel=3 note=82 velocity=0 time=0.0363371875
EXTRACT: note_on channel=6 note=82 velocity=0 time=0.008720925000000001
EXTRACT: note_on channel=6 note=86 velocity=78 time=0.16860455
EXTRACT: note_on channel=7 note=72 velocity=0 time=0.031976725
EXTRACT: note_on channel=6 note=86 velocity=0 time=0.1046511
EXTRACT: note_on channel=1 note=34 velocity=103 time=0.037790675
EXTRACT: note_on channel=1 note=34 velocity=0 time=0.0624999625
EXTRACT: note_on channel=5 note=70 velocity=0 time=0.1090115625
EXTRACT: note_on channel=5 note=74 velocity=0 time=0
EXTRACT: note_on channel=6 note=77 velocity=71 time=0.0014534875
EXTRACT: note_on channel=6 note=84 velocity=81 time=0
EXTRACT: note_on channel=1 note=34 velocity=127 time=0.0014534875
EXTRACT: note_on channel=5 note=69 velocity=78 time=0
EXTRACT: note_on channel=5 note=72 velocity=78 time=0
EXTRACT: note_on channel=7 note=84 velocity=37 time=0
EXTRACT: control_change channel=6 control=64 value=127 time=0.0276162625
EXTRACT: control_change channel=6 control=64 value=0 time=0.0363371875
EXTRACT: control_change channel=6 control=64 value=127 time=0.0813953
EXTRACT: note_on channel=6 note=84 velocity=0 time=0.171511525
EXTRACT: note_on channel=6 note=77 velocity=0 time=0.008720925000000001
EXTRACT: note_on channel=6 note=81 velocity=78 time=0.0232558
EXTRACT: note_on channel=7 note=79 velocity=0 time=0.031976725
EXTRACT: note_on channel=6 note=81 velocity=0 time=0.113372025
EXTRACT: note_on channel=6 note=89 velocity=70 time=0.20348825
EXTRACT: note_on channel=1 note=34 velocity=0 time=0.0043604625000000004
EXTRACT: note_on channel=6 note=89 velocity=0 time=0.2107556875
EXTRACT: note_on channel=6 note=84 velocity=72 time=0.13372085
EXTRACT: note_on channel=7 note=84 velocity=0 time=0.031976725
EXTRACT: note_on channel=6 note=84 velocity=0 time=0.0944766875
EXTRACT: control_change channel=6 control=64 value=0 time=0.2049417375
EXTRACT: note_on channel=5 note=72 velocity=0 time=0.014534875
EXTRACT: note_on channel=5 note=69 velocity=0 time=0
EXTRACT: note_on channel=1 note=34 velocity=121 time=0.002906975
EXTRACT: note_on channel=5 note=67 velocity=78 time=0
EXTRACT: note_on channel=5 note=70 velocity=78 time=0
EXTRACT: control_change channel=6 control=64 value=0 time=0.0188953375
EXTRACT: note_on channel=6 note=82 velocity=75 time=0.3270346875
EXTRACT: note_on channel=3 note=86 velocity=70 time=0.3255812
EXTRACT: note_on channel=1 note=34 velocity=0 time=0.0116279
EXTRACT: note_on channel=6 note=87 velocity=81 time=0.0130813875
EXTRACT: note_on channel=6 note=79 velocity=73 time=0
EXTRACT: control_change channel=6 control=64 value=127 time=0.020348825
EXTRACT: note_on channel=6 note=82 velocity=0 time=0.0276162625
EXTRACT: note_on channel=6 note=87 velocity=0 time=0.2805230875
EXTRACT: note_on channel=6 note=82 velocity=73 time=0.0218023125
EXTRACT: note_on channel=6 note=79 velocity=0 time=0.002906975
EXTRACT: note_on channel=1 note=34 velocity=105 time=0.171511525
EXTRACT: note_on channel=1 note=34 velocity=0 time=0.0537790375
EXTRACT: control_change channel=6 control=64 value=0 time=0.049418575
EXTRACT: note_on channel=6 note=82 velocity=0 time=0.02906975
EXTRACT: note_on channel=5 note=67 velocity=0 time=0.0392441625
EXTRACT: note_on channel=1 note=34 velocity=121 time=0.002906975
EXTRACT: note_on channel=5 note=66 velocity=78 time=0
EXTRACT: note_on channel=6 note=78 velocity=70 time=0.348837
EXTRACT: note_on channel=6 note=87 velocity=83 time=0.3473835125
EXTRACT: note_on channel=4 note=82 velocity=78 time=0.0014534875
EXTRACT: note_on channel=6 note=82 velocity=71 time=0
EXTRACT: note_on channel=1 note=34 velocity=0 time=0.0043604625000000004
EXTRACT: note_on channel=6 note=78 velocity=0 time=0.0232558
EXTRACT: note_on channel=4 note=82 velocity=0 time=0.20348825
EXTRACT: note_on channel=4 note=81 velocity=78 time=0.0014534875
EXTRACT: control_change channel=6 control=64 value=127 time=0.0043604625000000004
EXTRACT: note_on channel=6 note=82 velocity=0 time=0.1090115625
EXTRACT: note_on channel=6 note=78 velocity=78 time=0.002906975
EXTRACT: note_on channel=6 note=87 velocity=0 time=0.1031976125
EXTRACT: note_on channel=4 note=81 velocity=0 time=0.0116279
EXTRACT: note_on channel=4 note=79 velocity=78 time=0.0014534875
EXTRACT: note_on channel=9 note=84 velocity=76 time=0.0581395
EXTRACT: note_on channel=9 note=84 velocity=0 time=0
EXTRACT: note_on channel=6 note=78 velocity=0 time=0.0305232375
EXTRACT: note_on channel=5 note=70 velocity=0 time=0.1409882875
EXTRACT: note_on channel=5 note=66 velocity=0 time=0
EXTRACT: note_on channel=4 note=79 velocity=0 time=0.0014534875
EXTRACT: note_on channel=1 note=34 velocity=127 time=0.0014534875
EXTRACT: note_on channel=4 note=77 velocity=78 time=0.0014534875
EXTRACT: control_change channel=6 control=64 value=0 time=0.04069765
EXTRACT: pitchwheel channel=5 pitch=-6656 time=0.061046475
EXTRACT: pitchwheel channel=5 pitch=-7296 time=0.00581395
EXTRACT: pitchwheel channel=5 pitch=-8064 time=0.00581395
EXTRACT: note_on channel=4 note=77 velocity=0 time=0.1177324875
EXTRACT: note_on channel=4 note=74 velocity=78 time=0.0014534875
EXTRACT: control_change channel=6 control=64 value=127 time=0.1046511
EXTRACT: note_on channel=6 note=86 velocity=83 time=0.0072674375
EXTRACT: note_on channel=6 note=77 velocity=60 time=0.0014534875
EXTRACT: note_on channel=4 note=74 velocity=0 time=0.116279
EXTRACT: note_on channel=4 note=72 velocity=78 time=0.002906975
EXTRACT: note_on channel=6 note=77 velocity=0 time=0.0770348375
EXTRACT: note_on channel=6 note=86 velocity=0 time=0.008720925000000001
EXTRACT: note_on channel=1 note=34 velocity=0 time=0.12209295
EXTRACT: note_on channel=6 note=82 velocity=80 time=0.020348825
EXTRACT: note_on channel=4 note=72 velocity=0 time=0.002906975
EXTRACT: note_on channel=5 note=70 velocity=78 time=0
EXTRACT: note_on channel=5 note=74 velocity=78 time=0
EXTRACT: note_on channel=6 note=74 velocity=67 time=0
EXTRACT: note_on channel=4 note=70 velocity=78 time=0.0014534875
EXTRACT: pitchwheel channel=5 pitch=-6784 time=0.0334302125
EXTRACT: pitchwheel channel=5 pitch=-5120 time=0.00581395
EXTRACT: pitchwheel channel=5 pitch=-3584 time=0.00581395
EXTRACT: pitchwheel channel=5 pitch=-1792 time=0.00581395
EXTRACT: pitchwheel channel=5 pitch=-384 time=0.0072674375
EXTRACT: pitchwheel channel=5 pitch=0 time=0.00581395
EXTRACT: note_on channel=6 note=74 velocity=0 time=0.066860425
EXTRACT: note_on channel=6 note=82 velocity=0 time=0.0043604625000000004
EXTRACT: note_on channel=3 note=86 velocity=0 time=0.124999925
EXTRACT: note_on channel=6 note=77 velocity=73 time=0.084302275
EXTRACT: note_on channel=6 note=70 velocity=73 time=0.002906975
EXTRACT: note_on channel=1 note=34 velocity=99 time=0.1744185
EXTRACT: note_on channel=1 note=34 velocity=0 time=0.055232525
EXTRACT: note_on channel=6 note=77 velocity=0 time=0.078488325
EXTRACT: note_on channel=6 note=70 velocity=0 time=0.002906975
EXTRACT: note_on channel=5 note=74 velocity=0 time=0.034883700000000004
EXTRACT: note_on channel=5 note=70 velocity=0 time=0
EXTRACT: note_on channel=1 note=34 velocity=127 time=0.002906975
EXTRACT: note_on channel=5 note=69 velocity=78 time=0
EXTRACT: note_on channel=5 note=72 velocity=78 time=0
EXTRACT: note_on channel=6 note=72 velocity=85 time=0
EXTRACT: control_change channel=6 control=64 value=0 time=0.02906975
EXTRACT: control_change channel=6 control=64 value=127 time=0.014534875
EXTRACT: note_on channel=4 note=70 velocity=0 time=0.188953375
EXTRACT: note_on channel=6 note=69 velocity=80 time=0.116279
EXTRACT: note_on channel=6 note=72 velocity=0 time=0.0276162625
EXTRACT: note_on channel=6 note=69 velocity=0 time=0.1046511
EXTRACT: note_on channel=6 note=84 velocity=85 time=0.21511615
EXTRACT: note_on channel=6 note=77 velocity=73 time=0.0014534875
EXTRACT: note_on channel=1 note=34 velocity=0 time=0.1090115625
EXTRACT: note_on channel=6 note=84 velocity=0 time=0.0857557625
EXTRACT: note_on channel=6 note=77 velocity=0 time=0.0043604625000000004
EXTRACT: note_on channel=6 note=81 velocity=82 time=0.1497092125
EXTRACT: note_on channel=6 note=81 velocity=0 time=0.15697665
EXTRACT: control_change channel=6 control=64 value=0 time=0.1627906
EXTRACT: note_on channel=6 note=53 velocity=81 time=0.0218023125
EXTRACT: note_on channel=5 note=69 velocity=0 time=0.0043604625000000004
EXTRACT: note_on channel=5 note=72 velocity=0 time=0
EXTRACT: note_on channel=1 note=29 velocity=127 time=0.002906975
EXTRACT: note_on channel=5 note=67 velocity=78 time=0
EXTRACT: note_on channel=5 note=70 velocity=78 time=0
EXTRACT: note_on channel=7 note=49 velocity=62 time=0
EXTRACT: note_on channel=6 note=67 velocity=87 time=0.00581395
EXTRACT: note_on channel=6 note=70 velocity=82 time=0.0014534875
EXTRACT: note_on channel=6 note=63 velocity=73 time=0
EXTRACT: control_change channel=6 control=64 value=127 time=0.014534875
EXTRACT: note_on channel=6 note=53 velocity=0 time=0.27325565
EXTRACT: note_on channel=6 note=67 velocity=0 time=0.0581395
EXTRACT: note_on channel=6 note=63 velocity=0 time=0.0014534875
EXTRACT: note_on channel=6 note=70 velocity=0 time=0
EXTRACT: note_on channel=1 note=29 velocity=0 time=0.2194766125
EXTRACT: control_change channel=6 control=64 value=0 time=0.0828487875
EXTRACT: note_on channel=6 note=53 velocity=77 time=0.031976725
EXTRACT: note_on channel=6 note=69 velocity=80 time=0.0014534875
EXTRACT: note_on channel=6 note=72 velocity=77 time=0.0014534875
EXTRACT: note_on channel=6 note=65 velocity=66 time=0.0014534875
EXTRACT: note_on channel=5 note=70 velocity=0 time=0.0014534875
EXTRACT: note_on channel=5 note=67 velocity=0 time=0
EXTRACT: note_on channel=1 note=29 velocity=126 time=0.002906975
EXTRACT: note_on channel=5 note=69 velocity=78 time=0
EXTRACT: note_on channel=5 note=72 velocity=78 time=0
EXTRACT: note_on channel=7 note=55 velocity=62 time=0
EXTRACT: control_change channel=6 control=64 value=127 time=0.14534875
EXTRACT: note_on channel=6 note=65 velocity=0 time=0.159883625
EXTRACT: note_on channel=6 note=69 velocity=0 time=0.0276162625
EXTRACT: note_on channel=6 note=72 velocity=0 time=0.002906975
EXTRACT: note_on channel=6 note=53 velocity=0 time=0.0159883625
EXTRACT: note_on channel=7 note=49 velocity=0 time=0.02906975
EXTRACT: note_on channel=1 note=29 velocity=0 time=0.1874998875
EXTRACT: control_change channel=6 control=64 value=0 time=0.1119185375
EXTRACT: note_on channel=6 note=70 velocity=76 time=0.0101744125
EXTRACT: note_on channel=6 note=67 velocity=83 time=0.0014534875
EXTRACT: note_on channel=6 note=53 velocity=80 time=0.0014534875
EXTRACT: note_on channel=5 note=69 velocity=0 time=0.0014534875
EXTRACT: note_on channel=5 note=72 velocity=0 time=0
EXTRACT: note_on channel=6 note=74 velocity=84 time=0
EXTRACT: note_on channel=1 note=29 velocity=127 time=0.002906975
EXTRACT: note_on channel=5 note=70 velocity=78 time=0
EXTRACT: note_on channel=5 note=74 velocity=78 time=0
EXTRACT: note_on channel=7 note=60 velocity=62 time=0
EXTRACT: control_change channel=6 control=64 value=127 time=0.1627906
EXTRACT: note_on channel=6 note=74 velocity=0 time=0.08720925
EXTRACT: note_on channel=6 note=67 velocity=0 time=0.0072674375
EXTRACT: note_on channel=6 note=70 velocity=0 time=0.00581395
EXTRACT: note_on channel=6 note=53 velocity=0 time=0.014534875
EXTRACT: note_on channel=7 note=55 velocity=0 time=0.1031976125
EXTRACT: note_on channel=1 note=29 velocity=0 time=0.19186035
EXTRACT: control_change channel=6 control=64 value=0 time=0.0930232
EXTRACT: note_on channel=5 note=74 velocity=0 time=0.02906975
EXTRACT: note_on channel=5 note=70 velocity=0 time=0
EXTRACT: note_on channel=6 note=53 velocity=76 time=0
EXTRACT: note_on channel=1 note=29 velocity=127 time=0.002906975
EXTRACT: note_on channel=5 note=72 velocity=78 time=0
EXTRACT: note_on channel=5 note=75 velocity=76 time=0
EXTRACT: note_on channel=6 note=70 velocity=86 time=0
EXTRACT: note_on channel=6 note=67 velocity=75 time=0
EXTRACT: note_on channel=6 note=75 velocity=84 time=0
EXTRACT: note_on channel=7 note=67 velocity=62 time=0
EXTRACT: control_change channel=6 control=64 value=127 time=0.101744125
EXTRACT: note_on channel=5 note=75 velocity=0 time=0.06976740000000001
EXTRACT: note_on channel=5 note=74 velocity=71 time=0.002906975
EXTRACT: note_on channel=6 note=67 velocity=0 time=0.05232555
EXTRACT: note_on channel=6 note=70 velocity=0 time=0.002906975
EXTRACT: note_on channel=6 note=75 velocity=0 time=0.0072674375
EXTRACT: note_on channel=6 note=53 velocity=0 time=0
EXTRACT: note_on channel=5 note=74 velocity=0 time=0.1090115625
EXTRACT: note_on channel=5 note=75 velocity=76 time=0.002906975
EXTRACT: note_on channel=7 note=60 velocity=0 time=0.031976725
EXTRACT: note_on channel=5 note=75 velocity=0 time=0.13953480000000001
EXTRACT: note_on channel=5 note=77 velocity=75 time=0.0043604625000000004
EXTRACT: note_on channel=1 note=29 velocity=0 time=0.061046475
EXTRACT: control_change channel=6 control=64 value=0 time=0.020348825
EXTRACT: note_on channel=5 note=72 velocity=0 time=0.0886627375
EXTRACT: note_on channel=5 note=77 velocity=0 time=0.002906975
EXTRACT: note_on channel=1 note=34 velocity=127 time=0
EXTRACT: note_on channel=7 note=72 velocity=51 time=0
EXTRACT: note_on channel=7 note=67 velocity=0 time=0.380813725
EXTRACT: note_on channel=1 note=34 velocity=0 time=0.281976575
EXTRACT: note_on channel=7 note=79 velocity=42 time=0.034883700000000004
EXTRACT: note_on channel=7 note=72 velocity=0 time=0.380813725
EXTRACT: note_on channel=7 note=84 velocity=37 time=0.316860275
EXTRACT: note_on channel=7 note=79 velocity=0 time=0.380813725
EXTRACT: note_on channel=7 note=84 velocity=0 time=0.697674
EXTRACT: control_change channel=0 control=123 value=0 time=1.712208275
EXTRACT: control_change channel=0 control=121 value=0 time=0.1744185
