EXTRACT: control_change channel=0 control=101 value=0 time=0
EXTRACT: control_change channel=0 control=100 value=0 time=0
EXTRACT: control_change channel=0 control=6 value=12 time=0
EXTRACT: control_change channel=0 control=38 value=0 time=0
EXTRACT: control_change channel=1 control=101 value=0 time=0
EXTRACT: control_change channel=1 control=100 value=0 time=0
EXTRACT: control_change channel=1 control=6 value=12 time=0
EXTRACT: control_change channel=1 control=38 value=0 time=0
EXTRACT: control_change channel=2 control=101 value=0 time=0
EXTRACT: control_change channel=2 control=100 value=0 time=0
EXTRACT: control_change channel=2 control=6 value=12 time=0
EXTRACT: control_change channel=2 control=38 value=0 time=0
EXTRACT: control_change channel=3 control=101 value=0 time=0
EXTRACT: control_change channel=3 control=100 value=0 time=0
EXTRACT: control_change channel=3 control=6 value=12 time=0
EXTRACT: control_change channel=3 control=38 value=0 time=0
EXTRACT: control_change channel=4 control=101 value=0 time=0
EXTRACT: control_change channel=4 control=100 value=0 time=0
EXTRACT: control_change channel=4 control=6 value=12 time=0
EXTRACT: control_change channel=4 control=38 value=0 time=0
EXTRACT: control_change channel=5 control=101 value=0 time=0
EXTRACT: control_change channel=5 control=100 value=0 time=0
EXTRACT: control_change channel=5 control=6 value=12 time=0
EXTRACT: control_change channel=5 control=38 value=0 time=0
EXTRACT: control_change channel=6 control=101 value=0 time=0
EXTRACT: control_change channel=6 control=100 value=0 time=0
EXTRACT: control_change channel=6 control=6 value=12 time=0
EXTRACT: control_change channel=6 control=38 value=0 time=0
EXTRACT: control_change channel=7 control=101 value=0 time=0
EXTRACT: control_change channel=7 control=100 value=0 time=0
EXTRACT: control_change channel=7 control=6 value=12 time=0
EXTRACT: control_change channel=7 control=38 value=0 time=0
EXTRACT: control_change channel=8 control=101 value=0 time=0
EXTRACT: control_change channel=8 control=100 value=0 time=0
EXTRACT: control_change channel=8 control=6 value=12 time=0
EXTRACT: control_change channel=8 control=38 value=0 time=0
EXTRACT: control_change channel=9 control=101 value=0 time=0
EXTRACT: control_change channel=9 control=100 value=0 time=0
EXTRACT: control_change channel=9 control=6 value=12 time=0
EXTRACT: control_change channel=9 control=38 value=0 time=0
EXTRACT: control_change channel=10 control=101 value=0 time=0
EXTRACT: control_change channel=10 control=100 value=0 time=0
EXTRACT: control_change channel=10 control=6 value=12 time=0
EXTRACT: control_change channel=10 control=38 value=0 time=0
EXTRACT: control_change channel=11 control=101 value=0 time=0
EXTRACT: control_change channel=11 control=100 value=0 time=0
EXTRACT: control_change channel=11 control=6 value=12 time=0
EXTRACT: control_change channel=11 control=38 value=0 time=0
EXTRACT: control_change channel=12 control=101 value=0 time=0
EXTRACT: control_change channel=12 control=100 value=0 time=0
EXTRACT: control_change channel=12 control=6 value=12 time=0
EXTRACT: control_change channel=12 control=38 value=0 time=0
EXTRACT: control_change channel=13 control=101 value=0 time=0
EXTRACT: control_change channel=13 control=100 value=0 time=0
EXTRACT: control_change channel=13 control=6 value=12 time=0
EXTRACT: control_change channel=13 control=38 value=0 time=0
EXTRACT: control_change channel=14 control=101 value=0 time=0
EXTRACT: control_change channel=14 control=100 value=0 time=0
EXTRACT: control_change channel=14 control=6 value=12 time=0
EXTRACT: control_change channel=14 control=38 value=0 time=0
EXTRACT: control_change channel=15 control=101 value=0 time=0
EXTRACT: control_change channel=15 control=100 value=0 time=0
EXTRACT: control_change channel=15 control=6 value=12 time=0
EXTRACT: control_change channel=15 control=38 value=0 time=0
EXTRACT: pitchwheel channel=0 pitch=0 time=0
EXTRACT: control_change channel=0 control=7 value=127 time=0
EXTRACT: control_change channel=0 control=10 value=23 time=0
EXTRACT: control_change channel=0 control=93 value=39 time=0
EXTRACT: control_change channel=0 control=91 value=15 time=0
EXTRACT: control_change channel=0 control=95 value=0 time=0
EXTRACT: control_change channel=0 control=92 value=0 time=0
EXTRACT: control_change channel=0 control=11 value=127 time=0
EXTRACT: program_change channel=0 program=30 time=0
EXTRACT: control_change channel=1 control=7 value=127 time=0
EXTRACT: control_change channel=1 control=10 value=23 time=0
EXTRACT: control_change channel=1 control=93 value=39 time=0
EXTRACT: control_change channel=1 control=91 value=15 time=0
EXTRACT: control_change channel=1 control=95 value=0 time=0
EXTRACT: control_change channel=1 control=92 value=0 time=0
EXTRACT: control_change channel=1 control=11 value=127 time=0
EXTRACT: program_change channel=1 program=30 time=0
EXTRACT: pitchwheel channel=2 pitch=0 time=0
EXTRACT: control_change channel=2 control=7 value=111 time=0
EXTRACT: control_change channel=2 control=10 value=103 time=0
EXTRACT: control_change channel=2 control=93 value=39 time=0
EXTRACT: control_change channel=2 control=91 value=47 time=0
EXTRACT: control_change channel=2 control=95 value=0 time=0
EXTRACT: control_change channel=2 control=92 value=0 time=0
EXTRACT: control_change channel=2 control=11 value=127 time=0
EXTRACT: program_change channel=2 program=30 time=0
EXTRACT: control_change channel=3 control=7 value=111 time=0
EXTRACT: control_change channel=3 control=10 value=103 time=0
EXTRACT: control_change channel=3 control=93 value=39 time=0
EXTRACT: control_change channel=3 control=91 value=47 time=0
EXTRACT: control_change channel=3 control=95 value=0 time=0
EXTRACT: control_change channel=3 control=92 value=0 time=0
EXTRACT: control_change channel=3 control=11 value=127 time=0
EXTRACT: program_change channel=3 program=30 time=0
EXTRACT: pitchwheel channel=6 pitch=0 time=0
EXTRACT: control_change channel=6 control=7 value=111 time=0
EXTRACT: control_change channel=6 control=10 value=63 time=0
EXTRACT: control_change channel=6 control=93 value=39 time=0
EXTRACT: control_change channel=6 control=91 value=47 time=0
EXTRACT: control_change channel=6 control=95 value=0 time=0
EXTRACT: control_change channel=6 control=92 value=0 time=0
EXTRACT: control_change channel=6 control=11 value=127 time=0
EXTRACT: program_change channel=6 program=29 time=0
EXTRACT: control_change channel=7 control=7 value=111 time=0
EXTRACT: control_change channel=7 control=10 value=63 time=0
EXTRACT: control_change channel=7 control=93 value=39 time=0
EXTRACT: control_change channel=7 control=91 value=47 time=0
EXTRACT: control_change channel=7 control=95 value=0 time=0
EXTRACT: control_change channel=7 control=92 value=0 time=0
EXTRACT: control_change channel=7 control=11 value=127 time=0
EXTRACT: program_change channel=7 program=29 time=0
EXTRACT: pitchwheel channel=11 pitch=0 time=0
EXTRACT: control_change channel=11 control=7 value=79 time=0
EXTRACT: control_change channel=11 control=10 value=63 time=0
EXTRACT: control_change channel=11 control=93 value=0 time=0
EXTRACT: control_change channel=11 control=91 value=47 time=0
EXTRACT: control_change channel=11 control=95 value=0 time=0
EXTRACT: control_change channel=11 control=92 value=0 time=0
EXTRACT: control_change channel=11 control=11 value=127 time=0
EXTRACT: program_change channel=11 program=29 time=0
EXTRACT: control_change channel=12 control=7 value=79 time=0
EXTRACT: control_change channel=12 control=10 value=63 time=0
EXTRACT: control_change channel=12 control=93 value=0 time=0
EXTRACT: control_change channel=12 control=91 value=47 time=0
EXTRACT: control_change channel=12 control=95 value=0 time=0
EXTRACT: control_change channel=12 control=92 value=0 time=0
EXTRACT: control_change channel=12 control=11 value=127 time=0
EXTRACT: program_change channel=12 program=29 time=0
EXTRACT: pitchwheel channel=8 pitch=0 time=0
EXTRACT: control_change channel=8 control=7 value=95 time=0
EXTRACT: control_change channel=8 control=10 value=63 time=0
EXTRACT: control_change channel=8 control=93 value=0 time=0
EXTRACT: control_change channel=8 control=91 value=47 time=0
EXTRACT: control_change channel=8 control=95 value=0 time=0
EXTRACT: control_change channel=8 control=92 value=0 time=0
EXTRACT: control_change channel=8 control=11 value=127 time=0
EXTRACT: program_change channel=8 program=38 time=0
EXTRACT: control_change channel=10 control=7 value=95 time=0
EXTRACT: control_change channel=10 control=10 value=63 time=0
EXTRACT: control_change channel=10 control=93 value=0 time=0
EXTRACT: control_change channel=10 control=91 value=47 time=0
EXTRACT: control_change channel=10 control=95 value=0 time=0
EXTRACT: control_change channel=10 control=92 value=0 time=0
EXTRACT: control_change channel=10 control=11 value=127 time=0
EXTRACT: program_change channel=10 program=38 time=0
EXTRACT: pitchwheel channel=13 pitch=0 time=0
EXTRACT: control_change channel=13 control=7 value=0 time=0
EXTRACT: control_change channel=13 control=10 value=63 time=0
EXTRACT: control_change channel=13 control=93 value=0 time=0
EXTRACT: control_change channel=13 control=91 value=47 time=0
EXTRACT: control_change channel=13 control=95 value=0 time=0
EXTRACT: control_change channel=13 control=92 value=0 time=0
EXTRACT: control_change channel=13 control=11 value=127 time=0
EXTRACT: program_change channel=13 program=62 time=0
EXTRACT: control_change channel=14 control=7 value=0 time=0
EXTRACT: control_change channel=14 control=10 value=63 time=0
EXTRACT: control_change channel=14 control=93 value=0 time=0
EXTRACT: control_change channel=14 control=91 value=47 time=0
EXTRACT: control_change channel=14 control=95 value=0 time=0
EXTRACT: control_change channel=14 control=92 value=0 time=0
EXTRACT: control_change channel=14 control=11 value=127 time=0
EXTRACT: program_change channel=14 program=62 time=0
EXTRACT: pitchwheel channel=4 pitch=0 time=0
EXTRACT: control_change channel=4 control=7 value=127 time=0
EXTRACT: control_change channel=4 control=10 value=63 time=0
EXTRACT: control_change channel=4 control=93 value=39 time=0
EXTRACT: control_change channel=4 control=91 value=47 time=0
EXTRACT: control_change channel=4 control=95 value=0 time=0
EXTRACT: control_change channel=4 control=92 value=0 time=0
EXTRACT: control_change channel=4 control=11 value=127 time=0
EXTRACT: program_change channel=4 program=62 time=0
EXTRACT: control_change channel=5 control=7 value=127 time=0
EXTRACT: control_change channel=5 control=10 value=63 time=0
EXTRACT: control_change channel=5 control=93 value=39 time=0
EXTRACT: control_change channel=5 control=91 value=47 time=0
EXTRACT: control_change channel=5 control=95 value=0 time=0
EXTRACT: control_change channel=5 control=92 value=0 time=0
EXTRACT: control_change channel=5 control=11 value=127 time=0
EXTRACT: program_change channel=5 program=62 time=0
EXTRACT: pitchwheel channel=15 pitch=0 time=0
EXTRACT: control_change channel=15 control=7 value=95 time=0
EXTRACT: control_change channel=15 control=10 value=63 time=0
EXTRACT: control_change channel=15 control=93 value=0 time=0
EXTRACT: control_change channel=15 control=91 value=47 time=0
EXTRACT: control_change channel=15 control=95 value=0 time=0
EXTRACT: control_change channel=15 control=92 value=0 time=0
EXTRACT: control_change channel=15 control=11 value=127 time=0
EXTRACT: program_change channel=15 program=52 time=0
EXTRACT: pitchwheel channel=9 pitch=0 time=0
EXTRACT: control_change channel=9 control=7 value=95 time=0
EXTRACT: control_change channel=9 control=10 value=63 time=0
EXTRACT: control_change channel=9 control=93 value=0 time=0
EXTRACT: control_change channel=9 control=91 value=15 time=0
EXTRACT: control_change channel=9 control=95 value=0 time=0
EXTRACT: control_change channel=9 control=92 value=0 time=0
EXTRACT: control_change channel=9 control=11 value=127 time=0
EXTRACT: program_change channel=9 program=0 time=0
EXTRACT: note_on channel=9 note=62 velocity=95 time=0
EXTRACT: note_on channel=9 note=35 velocity=95 time=0
EXTRACT: pitchwheel channel=9 pitch=0 time=0
EXTRACT: control_change channel=9 control=7 value=95 time=0
EXTRACT: control_change channel=9 control=10 value=63 time=0
EXTRACT: control_change channel=9 control=93 value=0 time=0
EXTRACT: control_change channel=9 control=91 value=15 time=0
EXTRACT: control_change channel=9 control=95 value=0 time=0
EXTRACT: control_change channel=9 control=92 value=0 time=0
EXTRACT: control_change channel=9 control=11 value=127 time=0
EXTRACT: program_change channel=9 program=0 time=0
EXTRACT: note_off channel=9 note=62 velocity=95 time=0.3370785
EXTRACT: note_off channel=9 note=35 velocity=95 time=0
EXTRACT: note_on channel=9 note=62 velocity=95 time=0
EXTRACT: note_on channel=9 note=35 velocity=95 time=0
EXTRACT: note_off channel=9 note=62 velocity=95 time=0.3370785
EXTRACT: note_off channel=9 note=35 velocity=95 time=0
EXTRACT: note_on channel=9 note=62 velocity=95 time=0
EXTRACT: note_on channel=9 note=35 velocity=95 time=0
EXTRACT: note_off channel=9 note=62 velocity=95 time=0.3370785
EXTRACT: note_off channel=9 note=35 velocity=95 time=0
EXTRACT: note_on channel=9 note=62 velocity=95 time=0
EXTRACT: note_on channel=9 note=35 velocity=95 time=0
EXTRACT: note_off channel=9 note=62 velocity=95 time=0.3370785
EXTRACT: note_off channel=9 note=35 velocity=95 time=0
EXTRACT: note_on channel=9 note=62 velocity=95 time=0
EXTRACT: note_on channel=9 note=35 velocity=95 time=0
EXTRACT: note_on channel=13 note=67 velocity=95 time=0.3370785
EXTRACT: note_on channel=4 note=67 velocity=95 time=0
EXTRACT: note_off channel=9 note=62 velocity=95 time=0
EXTRACT: note_off channel=9 note=35 velocity=95 time=0
EXTRACT: note_off channel=13 note=67 velocity=95 time=0.3370785
EXTRACT: note_off channel=4 note=67 velocity=95 time=0
EXTRACT: note_on channel=9 note=62 velocity=95 time=0
EXTRACT: note_on channel=9 note=35 velocity=95 time=0
EXTRACT: note_off channel=9 note=62 velocity=95 time=0.16853925
EXTRACT: note_off channel=9 note=35 velocity=95 time=0
EXTRACT: note_on channel=9 note=82 velocity=95 time=0
EXTRACT: note_off channel=9 note=82 velocity=95 time=0.3370785
EXTRACT: note_on channel=9 note=62 velocity=95 time=0
EXTRACT: note_on channel=9 note=35 velocity=95 time=0
EXTRACT: note_on channel=9 note=73 velocity=95 time=0
EXTRACT: note_on channel=13 note=64 velocity=95 time=0
EXTRACT: note_on channel=4 note=64 velocity=95 time=0
EXTRACT: note_off channel=9 note=62 velocity=95 time=0
EXTRACT: note_off channel=9 note=35 velocity=95 time=0
EXTRACT: note_off channel=9 note=73 velocity=95 time=0
EXTRACT: note_on channel=9 note=82 velocity=95 time=0
EXTRACT: note_off channel=13 note=64 velocity=95 time=0.16853925
EXTRACT: note_on channel=13 note=64 velocity=95 time=0
EXTRACT: note_off channel=4 note=64 velocity=95 time=0
EXTRACT: note_on channel=4 note=64 velocity=95 time=0
EXTRACT: note_off channel=9 note=82 velocity=95 time=0
EXTRACT: note_on channel=9 note=73 velocity=95 time=0
EXTRACT: note_off channel=13 note=64 velocity=95 time=0.16853925
EXTRACT: note_on channel=13 note=69 velocity=95 time=0
EXTRACT: note_off channel=4 note=64 velocity=95 time=0
EXTRACT: note_on channel=4 note=69 velocity=95 time=0
EXTRACT: note_off channel=9 note=73 velocity=95 time=0
EXTRACT: note_on channel=9 note=82 velocity=95 time=0
EXTRACT: note_off channel=13 note=69 velocity=95 time=0.16853925
EXTRACT: note_on channel=13 note=64 velocity=95 time=0
EXTRACT: note_off channel=4 note=69 velocity=95 time=0
EXTRACT: note_on channel=4 note=64 velocity=95 time=0
EXTRACT: note_off channel=9 note=82 velocity=95 time=0
EXTRACT: note_on channel=9 note=73 velocity=95 time=0
EXTRACT: note_on channel=0 note=47 velocity=95 time=0
EXTRACT: note_on channel=0 note=40 velocity=95 time=0
EXTRACT: note_on channel=2 note=47 velocity=95 time=0
EXTRACT: note_on channel=2 note=40 velocity=95 time=0
EXTRACT: note_on channel=8 note=28 velocity=111 time=0
EXTRACT: note_off channel=13 note=64 velocity=95 time=0
EXTRACT: note_off channel=4 note=64 velocity=95 time=0
EXTRACT: note_off channel=9 note=73 velocity=95 time=0
EXTRACT: note_on channel=9 note=56 velocity=95 time=0
EXTRACT: note_on channel=9 note=42 velocity=127 time=0
EXTRACT: note_on channel=9 note=36 velocity=111 time=0
EXTRACT: note_on channel=9 note=82 velocity=95 time=0
EXTRACT: note_off channel=9 note=56 velocity=95 time=0.16853925
EXTRACT: note_off channel=9 note=42 velocity=127 time=0
EXTRACT: note_off channel=9 note=36 velocity=111 time=0
EXTRACT: note_off channel=9 note=82 velocity=95 time=0
EXTRACT: note_off channel=0 note=47 velocity=95 time=0.16853925
EXTRACT: note_off channel=0 note=40 velocity=95 time=0
EXTRACT: note_on channel=0 note=47 velocity=95 time=0
EXTRACT: note_on channel=0 note=40 velocity=95 time=0
EXTRACT: note_off channel=2 note=47 velocity=95 time=0
EXTRACT: note_off channel=2 note=40 velocity=95 time=0
EXTRACT: note_on channel=2 note=47 velocity=95 time=0
EXTRACT: note_on channel=2 note=40 velocity=95 time=0
EXTRACT: note_off channel=8 note=28 velocity=111 time=0
EXTRACT: note_on channel=8 note=28 velocity=111 time=0
EXTRACT: note_on channel=9 note=42 velocity=111 time=0
EXTRACT: note_on channel=9 note=36 velocity=111 time=0
EXTRACT: note_off channel=9 note=42 velocity=111 time=0.16853925
EXTRACT: note_off channel=9 note=36 velocity=111 time=0
EXTRACT: note_off channel=0 note=47 velocity=95 time=0.16853925
EXTRACT: note_off channel=0 note=40 velocity=95 time=0
EXTRACT: pitchwheel channel=1 pitch=0 time=0
EXTRACT: note_on channel=1 note=55 velocity=95 time=0
EXTRACT: note_off channel=2 note=47 velocity=95 time=0
EXTRACT: note_off channel=2 note=40 velocity=95 time=0
EXTRACT: note_off channel=8 note=28 velocity=111 time=0
EXTRACT: note_on channel=9 note=56 velocity=95 time=0
EXTRACT: note_on channel=9 note=42 velocity=111 time=0
EXTRACT: note_on channel=9 note=82 velocity=95 time=0
EXTRACT: note_on channel=9 note=38 velocity=111 time=0
EXTRACT: pitchwheel channel=1 pitch=0 time=0.1123595
EXTRACT: note_off channel=9 note=56 velocity=95 time=0.05617975
EXTRACT: note_off channel=9 note=42 velocity=111 time=0
EXTRACT: note_off channel=9 note=82 velocity=95 time=0
EXTRACT: note_off channel=9 note=38 velocity=111 time=0
EXTRACT: pitchwheel channel=1 pitch=128 time=0.05617975
EXTRACT: pitchwheel channel=1 pitch=256 time=0.1123595
EXTRACT: pitchwheel channel=1 pitch=256 time=0
EXTRACT: note_on channel=9 note=42 velocity=111 time=0
EXTRACT: note_on channel=8 note=28 velocity=95 time=0.16853925
EXTRACT: note_off channel=9 note=42 velocity=111 time=0
EXTRACT: note_on channel=9 note=82 velocity=95 time=0
EXTRACT: pitchwheel channel=1 pitch=256 time=0.1123595
EXTRACT: pitchwheel channel=1 pitch=128 time=0.028089875
EXTRACT: pitchwheel channel=1 pitch=0 time=0.028089875
EXTRACT: pitchwheel channel=1 pitch=0 time=0
EXTRACT: pitchwheel channel=1 pitch=0 time=0
EXTRACT: note_off channel=1 note=55 velocity=95 time=0
EXTRACT: note_on channel=0 note=47 velocity=95 time=0
EXTRACT: note_on channel=0 note=40 velocity=95 time=0
EXTRACT: note_on channel=2 note=47 velocity=95 time=0
EXTRACT: note_on channel=2 note=40 velocity=95 time=0
EXTRACT: note_off channel=8 note=28 velocity=95 time=0
EXTRACT: note_on channel=8 note=28 velocity=111 time=0
EXTRACT: note_off channel=9 note=82 velocity=95 time=0
EXTRACT: note_on channel=9 note=36 velocity=111 time=0
EXTRACT: note_on channel=9 note=42 velocity=111 time=0
EXTRACT: note_on channel=9 note=56 velocity=95 time=0
EXTRACT: note_off channel=9 note=36 velocity=111 time=0.16853925
EXTRACT: note_off channel=9 note=42 velocity=111 time=0
EXTRACT: note_off channel=9 note=56 velocity=95 time=0
EXTRACT: note_on channel=9 note=82 velocity=95 time=0
EXTRACT: note_off channel=0 note=47 velocity=95 time=0.16853925
EXTRACT: note_off channel=0 note=40 velocity=95 time=0
EXTRACT: note_on channel=0 note=47 velocity=95 time=0
EXTRACT: note_on channel=0 note=40 velocity=95 time=0
EXTRACT: note_off channel=2 note=47 velocity=95 time=0
EXTRACT: note_off channel=2 note=40 velocity=95 time=0
EXTRACT: note_on channel=2 note=47 velocity=95 time=0
EXTRACT: note_on channel=2 note=40 velocity=95 time=0
EXTRACT: note_off channel=8 note=28 velocity=111 time=0
EXTRACT: note_on channel=8 note=28 velocity=111 time=0
EXTRACT: note_off channel=9 note=82 velocity=95 time=0
EXTRACT: note_on channel=9 note=42 velocity=111 time=0
EXTRACT: note_on channel=9 note=82 velocity=79 time=0
EXTRACT: note_on channel=9 note=36 velocity=111 time=0
EXTRACT: note_off channel=9 note=42 velocity=111 time=0.16853925
EXTRACT: note_off channel=9 note=82 velocity=79 time=0
EXTRACT: note_off channel=9 note=36 velocity=111 time=0
EXTRACT: note_off channel=0 note=47 velocity=95 time=0.16853925
EXTRACT: note_off channel=0 note=40 velocity=95 time=0
EXTRACT: note_off channel=2 note=47 velocity=95 time=0
EXTRACT: note_off channel=2 note=40 velocity=95 time=0
EXTRACT: note_off channel=8 note=28 velocity=111 time=0
EXTRACT: note_on channel=9 note=56 velocity=95 time=0
EXTRACT: note_on channel=9 note=82 velocity=95 time=0
EXTRACT: note_on channel=9 note=42 velocity=111 time=0
EXTRACT: note_on channel=9 note=38 velocity=127 time=0
EXTRACT: note_on channel=0 note=43 velocity=95 time=0.16853925
EXTRACT: note_on channel=8 note=31 velocity=127 time=0
EXTRACT: note_off channel=9 note=56 velocity=95 time=0
EXTRACT: note_off channel=9 note=82 velocity=95 time=0
EXTRACT: note_off channel=9 note=42 velocity=111 time=0
EXTRACT: note_off channel=9 note=38 velocity=127 time=0
EXTRACT: note_on channel=9 note=42 velocity=111 time=0.16853925
EXTRACT: note_off channel=9 note=42 velocity=111 time=0.16853925
EXTRACT: note_off channel=0 note=43 velocity=95 time=0.16853925
EXTRACT: note_on channel=0 note=52 velocity=95 time=0
EXTRACT: note_on channel=0 note=45 velocity=95 time=0
EXTRACT: note_on channel=2 note=52 velocity=95 time=0
EXTRACT: note_on channel=2 note=45 velocity=95 time=0
EXTRACT: note_off channel=8 note=31 velocity=127 time=0
EXTRACT: note_on channel=8 note=33 velocity=111 time=0
EXTRACT: note_on channel=9 note=56 velocity=95 time=0
EXTRACT: note_on channel=9 note=36 velocity=111 time=0
EXTRACT: note_on channel=9 note=42 velocity=111 time=0
EXTRACT: note_on channel=9 note=82 velocity=111 time=0
EXTRACT: note_off channel=9 note=56 velocity=95 time=0.16853925
EXTRACT: note_off channel=9 note=36 velocity=111 time=0
EXTRACT: note_off channel=9 note=42 velocity=111 time=0
EXTRACT: note_off channel=9 note=82 velocity=111 time=0
EXTRACT: note_off channel=0 note=52 velocity=95 time=0.16853925
EXTRACT: note_off channel=0 note=45 velocity=95 time=0
EXTRACT: note_on channel=0 note=52 velocity=95 time=0
EXTRACT: note_on channel=0 note=45 velocity=95 time=0
EXTRACT: note_off channel=2 note=52 velocity=95 time=0
EXTRACT: note_off channel=2 note=45 velocity=95 time=0
EXTRACT: note_on channel=2 note=52 velocity=95 time=0
EXTRACT: note_on channel=2 note=45 velocity=95 time=0
EXTRACT: note_off channel=8 note=33 velocity=111 time=0
EXTRACT: note_on channel=8 note=33 velocity=111 time=0
EXTRACT: note_on channel=9 note=36 velocity=111 time=0
EXTRACT: note_on channel=9 note=82 velocity=95 time=0
EXTRACT: note_on channel=9 note=42 velocity=111 time=0
EXTRACT: note_off channel=9 note=36 velocity=111 time=0.16853925
EXTRACT: note_off channel=9 note=82 velocity=95 time=0
EXTRACT: note_off channel=9 note=42 velocity=111 time=0
EXTRACT: note_off channel=0 note=52 velocity=95 time=0.16853925
EXTRACT: note_off channel=0 note=45 velocity=95 time=0
EXTRACT: note_off channel=2 note=52 velocity=95 time=0
EXTRACT: note_off channel=2 note=45 velocity=95 time=0
EXTRACT: note_off channel=8 note=33 velocity=111 time=0
EXTRACT: note_on channel=9 note=56 velocity=95 time=0
EXTRACT: note_on channel=9 note=38 velocity=127 time=0
EXTRACT: note_on channel=9 note=82 velocity=95 time=0
EXTRACT: note_on channel=9 note=42 velocity=111 time=0
EXTRACT: note_off channel=9 note=56 velocity=95 time=0.16853925
EXTRACT: note_off channel=9 note=38 velocity=127 time=0
EXTRACT: note_off channel=9 note=82 velocity=95 time=0
EXTRACT: note_off channel=9 note=42 velocity=111 time=0
EXTRACT: note_on channel=9 note=82 velocity=95 time=0.16853925
EXTRACT: note_on channel=9 note=42 velocity=127 time=0
EXTRACT: note_on channel=8 note=33 velocity=95 time=0.16853925
EXTRACT: note_off channel=9 note=82 velocity=95 time=0
EXTRACT: note_off channel=9 note=42 velocity=127 time=0
EXTRACT: note_on channel=9 note=82 velocity=79 time=0
EXTRACT: note_on channel=0 note=54 velocity=95 time=0.16853925
EXTRACT: note_on channel=0 note=47 velocity=95 time=0
EXTRACT: note_on channel=2 note=54 velocity=95 time=0
EXTRACT: note_on channel=2 note=47 velocity=95 time=0
EXTRACT: note_off channel=8 note=33 velocity=95 time=0
EXTRACT: note_on channel=8 note=35 velocity=111 time=0
EXTRACT: note_off channel=9 note=82 velocity=79 time=0
EXTRACT: note_on channel=9 note=56 velocity=95 time=0
EXTRACT: note_on channel=9 note=36 velocity=111 time=0
EXTRACT: note_on channel=9 note=42 velocity=127 time=0
EXTRACT: note_off channel=9 note=56 velocity=95 time=0.16853925
EXTRACT: note_off channel=9 note=36 velocity=111 time=0
EXTRACT: note_off channel=9 note=42 velocity=127 time=0
EXTRACT: note_on channel=9 note=82 velocity=95 time=0
EXTRACT: note_off channel=0 note=54 velocity=95 time=0.16853925
EXTRACT: note_off channel=0 note=47 velocity=95 time=0
EXTRACT: note_on channel=0 note=54 velocity=95 time=0
EXTRACT: note_on channel=0 note=47 velocity=95 time=0
EXTRACT: note_off channel=2 note=54 velocity=95 time=0
EXTRACT: note_off channel=2 note=47 velocity=95 time=0
EXTRACT: note_on channel=2 note=54 velocity=95 time=0
EXTRACT: note_on channel=2 note=47 velocity=95 time=0
EXTRACT: note_off channel=8 note=35 velocity=111 time=0
EXTRACT: note_on channel=8 note=35 velocity=111 time=0
EXTRACT: note_off channel=9 note=82 velocity=95 time=0
EXTRACT: note_on channel=9 note=36 velocity=111 time=0
EXTRACT: note_on channel=9 note=82 velocity=79 time=0
EXTRACT: note_on channel=9 note=42 velocity=111 time=0
EXTRACT: note_off channel=9 note=36 velocity=111 time=0.16853925
EXTRACT: note_off channel=9 note=82 velocity=79 time=0
EXTRACT: note_off channel=9 note=42 velocity=111 time=0
EXTRACT: note_off channel=0 note=54 velocity=95 time=0.16853925
EXTRACT: note_off channel=0 note=47 velocity=95 time=0
EXTRACT: note_off channel=2 note=54 velocity=95 time=0
EXTRACT: note_off channel=2 note=47 velocity=95 time=0
EXTRACT: note_off channel=8 note=35 velocity=111 time=0
EXTRACT: note_on channel=9 note=42 velocity=127 time=0
EXTRACT: note_on channel=9 note=38 velocity=111 time=0
EXTRACT: note_on channel=9 note=56 velocity=95 time=0
EXTRACT: note_on channel=9 note=82 velocity=95 time=0
EXTRACT: note_off channel=9 note=42 velocity=127 time=0.16853925
EXTRACT: note_off channel=9 note=38 velocity=111 time=0
EXTRACT: note_off channel=9 note=56 velocity=95 time=0
EXTRACT: note_off channel=9 note=82 velocity=95 time=0
EXTRACT: note_on channel=9 note=41 velocity=127 time=0.16853925
EXTRACT: note_on channel=9 note=42 velocity=127 time=0
EXTRACT: note_off channel=9 note=41 velocity=127 time=0.16853925
EXTRACT: note_off channel=9 note=42 velocity=127 time=0
EXTRACT: note_on channel=0 note=47 velocity=95 time=0.16853925
EXTRACT: note_on channel=0 note=40 velocity=95 time=0
EXTRACT: note_on channel=2 note=47 velocity=95 time=0
EXTRACT: note_on channel=2 note=40 velocity=95 time=0
EXTRACT: note_on channel=8 note=28 velocity=111 time=0
EXTRACT: note_on channel=9 note=82 velocity=111 time=0
EXTRACT: note_on channel=9 note=42 velocity=127 time=0
EXTRACT: note_on channel=9 note=36 velocity=111 time=0
EXTRACT: note_on channel=9 note=56 velocity=95 time=0
EXTRACT: note_off channel=9 note=82 velocity=111 time=0.16853925
EXTRACT: note_off channel=9 note=42 velocity=127 time=0
EXTRACT: note_off channel=9 note=36 velocity=111 time=0
EXTRACT: note_off channel=9 note=56 velocity=95 time=0
EXTRACT: note_off channel=0 note=47 velocity=95 time=0.16853925
EXTRACT: note_off channel=0 note=40 velocity=95 time=0
EXTRACT: note_on channel=0 note=47 velocity=95 time=0
EXTRACT: note_on channel=0 note=40 velocity=95 time=0
EXTRACT: note_off channel=2 note=47 velocity=95 time=0
EXTRACT: note_off channel=2 note=40 velocity=95 time=0
EXTRACT: note_on channel=2 note=47 velocity=95 time=0
EXTRACT: note_on channel=2 note=40 velocity=95 time=0
EXTRACT: note_off channel=8 note=28 velocity=111 time=0
EXTRACT: note_on channel=8 note=28 velocity=111 time=0
EXTRACT: note_on channel=9 note=36 velocity=111 time=0
EXTRACT: note_on channel=9 note=42 velocity=111 time=0
EXTRACT: note_off channel=9 note=36 velocity=111 time=0.16853925
EXTRACT: note_off channel=9 note=42 velocity=111 time=0
EXTRACT: note_off channel=0 note=47 velocity=95 time=0.16853925
EXTRACT: note_off channel=0 note=40 velocity=95 time=0
EXTRACT: pitchwheel channel=1 pitch=0 time=0
EXTRACT: note_on channel=1 note=55 velocity=95 time=0
EXTRACT: note_off channel=2 note=47 velocity=95 time=0
EXTRACT: note_off channel=2 note=40 velocity=95 time=0
EXTRACT: note_off channel=8 note=28 velocity=111 time=0
EXTRACT: note_on channel=9 note=56 velocity=95 time=0
EXTRACT: note_on channel=9 note=38 velocity=111 time=0
EXTRACT: note_on channel=9 note=82 velocity=95 time=0
EXTRACT: note_on channel=9 note=42 velocity=111 time=0
EXTRACT: pitchwheel channel=1 pitch=0 time=0.1123595
EXTRACT: note_off channel=9 note=56 velocity=95 time=0.05617975
EXTRACT: note_off channel=9 note=38 velocity=111 time=0
EXTRACT: note_off channel=9 note=82 velocity=95 time=0
EXTRACT: note_off channel=9 note=42 velocity=111 time=0
EXTRACT: pitchwheel channel=1 pitch=128 time=0.05617975
EXTRACT: pitchwheel channel=1 pitch=256 time=0.1123595
EXTRACT: pitchwheel channel=1 pitch=256 time=0
EXTRACT: note_on channel=9 note=82 velocity=95 time=0
EXTRACT: note_on channel=9 note=42 velocity=111 time=0
EXTRACT: note_on channel=8 note=28 velocity=95 time=0.16853925
EXTRACT: note_off channel=9 note=82 velocity=95 time=0
EXTRACT: note_off channel=9 note=42 velocity=111 time=0
EXTRACT: note_on channel=9 note=82 velocity=79 time=0
EXTRACT: pitchwheel channel=1 pitch=256 time=0.1123595
EXTRACT: pitchwheel channel=1 pitch=128 time=0.028089875
EXTRACT: pitchwheel channel=1 pitch=0 time=0.028089875
EXTRACT: pitchwheel channel=1 pitch=0 time=0
EXTRACT: pitchwheel channel=1 pitch=0 time=0
EXTRACT: note_off channel=1 note=55 velocity=95 time=0
EXTRACT: note_on channel=0 note=47 velocity=95 time=0
EXTRACT: note_on channel=0 note=40 velocity=95 time=0
EXTRACT: note_on channel=2 note=47 velocity=95 time=0
EXTRACT: note_on channel=2 note=40 velocity=95 time=0
EXTRACT: note_off channel=8 note=28 velocity=95 time=0
EXTRACT: note_on channel=8 note=28 velocity=111 time=0
EXTRACT: note_off channel=9 note=82 velocity=79 time=0
EXTRACT: note_on channel=9 note=56 velocity=95 time=0
EXTRACT: note_on channel=9 note=36 velocity=111 time=0
EXTRACT: note_on channel=9 note=42 velocity=111 time=0
EXTRACT: note_off channel=9 note=56 velocity=95 time=0.16853925
EXTRACT: note_off channel=9 note=36 velocity=111 time=0
EXTRACT: note_off channel=9 note=42 velocity=111 time=0
EXTRACT: note_on channel=9 note=82 velocity=95 time=0
EXTRACT: note_off channel=0 note=47 velocity=95 time=0.16853925
EXTRACT: note_off channel=0 note=40 velocity=95 time=0
EXTRACT: note_on channel=0 note=47 velocity=95 time=0
EXTRACT: note_on channel=0 note=40 velocity=95 time=0
EXTRACT: note_off channel=2 note=47 velocity=95 time=0
EXTRACT: note_off channel=2 note=40 velocity=95 time=0
EXTRACT: note_on channel=2 note=47 velocity=95 time=0
EXTRACT: note_on channel=2 note=40 velocity=95 time=0
EXTRACT: note_off channel=8 note=28 velocity=111 time=0
EXTRACT: note_on channel=8 note=28 velocity=111 time=0
EXTRACT: note_off channel=9 note=82 velocity=95 time=0
EXTRACT: note_on channel=9 note=42 velocity=111 time=0
EXTRACT: note_on channel=9 note=36 velocity=111 time=0
EXTRACT: note_on channel=9 note=82 velocity=79 time=0
EXTRACT: note_off channel=9 note=42 velocity=111 time=0.16853925
EXTRACT: note_off channel=9 note=36 velocity=111 time=0
EXTRACT: note_off channel=9 note=82 velocity=79 time=0
EXTRACT: note_off channel=0 note=47 velocity=95 time=0.16853925
EXTRACT: note_off channel=0 note=40 velocity=95 time=0
EXTRACT: note_off channel=2 note=47 velocity=95 time=0
EXTRACT: note_off channel=2 note=40 velocity=95 time=0
EXTRACT: note_off channel=8 note=28 velocity=111 time=0
EXTRACT: note_on channel=9 note=56 velocity=95 time=0
EXTRACT: note_on channel=9 note=42 velocity=111 time=0
EXTRACT: note_on channel=9 note=38 velocity=127 time=0
EXTRACT: note_on channel=9 note=82 velocity=95 time=0
EXTRACT: note_on channel=0 note=43 velocity=95 time=0.16853925
EXTRACT: note_on channel=8 note=31 velocity=127 time=0
EXTRACT: note_off channel=9 note=56 velocity=95 time=0
EXTRACT: note_off channel=9 note=42 velocity=111 time=0
EXTRACT: note_off channel=9 note=38 velocity=127 time=0
EXTRACT: note_off channel=9 note=82 velocity=95 time=0
EXTRACT: note_on channel=9 note=42 velocity=111 time=0.16853925
EXTRACT: note_off channel=9 note=42 velocity=111 time=0.16853925
EXTRACT: note_off channel=0 note=43 velocity=95 time=0
EXTRACT: note_on channel=0 note=52 velocity=95 time=0
EXTRACT: note_on channel=0 note=45 velocity=95 time=0
EXTRACT: note_on channel=2 note=52 velocity=95 time=0
EXTRACT: note_on channel=2 note=45 velocity=95 time=0
EXTRACT: note_off channel=8 note=31 velocity=127 time=0
EXTRACT: note_on channel=8 note=33 velocity=111 time=0
EXTRACT: note_on channel=9 note=82 velocity=111 time=0
EXTRACT: note_on channel=9 note=42 velocity=111 time=0
EXTRACT: note_on channel=9 note=56 velocity=95 time=0
EXTRACT: note_on channel=9 note=36 velocity=111 time=0
EXTRACT: note_off channel=9 note=82 velocity=111 time=0.16853925
EXTRACT: note_off channel=9 note=42 velocity=111 time=0
EXTRACT: note_off channel=9 note=56 velocity=95 time=0
EXTRACT: note_off channel=9 note=36 velocity=111 time=0
EXTRACT: note_off channel=0 note=52 velocity=95 time=0.16853925
EXTRACT: note_off channel=0 note=45 velocity=95 time=0
EXTRACT: note_on channel=0 note=52 velocity=95 time=0
EXTRACT: note_on channel=0 note=45 velocity=95 time=0
EXTRACT: note_off channel=2 note=52 velocity=95 time=0
EXTRACT: note_off channel=2 note=45 velocity=95 time=0
EXTRACT: note_on channel=2 note=52 velocity=95 time=0
EXTRACT: note_on channel=2 note=45 velocity=95 time=0
EXTRACT: note_off channel=8 note=33 velocity=111 time=0
EXTRACT: note_on channel=8 note=33 velocity=111 time=0
EXTRACT: note_on channel=9 note=82 velocity=95 time=0
EXTRACT: note_on channel=9 note=42 velocity=111 time=0
EXTRACT: note_on channel=9 note=36 velocity=111 time=0
EXTRACT: note_off channel=9 note=82 velocity=95 time=0.16853925
EXTRACT: note_off channel=9 note=42 velocity=111 time=0
EXTRACT: note_off channel=9 note=36 velocity=111 time=0
EXTRACT: note_on channel=9 note=82 velocity=79 time=0
EXTRACT: note_off channel=0 note=52 velocity=95 time=0.16853925
EXTRACT: note_off channel=0 note=45 velocity=95 time=0
EXTRACT: note_off channel=2 note=52 velocity=95 time=0
EXTRACT: note_off channel=2 note=45 velocity=95 time=0
EXTRACT: note_off channel=8 note=33 velocity=111 time=0
EXTRACT: note_off channel=9 note=82 velocity=79 time=0
EXTRACT: note_on channel=9 note=42 velocity=111 time=0
EXTRACT: note_on channel=9 note=38 velocity=127 time=0
EXTRACT: note_on channel=9 note=82 velocity=79 time=0
EXTRACT: note_on channel=9 note=56 velocity=95 time=0
EXTRACT: note_off channel=9 note=42 velocity=111 time=0.16853925
EXTRACT: note_off channel=9 note=38 velocity=127 time=0
EXTRACT: note_off channel=9 note=82 velocity=79 time=0
EXTRACT: note_off channel=9 note=56 velocity=95 time=0
EXTRACT: note_on channel=9 note=82 velocity=95 time=0
EXTRACT: note_off channel=9 note=82 velocity=95 time=0.16853925
EXTRACT: note_on channel=9 note=42 velocity=127 time=0
EXTRACT: note_on channel=8 note=33 velocity=95 time=0.16853925
EXTRACT: note_off channel=9 note=42 velocity=127 time=0
EXTRACT: note_on channel=9 note=82 velocity=95 time=0
EXTRACT: note_on channel=0 note=54 velocity=95 time=0.16853925
EXTRACT: note_on channel=0 note=47 velocity=95 time=0
EXTRACT: note_on channel=2 note=54 velocity=95 time=0
EXTRACT: note_on channel=2 note=47 velocity=95 time=0
EXTRACT: note_off channel=8 note=33 velocity=95 time=0
EXTRACT: note_on channel=8 note=35 velocity=111 time=0
EXTRACT: note_off channel=9 note=82 velocity=95 time=0
EXTRACT: note_on channel=9 note=42 velocity=127 time=0
EXTRACT: note_on channel=9 note=36 velocity=111 time=0
EXTRACT: note_on channel=9 note=56 velocity=95 time=0
EXTRACT: note_off channel=9 note=42 velocity=127 time=0.16853925
EXTRACT: note_off channel=9 note=36 velocity=111 time=0
EXTRACT: note_off channel=9 note=56 velocity=95 time=0
EXTRACT: note_on channel=9 note=82 velocity=95 time=0
EXTRACT: note_off channel=0 note=54 velocity=95 time=0.16853925
EXTRACT: note_off channel=0 note=47 velocity=95 time=0
EXTRACT: note_on channel=0 note=47 velocity=95 time=0
EXTRACT: note_off channel=2 note=54 velocity=95 time=0
EXTRACT: note_off channel=2 note=47 velocity=95 time=0
EXTRACT: note_on channel=2 note=47 velocity=95 time=0
EXTRACT: note_off channel=8 note=35 velocity=111 time=0
EXTRACT: note_on channel=8 note=28 velocity=95 time=0
EXTRACT: note_off channel=9 note=82 velocity=95 time=0
EXTRACT: note_on channel=9 note=42 velocity=111 time=0
EXTRACT: note_on channel=9 note=82 velocity=79 time=0
EXTRACT: note_on channel=9 note=36 velocity=111 time=0
EXTRACT: note_off channel=9 note=42 velocity=111 time=0.16853925
EXTRACT: note_off channel=9 note=82 velocity=79 time=0
EXTRACT: note_off channel=9 note=36 velocity=111 time=0
EXTRACT: note_off channel=0 note=47 velocity=95 time=0
EXTRACT: note_on channel=0 note=47 velocity=95 time=0
EXTRACT: note_on channel=0 note=40 velocity=95 time=0
EXTRACT: note_off channel=2 note=47 velocity=95 time=0
EXTRACT: note_on channel=2 note=47 velocity=95 time=0
EXTRACT: note_on channel=2 note=40 velocity=95 time=0
EXTRACT: note_off channel=8 note=28 velocity=95 time=0
EXTRACT: note_on channel=8 note=28 velocity=111 time=0
EXTRACT: note_on channel=9 note=56 velocity=95 time=0
EXTRACT: note_on channel=9 note=42 velocity=127 time=0
EXTRACT: note_on channel=9 note=36 velocity=111 time=0
EXTRACT: note_off channel=9 note=56 velocity=95 time=0.16853925
EXTRACT: note_off channel=9 note=42 velocity=127 time=0
EXTRACT: note_off channel=9 note=36 velocity=111 time=0
EXTRACT: note_off channel=0 note=47 velocity=95 time=0.16853925
EXTRACT: note_off channel=0 note=40 velocity=95 time=0
EXTRACT: note_on channel=0 note=47 velocity=95 time=0
EXTRACT: note_on channel=0 note=40 velocity=95 time=0
EXTRACT: note_off channel=2 note=47 velocity=95 time=0
EXTRACT: note_off channel=2 note=40 velocity=95 time=0
EXTRACT: note_on channel=2 note=47 velocity=95 time=0
EXTRACT: note_on channel=2 note=40 velocity=95 time=0
EXTRACT: note_off channel=8 note=28 velocity=111 time=0
EXTRACT: note_on channel=8 note=28 velocity=111 time=0
EXTRACT: note_on channel=9 note=36 velocity=111 time=0
EXTRACT: note_on channel=9 note=42 velocity=111 time=0
EXTRACT: note_off channel=9 note=36 velocity=111 time=0.16853925
EXTRACT: note_off channel=9 note=42 velocity=111 time=0
EXTRACT: note_off channel=0 note=47 velocity=95 time=0.16853925
EXTRACT: note_off channel=0 note=40 velocity=95 time=0
EXTRACT: note_off channel=2 note=47 velocity=95 time=0
EXTRACT: note_off channel=2 note=40 velocity=95 time=0
EXTRACT: note_off channel=8 note=28 velocity=111 time=0
EXTRACT: note_on channel=9 note=56 velocity=95 time=0
EXTRACT: note_on channel=9 note=42 velocity=111 time=0
EXTRACT: note_on channel=9 note=38 velocity=111 time=0
EXTRACT: note_off channel=9 note=56 velocity=95 time=0.16853925
EXTRACT: note_off channel=9 note=42 velocity=111 time=0
EXTRACT: note_off channel=9 note=38 velocity=111 time=0
EXTRACT: note_on channel=9 note=42 velocity=111 time=0.16853925
EXTRACT: note_off channel=9 note=42 velocity=111 time=0.16853925
EXTRACT: note_on channel=9 note=42 velocity=111 time=0.16853925
EXTRACT: note_on channel=9 note=36 velocity=111 time=0
EXTRACT: note_on channel=9 note=56 velocity=95 time=0
EXTRACT: note_off channel=9 note=42 velocity=111 time=0.16853925
EXTRACT: note_off channel=9 note=36 velocity=111 time=0
EXTRACT: note_off channel=9 note=56 velocity=95 time=0
EXTRACT: note_on channel=9 note=42 velocity=111 time=0.16853925
EXTRACT: note_on channel=9 note=36 velocity=111 time=0
EXTRACT: note_off channel=9 note=42 velocity=111 time=0.16853925
EXTRACT: note_off channel=9 note=36 velocity=111 time=0
EXTRACT: note_on channel=9 note=42 velocity=111 time=0.16853925
EXTRACT: note_on channel=9 note=38 velocity=127 time=0
EXTRACT: note_on channel=9 note=56 velocity=95 time=0
EXTRACT: note_off channel=9 note=42 velocity=111 time=0.16853925
EXTRACT: note_off channel=9 note=38 velocity=127 time=0
EXTRACT: note_off channel=9 note=56 velocity=95 time=0
EXTRACT: note_on channel=9 note=42 velocity=111 time=0.16853925
EXTRACT: note_on channel=8 note=28 velocity=95 time=0.16853925
EXTRACT: note_off channel=9 note=42 velocity=111 time=0
EXTRACT: note_on channel=0 note=47 velocity=95 time=0.16853925
EXTRACT: note_on channel=0 note=40 velocity=95 time=0
EXTRACT: note_on channel=2 note=64 velocity=95 time=0
EXTRACT: note_on channel=2 note=59 velocity=95 time=0
EXTRACT: note_on channel=2 note=52 velocity=95 time=0
EXTRACT: note_on channel=2 note=47 velocity=95 time=0
EXTRACT: note_on channel=2 note=40 velocity=95 time=0
EXTRACT: note_off channel=8 note=28 velocity=95 time=0
EXTRACT: note_on channel=8 note=28 velocity=111 time=0
EXTRACT: note_on channel=9 note=36 velocity=111 time=0
EXTRACT: note_on channel=9 note=42 velocity=111 time=0
EXTRACT: note_on channel=9 note=56 velocity=95 time=0
EXTRACT: note_off channel=9 note=36 velocity=111 time=0.16853925
EXTRACT: note_off channel=9 note=42 velocity=111 time=0
EXTRACT: note_off channel=9 note=56 velocity=95 time=0
EXTRACT: note_off channel=0 note=47 velocity=95 time=0.16853925
EXTRACT: note_off channel=0 note=40 velocity=95 time=0
EXTRACT: note_on channel=0 note=47 velocity=95 time=0
EXTRACT: note_on channel=0 note=40 velocity=95 time=0
EXTRACT: note_off channel=2 note=64 velocity=95 time=0
EXTRACT: note_off channel=2 note=59 velocity=95 time=0
EXTRACT: note_off channel=2 note=52 velocity=95 time=0
EXTRACT: note_off channel=2 note=47 velocity=95 time=0
EXTRACT: note_off channel=2 note=40 velocity=95 time=0
EXTRACT: note_on channel=2 note=64 velocity=95 time=0
EXTRACT: note_on channel=2 note=59 velocity=95 time=0
EXTRACT: note_on channel=2 note=52 velocity=95 time=0
EXTRACT: note_on channel=2 note=47 velocity=95 time=0
EXTRACT: note_on channel=2 note=40 velocity=95 time=0
EXTRACT: note_off channel=8 note=28 velocity=111 time=0
EXTRACT: note_on channel=8 note=28 velocity=111 time=0
EXTRACT: note_on channel=9 note=42 velocity=111 time=0
EXTRACT: note_on channel=9 note=36 velocity=111 time=0
EXTRACT: note_off channel=9 note=42 velocity=111 time=0.16853925
EXTRACT: note_off channel=9 note=36 velocity=111 time=0
EXTRACT: note_off channel=0 note=47 velocity=95 time=0.16853925
EXTRACT: note_off channel=0 note=40 velocity=95 time=0
EXTRACT: note_off channel=2 note=64 velocity=95 time=0
EXTRACT: note_off channel=2 note=59 velocity=95 time=0
EXTRACT: note_off channel=2 note=52 velocity=95 time=0
EXTRACT: note_off channel=2 note=47 velocity=95 time=0
EXTRACT: note_off channel=2 note=40 velocity=95 time=0
EXTRACT: note_off channel=8 note=28 velocity=111 time=0
EXTRACT: note_on channel=9 note=38 velocity=127 time=0
EXTRACT: note_on channel=9 note=42 velocity=111 time=0
EXTRACT: note_on channel=9 note=56 velocity=95 time=0
EXTRACT: note_off channel=9 note=38 velocity=127 time=0.16853925
EXTRACT: note_off channel=9 note=42 velocity=111 time=0
EXTRACT: note_off channel=9 note=56 velocity=95 time=0
EXTRACT: note_on channel=9 note=42 velocity=127 time=0.16853925
EXTRACT: note_off channel=9 note=42 velocity=127 time=0.16853925
EXTRACT: note_on channel=10 note=38 velocity=111 time=0.084269625
EXTRACT: pitchwheel channel=1 pitch=0 time=0.084269625
EXTRACT: note_on channel=1 note=50 velocity=95 time=0
EXTRACT: pitchwheel channel=3 pitch=0 time=0
EXTRACT: note_on channel=3 note=74 velocity=111 time=0
EXTRACT: pitchwheel channel=3 pitch=0 time=0
EXTRACT: note_on channel=3 note=62 velocity=95 time=0
EXTRACT: note_off channel=10 note=38 velocity=111 time=0
EXTRACT: note_on channel=10 note=40 velocity=111 time=0
EXTRACT: note_on channel=9 note=56 velocity=95 time=0
EXTRACT: note_on channel=9 note=42 velocity=127 time=0
EXTRACT: note_on channel=9 note=36 velocity=111 time=0
EXTRACT: pitchwheel channel=3 pitch=0 time=0.0421348125
EXTRACT: pitchwheel channel=1 pitch=0 time=0.028089875
EXTRACT: pitchwheel channel=3 pitch=0 time=0
EXTRACT: pitchwheel channel=3 pitch=0 time=0
EXTRACT: pitchwheel channel=1 pitch=128 time=0.000702246875
EXTRACT: pitchwheel channel=3 pitch=128 time=0
EXTRACT: pitchwheel channel=3 pitch=128 time=0
EXTRACT: pitchwheel channel=1 pitch=256 time=0.000702246875
EXTRACT: pitchwheel channel=3 pitch=256 time=0
EXTRACT: pitchwheel channel=3 pitch=256 time=0
EXTRACT: pitchwheel channel=1 pitch=384 time=0.000702246875
EXTRACT: pitchwheel channel=3 pitch=384 time=0
EXTRACT: pitchwheel channel=3 pitch=384 time=0
EXTRACT: pitchwheel channel=1 pitch=512 time=0.000702246875
EXTRACT: pitchwheel channel=3 pitch=512 time=0
EXTRACT: pitchwheel channel=3 pitch=512 time=0
EXTRACT: pitchwheel channel=1 pitch=640 time=0.000702246875
EXTRACT: pitchwheel channel=3 pitch=640 time=0
EXTRACT: pitchwheel channel=3 pitch=640 time=0
EXTRACT: pitchwheel channel=1 pitch=768 time=0.000702246875
EXTRACT: pitchwheel channel=3 pitch=768 time=0
EXTRACT: pitchwheel channel=3 pitch=768 time=0
EXTRACT: pitchwheel channel=1 pitch=896 time=0.000702246875
EXTRACT: pitchwheel channel=3 pitch=896 time=0
EXTRACT: pitchwheel channel=3 pitch=896 time=0
EXTRACT: pitchwheel channel=1 pitch=1024 time=0.000702246875
EXTRACT: pitchwheel channel=3 pitch=1024 time=0
EXTRACT: pitchwheel channel=3 pitch=1024 time=0
EXTRACT: pitchwheel channel=1 pitch=1152 time=0.000702246875
EXTRACT: pitchwheel channel=3 pitch=1152 time=0
EXTRACT: pitchwheel channel=3 pitch=1152 time=0
EXTRACT: pitchwheel channel=1 pitch=1280 time=0.000702246875
EXTRACT: pitchwheel channel=3 pitch=1280 time=0
EXTRACT: pitchwheel channel=3 pitch=1280 time=0
EXTRACT: pitchwheel channel=1 pitch=1408 time=0.000702246875
EXTRACT: pitchwheel channel=3 pitch=1408 time=0
EXTRACT: pitchwheel channel=3 pitch=1408 time=0
EXTRACT: pitchwheel channel=1 pitch=1408 time=0.0063202218749999995
EXTRACT: pitchwheel channel=3 pitch=1408 time=0
EXTRACT: pitchwheel channel=3 pitch=1408 time=0
EXTRACT: pitchwheel channel=1 pitch=1408 time=0.084269625
EXTRACT: pitchwheel channel=1 pitch=0 time=0
EXTRACT: note_off channel=1 note=50 velocity=95 time=0
EXTRACT: note_on channel=0 note=50 velocity=95 time=0
EXTRACT: pitchwheel channel=3 pitch=1408 time=0
EXTRACT: pitchwheel channel=3 pitch=0 time=0
EXTRACT: note_off channel=3 note=74 velocity=111 time=0
EXTRACT: pitchwheel channel=3 pitch=1408 time=0
EXTRACT: pitchwheel channel=3 pitch=0 time=0
EXTRACT: note_off channel=3 note=62 velocity=95 time=0
EXTRACT: note_on channel=2 note=74 velocity=111 time=0
EXTRACT: note_on channel=2 note=62 velocity=95 time=0
EXTRACT: note_off channel=10 note=40 velocity=111 time=0
EXTRACT: note_on channel=8 note=38 velocity=95 time=0
EXTRACT: note_off channel=9 note=56 velocity=95 time=0
EXTRACT: note_off channel=9 note=42 velocity=127 time=0
EXTRACT: note_off channel=9 note=36 velocity=111 time=0
EXTRACT: note_off channel=0 note=50 velocity=95 time=0.16853925
EXTRACT: note_on channel=0 note=47 velocity=95 time=0
EXTRACT: note_off channel=2 note=74 velocity=111 time=0
EXTRACT: note_off channel=2 note=62 velocity=95 time=0
EXTRACT: note_on channel=2 note=71 velocity=111 time=0
EXTRACT: note_on channel=2 note=59 velocity=95 time=0
EXTRACT: note_off channel=8 note=38 velocity=95 time=0
EXTRACT: note_on channel=8 note=35 velocity=95 time=0
EXTRACT: note_on channel=9 note=42 velocity=111 time=0
EXTRACT: note_on channel=9 note=36 velocity=111 time=0
EXTRACT: note_off channel=9 note=42 velocity=111 time=0.16853925
EXTRACT: note_off channel=9 note=36 velocity=111 time=0
EXTRACT: note_off channel=0 note=47 velocity=95 time=0.16853925
EXTRACT: note_on channel=0 note=45 velocity=95 time=0
EXTRACT: note_off channel=2 note=71 velocity=111 time=0
EXTRACT: note_off channel=2 note=59 velocity=95 time=0
EXTRACT: note_on channel=2 note=69 velocity=111 time=0
EXTRACT: note_on channel=2 note=57 velocity=95 time=0
EXTRACT: note_off channel=8 note=35 velocity=95 time=0
EXTRACT: note_on channel=8 note=33 velocity=111 time=0
EXTRACT: note_on channel=9 note=56 velocity=95 time=0
EXTRACT: note_on channel=9 note=42 velocity=127 time=0
EXTRACT: note_on channel=9 note=38 velocity=111 time=0
EXTRACT: note_off channel=0 note=45 velocity=95 time=0.16853925
EXTRACT: pitchwheel channel=1 pitch=0 time=0
EXTRACT: note_on channel=1 note=43 velocity=95 time=0
EXTRACT: note_off channel=2 note=69 velocity=111 time=0
EXTRACT: note_off channel=2 note=57 velocity=95 time=0
EXTRACT: pitchwheel channel=3 pitch=0 time=0
EXTRACT: note_on channel=3 note=67 velocity=111 time=0
EXTRACT: pitchwheel channel=3 pitch=0 time=0
EXTRACT: note_on channel=3 note=55 velocity=95 time=0
EXTRACT: note_off channel=8 note=33 velocity=111 time=0
EXTRACT: note_on channel=8 note=31 velocity=111 time=0
EXTRACT: note_off channel=9 note=56 velocity=95 time=0
EXTRACT: note_off channel=9 note=42 velocity=127 time=0
EXTRACT: note_off channel=9 note=38 velocity=111 time=0
EXTRACT: pitchwheel channel=1 pitch=0 time=0.1264044375
EXTRACT: pitchwheel channel=3 pitch=0 time=0
EXTRACT: pitchwheel channel=3 pitch=0 time=0
EXTRACT: note_on channel=9 note=42 velocity=127 time=0.0421348125
EXTRACT: note_on channel=9 note=41 velocity=127 time=0
EXTRACT: pitchwheel channel=1 pitch=128 time=0.02106740625
EXTRACT: pitchwheel channel=3 pitch=128 time=0
EXTRACT: pitchwheel channel=3 pitch=128 time=0
EXTRACT: pitchwheel channel=1 pitch=256 time=0.06320221875
EXTRACT: pitchwheel channel=1 pitch=256 time=0
EXTRACT: pitchwheel channel=3 pitch=256 time=0
EXTRACT: pitchwheel channel=3 pitch=256 time=0
EXTRACT: pitchwheel channel=3 pitch=256 time=0
EXTRACT: pitchwheel channel=3 pitch=256 time=0
EXTRACT: note_on channel=13 note=71 velocity=111 time=0.084269625
EXTRACT: note_on channel=4 note=59 velocity=111 time=0
EXTRACT: note_off channel=9 note=42 velocity=127 time=0
EXTRACT: note_off channel=9 note=41 velocity=127 time=0
EXTRACT: pitchwheel channel=1 pitch=256 time=0.16853925
EXTRACT: pitchwheel channel=1 pitch=0 time=0
EXTRACT: note_off channel=1 note=43 velocity=95 time=0
EXTRACT: note_on channel=0 note=47 velocity=95 time=0
EXTRACT: note_on channel=0 note=40 velocity=95 time=0
EXTRACT: pitchwheel channel=3 pitch=256 time=0
EXTRACT: pitchwheel channel=3 pitch=0 time=0
EXTRACT: note_off channel=3 note=67 velocity=111 time=0
EXTRACT: pitchwheel channel=3 pitch=256 time=0
EXTRACT: pitchwheel channel=3 pitch=0 time=0
EXTRACT: note_off channel=3 note=55 velocity=95 time=0
EXTRACT: note_on channel=2 note=47 velocity=95 time=0
EXTRACT: note_on channel=2 note=40 velocity=95 time=0
EXTRACT: note_off channel=8 note=31 velocity=111 time=0
EXTRACT: note_on channel=8 note=28 velocity=111 time=0
EXTRACT: note_off channel=13 note=71 velocity=111 time=0
EXTRACT: note_on channel=13 note=76 velocity=111 time=0
EXTRACT: note_off channel=4 note=59 velocity=111 time=0
EXTRACT: note_on channel=4 note=64 velocity=111 time=0
EXTRACT: note_on channel=9 note=56 velocity=95 time=0
EXTRACT: note_on channel=9 note=36 velocity=111 time=0
EXTRACT: note_on channel=9 note=42 velocity=127 time=0
EXTRACT: note_off channel=9 note=56 velocity=95 time=0.16853925
EXTRACT: note_off channel=9 note=36 velocity=111 time=0
EXTRACT: note_off channel=9 note=42 velocity=127 time=0
EXTRACT: note_off channel=0 note=47 velocity=95 time=0.16853925
EXTRACT: note_off channel=0 note=40 velocity=95 time=0
EXTRACT: note_on channel=0 note=47 velocity=95 time=0
EXTRACT: note_on channel=0 note=40 velocity=95 time=0
EXTRACT: note_off channel=2 note=47 velocity=95 time=0
EXTRACT: note_off channel=2 note=40 velocity=95 time=0
EXTRACT: note_on channel=2 note=47 velocity=95 time=0
EXTRACT: note_on channel=2 note=40 velocity=95 time=0
EXTRACT: note_off channel=8 note=28 velocity=111 time=0
EXTRACT: note_on channel=8 note=28 velocity=111 time=0
EXTRACT: note_off channel=13 note=76 velocity=111 time=0
EXTRACT: note_on channel=13 note=74 velocity=111 time=0
EXTRACT: note_off channel=4 note=64 velocity=111 time=0
EXTRACT: note_on channel=4 note=62 velocity=111 time=0
EXTRACT: note_on channel=9 note=36 velocity=111 time=0
EXTRACT: note_on channel=9 note=42 velocity=111 time=0
EXTRACT: note_off channel=13 note=74 velocity=111 time=0.16853925
EXTRACT: note_off channel=4 note=62 velocity=111 time=0
EXTRACT: note_off channel=9 note=36 velocity=111 time=0
EXTRACT: note_off channel=9 note=42 velocity=111 time=0
EXTRACT: note_off channel=0 note=47 velocity=95 time=0.16853925
EXTRACT: note_off channel=0 note=40 velocity=95 time=0
EXTRACT: note_off channel=2 note=47 velocity=95 time=0
EXTRACT: note_off channel=2 note=40 velocity=95 time=0
EXTRACT: note_off channel=8 note=28 velocity=111 time=0
EXTRACT: note_on channel=13 note=71 velocity=111 time=0
EXTRACT: note_on channel=4 note=59 velocity=111 time=0
EXTRACT: note_on channel=9 note=38 velocity=111 time=0
EXTRACT: note_on channel=9 note=56 velocity=95 time=0
EXTRACT: note_on channel=9 note=42 velocity=111 time=0
EXTRACT: note_off channel=9 note=38 velocity=111 time=0.16853925
EXTRACT: note_off channel=9 note=56 velocity=95 time=0
EXTRACT: note_off channel=9 note=42 velocity=111 time=0
EXTRACT: note_off channel=13 note=71 velocity=111 time=0.16853925
EXTRACT: note_on channel=13 note=67 velocity=111 time=0
EXTRACT: note_off channel=4 note=59 velocity=111 time=0
EXTRACT: note_on channel=4 note=55 velocity=111 time=0
EXTRACT: note_on channel=9 note=42 velocity=111 time=0
EXTRACT: note_off channel=13 note=67 velocity=111 time=0.16853925
EXTRACT: note_on channel=13 note=69 velocity=111 time=0
EXTRACT: note_off channel=4 note=55 velocity=111 time=0
EXTRACT: note_on channel=4 note=57 velocity=111 time=0
EXTRACT: note_off channel=9 note=42 velocity=111 time=0
EXTRACT: note_on channel=9 note=56 velocity=95 time=0.16853925
EXTRACT: note_on channel=9 note=42 velocity=111 time=0
EXTRACT: note_on channel=9 note=36 velocity=111 time=0
EXTRACT: note_off channel=13 note=69 velocity=111 time=0.16853925
EXTRACT: note_off channel=4 note=57 velocity=111 time=0
EXTRACT: note_off channel=9 note=56 velocity=95 time=0
EXTRACT: note_off channel=9 note=42 velocity=111 time=0
EXTRACT: note_off channel=9 note=36 velocity=111 time=0
EXTRACT: note_on channel=13 note=69 velocity=111 time=0.16853925
EXTRACT: note_on channel=4 note=57 velocity=111 time=0
EXTRACT: note_on channel=9 note=42 velocity=111 time=0
EXTRACT: note_on channel=9 note=36 velocity=111 time=0
EXTRACT: note_off channel=13 note=69 velocity=111 time=0.16853925
EXTRACT: note_on channel=13 note=69 velocity=111 time=0
EXTRACT: note_off channel=4 note=57 velocity=111 time=0
EXTRACT: note_on channel=4 note=57 velocity=111 time=0
EXTRACT: note_off channel=9 note=42 velocity=111 time=0
EXTRACT: note_off channel=9 note=36 velocity=111 time=0
EXTRACT: note_off channel=13 note=69 velocity=111 time=0.16853925
EXTRACT: note_on channel=13 note=69 velocity=111 time=0
EXTRACT: note_off channel=4 note=57 velocity=111 time=0
EXTRACT: note_on channel=4 note=57 velocity=111 time=0
EXTRACT: note_on channel=9 note=42 velocity=111 time=0
EXTRACT: note_on channel=9 note=38 velocity=127 time=0
EXTRACT: note_on channel=9 note=56 velocity=95 time=0
EXTRACT: note_off channel=13 note=69 velocity=111 time=0.16853925
EXTRACT: note_on channel=13 note=69 velocity=111 time=0
EXTRACT: note_off channel=4 note=57 velocity=111 time=0
EXTRACT: note_on channel=4 note=57 velocity=111 time=0
EXTRACT: note_off channel=9 note=42 velocity=111 time=0
EXTRACT: note_off channel=9 note=38 velocity=127 time=0
EXTRACT: note_off channel=9 note=56 velocity=95 time=0
EXTRACT: note_off channel=13 note=69 velocity=111 time=0.16853925
EXTRACT: note_on channel=13 note=67 velocity=111 time=0
EXTRACT: note_off channel=4 note=57 velocity=111 time=0
EXTRACT: note_on channel=4 note=55 velocity=111 time=0
EXTRACT: note_on channel=9 note=42 velocity=111 time=0
EXTRACT: note_on channel=8 note=28 velocity=95 time=0.16853925
EXTRACT: note_off channel=9 note=42 velocity=111 time=0
EXTRACT: note_on channel=0 note=52 velocity=95 time=0.16853925
EXTRACT: note_on channel=0 note=47 velocity=95 time=0
EXTRACT: note_on channel=0 note=40 velocity=95 time=0
EXTRACT: note_on channel=2 note=52 velocity=95 time=0
EXTRACT: note_on channel=2 note=47 velocity=95 time=0
EXTRACT: note_on channel=2 note=40 velocity=95 time=0
EXTRACT: note_off channel=8 note=28 velocity=95 time=0
EXTRACT: note_on channel=8 note=28 velocity=111 time=0
EXTRACT: note_off channel=13 note=67 velocity=111 time=0
EXTRACT: note_on channel=13 note=71 velocity=111 time=0
EXTRACT: note_off channel=4 note=55 velocity=111 time=0
EXTRACT: note_on channel=4 note=59 velocity=111 time=0
EXTRACT: note_on channel=9 note=56 velocity=95 time=0
EXTRACT: note_on channel=9 note=42 velocity=111 time=0
EXTRACT: note_on channel=9 note=36 velocity=111 time=0
EXTRACT: note_off channel=9 note=56 velocity=95 time=0.16853925
EXTRACT: note_off channel=9 note=42 velocity=111 time=0
EXTRACT: note_off channel=9 note=36 velocity=111 time=0
EXTRACT: note_off channel=0 note=52 velocity=95 time=0.16853925
EXTRACT: note_off channel=0 note=47 velocity=95 time=0
EXTRACT: note_off channel=0 note=40 velocity=95 time=0
EXTRACT: note_on channel=0 note=52 velocity=95 time=0
EXTRACT: note_on channel=0 note=47 velocity=95 time=0
EXTRACT: note_on channel=0 note=40 velocity=95 time=0
EXTRACT: note_off channel=2 note=52 velocity=95 time=0
EXTRACT: note_off channel=2 note=47 velocity=95 time=0
EXTRACT: note_off channel=2 note=40 velocity=95 time=0
EXTRACT: note_on channel=2 note=52 velocity=95 time=0
EXTRACT: note_on channel=2 note=47 velocity=95 time=0
EXTRACT: note_on channel=2 note=40 velocity=95 time=0
EXTRACT: note_off channel=8 note=28 velocity=111 time=0
EXTRACT: note_on channel=8 note=28 velocity=111 time=0
EXTRACT: note_on channel=9 note=36 velocity=111 time=0
EXTRACT: note_on channel=9 note=42 velocity=111 time=0
EXTRACT: note_off channel=9 note=36 velocity=111 time=0.16853925
EXTRACT: note_off channel=9 note=42 velocity=111 time=0
EXTRACT: note_off channel=0 note=52 velocity=95 time=0.16853925
EXTRACT: note_off channel=0 note=47 velocity=95 time=0
EXTRACT: note_off channel=0 note=40 velocity=95 time=0
EXTRACT: note_off channel=2 note=52 velocity=95 time=0
EXTRACT: note_off channel=2 note=47 velocity=95 time=0
EXTRACT: note_off channel=2 note=40 velocity=95 time=0
EXTRACT: note_off channel=8 note=28 velocity=111 time=0
EXTRACT: note_off channel=13 note=71 velocity=111 time=0
EXTRACT: note_off channel=4 note=59 velocity=111 time=0
EXTRACT: note_on channel=9 note=56 velocity=95 time=0
EXTRACT: note_on channel=9 note=42 velocity=111 time=0
EXTRACT: note_on channel=9 note=38 velocity=127 time=0
EXTRACT: note_off channel=9 note=56 velocity=95 time=0.16853925
EXTRACT: note_off channel=9 note=42 velocity=111 time=0
EXTRACT: note_off channel=9 note=38 velocity=127 time=0
EXTRACT: note_on channel=9 note=42 velocity=127 time=0.16853925
EXTRACT: note_off channel=9 note=42 velocity=127 time=0.16853925
EXTRACT: note_on channel=10 note=38 velocity=111 time=0.084269625
EXTRACT: pitchwheel channel=1 pitch=0 time=0.084269625
EXTRACT: note_on channel=1 note=50 velocity=95 time=0
EXTRACT: pitchwheel channel=3 pitch=0 time=0
EXTRACT: note_on channel=3 note=74 velocity=111 time=0
EXTRACT: pitchwheel channel=3 pitch=0 time=0
EXTRACT: note_on channel=3 note=62 velocity=95 time=0
EXTRACT: note_off channel=10 note=38 velocity=111 time=0
EXTRACT: note_on channel=10 note=40 velocity=111 time=0
EXTRACT: note_on channel=9 note=36 velocity=111 time=0
EXTRACT: note_on channel=9 note=56 velocity=95 time=0
EXTRACT: note_on channel=9 note=42 velocity=127 time=0
EXTRACT: pitchwheel channel=3 pitch=0 time=0.0421348125
EXTRACT: pitchwheel channel=1 pitch=0 time=0.028089875
EXTRACT: pitchwheel channel=3 pitch=0 time=0
EXTRACT: pitchwheel channel=3 pitch=0 time=0
EXTRACT: pitchwheel channel=1 pitch=128 time=0.000702246875
EXTRACT: pitchwheel channel=3 pitch=128 time=0
EXTRACT: pitchwheel channel=3 pitch=128 time=0
EXTRACT: pitchwheel channel=1 pitch=256 time=0.000702246875
EXTRACT: pitchwheel channel=3 pitch=256 time=0
EXTRACT: pitchwheel channel=3 pitch=256 time=0
EXTRACT: pitchwheel channel=1 pitch=384 time=0.000702246875
EXTRACT: pitchwheel channel=3 pitch=384 time=0
EXTRACT: pitchwheel channel=3 pitch=384 time=0
EXTRACT: pitchwheel channel=1 pitch=512 time=0.000702246875
EXTRACT: pitchwheel channel=3 pitch=512 time=0
EXTRACT: pitchwheel channel=3 pitch=512 time=0
EXTRACT: pitchwheel channel=1 pitch=640 time=0.000702246875
EXTRACT: pitchwheel channel=3 pitch=640 time=0
EXTRACT: pitchwheel channel=3 pitch=640 time=0
EXTRACT: pitchwheel channel=1 pitch=768 time=0.000702246875
EXTRACT: pitchwheel channel=3 pitch=768 time=0
EXTRACT: pitchwheel channel=3 pitch=768 time=0
EXTRACT: pitchwheel channel=1 pitch=896 time=0.000702246875
EXTRACT: pitchwheel channel=3 pitch=896 time=0
EXTRACT: pitchwheel channel=3 pitch=896 time=0
EXTRACT: pitchwheel channel=1 pitch=1024 time=0.000702246875
EXTRACT: pitchwheel channel=3 pitch=1024 time=0
EXTRACT: pitchwheel channel=3 pitch=1024 time=0
EXTRACT: pitchwheel channel=1 pitch=1152 time=0.000702246875
EXTRACT: pitchwheel channel=3 pitch=1152 time=0
EXTRACT: pitchwheel channel=3 pitch=1152 time=0
EXTRACT: pitchwheel channel=1 pitch=1280 time=0.000702246875
EXTRACT: pitchwheel channel=3 pitch=1280 time=0
EXTRACT: pitchwheel channel=3 pitch=1280 time=0
EXTRACT: pitchwheel channel=1 pitch=1408 time=0.000702246875
EXTRACT: pitchwheel channel=3 pitch=1408 time=0
EXTRACT: pitchwheel channel=3 pitch=1408 time=0
EXTRACT: pitchwheel channel=1 pitch=1408 time=0.0063202218749999995
EXTRACT: pitchwheel channel=3 pitch=1408 time=0
EXTRACT: pitchwheel channel=3 pitch=1408 time=0
EXTRACT: pitchwheel channel=1 pitch=1408 time=0.084269625
EXTRACT: pitchwheel channel=1 pitch=0 time=0
EXTRACT: note_off channel=1 note=50 velocity=95 time=0
EXTRACT: note_on channel=0 note=50 velocity=95 time=0
EXTRACT: pitchwheel channel=3 pitch=1408 time=0
EXTRACT: pitchwheel channel=3 pitch=0 time=0
EXTRACT: note_off channel=3 note=74 velocity=111 time=0
EXTRACT: pitchwheel channel=3 pitch=1408 time=0
EXTRACT: pitchwheel channel=3 pitch=0 time=0
EXTRACT: note_off channel=3 note=62 velocity=95 time=0
EXTRACT: note_on channel=2 note=74 velocity=111 time=0
EXTRACT: note_on channel=2 note=62 velocity=95 time=0
EXTRACT: note_off channel=10 note=40 velocity=111 time=0
EXTRACT: note_on channel=8 note=38 velocity=95 time=0
EXTRACT: note_off channel=9 note=36 velocity=111 time=0
EXTRACT: note_off channel=9 note=56 velocity=95 time=0
EXTRACT: note_off channel=9 note=42 velocity=127 time=0
EXTRACT: note_off channel=0 note=50 velocity=95 time=0.16853925
EXTRACT: note_on channel=0 note=47 velocity=95 time=0
EXTRACT: note_off channel=2 note=74 velocity=111 time=0
EXTRACT: note_off channel=2 note=62 velocity=95 time=0
EXTRACT: note_on channel=2 note=71 velocity=111 time=0
EXTRACT: note_on channel=2 note=59 velocity=95 time=0
EXTRACT: note_off channel=8 note=38 velocity=95 time=0
EXTRACT: note_on channel=8 note=35 velocity=95 time=0
EXTRACT: note_on channel=9 note=36 velocity=111 time=0
EXTRACT: note_on channel=9 note=42 velocity=111 time=0
EXTRACT: note_off channel=9 note=36 velocity=111 time=0.16853925
EXTRACT: note_off channel=9 note=42 velocity=111 time=0
EXTRACT: note_off channel=0 note=47 velocity=95 time=0.16853925
EXTRACT: note_on channel=0 note=45 velocity=95 time=0
EXTRACT: note_off channel=2 note=71 velocity=111 time=0
EXTRACT: note_off channel=2 note=59 velocity=95 time=0
EXTRACT: note_on channel=2 note=69 velocity=111 time=0
EXTRACT: note_on channel=2 note=57 velocity=95 time=0
EXTRACT: note_off channel=8 note=35 velocity=95 time=0
EXTRACT: note_on channel=8 note=33 velocity=111 time=0
EXTRACT: note_on channel=9 note=56 velocity=95 time=0
EXTRACT: note_on channel=9 note=38 velocity=111 time=0
EXTRACT: note_on channel=9 note=42 velocity=127 time=0
EXTRACT: note_off channel=0 note=45 velocity=95 time=0.16853925
EXTRACT: pitchwheel channel=1 pitch=0 time=0
EXTRACT: note_on channel=1 note=43 velocity=95 time=0
EXTRACT: note_off channel=2 note=69 velocity=111 time=0
EXTRACT: note_off channel=2 note=57 velocity=95 time=0
EXTRACT: pitchwheel channel=3 pitch=0 time=0
EXTRACT: note_on channel=3 note=67 velocity=111 time=0
EXTRACT: pitchwheel channel=3 pitch=0 time=0
EXTRACT: note_on channel=3 note=55 velocity=95 time=0
EXTRACT: note_off channel=8 note=33 velocity=111 time=0
EXTRACT: note_on channel=8 note=31 velocity=111 time=0
EXTRACT: note_off channel=9 note=56 velocity=95 time=0
EXTRACT: note_off channel=9 note=38 velocity=111 time=0
EXTRACT: note_off channel=9 note=42 velocity=127 time=0
EXTRACT: pitchwheel channel=1 pitch=0 time=0.1264044375
EXTRACT: pitchwheel channel=3 pitch=0 time=0
EXTRACT: pitchwheel channel=3 pitch=0 time=0
EXTRACT: note_on channel=9 note=41 velocity=127 time=0.0421348125
EXTRACT: note_on channel=9 note=42 velocity=127 time=0
EXTRACT: pitchwheel channel=1 pitch=128 time=0.02106740625
EXTRACT: pitchwheel channel=3 pitch=128 time=0
EXTRACT: pitchwheel channel=3 pitch=128 time=0
EXTRACT: pitchwheel channel=1 pitch=256 time=0.06320221875
EXTRACT: pitchwheel channel=1 pitch=256 time=0
EXTRACT: pitchwheel channel=3 pitch=256 time=0
EXTRACT: pitchwheel channel=3 pitch=256 time=0
EXTRACT: pitchwheel channel=3 pitch=256 time=0
EXTRACT: pitchwheel channel=3 pitch=256 time=0
EXTRACT: note_on channel=13 note=71 velocity=95 time=0.084269625
EXTRACT: note_on channel=4 note=59 velocity=95 time=0
EXTRACT: note_off channel=9 note=41 velocity=127 time=0
EXTRACT: note_off channel=9 note=42 velocity=127 time=0
EXTRACT: pitchwheel channel=1 pitch=256 time=0.16853925
EXTRACT: pitchwheel channel=1 pitch=0 time=0
EXTRACT: note_off channel=1 note=43 velocity=95 time=0
EXTRACT: note_on channel=0 note=47 velocity=95 time=0
EXTRACT: note_on channel=0 note=40 velocity=95 time=0
EXTRACT: pitchwheel channel=3 pitch=256 time=0
EXTRACT: pitchwheel channel=3 pitch=0 time=0
EXTRACT: note_off channel=3 note=67 velocity=111 time=0
EXTRACT: pitchwheel channel=3 pitch=256 time=0
EXTRACT: pitchwheel channel=3 pitch=0 time=0
EXTRACT: note_off channel=3 note=55 velocity=95 time=0
EXTRACT: note_on channel=2 note=52 velocity=95 time=0
EXTRACT: note_on channel=2 note=47 velocity=95 time=0
EXTRACT: note_on channel=2 note=40 velocity=95 time=0
EXTRACT: note_off channel=8 note=31 velocity=111 time=0
EXTRACT: note_on channel=8 note=28 velocity=111 time=0
EXTRACT: note_off channel=13 note=71 velocity=95 time=0
EXTRACT: note_on channel=13 note=76 velocity=127 time=0
EXTRACT: note_off channel=4 note=59 velocity=95 time=0
EXTRACT: note_on channel=4 note=64 velocity=127 time=0
EXTRACT: note_on channel=9 note=56 velocity=95 time=0
EXTRACT: note_on channel=9 note=36 velocity=111 time=0
EXTRACT: note_on channel=9 note=42 velocity=127 time=0
EXTRACT: note_off channel=13 note=76 velocity=127 time=0.16853925
EXTRACT: note_off channel=4 note=64 velocity=127 time=0
EXTRACT: note_off channel=9 note=56 velocity=95 time=0
EXTRACT: note_off channel=9 note=36 velocity=111 time=0
EXTRACT: note_off channel=9 note=42 velocity=127 time=0
EXTRACT: note_off channel=0 note=47 velocity=95 time=0.16853925
EXTRACT: note_off channel=0 note=40 velocity=95 time=0
EXTRACT: note_on channel=0 note=47 velocity=95 time=0
EXTRACT: note_on channel=0 note=40 velocity=95 time=0
EXTRACT: note_off channel=2 note=52 velocity=95 time=0
EXTRACT: note_off channel=2 note=47 velocity=95 time=0
EXTRACT: note_off channel=2 note=40 velocity=95 time=0
EXTRACT: note_on channel=2 note=52 velocity=95 time=0
EXTRACT: note_on channel=2 note=47 velocity=95 time=0
EXTRACT: note_on channel=2 note=40 velocity=95 time=0
EXTRACT: note_off channel=8 note=28 velocity=111 time=0
EXTRACT: note_on channel=8 note=28 velocity=111 time=0
EXTRACT: note_on channel=13 note=74 velocity=111 time=0
EXTRACT: note_on channel=4 note=62 velocity=111 time=0
EXTRACT: note_on channel=9 note=36 velocity=111 time=0
EXTRACT: note_on channel=9 note=42 velocity=111 time=0
EXTRACT: note_off channel=13 note=74 velocity=111 time=0.16853925
EXTRACT: note_off channel=4 note=62 velocity=111 time=0
EXTRACT: note_off channel=9 note=36 velocity=111 time=0
EXTRACT: note_off channel=9 note=42 velocity=111 time=0
EXTRACT: note_off channel=0 note=47 velocity=95 time=0.16853925
EXTRACT: note_off channel=0 note=40 velocity=95 time=0
EXTRACT: note_off channel=2 note=52 velocity=95 time=0
EXTRACT: note_off channel=2 note=47 velocity=95 time=0
EXTRACT: note_off channel=2 note=40 velocity=95 time=0
EXTRACT: note_off channel=8 note=28 velocity=111 time=0
EXTRACT: note_on channel=13 note=71 velocity=111 time=0
EXTRACT: note_on channel=4 note=59 velocity=111 time=0
EXTRACT: note_on channel=9 note=56 velocity=95 time=0
EXTRACT: note_on channel=9 note=38 velocity=111 time=0
EXTRACT: note_on channel=9 note=42 velocity=111 time=0
EXTRACT: note_off channel=13 note=71 velocity=111 time=0.16853925
EXTRACT: note_off channel=4 note=59 velocity=111 time=0
EXTRACT: note_off channel=9 note=56 velocity=95 time=0
EXTRACT: note_off channel=9 note=38 velocity=111 time=0
EXTRACT: note_off channel=9 note=42 velocity=111 time=0
EXTRACT: note_on channel=13 note=67 velocity=111 time=0.16853925
EXTRACT: note_on channel=4 note=55 velocity=111 time=0
EXTRACT: note_on channel=9 note=42 velocity=111 time=0
EXTRACT: note_off channel=13 note=67 velocity=111 time=0.16853925
EXTRACT: note_on channel=13 note=69 velocity=111 time=0
EXTRACT: note_off channel=4 note=55 velocity=111 time=0
EXTRACT: note_on channel=4 note=57 velocity=111 time=0
EXTRACT: note_off channel=9 note=42 velocity=111 time=0
EXTRACT: note_on channel=9 note=56 velocity=95 time=0.16853925
EXTRACT: note_on channel=9 note=42 velocity=111 time=0
EXTRACT: note_on channel=9 note=36 velocity=111 time=0
EXTRACT: note_off channel=13 note=69 velocity=111 time=0.16853925
EXTRACT: note_on channel=13 note=69 velocity=95 time=0
EXTRACT: note_off channel=4 note=57 velocity=111 time=0
EXTRACT: note_on channel=4 note=57 velocity=95 time=0
EXTRACT: note_off channel=9 note=56 velocity=95 time=0
EXTRACT: note_off channel=9 note=42 velocity=111 time=0
EXTRACT: note_off channel=9 note=36 velocity=111 time=0
EXTRACT: note_off channel=13 note=69 velocity=95 time=0.16853925
EXTRACT: note_on channel=13 note=69 velocity=111 time=0
EXTRACT: note_off channel=4 note=57 velocity=95 time=0
EXTRACT: note_on channel=4 note=57 velocity=111 time=0
EXTRACT: note_on channel=9 note=42 velocity=111 time=0
EXTRACT: note_on channel=9 note=36 velocity=111 time=0
EXTRACT: note_off channel=13 note=69 velocity=111 time=0.16853925
EXTRACT: note_off channel=4 note=57 velocity=111 time=0
EXTRACT: note_off channel=9 note=42 velocity=111 time=0
EXTRACT: note_off channel=9 note=36 velocity=111 time=0
EXTRACT: note_on channel=13 note=74 velocity=111 time=0.16853925
EXTRACT: note_on channel=4 note=62 velocity=111 time=0
EXTRACT: note_on channel=9 note=42 velocity=111 time=0
EXTRACT: note_on channel=9 note=38 velocity=127 time=0
EXTRACT: note_on channel=9 note=56 velocity=95 time=0
EXTRACT: note_off channel=13 note=74 velocity=111 time=0.16853925
EXTRACT: note_on channel=13 note=69 velocity=111 time=0
EXTRACT: note_off channel=4 note=62 velocity=111 time=0
EXTRACT: note_on channel=4 note=57 velocity=111 time=0
EXTRACT: note_off channel=9 note=42 velocity=111 time=0
EXTRACT: note_off channel=9 note=38 velocity=127 time=0
EXTRACT: note_off channel=9 note=56 velocity=95 time=0
EXTRACT: note_on channel=9 note=42 velocity=111 time=0.16853925
EXTRACT: note_on channel=8 note=33 velocity=95 time=0.16853925
EXTRACT: note_off channel=9 note=42 velocity=111 time=0
EXTRACT: note_on channel=0 note=54 velocity=95 time=0.16853925
EXTRACT: note_on channel=0 note=47 velocity=95 time=0
EXTRACT: note_on channel=2 note=54 velocity=95 time=0
EXTRACT: note_on channel=2 note=47 velocity=95 time=0
EXTRACT: note_off channel=8 note=33 velocity=95 time=0
EXTRACT: note_on channel=8 note=35 velocity=111 time=0
EXTRACT: note_off channel=13 note=69 velocity=111 time=0
EXTRACT: note_on channel=13 note=71 velocity=111 time=0
EXTRACT: note_off channel=4 note=57 velocity=111 time=0
EXTRACT: note_on channel=4 note=59 velocity=111 time=0
EXTRACT: note_on channel=9 note=56 velocity=95 time=0
EXTRACT: note_on channel=9 note=42 velocity=111 time=0
EXTRACT: note_on channel=9 note=36 velocity=111 time=0
EXTRACT: note_off channel=9 note=56 velocity=95 time=0.16853925
EXTRACT: note_off channel=9 note=42 velocity=111 time=0
EXTRACT: note_off channel=9 note=36 velocity=111 time=0
EXTRACT: note_off channel=0 note=54 velocity=95 time=0.16853925
EXTRACT: note_off channel=0 note=47 velocity=95 time=0
EXTRACT: note_on channel=0 note=54 velocity=95 time=0
EXTRACT: note_on channel=0 note=47 velocity=95 time=0
EXTRACT: note_off channel=2 note=54 velocity=95 time=0
EXTRACT: note_off channel=2 note=47 velocity=95 time=0
EXTRACT: note_on channel=2 note=54 velocity=95 time=0
EXTRACT: note_on channel=2 note=47 velocity=95 time=0
EXTRACT: note_off channel=8 note=35 velocity=111 time=0
EXTRACT: note_on channel=8 note=35 velocity=111 time=0
EXTRACT: note_on channel=9 note=36 velocity=111 time=0
EXTRACT: note_on channel=9 note=42 velocity=111 time=0
EXTRACT: note_off channel=9 note=36 velocity=111 time=0.16853925
EXTRACT: note_off channel=9 note=42 velocity=111 time=0
EXTRACT: note_off channel=0 note=54 velocity=95 time=0.16853925
EXTRACT: note_off channel=0 note=47 velocity=95 time=0
EXTRACT: note_off channel=2 note=54 velocity=95 time=0
EXTRACT: note_off channel=2 note=47 velocity=95 time=0
EXTRACT: note_off channel=8 note=35 velocity=111 time=0
EXTRACT: note_off channel=13 note=71 velocity=111 time=0
EXTRACT: note_off channel=4 note=59 velocity=111 time=0
EXTRACT: note_on channel=9 note=56 velocity=95 time=0
EXTRACT: note_on channel=9 note=42 velocity=111 time=0
EXTRACT: note_on channel=9 note=38 velocity=127 time=0
EXTRACT: note_off channel=9 note=56 velocity=95 time=0.16853925
EXTRACT: note_off channel=9 note=42 velocity=111 time=0
EXTRACT: note_off channel=9 note=38 velocity=127 time=0
EXTRACT: note_on channel=9 note=42 velocity=127 time=0.16853925
EXTRACT: note_off channel=9 note=42 velocity=127 time=0.16853925
EXTRACT: note_on channel=10 note=38 velocity=111 time=0.084269625
EXTRACT: pitchwheel channel=1 pitch=0 time=0.084269625
EXTRACT: note_on channel=1 note=50 velocity=95 time=0
EXTRACT: pitchwheel channel=3 pitch=0 time=0
EXTRACT: note_on channel=3 note=74 velocity=111 time=0
EXTRACT: pitchwheel channel=3 pitch=0 time=0
EXTRACT: note_on channel=3 note=62 velocity=95 time=0
EXTRACT: note_off channel=10 note=38 velocity=111 time=0
EXTRACT: note_on channel=10 note=40 velocity=111 time=0
EXTRACT: note_on channel=9 note=36 velocity=111 time=0
EXTRACT: note_on channel=9 note=56 velocity=95 time=0
EXTRACT: note_on channel=9 note=42 velocity=127 time=0
EXTRACT: pitchwheel channel=3 pitch=0 time=0.0421348125
EXTRACT: pitchwheel channel=1 pitch=0 time=0.028089875
EXTRACT: pitchwheel channel=3 pitch=0 time=0
EXTRACT: pitchwheel channel=3 pitch=0 time=0
EXTRACT: pitchwheel channel=1 pitch=128 time=0.000702246875
EXTRACT: pitchwheel channel=3 pitch=128 time=0
EXTRACT: pitchwheel channel=3 pitch=128 time=0
EXTRACT: pitchwheel channel=1 pitch=256 time=0.000702246875
EXTRACT: pitchwheel channel=3 pitch=256 time=0
EXTRACT: pitchwheel channel=3 pitch=256 time=0
EXTRACT: pitchwheel channel=1 pitch=384 time=0.000702246875
EXTRACT: pitchwheel channel=3 pitch=384 time=0
EXTRACT: pitchwheel channel=3 pitch=384 time=0
EXTRACT: pitchwheel channel=1 pitch=512 time=0.000702246875
EXTRACT: pitchwheel channel=3 pitch=512 time=0
EXTRACT: pitchwheel channel=3 pitch=512 time=0
EXTRACT: pitchwheel channel=1 pitch=640 time=0.000702246875
EXTRACT: pitchwheel channel=3 pitch=640 time=0
EXTRACT: pitchwheel channel=3 pitch=640 time=0
EXTRACT: pitchwheel channel=1 pitch=768 time=0.000702246875
EXTRACT: pitchwheel channel=3 pitch=768 time=0
EXTRACT: pitchwheel channel=3 pitch=768 time=0
EXTRACT: pitchwheel channel=1 pitch=896 time=0.000702246875
EXTRACT: pitchwheel channel=3 pitch=896 time=0
EXTRACT: pitchwheel channel=3 pitch=896 time=0
EXTRACT: pitchwheel channel=1 pitch=1024 time=0.000702246875
EXTRACT: pitchwheel channel=3 pitch=1024 time=0
EXTRACT: pitchwheel channel=3 pitch=1024 time=0
EXTRACT: pitchwheel channel=1 pitch=1152 time=0.000702246875
EXTRACT: pitchwheel channel=3 pitch=1152 time=0
EXTRACT: pitchwheel channel=3 pitch=1152 time=0
EXTRACT: pitchwheel channel=1 pitch=1280 time=0.000702246875
EXTRACT: pitchwheel channel=3 pitch=1280 time=0
EXTRACT: pitchwheel channel=3 pitch=1280 time=0
EXTRACT: pitchwheel channel=1 pitch=1408 time=0.000702246875
EXTRACT: pitchwheel channel=3 pitch=1408 time=0
EXTRACT: pitchwheel channel=3 pitch=1408 time=0
EXTRACT: pitchwheel channel=1 pitch=1408 time=0.0063202218749999995
EXTRACT: pitchwheel channel=3 pitch=1408 time=0
EXTRACT: pitchwheel channel=3 pitch=1408 time=0
EXTRACT: pitchwheel channel=1 pitch=1408 time=0.084269625
EXTRACT: pitchwheel channel=1 pitch=0 time=0
EXTRACT: note_off channel=1 note=50 velocity=95 time=0
EXTRACT: note_on channel=0 note=50 velocity=95 time=0
EXTRACT: pitchwheel channel=3 pitch=1408 time=0
EXTRACT: pitchwheel channel=3 pitch=0 time=0
EXTRACT: note_off channel=3 note=74 velocity=111 time=0
EXTRACT: pitchwheel channel=3 pitch=1408 time=0
EXTRACT: pitchwheel channel=3 pitch=0 time=0
EXTRACT: note_off channel=3 note=62 velocity=95 time=0
EXTRACT: note_on channel=2 note=74 velocity=111 time=0
EXTRACT: note_on channel=2 note=62 velocity=95 time=0
EXTRACT: note_off channel=10 note=40 velocity=111 time=0
EXTRACT: note_on channel=8 note=38 velocity=95 time=0
EXTRACT: note_off channel=9 note=36 velocity=111 time=0
EXTRACT: note_off channel=9 note=56 velocity=95 time=0
EXTRACT: note_off channel=9 note=42 velocity=127 time=0
EXTRACT: note_off channel=0 note=50 velocity=95 time=0.16853925
EXTRACT: note_on channel=0 note=47 velocity=95 time=0
EXTRACT: note_off channel=2 note=74 velocity=111 time=0
EXTRACT: note_off channel=2 note=62 velocity=95 time=0
EXTRACT: note_on channel=2 note=71 velocity=111 time=0
EXTRACT: note_on channel=2 note=59 velocity=95 time=0
EXTRACT: note_off channel=8 note=38 velocity=95 time=0
EXTRACT: note_on channel=8 note=35 velocity=95 time=0
EXTRACT: note_on channel=9 note=36 velocity=111 time=0
EXTRACT: note_on channel=9 note=42 velocity=111 time=0
EXTRACT: note_off channel=9 note=36 velocity=111 time=0.16853925
EXTRACT: note_off channel=9 note=42 velocity=111 time=0
EXTRACT: note_off channel=0 note=47 velocity=95 time=0.16853925
EXTRACT: note_on channel=0 note=45 velocity=95 time=0
EXTRACT: note_off channel=2 note=71 velocity=111 time=0
EXTRACT: note_off channel=2 note=59 velocity=95 time=0
EXTRACT: note_on channel=2 note=69 velocity=111 time=0
EXTRACT: note_on channel=2 note=57 velocity=95 time=0
EXTRACT: note_off channel=8 note=35 velocity=95 time=0
EXTRACT: note_on channel=8 note=33 velocity=111 time=0
EXTRACT: note_on channel=9 note=56 velocity=95 time=0
EXTRACT: note_on channel=9 note=38 velocity=111 time=0
EXTRACT: note_on channel=9 note=42 velocity=127 time=0
EXTRACT: note_off channel=0 note=45 velocity=95 time=0.16853925
EXTRACT: pitchwheel channel=1 pitch=0 time=0
EXTRACT: note_on channel=1 note=43 velocity=95 time=0
EXTRACT: note_off channel=2 note=69 velocity=111 time=0
EXTRACT: note_off channel=2 note=57 velocity=95 time=0
EXTRACT: pitchwheel channel=3 pitch=0 time=0
EXTRACT: note_on channel=3 note=67 velocity=111 time=0
EXTRACT: pitchwheel channel=3 pitch=0 time=0
EXTRACT: note_on channel=3 note=55 velocity=95 time=0
EXTRACT: note_off channel=8 note=33 velocity=111 time=0
EXTRACT: note_on channel=8 note=31 velocity=111 time=0
EXTRACT: note_off channel=9 note=56 velocity=95 time=0
EXTRACT: note_off channel=9 note=38 velocity=111 time=0
EXTRACT: note_off channel=9 note=42 velocity=127 time=0
EXTRACT: pitchwheel channel=1 pitch=0 time=0.1264044375
EXTRACT: pitchwheel channel=3 pitch=0 time=0
EXTRACT: pitchwheel channel=3 pitch=0 time=0
EXTRACT: note_on channel=9 note=41 velocity=127 time=0.0421348125
EXTRACT: note_on channel=9 note=42 velocity=127 time=0
EXTRACT: pitchwheel channel=1 pitch=128 time=0.02106740625
EXTRACT: pitchwheel channel=3 pitch=128 time=0
EXTRACT: pitchwheel channel=3 pitch=128 time=0
EXTRACT: pitchwheel channel=1 pitch=256 time=0.06320221875
EXTRACT: pitchwheel channel=1 pitch=256 time=0
EXTRACT: pitchwheel channel=3 pitch=256 time=0
EXTRACT: pitchwheel channel=3 pitch=256 time=0
EXTRACT: pitchwheel channel=3 pitch=256 time=0
EXTRACT: pitchwheel channel=3 pitch=256 time=0
EXTRACT: note_on channel=13 note=67 velocity=111 time=0.084269625
EXTRACT: note_on channel=4 note=55 velocity=111 time=0
EXTRACT: note_off channel=9 note=41 velocity=127 time=0
EXTRACT: note_off channel=9 note=42 velocity=127 time=0
EXTRACT: pitchwheel channel=1 pitch=256 time=0.16853925
EXTRACT: pitchwheel channel=1 pitch=0 time=0
EXTRACT: note_off channel=1 note=43 velocity=95 time=0
EXTRACT: note_on channel=0 note=52 velocity=95 time=0
EXTRACT: note_on channel=0 note=45 velocity=95 time=0
EXTRACT: pitchwheel channel=3 pitch=256 time=0
EXTRACT: pitchwheel channel=3 pitch=0 time=0
EXTRACT: note_off channel=3 note=67 velocity=111 time=0
EXTRACT: pitchwheel channel=3 pitch=256 time=0
EXTRACT: pitchwheel channel=3 pitch=0 time=0
EXTRACT: note_off channel=3 note=55 velocity=95 time=0
EXTRACT: note_on channel=2 note=52 velocity=95 time=0
EXTRACT: note_on channel=2 note=45 velocity=95 time=0
EXTRACT: note_off channel=8 note=31 velocity=111 time=0
EXTRACT: note_on channel=8 note=33 velocity=111 time=0
EXTRACT: note_off channel=13 note=67 velocity=111 time=0
EXTRACT: note_on channel=13 note=69 velocity=127 time=0
EXTRACT: note_off channel=4 note=55 velocity=111 time=0
EXTRACT: note_on channel=4 note=57 velocity=127 time=0
EXTRACT: note_on channel=9 note=56 velocity=95 time=0
EXTRACT: note_on channel=9 note=36 velocity=111 time=0
EXTRACT: note_on channel=9 note=42 velocity=127 time=0
EXTRACT: note_off channel=9 note=56 velocity=95 time=0.16853925
EXTRACT: note_off channel=9 note=36 velocity=111 time=0
EXTRACT: note_off channel=9 note=42 velocity=127 time=0
EXTRACT: note_off channel=0 note=52 velocity=95 time=0.16853925
EXTRACT: note_off channel=0 note=45 velocity=95 time=0
EXTRACT: note_on channel=0 note=52 velocity=95 time=0
EXTRACT: note_on channel=0 note=45 velocity=95 time=0
EXTRACT: note_off channel=2 note=52 velocity=95 time=0
EXTRACT: note_off channel=2 note=45 velocity=95 time=0
EXTRACT: note_on channel=2 note=52 velocity=95 time=0
EXTRACT: note_on channel=2 note=45 velocity=95 time=0
EXTRACT: note_off channel=8 note=33 velocity=111 time=0
EXTRACT: note_on channel=8 note=33 velocity=111 time=0
EXTRACT: note_off channel=13 note=69 velocity=127 time=0
EXTRACT: note_on channel=13 note=69 velocity=111 time=0
EXTRACT: note_off channel=4 note=57 velocity=127 time=0
EXTRACT: note_on channel=4 note=57 velocity=111 time=0
EXTRACT: note_on channel=9 note=42 velocity=111 time=0
EXTRACT: note_on channel=9 note=36 velocity=111 time=0
EXTRACT: note_off channel=13 note=69 velocity=111 time=0.16853925
EXTRACT: note_off channel=4 note=57 velocity=111 time=0
EXTRACT: note_off channel=9 note=42 velocity=111 time=0
EXTRACT: note_off channel=9 note=36 velocity=111 time=0
EXTRACT: note_off channel=0 note=52 velocity=95 time=0.16853925
EXTRACT: note_off channel=0 note=45 velocity=95 time=0
EXTRACT: note_off channel=2 note=52 velocity=95 time=0
EXTRACT: note_off channel=2 note=45 velocity=95 time=0
EXTRACT: note_off channel=8 note=33 velocity=111 time=0
EXTRACT: note_on channel=13 note=69 velocity=127 time=0
EXTRACT: note_on channel=4 note=57 velocity=127 time=0
EXTRACT: note_on channel=9 note=38 velocity=111 time=0
EXTRACT: note_on channel=9 note=56 velocity=95 time=0
EXTRACT: note_on channel=9 note=42 velocity=111 time=0
EXTRACT: note_off channel=13 note=69 velocity=127 time=0.16853925
EXTRACT: note_on channel=13 note=67 velocity=111 time=0
EXTRACT: note_off channel=4 note=57 velocity=127 time=0
EXTRACT: note_on channel=4 note=55 velocity=111 time=0
EXTRACT: note_off channel=9 note=38 velocity=111 time=0
EXTRACT: note_off channel=9 note=56 velocity=95 time=0
EXTRACT: note_off channel=9 note=42 velocity=111 time=0
EXTRACT: note_off channel=13 note=67 velocity=111 time=0.16853925
EXTRACT: note_off channel=4 note=55 velocity=111 time=0
EXTRACT: note_on channel=9 note=42 velocity=111 time=0
EXTRACT: note_on channel=8 note=33 velocity=95 time=0.16853925
EXTRACT: note_on channel=13 note=71 velocity=95 time=0
EXTRACT: note_on channel=4 note=59 velocity=95 time=0
EXTRACT: note_off channel=9 note=42 velocity=111 time=0
EXTRACT: note_on channel=0 note=54 velocity=95 time=0.16853925
EXTRACT: note_on channel=0 note=47 velocity=95 time=0
EXTRACT: note_on channel=2 note=54 velocity=95 time=0
EXTRACT: note_on channel=2 note=47 velocity=95 time=0
EXTRACT: note_off channel=8 note=33 velocity=95 time=0
EXTRACT: note_on channel=8 note=35 velocity=111 time=0
EXTRACT: note_on channel=9 note=42 velocity=111 time=0
EXTRACT: note_on channel=9 note=36 velocity=111 time=0
EXTRACT: note_on channel=9 note=56 velocity=95 time=0
EXTRACT: note_off channel=9 note=42 velocity=111 time=0.16853925
EXTRACT: note_off channel=9 note=36 velocity=111 time=0
EXTRACT: note_off channel=9 note=56 velocity=95 time=0
EXTRACT: note_off channel=0 note=54 velocity=95 time=0.16853925
EXTRACT: note_off channel=0 note=47 velocity=95 time=0
EXTRACT: note_on channel=0 note=54 velocity=95 time=0
EXTRACT: note_on channel=0 note=47 velocity=95 time=0
EXTRACT: note_off channel=2 note=54 velocity=95 time=0
EXTRACT: note_off channel=2 note=47 velocity=95 time=0
EXTRACT: note_on channel=2 note=54 velocity=95 time=0
EXTRACT: note_on channel=2 note=47 velocity=95 time=0
EXTRACT: note_off channel=8 note=35 velocity=111 time=0
EXTRACT: note_on channel=8 note=35 velocity=111 time=0
EXTRACT: note_on channel=9 note=36 velocity=111 time=0
EXTRACT: note_on channel=9 note=42 velocity=111 time=0
EXTRACT: note_off channel=9 note=36 velocity=111 time=0.16853925
EXTRACT: note_off channel=9 note=42 velocity=111 time=0
EXTRACT: note_off channel=0 note=54 velocity=95 time=0.16853925
EXTRACT: note_off channel=0 note=47 velocity=95 time=0
EXTRACT: note_off channel=2 note=54 velocity=95 time=0
EXTRACT: note_off channel=2 note=47 velocity=95 time=0
EXTRACT: note_off channel=8 note=35 velocity=111 time=0
EXTRACT: note_off channel=13 note=71 velocity=95 time=0
EXTRACT: note_off channel=4 note=59 velocity=95 time=0
EXTRACT: note_on channel=9 note=42 velocity=111 time=0
EXTRACT: note_on channel=9 note=38 velocity=127 time=0
EXTRACT: note_on channel=9 note=56 velocity=95 time=0
EXTRACT: note_off channel=9 note=42 velocity=111 time=0.16853925
EXTRACT: note_off channel=9 note=38 velocity=127 time=0
EXTRACT: note_off channel=9 note=56 velocity=95 time=0
EXTRACT: note_on channel=9 note=42 velocity=111 time=0.16853925
EXTRACT: note_off channel=9 note=42 velocity=111 time=0.16853925
EXTRACT: note_on channel=0 note=47 velocity=95 time=0
EXTRACT: note_on channel=0 note=40 velocity=95 time=0
EXTRACT: note_on channel=2 note=47 velocity=95 time=0
EXTRACT: note_on channel=2 note=40 velocity=95 time=0
EXTRACT: note_on channel=8 note=28 velocity=111 time=0
EXTRACT: note_on channel=13 note=76 velocity=111 time=0
EXTRACT: note_on channel=4 note=64 velocity=111 time=0
EXTRACT: note_on channel=9 note=42 velocity=111 time=0
EXTRACT: note_on channel=9 note=56 velocity=95 time=0
EXTRACT: note_on channel=9 note=36 velocity=111 time=0
EXTRACT: note_off channel=13 note=76 velocity=111 time=0.16853925
EXTRACT: note_on channel=13 note=76 velocity=95 time=0
EXTRACT: note_off channel=4 note=64 velocity=111 time=0
EXTRACT: note_on channel=4 note=64 velocity=95 time=0
EXTRACT: note_off channel=9 note=42 velocity=111 time=0
EXTRACT: note_off channel=9 note=56 velocity=95 time=0
EXTRACT: note_off channel=9 note=36 velocity=111 time=0
EXTRACT: note_off channel=0 note=47 velocity=95 time=0.16853925
EXTRACT: note_off channel=0 note=40 velocity=95 time=0
EXTRACT: note_on channel=0 note=47 velocity=95 time=0
EXTRACT: note_on channel=0 note=40 velocity=95 time=0
EXTRACT: note_off channel=2 note=47 velocity=95 time=0
EXTRACT: note_off channel=2 note=40 velocity=95 time=0
EXTRACT: note_on channel=2 note=47 velocity=95 time=0
EXTRACT: note_on channel=2 note=40 velocity=95 time=0
EXTRACT: note_off channel=8 note=28 velocity=111 time=0
EXTRACT: note_on channel=8 note=28 velocity=111 time=0
EXTRACT: note_off channel=13 note=76 velocity=95 time=0
EXTRACT: note_on channel=13 note=74 velocity=111 time=0
EXTRACT: note_off channel=4 note=64 velocity=95 time=0
EXTRACT: note_on channel=4 note=62 velocity=111 time=0
EXTRACT: note_on channel=9 note=36 velocity=111 time=0
EXTRACT: note_on channel=9 note=42 velocity=111 time=0
EXTRACT: note_off channel=9 note=36 velocity=111 time=0.16853925
EXTRACT: note_off channel=9 note=42 velocity=111 time=0
EXTRACT: note_off channel=0 note=47 velocity=95 time=0.16853925
EXTRACT: note_off channel=0 note=40 velocity=95 time=0
EXTRACT: note_off channel=2 note=47 velocity=95 time=0
EXTRACT: note_off channel=2 note=40 velocity=95 time=0
EXTRACT: note_off channel=8 note=28 velocity=111 time=0
EXTRACT: note_off channel=13 note=74 velocity=111 time=0
EXTRACT: note_on channel=13 note=71 velocity=111 time=0
EXTRACT: note_off channel=4 note=62 velocity=111 time=0
EXTRACT: note_on channel=4 note=59 velocity=111 time=0
EXTRACT: note_on channel=9 note=38 velocity=127 time=0
EXTRACT: note_on channel=9 note=42 velocity=111 time=0
EXTRACT: note_on channel=9 note=56 velocity=95 time=0
EXTRACT: note_off channel=13 note=71 velocity=111 time=0.16853925
EXTRACT: note_on channel=13 note=71 velocity=111 time=0
EXTRACT: note_off channel=4 note=59 velocity=111 time=0
EXTRACT: note_on channel=4 note=59 velocity=111 time=0
EXTRACT: note_off channel=9 note=38 velocity=127 time=0
EXTRACT: note_off channel=9 note=42 velocity=111 time=0
EXTRACT: note_off channel=9 note=56 velocity=95 time=0
EXTRACT: note_off channel=13 note=71 velocity=111 time=0.16853925
EXTRACT: note_on channel=13 note=67 velocity=111 time=0
EXTRACT: note_off channel=4 note=59 velocity=111 time=0
EXTRACT: note_on channel=4 note=55 velocity=111 time=0
EXTRACT: note_on channel=9 note=42 velocity=127 time=0
EXTRACT: note_on channel=8 note=31 velocity=95 time=0.16853925
EXTRACT: note_off channel=9 note=42 velocity=127 time=0
EXTRACT: note_on channel=0 note=52 velocity=95 time=0
EXTRACT: note_on channel=0 note=45 velocity=95 time=0
EXTRACT: note_on channel=2 note=52 velocity=95 time=0
EXTRACT: note_on channel=2 note=45 velocity=95 time=0
EXTRACT: note_off channel=8 note=31 velocity=95 time=0
EXTRACT: note_on channel=8 note=33 velocity=111 time=0
EXTRACT: note_off channel=13 note=67 velocity=111 time=0
EXTRACT: note_on channel=13 note=69 velocity=111 time=0
EXTRACT: note_off channel=4 note=55 velocity=111 time=0
EXTRACT: note_on channel=4 note=57 velocity=111 time=0
EXTRACT: note_on channel=9 note=56 velocity=95 time=0
EXTRACT: note_on channel=9 note=42 velocity=127 time=0
EXTRACT: note_on channel=9 note=36 velocity=111 time=0
EXTRACT: note_off channel=9 note=56 velocity=95 time=0.16853925
EXTRACT: note_off channel=9 note=42 velocity=127 time=0
EXTRACT: note_off channel=9 note=36 velocity=111 time=0
EXTRACT: note_off channel=0 note=52 velocity=95 time=0.16853925
EXTRACT: note_off channel=0 note=45 velocity=95 time=0
EXTRACT: note_on channel=0 note=52 velocity=95 time=0
EXTRACT: note_on channel=0 note=45 velocity=95 time=0
EXTRACT: note_off channel=2 note=52 velocity=95 time=0
EXTRACT: note_off channel=2 note=45 velocity=95 time=0
EXTRACT: note_on channel=2 note=52 velocity=95 time=0
EXTRACT: note_on channel=2 note=45 velocity=95 time=0
EXTRACT: note_off channel=13 note=69 velocity=111 time=0
EXTRACT: note_on channel=13 note=67 velocity=70 time=0
EXTRACT: note_off channel=4 note=57 velocity=111 time=0
EXTRACT: note_on channel=4 note=55 velocity=70 time=0
EXTRACT: note_on channel=9 note=42 velocity=111 time=0
EXTRACT: note_on channel=9 note=36 velocity=111 time=0
EXTRACT: note_off channel=9 note=42 velocity=111 time=0.16853925
EXTRACT: note_off channel=9 note=36 velocity=111 time=0
EXTRACT: note_off channel=13 note=67 velocity=70 time=0.16853925
EXTRACT: note_on channel=13 note=69 velocity=86 time=0
EXTRACT: note_off channel=4 note=55 velocity=70 time=0
EXTRACT: note_on channel=4 note=57 velocity=86 time=0
EXTRACT: note_on channel=9 note=56 velocity=95 time=0
EXTRACT: note_on channel=9 note=42 velocity=127 time=0
EXTRACT: note_on channel=9 note=38 velocity=111 time=0
EXTRACT: note_off channel=9 note=56 velocity=95 time=0.16853925
EXTRACT: note_off channel=9 note=42 velocity=127 time=0
EXTRACT: note_off channel=9 note=38 velocity=111 time=0
EXTRACT: note_off channel=13 note=69 velocity=86 time=0.16853925
EXTRACT: note_on channel=13 note=67 velocity=70 time=0
EXTRACT: note_off channel=4 note=57 velocity=86 time=0
EXTRACT: note_on channel=4 note=55 velocity=70 time=0
EXTRACT: note_on channel=9 note=42 velocity=127 time=0
EXTRACT: note_on channel=9 note=41 velocity=127 time=0
EXTRACT: note_off channel=9 note=42 velocity=127 time=0.16853925
EXTRACT: note_off channel=9 note=41 velocity=127 time=0
EXTRACT: note_off channel=13 note=67 velocity=70 time=0.16853925
EXTRACT: note_on channel=13 note=69 velocity=86 time=0
EXTRACT: note_off channel=4 note=55 velocity=70 time=0
EXTRACT: note_on channel=4 note=57 velocity=86 time=0
EXTRACT: note_on channel=9 note=42 velocity=127 time=0
EXTRACT: note_on channel=9 note=36 velocity=111 time=0
EXTRACT: note_on channel=9 note=56 velocity=95 time=0
EXTRACT: note_off channel=9 note=42 velocity=127 time=0.16853925
EXTRACT: note_off channel=9 note=36 velocity=111 time=0
EXTRACT: note_off channel=9 note=56 velocity=95 time=0
EXTRACT: note_on channel=9 note=42 velocity=111 time=0.16853925
EXTRACT: note_on channel=9 note=36 velocity=111 time=0
EXTRACT: note_off channel=9 note=42 velocity=111 time=0.16853925
EXTRACT: note_off channel=9 note=36 velocity=111 time=0
EXTRACT: note_off channel=13 note=69 velocity=86 time=0.16853925
EXTRACT: note_off channel=4 note=57 velocity=86 time=0
EXTRACT: note_on channel=9 note=42 velocity=111 time=0
EXTRACT: note_on channel=9 note=56 velocity=95 time=0
EXTRACT: note_on channel=9 note=38 velocity=111 time=0
EXTRACT: note_off channel=9 note=42 velocity=111 time=0.16853925
EXTRACT: note_off channel=9 note=56 velocity=95 time=0
EXTRACT: note_off channel=9 note=38 velocity=111 time=0
EXTRACT: note_on channel=13 note=69 velocity=111 time=0.16853925
EXTRACT: note_on channel=4 note=57 velocity=111 time=0
EXTRACT: note_on channel=9 note=42 velocity=111 time=0
EXTRACT: note_off channel=13 note=69 velocity=111 time=0.16853925
EXTRACT: note_on channel=13 note=69 velocity=111 time=0
EXTRACT: note_off channel=4 note=57 velocity=111 time=0
EXTRACT: note_on channel=4 note=57 velocity=111 time=0
EXTRACT: note_off channel=9 note=42 velocity=111 time=0
EXTRACT: note_off channel=13 note=69 velocity=111 time=0.16853925
EXTRACT: note_on channel=13 note=71 velocity=111 time=0
EXTRACT: note_off channel=4 note=57 velocity=111 time=0
EXTRACT: note_on channel=4 note=59 velocity=111 time=0
EXTRACT: note_on channel=9 note=36 velocity=111 time=0
EXTRACT: note_on channel=9 note=56 velocity=95 time=0
EXTRACT: note_on channel=9 note=42 velocity=111 time=0
EXTRACT: note_off channel=13 note=71 velocity=111 time=0.16853925
EXTRACT: note_off channel=4 note=59 velocity=111 time=0
EXTRACT: note_off channel=9 note=36 velocity=111 time=0
EXTRACT: note_off channel=9 note=56 velocity=95 time=0
EXTRACT: note_off channel=9 note=42 velocity=111 time=0
EXTRACT: note_on channel=13 note=71 velocity=111 time=0.16853925
EXTRACT: note_on channel=4 note=59 velocity=111 time=0
EXTRACT: note_on channel=9 note=36 velocity=111 time=0
EXTRACT: note_on channel=9 note=42 velocity=111 time=0
EXTRACT: note_off channel=13 note=71 velocity=111 time=0.16853925
EXTRACT: note_off channel=4 note=59 velocity=111 time=0
EXTRACT: note_off channel=9 note=36 velocity=111 time=0
EXTRACT: note_off channel=9 note=42 velocity=111 time=0
EXTRACT: note_on channel=13 note=74 velocity=111 time=0.16853925
EXTRACT: note_on channel=4 note=62 velocity=111 time=0
EXTRACT: note_on channel=9 note=42 velocity=111 time=0
EXTRACT: note_on channel=9 note=38 velocity=127 time=0
EXTRACT: note_on channel=9 note=56 velocity=95 time=0
EXTRACT: note_off channel=13 note=74 velocity=111 time=0.16853925
EXTRACT: note_on channel=13 note=74 velocity=95 time=0
EXTRACT: note_off channel=4 note=62 velocity=111 time=0
EXTRACT: note_on channel=4 note=62 velocity=95 time=0
EXTRACT: note_off channel=9 note=42 velocity=111 time=0
EXTRACT: note_off channel=9 note=38 velocity=127 time=0
EXTRACT: note_off channel=9 note=56 velocity=95 time=0
EXTRACT: note_off channel=13 note=74 velocity=95 time=0.16853925
EXTRACT: note_on channel=13 note=71 velocity=111 time=0
EXTRACT: note_off channel=4 note=62 velocity=95 time=0
EXTRACT: note_on channel=4 note=59 velocity=111 time=0
EXTRACT: note_on channel=9 note=42 velocity=111 time=0
EXTRACT: note_off channel=13 note=71 velocity=111 time=0.16853925
EXTRACT: note_on channel=13 note=69 velocity=95 time=0
EXTRACT: note_off channel=4 note=59 velocity=111 time=0
EXTRACT: note_on channel=4 note=57 velocity=70 time=0
EXTRACT: note_off channel=9 note=42 velocity=111 time=0
EXTRACT: note_on channel=9 note=42 velocity=111 time=0.16853925
EXTRACT: note_on channel=9 note=36 velocity=111 time=0
EXTRACT: note_on channel=9 note=56 velocity=95 time=0
EXTRACT: note_off channel=13 note=69 velocity=95 time=0.16853925
EXTRACT: note_off channel=4 note=57 velocity=70 time=0
EXTRACT: note_off channel=9 note=42 velocity=111 time=0
EXTRACT: note_off channel=9 note=36 velocity=111 time=0
EXTRACT: note_off channel=9 note=56 velocity=95 time=0
EXTRACT: note_on channel=9 note=42 velocity=111 time=0.16853925
EXTRACT: note_on channel=9 note=36 velocity=111 time=0
EXTRACT: note_on channel=13 note=69 velocity=111 time=0.16853925
EXTRACT: note_on channel=4 note=57 velocity=111 time=0
EXTRACT: note_off channel=9 note=42 velocity=111 time=0
EXTRACT: note_off channel=9 note=36 velocity=111 time=0
EXTRACT: note_off channel=13 note=69 velocity=111 time=0.16853925
EXTRACT: note_on channel=13 note=69 velocity=111 time=0
EXTRACT: note_off channel=4 note=57 velocity=111 time=0
EXTRACT: note_on channel=4 note=57 velocity=111 time=0
EXTRACT: note_on channel=9 note=42 velocity=111 time=0
EXTRACT: note_on channel=9 note=38 velocity=127 time=0
EXTRACT: note_on channel=9 note=56 velocity=95 time=0
EXTRACT: note_off channel=9 note=42 velocity=111 time=0.16853925
EXTRACT: note_off channel=9 note=38 velocity=127 time=0
EXTRACT: note_off channel=9 note=56 velocity=95 time=0
EXTRACT: note_off channel=13 note=69 velocity=111 time=0.16853925
EXTRACT: note_on channel=13 note=67 velocity=95 time=0
EXTRACT: note_off channel=4 note=57 velocity=111 time=0
EXTRACT: note_on channel=4 note=55 velocity=95 time=0
EXTRACT: note_on channel=9 note=42 velocity=127 time=0
EXTRACT: note_on channel=9 note=41 velocity=127 time=0
EXTRACT: note_off channel=9 note=42 velocity=127 time=0.16853925
EXTRACT: note_off channel=9 note=41 velocity=127 time=0
EXTRACT: note_off channel=0 note=52 velocity=95 time=0.16853925
EXTRACT: note_off channel=0 note=45 velocity=95 time=0
EXTRACT: note_off channel=2 note=52 velocity=95 time=0
EXTRACT: note_off channel=2 note=45 velocity=95 time=0
EXTRACT: note_off channel=8 note=33 velocity=111 time=0
EXTRACT: note_off channel=13 note=67 velocity=95 time=0
EXTRACT: note_on channel=13 note=71 velocity=111 time=0
EXTRACT: note_off channel=4 note=55 velocity=95 time=0
EXTRACT: note_on channel=4 note=59 velocity=111 time=0
EXTRACT: note_on channel=9 note=42 velocity=127 time=0
EXTRACT: note_on channel=9 note=56 velocity=95 time=0
EXTRACT: note_on channel=9 note=36 velocity=111 time=0
EXTRACT: note_off channel=9 note=42 velocity=127 time=0.16853925
EXTRACT: note_off channel=9 note=56 velocity=95 time=0
EXTRACT: note_off channel=9 note=36 velocity=111 time=0
EXTRACT: note_off channel=13 note=71 velocity=111 time=0.16853925
EXTRACT: note_off channel=4 note=59 velocity=111 time=0
EXTRACT: note_on channel=9 note=36 velocity=111 time=0
EXTRACT: note_on channel=9 note=42 velocity=111 time=0
EXTRACT: note_off channel=9 note=36 velocity=111 time=0.16853925
EXTRACT: note_off channel=9 note=42 velocity=111 time=0
EXTRACT: note_on channel=13 note=74 velocity=111 time=0.16853925
EXTRACT: note_on channel=4 note=62 velocity=111 time=0
EXTRACT: note_on channel=15 note=74 velocity=95 time=0
EXTRACT: note_on channel=15 note=62 velocity=95 time=0
EXTRACT: note_on channel=9 note=38 velocity=111 time=0
EXTRACT: note_on channel=9 note=42 velocity=111 time=0
EXTRACT: note_on channel=9 note=56 velocity=95 time=0
EXTRACT: note_off channel=9 note=38 velocity=111 time=0.16853925
EXTRACT: note_off channel=9 note=42 velocity=111 time=0
EXTRACT: note_off channel=9 note=56 velocity=95 time=0
EXTRACT: note_off channel=13 note=74 velocity=111 time=0.16853925
EXTRACT: note_off channel=4 note=62 velocity=111 time=0
EXTRACT: note_off channel=15 note=74 velocity=95 time=0
EXTRACT: note_off channel=15 note=62 velocity=95 time=0
EXTRACT: note_on channel=9 note=42 velocity=111 time=0
EXTRACT: note_on channel=13 note=71 velocity=95 time=0.16853925
EXTRACT: note_on channel=4 note=59 velocity=95 time=0
EXTRACT: note_on channel=15 note=71 velocity=111 time=0
EXTRACT: note_on channel=15 note=59 velocity=111 time=0
EXTRACT: note_off channel=9 note=42 velocity=111 time=0
EXTRACT: note_on channel=9 note=42 velocity=111 time=0.16853925
EXTRACT: note_on channel=9 note=36 velocity=111 time=0
EXTRACT: note_on channel=9 note=56 velocity=95 time=0
EXTRACT: note_off channel=9 note=42 velocity=111 time=0.16853925
EXTRACT: note_off channel=9 note=36 velocity=111 time=0
EXTRACT: note_off channel=9 note=56 velocity=95 time=0
EXTRACT: note_off channel=13 note=71 velocity=95 time=0.16853925
EXTRACT: note_off channel=4 note=59 velocity=95 time=0
EXTRACT: note_off channel=15 note=71 velocity=111 time=0
EXTRACT: note_off channel=15 note=59 velocity=111 time=0
EXTRACT: note_on channel=9 note=36 velocity=111 time=0
EXTRACT: note_on channel=9 note=42 velocity=111 time=0
EXTRACT: note_off channel=9 note=36 velocity=111 time=0.16853925
EXTRACT: note_off channel=9 note=42 velocity=111 time=0
EXTRACT: note_on channel=9 note=38 velocity=127 time=0.16853925
EXTRACT: note_on channel=9 note=42 velocity=111 time=0
EXTRACT: note_on channel=9 note=56 velocity=95 time=0
EXTRACT: note_off channel=9 note=38 velocity=127 time=0.16853925
EXTRACT: note_off channel=9 note=42 velocity=111 time=0
EXTRACT: note_off channel=9 note=56 velocity=95 time=0
EXTRACT: note_on channel=13 note=69 velocity=111 time=0.16853925
EXTRACT: note_on channel=4 note=57 velocity=111 time=0
EXTRACT: note_on channel=9 note=42 velocity=111 time=0
EXTRACT: note_off channel=13 note=69 velocity=111 time=0.16853925
EXTRACT: note_on channel=13 note=69 velocity=95 time=0
EXTRACT: note_off channel=4 note=57 velocity=111 time=0
EXTRACT: note_on channel=4 note=57 velocity=95 time=0
EXTRACT: note_off channel=9 note=42 velocity=111 time=0
EXTRACT: note_off channel=13 note=69 velocity=95 time=0.16853925
EXTRACT: note_on channel=13 note=71 velocity=111 time=0
EXTRACT: note_off channel=4 note=57 velocity=95 time=0
EXTRACT: note_on channel=4 note=59 velocity=111 time=0
EXTRACT: note_on channel=9 note=42 velocity=127 time=0
EXTRACT: note_on channel=9 note=56 velocity=95 time=0
EXTRACT: note_on channel=9 note=36 velocity=111 time=0
EXTRACT: note_off channel=9 note=42 velocity=127 time=0.16853925
EXTRACT: note_off channel=9 note=56 velocity=95 time=0
EXTRACT: note_off channel=9 note=36 velocity=111 time=0
EXTRACT: note_off channel=13 note=71 velocity=111 time=0.16853925
EXTRACT: note_on channel=13 note=71 velocity=111 time=0
EXTRACT: note_off channel=4 note=59 velocity=111 time=0
EXTRACT: note_on channel=4 note=59 velocity=111 time=0
EXTRACT: note_on channel=9 note=36 velocity=111 time=0
EXTRACT: note_on channel=9 note=42 velocity=111 time=0
EXTRACT: note_off channel=13 note=71 velocity=111 time=0.16853925
EXTRACT: note_off channel=4 note=59 velocity=111 time=0
EXTRACT: note_off channel=9 note=36 velocity=111 time=0
EXTRACT: note_off channel=9 note=42 velocity=111 time=0
EXTRACT: note_on channel=13 note=74 velocity=111 time=0.16853925
EXTRACT: note_on channel=4 note=62 velocity=95 time=0
EXTRACT: note_on channel=9 note=38 velocity=111 time=0
EXTRACT: note_on channel=9 note=42 velocity=111 time=0
EXTRACT: note_on channel=9 note=56 velocity=95 time=0
EXTRACT: note_off channel=13 note=74 velocity=111 time=0.16853925
EXTRACT: note_off channel=4 note=62 velocity=95 time=0
EXTRACT: note_off channel=9 note=38 velocity=111 time=0
EXTRACT: note_off channel=9 note=42 velocity=111 time=0
EXTRACT: note_off channel=9 note=56 velocity=95 time=0
EXTRACT: note_on channel=13 note=71 velocity=95 time=0.16853925
EXTRACT: note_on channel=4 note=59 velocity=95 time=0
EXTRACT: note_on channel=9 note=42 velocity=111 time=0
EXTRACT: note_off channel=13 note=71 velocity=95 time=0.16853925
EXTRACT: note_on channel=13 note=69 velocity=95 time=0
EXTRACT: note_off channel=4 note=59 velocity=95 time=0
EXTRACT: note_on channel=4 note=57 velocity=70 time=0
EXTRACT: note_off channel=9 note=42 velocity=111 time=0
EXTRACT: note_on channel=9 note=42 velocity=111 time=0.16853925
EXTRACT: note_on channel=9 note=36 velocity=111 time=0
EXTRACT: note_on channel=9 note=56 velocity=95 time=0
EXTRACT: note_off channel=13 note=69 velocity=95 time=0.16853925
EXTRACT: note_off channel=4 note=57 velocity=70 time=0
EXTRACT: note_off channel=9 note=42 velocity=111 time=0
EXTRACT: note_off channel=9 note=36 velocity=111 time=0
EXTRACT: note_off channel=9 note=56 velocity=95 time=0
EXTRACT: note_on channel=9 note=36 velocity=111 time=0.16853925
EXTRACT: note_on channel=9 note=42 velocity=111 time=0
EXTRACT: note_on channel=13 note=67 velocity=95 time=0.16853925
EXTRACT: note_on channel=4 note=55 velocity=95 time=0
EXTRACT: note_off channel=9 note=36 velocity=111 time=0
EXTRACT: note_off channel=9 note=42 velocity=111 time=0
EXTRACT: note_off channel=13 note=67 velocity=95 time=0.16853925
EXTRACT: note_on channel=13 note=69 velocity=95 time=0
EXTRACT: note_off channel=4 note=55 velocity=95 time=0
EXTRACT: note_on channel=4 note=57 velocity=95 time=0
EXTRACT: note_on channel=9 note=38 velocity=127 time=0
EXTRACT: note_on channel=9 note=42 velocity=111 time=0
EXTRACT: note_on channel=9 note=56 velocity=95 time=0
EXTRACT: note_off channel=13 note=69 velocity=95 time=0.16853925
EXTRACT: note_on channel=13 note=69 velocity=95 time=0
EXTRACT: note_off channel=4 note=57 velocity=95 time=0
EXTRACT: note_on channel=4 note=57 velocity=95 time=0
EXTRACT: note_off channel=9 note=38 velocity=127 time=0
EXTRACT: note_off channel=9 note=42 velocity=111 time=0
EXTRACT: note_off channel=9 note=56 velocity=95 time=0
EXTRACT: note_off channel=13 note=69 velocity=95 time=0.16853925
EXTRACT: note_on channel=13 note=67 velocity=95 time=0
EXTRACT: note_off channel=4 note=57 velocity=95 time=0
EXTRACT: note_on channel=4 note=55 velocity=95 time=0
EXTRACT: note_on channel=9 note=42 velocity=111 time=0
EXTRACT: note_on channel=0 note=45 velocity=95 time=0.16853925
EXTRACT: note_on channel=2 note=45 velocity=95 time=0
EXTRACT: note_off channel=9 note=42 velocity=111 time=0
EXTRACT: note_off channel=0 note=45 velocity=95 time=0.16853925
EXTRACT: note_on channel=0 note=54 velocity=95 time=0
EXTRACT: note_on channel=0 note=47 velocity=95 time=0
EXTRACT: note_off channel=2 note=45 velocity=95 time=0
EXTRACT: note_on channel=2 note=54 velocity=95 time=0
EXTRACT: note_on channel=2 note=47 velocity=95 time=0
EXTRACT: note_off channel=13 note=67 velocity=95 time=0
EXTRACT: note_on channel=13 note=71 velocity=95 time=0
EXTRACT: note_off channel=4 note=55 velocity=95 time=0
EXTRACT: note_on channel=4 note=59 velocity=95 time=0
EXTRACT: note_on channel=9 note=42 velocity=127 time=0
EXTRACT: note_on channel=9 note=56 velocity=95 time=0
EXTRACT: note_on channel=9 note=36 velocity=111 time=0
EXTRACT: note_off channel=9 note=42 velocity=127 time=0.16853925
EXTRACT: note_off channel=9 note=56 velocity=95 time=0
EXTRACT: note_off channel=9 note=36 velocity=111 time=0
EXTRACT: note_off channel=0 note=54 velocity=95 time=0.16853925
EXTRACT: note_off channel=0 note=47 velocity=95 time=0
EXTRACT: note_on channel=0 note=54 velocity=95 time=0
EXTRACT: note_on channel=0 note=47 velocity=95 time=0
EXTRACT: note_off channel=2 note=54 velocity=95 time=0
EXTRACT: note_off channel=2 note=47 velocity=95 time=0
EXTRACT: note_on channel=2 note=54 velocity=95 time=0
EXTRACT: note_on channel=2 note=47 velocity=95 time=0
EXTRACT: note_off channel=13 note=71 velocity=95 time=0
EXTRACT: note_off channel=4 note=59 velocity=95 time=0
EXTRACT: note_on channel=9 note=36 velocity=111 time=0
EXTRACT: note_on channel=9 note=42 velocity=111 time=0
EXTRACT: note_off channel=9 note=36 velocity=111 time=0.16853925
EXTRACT: note_off channel=9 note=42 velocity=111 time=0
EXTRACT: note_off channel=0 note=54 velocity=95 time=0.16853925
EXTRACT: note_off channel=0 note=47 velocity=95 time=0
EXTRACT: note_on channel=0 note=54 velocity=95 time=0
EXTRACT: note_on channel=0 note=47 velocity=95 time=0
EXTRACT: note_off channel=2 note=54 velocity=95 time=0
EXTRACT: note_off channel=2 note=47 velocity=95 time=0
EXTRACT: note_on channel=2 note=54 velocity=95 time=0
EXTRACT: note_on channel=2 note=47 velocity=95 time=0
EXTRACT: note_on channel=13 note=74 velocity=95 time=0
EXTRACT: note_on channel=4 note=62 velocity=95 time=0
EXTRACT: note_on channel=15 note=74 velocity=111 time=0
EXTRACT: note_on channel=15 note=62 velocity=111 time=0
EXTRACT: note_on channel=9 note=38 velocity=111 time=0
EXTRACT: note_on channel=9 note=42 velocity=111 time=0
EXTRACT: note_on channel=9 note=56 velocity=95 time=0
EXTRACT: note_off channel=9 note=38 velocity=111 time=0.16853925
EXTRACT: note_off channel=9 note=42 velocity=111 time=0
EXTRACT: note_off channel=9 note=56 velocity=95 time=0
EXTRACT: note_off channel=0 note=54 velocity=95 time=0.16853925
EXTRACT: note_off channel=0 note=47 velocity=95 time=0
EXTRACT: note_on channel=0 note=54 velocity=95 time=0
EXTRACT: note_on channel=0 note=47 velocity=95 time=0
EXTRACT: note_off channel=2 note=54 velocity=95 time=0
EXTRACT: note_off channel=2 note=47 velocity=95 time=0
EXTRACT: note_on channel=2 note=54 velocity=95 time=0
EXTRACT: note_on channel=2 note=47 velocity=95 time=0
EXTRACT: note_off channel=13 note=74 velocity=95 time=0
EXTRACT: note_on channel=13 note=74 velocity=95 time=0
EXTRACT: note_off channel=4 note=62 velocity=95 time=0
EXTRACT: note_on channel=4 note=62 velocity=95 time=0
EXTRACT: note_off channel=15 note=74 velocity=111 time=0
EXTRACT: note_off channel=15 note=62 velocity=111 time=0
EXTRACT: note_on channel=15 note=74 velocity=95 time=0
EXTRACT: note_on channel=15 note=62 velocity=95 time=0
EXTRACT: note_on channel=9 note=42 velocity=111 time=0
EXTRACT: note_off channel=0 note=54 velocity=95 time=0.16853925
EXTRACT: note_off channel=0 note=47 velocity=95 time=0
EXTRACT: note_on channel=0 note=54 velocity=95 time=0
EXTRACT: note_on channel=0 note=47 velocity=95 time=0
EXTRACT: note_off channel=2 note=54 velocity=95 time=0
EXTRACT: note_off channel=2 note=47 velocity=95 time=0
EXTRACT: note_on channel=2 note=54 velocity=95 time=0
EXTRACT: note_on channel=2 note=47 velocity=95 time=0
EXTRACT: note_off channel=13 note=74 velocity=95 time=0
EXTRACT: note_on channel=13 note=71 velocity=95 time=0
EXTRACT: note_off channel=4 note=62 velocity=95 time=0
EXTRACT: note_on channel=4 note=59 velocity=95 time=0
EXTRACT: note_off channel=15 note=74 velocity=95 time=0
EXTRACT: note_off channel=15 note=62 velocity=95 time=0
EXTRACT: note_on channel=15 note=71 velocity=111 time=0
EXTRACT: note_on channel=15 note=59 velocity=111 time=0
EXTRACT: note_off channel=9 note=42 velocity=111 time=0
EXTRACT: note_on channel=9 note=42 velocity=111 time=0.16853925
EXTRACT: note_on channel=9 note=36 velocity=111 time=0
EXTRACT: note_on channel=9 note=56 velocity=95 time=0
EXTRACT: note_off channel=0 note=54 velocity=95 time=0.16853925
EXTRACT: note_off channel=0 note=47 velocity=95 time=0
EXTRACT: note_on channel=0 note=54 velocity=95 time=0
EXTRACT: note_on channel=0 note=47 velocity=95 time=0
EXTRACT: note_off channel=2 note=54 velocity=95 time=0
EXTRACT: note_off channel=2 note=47 velocity=95 time=0
EXTRACT: note_on channel=2 note=54 velocity=95 time=0
EXTRACT: note_on channel=2 note=47 velocity=95 time=0
EXTRACT: note_off channel=9 note=42 velocity=111 time=0
EXTRACT: note_off channel=9 note=36 velocity=111 time=0
EXTRACT: note_off channel=9 note=56 velocity=95 time=0
EXTRACT: note_off channel=0 note=54 velocity=95 time=0.16853925
EXTRACT: note_off channel=0 note=47 velocity=95 time=0
EXTRACT: note_on channel=0 note=54 velocity=95 time=0
EXTRACT: note_on channel=0 note=47 velocity=95 time=0
EXTRACT: note_off channel=2 note=54 velocity=95 time=0
EXTRACT: note_off channel=2 note=47 velocity=95 time=0
EXTRACT: note_on channel=2 note=54 velocity=95 time=0
EXTRACT: note_on channel=2 note=47 velocity=95 time=0
EXTRACT: note_off channel=13 note=71 velocity=95 time=0
EXTRACT: note_off channel=4 note=59 velocity=95 time=0
EXTRACT: note_off channel=15 note=71 velocity=111 time=0
EXTRACT: note_off channel=15 note=59 velocity=111 time=0
EXTRACT: note_on channel=9 note=36 velocity=111 time=0
EXTRACT: note_on channel=9 note=42 velocity=111 time=0
EXTRACT: note_off channel=0 note=54 velocity=95 time=0.16853925
EXTRACT: note_off channel=0 note=47 velocity=95 time=0
EXTRACT: note_on channel=0 note=54 velocity=95 time=0
EXTRACT: note_on channel=0 note=47 velocity=95 time=0
EXTRACT: note_off channel=2 note=54 velocity=95 time=0
EXTRACT: note_off channel=2 note=47 velocity=95 time=0
EXTRACT: note_on channel=2 note=54 velocity=95 time=0
EXTRACT: note_on channel=2 note=47 velocity=95 time=0
EXTRACT: note_on channel=13 note=69 velocity=95 time=0
EXTRACT: note_on channel=4 note=57 velocity=95 time=0
EXTRACT: note_off channel=9 note=36 velocity=111 time=0
EXTRACT: note_off channel=9 note=42 velocity=111 time=0
EXTRACT: note_off channel=0 note=54 velocity=95 time=0.16853925
EXTRACT: note_off channel=0 note=47 velocity=95 time=0
EXTRACT: note_on channel=0 note=54 velocity=95 time=0
EXTRACT: note_on channel=0 note=47 velocity=95 time=0
EXTRACT: note_off channel=2 note=54 velocity=95 time=0
EXTRACT: note_off channel=2 note=47 velocity=95 time=0
EXTRACT: note_on channel=2 note=54 velocity=95 time=0
EXTRACT: note_on channel=2 note=47 velocity=95 time=0
EXTRACT: note_off channel=13 note=69 velocity=95 time=0
EXTRACT: note_on channel=13 note=71 velocity=95 time=0
EXTRACT: note_off channel=4 note=57 velocity=95 time=0
EXTRACT: note_on channel=4 note=59 velocity=95 time=0
EXTRACT: note_on channel=9 note=38 velocity=127 time=0
EXTRACT: note_on channel=9 note=42 velocity=111 time=0
EXTRACT: note_on channel=9 note=56 velocity=95 time=0
EXTRACT: note_off channel=0 note=54 velocity=95 time=0.16853925
EXTRACT: note_off channel=0 note=47 velocity=95 time=0
EXTRACT: note_on channel=0 note=54 velocity=95 time=0
EXTRACT: note_on channel=0 note=47 velocity=95 time=0
EXTRACT: note_off channel=2 note=54 velocity=95 time=0
EXTRACT: note_off channel=2 note=47 velocity=95 time=0
EXTRACT: note_on channel=2 note=54 velocity=95 time=0
EXTRACT: note_on channel=2 note=47 velocity=95 time=0
EXTRACT: note_off channel=13 note=71 velocity=95 time=0
EXTRACT: note_on channel=13 note=74 velocity=95 time=0
EXTRACT: note_off channel=4 note=59 velocity=95 time=0
EXTRACT: note_on channel=4 note=62 velocity=95 time=0
EXTRACT: note_off channel=9 note=38 velocity=127 time=0
EXTRACT: note_off channel=9 note=42 velocity=111 time=0
EXTRACT: note_off channel=9 note=56 velocity=95 time=0
EXTRACT: note_off channel=0 note=54 velocity=95 time=0.16853925
EXTRACT: note_off channel=0 note=47 velocity=95 time=0
EXTRACT: note_off channel=2 note=54 velocity=95 time=0
EXTRACT: note_off channel=2 note=47 velocity=95 time=0
EXTRACT: note_on channel=10 note=35 velocity=95 time=0
EXTRACT: note_on channel=9 note=42 velocity=111 time=0
EXTRACT: pitchwheel channel=10 pitch=-1152 time=0.084269625
EXTRACT: pitchwheel channel=10 pitch=-2432 time=0.084269625
EXTRACT: note_off channel=9 note=42 velocity=111 time=0
EXTRACT: pitchwheel channel=10 pitch=-3584 time=0.084269625
EXTRACT: note_on channel=0 note=47 velocity=95 time=0.084269625
EXTRACT: note_on channel=0 note=40 velocity=95 time=0
EXTRACT: note_on channel=2 note=47 velocity=95 time=0
EXTRACT: note_on channel=2 note=40 velocity=95 time=0
EXTRACT: pitchwheel channel=10 pitch=-4864 time=0
EXTRACT: pitchwheel channel=10 pitch=0 time=0
EXTRACT: note_off channel=10 note=35 velocity=95 time=0
EXTRACT: note_on channel=8 note=28 velocity=111 time=0
EXTRACT: note_off channel=13 note=74 velocity=95 time=0
EXTRACT: note_on channel=13 note=76 velocity=95 time=0
EXTRACT: note_off channel=4 note=62 velocity=95 time=0
EXTRACT: note_on channel=4 note=64 velocity=95 time=0
EXTRACT: note_on channel=15 note=76 velocity=95 time=0
EXTRACT: note_on channel=15 note=64 velocity=95 time=0
EXTRACT: note_on channel=9 note=56 velocity=95 time=0
EXTRACT: note_on channel=9 note=42 velocity=127 time=0
EXTRACT: note_on channel=9 note=36 velocity=111 time=0
EXTRACT: note_on channel=9 note=82 velocity=95 time=0
EXTRACT: note_off channel=9 note=56 velocity=95 time=0.16853925
EXTRACT: note_off channel=9 note=42 velocity=127 time=0
EXTRACT: note_off channel=9 note=36 velocity=111 time=0
EXTRACT: note_off channel=9 note=82 velocity=95 time=0
EXTRACT: note_off channel=0 note=47 velocity=95 time=0.16853925
EXTRACT: note_off channel=0 note=40 velocity=95 time=0
EXTRACT: note_on channel=0 note=47 velocity=95 time=0
EXTRACT: note_on channel=0 note=40 velocity=95 time=0
EXTRACT: note_off channel=2 note=47 velocity=95 time=0
EXTRACT: note_off channel=2 note=40 velocity=95 time=0
EXTRACT: note_on channel=2 note=47 velocity=95 time=0
EXTRACT: note_on channel=2 note=40 velocity=95 time=0
EXTRACT: note_off channel=8 note=28 velocity=111 time=0
EXTRACT: note_on channel=8 note=28 velocity=111 time=0
EXTRACT: note_on channel=9 note=42 velocity=111 time=0
EXTRACT: note_on channel=9 note=36 velocity=111 time=0
EXTRACT: note_off channel=9 note=42 velocity=111 time=0.16853925
EXTRACT: note_off channel=9 note=36 velocity=111 time=0
EXTRACT: note_off channel=0 note=47 velocity=95 time=0.16853925
EXTRACT: note_off channel=0 note=40 velocity=95 time=0
EXTRACT: pitchwheel channel=1 pitch=0 time=0
EXTRACT: note_on channel=1 note=55 velocity=95 time=0
EXTRACT: note_off channel=2 note=47 velocity=95 time=0
EXTRACT: note_off channel=2 note=40 velocity=95 time=0
EXTRACT: note_off channel=8 note=28 velocity=111 time=0
EXTRACT: note_off channel=13 note=76 velocity=95 time=0
EXTRACT: note_on channel=13 note=79 velocity=95 time=0
EXTRACT: note_off channel=4 note=64 velocity=95 time=0
EXTRACT: note_on channel=4 note=67 velocity=95 time=0
EXTRACT: note_off channel=15 note=76 velocity=95 time=0
EXTRACT: note_off channel=15 note=64 velocity=95 time=0
EXTRACT: note_on channel=15 note=79 velocity=95 time=0
EXTRACT: note_on channel=15 note=67 velocity=95 time=0
EXTRACT: note_on channel=9 note=56 velocity=95 time=0
EXTRACT: note_on channel=9 note=42 velocity=111 time=0
EXTRACT: note_on channel=9 note=82 velocity=95 time=0
EXTRACT: note_on channel=9 note=38 velocity=111 time=0
EXTRACT: pitchwheel channel=1 pitch=0 time=0.1123595
EXTRACT: note_off channel=9 note=56 velocity=95 time=0.05617975
EXTRACT: note_off channel=9 note=42 velocity=111 time=0
EXTRACT: note_off channel=9 note=82 velocity=95 time=0
EXTRACT: note_off channel=9 note=38 velocity=111 time=0
EXTRACT: pitchwheel channel=1 pitch=128 time=0.05617975
EXTRACT: pitchwheel channel=1 pitch=256 time=0.1123595
EXTRACT: pitchwheel channel=1 pitch=256 time=0
EXTRACT: note_on channel=9 note=42 velocity=111 time=0
EXTRACT: note_on channel=8 note=28 velocity=95 time=0.16853925
EXTRACT: note_off channel=9 note=42 velocity=111 time=0
EXTRACT: note_on channel=9 note=82 velocity=95 time=0
EXTRACT: pitchwheel channel=1 pitch=256 time=0.1123595
EXTRACT: pitchwheel channel=1 pitch=128 time=0.028089875
EXTRACT: pitchwheel channel=1 pitch=0 time=0.028089875
EXTRACT: pitchwheel channel=1 pitch=0 time=0
EXTRACT: pitchwheel channel=1 pitch=0 time=0
EXTRACT: note_off channel=1 note=55 velocity=95 time=0
EXTRACT: note_on channel=0 note=47 velocity=95 time=0
EXTRACT: note_on channel=0 note=40 velocity=95 time=0
EXTRACT: note_on channel=2 note=47 velocity=95 time=0
EXTRACT: note_on channel=2 note=40 velocity=95 time=0
EXTRACT: note_off channel=8 note=28 velocity=95 time=0
EXTRACT: note_on channel=8 note=28 velocity=111 time=0
EXTRACT: note_off channel=13 note=79 velocity=95 time=0
EXTRACT: note_on channel=13 note=76 velocity=95 time=0
EXTRACT: note_off channel=4 note=67 velocity=95 time=0
EXTRACT: note_on channel=4 note=64 velocity=95 time=0
EXTRACT: note_off channel=15 note=79 velocity=95 time=0
EXTRACT: note_off channel=15 note=67 velocity=95 time=0
EXTRACT: note_on channel=15 note=76 velocity=95 time=0
EXTRACT: note_on channel=15 note=64 velocity=95 time=0
EXTRACT: note_off channel=9 note=82 velocity=95 time=0
EXTRACT: note_on channel=9 note=36 velocity=111 time=0
EXTRACT: note_on channel=9 note=42 velocity=111 time=0
EXTRACT: note_on channel=9 note=56 velocity=95 time=0
EXTRACT: note_off channel=13 note=76 velocity=95 time=0.16853925
EXTRACT: note_off channel=4 note=64 velocity=95 time=0
EXTRACT: note_off channel=15 note=76 velocity=95 time=0
EXTRACT: note_off channel=15 note=64 velocity=95 time=0
EXTRACT: note_off channel=9 note=36 velocity=111 time=0
EXTRACT: note_off channel=9 note=42 velocity=111 time=0
EXTRACT: note_off channel=9 note=56 velocity=95 time=0
EXTRACT: note_on channel=9 note=82 velocity=95 time=0
EXTRACT: note_off channel=0 note=47 velocity=95 time=0.16853925
EXTRACT: note_off channel=0 note=40 velocity=95 time=0
EXTRACT: note_on channel=0 note=47 velocity=95 time=0
EXTRACT: note_on channel=0 note=40 velocity=95 time=0
EXTRACT: note_off channel=2 note=47 velocity=95 time=0
EXTRACT: note_off channel=2 note=40 velocity=95 time=0
EXTRACT: note_on channel=2 note=47 velocity=95 time=0
EXTRACT: note_on channel=2 note=40 velocity=95 time=0
EXTRACT: note_off channel=8 note=28 velocity=111 time=0
EXTRACT: note_on channel=8 note=28 velocity=111 time=0
EXTRACT: note_on channel=13 note=74 velocity=95 time=0
EXTRACT: note_on channel=4 note=62 velocity=95 time=0
EXTRACT: note_on channel=15 note=74 velocity=95 time=0
EXTRACT: note_on channel=15 note=62 velocity=95 time=0
EXTRACT: note_off channel=9 note=82 velocity=95 time=0
EXTRACT: note_on channel=9 note=42 velocity=111 time=0
EXTRACT: note_on channel=9 note=82 velocity=79 time=0
EXTRACT: note_on channel=9 note=36 velocity=111 time=0
EXTRACT: note_off channel=13 note=74 velocity=95 time=0.16853925
EXTRACT: note_on channel=13 note=76 velocity=95 time=0
EXTRACT: note_off channel=4 note=62 velocity=95 time=0
EXTRACT: note_on channel=4 note=64 velocity=95 time=0
EXTRACT: note_off channel=15 note=74 velocity=95 time=0
EXTRACT: note_off channel=15 note=62 velocity=95 time=0
EXTRACT: note_on channel=15 note=76 velocity=95 time=0
EXTRACT: note_on channel=15 note=64 velocity=95 time=0
EXTRACT: note_off channel=9 note=42 velocity=111 time=0
EXTRACT: note_off channel=9 note=82 velocity=79 time=0
EXTRACT: note_off channel=9 note=36 velocity=111 time=0
EXTRACT: note_off channel=0 note=47 velocity=95 time=0.16853925
EXTRACT: note_off channel=0 note=40 velocity=95 time=0
EXTRACT: note_off channel=2 note=47 velocity=95 time=0
EXTRACT: note_off channel=2 note=40 velocity=95 time=0
EXTRACT: note_off channel=8 note=28 velocity=111 time=0
EXTRACT: note_on channel=9 note=56 velocity=95 time=0
EXTRACT: note_on channel=9 note=82 velocity=95 time=0
EXTRACT: note_on channel=9 note=42 velocity=111 time=0
EXTRACT: note_on channel=9 note=38 velocity=127 time=0
EXTRACT: note_on channel=0 note=43 velocity=95 time=0.16853925
EXTRACT: note_on channel=8 note=31 velocity=127 time=0
EXTRACT: note_off channel=9 note=56 velocity=95 time=0
EXTRACT: note_off channel=9 note=82 velocity=95 time=0
EXTRACT: note_off channel=9 note=42 velocity=111 time=0
EXTRACT: note_off channel=9 note=38 velocity=127 time=0
EXTRACT: note_off channel=13 note=76 velocity=95 time=0.16853925
EXTRACT: note_off channel=4 note=64 velocity=95 time=0
EXTRACT: note_off channel=15 note=76 velocity=95 time=0
EXTRACT: note_off channel=15 note=64 velocity=95 time=0
EXTRACT: note_on channel=9 note=42 velocity=111 time=0
EXTRACT: note_on channel=13 note=71 velocity=95 time=0.16853925
EXTRACT: note_on channel=4 note=59 velocity=95 time=0
EXTRACT: note_on channel=15 note=71 velocity=95 time=0
EXTRACT: note_on channel=15 note=59 velocity=95 time=0
EXTRACT: note_off channel=9 note=42 velocity=111 time=0
EXTRACT: note_off channel=0 note=43 velocity=95 time=0.16853925
EXTRACT: note_on channel=0 note=52 velocity=95 time=0
EXTRACT: note_on channel=0 note=45 velocity=95 time=0
EXTRACT: note_on channel=2 note=52 velocity=95 time=0
EXTRACT: note_on channel=2 note=45 velocity=95 time=0
EXTRACT: note_off channel=8 note=31 velocity=127 time=0
EXTRACT: note_on channel=8 note=33 velocity=111 time=0
EXTRACT: note_off channel=13 note=71 velocity=95 time=0
EXTRACT: note_on channel=13 note=76 velocity=95 time=0
EXTRACT: note_off channel=4 note=59 velocity=95 time=0
EXTRACT: note_on channel=4 note=64 velocity=95 time=0
EXTRACT: note_off channel=15 note=71 velocity=95 time=0
EXTRACT: note_off channel=15 note=59 velocity=95 time=0
EXTRACT: note_on channel=15 note=76 velocity=95 time=0
EXTRACT: note_on channel=15 note=64 velocity=95 time=0
EXTRACT: note_on channel=9 note=56 velocity=95 time=0
EXTRACT: note_on channel=9 note=36 velocity=111 time=0
EXTRACT: note_on channel=9 note=42 velocity=111 time=0
EXTRACT: note_on channel=9 note=82 velocity=111 time=0
EXTRACT: note_off channel=13 note=76 velocity=95 time=0.16853925
EXTRACT: note_on channel=13 note=76 velocity=95 time=0
EXTRACT: note_off channel=4 note=64 velocity=95 time=0
EXTRACT: note_on channel=4 note=64 velocity=95 time=0
EXTRACT: note_off channel=15 note=76 velocity=95 time=0
EXTRACT: note_off channel=15 note=64 velocity=95 time=0
EXTRACT: note_on channel=15 note=76 velocity=95 time=0
EXTRACT: note_on channel=15 note=64 velocity=95 time=0
EXTRACT: note_off channel=9 note=56 velocity=95 time=0
EXTRACT: note_off channel=9 note=36 velocity=111 time=0
EXTRACT: note_off channel=9 note=42 velocity=111 time=0
EXTRACT: note_off channel=9 note=82 velocity=111 time=0
EXTRACT: note_off channel=0 note=52 velocity=95 time=0.16853925
EXTRACT: note_off channel=0 note=45 velocity=95 time=0
EXTRACT: note_on channel=0 note=52 velocity=95 time=0
EXTRACT: note_on channel=0 note=45 velocity=95 time=0
EXTRACT: note_off channel=2 note=52 velocity=95 time=0
EXTRACT: note_off channel=2 note=45 velocity=95 time=0
EXTRACT: note_on channel=2 note=52 velocity=95 time=0
EXTRACT: note_on channel=2 note=45 velocity=95 time=0
EXTRACT: note_off channel=8 note=33 velocity=111 time=0
EXTRACT: note_on channel=8 note=33 velocity=111 time=0
EXTRACT: note_off channel=13 note=76 velocity=95 time=0
EXTRACT: note_on channel=13 note=76 velocity=95 time=0
EXTRACT: note_off channel=4 note=64 velocity=95 time=0
EXTRACT: note_on channel=4 note=64 velocity=95 time=0
EXTRACT: note_off channel=15 note=76 velocity=95 time=0
EXTRACT: note_off channel=15 note=64 velocity=95 time=0
EXTRACT: note_on channel=15 note=76 velocity=95 time=0
EXTRACT: note_on channel=15 note=64 velocity=95 time=0
EXTRACT: note_on channel=9 note=36 velocity=111 time=0
EXTRACT: note_on channel=9 note=82 velocity=95 time=0
EXTRACT: note_on channel=9 note=42 velocity=111 time=0
EXTRACT: note_off channel=13 note=76 velocity=95 time=0.16853925
EXTRACT: note_on channel=13 note=76 velocity=95 time=0
EXTRACT: note_off channel=4 note=64 velocity=95 time=0
EXTRACT: note_on channel=4 note=64 velocity=95 time=0
EXTRACT: note_off channel=15 note=76 velocity=95 time=0
EXTRACT: note_off channel=15 note=64 velocity=95 time=0
EXTRACT: note_on channel=15 note=76 velocity=95 time=0
EXTRACT: note_on channel=15 note=64 velocity=95 time=0
EXTRACT: note_off channel=9 note=36 velocity=111 time=0
EXTRACT: note_off channel=9 note=82 velocity=95 time=0
EXTRACT: note_off channel=9 note=42 velocity=111 time=0
EXTRACT: note_off channel=0 note=52 velocity=95 time=0.16853925
EXTRACT: note_off channel=0 note=45 velocity=95 time=0
EXTRACT: note_off channel=2 note=52 velocity=95 time=0
EXTRACT: note_off channel=2 note=45 velocity=95 time=0
EXTRACT: note_off channel=8 note=33 velocity=111 time=0
EXTRACT: note_off channel=13 note=76 velocity=95 time=0
EXTRACT: note_on channel=13 note=76 velocity=95 time=0
EXTRACT: note_off channel=4 note=64 velocity=95 time=0
EXTRACT: note_on channel=4 note=64 velocity=95 time=0
EXTRACT: note_off channel=15 note=76 velocity=95 time=0
EXTRACT: note_off channel=15 note=64 velocity=95 time=0
EXTRACT: note_on channel=15 note=76 velocity=95 time=0
EXTRACT: note_on channel=15 note=64 velocity=95 time=0
EXTRACT: note_on channel=9 note=56 velocity=95 time=0
EXTRACT: note_on channel=9 note=38 velocity=127 time=0
EXTRACT: note_on channel=9 note=82 velocity=95 time=0
EXTRACT: note_on channel=9 note=42 velocity=111 time=0
EXTRACT: note_off channel=9 note=56 velocity=95 time=0.16853925
EXTRACT: note_off channel=9 note=38 velocity=127 time=0
EXTRACT: note_off channel=9 note=82 velocity=95 time=0
EXTRACT: note_off channel=9 note=42 velocity=111 time=0
EXTRACT: note_off channel=13 note=76 velocity=95 time=0.16853925
EXTRACT: note_on channel=13 note=76 velocity=95 time=0
EXTRACT: note_off channel=4 note=64 velocity=95 time=0
EXTRACT: note_on channel=4 note=64 velocity=95 time=0
EXTRACT: note_off channel=15 note=76 velocity=95 time=0
EXTRACT: note_off channel=15 note=64 velocity=95 time=0
EXTRACT: note_on channel=15 note=76 velocity=95 time=0
EXTRACT: note_on channel=15 note=64 velocity=95 time=0
EXTRACT: note_on channel=9 note=82 velocity=95 time=0
EXTRACT: note_on channel=9 note=42 velocity=127 time=0
EXTRACT: note_on channel=8 note=33 velocity=95 time=0.16853925
EXTRACT: note_off channel=13 note=76 velocity=95 time=0
EXTRACT: note_on channel=13 note=78 velocity=95 time=0
EXTRACT: note_off channel=4 note=64 velocity=95 time=0
EXTRACT: note_on channel=4 note=66 velocity=95 time=0
EXTRACT: note_off channel=15 note=76 velocity=95 time=0
EXTRACT: note_off channel=15 note=64 velocity=95 time=0
EXTRACT: note_on channel=15 note=78 velocity=95 time=0
EXTRACT: note_on channel=15 note=66 velocity=95 time=0
EXTRACT: note_off channel=9 note=82 velocity=95 time=0
EXTRACT: note_off channel=9 note=42 velocity=127 time=0
EXTRACT: note_on channel=9 note=82 velocity=79 time=0
EXTRACT: note_on channel=0 note=54 velocity=95 time=0.16853925
EXTRACT: note_on channel=0 note=47 velocity=95 time=0
EXTRACT: note_on channel=2 note=54 velocity=95 time=0
EXTRACT: note_on channel=2 note=47 velocity=95 time=0
EXTRACT: note_off channel=8 note=33 velocity=95 time=0
EXTRACT: note_on channel=8 note=35 velocity=111 time=0
EXTRACT: note_off channel=13 note=78 velocity=95 time=0
EXTRACT: note_on channel=13 note=79 velocity=95 time=0
EXTRACT: note_off channel=4 note=66 velocity=95 time=0
EXTRACT: note_on channel=4 note=67 velocity=95 time=0
EXTRACT: note_off channel=15 note=78 velocity=95 time=0
EXTRACT: note_off channel=15 note=66 velocity=95 time=0
EXTRACT: note_on channel=15 note=79 velocity=95 time=0
EXTRACT: note_on channel=15 note=67 velocity=95 time=0
EXTRACT: note_off channel=9 note=82 velocity=79 time=0
EXTRACT: note_on channel=9 note=56 velocity=95 time=0
EXTRACT: note_on channel=9 note=36 velocity=111 time=0
EXTRACT: note_on channel=9 note=42 velocity=127 time=0
EXTRACT: note_off channel=13 note=79 velocity=95 time=0.16853925
EXTRACT: note_on channel=13 note=78 velocity=95 time=0
EXTRACT: note_off channel=4 note=67 velocity=95 time=0
EXTRACT: note_on channel=4 note=66 velocity=95 time=0
EXTRACT: note_off channel=15 note=79 velocity=95 time=0
EXTRACT: note_off channel=15 note=67 velocity=95 time=0
EXTRACT: note_on channel=15 note=78 velocity=95 time=0
EXTRACT: note_on channel=15 note=66 velocity=95 time=0
EXTRACT: note_off channel=9 note=56 velocity=95 time=0
EXTRACT: note_off channel=9 note=36 velocity=111 time=0
EXTRACT: note_off channel=9 note=42 velocity=127 time=0
EXTRACT: note_on channel=9 note=82 velocity=95 time=0
EXTRACT: note_off channel=0 note=54 velocity=95 time=0.16853925
EXTRACT: note_off channel=0 note=47 velocity=95 time=0
EXTRACT: note_on channel=0 note=54 velocity=95 time=0
EXTRACT: note_on channel=0 note=47 velocity=95 time=0
EXTRACT: note_off channel=2 note=54 velocity=95 time=0
EXTRACT: note_off channel=2 note=47 velocity=95 time=0
EXTRACT: note_on channel=2 note=54 velocity=95 time=0
EXTRACT: note_on channel=2 note=47 velocity=95 time=0
EXTRACT: note_off channel=8 note=35 velocity=111 time=0
EXTRACT: note_on channel=8 note=35 velocity=111 time=0
EXTRACT: note_off channel=9 note=82 velocity=95 time=0
EXTRACT: note_on channel=9 note=36 velocity=111 time=0
EXTRACT: note_on channel=9 note=82 velocity=79 time=0
EXTRACT: note_on channel=9 note=42 velocity=111 time=0
EXTRACT: note_off channel=13 note=78 velocity=95 time=0.16853925
EXTRACT: note_on channel=13 note=79 velocity=95 time=0
EXTRACT: note_off channel=4 note=66 velocity=95 time=0
EXTRACT: note_on channel=4 note=67 velocity=95 time=0
EXTRACT: note_off channel=15 note=78 velocity=95 time=0
EXTRACT: note_off channel=15 note=66 velocity=95 time=0
EXTRACT: note_on channel=15 note=79 velocity=95 time=0
EXTRACT: note_on channel=15 note=67 velocity=95 time=0
EXTRACT: note_off channel=9 note=36 velocity=111 time=0
EXTRACT: note_off channel=9 note=82 velocity=79 time=0
EXTRACT: note_off channel=9 note=42 velocity=111 time=0
EXTRACT: note_off channel=0 note=54 velocity=95 time=0.16853925
EXTRACT: note_off channel=0 note=47 velocity=95 time=0
EXTRACT: note_off channel=2 note=54 velocity=95 time=0
EXTRACT: note_off channel=2 note=47 velocity=95 time=0
EXTRACT: note_off channel=8 note=35 velocity=111 time=0
EXTRACT: note_on channel=9 note=42 velocity=127 time=0
EXTRACT: note_on channel=9 note=38 velocity=111 time=0
EXTRACT: note_on channel=9 note=56 velocity=95 time=0
EXTRACT: note_on channel=9 note=82 velocity=95 time=0
EXTRACT: note_off channel=13 note=79 velocity=95 time=0.16853925
EXTRACT: note_on channel=13 note=78 velocity=95 time=0
EXTRACT: note_off channel=4 note=67 velocity=95 time=0
EXTRACT: note_on channel=4 note=66 velocity=95 time=0
EXTRACT: note_off channel=15 note=79 velocity=95 time=0
EXTRACT: note_off channel=15 note=67 velocity=95 time=0
EXTRACT: note_on channel=15 note=78 velocity=95 time=0
EXTRACT: note_on channel=15 note=66 velocity=95 time=0
EXTRACT: note_off channel=9 note=42 velocity=127 time=0
EXTRACT: note_off channel=9 note=38 velocity=111 time=0
EXTRACT: note_off channel=9 note=56 velocity=95 time=0
EXTRACT: note_off channel=9 note=82 velocity=95 time=0
EXTRACT: note_off channel=13 note=78 velocity=95 time=0.16853925
EXTRACT: note_off channel=4 note=66 velocity=95 time=0
EXTRACT: note_off channel=15 note=78 velocity=95 time=0
EXTRACT: note_off channel=15 note=66 velocity=95 time=0
EXTRACT: note_on channel=9 note=41 velocity=127 time=0
EXTRACT: note_on channel=9 note=42 velocity=127 time=0
EXTRACT: note_off channel=9 note=41 velocity=127 time=0.16853925
EXTRACT: note_off channel=9 note=42 velocity=127 time=0
EXTRACT: note_on channel=0 note=47 velocity=95 time=0.16853925
EXTRACT: note_on channel=0 note=40 velocity=95 time=0
EXTRACT: note_on channel=2 note=47 velocity=95 time=0
EXTRACT: note_on channel=2 note=40 velocity=95 time=0
EXTRACT: note_on channel=8 note=28 velocity=111 time=0
EXTRACT: note_on channel=13 note=76 velocity=95 time=0
EXTRACT: note_on channel=4 note=64 velocity=95 time=0
EXTRACT: note_on channel=15 note=76 velocity=95 time=0
EXTRACT: note_on channel=15 note=64 velocity=95 time=0
EXTRACT: note_on channel=9 note=82 velocity=111 time=0
EXTRACT: note_on channel=9 note=42 velocity=127 time=0
EXTRACT: note_on channel=9 note=36 velocity=111 time=0
EXTRACT: note_on channel=9 note=56 velocity=95 time=0
EXTRACT: note_off channel=9 note=82 velocity=111 time=0.16853925
EXTRACT: note_off channel=9 note=42 velocity=127 time=0
EXTRACT: note_off channel=9 note=36 velocity=111 time=0
EXTRACT: note_off channel=9 note=56 velocity=95 time=0
EXTRACT: note_off channel=0 note=47 velocity=95 time=0.16853925
EXTRACT: note_off channel=0 note=40 velocity=95 time=0
EXTRACT: note_on channel=0 note=47 velocity=95 time=0
EXTRACT: note_on channel=0 note=40 velocity=95 time=0
EXTRACT: note_off channel=2 note=47 velocity=95 time=0
EXTRACT: note_off channel=2 note=40 velocity=95 time=0
EXTRACT: note_on channel=2 note=47 velocity=95 time=0
EXTRACT: note_on channel=2 note=40 velocity=95 time=0
EXTRACT: note_off channel=8 note=28 velocity=111 time=0
EXTRACT: note_on channel=8 note=28 velocity=111 time=0
EXTRACT: note_on channel=9 note=36 velocity=111 time=0
EXTRACT: note_on channel=9 note=42 velocity=111 time=0
EXTRACT: note_off channel=9 note=36 velocity=111 time=0.16853925
EXTRACT: note_off channel=9 note=42 velocity=111 time=0
EXTRACT: note_off channel=0 note=47 velocity=95 time=0.16853925
EXTRACT: note_off channel=0 note=40 velocity=95 time=0
EXTRACT: pitchwheel channel=1 pitch=0 time=0
EXTRACT: note_on channel=1 note=55 velocity=95 time=0
EXTRACT: note_off channel=2 note=47 velocity=95 time=0
EXTRACT: note_off channel=2 note=40 velocity=95 time=0
EXTRACT: note_off channel=8 note=28 velocity=111 time=0
EXTRACT: note_off channel=13 note=76 velocity=95 time=0
EXTRACT: note_on channel=13 note=79 velocity=95 time=0
EXTRACT: note_off channel=4 note=64 velocity=95 time=0
EXTRACT: note_on channel=4 note=67 velocity=95 time=0
EXTRACT: note_off channel=15 note=76 velocity=95 time=0
EXTRACT: note_off channel=15 note=64 velocity=95 time=0
EXTRACT: note_on channel=15 note=79 velocity=95 time=0
EXTRACT: note_on channel=15 note=67 velocity=95 time=0
EXTRACT: note_on channel=9 note=56 velocity=95 time=0
EXTRACT: note_on channel=9 note=38 velocity=111 time=0
EXTRACT: note_on channel=9 note=82 velocity=95 time=0
EXTRACT: note_on channel=9 note=42 velocity=111 time=0
EXTRACT: pitchwheel channel=1 pitch=0 time=0.1123595
EXTRACT: note_off channel=9 note=56 velocity=95 time=0.05617975
EXTRACT: note_off channel=9 note=38 velocity=111 time=0
EXTRACT: note_off channel=9 note=82 velocity=95 time=0
EXTRACT: note_off channel=9 note=42 velocity=111 time=0
EXTRACT: pitchwheel channel=1 pitch=128 time=0.05617975
EXTRACT: pitchwheel channel=1 pitch=256 time=0.1123595
EXTRACT: pitchwheel channel=1 pitch=256 time=0
EXTRACT: note_on channel=9 note=82 velocity=95 time=0
EXTRACT: note_on channel=9 note=42 velocity=111 time=0
EXTRACT: note_on channel=8 note=28 velocity=95 time=0.16853925
EXTRACT: note_off channel=9 note=82 velocity=95 time=0
EXTRACT: note_off channel=9 note=42 velocity=111 time=0
EXTRACT: note_on channel=9 note=82 velocity=79 time=0
EXTRACT: pitchwheel channel=1 pitch=256 time=0.1123595
EXTRACT: pitchwheel channel=1 pitch=128 time=0.028089875
EXTRACT: pitchwheel channel=1 pitch=0 time=0.028089875
EXTRACT: pitchwheel channel=1 pitch=0 time=0
EXTRACT: pitchwheel channel=1 pitch=0 time=0
EXTRACT: note_off channel=1 note=55 velocity=95 time=0
EXTRACT: note_on channel=0 note=47 velocity=95 time=0
EXTRACT: note_on channel=0 note=40 velocity=95 time=0
EXTRACT: note_on channel=2 note=47 velocity=95 time=0
EXTRACT: note_on channel=2 note=40 velocity=95 time=0
EXTRACT: note_off channel=8 note=28 velocity=95 time=0
EXTRACT: note_on channel=8 note=28 velocity=111 time=0
EXTRACT: note_off channel=13 note=79 velocity=95 time=0
EXTRACT: note_on channel=13 note=76 velocity=95 time=0
EXTRACT: note_off channel=4 note=67 velocity=95 time=0
EXTRACT: note_on channel=4 note=64 velocity=95 time=0
EXTRACT: note_off channel=15 note=79 velocity=95 time=0
EXTRACT: note_off channel=15 note=67 velocity=95 time=0
EXTRACT: note_on channel=15 note=76 velocity=95 time=0
EXTRACT: note_on channel=15 note=64 velocity=95 time=0
EXTRACT: note_off channel=9 note=82 velocity=79 time=0
EXTRACT: note_on channel=9 note=56 velocity=95 time=0
EXTRACT: note_on channel=9 note=36 velocity=111 time=0
EXTRACT: note_on channel=9 note=42 velocity=111 time=0
EXTRACT: note_off channel=13 note=76 velocity=95 time=0.16853925
EXTRACT: note_off channel=4 note=64 velocity=95 time=0
EXTRACT: note_off channel=15 note=76 velocity=95 time=0
EXTRACT: note_off channel=15 note=64 velocity=95 time=0
EXTRACT: note_off channel=9 note=56 velocity=95 time=0
EXTRACT: note_off channel=9 note=36 velocity=111 time=0
EXTRACT: note_off channel=9 note=42 velocity=111 time=0
EXTRACT: note_on channel=9 note=82 velocity=95 time=0
EXTRACT: note_off channel=0 note=47 velocity=95 time=0.16853925
EXTRACT: note_off channel=0 note=40 velocity=95 time=0
EXTRACT: note_on channel=0 note=47 velocity=95 time=0
EXTRACT: note_on channel=0 note=40 velocity=95 time=0
EXTRACT: note_off channel=2 note=47 velocity=95 time=0
EXTRACT: note_off channel=2 note=40 velocity=95 time=0
EXTRACT: note_on channel=2 note=47 velocity=95 time=0
EXTRACT: note_on channel=2 note=40 velocity=95 time=0
EXTRACT: note_off channel=8 note=28 velocity=111 time=0
EXTRACT: note_on channel=8 note=28 velocity=111 time=0
EXTRACT: note_on channel=13 note=74 velocity=95 time=0
EXTRACT: note_on channel=4 note=62 velocity=95 time=0
EXTRACT: note_on channel=15 note=74 velocity=95 time=0
EXTRACT: note_on channel=15 note=62 velocity=95 time=0
EXTRACT: note_off channel=9 note=82 velocity=95 time=0
EXTRACT: note_on channel=9 note=42 velocity=111 time=0
EXTRACT: note_on channel=9 note=36 velocity=111 time=0
EXTRACT: note_on channel=9 note=82 velocity=79 time=0
EXTRACT: note_off channel=13 note=74 velocity=95 time=0.16853925
EXTRACT: note_on channel=13 note=76 velocity=95 time=0
EXTRACT: note_off channel=4 note=62 velocity=95 time=0
EXTRACT: note_on channel=4 note=64 velocity=95 time=0
EXTRACT: note_off channel=15 note=74 velocity=95 time=0
EXTRACT: note_off channel=15 note=62 velocity=95 time=0
EXTRACT: note_on channel=15 note=76 velocity=95 time=0
EXTRACT: note_on channel=15 note=64 velocity=95 time=0
EXTRACT: note_off channel=9 note=42 velocity=111 time=0
EXTRACT: note_off channel=9 note=36 velocity=111 time=0
EXTRACT: note_off channel=9 note=82 velocity=79 time=0
EXTRACT: note_off channel=0 note=47 velocity=95 time=0.16853925
EXTRACT: note_off channel=0 note=40 velocity=95 time=0
EXTRACT: note_off channel=2 note=47 velocity=95 time=0
EXTRACT: note_off channel=2 note=40 velocity=95 time=0
EXTRACT: note_off channel=8 note=28 velocity=111 time=0
EXTRACT: note_on channel=9 note=56 velocity=95 time=0
EXTRACT: note_on channel=9 note=42 velocity=111 time=0
EXTRACT: note_on channel=9 note=38 velocity=127 time=0
EXTRACT: note_on channel=9 note=82 velocity=95 time=0
EXTRACT: note_on channel=0 note=43 velocity=95 time=0.16853925
EXTRACT: note_on channel=8 note=31 velocity=127 time=0
EXTRACT: note_off channel=9 note=56 velocity=95 time=0
EXTRACT: note_off channel=9 note=42 velocity=111 time=0
EXTRACT: note_off channel=9 note=38 velocity=127 time=0
EXTRACT: note_off channel=9 note=82 velocity=95 time=0
EXTRACT: note_off channel=13 note=76 velocity=95 time=0.16853925
EXTRACT: note_off channel=4 note=64 velocity=95 time=0
EXTRACT: note_off channel=15 note=76 velocity=95 time=0
EXTRACT: note_off channel=15 note=64 velocity=95 time=0
EXTRACT: note_on channel=9 note=42 velocity=111 time=0
EXTRACT: note_on channel=13 note=71 velocity=95 time=0.16853925
EXTRACT: note_on channel=4 note=59 velocity=95 time=0
EXTRACT: note_on channel=15 note=71 velocity=95 time=0
EXTRACT: note_on channel=15 note=59 velocity=95 time=0
EXTRACT: note_off channel=9 note=42 velocity=111 time=0
EXTRACT: note_off channel=0 note=43 velocity=95 time=0
EXTRACT: note_on channel=0 note=52 velocity=95 time=0
EXTRACT: note_on channel=0 note=45 velocity=95 time=0
EXTRACT: note_on channel=2 note=52 velocity=95 time=0
EXTRACT: note_on channel=2 note=45 velocity=95 time=0
EXTRACT: note_off channel=8 note=31 velocity=127 time=0
EXTRACT: note_on channel=8 note=33 velocity=111 time=0
EXTRACT: note_off channel=13 note=71 velocity=95 time=0
EXTRACT: note_on channel=13 note=76 velocity=95 time=0
EXTRACT: note_off channel=4 note=59 velocity=95 time=0
EXTRACT: note_on channel=4 note=64 velocity=95 time=0
EXTRACT: note_off channel=15 note=71 velocity=95 time=0
EXTRACT: note_off channel=15 note=59 velocity=95 time=0
EXTRACT: note_on channel=15 note=76 velocity=95 time=0
EXTRACT: note_on channel=15 note=64 velocity=95 time=0
EXTRACT: note_on channel=9 note=82 velocity=111 time=0
EXTRACT: note_on channel=9 note=42 velocity=111 time=0
EXTRACT: note_on channel=9 note=56 velocity=95 time=0
EXTRACT: note_on channel=9 note=36 velocity=111 time=0
EXTRACT: note_off channel=13 note=76 velocity=95 time=0.16853925
EXTRACT: note_on channel=13 note=76 velocity=95 time=0
EXTRACT: note_off channel=4 note=64 velocity=95 time=0
EXTRACT: note_on channel=4 note=64 velocity=95 time=0
EXTRACT: note_off channel=15 note=76 velocity=95 time=0
EXTRACT: note_off channel=15 note=64 velocity=95 time=0
EXTRACT: note_on channel=15 note=76 velocity=95 time=0
EXTRACT: note_on channel=15 note=64 velocity=95 time=0
EXTRACT: note_off channel=9 note=82 velocity=111 time=0
EXTRACT: note_off channel=9 note=42 velocity=111 time=0
EXTRACT: note_off channel=9 note=56 velocity=95 time=0
EXTRACT: note_off channel=9 note=36 velocity=111 time=0
EXTRACT: note_off channel=0 note=52 velocity=95 time=0.16853925
EXTRACT: note_off channel=0 note=45 velocity=95 time=0
EXTRACT: note_on channel=0 note=52 velocity=95 time=0
EXTRACT: note_on channel=0 note=45 velocity=95 time=0
EXTRACT: note_off channel=2 note=52 velocity=95 time=0
EXTRACT: note_off channel=2 note=45 velocity=95 time=0
EXTRACT: note_on channel=2 note=52 velocity=95 time=0
EXTRACT: note_on channel=2 note=45 velocity=95 time=0
EXTRACT: note_off channel=8 note=33 velocity=111 time=0
EXTRACT: note_on channel=8 note=33 velocity=111 time=0
EXTRACT: note_off channel=13 note=76 velocity=95 time=0
EXTRACT: note_on channel=13 note=76 velocity=95 time=0
EXTRACT: note_off channel=4 note=64 velocity=95 time=0
EXTRACT: note_on channel=4 note=64 velocity=95 time=0
EXTRACT: note_off channel=15 note=76 velocity=95 time=0
EXTRACT: note_off channel=15 note=64 velocity=95 time=0
EXTRACT: note_on channel=15 note=76 velocity=95 time=0
EXTRACT: note_on channel=15 note=64 velocity=95 time=0
EXTRACT: note_on channel=9 note=82 velocity=95 time=0
EXTRACT: note_on channel=9 note=42 velocity=111 time=0
EXTRACT: note_on channel=9 note=36 velocity=111 time=0
EXTRACT: note_off channel=13 note=76 velocity=95 time=0.16853925
EXTRACT: note_on channel=13 note=76 velocity=95 time=0
EXTRACT: note_off channel=4 note=64 velocity=95 time=0
EXTRACT: note_on channel=4 note=64 velocity=95 time=0
EXTRACT: note_off channel=15 note=76 velocity=95 time=0
EXTRACT: note_off channel=15 note=64 velocity=95 time=0
EXTRACT: note_on channel=15 note=76 velocity=95 time=0
EXTRACT: note_on channel=15 note=64 velocity=95 time=0
EXTRACT: note_off channel=9 note=82 velocity=95 time=0
EXTRACT: note_off channel=9 note=42 velocity=111 time=0
EXTRACT: note_off channel=9 note=36 velocity=111 time=0
EXTRACT: note_on channel=9 note=82 velocity=79 time=0
EXTRACT: note_off channel=0 note=52 velocity=95 time=0.16853925
EXTRACT: note_off channel=0 note=45 velocity=95 time=0
EXTRACT: note_off channel=2 note=52 velocity=95 time=0
EXTRACT: note_off channel=2 note=45 velocity=95 time=0
EXTRACT: note_off channel=8 note=33 velocity=111 time=0
EXTRACT: note_off channel=13 note=76 velocity=95 time=0
EXTRACT: note_on channel=13 note=76 velocity=95 time=0
EXTRACT: note_off channel=4 note=64 velocity=95 time=0
EXTRACT: note_on channel=4 note=64 velocity=95 time=0
EXTRACT: note_off channel=15 note=76 velocity=95 time=0
EXTRACT: note_off channel=15 note=64 velocity=95 time=0
EXTRACT: note_on channel=15 note=76 velocity=95 time=0
EXTRACT: note_on channel=15 note=64 velocity=95 time=0
EXTRACT: note_off channel=9 note=82 velocity=79 time=0
EXTRACT: note_on channel=9 note=42 velocity=111 time=0
EXTRACT: note_on channel=9 note=38 velocity=127 time=0
EXTRACT: note_on channel=9 note=82 velocity=79 time=0
EXTRACT: note_on channel=9 note=56 velocity=95 time=0
EXTRACT: note_off channel=9 note=42 velocity=111 time=0.16853925
EXTRACT: note_off channel=9 note=38 velocity=127 time=0
EXTRACT: note_off channel=9 note=82 velocity=79 time=0
EXTRACT: note_off channel=9 note=56 velocity=95 time=0
EXTRACT: note_on channel=9 note=82 velocity=95 time=0
EXTRACT: note_off channel=13 note=76 velocity=95 time=0.16853925
EXTRACT: note_on channel=13 note=78 velocity=95 time=0
EXTRACT: note_off channel=4 note=64 velocity=95 time=0
EXTRACT: note_on channel=4 note=66 velocity=95 time=0
EXTRACT: note_off channel=15 note=76 velocity=95 time=0
EXTRACT: note_off channel=15 note=64 velocity=95 time=0
EXTRACT: note_on channel=15 note=78 velocity=95 time=0
EXTRACT: note_on channel=15 note=66 velocity=95 time=0
EXTRACT: note_off channel=9 note=82 velocity=95 time=0
EXTRACT: note_on channel=9 note=42 velocity=127 time=0
EXTRACT: note_on channel=8 note=33 velocity=95 time=0.16853925
EXTRACT: note_off channel=9 note=42 velocity=127 time=0
EXTRACT: note_on channel=9 note=82 velocity=95 time=0
EXTRACT: note_on channel=0 note=54 velocity=95 time=0.16853925
EXTRACT: note_on channel=0 note=47 velocity=95 time=0
EXTRACT: note_on channel=2 note=54 velocity=95 time=0
EXTRACT: note_on channel=2 note=47 velocity=95 time=0
EXTRACT: note_off channel=8 note=33 velocity=95 time=0
EXTRACT: note_on channel=8 note=35 velocity=111 time=0
EXTRACT: note_off channel=13 note=78 velocity=95 time=0
EXTRACT: note_on channel=13 note=79 velocity=95 time=0
EXTRACT: note_off channel=4 note=66 velocity=95 time=0
EXTRACT: note_on channel=4 note=67 velocity=95 time=0
EXTRACT: note_off channel=15 note=78 velocity=95 time=0
EXTRACT: note_off channel=15 note=66 velocity=95 time=0
EXTRACT: note_on channel=15 note=79 velocity=95 time=0
EXTRACT: note_on channel=15 note=67 velocity=95 time=0
EXTRACT: note_off channel=9 note=82 velocity=95 time=0
EXTRACT: note_on channel=9 note=42 velocity=127 time=0
EXTRACT: note_on channel=9 note=36 velocity=111 time=0
EXTRACT: note_on channel=9 note=56 velocity=95 time=0
EXTRACT: note_off channel=9 note=42 velocity=127 time=0.16853925
EXTRACT: note_off channel=9 note=36 velocity=111 time=0
EXTRACT: note_off channel=9 note=56 velocity=95 time=0
EXTRACT: note_on channel=9 note=82 velocity=95 time=0
EXTRACT: note_off channel=0 note=54 velocity=95 time=0.16853925
EXTRACT: note_off channel=0 note=47 velocity=95 time=0
EXTRACT: note_on channel=0 note=47 velocity=95 time=0
EXTRACT: note_off channel=2 note=54 velocity=95 time=0
EXTRACT: note_off channel=2 note=47 velocity=95 time=0
EXTRACT: note_on channel=2 note=47 velocity=95 time=0
EXTRACT: note_off channel=8 note=35 velocity=111 time=0
EXTRACT: note_on channel=8 note=35 velocity=95 time=0
EXTRACT: note_off channel=13 note=79 velocity=95 time=0
EXTRACT: note_on channel=13 note=78 velocity=95 time=0
EXTRACT: note_off channel=4 note=67 velocity=95 time=0
EXTRACT: note_on channel=4 note=66 velocity=95 time=0
EXTRACT: note_off channel=15 note=79 velocity=95 time=0
EXTRACT: note_off channel=15 note=67 velocity=95 time=0
EXTRACT: note_on channel=15 note=78 velocity=95 time=0
EXTRACT: note_on channel=15 note=66 velocity=95 time=0
EXTRACT: note_off channel=9 note=82 velocity=95 time=0
EXTRACT: note_on channel=9 note=42 velocity=111 time=0
EXTRACT: note_on channel=9 note=82 velocity=79 time=0
EXTRACT: note_on channel=9 note=36 velocity=111 time=0
EXTRACT: note_off channel=9 note=42 velocity=111 time=0.16853925
EXTRACT: note_off channel=9 note=82 velocity=79 time=0
EXTRACT: note_off channel=9 note=36 velocity=111 time=0
EXTRACT: note_off channel=0 note=47 velocity=95 time=0
EXTRACT: note_on channel=0 note=47 velocity=95 time=0
EXTRACT: note_on channel=0 note=40 velocity=95 time=0
EXTRACT: note_off channel=2 note=47 velocity=95 time=0
EXTRACT: note_on channel=2 note=47 velocity=95 time=0
EXTRACT: note_on channel=2 note=40 velocity=95 time=0
EXTRACT: note_off channel=8 note=35 velocity=95 time=0
EXTRACT: note_on channel=8 note=28 velocity=111 time=0
EXTRACT: note_off channel=13 note=78 velocity=95 time=0
EXTRACT: note_on channel=13 note=76 velocity=95 time=0
EXTRACT: note_off channel=4 note=66 velocity=95 time=0
EXTRACT: note_on channel=4 note=64 velocity=95 time=0
EXTRACT: note_off channel=15 note=78 velocity=95 time=0
EXTRACT: note_off channel=15 note=66 velocity=95 time=0
EXTRACT: note_on channel=15 note=76 velocity=95 time=0
EXTRACT: note_on channel=15 note=64 velocity=95 time=0
EXTRACT: note_on channel=9 note=56 velocity=95 time=0
EXTRACT: note_on channel=9 note=42 velocity=127 time=0
EXTRACT: note_on channel=9 note=36 velocity=111 time=0
EXTRACT: note_off channel=9 note=56 velocity=95 time=0.16853925
EXTRACT: note_off channel=9 note=42 velocity=127 time=0
EXTRACT: note_off channel=9 note=36 velocity=111 time=0
EXTRACT: note_off channel=0 note=47 velocity=95 time=0.16853925
EXTRACT: note_off channel=0 note=40 velocity=95 time=0
EXTRACT: note_on channel=0 note=47 velocity=95 time=0
EXTRACT: note_on channel=0 note=40 velocity=95 time=0
EXTRACT: note_off channel=2 note=47 velocity=95 time=0
EXTRACT: note_off channel=2 note=40 velocity=95 time=0
EXTRACT: note_on channel=2 note=47 velocity=95 time=0
EXTRACT: note_on channel=2 note=40 velocity=95 time=0
EXTRACT: note_off channel=8 note=28 velocity=111 time=0
EXTRACT: note_on channel=8 note=28 velocity=111 time=0
EXTRACT: note_off channel=13 note=76 velocity=95 time=0
EXTRACT: note_on channel=13 note=79 velocity=70 time=0
EXTRACT: note_off channel=4 note=64 velocity=95 time=0
EXTRACT: note_on channel=4 note=67 velocity=70 time=0
EXTRACT: note_off channel=15 note=76 velocity=95 time=0
EXTRACT: note_off channel=15 note=64 velocity=95 time=0
EXTRACT: note_on channel=9 note=36 velocity=111 time=0
EXTRACT: note_on channel=9 note=42 velocity=111 time=0
EXTRACT: note_off channel=13 note=79 velocity=70 time=0.16853925
EXTRACT: note_off channel=4 note=67 velocity=70 time=0
EXTRACT: note_off channel=9 note=36 velocity=111 time=0
EXTRACT: note_off channel=9 note=42 velocity=111 time=0
EXTRACT: note_off channel=0 note=47 velocity=95 time=0.16853925
EXTRACT: note_off channel=0 note=40 velocity=95 time=0
EXTRACT: note_off channel=2 note=47 velocity=95 time=0
EXTRACT: note_off channel=2 note=40 velocity=95 time=0
EXTRACT: note_off channel=8 note=28 velocity=111 time=0
EXTRACT: note_on channel=9 note=56 velocity=95 time=0
EXTRACT: note_on channel=9 note=42 velocity=111 time=0
EXTRACT: note_on channel=9 note=38 velocity=111 time=0
EXTRACT: note_off channel=9 note=56 velocity=95 time=0.16853925
EXTRACT: note_off channel=9 note=42 velocity=111 time=0
EXTRACT: note_off channel=9 note=38 velocity=111 time=0
EXTRACT: note_on channel=9 note=42 velocity=111 time=0.16853925
EXTRACT: note_off channel=9 note=42 velocity=111 time=0.16853925
EXTRACT: note_on channel=9 note=42 velocity=111 time=0.16853925
EXTRACT: note_on channel=9 note=36 velocity=111 time=0
EXTRACT: note_on channel=9 note=56 velocity=95 time=0
EXTRACT: note_off channel=9 note=42 velocity=111 time=0.16853925
EXTRACT: note_off channel=9 note=36 velocity=111 time=0
EXTRACT: note_off channel=9 note=56 velocity=95 time=0
EXTRACT: note_on channel=9 note=42 velocity=111 time=0.16853925
EXTRACT: note_on channel=9 note=36 velocity=111 time=0
EXTRACT: note_off channel=9 note=42 velocity=111 time=0.16853925
EXTRACT: note_off channel=9 note=36 velocity=111 time=0
EXTRACT: note_on channel=9 note=42 velocity=111 time=0.16853925
EXTRACT: note_on channel=9 note=38 velocity=127 time=0
EXTRACT: note_on channel=9 note=56 velocity=95 time=0
EXTRACT: note_off channel=9 note=42 velocity=111 time=0.16853925
EXTRACT: note_off channel=9 note=38 velocity=127 time=0
EXTRACT: note_off channel=9 note=56 velocity=95 time=0
EXTRACT: note_on channel=8 note=35 velocity=95 time=0.16853925
EXTRACT: note_on channel=9 note=42 velocity=111 time=0
EXTRACT: note_off channel=8 note=35 velocity=95 time=0.16853925
EXTRACT: note_on channel=8 note=31 velocity=95 time=0
EXTRACT: note_off channel=9 note=42 velocity=111 time=0
EXTRACT: note_on channel=0 note=47 velocity=95 time=0.16853925
EXTRACT: note_on channel=0 note=40 velocity=95 time=0
EXTRACT: note_on channel=2 note=64 velocity=95 time=0
EXTRACT: note_on channel=2 note=59 velocity=95 time=0
EXTRACT: note_on channel=2 note=52 velocity=95 time=0
EXTRACT: note_on channel=2 note=47 velocity=95 time=0
EXTRACT: note_on channel=2 note=40 velocity=95 time=0
EXTRACT: note_off channel=8 note=31 velocity=95 time=0
EXTRACT: note_on channel=8 note=28 velocity=111 time=0
EXTRACT: note_on channel=9 note=36 velocity=111 time=0
EXTRACT: note_on channel=9 note=42 velocity=111 time=0
EXTRACT: note_on channel=9 note=56 velocity=95 time=0
EXTRACT: note_off channel=9 note=36 velocity=111 time=0.16853925
EXTRACT: note_off channel=9 note=42 velocity=111 time=0
EXTRACT: note_off channel=9 note=56 velocity=95 time=0
EXTRACT: note_off channel=0 note=47 velocity=95 time=0.16853925
EXTRACT: note_off channel=0 note=40 velocity=95 time=0
EXTRACT: note_on channel=0 note=47 velocity=95 time=0
EXTRACT: note_on channel=0 note=40 velocity=95 time=0
EXTRACT: note_off channel=2 note=64 velocity=95 time=0
EXTRACT: note_off channel=2 note=59 velocity=95 time=0
EXTRACT: note_off channel=2 note=52 velocity=95 time=0
EXTRACT: note_off channel=2 note=47 velocity=95 time=0
EXTRACT: note_off channel=2 note=40 velocity=95 time=0
EXTRACT: note_on channel=2 note=64 velocity=95 time=0
EXTRACT: note_on channel=2 note=59 velocity=95 time=0
EXTRACT: note_on channel=2 note=52 velocity=95 time=0
EXTRACT: note_on channel=2 note=47 velocity=95 time=0
EXTRACT: note_on channel=2 note=40 velocity=95 time=0
EXTRACT: note_off channel=8 note=28 velocity=111 time=0
EXTRACT: note_on channel=8 note=28 velocity=111 time=0
EXTRACT: note_on channel=9 note=42 velocity=111 time=0
EXTRACT: note_on channel=9 note=36 velocity=111 time=0
EXTRACT: note_off channel=9 note=42 velocity=111 time=0.16853925
EXTRACT: note_off channel=9 note=36 velocity=111 time=0
EXTRACT: note_off channel=0 note=47 velocity=95 time=0.16853925
EXTRACT: note_off channel=0 note=40 velocity=95 time=0
EXTRACT: note_off channel=2 note=64 velocity=95 time=0
EXTRACT: note_off channel=2 note=59 velocity=95 time=0
EXTRACT: note_off channel=2 note=52 velocity=95 time=0
EXTRACT: note_off channel=2 note=47 velocity=95 time=0
EXTRACT: note_off channel=2 note=40 velocity=95 time=0
EXTRACT: note_off channel=8 note=28 velocity=111 time=0
EXTRACT: note_on channel=9 note=38 velocity=127 time=0
EXTRACT: note_on channel=9 note=42 velocity=111 time=0
EXTRACT: note_on channel=9 note=56 velocity=95 time=0
EXTRACT: note_off channel=9 note=38 velocity=127 time=0.16853925
EXTRACT: note_off channel=9 note=42 velocity=111 time=0
EXTRACT: note_off channel=9 note=56 velocity=95 time=0
EXTRACT: note_on channel=9 note=42 velocity=127 time=0.16853925
EXTRACT: note_off channel=9 note=42 velocity=127 time=0.16853925
EXTRACT: note_on channel=10 note=38 velocity=111 time=0.084269625
EXTRACT: pitchwheel channel=1 pitch=0 time=0.084269625
EXTRACT: note_on channel=1 note=50 velocity=95 time=0
EXTRACT: pitchwheel channel=3 pitch=0 time=0
EXTRACT: note_on channel=3 note=74 velocity=111 time=0
EXTRACT: pitchwheel channel=3 pitch=0 time=0
EXTRACT: note_on channel=3 note=62 velocity=95 time=0
EXTRACT: note_off channel=10 note=38 velocity=111 time=0
EXTRACT: note_on channel=10 note=40 velocity=111 time=0
EXTRACT: note_on channel=9 note=56 velocity=95 time=0
EXTRACT: note_on channel=9 note=42 velocity=127 time=0
EXTRACT: note_on channel=9 note=36 velocity=111 time=0
EXTRACT: pitchwheel channel=3 pitch=0 time=0.0421348125
EXTRACT: pitchwheel channel=1 pitch=0 time=0.028089875
EXTRACT: pitchwheel channel=3 pitch=0 time=0
EXTRACT: pitchwheel channel=3 pitch=0 time=0
EXTRACT: pitchwheel channel=1 pitch=128 time=0.000702246875
EXTRACT: pitchwheel channel=3 pitch=128 time=0
EXTRACT: pitchwheel channel=3 pitch=128 time=0
EXTRACT: pitchwheel channel=1 pitch=256 time=0.000702246875
EXTRACT: pitchwheel channel=3 pitch=256 time=0
EXTRACT: pitchwheel channel=3 pitch=256 time=0
EXTRACT: pitchwheel channel=1 pitch=384 time=0.000702246875
EXTRACT: pitchwheel channel=3 pitch=384 time=0
EXTRACT: pitchwheel channel=3 pitch=384 time=0
EXTRACT: pitchwheel channel=1 pitch=512 time=0.000702246875
EXTRACT: pitchwheel channel=3 pitch=512 time=0
EXTRACT: pitchwheel channel=3 pitch=512 time=0
EXTRACT: pitchwheel channel=1 pitch=640 time=0.000702246875
EXTRACT: pitchwheel channel=3 pitch=640 time=0
EXTRACT: pitchwheel channel=3 pitch=640 time=0
EXTRACT: pitchwheel channel=1 pitch=768 time=0.000702246875
EXTRACT: pitchwheel channel=3 pitch=768 time=0
EXTRACT: pitchwheel channel=3 pitch=768 time=0
EXTRACT: pitchwheel channel=1 pitch=896 time=0.000702246875
EXTRACT: pitchwheel channel=3 pitch=896 time=0
EXTRACT: pitchwheel channel=3 pitch=896 time=0
EXTRACT: pitchwheel channel=1 pitch=1024 time=0.000702246875
EXTRACT: pitchwheel channel=3 pitch=1024 time=0
EXTRACT: pitchwheel channel=3 pitch=1024 time=0
EXTRACT: pitchwheel channel=1 pitch=1152 time=0.000702246875
EXTRACT: pitchwheel channel=3 pitch=1152 time=0
EXTRACT: pitchwheel channel=3 pitch=1152 time=0
EXTRACT: pitchwheel channel=1 pitch=1280 time=0.000702246875
EXTRACT: pitchwheel channel=3 pitch=1280 time=0
EXTRACT: pitchwheel channel=3 pitch=1280 time=0
EXTRACT: pitchwheel channel=1 pitch=1408 time=0.000702246875
EXTRACT: pitchwheel channel=3 pitch=1408 time=0
EXTRACT: pitchwheel channel=3 pitch=1408 time=0
EXTRACT: pitchwheel channel=1 pitch=1408 time=0.0063202218749999995
EXTRACT: pitchwheel channel=3 pitch=1408 time=0
EXTRACT: pitchwheel channel=3 pitch=1408 time=0
EXTRACT: pitchwheel channel=1 pitch=1408 time=0.084269625
EXTRACT: pitchwheel channel=1 pitch=0 time=0
EXTRACT: note_off channel=1 note=50 velocity=95 time=0
EXTRACT: note_on channel=0 note=50 velocity=95 time=0
EXTRACT: pitchwheel channel=3 pitch=1408 time=0
EXTRACT: pitchwheel channel=3 pitch=0 time=0
EXTRACT: note_off channel=3 note=74 velocity=111 time=0
EXTRACT: pitchwheel channel=3 pitch=1408 time=0
EXTRACT: pitchwheel channel=3 pitch=0 time=0
EXTRACT: note_off channel=3 note=62 velocity=95 time=0
EXTRACT: note_on channel=2 note=74 velocity=111 time=0
EXTRACT: note_on channel=2 note=62 velocity=95 time=0
EXTRACT: note_off channel=10 note=40 velocity=111 time=0
EXTRACT: note_on channel=8 note=38 velocity=95 time=0
EXTRACT: note_off channel=9 note=56 velocity=95 time=0
EXTRACT: note_off channel=9 note=42 velocity=127 time=0
EXTRACT: note_off channel=9 note=36 velocity=111 time=0
EXTRACT: note_off channel=0 note=50 velocity=95 time=0.16853925
EXTRACT: note_on channel=0 note=47 velocity=95 time=0
EXTRACT: note_off channel=2 note=74 velocity=111 time=0
EXTRACT: note_off channel=2 note=62 velocity=95 time=0
EXTRACT: note_on channel=2 note=71 velocity=111 time=0
EXTRACT: note_on channel=2 note=59 velocity=95 time=0
EXTRACT: note_off channel=8 note=38 velocity=95 time=0
EXTRACT: note_on channel=8 note=35 velocity=95 time=0
EXTRACT: note_on channel=9 note=42 velocity=111 time=0
EXTRACT: note_on channel=9 note=36 velocity=111 time=0
EXTRACT: note_off channel=9 note=42 velocity=111 time=0.16853925
EXTRACT: note_off channel=9 note=36 velocity=111 time=0
EXTRACT: note_off channel=0 note=47 velocity=95 time=0.16853925
EXTRACT: note_on channel=0 note=45 velocity=95 time=0
EXTRACT: note_off channel=2 note=71 velocity=111 time=0
EXTRACT: note_off channel=2 note=59 velocity=95 time=0
EXTRACT: note_on channel=2 note=69 velocity=111 time=0
EXTRACT: note_on channel=2 note=57 velocity=95 time=0
EXTRACT: note_off channel=8 note=35 velocity=95 time=0
EXTRACT: note_on channel=8 note=33 velocity=111 time=0
EXTRACT: note_on channel=9 note=56 velocity=95 time=0
EXTRACT: note_on channel=9 note=42 velocity=127 time=0
EXTRACT: note_on channel=9 note=38 velocity=111 time=0
EXTRACT: note_off channel=0 note=45 velocity=95 time=0.16853925
EXTRACT: pitchwheel channel=1 pitch=0 time=0
EXTRACT: note_on channel=1 note=43 velocity=95 time=0
EXTRACT: note_off channel=2 note=69 velocity=111 time=0
EXTRACT: note_off channel=2 note=57 velocity=95 time=0
EXTRACT: pitchwheel channel=3 pitch=0 time=0
EXTRACT: note_on channel=3 note=67 velocity=111 time=0
EXTRACT: pitchwheel channel=3 pitch=0 time=0
EXTRACT: note_on channel=3 note=55 velocity=95 time=0
EXTRACT: note_off channel=8 note=33 velocity=111 time=0
EXTRACT: note_on channel=8 note=31 velocity=111 time=0
EXTRACT: note_off channel=9 note=56 velocity=95 time=0
EXTRACT: note_off channel=9 note=42 velocity=127 time=0
EXTRACT: note_off channel=9 note=38 velocity=111 time=0
EXTRACT: pitchwheel channel=1 pitch=0 time=0.1264044375
EXTRACT: pitchwheel channel=3 pitch=0 time=0
EXTRACT: pitchwheel channel=3 pitch=0 time=0
EXTRACT: note_on channel=9 note=42 velocity=127 time=0.0421348125
EXTRACT: note_on channel=9 note=41 velocity=127 time=0
EXTRACT: pitchwheel channel=1 pitch=128 time=0.02106740625
EXTRACT: pitchwheel channel=3 pitch=128 time=0
EXTRACT: pitchwheel channel=3 pitch=128 time=0
EXTRACT: pitchwheel channel=1 pitch=256 time=0.06320221875
EXTRACT: pitchwheel channel=1 pitch=256 time=0
EXTRACT: pitchwheel channel=3 pitch=256 time=0
EXTRACT: pitchwheel channel=3 pitch=256 time=0
EXTRACT: pitchwheel channel=3 pitch=256 time=0
EXTRACT: pitchwheel channel=3 pitch=256 time=0
EXTRACT: note_on channel=13 note=71 velocity=111 time=0.084269625
EXTRACT: note_on channel=4 note=59 velocity=111 time=0
EXTRACT: note_off channel=9 note=42 velocity=127 time=0
EXTRACT: note_off channel=9 note=41 velocity=127 time=0
EXTRACT: pitchwheel channel=1 pitch=256 time=0.16853925
EXTRACT: pitchwheel channel=1 pitch=0 time=0
EXTRACT: note_off channel=1 note=43 velocity=95 time=0
EXTRACT: note_on channel=0 note=47 velocity=95 time=0
EXTRACT: note_on channel=0 note=40 velocity=95 time=0
EXTRACT: pitchwheel channel=3 pitch=256 time=0
EXTRACT: pitchwheel channel=3 pitch=0 time=0
EXTRACT: note_off channel=3 note=67 velocity=111 time=0
EXTRACT: pitchwheel channel=3 pitch=256 time=0
EXTRACT: pitchwheel channel=3 pitch=0 time=0
EXTRACT: note_off channel=3 note=55 velocity=95 time=0
EXTRACT: note_on channel=2 note=47 velocity=95 time=0
EXTRACT: note_on channel=2 note=40 velocity=95 time=0
EXTRACT: note_off channel=8 note=31 velocity=111 time=0
EXTRACT: note_on channel=8 note=28 velocity=111 time=0
EXTRACT: note_off channel=13 note=71 velocity=111 time=0
EXTRACT: note_on channel=13 note=76 velocity=111 time=0
EXTRACT: note_off channel=4 note=59 velocity=111 time=0
EXTRACT: note_on channel=4 note=64 velocity=111 time=0
EXTRACT: note_on channel=9 note=56 velocity=95 time=0
EXTRACT: note_on channel=9 note=36 velocity=111 time=0
EXTRACT: note_on channel=9 note=42 velocity=127 time=0
EXTRACT: note_off channel=9 note=56 velocity=95 time=0.16853925
EXTRACT: note_off channel=9 note=36 velocity=111 time=0
EXTRACT: note_off channel=9 note=42 velocity=127 time=0
EXTRACT: note_off channel=0 note=47 velocity=95 time=0.16853925
EXTRACT: note_off channel=0 note=40 velocity=95 time=0
EXTRACT: note_on channel=0 note=47 velocity=95 time=0
EXTRACT: note_on channel=0 note=40 velocity=95 time=0
EXTRACT: note_off channel=2 note=47 velocity=95 time=0
EXTRACT: note_off channel=2 note=40 velocity=95 time=0
EXTRACT: note_on channel=2 note=47 velocity=95 time=0
EXTRACT: note_on channel=2 note=40 velocity=95 time=0
EXTRACT: note_off channel=8 note=28 velocity=111 time=0
EXTRACT: note_on channel=8 note=28 velocity=111 time=0
EXTRACT: note_off channel=13 note=76 velocity=111 time=0
EXTRACT: note_on channel=13 note=74 velocity=111 time=0
EXTRACT: note_off channel=4 note=64 velocity=111 time=0
EXTRACT: note_on channel=4 note=62 velocity=111 time=0
EXTRACT: note_on channel=9 note=36 velocity=111 time=0
EXTRACT: note_on channel=9 note=42 velocity=111 time=0
EXTRACT: note_off channel=13 note=74 velocity=111 time=0.16853925
EXTRACT: note_off channel=4 note=62 velocity=111 time=0
EXTRACT: note_off channel=9 note=36 velocity=111 time=0
EXTRACT: note_off channel=9 note=42 velocity=111 time=0
EXTRACT: note_off channel=0 note=47 velocity=95 time=0.16853925
EXTRACT: note_off channel=0 note=40 velocity=95 time=0
EXTRACT: note_off channel=2 note=47 velocity=95 time=0
EXTRACT: note_off channel=2 note=40 velocity=95 time=0
EXTRACT: note_off channel=8 note=28 velocity=111 time=0
EXTRACT: note_on channel=13 note=71 velocity=111 time=0
EXTRACT: note_on channel=4 note=59 velocity=111 time=0
EXTRACT: note_on channel=9 note=38 velocity=111 time=0
EXTRACT: note_on channel=9 note=56 velocity=95 time=0
EXTRACT: note_on channel=9 note=42 velocity=111 time=0
EXTRACT: note_off channel=9 note=38 velocity=111 time=0.16853925
EXTRACT: note_off channel=9 note=56 velocity=95 time=0
EXTRACT: note_off channel=9 note=42 velocity=111 time=0
EXTRACT: note_off channel=13 note=71 velocity=111 time=0.16853925
EXTRACT: note_on channel=13 note=67 velocity=111 time=0
EXTRACT: note_off channel=4 note=59 velocity=111 time=0
EXTRACT: note_on channel=4 note=55 velocity=111 time=0
EXTRACT: note_on channel=9 note=42 velocity=111 time=0
EXTRACT: note_off channel=13 note=67 velocity=111 time=0.16853925
EXTRACT: note_on channel=13 note=69 velocity=111 time=0
EXTRACT: note_off channel=4 note=55 velocity=111 time=0
EXTRACT: note_on channel=4 note=57 velocity=111 time=0
EXTRACT: note_off channel=9 note=42 velocity=111 time=0
EXTRACT: note_on channel=9 note=56 velocity=95 time=0.16853925
EXTRACT: note_on channel=9 note=42 velocity=111 time=0
EXTRACT: note_on channel=9 note=36 velocity=111 time=0
EXTRACT: note_off channel=13 note=69 velocity=111 time=0.16853925
EXTRACT: note_off channel=4 note=57 velocity=111 time=0
EXTRACT: note_off channel=9 note=56 velocity=95 time=0
EXTRACT: note_off channel=9 note=42 velocity=111 time=0
EXTRACT: note_off channel=9 note=36 velocity=111 time=0
EXTRACT: note_on channel=13 note=69 velocity=111 time=0.16853925
EXTRACT: note_on channel=4 note=57 velocity=111 time=0
EXTRACT: note_on channel=9 note=42 velocity=111 time=0
EXTRACT: note_on channel=9 note=36 velocity=111 time=0
EXTRACT: note_off channel=13 note=69 velocity=111 time=0.16853925
EXTRACT: note_on channel=13 note=69 velocity=111 time=0
EXTRACT: note_off channel=4 note=57 velocity=111 time=0
EXTRACT: note_on channel=4 note=57 velocity=111 time=0
EXTRACT: note_off channel=9 note=42 velocity=111 time=0
EXTRACT: note_off channel=9 note=36 velocity=111 time=0
EXTRACT: note_off channel=13 note=69 velocity=111 time=0.16853925
EXTRACT: note_on channel=13 note=69 velocity=111 time=0
EXTRACT: note_off channel=4 note=57 velocity=111 time=0
EXTRACT: note_on channel=4 note=57 velocity=111 time=0
EXTRACT: note_on channel=9 note=42 velocity=111 time=0
EXTRACT: note_on channel=9 note=38 velocity=127 time=0
EXTRACT: note_on channel=9 note=56 velocity=95 time=0
EXTRACT: note_off channel=13 note=69 velocity=111 time=0.16853925
EXTRACT: note_on channel=13 note=69 velocity=111 time=0
EXTRACT: note_off channel=4 note=57 velocity=111 time=0
EXTRACT: note_on channel=4 note=57 velocity=111 time=0
EXTRACT: note_off channel=9 note=42 velocity=111 time=0
EXTRACT: note_off channel=9 note=38 velocity=127 time=0
EXTRACT: note_off channel=9 note=56 velocity=95 time=0
EXTRACT: note_off channel=13 note=69 velocity=111 time=0.16853925
EXTRACT: note_on channel=13 note=67 velocity=111 time=0
EXTRACT: note_off channel=4 note=57 velocity=111 time=0
EXTRACT: note_on channel=4 note=55 velocity=111 time=0
EXTRACT: note_on channel=9 note=42 velocity=111 time=0
EXTRACT: note_on channel=8 note=28 velocity=95 time=0.16853925
EXTRACT: note_off channel=9 note=42 velocity=111 time=0
EXTRACT: note_on channel=0 note=52 velocity=95 time=0.16853925
EXTRACT: note_on channel=0 note=47 velocity=95 time=0
EXTRACT: note_on channel=0 note=40 velocity=95 time=0
EXTRACT: note_on channel=2 note=52 velocity=95 time=0
EXTRACT: note_on channel=2 note=47 velocity=95 time=0
EXTRACT: note_on channel=2 note=40 velocity=95 time=0
EXTRACT: note_off channel=8 note=28 velocity=95 time=0
EXTRACT: note_on channel=8 note=28 velocity=111 time=0
EXTRACT: note_off channel=13 note=67 velocity=111 time=0
EXTRACT: note_on channel=13 note=71 velocity=111 time=0
EXTRACT: note_off channel=4 note=55 velocity=111 time=0
EXTRACT: note_on channel=4 note=59 velocity=111 time=0
EXTRACT: note_on channel=9 note=56 velocity=95 time=0
EXTRACT: note_on channel=9 note=42 velocity=111 time=0
EXTRACT: note_on channel=9 note=36 velocity=111 time=0
EXTRACT: note_off channel=9 note=56 velocity=95 time=0.16853925
EXTRACT: note_off channel=9 note=42 velocity=111 time=0
EXTRACT: note_off channel=9 note=36 velocity=111 time=0
EXTRACT: note_off channel=0 note=52 velocity=95 time=0.16853925
EXTRACT: note_off channel=0 note=47 velocity=95 time=0
EXTRACT: note_off channel=0 note=40 velocity=95 time=0
EXTRACT: note_on channel=0 note=52 velocity=95 time=0
EXTRACT: note_on channel=0 note=47 velocity=95 time=0
EXTRACT: note_on channel=0 note=40 velocity=95 time=0
EXTRACT: note_off channel=2 note=52 velocity=95 time=0
EXTRACT: note_off channel=2 note=47 velocity=95 time=0
EXTRACT: note_off channel=2 note=40 velocity=95 time=0
EXTRACT: note_on channel=2 note=52 velocity=95 time=0
EXTRACT: note_on channel=2 note=47 velocity=95 time=0
EXTRACT: note_on channel=2 note=40 velocity=95 time=0
EXTRACT: note_off channel=8 note=28 velocity=111 time=0
EXTRACT: note_on channel=8 note=28 velocity=111 time=0
EXTRACT: note_on channel=9 note=36 velocity=111 time=0
EXTRACT: note_on channel=9 note=42 velocity=111 time=0
EXTRACT: note_off channel=9 note=36 velocity=111 time=0.16853925
EXTRACT: note_off channel=9 note=42 velocity=111 time=0
EXTRACT: note_off channel=0 note=52 velocity=95 time=0.16853925
EXTRACT: note_off channel=0 note=47 velocity=95 time=0
EXTRACT: note_off channel=0 note=40 velocity=95 time=0
EXTRACT: note_off channel=2 note=52 velocity=95 time=0
EXTRACT: note_off channel=2 note=47 velocity=95 time=0
EXTRACT: note_off channel=2 note=40 velocity=95 time=0
EXTRACT: note_off channel=8 note=28 velocity=111 time=0
EXTRACT: note_off channel=13 note=71 velocity=111 time=0
EXTRACT: note_off channel=4 note=59 velocity=111 time=0
EXTRACT: note_on channel=9 note=56 velocity=95 time=0
EXTRACT: note_on channel=9 note=42 velocity=111 time=0
EXTRACT: note_on channel=9 note=38 velocity=127 time=0
EXTRACT: note_off channel=9 note=56 velocity=95 time=0.16853925
EXTRACT: note_off channel=9 note=42 velocity=111 time=0
EXTRACT: note_off channel=9 note=38 velocity=127 time=0
EXTRACT: note_on channel=9 note=42 velocity=127 time=0.16853925
EXTRACT: note_off channel=9 note=42 velocity=127 time=0.16853925
EXTRACT: note_on channel=10 note=38 velocity=111 time=0.084269625
EXTRACT: pitchwheel channel=1 pitch=0 time=0.084269625
EXTRACT: note_on channel=1 note=50 velocity=95 time=0
EXTRACT: pitchwheel channel=3 pitch=0 time=0
EXTRACT: note_on channel=3 note=74 velocity=111 time=0
EXTRACT: pitchwheel channel=3 pitch=0 time=0
EXTRACT: note_on channel=3 note=62 velocity=95 time=0
EXTRACT: note_off channel=10 note=38 velocity=111 time=0
EXTRACT: note_on channel=10 note=40 velocity=111 time=0
EXTRACT: note_on channel=9 note=36 velocity=111 time=0
EXTRACT: note_on channel=9 note=56 velocity=95 time=0
EXTRACT: note_on channel=9 note=42 velocity=127 time=0
EXTRACT: pitchwheel channel=3 pitch=0 time=0.0421348125
EXTRACT: pitchwheel channel=1 pitch=0 time=0.028089875
EXTRACT: pitchwheel channel=3 pitch=0 time=0
EXTRACT: pitchwheel channel=3 pitch=0 time=0
EXTRACT: pitchwheel channel=1 pitch=128 time=0.000702246875
EXTRACT: pitchwheel channel=3 pitch=128 time=0
EXTRACT: pitchwheel channel=3 pitch=128 time=0
EXTRACT: pitchwheel channel=1 pitch=256 time=0.000702246875
EXTRACT: pitchwheel channel=3 pitch=256 time=0
EXTRACT: pitchwheel channel=3 pitch=256 time=0
EXTRACT: pitchwheel channel=1 pitch=384 time=0.000702246875
EXTRACT: pitchwheel channel=3 pitch=384 time=0
EXTRACT: pitchwheel channel=3 pitch=384 time=0
EXTRACT: pitchwheel channel=1 pitch=512 time=0.000702246875
EXTRACT: pitchwheel channel=3 pitch=512 time=0
EXTRACT: pitchwheel channel=3 pitch=512 time=0
EXTRACT: pitchwheel channel=1 pitch=640 time=0.000702246875
EXTRACT: pitchwheel channel=3 pitch=640 time=0
EXTRACT: pitchwheel channel=3 pitch=640 time=0
EXTRACT: pitchwheel channel=1 pitch=768 time=0.000702246875
EXTRACT: pitchwheel channel=3 pitch=768 time=0
EXTRACT: pitchwheel channel=3 pitch=768 time=0
EXTRACT: pitchwheel channel=1 pitch=896 time=0.000702246875
EXTRACT: pitchwheel channel=3 pitch=896 time=0
EXTRACT: pitchwheel channel=3 pitch=896 time=0
EXTRACT: pitchwheel channel=1 pitch=1024 time=0.000702246875
EXTRACT: pitchwheel channel=3 pitch=1024 time=0
EXTRACT: pitchwheel channel=3 pitch=1024 time=0
EXTRACT: pitchwheel channel=1 pitch=1152 time=0.000702246875
EXTRACT: pitchwheel channel=3 pitch=1152 time=0
EXTRACT: pitchwheel channel=3 pitch=1152 time=0
EXTRACT: pitchwheel channel=1 pitch=1280 time=0.000702246875
EXTRACT: pitchwheel channel=3 pitch=1280 time=0
EXTRACT: pitchwheel channel=3 pitch=1280 time=0
EXTRACT: pitchwheel channel=1 pitch=1408 time=0.000702246875
EXTRACT: pitchwheel channel=3 pitch=1408 time=0
EXTRACT: pitchwheel channel=3 pitch=1408 time=0
EXTRACT: pitchwheel channel=1 pitch=1408 time=0.0063202218749999995
EXTRACT: pitchwheel channel=3 pitch=1408 time=0
EXTRACT: pitchwheel channel=3 pitch=1408 time=0
EXTRACT: pitchwheel channel=1 pitch=1408 time=0.084269625
EXTRACT: pitchwheel channel=1 pitch=0 time=0
EXTRACT: note_off channel=1 note=50 velocity=95 time=0
EXTRACT: note_on channel=0 note=50 velocity=95 time=0
EXTRACT: pitchwheel channel=3 pitch=1408 time=0
EXTRACT: pitchwheel channel=3 pitch=0 time=0
EXTRACT: note_off channel=3 note=74 velocity=111 time=0
EXTRACT: pitchwheel channel=3 pitch=1408 time=0
EXTRACT: pitchwheel channel=3 pitch=0 time=0
EXTRACT: note_off channel=3 note=62 velocity=95 time=0
EXTRACT: note_on channel=2 note=74 velocity=111 time=0
EXTRACT: note_on channel=2 note=62 velocity=95 time=0
EXTRACT: note_off channel=10 note=40 velocity=111 time=0
EXTRACT: note_on channel=8 note=38 velocity=95 time=0
EXTRACT: note_off channel=9 note=36 velocity=111 time=0
EXTRACT: note_off channel=9 note=56 velocity=95 time=0
EXTRACT: note_off channel=9 note=42 velocity=127 time=0
EXTRACT: note_off channel=0 note=50 velocity=95 time=0.16853925
EXTRACT: note_on channel=0 note=47 velocity=95 time=0
EXTRACT: note_off channel=2 note=74 velocity=111 time=0
EXTRACT: note_off channel=2 note=62 velocity=95 time=0
EXTRACT: note_on channel=2 note=71 velocity=111 time=0
EXTRACT: note_on channel=2 note=59 velocity=95 time=0
EXTRACT: note_off channel=8 note=38 velocity=95 time=0
EXTRACT: note_on channel=8 note=35 velocity=95 time=0
EXTRACT: note_on channel=9 note=36 velocity=111 time=0
EXTRACT: note_on channel=9 note=42 velocity=111 time=0
EXTRACT: note_off channel=9 note=36 velocity=111 time=0.16853925
EXTRACT: note_off channel=9 note=42 velocity=111 time=0
EXTRACT: note_off channel=0 note=47 velocity=95 time=0.16853925
EXTRACT: note_on channel=0 note=45 velocity=95 time=0
EXTRACT: note_off channel=2 note=71 velocity=111 time=0
EXTRACT: note_off channel=2 note=59 velocity=95 time=0
EXTRACT: note_on channel=2 note=69 velocity=111 time=0
EXTRACT: note_on channel=2 note=57 velocity=95 time=0
EXTRACT: note_off channel=8 note=35 velocity=95 time=0
EXTRACT: note_on channel=8 note=33 velocity=111 time=0
EXTRACT: note_on channel=9 note=56 velocity=95 time=0
EXTRACT: note_on channel=9 note=38 velocity=111 time=0
EXTRACT: note_on channel=9 note=42 velocity=127 time=0
EXTRACT: note_off channel=0 note=45 velocity=95 time=0.16853925
EXTRACT: pitchwheel channel=1 pitch=0 time=0
EXTRACT: note_on channel=1 note=43 velocity=95 time=0
EXTRACT: note_off channel=2 note=69 velocity=111 time=0
EXTRACT: note_off channel=2 note=57 velocity=95 time=0
EXTRACT: pitchwheel channel=3 pitch=0 time=0
EXTRACT: note_on channel=3 note=67 velocity=111 time=0
EXTRACT: pitchwheel channel=3 pitch=0 time=0
EXTRACT: note_on channel=3 note=55 velocity=95 time=0
EXTRACT: note_off channel=8 note=33 velocity=111 time=0
EXTRACT: note_on channel=8 note=31 velocity=111 time=0
EXTRACT: note_off channel=9 note=56 velocity=95 time=0
EXTRACT: note_off channel=9 note=38 velocity=111 time=0
EXTRACT: note_off channel=9 note=42 velocity=127 time=0
EXTRACT: pitchwheel channel=1 pitch=0 time=0.1264044375
EXTRACT: pitchwheel channel=3 pitch=0 time=0
EXTRACT: pitchwheel channel=3 pitch=0 time=0
EXTRACT: note_on channel=9 note=41 velocity=127 time=0.0421348125
EXTRACT: note_on channel=9 note=42 velocity=127 time=0
EXTRACT: pitchwheel channel=1 pitch=128 time=0.02106740625
EXTRACT: pitchwheel channel=3 pitch=128 time=0
EXTRACT: pitchwheel channel=3 pitch=128 time=0
EXTRACT: pitchwheel channel=1 pitch=256 time=0.06320221875
EXTRACT: pitchwheel channel=1 pitch=256 time=0
EXTRACT: pitchwheel channel=3 pitch=256 time=0
EXTRACT: pitchwheel channel=3 pitch=256 time=0
EXTRACT: pitchwheel channel=3 pitch=256 time=0
EXTRACT: pitchwheel channel=3 pitch=256 time=0
EXTRACT: note_on channel=13 note=71 velocity=95 time=0.084269625
EXTRACT: note_on channel=4 note=59 velocity=95 time=0
EXTRACT: note_off channel=9 note=41 velocity=127 time=0
EXTRACT: note_off channel=9 note=42 velocity=127 time=0
EXTRACT: pitchwheel channel=1 pitch=256 time=0.16853925
EXTRACT: pitchwheel channel=1 pitch=0 time=0
EXTRACT: note_off channel=1 note=43 velocity=95 time=0
EXTRACT: note_on channel=0 note=47 velocity=95 time=0
EXTRACT: note_on channel=0 note=40 velocity=95 time=0
EXTRACT: pitchwheel channel=3 pitch=256 time=0
EXTRACT: pitchwheel channel=3 pitch=0 time=0
EXTRACT: note_off channel=3 note=67 velocity=111 time=0
EXTRACT: pitchwheel channel=3 pitch=256 time=0
EXTRACT: pitchwheel channel=3 pitch=0 time=0
EXTRACT: note_off channel=3 note=55 velocity=95 time=0
EXTRACT: note_on channel=2 note=52 velocity=95 time=0
EXTRACT: note_on channel=2 note=47 velocity=95 time=0
EXTRACT: note_on channel=2 note=40 velocity=95 time=0
EXTRACT: note_off channel=8 note=31 velocity=111 time=0
EXTRACT: note_on channel=8 note=28 velocity=111 time=0
EXTRACT: note_off channel=13 note=71 velocity=95 time=0
EXTRACT: note_on channel=13 note=76 velocity=127 time=0
EXTRACT: note_off channel=4 note=59 velocity=95 time=0
EXTRACT: note_on channel=4 note=64 velocity=127 time=0
EXTRACT: note_on channel=9 note=56 velocity=95 time=0
EXTRACT: note_on channel=9 note=36 velocity=111 time=0
EXTRACT: note_on channel=9 note=42 velocity=127 time=0
EXTRACT: note_off channel=13 note=76 velocity=127 time=0.16853925
EXTRACT: note_off channel=4 note=64 velocity=127 time=0
EXTRACT: note_off channel=9 note=56 velocity=95 time=0
EXTRACT: note_off channel=9 note=36 velocity=111 time=0
EXTRACT: note_off channel=9 note=42 velocity=127 time=0
EXTRACT: note_off channel=0 note=47 velocity=95 time=0.16853925
EXTRACT: note_off channel=0 note=40 velocity=95 time=0
EXTRACT: note_on channel=0 note=47 velocity=95 time=0
EXTRACT: note_on channel=0 note=40 velocity=95 time=0
EXTRACT: note_off channel=2 note=52 velocity=95 time=0
EXTRACT: note_off channel=2 note=47 velocity=95 time=0
EXTRACT: note_off channel=2 note=40 velocity=95 time=0
EXTRACT: note_on channel=2 note=52 velocity=95 time=0
EXTRACT: note_on channel=2 note=47 velocity=95 time=0
EXTRACT: note_on channel=2 note=40 velocity=95 time=0
EXTRACT: note_off channel=8 note=28 velocity=111 time=0
EXTRACT: note_on channel=8 note=28 velocity=111 time=0
EXTRACT: note_on channel=13 note=74 velocity=111 time=0
EXTRACT: note_on channel=4 note=62 velocity=111 time=0
EXTRACT: note_on channel=9 note=36 velocity=111 time=0
EXTRACT: note_on channel=9 note=42 velocity=111 time=0
EXTRACT: note_off channel=13 note=74 velocity=111 time=0.16853925
EXTRACT: note_off channel=4 note=62 velocity=111 time=0
EXTRACT: note_off channel=9 note=36 velocity=111 time=0
EXTRACT: note_off channel=9 note=42 velocity=111 time=0
EXTRACT: note_off channel=0 note=47 velocity=95 time=0.16853925
EXTRACT: note_off channel=0 note=40 velocity=95 time=0
EXTRACT: note_off channel=2 note=52 velocity=95 time=0
EXTRACT: note_off channel=2 note=47 velocity=95 time=0
EXTRACT: note_off channel=2 note=40 velocity=95 time=0
EXTRACT: note_off channel=8 note=28 velocity=111 time=0
EXTRACT: note_on channel=13 note=71 velocity=111 time=0
EXTRACT: note_on channel=4 note=59 velocity=111 time=0
EXTRACT: note_on channel=9 note=56 velocity=95 time=0
EXTRACT: note_on channel=9 note=38 velocity=111 time=0
EXTRACT: note_on channel=9 note=42 velocity=111 time=0
EXTRACT: note_off channel=13 note=71 velocity=111 time=0.16853925
EXTRACT: note_off channel=4 note=59 velocity=111 time=0
EXTRACT: note_off channel=9 note=56 velocity=95 time=0
EXTRACT: note_off channel=9 note=38 velocity=111 time=0
EXTRACT: note_off channel=9 note=42 velocity=111 time=0
EXTRACT: note_on channel=13 note=67 velocity=111 time=0.16853925
EXTRACT: note_on channel=4 note=55 velocity=111 time=0
EXTRACT: note_on channel=9 note=42 velocity=111 time=0
EXTRACT: note_off channel=13 note=67 velocity=111 time=0.16853925
EXTRACT: note_on channel=13 note=69 velocity=111 time=0
EXTRACT: note_off channel=4 note=55 velocity=111 time=0
EXTRACT: note_on channel=4 note=57 velocity=111 time=0
EXTRACT: note_off channel=9 note=42 velocity=111 time=0
EXTRACT: note_on channel=9 note=56 velocity=95 time=0.16853925
EXTRACT: note_on channel=9 note=42 velocity=111 time=0
EXTRACT: note_on channel=9 note=36 velocity=111 time=0
EXTRACT: note_off channel=13 note=69 velocity=111 time=0.16853925
EXTRACT: note_on channel=13 note=69 velocity=95 time=0
EXTRACT: note_off channel=4 note=57 velocity=111 time=0
EXTRACT: note_on channel=4 note=57 velocity=95 time=0
EXTRACT: note_off channel=9 note=56 velocity=95 time=0
EXTRACT: note_off channel=9 note=42 velocity=111 time=0
EXTRACT: note_off channel=9 note=36 velocity=111 time=0
EXTRACT: note_off channel=13 note=69 velocity=95 time=0.16853925
EXTRACT: note_on channel=13 note=69 velocity=111 time=0
EXTRACT: note_off channel=4 note=57 velocity=95 time=0
EXTRACT: note_on channel=4 note=57 velocity=111 time=0
EXTRACT: note_on channel=9 note=42 velocity=111 time=0
EXTRACT: note_on channel=9 note=36 velocity=111 time=0
EXTRACT: note_off channel=13 note=69 velocity=111 time=0.16853925
EXTRACT: note_off channel=4 note=57 velocity=111 time=0
EXTRACT: note_off channel=9 note=42 velocity=111 time=0
EXTRACT: note_off channel=9 note=36 velocity=111 time=0
EXTRACT: note_on channel=13 note=74 velocity=111 time=0.16853925
EXTRACT: note_on channel=4 note=62 velocity=111 time=0
EXTRACT: note_on channel=9 note=42 velocity=111 time=0
EXTRACT: note_on channel=9 note=38 velocity=127 time=0
EXTRACT: note_on channel=9 note=56 velocity=95 time=0
EXTRACT: note_off channel=13 note=74 velocity=111 time=0.16853925
EXTRACT: note_on channel=13 note=69 velocity=111 time=0
EXTRACT: note_off channel=4 note=62 velocity=111 time=0
EXTRACT: note_on channel=4 note=57 velocity=111 time=0
EXTRACT: note_off channel=9 note=42 velocity=111 time=0
EXTRACT: note_off channel=9 note=38 velocity=127 time=0
EXTRACT: note_off channel=9 note=56 velocity=95 time=0
EXTRACT: note_on channel=9 note=42 velocity=111 time=0.16853925
EXTRACT: note_on channel=8 note=33 velocity=95 time=0.16853925
EXTRACT: note_off channel=9 note=42 velocity=111 time=0
EXTRACT: note_on channel=0 note=54 velocity=95 time=0.16853925
EXTRACT: note_on channel=0 note=47 velocity=95 time=0
EXTRACT: note_on channel=2 note=54 velocity=95 time=0
EXTRACT: note_on channel=2 note=47 velocity=95 time=0
EXTRACT: note_off channel=8 note=33 velocity=95 time=0
EXTRACT: note_on channel=8 note=35 velocity=111 time=0
EXTRACT: note_off channel=13 note=69 velocity=111 time=0
EXTRACT: note_on channel=13 note=71 velocity=111 time=0
EXTRACT: note_off channel=4 note=57 velocity=111 time=0
EXTRACT: note_on channel=4 note=59 velocity=111 time=0
EXTRACT: note_on channel=9 note=56 velocity=95 time=0
EXTRACT: note_on channel=9 note=42 velocity=111 time=0
EXTRACT: note_on channel=9 note=36 velocity=111 time=0
EXTRACT: note_off channel=9 note=56 velocity=95 time=0.16853925
EXTRACT: note_off channel=9 note=42 velocity=111 time=0
EXTRACT: note_off channel=9 note=36 velocity=111 time=0
EXTRACT: note_off channel=0 note=54 velocity=95 time=0.16853925
EXTRACT: note_off channel=0 note=47 velocity=95 time=0
EXTRACT: note_on channel=0 note=54 velocity=95 time=0
EXTRACT: note_on channel=0 note=47 velocity=95 time=0
EXTRACT: note_off channel=2 note=54 velocity=95 time=0
EXTRACT: note_off channel=2 note=47 velocity=95 time=0
EXTRACT: note_on channel=2 note=54 velocity=95 time=0
EXTRACT: note_on channel=2 note=47 velocity=95 time=0
EXTRACT: note_off channel=8 note=35 velocity=111 time=0
EXTRACT: note_on channel=8 note=35 velocity=111 time=0
EXTRACT: note_on channel=9 note=36 velocity=111 time=0
EXTRACT: note_on channel=9 note=42 velocity=111 time=0
EXTRACT: note_off channel=9 note=36 velocity=111 time=0.16853925
EXTRACT: note_off channel=9 note=42 velocity=111 time=0
EXTRACT: note_off channel=0 note=54 velocity=95 time=0.16853925
EXTRACT: note_off channel=0 note=47 velocity=95 time=0
EXTRACT: note_off channel=2 note=54 velocity=95 time=0
EXTRACT: note_off channel=2 note=47 velocity=95 time=0
EXTRACT: note_off channel=8 note=35 velocity=111 time=0
EXTRACT: note_off channel=13 note=71 velocity=111 time=0
EXTRACT: note_off channel=4 note=59 velocity=111 time=0
EXTRACT: note_on channel=9 note=56 velocity=95 time=0
EXTRACT: note_on channel=9 note=42 velocity=111 time=0
EXTRACT: note_on channel=9 note=38 velocity=127 time=0
EXTRACT: note_off channel=9 note=56 velocity=95 time=0.16853925
EXTRACT: note_off channel=9 note=42 velocity=111 time=0
EXTRACT: note_off channel=9 note=38 velocity=127 time=0
EXTRACT: note_on channel=9 note=42 velocity=127 time=0.16853925
EXTRACT: note_off channel=9 note=42 velocity=127 time=0.16853925
EXTRACT: note_on channel=10 note=38 velocity=111 time=0.084269625
EXTRACT: pitchwheel channel=1 pitch=0 time=0.084269625
EXTRACT: note_on channel=1 note=50 velocity=95 time=0
EXTRACT: pitchwheel channel=3 pitch=0 time=0
EXTRACT: note_on channel=3 note=74 velocity=111 time=0
EXTRACT: pitchwheel channel=3 pitch=0 time=0
EXTRACT: note_on channel=3 note=62 velocity=95 time=0
EXTRACT: note_off channel=10 note=38 velocity=111 time=0
EXTRACT: note_on channel=10 note=40 velocity=111 time=0
EXTRACT: note_on channel=9 note=36 velocity=111 time=0
EXTRACT: note_on channel=9 note=56 velocity=95 time=0
EXTRACT: note_on channel=9 note=42 velocity=127 time=0
EXTRACT: pitchwheel channel=3 pitch=0 time=0.0421348125
EXTRACT: pitchwheel channel=1 pitch=0 time=0.028089875
EXTRACT: pitchwheel channel=3 pitch=0 time=0
EXTRACT: pitchwheel channel=3 pitch=0 time=0
EXTRACT: pitchwheel channel=1 pitch=128 time=0.000702246875
EXTRACT: pitchwheel channel=3 pitch=128 time=0
EXTRACT: pitchwheel channel=3 pitch=128 time=0
EXTRACT: pitchwheel channel=1 pitch=256 time=0.000702246875
EXTRACT: pitchwheel channel=3 pitch=256 time=0
EXTRACT: pitchwheel channel=3 pitch=256 time=0
EXTRACT: pitchwheel channel=1 pitch=384 time=0.000702246875
EXTRACT: pitchwheel channel=3 pitch=384 time=0
EXTRACT: pitchwheel channel=3 pitch=384 time=0
EXTRACT: pitchwheel channel=1 pitch=512 time=0.000702246875
EXTRACT: pitchwheel channel=3 pitch=512 time=0
EXTRACT: pitchwheel channel=3 pitch=512 time=0
EXTRACT: pitchwheel channel=1 pitch=640 time=0.000702246875
EXTRACT: pitchwheel channel=3 pitch=640 time=0
EXTRACT: pitchwheel channel=3 pitch=640 time=0
EXTRACT: pitchwheel channel=1 pitch=768 time=0.000702246875
EXTRACT: pitchwheel channel=3 pitch=768 time=0
EXTRACT: pitchwheel channel=3 pitch=768 time=0
EXTRACT: pitchwheel channel=1 pitch=896 time=0.000702246875
EXTRACT: pitchwheel channel=3 pitch=896 time=0
EXTRACT: pitchwheel channel=3 pitch=896 time=0
EXTRACT: pitchwheel channel=1 pitch=1024 time=0.000702246875
EXTRACT: pitchwheel channel=3 pitch=1024 time=0
EXTRACT: pitchwheel channel=3 pitch=1024 time=0
EXTRACT: pitchwheel channel=1 pitch=1152 time=0.000702246875
EXTRACT: pitchwheel channel=3 pitch=1152 time=0
EXTRACT: pitchwheel channel=3 pitch=1152 time=0
EXTRACT: pitchwheel channel=1 pitch=1280 time=0.000702246875
EXTRACT: pitchwheel channel=3 pitch=1280 time=0
EXTRACT: pitchwheel channel=3 pitch=1280 time=0
EXTRACT: pitchwheel channel=1 pitch=1408 time=0.000702246875
EXTRACT: pitchwheel channel=3 pitch=1408 time=0
EXTRACT: pitchwheel channel=3 pitch=1408 time=0
EXTRACT: pitchwheel channel=1 pitch=1408 time=0.0063202218749999995
EXTRACT: pitchwheel channel=3 pitch=1408 time=0
EXTRACT: pitchwheel channel=3 pitch=1408 time=0
EXTRACT: pitchwheel channel=1 pitch=1408 time=0.084269625
EXTRACT: pitchwheel channel=1 pitch=0 time=0
EXTRACT: note_off channel=1 note=50 velocity=95 time=0
EXTRACT: note_on channel=0 note=50 velocity=95 time=0
EXTRACT: pitchwheel channel=3 pitch=1408 time=0
EXTRACT: pitchwheel channel=3 pitch=0 time=0
EXTRACT: note_off channel=3 note=74 velocity=111 time=0
EXTRACT: pitchwheel channel=3 pitch=1408 time=0
EXTRACT: pitchwheel channel=3 pitch=0 time=0
EXTRACT: note_off channel=3 note=62 velocity=95 time=0
EXTRACT: note_on channel=2 note=74 velocity=111 time=0
EXTRACT: note_on channel=2 note=62 velocity=95 time=0
EXTRACT: note_off channel=10 note=40 velocity=111 time=0
EXTRACT: note_on channel=8 note=38 velocity=95 time=0
EXTRACT: note_off channel=9 note=36 velocity=111 time=0
EXTRACT: note_off channel=9 note=56 velocity=95 time=0
EXTRACT: note_off channel=9 note=42 velocity=127 time=0
EXTRACT: note_off channel=0 note=50 velocity=95 time=0.16853925
EXTRACT: note_on channel=0 note=47 velocity=95 time=0
EXTRACT: note_off channel=2 note=74 velocity=111 time=0
EXTRACT: note_off channel=2 note=62 velocity=95 time=0
EXTRACT: note_on channel=2 note=71 velocity=111 time=0
EXTRACT: note_on channel=2 note=59 velocity=95 time=0
EXTRACT: note_off channel=8 note=38 velocity=95 time=0
EXTRACT: note_on channel=8 note=35 velocity=95 time=0
EXTRACT: note_on channel=9 note=36 velocity=111 time=0
EXTRACT: note_on channel=9 note=42 velocity=111 time=0
EXTRACT: note_off channel=9 note=36 velocity=111 time=0.16853925
EXTRACT: note_off channel=9 note=42 velocity=111 time=0
EXTRACT: note_off channel=0 note=47 velocity=95 time=0.16853925
EXTRACT: note_on channel=0 note=45 velocity=95 time=0
EXTRACT: note_off channel=2 note=71 velocity=111 time=0
EXTRACT: note_off channel=2 note=59 velocity=95 time=0
EXTRACT: note_on channel=2 note=69 velocity=111 time=0
EXTRACT: note_on channel=2 note=57 velocity=95 time=0
EXTRACT: note_off channel=8 note=35 velocity=95 time=0
EXTRACT: note_on channel=8 note=33 velocity=111 time=0
EXTRACT: note_on channel=9 note=56 velocity=95 time=0
EXTRACT: note_on channel=9 note=38 velocity=111 time=0
EXTRACT: note_on channel=9 note=42 velocity=127 time=0
EXTRACT: note_off channel=0 note=45 velocity=95 time=0.16853925
EXTRACT: pitchwheel channel=1 pitch=0 time=0
EXTRACT: note_on channel=1 note=43 velocity=95 time=0
EXTRACT: note_off channel=2 note=69 velocity=111 time=0
EXTRACT: note_off channel=2 note=57 velocity=95 time=0
EXTRACT: pitchwheel channel=3 pitch=0 time=0
EXTRACT: note_on channel=3 note=67 velocity=111 time=0
EXTRACT: pitchwheel channel=3 pitch=0 time=0
EXTRACT: note_on channel=3 note=55 velocity=95 time=0
EXTRACT: note_off channel=8 note=33 velocity=111 time=0
EXTRACT: note_on channel=8 note=31 velocity=111 time=0
EXTRACT: note_off channel=9 note=56 velocity=95 time=0
EXTRACT: note_off channel=9 note=38 velocity=111 time=0
EXTRACT: note_off channel=9 note=42 velocity=127 time=0
EXTRACT: pitchwheel channel=1 pitch=0 time=0.1264044375
EXTRACT: pitchwheel channel=3 pitch=0 time=0
EXTRACT: pitchwheel channel=3 pitch=0 time=0
EXTRACT: note_on channel=9 note=41 velocity=127 time=0.0421348125
EXTRACT: note_on channel=9 note=42 velocity=127 time=0
EXTRACT: pitchwheel channel=1 pitch=128 time=0.02106740625
EXTRACT: pitchwheel channel=3 pitch=128 time=0
EXTRACT: pitchwheel channel=3 pitch=128 time=0
EXTRACT: pitchwheel channel=1 pitch=256 time=0.06320221875
EXTRACT: pitchwheel channel=1 pitch=256 time=0
EXTRACT: pitchwheel channel=3 pitch=256 time=0
EXTRACT: pitchwheel channel=3 pitch=256 time=0
EXTRACT: pitchwheel channel=3 pitch=256 time=0
EXTRACT: pitchwheel channel=3 pitch=256 time=0
EXTRACT: note_on channel=13 note=67 velocity=111 time=0.084269625
EXTRACT: note_on channel=4 note=55 velocity=111 time=0
EXTRACT: note_off channel=9 note=41 velocity=127 time=0
EXTRACT: note_off channel=9 note=42 velocity=127 time=0
EXTRACT: pitchwheel channel=1 pitch=256 time=0.16853925
EXTRACT: pitchwheel channel=1 pitch=0 time=0
EXTRACT: note_off channel=1 note=43 velocity=95 time=0
EXTRACT: note_on channel=0 note=52 velocity=95 time=0
EXTRACT: note_on channel=0 note=45 velocity=95 time=0
EXTRACT: pitchwheel channel=3 pitch=256 time=0
EXTRACT: pitchwheel channel=3 pitch=0 time=0
EXTRACT: note_off channel=3 note=67 velocity=111 time=0
EXTRACT: pitchwheel channel=3 pitch=256 time=0
EXTRACT: pitchwheel channel=3 pitch=0 time=0
EXTRACT: note_off channel=3 note=55 velocity=95 time=0
EXTRACT: note_on channel=2 note=52 velocity=95 time=0
EXTRACT: note_on channel=2 note=45 velocity=95 time=0
EXTRACT: note_off channel=8 note=31 velocity=111 time=0
EXTRACT: note_on channel=8 note=33 velocity=111 time=0
EXTRACT: note_off channel=13 note=67 velocity=111 time=0
EXTRACT: note_on channel=13 note=69 velocity=127 time=0
EXTRACT: note_off channel=4 note=55 velocity=111 time=0
EXTRACT: note_on channel=4 note=57 velocity=127 time=0
EXTRACT: note_on channel=9 note=56 velocity=95 time=0
EXTRACT: note_on channel=9 note=36 velocity=111 time=0
EXTRACT: note_on channel=9 note=42 velocity=127 time=0
EXTRACT: note_off channel=9 note=56 velocity=95 time=0.16853925
EXTRACT: note_off channel=9 note=36 velocity=111 time=0
EXTRACT: note_off channel=9 note=42 velocity=127 time=0
EXTRACT: note_off channel=0 note=52 velocity=95 time=0.16853925
EXTRACT: note_off channel=0 note=45 velocity=95 time=0
EXTRACT: note_on channel=0 note=52 velocity=95 time=0
EXTRACT: note_on channel=0 note=45 velocity=95 time=0
EXTRACT: note_off channel=2 note=52 velocity=95 time=0
EXTRACT: note_off channel=2 note=45 velocity=95 time=0
EXTRACT: note_on channel=2 note=52 velocity=95 time=0
EXTRACT: note_on channel=2 note=45 velocity=95 time=0
EXTRACT: note_off channel=8 note=33 velocity=111 time=0
EXTRACT: note_on channel=8 note=33 velocity=111 time=0
EXTRACT: note_off channel=13 note=69 velocity=127 time=0
EXTRACT: note_on channel=13 note=69 velocity=111 time=0
EXTRACT: note_off channel=4 note=57 velocity=127 time=0
EXTRACT: note_on channel=4 note=57 velocity=111 time=0
EXTRACT: note_on channel=9 note=42 velocity=111 time=0
EXTRACT: note_on channel=9 note=36 velocity=111 time=0
EXTRACT: note_off channel=13 note=69 velocity=111 time=0.16853925
EXTRACT: note_off channel=4 note=57 velocity=111 time=0
EXTRACT: note_off channel=9 note=42 velocity=111 time=0
EXTRACT: note_off channel=9 note=36 velocity=111 time=0
EXTRACT: note_off channel=0 note=52 velocity=95 time=0.16853925
EXTRACT: note_off channel=0 note=45 velocity=95 time=0
EXTRACT: note_off channel=2 note=52 velocity=95 time=0
EXTRACT: note_off channel=2 note=45 velocity=95 time=0
EXTRACT: note_off channel=8 note=33 velocity=111 time=0
EXTRACT: note_on channel=13 note=69 velocity=127 time=0
EXTRACT: note_on channel=4 note=57 velocity=127 time=0
EXTRACT: note_on channel=9 note=38 velocity=111 time=0
EXTRACT: note_on channel=9 note=56 velocity=95 time=0
EXTRACT: note_on channel=9 note=42 velocity=111 time=0
EXTRACT: note_off channel=13 note=69 velocity=127 time=0.16853925
EXTRACT: note_on channel=13 note=67 velocity=111 time=0
EXTRACT: note_off channel=4 note=57 velocity=127 time=0
EXTRACT: note_on channel=4 note=55 velocity=111 time=0
EXTRACT: note_off channel=9 note=38 velocity=111 time=0
EXTRACT: note_off channel=9 note=56 velocity=95 time=0
EXTRACT: note_off channel=9 note=42 velocity=111 time=0
EXTRACT: note_off channel=13 note=67 velocity=111 time=0.16853925
EXTRACT: note_off channel=4 note=55 velocity=111 time=0
EXTRACT: note_on channel=9 note=42 velocity=111 time=0
EXTRACT: note_on channel=8 note=33 velocity=95 time=0.16853925
EXTRACT: note_on channel=13 note=71 velocity=95 time=0
EXTRACT: note_on channel=4 note=59 velocity=95 time=0
EXTRACT: note_off channel=9 note=42 velocity=111 time=0
EXTRACT: note_on channel=0 note=54 velocity=95 time=0.16853925
EXTRACT: note_on channel=0 note=47 velocity=95 time=0
EXTRACT: note_on channel=2 note=54 velocity=95 time=0
EXTRACT: note_on channel=2 note=47 velocity=95 time=0
EXTRACT: note_off channel=8 note=33 velocity=95 time=0
EXTRACT: note_on channel=8 note=35 velocity=111 time=0
EXTRACT: note_on channel=9 note=42 velocity=111 time=0
EXTRACT: note_on channel=9 note=36 velocity=111 time=0
EXTRACT: note_on channel=9 note=56 velocity=95 time=0
EXTRACT: note_off channel=9 note=42 velocity=111 time=0.16853925
EXTRACT: note_off channel=9 note=36 velocity=111 time=0
EXTRACT: note_off channel=9 note=56 velocity=95 time=0
EXTRACT: note_off channel=0 note=54 velocity=95 time=0.16853925
EXTRACT: note_off channel=0 note=47 velocity=95 time=0
EXTRACT: note_on channel=0 note=54 velocity=95 time=0
EXTRACT: note_on channel=0 note=47 velocity=95 time=0
EXTRACT: note_off channel=2 note=54 velocity=95 time=0
EXTRACT: note_off channel=2 note=47 velocity=95 time=0
EXTRACT: note_on channel=2 note=54 velocity=95 time=0
EXTRACT: note_on channel=2 note=47 velocity=95 time=0
EXTRACT: note_off channel=8 note=35 velocity=111 time=0
EXTRACT: note_on channel=8 note=35 velocity=111 time=0
EXTRACT: note_on channel=9 note=36 velocity=111 time=0
EXTRACT: note_on channel=9 note=42 velocity=111 time=0
EXTRACT: note_off channel=9 note=36 velocity=111 time=0.16853925
EXTRACT: note_off channel=9 note=42 velocity=111 time=0
EXTRACT: note_off channel=0 note=54 velocity=95 time=0.16853925
EXTRACT: note_off channel=0 note=47 velocity=95 time=0
EXTRACT: note_off channel=2 note=54 velocity=95 time=0
EXTRACT: note_off channel=2 note=47 velocity=95 time=0
EXTRACT: note_off channel=8 note=35 velocity=111 time=0
EXTRACT: note_off channel=13 note=71 velocity=95 time=0
EXTRACT: note_off channel=4 note=59 velocity=95 time=0
EXTRACT: note_on channel=9 note=42 velocity=111 time=0
EXTRACT: note_on channel=9 note=38 velocity=127 time=0
EXTRACT: note_on channel=9 note=56 velocity=95 time=0
EXTRACT: note_off channel=9 note=42 velocity=111 time=0.16853925
EXTRACT: note_off channel=9 note=38 velocity=127 time=0
EXTRACT: note_off channel=9 note=56 velocity=95 time=0
EXTRACT: note_on channel=9 note=42 velocity=111 time=0.16853925
EXTRACT: note_off channel=9 note=42 velocity=111 time=0.16853925
EXTRACT: note_on channel=0 note=47 velocity=95 time=0
EXTRACT: note_on channel=0 note=40 velocity=95 time=0
EXTRACT: note_on channel=2 note=47 velocity=95 time=0
EXTRACT: note_on channel=2 note=40 velocity=95 time=0
EXTRACT: note_on channel=8 note=28 velocity=111 time=0
EXTRACT: note_on channel=13 note=76 velocity=111 time=0
EXTRACT: note_on channel=4 note=64 velocity=111 time=0
EXTRACT: note_on channel=9 note=42 velocity=111 time=0
EXTRACT: note_on channel=9 note=56 velocity=95 time=0
EXTRACT: note_on channel=9 note=36 velocity=111 time=0
EXTRACT: note_off channel=13 note=76 velocity=111 time=0.16853925
EXTRACT: note_on channel=13 note=76 velocity=95 time=0
EXTRACT: note_off channel=4 note=64 velocity=111 time=0
EXTRACT: note_on channel=4 note=64 velocity=95 time=0
EXTRACT: note_off channel=9 note=42 velocity=111 time=0
EXTRACT: note_off channel=9 note=56 velocity=95 time=0
EXTRACT: note_off channel=9 note=36 velocity=111 time=0
EXTRACT: note_off channel=0 note=47 velocity=95 time=0.16853925
EXTRACT: note_off channel=0 note=40 velocity=95 time=0
EXTRACT: note_on channel=0 note=47 velocity=95 time=0
EXTRACT: note_on channel=0 note=40 velocity=95 time=0
EXTRACT: note_off channel=2 note=47 velocity=95 time=0
EXTRACT: note_off channel=2 note=40 velocity=95 time=0
EXTRACT: note_on channel=2 note=47 velocity=95 time=0
EXTRACT: note_on channel=2 note=40 velocity=95 time=0
EXTRACT: note_off channel=8 note=28 velocity=111 time=0
EXTRACT: note_on channel=8 note=28 velocity=111 time=0
EXTRACT: note_off channel=13 note=76 velocity=95 time=0
EXTRACT: note_on channel=13 note=74 velocity=111 time=0
EXTRACT: note_off channel=4 note=64 velocity=95 time=0
EXTRACT: note_on channel=4 note=62 velocity=111 time=0
EXTRACT: note_on channel=9 note=36 velocity=111 time=0
EXTRACT: note_on channel=9 note=42 velocity=111 time=0
EXTRACT: note_off channel=9 note=36 velocity=111 time=0.16853925
EXTRACT: note_off channel=9 note=42 velocity=111 time=0
EXTRACT: note_off channel=0 note=47 velocity=95 time=0.16853925
EXTRACT: note_off channel=0 note=40 velocity=95 time=0
EXTRACT: note_off channel=2 note=47 velocity=95 time=0
EXTRACT: note_off channel=2 note=40 velocity=95 time=0
EXTRACT: note_off channel=8 note=28 velocity=111 time=0
EXTRACT: note_off channel=13 note=74 velocity=111 time=0
EXTRACT: note_on channel=13 note=71 velocity=111 time=0
EXTRACT: note_off channel=4 note=62 velocity=111 time=0
EXTRACT: note_on channel=4 note=59 velocity=111 time=0
EXTRACT: note_on channel=9 note=38 velocity=127 time=0
EXTRACT: note_on channel=9 note=42 velocity=111 time=0
EXTRACT: note_on channel=9 note=56 velocity=95 time=0
EXTRACT: note_off channel=13 note=71 velocity=111 time=0.16853925
EXTRACT: note_on channel=13 note=71 velocity=111 time=0
EXTRACT: note_off channel=4 note=59 velocity=111 time=0
EXTRACT: note_on channel=4 note=59 velocity=111 time=0
EXTRACT: note_off channel=9 note=38 velocity=127 time=0
EXTRACT: note_off channel=9 note=42 velocity=111 time=0
EXTRACT: note_off channel=9 note=56 velocity=95 time=0
EXTRACT: note_off channel=13 note=71 velocity=111 time=0.16853925
EXTRACT: note_on channel=13 note=67 velocity=111 time=0
EXTRACT: note_off channel=4 note=59 velocity=111 time=0
EXTRACT: note_on channel=4 note=55 velocity=111 time=0
EXTRACT: note_on channel=9 note=42 velocity=127 time=0
EXTRACT: note_on channel=8 note=31 velocity=95 time=0.16853925
EXTRACT: note_off channel=9 note=42 velocity=127 time=0
EXTRACT: note_on channel=0 note=52 velocity=95 time=0
EXTRACT: note_on channel=0 note=45 velocity=95 time=0
EXTRACT: note_on channel=2 note=52 velocity=95 time=0
EXTRACT: note_on channel=2 note=45 velocity=95 time=0
EXTRACT: note_off channel=8 note=31 velocity=95 time=0
EXTRACT: note_on channel=8 note=33 velocity=111 time=0
EXTRACT: note_off channel=13 note=67 velocity=111 time=0
EXTRACT: note_on channel=13 note=69 velocity=111 time=0
EXTRACT: note_off channel=4 note=55 velocity=111 time=0
EXTRACT: note_on channel=4 note=57 velocity=111 time=0
EXTRACT: note_on channel=9 note=56 velocity=95 time=0
EXTRACT: note_on channel=9 note=42 velocity=127 time=0
EXTRACT: note_on channel=9 note=36 velocity=111 time=0
EXTRACT: note_off channel=9 note=56 velocity=95 time=0.16853925
EXTRACT: note_off channel=9 note=42 velocity=127 time=0
EXTRACT: note_off channel=9 note=36 velocity=111 time=0
EXTRACT: note_off channel=0 note=52 velocity=95 time=0.16853925
EXTRACT: note_off channel=0 note=45 velocity=95 time=0
EXTRACT: note_on channel=0 note=52 velocity=95 time=0
EXTRACT: note_on channel=0 note=45 velocity=95 time=0
EXTRACT: note_off channel=2 note=52 velocity=95 time=0
EXTRACT: note_off channel=2 note=45 velocity=95 time=0
EXTRACT: note_on channel=2 note=52 velocity=95 time=0
EXTRACT: note_on channel=2 note=45 velocity=95 time=0
EXTRACT: note_off channel=13 note=69 velocity=111 time=0
EXTRACT: note_on channel=13 note=67 velocity=70 time=0
EXTRACT: note_off channel=4 note=57 velocity=111 time=0
EXTRACT: note_on channel=4 note=55 velocity=70 time=0
EXTRACT: note_on channel=9 note=42 velocity=111 time=0
EXTRACT: note_on channel=9 note=36 velocity=111 time=0
EXTRACT: note_off channel=9 note=42 velocity=111 time=0.16853925
EXTRACT: note_off channel=9 note=36 velocity=111 time=0
EXTRACT: note_off channel=13 note=67 velocity=70 time=0.16853925
EXTRACT: note_on channel=13 note=69 velocity=86 time=0
EXTRACT: note_off channel=4 note=55 velocity=70 time=0
EXTRACT: note_on channel=4 note=57 velocity=86 time=0
EXTRACT: note_on channel=9 note=56 velocity=95 time=0
EXTRACT: note_on channel=9 note=42 velocity=127 time=0
EXTRACT: note_on channel=9 note=38 velocity=111 time=0
EXTRACT: note_off channel=9 note=56 velocity=95 time=0.16853925
EXTRACT: note_off channel=9 note=42 velocity=127 time=0
EXTRACT: note_off channel=9 note=38 velocity=111 time=0
EXTRACT: note_off channel=13 note=69 velocity=86 time=0.16853925
EXTRACT: note_on channel=13 note=67 velocity=70 time=0
EXTRACT: note_off channel=4 note=57 velocity=86 time=0
EXTRACT: note_on channel=4 note=55 velocity=70 time=0
EXTRACT: note_on channel=9 note=42 velocity=127 time=0
EXTRACT: note_on channel=9 note=41 velocity=127 time=0
EXTRACT: note_off channel=9 note=42 velocity=127 time=0.16853925
EXTRACT: note_off channel=9 note=41 velocity=127 time=0
EXTRACT: note_off channel=13 note=67 velocity=70 time=0.16853925
EXTRACT: note_on channel=13 note=69 velocity=86 time=0
EXTRACT: note_off channel=4 note=55 velocity=70 time=0
EXTRACT: note_on channel=4 note=57 velocity=86 time=0
EXTRACT: note_on channel=9 note=42 velocity=127 time=0
EXTRACT: note_on channel=9 note=36 velocity=111 time=0
EXTRACT: note_on channel=9 note=56 velocity=95 time=0
EXTRACT: note_off channel=9 note=42 velocity=127 time=0.16853925
EXTRACT: note_off channel=9 note=36 velocity=111 time=0
EXTRACT: note_off channel=9 note=56 velocity=95 time=0
EXTRACT: note_on channel=9 note=42 velocity=111 time=0.16853925
EXTRACT: note_on channel=9 note=36 velocity=111 time=0
EXTRACT: note_off channel=9 note=42 velocity=111 time=0.16853925
EXTRACT: note_off channel=9 note=36 velocity=111 time=0
EXTRACT: note_off channel=13 note=69 velocity=86 time=0.16853925
EXTRACT: note_off channel=4 note=57 velocity=86 time=0
EXTRACT: note_on channel=9 note=42 velocity=111 time=0
EXTRACT: note_on channel=9 note=56 velocity=95 time=0
EXTRACT: note_on channel=9 note=38 velocity=111 time=0
EXTRACT: note_off channel=9 note=42 velocity=111 time=0.16853925
EXTRACT: note_off channel=9 note=56 velocity=95 time=0
EXTRACT: note_off channel=9 note=38 velocity=111 time=0
EXTRACT: note_on channel=13 note=69 velocity=111 time=0.16853925
EXTRACT: note_on channel=4 note=57 velocity=111 time=0
EXTRACT: note_on channel=9 note=42 velocity=111 time=0
EXTRACT: note_off channel=13 note=69 velocity=111 time=0.16853925
EXTRACT: note_on channel=13 note=69 velocity=111 time=0
EXTRACT: note_off channel=4 note=57 velocity=111 time=0
EXTRACT: note_on channel=4 note=57 velocity=111 time=0
EXTRACT: note_off channel=9 note=42 velocity=111 time=0
EXTRACT: note_off channel=13 note=69 velocity=111 time=0.16853925
EXTRACT: note_on channel=13 note=71 velocity=111 time=0
EXTRACT: note_off channel=4 note=57 velocity=111 time=0
EXTRACT: note_on channel=4 note=59 velocity=111 time=0
EXTRACT: note_on channel=9 note=36 velocity=111 time=0
EXTRACT: note_on channel=9 note=56 velocity=95 time=0
EXTRACT: note_on channel=9 note=42 velocity=111 time=0
EXTRACT: note_off channel=13 note=71 velocity=111 time=0.16853925
EXTRACT: note_off channel=4 note=59 velocity=111 time=0
EXTRACT: note_off channel=9 note=36 velocity=111 time=0
EXTRACT: note_off channel=9 note=56 velocity=95 time=0
EXTRACT: note_off channel=9 note=42 velocity=111 time=0
EXTRACT: note_on channel=13 note=71 velocity=111 time=0.16853925
EXTRACT: note_on channel=4 note=59 velocity=111 time=0
EXTRACT: note_on channel=9 note=36 velocity=111 time=0
EXTRACT: note_on channel=9 note=42 velocity=111 time=0
EXTRACT: note_off channel=13 note=71 velocity=111 time=0.16853925
EXTRACT: note_off channel=4 note=59 velocity=111 time=0
EXTRACT: note_off channel=9 note=36 velocity=111 time=0
EXTRACT: note_off channel=9 note=42 velocity=111 time=0
EXTRACT: note_on channel=13 note=74 velocity=111 time=0.16853925
EXTRACT: note_on channel=4 note=62 velocity=111 time=0
EXTRACT: note_on channel=9 note=42 velocity=111 time=0
EXTRACT: note_on channel=9 note=38 velocity=127 time=0
EXTRACT: note_on channel=9 note=56 velocity=95 time=0
EXTRACT: note_off channel=13 note=74 velocity=111 time=0.16853925
EXTRACT: note_on channel=13 note=74 velocity=95 time=0
EXTRACT: note_off channel=4 note=62 velocity=111 time=0
EXTRACT: note_on channel=4 note=62 velocity=95 time=0
EXTRACT: note_off channel=9 note=42 velocity=111 time=0
EXTRACT: note_off channel=9 note=38 velocity=127 time=0
EXTRACT: note_off channel=9 note=56 velocity=95 time=0
EXTRACT: note_off channel=13 note=74 velocity=95 time=0.16853925
EXTRACT: note_on channel=13 note=71 velocity=111 time=0
EXTRACT: note_off channel=4 note=62 velocity=95 time=0
EXTRACT: note_on channel=4 note=59 velocity=111 time=0
EXTRACT: note_on channel=9 note=42 velocity=111 time=0
EXTRACT: note_off channel=13 note=71 velocity=111 time=0.16853925
EXTRACT: note_on channel=13 note=69 velocity=95 time=0
EXTRACT: note_off channel=4 note=59 velocity=111 time=0
EXTRACT: note_on channel=4 note=57 velocity=70 time=0
EXTRACT: note_off channel=9 note=42 velocity=111 time=0
EXTRACT: note_on channel=9 note=42 velocity=111 time=0.16853925
EXTRACT: note_on channel=9 note=36 velocity=111 time=0
EXTRACT: note_on channel=9 note=56 velocity=95 time=0
EXTRACT: note_off channel=13 note=69 velocity=95 time=0.16853925
EXTRACT: note_off channel=4 note=57 velocity=70 time=0
EXTRACT: note_off channel=9 note=42 velocity=111 time=0
EXTRACT: note_off channel=9 note=36 velocity=111 time=0
EXTRACT: note_off channel=9 note=56 velocity=95 time=0
EXTRACT: note_on channel=9 note=42 velocity=111 time=0.16853925
EXTRACT: note_on channel=9 note=36 velocity=111 time=0
EXTRACT: note_on channel=13 note=69 velocity=111 time=0.16853925
EXTRACT: note_on channel=4 note=57 velocity=111 time=0
EXTRACT: note_off channel=9 note=42 velocity=111 time=0
EXTRACT: note_off channel=9 note=36 velocity=111 time=0
EXTRACT: note_off channel=13 note=69 velocity=111 time=0.16853925
EXTRACT: note_on channel=13 note=69 velocity=111 time=0
EXTRACT: note_off channel=4 note=57 velocity=111 time=0
EXTRACT: note_on channel=4 note=57 velocity=111 time=0
EXTRACT: note_on channel=9 note=42 velocity=111 time=0
EXTRACT: note_on channel=9 note=38 velocity=127 time=0
EXTRACT: note_on channel=9 note=56 velocity=95 time=0
EXTRACT: note_off channel=9 note=42 velocity=111 time=0.16853925
EXTRACT: note_off channel=9 note=38 velocity=127 time=0
EXTRACT: note_off channel=9 note=56 velocity=95 time=0
EXTRACT: note_off channel=13 note=69 velocity=111 time=0.16853925
EXTRACT: note_on channel=13 note=67 velocity=95 time=0
EXTRACT: note_off channel=4 note=57 velocity=111 time=0
EXTRACT: note_on channel=4 note=55 velocity=95 time=0
EXTRACT: note_on channel=9 note=42 velocity=127 time=0
EXTRACT: note_on channel=9 note=41 velocity=127 time=0
EXTRACT: note_off channel=9 note=42 velocity=127 time=0.16853925
EXTRACT: note_off channel=9 note=41 velocity=127 time=0
EXTRACT: note_off channel=0 note=52 velocity=95 time=0.16853925
EXTRACT: note_off channel=0 note=45 velocity=95 time=0
EXTRACT: note_off channel=2 note=52 velocity=95 time=0
EXTRACT: note_off channel=2 note=45 velocity=95 time=0
EXTRACT: note_off channel=8 note=33 velocity=111 time=0
EXTRACT: note_off channel=13 note=67 velocity=95 time=0
EXTRACT: note_on channel=13 note=71 velocity=111 time=0
EXTRACT: note_off channel=4 note=55 velocity=95 time=0
EXTRACT: note_on channel=4 note=59 velocity=111 time=0
EXTRACT: note_on channel=9 note=42 velocity=127 time=0
EXTRACT: note_on channel=9 note=56 velocity=95 time=0
EXTRACT: note_on channel=9 note=36 velocity=111 time=0
EXTRACT: note_off channel=9 note=42 velocity=127 time=0.16853925
EXTRACT: note_off channel=9 note=56 velocity=95 time=0
EXTRACT: note_off channel=9 note=36 velocity=111 time=0
EXTRACT: note_off channel=13 note=71 velocity=111 time=0.16853925
EXTRACT: note_off channel=4 note=59 velocity=111 time=0
EXTRACT: note_on channel=9 note=36 velocity=111 time=0
EXTRACT: note_on channel=9 note=42 velocity=111 time=0
EXTRACT: note_off channel=9 note=36 velocity=111 time=0.16853925
EXTRACT: note_off channel=9 note=42 velocity=111 time=0
EXTRACT: note_on channel=13 note=74 velocity=111 time=0.16853925
EXTRACT: note_on channel=4 note=62 velocity=111 time=0
EXTRACT: note_on channel=15 note=74 velocity=95 time=0
EXTRACT: note_on channel=15 note=62 velocity=95 time=0
EXTRACT: note_on channel=9 note=38 velocity=111 time=0
EXTRACT: note_on channel=9 note=42 velocity=111 time=0
EXTRACT: note_on channel=9 note=56 velocity=95 time=0
EXTRACT: note_off channel=9 note=38 velocity=111 time=0.16853925
EXTRACT: note_off channel=9 note=42 velocity=111 time=0
EXTRACT: note_off channel=9 note=56 velocity=95 time=0
EXTRACT: note_off channel=13 note=74 velocity=111 time=0.16853925
EXTRACT: note_off channel=4 note=62 velocity=111 time=0
EXTRACT: note_off channel=15 note=74 velocity=95 time=0
EXTRACT: note_off channel=15 note=62 velocity=95 time=0
EXTRACT: note_on channel=9 note=42 velocity=111 time=0
EXTRACT: note_on channel=13 note=71 velocity=95 time=0.16853925
EXTRACT: note_on channel=4 note=59 velocity=95 time=0
EXTRACT: note_on channel=15 note=71 velocity=111 time=0
EXTRACT: note_on channel=15 note=59 velocity=111 time=0
EXTRACT: note_off channel=9 note=42 velocity=111 time=0
EXTRACT: note_on channel=9 note=42 velocity=111 time=0.16853925
EXTRACT: note_on channel=9 note=36 velocity=111 time=0
EXTRACT: note_on channel=9 note=56 velocity=95 time=0
EXTRACT: note_off channel=9 note=42 velocity=111 time=0.16853925
EXTRACT: note_off channel=9 note=36 velocity=111 time=0
EXTRACT: note_off channel=9 note=56 velocity=95 time=0
EXTRACT: note_off channel=13 note=71 velocity=95 time=0.16853925
EXTRACT: note_off channel=4 note=59 velocity=95 time=0
EXTRACT: note_off channel=15 note=71 velocity=111 time=0
EXTRACT: note_off channel=15 note=59 velocity=111 time=0
EXTRACT: note_on channel=9 note=36 velocity=111 time=0
EXTRACT: note_on channel=9 note=42 velocity=111 time=0
EXTRACT: note_off channel=9 note=36 velocity=111 time=0.16853925
EXTRACT: note_off channel=9 note=42 velocity=111 time=0
EXTRACT: note_on channel=9 note=38 velocity=127 time=0.16853925
EXTRACT: note_on channel=9 note=42 velocity=111 time=0
EXTRACT: note_on channel=9 note=56 velocity=95 time=0
EXTRACT: note_off channel=9 note=38 velocity=127 time=0.16853925
EXTRACT: note_off channel=9 note=42 velocity=111 time=0
EXTRACT: note_off channel=9 note=56 velocity=95 time=0
EXTRACT: note_on channel=13 note=69 velocity=111 time=0.16853925
EXTRACT: note_on channel=4 note=57 velocity=111 time=0
EXTRACT: note_on channel=9 note=42 velocity=111 time=0
EXTRACT: note_off channel=13 note=69 velocity=111 time=0.16853925
EXTRACT: note_on channel=13 note=69 velocity=95 time=0
EXTRACT: note_off channel=4 note=57 velocity=111 time=0
EXTRACT: note_on channel=4 note=57 velocity=95 time=0
EXTRACT: note_off channel=9 note=42 velocity=111 time=0
EXTRACT: note_off channel=13 note=69 velocity=95 time=0.16853925
EXTRACT: note_on channel=13 note=71 velocity=111 time=0
EXTRACT: note_off channel=4 note=57 velocity=95 time=0
EXTRACT: note_on channel=4 note=59 velocity=111 time=0
EXTRACT: note_on channel=9 note=42 velocity=127 time=0
EXTRACT: note_on channel=9 note=56 velocity=95 time=0
EXTRACT: note_on channel=9 note=36 velocity=111 time=0
EXTRACT: note_off channel=9 note=42 velocity=127 time=0.16853925
EXTRACT: note_off channel=9 note=56 velocity=95 time=0
EXTRACT: note_off channel=9 note=36 velocity=111 time=0
EXTRACT: note_off channel=13 note=71 velocity=111 time=0.16853925
EXTRACT: note_on channel=13 note=71 velocity=111 time=0
EXTRACT: note_off channel=4 note=59 velocity=111 time=0
EXTRACT: note_on channel=4 note=59 velocity=111 time=0
EXTRACT: note_on channel=9 note=36 velocity=111 time=0
EXTRACT: note_on channel=9 note=42 velocity=111 time=0
EXTRACT: note_off channel=13 note=71 velocity=111 time=0.16853925
EXTRACT: note_off channel=4 note=59 velocity=111 time=0
EXTRACT: note_off channel=9 note=36 velocity=111 time=0
EXTRACT: note_off channel=9 note=42 velocity=111 time=0
EXTRACT: note_on channel=13 note=74 velocity=111 time=0.16853925
EXTRACT: note_on channel=4 note=62 velocity=95 time=0
EXTRACT: note_on channel=9 note=38 velocity=111 time=0
EXTRACT: note_on channel=9 note=42 velocity=111 time=0
EXTRACT: note_on channel=9 note=56 velocity=95 time=0
EXTRACT: note_off channel=13 note=74 velocity=111 time=0.16853925
EXTRACT: note_off channel=4 note=62 velocity=95 time=0
EXTRACT: note_off channel=9 note=38 velocity=111 time=0
EXTRACT: note_off channel=9 note=42 velocity=111 time=0
EXTRACT: note_off channel=9 note=56 velocity=95 time=0
EXTRACT: note_on channel=13 note=71 velocity=95 time=0.16853925
EXTRACT: note_on channel=4 note=59 velocity=95 time=0
EXTRACT: note_on channel=9 note=42 velocity=111 time=0
EXTRACT: note_off channel=13 note=71 velocity=95 time=0.16853925
EXTRACT: note_on channel=13 note=69 velocity=95 time=0
EXTRACT: note_off channel=4 note=59 velocity=95 time=0
EXTRACT: note_on channel=4 note=57 velocity=70 time=0
EXTRACT: note_off channel=9 note=42 velocity=111 time=0
EXTRACT: note_on channel=9 note=42 velocity=111 time=0.16853925
EXTRACT: note_on channel=9 note=36 velocity=111 time=0
EXTRACT: note_on channel=9 note=56 velocity=95 time=0
EXTRACT: note_off channel=13 note=69 velocity=95 time=0.16853925
EXTRACT: note_off channel=4 note=57 velocity=70 time=0
EXTRACT: note_off channel=9 note=42 velocity=111 time=0
EXTRACT: note_off channel=9 note=36 velocity=111 time=0
EXTRACT: note_off channel=9 note=56 velocity=95 time=0
EXTRACT: note_on channel=9 note=36 velocity=111 time=0.16853925
EXTRACT: note_on channel=9 note=42 velocity=111 time=0
EXTRACT: note_on channel=13 note=67 velocity=95 time=0.16853925
EXTRACT: note_on channel=4 note=55 velocity=95 time=0
EXTRACT: note_off channel=9 note=36 velocity=111 time=0
EXTRACT: note_off channel=9 note=42 velocity=111 time=0
EXTRACT: note_off channel=13 note=67 velocity=95 time=0.16853925
EXTRACT: note_on channel=13 note=69 velocity=95 time=0
EXTRACT: note_off channel=4 note=55 velocity=95 time=0
EXTRACT: note_on channel=4 note=57 velocity=95 time=0
EXTRACT: note_on channel=9 note=38 velocity=127 time=0
EXTRACT: note_on channel=9 note=42 velocity=111 time=0
EXTRACT: note_on channel=9 note=56 velocity=95 time=0
EXTRACT: note_off channel=13 note=69 velocity=95 time=0.16853925
EXTRACT: note_on channel=13 note=69 velocity=95 time=0
EXTRACT: note_off channel=4 note=57 velocity=95 time=0
EXTRACT: note_on channel=4 note=57 velocity=95 time=0
EXTRACT: note_off channel=9 note=38 velocity=127 time=0
EXTRACT: note_off channel=9 note=42 velocity=111 time=0
EXTRACT: note_off channel=9 note=56 velocity=95 time=0
EXTRACT: note_off channel=13 note=69 velocity=95 time=0.16853925
EXTRACT: note_on channel=13 note=67 velocity=95 time=0
EXTRACT: note_off channel=4 note=57 velocity=95 time=0
EXTRACT: note_on channel=4 note=55 velocity=95 time=0
EXTRACT: note_on channel=9 note=42 velocity=111 time=0
EXTRACT: note_on channel=0 note=45 velocity=95 time=0.16853925
EXTRACT: note_on channel=2 note=45 velocity=95 time=0
EXTRACT: note_off channel=9 note=42 velocity=111 time=0
EXTRACT: note_off channel=0 note=45 velocity=95 time=0.16853925
EXTRACT: note_on channel=0 note=54 velocity=95 time=0
EXTRACT: note_on channel=0 note=47 velocity=95 time=0
EXTRACT: note_off channel=2 note=45 velocity=95 time=0
EXTRACT: note_on channel=2 note=54 velocity=95 time=0
EXTRACT: note_on channel=2 note=47 velocity=95 time=0
EXTRACT: note_off channel=13 note=67 velocity=95 time=0
EXTRACT: note_on channel=13 note=71 velocity=95 time=0
EXTRACT: note_off channel=4 note=55 velocity=95 time=0
EXTRACT: note_on channel=4 note=59 velocity=95 time=0
EXTRACT: note_on channel=9 note=42 velocity=127 time=0
EXTRACT: note_on channel=9 note=56 velocity=95 time=0
EXTRACT: note_on channel=9 note=36 velocity=111 time=0
EXTRACT: note_off channel=9 note=42 velocity=127 time=0.16853925
EXTRACT: note_off channel=9 note=56 velocity=95 time=0
EXTRACT: note_off channel=9 note=36 velocity=111 time=0
EXTRACT: note_off channel=0 note=54 velocity=95 time=0.16853925
EXTRACT: note_off channel=0 note=47 velocity=95 time=0
EXTRACT: note_on channel=0 note=54 velocity=95 time=0
EXTRACT: note_on channel=0 note=47 velocity=95 time=0
EXTRACT: note_off channel=2 note=54 velocity=95 time=0
EXTRACT: note_off channel=2 note=47 velocity=95 time=0
EXTRACT: note_on channel=2 note=54 velocity=95 time=0
EXTRACT: note_on channel=2 note=47 velocity=95 time=0
EXTRACT: note_off channel=13 note=71 velocity=95 time=0
EXTRACT: note_off channel=4 note=59 velocity=95 time=0
EXTRACT: note_on channel=9 note=36 velocity=111 time=0
EXTRACT: note_on channel=9 note=42 velocity=111 time=0
EXTRACT: note_off channel=9 note=36 velocity=111 time=0.16853925
EXTRACT: note_off channel=9 note=42 velocity=111 time=0
EXTRACT: note_off channel=0 note=54 velocity=95 time=0.16853925
EXTRACT: note_off channel=0 note=47 velocity=95 time=0
EXTRACT: note_on channel=0 note=54 velocity=95 time=0
EXTRACT: note_on channel=0 note=47 velocity=95 time=0
EXTRACT: note_off channel=2 note=54 velocity=95 time=0
EXTRACT: note_off channel=2 note=47 velocity=95 time=0
EXTRACT: note_on channel=2 note=54 velocity=95 time=0
EXTRACT: note_on channel=2 note=47 velocity=95 time=0
EXTRACT: note_on channel=13 note=74 velocity=95 time=0
EXTRACT: note_on channel=4 note=62 velocity=95 time=0
EXTRACT: note_on channel=15 note=74 velocity=111 time=0
EXTRACT: note_on channel=15 note=62 velocity=111 time=0
EXTRACT: note_on channel=9 note=38 velocity=111 time=0
EXTRACT: note_on channel=9 note=42 velocity=111 time=0
EXTRACT: note_on channel=9 note=56 velocity=95 time=0
EXTRACT: note_off channel=9 note=38 velocity=111 time=0.16853925
EXTRACT: note_off channel=9 note=42 velocity=111 time=0
EXTRACT: note_off channel=9 note=56 velocity=95 time=0
EXTRACT: note_off channel=0 note=54 velocity=95 time=0.16853925
EXTRACT: note_off channel=0 note=47 velocity=95 time=0
EXTRACT: note_on channel=0 note=54 velocity=95 time=0
EXTRACT: note_on channel=0 note=47 velocity=95 time=0
EXTRACT: note_off channel=2 note=54 velocity=95 time=0
EXTRACT: note_off channel=2 note=47 velocity=95 time=0
EXTRACT: note_on channel=2 note=54 velocity=95 time=0
EXTRACT: note_on channel=2 note=47 velocity=95 time=0
EXTRACT: note_off channel=13 note=74 velocity=95 time=0
EXTRACT: note_on channel=13 note=74 velocity=95 time=0
EXTRACT: note_off channel=4 note=62 velocity=95 time=0
EXTRACT: note_on channel=4 note=62 velocity=95 time=0
EXTRACT: note_off channel=15 note=74 velocity=111 time=0
EXTRACT: note_off channel=15 note=62 velocity=111 time=0
EXTRACT: note_on channel=15 note=74 velocity=95 time=0
EXTRACT: note_on channel=15 note=62 velocity=95 time=0
EXTRACT: note_on channel=9 note=42 velocity=111 time=0
EXTRACT: note_off channel=0 note=54 velocity=95 time=0.16853925
EXTRACT: note_off channel=0 note=47 velocity=95 time=0
EXTRACT: note_on channel=0 note=54 velocity=95 time=0
EXTRACT: note_on channel=0 note=47 velocity=95 time=0
EXTRACT: note_off channel=2 note=54 velocity=95 time=0
EXTRACT: note_off channel=2 note=47 velocity=95 time=0
EXTRACT: note_on channel=2 note=54 velocity=95 time=0
EXTRACT: note_on channel=2 note=47 velocity=95 time=0
EXTRACT: note_off channel=13 note=74 velocity=95 time=0
EXTRACT: note_on channel=13 note=71 velocity=95 time=0
EXTRACT: note_off channel=4 note=62 velocity=95 time=0
EXTRACT: note_on channel=4 note=59 velocity=95 time=0
EXTRACT: note_off channel=15 note=74 velocity=95 time=0
EXTRACT: note_off channel=15 note=62 velocity=95 time=0
EXTRACT: note_on channel=15 note=71 velocity=111 time=0
EXTRACT: note_on channel=15 note=59 velocity=111 time=0
EXTRACT: note_off channel=9 note=42 velocity=111 time=0
EXTRACT: note_on channel=9 note=42 velocity=111 time=0.16853925
EXTRACT: note_on channel=9 note=36 velocity=111 time=0
EXTRACT: note_on channel=9 note=56 velocity=95 time=0
EXTRACT: note_off channel=0 note=54 velocity=95 time=0.16853925
EXTRACT: note_off channel=0 note=47 velocity=95 time=0
EXTRACT: note_on channel=0 note=54 velocity=95 time=0
EXTRACT: note_on channel=0 note=47 velocity=95 time=0
EXTRACT: note_off channel=2 note=54 velocity=95 time=0
EXTRACT: note_off channel=2 note=47 velocity=95 time=0
EXTRACT: note_on channel=2 note=54 velocity=95 time=0
EXTRACT: note_on channel=2 note=47 velocity=95 time=0
EXTRACT: note_off channel=9 note=42 velocity=111 time=0
EXTRACT: note_off channel=9 note=36 velocity=111 time=0
EXTRACT: note_off channel=9 note=56 velocity=95 time=0
EXTRACT: note_off channel=0 note=54 velocity=95 time=0.16853925
EXTRACT: note_off channel=0 note=47 velocity=95 time=0
EXTRACT: note_on channel=0 note=54 velocity=95 time=0
EXTRACT: note_on channel=0 note=47 velocity=95 time=0
EXTRACT: note_off channel=2 note=54 velocity=95 time=0
EXTRACT: note_off channel=2 note=47 velocity=95 time=0
EXTRACT: note_on channel=2 note=54 velocity=95 time=0
EXTRACT: note_on channel=2 note=47 velocity=95 time=0
EXTRACT: note_off channel=13 note=71 velocity=95 time=0
EXTRACT: note_off channel=4 note=59 velocity=95 time=0
EXTRACT: note_off channel=15 note=71 velocity=111 time=0
EXTRACT: note_off channel=15 note=59 velocity=111 time=0
EXTRACT: note_on channel=9 note=36 velocity=111 time=0
EXTRACT: note_on channel=9 note=42 velocity=111 time=0
EXTRACT: note_off channel=0 note=54 velocity=95 time=0.16853925
EXTRACT: note_off channel=0 note=47 velocity=95 time=0
EXTRACT: note_on channel=0 note=54 velocity=95 time=0
EXTRACT: note_on channel=0 note=47 velocity=95 time=0
EXTRACT: note_off channel=2 note=54 velocity=95 time=0
EXTRACT: note_off channel=2 note=47 velocity=95 time=0
EXTRACT: note_on channel=2 note=54 velocity=95 time=0
EXTRACT: note_on channel=2 note=47 velocity=95 time=0
EXTRACT: note_on channel=13 note=69 velocity=95 time=0
EXTRACT: note_on channel=4 note=57 velocity=95 time=0
EXTRACT: note_off channel=9 note=36 velocity=111 time=0
EXTRACT: note_off channel=9 note=42 velocity=111 time=0
EXTRACT: note_off channel=0 note=54 velocity=95 time=0.16853925
EXTRACT: note_off channel=0 note=47 velocity=95 time=0
EXTRACT: note_on channel=0 note=54 velocity=95 time=0
EXTRACT: note_on channel=0 note=47 velocity=95 time=0
EXTRACT: note_off channel=2 note=54 velocity=95 time=0
EXTRACT: note_off channel=2 note=47 velocity=95 time=0
EXTRACT: note_on channel=2 note=54 velocity=95 time=0
EXTRACT: note_on channel=2 note=47 velocity=95 time=0
EXTRACT: note_off channel=13 note=69 velocity=95 time=0
EXTRACT: note_on channel=13 note=71 velocity=95 time=0
EXTRACT: note_off channel=4 note=57 velocity=95 time=0
EXTRACT: note_on channel=4 note=59 velocity=95 time=0
EXTRACT: note_on channel=9 note=38 velocity=127 time=0
EXTRACT: note_on channel=9 note=42 velocity=111 time=0
EXTRACT: note_on channel=9 note=56 velocity=95 time=0
EXTRACT: note_off channel=0 note=54 velocity=95 time=0.16853925
EXTRACT: note_off channel=0 note=47 velocity=95 time=0
EXTRACT: note_on channel=0 note=54 velocity=95 time=0
EXTRACT: note_on channel=0 note=47 velocity=95 time=0
EXTRACT: note_off channel=2 note=54 velocity=95 time=0
EXTRACT: note_off channel=2 note=47 velocity=95 time=0
EXTRACT: note_on channel=2 note=54 velocity=95 time=0
EXTRACT: note_on channel=2 note=47 velocity=95 time=0
EXTRACT: note_off channel=13 note=71 velocity=95 time=0
EXTRACT: note_on channel=13 note=74 velocity=95 time=0
EXTRACT: note_off channel=4 note=59 velocity=95 time=0
EXTRACT: note_on channel=4 note=62 velocity=95 time=0
EXTRACT: note_off channel=9 note=38 velocity=127 time=0
EXTRACT: note_off channel=9 note=42 velocity=111 time=0
EXTRACT: note_off channel=9 note=56 velocity=95 time=0
EXTRACT: note_off channel=0 note=54 velocity=95 time=0.16853925
EXTRACT: note_off channel=0 note=47 velocity=95 time=0
EXTRACT: note_off channel=2 note=54 velocity=95 time=0
EXTRACT: note_off channel=2 note=47 velocity=95 time=0
EXTRACT: note_on channel=10 note=35 velocity=95 time=0
EXTRACT: note_on channel=9 note=42 velocity=111 time=0
EXTRACT: pitchwheel channel=10 pitch=-1152 time=0.084269625
EXTRACT: pitchwheel channel=10 pitch=-2432 time=0.084269625
EXTRACT: note_off channel=9 note=42 velocity=111 time=0
EXTRACT: pitchwheel channel=10 pitch=-3584 time=0.084269625
EXTRACT: note_on channel=0 note=47 velocity=95 time=0.084269625
EXTRACT: note_on channel=0 note=40 velocity=95 time=0
EXTRACT: note_on channel=2 note=47 velocity=95 time=0
EXTRACT: note_on channel=2 note=40 velocity=95 time=0
EXTRACT: pitchwheel channel=10 pitch=-4864 time=0
EXTRACT: pitchwheel channel=10 pitch=0 time=0
EXTRACT: note_off channel=10 note=35 velocity=95 time=0
EXTRACT: note_on channel=8 note=28 velocity=111 time=0
EXTRACT: note_off channel=13 note=74 velocity=95 time=0
EXTRACT: note_on channel=13 note=76 velocity=95 time=0
EXTRACT: note_off channel=4 note=62 velocity=95 time=0
EXTRACT: note_on channel=4 note=64 velocity=95 time=0
EXTRACT: note_on channel=15 note=76 velocity=95 time=0
EXTRACT: note_on channel=15 note=64 velocity=95 time=0
EXTRACT: note_on channel=9 note=56 velocity=95 time=0
EXTRACT: note_on channel=9 note=42 velocity=127 time=0
EXTRACT: note_on channel=9 note=36 velocity=111 time=0
EXTRACT: note_on channel=9 note=82 velocity=95 time=0
EXTRACT: note_off channel=9 note=56 velocity=95 time=0.16853925
EXTRACT: note_off channel=9 note=42 velocity=127 time=0
EXTRACT: note_off channel=9 note=36 velocity=111 time=0
EXTRACT: note_off channel=9 note=82 velocity=95 time=0
EXTRACT: note_off channel=0 note=47 velocity=95 time=0.16853925
EXTRACT: note_off channel=0 note=40 velocity=95 time=0
EXTRACT: note_on channel=0 note=47 velocity=95 time=0
EXTRACT: note_on channel=0 note=40 velocity=95 time=0
EXTRACT: note_off channel=2 note=47 velocity=95 time=0
EXTRACT: note_off channel=2 note=40 velocity=95 time=0
EXTRACT: note_on channel=2 note=47 velocity=95 time=0
EXTRACT: note_on channel=2 note=40 velocity=95 time=0
EXTRACT: note_off channel=8 note=28 velocity=111 time=0
EXTRACT: note_on channel=8 note=28 velocity=111 time=0
EXTRACT: note_on channel=9 note=42 velocity=111 time=0
EXTRACT: note_on channel=9 note=36 velocity=111 time=0
EXTRACT: note_off channel=9 note=42 velocity=111 time=0.16853925
EXTRACT: note_off channel=9 note=36 velocity=111 time=0
EXTRACT: note_off channel=0 note=47 velocity=95 time=0.16853925
EXTRACT: note_off channel=0 note=40 velocity=95 time=0
EXTRACT: pitchwheel channel=1 pitch=0 time=0
EXTRACT: note_on channel=1 note=55 velocity=95 time=0
EXTRACT: note_off channel=2 note=47 velocity=95 time=0
EXTRACT: note_off channel=2 note=40 velocity=95 time=0
EXTRACT: note_off channel=8 note=28 velocity=111 time=0
EXTRACT: note_off channel=13 note=76 velocity=95 time=0
EXTRACT: note_on channel=13 note=79 velocity=95 time=0
EXTRACT: note_off channel=4 note=64 velocity=95 time=0
EXTRACT: note_on channel=4 note=67 velocity=95 time=0
EXTRACT: note_off channel=15 note=76 velocity=95 time=0
EXTRACT: note_off channel=15 note=64 velocity=95 time=0
EXTRACT: note_on channel=15 note=79 velocity=95 time=0
EXTRACT: note_on channel=15 note=67 velocity=95 time=0
EXTRACT: note_on channel=9 note=56 velocity=95 time=0
EXTRACT: note_on channel=9 note=42 velocity=111 time=0
EXTRACT: note_on channel=9 note=82 velocity=95 time=0
EXTRACT: note_on channel=9 note=38 velocity=111 time=0
EXTRACT: pitchwheel channel=1 pitch=0 time=0.1123595
EXTRACT: note_off channel=9 note=56 velocity=95 time=0.05617975
EXTRACT: note_off channel=9 note=42 velocity=111 time=0
EXTRACT: note_off channel=9 note=82 velocity=95 time=0
EXTRACT: note_off channel=9 note=38 velocity=111 time=0
EXTRACT: pitchwheel channel=1 pitch=128 time=0.05617975
EXTRACT: pitchwheel channel=1 pitch=256 time=0.1123595
EXTRACT: pitchwheel channel=1 pitch=256 time=0
EXTRACT: note_on channel=9 note=42 velocity=111 time=0
EXTRACT: note_on channel=8 note=28 velocity=95 time=0.16853925
EXTRACT: note_off channel=9 note=42 velocity=111 time=0
EXTRACT: note_on channel=9 note=82 velocity=95 time=0
EXTRACT: pitchwheel channel=1 pitch=256 time=0.1123595
EXTRACT: pitchwheel channel=1 pitch=128 time=0.028089875
EXTRACT: pitchwheel channel=1 pitch=0 time=0.028089875
EXTRACT: pitchwheel channel=1 pitch=0 time=0
EXTRACT: pitchwheel channel=1 pitch=0 time=0
EXTRACT: note_off channel=1 note=55 velocity=95 time=0
EXTRACT: note_on channel=0 note=47 velocity=95 time=0
EXTRACT: note_on channel=0 note=40 velocity=95 time=0
EXTRACT: note_on channel=2 note=47 velocity=95 time=0
EXTRACT: note_on channel=2 note=40 velocity=95 time=0
EXTRACT: note_off channel=8 note=28 velocity=95 time=0
EXTRACT: note_on channel=8 note=28 velocity=111 time=0
EXTRACT: note_off channel=13 note=79 velocity=95 time=0
EXTRACT: note_on channel=13 note=76 velocity=95 time=0
EXTRACT: note_off channel=4 note=67 velocity=95 time=0
EXTRACT: note_on channel=4 note=64 velocity=95 time=0
EXTRACT: note_off channel=15 note=79 velocity=95 time=0
EXTRACT: note_off channel=15 note=67 velocity=95 time=0
EXTRACT: note_on channel=15 note=76 velocity=95 time=0
EXTRACT: note_on channel=15 note=64 velocity=95 time=0
EXTRACT: note_off channel=9 note=82 velocity=95 time=0
EXTRACT: note_on channel=9 note=36 velocity=111 time=0
EXTRACT: note_on channel=9 note=42 velocity=111 time=0
EXTRACT: note_on channel=9 note=56 velocity=95 time=0
EXTRACT: note_off channel=13 note=76 velocity=95 time=0.16853925
EXTRACT: note_off channel=4 note=64 velocity=95 time=0
EXTRACT: note_off channel=15 note=76 velocity=95 time=0
EXTRACT: note_off channel=15 note=64 velocity=95 time=0
EXTRACT: note_off channel=9 note=36 velocity=111 time=0
EXTRACT: note_off channel=9 note=42 velocity=111 time=0
EXTRACT: note_off channel=9 note=56 velocity=95 time=0
EXTRACT: note_on channel=9 note=82 velocity=95 time=0
EXTRACT: note_off channel=0 note=47 velocity=95 time=0.16853925
EXTRACT: note_off channel=0 note=40 velocity=95 time=0
EXTRACT: note_on channel=0 note=47 velocity=95 time=0
EXTRACT: note_on channel=0 note=40 velocity=95 time=0
EXTRACT: note_off channel=2 note=47 velocity=95 time=0
EXTRACT: note_off channel=2 note=40 velocity=95 time=0
EXTRACT: note_on channel=2 note=47 velocity=95 time=0
EXTRACT: note_on channel=2 note=40 velocity=95 time=0
EXTRACT: note_off channel=8 note=28 velocity=111 time=0
EXTRACT: note_on channel=8 note=28 velocity=111 time=0
EXTRACT: note_on channel=13 note=74 velocity=95 time=0
EXTRACT: note_on channel=4 note=62 velocity=95 time=0
EXTRACT: note_on channel=15 note=74 velocity=95 time=0
EXTRACT: note_on channel=15 note=62 velocity=95 time=0
EXTRACT: note_off channel=9 note=82 velocity=95 time=0
EXTRACT: note_on channel=9 note=42 velocity=111 time=0
EXTRACT: note_on channel=9 note=82 velocity=79 time=0
EXTRACT: note_on channel=9 note=36 velocity=111 time=0
EXTRACT: note_off channel=13 note=74 velocity=95 time=0.16853925
EXTRACT: note_on channel=13 note=76 velocity=95 time=0
EXTRACT: note_off channel=4 note=62 velocity=95 time=0
EXTRACT: note_on channel=4 note=64 velocity=95 time=0
EXTRACT: note_off channel=15 note=74 velocity=95 time=0
EXTRACT: note_off channel=15 note=62 velocity=95 time=0
EXTRACT: note_on channel=15 note=76 velocity=95 time=0
EXTRACT: note_on channel=15 note=64 velocity=95 time=0
EXTRACT: note_off channel=9 note=42 velocity=111 time=0
EXTRACT: note_off channel=9 note=82 velocity=79 time=0
EXTRACT: note_off channel=9 note=36 velocity=111 time=0
EXTRACT: note_off channel=0 note=47 velocity=95 time=0.16853925
EXTRACT: note_off channel=0 note=40 velocity=95 time=0
EXTRACT: note_off channel=2 note=47 velocity=95 time=0
EXTRACT: note_off channel=2 note=40 velocity=95 time=0
EXTRACT: note_off channel=8 note=28 velocity=111 time=0
EXTRACT: note_on channel=9 note=56 velocity=95 time=0
EXTRACT: note_on channel=9 note=82 velocity=95 time=0
EXTRACT: note_on channel=9 note=42 velocity=111 time=0
EXTRACT: note_on channel=9 note=38 velocity=127 time=0
EXTRACT: note_on channel=0 note=43 velocity=95 time=0.16853925
EXTRACT: note_on channel=8 note=31 velocity=127 time=0
EXTRACT: note_off channel=9 note=56 velocity=95 time=0
EXTRACT: note_off channel=9 note=82 velocity=95 time=0
EXTRACT: note_off channel=9 note=42 velocity=111 time=0
EXTRACT: note_off channel=9 note=38 velocity=127 time=0
EXTRACT: note_off channel=13 note=76 velocity=95 time=0.16853925
EXTRACT: note_off channel=4 note=64 velocity=95 time=0
EXTRACT: note_off channel=15 note=76 velocity=95 time=0
EXTRACT: note_off channel=15 note=64 velocity=95 time=0
EXTRACT: note_on channel=9 note=42 velocity=111 time=0
EXTRACT: note_on channel=13 note=71 velocity=95 time=0.16853925
EXTRACT: note_on channel=4 note=59 velocity=95 time=0
EXTRACT: note_on channel=15 note=71 velocity=95 time=0
EXTRACT: note_on channel=15 note=59 velocity=95 time=0
EXTRACT: note_off channel=9 note=42 velocity=111 time=0
EXTRACT: note_off channel=0 note=43 velocity=95 time=0.16853925
EXTRACT: note_on channel=0 note=52 velocity=95 time=0
EXTRACT: note_on channel=0 note=45 velocity=95 time=0
EXTRACT: note_on channel=2 note=52 velocity=95 time=0
EXTRACT: note_on channel=2 note=45 velocity=95 time=0
EXTRACT: note_off channel=8 note=31 velocity=127 time=0
EXTRACT: note_on channel=8 note=33 velocity=111 time=0
EXTRACT: note_off channel=13 note=71 velocity=95 time=0
EXTRACT: note_on channel=13 note=76 velocity=95 time=0
EXTRACT: note_off channel=4 note=59 velocity=95 time=0
EXTRACT: note_on channel=4 note=64 velocity=95 time=0
EXTRACT: note_off channel=15 note=71 velocity=95 time=0
EXTRACT: note_off channel=15 note=59 velocity=95 time=0
EXTRACT: note_on channel=15 note=76 velocity=95 time=0
EXTRACT: note_on channel=15 note=64 velocity=95 time=0
EXTRACT: note_on channel=9 note=56 velocity=95 time=0
EXTRACT: note_on channel=9 note=36 velocity=111 time=0
EXTRACT: note_on channel=9 note=42 velocity=111 time=0
EXTRACT: note_on channel=9 note=82 velocity=111 time=0
EXTRACT: note_off channel=13 note=76 velocity=95 time=0.16853925
EXTRACT: note_on channel=13 note=76 velocity=95 time=0
EXTRACT: note_off channel=4 note=64 velocity=95 time=0
EXTRACT: note_on channel=4 note=64 velocity=95 time=0
EXTRACT: note_off channel=15 note=76 velocity=95 time=0
EXTRACT: note_off channel=15 note=64 velocity=95 time=0
EXTRACT: note_on channel=15 note=76 velocity=95 time=0
EXTRACT: note_on channel=15 note=64 velocity=95 time=0
EXTRACT: note_off channel=9 note=56 velocity=95 time=0
EXTRACT: note_off channel=9 note=36 velocity=111 time=0
EXTRACT: note_off channel=9 note=42 velocity=111 time=0
EXTRACT: note_off channel=9 note=82 velocity=111 time=0
EXTRACT: note_off channel=0 note=52 velocity=95 time=0.16853925
EXTRACT: note_off channel=0 note=45 velocity=95 time=0
EXTRACT: note_on channel=0 note=52 velocity=95 time=0
EXTRACT: note_on channel=0 note=45 velocity=95 time=0
EXTRACT: note_off channel=2 note=52 velocity=95 time=0
EXTRACT: note_off channel=2 note=45 velocity=95 time=0
EXTRACT: note_on channel=2 note=52 velocity=95 time=0
EXTRACT: note_on channel=2 note=45 velocity=95 time=0
EXTRACT: note_off channel=8 note=33 velocity=111 time=0
EXTRACT: note_on channel=8 note=33 velocity=111 time=0
EXTRACT: note_off channel=13 note=76 velocity=95 time=0
EXTRACT: note_on channel=13 note=76 velocity=95 time=0
EXTRACT: note_off channel=4 note=64 velocity=95 time=0
EXTRACT: note_on channel=4 note=64 velocity=95 time=0
EXTRACT: note_off channel=15 note=76 velocity=95 time=0
EXTRACT: note_off channel=15 note=64 velocity=95 time=0
EXTRACT: note_on channel=15 note=76 velocity=95 time=0
EXTRACT: note_on channel=15 note=64 velocity=95 time=0
EXTRACT: note_on channel=9 note=36 velocity=111 time=0
EXTRACT: note_on channel=9 note=82 velocity=95 time=0
EXTRACT: note_on channel=9 note=42 velocity=111 time=0
EXTRACT: note_off channel=13 note=76 velocity=95 time=0.16853925
EXTRACT: note_on channel=13 note=76 velocity=95 time=0
EXTRACT: note_off channel=4 note=64 velocity=95 time=0
EXTRACT: note_on channel=4 note=64 velocity=95 time=0
EXTRACT: note_off channel=15 note=76 velocity=95 time=0
EXTRACT: note_off channel=15 note=64 velocity=95 time=0
EXTRACT: note_on channel=15 note=76 velocity=95 time=0
EXTRACT: note_on channel=15 note=64 velocity=95 time=0
EXTRACT: note_off channel=9 note=36 velocity=111 time=0
EXTRACT: note_off channel=9 note=82 velocity=95 time=0
EXTRACT: note_off channel=9 note=42 velocity=111 time=0
EXTRACT: note_off channel=0 note=52 velocity=95 time=0.16853925
EXTRACT: note_off channel=0 note=45 velocity=95 time=0
EXTRACT: note_off channel=2 note=52 velocity=95 time=0
EXTRACT: note_off channel=2 note=45 velocity=95 time=0
EXTRACT: note_off channel=8 note=33 velocity=111 time=0
EXTRACT: note_off channel=13 note=76 velocity=95 time=0
EXTRACT: note_on channel=13 note=76 velocity=95 time=0
EXTRACT: note_off channel=4 note=64 velocity=95 time=0
EXTRACT: note_on channel=4 note=64 velocity=95 time=0
EXTRACT: note_off channel=15 note=76 velocity=95 time=0
EXTRACT: note_off channel=15 note=64 velocity=95 time=0
EXTRACT: note_on channel=15 note=76 velocity=95 time=0
EXTRACT: note_on channel=15 note=64 velocity=95 time=0
EXTRACT: note_on channel=9 note=56 velocity=95 time=0
EXTRACT: note_on channel=9 note=38 velocity=127 time=0
EXTRACT: note_on channel=9 note=82 velocity=95 time=0
EXTRACT: note_on channel=9 note=42 velocity=111 time=0
EXTRACT: note_off channel=9 note=56 velocity=95 time=0.16853925
EXTRACT: note_off channel=9 note=38 velocity=127 time=0
EXTRACT: note_off channel=9 note=82 velocity=95 time=0
EXTRACT: note_off channel=9 note=42 velocity=111 time=0
EXTRACT: note_off channel=13 note=76 velocity=95 time=0.16853925
EXTRACT: note_on channel=13 note=76 velocity=95 time=0
EXTRACT: note_off channel=4 note=64 velocity=95 time=0
EXTRACT: note_on channel=4 note=64 velocity=95 time=0
EXTRACT: note_off channel=15 note=76 velocity=95 time=0
EXTRACT: note_off channel=15 note=64 velocity=95 time=0
EXTRACT: note_on channel=15 note=76 velocity=95 time=0
EXTRACT: note_on channel=15 note=64 velocity=95 time=0
EXTRACT: note_on channel=9 note=82 velocity=95 time=0
EXTRACT: note_on channel=9 note=42 velocity=127 time=0
EXTRACT: note_on channel=8 note=33 velocity=95 time=0.16853925
EXTRACT: note_off channel=13 note=76 velocity=95 time=0
EXTRACT: note_on channel=13 note=78 velocity=95 time=0
EXTRACT: note_off channel=4 note=64 velocity=95 time=0
EXTRACT: note_on channel=4 note=66 velocity=95 time=0
EXTRACT: note_off channel=15 note=76 velocity=95 time=0
EXTRACT: note_off channel=15 note=64 velocity=95 time=0
EXTRACT: note_on channel=15 note=78 velocity=95 time=0
EXTRACT: note_on channel=15 note=66 velocity=95 time=0
EXTRACT: note_off channel=9 note=82 velocity=95 time=0
EXTRACT: note_off channel=9 note=42 velocity=127 time=0
EXTRACT: note_on channel=9 note=82 velocity=79 time=0
EXTRACT: note_on channel=0 note=54 velocity=95 time=0.16853925
EXTRACT: note_on channel=0 note=47 velocity=95 time=0
EXTRACT: note_on channel=2 note=54 velocity=95 time=0
EXTRACT: note_on channel=2 note=47 velocity=95 time=0
EXTRACT: note_off channel=8 note=33 velocity=95 time=0
EXTRACT: note_on channel=8 note=35 velocity=111 time=0
EXTRACT: note_off channel=13 note=78 velocity=95 time=0
EXTRACT: note_on channel=13 note=79 velocity=95 time=0
EXTRACT: note_off channel=4 note=66 velocity=95 time=0
EXTRACT: note_on channel=4 note=67 velocity=95 time=0
EXTRACT: note_off channel=15 note=78 velocity=95 time=0
EXTRACT: note_off channel=15 note=66 velocity=95 time=0
EXTRACT: note_on channel=15 note=79 velocity=95 time=0
EXTRACT: note_on channel=15 note=67 velocity=95 time=0
EXTRACT: note_off channel=9 note=82 velocity=79 time=0
EXTRACT: note_on channel=9 note=56 velocity=95 time=0
EXTRACT: note_on channel=9 note=36 velocity=111 time=0
EXTRACT: note_on channel=9 note=42 velocity=127 time=0
EXTRACT: note_off channel=13 note=79 velocity=95 time=0.16853925
EXTRACT: note_on channel=13 note=78 velocity=95 time=0
EXTRACT: note_off channel=4 note=67 velocity=95 time=0
EXTRACT: note_on channel=4 note=66 velocity=95 time=0
EXTRACT: note_off channel=15 note=79 velocity=95 time=0
EXTRACT: note_off channel=15 note=67 velocity=95 time=0
EXTRACT: note_on channel=15 note=78 velocity=95 time=0
EXTRACT: note_on channel=15 note=66 velocity=95 time=0
EXTRACT: note_off channel=9 note=56 velocity=95 time=0
EXTRACT: note_off channel=9 note=36 velocity=111 time=0
EXTRACT: note_off channel=9 note=42 velocity=127 time=0
EXTRACT: note_on channel=9 note=82 velocity=95 time=0
EXTRACT: note_off channel=0 note=54 velocity=95 time=0.16853925
EXTRACT: note_off channel=0 note=47 velocity=95 time=0
EXTRACT: note_on channel=0 note=54 velocity=95 time=0
EXTRACT: note_on channel=0 note=47 velocity=95 time=0
EXTRACT: note_off channel=2 note=54 velocity=95 time=0
EXTRACT: note_off channel=2 note=47 velocity=95 time=0
EXTRACT: note_on channel=2 note=54 velocity=95 time=0
EXTRACT: note_on channel=2 note=47 velocity=95 time=0
EXTRACT: note_off channel=8 note=35 velocity=111 time=0
EXTRACT: note_on channel=8 note=35 velocity=111 time=0
EXTRACT: note_off channel=9 note=82 velocity=95 time=0
EXTRACT: note_on channel=9 note=36 velocity=111 time=0
EXTRACT: note_on channel=9 note=82 velocity=79 time=0
EXTRACT: note_on channel=9 note=42 velocity=111 time=0
EXTRACT: note_off channel=13 note=78 velocity=95 time=0.16853925
EXTRACT: note_on channel=13 note=79 velocity=95 time=0
EXTRACT: note_off channel=4 note=66 velocity=95 time=0
EXTRACT: note_on channel=4 note=67 velocity=95 time=0
EXTRACT: note_off channel=15 note=78 velocity=95 time=0
EXTRACT: note_off channel=15 note=66 velocity=95 time=0
EXTRACT: note_on channel=15 note=79 velocity=95 time=0
EXTRACT: note_on channel=15 note=67 velocity=95 time=0
EXTRACT: note_off channel=9 note=36 velocity=111 time=0
EXTRACT: note_off channel=9 note=82 velocity=79 time=0
EXTRACT: note_off channel=9 note=42 velocity=111 time=0
EXTRACT: note_off channel=0 note=54 velocity=95 time=0.16853925
EXTRACT: note_off channel=0 note=47 velocity=95 time=0
EXTRACT: note_off channel=2 note=54 velocity=95 time=0
EXTRACT: note_off channel=2 note=47 velocity=95 time=0
EXTRACT: note_off channel=8 note=35 velocity=111 time=0
EXTRACT: note_on channel=9 note=42 velocity=127 time=0
EXTRACT: note_on channel=9 note=38 velocity=111 time=0
EXTRACT: note_on channel=9 note=56 velocity=95 time=0
EXTRACT: note_on channel=9 note=82 velocity=95 time=0
EXTRACT: note_off channel=13 note=79 velocity=95 time=0.16853925
EXTRACT: note_on channel=13 note=78 velocity=95 time=0
EXTRACT: note_off channel=4 note=67 velocity=95 time=0
EXTRACT: note_on channel=4 note=66 velocity=95 time=0
EXTRACT: note_off channel=15 note=79 velocity=95 time=0
EXTRACT: note_off channel=15 note=67 velocity=95 time=0
EXTRACT: note_on channel=15 note=78 velocity=95 time=0
EXTRACT: note_on channel=15 note=66 velocity=95 time=0
EXTRACT: note_off channel=9 note=42 velocity=127 time=0
EXTRACT: note_off channel=9 note=38 velocity=111 time=0
EXTRACT: note_off channel=9 note=56 velocity=95 time=0
EXTRACT: note_off channel=9 note=82 velocity=95 time=0
EXTRACT: note_off channel=13 note=78 velocity=95 time=0.16853925
EXTRACT: note_off channel=4 note=66 velocity=95 time=0
EXTRACT: note_off channel=15 note=78 velocity=95 time=0
EXTRACT: note_off channel=15 note=66 velocity=95 time=0
EXTRACT: note_on channel=9 note=41 velocity=127 time=0
EXTRACT: note_on channel=9 note=42 velocity=127 time=0
EXTRACT: note_off channel=9 note=41 velocity=127 time=0.16853925
EXTRACT: note_off channel=9 note=42 velocity=127 time=0
EXTRACT: note_on channel=0 note=47 velocity=95 time=0.16853925
EXTRACT: note_on channel=0 note=40 velocity=95 time=0
EXTRACT: note_on channel=2 note=47 velocity=95 time=0
EXTRACT: note_on channel=2 note=40 velocity=95 time=0
EXTRACT: note_on channel=8 note=28 velocity=111 time=0
EXTRACT: note_on channel=13 note=76 velocity=95 time=0
EXTRACT: note_on channel=4 note=64 velocity=95 time=0
EXTRACT: note_on channel=15 note=76 velocity=95 time=0
EXTRACT: note_on channel=15 note=64 velocity=95 time=0
EXTRACT: note_on channel=9 note=82 velocity=111 time=0
EXTRACT: note_on channel=9 note=42 velocity=127 time=0
EXTRACT: note_on channel=9 note=36 velocity=111 time=0
EXTRACT: note_on channel=9 note=56 velocity=95 time=0
EXTRACT: note_off channel=9 note=82 velocity=111 time=0.16853925
EXTRACT: note_off channel=9 note=42 velocity=127 time=0
EXTRACT: note_off channel=9 note=36 velocity=111 time=0
EXTRACT: note_off channel=9 note=56 velocity=95 time=0
EXTRACT: note_off channel=0 note=47 velocity=95 time=0.16853925
EXTRACT: note_off channel=0 note=40 velocity=95 time=0
EXTRACT: note_on channel=0 note=47 velocity=95 time=0
EXTRACT: note_on channel=0 note=40 velocity=95 time=0
EXTRACT: note_off channel=2 note=47 velocity=95 time=0
EXTRACT: note_off channel=2 note=40 velocity=95 time=0
EXTRACT: note_on channel=2 note=47 velocity=95 time=0
EXTRACT: note_on channel=2 note=40 velocity=95 time=0
EXTRACT: note_off channel=8 note=28 velocity=111 time=0
EXTRACT: note_on channel=8 note=28 velocity=111 time=0
EXTRACT: note_on channel=9 note=36 velocity=111 time=0
EXTRACT: note_on channel=9 note=42 velocity=111 time=0
EXTRACT: note_off channel=9 note=36 velocity=111 time=0.16853925
EXTRACT: note_off channel=9 note=42 velocity=111 time=0
EXTRACT: note_off channel=0 note=47 velocity=95 time=0.16853925
EXTRACT: note_off channel=0 note=40 velocity=95 time=0
EXTRACT: pitchwheel channel=1 pitch=0 time=0
EXTRACT: note_on channel=1 note=55 velocity=95 time=0
EXTRACT: note_off channel=2 note=47 velocity=95 time=0
EXTRACT: note_off channel=2 note=40 velocity=95 time=0
EXTRACT: note_off channel=8 note=28 velocity=111 time=0
EXTRACT: note_off channel=13 note=76 velocity=95 time=0
EXTRACT: note_on channel=13 note=79 velocity=95 time=0
EXTRACT: note_off channel=4 note=64 velocity=95 time=0
EXTRACT: note_on channel=4 note=67 velocity=95 time=0
EXTRACT: note_off channel=15 note=76 velocity=95 time=0
EXTRACT: note_off channel=15 note=64 velocity=95 time=0
EXTRACT: note_on channel=15 note=79 velocity=95 time=0
EXTRACT: note_on channel=15 note=67 velocity=95 time=0
EXTRACT: note_on channel=9 note=56 velocity=95 time=0
EXTRACT: note_on channel=9 note=38 velocity=111 time=0
EXTRACT: note_on channel=9 note=82 velocity=95 time=0
EXTRACT: note_on channel=9 note=42 velocity=111 time=0
EXTRACT: pitchwheel channel=1 pitch=0 time=0.1123595
EXTRACT: note_off channel=9 note=56 velocity=95 time=0.05617975
EXTRACT: note_off channel=9 note=38 velocity=111 time=0
EXTRACT: note_off channel=9 note=82 velocity=95 time=0
EXTRACT: note_off channel=9 note=42 velocity=111 time=0
EXTRACT: pitchwheel channel=1 pitch=128 time=0.05617975
EXTRACT: pitchwheel channel=1 pitch=256 time=0.1123595
EXTRACT: pitchwheel channel=1 pitch=256 time=0
EXTRACT: note_on channel=9 note=82 velocity=95 time=0
EXTRACT: note_on channel=9 note=42 velocity=111 time=0
EXTRACT: note_on channel=8 note=28 velocity=95 time=0.16853925
EXTRACT: note_off channel=9 note=82 velocity=95 time=0
EXTRACT: note_off channel=9 note=42 velocity=111 time=0
EXTRACT: note_on channel=9 note=82 velocity=79 time=0
EXTRACT: pitchwheel channel=1 pitch=256 time=0.1123595
EXTRACT: pitchwheel channel=1 pitch=128 time=0.028089875
EXTRACT: pitchwheel channel=1 pitch=0 time=0.028089875
EXTRACT: pitchwheel channel=1 pitch=0 time=0
EXTRACT: pitchwheel channel=1 pitch=0 time=0
EXTRACT: note_off channel=1 note=55 velocity=95 time=0
EXTRACT: note_on channel=0 note=47 velocity=95 time=0
EXTRACT: note_on channel=0 note=40 velocity=95 time=0
EXTRACT: note_on channel=2 note=47 velocity=95 time=0
EXTRACT: note_on channel=2 note=40 velocity=95 time=0
EXTRACT: note_off channel=8 note=28 velocity=95 time=0
EXTRACT: note_on channel=8 note=28 velocity=111 time=0
EXTRACT: note_off channel=13 note=79 velocity=95 time=0
EXTRACT: note_on channel=13 note=76 velocity=95 time=0
EXTRACT: note_off channel=4 note=67 velocity=95 time=0
EXTRACT: note_on channel=4 note=64 velocity=95 time=0
EXTRACT: note_off channel=15 note=79 velocity=95 time=0
EXTRACT: note_off channel=15 note=67 velocity=95 time=0
EXTRACT: note_on channel=15 note=76 velocity=95 time=0
EXTRACT: note_on channel=15 note=64 velocity=95 time=0
EXTRACT: note_off channel=9 note=82 velocity=79 time=0
EXTRACT: note_on channel=9 note=56 velocity=95 time=0
EXTRACT: note_on channel=9 note=36 velocity=111 time=0
EXTRACT: note_on channel=9 note=42 velocity=111 time=0
EXTRACT: note_off channel=13 note=76 velocity=95 time=0.16853925
EXTRACT: note_off channel=4 note=64 velocity=95 time=0
EXTRACT: note_off channel=15 note=76 velocity=95 time=0
EXTRACT: note_off channel=15 note=64 velocity=95 time=0
EXTRACT: note_off channel=9 note=56 velocity=95 time=0
EXTRACT: note_off channel=9 note=36 velocity=111 time=0
EXTRACT: note_off channel=9 note=42 velocity=111 time=0
EXTRACT: note_on channel=9 note=82 velocity=95 time=0
EXTRACT: note_off channel=0 note=47 velocity=95 time=0.16853925
EXTRACT: note_off channel=0 note=40 velocity=95 time=0
EXTRACT: note_on channel=0 note=47 velocity=95 time=0
EXTRACT: note_on channel=0 note=40 velocity=95 time=0
EXTRACT: note_off channel=2 note=47 velocity=95 time=0
EXTRACT: note_off channel=2 note=40 velocity=95 time=0
EXTRACT: note_on channel=2 note=47 velocity=95 time=0
EXTRACT: note_on channel=2 note=40 velocity=95 time=0
EXTRACT: note_off channel=8 note=28 velocity=111 time=0
EXTRACT: note_on channel=8 note=28 velocity=111 time=0
EXTRACT: note_on channel=13 note=74 velocity=95 time=0
EXTRACT: note_on channel=4 note=62 velocity=95 time=0
EXTRACT: note_on channel=15 note=74 velocity=95 time=0
EXTRACT: note_on channel=15 note=62 velocity=95 time=0
EXTRACT: note_off channel=9 note=82 velocity=95 time=0
EXTRACT: note_on channel=9 note=42 velocity=111 time=0
EXTRACT: note_on channel=9 note=36 velocity=111 time=0
EXTRACT: note_on channel=9 note=82 velocity=79 time=0
EXTRACT: note_off channel=13 note=74 velocity=95 time=0.16853925
EXTRACT: note_on channel=13 note=76 velocity=95 time=0
EXTRACT: note_off channel=4 note=62 velocity=95 time=0
EXTRACT: note_on channel=4 note=64 velocity=95 time=0
EXTRACT: note_off channel=15 note=74 velocity=95 time=0
EXTRACT: note_off channel=15 note=62 velocity=95 time=0
EXTRACT: note_on channel=15 note=76 velocity=95 time=0
EXTRACT: note_on channel=15 note=64 velocity=95 time=0
EXTRACT: note_off channel=9 note=42 velocity=111 time=0
EXTRACT: note_off channel=9 note=36 velocity=111 time=0
EXTRACT: note_off channel=9 note=82 velocity=79 time=0
EXTRACT: note_off channel=0 note=47 velocity=95 time=0.16853925
EXTRACT: note_off channel=0 note=40 velocity=95 time=0
EXTRACT: note_off channel=2 note=47 velocity=95 time=0
EXTRACT: note_off channel=2 note=40 velocity=95 time=0
EXTRACT: note_off channel=8 note=28 velocity=111 time=0
EXTRACT: note_on channel=9 note=56 velocity=95 time=0
EXTRACT: note_on channel=9 note=42 velocity=111 time=0
EXTRACT: note_on channel=9 note=38 velocity=127 time=0
EXTRACT: note_on channel=9 note=82 velocity=95 time=0
EXTRACT: note_on channel=0 note=43 velocity=95 time=0.16853925
EXTRACT: note_on channel=8 note=31 velocity=127 time=0
EXTRACT: note_off channel=9 note=56 velocity=95 time=0
EXTRACT: note_off channel=9 note=42 velocity=111 time=0
EXTRACT: note_off channel=9 note=38 velocity=127 time=0
EXTRACT: note_off channel=9 note=82 velocity=95 time=0
EXTRACT: note_off channel=13 note=76 velocity=95 time=0.16853925
EXTRACT: note_off channel=4 note=64 velocity=95 time=0
EXTRACT: note_off channel=15 note=76 velocity=95 time=0
EXTRACT: note_off channel=15 note=64 velocity=95 time=0
EXTRACT: note_on channel=9 note=42 velocity=111 time=0
EXTRACT: note_on channel=13 note=71 velocity=95 time=0.16853925
EXTRACT: note_on channel=4 note=59 velocity=95 time=0
EXTRACT: note_on channel=15 note=71 velocity=95 time=0
EXTRACT: note_on channel=15 note=59 velocity=95 time=0
EXTRACT: note_off channel=9 note=42 velocity=111 time=0
EXTRACT: note_off channel=0 note=43 velocity=95 time=0
EXTRACT: note_on channel=0 note=52 velocity=95 time=0
EXTRACT: note_on channel=0 note=45 velocity=95 time=0
EXTRACT: note_on channel=2 note=52 velocity=95 time=0
EXTRACT: note_on channel=2 note=45 velocity=95 time=0
EXTRACT: note_off channel=8 note=31 velocity=127 time=0
EXTRACT: note_on channel=8 note=33 velocity=111 time=0
EXTRACT: note_off channel=13 note=71 velocity=95 time=0
EXTRACT: note_on channel=13 note=76 velocity=95 time=0
EXTRACT: note_off channel=4 note=59 velocity=95 time=0
EXTRACT: note_on channel=4 note=64 velocity=95 time=0
EXTRACT: note_off channel=15 note=71 velocity=95 time=0
EXTRACT: note_off channel=15 note=59 velocity=95 time=0
EXTRACT: note_on channel=15 note=76 velocity=95 time=0
EXTRACT: note_on channel=15 note=64 velocity=95 time=0
EXTRACT: note_on channel=9 note=82 velocity=111 time=0
EXTRACT: note_on channel=9 note=42 velocity=111 time=0
EXTRACT: note_on channel=9 note=56 velocity=95 time=0
EXTRACT: note_on channel=9 note=36 velocity=111 time=0
EXTRACT: note_off channel=13 note=76 velocity=95 time=0.16853925
EXTRACT: note_on channel=13 note=76 velocity=95 time=0
EXTRACT: note_off channel=4 note=64 velocity=95 time=0
EXTRACT: note_on channel=4 note=64 velocity=95 time=0
EXTRACT: note_off channel=15 note=76 velocity=95 time=0
EXTRACT: note_off channel=15 note=64 velocity=95 time=0
EXTRACT: note_on channel=15 note=76 velocity=95 time=0
EXTRACT: note_on channel=15 note=64 velocity=95 time=0
EXTRACT: note_off channel=9 note=82 velocity=111 time=0
EXTRACT: note_off channel=9 note=42 velocity=111 time=0
EXTRACT: note_off channel=9 note=56 velocity=95 time=0
EXTRACT: note_off channel=9 note=36 velocity=111 time=0
EXTRACT: note_off channel=0 note=52 velocity=95 time=0.16853925
EXTRACT: note_off channel=0 note=45 velocity=95 time=0
EXTRACT: note_on channel=0 note=52 velocity=95 time=0
EXTRACT: note_on channel=0 note=45 velocity=95 time=0
EXTRACT: note_off channel=2 note=52 velocity=95 time=0
EXTRACT: note_off channel=2 note=45 velocity=95 time=0
EXTRACT: note_on channel=2 note=52 velocity=95 time=0
EXTRACT: note_on channel=2 note=45 velocity=95 time=0
EXTRACT: note_off channel=8 note=33 velocity=111 time=0
EXTRACT: note_on channel=8 note=33 velocity=111 time=0
EXTRACT: note_off channel=13 note=76 velocity=95 time=0
EXTRACT: note_on channel=13 note=76 velocity=95 time=0
EXTRACT: note_off channel=4 note=64 velocity=95 time=0
EXTRACT: note_on channel=4 note=64 velocity=95 time=0
EXTRACT: note_off channel=15 note=76 velocity=95 time=0
EXTRACT: note_off channel=15 note=64 velocity=95 time=0
EXTRACT: note_on channel=15 note=76 velocity=95 time=0
EXTRACT: note_on channel=15 note=64 velocity=95 time=0
EXTRACT: note_on channel=9 note=82 velocity=95 time=0
EXTRACT: note_on channel=9 note=42 velocity=111 time=0
EXTRACT: note_on channel=9 note=36 velocity=111 time=0
EXTRACT: note_off channel=13 note=76 velocity=95 time=0.16853925
EXTRACT: note_on channel=13 note=76 velocity=95 time=0
EXTRACT: note_off channel=4 note=64 velocity=95 time=0
EXTRACT: note_on channel=4 note=64 velocity=95 time=0
EXTRACT: note_off channel=15 note=76 velocity=95 time=0
EXTRACT: note_off channel=15 note=64 velocity=95 time=0
EXTRACT: note_on channel=15 note=76 velocity=95 time=0
EXTRACT: note_on channel=15 note=64 velocity=95 time=0
EXTRACT: note_off channel=9 note=82 velocity=95 time=0
EXTRACT: note_off channel=9 note=42 velocity=111 time=0
EXTRACT: note_off channel=9 note=36 velocity=111 time=0
EXTRACT: note_on channel=9 note=82 velocity=79 time=0
EXTRACT: note_off channel=0 note=52 velocity=95 time=0.16853925
EXTRACT: note_off channel=0 note=45 velocity=95 time=0
EXTRACT: note_off channel=2 note=52 velocity=95 time=0
EXTRACT: note_off channel=2 note=45 velocity=95 time=0
EXTRACT: note_off channel=8 note=33 velocity=111 time=0
EXTRACT: note_off channel=13 note=76 velocity=95 time=0
EXTRACT: note_on channel=13 note=76 velocity=95 time=0
EXTRACT: note_off channel=4 note=64 velocity=95 time=0
EXTRACT: note_on channel=4 note=64 velocity=95 time=0
EXTRACT: note_off channel=15 note=76 velocity=95 time=0
EXTRACT: note_off channel=15 note=64 velocity=95 time=0
EXTRACT: note_on channel=15 note=76 velocity=95 time=0
EXTRACT: note_on channel=15 note=64 velocity=95 time=0
EXTRACT: note_off channel=9 note=82 velocity=79 time=0
EXTRACT: note_on channel=9 note=42 velocity=111 time=0
EXTRACT: note_on channel=9 note=38 velocity=127 time=0
EXTRACT: note_on channel=9 note=82 velocity=79 time=0
EXTRACT: note_on channel=9 note=56 velocity=95 time=0
EXTRACT: note_off channel=9 note=42 velocity=111 time=0.16853925
EXTRACT: note_off channel=9 note=38 velocity=127 time=0
EXTRACT: note_off channel=9 note=82 velocity=79 time=0
EXTRACT: note_off channel=9 note=56 velocity=95 time=0
EXTRACT: note_on channel=9 note=82 velocity=95 time=0
EXTRACT: note_off channel=13 note=76 velocity=95 time=0.16853925
EXTRACT: note_on channel=13 note=78 velocity=95 time=0
EXTRACT: note_off channel=4 note=64 velocity=95 time=0
EXTRACT: note_on channel=4 note=66 velocity=95 time=0
EXTRACT: note_off channel=15 note=76 velocity=95 time=0
EXTRACT: note_off channel=15 note=64 velocity=95 time=0
EXTRACT: note_on channel=15 note=78 velocity=95 time=0
EXTRACT: note_on channel=15 note=66 velocity=95 time=0
EXTRACT: note_off channel=9 note=82 velocity=95 time=0
EXTRACT: note_on channel=9 note=42 velocity=127 time=0
EXTRACT: note_on channel=8 note=33 velocity=95 time=0.16853925
EXTRACT: note_off channel=9 note=42 velocity=127 time=0
EXTRACT: note_on channel=9 note=82 velocity=95 time=0
EXTRACT: note_on channel=0 note=54 velocity=95 time=0.16853925
EXTRACT: note_on channel=0 note=47 velocity=95 time=0
EXTRACT: note_on channel=2 note=54 velocity=95 time=0
EXTRACT: note_on channel=2 note=47 velocity=95 time=0
EXTRACT: note_off channel=8 note=33 velocity=95 time=0
EXTRACT: note_on channel=8 note=35 velocity=111 time=0
EXTRACT: note_off channel=13 note=78 velocity=95 time=0
EXTRACT: note_on channel=13 note=79 velocity=95 time=0
EXTRACT: note_off channel=4 note=66 velocity=95 time=0
EXTRACT: note_on channel=4 note=67 velocity=95 time=0
EXTRACT: note_off channel=15 note=78 velocity=95 time=0
EXTRACT: note_off channel=15 note=66 velocity=95 time=0
EXTRACT: note_on channel=15 note=79 velocity=95 time=0
EXTRACT: note_on channel=15 note=67 velocity=95 time=0
EXTRACT: note_off channel=9 note=82 velocity=95 time=0
EXTRACT: note_on channel=9 note=42 velocity=127 time=0
EXTRACT: note_on channel=9 note=36 velocity=111 time=0
EXTRACT: note_on channel=9 note=56 velocity=95 time=0
EXTRACT: note_off channel=9 note=42 velocity=127 time=0.16853925
EXTRACT: note_off channel=9 note=36 velocity=111 time=0
EXTRACT: note_off channel=9 note=56 velocity=95 time=0
EXTRACT: note_on channel=9 note=82 velocity=95 time=0
EXTRACT: note_off channel=0 note=54 velocity=95 time=0.16853925
EXTRACT: note_off channel=0 note=47 velocity=95 time=0
EXTRACT: note_on channel=0 note=47 velocity=95 time=0
EXTRACT: note_off channel=2 note=54 velocity=95 time=0
EXTRACT: note_off channel=2 note=47 velocity=95 time=0
EXTRACT: note_on channel=2 note=47 velocity=95 time=0
EXTRACT: note_off channel=8 note=35 velocity=111 time=0
EXTRACT: note_on channel=8 note=35 velocity=95 time=0
EXTRACT: note_off channel=13 note=79 velocity=95 time=0
EXTRACT: note_on channel=13 note=78 velocity=95 time=0
EXTRACT: note_off channel=4 note=67 velocity=95 time=0
EXTRACT: note_on channel=4 note=66 velocity=95 time=0
EXTRACT: note_off channel=15 note=79 velocity=95 time=0
EXTRACT: note_off channel=15 note=67 velocity=95 time=0
EXTRACT: note_on channel=15 note=78 velocity=95 time=0
EXTRACT: note_on channel=15 note=66 velocity=95 time=0
EXTRACT: note_off channel=9 note=82 velocity=95 time=0
EXTRACT: note_on channel=9 note=42 velocity=111 time=0
EXTRACT: note_on channel=9 note=82 velocity=79 time=0
EXTRACT: note_on channel=9 note=36 velocity=111 time=0
EXTRACT: note_off channel=9 note=42 velocity=111 time=0.16853925
EXTRACT: note_off channel=9 note=82 velocity=79 time=0
EXTRACT: note_off channel=9 note=36 velocity=111 time=0
EXTRACT: note_off channel=0 note=47 velocity=95 time=0
EXTRACT: note_on channel=0 note=47 velocity=95 time=0
EXTRACT: note_on channel=0 note=40 velocity=95 time=0
EXTRACT: note_off channel=2 note=47 velocity=95 time=0
EXTRACT: note_on channel=2 note=47 velocity=95 time=0
EXTRACT: note_on channel=2 note=40 velocity=95 time=0
EXTRACT: note_off channel=8 note=35 velocity=95 time=0
EXTRACT: note_on channel=8 note=28 velocity=111 time=0
EXTRACT: note_off channel=13 note=78 velocity=95 time=0
EXTRACT: note_on channel=13 note=76 velocity=95 time=0
EXTRACT: note_off channel=4 note=66 velocity=95 time=0
EXTRACT: note_on channel=4 note=64 velocity=95 time=0
EXTRACT: note_off channel=15 note=78 velocity=95 time=0
EXTRACT: note_off channel=15 note=66 velocity=95 time=0
EXTRACT: note_on channel=15 note=76 velocity=95 time=0
EXTRACT: note_on channel=15 note=64 velocity=95 time=0
EXTRACT: note_on channel=9 note=56 velocity=95 time=0
EXTRACT: note_on channel=9 note=42 velocity=127 time=0
EXTRACT: note_on channel=9 note=36 velocity=111 time=0
EXTRACT: note_off channel=9 note=56 velocity=95 time=0.16853925
EXTRACT: note_off channel=9 note=42 velocity=127 time=0
EXTRACT: note_off channel=9 note=36 velocity=111 time=0
EXTRACT: note_off channel=0 note=47 velocity=95 time=0.16853925
EXTRACT: note_off channel=0 note=40 velocity=95 time=0
EXTRACT: note_on channel=0 note=47 velocity=95 time=0
EXTRACT: note_on channel=0 note=40 velocity=95 time=0
EXTRACT: note_off channel=2 note=47 velocity=95 time=0
EXTRACT: note_off channel=2 note=40 velocity=95 time=0
EXTRACT: note_on channel=2 note=47 velocity=95 time=0
EXTRACT: note_on channel=2 note=40 velocity=95 time=0
EXTRACT: note_off channel=8 note=28 velocity=111 time=0
EXTRACT: note_on channel=8 note=28 velocity=111 time=0
EXTRACT: note_off channel=13 note=76 velocity=95 time=0
EXTRACT: note_on channel=13 note=79 velocity=70 time=0
EXTRACT: note_off channel=4 note=64 velocity=95 time=0
EXTRACT: note_on channel=4 note=67 velocity=70 time=0
EXTRACT: note_off channel=15 note=76 velocity=95 time=0
EXTRACT: note_off channel=15 note=64 velocity=95 time=0
EXTRACT: note_on channel=9 note=36 velocity=111 time=0
EXTRACT: note_on channel=9 note=42 velocity=111 time=0
EXTRACT: note_off channel=13 note=79 velocity=70 time=0.16853925
EXTRACT: note_off channel=4 note=67 velocity=70 time=0
EXTRACT: note_off channel=9 note=36 velocity=111 time=0
EXTRACT: note_off channel=9 note=42 velocity=111 time=0
EXTRACT: note_off channel=0 note=47 velocity=95 time=0.16853925
EXTRACT: note_off channel=0 note=40 velocity=95 time=0
EXTRACT: note_off channel=2 note=47 velocity=95 time=0
EXTRACT: note_off channel=2 note=40 velocity=95 time=0
EXTRACT: note_off channel=8 note=28 velocity=111 time=0
EXTRACT: note_on channel=9 note=56 velocity=95 time=0
EXTRACT: note_on channel=9 note=42 velocity=111 time=0
EXTRACT: note_on channel=9 note=38 velocity=111 time=0
EXTRACT: note_off channel=9 note=56 velocity=95 time=0.16853925
EXTRACT: note_off channel=9 note=42 velocity=111 time=0
EXTRACT: note_off channel=9 note=38 velocity=111 time=0
EXTRACT: note_on channel=9 note=42 velocity=111 time=0.16853925
EXTRACT: note_off channel=9 note=42 velocity=111 time=0.16853925
EXTRACT: note_on channel=9 note=42 velocity=111 time=0.16853925
EXTRACT: note_on channel=9 note=36 velocity=111 time=0
EXTRACT: note_on channel=9 note=56 velocity=95 time=0
EXTRACT: note_off channel=9 note=42 velocity=111 time=0.16853925
EXTRACT: note_off channel=9 note=36 velocity=111 time=0
EXTRACT: note_off channel=9 note=56 velocity=95 time=0
EXTRACT: note_on channel=9 note=42 velocity=111 time=0.16853925
EXTRACT: note_on channel=9 note=36 velocity=111 time=0
EXTRACT: note_off channel=9 note=42 velocity=111 time=0.16853925
EXTRACT: note_off channel=9 note=36 velocity=111 time=0
EXTRACT: note_on channel=9 note=42 velocity=111 time=0.16853925
EXTRACT: note_on channel=9 note=38 velocity=127 time=0
EXTRACT: note_on channel=9 note=56 velocity=95 time=0
EXTRACT: note_off channel=9 note=42 velocity=111 time=0.16853925
EXTRACT: note_off channel=9 note=38 velocity=127 time=0
EXTRACT: note_off channel=9 note=56 velocity=95 time=0
EXTRACT: note_on channel=8 note=35 velocity=95 time=0.16853925
EXTRACT: note_on channel=9 note=42 velocity=111 time=0
EXTRACT: note_off channel=8 note=35 velocity=95 time=0.16853925
EXTRACT: note_on channel=8 note=31 velocity=95 time=0
EXTRACT: note_off channel=9 note=42 velocity=111 time=0
EXTRACT: note_on channel=0 note=47 velocity=95 time=0.16853925
EXTRACT: note_on channel=0 note=40 velocity=95 time=0
EXTRACT: note_on channel=2 note=64 velocity=95 time=0
EXTRACT: note_on channel=2 note=59 velocity=95 time=0
EXTRACT: note_on channel=2 note=52 velocity=95 time=0
EXTRACT: note_on channel=2 note=47 velocity=95 time=0
EXTRACT: note_on channel=2 note=40 velocity=95 time=0
EXTRACT: note_off channel=8 note=31 velocity=95 time=0
EXTRACT: note_on channel=8 note=28 velocity=111 time=0
EXTRACT: note_on channel=9 note=36 velocity=111 time=0
EXTRACT: note_on channel=9 note=42 velocity=111 time=0
EXTRACT: note_on channel=9 note=56 velocity=95 time=0
EXTRACT: note_off channel=9 note=36 velocity=111 time=0.16853925
EXTRACT: note_off channel=9 note=42 velocity=111 time=0
EXTRACT: note_off channel=9 note=56 velocity=95 time=0
EXTRACT: note_off channel=0 note=47 velocity=95 time=0.16853925
EXTRACT: note_off channel=0 note=40 velocity=95 time=0
EXTRACT: note_on channel=0 note=47 velocity=95 time=0
EXTRACT: note_on channel=0 note=40 velocity=95 time=0
EXTRACT: note_off channel=2 note=64 velocity=95 time=0
EXTRACT: note_off channel=2 note=59 velocity=95 time=0
EXTRACT: note_off channel=2 note=52 velocity=95 time=0
EXTRACT: note_off channel=2 note=47 velocity=95 time=0
EXTRACT: note_off channel=2 note=40 velocity=95 time=0
EXTRACT: note_on channel=2 note=64 velocity=95 time=0
EXTRACT: note_on channel=2 note=59 velocity=95 time=0
EXTRACT: note_on channel=2 note=52 velocity=95 time=0
EXTRACT: note_on channel=2 note=47 velocity=95 time=0
EXTRACT: note_on channel=2 note=40 velocity=95 time=0
EXTRACT: note_off channel=8 note=28 velocity=111 time=0
EXTRACT: note_on channel=8 note=28 velocity=111 time=0
EXTRACT: note_on channel=9 note=42 velocity=111 time=0
EXTRACT: note_on channel=9 note=36 velocity=111 time=0
EXTRACT: note_off channel=9 note=42 velocity=111 time=0.16853925
EXTRACT: note_off channel=9 note=36 velocity=111 time=0
EXTRACT: note_off channel=0 note=47 velocity=95 time=0.16853925
EXTRACT: note_off channel=0 note=40 velocity=95 time=0
EXTRACT: note_off channel=2 note=64 velocity=95 time=0
EXTRACT: note_off channel=2 note=59 velocity=95 time=0
EXTRACT: note_off channel=2 note=52 velocity=95 time=0
EXTRACT: note_off channel=2 note=47 velocity=95 time=0
EXTRACT: note_off channel=2 note=40 velocity=95 time=0
EXTRACT: note_off channel=8 note=28 velocity=111 time=0
EXTRACT: note_on channel=9 note=38 velocity=127 time=0
EXTRACT: note_on channel=9 note=42 velocity=111 time=0
EXTRACT: note_on channel=9 note=56 velocity=95 time=0
EXTRACT: note_off channel=9 note=38 velocity=127 time=0.16853925
EXTRACT: note_off channel=9 note=42 velocity=111 time=0
EXTRACT: note_off channel=9 note=56 velocity=95 time=0
EXTRACT: note_on channel=9 note=42 velocity=127 time=0.16853925
EXTRACT: note_off channel=9 note=42 velocity=127 time=0.16853925
EXTRACT: note_on channel=10 note=38 velocity=111 time=0.084269625
EXTRACT: pitchwheel channel=1 pitch=0 time=0.084269625
EXTRACT: note_on channel=1 note=50 velocity=95 time=0
EXTRACT: pitchwheel channel=3 pitch=0 time=0
EXTRACT: note_on channel=3 note=74 velocity=111 time=0
EXTRACT: pitchwheel channel=3 pitch=0 time=0
EXTRACT: note_on channel=3 note=62 velocity=95 time=0
EXTRACT: note_off channel=10 note=38 velocity=111 time=0
EXTRACT: note_on channel=10 note=40 velocity=111 time=0
EXTRACT: note_on channel=9 note=56 velocity=95 time=0
EXTRACT: note_on channel=9 note=42 velocity=127 time=0
EXTRACT: note_on channel=9 note=36 velocity=111 time=0
EXTRACT: pitchwheel channel=3 pitch=0 time=0.0421348125
EXTRACT: pitchwheel channel=1 pitch=0 time=0.028089875
EXTRACT: pitchwheel channel=3 pitch=0 time=0
EXTRACT: pitchwheel channel=3 pitch=0 time=0
EXTRACT: pitchwheel channel=1 pitch=128 time=0.000702246875
EXTRACT: pitchwheel channel=3 pitch=128 time=0
EXTRACT: pitchwheel channel=3 pitch=128 time=0
EXTRACT: pitchwheel channel=1 pitch=256 time=0.000702246875
EXTRACT: pitchwheel channel=3 pitch=256 time=0
EXTRACT: pitchwheel channel=3 pitch=256 time=0
EXTRACT: pitchwheel channel=1 pitch=384 time=0.000702246875
EXTRACT: pitchwheel channel=3 pitch=384 time=0
EXTRACT: pitchwheel channel=3 pitch=384 time=0
EXTRACT: pitchwheel channel=1 pitch=512 time=0.000702246875
EXTRACT: pitchwheel channel=3 pitch=512 time=0
EXTRACT: pitchwheel channel=3 pitch=512 time=0
EXTRACT: pitchwheel channel=1 pitch=640 time=0.000702246875
EXTRACT: pitchwheel channel=3 pitch=640 time=0
EXTRACT: pitchwheel channel=3 pitch=640 time=0
EXTRACT: pitchwheel channel=1 pitch=768 time=0.000702246875
EXTRACT: pitchwheel channel=3 pitch=768 time=0
EXTRACT: pitchwheel channel=3 pitch=768 time=0
EXTRACT: pitchwheel channel=1 pitch=896 time=0.000702246875
EXTRACT: pitchwheel channel=3 pitch=896 time=0
EXTRACT: pitchwheel channel=3 pitch=896 time=0
EXTRACT: pitchwheel channel=1 pitch=1024 time=0.000702246875
EXTRACT: pitchwheel channel=3 pitch=1024 time=0
EXTRACT: pitchwheel channel=3 pitch=1024 time=0
EXTRACT: pitchwheel channel=1 pitch=1152 time=0.000702246875
EXTRACT: pitchwheel channel=3 pitch=1152 time=0
EXTRACT: pitchwheel channel=3 pitch=1152 time=0
EXTRACT: pitchwheel channel=1 pitch=1280 time=0.000702246875
EXTRACT: pitchwheel channel=3 pitch=1280 time=0
EXTRACT: pitchwheel channel=3 pitch=1280 time=0
EXTRACT: pitchwheel channel=1 pitch=1408 time=0.000702246875
EXTRACT: pitchwheel channel=3 pitch=1408 time=0
EXTRACT: pitchwheel channel=3 pitch=1408 time=0
EXTRACT: pitchwheel channel=1 pitch=1408 time=0.0063202218749999995
EXTRACT: pitchwheel channel=3 pitch=1408 time=0
EXTRACT: pitchwheel channel=3 pitch=1408 time=0
EXTRACT: pitchwheel channel=1 pitch=1408 time=0.084269625
EXTRACT: pitchwheel channel=1 pitch=0 time=0
EXTRACT: note_off channel=1 note=50 velocity=95 time=0
EXTRACT: note_on channel=0 note=50 velocity=95 time=0
EXTRACT: pitchwheel channel=3 pitch=1408 time=0
EXTRACT: pitchwheel channel=3 pitch=0 time=0
EXTRACT: note_off channel=3 note=74 velocity=111 time=0
EXTRACT: pitchwheel channel=3 pitch=1408 time=0
EXTRACT: pitchwheel channel=3 pitch=0 time=0
EXTRACT: note_off channel=3 note=62 velocity=95 time=0
EXTRACT: note_on channel=2 note=74 velocity=111 time=0
EXTRACT: note_on channel=2 note=62 velocity=95 time=0
EXTRACT: note_off channel=10 note=40 velocity=111 time=0
EXTRACT: note_on channel=8 note=38 velocity=95 time=0
EXTRACT: note_off channel=9 note=56 velocity=95 time=0
EXTRACT: note_off channel=9 note=42 velocity=127 time=0
EXTRACT: note_off channel=9 note=36 velocity=111 time=0
EXTRACT: note_off channel=0 note=50 velocity=95 time=0.16853925
EXTRACT: note_on channel=0 note=47 velocity=95 time=0
EXTRACT: note_off channel=2 note=74 velocity=111 time=0
EXTRACT: note_off channel=2 note=62 velocity=95 time=0
EXTRACT: note_on channel=2 note=71 velocity=111 time=0
EXTRACT: note_on channel=2 note=59 velocity=95 time=0
EXTRACT: note_off channel=8 note=38 velocity=95 time=0
EXTRACT: note_on channel=8 note=35 velocity=95 time=0
EXTRACT: note_on channel=9 note=42 velocity=111 time=0
EXTRACT: note_on channel=9 note=36 velocity=111 time=0
EXTRACT: note_off channel=9 note=42 velocity=111 time=0.16853925
EXTRACT: note_off channel=9 note=36 velocity=111 time=0
EXTRACT: note_off channel=0 note=47 velocity=95 time=0.16853925
EXTRACT: note_on channel=0 note=45 velocity=95 time=0
EXTRACT: note_off channel=2 note=71 velocity=111 time=0
EXTRACT: note_off channel=2 note=59 velocity=95 time=0
EXTRACT: note_on channel=2 note=69 velocity=111 time=0
EXTRACT: note_on channel=2 note=57 velocity=95 time=0
EXTRACT: note_off channel=8 note=35 velocity=95 time=0
EXTRACT: note_on channel=8 note=33 velocity=111 time=0
EXTRACT: note_on channel=9 note=56 velocity=95 time=0
EXTRACT: note_on channel=9 note=42 velocity=127 time=0
EXTRACT: note_on channel=9 note=38 velocity=111 time=0
EXTRACT: note_off channel=0 note=45 velocity=95 time=0.16853925
EXTRACT: pitchwheel channel=1 pitch=0 time=0
EXTRACT: note_on channel=1 note=43 velocity=95 time=0
EXTRACT: note_off channel=2 note=69 velocity=111 time=0
EXTRACT: note_off channel=2 note=57 velocity=95 time=0
EXTRACT: pitchwheel channel=3 pitch=0 time=0
EXTRACT: note_on channel=3 note=67 velocity=111 time=0
EXTRACT: pitchwheel channel=3 pitch=0 time=0
EXTRACT: note_on channel=3 note=55 velocity=95 time=0
EXTRACT: note_off channel=8 note=33 velocity=111 time=0
EXTRACT: note_on channel=8 note=31 velocity=111 time=0
EXTRACT: note_off channel=9 note=56 velocity=95 time=0
EXTRACT: note_off channel=9 note=42 velocity=127 time=0
EXTRACT: note_off channel=9 note=38 velocity=111 time=0
EXTRACT: pitchwheel channel=1 pitch=0 time=0.1264044375
EXTRACT: pitchwheel channel=3 pitch=0 time=0
EXTRACT: pitchwheel channel=3 pitch=0 time=0
EXTRACT: note_on channel=9 note=42 velocity=127 time=0.0421348125
EXTRACT: note_on channel=9 note=41 velocity=127 time=0
EXTRACT: pitchwheel channel=1 pitch=128 time=0.02106740625
EXTRACT: pitchwheel channel=3 pitch=128 time=0
EXTRACT: pitchwheel channel=3 pitch=128 time=0
EXTRACT: pitchwheel channel=1 pitch=256 time=0.06320221875
EXTRACT: pitchwheel channel=1 pitch=256 time=0
EXTRACT: pitchwheel channel=3 pitch=256 time=0
EXTRACT: pitchwheel channel=3 pitch=256 time=0
EXTRACT: pitchwheel channel=3 pitch=256 time=0
EXTRACT: pitchwheel channel=3 pitch=256 time=0
EXTRACT: note_off channel=9 note=42 velocity=127 time=0.084269625
EXTRACT: note_off channel=9 note=41 velocity=127 time=0
EXTRACT: pitchwheel channel=1 pitch=256 time=0.16853925
EXTRACT: pitchwheel channel=1 pitch=0 time=0
EXTRACT: note_off channel=1 note=43 velocity=95 time=0
EXTRACT: note_on channel=0 note=47 velocity=95 time=0
EXTRACT: note_on channel=0 note=40 velocity=95 time=0
EXTRACT: pitchwheel channel=3 pitch=256 time=0
EXTRACT: pitchwheel channel=3 pitch=0 time=0
EXTRACT: note_off channel=3 note=67 velocity=111 time=0
EXTRACT: pitchwheel channel=3 pitch=256 time=0
EXTRACT: pitchwheel channel=3 pitch=0 time=0
EXTRACT: note_off channel=3 note=55 velocity=95 time=0
EXTRACT: note_on channel=2 note=47 velocity=95 time=0
EXTRACT: note_on channel=2 note=40 velocity=95 time=0
EXTRACT: note_off channel=8 note=31 velocity=111 time=0
EXTRACT: note_on channel=8 note=28 velocity=111 time=0
EXTRACT: note_on channel=9 note=56 velocity=95 time=0
EXTRACT: note_on channel=9 note=36 velocity=111 time=0
EXTRACT: note_on channel=9 note=42 velocity=127 time=0
EXTRACT: note_off channel=9 note=56 velocity=95 time=0.16853925
EXTRACT: note_off channel=9 note=36 velocity=111 time=0
EXTRACT: note_off channel=9 note=42 velocity=127 time=0
EXTRACT: note_off channel=0 note=47 velocity=95 time=0.16853925
EXTRACT: note_off channel=0 note=40 velocity=95 time=0
EXTRACT: note_on channel=0 note=47 velocity=95 time=0
EXTRACT: note_on channel=0 note=40 velocity=95 time=0
EXTRACT: note_off channel=2 note=47 velocity=95 time=0
EXTRACT: note_off channel=2 note=40 velocity=95 time=0
EXTRACT: note_on channel=2 note=47 velocity=95 time=0
EXTRACT: note_on channel=2 note=40 velocity=95 time=0
EXTRACT: note_off channel=8 note=28 velocity=111 time=0
EXTRACT: note_on channel=8 note=28 velocity=111 time=0
EXTRACT: note_on channel=13 note=74 velocity=111 time=0
EXTRACT: note_on channel=4 note=62 velocity=111 time=0
EXTRACT: note_on channel=9 note=36 velocity=111 time=0
EXTRACT: note_on channel=9 note=42 velocity=111 time=0
EXTRACT: note_off channel=9 note=36 velocity=111 time=0.16853925
EXTRACT: note_off channel=9 note=42 velocity=111 time=0
EXTRACT: note_off channel=0 note=47 velocity=95 time=0.16853925
EXTRACT: note_off channel=0 note=40 velocity=95 time=0
EXTRACT: note_off channel=2 note=47 velocity=95 time=0
EXTRACT: note_off channel=2 note=40 velocity=95 time=0
EXTRACT: note_off channel=8 note=28 velocity=111 time=0
EXTRACT: note_off channel=13 note=74 velocity=111 time=0
EXTRACT: note_on channel=13 note=74 velocity=111 time=0
EXTRACT: note_off channel=4 note=62 velocity=111 time=0
EXTRACT: note_on channel=4 note=62 velocity=111 time=0
EXTRACT: note_on channel=9 note=38 velocity=111 time=0
EXTRACT: note_on channel=9 note=56 velocity=95 time=0
EXTRACT: note_on channel=9 note=42 velocity=111 time=0
EXTRACT: note_off channel=9 note=38 velocity=111 time=0.16853925
EXTRACT: note_off channel=9 note=56 velocity=95 time=0
EXTRACT: note_off channel=9 note=42 velocity=111 time=0
EXTRACT: note_off channel=13 note=74 velocity=111 time=0.16853925
EXTRACT: note_on channel=13 note=74 velocity=111 time=0
EXTRACT: note_off channel=4 note=62 velocity=111 time=0
EXTRACT: note_on channel=4 note=62 velocity=111 time=0
EXTRACT: note_on channel=9 note=42 velocity=111 time=0
EXTRACT: note_off channel=9 note=42 velocity=111 time=0.16853925
EXTRACT: note_off channel=13 note=74 velocity=111 time=0.16853925
EXTRACT: note_on channel=13 note=71 velocity=111 time=0
EXTRACT: note_off channel=4 note=62 velocity=111 time=0
EXTRACT: note_on channel=4 note=59 velocity=111 time=0
EXTRACT: note_on channel=9 note=56 velocity=95 time=0
EXTRACT: note_on channel=9 note=42 velocity=111 time=0
EXTRACT: note_on channel=9 note=36 velocity=111 time=0
EXTRACT: note_off channel=13 note=71 velocity=111 time=0.16853925
EXTRACT: note_on channel=13 note=76 velocity=111 time=0
EXTRACT: note_off channel=4 note=59 velocity=111 time=0
EXTRACT: note_on channel=4 note=64 velocity=111 time=0
EXTRACT: note_off channel=9 note=56 velocity=95 time=0
EXTRACT: note_off channel=9 note=42 velocity=111 time=0
EXTRACT: note_off channel=9 note=36 velocity=111 time=0
EXTRACT: note_on channel=9 note=42 velocity=111 time=0.16853925
EXTRACT: note_on channel=9 note=36 velocity=111 time=0
EXTRACT: note_off channel=9 note=42 velocity=111 time=0.16853925
EXTRACT: note_off channel=9 note=36 velocity=111 time=0
EXTRACT: note_off channel=13 note=76 velocity=111 time=0.16853925
EXTRACT: note_off channel=4 note=64 velocity=111 time=0
EXTRACT: note_on channel=9 note=42 velocity=111 time=0
EXTRACT: note_on channel=9 note=38 velocity=127 time=0
EXTRACT: note_on channel=9 note=56 velocity=95 time=0
EXTRACT: note_off channel=9 note=42 velocity=111 time=0.16853925
EXTRACT: note_off channel=9 note=38 velocity=127 time=0
EXTRACT: note_off channel=9 note=56 velocity=95 time=0
EXTRACT: note_on channel=13 note=76 velocity=111 time=0.16853925
EXTRACT: note_on channel=4 note=64 velocity=111 time=0
EXTRACT: note_on channel=9 note=42 velocity=111 time=0
EXTRACT: note_on channel=8 note=28 velocity=95 time=0.16853925
EXTRACT: note_off channel=13 note=76 velocity=111 time=0
EXTRACT: note_off channel=4 note=64 velocity=111 time=0
EXTRACT: note_off channel=9 note=42 velocity=111 time=0
EXTRACT: note_on channel=0 note=52 velocity=95 time=0.16853925
EXTRACT: note_on channel=0 note=47 velocity=95 time=0
EXTRACT: note_on channel=0 note=40 velocity=95 time=0
EXTRACT: note_on channel=2 note=52 velocity=95 time=0
EXTRACT: note_on channel=2 note=47 velocity=95 time=0
EXTRACT: note_on channel=2 note=40 velocity=95 time=0
EXTRACT: note_off channel=8 note=28 velocity=95 time=0
EXTRACT: note_on channel=8 note=28 velocity=111 time=0
EXTRACT: note_on channel=9 note=56 velocity=95 time=0
EXTRACT: note_on channel=9 note=42 velocity=111 time=0
EXTRACT: note_on channel=9 note=36 velocity=111 time=0
EXTRACT: note_off channel=9 note=56 velocity=95 time=0.16853925
EXTRACT: note_off channel=9 note=42 velocity=111 time=0
EXTRACT: note_off channel=9 note=36 velocity=111 time=0
EXTRACT: note_off channel=0 note=52 velocity=95 time=0.16853925
EXTRACT: note_off channel=0 note=47 velocity=95 time=0
EXTRACT: note_off channel=0 note=40 velocity=95 time=0
EXTRACT: note_on channel=0 note=52 velocity=95 time=0
EXTRACT: note_on channel=0 note=47 velocity=95 time=0
EXTRACT: note_on channel=0 note=40 velocity=95 time=0
EXTRACT: note_off channel=2 note=52 velocity=95 time=0
EXTRACT: note_off channel=2 note=47 velocity=95 time=0
EXTRACT: note_off channel=2 note=40 velocity=95 time=0
EXTRACT: note_on channel=2 note=52 velocity=95 time=0
EXTRACT: note_on channel=2 note=47 velocity=95 time=0
EXTRACT: note_on channel=2 note=40 velocity=95 time=0
EXTRACT: note_off channel=8 note=28 velocity=111 time=0
EXTRACT: note_on channel=8 note=28 velocity=111 time=0
EXTRACT: note_on channel=13 note=74 velocity=111 time=0
EXTRACT: note_on channel=4 note=62 velocity=111 time=0
EXTRACT: note_on channel=9 note=36 velocity=111 time=0
EXTRACT: note_on channel=9 note=42 velocity=111 time=0
EXTRACT: note_off channel=9 note=36 velocity=111 time=0.16853925
EXTRACT: note_off channel=9 note=42 velocity=111 time=0
EXTRACT: note_off channel=0 note=52 velocity=95 time=0.16853925
EXTRACT: note_off channel=0 note=47 velocity=95 time=0
EXTRACT: note_off channel=0 note=40 velocity=95 time=0
EXTRACT: note_off channel=2 note=52 velocity=95 time=0
EXTRACT: note_off channel=2 note=47 velocity=95 time=0
EXTRACT: note_off channel=2 note=40 velocity=95 time=0
EXTRACT: note_off channel=8 note=28 velocity=111 time=0
EXTRACT: note_off channel=13 note=74 velocity=111 time=0
EXTRACT: note_on channel=13 note=74 velocity=111 time=0
EXTRACT: note_off channel=4 note=62 velocity=111 time=0
EXTRACT: note_on channel=4 note=62 velocity=111 time=0
EXTRACT: note_on channel=9 note=56 velocity=95 time=0
EXTRACT: note_on channel=9 note=42 velocity=111 time=0
EXTRACT: note_on channel=9 note=38 velocity=127 time=0
EXTRACT: note_off channel=9 note=56 velocity=95 time=0.16853925
EXTRACT: note_off channel=9 note=42 velocity=111 time=0
EXTRACT: note_off channel=9 note=38 velocity=127 time=0
EXTRACT: note_off channel=13 note=74 velocity=111 time=0.16853925
EXTRACT: note_on channel=13 note=74 velocity=111 time=0
EXTRACT: note_off channel=4 note=62 velocity=111 time=0
EXTRACT: note_on channel=4 note=62 velocity=111 time=0
EXTRACT: note_on channel=9 note=42 velocity=127 time=0
EXTRACT: note_off channel=9 note=42 velocity=127 time=0.16853925
EXTRACT: note_on channel=10 note=38 velocity=111 time=0.084269625
EXTRACT: pitchwheel channel=1 pitch=0 time=0.084269625
EXTRACT: note_on channel=1 note=50 velocity=95 time=0
EXTRACT: pitchwheel channel=3 pitch=0 time=0
EXTRACT: note_on channel=3 note=74 velocity=111 time=0
EXTRACT: pitchwheel channel=3 pitch=0 time=0
EXTRACT: note_on channel=3 note=62 velocity=95 time=0
EXTRACT: note_off channel=10 note=38 velocity=111 time=0
EXTRACT: note_on channel=10 note=40 velocity=111 time=0
EXTRACT: note_off channel=13 note=74 velocity=111 time=0
EXTRACT: note_on channel=13 note=76 velocity=111 time=0
EXTRACT: note_off channel=4 note=62 velocity=111 time=0
EXTRACT: note_on channel=4 note=64 velocity=111 time=0
EXTRACT: note_on channel=9 note=36 velocity=111 time=0
EXTRACT: note_on channel=9 note=56 velocity=95 time=0
EXTRACT: note_on channel=9 note=42 velocity=127 time=0
EXTRACT: pitchwheel channel=3 pitch=0 time=0.0421348125
EXTRACT: pitchwheel channel=1 pitch=0 time=0.028089875
EXTRACT: pitchwheel channel=3 pitch=0 time=0
EXTRACT: pitchwheel channel=3 pitch=0 time=0
EXTRACT: pitchwheel channel=1 pitch=128 time=0.000702246875
EXTRACT: pitchwheel channel=3 pitch=128 time=0
EXTRACT: pitchwheel channel=3 pitch=128 time=0
EXTRACT: pitchwheel channel=1 pitch=256 time=0.000702246875
EXTRACT: pitchwheel channel=3 pitch=256 time=0
EXTRACT: pitchwheel channel=3 pitch=256 time=0
EXTRACT: pitchwheel channel=1 pitch=384 time=0.000702246875
EXTRACT: pitchwheel channel=3 pitch=384 time=0
EXTRACT: pitchwheel channel=3 pitch=384 time=0
EXTRACT: pitchwheel channel=1 pitch=512 time=0.000702246875
EXTRACT: pitchwheel channel=3 pitch=512 time=0
EXTRACT: pitchwheel channel=3 pitch=512 time=0
EXTRACT: pitchwheel channel=1 pitch=640 time=0.000702246875
EXTRACT: pitchwheel channel=3 pitch=640 time=0
EXTRACT: pitchwheel channel=3 pitch=640 time=0
EXTRACT: pitchwheel channel=1 pitch=768 time=0.000702246875
EXTRACT: pitchwheel channel=3 pitch=768 time=0
EXTRACT: pitchwheel channel=3 pitch=768 time=0
EXTRACT: pitchwheel channel=1 pitch=896 time=0.000702246875
EXTRACT: pitchwheel channel=3 pitch=896 time=0
EXTRACT: pitchwheel channel=3 pitch=896 time=0
EXTRACT: pitchwheel channel=1 pitch=1024 time=0.000702246875
EXTRACT: pitchwheel channel=3 pitch=1024 time=0
EXTRACT: pitchwheel channel=3 pitch=1024 time=0
EXTRACT: pitchwheel channel=1 pitch=1152 time=0.000702246875
EXTRACT: pitchwheel channel=3 pitch=1152 time=0
EXTRACT: pitchwheel channel=3 pitch=1152 time=0
EXTRACT: pitchwheel channel=1 pitch=1280 time=0.000702246875
EXTRACT: pitchwheel channel=3 pitch=1280 time=0
EXTRACT: pitchwheel channel=3 pitch=1280 time=0
EXTRACT: pitchwheel channel=1 pitch=1408 time=0.000702246875
EXTRACT: pitchwheel channel=3 pitch=1408 time=0
EXTRACT: pitchwheel channel=3 pitch=1408 time=0
EXTRACT: pitchwheel channel=1 pitch=1408 time=0.0063202218749999995
EXTRACT: pitchwheel channel=3 pitch=1408 time=0
EXTRACT: pitchwheel channel=3 pitch=1408 time=0
EXTRACT: pitchwheel channel=1 pitch=1408 time=0.084269625
EXTRACT: pitchwheel channel=1 pitch=0 time=0
EXTRACT: note_off channel=1 note=50 velocity=95 time=0
EXTRACT: note_on channel=0 note=50 velocity=95 time=0
EXTRACT: pitchwheel channel=3 pitch=1408 time=0
EXTRACT: pitchwheel channel=3 pitch=0 time=0
EXTRACT: note_off channel=3 note=74 velocity=111 time=0
EXTRACT: pitchwheel channel=3 pitch=1408 time=0
EXTRACT: pitchwheel channel=3 pitch=0 time=0
EXTRACT: note_off channel=3 note=62 velocity=95 time=0
EXTRACT: note_on channel=2 note=74 velocity=111 time=0
EXTRACT: note_on channel=2 note=62 velocity=95 time=0
EXTRACT: note_off channel=10 note=40 velocity=111 time=0
EXTRACT: note_on channel=8 note=38 velocity=95 time=0
EXTRACT: note_off channel=13 note=76 velocity=111 time=0
EXTRACT: note_on channel=13 note=76 velocity=111 time=0
EXTRACT: note_off channel=4 note=64 velocity=111 time=0
EXTRACT: note_on channel=4 note=64 velocity=111 time=0
EXTRACT: note_off channel=9 note=36 velocity=111 time=0
EXTRACT: note_off channel=9 note=56 velocity=95 time=0
EXTRACT: note_off channel=9 note=42 velocity=127 time=0
EXTRACT: note_off channel=0 note=50 velocity=95 time=0.16853925
EXTRACT: note_on channel=0 note=47 velocity=95 time=0
EXTRACT: note_off channel=2 note=74 velocity=111 time=0
EXTRACT: note_off channel=2 note=62 velocity=95 time=0
EXTRACT: note_on channel=2 note=71 velocity=111 time=0
EXTRACT: note_on channel=2 note=59 velocity=95 time=0
EXTRACT: note_off channel=8 note=38 velocity=95 time=0
EXTRACT: note_on channel=8 note=35 velocity=95 time=0
EXTRACT: note_on channel=9 note=36 velocity=111 time=0
EXTRACT: note_on channel=9 note=42 velocity=111 time=0
EXTRACT: note_off channel=9 note=36 velocity=111 time=0.16853925
EXTRACT: note_off channel=9 note=42 velocity=111 time=0
EXTRACT: note_off channel=0 note=47 velocity=95 time=0.16853925
EXTRACT: note_on channel=0 note=45 velocity=95 time=0
EXTRACT: note_off channel=2 note=71 velocity=111 time=0
EXTRACT: note_off channel=2 note=59 velocity=95 time=0
EXTRACT: note_on channel=2 note=69 velocity=111 time=0
EXTRACT: note_on channel=2 note=57 velocity=95 time=0
EXTRACT: note_off channel=8 note=35 velocity=95 time=0
EXTRACT: note_on channel=8 note=33 velocity=111 time=0
EXTRACT: note_off channel=13 note=76 velocity=111 time=0
EXTRACT: note_off channel=4 note=64 velocity=111 time=0
EXTRACT: note_on channel=9 note=56 velocity=95 time=0
EXTRACT: note_on channel=9 note=38 velocity=111 time=0
EXTRACT: note_on channel=9 note=42 velocity=127 time=0
EXTRACT: note_off channel=0 note=45 velocity=95 time=0.16853925
EXTRACT: pitchwheel channel=1 pitch=0 time=0
EXTRACT: note_on channel=1 note=43 velocity=95 time=0
EXTRACT: note_off channel=2 note=69 velocity=111 time=0
EXTRACT: note_off channel=2 note=57 velocity=95 time=0
EXTRACT: pitchwheel channel=3 pitch=0 time=0
EXTRACT: note_on channel=3 note=67 velocity=111 time=0
EXTRACT: pitchwheel channel=3 pitch=0 time=0
EXTRACT: note_on channel=3 note=55 velocity=95 time=0
EXTRACT: note_off channel=8 note=33 velocity=111 time=0
EXTRACT: note_on channel=8 note=31 velocity=111 time=0
EXTRACT: note_off channel=9 note=56 velocity=95 time=0
EXTRACT: note_off channel=9 note=38 velocity=111 time=0
EXTRACT: note_off channel=9 note=42 velocity=127 time=0
EXTRACT: pitchwheel channel=1 pitch=0 time=0.1264044375
EXTRACT: pitchwheel channel=3 pitch=0 time=0
EXTRACT: pitchwheel channel=3 pitch=0 time=0
EXTRACT: note_on channel=9 note=41 velocity=127 time=0.0421348125
EXTRACT: note_on channel=9 note=42 velocity=127 time=0
EXTRACT: pitchwheel channel=1 pitch=128 time=0.02106740625
EXTRACT: pitchwheel channel=3 pitch=128 time=0
EXTRACT: pitchwheel channel=3 pitch=128 time=0
EXTRACT: pitchwheel channel=1 pitch=256 time=0.06320221875
EXTRACT: pitchwheel channel=1 pitch=256 time=0
EXTRACT: pitchwheel channel=3 pitch=256 time=0
EXTRACT: pitchwheel channel=3 pitch=256 time=0
EXTRACT: pitchwheel channel=3 pitch=256 time=0
EXTRACT: pitchwheel channel=3 pitch=256 time=0
EXTRACT: note_off channel=9 note=41 velocity=127 time=0.084269625
EXTRACT: note_off channel=9 note=42 velocity=127 time=0
EXTRACT: pitchwheel channel=1 pitch=256 time=0.16853925
EXTRACT: pitchwheel channel=1 pitch=0 time=0
EXTRACT: note_off channel=1 note=43 velocity=95 time=0
EXTRACT: note_on channel=0 note=47 velocity=95 time=0
EXTRACT: note_on channel=0 note=40 velocity=95 time=0
EXTRACT: pitchwheel channel=3 pitch=256 time=0
EXTRACT: pitchwheel channel=3 pitch=0 time=0
EXTRACT: note_off channel=3 note=67 velocity=111 time=0
EXTRACT: pitchwheel channel=3 pitch=256 time=0
EXTRACT: pitchwheel channel=3 pitch=0 time=0
EXTRACT: note_off channel=3 note=55 velocity=95 time=0
EXTRACT: note_on channel=2 note=52 velocity=95 time=0
EXTRACT: note_on channel=2 note=47 velocity=95 time=0
EXTRACT: note_on channel=2 note=40 velocity=95 time=0
EXTRACT: note_off channel=8 note=31 velocity=111 time=0
EXTRACT: note_on channel=8 note=28 velocity=111 time=0
EXTRACT: note_on channel=9 note=56 velocity=95 time=0
EXTRACT: note_on channel=9 note=36 velocity=111 time=0
EXTRACT: note_on channel=9 note=42 velocity=127 time=0
EXTRACT: note_off channel=9 note=56 velocity=95 time=0.16853925
EXTRACT: note_off channel=9 note=36 velocity=111 time=0
EXTRACT: note_off channel=9 note=42 velocity=127 time=0
EXTRACT: note_off channel=0 note=47 velocity=95 time=0.16853925
EXTRACT: note_off channel=0 note=40 velocity=95 time=0
EXTRACT: note_on channel=0 note=47 velocity=95 time=0
EXTRACT: note_on channel=0 note=40 velocity=95 time=0
EXTRACT: note_off channel=2 note=52 velocity=95 time=0
EXTRACT: note_off channel=2 note=47 velocity=95 time=0
EXTRACT: note_off channel=2 note=40 velocity=95 time=0
EXTRACT: note_on channel=2 note=52 velocity=95 time=0
EXTRACT: note_on channel=2 note=47 velocity=95 time=0
EXTRACT: note_on channel=2 note=40 velocity=95 time=0
EXTRACT: note_off channel=8 note=28 velocity=111 time=0
EXTRACT: note_on channel=8 note=28 velocity=111 time=0
EXTRACT: note_on channel=13 note=74 velocity=111 time=0
EXTRACT: note_on channel=4 note=62 velocity=111 time=0
EXTRACT: note_on channel=9 note=36 velocity=111 time=0
EXTRACT: note_on channel=9 note=42 velocity=111 time=0
EXTRACT: note_off channel=9 note=36 velocity=111 time=0.16853925
EXTRACT: note_off channel=9 note=42 velocity=111 time=0
EXTRACT: note_off channel=0 note=47 velocity=95 time=0.16853925
EXTRACT: note_off channel=0 note=40 velocity=95 time=0
EXTRACT: note_off channel=2 note=52 velocity=95 time=0
EXTRACT: note_off channel=2 note=47 velocity=95 time=0
EXTRACT: note_off channel=2 note=40 velocity=95 time=0
EXTRACT: note_off channel=8 note=28 velocity=111 time=0
EXTRACT: note_off channel=13 note=74 velocity=111 time=0
EXTRACT: note_on channel=13 note=74 velocity=111 time=0
EXTRACT: note_off channel=4 note=62 velocity=111 time=0
EXTRACT: note_on channel=4 note=62 velocity=111 time=0
EXTRACT: note_on channel=9 note=56 velocity=95 time=0
EXTRACT: note_on channel=9 note=38 velocity=111 time=0
EXTRACT: note_on channel=9 note=42 velocity=111 time=0
EXTRACT: note_off channel=9 note=56 velocity=95 time=0.16853925
EXTRACT: note_off channel=9 note=38 velocity=111 time=0
EXTRACT: note_off channel=9 note=42 velocity=111 time=0
EXTRACT: note_off channel=13 note=74 velocity=111 time=0.16853925
EXTRACT: note_on channel=13 note=74 velocity=111 time=0
EXTRACT: note_off channel=4 note=62 velocity=111 time=0
EXTRACT: note_on channel=4 note=62 velocity=111 time=0
EXTRACT: note_on channel=9 note=42 velocity=111 time=0
EXTRACT: note_off channel=9 note=42 velocity=111 time=0.16853925
EXTRACT: note_off channel=13 note=74 velocity=111 time=0.16853925
EXTRACT: note_on channel=13 note=71 velocity=111 time=0
EXTRACT: note_off channel=4 note=62 velocity=111 time=0
EXTRACT: note_on channel=4 note=59 velocity=111 time=0
EXTRACT: note_on channel=9 note=56 velocity=95 time=0
EXTRACT: note_on channel=9 note=42 velocity=111 time=0
EXTRACT: note_on channel=9 note=36 velocity=111 time=0
EXTRACT: note_off channel=13 note=71 velocity=111 time=0.16853925
EXTRACT: note_on channel=13 note=76 velocity=111 time=0
EXTRACT: note_off channel=4 note=59 velocity=111 time=0
EXTRACT: note_on channel=4 note=64 velocity=111 time=0
EXTRACT: note_off channel=9 note=56 velocity=95 time=0
EXTRACT: note_off channel=9 note=42 velocity=111 time=0
EXTRACT: note_off channel=9 note=36 velocity=111 time=0
EXTRACT: note_on channel=9 note=42 velocity=111 time=0.16853925
EXTRACT: note_on channel=9 note=36 velocity=111 time=0
EXTRACT: note_off channel=9 note=42 velocity=111 time=0.16853925
EXTRACT: note_off channel=9 note=36 velocity=111 time=0
EXTRACT: note_off channel=13 note=76 velocity=111 time=0.16853925
EXTRACT: note_off channel=4 note=64 velocity=111 time=0
EXTRACT: note_on channel=9 note=42 velocity=111 time=0
EXTRACT: note_on channel=9 note=38 velocity=127 time=0
EXTRACT: note_on channel=9 note=56 velocity=95 time=0
EXTRACT: note_off channel=9 note=42 velocity=111 time=0.16853925
EXTRACT: note_off channel=9 note=38 velocity=127 time=0
EXTRACT: note_off channel=9 note=56 velocity=95 time=0
EXTRACT: note_on channel=9 note=42 velocity=111 time=0.16853925
EXTRACT: note_on channel=8 note=33 velocity=95 time=0.16853925
EXTRACT: note_off channel=9 note=42 velocity=111 time=0
EXTRACT: note_on channel=0 note=54 velocity=95 time=0.16853925
EXTRACT: note_on channel=0 note=47 velocity=95 time=0
EXTRACT: note_on channel=2 note=54 velocity=95 time=0
EXTRACT: note_on channel=2 note=47 velocity=95 time=0
EXTRACT: note_off channel=8 note=33 velocity=95 time=0
EXTRACT: note_on channel=8 note=35 velocity=111 time=0
EXTRACT: note_on channel=9 note=56 velocity=95 time=0
EXTRACT: note_on channel=9 note=42 velocity=111 time=0
EXTRACT: note_on channel=9 note=36 velocity=111 time=0
EXTRACT: note_off channel=9 note=56 velocity=95 time=0.16853925
EXTRACT: note_off channel=9 note=42 velocity=111 time=0
EXTRACT: note_off channel=9 note=36 velocity=111 time=0
EXTRACT: note_off channel=0 note=54 velocity=95 time=0.16853925
EXTRACT: note_off channel=0 note=47 velocity=95 time=0
EXTRACT: note_on channel=0 note=54 velocity=95 time=0
EXTRACT: note_on channel=0 note=47 velocity=95 time=0
EXTRACT: note_off channel=2 note=54 velocity=95 time=0
EXTRACT: note_off channel=2 note=47 velocity=95 time=0
EXTRACT: note_on channel=2 note=54 velocity=95 time=0
EXTRACT: note_on channel=2 note=47 velocity=95 time=0
EXTRACT: note_off channel=8 note=35 velocity=111 time=0
EXTRACT: note_on channel=8 note=35 velocity=111 time=0
EXTRACT: note_on channel=13 note=78 velocity=111 time=0
EXTRACT: note_on channel=4 note=66 velocity=111 time=0
EXTRACT: note_on channel=9 note=36 velocity=111 time=0
EXTRACT: note_on channel=9 note=42 velocity=111 time=0
EXTRACT: note_off channel=9 note=36 velocity=111 time=0.16853925
EXTRACT: note_off channel=9 note=42 velocity=111 time=0
EXTRACT: note_off channel=0 note=54 velocity=95 time=0.16853925
EXTRACT: note_off channel=0 note=47 velocity=95 time=0
EXTRACT: note_off channel=2 note=54 velocity=95 time=0
EXTRACT: note_off channel=2 note=47 velocity=95 time=0
EXTRACT: note_off channel=8 note=35 velocity=111 time=0
EXTRACT: note_on channel=9 note=56 velocity=95 time=0
EXTRACT: note_on channel=9 note=42 velocity=111 time=0
EXTRACT: note_on channel=9 note=38 velocity=127 time=0
EXTRACT: note_off channel=9 note=56 velocity=95 time=0.16853925
EXTRACT: note_off channel=9 note=42 velocity=111 time=0
EXTRACT: note_off channel=9 note=38 velocity=127 time=0
EXTRACT: note_off channel=13 note=78 velocity=111 time=0.16853925
EXTRACT: note_on channel=13 note=76 velocity=111 time=0
EXTRACT: note_off channel=4 note=66 velocity=111 time=0
EXTRACT: note_on channel=4 note=64 velocity=111 time=0
EXTRACT: note_on channel=9 note=42 velocity=127 time=0
EXTRACT: note_off channel=9 note=42 velocity=127 time=0.16853925
EXTRACT: note_on channel=10 note=38 velocity=111 time=0.084269625
EXTRACT: pitchwheel channel=1 pitch=0 time=0.084269625
EXTRACT: note_on channel=1 note=50 velocity=95 time=0
EXTRACT: pitchwheel channel=3 pitch=0 time=0
EXTRACT: note_on channel=3 note=74 velocity=111 time=0
EXTRACT: pitchwheel channel=3 pitch=0 time=0
EXTRACT: note_on channel=3 note=62 velocity=95 time=0
EXTRACT: note_off channel=10 note=38 velocity=111 time=0
EXTRACT: note_on channel=10 note=40 velocity=111 time=0
EXTRACT: note_on channel=9 note=36 velocity=111 time=0
EXTRACT: note_on channel=9 note=56 velocity=95 time=0
EXTRACT: note_on channel=9 note=42 velocity=127 time=0
EXTRACT: pitchwheel channel=3 pitch=0 time=0.0421348125
EXTRACT: pitchwheel channel=1 pitch=0 time=0.028089875
EXTRACT: pitchwheel channel=3 pitch=0 time=0
EXTRACT: pitchwheel channel=3 pitch=0 time=0
EXTRACT: pitchwheel channel=1 pitch=128 time=0.000702246875
EXTRACT: pitchwheel channel=3 pitch=128 time=0
EXTRACT: pitchwheel channel=3 pitch=128 time=0
EXTRACT: pitchwheel channel=1 pitch=256 time=0.000702246875
EXTRACT: pitchwheel channel=3 pitch=256 time=0
EXTRACT: pitchwheel channel=3 pitch=256 time=0
EXTRACT: pitchwheel channel=1 pitch=384 time=0.000702246875
EXTRACT: pitchwheel channel=3 pitch=384 time=0
EXTRACT: pitchwheel channel=3 pitch=384 time=0
EXTRACT: pitchwheel channel=1 pitch=512 time=0.000702246875
EXTRACT: pitchwheel channel=3 pitch=512 time=0
EXTRACT: pitchwheel channel=3 pitch=512 time=0
EXTRACT: pitchwheel channel=1 pitch=640 time=0.000702246875
EXTRACT: pitchwheel channel=3 pitch=640 time=0
EXTRACT: pitchwheel channel=3 pitch=640 time=0
EXTRACT: pitchwheel channel=1 pitch=768 time=0.000702246875
EXTRACT: pitchwheel channel=3 pitch=768 time=0
EXTRACT: pitchwheel channel=3 pitch=768 time=0
EXTRACT: pitchwheel channel=1 pitch=896 time=0.000702246875
EXTRACT: pitchwheel channel=3 pitch=896 time=0
EXTRACT: pitchwheel channel=3 pitch=896 time=0
EXTRACT: pitchwheel channel=1 pitch=1024 time=0.000702246875
EXTRACT: pitchwheel channel=3 pitch=1024 time=0
EXTRACT: pitchwheel channel=3 pitch=1024 time=0
EXTRACT: pitchwheel channel=1 pitch=1152 time=0.000702246875
EXTRACT: pitchwheel channel=3 pitch=1152 time=0
EXTRACT: pitchwheel channel=3 pitch=1152 time=0
EXTRACT: pitchwheel channel=1 pitch=1280 time=0.000702246875
EXTRACT: pitchwheel channel=3 pitch=1280 time=0
EXTRACT: pitchwheel channel=3 pitch=1280 time=0
EXTRACT: pitchwheel channel=1 pitch=1408 time=0.000702246875
EXTRACT: pitchwheel channel=3 pitch=1408 time=0
EXTRACT: pitchwheel channel=3 pitch=1408 time=0
EXTRACT: pitchwheel channel=1 pitch=1408 time=0.0063202218749999995
EXTRACT: pitchwheel channel=3 pitch=1408 time=0
EXTRACT: pitchwheel channel=3 pitch=1408 time=0
EXTRACT: pitchwheel channel=1 pitch=1408 time=0.084269625
EXTRACT: pitchwheel channel=1 pitch=0 time=0
EXTRACT: note_off channel=1 note=50 velocity=95 time=0
EXTRACT: note_on channel=0 note=50 velocity=95 time=0
EXTRACT: pitchwheel channel=3 pitch=1408 time=0
EXTRACT: pitchwheel channel=3 pitch=0 time=0
EXTRACT: note_off channel=3 note=74 velocity=111 time=0
EXTRACT: pitchwheel channel=3 pitch=1408 time=0
EXTRACT: pitchwheel channel=3 pitch=0 time=0
EXTRACT: note_off channel=3 note=62 velocity=95 time=0
EXTRACT: note_on channel=2 note=74 velocity=111 time=0
EXTRACT: note_on channel=2 note=62 velocity=95 time=0
EXTRACT: note_off channel=10 note=40 velocity=111 time=0
EXTRACT: note_on channel=8 note=38 velocity=95 time=0
EXTRACT: note_off channel=9 note=36 velocity=111 time=0
EXTRACT: note_off channel=9 note=56 velocity=95 time=0
EXTRACT: note_off channel=9 note=42 velocity=127 time=0
EXTRACT: note_off channel=0 note=50 velocity=95 time=0.16853925
EXTRACT: note_on channel=0 note=47 velocity=95 time=0
EXTRACT: note_off channel=2 note=74 velocity=111 time=0
EXTRACT: note_off channel=2 note=62 velocity=95 time=0
EXTRACT: note_on channel=2 note=71 velocity=111 time=0
EXTRACT: note_on channel=2 note=59 velocity=95 time=0
EXTRACT: note_off channel=8 note=38 velocity=95 time=0
EXTRACT: note_on channel=8 note=35 velocity=95 time=0
EXTRACT: note_on channel=9 note=36 velocity=111 time=0
EXTRACT: note_on channel=9 note=42 velocity=111 time=0
EXTRACT: note_off channel=9 note=36 velocity=111 time=0.16853925
EXTRACT: note_off channel=9 note=42 velocity=111 time=0
EXTRACT: note_off channel=0 note=47 velocity=95 time=0.16853925
EXTRACT: note_on channel=0 note=45 velocity=95 time=0
EXTRACT: note_off channel=2 note=71 velocity=111 time=0
EXTRACT: note_off channel=2 note=59 velocity=95 time=0
EXTRACT: note_on channel=2 note=69 velocity=111 time=0
EXTRACT: note_on channel=2 note=57 velocity=95 time=0
EXTRACT: note_off channel=8 note=35 velocity=95 time=0
EXTRACT: note_on channel=8 note=33 velocity=111 time=0
EXTRACT: note_off channel=13 note=76 velocity=111 time=0
EXTRACT: note_on channel=13 note=76 velocity=111 time=0
EXTRACT: note_off channel=4 note=64 velocity=111 time=0
EXTRACT: note_on channel=4 note=64 velocity=111 time=0
EXTRACT: note_on channel=9 note=56 velocity=95 time=0
EXTRACT: note_on channel=9 note=38 velocity=111 time=0
EXTRACT: note_on channel=9 note=42 velocity=127 time=0
EXTRACT: note_off channel=0 note=45 velocity=95 time=0.16853925
EXTRACT: pitchwheel channel=1 pitch=0 time=0
EXTRACT: note_on channel=1 note=43 velocity=95 time=0
EXTRACT: note_off channel=2 note=69 velocity=111 time=0
EXTRACT: note_off channel=2 note=57 velocity=95 time=0
EXTRACT: pitchwheel channel=3 pitch=0 time=0
EXTRACT: note_on channel=3 note=67 velocity=111 time=0
EXTRACT: pitchwheel channel=3 pitch=0 time=0
EXTRACT: note_on channel=3 note=55 velocity=95 time=0
EXTRACT: note_off channel=8 note=33 velocity=111 time=0
EXTRACT: note_on channel=8 note=31 velocity=111 time=0
EXTRACT: note_off channel=13 note=76 velocity=111 time=0
EXTRACT: note_on channel=13 note=71 velocity=86 time=0
EXTRACT: note_off channel=4 note=64 velocity=111 time=0
EXTRACT: note_on channel=4 note=59 velocity=111 time=0
EXTRACT: note_off channel=9 note=56 velocity=95 time=0
EXTRACT: note_off channel=9 note=38 velocity=111 time=0
EXTRACT: note_off channel=9 note=42 velocity=127 time=0
EXTRACT: pitchwheel channel=1 pitch=0 time=0.1264044375
EXTRACT: pitchwheel channel=3 pitch=0 time=0
EXTRACT: pitchwheel channel=3 pitch=0 time=0
EXTRACT: note_off channel=13 note=71 velocity=86 time=0.0421348125
EXTRACT: note_off channel=4 note=59 velocity=111 time=0
EXTRACT: note_on channel=9 note=41 velocity=127 time=0
EXTRACT: note_on channel=9 note=42 velocity=127 time=0
EXTRACT: pitchwheel channel=1 pitch=128 time=0.02106740625
EXTRACT: pitchwheel channel=3 pitch=128 time=0
EXTRACT: pitchwheel channel=3 pitch=128 time=0
EXTRACT: pitchwheel channel=1 pitch=256 time=0.06320221875
EXTRACT: pitchwheel channel=1 pitch=256 time=0
EXTRACT: pitchwheel channel=3 pitch=256 time=0
EXTRACT: pitchwheel channel=3 pitch=256 time=0
EXTRACT: pitchwheel channel=3 pitch=256 time=0
EXTRACT: pitchwheel channel=3 pitch=256 time=0
EXTRACT: note_on channel=13 note=67 velocity=111 time=0.084269625
EXTRACT: note_on channel=4 note=55 velocity=111 time=0
EXTRACT: note_off channel=9 note=41 velocity=127 time=0
EXTRACT: note_off channel=9 note=42 velocity=127 time=0
EXTRACT: pitchwheel channel=1 pitch=256 time=0.16853925
EXTRACT: pitchwheel channel=1 pitch=0 time=0
EXTRACT: note_off channel=1 note=43 velocity=95 time=0
EXTRACT: note_on channel=0 note=52 velocity=95 time=0
EXTRACT: note_on channel=0 note=45 velocity=95 time=0
EXTRACT: pitchwheel channel=3 pitch=256 time=0
EXTRACT: pitchwheel channel=3 pitch=0 time=0
EXTRACT: note_off channel=3 note=67 velocity=111 time=0
EXTRACT: pitchwheel channel=3 pitch=256 time=0
EXTRACT: pitchwheel channel=3 pitch=0 time=0
EXTRACT: note_off channel=3 note=55 velocity=95 time=0
EXTRACT: note_on channel=2 note=52 velocity=95 time=0
EXTRACT: note_on channel=2 note=45 velocity=95 time=0
EXTRACT: note_off channel=8 note=31 velocity=111 time=0
EXTRACT: note_on channel=8 note=33 velocity=111 time=0
EXTRACT: note_off channel=13 note=67 velocity=111 time=0
EXTRACT: note_on channel=13 note=69 velocity=127 time=0
EXTRACT: note_off channel=4 note=55 velocity=111 time=0
EXTRACT: note_on channel=4 note=57 velocity=127 time=0
EXTRACT: note_on channel=9 note=56 velocity=95 time=0
EXTRACT: note_on channel=9 note=36 velocity=111 time=0
EXTRACT: note_on channel=9 note=42 velocity=127 time=0
EXTRACT: note_off channel=9 note=56 velocity=95 time=0.16853925
EXTRACT: note_off channel=9 note=36 velocity=111 time=0
EXTRACT: note_off channel=9 note=42 velocity=127 time=0
EXTRACT: note_off channel=0 note=52 velocity=95 time=0.16853925
EXTRACT: note_off channel=0 note=45 velocity=95 time=0
EXTRACT: note_on channel=0 note=52 velocity=95 time=0
EXTRACT: note_on channel=0 note=45 velocity=95 time=0
EXTRACT: note_off channel=2 note=52 velocity=95 time=0
EXTRACT: note_off channel=2 note=45 velocity=95 time=0
EXTRACT: note_on channel=2 note=52 velocity=95 time=0
EXTRACT: note_on channel=2 note=45 velocity=95 time=0
EXTRACT: note_off channel=8 note=33 velocity=111 time=0
EXTRACT: note_on channel=8 note=33 velocity=111 time=0
EXTRACT: note_off channel=13 note=69 velocity=127 time=0
EXTRACT: note_on channel=13 note=69 velocity=111 time=0
EXTRACT: note_off channel=4 note=57 velocity=127 time=0
EXTRACT: note_on channel=4 note=57 velocity=111 time=0
EXTRACT: note_on channel=9 note=42 velocity=111 time=0
EXTRACT: note_on channel=9 note=36 velocity=111 time=0
EXTRACT: note_off channel=13 note=69 velocity=111 time=0.16853925
EXTRACT: note_off channel=4 note=57 velocity=111 time=0
EXTRACT: note_off channel=9 note=42 velocity=111 time=0
EXTRACT: note_off channel=9 note=36 velocity=111 time=0
EXTRACT: note_off channel=0 note=52 velocity=95 time=0.16853925
EXTRACT: note_off channel=0 note=45 velocity=95 time=0
EXTRACT: note_off channel=2 note=52 velocity=95 time=0
EXTRACT: note_off channel=2 note=45 velocity=95 time=0
EXTRACT: note_off channel=8 note=33 velocity=111 time=0
EXTRACT: note_on channel=13 note=69 velocity=127 time=0
EXTRACT: note_on channel=4 note=57 velocity=127 time=0
EXTRACT: note_on channel=9 note=38 velocity=111 time=0
EXTRACT: note_on channel=9 note=56 velocity=95 time=0
EXTRACT: note_on channel=9 note=42 velocity=111 time=0
EXTRACT: note_off channel=13 note=69 velocity=127 time=0.16853925
EXTRACT: note_on channel=13 note=67 velocity=111 time=0
EXTRACT: note_off channel=4 note=57 velocity=127 time=0
EXTRACT: note_on channel=4 note=55 velocity=111 time=0
EXTRACT: note_off channel=9 note=38 velocity=111 time=0
EXTRACT: note_off channel=9 note=56 velocity=95 time=0
EXTRACT: note_off channel=9 note=42 velocity=111 time=0
EXTRACT: note_off channel=13 note=67 velocity=111 time=0.16853925
EXTRACT: note_off channel=4 note=55 velocity=111 time=0
EXTRACT: note_on channel=9 note=42 velocity=111 time=0
EXTRACT: note_on channel=8 note=33 velocity=95 time=0.16853925
EXTRACT: note_on channel=13 note=71 velocity=95 time=0
EXTRACT: note_on channel=4 note=59 velocity=95 time=0
EXTRACT: note_off channel=9 note=42 velocity=111 time=0
EXTRACT: note_on channel=0 note=54 velocity=95 time=0.16853925
EXTRACT: note_on channel=0 note=47 velocity=95 time=0
EXTRACT: note_on channel=2 note=54 velocity=95 time=0
EXTRACT: note_on channel=2 note=47 velocity=95 time=0
EXTRACT: note_off channel=8 note=33 velocity=95 time=0
EXTRACT: note_on channel=8 note=35 velocity=111 time=0
EXTRACT: note_on channel=9 note=42 velocity=111 time=0
EXTRACT: note_on channel=9 note=36 velocity=111 time=0
EXTRACT: note_on channel=9 note=56 velocity=95 time=0
EXTRACT: note_off channel=9 note=42 velocity=111 time=0.16853925
EXTRACT: note_off channel=9 note=36 velocity=111 time=0
EXTRACT: note_off channel=9 note=56 velocity=95 time=0
EXTRACT: note_off channel=0 note=54 velocity=95 time=0.16853925
EXTRACT: note_off channel=0 note=47 velocity=95 time=0
EXTRACT: note_on channel=0 note=54 velocity=95 time=0
EXTRACT: note_on channel=0 note=47 velocity=95 time=0
EXTRACT: note_off channel=2 note=54 velocity=95 time=0
EXTRACT: note_off channel=2 note=47 velocity=95 time=0
EXTRACT: note_on channel=2 note=54 velocity=95 time=0
EXTRACT: note_on channel=2 note=47 velocity=95 time=0
EXTRACT: note_off channel=8 note=35 velocity=111 time=0
EXTRACT: note_on channel=8 note=35 velocity=111 time=0
EXTRACT: note_on channel=9 note=36 velocity=111 time=0
EXTRACT: note_on channel=9 note=42 velocity=111 time=0
EXTRACT: note_off channel=9 note=36 velocity=111 time=0.16853925
EXTRACT: note_off channel=9 note=42 velocity=111 time=0
EXTRACT: note_off channel=0 note=54 velocity=95 time=0.16853925
EXTRACT: note_off channel=0 note=47 velocity=95 time=0
EXTRACT: note_off channel=2 note=54 velocity=95 time=0
EXTRACT: note_off channel=2 note=47 velocity=95 time=0
EXTRACT: note_off channel=8 note=35 velocity=111 time=0
EXTRACT: note_off channel=13 note=71 velocity=95 time=0
EXTRACT: note_off channel=4 note=59 velocity=95 time=0
EXTRACT: note_on channel=9 note=42 velocity=111 time=0
EXTRACT: note_on channel=9 note=38 velocity=127 time=0
EXTRACT: note_on channel=9 note=56 velocity=95 time=0
EXTRACT: note_off channel=9 note=42 velocity=111 time=0.16853925
EXTRACT: note_off channel=9 note=38 velocity=127 time=0
EXTRACT: note_off channel=9 note=56 velocity=95 time=0
EXTRACT: note_on channel=9 note=42 velocity=111 time=0.16853925
EXTRACT: note_off channel=9 note=42 velocity=111 time=0.16853925
EXTRACT: note_on channel=0 note=47 velocity=95 time=0
EXTRACT: note_on channel=0 note=40 velocity=95 time=0
EXTRACT: note_on channel=2 note=47 velocity=95 time=0
EXTRACT: note_on channel=2 note=40 velocity=95 time=0
EXTRACT: note_on channel=8 note=28 velocity=111 time=0
EXTRACT: note_on channel=13 note=76 velocity=111 time=0
EXTRACT: note_on channel=4 note=64 velocity=86 time=0
EXTRACT: note_on channel=9 note=42 velocity=111 time=0
EXTRACT: note_on channel=9 note=56 velocity=95 time=0
EXTRACT: note_on channel=9 note=36 velocity=111 time=0
EXTRACT: note_off channel=13 note=76 velocity=111 time=0.16853925
EXTRACT: note_on channel=13 note=76 velocity=111 time=0
EXTRACT: note_off channel=4 note=64 velocity=86 time=0
EXTRACT: note_on channel=4 note=64 velocity=111 time=0
EXTRACT: note_off channel=9 note=42 velocity=111 time=0
EXTRACT: note_off channel=9 note=56 velocity=95 time=0
EXTRACT: note_off channel=9 note=36 velocity=111 time=0
EXTRACT: note_off channel=0 note=47 velocity=95 time=0.16853925
EXTRACT: note_off channel=0 note=40 velocity=95 time=0
EXTRACT: note_on channel=0 note=47 velocity=95 time=0
EXTRACT: note_on channel=0 note=40 velocity=95 time=0
EXTRACT: note_off channel=2 note=47 velocity=95 time=0
EXTRACT: note_off channel=2 note=40 velocity=95 time=0
EXTRACT: note_on channel=2 note=47 velocity=95 time=0
EXTRACT: note_on channel=2 note=40 velocity=95 time=0
EXTRACT: note_off channel=8 note=28 velocity=111 time=0
EXTRACT: note_on channel=8 note=28 velocity=111 time=0
EXTRACT: note_off channel=13 note=76 velocity=111 time=0
EXTRACT: note_on channel=13 note=74 velocity=111 time=0
EXTRACT: note_off channel=4 note=64 velocity=111 time=0
EXTRACT: note_on channel=4 note=62 velocity=111 time=0
EXTRACT: note_on channel=9 note=36 velocity=111 time=0
EXTRACT: note_on channel=9 note=42 velocity=111 time=0
EXTRACT: note_off channel=9 note=36 velocity=111 time=0.16853925
EXTRACT: note_off channel=9 note=42 velocity=111 time=0
EXTRACT: note_off channel=0 note=47 velocity=95 time=0.16853925
EXTRACT: note_off channel=0 note=40 velocity=95 time=0
EXTRACT: note_off channel=2 note=47 velocity=95 time=0
EXTRACT: note_off channel=2 note=40 velocity=95 time=0
EXTRACT: note_off channel=8 note=28 velocity=111 time=0
EXTRACT: note_off channel=13 note=74 velocity=111 time=0
EXTRACT: note_on channel=13 note=71 velocity=111 time=0
EXTRACT: note_off channel=4 note=62 velocity=111 time=0
EXTRACT: note_on channel=4 note=59 velocity=111 time=0
EXTRACT: note_on channel=9 note=38 velocity=127 time=0
EXTRACT: note_on channel=9 note=42 velocity=111 time=0
EXTRACT: note_on channel=9 note=56 velocity=95 time=0
EXTRACT: note_off channel=13 note=71 velocity=111 time=0.16853925
EXTRACT: note_on channel=13 note=71 velocity=111 time=0
EXTRACT: note_off channel=4 note=59 velocity=111 time=0
EXTRACT: note_on channel=4 note=59 velocity=111 time=0
EXTRACT: note_off channel=9 note=38 velocity=127 time=0
EXTRACT: note_off channel=9 note=42 velocity=111 time=0
EXTRACT: note_off channel=9 note=56 velocity=95 time=0
EXTRACT: note_off channel=13 note=71 velocity=111 time=0.16853925
EXTRACT: note_on channel=13 note=67 velocity=111 time=0
EXTRACT: note_off channel=4 note=59 velocity=111 time=0
EXTRACT: note_on channel=4 note=55 velocity=111 time=0
EXTRACT: note_on channel=9 note=42 velocity=127 time=0
EXTRACT: note_on channel=8 note=31 velocity=95 time=0.16853925
EXTRACT: note_off channel=9 note=42 velocity=127 time=0
EXTRACT: note_on channel=0 note=52 velocity=95 time=0
EXTRACT: note_on channel=0 note=45 velocity=95 time=0
EXTRACT: note_on channel=2 note=52 velocity=95 time=0
EXTRACT: note_on channel=2 note=45 velocity=95 time=0
EXTRACT: note_off channel=8 note=31 velocity=95 time=0
EXTRACT: note_on channel=8 note=33 velocity=111 time=0
EXTRACT: note_off channel=13 note=67 velocity=111 time=0
EXTRACT: note_on channel=13 note=69 velocity=111 time=0
EXTRACT: note_off channel=4 note=55 velocity=111 time=0
EXTRACT: note_on channel=4 note=57 velocity=111 time=0
EXTRACT: note_on channel=9 note=56 velocity=95 time=0
EXTRACT: note_on channel=9 note=42 velocity=127 time=0
EXTRACT: note_on channel=9 note=36 velocity=111 time=0
EXTRACT: note_off channel=9 note=56 velocity=95 time=0.16853925
EXTRACT: note_off channel=9 note=42 velocity=127 time=0
EXTRACT: note_off channel=9 note=36 velocity=111 time=0
EXTRACT: note_off channel=0 note=52 velocity=95 time=0.16853925
EXTRACT: note_off channel=0 note=45 velocity=95 time=0
EXTRACT: note_on channel=0 note=52 velocity=95 time=0
EXTRACT: note_on channel=0 note=45 velocity=95 time=0
EXTRACT: note_off channel=2 note=52 velocity=95 time=0
EXTRACT: note_off channel=2 note=45 velocity=95 time=0
EXTRACT: note_on channel=2 note=52 velocity=95 time=0
EXTRACT: note_on channel=2 note=45 velocity=95 time=0
EXTRACT: note_off channel=13 note=69 velocity=111 time=0
EXTRACT: note_on channel=13 note=67 velocity=70 time=0
EXTRACT: note_off channel=4 note=57 velocity=111 time=0
EXTRACT: note_on channel=4 note=55 velocity=70 time=0
EXTRACT: note_on channel=9 note=42 velocity=111 time=0
EXTRACT: note_on channel=9 note=36 velocity=111 time=0
EXTRACT: note_off channel=9 note=42 velocity=111 time=0.16853925
EXTRACT: note_off channel=9 note=36 velocity=111 time=0
EXTRACT: note_off channel=13 note=67 velocity=70 time=0.16853925
EXTRACT: note_on channel=13 note=69 velocity=86 time=0
EXTRACT: note_off channel=4 note=55 velocity=70 time=0
EXTRACT: note_on channel=4 note=57 velocity=86 time=0
EXTRACT: note_on channel=9 note=56 velocity=95 time=0
EXTRACT: note_on channel=9 note=42 velocity=127 time=0
EXTRACT: note_on channel=9 note=38 velocity=111 time=0
EXTRACT: note_off channel=9 note=56 velocity=95 time=0.16853925
EXTRACT: note_off channel=9 note=42 velocity=127 time=0
EXTRACT: note_off channel=9 note=38 velocity=111 time=0
EXTRACT: note_off channel=13 note=69 velocity=86 time=0.16853925
EXTRACT: note_on channel=13 note=67 velocity=70 time=0
EXTRACT: note_off channel=4 note=57 velocity=86 time=0
EXTRACT: note_on channel=4 note=55 velocity=70 time=0
EXTRACT: note_on channel=9 note=42 velocity=127 time=0
EXTRACT: note_on channel=9 note=41 velocity=127 time=0
EXTRACT: note_off channel=9 note=42 velocity=127 time=0.16853925
EXTRACT: note_off channel=9 note=41 velocity=127 time=0
EXTRACT: note_off channel=13 note=67 velocity=70 time=0.16853925
EXTRACT: note_on channel=13 note=69 velocity=86 time=0
EXTRACT: note_off channel=4 note=55 velocity=70 time=0
EXTRACT: note_on channel=4 note=57 velocity=86 time=0
EXTRACT: note_on channel=9 note=42 velocity=127 time=0
EXTRACT: note_on channel=9 note=36 velocity=111 time=0
EXTRACT: note_on channel=9 note=56 velocity=95 time=0
EXTRACT: note_off channel=9 note=42 velocity=127 time=0.16853925
EXTRACT: note_off channel=9 note=36 velocity=111 time=0
EXTRACT: note_off channel=9 note=56 velocity=95 time=0
EXTRACT: note_on channel=9 note=42 velocity=111 time=0.16853925
EXTRACT: note_on channel=9 note=36 velocity=111 time=0
EXTRACT: note_off channel=9 note=42 velocity=111 time=0.16853925
EXTRACT: note_off channel=9 note=36 velocity=111 time=0
EXTRACT: note_off channel=13 note=69 velocity=86 time=0.16853925
EXTRACT: note_off channel=4 note=57 velocity=86 time=0
EXTRACT: note_on channel=9 note=42 velocity=111 time=0
EXTRACT: note_on channel=9 note=56 velocity=95 time=0
EXTRACT: note_on channel=9 note=38 velocity=111 time=0
EXTRACT: note_off channel=9 note=42 velocity=111 time=0.16853925
EXTRACT: note_off channel=9 note=56 velocity=95 time=0
EXTRACT: note_off channel=9 note=38 velocity=111 time=0
EXTRACT: note_on channel=13 note=69 velocity=111 time=0.16853925
EXTRACT: note_on channel=4 note=57 velocity=111 time=0
EXTRACT: note_on channel=9 note=42 velocity=111 time=0
EXTRACT: note_off channel=13 note=69 velocity=111 time=0.16853925
EXTRACT: note_on channel=13 note=69 velocity=111 time=0
EXTRACT: note_off channel=4 note=57 velocity=111 time=0
EXTRACT: note_on channel=4 note=57 velocity=111 time=0
EXTRACT: note_off channel=9 note=42 velocity=111 time=0
EXTRACT: note_off channel=13 note=69 velocity=111 time=0.16853925
EXTRACT: note_on channel=13 note=71 velocity=111 time=0
EXTRACT: note_off channel=4 note=57 velocity=111 time=0
EXTRACT: note_on channel=4 note=59 velocity=111 time=0
EXTRACT: note_on channel=9 note=36 velocity=111 time=0
EXTRACT: note_on channel=9 note=56 velocity=95 time=0
EXTRACT: note_on channel=9 note=42 velocity=111 time=0
EXTRACT: note_off channel=13 note=71 velocity=111 time=0.16853925
EXTRACT: note_off channel=4 note=59 velocity=111 time=0
EXTRACT: note_off channel=9 note=36 velocity=111 time=0
EXTRACT: note_off channel=9 note=56 velocity=95 time=0
EXTRACT: note_off channel=9 note=42 velocity=111 time=0
EXTRACT: note_on channel=13 note=71 velocity=111 time=0.16853925
EXTRACT: note_on channel=4 note=59 velocity=111 time=0
EXTRACT: note_on channel=9 note=36 velocity=111 time=0
EXTRACT: note_on channel=9 note=42 velocity=111 time=0
EXTRACT: note_off channel=13 note=71 velocity=111 time=0.16853925
EXTRACT: note_off channel=4 note=59 velocity=111 time=0
EXTRACT: note_off channel=9 note=36 velocity=111 time=0
EXTRACT: note_off channel=9 note=42 velocity=111 time=0
EXTRACT: note_on channel=13 note=74 velocity=111 time=0.16853925
EXTRACT: note_on channel=4 note=62 velocity=111 time=0
EXTRACT: note_on channel=9 note=42 velocity=111 time=0
EXTRACT: note_on channel=9 note=38 velocity=127 time=0
EXTRACT: note_on channel=9 note=56 velocity=95 time=0
EXTRACT: note_off channel=13 note=74 velocity=111 time=0.16853925
EXTRACT: note_on channel=13 note=74 velocity=95 time=0
EXTRACT: note_off channel=4 note=62 velocity=111 time=0
EXTRACT: note_on channel=4 note=62 velocity=95 time=0
EXTRACT: note_off channel=9 note=42 velocity=111 time=0
EXTRACT: note_off channel=9 note=38 velocity=127 time=0
EXTRACT: note_off channel=9 note=56 velocity=95 time=0
EXTRACT: note_off channel=13 note=74 velocity=95 time=0.16853925
EXTRACT: note_on channel=13 note=71 velocity=111 time=0
EXTRACT: note_off channel=4 note=62 velocity=95 time=0
EXTRACT: note_on channel=4 note=59 velocity=111 time=0
EXTRACT: note_on channel=9 note=42 velocity=111 time=0
EXTRACT: note_off channel=13 note=71 velocity=111 time=0.16853925
EXTRACT: note_on channel=13 note=69 velocity=95 time=0
EXTRACT: note_off channel=4 note=59 velocity=111 time=0
EXTRACT: note_on channel=4 note=57 velocity=95 time=0
EXTRACT: note_off channel=9 note=42 velocity=111 time=0
EXTRACT: note_on channel=9 note=42 velocity=111 time=0.16853925
EXTRACT: note_on channel=9 note=36 velocity=111 time=0
EXTRACT: note_on channel=9 note=56 velocity=95 time=0
EXTRACT: note_off channel=13 note=69 velocity=95 time=0.16853925
EXTRACT: note_off channel=4 note=57 velocity=95 time=0
EXTRACT: note_off channel=9 note=42 velocity=111 time=0
EXTRACT: note_off channel=9 note=36 velocity=111 time=0
EXTRACT: note_off channel=9 note=56 velocity=95 time=0
EXTRACT: note_on channel=9 note=42 velocity=111 time=0.16853925
EXTRACT: note_on channel=9 note=36 velocity=111 time=0
EXTRACT: note_on channel=13 note=69 velocity=111 time=0.16853925
EXTRACT: note_on channel=4 note=57 velocity=111 time=0
EXTRACT: note_off channel=9 note=42 velocity=111 time=0
EXTRACT: note_off channel=9 note=36 velocity=111 time=0
EXTRACT: note_off channel=13 note=69 velocity=111 time=0.16853925
EXTRACT: note_on channel=13 note=69 velocity=111 time=0
EXTRACT: note_off channel=4 note=57 velocity=111 time=0
EXTRACT: note_on channel=4 note=57 velocity=111 time=0
EXTRACT: note_on channel=9 note=42 velocity=111 time=0
EXTRACT: note_on channel=9 note=38 velocity=127 time=0
EXTRACT: note_on channel=9 note=56 velocity=95 time=0
EXTRACT: note_off channel=9 note=42 velocity=111 time=0.16853925
EXTRACT: note_off channel=9 note=38 velocity=127 time=0
EXTRACT: note_off channel=9 note=56 velocity=95 time=0
EXTRACT: note_off channel=13 note=69 velocity=111 time=0.16853925
EXTRACT: note_on channel=13 note=67 velocity=95 time=0
EXTRACT: note_off channel=4 note=57 velocity=111 time=0
EXTRACT: note_on channel=4 note=55 velocity=95 time=0
EXTRACT: note_on channel=9 note=42 velocity=127 time=0
EXTRACT: note_on channel=9 note=41 velocity=127 time=0
EXTRACT: note_off channel=9 note=42 velocity=127 time=0.16853925
EXTRACT: note_off channel=9 note=41 velocity=127 time=0
EXTRACT: note_off channel=0 note=52 velocity=95 time=0.16853925
EXTRACT: note_off channel=0 note=45 velocity=95 time=0
EXTRACT: note_off channel=2 note=52 velocity=95 time=0
EXTRACT: note_off channel=2 note=45 velocity=95 time=0
EXTRACT: note_off channel=8 note=33 velocity=111 time=0
EXTRACT: note_off channel=13 note=67 velocity=95 time=0
EXTRACT: note_on channel=13 note=71 velocity=111 time=0
EXTRACT: note_off channel=4 note=55 velocity=95 time=0
EXTRACT: note_on channel=4 note=59 velocity=111 time=0
EXTRACT: note_on channel=9 note=42 velocity=127 time=0
EXTRACT: note_on channel=9 note=56 velocity=95 time=0
EXTRACT: note_on channel=9 note=36 velocity=111 time=0
EXTRACT: note_off channel=9 note=42 velocity=127 time=0.16853925
EXTRACT: note_off channel=9 note=56 velocity=95 time=0
EXTRACT: note_off channel=9 note=36 velocity=111 time=0
EXTRACT: note_off channel=13 note=71 velocity=111 time=0.16853925
EXTRACT: note_off channel=4 note=59 velocity=111 time=0
EXTRACT: note_on channel=9 note=36 velocity=111 time=0
EXTRACT: note_on channel=9 note=42 velocity=111 time=0
EXTRACT: note_off channel=9 note=36 velocity=111 time=0.16853925
EXTRACT: note_off channel=9 note=42 velocity=111 time=0
EXTRACT: note_on channel=13 note=74 velocity=111 time=0.16853925
EXTRACT: note_on channel=4 note=62 velocity=111 time=0
EXTRACT: note_on channel=15 note=74 velocity=95 time=0
EXTRACT: note_on channel=15 note=62 velocity=95 time=0
EXTRACT: note_on channel=9 note=38 velocity=111 time=0
EXTRACT: note_on channel=9 note=42 velocity=111 time=0
EXTRACT: note_on channel=9 note=56 velocity=95 time=0
EXTRACT: note_off channel=9 note=38 velocity=111 time=0.16853925
EXTRACT: note_off channel=9 note=42 velocity=111 time=0
EXTRACT: note_off channel=9 note=56 velocity=95 time=0
EXTRACT: note_off channel=13 note=74 velocity=111 time=0.16853925
EXTRACT: note_off channel=4 note=62 velocity=111 time=0
EXTRACT: note_off channel=15 note=74 velocity=95 time=0
EXTRACT: note_off channel=15 note=62 velocity=95 time=0
EXTRACT: note_on channel=9 note=42 velocity=111 time=0
EXTRACT: note_on channel=13 note=71 velocity=111 time=0.16853925
EXTRACT: note_on channel=4 note=59 velocity=111 time=0
EXTRACT: note_on channel=15 note=71 velocity=111 time=0
EXTRACT: note_on channel=15 note=59 velocity=111 time=0
EXTRACT: note_off channel=9 note=42 velocity=111 time=0
EXTRACT: note_on channel=9 note=42 velocity=111 time=0.16853925
EXTRACT: note_on channel=9 note=36 velocity=111 time=0
EXTRACT: note_on channel=9 note=56 velocity=95 time=0
EXTRACT: note_off channel=13 note=71 velocity=111 time=0.16853925
EXTRACT: note_off channel=4 note=59 velocity=111 time=0
EXTRACT: note_off channel=9 note=42 velocity=111 time=0
EXTRACT: note_off channel=9 note=36 velocity=111 time=0
EXTRACT: note_off channel=9 note=56 velocity=95 time=0
EXTRACT: note_off channel=15 note=71 velocity=111 time=0.16853925
EXTRACT: note_off channel=15 note=59 velocity=111 time=0
EXTRACT: note_on channel=9 note=36 velocity=111 time=0
EXTRACT: note_on channel=9 note=42 velocity=111 time=0
EXTRACT: note_off channel=9 note=36 velocity=111 time=0.16853925
EXTRACT: note_off channel=9 note=42 velocity=111 time=0
EXTRACT: note_on channel=9 note=38 velocity=127 time=0.16853925
EXTRACT: note_on channel=9 note=42 velocity=111 time=0
EXTRACT: note_on channel=9 note=56 velocity=95 time=0
EXTRACT: note_off channel=9 note=38 velocity=127 time=0.16853925
EXTRACT: note_off channel=9 note=42 velocity=111 time=0
EXTRACT: note_off channel=9 note=56 velocity=95 time=0
EXTRACT: note_on channel=13 note=69 velocity=111 time=0.16853925
EXTRACT: note_on channel=4 note=57 velocity=111 time=0
EXTRACT: note_on channel=9 note=42 velocity=111 time=0
EXTRACT: note_off channel=13 note=69 velocity=111 time=0.16853925
EXTRACT: note_on channel=13 note=69 velocity=95 time=0
EXTRACT: note_off channel=4 note=57 velocity=111 time=0
EXTRACT: note_on channel=4 note=57 velocity=95 time=0
EXTRACT: note_off channel=9 note=42 velocity=111 time=0
EXTRACT: note_off channel=13 note=69 velocity=95 time=0.16853925
EXTRACT: note_on channel=13 note=71 velocity=111 time=0
EXTRACT: note_off channel=4 note=57 velocity=95 time=0
EXTRACT: note_on channel=4 note=59 velocity=111 time=0
EXTRACT: note_on channel=9 note=42 velocity=127 time=0
EXTRACT: note_on channel=9 note=56 velocity=95 time=0
EXTRACT: note_on channel=9 note=36 velocity=111 time=0
EXTRACT: note_off channel=9 note=42 velocity=127 time=0.16853925
EXTRACT: note_off channel=9 note=56 velocity=95 time=0
EXTRACT: note_off channel=9 note=36 velocity=111 time=0
EXTRACT: note_off channel=13 note=71 velocity=111 time=0.16853925
EXTRACT: note_on channel=13 note=71 velocity=111 time=0
EXTRACT: note_off channel=4 note=59 velocity=111 time=0
EXTRACT: note_on channel=4 note=59 velocity=111 time=0
EXTRACT: note_on channel=9 note=36 velocity=111 time=0
EXTRACT: note_on channel=9 note=42 velocity=111 time=0
EXTRACT: note_off channel=13 note=71 velocity=111 time=0.16853925
EXTRACT: note_off channel=4 note=59 velocity=111 time=0
EXTRACT: note_off channel=9 note=36 velocity=111 time=0
EXTRACT: note_off channel=9 note=42 velocity=111 time=0
EXTRACT: note_on channel=13 note=74 velocity=95 time=0.16853925
EXTRACT: note_on channel=4 note=62 velocity=95 time=0
EXTRACT: note_on channel=9 note=38 velocity=111 time=0
EXTRACT: note_on channel=9 note=42 velocity=111 time=0
EXTRACT: note_on channel=9 note=56 velocity=95 time=0
EXTRACT: note_off channel=13 note=74 velocity=95 time=0.16853925
EXTRACT: note_off channel=4 note=62 velocity=95 time=0
EXTRACT: note_off channel=9 note=38 velocity=111 time=0
EXTRACT: note_off channel=9 note=42 velocity=111 time=0
EXTRACT: note_off channel=9 note=56 velocity=95 time=0
EXTRACT: note_on channel=13 note=71 velocity=95 time=0.16853925
EXTRACT: note_on channel=4 note=59 velocity=95 time=0
EXTRACT: note_on channel=9 note=42 velocity=111 time=0
EXTRACT: note_off channel=13 note=71 velocity=95 time=0.16853925
EXTRACT: note_on channel=13 note=69 velocity=95 time=0
EXTRACT: note_off channel=4 note=59 velocity=95 time=0
EXTRACT: note_on channel=4 note=57 velocity=95 time=0
EXTRACT: note_off channel=9 note=42 velocity=111 time=0
EXTRACT: note_on channel=9 note=42 velocity=111 time=0.16853925
EXTRACT: note_on channel=9 note=36 velocity=111 time=0
EXTRACT: note_on channel=9 note=56 velocity=95 time=0
EXTRACT: note_off channel=13 note=69 velocity=95 time=0.16853925
EXTRACT: note_off channel=4 note=57 velocity=95 time=0
EXTRACT: note_off channel=9 note=42 velocity=111 time=0
EXTRACT: note_off channel=9 note=36 velocity=111 time=0
EXTRACT: note_off channel=9 note=56 velocity=95 time=0
EXTRACT: note_on channel=9 note=36 velocity=111 time=0.16853925
EXTRACT: note_on channel=9 note=42 velocity=111 time=0
EXTRACT: note_on channel=13 note=67 velocity=95 time=0.16853925
EXTRACT: note_on channel=4 note=55 velocity=95 time=0
EXTRACT: note_off channel=9 note=36 velocity=111 time=0
EXTRACT: note_off channel=9 note=42 velocity=111 time=0
EXTRACT: note_off channel=13 note=67 velocity=95 time=0.16853925
EXTRACT: note_on channel=13 note=69 velocity=95 time=0
EXTRACT: note_off channel=4 note=55 velocity=95 time=0
EXTRACT: note_on channel=4 note=57 velocity=95 time=0
EXTRACT: note_on channel=9 note=38 velocity=127 time=0
EXTRACT: note_on channel=9 note=42 velocity=111 time=0
EXTRACT: note_on channel=9 note=56 velocity=95 time=0
EXTRACT: note_off channel=13 note=69 velocity=95 time=0.16853925
EXTRACT: note_on channel=13 note=69 velocity=95 time=0
EXTRACT: note_off channel=4 note=57 velocity=95 time=0
EXTRACT: note_on channel=4 note=57 velocity=95 time=0
EXTRACT: note_off channel=9 note=38 velocity=127 time=0
EXTRACT: note_off channel=9 note=42 velocity=111 time=0
EXTRACT: note_off channel=9 note=56 velocity=95 time=0
EXTRACT: note_off channel=13 note=69 velocity=95 time=0.16853925
EXTRACT: note_on channel=13 note=67 velocity=95 time=0
EXTRACT: note_off channel=4 note=57 velocity=95 time=0
EXTRACT: note_on channel=4 note=55 velocity=95 time=0
EXTRACT: note_on channel=9 note=42 velocity=111 time=0
EXTRACT: note_off channel=9 note=42 velocity=111 time=0.16853925
EXTRACT: note_off channel=13 note=67 velocity=95 time=0.16853925
EXTRACT: note_on channel=13 note=71 velocity=95 time=0
EXTRACT: note_off channel=4 note=55 velocity=95 time=0
EXTRACT: note_on channel=4 note=59 velocity=95 time=0
EXTRACT: note_on channel=9 note=42 velocity=127 time=0
EXTRACT: note_on channel=9 note=56 velocity=95 time=0
EXTRACT: note_on channel=9 note=36 velocity=111 time=0
EXTRACT: note_off channel=9 note=42 velocity=127 time=0.16853925
EXTRACT: note_off channel=9 note=56 velocity=95 time=0
EXTRACT: note_off channel=9 note=36 velocity=111 time=0
EXTRACT: note_off channel=13 note=71 velocity=95 time=0.16853925
EXTRACT: note_off channel=4 note=59 velocity=95 time=0
EXTRACT: note_on channel=9 note=36 velocity=111 time=0
EXTRACT: note_on channel=9 note=42 velocity=111 time=0
EXTRACT: note_off channel=9 note=36 velocity=111 time=0.16853925
EXTRACT: note_off channel=9 note=42 velocity=111 time=0
EXTRACT: note_on channel=13 note=74 velocity=95 time=0.16853925
EXTRACT: note_on channel=4 note=62 velocity=95 time=0
EXTRACT: note_on channel=15 note=74 velocity=111 time=0
EXTRACT: note_on channel=15 note=62 velocity=111 time=0
EXTRACT: note_on channel=9 note=38 velocity=111 time=0
EXTRACT: note_on channel=9 note=42 velocity=111 time=0
EXTRACT: note_on channel=9 note=56 velocity=95 time=0
EXTRACT: note_off channel=9 note=38 velocity=111 time=0.16853925
EXTRACT: note_off channel=9 note=42 velocity=111 time=0
EXTRACT: note_off channel=9 note=56 velocity=95 time=0
EXTRACT: note_off channel=13 note=74 velocity=95 time=0.16853925
EXTRACT: note_on channel=13 note=74 velocity=95 time=0
EXTRACT: note_off channel=4 note=62 velocity=95 time=0
EXTRACT: note_on channel=4 note=62 velocity=95 time=0
EXTRACT: note_off channel=15 note=74 velocity=111 time=0
EXTRACT: note_off channel=15 note=62 velocity=111 time=0
EXTRACT: note_on channel=15 note=74 velocity=95 time=0
EXTRACT: note_on channel=15 note=62 velocity=95 time=0
EXTRACT: note_on channel=9 note=42 velocity=111 time=0
EXTRACT: note_off channel=13 note=74 velocity=95 time=0.16853925
EXTRACT: note_on channel=13 note=71 velocity=95 time=0
EXTRACT: note_off channel=4 note=62 velocity=95 time=0
EXTRACT: note_on channel=4 note=59 velocity=95 time=0
EXTRACT: note_off channel=15 note=74 velocity=95 time=0
EXTRACT: note_off channel=15 note=62 velocity=95 time=0
EXTRACT: note_on channel=15 note=71 velocity=111 time=0
EXTRACT: note_on channel=15 note=59 velocity=111 time=0
EXTRACT: note_off channel=9 note=42 velocity=111 time=0
EXTRACT: note_on channel=9 note=42 velocity=111 time=0.16853925
EXTRACT: note_on channel=9 note=36 velocity=111 time=0
EXTRACT: note_on channel=9 note=56 velocity=95 time=0
EXTRACT: note_off channel=9 note=42 velocity=111 time=0.16853925
EXTRACT: note_off channel=9 note=36 velocity=111 time=0
EXTRACT: note_off channel=9 note=56 velocity=95 time=0
EXTRACT: note_off channel=13 note=71 velocity=95 time=0.16853925
EXTRACT: note_off channel=4 note=59 velocity=95 time=0
EXTRACT: note_off channel=15 note=71 velocity=111 time=0
EXTRACT: note_off channel=15 note=59 velocity=111 time=0
EXTRACT: note_on channel=9 note=36 velocity=111 time=0
EXTRACT: note_on channel=9 note=42 velocity=111 time=0
EXTRACT: note_on channel=13 note=69 velocity=95 time=0.16853925
EXTRACT: note_on channel=4 note=57 velocity=95 time=0
EXTRACT: note_off channel=9 note=36 velocity=111 time=0
EXTRACT: note_off channel=9 note=42 velocity=111 time=0
EXTRACT: note_off channel=13 note=69 velocity=95 time=0.16853925
EXTRACT: note_on channel=13 note=71 velocity=95 time=0
EXTRACT: note_off channel=4 note=57 velocity=95 time=0
EXTRACT: note_on channel=4 note=59 velocity=95 time=0
EXTRACT: note_on channel=9 note=38 velocity=127 time=0
EXTRACT: note_on channel=9 note=42 velocity=111 time=0
EXTRACT: note_on channel=9 note=56 velocity=95 time=0
EXTRACT: note_off channel=13 note=71 velocity=95 time=0.16853925
EXTRACT: note_on channel=13 note=74 velocity=95 time=0
EXTRACT: note_off channel=4 note=59 velocity=95 time=0
EXTRACT: note_on channel=4 note=62 velocity=95 time=0
EXTRACT: note_off channel=9 note=38 velocity=127 time=0
EXTRACT: note_off channel=9 note=42 velocity=111 time=0
EXTRACT: note_off channel=9 note=56 velocity=95 time=0
EXTRACT: note_on channel=10 note=35 velocity=95 time=0.16853925
EXTRACT: note_on channel=9 note=42 velocity=111 time=0
EXTRACT: pitchwheel channel=10 pitch=-1152 time=0.084269625
EXTRACT: pitchwheel channel=10 pitch=-2432 time=0.084269625
EXTRACT: note_off channel=9 note=42 velocity=111 time=0
EXTRACT: pitchwheel channel=10 pitch=-3584 time=0.084269625
EXTRACT: pitchwheel channel=10 pitch=-4864 time=0.084269625
EXTRACT: pitchwheel channel=10 pitch=0 time=0
EXTRACT: note_off channel=10 note=35 velocity=95 time=0
EXTRACT: note_on channel=8 note=28 velocity=111 time=0
EXTRACT: note_off channel=13 note=74 velocity=95 time=0
EXTRACT: note_on channel=13 note=76 velocity=95 time=0
EXTRACT: note_off channel=4 note=62 velocity=95 time=0
EXTRACT: note_on channel=4 note=64 velocity=95 time=0
EXTRACT: note_on channel=15 note=76 velocity=95 time=0
EXTRACT: note_on channel=15 note=64 velocity=95 time=0
EXTRACT: note_on channel=9 note=56 velocity=95 time=0
EXTRACT: note_on channel=9 note=42 velocity=127 time=0
EXTRACT: note_on channel=9 note=36 velocity=111 time=0
EXTRACT: note_on channel=9 note=82 velocity=95 time=0
EXTRACT: note_off channel=9 note=56 velocity=95 time=0.16853925
EXTRACT: note_off channel=9 note=42 velocity=127 time=0
EXTRACT: note_off channel=9 note=36 velocity=111 time=0
EXTRACT: note_off channel=9 note=82 velocity=95 time=0
EXTRACT: note_off channel=8 note=28 velocity=111 time=0.16853925
EXTRACT: note_on channel=8 note=28 velocity=111 time=0
EXTRACT: note_on channel=9 note=42 velocity=111 time=0
EXTRACT: note_on channel=9 note=36 velocity=111 time=0
EXTRACT: note_off channel=9 note=42 velocity=111 time=0.16853925
EXTRACT: note_off channel=9 note=36 velocity=111 time=0
EXTRACT: note_off channel=8 note=28 velocity=111 time=0.16853925
EXTRACT: note_off channel=13 note=76 velocity=95 time=0
EXTRACT: note_on channel=13 note=79 velocity=95 time=0
EXTRACT: note_off channel=4 note=64 velocity=95 time=0
EXTRACT: note_on channel=4 note=67 velocity=95 time=0
EXTRACT: note_off channel=15 note=76 velocity=95 time=0
EXTRACT: note_off channel=15 note=64 velocity=95 time=0
EXTRACT: note_on channel=15 note=79 velocity=95 time=0
EXTRACT: note_on channel=15 note=67 velocity=95 time=0
EXTRACT: note_on channel=9 note=56 velocity=95 time=0
EXTRACT: note_on channel=9 note=42 velocity=111 time=0
EXTRACT: note_on channel=9 note=82 velocity=95 time=0
EXTRACT: note_on channel=9 note=38 velocity=111 time=0
EXTRACT: note_off channel=9 note=56 velocity=95 time=0.16853925
EXTRACT: note_off channel=9 note=42 velocity=111 time=0
EXTRACT: note_off channel=9 note=82 velocity=95 time=0
EXTRACT: note_off channel=9 note=38 velocity=111 time=0
EXTRACT: note_on channel=9 note=42 velocity=111 time=0.16853925
EXTRACT: note_on channel=8 note=28 velocity=95 time=0.16853925
EXTRACT: note_off channel=9 note=42 velocity=111 time=0
EXTRACT: note_on channel=9 note=82 velocity=95 time=0
EXTRACT: note_off channel=8 note=28 velocity=95 time=0.16853925
EXTRACT: note_on channel=8 note=28 velocity=111 time=0
EXTRACT: note_off channel=13 note=79 velocity=95 time=0
EXTRACT: note_on channel=13 note=76 velocity=95 time=0
EXTRACT: note_off channel=4 note=67 velocity=95 time=0
EXTRACT: note_on channel=4 note=64 velocity=95 time=0
EXTRACT: note_off channel=15 note=79 velocity=95 time=0
EXTRACT: note_off channel=15 note=67 velocity=95 time=0
EXTRACT: note_on channel=15 note=76 velocity=95 time=0
EXTRACT: note_on channel=15 note=64 velocity=95 time=0
EXTRACT: note_off channel=9 note=82 velocity=95 time=0
EXTRACT: note_on channel=9 note=36 velocity=111 time=0
EXTRACT: note_on channel=9 note=42 velocity=111 time=0
EXTRACT: note_on channel=9 note=56 velocity=95 time=0
EXTRACT: note_off channel=13 note=76 velocity=95 time=0.16853925
EXTRACT: note_off channel=4 note=64 velocity=95 time=0
EXTRACT: note_off channel=15 note=76 velocity=95 time=0
EXTRACT: note_off channel=15 note=64 velocity=95 time=0
EXTRACT: note_off channel=9 note=36 velocity=111 time=0
EXTRACT: note_off channel=9 note=42 velocity=111 time=0
EXTRACT: note_off channel=9 note=56 velocity=95 time=0
EXTRACT: note_on channel=9 note=82 velocity=95 time=0
EXTRACT: note_off channel=8 note=28 velocity=111 time=0.16853925
EXTRACT: note_on channel=8 note=28 velocity=111 time=0
EXTRACT: note_on channel=13 note=74 velocity=95 time=0
EXTRACT: note_on channel=4 note=62 velocity=95 time=0
EXTRACT: note_on channel=15 note=74 velocity=95 time=0
EXTRACT: note_on channel=15 note=62 velocity=95 time=0
EXTRACT: note_off channel=9 note=82 velocity=95 time=0
EXTRACT: note_on channel=9 note=42 velocity=111 time=0
EXTRACT: note_on channel=9 note=82 velocity=79 time=0
EXTRACT: note_on channel=9 note=36 velocity=111 time=0
EXTRACT: note_off channel=13 note=74 velocity=95 time=0.16853925
EXTRACT: note_on channel=13 note=76 velocity=95 time=0
EXTRACT: note_off channel=4 note=62 velocity=95 time=0
EXTRACT: note_on channel=4 note=64 velocity=95 time=0
EXTRACT: note_off channel=15 note=74 velocity=95 time=0
EXTRACT: note_off channel=15 note=62 velocity=95 time=0
EXTRACT: note_on channel=15 note=76 velocity=95 time=0
EXTRACT: note_on channel=15 note=64 velocity=95 time=0
EXTRACT: note_off channel=9 note=42 velocity=111 time=0
EXTRACT: note_off channel=9 note=82 velocity=79 time=0
EXTRACT: note_off channel=9 note=36 velocity=111 time=0
EXTRACT: note_off channel=8 note=28 velocity=111 time=0.16853925
EXTRACT: note_on channel=9 note=56 velocity=95 time=0
EXTRACT: note_on channel=9 note=82 velocity=95 time=0
EXTRACT: note_on channel=9 note=42 velocity=111 time=0
EXTRACT: note_on channel=9 note=38 velocity=127 time=0
EXTRACT: note_on channel=8 note=31 velocity=127 time=0.16853925
EXTRACT: note_off channel=9 note=56 velocity=95 time=0
EXTRACT: note_off channel=9 note=82 velocity=95 time=0
EXTRACT: note_off channel=9 note=42 velocity=111 time=0
EXTRACT: note_off channel=9 note=38 velocity=127 time=0
EXTRACT: note_off channel=13 note=76 velocity=95 time=0.16853925
EXTRACT: note_off channel=4 note=64 velocity=95 time=0
EXTRACT: note_off channel=15 note=76 velocity=95 time=0
EXTRACT: note_off channel=15 note=64 velocity=95 time=0
EXTRACT: note_on channel=9 note=42 velocity=111 time=0
EXTRACT: note_on channel=13 note=71 velocity=95 time=0.16853925
EXTRACT: note_on channel=4 note=59 velocity=95 time=0
EXTRACT: note_on channel=15 note=71 velocity=95 time=0
EXTRACT: note_on channel=15 note=59 velocity=95 time=0
EXTRACT: note_off channel=9 note=42 velocity=111 time=0
EXTRACT: note_off channel=8 note=31 velocity=127 time=0.16853925
EXTRACT: note_on channel=8 note=33 velocity=111 time=0
EXTRACT: note_off channel=13 note=71 velocity=95 time=0
EXTRACT: note_on channel=13 note=76 velocity=95 time=0
EXTRACT: note_off channel=4 note=59 velocity=95 time=0
EXTRACT: note_on channel=4 note=64 velocity=95 time=0
EXTRACT: note_off channel=15 note=71 velocity=95 time=0
EXTRACT: note_off channel=15 note=59 velocity=95 time=0
EXTRACT: note_on channel=15 note=76 velocity=95 time=0
EXTRACT: note_on channel=15 note=64 velocity=95 time=0
EXTRACT: note_on channel=9 note=56 velocity=95 time=0
EXTRACT: note_on channel=9 note=36 velocity=111 time=0
EXTRACT: note_on channel=9 note=42 velocity=111 time=0
EXTRACT: note_on channel=9 note=82 velocity=111 time=0
EXTRACT: note_off channel=13 note=76 velocity=95 time=0.16853925
EXTRACT: note_on channel=13 note=76 velocity=95 time=0
EXTRACT: note_off channel=4 note=64 velocity=95 time=0
EXTRACT: note_on channel=4 note=64 velocity=95 time=0
EXTRACT: note_off channel=15 note=76 velocity=95 time=0
EXTRACT: note_off channel=15 note=64 velocity=95 time=0
EXTRACT: note_on channel=15 note=76 velocity=95 time=0
EXTRACT: note_on channel=15 note=64 velocity=95 time=0
EXTRACT: note_off channel=9 note=56 velocity=95 time=0
EXTRACT: note_off channel=9 note=36 velocity=111 time=0
EXTRACT: note_off channel=9 note=42 velocity=111 time=0
EXTRACT: note_off channel=9 note=82 velocity=111 time=0
EXTRACT: note_off channel=8 note=33 velocity=111 time=0.16853925
EXTRACT: note_on channel=8 note=33 velocity=111 time=0
EXTRACT: note_off channel=13 note=76 velocity=95 time=0
EXTRACT: note_on channel=13 note=76 velocity=95 time=0
EXTRACT: note_off channel=4 note=64 velocity=95 time=0
EXTRACT: note_on channel=4 note=64 velocity=95 time=0
EXTRACT: note_off channel=15 note=76 velocity=95 time=0
EXTRACT: note_off channel=15 note=64 velocity=95 time=0
EXTRACT: note_on channel=15 note=76 velocity=95 time=0
EXTRACT: note_on channel=15 note=64 velocity=95 time=0
EXTRACT: note_on channel=9 note=36 velocity=111 time=0
EXTRACT: note_on channel=9 note=82 velocity=95 time=0
EXTRACT: note_on channel=9 note=42 velocity=111 time=0
EXTRACT: note_off channel=13 note=76 velocity=95 time=0.16853925
EXTRACT: note_on channel=13 note=76 velocity=95 time=0
EXTRACT: note_off channel=4 note=64 velocity=95 time=0
EXTRACT: note_on channel=4 note=64 velocity=95 time=0
EXTRACT: note_off channel=15 note=76 velocity=95 time=0
EXTRACT: note_off channel=15 note=64 velocity=95 time=0
EXTRACT: note_on channel=15 note=76 velocity=95 time=0
EXTRACT: note_on channel=15 note=64 velocity=95 time=0
EXTRACT: note_off channel=9 note=36 velocity=111 time=0
EXTRACT: note_off channel=9 note=82 velocity=95 time=0
EXTRACT: note_off channel=9 note=42 velocity=111 time=0
EXTRACT: note_off channel=8 note=33 velocity=111 time=0.16853925
EXTRACT: note_off channel=13 note=76 velocity=95 time=0
EXTRACT: note_on channel=13 note=76 velocity=95 time=0
EXTRACT: note_off channel=4 note=64 velocity=95 time=0
EXTRACT: note_on channel=4 note=64 velocity=95 time=0
EXTRACT: note_off channel=15 note=76 velocity=95 time=0
EXTRACT: note_off channel=15 note=64 velocity=95 time=0
EXTRACT: note_on channel=15 note=76 velocity=95 time=0
EXTRACT: note_on channel=15 note=64 velocity=95 time=0
EXTRACT: note_on channel=9 note=56 velocity=95 time=0
EXTRACT: note_on channel=9 note=38 velocity=127 time=0
EXTRACT: note_on channel=9 note=82 velocity=95 time=0
EXTRACT: note_on channel=9 note=42 velocity=111 time=0
EXTRACT: note_off channel=9 note=56 velocity=95 time=0.16853925
EXTRACT: note_off channel=9 note=38 velocity=127 time=0
EXTRACT: note_off channel=9 note=82 velocity=95 time=0
EXTRACT: note_off channel=9 note=42 velocity=111 time=0
EXTRACT: note_off channel=13 note=76 velocity=95 time=0.16853925
EXTRACT: note_on channel=13 note=76 velocity=95 time=0
EXTRACT: note_off channel=4 note=64 velocity=95 time=0
EXTRACT: note_on channel=4 note=64 velocity=95 time=0
EXTRACT: note_off channel=15 note=76 velocity=95 time=0
EXTRACT: note_off channel=15 note=64 velocity=95 time=0
EXTRACT: note_on channel=15 note=76 velocity=95 time=0
EXTRACT: note_on channel=15 note=64 velocity=95 time=0
EXTRACT: note_on channel=9 note=82 velocity=95 time=0
EXTRACT: note_on channel=9 note=42 velocity=127 time=0
EXTRACT: note_on channel=8 note=33 velocity=95 time=0.16853925
EXTRACT: note_off channel=13 note=76 velocity=95 time=0
EXTRACT: note_on channel=13 note=78 velocity=95 time=0
EXTRACT: note_off channel=4 note=64 velocity=95 time=0
EXTRACT: note_on channel=4 note=66 velocity=95 time=0
EXTRACT: note_off channel=15 note=76 velocity=95 time=0
EXTRACT: note_off channel=15 note=64 velocity=95 time=0
EXTRACT: note_on channel=15 note=78 velocity=95 time=0
EXTRACT: note_on channel=15 note=66 velocity=95 time=0
EXTRACT: note_off channel=9 note=82 velocity=95 time=0
EXTRACT: note_off channel=9 note=42 velocity=127 time=0
EXTRACT: note_on channel=9 note=82 velocity=79 time=0
EXTRACT: note_off channel=8 note=33 velocity=95 time=0.16853925
EXTRACT: note_on channel=8 note=35 velocity=111 time=0
EXTRACT: note_off channel=13 note=78 velocity=95 time=0
EXTRACT: note_on channel=13 note=79 velocity=95 time=0
EXTRACT: note_off channel=4 note=66 velocity=95 time=0
EXTRACT: note_on channel=4 note=67 velocity=95 time=0
EXTRACT: note_off channel=15 note=78 velocity=95 time=0
EXTRACT: note_off channel=15 note=66 velocity=95 time=0
EXTRACT: note_on channel=15 note=79 velocity=95 time=0
EXTRACT: note_on channel=15 note=67 velocity=95 time=0
EXTRACT: note_off channel=9 note=82 velocity=79 time=0
EXTRACT: note_on channel=9 note=56 velocity=95 time=0
EXTRACT: note_on channel=9 note=36 velocity=111 time=0
EXTRACT: note_on channel=9 note=42 velocity=127 time=0
EXTRACT: note_off channel=13 note=79 velocity=95 time=0.16853925
EXTRACT: note_on channel=13 note=78 velocity=95 time=0
EXTRACT: note_off channel=4 note=67 velocity=95 time=0
EXTRACT: note_on channel=4 note=66 velocity=95 time=0
EXTRACT: note_off channel=15 note=79 velocity=95 time=0
EXTRACT: note_off channel=15 note=67 velocity=95 time=0
EXTRACT: note_on channel=15 note=78 velocity=95 time=0
EXTRACT: note_on channel=15 note=66 velocity=95 time=0
EXTRACT: note_off channel=9 note=56 velocity=95 time=0
EXTRACT: note_off channel=9 note=36 velocity=111 time=0
EXTRACT: note_off channel=9 note=42 velocity=127 time=0
EXTRACT: note_on channel=9 note=82 velocity=95 time=0
EXTRACT: note_off channel=8 note=35 velocity=111 time=0.16853925
EXTRACT: note_on channel=8 note=35 velocity=111 time=0
EXTRACT: note_off channel=9 note=82 velocity=95 time=0
EXTRACT: note_on channel=9 note=36 velocity=111 time=0
EXTRACT: note_on channel=9 note=82 velocity=79 time=0
EXTRACT: note_on channel=9 note=42 velocity=111 time=0
EXTRACT: note_off channel=13 note=78 velocity=95 time=0.16853925
EXTRACT: note_on channel=13 note=79 velocity=95 time=0
EXTRACT: note_off channel=4 note=66 velocity=95 time=0
EXTRACT: note_on channel=4 note=67 velocity=95 time=0
EXTRACT: note_off channel=15 note=78 velocity=95 time=0
EXTRACT: note_off channel=15 note=66 velocity=95 time=0
EXTRACT: note_on channel=15 note=79 velocity=95 time=0
EXTRACT: note_on channel=15 note=67 velocity=95 time=0
EXTRACT: note_off channel=9 note=36 velocity=111 time=0
EXTRACT: note_off channel=9 note=82 velocity=79 time=0
EXTRACT: note_off channel=9 note=42 velocity=111 time=0
EXTRACT: note_off channel=8 note=35 velocity=111 time=0.16853925
EXTRACT: note_on channel=9 note=42 velocity=127 time=0
EXTRACT: note_on channel=9 note=38 velocity=111 time=0
EXTRACT: note_on channel=9 note=56 velocity=95 time=0
EXTRACT: note_on channel=9 note=82 velocity=95 time=0
EXTRACT: note_off channel=13 note=79 velocity=95 time=0.16853925
EXTRACT: note_on channel=13 note=78 velocity=95 time=0
EXTRACT: note_off channel=4 note=67 velocity=95 time=0
EXTRACT: note_on channel=4 note=66 velocity=95 time=0
EXTRACT: note_off channel=15 note=79 velocity=95 time=0
EXTRACT: note_off channel=15 note=67 velocity=95 time=0
EXTRACT: note_on channel=15 note=78 velocity=95 time=0
EXTRACT: note_on channel=15 note=66 velocity=95 time=0
EXTRACT: note_off channel=9 note=42 velocity=127 time=0
EXTRACT: note_off channel=9 note=38 velocity=111 time=0
EXTRACT: note_off channel=9 note=56 velocity=95 time=0
EXTRACT: note_off channel=9 note=82 velocity=95 time=0
EXTRACT: note_off channel=13 note=78 velocity=95 time=0.16853925
EXTRACT: note_off channel=4 note=66 velocity=95 time=0
EXTRACT: note_off channel=15 note=78 velocity=95 time=0
EXTRACT: note_off channel=15 note=66 velocity=95 time=0
EXTRACT: note_on channel=9 note=41 velocity=127 time=0
EXTRACT: note_on channel=9 note=42 velocity=127 time=0
EXTRACT: note_off channel=9 note=41 velocity=127 time=0.16853925
EXTRACT: note_off channel=9 note=42 velocity=127 time=0
EXTRACT: note_on channel=8 note=28 velocity=111 time=0.16853925
EXTRACT: note_on channel=13 note=76 velocity=95 time=0
EXTRACT: note_on channel=4 note=64 velocity=95 time=0
EXTRACT: note_on channel=15 note=76 velocity=95 time=0
EXTRACT: note_on channel=15 note=64 velocity=95 time=0
EXTRACT: note_on channel=9 note=82 velocity=111 time=0
EXTRACT: note_on channel=9 note=42 velocity=127 time=0
EXTRACT: note_on channel=9 note=36 velocity=111 time=0
EXTRACT: note_on channel=9 note=56 velocity=95 time=0
EXTRACT: note_off channel=9 note=82 velocity=111 time=0.16853925
EXTRACT: note_off channel=9 note=42 velocity=127 time=0
EXTRACT: note_off channel=9 note=36 velocity=111 time=0
EXTRACT: note_off channel=9 note=56 velocity=95 time=0
EXTRACT: note_off channel=8 note=28 velocity=111 time=0.16853925
EXTRACT: note_on channel=8 note=28 velocity=111 time=0
EXTRACT: note_on channel=9 note=36 velocity=111 time=0
EXTRACT: note_on channel=9 note=42 velocity=111 time=0
EXTRACT: note_off channel=9 note=36 velocity=111 time=0.16853925
EXTRACT: note_off channel=9 note=42 velocity=111 time=0
EXTRACT: note_off channel=8 note=28 velocity=111 time=0.16853925
EXTRACT: note_off channel=13 note=76 velocity=95 time=0
EXTRACT: note_on channel=13 note=79 velocity=95 time=0
EXTRACT: note_off channel=4 note=64 velocity=95 time=0
EXTRACT: note_on channel=4 note=67 velocity=95 time=0
EXTRACT: note_off channel=15 note=76 velocity=95 time=0
EXTRACT: note_off channel=15 note=64 velocity=95 time=0
EXTRACT: note_on channel=15 note=79 velocity=95 time=0
EXTRACT: note_on channel=15 note=67 velocity=95 time=0
EXTRACT: note_on channel=9 note=56 velocity=95 time=0
EXTRACT: note_on channel=9 note=38 velocity=111 time=0
EXTRACT: note_on channel=9 note=82 velocity=95 time=0
EXTRACT: note_on channel=9 note=42 velocity=111 time=0
EXTRACT: note_off channel=9 note=56 velocity=95 time=0.16853925
EXTRACT: note_off channel=9 note=38 velocity=111 time=0
EXTRACT: note_off channel=9 note=82 velocity=95 time=0
EXTRACT: note_off channel=9 note=42 velocity=111 time=0
EXTRACT: note_on channel=9 note=82 velocity=95 time=0.16853925
EXTRACT: note_on channel=9 note=42 velocity=111 time=0
EXTRACT: note_on channel=8 note=28 velocity=95 time=0.16853925
EXTRACT: note_off channel=9 note=82 velocity=95 time=0
EXTRACT: note_off channel=9 note=42 velocity=111 time=0
EXTRACT: note_on channel=9 note=82 velocity=79 time=0
EXTRACT: note_off channel=8 note=28 velocity=95 time=0.16853925
EXTRACT: note_on channel=8 note=28 velocity=111 time=0
EXTRACT: note_off channel=13 note=79 velocity=95 time=0
EXTRACT: note_on channel=13 note=76 velocity=95 time=0
EXTRACT: note_off channel=4 note=67 velocity=95 time=0
EXTRACT: note_on channel=4 note=64 velocity=95 time=0
EXTRACT: note_off channel=15 note=79 velocity=95 time=0
EXTRACT: note_off channel=15 note=67 velocity=95 time=0
EXTRACT: note_on channel=15 note=76 velocity=95 time=0
EXTRACT: note_on channel=15 note=64 velocity=95 time=0
EXTRACT: note_off channel=9 note=82 velocity=79 time=0
EXTRACT: note_on channel=9 note=56 velocity=95 time=0
EXTRACT: note_on channel=9 note=36 velocity=111 time=0
EXTRACT: note_on channel=9 note=42 velocity=111 time=0
EXTRACT: note_off channel=13 note=76 velocity=95 time=0.16853925
EXTRACT: note_off channel=4 note=64 velocity=95 time=0
EXTRACT: note_off channel=15 note=76 velocity=95 time=0
EXTRACT: note_off channel=15 note=64 velocity=95 time=0
EXTRACT: note_off channel=9 note=56 velocity=95 time=0
EXTRACT: note_off channel=9 note=36 velocity=111 time=0
EXTRACT: note_off channel=9 note=42 velocity=111 time=0
EXTRACT: note_on channel=9 note=82 velocity=95 time=0
EXTRACT: note_off channel=8 note=28 velocity=111 time=0.16853925
EXTRACT: note_on channel=8 note=28 velocity=111 time=0
EXTRACT: note_on channel=13 note=74 velocity=95 time=0
EXTRACT: note_on channel=4 note=62 velocity=95 time=0
EXTRACT: note_on channel=15 note=74 velocity=95 time=0
EXTRACT: note_on channel=15 note=62 velocity=95 time=0
EXTRACT: note_off channel=9 note=82 velocity=95 time=0
EXTRACT: note_on channel=9 note=42 velocity=111 time=0
EXTRACT: note_on channel=9 note=36 velocity=111 time=0
EXTRACT: note_on channel=9 note=82 velocity=79 time=0
EXTRACT: note_off channel=13 note=74 velocity=95 time=0.16853925
EXTRACT: note_on channel=13 note=76 velocity=95 time=0
EXTRACT: note_off channel=4 note=62 velocity=95 time=0
EXTRACT: note_on channel=4 note=64 velocity=95 time=0
EXTRACT: note_off channel=15 note=74 velocity=95 time=0
EXTRACT: note_off channel=15 note=62 velocity=95 time=0
EXTRACT: note_on channel=15 note=76 velocity=95 time=0
EXTRACT: note_on channel=15 note=64 velocity=95 time=0
EXTRACT: note_off channel=9 note=42 velocity=111 time=0
EXTRACT: note_off channel=9 note=36 velocity=111 time=0
EXTRACT: note_off channel=9 note=82 velocity=79 time=0
EXTRACT: note_off channel=8 note=28 velocity=111 time=0.16853925
EXTRACT: note_on channel=9 note=56 velocity=95 time=0
EXTRACT: note_on channel=9 note=42 velocity=111 time=0
EXTRACT: note_on channel=9 note=38 velocity=127 time=0
EXTRACT: note_on channel=9 note=82 velocity=95 time=0
EXTRACT: note_on channel=8 note=31 velocity=127 time=0.16853925
EXTRACT: note_off channel=9 note=56 velocity=95 time=0
EXTRACT: note_off channel=9 note=42 velocity=111 time=0
EXTRACT: note_off channel=9 note=38 velocity=127 time=0
EXTRACT: note_off channel=9 note=82 velocity=95 time=0
EXTRACT: note_off channel=13 note=76 velocity=95 time=0.16853925
EXTRACT: note_off channel=4 note=64 velocity=95 time=0
EXTRACT: note_off channel=15 note=76 velocity=95 time=0
EXTRACT: note_off channel=15 note=64 velocity=95 time=0
EXTRACT: note_on channel=9 note=42 velocity=111 time=0
EXTRACT: note_on channel=13 note=71 velocity=95 time=0.16853925
EXTRACT: note_on channel=4 note=59 velocity=95 time=0
EXTRACT: note_on channel=15 note=71 velocity=95 time=0
EXTRACT: note_on channel=15 note=59 velocity=95 time=0
EXTRACT: note_off channel=9 note=42 velocity=111 time=0
EXTRACT: note_off channel=8 note=31 velocity=127 time=0
EXTRACT: note_on channel=8 note=33 velocity=111 time=0
EXTRACT: note_off channel=13 note=71 velocity=95 time=0
EXTRACT: note_on channel=13 note=76 velocity=95 time=0
EXTRACT: note_off channel=4 note=59 velocity=95 time=0
EXTRACT: note_on channel=4 note=64 velocity=95 time=0
EXTRACT: note_off channel=15 note=71 velocity=95 time=0
EXTRACT: note_off channel=15 note=59 velocity=95 time=0
EXTRACT: note_on channel=15 note=76 velocity=95 time=0
EXTRACT: note_on channel=15 note=64 velocity=95 time=0
EXTRACT: note_on channel=9 note=82 velocity=111 time=0
EXTRACT: note_on channel=9 note=42 velocity=111 time=0
EXTRACT: note_on channel=9 note=56 velocity=95 time=0
EXTRACT: note_on channel=9 note=36 velocity=111 time=0
EXTRACT: note_off channel=13 note=76 velocity=95 time=0.16853925
EXTRACT: note_on channel=13 note=76 velocity=95 time=0
EXTRACT: note_off channel=4 note=64 velocity=95 time=0
EXTRACT: note_on channel=4 note=64 velocity=95 time=0
EXTRACT: note_off channel=15 note=76 velocity=95 time=0
EXTRACT: note_off channel=15 note=64 velocity=95 time=0
EXTRACT: note_on channel=15 note=76 velocity=95 time=0
EXTRACT: note_on channel=15 note=64 velocity=95 time=0
EXTRACT: note_off channel=9 note=82 velocity=111 time=0
EXTRACT: note_off channel=9 note=42 velocity=111 time=0
EXTRACT: note_off channel=9 note=56 velocity=95 time=0
EXTRACT: note_off channel=9 note=36 velocity=111 time=0
EXTRACT: note_off channel=8 note=33 velocity=111 time=0.16853925
EXTRACT: note_on channel=8 note=33 velocity=111 time=0
EXTRACT: note_off channel=13 note=76 velocity=95 time=0
EXTRACT: note_on channel=13 note=76 velocity=95 time=0
EXTRACT: note_off channel=4 note=64 velocity=95 time=0
EXTRACT: note_on channel=4 note=64 velocity=95 time=0
EXTRACT: note_off channel=15 note=76 velocity=95 time=0
EXTRACT: note_off channel=15 note=64 velocity=95 time=0
EXTRACT: note_on channel=15 note=76 velocity=95 time=0
EXTRACT: note_on channel=15 note=64 velocity=95 time=0
EXTRACT: note_on channel=9 note=82 velocity=95 time=0
EXTRACT: note_on channel=9 note=42 velocity=111 time=0
EXTRACT: note_on channel=9 note=36 velocity=111 time=0
EXTRACT: note_off channel=13 note=76 velocity=95 time=0.16853925
EXTRACT: note_on channel=13 note=76 velocity=95 time=0
EXTRACT: note_off channel=4 note=64 velocity=95 time=0
EXTRACT: note_on channel=4 note=64 velocity=95 time=0
EXTRACT: note_off channel=15 note=76 velocity=95 time=0
EXTRACT: note_off channel=15 note=64 velocity=95 time=0
EXTRACT: note_on channel=15 note=76 velocity=95 time=0
EXTRACT: note_on channel=15 note=64 velocity=95 time=0
EXTRACT: note_off channel=9 note=82 velocity=95 time=0
EXTRACT: note_off channel=9 note=42 velocity=111 time=0
EXTRACT: note_off channel=9 note=36 velocity=111 time=0
EXTRACT: note_on channel=9 note=82 velocity=79 time=0
EXTRACT: note_off channel=8 note=33 velocity=111 time=0.16853925
EXTRACT: note_off channel=13 note=76 velocity=95 time=0
EXTRACT: note_on channel=13 note=76 velocity=95 time=0
EXTRACT: note_off channel=4 note=64 velocity=95 time=0
EXTRACT: note_on channel=4 note=64 velocity=95 time=0
EXTRACT: note_off channel=15 note=76 velocity=95 time=0
EXTRACT: note_off channel=15 note=64 velocity=95 time=0
EXTRACT: note_on channel=15 note=76 velocity=95 time=0
EXTRACT: note_on channel=15 note=64 velocity=95 time=0
EXTRACT: note_off channel=9 note=82 velocity=79 time=0
EXTRACT: note_on channel=9 note=42 velocity=111 time=0
EXTRACT: note_on channel=9 note=38 velocity=127 time=0
EXTRACT: note_on channel=9 note=82 velocity=79 time=0
EXTRACT: note_on channel=9 note=56 velocity=95 time=0
EXTRACT: note_off channel=9 note=42 velocity=111 time=0.16853925
EXTRACT: note_off channel=9 note=38 velocity=127 time=0
EXTRACT: note_off channel=9 note=82 velocity=79 time=0
EXTRACT: note_off channel=9 note=56 velocity=95 time=0
EXTRACT: note_on channel=9 note=82 velocity=95 time=0
EXTRACT: note_off channel=13 note=76 velocity=95 time=0.16853925
EXTRACT: note_on channel=13 note=78 velocity=95 time=0
EXTRACT: note_off channel=4 note=64 velocity=95 time=0
EXTRACT: note_on channel=4 note=66 velocity=95 time=0
EXTRACT: note_off channel=15 note=76 velocity=95 time=0
EXTRACT: note_off channel=15 note=64 velocity=95 time=0
EXTRACT: note_on channel=15 note=78 velocity=95 time=0
EXTRACT: note_on channel=15 note=66 velocity=95 time=0
EXTRACT: note_off channel=9 note=82 velocity=95 time=0
EXTRACT: note_on channel=9 note=42 velocity=127 time=0
EXTRACT: note_on channel=8 note=33 velocity=95 time=0.16853925
EXTRACT: note_off channel=9 note=42 velocity=127 time=0
EXTRACT: note_on channel=9 note=82 velocity=95 time=0
EXTRACT: note_off channel=8 note=33 velocity=95 time=0.16853925
EXTRACT: note_on channel=8 note=35 velocity=111 time=0
EXTRACT: note_off channel=13 note=78 velocity=95 time=0
EXTRACT: note_on channel=13 note=79 velocity=95 time=0
EXTRACT: note_off channel=4 note=66 velocity=95 time=0
EXTRACT: note_on channel=4 note=67 velocity=95 time=0
EXTRACT: note_off channel=15 note=78 velocity=95 time=0
EXTRACT: note_off channel=15 note=66 velocity=95 time=0
EXTRACT: note_on channel=15 note=79 velocity=95 time=0
EXTRACT: note_on channel=15 note=67 velocity=95 time=0
EXTRACT: note_off channel=9 note=82 velocity=95 time=0
EXTRACT: note_on channel=9 note=42 velocity=127 time=0
EXTRACT: note_on channel=9 note=36 velocity=111 time=0
EXTRACT: note_on channel=9 note=56 velocity=95 time=0
EXTRACT: note_off channel=9 note=42 velocity=127 time=0.16853925
EXTRACT: note_off channel=9 note=36 velocity=111 time=0
EXTRACT: note_off channel=9 note=56 velocity=95 time=0
EXTRACT: note_on channel=9 note=82 velocity=95 time=0
EXTRACT: note_off channel=8 note=35 velocity=111 time=0.16853925
EXTRACT: note_on channel=8 note=35 velocity=95 time=0
EXTRACT: note_off channel=13 note=79 velocity=95 time=0
EXTRACT: note_on channel=13 note=78 velocity=95 time=0
EXTRACT: note_off channel=4 note=67 velocity=95 time=0
EXTRACT: note_on channel=4 note=66 velocity=95 time=0
EXTRACT: note_off channel=15 note=79 velocity=95 time=0
EXTRACT: note_off channel=15 note=67 velocity=95 time=0
EXTRACT: note_on channel=15 note=78 velocity=95 time=0
EXTRACT: note_on channel=15 note=66 velocity=95 time=0
EXTRACT: note_off channel=9 note=82 velocity=95 time=0
EXTRACT: note_on channel=9 note=42 velocity=111 time=0
EXTRACT: note_on channel=9 note=82 velocity=79 time=0
EXTRACT: note_on channel=9 note=36 velocity=111 time=0
EXTRACT: note_off channel=9 note=42 velocity=111 time=0.16853925
EXTRACT: note_off channel=9 note=82 velocity=79 time=0
EXTRACT: note_off channel=9 note=36 velocity=111 time=0
EXTRACT: note_off channel=8 note=35 velocity=95 time=0
EXTRACT: note_off channel=13 note=78 velocity=95 time=0
EXTRACT: note_on channel=13 note=76 velocity=95 time=0
EXTRACT: note_off channel=4 note=66 velocity=95 time=0
EXTRACT: note_on channel=4 note=64 velocity=95 time=0
EXTRACT: note_off channel=15 note=78 velocity=95 time=0
EXTRACT: note_off channel=15 note=66 velocity=95 time=0
EXTRACT: note_on channel=15 note=76 velocity=95 time=0
EXTRACT: note_on channel=15 note=64 velocity=95 time=0
EXTRACT: note_off channel=13 note=76 velocity=95 time=0.3370785
EXTRACT: note_on channel=13 note=79 velocity=70 time=0
EXTRACT: note_off channel=4 note=64 velocity=95 time=0
EXTRACT: note_on channel=4 note=67 velocity=70 time=0
EXTRACT: note_off channel=15 note=76 velocity=95 time=0
EXTRACT: note_off channel=15 note=64 velocity=95 time=0
EXTRACT: note_off channel=13 note=79 velocity=70 time=0.16853925
EXTRACT: note_off channel=4 note=67 velocity=70 time=0
EXTRACT: note_on channel=0 note=47 velocity=95 time=0
EXTRACT: note_on channel=0 note=40 velocity=95 time=0
EXTRACT: note_on channel=2 note=47 velocity=95 time=0
EXTRACT: note_on channel=2 note=40 velocity=95 time=0
EXTRACT: note_on channel=6 note=64 velocity=95 time=0
EXTRACT: note_on channel=6 note=59 velocity=95 time=0
EXTRACT: note_on channel=11 note=64 velocity=31 time=0
EXTRACT: note_on channel=11 note=76 velocity=95 time=0
EXTRACT: note_on channel=11 note=59 velocity=31 time=0
EXTRACT: note_on channel=11 note=71 velocity=95 time=0
EXTRACT: note_on channel=8 note=28 velocity=111 time=0
EXTRACT: note_on channel=13 note=76 velocity=95 time=0
EXTRACT: note_on channel=4 note=64 velocity=95 time=0
EXTRACT: note_on channel=15 note=76 velocity=95 time=0
EXTRACT: note_on channel=15 note=64 velocity=95 time=0
EXTRACT: note_on channel=9 note=56 velocity=95 time=0
EXTRACT: note_on channel=9 note=42 velocity=127 time=0
EXTRACT: note_on channel=9 note=36 velocity=111 time=0
EXTRACT: note_on channel=9 note=82 velocity=95 time=0
EXTRACT: note_off channel=6 note=64 velocity=95 time=0.16853925
EXTRACT: note_off channel=6 note=59 velocity=95 time=0
EXTRACT: note_on channel=6 note=64 velocity=95 time=0
EXTRACT: note_on channel=6 note=59 velocity=95 time=0
EXTRACT: note_off channel=11 note=64 velocity=31 time=0
EXTRACT: note_off channel=11 note=76 velocity=95 time=0
EXTRACT: note_off channel=11 note=59 velocity=31 time=0
EXTRACT: note_off channel=11 note=71 velocity=95 time=0
EXTRACT: note_on channel=11 note=64 velocity=31 time=0
EXTRACT: note_on channel=11 note=76 velocity=95 time=0
EXTRACT: note_on channel=11 note=59 velocity=31 time=0
EXTRACT: note_on channel=11 note=71 velocity=95 time=0
EXTRACT: note_off channel=9 note=56 velocity=95 time=0
EXTRACT: note_off channel=9 note=42 velocity=127 time=0
EXTRACT: note_off channel=9 note=36 velocity=111 time=0
EXTRACT: note_off channel=9 note=82 velocity=95 time=0
EXTRACT: note_off channel=0 note=47 velocity=95 time=0.16853925
EXTRACT: note_off channel=0 note=40 velocity=95 time=0
EXTRACT: note_on channel=0 note=47 velocity=95 time=0
EXTRACT: note_on channel=0 note=40 velocity=95 time=0
EXTRACT: note_off channel=2 note=47 velocity=95 time=0
EXTRACT: note_off channel=2 note=40 velocity=95 time=0
EXTRACT: note_on channel=2 note=47 velocity=95 time=0
EXTRACT: note_on channel=2 note=40 velocity=95 time=0
EXTRACT: note_off channel=6 note=64 velocity=95 time=0
EXTRACT: note_off channel=6 note=59 velocity=95 time=0
EXTRACT: note_on channel=6 note=64 velocity=95 time=0
EXTRACT: note_on channel=6 note=59 velocity=95 time=0
EXTRACT: note_off channel=11 note=64 velocity=31 time=0
EXTRACT: note_off channel=11 note=76 velocity=95 time=0
EXTRACT: note_off channel=11 note=59 velocity=31 time=0
EXTRACT: note_off channel=11 note=71 velocity=95 time=0
EXTRACT: note_on channel=11 note=64 velocity=31 time=0
EXTRACT: note_on channel=11 note=76 velocity=95 time=0
EXTRACT: note_on channel=11 note=59 velocity=31 time=0
EXTRACT: note_on channel=11 note=71 velocity=95 time=0
EXTRACT: note_off channel=8 note=28 velocity=111 time=0
EXTRACT: note_on channel=8 note=28 velocity=111 time=0
EXTRACT: note_on channel=9 note=42 velocity=111 time=0
EXTRACT: note_on channel=9 note=36 velocity=111 time=0
EXTRACT: note_off channel=6 note=64 velocity=95 time=0.16853925
EXTRACT: note_off channel=6 note=59 velocity=95 time=0
EXTRACT: note_on channel=6 note=64 velocity=95 time=0
EXTRACT: note_on channel=6 note=59 velocity=95 time=0
EXTRACT: note_off channel=11 note=64 velocity=31 time=0
EXTRACT: note_off channel=11 note=76 velocity=95 time=0
EXTRACT: note_off channel=11 note=59 velocity=31 time=0
EXTRACT: note_off channel=11 note=71 velocity=95 time=0
EXTRACT: note_on channel=11 note=64 velocity=31 time=0
EXTRACT: note_on channel=11 note=76 velocity=95 time=0
EXTRACT: note_on channel=11 note=59 velocity=31 time=0
EXTRACT: note_on channel=11 note=71 velocity=95 time=0
EXTRACT: note_off channel=9 note=42 velocity=111 time=0
EXTRACT: note_off channel=9 note=36 velocity=111 time=0
EXTRACT: note_off channel=0 note=47 velocity=95 time=0.16853925
EXTRACT: note_off channel=0 note=40 velocity=95 time=0
EXTRACT: pitchwheel channel=1 pitch=0 time=0
EXTRACT: note_on channel=1 note=55 velocity=95 time=0
EXTRACT: note_off channel=2 note=47 velocity=95 time=0
EXTRACT: note_off channel=2 note=40 velocity=95 time=0
EXTRACT: note_off channel=6 note=64 velocity=95 time=0
EXTRACT: note_off channel=6 note=59 velocity=95 time=0
EXTRACT: note_on channel=6 note=64 velocity=95 time=0
EXTRACT: note_on channel=6 note=59 velocity=95 time=0
EXTRACT: note_off channel=11 note=64 velocity=31 time=0
EXTRACT: note_off channel=11 note=76 velocity=95 time=0
EXTRACT: note_off channel=11 note=59 velocity=31 time=0
EXTRACT: note_off channel=11 note=71 velocity=95 time=0
EXTRACT: note_on channel=11 note=64 velocity=31 time=0
EXTRACT: note_on channel=11 note=76 velocity=95 time=0
EXTRACT: note_on channel=11 note=59 velocity=31 time=0
EXTRACT: note_on channel=11 note=71 velocity=95 time=0
EXTRACT: note_off channel=8 note=28 velocity=111 time=0
EXTRACT: note_off channel=13 note=76 velocity=95 time=0
EXTRACT: note_on channel=13 note=79 velocity=95 time=0
EXTRACT: note_off channel=4 note=64 velocity=95 time=0
EXTRACT: note_on channel=4 note=67 velocity=95 time=0
EXTRACT: note_off channel=15 note=76 velocity=95 time=0
EXTRACT: note_off channel=15 note=64 velocity=95 time=0
EXTRACT: note_on channel=15 note=79 velocity=95 time=0
EXTRACT: note_on channel=15 note=67 velocity=95 time=0
EXTRACT: note_on channel=9 note=56 velocity=95 time=0
EXTRACT: note_on channel=9 note=42 velocity=111 time=0
EXTRACT: note_on channel=9 note=82 velocity=95 time=0
EXTRACT: note_on channel=9 note=38 velocity=111 time=0
EXTRACT: pitchwheel channel=1 pitch=0 time=0.1123595
EXTRACT: note_off channel=6 note=64 velocity=95 time=0.05617975
EXTRACT: note_off channel=6 note=59 velocity=95 time=0
EXTRACT: note_on channel=6 note=64 velocity=95 time=0
EXTRACT: note_on channel=6 note=59 velocity=95 time=0
EXTRACT: note_off channel=11 note=64 velocity=31 time=0
EXTRACT: note_off channel=11 note=76 velocity=95 time=0
EXTRACT: note_off channel=11 note=59 velocity=31 time=0
EXTRACT: note_off channel=11 note=71 velocity=95 time=0
EXTRACT: note_on channel=11 note=64 velocity=31 time=0
EXTRACT: note_on channel=11 note=76 velocity=95 time=0
EXTRACT: note_on channel=11 note=59 velocity=31 time=0
EXTRACT: note_on channel=11 note=71 velocity=95 time=0
EXTRACT: note_off channel=9 note=56 velocity=95 time=0
EXTRACT: note_off channel=9 note=42 velocity=111 time=0
EXTRACT: note_off channel=9 note=82 velocity=95 time=0
EXTRACT: note_off channel=9 note=38 velocity=111 time=0
EXTRACT: pitchwheel channel=1 pitch=128 time=0.05617975
EXTRACT: pitchwheel channel=1 pitch=256 time=0.1123595
EXTRACT: pitchwheel channel=1 pitch=256 time=0
EXTRACT: note_off channel=6 note=64 velocity=95 time=0
EXTRACT: note_off channel=6 note=59 velocity=95 time=0
EXTRACT: note_on channel=6 note=64 velocity=95 time=0
EXTRACT: note_on channel=6 note=59 velocity=95 time=0
EXTRACT: note_off channel=11 note=64 velocity=31 time=0
EXTRACT: note_off channel=11 note=76 velocity=95 time=0
EXTRACT: note_off channel=11 note=59 velocity=31 time=0
EXTRACT: note_off channel=11 note=71 velocity=95 time=0
EXTRACT: note_on channel=11 note=64 velocity=31 time=0
EXTRACT: note_on channel=11 note=76 velocity=95 time=0
EXTRACT: note_on channel=11 note=59 velocity=31 time=0
EXTRACT: note_on channel=11 note=71 velocity=95 time=0
EXTRACT: note_on channel=9 note=42 velocity=111 time=0
EXTRACT: note_off channel=6 note=64 velocity=95 time=0.16853925
EXTRACT: note_off channel=6 note=59 velocity=95 time=0
EXTRACT: note_on channel=6 note=64 velocity=95 time=0
EXTRACT: note_on channel=6 note=59 velocity=95 time=0
EXTRACT: note_off channel=11 note=64 velocity=31 time=0
EXTRACT: note_off channel=11 note=76 velocity=95 time=0
EXTRACT: note_off channel=11 note=59 velocity=31 time=0
EXTRACT: note_off channel=11 note=71 velocity=95 time=0
EXTRACT: note_on channel=11 note=64 velocity=31 time=0
EXTRACT: note_on channel=11 note=76 velocity=95 time=0
EXTRACT: note_on channel=11 note=59 velocity=31 time=0
EXTRACT: note_on channel=11 note=71 velocity=95 time=0
EXTRACT: note_on channel=8 note=28 velocity=95 time=0
EXTRACT: note_off channel=9 note=42 velocity=111 time=0
EXTRACT: note_on channel=9 note=82 velocity=95 time=0
EXTRACT: pitchwheel channel=1 pitch=256 time=0.1123595
EXTRACT: pitchwheel channel=1 pitch=128 time=0.028089875
EXTRACT: pitchwheel channel=1 pitch=0 time=0.028089875
EXTRACT: pitchwheel channel=1 pitch=0 time=0
EXTRACT: pitchwheel channel=1 pitch=0 time=0
EXTRACT: note_off channel=1 note=55 velocity=95 time=0
EXTRACT: note_on channel=0 note=47 velocity=95 time=0
EXTRACT: note_on channel=0 note=40 velocity=95 time=0
EXTRACT: note_on channel=2 note=47 velocity=95 time=0
EXTRACT: note_on channel=2 note=40 velocity=95 time=0
EXTRACT: note_off channel=6 note=64 velocity=95 time=0
EXTRACT: note_off channel=6 note=59 velocity=95 time=0
EXTRACT: note_on channel=6 note=64 velocity=95 time=0
EXTRACT: note_on channel=6 note=59 velocity=95 time=0
EXTRACT: note_off channel=11 note=64 velocity=31 time=0
EXTRACT: note_off channel=11 note=76 velocity=95 time=0
EXTRACT: note_off channel=11 note=59 velocity=31 time=0
EXTRACT: note_off channel=11 note=71 velocity=95 time=0
EXTRACT: note_on channel=11 note=64 velocity=31 time=0
EXTRACT: note_on channel=11 note=76 velocity=95 time=0
EXTRACT: note_on channel=11 note=59 velocity=31 time=0
EXTRACT: note_on channel=11 note=71 velocity=95 time=0
EXTRACT: note_off channel=8 note=28 velocity=95 time=0
EXTRACT: note_on channel=8 note=28 velocity=111 time=0
EXTRACT: note_off channel=13 note=79 velocity=95 time=0
EXTRACT: note_on channel=13 note=76 velocity=95 time=0
EXTRACT: note_off channel=4 note=67 velocity=95 time=0
EXTRACT: note_on channel=4 note=64 velocity=95 time=0
EXTRACT: note_off channel=15 note=79 velocity=95 time=0
EXTRACT: note_off channel=15 note=67 velocity=95 time=0
EXTRACT: note_on channel=15 note=76 velocity=95 time=0
EXTRACT: note_on channel=15 note=64 velocity=95 time=0
EXTRACT: note_off channel=9 note=82 velocity=95 time=0
EXTRACT: note_on channel=9 note=36 velocity=111 time=0
EXTRACT: note_on channel=9 note=42 velocity=111 time=0
EXTRACT: note_on channel=9 note=56 velocity=95 time=0
EXTRACT: note_off channel=6 note=64 velocity=95 time=0.16853925
EXTRACT: note_off channel=6 note=59 velocity=95 time=0
EXTRACT: note_on channel=6 note=64 velocity=95 time=0
EXTRACT: note_on channel=6 note=59 velocity=95 time=0
EXTRACT: note_off channel=11 note=64 velocity=31 time=0
EXTRACT: note_off channel=11 note=76 velocity=95 time=0
EXTRACT: note_off channel=11 note=59 velocity=31 time=0
EXTRACT: note_off channel=11 note=71 velocity=95 time=0
EXTRACT: note_on channel=11 note=64 velocity=31 time=0
EXTRACT: note_on channel=11 note=76 velocity=95 time=0
EXTRACT: note_on channel=11 note=59 velocity=31 time=0
EXTRACT: note_on channel=11 note=71 velocity=95 time=0
EXTRACT: note_off channel=13 note=76 velocity=95 time=0
EXTRACT: note_off channel=4 note=64 velocity=95 time=0
EXTRACT: note_off channel=15 note=76 velocity=95 time=0
EXTRACT: note_off channel=15 note=64 velocity=95 time=0
EXTRACT: note_off channel=9 note=36 velocity=111 time=0
EXTRACT: note_off channel=9 note=42 velocity=111 time=0
EXTRACT: note_off channel=9 note=56 velocity=95 time=0
EXTRACT: note_on channel=9 note=82 velocity=95 time=0
EXTRACT: note_off channel=0 note=47 velocity=95 time=0.16853925
EXTRACT: note_off channel=0 note=40 velocity=95 time=0
EXTRACT: note_on channel=0 note=47 velocity=95 time=0
EXTRACT: note_on channel=0 note=40 velocity=95 time=0
EXTRACT: note_off channel=2 note=47 velocity=95 time=0
EXTRACT: note_off channel=2 note=40 velocity=95 time=0
EXTRACT: note_on channel=2 note=47 velocity=95 time=0
EXTRACT: note_on channel=2 note=40 velocity=95 time=0
EXTRACT: note_off channel=6 note=64 velocity=95 time=0
EXTRACT: note_off channel=6 note=59 velocity=95 time=0
EXTRACT: note_on channel=6 note=64 velocity=95 time=0
EXTRACT: note_on channel=6 note=59 velocity=95 time=0
EXTRACT: note_off channel=11 note=64 velocity=31 time=0
EXTRACT: note_off channel=11 note=76 velocity=95 time=0
EXTRACT: note_off channel=11 note=59 velocity=31 time=0
EXTRACT: note_off channel=11 note=71 velocity=95 time=0
EXTRACT: note_on channel=11 note=64 velocity=31 time=0
EXTRACT: note_on channel=11 note=76 velocity=95 time=0
EXTRACT: note_on channel=11 note=59 velocity=31 time=0
EXTRACT: note_on channel=11 note=71 velocity=95 time=0
EXTRACT: note_off channel=8 note=28 velocity=111 time=0
EXTRACT: note_on channel=8 note=28 velocity=111 time=0
EXTRACT: note_on channel=13 note=74 velocity=95 time=0
EXTRACT: note_on channel=4 note=62 velocity=95 time=0
EXTRACT: note_on channel=15 note=74 velocity=95 time=0
EXTRACT: note_on channel=15 note=62 velocity=95 time=0
EXTRACT: note_off channel=9 note=82 velocity=95 time=0
EXTRACT: note_on channel=9 note=42 velocity=111 time=0
EXTRACT: note_on channel=9 note=82 velocity=79 time=0
EXTRACT: note_on channel=9 note=36 velocity=111 time=0
EXTRACT: note_off channel=6 note=64 velocity=95 time=0.16853925
EXTRACT: note_off channel=6 note=59 velocity=95 time=0
EXTRACT: note_on channel=6 note=64 velocity=95 time=0
EXTRACT: note_on channel=6 note=59 velocity=95 time=0
EXTRACT: note_off channel=11 note=64 velocity=31 time=0
EXTRACT: note_off channel=11 note=76 velocity=95 time=0
EXTRACT: note_off channel=11 note=59 velocity=31 time=0
EXTRACT: note_off channel=11 note=71 velocity=95 time=0
EXTRACT: note_on channel=11 note=64 velocity=31 time=0
EXTRACT: note_on channel=11 note=76 velocity=95 time=0
EXTRACT: note_on channel=11 note=59 velocity=31 time=0
EXTRACT: note_on channel=11 note=71 velocity=95 time=0
EXTRACT: note_off channel=13 note=74 velocity=95 time=0
EXTRACT: note_on channel=13 note=76 velocity=95 time=0
EXTRACT: note_off channel=4 note=62 velocity=95 time=0
EXTRACT: note_on channel=4 note=64 velocity=95 time=0
EXTRACT: note_off channel=15 note=74 velocity=95 time=0
EXTRACT: note_off channel=15 note=62 velocity=95 time=0
EXTRACT: note_on channel=15 note=76 velocity=95 time=0
EXTRACT: note_on channel=15 note=64 velocity=95 time=0
EXTRACT: note_off channel=9 note=42 velocity=111 time=0
EXTRACT: note_off channel=9 note=82 velocity=79 time=0
EXTRACT: note_off channel=9 note=36 velocity=111 time=0
EXTRACT: note_off channel=0 note=47 velocity=95 time=0.16853925
EXTRACT: note_off channel=0 note=40 velocity=95 time=0
EXTRACT: note_off channel=2 note=47 velocity=95 time=0
EXTRACT: note_off channel=2 note=40 velocity=95 time=0
EXTRACT: note_off channel=6 note=64 velocity=95 time=0
EXTRACT: note_off channel=6 note=59 velocity=95 time=0
EXTRACT: note_on channel=6 note=64 velocity=95 time=0
EXTRACT: note_on channel=6 note=59 velocity=95 time=0
EXTRACT: note_off channel=11 note=64 velocity=31 time=0
EXTRACT: note_off channel=11 note=76 velocity=95 time=0
EXTRACT: note_off channel=11 note=59 velocity=31 time=0
EXTRACT: note_off channel=11 note=71 velocity=95 time=0
EXTRACT: note_on channel=11 note=64 velocity=31 time=0
EXTRACT: note_on channel=11 note=76 velocity=95 time=0
EXTRACT: note_on channel=11 note=59 velocity=31 time=0
EXTRACT: note_on channel=11 note=71 velocity=95 time=0
EXTRACT: note_off channel=8 note=28 velocity=111 time=0
EXTRACT: note_on channel=9 note=56 velocity=95 time=0
EXTRACT: note_on channel=9 note=82 velocity=95 time=0
EXTRACT: note_on channel=9 note=42 velocity=111 time=0
EXTRACT: note_on channel=9 note=38 velocity=127 time=0
EXTRACT: note_on channel=0 note=43 velocity=95 time=0.16853925
EXTRACT: note_off channel=6 note=64 velocity=95 time=0
EXTRACT: note_off channel=6 note=59 velocity=95 time=0
EXTRACT: note_on channel=6 note=64 velocity=95 time=0
EXTRACT: note_on channel=6 note=59 velocity=95 time=0
EXTRACT: note_off channel=11 note=64 velocity=31 time=0
EXTRACT: note_off channel=11 note=76 velocity=95 time=0
EXTRACT: note_off channel=11 note=59 velocity=31 time=0
EXTRACT: note_off channel=11 note=71 velocity=95 time=0
EXTRACT: note_on channel=11 note=64 velocity=31 time=0
EXTRACT: note_on channel=11 note=76 velocity=95 time=0
EXTRACT: note_on channel=11 note=59 velocity=31 time=0
EXTRACT: note_on channel=11 note=71 velocity=95 time=0
EXTRACT: note_on channel=8 note=31 velocity=127 time=0
EXTRACT: note_off channel=9 note=56 velocity=95 time=0
EXTRACT: note_off channel=9 note=82 velocity=95 time=0
EXTRACT: note_off channel=9 note=42 velocity=111 time=0
EXTRACT: note_off channel=9 note=38 velocity=127 time=0
EXTRACT: note_off channel=6 note=64 velocity=95 time=0.16853925
EXTRACT: note_off channel=6 note=59 velocity=95 time=0
EXTRACT: note_on channel=6 note=64 velocity=95 time=0
EXTRACT: note_on channel=6 note=59 velocity=95 time=0
EXTRACT: note_off channel=11 note=64 velocity=31 time=0
EXTRACT: note_off channel=11 note=76 velocity=95 time=0
EXTRACT: note_off channel=11 note=59 velocity=31 time=0
EXTRACT: note_off channel=11 note=71 velocity=95 time=0
EXTRACT: note_on channel=11 note=64 velocity=31 time=0
EXTRACT: note_on channel=11 note=76 velocity=95 time=0
EXTRACT: note_on channel=11 note=59 velocity=31 time=0
EXTRACT: note_on channel=11 note=71 velocity=95 time=0
EXTRACT: note_off channel=13 note=76 velocity=95 time=0
EXTRACT: note_off channel=4 note=64 velocity=95 time=0
EXTRACT: note_off channel=15 note=76 velocity=95 time=0
EXTRACT: note_off channel=15 note=64 velocity=95 time=0
EXTRACT: note_on channel=9 note=42 velocity=111 time=0
EXTRACT: note_off channel=6 note=64 velocity=95 time=0.16853925
EXTRACT: note_off channel=6 note=59 velocity=95 time=0
EXTRACT: note_on channel=6 note=64 velocity=95 time=0
EXTRACT: note_on channel=6 note=59 velocity=95 time=0
EXTRACT: note_off channel=11 note=64 velocity=31 time=0
EXTRACT: note_off channel=11 note=76 velocity=95 time=0
EXTRACT: note_off channel=11 note=59 velocity=31 time=0
EXTRACT: note_off channel=11 note=71 velocity=95 time=0
EXTRACT: note_on channel=11 note=64 velocity=31 time=0
EXTRACT: note_on channel=11 note=76 velocity=95 time=0
EXTRACT: note_on channel=11 note=59 velocity=31 time=0
EXTRACT: note_on channel=11 note=71 velocity=95 time=0
EXTRACT: note_on channel=13 note=71 velocity=95 time=0
EXTRACT: note_on channel=4 note=59 velocity=95 time=0
EXTRACT: note_on channel=15 note=71 velocity=95 time=0
EXTRACT: note_on channel=15 note=59 velocity=95 time=0
EXTRACT: note_off channel=9 note=42 velocity=111 time=0
EXTRACT: note_off channel=0 note=43 velocity=95 time=0.16853925
EXTRACT: note_on channel=0 note=52 velocity=95 time=0
EXTRACT: note_on channel=0 note=45 velocity=95 time=0
EXTRACT: note_on channel=2 note=52 velocity=95 time=0
EXTRACT: note_on channel=2 note=45 velocity=95 time=0
EXTRACT: note_off channel=6 note=64 velocity=95 time=0
EXTRACT: note_off channel=6 note=59 velocity=95 time=0
EXTRACT: note_on channel=6 note=64 velocity=95 time=0
EXTRACT: note_on channel=6 note=59 velocity=95 time=0
EXTRACT: note_off channel=11 note=64 velocity=31 time=0
EXTRACT: note_off channel=11 note=76 velocity=95 time=0
EXTRACT: note_off channel=11 note=59 velocity=31 time=0
EXTRACT: note_off channel=11 note=71 velocity=95 time=0
EXTRACT: note_on channel=11 note=64 velocity=31 time=0
EXTRACT: note_on channel=11 note=76 velocity=95 time=0
EXTRACT: note_on channel=11 note=59 velocity=31 time=0
EXTRACT: note_on channel=11 note=71 velocity=95 time=0
EXTRACT: note_off channel=8 note=31 velocity=127 time=0
EXTRACT: note_on channel=8 note=33 velocity=111 time=0
EXTRACT: note_off channel=13 note=71 velocity=95 time=0
EXTRACT: note_on channel=13 note=76 velocity=95 time=0
EXTRACT: note_off channel=4 note=59 velocity=95 time=0
EXTRACT: note_on channel=4 note=64 velocity=95 time=0
EXTRACT: note_off channel=15 note=71 velocity=95 time=0
EXTRACT: note_off channel=15 note=59 velocity=95 time=0
EXTRACT: note_on channel=15 note=76 velocity=95 time=0
EXTRACT: note_on channel=15 note=64 velocity=95 time=0
EXTRACT: note_on channel=9 note=56 velocity=95 time=0
EXTRACT: note_on channel=9 note=36 velocity=111 time=0
EXTRACT: note_on channel=9 note=42 velocity=111 time=0
EXTRACT: note_on channel=9 note=82 velocity=111 time=0
EXTRACT: note_off channel=6 note=64 velocity=95 time=0.16853925
EXTRACT: note_off channel=6 note=59 velocity=95 time=0
EXTRACT: note_on channel=6 note=64 velocity=95 time=0
EXTRACT: note_on channel=6 note=59 velocity=95 time=0
EXTRACT: note_off channel=11 note=64 velocity=31 time=0
EXTRACT: note_off channel=11 note=76 velocity=95 time=0
EXTRACT: note_off channel=11 note=59 velocity=31 time=0
EXTRACT: note_off channel=11 note=71 velocity=95 time=0
EXTRACT: note_on channel=11 note=64 velocity=31 time=0
EXTRACT: note_on channel=11 note=76 velocity=95 time=0
EXTRACT: note_on channel=11 note=59 velocity=31 time=0
EXTRACT: note_on channel=11 note=71 velocity=95 time=0
EXTRACT: note_off channel=13 note=76 velocity=95 time=0
EXTRACT: note_on channel=13 note=76 velocity=95 time=0
EXTRACT: note_off channel=4 note=64 velocity=95 time=0
EXTRACT: note_on channel=4 note=64 velocity=95 time=0
EXTRACT: note_off channel=15 note=76 velocity=95 time=0
EXTRACT: note_off channel=15 note=64 velocity=95 time=0
EXTRACT: note_on channel=15 note=76 velocity=95 time=0
EXTRACT: note_on channel=15 note=64 velocity=95 time=0
EXTRACT: note_off channel=9 note=56 velocity=95 time=0
EXTRACT: note_off channel=9 note=36 velocity=111 time=0
EXTRACT: note_off channel=9 note=42 velocity=111 time=0
EXTRACT: note_off channel=9 note=82 velocity=111 time=0
EXTRACT: note_off channel=0 note=52 velocity=95 time=0.16853925
EXTRACT: note_off channel=0 note=45 velocity=95 time=0
EXTRACT: note_on channel=0 note=52 velocity=95 time=0
EXTRACT: note_on channel=0 note=45 velocity=95 time=0
EXTRACT: note_off channel=2 note=52 velocity=95 time=0
EXTRACT: note_off channel=2 note=45 velocity=95 time=0
EXTRACT: note_on channel=2 note=52 velocity=95 time=0
EXTRACT: note_on channel=2 note=45 velocity=95 time=0
EXTRACT: note_off channel=6 note=64 velocity=95 time=0
EXTRACT: note_off channel=6 note=59 velocity=95 time=0
EXTRACT: note_on channel=6 note=64 velocity=95 time=0
EXTRACT: note_on channel=6 note=59 velocity=95 time=0
EXTRACT: note_off channel=11 note=64 velocity=31 time=0
EXTRACT: note_off channel=11 note=76 velocity=95 time=0
EXTRACT: note_off channel=11 note=59 velocity=31 time=0
EXTRACT: note_off channel=11 note=71 velocity=95 time=0
EXTRACT: note_on channel=11 note=64 velocity=31 time=0
EXTRACT: note_on channel=11 note=76 velocity=95 time=0
EXTRACT: note_on channel=11 note=59 velocity=31 time=0
EXTRACT: note_on channel=11 note=71 velocity=95 time=0
EXTRACT: note_off channel=8 note=33 velocity=111 time=0
EXTRACT: note_on channel=8 note=33 velocity=111 time=0
EXTRACT: note_off channel=13 note=76 velocity=95 time=0
EXTRACT: note_on channel=13 note=76 velocity=95 time=0
EXTRACT: note_off channel=4 note=64 velocity=95 time=0
EXTRACT: note_on channel=4 note=64 velocity=95 time=0
EXTRACT: note_off channel=15 note=76 velocity=95 time=0
EXTRACT: note_off channel=15 note=64 velocity=95 time=0
EXTRACT: note_on channel=15 note=76 velocity=95 time=0
EXTRACT: note_on channel=15 note=64 velocity=95 time=0
EXTRACT: note_on channel=9 note=36 velocity=111 time=0
EXTRACT: note_on channel=9 note=82 velocity=95 time=0
EXTRACT: note_on channel=9 note=42 velocity=111 time=0
EXTRACT: note_off channel=6 note=64 velocity=95 time=0.16853925
EXTRACT: note_off channel=6 note=59 velocity=95 time=0
EXTRACT: note_on channel=6 note=64 velocity=95 time=0
EXTRACT: note_on channel=6 note=59 velocity=95 time=0
EXTRACT: note_off channel=11 note=64 velocity=31 time=0
EXTRACT: note_off channel=11 note=76 velocity=95 time=0
EXTRACT: note_off channel=11 note=59 velocity=31 time=0
EXTRACT: note_off channel=11 note=71 velocity=95 time=0
EXTRACT: note_on channel=11 note=64 velocity=31 time=0
EXTRACT: note_on channel=11 note=76 velocity=95 time=0
EXTRACT: note_on channel=11 note=59 velocity=31 time=0
EXTRACT: note_on channel=11 note=71 velocity=95 time=0
EXTRACT: note_off channel=13 note=76 velocity=95 time=0
EXTRACT: note_on channel=13 note=76 velocity=95 time=0
EXTRACT: note_off channel=4 note=64 velocity=95 time=0
EXTRACT: note_on channel=4 note=64 velocity=95 time=0
EXTRACT: note_off channel=15 note=76 velocity=95 time=0
EXTRACT: note_off channel=15 note=64 velocity=95 time=0
EXTRACT: note_on channel=15 note=76 velocity=95 time=0
EXTRACT: note_on channel=15 note=64 velocity=95 time=0
EXTRACT: note_off channel=9 note=36 velocity=111 time=0
EXTRACT: note_off channel=9 note=82 velocity=95 time=0
EXTRACT: note_off channel=9 note=42 velocity=111 time=0
EXTRACT: note_off channel=0 note=52 velocity=95 time=0.16853925
EXTRACT: note_off channel=0 note=45 velocity=95 time=0
EXTRACT: note_off channel=2 note=52 velocity=95 time=0
EXTRACT: note_off channel=2 note=45 velocity=95 time=0
EXTRACT: note_off channel=6 note=64 velocity=95 time=0
EXTRACT: note_off channel=6 note=59 velocity=95 time=0
EXTRACT: note_on channel=6 note=64 velocity=95 time=0
EXTRACT: note_on channel=6 note=59 velocity=95 time=0
EXTRACT: note_off channel=11 note=64 velocity=31 time=0
EXTRACT: note_off channel=11 note=76 velocity=95 time=0
EXTRACT: note_off channel=11 note=59 velocity=31 time=0
EXTRACT: note_off channel=11 note=71 velocity=95 time=0
EXTRACT: note_on channel=11 note=64 velocity=31 time=0
EXTRACT: note_on channel=11 note=76 velocity=95 time=0
EXTRACT: note_on channel=11 note=59 velocity=31 time=0
EXTRACT: note_on channel=11 note=71 velocity=95 time=0
EXTRACT: note_off channel=8 note=33 velocity=111 time=0
EXTRACT: note_off channel=13 note=76 velocity=95 time=0
EXTRACT: note_on channel=13 note=76 velocity=95 time=0
EXTRACT: note_off channel=4 note=64 velocity=95 time=0
EXTRACT: note_on channel=4 note=64 velocity=95 time=0
EXTRACT: note_off channel=15 note=76 velocity=95 time=0
EXTRACT: note_off channel=15 note=64 velocity=95 time=0
EXTRACT: note_on channel=15 note=76 velocity=95 time=0
EXTRACT: note_on channel=15 note=64 velocity=95 time=0
EXTRACT: note_on channel=9 note=56 velocity=95 time=0
EXTRACT: note_on channel=9 note=38 velocity=127 time=0
EXTRACT: note_on channel=9 note=82 velocity=95 time=0
EXTRACT: note_on channel=9 note=42 velocity=111 time=0
EXTRACT: note_off channel=6 note=64 velocity=95 time=0.16853925
EXTRACT: note_off channel=6 note=59 velocity=95 time=0
EXTRACT: note_on channel=6 note=64 velocity=95 time=0
EXTRACT: note_on channel=6 note=59 velocity=95 time=0
EXTRACT: note_off channel=11 note=64 velocity=31 time=0
EXTRACT: note_off channel=11 note=76 velocity=95 time=0
EXTRACT: note_off channel=11 note=59 velocity=31 time=0
EXTRACT: note_off channel=11 note=71 velocity=95 time=0
EXTRACT: note_on channel=11 note=64 velocity=31 time=0
EXTRACT: note_on channel=11 note=76 velocity=95 time=0
EXTRACT: note_on channel=11 note=59 velocity=31 time=0
EXTRACT: note_on channel=11 note=71 velocity=95 time=0
EXTRACT: note_off channel=9 note=56 velocity=95 time=0
EXTRACT: note_off channel=9 note=38 velocity=127 time=0
EXTRACT: note_off channel=9 note=82 velocity=95 time=0
EXTRACT: note_off channel=9 note=42 velocity=111 time=0
EXTRACT: note_off channel=6 note=64 velocity=95 time=0.16853925
EXTRACT: note_off channel=6 note=59 velocity=95 time=0
EXTRACT: note_on channel=6 note=64 velocity=95 time=0
EXTRACT: note_on channel=6 note=59 velocity=95 time=0
EXTRACT: note_off channel=11 note=64 velocity=31 time=0
EXTRACT: note_off channel=11 note=76 velocity=95 time=0
EXTRACT: note_off channel=11 note=59 velocity=31 time=0
EXTRACT: note_off channel=11 note=71 velocity=95 time=0
EXTRACT: note_on channel=11 note=64 velocity=31 time=0
EXTRACT: note_on channel=11 note=76 velocity=95 time=0
EXTRACT: note_on channel=11 note=59 velocity=31 time=0
EXTRACT: note_on channel=11 note=71 velocity=95 time=0
EXTRACT: note_off channel=13 note=76 velocity=95 time=0
EXTRACT: note_on channel=13 note=76 velocity=95 time=0
EXTRACT: note_off channel=4 note=64 velocity=95 time=0
EXTRACT: note_on channel=4 note=64 velocity=95 time=0
EXTRACT: note_off channel=15 note=76 velocity=95 time=0
EXTRACT: note_off channel=15 note=64 velocity=95 time=0
EXTRACT: note_on channel=15 note=76 velocity=95 time=0
EXTRACT: note_on channel=15 note=64 velocity=95 time=0
EXTRACT: note_on channel=9 note=82 velocity=95 time=0
EXTRACT: note_on channel=9 note=42 velocity=127 time=0
EXTRACT: note_off channel=6 note=64 velocity=95 time=0.16853925
EXTRACT: note_off channel=6 note=59 velocity=95 time=0
EXTRACT: note_on channel=6 note=64 velocity=95 time=0
EXTRACT: note_on channel=6 note=59 velocity=95 time=0
EXTRACT: note_off channel=11 note=64 velocity=31 time=0
EXTRACT: note_off channel=11 note=76 velocity=95 time=0
EXTRACT: note_off channel=11 note=59 velocity=31 time=0
EXTRACT: note_off channel=11 note=71 velocity=95 time=0
EXTRACT: note_on channel=11 note=64 velocity=31 time=0
EXTRACT: note_on channel=11 note=76 velocity=95 time=0
EXTRACT: note_on channel=11 note=59 velocity=31 time=0
EXTRACT: note_on channel=11 note=71 velocity=95 time=0
EXTRACT: note_on channel=8 note=33 velocity=95 time=0
EXTRACT: note_off channel=13 note=76 velocity=95 time=0
EXTRACT: note_on channel=13 note=78 velocity=95 time=0
EXTRACT: note_off channel=4 note=64 velocity=95 time=0
EXTRACT: note_on channel=4 note=66 velocity=95 time=0
EXTRACT: note_off channel=15 note=76 velocity=95 time=0
EXTRACT: note_off channel=15 note=64 velocity=95 time=0
EXTRACT: note_on channel=15 note=78 velocity=95 time=0
EXTRACT: note_on channel=15 note=66 velocity=95 time=0
EXTRACT: note_off channel=9 note=82 velocity=95 time=0
EXTRACT: note_off channel=9 note=42 velocity=127 time=0
EXTRACT: note_on channel=9 note=82 velocity=79 time=0
EXTRACT: note_on channel=0 note=54 velocity=95 time=0.16853925
EXTRACT: note_on channel=0 note=47 velocity=95 time=0
EXTRACT: note_on channel=2 note=54 velocity=95 time=0
EXTRACT: note_on channel=2 note=47 velocity=95 time=0
EXTRACT: note_off channel=6 note=64 velocity=95 time=0
EXTRACT: note_off channel=6 note=59 velocity=95 time=0
EXTRACT: note_on channel=6 note=64 velocity=95 time=0
EXTRACT: note_on channel=6 note=59 velocity=95 time=0
EXTRACT: note_off channel=11 note=64 velocity=31 time=0
EXTRACT: note_off channel=11 note=76 velocity=95 time=0
EXTRACT: note_off channel=11 note=59 velocity=31 time=0
EXTRACT: note_off channel=11 note=71 velocity=95 time=0
EXTRACT: note_on channel=11 note=64 velocity=31 time=0
EXTRACT: note_on channel=11 note=76 velocity=95 time=0
EXTRACT: note_on channel=11 note=59 velocity=31 time=0
EXTRACT: note_on channel=11 note=71 velocity=95 time=0
EXTRACT: note_off channel=8 note=33 velocity=95 time=0
EXTRACT: note_on channel=8 note=35 velocity=111 time=0
EXTRACT: note_off channel=13 note=78 velocity=95 time=0
EXTRACT: note_on channel=13 note=79 velocity=95 time=0
EXTRACT: note_off channel=4 note=66 velocity=95 time=0
EXTRACT: note_on channel=4 note=67 velocity=95 time=0
EXTRACT: note_off channel=15 note=78 velocity=95 time=0
EXTRACT: note_off channel=15 note=66 velocity=95 time=0
EXTRACT: note_on channel=15 note=79 velocity=95 time=0
EXTRACT: note_on channel=15 note=67 velocity=95 time=0
EXTRACT: note_off channel=9 note=82 velocity=79 time=0
EXTRACT: note_on channel=9 note=56 velocity=95 time=0
EXTRACT: note_on channel=9 note=36 velocity=111 time=0
EXTRACT: note_on channel=9 note=42 velocity=127 time=0
EXTRACT: note_off channel=6 note=64 velocity=95 time=0.16853925
EXTRACT: note_off channel=6 note=59 velocity=95 time=0
EXTRACT: note_on channel=6 note=64 velocity=95 time=0
EXTRACT: note_on channel=6 note=59 velocity=95 time=0
EXTRACT: note_off channel=11 note=64 velocity=31 time=0
EXTRACT: note_off channel=11 note=76 velocity=95 time=0
EXTRACT: note_off channel=11 note=59 velocity=31 time=0
EXTRACT: note_off channel=11 note=71 velocity=95 time=0
EXTRACT: note_on channel=11 note=64 velocity=31 time=0
EXTRACT: note_on channel=11 note=76 velocity=95 time=0
EXTRACT: note_on channel=11 note=59 velocity=31 time=0
EXTRACT: note_on channel=11 note=71 velocity=95 time=0
EXTRACT: note_off channel=13 note=79 velocity=95 time=0
EXTRACT: note_on channel=13 note=78 velocity=95 time=0
EXTRACT: note_off channel=4 note=67 velocity=95 time=0
EXTRACT: note_on channel=4 note=66 velocity=95 time=0
EXTRACT: note_off channel=15 note=79 velocity=95 time=0
EXTRACT: note_off channel=15 note=67 velocity=95 time=0
EXTRACT: note_on channel=15 note=78 velocity=95 time=0
EXTRACT: note_on channel=15 note=66 velocity=95 time=0
EXTRACT: note_off channel=9 note=56 velocity=95 time=0
EXTRACT: note_off channel=9 note=36 velocity=111 time=0
EXTRACT: note_off channel=9 note=42 velocity=127 time=0
EXTRACT: note_on channel=9 note=82 velocity=95 time=0
EXTRACT: note_off channel=0 note=54 velocity=95 time=0.16853925
EXTRACT: note_off channel=0 note=47 velocity=95 time=0
EXTRACT: note_on channel=0 note=54 velocity=95 time=0
EXTRACT: note_on channel=0 note=47 velocity=95 time=0
EXTRACT: note_off channel=2 note=54 velocity=95 time=0
EXTRACT: note_off channel=2 note=47 velocity=95 time=0
EXTRACT: note_on channel=2 note=54 velocity=95 time=0
EXTRACT: note_on channel=2 note=47 velocity=95 time=0
EXTRACT: note_off channel=6 note=64 velocity=95 time=0
EXTRACT: note_off channel=6 note=59 velocity=95 time=0
EXTRACT: note_on channel=6 note=64 velocity=95 time=0
EXTRACT: note_on channel=6 note=59 velocity=95 time=0
EXTRACT: note_off channel=11 note=64 velocity=31 time=0
EXTRACT: note_off channel=11 note=76 velocity=95 time=0
EXTRACT: note_off channel=11 note=59 velocity=31 time=0
EXTRACT: note_off channel=11 note=71 velocity=95 time=0
EXTRACT: note_on channel=11 note=64 velocity=31 time=0
EXTRACT: note_on channel=11 note=76 velocity=95 time=0
EXTRACT: note_on channel=11 note=59 velocity=31 time=0
EXTRACT: note_on channel=11 note=71 velocity=95 time=0
EXTRACT: note_off channel=8 note=35 velocity=111 time=0
EXTRACT: note_on channel=8 note=35 velocity=111 time=0
EXTRACT: note_off channel=9 note=82 velocity=95 time=0
EXTRACT: note_on channel=9 note=36 velocity=111 time=0
EXTRACT: note_on channel=9 note=82 velocity=79 time=0
EXTRACT: note_on channel=9 note=42 velocity=111 time=0
EXTRACT: note_off channel=6 note=64 velocity=95 time=0.16853925
EXTRACT: note_off channel=6 note=59 velocity=95 time=0
EXTRACT: note_on channel=6 note=64 velocity=95 time=0
EXTRACT: note_on channel=6 note=59 velocity=95 time=0
EXTRACT: note_off channel=11 note=64 velocity=31 time=0
EXTRACT: note_off channel=11 note=76 velocity=95 time=0
EXTRACT: note_off channel=11 note=59 velocity=31 time=0
EXTRACT: note_off channel=11 note=71 velocity=95 time=0
EXTRACT: note_on channel=11 note=64 velocity=31 time=0
EXTRACT: note_on channel=11 note=76 velocity=95 time=0
EXTRACT: note_on channel=11 note=59 velocity=31 time=0
EXTRACT: note_on channel=11 note=71 velocity=95 time=0
EXTRACT: note_off channel=13 note=78 velocity=95 time=0
EXTRACT: note_on channel=13 note=79 velocity=95 time=0
EXTRACT: note_off channel=4 note=66 velocity=95 time=0
EXTRACT: note_on channel=4 note=67 velocity=95 time=0
EXTRACT: note_off channel=15 note=78 velocity=95 time=0
EXTRACT: note_off channel=15 note=66 velocity=95 time=0
EXTRACT: note_on channel=15 note=79 velocity=95 time=0
EXTRACT: note_on channel=15 note=67 velocity=95 time=0
EXTRACT: note_off channel=9 note=36 velocity=111 time=0
EXTRACT: note_off channel=9 note=82 velocity=79 time=0
EXTRACT: note_off channel=9 note=42 velocity=111 time=0
EXTRACT: note_off channel=0 note=54 velocity=95 time=0.16853925
EXTRACT: note_off channel=0 note=47 velocity=95 time=0
EXTRACT: note_off channel=2 note=54 velocity=95 time=0
EXTRACT: note_off channel=2 note=47 velocity=95 time=0
EXTRACT: note_off channel=6 note=64 velocity=95 time=0
EXTRACT: note_off channel=6 note=59 velocity=95 time=0
EXTRACT: note_on channel=6 note=64 velocity=95 time=0
EXTRACT: note_on channel=6 note=59 velocity=95 time=0
EXTRACT: note_off channel=11 note=64 velocity=31 time=0
EXTRACT: note_off channel=11 note=76 velocity=95 time=0
EXTRACT: note_off channel=11 note=59 velocity=31 time=0
EXTRACT: note_off channel=11 note=71 velocity=95 time=0
EXTRACT: note_on channel=11 note=64 velocity=31 time=0
EXTRACT: note_on channel=11 note=76 velocity=95 time=0
EXTRACT: note_on channel=11 note=59 velocity=31 time=0
EXTRACT: note_on channel=11 note=71 velocity=95 time=0
EXTRACT: note_off channel=8 note=35 velocity=111 time=0
EXTRACT: note_on channel=9 note=42 velocity=127 time=0
EXTRACT: note_on channel=9 note=38 velocity=111 time=0
EXTRACT: note_on channel=9 note=56 velocity=95 time=0
EXTRACT: note_on channel=9 note=82 velocity=95 time=0
EXTRACT: note_off channel=6 note=64 velocity=95 time=0.16853925
EXTRACT: note_off channel=6 note=59 velocity=95 time=0
EXTRACT: note_on channel=6 note=64 velocity=95 time=0
EXTRACT: note_on channel=6 note=59 velocity=95 time=0
EXTRACT: note_off channel=11 note=64 velocity=31 time=0
EXTRACT: note_off channel=11 note=76 velocity=95 time=0
EXTRACT: note_off channel=11 note=59 velocity=31 time=0
EXTRACT: note_off channel=11 note=71 velocity=95 time=0
EXTRACT: note_on channel=11 note=64 velocity=31 time=0
EXTRACT: note_on channel=11 note=76 velocity=95 time=0
EXTRACT: note_on channel=11 note=59 velocity=31 time=0
EXTRACT: note_on channel=11 note=71 velocity=95 time=0
EXTRACT: note_off channel=13 note=79 velocity=95 time=0
EXTRACT: note_on channel=13 note=78 velocity=95 time=0
EXTRACT: note_off channel=4 note=67 velocity=95 time=0
EXTRACT: note_on channel=4 note=66 velocity=95 time=0
EXTRACT: note_off channel=15 note=79 velocity=95 time=0
EXTRACT: note_off channel=15 note=67 velocity=95 time=0
EXTRACT: note_on channel=15 note=78 velocity=95 time=0
EXTRACT: note_on channel=15 note=66 velocity=95 time=0
EXTRACT: note_off channel=9 note=42 velocity=127 time=0
EXTRACT: note_off channel=9 note=38 velocity=111 time=0
EXTRACT: note_off channel=9 note=56 velocity=95 time=0
EXTRACT: note_off channel=9 note=82 velocity=95 time=0
EXTRACT: note_off channel=6 note=64 velocity=95 time=0.16853925
EXTRACT: note_off channel=6 note=59 velocity=95 time=0
EXTRACT: note_on channel=6 note=64 velocity=95 time=0
EXTRACT: note_on channel=6 note=59 velocity=95 time=0
EXTRACT: note_off channel=11 note=64 velocity=31 time=0
EXTRACT: note_off channel=11 note=76 velocity=95 time=0
EXTRACT: note_off channel=11 note=59 velocity=31 time=0
EXTRACT: note_off channel=11 note=71 velocity=95 time=0
EXTRACT: note_on channel=11 note=64 velocity=31 time=0
EXTRACT: note_on channel=11 note=76 velocity=95 time=0
EXTRACT: note_on channel=11 note=59 velocity=31 time=0
EXTRACT: note_on channel=11 note=71 velocity=95 time=0
EXTRACT: note_off channel=13 note=78 velocity=95 time=0
EXTRACT: note_off channel=4 note=66 velocity=95 time=0
EXTRACT: note_off channel=15 note=78 velocity=95 time=0
EXTRACT: note_off channel=15 note=66 velocity=95 time=0
EXTRACT: note_on channel=9 note=41 velocity=127 time=0
EXTRACT: note_on channel=9 note=42 velocity=127 time=0
EXTRACT: note_off channel=6 note=64 velocity=95 time=0.16853925
EXTRACT: note_off channel=6 note=59 velocity=95 time=0
EXTRACT: note_on channel=6 note=64 velocity=95 time=0
EXTRACT: note_on channel=6 note=59 velocity=95 time=0
EXTRACT: note_off channel=11 note=64 velocity=31 time=0
EXTRACT: note_off channel=11 note=76 velocity=95 time=0
EXTRACT: note_off channel=11 note=59 velocity=31 time=0
EXTRACT: note_off channel=11 note=71 velocity=95 time=0
EXTRACT: note_on channel=11 note=64 velocity=31 time=0
EXTRACT: note_on channel=11 note=76 velocity=95 time=0
EXTRACT: note_on channel=11 note=59 velocity=31 time=0
EXTRACT: note_on channel=11 note=71 velocity=95 time=0
EXTRACT: note_off channel=9 note=41 velocity=127 time=0
EXTRACT: note_off channel=9 note=42 velocity=127 time=0
EXTRACT: note_on channel=0 note=47 velocity=95 time=0.16853925
EXTRACT: note_on channel=0 note=40 velocity=95 time=0
EXTRACT: note_on channel=2 note=47 velocity=95 time=0
EXTRACT: note_on channel=2 note=40 velocity=95 time=0
EXTRACT: note_off channel=6 note=64 velocity=95 time=0
EXTRACT: note_off channel=6 note=59 velocity=95 time=0
EXTRACT: note_on channel=6 note=64 velocity=95 time=0
EXTRACT: note_on channel=6 note=59 velocity=95 time=0
EXTRACT: note_off channel=11 note=64 velocity=31 time=0
EXTRACT: note_off channel=11 note=76 velocity=95 time=0
EXTRACT: note_off channel=11 note=59 velocity=31 time=0
EXTRACT: note_off channel=11 note=71 velocity=95 time=0
EXTRACT: note_on channel=11 note=64 velocity=31 time=0
EXTRACT: note_on channel=11 note=76 velocity=95 time=0
EXTRACT: note_on channel=11 note=59 velocity=31 time=0
EXTRACT: note_on channel=11 note=71 velocity=95 time=0
EXTRACT: note_on channel=8 note=28 velocity=111 time=0
EXTRACT: note_on channel=13 note=76 velocity=95 time=0
EXTRACT: note_on channel=4 note=64 velocity=95 time=0
EXTRACT: note_on channel=15 note=76 velocity=95 time=0
EXTRACT: note_on channel=15 note=64 velocity=95 time=0
EXTRACT: note_on channel=9 note=82 velocity=111 time=0
EXTRACT: note_on channel=9 note=42 velocity=127 time=0
EXTRACT: note_on channel=9 note=36 velocity=111 time=0
EXTRACT: note_on channel=9 note=56 velocity=95 time=0
EXTRACT: note_off channel=6 note=64 velocity=95 time=0.16853925
EXTRACT: note_off channel=6 note=59 velocity=95 time=0
EXTRACT: note_on channel=6 note=64 velocity=95 time=0
EXTRACT: note_on channel=6 note=59 velocity=95 time=0
EXTRACT: note_off channel=11 note=64 velocity=31 time=0
EXTRACT: note_off channel=11 note=76 velocity=95 time=0
EXTRACT: note_off channel=11 note=59 velocity=31 time=0
EXTRACT: note_off channel=11 note=71 velocity=95 time=0
EXTRACT: note_on channel=11 note=64 velocity=31 time=0
EXTRACT: note_on channel=11 note=76 velocity=95 time=0
EXTRACT: note_on channel=11 note=59 velocity=31 time=0
EXTRACT: note_on channel=11 note=71 velocity=95 time=0
EXTRACT: note_off channel=9 note=82 velocity=111 time=0
EXTRACT: note_off channel=9 note=42 velocity=127 time=0
EXTRACT: note_off channel=9 note=36 velocity=111 time=0
EXTRACT: note_off channel=9 note=56 velocity=95 time=0
EXTRACT: note_off channel=0 note=47 velocity=95 time=0.16853925
EXTRACT: note_off channel=0 note=40 velocity=95 time=0
EXTRACT: note_on channel=0 note=47 velocity=95 time=0
EXTRACT: note_on channel=0 note=40 velocity=95 time=0
EXTRACT: note_off channel=2 note=47 velocity=95 time=0
EXTRACT: note_off channel=2 note=40 velocity=95 time=0
EXTRACT: note_on channel=2 note=47 velocity=95 time=0
EXTRACT: note_on channel=2 note=40 velocity=95 time=0
EXTRACT: note_off channel=6 note=64 velocity=95 time=0
EXTRACT: note_off channel=6 note=59 velocity=95 time=0
EXTRACT: note_on channel=6 note=64 velocity=95 time=0
EXTRACT: note_on channel=6 note=59 velocity=95 time=0
EXTRACT: note_off channel=11 note=64 velocity=31 time=0
EXTRACT: note_off channel=11 note=76 velocity=95 time=0
EXTRACT: note_off channel=11 note=59 velocity=31 time=0
EXTRACT: note_off channel=11 note=71 velocity=95 time=0
EXTRACT: note_on channel=11 note=64 velocity=31 time=0
EXTRACT: note_on channel=11 note=76 velocity=95 time=0
EXTRACT: note_on channel=11 note=59 velocity=31 time=0
EXTRACT: note_on channel=11 note=71 velocity=95 time=0
EXTRACT: note_off channel=8 note=28 velocity=111 time=0
EXTRACT: note_on channel=8 note=28 velocity=111 time=0
EXTRACT: note_on channel=9 note=36 velocity=111 time=0
EXTRACT: note_on channel=9 note=42 velocity=111 time=0
EXTRACT: note_off channel=6 note=64 velocity=95 time=0.16853925
EXTRACT: note_off channel=6 note=59 velocity=95 time=0
EXTRACT: note_on channel=6 note=64 velocity=95 time=0
EXTRACT: note_on channel=6 note=59 velocity=95 time=0
EXTRACT: note_off channel=11 note=64 velocity=31 time=0
EXTRACT: note_off channel=11 note=76 velocity=95 time=0
EXTRACT: note_off channel=11 note=59 velocity=31 time=0
EXTRACT: note_off channel=11 note=71 velocity=95 time=0
EXTRACT: note_on channel=11 note=64 velocity=31 time=0
EXTRACT: note_on channel=11 note=76 velocity=95 time=0
EXTRACT: note_on channel=11 note=59 velocity=31 time=0
EXTRACT: note_on channel=11 note=71 velocity=95 time=0
EXTRACT: note_off channel=9 note=36 velocity=111 time=0
EXTRACT: note_off channel=9 note=42 velocity=111 time=0
EXTRACT: note_off channel=0 note=47 velocity=95 time=0.16853925
EXTRACT: note_off channel=0 note=40 velocity=95 time=0
EXTRACT: pitchwheel channel=1 pitch=0 time=0
EXTRACT: note_on channel=1 note=55 velocity=95 time=0
EXTRACT: note_off channel=2 note=47 velocity=95 time=0
EXTRACT: note_off channel=2 note=40 velocity=95 time=0
EXTRACT: note_off channel=6 note=64 velocity=95 time=0
EXTRACT: note_off channel=6 note=59 velocity=95 time=0
EXTRACT: note_on channel=6 note=64 velocity=95 time=0
EXTRACT: note_on channel=6 note=59 velocity=95 time=0
EXTRACT: note_off channel=11 note=64 velocity=31 time=0
EXTRACT: note_off channel=11 note=76 velocity=95 time=0
EXTRACT: note_off channel=11 note=59 velocity=31 time=0
EXTRACT: note_off channel=11 note=71 velocity=95 time=0
EXTRACT: note_on channel=11 note=64 velocity=31 time=0
EXTRACT: note_on channel=11 note=76 velocity=95 time=0
EXTRACT: note_on channel=11 note=59 velocity=31 time=0
EXTRACT: note_on channel=11 note=71 velocity=95 time=0
EXTRACT: note_off channel=8 note=28 velocity=111 time=0
EXTRACT: note_off channel=13 note=76 velocity=95 time=0
EXTRACT: note_on channel=13 note=79 velocity=95 time=0
EXTRACT: note_off channel=4 note=64 velocity=95 time=0
EXTRACT: note_on channel=4 note=67 velocity=95 time=0
EXTRACT: note_off channel=15 note=76 velocity=95 time=0
EXTRACT: note_off channel=15 note=64 velocity=95 time=0
EXTRACT: note_on channel=15 note=79 velocity=95 time=0
EXTRACT: note_on channel=15 note=67 velocity=95 time=0
EXTRACT: note_on channel=9 note=56 velocity=95 time=0
EXTRACT: note_on channel=9 note=38 velocity=111 time=0
EXTRACT: note_on channel=9 note=82 velocity=95 time=0
EXTRACT: note_on channel=9 note=42 velocity=111 time=0
EXTRACT: pitchwheel channel=1 pitch=0 time=0.1123595
EXTRACT: note_off channel=6 note=64 velocity=95 time=0.05617975
EXTRACT: note_off channel=6 note=59 velocity=95 time=0
EXTRACT: note_on channel=6 note=64 velocity=95 time=0
EXTRACT: note_on channel=6 note=59 velocity=95 time=0
EXTRACT: note_off channel=11 note=64 velocity=31 time=0
EXTRACT: note_off channel=11 note=76 velocity=95 time=0
EXTRACT: note_off channel=11 note=59 velocity=31 time=0
EXTRACT: note_off channel=11 note=71 velocity=95 time=0
EXTRACT: note_on channel=11 note=64 velocity=31 time=0
EXTRACT: note_on channel=11 note=76 velocity=95 time=0
EXTRACT: note_on channel=11 note=59 velocity=31 time=0
EXTRACT: note_on channel=11 note=71 velocity=95 time=0
EXTRACT: note_off channel=9 note=56 velocity=95 time=0
EXTRACT: note_off channel=9 note=38 velocity=111 time=0
EXTRACT: note_off channel=9 note=82 velocity=95 time=0
EXTRACT: note_off channel=9 note=42 velocity=111 time=0
EXTRACT: pitchwheel channel=1 pitch=128 time=0.05617975
EXTRACT: pitchwheel channel=1 pitch=256 time=0.1123595
EXTRACT: pitchwheel channel=1 pitch=256 time=0
EXTRACT: note_off channel=6 note=64 velocity=95 time=0
EXTRACT: note_off channel=6 note=59 velocity=95 time=0
EXTRACT: note_on channel=6 note=64 velocity=95 time=0
EXTRACT: note_on channel=6 note=59 velocity=95 time=0
EXTRACT: note_off channel=11 note=64 velocity=31 time=0
EXTRACT: note_off channel=11 note=76 velocity=95 time=0
EXTRACT: note_off channel=11 note=59 velocity=31 time=0
EXTRACT: note_off channel=11 note=71 velocity=95 time=0
EXTRACT: note_on channel=11 note=64 velocity=31 time=0
EXTRACT: note_on channel=11 note=76 velocity=95 time=0
EXTRACT: note_on channel=11 note=59 velocity=31 time=0
EXTRACT: note_on channel=11 note=71 velocity=95 time=0
EXTRACT: note_on channel=9 note=82 velocity=95 time=0
EXTRACT: note_on channel=9 note=42 velocity=111 time=0
EXTRACT: note_off channel=6 note=64 velocity=95 time=0.16853925
EXTRACT: note_off channel=6 note=59 velocity=95 time=0
EXTRACT: note_on channel=6 note=64 velocity=95 time=0
EXTRACT: note_on channel=6 note=59 velocity=95 time=0
EXTRACT: note_off channel=11 note=64 velocity=31 time=0
EXTRACT: note_off channel=11 note=76 velocity=95 time=0
EXTRACT: note_off channel=11 note=59 velocity=31 time=0
EXTRACT: note_off channel=11 note=71 velocity=95 time=0
EXTRACT: note_on channel=11 note=64 velocity=31 time=0
EXTRACT: note_on channel=11 note=76 velocity=95 time=0
EXTRACT: note_on channel=11 note=59 velocity=31 time=0
EXTRACT: note_on channel=11 note=71 velocity=95 time=0
EXTRACT: note_on channel=8 note=28 velocity=95 time=0
EXTRACT: note_off channel=9 note=82 velocity=95 time=0
EXTRACT: note_off channel=9 note=42 velocity=111 time=0
EXTRACT: note_on channel=9 note=82 velocity=79 time=0
EXTRACT: pitchwheel channel=1 pitch=256 time=0.1123595
EXTRACT: pitchwheel channel=1 pitch=128 time=0.028089875
EXTRACT: pitchwheel channel=1 pitch=0 time=0.028089875
EXTRACT: pitchwheel channel=1 pitch=0 time=0
EXTRACT: pitchwheel channel=1 pitch=0 time=0
EXTRACT: note_off channel=1 note=55 velocity=95 time=0
EXTRACT: note_on channel=0 note=47 velocity=95 time=0
EXTRACT: note_on channel=0 note=40 velocity=95 time=0
EXTRACT: note_on channel=2 note=47 velocity=95 time=0
EXTRACT: note_on channel=2 note=40 velocity=95 time=0
EXTRACT: note_off channel=6 note=64 velocity=95 time=0
EXTRACT: note_off channel=6 note=59 velocity=95 time=0
EXTRACT: note_on channel=6 note=64 velocity=95 time=0
EXTRACT: note_on channel=6 note=59 velocity=95 time=0
EXTRACT: note_off channel=11 note=64 velocity=31 time=0
EXTRACT: note_off channel=11 note=76 velocity=95 time=0
EXTRACT: note_off channel=11 note=59 velocity=31 time=0
EXTRACT: note_off channel=11 note=71 velocity=95 time=0
EXTRACT: note_on channel=11 note=64 velocity=31 time=0
EXTRACT: note_on channel=11 note=76 velocity=95 time=0
EXTRACT: note_on channel=11 note=59 velocity=31 time=0
EXTRACT: note_on channel=11 note=71 velocity=95 time=0
EXTRACT: note_off channel=8 note=28 velocity=95 time=0
EXTRACT: note_on channel=8 note=28 velocity=111 time=0
EXTRACT: note_off channel=13 note=79 velocity=95 time=0
EXTRACT: note_on channel=13 note=76 velocity=95 time=0
EXTRACT: note_off channel=4 note=67 velocity=95 time=0
EXTRACT: note_on channel=4 note=64 velocity=95 time=0
EXTRACT: note_off channel=15 note=79 velocity=95 time=0
EXTRACT: note_off channel=15 note=67 velocity=95 time=0
EXTRACT: note_on channel=15 note=76 velocity=95 time=0
EXTRACT: note_on channel=15 note=64 velocity=95 time=0
EXTRACT: note_off channel=9 note=82 velocity=79 time=0
EXTRACT: note_on channel=9 note=56 velocity=95 time=0
EXTRACT: note_on channel=9 note=36 velocity=111 time=0
EXTRACT: note_on channel=9 note=42 velocity=111 time=0
EXTRACT: note_off channel=6 note=64 velocity=95 time=0.16853925
EXTRACT: note_off channel=6 note=59 velocity=95 time=0
EXTRACT: note_on channel=6 note=64 velocity=95 time=0
EXTRACT: note_on channel=6 note=59 velocity=95 time=0
EXTRACT: note_off channel=11 note=64 velocity=31 time=0
EXTRACT: note_off channel=11 note=76 velocity=95 time=0
EXTRACT: note_off channel=11 note=59 velocity=31 time=0
EXTRACT: note_off channel=11 note=71 velocity=95 time=0
EXTRACT: note_on channel=11 note=64 velocity=31 time=0
EXTRACT: note_on channel=11 note=76 velocity=95 time=0
EXTRACT: note_on channel=11 note=59 velocity=31 time=0
EXTRACT: note_on channel=11 note=71 velocity=95 time=0
EXTRACT: note_off channel=13 note=76 velocity=95 time=0
EXTRACT: note_off channel=4 note=64 velocity=95 time=0
EXTRACT: note_off channel=15 note=76 velocity=95 time=0
EXTRACT: note_off channel=15 note=64 velocity=95 time=0
EXTRACT: note_off channel=9 note=56 velocity=95 time=0
EXTRACT: note_off channel=9 note=36 velocity=111 time=0
EXTRACT: note_off channel=9 note=42 velocity=111 time=0
EXTRACT: note_on channel=9 note=82 velocity=95 time=0
EXTRACT: note_off channel=0 note=47 velocity=95 time=0.16853925
EXTRACT: note_off channel=0 note=40 velocity=95 time=0
EXTRACT: note_on channel=0 note=47 velocity=95 time=0
EXTRACT: note_on channel=0 note=40 velocity=95 time=0
EXTRACT: note_off channel=2 note=47 velocity=95 time=0
EXTRACT: note_off channel=2 note=40 velocity=95 time=0
EXTRACT: note_on channel=2 note=47 velocity=95 time=0
EXTRACT: note_on channel=2 note=40 velocity=95 time=0
EXTRACT: note_off channel=6 note=64 velocity=95 time=0
EXTRACT: note_off channel=6 note=59 velocity=95 time=0
EXTRACT: note_on channel=6 note=64 velocity=95 time=0
EXTRACT: note_on channel=6 note=59 velocity=95 time=0
EXTRACT: note_off channel=11 note=64 velocity=31 time=0
EXTRACT: note_off channel=11 note=76 velocity=95 time=0
EXTRACT: note_off channel=11 note=59 velocity=31 time=0
EXTRACT: note_off channel=11 note=71 velocity=95 time=0
EXTRACT: note_on channel=11 note=64 velocity=31 time=0
EXTRACT: note_on channel=11 note=76 velocity=95 time=0
EXTRACT: note_on channel=11 note=59 velocity=31 time=0
EXTRACT: note_on channel=11 note=71 velocity=95 time=0
EXTRACT: note_off channel=8 note=28 velocity=111 time=0
EXTRACT: note_on channel=8 note=28 velocity=111 time=0
EXTRACT: note_on channel=13 note=74 velocity=95 time=0
EXTRACT: note_on channel=4 note=62 velocity=95 time=0
EXTRACT: note_on channel=15 note=74 velocity=95 time=0
EXTRACT: note_on channel=15 note=62 velocity=95 time=0
EXTRACT: note_off channel=9 note=82 velocity=95 time=0
EXTRACT: note_on channel=9 note=42 velocity=111 time=0
EXTRACT: note_on channel=9 note=36 velocity=111 time=0
EXTRACT: note_on channel=9 note=82 velocity=79 time=0
EXTRACT: note_off channel=6 note=64 velocity=95 time=0.16853925
EXTRACT: note_off channel=6 note=59 velocity=95 time=0
EXTRACT: note_on channel=6 note=64 velocity=95 time=0
EXTRACT: note_on channel=6 note=59 velocity=95 time=0
EXTRACT: note_off channel=11 note=64 velocity=31 time=0
EXTRACT: note_off channel=11 note=76 velocity=95 time=0
EXTRACT: note_off channel=11 note=59 velocity=31 time=0
EXTRACT: note_off channel=11 note=71 velocity=95 time=0
EXTRACT: note_on channel=11 note=64 velocity=31 time=0
EXTRACT: note_on channel=11 note=76 velocity=95 time=0
EXTRACT: note_on channel=11 note=59 velocity=31 time=0
EXTRACT: note_on channel=11 note=71 velocity=95 time=0
EXTRACT: note_off channel=13 note=74 velocity=95 time=0
EXTRACT: note_on channel=13 note=76 velocity=95 time=0
EXTRACT: note_off channel=4 note=62 velocity=95 time=0
EXTRACT: note_on channel=4 note=64 velocity=95 time=0
EXTRACT: note_off channel=15 note=74 velocity=95 time=0
EXTRACT: note_off channel=15 note=62 velocity=95 time=0
EXTRACT: note_on channel=15 note=76 velocity=95 time=0
EXTRACT: note_on channel=15 note=64 velocity=95 time=0
EXTRACT: note_off channel=9 note=42 velocity=111 time=0
EXTRACT: note_off channel=9 note=36 velocity=111 time=0
EXTRACT: note_off channel=9 note=82 velocity=79 time=0
EXTRACT: note_off channel=0 note=47 velocity=95 time=0.16853925
EXTRACT: note_off channel=0 note=40 velocity=95 time=0
EXTRACT: note_off channel=2 note=47 velocity=95 time=0
EXTRACT: note_off channel=2 note=40 velocity=95 time=0
EXTRACT: note_off channel=6 note=64 velocity=95 time=0
EXTRACT: note_off channel=6 note=59 velocity=95 time=0
EXTRACT: note_on channel=6 note=64 velocity=95 time=0
EXTRACT: note_on channel=6 note=59 velocity=95 time=0
EXTRACT: note_off channel=11 note=64 velocity=31 time=0
EXTRACT: note_off channel=11 note=76 velocity=95 time=0
EXTRACT: note_off channel=11 note=59 velocity=31 time=0
EXTRACT: note_off channel=11 note=71 velocity=95 time=0
EXTRACT: note_on channel=11 note=64 velocity=31 time=0
EXTRACT: note_on channel=11 note=76 velocity=95 time=0
EXTRACT: note_on channel=11 note=59 velocity=31 time=0
EXTRACT: note_on channel=11 note=71 velocity=95 time=0
EXTRACT: note_off channel=8 note=28 velocity=111 time=0
EXTRACT: note_on channel=9 note=56 velocity=95 time=0
EXTRACT: note_on channel=9 note=42 velocity=111 time=0
EXTRACT: note_on channel=9 note=38 velocity=127 time=0
EXTRACT: note_on channel=9 note=82 velocity=95 time=0
EXTRACT: note_on channel=0 note=43 velocity=95 time=0.16853925
EXTRACT: note_off channel=6 note=64 velocity=95 time=0
EXTRACT: note_off channel=6 note=59 velocity=95 time=0
EXTRACT: note_on channel=6 note=64 velocity=95 time=0
EXTRACT: note_on channel=6 note=59 velocity=95 time=0
EXTRACT: note_off channel=11 note=64 velocity=31 time=0
EXTRACT: note_off channel=11 note=76 velocity=95 time=0
EXTRACT: note_off channel=11 note=59 velocity=31 time=0
EXTRACT: note_off channel=11 note=71 velocity=95 time=0
EXTRACT: note_on channel=11 note=64 velocity=31 time=0
EXTRACT: note_on channel=11 note=76 velocity=95 time=0
EXTRACT: note_on channel=11 note=59 velocity=31 time=0
EXTRACT: note_on channel=11 note=71 velocity=95 time=0
EXTRACT: note_on channel=8 note=31 velocity=127 time=0
EXTRACT: note_off channel=9 note=56 velocity=95 time=0
EXTRACT: note_off channel=9 note=42 velocity=111 time=0
EXTRACT: note_off channel=9 note=38 velocity=127 time=0
EXTRACT: note_off channel=9 note=82 velocity=95 time=0
EXTRACT: note_off channel=6 note=64 velocity=95 time=0.16853925
EXTRACT: note_off channel=6 note=59 velocity=95 time=0
EXTRACT: note_on channel=6 note=64 velocity=95 time=0
EXTRACT: note_on channel=6 note=59 velocity=95 time=0
EXTRACT: note_off channel=11 note=64 velocity=31 time=0
EXTRACT: note_off channel=11 note=76 velocity=95 time=0
EXTRACT: note_off channel=11 note=59 velocity=31 time=0
EXTRACT: note_off channel=11 note=71 velocity=95 time=0
EXTRACT: note_on channel=11 note=64 velocity=31 time=0
EXTRACT: note_on channel=11 note=76 velocity=95 time=0
EXTRACT: note_on channel=11 note=59 velocity=31 time=0
EXTRACT: note_on channel=11 note=71 velocity=95 time=0
EXTRACT: note_off channel=13 note=76 velocity=95 time=0
EXTRACT: note_off channel=4 note=64 velocity=95 time=0
EXTRACT: note_off channel=15 note=76 velocity=95 time=0
EXTRACT: note_off channel=15 note=64 velocity=95 time=0
EXTRACT: note_on channel=9 note=42 velocity=111 time=0
EXTRACT: note_off channel=6 note=64 velocity=95 time=0.16853925
EXTRACT: note_off channel=6 note=59 velocity=95 time=0
EXTRACT: note_on channel=6 note=64 velocity=95 time=0
EXTRACT: note_on channel=6 note=59 velocity=95 time=0
EXTRACT: note_off channel=11 note=64 velocity=31 time=0
EXTRACT: note_off channel=11 note=76 velocity=95 time=0
EXTRACT: note_off channel=11 note=59 velocity=31 time=0
EXTRACT: note_off channel=11 note=71 velocity=95 time=0
EXTRACT: note_on channel=11 note=64 velocity=31 time=0
EXTRACT: note_on channel=11 note=76 velocity=95 time=0
EXTRACT: note_on channel=11 note=59 velocity=31 time=0
EXTRACT: note_on channel=11 note=71 velocity=95 time=0
EXTRACT: note_on channel=13 note=71 velocity=95 time=0
EXTRACT: note_on channel=4 note=59 velocity=95 time=0
EXTRACT: note_on channel=15 note=71 velocity=95 time=0
EXTRACT: note_on channel=15 note=59 velocity=95 time=0
EXTRACT: note_off channel=9 note=42 velocity=111 time=0
EXTRACT: note_off channel=0 note=43 velocity=95 time=0
EXTRACT: note_on channel=0 note=52 velocity=95 time=0
EXTRACT: note_on channel=0 note=45 velocity=95 time=0
EXTRACT: note_on channel=2 note=52 velocity=95 time=0
EXTRACT: note_on channel=2 note=45 velocity=95 time=0
EXTRACT: note_off channel=6 note=64 velocity=95 time=0
EXTRACT: note_off channel=6 note=59 velocity=95 time=0
EXTRACT: note_on channel=6 note=64 velocity=95 time=0
EXTRACT: note_on channel=6 note=59 velocity=95 time=0
EXTRACT: note_off channel=11 note=64 velocity=31 time=0
EXTRACT: note_off channel=11 note=76 velocity=95 time=0
EXTRACT: note_off channel=11 note=59 velocity=31 time=0
EXTRACT: note_off channel=11 note=71 velocity=95 time=0
EXTRACT: note_on channel=11 note=64 velocity=31 time=0
EXTRACT: note_on channel=11 note=76 velocity=95 time=0
EXTRACT: note_on channel=11 note=59 velocity=31 time=0
EXTRACT: note_on channel=11 note=71 velocity=95 time=0
EXTRACT: note_off channel=8 note=31 velocity=127 time=0
EXTRACT: note_on channel=8 note=33 velocity=111 time=0
EXTRACT: note_off channel=13 note=71 velocity=95 time=0
EXTRACT: note_on channel=13 note=76 velocity=95 time=0
EXTRACT: note_off channel=4 note=59 velocity=95 time=0
EXTRACT: note_on channel=4 note=64 velocity=95 time=0
EXTRACT: note_off channel=15 note=71 velocity=95 time=0
EXTRACT: note_off channel=15 note=59 velocity=95 time=0
EXTRACT: note_on channel=15 note=76 velocity=95 time=0
EXTRACT: note_on channel=15 note=64 velocity=95 time=0
EXTRACT: note_on channel=9 note=82 velocity=111 time=0
EXTRACT: note_on channel=9 note=42 velocity=111 time=0
EXTRACT: note_on channel=9 note=56 velocity=95 time=0
EXTRACT: note_on channel=9 note=36 velocity=111 time=0
EXTRACT: note_off channel=6 note=64 velocity=95 time=0.16853925
EXTRACT: note_off channel=6 note=59 velocity=95 time=0
EXTRACT: note_on channel=6 note=64 velocity=95 time=0
EXTRACT: note_on channel=6 note=59 velocity=95 time=0
EXTRACT: note_off channel=11 note=64 velocity=31 time=0
EXTRACT: note_off channel=11 note=76 velocity=95 time=0
EXTRACT: note_off channel=11 note=59 velocity=31 time=0
EXTRACT: note_off channel=11 note=71 velocity=95 time=0
EXTRACT: note_on channel=11 note=64 velocity=31 time=0
EXTRACT: note_on channel=11 note=76 velocity=95 time=0
EXTRACT: note_on channel=11 note=59 velocity=31 time=0
EXTRACT: note_on channel=11 note=71 velocity=95 time=0
EXTRACT: note_off channel=13 note=76 velocity=95 time=0
EXTRACT: note_on channel=13 note=76 velocity=95 time=0
EXTRACT: note_off channel=4 note=64 velocity=95 time=0
EXTRACT: note_on channel=4 note=64 velocity=95 time=0
EXTRACT: note_off channel=15 note=76 velocity=95 time=0
EXTRACT: note_off channel=15 note=64 velocity=95 time=0
EXTRACT: note_on channel=15 note=76 velocity=95 time=0
EXTRACT: note_on channel=15 note=64 velocity=95 time=0
EXTRACT: note_off channel=9 note=82 velocity=111 time=0
EXTRACT: note_off channel=9 note=42 velocity=111 time=0
EXTRACT: note_off channel=9 note=56 velocity=95 time=0
EXTRACT: note_off channel=9 note=36 velocity=111 time=0
EXTRACT: note_off channel=0 note=52 velocity=95 time=0.16853925
EXTRACT: note_off channel=0 note=45 velocity=95 time=0
EXTRACT: note_on channel=0 note=52 velocity=95 time=0
EXTRACT: note_on channel=0 note=45 velocity=95 time=0
EXTRACT: note_off channel=2 note=52 velocity=95 time=0
EXTRACT: note_off channel=2 note=45 velocity=95 time=0
EXTRACT: note_on channel=2 note=52 velocity=95 time=0
EXTRACT: note_on channel=2 note=45 velocity=95 time=0
EXTRACT: note_off channel=6 note=64 velocity=95 time=0
EXTRACT: note_off channel=6 note=59 velocity=95 time=0
EXTRACT: note_on channel=6 note=64 velocity=95 time=0
EXTRACT: note_on channel=6 note=59 velocity=95 time=0
EXTRACT: note_off channel=11 note=64 velocity=31 time=0
EXTRACT: note_off channel=11 note=76 velocity=95 time=0
EXTRACT: note_off channel=11 note=59 velocity=31 time=0
EXTRACT: note_off channel=11 note=71 velocity=95 time=0
EXTRACT: note_on channel=11 note=64 velocity=31 time=0
EXTRACT: note_on channel=11 note=76 velocity=95 time=0
EXTRACT: note_on channel=11 note=59 velocity=31 time=0
EXTRACT: note_on channel=11 note=71 velocity=95 time=0
EXTRACT: note_off channel=8 note=33 velocity=111 time=0
EXTRACT: note_on channel=8 note=33 velocity=111 time=0
EXTRACT: note_off channel=13 note=76 velocity=95 time=0
EXTRACT: note_on channel=13 note=76 velocity=95 time=0
EXTRACT: note_off channel=4 note=64 velocity=95 time=0
EXTRACT: note_on channel=4 note=64 velocity=95 time=0
EXTRACT: note_off channel=15 note=76 velocity=95 time=0
EXTRACT: note_off channel=15 note=64 velocity=95 time=0
EXTRACT: note_on channel=15 note=76 velocity=95 time=0
EXTRACT: note_on channel=15 note=64 velocity=95 time=0
EXTRACT: note_on channel=9 note=82 velocity=95 time=0
EXTRACT: note_on channel=9 note=42 velocity=111 time=0
EXTRACT: note_on channel=9 note=36 velocity=111 time=0
EXTRACT: note_off channel=6 note=64 velocity=95 time=0.16853925
EXTRACT: note_off channel=6 note=59 velocity=95 time=0
EXTRACT: note_on channel=6 note=64 velocity=95 time=0
EXTRACT: note_on channel=6 note=59 velocity=95 time=0
EXTRACT: note_off channel=11 note=64 velocity=31 time=0
EXTRACT: note_off channel=11 note=76 velocity=95 time=0
EXTRACT: note_off channel=11 note=59 velocity=31 time=0
EXTRACT: note_off channel=11 note=71 velocity=95 time=0
EXTRACT: note_on channel=11 note=64 velocity=31 time=0
EXTRACT: note_on channel=11 note=76 velocity=95 time=0
EXTRACT: note_on channel=11 note=59 velocity=31 time=0
EXTRACT: note_on channel=11 note=71 velocity=95 time=0
EXTRACT: note_off channel=13 note=76 velocity=95 time=0
EXTRACT: note_on channel=13 note=76 velocity=95 time=0
EXTRACT: note_off channel=4 note=64 velocity=95 time=0
EXTRACT: note_on channel=4 note=64 velocity=95 time=0
EXTRACT: note_off channel=15 note=76 velocity=95 time=0
EXTRACT: note_off channel=15 note=64 velocity=95 time=0
EXTRACT: note_on channel=15 note=76 velocity=95 time=0
EXTRACT: note_on channel=15 note=64 velocity=95 time=0
EXTRACT: note_off channel=9 note=82 velocity=95 time=0
EXTRACT: note_off channel=9 note=42 velocity=111 time=0
EXTRACT: note_off channel=9 note=36 velocity=111 time=0
EXTRACT: note_on channel=9 note=82 velocity=79 time=0
EXTRACT: note_off channel=0 note=52 velocity=95 time=0.16853925
EXTRACT: note_off channel=0 note=45 velocity=95 time=0
EXTRACT: note_off channel=2 note=52 velocity=95 time=0
EXTRACT: note_off channel=2 note=45 velocity=95 time=0
EXTRACT: note_off channel=6 note=64 velocity=95 time=0
EXTRACT: note_off channel=6 note=59 velocity=95 time=0
EXTRACT: note_on channel=6 note=64 velocity=95 time=0
EXTRACT: note_on channel=6 note=59 velocity=95 time=0
EXTRACT: note_off channel=11 note=64 velocity=31 time=0
EXTRACT: note_off channel=11 note=76 velocity=95 time=0
EXTRACT: note_off channel=11 note=59 velocity=31 time=0
EXTRACT: note_off channel=11 note=71 velocity=95 time=0
EXTRACT: note_on channel=11 note=64 velocity=31 time=0
EXTRACT: note_on channel=11 note=76 velocity=95 time=0
EXTRACT: note_on channel=11 note=59 velocity=31 time=0
EXTRACT: note_on channel=11 note=71 velocity=95 time=0
EXTRACT: note_off channel=8 note=33 velocity=111 time=0
EXTRACT: note_off channel=13 note=76 velocity=95 time=0
EXTRACT: note_on channel=13 note=76 velocity=95 time=0
EXTRACT: note_off channel=4 note=64 velocity=95 time=0
EXTRACT: note_on channel=4 note=64 velocity=95 time=0
EXTRACT: note_off channel=15 note=76 velocity=95 time=0
EXTRACT: note_off channel=15 note=64 velocity=95 time=0
EXTRACT: note_on channel=15 note=76 velocity=95 time=0
EXTRACT: note_on channel=15 note=64 velocity=95 time=0
EXTRACT: note_off channel=9 note=82 velocity=79 time=0
EXTRACT: note_on channel=9 note=42 velocity=111 time=0
EXTRACT: note_on channel=9 note=38 velocity=127 time=0
EXTRACT: note_on channel=9 note=82 velocity=79 time=0
EXTRACT: note_on channel=9 note=56 velocity=95 time=0
EXTRACT: note_off channel=6 note=64 velocity=95 time=0.16853925
EXTRACT: note_off channel=6 note=59 velocity=95 time=0
EXTRACT: note_on channel=6 note=64 velocity=95 time=0
EXTRACT: note_on channel=6 note=59 velocity=95 time=0
EXTRACT: note_off channel=11 note=64 velocity=31 time=0
EXTRACT: note_off channel=11 note=76 velocity=95 time=0
EXTRACT: note_off channel=11 note=59 velocity=31 time=0
EXTRACT: note_off channel=11 note=71 velocity=95 time=0
EXTRACT: note_on channel=11 note=64 velocity=31 time=0
EXTRACT: note_on channel=11 note=76 velocity=95 time=0
EXTRACT: note_on channel=11 note=59 velocity=31 time=0
EXTRACT: note_on channel=11 note=71 velocity=95 time=0
EXTRACT: note_off channel=9 note=42 velocity=111 time=0
EXTRACT: note_off channel=9 note=38 velocity=127 time=0
EXTRACT: note_off channel=9 note=82 velocity=79 time=0
EXTRACT: note_off channel=9 note=56 velocity=95 time=0
EXTRACT: note_on channel=9 note=82 velocity=95 time=0
EXTRACT: note_off channel=6 note=64 velocity=95 time=0.16853925
EXTRACT: note_off channel=6 note=59 velocity=95 time=0
EXTRACT: note_on channel=6 note=64 velocity=95 time=0
EXTRACT: note_on channel=6 note=59 velocity=95 time=0
EXTRACT: note_off channel=11 note=64 velocity=31 time=0
EXTRACT: note_off channel=11 note=76 velocity=95 time=0
EXTRACT: note_off channel=11 note=59 velocity=31 time=0
EXTRACT: note_off channel=11 note=71 velocity=95 time=0
EXTRACT: note_on channel=11 note=64 velocity=31 time=0
EXTRACT: note_on channel=11 note=76 velocity=95 time=0
EXTRACT: note_on channel=11 note=59 velocity=31 time=0
EXTRACT: note_on channel=11 note=71 velocity=95 time=0
EXTRACT: note_off channel=13 note=76 velocity=95 time=0
EXTRACT: note_on channel=13 note=78 velocity=95 time=0
EXTRACT: note_off channel=4 note=64 velocity=95 time=0
EXTRACT: note_on channel=4 note=66 velocity=95 time=0
EXTRACT: note_off channel=15 note=76 velocity=95 time=0
EXTRACT: note_off channel=15 note=64 velocity=95 time=0
EXTRACT: note_on channel=15 note=78 velocity=95 time=0
EXTRACT: note_on channel=15 note=66 velocity=95 time=0
EXTRACT: note_off channel=9 note=82 velocity=95 time=0
EXTRACT: note_on channel=9 note=42 velocity=127 time=0
EXTRACT: note_off channel=6 note=64 velocity=95 time=0.16853925
EXTRACT: note_off channel=6 note=59 velocity=95 time=0
EXTRACT: note_on channel=6 note=64 velocity=95 time=0
EXTRACT: note_on channel=6 note=59 velocity=95 time=0
EXTRACT: note_off channel=11 note=64 velocity=31 time=0
EXTRACT: note_off channel=11 note=76 velocity=95 time=0
EXTRACT: note_off channel=11 note=59 velocity=31 time=0
EXTRACT: note_off channel=11 note=71 velocity=95 time=0
EXTRACT: note_on channel=11 note=64 velocity=31 time=0
EXTRACT: note_on channel=11 note=76 velocity=95 time=0
EXTRACT: note_on channel=11 note=59 velocity=31 time=0
EXTRACT: note_on channel=11 note=71 velocity=95 time=0
EXTRACT: note_on channel=8 note=33 velocity=95 time=0
EXTRACT: note_off channel=9 note=42 velocity=127 time=0
EXTRACT: note_on channel=9 note=82 velocity=95 time=0
EXTRACT: note_on channel=0 note=54 velocity=95 time=0.16853925
EXTRACT: note_on channel=0 note=47 velocity=95 time=0
EXTRACT: note_on channel=2 note=54 velocity=95 time=0
EXTRACT: note_on channel=2 note=47 velocity=95 time=0
EXTRACT: note_off channel=6 note=64 velocity=95 time=0
EXTRACT: note_off channel=6 note=59 velocity=95 time=0
EXTRACT: note_on channel=6 note=64 velocity=95 time=0
EXTRACT: note_on channel=6 note=59 velocity=95 time=0
EXTRACT: note_off channel=11 note=64 velocity=31 time=0
EXTRACT: note_off channel=11 note=76 velocity=95 time=0
EXTRACT: note_off channel=11 note=59 velocity=31 time=0
EXTRACT: note_off channel=11 note=71 velocity=95 time=0
EXTRACT: note_on channel=11 note=64 velocity=31 time=0
EXTRACT: note_on channel=11 note=76 velocity=95 time=0
EXTRACT: note_on channel=11 note=59 velocity=31 time=0
EXTRACT: note_on channel=11 note=71 velocity=95 time=0
EXTRACT: note_off channel=8 note=33 velocity=95 time=0
EXTRACT: note_on channel=8 note=35 velocity=111 time=0
EXTRACT: note_off channel=13 note=78 velocity=95 time=0
EXTRACT: note_on channel=13 note=79 velocity=95 time=0
EXTRACT: note_off channel=4 note=66 velocity=95 time=0
EXTRACT: note_on channel=4 note=67 velocity=95 time=0
EXTRACT: note_off channel=15 note=78 velocity=95 time=0
EXTRACT: note_off channel=15 note=66 velocity=95 time=0
EXTRACT: note_on channel=15 note=79 velocity=95 time=0
EXTRACT: note_on channel=15 note=67 velocity=95 time=0
EXTRACT: note_off channel=9 note=82 velocity=95 time=0
EXTRACT: note_on channel=9 note=42 velocity=127 time=0
EXTRACT: note_on channel=9 note=36 velocity=111 time=0
EXTRACT: note_on channel=9 note=56 velocity=95 time=0
EXTRACT: note_off channel=6 note=64 velocity=95 time=0.16853925
EXTRACT: note_off channel=6 note=59 velocity=95 time=0
EXTRACT: note_on channel=6 note=64 velocity=95 time=0
EXTRACT: note_on channel=6 note=59 velocity=95 time=0
EXTRACT: note_off channel=11 note=64 velocity=31 time=0
EXTRACT: note_off channel=11 note=76 velocity=95 time=0
EXTRACT: note_off channel=11 note=59 velocity=31 time=0
EXTRACT: note_off channel=11 note=71 velocity=95 time=0
EXTRACT: note_on channel=11 note=64 velocity=31 time=0
EXTRACT: note_on channel=11 note=76 velocity=95 time=0
EXTRACT: note_on channel=11 note=59 velocity=31 time=0
EXTRACT: note_on channel=11 note=71 velocity=95 time=0
EXTRACT: note_off channel=9 note=42 velocity=127 time=0
EXTRACT: note_off channel=9 note=36 velocity=111 time=0
EXTRACT: note_off channel=9 note=56 velocity=95 time=0
EXTRACT: note_on channel=9 note=82 velocity=95 time=0
EXTRACT: note_off channel=0 note=54 velocity=95 time=0.16853925
EXTRACT: note_off channel=0 note=47 velocity=95 time=0
EXTRACT: note_on channel=0 note=47 velocity=95 time=0
EXTRACT: note_off channel=2 note=54 velocity=95 time=0
EXTRACT: note_off channel=2 note=47 velocity=95 time=0
EXTRACT: note_on channel=2 note=47 velocity=95 time=0
EXTRACT: note_off channel=6 note=64 velocity=95 time=0
EXTRACT: note_off channel=6 note=59 velocity=95 time=0
EXTRACT: note_on channel=6 note=64 velocity=95 time=0
EXTRACT: note_on channel=6 note=59 velocity=95 time=0
EXTRACT: note_off channel=11 note=64 velocity=31 time=0
EXTRACT: note_off channel=11 note=76 velocity=95 time=0
EXTRACT: note_off channel=11 note=59 velocity=31 time=0
EXTRACT: note_off channel=11 note=71 velocity=95 time=0
EXTRACT: note_on channel=11 note=64 velocity=31 time=0
EXTRACT: note_on channel=11 note=76 velocity=95 time=0
EXTRACT: note_on channel=11 note=59 velocity=31 time=0
EXTRACT: note_on channel=11 note=71 velocity=95 time=0
EXTRACT: note_off channel=8 note=35 velocity=111 time=0
EXTRACT: note_on channel=8 note=35 velocity=95 time=0
EXTRACT: note_off channel=13 note=79 velocity=95 time=0
EXTRACT: note_on channel=13 note=78 velocity=95 time=0
EXTRACT: note_off channel=4 note=67 velocity=95 time=0
EXTRACT: note_on channel=4 note=66 velocity=95 time=0
EXTRACT: note_off channel=15 note=79 velocity=95 time=0
EXTRACT: note_off channel=15 note=67 velocity=95 time=0
EXTRACT: note_on channel=15 note=78 velocity=95 time=0
EXTRACT: note_on channel=15 note=66 velocity=95 time=0
EXTRACT: note_off channel=9 note=82 velocity=95 time=0
EXTRACT: note_on channel=9 note=42 velocity=111 time=0
EXTRACT: note_on channel=9 note=82 velocity=79 time=0
EXTRACT: note_on channel=9 note=36 velocity=111 time=0
EXTRACT: note_off channel=6 note=64 velocity=95 time=0.16853925
EXTRACT: note_off channel=6 note=59 velocity=95 time=0
EXTRACT: note_on channel=6 note=64 velocity=95 time=0
EXTRACT: note_on channel=6 note=59 velocity=95 time=0
EXTRACT: note_off channel=11 note=64 velocity=31 time=0
EXTRACT: note_off channel=11 note=76 velocity=95 time=0
EXTRACT: note_off channel=11 note=59 velocity=31 time=0
EXTRACT: note_off channel=11 note=71 velocity=95 time=0
EXTRACT: note_on channel=11 note=64 velocity=31 time=0
EXTRACT: note_on channel=11 note=76 velocity=95 time=0
EXTRACT: note_on channel=11 note=59 velocity=31 time=0
EXTRACT: note_on channel=11 note=71 velocity=95 time=0
EXTRACT: note_off channel=9 note=42 velocity=111 time=0
EXTRACT: note_off channel=9 note=82 velocity=79 time=0
EXTRACT: note_off channel=9 note=36 velocity=111 time=0
EXTRACT: note_off channel=0 note=47 velocity=95 time=0
EXTRACT: note_on channel=0 note=47 velocity=95 time=0
EXTRACT: note_on channel=0 note=40 velocity=95 time=0
EXTRACT: note_off channel=2 note=47 velocity=95 time=0
EXTRACT: note_on channel=2 note=47 velocity=95 time=0
EXTRACT: note_on channel=2 note=40 velocity=95 time=0
EXTRACT: note_off channel=6 note=64 velocity=95 time=0
EXTRACT: note_off channel=6 note=59 velocity=95 time=0
EXTRACT: note_on channel=6 note=64 velocity=95 time=0
EXTRACT: note_on channel=6 note=59 velocity=95 time=0
EXTRACT: note_off channel=11 note=64 velocity=31 time=0
EXTRACT: note_off channel=11 note=76 velocity=95 time=0
EXTRACT: note_off channel=11 note=59 velocity=31 time=0
EXTRACT: note_off channel=11 note=71 velocity=95 time=0
EXTRACT: note_on channel=11 note=64 velocity=31 time=0
EXTRACT: note_on channel=11 note=76 velocity=95 time=0
EXTRACT: note_on channel=11 note=59 velocity=31 time=0
EXTRACT: note_on channel=11 note=71 velocity=95 time=0
EXTRACT: note_off channel=8 note=35 velocity=95 time=0
EXTRACT: note_on channel=8 note=28 velocity=111 time=0
EXTRACT: note_off channel=13 note=78 velocity=95 time=0
EXTRACT: note_on channel=13 note=76 velocity=95 time=0
EXTRACT: note_off channel=4 note=66 velocity=95 time=0
EXTRACT: note_on channel=4 note=64 velocity=95 time=0
EXTRACT: note_off channel=15 note=78 velocity=95 time=0
EXTRACT: note_off channel=15 note=66 velocity=95 time=0
EXTRACT: note_on channel=15 note=76 velocity=95 time=0
EXTRACT: note_on channel=15 note=64 velocity=95 time=0
EXTRACT: note_on channel=9 note=56 velocity=95 time=0
EXTRACT: note_on channel=9 note=42 velocity=127 time=0
EXTRACT: note_on channel=9 note=36 velocity=111 time=0
EXTRACT: note_on channel=9 note=82 velocity=95 time=0
EXTRACT: note_off channel=6 note=64 velocity=95 time=0.16853925
EXTRACT: note_off channel=6 note=59 velocity=95 time=0
EXTRACT: note_on channel=6 note=64 velocity=95 time=0
EXTRACT: note_on channel=6 note=59 velocity=95 time=0
EXTRACT: note_off channel=11 note=64 velocity=31 time=0
EXTRACT: note_off channel=11 note=76 velocity=95 time=0
EXTRACT: note_off channel=11 note=59 velocity=31 time=0
EXTRACT: note_off channel=11 note=71 velocity=95 time=0
EXTRACT: note_on channel=11 note=64 velocity=31 time=0
EXTRACT: note_on channel=11 note=76 velocity=95 time=0
EXTRACT: note_on channel=11 note=59 velocity=31 time=0
EXTRACT: note_on channel=11 note=71 velocity=95 time=0
EXTRACT: note_off channel=9 note=56 velocity=95 time=0
EXTRACT: note_off channel=9 note=42 velocity=127 time=0
EXTRACT: note_off channel=9 note=36 velocity=111 time=0
EXTRACT: note_off channel=9 note=82 velocity=95 time=0
EXTRACT: note_off channel=0 note=47 velocity=95 time=0.16853925
EXTRACT: note_off channel=0 note=40 velocity=95 time=0
EXTRACT: note_on channel=0 note=47 velocity=95 time=0
EXTRACT: note_on channel=0 note=40 velocity=95 time=0
EXTRACT: note_off channel=2 note=47 velocity=95 time=0
EXTRACT: note_off channel=2 note=40 velocity=95 time=0
EXTRACT: note_on channel=2 note=47 velocity=95 time=0
EXTRACT: note_on channel=2 note=40 velocity=95 time=0
EXTRACT: note_off channel=6 note=64 velocity=95 time=0
EXTRACT: note_off channel=6 note=59 velocity=95 time=0
EXTRACT: note_on channel=6 note=64 velocity=95 time=0
EXTRACT: note_on channel=6 note=59 velocity=95 time=0
EXTRACT: note_off channel=11 note=64 velocity=31 time=0
EXTRACT: note_off channel=11 note=76 velocity=95 time=0
EXTRACT: note_off channel=11 note=59 velocity=31 time=0
EXTRACT: note_off channel=11 note=71 velocity=95 time=0
EXTRACT: note_on channel=11 note=64 velocity=31 time=0
EXTRACT: note_on channel=11 note=76 velocity=95 time=0
EXTRACT: note_on channel=11 note=59 velocity=31 time=0
EXTRACT: note_on channel=11 note=71 velocity=95 time=0
EXTRACT: note_off channel=8 note=28 velocity=111 time=0
EXTRACT: note_on channel=8 note=28 velocity=111 time=0
EXTRACT: note_on channel=9 note=42 velocity=111 time=0
EXTRACT: note_on channel=9 note=36 velocity=111 time=0
EXTRACT: note_off channel=6 note=64 velocity=95 time=0.16853925
EXTRACT: note_off channel=6 note=59 velocity=95 time=0
EXTRACT: note_on channel=6 note=64 velocity=95 time=0
EXTRACT: note_on channel=6 note=59 velocity=95 time=0
EXTRACT: note_off channel=11 note=64 velocity=31 time=0
EXTRACT: note_off channel=11 note=76 velocity=95 time=0
EXTRACT: note_off channel=11 note=59 velocity=31 time=0
EXTRACT: note_off channel=11 note=71 velocity=95 time=0
EXTRACT: note_on channel=11 note=64 velocity=31 time=0
EXTRACT: note_on channel=11 note=76 velocity=95 time=0
EXTRACT: note_on channel=11 note=59 velocity=31 time=0
EXTRACT: note_on channel=11 note=71 velocity=95 time=0
EXTRACT: note_off channel=9 note=42 velocity=111 time=0
EXTRACT: note_off channel=9 note=36 velocity=111 time=0
EXTRACT: note_off channel=0 note=47 velocity=95 time=0.16853925
EXTRACT: note_off channel=0 note=40 velocity=95 time=0
EXTRACT: pitchwheel channel=1 pitch=0 time=0
EXTRACT: note_on channel=1 note=55 velocity=95 time=0
EXTRACT: note_off channel=2 note=47 velocity=95 time=0
EXTRACT: note_off channel=2 note=40 velocity=95 time=0
EXTRACT: note_off channel=6 note=64 velocity=95 time=0
EXTRACT: note_off channel=6 note=59 velocity=95 time=0
EXTRACT: note_on channel=6 note=64 velocity=95 time=0
EXTRACT: note_on channel=6 note=59 velocity=95 time=0
EXTRACT: note_off channel=11 note=64 velocity=31 time=0
EXTRACT: note_off channel=11 note=76 velocity=95 time=0
EXTRACT: note_off channel=11 note=59 velocity=31 time=0
EXTRACT: note_off channel=11 note=71 velocity=95 time=0
EXTRACT: note_on channel=11 note=64 velocity=31 time=0
EXTRACT: note_on channel=11 note=76 velocity=95 time=0
EXTRACT: note_on channel=11 note=59 velocity=31 time=0
EXTRACT: note_on channel=11 note=71 velocity=95 time=0
EXTRACT: note_off channel=8 note=28 velocity=111 time=0
EXTRACT: note_off channel=13 note=76 velocity=95 time=0
EXTRACT: note_on channel=13 note=79 velocity=95 time=0
EXTRACT: note_off channel=4 note=64 velocity=95 time=0
EXTRACT: note_on channel=4 note=67 velocity=95 time=0
EXTRACT: note_off channel=15 note=76 velocity=95 time=0
EXTRACT: note_off channel=15 note=64 velocity=95 time=0
EXTRACT: note_on channel=15 note=79 velocity=95 time=0
EXTRACT: note_on channel=15 note=67 velocity=95 time=0
EXTRACT: note_on channel=9 note=56 velocity=95 time=0
EXTRACT: note_on channel=9 note=42 velocity=111 time=0
EXTRACT: note_on channel=9 note=82 velocity=95 time=0
EXTRACT: note_on channel=9 note=38 velocity=111 time=0
EXTRACT: pitchwheel channel=1 pitch=0 time=0.1123595
EXTRACT: note_off channel=6 note=64 velocity=95 time=0.05617975
EXTRACT: note_off channel=6 note=59 velocity=95 time=0
EXTRACT: note_on channel=6 note=64 velocity=95 time=0
EXTRACT: note_on channel=6 note=59 velocity=95 time=0
EXTRACT: note_off channel=11 note=64 velocity=31 time=0
EXTRACT: note_off channel=11 note=76 velocity=95 time=0
EXTRACT: note_off channel=11 note=59 velocity=31 time=0
EXTRACT: note_off channel=11 note=71 velocity=95 time=0
EXTRACT: note_on channel=11 note=64 velocity=31 time=0
EXTRACT: note_on channel=11 note=76 velocity=95 time=0
EXTRACT: note_on channel=11 note=59 velocity=31 time=0
EXTRACT: note_on channel=11 note=71 velocity=95 time=0
EXTRACT: note_off channel=9 note=56 velocity=95 time=0
EXTRACT: note_off channel=9 note=42 velocity=111 time=0
EXTRACT: note_off channel=9 note=82 velocity=95 time=0
EXTRACT: note_off channel=9 note=38 velocity=111 time=0
EXTRACT: pitchwheel channel=1 pitch=128 time=0.05617975
EXTRACT: pitchwheel channel=1 pitch=256 time=0.1123595
EXTRACT: pitchwheel channel=1 pitch=256 time=0
EXTRACT: note_off channel=6 note=64 velocity=95 time=0
EXTRACT: note_off channel=6 note=59 velocity=95 time=0
EXTRACT: note_on channel=6 note=64 velocity=95 time=0
EXTRACT: note_on channel=6 note=59 velocity=95 time=0
EXTRACT: note_off channel=11 note=64 velocity=31 time=0
EXTRACT: note_off channel=11 note=76 velocity=95 time=0
EXTRACT: note_off channel=11 note=59 velocity=31 time=0
EXTRACT: note_off channel=11 note=71 velocity=95 time=0
EXTRACT: note_on channel=11 note=64 velocity=31 time=0
EXTRACT: note_on channel=11 note=76 velocity=95 time=0
EXTRACT: note_on channel=11 note=59 velocity=31 time=0
EXTRACT: note_on channel=11 note=71 velocity=95 time=0
EXTRACT: note_on channel=9 note=42 velocity=111 time=0
EXTRACT: note_off channel=6 note=64 velocity=95 time=0.16853925
EXTRACT: note_off channel=6 note=59 velocity=95 time=0
EXTRACT: note_on channel=6 note=64 velocity=95 time=0
EXTRACT: note_on channel=6 note=59 velocity=95 time=0
EXTRACT: note_off channel=11 note=64 velocity=31 time=0
EXTRACT: note_off channel=11 note=76 velocity=95 time=0
EXTRACT: note_off channel=11 note=59 velocity=31 time=0
EXTRACT: note_off channel=11 note=71 velocity=95 time=0
EXTRACT: note_on channel=11 note=64 velocity=31 time=0
EXTRACT: note_on channel=11 note=76 velocity=95 time=0
EXTRACT: note_on channel=11 note=59 velocity=31 time=0
EXTRACT: note_on channel=11 note=71 velocity=95 time=0
EXTRACT: note_on channel=8 note=28 velocity=95 time=0
EXTRACT: note_off channel=9 note=42 velocity=111 time=0
EXTRACT: note_on channel=9 note=82 velocity=95 time=0
EXTRACT: pitchwheel channel=1 pitch=256 time=0.1123595
EXTRACT: pitchwheel channel=1 pitch=128 time=0.028089875
EXTRACT: pitchwheel channel=1 pitch=0 time=0.028089875
EXTRACT: pitchwheel channel=1 pitch=0 time=0
EXTRACT: pitchwheel channel=1 pitch=0 time=0
EXTRACT: note_off channel=1 note=55 velocity=95 time=0
EXTRACT: note_on channel=0 note=47 velocity=95 time=0
EXTRACT: note_on channel=0 note=40 velocity=95 time=0
EXTRACT: note_on channel=2 note=47 velocity=95 time=0
EXTRACT: note_on channel=2 note=40 velocity=95 time=0
EXTRACT: note_off channel=6 note=64 velocity=95 time=0
EXTRACT: note_off channel=6 note=59 velocity=95 time=0
EXTRACT: note_on channel=6 note=64 velocity=95 time=0
EXTRACT: note_on channel=6 note=59 velocity=95 time=0
EXTRACT: note_off channel=11 note=64 velocity=31 time=0
EXTRACT: note_off channel=11 note=76 velocity=95 time=0
EXTRACT: note_off channel=11 note=59 velocity=31 time=0
EXTRACT: note_off channel=11 note=71 velocity=95 time=0
EXTRACT: note_on channel=11 note=64 velocity=31 time=0
EXTRACT: note_on channel=11 note=76 velocity=95 time=0
EXTRACT: note_on channel=11 note=59 velocity=31 time=0
EXTRACT: note_on channel=11 note=71 velocity=95 time=0
EXTRACT: note_off channel=8 note=28 velocity=95 time=0
EXTRACT: note_on channel=8 note=28 velocity=111 time=0
EXTRACT: note_off channel=13 note=79 velocity=95 time=0
EXTRACT: note_on channel=13 note=76 velocity=95 time=0
EXTRACT: note_off channel=4 note=67 velocity=95 time=0
EXTRACT: note_on channel=4 note=64 velocity=95 time=0
EXTRACT: note_off channel=15 note=79 velocity=95 time=0
EXTRACT: note_off channel=15 note=67 velocity=95 time=0
EXTRACT: note_on channel=15 note=76 velocity=95 time=0
EXTRACT: note_on channel=15 note=64 velocity=95 time=0
EXTRACT: note_off channel=9 note=82 velocity=95 time=0
EXTRACT: note_on channel=9 note=36 velocity=111 time=0
EXTRACT: note_on channel=9 note=42 velocity=111 time=0
EXTRACT: note_on channel=9 note=56 velocity=95 time=0
EXTRACT: note_off channel=6 note=64 velocity=95 time=0.16853925
EXTRACT: note_off channel=6 note=59 velocity=95 time=0
EXTRACT: note_on channel=6 note=64 velocity=95 time=0
EXTRACT: note_on channel=6 note=59 velocity=95 time=0
EXTRACT: note_off channel=11 note=64 velocity=31 time=0
EXTRACT: note_off channel=11 note=76 velocity=95 time=0
EXTRACT: note_off channel=11 note=59 velocity=31 time=0
EXTRACT: note_off channel=11 note=71 velocity=95 time=0
EXTRACT: note_on channel=11 note=64 velocity=31 time=0
EXTRACT: note_on channel=11 note=76 velocity=95 time=0
EXTRACT: note_on channel=11 note=59 velocity=31 time=0
EXTRACT: note_on channel=11 note=71 velocity=95 time=0
EXTRACT: note_off channel=13 note=76 velocity=95 time=0
EXTRACT: note_off channel=4 note=64 velocity=95 time=0
EXTRACT: note_off channel=15 note=76 velocity=95 time=0
EXTRACT: note_off channel=15 note=64 velocity=95 time=0
EXTRACT: note_off channel=9 note=36 velocity=111 time=0
EXTRACT: note_off channel=9 note=42 velocity=111 time=0
EXTRACT: note_off channel=9 note=56 velocity=95 time=0
EXTRACT: note_on channel=9 note=82 velocity=95 time=0
EXTRACT: note_off channel=0 note=47 velocity=95 time=0.16853925
EXTRACT: note_off channel=0 note=40 velocity=95 time=0
EXTRACT: note_on channel=0 note=47 velocity=95 time=0
EXTRACT: note_on channel=0 note=40 velocity=95 time=0
EXTRACT: note_off channel=2 note=47 velocity=95 time=0
EXTRACT: note_off channel=2 note=40 velocity=95 time=0
EXTRACT: note_on channel=2 note=47 velocity=95 time=0
EXTRACT: note_on channel=2 note=40 velocity=95 time=0
EXTRACT: note_off channel=6 note=64 velocity=95 time=0
EXTRACT: note_off channel=6 note=59 velocity=95 time=0
EXTRACT: note_on channel=6 note=64 velocity=95 time=0
EXTRACT: note_on channel=6 note=59 velocity=95 time=0
EXTRACT: note_off channel=11 note=64 velocity=31 time=0
EXTRACT: note_off channel=11 note=76 velocity=95 time=0
EXTRACT: note_off channel=11 note=59 velocity=31 time=0
EXTRACT: note_off channel=11 note=71 velocity=95 time=0
EXTRACT: note_on channel=11 note=64 velocity=31 time=0
EXTRACT: note_on channel=11 note=76 velocity=95 time=0
EXTRACT: note_on channel=11 note=59 velocity=31 time=0
EXTRACT: note_on channel=11 note=71 velocity=95 time=0
EXTRACT: note_off channel=8 note=28 velocity=111 time=0
EXTRACT: note_on channel=8 note=28 velocity=111 time=0
EXTRACT: note_on channel=13 note=74 velocity=95 time=0
EXTRACT: note_on channel=4 note=62 velocity=95 time=0
EXTRACT: note_on channel=15 note=74 velocity=95 time=0
EXTRACT: note_on channel=15 note=62 velocity=95 time=0
EXTRACT: note_off channel=9 note=82 velocity=95 time=0
EXTRACT: note_on channel=9 note=42 velocity=111 time=0
EXTRACT: note_on channel=9 note=82 velocity=79 time=0
EXTRACT: note_on channel=9 note=36 velocity=111 time=0
EXTRACT: note_off channel=6 note=64 velocity=95 time=0.16853925
EXTRACT: note_off channel=6 note=59 velocity=95 time=0
EXTRACT: note_on channel=6 note=64 velocity=95 time=0
EXTRACT: note_on channel=6 note=59 velocity=95 time=0
EXTRACT: note_off channel=11 note=64 velocity=31 time=0
EXTRACT: note_off channel=11 note=76 velocity=95 time=0
EXTRACT: note_off channel=11 note=59 velocity=31 time=0
EXTRACT: note_off channel=11 note=71 velocity=95 time=0
EXTRACT: note_on channel=11 note=64 velocity=31 time=0
EXTRACT: note_on channel=11 note=76 velocity=95 time=0
EXTRACT: note_on channel=11 note=59 velocity=31 time=0
EXTRACT: note_on channel=11 note=71 velocity=95 time=0
EXTRACT: note_off channel=13 note=74 velocity=95 time=0
EXTRACT: note_on channel=13 note=76 velocity=95 time=0
EXTRACT: note_off channel=4 note=62 velocity=95 time=0
EXTRACT: note_on channel=4 note=64 velocity=95 time=0
EXTRACT: note_off channel=15 note=74 velocity=95 time=0
EXTRACT: note_off channel=15 note=62 velocity=95 time=0
EXTRACT: note_on channel=15 note=76 velocity=95 time=0
EXTRACT: note_on channel=15 note=64 velocity=95 time=0
EXTRACT: note_off channel=9 note=42 velocity=111 time=0
EXTRACT: note_off channel=9 note=82 velocity=79 time=0
EXTRACT: note_off channel=9 note=36 velocity=111 time=0
EXTRACT: note_off channel=0 note=47 velocity=95 time=0.16853925
EXTRACT: note_off channel=0 note=40 velocity=95 time=0
EXTRACT: note_off channel=2 note=47 velocity=95 time=0
EXTRACT: note_off channel=2 note=40 velocity=95 time=0
EXTRACT: note_off channel=6 note=64 velocity=95 time=0
EXTRACT: note_off channel=6 note=59 velocity=95 time=0
EXTRACT: note_on channel=6 note=64 velocity=95 time=0
EXTRACT: note_on channel=6 note=59 velocity=95 time=0
EXTRACT: note_off channel=11 note=64 velocity=31 time=0
EXTRACT: note_off channel=11 note=76 velocity=95 time=0
EXTRACT: note_off channel=11 note=59 velocity=31 time=0
EXTRACT: note_off channel=11 note=71 velocity=95 time=0
EXTRACT: note_on channel=11 note=64 velocity=31 time=0
EXTRACT: note_on channel=11 note=76 velocity=95 time=0
EXTRACT: note_on channel=11 note=59 velocity=31 time=0
EXTRACT: note_on channel=11 note=71 velocity=95 time=0
EXTRACT: note_off channel=8 note=28 velocity=111 time=0
EXTRACT: note_on channel=9 note=56 velocity=95 time=0
EXTRACT: note_on channel=9 note=82 velocity=95 time=0
EXTRACT: note_on channel=9 note=42 velocity=111 time=0
EXTRACT: note_on channel=9 note=38 velocity=127 time=0
EXTRACT: note_on channel=0 note=43 velocity=95 time=0.16853925
EXTRACT: note_off channel=6 note=64 velocity=95 time=0
EXTRACT: note_off channel=6 note=59 velocity=95 time=0
EXTRACT: note_on channel=6 note=64 velocity=95 time=0
EXTRACT: note_on channel=6 note=59 velocity=95 time=0
EXTRACT: note_off channel=11 note=64 velocity=31 time=0
EXTRACT: note_off channel=11 note=76 velocity=95 time=0
EXTRACT: note_off channel=11 note=59 velocity=31 time=0
EXTRACT: note_off channel=11 note=71 velocity=95 time=0
EXTRACT: note_on channel=11 note=64 velocity=31 time=0
EXTRACT: note_on channel=11 note=76 velocity=95 time=0
EXTRACT: note_on channel=11 note=59 velocity=31 time=0
EXTRACT: note_on channel=11 note=71 velocity=95 time=0
EXTRACT: note_on channel=8 note=31 velocity=127 time=0
EXTRACT: note_off channel=9 note=56 velocity=95 time=0
EXTRACT: note_off channel=9 note=82 velocity=95 time=0
EXTRACT: note_off channel=9 note=42 velocity=111 time=0
EXTRACT: note_off channel=9 note=38 velocity=127 time=0
EXTRACT: note_off channel=6 note=64 velocity=95 time=0.16853925
EXTRACT: note_off channel=6 note=59 velocity=95 time=0
EXTRACT: note_on channel=6 note=64 velocity=95 time=0
EXTRACT: note_on channel=6 note=59 velocity=95 time=0
EXTRACT: note_off channel=11 note=64 velocity=31 time=0
EXTRACT: note_off channel=11 note=76 velocity=95 time=0
EXTRACT: note_off channel=11 note=59 velocity=31 time=0
EXTRACT: note_off channel=11 note=71 velocity=95 time=0
EXTRACT: note_on channel=11 note=64 velocity=31 time=0
EXTRACT: note_on channel=11 note=76 velocity=95 time=0
EXTRACT: note_on channel=11 note=59 velocity=31 time=0
EXTRACT: note_on channel=11 note=71 velocity=95 time=0
EXTRACT: note_off channel=13 note=76 velocity=95 time=0
EXTRACT: note_off channel=4 note=64 velocity=95 time=0
EXTRACT: note_off channel=15 note=76 velocity=95 time=0
EXTRACT: note_off channel=15 note=64 velocity=95 time=0
EXTRACT: note_on channel=9 note=42 velocity=111 time=0
EXTRACT: note_off channel=6 note=64 velocity=95 time=0.16853925
EXTRACT: note_off channel=6 note=59 velocity=95 time=0
EXTRACT: note_on channel=6 note=64 velocity=95 time=0
EXTRACT: note_on channel=6 note=59 velocity=95 time=0
EXTRACT: note_off channel=11 note=64 velocity=31 time=0
EXTRACT: note_off channel=11 note=76 velocity=95 time=0
EXTRACT: note_off channel=11 note=59 velocity=31 time=0
EXTRACT: note_off channel=11 note=71 velocity=95 time=0
EXTRACT: note_on channel=11 note=64 velocity=31 time=0
EXTRACT: note_on channel=11 note=76 velocity=95 time=0
EXTRACT: note_on channel=11 note=59 velocity=31 time=0
EXTRACT: note_on channel=11 note=71 velocity=95 time=0
EXTRACT: note_on channel=13 note=71 velocity=95 time=0
EXTRACT: note_on channel=4 note=59 velocity=95 time=0
EXTRACT: note_on channel=15 note=71 velocity=95 time=0
EXTRACT: note_on channel=15 note=59 velocity=95 time=0
EXTRACT: note_off channel=9 note=42 velocity=111 time=0
EXTRACT: note_off channel=0 note=43 velocity=95 time=0.16853925
EXTRACT: note_on channel=0 note=52 velocity=95 time=0
EXTRACT: note_on channel=0 note=45 velocity=95 time=0
EXTRACT: note_on channel=2 note=52 velocity=95 time=0
EXTRACT: note_on channel=2 note=45 velocity=95 time=0
EXTRACT: note_off channel=6 note=64 velocity=95 time=0
EXTRACT: note_off channel=6 note=59 velocity=95 time=0
EXTRACT: note_on channel=6 note=64 velocity=95 time=0
EXTRACT: note_on channel=6 note=59 velocity=95 time=0
EXTRACT: note_off channel=11 note=64 velocity=31 time=0
EXTRACT: note_off channel=11 note=76 velocity=95 time=0
EXTRACT: note_off channel=11 note=59 velocity=31 time=0
EXTRACT: note_off channel=11 note=71 velocity=95 time=0
EXTRACT: note_on channel=11 note=64 velocity=31 time=0
EXTRACT: note_on channel=11 note=76 velocity=95 time=0
EXTRACT: note_on channel=11 note=59 velocity=31 time=0
EXTRACT: note_on channel=11 note=71 velocity=95 time=0
EXTRACT: note_off channel=8 note=31 velocity=127 time=0
EXTRACT: note_on channel=8 note=33 velocity=111 time=0
EXTRACT: note_off channel=13 note=71 velocity=95 time=0
EXTRACT: note_on channel=13 note=76 velocity=95 time=0
EXTRACT: note_off channel=4 note=59 velocity=95 time=0
EXTRACT: note_on channel=4 note=64 velocity=95 time=0
EXTRACT: note_off channel=15 note=71 velocity=95 time=0
EXTRACT: note_off channel=15 note=59 velocity=95 time=0
EXTRACT: note_on channel=15 note=76 velocity=95 time=0
EXTRACT: note_on channel=15 note=64 velocity=95 time=0
EXTRACT: note_on channel=9 note=56 velocity=95 time=0
EXTRACT: note_on channel=9 note=36 velocity=111 time=0
EXTRACT: note_on channel=9 note=42 velocity=111 time=0
EXTRACT: note_on channel=9 note=82 velocity=111 time=0
EXTRACT: note_off channel=6 note=64 velocity=95 time=0.16853925
EXTRACT: note_off channel=6 note=59 velocity=95 time=0
EXTRACT: note_on channel=6 note=64 velocity=95 time=0
EXTRACT: note_on channel=6 note=59 velocity=95 time=0
EXTRACT: note_off channel=11 note=64 velocity=31 time=0
EXTRACT: note_off channel=11 note=76 velocity=95 time=0
EXTRACT: note_off channel=11 note=59 velocity=31 time=0
EXTRACT: note_off channel=11 note=71 velocity=95 time=0
EXTRACT: note_on channel=11 note=64 velocity=31 time=0
EXTRACT: note_on channel=11 note=76 velocity=95 time=0
EXTRACT: note_on channel=11 note=59 velocity=31 time=0
EXTRACT: note_on channel=11 note=71 velocity=95 time=0
EXTRACT: note_off channel=13 note=76 velocity=95 time=0
EXTRACT: note_on channel=13 note=76 velocity=95 time=0
EXTRACT: note_off channel=4 note=64 velocity=95 time=0
EXTRACT: note_on channel=4 note=64 velocity=95 time=0
EXTRACT: note_off channel=15 note=76 velocity=95 time=0
EXTRACT: note_off channel=15 note=64 velocity=95 time=0
EXTRACT: note_on channel=15 note=76 velocity=95 time=0
EXTRACT: note_on channel=15 note=64 velocity=95 time=0
EXTRACT: note_off channel=9 note=56 velocity=95 time=0
EXTRACT: note_off channel=9 note=36 velocity=111 time=0
EXTRACT: note_off channel=9 note=42 velocity=111 time=0
EXTRACT: note_off channel=9 note=82 velocity=111 time=0
EXTRACT: note_off channel=0 note=52 velocity=95 time=0.16853925
EXTRACT: note_off channel=0 note=45 velocity=95 time=0
EXTRACT: note_on channel=0 note=52 velocity=95 time=0
EXTRACT: note_on channel=0 note=45 velocity=95 time=0
EXTRACT: note_off channel=2 note=52 velocity=95 time=0
EXTRACT: note_off channel=2 note=45 velocity=95 time=0
EXTRACT: note_on channel=2 note=52 velocity=95 time=0
EXTRACT: note_on channel=2 note=45 velocity=95 time=0
EXTRACT: note_off channel=6 note=64 velocity=95 time=0
EXTRACT: note_off channel=6 note=59 velocity=95 time=0
EXTRACT: note_on channel=6 note=64 velocity=95 time=0
EXTRACT: note_on channel=6 note=59 velocity=95 time=0
EXTRACT: note_off channel=11 note=64 velocity=31 time=0
EXTRACT: note_off channel=11 note=76 velocity=95 time=0
EXTRACT: note_off channel=11 note=59 velocity=31 time=0
EXTRACT: note_off channel=11 note=71 velocity=95 time=0
EXTRACT: note_on channel=11 note=64 velocity=31 time=0
EXTRACT: note_on channel=11 note=76 velocity=95 time=0
EXTRACT: note_on channel=11 note=59 velocity=31 time=0
EXTRACT: note_on channel=11 note=71 velocity=95 time=0
EXTRACT: note_off channel=8 note=33 velocity=111 time=0
EXTRACT: note_on channel=8 note=33 velocity=111 time=0
EXTRACT: note_off channel=13 note=76 velocity=95 time=0
EXTRACT: note_on channel=13 note=76 velocity=95 time=0
EXTRACT: note_off channel=4 note=64 velocity=95 time=0
EXTRACT: note_on channel=4 note=64 velocity=95 time=0
EXTRACT: note_off channel=15 note=76 velocity=95 time=0
EXTRACT: note_off channel=15 note=64 velocity=95 time=0
EXTRACT: note_on channel=15 note=76 velocity=95 time=0
EXTRACT: note_on channel=15 note=64 velocity=95 time=0
EXTRACT: note_on channel=9 note=36 velocity=111 time=0
EXTRACT: note_on channel=9 note=82 velocity=95 time=0
EXTRACT: note_on channel=9 note=42 velocity=111 time=0
EXTRACT: note_off channel=6 note=64 velocity=95 time=0.16853925
EXTRACT: note_off channel=6 note=59 velocity=95 time=0
EXTRACT: note_on channel=6 note=64 velocity=95 time=0
EXTRACT: note_on channel=6 note=59 velocity=95 time=0
EXTRACT: note_off channel=11 note=64 velocity=31 time=0
EXTRACT: note_off channel=11 note=76 velocity=95 time=0
EXTRACT: note_off channel=11 note=59 velocity=31 time=0
EXTRACT: note_off channel=11 note=71 velocity=95 time=0
EXTRACT: note_on channel=11 note=64 velocity=31 time=0
EXTRACT: note_on channel=11 note=76 velocity=95 time=0
EXTRACT: note_on channel=11 note=59 velocity=31 time=0
EXTRACT: note_on channel=11 note=71 velocity=95 time=0
EXTRACT: note_off channel=13 note=76 velocity=95 time=0
EXTRACT: note_on channel=13 note=76 velocity=95 time=0
EXTRACT: note_off channel=4 note=64 velocity=95 time=0
EXTRACT: note_on channel=4 note=64 velocity=95 time=0
EXTRACT: note_off channel=15 note=76 velocity=95 time=0
EXTRACT: note_off channel=15 note=64 velocity=95 time=0
EXTRACT: note_on channel=15 note=76 velocity=95 time=0
EXTRACT: note_on channel=15 note=64 velocity=95 time=0
EXTRACT: note_off channel=9 note=36 velocity=111 time=0
EXTRACT: note_off channel=9 note=82 velocity=95 time=0
EXTRACT: note_off channel=9 note=42 velocity=111 time=0
EXTRACT: note_off channel=0 note=52 velocity=95 time=0.16853925
EXTRACT: note_off channel=0 note=45 velocity=95 time=0
EXTRACT: note_off channel=2 note=52 velocity=95 time=0
EXTRACT: note_off channel=2 note=45 velocity=95 time=0
EXTRACT: note_off channel=6 note=64 velocity=95 time=0
EXTRACT: note_off channel=6 note=59 velocity=95 time=0
EXTRACT: note_on channel=6 note=64 velocity=95 time=0
EXTRACT: note_on channel=6 note=59 velocity=95 time=0
EXTRACT: note_off channel=11 note=64 velocity=31 time=0
EXTRACT: note_off channel=11 note=76 velocity=95 time=0
EXTRACT: note_off channel=11 note=59 velocity=31 time=0
EXTRACT: note_off channel=11 note=71 velocity=95 time=0
EXTRACT: note_on channel=11 note=64 velocity=31 time=0
EXTRACT: note_on channel=11 note=76 velocity=95 time=0
EXTRACT: note_on channel=11 note=59 velocity=31 time=0
EXTRACT: note_on channel=11 note=71 velocity=95 time=0
EXTRACT: note_off channel=8 note=33 velocity=111 time=0
EXTRACT: note_off channel=13 note=76 velocity=95 time=0
EXTRACT: note_on channel=13 note=76 velocity=95 time=0
EXTRACT: note_off channel=4 note=64 velocity=95 time=0
EXTRACT: note_on channel=4 note=64 velocity=95 time=0
EXTRACT: note_off channel=15 note=76 velocity=95 time=0
EXTRACT: note_off channel=15 note=64 velocity=95 time=0
EXTRACT: note_on channel=15 note=76 velocity=95 time=0
EXTRACT: note_on channel=15 note=64 velocity=95 time=0
EXTRACT: note_on channel=9 note=56 velocity=95 time=0
EXTRACT: note_on channel=9 note=38 velocity=127 time=0
EXTRACT: note_on channel=9 note=82 velocity=95 time=0
EXTRACT: note_on channel=9 note=42 velocity=111 time=0
EXTRACT: note_off channel=6 note=64 velocity=95 time=0.16853925
EXTRACT: note_off channel=6 note=59 velocity=95 time=0
EXTRACT: note_on channel=6 note=64 velocity=95 time=0
EXTRACT: note_on channel=6 note=59 velocity=95 time=0
EXTRACT: note_off channel=11 note=64 velocity=31 time=0
EXTRACT: note_off channel=11 note=76 velocity=95 time=0
EXTRACT: note_off channel=11 note=59 velocity=31 time=0
EXTRACT: note_off channel=11 note=71 velocity=95 time=0
EXTRACT: note_on channel=11 note=64 velocity=31 time=0
EXTRACT: note_on channel=11 note=76 velocity=95 time=0
EXTRACT: note_on channel=11 note=59 velocity=31 time=0
EXTRACT: note_on channel=11 note=71 velocity=95 time=0
EXTRACT: note_off channel=9 note=56 velocity=95 time=0
EXTRACT: note_off channel=9 note=38 velocity=127 time=0
EXTRACT: note_off channel=9 note=82 velocity=95 time=0
EXTRACT: note_off channel=9 note=42 velocity=111 time=0
EXTRACT: note_off channel=6 note=64 velocity=95 time=0.16853925
EXTRACT: note_off channel=6 note=59 velocity=95 time=0
EXTRACT: note_on channel=6 note=64 velocity=95 time=0
EXTRACT: note_on channel=6 note=59 velocity=95 time=0
EXTRACT: note_off channel=11 note=64 velocity=31 time=0
EXTRACT: note_off channel=11 note=76 velocity=95 time=0
EXTRACT: note_off channel=11 note=59 velocity=31 time=0
EXTRACT: note_off channel=11 note=71 velocity=95 time=0
EXTRACT: note_on channel=11 note=64 velocity=31 time=0
EXTRACT: note_on channel=11 note=76 velocity=95 time=0
EXTRACT: note_on channel=11 note=59 velocity=31 time=0
EXTRACT: note_on channel=11 note=71 velocity=95 time=0
EXTRACT: note_off channel=13 note=76 velocity=95 time=0
EXTRACT: note_on channel=13 note=76 velocity=95 time=0
EXTRACT: note_off channel=4 note=64 velocity=95 time=0
EXTRACT: note_on channel=4 note=64 velocity=95 time=0
EXTRACT: note_off channel=15 note=76 velocity=95 time=0
EXTRACT: note_off channel=15 note=64 velocity=95 time=0
EXTRACT: note_on channel=15 note=76 velocity=95 time=0
EXTRACT: note_on channel=15 note=64 velocity=95 time=0
EXTRACT: note_on channel=9 note=82 velocity=95 time=0
EXTRACT: note_on channel=9 note=42 velocity=127 time=0
EXTRACT: note_off channel=6 note=64 velocity=95 time=0.16853925
EXTRACT: note_off channel=6 note=59 velocity=95 time=0
EXTRACT: note_on channel=6 note=64 velocity=95 time=0
EXTRACT: note_on channel=6 note=59 velocity=95 time=0
EXTRACT: note_off channel=11 note=64 velocity=31 time=0
EXTRACT: note_off channel=11 note=76 velocity=95 time=0
EXTRACT: note_off channel=11 note=59 velocity=31 time=0
EXTRACT: note_off channel=11 note=71 velocity=95 time=0
EXTRACT: note_on channel=11 note=64 velocity=31 time=0
EXTRACT: note_on channel=11 note=76 velocity=95 time=0
EXTRACT: note_on channel=11 note=59 velocity=31 time=0
EXTRACT: note_on channel=11 note=71 velocity=95 time=0
EXTRACT: note_on channel=8 note=33 velocity=95 time=0
EXTRACT: note_off channel=13 note=76 velocity=95 time=0
EXTRACT: note_on channel=13 note=78 velocity=95 time=0
EXTRACT: note_off channel=4 note=64 velocity=95 time=0
EXTRACT: note_on channel=4 note=66 velocity=95 time=0
EXTRACT: note_off channel=15 note=76 velocity=95 time=0
EXTRACT: note_off channel=15 note=64 velocity=95 time=0
EXTRACT: note_on channel=15 note=78 velocity=95 time=0
EXTRACT: note_on channel=15 note=66 velocity=95 time=0
EXTRACT: note_off channel=9 note=82 velocity=95 time=0
EXTRACT: note_off channel=9 note=42 velocity=127 time=0
EXTRACT: note_on channel=9 note=82 velocity=79 time=0
EXTRACT: note_on channel=0 note=54 velocity=95 time=0.16853925
EXTRACT: note_on channel=0 note=47 velocity=95 time=0
EXTRACT: note_on channel=2 note=54 velocity=95 time=0
EXTRACT: note_on channel=2 note=47 velocity=95 time=0
EXTRACT: note_off channel=6 note=64 velocity=95 time=0
EXTRACT: note_off channel=6 note=59 velocity=95 time=0
EXTRACT: note_on channel=6 note=64 velocity=95 time=0
EXTRACT: note_on channel=6 note=59 velocity=95 time=0
EXTRACT: note_off channel=11 note=64 velocity=31 time=0
EXTRACT: note_off channel=11 note=76 velocity=95 time=0
EXTRACT: note_off channel=11 note=59 velocity=31 time=0
EXTRACT: note_off channel=11 note=71 velocity=95 time=0
EXTRACT: note_on channel=11 note=64 velocity=31 time=0
EXTRACT: note_on channel=11 note=76 velocity=95 time=0
EXTRACT: note_on channel=11 note=59 velocity=31 time=0
EXTRACT: note_on channel=11 note=71 velocity=95 time=0
EXTRACT: note_off channel=8 note=33 velocity=95 time=0
EXTRACT: note_on channel=8 note=35 velocity=111 time=0
EXTRACT: note_off channel=13 note=78 velocity=95 time=0
EXTRACT: note_on channel=13 note=79 velocity=95 time=0
EXTRACT: note_off channel=4 note=66 velocity=95 time=0
EXTRACT: note_on channel=4 note=67 velocity=95 time=0
EXTRACT: note_off channel=15 note=78 velocity=95 time=0
EXTRACT: note_off channel=15 note=66 velocity=95 time=0
EXTRACT: note_on channel=15 note=79 velocity=95 time=0
EXTRACT: note_on channel=15 note=67 velocity=95 time=0
EXTRACT: note_off channel=9 note=82 velocity=79 time=0
EXTRACT: note_on channel=9 note=56 velocity=95 time=0
EXTRACT: note_on channel=9 note=36 velocity=111 time=0
EXTRACT: note_on channel=9 note=42 velocity=127 time=0
EXTRACT: note_off channel=6 note=64 velocity=95 time=0.16853925
EXTRACT: note_off channel=6 note=59 velocity=95 time=0
EXTRACT: note_on channel=6 note=64 velocity=95 time=0
EXTRACT: note_on channel=6 note=59 velocity=95 time=0
EXTRACT: note_off channel=11 note=64 velocity=31 time=0
EXTRACT: note_off channel=11 note=76 velocity=95 time=0
EXTRACT: note_off channel=11 note=59 velocity=31 time=0
EXTRACT: note_off channel=11 note=71 velocity=95 time=0
EXTRACT: note_on channel=11 note=64 velocity=31 time=0
EXTRACT: note_on channel=11 note=76 velocity=95 time=0
EXTRACT: note_on channel=11 note=59 velocity=31 time=0
EXTRACT: note_on channel=11 note=71 velocity=95 time=0
EXTRACT: note_off channel=13 note=79 velocity=95 time=0
EXTRACT: note_on channel=13 note=78 velocity=95 time=0
EXTRACT: note_off channel=4 note=67 velocity=95 time=0
EXTRACT: note_on channel=4 note=66 velocity=95 time=0
EXTRACT: note_off channel=15 note=79 velocity=95 time=0
EXTRACT: note_off channel=15 note=67 velocity=95 time=0
EXTRACT: note_on channel=15 note=78 velocity=95 time=0
EXTRACT: note_on channel=15 note=66 velocity=95 time=0
EXTRACT: note_off channel=9 note=56 velocity=95 time=0
EXTRACT: note_off channel=9 note=36 velocity=111 time=0
EXTRACT: note_off channel=9 note=42 velocity=127 time=0
EXTRACT: note_on channel=9 note=82 velocity=95 time=0
EXTRACT: note_off channel=0 note=54 velocity=95 time=0.16853925
EXTRACT: note_off channel=0 note=47 velocity=95 time=0
EXTRACT: note_on channel=0 note=54 velocity=95 time=0
EXTRACT: note_on channel=0 note=47 velocity=95 time=0
EXTRACT: note_off channel=2 note=54 velocity=95 time=0
EXTRACT: note_off channel=2 note=47 velocity=95 time=0
EXTRACT: note_on channel=2 note=54 velocity=95 time=0
EXTRACT: note_on channel=2 note=47 velocity=95 time=0
EXTRACT: note_off channel=6 note=64 velocity=95 time=0
EXTRACT: note_off channel=6 note=59 velocity=95 time=0
EXTRACT: note_on channel=6 note=64 velocity=95 time=0
EXTRACT: note_on channel=6 note=59 velocity=95 time=0
EXTRACT: note_off channel=11 note=64 velocity=31 time=0
EXTRACT: note_off channel=11 note=76 velocity=95 time=0
EXTRACT: note_off channel=11 note=59 velocity=31 time=0
EXTRACT: note_off channel=11 note=71 velocity=95 time=0
EXTRACT: note_on channel=11 note=64 velocity=31 time=0
EXTRACT: note_on channel=11 note=76 velocity=95 time=0
EXTRACT: note_on channel=11 note=59 velocity=31 time=0
EXTRACT: note_on channel=11 note=71 velocity=95 time=0
EXTRACT: note_off channel=8 note=35 velocity=111 time=0
EXTRACT: note_on channel=8 note=35 velocity=111 time=0
EXTRACT: note_off channel=9 note=82 velocity=95 time=0
EXTRACT: note_on channel=9 note=36 velocity=111 time=0
EXTRACT: note_on channel=9 note=82 velocity=79 time=0
EXTRACT: note_on channel=9 note=42 velocity=111 time=0
EXTRACT: note_off channel=6 note=64 velocity=95 time=0.16853925
EXTRACT: note_off channel=6 note=59 velocity=95 time=0
EXTRACT: note_on channel=6 note=64 velocity=95 time=0
EXTRACT: note_on channel=6 note=59 velocity=95 time=0
EXTRACT: note_off channel=11 note=64 velocity=31 time=0
EXTRACT: note_off channel=11 note=76 velocity=95 time=0
EXTRACT: note_off channel=11 note=59 velocity=31 time=0
EXTRACT: note_off channel=11 note=71 velocity=95 time=0
EXTRACT: note_on channel=11 note=64 velocity=31 time=0
EXTRACT: note_on channel=11 note=76 velocity=95 time=0
EXTRACT: note_on channel=11 note=59 velocity=31 time=0
EXTRACT: note_on channel=11 note=71 velocity=95 time=0
EXTRACT: note_off channel=13 note=78 velocity=95 time=0
EXTRACT: note_on channel=13 note=79 velocity=95 time=0
EXTRACT: note_off channel=4 note=66 velocity=95 time=0
EXTRACT: note_on channel=4 note=67 velocity=95 time=0
EXTRACT: note_off channel=15 note=78 velocity=95 time=0
EXTRACT: note_off channel=15 note=66 velocity=95 time=0
EXTRACT: note_on channel=15 note=79 velocity=95 time=0
EXTRACT: note_on channel=15 note=67 velocity=95 time=0
EXTRACT: note_off channel=9 note=36 velocity=111 time=0
EXTRACT: note_off channel=9 note=82 velocity=79 time=0
EXTRACT: note_off channel=9 note=42 velocity=111 time=0
EXTRACT: note_off channel=0 note=54 velocity=95 time=0.16853925
EXTRACT: note_off channel=0 note=47 velocity=95 time=0
EXTRACT: note_off channel=2 note=54 velocity=95 time=0
EXTRACT: note_off channel=2 note=47 velocity=95 time=0
EXTRACT: note_off channel=6 note=64 velocity=95 time=0
EXTRACT: note_off channel=6 note=59 velocity=95 time=0
EXTRACT: note_on channel=6 note=64 velocity=95 time=0
EXTRACT: note_on channel=6 note=59 velocity=95 time=0
EXTRACT: note_off channel=11 note=64 velocity=31 time=0
EXTRACT: note_off channel=11 note=76 velocity=95 time=0
EXTRACT: note_off channel=11 note=59 velocity=31 time=0
EXTRACT: note_off channel=11 note=71 velocity=95 time=0
EXTRACT: note_on channel=11 note=64 velocity=31 time=0
EXTRACT: note_on channel=11 note=76 velocity=95 time=0
EXTRACT: note_on channel=11 note=59 velocity=31 time=0
EXTRACT: note_on channel=11 note=71 velocity=95 time=0
EXTRACT: note_off channel=8 note=35 velocity=111 time=0
EXTRACT: note_on channel=9 note=42 velocity=127 time=0
EXTRACT: note_on channel=9 note=38 velocity=111 time=0
EXTRACT: note_on channel=9 note=56 velocity=95 time=0
EXTRACT: note_on channel=9 note=82 velocity=95 time=0
EXTRACT: note_off channel=6 note=64 velocity=95 time=0.16853925
EXTRACT: note_off channel=6 note=59 velocity=95 time=0
EXTRACT: note_on channel=6 note=64 velocity=95 time=0
EXTRACT: note_on channel=6 note=59 velocity=95 time=0
EXTRACT: note_off channel=11 note=64 velocity=31 time=0
EXTRACT: note_off channel=11 note=76 velocity=95 time=0
EXTRACT: note_off channel=11 note=59 velocity=31 time=0
EXTRACT: note_off channel=11 note=71 velocity=95 time=0
EXTRACT: note_on channel=11 note=64 velocity=31 time=0
EXTRACT: note_on channel=11 note=76 velocity=95 time=0
EXTRACT: note_on channel=11 note=59 velocity=31 time=0
EXTRACT: note_on channel=11 note=71 velocity=95 time=0
EXTRACT: note_off channel=13 note=79 velocity=95 time=0
EXTRACT: note_on channel=13 note=78 velocity=95 time=0
EXTRACT: note_off channel=4 note=67 velocity=95 time=0
EXTRACT: note_on channel=4 note=66 velocity=95 time=0
EXTRACT: note_off channel=15 note=79 velocity=95 time=0
EXTRACT: note_off channel=15 note=67 velocity=95 time=0
EXTRACT: note_on channel=15 note=78 velocity=95 time=0
EXTRACT: note_on channel=15 note=66 velocity=95 time=0
EXTRACT: note_off channel=9 note=42 velocity=127 time=0
EXTRACT: note_off channel=9 note=38 velocity=111 time=0
EXTRACT: note_off channel=9 note=56 velocity=95 time=0
EXTRACT: note_off channel=9 note=82 velocity=95 time=0
EXTRACT: note_off channel=6 note=64 velocity=95 time=0.16853925
EXTRACT: note_off channel=6 note=59 velocity=95 time=0
EXTRACT: note_on channel=6 note=64 velocity=95 time=0
EXTRACT: note_on channel=6 note=59 velocity=95 time=0
EXTRACT: note_off channel=11 note=64 velocity=31 time=0
EXTRACT: note_off channel=11 note=76 velocity=95 time=0
EXTRACT: note_off channel=11 note=59 velocity=31 time=0
EXTRACT: note_off channel=11 note=71 velocity=95 time=0
EXTRACT: note_on channel=11 note=64 velocity=31 time=0
EXTRACT: note_on channel=11 note=76 velocity=95 time=0
EXTRACT: note_on channel=11 note=59 velocity=31 time=0
EXTRACT: note_on channel=11 note=71 velocity=95 time=0
EXTRACT: note_off channel=13 note=78 velocity=95 time=0
EXTRACT: note_off channel=4 note=66 velocity=95 time=0
EXTRACT: note_off channel=15 note=78 velocity=95 time=0
EXTRACT: note_off channel=15 note=66 velocity=95 time=0
EXTRACT: note_on channel=9 note=41 velocity=127 time=0
EXTRACT: note_on channel=9 note=42 velocity=127 time=0
EXTRACT: note_off channel=6 note=64 velocity=95 time=0.16853925
EXTRACT: note_off channel=6 note=59 velocity=95 time=0
EXTRACT: note_on channel=6 note=64 velocity=95 time=0
EXTRACT: note_on channel=6 note=59 velocity=95 time=0
EXTRACT: note_off channel=11 note=64 velocity=31 time=0
EXTRACT: note_off channel=11 note=76 velocity=95 time=0
EXTRACT: note_off channel=11 note=59 velocity=31 time=0
EXTRACT: note_off channel=11 note=71 velocity=95 time=0
EXTRACT: note_on channel=11 note=64 velocity=31 time=0
EXTRACT: note_on channel=11 note=76 velocity=95 time=0
EXTRACT: note_on channel=11 note=59 velocity=31 time=0
EXTRACT: note_on channel=11 note=71 velocity=95 time=0
EXTRACT: note_off channel=9 note=41 velocity=127 time=0
EXTRACT: note_off channel=9 note=42 velocity=127 time=0
EXTRACT: note_on channel=0 note=47 velocity=95 time=0.16853925
EXTRACT: note_on channel=0 note=40 velocity=95 time=0
EXTRACT: note_on channel=2 note=47 velocity=95 time=0
EXTRACT: note_on channel=2 note=40 velocity=95 time=0
EXTRACT: note_off channel=6 note=64 velocity=95 time=0
EXTRACT: note_off channel=6 note=59 velocity=95 time=0
EXTRACT: note_on channel=6 note=64 velocity=95 time=0
EXTRACT: note_on channel=6 note=59 velocity=95 time=0
EXTRACT: note_off channel=11 note=64 velocity=31 time=0
EXTRACT: note_off channel=11 note=76 velocity=95 time=0
EXTRACT: note_off channel=11 note=59 velocity=31 time=0
EXTRACT: note_off channel=11 note=71 velocity=95 time=0
EXTRACT: note_on channel=11 note=64 velocity=31 time=0
EXTRACT: note_on channel=11 note=76 velocity=95 time=0
EXTRACT: note_on channel=11 note=59 velocity=31 time=0
EXTRACT: note_on channel=11 note=71 velocity=95 time=0
EXTRACT: note_on channel=8 note=28 velocity=111 time=0
EXTRACT: note_on channel=13 note=76 velocity=95 time=0
EXTRACT: note_on channel=4 note=64 velocity=95 time=0
EXTRACT: note_on channel=15 note=76 velocity=95 time=0
EXTRACT: note_on channel=15 note=64 velocity=95 time=0
EXTRACT: note_on channel=9 note=82 velocity=111 time=0
EXTRACT: note_on channel=9 note=42 velocity=127 time=0
EXTRACT: note_on channel=9 note=36 velocity=111 time=0
EXTRACT: note_on channel=9 note=56 velocity=95 time=0
EXTRACT: note_off channel=6 note=64 velocity=95 time=0.16853925
EXTRACT: note_off channel=6 note=59 velocity=95 time=0
EXTRACT: note_on channel=6 note=64 velocity=95 time=0
EXTRACT: note_on channel=6 note=59 velocity=95 time=0
EXTRACT: note_off channel=11 note=64 velocity=31 time=0
EXTRACT: note_off channel=11 note=76 velocity=95 time=0
EXTRACT: note_off channel=11 note=59 velocity=31 time=0
EXTRACT: note_off channel=11 note=71 velocity=95 time=0
EXTRACT: note_on channel=11 note=64 velocity=31 time=0
EXTRACT: note_on channel=11 note=76 velocity=95 time=0
EXTRACT: note_on channel=11 note=59 velocity=31 time=0
EXTRACT: note_on channel=11 note=71 velocity=95 time=0
EXTRACT: note_off channel=9 note=82 velocity=111 time=0
EXTRACT: note_off channel=9 note=42 velocity=127 time=0
EXTRACT: note_off channel=9 note=36 velocity=111 time=0
EXTRACT: note_off channel=9 note=56 velocity=95 time=0
EXTRACT: note_off channel=0 note=47 velocity=95 time=0.16853925
EXTRACT: note_off channel=0 note=40 velocity=95 time=0
EXTRACT: note_on channel=0 note=47 velocity=95 time=0
EXTRACT: note_on channel=0 note=40 velocity=95 time=0
EXTRACT: note_off channel=2 note=47 velocity=95 time=0
EXTRACT: note_off channel=2 note=40 velocity=95 time=0
EXTRACT: note_on channel=2 note=47 velocity=95 time=0
EXTRACT: note_on channel=2 note=40 velocity=95 time=0
EXTRACT: note_off channel=6 note=64 velocity=95 time=0
EXTRACT: note_off channel=6 note=59 velocity=95 time=0
EXTRACT: note_on channel=6 note=64 velocity=95 time=0
EXTRACT: note_on channel=6 note=59 velocity=95 time=0
EXTRACT: note_off channel=11 note=64 velocity=31 time=0
EXTRACT: note_off channel=11 note=76 velocity=95 time=0
EXTRACT: note_off channel=11 note=59 velocity=31 time=0
EXTRACT: note_off channel=11 note=71 velocity=95 time=0
EXTRACT: note_on channel=11 note=64 velocity=31 time=0
EXTRACT: note_on channel=11 note=76 velocity=95 time=0
EXTRACT: note_on channel=11 note=59 velocity=31 time=0
EXTRACT: note_on channel=11 note=71 velocity=95 time=0
EXTRACT: note_off channel=8 note=28 velocity=111 time=0
EXTRACT: note_on channel=8 note=28 velocity=111 time=0
EXTRACT: note_on channel=9 note=36 velocity=111 time=0
EXTRACT: note_on channel=9 note=42 velocity=111 time=0
EXTRACT: note_off channel=6 note=64 velocity=95 time=0.16853925
EXTRACT: note_off channel=6 note=59 velocity=95 time=0
EXTRACT: note_on channel=6 note=64 velocity=95 time=0
EXTRACT: note_on channel=6 note=59 velocity=95 time=0
EXTRACT: note_off channel=11 note=64 velocity=31 time=0
EXTRACT: note_off channel=11 note=76 velocity=95 time=0
EXTRACT: note_off channel=11 note=59 velocity=31 time=0
EXTRACT: note_off channel=11 note=71 velocity=95 time=0
EXTRACT: note_on channel=11 note=64 velocity=31 time=0
EXTRACT: note_on channel=11 note=76 velocity=95 time=0
EXTRACT: note_on channel=11 note=59 velocity=31 time=0
EXTRACT: note_on channel=11 note=71 velocity=95 time=0
EXTRACT: note_off channel=9 note=36 velocity=111 time=0
EXTRACT: note_off channel=9 note=42 velocity=111 time=0
EXTRACT: note_off channel=0 note=47 velocity=95 time=0.16853925
EXTRACT: note_off channel=0 note=40 velocity=95 time=0
EXTRACT: pitchwheel channel=1 pitch=0 time=0
EXTRACT: note_on channel=1 note=55 velocity=95 time=0
EXTRACT: note_off channel=2 note=47 velocity=95 time=0
EXTRACT: note_off channel=2 note=40 velocity=95 time=0
EXTRACT: note_off channel=6 note=64 velocity=95 time=0
EXTRACT: note_off channel=6 note=59 velocity=95 time=0
EXTRACT: note_on channel=6 note=64 velocity=95 time=0
EXTRACT: note_on channel=6 note=59 velocity=95 time=0
EXTRACT: note_off channel=11 note=64 velocity=31 time=0
EXTRACT: note_off channel=11 note=76 velocity=95 time=0
EXTRACT: note_off channel=11 note=59 velocity=31 time=0
EXTRACT: note_off channel=11 note=71 velocity=95 time=0
EXTRACT: note_on channel=11 note=64 velocity=31 time=0
EXTRACT: note_on channel=11 note=76 velocity=95 time=0
EXTRACT: note_on channel=11 note=59 velocity=31 time=0
EXTRACT: note_on channel=11 note=71 velocity=95 time=0
EXTRACT: note_off channel=8 note=28 velocity=111 time=0
EXTRACT: note_off channel=13 note=76 velocity=95 time=0
EXTRACT: note_on channel=13 note=79 velocity=95 time=0
EXTRACT: note_off channel=4 note=64 velocity=95 time=0
EXTRACT: note_on channel=4 note=67 velocity=95 time=0
EXTRACT: note_off channel=15 note=76 velocity=95 time=0
EXTRACT: note_off channel=15 note=64 velocity=95 time=0
EXTRACT: note_on channel=15 note=79 velocity=95 time=0
EXTRACT: note_on channel=15 note=67 velocity=95 time=0
EXTRACT: note_on channel=9 note=56 velocity=95 time=0
EXTRACT: note_on channel=9 note=38 velocity=111 time=0
EXTRACT: note_on channel=9 note=82 velocity=95 time=0
EXTRACT: note_on channel=9 note=42 velocity=111 time=0
EXTRACT: pitchwheel channel=1 pitch=0 time=0.1123595
EXTRACT: note_off channel=6 note=64 velocity=95 time=0.05617975
EXTRACT: note_off channel=6 note=59 velocity=95 time=0
EXTRACT: note_on channel=6 note=64 velocity=95 time=0
EXTRACT: note_on channel=6 note=59 velocity=95 time=0
EXTRACT: note_off channel=11 note=64 velocity=31 time=0
EXTRACT: note_off channel=11 note=76 velocity=95 time=0
EXTRACT: note_off channel=11 note=59 velocity=31 time=0
EXTRACT: note_off channel=11 note=71 velocity=95 time=0
EXTRACT: note_on channel=11 note=64 velocity=31 time=0
EXTRACT: note_on channel=11 note=76 velocity=95 time=0
EXTRACT: note_on channel=11 note=59 velocity=31 time=0
EXTRACT: note_on channel=11 note=71 velocity=95 time=0
EXTRACT: note_off channel=9 note=56 velocity=95 time=0
EXTRACT: note_off channel=9 note=38 velocity=111 time=0
EXTRACT: note_off channel=9 note=82 velocity=95 time=0
EXTRACT: note_off channel=9 note=42 velocity=111 time=0
EXTRACT: pitchwheel channel=1 pitch=128 time=0.05617975
EXTRACT: pitchwheel channel=1 pitch=256 time=0.1123595
EXTRACT: pitchwheel channel=1 pitch=256 time=0
EXTRACT: note_off channel=6 note=64 velocity=95 time=0
EXTRACT: note_off channel=6 note=59 velocity=95 time=0
EXTRACT: note_on channel=6 note=64 velocity=95 time=0
EXTRACT: note_on channel=6 note=59 velocity=95 time=0
EXTRACT: note_off channel=11 note=64 velocity=31 time=0
EXTRACT: note_off channel=11 note=76 velocity=95 time=0
EXTRACT: note_off channel=11 note=59 velocity=31 time=0
EXTRACT: note_off channel=11 note=71 velocity=95 time=0
EXTRACT: note_on channel=11 note=64 velocity=31 time=0
EXTRACT: note_on channel=11 note=76 velocity=95 time=0
EXTRACT: note_on channel=11 note=59 velocity=31 time=0
EXTRACT: note_on channel=11 note=71 velocity=95 time=0
EXTRACT: note_on channel=9 note=82 velocity=95 time=0
EXTRACT: note_on channel=9 note=42 velocity=111 time=0
EXTRACT: note_off channel=6 note=64 velocity=95 time=0.16853925
EXTRACT: note_off channel=6 note=59 velocity=95 time=0
EXTRACT: note_on channel=6 note=64 velocity=95 time=0
EXTRACT: note_on channel=6 note=59 velocity=95 time=0
EXTRACT: note_off channel=11 note=64 velocity=31 time=0
EXTRACT: note_off channel=11 note=76 velocity=95 time=0
EXTRACT: note_off channel=11 note=59 velocity=31 time=0
EXTRACT: note_off channel=11 note=71 velocity=95 time=0
EXTRACT: note_on channel=11 note=64 velocity=31 time=0
EXTRACT: note_on channel=11 note=76 velocity=95 time=0
EXTRACT: note_on channel=11 note=59 velocity=31 time=0
EXTRACT: note_on channel=11 note=71 velocity=95 time=0
EXTRACT: note_on channel=8 note=28 velocity=95 time=0
EXTRACT: note_off channel=9 note=82 velocity=95 time=0
EXTRACT: note_off channel=9 note=42 velocity=111 time=0
EXTRACT: note_on channel=9 note=82 velocity=79 time=0
EXTRACT: pitchwheel channel=1 pitch=256 time=0.1123595
EXTRACT: pitchwheel channel=1 pitch=128 time=0.028089875
EXTRACT: pitchwheel channel=1 pitch=0 time=0.028089875
EXTRACT: pitchwheel channel=1 pitch=0 time=0
EXTRACT: pitchwheel channel=1 pitch=0 time=0
EXTRACT: note_off channel=1 note=55 velocity=95 time=0
EXTRACT: note_on channel=0 note=47 velocity=95 time=0
EXTRACT: note_on channel=0 note=40 velocity=95 time=0
EXTRACT: note_on channel=2 note=47 velocity=95 time=0
EXTRACT: note_on channel=2 note=40 velocity=95 time=0
EXTRACT: note_off channel=6 note=64 velocity=95 time=0
EXTRACT: note_off channel=6 note=59 velocity=95 time=0
EXTRACT: note_on channel=6 note=64 velocity=95 time=0
EXTRACT: note_on channel=6 note=59 velocity=95 time=0
EXTRACT: note_off channel=11 note=64 velocity=31 time=0
EXTRACT: note_off channel=11 note=76 velocity=95 time=0
EXTRACT: note_off channel=11 note=59 velocity=31 time=0
EXTRACT: note_off channel=11 note=71 velocity=95 time=0
EXTRACT: note_on channel=11 note=64 velocity=31 time=0
EXTRACT: note_on channel=11 note=76 velocity=95 time=0
EXTRACT: note_on channel=11 note=59 velocity=31 time=0
EXTRACT: note_on channel=11 note=71 velocity=95 time=0
EXTRACT: note_off channel=8 note=28 velocity=95 time=0
EXTRACT: note_on channel=8 note=28 velocity=111 time=0
EXTRACT: note_off channel=13 note=79 velocity=95 time=0
EXTRACT: note_on channel=13 note=76 velocity=95 time=0
EXTRACT: note_off channel=4 note=67 velocity=95 time=0
EXTRACT: note_on channel=4 note=64 velocity=95 time=0
EXTRACT: note_off channel=15 note=79 velocity=95 time=0
EXTRACT: note_off channel=15 note=67 velocity=95 time=0
EXTRACT: note_on channel=15 note=76 velocity=95 time=0
EXTRACT: note_on channel=15 note=64 velocity=95 time=0
EXTRACT: note_off channel=9 note=82 velocity=79 time=0
EXTRACT: note_on channel=9 note=56 velocity=95 time=0
EXTRACT: note_on channel=9 note=36 velocity=111 time=0
EXTRACT: note_on channel=9 note=42 velocity=111 time=0
EXTRACT: note_off channel=6 note=64 velocity=95 time=0.16853925
EXTRACT: note_off channel=6 note=59 velocity=95 time=0
EXTRACT: note_on channel=6 note=64 velocity=95 time=0
EXTRACT: note_on channel=6 note=59 velocity=95 time=0
EXTRACT: note_off channel=11 note=64 velocity=31 time=0
EXTRACT: note_off channel=11 note=76 velocity=95 time=0
EXTRACT: note_off channel=11 note=59 velocity=31 time=0
EXTRACT: note_off channel=11 note=71 velocity=95 time=0
EXTRACT: note_on channel=11 note=64 velocity=31 time=0
EXTRACT: note_on channel=11 note=76 velocity=95 time=0
EXTRACT: note_on channel=11 note=59 velocity=31 time=0
EXTRACT: note_on channel=11 note=71 velocity=95 time=0
EXTRACT: note_off channel=13 note=76 velocity=95 time=0
EXTRACT: note_off channel=4 note=64 velocity=95 time=0
EXTRACT: note_off channel=15 note=76 velocity=95 time=0
EXTRACT: note_off channel=15 note=64 velocity=95 time=0
EXTRACT: note_off channel=9 note=56 velocity=95 time=0
EXTRACT: note_off channel=9 note=36 velocity=111 time=0
EXTRACT: note_off channel=9 note=42 velocity=111 time=0
EXTRACT: note_on channel=9 note=82 velocity=95 time=0
EXTRACT: note_off channel=0 note=47 velocity=95 time=0.16853925
EXTRACT: note_off channel=0 note=40 velocity=95 time=0
EXTRACT: note_on channel=0 note=47 velocity=95 time=0
EXTRACT: note_on channel=0 note=40 velocity=95 time=0
EXTRACT: note_off channel=2 note=47 velocity=95 time=0
EXTRACT: note_off channel=2 note=40 velocity=95 time=0
EXTRACT: note_on channel=2 note=47 velocity=95 time=0
EXTRACT: note_on channel=2 note=40 velocity=95 time=0
EXTRACT: note_off channel=6 note=64 velocity=95 time=0
EXTRACT: note_off channel=6 note=59 velocity=95 time=0
EXTRACT: note_on channel=6 note=64 velocity=95 time=0
EXTRACT: note_on channel=6 note=59 velocity=95 time=0
EXTRACT: note_off channel=11 note=64 velocity=31 time=0
EXTRACT: note_off channel=11 note=76 velocity=95 time=0
EXTRACT: note_off channel=11 note=59 velocity=31 time=0
EXTRACT: note_off channel=11 note=71 velocity=95 time=0
EXTRACT: note_on channel=11 note=64 velocity=31 time=0
EXTRACT: note_on channel=11 note=76 velocity=95 time=0
EXTRACT: note_on channel=11 note=59 velocity=31 time=0
EXTRACT: note_on channel=11 note=71 velocity=95 time=0
EXTRACT: note_off channel=8 note=28 velocity=111 time=0
EXTRACT: note_on channel=8 note=28 velocity=111 time=0
EXTRACT: note_on channel=13 note=74 velocity=95 time=0
EXTRACT: note_on channel=4 note=62 velocity=95 time=0
EXTRACT: note_on channel=15 note=74 velocity=95 time=0
EXTRACT: note_on channel=15 note=62 velocity=95 time=0
EXTRACT: note_off channel=9 note=82 velocity=95 time=0
EXTRACT: note_on channel=9 note=42 velocity=111 time=0
EXTRACT: note_on channel=9 note=36 velocity=111 time=0
EXTRACT: note_on channel=9 note=82 velocity=79 time=0
EXTRACT: note_off channel=6 note=64 velocity=95 time=0.16853925
EXTRACT: note_off channel=6 note=59 velocity=95 time=0
EXTRACT: note_on channel=6 note=64 velocity=95 time=0
EXTRACT: note_on channel=6 note=59 velocity=95 time=0
EXTRACT: note_off channel=11 note=64 velocity=31 time=0
EXTRACT: note_off channel=11 note=76 velocity=95 time=0
EXTRACT: note_off channel=11 note=59 velocity=31 time=0
EXTRACT: note_off channel=11 note=71 velocity=95 time=0
EXTRACT: note_on channel=11 note=64 velocity=31 time=0
EXTRACT: note_on channel=11 note=76 velocity=95 time=0
EXTRACT: note_on channel=11 note=59 velocity=31 time=0
EXTRACT: note_on channel=11 note=71 velocity=95 time=0
EXTRACT: note_off channel=13 note=74 velocity=95 time=0
EXTRACT: note_on channel=13 note=76 velocity=95 time=0
EXTRACT: note_off channel=4 note=62 velocity=95 time=0
EXTRACT: note_on channel=4 note=64 velocity=95 time=0
EXTRACT: note_off channel=15 note=74 velocity=95 time=0
EXTRACT: note_off channel=15 note=62 velocity=95 time=0
EXTRACT: note_on channel=15 note=76 velocity=95 time=0
EXTRACT: note_on channel=15 note=64 velocity=95 time=0
EXTRACT: note_off channel=9 note=42 velocity=111 time=0
EXTRACT: note_off channel=9 note=36 velocity=111 time=0
EXTRACT: note_off channel=9 note=82 velocity=79 time=0
EXTRACT: note_off channel=0 note=47 velocity=95 time=0.16853925
EXTRACT: note_off channel=0 note=40 velocity=95 time=0
EXTRACT: note_off channel=2 note=47 velocity=95 time=0
EXTRACT: note_off channel=2 note=40 velocity=95 time=0
EXTRACT: note_off channel=6 note=64 velocity=95 time=0
EXTRACT: note_off channel=6 note=59 velocity=95 time=0
EXTRACT: note_on channel=6 note=64 velocity=95 time=0
EXTRACT: note_on channel=6 note=59 velocity=95 time=0
EXTRACT: note_off channel=11 note=64 velocity=31 time=0
EXTRACT: note_off channel=11 note=76 velocity=95 time=0
EXTRACT: note_off channel=11 note=59 velocity=31 time=0
EXTRACT: note_off channel=11 note=71 velocity=95 time=0
EXTRACT: note_on channel=11 note=64 velocity=31 time=0
EXTRACT: note_on channel=11 note=76 velocity=95 time=0
EXTRACT: note_on channel=11 note=59 velocity=31 time=0
EXTRACT: note_on channel=11 note=71 velocity=95 time=0
EXTRACT: note_off channel=8 note=28 velocity=111 time=0
EXTRACT: note_on channel=9 note=56 velocity=95 time=0
EXTRACT: note_on channel=9 note=42 velocity=111 time=0
EXTRACT: note_on channel=9 note=38 velocity=127 time=0
EXTRACT: note_on channel=9 note=82 velocity=95 time=0
EXTRACT: note_on channel=0 note=43 velocity=95 time=0.16853925
EXTRACT: note_off channel=6 note=64 velocity=95 time=0
EXTRACT: note_off channel=6 note=59 velocity=95 time=0
EXTRACT: note_on channel=6 note=64 velocity=95 time=0
EXTRACT: note_on channel=6 note=59 velocity=95 time=0
EXTRACT: note_off channel=11 note=64 velocity=31 time=0
EXTRACT: note_off channel=11 note=76 velocity=95 time=0
EXTRACT: note_off channel=11 note=59 velocity=31 time=0
EXTRACT: note_off channel=11 note=71 velocity=95 time=0
EXTRACT: note_on channel=11 note=64 velocity=31 time=0
EXTRACT: note_on channel=11 note=76 velocity=95 time=0
EXTRACT: note_on channel=11 note=59 velocity=31 time=0
EXTRACT: note_on channel=11 note=71 velocity=95 time=0
EXTRACT: note_on channel=8 note=31 velocity=127 time=0
EXTRACT: note_off channel=9 note=56 velocity=95 time=0
EXTRACT: note_off channel=9 note=42 velocity=111 time=0
EXTRACT: note_off channel=9 note=38 velocity=127 time=0
EXTRACT: note_off channel=9 note=82 velocity=95 time=0
EXTRACT: note_off channel=6 note=64 velocity=95 time=0.16853925
EXTRACT: note_off channel=6 note=59 velocity=95 time=0
EXTRACT: note_on channel=6 note=64 velocity=95 time=0
EXTRACT: note_on channel=6 note=59 velocity=95 time=0
EXTRACT: note_off channel=11 note=64 velocity=31 time=0
EXTRACT: note_off channel=11 note=76 velocity=95 time=0
EXTRACT: note_off channel=11 note=59 velocity=31 time=0
EXTRACT: note_off channel=11 note=71 velocity=95 time=0
EXTRACT: note_on channel=11 note=64 velocity=31 time=0
EXTRACT: note_on channel=11 note=76 velocity=95 time=0
EXTRACT: note_on channel=11 note=59 velocity=31 time=0
EXTRACT: note_on channel=11 note=71 velocity=95 time=0
EXTRACT: note_off channel=13 note=76 velocity=95 time=0
EXTRACT: note_off channel=4 note=64 velocity=95 time=0
EXTRACT: note_off channel=15 note=76 velocity=95 time=0
EXTRACT: note_off channel=15 note=64 velocity=95 time=0
EXTRACT: note_on channel=9 note=42 velocity=111 time=0
EXTRACT: note_off channel=6 note=64 velocity=95 time=0.16853925
EXTRACT: note_off channel=6 note=59 velocity=95 time=0
EXTRACT: note_on channel=6 note=64 velocity=95 time=0
EXTRACT: note_on channel=6 note=59 velocity=95 time=0
EXTRACT: note_off channel=11 note=64 velocity=31 time=0
EXTRACT: note_off channel=11 note=76 velocity=95 time=0
EXTRACT: note_off channel=11 note=59 velocity=31 time=0
EXTRACT: note_off channel=11 note=71 velocity=95 time=0
EXTRACT: note_on channel=11 note=64 velocity=31 time=0
EXTRACT: note_on channel=11 note=76 velocity=95 time=0
EXTRACT: note_on channel=11 note=59 velocity=31 time=0
EXTRACT: note_on channel=11 note=71 velocity=95 time=0
EXTRACT: note_on channel=13 note=71 velocity=95 time=0
EXTRACT: note_on channel=4 note=59 velocity=95 time=0
EXTRACT: note_on channel=15 note=71 velocity=95 time=0
EXTRACT: note_on channel=15 note=59 velocity=95 time=0
EXTRACT: note_off channel=9 note=42 velocity=111 time=0
EXTRACT: note_off channel=0 note=43 velocity=95 time=0
EXTRACT: note_on channel=0 note=52 velocity=95 time=0
EXTRACT: note_on channel=0 note=45 velocity=95 time=0
EXTRACT: note_on channel=2 note=52 velocity=95 time=0
EXTRACT: note_on channel=2 note=45 velocity=95 time=0
EXTRACT: note_off channel=6 note=64 velocity=95 time=0
EXTRACT: note_off channel=6 note=59 velocity=95 time=0
EXTRACT: note_on channel=6 note=64 velocity=95 time=0
EXTRACT: note_on channel=6 note=59 velocity=95 time=0
EXTRACT: note_off channel=11 note=64 velocity=31 time=0
EXTRACT: note_off channel=11 note=76 velocity=95 time=0
EXTRACT: note_off channel=11 note=59 velocity=31 time=0
EXTRACT: note_off channel=11 note=71 velocity=95 time=0
EXTRACT: note_on channel=11 note=64 velocity=31 time=0
EXTRACT: note_on channel=11 note=76 velocity=95 time=0
EXTRACT: note_on channel=11 note=59 velocity=31 time=0
EXTRACT: note_on channel=11 note=71 velocity=95 time=0
EXTRACT: note_off channel=8 note=31 velocity=127 time=0
EXTRACT: note_on channel=8 note=33 velocity=111 time=0
EXTRACT: note_off channel=13 note=71 velocity=95 time=0
EXTRACT: note_on channel=13 note=76 velocity=95 time=0
EXTRACT: note_off channel=4 note=59 velocity=95 time=0
EXTRACT: note_on channel=4 note=64 velocity=95 time=0
EXTRACT: note_off channel=15 note=71 velocity=95 time=0
EXTRACT: note_off channel=15 note=59 velocity=95 time=0
EXTRACT: note_on channel=15 note=76 velocity=95 time=0
EXTRACT: note_on channel=15 note=64 velocity=95 time=0
EXTRACT: note_on channel=9 note=82 velocity=111 time=0
EXTRACT: note_on channel=9 note=42 velocity=111 time=0
EXTRACT: note_on channel=9 note=56 velocity=95 time=0
EXTRACT: note_on channel=9 note=36 velocity=111 time=0
EXTRACT: note_off channel=6 note=64 velocity=95 time=0.16853925
EXTRACT: note_off channel=6 note=59 velocity=95 time=0
EXTRACT: note_on channel=6 note=64 velocity=95 time=0
EXTRACT: note_on channel=6 note=59 velocity=95 time=0
EXTRACT: note_off channel=11 note=64 velocity=31 time=0
EXTRACT: note_off channel=11 note=76 velocity=95 time=0
EXTRACT: note_off channel=11 note=59 velocity=31 time=0
EXTRACT: note_off channel=11 note=71 velocity=95 time=0
EXTRACT: note_on channel=11 note=64 velocity=31 time=0
EXTRACT: note_on channel=11 note=76 velocity=95 time=0
EXTRACT: note_on channel=11 note=59 velocity=31 time=0
EXTRACT: note_on channel=11 note=71 velocity=95 time=0
EXTRACT: note_off channel=13 note=76 velocity=95 time=0
EXTRACT: note_on channel=13 note=76 velocity=95 time=0
EXTRACT: note_off channel=4 note=64 velocity=95 time=0
EXTRACT: note_on channel=4 note=64 velocity=95 time=0
EXTRACT: note_off channel=15 note=76 velocity=95 time=0
EXTRACT: note_off channel=15 note=64 velocity=95 time=0
EXTRACT: note_on channel=15 note=76 velocity=95 time=0
EXTRACT: note_on channel=15 note=64 velocity=95 time=0
EXTRACT: note_off channel=9 note=82 velocity=111 time=0
EXTRACT: note_off channel=9 note=42 velocity=111 time=0
EXTRACT: note_off channel=9 note=56 velocity=95 time=0
EXTRACT: note_off channel=9 note=36 velocity=111 time=0
EXTRACT: note_off channel=0 note=52 velocity=95 time=0.16853925
EXTRACT: note_off channel=0 note=45 velocity=95 time=0
EXTRACT: note_on channel=0 note=52 velocity=95 time=0
EXTRACT: note_on channel=0 note=45 velocity=95 time=0
EXTRACT: note_off channel=2 note=52 velocity=95 time=0
EXTRACT: note_off channel=2 note=45 velocity=95 time=0
EXTRACT: note_on channel=2 note=52 velocity=95 time=0
EXTRACT: note_on channel=2 note=45 velocity=95 time=0
EXTRACT: note_off channel=6 note=64 velocity=95 time=0
EXTRACT: note_off channel=6 note=59 velocity=95 time=0
EXTRACT: note_on channel=6 note=64 velocity=95 time=0
EXTRACT: note_on channel=6 note=59 velocity=95 time=0
EXTRACT: note_off channel=11 note=64 velocity=31 time=0
EXTRACT: note_off channel=11 note=76 velocity=95 time=0
EXTRACT: note_off channel=11 note=59 velocity=31 time=0
EXTRACT: note_off channel=11 note=71 velocity=95 time=0
EXTRACT: note_on channel=11 note=64 velocity=31 time=0
EXTRACT: note_on channel=11 note=76 velocity=95 time=0
EXTRACT: note_on channel=11 note=59 velocity=31 time=0
EXTRACT: note_on channel=11 note=71 velocity=95 time=0
EXTRACT: note_off channel=8 note=33 velocity=111 time=0
EXTRACT: note_on channel=8 note=33 velocity=111 time=0
EXTRACT: note_off channel=13 note=76 velocity=95 time=0
EXTRACT: note_on channel=13 note=76 velocity=95 time=0
EXTRACT: note_off channel=4 note=64 velocity=95 time=0
EXTRACT: note_on channel=4 note=64 velocity=95 time=0
EXTRACT: note_off channel=15 note=76 velocity=95 time=0
EXTRACT: note_off channel=15 note=64 velocity=95 time=0
EXTRACT: note_on channel=15 note=76 velocity=95 time=0
EXTRACT: note_on channel=15 note=64 velocity=95 time=0
EXTRACT: note_on channel=9 note=82 velocity=95 time=0
EXTRACT: note_on channel=9 note=42 velocity=111 time=0
EXTRACT: note_on channel=9 note=36 velocity=111 time=0
EXTRACT: note_off channel=6 note=64 velocity=95 time=0.16853925
EXTRACT: note_off channel=6 note=59 velocity=95 time=0
EXTRACT: note_on channel=6 note=64 velocity=95 time=0
EXTRACT: note_on channel=6 note=59 velocity=95 time=0
EXTRACT: note_off channel=11 note=64 velocity=31 time=0
EXTRACT: note_off channel=11 note=76 velocity=95 time=0
EXTRACT: note_off channel=11 note=59 velocity=31 time=0
EXTRACT: note_off channel=11 note=71 velocity=95 time=0
EXTRACT: note_on channel=11 note=64 velocity=31 time=0
EXTRACT: note_on channel=11 note=76 velocity=95 time=0
EXTRACT: note_on channel=11 note=59 velocity=31 time=0
EXTRACT: note_on channel=11 note=71 velocity=95 time=0
EXTRACT: note_off channel=13 note=76 velocity=95 time=0
EXTRACT: note_on channel=13 note=76 velocity=95 time=0
EXTRACT: note_off channel=4 note=64 velocity=95 time=0
EXTRACT: note_on channel=4 note=64 velocity=95 time=0
EXTRACT: note_off channel=15 note=76 velocity=95 time=0
EXTRACT: note_off channel=15 note=64 velocity=95 time=0
EXTRACT: note_on channel=15 note=76 velocity=95 time=0
EXTRACT: note_on channel=15 note=64 velocity=95 time=0
EXTRACT: note_off channel=9 note=82 velocity=95 time=0
EXTRACT: note_off channel=9 note=42 velocity=111 time=0
EXTRACT: note_off channel=9 note=36 velocity=111 time=0
EXTRACT: note_on channel=9 note=82 velocity=79 time=0
EXTRACT: note_off channel=0 note=52 velocity=95 time=0.16853925
EXTRACT: note_off channel=0 note=45 velocity=95 time=0
EXTRACT: note_off channel=2 note=52 velocity=95 time=0
EXTRACT: note_off channel=2 note=45 velocity=95 time=0
EXTRACT: note_off channel=6 note=64 velocity=95 time=0
EXTRACT: note_off channel=6 note=59 velocity=95 time=0
EXTRACT: note_on channel=6 note=64 velocity=95 time=0
EXTRACT: note_on channel=6 note=59 velocity=95 time=0
EXTRACT: note_off channel=11 note=64 velocity=31 time=0
EXTRACT: note_off channel=11 note=76 velocity=95 time=0
EXTRACT: note_off channel=11 note=59 velocity=31 time=0
EXTRACT: note_off channel=11 note=71 velocity=95 time=0
EXTRACT: note_on channel=11 note=64 velocity=31 time=0
EXTRACT: note_on channel=11 note=76 velocity=95 time=0
EXTRACT: note_on channel=11 note=59 velocity=31 time=0
EXTRACT: note_on channel=11 note=71 velocity=95 time=0
EXTRACT: note_off channel=8 note=33 velocity=111 time=0
EXTRACT: note_off channel=13 note=76 velocity=95 time=0
EXTRACT: note_on channel=13 note=76 velocity=95 time=0
EXTRACT: note_off channel=4 note=64 velocity=95 time=0
EXTRACT: note_on channel=4 note=64 velocity=95 time=0
EXTRACT: note_off channel=15 note=76 velocity=95 time=0
EXTRACT: note_off channel=15 note=64 velocity=95 time=0
EXTRACT: note_on channel=15 note=76 velocity=95 time=0
EXTRACT: note_on channel=15 note=64 velocity=95 time=0
EXTRACT: note_off channel=9 note=82 velocity=79 time=0
EXTRACT: note_on channel=9 note=42 velocity=111 time=0
EXTRACT: note_on channel=9 note=38 velocity=127 time=0
EXTRACT: note_on channel=9 note=82 velocity=79 time=0
EXTRACT: note_on channel=9 note=56 velocity=95 time=0
EXTRACT: note_off channel=6 note=64 velocity=95 time=0.16853925
EXTRACT: note_off channel=6 note=59 velocity=95 time=0
EXTRACT: note_on channel=6 note=64 velocity=95 time=0
EXTRACT: note_on channel=6 note=59 velocity=95 time=0
EXTRACT: note_off channel=11 note=64 velocity=31 time=0
EXTRACT: note_off channel=11 note=76 velocity=95 time=0
EXTRACT: note_off channel=11 note=59 velocity=31 time=0
EXTRACT: note_off channel=11 note=71 velocity=95 time=0
EXTRACT: note_on channel=11 note=64 velocity=31 time=0
EXTRACT: note_on channel=11 note=76 velocity=95 time=0
EXTRACT: note_on channel=11 note=59 velocity=31 time=0
EXTRACT: note_on channel=11 note=71 velocity=95 time=0
EXTRACT: note_off channel=9 note=42 velocity=111 time=0
EXTRACT: note_off channel=9 note=38 velocity=127 time=0
EXTRACT: note_off channel=9 note=82 velocity=79 time=0
EXTRACT: note_off channel=9 note=56 velocity=95 time=0
EXTRACT: note_on channel=9 note=82 velocity=95 time=0
EXTRACT: note_off channel=6 note=64 velocity=95 time=0.16853925
EXTRACT: note_off channel=6 note=59 velocity=95 time=0
EXTRACT: note_on channel=6 note=64 velocity=95 time=0
EXTRACT: note_on channel=6 note=59 velocity=95 time=0
EXTRACT: note_off channel=11 note=64 velocity=31 time=0
EXTRACT: note_off channel=11 note=76 velocity=95 time=0
EXTRACT: note_off channel=11 note=59 velocity=31 time=0
EXTRACT: note_off channel=11 note=71 velocity=95 time=0
EXTRACT: note_on channel=11 note=64 velocity=31 time=0
EXTRACT: note_on channel=11 note=76 velocity=95 time=0
EXTRACT: note_on channel=11 note=59 velocity=31 time=0
EXTRACT: note_on channel=11 note=71 velocity=95 time=0
EXTRACT: note_off channel=13 note=76 velocity=95 time=0
EXTRACT: note_on channel=13 note=78 velocity=95 time=0
EXTRACT: note_off channel=4 note=64 velocity=95 time=0
EXTRACT: note_on channel=4 note=66 velocity=95 time=0
EXTRACT: note_off channel=15 note=76 velocity=95 time=0
EXTRACT: note_off channel=15 note=64 velocity=95 time=0
EXTRACT: note_on channel=15 note=78 velocity=95 time=0
EXTRACT: note_on channel=15 note=66 velocity=95 time=0
EXTRACT: note_off channel=9 note=82 velocity=95 time=0
EXTRACT: note_on channel=9 note=42 velocity=127 time=0
EXTRACT: note_off channel=6 note=64 velocity=95 time=0.16853925
EXTRACT: note_off channel=6 note=59 velocity=95 time=0
EXTRACT: note_on channel=6 note=64 velocity=95 time=0
EXTRACT: note_on channel=6 note=59 velocity=95 time=0
EXTRACT: note_off channel=11 note=64 velocity=31 time=0
EXTRACT: note_off channel=11 note=76 velocity=95 time=0
EXTRACT: note_off channel=11 note=59 velocity=31 time=0
EXTRACT: note_off channel=11 note=71 velocity=95 time=0
EXTRACT: note_on channel=11 note=64 velocity=31 time=0
EXTRACT: note_on channel=11 note=76 velocity=95 time=0
EXTRACT: note_on channel=11 note=59 velocity=31 time=0
EXTRACT: note_on channel=11 note=71 velocity=95 time=0
EXTRACT: note_on channel=8 note=33 velocity=95 time=0
EXTRACT: note_off channel=9 note=42 velocity=127 time=0
EXTRACT: note_on channel=9 note=82 velocity=95 time=0
EXTRACT: note_on channel=0 note=54 velocity=95 time=0.16853925
EXTRACT: note_on channel=0 note=47 velocity=95 time=0
EXTRACT: note_on channel=2 note=54 velocity=95 time=0
EXTRACT: note_on channel=2 note=47 velocity=95 time=0
EXTRACT: note_off channel=6 note=64 velocity=95 time=0
EXTRACT: note_off channel=6 note=59 velocity=95 time=0
EXTRACT: note_on channel=6 note=64 velocity=95 time=0
EXTRACT: note_on channel=6 note=59 velocity=95 time=0
EXTRACT: note_off channel=11 note=64 velocity=31 time=0
EXTRACT: note_off channel=11 note=76 velocity=95 time=0
EXTRACT: note_off channel=11 note=59 velocity=31 time=0
EXTRACT: note_off channel=11 note=71 velocity=95 time=0
EXTRACT: note_on channel=11 note=64 velocity=31 time=0
EXTRACT: note_on channel=11 note=76 velocity=95 time=0
EXTRACT: note_on channel=11 note=59 velocity=31 time=0
EXTRACT: note_on channel=11 note=71 velocity=95 time=0
EXTRACT: note_off channel=8 note=33 velocity=95 time=0
EXTRACT: note_on channel=8 note=35 velocity=111 time=0
EXTRACT: note_off channel=13 note=78 velocity=95 time=0
EXTRACT: note_on channel=13 note=79 velocity=95 time=0
EXTRACT: note_off channel=4 note=66 velocity=95 time=0
EXTRACT: note_on channel=4 note=67 velocity=95 time=0
EXTRACT: note_off channel=15 note=78 velocity=95 time=0
EXTRACT: note_off channel=15 note=66 velocity=95 time=0
EXTRACT: note_on channel=15 note=79 velocity=95 time=0
EXTRACT: note_on channel=15 note=67 velocity=95 time=0
EXTRACT: note_off channel=9 note=82 velocity=95 time=0
EXTRACT: note_on channel=9 note=42 velocity=127 time=0
EXTRACT: note_on channel=9 note=36 velocity=111 time=0
EXTRACT: note_on channel=9 note=56 velocity=95 time=0
EXTRACT: note_off channel=6 note=64 velocity=95 time=0.16853925
EXTRACT: note_off channel=6 note=59 velocity=95 time=0
EXTRACT: note_on channel=6 note=64 velocity=95 time=0
EXTRACT: note_on channel=6 note=59 velocity=95 time=0
EXTRACT: note_off channel=11 note=64 velocity=31 time=0
EXTRACT: note_off channel=11 note=76 velocity=95 time=0
EXTRACT: note_off channel=11 note=59 velocity=31 time=0
EXTRACT: note_off channel=11 note=71 velocity=95 time=0
EXTRACT: note_on channel=11 note=64 velocity=31 time=0
EXTRACT: note_on channel=11 note=76 velocity=95 time=0
EXTRACT: note_on channel=11 note=59 velocity=31 time=0
EXTRACT: note_on channel=11 note=71 velocity=95 time=0
EXTRACT: note_off channel=9 note=42 velocity=127 time=0
EXTRACT: note_off channel=9 note=36 velocity=111 time=0
EXTRACT: note_off channel=9 note=56 velocity=95 time=0
EXTRACT: note_on channel=9 note=82 velocity=95 time=0
EXTRACT: note_off channel=0 note=54 velocity=95 time=0.16853925
EXTRACT: note_off channel=0 note=47 velocity=95 time=0
EXTRACT: note_on channel=0 note=47 velocity=95 time=0
EXTRACT: note_off channel=2 note=54 velocity=95 time=0
EXTRACT: note_off channel=2 note=47 velocity=95 time=0
EXTRACT: note_on channel=2 note=47 velocity=95 time=0
EXTRACT: note_off channel=6 note=64 velocity=95 time=0
EXTRACT: note_off channel=6 note=59 velocity=95 time=0
EXTRACT: note_on channel=6 note=64 velocity=95 time=0
EXTRACT: note_on channel=6 note=59 velocity=95 time=0
EXTRACT: note_off channel=11 note=64 velocity=31 time=0
EXTRACT: note_off channel=11 note=76 velocity=95 time=0
EXTRACT: note_off channel=11 note=59 velocity=31 time=0
EXTRACT: note_off channel=11 note=71 velocity=95 time=0
EXTRACT: note_on channel=11 note=64 velocity=31 time=0
EXTRACT: note_on channel=11 note=76 velocity=95 time=0
EXTRACT: note_on channel=11 note=59 velocity=31 time=0
EXTRACT: note_on channel=11 note=71 velocity=95 time=0
EXTRACT: note_off channel=8 note=35 velocity=111 time=0
EXTRACT: note_on channel=8 note=35 velocity=95 time=0
EXTRACT: note_off channel=13 note=79 velocity=95 time=0
EXTRACT: note_on channel=13 note=78 velocity=95 time=0
EXTRACT: note_off channel=4 note=67 velocity=95 time=0
EXTRACT: note_on channel=4 note=66 velocity=95 time=0
EXTRACT: note_off channel=15 note=79 velocity=95 time=0
EXTRACT: note_off channel=15 note=67 velocity=95 time=0
EXTRACT: note_on channel=15 note=78 velocity=95 time=0
EXTRACT: note_on channel=15 note=66 velocity=95 time=0
EXTRACT: note_off channel=9 note=82 velocity=95 time=0
EXTRACT: note_on channel=9 note=42 velocity=111 time=0
EXTRACT: note_on channel=9 note=82 velocity=79 time=0
EXTRACT: note_on channel=9 note=36 velocity=111 time=0
EXTRACT: note_off channel=6 note=64 velocity=95 time=0.16853925
EXTRACT: note_off channel=6 note=59 velocity=95 time=0
EXTRACT: note_on channel=6 note=64 velocity=95 time=0
EXTRACT: note_on channel=6 note=59 velocity=95 time=0
EXTRACT: note_off channel=11 note=64 velocity=31 time=0
EXTRACT: note_off channel=11 note=76 velocity=95 time=0
EXTRACT: note_off channel=11 note=59 velocity=31 time=0
EXTRACT: note_off channel=11 note=71 velocity=95 time=0
EXTRACT: note_on channel=11 note=64 velocity=31 time=0
EXTRACT: note_on channel=11 note=76 velocity=95 time=0
EXTRACT: note_on channel=11 note=59 velocity=31 time=0
EXTRACT: note_on channel=11 note=71 velocity=95 time=0
EXTRACT: note_off channel=9 note=42 velocity=111 time=0
EXTRACT: note_off channel=9 note=82 velocity=79 time=0
EXTRACT: note_off channel=9 note=36 velocity=111 time=0
EXTRACT: note_off channel=0 note=47 velocity=95 time=0
EXTRACT: note_on channel=0 note=47 velocity=95 time=0
EXTRACT: note_on channel=0 note=40 velocity=95 time=0
EXTRACT: note_off channel=2 note=47 velocity=95 time=0
EXTRACT: note_on channel=2 note=47 velocity=95 time=0
EXTRACT: note_on channel=2 note=40 velocity=95 time=0
EXTRACT: note_off channel=6 note=64 velocity=95 time=0
EXTRACT: note_off channel=6 note=59 velocity=95 time=0
EXTRACT: note_on channel=6 note=64 velocity=95 time=0
EXTRACT: note_on channel=6 note=59 velocity=95 time=0
EXTRACT: note_off channel=11 note=64 velocity=31 time=0
EXTRACT: note_off channel=11 note=76 velocity=95 time=0
EXTRACT: note_off channel=11 note=59 velocity=31 time=0
EXTRACT: note_off channel=11 note=71 velocity=95 time=0
EXTRACT: note_on channel=11 note=64 velocity=31 time=0
EXTRACT: note_on channel=11 note=76 velocity=95 time=0
EXTRACT: note_on channel=11 note=59 velocity=31 time=0
EXTRACT: note_on channel=11 note=71 velocity=95 time=0
EXTRACT: note_off channel=8 note=35 velocity=95 time=0
EXTRACT: note_on channel=8 note=28 velocity=111 time=0
EXTRACT: note_off channel=13 note=78 velocity=95 time=0
EXTRACT: note_on channel=13 note=76 velocity=95 time=0
EXTRACT: note_off channel=4 note=66 velocity=95 time=0
EXTRACT: note_on channel=4 note=64 velocity=95 time=0
EXTRACT: note_off channel=15 note=78 velocity=95 time=0
EXTRACT: note_off channel=15 note=66 velocity=95 time=0
EXTRACT: note_on channel=15 note=76 velocity=95 time=0
EXTRACT: note_on channel=15 note=64 velocity=95 time=0
EXTRACT: note_on channel=9 note=56 velocity=95 time=0
EXTRACT: note_on channel=9 note=42 velocity=127 time=0
EXTRACT: note_on channel=9 note=36 velocity=111 time=0
EXTRACT: note_on channel=9 note=82 velocity=95 time=0
EXTRACT: note_off channel=6 note=64 velocity=95 time=0.16853925
EXTRACT: note_off channel=6 note=59 velocity=95 time=0
EXTRACT: note_on channel=6 note=64 velocity=95 time=0
EXTRACT: note_on channel=6 note=59 velocity=95 time=0
EXTRACT: note_off channel=11 note=64 velocity=31 time=0
EXTRACT: note_off channel=11 note=76 velocity=95 time=0
EXTRACT: note_off channel=11 note=59 velocity=31 time=0
EXTRACT: note_off channel=11 note=71 velocity=95 time=0
EXTRACT: note_on channel=11 note=64 velocity=31 time=0
EXTRACT: note_on channel=11 note=76 velocity=95 time=0
EXTRACT: note_on channel=11 note=59 velocity=31 time=0
EXTRACT: note_on channel=11 note=71 velocity=95 time=0
EXTRACT: note_off channel=9 note=56 velocity=95 time=0
EXTRACT: note_off channel=9 note=42 velocity=127 time=0
EXTRACT: note_off channel=9 note=36 velocity=111 time=0
EXTRACT: note_off channel=9 note=82 velocity=95 time=0
EXTRACT: note_off channel=0 note=47 velocity=95 time=0.16853925
EXTRACT: note_off channel=0 note=40 velocity=95 time=0
EXTRACT: note_on channel=0 note=47 velocity=95 time=0
EXTRACT: note_on channel=0 note=40 velocity=95 time=0
EXTRACT: note_off channel=2 note=47 velocity=95 time=0
EXTRACT: note_off channel=2 note=40 velocity=95 time=0
EXTRACT: note_on channel=2 note=47 velocity=95 time=0
EXTRACT: note_on channel=2 note=40 velocity=95 time=0
EXTRACT: note_off channel=6 note=64 velocity=95 time=0
EXTRACT: note_off channel=6 note=59 velocity=95 time=0
EXTRACT: note_on channel=6 note=64 velocity=95 time=0
EXTRACT: note_on channel=6 note=59 velocity=95 time=0
EXTRACT: note_off channel=11 note=64 velocity=31 time=0
EXTRACT: note_off channel=11 note=76 velocity=95 time=0
EXTRACT: note_off channel=11 note=59 velocity=31 time=0
EXTRACT: note_off channel=11 note=71 velocity=95 time=0
EXTRACT: note_on channel=11 note=64 velocity=31 time=0
EXTRACT: note_on channel=11 note=76 velocity=95 time=0
EXTRACT: note_on channel=11 note=59 velocity=31 time=0
EXTRACT: note_on channel=11 note=71 velocity=95 time=0
EXTRACT: note_off channel=8 note=28 velocity=111 time=0
EXTRACT: note_on channel=8 note=28 velocity=111 time=0
EXTRACT: note_on channel=9 note=42 velocity=111 time=0
EXTRACT: note_on channel=9 note=36 velocity=111 time=0
EXTRACT: note_off channel=6 note=64 velocity=95 time=0.16853925
EXTRACT: note_off channel=6 note=59 velocity=95 time=0
EXTRACT: note_on channel=6 note=64 velocity=95 time=0
EXTRACT: note_on channel=6 note=59 velocity=95 time=0
EXTRACT: note_off channel=11 note=64 velocity=31 time=0
EXTRACT: note_off channel=11 note=76 velocity=95 time=0
EXTRACT: note_off channel=11 note=59 velocity=31 time=0
EXTRACT: note_off channel=11 note=71 velocity=95 time=0
EXTRACT: note_on channel=11 note=64 velocity=31 time=0
EXTRACT: note_on channel=11 note=76 velocity=95 time=0
EXTRACT: note_on channel=11 note=59 velocity=31 time=0
EXTRACT: note_on channel=11 note=71 velocity=95 time=0
EXTRACT: note_off channel=9 note=42 velocity=111 time=0
EXTRACT: note_off channel=9 note=36 velocity=111 time=0
EXTRACT: note_off channel=0 note=47 velocity=95 time=0.16853925
EXTRACT: note_off channel=0 note=40 velocity=95 time=0
EXTRACT: pitchwheel channel=1 pitch=0 time=0
EXTRACT: note_on channel=1 note=55 velocity=95 time=0
EXTRACT: note_off channel=2 note=47 velocity=95 time=0
EXTRACT: note_off channel=2 note=40 velocity=95 time=0
EXTRACT: note_off channel=6 note=64 velocity=95 time=0
EXTRACT: note_off channel=6 note=59 velocity=95 time=0
EXTRACT: note_on channel=6 note=64 velocity=95 time=0
EXTRACT: note_on channel=6 note=59 velocity=95 time=0
EXTRACT: note_off channel=11 note=64 velocity=31 time=0
EXTRACT: note_off channel=11 note=76 velocity=95 time=0
EXTRACT: note_off channel=11 note=59 velocity=31 time=0
EXTRACT: note_off channel=11 note=71 velocity=95 time=0
EXTRACT: note_on channel=11 note=64 velocity=31 time=0
EXTRACT: note_on channel=11 note=76 velocity=95 time=0
EXTRACT: note_on channel=11 note=59 velocity=31 time=0
EXTRACT: note_on channel=11 note=71 velocity=95 time=0
EXTRACT: note_off channel=8 note=28 velocity=111 time=0
EXTRACT: note_off channel=13 note=76 velocity=95 time=0
EXTRACT: note_on channel=13 note=79 velocity=95 time=0
EXTRACT: note_off channel=4 note=64 velocity=95 time=0
EXTRACT: note_on channel=4 note=67 velocity=95 time=0
EXTRACT: note_off channel=15 note=76 velocity=95 time=0
EXTRACT: note_off channel=15 note=64 velocity=95 time=0
EXTRACT: note_on channel=15 note=79 velocity=95 time=0
EXTRACT: note_on channel=15 note=67 velocity=95 time=0
EXTRACT: note_on channel=9 note=56 velocity=95 time=0
EXTRACT: note_on channel=9 note=42 velocity=111 time=0
EXTRACT: note_on channel=9 note=82 velocity=95 time=0
EXTRACT: note_on channel=9 note=38 velocity=111 time=0
EXTRACT: pitchwheel channel=1 pitch=0 time=0.1123595
EXTRACT: note_off channel=6 note=64 velocity=95 time=0.05617975
EXTRACT: note_off channel=6 note=59 velocity=95 time=0
EXTRACT: note_on channel=6 note=64 velocity=95 time=0
EXTRACT: note_on channel=6 note=59 velocity=95 time=0
EXTRACT: note_off channel=11 note=64 velocity=31 time=0
EXTRACT: note_off channel=11 note=76 velocity=95 time=0
EXTRACT: note_off channel=11 note=59 velocity=31 time=0
EXTRACT: note_off channel=11 note=71 velocity=95 time=0
EXTRACT: note_on channel=11 note=64 velocity=31 time=0
EXTRACT: note_on channel=11 note=76 velocity=95 time=0
EXTRACT: note_on channel=11 note=59 velocity=31 time=0
EXTRACT: note_on channel=11 note=71 velocity=95 time=0
EXTRACT: note_off channel=9 note=56 velocity=95 time=0
EXTRACT: note_off channel=9 note=42 velocity=111 time=0
EXTRACT: note_off channel=9 note=82 velocity=95 time=0
EXTRACT: note_off channel=9 note=38 velocity=111 time=0
EXTRACT: pitchwheel channel=1 pitch=128 time=0.05617975
EXTRACT: pitchwheel channel=1 pitch=256 time=0.1123595
EXTRACT: pitchwheel channel=1 pitch=256 time=0
EXTRACT: note_off channel=6 note=64 velocity=95 time=0
EXTRACT: note_off channel=6 note=59 velocity=95 time=0
EXTRACT: note_on channel=6 note=64 velocity=95 time=0
EXTRACT: note_on channel=6 note=59 velocity=95 time=0
EXTRACT: note_off channel=11 note=64 velocity=31 time=0
EXTRACT: note_off channel=11 note=76 velocity=95 time=0
EXTRACT: note_off channel=11 note=59 velocity=31 time=0
EXTRACT: note_off channel=11 note=71 velocity=95 time=0
EXTRACT: note_on channel=11 note=64 velocity=31 time=0
EXTRACT: note_on channel=11 note=76 velocity=95 time=0
EXTRACT: note_on channel=11 note=59 velocity=31 time=0
EXTRACT: note_on channel=11 note=71 velocity=95 time=0
EXTRACT: note_on channel=9 note=42 velocity=111 time=0
EXTRACT: note_off channel=6 note=64 velocity=95 time=0.16853925
EXTRACT: note_off channel=6 note=59 velocity=95 time=0
EXTRACT: note_on channel=6 note=64 velocity=95 time=0
EXTRACT: note_on channel=6 note=59 velocity=95 time=0
EXTRACT: note_off channel=11 note=64 velocity=31 time=0
EXTRACT: note_off channel=11 note=76 velocity=95 time=0
EXTRACT: note_off channel=11 note=59 velocity=31 time=0
EXTRACT: note_off channel=11 note=71 velocity=95 time=0
EXTRACT: note_on channel=11 note=64 velocity=31 time=0
EXTRACT: note_on channel=11 note=76 velocity=95 time=0
EXTRACT: note_on channel=11 note=59 velocity=31 time=0
EXTRACT: note_on channel=11 note=71 velocity=95 time=0
EXTRACT: note_on channel=8 note=28 velocity=95 time=0
EXTRACT: note_off channel=9 note=42 velocity=111 time=0
EXTRACT: note_on channel=9 note=82 velocity=95 time=0
EXTRACT: pitchwheel channel=1 pitch=256 time=0.1123595
EXTRACT: pitchwheel channel=1 pitch=128 time=0.028089875
EXTRACT: pitchwheel channel=1 pitch=0 time=0.028089875
EXTRACT: pitchwheel channel=1 pitch=0 time=0
EXTRACT: pitchwheel channel=1 pitch=0 time=0
EXTRACT: note_off channel=1 note=55 velocity=95 time=0
EXTRACT: note_on channel=0 note=47 velocity=95 time=0
EXTRACT: note_on channel=0 note=40 velocity=95 time=0
EXTRACT: note_on channel=2 note=47 velocity=95 time=0
EXTRACT: note_on channel=2 note=40 velocity=95 time=0
EXTRACT: note_off channel=6 note=64 velocity=95 time=0
EXTRACT: note_off channel=6 note=59 velocity=95 time=0
EXTRACT: note_on channel=6 note=64 velocity=95 time=0
EXTRACT: note_on channel=6 note=59 velocity=95 time=0
EXTRACT: note_off channel=11 note=64 velocity=31 time=0
EXTRACT: note_off channel=11 note=76 velocity=95 time=0
EXTRACT: note_off channel=11 note=59 velocity=31 time=0
EXTRACT: note_off channel=11 note=71 velocity=95 time=0
EXTRACT: note_on channel=11 note=64 velocity=31 time=0
EXTRACT: note_on channel=11 note=76 velocity=95 time=0
EXTRACT: note_on channel=11 note=59 velocity=31 time=0
EXTRACT: note_on channel=11 note=71 velocity=95 time=0
EXTRACT: note_off channel=8 note=28 velocity=95 time=0
EXTRACT: note_on channel=8 note=28 velocity=111 time=0
EXTRACT: note_off channel=13 note=79 velocity=95 time=0
EXTRACT: note_on channel=13 note=76 velocity=95 time=0
EXTRACT: note_off channel=4 note=67 velocity=95 time=0
EXTRACT: note_on channel=4 note=64 velocity=95 time=0
EXTRACT: note_off channel=15 note=79 velocity=95 time=0
EXTRACT: note_off channel=15 note=67 velocity=95 time=0
EXTRACT: note_on channel=15 note=76 velocity=95 time=0
EXTRACT: note_on channel=15 note=64 velocity=95 time=0
EXTRACT: note_off channel=9 note=82 velocity=95 time=0
EXTRACT: note_on channel=9 note=36 velocity=111 time=0
EXTRACT: note_on channel=9 note=42 velocity=111 time=0
EXTRACT: note_on channel=9 note=56 velocity=95 time=0
EXTRACT: note_off channel=6 note=64 velocity=95 time=0.16853925
EXTRACT: note_off channel=6 note=59 velocity=95 time=0
EXTRACT: note_on channel=6 note=64 velocity=95 time=0
EXTRACT: note_on channel=6 note=59 velocity=95 time=0
EXTRACT: note_off channel=11 note=64 velocity=31 time=0
EXTRACT: note_off channel=11 note=76 velocity=95 time=0
EXTRACT: note_off channel=11 note=59 velocity=31 time=0
EXTRACT: note_off channel=11 note=71 velocity=95 time=0
EXTRACT: note_on channel=11 note=64 velocity=31 time=0
EXTRACT: note_on channel=11 note=76 velocity=95 time=0
EXTRACT: note_on channel=11 note=59 velocity=31 time=0
EXTRACT: note_on channel=11 note=71 velocity=95 time=0
EXTRACT: note_off channel=13 note=76 velocity=95 time=0
EXTRACT: note_off channel=4 note=64 velocity=95 time=0
EXTRACT: note_off channel=15 note=76 velocity=95 time=0
EXTRACT: note_off channel=15 note=64 velocity=95 time=0
EXTRACT: note_off channel=9 note=36 velocity=111 time=0
EXTRACT: note_off channel=9 note=42 velocity=111 time=0
EXTRACT: note_off channel=9 note=56 velocity=95 time=0
EXTRACT: note_on channel=9 note=82 velocity=95 time=0
EXTRACT: note_off channel=0 note=47 velocity=95 time=0.16853925
EXTRACT: note_off channel=0 note=40 velocity=95 time=0
EXTRACT: note_on channel=0 note=47 velocity=95 time=0
EXTRACT: note_on channel=0 note=40 velocity=95 time=0
EXTRACT: note_off channel=2 note=47 velocity=95 time=0
EXTRACT: note_off channel=2 note=40 velocity=95 time=0
EXTRACT: note_on channel=2 note=47 velocity=95 time=0
EXTRACT: note_on channel=2 note=40 velocity=95 time=0
EXTRACT: note_off channel=6 note=64 velocity=95 time=0
EXTRACT: note_off channel=6 note=59 velocity=95 time=0
EXTRACT: note_on channel=6 note=64 velocity=95 time=0
EXTRACT: note_on channel=6 note=59 velocity=95 time=0
EXTRACT: note_off channel=11 note=64 velocity=31 time=0
EXTRACT: note_off channel=11 note=76 velocity=95 time=0
EXTRACT: note_off channel=11 note=59 velocity=31 time=0
EXTRACT: note_off channel=11 note=71 velocity=95 time=0
EXTRACT: note_on channel=11 note=64 velocity=31 time=0
EXTRACT: note_on channel=11 note=76 velocity=95 time=0
EXTRACT: note_on channel=11 note=59 velocity=31 time=0
EXTRACT: note_on channel=11 note=71 velocity=95 time=0
EXTRACT: note_off channel=8 note=28 velocity=111 time=0
EXTRACT: note_on channel=8 note=28 velocity=111 time=0
EXTRACT: note_on channel=13 note=74 velocity=95 time=0
EXTRACT: note_on channel=4 note=62 velocity=95 time=0
EXTRACT: note_on channel=15 note=74 velocity=95 time=0
EXTRACT: note_on channel=15 note=62 velocity=95 time=0
EXTRACT: note_off channel=9 note=82 velocity=95 time=0
EXTRACT: note_on channel=9 note=42 velocity=111 time=0
EXTRACT: note_on channel=9 note=82 velocity=79 time=0
EXTRACT: note_on channel=9 note=36 velocity=111 time=0
EXTRACT: note_off channel=6 note=64 velocity=95 time=0.16853925
EXTRACT: note_off channel=6 note=59 velocity=95 time=0
EXTRACT: note_on channel=6 note=64 velocity=95 time=0
EXTRACT: note_on channel=6 note=59 velocity=95 time=0
EXTRACT: note_off channel=11 note=64 velocity=31 time=0
EXTRACT: note_off channel=11 note=76 velocity=95 time=0
EXTRACT: note_off channel=11 note=59 velocity=31 time=0
EXTRACT: note_off channel=11 note=71 velocity=95 time=0
EXTRACT: note_on channel=11 note=64 velocity=31 time=0
EXTRACT: note_on channel=11 note=76 velocity=95 time=0
EXTRACT: note_on channel=11 note=59 velocity=31 time=0
EXTRACT: note_on channel=11 note=71 velocity=95 time=0
EXTRACT: note_off channel=13 note=74 velocity=95 time=0
EXTRACT: note_on channel=13 note=76 velocity=95 time=0
EXTRACT: note_off channel=4 note=62 velocity=95 time=0
EXTRACT: note_on channel=4 note=64 velocity=95 time=0
EXTRACT: note_off channel=15 note=74 velocity=95 time=0
EXTRACT: note_off channel=15 note=62 velocity=95 time=0
EXTRACT: note_on channel=15 note=76 velocity=95 time=0
EXTRACT: note_on channel=15 note=64 velocity=95 time=0
EXTRACT: note_off channel=9 note=42 velocity=111 time=0
EXTRACT: note_off channel=9 note=82 velocity=79 time=0
EXTRACT: note_off channel=9 note=36 velocity=111 time=0
EXTRACT: note_off channel=0 note=47 velocity=95 time=0.16853925
EXTRACT: note_off channel=0 note=40 velocity=95 time=0
EXTRACT: note_off channel=2 note=47 velocity=95 time=0
EXTRACT: note_off channel=2 note=40 velocity=95 time=0
EXTRACT: note_off channel=6 note=64 velocity=95 time=0
EXTRACT: note_off channel=6 note=59 velocity=95 time=0
EXTRACT: note_on channel=6 note=64 velocity=95 time=0
EXTRACT: note_on channel=6 note=59 velocity=95 time=0
EXTRACT: note_off channel=11 note=64 velocity=31 time=0
EXTRACT: note_off channel=11 note=76 velocity=95 time=0
EXTRACT: note_off channel=11 note=59 velocity=31 time=0
EXTRACT: note_off channel=11 note=71 velocity=95 time=0
EXTRACT: note_on channel=11 note=64 velocity=31 time=0
EXTRACT: note_on channel=11 note=76 velocity=95 time=0
EXTRACT: note_on channel=11 note=59 velocity=31 time=0
EXTRACT: note_on channel=11 note=71 velocity=95 time=0
EXTRACT: note_off channel=8 note=28 velocity=111 time=0
EXTRACT: note_on channel=9 note=56 velocity=95 time=0
EXTRACT: note_on channel=9 note=82 velocity=95 time=0
EXTRACT: note_on channel=9 note=42 velocity=111 time=0
EXTRACT: note_on channel=9 note=38 velocity=127 time=0
EXTRACT: note_on channel=0 note=43 velocity=95 time=0.16853925
EXTRACT: note_off channel=6 note=64 velocity=95 time=0
EXTRACT: note_off channel=6 note=59 velocity=95 time=0
EXTRACT: note_on channel=6 note=64 velocity=95 time=0
EXTRACT: note_on channel=6 note=59 velocity=95 time=0
EXTRACT: note_off channel=11 note=64 velocity=31 time=0
EXTRACT: note_off channel=11 note=76 velocity=95 time=0
EXTRACT: note_off channel=11 note=59 velocity=31 time=0
EXTRACT: note_off channel=11 note=71 velocity=95 time=0
EXTRACT: note_on channel=11 note=64 velocity=31 time=0
EXTRACT: note_on channel=11 note=76 velocity=95 time=0
EXTRACT: note_on channel=11 note=59 velocity=31 time=0
EXTRACT: note_on channel=11 note=71 velocity=95 time=0
EXTRACT: note_on channel=8 note=31 velocity=127 time=0
EXTRACT: note_off channel=9 note=56 velocity=95 time=0
EXTRACT: note_off channel=9 note=82 velocity=95 time=0
EXTRACT: note_off channel=9 note=42 velocity=111 time=0
EXTRACT: note_off channel=9 note=38 velocity=127 time=0
EXTRACT: note_off channel=6 note=64 velocity=95 time=0.16853925
EXTRACT: note_off channel=6 note=59 velocity=95 time=0
EXTRACT: note_on channel=6 note=64 velocity=95 time=0
EXTRACT: note_on channel=6 note=59 velocity=95 time=0
EXTRACT: note_off channel=11 note=64 velocity=31 time=0
EXTRACT: note_off channel=11 note=76 velocity=95 time=0
EXTRACT: note_off channel=11 note=59 velocity=31 time=0
EXTRACT: note_off channel=11 note=71 velocity=95 time=0
EXTRACT: note_on channel=11 note=64 velocity=31 time=0
EXTRACT: note_on channel=11 note=76 velocity=95 time=0
EXTRACT: note_on channel=11 note=59 velocity=31 time=0
EXTRACT: note_on channel=11 note=71 velocity=95 time=0
EXTRACT: note_off channel=13 note=76 velocity=95 time=0
EXTRACT: note_off channel=4 note=64 velocity=95 time=0
EXTRACT: note_off channel=15 note=76 velocity=95 time=0
EXTRACT: note_off channel=15 note=64 velocity=95 time=0
EXTRACT: note_on channel=9 note=42 velocity=111 time=0
EXTRACT: note_off channel=6 note=64 velocity=95 time=0.16853925
EXTRACT: note_off channel=6 note=59 velocity=95 time=0
EXTRACT: note_on channel=6 note=64 velocity=95 time=0
EXTRACT: note_on channel=6 note=59 velocity=95 time=0
EXTRACT: note_off channel=11 note=64 velocity=31 time=0
EXTRACT: note_off channel=11 note=76 velocity=95 time=0
EXTRACT: note_off channel=11 note=59 velocity=31 time=0
EXTRACT: note_off channel=11 note=71 velocity=95 time=0
EXTRACT: note_on channel=11 note=64 velocity=31 time=0
EXTRACT: note_on channel=11 note=76 velocity=95 time=0
EXTRACT: note_on channel=11 note=59 velocity=31 time=0
EXTRACT: note_on channel=11 note=71 velocity=95 time=0
EXTRACT: note_on channel=13 note=71 velocity=95 time=0
EXTRACT: note_on channel=4 note=59 velocity=95 time=0
EXTRACT: note_on channel=15 note=71 velocity=95 time=0
EXTRACT: note_on channel=15 note=59 velocity=95 time=0
EXTRACT: note_off channel=9 note=42 velocity=111 time=0
EXTRACT: note_off channel=0 note=43 velocity=95 time=0.16853925
EXTRACT: note_on channel=0 note=52 velocity=95 time=0
EXTRACT: note_on channel=0 note=45 velocity=95 time=0
EXTRACT: note_on channel=2 note=52 velocity=95 time=0
EXTRACT: note_on channel=2 note=45 velocity=95 time=0
EXTRACT: note_off channel=6 note=64 velocity=95 time=0
EXTRACT: note_off channel=6 note=59 velocity=95 time=0
EXTRACT: note_on channel=6 note=64 velocity=95 time=0
EXTRACT: note_on channel=6 note=59 velocity=95 time=0
EXTRACT: note_off channel=11 note=64 velocity=31 time=0
EXTRACT: note_off channel=11 note=76 velocity=95 time=0
EXTRACT: note_off channel=11 note=59 velocity=31 time=0
EXTRACT: note_off channel=11 note=71 velocity=95 time=0
EXTRACT: note_on channel=11 note=64 velocity=31 time=0
EXTRACT: note_on channel=11 note=76 velocity=95 time=0
EXTRACT: note_on channel=11 note=59 velocity=31 time=0
EXTRACT: note_on channel=11 note=71 velocity=95 time=0
EXTRACT: note_off channel=8 note=31 velocity=127 time=0
EXTRACT: note_on channel=8 note=33 velocity=111 time=0
EXTRACT: note_off channel=13 note=71 velocity=95 time=0
EXTRACT: note_on channel=13 note=76 velocity=95 time=0
EXTRACT: note_off channel=4 note=59 velocity=95 time=0
EXTRACT: note_on channel=4 note=64 velocity=95 time=0
EXTRACT: note_off channel=15 note=71 velocity=95 time=0
EXTRACT: note_off channel=15 note=59 velocity=95 time=0
EXTRACT: note_on channel=15 note=76 velocity=95 time=0
EXTRACT: note_on channel=15 note=64 velocity=95 time=0
EXTRACT: note_on channel=9 note=56 velocity=95 time=0
EXTRACT: note_on channel=9 note=36 velocity=111 time=0
EXTRACT: note_on channel=9 note=42 velocity=111 time=0
EXTRACT: note_on channel=9 note=82 velocity=111 time=0
EXTRACT: note_off channel=6 note=64 velocity=95 time=0.16853925
EXTRACT: note_off channel=6 note=59 velocity=95 time=0
EXTRACT: note_on channel=6 note=64 velocity=95 time=0
EXTRACT: note_on channel=6 note=59 velocity=95 time=0
EXTRACT: note_off channel=11 note=64 velocity=31 time=0
EXTRACT: note_off channel=11 note=76 velocity=95 time=0
EXTRACT: note_off channel=11 note=59 velocity=31 time=0
EXTRACT: note_off channel=11 note=71 velocity=95 time=0
EXTRACT: note_on channel=11 note=64 velocity=31 time=0
EXTRACT: note_on channel=11 note=76 velocity=95 time=0
EXTRACT: note_on channel=11 note=59 velocity=31 time=0
EXTRACT: note_on channel=11 note=71 velocity=95 time=0
EXTRACT: note_off channel=13 note=76 velocity=95 time=0
EXTRACT: note_on channel=13 note=76 velocity=95 time=0
EXTRACT: note_off channel=4 note=64 velocity=95 time=0
EXTRACT: note_on channel=4 note=64 velocity=95 time=0
EXTRACT: note_off channel=15 note=76 velocity=95 time=0
EXTRACT: note_off channel=15 note=64 velocity=95 time=0
EXTRACT: note_on channel=15 note=76 velocity=95 time=0
EXTRACT: note_on channel=15 note=64 velocity=95 time=0
EXTRACT: note_off channel=9 note=56 velocity=95 time=0
EXTRACT: note_off channel=9 note=36 velocity=111 time=0
EXTRACT: note_off channel=9 note=42 velocity=111 time=0
EXTRACT: note_off channel=9 note=82 velocity=111 time=0
EXTRACT: note_off channel=0 note=52 velocity=95 time=0.16853925
EXTRACT: note_off channel=0 note=45 velocity=95 time=0
EXTRACT: note_on channel=0 note=52 velocity=95 time=0
EXTRACT: note_on channel=0 note=45 velocity=95 time=0
EXTRACT: note_off channel=2 note=52 velocity=95 time=0
EXTRACT: note_off channel=2 note=45 velocity=95 time=0
EXTRACT: note_on channel=2 note=52 velocity=95 time=0
EXTRACT: note_on channel=2 note=45 velocity=95 time=0
EXTRACT: note_off channel=6 note=64 velocity=95 time=0
EXTRACT: note_off channel=6 note=59 velocity=95 time=0
EXTRACT: note_on channel=6 note=64 velocity=95 time=0
EXTRACT: note_on channel=6 note=59 velocity=95 time=0
EXTRACT: note_off channel=11 note=64 velocity=31 time=0
EXTRACT: note_off channel=11 note=76 velocity=95 time=0
EXTRACT: note_off channel=11 note=59 velocity=31 time=0
EXTRACT: note_off channel=11 note=71 velocity=95 time=0
EXTRACT: note_on channel=11 note=64 velocity=31 time=0
EXTRACT: note_on channel=11 note=76 velocity=95 time=0
EXTRACT: note_on channel=11 note=59 velocity=31 time=0
EXTRACT: note_on channel=11 note=71 velocity=95 time=0
EXTRACT: note_off channel=8 note=33 velocity=111 time=0
EXTRACT: note_on channel=8 note=33 velocity=111 time=0
EXTRACT: note_off channel=13 note=76 velocity=95 time=0
EXTRACT: note_on channel=13 note=76 velocity=95 time=0
EXTRACT: note_off channel=4 note=64 velocity=95 time=0
EXTRACT: note_on channel=4 note=64 velocity=95 time=0
EXTRACT: note_off channel=15 note=76 velocity=95 time=0
EXTRACT: note_off channel=15 note=64 velocity=95 time=0
EXTRACT: note_on channel=15 note=76 velocity=95 time=0
EXTRACT: note_on channel=15 note=64 velocity=95 time=0
EXTRACT: note_on channel=9 note=36 velocity=111 time=0
EXTRACT: note_on channel=9 note=82 velocity=95 time=0
EXTRACT: note_on channel=9 note=42 velocity=111 time=0
EXTRACT: note_off channel=6 note=64 velocity=95 time=0.16853925
EXTRACT: note_off channel=6 note=59 velocity=95 time=0
EXTRACT: note_on channel=6 note=64 velocity=95 time=0
EXTRACT: note_on channel=6 note=59 velocity=95 time=0
EXTRACT: note_off channel=11 note=64 velocity=31 time=0
EXTRACT: note_off channel=11 note=76 velocity=95 time=0
EXTRACT: note_off channel=11 note=59 velocity=31 time=0
EXTRACT: note_off channel=11 note=71 velocity=95 time=0
EXTRACT: note_on channel=11 note=64 velocity=31 time=0
EXTRACT: note_on channel=11 note=76 velocity=95 time=0
EXTRACT: note_on channel=11 note=59 velocity=31 time=0
EXTRACT: note_on channel=11 note=71 velocity=95 time=0
EXTRACT: note_off channel=13 note=76 velocity=95 time=0
EXTRACT: note_on channel=13 note=76 velocity=95 time=0
EXTRACT: note_off channel=4 note=64 velocity=95 time=0
EXTRACT: note_on channel=4 note=64 velocity=95 time=0
EXTRACT: note_off channel=15 note=76 velocity=95 time=0
EXTRACT: note_off channel=15 note=64 velocity=95 time=0
EXTRACT: note_on channel=15 note=76 velocity=95 time=0
EXTRACT: note_on channel=15 note=64 velocity=95 time=0
EXTRACT: note_off channel=9 note=36 velocity=111 time=0
EXTRACT: note_off channel=9 note=82 velocity=95 time=0
EXTRACT: note_off channel=9 note=42 velocity=111 time=0
EXTRACT: note_off channel=0 note=52 velocity=95 time=0.16853925
EXTRACT: note_off channel=0 note=45 velocity=95 time=0
EXTRACT: note_off channel=2 note=52 velocity=95 time=0
EXTRACT: note_off channel=2 note=45 velocity=95 time=0
EXTRACT: note_off channel=6 note=64 velocity=95 time=0
EXTRACT: note_off channel=6 note=59 velocity=95 time=0
EXTRACT: note_on channel=6 note=64 velocity=95 time=0
EXTRACT: note_on channel=6 note=59 velocity=95 time=0
EXTRACT: note_off channel=11 note=64 velocity=31 time=0
EXTRACT: note_off channel=11 note=76 velocity=95 time=0
EXTRACT: note_off channel=11 note=59 velocity=31 time=0
EXTRACT: note_off channel=11 note=71 velocity=95 time=0
EXTRACT: note_on channel=11 note=64 velocity=31 time=0
EXTRACT: note_on channel=11 note=76 velocity=95 time=0
EXTRACT: note_on channel=11 note=59 velocity=31 time=0
EXTRACT: note_on channel=11 note=71 velocity=95 time=0
EXTRACT: note_off channel=8 note=33 velocity=111 time=0
EXTRACT: note_off channel=13 note=76 velocity=95 time=0
EXTRACT: note_on channel=13 note=76 velocity=95 time=0
EXTRACT: note_off channel=4 note=64 velocity=95 time=0
EXTRACT: note_on channel=4 note=64 velocity=95 time=0
EXTRACT: note_off channel=15 note=76 velocity=95 time=0
EXTRACT: note_off channel=15 note=64 velocity=95 time=0
EXTRACT: note_on channel=15 note=76 velocity=95 time=0
EXTRACT: note_on channel=15 note=64 velocity=95 time=0
EXTRACT: note_on channel=9 note=56 velocity=95 time=0
EXTRACT: note_on channel=9 note=38 velocity=127 time=0
EXTRACT: note_on channel=9 note=82 velocity=95 time=0
EXTRACT: note_on channel=9 note=42 velocity=111 time=0
EXTRACT: note_off channel=6 note=64 velocity=95 time=0.16853925
EXTRACT: note_off channel=6 note=59 velocity=95 time=0
EXTRACT: note_on channel=6 note=64 velocity=95 time=0
EXTRACT: note_on channel=6 note=59 velocity=95 time=0
EXTRACT: note_off channel=11 note=64 velocity=31 time=0
EXTRACT: note_off channel=11 note=76 velocity=95 time=0
EXTRACT: note_off channel=11 note=59 velocity=31 time=0
EXTRACT: note_off channel=11 note=71 velocity=95 time=0
EXTRACT: note_on channel=11 note=64 velocity=31 time=0
EXTRACT: note_on channel=11 note=76 velocity=95 time=0
EXTRACT: note_on channel=11 note=59 velocity=31 time=0
EXTRACT: note_on channel=11 note=71 velocity=95 time=0
EXTRACT: note_off channel=9 note=56 velocity=95 time=0
EXTRACT: note_off channel=9 note=38 velocity=127 time=0
EXTRACT: note_off channel=9 note=82 velocity=95 time=0
EXTRACT: note_off channel=9 note=42 velocity=111 time=0
EXTRACT: note_off channel=6 note=64 velocity=95 time=0.16853925
EXTRACT: note_off channel=6 note=59 velocity=95 time=0
EXTRACT: note_on channel=6 note=64 velocity=95 time=0
EXTRACT: note_on channel=6 note=59 velocity=95 time=0
EXTRACT: note_off channel=11 note=64 velocity=31 time=0
EXTRACT: note_off channel=11 note=76 velocity=95 time=0
EXTRACT: note_off channel=11 note=59 velocity=31 time=0
EXTRACT: note_off channel=11 note=71 velocity=95 time=0
EXTRACT: note_on channel=11 note=64 velocity=31 time=0
EXTRACT: note_on channel=11 note=76 velocity=95 time=0
EXTRACT: note_on channel=11 note=59 velocity=31 time=0
EXTRACT: note_on channel=11 note=71 velocity=95 time=0
EXTRACT: note_off channel=13 note=76 velocity=95 time=0
EXTRACT: note_on channel=13 note=76 velocity=95 time=0
EXTRACT: note_off channel=4 note=64 velocity=95 time=0
EXTRACT: note_on channel=4 note=64 velocity=95 time=0
EXTRACT: note_off channel=15 note=76 velocity=95 time=0
EXTRACT: note_off channel=15 note=64 velocity=95 time=0
EXTRACT: note_on channel=15 note=76 velocity=95 time=0
EXTRACT: note_on channel=15 note=64 velocity=95 time=0
EXTRACT: note_on channel=9 note=82 velocity=95 time=0
EXTRACT: note_on channel=9 note=42 velocity=127 time=0
EXTRACT: note_off channel=6 note=64 velocity=95 time=0.16853925
EXTRACT: note_off channel=6 note=59 velocity=95 time=0
EXTRACT: note_on channel=6 note=64 velocity=95 time=0
EXTRACT: note_on channel=6 note=59 velocity=95 time=0
EXTRACT: note_off channel=11 note=64 velocity=31 time=0
EXTRACT: note_off channel=11 note=76 velocity=95 time=0
EXTRACT: note_off channel=11 note=59 velocity=31 time=0
EXTRACT: note_off channel=11 note=71 velocity=95 time=0
EXTRACT: note_on channel=11 note=64 velocity=31 time=0
EXTRACT: note_on channel=11 note=76 velocity=95 time=0
EXTRACT: note_on channel=11 note=59 velocity=31 time=0
EXTRACT: note_on channel=11 note=71 velocity=95 time=0
EXTRACT: note_on channel=8 note=33 velocity=95 time=0
EXTRACT: note_off channel=13 note=76 velocity=95 time=0
EXTRACT: note_on channel=13 note=78 velocity=95 time=0
EXTRACT: note_off channel=4 note=64 velocity=95 time=0
EXTRACT: note_on channel=4 note=66 velocity=95 time=0
EXTRACT: note_off channel=15 note=76 velocity=95 time=0
EXTRACT: note_off channel=15 note=64 velocity=95 time=0
EXTRACT: note_on channel=15 note=78 velocity=95 time=0
EXTRACT: note_on channel=15 note=66 velocity=95 time=0
EXTRACT: note_off channel=9 note=82 velocity=95 time=0
EXTRACT: note_off channel=9 note=42 velocity=127 time=0
EXTRACT: note_on channel=9 note=82 velocity=79 time=0
EXTRACT: note_on channel=0 note=54 velocity=95 time=0.16853925
EXTRACT: note_on channel=0 note=47 velocity=95 time=0
EXTRACT: note_on channel=2 note=54 velocity=95 time=0
EXTRACT: note_on channel=2 note=47 velocity=95 time=0
EXTRACT: note_off channel=6 note=64 velocity=95 time=0
EXTRACT: note_off channel=6 note=59 velocity=95 time=0
EXTRACT: note_on channel=6 note=64 velocity=95 time=0
EXTRACT: note_on channel=6 note=59 velocity=95 time=0
EXTRACT: note_off channel=11 note=64 velocity=31 time=0
EXTRACT: note_off channel=11 note=76 velocity=95 time=0
EXTRACT: note_off channel=11 note=59 velocity=31 time=0
EXTRACT: note_off channel=11 note=71 velocity=95 time=0
EXTRACT: note_on channel=11 note=64 velocity=31 time=0
EXTRACT: note_on channel=11 note=76 velocity=95 time=0
EXTRACT: note_on channel=11 note=59 velocity=31 time=0
EXTRACT: note_on channel=11 note=71 velocity=95 time=0
EXTRACT: note_off channel=8 note=33 velocity=95 time=0
EXTRACT: note_on channel=8 note=35 velocity=111 time=0
EXTRACT: note_off channel=13 note=78 velocity=95 time=0
EXTRACT: note_on channel=13 note=79 velocity=95 time=0
EXTRACT: note_off channel=4 note=66 velocity=95 time=0
EXTRACT: note_on channel=4 note=67 velocity=95 time=0
EXTRACT: note_off channel=15 note=78 velocity=95 time=0
EXTRACT: note_off channel=15 note=66 velocity=95 time=0
EXTRACT: note_on channel=15 note=79 velocity=95 time=0
EXTRACT: note_on channel=15 note=67 velocity=95 time=0
EXTRACT: note_off channel=9 note=82 velocity=79 time=0
EXTRACT: note_on channel=9 note=56 velocity=95 time=0
EXTRACT: note_on channel=9 note=36 velocity=111 time=0
EXTRACT: note_on channel=9 note=42 velocity=127 time=0
EXTRACT: note_off channel=6 note=64 velocity=95 time=0.16853925
EXTRACT: note_off channel=6 note=59 velocity=95 time=0
EXTRACT: note_on channel=6 note=64 velocity=95 time=0
EXTRACT: note_on channel=6 note=59 velocity=95 time=0
EXTRACT: note_off channel=11 note=64 velocity=31 time=0
EXTRACT: note_off channel=11 note=76 velocity=95 time=0
EXTRACT: note_off channel=11 note=59 velocity=31 time=0
EXTRACT: note_off channel=11 note=71 velocity=95 time=0
EXTRACT: note_on channel=11 note=64 velocity=31 time=0
EXTRACT: note_on channel=11 note=76 velocity=95 time=0
EXTRACT: note_on channel=11 note=59 velocity=31 time=0
EXTRACT: note_on channel=11 note=71 velocity=95 time=0
EXTRACT: note_off channel=13 note=79 velocity=95 time=0
EXTRACT: note_on channel=13 note=78 velocity=95 time=0
EXTRACT: note_off channel=4 note=67 velocity=95 time=0
EXTRACT: note_on channel=4 note=66 velocity=95 time=0
EXTRACT: note_off channel=15 note=79 velocity=95 time=0
EXTRACT: note_off channel=15 note=67 velocity=95 time=0
EXTRACT: note_on channel=15 note=78 velocity=95 time=0
EXTRACT: note_on channel=15 note=66 velocity=95 time=0
EXTRACT: note_off channel=9 note=56 velocity=95 time=0
EXTRACT: note_off channel=9 note=36 velocity=111 time=0
EXTRACT: note_off channel=9 note=42 velocity=127 time=0
EXTRACT: note_on channel=9 note=82 velocity=95 time=0
EXTRACT: note_off channel=0 note=54 velocity=95 time=0.16853925
EXTRACT: note_off channel=0 note=47 velocity=95 time=0
EXTRACT: note_on channel=0 note=54 velocity=95 time=0
EXTRACT: note_on channel=0 note=47 velocity=95 time=0
EXTRACT: note_off channel=2 note=54 velocity=95 time=0
EXTRACT: note_off channel=2 note=47 velocity=95 time=0
EXTRACT: note_on channel=2 note=54 velocity=95 time=0
EXTRACT: note_on channel=2 note=47 velocity=95 time=0
EXTRACT: note_off channel=6 note=64 velocity=95 time=0
EXTRACT: note_off channel=6 note=59 velocity=95 time=0
EXTRACT: note_on channel=6 note=64 velocity=95 time=0
EXTRACT: note_on channel=6 note=59 velocity=95 time=0
EXTRACT: note_off channel=11 note=64 velocity=31 time=0
EXTRACT: note_off channel=11 note=76 velocity=95 time=0
EXTRACT: note_off channel=11 note=59 velocity=31 time=0
EXTRACT: note_off channel=11 note=71 velocity=95 time=0
EXTRACT: note_on channel=11 note=64 velocity=31 time=0
EXTRACT: note_on channel=11 note=76 velocity=95 time=0
EXTRACT: note_on channel=11 note=59 velocity=31 time=0
EXTRACT: note_on channel=11 note=71 velocity=95 time=0
EXTRACT: note_off channel=8 note=35 velocity=111 time=0
EXTRACT: note_on channel=8 note=35 velocity=111 time=0
EXTRACT: note_off channel=9 note=82 velocity=95 time=0
EXTRACT: note_on channel=9 note=36 velocity=111 time=0
EXTRACT: note_on channel=9 note=82 velocity=79 time=0
EXTRACT: note_on channel=9 note=42 velocity=111 time=0
EXTRACT: note_off channel=6 note=64 velocity=95 time=0.16853925
EXTRACT: note_off channel=6 note=59 velocity=95 time=0
EXTRACT: note_on channel=6 note=64 velocity=95 time=0
EXTRACT: note_on channel=6 note=59 velocity=95 time=0
EXTRACT: note_off channel=11 note=64 velocity=31 time=0
EXTRACT: note_off channel=11 note=76 velocity=95 time=0
EXTRACT: note_off channel=11 note=59 velocity=31 time=0
EXTRACT: note_off channel=11 note=71 velocity=95 time=0
EXTRACT: note_on channel=11 note=64 velocity=31 time=0
EXTRACT: note_on channel=11 note=76 velocity=95 time=0
EXTRACT: note_on channel=11 note=59 velocity=31 time=0
EXTRACT: note_on channel=11 note=71 velocity=95 time=0
EXTRACT: note_off channel=13 note=78 velocity=95 time=0
EXTRACT: note_on channel=13 note=79 velocity=95 time=0
EXTRACT: note_off channel=4 note=66 velocity=95 time=0
EXTRACT: note_on channel=4 note=67 velocity=95 time=0
EXTRACT: note_off channel=15 note=78 velocity=95 time=0
EXTRACT: note_off channel=15 note=66 velocity=95 time=0
EXTRACT: note_on channel=15 note=79 velocity=95 time=0
EXTRACT: note_on channel=15 note=67 velocity=95 time=0
EXTRACT: note_off channel=9 note=36 velocity=111 time=0
EXTRACT: note_off channel=9 note=82 velocity=79 time=0
EXTRACT: note_off channel=9 note=42 velocity=111 time=0
EXTRACT: note_off channel=0 note=54 velocity=95 time=0.16853925
EXTRACT: note_off channel=0 note=47 velocity=95 time=0
EXTRACT: note_off channel=2 note=54 velocity=95 time=0
EXTRACT: note_off channel=2 note=47 velocity=95 time=0
EXTRACT: note_off channel=6 note=64 velocity=95 time=0
EXTRACT: note_off channel=6 note=59 velocity=95 time=0
EXTRACT: note_on channel=6 note=64 velocity=95 time=0
EXTRACT: note_on channel=6 note=59 velocity=95 time=0
EXTRACT: note_off channel=11 note=64 velocity=31 time=0
EXTRACT: note_off channel=11 note=76 velocity=95 time=0
EXTRACT: note_off channel=11 note=59 velocity=31 time=0
EXTRACT: note_off channel=11 note=71 velocity=95 time=0
EXTRACT: note_on channel=11 note=64 velocity=31 time=0
EXTRACT: note_on channel=11 note=76 velocity=95 time=0
EXTRACT: note_on channel=11 note=59 velocity=31 time=0
EXTRACT: note_on channel=11 note=71 velocity=95 time=0
EXTRACT: note_off channel=8 note=35 velocity=111 time=0
EXTRACT: note_on channel=9 note=42 velocity=127 time=0
EXTRACT: note_on channel=9 note=38 velocity=111 time=0
EXTRACT: note_on channel=9 note=56 velocity=95 time=0
EXTRACT: note_on channel=9 note=82 velocity=95 time=0
EXTRACT: note_off channel=6 note=64 velocity=95 time=0.16853925
EXTRACT: note_off channel=6 note=59 velocity=95 time=0
EXTRACT: note_on channel=6 note=64 velocity=95 time=0
EXTRACT: note_on channel=6 note=59 velocity=95 time=0
EXTRACT: note_off channel=11 note=64 velocity=31 time=0
EXTRACT: note_off channel=11 note=76 velocity=95 time=0
EXTRACT: note_off channel=11 note=59 velocity=31 time=0
EXTRACT: note_off channel=11 note=71 velocity=95 time=0
EXTRACT: note_on channel=11 note=64 velocity=31 time=0
EXTRACT: note_on channel=11 note=76 velocity=95 time=0
EXTRACT: note_on channel=11 note=59 velocity=31 time=0
EXTRACT: note_on channel=11 note=71 velocity=95 time=0
EXTRACT: note_off channel=13 note=79 velocity=95 time=0
EXTRACT: note_on channel=13 note=78 velocity=95 time=0
EXTRACT: note_off channel=4 note=67 velocity=95 time=0
EXTRACT: note_on channel=4 note=66 velocity=95 time=0
EXTRACT: note_off channel=15 note=79 velocity=95 time=0
EXTRACT: note_off channel=15 note=67 velocity=95 time=0
EXTRACT: note_on channel=15 note=78 velocity=95 time=0
EXTRACT: note_on channel=15 note=66 velocity=95 time=0
EXTRACT: note_off channel=9 note=42 velocity=127 time=0
EXTRACT: note_off channel=9 note=38 velocity=111 time=0
EXTRACT: note_off channel=9 note=56 velocity=95 time=0
EXTRACT: note_off channel=9 note=82 velocity=95 time=0
EXTRACT: note_off channel=6 note=64 velocity=95 time=0.16853925
EXTRACT: note_off channel=6 note=59 velocity=95 time=0
EXTRACT: note_on channel=6 note=64 velocity=95 time=0
EXTRACT: note_on channel=6 note=59 velocity=95 time=0
EXTRACT: note_off channel=11 note=64 velocity=31 time=0
EXTRACT: note_off channel=11 note=76 velocity=95 time=0
EXTRACT: note_off channel=11 note=59 velocity=31 time=0
EXTRACT: note_off channel=11 note=71 velocity=95 time=0
EXTRACT: note_on channel=11 note=64 velocity=31 time=0
EXTRACT: note_on channel=11 note=76 velocity=95 time=0
EXTRACT: note_on channel=11 note=59 velocity=31 time=0
EXTRACT: note_on channel=11 note=71 velocity=95 time=0
EXTRACT: note_off channel=13 note=78 velocity=95 time=0
EXTRACT: note_off channel=4 note=66 velocity=95 time=0
EXTRACT: note_off channel=15 note=78 velocity=95 time=0
EXTRACT: note_off channel=15 note=66 velocity=95 time=0
EXTRACT: note_on channel=9 note=41 velocity=127 time=0
EXTRACT: note_on channel=9 note=42 velocity=127 time=0
EXTRACT: note_off channel=6 note=64 velocity=95 time=0.16853925
EXTRACT: note_off channel=6 note=59 velocity=95 time=0
EXTRACT: note_on channel=6 note=64 velocity=95 time=0
EXTRACT: note_on channel=6 note=59 velocity=95 time=0
EXTRACT: note_off channel=11 note=64 velocity=31 time=0
EXTRACT: note_off channel=11 note=76 velocity=95 time=0
EXTRACT: note_off channel=11 note=59 velocity=31 time=0
EXTRACT: note_off channel=11 note=71 velocity=95 time=0
EXTRACT: note_on channel=11 note=64 velocity=31 time=0
EXTRACT: note_on channel=11 note=76 velocity=95 time=0
EXTRACT: note_on channel=11 note=59 velocity=31 time=0
EXTRACT: note_on channel=11 note=71 velocity=95 time=0
EXTRACT: note_off channel=9 note=41 velocity=127 time=0
EXTRACT: note_off channel=9 note=42 velocity=127 time=0
EXTRACT: note_on channel=0 note=47 velocity=95 time=0.16853925
EXTRACT: note_on channel=0 note=40 velocity=95 time=0
EXTRACT: note_on channel=2 note=47 velocity=95 time=0
EXTRACT: note_on channel=2 note=40 velocity=95 time=0
EXTRACT: note_off channel=6 note=64 velocity=95 time=0
EXTRACT: note_off channel=6 note=59 velocity=95 time=0
EXTRACT: note_on channel=6 note=64 velocity=95 time=0
EXTRACT: note_on channel=6 note=59 velocity=95 time=0
EXTRACT: note_off channel=11 note=64 velocity=31 time=0
EXTRACT: note_off channel=11 note=76 velocity=95 time=0
EXTRACT: note_off channel=11 note=59 velocity=31 time=0
EXTRACT: note_off channel=11 note=71 velocity=95 time=0
EXTRACT: note_on channel=11 note=64 velocity=31 time=0
EXTRACT: note_on channel=11 note=76 velocity=95 time=0
EXTRACT: note_on channel=11 note=59 velocity=31 time=0
EXTRACT: note_on channel=11 note=71 velocity=95 time=0
EXTRACT: note_on channel=8 note=28 velocity=111 time=0
EXTRACT: note_on channel=13 note=76 velocity=95 time=0
EXTRACT: note_on channel=4 note=64 velocity=95 time=0
EXTRACT: note_on channel=15 note=76 velocity=95 time=0
EXTRACT: note_on channel=15 note=64 velocity=95 time=0
EXTRACT: note_on channel=9 note=82 velocity=111 time=0
EXTRACT: note_on channel=9 note=42 velocity=127 time=0
EXTRACT: note_on channel=9 note=36 velocity=111 time=0
EXTRACT: note_on channel=9 note=56 velocity=95 time=0
EXTRACT: note_off channel=6 note=64 velocity=95 time=0.16853925
EXTRACT: note_off channel=6 note=59 velocity=95 time=0
EXTRACT: note_on channel=6 note=64 velocity=95 time=0
EXTRACT: note_on channel=6 note=59 velocity=95 time=0
EXTRACT: note_off channel=11 note=64 velocity=31 time=0
EXTRACT: note_off channel=11 note=76 velocity=95 time=0
EXTRACT: note_off channel=11 note=59 velocity=31 time=0
EXTRACT: note_off channel=11 note=71 velocity=95 time=0
EXTRACT: note_on channel=11 note=64 velocity=31 time=0
EXTRACT: note_on channel=11 note=76 velocity=95 time=0
EXTRACT: note_on channel=11 note=59 velocity=31 time=0
EXTRACT: note_on channel=11 note=71 velocity=95 time=0
EXTRACT: note_off channel=9 note=82 velocity=111 time=0
EXTRACT: note_off channel=9 note=42 velocity=127 time=0
EXTRACT: note_off channel=9 note=36 velocity=111 time=0
EXTRACT: note_off channel=9 note=56 velocity=95 time=0
EXTRACT: note_off channel=0 note=47 velocity=95 time=0.16853925
EXTRACT: note_off channel=0 note=40 velocity=95 time=0
EXTRACT: note_on channel=0 note=47 velocity=95 time=0
EXTRACT: note_on channel=0 note=40 velocity=95 time=0
EXTRACT: note_off channel=2 note=47 velocity=95 time=0
EXTRACT: note_off channel=2 note=40 velocity=95 time=0
EXTRACT: note_on channel=2 note=47 velocity=95 time=0
EXTRACT: note_on channel=2 note=40 velocity=95 time=0
EXTRACT: note_off channel=6 note=64 velocity=95 time=0
EXTRACT: note_off channel=6 note=59 velocity=95 time=0
EXTRACT: note_on channel=6 note=64 velocity=95 time=0
EXTRACT: note_on channel=6 note=59 velocity=95 time=0
EXTRACT: note_off channel=11 note=64 velocity=31 time=0
EXTRACT: note_off channel=11 note=76 velocity=95 time=0
EXTRACT: note_off channel=11 note=59 velocity=31 time=0
EXTRACT: note_off channel=11 note=71 velocity=95 time=0
EXTRACT: note_on channel=11 note=64 velocity=31 time=0
EXTRACT: note_on channel=11 note=76 velocity=95 time=0
EXTRACT: note_on channel=11 note=59 velocity=31 time=0
EXTRACT: note_on channel=11 note=71 velocity=95 time=0
EXTRACT: note_off channel=8 note=28 velocity=111 time=0
EXTRACT: note_on channel=8 note=28 velocity=111 time=0
EXTRACT: note_on channel=9 note=36 velocity=111 time=0
EXTRACT: note_on channel=9 note=42 velocity=111 time=0
EXTRACT: note_off channel=6 note=64 velocity=95 time=0.16853925
EXTRACT: note_off channel=6 note=59 velocity=95 time=0
EXTRACT: note_on channel=6 note=64 velocity=95 time=0
EXTRACT: note_on channel=6 note=59 velocity=95 time=0
EXTRACT: note_off channel=11 note=64 velocity=31 time=0
EXTRACT: note_off channel=11 note=76 velocity=95 time=0
EXTRACT: note_off channel=11 note=59 velocity=31 time=0
EXTRACT: note_off channel=11 note=71 velocity=95 time=0
EXTRACT: note_on channel=11 note=64 velocity=31 time=0
EXTRACT: note_on channel=11 note=76 velocity=95 time=0
EXTRACT: note_on channel=11 note=59 velocity=31 time=0
EXTRACT: note_on channel=11 note=71 velocity=95 time=0
EXTRACT: note_off channel=9 note=36 velocity=111 time=0
EXTRACT: note_off channel=9 note=42 velocity=111 time=0
EXTRACT: note_off channel=0 note=47 velocity=95 time=0.16853925
EXTRACT: note_off channel=0 note=40 velocity=95 time=0
EXTRACT: pitchwheel channel=1 pitch=0 time=0
EXTRACT: note_on channel=1 note=55 velocity=95 time=0
EXTRACT: note_off channel=2 note=47 velocity=95 time=0
EXTRACT: note_off channel=2 note=40 velocity=95 time=0
EXTRACT: note_off channel=6 note=64 velocity=95 time=0
EXTRACT: note_off channel=6 note=59 velocity=95 time=0
EXTRACT: note_on channel=6 note=64 velocity=95 time=0
EXTRACT: note_on channel=6 note=59 velocity=95 time=0
EXTRACT: note_off channel=11 note=64 velocity=31 time=0
EXTRACT: note_off channel=11 note=76 velocity=95 time=0
EXTRACT: note_off channel=11 note=59 velocity=31 time=0
EXTRACT: note_off channel=11 note=71 velocity=95 time=0
EXTRACT: note_on channel=11 note=64 velocity=31 time=0
EXTRACT: note_on channel=11 note=76 velocity=95 time=0
EXTRACT: note_on channel=11 note=59 velocity=31 time=0
EXTRACT: note_on channel=11 note=71 velocity=95 time=0
EXTRACT: note_off channel=8 note=28 velocity=111 time=0
EXTRACT: note_off channel=13 note=76 velocity=95 time=0
EXTRACT: note_on channel=13 note=79 velocity=95 time=0
EXTRACT: note_off channel=4 note=64 velocity=95 time=0
EXTRACT: note_on channel=4 note=67 velocity=95 time=0
EXTRACT: note_off channel=15 note=76 velocity=95 time=0
EXTRACT: note_off channel=15 note=64 velocity=95 time=0
EXTRACT: note_on channel=15 note=79 velocity=95 time=0
EXTRACT: note_on channel=15 note=67 velocity=95 time=0
EXTRACT: note_on channel=9 note=56 velocity=95 time=0
EXTRACT: note_on channel=9 note=38 velocity=111 time=0
EXTRACT: note_on channel=9 note=82 velocity=95 time=0
EXTRACT: note_on channel=9 note=42 velocity=111 time=0
EXTRACT: pitchwheel channel=1 pitch=0 time=0.1123595
EXTRACT: note_off channel=6 note=64 velocity=95 time=0.05617975
EXTRACT: note_off channel=6 note=59 velocity=95 time=0
EXTRACT: note_on channel=6 note=64 velocity=95 time=0
EXTRACT: note_on channel=6 note=59 velocity=95 time=0
EXTRACT: note_off channel=11 note=64 velocity=31 time=0
EXTRACT: note_off channel=11 note=76 velocity=95 time=0
EXTRACT: note_off channel=11 note=59 velocity=31 time=0
EXTRACT: note_off channel=11 note=71 velocity=95 time=0
EXTRACT: note_on channel=11 note=64 velocity=31 time=0
EXTRACT: note_on channel=11 note=76 velocity=95 time=0
EXTRACT: note_on channel=11 note=59 velocity=31 time=0
EXTRACT: note_on channel=11 note=71 velocity=95 time=0
EXTRACT: note_off channel=9 note=56 velocity=95 time=0
EXTRACT: note_off channel=9 note=38 velocity=111 time=0
EXTRACT: note_off channel=9 note=82 velocity=95 time=0
EXTRACT: note_off channel=9 note=42 velocity=111 time=0
EXTRACT: pitchwheel channel=1 pitch=128 time=0.05617975
EXTRACT: pitchwheel channel=1 pitch=256 time=0.1123595
EXTRACT: pitchwheel channel=1 pitch=256 time=0
EXTRACT: note_off channel=6 note=64 velocity=95 time=0
EXTRACT: note_off channel=6 note=59 velocity=95 time=0
EXTRACT: note_on channel=6 note=64 velocity=95 time=0
EXTRACT: note_on channel=6 note=59 velocity=95 time=0
EXTRACT: note_off channel=11 note=64 velocity=31 time=0
EXTRACT: note_off channel=11 note=76 velocity=95 time=0
EXTRACT: note_off channel=11 note=59 velocity=31 time=0
EXTRACT: note_off channel=11 note=71 velocity=95 time=0
EXTRACT: note_on channel=11 note=64 velocity=31 time=0
EXTRACT: note_on channel=11 note=76 velocity=95 time=0
EXTRACT: note_on channel=11 note=59 velocity=31 time=0
EXTRACT: note_on channel=11 note=71 velocity=95 time=0
EXTRACT: note_on channel=9 note=82 velocity=95 time=0
EXTRACT: note_on channel=9 note=42 velocity=111 time=0
EXTRACT: note_off channel=6 note=64 velocity=95 time=0.16853925
EXTRACT: note_off channel=6 note=59 velocity=95 time=0
EXTRACT: note_on channel=6 note=64 velocity=95 time=0
EXTRACT: note_on channel=6 note=59 velocity=95 time=0
EXTRACT: note_off channel=11 note=64 velocity=31 time=0
EXTRACT: note_off channel=11 note=76 velocity=95 time=0
EXTRACT: note_off channel=11 note=59 velocity=31 time=0
EXTRACT: note_off channel=11 note=71 velocity=95 time=0
EXTRACT: note_on channel=11 note=64 velocity=31 time=0
EXTRACT: note_on channel=11 note=76 velocity=95 time=0
EXTRACT: note_on channel=11 note=59 velocity=31 time=0
EXTRACT: note_on channel=11 note=71 velocity=95 time=0
EXTRACT: note_on channel=8 note=28 velocity=95 time=0
EXTRACT: note_off channel=9 note=82 velocity=95 time=0
EXTRACT: note_off channel=9 note=42 velocity=111 time=0
EXTRACT: note_on channel=9 note=82 velocity=79 time=0
EXTRACT: pitchwheel channel=1 pitch=256 time=0.1123595
EXTRACT: pitchwheel channel=1 pitch=128 time=0.028089875
EXTRACT: pitchwheel channel=1 pitch=0 time=0.028089875
EXTRACT: pitchwheel channel=1 pitch=0 time=0
EXTRACT: pitchwheel channel=1 pitch=0 time=0
EXTRACT: note_off channel=1 note=55 velocity=95 time=0
EXTRACT: note_on channel=0 note=47 velocity=95 time=0
EXTRACT: note_on channel=0 note=40 velocity=95 time=0
EXTRACT: note_on channel=2 note=47 velocity=95 time=0
EXTRACT: note_on channel=2 note=40 velocity=95 time=0
EXTRACT: note_off channel=6 note=64 velocity=95 time=0
EXTRACT: note_off channel=6 note=59 velocity=95 time=0
EXTRACT: note_on channel=6 note=64 velocity=95 time=0
EXTRACT: note_on channel=6 note=59 velocity=95 time=0
EXTRACT: note_off channel=11 note=64 velocity=31 time=0
EXTRACT: note_off channel=11 note=76 velocity=95 time=0
EXTRACT: note_off channel=11 note=59 velocity=31 time=0
EXTRACT: note_off channel=11 note=71 velocity=95 time=0
EXTRACT: note_on channel=11 note=64 velocity=31 time=0
EXTRACT: note_on channel=11 note=76 velocity=95 time=0
EXTRACT: note_on channel=11 note=59 velocity=31 time=0
EXTRACT: note_on channel=11 note=71 velocity=95 time=0
EXTRACT: note_off channel=8 note=28 velocity=95 time=0
EXTRACT: note_on channel=8 note=28 velocity=111 time=0
EXTRACT: note_off channel=13 note=79 velocity=95 time=0
EXTRACT: note_on channel=13 note=76 velocity=95 time=0
EXTRACT: note_off channel=4 note=67 velocity=95 time=0
EXTRACT: note_on channel=4 note=64 velocity=95 time=0
EXTRACT: note_off channel=15 note=79 velocity=95 time=0
EXTRACT: note_off channel=15 note=67 velocity=95 time=0
EXTRACT: note_on channel=15 note=76 velocity=95 time=0
EXTRACT: note_on channel=15 note=64 velocity=95 time=0
EXTRACT: note_off channel=9 note=82 velocity=79 time=0
EXTRACT: note_on channel=9 note=56 velocity=95 time=0
EXTRACT: note_on channel=9 note=36 velocity=111 time=0
EXTRACT: note_on channel=9 note=42 velocity=111 time=0
EXTRACT: note_off channel=6 note=64 velocity=95 time=0.16853925
EXTRACT: note_off channel=6 note=59 velocity=95 time=0
EXTRACT: note_on channel=6 note=64 velocity=95 time=0
EXTRACT: note_on channel=6 note=59 velocity=95 time=0
EXTRACT: note_off channel=11 note=64 velocity=31 time=0
EXTRACT: note_off channel=11 note=76 velocity=95 time=0
EXTRACT: note_off channel=11 note=59 velocity=31 time=0
EXTRACT: note_off channel=11 note=71 velocity=95 time=0
EXTRACT: note_on channel=11 note=64 velocity=31 time=0
EXTRACT: note_on channel=11 note=76 velocity=95 time=0
EXTRACT: note_on channel=11 note=59 velocity=31 time=0
EXTRACT: note_on channel=11 note=71 velocity=95 time=0
EXTRACT: note_off channel=13 note=76 velocity=95 time=0
EXTRACT: note_off channel=4 note=64 velocity=95 time=0
EXTRACT: note_off channel=15 note=76 velocity=95 time=0
EXTRACT: note_off channel=15 note=64 velocity=95 time=0
EXTRACT: note_off channel=9 note=56 velocity=95 time=0
EXTRACT: note_off channel=9 note=36 velocity=111 time=0
EXTRACT: note_off channel=9 note=42 velocity=111 time=0
EXTRACT: note_on channel=9 note=82 velocity=95 time=0
EXTRACT: note_off channel=0 note=47 velocity=95 time=0.16853925
EXTRACT: note_off channel=0 note=40 velocity=95 time=0
EXTRACT: note_on channel=0 note=47 velocity=95 time=0
EXTRACT: note_on channel=0 note=40 velocity=95 time=0
EXTRACT: note_off channel=2 note=47 velocity=95 time=0
EXTRACT: note_off channel=2 note=40 velocity=95 time=0
EXTRACT: note_on channel=2 note=47 velocity=95 time=0
EXTRACT: note_on channel=2 note=40 velocity=95 time=0
EXTRACT: note_off channel=6 note=64 velocity=95 time=0
EXTRACT: note_off channel=6 note=59 velocity=95 time=0
EXTRACT: note_on channel=6 note=64 velocity=95 time=0
EXTRACT: note_on channel=6 note=59 velocity=95 time=0
EXTRACT: note_off channel=11 note=64 velocity=31 time=0
EXTRACT: note_off channel=11 note=76 velocity=95 time=0
EXTRACT: note_off channel=11 note=59 velocity=31 time=0
EXTRACT: note_off channel=11 note=71 velocity=95 time=0
EXTRACT: note_on channel=11 note=64 velocity=31 time=0
EXTRACT: note_on channel=11 note=76 velocity=95 time=0
EXTRACT: note_on channel=11 note=59 velocity=31 time=0
EXTRACT: note_on channel=11 note=71 velocity=95 time=0
EXTRACT: note_off channel=8 note=28 velocity=111 time=0
EXTRACT: note_on channel=8 note=28 velocity=111 time=0
EXTRACT: note_on channel=13 note=74 velocity=95 time=0
EXTRACT: note_on channel=4 note=62 velocity=95 time=0
EXTRACT: note_on channel=15 note=74 velocity=95 time=0
EXTRACT: note_on channel=15 note=62 velocity=95 time=0
EXTRACT: note_off channel=9 note=82 velocity=95 time=0
EXTRACT: note_on channel=9 note=42 velocity=111 time=0
EXTRACT: note_on channel=9 note=36 velocity=111 time=0
EXTRACT: note_on channel=9 note=82 velocity=79 time=0
EXTRACT: note_off channel=6 note=64 velocity=95 time=0.16853925
EXTRACT: note_off channel=6 note=59 velocity=95 time=0
EXTRACT: note_on channel=6 note=64 velocity=95 time=0
EXTRACT: note_on channel=6 note=59 velocity=95 time=0
EXTRACT: note_off channel=11 note=64 velocity=31 time=0
EXTRACT: note_off channel=11 note=76 velocity=95 time=0
EXTRACT: note_off channel=11 note=59 velocity=31 time=0
EXTRACT: note_off channel=11 note=71 velocity=95 time=0
EXTRACT: note_on channel=11 note=64 velocity=31 time=0
EXTRACT: note_on channel=11 note=76 velocity=95 time=0
EXTRACT: note_on channel=11 note=59 velocity=31 time=0
EXTRACT: note_on channel=11 note=71 velocity=95 time=0
EXTRACT: note_off channel=13 note=74 velocity=95 time=0
EXTRACT: note_on channel=13 note=76 velocity=95 time=0
EXTRACT: note_off channel=4 note=62 velocity=95 time=0
EXTRACT: note_on channel=4 note=64 velocity=95 time=0
EXTRACT: note_off channel=15 note=74 velocity=95 time=0
EXTRACT: note_off channel=15 note=62 velocity=95 time=0
EXTRACT: note_on channel=15 note=76 velocity=95 time=0
EXTRACT: note_on channel=15 note=64 velocity=95 time=0
EXTRACT: note_off channel=9 note=42 velocity=111 time=0
EXTRACT: note_off channel=9 note=36 velocity=111 time=0
EXTRACT: note_off channel=9 note=82 velocity=79 time=0
EXTRACT: note_off channel=0 note=47 velocity=95 time=0.16853925
EXTRACT: note_off channel=0 note=40 velocity=95 time=0
EXTRACT: note_off channel=2 note=47 velocity=95 time=0
EXTRACT: note_off channel=2 note=40 velocity=95 time=0
EXTRACT: note_off channel=6 note=64 velocity=95 time=0
EXTRACT: note_off channel=6 note=59 velocity=95 time=0
EXTRACT: note_on channel=6 note=64 velocity=95 time=0
EXTRACT: note_on channel=6 note=59 velocity=95 time=0
EXTRACT: note_off channel=11 note=64 velocity=31 time=0
EXTRACT: note_off channel=11 note=76 velocity=95 time=0
EXTRACT: note_off channel=11 note=59 velocity=31 time=0
EXTRACT: note_off channel=11 note=71 velocity=95 time=0
EXTRACT: note_on channel=11 note=64 velocity=31 time=0
EXTRACT: note_on channel=11 note=76 velocity=95 time=0
EXTRACT: note_on channel=11 note=59 velocity=31 time=0
EXTRACT: note_on channel=11 note=71 velocity=95 time=0
EXTRACT: note_off channel=8 note=28 velocity=111 time=0
EXTRACT: note_on channel=9 note=56 velocity=95 time=0
EXTRACT: note_on channel=9 note=42 velocity=111 time=0
EXTRACT: note_on channel=9 note=38 velocity=127 time=0
EXTRACT: note_on channel=9 note=82 velocity=95 time=0
EXTRACT: note_on channel=0 note=43 velocity=95 time=0.16853925
EXTRACT: note_off channel=6 note=64 velocity=95 time=0
EXTRACT: note_off channel=6 note=59 velocity=95 time=0
EXTRACT: note_on channel=6 note=64 velocity=95 time=0
EXTRACT: note_on channel=6 note=59 velocity=95 time=0
EXTRACT: note_off channel=11 note=64 velocity=31 time=0
EXTRACT: note_off channel=11 note=76 velocity=95 time=0
EXTRACT: note_off channel=11 note=59 velocity=31 time=0
EXTRACT: note_off channel=11 note=71 velocity=95 time=0
EXTRACT: note_on channel=11 note=64 velocity=31 time=0
EXTRACT: note_on channel=11 note=76 velocity=95 time=0
EXTRACT: note_on channel=11 note=59 velocity=31 time=0
EXTRACT: note_on channel=11 note=71 velocity=95 time=0
EXTRACT: note_on channel=8 note=31 velocity=127 time=0
EXTRACT: note_off channel=9 note=56 velocity=95 time=0
EXTRACT: note_off channel=9 note=42 velocity=111 time=0
EXTRACT: note_off channel=9 note=38 velocity=127 time=0
EXTRACT: note_off channel=9 note=82 velocity=95 time=0
EXTRACT: note_off channel=6 note=64 velocity=95 time=0.16853925
EXTRACT: note_off channel=6 note=59 velocity=95 time=0
EXTRACT: note_on channel=6 note=64 velocity=95 time=0
EXTRACT: note_on channel=6 note=59 velocity=95 time=0
EXTRACT: note_off channel=11 note=64 velocity=31 time=0
EXTRACT: note_off channel=11 note=76 velocity=95 time=0
EXTRACT: note_off channel=11 note=59 velocity=31 time=0
EXTRACT: note_off channel=11 note=71 velocity=95 time=0
EXTRACT: note_on channel=11 note=64 velocity=31 time=0
EXTRACT: note_on channel=11 note=76 velocity=95 time=0
EXTRACT: note_on channel=11 note=59 velocity=31 time=0
EXTRACT: note_on channel=11 note=71 velocity=95 time=0
EXTRACT: note_off channel=13 note=76 velocity=95 time=0
EXTRACT: note_off channel=4 note=64 velocity=95 time=0
EXTRACT: note_off channel=15 note=76 velocity=95 time=0
EXTRACT: note_off channel=15 note=64 velocity=95 time=0
EXTRACT: note_on channel=9 note=42 velocity=111 time=0
EXTRACT: note_off channel=6 note=64 velocity=95 time=0.16853925
EXTRACT: note_off channel=6 note=59 velocity=95 time=0
EXTRACT: note_on channel=6 note=64 velocity=95 time=0
EXTRACT: note_on channel=6 note=59 velocity=95 time=0
EXTRACT: note_off channel=11 note=64 velocity=31 time=0
EXTRACT: note_off channel=11 note=76 velocity=95 time=0
EXTRACT: note_off channel=11 note=59 velocity=31 time=0
EXTRACT: note_off channel=11 note=71 velocity=95 time=0
EXTRACT: note_on channel=11 note=64 velocity=31 time=0
EXTRACT: note_on channel=11 note=76 velocity=95 time=0
EXTRACT: note_on channel=11 note=59 velocity=31 time=0
EXTRACT: note_on channel=11 note=71 velocity=95 time=0
EXTRACT: note_on channel=13 note=71 velocity=95 time=0
EXTRACT: note_on channel=4 note=59 velocity=95 time=0
EXTRACT: note_on channel=15 note=71 velocity=95 time=0
EXTRACT: note_on channel=15 note=59 velocity=95 time=0
EXTRACT: note_off channel=9 note=42 velocity=111 time=0
EXTRACT: note_off channel=0 note=43 velocity=95 time=0
EXTRACT: note_on channel=0 note=52 velocity=95 time=0
EXTRACT: note_on channel=0 note=45 velocity=95 time=0
EXTRACT: note_on channel=2 note=52 velocity=95 time=0
EXTRACT: note_on channel=2 note=45 velocity=95 time=0
EXTRACT: note_off channel=6 note=64 velocity=95 time=0
EXTRACT: note_off channel=6 note=59 velocity=95 time=0
EXTRACT: note_on channel=6 note=64 velocity=95 time=0
EXTRACT: note_on channel=6 note=59 velocity=95 time=0
EXTRACT: note_off channel=11 note=64 velocity=31 time=0
EXTRACT: note_off channel=11 note=76 velocity=95 time=0
EXTRACT: note_off channel=11 note=59 velocity=31 time=0
EXTRACT: note_off channel=11 note=71 velocity=95 time=0
EXTRACT: note_on channel=11 note=64 velocity=31 time=0
EXTRACT: note_on channel=11 note=76 velocity=95 time=0
EXTRACT: note_on channel=11 note=59 velocity=31 time=0
EXTRACT: note_on channel=11 note=71 velocity=95 time=0
EXTRACT: note_off channel=8 note=31 velocity=127 time=0
EXTRACT: note_on channel=8 note=33 velocity=111 time=0
EXTRACT: note_off channel=13 note=71 velocity=95 time=0
EXTRACT: note_on channel=13 note=76 velocity=95 time=0
EXTRACT: note_off channel=4 note=59 velocity=95 time=0
EXTRACT: note_on channel=4 note=64 velocity=95 time=0
EXTRACT: note_off channel=15 note=71 velocity=95 time=0
EXTRACT: note_off channel=15 note=59 velocity=95 time=0
EXTRACT: note_on channel=15 note=76 velocity=95 time=0
EXTRACT: note_on channel=15 note=64 velocity=95 time=0
EXTRACT: note_on channel=9 note=82 velocity=111 time=0
EXTRACT: note_on channel=9 note=42 velocity=111 time=0
EXTRACT: note_on channel=9 note=56 velocity=95 time=0
EXTRACT: note_on channel=9 note=36 velocity=111 time=0
EXTRACT: note_off channel=6 note=64 velocity=95 time=0.16853925
EXTRACT: note_off channel=6 note=59 velocity=95 time=0
EXTRACT: note_on channel=6 note=64 velocity=95 time=0
EXTRACT: note_on channel=6 note=59 velocity=95 time=0
EXTRACT: note_off channel=11 note=64 velocity=31 time=0
EXTRACT: note_off channel=11 note=76 velocity=95 time=0
EXTRACT: note_off channel=11 note=59 velocity=31 time=0
EXTRACT: note_off channel=11 note=71 velocity=95 time=0
EXTRACT: note_on channel=11 note=64 velocity=31 time=0
EXTRACT: note_on channel=11 note=76 velocity=95 time=0
EXTRACT: note_on channel=11 note=59 velocity=31 time=0
EXTRACT: note_on channel=11 note=71 velocity=95 time=0
EXTRACT: note_off channel=13 note=76 velocity=95 time=0
EXTRACT: note_on channel=13 note=76 velocity=95 time=0
EXTRACT: note_off channel=4 note=64 velocity=95 time=0
EXTRACT: note_on channel=4 note=64 velocity=95 time=0
EXTRACT: note_off channel=15 note=76 velocity=95 time=0
EXTRACT: note_off channel=15 note=64 velocity=95 time=0
EXTRACT: note_on channel=15 note=76 velocity=95 time=0
EXTRACT: note_on channel=15 note=64 velocity=95 time=0
EXTRACT: note_off channel=9 note=82 velocity=111 time=0
EXTRACT: note_off channel=9 note=42 velocity=111 time=0
EXTRACT: note_off channel=9 note=56 velocity=95 time=0
EXTRACT: note_off channel=9 note=36 velocity=111 time=0
EXTRACT: note_off channel=0 note=52 velocity=95 time=0.16853925
EXTRACT: note_off channel=0 note=45 velocity=95 time=0
EXTRACT: note_on channel=0 note=52 velocity=95 time=0
EXTRACT: note_on channel=0 note=45 velocity=95 time=0
EXTRACT: note_off channel=2 note=52 velocity=95 time=0
EXTRACT: note_off channel=2 note=45 velocity=95 time=0
EXTRACT: note_on channel=2 note=52 velocity=95 time=0
EXTRACT: note_on channel=2 note=45 velocity=95 time=0
EXTRACT: note_off channel=6 note=64 velocity=95 time=0
EXTRACT: note_off channel=6 note=59 velocity=95 time=0
EXTRACT: note_on channel=6 note=64 velocity=95 time=0
EXTRACT: note_on channel=6 note=59 velocity=95 time=0
EXTRACT: note_off channel=11 note=64 velocity=31 time=0
EXTRACT: note_off channel=11 note=76 velocity=95 time=0
EXTRACT: note_off channel=11 note=59 velocity=31 time=0
EXTRACT: note_off channel=11 note=71 velocity=95 time=0
EXTRACT: note_on channel=11 note=64 velocity=31 time=0
EXTRACT: note_on channel=11 note=76 velocity=95 time=0
EXTRACT: note_on channel=11 note=59 velocity=31 time=0
EXTRACT: note_on channel=11 note=71 velocity=95 time=0
EXTRACT: note_off channel=8 note=33 velocity=111 time=0
EXTRACT: note_on channel=8 note=33 velocity=111 time=0
EXTRACT: note_off channel=13 note=76 velocity=95 time=0
EXTRACT: note_on channel=13 note=76 velocity=95 time=0
EXTRACT: note_off channel=4 note=64 velocity=95 time=0
EXTRACT: note_on channel=4 note=64 velocity=95 time=0
EXTRACT: note_off channel=15 note=76 velocity=95 time=0
EXTRACT: note_off channel=15 note=64 velocity=95 time=0
EXTRACT: note_on channel=15 note=76 velocity=95 time=0
EXTRACT: note_on channel=15 note=64 velocity=95 time=0
EXTRACT: note_on channel=9 note=82 velocity=95 time=0
EXTRACT: note_on channel=9 note=42 velocity=111 time=0
EXTRACT: note_on channel=9 note=36 velocity=111 time=0
EXTRACT: note_off channel=6 note=64 velocity=95 time=0.16853925
EXTRACT: note_off channel=6 note=59 velocity=95 time=0
EXTRACT: note_on channel=6 note=64 velocity=95 time=0
EXTRACT: note_on channel=6 note=59 velocity=95 time=0
EXTRACT: note_off channel=11 note=64 velocity=31 time=0
EXTRACT: note_off channel=11 note=76 velocity=95 time=0
EXTRACT: note_off channel=11 note=59 velocity=31 time=0
EXTRACT: note_off channel=11 note=71 velocity=95 time=0
EXTRACT: note_on channel=11 note=64 velocity=31 time=0
EXTRACT: note_on channel=11 note=76 velocity=95 time=0
EXTRACT: note_on channel=11 note=59 velocity=31 time=0
EXTRACT: note_on channel=11 note=71 velocity=95 time=0
EXTRACT: note_off channel=13 note=76 velocity=95 time=0
EXTRACT: note_on channel=13 note=76 velocity=95 time=0
EXTRACT: note_off channel=4 note=64 velocity=95 time=0
EXTRACT: note_on channel=4 note=64 velocity=95 time=0
EXTRACT: note_off channel=15 note=76 velocity=95 time=0
EXTRACT: note_off channel=15 note=64 velocity=95 time=0
EXTRACT: note_on channel=15 note=76 velocity=95 time=0
EXTRACT: note_on channel=15 note=64 velocity=95 time=0
EXTRACT: note_off channel=9 note=82 velocity=95 time=0
EXTRACT: note_off channel=9 note=42 velocity=111 time=0
EXTRACT: note_off channel=9 note=36 velocity=111 time=0
EXTRACT: note_on channel=9 note=82 velocity=79 time=0
EXTRACT: note_off channel=0 note=52 velocity=95 time=0.16853925
EXTRACT: note_off channel=0 note=45 velocity=95 time=0
EXTRACT: note_off channel=2 note=52 velocity=95 time=0
EXTRACT: note_off channel=2 note=45 velocity=95 time=0
EXTRACT: note_off channel=6 note=64 velocity=95 time=0
EXTRACT: note_off channel=6 note=59 velocity=95 time=0
EXTRACT: note_on channel=6 note=64 velocity=95 time=0
EXTRACT: note_on channel=6 note=59 velocity=95 time=0
EXTRACT: note_off channel=11 note=64 velocity=31 time=0
EXTRACT: note_off channel=11 note=76 velocity=95 time=0
EXTRACT: note_off channel=11 note=59 velocity=31 time=0
EXTRACT: note_off channel=11 note=71 velocity=95 time=0
EXTRACT: note_on channel=11 note=64 velocity=31 time=0
EXTRACT: note_on channel=11 note=76 velocity=95 time=0
EXTRACT: note_on channel=11 note=59 velocity=31 time=0
EXTRACT: note_on channel=11 note=71 velocity=95 time=0
EXTRACT: note_off channel=8 note=33 velocity=111 time=0
EXTRACT: note_off channel=13 note=76 velocity=95 time=0
EXTRACT: note_on channel=13 note=76 velocity=95 time=0
EXTRACT: note_off channel=4 note=64 velocity=95 time=0
EXTRACT: note_on channel=4 note=64 velocity=95 time=0
EXTRACT: note_off channel=15 note=76 velocity=95 time=0
EXTRACT: note_off channel=15 note=64 velocity=95 time=0
EXTRACT: note_on channel=15 note=76 velocity=95 time=0
EXTRACT: note_on channel=15 note=64 velocity=95 time=0
EXTRACT: note_off channel=9 note=82 velocity=79 time=0
EXTRACT: note_on channel=9 note=42 velocity=111 time=0
EXTRACT: note_on channel=9 note=38 velocity=127 time=0
EXTRACT: note_on channel=9 note=82 velocity=79 time=0
EXTRACT: note_on channel=9 note=56 velocity=95 time=0
EXTRACT: note_off channel=6 note=64 velocity=95 time=0.16853925
EXTRACT: note_off channel=6 note=59 velocity=95 time=0
EXTRACT: note_on channel=6 note=64 velocity=95 time=0
EXTRACT: note_on channel=6 note=59 velocity=95 time=0
EXTRACT: note_off channel=11 note=64 velocity=31 time=0
EXTRACT: note_off channel=11 note=76 velocity=95 time=0
EXTRACT: note_off channel=11 note=59 velocity=31 time=0
EXTRACT: note_off channel=11 note=71 velocity=95 time=0
EXTRACT: note_on channel=11 note=64 velocity=31 time=0
EXTRACT: note_on channel=11 note=76 velocity=95 time=0
EXTRACT: note_on channel=11 note=59 velocity=31 time=0
EXTRACT: note_on channel=11 note=71 velocity=95 time=0
EXTRACT: note_off channel=9 note=42 velocity=111 time=0
EXTRACT: note_off channel=9 note=38 velocity=127 time=0
EXTRACT: note_off channel=9 note=82 velocity=79 time=0
EXTRACT: note_off channel=9 note=56 velocity=95 time=0
EXTRACT: note_on channel=9 note=82 velocity=95 time=0
EXTRACT: note_off channel=6 note=64 velocity=95 time=0.16853925
EXTRACT: note_off channel=6 note=59 velocity=95 time=0
EXTRACT: note_on channel=6 note=64 velocity=95 time=0
EXTRACT: note_on channel=6 note=59 velocity=95 time=0
EXTRACT: note_off channel=11 note=64 velocity=31 time=0
EXTRACT: note_off channel=11 note=76 velocity=95 time=0
EXTRACT: note_off channel=11 note=59 velocity=31 time=0
EXTRACT: note_off channel=11 note=71 velocity=95 time=0
EXTRACT: note_on channel=11 note=64 velocity=31 time=0
EXTRACT: note_on channel=11 note=76 velocity=95 time=0
EXTRACT: note_on channel=11 note=59 velocity=31 time=0
EXTRACT: note_on channel=11 note=71 velocity=95 time=0
EXTRACT: note_off channel=13 note=76 velocity=95 time=0
EXTRACT: note_on channel=13 note=78 velocity=95 time=0
EXTRACT: note_off channel=4 note=64 velocity=95 time=0
EXTRACT: note_on channel=4 note=66 velocity=95 time=0
EXTRACT: note_off channel=15 note=76 velocity=95 time=0
EXTRACT: note_off channel=15 note=64 velocity=95 time=0
EXTRACT: note_on channel=15 note=78 velocity=95 time=0
EXTRACT: note_on channel=15 note=66 velocity=95 time=0
EXTRACT: note_off channel=9 note=82 velocity=95 time=0
EXTRACT: note_on channel=9 note=42 velocity=127 time=0
EXTRACT: note_off channel=6 note=64 velocity=95 time=0.16853925
EXTRACT: note_off channel=6 note=59 velocity=95 time=0
EXTRACT: note_on channel=6 note=64 velocity=95 time=0
EXTRACT: note_on channel=6 note=59 velocity=95 time=0
EXTRACT: note_off channel=11 note=64 velocity=31 time=0
EXTRACT: note_off channel=11 note=76 velocity=95 time=0
EXTRACT: note_off channel=11 note=59 velocity=31 time=0
EXTRACT: note_off channel=11 note=71 velocity=95 time=0
EXTRACT: note_on channel=11 note=64 velocity=31 time=0
EXTRACT: note_on channel=11 note=76 velocity=95 time=0
EXTRACT: note_on channel=11 note=59 velocity=31 time=0
EXTRACT: note_on channel=11 note=71 velocity=95 time=0
EXTRACT: note_on channel=8 note=33 velocity=95 time=0
EXTRACT: note_off channel=9 note=42 velocity=127 time=0
EXTRACT: note_on channel=9 note=82 velocity=95 time=0
EXTRACT: note_on channel=0 note=54 velocity=95 time=0.16853925
EXTRACT: note_on channel=0 note=47 velocity=95 time=0
EXTRACT: note_on channel=2 note=54 velocity=95 time=0
EXTRACT: note_on channel=2 note=47 velocity=95 time=0
EXTRACT: note_off channel=6 note=64 velocity=95 time=0
EXTRACT: note_off channel=6 note=59 velocity=95 time=0
EXTRACT: note_on channel=6 note=64 velocity=95 time=0
EXTRACT: note_on channel=6 note=59 velocity=95 time=0
EXTRACT: note_off channel=11 note=64 velocity=31 time=0
EXTRACT: note_off channel=11 note=76 velocity=95 time=0
EXTRACT: note_off channel=11 note=59 velocity=31 time=0
EXTRACT: note_off channel=11 note=71 velocity=95 time=0
EXTRACT: note_on channel=11 note=64 velocity=31 time=0
EXTRACT: note_on channel=11 note=76 velocity=95 time=0
EXTRACT: note_on channel=11 note=59 velocity=31 time=0
EXTRACT: note_on channel=11 note=71 velocity=95 time=0
EXTRACT: note_off channel=8 note=33 velocity=95 time=0
EXTRACT: note_on channel=8 note=35 velocity=111 time=0
EXTRACT: note_off channel=13 note=78 velocity=95 time=0
EXTRACT: note_on channel=13 note=79 velocity=95 time=0
EXTRACT: note_off channel=4 note=66 velocity=95 time=0
EXTRACT: note_on channel=4 note=67 velocity=95 time=0
EXTRACT: note_off channel=15 note=78 velocity=95 time=0
EXTRACT: note_off channel=15 note=66 velocity=95 time=0
EXTRACT: note_on channel=15 note=79 velocity=95 time=0
EXTRACT: note_on channel=15 note=67 velocity=95 time=0
EXTRACT: note_off channel=9 note=82 velocity=95 time=0
EXTRACT: note_on channel=9 note=42 velocity=127 time=0
EXTRACT: note_on channel=9 note=36 velocity=111 time=0
EXTRACT: note_on channel=9 note=56 velocity=95 time=0
EXTRACT: note_off channel=6 note=64 velocity=95 time=0.16853925
EXTRACT: note_off channel=6 note=59 velocity=95 time=0
EXTRACT: note_on channel=6 note=64 velocity=95 time=0
EXTRACT: note_on channel=6 note=59 velocity=95 time=0
EXTRACT: note_off channel=11 note=64 velocity=31 time=0
EXTRACT: note_off channel=11 note=76 velocity=95 time=0
EXTRACT: note_off channel=11 note=59 velocity=31 time=0
EXTRACT: note_off channel=11 note=71 velocity=95 time=0
EXTRACT: note_on channel=11 note=64 velocity=31 time=0
EXTRACT: note_on channel=11 note=76 velocity=95 time=0
EXTRACT: note_on channel=11 note=59 velocity=31 time=0
EXTRACT: note_on channel=11 note=71 velocity=95 time=0
EXTRACT: note_off channel=9 note=42 velocity=127 time=0
EXTRACT: note_off channel=9 note=36 velocity=111 time=0
EXTRACT: note_off channel=9 note=56 velocity=95 time=0
EXTRACT: note_on channel=9 note=82 velocity=95 time=0
EXTRACT: note_off channel=0 note=54 velocity=95 time=0.16853925
EXTRACT: note_off channel=0 note=47 velocity=95 time=0
EXTRACT: note_on channel=0 note=47 velocity=95 time=0
EXTRACT: note_off channel=2 note=54 velocity=95 time=0
EXTRACT: note_off channel=2 note=47 velocity=95 time=0
EXTRACT: note_on channel=2 note=47 velocity=95 time=0
EXTRACT: note_off channel=6 note=64 velocity=95 time=0
EXTRACT: note_off channel=6 note=59 velocity=95 time=0
EXTRACT: note_on channel=6 note=64 velocity=95 time=0
EXTRACT: note_on channel=6 note=59 velocity=95 time=0
EXTRACT: note_off channel=11 note=64 velocity=31 time=0
EXTRACT: note_off channel=11 note=76 velocity=95 time=0
EXTRACT: note_off channel=11 note=59 velocity=31 time=0
EXTRACT: note_off channel=11 note=71 velocity=95 time=0
EXTRACT: note_on channel=11 note=64 velocity=31 time=0
EXTRACT: note_on channel=11 note=76 velocity=95 time=0
EXTRACT: note_on channel=11 note=59 velocity=31 time=0
EXTRACT: note_on channel=11 note=71 velocity=95 time=0
EXTRACT: note_off channel=8 note=35 velocity=111 time=0
EXTRACT: note_on channel=8 note=35 velocity=95 time=0
EXTRACT: note_off channel=13 note=79 velocity=95 time=0
EXTRACT: note_on channel=13 note=78 velocity=95 time=0
EXTRACT: note_off channel=4 note=67 velocity=95 time=0
EXTRACT: note_on channel=4 note=66 velocity=95 time=0
EXTRACT: note_off channel=15 note=79 velocity=95 time=0
EXTRACT: note_off channel=15 note=67 velocity=95 time=0
EXTRACT: note_on channel=15 note=78 velocity=95 time=0
EXTRACT: note_on channel=15 note=66 velocity=95 time=0
EXTRACT: note_off channel=9 note=82 velocity=95 time=0
EXTRACT: note_on channel=9 note=42 velocity=111 time=0
EXTRACT: note_on channel=9 note=82 velocity=79 time=0
EXTRACT: note_on channel=9 note=36 velocity=111 time=0
EXTRACT: note_off channel=6 note=64 velocity=95 time=0.16853925
EXTRACT: note_off channel=6 note=59 velocity=95 time=0
EXTRACT: note_on channel=6 note=64 velocity=95 time=0
EXTRACT: note_on channel=6 note=59 velocity=95 time=0
EXTRACT: note_off channel=11 note=64 velocity=31 time=0
EXTRACT: note_off channel=11 note=76 velocity=95 time=0
EXTRACT: note_off channel=11 note=59 velocity=31 time=0
EXTRACT: note_off channel=11 note=71 velocity=95 time=0
EXTRACT: note_on channel=11 note=64 velocity=31 time=0
EXTRACT: note_on channel=11 note=76 velocity=95 time=0
EXTRACT: note_on channel=11 note=59 velocity=31 time=0
EXTRACT: note_on channel=11 note=71 velocity=95 time=0
EXTRACT: note_off channel=9 note=42 velocity=111 time=0
EXTRACT: note_off channel=9 note=82 velocity=79 time=0
EXTRACT: note_off channel=9 note=36 velocity=111 time=0
EXTRACT: note_off channel=0 note=47 velocity=95 time=0
EXTRACT: note_on channel=0 note=47 velocity=95 time=0
EXTRACT: note_on channel=0 note=40 velocity=95 time=0
EXTRACT: note_off channel=2 note=47 velocity=95 time=0
EXTRACT: note_on channel=2 note=47 velocity=95 time=0
EXTRACT: note_on channel=2 note=40 velocity=95 time=0
EXTRACT: note_off channel=6 note=64 velocity=95 time=0
EXTRACT: note_off channel=6 note=59 velocity=95 time=0
EXTRACT: note_on channel=6 note=64 velocity=95 time=0
EXTRACT: note_on channel=6 note=59 velocity=95 time=0
EXTRACT: note_off channel=11 note=64 velocity=31 time=0
EXTRACT: note_off channel=11 note=76 velocity=95 time=0
EXTRACT: note_off channel=11 note=59 velocity=31 time=0
EXTRACT: note_off channel=11 note=71 velocity=95 time=0
EXTRACT: note_on channel=11 note=64 velocity=31 time=0
EXTRACT: note_on channel=11 note=76 velocity=95 time=0
EXTRACT: note_on channel=11 note=59 velocity=31 time=0
EXTRACT: note_on channel=11 note=71 velocity=95 time=0
EXTRACT: note_off channel=8 note=35 velocity=95 time=0
EXTRACT: note_on channel=8 note=28 velocity=111 time=0
EXTRACT: note_off channel=13 note=78 velocity=95 time=0
EXTRACT: note_on channel=13 note=76 velocity=95 time=0
EXTRACT: note_off channel=4 note=66 velocity=95 time=0
EXTRACT: note_on channel=4 note=64 velocity=95 time=0
EXTRACT: note_off channel=15 note=78 velocity=95 time=0
EXTRACT: note_off channel=15 note=66 velocity=95 time=0
EXTRACT: note_on channel=15 note=76 velocity=95 time=0
EXTRACT: note_on channel=15 note=64 velocity=95 time=0
EXTRACT: note_on channel=9 note=56 velocity=95 time=0
EXTRACT: note_on channel=9 note=42 velocity=127 time=0
EXTRACT: note_on channel=9 note=36 velocity=111 time=0
EXTRACT: note_on channel=9 note=82 velocity=95 time=0
EXTRACT: note_off channel=6 note=64 velocity=95 time=0.16853925
EXTRACT: note_off channel=6 note=59 velocity=95 time=0
EXTRACT: note_on channel=6 note=64 velocity=95 time=0
EXTRACT: note_on channel=6 note=59 velocity=95 time=0
EXTRACT: note_off channel=11 note=64 velocity=31 time=0
EXTRACT: note_off channel=11 note=76 velocity=95 time=0
EXTRACT: note_off channel=11 note=59 velocity=31 time=0
EXTRACT: note_off channel=11 note=71 velocity=95 time=0
EXTRACT: note_on channel=11 note=64 velocity=31 time=0
EXTRACT: note_on channel=11 note=76 velocity=95 time=0
EXTRACT: note_on channel=11 note=59 velocity=31 time=0
EXTRACT: note_on channel=11 note=71 velocity=95 time=0
EXTRACT: note_off channel=9 note=56 velocity=95 time=0
EXTRACT: note_off channel=9 note=42 velocity=127 time=0
EXTRACT: note_off channel=9 note=36 velocity=111 time=0
EXTRACT: note_off channel=9 note=82 velocity=95 time=0
EXTRACT: note_off channel=0 note=47 velocity=95 time=0.16853925
EXTRACT: note_off channel=0 note=40 velocity=95 time=0
EXTRACT: note_on channel=0 note=47 velocity=95 time=0
EXTRACT: note_on channel=0 note=40 velocity=95 time=0
EXTRACT: note_off channel=2 note=47 velocity=95 time=0
EXTRACT: note_off channel=2 note=40 velocity=95 time=0
EXTRACT: note_on channel=2 note=47 velocity=95 time=0
EXTRACT: note_on channel=2 note=40 velocity=95 time=0
EXTRACT: note_off channel=6 note=64 velocity=95 time=0
EXTRACT: note_off channel=6 note=59 velocity=95 time=0
EXTRACT: note_on channel=6 note=64 velocity=95 time=0
EXTRACT: note_on channel=6 note=59 velocity=95 time=0
EXTRACT: note_off channel=11 note=64 velocity=31 time=0
EXTRACT: note_off channel=11 note=76 velocity=95 time=0
EXTRACT: note_off channel=11 note=59 velocity=31 time=0
EXTRACT: note_off channel=11 note=71 velocity=95 time=0
EXTRACT: note_on channel=11 note=64 velocity=31 time=0
EXTRACT: note_on channel=11 note=76 velocity=95 time=0
EXTRACT: note_on channel=11 note=59 velocity=31 time=0
EXTRACT: note_on channel=11 note=71 velocity=95 time=0
EXTRACT: note_off channel=8 note=28 velocity=111 time=0
EXTRACT: note_on channel=8 note=28 velocity=111 time=0
EXTRACT: note_on channel=9 note=42 velocity=111 time=0
EXTRACT: note_on channel=9 note=36 velocity=111 time=0
EXTRACT: note_off channel=6 note=64 velocity=95 time=0.16853925
EXTRACT: note_off channel=6 note=59 velocity=95 time=0
EXTRACT: note_on channel=6 note=64 velocity=95 time=0
EXTRACT: note_on channel=6 note=59 velocity=95 time=0
EXTRACT: note_off channel=11 note=64 velocity=31 time=0
EXTRACT: note_off channel=11 note=76 velocity=95 time=0
EXTRACT: note_off channel=11 note=59 velocity=31 time=0
EXTRACT: note_off channel=11 note=71 velocity=95 time=0
EXTRACT: note_on channel=11 note=64 velocity=31 time=0
EXTRACT: note_on channel=11 note=76 velocity=95 time=0
EXTRACT: note_on channel=11 note=59 velocity=31 time=0
EXTRACT: note_on channel=11 note=71 velocity=95 time=0
EXTRACT: note_off channel=9 note=42 velocity=111 time=0
EXTRACT: note_off channel=9 note=36 velocity=111 time=0
EXTRACT: note_off channel=0 note=47 velocity=95 time=0.16853925
EXTRACT: note_off channel=0 note=40 velocity=95 time=0
EXTRACT: pitchwheel channel=1 pitch=0 time=0
EXTRACT: note_on channel=1 note=55 velocity=95 time=0
EXTRACT: note_off channel=2 note=47 velocity=95 time=0
EXTRACT: note_off channel=2 note=40 velocity=95 time=0
EXTRACT: note_off channel=6 note=64 velocity=95 time=0
EXTRACT: note_off channel=6 note=59 velocity=95 time=0
EXTRACT: note_on channel=6 note=64 velocity=95 time=0
EXTRACT: note_on channel=6 note=59 velocity=95 time=0
EXTRACT: note_off channel=11 note=64 velocity=31 time=0
EXTRACT: note_off channel=11 note=76 velocity=95 time=0
EXTRACT: note_off channel=11 note=59 velocity=31 time=0
EXTRACT: note_off channel=11 note=71 velocity=95 time=0
EXTRACT: note_on channel=11 note=64 velocity=31 time=0
EXTRACT: note_on channel=11 note=76 velocity=95 time=0
EXTRACT: note_on channel=11 note=59 velocity=31 time=0
EXTRACT: note_on channel=11 note=71 velocity=95 time=0
EXTRACT: note_off channel=8 note=28 velocity=111 time=0
EXTRACT: note_off channel=13 note=76 velocity=95 time=0
EXTRACT: note_on channel=13 note=79 velocity=95 time=0
EXTRACT: note_off channel=4 note=64 velocity=95 time=0
EXTRACT: note_on channel=4 note=67 velocity=95 time=0
EXTRACT: note_off channel=15 note=76 velocity=95 time=0
EXTRACT: note_off channel=15 note=64 velocity=95 time=0
EXTRACT: note_on channel=15 note=79 velocity=95 time=0
EXTRACT: note_on channel=15 note=67 velocity=95 time=0
EXTRACT: note_on channel=9 note=56 velocity=95 time=0
EXTRACT: note_on channel=9 note=42 velocity=111 time=0
EXTRACT: note_on channel=9 note=82 velocity=95 time=0
EXTRACT: note_on channel=9 note=38 velocity=111 time=0
EXTRACT: pitchwheel channel=1 pitch=0 time=0.1123595
EXTRACT: note_off channel=6 note=64 velocity=95 time=0.05617975
EXTRACT: note_off channel=6 note=59 velocity=95 time=0
EXTRACT: note_on channel=6 note=64 velocity=95 time=0
EXTRACT: note_on channel=6 note=59 velocity=95 time=0
EXTRACT: note_off channel=11 note=64 velocity=31 time=0
EXTRACT: note_off channel=11 note=76 velocity=95 time=0
EXTRACT: note_off channel=11 note=59 velocity=31 time=0
EXTRACT: note_off channel=11 note=71 velocity=95 time=0
EXTRACT: note_on channel=11 note=64 velocity=31 time=0
EXTRACT: note_on channel=11 note=76 velocity=95 time=0
EXTRACT: note_on channel=11 note=59 velocity=31 time=0
EXTRACT: note_on channel=11 note=71 velocity=95 time=0
EXTRACT: note_off channel=9 note=56 velocity=95 time=0
EXTRACT: note_off channel=9 note=42 velocity=111 time=0
EXTRACT: note_off channel=9 note=82 velocity=95 time=0
EXTRACT: note_off channel=9 note=38 velocity=111 time=0
EXTRACT: pitchwheel channel=1 pitch=128 time=0.05617975
EXTRACT: pitchwheel channel=1 pitch=256 time=0.1123595
EXTRACT: pitchwheel channel=1 pitch=256 time=0
EXTRACT: note_off channel=6 note=64 velocity=95 time=0
EXTRACT: note_off channel=6 note=59 velocity=95 time=0
EXTRACT: note_on channel=6 note=64 velocity=95 time=0
EXTRACT: note_on channel=6 note=59 velocity=95 time=0
EXTRACT: note_off channel=11 note=64 velocity=31 time=0
EXTRACT: note_off channel=11 note=76 velocity=95 time=0
EXTRACT: note_off channel=11 note=59 velocity=31 time=0
EXTRACT: note_off channel=11 note=71 velocity=95 time=0
EXTRACT: note_on channel=11 note=64 velocity=31 time=0
EXTRACT: note_on channel=11 note=76 velocity=95 time=0
EXTRACT: note_on channel=11 note=59 velocity=31 time=0
EXTRACT: note_on channel=11 note=71 velocity=95 time=0
EXTRACT: note_on channel=9 note=42 velocity=111 time=0
EXTRACT: note_off channel=6 note=64 velocity=95 time=0.16853925
EXTRACT: note_off channel=6 note=59 velocity=95 time=0
EXTRACT: note_on channel=6 note=64 velocity=95 time=0
EXTRACT: note_on channel=6 note=59 velocity=95 time=0
EXTRACT: note_off channel=11 note=64 velocity=31 time=0
EXTRACT: note_off channel=11 note=76 velocity=95 time=0
EXTRACT: note_off channel=11 note=59 velocity=31 time=0
EXTRACT: note_off channel=11 note=71 velocity=95 time=0
EXTRACT: note_on channel=11 note=64 velocity=31 time=0
EXTRACT: note_on channel=11 note=76 velocity=95 time=0
EXTRACT: note_on channel=11 note=59 velocity=31 time=0
EXTRACT: note_on channel=11 note=71 velocity=95 time=0
EXTRACT: note_on channel=8 note=28 velocity=95 time=0
EXTRACT: note_off channel=9 note=42 velocity=111 time=0
EXTRACT: note_on channel=9 note=82 velocity=95 time=0
EXTRACT: pitchwheel channel=1 pitch=256 time=0.1123595
EXTRACT: pitchwheel channel=1 pitch=128 time=0.028089875
EXTRACT: pitchwheel channel=1 pitch=0 time=0.028089875
EXTRACT: pitchwheel channel=1 pitch=0 time=0
EXTRACT: pitchwheel channel=1 pitch=0 time=0
EXTRACT: note_off channel=1 note=55 velocity=95 time=0
EXTRACT: note_on channel=0 note=47 velocity=95 time=0
EXTRACT: note_on channel=0 note=40 velocity=95 time=0
EXTRACT: note_on channel=2 note=47 velocity=95 time=0
EXTRACT: note_on channel=2 note=40 velocity=95 time=0
EXTRACT: note_off channel=6 note=64 velocity=95 time=0
EXTRACT: note_off channel=6 note=59 velocity=95 time=0
EXTRACT: note_on channel=6 note=64 velocity=95 time=0
EXTRACT: note_on channel=6 note=59 velocity=95 time=0
EXTRACT: note_off channel=11 note=64 velocity=31 time=0
EXTRACT: note_off channel=11 note=76 velocity=95 time=0
EXTRACT: note_off channel=11 note=59 velocity=31 time=0
EXTRACT: note_off channel=11 note=71 velocity=95 time=0
EXTRACT: note_on channel=11 note=64 velocity=31 time=0
EXTRACT: note_on channel=11 note=76 velocity=95 time=0
EXTRACT: note_on channel=11 note=59 velocity=31 time=0
EXTRACT: note_on channel=11 note=71 velocity=95 time=0
EXTRACT: note_off channel=8 note=28 velocity=95 time=0
EXTRACT: note_on channel=8 note=28 velocity=111 time=0
EXTRACT: note_off channel=13 note=79 velocity=95 time=0
EXTRACT: note_on channel=13 note=76 velocity=95 time=0
EXTRACT: note_off channel=4 note=67 velocity=95 time=0
EXTRACT: note_on channel=4 note=64 velocity=95 time=0
EXTRACT: note_off channel=15 note=79 velocity=95 time=0
EXTRACT: note_off channel=15 note=67 velocity=95 time=0
EXTRACT: note_on channel=15 note=76 velocity=95 time=0
EXTRACT: note_on channel=15 note=64 velocity=95 time=0
EXTRACT: note_off channel=9 note=82 velocity=95 time=0
EXTRACT: note_on channel=9 note=36 velocity=111 time=0
EXTRACT: note_on channel=9 note=42 velocity=111 time=0
EXTRACT: note_on channel=9 note=56 velocity=95 time=0
EXTRACT: note_off channel=6 note=64 velocity=95 time=0.16853925
EXTRACT: note_off channel=6 note=59 velocity=95 time=0
EXTRACT: note_on channel=6 note=64 velocity=95 time=0
EXTRACT: note_on channel=6 note=59 velocity=95 time=0
EXTRACT: note_off channel=11 note=64 velocity=31 time=0
EXTRACT: note_off channel=11 note=76 velocity=95 time=0
EXTRACT: note_off channel=11 note=59 velocity=31 time=0
EXTRACT: note_off channel=11 note=71 velocity=95 time=0
EXTRACT: note_on channel=11 note=64 velocity=31 time=0
EXTRACT: note_on channel=11 note=76 velocity=95 time=0
EXTRACT: note_on channel=11 note=59 velocity=31 time=0
EXTRACT: note_on channel=11 note=71 velocity=95 time=0
EXTRACT: note_off channel=13 note=76 velocity=95 time=0
EXTRACT: note_off channel=4 note=64 velocity=95 time=0
EXTRACT: note_off channel=15 note=76 velocity=95 time=0
EXTRACT: note_off channel=15 note=64 velocity=95 time=0
EXTRACT: note_off channel=9 note=36 velocity=111 time=0
EXTRACT: note_off channel=9 note=42 velocity=111 time=0
EXTRACT: note_off channel=9 note=56 velocity=95 time=0
EXTRACT: note_on channel=9 note=82 velocity=95 time=0
EXTRACT: note_off channel=0 note=47 velocity=95 time=0.16853925
EXTRACT: note_off channel=0 note=40 velocity=95 time=0
EXTRACT: note_on channel=0 note=47 velocity=95 time=0
EXTRACT: note_on channel=0 note=40 velocity=95 time=0
EXTRACT: note_off channel=2 note=47 velocity=95 time=0
EXTRACT: note_off channel=2 note=40 velocity=95 time=0
EXTRACT: note_on channel=2 note=47 velocity=95 time=0
EXTRACT: note_on channel=2 note=40 velocity=95 time=0
EXTRACT: note_off channel=6 note=64 velocity=95 time=0
EXTRACT: note_off channel=6 note=59 velocity=95 time=0
EXTRACT: note_on channel=6 note=64 velocity=95 time=0
EXTRACT: note_on channel=6 note=59 velocity=95 time=0
EXTRACT: note_off channel=11 note=64 velocity=31 time=0
EXTRACT: note_off channel=11 note=76 velocity=95 time=0
EXTRACT: note_off channel=11 note=59 velocity=31 time=0
EXTRACT: note_off channel=11 note=71 velocity=95 time=0
EXTRACT: note_on channel=11 note=64 velocity=31 time=0
EXTRACT: note_on channel=11 note=76 velocity=95 time=0
EXTRACT: note_on channel=11 note=59 velocity=31 time=0
EXTRACT: note_on channel=11 note=71 velocity=95 time=0
EXTRACT: note_off channel=8 note=28 velocity=111 time=0
EXTRACT: note_on channel=8 note=28 velocity=111 time=0
EXTRACT: note_on channel=13 note=74 velocity=95 time=0
EXTRACT: note_on channel=4 note=62 velocity=95 time=0
EXTRACT: note_on channel=15 note=74 velocity=95 time=0
EXTRACT: note_on channel=15 note=62 velocity=95 time=0
EXTRACT: note_off channel=9 note=82 velocity=95 time=0
EXTRACT: note_on channel=9 note=42 velocity=111 time=0
EXTRACT: note_on channel=9 note=82 velocity=79 time=0
EXTRACT: note_on channel=9 note=36 velocity=111 time=0
EXTRACT: note_off channel=6 note=64 velocity=95 time=0.16853925
EXTRACT: note_off channel=6 note=59 velocity=95 time=0
EXTRACT: note_on channel=6 note=64 velocity=95 time=0
EXTRACT: note_on channel=6 note=59 velocity=95 time=0
EXTRACT: note_off channel=11 note=64 velocity=31 time=0
EXTRACT: note_off channel=11 note=76 velocity=95 time=0
EXTRACT: note_off channel=11 note=59 velocity=31 time=0
EXTRACT: note_off channel=11 note=71 velocity=95 time=0
EXTRACT: note_on channel=11 note=64 velocity=31 time=0
EXTRACT: note_on channel=11 note=76 velocity=95 time=0
EXTRACT: note_on channel=11 note=59 velocity=31 time=0
EXTRACT: note_on channel=11 note=71 velocity=95 time=0
EXTRACT: note_off channel=13 note=74 velocity=95 time=0
EXTRACT: note_on channel=13 note=76 velocity=95 time=0
EXTRACT: note_off channel=4 note=62 velocity=95 time=0
EXTRACT: note_on channel=4 note=64 velocity=95 time=0
EXTRACT: note_off channel=15 note=74 velocity=95 time=0
EXTRACT: note_off channel=15 note=62 velocity=95 time=0
EXTRACT: note_on channel=15 note=76 velocity=95 time=0
EXTRACT: note_on channel=15 note=64 velocity=95 time=0
EXTRACT: note_off channel=9 note=42 velocity=111 time=0
EXTRACT: note_off channel=9 note=82 velocity=79 time=0
EXTRACT: note_off channel=9 note=36 velocity=111 time=0
EXTRACT: note_off channel=0 note=47 velocity=95 time=0.16853925
EXTRACT: note_off channel=0 note=40 velocity=95 time=0
EXTRACT: note_off channel=2 note=47 velocity=95 time=0
EXTRACT: note_off channel=2 note=40 velocity=95 time=0
EXTRACT: note_off channel=6 note=64 velocity=95 time=0
EXTRACT: note_off channel=6 note=59 velocity=95 time=0
EXTRACT: note_on channel=6 note=64 velocity=95 time=0
EXTRACT: note_on channel=6 note=59 velocity=95 time=0
EXTRACT: note_off channel=11 note=64 velocity=31 time=0
EXTRACT: note_off channel=11 note=76 velocity=95 time=0
EXTRACT: note_off channel=11 note=59 velocity=31 time=0
EXTRACT: note_off channel=11 note=71 velocity=95 time=0
EXTRACT: note_on channel=11 note=64 velocity=31 time=0
EXTRACT: note_on channel=11 note=76 velocity=95 time=0
EXTRACT: note_on channel=11 note=59 velocity=31 time=0
EXTRACT: note_on channel=11 note=71 velocity=95 time=0
EXTRACT: note_off channel=8 note=28 velocity=111 time=0
EXTRACT: note_on channel=9 note=56 velocity=95 time=0
EXTRACT: note_on channel=9 note=82 velocity=95 time=0
EXTRACT: note_on channel=9 note=42 velocity=111 time=0
EXTRACT: note_on channel=9 note=38 velocity=127 time=0
EXTRACT: note_on channel=0 note=43 velocity=95 time=0.16853925
EXTRACT: note_off channel=6 note=64 velocity=95 time=0
EXTRACT: note_off channel=6 note=59 velocity=95 time=0
EXTRACT: note_on channel=6 note=64 velocity=95 time=0
EXTRACT: note_on channel=6 note=59 velocity=95 time=0
EXTRACT: note_off channel=11 note=64 velocity=31 time=0
EXTRACT: note_off channel=11 note=76 velocity=95 time=0
EXTRACT: note_off channel=11 note=59 velocity=31 time=0
EXTRACT: note_off channel=11 note=71 velocity=95 time=0
EXTRACT: note_on channel=11 note=64 velocity=31 time=0
EXTRACT: note_on channel=11 note=76 velocity=95 time=0
EXTRACT: note_on channel=11 note=59 velocity=31 time=0
EXTRACT: note_on channel=11 note=71 velocity=95 time=0
EXTRACT: note_on channel=8 note=31 velocity=127 time=0
EXTRACT: note_off channel=9 note=56 velocity=95 time=0
EXTRACT: note_off channel=9 note=82 velocity=95 time=0
EXTRACT: note_off channel=9 note=42 velocity=111 time=0
EXTRACT: note_off channel=9 note=38 velocity=127 time=0
EXTRACT: note_off channel=6 note=64 velocity=95 time=0.16853925
EXTRACT: note_off channel=6 note=59 velocity=95 time=0
EXTRACT: note_on channel=6 note=64 velocity=95 time=0
EXTRACT: note_on channel=6 note=59 velocity=95 time=0
EXTRACT: note_off channel=11 note=64 velocity=31 time=0
EXTRACT: note_off channel=11 note=76 velocity=95 time=0
EXTRACT: note_off channel=11 note=59 velocity=31 time=0
EXTRACT: note_off channel=11 note=71 velocity=95 time=0
EXTRACT: note_on channel=11 note=64 velocity=31 time=0
EXTRACT: note_on channel=11 note=76 velocity=95 time=0
EXTRACT: note_on channel=11 note=59 velocity=31 time=0
EXTRACT: note_on channel=11 note=71 velocity=95 time=0
EXTRACT: note_off channel=13 note=76 velocity=95 time=0
EXTRACT: note_off channel=4 note=64 velocity=95 time=0
EXTRACT: note_off channel=15 note=76 velocity=95 time=0
EXTRACT: note_off channel=15 note=64 velocity=95 time=0
EXTRACT: note_on channel=9 note=42 velocity=111 time=0
EXTRACT: note_off channel=6 note=64 velocity=95 time=0.16853925
EXTRACT: note_off channel=6 note=59 velocity=95 time=0
EXTRACT: note_on channel=6 note=64 velocity=95 time=0
EXTRACT: note_on channel=6 note=59 velocity=95 time=0
EXTRACT: note_off channel=11 note=64 velocity=31 time=0
EXTRACT: note_off channel=11 note=76 velocity=95 time=0
EXTRACT: note_off channel=11 note=59 velocity=31 time=0
EXTRACT: note_off channel=11 note=71 velocity=95 time=0
EXTRACT: note_on channel=11 note=64 velocity=31 time=0
EXTRACT: note_on channel=11 note=76 velocity=95 time=0
EXTRACT: note_on channel=11 note=59 velocity=31 time=0
EXTRACT: note_on channel=11 note=71 velocity=95 time=0
EXTRACT: note_on channel=13 note=71 velocity=95 time=0
EXTRACT: note_on channel=4 note=59 velocity=95 time=0
EXTRACT: note_on channel=15 note=71 velocity=95 time=0
EXTRACT: note_on channel=15 note=59 velocity=95 time=0
EXTRACT: note_off channel=9 note=42 velocity=111 time=0
EXTRACT: note_off channel=0 note=43 velocity=95 time=0.16853925
EXTRACT: note_on channel=0 note=52 velocity=95 time=0
EXTRACT: note_on channel=0 note=45 velocity=95 time=0
EXTRACT: note_on channel=2 note=52 velocity=95 time=0
EXTRACT: note_on channel=2 note=45 velocity=95 time=0
EXTRACT: note_off channel=6 note=64 velocity=95 time=0
EXTRACT: note_off channel=6 note=59 velocity=95 time=0
EXTRACT: note_on channel=6 note=64 velocity=95 time=0
EXTRACT: note_on channel=6 note=59 velocity=95 time=0
EXTRACT: note_off channel=11 note=64 velocity=31 time=0
EXTRACT: note_off channel=11 note=76 velocity=95 time=0
EXTRACT: note_off channel=11 note=59 velocity=31 time=0
EXTRACT: note_off channel=11 note=71 velocity=95 time=0
EXTRACT: note_on channel=11 note=64 velocity=31 time=0
EXTRACT: note_on channel=11 note=76 velocity=95 time=0
EXTRACT: note_on channel=11 note=59 velocity=31 time=0
EXTRACT: note_on channel=11 note=71 velocity=95 time=0
EXTRACT: note_off channel=8 note=31 velocity=127 time=0
EXTRACT: note_on channel=8 note=33 velocity=111 time=0
EXTRACT: note_off channel=13 note=71 velocity=95 time=0
EXTRACT: note_on channel=13 note=76 velocity=95 time=0
EXTRACT: note_off channel=4 note=59 velocity=95 time=0
EXTRACT: note_on channel=4 note=64 velocity=95 time=0
EXTRACT: note_off channel=15 note=71 velocity=95 time=0
EXTRACT: note_off channel=15 note=59 velocity=95 time=0
EXTRACT: note_on channel=15 note=76 velocity=95 time=0
EXTRACT: note_on channel=15 note=64 velocity=95 time=0
EXTRACT: note_on channel=9 note=56 velocity=95 time=0
EXTRACT: note_on channel=9 note=36 velocity=111 time=0
EXTRACT: note_on channel=9 note=42 velocity=111 time=0
EXTRACT: note_on channel=9 note=82 velocity=111 time=0
EXTRACT: note_off channel=6 note=64 velocity=95 time=0.16853925
EXTRACT: note_off channel=6 note=59 velocity=95 time=0
EXTRACT: note_on channel=6 note=64 velocity=95 time=0
EXTRACT: note_on channel=6 note=59 velocity=95 time=0
EXTRACT: note_off channel=11 note=64 velocity=31 time=0
EXTRACT: note_off channel=11 note=76 velocity=95 time=0
EXTRACT: note_off channel=11 note=59 velocity=31 time=0
EXTRACT: note_off channel=11 note=71 velocity=95 time=0
EXTRACT: note_on channel=11 note=64 velocity=31 time=0
EXTRACT: note_on channel=11 note=76 velocity=95 time=0
EXTRACT: note_on channel=11 note=59 velocity=31 time=0
EXTRACT: note_on channel=11 note=71 velocity=95 time=0
EXTRACT: note_off channel=13 note=76 velocity=95 time=0
EXTRACT: note_on channel=13 note=76 velocity=95 time=0
EXTRACT: note_off channel=4 note=64 velocity=95 time=0
EXTRACT: note_on channel=4 note=64 velocity=95 time=0
EXTRACT: note_off channel=15 note=76 velocity=95 time=0
EXTRACT: note_off channel=15 note=64 velocity=95 time=0
EXTRACT: note_on channel=15 note=76 velocity=95 time=0
EXTRACT: note_on channel=15 note=64 velocity=95 time=0
EXTRACT: note_off channel=9 note=56 velocity=95 time=0
EXTRACT: note_off channel=9 note=36 velocity=111 time=0
EXTRACT: note_off channel=9 note=42 velocity=111 time=0
EXTRACT: note_off channel=9 note=82 velocity=111 time=0
EXTRACT: note_off channel=0 note=52 velocity=95 time=0.16853925
EXTRACT: note_off channel=0 note=45 velocity=95 time=0
EXTRACT: note_on channel=0 note=52 velocity=95 time=0
EXTRACT: note_on channel=0 note=45 velocity=95 time=0
EXTRACT: note_off channel=2 note=52 velocity=95 time=0
EXTRACT: note_off channel=2 note=45 velocity=95 time=0
EXTRACT: note_on channel=2 note=52 velocity=95 time=0
EXTRACT: note_on channel=2 note=45 velocity=95 time=0
EXTRACT: note_off channel=6 note=64 velocity=95 time=0
EXTRACT: note_off channel=6 note=59 velocity=95 time=0
EXTRACT: note_on channel=6 note=64 velocity=95 time=0
EXTRACT: note_on channel=6 note=59 velocity=95 time=0
EXTRACT: note_off channel=11 note=64 velocity=31 time=0
EXTRACT: note_off channel=11 note=76 velocity=95 time=0
EXTRACT: note_off channel=11 note=59 velocity=31 time=0
EXTRACT: note_off channel=11 note=71 velocity=95 time=0
EXTRACT: note_on channel=11 note=64 velocity=31 time=0
EXTRACT: note_on channel=11 note=76 velocity=95 time=0
EXTRACT: note_on channel=11 note=59 velocity=31 time=0
EXTRACT: note_on channel=11 note=71 velocity=95 time=0
EXTRACT: note_off channel=8 note=33 velocity=111 time=0
EXTRACT: note_on channel=8 note=33 velocity=111 time=0
EXTRACT: note_off channel=13 note=76 velocity=95 time=0
EXTRACT: note_on channel=13 note=76 velocity=95 time=0
EXTRACT: note_off channel=4 note=64 velocity=95 time=0
EXTRACT: note_on channel=4 note=64 velocity=95 time=0
EXTRACT: note_off channel=15 note=76 velocity=95 time=0
EXTRACT: note_off channel=15 note=64 velocity=95 time=0
EXTRACT: note_on channel=15 note=76 velocity=95 time=0
EXTRACT: note_on channel=15 note=64 velocity=95 time=0
EXTRACT: note_on channel=9 note=36 velocity=111 time=0
EXTRACT: note_on channel=9 note=82 velocity=95 time=0
EXTRACT: note_on channel=9 note=42 velocity=111 time=0
EXTRACT: note_off channel=6 note=64 velocity=95 time=0.16853925
EXTRACT: note_off channel=6 note=59 velocity=95 time=0
EXTRACT: note_on channel=6 note=64 velocity=95 time=0
EXTRACT: note_on channel=6 note=59 velocity=95 time=0
EXTRACT: note_off channel=11 note=64 velocity=31 time=0
EXTRACT: note_off channel=11 note=76 velocity=95 time=0
EXTRACT: note_off channel=11 note=59 velocity=31 time=0
EXTRACT: note_off channel=11 note=71 velocity=95 time=0
EXTRACT: note_on channel=11 note=64 velocity=31 time=0
EXTRACT: note_on channel=11 note=76 velocity=95 time=0
EXTRACT: note_on channel=11 note=59 velocity=31 time=0
EXTRACT: note_on channel=11 note=71 velocity=95 time=0
EXTRACT: note_off channel=13 note=76 velocity=95 time=0
EXTRACT: note_on channel=13 note=76 velocity=95 time=0
EXTRACT: note_off channel=4 note=64 velocity=95 time=0
EXTRACT: note_on channel=4 note=64 velocity=95 time=0
EXTRACT: note_off channel=15 note=76 velocity=95 time=0
EXTRACT: note_off channel=15 note=64 velocity=95 time=0
EXTRACT: note_on channel=15 note=76 velocity=95 time=0
EXTRACT: note_on channel=15 note=64 velocity=95 time=0
EXTRACT: note_off channel=9 note=36 velocity=111 time=0
EXTRACT: note_off channel=9 note=82 velocity=95 time=0
EXTRACT: note_off channel=9 note=42 velocity=111 time=0
EXTRACT: note_off channel=0 note=52 velocity=95 time=0.16853925
EXTRACT: note_off channel=0 note=45 velocity=95 time=0
EXTRACT: note_off channel=2 note=52 velocity=95 time=0
EXTRACT: note_off channel=2 note=45 velocity=95 time=0
EXTRACT: note_off channel=6 note=64 velocity=95 time=0
EXTRACT: note_off channel=6 note=59 velocity=95 time=0
EXTRACT: note_on channel=6 note=64 velocity=95 time=0
EXTRACT: note_on channel=6 note=59 velocity=95 time=0
EXTRACT: note_off channel=11 note=64 velocity=31 time=0
EXTRACT: note_off channel=11 note=76 velocity=95 time=0
EXTRACT: note_off channel=11 note=59 velocity=31 time=0
EXTRACT: note_off channel=11 note=71 velocity=95 time=0
EXTRACT: note_on channel=11 note=64 velocity=31 time=0
EXTRACT: note_on channel=11 note=76 velocity=95 time=0
EXTRACT: note_on channel=11 note=59 velocity=31 time=0
EXTRACT: note_on channel=11 note=71 velocity=95 time=0
EXTRACT: note_off channel=8 note=33 velocity=111 time=0
EXTRACT: note_off channel=13 note=76 velocity=95 time=0
EXTRACT: note_on channel=13 note=76 velocity=95 time=0
EXTRACT: note_off channel=4 note=64 velocity=95 time=0
EXTRACT: note_on channel=4 note=64 velocity=95 time=0
EXTRACT: note_off channel=15 note=76 velocity=95 time=0
EXTRACT: note_off channel=15 note=64 velocity=95 time=0
EXTRACT: note_on channel=15 note=76 velocity=95 time=0
EXTRACT: note_on channel=15 note=64 velocity=95 time=0
EXTRACT: note_on channel=9 note=56 velocity=95 time=0
EXTRACT: note_on channel=9 note=38 velocity=127 time=0
EXTRACT: note_on channel=9 note=82 velocity=95 time=0
EXTRACT: note_on channel=9 note=42 velocity=111 time=0
EXTRACT: note_off channel=6 note=64 velocity=95 time=0.16853925
EXTRACT: note_off channel=6 note=59 velocity=95 time=0
EXTRACT: note_on channel=6 note=64 velocity=95 time=0
EXTRACT: note_on channel=6 note=59 velocity=95 time=0
EXTRACT: note_off channel=11 note=64 velocity=31 time=0
EXTRACT: note_off channel=11 note=76 velocity=95 time=0
EXTRACT: note_off channel=11 note=59 velocity=31 time=0
EXTRACT: note_off channel=11 note=71 velocity=95 time=0
EXTRACT: note_on channel=11 note=64 velocity=31 time=0
EXTRACT: note_on channel=11 note=76 velocity=95 time=0
EXTRACT: note_on channel=11 note=59 velocity=31 time=0
EXTRACT: note_on channel=11 note=71 velocity=95 time=0
EXTRACT: note_off channel=9 note=56 velocity=95 time=0
EXTRACT: note_off channel=9 note=38 velocity=127 time=0
EXTRACT: note_off channel=9 note=82 velocity=95 time=0
EXTRACT: note_off channel=9 note=42 velocity=111 time=0
EXTRACT: note_off channel=6 note=64 velocity=95 time=0.16853925
EXTRACT: note_off channel=6 note=59 velocity=95 time=0
EXTRACT: note_on channel=6 note=64 velocity=95 time=0
EXTRACT: note_on channel=6 note=59 velocity=95 time=0
EXTRACT: note_off channel=11 note=64 velocity=31 time=0
EXTRACT: note_off channel=11 note=76 velocity=95 time=0
EXTRACT: note_off channel=11 note=59 velocity=31 time=0
EXTRACT: note_off channel=11 note=71 velocity=95 time=0
EXTRACT: note_on channel=11 note=64 velocity=31 time=0
EXTRACT: note_on channel=11 note=76 velocity=95 time=0
EXTRACT: note_on channel=11 note=59 velocity=31 time=0
EXTRACT: note_on channel=11 note=71 velocity=95 time=0
EXTRACT: note_off channel=13 note=76 velocity=95 time=0
EXTRACT: note_on channel=13 note=76 velocity=95 time=0
EXTRACT: note_off channel=4 note=64 velocity=95 time=0
EXTRACT: note_on channel=4 note=64 velocity=95 time=0
EXTRACT: note_off channel=15 note=76 velocity=95 time=0
EXTRACT: note_off channel=15 note=64 velocity=95 time=0
EXTRACT: note_on channel=15 note=76 velocity=95 time=0
EXTRACT: note_on channel=15 note=64 velocity=95 time=0
EXTRACT: note_on channel=9 note=82 velocity=95 time=0
EXTRACT: note_on channel=9 note=42 velocity=127 time=0
EXTRACT: note_off channel=6 note=64 velocity=95 time=0.16853925
EXTRACT: note_off channel=6 note=59 velocity=95 time=0
EXTRACT: note_on channel=6 note=64 velocity=95 time=0
EXTRACT: note_on channel=6 note=59 velocity=95 time=0
EXTRACT: note_off channel=11 note=64 velocity=31 time=0
EXTRACT: note_off channel=11 note=76 velocity=95 time=0
EXTRACT: note_off channel=11 note=59 velocity=31 time=0
EXTRACT: note_off channel=11 note=71 velocity=95 time=0
EXTRACT: note_on channel=11 note=64 velocity=31 time=0
EXTRACT: note_on channel=11 note=76 velocity=95 time=0
EXTRACT: note_on channel=11 note=59 velocity=31 time=0
EXTRACT: note_on channel=11 note=71 velocity=95 time=0
EXTRACT: note_on channel=8 note=33 velocity=95 time=0
EXTRACT: note_off channel=13 note=76 velocity=95 time=0
EXTRACT: note_on channel=13 note=78 velocity=95 time=0
EXTRACT: note_off channel=4 note=64 velocity=95 time=0
EXTRACT: note_on channel=4 note=66 velocity=95 time=0
EXTRACT: note_off channel=15 note=76 velocity=95 time=0
EXTRACT: note_off channel=15 note=64 velocity=95 time=0
EXTRACT: note_on channel=15 note=78 velocity=95 time=0
EXTRACT: note_on channel=15 note=66 velocity=95 time=0
EXTRACT: note_off channel=9 note=82 velocity=95 time=0
EXTRACT: note_off channel=9 note=42 velocity=127 time=0
EXTRACT: note_on channel=9 note=82 velocity=79 time=0
EXTRACT: note_on channel=0 note=54 velocity=95 time=0.16853925
EXTRACT: note_on channel=0 note=47 velocity=95 time=0
EXTRACT: note_on channel=2 note=54 velocity=95 time=0
EXTRACT: note_on channel=2 note=47 velocity=95 time=0
EXTRACT: note_off channel=6 note=64 velocity=95 time=0
EXTRACT: note_off channel=6 note=59 velocity=95 time=0
EXTRACT: note_on channel=6 note=64 velocity=95 time=0
EXTRACT: note_on channel=6 note=59 velocity=95 time=0
EXTRACT: note_off channel=11 note=64 velocity=31 time=0
EXTRACT: note_off channel=11 note=76 velocity=95 time=0
EXTRACT: note_off channel=11 note=59 velocity=31 time=0
EXTRACT: note_off channel=11 note=71 velocity=95 time=0
EXTRACT: note_on channel=11 note=64 velocity=31 time=0
EXTRACT: note_on channel=11 note=76 velocity=95 time=0
EXTRACT: note_on channel=11 note=59 velocity=31 time=0
EXTRACT: note_on channel=11 note=71 velocity=95 time=0
EXTRACT: note_off channel=8 note=33 velocity=95 time=0
EXTRACT: note_on channel=8 note=35 velocity=111 time=0
EXTRACT: note_off channel=13 note=78 velocity=95 time=0
EXTRACT: note_on channel=13 note=79 velocity=95 time=0
EXTRACT: note_off channel=4 note=66 velocity=95 time=0
EXTRACT: note_on channel=4 note=67 velocity=95 time=0
EXTRACT: note_off channel=15 note=78 velocity=95 time=0
EXTRACT: note_off channel=15 note=66 velocity=95 time=0
EXTRACT: note_on channel=15 note=79 velocity=95 time=0
EXTRACT: note_on channel=15 note=67 velocity=95 time=0
EXTRACT: note_off channel=9 note=82 velocity=79 time=0
EXTRACT: note_on channel=9 note=56 velocity=95 time=0
EXTRACT: note_on channel=9 note=36 velocity=111 time=0
EXTRACT: note_on channel=9 note=42 velocity=127 time=0
EXTRACT: note_off channel=6 note=64 velocity=95 time=0.16853925
EXTRACT: note_off channel=6 note=59 velocity=95 time=0
EXTRACT: note_on channel=6 note=64 velocity=95 time=0
EXTRACT: note_on channel=6 note=59 velocity=95 time=0
EXTRACT: note_off channel=11 note=64 velocity=31 time=0
EXTRACT: note_off channel=11 note=76 velocity=95 time=0
EXTRACT: note_off channel=11 note=59 velocity=31 time=0
EXTRACT: note_off channel=11 note=71 velocity=95 time=0
EXTRACT: note_on channel=11 note=64 velocity=31 time=0
EXTRACT: note_on channel=11 note=76 velocity=95 time=0
EXTRACT: note_on channel=11 note=59 velocity=31 time=0
EXTRACT: note_on channel=11 note=71 velocity=95 time=0
EXTRACT: note_off channel=13 note=79 velocity=95 time=0
EXTRACT: note_on channel=13 note=78 velocity=95 time=0
EXTRACT: note_off channel=4 note=67 velocity=95 time=0
EXTRACT: note_on channel=4 note=66 velocity=95 time=0
EXTRACT: note_off channel=15 note=79 velocity=95 time=0
EXTRACT: note_off channel=15 note=67 velocity=95 time=0
EXTRACT: note_on channel=15 note=78 velocity=95 time=0
EXTRACT: note_on channel=15 note=66 velocity=95 time=0
EXTRACT: note_off channel=9 note=56 velocity=95 time=0
EXTRACT: note_off channel=9 note=36 velocity=111 time=0
EXTRACT: note_off channel=9 note=42 velocity=127 time=0
EXTRACT: note_on channel=9 note=82 velocity=95 time=0
EXTRACT: note_off channel=0 note=54 velocity=95 time=0.16853925
EXTRACT: note_off channel=0 note=47 velocity=95 time=0
EXTRACT: note_on channel=0 note=54 velocity=95 time=0
EXTRACT: note_on channel=0 note=47 velocity=95 time=0
EXTRACT: note_off channel=2 note=54 velocity=95 time=0
EXTRACT: note_off channel=2 note=47 velocity=95 time=0
EXTRACT: note_on channel=2 note=54 velocity=95 time=0
EXTRACT: note_on channel=2 note=47 velocity=95 time=0
EXTRACT: note_off channel=6 note=64 velocity=95 time=0
EXTRACT: note_off channel=6 note=59 velocity=95 time=0
EXTRACT: note_on channel=6 note=64 velocity=95 time=0
EXTRACT: note_on channel=6 note=59 velocity=95 time=0
EXTRACT: note_off channel=11 note=64 velocity=31 time=0
EXTRACT: note_off channel=11 note=76 velocity=95 time=0
EXTRACT: note_off channel=11 note=59 velocity=31 time=0
EXTRACT: note_off channel=11 note=71 velocity=95 time=0
EXTRACT: note_on channel=11 note=64 velocity=31 time=0
EXTRACT: note_on channel=11 note=76 velocity=95 time=0
EXTRACT: note_on channel=11 note=59 velocity=31 time=0
EXTRACT: note_on channel=11 note=71 velocity=95 time=0
EXTRACT: note_off channel=8 note=35 velocity=111 time=0
EXTRACT: note_on channel=8 note=35 velocity=111 time=0
EXTRACT: note_off channel=9 note=82 velocity=95 time=0
EXTRACT: note_on channel=9 note=36 velocity=111 time=0
EXTRACT: note_on channel=9 note=82 velocity=79 time=0
EXTRACT: note_on channel=9 note=42 velocity=111 time=0
EXTRACT: note_off channel=6 note=64 velocity=95 time=0.16853925
EXTRACT: note_off channel=6 note=59 velocity=95 time=0
EXTRACT: note_on channel=6 note=64 velocity=95 time=0
EXTRACT: note_on channel=6 note=59 velocity=95 time=0
EXTRACT: note_off channel=11 note=64 velocity=31 time=0
EXTRACT: note_off channel=11 note=76 velocity=95 time=0
EXTRACT: note_off channel=11 note=59 velocity=31 time=0
EXTRACT: note_off channel=11 note=71 velocity=95 time=0
EXTRACT: note_on channel=11 note=64 velocity=31 time=0
EXTRACT: note_on channel=11 note=76 velocity=95 time=0
EXTRACT: note_on channel=11 note=59 velocity=31 time=0
EXTRACT: note_on channel=11 note=71 velocity=95 time=0
EXTRACT: note_off channel=13 note=78 velocity=95 time=0
EXTRACT: note_on channel=13 note=79 velocity=95 time=0
EXTRACT: note_off channel=4 note=66 velocity=95 time=0
EXTRACT: note_on channel=4 note=67 velocity=95 time=0
EXTRACT: note_off channel=15 note=78 velocity=95 time=0
EXTRACT: note_off channel=15 note=66 velocity=95 time=0
EXTRACT: note_on channel=15 note=79 velocity=95 time=0
EXTRACT: note_on channel=15 note=67 velocity=95 time=0
EXTRACT: note_off channel=9 note=36 velocity=111 time=0
EXTRACT: note_off channel=9 note=82 velocity=79 time=0
EXTRACT: note_off channel=9 note=42 velocity=111 time=0
EXTRACT: note_off channel=0 note=54 velocity=95 time=0.16853925
EXTRACT: note_off channel=0 note=47 velocity=95 time=0
EXTRACT: note_off channel=2 note=54 velocity=95 time=0
EXTRACT: note_off channel=2 note=47 velocity=95 time=0
EXTRACT: note_off channel=6 note=64 velocity=95 time=0
EXTRACT: note_off channel=6 note=59 velocity=95 time=0
EXTRACT: note_on channel=6 note=64 velocity=95 time=0
EXTRACT: note_on channel=6 note=59 velocity=95 time=0
EXTRACT: note_off channel=11 note=64 velocity=31 time=0
EXTRACT: note_off channel=11 note=76 velocity=95 time=0
EXTRACT: note_off channel=11 note=59 velocity=31 time=0
EXTRACT: note_off channel=11 note=71 velocity=95 time=0
EXTRACT: note_on channel=11 note=64 velocity=31 time=0
EXTRACT: note_on channel=11 note=76 velocity=95 time=0
EXTRACT: note_on channel=11 note=59 velocity=31 time=0
EXTRACT: note_on channel=11 note=71 velocity=95 time=0
EXTRACT: note_off channel=8 note=35 velocity=111 time=0
EXTRACT: note_on channel=9 note=42 velocity=127 time=0
EXTRACT: note_on channel=9 note=38 velocity=111 time=0
EXTRACT: note_on channel=9 note=56 velocity=95 time=0
EXTRACT: note_on channel=9 note=82 velocity=95 time=0
EXTRACT: note_off channel=6 note=64 velocity=95 time=0.16853925
EXTRACT: note_off channel=6 note=59 velocity=95 time=0
EXTRACT: note_on channel=6 note=64 velocity=95 time=0
EXTRACT: note_on channel=6 note=59 velocity=95 time=0
EXTRACT: note_off channel=11 note=64 velocity=31 time=0
EXTRACT: note_off channel=11 note=76 velocity=95 time=0
EXTRACT: note_off channel=11 note=59 velocity=31 time=0
EXTRACT: note_off channel=11 note=71 velocity=95 time=0
EXTRACT: note_on channel=11 note=64 velocity=31 time=0
EXTRACT: note_on channel=11 note=76 velocity=95 time=0
EXTRACT: note_on channel=11 note=59 velocity=31 time=0
EXTRACT: note_on channel=11 note=71 velocity=95 time=0
EXTRACT: note_off channel=13 note=79 velocity=95 time=0
EXTRACT: note_on channel=13 note=78 velocity=95 time=0
EXTRACT: note_off channel=4 note=67 velocity=95 time=0
EXTRACT: note_on channel=4 note=66 velocity=95 time=0
EXTRACT: note_off channel=15 note=79 velocity=95 time=0
EXTRACT: note_off channel=15 note=67 velocity=95 time=0
EXTRACT: note_on channel=15 note=78 velocity=95 time=0
EXTRACT: note_on channel=15 note=66 velocity=95 time=0
EXTRACT: note_off channel=9 note=42 velocity=127 time=0
EXTRACT: note_off channel=9 note=38 velocity=111 time=0
EXTRACT: note_off channel=9 note=56 velocity=95 time=0
EXTRACT: note_off channel=9 note=82 velocity=95 time=0
EXTRACT: note_off channel=6 note=64 velocity=95 time=0.16853925
EXTRACT: note_off channel=6 note=59 velocity=95 time=0
EXTRACT: note_on channel=6 note=64 velocity=95 time=0
EXTRACT: note_on channel=6 note=59 velocity=95 time=0
EXTRACT: note_off channel=11 note=64 velocity=31 time=0
EXTRACT: note_off channel=11 note=76 velocity=95 time=0
EXTRACT: note_off channel=11 note=59 velocity=31 time=0
EXTRACT: note_off channel=11 note=71 velocity=95 time=0
EXTRACT: note_on channel=11 note=64 velocity=31 time=0
EXTRACT: note_on channel=11 note=76 velocity=95 time=0
EXTRACT: note_on channel=11 note=59 velocity=31 time=0
EXTRACT: note_on channel=11 note=71 velocity=95 time=0
EXTRACT: note_off channel=13 note=78 velocity=95 time=0
EXTRACT: note_off channel=4 note=66 velocity=95 time=0
EXTRACT: note_off channel=15 note=78 velocity=95 time=0
EXTRACT: note_off channel=15 note=66 velocity=95 time=0
EXTRACT: note_on channel=9 note=41 velocity=127 time=0
EXTRACT: note_on channel=9 note=42 velocity=127 time=0
EXTRACT: note_off channel=6 note=64 velocity=95 time=0.16853925
EXTRACT: note_off channel=6 note=59 velocity=95 time=0
EXTRACT: note_on channel=6 note=64 velocity=95 time=0
EXTRACT: note_on channel=6 note=59 velocity=95 time=0
EXTRACT: note_off channel=11 note=64 velocity=31 time=0
EXTRACT: note_off channel=11 note=76 velocity=95 time=0
EXTRACT: note_off channel=11 note=59 velocity=31 time=0
EXTRACT: note_off channel=11 note=71 velocity=95 time=0
EXTRACT: note_on channel=11 note=64 velocity=31 time=0
EXTRACT: note_on channel=11 note=76 velocity=95 time=0
EXTRACT: note_on channel=11 note=59 velocity=31 time=0
EXTRACT: note_on channel=11 note=71 velocity=95 time=0
EXTRACT: note_off channel=9 note=41 velocity=127 time=0
EXTRACT: note_off channel=9 note=42 velocity=127 time=0
EXTRACT: note_on channel=0 note=47 velocity=95 time=0.16853925
EXTRACT: note_on channel=0 note=40 velocity=95 time=0
EXTRACT: note_on channel=2 note=47 velocity=95 time=0
EXTRACT: note_on channel=2 note=40 velocity=95 time=0
EXTRACT: note_off channel=6 note=64 velocity=95 time=0
EXTRACT: note_off channel=6 note=59 velocity=95 time=0
EXTRACT: note_on channel=6 note=64 velocity=95 time=0
EXTRACT: note_on channel=6 note=59 velocity=95 time=0
EXTRACT: note_off channel=11 note=64 velocity=31 time=0
EXTRACT: note_off channel=11 note=76 velocity=95 time=0
EXTRACT: note_off channel=11 note=59 velocity=31 time=0
EXTRACT: note_off channel=11 note=71 velocity=95 time=0
EXTRACT: note_on channel=11 note=64 velocity=31 time=0
EXTRACT: note_on channel=11 note=76 velocity=95 time=0
EXTRACT: note_on channel=11 note=59 velocity=31 time=0
EXTRACT: note_on channel=11 note=71 velocity=95 time=0
EXTRACT: note_on channel=8 note=28 velocity=111 time=0
EXTRACT: note_on channel=13 note=76 velocity=95 time=0
EXTRACT: note_on channel=4 note=64 velocity=95 time=0
EXTRACT: note_on channel=15 note=76 velocity=95 time=0
EXTRACT: note_on channel=15 note=64 velocity=95 time=0
EXTRACT: note_on channel=9 note=82 velocity=111 time=0
EXTRACT: note_on channel=9 note=42 velocity=127 time=0
EXTRACT: note_on channel=9 note=36 velocity=111 time=0
EXTRACT: note_on channel=9 note=56 velocity=95 time=0
EXTRACT: note_off channel=6 note=64 velocity=95 time=0.16853925
EXTRACT: note_off channel=6 note=59 velocity=95 time=0
EXTRACT: note_on channel=6 note=64 velocity=95 time=0
EXTRACT: note_on channel=6 note=59 velocity=95 time=0
EXTRACT: note_off channel=11 note=64 velocity=31 time=0
EXTRACT: note_off channel=11 note=76 velocity=95 time=0
EXTRACT: note_off channel=11 note=59 velocity=31 time=0
EXTRACT: note_off channel=11 note=71 velocity=95 time=0
EXTRACT: note_on channel=11 note=64 velocity=31 time=0
EXTRACT: note_on channel=11 note=76 velocity=95 time=0
EXTRACT: note_on channel=11 note=59 velocity=31 time=0
EXTRACT: note_on channel=11 note=71 velocity=95 time=0
EXTRACT: note_off channel=9 note=82 velocity=111 time=0
EXTRACT: note_off channel=9 note=42 velocity=127 time=0
EXTRACT: note_off channel=9 note=36 velocity=111 time=0
EXTRACT: note_off channel=9 note=56 velocity=95 time=0
EXTRACT: note_off channel=0 note=47 velocity=95 time=0.16853925
EXTRACT: note_off channel=0 note=40 velocity=95 time=0
EXTRACT: note_on channel=0 note=47 velocity=95 time=0
EXTRACT: note_on channel=0 note=40 velocity=95 time=0
EXTRACT: note_off channel=2 note=47 velocity=95 time=0
EXTRACT: note_off channel=2 note=40 velocity=95 time=0
EXTRACT: note_on channel=2 note=47 velocity=95 time=0
EXTRACT: note_on channel=2 note=40 velocity=95 time=0
EXTRACT: note_off channel=6 note=64 velocity=95 time=0
EXTRACT: note_off channel=6 note=59 velocity=95 time=0
EXTRACT: note_on channel=6 note=64 velocity=95 time=0
EXTRACT: note_on channel=6 note=59 velocity=95 time=0
EXTRACT: note_off channel=11 note=64 velocity=31 time=0
EXTRACT: note_off channel=11 note=76 velocity=95 time=0
EXTRACT: note_off channel=11 note=59 velocity=31 time=0
EXTRACT: note_off channel=11 note=71 velocity=95 time=0
EXTRACT: note_on channel=11 note=64 velocity=31 time=0
EXTRACT: note_on channel=11 note=76 velocity=95 time=0
EXTRACT: note_on channel=11 note=59 velocity=31 time=0
EXTRACT: note_on channel=11 note=71 velocity=95 time=0
EXTRACT: note_off channel=8 note=28 velocity=111 time=0
EXTRACT: note_on channel=8 note=28 velocity=111 time=0
EXTRACT: note_on channel=9 note=36 velocity=111 time=0
EXTRACT: note_on channel=9 note=42 velocity=111 time=0
EXTRACT: note_off channel=6 note=64 velocity=95 time=0.16853925
EXTRACT: note_off channel=6 note=59 velocity=95 time=0
EXTRACT: note_on channel=6 note=64 velocity=95 time=0
EXTRACT: note_on channel=6 note=59 velocity=95 time=0
EXTRACT: note_off channel=11 note=64 velocity=31 time=0
EXTRACT: note_off channel=11 note=76 velocity=95 time=0
EXTRACT: note_off channel=11 note=59 velocity=31 time=0
EXTRACT: note_off channel=11 note=71 velocity=95 time=0
EXTRACT: note_on channel=11 note=64 velocity=31 time=0
EXTRACT: note_on channel=11 note=76 velocity=95 time=0
EXTRACT: note_on channel=11 note=59 velocity=31 time=0
EXTRACT: note_on channel=11 note=71 velocity=95 time=0
EXTRACT: note_off channel=9 note=36 velocity=111 time=0
EXTRACT: note_off channel=9 note=42 velocity=111 time=0
EXTRACT: note_off channel=0 note=47 velocity=95 time=0.16853925
EXTRACT: note_off channel=0 note=40 velocity=95 time=0
EXTRACT: pitchwheel channel=1 pitch=0 time=0
EXTRACT: note_on channel=1 note=55 velocity=95 time=0
EXTRACT: note_off channel=2 note=47 velocity=95 time=0
EXTRACT: note_off channel=2 note=40 velocity=95 time=0
EXTRACT: note_off channel=6 note=64 velocity=95 time=0
EXTRACT: note_off channel=6 note=59 velocity=95 time=0
EXTRACT: note_on channel=6 note=64 velocity=95 time=0
EXTRACT: note_on channel=6 note=59 velocity=95 time=0
EXTRACT: note_off channel=11 note=64 velocity=31 time=0
EXTRACT: note_off channel=11 note=76 velocity=95 time=0
EXTRACT: note_off channel=11 note=59 velocity=31 time=0
EXTRACT: note_off channel=11 note=71 velocity=95 time=0
EXTRACT: note_on channel=11 note=64 velocity=31 time=0
EXTRACT: note_on channel=11 note=76 velocity=95 time=0
EXTRACT: note_on channel=11 note=59 velocity=31 time=0
EXTRACT: note_on channel=11 note=71 velocity=95 time=0
EXTRACT: note_off channel=8 note=28 velocity=111 time=0
EXTRACT: note_off channel=13 note=76 velocity=95 time=0
EXTRACT: note_on channel=13 note=79 velocity=95 time=0
EXTRACT: note_off channel=4 note=64 velocity=95 time=0
EXTRACT: note_on channel=4 note=67 velocity=95 time=0
EXTRACT: note_off channel=15 note=76 velocity=95 time=0
EXTRACT: note_off channel=15 note=64 velocity=95 time=0
EXTRACT: note_on channel=15 note=79 velocity=95 time=0
EXTRACT: note_on channel=15 note=67 velocity=95 time=0
EXTRACT: note_on channel=9 note=56 velocity=95 time=0
EXTRACT: note_on channel=9 note=38 velocity=111 time=0
EXTRACT: note_on channel=9 note=82 velocity=95 time=0
EXTRACT: note_on channel=9 note=42 velocity=111 time=0
EXTRACT: pitchwheel channel=1 pitch=0 time=0.1123595
EXTRACT: note_off channel=6 note=64 velocity=95 time=0.05617975
EXTRACT: note_off channel=6 note=59 velocity=95 time=0
EXTRACT: note_on channel=6 note=64 velocity=95 time=0
EXTRACT: note_on channel=6 note=59 velocity=95 time=0
EXTRACT: note_off channel=11 note=64 velocity=31 time=0
EXTRACT: note_off channel=11 note=76 velocity=95 time=0
EXTRACT: note_off channel=11 note=59 velocity=31 time=0
EXTRACT: note_off channel=11 note=71 velocity=95 time=0
EXTRACT: note_on channel=11 note=64 velocity=31 time=0
EXTRACT: note_on channel=11 note=76 velocity=95 time=0
EXTRACT: note_on channel=11 note=59 velocity=31 time=0
EXTRACT: note_on channel=11 note=71 velocity=95 time=0
EXTRACT: note_off channel=9 note=56 velocity=95 time=0
EXTRACT: note_off channel=9 note=38 velocity=111 time=0
EXTRACT: note_off channel=9 note=82 velocity=95 time=0
EXTRACT: note_off channel=9 note=42 velocity=111 time=0
EXTRACT: pitchwheel channel=1 pitch=128 time=0.05617975
EXTRACT: pitchwheel channel=1 pitch=256 time=0.1123595
EXTRACT: pitchwheel channel=1 pitch=256 time=0
EXTRACT: note_off channel=6 note=64 velocity=95 time=0
EXTRACT: note_off channel=6 note=59 velocity=95 time=0
EXTRACT: note_on channel=6 note=64 velocity=95 time=0
EXTRACT: note_on channel=6 note=59 velocity=95 time=0
EXTRACT: note_off channel=11 note=64 velocity=31 time=0
EXTRACT: note_off channel=11 note=76 velocity=95 time=0
EXTRACT: note_off channel=11 note=59 velocity=31 time=0
EXTRACT: note_off channel=11 note=71 velocity=95 time=0
EXTRACT: note_on channel=11 note=64 velocity=31 time=0
EXTRACT: note_on channel=11 note=76 velocity=95 time=0
EXTRACT: note_on channel=11 note=59 velocity=31 time=0
EXTRACT: note_on channel=11 note=71 velocity=95 time=0
EXTRACT: note_on channel=9 note=82 velocity=95 time=0
EXTRACT: note_on channel=9 note=42 velocity=111 time=0
EXTRACT: note_off channel=6 note=64 velocity=95 time=0.16853925
EXTRACT: note_off channel=6 note=59 velocity=95 time=0
EXTRACT: note_on channel=6 note=64 velocity=95 time=0
EXTRACT: note_on channel=6 note=59 velocity=95 time=0
EXTRACT: note_off channel=11 note=64 velocity=31 time=0
EXTRACT: note_off channel=11 note=76 velocity=95 time=0
EXTRACT: note_off channel=11 note=59 velocity=31 time=0
EXTRACT: note_off channel=11 note=71 velocity=95 time=0
EXTRACT: note_on channel=11 note=64 velocity=31 time=0
EXTRACT: note_on channel=11 note=76 velocity=95 time=0
EXTRACT: note_on channel=11 note=59 velocity=31 time=0
EXTRACT: note_on channel=11 note=71 velocity=95 time=0
EXTRACT: note_on channel=8 note=28 velocity=95 time=0
EXTRACT: note_off channel=9 note=82 velocity=95 time=0
EXTRACT: note_off channel=9 note=42 velocity=111 time=0
EXTRACT: note_on channel=9 note=82 velocity=79 time=0
EXTRACT: pitchwheel channel=1 pitch=256 time=0.1123595
EXTRACT: pitchwheel channel=1 pitch=128 time=0.028089875
EXTRACT: pitchwheel channel=1 pitch=0 time=0.028089875
EXTRACT: pitchwheel channel=1 pitch=0 time=0
EXTRACT: pitchwheel channel=1 pitch=0 time=0
EXTRACT: note_off channel=1 note=55 velocity=95 time=0
EXTRACT: note_on channel=0 note=47 velocity=95 time=0
EXTRACT: note_on channel=0 note=40 velocity=95 time=0
EXTRACT: note_on channel=2 note=47 velocity=95 time=0
EXTRACT: note_on channel=2 note=40 velocity=95 time=0
EXTRACT: note_off channel=6 note=64 velocity=95 time=0
EXTRACT: note_off channel=6 note=59 velocity=95 time=0
EXTRACT: note_on channel=6 note=64 velocity=95 time=0
EXTRACT: note_on channel=6 note=59 velocity=95 time=0
EXTRACT: note_off channel=11 note=64 velocity=31 time=0
EXTRACT: note_off channel=11 note=76 velocity=95 time=0
EXTRACT: note_off channel=11 note=59 velocity=31 time=0
EXTRACT: note_off channel=11 note=71 velocity=95 time=0
EXTRACT: note_on channel=11 note=64 velocity=31 time=0
EXTRACT: note_on channel=11 note=76 velocity=95 time=0
EXTRACT: note_on channel=11 note=59 velocity=31 time=0
EXTRACT: note_on channel=11 note=71 velocity=95 time=0
EXTRACT: note_off channel=8 note=28 velocity=95 time=0
EXTRACT: note_on channel=8 note=28 velocity=111 time=0
EXTRACT: note_off channel=13 note=79 velocity=95 time=0
EXTRACT: note_on channel=13 note=76 velocity=95 time=0
EXTRACT: note_off channel=4 note=67 velocity=95 time=0
EXTRACT: note_on channel=4 note=64 velocity=95 time=0
EXTRACT: note_off channel=15 note=79 velocity=95 time=0
EXTRACT: note_off channel=15 note=67 velocity=95 time=0
EXTRACT: note_on channel=15 note=76 velocity=95 time=0
EXTRACT: note_on channel=15 note=64 velocity=95 time=0
EXTRACT: note_off channel=9 note=82 velocity=79 time=0
EXTRACT: note_on channel=9 note=56 velocity=95 time=0
EXTRACT: note_on channel=9 note=36 velocity=111 time=0
EXTRACT: note_on channel=9 note=42 velocity=111 time=0
EXTRACT: note_off channel=6 note=64 velocity=95 time=0.16853925
EXTRACT: note_off channel=6 note=59 velocity=95 time=0
EXTRACT: note_on channel=6 note=64 velocity=95 time=0
EXTRACT: note_on channel=6 note=59 velocity=95 time=0
EXTRACT: note_off channel=11 note=64 velocity=31 time=0
EXTRACT: note_off channel=11 note=76 velocity=95 time=0
EXTRACT: note_off channel=11 note=59 velocity=31 time=0
EXTRACT: note_off channel=11 note=71 velocity=95 time=0
EXTRACT: note_on channel=11 note=64 velocity=31 time=0
EXTRACT: note_on channel=11 note=76 velocity=95 time=0
EXTRACT: note_on channel=11 note=59 velocity=31 time=0
EXTRACT: note_on channel=11 note=71 velocity=95 time=0
EXTRACT: note_off channel=13 note=76 velocity=95 time=0
EXTRACT: note_off channel=4 note=64 velocity=95 time=0
EXTRACT: note_off channel=15 note=76 velocity=95 time=0
EXTRACT: note_off channel=15 note=64 velocity=95 time=0
EXTRACT: note_off channel=9 note=56 velocity=95 time=0
EXTRACT: note_off channel=9 note=36 velocity=111 time=0
EXTRACT: note_off channel=9 note=42 velocity=111 time=0
EXTRACT: note_on channel=9 note=82 velocity=95 time=0
EXTRACT: note_off channel=0 note=47 velocity=95 time=0.16853925
EXTRACT: note_off channel=0 note=40 velocity=95 time=0
EXTRACT: note_on channel=0 note=47 velocity=95 time=0
EXTRACT: note_on channel=0 note=40 velocity=95 time=0
EXTRACT: note_off channel=2 note=47 velocity=95 time=0
EXTRACT: note_off channel=2 note=40 velocity=95 time=0
EXTRACT: note_on channel=2 note=47 velocity=95 time=0
EXTRACT: note_on channel=2 note=40 velocity=95 time=0
EXTRACT: note_off channel=6 note=64 velocity=95 time=0
EXTRACT: note_off channel=6 note=59 velocity=95 time=0
EXTRACT: note_on channel=6 note=64 velocity=95 time=0
EXTRACT: note_on channel=6 note=59 velocity=95 time=0
EXTRACT: note_off channel=11 note=64 velocity=31 time=0
EXTRACT: note_off channel=11 note=76 velocity=95 time=0
EXTRACT: note_off channel=11 note=59 velocity=31 time=0
EXTRACT: note_off channel=11 note=71 velocity=95 time=0
EXTRACT: note_on channel=11 note=64 velocity=31 time=0
EXTRACT: note_on channel=11 note=76 velocity=95 time=0
EXTRACT: note_on channel=11 note=59 velocity=31 time=0
EXTRACT: note_on channel=11 note=71 velocity=95 time=0
EXTRACT: note_off channel=8 note=28 velocity=111 time=0
EXTRACT: note_on channel=8 note=28 velocity=111 time=0
EXTRACT: note_on channel=13 note=74 velocity=95 time=0
EXTRACT: note_on channel=4 note=62 velocity=95 time=0
EXTRACT: note_on channel=15 note=74 velocity=95 time=0
EXTRACT: note_on channel=15 note=62 velocity=95 time=0
EXTRACT: note_off channel=9 note=82 velocity=95 time=0
EXTRACT: note_on channel=9 note=42 velocity=111 time=0
EXTRACT: note_on channel=9 note=36 velocity=111 time=0
EXTRACT: note_on channel=9 note=82 velocity=79 time=0
EXTRACT: note_off channel=6 note=64 velocity=95 time=0.16853925
EXTRACT: note_off channel=6 note=59 velocity=95 time=0
EXTRACT: note_on channel=6 note=64 velocity=95 time=0
EXTRACT: note_on channel=6 note=59 velocity=95 time=0
EXTRACT: note_off channel=11 note=64 velocity=31 time=0
EXTRACT: note_off channel=11 note=76 velocity=95 time=0
EXTRACT: note_off channel=11 note=59 velocity=31 time=0
EXTRACT: note_off channel=11 note=71 velocity=95 time=0
EXTRACT: note_on channel=11 note=64 velocity=31 time=0
EXTRACT: note_on channel=11 note=76 velocity=95 time=0
EXTRACT: note_on channel=11 note=59 velocity=31 time=0
EXTRACT: note_on channel=11 note=71 velocity=95 time=0
EXTRACT: note_off channel=13 note=74 velocity=95 time=0
EXTRACT: note_on channel=13 note=76 velocity=95 time=0
EXTRACT: note_off channel=4 note=62 velocity=95 time=0
EXTRACT: note_on channel=4 note=64 velocity=95 time=0
EXTRACT: note_off channel=15 note=74 velocity=95 time=0
EXTRACT: note_off channel=15 note=62 velocity=95 time=0
EXTRACT: note_on channel=15 note=76 velocity=95 time=0
EXTRACT: note_on channel=15 note=64 velocity=95 time=0
EXTRACT: note_off channel=9 note=42 velocity=111 time=0
EXTRACT: note_off channel=9 note=36 velocity=111 time=0
EXTRACT: note_off channel=9 note=82 velocity=79 time=0
EXTRACT: note_off channel=0 note=47 velocity=95 time=0.16853925
EXTRACT: note_off channel=0 note=40 velocity=95 time=0
EXTRACT: note_off channel=2 note=47 velocity=95 time=0
EXTRACT: note_off channel=2 note=40 velocity=95 time=0
EXTRACT: note_off channel=6 note=64 velocity=95 time=0
EXTRACT: note_off channel=6 note=59 velocity=95 time=0
EXTRACT: note_on channel=6 note=64 velocity=95 time=0
EXTRACT: note_on channel=6 note=59 velocity=95 time=0
EXTRACT: note_off channel=11 note=64 velocity=31 time=0
EXTRACT: note_off channel=11 note=76 velocity=95 time=0
EXTRACT: note_off channel=11 note=59 velocity=31 time=0
EXTRACT: note_off channel=11 note=71 velocity=95 time=0
EXTRACT: note_on channel=11 note=64 velocity=31 time=0
EXTRACT: note_on channel=11 note=76 velocity=95 time=0
EXTRACT: note_on channel=11 note=59 velocity=31 time=0
EXTRACT: note_on channel=11 note=71 velocity=95 time=0
EXTRACT: note_off channel=8 note=28 velocity=111 time=0
EXTRACT: note_on channel=9 note=56 velocity=95 time=0
EXTRACT: note_on channel=9 note=42 velocity=111 time=0
EXTRACT: note_on channel=9 note=38 velocity=127 time=0
EXTRACT: note_on channel=9 note=82 velocity=95 time=0
EXTRACT: note_on channel=0 note=43 velocity=95 time=0.16853925
EXTRACT: note_off channel=6 note=64 velocity=95 time=0
EXTRACT: note_off channel=6 note=59 velocity=95 time=0
EXTRACT: note_on channel=6 note=64 velocity=95 time=0
EXTRACT: note_on channel=6 note=59 velocity=95 time=0
EXTRACT: note_off channel=11 note=64 velocity=31 time=0
EXTRACT: note_off channel=11 note=76 velocity=95 time=0
EXTRACT: note_off channel=11 note=59 velocity=31 time=0
EXTRACT: note_off channel=11 note=71 velocity=95 time=0
EXTRACT: note_on channel=11 note=64 velocity=31 time=0
EXTRACT: note_on channel=11 note=76 velocity=95 time=0
EXTRACT: note_on channel=11 note=59 velocity=31 time=0
EXTRACT: note_on channel=11 note=71 velocity=95 time=0
EXTRACT: note_on channel=8 note=31 velocity=127 time=0
EXTRACT: note_off channel=9 note=56 velocity=95 time=0
EXTRACT: note_off channel=9 note=42 velocity=111 time=0
EXTRACT: note_off channel=9 note=38 velocity=127 time=0
EXTRACT: note_off channel=9 note=82 velocity=95 time=0
EXTRACT: note_off channel=6 note=64 velocity=95 time=0.16853925
EXTRACT: note_off channel=6 note=59 velocity=95 time=0
EXTRACT: note_on channel=6 note=64 velocity=95 time=0
EXTRACT: note_on channel=6 note=59 velocity=95 time=0
EXTRACT: note_off channel=11 note=64 velocity=31 time=0
EXTRACT: note_off channel=11 note=76 velocity=95 time=0
EXTRACT: note_off channel=11 note=59 velocity=31 time=0
EXTRACT: note_off channel=11 note=71 velocity=95 time=0
EXTRACT: note_on channel=11 note=64 velocity=31 time=0
EXTRACT: note_on channel=11 note=76 velocity=95 time=0
EXTRACT: note_on channel=11 note=59 velocity=31 time=0
EXTRACT: note_on channel=11 note=71 velocity=95 time=0
EXTRACT: note_off channel=13 note=76 velocity=95 time=0
EXTRACT: note_off channel=4 note=64 velocity=95 time=0
EXTRACT: note_off channel=15 note=76 velocity=95 time=0
EXTRACT: note_off channel=15 note=64 velocity=95 time=0
EXTRACT: note_on channel=9 note=42 velocity=111 time=0
EXTRACT: note_off channel=6 note=64 velocity=95 time=0.16853925
EXTRACT: note_off channel=6 note=59 velocity=95 time=0
EXTRACT: note_on channel=6 note=64 velocity=95 time=0
EXTRACT: note_on channel=6 note=59 velocity=95 time=0
EXTRACT: note_off channel=11 note=64 velocity=31 time=0
EXTRACT: note_off channel=11 note=76 velocity=95 time=0
EXTRACT: note_off channel=11 note=59 velocity=31 time=0
EXTRACT: note_off channel=11 note=71 velocity=95 time=0
EXTRACT: note_on channel=11 note=64 velocity=31 time=0
EXTRACT: note_on channel=11 note=76 velocity=95 time=0
EXTRACT: note_on channel=11 note=59 velocity=31 time=0
EXTRACT: note_on channel=11 note=71 velocity=95 time=0
EXTRACT: note_on channel=13 note=71 velocity=95 time=0
EXTRACT: note_on channel=4 note=59 velocity=95 time=0
EXTRACT: note_on channel=15 note=71 velocity=95 time=0
EXTRACT: note_on channel=15 note=59 velocity=95 time=0
EXTRACT: note_off channel=9 note=42 velocity=111 time=0
EXTRACT: note_off channel=0 note=43 velocity=95 time=0
EXTRACT: note_on channel=0 note=52 velocity=95 time=0
EXTRACT: note_on channel=0 note=45 velocity=95 time=0
EXTRACT: note_on channel=2 note=52 velocity=95 time=0
EXTRACT: note_on channel=2 note=45 velocity=95 time=0
EXTRACT: note_off channel=6 note=64 velocity=95 time=0
EXTRACT: note_off channel=6 note=59 velocity=95 time=0
EXTRACT: note_on channel=6 note=64 velocity=95 time=0
EXTRACT: note_on channel=6 note=59 velocity=95 time=0
EXTRACT: note_off channel=11 note=64 velocity=31 time=0
EXTRACT: note_off channel=11 note=76 velocity=95 time=0
EXTRACT: note_off channel=11 note=59 velocity=31 time=0
EXTRACT: note_off channel=11 note=71 velocity=95 time=0
EXTRACT: note_on channel=11 note=64 velocity=31 time=0
EXTRACT: note_on channel=11 note=76 velocity=95 time=0
EXTRACT: note_on channel=11 note=59 velocity=31 time=0
EXTRACT: note_on channel=11 note=71 velocity=95 time=0
EXTRACT: note_off channel=8 note=31 velocity=127 time=0
EXTRACT: note_on channel=8 note=33 velocity=111 time=0
EXTRACT: note_off channel=13 note=71 velocity=95 time=0
EXTRACT: note_on channel=13 note=76 velocity=95 time=0
EXTRACT: note_off channel=4 note=59 velocity=95 time=0
EXTRACT: note_on channel=4 note=64 velocity=95 time=0
EXTRACT: note_off channel=15 note=71 velocity=95 time=0
EXTRACT: note_off channel=15 note=59 velocity=95 time=0
EXTRACT: note_on channel=15 note=76 velocity=95 time=0
EXTRACT: note_on channel=15 note=64 velocity=95 time=0
EXTRACT: note_on channel=9 note=82 velocity=111 time=0
EXTRACT: note_on channel=9 note=42 velocity=111 time=0
EXTRACT: note_on channel=9 note=56 velocity=95 time=0
EXTRACT: note_on channel=9 note=36 velocity=111 time=0
EXTRACT: note_off channel=6 note=64 velocity=95 time=0.16853925
EXTRACT: note_off channel=6 note=59 velocity=95 time=0
EXTRACT: note_on channel=6 note=64 velocity=95 time=0
EXTRACT: note_on channel=6 note=59 velocity=95 time=0
EXTRACT: note_off channel=11 note=64 velocity=31 time=0
EXTRACT: note_off channel=11 note=76 velocity=95 time=0
EXTRACT: note_off channel=11 note=59 velocity=31 time=0
EXTRACT: note_off channel=11 note=71 velocity=95 time=0
EXTRACT: note_on channel=11 note=64 velocity=31 time=0
EXTRACT: note_on channel=11 note=76 velocity=95 time=0
EXTRACT: note_on channel=11 note=59 velocity=31 time=0
EXTRACT: note_on channel=11 note=71 velocity=95 time=0
EXTRACT: note_off channel=13 note=76 velocity=95 time=0
EXTRACT: note_on channel=13 note=76 velocity=95 time=0
EXTRACT: note_off channel=4 note=64 velocity=95 time=0
EXTRACT: note_on channel=4 note=64 velocity=95 time=0
EXTRACT: note_off channel=15 note=76 velocity=95 time=0
EXTRACT: note_off channel=15 note=64 velocity=95 time=0
EXTRACT: note_on channel=15 note=76 velocity=95 time=0
EXTRACT: note_on channel=15 note=64 velocity=95 time=0
EXTRACT: note_off channel=9 note=82 velocity=111 time=0
EXTRACT: note_off channel=9 note=42 velocity=111 time=0
EXTRACT: note_off channel=9 note=56 velocity=95 time=0
EXTRACT: note_off channel=9 note=36 velocity=111 time=0
EXTRACT: note_off channel=0 note=52 velocity=95 time=0.16853925
EXTRACT: note_off channel=0 note=45 velocity=95 time=0
EXTRACT: note_on channel=0 note=52 velocity=95 time=0
EXTRACT: note_on channel=0 note=45 velocity=95 time=0
EXTRACT: note_off channel=2 note=52 velocity=95 time=0
EXTRACT: note_off channel=2 note=45 velocity=95 time=0
EXTRACT: note_on channel=2 note=52 velocity=95 time=0
EXTRACT: note_on channel=2 note=45 velocity=95 time=0
EXTRACT: note_off channel=6 note=64 velocity=95 time=0
EXTRACT: note_off channel=6 note=59 velocity=95 time=0
EXTRACT: note_on channel=6 note=64 velocity=95 time=0
EXTRACT: note_on channel=6 note=59 velocity=95 time=0
EXTRACT: note_off channel=11 note=64 velocity=31 time=0
EXTRACT: note_off channel=11 note=76 velocity=95 time=0
EXTRACT: note_off channel=11 note=59 velocity=31 time=0
EXTRACT: note_off channel=11 note=71 velocity=95 time=0
EXTRACT: note_on channel=11 note=64 velocity=31 time=0
EXTRACT: note_on channel=11 note=76 velocity=95 time=0
EXTRACT: note_on channel=11 note=59 velocity=31 time=0
EXTRACT: note_on channel=11 note=71 velocity=95 time=0
EXTRACT: note_off channel=8 note=33 velocity=111 time=0
EXTRACT: note_on channel=8 note=33 velocity=111 time=0
EXTRACT: note_off channel=13 note=76 velocity=95 time=0
EXTRACT: note_on channel=13 note=76 velocity=95 time=0
EXTRACT: note_off channel=4 note=64 velocity=95 time=0
EXTRACT: note_on channel=4 note=64 velocity=95 time=0
EXTRACT: note_off channel=15 note=76 velocity=95 time=0
EXTRACT: note_off channel=15 note=64 velocity=95 time=0
EXTRACT: note_on channel=15 note=76 velocity=95 time=0
EXTRACT: note_on channel=15 note=64 velocity=95 time=0
EXTRACT: note_on channel=9 note=82 velocity=95 time=0
EXTRACT: note_on channel=9 note=42 velocity=111 time=0
EXTRACT: note_on channel=9 note=36 velocity=111 time=0
EXTRACT: note_off channel=6 note=64 velocity=95 time=0.16853925
EXTRACT: note_off channel=6 note=59 velocity=95 time=0
EXTRACT: note_on channel=6 note=64 velocity=95 time=0
EXTRACT: note_on channel=6 note=59 velocity=95 time=0
EXTRACT: note_off channel=11 note=64 velocity=31 time=0
EXTRACT: note_off channel=11 note=76 velocity=95 time=0
EXTRACT: note_off channel=11 note=59 velocity=31 time=0
EXTRACT: note_off channel=11 note=71 velocity=95 time=0
EXTRACT: note_on channel=11 note=64 velocity=31 time=0
EXTRACT: note_on channel=11 note=76 velocity=95 time=0
EXTRACT: note_on channel=11 note=59 velocity=31 time=0
EXTRACT: note_on channel=11 note=71 velocity=95 time=0
EXTRACT: note_off channel=13 note=76 velocity=95 time=0
EXTRACT: note_on channel=13 note=76 velocity=95 time=0
EXTRACT: note_off channel=4 note=64 velocity=95 time=0
EXTRACT: note_on channel=4 note=64 velocity=95 time=0
EXTRACT: note_off channel=15 note=76 velocity=95 time=0
EXTRACT: note_off channel=15 note=64 velocity=95 time=0
EXTRACT: note_on channel=15 note=76 velocity=95 time=0
EXTRACT: note_on channel=15 note=64 velocity=95 time=0
EXTRACT: note_off channel=9 note=82 velocity=95 time=0
EXTRACT: note_off channel=9 note=42 velocity=111 time=0
EXTRACT: note_off channel=9 note=36 velocity=111 time=0
EXTRACT: note_on channel=9 note=82 velocity=79 time=0
EXTRACT: note_off channel=0 note=52 velocity=95 time=0.16853925
EXTRACT: note_off channel=0 note=45 velocity=95 time=0
EXTRACT: note_off channel=2 note=52 velocity=95 time=0
EXTRACT: note_off channel=2 note=45 velocity=95 time=0
EXTRACT: note_off channel=6 note=64 velocity=95 time=0
EXTRACT: note_off channel=6 note=59 velocity=95 time=0
EXTRACT: note_on channel=6 note=64 velocity=95 time=0
EXTRACT: note_on channel=6 note=59 velocity=95 time=0
EXTRACT: note_off channel=11 note=64 velocity=31 time=0
EXTRACT: note_off channel=11 note=76 velocity=95 time=0
EXTRACT: note_off channel=11 note=59 velocity=31 time=0
EXTRACT: note_off channel=11 note=71 velocity=95 time=0
EXTRACT: note_on channel=11 note=64 velocity=31 time=0
EXTRACT: note_on channel=11 note=76 velocity=95 time=0
EXTRACT: note_on channel=11 note=59 velocity=31 time=0
EXTRACT: note_on channel=11 note=71 velocity=95 time=0
EXTRACT: note_off channel=8 note=33 velocity=111 time=0
EXTRACT: note_off channel=13 note=76 velocity=95 time=0
EXTRACT: note_on channel=13 note=76 velocity=95 time=0
EXTRACT: note_off channel=4 note=64 velocity=95 time=0
EXTRACT: note_on channel=4 note=64 velocity=95 time=0
EXTRACT: note_off channel=15 note=76 velocity=95 time=0
EXTRACT: note_off channel=15 note=64 velocity=95 time=0
EXTRACT: note_on channel=15 note=76 velocity=95 time=0
EXTRACT: note_on channel=15 note=64 velocity=95 time=0
EXTRACT: note_off channel=9 note=82 velocity=79 time=0
EXTRACT: note_on channel=9 note=42 velocity=111 time=0
EXTRACT: note_on channel=9 note=38 velocity=127 time=0
EXTRACT: note_on channel=9 note=82 velocity=79 time=0
EXTRACT: note_on channel=9 note=56 velocity=95 time=0
EXTRACT: note_off channel=6 note=64 velocity=95 time=0.16853925
EXTRACT: note_off channel=6 note=59 velocity=95 time=0
EXTRACT: note_on channel=6 note=64 velocity=95 time=0
EXTRACT: note_on channel=6 note=59 velocity=95 time=0
EXTRACT: note_off channel=11 note=64 velocity=31 time=0
EXTRACT: note_off channel=11 note=76 velocity=95 time=0
EXTRACT: note_off channel=11 note=59 velocity=31 time=0
EXTRACT: note_off channel=11 note=71 velocity=95 time=0
EXTRACT: note_on channel=11 note=64 velocity=31 time=0
EXTRACT: note_on channel=11 note=76 velocity=95 time=0
EXTRACT: note_on channel=11 note=59 velocity=31 time=0
EXTRACT: note_on channel=11 note=71 velocity=95 time=0
EXTRACT: note_off channel=9 note=42 velocity=111 time=0
EXTRACT: note_off channel=9 note=38 velocity=127 time=0
EXTRACT: note_off channel=9 note=82 velocity=79 time=0
EXTRACT: note_off channel=9 note=56 velocity=95 time=0
EXTRACT: note_on channel=9 note=82 velocity=95 time=0
EXTRACT: note_off channel=6 note=64 velocity=95 time=0.16853925
EXTRACT: note_off channel=6 note=59 velocity=95 time=0
EXTRACT: note_on channel=6 note=64 velocity=95 time=0
EXTRACT: note_on channel=6 note=59 velocity=95 time=0
EXTRACT: note_off channel=11 note=64 velocity=31 time=0
EXTRACT: note_off channel=11 note=76 velocity=95 time=0
EXTRACT: note_off channel=11 note=59 velocity=31 time=0
EXTRACT: note_off channel=11 note=71 velocity=95 time=0
EXTRACT: note_on channel=11 note=64 velocity=31 time=0
EXTRACT: note_on channel=11 note=76 velocity=95 time=0
EXTRACT: note_on channel=11 note=59 velocity=31 time=0
EXTRACT: note_on channel=11 note=71 velocity=95 time=0
EXTRACT: note_off channel=13 note=76 velocity=95 time=0
EXTRACT: note_on channel=13 note=78 velocity=95 time=0
EXTRACT: note_off channel=4 note=64 velocity=95 time=0
EXTRACT: note_on channel=4 note=66 velocity=95 time=0
EXTRACT: note_off channel=15 note=76 velocity=95 time=0
EXTRACT: note_off channel=15 note=64 velocity=95 time=0
EXTRACT: note_on channel=15 note=78 velocity=95 time=0
EXTRACT: note_on channel=15 note=66 velocity=95 time=0
EXTRACT: note_off channel=9 note=82 velocity=95 time=0
EXTRACT: note_on channel=9 note=42 velocity=127 time=0
EXTRACT: note_off channel=6 note=64 velocity=95 time=0.16853925
EXTRACT: note_off channel=6 note=59 velocity=95 time=0
EXTRACT: note_on channel=6 note=64 velocity=95 time=0
EXTRACT: note_on channel=6 note=59 velocity=95 time=0
EXTRACT: note_off channel=11 note=64 velocity=31 time=0
EXTRACT: note_off channel=11 note=76 velocity=95 time=0
EXTRACT: note_off channel=11 note=59 velocity=31 time=0
EXTRACT: note_off channel=11 note=71 velocity=95 time=0
EXTRACT: note_on channel=11 note=64 velocity=31 time=0
EXTRACT: note_on channel=11 note=76 velocity=95 time=0
EXTRACT: note_on channel=11 note=59 velocity=31 time=0
EXTRACT: note_on channel=11 note=71 velocity=95 time=0
EXTRACT: note_on channel=8 note=33 velocity=95 time=0
EXTRACT: note_off channel=9 note=42 velocity=127 time=0
EXTRACT: note_on channel=9 note=82 velocity=95 time=0
EXTRACT: note_on channel=0 note=54 velocity=95 time=0.16853925
EXTRACT: note_on channel=0 note=47 velocity=95 time=0
EXTRACT: note_on channel=2 note=54 velocity=95 time=0
EXTRACT: note_on channel=2 note=47 velocity=95 time=0
EXTRACT: note_off channel=6 note=64 velocity=95 time=0
EXTRACT: note_off channel=6 note=59 velocity=95 time=0
EXTRACT: note_on channel=6 note=64 velocity=95 time=0
EXTRACT: note_on channel=6 note=59 velocity=95 time=0
EXTRACT: note_off channel=11 note=64 velocity=31 time=0
EXTRACT: note_off channel=11 note=76 velocity=95 time=0
EXTRACT: note_off channel=11 note=59 velocity=31 time=0
EXTRACT: note_off channel=11 note=71 velocity=95 time=0
EXTRACT: note_on channel=11 note=64 velocity=31 time=0
EXTRACT: note_on channel=11 note=76 velocity=95 time=0
EXTRACT: note_on channel=11 note=59 velocity=31 time=0
EXTRACT: note_on channel=11 note=71 velocity=95 time=0
EXTRACT: note_off channel=8 note=33 velocity=95 time=0
EXTRACT: note_on channel=8 note=35 velocity=111 time=0
EXTRACT: note_off channel=13 note=78 velocity=95 time=0
EXTRACT: note_on channel=13 note=79 velocity=95 time=0
EXTRACT: note_off channel=4 note=66 velocity=95 time=0
EXTRACT: note_on channel=4 note=67 velocity=95 time=0
EXTRACT: note_off channel=15 note=78 velocity=95 time=0
EXTRACT: note_off channel=15 note=66 velocity=95 time=0
EXTRACT: note_on channel=15 note=79 velocity=95 time=0
EXTRACT: note_on channel=15 note=67 velocity=95 time=0
EXTRACT: note_off channel=9 note=82 velocity=95 time=0
EXTRACT: note_on channel=9 note=42 velocity=127 time=0
EXTRACT: note_on channel=9 note=36 velocity=111 time=0
EXTRACT: note_on channel=9 note=56 velocity=95 time=0
EXTRACT: note_off channel=6 note=64 velocity=95 time=0.16853925
EXTRACT: note_off channel=6 note=59 velocity=95 time=0
EXTRACT: note_on channel=6 note=64 velocity=95 time=0
EXTRACT: note_on channel=6 note=59 velocity=95 time=0
EXTRACT: note_off channel=11 note=64 velocity=31 time=0
EXTRACT: note_off channel=11 note=76 velocity=95 time=0
EXTRACT: note_off channel=11 note=59 velocity=31 time=0
EXTRACT: note_off channel=11 note=71 velocity=95 time=0
EXTRACT: note_on channel=11 note=64 velocity=31 time=0
EXTRACT: note_on channel=11 note=76 velocity=95 time=0
EXTRACT: note_on channel=11 note=59 velocity=31 time=0
EXTRACT: note_on channel=11 note=71 velocity=95 time=0
EXTRACT: note_off channel=9 note=42 velocity=127 time=0
EXTRACT: note_off channel=9 note=36 velocity=111 time=0
EXTRACT: note_off channel=9 note=56 velocity=95 time=0
EXTRACT: note_on channel=9 note=82 velocity=95 time=0
EXTRACT: note_off channel=0 note=54 velocity=95 time=0.16853925
EXTRACT: note_off channel=0 note=47 velocity=95 time=0
EXTRACT: note_on channel=0 note=47 velocity=95 time=0
EXTRACT: note_off channel=2 note=54 velocity=95 time=0
EXTRACT: note_off channel=2 note=47 velocity=95 time=0
EXTRACT: note_on channel=2 note=47 velocity=95 time=0
EXTRACT: note_off channel=6 note=64 velocity=95 time=0
EXTRACT: note_off channel=6 note=59 velocity=95 time=0
EXTRACT: note_on channel=6 note=64 velocity=95 time=0
EXTRACT: note_on channel=6 note=59 velocity=95 time=0
EXTRACT: note_off channel=11 note=64 velocity=31 time=0
EXTRACT: note_off channel=11 note=76 velocity=95 time=0
EXTRACT: note_off channel=11 note=59 velocity=31 time=0
EXTRACT: note_off channel=11 note=71 velocity=95 time=0
EXTRACT: note_on channel=11 note=64 velocity=31 time=0
EXTRACT: note_on channel=11 note=76 velocity=95 time=0
EXTRACT: note_on channel=11 note=59 velocity=31 time=0
EXTRACT: note_on channel=11 note=71 velocity=95 time=0
EXTRACT: note_off channel=8 note=35 velocity=111 time=0
EXTRACT: note_on channel=8 note=35 velocity=95 time=0
EXTRACT: note_off channel=13 note=79 velocity=95 time=0
EXTRACT: note_on channel=13 note=78 velocity=95 time=0
EXTRACT: note_off channel=4 note=67 velocity=95 time=0
EXTRACT: note_on channel=4 note=66 velocity=95 time=0
EXTRACT: note_off channel=15 note=79 velocity=95 time=0
EXTRACT: note_off channel=15 note=67 velocity=95 time=0
EXTRACT: note_on channel=15 note=78 velocity=95 time=0
EXTRACT: note_on channel=15 note=66 velocity=95 time=0
EXTRACT: note_off channel=9 note=82 velocity=95 time=0
EXTRACT: note_on channel=9 note=42 velocity=111 time=0
EXTRACT: note_on channel=9 note=82 velocity=79 time=0
EXTRACT: note_on channel=9 note=36 velocity=111 time=0
EXTRACT: note_off channel=6 note=64 velocity=95 time=0.16853925
EXTRACT: note_off channel=6 note=59 velocity=95 time=0
EXTRACT: note_on channel=6 note=64 velocity=95 time=0
EXTRACT: note_on channel=6 note=59 velocity=95 time=0
EXTRACT: note_off channel=11 note=64 velocity=31 time=0
EXTRACT: note_off channel=11 note=76 velocity=95 time=0
EXTRACT: note_off channel=11 note=59 velocity=31 time=0
EXTRACT: note_off channel=11 note=71 velocity=95 time=0
EXTRACT: note_on channel=11 note=64 velocity=31 time=0
EXTRACT: note_on channel=11 note=76 velocity=95 time=0
EXTRACT: note_on channel=11 note=59 velocity=31 time=0
EXTRACT: note_on channel=11 note=71 velocity=95 time=0
EXTRACT: note_off channel=9 note=42 velocity=111 time=0
EXTRACT: note_off channel=9 note=82 velocity=79 time=0
EXTRACT: note_off channel=9 note=36 velocity=111 time=0
EXTRACT: note_off channel=0 note=47 velocity=95 time=0
EXTRACT: note_on channel=0 note=47 velocity=95 time=0
EXTRACT: note_on channel=0 note=40 velocity=95 time=0
EXTRACT: note_off channel=2 note=47 velocity=95 time=0
EXTRACT: note_on channel=2 note=47 velocity=95 time=0
EXTRACT: note_on channel=2 note=40 velocity=95 time=0
EXTRACT: note_off channel=6 note=64 velocity=95 time=0
EXTRACT: note_off channel=6 note=59 velocity=95 time=0
EXTRACT: note_on channel=6 note=64 velocity=95 time=0
EXTRACT: note_on channel=6 note=59 velocity=95 time=0
EXTRACT: note_off channel=11 note=64 velocity=31 time=0
EXTRACT: note_off channel=11 note=76 velocity=95 time=0
EXTRACT: note_off channel=11 note=59 velocity=31 time=0
EXTRACT: note_off channel=11 note=71 velocity=95 time=0
EXTRACT: note_on channel=11 note=64 velocity=31 time=0
EXTRACT: note_on channel=11 note=76 velocity=95 time=0
EXTRACT: note_on channel=11 note=59 velocity=31 time=0
EXTRACT: note_on channel=11 note=71 velocity=95 time=0
EXTRACT: note_off channel=8 note=35 velocity=95 time=0
EXTRACT: note_on channel=8 note=28 velocity=111 time=0
EXTRACT: note_off channel=13 note=78 velocity=95 time=0
EXTRACT: note_on channel=13 note=76 velocity=95 time=0
EXTRACT: note_off channel=4 note=66 velocity=95 time=0
EXTRACT: note_on channel=4 note=64 velocity=95 time=0
EXTRACT: note_off channel=15 note=78 velocity=95 time=0
EXTRACT: note_off channel=15 note=66 velocity=95 time=0
EXTRACT: note_on channel=15 note=76 velocity=95 time=0
EXTRACT: note_on channel=15 note=64 velocity=95 time=0
EXTRACT: note_on channel=9 note=56 velocity=95 time=0
EXTRACT: note_on channel=9 note=42 velocity=127 time=0
EXTRACT: note_on channel=9 note=36 velocity=111 time=0
EXTRACT: note_off channel=0 note=47 velocity=95 time=0.3370785
EXTRACT: note_off channel=0 note=40 velocity=95 time=0
EXTRACT: note_on channel=0 note=52 velocity=95 time=0
EXTRACT: note_off channel=2 note=47 velocity=95 time=0
EXTRACT: note_off channel=2 note=40 velocity=95 time=0
EXTRACT: note_off channel=6 note=64 velocity=95 time=0
EXTRACT: note_off channel=6 note=59 velocity=95 time=0
EXTRACT: note_off channel=11 note=64 velocity=31 time=0
EXTRACT: note_off channel=11 note=76 velocity=95 time=0
EXTRACT: note_off channel=11 note=59 velocity=31 time=0
EXTRACT: note_off channel=11 note=71 velocity=95 time=0
EXTRACT: note_off channel=8 note=28 velocity=111 time=0
EXTRACT: note_off channel=0 note=52 velocity=95 time=0.0308988625
EXTRACT: note_off channel=13 note=76 velocity=95 time=0.3061796375
EXTRACT: note_off channel=4 note=64 velocity=95 time=0
EXTRACT: note_off channel=15 note=76 velocity=95 time=0
EXTRACT: note_off channel=15 note=64 velocity=95 time=0
EXTRACT: note_off channel=9 note=56 velocity=95 time=0
EXTRACT: note_off channel=9 note=42 velocity=127 time=0
EXTRACT: note_off channel=9 note=36 velocity=111 time=0
