EXTRACT: control_change channel=6 control=0 value=0 time=0
EXTRACT: program_change channel=6 program=17 time=0
EXTRACT: control_change channel=0 control=0 value=0 time=0
EXTRACT: program_change channel=0 program=27 time=0
EXTRACT: control_change channel=0 control=10 value=21 time=0
EXTRACT: note_on channel=0 note=57 velocity=41 time=0
EXTRACT: control_change channel=1 control=0 value=0 time=0
EXTRACT: program_change channel=1 program=27 time=0
EXTRACT: control_change channel=1 control=10 value=105 time=0
EXTRACT: control_change channel=3 control=0 value=0 time=0
EXTRACT: program_change channel=3 program=33 time=0
EXTRACT: control_change channel=3 control=10 value=105 time=0
EXTRACT: note_on channel=3 note=45 velocity=64 time=0
EXTRACT: control_change channel=4 control=0 value=0 time=0
EXTRACT: program_change channel=4 program=0 time=0
EXTRACT: control_change channel=4 control=10 value=63 time=0
EXTRACT: note_on channel=4 note=73 velocity=27 time=0
EXTRACT: note_on channel=4 note=76 velocity=27 time=0
EXTRACT: control_change channel=2 control=0 value=0 time=0
EXTRACT: program_change channel=2 program=50 time=0
EXTRACT: control_change channel=2 control=10 value=21 time=0
EXTRACT: note_on channel=2 note=76 velocity=15 time=0
EXTRACT: note_on channel=2 note=73 velocity=15 time=0
EXTRACT: note_on channel=2 note=69 velocity=15 time=0
EXTRACT: note_on channel=2 note=64 velocity=15 time=0
EXTRACT: control_change channel=9 control=32 value=0 time=0
EXTRACT: control_change channel=9 control=0 value=0 time=0
EXTRACT: program_change channel=9 program=0 time=0
EXTRACT: control_change channel=9 control=10 value=63 time=0
EXTRACT: note_on channel=9 note=42 velocity=64 time=0
EXTRACT: control_change channel=7 control=0 value=0 time=0
EXTRACT: program_change channel=7 program=81 time=0
EXTRACT: control_change channel=7 control=10 value=21 time=0
EXTRACT: control_change channel=7 control=91 value=127 time=0
EXTRACT: control_change channel=9 control=0 value=0 time=0
EXTRACT: note_on channel=9 note=49 velocity=64 time=0
EXTRACT: note_off channel=0 note=57 velocity=64 time=0.222222
EXTRACT: note_off channel=9 note=42 velocity=64 time=0
EXTRACT: note_on channel=0 note=64 velocity=41 time=0.111111
EXTRACT: note_on channel=9 note=42 velocity=64 time=0
EXTRACT: note_off channel=9 note=49 velocity=64 time=0.111111
EXTRACT: note_off channel=0 note=64 velocity=64 time=0.111111
EXTRACT: note_off channel=9 note=42 velocity=64 time=0
EXTRACT: note_on channel=0 note=69 velocity=41 time=0.111111
EXTRACT: note_on channel=9 note=42 velocity=64 time=0
EXTRACT: note_on channel=0 note=71 velocity=41 time=0.1666665
EXTRACT: note_off channel=0 note=69 velocity=64 time=0.0555555
EXTRACT: note_off channel=4 note=73 velocity=64 time=0
EXTRACT: note_off channel=4 note=76 velocity=64 time=0
EXTRACT: note_off channel=2 note=76 velocity=64 time=0
EXTRACT: note_off channel=2 note=73 velocity=64 time=0
EXTRACT: note_off channel=2 note=69 velocity=64 time=0
EXTRACT: note_off channel=2 note=64 velocity=64 time=0
EXTRACT: note_off channel=9 note=42 velocity=64 time=0
EXTRACT: note_off channel=0 note=71 velocity=64 time=0.0555555
EXTRACT: note_on channel=0 note=73 velocity=41 time=0.0555555
EXTRACT: note_on channel=0 note=76 velocity=41 time=0
EXTRACT: note_on channel=1 note=81 velocity=19 time=0
EXTRACT: note_on channel=1 note=76 velocity=19 time=0
EXTRACT: note_on channel=1 note=73 velocity=19 time=0
EXTRACT: note_on channel=9 note=42 velocity=64 time=0
EXTRACT: note_on channel=9 note=38 velocity=64 time=0
EXTRACT: note_off channel=0 note=73 velocity=64 time=0.222222
EXTRACT: note_off channel=0 note=76 velocity=64 time=0
EXTRACT: note_off channel=1 note=81 velocity=64 time=0
EXTRACT: note_off channel=1 note=76 velocity=64 time=0
EXTRACT: note_off channel=1 note=73 velocity=64 time=0
EXTRACT: note_off channel=9 note=42 velocity=64 time=0
EXTRACT: note_off channel=9 note=38 velocity=64 time=0
EXTRACT: note_on channel=0 note=71 velocity=41 time=0.111111
EXTRACT: note_on channel=4 note=76 velocity=27 time=0
EXTRACT: note_on channel=4 note=71 velocity=27 time=0
EXTRACT: note_on channel=9 note=42 velocity=64 time=0
EXTRACT: note_off channel=0 note=71 velocity=64 time=0.222222
EXTRACT: note_off channel=3 note=45 velocity=64 time=0
EXTRACT: note_off channel=4 note=76 velocity=64 time=0
EXTRACT: note_off channel=4 note=71 velocity=64 time=0
EXTRACT: note_off channel=9 note=42 velocity=64 time=0
EXTRACT: note_on channel=0 note=69 velocity=41 time=0.111111
EXTRACT: note_on channel=3 note=45 velocity=64 time=0
EXTRACT: note_on channel=4 note=69 velocity=27 time=0
EXTRACT: note_on channel=9 note=42 velocity=64 time=0
EXTRACT: note_off channel=0 note=69 velocity=64 time=0.222222
EXTRACT: note_off channel=3 note=45 velocity=64 time=0
EXTRACT: note_off channel=4 note=69 velocity=64 time=0
EXTRACT: note_off channel=9 note=42 velocity=64 time=0
EXTRACT: note_on channel=0 note=57 velocity=41 time=0.111111
EXTRACT: note_on channel=3 note=42 velocity=64 time=0
EXTRACT: note_on channel=4 note=76 velocity=27 time=0
EXTRACT: note_on channel=4 note=73 velocity=27 time=0
EXTRACT: note_on channel=2 note=78 velocity=15 time=0
EXTRACT: note_on channel=2 note=73 velocity=15 time=0
EXTRACT: note_on channel=2 note=69 velocity=15 time=0
EXTRACT: note_on channel=9 note=42 velocity=64 time=0
EXTRACT: note_off channel=0 note=57 velocity=64 time=0.222222
EXTRACT: note_off channel=9 note=42 velocity=64 time=0
EXTRACT: note_on channel=0 note=61 velocity=41 time=0.111111
EXTRACT: note_on channel=9 note=42 velocity=64 time=0
EXTRACT: note_off channel=0 note=61 velocity=64 time=0.222222
EXTRACT: note_off channel=9 note=42 velocity=64 time=0
EXTRACT: note_on channel=0 note=66 velocity=41 time=0.111111
EXTRACT: note_on channel=9 note=42 velocity=64 time=0
EXTRACT: note_on channel=0 note=71 velocity=41 time=0.1666665
EXTRACT: note_off channel=0 note=66 velocity=64 time=0.0555555
EXTRACT: note_off channel=4 note=76 velocity=64 time=0
EXTRACT: note_off channel=4 note=73 velocity=64 time=0
EXTRACT: note_off channel=2 note=78 velocity=64 time=0
EXTRACT: note_off channel=2 note=73 velocity=64 time=0
EXTRACT: note_off channel=2 note=69 velocity=64 time=0
EXTRACT: note_off channel=9 note=42 velocity=64 time=0
EXTRACT: note_off channel=0 note=71 velocity=64 time=0.0555555
EXTRACT: note_on channel=0 note=76 velocity=41 time=0.0555555
EXTRACT: note_on channel=0 note=73 velocity=41 time=0
EXTRACT: note_on channel=1 note=78 velocity=19 time=0
EXTRACT: note_on channel=1 note=73 velocity=19 time=0
EXTRACT: note_on channel=1 note=69 velocity=19 time=0
EXTRACT: note_on channel=9 note=38 velocity=64 time=0
EXTRACT: note_on channel=9 note=42 velocity=64 time=0
EXTRACT: note_off channel=0 note=76 velocity=64 time=0.222222
EXTRACT: note_off channel=0 note=73 velocity=64 time=0
EXTRACT: note_off channel=1 note=78 velocity=64 time=0
EXTRACT: note_off channel=1 note=73 velocity=64 time=0
EXTRACT: note_off channel=1 note=69 velocity=64 time=0
EXTRACT: note_off channel=9 note=38 velocity=64 time=0
EXTRACT: note_off channel=9 note=42 velocity=64 time=0
EXTRACT: note_on channel=0 note=71 velocity=41 time=0.111111
EXTRACT: note_off channel=3 note=42 velocity=64 time=0
EXTRACT: note_on channel=4 note=76 velocity=27 time=0
EXTRACT: note_on channel=4 note=71 velocity=27 time=0
EXTRACT: note_on channel=9 note=42 velocity=64 time=0
EXTRACT: note_off channel=0 note=71 velocity=64 time=0.222222
EXTRACT: note_off channel=4 note=76 velocity=64 time=0
EXTRACT: note_off channel=4 note=71 velocity=64 time=0
EXTRACT: note_off channel=9 note=42 velocity=64 time=0
EXTRACT: note_on channel=0 note=69 velocity=41 time=0.111111
EXTRACT: note_on channel=3 note=42 velocity=64 time=0
EXTRACT: note_on channel=4 note=69 velocity=27 time=0
EXTRACT: note_on channel=9 note=42 velocity=64 time=0
EXTRACT: note_off channel=0 note=69 velocity=64 time=0.222222
EXTRACT: note_off channel=3 note=42 velocity=64 time=0
EXTRACT: note_off channel=4 note=69 velocity=64 time=0
EXTRACT: note_off channel=9 note=42 velocity=64 time=0
EXTRACT: note_on channel=0 note=62 velocity=41 time=0.111111
EXTRACT: note_on channel=3 note=38 velocity=64 time=0
EXTRACT: note_on channel=4 note=74 velocity=27 time=0
EXTRACT: note_on channel=4 note=69 velocity=27 time=0
EXTRACT: note_on channel=2 note=78 velocity=15 time=0
EXTRACT: note_on channel=2 note=74 velocity=15 time=0
EXTRACT: note_on channel=2 note=69 velocity=15 time=0
EXTRACT: note_on channel=2 note=62 velocity=15 time=0
EXTRACT: note_on channel=9 note=42 velocity=64 time=0
EXTRACT: note_off channel=0 note=62 velocity=64 time=0.222222
EXTRACT: note_off channel=9 note=42 velocity=64 time=0
EXTRACT: note_on channel=0 note=69 velocity=41 time=0.111111
EXTRACT: note_on channel=9 note=42 velocity=64 time=0
EXTRACT: note_off channel=0 note=69 velocity=64 time=0.222222
EXTRACT: note_off channel=9 note=42 velocity=64 time=0
EXTRACT: note_on channel=0 note=74 velocity=41 time=0.111111
EXTRACT: note_on channel=9 note=42 velocity=64 time=0
EXTRACT: note_on channel=0 note=76 velocity=41 time=0.1666665
EXTRACT: note_off channel=0 note=74 velocity=64 time=0.0555555
EXTRACT: note_off channel=4 note=74 velocity=64 time=0
EXTRACT: note_off channel=4 note=69 velocity=64 time=0
EXTRACT: note_off channel=2 note=78 velocity=64 time=0
EXTRACT: note_off channel=2 note=74 velocity=64 time=0
EXTRACT: note_off channel=2 note=69 velocity=64 time=0
EXTRACT: note_off channel=2 note=62 velocity=64 time=0
EXTRACT: note_off channel=9 note=42 velocity=64 time=0
EXTRACT: note_off channel=0 note=76 velocity=64 time=0.0555555
EXTRACT: note_on channel=0 note=78 velocity=41 time=0.0555555
EXTRACT: note_on channel=1 note=78 velocity=19 time=0
EXTRACT: note_on channel=1 note=74 velocity=19 time=0
EXTRACT: note_on channel=1 note=69 velocity=19 time=0
EXTRACT: note_on channel=9 note=42 velocity=64 time=0
EXTRACT: note_on channel=9 note=38 velocity=64 time=0
EXTRACT: note_off channel=0 note=78 velocity=64 time=0.222222
EXTRACT: note_off channel=1 note=78 velocity=64 time=0
EXTRACT: note_off channel=1 note=74 velocity=64 time=0
EXTRACT: note_off channel=1 note=69 velocity=64 time=0
EXTRACT: note_off channel=9 note=42 velocity=64 time=0
EXTRACT: note_off channel=9 note=38 velocity=64 time=0
EXTRACT: note_on channel=0 note=76 velocity=41 time=0.111111
EXTRACT: note_off channel=3 note=38 velocity=64 time=0
EXTRACT: note_on channel=4 note=69 velocity=27 time=0
EXTRACT: note_on channel=4 note=64 velocity=27 time=0
EXTRACT: note_on channel=9 note=42 velocity=64 time=0
EXTRACT: note_off channel=0 note=76 velocity=64 time=0.222222
EXTRACT: note_off channel=4 note=69 velocity=64 time=0
EXTRACT: note_off channel=4 note=64 velocity=64 time=0
EXTRACT: note_off channel=9 note=42 velocity=64 time=0
EXTRACT: note_on channel=0 note=69 velocity=41 time=0.111111
EXTRACT: note_on channel=3 note=38 velocity=64 time=0
EXTRACT: note_on channel=4 note=66 velocity=27 time=0
EXTRACT: note_on channel=4 note=69 velocity=27 time=0
EXTRACT: note_on channel=9 note=42 velocity=64 time=0
EXTRACT: note_off channel=0 note=69 velocity=64 time=0.222222
EXTRACT: note_off channel=3 note=38 velocity=64 time=0
EXTRACT: note_off channel=4 note=66 velocity=64 time=0
EXTRACT: note_off channel=4 note=69 velocity=64 time=0
EXTRACT: note_off channel=9 note=42 velocity=64 time=0
EXTRACT: note_on channel=0 note=62 velocity=41 time=0.111111
EXTRACT: note_on channel=3 note=38 velocity=64 time=0
EXTRACT: note_on channel=4 note=65 velocity=27 time=0
EXTRACT: note_on channel=4 note=62 velocity=27 time=0
EXTRACT: note_on channel=2 note=77 velocity=15 time=0
EXTRACT: note_on channel=2 note=74 velocity=15 time=0
EXTRACT: note_on channel=2 note=69 velocity=15 time=0
EXTRACT: note_on channel=2 note=62 velocity=15 time=0
EXTRACT: note_on channel=9 note=42 velocity=64 time=0
EXTRACT: note_off channel=0 note=62 velocity=64 time=0.222222
EXTRACT: note_off channel=9 note=42 velocity=64 time=0
EXTRACT: note_on channel=0 note=69 velocity=41 time=0.111111
EXTRACT: note_on channel=9 note=42 velocity=64 time=0
EXTRACT: note_off channel=4 note=62 velocity=64 time=0.111111
EXTRACT: note_off channel=0 note=69 velocity=64 time=0.111111
EXTRACT: note_off channel=9 note=42 velocity=64 time=0
EXTRACT: note_on channel=0 note=74 velocity=41 time=0.111111
EXTRACT: note_on channel=4 note=74 velocity=27 time=0
EXTRACT: note_on channel=4 note=69 velocity=27 time=0
EXTRACT: note_on channel=9 note=42 velocity=64 time=0
EXTRACT: note_on channel=0 note=76 velocity=41 time=0.1666665
EXTRACT: note_on channel=1 note=76 velocity=19 time=0
EXTRACT: note_on channel=9 note=38 velocity=64 time=0
EXTRACT: note_off channel=0 note=74 velocity=64 time=0.0555555
EXTRACT: note_off channel=4 note=65 velocity=64 time=0
EXTRACT: note_off channel=2 note=62 velocity=64 time=0
EXTRACT: note_off channel=9 note=42 velocity=64 time=0
EXTRACT: note_off channel=0 note=76 velocity=64 time=0.0555555
EXTRACT: note_off channel=1 note=76 velocity=64 time=0
EXTRACT: note_off channel=9 note=38 velocity=64 time=0
EXTRACT: note_on channel=0 note=77 velocity=41 time=0.0555555
EXTRACT: note_on channel=1 note=74 velocity=19 time=0
EXTRACT: note_on channel=1 note=77 velocity=19 time=0
EXTRACT: note_on channel=1 note=81 velocity=19 time=0
EXTRACT: note_on channel=9 note=42 velocity=64 time=0
EXTRACT: note_on channel=9 note=38 velocity=64 time=0
EXTRACT: note_off channel=2 note=77 velocity=64 time=0.111111
EXTRACT: note_off channel=2 note=74 velocity=64 time=0
EXTRACT: note_off channel=2 note=69 velocity=64 time=0
EXTRACT: note_off channel=0 note=77 velocity=64 time=0.111111
EXTRACT: note_off channel=9 note=42 velocity=64 time=0
EXTRACT: note_off channel=9 note=38 velocity=64 time=0
EXTRACT: note_on channel=0 note=76 velocity=41 time=0.111111
EXTRACT: note_off channel=3 note=38 velocity=64 time=0
EXTRACT: note_on channel=4 note=65 velocity=27 time=0
EXTRACT: note_on channel=9 note=42 velocity=64 time=0
EXTRACT: note_on channel=9 note=38 velocity=64 time=0
EXTRACT: note_off channel=0 note=76 velocity=64 time=0.222222
EXTRACT: note_off channel=4 note=74 velocity=64 time=0
EXTRACT: note_off channel=4 note=69 velocity=64 time=0
EXTRACT: note_off channel=4 note=65 velocity=64 time=0
EXTRACT: note_off channel=9 note=42 velocity=64 time=0
EXTRACT: note_off channel=9 note=38 velocity=64 time=0
EXTRACT: note_on channel=0 note=74 velocity=41 time=0.111111
EXTRACT: note_off channel=1 note=74 velocity=64 time=0
EXTRACT: note_off channel=1 note=77 velocity=64 time=0
EXTRACT: note_off channel=1 note=81 velocity=64 time=0
EXTRACT: note_on channel=3 note=38 velocity=64 time=0
EXTRACT: note_on channel=4 note=69 velocity=27 time=0
EXTRACT: note_on channel=9 note=42 velocity=64 time=0
EXTRACT: note_on channel=9 note=38 velocity=64 time=0
EXTRACT: note_off channel=0 note=74 velocity=64 time=0.222222
EXTRACT: note_off channel=3 note=38 velocity=64 time=0
EXTRACT: note_off channel=4 note=69 velocity=64 time=0
EXTRACT: note_off channel=9 note=42 velocity=64 time=0
EXTRACT: note_off channel=9 note=38 velocity=64 time=0
EXTRACT: note_on channel=0 note=57 velocity=41 time=0.111111
EXTRACT: note_on channel=3 note=45 velocity=64 time=0
EXTRACT: note_on channel=4 note=73 velocity=27 time=0
EXTRACT: note_on channel=4 note=76 velocity=27 time=0
EXTRACT: note_on channel=2 note=76 velocity=15 time=0
EXTRACT: note_on channel=2 note=73 velocity=15 time=0
EXTRACT: note_on channel=2 note=69 velocity=15 time=0
EXTRACT: note_on channel=2 note=64 velocity=15 time=0
EXTRACT: note_on channel=9 note=42 velocity=64 time=0
EXTRACT: note_on channel=9 note=49 velocity=64 time=0
EXTRACT: note_off channel=0 note=57 velocity=64 time=0.222222
EXTRACT: note_off channel=9 note=42 velocity=64 time=0
EXTRACT: note_off channel=9 note=49 velocity=64 time=0
EXTRACT: note_on channel=0 note=64 velocity=41 time=0.111111
EXTRACT: note_on channel=9 note=42 velocity=64 time=0
EXTRACT: note_off channel=0 note=64 velocity=64 time=0.222222
EXTRACT: note_off channel=9 note=42 velocity=64 time=0
EXTRACT: note_on channel=0 note=69 velocity=41 time=0.111111
EXTRACT: note_on channel=9 note=42 velocity=64 time=0
EXTRACT: note_on channel=0 note=71 velocity=41 time=0.1666665
EXTRACT: note_off channel=0 note=69 velocity=64 time=0.0555555
EXTRACT: note_off channel=4 note=73 velocity=64 time=0
EXTRACT: note_off channel=4 note=76 velocity=64 time=0
EXTRACT: note_off channel=2 note=76 velocity=64 time=0
EXTRACT: note_off channel=2 note=73 velocity=64 time=0
EXTRACT: note_off channel=2 note=69 velocity=64 time=0
EXTRACT: note_off channel=2 note=64 velocity=64 time=0
EXTRACT: note_off channel=9 note=42 velocity=64 time=0
EXTRACT: note_off channel=0 note=71 velocity=64 time=0.0555555
EXTRACT: note_on channel=0 note=73 velocity=41 time=0.0555555
EXTRACT: note_on channel=0 note=76 velocity=41 time=0
EXTRACT: note_on channel=1 note=81 velocity=19 time=0
EXTRACT: note_on channel=1 note=76 velocity=19 time=0
EXTRACT: note_on channel=1 note=73 velocity=19 time=0
EXTRACT: note_on channel=9 note=42 velocity=64 time=0
EXTRACT: note_on channel=9 note=38 velocity=64 time=0
EXTRACT: note_off channel=0 note=73 velocity=64 time=0.222222
EXTRACT: note_off channel=0 note=76 velocity=64 time=0
EXTRACT: note_off channel=1 note=81 velocity=64 time=0
EXTRACT: note_off channel=1 note=76 velocity=64 time=0
EXTRACT: note_off channel=1 note=73 velocity=64 time=0
EXTRACT: note_off channel=9 note=42 velocity=64 time=0
EXTRACT: note_off channel=9 note=38 velocity=64 time=0
EXTRACT: note_on channel=0 note=71 velocity=41 time=0.111111
EXTRACT: note_on channel=4 note=76 velocity=27 time=0
EXTRACT: note_on channel=4 note=71 velocity=27 time=0
EXTRACT: note_on channel=9 note=42 velocity=64 time=0
EXTRACT: note_off channel=0 note=71 velocity=64 time=0.222222
EXTRACT: note_off channel=3 note=45 velocity=64 time=0
EXTRACT: note_off channel=4 note=76 velocity=64 time=0
EXTRACT: note_off channel=4 note=71 velocity=64 time=0
EXTRACT: note_off channel=9 note=42 velocity=64 time=0
EXTRACT: note_on channel=0 note=69 velocity=41 time=0.111111
EXTRACT: note_on channel=3 note=45 velocity=64 time=0
EXTRACT: note_on channel=4 note=69 velocity=27 time=0
EXTRACT: note_on channel=9 note=42 velocity=64 time=0
EXTRACT: note_off channel=0 note=69 velocity=64 time=0.222222
EXTRACT: note_off channel=3 note=45 velocity=64 time=0
EXTRACT: note_off channel=4 note=69 velocity=64 time=0
EXTRACT: note_off channel=9 note=42 velocity=64 time=0
EXTRACT: note_on channel=0 note=57 velocity=41 time=0.111111
EXTRACT: note_on channel=3 note=42 velocity=64 time=0
EXTRACT: note_on channel=4 note=76 velocity=27 time=0
EXTRACT: note_on channel=4 note=73 velocity=27 time=0
EXTRACT: note_on channel=2 note=78 velocity=15 time=0
EXTRACT: note_on channel=2 note=73 velocity=15 time=0
EXTRACT: note_on channel=2 note=69 velocity=15 time=0
EXTRACT: note_on channel=9 note=42 velocity=64 time=0
EXTRACT: note_off channel=0 note=57 velocity=64 time=0.222222
EXTRACT: note_off channel=9 note=42 velocity=64 time=0
EXTRACT: note_on channel=0 note=61 velocity=41 time=0.111111
EXTRACT: note_on channel=9 note=42 velocity=64 time=0
EXTRACT: note_off channel=0 note=61 velocity=64 time=0.222222
EXTRACT: note_off channel=9 note=42 velocity=64 time=0
EXTRACT: note_on channel=0 note=66 velocity=41 time=0.111111
EXTRACT: note_on channel=9 note=42 velocity=64 time=0
EXTRACT: note_on channel=0 note=71 velocity=41 time=0.1666665
EXTRACT: note_off channel=0 note=66 velocity=64 time=0.0555555
EXTRACT: note_off channel=4 note=76 velocity=64 time=0
EXTRACT: note_off channel=4 note=73 velocity=64 time=0
EXTRACT: note_off channel=2 note=78 velocity=64 time=0
EXTRACT: note_off channel=2 note=73 velocity=64 time=0
EXTRACT: note_off channel=2 note=69 velocity=64 time=0
EXTRACT: note_off channel=9 note=42 velocity=64 time=0
EXTRACT: note_off channel=0 note=71 velocity=64 time=0.0555555
EXTRACT: note_on channel=0 note=76 velocity=41 time=0.0555555
EXTRACT: note_on channel=0 note=73 velocity=41 time=0
EXTRACT: note_on channel=1 note=78 velocity=19 time=0
EXTRACT: note_on channel=1 note=73 velocity=19 time=0
EXTRACT: note_on channel=1 note=69 velocity=19 time=0
EXTRACT: note_on channel=9 note=42 velocity=64 time=0
EXTRACT: note_on channel=9 note=38 velocity=64 time=0
EXTRACT: note_off channel=0 note=76 velocity=64 time=0.222222
EXTRACT: note_off channel=0 note=73 velocity=64 time=0
EXTRACT: note_off channel=1 note=78 velocity=64 time=0
EXTRACT: note_off channel=1 note=73 velocity=64 time=0
EXTRACT: note_off channel=1 note=69 velocity=64 time=0
EXTRACT: note_off channel=9 note=42 velocity=64 time=0
EXTRACT: note_off channel=9 note=38 velocity=64 time=0
EXTRACT: note_on channel=0 note=71 velocity=41 time=0.111111
EXTRACT: note_off channel=3 note=42 velocity=64 time=0
EXTRACT: note_on channel=4 note=76 velocity=27 time=0
EXTRACT: note_on channel=4 note=71 velocity=27 time=0
EXTRACT: note_on channel=9 note=42 velocity=64 time=0
EXTRACT: note_off channel=0 note=71 velocity=64 time=0.222222
EXTRACT: note_off channel=4 note=76 velocity=64 time=0
EXTRACT: note_off channel=4 note=71 velocity=64 time=0
EXTRACT: note_off channel=9 note=42 velocity=64 time=0
EXTRACT: note_on channel=0 note=69 velocity=41 time=0.111111
EXTRACT: note_on channel=3 note=42 velocity=64 time=0
EXTRACT: note_on channel=4 note=69 velocity=27 time=0
EXTRACT: note_on channel=9 note=42 velocity=64 time=0
EXTRACT: note_off channel=0 note=69 velocity=64 time=0.222222
EXTRACT: note_off channel=3 note=42 velocity=64 time=0
EXTRACT: note_off channel=4 note=69 velocity=64 time=0
EXTRACT: note_off channel=9 note=42 velocity=64 time=0
EXTRACT: note_on channel=0 note=62 velocity=41 time=0.111111
EXTRACT: note_on channel=3 note=38 velocity=64 time=0
EXTRACT: note_on channel=4 note=74 velocity=27 time=0
EXTRACT: note_on channel=4 note=69 velocity=27 time=0
EXTRACT: note_on channel=2 note=78 velocity=15 time=0
EXTRACT: note_on channel=2 note=74 velocity=15 time=0
EXTRACT: note_on channel=2 note=69 velocity=15 time=0
EXTRACT: note_on channel=2 note=62 velocity=15 time=0
EXTRACT: note_on channel=9 note=42 velocity=64 time=0
EXTRACT: note_off channel=0 note=62 velocity=64 time=0.222222
EXTRACT: note_off channel=9 note=42 velocity=64 time=0
EXTRACT: note_on channel=0 note=69 velocity=41 time=0.111111
EXTRACT: note_on channel=9 note=42 velocity=64 time=0
EXTRACT: note_off channel=0 note=69 velocity=64 time=0.222222
EXTRACT: note_off channel=9 note=42 velocity=64 time=0
EXTRACT: note_on channel=0 note=74 velocity=41 time=0.111111
EXTRACT: note_on channel=9 note=42 velocity=64 time=0
EXTRACT: note_on channel=0 note=76 velocity=41 time=0.1666665
EXTRACT: note_off channel=0 note=74 velocity=64 time=0.0555555
EXTRACT: note_off channel=4 note=74 velocity=64 time=0
EXTRACT: note_off channel=4 note=69 velocity=64 time=0
EXTRACT: note_off channel=2 note=78 velocity=64 time=0
EXTRACT: note_off channel=2 note=74 velocity=64 time=0
EXTRACT: note_off channel=2 note=69 velocity=64 time=0
EXTRACT: note_off channel=2 note=62 velocity=64 time=0
EXTRACT: note_off channel=9 note=42 velocity=64 time=0
EXTRACT: note_off channel=0 note=76 velocity=64 time=0.0555555
EXTRACT: note_on channel=0 note=78 velocity=41 time=0.0555555
EXTRACT: note_on channel=1 note=78 velocity=19 time=0
EXTRACT: note_on channel=1 note=74 velocity=19 time=0
EXTRACT: note_on channel=1 note=69 velocity=19 time=0
EXTRACT: note_on channel=9 note=42 velocity=64 time=0
EXTRACT: note_on channel=9 note=38 velocity=64 time=0
EXTRACT: note_off channel=0 note=78 velocity=64 time=0.222222
EXTRACT: note_off channel=1 note=78 velocity=64 time=0
EXTRACT: note_off channel=1 note=74 velocity=64 time=0
EXTRACT: note_off channel=1 note=69 velocity=64 time=0
EXTRACT: note_off channel=9 note=42 velocity=64 time=0
EXTRACT: note_off channel=9 note=38 velocity=64 time=0
EXTRACT: note_on channel=0 note=76 velocity=41 time=0.111111
EXTRACT: note_off channel=3 note=38 velocity=64 time=0
EXTRACT: note_on channel=4 note=69 velocity=27 time=0
EXTRACT: note_on channel=9 note=42 velocity=64 time=0
EXTRACT: note_off channel=0 note=76 velocity=64 time=0.222222
EXTRACT: note_off channel=4 note=69 velocity=64 time=0
EXTRACT: note_off channel=9 note=42 velocity=64 time=0
EXTRACT: note_on channel=0 note=69 velocity=41 time=0.111111
EXTRACT: note_on channel=3 note=38 velocity=64 time=0
EXTRACT: note_on channel=4 note=66 velocity=27 time=0
EXTRACT: note_on channel=9 note=42 velocity=64 time=0
EXTRACT: note_off channel=0 note=69 velocity=64 time=0.222222
EXTRACT: note_off channel=3 note=38 velocity=64 time=0
EXTRACT: note_off channel=4 note=66 velocity=64 time=0
EXTRACT: note_off channel=9 note=42 velocity=64 time=0
EXTRACT: note_on channel=0 note=62 velocity=41 time=0.111111
EXTRACT: note_on channel=3 note=38 velocity=64 time=0
EXTRACT: note_on channel=4 note=65 velocity=27 time=0
EXTRACT: note_on channel=2 note=77 velocity=15 time=0
EXTRACT: note_on channel=2 note=74 velocity=15 time=0
EXTRACT: note_on channel=2 note=69 velocity=15 time=0
EXTRACT: note_on channel=2 note=62 velocity=15 time=0
EXTRACT: note_on channel=9 note=42 velocity=64 time=0
EXTRACT: note_off channel=0 note=62 velocity=64 time=0.222222
EXTRACT: note_off channel=9 note=42 velocity=64 time=0
EXTRACT: note_on channel=0 note=69 velocity=41 time=0.111111
EXTRACT: note_on channel=9 note=42 velocity=64 time=0
EXTRACT: note_off channel=0 note=69 velocity=64 time=0.222222
EXTRACT: note_off channel=9 note=42 velocity=64 time=0
EXTRACT: note_on channel=0 note=74 velocity=41 time=0.111111
EXTRACT: note_on channel=4 note=74 velocity=27 time=0
EXTRACT: note_on channel=4 note=69 velocity=27 time=0
EXTRACT: note_on channel=9 note=42 velocity=64 time=0
EXTRACT: note_on channel=0 note=76 velocity=41 time=0.1666665
EXTRACT: note_on channel=1 note=76 velocity=19 time=0
EXTRACT: note_on channel=9 note=38 velocity=64 time=0
EXTRACT: note_off channel=0 note=74 velocity=64 time=0.0555555
EXTRACT: note_off channel=4 note=65 velocity=64 time=0
EXTRACT: note_off channel=2 note=62 velocity=64 time=0
EXTRACT: note_off channel=9 note=42 velocity=64 time=0
EXTRACT: note_off channel=0 note=76 velocity=64 time=0.0555555
EXTRACT: note_off channel=1 note=76 velocity=64 time=0
EXTRACT: note_off channel=9 note=38 velocity=64 time=0
EXTRACT: note_on channel=0 note=77 velocity=41 time=0.0555555
EXTRACT: note_on channel=1 note=77 velocity=19 time=0
EXTRACT: note_on channel=1 note=81 velocity=19 time=0
EXTRACT: note_on channel=1 note=86 velocity=19 time=0
EXTRACT: note_on channel=9 note=42 velocity=64 time=0
EXTRACT: note_on channel=9 note=38 velocity=64 time=0
EXTRACT: note_off channel=2 note=77 velocity=64 time=0.111111
EXTRACT: note_off channel=2 note=74 velocity=64 time=0
EXTRACT: note_off channel=2 note=69 velocity=64 time=0
EXTRACT: note_off channel=0 note=77 velocity=64 time=0.111111
EXTRACT: note_off channel=9 note=42 velocity=64 time=0
EXTRACT: note_off channel=9 note=38 velocity=64 time=0
EXTRACT: note_on channel=0 note=76 velocity=41 time=0.111111
EXTRACT: note_off channel=3 note=38 velocity=64 time=0
EXTRACT: note_on channel=9 note=42 velocity=64 time=0
EXTRACT: note_on channel=9 note=38 velocity=64 time=0
EXTRACT: note_off channel=0 note=76 velocity=64 time=0.222222
EXTRACT: note_off channel=4 note=74 velocity=64 time=0
EXTRACT: note_off channel=4 note=69 velocity=64 time=0
EXTRACT: note_off channel=9 note=42 velocity=64 time=0
EXTRACT: note_off channel=9 note=38 velocity=64 time=0
EXTRACT: note_on channel=0 note=74 velocity=41 time=0.111111
EXTRACT: note_off channel=1 note=77 velocity=64 time=0
EXTRACT: note_off channel=1 note=81 velocity=64 time=0
EXTRACT: note_off channel=1 note=86 velocity=64 time=0
EXTRACT: note_on channel=3 note=38 velocity=64 time=0
EXTRACT: note_on channel=9 note=42 velocity=64 time=0
EXTRACT: note_on channel=9 note=38 velocity=64 time=0
EXTRACT: note_off channel=0 note=74 velocity=64 time=0.222222
EXTRACT: note_off channel=3 note=38 velocity=64 time=0
EXTRACT: note_off channel=9 note=42 velocity=64 time=0
EXTRACT: note_off channel=9 note=38 velocity=64 time=0
EXTRACT: note_on channel=0 note=57 velocity=41 time=0.111111
EXTRACT: note_on channel=3 note=45 velocity=64 time=0
EXTRACT: note_on channel=2 note=76 velocity=15 time=0
EXTRACT: note_on channel=2 note=73 velocity=15 time=0
EXTRACT: note_on channel=2 note=69 velocity=15 time=0
EXTRACT: note_on channel=2 note=64 velocity=15 time=0
EXTRACT: note_on channel=9 note=42 velocity=64 time=0
EXTRACT: note_on channel=9 note=49 velocity=64 time=0
EXTRACT: note_off channel=0 note=57 velocity=64 time=0.222222
EXTRACT: note_off channel=9 note=42 velocity=64 time=0
EXTRACT: note_off channel=9 note=49 velocity=64 time=0
EXTRACT: note_on channel=0 note=64 velocity=41 time=0.111111
EXTRACT: note_on channel=9 note=42 velocity=64 time=0
EXTRACT: note_off channel=0 note=64 velocity=64 time=0.222222
EXTRACT: note_off channel=9 note=42 velocity=64 time=0
EXTRACT: note_on channel=0 note=69 velocity=41 time=0.111111
EXTRACT: note_on channel=9 note=42 velocity=64 time=0
EXTRACT: note_on channel=0 note=72 velocity=41 time=0.1666665
EXTRACT: note_off channel=0 note=69 velocity=64 time=0.0555555
EXTRACT: note_off channel=2 note=76 velocity=64 time=0
EXTRACT: note_off channel=2 note=73 velocity=64 time=0
EXTRACT: note_off channel=2 note=69 velocity=64 time=0
EXTRACT: note_off channel=2 note=64 velocity=64 time=0
EXTRACT: note_off channel=9 note=42 velocity=64 time=0
EXTRACT: note_off channel=0 note=72 velocity=64 time=0.0555555
EXTRACT: note_on channel=0 note=73 velocity=41 time=0.0555555
EXTRACT: note_on channel=1 note=76 velocity=37 time=0
EXTRACT: note_on channel=1 note=81 velocity=37 time=0
EXTRACT: note_on channel=1 note=73 velocity=37 time=0
EXTRACT: note_on channel=9 note=42 velocity=64 time=0
EXTRACT: note_on channel=9 note=38 velocity=64 time=0
EXTRACT: note_off channel=0 note=73 velocity=64 time=0.222222
EXTRACT: note_off channel=1 note=76 velocity=64 time=0
EXTRACT: note_off channel=1 note=81 velocity=64 time=0
EXTRACT: note_off channel=1 note=73 velocity=64 time=0
EXTRACT: note_off channel=9 note=42 velocity=64 time=0
EXTRACT: note_off channel=9 note=38 velocity=64 time=0
EXTRACT: note_on channel=6 note=73 velocity=39 time=0.111111
EXTRACT: note_on channel=0 note=69 velocity=41 time=0
EXTRACT: note_off channel=3 note=45 velocity=64 time=0
EXTRACT: note_on channel=9 note=42 velocity=64 time=0
EXTRACT: note_off channel=6 note=73 velocity=64 time=0.111111
EXTRACT: note_on channel=6 note=71 velocity=39 time=0.0555555
EXTRACT: note_off channel=0 note=69 velocity=64 time=0.0555555
EXTRACT: note_off channel=9 note=42 velocity=64 time=0
EXTRACT: note_off channel=6 note=71 velocity=64 time=0.0555555
EXTRACT: note_on channel=6 note=73 velocity=61 time=0.0555555
EXTRACT: note_on channel=0 note=64 velocity=41 time=0
EXTRACT: note_on channel=3 note=45 velocity=64 time=0
EXTRACT: note_on channel=9 note=42 velocity=64 time=0
EXTRACT: note_off channel=6 note=73 velocity=64 time=0.111111
EXTRACT: note_on channel=6 note=71 velocity=61 time=0.0555555
EXTRACT: note_off channel=0 note=64 velocity=64 time=0.0555555
EXTRACT: note_off channel=3 note=45 velocity=64 time=0
EXTRACT: note_off channel=9 note=42 velocity=64 time=0
EXTRACT: note_off channel=6 note=71 velocity=64 time=0.0555555
EXTRACT: note_on channel=6 note=73 velocity=61 time=0.0555555
EXTRACT: note_on channel=0 note=62 velocity=41 time=0
EXTRACT: note_on channel=3 note=38 velocity=64 time=0
EXTRACT: note_on channel=2 note=78 velocity=15 time=0
EXTRACT: note_on channel=2 note=74 velocity=15 time=0
EXTRACT: note_on channel=2 note=69 velocity=15 time=0
EXTRACT: note_on channel=2 note=62 velocity=15 time=0
EXTRACT: note_on channel=9 note=42 velocity=64 time=0
EXTRACT: note_off channel=6 note=73 velocity=64 time=0.111111
EXTRACT: note_on channel=6 note=71 velocity=61 time=0.0555555
EXTRACT: note_off channel=0 note=62 velocity=64 time=0.0555555
EXTRACT: note_off channel=9 note=42 velocity=64 time=0
EXTRACT: note_off channel=6 note=71 velocity=64 time=0.0555555
EXTRACT: note_on channel=6 note=73 velocity=61 time=0.0555555
EXTRACT: note_on channel=0 note=69 velocity=41 time=0
EXTRACT: note_on channel=9 note=42 velocity=64 time=0
EXTRACT: note_off channel=6 note=73 velocity=64 time=0.111111
EXTRACT: note_on channel=6 note=71 velocity=61 time=0.0555555
EXTRACT: note_off channel=0 note=69 velocity=64 time=0.0555555
EXTRACT: note_off channel=9 note=42 velocity=64 time=0
EXTRACT: note_off channel=6 note=71 velocity=64 time=0.0555555
EXTRACT: note_on channel=6 note=73 velocity=61 time=0.0555555
EXTRACT: note_on channel=0 note=74 velocity=41 time=0
EXTRACT: note_on channel=9 note=42 velocity=64 time=0
EXTRACT: note_off channel=6 note=73 velocity=64 time=0.111111
EXTRACT: note_on channel=6 note=71 velocity=61 time=0.0555555
EXTRACT: note_on channel=0 note=77 velocity=41 time=0
EXTRACT: note_off channel=0 note=74 velocity=64 time=0.0555555
EXTRACT: note_off channel=2 note=78 velocity=64 time=0
EXTRACT: note_off channel=2 note=74 velocity=64 time=0
EXTRACT: note_off channel=2 note=69 velocity=64 time=0
EXTRACT: note_off channel=2 note=62 velocity=64 time=0
EXTRACT: note_off channel=9 note=42 velocity=64 time=0
EXTRACT: note_off channel=6 note=71 velocity=64 time=0.0555555
EXTRACT: note_off channel=0 note=77 velocity=64 time=0
EXTRACT: note_on channel=6 note=73 velocity=61 time=0.0555555
EXTRACT: note_on channel=0 note=78 velocity=41 time=0
EXTRACT: note_on channel=1 note=78 velocity=37 time=0
EXTRACT: note_on channel=1 note=73 velocity=37 time=0
EXTRACT: note_on channel=1 note=69 velocity=37 time=0
EXTRACT: note_on channel=9 note=42 velocity=64 time=0
EXTRACT: note_on channel=9 note=38 velocity=64 time=0
EXTRACT: note_off channel=6 note=73 velocity=64 time=0.111111
EXTRACT: note_on channel=6 note=71 velocity=61 time=0.0555555
EXTRACT: note_off channel=0 note=78 velocity=64 time=0.0555555
EXTRACT: note_off channel=1 note=78 velocity=64 time=0
EXTRACT: note_off channel=1 note=73 velocity=64 time=0
EXTRACT: note_off channel=1 note=69 velocity=64 time=0
EXTRACT: note_off channel=9 note=42 velocity=64 time=0
EXTRACT: note_off channel=9 note=38 velocity=64 time=0
EXTRACT: note_on channel=6 note=73 velocity=39 time=0.111111
EXTRACT: note_on channel=0 note=74 velocity=41 time=0
EXTRACT: note_off channel=3 note=38 velocity=64 time=0
EXTRACT: note_on channel=9 note=42 velocity=64 time=0
EXTRACT: note_off channel=6 note=71 velocity=64 time=0.0555555
EXTRACT: note_off channel=6 note=73 velocity=64 time=0.0555555
EXTRACT: note_on channel=6 note=71 velocity=61 time=0.0555555
EXTRACT: note_off channel=0 note=74 velocity=64 time=0.0555555
EXTRACT: note_off channel=9 note=42 velocity=64 time=0
EXTRACT: note_off channel=6 note=71 velocity=64 time=0.0555555
EXTRACT: note_on channel=6 note=73 velocity=61 time=0.0555555
EXTRACT: note_on channel=0 note=69 velocity=41 time=0
EXTRACT: note_on channel=3 note=38 velocity=64 time=0
EXTRACT: note_on channel=9 note=42 velocity=64 time=0
EXTRACT: note_off channel=6 note=73 velocity=64 time=0.111111
EXTRACT: note_on channel=6 note=71 velocity=61 time=0.0555555
EXTRACT: note_off channel=0 note=69 velocity=64 time=0.0555555
EXTRACT: note_off channel=3 note=38 velocity=64 time=0
EXTRACT: note_off channel=9 note=42 velocity=64 time=0
EXTRACT: note_off channel=6 note=71 velocity=64 time=0.0555555
EXTRACT: note_on channel=6 note=73 velocity=61 time=0.0555555
EXTRACT: note_on channel=0 note=66 velocity=67 time=0
EXTRACT: note_on channel=3 note=42 velocity=64 time=0
EXTRACT: note_on channel=2 note=78 velocity=15 time=0
EXTRACT: note_on channel=2 note=73 velocity=15 time=0
EXTRACT: note_on channel=2 note=69 velocity=15 time=0
EXTRACT: note_on channel=9 note=42 velocity=64 time=0
EXTRACT: note_off channel=6 note=73 velocity=64 time=0.111111
EXTRACT: note_on channel=6 note=71 velocity=61 time=0.0555555
EXTRACT: note_off channel=0 note=66 velocity=64 time=0.0555555
EXTRACT: note_off channel=9 note=42 velocity=64 time=0
EXTRACT: note_off channel=6 note=71 velocity=64 time=0.0555555
EXTRACT: note_on channel=6 note=73 velocity=61 time=0.0555555
EXTRACT: note_on channel=0 note=73 velocity=67 time=0
EXTRACT: note_on channel=9 note=42 velocity=64 time=0
EXTRACT: note_off channel=6 note=73 velocity=64 time=0.111111
EXTRACT: note_on channel=6 note=71 velocity=61 time=0.0555555
EXTRACT: note_off channel=0 note=73 velocity=64 time=0.0555555
EXTRACT: note_off channel=9 note=42 velocity=64 time=0
EXTRACT: note_off channel=6 note=71 velocity=64 time=0.0555555
EXTRACT: note_on channel=0 note=78 velocity=67 time=0.0555555
EXTRACT: note_on channel=9 note=42 velocity=64 time=0
EXTRACT: note_on channel=0 note=80 velocity=67 time=0.1666665
EXTRACT: note_on channel=1 note=76 velocity=37 time=0
EXTRACT: note_off channel=0 note=78 velocity=64 time=0.0555555
EXTRACT: note_off channel=2 note=78 velocity=64 time=0
EXTRACT: note_off channel=2 note=73 velocity=64 time=0
EXTRACT: note_off channel=2 note=69 velocity=64 time=0
EXTRACT: note_off channel=9 note=42 velocity=64 time=0
EXTRACT: note_off channel=0 note=80 velocity=64 time=0.0555555
EXTRACT: note_off channel=1 note=76 velocity=64 time=0
EXTRACT: note_on channel=6 note=76 velocity=61 time=0.0555555
EXTRACT: note_on channel=6 note=73 velocity=61 time=0
EXTRACT: note_on channel=0 note=81 velocity=67 time=0
EXTRACT: note_on channel=1 note=81 velocity=37 time=0
EXTRACT: note_on channel=1 note=78 velocity=37 time=0
EXTRACT: note_on channel=1 note=73 velocity=37 time=0
EXTRACT: note_on channel=9 note=42 velocity=64 time=0
EXTRACT: note_on channel=9 note=38 velocity=64 time=0
EXTRACT: note_off channel=0 note=81 velocity=64 time=0.222222
EXTRACT: note_off channel=1 note=81 velocity=64 time=0
EXTRACT: note_off channel=1 note=78 velocity=64 time=0
EXTRACT: note_off channel=1 note=73 velocity=64 time=0
EXTRACT: note_off channel=9 note=42 velocity=64 time=0
EXTRACT: note_off channel=9 note=38 velocity=64 time=0
EXTRACT: note_on channel=0 note=78 velocity=67 time=0.111111
EXTRACT: note_off channel=3 note=42 velocity=64 time=0
EXTRACT: note_on channel=9 note=42 velocity=64 time=0
EXTRACT: note_off channel=6 note=76 velocity=64 time=0.111111
EXTRACT: note_off channel=6 note=73 velocity=64 time=0
EXTRACT: note_off channel=0 note=78 velocity=64 time=0.111111
EXTRACT: note_off channel=9 note=42 velocity=64 time=0
EXTRACT: note_on channel=6 note=73 velocity=61 time=0.111111
EXTRACT: note_on channel=6 note=76 velocity=61 time=0
EXTRACT: note_on channel=0 note=73 velocity=67 time=0
EXTRACT: note_on channel=3 note=42 velocity=64 time=0
EXTRACT: note_on channel=9 note=42 velocity=64 time=0
EXTRACT: note_off channel=6 note=73 velocity=64 time=0.222222
EXTRACT: note_off channel=6 note=76 velocity=64 time=0
EXTRACT: note_off channel=0 note=73 velocity=64 time=0
EXTRACT: note_off channel=3 note=42 velocity=64 time=0
EXTRACT: note_off channel=9 note=42 velocity=64 time=0
EXTRACT: note_on channel=6 note=71 velocity=61 time=0.111111
EXTRACT: note_on channel=6 note=74 velocity=61 time=0
EXTRACT: note_on channel=0 note=62 velocity=67 time=0
EXTRACT: note_on channel=3 note=38 velocity=64 time=0
EXTRACT: note_on channel=2 note=78 velocity=15 time=0
EXTRACT: note_on channel=2 note=74 velocity=15 time=0
EXTRACT: note_on channel=2 note=69 velocity=15 time=0
EXTRACT: note_on channel=2 note=62 velocity=15 time=0
EXTRACT: note_on channel=9 note=42 velocity=64 time=0
EXTRACT: note_off channel=6 note=71 velocity=64 time=0.222222
EXTRACT: note_off channel=0 note=62 velocity=64 time=0
EXTRACT: note_off channel=9 note=42 velocity=64 time=0
EXTRACT: note_on channel=6 note=69 velocity=61 time=0.111111
EXTRACT: note_on channel=0 note=69 velocity=67 time=0
EXTRACT: note_on channel=9 note=42 velocity=64 time=0
EXTRACT: note_off channel=6 note=74 velocity=64 time=0.111111
EXTRACT: note_off channel=6 note=69 velocity=64 time=0.111111
EXTRACT: note_off channel=0 note=69 velocity=64 time=0
EXTRACT: note_off channel=9 note=42 velocity=64 time=0
EXTRACT: note_on channel=0 note=74 velocity=67 time=0.111111
EXTRACT: note_on channel=9 note=42 velocity=64 time=0
EXTRACT: note_on channel=0 note=77 velocity=67 time=0.1666665
EXTRACT: note_on channel=9 note=38 velocity=64 time=0
EXTRACT: note_off channel=0 note=74 velocity=64 time=0.0555555
EXTRACT: note_off channel=2 note=78 velocity=64 time=0
EXTRACT: note_off channel=2 note=74 velocity=64 time=0
EXTRACT: note_off channel=2 note=69 velocity=64 time=0
EXTRACT: note_off channel=2 note=62 velocity=64 time=0
EXTRACT: note_off channel=9 note=42 velocity=64 time=0
EXTRACT: note_off channel=0 note=77 velocity=64 time=0.0555555
EXTRACT: note_off channel=9 note=38 velocity=64 time=0
EXTRACT: note_on channel=0 note=78 velocity=67 time=0.0555555
EXTRACT: note_on channel=1 note=74 velocity=37 time=0
EXTRACT: note_on channel=1 note=69 velocity=37 time=0
EXTRACT: note_on channel=1 note=74 velocity=37 time=0
EXTRACT: note_on channel=1 note=69 velocity=37 time=0
EXTRACT: note_on channel=1 note=66 velocity=37 time=0
EXTRACT: note_on channel=9 note=42 velocity=64 time=0
EXTRACT: note_on channel=9 note=38 velocity=64 time=0
EXTRACT: note_off channel=0 note=78 velocity=64 time=0.222222
EXTRACT: note_off channel=1 note=74 velocity=64 time=0
EXTRACT: note_off channel=1 note=69 velocity=64 time=0
EXTRACT: note_off channel=9 note=42 velocity=64 time=0
EXTRACT: note_off channel=9 note=38 velocity=64 time=0
EXTRACT: note_on channel=0 note=74 velocity=67 time=0.111111
EXTRACT: note_on channel=1 note=64 velocity=37 time=0
EXTRACT: note_off channel=3 note=38 velocity=64 time=0
EXTRACT: note_on channel=9 note=42 velocity=64 time=0
EXTRACT: note_on channel=9 note=38 velocity=64 time=0
EXTRACT: note_off channel=1 note=64 velocity=64 time=0.111111
EXTRACT: note_on channel=1 note=66 velocity=37 time=0.0555555
EXTRACT: note_off channel=0 note=74 velocity=64 time=0.0555555
EXTRACT: note_off channel=9 note=42 velocity=64 time=0
EXTRACT: note_off channel=9 note=38 velocity=64 time=0
EXTRACT: note_off channel=1 note=66 velocity=64 time=0.0555555
EXTRACT: note_on channel=0 note=69 velocity=67 time=0.0555555
EXTRACT: note_off channel=1 note=74 velocity=64 time=0
EXTRACT: note_off channel=1 note=69 velocity=64 time=0
EXTRACT: note_off channel=1 note=66 velocity=64 time=0
EXTRACT: note_on channel=1 note=74 velocity=37 time=0
EXTRACT: note_on channel=1 note=69 velocity=37 time=0
EXTRACT: note_on channel=3 note=38 velocity=64 time=0
EXTRACT: note_on channel=9 note=42 velocity=64 time=0
EXTRACT: note_on channel=9 note=38 velocity=64 time=0
EXTRACT: note_off channel=0 note=69 velocity=64 time=0.222222
EXTRACT: note_off channel=1 note=74 velocity=64 time=0
EXTRACT: note_off channel=1 note=69 velocity=64 time=0
EXTRACT: note_off channel=3 note=38 velocity=64 time=0
EXTRACT: note_off channel=9 note=42 velocity=64 time=0
EXTRACT: note_off channel=9 note=38 velocity=64 time=0
EXTRACT: note_on channel=0 note=57 velocity=67 time=0.111111
EXTRACT: note_on channel=1 note=64 velocity=37 time=0
EXTRACT: note_on channel=1 note=69 velocity=37 time=0
EXTRACT: note_on channel=1 note=73 velocity=37 time=0
EXTRACT: note_on channel=3 note=45 velocity=64 time=0
EXTRACT: note_on channel=2 note=76 velocity=15 time=0
EXTRACT: note_on channel=2 note=73 velocity=15 time=0
EXTRACT: note_on channel=2 note=69 velocity=15 time=0
EXTRACT: note_on channel=2 note=64 velocity=15 time=0
EXTRACT: note_on channel=9 note=42 velocity=64 time=0
EXTRACT: note_off channel=0 note=57 velocity=64 time=0.222222
EXTRACT: note_off channel=9 note=42 velocity=64 time=0
EXTRACT: note_on channel=0 note=64 velocity=67 time=0.111111
EXTRACT: note_on channel=9 note=42 velocity=64 time=0
EXTRACT: note_off channel=0 note=64 velocity=64 time=0.222222
EXTRACT: note_off channel=9 note=42 velocity=64 time=0
EXTRACT: note_on channel=0 note=69 velocity=67 time=0.111111
EXTRACT: note_off channel=1 note=64 velocity=64 time=0
EXTRACT: note_off channel=1 note=69 velocity=64 time=0
EXTRACT: note_off channel=1 note=73 velocity=64 time=0
EXTRACT: note_on channel=9 note=42 velocity=64 time=0
EXTRACT: note_on channel=0 note=72 velocity=67 time=0.1666665
EXTRACT: note_off channel=0 note=69 velocity=64 time=0.0555555
EXTRACT: note_off channel=2 note=76 velocity=64 time=0
EXTRACT: note_off channel=2 note=73 velocity=64 time=0
EXTRACT: note_off channel=2 note=69 velocity=64 time=0
EXTRACT: note_off channel=2 note=64 velocity=64 time=0
EXTRACT: note_off channel=9 note=42 velocity=64 time=0
EXTRACT: note_off channel=0 note=72 velocity=64 time=0.0555555
EXTRACT: note_on channel=6 note=73 velocity=61 time=0.0555555
EXTRACT: note_on channel=0 note=73 velocity=67 time=0
EXTRACT: note_on channel=1 note=81 velocity=37 time=0
EXTRACT: note_on channel=1 note=76 velocity=37 time=0
EXTRACT: note_on channel=9 note=42 velocity=64 time=0
EXTRACT: note_on channel=9 note=38 velocity=64 time=0
EXTRACT: note_off channel=6 note=73 velocity=64 time=0.222222
EXTRACT: note_off channel=0 note=73 velocity=64 time=0
EXTRACT: note_off channel=1 note=81 velocity=64 time=0
EXTRACT: note_off channel=1 note=76 velocity=64 time=0
EXTRACT: note_off channel=9 note=42 velocity=64 time=0
EXTRACT: note_off channel=9 note=38 velocity=64 time=0
EXTRACT: note_on channel=6 note=73 velocity=61 time=0.111111
EXTRACT: note_on channel=0 note=69 velocity=67 time=0
EXTRACT: note_on channel=9 note=42 velocity=64 time=0
EXTRACT: note_off channel=6 note=73 velocity=64 time=0.111111
EXTRACT: note_on channel=6 note=71 velocity=61 time=0.0555555
EXTRACT: note_off channel=0 note=69 velocity=64 time=0.0555555
EXTRACT: note_off channel=3 note=45 velocity=64 time=0
EXTRACT: note_off channel=9 note=42 velocity=64 time=0
EXTRACT: note_off channel=6 note=71 velocity=64 time=0.0555555
EXTRACT: note_on channel=6 note=73 velocity=61 time=0.0555555
EXTRACT: note_on channel=0 note=64 velocity=67 time=0
EXTRACT: note_on channel=3 note=45 velocity=64 time=0
EXTRACT: note_on channel=9 note=42 velocity=64 time=0
EXTRACT: note_off channel=6 note=73 velocity=64 time=0.111111
EXTRACT: note_on channel=6 note=71 velocity=61 time=0.0555555
EXTRACT: note_off channel=0 note=64 velocity=64 time=0.0555555
EXTRACT: note_off channel=3 note=45 velocity=64 time=0
EXTRACT: note_off channel=9 note=42 velocity=64 time=0
EXTRACT: note_off channel=6 note=71 velocity=64 time=0.0555555
EXTRACT: note_on channel=6 note=73 velocity=61 time=0.0555555
EXTRACT: note_on channel=0 note=62 velocity=67 time=0
EXTRACT: note_on channel=3 note=38 velocity=64 time=0
EXTRACT: note_on channel=2 note=78 velocity=15 time=0
EXTRACT: note_on channel=2 note=74 velocity=15 time=0
EXTRACT: note_on channel=2 note=69 velocity=15 time=0
EXTRACT: note_on channel=2 note=62 velocity=15 time=0
EXTRACT: note_on channel=9 note=42 velocity=64 time=0
EXTRACT: note_off channel=6 note=73 velocity=64 time=0.111111
EXTRACT: note_on channel=6 note=71 velocity=61 time=0.0555555
EXTRACT: note_off channel=0 note=62 velocity=64 time=0.0555555
EXTRACT: note_off channel=9 note=42 velocity=64 time=0
EXTRACT: note_off channel=6 note=71 velocity=64 time=0.0555555
EXTRACT: note_on channel=6 note=73 velocity=61 time=0.0555555
EXTRACT: note_on channel=0 note=69 velocity=67 time=0
EXTRACT: note_on channel=9 note=42 velocity=64 time=0
EXTRACT: note_off channel=6 note=73 velocity=64 time=0.111111
EXTRACT: note_on channel=6 note=71 velocity=61 time=0.0555555
EXTRACT: note_off channel=0 note=69 velocity=64 time=0.0555555
EXTRACT: note_off channel=9 note=42 velocity=64 time=0
EXTRACT: note_off channel=6 note=71 velocity=64 time=0.0555555
EXTRACT: note_on channel=6 note=73 velocity=61 time=0.0555555
EXTRACT: note_on channel=0 note=74 velocity=67 time=0
EXTRACT: note_on channel=9 note=42 velocity=64 time=0
EXTRACT: note_off channel=6 note=73 velocity=64 time=0.111111
EXTRACT: note_on channel=6 note=71 velocity=61 time=0.0555555
EXTRACT: note_on channel=0 note=77 velocity=67 time=0
EXTRACT: note_off channel=0 note=74 velocity=64 time=0.0555555
EXTRACT: note_off channel=2 note=78 velocity=64 time=0
EXTRACT: note_off channel=2 note=74 velocity=64 time=0
EXTRACT: note_off channel=2 note=69 velocity=64 time=0
EXTRACT: note_off channel=2 note=62 velocity=64 time=0
EXTRACT: note_off channel=9 note=42 velocity=64 time=0
EXTRACT: note_off channel=6 note=71 velocity=64 time=0.0555555
EXTRACT: note_off channel=0 note=77 velocity=64 time=0
EXTRACT: note_on channel=6 note=73 velocity=61 time=0.0555555
EXTRACT: note_on channel=0 note=78 velocity=67 time=0
EXTRACT: note_on channel=1 note=78 velocity=37 time=0
EXTRACT: note_on channel=1 note=73 velocity=37 time=0
EXTRACT: note_on channel=1 note=69 velocity=37 time=0
EXTRACT: note_on channel=9 note=38 velocity=64 time=0
EXTRACT: note_on channel=9 note=42 velocity=64 time=0
EXTRACT: note_off channel=6 note=73 velocity=64 time=0.222222
EXTRACT: note_off channel=0 note=78 velocity=64 time=0
EXTRACT: note_off channel=1 note=78 velocity=64 time=0
EXTRACT: note_off channel=1 note=73 velocity=64 time=0
EXTRACT: note_off channel=1 note=69 velocity=64 time=0
EXTRACT: note_off channel=9 note=38 velocity=64 time=0
EXTRACT: note_off channel=9 note=42 velocity=64 time=0
EXTRACT: note_on channel=6 note=73 velocity=39 time=0.111111
EXTRACT: note_on channel=0 note=74 velocity=67 time=0
EXTRACT: note_off channel=3 note=38 velocity=64 time=0
EXTRACT: note_on channel=9 note=42 velocity=64 time=0
EXTRACT: note_off channel=6 note=73 velocity=64 time=0.111111
EXTRACT: note_on channel=6 note=71 velocity=39 time=0.0555555
EXTRACT: note_off channel=0 note=74 velocity=64 time=0.0555555
EXTRACT: note_off channel=9 note=42 velocity=64 time=0
EXTRACT: note_off channel=6 note=71 velocity=64 time=0.0555555
EXTRACT: note_on channel=6 note=73 velocity=39 time=0.0555555
EXTRACT: note_on channel=0 note=69 velocity=67 time=0
EXTRACT: note_on channel=3 note=38 velocity=64 time=0
EXTRACT: note_on channel=9 note=42 velocity=64 time=0
EXTRACT: note_off channel=6 note=73 velocity=64 time=0.111111
EXTRACT: note_on channel=6 note=71 velocity=39 time=0.0555555
EXTRACT: note_off channel=0 note=69 velocity=64 time=0.0555555
EXTRACT: note_off channel=3 note=38 velocity=64 time=0
EXTRACT: note_off channel=9 note=42 velocity=64 time=0
EXTRACT: note_off channel=6 note=71 velocity=64 time=0.0555555
EXTRACT: note_on channel=6 note=73 velocity=61 time=0.0555555
EXTRACT: note_on channel=0 note=66 velocity=67 time=0
EXTRACT: note_on channel=3 note=42 velocity=64 time=0
EXTRACT: note_on channel=2 note=78 velocity=15 time=0
EXTRACT: note_on channel=2 note=73 velocity=15 time=0
EXTRACT: note_on channel=2 note=69 velocity=15 time=0
EXTRACT: note_on channel=9 note=42 velocity=64 time=0
EXTRACT: note_off channel=6 note=73 velocity=64 time=0.222222
EXTRACT: note_off channel=0 note=66 velocity=64 time=0
EXTRACT: note_off channel=9 note=42 velocity=64 time=0
EXTRACT: note_on channel=6 note=73 velocity=61 time=0.111111
EXTRACT: note_on channel=0 note=73 velocity=67 time=0
EXTRACT: note_on channel=9 note=42 velocity=64 time=0
EXTRACT: note_off channel=6 note=73 velocity=64 time=0.111111
EXTRACT: note_on channel=6 note=71 velocity=61 time=0.0555555
EXTRACT: note_off channel=0 note=73 velocity=64 time=0.0555555
EXTRACT: note_off channel=9 note=42 velocity=64 time=0
EXTRACT: note_on channel=0 note=78 velocity=67 time=0.111111
EXTRACT: note_on channel=9 note=42 velocity=64 time=0
EXTRACT: note_off channel=6 note=71 velocity=64 time=0.0555555
EXTRACT: note_on channel=6 note=73 velocity=61 time=0.111111
EXTRACT: note_on channel=0 note=80 velocity=67 time=0
EXTRACT: note_on channel=1 note=76 velocity=37 time=0
EXTRACT: note_off channel=0 note=78 velocity=64 time=0.0555555
EXTRACT: note_off channel=2 note=78 velocity=64 time=0
EXTRACT: note_off channel=2 note=73 velocity=64 time=0
EXTRACT: note_off channel=2 note=69 velocity=64 time=0
EXTRACT: note_off channel=9 note=42 velocity=64 time=0
EXTRACT: note_off channel=0 note=80 velocity=64 time=0.0555555
EXTRACT: note_off channel=1 note=76 velocity=64 time=0
EXTRACT: note_on channel=0 note=81 velocity=67 time=0.0555555
EXTRACT: note_on channel=1 note=81 velocity=37 time=0
EXTRACT: note_on channel=1 note=78 velocity=37 time=0
EXTRACT: note_on channel=1 note=73 velocity=37 time=0
EXTRACT: note_on channel=9 note=42 velocity=64 time=0
EXTRACT: note_on channel=9 note=38 velocity=64 time=0
EXTRACT: note_off channel=0 note=81 velocity=64 time=0.222222
EXTRACT: note_off channel=1 note=81 velocity=64 time=0
EXTRACT: note_off channel=1 note=78 velocity=64 time=0
EXTRACT: note_off channel=1 note=73 velocity=64 time=0
EXTRACT: note_off channel=9 note=42 velocity=64 time=0
EXTRACT: note_off channel=9 note=38 velocity=64 time=0
EXTRACT: note_on channel=0 note=78 velocity=67 time=0.111111
EXTRACT: note_off channel=3 note=42 velocity=64 time=0
EXTRACT: note_on channel=9 note=42 velocity=64 time=0
EXTRACT: note_off channel=6 note=73 velocity=64 time=0.1666665
EXTRACT: note_off channel=0 note=78 velocity=64 time=0.0555555
EXTRACT: note_off channel=9 note=42 velocity=64 time=0
EXTRACT: note_on channel=6 note=73 velocity=61 time=0.111111
EXTRACT: note_on channel=0 note=73 velocity=67 time=0
EXTRACT: note_on channel=3 note=42 velocity=64 time=0
EXTRACT: note_on channel=9 note=42 velocity=64 time=0
EXTRACT: note_off channel=6 note=73 velocity=64 time=0.222222
EXTRACT: note_off channel=0 note=73 velocity=64 time=0
EXTRACT: note_off channel=3 note=42 velocity=64 time=0
EXTRACT: note_off channel=9 note=42 velocity=64 time=0
EXTRACT: note_on channel=6 note=71 velocity=61 time=0.111111
EXTRACT: note_on channel=0 note=62 velocity=67 time=0
EXTRACT: note_on channel=3 note=38 velocity=64 time=0
EXTRACT: note_on channel=2 note=78 velocity=15 time=0
EXTRACT: note_on channel=2 note=74 velocity=15 time=0
EXTRACT: note_on channel=2 note=69 velocity=15 time=0
EXTRACT: note_on channel=2 note=62 velocity=15 time=0
EXTRACT: note_on channel=9 note=42 velocity=64 time=0
EXTRACT: note_off channel=6 note=71 velocity=64 time=0.222222
EXTRACT: note_off channel=0 note=62 velocity=64 time=0
EXTRACT: note_off channel=9 note=42 velocity=64 time=0
EXTRACT: note_on channel=6 note=69 velocity=61 time=0.111111
EXTRACT: note_on channel=0 note=69 velocity=67 time=0
EXTRACT: note_on channel=9 note=42 velocity=64 time=0
EXTRACT: note_off channel=6 note=69 velocity=64 time=0.222222
EXTRACT: note_off channel=0 note=69 velocity=64 time=0
EXTRACT: note_off channel=9 note=42 velocity=64 time=0
EXTRACT: note_on channel=0 note=74 velocity=67 time=0.111111
EXTRACT: note_on channel=9 note=42 velocity=64 time=0
EXTRACT: note_on channel=0 note=77 velocity=67 time=0.1666665
EXTRACT: note_on channel=9 note=38 velocity=64 time=0
EXTRACT: note_off channel=0 note=74 velocity=64 time=0.0555555
EXTRACT: note_off channel=2 note=78 velocity=64 time=0
EXTRACT: note_off channel=2 note=74 velocity=64 time=0
EXTRACT: note_off channel=2 note=69 velocity=64 time=0
EXTRACT: note_off channel=2 note=62 velocity=64 time=0
EXTRACT: note_off channel=9 note=42 velocity=64 time=0
EXTRACT: note_off channel=0 note=77 velocity=64 time=0.0555555
EXTRACT: note_off channel=9 note=38 velocity=64 time=0
EXTRACT: note_on channel=6 note=74 velocity=61 time=0.0555555
EXTRACT: note_on channel=0 note=78 velocity=67 time=0
EXTRACT: note_on channel=1 note=74 velocity=37 time=0
EXTRACT: note_on channel=1 note=69 velocity=37 time=0
EXTRACT: note_on channel=9 note=42 velocity=64 time=0
EXTRACT: note_on channel=9 note=38 velocity=64 time=0
EXTRACT: note_off channel=0 note=78 velocity=64 time=0.222222
EXTRACT: note_off channel=1 note=74 velocity=64 time=0
EXTRACT: note_off channel=1 note=69 velocity=64 time=0
EXTRACT: note_off channel=9 note=42 velocity=64 time=0
EXTRACT: note_off channel=9 note=38 velocity=64 time=0
EXTRACT: note_on channel=0 note=74 velocity=67 time=0.111111
EXTRACT: note_on channel=1 note=64 velocity=37 time=0
EXTRACT: note_off channel=3 note=38 velocity=64 time=0
EXTRACT: note_on channel=9 note=42 velocity=64 time=0
EXTRACT: note_on channel=9 note=38 velocity=64 time=0
EXTRACT: note_off channel=1 note=64 velocity=64 time=0.111111
EXTRACT: note_on channel=1 note=66 velocity=37 time=0.0555555
EXTRACT: note_off channel=0 note=74 velocity=64 time=0.0555555
EXTRACT: note_off channel=9 note=42 velocity=64 time=0
EXTRACT: note_off channel=9 note=38 velocity=64 time=0
EXTRACT: note_off channel=1 note=66 velocity=64 time=0.0555555
EXTRACT: note_off channel=6 note=74 velocity=64 time=0.0555555
EXTRACT: note_on channel=0 note=69 velocity=67 time=0
EXTRACT: note_on channel=1 note=74 velocity=37 time=0
EXTRACT: note_on channel=1 note=69 velocity=37 time=0
EXTRACT: note_on channel=3 note=38 velocity=64 time=0
EXTRACT: note_on channel=9 note=42 velocity=64 time=0
EXTRACT: note_on channel=9 note=38 velocity=64 time=0
EXTRACT: note_off channel=0 note=69 velocity=64 time=0.222222
EXTRACT: note_off channel=1 note=74 velocity=64 time=0
EXTRACT: note_off channel=1 note=69 velocity=64 time=0
EXTRACT: note_off channel=3 note=38 velocity=64 time=0
EXTRACT: note_off channel=9 note=42 velocity=64 time=0
EXTRACT: note_off channel=9 note=38 velocity=64 time=0
EXTRACT: note_on channel=0 note=52 velocity=67 time=0.111111
EXTRACT: note_on channel=1 note=52 velocity=37 time=0
EXTRACT: note_on channel=3 note=40 velocity=64 time=0
EXTRACT: note_on channel=2 note=79 velocity=29 time=0
EXTRACT: note_on channel=2 note=76 velocity=29 time=0
EXTRACT: note_on channel=2 note=71 velocity=29 time=0
EXTRACT: note_on channel=2 note=64 velocity=29 time=0
EXTRACT: note_on channel=9 note=42 velocity=64 time=0
EXTRACT: note_on channel=9 note=49 velocity=64 time=0
EXTRACT: note_off channel=0 note=52 velocity=64 time=0.222222
EXTRACT: note_off channel=1 note=52 velocity=64 time=0
EXTRACT: note_off channel=9 note=42 velocity=64 time=0
EXTRACT: note_off channel=9 note=49 velocity=64 time=0
EXTRACT: note_on channel=0 note=59 velocity=67 time=0.111111
EXTRACT: note_on channel=1 note=76 velocity=37 time=0
EXTRACT: note_on channel=1 note=71 velocity=37 time=0
EXTRACT: note_on channel=9 note=42 velocity=64 time=0
EXTRACT: note_off channel=0 note=59 velocity=64 time=0.222222
EXTRACT: note_off channel=9 note=42 velocity=64 time=0
EXTRACT: note_on channel=0 note=64 velocity=67 time=0.111111
EXTRACT: note_on channel=9 note=42 velocity=64 time=0
EXTRACT: note_off channel=1 note=76 velocity=64 time=0.111111
EXTRACT: note_off channel=1 note=71 velocity=64 time=0
EXTRACT: note_on channel=0 note=67 velocity=67 time=0.0555555
EXTRACT: note_off channel=0 note=64 velocity=64 time=0.0555555
EXTRACT: note_off channel=2 note=79 velocity=64 time=0
EXTRACT: note_off channel=2 note=76 velocity=64 time=0
EXTRACT: note_off channel=2 note=71 velocity=64 time=0
EXTRACT: note_off channel=2 note=64 velocity=64 time=0
EXTRACT: note_off channel=9 note=42 velocity=64 time=0
EXTRACT: note_off channel=0 note=67 velocity=64 time=0.0555555
EXTRACT: note_on channel=6 note=76 velocity=61 time=0.0555555
EXTRACT: note_on channel=0 note=68 velocity=67 time=0
EXTRACT: note_on channel=0 note=71 velocity=67 time=0
EXTRACT: note_on channel=1 note=56 velocity=37 time=0
EXTRACT: note_on channel=9 note=42 velocity=64 time=0
EXTRACT: note_on channel=9 note=38 velocity=64 time=0
EXTRACT: note_off channel=6 note=76 velocity=64 time=0.222222
EXTRACT: note_off channel=0 note=68 velocity=64 time=0
EXTRACT: note_off channel=0 note=71 velocity=64 time=0
EXTRACT: note_off channel=1 note=56 velocity=64 time=0
EXTRACT: note_off channel=9 note=42 velocity=64 time=0
EXTRACT: note_off channel=9 note=38 velocity=64 time=0
EXTRACT: note_on channel=6 note=76 velocity=61 time=0.111111
EXTRACT: note_on channel=0 note=64 velocity=67 time=0
EXTRACT: note_on channel=1 note=59 velocity=37 time=0
EXTRACT: note_on channel=1 note=64 velocity=37 time=0
EXTRACT: note_off channel=3 note=40 velocity=64 time=0
EXTRACT: note_on channel=9 note=42 velocity=64 time=0
EXTRACT: note_on channel=1 note=54 velocity=37 time=0.1666665
EXTRACT: note_off channel=6 note=76 velocity=64 time=0.0555555
EXTRACT: note_off channel=0 note=64 velocity=64 time=0
EXTRACT: note_off channel=1 note=59 velocity=64 time=0
EXTRACT: note_off channel=1 note=64 velocity=64 time=0
EXTRACT: note_off channel=9 note=42 velocity=64 time=0
EXTRACT: note_off channel=1 note=54 velocity=64 time=0.0555555
EXTRACT: note_on channel=6 note=76 velocity=61 time=0.0555555
EXTRACT: note_on channel=0 note=59 velocity=67 time=0
EXTRACT: note_on channel=1 note=56 velocity=37 time=0
EXTRACT: note_on channel=3 note=40 velocity=64 time=0
EXTRACT: note_on channel=9 note=42 velocity=64 time=0
EXTRACT: note_off channel=6 note=76 velocity=64 time=0.222222
EXTRACT: note_off channel=0 note=59 velocity=64 time=0
EXTRACT: note_off channel=1 note=56 velocity=64 time=0
EXTRACT: note_off channel=3 note=40 velocity=64 time=0
EXTRACT: note_off channel=9 note=42 velocity=64 time=0
EXTRACT: note_on channel=6 note=78 velocity=61 time=0.111111
EXTRACT: note_on channel=6 note=76 velocity=61 time=0
EXTRACT: note_on channel=0 note=54 velocity=67 time=0
EXTRACT: note_on channel=1 note=54 velocity=37 time=0
EXTRACT: note_on channel=3 note=42 velocity=64 time=0
EXTRACT: note_on channel=2 note=78 velocity=15 time=0
EXTRACT: note_on channel=2 note=73 velocity=15 time=0
EXTRACT: note_on channel=2 note=69 velocity=15 time=0
EXTRACT: note_on channel=2 note=66 velocity=29 time=0
EXTRACT: note_on channel=9 note=42 velocity=64 time=0
EXTRACT: note_off channel=6 note=76 velocity=64 time=0.111111
EXTRACT: note_off channel=6 note=78 velocity=64 time=0.111111
EXTRACT: note_off channel=0 note=54 velocity=64 time=0
EXTRACT: note_off channel=1 note=54 velocity=64 time=0
EXTRACT: note_off channel=9 note=42 velocity=64 time=0
EXTRACT: note_on channel=6 note=81 velocity=61 time=0.111111
EXTRACT: note_on channel=0 note=61 velocity=67 time=0
EXTRACT: note_on channel=1 note=64 velocity=37 time=0
EXTRACT: note_on channel=9 note=42 velocity=64 time=0
EXTRACT: note_off channel=1 note=64 velocity=64 time=0.111111
EXTRACT: note_on channel=1 note=66 velocity=37 time=0.0555555
EXTRACT: note_off channel=6 note=81 velocity=64 time=0.0555555
EXTRACT: note_off channel=0 note=61 velocity=64 time=0
EXTRACT: note_off channel=9 note=42 velocity=64 time=0
EXTRACT: note_off channel=1 note=66 velocity=64 time=0.0555555
EXTRACT: note_on channel=0 note=66 velocity=67 time=0.0555555
EXTRACT: note_on channel=1 note=69 velocity=37 time=0
EXTRACT: note_on channel=1 note=73 velocity=37 time=0
EXTRACT: note_on channel=9 note=42 velocity=64 time=0
EXTRACT: note_off channel=1 note=69 velocity=64 time=0.111111
EXTRACT: note_off channel=1 note=73 velocity=64 time=0
EXTRACT: note_on channel=0 note=71 velocity=67 time=0.0555555
EXTRACT: note_on channel=1 note=71 velocity=37 time=0
EXTRACT: note_on channel=1 note=75 velocity=37 time=0
EXTRACT: note_off channel=0 note=66 velocity=64 time=0.0555555
EXTRACT: note_off channel=2 note=78 velocity=64 time=0
EXTRACT: note_off channel=2 note=73 velocity=64 time=0
EXTRACT: note_off channel=2 note=69 velocity=64 time=0
EXTRACT: note_off channel=2 note=66 velocity=64 time=0
EXTRACT: note_off channel=9 note=42 velocity=64 time=0
EXTRACT: note_off channel=0 note=71 velocity=64 time=0.0555555
EXTRACT: note_off channel=1 note=71 velocity=64 time=0
EXTRACT: note_off channel=1 note=75 velocity=64 time=0
EXTRACT: note_on channel=0 note=76 velocity=67 time=0.0555555
EXTRACT: note_on channel=0 note=73 velocity=67 time=0
EXTRACT: note_on channel=1 note=76 velocity=37 time=0
EXTRACT: note_on channel=1 note=73 velocity=37 time=0
EXTRACT: note_on channel=9 note=42 velocity=64 time=0
EXTRACT: note_on channel=9 note=38 velocity=64 time=0
EXTRACT: note_off channel=0 note=76 velocity=64 time=0.222222
EXTRACT: note_off channel=0 note=73 velocity=64 time=0
EXTRACT: note_off channel=1 note=76 velocity=64 time=0
EXTRACT: note_off channel=1 note=73 velocity=64 time=0
EXTRACT: note_off channel=9 note=42 velocity=64 time=0
EXTRACT: note_off channel=9 note=38 velocity=64 time=0
EXTRACT: note_on channel=0 note=71 velocity=67 time=0.111111
EXTRACT: note_on channel=1 note=74 velocity=37 time=0
EXTRACT: note_on channel=1 note=71 velocity=37 time=0
EXTRACT: note_off channel=3 note=42 velocity=64 time=0
EXTRACT: note_on channel=9 note=42 velocity=64 time=0
EXTRACT: note_off channel=1 note=74 velocity=64 time=0.111111
EXTRACT: note_off channel=1 note=71 velocity=64 time=0
EXTRACT: note_on channel=1 note=73 velocity=37 time=0.0555555
EXTRACT: note_on channel=1 note=69 velocity=37 time=0
EXTRACT: note_off channel=0 note=71 velocity=64 time=0.0555555
EXTRACT: note_off channel=9 note=42 velocity=64 time=0
EXTRACT: note_off channel=1 note=73 velocity=64 time=0.0555555
EXTRACT: note_off channel=1 note=69 velocity=64 time=0
EXTRACT: note_on channel=6 note=78 velocity=61 time=0.0555555
EXTRACT: note_on channel=0 note=69 velocity=67 time=0
EXTRACT: note_on channel=1 note=66 velocity=37 time=0
EXTRACT: note_on channel=3 note=42 velocity=64 time=0
EXTRACT: note_on channel=9 note=42 velocity=64 time=0
EXTRACT: note_off channel=6 note=78 velocity=64 time=0.111111
EXTRACT: note_on channel=6 note=81 velocity=61 time=0.0555555
EXTRACT: note_off channel=0 note=69 velocity=64 time=0.0555555
EXTRACT: note_off channel=1 note=66 velocity=64 time=0
EXTRACT: note_off channel=3 note=42 velocity=64 time=0
EXTRACT: note_off channel=9 note=42 velocity=64 time=0
EXTRACT: note_off channel=6 note=81 velocity=64 time=0.0555555
EXTRACT: note_on channel=6 note=81 velocity=61 time=0.0555555
EXTRACT: note_on channel=6 note=83 velocity=61 time=0
EXTRACT: note_on channel=0 note=74 velocity=67 time=0
EXTRACT: note_on channel=0 note=67 velocity=67 time=0
EXTRACT: note_on channel=1 note=74 velocity=37 time=0
EXTRACT: note_on channel=1 note=67 velocity=37 time=0
EXTRACT: note_on channel=3 note=43 velocity=64 time=0
EXTRACT: note_on channel=2 note=79 velocity=29 time=0
EXTRACT: note_on channel=2 note=71 velocity=29 time=0
EXTRACT: note_on channel=2 note=67 velocity=29 time=0
EXTRACT: note_on channel=2 note=62 velocity=29 time=0
EXTRACT: note_on channel=9 note=42 velocity=64 time=0
EXTRACT: note_off channel=6 note=81 velocity=64 time=0.111111
EXTRACT: note_off channel=6 note=83 velocity=64 time=0.111111
EXTRACT: note_off channel=1 note=74 velocity=64 time=0
EXTRACT: note_off channel=1 note=67 velocity=64 time=0
EXTRACT: note_off channel=9 note=42 velocity=64 time=0
EXTRACT: note_on channel=6 note=81 velocity=61 time=0.111111
EXTRACT: note_on channel=1 note=74 velocity=37 time=0
EXTRACT: note_on channel=9 note=42 velocity=64 time=0
EXTRACT: note_off channel=6 note=81 velocity=64 time=0.222222
EXTRACT: note_off channel=1 note=74 velocity=64 time=0
EXTRACT: note_off channel=9 note=42 velocity=64 time=0
EXTRACT: note_off channel=0 note=74 velocity=64 time=0.111111
EXTRACT: note_off channel=0 note=67 velocity=64 time=0
EXTRACT: note_on channel=1 note=83 velocity=37 time=0
EXTRACT: note_on channel=9 note=42 velocity=64 time=0
EXTRACT: note_off channel=2 note=79 velocity=64 time=0.222222
EXTRACT: note_off channel=2 note=71 velocity=64 time=0
EXTRACT: note_off channel=2 note=67 velocity=64 time=0
EXTRACT: note_off channel=2 note=62 velocity=64 time=0
EXTRACT: note_off channel=9 note=42 velocity=64 time=0
EXTRACT: note_on channel=0 note=74 velocity=67 time=0.111111
EXTRACT: note_on channel=0 note=67 velocity=67 time=0
EXTRACT: note_on channel=9 note=42 velocity=64 time=0
EXTRACT: note_on channel=9 note=38 velocity=64 time=0
EXTRACT: note_off channel=1 note=83 velocity=64 time=0.111111
EXTRACT: note_off channel=9 note=42 velocity=64 time=0.111111
EXTRACT: note_off channel=9 note=38 velocity=64 time=0
EXTRACT: note_on channel=1 note=83 velocity=37 time=0.111111
EXTRACT: note_off channel=3 note=43 velocity=64 time=0
EXTRACT: note_on channel=9 note=42 velocity=64 time=0
EXTRACT: note_off channel=0 note=74 velocity=64 time=0.111111
EXTRACT: note_off channel=0 note=67 velocity=64 time=0
EXTRACT: note_off channel=1 note=83 velocity=64 time=0.111111
EXTRACT: note_off channel=9 note=42 velocity=64 time=0
EXTRACT: note_on channel=6 note=81 velocity=61 time=0.111111
EXTRACT: note_on channel=0 note=74 velocity=67 time=0
EXTRACT: note_on channel=0 note=67 velocity=67 time=0
EXTRACT: note_on channel=1 note=74 velocity=37 time=0
EXTRACT: note_on channel=3 note=43 velocity=64 time=0
EXTRACT: note_on channel=9 note=42 velocity=64 time=0
EXTRACT: note_off channel=6 note=81 velocity=64 time=0.111111
EXTRACT: note_on channel=6 note=81 velocity=61 time=0.0555555
EXTRACT: note_off channel=0 note=74 velocity=64 time=0.0555555
EXTRACT: note_off channel=0 note=67 velocity=64 time=0
EXTRACT: note_off channel=1 note=74 velocity=64 time=0
EXTRACT: note_off channel=3 note=43 velocity=64 time=0
EXTRACT: note_off channel=9 note=42 velocity=64 time=0
EXTRACT: note_off channel=6 note=81 velocity=64 time=0.0555555
EXTRACT: note_on channel=6 note=81 velocity=61 time=0.0555555
EXTRACT: note_on channel=0 note=74 velocity=67 time=0
EXTRACT: note_on channel=0 note=69 velocity=67 time=0
EXTRACT: note_on channel=1 note=81 velocity=37 time=0
EXTRACT: note_on channel=1 note=90 velocity=37 time=0
EXTRACT: note_on channel=3 note=38 velocity=64 time=0
EXTRACT: note_on channel=2 note=78 velocity=15 time=0
EXTRACT: note_on channel=2 note=74 velocity=15 time=0
EXTRACT: note_on channel=2 note=69 velocity=15 time=0
EXTRACT: note_on channel=2 note=62 velocity=15 time=0
EXTRACT: note_on channel=9 note=42 velocity=64 time=0
EXTRACT: note_off channel=6 note=81 velocity=64 time=0.111111
EXTRACT: note_on channel=6 note=76 velocity=61 time=0.0555555
EXTRACT: note_off channel=0 note=74 velocity=64 time=0.0555555
EXTRACT: note_off channel=0 note=69 velocity=64 time=0
EXTRACT: note_off channel=1 note=81 velocity=64 time=0
EXTRACT: note_off channel=1 note=90 velocity=64 time=0
EXTRACT: note_off channel=9 note=42 velocity=64 time=0
EXTRACT: note_off channel=6 note=76 velocity=64 time=0.0555555
EXTRACT: note_on channel=6 note=78 velocity=61 time=0.0555555
EXTRACT: note_on channel=0 note=74 velocity=67 time=0
EXTRACT: note_on channel=0 note=69 velocity=67 time=0
EXTRACT: note_on channel=1 note=90 velocity=37 time=0
EXTRACT: note_on channel=9 note=42 velocity=64 time=0
EXTRACT: note_off channel=6 note=78 velocity=64 time=0.222222
EXTRACT: note_off channel=0 note=74 velocity=64 time=0
EXTRACT: note_off channel=0 note=69 velocity=64 time=0
EXTRACT: note_off channel=1 note=90 velocity=64 time=0
EXTRACT: note_off channel=9 note=42 velocity=64 time=0
EXTRACT: note_on channel=0 note=74 velocity=67 time=0.111111
EXTRACT: note_on channel=0 note=69 velocity=67 time=0
EXTRACT: note_on channel=1 note=81 velocity=37 time=0
EXTRACT: note_on channel=9 note=42 velocity=64 time=0
EXTRACT: note_on channel=9 note=38 velocity=64 time=0.1666665
EXTRACT: note_off channel=0 note=74 velocity=64 time=0.0555555
EXTRACT: note_off channel=0 note=69 velocity=64 time=0
EXTRACT: note_off channel=1 note=81 velocity=64 time=0
EXTRACT: note_off channel=2 note=78 velocity=64 time=0
EXTRACT: note_off channel=2 note=74 velocity=64 time=0
EXTRACT: note_off channel=2 note=69 velocity=64 time=0
EXTRACT: note_off channel=2 note=62 velocity=64 time=0
EXTRACT: note_off channel=9 note=42 velocity=64 time=0
EXTRACT: note_off channel=9 note=38 velocity=64 time=0.0555555
EXTRACT: note_on channel=0 note=69 velocity=67 time=0.0555555
EXTRACT: note_on channel=0 note=74 velocity=67 time=0
EXTRACT: note_on channel=1 note=90 velocity=37 time=0
EXTRACT: note_on channel=9 note=42 velocity=64 time=0
EXTRACT: note_on channel=9 note=38 velocity=64 time=0
EXTRACT: note_off channel=1 note=90 velocity=64 time=0.222222
EXTRACT: note_off channel=9 note=42 velocity=64 time=0
EXTRACT: note_off channel=9 note=38 velocity=64 time=0
EXTRACT: note_on channel=1 note=81 velocity=37 time=0.111111
EXTRACT: note_off channel=3 note=38 velocity=64 time=0
EXTRACT: note_on channel=9 note=42 velocity=64 time=0
EXTRACT: note_on channel=9 note=38 velocity=64 time=0
EXTRACT: note_off channel=0 note=69 velocity=64 time=0.111111
EXTRACT: note_off channel=0 note=74 velocity=64 time=0
EXTRACT: note_off channel=1 note=81 velocity=64 time=0.111111
EXTRACT: note_off channel=9 note=42 velocity=64 time=0
EXTRACT: note_off channel=9 note=38 velocity=64 time=0
EXTRACT: note_on channel=0 note=74 velocity=67 time=0.111111
EXTRACT: note_on channel=0 note=69 velocity=67 time=0
EXTRACT: note_on channel=1 note=90 velocity=37 time=0
EXTRACT: note_on channel=3 note=38 velocity=64 time=0
EXTRACT: note_on channel=9 note=42 velocity=64 time=0
EXTRACT: note_on channel=9 note=38 velocity=64 time=0
EXTRACT: note_off channel=0 note=74 velocity=64 time=0.222222
EXTRACT: note_off channel=0 note=69 velocity=64 time=0
EXTRACT: note_off channel=1 note=90 velocity=64 time=0
EXTRACT: note_off channel=3 note=38 velocity=64 time=0
EXTRACT: note_off channel=9 note=42 velocity=64 time=0
EXTRACT: note_off channel=9 note=38 velocity=64 time=0
EXTRACT: note_on channel=0 note=52 velocity=49 time=0.111111
EXTRACT: note_on channel=1 note=52 velocity=37 time=0
EXTRACT: note_on channel=3 note=40 velocity=64 time=0
EXTRACT: note_on channel=2 note=79 velocity=29 time=0
EXTRACT: note_on channel=2 note=76 velocity=29 time=0
EXTRACT: note_on channel=2 note=71 velocity=29 time=0
EXTRACT: note_on channel=2 note=64 velocity=29 time=0
EXTRACT: note_on channel=9 note=42 velocity=64 time=0
EXTRACT: note_on channel=9 note=49 velocity=64 time=0
EXTRACT: note_off channel=0 note=52 velocity=64 time=0.222222
EXTRACT: note_off channel=1 note=52 velocity=64 time=0
EXTRACT: note_off channel=9 note=42 velocity=64 time=0
EXTRACT: note_off channel=9 note=49 velocity=64 time=0
EXTRACT: note_on channel=0 note=59 velocity=49 time=0.111111
EXTRACT: note_on channel=1 note=76 velocity=37 time=0
EXTRACT: note_on channel=1 note=71 velocity=37 time=0
EXTRACT: note_on channel=9 note=42 velocity=64 time=0
EXTRACT: note_off channel=0 note=59 velocity=64 time=0.222222
EXTRACT: note_off channel=9 note=42 velocity=64 time=0
EXTRACT: note_on channel=0 note=64 velocity=49 time=0.111111
EXTRACT: note_on channel=9 note=42 velocity=64 time=0
EXTRACT: note_off channel=1 note=76 velocity=64 time=0.111111
EXTRACT: note_off channel=1 note=71 velocity=64 time=0
EXTRACT: note_on channel=0 note=67 velocity=49 time=0.0555555
EXTRACT: note_off channel=0 note=64 velocity=64 time=0.0555555
EXTRACT: note_off channel=2 note=79 velocity=64 time=0
EXTRACT: note_off channel=2 note=76 velocity=64 time=0
EXTRACT: note_off channel=2 note=71 velocity=64 time=0
EXTRACT: note_off channel=2 note=64 velocity=64 time=0
EXTRACT: note_off channel=9 note=42 velocity=64 time=0
EXTRACT: note_off channel=0 note=67 velocity=64 time=0.0555555
EXTRACT: note_on channel=6 note=76 velocity=61 time=0.0555555
EXTRACT: note_on channel=0 note=68 velocity=49 time=0
EXTRACT: note_on channel=0 note=71 velocity=49 time=0
EXTRACT: note_on channel=1 note=56 velocity=37 time=0
EXTRACT: note_on channel=9 note=42 velocity=64 time=0
EXTRACT: note_on channel=9 note=38 velocity=64 time=0
EXTRACT: note_off channel=6 note=76 velocity=64 time=0.222222
EXTRACT: note_off channel=0 note=68 velocity=64 time=0
EXTRACT: note_off channel=0 note=71 velocity=64 time=0
EXTRACT: note_off channel=1 note=56 velocity=64 time=0
EXTRACT: note_off channel=9 note=42 velocity=64 time=0
EXTRACT: note_off channel=9 note=38 velocity=64 time=0
EXTRACT: note_on channel=6 note=76 velocity=61 time=0.111111
EXTRACT: note_on channel=0 note=64 velocity=49 time=0
EXTRACT: note_on channel=1 note=59 velocity=37 time=0
EXTRACT: note_on channel=1 note=64 velocity=37 time=0
EXTRACT: note_off channel=3 note=40 velocity=64 time=0
EXTRACT: note_on channel=9 note=42 velocity=64 time=0
EXTRACT: note_off channel=6 note=76 velocity=64 time=0.111111
EXTRACT: note_on channel=6 note=76 velocity=61 time=0.0555555
EXTRACT: note_on channel=1 note=54 velocity=37 time=0
EXTRACT: note_off channel=0 note=64 velocity=64 time=0.0555555
EXTRACT: note_off channel=1 note=59 velocity=64 time=0
EXTRACT: note_off channel=1 note=64 velocity=64 time=0
EXTRACT: note_off channel=9 note=42 velocity=64 time=0
EXTRACT: note_off channel=1 note=54 velocity=64 time=0.0555555
EXTRACT: note_on channel=0 note=59 velocity=49 time=0.0555555
EXTRACT: note_on channel=1 note=56 velocity=37 time=0
EXTRACT: note_on channel=3 note=40 velocity=64 time=0
EXTRACT: note_on channel=9 note=42 velocity=64 time=0
EXTRACT: note_off channel=6 note=76 velocity=64 time=0.1666665
EXTRACT: note_off channel=0 note=59 velocity=64 time=0.0555555
EXTRACT: note_off channel=1 note=56 velocity=64 time=0
EXTRACT: note_off channel=3 note=40 velocity=64 time=0
EXTRACT: note_off channel=9 note=42 velocity=64 time=0
EXTRACT: note_on channel=6 note=76 velocity=61 time=0.111111
EXTRACT: note_on channel=6 note=78 velocity=61 time=0
EXTRACT: note_on channel=0 note=54 velocity=49 time=0
EXTRACT: note_on channel=1 note=54 velocity=37 time=0
EXTRACT: note_on channel=3 note=42 velocity=64 time=0
EXTRACT: note_on channel=2 note=78 velocity=15 time=0
EXTRACT: note_on channel=2 note=73 velocity=15 time=0
EXTRACT: note_on channel=2 note=69 velocity=15 time=0
EXTRACT: note_on channel=2 note=66 velocity=29 time=0
EXTRACT: note_on channel=9 note=42 velocity=64 time=0
EXTRACT: note_off channel=6 note=76 velocity=64 time=0.111111
EXTRACT: note_off channel=6 note=78 velocity=64 time=0.111111
EXTRACT: note_off channel=0 note=54 velocity=64 time=0
EXTRACT: note_off channel=1 note=54 velocity=64 time=0
EXTRACT: note_off channel=9 note=42 velocity=64 time=0
EXTRACT: note_on channel=6 note=81 velocity=61 time=0.111111
EXTRACT: note_on channel=0 note=61 velocity=49 time=0
EXTRACT: note_on channel=1 note=64 velocity=37 time=0
EXTRACT: note_on channel=9 note=42 velocity=64 time=0
EXTRACT: note_off channel=1 note=64 velocity=64 time=0.111111
EXTRACT: note_on channel=1 note=66 velocity=37 time=0.0555555
EXTRACT: note_off channel=6 note=81 velocity=64 time=0.0555555
EXTRACT: note_off channel=0 note=61 velocity=64 time=0
EXTRACT: note_off channel=9 note=42 velocity=64 time=0
EXTRACT: note_off channel=1 note=66 velocity=64 time=0.0555555
EXTRACT: note_on channel=0 note=66 velocity=49 time=0.0555555
EXTRACT: note_on channel=1 note=69 velocity=37 time=0
EXTRACT: note_on channel=1 note=73 velocity=37 time=0
EXTRACT: note_on channel=9 note=42 velocity=64 time=0
EXTRACT: note_off channel=1 note=69 velocity=64 time=0.111111
EXTRACT: note_off channel=1 note=73 velocity=64 time=0
EXTRACT: note_on channel=0 note=71 velocity=49 time=0.0555555
EXTRACT: note_on channel=1 note=71 velocity=37 time=0
EXTRACT: note_on channel=1 note=75 velocity=37 time=0
EXTRACT: note_off channel=0 note=66 velocity=64 time=0.0555555
EXTRACT: note_off channel=2 note=78 velocity=64 time=0
EXTRACT: note_off channel=2 note=73 velocity=64 time=0
EXTRACT: note_off channel=2 note=69 velocity=64 time=0
EXTRACT: note_off channel=2 note=66 velocity=64 time=0
EXTRACT: note_off channel=9 note=42 velocity=64 time=0
EXTRACT: note_off channel=0 note=71 velocity=64 time=0.0555555
EXTRACT: note_off channel=1 note=71 velocity=64 time=0
EXTRACT: note_off channel=1 note=75 velocity=64 time=0
EXTRACT: note_on channel=0 note=73 velocity=49 time=0.0555555
EXTRACT: note_on channel=0 note=76 velocity=49 time=0
EXTRACT: note_on channel=1 note=76 velocity=37 time=0
EXTRACT: note_on channel=1 note=73 velocity=37 time=0
EXTRACT: note_on channel=9 note=42 velocity=64 time=0
EXTRACT: note_on channel=9 note=38 velocity=64 time=0
EXTRACT: note_off channel=0 note=73 velocity=64 time=0.222222
EXTRACT: note_off channel=0 note=76 velocity=64 time=0
EXTRACT: note_off channel=1 note=76 velocity=64 time=0
EXTRACT: note_off channel=1 note=73 velocity=64 time=0
EXTRACT: note_off channel=9 note=42 velocity=64 time=0
EXTRACT: note_off channel=9 note=38 velocity=64 time=0
EXTRACT: note_on channel=0 note=71 velocity=49 time=0.111111
EXTRACT: note_on channel=1 note=74 velocity=37 time=0
EXTRACT: note_on channel=1 note=71 velocity=37 time=0
EXTRACT: note_off channel=3 note=42 velocity=64 time=0
EXTRACT: note_on channel=9 note=42 velocity=64 time=0
EXTRACT: note_off channel=1 note=74 velocity=64 time=0.111111
EXTRACT: note_off channel=1 note=71 velocity=64 time=0
EXTRACT: note_on channel=1 note=73 velocity=37 time=0.0555555
EXTRACT: note_on channel=1 note=69 velocity=37 time=0
EXTRACT: note_off channel=0 note=71 velocity=64 time=0.0555555
EXTRACT: note_off channel=9 note=42 velocity=64 time=0
EXTRACT: note_off channel=1 note=73 velocity=64 time=0.0555555
EXTRACT: note_off channel=1 note=69 velocity=64 time=0
EXTRACT: note_on channel=6 note=78 velocity=61 time=0.0555555
EXTRACT: note_on channel=0 note=69 velocity=49 time=0
EXTRACT: note_on channel=1 note=66 velocity=37 time=0
EXTRACT: note_on channel=3 note=42 velocity=64 time=0
EXTRACT: note_on channel=9 note=42 velocity=64 time=0
EXTRACT: note_off channel=6 note=78 velocity=64 time=0.111111
EXTRACT: note_on channel=6 note=81 velocity=61 time=0.0555555
EXTRACT: note_off channel=0 note=69 velocity=64 time=0.0555555
EXTRACT: note_off channel=1 note=66 velocity=64 time=0
EXTRACT: note_off channel=3 note=42 velocity=64 time=0
EXTRACT: note_off channel=9 note=42 velocity=64 time=0
EXTRACT: note_off channel=6 note=81 velocity=64 time=0.0555555
EXTRACT: note_on channel=6 note=81 velocity=61 time=0.0555555
EXTRACT: note_on channel=6 note=83 velocity=61 time=0
EXTRACT: note_on channel=0 note=79 velocity=49 time=0
EXTRACT: note_on channel=0 note=74 velocity=49 time=0
EXTRACT: note_on channel=1 note=74 velocity=37 time=0
EXTRACT: note_on channel=1 note=67 velocity=37 time=0
EXTRACT: note_on channel=3 note=43 velocity=64 time=0
EXTRACT: note_on channel=2 note=79 velocity=29 time=0
EXTRACT: note_on channel=2 note=71 velocity=29 time=0
EXTRACT: note_on channel=2 note=67 velocity=29 time=0
EXTRACT: note_on channel=2 note=62 velocity=29 time=0
EXTRACT: note_on channel=9 note=42 velocity=64 time=0
EXTRACT: note_off channel=6 note=81 velocity=64 time=0.111111
EXTRACT: note_off channel=6 note=83 velocity=64 time=0.111111
EXTRACT: note_off channel=1 note=74 velocity=64 time=0
EXTRACT: note_off channel=1 note=67 velocity=64 time=0
EXTRACT: note_off channel=9 note=42 velocity=64 time=0
EXTRACT: note_on channel=6 note=81 velocity=61 time=0.111111
EXTRACT: note_on channel=1 note=74 velocity=37 time=0
EXTRACT: note_on channel=9 note=42 velocity=64 time=0
EXTRACT: note_off channel=6 note=81 velocity=64 time=0.222222
EXTRACT: note_off channel=1 note=74 velocity=64 time=0
EXTRACT: note_off channel=9 note=42 velocity=64 time=0
EXTRACT: note_off channel=0 note=79 velocity=64 time=0.111111
EXTRACT: note_off channel=0 note=74 velocity=64 time=0
EXTRACT: note_on channel=1 note=83 velocity=37 time=0
EXTRACT: note_on channel=9 note=42 velocity=64 time=0
EXTRACT: note_off channel=2 note=79 velocity=64 time=0.222222
EXTRACT: note_off channel=2 note=71 velocity=64 time=0
EXTRACT: note_off channel=2 note=67 velocity=64 time=0
EXTRACT: note_off channel=2 note=62 velocity=64 time=0
EXTRACT: note_off channel=9 note=42 velocity=64 time=0
EXTRACT: note_on channel=0 note=79 velocity=49 time=0.111111
EXTRACT: note_on channel=0 note=74 velocity=49 time=0
EXTRACT: note_on channel=9 note=42 velocity=64 time=0
EXTRACT: note_on channel=9 note=38 velocity=64 time=0
EXTRACT: note_off channel=1 note=83 velocity=64 time=0.111111
EXTRACT: note_off channel=0 note=79 velocity=64 time=0.111111
EXTRACT: note_off channel=0 note=74 velocity=64 time=0
EXTRACT: note_off channel=9 note=42 velocity=64 time=0
EXTRACT: note_off channel=9 note=38 velocity=64 time=0
EXTRACT: note_on channel=6 note=81 velocity=61 time=0.111111
EXTRACT: note_on channel=0 note=79 velocity=49 time=0
EXTRACT: note_on channel=0 note=74 velocity=49 time=0
EXTRACT: note_on channel=1 note=83 velocity=37 time=0
EXTRACT: note_off channel=3 note=43 velocity=64 time=0
EXTRACT: note_on channel=9 note=42 velocity=64 time=0
EXTRACT: note_off channel=6 note=81 velocity=64 time=0.222222
EXTRACT: note_off channel=0 note=79 velocity=64 time=0
EXTRACT: note_off channel=0 note=74 velocity=64 time=0
EXTRACT: note_off channel=1 note=83 velocity=64 time=0
EXTRACT: note_off channel=9 note=42 velocity=64 time=0
EXTRACT: note_on channel=6 note=81 velocity=61 time=0.111111
EXTRACT: note_on channel=0 note=79 velocity=49 time=0
EXTRACT: note_on channel=0 note=74 velocity=49 time=0
EXTRACT: note_on channel=1 note=74 velocity=37 time=0
EXTRACT: note_on channel=3 note=43 velocity=64 time=0
EXTRACT: note_on channel=9 note=42 velocity=64 time=0
EXTRACT: note_off channel=6 note=81 velocity=64 time=0.111111
EXTRACT: note_on channel=6 note=78 velocity=61 time=0.0555555
EXTRACT: note_off channel=0 note=79 velocity=64 time=0.0555555
EXTRACT: note_off channel=0 note=74 velocity=64 time=0
EXTRACT: note_off channel=1 note=74 velocity=64 time=0
EXTRACT: note_off channel=3 note=43 velocity=64 time=0
EXTRACT: note_off channel=9 note=42 velocity=64 time=0
EXTRACT: note_off channel=6 note=78 velocity=64 time=0.0555555
EXTRACT: note_on channel=6 note=81 velocity=61 time=0.0555555
EXTRACT: note_on channel=0 note=78 velocity=49 time=0
EXTRACT: note_on channel=1 note=81 velocity=37 time=0
EXTRACT: note_on channel=3 note=38 velocity=64 time=0
EXTRACT: note_on channel=2 note=78 velocity=29 time=0
EXTRACT: note_on channel=2 note=74 velocity=29 time=0
EXTRACT: note_on channel=2 note=69 velocity=29 time=0
EXTRACT: note_on channel=2 note=62 velocity=29 time=0
EXTRACT: note_on channel=9 note=42 velocity=64 time=0
EXTRACT: note_off channel=0 note=78 velocity=64 time=0.222222
EXTRACT: note_off channel=1 note=81 velocity=64 time=0
EXTRACT: note_off channel=9 note=42 velocity=64 time=0
EXTRACT: note_on channel=0 note=74 velocity=49 time=0.111111
EXTRACT: note_on channel=1 note=90 velocity=37 time=0
EXTRACT: note_on channel=9 note=42 velocity=64 time=0
EXTRACT: note_off channel=0 note=74 velocity=64 time=0.222222
EXTRACT: note_off channel=1 note=90 velocity=64 time=0
EXTRACT: note_off channel=9 note=42 velocity=64 time=0
EXTRACT: note_off channel=6 note=81 velocity=64 time=0.111111
EXTRACT: note_on channel=0 note=69 velocity=49 time=0
EXTRACT: note_on channel=1 note=81 velocity=37 time=0
EXTRACT: note_off channel=3 note=38 velocity=64 time=0
EXTRACT: note_off channel=2 note=78 velocity=64 time=0
EXTRACT: note_off channel=2 note=74 velocity=64 time=0
EXTRACT: note_off channel=2 note=69 velocity=64 time=0
EXTRACT: note_off channel=2 note=62 velocity=64 time=0
EXTRACT: note_on channel=9 note=42 velocity=64 time=0
EXTRACT: note_on channel=9 note=38 velocity=64 time=0.1666665
EXTRACT: note_off channel=0 note=69 velocity=64 time=0.0555555
EXTRACT: note_off channel=1 note=81 velocity=64 time=0
EXTRACT: note_off channel=9 note=42 velocity=64 time=0
EXTRACT: note_off channel=9 note=38 velocity=64 time=0.0555555
EXTRACT: note_on channel=0 note=80 velocity=49 time=0.0555555
EXTRACT: note_on channel=1 note=83 velocity=37 time=0
EXTRACT: note_on channel=3 note=40 velocity=64 time=0
EXTRACT: note_on channel=2 note=76 velocity=29 time=0
EXTRACT: note_on channel=2 note=64 velocity=29 time=0
EXTRACT: note_on channel=2 note=73 velocity=29 time=0
EXTRACT: note_on channel=2 note=69 velocity=29 time=0
EXTRACT: note_on channel=2 note=81 velocity=29 time=0
EXTRACT: note_on channel=9 note=42 velocity=64 time=0
EXTRACT: note_on channel=9 note=38 velocity=64 time=0
EXTRACT: note_off channel=0 note=80 velocity=64 time=0.222222
EXTRACT: note_off channel=1 note=83 velocity=64 time=0
EXTRACT: note_off channel=9 note=42 velocity=64 time=0
EXTRACT: note_off channel=9 note=38 velocity=64 time=0
EXTRACT: note_on channel=6 note=78 velocity=61 time=0.111111
EXTRACT: note_on channel=0 note=76 velocity=49 time=0
EXTRACT: note_on channel=1 note=92 velocity=37 time=0
EXTRACT: note_on channel=9 note=42 velocity=64 time=0
EXTRACT: note_on channel=9 note=38 velocity=64 time=0
EXTRACT: note_off channel=6 note=78 velocity=64 time=0.222222
EXTRACT: note_off channel=0 note=76 velocity=64 time=0
EXTRACT: note_off channel=1 note=92 velocity=64 time=0
EXTRACT: note_off channel=9 note=42 velocity=64 time=0
EXTRACT: note_off channel=9 note=38 velocity=64 time=0
EXTRACT: note_on channel=6 note=81 velocity=61 time=0.111111
EXTRACT: note_on channel=0 note=71 velocity=49 time=0
EXTRACT: note_on channel=1 note=88 velocity=37 time=0
EXTRACT: note_off channel=3 note=40 velocity=64 time=0
EXTRACT: note_off channel=2 note=76 velocity=64 time=0
EXTRACT: note_off channel=2 note=64 velocity=64 time=0
EXTRACT: note_off channel=2 note=73 velocity=64 time=0
EXTRACT: note_off channel=2 note=69 velocity=64 time=0
EXTRACT: note_off channel=2 note=81 velocity=64 time=0
EXTRACT: note_on channel=9 note=42 velocity=64 time=0
EXTRACT: note_on channel=9 note=38 velocity=64 time=0
EXTRACT: note_off channel=6 note=81 velocity=64 time=0.222222
EXTRACT: note_off channel=0 note=71 velocity=64 time=0
EXTRACT: note_off channel=1 note=88 velocity=64 time=0
EXTRACT: note_off channel=9 note=42 velocity=64 time=0
EXTRACT: note_off channel=9 note=38 velocity=64 time=0
EXTRACT: note_on channel=6 note=86 velocity=61 time=0.111111
EXTRACT: note_on channel=6 note=83 velocity=61 time=0
EXTRACT: note_on channel=0 note=57 velocity=41 time=0
EXTRACT: note_on channel=3 note=45 velocity=64 time=0
EXTRACT: note_on channel=2 note=76 velocity=15 time=0
EXTRACT: note_on channel=2 note=73 velocity=15 time=0
EXTRACT: note_on channel=2 note=69 velocity=15 time=0
EXTRACT: note_on channel=2 note=64 velocity=15 time=0
EXTRACT: note_on channel=9 note=42 velocity=64 time=0
EXTRACT: note_on channel=9 note=49 velocity=64 time=0
EXTRACT: note_on channel=7 note=88 velocity=0 time=0
EXTRACT: note_on channel=7 note=85 velocity=0 time=0
EXTRACT: note_off channel=0 note=57 velocity=64 time=0.222222
EXTRACT: note_off channel=9 note=42 velocity=64 time=0
EXTRACT: note_off channel=9 note=49 velocity=64 time=0
EXTRACT: note_on channel=0 note=64 velocity=41 time=0.111111
EXTRACT: note_on channel=9 note=42 velocity=64 time=0
EXTRACT: note_off channel=6 note=86 velocity=64 time=0.111111
EXTRACT: note_off channel=6 note=83 velocity=64 time=0
EXTRACT: note_off channel=0 note=64 velocity=64 time=0.111111
EXTRACT: note_off channel=9 note=42 velocity=64 time=0
EXTRACT: note_on channel=6 note=81 velocity=61 time=0.111111
EXTRACT: note_on channel=6 note=85 velocity=61 time=0
EXTRACT: note_on channel=0 note=69 velocity=41 time=0
EXTRACT: note_on channel=9 note=42 velocity=64 time=0
EXTRACT: note_off channel=7 note=88 velocity=64 time=0
EXTRACT: note_off channel=7 note=85 velocity=64 time=0
EXTRACT: note_on channel=0 note=71 velocity=41 time=0.1666665
EXTRACT: note_off channel=0 note=69 velocity=64 time=0.0555555
EXTRACT: note_off channel=2 note=76 velocity=64 time=0
EXTRACT: note_off channel=2 note=73 velocity=64 time=0
EXTRACT: note_off channel=2 note=69 velocity=64 time=0
EXTRACT: note_off channel=2 note=64 velocity=64 time=0
EXTRACT: note_off channel=9 note=42 velocity=64 time=0
EXTRACT: note_off channel=0 note=71 velocity=64 time=0.0555555
EXTRACT: note_on channel=0 note=73 velocity=41 time=0.0555555
EXTRACT: note_on channel=0 note=76 velocity=41 time=0
EXTRACT: note_on channel=1 note=73 velocity=37 time=0
EXTRACT: note_on channel=1 note=76 velocity=37 time=0
EXTRACT: note_on channel=1 note=81 velocity=37 time=0
EXTRACT: note_on channel=9 note=42 velocity=64 time=0
EXTRACT: note_on channel=9 note=38 velocity=64 time=0
EXTRACT: note_on channel=7 note=93 velocity=0 time=0
EXTRACT: note_on channel=7 note=88 velocity=0 time=0
EXTRACT: note_off channel=6 note=81 velocity=64 time=0.111111
EXTRACT: note_off channel=6 note=85 velocity=64 time=0
EXTRACT: note_off channel=0 note=73 velocity=64 time=0.111111
EXTRACT: note_off channel=0 note=76 velocity=64 time=0
EXTRACT: note_off channel=9 note=42 velocity=64 time=0
EXTRACT: note_off channel=9 note=38 velocity=64 time=0
EXTRACT: note_off channel=7 note=93 velocity=64 time=0
EXTRACT: note_off channel=7 note=88 velocity=64 time=0
EXTRACT: note_on channel=0 note=71 velocity=41 time=0.111111
EXTRACT: note_on channel=9 note=42 velocity=64 time=0
EXTRACT: note_off channel=0 note=71 velocity=64 time=0.222222
EXTRACT: note_off channel=3 note=45 velocity=64 time=0
EXTRACT: note_off channel=9 note=42 velocity=64 time=0
EXTRACT: note_on channel=0 note=69 velocity=41 time=0.111111
EXTRACT: note_off channel=1 note=73 velocity=64 time=0
EXTRACT: note_off channel=1 note=76 velocity=64 time=0
EXTRACT: note_off channel=1 note=81 velocity=64 time=0
EXTRACT: note_on channel=3 note=45 velocity=64 time=0
EXTRACT: note_on channel=9 note=42 velocity=64 time=0
EXTRACT: note_off channel=0 note=69 velocity=64 time=0.222222
EXTRACT: note_off channel=3 note=45 velocity=64 time=0
EXTRACT: note_off channel=9 note=42 velocity=64 time=0
EXTRACT: note_on channel=6 note=80 velocity=61 time=0.111111
EXTRACT: note_on channel=6 note=83 velocity=61 time=0
EXTRACT: note_on channel=0 note=57 velocity=41 time=0
EXTRACT: note_on channel=3 note=42 velocity=64 time=0
EXTRACT: note_on channel=2 note=78 velocity=15 time=0
EXTRACT: note_on channel=2 note=73 velocity=15 time=0
EXTRACT: note_on channel=2 note=69 velocity=15 time=0
EXTRACT: note_on channel=9 note=42 velocity=64 time=0
EXTRACT: note_off channel=0 note=57 velocity=64 time=0.222222
EXTRACT: note_off channel=9 note=42 velocity=64 time=0
EXTRACT: note_on channel=0 note=61 velocity=41 time=0.111111
EXTRACT: note_on channel=9 note=42 velocity=64 time=0
EXTRACT: note_off channel=6 note=80 velocity=64 time=0.111111
EXTRACT: note_off channel=6 note=83 velocity=64 time=0
EXTRACT: note_off channel=0 note=61 velocity=64 time=0.111111
EXTRACT: note_off channel=9 note=42 velocity=64 time=0
EXTRACT: note_on channel=6 note=78 velocity=61 time=0.111111
EXTRACT: note_on channel=6 note=81 velocity=61 time=0
EXTRACT: note_on channel=0 note=66 velocity=41 time=0
EXTRACT: note_on channel=9 note=42 velocity=64 time=0
EXTRACT: note_on channel=0 note=71 velocity=41 time=0.1666665
EXTRACT: note_off channel=0 note=66 velocity=64 time=0.0555555
EXTRACT: note_off channel=2 note=78 velocity=64 time=0
EXTRACT: note_off channel=2 note=73 velocity=64 time=0
EXTRACT: note_off channel=2 note=69 velocity=64 time=0
EXTRACT: note_off channel=9 note=42 velocity=64 time=0
EXTRACT: note_off channel=0 note=71 velocity=64 time=0.0555555
EXTRACT: note_on channel=0 note=76 velocity=41 time=0.0555555
EXTRACT: note_on channel=0 note=73 velocity=41 time=0
EXTRACT: note_on channel=1 note=69 velocity=37 time=0
EXTRACT: note_on channel=9 note=42 velocity=64 time=0
EXTRACT: note_on channel=9 note=38 velocity=64 time=0
EXTRACT: note_off channel=6 note=78 velocity=64 time=0.111111
EXTRACT: note_off channel=6 note=81 velocity=64 time=0
EXTRACT: note_off channel=0 note=76 velocity=64 time=0.111111
EXTRACT: note_off channel=0 note=73 velocity=64 time=0
EXTRACT: note_off channel=9 note=42 velocity=64 time=0
EXTRACT: note_off channel=9 note=38 velocity=64 time=0
EXTRACT: note_on channel=0 note=71 velocity=41 time=0.111111
EXTRACT: note_on channel=1 note=73 velocity=37 time=0
EXTRACT: note_off channel=3 note=42 velocity=64 time=0
EXTRACT: note_on channel=9 note=42 velocity=64 time=0
EXTRACT: note_on channel=7 note=78 velocity=0 time=0
EXTRACT: note_on channel=7 note=73 velocity=0 time=0
EXTRACT: note_on channel=7 note=69 velocity=0 time=0
EXTRACT: note_off channel=0 note=71 velocity=64 time=0.222222
EXTRACT: note_off channel=9 note=42 velocity=64 time=0
EXTRACT: note_off channel=7 note=78 velocity=64 time=0
EXTRACT: note_off channel=7 note=73 velocity=64 time=0
EXTRACT: note_off channel=7 note=69 velocity=64 time=0
EXTRACT: note_on channel=0 note=69 velocity=41 time=0.111111
EXTRACT: note_on channel=1 note=78 velocity=37 time=0
EXTRACT: note_on channel=3 note=42 velocity=64 time=0
EXTRACT: note_on channel=9 note=42 velocity=64 time=0
EXTRACT: note_off channel=0 note=69 velocity=64 time=0.222222
EXTRACT: note_off channel=1 note=69 velocity=64 time=0
EXTRACT: note_off channel=1 note=73 velocity=64 time=0
EXTRACT: note_off channel=1 note=78 velocity=64 time=0
EXTRACT: note_off channel=3 note=42 velocity=64 time=0
EXTRACT: note_off channel=9 note=42 velocity=64 time=0
EXTRACT: note_on channel=6 note=76 velocity=61 time=0.111111
EXTRACT: note_on channel=6 note=80 velocity=61 time=0
EXTRACT: note_on channel=0 note=62 velocity=41 time=0
EXTRACT: note_on channel=1 note=62 velocity=37 time=0
EXTRACT: note_on channel=3 note=38 velocity=64 time=0
EXTRACT: note_on channel=2 note=78 velocity=15 time=0
EXTRACT: note_on channel=2 note=74 velocity=15 time=0
EXTRACT: note_on channel=2 note=69 velocity=15 time=0
EXTRACT: note_on channel=2 note=62 velocity=15 time=0
EXTRACT: note_on channel=9 note=42 velocity=64 time=0
EXTRACT: note_off channel=6 note=76 velocity=64 time=0.222222
EXTRACT: note_off channel=6 note=80 velocity=64 time=0
EXTRACT: note_off channel=0 note=62 velocity=64 time=0
EXTRACT: note_off channel=9 note=42 velocity=64 time=0
EXTRACT: note_on channel=6 note=78 velocity=61 time=0.111111
EXTRACT: note_on channel=6 note=74 velocity=61 time=0
EXTRACT: note_on channel=0 note=69 velocity=41 time=0
EXTRACT: note_on channel=9 note=42 velocity=64 time=0
EXTRACT: note_off channel=0 note=69 velocity=64 time=0.222222
EXTRACT: note_off channel=9 note=42 velocity=64 time=0
EXTRACT: note_on channel=0 note=74 velocity=41 time=0.111111
EXTRACT: note_on channel=9 note=42 velocity=64 time=0
EXTRACT: note_off channel=6 note=78 velocity=64 time=0.111111
EXTRACT: note_off channel=6 note=74 velocity=64 time=0
EXTRACT: note_off channel=1 note=62 velocity=64 time=0
EXTRACT: note_on channel=0 note=76 velocity=41 time=0.0555555
EXTRACT: note_on channel=1 note=62 velocity=37 time=0
EXTRACT: note_off channel=0 note=74 velocity=64 time=0.0555555
EXTRACT: note_off channel=2 note=78 velocity=64 time=0
EXTRACT: note_off channel=2 note=74 velocity=64 time=0
EXTRACT: note_off channel=2 note=69 velocity=64 time=0
EXTRACT: note_off channel=2 note=62 velocity=64 time=0
EXTRACT: note_off channel=9 note=42 velocity=64 time=0
EXTRACT: note_off channel=0 note=76 velocity=64 time=0.0555555
EXTRACT: note_off channel=1 note=62 velocity=64 time=0
EXTRACT: note_on channel=0 note=78 velocity=41 time=0.0555555
EXTRACT: note_on channel=1 note=74 velocity=37 time=0
EXTRACT: note_on channel=9 note=42 velocity=64 time=0
EXTRACT: note_on channel=9 note=38 velocity=64 time=0
EXTRACT: note_on channel=7 note=74 velocity=0 time=0
EXTRACT: note_on channel=7 note=62 velocity=0 time=0
EXTRACT: note_on channel=7 note=69 velocity=0 time=0
EXTRACT: note_off channel=0 note=78 velocity=64 time=0.222222
EXTRACT: note_off channel=1 note=74 velocity=64 time=0
EXTRACT: note_off channel=9 note=42 velocity=64 time=0
EXTRACT: note_off channel=9 note=38 velocity=64 time=0
EXTRACT: note_on channel=6 note=76 velocity=61 time=0.111111
EXTRACT: note_on channel=6 note=80 velocity=61 time=0
EXTRACT: note_on channel=0 note=76 velocity=41 time=0
EXTRACT: note_on channel=1 note=69 velocity=37 time=0
EXTRACT: note_off channel=3 note=38 velocity=64 time=0
EXTRACT: note_on channel=9 note=42 velocity=64 time=0
EXTRACT: note_off channel=7 note=74 velocity=64 time=0.111111
EXTRACT: note_off channel=7 note=62 velocity=64 time=0
EXTRACT: note_off channel=7 note=69 velocity=64 time=0
EXTRACT: note_off channel=6 note=76 velocity=64 time=0.111111
EXTRACT: note_off channel=6 note=80 velocity=64 time=0
EXTRACT: note_off channel=0 note=76 velocity=64 time=0
EXTRACT: note_off channel=1 note=69 velocity=64 time=0
EXTRACT: note_off channel=9 note=42 velocity=64 time=0
EXTRACT: note_on channel=6 note=74 velocity=61 time=0.111111
EXTRACT: note_on channel=6 note=78 velocity=61 time=0
EXTRACT: note_on channel=0 note=69 velocity=41 time=0
EXTRACT: note_on channel=1 note=66 velocity=37 time=0
EXTRACT: note_on channel=3 note=38 velocity=64 time=0
EXTRACT: note_on channel=9 note=42 velocity=64 time=0
EXTRACT: note_off channel=6 note=74 velocity=64 time=0.222222
EXTRACT: note_off channel=6 note=78 velocity=64 time=0
EXTRACT: note_off channel=0 note=69 velocity=64 time=0
EXTRACT: note_off channel=1 note=66 velocity=64 time=0
EXTRACT: note_off channel=3 note=38 velocity=64 time=0
EXTRACT: note_off channel=9 note=42 velocity=64 time=0
EXTRACT: note_on channel=6 note=77 velocity=61 time=0.111111
EXTRACT: note_on channel=6 note=73 velocity=61 time=0
EXTRACT: note_on channel=0 note=62 velocity=41 time=0
EXTRACT: note_on channel=1 note=77 velocity=37 time=0
EXTRACT: note_on channel=1 note=81 velocity=37 time=0
EXTRACT: note_on channel=1 note=74 velocity=37 time=0
EXTRACT: note_on channel=3 note=38 velocity=64 time=0
EXTRACT: note_on channel=2 note=77 velocity=15 time=0
EXTRACT: note_on channel=2 note=74 velocity=15 time=0
EXTRACT: note_on channel=2 note=69 velocity=15 time=0
EXTRACT: note_on channel=2 note=62 velocity=15 time=0
EXTRACT: note_on channel=9 note=42 velocity=64 time=0
EXTRACT: note_off channel=6 note=73 velocity=64 time=0.222222
EXTRACT: note_off channel=0 note=62 velocity=64 time=0
EXTRACT: note_off channel=9 note=42 velocity=64 time=0
EXTRACT: note_on channel=6 note=74 velocity=61 time=0.111111
EXTRACT: note_on channel=0 note=69 velocity=41 time=0
EXTRACT: note_on channel=9 note=42 velocity=64 time=0
EXTRACT: note_off channel=6 note=74 velocity=64 time=0.111111
EXTRACT: note_on channel=6 note=73 velocity=61 time=0.0555555
EXTRACT: note_off channel=0 note=69 velocity=64 time=0.0555555
EXTRACT: note_off channel=9 note=42 velocity=64 time=0
EXTRACT: note_off channel=6 note=77 velocity=64 time=0.111111
EXTRACT: note_on channel=0 note=74 velocity=41 time=0
EXTRACT: note_off channel=1 note=77 velocity=64 time=0
EXTRACT: note_off channel=1 note=81 velocity=64 time=0
EXTRACT: note_off channel=1 note=74 velocity=64 time=0
EXTRACT: note_on channel=9 note=42 velocity=64 time=0
EXTRACT: note_off channel=6 note=73 velocity=64 time=0.0555555
EXTRACT: note_on channel=6 note=73 velocity=61 time=0.111111
EXTRACT: note_on channel=0 note=76 velocity=41 time=0
EXTRACT: note_on channel=9 note=38 velocity=64 time=0
EXTRACT: note_off channel=0 note=74 velocity=64 time=0.0555555
EXTRACT: note_off channel=2 note=62 velocity=64 time=0
EXTRACT: note_off channel=9 note=42 velocity=64 time=0
EXTRACT: note_off channel=6 note=73 velocity=64 time=0.0555555
EXTRACT: note_off channel=0 note=76 velocity=64 time=0
EXTRACT: note_off channel=9 note=38 velocity=64 time=0
EXTRACT: note_on channel=6 note=77 velocity=61 time=0.0555555
EXTRACT: note_on channel=6 note=71 velocity=61 time=0
EXTRACT: note_on channel=0 note=77 velocity=41 time=0
EXTRACT: note_on channel=1 note=81 velocity=37 time=0
EXTRACT: note_on channel=1 note=77 velocity=37 time=0
EXTRACT: note_on channel=1 note=74 velocity=37 time=0
EXTRACT: note_on channel=9 note=42 velocity=64 time=0
EXTRACT: note_on channel=9 note=38 velocity=64 time=0
EXTRACT: note_on channel=7 note=77 velocity=0 time=0
EXTRACT: note_on channel=7 note=86 velocity=0 time=0
EXTRACT: note_on channel=7 note=81 velocity=0 time=0
EXTRACT: note_off channel=2 note=77 velocity=64 time=0.111111
EXTRACT: note_off channel=2 note=74 velocity=64 time=0
EXTRACT: note_off channel=2 note=69 velocity=64 time=0
EXTRACT: note_off channel=6 note=71 velocity=64 time=0.111111
EXTRACT: note_off channel=0 note=77 velocity=64 time=0
EXTRACT: note_off channel=9 note=42 velocity=64 time=0
EXTRACT: note_off channel=9 note=38 velocity=64 time=0
EXTRACT: note_on channel=6 note=69 velocity=61 time=0.111111
EXTRACT: note_on channel=0 note=76 velocity=41 time=0
EXTRACT: note_off channel=3 note=38 velocity=64 time=0
EXTRACT: note_on channel=9 note=42 velocity=64 time=0
EXTRACT: note_on channel=9 note=38 velocity=64 time=0
EXTRACT: note_off channel=6 note=69 velocity=64 time=0.222222
EXTRACT: note_off channel=0 note=76 velocity=64 time=0
EXTRACT: note_off channel=9 note=42 velocity=64 time=0
EXTRACT: note_off channel=9 note=38 velocity=64 time=0
EXTRACT: note_off channel=6 note=77 velocity=64 time=0.111111
EXTRACT: note_on channel=0 note=74 velocity=41 time=0
EXTRACT: note_off channel=1 note=81 velocity=64 time=0
EXTRACT: note_off channel=1 note=77 velocity=64 time=0
EXTRACT: note_off channel=1 note=74 velocity=64 time=0
EXTRACT: note_on channel=3 note=38 velocity=64 time=0
EXTRACT: note_on channel=9 note=42 velocity=64 time=0
EXTRACT: note_on channel=9 note=38 velocity=64 time=0
EXTRACT: note_off channel=7 note=81 velocity=64 time=0
EXTRACT: note_off channel=0 note=74 velocity=64 time=0.222222
EXTRACT: note_off channel=3 note=38 velocity=64 time=0
EXTRACT: note_off channel=9 note=42 velocity=64 time=0
EXTRACT: note_off channel=9 note=38 velocity=64 time=0
EXTRACT: note_off channel=7 note=77 velocity=64 time=0
EXTRACT: note_off channel=7 note=86 velocity=64 time=0
EXTRACT: note_on channel=0 note=57 velocity=41 time=0.111111
EXTRACT: note_on channel=3 note=45 velocity=64 time=0
EXTRACT: note_on channel=2 note=76 velocity=15 time=0
EXTRACT: note_on channel=2 note=73 velocity=15 time=0
EXTRACT: note_on channel=2 note=69 velocity=15 time=0
EXTRACT: note_on channel=2 note=64 velocity=15 time=0
EXTRACT: note_on channel=9 note=42 velocity=64 time=0
EXTRACT: note_on channel=9 note=49 velocity=64 time=0
EXTRACT: note_off channel=0 note=57 velocity=64 time=0.222222
EXTRACT: note_off channel=9 note=42 velocity=64 time=0
EXTRACT: note_off channel=9 note=49 velocity=64 time=0
EXTRACT: note_on channel=0 note=64 velocity=41 time=0.111111
EXTRACT: note_on channel=9 note=42 velocity=64 time=0
EXTRACT: note_off channel=0 note=64 velocity=64 time=0.222222
EXTRACT: note_off channel=9 note=42 velocity=64 time=0
EXTRACT: note_on channel=0 note=69 velocity=41 time=0.111111
EXTRACT: note_on channel=9 note=42 velocity=64 time=0
EXTRACT: note_on channel=0 note=71 velocity=41 time=0.1666665
EXTRACT: note_off channel=0 note=69 velocity=64 time=0.0555555
EXTRACT: note_off channel=2 note=76 velocity=64 time=0
EXTRACT: note_off channel=2 note=73 velocity=64 time=0
EXTRACT: note_off channel=2 note=69 velocity=64 time=0
EXTRACT: note_off channel=2 note=64 velocity=64 time=0
EXTRACT: note_off channel=9 note=42 velocity=64 time=0
EXTRACT: note_off channel=0 note=71 velocity=64 time=0.0555555
EXTRACT: note_on channel=6 note=73 velocity=61 time=0.0555555
EXTRACT: note_on channel=0 note=73 velocity=41 time=0
EXTRACT: note_on channel=0 note=76 velocity=41 time=0
EXTRACT: note_on channel=1 note=81 velocity=37 time=0
EXTRACT: note_on channel=9 note=42 velocity=64 time=0
EXTRACT: note_on channel=9 note=38 velocity=64 time=0
EXTRACT: note_on channel=7 note=81 velocity=0 time=0
EXTRACT: note_on channel=7 note=76 velocity=0 time=0
EXTRACT: note_on channel=7 note=73 velocity=0 time=0
EXTRACT: note_off channel=6 note=73 velocity=64 time=0.222222
EXTRACT: note_off channel=0 note=73 velocity=64 time=0
EXTRACT: note_off channel=0 note=76 velocity=64 time=0
EXTRACT: note_off channel=9 note=42 velocity=64 time=0
EXTRACT: note_off channel=9 note=38 velocity=64 time=0
EXTRACT: note_off channel=7 note=81 velocity=64 time=0
EXTRACT: note_off channel=7 note=76 velocity=64 time=0
EXTRACT: note_off channel=7 note=73 velocity=64 time=0
EXTRACT: note_on channel=6 note=76 velocity=61 time=0.111111
EXTRACT: note_on channel=0 note=71 velocity=41 time=0
EXTRACT: note_on channel=9 note=42 velocity=64 time=0
EXTRACT: note_off channel=6 note=76 velocity=64 time=0.222222
EXTRACT: note_off channel=0 note=71 velocity=64 time=0
EXTRACT: note_off channel=3 note=45 velocity=64 time=0
EXTRACT: note_off channel=9 note=42 velocity=64 time=0
EXTRACT: note_on channel=6 note=80 velocity=61 time=0.111111
EXTRACT: note_on channel=0 note=69 velocity=41 time=0
EXTRACT: note_off channel=1 note=81 velocity=64 time=0
EXTRACT: note_on channel=3 note=45 velocity=64 time=0
EXTRACT: note_on channel=9 note=42 velocity=64 time=0
EXTRACT: note_off channel=6 note=80 velocity=64 time=0.222222
EXTRACT: note_off channel=0 note=69 velocity=64 time=0
EXTRACT: note_off channel=3 note=45 velocity=64 time=0
EXTRACT: note_off channel=9 note=42 velocity=64 time=0
EXTRACT: note_on channel=6 note=80 velocity=61 time=0.111111
EXTRACT: note_on channel=6 note=81 velocity=61 time=0
EXTRACT: note_on channel=0 note=57 velocity=41 time=0
EXTRACT: note_on channel=3 note=42 velocity=64 time=0
EXTRACT: note_on channel=2 note=78 velocity=15 time=0
EXTRACT: note_on channel=2 note=73 velocity=15 time=0
EXTRACT: note_on channel=2 note=69 velocity=15 time=0
EXTRACT: note_on channel=9 note=42 velocity=64 time=0
EXTRACT: note_off channel=6 note=80 velocity=64 time=0.111111
EXTRACT: note_off channel=0 note=57 velocity=64 time=0.111111
EXTRACT: note_off channel=9 note=42 velocity=64 time=0
EXTRACT: note_on channel=0 note=61 velocity=41 time=0.111111
EXTRACT: note_on channel=9 note=42 velocity=64 time=0
EXTRACT: note_off channel=0 note=61 velocity=64 time=0.222222
EXTRACT: note_off channel=9 note=42 velocity=64 time=0
EXTRACT: note_off channel=6 note=81 velocity=64 time=0.111111
EXTRACT: note_on channel=0 note=66 velocity=41 time=0
EXTRACT: note_on channel=9 note=42 velocity=64 time=0
EXTRACT: note_on channel=0 note=71 velocity=41 time=0.1666665
EXTRACT: note_off channel=0 note=66 velocity=64 time=0.0555555
EXTRACT: note_off channel=2 note=78 velocity=64 time=0
EXTRACT: note_off channel=2 note=73 velocity=64 time=0
EXTRACT: note_off channel=2 note=69 velocity=64 time=0
EXTRACT: note_off channel=9 note=42 velocity=64 time=0
EXTRACT: note_off channel=0 note=71 velocity=64 time=0.0555555
EXTRACT: note_on channel=0 note=76 velocity=41 time=0.0555555
EXTRACT: note_on channel=0 note=73 velocity=41 time=0
EXTRACT: note_on channel=1 note=69 velocity=37 time=0
EXTRACT: note_on channel=9 note=42 velocity=64 time=0
EXTRACT: note_on channel=9 note=38 velocity=64 time=0
EXTRACT: note_on channel=7 note=78 velocity=0 time=0
EXTRACT: note_on channel=7 note=73 velocity=0 time=0
EXTRACT: note_on channel=7 note=69 velocity=0 time=0
EXTRACT: note_off channel=0 note=76 velocity=64 time=0.222222
EXTRACT: note_off channel=0 note=73 velocity=64 time=0
EXTRACT: note_off channel=9 note=42 velocity=64 time=0
EXTRACT: note_off channel=9 note=38 velocity=64 time=0
EXTRACT: note_off channel=7 note=78 velocity=64 time=0
EXTRACT: note_off channel=7 note=73 velocity=64 time=0
EXTRACT: note_off channel=7 note=69 velocity=64 time=0
EXTRACT: note_on channel=6 note=78 velocity=61 time=0.111111
EXTRACT: note_on channel=0 note=71 velocity=41 time=0
EXTRACT: note_on channel=1 note=73 velocity=37 time=0
EXTRACT: note_off channel=3 note=42 velocity=64 time=0
EXTRACT: note_on channel=9 note=42 velocity=64 time=0
EXTRACT: note_off channel=6 note=78 velocity=64 time=0.222222
EXTRACT: note_off channel=0 note=71 velocity=64 time=0
EXTRACT: note_off channel=9 note=42 velocity=64 time=0
EXTRACT: note_on channel=6 note=81 velocity=61 time=0.111111
EXTRACT: note_on channel=0 note=69 velocity=41 time=0
EXTRACT: note_off channel=1 note=69 velocity=64 time=0
EXTRACT: note_on channel=1 note=78 velocity=37 time=0
EXTRACT: note_on channel=3 note=42 velocity=64 time=0
EXTRACT: note_on channel=9 note=42 velocity=64 time=0
EXTRACT: note_off channel=1 note=73 velocity=64 time=0.111111
EXTRACT: note_off channel=6 note=81 velocity=64 time=0.111111
EXTRACT: note_off channel=0 note=69 velocity=64 time=0
EXTRACT: note_off channel=1 note=78 velocity=64 time=0
EXTRACT: note_off channel=3 note=42 velocity=64 time=0
EXTRACT: note_off channel=9 note=42 velocity=64 time=0
EXTRACT: note_on channel=6 note=81 velocity=61 time=0.111111
EXTRACT: note_on channel=6 note=83 velocity=61 time=0
EXTRACT: note_on channel=0 note=62 velocity=67 time=0
EXTRACT: note_on channel=1 note=62 velocity=37 time=0
EXTRACT: note_on channel=3 note=38 velocity=64 time=0
EXTRACT: note_on channel=2 note=78 velocity=15 time=0
EXTRACT: note_on channel=2 note=74 velocity=15 time=0
EXTRACT: note_on channel=2 note=69 velocity=15 time=0
EXTRACT: note_on channel=2 note=62 velocity=15 time=0
EXTRACT: note_on channel=9 note=42 velocity=64 time=0
EXTRACT: note_off channel=6 note=81 velocity=64 time=0.111111
EXTRACT: note_off channel=9 note=42 velocity=64 time=0.111111
EXTRACT: note_off channel=6 note=83 velocity=64 time=0.111111
EXTRACT: note_on channel=9 note=42 velocity=64 time=0
EXTRACT: note_on channel=6 note=81 velocity=61 time=0.1666665
EXTRACT: note_off channel=9 note=42 velocity=64 time=0.0555555
EXTRACT: note_off channel=6 note=81 velocity=64 time=0.111111
EXTRACT: note_off channel=1 note=62 velocity=64 time=0
EXTRACT: note_on channel=9 note=42 velocity=64 time=0
EXTRACT: note_off channel=2 note=78 velocity=64 time=0.222222
EXTRACT: note_off channel=2 note=74 velocity=64 time=0
EXTRACT: note_off channel=2 note=69 velocity=64 time=0
EXTRACT: note_off channel=2 note=62 velocity=64 time=0
EXTRACT: note_off channel=9 note=42 velocity=64 time=0
EXTRACT: note_on channel=1 note=62 velocity=37 time=0.111111
EXTRACT: note_on channel=9 note=42 velocity=64 time=0
EXTRACT: note_on channel=9 note=38 velocity=64 time=0
EXTRACT: note_on channel=7 note=74 velocity=0 time=0
EXTRACT: note_on channel=7 note=69 velocity=0 time=0
EXTRACT: note_on channel=7 note=62 velocity=0 time=0
EXTRACT: note_off channel=9 note=42 velocity=64 time=0.222222
EXTRACT: note_off channel=9 note=38 velocity=64 time=0
EXTRACT: note_off channel=7 note=74 velocity=64 time=0
EXTRACT: note_off channel=7 note=69 velocity=64 time=0
EXTRACT: note_off channel=7 note=62 velocity=64 time=0
EXTRACT: note_on channel=6 note=81 velocity=61 time=0.111111
EXTRACT: note_off channel=0 note=62 velocity=64 time=0
EXTRACT: note_off channel=3 note=38 velocity=64 time=0
EXTRACT: note_on channel=9 note=42 velocity=64 time=0
EXTRACT: note_off channel=6 note=81 velocity=64 time=0.222222
EXTRACT: note_off channel=9 note=42 velocity=64 time=0
EXTRACT: note_on channel=6 note=83 velocity=61 time=0.111111
EXTRACT: note_off channel=1 note=62 velocity=64 time=0
EXTRACT: note_on channel=3 note=38 velocity=64 time=0
EXTRACT: note_on channel=9 note=42 velocity=64 time=0
EXTRACT: note_off channel=6 note=83 velocity=64 time=0.222222
EXTRACT: note_off channel=3 note=38 velocity=64 time=0
EXTRACT: note_off channel=9 note=42 velocity=64 time=0
EXTRACT: note_on channel=6 note=83 velocity=61 time=0.111111
EXTRACT: note_on channel=6 note=85 velocity=61 time=0
EXTRACT: note_on channel=0 note=64 velocity=67 time=0
EXTRACT: note_on channel=1 note=76 velocity=37 time=0
EXTRACT: note_on channel=1 note=71 velocity=37 time=0
EXTRACT: note_on channel=1 note=64 velocity=37 time=0
EXTRACT: note_on channel=3 note=45 velocity=64 time=0
EXTRACT: note_on channel=2 note=76 velocity=15 time=0
EXTRACT: note_on channel=2 note=73 velocity=15 time=0
EXTRACT: note_on channel=2 note=69 velocity=15 time=0
EXTRACT: note_on channel=2 note=64 velocity=15 time=0
EXTRACT: note_on channel=9 note=42 velocity=64 time=0
EXTRACT: note_off channel=6 note=83 velocity=64 time=0.111111
EXTRACT: note_off channel=1 note=76 velocity=64 time=0.111111
EXTRACT: note_off channel=1 note=71 velocity=64 time=0
EXTRACT: note_off channel=1 note=64 velocity=64 time=0
EXTRACT: note_off channel=9 note=42 velocity=64 time=0
EXTRACT: note_on channel=1 note=76 velocity=37 time=0.111111
EXTRACT: note_on channel=1 note=71 velocity=37 time=0
EXTRACT: note_on channel=1 note=64 velocity=37 time=0
EXTRACT: note_on channel=9 note=42 velocity=64 time=0
EXTRACT: note_on channel=7 note=76 velocity=0 time=0
EXTRACT: note_on channel=7 note=71 velocity=0 time=0
EXTRACT: note_on channel=7 note=64 velocity=0 time=0
EXTRACT: note_off channel=6 note=85 velocity=64 time=0.111111
EXTRACT: note_off channel=1 note=76 velocity=64 time=0.111111
EXTRACT: note_off channel=1 note=71 velocity=64 time=0
EXTRACT: note_off channel=1 note=64 velocity=64 time=0
EXTRACT: note_off channel=9 note=42 velocity=64 time=0
EXTRACT: note_off channel=7 note=76 velocity=64 time=0
EXTRACT: note_off channel=7 note=71 velocity=64 time=0
EXTRACT: note_off channel=7 note=64 velocity=64 time=0
EXTRACT: note_on channel=6 note=86 velocity=61 time=0.111111
EXTRACT: note_on channel=1 note=76 velocity=37 time=0
EXTRACT: note_on channel=1 note=71 velocity=37 time=0
EXTRACT: note_on channel=1 note=64 velocity=37 time=0
EXTRACT: note_on channel=9 note=42 velocity=64 time=0
EXTRACT: note_on channel=7 note=76 velocity=0 time=0
EXTRACT: note_on channel=7 note=71 velocity=0 time=0
EXTRACT: note_on channel=7 note=64 velocity=0 time=0
EXTRACT: note_off channel=6 note=86 velocity=64 time=0.111111
EXTRACT: note_on channel=6 note=85 velocity=61 time=0.0555555
EXTRACT: note_on channel=9 note=38 velocity=64 time=0
EXTRACT: note_off channel=1 note=76 velocity=64 time=0.0555555
EXTRACT: note_off channel=1 note=71 velocity=64 time=0
EXTRACT: note_off channel=1 note=64 velocity=64 time=0
EXTRACT: note_off channel=2 note=76 velocity=64 time=0
EXTRACT: note_off channel=2 note=73 velocity=64 time=0
EXTRACT: note_off channel=2 note=69 velocity=64 time=0
EXTRACT: note_off channel=2 note=64 velocity=64 time=0
EXTRACT: note_off channel=9 note=42 velocity=64 time=0
EXTRACT: note_off channel=7 note=76 velocity=64 time=0
EXTRACT: note_off channel=7 note=71 velocity=64 time=0
EXTRACT: note_off channel=7 note=64 velocity=64 time=0
EXTRACT: note_off channel=6 note=85 velocity=64 time=0.0555555
EXTRACT: note_off channel=9 note=38 velocity=64 time=0
EXTRACT: note_on channel=6 note=83 velocity=61 time=0.0555555
EXTRACT: note_on channel=1 note=76 velocity=37 time=0
EXTRACT: note_on channel=1 note=71 velocity=37 time=0
EXTRACT: note_on channel=1 note=64 velocity=37 time=0
EXTRACT: note_on channel=9 note=42 velocity=64 time=0
EXTRACT: note_on channel=9 note=38 velocity=64 time=0
EXTRACT: note_on channel=7 note=76 velocity=0 time=0
EXTRACT: note_on channel=7 note=71 velocity=0 time=0
EXTRACT: note_on channel=7 note=64 velocity=0 time=0
EXTRACT: note_off channel=1 note=76 velocity=64 time=0.222222
EXTRACT: note_off channel=1 note=71 velocity=64 time=0
EXTRACT: note_off channel=1 note=64 velocity=64 time=0
EXTRACT: note_off channel=9 note=42 velocity=64 time=0
EXTRACT: note_off channel=9 note=38 velocity=64 time=0
EXTRACT: note_off channel=7 note=76 velocity=64 time=0
EXTRACT: note_off channel=7 note=71 velocity=64 time=0
EXTRACT: note_off channel=7 note=64 velocity=64 time=0
EXTRACT: note_off channel=0 note=64 velocity=64 time=0.111111
EXTRACT: note_on channel=1 note=76 velocity=37 time=0
EXTRACT: note_on channel=1 note=71 velocity=37 time=0
EXTRACT: note_on channel=1 note=64 velocity=37 time=0
EXTRACT: note_on channel=9 note=42 velocity=64 time=0
EXTRACT: note_on channel=9 note=38 velocity=64 time=0
EXTRACT: note_on channel=7 note=76 velocity=0 time=0
EXTRACT: note_on channel=7 note=71 velocity=0 time=0
EXTRACT: note_on channel=7 note=64 velocity=0 time=0
EXTRACT: note_off channel=1 note=76 velocity=64 time=0.222222
EXTRACT: note_off channel=1 note=71 velocity=64 time=0
EXTRACT: note_off channel=1 note=64 velocity=64 time=0
EXTRACT: note_off channel=3 note=45 velocity=64 time=0
EXTRACT: note_off channel=9 note=42 velocity=64 time=0
EXTRACT: note_off channel=9 note=38 velocity=64 time=0
EXTRACT: note_off channel=7 note=76 velocity=64 time=0
EXTRACT: note_off channel=7 note=71 velocity=64 time=0
EXTRACT: note_off channel=7 note=64 velocity=64 time=0
EXTRACT: note_off channel=6 note=83 velocity=64 time=0.111111
EXTRACT: note_on channel=6 note=81 velocity=61 time=0
EXTRACT: note_on channel=1 note=76 velocity=37 time=0
EXTRACT: note_on channel=1 note=71 velocity=37 time=0
EXTRACT: note_on channel=1 note=64 velocity=37 time=0
EXTRACT: note_on channel=3 note=45 velocity=64 time=0
EXTRACT: note_on channel=9 note=42 velocity=64 time=0
EXTRACT: note_on channel=9 note=38 velocity=64 time=0
EXTRACT: note_on channel=7 note=76 velocity=0 time=0
EXTRACT: note_on channel=7 note=71 velocity=0 time=0
EXTRACT: note_on channel=7 note=64 velocity=0 time=0
EXTRACT: note_off channel=6 note=81 velocity=64 time=0.222222
EXTRACT: note_off channel=1 note=76 velocity=64 time=0
EXTRACT: note_off channel=1 note=71 velocity=64 time=0
EXTRACT: note_off channel=1 note=64 velocity=64 time=0
EXTRACT: note_off channel=3 note=45 velocity=64 time=0
EXTRACT: note_off channel=9 note=42 velocity=64 time=0
EXTRACT: note_off channel=9 note=38 velocity=64 time=0
EXTRACT: note_off channel=7 note=76 velocity=64 time=0
EXTRACT: note_off channel=7 note=71 velocity=64 time=0
EXTRACT: note_off channel=7 note=64 velocity=64 time=0
EXTRACT: note_on channel=6 note=83 velocity=61 time=0.111111
EXTRACT: note_on channel=6 note=86 velocity=61 time=0
EXTRACT: note_on channel=6 note=85 velocity=61 time=0
EXTRACT: note_on channel=6 note=81 velocity=61 time=0
EXTRACT: note_on channel=3 note=45 velocity=64 time=0
EXTRACT: note_on channel=2 note=76 velocity=15 time=0
EXTRACT: note_on channel=2 note=73 velocity=15 time=0
EXTRACT: note_on channel=2 note=69 velocity=15 time=0
EXTRACT: note_on channel=2 note=64 velocity=15 time=0
EXTRACT: note_on channel=9 note=42 velocity=64 time=0
EXTRACT: note_on channel=9 note=49 velocity=64 time=0
EXTRACT: note_off channel=6 note=85 velocity=64 time=0.111111
EXTRACT: note_off channel=6 note=81 velocity=64 time=0
EXTRACT: note_off channel=9 note=42 velocity=64 time=0.111111
EXTRACT: note_off channel=9 note=49 velocity=64 time=0
EXTRACT: note_on channel=9 note=42 velocity=64 time=0.111111
EXTRACT: note_off channel=6 note=83 velocity=64 time=0.111111
EXTRACT: note_off channel=6 note=86 velocity=64 time=0
EXTRACT: note_off channel=9 note=42 velocity=64 time=0.111111
EXTRACT: note_on channel=6 note=81 velocity=61 time=0.111111
EXTRACT: note_on channel=6 note=85 velocity=61 time=0
EXTRACT: note_on channel=9 note=42 velocity=64 time=0
EXTRACT: note_off channel=2 note=76 velocity=64 time=0.222222
EXTRACT: note_off channel=2 note=73 velocity=64 time=0
EXTRACT: note_off channel=2 note=69 velocity=64 time=0
EXTRACT: note_off channel=2 note=64 velocity=64 time=0
EXTRACT: note_off channel=9 note=42 velocity=64 time=0
EXTRACT: note_on channel=0 note=81 velocity=49 time=0.111111
EXTRACT: note_on channel=0 note=76 velocity=49 time=0
EXTRACT: note_on channel=0 note=73 velocity=49 time=0
EXTRACT: note_on channel=1 note=81 velocity=37 time=0
EXTRACT: note_on channel=1 note=76 velocity=37 time=0
EXTRACT: note_on channel=1 note=73 velocity=37 time=0
EXTRACT: note_on channel=9 note=42 velocity=64 time=0
EXTRACT: note_on channel=9 note=38 velocity=64 time=0
EXTRACT: note_on channel=7 note=81 velocity=0 time=0
EXTRACT: note_on channel=7 note=76 velocity=0 time=0
EXTRACT: note_on channel=7 note=73 velocity=0 time=0
EXTRACT: note_off channel=6 note=81 velocity=64 time=0.111111
EXTRACT: note_off channel=6 note=85 velocity=64 time=0
EXTRACT: note_off channel=1 note=81 velocity=64 time=0.111111
EXTRACT: note_off channel=1 note=76 velocity=64 time=0
EXTRACT: note_off channel=1 note=73 velocity=64 time=0
EXTRACT: note_off channel=9 note=42 velocity=64 time=0
EXTRACT: note_off channel=9 note=38 velocity=64 time=0
EXTRACT: note_off channel=7 note=81 velocity=64 time=0
EXTRACT: note_off channel=7 note=76 velocity=64 time=0
EXTRACT: note_off channel=7 note=73 velocity=64 time=0
EXTRACT: note_on channel=9 note=42 velocity=64 time=0.111111
EXTRACT: note_off channel=3 note=45 velocity=64 time=0.222222
EXTRACT: note_off channel=9 note=42 velocity=64 time=0
EXTRACT: note_off channel=0 note=81 velocity=64 time=0.111111
EXTRACT: note_off channel=0 note=76 velocity=64 time=0
EXTRACT: note_off channel=0 note=73 velocity=64 time=0
EXTRACT: note_on channel=3 note=45 velocity=64 time=0
EXTRACT: note_on channel=9 note=42 velocity=64 time=0
EXTRACT: note_off channel=3 note=45 velocity=64 time=0.222222
EXTRACT: note_off channel=9 note=42 velocity=64 time=0
EXTRACT: note_on channel=6 note=78 velocity=61 time=0.111111
EXTRACT: note_on channel=6 note=81 velocity=61 time=0
EXTRACT: note_on channel=6 note=80 velocity=61 time=0
EXTRACT: note_on channel=6 note=83 velocity=61 time=0
EXTRACT: note_on channel=3 note=42 velocity=64 time=0
EXTRACT: note_on channel=2 note=78 velocity=15 time=0
EXTRACT: note_on channel=2 note=73 velocity=15 time=0
EXTRACT: note_on channel=2 note=69 velocity=15 time=0
EXTRACT: note_on channel=9 note=42 velocity=64 time=0
EXTRACT: note_off channel=6 note=78 velocity=64 time=0.111111
EXTRACT: note_off channel=6 note=81 velocity=64 time=0
EXTRACT: note_off channel=9 note=42 velocity=64 time=0.111111
EXTRACT: note_on channel=9 note=42 velocity=64 time=0.111111
EXTRACT: note_off channel=6 note=80 velocity=64 time=0.111111
EXTRACT: note_off channel=6 note=83 velocity=64 time=0
EXTRACT: note_off channel=9 note=42 velocity=64 time=0.111111
EXTRACT: note_on channel=6 note=78 velocity=61 time=0.111111
EXTRACT: note_on channel=6 note=81 velocity=61 time=0
EXTRACT: note_on channel=9 note=42 velocity=64 time=0
EXTRACT: note_off channel=2 note=78 velocity=64 time=0.222222
EXTRACT: note_off channel=2 note=73 velocity=64 time=0
EXTRACT: note_off channel=2 note=69 velocity=64 time=0
EXTRACT: note_off channel=9 note=42 velocity=64 time=0
EXTRACT: note_on channel=0 note=78 velocity=49 time=0.111111
EXTRACT: note_on channel=0 note=73 velocity=49 time=0
EXTRACT: note_on channel=0 note=69 velocity=49 time=0
EXTRACT: note_on channel=1 note=78 velocity=37 time=0
EXTRACT: note_on channel=1 note=73 velocity=37 time=0
EXTRACT: note_on channel=1 note=69 velocity=37 time=0
EXTRACT: note_on channel=9 note=42 velocity=64 time=0
EXTRACT: note_on channel=9 note=38 velocity=64 time=0
EXTRACT: note_off channel=6 note=78 velocity=64 time=0.111111
EXTRACT: note_off channel=6 note=81 velocity=64 time=0
EXTRACT: note_off channel=1 note=78 velocity=64 time=0.111111
EXTRACT: note_off channel=1 note=73 velocity=64 time=0
EXTRACT: note_off channel=1 note=69 velocity=64 time=0
EXTRACT: note_off channel=9 note=42 velocity=64 time=0
EXTRACT: note_off channel=9 note=38 velocity=64 time=0
EXTRACT: note_off channel=3 note=42 velocity=64 time=0.111111
EXTRACT: note_on channel=9 note=42 velocity=64 time=0
EXTRACT: note_on channel=7 note=78 velocity=0 time=0
EXTRACT: note_on channel=7 note=73 velocity=0 time=0
EXTRACT: note_on channel=7 note=69 velocity=0 time=0
EXTRACT: note_off channel=9 note=42 velocity=64 time=0.222222
EXTRACT: note_off channel=7 note=78 velocity=64 time=0
EXTRACT: note_off channel=7 note=73 velocity=64 time=0
EXTRACT: note_off channel=7 note=69 velocity=64 time=0
EXTRACT: note_off channel=0 note=78 velocity=64 time=0.111111
EXTRACT: note_off channel=0 note=73 velocity=64 time=0
EXTRACT: note_off channel=0 note=69 velocity=64 time=0
EXTRACT: note_on channel=3 note=42 velocity=64 time=0
EXTRACT: note_on channel=9 note=42 velocity=64 time=0
EXTRACT: note_off channel=3 note=42 velocity=64 time=0.222222
EXTRACT: note_off channel=9 note=42 velocity=64 time=0
EXTRACT: note_on channel=6 note=76 velocity=61 time=0.111111
EXTRACT: note_on channel=6 note=80 velocity=61 time=0
EXTRACT: note_on channel=3 note=38 velocity=64 time=0
EXTRACT: note_on channel=2 note=78 velocity=15 time=0
EXTRACT: note_on channel=2 note=74 velocity=15 time=0
EXTRACT: note_on channel=2 note=69 velocity=15 time=0
EXTRACT: note_on channel=2 note=62 velocity=15 time=0
EXTRACT: note_on channel=9 note=42 velocity=64 time=0
EXTRACT: note_off channel=6 note=76 velocity=64 time=0.222222
EXTRACT: note_off channel=6 note=80 velocity=64 time=0
EXTRACT: note_off channel=9 note=42 velocity=64 time=0
EXTRACT: note_on channel=6 note=78 velocity=61 time=0.111111
EXTRACT: note_on channel=6 note=74 velocity=61 time=0
EXTRACT: note_on channel=9 note=42 velocity=64 time=0
EXTRACT: note_off channel=9 note=42 velocity=64 time=0.222222
EXTRACT: note_on channel=9 note=42 velocity=64 time=0.111111
EXTRACT: note_off channel=6 note=78 velocity=64 time=0.111111
EXTRACT: note_off channel=6 note=74 velocity=64 time=0
EXTRACT: note_off channel=2 note=78 velocity=64 time=0.111111
EXTRACT: note_off channel=2 note=74 velocity=64 time=0
EXTRACT: note_off channel=2 note=69 velocity=64 time=0
EXTRACT: note_off channel=2 note=62 velocity=64 time=0
EXTRACT: note_off channel=9 note=42 velocity=64 time=0
EXTRACT: note_on channel=0 note=62 velocity=49 time=0.111111
EXTRACT: note_on channel=1 note=74 velocity=37 time=0
EXTRACT: note_on channel=1 note=69 velocity=37 time=0
EXTRACT: note_on channel=1 note=62 velocity=37 time=0
EXTRACT: note_on channel=9 note=42 velocity=64 time=0
EXTRACT: note_on channel=9 note=38 velocity=64 time=0
EXTRACT: note_on channel=7 note=74 velocity=0 time=0
EXTRACT: note_on channel=7 note=69 velocity=0 time=0
EXTRACT: note_on channel=7 note=62 velocity=0 time=0
EXTRACT: note_off channel=0 note=62 velocity=64 time=0.222222
EXTRACT: note_off channel=1 note=74 velocity=64 time=0
EXTRACT: note_off channel=1 note=69 velocity=64 time=0
EXTRACT: note_off channel=1 note=62 velocity=64 time=0
EXTRACT: note_off channel=9 note=42 velocity=64 time=0
EXTRACT: note_off channel=9 note=38 velocity=64 time=0
EXTRACT: note_off channel=7 note=74 velocity=64 time=0
EXTRACT: note_off channel=7 note=69 velocity=64 time=0
EXTRACT: note_off channel=7 note=62 velocity=64 time=0
EXTRACT: note_on channel=6 note=78 velocity=61 time=0.111111
EXTRACT: note_on channel=6 note=74 velocity=61 time=0
EXTRACT: note_on channel=6 note=80 velocity=61 time=0
EXTRACT: note_on channel=6 note=76 velocity=61 time=0
EXTRACT: note_on channel=0 note=62 velocity=49 time=0
EXTRACT: note_off channel=3 note=38 velocity=64 time=0
EXTRACT: note_on channel=9 note=42 velocity=64 time=0
EXTRACT: note_off channel=6 note=78 velocity=64 time=0.111111
EXTRACT: note_off channel=6 note=74 velocity=64 time=0
EXTRACT: note_off channel=0 note=62 velocity=64 time=0
EXTRACT: note_on channel=0 note=62 velocity=49 time=0.0555555
EXTRACT: note_off channel=6 note=80 velocity=64 time=0.0555555
EXTRACT: note_off channel=6 note=76 velocity=64 time=0
EXTRACT: note_off channel=9 note=42 velocity=64 time=0
EXTRACT: note_off channel=0 note=62 velocity=64 time=0.0555555
EXTRACT: note_on channel=6 note=74 velocity=61 time=0.0555555
EXTRACT: note_on channel=6 note=78 velocity=61 time=0
EXTRACT: note_on channel=0 note=62 velocity=49 time=0
EXTRACT: note_on channel=3 note=38 velocity=64 time=0
EXTRACT: note_on channel=9 note=42 velocity=64 time=0
EXTRACT: note_off channel=0 note=62 velocity=64 time=0.111111
EXTRACT: note_on channel=0 note=74 velocity=49 time=0.0555555
EXTRACT: note_on channel=0 note=78 velocity=49 time=0
EXTRACT: note_off channel=6 note=74 velocity=64 time=0.0555555
EXTRACT: note_off channel=6 note=78 velocity=64 time=0
EXTRACT: note_off channel=3 note=38 velocity=64 time=0
EXTRACT: note_off channel=9 note=42 velocity=64 time=0
EXTRACT: note_off channel=0 note=74 velocity=64 time=0.0555555
EXTRACT: note_off channel=0 note=78 velocity=64 time=0
EXTRACT: note_on channel=6 note=73 velocity=61 time=0.0555555
EXTRACT: note_on channel=6 note=77 velocity=61 time=0
EXTRACT: note_on channel=0 note=77 velocity=49 time=0
EXTRACT: note_on channel=0 note=81 velocity=49 time=0
EXTRACT: note_on channel=0 note=62 velocity=49 time=0
EXTRACT: note_on channel=3 note=38 velocity=64 time=0
EXTRACT: note_on channel=2 note=77 velocity=15 time=0
EXTRACT: note_on channel=2 note=74 velocity=15 time=0
EXTRACT: note_on channel=2 note=69 velocity=15 time=0
EXTRACT: note_on channel=2 note=62 velocity=15 time=0
EXTRACT: note_on channel=9 note=42 velocity=64 time=0
EXTRACT: note_off channel=9 note=42 velocity=64 time=0.222222
EXTRACT: note_off channel=6 note=73 velocity=64 time=0.111111
EXTRACT: note_on channel=9 note=42 velocity=64 time=0
EXTRACT: note_on channel=6 note=74 velocity=61 time=0.1666665
EXTRACT: note_off channel=9 note=42 velocity=64 time=0.0555555
EXTRACT: note_off channel=6 note=74 velocity=64 time=0.0555555
EXTRACT: note_off channel=6 note=77 velocity=64 time=0.0555555
EXTRACT: note_on channel=6 note=73 velocity=61 time=0
EXTRACT: note_off channel=0 note=77 velocity=64 time=0
EXTRACT: note_off channel=0 note=81 velocity=64 time=0
EXTRACT: note_off channel=0 note=62 velocity=64 time=0
EXTRACT: note_on channel=9 note=42 velocity=64 time=0
EXTRACT: note_on channel=9 note=38 velocity=64 time=0.1666665
EXTRACT: note_off channel=6 note=73 velocity=64 time=0.0555555
EXTRACT: note_off channel=2 note=62 velocity=64 time=0
EXTRACT: note_off channel=9 note=42 velocity=64 time=0
EXTRACT: note_off channel=9 note=38 velocity=64 time=0.0555555
EXTRACT: note_on channel=6 note=71 velocity=61 time=0.0555555
EXTRACT: note_on channel=6 note=77 velocity=61 time=0
EXTRACT: note_on channel=0 note=86 velocity=49 time=0
EXTRACT: note_on channel=1 note=74 velocity=37 time=0
EXTRACT: note_on channel=1 note=77 velocity=37 time=0
EXTRACT: note_on channel=1 note=81 velocity=37 time=0
EXTRACT: note_on channel=9 note=42 velocity=64 time=0
EXTRACT: note_on channel=9 note=38 velocity=64 time=0
EXTRACT: note_on channel=7 note=77 velocity=0 time=0
EXTRACT: note_on channel=7 note=74 velocity=0 time=0
EXTRACT: note_on channel=7 note=81 velocity=0 time=0
EXTRACT: note_off channel=2 note=77 velocity=64 time=0.111111
EXTRACT: note_off channel=2 note=74 velocity=64 time=0
EXTRACT: note_off channel=2 note=69 velocity=64 time=0
EXTRACT: note_off channel=6 note=71 velocity=64 time=0.111111
EXTRACT: note_off channel=0 note=86 velocity=64 time=0
EXTRACT: note_off channel=1 note=74 velocity=64 time=0
EXTRACT: note_off channel=1 note=77 velocity=64 time=0
EXTRACT: note_off channel=1 note=81 velocity=64 time=0
EXTRACT: note_off channel=9 note=42 velocity=64 time=0
EXTRACT: note_off channel=9 note=38 velocity=64 time=0
EXTRACT: note_off channel=7 note=77 velocity=64 time=0
EXTRACT: note_off channel=7 note=74 velocity=64 time=0
EXTRACT: note_off channel=7 note=81 velocity=64 time=0
EXTRACT: note_on channel=6 note=69 velocity=61 time=0.111111
EXTRACT: note_on channel=0 note=81 velocity=49 time=0
EXTRACT: note_off channel=3 note=38 velocity=64 time=0
EXTRACT: note_on channel=9 note=42 velocity=64 time=0
EXTRACT: note_on channel=9 note=38 velocity=64 time=0
EXTRACT: note_off channel=6 note=69 velocity=64 time=0.222222
EXTRACT: note_off channel=0 note=81 velocity=64 time=0
EXTRACT: note_off channel=9 note=42 velocity=64 time=0
EXTRACT: note_off channel=9 note=38 velocity=64 time=0
EXTRACT: note_off channel=6 note=77 velocity=64 time=0.111111
EXTRACT: note_on channel=0 note=77 velocity=49 time=0
EXTRACT: note_on channel=3 note=38 velocity=64 time=0
EXTRACT: note_on channel=9 note=42 velocity=64 time=0
EXTRACT: note_on channel=9 note=38 velocity=64 time=0
EXTRACT: note_off channel=0 note=77 velocity=64 time=0.222222
EXTRACT: note_off channel=3 note=38 velocity=64 time=0
EXTRACT: note_off channel=9 note=42 velocity=64 time=0
EXTRACT: note_off channel=9 note=38 velocity=64 time=0
EXTRACT: note_on channel=0 note=59 velocity=67 time=0.111111
EXTRACT: note_on channel=3 note=47 velocity=64 time=0
EXTRACT: note_on channel=2 note=78 velocity=29 time=0
EXTRACT: note_on channel=2 note=74 velocity=29 time=0
EXTRACT: note_on channel=2 note=71 velocity=29 time=0
EXTRACT: note_on channel=9 note=42 velocity=64 time=0
EXTRACT: note_off channel=0 note=59 velocity=64 time=0.222222
EXTRACT: note_off channel=9 note=42 velocity=64 time=0
EXTRACT: note_on channel=0 note=66 velocity=67 time=0.111111
EXTRACT: note_on channel=9 note=42 velocity=64 time=0
EXTRACT: note_off channel=0 note=66 velocity=64 time=0.222222
EXTRACT: note_off channel=9 note=42 velocity=64 time=0
EXTRACT: note_on channel=0 note=71 velocity=67 time=0.111111
EXTRACT: note_on channel=9 note=42 velocity=64 time=0
EXTRACT: note_off channel=0 note=71 velocity=64 time=0.222222
EXTRACT: note_off channel=2 note=78 velocity=64 time=0
EXTRACT: note_off channel=2 note=74 velocity=64 time=0
EXTRACT: note_off channel=2 note=71 velocity=64 time=0
EXTRACT: note_off channel=9 note=42 velocity=64 time=0
EXTRACT: note_on channel=6 note=78 velocity=61 time=0.111111
EXTRACT: note_on channel=0 note=74 velocity=67 time=0
EXTRACT: note_on channel=1 note=71 velocity=37 time=0
EXTRACT: note_on channel=1 note=66 velocity=37 time=0
EXTRACT: note_on channel=1 note=59 velocity=37 time=0
EXTRACT: note_on channel=9 note=42 velocity=64 time=0
EXTRACT: note_on channel=9 note=38 velocity=64 time=0
EXTRACT: note_on channel=7 note=78 velocity=0 time=0
EXTRACT: note_on channel=7 note=74 velocity=0 time=0
EXTRACT: note_on channel=7 note=83 velocity=0 time=0
EXTRACT: note_off channel=6 note=78 velocity=64 time=0.222222
EXTRACT: note_off channel=0 note=74 velocity=64 time=0
EXTRACT: note_off channel=9 note=42 velocity=64 time=0
EXTRACT: note_off channel=9 note=38 velocity=64 time=0
EXTRACT: note_on channel=6 note=81 velocity=61 time=0.111111
EXTRACT: note_on channel=0 note=71 velocity=67 time=0
EXTRACT: note_off channel=3 note=47 velocity=64 time=0
EXTRACT: note_on channel=9 note=42 velocity=64 time=0
EXTRACT: note_off channel=6 note=81 velocity=64 time=0.111111
EXTRACT: note_on channel=6 note=81 velocity=61 time=0.0555555
EXTRACT: note_off channel=0 note=71 velocity=64 time=0.0555555
EXTRACT: note_off channel=9 note=42 velocity=64 time=0
EXTRACT: note_on channel=0 note=66 velocity=67 time=0.111111
EXTRACT: note_off channel=1 note=71 velocity=64 time=0
EXTRACT: note_off channel=1 note=66 velocity=64 time=0
EXTRACT: note_off channel=1 note=59 velocity=64 time=0
EXTRACT: note_on channel=3 note=47 velocity=64 time=0
EXTRACT: note_on channel=9 note=42 velocity=64 time=0
EXTRACT: note_off channel=7 note=78 velocity=64 time=0
EXTRACT: note_off channel=7 note=74 velocity=64 time=0
EXTRACT: note_off channel=7 note=83 velocity=64 time=0
EXTRACT: note_off channel=6 note=81 velocity=64 time=0.1666665
EXTRACT: note_off channel=0 note=66 velocity=64 time=0.0555555
EXTRACT: note_off channel=3 note=47 velocity=64 time=0
EXTRACT: note_off channel=9 note=42 velocity=64 time=0
EXTRACT: note_on channel=6 note=80 velocity=61 time=0.111111
EXTRACT: note_on channel=0 note=52 velocity=67 time=0
EXTRACT: note_on channel=1 note=64 velocity=37 time=0
EXTRACT: note_on channel=1 note=71 velocity=37 time=0
EXTRACT: note_on channel=1 note=76 velocity=37 time=0
EXTRACT: note_on channel=3 note=40 velocity=64 time=0
EXTRACT: note_on channel=2 note=80 velocity=29 time=0
EXTRACT: note_on channel=2 note=76 velocity=29 time=0
EXTRACT: note_on channel=2 note=64 velocity=29 time=0
EXTRACT: note_on channel=2 note=71 velocity=29 time=0
EXTRACT: note_on channel=9 note=42 velocity=64 time=0
EXTRACT: note_off channel=6 note=80 velocity=64 time=0.1666665
EXTRACT: note_on channel=6 note=78 velocity=61 time=0
EXTRACT: note_off channel=0 note=52 velocity=64 time=0.0555555
EXTRACT: note_off channel=9 note=42 velocity=64 time=0
EXTRACT: note_off channel=6 note=78 velocity=64 time=0.111111
EXTRACT: note_on channel=6 note=76 velocity=61 time=0
EXTRACT: note_on channel=0 note=59 velocity=67 time=0
EXTRACT: note_on channel=9 note=42 velocity=64 time=0
EXTRACT: note_off channel=6 note=76 velocity=64 time=0.222222
EXTRACT: note_off channel=0 note=59 velocity=64 time=0
EXTRACT: note_off channel=9 note=42 velocity=64 time=0
EXTRACT: note_on channel=0 note=64 velocity=67 time=0.111111
EXTRACT: note_on channel=9 note=42 velocity=64 time=0
EXTRACT: note_on channel=0 note=67 velocity=67 time=0.1666665
EXTRACT: note_on channel=7 note=66 velocity=0 time=0
EXTRACT: note_off channel=0 note=64 velocity=64 time=0.0555555
EXTRACT: note_off channel=2 note=80 velocity=64 time=0
EXTRACT: note_off channel=2 note=76 velocity=64 time=0
EXTRACT: note_off channel=2 note=64 velocity=64 time=0
EXTRACT: note_off channel=2 note=71 velocity=64 time=0
EXTRACT: note_off channel=9 note=42 velocity=64 time=0
EXTRACT: note_off channel=0 note=67 velocity=64 time=0.0555555
EXTRACT: note_off channel=7 note=66 velocity=64 time=0
EXTRACT: note_on channel=0 note=68 velocity=67 time=0.0555555
EXTRACT: note_on channel=0 note=71 velocity=67 time=0
EXTRACT: note_on channel=9 note=38 velocity=64 time=0
EXTRACT: note_on channel=9 note=42 velocity=64 time=0
EXTRACT: note_on channel=7 note=76 velocity=0 time=0
EXTRACT: note_on channel=7 note=71 velocity=0 time=0
EXTRACT: note_on channel=7 note=68 velocity=0 time=0
EXTRACT: note_off channel=0 note=68 velocity=64 time=0.222222
EXTRACT: note_off channel=0 note=71 velocity=64 time=0
EXTRACT: note_off channel=9 note=38 velocity=64 time=0
EXTRACT: note_off channel=9 note=42 velocity=64 time=0
EXTRACT: note_on channel=6 note=85 velocity=61 time=0.111111
EXTRACT: note_on channel=0 note=64 velocity=67 time=0
EXTRACT: note_off channel=1 note=64 velocity=64 time=0
EXTRACT: note_off channel=1 note=71 velocity=64 time=0
EXTRACT: note_off channel=1 note=76 velocity=64 time=0
EXTRACT: note_off channel=3 note=40 velocity=64 time=0
EXTRACT: note_on channel=9 note=42 velocity=64 time=0
EXTRACT: note_off channel=6 note=85 velocity=64 time=0.111111
EXTRACT: note_on channel=6 note=85 velocity=61 time=0.0555555
EXTRACT: note_on channel=6 note=83 velocity=61 time=0
EXTRACT: note_off channel=0 note=64 velocity=64 time=0.0555555
EXTRACT: note_off channel=9 note=42 velocity=64 time=0
EXTRACT: note_off channel=6 note=83 velocity=64 time=0.0555555
EXTRACT: note_on channel=0 note=59 velocity=67 time=0.0555555
EXTRACT: note_on channel=3 note=40 velocity=64 time=0
EXTRACT: note_on channel=9 note=42 velocity=64 time=0
EXTRACT: note_off channel=7 note=76 velocity=64 time=0
EXTRACT: note_off channel=7 note=71 velocity=64 time=0
EXTRACT: note_off channel=7 note=68 velocity=64 time=0
EXTRACT: note_off channel=6 note=85 velocity=64 time=0.1666665
EXTRACT: note_off channel=0 note=59 velocity=64 time=0.0555555
EXTRACT: note_off channel=3 note=40 velocity=64 time=0
EXTRACT: note_off channel=9 note=42 velocity=64 time=0
EXTRACT: note_on channel=0 note=61 velocity=67 time=0.111111
EXTRACT: note_on channel=1 note=61 velocity=37 time=0
EXTRACT: note_on channel=1 note=68 velocity=37 time=0
EXTRACT: note_on channel=1 note=73 velocity=37 time=0
EXTRACT: note_on channel=3 note=37 velocity=64 time=0
EXTRACT: note_on channel=2 note=77 velocity=29 time=0
EXTRACT: note_on channel=2 note=73 velocity=29 time=0
EXTRACT: note_on channel=2 note=68 velocity=29 time=0
EXTRACT: note_on channel=2 note=61 velocity=29 time=0
EXTRACT: note_on channel=9 note=42 velocity=64 time=0
EXTRACT: note_off channel=0 note=61 velocity=64 time=0.222222
EXTRACT: note_off channel=9 note=42 velocity=64 time=0
EXTRACT: note_on channel=0 note=61 velocity=67 time=0.111111
EXTRACT: note_on channel=0 note=68 velocity=67 time=0
EXTRACT: note_on channel=0 note=73 velocity=67 time=0
EXTRACT: note_on channel=9 note=42 velocity=64 time=0
EXTRACT: note_off channel=0 note=61 velocity=64 time=0.222222
EXTRACT: note_off channel=0 note=68 velocity=64 time=0
EXTRACT: note_off channel=0 note=73 velocity=64 time=0
EXTRACT: note_off channel=9 note=42 velocity=64 time=0
EXTRACT: note_on channel=6 note=73 velocity=61 time=0.111111
EXTRACT: note_on channel=0 note=61 velocity=67 time=0
EXTRACT: note_on channel=0 note=68 velocity=67 time=0
EXTRACT: note_on channel=0 note=73 velocity=67 time=0
EXTRACT: note_off channel=1 note=61 velocity=64 time=0
EXTRACT: note_off channel=1 note=68 velocity=64 time=0
EXTRACT: note_off channel=1 note=73 velocity=64 time=0
EXTRACT: note_on channel=9 note=42 velocity=64 time=0
EXTRACT: note_off channel=6 note=73 velocity=64 time=0.222222
EXTRACT: note_off channel=0 note=61 velocity=64 time=0
EXTRACT: note_off channel=0 note=68 velocity=64 time=0
EXTRACT: note_off channel=0 note=73 velocity=64 time=0
EXTRACT: note_off channel=2 note=77 velocity=64 time=0
EXTRACT: note_off channel=2 note=73 velocity=64 time=0
EXTRACT: note_off channel=2 note=68 velocity=64 time=0
EXTRACT: note_off channel=2 note=61 velocity=64 time=0
EXTRACT: note_off channel=9 note=42 velocity=64 time=0
EXTRACT: note_on channel=6 note=80 velocity=61 time=0.111111
EXTRACT: note_on channel=0 note=77 velocity=67 time=0
EXTRACT: note_on channel=1 note=80 velocity=37 time=0
EXTRACT: note_on channel=1 note=85 velocity=37 time=0
EXTRACT: note_on channel=9 note=42 velocity=64 time=0
EXTRACT: note_on channel=9 note=38 velocity=64 time=0
EXTRACT: note_off channel=6 note=80 velocity=64 time=0.222222
EXTRACT: note_off channel=0 note=77 velocity=64 time=0
EXTRACT: note_off channel=1 note=80 velocity=64 time=0
EXTRACT: note_off channel=1 note=85 velocity=64 time=0
EXTRACT: note_off channel=9 note=42 velocity=64 time=0
EXTRACT: note_off channel=9 note=38 velocity=64 time=0
EXTRACT: note_on channel=6 note=83 velocity=61 time=0.111111
EXTRACT: note_on channel=0 note=73 velocity=67 time=0
EXTRACT: note_off channel=3 note=37 velocity=64 time=0
EXTRACT: note_on channel=9 note=42 velocity=64 time=0
EXTRACT: note_on channel=7 note=80 velocity=0 time=0
EXTRACT: note_on channel=7 note=85 velocity=0 time=0
EXTRACT: note_off channel=6 note=83 velocity=64 time=0.222222
EXTRACT: note_off channel=0 note=73 velocity=64 time=0
EXTRACT: note_off channel=9 note=42 velocity=64 time=0
EXTRACT: note_off channel=7 note=80 velocity=64 time=0
EXTRACT: note_off channel=7 note=85 velocity=64 time=0
EXTRACT: note_on channel=6 note=80 velocity=61 time=0.111111
EXTRACT: note_on channel=0 note=68 velocity=67 time=0
EXTRACT: note_on channel=3 note=37 velocity=64 time=0
EXTRACT: note_on channel=9 note=42 velocity=64 time=0
EXTRACT: note_on channel=7 note=61 velocity=0 time=0
EXTRACT: note_off channel=6 note=80 velocity=64 time=0.222222
EXTRACT: note_off channel=0 note=68 velocity=64 time=0
EXTRACT: note_off channel=3 note=37 velocity=64 time=0
EXTRACT: note_off channel=9 note=42 velocity=64 time=0
EXTRACT: note_off channel=7 note=61 velocity=64 time=0
EXTRACT: note_on channel=6 note=81 velocity=61 time=0.111111
EXTRACT: note_on channel=0 note=81 velocity=67 time=0
EXTRACT: note_on channel=0 note=78 velocity=67 time=0
EXTRACT: note_on channel=0 note=73 velocity=67 time=0
EXTRACT: note_on channel=0 note=66 velocity=67 time=0
EXTRACT: note_on channel=1 note=66 velocity=37 time=0
EXTRACT: note_on channel=3 note=42 velocity=64 time=0
EXTRACT: note_on channel=2 note=78 velocity=29 time=0
EXTRACT: note_on channel=2 note=73 velocity=29 time=0
EXTRACT: note_on channel=2 note=69 velocity=29 time=0
EXTRACT: note_on channel=2 note=81 velocity=29 time=0
EXTRACT: note_on channel=9 note=42 velocity=64 time=0
EXTRACT: note_on channel=7 note=66 velocity=0 time=0
EXTRACT: note_off channel=1 note=66 velocity=64 time=0.222222
EXTRACT: note_off channel=9 note=42 velocity=64 time=0
EXTRACT: note_off channel=7 note=66 velocity=64 time=0
EXTRACT: note_on channel=1 note=73 velocity=37 time=0.111111
EXTRACT: note_on channel=9 note=42 velocity=64 time=0
EXTRACT: note_on channel=7 note=73 velocity=0 time=0
EXTRACT: note_off channel=1 note=73 velocity=64 time=0.222222
EXTRACT: note_off channel=9 note=42 velocity=64 time=0
EXTRACT: note_off channel=7 note=73 velocity=64 time=0
EXTRACT: note_off channel=6 note=81 velocity=64 time=0.111111
EXTRACT: note_off channel=0 note=81 velocity=64 time=0
EXTRACT: note_off channel=0 note=78 velocity=64 time=0
EXTRACT: note_off channel=0 note=73 velocity=64 time=0
EXTRACT: note_off channel=0 note=66 velocity=64 time=0
EXTRACT: note_on channel=1 note=78 velocity=37 time=0
EXTRACT: note_off channel=3 note=42 velocity=64 time=0
EXTRACT: note_off channel=2 note=78 velocity=64 time=0
EXTRACT: note_off channel=2 note=73 velocity=64 time=0
EXTRACT: note_off channel=2 note=69 velocity=64 time=0
EXTRACT: note_off channel=2 note=81 velocity=64 time=0
EXTRACT: note_on channel=9 note=42 velocity=64 time=0
EXTRACT: note_on channel=7 note=78 velocity=0 time=0
EXTRACT: note_on channel=9 note=38 velocity=64 time=0.1666665
EXTRACT: note_off channel=1 note=78 velocity=64 time=0.0555555
EXTRACT: note_off channel=9 note=42 velocity=64 time=0
EXTRACT: note_off channel=7 note=78 velocity=64 time=0
EXTRACT: note_off channel=9 note=38 velocity=64 time=0.0555555
EXTRACT: note_on channel=6 note=80 velocity=61 time=0.0555555
EXTRACT: note_on channel=0 note=64 velocity=67 time=0
EXTRACT: note_on channel=0 note=71 velocity=67 time=0
EXTRACT: note_on channel=0 note=76 velocity=67 time=0
EXTRACT: note_on channel=0 note=80 velocity=67 time=0
EXTRACT: note_on channel=1 note=64 velocity=37 time=0
EXTRACT: note_on channel=3 note=40 velocity=64 time=0
EXTRACT: note_on channel=2 note=76 velocity=29 time=0
EXTRACT: note_on channel=2 note=80 velocity=29 time=0
EXTRACT: note_on channel=2 note=71 velocity=29 time=0
EXTRACT: note_on channel=2 note=64 velocity=29 time=0
EXTRACT: note_on channel=9 note=42 velocity=64 time=0
EXTRACT: note_on channel=9 note=38 velocity=64 time=0
EXTRACT: note_on channel=7 note=64 velocity=0 time=0
EXTRACT: note_off channel=1 note=64 velocity=64 time=0.222222
EXTRACT: note_off channel=9 note=42 velocity=64 time=0
EXTRACT: note_off channel=9 note=38 velocity=64 time=0
EXTRACT: note_off channel=7 note=64 velocity=64 time=0
EXTRACT: note_on channel=1 note=71 velocity=37 time=0.111111
EXTRACT: note_on channel=9 note=42 velocity=64 time=0
EXTRACT: note_on channel=9 note=38 velocity=64 time=0
EXTRACT: note_on channel=7 note=71 velocity=0 time=0
EXTRACT: note_off channel=6 note=80 velocity=64 time=0.111111
EXTRACT: note_off channel=1 note=71 velocity=64 time=0.111111
EXTRACT: note_off channel=9 note=42 velocity=64 time=0
EXTRACT: note_off channel=9 note=38 velocity=64 time=0
EXTRACT: note_off channel=7 note=71 velocity=64 time=0
EXTRACT: note_on channel=6 note=78 velocity=61 time=0.111111
EXTRACT: note_off channel=0 note=64 velocity=64 time=0
EXTRACT: note_off channel=0 note=71 velocity=64 time=0
EXTRACT: note_off channel=0 note=76 velocity=64 time=0
EXTRACT: note_off channel=0 note=80 velocity=64 time=0
EXTRACT: note_on channel=1 note=76 velocity=37 time=0
EXTRACT: note_off channel=3 note=40 velocity=64 time=0
EXTRACT: note_off channel=2 note=76 velocity=64 time=0
EXTRACT: note_off channel=2 note=80 velocity=64 time=0
EXTRACT: note_off channel=2 note=71 velocity=64 time=0
EXTRACT: note_off channel=2 note=64 velocity=64 time=0
EXTRACT: note_on channel=9 note=42 velocity=64 time=0
EXTRACT: note_on channel=9 note=38 velocity=64 time=0
EXTRACT: note_on channel=7 note=76 velocity=0 time=0
EXTRACT: note_off channel=6 note=78 velocity=64 time=0.222222
EXTRACT: note_off channel=1 note=76 velocity=64 time=0
EXTRACT: note_off channel=9 note=42 velocity=64 time=0
EXTRACT: note_off channel=9 note=38 velocity=64 time=0
EXTRACT: note_off channel=7 note=76 velocity=64 time=0
EXTRACT: note_on channel=6 note=78 velocity=61 time=0.111111
EXTRACT: note_on channel=0 note=74 velocity=67 time=0
EXTRACT: note_on channel=0 note=69 velocity=67 time=0
EXTRACT: note_on channel=0 note=62 velocity=67 time=0
EXTRACT: note_on channel=1 note=74 velocity=37 time=0
EXTRACT: note_on channel=1 note=69 velocity=37 time=0
EXTRACT: note_on channel=1 note=62 velocity=37 time=0
EXTRACT: note_on channel=3 note=38 velocity=64 time=0
EXTRACT: note_on channel=2 note=78 velocity=29 time=0
EXTRACT: note_on channel=2 note=74 velocity=29 time=0
EXTRACT: note_on channel=2 note=69 velocity=29 time=0
EXTRACT: note_on channel=2 note=62 velocity=29 time=0
EXTRACT: note_on channel=9 note=42 velocity=64 time=0
EXTRACT: note_on channel=7 note=74 velocity=0 time=0
EXTRACT: note_on channel=7 note=69 velocity=0 time=0
EXTRACT: note_on channel=7 note=62 velocity=0 time=0
EXTRACT: note_off channel=9 note=42 velocity=64 time=0.222222
EXTRACT: note_on channel=9 note=42 velocity=64 time=0.111111
EXTRACT: note_off channel=9 note=42 velocity=64 time=0.222222
EXTRACT: note_on channel=9 note=42 velocity=64 time=0.111111
EXTRACT: note_on channel=9 note=42 velocity=64 time=0
EXTRACT: note_on channel=9 note=38 velocity=64 time=0.1666665
EXTRACT: note_off channel=2 note=78 velocity=64 time=0.0555555
EXTRACT: note_off channel=2 note=74 velocity=64 time=0
EXTRACT: note_off channel=2 note=69 velocity=64 time=0
EXTRACT: note_off channel=2 note=62 velocity=64 time=0
EXTRACT: note_off channel=9 note=42 velocity=64 time=0
EXTRACT: note_off channel=9 note=42 velocity=64 time=0
EXTRACT: note_off channel=9 note=38 velocity=64 time=0.0555555
EXTRACT: note_on channel=9 note=42 velocity=64 time=0.0555555
EXTRACT: note_on channel=9 note=38 velocity=64 time=0
EXTRACT: note_off channel=9 note=42 velocity=64 time=0.222222
EXTRACT: note_off channel=9 note=38 velocity=64 time=0
EXTRACT: note_off channel=6 note=78 velocity=64 time=0.111111
EXTRACT: note_off channel=0 note=74 velocity=64 time=0
EXTRACT: note_off channel=0 note=69 velocity=64 time=0
EXTRACT: note_off channel=0 note=62 velocity=64 time=0
EXTRACT: note_off channel=1 note=74 velocity=64 time=0
EXTRACT: note_off channel=1 note=69 velocity=64 time=0
EXTRACT: note_off channel=1 note=62 velocity=64 time=0
EXTRACT: note_off channel=3 note=38 velocity=64 time=0
EXTRACT: note_on channel=9 note=42 velocity=64 time=0
EXTRACT: note_on channel=9 note=38 velocity=64 time=0
EXTRACT: note_off channel=7 note=74 velocity=64 time=0
EXTRACT: note_off channel=7 note=69 velocity=64 time=0
EXTRACT: note_off channel=7 note=62 velocity=64 time=0
EXTRACT: note_off channel=9 note=42 velocity=64 time=0.222222
EXTRACT: note_off channel=9 note=38 velocity=64 time=0
EXTRACT: note_on channel=3 note=38 velocity=64 time=0.111111
EXTRACT: note_on channel=9 note=42 velocity=64 time=0
EXTRACT: note_on channel=9 note=38 velocity=64 time=0
EXTRACT: note_off channel=3 note=38 velocity=64 time=0.222222
EXTRACT: note_off channel=9 note=42 velocity=64 time=0
EXTRACT: note_off channel=9 note=38 velocity=64 time=0
EXTRACT: note_on channel=6 note=77 velocity=61 time=0.111111
EXTRACT: note_on channel=0 note=62 velocity=67 time=0
EXTRACT: note_on channel=3 note=38 velocity=64 time=0
EXTRACT: note_on channel=2 note=77 velocity=29 time=0
EXTRACT: note_on channel=2 note=74 velocity=29 time=0
EXTRACT: note_on channel=2 note=69 velocity=29 time=0
EXTRACT: note_on channel=2 note=62 velocity=29 time=0
EXTRACT: note_on channel=9 note=42 velocity=64 time=0
EXTRACT: note_on channel=0 note=69 velocity=67 time=0.1666665
EXTRACT: note_off channel=9 note=42 velocity=64 time=0.0555555
EXTRACT: note_on channel=0 note=74 velocity=67 time=0.111111
EXTRACT: note_on channel=9 note=42 velocity=64 time=0
EXTRACT: note_on channel=0 note=77 velocity=67 time=0.1666665
EXTRACT: note_off channel=9 note=42 velocity=64 time=0.0555555
EXTRACT: note_on channel=0 note=81 velocity=67 time=0.111111
EXTRACT: note_on channel=9 note=42 velocity=64 time=0
EXTRACT: note_on channel=9 note=42 velocity=64 time=0
EXTRACT: note_on channel=9 note=38 velocity=64 time=0.1666665
EXTRACT: note_off channel=2 note=77 velocity=64 time=0.0555555
EXTRACT: note_off channel=2 note=74 velocity=64 time=0
EXTRACT: note_off channel=2 note=69 velocity=64 time=0
EXTRACT: note_off channel=2 note=62 velocity=64 time=0
EXTRACT: note_off channel=9 note=42 velocity=64 time=0
EXTRACT: note_off channel=9 note=42 velocity=64 time=0
EXTRACT: note_off channel=9 note=38 velocity=64 time=0.0555555
EXTRACT: note_on channel=9 note=42 velocity=64 time=0.0555555
EXTRACT: note_on channel=9 note=38 velocity=64 time=0
EXTRACT: note_off channel=9 note=42 velocity=64 time=0.222222
EXTRACT: note_off channel=9 note=38 velocity=64 time=0
EXTRACT: note_off channel=6 note=77 velocity=64 time=0.111111
EXTRACT: note_off channel=0 note=62 velocity=64 time=0
EXTRACT: note_off channel=0 note=69 velocity=64 time=0
EXTRACT: note_off channel=0 note=74 velocity=64 time=0
EXTRACT: note_off channel=0 note=77 velocity=64 time=0
EXTRACT: note_off channel=3 note=38 velocity=64 time=0
EXTRACT: note_on channel=9 note=42 velocity=64 time=0
EXTRACT: note_on channel=9 note=38 velocity=64 time=0
EXTRACT: note_off channel=0 note=81 velocity=64 time=0.1666665
EXTRACT: note_off channel=9 note=42 velocity=64 time=0.0555555
EXTRACT: note_off channel=9 note=38 velocity=64 time=0
EXTRACT: note_on channel=1 note=77 velocity=37 time=0.111111
EXTRACT: note_on channel=1 note=81 velocity=37 time=0
EXTRACT: note_on channel=1 note=74 velocity=37 time=0
EXTRACT: note_on channel=3 note=38 velocity=64 time=0
EXTRACT: note_on channel=9 note=42 velocity=64 time=0
EXTRACT: note_on channel=9 note=38 velocity=64 time=0
EXTRACT: note_on channel=7 note=81 velocity=0 time=0
EXTRACT: note_on channel=7 note=77 velocity=0 time=0
EXTRACT: note_on channel=7 note=74 velocity=0 time=0
EXTRACT: note_off channel=1 note=77 velocity=64 time=0.222222
EXTRACT: note_off channel=1 note=81 velocity=64 time=0
EXTRACT: note_off channel=1 note=74 velocity=64 time=0
EXTRACT: note_off channel=3 note=38 velocity=64 time=0
EXTRACT: note_off channel=9 note=42 velocity=64 time=0
EXTRACT: note_off channel=9 note=38 velocity=64 time=0
EXTRACT: note_off channel=7 note=81 velocity=64 time=0
EXTRACT: note_off channel=7 note=77 velocity=64 time=0
EXTRACT: note_off channel=7 note=74 velocity=64 time=0
EXTRACT: note_on channel=0 note=85 velocity=67 time=0.111111
EXTRACT: note_on channel=1 note=57 velocity=23 time=0
EXTRACT: note_on channel=3 note=45 velocity=64 time=0
EXTRACT: note_on channel=2 note=76 velocity=15 time=0
EXTRACT: note_on channel=2 note=73 velocity=15 time=0
EXTRACT: note_on channel=2 note=69 velocity=15 time=0
EXTRACT: note_on channel=2 note=64 velocity=15 time=0
EXTRACT: note_on channel=9 note=42 velocity=64 time=0
EXTRACT: note_on channel=9 note=49 velocity=64 time=0
EXTRACT: note_off channel=0 note=85 velocity=64 time=0.111111
EXTRACT: note_on channel=0 note=85 velocity=67 time=0.0555555
EXTRACT: note_off channel=1 note=57 velocity=64 time=0.0555555
EXTRACT: note_off channel=9 note=42 velocity=64 time=0
EXTRACT: note_off channel=9 note=49 velocity=64 time=0
EXTRACT: note_off channel=0 note=85 velocity=64 time=0.0555555
EXTRACT: note_on channel=0 note=85 velocity=67 time=0.0555555
EXTRACT: note_on channel=1 note=64 velocity=23 time=0
EXTRACT: note_on channel=9 note=42 velocity=64 time=0
EXTRACT: note_off channel=0 note=85 velocity=64 time=0.111111
EXTRACT: note_on channel=0 note=85 velocity=67 time=0.0555555
EXTRACT: note_off channel=1 note=64 velocity=64 time=0.0555555
EXTRACT: note_off channel=9 note=42 velocity=64 time=0
EXTRACT: note_off channel=0 note=85 velocity=64 time=0.0555555
EXTRACT: note_on channel=0 note=85 velocity=67 time=0.0555555
EXTRACT: note_on channel=1 note=69 velocity=23 time=0
EXTRACT: note_on channel=9 note=42 velocity=64 time=0
EXTRACT: note_off channel=0 note=85 velocity=64 time=0.111111
EXTRACT: note_on channel=0 note=85 velocity=67 time=0.0555555
EXTRACT: note_on channel=1 note=71 velocity=23 time=0
EXTRACT: note_off channel=1 note=69 velocity=64 time=0.0555555
EXTRACT: note_off channel=2 note=76 velocity=64 time=0
EXTRACT: note_off channel=2 note=73 velocity=64 time=0
EXTRACT: note_off channel=2 note=69 velocity=64 time=0
EXTRACT: note_off channel=2 note=64 velocity=64 time=0
EXTRACT: note_off channel=9 note=42 velocity=64 time=0
EXTRACT: note_off channel=0 note=85 velocity=64 time=0.0555555
EXTRACT: note_off channel=1 note=71 velocity=64 time=0
EXTRACT: note_on channel=0 note=85 velocity=67 time=0.0555555
EXTRACT: note_on channel=1 note=73 velocity=23 time=0
EXTRACT: note_on channel=1 note=76 velocity=23 time=0
EXTRACT: note_on channel=9 note=42 velocity=64 time=0
EXTRACT: note_on channel=9 note=38 velocity=64 time=0
EXTRACT: note_on channel=7 note=93 velocity=1 time=0
EXTRACT: note_on channel=7 note=88 velocity=1 time=0
EXTRACT: note_on channel=7 note=85 velocity=1 time=0
EXTRACT: note_off channel=0 note=85 velocity=64 time=0.111111
EXTRACT: note_on channel=6 note=71 velocity=64 time=0.0555555
EXTRACT: note_on channel=0 note=85 velocity=67 time=0
EXTRACT: note_off channel=1 note=73 velocity=64 time=0.0555555
EXTRACT: note_off channel=1 note=76 velocity=64 time=0
EXTRACT: note_off channel=9 note=42 velocity=64 time=0
EXTRACT: note_off channel=9 note=38 velocity=64 time=0
EXTRACT: note_off channel=7 note=93 velocity=64 time=0
EXTRACT: note_off channel=7 note=88 velocity=64 time=0
EXTRACT: note_off channel=7 note=85 velocity=64 time=0
EXTRACT: note_off channel=6 note=71 velocity=64 time=0.0555555
EXTRACT: note_off channel=0 note=85 velocity=64 time=0
EXTRACT: note_on channel=6 note=73 velocity=64 time=0.0555555
EXTRACT: note_on channel=0 note=86 velocity=67 time=0
EXTRACT: note_on channel=1 note=71 velocity=23 time=0
EXTRACT: note_on channel=9 note=42 velocity=64 time=0
EXTRACT: note_off channel=6 note=73 velocity=64 time=0.111111
EXTRACT: note_off channel=0 note=86 velocity=64 time=0
EXTRACT: note_on channel=6 note=71 velocity=64 time=0.0555555
EXTRACT: note_on channel=0 note=86 velocity=67 time=0
EXTRACT: note_off channel=1 note=71 velocity=64 time=0.0555555
EXTRACT: note_off channel=3 note=45 velocity=64 time=0
EXTRACT: note_off channel=9 note=42 velocity=64 time=0
EXTRACT: note_off channel=6 note=71 velocity=64 time=0.0555555
EXTRACT: note_off channel=0 note=86 velocity=64 time=0
EXTRACT: note_on channel=6 note=73 velocity=64 time=0.0555555
EXTRACT: note_on channel=0 note=88 velocity=67 time=0
EXTRACT: note_on channel=1 note=69 velocity=23 time=0
EXTRACT: note_on channel=3 note=45 velocity=64 time=0
EXTRACT: note_on channel=9 note=42 velocity=64 time=0
EXTRACT: note_off channel=6 note=73 velocity=64 time=0.111111
EXTRACT: note_off channel=0 note=88 velocity=64 time=0
EXTRACT: note_on channel=6 note=71 velocity=64 time=0.0555555
EXTRACT: note_on channel=0 note=88 velocity=67 time=0
EXTRACT: note_off channel=1 note=69 velocity=64 time=0.0555555
EXTRACT: note_off channel=3 note=45 velocity=64 time=0
EXTRACT: note_off channel=9 note=42 velocity=64 time=0
EXTRACT: note_off channel=0 note=88 velocity=64 time=0.0555555
EXTRACT: note_on channel=0 note=90 velocity=67 time=0.0555555
EXTRACT: note_on channel=1 note=57 velocity=23 time=0
EXTRACT: note_on channel=3 note=42 velocity=64 time=0
EXTRACT: note_on channel=2 note=78 velocity=15 time=0
EXTRACT: note_on channel=2 note=73 velocity=15 time=0
EXTRACT: note_on channel=2 note=69 velocity=15 time=0
EXTRACT: note_on channel=9 note=42 velocity=64 time=0
EXTRACT: note_off channel=6 note=71 velocity=64 time=0.0555555
EXTRACT: note_off channel=0 note=90 velocity=64 time=0.0555555
EXTRACT: note_on channel=6 note=73 velocity=64 time=0.0555555
EXTRACT: note_on channel=0 note=90 velocity=67 time=0
EXTRACT: note_off channel=1 note=57 velocity=64 time=0.0555555
EXTRACT: note_off channel=9 note=42 velocity=64 time=0
EXTRACT: note_off channel=0 note=90 velocity=64 time=0.0555555
EXTRACT: note_on channel=0 note=90 velocity=67 time=0.0555555
EXTRACT: note_on channel=1 note=61 velocity=23 time=0
EXTRACT: note_on channel=9 note=42 velocity=64 time=0
EXTRACT: note_off channel=6 note=73 velocity=64 time=0.0555555
EXTRACT: note_off channel=0 note=90 velocity=64 time=0.0555555
EXTRACT: note_on channel=6 note=71 velocity=64 time=0.0555555
EXTRACT: note_on channel=0 note=90 velocity=67 time=0
EXTRACT: note_off channel=1 note=61 velocity=64 time=0.0555555
EXTRACT: note_off channel=9 note=42 velocity=64 time=0
EXTRACT: note_off channel=6 note=71 velocity=64 time=0.0555555
EXTRACT: note_off channel=0 note=90 velocity=64 time=0
EXTRACT: note_on channel=6 note=73 velocity=64 time=0.0555555
EXTRACT: note_on channel=0 note=90 velocity=67 time=0
EXTRACT: note_on channel=1 note=66 velocity=23 time=0
EXTRACT: note_on channel=9 note=42 velocity=64 time=0
EXTRACT: note_off channel=6 note=73 velocity=64 time=0.111111
EXTRACT: note_off channel=0 note=90 velocity=64 time=0
EXTRACT: note_on channel=6 note=71 velocity=64 time=0.0555555
EXTRACT: note_on channel=0 note=90 velocity=67 time=0
EXTRACT: note_on channel=1 note=71 velocity=23 time=0
EXTRACT: note_off channel=1 note=66 velocity=64 time=0.0555555
EXTRACT: note_off channel=2 note=78 velocity=64 time=0
EXTRACT: note_off channel=2 note=73 velocity=64 time=0
EXTRACT: note_off channel=2 note=69 velocity=64 time=0
EXTRACT: note_off channel=9 note=42 velocity=64 time=0
EXTRACT: note_off channel=6 note=71 velocity=64 time=0.0555555
EXTRACT: note_off channel=0 note=90 velocity=64 time=0
EXTRACT: note_off channel=1 note=71 velocity=64 time=0
EXTRACT: note_on channel=6 note=73 velocity=64 time=0.0555555
EXTRACT: note_on channel=0 note=90 velocity=67 time=0
EXTRACT: note_on channel=1 note=76 velocity=23 time=0
EXTRACT: note_on channel=1 note=73 velocity=23 time=0
EXTRACT: note_on channel=9 note=42 velocity=64 time=0
EXTRACT: note_on channel=9 note=38 velocity=64 time=0
EXTRACT: note_on channel=7 note=90 velocity=1 time=0
EXTRACT: note_on channel=7 note=85 velocity=1 time=0
EXTRACT: note_on channel=7 note=81 velocity=1 time=0
EXTRACT: note_off channel=6 note=73 velocity=64 time=0.111111
EXTRACT: note_off channel=0 note=90 velocity=64 time=0
EXTRACT: note_on channel=6 note=71 velocity=64 time=0.0555555
EXTRACT: note_on channel=0 note=90 velocity=67 time=0
EXTRACT: note_off channel=1 note=76 velocity=64 time=0.0555555
EXTRACT: note_off channel=1 note=73 velocity=64 time=0
EXTRACT: note_off channel=9 note=42 velocity=64 time=0
EXTRACT: note_off channel=9 note=38 velocity=64 time=0
EXTRACT: note_off channel=7 note=90 velocity=64 time=0
EXTRACT: note_off channel=7 note=85 velocity=64 time=0
EXTRACT: note_off channel=7 note=81 velocity=64 time=0
EXTRACT: note_off channel=0 note=90 velocity=64 time=0.0555555
EXTRACT: note_on channel=0 note=88 velocity=67 time=0.0555555
EXTRACT: note_on channel=1 note=71 velocity=23 time=0
EXTRACT: note_off channel=3 note=42 velocity=64 time=0
EXTRACT: note_on channel=9 note=42 velocity=64 time=0
EXTRACT: note_off channel=6 note=71 velocity=64 time=0.0555555
EXTRACT: note_off channel=0 note=88 velocity=64 time=0.0555555
EXTRACT: note_on channel=6 note=73 velocity=64 time=0.0555555
EXTRACT: note_on channel=0 note=88 velocity=67 time=0
EXTRACT: note_off channel=1 note=71 velocity=64 time=0.0555555
EXTRACT: note_off channel=9 note=42 velocity=64 time=0
EXTRACT: note_off channel=0 note=88 velocity=64 time=0.0555555
EXTRACT: note_on channel=0 note=86 velocity=67 time=0.0555555
EXTRACT: note_on channel=1 note=69 velocity=23 time=0
EXTRACT: note_on channel=3 note=42 velocity=64 time=0
EXTRACT: note_on channel=9 note=42 velocity=64 time=0
EXTRACT: note_off channel=6 note=73 velocity=64 time=0.0555555
EXTRACT: note_off channel=0 note=86 velocity=64 time=0.0555555
EXTRACT: note_on channel=6 note=71 velocity=64 time=0.0555555
EXTRACT: note_on channel=0 note=86 velocity=67 time=0
EXTRACT: note_off channel=1 note=69 velocity=64 time=0.0555555
EXTRACT: note_off channel=3 note=42 velocity=64 time=0
EXTRACT: note_off channel=9 note=42 velocity=64 time=0
EXTRACT: note_off channel=6 note=71 velocity=64 time=0.0555555
EXTRACT: note_off channel=0 note=86 velocity=64 time=0
EXTRACT: note_on channel=6 note=73 velocity=64 time=0.0555555
EXTRACT: note_on channel=0 note=85 velocity=67 time=0
EXTRACT: note_on channel=1 note=62 velocity=23 time=0
EXTRACT: note_on channel=3 note=38 velocity=64 time=0
EXTRACT: note_on channel=2 note=78 velocity=15 time=0
EXTRACT: note_on channel=2 note=74 velocity=15 time=0
EXTRACT: note_on channel=2 note=69 velocity=15 time=0
EXTRACT: note_on channel=2 note=62 velocity=15 time=0
EXTRACT: note_on channel=9 note=42 velocity=64 time=0
EXTRACT: note_off channel=6 note=73 velocity=64 time=0.111111
EXTRACT: note_off channel=0 note=85 velocity=64 time=0
EXTRACT: note_on channel=6 note=71 velocity=64 time=0.0555555
EXTRACT: note_on channel=0 note=85 velocity=67 time=0
EXTRACT: note_off channel=1 note=62 velocity=64 time=0.0555555
EXTRACT: note_off channel=9 note=42 velocity=64 time=0
EXTRACT: note_off channel=6 note=71 velocity=64 time=0.0555555
EXTRACT: note_off channel=0 note=85 velocity=64 time=0
EXTRACT: note_on channel=6 note=73 velocity=64 time=0.0555555
EXTRACT: note_on channel=0 note=85 velocity=67 time=0
EXTRACT: note_on channel=1 note=69 velocity=23 time=0
EXTRACT: note_on channel=9 note=42 velocity=64 time=0
EXTRACT: note_off channel=6 note=73 velocity=64 time=0.111111
EXTRACT: note_off channel=0 note=85 velocity=64 time=0
EXTRACT: note_on channel=6 note=71 velocity=64 time=0.0555555
EXTRACT: note_on channel=0 note=85 velocity=67 time=0
EXTRACT: note_off channel=1 note=69 velocity=64 time=0.0555555
EXTRACT: note_off channel=9 note=42 velocity=64 time=0
EXTRACT: note_off channel=6 note=71 velocity=64 time=0.0555555
EXTRACT: note_off channel=0 note=85 velocity=64 time=0
EXTRACT: note_on channel=6 note=73 velocity=64 time=0.0555555
EXTRACT: note_on channel=0 note=85 velocity=67 time=0
EXTRACT: note_on channel=1 note=74 velocity=23 time=0
EXTRACT: note_on channel=9 note=42 velocity=64 time=0
EXTRACT: note_off channel=6 note=73 velocity=64 time=0.111111
EXTRACT: note_off channel=0 note=85 velocity=64 time=0
EXTRACT: note_on channel=6 note=71 velocity=64 time=0.0555555
EXTRACT: note_on channel=0 note=85 velocity=67 time=0
EXTRACT: note_on channel=1 note=76 velocity=23 time=0
EXTRACT: note_off channel=1 note=74 velocity=64 time=0.0555555
EXTRACT: note_off channel=2 note=78 velocity=64 time=0
EXTRACT: note_off channel=2 note=74 velocity=64 time=0
EXTRACT: note_off channel=2 note=69 velocity=64 time=0
EXTRACT: note_off channel=2 note=62 velocity=64 time=0
EXTRACT: note_off channel=9 note=42 velocity=64 time=0
EXTRACT: note_off channel=6 note=71 velocity=64 time=0.0555555
EXTRACT: note_off channel=0 note=85 velocity=64 time=0
EXTRACT: note_off channel=1 note=76 velocity=64 time=0
EXTRACT: note_on channel=0 note=81 velocity=67 time=0.0555555
EXTRACT: note_on channel=1 note=78 velocity=23 time=0
EXTRACT: note_on channel=9 note=42 velocity=64 time=0
EXTRACT: note_on channel=9 note=38 velocity=64 time=0
EXTRACT: note_on channel=7 note=90 velocity=1 time=0
EXTRACT: note_off channel=0 note=81 velocity=64 time=0.111111
EXTRACT: note_on channel=0 note=81 velocity=67 time=0.0555555
EXTRACT: note_off channel=1 note=78 velocity=64 time=0.0555555
EXTRACT: note_off channel=9 note=42 velocity=64 time=0
EXTRACT: note_off channel=9 note=38 velocity=64 time=0
EXTRACT: note_off channel=7 note=90 velocity=64 time=0
EXTRACT: note_off channel=0 note=81 velocity=64 time=0.0555555
EXTRACT: note_on channel=6 note=73 velocity=64 time=0.0555555
EXTRACT: note_on channel=0 note=81 velocity=67 time=0
EXTRACT: note_on channel=1 note=76 velocity=23 time=0
EXTRACT: note_off channel=3 note=38 velocity=64 time=0
EXTRACT: note_on channel=9 note=42 velocity=64 time=0
EXTRACT: note_on channel=7 note=85 velocity=1 time=0
EXTRACT: note_on channel=7 note=78 velocity=1 time=0
EXTRACT: note_off channel=0 note=81 velocity=64 time=0.111111
EXTRACT: note_on channel=0 note=81 velocity=67 time=0.0555555
EXTRACT: note_off channel=1 note=76 velocity=64 time=0.0555555
EXTRACT: note_off channel=9 note=42 velocity=64 time=0
EXTRACT: note_off channel=7 note=85 velocity=64 time=0
EXTRACT: note_off channel=7 note=78 velocity=64 time=0
EXTRACT: note_off channel=0 note=81 velocity=64 time=0.0555555
EXTRACT: note_off channel=6 note=73 velocity=64 time=0.0555555
EXTRACT: note_on channel=0 note=81 velocity=67 time=0
EXTRACT: note_on channel=1 note=69 velocity=23 time=0
EXTRACT: note_on channel=3 note=38 velocity=64 time=0
EXTRACT: note_on channel=9 note=42 velocity=64 time=0
EXTRACT: note_off channel=0 note=81 velocity=64 time=0.111111
EXTRACT: note_on channel=6 note=73 velocity=64 time=0.0555555
EXTRACT: note_on channel=0 note=81 velocity=67 time=0
EXTRACT: note_off channel=1 note=69 velocity=64 time=0.0555555
EXTRACT: note_off channel=3 note=38 velocity=64 time=0
EXTRACT: note_off channel=9 note=42 velocity=64 time=0
EXTRACT: note_off channel=6 note=73 velocity=64 time=0.0555555
EXTRACT: note_off channel=0 note=81 velocity=64 time=0
EXTRACT: note_on channel=6 note=71 velocity=64 time=0.0555555
EXTRACT: note_on channel=0 note=74 velocity=67 time=0
EXTRACT: note_on channel=1 note=62 velocity=23 time=0
EXTRACT: note_on channel=3 note=38 velocity=64 time=0
EXTRACT: note_on channel=2 note=77 velocity=15 time=0
EXTRACT: note_on channel=2 note=74 velocity=15 time=0
EXTRACT: note_on channel=2 note=69 velocity=15 time=0
EXTRACT: note_on channel=2 note=62 velocity=15 time=0
EXTRACT: note_on channel=9 note=42 velocity=64 time=0
EXTRACT: note_on channel=7 note=74 velocity=1 time=0
EXTRACT: note_off channel=0 note=74 velocity=64 time=0.111111
EXTRACT: note_on channel=0 note=74 velocity=67 time=0.0555555
EXTRACT: note_off channel=6 note=71 velocity=64 time=0.0555555
EXTRACT: note_off channel=1 note=62 velocity=64 time=0
EXTRACT: note_off channel=9 note=42 velocity=64 time=0
EXTRACT: note_off channel=0 note=74 velocity=64 time=0.0555555
EXTRACT: note_on channel=6 note=69 velocity=64 time=0.0555555
EXTRACT: note_on channel=0 note=74 velocity=67 time=0
EXTRACT: note_on channel=1 note=69 velocity=23 time=0
EXTRACT: note_on channel=9 note=42 velocity=64 time=0
EXTRACT: note_off channel=0 note=74 velocity=64 time=0.111111
EXTRACT: note_off channel=7 note=74 velocity=64 time=0
EXTRACT: note_on channel=0 note=74 velocity=67 time=0.0555555
EXTRACT: note_off channel=6 note=69 velocity=64 time=0.0555555
EXTRACT: note_off channel=1 note=69 velocity=64 time=0
EXTRACT: note_off channel=9 note=42 velocity=64 time=0
EXTRACT: note_off channel=0 note=74 velocity=64 time=0.0555555
EXTRACT: note_on channel=0 note=74 velocity=67 time=0.0555555
EXTRACT: note_on channel=1 note=74 velocity=23 time=0
EXTRACT: note_on channel=9 note=42 velocity=64 time=0
EXTRACT: note_on channel=7 note=76 velocity=1 time=0
EXTRACT: note_off channel=0 note=74 velocity=64 time=0.111111
EXTRACT: note_off channel=7 note=76 velocity=64 time=0
EXTRACT: note_on channel=0 note=74 velocity=67 time=0.0555555
EXTRACT: note_on channel=1 note=76 velocity=23 time=0
EXTRACT: note_on channel=9 note=38 velocity=64 time=0
EXTRACT: note_on channel=7 note=78 velocity=1 time=0
EXTRACT: note_off channel=1 note=74 velocity=64 time=0.0555555
EXTRACT: note_off channel=2 note=62 velocity=64 time=0
EXTRACT: note_off channel=9 note=42 velocity=64 time=0
EXTRACT: note_off channel=0 note=74 velocity=64 time=0.0555555
EXTRACT: note_off channel=1 note=76 velocity=64 time=0
EXTRACT: note_off channel=9 note=38 velocity=64 time=0
EXTRACT: note_off channel=7 note=78 velocity=64 time=0
EXTRACT: note_on channel=0 note=74 velocity=67 time=0.0555555
EXTRACT: note_on channel=1 note=77 velocity=23 time=0
EXTRACT: note_on channel=9 note=42 velocity=64 time=0
EXTRACT: note_on channel=9 note=38 velocity=64 time=0
EXTRACT: note_on channel=7 note=81 velocity=1 time=0
EXTRACT: note_on channel=7 note=86 velocity=1 time=0
EXTRACT: note_off channel=0 note=74 velocity=64 time=0.111111
EXTRACT: note_off channel=2 note=77 velocity=64 time=0
EXTRACT: note_off channel=2 note=74 velocity=64 time=0
EXTRACT: note_off channel=2 note=69 velocity=64 time=0
EXTRACT: note_off channel=7 note=81 velocity=64 time=0
EXTRACT: note_off channel=7 note=86 velocity=64 time=0
EXTRACT: note_on channel=0 note=74 velocity=67 time=0.0555555
EXTRACT: note_on channel=7 note=83 velocity=1 time=0
EXTRACT: note_on channel=7 note=88 velocity=1 time=0
EXTRACT: note_off channel=1 note=77 velocity=64 time=0.0555555
EXTRACT: note_off channel=9 note=42 velocity=64 time=0
EXTRACT: note_off channel=9 note=38 velocity=64 time=0
EXTRACT: note_off channel=0 note=74 velocity=64 time=0.0555555
EXTRACT: note_off channel=7 note=83 velocity=64 time=0
EXTRACT: note_off channel=7 note=88 velocity=64 time=0
EXTRACT: note_on channel=0 note=74 velocity=67 time=0.0555555
EXTRACT: note_on channel=1 note=76 velocity=23 time=0
EXTRACT: note_off channel=3 note=38 velocity=64 time=0
EXTRACT: note_on channel=9 note=42 velocity=64 time=0
EXTRACT: note_on channel=9 note=38 velocity=64 time=0
EXTRACT: note_on channel=7 note=88 velocity=1 time=0
EXTRACT: note_on channel=7 note=84 velocity=1 time=0
EXTRACT: note_off channel=0 note=74 velocity=64 time=0.111111
EXTRACT: note_off channel=7 note=88 velocity=64 time=0
EXTRACT: note_off channel=7 note=84 velocity=64 time=0
EXTRACT: note_on channel=0 note=74 velocity=67 time=0.0555555
EXTRACT: note_on channel=7 note=83 velocity=1 time=0
EXTRACT: note_off channel=1 note=76 velocity=64 time=0.0555555
EXTRACT: note_off channel=9 note=42 velocity=64 time=0
EXTRACT: note_off channel=9 note=38 velocity=64 time=0
EXTRACT: note_off channel=0 note=74 velocity=64 time=0.0555555
EXTRACT: note_off channel=7 note=83 velocity=64 time=0
EXTRACT: note_on channel=0 note=74 velocity=67 time=0.0555555
EXTRACT: note_on channel=1 note=74 velocity=23 time=0
EXTRACT: note_on channel=3 note=38 velocity=64 time=0
EXTRACT: note_on channel=9 note=42 velocity=64 time=0
EXTRACT: note_on channel=9 note=38 velocity=64 time=0
EXTRACT: note_on channel=7 note=81 velocity=1 time=0
EXTRACT: note_off channel=0 note=74 velocity=64 time=0.111111
EXTRACT: note_off channel=7 note=81 velocity=64 time=0
EXTRACT: note_on channel=0 note=74 velocity=67 time=0.0555555
EXTRACT: note_on channel=7 note=83 velocity=1 time=0
EXTRACT: note_off channel=1 note=74 velocity=64 time=0.0555555
EXTRACT: note_off channel=3 note=38 velocity=64 time=0
EXTRACT: note_off channel=9 note=42 velocity=64 time=0
EXTRACT: note_off channel=9 note=38 velocity=64 time=0
EXTRACT: note_off channel=0 note=74 velocity=64 time=0.0555555
EXTRACT: note_off channel=7 note=83 velocity=64 time=0
EXTRACT: note_on channel=6 note=76 velocity=64 time=0.0555555
EXTRACT: note_on channel=0 note=88 velocity=67 time=0
EXTRACT: note_on channel=1 note=57 velocity=23 time=0
EXTRACT: note_on channel=3 note=45 velocity=64 time=0
EXTRACT: note_on channel=9 note=42 velocity=64 time=0
EXTRACT: note_on channel=9 note=49 velocity=64 time=0
EXTRACT: note_on channel=7 note=81 velocity=1 time=0
EXTRACT: note_off channel=6 note=76 velocity=64 time=0.111111
EXTRACT: note_off channel=0 note=88 velocity=64 time=0
EXTRACT: note_on channel=6 note=85 velocity=64 time=0.0555555
EXTRACT: note_on channel=6 note=83 velocity=64 time=0
EXTRACT: note_on channel=0 note=88 velocity=67 time=0
EXTRACT: note_off channel=1 note=57 velocity=64 time=0.0555555
EXTRACT: note_off channel=9 note=42 velocity=64 time=0
EXTRACT: note_off channel=9 note=49 velocity=64 time=0
EXTRACT: note_off channel=6 note=83 velocity=64 time=0.0555555
EXTRACT: note_off channel=0 note=88 velocity=64 time=0
EXTRACT: note_on channel=0 note=88 velocity=67 time=0.0555555
EXTRACT: note_on channel=1 note=64 velocity=23 time=0
EXTRACT: note_on channel=9 note=42 velocity=64 time=0
EXTRACT: note_off channel=0 note=88 velocity=64 time=0.111111
EXTRACT: note_off channel=6 note=85 velocity=64 time=0.0555555
EXTRACT: note_on channel=0 note=88 velocity=67 time=0
EXTRACT: note_off channel=1 note=64 velocity=64 time=0.0555555
EXTRACT: note_off channel=9 note=42 velocity=64 time=0
EXTRACT: note_off channel=0 note=88 velocity=64 time=0.0555555
EXTRACT: note_on channel=6 note=81 velocity=64 time=0.0555555
EXTRACT: note_on channel=0 note=88 velocity=67 time=0
EXTRACT: note_on channel=1 note=69 velocity=23 time=0
EXTRACT: note_on channel=9 note=42 velocity=64 time=0
EXTRACT: note_off channel=7 note=81 velocity=64 time=0
EXTRACT: note_off channel=0 note=88 velocity=64 time=0.111111
EXTRACT: note_on channel=0 note=88 velocity=67 time=0.0555555
EXTRACT: note_on channel=1 note=71 velocity=23 time=0
EXTRACT: note_off channel=6 note=81 velocity=64 time=0.0555555
EXTRACT: note_off channel=1 note=69 velocity=64 time=0
EXTRACT: note_off channel=9 note=42 velocity=64 time=0
EXTRACT: note_off channel=0 note=88 velocity=64 time=0.0555555
EXTRACT: note_off channel=1 note=71 velocity=64 time=0
EXTRACT: note_on channel=0 note=88 velocity=67 time=0.0555555
EXTRACT: note_on channel=1 note=73 velocity=23 time=0
EXTRACT: note_on channel=1 note=76 velocity=23 time=0
EXTRACT: note_on channel=9 note=42 velocity=64 time=0
EXTRACT: note_on channel=9 note=38 velocity=64 time=0
EXTRACT: note_on channel=7 note=93 velocity=1 time=0
EXTRACT: note_on channel=7 note=88 velocity=1 time=0
EXTRACT: note_on channel=7 note=85 velocity=1 time=0
EXTRACT: note_off channel=0 note=88 velocity=64 time=0.111111
EXTRACT: note_on channel=0 note=88 velocity=67 time=0.0555555
EXTRACT: note_off channel=1 note=73 velocity=64 time=0.0555555
EXTRACT: note_off channel=1 note=76 velocity=64 time=0
EXTRACT: note_off channel=9 note=42 velocity=64 time=0
EXTRACT: note_off channel=9 note=38 velocity=64 time=0
EXTRACT: note_off channel=7 note=93 velocity=64 time=0
EXTRACT: note_off channel=7 note=88 velocity=64 time=0
EXTRACT: note_off channel=7 note=85 velocity=64 time=0
EXTRACT: note_off channel=0 note=88 velocity=64 time=0.0555555
EXTRACT: note_on channel=6 note=81 velocity=64 time=0.0555555
EXTRACT: note_on channel=0 note=88 velocity=67 time=0
EXTRACT: note_on channel=1 note=71 velocity=23 time=0
EXTRACT: note_on channel=9 note=42 velocity=64 time=0
EXTRACT: note_off channel=0 note=88 velocity=64 time=0.111111
EXTRACT: note_on channel=0 note=88 velocity=67 time=0.0555555
EXTRACT: note_on channel=0 note=88 velocity=67 time=0
EXTRACT: note_on channel=0 note=88 velocity=67 time=0
EXTRACT: note_off channel=6 note=81 velocity=64 time=0.0555555
EXTRACT: note_off channel=1 note=71 velocity=64 time=0
EXTRACT: note_off channel=3 note=45 velocity=64 time=0
EXTRACT: note_off channel=9 note=42 velocity=64 time=0
EXTRACT: note_off channel=0 note=88 velocity=64 time=0.0555555
EXTRACT: note_off channel=0 note=88 velocity=64 time=0
EXTRACT: note_off channel=0 note=88 velocity=64 time=0
EXTRACT: note_on channel=6 note=78 velocity=64 time=0.0555555
EXTRACT: note_on channel=0 note=90 velocity=67 time=0
EXTRACT: note_on channel=0 note=90 velocity=67 time=0
EXTRACT: note_on channel=0 note=86 velocity=67 time=0
EXTRACT: note_on channel=1 note=69 velocity=23 time=0
EXTRACT: note_on channel=3 note=45 velocity=64 time=0
EXTRACT: note_on channel=9 note=42 velocity=64 time=0
EXTRACT: note_off channel=0 note=90 velocity=64 time=0.111111
EXTRACT: note_off channel=0 note=90 velocity=64 time=0
EXTRACT: note_off channel=0 note=86 velocity=64 time=0
EXTRACT: note_on channel=0 note=90 velocity=67 time=0.0555555
EXTRACT: note_on channel=0 note=86 velocity=67 time=0
EXTRACT: note_off channel=6 note=78 velocity=64 time=0.0555555
EXTRACT: note_off channel=1 note=69 velocity=64 time=0
EXTRACT: note_off channel=3 note=45 velocity=64 time=0
EXTRACT: note_off channel=9 note=42 velocity=64 time=0
EXTRACT: note_off channel=0 note=90 velocity=64 time=0.0555555
EXTRACT: note_off channel=0 note=86 velocity=64 time=0
EXTRACT: note_on channel=6 note=81 velocity=64 time=0.0555555
EXTRACT: note_on channel=0 note=92 velocity=67 time=0
EXTRACT: note_on channel=0 note=88 velocity=67 time=0
EXTRACT: note_on channel=1 note=57 velocity=23 time=0
EXTRACT: note_on channel=3 note=42 velocity=64 time=0
EXTRACT: note_on channel=9 note=42 velocity=64 time=0
EXTRACT: note_off channel=6 note=81 velocity=64 time=0.111111
EXTRACT: note_off channel=0 note=92 velocity=64 time=0
EXTRACT: note_off channel=0 note=88 velocity=64 time=0
EXTRACT: note_on channel=6 note=79 velocity=64 time=0.0555555
EXTRACT: note_on channel=0 note=92 velocity=67 time=0
EXTRACT: note_on channel=0 note=88 velocity=67 time=0
EXTRACT: note_off channel=1 note=57 velocity=64 time=0.0555555
EXTRACT: note_off channel=9 note=42 velocity=64 time=0
EXTRACT: note_off channel=6 note=79 velocity=64 time=0.0555555
EXTRACT: note_off channel=0 note=92 velocity=64 time=0
EXTRACT: note_off channel=0 note=88 velocity=64 time=0
EXTRACT: note_on channel=6 note=81 velocity=64 time=0.0555555
EXTRACT: note_on channel=0 note=93 velocity=67 time=0
EXTRACT: note_on channel=1 note=61 velocity=23 time=0
EXTRACT: note_on channel=9 note=42 velocity=64 time=0
EXTRACT: note_off channel=6 note=81 velocity=64 time=0.111111
EXTRACT: note_off channel=0 note=93 velocity=64 time=0
EXTRACT: note_on channel=6 note=79 velocity=64 time=0.0555555
EXTRACT: note_on channel=0 note=93 velocity=67 time=0
EXTRACT: note_off channel=1 note=61 velocity=64 time=0.0555555
EXTRACT: note_off channel=9 note=42 velocity=64 time=0
EXTRACT: note_off channel=6 note=79 velocity=64 time=0.0555555
EXTRACT: note_off channel=0 note=93 velocity=64 time=0
EXTRACT: note_on channel=6 note=81 velocity=64 time=0.0555555
EXTRACT: note_on channel=0 note=93 velocity=67 time=0
EXTRACT: note_on channel=1 note=66 velocity=23 time=0
EXTRACT: note_on channel=9 note=42 velocity=64 time=0
EXTRACT: note_off channel=6 note=81 velocity=64 time=0.111111
EXTRACT: note_off channel=0 note=93 velocity=64 time=0
EXTRACT: note_on channel=6 note=78 velocity=64 time=0.0555555
EXTRACT: note_on channel=0 note=93 velocity=67 time=0
EXTRACT: note_on channel=1 note=71 velocity=23 time=0
EXTRACT: note_off channel=1 note=66 velocity=64 time=0.0555555
EXTRACT: note_off channel=9 note=42 velocity=64 time=0
EXTRACT: note_off channel=6 note=78 velocity=64 time=0.0555555
EXTRACT: note_off channel=0 note=93 velocity=64 time=0
EXTRACT: note_off channel=1 note=71 velocity=64 time=0
EXTRACT: note_on channel=6 note=81 velocity=64 time=0.0555555
EXTRACT: note_on channel=0 note=93 velocity=67 time=0
EXTRACT: note_on channel=0 note=93 velocity=67 time=0
EXTRACT: note_on channel=1 note=76 velocity=23 time=0
EXTRACT: note_on channel=1 note=73 velocity=23 time=0
EXTRACT: note_on channel=9 note=42 velocity=64 time=0
EXTRACT: note_on channel=9 note=38 velocity=64 time=0
EXTRACT: note_on channel=7 note=90 velocity=1 time=0
EXTRACT: note_on channel=7 note=86 velocity=1 time=0
EXTRACT: note_on channel=7 note=81 velocity=1 time=0
EXTRACT: note_off channel=6 note=81 velocity=64 time=0.111111
EXTRACT: note_off channel=0 note=93 velocity=64 time=0
EXTRACT: note_off channel=0 note=93 velocity=64 time=0
EXTRACT: note_on channel=6 note=78 velocity=64 time=0.0555555
EXTRACT: note_on channel=0 note=93 velocity=67 time=0
EXTRACT: note_off channel=1 note=76 velocity=64 time=0.0555555
EXTRACT: note_off channel=1 note=73 velocity=64 time=0
EXTRACT: note_off channel=9 note=42 velocity=64 time=0
EXTRACT: note_off channel=9 note=38 velocity=64 time=0
EXTRACT: note_off channel=7 note=90 velocity=64 time=0
EXTRACT: note_off channel=7 note=86 velocity=64 time=0
EXTRACT: note_off channel=7 note=81 velocity=64 time=0
EXTRACT: note_off channel=6 note=78 velocity=64 time=0.0555555
EXTRACT: note_off channel=0 note=93 velocity=64 time=0
EXTRACT: note_on channel=6 note=81 velocity=64 time=0.0555555
EXTRACT: note_on channel=0 note=95 velocity=67 time=0
EXTRACT: note_on channel=1 note=71 velocity=23 time=0
EXTRACT: note_off channel=3 note=42 velocity=64 time=0
EXTRACT: note_on channel=9 note=42 velocity=64 time=0
EXTRACT: note_off channel=6 note=81 velocity=64 time=0.111111
EXTRACT: note_off channel=0 note=95 velocity=64 time=0
EXTRACT: note_on channel=6 note=81 velocity=64 time=0.0555555
EXTRACT: note_on channel=0 note=95 velocity=67 time=0
EXTRACT: note_off channel=1 note=71 velocity=64 time=0.0555555
EXTRACT: note_off channel=9 note=42 velocity=64 time=0
EXTRACT: note_off channel=6 note=81 velocity=64 time=0.0555555
EXTRACT: note_off channel=0 note=95 velocity=64 time=0
EXTRACT: note_on channel=6 note=81 velocity=64 time=0.0555555
EXTRACT: note_on channel=0 note=97 velocity=67 time=0
EXTRACT: note_on channel=1 note=69 velocity=23 time=0
EXTRACT: note_on channel=3 note=42 velocity=64 time=0
EXTRACT: note_on channel=9 note=42 velocity=64 time=0
EXTRACT: note_off channel=6 note=81 velocity=64 time=0.111111
EXTRACT: note_off channel=0 note=97 velocity=64 time=0
EXTRACT: note_on channel=6 note=85 velocity=64 time=0.0555555
EXTRACT: note_on channel=0 note=97 velocity=67 time=0
EXTRACT: note_off channel=1 note=69 velocity=64 time=0.0555555
EXTRACT: note_off channel=3 note=42 velocity=64 time=0
EXTRACT: note_off channel=9 note=42 velocity=64 time=0
EXTRACT: note_off channel=0 note=97 velocity=64 time=0.0555555
EXTRACT: note_on channel=0 note=97 velocity=67 time=0.0555555
EXTRACT: note_on channel=1 note=62 velocity=23 time=0
EXTRACT: note_on channel=3 note=38 velocity=64 time=0
EXTRACT: note_on channel=9 note=42 velocity=64 time=0
EXTRACT: note_off channel=0 note=97 velocity=64 time=0.111111
EXTRACT: note_on channel=0 note=97 velocity=67 time=0.0555555
EXTRACT: note_off channel=6 note=85 velocity=64 time=0.0555555
EXTRACT: note_off channel=1 note=62 velocity=64 time=0
EXTRACT: note_off channel=9 note=42 velocity=64 time=0
EXTRACT: note_off channel=0 note=97 velocity=64 time=0.0555555
EXTRACT: note_on channel=0 note=97 velocity=67 time=0.0555555
EXTRACT: note_on channel=1 note=69 velocity=23 time=0
EXTRACT: note_on channel=9 note=42 velocity=64 time=0
EXTRACT: note_off channel=0 note=97 velocity=64 time=0.111111
EXTRACT: note_on channel=0 note=97 velocity=67 time=0.0555555
EXTRACT: note_off channel=1 note=69 velocity=64 time=0.0555555
EXTRACT: note_off channel=9 note=42 velocity=64 time=0
EXTRACT: note_off channel=0 note=97 velocity=64 time=0.0555555
EXTRACT: note_on channel=6 note=81 velocity=64 time=0.0555555
EXTRACT: note_on channel=0 note=97 velocity=67 time=0
EXTRACT: note_on channel=1 note=74 velocity=23 time=0
EXTRACT: note_on channel=9 note=42 velocity=64 time=0
EXTRACT: note_off channel=6 note=81 velocity=64 time=0.111111
EXTRACT: note_off channel=0 note=97 velocity=64 time=0
EXTRACT: note_on channel=6 note=78 velocity=64 time=0.0555555
EXTRACT: note_on channel=0 note=97 velocity=67 time=0
EXTRACT: note_on channel=1 note=76 velocity=23 time=0
EXTRACT: note_on channel=7 note=88 velocity=1 time=0
EXTRACT: note_off channel=1 note=74 velocity=64 time=0.0555555
EXTRACT: note_off channel=9 note=42 velocity=64 time=0
EXTRACT: note_off channel=6 note=78 velocity=64 time=0.0555555
EXTRACT: note_off channel=0 note=97 velocity=64 time=0
EXTRACT: note_off channel=1 note=76 velocity=64 time=0
EXTRACT: note_off channel=7 note=88 velocity=64 time=0
EXTRACT: note_on channel=6 note=81 velocity=64 time=0.0555555
EXTRACT: note_on channel=6 note=78 velocity=64 time=0
EXTRACT: note_on channel=0 note=93 velocity=67 time=0
EXTRACT: note_on channel=1 note=78 velocity=23 time=0
EXTRACT: note_on channel=9 note=42 velocity=64 time=0
EXTRACT: note_on channel=9 note=38 velocity=64 time=0
EXTRACT: note_on channel=7 note=90 velocity=1 time=0
EXTRACT: note_on channel=7 note=93 velocity=1 time=0
EXTRACT: note_on channel=7 note=97 velocity=1 time=0
EXTRACT: note_off channel=6 note=78 velocity=64 time=0.111111
EXTRACT: note_off channel=0 note=93 velocity=64 time=0
EXTRACT: note_on channel=0 note=93 velocity=67 time=0.0555555
EXTRACT: note_off channel=1 note=78 velocity=64 time=0.0555555
EXTRACT: note_off channel=9 note=42 velocity=64 time=0
EXTRACT: note_off channel=9 note=38 velocity=64 time=0
EXTRACT: note_off channel=7 note=90 velocity=64 time=0
EXTRACT: note_off channel=7 note=93 velocity=64 time=0
EXTRACT: note_off channel=7 note=97 velocity=64 time=0
EXTRACT: note_off channel=0 note=93 velocity=64 time=0.0555555
EXTRACT: note_on channel=0 note=93 velocity=67 time=0.0555555
EXTRACT: note_on channel=1 note=76 velocity=23 time=0
EXTRACT: note_off channel=3 note=38 velocity=64 time=0
EXTRACT: note_on channel=9 note=42 velocity=64 time=0
EXTRACT: note_off channel=6 note=81 velocity=64 time=0.111111
EXTRACT: note_off channel=0 note=93 velocity=64 time=0
EXTRACT: note_on channel=0 note=93 velocity=67 time=0.0555555
EXTRACT: note_off channel=1 note=76 velocity=64 time=0.0555555
EXTRACT: note_off channel=9 note=42 velocity=64 time=0
EXTRACT: note_off channel=0 note=93 velocity=64 time=0.0555555
EXTRACT: note_on channel=6 note=81 velocity=64 time=0.0555555
EXTRACT: note_on channel=0 note=93 velocity=67 time=0
EXTRACT: note_on channel=1 note=69 velocity=23 time=0
EXTRACT: note_on channel=3 note=38 velocity=64 time=0
EXTRACT: note_on channel=9 note=42 velocity=64 time=0
EXTRACT: note_on channel=7 note=78 velocity=1 time=0
EXTRACT: note_off channel=0 note=93 velocity=64 time=0.111111
EXTRACT: note_on channel=0 note=93 velocity=67 time=0.0555555
EXTRACT: note_off channel=6 note=81 velocity=64 time=0.0555555
EXTRACT: note_off channel=1 note=69 velocity=64 time=0
EXTRACT: note_off channel=3 note=38 velocity=64 time=0
EXTRACT: note_off channel=9 note=42 velocity=64 time=0
EXTRACT: note_off channel=7 note=78 velocity=64 time=0
EXTRACT: note_off channel=0 note=93 velocity=64 time=0.0555555
EXTRACT: note_on channel=6 note=78 velocity=64 time=0.0555555
EXTRACT: note_on channel=0 note=90 velocity=67 time=0
EXTRACT: note_on channel=1 note=62 velocity=23 time=0
EXTRACT: note_on channel=3 note=38 velocity=64 time=0
EXTRACT: note_on channel=9 note=42 velocity=64 time=0
EXTRACT: note_on channel=7 note=86 velocity=1 time=0
EXTRACT: note_on channel=7 note=81 velocity=1 time=0
EXTRACT: note_off channel=6 note=78 velocity=64 time=0.111111
EXTRACT: note_off channel=0 note=90 velocity=64 time=0
EXTRACT: note_on channel=6 note=81 velocity=64 time=0.0555555
EXTRACT: note_on channel=0 note=90 velocity=67 time=0
EXTRACT: note_off channel=1 note=62 velocity=64 time=0.0555555
EXTRACT: note_off channel=9 note=42 velocity=64 time=0
EXTRACT: note_off channel=6 note=81 velocity=64 time=0.0555555
EXTRACT: note_off channel=0 note=90 velocity=64 time=0
EXTRACT: note_on channel=0 note=90 velocity=67 time=0.0555555
EXTRACT: note_on channel=1 note=69 velocity=23 time=0
EXTRACT: note_on channel=9 note=42 velocity=64 time=0
EXTRACT: note_off channel=0 note=90 velocity=64 time=0.111111
EXTRACT: note_on channel=0 note=90 velocity=67 time=0.0555555
EXTRACT: note_off channel=1 note=69 velocity=64 time=0.0555555
EXTRACT: note_off channel=9 note=42 velocity=64 time=0
EXTRACT: note_off channel=0 note=90 velocity=64 time=0.0555555
EXTRACT: note_on channel=0 note=90 velocity=67 time=0.0555555
EXTRACT: note_on channel=0 note=90 velocity=67 time=0
EXTRACT: note_on channel=1 note=74 velocity=23 time=0
EXTRACT: note_on channel=9 note=42 velocity=64 time=0
EXTRACT: note_off channel=0 note=90 velocity=64 time=0.111111
EXTRACT: note_off channel=0 note=90 velocity=64 time=0
EXTRACT: note_on channel=0 note=90 velocity=67 time=0.0555555
EXTRACT: note_on channel=0 note=90 velocity=67 time=0
EXTRACT: note_on channel=0 note=90 velocity=67 time=0
EXTRACT: note_on channel=0 note=90 velocity=67 time=0
EXTRACT: note_on channel=1 note=76 velocity=23 time=0
EXTRACT: note_on channel=9 note=38 velocity=64 time=0
EXTRACT: note_off channel=1 note=74 velocity=64 time=0.0555555
EXTRACT: note_off channel=9 note=42 velocity=64 time=0
EXTRACT: note_off channel=7 note=86 velocity=64 time=0
EXTRACT: note_off channel=7 note=81 velocity=64 time=0
EXTRACT: note_off channel=0 note=90 velocity=64 time=0.0555555
EXTRACT: note_off channel=0 note=90 velocity=64 time=0
EXTRACT: note_off channel=0 note=90 velocity=64 time=0
EXTRACT: note_off channel=0 note=90 velocity=64 time=0
EXTRACT: note_off channel=1 note=76 velocity=64 time=0
EXTRACT: note_off channel=9 note=38 velocity=64 time=0
EXTRACT: note_on channel=0 note=90 velocity=67 time=0.0555555
EXTRACT: note_on channel=1 note=77 velocity=23 time=0
EXTRACT: note_on channel=9 note=42 velocity=64 time=0
EXTRACT: note_on channel=9 note=38 velocity=64 time=0
EXTRACT: note_off channel=0 note=90 velocity=64 time=0.111111
EXTRACT: note_on channel=0 note=90 velocity=67 time=0.0555555
EXTRACT: note_off channel=1 note=77 velocity=64 time=0.0555555
EXTRACT: note_off channel=9 note=42 velocity=64 time=0
EXTRACT: note_off channel=9 note=38 velocity=64 time=0
EXTRACT: note_off channel=0 note=90 velocity=64 time=0.0555555
EXTRACT: note_on channel=0 note=90 velocity=67 time=0.0555555
EXTRACT: note_on channel=1 note=76 velocity=23 time=0
EXTRACT: note_off channel=3 note=38 velocity=64 time=0
EXTRACT: note_on channel=9 note=42 velocity=64 time=0
EXTRACT: note_on channel=9 note=38 velocity=64 time=0
EXTRACT: note_on channel=7 note=88 velocity=1 time=0
EXTRACT: note_off channel=0 note=90 velocity=64 time=0.111111
EXTRACT: note_on channel=0 note=90 velocity=67 time=0.0555555
EXTRACT: note_off channel=1 note=76 velocity=64 time=0.0555555
EXTRACT: note_off channel=9 note=42 velocity=64 time=0
EXTRACT: note_off channel=9 note=38 velocity=64 time=0
EXTRACT: note_off channel=7 note=88 velocity=64 time=0
EXTRACT: note_off channel=0 note=90 velocity=64 time=0.0555555
EXTRACT: note_on channel=0 note=90 velocity=67 time=0.0555555
EXTRACT: note_on channel=1 note=74 velocity=23 time=0
EXTRACT: note_on channel=3 note=38 velocity=64 time=0
EXTRACT: note_on channel=9 note=42 velocity=64 time=0
EXTRACT: note_on channel=9 note=38 velocity=64 time=0
EXTRACT: note_on channel=7 note=100 velocity=1 time=0
EXTRACT: note_off channel=0 note=90 velocity=64 time=0.111111
EXTRACT: note_on channel=0 note=90 velocity=67 time=0.0555555
EXTRACT: note_off channel=1 note=74 velocity=64 time=0.0555555
EXTRACT: note_off channel=3 note=38 velocity=64 time=0
EXTRACT: note_off channel=9 note=42 velocity=64 time=0
EXTRACT: note_off channel=9 note=38 velocity=64 time=0
EXTRACT: note_off channel=7 note=100 velocity=64 time=0
EXTRACT: note_off channel=0 note=90 velocity=64 time=0.0555555
EXTRACT: note_on channel=0 note=88 velocity=67 time=0.0555555
EXTRACT: note_on channel=1 note=52 velocity=37 time=0
EXTRACT: note_on channel=3 note=40 velocity=64 time=0
EXTRACT: note_on channel=9 note=42 velocity=64 time=0
EXTRACT: note_on channel=9 note=49 velocity=64 time=0
EXTRACT: note_on channel=7 note=64 velocity=1 time=0
EXTRACT: note_off channel=0 note=88 velocity=64 time=0.111111
EXTRACT: note_on channel=0 note=88 velocity=67 time=0.0555555
EXTRACT: note_off channel=1 note=52 velocity=64 time=0.0555555
EXTRACT: note_off channel=9 note=42 velocity=64 time=0
EXTRACT: note_off channel=9 note=49 velocity=64 time=0
EXTRACT: note_off channel=7 note=64 velocity=64 time=0
EXTRACT: note_off channel=0 note=88 velocity=64 time=0.0555555
EXTRACT: note_on channel=0 note=88 velocity=67 time=0.0555555
EXTRACT: note_on channel=1 note=59 velocity=37 time=0
EXTRACT: note_on channel=9 note=42 velocity=64 time=0
EXTRACT: note_on channel=7 note=88 velocity=1 time=0
EXTRACT: note_on channel=7 note=83 velocity=1 time=0
EXTRACT: note_off channel=0 note=88 velocity=64 time=0.111111
EXTRACT: note_on channel=0 note=88 velocity=67 time=0.0555555
EXTRACT: note_off channel=1 note=59 velocity=64 time=0.0555555
EXTRACT: note_off channel=9 note=42 velocity=64 time=0
EXTRACT: note_off channel=0 note=88 velocity=64 time=0.0555555
EXTRACT: note_on channel=0 note=88 velocity=67 time=0.0555555
EXTRACT: note_on channel=1 note=64 velocity=37 time=0
EXTRACT: note_on channel=9 note=42 velocity=64 time=0
EXTRACT: note_off channel=0 note=88 velocity=64 time=0.111111
EXTRACT: note_off channel=7 note=88 velocity=64 time=0
EXTRACT: note_off channel=7 note=83 velocity=64 time=0
EXTRACT: note_on channel=0 note=88 velocity=67 time=0.0555555
EXTRACT: note_on channel=1 note=67 velocity=37 time=0
EXTRACT: note_off channel=1 note=64 velocity=64 time=0.0555555
EXTRACT: note_off channel=9 note=42 velocity=64 time=0
EXTRACT: note_off channel=0 note=88 velocity=64 time=0.0555555
EXTRACT: note_off channel=1 note=67 velocity=64 time=0
EXTRACT: note_on channel=6 note=76 velocity=64 time=0.0555555
EXTRACT: note_on channel=0 note=88 velocity=67 time=0
EXTRACT: note_on channel=1 note=68 velocity=37 time=0
EXTRACT: note_on channel=1 note=71 velocity=37 time=0
EXTRACT: note_on channel=9 note=42 velocity=64 time=0
EXTRACT: note_on channel=9 note=38 velocity=64 time=0
EXTRACT: note_on channel=7 note=68 velocity=1 time=0
EXTRACT: note_off channel=6 note=76 velocity=64 time=0.222222
EXTRACT: note_off channel=0 note=88 velocity=64 time=0
EXTRACT: note_off channel=1 note=68 velocity=64 time=0
EXTRACT: note_off channel=1 note=71 velocity=64 time=0
EXTRACT: note_off channel=9 note=42 velocity=64 time=0
EXTRACT: note_off channel=9 note=38 velocity=64 time=0
EXTRACT: note_off channel=7 note=68 velocity=64 time=0
EXTRACT: note_on channel=6 note=76 velocity=64 time=0.111111
EXTRACT: note_on channel=0 note=85 velocity=67 time=0
EXTRACT: note_on channel=1 note=64 velocity=37 time=0
EXTRACT: note_off channel=3 note=40 velocity=64 time=0
EXTRACT: note_on channel=9 note=42 velocity=64 time=0
EXTRACT: note_on channel=7 note=76 velocity=1 time=0
EXTRACT: note_off channel=6 note=76 velocity=64 time=0.222222
EXTRACT: note_off channel=0 note=85 velocity=64 time=0
EXTRACT: note_off channel=1 note=64 velocity=64 time=0
EXTRACT: note_off channel=9 note=42 velocity=64 time=0
EXTRACT: note_off channel=7 note=76 velocity=64 time=0
EXTRACT: note_on channel=6 note=76 velocity=64 time=0.111111
EXTRACT: note_on channel=0 note=85 velocity=67 time=0
EXTRACT: note_on channel=1 note=59 velocity=37 time=0
EXTRACT: note_on channel=3 note=40 velocity=64 time=0
EXTRACT: note_on channel=9 note=42 velocity=64 time=0
EXTRACT: note_on channel=7 note=68 velocity=1 time=0
EXTRACT: note_on channel=7 note=67 velocity=1 time=0.1666665
EXTRACT: note_off channel=6 note=76 velocity=64 time=0.0555555
EXTRACT: note_off channel=0 note=85 velocity=64 time=0
EXTRACT: note_off channel=1 note=59 velocity=64 time=0
EXTRACT: note_off channel=3 note=40 velocity=64 time=0
EXTRACT: note_off channel=9 note=42 velocity=64 time=0
EXTRACT: note_off channel=7 note=68 velocity=64 time=0
EXTRACT: note_off channel=7 note=67 velocity=64 time=0.0555555
EXTRACT: note_on channel=6 note=78 velocity=64 time=0.0555555
EXTRACT: note_on channel=0 note=85 velocity=67 time=0
EXTRACT: note_on channel=1 note=54 velocity=37 time=0
EXTRACT: note_on channel=3 note=42 velocity=64 time=0
EXTRACT: note_on channel=9 note=42 velocity=64 time=0
EXTRACT: note_on channel=7 note=66 velocity=1 time=0
EXTRACT: note_off channel=6 note=78 velocity=64 time=0.222222
EXTRACT: note_off channel=1 note=54 velocity=64 time=0
EXTRACT: note_off channel=9 note=42 velocity=64 time=0
EXTRACT: note_off channel=7 note=66 velocity=64 time=0
EXTRACT: note_on channel=6 note=81 velocity=64 time=0.111111
EXTRACT: note_on channel=1 note=61 velocity=37 time=0
EXTRACT: note_on channel=9 note=42 velocity=64 time=0
EXTRACT: note_on channel=7 note=81 velocity=1 time=0
EXTRACT: note_on channel=7 note=76 velocity=1 time=0
EXTRACT: note_off channel=7 note=81 velocity=64 time=0.111111
EXTRACT: note_off channel=7 note=76 velocity=64 time=0
EXTRACT: note_on channel=7 note=78 velocity=1 time=0.0555555
EXTRACT: note_on channel=7 note=83 velocity=1 time=0
EXTRACT: note_off channel=6 note=81 velocity=64 time=0.0555555
EXTRACT: note_off channel=1 note=61 velocity=64 time=0
EXTRACT: note_off channel=9 note=42 velocity=64 time=0
EXTRACT: note_off channel=7 note=78 velocity=64 time=0.0555555
EXTRACT: note_off channel=7 note=83 velocity=64 time=0
EXTRACT: note_off channel=0 note=85 velocity=64 time=0.0555555
EXTRACT: note_on channel=1 note=66 velocity=37 time=0
EXTRACT: note_on channel=9 note=42 velocity=64 time=0
EXTRACT: note_on channel=7 note=85 velocity=1 time=0
EXTRACT: note_on channel=7 note=81 velocity=1 time=0
EXTRACT: note_off channel=7 note=85 velocity=64 time=0.111111
EXTRACT: note_off channel=7 note=81 velocity=64 time=0
EXTRACT: note_on channel=1 note=71 velocity=37 time=0.0555555
EXTRACT: note_on channel=7 note=87 velocity=1 time=0
EXTRACT: note_on channel=7 note=83 velocity=1 time=0
EXTRACT: note_off channel=1 note=66 velocity=64 time=0.0555555
EXTRACT: note_off channel=9 note=42 velocity=64 time=0
EXTRACT: note_off channel=1 note=71 velocity=64 time=0.0555555
EXTRACT: note_off channel=7 note=87 velocity=64 time=0
EXTRACT: note_off channel=7 note=83 velocity=64 time=0
EXTRACT: note_on channel=1 note=76 velocity=37 time=0.0555555
EXTRACT: note_on channel=1 note=73 velocity=37 time=0
EXTRACT: note_on channel=9 note=42 velocity=64 time=0
EXTRACT: note_on channel=9 note=38 velocity=64 time=0
EXTRACT: note_on channel=7 note=88 velocity=1 time=0
EXTRACT: note_on channel=7 note=84 velocity=1 time=0
EXTRACT: note_off channel=7 note=88 velocity=64 time=0.111111
EXTRACT: note_off channel=7 note=84 velocity=64 time=0
EXTRACT: note_on channel=7 note=87 velocity=1 time=0.0555555
EXTRACT: note_on channel=7 note=83 velocity=1 time=0
EXTRACT: note_off channel=1 note=76 velocity=64 time=0.0555555
EXTRACT: note_off channel=1 note=73 velocity=64 time=0
EXTRACT: note_off channel=9 note=42 velocity=64 time=0
EXTRACT: note_off channel=9 note=38 velocity=64 time=0
EXTRACT: note_off channel=7 note=87 velocity=64 time=0.0555555
EXTRACT: note_off channel=7 note=83 velocity=64 time=0
EXTRACT: note_on channel=6 note=78 velocity=64 time=0.0555555
EXTRACT: note_on channel=0 note=85 velocity=67 time=0
EXTRACT: note_on channel=1 note=71 velocity=37 time=0
EXTRACT: note_off channel=3 note=42 velocity=64 time=0
EXTRACT: note_on channel=9 note=42 velocity=64 time=0
EXTRACT: note_on channel=7 note=85 velocity=1 time=0
EXTRACT: note_on channel=7 note=81 velocity=1 time=0
EXTRACT: note_off channel=6 note=78 velocity=64 time=0.111111
EXTRACT: note_off channel=7 note=85 velocity=64 time=0
EXTRACT: note_off channel=7 note=81 velocity=64 time=0
EXTRACT: note_on channel=6 note=81 velocity=64 time=0.0555555
EXTRACT: note_on channel=7 note=78 velocity=1 time=0
EXTRACT: note_off channel=0 note=85 velocity=64 time=0.0555555
EXTRACT: note_off channel=1 note=71 velocity=64 time=0
EXTRACT: note_off channel=9 note=42 velocity=64 time=0
EXTRACT: note_off channel=6 note=81 velocity=64 time=0.0555555
EXTRACT: note_off channel=7 note=78 velocity=64 time=0
EXTRACT: note_on channel=6 note=81 velocity=64 time=0.0555555
EXTRACT: note_on channel=0 note=85 velocity=67 time=0
EXTRACT: note_on channel=1 note=69 velocity=37 time=0
EXTRACT: note_on channel=3 note=42 velocity=64 time=0
EXTRACT: note_on channel=9 note=42 velocity=64 time=0
EXTRACT: note_on channel=7 note=90 velocity=1 time=0
EXTRACT: note_on channel=7 note=86 velocity=1 time=0
EXTRACT: note_off channel=6 note=81 velocity=64 time=0.111111
EXTRACT: note_on channel=6 note=78 velocity=64 time=0.0555555
EXTRACT: note_off channel=0 note=85 velocity=64 time=0.0555555
EXTRACT: note_off channel=1 note=69 velocity=64 time=0
EXTRACT: note_off channel=3 note=42 velocity=64 time=0
EXTRACT: note_off channel=9 note=42 velocity=64 time=0
EXTRACT: note_off channel=7 note=90 velocity=64 time=0
EXTRACT: note_off channel=7 note=86 velocity=64 time=0
EXTRACT: note_off channel=6 note=78 velocity=64 time=0.0555555
EXTRACT: note_on channel=6 note=83 velocity=64 time=0.0555555
EXTRACT: note_on channel=6 note=81 velocity=64 time=0
EXTRACT: note_on channel=0 note=83 velocity=67 time=0
EXTRACT: note_on channel=1 note=74 velocity=37 time=0
EXTRACT: note_on channel=1 note=67 velocity=37 time=0
EXTRACT: note_on channel=3 note=43 velocity=64 time=0
EXTRACT: note_on channel=9 note=42 velocity=64 time=0
EXTRACT: note_on channel=7 note=67 velocity=1 time=0
EXTRACT: note_off channel=6 note=81 velocity=64 time=0.111111
EXTRACT: note_off channel=6 note=83 velocity=64 time=0.111111
EXTRACT: note_off channel=9 note=42 velocity=64 time=0
EXTRACT: note_off channel=7 note=67 velocity=64 time=0
EXTRACT: note_on channel=6 note=81 velocity=64 time=0.111111
EXTRACT: note_on channel=9 note=42 velocity=64 time=0
EXTRACT: note_on channel=7 note=91 velocity=1 time=0
EXTRACT: note_on channel=7 note=83 velocity=1 time=0
EXTRACT: note_on channel=7 note=79 velocity=1 time=0
EXTRACT: note_off channel=6 note=81 velocity=64 time=0.222222
EXTRACT: note_off channel=9 note=42 velocity=64 time=0
EXTRACT: note_off channel=0 note=83 velocity=64 time=0.111111
EXTRACT: note_off channel=1 note=74 velocity=64 time=0
EXTRACT: note_off channel=1 note=67 velocity=64 time=0
EXTRACT: note_on channel=9 note=42 velocity=64 time=0
EXTRACT: note_off channel=7 note=91 velocity=64 time=0.111111
EXTRACT: note_off channel=7 note=83 velocity=64 time=0
EXTRACT: note_off channel=7 note=79 velocity=64 time=0
EXTRACT: note_off channel=9 note=42 velocity=64 time=0.111111
EXTRACT: note_on channel=1 note=74 velocity=37 time=0.111111
EXTRACT: note_on channel=1 note=67 velocity=37 time=0
EXTRACT: note_on channel=9 note=42 velocity=64 time=0
EXTRACT: note_on channel=9 note=38 velocity=64 time=0
EXTRACT: note_on channel=7 note=86 velocity=1 time=0
EXTRACT: note_off channel=9 note=42 velocity=64 time=0.222222
EXTRACT: note_off channel=9 note=38 velocity=64 time=0
EXTRACT: note_off channel=7 note=86 velocity=64 time=0
EXTRACT: note_on channel=6 note=81 velocity=64 time=0.111111
EXTRACT: note_on channel=0 note=83 velocity=67 time=0
EXTRACT: note_off channel=3 note=43 velocity=64 time=0
EXTRACT: note_on channel=9 note=42 velocity=64 time=0
EXTRACT: note_on channel=7 note=95 velocity=1 time=0
EXTRACT: note_off channel=1 note=74 velocity=64 time=0.111111
EXTRACT: note_off channel=1 note=67 velocity=64 time=0
EXTRACT: note_off channel=6 note=81 velocity=64 time=0.111111
EXTRACT: note_off channel=0 note=83 velocity=64 time=0
EXTRACT: note_off channel=9 note=42 velocity=64 time=0
EXTRACT: note_off channel=7 note=95 velocity=64 time=0
EXTRACT: note_on channel=6 note=81 velocity=64 time=0.111111
EXTRACT: note_on channel=0 note=83 velocity=67 time=0
EXTRACT: note_on channel=1 note=74 velocity=37 time=0
EXTRACT: note_on channel=1 note=67 velocity=37 time=0
EXTRACT: note_on channel=3 note=43 velocity=64 time=0
EXTRACT: note_on channel=9 note=42 velocity=64 time=0
EXTRACT: note_on channel=7 note=86 velocity=1 time=0
EXTRACT: note_off channel=6 note=81 velocity=64 time=0.222222
EXTRACT: note_off channel=0 note=83 velocity=64 time=0
EXTRACT: note_off channel=1 note=74 velocity=64 time=0
EXTRACT: note_off channel=1 note=67 velocity=64 time=0
EXTRACT: note_off channel=3 note=43 velocity=64 time=0
EXTRACT: note_off channel=9 note=42 velocity=64 time=0
EXTRACT: note_off channel=7 note=86 velocity=64 time=0
EXTRACT: note_on channel=6 note=81 velocity=64 time=0.111111
EXTRACT: note_on channel=0 note=81 velocity=67 time=0
EXTRACT: note_on channel=1 note=74 velocity=37 time=0
EXTRACT: note_on channel=1 note=69 velocity=37 time=0
EXTRACT: note_on channel=3 note=38 velocity=64 time=0
EXTRACT: note_on channel=9 note=42 velocity=64 time=0
EXTRACT: note_on channel=7 note=86 velocity=1 time=0
EXTRACT: note_off channel=6 note=81 velocity=64 time=0.111111
EXTRACT: note_off channel=7 note=86 velocity=64 time=0
EXTRACT: note_on channel=6 note=76 velocity=64 time=0.0555555
EXTRACT: note_on channel=7 note=93 velocity=1 time=0
EXTRACT: note_off channel=1 note=74 velocity=64 time=0.0555555
EXTRACT: note_off channel=1 note=69 velocity=64 time=0
EXTRACT: note_off channel=9 note=42 velocity=64 time=0
EXTRACT: note_off channel=6 note=76 velocity=64 time=0.0555555
EXTRACT: note_off channel=7 note=93 velocity=64 time=0
EXTRACT: note_on channel=6 note=78 velocity=64 time=0.0555555
EXTRACT: note_on channel=1 note=74 velocity=37 time=0
EXTRACT: note_on channel=1 note=69 velocity=37 time=0
EXTRACT: note_on channel=9 note=42 velocity=64 time=0
EXTRACT: note_on channel=7 note=102 velocity=1 time=0
EXTRACT: note_off channel=7 note=102 velocity=64 time=0.111111
EXTRACT: note_on channel=7 note=93 velocity=1 time=0.0555555
EXTRACT: note_off channel=6 note=78 velocity=64 time=0.0555555
EXTRACT: note_off channel=1 note=74 velocity=64 time=0
EXTRACT: note_off channel=1 note=69 velocity=64 time=0
EXTRACT: note_off channel=9 note=42 velocity=64 time=0
EXTRACT: note_off channel=7 note=93 velocity=64 time=0.0555555
EXTRACT: note_off channel=0 note=81 velocity=64 time=0.0555555
EXTRACT: note_on channel=1 note=74 velocity=37 time=0
EXTRACT: note_on channel=1 note=69 velocity=37 time=0
EXTRACT: note_on channel=9 note=42 velocity=64 time=0
EXTRACT: note_on channel=7 note=102 velocity=1 time=0
EXTRACT: note_off channel=7 note=102 velocity=64 time=0.111111
EXTRACT: note_on channel=9 note=38 velocity=64 time=0.0555555
EXTRACT: note_on channel=7 note=93 velocity=1 time=0
EXTRACT: note_off channel=1 note=74 velocity=64 time=0.0555555
EXTRACT: note_off channel=1 note=69 velocity=64 time=0
EXTRACT: note_off channel=9 note=42 velocity=64 time=0
EXTRACT: note_off channel=9 note=38 velocity=64 time=0.0555555
EXTRACT: note_off channel=7 note=93 velocity=64 time=0
EXTRACT: note_on channel=0 note=81 velocity=67 time=0.0555555
EXTRACT: note_on channel=1 note=69 velocity=37 time=0
EXTRACT: note_on channel=1 note=74 velocity=37 time=0
EXTRACT: note_on channel=9 note=42 velocity=64 time=0
EXTRACT: note_on channel=9 note=38 velocity=64 time=0
EXTRACT: note_on channel=7 note=102 velocity=1 time=0
EXTRACT: note_off channel=7 note=102 velocity=64 time=0.111111
EXTRACT: note_on channel=7 note=93 velocity=1 time=0.0555555
EXTRACT: note_off channel=9 note=42 velocity=64 time=0.0555555
EXTRACT: note_off channel=9 note=38 velocity=64 time=0
EXTRACT: note_off channel=7 note=93 velocity=64 time=0.0555555
EXTRACT: note_off channel=3 note=38 velocity=64 time=0.0555555
EXTRACT: note_on channel=9 note=42 velocity=64 time=0
EXTRACT: note_on channel=9 note=38 velocity=64 time=0
EXTRACT: note_on channel=7 note=102 velocity=1 time=0
EXTRACT: note_off channel=1 note=69 velocity=64 time=0.111111
EXTRACT: note_off channel=1 note=74 velocity=64 time=0
EXTRACT: note_off channel=9 note=42 velocity=64 time=0.111111
EXTRACT: note_off channel=9 note=38 velocity=64 time=0
EXTRACT: note_on channel=6 note=83 velocity=64 time=0.111111
EXTRACT: note_off channel=0 note=81 velocity=64 time=0
EXTRACT: note_on channel=1 note=74 velocity=37 time=0
EXTRACT: note_on channel=1 note=69 velocity=37 time=0
EXTRACT: note_on channel=3 note=38 velocity=64 time=0
EXTRACT: note_on channel=9 note=42 velocity=64 time=0
EXTRACT: note_on channel=9 note=38 velocity=64 time=0
EXTRACT: note_off channel=7 note=102 velocity=64 time=0.111111
EXTRACT: note_off channel=6 note=83 velocity=64 time=0.111111
EXTRACT: note_off channel=1 note=74 velocity=64 time=0
EXTRACT: note_off channel=1 note=69 velocity=64 time=0
EXTRACT: note_off channel=3 note=38 velocity=64 time=0
EXTRACT: note_off channel=9 note=42 velocity=64 time=0
EXTRACT: note_off channel=9 note=38 velocity=64 time=0
EXTRACT: note_on channel=1 note=52 velocity=37 time=0.111111
EXTRACT: note_on channel=3 note=40 velocity=64 time=0
EXTRACT: note_on channel=9 note=42 velocity=64 time=0
EXTRACT: note_on channel=9 note=49 velocity=64 time=0
EXTRACT: note_on channel=7 note=64 velocity=1 time=0
EXTRACT: note_off channel=1 note=52 velocity=64 time=0.222222
EXTRACT: note_off channel=9 note=42 velocity=64 time=0
EXTRACT: note_off channel=9 note=49 velocity=64 time=0
EXTRACT: note_off channel=7 note=64 velocity=64 time=0
EXTRACT: note_on channel=1 note=59 velocity=37 time=0.111111
EXTRACT: note_on channel=9 note=42 velocity=64 time=0
EXTRACT: note_on channel=7 note=88 velocity=1 time=0
EXTRACT: note_on channel=7 note=83 velocity=1 time=0
EXTRACT: note_off channel=1 note=59 velocity=64 time=0.222222
EXTRACT: note_off channel=9 note=42 velocity=64 time=0
EXTRACT: note_on channel=1 note=64 velocity=37 time=0.111111
EXTRACT: note_on channel=9 note=42 velocity=64 time=0
EXTRACT: note_off channel=7 note=88 velocity=64 time=0.111111
EXTRACT: note_off channel=7 note=83 velocity=64 time=0
EXTRACT: note_on channel=1 note=67 velocity=37 time=0.0555555
EXTRACT: note_off channel=1 note=64 velocity=64 time=0.0555555
EXTRACT: note_off channel=9 note=42 velocity=64 time=0
EXTRACT: note_off channel=1 note=67 velocity=64 time=0.0555555
EXTRACT: note_on channel=6 note=84 velocity=64 time=0.0555555
EXTRACT: note_on channel=0 note=88 velocity=67 time=0
EXTRACT: note_on channel=1 note=68 velocity=37 time=0
EXTRACT: note_on channel=1 note=71 velocity=37 time=0
EXTRACT: note_on channel=9 note=42 velocity=64 time=0
EXTRACT: note_on channel=9 note=38 velocity=64 time=0
EXTRACT: note_on channel=7 note=68 velocity=1 time=0
EXTRACT: note_off channel=6 note=84 velocity=64 time=0.222222
EXTRACT: note_off channel=1 note=68 velocity=64 time=0
EXTRACT: note_off channel=1 note=71 velocity=64 time=0
EXTRACT: note_off channel=9 note=42 velocity=64 time=0
EXTRACT: note_off channel=9 note=38 velocity=64 time=0
EXTRACT: note_off channel=7 note=68 velocity=64 time=0
EXTRACT: note_on channel=6 note=83 velocity=64 time=0.111111
EXTRACT: note_on channel=1 note=64 velocity=37 time=0
EXTRACT: note_off channel=3 note=40 velocity=64 time=0
EXTRACT: note_on channel=9 note=42 velocity=64 time=0
EXTRACT: note_on channel=7 note=76 velocity=1 time=0
EXTRACT: note_off channel=0 note=88 velocity=64 time=0.111111
EXTRACT: note_on channel=7 note=66 velocity=1 time=0.0555555
EXTRACT: note_off channel=6 note=83 velocity=64 time=0.0555555
EXTRACT: note_off channel=1 note=64 velocity=64 time=0
EXTRACT: note_off channel=9 note=42 velocity=64 time=0
EXTRACT: note_off channel=7 note=76 velocity=64 time=0
EXTRACT: note_off channel=7 note=66 velocity=64 time=0.0555555
EXTRACT: note_on channel=6 note=81 velocity=64 time=0.0555555
EXTRACT: note_on channel=0 note=83 velocity=67 time=0
EXTRACT: note_on channel=1 note=59 velocity=37 time=0
EXTRACT: note_on channel=3 note=40 velocity=64 time=0
EXTRACT: note_on channel=9 note=42 velocity=64 time=0
EXTRACT: note_on channel=7 note=68 velocity=1 time=0
EXTRACT: note_off channel=6 note=81 velocity=64 time=0.111111
EXTRACT: note_on channel=6 note=78 velocity=64 time=0.0555555
EXTRACT: note_off channel=0 note=83 velocity=64 time=0.0555555
EXTRACT: note_off channel=1 note=59 velocity=64 time=0
EXTRACT: note_off channel=3 note=40 velocity=64 time=0
EXTRACT: note_off channel=9 note=42 velocity=64 time=0
EXTRACT: note_off channel=7 note=68 velocity=64 time=0
EXTRACT: note_off channel=6 note=78 velocity=64 time=0.0555555
EXTRACT: note_on channel=6 note=81 velocity=64 time=0.0555555
EXTRACT: note_on channel=0 note=85 velocity=67 time=0
EXTRACT: note_on channel=1 note=54 velocity=37 time=0
EXTRACT: note_on channel=3 note=42 velocity=64 time=0
EXTRACT: note_on channel=9 note=42 velocity=64 time=0
EXTRACT: note_on channel=7 note=66 velocity=1 time=0
EXTRACT: note_off channel=6 note=81 velocity=64 time=0.111111
EXTRACT: note_on channel=6 note=83 velocity=64 time=0.0555555
EXTRACT: note_off channel=1 note=54 velocity=64 time=0.0555555
EXTRACT: note_off channel=9 note=42 velocity=64 time=0
EXTRACT: note_off channel=7 note=66 velocity=64 time=0
EXTRACT: note_off channel=6 note=83 velocity=64 time=0.0555555
EXTRACT: note_on channel=6 note=85 velocity=64 time=0.0555555
EXTRACT: note_on channel=1 note=61 velocity=37 time=0
EXTRACT: note_on channel=9 note=42 velocity=64 time=0
EXTRACT: note_on channel=7 note=76 velocity=1 time=0
EXTRACT: note_on channel=7 note=81 velocity=1 time=0
EXTRACT: note_off channel=7 note=76 velocity=64 time=0.111111
EXTRACT: note_off channel=7 note=81 velocity=64 time=0
EXTRACT: note_on channel=7 note=78 velocity=1 time=0.0555555
EXTRACT: note_on channel=7 note=83 velocity=1 time=0
EXTRACT: note_off channel=6 note=85 velocity=64 time=0.0555555
EXTRACT: note_off channel=1 note=61 velocity=64 time=0
EXTRACT: note_off channel=9 note=42 velocity=64 time=0
EXTRACT: note_off channel=7 note=78 velocity=64 time=0.0555555
EXTRACT: note_off channel=7 note=83 velocity=64 time=0
EXTRACT: note_off channel=0 note=85 velocity=64 time=0.0555555
EXTRACT: note_on channel=1 note=66 velocity=37 time=0
EXTRACT: note_on channel=9 note=42 velocity=64 time=0
EXTRACT: note_on channel=7 note=81 velocity=1 time=0
EXTRACT: note_on channel=7 note=85 velocity=1 time=0
EXTRACT: note_off channel=7 note=81 velocity=64 time=0.111111
EXTRACT: note_off channel=7 note=85 velocity=64 time=0
EXTRACT: note_on channel=1 note=71 velocity=37 time=0.0555555
EXTRACT: note_on channel=7 note=83 velocity=1 time=0
EXTRACT: note_on channel=7 note=83 velocity=1 time=0
EXTRACT: note_on channel=7 note=87 velocity=1 time=0
EXTRACT: note_off channel=1 note=66 velocity=64 time=0.0555555
EXTRACT: note_off channel=9 note=42 velocity=64 time=0
EXTRACT: note_off channel=1 note=71 velocity=64 time=0.0555555
EXTRACT: note_off channel=7 note=83 velocity=64 time=0
EXTRACT: note_off channel=7 note=83 velocity=64 time=0
EXTRACT: note_off channel=7 note=87 velocity=64 time=0
EXTRACT: note_on channel=1 note=76 velocity=37 time=0.0555555
EXTRACT: note_on channel=1 note=73 velocity=37 time=0
EXTRACT: note_on channel=9 note=42 velocity=64 time=0
EXTRACT: note_on channel=9 note=38 velocity=64 time=0
EXTRACT: note_on channel=7 note=84 velocity=1 time=0
EXTRACT: note_on channel=7 note=88 velocity=1 time=0
EXTRACT: note_off channel=7 note=84 velocity=64 time=0.111111
EXTRACT: note_off channel=7 note=88 velocity=64 time=0
EXTRACT: note_on channel=6 note=85 velocity=64 time=0.0555555
EXTRACT: note_on channel=7 note=84 velocity=1 time=0
EXTRACT: note_on channel=7 note=87 velocity=1 time=0
EXTRACT: note_off channel=1 note=76 velocity=64 time=0.0555555
EXTRACT: note_off channel=1 note=73 velocity=64 time=0
EXTRACT: note_off channel=9 note=42 velocity=64 time=0
EXTRACT: note_off channel=9 note=38 velocity=64 time=0
EXTRACT: note_off channel=7 note=84 velocity=64 time=0.0555555
EXTRACT: note_off channel=7 note=87 velocity=64 time=0
EXTRACT: note_on channel=0 note=85 velocity=67 time=0.0555555
EXTRACT: note_on channel=1 note=71 velocity=37 time=0
EXTRACT: note_off channel=3 note=42 velocity=64 time=0
EXTRACT: note_on channel=9 note=42 velocity=64 time=0
EXTRACT: note_on channel=7 note=81 velocity=1 time=0
EXTRACT: note_on channel=7 note=85 velocity=1 time=0
EXTRACT: note_off channel=6 note=85 velocity=64 time=0.0555555
EXTRACT: note_off channel=7 note=81 velocity=64 time=0.0555555
EXTRACT: note_off channel=7 note=85 velocity=64 time=0
EXTRACT: note_on channel=6 note=81 velocity=64 time=0.0555555
EXTRACT: note_on channel=7 note=78 velocity=1 time=0
EXTRACT: note_off channel=0 note=85 velocity=64 time=0.0555555
EXTRACT: note_off channel=1 note=71 velocity=64 time=0
EXTRACT: note_off channel=9 note=42 velocity=64 time=0
EXTRACT: note_off channel=6 note=81 velocity=64 time=0.0555555
EXTRACT: note_off channel=7 note=78 velocity=64 time=0
EXTRACT: note_on channel=6 note=78 velocity=64 time=0.0555555
EXTRACT: note_on channel=0 note=85 velocity=67 time=0
EXTRACT: note_on channel=1 note=69 velocity=37 time=0
EXTRACT: note_on channel=3 note=42 velocity=64 time=0
EXTRACT: note_on channel=9 note=42 velocity=64 time=0
EXTRACT: note_on channel=7 note=90 velocity=1 time=0
EXTRACT: note_on channel=7 note=85 velocity=1 time=0
EXTRACT: note_off channel=6 note=78 velocity=64 time=0.222222
EXTRACT: note_off channel=0 note=85 velocity=64 time=0
EXTRACT: note_off channel=1 note=69 velocity=64 time=0
EXTRACT: note_off channel=3 note=42 velocity=64 time=0
EXTRACT: note_off channel=9 note=42 velocity=64 time=0
EXTRACT: note_off channel=7 note=90 velocity=64 time=0
EXTRACT: note_off channel=7 note=85 velocity=64 time=0
EXTRACT: note_on channel=6 note=85 velocity=64 time=0.111111
EXTRACT: note_on channel=0 note=83 velocity=67 time=0
EXTRACT: note_on channel=1 note=74 velocity=37 time=0
EXTRACT: note_on channel=1 note=67 velocity=37 time=0
EXTRACT: note_on channel=3 note=43 velocity=64 time=0
EXTRACT: note_on channel=9 note=42 velocity=64 time=0
EXTRACT: note_on channel=7 note=67 velocity=1 time=0
EXTRACT: note_off channel=6 note=85 velocity=64 time=0.111111
EXTRACT: note_on channel=6 note=83 velocity=64 time=0.0555555
EXTRACT: note_off channel=9 note=42 velocity=64 time=0.0555555
EXTRACT: note_off channel=7 note=67 velocity=64 time=0
EXTRACT: note_off channel=6 note=83 velocity=64 time=0.0555555
EXTRACT: note_on channel=6 note=81 velocity=64 time=0.0555555
EXTRACT: note_on channel=9 note=42 velocity=64 time=0
EXTRACT: note_on channel=7 note=79 velocity=1 time=0
EXTRACT: note_on channel=7 note=91 velocity=1 time=0
EXTRACT: note_on channel=7 note=86 velocity=1 time=0
EXTRACT: note_off channel=6 note=81 velocity=64 time=0.111111
EXTRACT: note_on channel=6 note=78 velocity=64 time=0.0555555
EXTRACT: note_off channel=9 note=42 velocity=64 time=0.0555555
EXTRACT: note_off channel=7 note=79 velocity=64 time=0
EXTRACT: note_off channel=7 note=91 velocity=64 time=0
EXTRACT: note_off channel=7 note=86 velocity=64 time=0
EXTRACT: note_off channel=0 note=83 velocity=64 time=0.111111
EXTRACT: note_off channel=1 note=74 velocity=64 time=0
EXTRACT: note_off channel=1 note=67 velocity=64 time=0
EXTRACT: note_on channel=9 note=42 velocity=64 time=0
EXTRACT: note_on channel=7 note=86 velocity=1 time=0
EXTRACT: note_off channel=6 note=78 velocity=64 time=0.0555555
EXTRACT: note_on channel=6 note=85 velocity=64 time=0.111111
EXTRACT: note_off channel=9 note=42 velocity=64 time=0.0555555
EXTRACT: note_off channel=7 note=86 velocity=64 time=0
EXTRACT: note_off channel=6 note=85 velocity=64 time=0.0555555
EXTRACT: note_on channel=6 note=83 velocity=64 time=0.0555555
EXTRACT: note_on channel=1 note=74 velocity=37 time=0
EXTRACT: note_on channel=1 note=67 velocity=37 time=0
EXTRACT: note_on channel=1 note=62 velocity=37 time=0
EXTRACT: note_on channel=9 note=42 velocity=64 time=0
EXTRACT: note_on channel=9 note=38 velocity=64 time=0
EXTRACT: note_on channel=7 note=95 velocity=1 time=0
EXTRACT: note_off channel=6 note=83 velocity=64 time=0.222222
EXTRACT: note_off channel=1 note=74 velocity=64 time=0
EXTRACT: note_off channel=1 note=67 velocity=64 time=0
EXTRACT: note_off channel=1 note=62 velocity=64 time=0
EXTRACT: note_off channel=9 note=42 velocity=64 time=0
EXTRACT: note_off channel=9 note=38 velocity=64 time=0
EXTRACT: note_off channel=7 note=95 velocity=64 time=0
EXTRACT: note_on channel=6 note=81 velocity=64 time=0.111111
EXTRACT: note_on channel=0 note=83 velocity=67 time=0
EXTRACT: note_on channel=1 note=74 velocity=37 time=0
EXTRACT: note_on channel=1 note=67 velocity=37 time=0
EXTRACT: note_on channel=1 note=62 velocity=37 time=0
EXTRACT: note_off channel=3 note=43 velocity=64 time=0
EXTRACT: note_on channel=9 note=42 velocity=64 time=0
EXTRACT: note_on channel=7 note=86 velocity=1 time=0
EXTRACT: note_off channel=6 note=81 velocity=64 time=0.111111
EXTRACT: note_on channel=6 note=78 velocity=64 time=0.0555555
EXTRACT: note_off channel=0 note=83 velocity=64 time=0.0555555
EXTRACT: note_off channel=1 note=74 velocity=64 time=0
EXTRACT: note_off channel=1 note=67 velocity=64 time=0
EXTRACT: note_off channel=1 note=62 velocity=64 time=0
EXTRACT: note_off channel=9 note=42 velocity=64 time=0
EXTRACT: note_off channel=7 note=86 velocity=64 time=0
EXTRACT: note_off channel=6 note=78 velocity=64 time=0.0555555
EXTRACT: note_on channel=6 note=81 velocity=64 time=0.0555555
EXTRACT: note_on channel=0 note=83 velocity=67 time=0
EXTRACT: note_on channel=1 note=74 velocity=37 time=0
EXTRACT: note_on channel=1 note=67 velocity=37 time=0
EXTRACT: note_on channel=1 note=62 velocity=37 time=0
EXTRACT: note_on channel=3 note=43 velocity=64 time=0
EXTRACT: note_on channel=9 note=42 velocity=64 time=0
EXTRACT: note_on channel=7 note=95 velocity=1 time=0
EXTRACT: note_off channel=6 note=81 velocity=64 time=0.222222
EXTRACT: note_off channel=0 note=83 velocity=64 time=0
EXTRACT: note_off channel=1 note=74 velocity=64 time=0
EXTRACT: note_off channel=1 note=67 velocity=64 time=0
EXTRACT: note_off channel=1 note=62 velocity=64 time=0
EXTRACT: note_off channel=3 note=43 velocity=64 time=0
EXTRACT: note_off channel=9 note=42 velocity=64 time=0
EXTRACT: note_off channel=7 note=95 velocity=64 time=0
EXTRACT: note_on channel=6 note=81 velocity=64 time=0.111111
EXTRACT: note_on channel=0 note=81 velocity=67 time=0
EXTRACT: note_on channel=1 note=78 velocity=37 time=0
EXTRACT: note_on channel=3 note=38 velocity=64 time=0
EXTRACT: note_on channel=9 note=42 velocity=64 time=0
EXTRACT: note_on channel=7 note=93 velocity=1 time=0
EXTRACT: note_off channel=6 note=81 velocity=64 time=0.111111
EXTRACT: note_off channel=0 note=81 velocity=64 time=0
EXTRACT: note_on channel=6 note=81 velocity=64 time=0.0555555
EXTRACT: note_on channel=0 note=81 velocity=67 time=0
EXTRACT: note_off channel=1 note=78 velocity=64 time=0.0555555
EXTRACT: note_off channel=9 note=42 velocity=64 time=0
EXTRACT: note_off channel=7 note=93 velocity=64 time=0
EXTRACT: note_off channel=0 note=81 velocity=64 time=0.0555555
EXTRACT: note_on channel=0 note=81 velocity=67 time=0.0555555
EXTRACT: note_on channel=1 note=74 velocity=37 time=0
EXTRACT: note_on channel=9 note=42 velocity=64 time=0
EXTRACT: note_on channel=7 note=102 velocity=1 time=0
EXTRACT: note_off channel=6 note=81 velocity=64 time=0.0555555
EXTRACT: note_off channel=0 note=81 velocity=64 time=0.0555555
EXTRACT: note_off channel=7 note=102 velocity=64 time=0
EXTRACT: note_on channel=6 note=83 velocity=64 time=0.0555555
EXTRACT: note_on channel=0 note=81 velocity=67 time=0
EXTRACT: note_on channel=7 note=93 velocity=1 time=0
EXTRACT: note_off channel=1 note=74 velocity=64 time=0.0555555
EXTRACT: note_off channel=9 note=42 velocity=64 time=0
EXTRACT: note_off channel=6 note=83 velocity=64 time=0.0555555
EXTRACT: note_off channel=0 note=81 velocity=64 time=0
EXTRACT: note_off channel=7 note=93 velocity=64 time=0
EXTRACT: note_on channel=6 note=85 velocity=64 time=0.0555555
EXTRACT: note_on channel=0 note=81 velocity=67 time=0
EXTRACT: note_on channel=1 note=69 velocity=37 time=0
EXTRACT: note_on channel=9 note=42 velocity=64 time=0
EXTRACT: note_on channel=7 note=102 velocity=1 time=0
EXTRACT: note_off channel=0 note=81 velocity=64 time=0.111111
EXTRACT: note_off channel=7 note=102 velocity=64 time=0
EXTRACT: note_on channel=0 note=81 velocity=67 time=0.0555555
EXTRACT: note_on channel=9 note=38 velocity=64 time=0
EXTRACT: note_on channel=7 note=93 velocity=1 time=0
EXTRACT: note_off channel=1 note=69 velocity=64 time=0.0555555
EXTRACT: note_off channel=9 note=42 velocity=64 time=0
EXTRACT: note_off channel=0 note=81 velocity=64 time=0.0555555
EXTRACT: note_off channel=9 note=38 velocity=64 time=0
EXTRACT: note_off channel=7 note=93 velocity=64 time=0
EXTRACT: note_on channel=0 note=83 velocity=67 time=0.0555555
EXTRACT: note_on channel=1 note=80 velocity=37 time=0
EXTRACT: note_on channel=9 note=42 velocity=64 time=0
EXTRACT: note_on channel=9 note=38 velocity=64 time=0
EXTRACT: note_on channel=7 note=95 velocity=1 time=0
EXTRACT: note_off channel=6 note=85 velocity=64 time=0.111111
EXTRACT: note_off channel=0 note=83 velocity=64 time=0
EXTRACT: note_off channel=7 note=95 velocity=64 time=0
EXTRACT: note_on channel=0 note=83 velocity=67 time=0.0555555
EXTRACT: note_on channel=7 note=102 velocity=1 time=0
EXTRACT: note_off channel=1 note=80 velocity=64 time=0.0555555
EXTRACT: note_off channel=9 note=42 velocity=64 time=0
EXTRACT: note_off channel=9 note=38 velocity=64 time=0
EXTRACT: note_off channel=0 note=83 velocity=64 time=0.0555555
EXTRACT: note_off channel=7 note=102 velocity=64 time=0
EXTRACT: note_on channel=6 note=78 velocity=64 time=0.0555555
EXTRACT: note_on channel=0 note=83 velocity=67 time=0
EXTRACT: note_on channel=1 note=76 velocity=37 time=0
EXTRACT: note_off channel=3 note=38 velocity=64 time=0
EXTRACT: note_on channel=9 note=42 velocity=64 time=0
EXTRACT: note_on channel=9 note=38 velocity=64 time=0
EXTRACT: note_on channel=7 note=93 velocity=1 time=0
EXTRACT: note_off channel=0 note=83 velocity=64 time=0.111111
EXTRACT: note_off channel=7 note=93 velocity=64 time=0
EXTRACT: note_on channel=0 note=83 velocity=67 time=0.0555555
EXTRACT: note_on channel=7 note=102 velocity=1 time=0
EXTRACT: note_off channel=6 note=78 velocity=64 time=0.0555555
EXTRACT: note_off channel=1 note=76 velocity=64 time=0
EXTRACT: note_off channel=9 note=42 velocity=64 time=0
EXTRACT: note_off channel=9 note=38 velocity=64 time=0
EXTRACT: note_off channel=0 note=83 velocity=64 time=0.0555555
EXTRACT: note_off channel=7 note=102 velocity=64 time=0
EXTRACT: note_on channel=6 note=81 velocity=64 time=0.0555555
EXTRACT: note_on channel=0 note=83 velocity=67 time=0
EXTRACT: note_on channel=1 note=71 velocity=37 time=0
EXTRACT: note_on channel=3 note=38 velocity=64 time=0
EXTRACT: note_on channel=9 note=42 velocity=64 time=0
EXTRACT: note_on channel=9 note=38 velocity=64 time=0
EXTRACT: note_on channel=7 note=93 velocity=1 time=0
EXTRACT: note_off channel=0 note=83 velocity=64 time=0.111111
EXTRACT: note_off channel=7 note=93 velocity=64 time=0
EXTRACT: note_on channel=0 note=83 velocity=67 time=0.0555555
EXTRACT: note_on channel=7 note=102 velocity=1 time=0
EXTRACT: note_off channel=6 note=81 velocity=64 time=0.0555555
EXTRACT: note_off channel=1 note=71 velocity=64 time=0
EXTRACT: note_off channel=3 note=38 velocity=64 time=0
EXTRACT: note_off channel=9 note=42 velocity=64 time=0
EXTRACT: note_off channel=9 note=38 velocity=64 time=0
EXTRACT: note_off channel=0 note=83 velocity=64 time=0.0555555
EXTRACT: note_off channel=7 note=102 velocity=64 time=0
EXTRACT: note_on channel=6 note=83 velocity=61 time=0.0555555
EXTRACT: note_on channel=6 note=86 velocity=61 time=0
EXTRACT: note_on channel=6 note=85 velocity=61 time=0
EXTRACT: note_on channel=6 note=81 velocity=61 time=0
EXTRACT: note_on channel=0 note=57 velocity=41 time=0
EXTRACT: note_on channel=1 note=83 velocity=37 time=0
EXTRACT: note_on channel=3 note=45 velocity=64 time=0
EXTRACT: note_on channel=9 note=42 velocity=64 time=0
EXTRACT: note_on channel=9 note=49 velocity=64 time=0
EXTRACT: note_off channel=6 note=85 velocity=64 time=0.111111
EXTRACT: note_off channel=6 note=81 velocity=64 time=0
EXTRACT: note_off channel=0 note=57 velocity=64 time=0.111111
EXTRACT: note_off channel=9 note=42 velocity=64 time=0
EXTRACT: note_off channel=9 note=49 velocity=64 time=0
EXTRACT: note_on channel=0 note=64 velocity=41 time=0.111111
EXTRACT: note_on channel=9 note=42 velocity=64 time=0
EXTRACT: note_off channel=6 note=83 velocity=64 time=0.111111
EXTRACT: note_off channel=6 note=86 velocity=64 time=0
EXTRACT: note_off channel=1 note=83 velocity=64 time=0
EXTRACT: note_off channel=0 note=64 velocity=64 time=0.111111
EXTRACT: note_off channel=9 note=42 velocity=64 time=0
EXTRACT: note_on channel=6 note=81 velocity=61 time=0.111111
EXTRACT: note_on channel=6 note=85 velocity=61 time=0
EXTRACT: note_on channel=0 note=69 velocity=41 time=0
EXTRACT: note_on channel=1 note=85 velocity=37 time=0
EXTRACT: note_on channel=9 note=42 velocity=64 time=0
EXTRACT: note_on channel=0 note=71 velocity=41 time=0.1666665
EXTRACT: note_off channel=0 note=69 velocity=64 time=0.0555555
EXTRACT: note_off channel=1 note=85 velocity=64 time=0
EXTRACT: note_off channel=9 note=42 velocity=64 time=0
EXTRACT: note_off channel=0 note=71 velocity=64 time=0.0555555
EXTRACT: note_on channel=0 note=73 velocity=41 time=0.0555555
EXTRACT: note_on channel=0 note=76 velocity=41 time=0
EXTRACT: note_on channel=1 note=93 velocity=37 time=0
EXTRACT: note_on channel=1 note=88 velocity=37 time=0
EXTRACT: note_on channel=9 note=42 velocity=64 time=0
EXTRACT: note_on channel=9 note=38 velocity=64 time=0
EXTRACT: note_on channel=7 note=81 velocity=2 time=0
EXTRACT: note_on channel=7 note=76 velocity=2 time=0
EXTRACT: note_on channel=7 note=73 velocity=2 time=0
EXTRACT: note_off channel=6 note=81 velocity=64 time=0.111111
EXTRACT: note_off channel=6 note=85 velocity=64 time=0
EXTRACT: note_off channel=0 note=73 velocity=64 time=0.111111
EXTRACT: note_off channel=0 note=76 velocity=64 time=0
EXTRACT: note_off channel=9 note=42 velocity=64 time=0
EXTRACT: note_off channel=9 note=38 velocity=64 time=0
EXTRACT: note_on channel=0 note=71 velocity=41 time=0.111111
EXTRACT: note_on channel=9 note=42 velocity=64 time=0
EXTRACT: note_off channel=1 note=93 velocity=64 time=0.111111
EXTRACT: note_off channel=1 note=88 velocity=64 time=0
EXTRACT: note_off channel=0 note=71 velocity=64 time=0.111111
EXTRACT: note_off channel=3 note=45 velocity=64 time=0
EXTRACT: note_off channel=9 note=42 velocity=64 time=0
EXTRACT: note_on channel=0 note=69 velocity=41 time=0.111111
EXTRACT: note_on channel=3 note=45 velocity=64 time=0
EXTRACT: note_on channel=9 note=42 velocity=64 time=0
EXTRACT: note_off channel=7 note=81 velocity=64 time=0
EXTRACT: note_off channel=7 note=76 velocity=64 time=0
EXTRACT: note_off channel=7 note=73 velocity=64 time=0
EXTRACT: note_off channel=0 note=69 velocity=64 time=0.222222
EXTRACT: note_off channel=3 note=45 velocity=64 time=0
EXTRACT: note_off channel=9 note=42 velocity=64 time=0
EXTRACT: note_on channel=6 note=78 velocity=61 time=0.111111
EXTRACT: note_on channel=6 note=81 velocity=61 time=0
EXTRACT: note_on channel=6 note=80 velocity=61 time=0
EXTRACT: note_on channel=6 note=83 velocity=61 time=0
EXTRACT: note_on channel=0 note=57 velocity=41 time=0
EXTRACT: note_on channel=3 note=42 velocity=64 time=0
EXTRACT: note_on channel=9 note=42 velocity=64 time=0
EXTRACT: note_off channel=6 note=78 velocity=64 time=0.111111
EXTRACT: note_off channel=6 note=81 velocity=64 time=0
EXTRACT: note_off channel=0 note=57 velocity=64 time=0.111111
EXTRACT: note_off channel=9 note=42 velocity=64 time=0
EXTRACT: note_on channel=0 note=61 velocity=41 time=0.111111
EXTRACT: note_on channel=9 note=42 velocity=64 time=0
EXTRACT: note_off channel=6 note=80 velocity=64 time=0.111111
EXTRACT: note_off channel=6 note=83 velocity=64 time=0
EXTRACT: note_off channel=0 note=61 velocity=64 time=0.111111
EXTRACT: note_off channel=9 note=42 velocity=64 time=0
EXTRACT: note_on channel=6 note=78 velocity=61 time=0.111111
EXTRACT: note_on channel=6 note=81 velocity=61 time=0
EXTRACT: note_on channel=0 note=66 velocity=41 time=0
EXTRACT: note_on channel=9 note=42 velocity=64 time=0
EXTRACT: note_on channel=0 note=71 velocity=41 time=0.1666665
EXTRACT: note_off channel=0 note=66 velocity=64 time=0.0555555
EXTRACT: note_off channel=9 note=42 velocity=64 time=0
EXTRACT: note_off channel=0 note=71 velocity=64 time=0.0555555
EXTRACT: note_on channel=0 note=76 velocity=41 time=0.0555555
EXTRACT: note_on channel=0 note=73 velocity=41 time=0
EXTRACT: note_on channel=1 note=81 velocity=37 time=0
EXTRACT: note_on channel=1 note=90 velocity=37 time=0
EXTRACT: note_on channel=1 note=85 velocity=37 time=0
EXTRACT: note_on channel=9 note=42 velocity=64 time=0
EXTRACT: note_on channel=9 note=38 velocity=64 time=0
EXTRACT: note_on channel=7 note=66 velocity=2 time=0
EXTRACT: note_off channel=6 note=78 velocity=64 time=0.111111
EXTRACT: note_off channel=6 note=81 velocity=64 time=0
EXTRACT: note_off channel=0 note=76 velocity=64 time=0.111111
EXTRACT: note_off channel=0 note=73 velocity=64 time=0
EXTRACT: note_off channel=1 note=81 velocity=64 time=0
EXTRACT: note_off channel=1 note=90 velocity=64 time=0
EXTRACT: note_off channel=1 note=85 velocity=64 time=0
EXTRACT: note_off channel=9 note=42 velocity=64 time=0
EXTRACT: note_off channel=9 note=38 velocity=64 time=0
EXTRACT: note_on channel=0 note=71 velocity=41 time=0.111111
EXTRACT: note_off channel=3 note=42 velocity=64 time=0
EXTRACT: note_on channel=9 note=42 velocity=64 time=0
EXTRACT: note_on channel=7 note=69 velocity=2 time=0
EXTRACT: note_off channel=0 note=71 velocity=64 time=0.222222
EXTRACT: note_off channel=9 note=42 velocity=64 time=0
EXTRACT: note_on channel=0 note=69 velocity=41 time=0.111111
EXTRACT: note_on channel=3 note=42 velocity=64 time=0
EXTRACT: note_on channel=9 note=42 velocity=64 time=0
EXTRACT: note_off channel=7 note=66 velocity=64 time=0
EXTRACT: note_on channel=7 note=73 velocity=2 time=0
EXTRACT: note_off channel=7 note=69 velocity=64 time=0.111111
EXTRACT: note_off channel=0 note=69 velocity=64 time=0.111111
EXTRACT: note_off channel=3 note=42 velocity=64 time=0
EXTRACT: note_off channel=9 note=42 velocity=64 time=0
EXTRACT: note_off channel=7 note=73 velocity=64 time=0
EXTRACT: note_on channel=6 note=76 velocity=61 time=0.111111
EXTRACT: note_on channel=6 note=80 velocity=61 time=0
EXTRACT: note_on channel=0 note=62 velocity=41 time=0
EXTRACT: note_on channel=3 note=38 velocity=64 time=0
EXTRACT: note_on channel=9 note=42 velocity=64 time=0
EXTRACT: note_on channel=7 note=62 velocity=2 time=0
EXTRACT: note_off channel=6 note=76 velocity=64 time=0.222222
EXTRACT: note_off channel=6 note=80 velocity=64 time=0
EXTRACT: note_off channel=0 note=62 velocity=64 time=0
EXTRACT: note_off channel=9 note=42 velocity=64 time=0
EXTRACT: note_on channel=6 note=78 velocity=61 time=0.111111
EXTRACT: note_on channel=6 note=74 velocity=61 time=0
EXTRACT: note_on channel=0 note=69 velocity=41 time=0
EXTRACT: note_on channel=9 note=42 velocity=64 time=0
EXTRACT: note_off channel=0 note=69 velocity=64 time=0.222222
EXTRACT: note_off channel=9 note=42 velocity=64 time=0
EXTRACT: note_on channel=0 note=74 velocity=41 time=0.111111
EXTRACT: note_on channel=9 note=42 velocity=64 time=0
EXTRACT: note_off channel=7 note=62 velocity=64 time=0
EXTRACT: note_off channel=6 note=78 velocity=64 time=0.111111
EXTRACT: note_off channel=6 note=74 velocity=64 time=0
EXTRACT: note_on channel=0 note=76 velocity=41 time=0.0555555
EXTRACT: note_off channel=0 note=74 velocity=64 time=0.0555555
EXTRACT: note_off channel=9 note=42 velocity=64 time=0
EXTRACT: note_off channel=0 note=76 velocity=64 time=0.0555555
EXTRACT: note_on channel=0 note=78 velocity=41 time=0.0555555
EXTRACT: note_on channel=1 note=74 velocity=37 time=0
EXTRACT: note_on channel=1 note=69 velocity=37 time=0
EXTRACT: note_on channel=1 note=62 velocity=37 time=0
EXTRACT: note_on channel=9 note=42 velocity=64 time=0
EXTRACT: note_on channel=9 note=38 velocity=64 time=0
EXTRACT: note_on channel=7 note=74 velocity=2 time=0
EXTRACT: note_off channel=0 note=78 velocity=64 time=0.222222
EXTRACT: note_off channel=1 note=74 velocity=64 time=0
EXTRACT: note_off channel=1 note=69 velocity=64 time=0
EXTRACT: note_off channel=1 note=62 velocity=64 time=0
EXTRACT: note_off channel=9 note=42 velocity=64 time=0
EXTRACT: note_off channel=9 note=38 velocity=64 time=0
EXTRACT: note_on channel=6 note=78 velocity=61 time=0.111111
EXTRACT: note_on channel=6 note=74 velocity=61 time=0
EXTRACT: note_on channel=6 note=80 velocity=61 time=0
EXTRACT: note_on channel=6 note=76 velocity=61 time=0
EXTRACT: note_on channel=0 note=76 velocity=41 time=0
EXTRACT: note_off channel=3 note=38 velocity=64 time=0
EXTRACT: note_on channel=9 note=42 velocity=64 time=0
EXTRACT: note_on channel=7 note=69 velocity=2 time=0
EXTRACT: note_off channel=6 note=78 velocity=64 time=0.111111
EXTRACT: note_off channel=6 note=74 velocity=64 time=0
EXTRACT: note_off channel=6 note=80 velocity=64 time=0.111111
EXTRACT: note_off channel=6 note=76 velocity=64 time=0
EXTRACT: note_off channel=0 note=76 velocity=64 time=0
EXTRACT: note_off channel=9 note=42 velocity=64 time=0
EXTRACT: note_on channel=6 note=74 velocity=61 time=0.111111
EXTRACT: note_on channel=6 note=78 velocity=61 time=0
EXTRACT: note_on channel=0 note=69 velocity=41 time=0
EXTRACT: note_on channel=3 note=38 velocity=64 time=0
EXTRACT: note_on channel=9 note=42 velocity=64 time=0
EXTRACT: note_off channel=7 note=74 velocity=64 time=0
EXTRACT: note_on channel=7 note=62 velocity=2 time=0
EXTRACT: note_off channel=7 note=69 velocity=64 time=0.111111
EXTRACT: note_off channel=6 note=74 velocity=64 time=0.111111
EXTRACT: note_off channel=6 note=78 velocity=64 time=0
EXTRACT: note_off channel=0 note=69 velocity=64 time=0
EXTRACT: note_off channel=3 note=38 velocity=64 time=0
EXTRACT: note_off channel=9 note=42 velocity=64 time=0
EXTRACT: note_off channel=7 note=62 velocity=64 time=0
EXTRACT: note_on channel=6 note=73 velocity=61 time=0.111111
EXTRACT: note_on channel=6 note=77 velocity=61 time=0
EXTRACT: note_on channel=0 note=62 velocity=41 time=0
EXTRACT: note_on channel=3 note=38 velocity=64 time=0
EXTRACT: note_on channel=9 note=42 velocity=64 time=0
EXTRACT: note_on channel=7 note=74 velocity=2 time=0
EXTRACT: note_on channel=7 note=77 velocity=2 time=0
EXTRACT: note_on channel=7 note=81 velocity=2 time=0
EXTRACT: note_off channel=0 note=62 velocity=64 time=0.222222
EXTRACT: note_off channel=9 note=42 velocity=64 time=0
EXTRACT: note_off channel=6 note=73 velocity=64 time=0.111111
EXTRACT: note_on channel=0 note=69 velocity=41 time=0
EXTRACT: note_on channel=9 note=42 velocity=64 time=0
EXTRACT: note_on channel=6 note=74 velocity=61 time=0.1666665
EXTRACT: note_off channel=0 note=69 velocity=64 time=0.0555555
EXTRACT: note_off channel=9 note=42 velocity=64 time=0
EXTRACT: note_off channel=6 note=74 velocity=64 time=0.0555555
EXTRACT: note_off channel=6 note=77 velocity=64 time=0.0555555
EXTRACT: note_on channel=6 note=73 velocity=61 time=0
EXTRACT: note_on channel=0 note=74 velocity=41 time=0
EXTRACT: note_on channel=9 note=42 velocity=64 time=0
EXTRACT: note_on channel=0 note=76 velocity=41 time=0.1666665
EXTRACT: note_on channel=9 note=38 velocity=64 time=0
EXTRACT: note_off channel=6 note=73 velocity=64 time=0.0555555
EXTRACT: note_off channel=0 note=74 velocity=64 time=0
EXTRACT: note_off channel=9 note=42 velocity=64 time=0
EXTRACT: note_off channel=7 note=74 velocity=64 time=0
EXTRACT: note_off channel=7 note=77 velocity=64 time=0
EXTRACT: note_off channel=7 note=81 velocity=64 time=0
EXTRACT: note_off channel=0 note=76 velocity=64 time=0.0555555
EXTRACT: note_off channel=9 note=38 velocity=64 time=0
EXTRACT: note_on channel=6 note=71 velocity=61 time=0.0555555
EXTRACT: note_on channel=6 note=77 velocity=61 time=0
EXTRACT: note_on channel=0 note=77 velocity=41 time=0
EXTRACT: note_on channel=1 note=74 velocity=37 time=0
EXTRACT: note_on channel=1 note=77 velocity=37 time=0
EXTRACT: note_on channel=1 note=81 velocity=37 time=0
EXTRACT: note_on channel=9 note=42 velocity=64 time=0
EXTRACT: note_on channel=9 note=38 velocity=64 time=0
EXTRACT: note_off channel=6 note=71 velocity=64 time=0.222222
EXTRACT: note_off channel=0 note=77 velocity=64 time=0
EXTRACT: note_off channel=1 note=74 velocity=64 time=0
EXTRACT: note_off channel=1 note=77 velocity=64 time=0
EXTRACT: note_off channel=1 note=81 velocity=64 time=0
EXTRACT: note_off channel=9 note=42 velocity=64 time=0
EXTRACT: note_off channel=9 note=38 velocity=64 time=0
EXTRACT: note_on channel=6 note=69 velocity=61 time=0.111111
EXTRACT: note_on channel=0 note=76 velocity=41 time=0
EXTRACT: note_on channel=9 note=42 velocity=64 time=0
EXTRACT: note_on channel=9 note=38 velocity=64 time=0
EXTRACT: note_off channel=6 note=69 velocity=64 time=0.222222
EXTRACT: note_off channel=0 note=76 velocity=64 time=0
EXTRACT: note_off channel=3 note=38 velocity=64 time=0
EXTRACT: note_off channel=9 note=42 velocity=64 time=0
EXTRACT: note_off channel=9 note=38 velocity=64 time=0
EXTRACT: note_off channel=6 note=77 velocity=64 time=0.111111
EXTRACT: note_on channel=0 note=74 velocity=41 time=0
EXTRACT: note_on channel=3 note=38 velocity=64 time=0
EXTRACT: note_on channel=9 note=42 velocity=64 time=0
EXTRACT: note_on channel=9 note=38 velocity=64 time=0
EXTRACT: note_off channel=0 note=74 velocity=64 time=0.222222
EXTRACT: note_off channel=3 note=38 velocity=64 time=0
EXTRACT: note_off channel=9 note=42 velocity=64 time=0
EXTRACT: note_off channel=9 note=38 velocity=64 time=0
EXTRACT: note_on channel=0 note=57 velocity=41 time=0.111111
EXTRACT: note_on channel=3 note=45 velocity=64 time=0
EXTRACT: note_on channel=9 note=42 velocity=64 time=0
EXTRACT: note_on channel=9 note=49 velocity=64 time=0
EXTRACT: note_off channel=0 note=57 velocity=64 time=0.222222
EXTRACT: note_off channel=9 note=42 velocity=64 time=0
EXTRACT: note_off channel=9 note=49 velocity=64 time=0
EXTRACT: note_on channel=0 note=64 velocity=41 time=0.111111
EXTRACT: note_on channel=9 note=42 velocity=64 time=0
EXTRACT: note_off channel=0 note=64 velocity=64 time=0.222222
EXTRACT: note_off channel=9 note=42 velocity=64 time=0
EXTRACT: note_on channel=0 note=69 velocity=41 time=0.111111
EXTRACT: note_on channel=9 note=42 velocity=64 time=0
EXTRACT: note_on channel=0 note=71 velocity=41 time=0.1666665
EXTRACT: note_off channel=0 note=69 velocity=64 time=0.0555555
EXTRACT: note_off channel=9 note=42 velocity=64 time=0
EXTRACT: note_off channel=0 note=71 velocity=64 time=0.0555555
EXTRACT: note_on channel=6 note=73 velocity=61 time=0.0555555
EXTRACT: note_on channel=0 note=73 velocity=41 time=0
EXTRACT: note_on channel=0 note=76 velocity=41 time=0
EXTRACT: note_on channel=1 note=73 velocity=37 time=0
EXTRACT: note_on channel=1 note=76 velocity=37 time=0
EXTRACT: note_on channel=1 note=81 velocity=37 time=0
EXTRACT: note_on channel=9 note=42 velocity=64 time=0
EXTRACT: note_on channel=9 note=38 velocity=64 time=0
EXTRACT: note_on channel=7 note=81 velocity=2 time=0
EXTRACT: note_off channel=6 note=73 velocity=64 time=0.222222
EXTRACT: note_off channel=0 note=73 velocity=64 time=0
EXTRACT: note_off channel=0 note=76 velocity=64 time=0
EXTRACT: note_off channel=1 note=73 velocity=64 time=0
EXTRACT: note_off channel=1 note=76 velocity=64 time=0
EXTRACT: note_off channel=1 note=81 velocity=64 time=0
EXTRACT: note_off channel=9 note=42 velocity=64 time=0
EXTRACT: note_off channel=9 note=38 velocity=64 time=0
EXTRACT: note_on channel=6 note=76 velocity=61 time=0.111111
EXTRACT: note_on channel=0 note=71 velocity=41 time=0
EXTRACT: note_on channel=9 note=42 velocity=64 time=0
EXTRACT: note_off channel=6 note=76 velocity=64 time=0.222222
EXTRACT: note_off channel=0 note=71 velocity=64 time=0
EXTRACT: note_off channel=3 note=45 velocity=64 time=0
EXTRACT: note_off channel=9 note=42 velocity=64 time=0
EXTRACT: note_on channel=6 note=80 velocity=61 time=0.111111
EXTRACT: note_on channel=0 note=69 velocity=41 time=0
EXTRACT: note_on channel=3 note=45 velocity=64 time=0
EXTRACT: note_on channel=9 note=42 velocity=64 time=0
EXTRACT: note_off channel=7 note=81 velocity=64 time=0
EXTRACT: note_off channel=6 note=80 velocity=64 time=0.222222
EXTRACT: note_off channel=0 note=69 velocity=64 time=0
EXTRACT: note_off channel=3 note=45 velocity=64 time=0
EXTRACT: note_off channel=9 note=42 velocity=64 time=0
EXTRACT: note_on channel=6 note=80 velocity=61 time=0.111111
EXTRACT: note_on channel=6 note=81 velocity=61 time=0
EXTRACT: note_on channel=0 note=57 velocity=41 time=0
EXTRACT: note_on channel=3 note=42 velocity=64 time=0
EXTRACT: note_on channel=9 note=42 velocity=64 time=0
EXTRACT: note_off channel=6 note=80 velocity=64 time=0.111111
EXTRACT: note_off channel=0 note=57 velocity=64 time=0.111111
EXTRACT: note_off channel=9 note=42 velocity=64 time=0
EXTRACT: note_on channel=0 note=61 velocity=41 time=0.111111
EXTRACT: note_on channel=9 note=42 velocity=64 time=0
EXTRACT: note_off channel=0 note=61 velocity=64 time=0.222222
EXTRACT: note_off channel=9 note=42 velocity=64 time=0
EXTRACT: note_off channel=6 note=81 velocity=64 time=0.111111
EXTRACT: note_on channel=0 note=66 velocity=41 time=0
EXTRACT: note_on channel=9 note=42 velocity=64 time=0
EXTRACT: note_on channel=0 note=71 velocity=41 time=0.1666665
EXTRACT: note_off channel=0 note=66 velocity=64 time=0.0555555
EXTRACT: note_off channel=9 note=42 velocity=64 time=0
EXTRACT: note_off channel=0 note=71 velocity=64 time=0.0555555
EXTRACT: note_on channel=0 note=76 velocity=41 time=0.0555555
EXTRACT: note_on channel=0 note=73 velocity=41 time=0
EXTRACT: note_on channel=1 note=78 velocity=37 time=0
EXTRACT: note_on channel=1 note=73 velocity=37 time=0
EXTRACT: note_on channel=1 note=69 velocity=37 time=0
EXTRACT: note_on channel=9 note=42 velocity=64 time=0
EXTRACT: note_on channel=9 note=38 velocity=64 time=0
EXTRACT: note_on channel=7 note=78 velocity=2 time=0
EXTRACT: note_off channel=0 note=76 velocity=64 time=0.222222
EXTRACT: note_off channel=0 note=73 velocity=64 time=0
EXTRACT: note_off channel=1 note=78 velocity=64 time=0
EXTRACT: note_off channel=1 note=73 velocity=64 time=0
EXTRACT: note_off channel=1 note=69 velocity=64 time=0
EXTRACT: note_off channel=9 note=42 velocity=64 time=0
EXTRACT: note_off channel=9 note=38 velocity=64 time=0
EXTRACT: note_on channel=6 note=78 velocity=61 time=0.111111
EXTRACT: note_on channel=0 note=71 velocity=41 time=0
EXTRACT: note_off channel=3 note=42 velocity=64 time=0
EXTRACT: note_on channel=9 note=42 velocity=64 time=0
EXTRACT: note_off channel=6 note=78 velocity=64 time=0.222222
EXTRACT: note_off channel=0 note=71 velocity=64 time=0
EXTRACT: note_off channel=9 note=42 velocity=64 time=0
EXTRACT: note_on channel=6 note=81 velocity=61 time=0.111111
EXTRACT: note_on channel=0 note=69 velocity=41 time=0
EXTRACT: note_on channel=9 note=42 velocity=64 time=0
EXTRACT: note_off channel=7 note=78 velocity=64 time=0
EXTRACT: note_off channel=6 note=81 velocity=64 time=0.222222
EXTRACT: note_off channel=0 note=69 velocity=64 time=0
EXTRACT: note_off channel=9 note=42 velocity=64 time=0
EXTRACT: note_on channel=6 note=81 velocity=61 time=0.111111
EXTRACT: note_on channel=6 note=83 velocity=61 time=0
EXTRACT: note_on channel=0 note=62 velocity=41 time=0
EXTRACT: note_on channel=1 note=62 velocity=37 time=0
EXTRACT: note_on channel=1 note=62 velocity=37 time=0
EXTRACT: note_on channel=3 note=38 velocity=64 time=0
EXTRACT: note_on channel=9 note=42 velocity=64 time=0
EXTRACT: note_off channel=6 note=81 velocity=64 time=0.111111
EXTRACT: note_off channel=0 note=62 velocity=64 time=0.111111
EXTRACT: note_off channel=9 note=42 velocity=64 time=0
EXTRACT: note_off channel=6 note=83 velocity=64 time=0.111111
EXTRACT: note_on channel=0 note=69 velocity=41 time=0
EXTRACT: note_on channel=9 note=42 velocity=64 time=0
EXTRACT: note_on channel=6 note=81 velocity=61 time=0.1666665
EXTRACT: note_off channel=0 note=69 velocity=64 time=0.0555555
EXTRACT: note_off channel=9 note=42 velocity=64 time=0
EXTRACT: note_off channel=6 note=81 velocity=64 time=0.111111
EXTRACT: note_on channel=0 note=74 velocity=41 time=0
EXTRACT: note_off channel=1 note=62 velocity=64 time=0
EXTRACT: note_on channel=9 note=42 velocity=64 time=0
EXTRACT: note_on channel=0 note=76 velocity=41 time=0.1666665
EXTRACT: note_off channel=0 note=74 velocity=64 time=0.0555555
EXTRACT: note_off channel=9 note=42 velocity=64 time=0
EXTRACT: note_off channel=0 note=76 velocity=64 time=0.0555555
EXTRACT: note_on channel=0 note=78 velocity=41 time=0.0555555
EXTRACT: note_on channel=1 note=74 velocity=37 time=0
EXTRACT: note_on channel=1 note=69 velocity=37 time=0
EXTRACT: note_on channel=1 note=62 velocity=37 time=0
EXTRACT: note_on channel=9 note=42 velocity=64 time=0
EXTRACT: note_on channel=9 note=38 velocity=64 time=0
EXTRACT: note_on channel=7 note=74 velocity=2 time=0
EXTRACT: note_on channel=7 note=69 velocity=2 time=0
EXTRACT: note_on channel=7 note=62 velocity=2 time=0
EXTRACT: note_off channel=0 note=78 velocity=64 time=0.222222
EXTRACT: note_off channel=9 note=42 velocity=64 time=0
EXTRACT: note_off channel=9 note=38 velocity=64 time=0
EXTRACT: note_on channel=6 note=81 velocity=61 time=0.111111
EXTRACT: note_on channel=0 note=76 velocity=41 time=0
EXTRACT: note_off channel=1 note=62 velocity=64 time=0
EXTRACT: note_off channel=3 note=38 velocity=64 time=0
EXTRACT: note_on channel=9 note=42 velocity=64 time=0
EXTRACT: note_off channel=7 note=74 velocity=64 time=0.111111
EXTRACT: note_off channel=7 note=69 velocity=64 time=0
EXTRACT: note_off channel=7 note=62 velocity=64 time=0
EXTRACT: note_off channel=6 note=81 velocity=64 time=0.111111
EXTRACT: note_off channel=0 note=76 velocity=64 time=0
EXTRACT: note_off channel=9 note=42 velocity=64 time=0
EXTRACT: note_on channel=6 note=83 velocity=61 time=0.111111
EXTRACT: note_on channel=0 note=69 velocity=41 time=0
EXTRACT: note_on channel=3 note=38 velocity=64 time=0
EXTRACT: note_on channel=9 note=42 velocity=64 time=0
EXTRACT: note_off channel=1 note=74 velocity=64 time=0.111111
EXTRACT: note_off channel=1 note=69 velocity=64 time=0
EXTRACT: note_off channel=1 note=62 velocity=64 time=0
EXTRACT: note_off channel=6 note=83 velocity=64 time=0.111111
EXTRACT: note_off channel=0 note=69 velocity=64 time=0
EXTRACT: note_off channel=3 note=38 velocity=64 time=0
EXTRACT: note_off channel=9 note=42 velocity=64 time=0
EXTRACT: note_on channel=6 note=83 velocity=61 time=0.111111
EXTRACT: note_on channel=6 note=85 velocity=61 time=0
EXTRACT: note_on channel=0 note=62 velocity=41 time=0
EXTRACT: note_on channel=1 note=64 velocity=37 time=0
EXTRACT: note_on channel=1 note=52 velocity=37 time=0
EXTRACT: note_on channel=3 note=38 velocity=64 time=0
EXTRACT: note_on channel=9 note=42 velocity=64 time=0
EXTRACT: note_off channel=6 note=83 velocity=64 time=0.111111
EXTRACT: note_off channel=0 note=62 velocity=64 time=0.111111
EXTRACT: note_off channel=1 note=52 velocity=64 time=0
EXTRACT: note_off channel=9 note=42 velocity=64 time=0
EXTRACT: note_on channel=0 note=69 velocity=41 time=0.111111
EXTRACT: note_on channel=1 note=64 velocity=37 time=0
EXTRACT: note_on channel=1 note=52 velocity=37 time=0
EXTRACT: note_on channel=9 note=42 velocity=64 time=0
EXTRACT: note_off channel=6 note=85 velocity=64 time=0.111111
EXTRACT: note_off channel=0 note=69 velocity=64 time=0.111111
EXTRACT: note_off channel=1 note=64 velocity=64 time=0
EXTRACT: note_off channel=1 note=52 velocity=64 time=0
EXTRACT: note_off channel=9 note=42 velocity=64 time=0
EXTRACT: note_on channel=6 note=86 velocity=61 time=0.111111
EXTRACT: note_on channel=0 note=74 velocity=41 time=0
EXTRACT: note_on channel=1 note=64 velocity=37 time=0
EXTRACT: note_on channel=1 note=52 velocity=37 time=0
EXTRACT: note_on channel=1 note=71 velocity=37 time=0
EXTRACT: note_on channel=9 note=42 velocity=64 time=0
EXTRACT: note_on channel=7 note=80 velocity=2 time=0
EXTRACT: note_on channel=7 note=64 velocity=2 time=0
EXTRACT: note_on channel=7 note=71 velocity=2 time=0
EXTRACT: note_on channel=7 note=76 velocity=2 time=0
EXTRACT: note_off channel=6 note=86 velocity=64 time=0.111111
EXTRACT: note_on channel=6 note=85 velocity=61 time=0.0555555
EXTRACT: note_on channel=0 note=76 velocity=41 time=0
EXTRACT: note_on channel=9 note=38 velocity=64 time=0
EXTRACT: note_off channel=0 note=74 velocity=64 time=0.0555555
EXTRACT: note_off channel=1 note=64 velocity=64 time=0
EXTRACT: note_off channel=1 note=52 velocity=64 time=0
EXTRACT: note_off channel=1 note=71 velocity=64 time=0
EXTRACT: note_off channel=9 note=42 velocity=64 time=0
EXTRACT: note_off channel=7 note=80 velocity=64 time=0
EXTRACT: note_off channel=7 note=64 velocity=64 time=0
EXTRACT: note_off channel=7 note=71 velocity=64 time=0
EXTRACT: note_off channel=7 note=76 velocity=64 time=0
EXTRACT: note_off channel=6 note=85 velocity=64 time=0.0555555
EXTRACT: note_off channel=0 note=76 velocity=64 time=0
EXTRACT: note_off channel=9 note=38 velocity=64 time=0
EXTRACT: note_on channel=6 note=83 velocity=61 time=0.0555555
EXTRACT: note_on channel=0 note=77 velocity=41 time=0
EXTRACT: note_on channel=1 note=52 velocity=37 time=0
EXTRACT: note_on channel=1 note=64 velocity=37 time=0
EXTRACT: note_on channel=1 note=71 velocity=37 time=0
EXTRACT: note_on channel=1 note=76 velocity=37 time=0
EXTRACT: note_on channel=9 note=42 velocity=64 time=0
EXTRACT: note_on channel=9 note=38 velocity=64 time=0
EXTRACT: note_on channel=7 note=80 velocity=2 time=0
EXTRACT: note_on channel=7 note=64 velocity=2 time=0
EXTRACT: note_on channel=7 note=71 velocity=2 time=0
EXTRACT: note_on channel=7 note=76 velocity=2 time=0
EXTRACT: note_off channel=0 note=77 velocity=64 time=0.222222
EXTRACT: note_off channel=1 note=64 velocity=64 time=0
EXTRACT: note_off channel=1 note=52 velocity=64 time=0
EXTRACT: note_off channel=1 note=71 velocity=64 time=0
EXTRACT: note_off channel=1 note=76 velocity=64 time=0
EXTRACT: note_off channel=9 note=42 velocity=64 time=0
EXTRACT: note_off channel=9 note=38 velocity=64 time=0
EXTRACT: note_off channel=7 note=80 velocity=64 time=0
EXTRACT: note_off channel=7 note=64 velocity=64 time=0
EXTRACT: note_off channel=7 note=71 velocity=64 time=0
EXTRACT: note_off channel=7 note=76 velocity=64 time=0
EXTRACT: note_on channel=0 note=76 velocity=41 time=0.111111
EXTRACT: note_off channel=1 note=64 velocity=64 time=0
EXTRACT: note_on channel=1 note=64 velocity=37 time=0
EXTRACT: note_on channel=1 note=52 velocity=37 time=0
EXTRACT: note_on channel=1 note=71 velocity=37 time=0
EXTRACT: note_on channel=1 note=76 velocity=37 time=0
EXTRACT: note_on channel=9 note=42 velocity=64 time=0
EXTRACT: note_on channel=9 note=38 velocity=64 time=0
EXTRACT: note_on channel=7 note=80 velocity=2 time=0
EXTRACT: note_on channel=7 note=76 velocity=2 time=0
EXTRACT: note_on channel=7 note=71 velocity=2 time=0
EXTRACT: note_on channel=7 note=64 velocity=2 time=0
EXTRACT: note_off channel=7 note=80 velocity=64 time=0.111111
EXTRACT: note_off channel=7 note=76 velocity=64 time=0
EXTRACT: note_off channel=7 note=71 velocity=64 time=0
EXTRACT: note_off channel=7 note=64 velocity=64 time=0
EXTRACT: note_on channel=7 note=80 velocity=2 time=0.0555555
EXTRACT: note_on channel=7 note=76 velocity=2 time=0
EXTRACT: note_on channel=7 note=71 velocity=2 time=0
EXTRACT: note_on channel=7 note=64 velocity=2 time=0
EXTRACT: note_off channel=0 note=76 velocity=64 time=0.0555555
EXTRACT: note_off channel=1 note=64 velocity=64 time=0
EXTRACT: note_off channel=1 note=52 velocity=64 time=0
EXTRACT: note_off channel=1 note=71 velocity=64 time=0
EXTRACT: note_off channel=1 note=76 velocity=64 time=0
EXTRACT: note_off channel=3 note=38 velocity=64 time=0
EXTRACT: note_off channel=9 note=42 velocity=64 time=0
EXTRACT: note_off channel=9 note=38 velocity=64 time=0
EXTRACT: note_off channel=7 note=80 velocity=64 time=0.0555555
EXTRACT: note_off channel=7 note=76 velocity=64 time=0
EXTRACT: note_off channel=7 note=71 velocity=64 time=0
EXTRACT: note_off channel=7 note=64 velocity=64 time=0
EXTRACT: note_off channel=6 note=83 velocity=64 time=0.0555555
EXTRACT: note_on channel=6 note=81 velocity=61 time=0
EXTRACT: note_on channel=0 note=74 velocity=41 time=0
EXTRACT: note_on channel=1 note=64 velocity=37 time=0
EXTRACT: note_on channel=1 note=52 velocity=37 time=0
EXTRACT: note_on channel=1 note=71 velocity=37 time=0
EXTRACT: note_on channel=1 note=76 velocity=37 time=0
EXTRACT: note_on channel=3 note=38 velocity=64 time=0
EXTRACT: note_on channel=9 note=42 velocity=64 time=0
EXTRACT: note_on channel=9 note=38 velocity=64 time=0
EXTRACT: note_on channel=7 note=80 velocity=2 time=0
EXTRACT: note_on channel=7 note=76 velocity=2 time=0
EXTRACT: note_on channel=7 note=71 velocity=2 time=0
EXTRACT: note_on channel=7 note=64 velocity=2 time=0
EXTRACT: note_off channel=7 note=80 velocity=64 time=0.111111
EXTRACT: note_off channel=7 note=76 velocity=64 time=0
EXTRACT: note_off channel=7 note=71 velocity=64 time=0
EXTRACT: note_off channel=7 note=64 velocity=64 time=0
EXTRACT: note_on channel=7 note=80 velocity=2 time=0.0555555
EXTRACT: note_on channel=7 note=76 velocity=2 time=0
EXTRACT: note_on channel=7 note=71 velocity=2 time=0
EXTRACT: note_on channel=7 note=64 velocity=2 time=0
EXTRACT: note_off channel=6 note=81 velocity=64 time=0.0555555
EXTRACT: note_off channel=0 note=74 velocity=64 time=0
EXTRACT: note_off channel=1 note=64 velocity=64 time=0
EXTRACT: note_off channel=1 note=52 velocity=64 time=0
EXTRACT: note_off channel=1 note=71 velocity=64 time=0
EXTRACT: note_off channel=1 note=76 velocity=64 time=0
EXTRACT: note_off channel=3 note=38 velocity=64 time=0
EXTRACT: note_off channel=9 note=42 velocity=64 time=0
EXTRACT: note_off channel=9 note=38 velocity=64 time=0
EXTRACT: note_off channel=7 note=80 velocity=64 time=0.0555555
EXTRACT: note_off channel=7 note=76 velocity=64 time=0
EXTRACT: note_off channel=7 note=71 velocity=64 time=0
EXTRACT: note_off channel=7 note=64 velocity=64 time=0
EXTRACT: note_on channel=6 note=83 velocity=61 time=0.0555555
EXTRACT: note_on channel=6 note=86 velocity=61 time=0
EXTRACT: note_on channel=6 note=85 velocity=61 time=0
EXTRACT: note_on channel=6 note=81 velocity=61 time=0
EXTRACT: note_on channel=3 note=45 velocity=64 time=0
EXTRACT: note_on channel=9 note=42 velocity=64 time=0
EXTRACT: note_on channel=9 note=49 velocity=64 time=0
EXTRACT: note_off channel=6 note=85 velocity=64 time=0.111111
EXTRACT: note_off channel=6 note=81 velocity=64 time=0
EXTRACT: note_off channel=9 note=42 velocity=64 time=0.111111
EXTRACT: note_off channel=9 note=49 velocity=64 time=0
EXTRACT: note_on channel=0 note=64 velocity=41 time=0.111111
EXTRACT: note_on channel=9 note=42 velocity=64 time=0
EXTRACT: note_off channel=6 note=83 velocity=64 time=0.111111
EXTRACT: note_off channel=6 note=86 velocity=64 time=0
EXTRACT: note_off channel=0 note=64 velocity=64 time=0.111111
EXTRACT: note_off channel=9 note=42 velocity=64 time=0
EXTRACT: note_on channel=6 note=81 velocity=61 time=0.111111
EXTRACT: note_on channel=6 note=85 velocity=61 time=0
EXTRACT: note_on channel=0 note=69 velocity=41 time=0
EXTRACT: note_on channel=9 note=42 velocity=64 time=0
EXTRACT: note_on channel=0 note=72 velocity=41 time=0.1666665
EXTRACT: note_off channel=0 note=69 velocity=64 time=0.0555555
EXTRACT: note_off channel=9 note=42 velocity=64 time=0
EXTRACT: note_off channel=0 note=72 velocity=64 time=0.0555555
EXTRACT: note_on channel=0 note=73 velocity=41 time=0.0555555
EXTRACT: note_on channel=1 note=81 velocity=37 time=0
EXTRACT: note_on channel=1 note=76 velocity=37 time=0
EXTRACT: note_on channel=1 note=73 velocity=37 time=0
EXTRACT: note_on channel=9 note=42 velocity=64 time=0
EXTRACT: note_on channel=9 note=38 velocity=64 time=0
EXTRACT: note_on channel=7 note=81 velocity=2 time=0
EXTRACT: note_on channel=7 note=76 velocity=2 time=0
EXTRACT: note_on channel=7 note=73 velocity=2 time=0
EXTRACT: note_on channel=7 note=81 velocity=2 time=0
EXTRACT: note_on channel=7 note=76 velocity=2 time=0
EXTRACT: note_on channel=7 note=73 velocity=2 time=0
EXTRACT: note_off channel=6 note=81 velocity=64 time=0.111111
EXTRACT: note_off channel=6 note=85 velocity=64 time=0
EXTRACT: note_off channel=0 note=73 velocity=64 time=0.111111
EXTRACT: note_off channel=9 note=42 velocity=64 time=0
EXTRACT: note_off channel=9 note=38 velocity=64 time=0
EXTRACT: note_off channel=7 note=81 velocity=64 time=0
EXTRACT: note_off channel=7 note=76 velocity=64 time=0
EXTRACT: note_off channel=7 note=73 velocity=64 time=0
EXTRACT: note_off channel=7 note=81 velocity=64 time=0
EXTRACT: note_off channel=7 note=76 velocity=64 time=0
EXTRACT: note_off channel=7 note=73 velocity=64 time=0
EXTRACT: note_on channel=0 note=69 velocity=41 time=0.111111
EXTRACT: note_on channel=9 note=42 velocity=64 time=0
EXTRACT: note_off channel=0 note=69 velocity=64 time=0.222222
EXTRACT: note_off channel=3 note=45 velocity=64 time=0
EXTRACT: note_off channel=9 note=42 velocity=64 time=0
EXTRACT: note_on channel=0 note=64 velocity=41 time=0.111111
EXTRACT: note_off channel=1 note=81 velocity=64 time=0
EXTRACT: note_off channel=1 note=76 velocity=64 time=0
EXTRACT: note_off channel=1 note=73 velocity=64 time=0
EXTRACT: note_on channel=3 note=45 velocity=64 time=0
EXTRACT: note_on channel=9 note=42 velocity=64 time=0
EXTRACT: note_off channel=0 note=64 velocity=64 time=0.222222
EXTRACT: note_off channel=3 note=45 velocity=64 time=0
EXTRACT: note_off channel=9 note=42 velocity=64 time=0
EXTRACT: note_on channel=6 note=78 velocity=61 time=0.111111
EXTRACT: note_on channel=6 note=81 velocity=61 time=0
EXTRACT: note_on channel=6 note=80 velocity=61 time=0
EXTRACT: note_on channel=6 note=83 velocity=61 time=0
EXTRACT: note_on channel=0 note=62 velocity=41 time=0
EXTRACT: note_on channel=3 note=42 velocity=64 time=0
EXTRACT: note_on channel=9 note=42 velocity=64 time=0
EXTRACT: note_off channel=6 note=78 velocity=64 time=0.111111
EXTRACT: note_off channel=6 note=81 velocity=64 time=0
EXTRACT: note_off channel=0 note=62 velocity=64 time=0.111111
EXTRACT: note_off channel=9 note=42 velocity=64 time=0
EXTRACT: note_on channel=0 note=69 velocity=41 time=0.111111
EXTRACT: note_on channel=9 note=42 velocity=64 time=0
EXTRACT: note_off channel=6 note=80 velocity=64 time=0.111111
EXTRACT: note_off channel=6 note=83 velocity=64 time=0
EXTRACT: note_off channel=0 note=69 velocity=64 time=0.111111
EXTRACT: note_off channel=9 note=42 velocity=64 time=0
EXTRACT: note_on channel=6 note=78 velocity=61 time=0.111111
EXTRACT: note_on channel=6 note=81 velocity=61 time=0
EXTRACT: note_on channel=0 note=74 velocity=41 time=0
EXTRACT: note_on channel=9 note=42 velocity=64 time=0
EXTRACT: note_on channel=0 note=77 velocity=41 time=0.1666665
EXTRACT: note_off channel=0 note=74 velocity=64 time=0.0555555
EXTRACT: note_off channel=9 note=42 velocity=64 time=0
EXTRACT: note_off channel=0 note=77 velocity=64 time=0.0555555
EXTRACT: note_on channel=0 note=78 velocity=41 time=0.0555555
EXTRACT: note_on channel=1 note=78 velocity=37 time=0
EXTRACT: note_on channel=1 note=73 velocity=37 time=0
EXTRACT: note_on channel=1 note=69 velocity=37 time=0
EXTRACT: note_on channel=9 note=42 velocity=64 time=0
EXTRACT: note_on channel=9 note=38 velocity=64 time=0
EXTRACT: note_on channel=7 note=78 velocity=2 time=0
EXTRACT: note_on channel=7 note=73 velocity=2 time=0
EXTRACT: note_on channel=7 note=69 velocity=2 time=0
EXTRACT: note_on channel=7 note=78 velocity=2 time=0
EXTRACT: note_on channel=7 note=73 velocity=2 time=0
EXTRACT: note_on channel=7 note=69 velocity=2 time=0
EXTRACT: note_off channel=6 note=78 velocity=64 time=0.111111
EXTRACT: note_off channel=6 note=81 velocity=64 time=0
EXTRACT: note_off channel=0 note=78 velocity=64 time=0.111111
EXTRACT: note_off channel=9 note=42 velocity=64 time=0
EXTRACT: note_off channel=9 note=38 velocity=64 time=0
EXTRACT: note_off channel=7 note=78 velocity=64 time=0
EXTRACT: note_off channel=7 note=73 velocity=64 time=0
EXTRACT: note_off channel=7 note=69 velocity=64 time=0
EXTRACT: note_off channel=7 note=78 velocity=64 time=0
EXTRACT: note_off channel=7 note=73 velocity=64 time=0
EXTRACT: note_off channel=7 note=69 velocity=64 time=0
EXTRACT: note_on channel=0 note=74 velocity=41 time=0.111111
EXTRACT: note_off channel=3 note=42 velocity=64 time=0
EXTRACT: note_on channel=9 note=42 velocity=64 time=0
EXTRACT: note_off channel=0 note=74 velocity=64 time=0.222222
EXTRACT: note_off channel=9 note=42 velocity=64 time=0
EXTRACT: note_on channel=0 note=69 velocity=41 time=0.111111
EXTRACT: note_off channel=1 note=78 velocity=64 time=0
EXTRACT: note_off channel=1 note=73 velocity=64 time=0
EXTRACT: note_off channel=1 note=69 velocity=64 time=0
EXTRACT: note_on channel=3 note=42 velocity=64 time=0
EXTRACT: note_on channel=9 note=42 velocity=64 time=0
EXTRACT: note_off channel=0 note=69 velocity=64 time=0.222222
EXTRACT: note_off channel=3 note=42 velocity=64 time=0
EXTRACT: note_off channel=9 note=42 velocity=64 time=0
EXTRACT: note_on channel=6 note=76 velocity=61 time=0.111111
EXTRACT: note_on channel=6 note=80 velocity=61 time=0
EXTRACT: note_on channel=0 note=66 velocity=67 time=0
EXTRACT: note_on channel=1 note=62 velocity=37 time=0
EXTRACT: note_on channel=3 note=38 velocity=64 time=0
EXTRACT: note_on channel=9 note=42 velocity=64 time=0
EXTRACT: note_off channel=6 note=76 velocity=64 time=0.222222
EXTRACT: note_off channel=6 note=80 velocity=64 time=0
EXTRACT: note_off channel=0 note=66 velocity=64 time=0
EXTRACT: note_off channel=9 note=42 velocity=64 time=0
EXTRACT: note_on channel=6 note=78 velocity=61 time=0.111111
EXTRACT: note_on channel=6 note=74 velocity=61 time=0
EXTRACT: note_on channel=0 note=73 velocity=67 time=0
EXTRACT: note_on channel=9 note=42 velocity=64 time=0
EXTRACT: note_off channel=0 note=73 velocity=64 time=0.222222
EXTRACT: note_off channel=9 note=42 velocity=64 time=0
EXTRACT: note_on channel=0 note=78 velocity=67 time=0.111111
EXTRACT: note_off channel=1 note=62 velocity=64 time=0
EXTRACT: note_on channel=9 note=42 velocity=64 time=0
EXTRACT: note_off channel=6 note=78 velocity=64 time=0.111111
EXTRACT: note_off channel=6 note=74 velocity=64 time=0
EXTRACT: note_on channel=0 note=80 velocity=67 time=0.0555555
EXTRACT: note_off channel=0 note=78 velocity=64 time=0.0555555
EXTRACT: note_off channel=9 note=42 velocity=64 time=0
EXTRACT: note_off channel=0 note=80 velocity=64 time=0.0555555
EXTRACT: note_on channel=0 note=81 velocity=67 time=0.0555555
EXTRACT: note_on channel=1 note=78 velocity=37 time=0
EXTRACT: note_on channel=1 note=74 velocity=37 time=0
EXTRACT: note_on channel=1 note=69 velocity=37 time=0
EXTRACT: note_on channel=9 note=42 velocity=64 time=0
EXTRACT: note_on channel=9 note=38 velocity=64 time=0
EXTRACT: note_on channel=7 note=74 velocity=2 time=0
EXTRACT: note_on channel=7 note=69 velocity=2 time=0
EXTRACT: note_on channel=7 note=62 velocity=2 time=0
EXTRACT: note_on channel=7 note=74 velocity=2 time=0
EXTRACT: note_on channel=7 note=69 velocity=2 time=0
EXTRACT: note_on channel=7 note=62 velocity=2 time=0
EXTRACT: note_off channel=0 note=81 velocity=64 time=0.222222
EXTRACT: note_off channel=1 note=78 velocity=64 time=0
EXTRACT: note_off channel=1 note=74 velocity=64 time=0
EXTRACT: note_off channel=1 note=69 velocity=64 time=0
EXTRACT: note_off channel=9 note=42 velocity=64 time=0
EXTRACT: note_off channel=9 note=38 velocity=64 time=0
EXTRACT: note_off channel=7 note=74 velocity=64 time=0
EXTRACT: note_off channel=7 note=69 velocity=64 time=0
EXTRACT: note_off channel=7 note=62 velocity=64 time=0
EXTRACT: note_off channel=7 note=74 velocity=64 time=0
EXTRACT: note_off channel=7 note=69 velocity=64 time=0
EXTRACT: note_off channel=7 note=62 velocity=64 time=0
EXTRACT: note_on channel=6 note=78 velocity=61 time=0.111111
EXTRACT: note_on channel=6 note=74 velocity=61 time=0
EXTRACT: note_on channel=6 note=80 velocity=61 time=0
EXTRACT: note_on channel=6 note=76 velocity=61 time=0
EXTRACT: note_on channel=0 note=78 velocity=67 time=0
EXTRACT: note_on channel=1 note=74 velocity=37 time=0
EXTRACT: note_off channel=3 note=38 velocity=64 time=0
EXTRACT: note_on channel=9 note=42 velocity=64 time=0
EXTRACT: note_off channel=6 note=78 velocity=64 time=0.111111
EXTRACT: note_off channel=6 note=74 velocity=64 time=0
EXTRACT: note_off channel=6 note=80 velocity=64 time=0.111111
EXTRACT: note_off channel=6 note=76 velocity=64 time=0
EXTRACT: note_off channel=0 note=78 velocity=64 time=0
EXTRACT: note_off channel=1 note=74 velocity=64 time=0
EXTRACT: note_off channel=9 note=42 velocity=64 time=0
EXTRACT: note_on channel=6 note=74 velocity=61 time=0.111111
EXTRACT: note_on channel=6 note=78 velocity=61 time=0
EXTRACT: note_on channel=0 note=73 velocity=67 time=0
EXTRACT: note_on channel=1 note=78 velocity=37 time=0
EXTRACT: note_on channel=3 note=38 velocity=64 time=0
EXTRACT: note_on channel=9 note=42 velocity=64 time=0
EXTRACT: note_off channel=6 note=74 velocity=64 time=0.222222
EXTRACT: note_off channel=6 note=78 velocity=64 time=0
EXTRACT: note_off channel=0 note=73 velocity=64 time=0
EXTRACT: note_off channel=1 note=78 velocity=64 time=0
EXTRACT: note_off channel=3 note=38 velocity=64 time=0
EXTRACT: note_off channel=9 note=42 velocity=64 time=0
EXTRACT: note_on channel=6 note=73 velocity=61 time=0.111111
EXTRACT: note_on channel=6 note=77 velocity=61 time=0
EXTRACT: note_on channel=0 note=62 velocity=67 time=0
EXTRACT: note_on channel=1 note=62 velocity=37 time=0
EXTRACT: note_on channel=3 note=38 velocity=64 time=0
EXTRACT: note_on channel=9 note=42 velocity=64 time=0
EXTRACT: note_off channel=0 note=62 velocity=64 time=0.222222
EXTRACT: note_off channel=9 note=42 velocity=64 time=0
EXTRACT: note_off channel=6 note=73 velocity=64 time=0.111111
EXTRACT: note_on channel=0 note=69 velocity=67 time=0
EXTRACT: note_on channel=1 note=69 velocity=37 time=0
EXTRACT: note_on channel=9 note=42 velocity=64 time=0
EXTRACT: note_on channel=6 note=74 velocity=61 time=0.1666665
EXTRACT: note_off channel=0 note=69 velocity=64 time=0.0555555
EXTRACT: note_off channel=9 note=42 velocity=64 time=0
EXTRACT: note_off channel=6 note=74 velocity=64 time=0.0555555
EXTRACT: note_off channel=6 note=77 velocity=64 time=0.0555555
EXTRACT: note_on channel=6 note=73 velocity=61 time=0
EXTRACT: note_on channel=0 note=74 velocity=67 time=0
EXTRACT: note_on channel=1 note=74 velocity=37 time=0
EXTRACT: note_on channel=9 note=42 velocity=64 time=0
EXTRACT: note_on channel=0 note=77 velocity=67 time=0.1666665
EXTRACT: note_on channel=9 note=38 velocity=64 time=0
EXTRACT: note_on channel=7 note=76 velocity=2 time=0
EXTRACT: note_on channel=7 note=76 velocity=2 time=0
EXTRACT: note_off channel=6 note=73 velocity=64 time=0.0555555
EXTRACT: note_off channel=0 note=74 velocity=64 time=0
EXTRACT: note_off channel=9 note=42 velocity=64 time=0
EXTRACT: note_off channel=0 note=77 velocity=64 time=0.0555555
EXTRACT: note_off channel=9 note=38 velocity=64 time=0
EXTRACT: note_off channel=7 note=76 velocity=64 time=0
EXTRACT: note_off channel=7 note=76 velocity=64 time=0
EXTRACT: note_on channel=6 note=71 velocity=61 time=0.0555555
EXTRACT: note_on channel=6 note=77 velocity=61 time=0
EXTRACT: note_on channel=0 note=78 velocity=67 time=0
EXTRACT: note_on channel=1 note=78 velocity=37 time=0
EXTRACT: note_on channel=9 note=42 velocity=64 time=0
EXTRACT: note_on channel=9 note=38 velocity=64 time=0
EXTRACT: note_on channel=7 note=77 velocity=2 time=0
EXTRACT: note_on channel=7 note=77 velocity=2 time=0
EXTRACT: note_off channel=6 note=71 velocity=64 time=0.222222
EXTRACT: note_off channel=0 note=78 velocity=64 time=0
EXTRACT: note_off channel=9 note=42 velocity=64 time=0
EXTRACT: note_off channel=9 note=38 velocity=64 time=0
EXTRACT: note_off channel=7 note=77 velocity=64 time=0
EXTRACT: note_off channel=7 note=77 velocity=64 time=0
EXTRACT: note_on channel=6 note=69 velocity=61 time=0.111111
EXTRACT: note_on channel=0 note=74 velocity=67 time=0
EXTRACT: note_on channel=9 note=42 velocity=64 time=0
EXTRACT: note_on channel=9 note=38 velocity=64 time=0
EXTRACT: note_on channel=7 note=77 velocity=2 time=0
EXTRACT: note_on channel=7 note=76 velocity=2 time=0
EXTRACT: note_on channel=7 note=77 velocity=2 time=0
EXTRACT: note_on channel=7 note=76 velocity=2 time=0
EXTRACT: note_off channel=6 note=69 velocity=64 time=0.222222
EXTRACT: note_off channel=0 note=74 velocity=64 time=0
EXTRACT: note_off channel=3 note=38 velocity=64 time=0
EXTRACT: note_off channel=9 note=42 velocity=64 time=0
EXTRACT: note_off channel=9 note=38 velocity=64 time=0
EXTRACT: note_off channel=7 note=77 velocity=64 time=0
EXTRACT: note_off channel=7 note=76 velocity=64 time=0
EXTRACT: note_off channel=7 note=77 velocity=64 time=0
EXTRACT: note_off channel=7 note=76 velocity=64 time=0
EXTRACT: note_off channel=6 note=77 velocity=64 time=0.111111
EXTRACT: note_on channel=0 note=69 velocity=67 time=0
EXTRACT: note_on channel=3 note=38 velocity=64 time=0
EXTRACT: note_on channel=9 note=42 velocity=64 time=0
EXTRACT: note_on channel=9 note=38 velocity=64 time=0
EXTRACT: note_on channel=7 note=77 velocity=2 time=0
EXTRACT: note_on channel=7 note=74 velocity=2 time=0
EXTRACT: note_on channel=7 note=77 velocity=2 time=0
EXTRACT: note_on channel=7 note=74 velocity=2 time=0
EXTRACT: note_off channel=1 note=62 velocity=64 time=0.111111
EXTRACT: note_off channel=1 note=69 velocity=64 time=0
EXTRACT: note_off channel=1 note=74 velocity=64 time=0
EXTRACT: note_off channel=1 note=78 velocity=64 time=0
EXTRACT: note_off channel=0 note=69 velocity=64 time=0.111111
EXTRACT: note_off channel=3 note=38 velocity=64 time=0
EXTRACT: note_off channel=9 note=42 velocity=64 time=0
EXTRACT: note_off channel=9 note=38 velocity=64 time=0
EXTRACT: note_off channel=7 note=77 velocity=64 time=0
EXTRACT: note_off channel=7 note=74 velocity=64 time=0
EXTRACT: note_off channel=7 note=77 velocity=64 time=0
EXTRACT: note_off channel=7 note=74 velocity=64 time=0
EXTRACT: note_on channel=3 note=47 velocity=64 time=0.111111
EXTRACT: note_on channel=9 note=42 velocity=64 time=0
EXTRACT: note_on channel=9 note=49 velocity=64 time=0
EXTRACT: note_off channel=9 note=42 velocity=64 time=0.222222
EXTRACT: note_off channel=9 note=49 velocity=64 time=0
EXTRACT: note_on channel=0 note=66 velocity=67 time=0.111111
EXTRACT: note_on channel=9 note=42 velocity=64 time=0
EXTRACT: note_off channel=0 note=66 velocity=64 time=0.222222
EXTRACT: note_off channel=9 note=42 velocity=64 time=0
EXTRACT: note_on channel=0 note=71 velocity=67 time=0.111111
EXTRACT: note_on channel=9 note=42 velocity=64 time=0
EXTRACT: note_off channel=0 note=71 velocity=64 time=0.222222
EXTRACT: note_off channel=9 note=42 velocity=64 time=0
EXTRACT: note_on channel=6 note=78 velocity=61 time=0.111111
EXTRACT: note_on channel=6 note=71 velocity=64 time=0
EXTRACT: note_on channel=0 note=74 velocity=67 time=0
EXTRACT: note_on channel=1 note=83 velocity=37 time=0
EXTRACT: note_on channel=9 note=42 velocity=64 time=0
EXTRACT: note_on channel=9 note=38 velocity=64 time=0
EXTRACT: note_off channel=6 note=78 velocity=64 time=0.222222
EXTRACT: note_off channel=6 note=71 velocity=64 time=0
EXTRACT: note_off channel=0 note=74 velocity=64 time=0
EXTRACT: note_off channel=9 note=42 velocity=64 time=0
EXTRACT: note_off channel=9 note=38 velocity=64 time=0
EXTRACT: note_on channel=6 note=81 velocity=61 time=0.111111
EXTRACT: note_on channel=6 note=73 velocity=64 time=0
EXTRACT: note_on channel=0 note=71 velocity=67 time=0
EXTRACT: note_off channel=3 note=47 velocity=64 time=0
EXTRACT: note_on channel=9 note=42 velocity=64 time=0
EXTRACT: note_off channel=6 note=81 velocity=64 time=0.111111
EXTRACT: note_off channel=6 note=73 velocity=64 time=0
EXTRACT: note_on channel=6 note=81 velocity=61 time=0.0555555
EXTRACT: note_on channel=6 note=74 velocity=64 time=0
EXTRACT: note_off channel=0 note=71 velocity=64 time=0.0555555
EXTRACT: note_off channel=9 note=42 velocity=64 time=0
EXTRACT: note_on channel=0 note=66 velocity=67 time=0.111111
EXTRACT: note_off channel=1 note=83 velocity=64 time=0
EXTRACT: note_on channel=3 note=47 velocity=64 time=0
EXTRACT: note_on channel=9 note=42 velocity=64 time=0
EXTRACT: note_off channel=6 note=81 velocity=64 time=0.1666665
EXTRACT: note_off channel=6 note=74 velocity=64 time=0
EXTRACT: note_off channel=0 note=66 velocity=64 time=0.0555555
EXTRACT: note_off channel=3 note=47 velocity=64 time=0
EXTRACT: note_off channel=9 note=42 velocity=64 time=0
EXTRACT: note_on channel=6 note=80 velocity=61 time=0.111111
EXTRACT: note_on channel=6 note=76 velocity=64 time=0
EXTRACT: note_on channel=6 note=52 velocity=64 time=0
EXTRACT: note_on channel=6 note=52 velocity=64 time=0
EXTRACT: note_on channel=3 note=40 velocity=64 time=0
EXTRACT: note_on channel=9 note=42 velocity=64 time=0
EXTRACT: note_off channel=6 note=76 velocity=64 time=0.111111
EXTRACT: note_off channel=6 note=80 velocity=64 time=0.0555555
EXTRACT: note_on channel=6 note=78 velocity=61 time=0
EXTRACT: note_on channel=6 note=73 velocity=64 time=0
EXTRACT: note_off channel=6 note=52 velocity=64 time=0.0555555
EXTRACT: note_off channel=6 note=52 velocity=64 time=0
EXTRACT: note_off channel=9 note=42 velocity=64 time=0
EXTRACT: note_off channel=6 note=73 velocity=64 time=0.0555555
EXTRACT: note_off channel=6 note=78 velocity=64 time=0.0555555
EXTRACT: note_on channel=6 note=76 velocity=61 time=0
EXTRACT: note_on channel=6 note=71 velocity=64 time=0
EXTRACT: note_on channel=0 note=59 velocity=67 time=0
EXTRACT: note_on channel=9 note=42 velocity=64 time=0
EXTRACT: note_off channel=6 note=76 velocity=64 time=0.222222
EXTRACT: note_off channel=6 note=71 velocity=64 time=0
EXTRACT: note_off channel=0 note=59 velocity=64 time=0
EXTRACT: note_off channel=9 note=42 velocity=64 time=0
EXTRACT: note_on channel=0 note=64 velocity=67 time=0.111111
EXTRACT: note_on channel=9 note=42 velocity=64 time=0
EXTRACT: note_on channel=0 note=67 velocity=67 time=0.1666665
EXTRACT: note_off channel=0 note=64 velocity=64 time=0.0555555
EXTRACT: note_off channel=9 note=42 velocity=64 time=0
EXTRACT: note_off channel=0 note=67 velocity=64 time=0.0555555
EXTRACT: note_on channel=0 note=68 velocity=67 time=0.0555555
EXTRACT: note_on channel=0 note=71 velocity=67 time=0
EXTRACT: note_on channel=1 note=80 velocity=37 time=0
EXTRACT: note_on channel=9 note=42 velocity=64 time=0
EXTRACT: note_on channel=9 note=38 velocity=64 time=0
EXTRACT: note_off channel=0 note=68 velocity=64 time=0.222222
EXTRACT: note_off channel=0 note=71 velocity=64 time=0
EXTRACT: note_off channel=9 note=42 velocity=64 time=0
EXTRACT: note_off channel=9 note=38 velocity=64 time=0
EXTRACT: note_on channel=6 note=85 velocity=61 time=0.111111
EXTRACT: note_on channel=0 note=64 velocity=67 time=0
EXTRACT: note_off channel=3 note=40 velocity=64 time=0
EXTRACT: note_on channel=9 note=42 velocity=64 time=0
EXTRACT: note_off channel=6 note=85 velocity=64 time=0.111111
EXTRACT: note_on channel=6 note=85 velocity=61 time=0.0555555
EXTRACT: note_on channel=6 note=83 velocity=61 time=0
EXTRACT: note_off channel=0 note=64 velocity=64 time=0.0555555
EXTRACT: note_off channel=9 note=42 velocity=64 time=0
EXTRACT: note_off channel=6 note=83 velocity=64 time=0.0555555
EXTRACT: note_on channel=0 note=59 velocity=67 time=0.0555555
EXTRACT: note_off channel=1 note=80 velocity=64 time=0
EXTRACT: note_on channel=3 note=40 velocity=64 time=0
EXTRACT: note_on channel=9 note=42 velocity=64 time=0
EXTRACT: note_off channel=6 note=85 velocity=64 time=0.1666665
EXTRACT: note_off channel=0 note=59 velocity=64 time=0.0555555
EXTRACT: note_off channel=3 note=40 velocity=64 time=0
EXTRACT: note_off channel=9 note=42 velocity=64 time=0
EXTRACT: note_on channel=0 note=61 velocity=67 time=0.111111
EXTRACT: note_on channel=3 note=37 velocity=64 time=0
EXTRACT: note_on channel=9 note=42 velocity=64 time=0
EXTRACT: note_off channel=0 note=61 velocity=64 time=0.222222
EXTRACT: note_off channel=9 note=42 velocity=64 time=0
EXTRACT: note_on channel=0 note=61 velocity=67 time=0.111111
EXTRACT: note_on channel=0 note=68 velocity=67 time=0
EXTRACT: note_on channel=0 note=73 velocity=67 time=0
EXTRACT: note_on channel=9 note=42 velocity=64 time=0
EXTRACT: note_off channel=0 note=61 velocity=64 time=0.222222
EXTRACT: note_off channel=0 note=68 velocity=64 time=0
EXTRACT: note_off channel=0 note=73 velocity=64 time=0
EXTRACT: note_off channel=9 note=42 velocity=64 time=0
EXTRACT: note_on channel=0 note=61 velocity=67 time=0.111111
EXTRACT: note_on channel=0 note=68 velocity=67 time=0
EXTRACT: note_on channel=0 note=73 velocity=67 time=0
EXTRACT: note_on channel=9 note=42 velocity=64 time=0
EXTRACT: note_on channel=6 note=78 velocity=64 time=0.1666665
EXTRACT: note_off channel=0 note=61 velocity=64 time=0.0555555
EXTRACT: note_off channel=0 note=68 velocity=64 time=0
EXTRACT: note_off channel=0 note=73 velocity=64 time=0
EXTRACT: note_off channel=9 note=42 velocity=64 time=0
EXTRACT: note_off channel=6 note=78 velocity=64 time=0.0555555
EXTRACT: note_on channel=6 note=80 velocity=61 time=0.0555555
EXTRACT: note_on channel=6 note=73 velocity=64 time=0
EXTRACT: note_on channel=0 note=77 velocity=67 time=0
EXTRACT: note_on channel=1 note=80 velocity=37 time=0
EXTRACT: note_on channel=1 note=85 velocity=37 time=0
EXTRACT: note_on channel=9 note=42 velocity=64 time=0
EXTRACT: note_on channel=9 note=38 velocity=64 time=0
EXTRACT: note_off channel=6 note=80 velocity=64 time=0.222222
EXTRACT: note_off channel=6 note=73 velocity=64 time=0
EXTRACT: note_off channel=0 note=77 velocity=64 time=0
EXTRACT: note_off channel=9 note=42 velocity=64 time=0
EXTRACT: note_off channel=9 note=38 velocity=64 time=0
EXTRACT: note_on channel=6 note=83 velocity=61 time=0.111111
EXTRACT: note_on channel=6 note=76 velocity=64 time=0
EXTRACT: note_on channel=0 note=73 velocity=67 time=0
EXTRACT: note_off channel=3 note=37 velocity=64 time=0
EXTRACT: note_on channel=9 note=42 velocity=64 time=0
EXTRACT: note_off channel=6 note=83 velocity=64 time=0.222222
EXTRACT: note_off channel=6 note=76 velocity=64 time=0
EXTRACT: note_off channel=0 note=73 velocity=64 time=0
EXTRACT: note_off channel=9 note=42 velocity=64 time=0
EXTRACT: note_on channel=6 note=80 velocity=61 time=0.111111
EXTRACT: note_on channel=6 note=77 velocity=64 time=0
EXTRACT: note_on channel=0 note=68 velocity=67 time=0
EXTRACT: note_off channel=1 note=80 velocity=64 time=0
EXTRACT: note_off channel=1 note=85 velocity=64 time=0
EXTRACT: note_on channel=3 note=37 velocity=64 time=0
EXTRACT: note_on channel=9 note=42 velocity=64 time=0
EXTRACT: note_off channel=6 note=80 velocity=64 time=0.222222
EXTRACT: note_off channel=6 note=77 velocity=64 time=0
EXTRACT: note_off channel=0 note=68 velocity=64 time=0
EXTRACT: note_off channel=3 note=37 velocity=64 time=0
EXTRACT: note_off channel=9 note=42 velocity=64 time=0
EXTRACT: note_on channel=6 note=81 velocity=61 time=0.111111
EXTRACT: note_on channel=6 note=78 velocity=64 time=0
EXTRACT: note_on channel=6 note=73 velocity=64 time=0
EXTRACT: note_on channel=0 note=81 velocity=67 time=0
EXTRACT: note_on channel=0 note=78 velocity=67 time=0
EXTRACT: note_on channel=0 note=73 velocity=67 time=0
EXTRACT: note_on channel=0 note=66 velocity=67 time=0
EXTRACT: note_on channel=1 note=78 velocity=37 time=0
EXTRACT: note_on channel=1 note=73 velocity=37 time=0
EXTRACT: note_on channel=1 note=66 velocity=37 time=0
EXTRACT: note_on channel=3 note=42 velocity=64 time=0
EXTRACT: note_on channel=9 note=42 velocity=64 time=0
EXTRACT: note_off channel=9 note=42 velocity=64 time=0.222222
EXTRACT: note_on channel=9 note=42 velocity=64 time=0.111111
EXTRACT: note_off channel=9 note=42 velocity=64 time=0.222222
EXTRACT: note_off channel=6 note=81 velocity=64 time=0.111111
EXTRACT: note_off channel=6 note=78 velocity=64 time=0
EXTRACT: note_off channel=6 note=73 velocity=64 time=0
EXTRACT: note_off channel=0 note=81 velocity=64 time=0
EXTRACT: note_off channel=0 note=78 velocity=64 time=0
EXTRACT: note_off channel=0 note=73 velocity=64 time=0
EXTRACT: note_off channel=0 note=66 velocity=64 time=0
EXTRACT: note_off channel=1 note=78 velocity=64 time=0
EXTRACT: note_off channel=1 note=73 velocity=64 time=0
EXTRACT: note_off channel=1 note=66 velocity=64 time=0
EXTRACT: note_off channel=3 note=42 velocity=64 time=0
EXTRACT: note_on channel=9 note=42 velocity=64 time=0
EXTRACT: note_on channel=9 note=38 velocity=64 time=0.1666665
EXTRACT: note_off channel=9 note=42 velocity=64 time=0.0555555
EXTRACT: note_off channel=9 note=38 velocity=64 time=0.0555555
EXTRACT: note_on channel=6 note=80 velocity=61 time=0.0555555
EXTRACT: note_on channel=6 note=76 velocity=64 time=0
EXTRACT: note_on channel=6 note=71 velocity=64 time=0
EXTRACT: note_on channel=0 note=64 velocity=67 time=0
EXTRACT: note_on channel=0 note=71 velocity=67 time=0
EXTRACT: note_on channel=0 note=76 velocity=67 time=0
EXTRACT: note_on channel=0 note=80 velocity=67 time=0
EXTRACT: note_on channel=1 note=76 velocity=37 time=0
EXTRACT: note_on channel=1 note=71 velocity=37 time=0
EXTRACT: note_on channel=1 note=64 velocity=37 time=0
EXTRACT: note_on channel=3 note=40 velocity=64 time=0
EXTRACT: note_on channel=9 note=42 velocity=64 time=0
EXTRACT: note_on channel=9 note=38 velocity=64 time=0
EXTRACT: note_off channel=9 note=42 velocity=64 time=0.222222
EXTRACT: note_off channel=9 note=38 velocity=64 time=0
EXTRACT: note_on channel=9 note=42 velocity=64 time=0.111111
EXTRACT: note_on channel=9 note=38 velocity=64 time=0
EXTRACT: note_off channel=6 note=80 velocity=64 time=0.111111
EXTRACT: note_off channel=6 note=76 velocity=64 time=0
EXTRACT: note_off channel=6 note=71 velocity=64 time=0
EXTRACT: note_off channel=9 note=42 velocity=64 time=0.111111
EXTRACT: note_off channel=9 note=38 velocity=64 time=0
EXTRACT: note_on channel=6 note=78 velocity=61 time=0.111111
EXTRACT: note_on channel=6 note=74 velocity=64 time=0
EXTRACT: note_on channel=6 note=69 velocity=64 time=0
EXTRACT: note_off channel=0 note=64 velocity=64 time=0
EXTRACT: note_off channel=0 note=71 velocity=64 time=0
EXTRACT: note_off channel=0 note=76 velocity=64 time=0
EXTRACT: note_off channel=0 note=80 velocity=64 time=0
EXTRACT: note_off channel=1 note=76 velocity=64 time=0
EXTRACT: note_off channel=1 note=71 velocity=64 time=0
EXTRACT: note_off channel=1 note=64 velocity=64 time=0
EXTRACT: note_off channel=3 note=40 velocity=64 time=0
EXTRACT: note_on channel=9 note=42 velocity=64 time=0
EXTRACT: note_on channel=9 note=38 velocity=64 time=0
EXTRACT: note_off channel=6 note=78 velocity=64 time=0.222222
EXTRACT: note_off channel=6 note=74 velocity=64 time=0
EXTRACT: note_off channel=6 note=69 velocity=64 time=0
EXTRACT: note_off channel=9 note=42 velocity=64 time=0
EXTRACT: note_off channel=9 note=38 velocity=64 time=0
EXTRACT: note_on channel=6 note=78 velocity=61 time=0.111111
EXTRACT: note_on channel=6 note=74 velocity=64 time=0
EXTRACT: note_on channel=6 note=69 velocity=64 time=0
EXTRACT: note_on channel=0 note=74 velocity=67 time=0
EXTRACT: note_on channel=0 note=69 velocity=67 time=0
EXTRACT: note_on channel=0 note=62 velocity=67 time=0
EXTRACT: note_on channel=1 note=69 velocity=37 time=0
EXTRACT: note_on channel=1 note=62 velocity=37 time=0
EXTRACT: note_on channel=1 note=74 velocity=37 time=0
EXTRACT: note_on channel=3 note=38 velocity=64 time=0
EXTRACT: note_on channel=9 note=42 velocity=64 time=0
EXTRACT: note_on channel=9 note=49 velocity=64 time=0
EXTRACT: note_off channel=9 note=42 velocity=64 time=0.222222
EXTRACT: note_off channel=9 note=49 velocity=64 time=0
EXTRACT: note_on channel=9 note=42 velocity=64 time=0.111111
EXTRACT: note_off channel=9 note=42 velocity=64 time=0.222222
EXTRACT: note_on channel=9 note=42 velocity=64 time=0.111111
EXTRACT: note_off channel=9 note=42 velocity=64 time=0.222222
EXTRACT: note_on channel=9 note=42 velocity=64 time=0.111111
EXTRACT: note_on channel=9 note=38 velocity=64 time=0
EXTRACT: note_off channel=9 note=42 velocity=64 time=0.222222
EXTRACT: note_off channel=9 note=38 velocity=64 time=0
EXTRACT: note_off channel=6 note=78 velocity=64 time=0.111111
EXTRACT: note_off channel=0 note=74 velocity=64 time=0
EXTRACT: note_off channel=0 note=69 velocity=64 time=0
EXTRACT: note_off channel=0 note=62 velocity=64 time=0
EXTRACT: note_off channel=1 note=69 velocity=64 time=0
EXTRACT: note_off channel=1 note=62 velocity=64 time=0
EXTRACT: note_off channel=1 note=74 velocity=64 time=0
EXTRACT: note_off channel=3 note=38 velocity=64 time=0
EXTRACT: note_on channel=9 note=42 velocity=64 time=0
EXTRACT: note_off channel=9 note=42 velocity=64 time=0.222222
EXTRACT: note_on channel=3 note=38 velocity=64 time=0.111111
EXTRACT: note_on channel=9 note=42 velocity=64 time=0
EXTRACT: note_off channel=3 note=38 velocity=64 time=0.222222
EXTRACT: note_off channel=9 note=42 velocity=64 time=0
EXTRACT: note_on channel=6 note=77 velocity=61 time=0.111111
EXTRACT: note_on channel=0 note=62 velocity=67 time=0
EXTRACT: note_on channel=1 note=62 velocity=37 time=0
EXTRACT: note_on channel=3 note=38 velocity=64 time=0
EXTRACT: note_on channel=9 note=42 velocity=64 time=0
EXTRACT: note_on channel=0 note=69 velocity=67 time=0.1666665
EXTRACT: note_on channel=1 note=69 velocity=37 time=0
EXTRACT: note_off channel=9 note=42 velocity=64 time=0.0555555
EXTRACT: note_on channel=0 note=74 velocity=67 time=0.111111
EXTRACT: note_on channel=1 note=74 velocity=37 time=0
EXTRACT: note_on channel=9 note=42 velocity=64 time=0
EXTRACT: note_on channel=0 note=77 velocity=67 time=0.1666665
EXTRACT: note_on channel=1 note=77 velocity=37 time=0
EXTRACT: note_off channel=9 note=42 velocity=64 time=0.0555555
EXTRACT: note_on channel=0 note=81 velocity=67 time=0.111111
EXTRACT: note_on channel=1 note=81 velocity=37 time=0
EXTRACT: note_on channel=9 note=42 velocity=64 time=0
EXTRACT: note_on channel=9 note=38 velocity=64 time=0.1666665
EXTRACT: note_off channel=9 note=42 velocity=64 time=0.0555555
EXTRACT: note_on channel=9 note=42 velocity=64 time=0.111111
EXTRACT: note_on channel=9 note=42 velocity=64 time=0
EXTRACT: note_off channel=9 note=38 velocity=64 time=0.0555555
EXTRACT: note_on channel=9 note=38 velocity=64 time=0.111111
EXTRACT: note_off channel=9 note=42 velocity=64 time=0.0555555
EXTRACT: note_off channel=9 note=42 velocity=64 time=0
EXTRACT: note_off channel=9 note=38 velocity=64 time=0.0555555
EXTRACT: note_off channel=6 note=74 velocity=64 time=0.0555555
EXTRACT: note_off channel=6 note=69 velocity=64 time=0
EXTRACT: note_off channel=6 note=77 velocity=64 time=0
EXTRACT: note_off channel=0 note=62 velocity=64 time=0
EXTRACT: note_off channel=0 note=69 velocity=64 time=0
EXTRACT: note_off channel=0 note=74 velocity=64 time=0
EXTRACT: note_off channel=0 note=77 velocity=64 time=0
EXTRACT: note_on channel=9 note=42 velocity=64 time=0
EXTRACT: note_on channel=9 note=42 velocity=64 time=0
EXTRACT: note_on channel=9 note=38 velocity=64 time=0
EXTRACT: note_off channel=0 note=81 velocity=64 time=0.1666665
EXTRACT: note_off channel=3 note=38 velocity=64 time=0.0555555
EXTRACT: note_off channel=9 note=42 velocity=64 time=0
EXTRACT: note_off channel=9 note=42 velocity=64 time=0
EXTRACT: note_off channel=9 note=38 velocity=64 time=0
EXTRACT: note_on channel=9 note=42 velocity=64 time=0.111111
EXTRACT: note_on channel=9 note=42 velocity=64 time=0
EXTRACT: note_on channel=9 note=38 velocity=64 time=0
EXTRACT: note_off channel=1 note=62 velocity=64 time=0.111111
EXTRACT: note_off channel=1 note=69 velocity=64 time=0
EXTRACT: note_off channel=1 note=74 velocity=64 time=0
EXTRACT: note_off channel=1 note=77 velocity=64 time=0
EXTRACT: note_off channel=1 note=81 velocity=64 time=0
EXTRACT: note_off channel=9 note=42 velocity=64 time=0.111111
EXTRACT: note_off channel=9 note=42 velocity=64 time=0
EXTRACT: note_off channel=9 note=38 velocity=64 time=0
EXTRACT: note_on channel=0 note=81 velocity=49 time=0.111111
EXTRACT: note_on channel=0 note=76 velocity=49 time=0
EXTRACT: note_on channel=3 note=45 velocity=64 time=0
EXTRACT: note_on channel=9 note=42 velocity=64 time=0
EXTRACT: note_on channel=9 note=49 velocity=64 time=0
EXTRACT: note_off channel=9 note=42 velocity=64 time=0.222222
EXTRACT: note_off channel=9 note=49 velocity=64 time=0
EXTRACT: note_on channel=9 note=42 velocity=64 time=0.111111
EXTRACT: note_off channel=9 note=42 velocity=64 time=0.222222
EXTRACT: note_on channel=6 note=73 velocity=64 time=0.111111
EXTRACT: note_off channel=0 note=81 velocity=64 time=0
EXTRACT: note_off channel=0 note=76 velocity=64 time=0
EXTRACT: note_on channel=9 note=42 velocity=64 time=0
EXTRACT: note_off channel=6 note=73 velocity=64 time=0.222222
EXTRACT: note_off channel=9 note=42 velocity=64 time=0
EXTRACT: note_on channel=6 note=73 velocity=64 time=0.111111
EXTRACT: note_on channel=0 note=78 velocity=49 time=0
EXTRACT: note_on channel=0 note=73 velocity=49 time=0
EXTRACT: note_on channel=0 note=66 velocity=49 time=0
EXTRACT: note_on channel=0 note=69 velocity=49 time=0
EXTRACT: note_on channel=1 note=81 velocity=37 time=0
EXTRACT: note_on channel=1 note=76 velocity=37 time=0
EXTRACT: note_on channel=1 note=73 velocity=37 time=0
EXTRACT: note_on channel=9 note=42 velocity=64 time=0
EXTRACT: note_on channel=9 note=38 velocity=64 time=0
EXTRACT: note_off channel=6 note=73 velocity=64 time=0.222222
EXTRACT: note_off channel=1 note=81 velocity=64 time=0
EXTRACT: note_off channel=1 note=76 velocity=64 time=0
EXTRACT: note_off channel=1 note=73 velocity=64 time=0
EXTRACT: note_off channel=9 note=42 velocity=64 time=0
EXTRACT: note_off channel=9 note=38 velocity=64 time=0
EXTRACT: note_on channel=6 note=76 velocity=64 time=0.111111
EXTRACT: note_off channel=3 note=45 velocity=64 time=0
EXTRACT: note_on channel=9 note=42 velocity=64 time=0
EXTRACT: note_off channel=6 note=76 velocity=64 time=0.222222
EXTRACT: note_off channel=9 note=42 velocity=64 time=0
EXTRACT: note_on channel=6 note=80 velocity=64 time=0.111111
EXTRACT: note_on channel=3 note=45 velocity=64 time=0
EXTRACT: note_on channel=9 note=42 velocity=64 time=0
EXTRACT: note_off channel=6 note=80 velocity=64 time=0.222222
EXTRACT: note_off channel=3 note=45 velocity=64 time=0
EXTRACT: note_off channel=9 note=42 velocity=64 time=0
EXTRACT: note_on channel=6 note=81 velocity=64 time=0.111111
EXTRACT: note_on channel=3 note=42 velocity=64 time=0
EXTRACT: note_on channel=9 note=42 velocity=64 time=0
EXTRACT: note_off channel=9 note=42 velocity=64 time=0.222222
EXTRACT: note_off channel=0 note=78 velocity=64 time=0.111111
EXTRACT: note_off channel=0 note=73 velocity=64 time=0
EXTRACT: note_off channel=0 note=66 velocity=64 time=0
EXTRACT: note_off channel=0 note=69 velocity=64 time=0
EXTRACT: note_on channel=9 note=42 velocity=64 time=0
EXTRACT: note_off channel=6 note=81 velocity=64 time=0.111111
EXTRACT: note_off channel=9 note=42 velocity=64 time=0.111111
EXTRACT: note_on channel=9 note=42 velocity=64 time=0.111111
EXTRACT: note_off channel=9 note=42 velocity=64 time=0.222222
EXTRACT: note_on channel=1 note=78 velocity=37 time=0.111111
EXTRACT: note_on channel=1 note=73 velocity=37 time=0
EXTRACT: note_on channel=1 note=69 velocity=37 time=0
EXTRACT: note_on channel=9 note=42 velocity=64 time=0
EXTRACT: note_on channel=9 note=38 velocity=64 time=0
EXTRACT: note_off channel=1 note=78 velocity=64 time=0.222222
EXTRACT: note_off channel=1 note=73 velocity=64 time=0
EXTRACT: note_off channel=1 note=69 velocity=64 time=0
EXTRACT: note_off channel=9 note=42 velocity=64 time=0
EXTRACT: note_off channel=9 note=38 velocity=64 time=0
EXTRACT: note_on channel=6 note=78 velocity=64 time=0.111111
EXTRACT: note_off channel=3 note=42 velocity=64 time=0
EXTRACT: note_on channel=9 note=42 velocity=64 time=0
EXTRACT: note_off channel=6 note=78 velocity=64 time=0.222222
EXTRACT: note_off channel=9 note=42 velocity=64 time=0
EXTRACT: note_on channel=6 note=81 velocity=64 time=0.111111
EXTRACT: note_on channel=3 note=42 velocity=64 time=0
EXTRACT: note_on channel=9 note=42 velocity=64 time=0
EXTRACT: note_off channel=6 note=81 velocity=64 time=0.222222
EXTRACT: note_off channel=3 note=42 velocity=64 time=0
EXTRACT: note_off channel=9 note=42 velocity=64 time=0
EXTRACT: note_on channel=6 note=83 velocity=64 time=0.111111
EXTRACT: note_on channel=1 note=62 velocity=37 time=0
EXTRACT: note_on channel=3 note=38 velocity=64 time=0
EXTRACT: note_on channel=9 note=42 velocity=64 time=0
EXTRACT: note_off channel=1 note=62 velocity=64 time=0.222222
EXTRACT: note_off channel=9 note=42 velocity=64 time=0
EXTRACT: note_on channel=1 note=69 velocity=37 time=0.111111
EXTRACT: note_on channel=9 note=42 velocity=64 time=0
EXTRACT: note_off channel=6 note=83 velocity=64 time=0.111111
EXTRACT: note_off channel=1 note=69 velocity=64 time=0.111111
EXTRACT: note_off channel=9 note=42 velocity=64 time=0
EXTRACT: note_on channel=1 note=66 velocity=37 time=0.111111
EXTRACT: note_on channel=9 note=42 velocity=64 time=0
EXTRACT: note_off channel=1 note=66 velocity=64 time=0.222222
EXTRACT: note_off channel=9 note=42 velocity=64 time=0
EXTRACT: note_on channel=1 note=69 velocity=37 time=0.111111
EXTRACT: note_on channel=1 note=74 velocity=37 time=0
EXTRACT: note_on channel=9 note=42 velocity=64 time=0
EXTRACT: note_on channel=9 note=38 velocity=64 time=0
EXTRACT: note_off channel=1 note=69 velocity=64 time=0.222222
EXTRACT: note_off channel=1 note=74 velocity=64 time=0
EXTRACT: note_off channel=9 note=42 velocity=64 time=0
EXTRACT: note_off channel=9 note=38 velocity=64 time=0
EXTRACT: note_on channel=6 note=81 velocity=64 time=0.111111
EXTRACT: note_on channel=1 note=62 velocity=37 time=0
EXTRACT: note_off channel=3 note=38 velocity=64 time=0
EXTRACT: note_on channel=9 note=42 velocity=64 time=0
EXTRACT: note_off channel=6 note=81 velocity=64 time=0.222222
EXTRACT: note_off channel=1 note=62 velocity=64 time=0
EXTRACT: note_off channel=9 note=42 velocity=64 time=0
EXTRACT: note_on channel=6 note=83 velocity=64 time=0.111111
EXTRACT: note_on channel=1 note=74 velocity=37 time=0
EXTRACT: note_on channel=1 note=69 velocity=37 time=0
EXTRACT: note_on channel=3 note=38 velocity=64 time=0
EXTRACT: note_on channel=9 note=42 velocity=64 time=0
EXTRACT: note_off channel=6 note=83 velocity=64 time=0.222222
EXTRACT: note_off channel=1 note=74 velocity=64 time=0
EXTRACT: note_off channel=1 note=69 velocity=64 time=0
EXTRACT: note_off channel=3 note=38 velocity=64 time=0
EXTRACT: note_off channel=9 note=42 velocity=64 time=0
EXTRACT: note_on channel=6 note=85 velocity=64 time=0.111111
EXTRACT: note_on channel=1 note=73 velocity=37 time=0
EXTRACT: note_on channel=1 note=76 velocity=37 time=0
EXTRACT: note_on channel=1 note=64 velocity=37 time=0
EXTRACT: note_on channel=3 note=40 velocity=64 time=0
EXTRACT: note_on channel=9 note=42 velocity=64 time=0
EXTRACT: note_off channel=9 note=42 velocity=64 time=0.222222
EXTRACT: note_on channel=0 note=60 velocity=67 time=0.111111
EXTRACT: note_on channel=9 note=42 velocity=64 time=0
EXTRACT: note_off channel=1 note=73 velocity=64 time=0.111111
EXTRACT: note_off channel=1 note=76 velocity=64 time=0
EXTRACT: note_off channel=1 note=64 velocity=64 time=0
EXTRACT: note_off channel=0 note=60 velocity=64 time=0.111111
EXTRACT: note_off channel=9 note=42 velocity=64 time=0
EXTRACT: note_on channel=0 note=60 velocity=67 time=0.111111
EXTRACT: note_on channel=1 note=76 velocity=37 time=0
EXTRACT: note_on channel=1 note=71 velocity=37 time=0
EXTRACT: note_on channel=1 note=64 velocity=37 time=0
EXTRACT: note_on channel=9 note=42 velocity=64 time=0
EXTRACT: note_on channel=9 note=38 velocity=64 time=0.1666665
EXTRACT: note_off channel=0 note=60 velocity=64 time=0.0555555
EXTRACT: note_off channel=1 note=76 velocity=64 time=0
EXTRACT: note_off channel=1 note=71 velocity=64 time=0
EXTRACT: note_off channel=1 note=64 velocity=64 time=0
EXTRACT: note_off channel=9 note=42 velocity=64 time=0
EXTRACT: note_off channel=9 note=38 velocity=64 time=0.0555555
EXTRACT: note_on channel=0 note=60 velocity=67 time=0.0555555
EXTRACT: note_on channel=1 note=76 velocity=37 time=0
EXTRACT: note_on channel=1 note=71 velocity=37 time=0
EXTRACT: note_on channel=1 note=64 velocity=37 time=0
EXTRACT: note_on channel=9 note=42 velocity=64 time=0
EXTRACT: note_on channel=9 note=38 velocity=64 time=0
EXTRACT: note_off channel=0 note=60 velocity=64 time=0.222222
EXTRACT: note_off channel=1 note=76 velocity=64 time=0
EXTRACT: note_off channel=1 note=71 velocity=64 time=0
EXTRACT: note_off channel=1 note=64 velocity=64 time=0
EXTRACT: note_off channel=9 note=42 velocity=64 time=0
EXTRACT: note_off channel=9 note=38 velocity=64 time=0
EXTRACT: note_on channel=0 note=60 velocity=67 time=0.111111
EXTRACT: note_on channel=1 note=76 velocity=37 time=0
EXTRACT: note_on channel=1 note=71 velocity=37 time=0
EXTRACT: note_on channel=1 note=64 velocity=37 time=0
EXTRACT: note_off channel=3 note=40 velocity=64 time=0
EXTRACT: note_on channel=9 note=42 velocity=64 time=0
EXTRACT: note_on channel=9 note=38 velocity=64 time=0
EXTRACT: note_off channel=0 note=60 velocity=64 time=0.222222
EXTRACT: note_off channel=1 note=76 velocity=64 time=0
EXTRACT: note_off channel=1 note=71 velocity=64 time=0
EXTRACT: note_off channel=1 note=64 velocity=64 time=0
EXTRACT: note_off channel=9 note=42 velocity=64 time=0
EXTRACT: note_off channel=9 note=38 velocity=64 time=0
EXTRACT: note_on channel=0 note=60 velocity=67 time=0.111111
EXTRACT: note_on channel=1 note=76 velocity=37 time=0
EXTRACT: note_on channel=1 note=71 velocity=37 time=0
EXTRACT: note_on channel=1 note=64 velocity=37 time=0
EXTRACT: note_on channel=3 note=40 velocity=64 time=0
EXTRACT: note_on channel=9 note=42 velocity=64 time=0
EXTRACT: note_on channel=9 note=38 velocity=64 time=0
EXTRACT: note_off channel=0 note=60 velocity=64 time=0.222222
EXTRACT: note_off channel=1 note=76 velocity=64 time=0
EXTRACT: note_off channel=1 note=71 velocity=64 time=0
EXTRACT: note_off channel=1 note=64 velocity=64 time=0
EXTRACT: note_off channel=3 note=40 velocity=64 time=0
EXTRACT: note_off channel=9 note=42 velocity=64 time=0
EXTRACT: note_off channel=9 note=38 velocity=64 time=0
EXTRACT: note_on channel=0 note=60 velocity=67 time=0.111111
EXTRACT: note_on channel=3 note=45 velocity=64 time=0
EXTRACT: note_on channel=2 note=76 velocity=15 time=0
EXTRACT: note_on channel=2 note=73 velocity=15 time=0
EXTRACT: note_on channel=2 note=69 velocity=15 time=0
EXTRACT: note_on channel=2 note=64 velocity=15 time=0
EXTRACT: note_on channel=9 note=42 velocity=64 time=0
EXTRACT: note_on channel=9 note=49 velocity=64 time=0
EXTRACT: note_off channel=0 note=60 velocity=64 time=0.222222
EXTRACT: note_off channel=9 note=42 velocity=64 time=0
EXTRACT: note_off channel=9 note=49 velocity=64 time=0
EXTRACT: note_on channel=0 note=60 velocity=67 time=0.111111
EXTRACT: note_on channel=9 note=42 velocity=64 time=0
EXTRACT: note_off channel=0 note=60 velocity=64 time=0.222222
EXTRACT: note_off channel=9 note=42 velocity=64 time=0
EXTRACT: note_on channel=0 note=60 velocity=67 time=0.111111
EXTRACT: note_on channel=9 note=42 velocity=64 time=0
EXTRACT: note_off channel=0 note=60 velocity=64 time=0.222222
EXTRACT: note_off channel=2 note=76 velocity=64 time=0
EXTRACT: note_off channel=2 note=73 velocity=64 time=0
EXTRACT: note_off channel=2 note=69 velocity=64 time=0
EXTRACT: note_off channel=2 note=64 velocity=64 time=0
EXTRACT: note_off channel=9 note=42 velocity=64 time=0
EXTRACT: note_on channel=0 note=60 velocity=67 time=0.111111
EXTRACT: note_on channel=1 note=81 velocity=37 time=0
EXTRACT: note_on channel=1 note=76 velocity=37 time=0
EXTRACT: note_on channel=1 note=73 velocity=37 time=0
EXTRACT: note_on channel=9 note=42 velocity=64 time=0
EXTRACT: note_on channel=9 note=38 velocity=64 time=0
EXTRACT: note_off channel=0 note=60 velocity=64 time=0.222222
EXTRACT: note_off channel=9 note=42 velocity=64 time=0
EXTRACT: note_off channel=9 note=38 velocity=64 time=0
EXTRACT: note_on channel=0 note=57 velocity=67 time=0.111111
EXTRACT: note_on channel=9 note=42 velocity=64 time=0
EXTRACT: note_off channel=0 note=57 velocity=64 time=0.111111
EXTRACT: note_on channel=0 note=66 velocity=67 time=0.0555555
EXTRACT: note_off channel=3 note=45 velocity=64 time=0.0555555
EXTRACT: note_off channel=9 note=42 velocity=64 time=0
EXTRACT: note_off channel=1 note=81 velocity=64 time=0.111111
EXTRACT: note_off channel=1 note=76 velocity=64 time=0
EXTRACT: note_off channel=1 note=73 velocity=64 time=0
EXTRACT: note_on channel=3 note=45 velocity=64 time=0
EXTRACT: note_on channel=9 note=42 velocity=64 time=0
EXTRACT: note_off channel=0 note=66 velocity=64 time=0.0555555
EXTRACT: note_on channel=0 note=67 velocity=67 time=0.111111
EXTRACT: note_off channel=3 note=45 velocity=64 time=0.0555555
EXTRACT: note_off channel=9 note=42 velocity=64 time=0
EXTRACT: note_off channel=0 note=67 velocity=64 time=0.0555555
EXTRACT: note_on channel=0 note=66 velocity=67 time=0.0555555
EXTRACT: note_on channel=3 note=42 velocity=64 time=0
EXTRACT: note_on channel=2 note=78 velocity=15 time=0
EXTRACT: note_on channel=2 note=73 velocity=15 time=0
EXTRACT: note_on channel=2 note=69 velocity=15 time=0
EXTRACT: note_on channel=9 note=42 velocity=64 time=0
EXTRACT: note_off channel=0 note=66 velocity=64 time=0.222222
EXTRACT: note_off channel=9 note=42 velocity=64 time=0
EXTRACT: note_on channel=0 note=64 velocity=67 time=0.111111
EXTRACT: note_on channel=9 note=42 velocity=64 time=0
EXTRACT: note_off channel=9 note=42 velocity=64 time=0.222222
EXTRACT: note_on channel=9 note=42 velocity=64 time=0.111111
EXTRACT: note_off channel=0 note=64 velocity=64 time=0.111111
EXTRACT: note_off channel=2 note=78 velocity=64 time=0.111111
EXTRACT: note_off channel=2 note=73 velocity=64 time=0
EXTRACT: note_off channel=2 note=69 velocity=64 time=0
EXTRACT: note_off channel=9 note=42 velocity=64 time=0
EXTRACT: note_on channel=0 note=64 velocity=67 time=0.111111
EXTRACT: note_on channel=1 note=78 velocity=37 time=0
EXTRACT: note_on channel=1 note=73 velocity=37 time=0
EXTRACT: note_on channel=1 note=69 velocity=37 time=0
EXTRACT: note_on channel=9 note=42 velocity=64 time=0
EXTRACT: note_on channel=9 note=38 velocity=64 time=0
EXTRACT: note_off channel=0 note=64 velocity=64 time=0.111111
EXTRACT: note_on channel=0 note=66 velocity=67 time=0.0555555
EXTRACT: note_off channel=9 note=42 velocity=64 time=0.0555555
EXTRACT: note_off channel=9 note=38 velocity=64 time=0
EXTRACT: note_off channel=0 note=66 velocity=64 time=0.0555555
EXTRACT: note_on channel=0 note=69 velocity=67 time=0.0555555
EXTRACT: note_off channel=3 note=42 velocity=64 time=0
EXTRACT: note_on channel=9 note=42 velocity=64 time=0
EXTRACT: note_off channel=0 note=69 velocity=64 time=0.111111
EXTRACT: note_on channel=0 note=71 velocity=67 time=0.0555555
EXTRACT: note_off channel=6 note=85 velocity=64 time=0.0555555
EXTRACT: note_off channel=9 note=42 velocity=64 time=0
EXTRACT: note_off channel=0 note=71 velocity=64 time=0.0555555
EXTRACT: note_on channel=0 note=73 velocity=67 time=0.0555555
EXTRACT: note_off channel=1 note=78 velocity=64 time=0
EXTRACT: note_off channel=1 note=73 velocity=64 time=0
EXTRACT: note_off channel=1 note=69 velocity=64 time=0
EXTRACT: note_on channel=3 note=42 velocity=64 time=0
EXTRACT: note_on channel=9 note=42 velocity=64 time=0
EXTRACT: note_off channel=3 note=42 velocity=64 time=0.222222
EXTRACT: note_off channel=9 note=42 velocity=64 time=0
EXTRACT: note_on channel=3 note=38 velocity=64 time=0.111111
EXTRACT: note_on channel=2 note=78 velocity=15 time=0
EXTRACT: note_on channel=2 note=74 velocity=15 time=0
EXTRACT: note_on channel=2 note=69 velocity=15 time=0
EXTRACT: note_on channel=2 note=62 velocity=15 time=0
EXTRACT: note_on channel=9 note=42 velocity=64 time=0
EXTRACT: note_off channel=0 note=73 velocity=64 time=0.222222
EXTRACT: note_off channel=9 note=42 velocity=64 time=0
EXTRACT: note_on channel=0 note=73 velocity=67 time=0.111111
EXTRACT: note_on channel=9 note=42 velocity=64 time=0
EXTRACT: note_off channel=9 note=42 velocity=64 time=0.222222
EXTRACT: note_on channel=9 note=42 velocity=64 time=0.111111
EXTRACT: note_off channel=2 note=78 velocity=64 time=0.222222
EXTRACT: note_off channel=2 note=74 velocity=64 time=0
EXTRACT: note_off channel=2 note=69 velocity=64 time=0
EXTRACT: note_off channel=2 note=62 velocity=64 time=0
EXTRACT: note_off channel=9 note=42 velocity=64 time=0
EXTRACT: note_on channel=1 note=74 velocity=37 time=0.111111
EXTRACT: note_on channel=1 note=69 velocity=37 time=0
EXTRACT: note_on channel=1 note=62 velocity=37 time=0
EXTRACT: note_on channel=9 note=42 velocity=64 time=0
EXTRACT: note_on channel=9 note=38 velocity=64 time=0
EXTRACT: note_off channel=0 note=73 velocity=64 time=0.111111
EXTRACT: note_on channel=0 note=71 velocity=67 time=0.0555555
EXTRACT: note_off channel=9 note=42 velocity=64 time=0.0555555
EXTRACT: note_off channel=9 note=38 velocity=64 time=0
EXTRACT: note_off channel=0 note=71 velocity=64 time=0.0555555
EXTRACT: note_on channel=0 note=69 velocity=67 time=0.0555555
EXTRACT: note_off channel=3 note=38 velocity=64 time=0
EXTRACT: note_on channel=9 note=42 velocity=64 time=0
EXTRACT: note_off channel=0 note=69 velocity=64 time=0.111111
EXTRACT: note_on channel=0 note=71 velocity=67 time=0.0555555
EXTRACT: note_off channel=9 note=42 velocity=64 time=0.0555555
EXTRACT: note_off channel=0 note=71 velocity=64 time=0.0555555
EXTRACT: note_on channel=0 note=69 velocity=67 time=0.0555555
EXTRACT: note_off channel=1 note=74 velocity=64 time=0
EXTRACT: note_off channel=1 note=69 velocity=64 time=0
EXTRACT: note_off channel=1 note=62 velocity=64 time=0
EXTRACT: note_on channel=3 note=38 velocity=64 time=0
EXTRACT: note_on channel=9 note=42 velocity=64 time=0
EXTRACT: note_off channel=0 note=69 velocity=64 time=0.222222
EXTRACT: note_off channel=3 note=38 velocity=64 time=0
EXTRACT: note_off channel=9 note=42 velocity=64 time=0
EXTRACT: note_on channel=0 note=69 velocity=67 time=0.111111
EXTRACT: note_on channel=3 note=38 velocity=64 time=0
EXTRACT: note_on channel=2 note=77 velocity=15 time=0
EXTRACT: note_on channel=2 note=74 velocity=15 time=0
EXTRACT: note_on channel=2 note=69 velocity=15 time=0
EXTRACT: note_on channel=2 note=62 velocity=15 time=0
EXTRACT: note_on channel=9 note=42 velocity=64 time=0
EXTRACT: note_off channel=0 note=69 velocity=64 time=0.222222
EXTRACT: note_off channel=9 note=42 velocity=64 time=0
EXTRACT: note_on channel=0 note=78 velocity=67 time=0.111111
EXTRACT: note_on channel=1 note=77 velocity=37 time=0
EXTRACT: note_on channel=9 note=42 velocity=64 time=0
EXTRACT: note_off channel=0 note=78 velocity=64 time=0.111111
EXTRACT: note_on channel=0 note=72 velocity=67 time=0.0555555
EXTRACT: note_off channel=9 note=42 velocity=64 time=0.0555555
EXTRACT: note_on channel=9 note=42 velocity=64 time=0.111111
EXTRACT: note_off channel=0 note=72 velocity=64 time=0.1666665
EXTRACT: note_on channel=9 note=38 velocity=64 time=0
EXTRACT: note_off channel=2 note=62 velocity=64 time=0.0555555
EXTRACT: note_off channel=9 note=42 velocity=64 time=0
EXTRACT: note_off channel=9 note=38 velocity=64 time=0.0555555
EXTRACT: note_on channel=0 note=73 velocity=67 time=0.0555555
EXTRACT: note_off channel=1 note=77 velocity=64 time=0
EXTRACT: note_on channel=9 note=42 velocity=64 time=0
EXTRACT: note_on channel=9 note=38 velocity=64 time=0
EXTRACT: note_off channel=0 note=73 velocity=64 time=0.111111
EXTRACT: note_off channel=2 note=77 velocity=64 time=0
EXTRACT: note_off channel=2 note=74 velocity=64 time=0
EXTRACT: note_off channel=2 note=69 velocity=64 time=0
EXTRACT: note_on channel=0 note=76 velocity=67 time=0.0555555
EXTRACT: note_off channel=9 note=42 velocity=64 time=0.0555555
EXTRACT: note_off channel=9 note=38 velocity=64 time=0
EXTRACT: note_on channel=0 note=78 velocity=67 time=0.111111
EXTRACT: note_on channel=1 note=76 velocity=37 time=0
EXTRACT: note_off channel=3 note=38 velocity=64 time=0
EXTRACT: note_on channel=9 note=42 velocity=64 time=0
EXTRACT: note_on channel=9 note=38 velocity=64 time=0
EXTRACT: note_off channel=0 note=76 velocity=64 time=0.111111
EXTRACT: note_off channel=1 note=76 velocity=64 time=0.111111
EXTRACT: note_off channel=9 note=42 velocity=64 time=0
EXTRACT: note_off channel=9 note=38 velocity=64 time=0
EXTRACT: note_on channel=1 note=74 velocity=37 time=0.111111
EXTRACT: note_on channel=3 note=38 velocity=64 time=0
EXTRACT: note_on channel=9 note=42 velocity=64 time=0
EXTRACT: note_on channel=9 note=38 velocity=64 time=0
EXTRACT: note_off channel=0 note=78 velocity=64 time=0.111111
EXTRACT: note_off channel=1 note=74 velocity=64 time=0.111111
EXTRACT: note_off channel=3 note=38 velocity=64 time=0
EXTRACT: note_off channel=9 note=42 velocity=64 time=0
EXTRACT: note_off channel=9 note=38 velocity=64 time=0
EXTRACT: note_on channel=3 note=45 velocity=64 time=0.111111
EXTRACT: note_on channel=2 note=76 velocity=15 time=0
EXTRACT: note_on channel=2 note=73 velocity=15 time=0
EXTRACT: note_on channel=2 note=69 velocity=15 time=0
EXTRACT: note_on channel=2 note=64 velocity=15 time=0
EXTRACT: note_on channel=9 note=42 velocity=64 time=0
EXTRACT: note_on channel=9 note=49 velocity=64 time=0
EXTRACT: note_off channel=9 note=42 velocity=64 time=0.222222
EXTRACT: note_off channel=9 note=49 velocity=64 time=0
EXTRACT: note_on channel=0 note=85 velocity=67 time=0.111111
EXTRACT: note_on channel=9 note=42 velocity=64 time=0
EXTRACT: note_off channel=9 note=42 velocity=64 time=0.222222
EXTRACT: note_on channel=9 note=42 velocity=64 time=0.111111
EXTRACT: note_off channel=2 note=76 velocity=64 time=0.222222
EXTRACT: note_off channel=2 note=73 velocity=64 time=0
EXTRACT: note_off channel=2 note=69 velocity=64 time=0
EXTRACT: note_off channel=2 note=64 velocity=64 time=0
EXTRACT: note_off channel=9 note=42 velocity=64 time=0
EXTRACT: note_off channel=0 note=85 velocity=64 time=0.111111
EXTRACT: note_on channel=1 note=73 velocity=37 time=0
EXTRACT: note_on channel=1 note=76 velocity=37 time=0
EXTRACT: note_on channel=1 note=81 velocity=37 time=0
EXTRACT: note_on channel=9 note=42 velocity=64 time=0
EXTRACT: note_on channel=9 note=38 velocity=64 time=0
EXTRACT: note_off channel=1 note=73 velocity=64 time=0.222222
EXTRACT: note_off channel=1 note=76 velocity=64 time=0
EXTRACT: note_off channel=1 note=81 velocity=64 time=0
EXTRACT: note_off channel=9 note=42 velocity=64 time=0
EXTRACT: note_off channel=9 note=38 velocity=64 time=0
EXTRACT: note_on channel=0 note=81 velocity=67 time=0.111111
EXTRACT: note_on channel=9 note=42 velocity=64 time=0
EXTRACT: note_off channel=0 note=81 velocity=64 time=0.111111
EXTRACT: note_on channel=0 note=76 velocity=67 time=0.0555555
EXTRACT: note_off channel=3 note=45 velocity=64 time=0.0555555
EXTRACT: note_off channel=9 note=42 velocity=64 time=0
EXTRACT: note_off channel=0 note=76 velocity=64 time=0.0555555
EXTRACT: note_on channel=0 note=86 velocity=67 time=0.0555555
EXTRACT: note_on channel=0 note=84 velocity=67 time=0
EXTRACT: note_on channel=3 note=45 velocity=64 time=0
EXTRACT: note_on channel=9 note=42 velocity=64 time=0
EXTRACT: note_off channel=0 note=84 velocity=64 time=0.111111
EXTRACT: note_off channel=3 note=45 velocity=64 time=0.111111
EXTRACT: note_off channel=9 note=42 velocity=64 time=0
EXTRACT: note_on channel=3 note=42 velocity=64 time=0.111111
EXTRACT: note_on channel=2 note=78 velocity=15 time=0
EXTRACT: note_on channel=2 note=73 velocity=15 time=0
EXTRACT: note_on channel=2 note=69 velocity=15 time=0
EXTRACT: note_on channel=9 note=42 velocity=64 time=0
EXTRACT: note_off channel=0 note=86 velocity=64 time=0.111111
EXTRACT: note_off channel=9 note=42 velocity=64 time=0.111111
EXTRACT: note_on channel=0 note=85 velocity=67 time=0.111111
EXTRACT: note_on channel=9 note=42 velocity=64 time=0
EXTRACT: note_off channel=0 note=85 velocity=64 time=0.222222
EXTRACT: note_off channel=9 note=42 velocity=64 time=0
EXTRACT: note_on channel=0 note=83 velocity=67 time=0.111111
EXTRACT: note_on channel=9 note=42 velocity=64 time=0
EXTRACT: note_off channel=0 note=83 velocity=64 time=0.222222
EXTRACT: note_off channel=2 note=78 velocity=64 time=0
EXTRACT: note_off channel=2 note=73 velocity=64 time=0
EXTRACT: note_off channel=2 note=69 velocity=64 time=0
EXTRACT: note_off channel=9 note=42 velocity=64 time=0
EXTRACT: note_on channel=0 note=81 velocity=67 time=0.111111
EXTRACT: note_on channel=1 note=78 velocity=37 time=0
EXTRACT: note_on channel=1 note=73 velocity=37 time=0
EXTRACT: note_on channel=1 note=69 velocity=37 time=0
EXTRACT: note_on channel=9 note=42 velocity=64 time=0
EXTRACT: note_on channel=9 note=38 velocity=64 time=0
EXTRACT: note_on channel=0 note=76 velocity=67 time=0.1666665
EXTRACT: note_off channel=0 note=81 velocity=64 time=0.0555555
EXTRACT: note_off channel=1 note=78 velocity=64 time=0
EXTRACT: note_off channel=1 note=73 velocity=64 time=0
EXTRACT: note_off channel=1 note=69 velocity=64 time=0
EXTRACT: note_off channel=9 note=42 velocity=64 time=0
EXTRACT: note_off channel=9 note=38 velocity=64 time=0
EXTRACT: note_off channel=0 note=76 velocity=64 time=0.0555555
EXTRACT: note_on channel=0 note=78 velocity=67 time=0.0555555
EXTRACT: note_off channel=3 note=42 velocity=64 time=0
EXTRACT: note_on channel=9 note=42 velocity=64 time=0
EXTRACT: note_off channel=0 note=78 velocity=64 time=0.111111
EXTRACT: note_on channel=0 note=81 velocity=67 time=0.0555555
EXTRACT: note_off channel=9 note=42 velocity=64 time=0.0555555
EXTRACT: note_off channel=0 note=81 velocity=64 time=0.0555555
EXTRACT: note_on channel=0 note=81 velocity=67 time=0.0555555
EXTRACT: note_on channel=3 note=42 velocity=64 time=0
EXTRACT: note_on channel=9 note=42 velocity=64 time=0
EXTRACT: note_off channel=0 note=81 velocity=64 time=0.111111
EXTRACT: note_on channel=0 note=81 velocity=67 time=0.0555555
EXTRACT: note_off channel=3 note=42 velocity=64 time=0.0555555
EXTRACT: note_off channel=9 note=42 velocity=64 time=0
EXTRACT: note_off channel=0 note=81 velocity=64 time=0.0555555
EXTRACT: note_on channel=0 note=76 velocity=67 time=0.0555555
EXTRACT: note_on channel=3 note=38 velocity=64 time=0
EXTRACT: note_on channel=2 note=74 velocity=29 time=0
EXTRACT: note_on channel=2 note=69 velocity=29 time=0
EXTRACT: note_on channel=2 note=62 velocity=29 time=0
EXTRACT: note_on channel=9 note=42 velocity=64 time=0
EXTRACT: note_off channel=0 note=76 velocity=64 time=0.111111
EXTRACT: note_on channel=0 note=78 velocity=67 time=0.0555555
EXTRACT: note_off channel=9 note=42 velocity=64 time=0.0555555
EXTRACT: note_off channel=0 note=78 velocity=64 time=0.0555555
EXTRACT: note_on channel=0 note=81 velocity=67 time=0.0555555
EXTRACT: note_on channel=9 note=42 velocity=64 time=0
EXTRACT: note_off channel=0 note=81 velocity=64 time=0.111111
EXTRACT: note_on channel=0 note=81 velocity=67 time=0.0555555
EXTRACT: note_off channel=9 note=42 velocity=64 time=0.0555555
EXTRACT: note_off channel=0 note=81 velocity=64 time=0.0555555
EXTRACT: note_on channel=0 note=76 velocity=67 time=0.0555555
EXTRACT: note_on channel=9 note=42 velocity=64 time=0
EXTRACT: note_off channel=0 note=76 velocity=64 time=0.111111
EXTRACT: note_on channel=0 note=78 velocity=67 time=0.0555555
EXTRACT: note_off channel=2 note=74 velocity=64 time=0.0555555
EXTRACT: note_off channel=2 note=69 velocity=64 time=0
EXTRACT: note_off channel=2 note=62 velocity=64 time=0
EXTRACT: note_off channel=9 note=42 velocity=64 time=0
EXTRACT: note_off channel=0 note=78 velocity=64 time=0.0555555
EXTRACT: note_on channel=0 note=81 velocity=67 time=0.0555555
EXTRACT: note_on channel=1 note=74 velocity=37 time=0
EXTRACT: note_on channel=1 note=69 velocity=37 time=0
EXTRACT: note_on channel=1 note=62 velocity=37 time=0
EXTRACT: note_on channel=9 note=42 velocity=64 time=0
EXTRACT: note_on channel=9 note=38 velocity=64 time=0
EXTRACT: note_off channel=0 note=81 velocity=64 time=0.111111
EXTRACT: note_on channel=0 note=81 velocity=67 time=0.0555555
EXTRACT: note_off channel=9 note=42 velocity=64 time=0.0555555
EXTRACT: note_off channel=9 note=38 velocity=64 time=0
EXTRACT: note_off channel=0 note=81 velocity=64 time=0.0555555
EXTRACT: note_on channel=0 note=76 velocity=67 time=0.0555555
EXTRACT: note_off channel=3 note=38 velocity=64 time=0
EXTRACT: note_on channel=9 note=42 velocity=64 time=0
EXTRACT: note_off channel=0 note=76 velocity=64 time=0.111111
EXTRACT: note_on channel=0 note=78 velocity=67 time=0.0555555
EXTRACT: note_off channel=9 note=42 velocity=64 time=0.0555555
EXTRACT: note_off channel=0 note=78 velocity=64 time=0.0555555
EXTRACT: note_on channel=0 note=81 velocity=67 time=0.0555555
EXTRACT: note_off channel=1 note=74 velocity=64 time=0
EXTRACT: note_off channel=1 note=69 velocity=64 time=0
EXTRACT: note_off channel=1 note=62 velocity=64 time=0
EXTRACT: note_on channel=3 note=38 velocity=64 time=0
EXTRACT: note_on channel=9 note=42 velocity=64 time=0
EXTRACT: note_off channel=0 note=81 velocity=64 time=0.111111
EXTRACT: note_on channel=0 note=81 velocity=67 time=0.0555555
EXTRACT: note_off channel=3 note=38 velocity=64 time=0.0555555
EXTRACT: note_off channel=9 note=42 velocity=64 time=0
EXTRACT: note_off channel=0 note=81 velocity=64 time=0.0555555
EXTRACT: note_on channel=0 note=86 velocity=67 time=0.0555555
EXTRACT: note_on channel=0 note=81 velocity=67 time=0
EXTRACT: note_on channel=1 note=71 velocity=37 time=0
EXTRACT: note_on channel=3 note=40 velocity=64 time=0
EXTRACT: note_on channel=2 note=80 velocity=29 time=0
EXTRACT: note_on channel=2 note=76 velocity=29 time=0
EXTRACT: note_on channel=2 note=71 velocity=29 time=0
EXTRACT: note_on channel=9 note=42 velocity=64 time=0
EXTRACT: note_off channel=0 note=86 velocity=64 time=0.111111
EXTRACT: note_off channel=0 note=81 velocity=64 time=0
EXTRACT: note_on channel=0 note=77 velocity=67 time=0.0555555
EXTRACT: note_off channel=1 note=71 velocity=64 time=0.0555555
EXTRACT: note_off channel=9 note=42 velocity=64 time=0
EXTRACT: note_off channel=0 note=77 velocity=64 time=0.0555555
EXTRACT: note_on channel=0 note=81 velocity=67 time=0.0555555
EXTRACT: note_on channel=0 note=86 velocity=67 time=0
EXTRACT: note_on channel=1 note=80 velocity=37 time=0
EXTRACT: note_on channel=1 note=71 velocity=37 time=0
EXTRACT: note_on channel=9 note=42 velocity=64 time=0
EXTRACT: note_off channel=0 note=81 velocity=64 time=0.111111
EXTRACT: note_off channel=0 note=86 velocity=64 time=0
EXTRACT: note_on channel=0 note=77 velocity=67 time=0.0555555
EXTRACT: note_off channel=1 note=80 velocity=64 time=0.0555555
EXTRACT: note_off channel=1 note=71 velocity=64 time=0
EXTRACT: note_off channel=9 note=42 velocity=64 time=0
EXTRACT: note_off channel=0 note=77 velocity=64 time=0.0555555
EXTRACT: note_on channel=0 note=86 velocity=67 time=0.0555555
EXTRACT: note_on channel=1 note=71 velocity=37 time=0
EXTRACT: note_on channel=9 note=42 velocity=64 time=0
EXTRACT: note_off channel=0 note=86 velocity=64 time=0.111111
EXTRACT: note_on channel=0 note=77 velocity=67 time=0.0555555
EXTRACT: note_on channel=9 note=38 velocity=64 time=0
EXTRACT: note_off channel=1 note=71 velocity=64 time=0.0555555
EXTRACT: note_off channel=2 note=80 velocity=64 time=0
EXTRACT: note_off channel=2 note=76 velocity=64 time=0
EXTRACT: note_off channel=2 note=71 velocity=64 time=0
EXTRACT: note_off channel=9 note=42 velocity=64 time=0
EXTRACT: note_off channel=0 note=77 velocity=64 time=0.0555555
EXTRACT: note_off channel=9 note=38 velocity=64 time=0
EXTRACT: note_on channel=0 note=86 velocity=67 time=0.0555555
EXTRACT: note_on channel=1 note=71 velocity=37 time=0
EXTRACT: note_on channel=1 note=80 velocity=37 time=0
EXTRACT: note_on channel=9 note=42 velocity=64 time=0
EXTRACT: note_on channel=9 note=38 velocity=64 time=0
EXTRACT: note_off channel=0 note=86 velocity=64 time=0.111111
EXTRACT: note_on channel=0 note=77 velocity=67 time=0.0555555
EXTRACT: note_off channel=1 note=71 velocity=64 time=0.0555555
EXTRACT: note_off channel=1 note=80 velocity=64 time=0
EXTRACT: note_off channel=9 note=42 velocity=64 time=0
EXTRACT: note_off channel=9 note=38 velocity=64 time=0
EXTRACT: note_off channel=0 note=77 velocity=64 time=0.0555555
EXTRACT: note_on channel=0 note=86 velocity=67 time=0.0555555
EXTRACT: note_on channel=1 note=71 velocity=37 time=0
EXTRACT: note_off channel=3 note=40 velocity=64 time=0
EXTRACT: note_on channel=9 note=42 velocity=64 time=0
EXTRACT: note_on channel=9 note=38 velocity=64 time=0
EXTRACT: note_off channel=0 note=86 velocity=64 time=0.111111
EXTRACT: note_on channel=0 note=77 velocity=67 time=0.0555555
EXTRACT: note_off channel=1 note=71 velocity=64 time=0.0555555
EXTRACT: note_off channel=9 note=42 velocity=64 time=0
EXTRACT: note_off channel=9 note=38 velocity=64 time=0
EXTRACT: note_off channel=0 note=77 velocity=64 time=0.0555555
EXTRACT: note_on channel=0 note=86 velocity=67 time=0.0555555
EXTRACT: note_on channel=1 note=71 velocity=37 time=0
EXTRACT: note_on channel=1 note=80 velocity=37 time=0
EXTRACT: note_on channel=3 note=40 velocity=64 time=0
EXTRACT: note_on channel=9 note=42 velocity=64 time=0
EXTRACT: note_on channel=9 note=38 velocity=64 time=0
EXTRACT: note_off channel=0 note=86 velocity=64 time=0.111111
EXTRACT: note_on channel=0 note=81 velocity=67 time=0.0555555
EXTRACT: note_off channel=1 note=71 velocity=64 time=0.0555555
EXTRACT: note_off channel=1 note=80 velocity=64 time=0
EXTRACT: note_off channel=3 note=40 velocity=64 time=0
EXTRACT: note_off channel=9 note=42 velocity=64 time=0
EXTRACT: note_off channel=9 note=38 velocity=64 time=0
EXTRACT: note_off channel=0 note=81 velocity=64 time=0.0555555
EXTRACT: note_on channel=0 note=93 velocity=67 time=0.0555555
EXTRACT: note_on channel=0 note=88 velocity=67 time=0
EXTRACT: note_on channel=1 note=71 velocity=37 time=0
EXTRACT: note_on channel=3 note=45 velocity=64 time=0
EXTRACT: note_on channel=2 note=76 velocity=15 time=0
EXTRACT: note_on channel=2 note=73 velocity=15 time=0
EXTRACT: note_on channel=2 note=69 velocity=15 time=0
EXTRACT: note_on channel=2 note=64 velocity=15 time=0
EXTRACT: note_on channel=9 note=42 velocity=64 time=0
EXTRACT: note_on channel=9 note=49 velocity=64 time=0
EXTRACT: note_off channel=0 note=93 velocity=64 time=0.222222
EXTRACT: note_off channel=0 note=88 velocity=64 time=0
EXTRACT: note_off channel=9 note=42 velocity=64 time=0
EXTRACT: note_off channel=9 note=49 velocity=64 time=0
EXTRACT: note_on channel=0 note=93 velocity=67 time=0.111111
EXTRACT: note_on channel=9 note=42 velocity=64 time=0
EXTRACT: note_off channel=0 note=93 velocity=64 time=0.111111
EXTRACT: note_off channel=1 note=71 velocity=64 time=0
EXTRACT: note_on channel=0 note=88 velocity=67 time=0.0555555
EXTRACT: note_off channel=9 note=42 velocity=64 time=0.0555555
EXTRACT: note_off channel=0 note=88 velocity=64 time=0.0555555
EXTRACT: note_on channel=0 note=93 velocity=67 time=0.0555555
EXTRACT: note_on channel=1 note=73 velocity=37 time=0
EXTRACT: note_on channel=9 note=42 velocity=64 time=0
EXTRACT: note_off channel=0 note=93 velocity=64 time=0.111111
EXTRACT: note_on channel=0 note=88 velocity=67 time=0.0555555
EXTRACT: note_off channel=1 note=73 velocity=64 time=0.0555555
EXTRACT: note_off channel=2 note=76 velocity=64 time=0
EXTRACT: note_off channel=2 note=73 velocity=64 time=0
EXTRACT: note_off channel=2 note=69 velocity=64 time=0
EXTRACT: note_off channel=2 note=64 velocity=64 time=0
EXTRACT: note_off channel=9 note=42 velocity=64 time=0
EXTRACT: note_off channel=0 note=88 velocity=64 time=0.0555555
EXTRACT: note_on channel=0 note=93 velocity=67 time=0.0555555
EXTRACT: note_on channel=1 note=76 velocity=37 time=0
EXTRACT: note_on channel=1 note=81 velocity=37 time=0
EXTRACT: note_on channel=9 note=42 velocity=64 time=0
EXTRACT: note_on channel=9 note=38 velocity=64 time=0
EXTRACT: note_off channel=0 note=93 velocity=64 time=0.111111
EXTRACT: note_on channel=0 note=97 velocity=67 time=0.0555555
EXTRACT: note_off channel=1 note=76 velocity=64 time=0.0555555
EXTRACT: note_off channel=1 note=81 velocity=64 time=0
EXTRACT: note_off channel=9 note=42 velocity=64 time=0
EXTRACT: note_off channel=9 note=38 velocity=64 time=0
EXTRACT: note_off channel=0 note=97 velocity=64 time=0.0555555
EXTRACT: note_on channel=0 note=98 velocity=67 time=0.0555555
EXTRACT: note_on channel=9 note=42 velocity=64 time=0
EXTRACT: note_off channel=0 note=98 velocity=64 time=0.222222
EXTRACT: note_off channel=3 note=45 velocity=64 time=0
EXTRACT: note_off channel=9 note=42 velocity=64 time=0
EXTRACT: note_on channel=0 note=97 velocity=67 time=0.111111
EXTRACT: note_on channel=3 note=45 velocity=64 time=0
EXTRACT: note_on channel=9 note=42 velocity=64 time=0
EXTRACT: note_off channel=0 note=97 velocity=64 time=0.222222
EXTRACT: note_off channel=3 note=45 velocity=64 time=0
EXTRACT: note_off channel=9 note=42 velocity=64 time=0
EXTRACT: note_on channel=0 note=90 velocity=67 time=0.111111
EXTRACT: note_on channel=3 note=42 velocity=64 time=0
EXTRACT: note_on channel=2 note=78 velocity=15 time=0
EXTRACT: note_on channel=2 note=73 velocity=15 time=0
EXTRACT: note_on channel=2 note=69 velocity=15 time=0
EXTRACT: note_on channel=9 note=42 velocity=64 time=0
EXTRACT: note_off channel=0 note=90 velocity=64 time=0.111111
EXTRACT: note_on channel=0 note=88 velocity=67 time=0.0555555
EXTRACT: note_off channel=9 note=42 velocity=64 time=0.0555555
EXTRACT: note_off channel=0 note=88 velocity=64 time=0.0555555
EXTRACT: note_on channel=0 note=90 velocity=67 time=0.0555555
EXTRACT: note_on channel=9 note=42 velocity=64 time=0
EXTRACT: note_off channel=9 note=42 velocity=64 time=0.222222
EXTRACT: note_on channel=9 note=42 velocity=64 time=0.111111
EXTRACT: note_off channel=0 note=90 velocity=64 time=0.111111
EXTRACT: note_off channel=2 note=78 velocity=64 time=0.111111
EXTRACT: note_off channel=2 note=73 velocity=64 time=0
EXTRACT: note_off channel=2 note=69 velocity=64 time=0
EXTRACT: note_off channel=9 note=42 velocity=64 time=0
EXTRACT: note_on channel=0 note=90 velocity=67 time=0.111111
EXTRACT: note_on channel=1 note=78 velocity=37 time=0
EXTRACT: note_on channel=1 note=73 velocity=37 time=0
EXTRACT: note_on channel=1 note=69 velocity=37 time=0
EXTRACT: note_on channel=9 note=42 velocity=64 time=0
EXTRACT: note_on channel=9 note=38 velocity=64 time=0
EXTRACT: note_off channel=0 note=90 velocity=64 time=0.111111
EXTRACT: note_on channel=0 note=88 velocity=67 time=0.0555555
EXTRACT: note_off channel=1 note=78 velocity=64 time=0.0555555
EXTRACT: note_off channel=1 note=73 velocity=64 time=0
EXTRACT: note_off channel=1 note=69 velocity=64 time=0
EXTRACT: note_off channel=9 note=42 velocity=64 time=0
EXTRACT: note_off channel=9 note=38 velocity=64 time=0
EXTRACT: note_off channel=0 note=88 velocity=64 time=0.0555555
EXTRACT: note_on channel=0 note=85 velocity=67 time=0.0555555
EXTRACT: note_off channel=3 note=42 velocity=64 time=0
EXTRACT: note_on channel=9 note=42 velocity=64 time=0
EXTRACT: note_off channel=0 note=85 velocity=64 time=0.111111
EXTRACT: note_on channel=0 note=85 velocity=67 time=0.0555555
EXTRACT: note_off channel=9 note=42 velocity=64 time=0.0555555
EXTRACT: note_on channel=3 note=42 velocity=64 time=0.111111
EXTRACT: note_on channel=9 note=42 velocity=64 time=0
EXTRACT: note_off channel=0 note=85 velocity=64 time=0.1666665
EXTRACT: note_off channel=3 note=42 velocity=64 time=0.0555555
EXTRACT: note_off channel=9 note=42 velocity=64 time=0
EXTRACT: note_on channel=3 note=38 velocity=64 time=0.111111
EXTRACT: note_on channel=2 note=78 velocity=15 time=0
EXTRACT: note_on channel=2 note=74 velocity=15 time=0
EXTRACT: note_on channel=2 note=69 velocity=15 time=0
EXTRACT: note_on channel=2 note=62 velocity=15 time=0
EXTRACT: note_on channel=9 note=42 velocity=64 time=0
EXTRACT: note_off channel=9 note=42 velocity=64 time=0.222222
EXTRACT: note_on channel=0 note=76 velocity=67 time=0.111111
EXTRACT: note_on channel=9 note=42 velocity=64 time=0
EXTRACT: note_off channel=0 note=76 velocity=64 time=0.111111
EXTRACT: note_on channel=0 note=78 velocity=67 time=0.0555555
EXTRACT: note_off channel=9 note=42 velocity=64 time=0.0555555
EXTRACT: note_off channel=0 note=78 velocity=64 time=0.0555555
EXTRACT: note_on channel=0 note=81 velocity=67 time=0.0555555
EXTRACT: note_on channel=9 note=42 velocity=64 time=0
EXTRACT: note_off channel=0 note=81 velocity=64 time=0.111111
EXTRACT: note_on channel=0 note=83 velocity=67 time=0.0555555
EXTRACT: note_off channel=2 note=78 velocity=64 time=0.0555555
EXTRACT: note_off channel=2 note=74 velocity=64 time=0
EXTRACT: note_off channel=2 note=69 velocity=64 time=0
EXTRACT: note_off channel=2 note=62 velocity=64 time=0
EXTRACT: note_off channel=9 note=42 velocity=64 time=0
EXTRACT: note_off channel=0 note=83 velocity=64 time=0.0555555
EXTRACT: note_on channel=0 note=83 velocity=67 time=0.0555555
EXTRACT: note_on channel=1 note=74 velocity=37 time=0
EXTRACT: note_on channel=1 note=69 velocity=37 time=0
EXTRACT: note_on channel=1 note=62 velocity=37 time=0
EXTRACT: note_on channel=9 note=42 velocity=64 time=0
EXTRACT: note_on channel=9 note=38 velocity=64 time=0
EXTRACT: note_off channel=0 note=83 velocity=64 time=0.222222
EXTRACT: note_off channel=1 note=74 velocity=64 time=0
EXTRACT: note_off channel=1 note=69 velocity=64 time=0
EXTRACT: note_off channel=1 note=62 velocity=64 time=0
EXTRACT: note_off channel=9 note=42 velocity=64 time=0
EXTRACT: note_off channel=9 note=38 velocity=64 time=0
EXTRACT: note_on channel=0 note=81 velocity=67 time=0.111111
EXTRACT: note_off channel=3 note=38 velocity=64 time=0
EXTRACT: note_on channel=9 note=42 velocity=64 time=0
EXTRACT: note_off channel=0 note=81 velocity=64 time=0.111111
EXTRACT: note_on channel=0 note=78 velocity=67 time=0.0555555
EXTRACT: note_off channel=9 note=42 velocity=64 time=0.0555555
EXTRACT: note_on channel=3 note=38 velocity=64 time=0.111111
EXTRACT: note_on channel=9 note=42 velocity=64 time=0
EXTRACT: note_off channel=0 note=78 velocity=64 time=0.0555555
EXTRACT: note_on channel=0 note=88 velocity=67 time=0.111111
EXTRACT: note_off channel=3 note=38 velocity=64 time=0.0555555
EXTRACT: note_off channel=9 note=42 velocity=64 time=0
EXTRACT: note_off channel=0 note=88 velocity=64 time=0.0555555
EXTRACT: note_on channel=0 note=90 velocity=67 time=0.0555555
EXTRACT: note_on channel=3 note=38 velocity=64 time=0
EXTRACT: note_on channel=2 note=77 velocity=15 time=0
EXTRACT: note_on channel=2 note=74 velocity=15 time=0
EXTRACT: note_on channel=2 note=69 velocity=15 time=0
EXTRACT: note_on channel=2 note=62 velocity=15 time=0
EXTRACT: note_on channel=9 note=42 velocity=64 time=0
EXTRACT: note_off channel=0 note=90 velocity=64 time=0.222222
EXTRACT: note_off channel=9 note=42 velocity=64 time=0
EXTRACT: note_on channel=0 note=88 velocity=67 time=0.111111
EXTRACT: note_on channel=1 note=77 velocity=37 time=0
EXTRACT: note_on channel=1 note=74 velocity=37 time=0
EXTRACT: note_on channel=1 note=69 velocity=37 time=0
EXTRACT: note_on channel=9 note=42 velocity=64 time=0
EXTRACT: note_off channel=0 note=88 velocity=64 time=0.111111
EXTRACT: note_on channel=0 note=85 velocity=67 time=0.0555555
EXTRACT: note_off channel=9 note=42 velocity=64 time=0.0555555
EXTRACT: note_off channel=0 note=85 velocity=64 time=0.0555555
EXTRACT: note_on channel=0 note=83 velocity=67 time=0.0555555
EXTRACT: note_on channel=9 note=42 velocity=64 time=0
EXTRACT: note_off channel=0 note=83 velocity=64 time=0.111111
EXTRACT: note_off channel=1 note=77 velocity=64 time=0
EXTRACT: note_off channel=1 note=74 velocity=64 time=0
EXTRACT: note_off channel=1 note=69 velocity=64 time=0
EXTRACT: note_on channel=0 note=85 velocity=67 time=0.0555555
EXTRACT: note_on channel=9 note=38 velocity=64 time=0
EXTRACT: note_off channel=2 note=62 velocity=64 time=0.0555555
EXTRACT: note_off channel=9 note=42 velocity=64 time=0
EXTRACT: note_off channel=0 note=85 velocity=64 time=0.0555555
EXTRACT: note_off channel=9 note=38 velocity=64 time=0
EXTRACT: note_on channel=0 note=85 velocity=67 time=0.0555555
EXTRACT: note_on channel=1 note=77 velocity=37 time=0
EXTRACT: note_on channel=1 note=69 velocity=37 time=0
EXTRACT: note_on channel=1 note=74 velocity=37 time=0
EXTRACT: note_on channel=9 note=42 velocity=64 time=0
EXTRACT: note_on channel=9 note=38 velocity=64 time=0
EXTRACT: note_off channel=2 note=77 velocity=64 time=0.111111
EXTRACT: note_off channel=2 note=74 velocity=64 time=0
EXTRACT: note_off channel=2 note=69 velocity=64 time=0
EXTRACT: note_off channel=9 note=42 velocity=64 time=0.111111
EXTRACT: note_off channel=9 note=38 velocity=64 time=0
EXTRACT: note_off channel=3 note=38 velocity=64 time=0.111111
EXTRACT: note_on channel=9 note=42 velocity=64 time=0
EXTRACT: note_on channel=9 note=38 velocity=64 time=0
EXTRACT: note_off channel=9 note=42 velocity=64 time=0.222222
EXTRACT: note_off channel=9 note=38 velocity=64 time=0
EXTRACT: note_off channel=0 note=85 velocity=64 time=0.111111
EXTRACT: note_off channel=1 note=77 velocity=64 time=0
EXTRACT: note_off channel=1 note=69 velocity=64 time=0
EXTRACT: note_off channel=1 note=74 velocity=64 time=0
EXTRACT: note_on channel=3 note=38 velocity=64 time=0
EXTRACT: note_on channel=9 note=42 velocity=64 time=0
EXTRACT: note_on channel=9 note=38 velocity=64 time=0
EXTRACT: note_off channel=3 note=38 velocity=64 time=0.222222
EXTRACT: note_off channel=9 note=42 velocity=64 time=0
EXTRACT: note_off channel=9 note=38 velocity=64 time=0
EXTRACT: note_on channel=0 note=93 velocity=67 time=0.111111
EXTRACT: note_on channel=3 note=45 velocity=64 time=0
EXTRACT: note_on channel=2 note=76 velocity=15 time=0
EXTRACT: note_on channel=2 note=73 velocity=15 time=0
EXTRACT: note_on channel=2 note=69 velocity=15 time=0
EXTRACT: note_on channel=2 note=64 velocity=15 time=0
EXTRACT: note_on channel=9 note=42 velocity=64 time=0
EXTRACT: note_on channel=9 note=49 velocity=64 time=0
EXTRACT: note_off channel=0 note=93 velocity=64 time=0.111111
EXTRACT: note_on channel=0 note=88 velocity=67 time=0.0555555
EXTRACT: note_off channel=9 note=42 velocity=64 time=0.0555555
EXTRACT: note_off channel=9 note=49 velocity=64 time=0
EXTRACT: note_off channel=0 note=88 velocity=64 time=0.0555555
EXTRACT: note_on channel=0 note=93 velocity=67 time=0.0555555
EXTRACT: note_on channel=9 note=42 velocity=64 time=0
EXTRACT: note_off channel=0 note=93 velocity=64 time=0.111111
EXTRACT: note_on channel=0 note=88 velocity=67 time=0.0555555
EXTRACT: note_off channel=9 note=42 velocity=64 time=0.0555555
EXTRACT: note_off channel=0 note=88 velocity=64 time=0.0555555
EXTRACT: note_on channel=0 note=93 velocity=67 time=0.0555555
EXTRACT: note_on channel=9 note=42 velocity=64 time=0
EXTRACT: note_off channel=0 note=93 velocity=64 time=0.111111
EXTRACT: note_on channel=0 note=88 velocity=67 time=0.0555555
EXTRACT: note_off channel=2 note=76 velocity=64 time=0.0555555
EXTRACT: note_off channel=2 note=73 velocity=64 time=0
EXTRACT: note_off channel=2 note=69 velocity=64 time=0
EXTRACT: note_off channel=2 note=64 velocity=64 time=0
EXTRACT: note_off channel=9 note=42 velocity=64 time=0
EXTRACT: note_off channel=0 note=88 velocity=64 time=0.0555555
EXTRACT: note_on channel=0 note=93 velocity=67 time=0.0555555
EXTRACT: note_on channel=1 note=81 velocity=37 time=0
EXTRACT: note_on channel=1 note=76 velocity=37 time=0
EXTRACT: note_on channel=1 note=73 velocity=37 time=0
EXTRACT: note_on channel=9 note=42 velocity=64 time=0
EXTRACT: note_on channel=9 note=38 velocity=64 time=0
EXTRACT: note_off channel=0 note=93 velocity=64 time=0.111111
EXTRACT: note_on channel=0 note=88 velocity=67 time=0.0555555
EXTRACT: note_off channel=1 note=81 velocity=64 time=0.0555555
EXTRACT: note_off channel=1 note=76 velocity=64 time=0
EXTRACT: note_off channel=1 note=73 velocity=64 time=0
EXTRACT: note_off channel=9 note=42 velocity=64 time=0
EXTRACT: note_off channel=9 note=38 velocity=64 time=0
EXTRACT: note_off channel=0 note=88 velocity=64 time=0.0555555
EXTRACT: note_on channel=0 note=93 velocity=67 time=0.0555555
EXTRACT: note_on channel=9 note=42 velocity=64 time=0
EXTRACT: note_off channel=0 note=93 velocity=64 time=0.111111
EXTRACT: note_on channel=0 note=93 velocity=67 time=0.0555555
EXTRACT: note_off channel=3 note=45 velocity=64 time=0.0555555
EXTRACT: note_off channel=9 note=42 velocity=64 time=0
EXTRACT: note_off channel=0 note=93 velocity=64 time=0.0555555
EXTRACT: note_on channel=0 note=88 velocity=67 time=0.0555555
EXTRACT: note_on channel=3 note=45 velocity=64 time=0
EXTRACT: note_on channel=9 note=42 velocity=64 time=0
EXTRACT: note_off channel=0 note=88 velocity=64 time=0.111111
EXTRACT: note_on channel=0 note=93 velocity=67 time=0.0555555
EXTRACT: note_off channel=3 note=45 velocity=64 time=0.0555555
EXTRACT: note_off channel=9 note=42 velocity=64 time=0
EXTRACT: note_off channel=0 note=93 velocity=64 time=0.0555555
EXTRACT: note_on channel=0 note=88 velocity=67 time=0.0555555
EXTRACT: note_on channel=3 note=42 velocity=64 time=0
EXTRACT: note_on channel=2 note=78 velocity=15 time=0
EXTRACT: note_on channel=2 note=73 velocity=15 time=0
EXTRACT: note_on channel=2 note=69 velocity=15 time=0
EXTRACT: note_on channel=9 note=42 velocity=64 time=0
EXTRACT: note_off channel=0 note=88 velocity=64 time=0.111111
EXTRACT: note_on channel=0 note=93 velocity=67 time=0.0555555
EXTRACT: note_off channel=9 note=42 velocity=64 time=0.0555555
EXTRACT: note_off channel=0 note=93 velocity=64 time=0.0555555
EXTRACT: note_on channel=0 note=97 velocity=67 time=0.0555555
EXTRACT: note_on channel=9 note=42 velocity=64 time=0
EXTRACT: note_off channel=0 note=97 velocity=64 time=0.111111
EXTRACT: note_on channel=0 note=100 velocity=67 time=0.0555555
EXTRACT: note_off channel=9 note=42 velocity=64 time=0.0555555
EXTRACT: note_on channel=9 note=42 velocity=64 time=0.111111
EXTRACT: note_off channel=2 note=78 velocity=64 time=0.222222
EXTRACT: note_off channel=2 note=73 velocity=64 time=0
EXTRACT: note_off channel=2 note=69 velocity=64 time=0
EXTRACT: note_off channel=9 note=42 velocity=64 time=0
EXTRACT: note_on channel=1 note=78 velocity=37 time=0.111111
EXTRACT: note_on channel=1 note=73 velocity=37 time=0
EXTRACT: note_on channel=1 note=69 velocity=37 time=0
EXTRACT: note_on channel=9 note=42 velocity=64 time=0
EXTRACT: note_on channel=9 note=38 velocity=64 time=0
EXTRACT: note_off channel=0 note=100 velocity=64 time=0.1666665
EXTRACT: note_off channel=1 note=78 velocity=64 time=0.0555555
EXTRACT: note_off channel=1 note=73 velocity=64 time=0
EXTRACT: note_off channel=1 note=69 velocity=64 time=0
EXTRACT: note_off channel=9 note=42 velocity=64 time=0
EXTRACT: note_off channel=9 note=38 velocity=64 time=0
EXTRACT: note_off channel=3 note=42 velocity=64 time=0.111111
EXTRACT: note_on channel=9 note=42 velocity=64 time=0
EXTRACT: note_on channel=0 note=100 velocity=67 time=0.1666665
EXTRACT: note_on channel=0 note=97 velocity=67 time=0
EXTRACT: note_off channel=9 note=42 velocity=64 time=0.0555555
EXTRACT: note_off channel=0 note=97 velocity=64 time=0.0555555
EXTRACT: note_on channel=3 note=42 velocity=64 time=0.0555555
EXTRACT: note_on channel=9 note=42 velocity=64 time=0
EXTRACT: note_off channel=0 note=100 velocity=64 time=0.1666665
EXTRACT: note_off channel=3 note=42 velocity=64 time=0.0555555
EXTRACT: note_off channel=9 note=42 velocity=64 time=0
EXTRACT: note_on channel=0 note=100 velocity=67 time=0.111111
EXTRACT: note_on channel=3 note=38 velocity=64 time=0
EXTRACT: note_on channel=2 note=74 velocity=29 time=0
EXTRACT: note_on channel=2 note=69 velocity=29 time=0
EXTRACT: note_on channel=2 note=62 velocity=29 time=0
EXTRACT: note_on channel=9 note=42 velocity=64 time=0
EXTRACT: note_off channel=0 note=100 velocity=64 time=0.111111
EXTRACT: note_on channel=0 note=97 velocity=67 time=0.0555555
EXTRACT: note_off channel=9 note=42 velocity=64 time=0.0555555
EXTRACT: note_off channel=0 note=97 velocity=64 time=0.0555555
EXTRACT: note_on channel=0 note=93 velocity=67 time=0.0555555
EXTRACT: note_on channel=9 note=42 velocity=64 time=0
EXTRACT: note_off channel=9 note=42 velocity=64 time=0.222222
EXTRACT: note_on channel=9 note=42 velocity=64 time=0.111111
EXTRACT: note_off channel=0 note=93 velocity=64 time=0.111111
EXTRACT: note_off channel=2 note=74 velocity=64 time=0.111111
EXTRACT: note_off channel=2 note=69 velocity=64 time=0
EXTRACT: note_off channel=2 note=62 velocity=64 time=0
EXTRACT: note_off channel=9 note=42 velocity=64 time=0
EXTRACT: note_on channel=0 note=88 velocity=67 time=0.111111
EXTRACT: note_on channel=1 note=76 velocity=37 time=0
EXTRACT: note_on channel=1 note=69 velocity=37 time=0
EXTRACT: note_on channel=1 note=62 velocity=37 time=0
EXTRACT: note_on channel=9 note=42 velocity=64 time=0
EXTRACT: note_on channel=9 note=38 velocity=64 time=0
EXTRACT: note_off channel=0 note=88 velocity=64 time=0.222222
EXTRACT: note_off channel=9 note=42 velocity=64 time=0
EXTRACT: note_off channel=9 note=38 velocity=64 time=0
EXTRACT: note_on channel=0 note=88 velocity=67 time=0.111111
EXTRACT: note_off channel=3 note=38 velocity=64 time=0
EXTRACT: note_on channel=9 note=42 velocity=64 time=0
EXTRACT: note_off channel=0 note=88 velocity=64 time=0.111111
EXTRACT: note_off channel=1 note=76 velocity=64 time=0
EXTRACT: note_off channel=1 note=69 velocity=64 time=0
EXTRACT: note_off channel=1 note=62 velocity=64 time=0
EXTRACT: note_on channel=0 note=88 velocity=67 time=0.0555555
EXTRACT: note_off channel=9 note=42 velocity=64 time=0.0555555
EXTRACT: note_off channel=0 note=88 velocity=64 time=0.0555555
EXTRACT: note_on channel=0 note=88 velocity=67 time=0.0555555
EXTRACT: note_on channel=1 note=76 velocity=37 time=0
EXTRACT: note_on channel=1 note=69 velocity=37 time=0
EXTRACT: note_on channel=1 note=62 velocity=37 time=0
EXTRACT: note_on channel=3 note=38 velocity=64 time=0
EXTRACT: note_on channel=9 note=42 velocity=64 time=0
EXTRACT: note_off channel=0 note=88 velocity=64 time=0.111111
EXTRACT: note_on channel=0 note=88 velocity=67 time=0.0555555
EXTRACT: note_off channel=1 note=76 velocity=64 time=0.0555555
EXTRACT: note_off channel=1 note=69 velocity=64 time=0
EXTRACT: note_off channel=1 note=62 velocity=64 time=0
EXTRACT: note_off channel=3 note=38 velocity=64 time=0
EXTRACT: note_off channel=9 note=42 velocity=64 time=0
EXTRACT: note_off channel=0 note=88 velocity=64 time=0.0555555
EXTRACT: note_on channel=0 note=88 velocity=67 time=0.0555555
EXTRACT: note_on channel=1 note=76 velocity=37 time=0
EXTRACT: note_on channel=1 note=71 velocity=37 time=0
EXTRACT: note_on channel=1 note=64 velocity=37 time=0
EXTRACT: note_on channel=3 note=40 velocity=64 time=0
EXTRACT: note_on channel=2 note=80 velocity=29 time=0
EXTRACT: note_on channel=2 note=76 velocity=29 time=0
EXTRACT: note_on channel=2 note=71 velocity=29 time=0
EXTRACT: note_on channel=9 note=42 velocity=64 time=0
EXTRACT: note_off channel=0 note=88 velocity=64 time=0.111111
EXTRACT: note_on channel=0 note=88 velocity=67 time=0.0555555
EXTRACT: note_off channel=1 note=76 velocity=64 time=0.0555555
EXTRACT: note_off channel=1 note=71 velocity=64 time=0
EXTRACT: note_off channel=1 note=64 velocity=64 time=0
EXTRACT: note_off channel=9 note=42 velocity=64 time=0
EXTRACT: note_off channel=0 note=88 velocity=64 time=0.0555555
EXTRACT: note_on channel=0 note=88 velocity=67 time=0.0555555
EXTRACT: note_on channel=1 note=76 velocity=37 time=0
EXTRACT: note_on channel=1 note=71 velocity=37 time=0
EXTRACT: note_on channel=1 note=64 velocity=37 time=0
EXTRACT: note_on channel=9 note=42 velocity=64 time=0
EXTRACT: note_off channel=0 note=88 velocity=64 time=0.111111
EXTRACT: note_on channel=0 note=88 velocity=67 time=0.0555555
EXTRACT: note_off channel=1 note=76 velocity=64 time=0.0555555
EXTRACT: note_off channel=1 note=71 velocity=64 time=0
EXTRACT: note_off channel=1 note=64 velocity=64 time=0
EXTRACT: note_off channel=9 note=42 velocity=64 time=0
EXTRACT: note_off channel=0 note=88 velocity=64 time=0.0555555
EXTRACT: note_on channel=0 note=88 velocity=67 time=0.0555555
EXTRACT: note_on channel=1 note=76 velocity=37 time=0
EXTRACT: note_on channel=1 note=71 velocity=37 time=0
EXTRACT: note_on channel=1 note=64 velocity=37 time=0
EXTRACT: note_on channel=9 note=42 velocity=64 time=0
EXTRACT: note_off channel=0 note=88 velocity=64 time=0.111111
EXTRACT: note_on channel=0 note=88 velocity=67 time=0.0555555
EXTRACT: note_on channel=9 note=38 velocity=64 time=0
EXTRACT: note_off channel=1 note=76 velocity=64 time=0.0555555
EXTRACT: note_off channel=1 note=71 velocity=64 time=0
EXTRACT: note_off channel=1 note=64 velocity=64 time=0
EXTRACT: note_off channel=2 note=80 velocity=64 time=0
EXTRACT: note_off channel=2 note=76 velocity=64 time=0
EXTRACT: note_off channel=2 note=71 velocity=64 time=0
EXTRACT: note_off channel=9 note=42 velocity=64 time=0
EXTRACT: note_off channel=0 note=88 velocity=64 time=0.0555555
EXTRACT: note_off channel=9 note=38 velocity=64 time=0
EXTRACT: note_on channel=0 note=88 velocity=67 time=0.0555555
EXTRACT: note_on channel=1 note=76 velocity=37 time=0
EXTRACT: note_on channel=1 note=71 velocity=37 time=0
EXTRACT: note_on channel=1 note=64 velocity=37 time=0
EXTRACT: note_on channel=9 note=42 velocity=64 time=0
EXTRACT: note_on channel=9 note=38 velocity=64 time=0
EXTRACT: note_off channel=0 note=88 velocity=64 time=0.111111
EXTRACT: note_on channel=0 note=88 velocity=67 time=0.0555555
EXTRACT: note_off channel=1 note=76 velocity=64 time=0.0555555
EXTRACT: note_off channel=1 note=71 velocity=64 time=0
EXTRACT: note_off channel=1 note=64 velocity=64 time=0
EXTRACT: note_off channel=9 note=42 velocity=64 time=0
EXTRACT: note_off channel=9 note=38 velocity=64 time=0
EXTRACT: note_off channel=0 note=88 velocity=64 time=0.0555555
EXTRACT: note_on channel=0 note=88 velocity=67 time=0.0555555
EXTRACT: note_on channel=1 note=76 velocity=37 time=0
EXTRACT: note_on channel=1 note=71 velocity=37 time=0
EXTRACT: note_on channel=1 note=64 velocity=37 time=0
EXTRACT: note_off channel=3 note=40 velocity=64 time=0
EXTRACT: note_on channel=9 note=42 velocity=64 time=0
EXTRACT: note_on channel=9 note=38 velocity=64 time=0
EXTRACT: note_off channel=0 note=88 velocity=64 time=0.111111
EXTRACT: note_on channel=0 note=88 velocity=67 time=0.0555555
EXTRACT: note_off channel=1 note=76 velocity=64 time=0.0555555
EXTRACT: note_off channel=1 note=71 velocity=64 time=0
EXTRACT: note_off channel=1 note=64 velocity=64 time=0
EXTRACT: note_off channel=9 note=42 velocity=64 time=0
EXTRACT: note_off channel=9 note=38 velocity=64 time=0
EXTRACT: note_off channel=0 note=88 velocity=64 time=0.0555555
EXTRACT: note_on channel=0 note=88 velocity=67 time=0.0555555
EXTRACT: note_on channel=1 note=76 velocity=37 time=0
EXTRACT: note_on channel=1 note=71 velocity=37 time=0
EXTRACT: note_on channel=1 note=64 velocity=37 time=0
EXTRACT: note_on channel=3 note=40 velocity=64 time=0
EXTRACT: note_on channel=9 note=42 velocity=64 time=0
EXTRACT: note_on channel=9 note=38 velocity=64 time=0
EXTRACT: note_off channel=0 note=88 velocity=64 time=0.222222
EXTRACT: note_off channel=1 note=76 velocity=64 time=0
EXTRACT: note_off channel=1 note=71 velocity=64 time=0
EXTRACT: note_off channel=1 note=64 velocity=64 time=0
EXTRACT: note_off channel=3 note=40 velocity=64 time=0
EXTRACT: note_off channel=9 note=42 velocity=64 time=0
EXTRACT: note_off channel=9 note=38 velocity=64 time=0
EXTRACT: note_on channel=1 note=78 velocity=37 time=0.111111
EXTRACT: note_on channel=1 note=73 velocity=37 time=0
EXTRACT: note_on channel=1 note=66 velocity=37 time=0
EXTRACT: note_on channel=9 note=42 velocity=64 time=0
EXTRACT: note_on channel=9 note=49 velocity=64 time=0
EXTRACT: note_on channel=7 note=78 velocity=23 time=0
EXTRACT: note_on channel=7 note=73 velocity=23 time=0
EXTRACT: note_on channel=7 note=69 velocity=23 time=0
EXTRACT: note_off channel=9 note=42 velocity=64 time=0.222222
EXTRACT: note_off channel=9 note=49 velocity=64 time=0
EXTRACT: note_on channel=9 note=42 velocity=64 time=0.111111
EXTRACT: note_off channel=7 note=78 velocity=64 time=0.111111
EXTRACT: note_off channel=7 note=73 velocity=64 time=0
EXTRACT: note_off channel=7 note=69 velocity=64 time=0
EXTRACT: note_off channel=9 note=42 velocity=64 time=0.111111
EXTRACT: note_off channel=1 note=78 velocity=64 time=0.111111
EXTRACT: note_off channel=1 note=73 velocity=64 time=0
EXTRACT: note_off channel=1 note=66 velocity=64 time=0
EXTRACT: note_on channel=9 note=42 velocity=64 time=0
EXTRACT: note_on channel=7 note=78 velocity=23 time=0
EXTRACT: note_on channel=7 note=73 velocity=23 time=0
EXTRACT: note_on channel=7 note=69 velocity=23 time=0
EXTRACT: note_off channel=9 note=42 velocity=64 time=0.222222
EXTRACT: note_off channel=7 note=78 velocity=64 time=0
EXTRACT: note_off channel=7 note=73 velocity=64 time=0
EXTRACT: note_off channel=7 note=69 velocity=64 time=0
EXTRACT: note_on channel=6 note=81 velocity=64 time=0.111111
EXTRACT: note_on channel=0 note=90 velocity=67 time=0
EXTRACT: note_on channel=9 note=42 velocity=64 time=0
EXTRACT: note_on channel=9 note=38 velocity=64 time=0
EXTRACT: note_on channel=7 note=78 velocity=23 time=0
EXTRACT: note_on channel=7 note=73 velocity=23 time=0
EXTRACT: note_on channel=7 note=69 velocity=23 time=0
EXTRACT: note_off channel=9 note=42 velocity=64 time=0.222222
EXTRACT: note_off channel=9 note=38 velocity=64 time=0
EXTRACT: note_off channel=7 note=78 velocity=64 time=0
EXTRACT: note_off channel=7 note=73 velocity=64 time=0
EXTRACT: note_off channel=7 note=69 velocity=64 time=0
EXTRACT: note_on channel=9 note=42 velocity=64 time=0.111111
EXTRACT: note_on channel=7 note=78 velocity=23 time=0
EXTRACT: note_on channel=7 note=73 velocity=23 time=0
EXTRACT: note_on channel=7 note=69 velocity=23 time=0
EXTRACT: note_off channel=9 note=42 velocity=64 time=0.222222
EXTRACT: note_off channel=7 note=78 velocity=64 time=0
EXTRACT: note_off channel=7 note=73 velocity=64 time=0
EXTRACT: note_off channel=7 note=69 velocity=64 time=0
EXTRACT: note_off channel=6 note=81 velocity=64 time=0.111111
EXTRACT: note_off channel=0 note=90 velocity=64 time=0
EXTRACT: note_on channel=9 note=42 velocity=64 time=0
EXTRACT: note_on channel=7 note=78 velocity=23 time=0
EXTRACT: note_on channel=7 note=69 velocity=23 time=0
EXTRACT: note_on channel=7 note=73 velocity=23 time=0
EXTRACT: note_off channel=9 note=42 velocity=64 time=0.222222
EXTRACT: note_off channel=7 note=78 velocity=64 time=0
EXTRACT: note_off channel=7 note=69 velocity=64 time=0
EXTRACT: note_off channel=7 note=73 velocity=64 time=0
EXTRACT: note_on channel=6 note=80 velocity=64 time=0.111111
EXTRACT: note_on channel=0 note=88 velocity=67 time=0
EXTRACT: note_on channel=9 note=42 velocity=64 time=0
EXTRACT: note_on channel=7 note=76 velocity=23 time=0
EXTRACT: note_on channel=7 note=71 velocity=23 time=0
EXTRACT: note_on channel=7 note=64 velocity=23 time=0
EXTRACT: note_off channel=9 note=42 velocity=64 time=0.222222
EXTRACT: note_off channel=7 note=76 velocity=64 time=0
EXTRACT: note_off channel=7 note=71 velocity=64 time=0
EXTRACT: note_off channel=7 note=64 velocity=64 time=0
EXTRACT: note_on channel=9 note=42 velocity=64 time=0.111111
EXTRACT: note_on channel=7 note=76 velocity=23 time=0
EXTRACT: note_on channel=7 note=71 velocity=23 time=0
EXTRACT: note_on channel=7 note=64 velocity=23 time=0
EXTRACT: note_off channel=9 note=42 velocity=64 time=0.222222
EXTRACT: note_off channel=7 note=76 velocity=64 time=0
EXTRACT: note_off channel=7 note=71 velocity=64 time=0
EXTRACT: note_off channel=7 note=64 velocity=64 time=0
EXTRACT: note_off channel=6 note=80 velocity=64 time=0.111111
EXTRACT: note_on channel=9 note=42 velocity=64 time=0
EXTRACT: note_on channel=7 note=76 velocity=23 time=0
EXTRACT: note_on channel=7 note=71 velocity=23 time=0
EXTRACT: note_on channel=7 note=64 velocity=23 time=0
EXTRACT: note_off channel=9 note=42 velocity=64 time=0.222222
EXTRACT: note_off channel=7 note=76 velocity=64 time=0
EXTRACT: note_off channel=7 note=71 velocity=64 time=0
EXTRACT: note_off channel=7 note=64 velocity=64 time=0
EXTRACT: note_on channel=6 note=76 velocity=64 time=0.111111
EXTRACT: note_on channel=9 note=42 velocity=64 time=0
EXTRACT: note_on channel=9 note=38 velocity=64 time=0
EXTRACT: note_on channel=7 note=76 velocity=23 time=0
EXTRACT: note_on channel=7 note=71 velocity=23 time=0
EXTRACT: note_on channel=7 note=64 velocity=23 time=0
EXTRACT: note_off channel=6 note=76 velocity=64 time=0.222222
EXTRACT: note_off channel=9 note=42 velocity=64 time=0
EXTRACT: note_off channel=9 note=38 velocity=64 time=0
EXTRACT: note_off channel=7 note=76 velocity=64 time=0
EXTRACT: note_off channel=7 note=71 velocity=64 time=0
EXTRACT: note_off channel=7 note=64 velocity=64 time=0
EXTRACT: note_on channel=9 note=42 velocity=64 time=0.111111
EXTRACT: note_on channel=7 note=76 velocity=23 time=0
EXTRACT: note_on channel=7 note=71 velocity=23 time=0
EXTRACT: note_on channel=7 note=64 velocity=23 time=0
EXTRACT: note_off channel=0 note=88 velocity=64 time=0.111111
EXTRACT: note_off channel=9 note=42 velocity=64 time=0.111111
EXTRACT: note_off channel=7 note=76 velocity=64 time=0
EXTRACT: note_off channel=7 note=71 velocity=64 time=0
EXTRACT: note_off channel=7 note=64 velocity=64 time=0
EXTRACT: note_on channel=6 note=76 velocity=64 time=0.111111
EXTRACT: note_on channel=0 note=85 velocity=67 time=0
EXTRACT: note_on channel=9 note=42 velocity=64 time=0
EXTRACT: note_on channel=7 note=76 velocity=23 time=0
EXTRACT: note_on channel=7 note=71 velocity=23 time=0
EXTRACT: note_on channel=7 note=64 velocity=23 time=0
EXTRACT: note_off channel=6 note=76 velocity=64 time=0.222222
EXTRACT: note_off channel=0 note=85 velocity=64 time=0
EXTRACT: note_off channel=9 note=42 velocity=64 time=0
EXTRACT: note_off channel=7 note=76 velocity=64 time=0
EXTRACT: note_off channel=7 note=71 velocity=64 time=0
EXTRACT: note_off channel=7 note=64 velocity=64 time=0
EXTRACT: note_on channel=6 note=78 velocity=64 time=0.111111
EXTRACT: note_on channel=0 note=86 velocity=67 time=0
EXTRACT: note_on channel=9 note=42 velocity=64 time=0
EXTRACT: note_on channel=7 note=74 velocity=23 time=0
EXTRACT: note_on channel=7 note=69 velocity=23 time=0
EXTRACT: note_on channel=7 note=62 velocity=23 time=0
EXTRACT: note_off channel=9 note=42 velocity=64 time=0.222222
EXTRACT: note_off channel=7 note=74 velocity=64 time=0
EXTRACT: note_off channel=7 note=69 velocity=64 time=0
EXTRACT: note_off channel=7 note=62 velocity=64 time=0
EXTRACT: note_on channel=9 note=42 velocity=64 time=0.111111
EXTRACT: note_on channel=7 note=74 velocity=23 time=0
EXTRACT: note_on channel=7 note=69 velocity=23 time=0
EXTRACT: note_on channel=7 note=62 velocity=23 time=0
EXTRACT: note_off channel=9 note=42 velocity=64 time=0.222222
EXTRACT: note_off channel=7 note=74 velocity=64 time=0
EXTRACT: note_off channel=7 note=69 velocity=64 time=0
EXTRACT: note_off channel=7 note=62 velocity=64 time=0
EXTRACT: note_off channel=6 note=78 velocity=64 time=0.111111
EXTRACT: note_on channel=9 note=42 velocity=64 time=0
EXTRACT: note_on channel=7 note=74 velocity=23 time=0
EXTRACT: note_on channel=7 note=69 velocity=23 time=0
EXTRACT: note_on channel=7 note=62 velocity=23 time=0
EXTRACT: note_off channel=9 note=42 velocity=64 time=0.222222
EXTRACT: note_off channel=7 note=74 velocity=64 time=0
EXTRACT: note_off channel=7 note=69 velocity=64 time=0
EXTRACT: note_off channel=7 note=62 velocity=64 time=0
EXTRACT: note_on channel=9 note=42 velocity=64 time=0.111111
EXTRACT: note_on channel=9 note=38 velocity=64 time=0
EXTRACT: note_on channel=7 note=74 velocity=23 time=0
EXTRACT: note_on channel=7 note=62 velocity=23 time=0
EXTRACT: note_on channel=7 note=69 velocity=23 time=0
EXTRACT: note_off channel=9 note=42 velocity=64 time=0.222222
EXTRACT: note_off channel=9 note=38 velocity=64 time=0
EXTRACT: note_off channel=7 note=74 velocity=64 time=0
EXTRACT: note_off channel=7 note=62 velocity=64 time=0
EXTRACT: note_off channel=7 note=69 velocity=64 time=0
EXTRACT: note_on channel=9 note=42 velocity=64 time=0.111111
EXTRACT: note_on channel=7 note=74 velocity=23 time=0
EXTRACT: note_on channel=7 note=69 velocity=23 time=0
EXTRACT: note_on channel=7 note=62 velocity=23 time=0
EXTRACT: note_off channel=7 note=74 velocity=64 time=0.111111
EXTRACT: note_off channel=7 note=69 velocity=64 time=0
EXTRACT: note_off channel=7 note=62 velocity=64 time=0
EXTRACT: note_on channel=7 note=74 velocity=23 time=0.0555555
EXTRACT: note_on channel=7 note=69 velocity=23 time=0
EXTRACT: note_on channel=7 note=62 velocity=23 time=0
EXTRACT: note_off channel=9 note=42 velocity=64 time=0.0555555
EXTRACT: note_off channel=7 note=74 velocity=64 time=0.0555555
EXTRACT: note_off channel=7 note=69 velocity=64 time=0
EXTRACT: note_off channel=7 note=62 velocity=64 time=0
EXTRACT: note_on channel=9 note=42 velocity=64 time=0.0555555
EXTRACT: note_on channel=7 note=74 velocity=23 time=0
EXTRACT: note_on channel=7 note=69 velocity=23 time=0
EXTRACT: note_on channel=7 note=62 velocity=23 time=0
EXTRACT: note_off channel=7 note=74 velocity=64 time=0.111111
EXTRACT: note_off channel=7 note=69 velocity=64 time=0
EXTRACT: note_off channel=7 note=62 velocity=64 time=0
EXTRACT: note_off channel=0 note=86 velocity=64 time=0.0069444375
EXTRACT: note_on channel=7 note=74 velocity=23 time=0.0486110625
EXTRACT: note_on channel=7 note=69 velocity=23 time=0
EXTRACT: note_on channel=7 note=62 velocity=23 time=0
EXTRACT: note_off channel=9 note=42 velocity=64 time=0.0555555
EXTRACT: note_off channel=7 note=74 velocity=64 time=0.0555555
EXTRACT: note_off channel=7 note=69 velocity=64 time=0
EXTRACT: note_off channel=7 note=62 velocity=64 time=0
EXTRACT: note_on channel=9 note=42 velocity=64 time=0.0555555
EXTRACT: note_on channel=7 note=74 velocity=23 time=0
EXTRACT: note_on channel=7 note=69 velocity=23 time=0
EXTRACT: note_on channel=7 note=62 velocity=23 time=0
EXTRACT: note_off channel=9 note=42 velocity=64 time=0.222222
EXTRACT: note_off channel=7 note=74 velocity=64 time=0
EXTRACT: note_off channel=7 note=69 velocity=64 time=0
EXTRACT: note_off channel=7 note=62 velocity=64 time=0
EXTRACT: note_on channel=9 note=42 velocity=64 time=0.111111
EXTRACT: note_on channel=7 note=74 velocity=23 time=0
EXTRACT: note_on channel=7 note=69 velocity=23 time=0
EXTRACT: note_on channel=7 note=62 velocity=23 time=0
EXTRACT: note_off channel=9 note=42 velocity=64 time=0.222222
EXTRACT: note_off channel=7 note=74 velocity=64 time=0
EXTRACT: note_off channel=7 note=69 velocity=64 time=0
EXTRACT: note_off channel=7 note=62 velocity=64 time=0
EXTRACT: note_on channel=9 note=42 velocity=64 time=0.111111
EXTRACT: note_on channel=7 note=74 velocity=23 time=0
EXTRACT: note_on channel=7 note=69 velocity=23 time=0
EXTRACT: note_on channel=7 note=62 velocity=23 time=0
EXTRACT: note_on channel=9 note=38 velocity=64 time=0.1666665
EXTRACT: note_off channel=9 note=42 velocity=64 time=0.0555555
EXTRACT: note_off channel=7 note=74 velocity=64 time=0
EXTRACT: note_off channel=7 note=69 velocity=64 time=0
EXTRACT: note_off channel=7 note=62 velocity=64 time=0
EXTRACT: note_off channel=9 note=38 velocity=64 time=0.0555555
EXTRACT: note_on channel=6 note=85 velocity=64 time=0.0555555
EXTRACT: note_on channel=9 note=42 velocity=64 time=0
EXTRACT: note_on channel=9 note=38 velocity=64 time=0
EXTRACT: note_on channel=7 note=74 velocity=23 time=0
EXTRACT: note_on channel=7 note=69 velocity=23 time=0
EXTRACT: note_on channel=7 note=62 velocity=23 time=0
EXTRACT: note_off channel=6 note=85 velocity=64 time=0.111111
EXTRACT: note_on channel=6 note=83 velocity=64 time=0.0555555
EXTRACT: note_on channel=6 note=85 velocity=64 time=0
EXTRACT: note_off channel=9 note=42 velocity=64 time=0.0555555
EXTRACT: note_off channel=9 note=38 velocity=64 time=0
EXTRACT: note_off channel=7 note=74 velocity=64 time=0
EXTRACT: note_off channel=7 note=69 velocity=64 time=0
EXTRACT: note_off channel=7 note=62 velocity=64 time=0
EXTRACT: note_off channel=6 note=83 velocity=64 time=0.0555555
EXTRACT: note_on channel=9 note=42 velocity=64 time=0.0555555
EXTRACT: note_on channel=9 note=38 velocity=64 time=0
EXTRACT: note_on channel=7 note=74 velocity=23 time=0
EXTRACT: note_on channel=7 note=69 velocity=23 time=0
EXTRACT: note_on channel=7 note=62 velocity=23 time=0
EXTRACT: note_off channel=6 note=85 velocity=64 time=0.0555555
EXTRACT: note_on channel=6 note=83 velocity=64 time=0.111111
EXTRACT: note_off channel=9 note=42 velocity=64 time=0.0555555
EXTRACT: note_off channel=9 note=38 velocity=64 time=0
EXTRACT: note_off channel=7 note=74 velocity=64 time=0
EXTRACT: note_off channel=7 note=69 velocity=64 time=0
EXTRACT: note_off channel=7 note=62 velocity=64 time=0
EXTRACT: note_off channel=6 note=83 velocity=64 time=0.0555555
EXTRACT: note_on channel=6 note=81 velocity=64 time=0.0555555
EXTRACT: note_on channel=9 note=42 velocity=64 time=0
EXTRACT: note_on channel=9 note=38 velocity=64 time=0
EXTRACT: note_on channel=7 note=74 velocity=23 time=0
EXTRACT: note_on channel=7 note=69 velocity=23 time=0
EXTRACT: note_on channel=7 note=62 velocity=23 time=0
EXTRACT: note_off channel=9 note=42 velocity=64 time=0.222222
EXTRACT: note_off channel=9 note=38 velocity=64 time=0
EXTRACT: note_off channel=7 note=74 velocity=64 time=0
EXTRACT: note_off channel=7 note=69 velocity=64 time=0
EXTRACT: note_off channel=7 note=62 velocity=64 time=0
EXTRACT: note_on channel=1 note=81 velocity=37 time=0.111111
EXTRACT: note_on channel=9 note=42 velocity=64 time=0
EXTRACT: note_on channel=9 note=49 velocity=64 time=0
EXTRACT: note_on channel=7 note=78 velocity=23 time=0
EXTRACT: note_on channel=7 note=73 velocity=23 time=0
EXTRACT: note_on channel=7 note=69 velocity=23 time=0
EXTRACT: note_off channel=6 note=81 velocity=64 time=0.111111
EXTRACT: note_off channel=1 note=81 velocity=64 time=0
EXTRACT: note_on channel=1 note=81 velocity=37 time=0.0555555
EXTRACT: note_off channel=9 note=42 velocity=64 time=0.0555555
EXTRACT: note_off channel=9 note=49 velocity=64 time=0
EXTRACT: note_off channel=7 note=78 velocity=64 time=0
EXTRACT: note_off channel=7 note=73 velocity=64 time=0
EXTRACT: note_off channel=7 note=69 velocity=64 time=0
EXTRACT: note_off channel=1 note=81 velocity=64 time=0.0555555
EXTRACT: note_on channel=1 note=81 velocity=37 time=0.0555555
EXTRACT: note_on channel=9 note=42 velocity=64 time=0
EXTRACT: note_on channel=7 note=78 velocity=23 time=0
EXTRACT: note_on channel=7 note=73 velocity=23 time=0
EXTRACT: note_on channel=7 note=69 velocity=23 time=0
EXTRACT: note_off channel=1 note=81 velocity=64 time=0.111111
EXTRACT: note_on channel=1 note=81 velocity=37 time=0.0555555
EXTRACT: note_off channel=9 note=42 velocity=64 time=0.0555555
EXTRACT: note_off channel=7 note=78 velocity=64 time=0
EXTRACT: note_off channel=7 note=73 velocity=64 time=0
EXTRACT: note_off channel=7 note=69 velocity=64 time=0
EXTRACT: note_off channel=1 note=81 velocity=64 time=0.0555555
EXTRACT: note_on channel=1 note=81 velocity=37 time=0.0555555
EXTRACT: note_on channel=9 note=42 velocity=64 time=0
EXTRACT: note_on channel=7 note=78 velocity=23 time=0
EXTRACT: note_on channel=7 note=73 velocity=23 time=0
EXTRACT: note_on channel=7 note=69 velocity=23 time=0
EXTRACT: note_off channel=1 note=81 velocity=64 time=0.111111
EXTRACT: note_on channel=1 note=81 velocity=37 time=0.0555555
EXTRACT: note_off channel=9 note=42 velocity=64 time=0.0555555
EXTRACT: note_off channel=7 note=78 velocity=64 time=0
EXTRACT: note_off channel=7 note=73 velocity=64 time=0
EXTRACT: note_off channel=7 note=69 velocity=64 time=0
EXTRACT: note_off channel=1 note=81 velocity=64 time=0.0555555
EXTRACT: note_on channel=6 note=81 velocity=64 time=0.0555555
EXTRACT: note_on channel=6 note=85 velocity=64 time=0
EXTRACT: note_on channel=0 note=90 velocity=67 time=0
EXTRACT: note_on channel=1 note=81 velocity=37 time=0
EXTRACT: note_on channel=9 note=42 velocity=64 time=0
EXTRACT: note_on channel=9 note=38 velocity=64 time=0
EXTRACT: note_on channel=7 note=78 velocity=23 time=0
EXTRACT: note_on channel=7 note=73 velocity=23 time=0
EXTRACT: note_on channel=7 note=69 velocity=23 time=0
EXTRACT: note_off channel=1 note=81 velocity=64 time=0.111111
EXTRACT: note_on channel=1 note=81 velocity=37 time=0.0555555
EXTRACT: note_off channel=9 note=42 velocity=64 time=0.0555555
EXTRACT: note_off channel=9 note=38 velocity=64 time=0
EXTRACT: note_off channel=7 note=78 velocity=64 time=0
EXTRACT: note_off channel=7 note=73 velocity=64 time=0
EXTRACT: note_off channel=7 note=69 velocity=64 time=0
EXTRACT: note_off channel=1 note=81 velocity=64 time=0.0555555
EXTRACT: note_on channel=1 note=81 velocity=37 time=0.0555555
EXTRACT: note_on channel=9 note=42 velocity=64 time=0
EXTRACT: note_on channel=7 note=78 velocity=23 time=0
EXTRACT: note_on channel=7 note=73 velocity=23 time=0
EXTRACT: note_on channel=7 note=69 velocity=23 time=0
EXTRACT: note_off channel=1 note=81 velocity=64 time=0.111111
EXTRACT: note_on channel=1 note=81 velocity=37 time=0.0555555
EXTRACT: note_off channel=9 note=42 velocity=64 time=0.0555555
EXTRACT: note_off channel=7 note=78 velocity=64 time=0
EXTRACT: note_off channel=7 note=73 velocity=64 time=0
EXTRACT: note_off channel=7 note=69 velocity=64 time=0
EXTRACT: note_off channel=1 note=81 velocity=64 time=0.0555555
EXTRACT: note_off channel=6 note=81 velocity=64 time=0.0555555
EXTRACT: note_off channel=6 note=85 velocity=64 time=0
EXTRACT: note_on channel=1 note=81 velocity=37 time=0
EXTRACT: note_on channel=9 note=42 velocity=64 time=0
EXTRACT: note_on channel=7 note=78 velocity=23 time=0
EXTRACT: note_on channel=7 note=69 velocity=23 time=0
EXTRACT: note_on channel=7 note=73 velocity=23 time=0
EXTRACT: note_off channel=1 note=81 velocity=64 time=0.111111
EXTRACT: note_on channel=1 note=81 velocity=37 time=0.0555555
EXTRACT: note_off channel=9 note=42 velocity=64 time=0.0555555
EXTRACT: note_off channel=7 note=78 velocity=64 time=0
EXTRACT: note_off channel=7 note=69 velocity=64 time=0
EXTRACT: note_off channel=7 note=73 velocity=64 time=0
EXTRACT: note_off channel=1 note=81 velocity=64 time=0.0555555
EXTRACT: note_on channel=6 note=80 velocity=64 time=0.0555555
EXTRACT: note_on channel=6 note=83 velocity=64 time=0
EXTRACT: note_on channel=0 note=88 velocity=67 time=0
EXTRACT: note_on channel=1 note=81 velocity=37 time=0
EXTRACT: note_on channel=9 note=42 velocity=64 time=0
EXTRACT: note_on channel=7 note=76 velocity=23 time=0
EXTRACT: note_on channel=7 note=71 velocity=23 time=0
EXTRACT: note_on channel=7 note=64 velocity=23 time=0
EXTRACT: note_off channel=6 note=80 velocity=64 time=0.111111
EXTRACT: note_off channel=6 note=83 velocity=64 time=0
EXTRACT: note_off channel=0 note=88 velocity=64 time=0
EXTRACT: note_off channel=1 note=81 velocity=64 time=0
EXTRACT: note_on channel=6 note=81 velocity=64 time=0.0555555
EXTRACT: note_on channel=6 note=85 velocity=64 time=0
EXTRACT: note_on channel=0 note=90 velocity=67 time=0
EXTRACT: note_on channel=1 note=81 velocity=37 time=0
EXTRACT: note_off channel=9 note=42 velocity=64 time=0.0555555
EXTRACT: note_off channel=7 note=76 velocity=64 time=0
EXTRACT: note_off channel=7 note=71 velocity=64 time=0
EXTRACT: note_off channel=7 note=64 velocity=64 time=0
EXTRACT: note_off channel=6 note=81 velocity=64 time=0.0555555
EXTRACT: note_off channel=6 note=85 velocity=64 time=0
EXTRACT: note_off channel=0 note=90 velocity=64 time=0
EXTRACT: note_off channel=0 note=90 velocity=64 time=0
EXTRACT: note_off channel=1 note=81 velocity=64 time=0
EXTRACT: note_on channel=6 note=80 velocity=64 time=0.0555555
EXTRACT: note_on channel=6 note=83 velocity=64 time=0
EXTRACT: note_on channel=0 note=88 velocity=67 time=0
EXTRACT: note_on channel=1 note=81 velocity=37 time=0
EXTRACT: note_on channel=9 note=42 velocity=64 time=0
EXTRACT: note_on channel=7 note=76 velocity=23 time=0
EXTRACT: note_on channel=7 note=71 velocity=23 time=0
EXTRACT: note_on channel=7 note=64 velocity=23 time=0
EXTRACT: note_off channel=6 note=80 velocity=64 time=0.111111
EXTRACT: note_off channel=6 note=83 velocity=64 time=0
EXTRACT: note_off channel=0 note=88 velocity=64 time=0
EXTRACT: note_off channel=1 note=81 velocity=64 time=0
EXTRACT: note_on channel=6 note=81 velocity=64 time=0.0555555
EXTRACT: note_on channel=6 note=85 velocity=64 time=0
EXTRACT: note_on channel=0 note=90 velocity=67 time=0
EXTRACT: note_on channel=1 note=81 velocity=37 time=0
EXTRACT: note_off channel=9 note=42 velocity=64 time=0.0555555
EXTRACT: note_off channel=7 note=76 velocity=64 time=0
EXTRACT: note_off channel=7 note=71 velocity=64 time=0
EXTRACT: note_off channel=7 note=64 velocity=64 time=0
EXTRACT: note_off channel=6 note=81 velocity=64 time=0.0555555
EXTRACT: note_off channel=6 note=85 velocity=64 time=0
EXTRACT: note_off channel=0 note=90 velocity=64 time=0
EXTRACT: note_off channel=1 note=81 velocity=64 time=0
EXTRACT: note_on channel=6 note=80 velocity=64 time=0.0555555
EXTRACT: note_on channel=6 note=83 velocity=64 time=0
EXTRACT: note_on channel=0 note=88 velocity=67 time=0
EXTRACT: note_on channel=1 note=81 velocity=37 time=0
EXTRACT: note_on channel=9 note=42 velocity=64 time=0
EXTRACT: note_on channel=7 note=76 velocity=23 time=0
EXTRACT: note_on channel=7 note=71 velocity=23 time=0
EXTRACT: note_on channel=7 note=64 velocity=23 time=0
EXTRACT: note_off channel=6 note=80 velocity=64 time=0.111111
EXTRACT: note_off channel=6 note=83 velocity=64 time=0
EXTRACT: note_off channel=0 note=88 velocity=64 time=0
EXTRACT: note_off channel=1 note=81 velocity=64 time=0
EXTRACT: note_on channel=6 note=81 velocity=64 time=0.0555555
EXTRACT: note_on channel=6 note=85 velocity=64 time=0
EXTRACT: note_on channel=0 note=90 velocity=67 time=0
EXTRACT: note_on channel=1 note=81 velocity=37 time=0
EXTRACT: note_off channel=9 note=42 velocity=64 time=0.0555555
EXTRACT: note_off channel=7 note=76 velocity=64 time=0
EXTRACT: note_off channel=7 note=71 velocity=64 time=0
EXTRACT: note_off channel=7 note=64 velocity=64 time=0
EXTRACT: note_off channel=6 note=81 velocity=64 time=0.0555555
EXTRACT: note_off channel=6 note=85 velocity=64 time=0
EXTRACT: note_off channel=0 note=90 velocity=64 time=0
EXTRACT: note_off channel=1 note=81 velocity=64 time=0
EXTRACT: note_on channel=6 note=80 velocity=64 time=0.0555555
EXTRACT: note_on channel=6 note=83 velocity=64 time=0
EXTRACT: note_on channel=0 note=88 velocity=67 time=0
EXTRACT: note_on channel=1 note=81 velocity=37 time=0
EXTRACT: note_on channel=9 note=42 velocity=64 time=0
EXTRACT: note_on channel=9 note=38 velocity=64 time=0
EXTRACT: note_on channel=7 note=76 velocity=23 time=0
EXTRACT: note_on channel=7 note=71 velocity=23 time=0
EXTRACT: note_on channel=7 note=64 velocity=23 time=0
EXTRACT: note_off channel=1 note=81 velocity=64 time=0.111111
EXTRACT: note_on channel=1 note=81 velocity=37 time=0.0555555
EXTRACT: note_off channel=6 note=80 velocity=64 time=0.0555555
EXTRACT: note_off channel=6 note=83 velocity=64 time=0
EXTRACT: note_off channel=9 note=42 velocity=64 time=0
EXTRACT: note_off channel=9 note=38 velocity=64 time=0
EXTRACT: note_off channel=7 note=76 velocity=64 time=0
EXTRACT: note_off channel=7 note=71 velocity=64 time=0
EXTRACT: note_off channel=7 note=64 velocity=64 time=0
EXTRACT: note_off channel=1 note=81 velocity=64 time=0.0555555
EXTRACT: note_on channel=6 note=76 velocity=64 time=0.0555555
EXTRACT: note_on channel=6 note=80 velocity=64 time=0
EXTRACT: note_on channel=1 note=81 velocity=37 time=0
EXTRACT: note_on channel=9 note=42 velocity=64 time=0
EXTRACT: note_on channel=7 note=76 velocity=23 time=0
EXTRACT: note_on channel=7 note=71 velocity=23 time=0
EXTRACT: note_on channel=7 note=64 velocity=23 time=0
EXTRACT: note_off channel=0 note=88 velocity=64 time=0.111111
EXTRACT: note_off channel=1 note=81 velocity=64 time=0
EXTRACT: note_on channel=1 note=81 velocity=37 time=0.0555555
EXTRACT: note_off channel=6 note=76 velocity=64 time=0.0555555
EXTRACT: note_off channel=6 note=80 velocity=64 time=0
EXTRACT: note_off channel=9 note=42 velocity=64 time=0
EXTRACT: note_off channel=7 note=76 velocity=64 time=0
EXTRACT: note_off channel=7 note=71 velocity=64 time=0
EXTRACT: note_off channel=7 note=64 velocity=64 time=0
EXTRACT: note_off channel=1 note=81 velocity=64 time=0.0555555
EXTRACT: note_on channel=6 note=76 velocity=64 time=0.0555555
EXTRACT: note_on channel=6 note=80 velocity=64 time=0
EXTRACT: note_on channel=0 note=85 velocity=67 time=0
EXTRACT: note_on channel=1 note=81 velocity=37 time=0
EXTRACT: note_on channel=9 note=42 velocity=64 time=0
EXTRACT: note_on channel=7 note=76 velocity=23 time=0
EXTRACT: note_on channel=7 note=71 velocity=23 time=0
EXTRACT: note_on channel=7 note=64 velocity=23 time=0
EXTRACT: note_off channel=1 note=81 velocity=64 time=0.111111
EXTRACT: note_on channel=1 note=81 velocity=37 time=0.0555555
EXTRACT: note_off channel=6 note=76 velocity=64 time=0.0555555
EXTRACT: note_off channel=6 note=80 velocity=64 time=0
EXTRACT: note_off channel=0 note=85 velocity=64 time=0
EXTRACT: note_off channel=9 note=42 velocity=64 time=0
EXTRACT: note_off channel=7 note=76 velocity=64 time=0
EXTRACT: note_off channel=7 note=71 velocity=64 time=0
EXTRACT: note_off channel=7 note=64 velocity=64 time=0
EXTRACT: note_off channel=1 note=81 velocity=64 time=0.0555555
EXTRACT: note_on channel=6 note=81 velocity=64 time=0
EXTRACT: note_on channel=6 note=78 velocity=64 time=0
EXTRACT: note_on channel=0 note=86 velocity=67 time=0
EXTRACT: note_on channel=1 note=81 velocity=37 time=0
EXTRACT: note_on channel=9 note=42 velocity=64 time=0
EXTRACT: note_on channel=9 note=49 velocity=64 time=0
EXTRACT: note_on channel=7 note=74 velocity=23 time=0
EXTRACT: note_on channel=7 note=69 velocity=23 time=0
EXTRACT: note_on channel=7 note=62 velocity=23 time=0
EXTRACT: note_off channel=1 note=81 velocity=64 time=0.111111
EXTRACT: note_on channel=1 note=81 velocity=37 time=0.0555555
EXTRACT: note_off channel=6 note=78 velocity=64 time=0.0555555
EXTRACT: note_off channel=9 note=42 velocity=64 time=0
EXTRACT: note_off channel=9 note=49 velocity=64 time=0
EXTRACT: note_off channel=7 note=74 velocity=64 time=0
EXTRACT: note_off channel=7 note=69 velocity=64 time=0
EXTRACT: note_off channel=7 note=62 velocity=64 time=0
EXTRACT: note_off channel=1 note=81 velocity=64 time=0.0555555
EXTRACT: note_on channel=6 note=79 velocity=64 time=0.0555555
EXTRACT: note_on channel=1 note=81 velocity=37 time=0
EXTRACT: note_on channel=9 note=42 velocity=64 time=0
EXTRACT: note_on channel=7 note=74 velocity=23 time=0
EXTRACT: note_on channel=7 note=69 velocity=23 time=0
EXTRACT: note_on channel=7 note=62 velocity=23 time=0
EXTRACT: note_off channel=1 note=81 velocity=64 time=0.111111
EXTRACT: note_on channel=1 note=81 velocity=37 time=0.0555555
EXTRACT: note_off channel=6 note=79 velocity=64 time=0.0555555
EXTRACT: note_off channel=9 note=42 velocity=64 time=0
EXTRACT: note_off channel=7 note=74 velocity=64 time=0
EXTRACT: note_off channel=7 note=69 velocity=64 time=0
EXTRACT: note_off channel=7 note=62 velocity=64 time=0
EXTRACT: note_off channel=1 note=81 velocity=64 time=0.0555555
EXTRACT: note_off channel=6 note=81 velocity=64 time=0.0555555
EXTRACT: note_on channel=6 note=80 velocity=64 time=0
EXTRACT: note_on channel=9 note=42 velocity=64 time=0
EXTRACT: note_on channel=7 note=74 velocity=23 time=0
EXTRACT: note_on channel=7 note=69 velocity=23 time=0
EXTRACT: note_on channel=7 note=62 velocity=23 time=0
EXTRACT: note_off channel=6 note=80 velocity=64 time=0.222222
EXTRACT: note_off channel=9 note=42 velocity=64 time=0
EXTRACT: note_off channel=7 note=74 velocity=64 time=0
EXTRACT: note_off channel=7 note=69 velocity=64 time=0
EXTRACT: note_off channel=7 note=62 velocity=64 time=0
EXTRACT: note_on channel=6 note=81 velocity=64 time=0.111111
EXTRACT: note_on channel=6 note=78 velocity=64 time=0
EXTRACT: note_on channel=9 note=42 velocity=64 time=0
EXTRACT: note_on channel=9 note=38 velocity=64 time=0
EXTRACT: note_on channel=7 note=74 velocity=23 time=0
EXTRACT: note_on channel=7 note=62 velocity=23 time=0
EXTRACT: note_on channel=7 note=69 velocity=23 time=0
EXTRACT: note_off channel=9 note=42 velocity=64 time=0.222222
EXTRACT: note_off channel=9 note=38 velocity=64 time=0
EXTRACT: note_off channel=7 note=74 velocity=64 time=0
EXTRACT: note_off channel=7 note=62 velocity=64 time=0
EXTRACT: note_off channel=7 note=69 velocity=64 time=0
EXTRACT: note_off channel=0 note=86 velocity=64 time=0.111111
EXTRACT: note_on channel=9 note=38 velocity=64 time=0
EXTRACT: note_on channel=7 note=74 velocity=23 time=0
EXTRACT: note_on channel=7 note=69 velocity=23 time=0
EXTRACT: note_on channel=7 note=62 velocity=23 time=0
EXTRACT: note_off channel=9 note=38 velocity=64 time=0.111111
EXTRACT: note_on channel=9 note=38 velocity=64 time=0.0555555
EXTRACT: note_on channel=9 note=42 velocity=64 time=0
EXTRACT: note_off channel=7 note=74 velocity=64 time=0.0555555
EXTRACT: note_off channel=7 note=69 velocity=64 time=0
EXTRACT: note_off channel=7 note=62 velocity=64 time=0
EXTRACT: note_off channel=9 note=38 velocity=64 time=0.0555555
EXTRACT: note_off channel=6 note=81 velocity=64 time=0.0555555
EXTRACT: note_off channel=6 note=78 velocity=64 time=0
EXTRACT: note_on channel=9 note=38 velocity=64 time=0
EXTRACT: note_on channel=7 note=74 velocity=23 time=0
EXTRACT: note_on channel=7 note=69 velocity=23 time=0
EXTRACT: note_on channel=7 note=62 velocity=23 time=0
EXTRACT: note_off channel=9 note=42 velocity=64 time=0.0555555
EXTRACT: note_off channel=9 note=38 velocity=64 time=0.0555555
EXTRACT: note_on channel=9 note=38 velocity=64 time=0.0555555
EXTRACT: note_on channel=9 note=47 velocity=64 time=0
EXTRACT: note_off channel=7 note=74 velocity=64 time=0.0555555
EXTRACT: note_off channel=7 note=69 velocity=64 time=0
EXTRACT: note_off channel=7 note=62 velocity=64 time=0
EXTRACT: note_off channel=9 note=38 velocity=64 time=0.0555555
EXTRACT: note_off channel=9 note=47 velocity=64 time=0
EXTRACT: note_on channel=6 note=86 velocity=61 time=0
EXTRACT: note_on channel=6 note=83 velocity=61 time=0
EXTRACT: note_on channel=1 note=69 velocity=37 time=0
EXTRACT: note_on channel=1 note=64 velocity=37 time=0
EXTRACT: note_on channel=1 note=57 velocity=37 time=0
EXTRACT: note_on channel=3 note=45 velocity=64 time=0
EXTRACT: note_on channel=2 note=76 velocity=15 time=0
EXTRACT: note_on channel=2 note=73 velocity=15 time=0
EXTRACT: note_on channel=2 note=69 velocity=15 time=0
EXTRACT: note_on channel=2 note=64 velocity=15 time=0
EXTRACT: note_on channel=9 note=42 velocity=64 time=0
EXTRACT: note_on channel=9 note=49 velocity=64 time=0
EXTRACT: note_off channel=9 note=42 velocity=64 time=0.222222
EXTRACT: note_off channel=9 note=49 velocity=64 time=0
EXTRACT: note_on channel=9 note=42 velocity=64 time=0.111111
EXTRACT: note_off channel=6 note=86 velocity=64 time=0.111111
EXTRACT: note_off channel=6 note=83 velocity=64 time=0
EXTRACT: note_off channel=9 note=42 velocity=64 time=0.111111
EXTRACT: note_on channel=6 note=81 velocity=61 time=0.111111
EXTRACT: note_on channel=6 note=85 velocity=61 time=0
EXTRACT: note_off channel=1 note=69 velocity=64 time=0
EXTRACT: note_off channel=1 note=64 velocity=64 time=0
EXTRACT: note_off channel=1 note=57 velocity=64 time=0
EXTRACT: note_on channel=9 note=42 velocity=64 time=0
EXTRACT: note_off channel=2 note=76 velocity=64 time=0.222222
EXTRACT: note_off channel=2 note=73 velocity=64 time=0
EXTRACT: note_off channel=2 note=69 velocity=64 time=0
EXTRACT: note_off channel=2 note=64 velocity=64 time=0
EXTRACT: note_off channel=9 note=42 velocity=64 time=0
EXTRACT: note_on channel=1 note=76 velocity=37 time=0.111111
EXTRACT: note_on channel=1 note=81 velocity=37 time=0
EXTRACT: note_on channel=9 note=42 velocity=64 time=0
EXTRACT: note_on channel=9 note=38 velocity=64 time=0
EXTRACT: note_on channel=7 note=76 velocity=32 time=0
EXTRACT: note_on channel=7 note=73 velocity=32 time=0
EXTRACT: note_on channel=7 note=81 velocity=32 time=0
EXTRACT: note_off channel=6 note=81 velocity=64 time=0.111111
EXTRACT: note_off channel=6 note=85 velocity=64 time=0
EXTRACT: note_off channel=9 note=42 velocity=64 time=0.111111
EXTRACT: note_off channel=9 note=38 velocity=64 time=0
EXTRACT: note_on channel=9 note=42 velocity=64 time=0.111111
EXTRACT: note_off channel=3 note=45 velocity=64 time=0.222222
EXTRACT: note_off channel=9 note=42 velocity=64 time=0
EXTRACT: note_on channel=3 note=45 velocity=64 time=0.111111
EXTRACT: note_on channel=9 note=42 velocity=64 time=0
EXTRACT: note_off channel=7 note=76 velocity=64 time=0
EXTRACT: note_off channel=7 note=73 velocity=64 time=0
EXTRACT: note_off channel=7 note=81 velocity=64 time=0
EXTRACT: note_off channel=1 note=76 velocity=64 time=0.222222
EXTRACT: note_off channel=1 note=81 velocity=64 time=0
EXTRACT: note_off channel=3 note=45 velocity=64 time=0
EXTRACT: note_off channel=9 note=42 velocity=64 time=0
EXTRACT: note_on channel=6 note=80 velocity=61 time=0.111111
EXTRACT: note_on channel=6 note=83 velocity=61 time=0
EXTRACT: note_on channel=3 note=42 velocity=64 time=0
EXTRACT: note_on channel=2 note=78 velocity=15 time=0
EXTRACT: note_on channel=2 note=73 velocity=15 time=0
EXTRACT: note_on channel=2 note=69 velocity=15 time=0
EXTRACT: note_on channel=9 note=42 velocity=64 time=0
EXTRACT: note_off channel=9 note=42 velocity=64 time=0.222222
EXTRACT: note_on channel=9 note=42 velocity=64 time=0.111111
EXTRACT: note_off channel=6 note=80 velocity=64 time=0.111111
EXTRACT: note_off channel=6 note=83 velocity=64 time=0
EXTRACT: note_off channel=9 note=42 velocity=64 time=0.111111
EXTRACT: note_on channel=6 note=78 velocity=61 time=0.111111
EXTRACT: note_on channel=6 note=81 velocity=61 time=0
EXTRACT: note_on channel=9 note=42 velocity=64 time=0
EXTRACT: note_off channel=2 note=78 velocity=64 time=0.222222
EXTRACT: note_off channel=2 note=73 velocity=64 time=0
EXTRACT: note_off channel=2 note=69 velocity=64 time=0
EXTRACT: note_off channel=9 note=42 velocity=64 time=0
EXTRACT: note_on channel=1 note=78 velocity=37 time=0.111111
EXTRACT: note_on channel=1 note=73 velocity=37 time=0
EXTRACT: note_on channel=1 note=69 velocity=37 time=0
EXTRACT: note_on channel=9 note=42 velocity=64 time=0
EXTRACT: note_on channel=9 note=38 velocity=64 time=0
EXTRACT: note_on channel=7 note=78 velocity=32 time=0
EXTRACT: note_on channel=7 note=73 velocity=32 time=0
EXTRACT: note_on channel=7 note=69 velocity=32 time=0
EXTRACT: note_off channel=6 note=78 velocity=64 time=0.111111
EXTRACT: note_off channel=6 note=81 velocity=64 time=0
EXTRACT: note_off channel=9 note=42 velocity=64 time=0.111111
EXTRACT: note_off channel=9 note=38 velocity=64 time=0
EXTRACT: note_off channel=3 note=42 velocity=64 time=0.111111
EXTRACT: note_on channel=9 note=42 velocity=64 time=0
EXTRACT: note_off channel=9 note=42 velocity=64 time=0.222222
EXTRACT: note_off channel=1 note=78 velocity=64 time=0.111111
EXTRACT: note_off channel=1 note=73 velocity=64 time=0
EXTRACT: note_off channel=1 note=69 velocity=64 time=0
EXTRACT: note_on channel=3 note=42 velocity=64 time=0
EXTRACT: note_on channel=9 note=42 velocity=64 time=0
EXTRACT: note_off channel=7 note=78 velocity=64 time=0
EXTRACT: note_off channel=7 note=73 velocity=64 time=0
EXTRACT: note_off channel=7 note=69 velocity=64 time=0
EXTRACT: note_off channel=3 note=42 velocity=64 time=0.222222
EXTRACT: note_off channel=9 note=42 velocity=64 time=0
EXTRACT: note_on channel=6 note=76 velocity=61 time=0.111111
EXTRACT: note_on channel=6 note=80 velocity=61 time=0
EXTRACT: note_on channel=3 note=38 velocity=64 time=0
EXTRACT: note_on channel=2 note=78 velocity=15 time=0
EXTRACT: note_on channel=2 note=74 velocity=15 time=0
EXTRACT: note_on channel=2 note=69 velocity=15 time=0
EXTRACT: note_on channel=2 note=62 velocity=15 time=0
EXTRACT: note_on channel=9 note=42 velocity=64 time=0
EXTRACT: note_off channel=6 note=76 velocity=64 time=0.222222
EXTRACT: note_off channel=6 note=80 velocity=64 time=0
EXTRACT: note_off channel=9 note=42 velocity=64 time=0
EXTRACT: note_on channel=6 note=78 velocity=61 time=0.111111
EXTRACT: note_on channel=6 note=74 velocity=61 time=0
EXTRACT: note_on channel=9 note=42 velocity=64 time=0
EXTRACT: note_off channel=9 note=42 velocity=64 time=0.222222
EXTRACT: note_on channel=9 note=42 velocity=64 time=0.111111
EXTRACT: note_off channel=6 note=78 velocity=64 time=0.111111
EXTRACT: note_off channel=6 note=74 velocity=64 time=0
EXTRACT: note_off channel=2 note=78 velocity=64 time=0.111111
EXTRACT: note_off channel=2 note=74 velocity=64 time=0
EXTRACT: note_off channel=2 note=69 velocity=64 time=0
EXTRACT: note_off channel=2 note=62 velocity=64 time=0
EXTRACT: note_off channel=9 note=42 velocity=64 time=0
EXTRACT: note_on channel=1 note=74 velocity=37 time=0.111111
EXTRACT: note_on channel=1 note=69 velocity=37 time=0
EXTRACT: note_on channel=1 note=62 velocity=37 time=0
EXTRACT: note_on channel=9 note=42 velocity=64 time=0
EXTRACT: note_on channel=9 note=38 velocity=64 time=0
EXTRACT: note_on channel=7 note=78 velocity=32 time=0
EXTRACT: note_on channel=7 note=74 velocity=32 time=0
EXTRACT: note_on channel=7 note=69 velocity=32 time=0
EXTRACT: note_off channel=9 note=42 velocity=64 time=0.222222
EXTRACT: note_off channel=9 note=38 velocity=64 time=0
EXTRACT: note_on channel=6 note=76 velocity=61 time=0.111111
EXTRACT: note_on channel=6 note=80 velocity=61 time=0
EXTRACT: note_off channel=3 note=38 velocity=64 time=0
EXTRACT: note_on channel=9 note=42 velocity=64 time=0
EXTRACT: note_off channel=6 note=76 velocity=64 time=0.222222
EXTRACT: note_off channel=6 note=80 velocity=64 time=0
EXTRACT: note_off channel=9 note=42 velocity=64 time=0
EXTRACT: note_on channel=6 note=74 velocity=61 time=0.111111
EXTRACT: note_on channel=6 note=78 velocity=61 time=0
EXTRACT: note_off channel=1 note=74 velocity=64 time=0
EXTRACT: note_off channel=1 note=69 velocity=64 time=0
EXTRACT: note_off channel=1 note=62 velocity=64 time=0
EXTRACT: note_on channel=3 note=38 velocity=64 time=0
EXTRACT: note_on channel=9 note=42 velocity=64 time=0
EXTRACT: note_off channel=7 note=78 velocity=64 time=0
EXTRACT: note_off channel=7 note=74 velocity=64 time=0
EXTRACT: note_off channel=7 note=69 velocity=64 time=0
EXTRACT: note_off channel=6 note=74 velocity=64 time=0.222222
EXTRACT: note_off channel=6 note=78 velocity=64 time=0
EXTRACT: note_off channel=3 note=38 velocity=64 time=0
EXTRACT: note_off channel=9 note=42 velocity=64 time=0
EXTRACT: note_on channel=6 note=77 velocity=61 time=0.111111
EXTRACT: note_on channel=6 note=73 velocity=61 time=0
EXTRACT: note_on channel=3 note=38 velocity=64 time=0
EXTRACT: note_on channel=2 note=77 velocity=15 time=0
EXTRACT: note_on channel=2 note=74 velocity=15 time=0
EXTRACT: note_on channel=2 note=69 velocity=15 time=0
EXTRACT: note_on channel=2 note=62 velocity=15 time=0
EXTRACT: note_on channel=9 note=42 velocity=64 time=0
EXTRACT: note_on channel=7 note=74 velocity=32 time=0
EXTRACT: note_on channel=7 note=77 velocity=32 time=0
EXTRACT: note_on channel=7 note=81 velocity=32 time=0
EXTRACT: note_off channel=6 note=73 velocity=64 time=0.222222
EXTRACT: note_off channel=9 note=42 velocity=64 time=0
EXTRACT: note_on channel=6 note=74 velocity=61 time=0.111111
EXTRACT: note_on channel=9 note=42 velocity=64 time=0
EXTRACT: note_off channel=6 note=74 velocity=64 time=0.111111
EXTRACT: note_on channel=6 note=73 velocity=61 time=0.0555555
EXTRACT: note_off channel=9 note=42 velocity=64 time=0.0555555
EXTRACT: note_off channel=6 note=77 velocity=64 time=0.111111
EXTRACT: note_on channel=9 note=42 velocity=64 time=0
EXTRACT: note_off channel=7 note=74 velocity=64 time=0
EXTRACT: note_off channel=7 note=77 velocity=64 time=0
EXTRACT: note_off channel=7 note=81 velocity=64 time=0
EXTRACT: note_off channel=6 note=73 velocity=64 time=0.0555555
EXTRACT: note_on channel=6 note=73 velocity=61 time=0.111111
EXTRACT: note_on channel=1 note=76 velocity=37 time=0
EXTRACT: note_on channel=9 note=38 velocity=64 time=0
EXTRACT: note_off channel=2 note=62 velocity=64 time=0.0555555
EXTRACT: note_off channel=9 note=42 velocity=64 time=0
EXTRACT: note_off channel=6 note=73 velocity=64 time=0.0555555
EXTRACT: note_off channel=1 note=76 velocity=64 time=0
EXTRACT: note_off channel=9 note=38 velocity=64 time=0
EXTRACT: note_on channel=6 note=77 velocity=61 time=0.0555555
EXTRACT: note_on channel=6 note=71 velocity=61 time=0
EXTRACT: note_on channel=1 note=74 velocity=37 time=0
EXTRACT: note_on channel=1 note=77 velocity=37 time=0
EXTRACT: note_on channel=1 note=81 velocity=37 time=0
EXTRACT: note_on channel=9 note=42 velocity=64 time=0
EXTRACT: note_on channel=9 note=38 velocity=64 time=0
EXTRACT: note_on channel=7 note=74 velocity=32 time=0
EXTRACT: note_on channel=7 note=77 velocity=32 time=0
EXTRACT: note_on channel=7 note=81 velocity=32 time=0
EXTRACT: note_off channel=2 note=77 velocity=64 time=0.111111
EXTRACT: note_off channel=2 note=74 velocity=64 time=0
EXTRACT: note_off channel=2 note=69 velocity=64 time=0
EXTRACT: note_on channel=1 note=76 velocity=37 time=0.0555555
EXTRACT: note_off channel=6 note=71 velocity=64 time=0.0555555
EXTRACT: note_off channel=1 note=74 velocity=64 time=0
EXTRACT: note_off channel=1 note=77 velocity=64 time=0
EXTRACT: note_off channel=1 note=81 velocity=64 time=0
EXTRACT: note_off channel=9 note=42 velocity=64 time=0
EXTRACT: note_off channel=9 note=38 velocity=64 time=0
EXTRACT: note_off channel=1 note=76 velocity=64 time=0.0555555
EXTRACT: note_on channel=6 note=69 velocity=61 time=0.0555555
EXTRACT: note_on channel=1 note=74 velocity=37 time=0
EXTRACT: note_on channel=1 note=81 velocity=37 time=0
EXTRACT: note_on channel=1 note=77 velocity=37 time=0
EXTRACT: note_off channel=3 note=38 velocity=64 time=0
EXTRACT: note_on channel=9 note=42 velocity=64 time=0
EXTRACT: note_on channel=9 note=38 velocity=64 time=0
EXTRACT: note_off channel=1 note=77 velocity=64 time=0.111111
EXTRACT: note_on channel=1 note=76 velocity=37 time=0.0555555
EXTRACT: note_off channel=6 note=69 velocity=64 time=0.0555555
EXTRACT: note_off channel=1 note=74 velocity=64 time=0
EXTRACT: note_off channel=1 note=81 velocity=64 time=0
EXTRACT: note_off channel=9 note=42 velocity=64 time=0
EXTRACT: note_off channel=9 note=38 velocity=64 time=0
EXTRACT: note_off channel=1 note=76 velocity=64 time=0.0555555
EXTRACT: note_off channel=6 note=77 velocity=64 time=0.0555555
EXTRACT: note_on channel=1 note=74 velocity=37 time=0
EXTRACT: note_on channel=1 note=81 velocity=37 time=0
EXTRACT: note_on channel=1 note=77 velocity=37 time=0
EXTRACT: note_on channel=3 note=38 velocity=64 time=0
EXTRACT: note_on channel=9 note=42 velocity=64 time=0
EXTRACT: note_on channel=9 note=38 velocity=64 time=0
EXTRACT: note_off channel=7 note=74 velocity=64 time=0
EXTRACT: note_off channel=7 note=77 velocity=64 time=0
EXTRACT: note_off channel=7 note=81 velocity=64 time=0
EXTRACT: note_off channel=1 note=77 velocity=64 time=0.111111
EXTRACT: note_off channel=1 note=74 velocity=64 time=0.111111
EXTRACT: note_off channel=1 note=81 velocity=64 time=0
EXTRACT: note_off channel=3 note=38 velocity=64 time=0
EXTRACT: note_off channel=9 note=42 velocity=64 time=0
EXTRACT: note_off channel=9 note=38 velocity=64 time=0
EXTRACT: note_on channel=3 note=45 velocity=64 time=0.111111
EXTRACT: note_on channel=2 note=76 velocity=15 time=0
EXTRACT: note_on channel=2 note=73 velocity=15 time=0
EXTRACT: note_on channel=2 note=69 velocity=15 time=0
EXTRACT: note_on channel=2 note=64 velocity=15 time=0
EXTRACT: note_on channel=9 note=42 velocity=64 time=0
EXTRACT: note_on channel=9 note=49 velocity=64 time=0
EXTRACT: note_off channel=9 note=42 velocity=64 time=0.222222
EXTRACT: note_off channel=9 note=49 velocity=64 time=0
EXTRACT: note_on channel=9 note=42 velocity=64 time=0.111111
EXTRACT: note_off channel=9 note=42 velocity=64 time=0.222222
EXTRACT: note_on channel=9 note=42 velocity=64 time=0.111111
EXTRACT: note_off channel=2 note=76 velocity=64 time=0.222222
EXTRACT: note_off channel=2 note=73 velocity=64 time=0
EXTRACT: note_off channel=2 note=69 velocity=64 time=0
EXTRACT: note_off channel=2 note=64 velocity=64 time=0
EXTRACT: note_off channel=9 note=42 velocity=64 time=0
EXTRACT: note_on channel=6 note=73 velocity=61 time=0.111111
EXTRACT: note_on channel=1 note=81 velocity=37 time=0
EXTRACT: note_on channel=1 note=76 velocity=37 time=0
EXTRACT: note_on channel=1 note=73 velocity=37 time=0
EXTRACT: note_on channel=9 note=42 velocity=64 time=0
EXTRACT: note_on channel=9 note=38 velocity=64 time=0
EXTRACT: note_on channel=7 note=81 velocity=32 time=0
EXTRACT: note_on channel=7 note=76 velocity=32 time=0
EXTRACT: note_on channel=7 note=73 velocity=32 time=0
EXTRACT: note_off channel=6 note=73 velocity=64 time=0.222222
EXTRACT: note_off channel=9 note=42 velocity=64 time=0
EXTRACT: note_off channel=9 note=38 velocity=64 time=0
EXTRACT: note_on channel=6 note=76 velocity=61 time=0.111111
EXTRACT: note_on channel=9 note=42 velocity=64 time=0
EXTRACT: note_off channel=6 note=76 velocity=64 time=0.222222
EXTRACT: note_off channel=3 note=45 velocity=64 time=0
EXTRACT: note_off channel=9 note=42 velocity=64 time=0
EXTRACT: note_on channel=6 note=80 velocity=61 time=0.111111
EXTRACT: note_off channel=1 note=81 velocity=64 time=0
EXTRACT: note_off channel=1 note=76 velocity=64 time=0
EXTRACT: note_off channel=1 note=73 velocity=64 time=0
EXTRACT: note_on channel=3 note=45 velocity=64 time=0
EXTRACT: note_on channel=9 note=42 velocity=64 time=0
EXTRACT: note_off channel=7 note=81 velocity=64 time=0
EXTRACT: note_off channel=7 note=76 velocity=64 time=0
EXTRACT: note_off channel=7 note=73 velocity=64 time=0
EXTRACT: note_off channel=6 note=80 velocity=64 time=0.222222
EXTRACT: note_off channel=3 note=45 velocity=64 time=0
EXTRACT: note_off channel=9 note=42 velocity=64 time=0
EXTRACT: note_on channel=6 note=80 velocity=61 time=0.111111
EXTRACT: note_on channel=6 note=81 velocity=61 time=0
EXTRACT: note_on channel=3 note=42 velocity=64 time=0
EXTRACT: note_on channel=2 note=78 velocity=15 time=0
EXTRACT: note_on channel=2 note=73 velocity=15 time=0
EXTRACT: note_on channel=2 note=69 velocity=15 time=0
EXTRACT: note_on channel=9 note=42 velocity=64 time=0
EXTRACT: note_off channel=6 note=80 velocity=64 time=0.111111
EXTRACT: note_off channel=9 note=42 velocity=64 time=0.111111
EXTRACT: note_on channel=9 note=42 velocity=64 time=0.111111
EXTRACT: note_off channel=9 note=42 velocity=64 time=0.222222
EXTRACT: note_off channel=6 note=81 velocity=64 time=0.111111
EXTRACT: note_on channel=9 note=42 velocity=64 time=0
EXTRACT: note_off channel=2 note=78 velocity=64 time=0.222222
EXTRACT: note_off channel=2 note=73 velocity=64 time=0
EXTRACT: note_off channel=2 note=69 velocity=64 time=0
EXTRACT: note_off channel=9 note=42 velocity=64 time=0
EXTRACT: note_on channel=1 note=78 velocity=37 time=0.111111
EXTRACT: note_on channel=1 note=73 velocity=37 time=0
EXTRACT: note_on channel=1 note=69 velocity=37 time=0
EXTRACT: note_on channel=9 note=42 velocity=64 time=0
EXTRACT: note_on channel=9 note=38 velocity=64 time=0
EXTRACT: note_on channel=7 note=78 velocity=23 time=0
EXTRACT: note_on channel=7 note=73 velocity=23 time=0
EXTRACT: note_on channel=7 note=69 velocity=23 time=0
EXTRACT: note_off channel=9 note=42 velocity=64 time=0.222222
EXTRACT: note_off channel=9 note=38 velocity=64 time=0
EXTRACT: note_on channel=6 note=78 velocity=61 time=0.111111
EXTRACT: note_off channel=3 note=42 velocity=64 time=0
EXTRACT: note_on channel=9 note=42 velocity=64 time=0
EXTRACT: note_off channel=6 note=78 velocity=64 time=0.222222
EXTRACT: note_off channel=9 note=42 velocity=64 time=0
EXTRACT: note_on channel=6 note=81 velocity=61 time=0.111111
EXTRACT: note_off channel=1 note=78 velocity=64 time=0
EXTRACT: note_off channel=1 note=73 velocity=64 time=0
EXTRACT: note_off channel=1 note=69 velocity=64 time=0
EXTRACT: note_on channel=3 note=42 velocity=64 time=0
EXTRACT: note_on channel=9 note=42 velocity=64 time=0
EXTRACT: note_off channel=7 note=78 velocity=64 time=0
EXTRACT: note_off channel=7 note=73 velocity=64 time=0
EXTRACT: note_off channel=7 note=69 velocity=64 time=0
EXTRACT: note_off channel=6 note=81 velocity=64 time=0.222222
EXTRACT: note_off channel=3 note=42 velocity=64 time=0
EXTRACT: note_off channel=9 note=42 velocity=64 time=0
EXTRACT: note_on channel=6 note=81 velocity=61 time=0.111111
EXTRACT: note_on channel=6 note=83 velocity=61 time=0
EXTRACT: note_on channel=0 note=74 velocity=49 time=0
EXTRACT: note_on channel=0 note=69 velocity=49 time=0
EXTRACT: note_on channel=0 note=62 velocity=49 time=0
EXTRACT: note_on channel=3 note=38 velocity=64 time=0
EXTRACT: note_on channel=2 note=78 velocity=15 time=0
EXTRACT: note_on channel=2 note=74 velocity=15 time=0
EXTRACT: note_on channel=2 note=69 velocity=15 time=0
EXTRACT: note_on channel=2 note=62 velocity=15 time=0
EXTRACT: note_on channel=9 note=42 velocity=64 time=0
EXTRACT: note_off channel=6 note=81 velocity=64 time=0.111111
EXTRACT: note_off channel=0 note=74 velocity=64 time=0.111111
EXTRACT: note_off channel=0 note=69 velocity=64 time=0
EXTRACT: note_off channel=0 note=62 velocity=64 time=0
EXTRACT: note_off channel=9 note=42 velocity=64 time=0
EXTRACT: note_off channel=6 note=83 velocity=64 time=0.111111
EXTRACT: note_on channel=0 note=74 velocity=49 time=0
EXTRACT: note_on channel=0 note=69 velocity=49 time=0
EXTRACT: note_on channel=0 note=62 velocity=49 time=0
EXTRACT: note_on channel=9 note=42 velocity=64 time=0
EXTRACT: note_off channel=0 note=74 velocity=64 time=0.111111
EXTRACT: note_off channel=0 note=69 velocity=64 time=0
EXTRACT: note_off channel=0 note=62 velocity=64 time=0
EXTRACT: note_on channel=6 note=81 velocity=61 time=0.0555555
EXTRACT: note_on channel=0 note=74 velocity=49 time=0
EXTRACT: note_on channel=0 note=69 velocity=49 time=0
EXTRACT: note_on channel=0 note=62 velocity=49 time=0
EXTRACT: note_off channel=9 note=42 velocity=64 time=0.0555555
EXTRACT: note_off channel=0 note=74 velocity=64 time=0.0555555
EXTRACT: note_off channel=0 note=69 velocity=64 time=0
EXTRACT: note_off channel=0 note=62 velocity=64 time=0
EXTRACT: note_off channel=6 note=81 velocity=64 time=0.0555555
EXTRACT: note_on channel=0 note=74 velocity=49 time=0
EXTRACT: note_on channel=0 note=69 velocity=49 time=0
EXTRACT: note_on channel=0 note=62 velocity=49 time=0
EXTRACT: note_on channel=9 note=42 velocity=64 time=0
EXTRACT: note_off channel=0 note=74 velocity=64 time=0.111111
EXTRACT: note_off channel=0 note=69 velocity=64 time=0
EXTRACT: note_off channel=0 note=62 velocity=64 time=0
EXTRACT: note_on channel=0 note=74 velocity=49 time=0.0555555
EXTRACT: note_on channel=0 note=69 velocity=49 time=0
EXTRACT: note_on channel=0 note=62 velocity=49 time=0
EXTRACT: note_off channel=2 note=78 velocity=64 time=0.0555555
EXTRACT: note_off channel=2 note=74 velocity=64 time=0
EXTRACT: note_off channel=2 note=69 velocity=64 time=0
EXTRACT: note_off channel=2 note=62 velocity=64 time=0
EXTRACT: note_off channel=9 note=42 velocity=64 time=0
EXTRACT: note_off channel=0 note=74 velocity=64 time=0.0555555
EXTRACT: note_off channel=0 note=69 velocity=64 time=0
EXTRACT: note_off channel=0 note=62 velocity=64 time=0
EXTRACT: note_on channel=0 note=74 velocity=49 time=0.0555555
EXTRACT: note_on channel=0 note=69 velocity=49 time=0
EXTRACT: note_on channel=0 note=62 velocity=49 time=0
EXTRACT: note_on channel=1 note=74 velocity=37 time=0
EXTRACT: note_on channel=1 note=69 velocity=37 time=0
EXTRACT: note_on channel=1 note=62 velocity=37 time=0
EXTRACT: note_on channel=9 note=42 velocity=64 time=0
EXTRACT: note_on channel=9 note=38 velocity=64 time=0
EXTRACT: note_on channel=7 note=74 velocity=23 time=0
EXTRACT: note_on channel=7 note=69 velocity=23 time=0
EXTRACT: note_on channel=7 note=62 velocity=23 time=0
EXTRACT: note_off channel=0 note=74 velocity=64 time=0.222222
EXTRACT: note_off channel=0 note=69 velocity=64 time=0
EXTRACT: note_off channel=0 note=62 velocity=64 time=0
EXTRACT: note_off channel=9 note=42 velocity=64 time=0
EXTRACT: note_off channel=9 note=38 velocity=64 time=0
EXTRACT: note_on channel=6 note=81 velocity=61 time=0.111111
EXTRACT: note_on channel=0 note=74 velocity=49 time=0
EXTRACT: note_on channel=0 note=69 velocity=49 time=0
EXTRACT: note_on channel=0 note=62 velocity=49 time=0
EXTRACT: note_off channel=3 note=38 velocity=64 time=0
EXTRACT: note_on channel=9 note=42 velocity=64 time=0
EXTRACT: note_off channel=0 note=74 velocity=64 time=0.111111
EXTRACT: note_off channel=0 note=69 velocity=64 time=0
EXTRACT: note_off channel=0 note=62 velocity=64 time=0
EXTRACT: note_on channel=0 note=74 velocity=49 time=0.0555555
EXTRACT: note_on channel=0 note=69 velocity=49 time=0
EXTRACT: note_on channel=0 note=62 velocity=49 time=0
EXTRACT: note_off channel=6 note=81 velocity=64 time=0.0555555
EXTRACT: note_off channel=9 note=42 velocity=64 time=0
EXTRACT: note_off channel=0 note=74 velocity=64 time=0.0555555
EXTRACT: note_off channel=0 note=69 velocity=64 time=0
EXTRACT: note_off channel=0 note=62 velocity=64 time=0
EXTRACT: note_on channel=6 note=83 velocity=61 time=0.0555555
EXTRACT: note_on channel=0 note=74 velocity=49 time=0
EXTRACT: note_on channel=0 note=69 velocity=49 time=0
EXTRACT: note_on channel=0 note=62 velocity=49 time=0
EXTRACT: note_off channel=1 note=74 velocity=64 time=0
EXTRACT: note_off channel=1 note=69 velocity=64 time=0
EXTRACT: note_off channel=1 note=62 velocity=64 time=0
EXTRACT: note_on channel=3 note=38 velocity=64 time=0
EXTRACT: note_on channel=9 note=42 velocity=64 time=0
EXTRACT: note_off channel=7 note=74 velocity=64 time=0
EXTRACT: note_off channel=7 note=69 velocity=64 time=0
EXTRACT: note_off channel=7 note=62 velocity=64 time=0
EXTRACT: note_off channel=0 note=74 velocity=64 time=0.111111
EXTRACT: note_off channel=0 note=69 velocity=64 time=0
EXTRACT: note_off channel=0 note=62 velocity=64 time=0
EXTRACT: note_on channel=0 note=74 velocity=49 time=0.0555555
EXTRACT: note_on channel=0 note=69 velocity=49 time=0
EXTRACT: note_on channel=0 note=62 velocity=49 time=0
EXTRACT: note_off channel=6 note=83 velocity=64 time=0.0555555
EXTRACT: note_off channel=3 note=38 velocity=64 time=0
EXTRACT: note_off channel=9 note=42 velocity=64 time=0
EXTRACT: note_off channel=0 note=74 velocity=64 time=0.0555555
EXTRACT: note_off channel=0 note=69 velocity=64 time=0
EXTRACT: note_off channel=0 note=62 velocity=64 time=0
EXTRACT: note_on channel=6 note=83 velocity=61 time=0.0555555
EXTRACT: note_on channel=6 note=85 velocity=61 time=0
EXTRACT: note_on channel=0 note=76 velocity=49 time=0
EXTRACT: note_on channel=0 note=71 velocity=49 time=0
EXTRACT: note_on channel=0 note=64 velocity=49 time=0
EXTRACT: note_on channel=1 note=76 velocity=37 time=0
EXTRACT: note_on channel=1 note=71 velocity=37 time=0
EXTRACT: note_on channel=1 note=64 velocity=37 time=0
EXTRACT: note_on channel=3 note=45 velocity=64 time=0
EXTRACT: note_on channel=2 note=76 velocity=15 time=0
EXTRACT: note_on channel=2 note=73 velocity=15 time=0
EXTRACT: note_on channel=2 note=69 velocity=15 time=0
EXTRACT: note_on channel=2 note=64 velocity=15 time=0
EXTRACT: note_on channel=9 note=42 velocity=64 time=0
EXTRACT: note_on channel=7 note=60 velocity=23 time=0
EXTRACT: note_off channel=6 note=83 velocity=64 time=0.111111
EXTRACT: note_off channel=0 note=76 velocity=64 time=0.111111
EXTRACT: note_off channel=0 note=71 velocity=64 time=0
EXTRACT: note_off channel=0 note=64 velocity=64 time=0
EXTRACT: note_off channel=1 note=76 velocity=64 time=0
EXTRACT: note_off channel=1 note=71 velocity=64 time=0
EXTRACT: note_off channel=1 note=64 velocity=64 time=0
EXTRACT: note_off channel=9 note=42 velocity=64 time=0
EXTRACT: note_off channel=7 note=60 velocity=64 time=0
EXTRACT: note_on channel=0 note=76 velocity=49 time=0.111111
EXTRACT: note_on channel=0 note=71 velocity=49 time=0
EXTRACT: note_on channel=0 note=64 velocity=49 time=0
EXTRACT: note_on channel=1 note=76 velocity=37 time=0
EXTRACT: note_on channel=1 note=71 velocity=37 time=0
EXTRACT: note_on channel=1 note=64 velocity=37 time=0
EXTRACT: note_on channel=9 note=42 velocity=64 time=0
EXTRACT: note_on channel=7 note=60 velocity=23 time=0
EXTRACT: note_off channel=6 note=85 velocity=64 time=0.111111
EXTRACT: note_off channel=0 note=76 velocity=64 time=0
EXTRACT: note_off channel=0 note=71 velocity=64 time=0
EXTRACT: note_off channel=0 note=64 velocity=64 time=0
EXTRACT: note_on channel=0 note=76 velocity=49 time=0.0555555
EXTRACT: note_on channel=0 note=71 velocity=49 time=0
EXTRACT: note_on channel=0 note=64 velocity=49 time=0
EXTRACT: note_off channel=1 note=76 velocity=64 time=0.0555555
EXTRACT: note_off channel=1 note=71 velocity=64 time=0
EXTRACT: note_off channel=1 note=64 velocity=64 time=0
EXTRACT: note_off channel=9 note=42 velocity=64 time=0
EXTRACT: note_off channel=7 note=60 velocity=64 time=0
EXTRACT: note_off channel=0 note=76 velocity=64 time=0.0555555
EXTRACT: note_off channel=0 note=71 velocity=64 time=0
EXTRACT: note_off channel=0 note=64 velocity=64 time=0
EXTRACT: note_on channel=6 note=86 velocity=61 time=0.0555555
EXTRACT: note_on channel=0 note=76 velocity=49 time=0
EXTRACT: note_on channel=0 note=71 velocity=49 time=0
EXTRACT: note_on channel=0 note=64 velocity=49 time=0
EXTRACT: note_on channel=1 note=76 velocity=37 time=0
EXTRACT: note_on channel=1 note=71 velocity=37 time=0
EXTRACT: note_on channel=1 note=64 velocity=37 time=0
EXTRACT: note_on channel=9 note=42 velocity=64 time=0
EXTRACT: note_on channel=7 note=59 velocity=23 time=0
EXTRACT: note_off channel=6 note=86 velocity=64 time=0.111111
EXTRACT: note_off channel=0 note=76 velocity=64 time=0
EXTRACT: note_off channel=0 note=71 velocity=64 time=0
EXTRACT: note_off channel=0 note=64 velocity=64 time=0
EXTRACT: note_on channel=6 note=85 velocity=61 time=0.0555555
EXTRACT: note_on channel=0 note=76 velocity=49 time=0
EXTRACT: note_on channel=0 note=71 velocity=49 time=0
EXTRACT: note_on channel=0 note=64 velocity=49 time=0
EXTRACT: note_on channel=9 note=38 velocity=64 time=0
EXTRACT: note_off channel=1 note=76 velocity=64 time=0.0555555
EXTRACT: note_off channel=1 note=71 velocity=64 time=0
EXTRACT: note_off channel=1 note=64 velocity=64 time=0
EXTRACT: note_off channel=2 note=76 velocity=64 time=0
EXTRACT: note_off channel=2 note=73 velocity=64 time=0
EXTRACT: note_off channel=2 note=69 velocity=64 time=0
EXTRACT: note_off channel=2 note=64 velocity=64 time=0
EXTRACT: note_off channel=9 note=42 velocity=64 time=0
EXTRACT: note_off channel=7 note=59 velocity=64 time=0
EXTRACT: note_off channel=6 note=85 velocity=64 time=0.0555555
EXTRACT: note_off channel=0 note=76 velocity=64 time=0
EXTRACT: note_off channel=0 note=71 velocity=64 time=0
EXTRACT: note_off channel=0 note=64 velocity=64 time=0
EXTRACT: note_off channel=9 note=38 velocity=64 time=0
EXTRACT: note_on channel=6 note=83 velocity=61 time=0.0555555
EXTRACT: note_on channel=0 note=76 velocity=49 time=0
EXTRACT: note_on channel=0 note=71 velocity=49 time=0
EXTRACT: note_on channel=0 note=64 velocity=49 time=0
EXTRACT: note_on channel=1 note=80 velocity=37 time=0
EXTRACT: note_on channel=9 note=42 velocity=64 time=0
EXTRACT: note_on channel=9 note=38 velocity=64 time=0
EXTRACT: note_on channel=7 note=59 velocity=23 time=0
EXTRACT: note_off channel=0 note=76 velocity=64 time=0.222222
EXTRACT: note_off channel=0 note=71 velocity=64 time=0
EXTRACT: note_off channel=0 note=64 velocity=64 time=0
EXTRACT: note_off channel=1 note=80 velocity=64 time=0
EXTRACT: note_off channel=9 note=42 velocity=64 time=0
EXTRACT: note_off channel=9 note=38 velocity=64 time=0
EXTRACT: note_off channel=7 note=59 velocity=64 time=0
EXTRACT: note_on channel=0 note=76 velocity=49 time=0.111111
EXTRACT: note_on channel=0 note=71 velocity=49 time=0
EXTRACT: note_on channel=0 note=64 velocity=49 time=0
EXTRACT: note_on channel=1 note=83 velocity=37 time=0
EXTRACT: note_on channel=9 note=42 velocity=64 time=0
EXTRACT: note_on channel=9 note=38 velocity=64 time=0
EXTRACT: note_on channel=7 note=59 velocity=23 time=0
EXTRACT: note_off channel=0 note=76 velocity=64 time=0.111111
EXTRACT: note_off channel=0 note=71 velocity=64 time=0
EXTRACT: note_off channel=0 note=64 velocity=64 time=0
EXTRACT: note_on channel=0 note=76 velocity=49 time=0.0555555
EXTRACT: note_on channel=0 note=71 velocity=49 time=0
EXTRACT: note_on channel=0 note=64 velocity=49 time=0
EXTRACT: note_off channel=1 note=83 velocity=64 time=0.0555555
EXTRACT: note_off channel=3 note=45 velocity=64 time=0
EXTRACT: note_off channel=9 note=42 velocity=64 time=0
EXTRACT: note_off channel=9 note=38 velocity=64 time=0
EXTRACT: note_off channel=7 note=59 velocity=64 time=0
EXTRACT: note_off channel=0 note=76 velocity=64 time=0.0555555
EXTRACT: note_off channel=0 note=71 velocity=64 time=0
EXTRACT: note_off channel=0 note=64 velocity=64 time=0
EXTRACT: note_off channel=6 note=83 velocity=64 time=0.0555555
EXTRACT: note_on channel=6 note=81 velocity=61 time=0
EXTRACT: note_on channel=0 note=76 velocity=49 time=0
EXTRACT: note_on channel=0 note=71 velocity=49 time=0
EXTRACT: note_on channel=0 note=64 velocity=49 time=0
EXTRACT: note_on channel=1 note=85 velocity=37 time=0
EXTRACT: note_on channel=9 note=42 velocity=64 time=0
EXTRACT: note_on channel=9 note=38 velocity=64 time=0
EXTRACT: note_on channel=7 note=57 velocity=23 time=0
EXTRACT: note_off channel=0 note=76 velocity=64 time=0.111111
EXTRACT: note_off channel=0 note=71 velocity=64 time=0
EXTRACT: note_off channel=0 note=64 velocity=64 time=0
EXTRACT: note_on channel=0 note=76 velocity=49 time=0.0555555
EXTRACT: note_on channel=0 note=71 velocity=49 time=0
EXTRACT: note_on channel=0 note=64 velocity=49 time=0
EXTRACT: note_off channel=6 note=81 velocity=64 time=0.0555555
EXTRACT: note_off channel=1 note=85 velocity=64 time=0
EXTRACT: note_off channel=9 note=42 velocity=64 time=0
EXTRACT: note_off channel=9 note=38 velocity=64 time=0
EXTRACT: note_off channel=7 note=57 velocity=64 time=0
EXTRACT: note_off channel=0 note=76 velocity=64 time=0.0555555
EXTRACT: note_off channel=0 note=71 velocity=64 time=0
EXTRACT: note_off channel=0 note=64 velocity=64 time=0
EXTRACT: note_on channel=6 note=83 velocity=61 time=0.0555555
EXTRACT: note_on channel=6 note=86 velocity=61 time=0
EXTRACT: note_on channel=6 note=85 velocity=61 time=0
EXTRACT: note_on channel=6 note=81 velocity=61 time=0
EXTRACT: note_on channel=0 note=57 velocity=41 time=0
EXTRACT: note_on channel=3 note=45 velocity=64 time=0
EXTRACT: note_on channel=2 note=76 velocity=15 time=0
EXTRACT: note_on channel=2 note=73 velocity=15 time=0
EXTRACT: note_on channel=2 note=69 velocity=15 time=0
EXTRACT: note_on channel=2 note=64 velocity=15 time=0
EXTRACT: note_on channel=9 note=42 velocity=64 time=0
EXTRACT: note_on channel=9 note=49 velocity=64 time=0
EXTRACT: note_off channel=6 note=85 velocity=64 time=0.111111
EXTRACT: note_off channel=6 note=81 velocity=64 time=0
EXTRACT: note_off channel=0 note=57 velocity=64 time=0.111111
EXTRACT: note_off channel=9 note=42 velocity=64 time=0
EXTRACT: note_off channel=9 note=49 velocity=64 time=0
EXTRACT: note_on channel=0 note=64 velocity=41 time=0.111111
EXTRACT: note_on channel=9 note=42 velocity=64 time=0
EXTRACT: note_off channel=6 note=83 velocity=64 time=0.111111
EXTRACT: note_off channel=6 note=86 velocity=64 time=0
EXTRACT: note_off channel=0 note=64 velocity=64 time=0.111111
EXTRACT: note_off channel=9 note=42 velocity=64 time=0
EXTRACT: note_on channel=6 note=81 velocity=61 time=0.111111
EXTRACT: note_on channel=6 note=85 velocity=61 time=0
EXTRACT: note_on channel=0 note=69 velocity=41 time=0
EXTRACT: note_on channel=9 note=42 velocity=64 time=0
EXTRACT: note_on channel=0 note=71 velocity=41 time=0.1666665
EXTRACT: note_off channel=0 note=69 velocity=64 time=0.0555555
EXTRACT: note_off channel=2 note=76 velocity=64 time=0
EXTRACT: note_off channel=2 note=73 velocity=64 time=0
EXTRACT: note_off channel=2 note=69 velocity=64 time=0
EXTRACT: note_off channel=2 note=64 velocity=64 time=0
EXTRACT: note_off channel=9 note=42 velocity=64 time=0
EXTRACT: note_off channel=0 note=71 velocity=64 time=0.0555555
EXTRACT: note_on channel=0 note=73 velocity=41 time=0.0555555
EXTRACT: note_on channel=0 note=76 velocity=41 time=0
EXTRACT: note_on channel=9 note=42 velocity=64 time=0
EXTRACT: note_on channel=9 note=38 velocity=64 time=0
EXTRACT: note_off channel=6 note=81 velocity=64 time=0.111111
EXTRACT: note_off channel=6 note=85 velocity=64 time=0
EXTRACT: note_off channel=0 note=73 velocity=64 time=0.111111
EXTRACT: note_off channel=0 note=76 velocity=64 time=0
EXTRACT: note_off channel=9 note=42 velocity=64 time=0
EXTRACT: note_off channel=9 note=38 velocity=64 time=0
EXTRACT: note_on channel=0 note=71 velocity=41 time=0.111111
EXTRACT: note_on channel=9 note=42 velocity=64 time=0
EXTRACT: note_off channel=0 note=71 velocity=64 time=0.222222
EXTRACT: note_off channel=3 note=45 velocity=64 time=0
EXTRACT: note_off channel=9 note=42 velocity=64 time=0
EXTRACT: note_on channel=0 note=69 velocity=41 time=0.111111
EXTRACT: note_on channel=3 note=45 velocity=64 time=0
EXTRACT: note_on channel=9 note=42 velocity=64 time=0
EXTRACT: note_off channel=0 note=69 velocity=64 time=0.222222
EXTRACT: note_off channel=3 note=45 velocity=64 time=0
EXTRACT: note_off channel=9 note=42 velocity=64 time=0
EXTRACT: note_on channel=6 note=78 velocity=61 time=0.111111
EXTRACT: note_on channel=6 note=81 velocity=61 time=0
EXTRACT: note_on channel=6 note=80 velocity=61 time=0
EXTRACT: note_on channel=6 note=83 velocity=61 time=0
EXTRACT: note_on channel=0 note=57 velocity=41 time=0
EXTRACT: note_on channel=3 note=42 velocity=64 time=0
EXTRACT: note_on channel=2 note=78 velocity=15 time=0
EXTRACT: note_on channel=2 note=73 velocity=15 time=0
EXTRACT: note_on channel=2 note=69 velocity=15 time=0
EXTRACT: note_on channel=9 note=42 velocity=64 time=0
EXTRACT: note_off channel=6 note=78 velocity=64 time=0.111111
EXTRACT: note_off channel=6 note=81 velocity=64 time=0
EXTRACT: note_off channel=0 note=57 velocity=64 time=0.111111
EXTRACT: note_off channel=9 note=42 velocity=64 time=0
EXTRACT: note_on channel=0 note=61 velocity=41 time=0.111111
EXTRACT: note_on channel=9 note=42 velocity=64 time=0
EXTRACT: note_off channel=6 note=80 velocity=64 time=0.111111
EXTRACT: note_off channel=6 note=83 velocity=64 time=0
EXTRACT: note_off channel=0 note=61 velocity=64 time=0.111111
EXTRACT: note_off channel=9 note=42 velocity=64 time=0
EXTRACT: note_on channel=6 note=78 velocity=61 time=0.111111
EXTRACT: note_on channel=6 note=81 velocity=61 time=0
EXTRACT: note_on channel=0 note=66 velocity=41 time=0
EXTRACT: note_on channel=9 note=42 velocity=64 time=0
EXTRACT: note_on channel=0 note=71 velocity=41 time=0.1666665
EXTRACT: note_off channel=0 note=66 velocity=64 time=0.0555555
EXTRACT: note_off channel=2 note=78 velocity=64 time=0
EXTRACT: note_off channel=2 note=73 velocity=64 time=0
EXTRACT: note_off channel=2 note=69 velocity=64 time=0
EXTRACT: note_off channel=9 note=42 velocity=64 time=0
EXTRACT: note_off channel=0 note=71 velocity=64 time=0.0555555
EXTRACT: note_on channel=0 note=76 velocity=41 time=0.0555555
EXTRACT: note_on channel=0 note=73 velocity=41 time=0
EXTRACT: note_on channel=9 note=42 velocity=64 time=0
EXTRACT: note_on channel=9 note=38 velocity=64 time=0
EXTRACT: note_off channel=6 note=78 velocity=64 time=0.111111
EXTRACT: note_off channel=6 note=81 velocity=64 time=0
EXTRACT: note_off channel=0 note=76 velocity=64 time=0.111111
EXTRACT: note_off channel=0 note=73 velocity=64 time=0
EXTRACT: note_off channel=9 note=42 velocity=64 time=0
EXTRACT: note_off channel=9 note=38 velocity=64 time=0
EXTRACT: note_on channel=0 note=71 velocity=41 time=0.111111
EXTRACT: note_off channel=3 note=42 velocity=64 time=0
EXTRACT: note_on channel=9 note=42 velocity=64 time=0
EXTRACT: note_off channel=0 note=71 velocity=64 time=0.222222
EXTRACT: note_off channel=9 note=42 velocity=64 time=0
EXTRACT: note_on channel=0 note=69 velocity=41 time=0.111111
EXTRACT: note_on channel=3 note=42 velocity=64 time=0
EXTRACT: note_on channel=9 note=42 velocity=64 time=0
EXTRACT: note_off channel=0 note=69 velocity=64 time=0.222222
EXTRACT: note_off channel=3 note=42 velocity=64 time=0
EXTRACT: note_off channel=9 note=42 velocity=64 time=0
EXTRACT: note_on channel=6 note=76 velocity=61 time=0.111111
EXTRACT: note_on channel=6 note=80 velocity=61 time=0
EXTRACT: note_on channel=0 note=62 velocity=41 time=0
EXTRACT: note_on channel=3 note=38 velocity=64 time=0
EXTRACT: note_on channel=2 note=78 velocity=15 time=0
EXTRACT: note_on channel=2 note=74 velocity=15 time=0
EXTRACT: note_on channel=2 note=69 velocity=15 time=0
EXTRACT: note_on channel=2 note=62 velocity=15 time=0
EXTRACT: note_on channel=9 note=42 velocity=64 time=0
EXTRACT: note_off channel=6 note=76 velocity=64 time=0.222222
EXTRACT: note_off channel=6 note=80 velocity=64 time=0
EXTRACT: note_off channel=0 note=62 velocity=64 time=0
EXTRACT: note_off channel=9 note=42 velocity=64 time=0
EXTRACT: note_on channel=6 note=78 velocity=61 time=0.111111
EXTRACT: note_on channel=6 note=74 velocity=61 time=0
EXTRACT: note_on channel=0 note=69 velocity=41 time=0
EXTRACT: note_on channel=9 note=42 velocity=64 time=0
EXTRACT: note_off channel=0 note=69 velocity=64 time=0.222222
EXTRACT: note_off channel=9 note=42 velocity=64 time=0
EXTRACT: note_on channel=0 note=74 velocity=41 time=0.111111
EXTRACT: note_on channel=9 note=42 velocity=64 time=0
EXTRACT: note_off channel=6 note=78 velocity=64 time=0.111111
EXTRACT: note_off channel=6 note=74 velocity=64 time=0
EXTRACT: note_on channel=0 note=76 velocity=41 time=0.0555555
EXTRACT: note_off channel=0 note=74 velocity=64 time=0.0555555
EXTRACT: note_off channel=2 note=78 velocity=64 time=0
EXTRACT: note_off channel=2 note=74 velocity=64 time=0
EXTRACT: note_off channel=2 note=69 velocity=64 time=0
EXTRACT: note_off channel=2 note=62 velocity=64 time=0
EXTRACT: note_off channel=9 note=42 velocity=64 time=0
EXTRACT: note_off channel=0 note=76 velocity=64 time=0.0555555
EXTRACT: note_on channel=0 note=78 velocity=41 time=0.0555555
EXTRACT: note_on channel=9 note=42 velocity=64 time=0
EXTRACT: note_on channel=9 note=38 velocity=64 time=0
EXTRACT: note_off channel=0 note=78 velocity=64 time=0.222222
EXTRACT: note_off channel=9 note=42 velocity=64 time=0
EXTRACT: note_off channel=9 note=38 velocity=64 time=0
EXTRACT: note_on channel=6 note=78 velocity=61 time=0.111111
EXTRACT: note_on channel=6 note=74 velocity=61 time=0
EXTRACT: note_on channel=6 note=80 velocity=61 time=0
EXTRACT: note_on channel=6 note=76 velocity=61 time=0
EXTRACT: note_on channel=0 note=76 velocity=41 time=0
EXTRACT: note_off channel=3 note=38 velocity=64 time=0
EXTRACT: note_on channel=9 note=42 velocity=64 time=0
EXTRACT: note_off channel=6 note=78 velocity=64 time=0.111111
EXTRACT: note_off channel=6 note=74 velocity=64 time=0
EXTRACT: note_off channel=6 note=80 velocity=64 time=0.111111
EXTRACT: note_off channel=6 note=76 velocity=64 time=0
EXTRACT: note_off channel=0 note=76 velocity=64 time=0
EXTRACT: note_off channel=9 note=42 velocity=64 time=0
EXTRACT: note_on channel=6 note=74 velocity=61 time=0.111111
EXTRACT: note_on channel=6 note=78 velocity=61 time=0
EXTRACT: note_on channel=0 note=69 velocity=41 time=0
EXTRACT: note_on channel=3 note=38 velocity=64 time=0
EXTRACT: note_on channel=9 note=42 velocity=64 time=0
EXTRACT: note_off channel=6 note=74 velocity=64 time=0.222222
EXTRACT: note_off channel=6 note=78 velocity=64 time=0
EXTRACT: note_off channel=0 note=69 velocity=64 time=0
EXTRACT: note_off channel=3 note=38 velocity=64 time=0
EXTRACT: note_off channel=9 note=42 velocity=64 time=0
EXTRACT: note_on channel=6 note=73 velocity=61 time=0.111111
EXTRACT: note_on channel=6 note=77 velocity=61 time=0
EXTRACT: note_on channel=0 note=62 velocity=41 time=0
EXTRACT: note_on channel=3 note=38 velocity=64 time=0
EXTRACT: note_on channel=2 note=77 velocity=15 time=0
EXTRACT: note_on channel=2 note=74 velocity=15 time=0
EXTRACT: note_on channel=2 note=69 velocity=15 time=0
EXTRACT: note_on channel=2 note=62 velocity=15 time=0
EXTRACT: note_on channel=9 note=42 velocity=64 time=0
EXTRACT: note_off channel=0 note=62 velocity=64 time=0.222222
EXTRACT: note_off channel=9 note=42 velocity=64 time=0
EXTRACT: note_off channel=6 note=73 velocity=64 time=0.111111
EXTRACT: note_on channel=0 note=69 velocity=41 time=0
EXTRACT: note_on channel=9 note=42 velocity=64 time=0
EXTRACT: note_on channel=6 note=74 velocity=61 time=0.1666665
EXTRACT: note_off channel=0 note=69 velocity=64 time=0.0555555
EXTRACT: note_off channel=9 note=42 velocity=64 time=0
EXTRACT: note_off channel=6 note=74 velocity=64 time=0.0555555
EXTRACT: note_off channel=6 note=77 velocity=64 time=0.0555555
EXTRACT: note_on channel=6 note=73 velocity=61 time=0
EXTRACT: note_on channel=0 note=74 velocity=41 time=0
EXTRACT: note_on channel=9 note=42 velocity=64 time=0
EXTRACT: note_on channel=0 note=76 velocity=41 time=0.1666665
EXTRACT: note_on channel=9 note=38 velocity=64 time=0
EXTRACT: note_off channel=6 note=73 velocity=64 time=0.0555555
EXTRACT: note_off channel=0 note=74 velocity=64 time=0
EXTRACT: note_off channel=2 note=62 velocity=64 time=0
EXTRACT: note_off channel=9 note=42 velocity=64 time=0
EXTRACT: note_off channel=0 note=76 velocity=64 time=0.0555555
EXTRACT: note_off channel=9 note=38 velocity=64 time=0
EXTRACT: note_on channel=6 note=71 velocity=61 time=0.0555555
EXTRACT: note_on channel=6 note=77 velocity=61 time=0
EXTRACT: note_on channel=0 note=77 velocity=41 time=0
EXTRACT: note_on channel=9 note=42 velocity=64 time=0
EXTRACT: note_on channel=9 note=38 velocity=64 time=0
EXTRACT: note_off channel=2 note=77 velocity=64 time=0.111111
EXTRACT: note_off channel=2 note=74 velocity=64 time=0
EXTRACT: note_off channel=2 note=69 velocity=64 time=0
EXTRACT: note_off channel=6 note=71 velocity=64 time=0.111111
EXTRACT: note_off channel=0 note=77 velocity=64 time=0
EXTRACT: note_off channel=9 note=42 velocity=64 time=0
EXTRACT: note_off channel=9 note=38 velocity=64 time=0
EXTRACT: note_on channel=6 note=69 velocity=61 time=0.111111
EXTRACT: note_on channel=0 note=76 velocity=41 time=0
EXTRACT: note_off channel=3 note=38 velocity=64 time=0
EXTRACT: note_on channel=9 note=42 velocity=64 time=0
EXTRACT: note_on channel=9 note=38 velocity=64 time=0
EXTRACT: note_off channel=6 note=69 velocity=64 time=0.222222
EXTRACT: note_off channel=0 note=76 velocity=64 time=0
EXTRACT: note_off channel=9 note=42 velocity=64 time=0
EXTRACT: note_off channel=9 note=38 velocity=64 time=0
EXTRACT: note_off channel=6 note=77 velocity=64 time=0.111111
EXTRACT: note_on channel=0 note=74 velocity=41 time=0
EXTRACT: note_on channel=3 note=38 velocity=64 time=0
EXTRACT: note_on channel=9 note=42 velocity=64 time=0
EXTRACT: note_on channel=9 note=38 velocity=64 time=0
EXTRACT: note_off channel=0 note=74 velocity=64 time=0.222222
EXTRACT: note_off channel=3 note=38 velocity=64 time=0
EXTRACT: note_off channel=9 note=42 velocity=64 time=0
EXTRACT: note_off channel=9 note=38 velocity=64 time=0
EXTRACT: note_on channel=0 note=57 velocity=41 time=0.111111
EXTRACT: note_on channel=3 note=45 velocity=64 time=0
EXTRACT: note_on channel=2 note=76 velocity=15 time=0
EXTRACT: note_on channel=2 note=73 velocity=15 time=0
EXTRACT: note_on channel=2 note=69 velocity=15 time=0
EXTRACT: note_on channel=2 note=64 velocity=15 time=0
EXTRACT: note_on channel=9 note=42 velocity=64 time=0
EXTRACT: note_on channel=9 note=49 velocity=64 time=0
EXTRACT: note_off channel=0 note=57 velocity=64 time=0.222222
EXTRACT: note_off channel=9 note=42 velocity=64 time=0
EXTRACT: note_off channel=9 note=49 velocity=64 time=0
EXTRACT: note_on channel=0 note=64 velocity=41 time=0.111111
EXTRACT: note_on channel=9 note=42 velocity=64 time=0
EXTRACT: note_off channel=0 note=64 velocity=64 time=0.222222
EXTRACT: note_off channel=9 note=42 velocity=64 time=0
EXTRACT: note_on channel=0 note=69 velocity=41 time=0.111111
EXTRACT: note_on channel=9 note=42 velocity=64 time=0
EXTRACT: note_on channel=0 note=71 velocity=41 time=0.1666665
EXTRACT: note_off channel=0 note=69 velocity=64 time=0.0555555
EXTRACT: note_off channel=2 note=76 velocity=64 time=0
EXTRACT: note_off channel=2 note=73 velocity=64 time=0
EXTRACT: note_off channel=2 note=69 velocity=64 time=0
EXTRACT: note_off channel=2 note=64 velocity=64 time=0
EXTRACT: note_off channel=9 note=42 velocity=64 time=0
EXTRACT: note_off channel=0 note=71 velocity=64 time=0.0555555
EXTRACT: note_on channel=6 note=73 velocity=64 time=0.0555555
EXTRACT: note_on channel=0 note=73 velocity=41 time=0
EXTRACT: note_on channel=0 note=76 velocity=41 time=0
EXTRACT: note_on channel=9 note=42 velocity=64 time=0
EXTRACT: note_on channel=9 note=38 velocity=64 time=0
EXTRACT: note_off channel=6 note=73 velocity=64 time=0.222222
EXTRACT: note_off channel=0 note=73 velocity=64 time=0
EXTRACT: note_off channel=0 note=76 velocity=64 time=0
EXTRACT: note_off channel=9 note=42 velocity=64 time=0
EXTRACT: note_off channel=9 note=38 velocity=64 time=0
EXTRACT: note_on channel=6 note=76 velocity=64 time=0.111111
EXTRACT: note_on channel=0 note=71 velocity=41 time=0
EXTRACT: note_on channel=9 note=42 velocity=64 time=0
EXTRACT: note_off channel=6 note=76 velocity=64 time=0.222222
EXTRACT: note_off channel=0 note=71 velocity=64 time=0
EXTRACT: note_off channel=3 note=45 velocity=64 time=0
EXTRACT: note_off channel=9 note=42 velocity=64 time=0
EXTRACT: note_on channel=6 note=80 velocity=64 time=0.111111
EXTRACT: note_on channel=0 note=69 velocity=41 time=0
EXTRACT: note_on channel=3 note=45 velocity=64 time=0
EXTRACT: note_on channel=9 note=42 velocity=64 time=0
EXTRACT: note_off channel=6 note=80 velocity=64 time=0.222222
EXTRACT: note_off channel=0 note=69 velocity=64 time=0
EXTRACT: note_off channel=3 note=45 velocity=64 time=0
EXTRACT: note_off channel=9 note=42 velocity=64 time=0
EXTRACT: note_on channel=6 note=81 velocity=64 time=0.111111
EXTRACT: note_on channel=0 note=57 velocity=41 time=0
EXTRACT: note_on channel=3 note=42 velocity=64 time=0
EXTRACT: note_on channel=2 note=78 velocity=15 time=0
EXTRACT: note_on channel=2 note=73 velocity=15 time=0
EXTRACT: note_on channel=2 note=69 velocity=15 time=0
EXTRACT: note_on channel=9 note=42 velocity=64 time=0
EXTRACT: note_off channel=0 note=57 velocity=64 time=0.222222
EXTRACT: note_off channel=9 note=42 velocity=64 time=0
EXTRACT: note_on channel=0 note=61 velocity=41 time=0.111111
EXTRACT: note_on channel=9 note=42 velocity=64 time=0
EXTRACT: note_off channel=6 note=81 velocity=64 time=0.111111
EXTRACT: note_off channel=0 note=61 velocity=64 time=0.111111
EXTRACT: note_off channel=9 note=42 velocity=64 time=0
EXTRACT: note_on channel=0 note=66 velocity=41 time=0.111111
EXTRACT: note_on channel=9 note=42 velocity=64 time=0
EXTRACT: note_on channel=0 note=71 velocity=41 time=0.1666665
EXTRACT: note_off channel=0 note=66 velocity=64 time=0.0555555
EXTRACT: note_off channel=2 note=78 velocity=64 time=0
EXTRACT: note_off channel=2 note=73 velocity=64 time=0
EXTRACT: note_off channel=2 note=69 velocity=64 time=0
EXTRACT: note_off channel=9 note=42 velocity=64 time=0
EXTRACT: note_off channel=0 note=71 velocity=64 time=0.0555555
EXTRACT: note_on channel=0 note=76 velocity=41 time=0.0555555
EXTRACT: note_on channel=0 note=73 velocity=41 time=0
EXTRACT: note_on channel=9 note=42 velocity=64 time=0
EXTRACT: note_on channel=9 note=38 velocity=64 time=0
EXTRACT: note_off channel=0 note=76 velocity=64 time=0.222222
EXTRACT: note_off channel=0 note=73 velocity=64 time=0
EXTRACT: note_off channel=9 note=42 velocity=64 time=0
EXTRACT: note_off channel=9 note=38 velocity=64 time=0
EXTRACT: note_on channel=6 note=78 velocity=64 time=0.111111
EXTRACT: note_on channel=0 note=71 velocity=41 time=0
EXTRACT: note_off channel=3 note=42 velocity=64 time=0
EXTRACT: note_on channel=9 note=42 velocity=64 time=0
EXTRACT: note_off channel=6 note=78 velocity=64 time=0.222222
EXTRACT: note_off channel=0 note=71 velocity=64 time=0
EXTRACT: note_off channel=9 note=42 velocity=64 time=0
EXTRACT: note_on channel=6 note=81 velocity=64 time=0.111111
EXTRACT: note_on channel=0 note=69 velocity=41 time=0
EXTRACT: note_on channel=3 note=42 velocity=64 time=0
EXTRACT: note_on channel=9 note=42 velocity=64 time=0
EXTRACT: note_off channel=6 note=81 velocity=64 time=0.222222
EXTRACT: note_off channel=0 note=69 velocity=64 time=0
EXTRACT: note_off channel=3 note=42 velocity=64 time=0
EXTRACT: note_off channel=9 note=42 velocity=64 time=0
EXTRACT: note_on channel=6 note=83 velocity=64 time=0.111111
EXTRACT: note_on channel=0 note=62 velocity=49 time=0
EXTRACT: note_on channel=3 note=38 velocity=64 time=0
EXTRACT: note_on channel=2 note=78 velocity=15 time=0
EXTRACT: note_on channel=2 note=74 velocity=15 time=0
EXTRACT: note_on channel=2 note=69 velocity=15 time=0
EXTRACT: note_on channel=2 note=62 velocity=15 time=0
EXTRACT: note_on channel=9 note=42 velocity=64 time=0
EXTRACT: note_off channel=0 note=62 velocity=64 time=0.222222
EXTRACT: note_off channel=9 note=42 velocity=64 time=0
EXTRACT: note_on channel=0 note=62 velocity=49 time=0.111111
EXTRACT: note_on channel=0 note=69 velocity=49 time=0
EXTRACT: note_on channel=0 note=74 velocity=49 time=0
EXTRACT: note_on channel=0 note=78 velocity=49 time=0
EXTRACT: note_on channel=9 note=42 velocity=64 time=0
EXTRACT: note_off channel=6 note=83 velocity=64 time=0.111111
EXTRACT: note_off channel=0 note=62 velocity=64 time=0.111111
EXTRACT: note_off channel=0 note=69 velocity=64 time=0
EXTRACT: note_off channel=0 note=74 velocity=64 time=0
EXTRACT: note_off channel=0 note=78 velocity=64 time=0
EXTRACT: note_off channel=9 note=42 velocity=64 time=0
EXTRACT: note_on channel=0 note=78 velocity=49 time=0.111111
EXTRACT: note_on channel=0 note=74 velocity=49 time=0
EXTRACT: note_on channel=0 note=69 velocity=49 time=0
EXTRACT: note_on channel=0 note=62 velocity=49 time=0
EXTRACT: note_on channel=9 note=42 velocity=64 time=0
EXTRACT: note_off channel=0 note=78 velocity=64 time=0.111111
EXTRACT: note_off channel=0 note=74 velocity=64 time=0
EXTRACT: note_off channel=0 note=69 velocity=64 time=0
EXTRACT: note_off channel=0 note=62 velocity=64 time=0
EXTRACT: note_on channel=0 note=78 velocity=49 time=0.0555555
EXTRACT: note_on channel=0 note=74 velocity=49 time=0
EXTRACT: note_on channel=0 note=69 velocity=49 time=0
EXTRACT: note_on channel=0 note=62 velocity=49 time=0
EXTRACT: note_off channel=2 note=78 velocity=64 time=0.0555555
EXTRACT: note_off channel=2 note=74 velocity=64 time=0
EXTRACT: note_off channel=2 note=69 velocity=64 time=0
EXTRACT: note_off channel=2 note=62 velocity=64 time=0
EXTRACT: note_off channel=9 note=42 velocity=64 time=0
EXTRACT: note_off channel=0 note=78 velocity=64 time=0.0555555
EXTRACT: note_off channel=0 note=74 velocity=64 time=0
EXTRACT: note_off channel=0 note=69 velocity=64 time=0
EXTRACT: note_off channel=0 note=62 velocity=64 time=0
EXTRACT: note_on channel=0 note=62 velocity=49 time=0.0555555
EXTRACT: note_on channel=9 note=42 velocity=64 time=0
EXTRACT: note_on channel=9 note=38 velocity=64 time=0
EXTRACT: note_off channel=0 note=62 velocity=64 time=0.222222
EXTRACT: note_off channel=9 note=42 velocity=64 time=0
EXTRACT: note_off channel=9 note=38 velocity=64 time=0
EXTRACT: note_on channel=6 note=81 velocity=64 time=0.111111
EXTRACT: note_on channel=0 note=78 velocity=49 time=0
EXTRACT: note_on channel=0 note=74 velocity=49 time=0
EXTRACT: note_on channel=0 note=69 velocity=49 time=0
EXTRACT: note_on channel=0 note=62 velocity=49 time=0
EXTRACT: note_off channel=3 note=38 velocity=64 time=0
EXTRACT: note_on channel=9 note=42 velocity=64 time=0
EXTRACT: note_off channel=6 note=81 velocity=64 time=0.222222
EXTRACT: note_off channel=0 note=78 velocity=64 time=0
EXTRACT: note_off channel=0 note=74 velocity=64 time=0
EXTRACT: note_off channel=0 note=69 velocity=64 time=0
EXTRACT: note_off channel=0 note=62 velocity=64 time=0
EXTRACT: note_off channel=9 note=42 velocity=64 time=0
EXTRACT: note_on channel=6 note=83 velocity=64 time=0.111111
EXTRACT: note_on channel=0 note=78 velocity=49 time=0
EXTRACT: note_on channel=0 note=74 velocity=49 time=0
EXTRACT: note_on channel=0 note=69 velocity=49 time=0
EXTRACT: note_on channel=0 note=62 velocity=49 time=0
EXTRACT: note_on channel=3 note=38 velocity=64 time=0
EXTRACT: note_on channel=9 note=42 velocity=64 time=0
EXTRACT: note_off channel=0 note=78 velocity=64 time=0.111111
EXTRACT: note_off channel=0 note=74 velocity=64 time=0
EXTRACT: note_off channel=0 note=69 velocity=64 time=0
EXTRACT: note_off channel=0 note=62 velocity=64 time=0
EXTRACT: note_on channel=0 note=78 velocity=49 time=0.0555555
EXTRACT: note_on channel=0 note=74 velocity=49 time=0
EXTRACT: note_on channel=0 note=69 velocity=49 time=0
EXTRACT: note_on channel=0 note=62 velocity=49 time=0
EXTRACT: note_off channel=6 note=83 velocity=64 time=0.0555555
EXTRACT: note_off channel=3 note=38 velocity=64 time=0
EXTRACT: note_off channel=9 note=42 velocity=64 time=0
EXTRACT: note_off channel=0 note=78 velocity=64 time=0.0555555
EXTRACT: note_off channel=0 note=74 velocity=64 time=0
EXTRACT: note_off channel=0 note=69 velocity=64 time=0
EXTRACT: note_off channel=0 note=62 velocity=64 time=0
EXTRACT: note_on channel=6 note=85 velocity=64 time=0.0555555
EXTRACT: note_on channel=0 note=68 velocity=49 time=0
EXTRACT: note_on channel=3 note=40 velocity=64 time=0
EXTRACT: note_on channel=2 note=76 velocity=15 time=0
EXTRACT: note_on channel=2 note=71 velocity=15 time=0
EXTRACT: note_on channel=2 note=68 velocity=15 time=0
EXTRACT: note_on channel=2 note=64 velocity=15 time=0
EXTRACT: note_on channel=9 note=42 velocity=64 time=0
EXTRACT: note_off channel=0 note=68 velocity=64 time=0.222222
EXTRACT: note_off channel=9 note=42 velocity=64 time=0
EXTRACT: note_on channel=0 note=76 velocity=49 time=0.111111
EXTRACT: note_on channel=0 note=71 velocity=49 time=0
EXTRACT: note_on channel=9 note=42 velocity=64 time=0
EXTRACT: note_off channel=0 note=76 velocity=64 time=0.222222
EXTRACT: note_off channel=0 note=71 velocity=64 time=0
EXTRACT: note_off channel=9 note=42 velocity=64 time=0
EXTRACT: note_off channel=6 note=85 velocity=64 time=0.111111
EXTRACT: note_on channel=0 note=76 velocity=49 time=0
EXTRACT: note_on channel=0 note=71 velocity=49 time=0
EXTRACT: note_on channel=9 note=42 velocity=64 time=0
EXTRACT: note_on channel=9 note=38 velocity=64 time=0.1666665
EXTRACT: note_off channel=0 note=76 velocity=64 time=0.0555555
EXTRACT: note_off channel=0 note=71 velocity=64 time=0
EXTRACT: note_off channel=2 note=76 velocity=64 time=0
EXTRACT: note_off channel=2 note=71 velocity=64 time=0
EXTRACT: note_off channel=2 note=68 velocity=64 time=0
EXTRACT: note_off channel=2 note=64 velocity=64 time=0
EXTRACT: note_off channel=9 note=42 velocity=64 time=0
EXTRACT: note_off channel=9 note=38 velocity=64 time=0.0555555
EXTRACT: note_on channel=6 note=85 velocity=64 time=0.0555555
EXTRACT: note_on channel=0 note=68 velocity=49 time=0
EXTRACT: note_on channel=9 note=42 velocity=64 time=0
EXTRACT: note_on channel=9 note=38 velocity=64 time=0
EXTRACT: note_off channel=0 note=68 velocity=64 time=0.222222
EXTRACT: note_off channel=9 note=42 velocity=64 time=0
EXTRACT: note_off channel=9 note=38 velocity=64 time=0
EXTRACT: note_on channel=0 note=76 velocity=49 time=0.111111
EXTRACT: note_on channel=0 note=71 velocity=49 time=0
EXTRACT: note_on channel=9 note=42 velocity=64 time=0
EXTRACT: note_on channel=9 note=38 velocity=64 time=0
EXTRACT: note_off channel=0 note=76 velocity=64 time=0.111111
EXTRACT: note_off channel=0 note=71 velocity=64 time=0
EXTRACT: note_on channel=0 note=76 velocity=49 time=0.0555555
EXTRACT: note_on channel=0 note=71 velocity=49 time=0
EXTRACT: note_off channel=3 note=40 velocity=64 time=0.0555555
EXTRACT: note_off channel=9 note=42 velocity=64 time=0
EXTRACT: note_off channel=9 note=38 velocity=64 time=0
EXTRACT: note_off channel=0 note=76 velocity=64 time=0.0555555
EXTRACT: note_off channel=0 note=71 velocity=64 time=0
EXTRACT: note_off channel=6 note=85 velocity=64 time=0.0555555
EXTRACT: note_on channel=0 note=76 velocity=49 time=0
EXTRACT: note_on channel=0 note=71 velocity=49 time=0
EXTRACT: note_on channel=9 note=42 velocity=64 time=0
EXTRACT: note_on channel=9 note=38 velocity=64 time=0
EXTRACT: note_off channel=0 note=76 velocity=64 time=0.111111
EXTRACT: note_off channel=0 note=71 velocity=64 time=0
EXTRACT: note_on channel=0 note=76 velocity=49 time=0.0555555
EXTRACT: note_on channel=0 note=71 velocity=49 time=0
EXTRACT: note_off channel=9 note=42 velocity=64 time=0.0555555
EXTRACT: note_off channel=9 note=38 velocity=64 time=0
EXTRACT: note_off channel=0 note=76 velocity=64 time=0.0555555
EXTRACT: note_off channel=0 note=71 velocity=64 time=0
EXTRACT: note_on channel=3 note=45 velocity=64 time=0.0555555
EXTRACT: note_on channel=2 note=76 velocity=15 time=0
EXTRACT: note_on channel=2 note=73 velocity=15 time=0
EXTRACT: note_on channel=2 note=69 velocity=15 time=0
EXTRACT: note_on channel=2 note=64 velocity=15 time=0
EXTRACT: note_on channel=9 note=42 velocity=64 time=0
EXTRACT: note_on channel=9 note=49 velocity=64 time=0
EXTRACT: note_off channel=9 note=42 velocity=64 time=0.222222
EXTRACT: note_off channel=9 note=49 velocity=64 time=0
EXTRACT: note_on channel=9 note=42 velocity=64 time=0.111111
EXTRACT: note_off channel=9 note=42 velocity=64 time=0.222222
EXTRACT: note_on channel=6 note=88 velocity=64 time=0.111111
EXTRACT: note_on channel=9 note=42 velocity=64 time=0
EXTRACT: note_off channel=2 note=76 velocity=64 time=0.222222
EXTRACT: note_off channel=2 note=73 velocity=64 time=0
EXTRACT: note_off channel=2 note=69 velocity=64 time=0
EXTRACT: note_off channel=2 note=64 velocity=64 time=0
EXTRACT: note_off channel=9 note=42 velocity=64 time=0
EXTRACT: note_on channel=1 note=81 velocity=37 time=0.111111
EXTRACT: note_on channel=1 note=76 velocity=37 time=0
EXTRACT: note_on channel=1 note=73 velocity=37 time=0
EXTRACT: note_on channel=9 note=42 velocity=64 time=0
EXTRACT: note_on channel=9 note=38 velocity=64 time=0
EXTRACT: note_off channel=6 note=88 velocity=64 time=0.111111
EXTRACT: note_off channel=9 note=42 velocity=64 time=0.111111
EXTRACT: note_off channel=9 note=38 velocity=64 time=0
EXTRACT: note_on channel=6 note=90 velocity=64 time=0.111111
EXTRACT: note_on channel=9 note=42 velocity=64 time=0
EXTRACT: note_off channel=1 note=81 velocity=64 time=0.111111
EXTRACT: note_off channel=1 note=76 velocity=64 time=0
EXTRACT: note_off channel=1 note=73 velocity=64 time=0
EXTRACT: note_off channel=6 note=90 velocity=64 time=0.111111
EXTRACT: note_off channel=3 note=45 velocity=64 time=0
EXTRACT: note_off channel=9 note=42 velocity=64 time=0
EXTRACT: note_on channel=6 note=92 velocity=64 time=0.111111
EXTRACT: note_on channel=1 note=81 velocity=37 time=0
EXTRACT: note_on channel=1 note=76 velocity=37 time=0
EXTRACT: note_on channel=1 note=73 velocity=37 time=0
EXTRACT: note_on channel=3 note=45 velocity=64 time=0
EXTRACT: note_on channel=9 note=42 velocity=64 time=0
EXTRACT: note_off channel=6 note=92 velocity=64 time=0.222222
EXTRACT: note_off channel=1 note=81 velocity=64 time=0
EXTRACT: note_off channel=1 note=76 velocity=64 time=0
EXTRACT: note_off channel=1 note=73 velocity=64 time=0
EXTRACT: note_off channel=3 note=45 velocity=64 time=0
EXTRACT: note_off channel=9 note=42 velocity=64 time=0
EXTRACT: note_on channel=6 note=95 velocity=64 time=0.111111
EXTRACT: note_on channel=3 note=42 velocity=64 time=0
EXTRACT: note_on channel=2 note=78 velocity=15 time=0
EXTRACT: note_on channel=2 note=73 velocity=15 time=0
EXTRACT: note_on channel=2 note=69 velocity=15 time=0
EXTRACT: note_on channel=9 note=42 velocity=64 time=0
EXTRACT: note_off channel=9 note=42 velocity=64 time=0.222222
EXTRACT: note_on channel=9 note=42 velocity=64 time=0.111111
EXTRACT: note_off channel=6 note=95 velocity=64 time=0.111111
EXTRACT: note_off channel=9 note=42 velocity=64 time=0.111111
EXTRACT: note_on channel=6 note=93 velocity=64 time=0.111111
EXTRACT: note_on channel=9 note=42 velocity=64 time=0
EXTRACT: note_off channel=2 note=78 velocity=64 time=0.222222
EXTRACT: note_off channel=2 note=73 velocity=64 time=0
EXTRACT: note_off channel=2 note=69 velocity=64 time=0
EXTRACT: note_off channel=9 note=42 velocity=64 time=0
EXTRACT: note_on channel=1 note=78 velocity=37 time=0.111111
EXTRACT: note_on channel=1 note=73 velocity=37 time=0
EXTRACT: note_on channel=1 note=69 velocity=37 time=0
EXTRACT: note_on channel=9 note=42 velocity=64 time=0
EXTRACT: note_on channel=9 note=38 velocity=64 time=0
EXTRACT: note_off channel=6 note=93 velocity=64 time=0.111111
EXTRACT: note_off channel=9 note=42 velocity=64 time=0.111111
EXTRACT: note_off channel=9 note=38 velocity=64 time=0
EXTRACT: note_on channel=6 note=92 velocity=64 time=0.111111
EXTRACT: note_off channel=3 note=42 velocity=64 time=0
EXTRACT: note_on channel=9 note=42 velocity=64 time=0
EXTRACT: note_off channel=1 note=78 velocity=64 time=0.111111
EXTRACT: note_off channel=1 note=73 velocity=64 time=0
EXTRACT: note_off channel=1 note=69 velocity=64 time=0
EXTRACT: note_off channel=6 note=92 velocity=64 time=0.111111
EXTRACT: note_off channel=9 note=42 velocity=64 time=0
EXTRACT: note_on channel=6 note=93 velocity=64 time=0.111111
EXTRACT: note_on channel=1 note=78 velocity=37 time=0
EXTRACT: note_on channel=1 note=73 velocity=37 time=0
EXTRACT: note_on channel=1 note=69 velocity=37 time=0
EXTRACT: note_on channel=3 note=42 velocity=64 time=0
EXTRACT: note_on channel=9 note=42 velocity=64 time=0
EXTRACT: note_off channel=6 note=93 velocity=64 time=0.222222
EXTRACT: note_off channel=1 note=78 velocity=64 time=0
EXTRACT: note_off channel=1 note=73 velocity=64 time=0
EXTRACT: note_off channel=1 note=69 velocity=64 time=0
EXTRACT: note_off channel=3 note=42 velocity=64 time=0
EXTRACT: note_off channel=9 note=42 velocity=64 time=0
EXTRACT: note_on channel=6 note=90 velocity=64 time=0.111111
EXTRACT: note_on channel=1 note=62 velocity=37 time=0
EXTRACT: note_on channel=3 note=38 velocity=64 time=0
EXTRACT: note_on channel=2 note=78 velocity=15 time=0
EXTRACT: note_on channel=2 note=74 velocity=15 time=0
EXTRACT: note_on channel=2 note=69 velocity=15 time=0
EXTRACT: note_on channel=2 note=62 velocity=15 time=0
EXTRACT: note_on channel=9 note=42 velocity=64 time=0
EXTRACT: note_off channel=9 note=42 velocity=64 time=0.222222
EXTRACT: note_on channel=9 note=42 velocity=64 time=0.111111
EXTRACT: note_off channel=9 note=42 velocity=64 time=0.222222
EXTRACT: note_off channel=1 note=62 velocity=64 time=0.111111
EXTRACT: note_on channel=9 note=42 velocity=64 time=0
EXTRACT: note_off channel=2 note=78 velocity=64 time=0.222222
EXTRACT: note_off channel=2 note=74 velocity=64 time=0
EXTRACT: note_off channel=2 note=69 velocity=64 time=0
EXTRACT: note_off channel=2 note=62 velocity=64 time=0
EXTRACT: note_off channel=9 note=42 velocity=64 time=0
EXTRACT: note_on channel=1 note=74 velocity=37 time=0.111111
EXTRACT: note_on channel=1 note=69 velocity=37 time=0
EXTRACT: note_on channel=9 note=42 velocity=64 time=0
EXTRACT: note_on channel=9 note=38 velocity=64 time=0
EXTRACT: note_off channel=9 note=42 velocity=64 time=0.222222
EXTRACT: note_off channel=9 note=38 velocity=64 time=0
EXTRACT: note_off channel=6 note=90 velocity=64 time=0.111111
EXTRACT: note_off channel=3 note=38 velocity=64 time=0
EXTRACT: note_on channel=9 note=42 velocity=64 time=0
EXTRACT: note_off channel=1 note=74 velocity=64 time=0.222222
EXTRACT: note_off channel=1 note=69 velocity=64 time=0
EXTRACT: note_off channel=9 note=42 velocity=64 time=0
EXTRACT: note_on channel=1 note=74 velocity=37 time=0.111111
EXTRACT: note_on channel=1 note=69 velocity=37 time=0
EXTRACT: note_on channel=3 note=38 velocity=64 time=0
EXTRACT: note_on channel=9 note=42 velocity=64 time=0
EXTRACT: note_off channel=1 note=74 velocity=64 time=0.222222
EXTRACT: note_off channel=1 note=69 velocity=64 time=0
EXTRACT: note_off channel=3 note=38 velocity=64 time=0
EXTRACT: note_off channel=9 note=42 velocity=64 time=0
EXTRACT: note_on channel=0 note=84 velocity=49 time=0.111111
EXTRACT: note_on channel=1 note=62 velocity=37 time=0
EXTRACT: note_on channel=3 note=38 velocity=64 time=0
EXTRACT: note_on channel=2 note=77 velocity=15 time=0
EXTRACT: note_on channel=2 note=74 velocity=15 time=0
EXTRACT: note_on channel=2 note=69 velocity=15 time=0
EXTRACT: note_on channel=2 note=62 velocity=15 time=0
EXTRACT: note_on channel=9 note=42 velocity=64 time=0
EXTRACT: note_off channel=0 note=84 velocity=64 time=0.222222
EXTRACT: note_off channel=1 note=62 velocity=64 time=0
EXTRACT: note_off channel=9 note=42 velocity=64 time=0
EXTRACT: note_on channel=0 note=93 velocity=49 time=0.111111
EXTRACT: note_on channel=1 note=74 velocity=37 time=0
EXTRACT: note_on channel=1 note=69 velocity=37 time=0
EXTRACT: note_on channel=9 note=42 velocity=64 time=0
EXTRACT: note_off channel=9 note=42 velocity=64 time=0.222222
EXTRACT: note_on channel=9 note=42 velocity=64 time=0.111111
EXTRACT: note_off channel=0 note=93 velocity=64 time=0.111111
EXTRACT: note_off channel=1 note=74 velocity=64 time=0
EXTRACT: note_off channel=1 note=69 velocity=64 time=0
EXTRACT: note_on channel=0 note=84 velocity=49 time=0.0555555
EXTRACT: note_on channel=1 note=76 velocity=37 time=0
EXTRACT: note_on channel=9 note=38 velocity=64 time=0
EXTRACT: note_off channel=2 note=62 velocity=64 time=0.0555555
EXTRACT: note_off channel=9 note=42 velocity=64 time=0
EXTRACT: note_off channel=0 note=84 velocity=64 time=0.0555555
EXTRACT: note_off channel=1 note=76 velocity=64 time=0
EXTRACT: note_off channel=9 note=38 velocity=64 time=0
EXTRACT: note_on channel=0 note=86 velocity=49 time=0.0555555
EXTRACT: note_on channel=1 note=77 velocity=37 time=0
EXTRACT: note_on channel=9 note=42 velocity=64 time=0
EXTRACT: note_on channel=9 note=38 velocity=64 time=0
EXTRACT: note_off channel=2 note=77 velocity=64 time=0.111111
EXTRACT: note_off channel=2 note=74 velocity=64 time=0
EXTRACT: note_off channel=2 note=69 velocity=64 time=0
EXTRACT: note_off channel=0 note=86 velocity=64 time=0.111111
EXTRACT: note_off channel=1 note=77 velocity=64 time=0
EXTRACT: note_off channel=9 note=42 velocity=64 time=0
EXTRACT: note_off channel=9 note=38 velocity=64 time=0
EXTRACT: note_on channel=0 note=95 velocity=49 time=0.111111
EXTRACT: note_on channel=1 note=76 velocity=37 time=0
EXTRACT: note_off channel=3 note=38 velocity=64 time=0
EXTRACT: note_on channel=9 note=42 velocity=64 time=0
EXTRACT: note_on channel=9 note=38 velocity=64 time=0
EXTRACT: note_off channel=0 note=95 velocity=64 time=0.222222
EXTRACT: note_off channel=1 note=76 velocity=64 time=0
EXTRACT: note_off channel=9 note=42 velocity=64 time=0
EXTRACT: note_off channel=9 note=38 velocity=64 time=0
EXTRACT: note_on channel=0 note=86 velocity=49 time=0.111111
EXTRACT: note_on channel=1 note=74 velocity=37 time=0
EXTRACT: note_on channel=3 note=38 velocity=64 time=0
EXTRACT: note_on channel=9 note=42 velocity=64 time=0
EXTRACT: note_on channel=9 note=38 velocity=64 time=0
EXTRACT: note_off channel=0 note=86 velocity=64 time=0.111111
EXTRACT: note_on channel=0 note=88 velocity=49 time=0.0555555
EXTRACT: note_off channel=1 note=74 velocity=64 time=0.0555555
EXTRACT: note_off channel=3 note=38 velocity=64 time=0
EXTRACT: note_off channel=9 note=42 velocity=64 time=0
EXTRACT: note_off channel=9 note=38 velocity=64 time=0
EXTRACT: note_off channel=0 note=88 velocity=64 time=0.0555555
EXTRACT: note_on channel=0 note=97 velocity=49 time=0.0555555
EXTRACT: note_on channel=3 note=45 velocity=64 time=0
EXTRACT: note_on channel=2 note=76 velocity=15 time=0
EXTRACT: note_on channel=2 note=73 velocity=15 time=0
EXTRACT: note_on channel=2 note=69 velocity=15 time=0
EXTRACT: note_on channel=2 note=64 velocity=15 time=0
EXTRACT: note_on channel=9 note=42 velocity=64 time=0
EXTRACT: note_off channel=9 note=42 velocity=64 time=0.222222
EXTRACT: note_on channel=9 note=42 velocity=64 time=0.111111
EXTRACT: note_off channel=9 note=42 velocity=64 time=0.222222
EXTRACT: note_on channel=6 note=88 velocity=64 time=0.111111
EXTRACT: note_off channel=0 note=97 velocity=64 time=0
EXTRACT: note_on channel=9 note=42 velocity=64 time=0
EXTRACT: note_off channel=2 note=76 velocity=64 time=0.222222
EXTRACT: note_off channel=2 note=73 velocity=64 time=0
EXTRACT: note_off channel=2 note=69 velocity=64 time=0
EXTRACT: note_off channel=2 note=64 velocity=64 time=0
EXTRACT: note_off channel=9 note=42 velocity=64 time=0
EXTRACT: note_on channel=0 note=85 velocity=49 time=0.111111
EXTRACT: note_on channel=1 note=76 velocity=37 time=0
EXTRACT: note_on channel=1 note=73 velocity=37 time=0
EXTRACT: note_on channel=1 note=81 velocity=37 time=0
EXTRACT: note_on channel=9 note=42 velocity=64 time=0
EXTRACT: note_on channel=9 note=38 velocity=64 time=0
EXTRACT: note_off channel=6 note=88 velocity=64 time=0.111111
EXTRACT: note_off channel=0 note=85 velocity=64 time=0.111111
EXTRACT: note_off channel=9 note=42 velocity=64 time=0
EXTRACT: note_off channel=9 note=38 velocity=64 time=0
EXTRACT: note_on channel=6 note=90 velocity=64 time=0.111111
EXTRACT: note_on channel=0 note=86 velocity=49 time=0
EXTRACT: note_on channel=9 note=42 velocity=64 time=0
EXTRACT: note_off channel=6 note=90 velocity=64 time=0.222222
EXTRACT: note_off channel=0 note=86 velocity=64 time=0
EXTRACT: note_off channel=3 note=45 velocity=64 time=0
EXTRACT: note_off channel=9 note=42 velocity=64 time=0
EXTRACT: note_on channel=6 note=92 velocity=64 time=0.111111
EXTRACT: note_on channel=0 note=88 velocity=49 time=0
EXTRACT: note_off channel=1 note=76 velocity=64 time=0
EXTRACT: note_off channel=1 note=73 velocity=64 time=0
EXTRACT: note_off channel=1 note=81 velocity=64 time=0
EXTRACT: note_on channel=3 note=45 velocity=64 time=0
EXTRACT: note_on channel=9 note=42 velocity=64 time=0
EXTRACT: note_off channel=6 note=92 velocity=64 time=0.222222
EXTRACT: note_off channel=0 note=88 velocity=64 time=0
EXTRACT: note_off channel=3 note=45 velocity=64 time=0
EXTRACT: note_off channel=9 note=42 velocity=64 time=0
EXTRACT: note_on channel=6 note=95 velocity=64 time=0.111111
EXTRACT: note_on channel=0 note=90 velocity=49 time=0
EXTRACT: note_on channel=3 note=42 velocity=64 time=0
EXTRACT: note_on channel=2 note=78 velocity=15 time=0
EXTRACT: note_on channel=2 note=73 velocity=15 time=0
EXTRACT: note_on channel=2 note=69 velocity=15 time=0
EXTRACT: note_on channel=9 note=42 velocity=64 time=0
EXTRACT: note_off channel=9 note=42 velocity=64 time=0.222222
EXTRACT: note_on channel=9 note=42 velocity=64 time=0.111111
EXTRACT: note_off channel=6 note=95 velocity=64 time=0.111111
EXTRACT: note_off channel=0 note=90 velocity=64 time=0
EXTRACT: note_off channel=9 note=42 velocity=64 time=0.111111
EXTRACT: note_on channel=6 note=93 velocity=64 time=0.111111
EXTRACT: note_on channel=0 note=88 velocity=49 time=0
EXTRACT: note_on channel=9 note=42 velocity=64 time=0
EXTRACT: note_on channel=9 note=38 velocity=64 time=0.1666665
EXTRACT: note_off channel=2 note=78 velocity=64 time=0.0555555
EXTRACT: note_off channel=2 note=73 velocity=64 time=0
EXTRACT: note_off channel=2 note=69 velocity=64 time=0
EXTRACT: note_off channel=9 note=42 velocity=64 time=0
EXTRACT: note_off channel=9 note=38 velocity=64 time=0.0555555
EXTRACT: note_on channel=1 note=78 velocity=37 time=0.0555555
EXTRACT: note_on channel=1 note=73 velocity=37 time=0
EXTRACT: note_on channel=1 note=69 velocity=37 time=0
EXTRACT: note_on channel=9 note=42 velocity=64 time=0
EXTRACT: note_on channel=9 note=38 velocity=64 time=0
EXTRACT: note_off channel=6 note=93 velocity=64 time=0.111111
EXTRACT: note_off channel=0 note=88 velocity=64 time=0
EXTRACT: note_off channel=9 note=42 velocity=64 time=0.111111
EXTRACT: note_off channel=9 note=38 velocity=64 time=0
EXTRACT: note_on channel=6 note=92 velocity=64 time=0.111111
EXTRACT: note_on channel=0 note=86 velocity=49 time=0
EXTRACT: note_off channel=3 note=42 velocity=64 time=0
EXTRACT: note_on channel=9 note=42 velocity=64 time=0
EXTRACT: note_on channel=9 note=38 velocity=64 time=0
EXTRACT: note_off channel=1 note=78 velocity=64 time=0.111111
EXTRACT: note_off channel=1 note=73 velocity=64 time=0
EXTRACT: note_off channel=1 note=69 velocity=64 time=0
EXTRACT: note_off channel=6 note=92 velocity=64 time=0.111111
EXTRACT: note_off channel=0 note=86 velocity=64 time=0
EXTRACT: note_off channel=9 note=42 velocity=64 time=0
EXTRACT: note_off channel=9 note=38 velocity=64 time=0
EXTRACT: note_on channel=6 note=93 velocity=64 time=0.111111
EXTRACT: note_on channel=0 note=88 velocity=49 time=0
EXTRACT: note_on channel=1 note=78 velocity=37 time=0
EXTRACT: note_on channel=1 note=73 velocity=37 time=0
EXTRACT: note_on channel=1 note=69 velocity=37 time=0
EXTRACT: note_on channel=3 note=42 velocity=64 time=0
EXTRACT: note_on channel=9 note=42 velocity=64 time=0
EXTRACT: note_on channel=9 note=38 velocity=64 time=0
EXTRACT: note_off channel=6 note=93 velocity=64 time=0.222222
EXTRACT: note_off channel=0 note=88 velocity=64 time=0
EXTRACT: note_off channel=1 note=78 velocity=64 time=0
EXTRACT: note_off channel=1 note=73 velocity=64 time=0
EXTRACT: note_off channel=1 note=69 velocity=64 time=0
EXTRACT: note_off channel=3 note=42 velocity=64 time=0
EXTRACT: note_off channel=9 note=42 velocity=64 time=0
EXTRACT: note_off channel=9 note=38 velocity=64 time=0
EXTRACT: note_on channel=6 note=100 velocity=64 time=0.111111
EXTRACT: note_on channel=0 note=100 velocity=49 time=0
EXTRACT: note_on channel=1 note=69 velocity=37 time=0
EXTRACT: note_on channel=1 note=62 velocity=37 time=0
EXTRACT: note_on channel=3 note=38 velocity=64 time=0
EXTRACT: note_on channel=2 note=78 velocity=15 time=0
EXTRACT: note_on channel=2 note=74 velocity=15 time=0
EXTRACT: note_on channel=2 note=69 velocity=15 time=0
EXTRACT: note_on channel=2 note=62 velocity=15 time=0
EXTRACT: note_on channel=9 note=42 velocity=64 time=0
EXTRACT: note_on channel=9 note=49 velocity=64 time=0
EXTRACT: note_off channel=9 note=42 velocity=64 time=0.222222
EXTRACT: note_off channel=9 note=49 velocity=64 time=0
EXTRACT: note_on channel=9 note=42 velocity=64 time=0.111111
EXTRACT: note_off channel=9 note=42 velocity=64 time=0.222222
EXTRACT: note_off channel=1 note=69 velocity=64 time=0.111111
EXTRACT: note_off channel=1 note=62 velocity=64 time=0
EXTRACT: note_on channel=9 note=42 velocity=64 time=0
EXTRACT: note_off channel=2 note=78 velocity=64 time=0.222222
EXTRACT: note_off channel=2 note=74 velocity=64 time=0
EXTRACT: note_off channel=2 note=69 velocity=64 time=0
EXTRACT: note_off channel=2 note=62 velocity=64 time=0
EXTRACT: note_off channel=9 note=42 velocity=64 time=0
EXTRACT: note_on channel=1 note=74 velocity=37 time=0.111111
EXTRACT: note_on channel=1 note=69 velocity=37 time=0
EXTRACT: note_on channel=9 note=42 velocity=64 time=0
EXTRACT: note_on channel=9 note=38 velocity=64 time=0
EXTRACT: note_off channel=9 note=42 velocity=64 time=0.222222
EXTRACT: note_off channel=9 note=38 velocity=64 time=0
EXTRACT: note_off channel=0 note=100 velocity=64 time=0.111111
EXTRACT: note_off channel=3 note=38 velocity=64 time=0
EXTRACT: note_on channel=9 note=42 velocity=64 time=0
EXTRACT: note_off channel=9 note=42 velocity=64 time=0.222222
EXTRACT: note_off channel=1 note=74 velocity=64 time=0.111111
EXTRACT: note_off channel=1 note=69 velocity=64 time=0
EXTRACT: note_on channel=3 note=38 velocity=64 time=0
EXTRACT: note_on channel=9 note=42 velocity=64 time=0
EXTRACT: note_off channel=3 note=38 velocity=64 time=0.222222
EXTRACT: note_off channel=9 note=42 velocity=64 time=0
EXTRACT: note_on channel=0 note=100 velocity=49 time=0.111111
EXTRACT: note_on channel=1 note=76 velocity=37 time=0
EXTRACT: note_on channel=1 note=71 velocity=37 time=0
EXTRACT: note_on channel=1 note=64 velocity=37 time=0
EXTRACT: note_on channel=3 note=40 velocity=64 time=0
EXTRACT: note_on channel=2 note=76 velocity=29 time=0
EXTRACT: note_on channel=2 note=64 velocity=29 time=0
EXTRACT: note_on channel=2 note=68 velocity=29 time=0
EXTRACT: note_on channel=2 note=71 velocity=29 time=0
EXTRACT: note_on channel=9 note=42 velocity=64 time=0
EXTRACT: note_off channel=0 note=100 velocity=64 time=0.111111
EXTRACT: note_off channel=1 note=76 velocity=64 time=0
EXTRACT: note_off channel=1 note=71 velocity=64 time=0
EXTRACT: note_off channel=1 note=64 velocity=64 time=0
EXTRACT: note_on channel=0 note=100 velocity=49 time=0.0555555
EXTRACT: note_on channel=1 note=76 velocity=37 time=0
EXTRACT: note_on channel=1 note=71 velocity=37 time=0
EXTRACT: note_on channel=1 note=64 velocity=37 time=0
EXTRACT: note_off channel=9 note=42 velocity=64 time=0.0555555
EXTRACT: note_off channel=0 note=100 velocity=64 time=0.0555555
EXTRACT: note_off channel=1 note=76 velocity=64 time=0
EXTRACT: note_off channel=1 note=71 velocity=64 time=0
EXTRACT: note_off channel=1 note=64 velocity=64 time=0
EXTRACT: note_on channel=0 note=100 velocity=49 time=0.0555555
EXTRACT: note_on channel=1 note=76 velocity=37 time=0
EXTRACT: note_on channel=1 note=71 velocity=37 time=0
EXTRACT: note_on channel=1 note=64 velocity=37 time=0
EXTRACT: note_on channel=9 note=42 velocity=64 time=0
EXTRACT: note_off channel=1 note=76 velocity=64 time=0.111111
EXTRACT: note_off channel=1 note=71 velocity=64 time=0
EXTRACT: note_off channel=1 note=64 velocity=64 time=0
EXTRACT: note_on channel=1 note=76 velocity=37 time=0.0555555
EXTRACT: note_on channel=1 note=71 velocity=37 time=0
EXTRACT: note_on channel=1 note=64 velocity=37 time=0
EXTRACT: note_off channel=0 note=100 velocity=64 time=0.0555555
EXTRACT: note_off channel=9 note=42 velocity=64 time=0
EXTRACT: note_off channel=1 note=76 velocity=64 time=0.0555555
EXTRACT: note_off channel=1 note=71 velocity=64 time=0
EXTRACT: note_off channel=1 note=64 velocity=64 time=0
EXTRACT: note_on channel=0 note=100 velocity=49 time=0.0555555
EXTRACT: note_on channel=1 note=76 velocity=37 time=0
EXTRACT: note_on channel=1 note=71 velocity=37 time=0
EXTRACT: note_on channel=1 note=64 velocity=37 time=0
EXTRACT: note_on channel=9 note=42 velocity=64 time=0
EXTRACT: note_off channel=6 note=100 velocity=64 time=0.0069444375
EXTRACT: note_off channel=0 note=100 velocity=64 time=0.1041665625
EXTRACT: note_off channel=1 note=76 velocity=64 time=0
EXTRACT: note_off channel=1 note=71 velocity=64 time=0
EXTRACT: note_off channel=1 note=64 velocity=64 time=0
EXTRACT: note_on channel=0 note=100 velocity=49 time=0.0555555
EXTRACT: note_on channel=1 note=76 velocity=37 time=0
EXTRACT: note_on channel=1 note=71 velocity=37 time=0
EXTRACT: note_on channel=1 note=64 velocity=37 time=0
EXTRACT: note_off channel=2 note=76 velocity=64 time=0.0555555
EXTRACT: note_off channel=2 note=64 velocity=64 time=0
EXTRACT: note_off channel=2 note=68 velocity=64 time=0
EXTRACT: note_off channel=2 note=71 velocity=64 time=0
EXTRACT: note_off channel=9 note=42 velocity=64 time=0
EXTRACT: note_off channel=0 note=100 velocity=64 time=0.0555555
EXTRACT: note_off channel=1 note=76 velocity=64 time=0
EXTRACT: note_off channel=1 note=71 velocity=64 time=0
EXTRACT: note_off channel=1 note=64 velocity=64 time=0
EXTRACT: note_on channel=0 note=100 velocity=49 time=0.0555555
EXTRACT: note_on channel=1 note=80 velocity=37 time=0
EXTRACT: note_on channel=9 note=42 velocity=64 time=0
EXTRACT: note_on channel=9 note=38 velocity=64 time=0
EXTRACT: note_off channel=1 note=80 velocity=64 time=0.111111
EXTRACT: note_on channel=1 note=88 velocity=37 time=0.0555555
EXTRACT: note_off channel=0 note=100 velocity=64 time=0.0555555
EXTRACT: note_off channel=9 note=42 velocity=64 time=0
EXTRACT: note_off channel=9 note=38 velocity=64 time=0
EXTRACT: note_off channel=1 note=88 velocity=64 time=0.0555555
EXTRACT: note_on channel=0 note=100 velocity=49 time=0.0555555
EXTRACT: note_on channel=1 note=81 velocity=37 time=0
EXTRACT: note_off channel=3 note=40 velocity=64 time=0
EXTRACT: note_on channel=9 note=42 velocity=64 time=0
EXTRACT: note_off channel=0 note=100 velocity=64 time=0.111111
EXTRACT: note_off channel=1 note=81 velocity=64 time=0
EXTRACT: note_on channel=0 note=100 velocity=49 time=0.0555555
EXTRACT: note_on channel=1 note=90 velocity=37 time=0
EXTRACT: note_off channel=9 note=42 velocity=64 time=0.0555555
EXTRACT: note_off channel=0 note=100 velocity=64 time=0.0555555
EXTRACT: note_off channel=1 note=90 velocity=64 time=0
EXTRACT: note_on channel=0 note=100 velocity=49 time=0.0555555
EXTRACT: note_on channel=1 note=83 velocity=37 time=0
EXTRACT: note_on channel=9 note=42 velocity=64 time=0
EXTRACT: note_off channel=1 note=83 velocity=64 time=0.111111
EXTRACT: note_on channel=1 note=92 velocity=37 time=0.0555555
EXTRACT: note_off channel=9 note=42 velocity=64 time=0.0555555
EXTRACT: note_off channel=1 note=92 velocity=64 time=0.0555555
EXTRACT: note_on channel=0 note=57 velocity=41 time=0.0555555
EXTRACT: note_on channel=3 note=45 velocity=64 time=0
EXTRACT: note_on channel=2 note=76 velocity=15 time=0
EXTRACT: note_on channel=2 note=73 velocity=15 time=0
EXTRACT: note_on channel=2 note=69 velocity=15 time=0
EXTRACT: note_on channel=2 note=64 velocity=15 time=0
EXTRACT: note_on channel=9 note=42 velocity=64 time=0
EXTRACT: note_off channel=0 note=57 velocity=64 time=0.222222
EXTRACT: note_off channel=9 note=42 velocity=64 time=0
EXTRACT: note_on channel=0 note=64 velocity=41 time=0.111111
EXTRACT: note_on channel=9 note=42 velocity=64 time=0
EXTRACT: note_off channel=0 note=100 velocity=64 time=0.111111
EXTRACT: note_off channel=0 note=64 velocity=64 time=0.111111
EXTRACT: note_off channel=9 note=42 velocity=64 time=0
EXTRACT: note_on channel=0 note=69 velocity=41 time=0.111111
EXTRACT: note_on channel=9 note=42 velocity=64 time=0
EXTRACT: note_on channel=0 note=71 velocity=41 time=0.1666665
EXTRACT: note_off channel=0 note=69 velocity=64 time=0.0555555
EXTRACT: note_off channel=2 note=76 velocity=64 time=0
EXTRACT: note_off channel=2 note=73 velocity=64 time=0
EXTRACT: note_off channel=2 note=69 velocity=64 time=0
EXTRACT: note_off channel=2 note=64 velocity=64 time=0
EXTRACT: note_off channel=9 note=42 velocity=64 time=0
EXTRACT: note_off channel=0 note=71 velocity=64 time=0.0555555
EXTRACT: note_on channel=0 note=73 velocity=41 time=0.0555555
EXTRACT: note_on channel=0 note=76 velocity=41 time=0
EXTRACT: note_on channel=1 note=73 velocity=37 time=0
EXTRACT: note_on channel=1 note=76 velocity=37 time=0
EXTRACT: note_on channel=1 note=81 velocity=37 time=0
EXTRACT: note_on channel=9 note=42 velocity=64 time=0
EXTRACT: note_on channel=9 note=38 velocity=64 time=0
EXTRACT: note_off channel=0 note=73 velocity=64 time=0.222222
EXTRACT: note_off channel=0 note=76 velocity=64 time=0
EXTRACT: note_off channel=9 note=42 velocity=64 time=0
EXTRACT: note_off channel=9 note=38 velocity=64 time=0
EXTRACT: note_on channel=0 note=71 velocity=41 time=0.111111
EXTRACT: note_on channel=9 note=42 velocity=64 time=0
EXTRACT: note_off channel=1 note=73 velocity=64 time=0.111111
EXTRACT: note_off channel=1 note=76 velocity=64 time=0
EXTRACT: note_off channel=1 note=81 velocity=64 time=0
EXTRACT: note_on channel=6 note=75 velocity=64 time=0.0555555
EXTRACT: note_off channel=0 note=71 velocity=64 time=0.0555555
EXTRACT: note_off channel=3 note=45 velocity=64 time=0
EXTRACT: note_off channel=9 note=42 velocity=64 time=0
EXTRACT: note_off channel=6 note=75 velocity=64 time=0.0555555
EXTRACT: note_on channel=6 note=74 velocity=64 time=0.0555555
EXTRACT: note_on channel=0 note=69 velocity=41 time=0
EXTRACT: note_on channel=1 note=73 velocity=37 time=0
EXTRACT: note_on channel=1 note=76 velocity=37 time=0
EXTRACT: note_on channel=1 note=81 velocity=37 time=0
EXTRACT: note_on channel=3 note=45 velocity=64 time=0
EXTRACT: note_on channel=9 note=42 velocity=64 time=0
EXTRACT: note_off channel=6 note=74 velocity=64 time=0.222222
EXTRACT: note_off channel=0 note=69 velocity=64 time=0
EXTRACT: note_off channel=1 note=73 velocity=64 time=0
EXTRACT: note_off channel=1 note=76 velocity=64 time=0
EXTRACT: note_off channel=1 note=81 velocity=64 time=0
EXTRACT: note_off channel=3 note=45 velocity=64 time=0
EXTRACT: note_off channel=9 note=42 velocity=64 time=0
EXTRACT: note_on channel=6 note=76 velocity=64 time=0.111111
EXTRACT: note_on channel=0 note=57 velocity=41 time=0
EXTRACT: note_on channel=3 note=42 velocity=64 time=0
EXTRACT: note_on channel=2 note=78 velocity=15 time=0
EXTRACT: note_on channel=2 note=73 velocity=15 time=0
EXTRACT: note_on channel=2 note=69 velocity=15 time=0
EXTRACT: note_on channel=9 note=42 velocity=64 time=0
EXTRACT: note_off channel=6 note=76 velocity=64 time=0.111111
EXTRACT: note_on channel=6 note=73 velocity=64 time=0.0555555
EXTRACT: note_off channel=0 note=57 velocity=64 time=0.0555555
EXTRACT: note_off channel=9 note=42 velocity=64 time=0
EXTRACT: note_off channel=6 note=73 velocity=64 time=0.0555555
EXTRACT: note_on channel=6 note=69 velocity=64 time=0.0555555
EXTRACT: note_on channel=0 note=61 velocity=41 time=0
EXTRACT: note_on channel=9 note=42 velocity=64 time=0
EXTRACT: note_off channel=6 note=69 velocity=64 time=0.222222
EXTRACT: note_off channel=0 note=61 velocity=64 time=0
EXTRACT: note_off channel=9 note=42 velocity=64 time=0
EXTRACT: note_on channel=0 note=66 velocity=41 time=0.111111
EXTRACT: note_on channel=9 note=42 velocity=64 time=0
EXTRACT: note_on channel=0 note=71 velocity=41 time=0.1666665
EXTRACT: note_on channel=9 note=38 velocity=64 time=0
EXTRACT: note_off channel=0 note=66 velocity=64 time=0.0555555
EXTRACT: note_off channel=2 note=78 velocity=64 time=0
EXTRACT: note_off channel=2 note=73 velocity=64 time=0
EXTRACT: note_off channel=2 note=69 velocity=64 time=0
EXTRACT: note_off channel=9 note=42 velocity=64 time=0
EXTRACT: note_off channel=0 note=71 velocity=64 time=0.0555555
EXTRACT: note_off channel=9 note=38 velocity=64 time=0
EXTRACT: note_on channel=6 note=88 velocity=64 time=0.0555555
EXTRACT: note_on channel=0 note=76 velocity=41 time=0
EXTRACT: note_on channel=0 note=73 velocity=41 time=0
EXTRACT: note_on channel=1 note=78 velocity=37 time=0
EXTRACT: note_on channel=1 note=73 velocity=37 time=0
EXTRACT: note_on channel=1 note=69 velocity=37 time=0
EXTRACT: note_on channel=9 note=42 velocity=64 time=0
EXTRACT: note_on channel=9 note=38 velocity=64 time=0
EXTRACT: note_off channel=6 note=88 velocity=64 time=0.222222
EXTRACT: note_off channel=0 note=76 velocity=64 time=0
EXTRACT: note_off channel=0 note=73 velocity=64 time=0
EXTRACT: note_off channel=9 note=42 velocity=64 time=0
EXTRACT: note_off channel=9 note=38 velocity=64 time=0
EXTRACT: note_on channel=6 note=88 velocity=64 time=0.111111
EXTRACT: note_on channel=0 note=71 velocity=41 time=0
EXTRACT: note_off channel=3 note=42 velocity=64 time=0
EXTRACT: note_on channel=9 note=42 velocity=64 time=0
EXTRACT: note_on channel=9 note=38 velocity=64 time=0
EXTRACT: note_off channel=1 note=78 velocity=64 time=0.111111
EXTRACT: note_off channel=1 note=73 velocity=64 time=0
EXTRACT: note_off channel=1 note=69 velocity=64 time=0
EXTRACT: note_off channel=6 note=88 velocity=64 time=0.111111
EXTRACT: note_off channel=0 note=71 velocity=64 time=0
EXTRACT: note_off channel=9 note=42 velocity=64 time=0
EXTRACT: note_off channel=9 note=38 velocity=64 time=0
EXTRACT: note_on channel=6 note=86 velocity=64 time=0.111111
EXTRACT: note_on channel=0 note=69 velocity=41 time=0
EXTRACT: note_on channel=3 note=42 velocity=64 time=0
EXTRACT: note_on channel=9 note=42 velocity=64 time=0
EXTRACT: note_on channel=9 note=38 velocity=64 time=0
EXTRACT: note_off channel=6 note=86 velocity=64 time=0.222222
EXTRACT: note_off channel=0 note=69 velocity=64 time=0
EXTRACT: note_off channel=3 note=42 velocity=64 time=0
EXTRACT: note_off channel=9 note=42 velocity=64 time=0
EXTRACT: note_off channel=9 note=38 velocity=64 time=0
EXTRACT: note_on channel=6 note=86 velocity=64 time=0.111111
EXTRACT: note_on channel=0 note=62 velocity=41 time=0
EXTRACT: note_on channel=3 note=38 velocity=64 time=0
EXTRACT: note_on channel=2 note=78 velocity=15 time=0
EXTRACT: note_on channel=2 note=74 velocity=15 time=0
EXTRACT: note_on channel=2 note=69 velocity=15 time=0
EXTRACT: note_on channel=2 note=62 velocity=15 time=0
EXTRACT: note_on channel=9 note=42 velocity=64 time=0
EXTRACT: note_off channel=6 note=86 velocity=64 time=0.222222
EXTRACT: note_off channel=0 note=62 velocity=64 time=0
EXTRACT: note_off channel=9 note=42 velocity=64 time=0
EXTRACT: note_on channel=6 note=81 velocity=64 time=0.111111
EXTRACT: note_on channel=0 note=69 velocity=41 time=0
EXTRACT: note_on channel=9 note=42 velocity=64 time=0
EXTRACT: note_off channel=6 note=81 velocity=64 time=0.111111
EXTRACT: note_on channel=6 note=78 velocity=64 time=0.0555555
EXTRACT: note_off channel=0 note=69 velocity=64 time=0.0555555
EXTRACT: note_off channel=9 note=42 velocity=64 time=0
EXTRACT: note_off channel=6 note=78 velocity=64 time=0.0555555
EXTRACT: note_on channel=6 note=81 velocity=64 time=0.0555555
EXTRACT: note_on channel=0 note=74 velocity=41 time=0
EXTRACT: note_on channel=9 note=42 velocity=64 time=0
EXTRACT: note_on channel=0 note=76 velocity=41 time=0.1666665
EXTRACT: note_off channel=6 note=81 velocity=64 time=0.0555555
EXTRACT: note_off channel=0 note=74 velocity=64 time=0
EXTRACT: note_off channel=2 note=78 velocity=64 time=0
EXTRACT: note_off channel=2 note=74 velocity=64 time=0
EXTRACT: note_off channel=2 note=69 velocity=64 time=0
EXTRACT: note_off channel=2 note=62 velocity=64 time=0
EXTRACT: note_off channel=9 note=42 velocity=64 time=0
EXTRACT: note_off channel=0 note=76 velocity=64 time=0.0555555
EXTRACT: note_on channel=6 note=85 velocity=64 time=0.0555555
EXTRACT: note_on channel=0 note=78 velocity=41 time=0
EXTRACT: note_on channel=1 note=74 velocity=37 time=0
EXTRACT: note_on channel=1 note=69 velocity=37 time=0
EXTRACT: note_on channel=1 note=62 velocity=37 time=0
EXTRACT: note_on channel=9 note=42 velocity=64 time=0
EXTRACT: note_on channel=9 note=38 velocity=64 time=0
EXTRACT: note_off channel=6 note=85 velocity=64 time=0.222222
EXTRACT: note_off channel=0 note=78 velocity=64 time=0
EXTRACT: note_off channel=9 note=42 velocity=64 time=0
EXTRACT: note_off channel=9 note=38 velocity=64 time=0
EXTRACT: note_on channel=6 note=83 velocity=64 time=0.111111
EXTRACT: note_on channel=0 note=76 velocity=41 time=0
EXTRACT: note_off channel=3 note=38 velocity=64 time=0
EXTRACT: note_on channel=9 note=42 velocity=64 time=0
EXTRACT: note_off channel=6 note=83 velocity=64 time=0.111111
EXTRACT: note_on channel=6 note=81 velocity=64 time=0.0555555
EXTRACT: note_off channel=0 note=76 velocity=64 time=0.0555555
EXTRACT: note_off channel=9 note=42 velocity=64 time=0
EXTRACT: note_on channel=0 note=69 velocity=41 time=0.111111
EXTRACT: note_off channel=1 note=74 velocity=64 time=0
EXTRACT: note_off channel=1 note=69 velocity=64 time=0
EXTRACT: note_off channel=1 note=62 velocity=64 time=0
EXTRACT: note_on channel=3 note=38 velocity=64 time=0
EXTRACT: note_on channel=9 note=42 velocity=64 time=0
EXTRACT: note_off channel=6 note=81 velocity=64 time=0.0555555
EXTRACT: note_on channel=6 note=79 velocity=64 time=0.111111
EXTRACT: note_off channel=0 note=69 velocity=64 time=0.0555555
EXTRACT: note_off channel=3 note=38 velocity=64 time=0
EXTRACT: note_off channel=9 note=42 velocity=64 time=0
EXTRACT: note_off channel=6 note=79 velocity=64 time=0.0555555
EXTRACT: note_on channel=6 note=74 velocity=64 time=0.0555555
EXTRACT: note_on channel=0 note=62 velocity=41 time=0
EXTRACT: note_on channel=3 note=38 velocity=64 time=0
EXTRACT: note_on channel=2 note=76 velocity=29 time=0
EXTRACT: note_on channel=2 note=64 velocity=29 time=0
EXTRACT: note_on channel=2 note=68 velocity=29 time=0
EXTRACT: note_on channel=2 note=71 velocity=29 time=0
EXTRACT: note_on channel=9 note=42 velocity=64 time=0
EXTRACT: note_off channel=6 note=74 velocity=64 time=0.222222
EXTRACT: note_off channel=0 note=62 velocity=64 time=0
EXTRACT: note_off channel=9 note=42 velocity=64 time=0
EXTRACT: note_on channel=6 note=72 velocity=64 time=0.111111
EXTRACT: note_on channel=0 note=69 velocity=41 time=0
EXTRACT: note_on channel=9 note=42 velocity=64 time=0
EXTRACT: note_off channel=6 note=72 velocity=64 time=0.111111
EXTRACT: note_on channel=6 note=74 velocity=64 time=0.0555555
EXTRACT: note_off channel=0 note=69 velocity=64 time=0.0555555
EXTRACT: note_off channel=9 note=42 velocity=64 time=0
EXTRACT: note_on channel=0 note=74 velocity=41 time=0.111111
EXTRACT: note_on channel=9 note=42 velocity=64 time=0
EXTRACT: note_off channel=6 note=74 velocity=64 time=0.0555555
EXTRACT: note_on channel=6 note=76 velocity=64 time=0.111111
EXTRACT: note_on channel=0 note=76 velocity=41 time=0
EXTRACT: note_on channel=1 note=76 velocity=37 time=0
EXTRACT: note_on channel=9 note=38 velocity=64 time=0
EXTRACT: note_off channel=0 note=74 velocity=64 time=0.0555555
EXTRACT: note_off channel=2 note=76 velocity=64 time=0
EXTRACT: note_off channel=2 note=64 velocity=64 time=0
EXTRACT: note_off channel=2 note=68 velocity=64 time=0
EXTRACT: note_off channel=2 note=71 velocity=64 time=0
EXTRACT: note_off channel=9 note=42 velocity=64 time=0
EXTRACT: note_off channel=6 note=76 velocity=64 time=0.0555555
EXTRACT: note_off channel=0 note=76 velocity=64 time=0
EXTRACT: note_off channel=1 note=76 velocity=64 time=0
EXTRACT: note_off channel=9 note=38 velocity=64 time=0
EXTRACT: note_on channel=6 note=72 velocity=64 time=0.0555555
EXTRACT: note_on channel=0 note=77 velocity=41 time=0
EXTRACT: note_on channel=1 note=74 velocity=37 time=0
EXTRACT: note_on channel=1 note=77 velocity=37 time=0
EXTRACT: note_on channel=1 note=81 velocity=37 time=0
EXTRACT: note_on channel=9 note=42 velocity=64 time=0
EXTRACT: note_on channel=9 note=38 velocity=64 time=0
EXTRACT: note_off channel=6 note=72 velocity=64 time=0.222222
EXTRACT: note_off channel=0 note=77 velocity=64 time=0
EXTRACT: note_off channel=1 note=74 velocity=64 time=0
EXTRACT: note_off channel=1 note=77 velocity=64 time=0
EXTRACT: note_off channel=1 note=81 velocity=64 time=0
EXTRACT: note_off channel=9 note=42 velocity=64 time=0
EXTRACT: note_off channel=9 note=38 velocity=64 time=0
EXTRACT: note_on channel=6 note=69 velocity=64 time=0.111111
EXTRACT: note_on channel=0 note=76 velocity=41 time=0
EXTRACT: note_on channel=1 note=74 velocity=37 time=0
EXTRACT: note_on channel=1 note=77 velocity=37 time=0
EXTRACT: note_on channel=1 note=81 velocity=37 time=0
EXTRACT: note_off channel=3 note=38 velocity=64 time=0
EXTRACT: note_on channel=9 note=42 velocity=64 time=0
EXTRACT: note_on channel=9 note=38 velocity=64 time=0
EXTRACT: note_off channel=1 note=74 velocity=64 time=0.111111
EXTRACT: note_off channel=1 note=77 velocity=64 time=0
EXTRACT: note_off channel=1 note=81 velocity=64 time=0
EXTRACT: note_on channel=1 note=74 velocity=37 time=0.0555555
EXTRACT: note_on channel=1 note=77 velocity=37 time=0
EXTRACT: note_on channel=1 note=81 velocity=37 time=0
EXTRACT: note_off channel=6 note=69 velocity=64 time=0.0555555
EXTRACT: note_off channel=0 note=76 velocity=64 time=0
EXTRACT: note_off channel=9 note=42 velocity=64 time=0
EXTRACT: note_off channel=9 note=38 velocity=64 time=0
EXTRACT: note_off channel=1 note=74 velocity=64 time=0.0555555
EXTRACT: note_off channel=1 note=77 velocity=64 time=0
EXTRACT: note_off channel=1 note=81 velocity=64 time=0
EXTRACT: note_on channel=0 note=74 velocity=41 time=0.0555555
EXTRACT: note_on channel=3 note=38 velocity=64 time=0
EXTRACT: note_on channel=9 note=42 velocity=64 time=0
EXTRACT: note_on channel=9 note=38 velocity=64 time=0
EXTRACT: note_off channel=0 note=74 velocity=64 time=0.222222
EXTRACT: note_off channel=3 note=38 velocity=64 time=0
EXTRACT: note_off channel=9 note=42 velocity=64 time=0
EXTRACT: note_off channel=9 note=38 velocity=64 time=0
EXTRACT: note_on channel=0 note=57 velocity=49 time=0.111111
EXTRACT: note_on channel=1 note=88 velocity=37 time=0
EXTRACT: note_on channel=1 note=85 velocity=37 time=0
EXTRACT: note_on channel=3 note=45 velocity=64 time=0
EXTRACT: note_on channel=2 note=76 velocity=29 time=0
EXTRACT: note_on channel=2 note=73 velocity=29 time=0
EXTRACT: note_on channel=2 note=69 velocity=29 time=0
EXTRACT: note_on channel=2 note=64 velocity=29 time=0
EXTRACT: note_on channel=9 note=42 velocity=64 time=0
EXTRACT: note_on channel=9 note=49 velocity=64 time=0
EXTRACT: note_off channel=0 note=57 velocity=64 time=0.222222
EXTRACT: note_off channel=9 note=42 velocity=64 time=0
EXTRACT: note_off channel=9 note=49 velocity=64 time=0
EXTRACT: note_on channel=0 note=64 velocity=49 time=0.111111
EXTRACT: note_on channel=9 note=42 velocity=64 time=0
EXTRACT: note_off channel=0 note=64 velocity=64 time=0.222222
EXTRACT: note_off channel=9 note=42 velocity=64 time=0
EXTRACT: note_on channel=0 note=69 velocity=49 time=0.111111
EXTRACT: note_off channel=1 note=88 velocity=64 time=0
EXTRACT: note_off channel=1 note=85 velocity=64 time=0
EXTRACT: note_on channel=9 note=42 velocity=64 time=0
EXTRACT: note_on channel=0 note=71 velocity=49 time=0.1666665
EXTRACT: note_off channel=0 note=69 velocity=64 time=0.0555555
EXTRACT: note_off channel=2 note=76 velocity=64 time=0
EXTRACT: note_off channel=2 note=73 velocity=64 time=0
EXTRACT: note_off channel=2 note=69 velocity=64 time=0
EXTRACT: note_off channel=2 note=64 velocity=64 time=0
EXTRACT: note_off channel=9 note=42 velocity=64 time=0
EXTRACT: note_off channel=0 note=71 velocity=64 time=0.0555555
EXTRACT: note_on channel=0 note=73 velocity=49 time=0.0555555
EXTRACT: note_on channel=0 note=76 velocity=49 time=0
EXTRACT: note_on channel=1 note=93 velocity=37 time=0
EXTRACT: note_on channel=9 note=42 velocity=64 time=0
EXTRACT: note_on channel=9 note=38 velocity=64 time=0
EXTRACT: note_off channel=0 note=73 velocity=64 time=0.222222
EXTRACT: note_off channel=0 note=76 velocity=64 time=0
EXTRACT: note_off channel=9 note=42 velocity=64 time=0
EXTRACT: note_off channel=9 note=38 velocity=64 time=0
EXTRACT: note_on channel=0 note=71 velocity=49 time=0.111111
EXTRACT: note_on channel=9 note=42 velocity=63 time=0
EXTRACT: note_off channel=0 note=71 velocity=64 time=0.222222
EXTRACT: note_off channel=3 note=45 velocity=64 time=0
EXTRACT: note_off channel=9 note=42 velocity=64 time=0
EXTRACT: note_on channel=0 note=69 velocity=49 time=0.111111
EXTRACT: note_off channel=1 note=93 velocity=64 time=0
EXTRACT: note_on channel=3 note=45 velocity=63 time=0
EXTRACT: note_on channel=9 note=42 velocity=63 time=0
EXTRACT: note_off channel=0 note=69 velocity=64 time=0.222222
EXTRACT: note_off channel=3 note=45 velocity=64 time=0
EXTRACT: note_off channel=9 note=42 velocity=64 time=0
EXTRACT: note_on channel=0 note=57 velocity=49 time=0.111111
EXTRACT: note_on channel=3 note=42 velocity=63 time=0
EXTRACT: note_on channel=2 note=78 velocity=28 time=0
EXTRACT: note_on channel=2 note=73 velocity=28 time=0
EXTRACT: note_on channel=2 note=69 velocity=28 time=0
EXTRACT: note_on channel=9 note=42 velocity=63 time=0
EXTRACT: note_off channel=0 note=57 velocity=64 time=0.222222
EXTRACT: note_off channel=9 note=42 velocity=64 time=0
EXTRACT: note_on channel=0 note=61 velocity=48 time=0.111111
EXTRACT: note_on channel=9 note=42 velocity=62 time=0
EXTRACT: note_off channel=0 note=61 velocity=64 time=0.222222
EXTRACT: note_off channel=9 note=42 velocity=64 time=0
EXTRACT: note_on channel=0 note=66 velocity=48 time=0.111111
EXTRACT: note_on channel=9 note=42 velocity=62 time=0
EXTRACT: note_on channel=0 note=71 velocity=48 time=0.1666665
EXTRACT: note_off channel=0 note=66 velocity=64 time=0.0555555
EXTRACT: note_off channel=2 note=78 velocity=64 time=0
EXTRACT: note_off channel=2 note=73 velocity=64 time=0
EXTRACT: note_off channel=2 note=69 velocity=64 time=0
EXTRACT: note_off channel=9 note=42 velocity=64 time=0
EXTRACT: note_off channel=0 note=71 velocity=64 time=0.0555555
EXTRACT: note_on channel=0 note=76 velocity=48 time=0.0555555
EXTRACT: note_on channel=0 note=73 velocity=48 time=0
EXTRACT: note_on channel=1 note=81 velocity=36 time=0
EXTRACT: note_on channel=1 note=85 velocity=36 time=0
EXTRACT: note_on channel=1 note=90 velocity=36 time=0
EXTRACT: note_on channel=9 note=42 velocity=62 time=0
EXTRACT: note_on channel=9 note=38 velocity=62 time=0
EXTRACT: note_off channel=0 note=76 velocity=64 time=0.222222
EXTRACT: note_off channel=0 note=73 velocity=64 time=0
EXTRACT: note_off channel=9 note=42 velocity=64 time=0
EXTRACT: note_off channel=9 note=38 velocity=64 time=0
EXTRACT: note_on channel=0 note=71 velocity=48 time=0.111111
EXTRACT: note_off channel=3 note=42 velocity=64 time=0
EXTRACT: note_on channel=9 note=42 velocity=62 time=0
EXTRACT: note_off channel=0 note=71 velocity=64 time=0.222222
EXTRACT: note_off channel=9 note=42 velocity=64 time=0
EXTRACT: note_on channel=0 note=69 velocity=47 time=0.111111
EXTRACT: note_off channel=1 note=81 velocity=64 time=0
EXTRACT: note_off channel=1 note=85 velocity=64 time=0
EXTRACT: note_off channel=1 note=90 velocity=64 time=0
EXTRACT: note_on channel=3 note=42 velocity=61 time=0
EXTRACT: note_on channel=9 note=42 velocity=61 time=0
EXTRACT: note_off channel=0 note=69 velocity=64 time=0.222222
EXTRACT: note_off channel=3 note=42 velocity=64 time=0
EXTRACT: note_off channel=9 note=42 velocity=64 time=0
EXTRACT: note_on channel=0 note=62 velocity=47 time=0.111111
EXTRACT: note_on channel=3 note=38 velocity=61 time=0
EXTRACT: note_on channel=2 note=78 velocity=28 time=0
EXTRACT: note_on channel=2 note=74 velocity=28 time=0
EXTRACT: note_on channel=2 note=69 velocity=28 time=0
EXTRACT: note_on channel=2 note=62 velocity=28 time=0
EXTRACT: note_on channel=9 note=42 velocity=61 time=0
EXTRACT: note_off channel=0 note=62 velocity=64 time=0.222222
EXTRACT: note_off channel=9 note=42 velocity=64 time=0
EXTRACT: note_on channel=0 note=62 velocity=47 time=0.111111
EXTRACT: note_on channel=0 note=69 velocity=47 time=0
EXTRACT: note_on channel=0 note=74 velocity=47 time=0
EXTRACT: note_on channel=0 note=78 velocity=47 time=0
EXTRACT: note_on channel=9 note=42 velocity=61 time=0
EXTRACT: note_off channel=0 note=62 velocity=64 time=0.222222
EXTRACT: note_off channel=0 note=69 velocity=64 time=0
EXTRACT: note_off channel=0 note=74 velocity=64 time=0
EXTRACT: note_off channel=0 note=78 velocity=64 time=0
EXTRACT: note_off channel=9 note=42 velocity=64 time=0
EXTRACT: note_on channel=0 note=78 velocity=46 time=0.111111
EXTRACT: note_on channel=0 note=74 velocity=46 time=0
EXTRACT: note_on channel=0 note=69 velocity=46 time=0
EXTRACT: note_on channel=0 note=62 velocity=46 time=0
EXTRACT: note_on channel=1 note=78 velocity=35 time=0
EXTRACT: note_on channel=9 note=42 velocity=60 time=0
EXTRACT: note_off channel=0 note=78 velocity=64 time=0.111111
EXTRACT: note_off channel=0 note=74 velocity=64 time=0
EXTRACT: note_off channel=0 note=69 velocity=64 time=0
EXTRACT: note_off channel=0 note=62 velocity=64 time=0
EXTRACT: note_on channel=0 note=78 velocity=46 time=0.0555555
EXTRACT: note_on channel=0 note=74 velocity=46 time=0
EXTRACT: note_on channel=0 note=69 velocity=46 time=0
EXTRACT: note_on channel=0 note=62 velocity=46 time=0
EXTRACT: note_off channel=1 note=78 velocity=64 time=0.0555555
EXTRACT: note_off channel=2 note=78 velocity=64 time=0
EXTRACT: note_off channel=2 note=74 velocity=64 time=0
EXTRACT: note_off channel=2 note=69 velocity=64 time=0
EXTRACT: note_off channel=2 note=62 velocity=64 time=0
EXTRACT: note_off channel=9 note=42 velocity=64 time=0
EXTRACT: note_off channel=0 note=78 velocity=64 time=0.0555555
EXTRACT: note_off channel=0 note=74 velocity=64 time=0
EXTRACT: note_off channel=0 note=69 velocity=64 time=0
EXTRACT: note_off channel=0 note=62 velocity=64 time=0
EXTRACT: note_on channel=0 note=62 velocity=46 time=0.0555555
EXTRACT: note_on channel=1 note=81 velocity=35 time=0
EXTRACT: note_on channel=1 note=86 velocity=35 time=0
EXTRACT: note_on channel=9 note=42 velocity=60 time=0
EXTRACT: note_on channel=9 note=38 velocity=60 time=0
EXTRACT: note_off channel=0 note=62 velocity=64 time=0.222222
EXTRACT: note_off channel=9 note=42 velocity=64 time=0
EXTRACT: note_off channel=9 note=38 velocity=64 time=0
EXTRACT: note_on channel=0 note=78 velocity=46 time=0.111111
EXTRACT: note_on channel=0 note=74 velocity=46 time=0
EXTRACT: note_on channel=0 note=69 velocity=46 time=0
EXTRACT: note_on channel=0 note=62 velocity=46 time=0
EXTRACT: note_off channel=3 note=38 velocity=64 time=0
EXTRACT: note_on channel=9 note=42 velocity=60 time=0
EXTRACT: note_off channel=0 note=78 velocity=64 time=0.222222
EXTRACT: note_off channel=0 note=74 velocity=64 time=0
EXTRACT: note_off channel=0 note=69 velocity=64 time=0
EXTRACT: note_off channel=0 note=62 velocity=64 time=0
EXTRACT: note_off channel=9 note=42 velocity=64 time=0
EXTRACT: note_on channel=0 note=78 velocity=46 time=0.111111
EXTRACT: note_on channel=0 note=74 velocity=46 time=0
EXTRACT: note_on channel=0 note=69 velocity=46 time=0
EXTRACT: note_on channel=0 note=62 velocity=46 time=0
EXTRACT: note_off channel=1 note=81 velocity=64 time=0
EXTRACT: note_off channel=1 note=86 velocity=64 time=0
EXTRACT: note_on channel=3 note=38 velocity=59 time=0
EXTRACT: note_on channel=9 note=42 velocity=59 time=0
EXTRACT: note_off channel=0 note=78 velocity=64 time=0.111111
EXTRACT: note_off channel=0 note=74 velocity=64 time=0
EXTRACT: note_off channel=0 note=69 velocity=64 time=0
EXTRACT: note_off channel=0 note=62 velocity=64 time=0
EXTRACT: note_on channel=0 note=78 velocity=46 time=0.0555555
EXTRACT: note_on channel=0 note=74 velocity=46 time=0
EXTRACT: note_on channel=0 note=69 velocity=46 time=0
EXTRACT: note_on channel=0 note=62 velocity=46 time=0
EXTRACT: note_off channel=3 note=38 velocity=64 time=0.0555555
EXTRACT: note_off channel=9 note=42 velocity=64 time=0
EXTRACT: note_off channel=0 note=78 velocity=64 time=0.0555555
EXTRACT: note_off channel=0 note=74 velocity=64 time=0
EXTRACT: note_off channel=0 note=69 velocity=64 time=0
EXTRACT: note_off channel=0 note=62 velocity=64 time=0
EXTRACT: note_on channel=0 note=68 velocity=46 time=0.0555555
EXTRACT: note_on channel=1 note=80 velocity=34 time=0
EXTRACT: note_on channel=3 note=40 velocity=59 time=0
EXTRACT: note_on channel=2 note=77 velocity=27 time=0
EXTRACT: note_on channel=2 note=74 velocity=27 time=0
EXTRACT: note_on channel=2 note=69 velocity=27 time=0
EXTRACT: note_on channel=2 note=62 velocity=27 time=0
EXTRACT: note_on channel=9 note=42 velocity=59 time=0
EXTRACT: note_off channel=0 note=68 velocity=64 time=0.222222
EXTRACT: note_off channel=1 note=80 velocity=64 time=0
EXTRACT: note_off channel=9 note=42 velocity=64 time=0
EXTRACT: note_on channel=0 note=76 velocity=46 time=0.111111
EXTRACT: note_on channel=0 note=71 velocity=46 time=0
EXTRACT: note_on channel=1 note=88 velocity=34 time=0
EXTRACT: note_on channel=9 note=42 velocity=59 time=0
EXTRACT: note_off channel=0 note=76 velocity=64 time=0.222222
EXTRACT: note_off channel=0 note=71 velocity=64 time=0
EXTRACT: note_off channel=1 note=88 velocity=64 time=0
EXTRACT: note_off channel=9 note=42 velocity=64 time=0
EXTRACT: note_on channel=0 note=76 velocity=46 time=0.111111
EXTRACT: note_on channel=0 note=71 velocity=46 time=0
EXTRACT: note_on channel=1 note=81 velocity=34 time=0
EXTRACT: note_on channel=9 note=42 velocity=59 time=0
EXTRACT: note_on channel=9 note=38 velocity=58 time=0.1666665
EXTRACT: note_off channel=0 note=76 velocity=64 time=0.0555555
EXTRACT: note_off channel=0 note=71 velocity=64 time=0
EXTRACT: note_off channel=1 note=81 velocity=64 time=0
EXTRACT: note_off channel=2 note=62 velocity=64 time=0
EXTRACT: note_off channel=9 note=42 velocity=64 time=0
EXTRACT: note_off channel=9 note=38 velocity=64 time=0.0555555
EXTRACT: note_on channel=0 note=68 velocity=45 time=0.0555555
EXTRACT: note_on channel=1 note=88 velocity=34 time=0
EXTRACT: note_on channel=9 note=42 velocity=58 time=0
EXTRACT: note_on channel=9 note=38 velocity=58 time=0
EXTRACT: note_off channel=2 note=77 velocity=64 time=0.111111
EXTRACT: note_off channel=2 note=74 velocity=64 time=0
EXTRACT: note_off channel=2 note=69 velocity=64 time=0
EXTRACT: note_off channel=0 note=68 velocity=64 time=0.111111
EXTRACT: note_off channel=1 note=88 velocity=64 time=0
EXTRACT: note_off channel=9 note=42 velocity=64 time=0
EXTRACT: note_off channel=9 note=38 velocity=64 time=0
EXTRACT: note_on channel=0 note=76 velocity=45 time=0.111111
EXTRACT: note_on channel=0 note=71 velocity=45 time=0
EXTRACT: note_on channel=1 note=83 velocity=34 time=0
EXTRACT: note_off channel=3 note=40 velocity=64 time=0
EXTRACT: note_on channel=9 note=42 velocity=58 time=0
EXTRACT: note_on channel=9 note=38 velocity=58 time=0
EXTRACT: note_off channel=0 note=76 velocity=64 time=0.111111
EXTRACT: note_off channel=0 note=71 velocity=64 time=0
EXTRACT: note_on channel=0 note=76 velocity=45 time=0.0555555
EXTRACT: note_on channel=0 note=71 velocity=45 time=0
EXTRACT: note_off channel=1 note=83 velocity=64 time=0.0555555
EXTRACT: note_off channel=9 note=42 velocity=64 time=0
EXTRACT: note_off channel=9 note=38 velocity=64 time=0
EXTRACT: note_off channel=0 note=76 velocity=64 time=0.0555555
EXTRACT: note_off channel=0 note=71 velocity=64 time=0
EXTRACT: note_on channel=0 note=76 velocity=45 time=0.0555555
EXTRACT: note_on channel=0 note=71 velocity=45 time=0
EXTRACT: note_on channel=1 note=88 velocity=34 time=0
EXTRACT: note_on channel=9 note=42 velocity=58 time=0
EXTRACT: note_on channel=9 note=38 velocity=58 time=0
EXTRACT: note_off channel=0 note=76 velocity=64 time=0.111111
EXTRACT: note_off channel=0 note=71 velocity=64 time=0
EXTRACT: note_on channel=0 note=76 velocity=45 time=0.0555555
EXTRACT: note_on channel=0 note=71 velocity=45 time=0
EXTRACT: note_off channel=1 note=88 velocity=64 time=0.0555555
EXTRACT: note_off channel=9 note=42 velocity=64 time=0
EXTRACT: note_off channel=9 note=38 velocity=64 time=0
EXTRACT: note_off channel=0 note=76 velocity=64 time=0.0555555
EXTRACT: note_off channel=0 note=71 velocity=64 time=0
EXTRACT: note_on channel=0 note=57 velocity=44 time=0.0555555
EXTRACT: note_on channel=1 note=83 velocity=33 time=0
EXTRACT: note_on channel=3 note=45 velocity=57 time=0
EXTRACT: note_on channel=2 note=76 velocity=26 time=0
EXTRACT: note_on channel=2 note=73 velocity=26 time=0
EXTRACT: note_on channel=2 note=69 velocity=26 time=0
EXTRACT: note_on channel=2 note=64 velocity=26 time=0
EXTRACT: note_on channel=9 note=42 velocity=57 time=0
EXTRACT: note_off channel=0 note=57 velocity=64 time=0.222222
EXTRACT: note_off channel=9 note=42 velocity=64 time=0
EXTRACT: note_on channel=0 note=64 velocity=44 time=0.111111
EXTRACT: note_on channel=9 note=42 velocity=57 time=0
EXTRACT: note_off channel=1 note=83 velocity=64 time=0.111111
EXTRACT: note_off channel=0 note=64 velocity=64 time=0.111111
EXTRACT: note_off channel=9 note=42 velocity=64 time=0
EXTRACT: note_on channel=0 note=69 velocity=44 time=0.111111
EXTRACT: note_on channel=1 note=85 velocity=33 time=0
EXTRACT: note_on channel=9 note=42 velocity=57 time=0
EXTRACT: note_on channel=0 note=71 velocity=44 time=0.1666665
EXTRACT: note_off channel=0 note=69 velocity=64 time=0.0555555
EXTRACT: note_off channel=1 note=85 velocity=64 time=0
EXTRACT: note_off channel=2 note=76 velocity=64 time=0
EXTRACT: note_off channel=2 note=73 velocity=64 time=0
EXTRACT: note_off channel=2 note=69 velocity=64 time=0
EXTRACT: note_off channel=2 note=64 velocity=64 time=0
EXTRACT: note_off channel=9 note=42 velocity=64 time=0
EXTRACT: note_off channel=0 note=71 velocity=64 time=0.0555555
EXTRACT: note_on channel=0 note=73 velocity=43 time=0.0555555
EXTRACT: note_on channel=0 note=76 velocity=43 time=0
EXTRACT: note_on channel=1 note=88 velocity=33 time=0
EXTRACT: note_on channel=1 note=93 velocity=33 time=0
EXTRACT: note_on channel=9 note=42 velocity=56 time=0
EXTRACT: note_on channel=9 note=38 velocity=56 time=0
EXTRACT: note_off channel=0 note=73 velocity=64 time=0.222222
EXTRACT: note_off channel=0 note=76 velocity=64 time=0
EXTRACT: note_off channel=9 note=42 velocity=64 time=0
EXTRACT: note_off channel=9 note=38 velocity=64 time=0
EXTRACT: note_on channel=0 note=71 velocity=43 time=0.111111
EXTRACT: note_on channel=9 note=42 velocity=56 time=0
EXTRACT: note_off channel=0 note=71 velocity=64 time=0.222222
EXTRACT: note_off channel=3 note=45 velocity=64 time=0
EXTRACT: note_off channel=9 note=42 velocity=64 time=0
EXTRACT: note_on channel=0 note=69 velocity=43 time=0.111111
EXTRACT: note_off channel=1 note=88 velocity=64 time=0
EXTRACT: note_off channel=1 note=93 velocity=64 time=0
EXTRACT: note_on channel=3 note=45 velocity=56 time=0
EXTRACT: note_on channel=9 note=42 velocity=56 time=0
EXTRACT: note_off channel=0 note=69 velocity=64 time=0.222222
EXTRACT: note_off channel=3 note=45 velocity=64 time=0
EXTRACT: note_off channel=9 note=42 velocity=64 time=0
EXTRACT: note_on channel=0 note=57 velocity=43 time=0.111111
EXTRACT: note_on channel=3 note=42 velocity=56 time=0
EXTRACT: note_on channel=2 note=78 velocity=25 time=0
EXTRACT: note_on channel=2 note=73 velocity=25 time=0
EXTRACT: note_on channel=2 note=69 velocity=25 time=0
EXTRACT: note_on channel=9 note=42 velocity=56 time=0
EXTRACT: note_off channel=0 note=57 velocity=64 time=0.222222
EXTRACT: note_off channel=9 note=42 velocity=64 time=0
EXTRACT: note_on channel=0 note=61 velocity=42 time=0.111111
EXTRACT: note_on channel=9 note=42 velocity=55 time=0
EXTRACT: note_off channel=0 note=61 velocity=64 time=0.222222
EXTRACT: note_off channel=9 note=42 velocity=64 time=0
EXTRACT: note_on channel=0 note=66 velocity=42 time=0.111111
EXTRACT: note_on channel=9 note=42 velocity=55 time=0
EXTRACT: note_on channel=0 note=71 velocity=42 time=0.1666665
EXTRACT: note_on channel=9 note=38 velocity=55 time=0
EXTRACT: note_off channel=0 note=66 velocity=64 time=0.0555555
EXTRACT: note_off channel=2 note=78 velocity=64 time=0
EXTRACT: note_off channel=2 note=73 velocity=64 time=0
EXTRACT: note_off channel=2 note=69 velocity=64 time=0
EXTRACT: note_off channel=9 note=42 velocity=64 time=0
EXTRACT: note_off channel=0 note=71 velocity=64 time=0.0555555
EXTRACT: note_off channel=9 note=38 velocity=64 time=0
EXTRACT: note_on channel=0 note=76 velocity=42 time=0.0555555
EXTRACT: note_on channel=0 note=73 velocity=42 time=0
EXTRACT: note_on channel=1 note=90 velocity=32 time=0
EXTRACT: note_on channel=1 note=85 velocity=32 time=0
EXTRACT: note_on channel=1 note=81 velocity=32 time=0
EXTRACT: note_on channel=9 note=42 velocity=55 time=0
EXTRACT: note_on channel=9 note=38 velocity=55 time=0
EXTRACT: note_off channel=0 note=76 velocity=64 time=0.222222
EXTRACT: note_off channel=0 note=73 velocity=64 time=0
EXTRACT: note_off channel=9 note=42 velocity=64 time=0
EXTRACT: note_off channel=9 note=38 velocity=64 time=0
EXTRACT: note_on channel=0 note=71 velocity=42 time=0.111111
EXTRACT: note_off channel=3 note=42 velocity=64 time=0
EXTRACT: note_on channel=9 note=42 velocity=54 time=0
EXTRACT: note_on channel=9 note=38 velocity=54 time=0
EXTRACT: note_off channel=0 note=71 velocity=64 time=0.222222
EXTRACT: note_off channel=9 note=42 velocity=64 time=0
EXTRACT: note_off channel=9 note=38 velocity=64 time=0
EXTRACT: note_on channel=0 note=69 velocity=42 time=0.111111
EXTRACT: note_off channel=1 note=90 velocity=64 time=0
EXTRACT: note_off channel=1 note=85 velocity=64 time=0
EXTRACT: note_off channel=1 note=81 velocity=64 time=0
EXTRACT: note_on channel=3 note=42 velocity=54 time=0
EXTRACT: note_on channel=9 note=42 velocity=54 time=0
EXTRACT: note_on channel=9 note=38 velocity=54 time=0
EXTRACT: note_off channel=0 note=69 velocity=64 time=0.222222
EXTRACT: note_off channel=3 note=42 velocity=64 time=0
EXTRACT: note_off channel=9 note=42 velocity=64 time=0
EXTRACT: note_off channel=9 note=38 velocity=64 time=0
EXTRACT: note_on channel=3 note=38 velocity=54 time=0.111111
EXTRACT: note_on channel=2 note=78 velocity=24 time=0
EXTRACT: note_on channel=2 note=74 velocity=24 time=0
EXTRACT: note_on channel=2 note=69 velocity=24 time=0
EXTRACT: note_on channel=2 note=62 velocity=24 time=0
EXTRACT: note_on channel=9 note=42 velocity=54 time=0
EXTRACT: note_on channel=9 note=49 velocity=54 time=0
EXTRACT: note_off channel=9 note=42 velocity=64 time=0.222222
EXTRACT: note_off channel=9 note=49 velocity=64 time=0
EXTRACT: note_on channel=9 note=42 velocity=54 time=0.111111
EXTRACT: note_off channel=9 note=42 velocity=64 time=0.222222
EXTRACT: note_on channel=9 note=42 velocity=53 time=0.111111
EXTRACT: note_off channel=2 note=78 velocity=64 time=0.222222
EXTRACT: note_off channel=2 note=74 velocity=64 time=0
EXTRACT: note_off channel=2 note=69 velocity=64 time=0
EXTRACT: note_off channel=2 note=62 velocity=64 time=0
EXTRACT: note_off channel=9 note=42 velocity=64 time=0
EXTRACT: note_on channel=0 note=78 velocity=41 time=0.111111
EXTRACT: note_on channel=0 note=81 velocity=41 time=0
EXTRACT: note_on channel=0 note=86 velocity=41 time=0
EXTRACT: note_on channel=1 note=78 velocity=31 time=0
EXTRACT: note_on channel=1 note=81 velocity=31 time=0
EXTRACT: note_on channel=1 note=86 velocity=31 time=0
EXTRACT: note_on channel=9 note=42 velocity=53 time=0
EXTRACT: note_on channel=9 note=38 velocity=53 time=0
EXTRACT: note_off channel=9 note=42 velocity=64 time=0.222222
EXTRACT: note_off channel=9 note=38 velocity=64 time=0
EXTRACT: note_off channel=3 note=38 velocity=64 time=0.111111
EXTRACT: note_on channel=9 note=42 velocity=53 time=0
EXTRACT: note_off channel=9 note=42 velocity=64 time=0.222222
EXTRACT: note_off channel=0 note=78 velocity=64 time=0.111111
EXTRACT: note_off channel=0 note=81 velocity=64 time=0
EXTRACT: note_off channel=0 note=86 velocity=64 time=0
EXTRACT: note_off channel=1 note=78 velocity=64 time=0
EXTRACT: note_off channel=1 note=81 velocity=64 time=0
EXTRACT: note_off channel=1 note=86 velocity=64 time=0
EXTRACT: note_on channel=3 note=38 velocity=52 time=0
EXTRACT: note_on channel=9 note=42 velocity=52 time=0
EXTRACT: note_off channel=3 note=38 velocity=64 time=0.222222
EXTRACT: note_off channel=9 note=42 velocity=64 time=0
EXTRACT: note_on channel=3 note=38 velocity=52 time=0.111111
EXTRACT: note_on channel=2 note=76 velocity=23 time=0
EXTRACT: note_on channel=2 note=64 velocity=23 time=0
EXTRACT: note_on channel=2 note=68 velocity=23 time=0
EXTRACT: note_on channel=2 note=71 velocity=23 time=0
EXTRACT: note_on channel=9 note=42 velocity=52 time=0
EXTRACT: note_off channel=9 note=42 velocity=64 time=0.222222
EXTRACT: note_on channel=1 note=77 velocity=30 time=0.111111
EXTRACT: note_on channel=9 note=42 velocity=52 time=0
EXTRACT: note_off channel=1 note=77 velocity=64 time=0.111111
EXTRACT: note_on channel=1 note=81 velocity=30 time=0.0555555
EXTRACT: note_off channel=9 note=42 velocity=64 time=0.0555555
EXTRACT: note_off channel=1 note=81 velocity=64 time=0.0555555
EXTRACT: note_on channel=1 note=86 velocity=30 time=0.0555555
EXTRACT: note_on channel=9 note=42 velocity=51 time=0
EXTRACT: note_off channel=1 note=86 velocity=64 time=0.111111
EXTRACT: note_on channel=1 note=81 velocity=30 time=0.0555555
EXTRACT: note_off channel=2 note=76 velocity=64 time=0.0555555
EXTRACT: note_off channel=2 note=64 velocity=64 time=0
EXTRACT: note_off channel=2 note=68 velocity=64 time=0
EXTRACT: note_off channel=2 note=71 velocity=64 time=0
EXTRACT: note_off channel=9 note=42 velocity=64 time=0
EXTRACT: note_off channel=1 note=81 velocity=64 time=0.0555555
EXTRACT: note_on channel=1 note=78 velocity=30 time=0.0555555
EXTRACT: note_on channel=9 note=42 velocity=51 time=0
EXTRACT: note_on channel=9 note=38 velocity=51 time=0
EXTRACT: note_off channel=1 note=78 velocity=64 time=0.222222
EXTRACT: note_off channel=9 note=42 velocity=64 time=0
EXTRACT: note_off channel=9 note=38 velocity=64 time=0
EXTRACT: note_on channel=1 note=86 velocity=30 time=0.111111
EXTRACT: note_on channel=1 note=84 velocity=30 time=0
EXTRACT: note_off channel=3 note=38 velocity=64 time=0
EXTRACT: note_on channel=9 note=42 velocity=51 time=0
EXTRACT: note_off channel=1 note=84 velocity=64 time=0.111111
EXTRACT: note_off channel=9 note=42 velocity=64 time=0.111111
EXTRACT: note_off channel=1 note=86 velocity=64 time=0.111111
EXTRACT: note_on channel=3 note=38 velocity=51 time=0
EXTRACT: note_on channel=9 note=42 velocity=51 time=0
EXTRACT: note_on channel=1 note=86 velocity=29 time=0.1666665
EXTRACT: note_off channel=3 note=38 velocity=64 time=0.0555555
EXTRACT: note_off channel=9 note=42 velocity=64 time=0
EXTRACT: note_off channel=1 note=86 velocity=64 time=0.0555555
EXTRACT: note_on channel=3 note=45 velocity=50 time=0.0555555
EXTRACT: note_on channel=2 note=76 velocity=23 time=0
EXTRACT: note_on channel=2 note=73 velocity=23 time=0
EXTRACT: note_on channel=2 note=69 velocity=23 time=0
EXTRACT: note_on channel=2 note=64 velocity=23 time=0
EXTRACT: note_on channel=9 note=42 velocity=50 time=0
EXTRACT: note_off channel=9 note=42 velocity=64 time=0.222222
EXTRACT: note_on channel=9 note=42 velocity=50 time=0.111111
EXTRACT: note_off channel=9 note=42 velocity=64 time=0.222222
EXTRACT: note_on channel=1 note=81 velocity=29 time=0.111111
EXTRACT: note_on channel=1 note=76 velocity=29 time=0
EXTRACT: note_on channel=1 note=73 velocity=29 time=0
EXTRACT: note_on channel=9 note=42 velocity=50 time=0
EXTRACT: note_off channel=2 note=76 velocity=64 time=0.222222
EXTRACT: note_off channel=2 note=73 velocity=64 time=0
EXTRACT: note_off channel=2 note=69 velocity=64 time=0
EXTRACT: note_off channel=2 note=64 velocity=64 time=0
EXTRACT: note_off channel=9 note=42 velocity=64 time=0
EXTRACT: note_on channel=0 note=76 velocity=38 time=0.111111
EXTRACT: note_on channel=9 note=42 velocity=49 time=0
EXTRACT: note_on channel=9 note=38 velocity=49 time=0
EXTRACT: note_off channel=9 note=42 velocity=64 time=0.222222
EXTRACT: note_off channel=9 note=38 velocity=64 time=0
EXTRACT: note_on channel=0 note=85 velocity=38 time=0.111111
EXTRACT: note_off channel=1 note=81 velocity=64 time=0
EXTRACT: note_off channel=1 note=76 velocity=64 time=0
EXTRACT: note_off channel=1 note=73 velocity=64 time=0
EXTRACT: note_on channel=9 note=42 velocity=49 time=0
EXTRACT: note_off channel=3 note=45 velocity=64 time=0.222222
EXTRACT: note_off channel=9 note=42 velocity=64 time=0
EXTRACT: note_on channel=3 note=45 velocity=49 time=0.111111
EXTRACT: note_on channel=9 note=42 velocity=49 time=0
EXTRACT: note_off channel=3 note=45 velocity=64 time=0.222222
EXTRACT: note_off channel=9 note=42 velocity=64 time=0
EXTRACT: note_off channel=0 note=76 velocity=64 time=0.111111
EXTRACT: note_off channel=0 note=85 velocity=64 time=0
EXTRACT: note_on channel=3 note=42 velocity=48 time=0
EXTRACT: note_on channel=2 note=78 velocity=22 time=0
EXTRACT: note_on channel=2 note=73 velocity=22 time=0
EXTRACT: note_on channel=2 note=69 velocity=22 time=0
EXTRACT: note_on channel=9 note=42 velocity=48 time=0
EXTRACT: note_off channel=9 note=42 velocity=64 time=0.222222
EXTRACT: note_on channel=9 note=42 velocity=48 time=0.111111
EXTRACT: note_off channel=9 note=42 velocity=64 time=0.222222
EXTRACT: note_on channel=9 note=42 velocity=48 time=0.111111
EXTRACT: note_on channel=9 note=38 velocity=48 time=0.1666665
EXTRACT: note_off channel=2 note=78 velocity=64 time=0.0555555
EXTRACT: note_off channel=2 note=73 velocity=64 time=0
EXTRACT: note_off channel=2 note=69 velocity=64 time=0
EXTRACT: note_off channel=9 note=42 velocity=64 time=0
EXTRACT: note_off channel=9 note=38 velocity=64 time=0.0555555
EXTRACT: note_on channel=1 note=78 velocity=28 time=0.0555555
EXTRACT: note_on channel=1 note=73 velocity=28 time=0
EXTRACT: note_on channel=1 note=69 velocity=28 time=0
EXTRACT: note_on channel=9 note=42 velocity=48 time=0
EXTRACT: note_on channel=9 note=38 velocity=48 time=0
EXTRACT: note_off channel=9 note=42 velocity=64 time=0.222222
EXTRACT: note_off channel=9 note=38 velocity=64 time=0
EXTRACT: note_off channel=3 note=42 velocity=64 time=0.111111
EXTRACT: note_on channel=9 note=42 velocity=47 time=0
EXTRACT: note_on channel=9 note=38 velocity=47 time=0
EXTRACT: note_off channel=1 note=78 velocity=64 time=0.111111
EXTRACT: note_off channel=1 note=73 velocity=64 time=0
EXTRACT: note_off channel=1 note=69 velocity=64 time=0
EXTRACT: note_off channel=9 note=42 velocity=64 time=0.111111
EXTRACT: note_off channel=9 note=38 velocity=64 time=0
EXTRACT: note_on channel=1 note=78 velocity=27 time=0.111111
EXTRACT: note_on channel=1 note=73 velocity=27 time=0
EXTRACT: note_on channel=1 note=69 velocity=27 time=0
EXTRACT: note_on channel=3 note=42 velocity=47 time=0
EXTRACT: note_on channel=9 note=42 velocity=47 time=0
EXTRACT: note_on channel=9 note=38 velocity=47 time=0
EXTRACT: note_off channel=1 note=78 velocity=64 time=0.222222
EXTRACT: note_off channel=1 note=73 velocity=64 time=0
EXTRACT: note_off channel=1 note=69 velocity=64 time=0
EXTRACT: note_off channel=3 note=42 velocity=64 time=0
EXTRACT: note_off channel=9 note=42 velocity=64 time=0
EXTRACT: note_off channel=9 note=38 velocity=64 time=0
EXTRACT: note_on channel=3 note=45 velocity=47 time=0.111111
EXTRACT: note_on channel=2 note=76 velocity=21 time=0
EXTRACT: note_on channel=2 note=73 velocity=21 time=0
EXTRACT: note_on channel=2 note=69 velocity=21 time=0
EXTRACT: note_on channel=2 note=64 velocity=21 time=0
EXTRACT: note_off channel=3 note=45 velocity=64 time=2.888886
EXTRACT: note_on channel=9 note=38 velocity=64 time=2.777775
EXTRACT: note_off channel=9 note=38 velocity=64 time=0.111111
EXTRACT: note_off channel=2 note=64 velocity=64 time=0.0069444375
EXTRACT: note_off channel=2 note=69 velocity=64 time=0
EXTRACT: note_off channel=2 note=73 velocity=64 time=0
EXTRACT: note_off channel=2 note=76 velocity=64 time=0
EXTRACT: note_on channel=9 note=38 velocity=64 time=0.0486110625
EXTRACT: note_off channel=9 note=38 velocity=64 time=0.111111
EXTRACT: note_on channel=9 note=49 velocity=64 time=0.0555555
EXTRACT: note_off channel=9 note=49 velocity=64 time=0.222222
