EXTRACT: program_change channel=0 program=4 time=0
EXTRACT: program_change channel=0 program=5 time=0
EXTRACT: note_on channel=0 note=45 velocity=100 time=0
EXTRACT: program_change channel=1 program=0 time=0
EXTRACT: program_change channel=1 program=1 time=0
EXTRACT: note_on channel=1 note=45 velocity=100 time=0
EXTRACT: program_change channel=2 program=19 time=0
EXTRACT: program_change channel=2 program=19 time=0
EXTRACT: program_change channel=3 program=29 time=0
EXTRACT: program_change channel=3 program=30 time=0
EXTRACT: program_change channel=4 program=33 time=0
EXTRACT: program_change channel=4 program=33 time=0
EXTRACT: program_change channel=5 program=40 time=0
EXTRACT: program_change channel=5 program=40 time=0
EXTRACT: note_on channel=0 note=45 velocity=0 time=0.24
EXTRACT: note_on channel=1 note=45 velocity=0 time=0
EXTRACT: note_on channel=0 note=45 velocity=100 time=0.06
EXTRACT: note_on channel=1 note=45 velocity=100 time=0
EXTRACT: note_on channel=0 note=57 velocity=100 time=0.3
EXTRACT: note_on channel=0 note=62 velocity=100 time=0
EXTRACT: note_on channel=0 note=66 velocity=100 time=0
EXTRACT: note_on channel=2 note=73 velocity=127 time=0
EXTRACT: note_on channel=1 note=45 velocity=0 time=0.18
EXTRACT: note_on channel=0 note=57 velocity=0 time=0.06
EXTRACT: note_on channel=0 note=62 velocity=0 time=0
EXTRACT: note_on channel=0 note=66 velocity=0 time=0
EXTRACT: note_on channel=2 note=73 velocity=0 time=0
EXTRACT: note_on channel=0 note=57 velocity=100 time=0.06
EXTRACT: note_on channel=2 note=71 velocity=127 time=0
EXTRACT: note_on channel=0 note=57 velocity=100 time=0.15
EXTRACT: note_on channel=0 note=61 velocity=100 time=0
EXTRACT: note_on channel=0 note=64 velocity=100 time=0
EXTRACT: note_on channel=0 note=57 velocity=0 time=0.09
EXTRACT: note_on channel=0 note=57 velocity=0 time=0.03
EXTRACT: note_on channel=0 note=61 velocity=0 time=0
EXTRACT: note_on channel=0 note=64 velocity=0 time=0
EXTRACT: note_on channel=0 note=45 velocity=0 time=0.09
EXTRACT: note_on channel=0 note=45 velocity=100 time=0.09
EXTRACT: note_on channel=1 note=45 velocity=100 time=0
EXTRACT: note_on channel=2 note=71 velocity=0 time=0.03
EXTRACT: note_on channel=0 note=57 velocity=100 time=0.12
EXTRACT: note_on channel=0 note=61 velocity=100 time=0
EXTRACT: note_on channel=0 note=64 velocity=100 time=0
EXTRACT: note_on channel=2 note=69 velocity=127 time=0
EXTRACT: note_on channel=0 note=45 velocity=0 time=0.09
EXTRACT: note_on channel=1 note=45 velocity=0 time=0
EXTRACT: note_on channel=0 note=57 velocity=0 time=0.15
EXTRACT: note_on channel=0 note=61 velocity=0 time=0
EXTRACT: note_on channel=0 note=64 velocity=0 time=0
EXTRACT: note_on channel=0 note=45 velocity=100 time=0.06
EXTRACT: note_on channel=1 note=45 velocity=100 time=0
EXTRACT: note_on channel=2 note=73 velocity=120 time=0
EXTRACT: note_on channel=0 note=57 velocity=100 time=0.15
EXTRACT: note_on channel=0 note=61 velocity=100 time=0
EXTRACT: note_on channel=0 note=64 velocity=100 time=0
EXTRACT: note_on channel=2 note=69 velocity=0 time=0.03
EXTRACT: note_on channel=2 note=73 velocity=0 time=0.06
EXTRACT: note_on channel=2 note=71 velocity=120 time=0.06
EXTRACT: note_on channel=2 note=67 velocity=127 time=0
EXTRACT: note_on channel=0 note=57 velocity=0 time=0.09
EXTRACT: note_on channel=0 note=61 velocity=0 time=0
EXTRACT: note_on channel=0 note=64 velocity=0 time=0
EXTRACT: note_on channel=0 note=45 velocity=0 time=0.09
EXTRACT: note_on channel=1 note=45 velocity=0 time=0
EXTRACT: note_on channel=0 note=42 velocity=100 time=0.12
EXTRACT: note_on channel=1 note=42 velocity=100 time=0
EXTRACT: note_on channel=2 note=71 velocity=0 time=0.18
EXTRACT: note_on channel=2 note=67 velocity=0 time=0
EXTRACT: note_on channel=0 note=42 velocity=0 time=0.06
EXTRACT: note_on channel=1 note=42 velocity=0 time=0
EXTRACT: note_on channel=0 note=42 velocity=100 time=0.06
EXTRACT: note_on channel=1 note=42 velocity=100 time=0
EXTRACT: note_on channel=2 note=69 velocity=120 time=0
EXTRACT: note_on channel=2 note=69 velocity=127 time=0
EXTRACT: note_on channel=0 note=57 velocity=100 time=0.3
EXTRACT: note_on channel=0 note=62 velocity=100 time=0
EXTRACT: note_on channel=0 note=66 velocity=100 time=0
EXTRACT: note_on channel=0 note=42 velocity=0 time=0.18
EXTRACT: note_on channel=1 note=42 velocity=0 time=0
EXTRACT: note_on channel=2 note=69 velocity=0 time=0
EXTRACT: note_on channel=2 note=69 velocity=0 time=0
EXTRACT: note_on channel=0 note=57 velocity=0 time=0.06
EXTRACT: note_on channel=0 note=62 velocity=0 time=0
EXTRACT: note_on channel=0 note=66 velocity=0 time=0
EXTRACT: note_on channel=0 note=57 velocity=100 time=0.06
EXTRACT: note_on channel=2 note=67 velocity=120 time=0
EXTRACT: note_on channel=0 note=55 velocity=100 time=0.15
EXTRACT: note_on channel=0 note=59 velocity=100 time=0
EXTRACT: note_on channel=0 note=62 velocity=100 time=0
EXTRACT: note_on channel=0 note=57 velocity=0 time=0.09
EXTRACT: note_on channel=0 note=55 velocity=0 time=0.03
EXTRACT: note_on channel=0 note=59 velocity=0 time=0
EXTRACT: note_on channel=0 note=62 velocity=0 time=0
EXTRACT: note_on channel=0 note=43 velocity=100 time=0.18
EXTRACT: note_on channel=1 note=43 velocity=100 time=0
EXTRACT: note_on channel=2 note=67 velocity=0 time=0.03
EXTRACT: note_on channel=0 note=55 velocity=100 time=0.12
EXTRACT: note_on channel=0 note=59 velocity=100 time=0
EXTRACT: note_on channel=0 note=62 velocity=100 time=0
EXTRACT: note_on channel=2 note=69 velocity=120 time=0
EXTRACT: note_on channel=0 note=43 velocity=0 time=0.09
EXTRACT: note_on channel=1 note=43 velocity=0 time=0
EXTRACT: note_on channel=0 note=55 velocity=0 time=0.15
EXTRACT: note_on channel=0 note=59 velocity=0 time=0
EXTRACT: note_on channel=0 note=62 velocity=0 time=0
EXTRACT: note_on channel=0 note=43 velocity=100 time=0.06
EXTRACT: note_on channel=1 note=43 velocity=100 time=0
EXTRACT: note_on channel=0 note=55 velocity=100 time=0.15
EXTRACT: note_on channel=0 note=59 velocity=100 time=0
EXTRACT: note_on channel=0 note=62 velocity=100 time=0
EXTRACT: note_on channel=2 note=69 velocity=0 time=0.03
EXTRACT: note_on channel=2 note=67 velocity=80 time=0.12
EXTRACT: note_on channel=0 note=55 velocity=0 time=0.09
EXTRACT: note_on channel=0 note=59 velocity=0 time=0
EXTRACT: note_on channel=0 note=62 velocity=0 time=0
EXTRACT: note_on channel=0 note=43 velocity=0 time=0.09
EXTRACT: note_on channel=1 note=43 velocity=0 time=0
EXTRACT: note_on channel=0 note=45 velocity=100 time=0.12
EXTRACT: note_on channel=1 note=45 velocity=100 time=0
EXTRACT: note_on channel=2 note=67 velocity=0 time=0.18
EXTRACT: note_on channel=0 note=45 velocity=0 time=0.06
EXTRACT: note_on channel=1 note=45 velocity=0 time=0
EXTRACT: note_on channel=0 note=45 velocity=100 time=0.06
EXTRACT: note_on channel=1 note=45 velocity=100 time=0
EXTRACT: note_on channel=2 note=69 velocity=80 time=0
EXTRACT: note_on channel=0 note=57 velocity=100 time=0.3
EXTRACT: note_on channel=0 note=62 velocity=100 time=0
EXTRACT: note_on channel=0 note=66 velocity=100 time=0
EXTRACT: note_on channel=2 note=72 velocity=127 time=0
EXTRACT: note_on channel=1 note=45 velocity=0 time=0.18
EXTRACT: note_on channel=2 note=69 velocity=0 time=0
EXTRACT: note_on channel=0 note=57 velocity=0 time=0.06
EXTRACT: note_on channel=0 note=62 velocity=0 time=0
EXTRACT: note_on channel=0 note=66 velocity=0 time=0
EXTRACT: note_on channel=2 note=72 velocity=0 time=0
EXTRACT: note_on channel=0 note=57 velocity=100 time=0.06
EXTRACT: note_on channel=2 note=72 velocity=127 time=0
EXTRACT: note_on channel=0 note=57 velocity=100 time=0.15
EXTRACT: note_on channel=0 note=61 velocity=100 time=0
EXTRACT: note_on channel=0 note=64 velocity=100 time=0
EXTRACT: note_on channel=0 note=57 velocity=0 time=0.09
EXTRACT: note_on channel=2 note=72 velocity=0 time=0
EXTRACT: note_on channel=0 note=57 velocity=0 time=0.03
EXTRACT: note_on channel=0 note=61 velocity=0 time=0
EXTRACT: note_on channel=0 note=64 velocity=0 time=0
EXTRACT: note_on channel=0 note=45 velocity=0 time=0.09
EXTRACT: note_on channel=0 note=45 velocity=100 time=0.09
EXTRACT: note_on channel=1 note=45 velocity=100 time=0
EXTRACT: note_on channel=0 note=57 velocity=100 time=0.15
EXTRACT: note_on channel=0 note=61 velocity=100 time=0
EXTRACT: note_on channel=0 note=64 velocity=100 time=0
EXTRACT: note_on channel=0 note=45 velocity=0 time=0.09
EXTRACT: note_on channel=1 note=45 velocity=0 time=0
EXTRACT: note_on channel=0 note=57 velocity=0 time=0.15
EXTRACT: note_on channel=0 note=61 velocity=0 time=0
EXTRACT: note_on channel=0 note=64 velocity=0 time=0
EXTRACT: note_on channel=0 note=45 velocity=100 time=0.06
EXTRACT: note_on channel=1 note=45 velocity=100 time=0
EXTRACT: note_on channel=2 note=72 velocity=127 time=0
EXTRACT: note_on channel=0 note=57 velocity=100 time=0.15
EXTRACT: note_on channel=0 note=61 velocity=100 time=0
EXTRACT: note_on channel=0 note=64 velocity=100 time=0
EXTRACT: note_on channel=2 note=72 velocity=0 time=0.09
EXTRACT: note_on channel=2 note=72 velocity=127 time=0.06
EXTRACT: note_on channel=0 note=57 velocity=0 time=0.09
EXTRACT: note_on channel=0 note=61 velocity=0 time=0
EXTRACT: note_on channel=0 note=64 velocity=0 time=0
EXTRACT: note_on channel=0 note=45 velocity=0 time=0.09
EXTRACT: note_on channel=1 note=45 velocity=0 time=0
EXTRACT: note_on channel=2 note=72 velocity=0 time=0.06
EXTRACT: note_on channel=0 note=42 velocity=100 time=0.06
EXTRACT: note_on channel=1 note=42 velocity=100 time=0
EXTRACT: note_on channel=0 note=42 velocity=0 time=0.24
EXTRACT: note_on channel=1 note=42 velocity=0 time=0
EXTRACT: note_on channel=0 note=42 velocity=100 time=0.06
EXTRACT: note_on channel=1 note=42 velocity=100 time=0
EXTRACT: note_on channel=0 note=57 velocity=100 time=0.3
EXTRACT: note_on channel=0 note=62 velocity=100 time=0
EXTRACT: note_on channel=0 note=66 velocity=100 time=0
EXTRACT: note_on channel=2 note=72 velocity=120 time=0
EXTRACT: note_on channel=0 note=42 velocity=0 time=0.18
EXTRACT: note_on channel=1 note=42 velocity=0 time=0
EXTRACT: note_on channel=0 note=57 velocity=0 time=0.06
EXTRACT: note_on channel=0 note=62 velocity=0 time=0
EXTRACT: note_on channel=0 note=66 velocity=0 time=0
EXTRACT: note_on channel=2 note=72 velocity=0 time=0
EXTRACT: note_on channel=0 note=57 velocity=100 time=0.06
EXTRACT: note_on channel=2 note=72 velocity=120 time=0
EXTRACT: note_on channel=0 note=67 velocity=100 time=0.15
EXTRACT: note_on channel=0 note=59 velocity=100 time=0
EXTRACT: note_on channel=0 note=62 velocity=100 time=0
EXTRACT: note_on channel=0 note=57 velocity=0 time=0.09
EXTRACT: note_on channel=2 note=72 velocity=0 time=0
EXTRACT: note_on channel=0 note=67 velocity=0 time=0.03
EXTRACT: note_on channel=0 note=59 velocity=0 time=0
EXTRACT: note_on channel=0 note=62 velocity=0 time=0
EXTRACT: note_on channel=0 note=43 velocity=100 time=0.18
EXTRACT: note_on channel=1 note=43 velocity=100 time=0
EXTRACT: note_on channel=9 note=35 velocity=127 time=0
EXTRACT: note_on channel=0 note=67 velocity=100 time=0.15
EXTRACT: note_on channel=0 note=59 velocity=100 time=0
EXTRACT: note_on channel=0 note=62 velocity=100 time=0
EXTRACT: note_on channel=2 note=54 velocity=120 time=0
EXTRACT: note_on channel=2 note=62 velocity=120 time=0
EXTRACT: note_on channel=2 note=66 velocity=127 time=0
EXTRACT: note_on channel=0 note=43 velocity=0 time=0.09
EXTRACT: note_on channel=1 note=43 velocity=0 time=0
EXTRACT: note_on channel=9 note=35 velocity=0 time=0
EXTRACT: note_on channel=9 note=69 velocity=127 time=0.06
EXTRACT: note_on channel=0 note=67 velocity=0 time=0.09
EXTRACT: note_on channel=0 note=59 velocity=0 time=0
EXTRACT: note_on channel=0 note=62 velocity=0 time=0
EXTRACT: note_on channel=2 note=54 velocity=0 time=0
EXTRACT: note_on channel=2 note=62 velocity=0 time=0
EXTRACT: note_on channel=2 note=66 velocity=0 time=0
EXTRACT: note_on channel=0 note=43 velocity=100 time=0.06
EXTRACT: note_on channel=1 note=43 velocity=100 time=0
EXTRACT: note_on channel=2 note=57 velocity=120 time=0
EXTRACT: note_on channel=2 note=66 velocity=120 time=0
EXTRACT: note_on channel=2 note=69 velocity=127 time=0
EXTRACT: note_on channel=9 note=69 velocity=127 time=0
EXTRACT: note_on channel=9 note=35 velocity=127 time=0
EXTRACT: note_on channel=9 note=37 velocity=127 time=0
EXTRACT: note_on channel=9 note=69 velocity=0 time=0.09
EXTRACT: note_on channel=0 note=67 velocity=100 time=0.06
EXTRACT: note_on channel=0 note=59 velocity=100 time=0
EXTRACT: note_on channel=0 note=62 velocity=100 time=0
EXTRACT: note_on channel=9 note=69 velocity=127 time=0
EXTRACT: note_on channel=2 note=57 velocity=0 time=0.09
EXTRACT: note_on channel=2 note=66 velocity=0 time=0
EXTRACT: note_on channel=2 note=69 velocity=0 time=0
EXTRACT: note_on channel=9 note=69 velocity=0 time=0
EXTRACT: note_on channel=9 note=35 velocity=0 time=0
EXTRACT: note_on channel=9 note=37 velocity=0 time=0
EXTRACT: note_on channel=2 note=54 velocity=120 time=0.06
EXTRACT: note_on channel=2 note=62 velocity=120 time=0
EXTRACT: note_on channel=2 note=66 velocity=127 time=0
EXTRACT: note_on channel=9 note=69 velocity=127 time=0
EXTRACT: note_on channel=9 note=37 velocity=127 time=0
EXTRACT: note_on channel=0 note=67 velocity=0 time=0.09
EXTRACT: note_on channel=0 note=59 velocity=0 time=0
EXTRACT: note_on channel=0 note=62 velocity=0 time=0
EXTRACT: note_on channel=9 note=69 velocity=0 time=0
EXTRACT: note_on channel=9 note=69 velocity=127 time=0.06
EXTRACT: note_on channel=0 note=43 velocity=0 time=0.03
EXTRACT: note_on channel=1 note=43 velocity=0 time=0
EXTRACT: note_on channel=2 note=54 velocity=0 time=0.06
EXTRACT: note_on channel=2 note=62 velocity=0 time=0
EXTRACT: note_on channel=2 note=66 velocity=0 time=0
EXTRACT: note_on channel=9 note=69 velocity=0 time=0
EXTRACT: note_on channel=9 note=37 velocity=0 time=0
EXTRACT: note_on channel=0 note=45 velocity=100 time=0.06
EXTRACT: note_on channel=1 note=45 velocity=100 time=0
EXTRACT: note_on channel=2 note=57 velocity=120 time=0
EXTRACT: note_on channel=2 note=66 velocity=120 time=0
EXTRACT: note_on channel=2 note=69 velocity=127 time=0
EXTRACT: note_on channel=9 note=35 velocity=127 time=0
EXTRACT: note_on channel=9 note=42 velocity=127 time=0
EXTRACT: note_on channel=9 note=69 velocity=0 time=0.09
EXTRACT: note_on channel=9 note=42 velocity=0 time=0.03
EXTRACT: note_on channel=9 note=42 velocity=50 time=0.03
EXTRACT: note_on channel=0 note=45 velocity=0 time=0.09
EXTRACT: note_on channel=1 note=45 velocity=0 time=0
EXTRACT: note_on channel=2 note=57 velocity=0 time=0
EXTRACT: note_on channel=2 note=66 velocity=0 time=0
EXTRACT: note_on channel=2 note=69 velocity=0 time=0
EXTRACT: note_on channel=9 note=35 velocity=0 time=0
EXTRACT: note_on channel=9 note=42 velocity=0 time=0.03
EXTRACT: note_on channel=0 note=45 velocity=100 time=0.03
EXTRACT: note_on channel=1 note=45 velocity=100 time=0
EXTRACT: note_on channel=2 note=54 velocity=120 time=0
EXTRACT: note_on channel=2 note=62 velocity=120 time=0
EXTRACT: note_on channel=2 note=66 velocity=127 time=0
EXTRACT: note_on channel=3 note=69 velocity=64 time=0
EXTRACT: note_on channel=9 note=42 velocity=127 time=0
EXTRACT: note_on channel=3 note=69 velocity=0 time=0.12
EXTRACT: note_on channel=3 note=69 velocity=64 time=0.03
EXTRACT: note_on channel=9 note=42 velocity=50 time=0
EXTRACT: note_on channel=2 note=54 velocity=0 time=0.09
EXTRACT: note_on channel=2 note=62 velocity=0 time=0
EXTRACT: note_on channel=2 note=66 velocity=0 time=0
EXTRACT: note_on channel=9 note=42 velocity=0 time=0
EXTRACT: note_on channel=3 note=69 velocity=0 time=0.03
EXTRACT: note_on channel=9 note=42 velocity=0 time=0
EXTRACT: note_on channel=0 note=57 velocity=100 time=0.03
EXTRACT: note_on channel=0 note=62 velocity=100 time=0
EXTRACT: note_on channel=0 note=66 velocity=100 time=0
EXTRACT: note_on channel=2 note=73 velocity=127 time=0
EXTRACT: note_on channel=3 note=69 velocity=64 time=0
EXTRACT: note_on channel=9 note=54 velocity=100 time=0
EXTRACT: note_on channel=9 note=38 velocity=127 time=0
EXTRACT: note_on channel=9 note=42 velocity=127 time=0
EXTRACT: note_on channel=9 note=42 velocity=50 time=0.15
EXTRACT: note_on channel=1 note=45 velocity=0 time=0.03
EXTRACT: note_on channel=0 note=57 velocity=0 time=0.06
EXTRACT: note_on channel=0 note=62 velocity=0 time=0
EXTRACT: note_on channel=0 note=66 velocity=0 time=0
EXTRACT: note_on channel=2 note=73 velocity=0 time=0
EXTRACT: note_on channel=3 note=69 velocity=0 time=0
EXTRACT: note_on channel=9 note=54 velocity=0 time=0
EXTRACT: note_on channel=9 note=38 velocity=0 time=0
EXTRACT: note_on channel=9 note=42 velocity=0 time=0
EXTRACT: note_on channel=9 note=42 velocity=0 time=0.03
EXTRACT: note_on channel=0 note=57 velocity=100 time=0.03
EXTRACT: note_on channel=2 note=71 velocity=127 time=0
EXTRACT: note_on channel=3 note=69 velocity=64 time=0
EXTRACT: note_on channel=9 note=42 velocity=127 time=0
EXTRACT: note_on channel=3 note=69 velocity=0 time=0.12
EXTRACT: note_on channel=0 note=57 velocity=100 time=0.03
EXTRACT: note_on channel=0 note=61 velocity=100 time=0
EXTRACT: note_on channel=0 note=64 velocity=100 time=0
EXTRACT: note_on channel=3 note=69 velocity=64 time=0
EXTRACT: note_on channel=9 note=35 velocity=127 time=0
EXTRACT: note_on channel=9 note=42 velocity=50 time=0
EXTRACT: note_on channel=0 note=57 velocity=0 time=0.09
EXTRACT: note_on channel=9 note=42 velocity=0 time=0
EXTRACT: note_on channel=0 note=57 velocity=0 time=0.03
EXTRACT: note_on channel=0 note=61 velocity=0 time=0
EXTRACT: note_on channel=0 note=64 velocity=0 time=0
EXTRACT: note_on channel=9 note=42 velocity=0 time=0
EXTRACT: note_on channel=9 note=42 velocity=127 time=0.03
EXTRACT: note_on channel=0 note=45 velocity=0 time=0.06
EXTRACT: note_on channel=3 note=69 velocity=0 time=0.03
EXTRACT: note_on channel=9 note=35 velocity=0 time=0
EXTRACT: note_on channel=0 note=45 velocity=100 time=0.06
EXTRACT: note_on channel=1 note=45 velocity=100 time=0
EXTRACT: note_on channel=3 note=69 velocity=64 time=0
EXTRACT: note_on channel=9 note=35 velocity=127 time=0
EXTRACT: note_on channel=9 note=42 velocity=50 time=0
EXTRACT: note_on channel=2 note=71 velocity=0 time=0.03
EXTRACT: note_on channel=9 note=42 velocity=0 time=0.06
EXTRACT: note_on channel=3 note=69 velocity=0 time=0.03
EXTRACT: note_on channel=9 note=42 velocity=0 time=0
EXTRACT: note_on channel=0 note=57 velocity=100 time=0.03
EXTRACT: note_on channel=0 note=61 velocity=100 time=0
EXTRACT: note_on channel=0 note=64 velocity=100 time=0
EXTRACT: note_on channel=2 note=69 velocity=127 time=0
EXTRACT: note_on channel=9 note=35 velocity=127 time=0
EXTRACT: note_on channel=9 note=42 velocity=127 time=0
EXTRACT: note_on channel=0 note=45 velocity=0 time=0.09
EXTRACT: note_on channel=1 note=45 velocity=0 time=0
EXTRACT: note_on channel=9 note=35 velocity=0 time=0
EXTRACT: note_on channel=3 note=69 velocity=64 time=0.06
EXTRACT: note_on channel=9 note=42 velocity=50 time=0
EXTRACT: note_on channel=0 note=57 velocity=0 time=0.09
EXTRACT: note_on channel=0 note=61 velocity=0 time=0
EXTRACT: note_on channel=0 note=64 velocity=0 time=0
EXTRACT: note_on channel=9 note=35 velocity=0 time=0
EXTRACT: note_on channel=9 note=42 velocity=0 time=0
EXTRACT: note_on channel=9 note=42 velocity=0 time=0.03
EXTRACT: note_on channel=0 note=45 velocity=100 time=0.03
EXTRACT: note_on channel=1 note=45 velocity=100 time=0
EXTRACT: note_on channel=2 note=73 velocity=120 time=0
EXTRACT: note_on channel=3 note=69 velocity=64 time=0
EXTRACT: note_on channel=9 note=54 velocity=100 time=0
EXTRACT: note_on channel=9 note=38 velocity=127 time=0
EXTRACT: note_on channel=9 note=42 velocity=127 time=0
EXTRACT: note_on channel=3 note=69 velocity=0 time=0.09
EXTRACT: note_on channel=0 note=57 velocity=100 time=0.06
EXTRACT: note_on channel=0 note=61 velocity=100 time=0
EXTRACT: note_on channel=0 note=64 velocity=100 time=0
EXTRACT: note_on channel=9 note=42 velocity=50 time=0
EXTRACT: note_on channel=2 note=69 velocity=0 time=0.03
EXTRACT: note_on channel=2 note=73 velocity=0 time=0.06
EXTRACT: note_on channel=3 note=69 velocity=0 time=0
EXTRACT: note_on channel=9 note=54 velocity=0 time=0
EXTRACT: note_on channel=9 note=38 velocity=0 time=0
EXTRACT: note_on channel=9 note=42 velocity=0 time=0
EXTRACT: note_on channel=9 note=42 velocity=0 time=0.03
EXTRACT: note_on channel=2 note=71 velocity=120 time=0.03
EXTRACT: note_on channel=2 note=67 velocity=127 time=0
EXTRACT: note_on channel=9 note=42 velocity=127 time=0
EXTRACT: note_on channel=0 note=57 velocity=0 time=0.09
EXTRACT: note_on channel=0 note=61 velocity=0 time=0
EXTRACT: note_on channel=0 note=64 velocity=0 time=0
EXTRACT: note_on channel=9 note=42 velocity=50 time=0.06
EXTRACT: note_on channel=0 note=45 velocity=0 time=0.03
EXTRACT: note_on channel=1 note=45 velocity=0 time=0
EXTRACT: note_on channel=9 note=42 velocity=0 time=0.06
EXTRACT: note_on channel=9 note=42 velocity=0 time=0.03
EXTRACT: note_on channel=0 note=42 velocity=100 time=0.03
EXTRACT: note_on channel=1 note=42 velocity=100 time=0
EXTRACT: note_on channel=9 note=35 velocity=127 time=0
EXTRACT: note_on channel=9 note=42 velocity=127 time=0
EXTRACT: note_on channel=9 note=42 velocity=0 time=0.12
EXTRACT: note_on channel=9 note=42 velocity=50 time=0.03
EXTRACT: note_on channel=2 note=71 velocity=0 time=0.03
EXTRACT: note_on channel=2 note=67 velocity=0 time=0
EXTRACT: note_on channel=0 note=42 velocity=0 time=0.06
EXTRACT: note_on channel=1 note=42 velocity=0 time=0
EXTRACT: note_on channel=9 note=35 velocity=0 time=0
EXTRACT: note_on channel=9 note=42 velocity=0 time=0.03
EXTRACT: note_on channel=0 note=42 velocity=100 time=0.03
EXTRACT: note_on channel=1 note=42 velocity=100 time=0
EXTRACT: note_on channel=2 note=69 velocity=120 time=0
EXTRACT: note_on channel=2 note=69 velocity=127 time=0
EXTRACT: note_on channel=3 note=69 velocity=64 time=0
EXTRACT: note_on channel=9 note=42 velocity=127 time=0
EXTRACT: note_on channel=3 note=69 velocity=0 time=0.12
EXTRACT: note_on channel=3 note=69 velocity=64 time=0.03
EXTRACT: note_on channel=9 note=42 velocity=50 time=0
EXTRACT: note_on channel=9 note=42 velocity=0 time=0.09
EXTRACT: note_on channel=3 note=69 velocity=0 time=0.03
EXTRACT: note_on channel=9 note=42 velocity=0 time=0
EXTRACT: note_on channel=0 note=57 velocity=100 time=0.03
EXTRACT: note_on channel=0 note=62 velocity=100 time=0
EXTRACT: note_on channel=0 note=66 velocity=100 time=0
EXTRACT: note_on channel=3 note=69 velocity=64 time=0
EXTRACT: note_on channel=9 note=54 velocity=100 time=0
EXTRACT: note_on channel=9 note=38 velocity=127 time=0
EXTRACT: note_on channel=9 note=42 velocity=127 time=0
EXTRACT: note_on channel=9 note=42 velocity=50 time=0.15
EXTRACT: note_on channel=0 note=42 velocity=0 time=0.03
EXTRACT: note_on channel=1 note=42 velocity=0 time=0
EXTRACT: note_on channel=2 note=69 velocity=0 time=0
EXTRACT: note_on channel=2 note=69 velocity=0 time=0
EXTRACT: note_on channel=0 note=57 velocity=0 time=0.06
EXTRACT: note_on channel=0 note=62 velocity=0 time=0
EXTRACT: note_on channel=0 note=66 velocity=0 time=0
EXTRACT: note_on channel=3 note=69 velocity=0 time=0
EXTRACT: note_on channel=9 note=54 velocity=0 time=0
EXTRACT: note_on channel=9 note=38 velocity=0 time=0
EXTRACT: note_on channel=9 note=42 velocity=0 time=0
EXTRACT: note_on channel=9 note=42 velocity=0 time=0.03
EXTRACT: note_on channel=0 note=57 velocity=100 time=0.03
EXTRACT: note_on channel=2 note=67 velocity=120 time=0
EXTRACT: note_on channel=3 note=69 velocity=64 time=0
EXTRACT: note_on channel=9 note=42 velocity=127 time=0
EXTRACT: note_on channel=3 note=69 velocity=0 time=0.12
EXTRACT: note_on channel=0 note=55 velocity=100 time=0.03
EXTRACT: note_on channel=0 note=59 velocity=100 time=0
EXTRACT: note_on channel=0 note=62 velocity=100 time=0
EXTRACT: note_on channel=3 note=69 velocity=64 time=0
EXTRACT: note_on channel=9 note=35 velocity=127 time=0
EXTRACT: note_on channel=9 note=42 velocity=50 time=0
EXTRACT: note_on channel=0 note=57 velocity=0 time=0.09
EXTRACT: note_on channel=9 note=42 velocity=0 time=0
EXTRACT: note_on channel=0 note=55 velocity=0 time=0.03
EXTRACT: note_on channel=0 note=59 velocity=0 time=0
EXTRACT: note_on channel=0 note=62 velocity=0 time=0
EXTRACT: note_on channel=9 note=42 velocity=0 time=0
EXTRACT: note_on channel=9 note=42 velocity=127 time=0.03
EXTRACT: note_on channel=3 note=69 velocity=0 time=0.09
EXTRACT: note_on channel=9 note=35 velocity=0 time=0
EXTRACT: note_on channel=0 note=43 velocity=100 time=0.06
EXTRACT: note_on channel=1 note=43 velocity=100 time=0
EXTRACT: note_on channel=3 note=69 velocity=64 time=0
EXTRACT: note_on channel=9 note=35 velocity=127 time=0
EXTRACT: note_on channel=9 note=42 velocity=50 time=0
EXTRACT: note_on channel=2 note=67 velocity=0 time=0.03
EXTRACT: note_on channel=9 note=42 velocity=0 time=0.06
EXTRACT: note_on channel=3 note=69 velocity=0 time=0.03
EXTRACT: note_on channel=9 note=42 velocity=0 time=0
EXTRACT: note_on channel=0 note=55 velocity=100 time=0.03
EXTRACT: note_on channel=0 note=59 velocity=100 time=0
EXTRACT: note_on channel=0 note=62 velocity=100 time=0
EXTRACT: note_on channel=2 note=54 velocity=120 time=0
EXTRACT: note_on channel=2 note=62 velocity=120 time=0
EXTRACT: note_on channel=2 note=66 velocity=127 time=0
EXTRACT: note_on channel=2 note=69 velocity=120 time=0
EXTRACT: note_on channel=9 note=35 velocity=127 time=0
EXTRACT: note_on channel=9 note=42 velocity=127 time=0
EXTRACT: note_on channel=0 note=43 velocity=0 time=0.09
EXTRACT: note_on channel=1 note=43 velocity=0 time=0
EXTRACT: note_on channel=9 note=35 velocity=0 time=0
EXTRACT: note_on channel=3 note=69 velocity=64 time=0.06
EXTRACT: note_on channel=9 note=42 velocity=50 time=0
EXTRACT: note_on channel=0 note=55 velocity=0 time=0.09
EXTRACT: note_on channel=0 note=59 velocity=0 time=0
EXTRACT: note_on channel=0 note=62 velocity=0 time=0
EXTRACT: note_on channel=2 note=54 velocity=0 time=0
EXTRACT: note_on channel=2 note=62 velocity=0 time=0
EXTRACT: note_on channel=2 note=66 velocity=0 time=0
EXTRACT: note_on channel=9 note=35 velocity=0 time=0
EXTRACT: note_on channel=9 note=42 velocity=0 time=0
EXTRACT: note_on channel=9 note=42 velocity=0 time=0.03
EXTRACT: note_on channel=0 note=43 velocity=100 time=0.03
EXTRACT: note_on channel=1 note=43 velocity=100 time=0
EXTRACT: note_on channel=2 note=57 velocity=120 time=0
EXTRACT: note_on channel=2 note=66 velocity=120 time=0
EXTRACT: note_on channel=2 note=69 velocity=127 time=0
EXTRACT: note_on channel=3 note=69 velocity=64 time=0
EXTRACT: note_on channel=9 note=54 velocity=100 time=0
EXTRACT: note_on channel=9 note=38 velocity=127 time=0
EXTRACT: note_on channel=9 note=42 velocity=127 time=0
EXTRACT: note_on channel=3 note=69 velocity=0 time=0.09
EXTRACT: note_on channel=0 note=55 velocity=100 time=0.06
EXTRACT: note_on channel=0 note=59 velocity=100 time=0
EXTRACT: note_on channel=0 note=62 velocity=100 time=0
EXTRACT: note_on channel=9 note=42 velocity=50 time=0
EXTRACT: note_on channel=2 note=69 velocity=0 time=0.03
EXTRACT: note_on channel=2 note=57 velocity=0 time=0.06
EXTRACT: note_on channel=2 note=66 velocity=0 time=0
EXTRACT: note_on channel=2 note=69 velocity=0 time=0
EXTRACT: note_on channel=3 note=69 velocity=0 time=0
EXTRACT: note_on channel=9 note=54 velocity=0 time=0
EXTRACT: note_on channel=9 note=38 velocity=0 time=0
EXTRACT: note_on channel=9 note=42 velocity=0 time=0
EXTRACT: note_on channel=9 note=42 velocity=0 time=0.03
EXTRACT: note_on channel=2 note=54 velocity=120 time=0.03
EXTRACT: note_on channel=2 note=62 velocity=120 time=0
EXTRACT: note_on channel=2 note=66 velocity=127 time=0
EXTRACT: note_on channel=9 note=42 velocity=127 time=0
EXTRACT: note_on channel=0 note=55 velocity=0 time=0.09
EXTRACT: note_on channel=0 note=59 velocity=0 time=0
EXTRACT: note_on channel=0 note=62 velocity=0 time=0
EXTRACT: note_on channel=9 note=42 velocity=50 time=0.06
EXTRACT: note_on channel=0 note=43 velocity=0 time=0.03
EXTRACT: note_on channel=1 note=43 velocity=0 time=0
EXTRACT: note_on channel=2 note=54 velocity=0 time=0.06
EXTRACT: note_on channel=2 note=62 velocity=0 time=0
EXTRACT: note_on channel=2 note=66 velocity=0 time=0
EXTRACT: note_on channel=9 note=42 velocity=0 time=0
EXTRACT: note_on channel=9 note=42 velocity=0 time=0.03
EXTRACT: note_on channel=0 note=45 velocity=100 time=0.03
EXTRACT: note_on channel=1 note=45 velocity=100 time=0
EXTRACT: note_on channel=2 note=61 velocity=120 time=0
EXTRACT: note_on channel=2 note=69 velocity=120 time=0
EXTRACT: note_on channel=2 note=73 velocity=127 time=0
EXTRACT: note_on channel=9 note=35 velocity=127 time=0
EXTRACT: note_on channel=9 note=42 velocity=127 time=0
EXTRACT: note_on channel=9 note=42 velocity=0 time=0.12
EXTRACT: note_on channel=9 note=42 velocity=50 time=0.03
EXTRACT: note_on channel=0 note=45 velocity=0 time=0.09
EXTRACT: note_on channel=1 note=45 velocity=0 time=0
EXTRACT: note_on channel=2 note=61 velocity=0 time=0
EXTRACT: note_on channel=2 note=69 velocity=0 time=0
EXTRACT: note_on channel=2 note=73 velocity=0 time=0
EXTRACT: note_on channel=9 note=35 velocity=0 time=0
EXTRACT: note_on channel=9 note=42 velocity=0 time=0.03
EXTRACT: note_on channel=0 note=45 velocity=100 time=0.03
EXTRACT: note_on channel=1 note=45 velocity=100 time=0
EXTRACT: note_on channel=2 note=61 velocity=120 time=0
EXTRACT: note_on channel=2 note=69 velocity=120 time=0
EXTRACT: note_on channel=2 note=73 velocity=127 time=0
EXTRACT: note_on channel=3 note=69 velocity=64 time=0
EXTRACT: note_on channel=9 note=42 velocity=127 time=0
EXTRACT: note_on channel=3 note=69 velocity=0 time=0.12
EXTRACT: note_on channel=3 note=69 velocity=64 time=0.03
EXTRACT: note_on channel=9 note=42 velocity=50 time=0
EXTRACT: note_on channel=2 note=61 velocity=0 time=0.09
EXTRACT: note_on channel=2 note=69 velocity=0 time=0
EXTRACT: note_on channel=2 note=73 velocity=0 time=0
EXTRACT: note_on channel=9 note=42 velocity=0 time=0
EXTRACT: note_on channel=3 note=69 velocity=0 time=0.03
EXTRACT: note_on channel=9 note=42 velocity=0 time=0
EXTRACT: note_on channel=0 note=57 velocity=100 time=0.03
EXTRACT: note_on channel=0 note=62 velocity=100 time=0
EXTRACT: note_on channel=0 note=66 velocity=100 time=0
EXTRACT: note_on channel=2 note=72 velocity=127 time=0
EXTRACT: note_on channel=3 note=69 velocity=64 time=0
EXTRACT: note_on channel=9 note=54 velocity=100 time=0
EXTRACT: note_on channel=9 note=38 velocity=127 time=0
EXTRACT: note_on channel=9 note=42 velocity=127 time=0
EXTRACT: note_on channel=9 note=42 velocity=50 time=0.15
EXTRACT: note_on channel=1 note=45 velocity=0 time=0.03
EXTRACT: note_on channel=0 note=57 velocity=0 time=0.06
EXTRACT: note_on channel=0 note=62 velocity=0 time=0
EXTRACT: note_on channel=0 note=66 velocity=0 time=0
EXTRACT: note_on channel=2 note=72 velocity=0 time=0
EXTRACT: note_on channel=3 note=69 velocity=0 time=0
EXTRACT: note_on channel=9 note=54 velocity=0 time=0
EXTRACT: note_on channel=9 note=38 velocity=0 time=0
EXTRACT: note_on channel=9 note=42 velocity=0 time=0
EXTRACT: note_on channel=9 note=42 velocity=0 time=0.03
EXTRACT: note_on channel=0 note=57 velocity=100 time=0.03
EXTRACT: note_on channel=2 note=72 velocity=127 time=0
EXTRACT: note_on channel=3 note=69 velocity=64 time=0
EXTRACT: note_on channel=9 note=42 velocity=127 time=0
EXTRACT: note_on channel=3 note=69 velocity=0 time=0.12
EXTRACT: note_on channel=0 note=57 velocity=100 time=0.03
EXTRACT: note_on channel=0 note=61 velocity=100 time=0
EXTRACT: note_on channel=0 note=64 velocity=100 time=0
EXTRACT: note_on channel=3 note=69 velocity=64 time=0
EXTRACT: note_on channel=9 note=35 velocity=127 time=0
EXTRACT: note_on channel=9 note=42 velocity=50 time=0
EXTRACT: note_on channel=0 note=57 velocity=0 time=0.09
EXTRACT: note_on channel=2 note=72 velocity=0 time=0
EXTRACT: note_on channel=9 note=42 velocity=0 time=0
EXTRACT: note_on channel=0 note=57 velocity=0 time=0.03
EXTRACT: note_on channel=0 note=61 velocity=0 time=0
EXTRACT: note_on channel=0 note=64 velocity=0 time=0
EXTRACT: note_on channel=9 note=42 velocity=0 time=0
EXTRACT: note_on channel=9 note=42 velocity=127 time=0.03
EXTRACT: note_on channel=0 note=45 velocity=0 time=0.06
EXTRACT: note_on channel=3 note=69 velocity=0 time=0.03
EXTRACT: note_on channel=9 note=35 velocity=0 time=0
EXTRACT: note_on channel=0 note=45 velocity=100 time=0.06
EXTRACT: note_on channel=1 note=45 velocity=100 time=0
EXTRACT: note_on channel=3 note=69 velocity=64 time=0
EXTRACT: note_on channel=9 note=35 velocity=127 time=0
EXTRACT: note_on channel=9 note=42 velocity=50 time=0
EXTRACT: note_on channel=9 note=42 velocity=0 time=0.09
EXTRACT: note_on channel=3 note=69 velocity=0 time=0.03
EXTRACT: note_on channel=9 note=42 velocity=0 time=0
EXTRACT: note_on channel=0 note=57 velocity=100 time=0.03
EXTRACT: note_on channel=0 note=61 velocity=100 time=0
EXTRACT: note_on channel=0 note=64 velocity=100 time=0
EXTRACT: note_on channel=9 note=35 velocity=127 time=0
EXTRACT: note_on channel=9 note=42 velocity=127 time=0
EXTRACT: note_on channel=0 note=45 velocity=0 time=0.09
EXTRACT: note_on channel=1 note=45 velocity=0 time=0
EXTRACT: note_on channel=9 note=35 velocity=0 time=0
EXTRACT: note_on channel=3 note=69 velocity=64 time=0.06
EXTRACT: note_on channel=9 note=42 velocity=50 time=0
EXTRACT: note_on channel=0 note=57 velocity=0 time=0.09
EXTRACT: note_on channel=0 note=61 velocity=0 time=0
EXTRACT: note_on channel=0 note=64 velocity=0 time=0
EXTRACT: note_on channel=9 note=35 velocity=0 time=0
EXTRACT: note_on channel=9 note=42 velocity=0 time=0
EXTRACT: note_on channel=9 note=42 velocity=0 time=0.03
EXTRACT: note_on channel=0 note=45 velocity=100 time=0.03
EXTRACT: note_on channel=1 note=45 velocity=100 time=0
EXTRACT: note_on channel=2 note=72 velocity=120 time=0
EXTRACT: note_on channel=3 note=69 velocity=64 time=0
EXTRACT: note_on channel=9 note=54 velocity=100 time=0
EXTRACT: note_on channel=9 note=38 velocity=127 time=0
EXTRACT: note_on channel=9 note=42 velocity=127 time=0
EXTRACT: note_on channel=3 note=69 velocity=0 time=0.09
EXTRACT: note_on channel=0 note=57 velocity=100 time=0.06
EXTRACT: note_on channel=0 note=61 velocity=100 time=0
EXTRACT: note_on channel=0 note=64 velocity=100 time=0
EXTRACT: note_on channel=9 note=42 velocity=50 time=0
EXTRACT: note_on channel=2 note=72 velocity=0 time=0.09
EXTRACT: note_on channel=3 note=69 velocity=0 time=0
EXTRACT: note_on channel=9 note=54 velocity=0 time=0
EXTRACT: note_on channel=9 note=38 velocity=0 time=0
EXTRACT: note_on channel=9 note=42 velocity=0 time=0
EXTRACT: note_on channel=9 note=42 velocity=0 time=0.03
EXTRACT: note_on channel=2 note=72 velocity=120 time=0.03
EXTRACT: note_on channel=9 note=42 velocity=127 time=0
EXTRACT: note_on channel=0 note=57 velocity=0 time=0.09
EXTRACT: note_on channel=0 note=61 velocity=0 time=0
EXTRACT: note_on channel=0 note=64 velocity=0 time=0
EXTRACT: note_on channel=9 note=42 velocity=50 time=0.06
EXTRACT: note_on channel=0 note=45 velocity=0 time=0.03
EXTRACT: note_on channel=1 note=45 velocity=0 time=0
EXTRACT: note_on channel=2 note=72 velocity=0 time=0.06
EXTRACT: note_on channel=9 note=42 velocity=0 time=0
EXTRACT: note_on channel=9 note=42 velocity=0 time=0.03
EXTRACT: note_on channel=0 note=42 velocity=100 time=0.03
EXTRACT: note_on channel=1 note=42 velocity=100 time=0
EXTRACT: note_on channel=3 note=69 velocity=64 time=0
EXTRACT: note_on channel=9 note=35 velocity=127 time=0
EXTRACT: note_on channel=9 note=42 velocity=127 time=0
EXTRACT: note_on channel=9 note=42 velocity=0 time=0.12
EXTRACT: note_on channel=9 note=42 velocity=50 time=0.03
EXTRACT: note_on channel=0 note=42 velocity=0 time=0.09
EXTRACT: note_on channel=1 note=42 velocity=0 time=0
EXTRACT: note_on channel=3 note=69 velocity=0 time=0
EXTRACT: note_on channel=9 note=35 velocity=0 time=0
EXTRACT: note_on channel=9 note=42 velocity=0 time=0.03
EXTRACT: note_on channel=0 note=42 velocity=100 time=0.03
EXTRACT: note_on channel=1 note=42 velocity=100 time=0
EXTRACT: note_on channel=3 note=69 velocity=64 time=0
EXTRACT: note_on channel=9 note=42 velocity=127 time=0
EXTRACT: note_on channel=3 note=69 velocity=0 time=0.12
EXTRACT: note_on channel=3 note=69 velocity=64 time=0.03
EXTRACT: note_on channel=9 note=42 velocity=50 time=0
EXTRACT: note_on channel=9 note=42 velocity=0 time=0.09
EXTRACT: note_on channel=3 note=69 velocity=0 time=0.03
EXTRACT: note_on channel=9 note=42 velocity=0 time=0
EXTRACT: note_on channel=0 note=57 velocity=100 time=0.03
EXTRACT: note_on channel=0 note=62 velocity=100 time=0
EXTRACT: note_on channel=0 note=66 velocity=100 time=0
EXTRACT: note_on channel=2 note=72 velocity=80 time=0
EXTRACT: note_on channel=3 note=69 velocity=64 time=0
EXTRACT: note_on channel=9 note=54 velocity=100 time=0
EXTRACT: note_on channel=9 note=38 velocity=127 time=0
EXTRACT: note_on channel=9 note=42 velocity=127 time=0
EXTRACT: note_on channel=9 note=42 velocity=50 time=0.15
EXTRACT: note_on channel=0 note=42 velocity=0 time=0.03
EXTRACT: note_on channel=1 note=42 velocity=0 time=0
EXTRACT: note_on channel=0 note=57 velocity=0 time=0.06
EXTRACT: note_on channel=0 note=62 velocity=0 time=0
EXTRACT: note_on channel=0 note=66 velocity=0 time=0
EXTRACT: note_on channel=2 note=72 velocity=0 time=0
EXTRACT: note_on channel=3 note=69 velocity=0 time=0
EXTRACT: note_on channel=9 note=54 velocity=0 time=0
EXTRACT: note_on channel=9 note=38 velocity=0 time=0
EXTRACT: note_on channel=9 note=42 velocity=0 time=0
EXTRACT: note_on channel=9 note=42 velocity=0 time=0.03
EXTRACT: note_on channel=0 note=57 velocity=100 time=0.03
EXTRACT: note_on channel=2 note=72 velocity=80 time=0
EXTRACT: note_on channel=3 note=69 velocity=64 time=0
EXTRACT: note_on channel=9 note=42 velocity=127 time=0
EXTRACT: note_on channel=3 note=69 velocity=0 time=0.12
EXTRACT: note_on channel=0 note=67 velocity=100 time=0.03
EXTRACT: note_on channel=0 note=59 velocity=100 time=0
EXTRACT: note_on channel=0 note=62 velocity=100 time=0
EXTRACT: note_on channel=3 note=69 velocity=64 time=0
EXTRACT: note_on channel=9 note=35 velocity=127 time=0
EXTRACT: note_on channel=9 note=42 velocity=50 time=0
EXTRACT: note_on channel=0 note=57 velocity=0 time=0.09
EXTRACT: note_on channel=2 note=72 velocity=0 time=0
EXTRACT: note_on channel=9 note=42 velocity=0 time=0
EXTRACT: note_on channel=0 note=67 velocity=0 time=0.03
EXTRACT: note_on channel=0 note=59 velocity=0 time=0
EXTRACT: note_on channel=0 note=62 velocity=0 time=0
EXTRACT: note_on channel=9 note=42 velocity=0 time=0
EXTRACT: note_on channel=9 note=42 velocity=127 time=0.03
EXTRACT: note_on channel=3 note=69 velocity=0 time=0.09
EXTRACT: note_on channel=9 note=35 velocity=0 time=0
EXTRACT: note_on channel=0 note=43 velocity=100 time=0.06
EXTRACT: note_on channel=1 note=43 velocity=100 time=0
EXTRACT: note_on channel=3 note=69 velocity=64 time=0
EXTRACT: note_on channel=9 note=35 velocity=127 time=0
EXTRACT: note_on channel=9 note=42 velocity=50 time=0
EXTRACT: note_on channel=9 note=42 velocity=0 time=0.09
EXTRACT: note_on channel=3 note=69 velocity=0 time=0.03
EXTRACT: note_on channel=9 note=42 velocity=0 time=0
EXTRACT: note_on channel=0 note=67 velocity=100 time=0.03
EXTRACT: note_on channel=0 note=59 velocity=100 time=0
EXTRACT: note_on channel=0 note=62 velocity=100 time=0
EXTRACT: note_on channel=9 note=35 velocity=127 time=0
EXTRACT: note_on channel=9 note=42 velocity=127 time=0
EXTRACT: note_on channel=0 note=43 velocity=0 time=0.09
EXTRACT: note_on channel=1 note=43 velocity=0 time=0
EXTRACT: note_on channel=9 note=35 velocity=0 time=0
EXTRACT: note_on channel=3 note=69 velocity=64 time=0.06
EXTRACT: note_on channel=9 note=42 velocity=50 time=0
EXTRACT: note_on channel=0 note=67 velocity=0 time=0.09
EXTRACT: note_on channel=0 note=59 velocity=0 time=0
EXTRACT: note_on channel=0 note=62 velocity=0 time=0
EXTRACT: note_on channel=9 note=35 velocity=0 time=0
EXTRACT: note_on channel=9 note=42 velocity=0 time=0
EXTRACT: note_on channel=9 note=42 velocity=0 time=0.03
EXTRACT: note_on channel=0 note=43 velocity=100 time=0.03
EXTRACT: note_on channel=1 note=43 velocity=100 time=0
EXTRACT: note_on channel=3 note=69 velocity=64 time=0
EXTRACT: note_on channel=9 note=54 velocity=100 time=0
EXTRACT: note_on channel=9 note=38 velocity=127 time=0
EXTRACT: note_on channel=9 note=42 velocity=127 time=0
EXTRACT: note_on channel=3 note=69 velocity=0 time=0.09
EXTRACT: note_on channel=0 note=67 velocity=100 time=0.06
EXTRACT: note_on channel=0 note=59 velocity=100 time=0
EXTRACT: note_on channel=0 note=62 velocity=100 time=0
EXTRACT: note_on channel=9 note=42 velocity=50 time=0
EXTRACT: note_on channel=3 note=69 velocity=0 time=0.09
EXTRACT: note_on channel=9 note=54 velocity=0 time=0
EXTRACT: note_on channel=9 note=38 velocity=0 time=0
EXTRACT: note_on channel=9 note=42 velocity=0 time=0
EXTRACT: note_on channel=9 note=42 velocity=0 time=0.03
EXTRACT: note_on channel=9 note=42 velocity=127 time=0.03
EXTRACT: note_on channel=0 note=67 velocity=0 time=0.09
EXTRACT: note_on channel=0 note=59 velocity=0 time=0
EXTRACT: note_on channel=0 note=62 velocity=0 time=0
EXTRACT: note_on channel=9 note=42 velocity=50 time=0.06
EXTRACT: note_on channel=0 note=43 velocity=0 time=0.03
EXTRACT: note_on channel=1 note=43 velocity=0 time=0
EXTRACT: note_on channel=9 note=42 velocity=0 time=0.06
EXTRACT: note_on channel=9 note=42 velocity=0 time=0.03
EXTRACT: note_on channel=0 note=57 velocity=100 time=0.03
EXTRACT: note_on channel=0 note=61 velocity=100 time=0
EXTRACT: note_on channel=0 note=64 velocity=100 time=0
EXTRACT: note_on channel=4 note=33 velocity=100 time=0
EXTRACT: note_on channel=4 note=45 velocity=100 time=0
EXTRACT: note_on channel=9 note=35 velocity=127 time=0
EXTRACT: note_on channel=9 note=42 velocity=127 time=0
EXTRACT: note_on channel=4 note=33 velocity=0 time=0.12
EXTRACT: note_on channel=4 note=45 velocity=0 time=0
EXTRACT: note_on channel=9 note=42 velocity=0 time=0
EXTRACT: note_on channel=4 note=33 velocity=100 time=0.03
EXTRACT: note_on channel=4 note=45 velocity=100 time=0
EXTRACT: note_on channel=9 note=42 velocity=50 time=0
EXTRACT: note_on channel=0 note=57 velocity=0 time=0.09
EXTRACT: note_on channel=0 note=61 velocity=0 time=0
EXTRACT: note_on channel=0 note=64 velocity=0 time=0
EXTRACT: note_on channel=9 note=35 velocity=0 time=0
EXTRACT: note_on channel=4 note=33 velocity=0 time=0.03
EXTRACT: note_on channel=4 note=45 velocity=0 time=0
EXTRACT: note_on channel=9 note=42 velocity=0 time=0
EXTRACT: note_on channel=2 note=43 velocity=70 time=0.03
EXTRACT: note_on channel=2 note=55 velocity=127 time=0
EXTRACT: note_on channel=9 note=42 velocity=127 time=0
EXTRACT: note_on channel=9 note=42 velocity=50 time=0.15
EXTRACT: note_on channel=2 note=43 velocity=0 time=0.09
EXTRACT: note_on channel=2 note=55 velocity=0 time=0
EXTRACT: note_on channel=9 note=42 velocity=0 time=0
EXTRACT: note_on channel=9 note=42 velocity=0 time=0.03
EXTRACT: note_on channel=2 note=43 velocity=70 time=0.03
EXTRACT: note_on channel=2 note=55 velocity=127 time=0
EXTRACT: note_on channel=3 note=69 velocity=51 time=0
EXTRACT: note_on channel=9 note=54 velocity=100 time=0
EXTRACT: note_on channel=9 note=38 velocity=127 time=0
EXTRACT: note_on channel=9 note=42 velocity=127 time=0
EXTRACT: note_on channel=9 note=42 velocity=50 time=0.15
EXTRACT: note_on channel=2 note=43 velocity=0 time=0.09
EXTRACT: note_on channel=2 note=55 velocity=0 time=0
EXTRACT: note_on channel=3 note=69 velocity=0 time=0
EXTRACT: note_on channel=9 note=54 velocity=0 time=0
EXTRACT: note_on channel=9 note=38 velocity=0 time=0
EXTRACT: note_on channel=9 note=42 velocity=0 time=0
EXTRACT: note_on channel=9 note=42 velocity=0 time=0.03
EXTRACT: note_on channel=2 note=43 velocity=70 time=0.03
EXTRACT: note_on channel=2 note=55 velocity=127 time=0
EXTRACT: note_on channel=3 note=69 velocity=51 time=0
EXTRACT: note_on channel=9 note=42 velocity=127 time=0
EXTRACT: note_on channel=2 note=43 velocity=0 time=0.12
EXTRACT: note_on channel=2 note=55 velocity=0 time=0
EXTRACT: note_on channel=3 note=69 velocity=0 time=0
EXTRACT: note_on channel=2 note=43 velocity=70 time=0.03
EXTRACT: note_on channel=2 note=55 velocity=127 time=0
EXTRACT: note_on channel=3 note=69 velocity=51 time=0
EXTRACT: note_on channel=9 note=35 velocity=127 time=0
EXTRACT: note_on channel=9 note=42 velocity=50 time=0
EXTRACT: note_on channel=9 note=42 velocity=0 time=0.09
EXTRACT: note_on channel=3 note=69 velocity=0 time=0.03
EXTRACT: note_on channel=9 note=42 velocity=0 time=0
EXTRACT: note_on channel=9 note=42 velocity=127 time=0.03
EXTRACT: note_on channel=2 note=43 velocity=0 time=0.09
EXTRACT: note_on channel=2 note=55 velocity=0 time=0
EXTRACT: note_on channel=9 note=35 velocity=0 time=0
EXTRACT: note_on channel=2 note=43 velocity=70 time=0.06
EXTRACT: note_on channel=2 note=55 velocity=127 time=0
EXTRACT: note_on channel=3 note=69 velocity=51 time=0
EXTRACT: note_on channel=9 note=35 velocity=127 time=0
EXTRACT: note_on channel=9 note=42 velocity=50 time=0
EXTRACT: note_on channel=9 note=42 velocity=0 time=0.09
EXTRACT: note_on channel=2 note=43 velocity=0 time=0.03
EXTRACT: note_on channel=2 note=55 velocity=0 time=0
EXTRACT: note_on channel=3 note=69 velocity=0 time=0
EXTRACT: note_on channel=9 note=42 velocity=0 time=0
EXTRACT: note_on channel=2 note=43 velocity=70 time=0.03
EXTRACT: note_on channel=2 note=55 velocity=127 time=0
EXTRACT: note_on channel=3 note=69 velocity=51 time=0
EXTRACT: note_on channel=4 note=38 velocity=100 time=0
EXTRACT: note_on channel=4 note=50 velocity=100 time=0
EXTRACT: note_on channel=9 note=35 velocity=127 time=0
EXTRACT: note_on channel=9 note=42 velocity=127 time=0
EXTRACT: note_on channel=9 note=35 velocity=0 time=0.09
EXTRACT: note_on channel=2 note=43 velocity=0 time=0.03
EXTRACT: note_on channel=2 note=55 velocity=0 time=0
EXTRACT: note_on channel=3 note=69 velocity=0 time=0
EXTRACT: note_on channel=2 note=43 velocity=70 time=0.03
EXTRACT: note_on channel=2 note=55 velocity=127 time=0
EXTRACT: note_on channel=3 note=69 velocity=51 time=0
EXTRACT: note_on channel=9 note=42 velocity=50 time=0
EXTRACT: note_on channel=4 note=38 velocity=0 time=0.09
EXTRACT: note_on channel=4 note=50 velocity=0 time=0
EXTRACT: note_on channel=9 note=35 velocity=0 time=0
EXTRACT: note_on channel=9 note=42 velocity=0 time=0
EXTRACT: note_on channel=2 note=43 velocity=0 time=0.03
EXTRACT: note_on channel=2 note=55 velocity=0 time=0
EXTRACT: note_on channel=3 note=69 velocity=0 time=0
EXTRACT: note_on channel=9 note=42 velocity=0 time=0
EXTRACT: note_on channel=2 note=43 velocity=70 time=0.03
EXTRACT: note_on channel=2 note=55 velocity=127 time=0
EXTRACT: note_on channel=3 note=69 velocity=51 time=0
EXTRACT: note_on channel=9 note=54 velocity=100 time=0
EXTRACT: note_on channel=9 note=38 velocity=127 time=0
EXTRACT: note_on channel=9 note=42 velocity=127 time=0
EXTRACT: note_on channel=2 note=43 velocity=0 time=0.12
EXTRACT: note_on channel=2 note=55 velocity=0 time=0
EXTRACT: note_on channel=2 note=43 velocity=70 time=0.03
EXTRACT: note_on channel=2 note=55 velocity=127 time=0
EXTRACT: note_on channel=4 note=40 velocity=100 time=0
EXTRACT: note_on channel=4 note=52 velocity=100 time=0
EXTRACT: note_on channel=9 note=42 velocity=50 time=0
EXTRACT: note_on channel=3 note=69 velocity=0 time=0.09
EXTRACT: note_on channel=9 note=54 velocity=0 time=0
EXTRACT: note_on channel=9 note=38 velocity=0 time=0
EXTRACT: note_on channel=9 note=42 velocity=0 time=0
EXTRACT: note_on channel=2 note=43 velocity=0 time=0.03
EXTRACT: note_on channel=2 note=55 velocity=0 time=0
EXTRACT: note_on channel=9 note=42 velocity=0 time=0
EXTRACT: note_on channel=2 note=43 velocity=70 time=0.03
EXTRACT: note_on channel=2 note=55 velocity=127 time=0
EXTRACT: note_on channel=3 note=69 velocity=51 time=0
EXTRACT: note_on channel=9 note=42 velocity=127 time=0
EXTRACT: note_on channel=4 note=40 velocity=0 time=0.09
EXTRACT: note_on channel=4 note=52 velocity=0 time=0
EXTRACT: note_on channel=2 note=43 velocity=0 time=0.03
EXTRACT: note_on channel=2 note=55 velocity=0 time=0
EXTRACT: note_on channel=2 note=43 velocity=70 time=0.03
EXTRACT: note_on channel=2 note=55 velocity=127 time=0
EXTRACT: note_on channel=9 note=42 velocity=50 time=0
EXTRACT: note_on channel=3 note=69 velocity=0 time=0.09
EXTRACT: note_on channel=9 note=42 velocity=0 time=0
EXTRACT: note_on channel=2 note=43 velocity=0 time=0.03
EXTRACT: note_on channel=2 note=55 velocity=0 time=0
EXTRACT: note_on channel=9 note=42 velocity=0 time=0
EXTRACT: note_on channel=2 note=43 velocity=70 time=0.03
EXTRACT: note_on channel=2 note=55 velocity=127 time=0
EXTRACT: note_on channel=4 note=33 velocity=100 time=0
EXTRACT: note_on channel=4 note=45 velocity=100 time=0
EXTRACT: note_on channel=9 note=35 velocity=127 time=0
EXTRACT: note_on channel=9 note=42 velocity=127 time=0
EXTRACT: note_on channel=4 note=33 velocity=0 time=0.12
EXTRACT: note_on channel=4 note=45 velocity=0 time=0
EXTRACT: note_on channel=9 note=42 velocity=0 time=0
EXTRACT: note_on channel=4 note=33 velocity=100 time=0.03
EXTRACT: note_on channel=4 note=45 velocity=100 time=0
EXTRACT: note_on channel=9 note=42 velocity=50 time=0
EXTRACT: note_on channel=2 note=43 velocity=0 time=0.09
EXTRACT: note_on channel=2 note=55 velocity=0 time=0
EXTRACT: note_on channel=9 note=35 velocity=0 time=0
EXTRACT: note_on channel=4 note=33 velocity=0 time=0.03
EXTRACT: note_on channel=4 note=45 velocity=0 time=0
EXTRACT: note_on channel=9 note=42 velocity=0 time=0
EXTRACT: note_on channel=2 note=43 velocity=70 time=0.03
EXTRACT: note_on channel=2 note=55 velocity=127 time=0
EXTRACT: note_on channel=3 note=69 velocity=51 time=0
EXTRACT: note_on channel=9 note=42 velocity=127 time=0
EXTRACT: note_on channel=9 note=42 velocity=50 time=0.15
EXTRACT: note_on channel=2 note=43 velocity=0 time=0.09
EXTRACT: note_on channel=2 note=55 velocity=0 time=0
EXTRACT: note_on channel=3 note=69 velocity=0 time=0
EXTRACT: note_on channel=9 note=42 velocity=0 time=0
EXTRACT: note_on channel=9 note=42 velocity=0 time=0.03
EXTRACT: note_on channel=2 note=43 velocity=70 time=0.03
EXTRACT: note_on channel=2 note=55 velocity=127 time=0
EXTRACT: note_on channel=3 note=69 velocity=51 time=0
EXTRACT: note_on channel=9 note=54 velocity=100 time=0
EXTRACT: note_on channel=9 note=38 velocity=127 time=0
EXTRACT: note_on channel=9 note=42 velocity=127 time=0
EXTRACT: note_on channel=9 note=42 velocity=50 time=0.15
EXTRACT: note_on channel=2 note=43 velocity=0 time=0.09
EXTRACT: note_on channel=2 note=55 velocity=0 time=0
EXTRACT: note_on channel=3 note=69 velocity=0 time=0
EXTRACT: note_on channel=9 note=54 velocity=0 time=0
EXTRACT: note_on channel=9 note=38 velocity=0 time=0
EXTRACT: note_on channel=9 note=42 velocity=0 time=0
EXTRACT: note_on channel=9 note=42 velocity=0 time=0.03
EXTRACT: note_on channel=2 note=40 velocity=70 time=0.03
EXTRACT: note_on channel=2 note=52 velocity=127 time=0
EXTRACT: note_on channel=3 note=69 velocity=51 time=0
EXTRACT: note_on channel=9 note=42 velocity=127 time=0
EXTRACT: note_on channel=3 note=69 velocity=0 time=0.12
EXTRACT: note_on channel=2 note=45 velocity=70 time=0.03
EXTRACT: note_on channel=2 note=57 velocity=127 time=0
EXTRACT: note_on channel=3 note=69 velocity=51 time=0
EXTRACT: note_on channel=9 note=35 velocity=127 time=0
EXTRACT: note_on channel=9 note=42 velocity=50 time=0
EXTRACT: note_on channel=2 note=40 velocity=0 time=0.09
EXTRACT: note_on channel=2 note=52 velocity=0 time=0
EXTRACT: note_on channel=9 note=42 velocity=0 time=0
EXTRACT: note_on channel=3 note=69 velocity=0 time=0.03
EXTRACT: note_on channel=9 note=42 velocity=0 time=0
EXTRACT: note_on channel=9 note=42 velocity=127 time=0.03
EXTRACT: note_on channel=9 note=35 velocity=0 time=0.09
EXTRACT: note_on channel=3 note=69 velocity=51 time=0.06
EXTRACT: note_on channel=9 note=35 velocity=127 time=0
EXTRACT: note_on channel=9 note=42 velocity=50 time=0
EXTRACT: note_on channel=9 note=42 velocity=0 time=0.09
EXTRACT: note_on channel=3 note=69 velocity=0 time=0.03
EXTRACT: note_on channel=9 note=42 velocity=0 time=0
EXTRACT: note_on channel=3 note=69 velocity=51 time=0.03
EXTRACT: note_on channel=4 note=47 velocity=100 time=0
EXTRACT: note_on channel=4 note=59 velocity=100 time=0
EXTRACT: note_on channel=9 note=35 velocity=127 time=0
EXTRACT: note_on channel=9 note=42 velocity=127 time=0
EXTRACT: note_on channel=2 note=45 velocity=0 time=0.03
EXTRACT: note_on channel=2 note=57 velocity=0 time=0
EXTRACT: note_on channel=9 note=35 velocity=0 time=0.06
EXTRACT: note_on channel=3 note=69 velocity=0 time=0.03
EXTRACT: note_on channel=3 note=69 velocity=51 time=0.03
EXTRACT: note_on channel=9 note=42 velocity=50 time=0
EXTRACT: note_on channel=4 note=47 velocity=0 time=0.09
EXTRACT: note_on channel=4 note=59 velocity=0 time=0
EXTRACT: note_on channel=9 note=35 velocity=0 time=0
EXTRACT: note_on channel=9 note=42 velocity=0 time=0
EXTRACT: note_on channel=3 note=69 velocity=0 time=0.03
EXTRACT: note_on channel=9 note=42 velocity=0 time=0
EXTRACT: note_on channel=3 note=69 velocity=51 time=0.03
EXTRACT: note_on channel=9 note=54 velocity=100 time=0
EXTRACT: note_on channel=9 note=38 velocity=127 time=0
EXTRACT: note_on channel=9 note=42 velocity=127 time=0
EXTRACT: note_on channel=4 note=45 velocity=100 time=0.15
EXTRACT: note_on channel=4 note=57 velocity=100 time=0
EXTRACT: note_on channel=9 note=42 velocity=50 time=0
EXTRACT: note_on channel=3 note=69 velocity=0 time=0.09
EXTRACT: note_on channel=9 note=54 velocity=0 time=0
EXTRACT: note_on channel=9 note=38 velocity=0 time=0
EXTRACT: note_on channel=9 note=42 velocity=0 time=0
EXTRACT: note_on channel=9 note=42 velocity=0 time=0.03
EXTRACT: note_on channel=3 note=69 velocity=51 time=0.03
EXTRACT: note_on channel=9 note=42 velocity=127 time=0
EXTRACT: note_on channel=4 note=45 velocity=0 time=0.09
EXTRACT: note_on channel=4 note=57 velocity=0 time=0
EXTRACT: note_on channel=9 note=42 velocity=50 time=0.06
EXTRACT: note_on channel=3 note=69 velocity=0 time=0.09
EXTRACT: note_on channel=9 note=42 velocity=0 time=0
EXTRACT: note_on channel=9 note=42 velocity=0 time=0.03
EXTRACT: note_on channel=4 note=33 velocity=100 time=0.03
EXTRACT: note_on channel=4 note=45 velocity=100 time=0
EXTRACT: note_on channel=9 note=35 velocity=127 time=0
EXTRACT: note_on channel=9 note=42 velocity=127 time=0
EXTRACT: note_on channel=4 note=33 velocity=0 time=0.12
EXTRACT: note_on channel=4 note=45 velocity=0 time=0
EXTRACT: note_on channel=9 note=42 velocity=0 time=0
EXTRACT: note_on channel=4 note=33 velocity=100 time=0.03
EXTRACT: note_on channel=4 note=45 velocity=100 time=0
EXTRACT: note_on channel=9 note=42 velocity=50 time=0
EXTRACT: note_on channel=9 note=35 velocity=0 time=0.09
EXTRACT: note_on channel=4 note=33 velocity=0 time=0.03
EXTRACT: note_on channel=4 note=45 velocity=0 time=0
EXTRACT: note_on channel=9 note=42 velocity=0 time=0
EXTRACT: note_on channel=2 note=60 velocity=70 time=0.03
EXTRACT: note_on channel=2 note=72 velocity=100 time=0
EXTRACT: note_on channel=3 note=69 velocity=50 time=0
EXTRACT: note_on channel=9 note=42 velocity=127 time=0
EXTRACT: note_on channel=9 note=42 velocity=50 time=0.15
EXTRACT: note_on channel=2 note=60 velocity=0 time=0.09
EXTRACT: note_on channel=2 note=72 velocity=0 time=0
EXTRACT: note_on channel=3 note=69 velocity=0 time=0
EXTRACT: note_on channel=9 note=42 velocity=0 time=0
EXTRACT: note_on channel=9 note=42 velocity=0 time=0.03
EXTRACT: note_on channel=2 note=60 velocity=70 time=0.03
EXTRACT: note_on channel=2 note=72 velocity=100 time=0
EXTRACT: note_on channel=3 note=69 velocity=50 time=0
EXTRACT: note_on channel=9 note=38 velocity=127 time=0
EXTRACT: note_on channel=9 note=42 velocity=127 time=0
EXTRACT: note_on channel=9 note=42 velocity=50 time=0.15
EXTRACT: note_on channel=2 note=60 velocity=0 time=0.09
EXTRACT: note_on channel=2 note=72 velocity=0 time=0
EXTRACT: note_on channel=3 note=69 velocity=0 time=0
EXTRACT: note_on channel=9 note=38 velocity=0 time=0
EXTRACT: note_on channel=9 note=42 velocity=0 time=0
EXTRACT: note_on channel=9 note=42 velocity=0 time=0.03
EXTRACT: note_on channel=2 note=60 velocity=70 time=0.03
EXTRACT: note_on channel=2 note=72 velocity=100 time=0
EXTRACT: note_on channel=3 note=69 velocity=50 time=0
EXTRACT: note_on channel=9 note=42 velocity=127 time=0
EXTRACT: note_on channel=3 note=69 velocity=0 time=0.12
EXTRACT: note_on channel=3 note=69 velocity=50 time=0.03
EXTRACT: note_on channel=9 note=35 velocity=127 time=0
EXTRACT: note_on channel=9 note=42 velocity=50 time=0
EXTRACT: note_on channel=2 note=60 velocity=0 time=0.09
EXTRACT: note_on channel=2 note=72 velocity=0 time=0
EXTRACT: note_on channel=9 note=42 velocity=0 time=0
EXTRACT: note_on channel=3 note=69 velocity=0 time=0.03
EXTRACT: note_on channel=9 note=42 velocity=0 time=0
EXTRACT: note_on channel=2 note=59 velocity=70 time=0.03
EXTRACT: note_on channel=2 note=71 velocity=100 time=0
EXTRACT: note_on channel=9 note=42 velocity=127 time=0
EXTRACT: note_on channel=9 note=35 velocity=0 time=0.09
EXTRACT: note_on channel=3 note=69 velocity=50 time=0.06
EXTRACT: note_on channel=9 note=35 velocity=127 time=0
EXTRACT: note_on channel=9 note=42 velocity=50 time=0
EXTRACT: note_on channel=2 note=59 velocity=0 time=0.09
EXTRACT: note_on channel=2 note=71 velocity=0 time=0
EXTRACT: note_on channel=9 note=42 velocity=0 time=0
EXTRACT: note_on channel=3 note=69 velocity=0 time=0.03
EXTRACT: note_on channel=9 note=42 velocity=0 time=0
EXTRACT: note_on channel=2 note=57 velocity=70 time=0.03
EXTRACT: note_on channel=2 note=69 velocity=100 time=0
EXTRACT: note_on channel=3 note=69 velocity=50 time=0
EXTRACT: note_on channel=4 note=38 velocity=100 time=0
EXTRACT: note_on channel=4 note=50 velocity=100 time=0
EXTRACT: note_on channel=9 note=35 velocity=127 time=0
EXTRACT: note_on channel=9 note=42 velocity=127 time=0
EXTRACT: note_on channel=9 note=35 velocity=0 time=0.09
EXTRACT: note_on channel=2 note=57 velocity=0 time=0.03
EXTRACT: note_on channel=2 note=69 velocity=0 time=0
EXTRACT: note_on channel=3 note=69 velocity=0 time=0
EXTRACT: note_on channel=2 note=57 velocity=70 time=0.03
EXTRACT: note_on channel=2 note=69 velocity=100 time=0
EXTRACT: note_on channel=3 note=69 velocity=50 time=0
EXTRACT: note_on channel=9 note=42 velocity=50 time=0
EXTRACT: note_on channel=4 note=38 velocity=0 time=0.09
EXTRACT: note_on channel=4 note=50 velocity=0 time=0
EXTRACT: note_on channel=9 note=35 velocity=0 time=0
EXTRACT: note_on channel=9 note=42 velocity=0 time=0
EXTRACT: note_on channel=3 note=69 velocity=0 time=0.03
EXTRACT: note_on channel=9 note=42 velocity=0 time=0
EXTRACT: note_on channel=3 note=69 velocity=50 time=0.03
EXTRACT: note_on channel=9 note=38 velocity=127 time=0
EXTRACT: note_on channel=9 note=42 velocity=127 time=0
EXTRACT: note_on channel=2 note=57 velocity=0 time=0.09
EXTRACT: note_on channel=2 note=69 velocity=0 time=0
EXTRACT: note_on channel=4 note=40 velocity=100 time=0.06
EXTRACT: note_on channel=4 note=52 velocity=100 time=0
EXTRACT: note_on channel=9 note=42 velocity=50 time=0
EXTRACT: note_on channel=3 note=69 velocity=0 time=0.09
EXTRACT: note_on channel=9 note=38 velocity=0 time=0
EXTRACT: note_on channel=9 note=42 velocity=0 time=0
EXTRACT: note_on channel=9 note=42 velocity=0 time=0.03
EXTRACT: note_on channel=3 note=69 velocity=50 time=0.03
EXTRACT: note_on channel=9 note=42 velocity=127 time=0
EXTRACT: note_on channel=4 note=40 velocity=0 time=0.09
EXTRACT: note_on channel=4 note=52 velocity=0 time=0
EXTRACT: note_on channel=9 note=42 velocity=50 time=0.06
EXTRACT: note_on channel=3 note=69 velocity=0 time=0.09
EXTRACT: note_on channel=9 note=42 velocity=0 time=0
EXTRACT: note_on channel=9 note=42 velocity=0 time=0.03
EXTRACT: note_on channel=2 note=43 velocity=70 time=0.03
EXTRACT: note_on channel=2 note=55 velocity=100 time=0
EXTRACT: note_on channel=4 note=33 velocity=100 time=0
EXTRACT: note_on channel=4 note=45 velocity=100 time=0
EXTRACT: note_on channel=9 note=35 velocity=127 time=0
EXTRACT: note_on channel=9 note=42 velocity=127 time=0
EXTRACT: note_on channel=4 note=33 velocity=0 time=0.12
EXTRACT: note_on channel=4 note=45 velocity=0 time=0
EXTRACT: note_on channel=9 note=42 velocity=0 time=0
EXTRACT: note_on channel=4 note=33 velocity=100 time=0.03
EXTRACT: note_on channel=4 note=45 velocity=100 time=0
EXTRACT: note_on channel=9 note=42 velocity=50 time=0
EXTRACT: note_on channel=2 note=43 velocity=0 time=0.09
EXTRACT: note_on channel=2 note=55 velocity=0 time=0
EXTRACT: note_on channel=9 note=35 velocity=0 time=0
EXTRACT: note_on channel=4 note=33 velocity=0 time=0.03
EXTRACT: note_on channel=4 note=45 velocity=0 time=0
EXTRACT: note_on channel=9 note=42 velocity=0 time=0
EXTRACT: note_on channel=2 note=43 velocity=70 time=0.03
EXTRACT: note_on channel=2 note=55 velocity=100 time=0
EXTRACT: note_on channel=3 note=69 velocity=50 time=0
EXTRACT: note_on channel=9 note=42 velocity=127 time=0
EXTRACT: note_on channel=9 note=42 velocity=50 time=0.15
EXTRACT: note_on channel=2 note=43 velocity=0 time=0.09
EXTRACT: note_on channel=2 note=55 velocity=0 time=0
EXTRACT: note_on channel=3 note=69 velocity=0 time=0
EXTRACT: note_on channel=9 note=42 velocity=0 time=0
EXTRACT: note_on channel=9 note=42 velocity=0 time=0.03
EXTRACT: note_on channel=2 note=45 velocity=70 time=0.03
EXTRACT: note_on channel=2 note=57 velocity=100 time=0
EXTRACT: note_on channel=3 note=69 velocity=50 time=0
EXTRACT: note_on channel=9 note=38 velocity=127 time=0
EXTRACT: note_on channel=9 note=42 velocity=127 time=0
EXTRACT: note_on channel=9 note=42 velocity=50 time=0.15
EXTRACT: note_on channel=2 note=45 velocity=0 time=0.09
EXTRACT: note_on channel=2 note=57 velocity=0 time=0
EXTRACT: note_on channel=3 note=69 velocity=0 time=0
EXTRACT: note_on channel=9 note=38 velocity=0 time=0
EXTRACT: note_on channel=9 note=42 velocity=0 time=0
EXTRACT: note_on channel=9 note=42 velocity=0 time=0.03
EXTRACT: note_on channel=2 note=42 velocity=70 time=0.03
EXTRACT: note_on channel=2 note=54 velocity=100 time=0
EXTRACT: note_on channel=3 note=69 velocity=50 time=0
EXTRACT: note_on channel=9 note=42 velocity=127 time=0
EXTRACT: note_on channel=2 note=42 velocity=0 time=0.12
EXTRACT: note_on channel=2 note=54 velocity=0 time=0
EXTRACT: note_on channel=3 note=69 velocity=0 time=0
EXTRACT: note_on channel=2 note=42 velocity=70 time=0.03
EXTRACT: note_on channel=2 note=54 velocity=100 time=0
EXTRACT: note_on channel=3 note=69 velocity=50 time=0
EXTRACT: note_on channel=9 note=35 velocity=127 time=0
EXTRACT: note_on channel=9 note=42 velocity=50 time=0
EXTRACT: note_on channel=9 note=42 velocity=0 time=0.09
EXTRACT: note_on channel=3 note=69 velocity=0 time=0.03
EXTRACT: note_on channel=9 note=42 velocity=0 time=0
EXTRACT: note_on channel=9 note=42 velocity=127 time=0.03
EXTRACT: note_on channel=9 note=35 velocity=0 time=0.09
EXTRACT: note_on channel=3 note=69 velocity=50 time=0.06
EXTRACT: note_on channel=9 note=35 velocity=127 time=0
EXTRACT: note_on channel=9 note=42 velocity=50 time=0
EXTRACT: note_on channel=9 note=42 velocity=0 time=0.09
EXTRACT: note_on channel=3 note=69 velocity=0 time=0.03
EXTRACT: note_on channel=9 note=42 velocity=0 time=0
EXTRACT: note_on channel=3 note=69 velocity=50 time=0.03
EXTRACT: note_on channel=4 note=47 velocity=100 time=0
EXTRACT: note_on channel=9 note=35 velocity=127 time=0
EXTRACT: note_on channel=9 note=42 velocity=127 time=0
EXTRACT: note_on channel=2 note=42 velocity=0 time=0.03
EXTRACT: note_on channel=2 note=54 velocity=0 time=0
EXTRACT: note_on channel=9 note=35 velocity=0 time=0.06
EXTRACT: note_on channel=3 note=69 velocity=0 time=0.03
EXTRACT: note_on channel=4 note=47 velocity=0 time=0
EXTRACT: note_on channel=3 note=69 velocity=50 time=0.03
EXTRACT: note_on channel=4 note=45 velocity=100 time=0
EXTRACT: note_on channel=9 note=42 velocity=50 time=0
EXTRACT: note_on channel=9 note=35 velocity=0 time=0.09
EXTRACT: note_on channel=9 note=42 velocity=0 time=0
EXTRACT: note_on channel=3 note=69 velocity=0 time=0.03
EXTRACT: note_on channel=4 note=45 velocity=0 time=0
EXTRACT: note_on channel=9 note=42 velocity=0 time=0
EXTRACT: note_on channel=3 note=69 velocity=50 time=0.03
EXTRACT: note_on channel=4 note=42 velocity=100 time=0
EXTRACT: note_on channel=9 note=38 velocity=127 time=0
EXTRACT: note_on channel=9 note=42 velocity=127 time=0
EXTRACT: note_on channel=4 note=42 velocity=0 time=0.12
EXTRACT: note_on channel=4 note=45 velocity=100 time=0.03
EXTRACT: note_on channel=9 note=42 velocity=50 time=0
EXTRACT: note_on channel=3 note=69 velocity=0 time=0.09
EXTRACT: note_on channel=9 note=38 velocity=0 time=0
EXTRACT: note_on channel=9 note=42 velocity=0 time=0
EXTRACT: note_on channel=4 note=45 velocity=0 time=0.03
EXTRACT: note_on channel=9 note=42 velocity=0 time=0
EXTRACT: note_on channel=3 note=69 velocity=50 time=0.03
EXTRACT: note_on channel=4 note=42 velocity=100 time=0
EXTRACT: note_on channel=9 note=42 velocity=127 time=0
EXTRACT: note_on channel=4 note=42 velocity=0 time=0.12
EXTRACT: note_on channel=4 note=40 velocity=100 time=0.03
EXTRACT: note_on channel=9 note=42 velocity=50 time=0
EXTRACT: note_on channel=3 note=69 velocity=0 time=0.09
EXTRACT: note_on channel=9 note=42 velocity=0 time=0
EXTRACT: note_on channel=4 note=40 velocity=0 time=0.03
EXTRACT: note_on channel=9 note=42 velocity=0 time=0
EXTRACT: note_on channel=4 note=33 velocity=100 time=0.03
EXTRACT: note_on channel=4 note=45 velocity=100 time=0
EXTRACT: note_on channel=9 note=35 velocity=127 time=0
EXTRACT: note_on channel=9 note=42 velocity=127 time=0
EXTRACT: note_on channel=4 note=33 velocity=0 time=0.12
EXTRACT: note_on channel=4 note=45 velocity=0 time=0
EXTRACT: note_on channel=9 note=42 velocity=0 time=0
EXTRACT: note_on channel=4 note=33 velocity=100 time=0.03
EXTRACT: note_on channel=4 note=45 velocity=100 time=0
EXTRACT: note_on channel=9 note=42 velocity=50 time=0
EXTRACT: note_on channel=9 note=35 velocity=0 time=0.09
EXTRACT: note_on channel=4 note=33 velocity=0 time=0.03
EXTRACT: note_on channel=4 note=45 velocity=0 time=0
EXTRACT: note_on channel=9 note=42 velocity=0 time=0
EXTRACT: note_on channel=2 note=43 velocity=70 time=0.03
EXTRACT: note_on channel=2 note=55 velocity=100 time=0
EXTRACT: note_on channel=3 note=69 velocity=50 time=0
EXTRACT: note_on channel=9 note=42 velocity=127 time=0
EXTRACT: note_on channel=2 note=43 velocity=0 time=0.12
EXTRACT: note_on channel=2 note=55 velocity=0 time=0
EXTRACT: note_on channel=2 note=43 velocity=70 time=0.03
EXTRACT: note_on channel=2 note=55 velocity=100 time=0
EXTRACT: note_on channel=9 note=42 velocity=50 time=0
EXTRACT: note_on channel=3 note=69 velocity=0 time=0.09
EXTRACT: note_on channel=9 note=42 velocity=0 time=0
EXTRACT: note_on channel=2 note=43 velocity=0 time=0.03
EXTRACT: note_on channel=2 note=55 velocity=0 time=0
EXTRACT: note_on channel=9 note=42 velocity=0 time=0
EXTRACT: note_on channel=2 note=43 velocity=70 time=0.03
EXTRACT: note_on channel=2 note=55 velocity=100 time=0
EXTRACT: note_on channel=3 note=69 velocity=50 time=0
EXTRACT: note_on channel=9 note=38 velocity=127 time=0
EXTRACT: note_on channel=9 note=42 velocity=127 time=0
EXTRACT: note_on channel=9 note=42 velocity=50 time=0.15
EXTRACT: note_on channel=2 note=43 velocity=0 time=0.09
EXTRACT: note_on channel=2 note=55 velocity=0 time=0
EXTRACT: note_on channel=3 note=69 velocity=0 time=0
EXTRACT: note_on channel=9 note=38 velocity=0 time=0
EXTRACT: note_on channel=9 note=42 velocity=0 time=0
EXTRACT: note_on channel=9 note=42 velocity=0 time=0.03
EXTRACT: note_on channel=2 note=43 velocity=70 time=0.03
EXTRACT: note_on channel=2 note=55 velocity=100 time=0
EXTRACT: note_on channel=3 note=69 velocity=50 time=0
EXTRACT: note_on channel=9 note=42 velocity=127 time=0
EXTRACT: note_on channel=3 note=69 velocity=0 time=0.12
EXTRACT: note_on channel=3 note=69 velocity=50 time=0.03
EXTRACT: note_on channel=9 note=35 velocity=127 time=0
EXTRACT: note_on channel=9 note=42 velocity=50 time=0
EXTRACT: note_on channel=2 note=43 velocity=0 time=0.09
EXTRACT: note_on channel=2 note=55 velocity=0 time=0
EXTRACT: note_on channel=9 note=42 velocity=0 time=0
EXTRACT: note_on channel=3 note=69 velocity=0 time=0.03
EXTRACT: note_on channel=9 note=42 velocity=0 time=0
EXTRACT: note_on channel=2 note=43 velocity=70 time=0.03
EXTRACT: note_on channel=2 note=55 velocity=100 time=0
EXTRACT: note_on channel=9 note=42 velocity=127 time=0
EXTRACT: note_on channel=9 note=35 velocity=0 time=0.09
EXTRACT: note_on channel=2 note=43 velocity=0 time=0.03
EXTRACT: note_on channel=2 note=55 velocity=0 time=0
EXTRACT: note_on channel=2 note=43 velocity=70 time=0.03
EXTRACT: note_on channel=2 note=55 velocity=100 time=0
EXTRACT: note_on channel=3 note=69 velocity=50 time=0
EXTRACT: note_on channel=9 note=35 velocity=127 time=0
EXTRACT: note_on channel=9 note=42 velocity=50 time=0
EXTRACT: note_on channel=9 note=42 velocity=0 time=0.09
EXTRACT: note_on channel=2 note=43 velocity=0 time=0.03
EXTRACT: note_on channel=2 note=55 velocity=0 time=0
EXTRACT: note_on channel=3 note=69 velocity=0 time=0
EXTRACT: note_on channel=9 note=42 velocity=0 time=0
EXTRACT: note_on channel=2 note=43 velocity=70 time=0.03
EXTRACT: note_on channel=2 note=55 velocity=100 time=0
EXTRACT: note_on channel=3 note=69 velocity=50 time=0
EXTRACT: note_on channel=4 note=38 velocity=100 time=0
EXTRACT: note_on channel=4 note=50 velocity=100 time=0
EXTRACT: note_on channel=9 note=35 velocity=127 time=0
EXTRACT: note_on channel=9 note=42 velocity=127 time=0
EXTRACT: note_on channel=9 note=35 velocity=0 time=0.09
EXTRACT: note_on channel=3 note=69 velocity=0 time=0.03
EXTRACT: note_on channel=3 note=69 velocity=50 time=0.03
EXTRACT: note_on channel=9 note=42 velocity=50 time=0
EXTRACT: note_on channel=2 note=43 velocity=0 time=0.09
EXTRACT: note_on channel=2 note=55 velocity=0 time=0
EXTRACT: note_on channel=4 note=38 velocity=0 time=0
EXTRACT: note_on channel=4 note=50 velocity=0 time=0
EXTRACT: note_on channel=9 note=35 velocity=0 time=0
EXTRACT: note_on channel=9 note=42 velocity=0 time=0
EXTRACT: note_on channel=3 note=69 velocity=0 time=0.03
EXTRACT: note_on channel=9 note=42 velocity=0 time=0
EXTRACT: note_on channel=2 note=43 velocity=70 time=0.03
EXTRACT: note_on channel=2 note=55 velocity=100 time=0
EXTRACT: note_on channel=3 note=69 velocity=50 time=0
EXTRACT: note_on channel=9 note=38 velocity=127 time=0
EXTRACT: note_on channel=9 note=42 velocity=127 time=0
EXTRACT: note_on channel=4 note=40 velocity=100 time=0.15
EXTRACT: note_on channel=4 note=52 velocity=100 time=0
EXTRACT: note_on channel=9 note=42 velocity=50 time=0
EXTRACT: note_on channel=2 note=43 velocity=0 time=0.09
EXTRACT: note_on channel=2 note=55 velocity=0 time=0
EXTRACT: note_on channel=3 note=69 velocity=0 time=0
EXTRACT: note_on channel=9 note=38 velocity=0 time=0
EXTRACT: note_on channel=9 note=42 velocity=0 time=0
EXTRACT: note_on channel=9 note=42 velocity=0 time=0.03
EXTRACT: note_on channel=2 note=43 velocity=70 time=0.03
EXTRACT: note_on channel=2 note=55 velocity=100 time=0
EXTRACT: note_on channel=3 note=69 velocity=50 time=0
EXTRACT: note_on channel=9 note=42 velocity=127 time=0
EXTRACT: note_on channel=4 note=40 velocity=0 time=0.09
EXTRACT: note_on channel=4 note=52 velocity=0 time=0
EXTRACT: note_on channel=9 note=42 velocity=50 time=0.06
EXTRACT: note_on channel=2 note=43 velocity=0 time=0.09
EXTRACT: note_on channel=2 note=55 velocity=0 time=0
EXTRACT: note_on channel=3 note=69 velocity=0 time=0
EXTRACT: note_on channel=9 note=42 velocity=0 time=0
EXTRACT: note_on channel=9 note=42 velocity=0 time=0.03
EXTRACT: note_on channel=2 note=43 velocity=70 time=0.03
EXTRACT: note_on channel=2 note=55 velocity=100 time=0
EXTRACT: note_on channel=4 note=33 velocity=100 time=0
EXTRACT: note_on channel=4 note=45 velocity=100 time=0
EXTRACT: note_on channel=9 note=35 velocity=127 time=0
EXTRACT: note_on channel=9 note=42 velocity=127 time=0
EXTRACT: note_on channel=4 note=33 velocity=0 time=0.12
EXTRACT: note_on channel=4 note=45 velocity=0 time=0
EXTRACT: note_on channel=9 note=42 velocity=0 time=0
EXTRACT: note_on channel=4 note=33 velocity=100 time=0.03
EXTRACT: note_on channel=4 note=45 velocity=100 time=0
EXTRACT: note_on channel=9 note=42 velocity=50 time=0
EXTRACT: note_on channel=2 note=43 velocity=0 time=0.09
EXTRACT: note_on channel=2 note=55 velocity=0 time=0
EXTRACT: note_on channel=9 note=35 velocity=0 time=0
EXTRACT: note_on channel=4 note=33 velocity=0 time=0.03
EXTRACT: note_on channel=4 note=45 velocity=0 time=0
EXTRACT: note_on channel=9 note=42 velocity=0 time=0
EXTRACT: note_on channel=3 note=69 velocity=50 time=0.03
EXTRACT: note_on channel=9 note=42 velocity=127 time=0
EXTRACT: note_on channel=9 note=42 velocity=50 time=0.15
EXTRACT: note_on channel=3 note=69 velocity=0 time=0.09
EXTRACT: note_on channel=9 note=42 velocity=0 time=0
EXTRACT: note_on channel=9 note=42 velocity=0 time=0.03
EXTRACT: note_on channel=2 note=43 velocity=70 time=0.03
EXTRACT: note_on channel=2 note=55 velocity=100 time=0
EXTRACT: note_on channel=3 note=69 velocity=50 time=0
EXTRACT: note_on channel=9 note=38 velocity=127 time=0
EXTRACT: note_on channel=9 note=42 velocity=127 time=0
EXTRACT: note_on channel=9 note=42 velocity=50 time=0.15
EXTRACT: note_on channel=2 note=43 velocity=0 time=0.09
EXTRACT: note_on channel=2 note=55 velocity=0 time=0
EXTRACT: note_on channel=3 note=69 velocity=0 time=0
EXTRACT: note_on channel=9 note=38 velocity=0 time=0
EXTRACT: note_on channel=9 note=42 velocity=0 time=0
EXTRACT: note_on channel=9 note=42 velocity=0 time=0.03
EXTRACT: note_on channel=2 note=40 velocity=70 time=0.03
EXTRACT: note_on channel=2 note=52 velocity=100 time=0
EXTRACT: note_on channel=3 note=69 velocity=50 time=0
EXTRACT: note_on channel=9 note=42 velocity=127 time=0
EXTRACT: note_on channel=2 note=40 velocity=0 time=0.12
EXTRACT: note_on channel=2 note=52 velocity=0 time=0
EXTRACT: note_on channel=3 note=69 velocity=0 time=0
EXTRACT: note_on channel=2 note=45 velocity=70 time=0.03
EXTRACT: note_on channel=2 note=57 velocity=100 time=0
EXTRACT: note_on channel=3 note=69 velocity=50 time=0
EXTRACT: note_on channel=9 note=35 velocity=127 time=0
EXTRACT: note_on channel=9 note=42 velocity=50 time=0
EXTRACT: note_on channel=9 note=42 velocity=0 time=0.09
EXTRACT: note_on channel=3 note=69 velocity=0 time=0.03
EXTRACT: note_on channel=9 note=42 velocity=0 time=0
EXTRACT: note_on channel=9 note=42 velocity=127 time=0.03
EXTRACT: note_on channel=9 note=35 velocity=0 time=0.09
EXTRACT: note_on channel=3 note=69 velocity=50 time=0.06
EXTRACT: note_on channel=9 note=35 velocity=127 time=0
EXTRACT: note_on channel=9 note=42 velocity=50 time=0
EXTRACT: note_on channel=9 note=42 velocity=0 time=0.09
EXTRACT: note_on channel=3 note=69 velocity=0 time=0.03
EXTRACT: note_on channel=9 note=42 velocity=0 time=0
EXTRACT: note_on channel=3 note=69 velocity=50 time=0.03
EXTRACT: note_on channel=4 note=47 velocity=100 time=0
EXTRACT: note_on channel=4 note=59 velocity=100 time=0
EXTRACT: note_on channel=9 note=35 velocity=127 time=0
EXTRACT: note_on channel=9 note=42 velocity=127 time=0
EXTRACT: note_on channel=2 note=45 velocity=0 time=0.03
EXTRACT: note_on channel=2 note=57 velocity=0 time=0
EXTRACT: note_on channel=9 note=35 velocity=0 time=0.06
EXTRACT: note_on channel=3 note=69 velocity=0 time=0.03
EXTRACT: note_on channel=3 note=69 velocity=50 time=0.03
EXTRACT: note_on channel=9 note=42 velocity=50 time=0
EXTRACT: note_on channel=4 note=47 velocity=0 time=0.09
EXTRACT: note_on channel=4 note=59 velocity=0 time=0
EXTRACT: note_on channel=9 note=35 velocity=0 time=0
EXTRACT: note_on channel=9 note=42 velocity=0 time=0
EXTRACT: note_on channel=3 note=69 velocity=0 time=0.03
EXTRACT: note_on channel=9 note=42 velocity=0 time=0
EXTRACT: note_on channel=3 note=69 velocity=50 time=0.03
EXTRACT: note_on channel=9 note=38 velocity=127 time=0
EXTRACT: note_on channel=9 note=42 velocity=127 time=0
EXTRACT: note_on channel=4 note=45 velocity=100 time=0.15
EXTRACT: note_on channel=4 note=57 velocity=100 time=0
EXTRACT: note_on channel=9 note=42 velocity=50 time=0
EXTRACT: note_on channel=3 note=69 velocity=0 time=0.09
EXTRACT: note_on channel=9 note=38 velocity=0 time=0
EXTRACT: note_on channel=9 note=42 velocity=0 time=0
EXTRACT: note_on channel=9 note=42 velocity=0 time=0.03
EXTRACT: note_on channel=3 note=69 velocity=50 time=0.03
EXTRACT: note_on channel=9 note=42 velocity=127 time=0
EXTRACT: note_on channel=4 note=45 velocity=0 time=0.09
EXTRACT: note_on channel=4 note=57 velocity=0 time=0
EXTRACT: note_on channel=9 note=42 velocity=50 time=0.06
EXTRACT: note_on channel=3 note=69 velocity=0 time=0.09
EXTRACT: note_on channel=9 note=42 velocity=0 time=0
EXTRACT: note_on channel=9 note=42 velocity=0 time=0.03
EXTRACT: note_on channel=2 note=60 velocity=70 time=0.03
EXTRACT: note_on channel=2 note=72 velocity=100 time=0
EXTRACT: note_on channel=4 note=33 velocity=100 time=0
EXTRACT: note_on channel=4 note=45 velocity=100 time=0
EXTRACT: note_on channel=9 note=35 velocity=127 time=0
EXTRACT: note_on channel=9 note=42 velocity=127 time=0
EXTRACT: note_on channel=4 note=33 velocity=0 time=0.12
EXTRACT: note_on channel=4 note=45 velocity=0 time=0
EXTRACT: note_on channel=9 note=42 velocity=0 time=0
EXTRACT: note_on channel=4 note=33 velocity=100 time=0.03
EXTRACT: note_on channel=4 note=45 velocity=100 time=0
EXTRACT: note_on channel=9 note=42 velocity=50 time=0
EXTRACT: note_on channel=9 note=35 velocity=0 time=0.09
EXTRACT: note_on channel=4 note=33 velocity=0 time=0.03
EXTRACT: note_on channel=4 note=45 velocity=0 time=0
EXTRACT: note_on channel=9 note=42 velocity=0 time=0
EXTRACT: note_on channel=3 note=69 velocity=50 time=0.03
EXTRACT: note_on channel=9 note=42 velocity=127 time=0
EXTRACT: note_on channel=9 note=42 velocity=50 time=0.15
EXTRACT: note_on channel=2 note=60 velocity=0 time=0.03
EXTRACT: note_on channel=2 note=72 velocity=0 time=0
EXTRACT: note_on channel=3 note=69 velocity=0 time=0.06
EXTRACT: note_on channel=9 note=42 velocity=0 time=0
EXTRACT: note_on channel=9 note=42 velocity=0 time=0.03
EXTRACT: note_on channel=2 note=57 velocity=70 time=0.03
EXTRACT: note_on channel=2 note=69 velocity=100 time=0
EXTRACT: note_on channel=3 note=69 velocity=50 time=0
EXTRACT: note_on channel=9 note=38 velocity=127 time=0
EXTRACT: note_on channel=9 note=42 velocity=127 time=0
EXTRACT: note_on channel=9 note=42 velocity=50 time=0.15
EXTRACT: note_on channel=2 note=57 velocity=0 time=0.09
EXTRACT: note_on channel=2 note=69 velocity=0 time=0
EXTRACT: note_on channel=3 note=69 velocity=0 time=0
EXTRACT: note_on channel=9 note=38 velocity=0 time=0
EXTRACT: note_on channel=9 note=42 velocity=0 time=0
EXTRACT: note_on channel=9 note=42 velocity=0 time=0.03
EXTRACT: note_on channel=3 note=69 velocity=50 time=0.03
EXTRACT: note_on channel=9 note=42 velocity=127 time=0
EXTRACT: note_on channel=3 note=69 velocity=0 time=0.12
EXTRACT: note_on channel=3 note=69 velocity=50 time=0.03
EXTRACT: note_on channel=9 note=35 velocity=127 time=0
EXTRACT: note_on channel=9 note=42 velocity=50 time=0
EXTRACT: note_on channel=9 note=42 velocity=0 time=0.09
EXTRACT: note_on channel=3 note=69 velocity=0 time=0.03
EXTRACT: note_on channel=9 note=42 velocity=0 time=0
EXTRACT: note_on channel=2 note=60 velocity=70 time=0.03
EXTRACT: note_on channel=2 note=72 velocity=100 time=0
EXTRACT: note_on channel=9 note=42 velocity=127 time=0
EXTRACT: note_on channel=9 note=35 velocity=0 time=0.09
EXTRACT: note_on channel=3 note=69 velocity=50 time=0.06
EXTRACT: note_on channel=9 note=35 velocity=127 time=0
EXTRACT: note_on channel=9 note=42 velocity=50 time=0
EXTRACT: note_on channel=9 note=42 velocity=0 time=0.09
EXTRACT: note_on channel=3 note=69 velocity=0 time=0.03
EXTRACT: note_on channel=9 note=42 velocity=0 time=0
EXTRACT: note_on channel=3 note=69 velocity=50 time=0.03
EXTRACT: note_on channel=4 note=38 velocity=100 time=0
EXTRACT: note_on channel=4 note=50 velocity=100 time=0
EXTRACT: note_on channel=9 note=35 velocity=127 time=0
EXTRACT: note_on channel=9 note=42 velocity=127 time=0
EXTRACT: note_on channel=9 note=35 velocity=0 time=0.09
EXTRACT: note_on channel=3 note=69 velocity=0 time=0.03
EXTRACT: note_on channel=3 note=69 velocity=50 time=0.03
EXTRACT: note_on channel=9 note=42 velocity=50 time=0
EXTRACT: note_on channel=2 note=60 velocity=0 time=0.03
EXTRACT: note_on channel=2 note=72 velocity=0 time=0
EXTRACT: note_on channel=4 note=38 velocity=0 time=0.06
EXTRACT: note_on channel=4 note=50 velocity=0 time=0
EXTRACT: note_on channel=9 note=35 velocity=0 time=0
EXTRACT: note_on channel=9 note=42 velocity=0 time=0
EXTRACT: note_on channel=3 note=69 velocity=0 time=0.03
EXTRACT: note_on channel=9 note=42 velocity=0 time=0
EXTRACT: note_on channel=2 note=57 velocity=70 time=0.03
EXTRACT: note_on channel=2 note=69 velocity=100 time=0
EXTRACT: note_on channel=3 note=69 velocity=50 time=0
EXTRACT: note_on channel=9 note=38 velocity=127 time=0
EXTRACT: note_on channel=9 note=42 velocity=127 time=0
EXTRACT: note_on channel=4 note=40 velocity=100 time=0.15
EXTRACT: note_on channel=4 note=52 velocity=100 time=0
EXTRACT: note_on channel=9 note=42 velocity=50 time=0
EXTRACT: note_on channel=2 note=57 velocity=0 time=0.09
EXTRACT: note_on channel=2 note=69 velocity=0 time=0
EXTRACT: note_on channel=3 note=69 velocity=0 time=0
EXTRACT: note_on channel=9 note=38 velocity=0 time=0
EXTRACT: note_on channel=9 note=42 velocity=0 time=0
EXTRACT: note_on channel=9 note=42 velocity=0 time=0.03
EXTRACT: note_on channel=3 note=69 velocity=50 time=0.03
EXTRACT: note_on channel=9 note=42 velocity=127 time=0
EXTRACT: note_on channel=4 note=40 velocity=0 time=0.09
EXTRACT: note_on channel=4 note=52 velocity=0 time=0
EXTRACT: note_on channel=9 note=42 velocity=50 time=0.06
EXTRACT: note_on channel=3 note=69 velocity=0 time=0.09
EXTRACT: note_on channel=9 note=42 velocity=0 time=0
EXTRACT: note_on channel=9 note=42 velocity=0 time=0.03
EXTRACT: note_on channel=2 note=60 velocity=70 time=0.03
EXTRACT: note_on channel=2 note=72 velocity=100 time=0
EXTRACT: note_on channel=4 note=33 velocity=100 time=0
EXTRACT: note_on channel=4 note=45 velocity=100 time=0
EXTRACT: note_on channel=9 note=35 velocity=127 time=0
EXTRACT: note_on channel=9 note=42 velocity=127 time=0
EXTRACT: note_on channel=4 note=33 velocity=0 time=0.12
EXTRACT: note_on channel=4 note=45 velocity=0 time=0
EXTRACT: note_on channel=9 note=42 velocity=0 time=0
EXTRACT: note_on channel=4 note=33 velocity=100 time=0.03
EXTRACT: note_on channel=4 note=45 velocity=100 time=0
EXTRACT: note_on channel=9 note=42 velocity=50 time=0
EXTRACT: note_on channel=2 note=60 velocity=0 time=0.09
EXTRACT: note_on channel=2 note=72 velocity=0 time=0
EXTRACT: note_on channel=9 note=35 velocity=0 time=0
EXTRACT: note_on channel=4 note=33 velocity=0 time=0.03
EXTRACT: note_on channel=4 note=45 velocity=0 time=0
EXTRACT: note_on channel=9 note=42 velocity=0 time=0
EXTRACT: note_on channel=2 note=60 velocity=70 time=0.03
EXTRACT: note_on channel=2 note=72 velocity=100 time=0
EXTRACT: note_on channel=3 note=69 velocity=50 time=0
EXTRACT: note_on channel=9 note=42 velocity=127 time=0
EXTRACT: note_on channel=9 note=42 velocity=50 time=0.15
EXTRACT: note_on channel=2 note=60 velocity=0 time=0.09
EXTRACT: note_on channel=2 note=72 velocity=0 time=0
EXTRACT: note_on channel=3 note=69 velocity=0 time=0
EXTRACT: note_on channel=9 note=42 velocity=0 time=0
EXTRACT: note_on channel=9 note=42 velocity=0 time=0.03
EXTRACT: note_on channel=2 note=60 velocity=70 time=0.03
EXTRACT: note_on channel=2 note=72 velocity=100 time=0
EXTRACT: note_on channel=3 note=69 velocity=50 time=0
EXTRACT: note_on channel=9 note=38 velocity=127 time=0
EXTRACT: note_on channel=9 note=42 velocity=127 time=0
EXTRACT: note_on channel=9 note=42 velocity=50 time=0.15
EXTRACT: note_on channel=2 note=60 velocity=0 time=0.09
EXTRACT: note_on channel=2 note=72 velocity=0 time=0
EXTRACT: note_on channel=3 note=69 velocity=0 time=0
EXTRACT: note_on channel=9 note=38 velocity=0 time=0
EXTRACT: note_on channel=9 note=42 velocity=0 time=0
EXTRACT: note_on channel=9 note=42 velocity=0 time=0.03
EXTRACT: note_on channel=2 note=59 velocity=70 time=0.03
EXTRACT: note_on channel=2 note=71 velocity=100 time=0
EXTRACT: note_on channel=3 note=69 velocity=50 time=0
EXTRACT: note_on channel=9 note=42 velocity=127 time=0
EXTRACT: note_on channel=3 note=69 velocity=0 time=0.12
EXTRACT: note_on channel=3 note=69 velocity=50 time=0.03
EXTRACT: note_on channel=4 note=33 velocity=100 time=0
EXTRACT: note_on channel=4 note=45 velocity=100 time=0
EXTRACT: note_on channel=9 note=35 velocity=127 time=0
EXTRACT: note_on channel=9 note=42 velocity=50 time=0
EXTRACT: note_on channel=2 note=59 velocity=0 time=0.09
EXTRACT: note_on channel=2 note=71 velocity=0 time=0
EXTRACT: note_on channel=9 note=42 velocity=0 time=0
EXTRACT: note_on channel=3 note=69 velocity=0 time=0.03
EXTRACT: note_on channel=4 note=33 velocity=0 time=0
EXTRACT: note_on channel=4 note=45 velocity=0 time=0
EXTRACT: note_on channel=9 note=42 velocity=0 time=0
EXTRACT: note_on channel=2 note=57 velocity=70 time=0.03
EXTRACT: note_on channel=2 note=69 velocity=100 time=0
EXTRACT: note_on channel=9 note=42 velocity=127 time=0
EXTRACT: note_on channel=9 note=35 velocity=0 time=0.09
EXTRACT: note_on channel=3 note=69 velocity=50 time=0.06
EXTRACT: note_on channel=9 note=35 velocity=127 time=0
EXTRACT: note_on channel=9 note=42 velocity=50 time=0
EXTRACT: note_on channel=9 note=42 velocity=0 time=0.09
EXTRACT: note_on channel=3 note=69 velocity=0 time=0.03
EXTRACT: note_on channel=9 note=42 velocity=0 time=0
EXTRACT: note_on channel=3 note=69 velocity=50 time=0.03
EXTRACT: note_on channel=4 note=47 velocity=100 time=0
EXTRACT: note_on channel=9 note=35 velocity=127 time=0
EXTRACT: note_on channel=9 note=42 velocity=127 time=0
EXTRACT: note_on channel=9 note=35 velocity=0 time=0.09
EXTRACT: note_on channel=3 note=69 velocity=0 time=0.03
EXTRACT: note_on channel=4 note=47 velocity=0 time=0
EXTRACT: note_on channel=3 note=69 velocity=50 time=0.03
EXTRACT: note_on channel=4 note=45 velocity=100 time=0
EXTRACT: note_on channel=9 note=42 velocity=50 time=0
EXTRACT: note_on channel=2 note=57 velocity=0 time=0.03
EXTRACT: note_on channel=2 note=69 velocity=0 time=0
EXTRACT: note_on channel=9 note=35 velocity=0 time=0.06
EXTRACT: note_on channel=9 note=42 velocity=0 time=0
EXTRACT: note_on channel=3 note=69 velocity=0 time=0.03
EXTRACT: note_on channel=4 note=45 velocity=0 time=0
EXTRACT: note_on channel=9 note=42 velocity=0 time=0
EXTRACT: note_on channel=2 note=60 velocity=70 time=0.03
EXTRACT: note_on channel=2 note=72 velocity=100 time=0
EXTRACT: note_on channel=3 note=69 velocity=50 time=0
EXTRACT: note_on channel=4 note=42 velocity=100 time=0
EXTRACT: note_on channel=9 note=38 velocity=127 time=0
EXTRACT: note_on channel=9 note=42 velocity=127 time=0
EXTRACT: note_on channel=4 note=42 velocity=0 time=0.12
EXTRACT: note_on channel=4 note=45 velocity=100 time=0.03
EXTRACT: note_on channel=5 note=62 velocity=100 time=0
EXTRACT: note_on channel=9 note=42 velocity=50 time=0
EXTRACT: note_on channel=3 note=69 velocity=0 time=0.09
EXTRACT: note_on channel=9 note=38 velocity=0 time=0
EXTRACT: note_on channel=9 note=42 velocity=0 time=0
EXTRACT: note_on channel=4 note=45 velocity=0 time=0.03
EXTRACT: note_on channel=5 note=62 velocity=0 time=0
EXTRACT: note_on channel=9 note=42 velocity=0 time=0
EXTRACT: note_on channel=3 note=69 velocity=50 time=0.03
EXTRACT: note_on channel=4 note=42 velocity=100 time=0
EXTRACT: note_on channel=5 note=64 velocity=100 time=0
EXTRACT: note_on channel=9 note=42 velocity=127 time=0
EXTRACT: note_on channel=4 note=42 velocity=0 time=0.12
EXTRACT: note_on channel=5 note=64 velocity=0 time=0
EXTRACT: note_on channel=4 note=40 velocity=100 time=0.03
EXTRACT: note_on channel=5 note=67 velocity=100 time=0
EXTRACT: note_on channel=9 note=42 velocity=50 time=0
EXTRACT: note_on channel=2 note=60 velocity=0 time=0.03
EXTRACT: note_on channel=2 note=72 velocity=0 time=0
EXTRACT: note_on channel=3 note=69 velocity=0 time=0.06
EXTRACT: note_on channel=9 note=42 velocity=0 time=0
EXTRACT: note_on channel=4 note=40 velocity=0 time=0.03
EXTRACT: note_on channel=5 note=67 velocity=0 time=0
EXTRACT: note_on channel=9 note=42 velocity=0 time=0
EXTRACT: note_on channel=0 note=59 velocity=60 time=0.03
EXTRACT: note_on channel=0 note=62 velocity=60 time=0
EXTRACT: note_on channel=0 note=64 velocity=60 time=0
EXTRACT: note_on channel=0 note=69 velocity=60 time=0
EXTRACT: note_on channel=2 note=57 velocity=70 time=0
EXTRACT: note_on channel=2 note=69 velocity=127 time=0
EXTRACT: note_on channel=4 note=31 velocity=100 time=0
EXTRACT: note_on channel=4 note=43 velocity=100 time=0
EXTRACT: note_on channel=5 note=81 velocity=100 time=0
EXTRACT: note_on channel=5 note=69 velocity=100 time=0
EXTRACT: note_on channel=9 note=35 velocity=127 time=0
EXTRACT: note_on channel=9 note=42 velocity=127 time=0
EXTRACT: note_on channel=4 note=31 velocity=0 time=0.12
EXTRACT: note_on channel=4 note=43 velocity=0 time=0
EXTRACT: note_on channel=9 note=42 velocity=0 time=0
EXTRACT: note_on channel=4 note=31 velocity=100 time=0.03
EXTRACT: note_on channel=4 note=43 velocity=100 time=0
EXTRACT: note_on channel=9 note=42 velocity=50 time=0
EXTRACT: note_on channel=9 note=35 velocity=0 time=0.09
EXTRACT: note_on channel=4 note=31 velocity=0 time=0.03
EXTRACT: note_on channel=4 note=43 velocity=0 time=0
EXTRACT: note_on channel=9 note=42 velocity=0 time=0
EXTRACT: note_on channel=9 note=42 velocity=127 time=0.03
EXTRACT: note_on channel=9 note=42 velocity=50 time=0.15
EXTRACT: note_on channel=0 note=59 velocity=0 time=0.03
EXTRACT: note_on channel=0 note=62 velocity=0 time=0
EXTRACT: note_on channel=0 note=64 velocity=0 time=0
EXTRACT: note_on channel=0 note=69 velocity=0 time=0
EXTRACT: note_on channel=9 note=42 velocity=0 time=0.06
EXTRACT: note_on channel=9 note=42 velocity=0 time=0.03
EXTRACT: note_on channel=9 note=38 velocity=127 time=0.03
EXTRACT: note_on channel=9 note=42 velocity=127 time=0
EXTRACT: note_on channel=0 note=73 velocity=40 time=0.15
EXTRACT: note_on channel=0 note=76 velocity=40 time=0
EXTRACT: note_on channel=9 note=42 velocity=50 time=0
EXTRACT: note_on channel=9 note=38 velocity=0 time=0.09
EXTRACT: note_on channel=9 note=42 velocity=0 time=0
EXTRACT: note_on channel=0 note=73 velocity=0 time=0.03
EXTRACT: note_on channel=0 note=76 velocity=0 time=0
EXTRACT: note_on channel=9 note=42 velocity=0 time=0
EXTRACT: note_on channel=9 note=42 velocity=127 time=0.03
EXTRACT: note_on channel=0 note=71 velocity=40 time=0.15
EXTRACT: note_on channel=0 note=74 velocity=40 time=0
EXTRACT: note_on channel=9 note=35 velocity=127 time=0
EXTRACT: note_on channel=9 note=42 velocity=50 time=0
EXTRACT: note_on channel=9 note=42 velocity=0 time=0.09
EXTRACT: note_on channel=0 note=71 velocity=0 time=0.03
EXTRACT: note_on channel=0 note=74 velocity=0 time=0
EXTRACT: note_on channel=9 note=42 velocity=0 time=0
EXTRACT: note_on channel=9 note=42 velocity=127 time=0.03
EXTRACT: note_on channel=9 note=35 velocity=0 time=0.09
EXTRACT: note_on channel=9 note=35 velocity=127 time=0.06
EXTRACT: note_on channel=9 note=42 velocity=50 time=0
EXTRACT: note_on channel=9 note=42 velocity=0 time=0.09
EXTRACT: note_on channel=9 note=42 velocity=0 time=0.03
EXTRACT: note_on channel=4 note=31 velocity=100 time=0.03
EXTRACT: note_on channel=4 note=43 velocity=100 time=0
EXTRACT: note_on channel=9 note=35 velocity=127 time=0
EXTRACT: note_on channel=9 note=42 velocity=127 time=0
EXTRACT: note_on channel=9 note=35 velocity=0 time=0.09
EXTRACT: note_on channel=9 note=42 velocity=50 time=0.06
EXTRACT: note_on channel=4 note=31 velocity=0 time=0.09
EXTRACT: note_on channel=4 note=43 velocity=0 time=0
EXTRACT: note_on channel=9 note=35 velocity=0 time=0
EXTRACT: note_on channel=9 note=42 velocity=0 time=0
EXTRACT: note_on channel=9 note=42 velocity=0 time=0.03
EXTRACT: note_on channel=9 note=38 velocity=127 time=0.03
EXTRACT: note_on channel=9 note=42 velocity=127 time=0
EXTRACT: note_on channel=2 note=57 velocity=0 time=0.12
EXTRACT: note_on channel=2 note=69 velocity=0 time=0
EXTRACT: note_on channel=5 note=81 velocity=0 time=0
EXTRACT: note_on channel=5 note=69 velocity=0 time=0
EXTRACT: note_on channel=4 note=32 velocity=100 time=0.03
EXTRACT: note_on channel=4 note=44 velocity=100 time=0
EXTRACT: note_on channel=9 note=42 velocity=50 time=0
EXTRACT: note_on channel=9 note=38 velocity=0 time=0.09
EXTRACT: note_on channel=9 note=42 velocity=0 time=0
EXTRACT: note_on channel=9 note=42 velocity=0 time=0.03
EXTRACT: note_on channel=2 note=72 velocity=127 time=0.03
EXTRACT: note_on channel=9 note=42 velocity=127 time=0
EXTRACT: note_on channel=4 note=32 velocity=0 time=0.09
EXTRACT: note_on channel=4 note=44 velocity=0 time=0
EXTRACT: note_on channel=9 note=42 velocity=50 time=0.06
EXTRACT: note_on channel=9 note=42 velocity=0 time=0.09
EXTRACT: note_on channel=9 note=42 velocity=0 time=0.03
EXTRACT: note_on channel=0 note=61 velocity=60 time=0.03
EXTRACT: note_on channel=0 note=64 velocity=60 time=0
EXTRACT: note_on channel=0 note=69 velocity=60 time=0
EXTRACT: note_on channel=4 note=33 velocity=100 time=0
EXTRACT: note_on channel=4 note=45 velocity=100 time=0
EXTRACT: note_on channel=5 note=76 velocity=100 time=0
EXTRACT: note_on channel=5 note=64 velocity=100 time=0
EXTRACT: note_on channel=9 note=35 velocity=127 time=0
EXTRACT: note_on channel=9 note=42 velocity=127 time=0
EXTRACT: note_on channel=4 note=33 velocity=0 time=0.12
EXTRACT: note_on channel=4 note=45 velocity=0 time=0
EXTRACT: note_on channel=9 note=42 velocity=0 time=0
EXTRACT: note_on channel=4 note=33 velocity=100 time=0.03
EXTRACT: note_on channel=4 note=45 velocity=100 time=0
EXTRACT: note_on channel=9 note=42 velocity=50 time=0
EXTRACT: note_on channel=2 note=72 velocity=0 time=0.03
EXTRACT: note_on channel=9 note=35 velocity=0 time=0.06
EXTRACT: note_on channel=4 note=33 velocity=0 time=0.03
EXTRACT: note_on channel=4 note=45 velocity=0 time=0
EXTRACT: note_on channel=9 note=42 velocity=0 time=0
EXTRACT: note_on channel=2 note=71 velocity=127 time=0.03
EXTRACT: note_on channel=9 note=42 velocity=127 time=0
EXTRACT: note_on channel=9 note=42 velocity=50 time=0.15
EXTRACT: note_on channel=2 note=71 velocity=0 time=0.09
EXTRACT: note_on channel=9 note=42 velocity=0 time=0
EXTRACT: note_on channel=9 note=42 velocity=0 time=0.03
EXTRACT: note_on channel=2 note=69 velocity=127 time=0.03
EXTRACT: note_on channel=9 note=38 velocity=127 time=0
EXTRACT: note_on channel=9 note=42 velocity=127 time=0
EXTRACT: note_on channel=9 note=42 velocity=50 time=0.15
EXTRACT: note_on channel=2 note=69 velocity=0 time=0.09
EXTRACT: note_on channel=9 note=38 velocity=0 time=0
EXTRACT: note_on channel=9 note=42 velocity=0 time=0
EXTRACT: note_on channel=9 note=42 velocity=0 time=0.03
EXTRACT: note_on channel=2 note=69 velocity=127 time=0.03
EXTRACT: note_on channel=9 note=42 velocity=127 time=0
EXTRACT: note_on channel=9 note=35 velocity=127 time=0.15
EXTRACT: note_on channel=9 note=42 velocity=50 time=0
EXTRACT: note_on channel=9 note=42 velocity=0 time=0.09
EXTRACT: note_on channel=9 note=42 velocity=0 time=0.03
EXTRACT: note_on channel=4 note=35 velocity=100 time=0.03
EXTRACT: note_on channel=4 note=47 velocity=100 time=0
EXTRACT: note_on channel=9 note=42 velocity=127 time=0
EXTRACT: note_on channel=9 note=35 velocity=0 time=0.09
EXTRACT: note_on channel=9 note=35 velocity=127 time=0.06
EXTRACT: note_on channel=9 note=42 velocity=50 time=0
EXTRACT: note_on channel=2 note=69 velocity=0 time=0.03
EXTRACT: note_on channel=4 note=35 velocity=0 time=0.06
EXTRACT: note_on channel=4 note=47 velocity=0 time=0
EXTRACT: note_on channel=9 note=42 velocity=0 time=0
EXTRACT: note_on channel=9 note=42 velocity=0 time=0.03
EXTRACT: note_on channel=2 note=66 velocity=127 time=0.03
EXTRACT: note_on channel=4 note=35 velocity=100 time=0
EXTRACT: note_on channel=4 note=47 velocity=100 time=0
EXTRACT: note_on channel=9 note=35 velocity=127 time=0
EXTRACT: note_on channel=9 note=42 velocity=127 time=0
EXTRACT: note_on channel=9 note=35 velocity=0 time=0.09
EXTRACT: note_on channel=4 note=35 velocity=0 time=0.03
EXTRACT: note_on channel=4 note=47 velocity=0 time=0
EXTRACT: note_on channel=4 note=33 velocity=100 time=0.03
EXTRACT: note_on channel=4 note=45 velocity=100 time=0
EXTRACT: note_on channel=9 note=42 velocity=50 time=0
EXTRACT: note_on channel=2 note=66 velocity=0 time=0.09
EXTRACT: note_on channel=9 note=35 velocity=0 time=0
EXTRACT: note_on channel=9 note=42 velocity=0 time=0
EXTRACT: note_on channel=9 note=42 velocity=0 time=0.03
EXTRACT: note_on channel=2 note=69 velocity=127 time=0.03
EXTRACT: note_on channel=9 note=38 velocity=127 time=0
EXTRACT: note_on channel=9 note=42 velocity=127 time=0
EXTRACT: note_on channel=4 note=33 velocity=0 time=0.09
EXTRACT: note_on channel=4 note=45 velocity=0 time=0
EXTRACT: note_on channel=0 note=61 velocity=0 time=0.03
EXTRACT: note_on channel=0 note=64 velocity=0 time=0
EXTRACT: note_on channel=0 note=69 velocity=0 time=0
EXTRACT: note_on channel=5 note=76 velocity=0 time=0
EXTRACT: note_on channel=5 note=64 velocity=0 time=0
EXTRACT: note_on channel=9 note=42 velocity=50 time=0.03
EXTRACT: note_on channel=2 note=69 velocity=0 time=0.09
EXTRACT: note_on channel=9 note=38 velocity=0 time=0
EXTRACT: note_on channel=9 note=42 velocity=0 time=0
EXTRACT: note_on channel=9 note=42 velocity=0 time=0.03
EXTRACT: note_on channel=2 note=66 velocity=127 time=0.03
EXTRACT: note_on channel=4 note=30 velocity=100 time=0
EXTRACT: note_on channel=4 note=42 velocity=100 time=0
EXTRACT: note_on channel=9 note=42 velocity=127 time=0
EXTRACT: note_on channel=9 note=42 velocity=50 time=0.15
EXTRACT: note_on channel=2 note=66 velocity=0 time=0.09
EXTRACT: note_on channel=4 note=30 velocity=0 time=0
EXTRACT: note_on channel=4 note=42 velocity=0 time=0
EXTRACT: note_on channel=9 note=42 velocity=0 time=0
EXTRACT: note_on channel=9 note=42 velocity=0 time=0.03
EXTRACT: note_on channel=0 note=59 velocity=60 time=0.03
EXTRACT: note_on channel=0 note=64 velocity=60 time=0
EXTRACT: note_on channel=0 note=62 velocity=60 time=0
EXTRACT: note_on channel=0 note=69 velocity=60 time=0
EXTRACT: note_on channel=2 note=69 velocity=127 time=0
EXTRACT: note_on channel=4 note=31 velocity=100 time=0
EXTRACT: note_on channel=4 note=43 velocity=100 time=0
EXTRACT: note_on channel=5 note=81 velocity=100 time=0
EXTRACT: note_on channel=5 note=69 velocity=100 time=0
EXTRACT: note_on channel=9 note=35 velocity=127 time=0
EXTRACT: note_on channel=9 note=42 velocity=127 time=0
EXTRACT: note_on channel=4 note=31 velocity=0 time=0.12
EXTRACT: note_on channel=4 note=43 velocity=0 time=0
EXTRACT: note_on channel=9 note=42 velocity=0 time=0
EXTRACT: note_on channel=4 note=31 velocity=100 time=0.03
EXTRACT: note_on channel=4 note=43 velocity=100 time=0
EXTRACT: note_on channel=9 note=42 velocity=50 time=0
EXTRACT: note_on channel=9 note=35 velocity=0 time=0.09
EXTRACT: note_on channel=4 note=31 velocity=0 time=0.03
EXTRACT: note_on channel=4 note=43 velocity=0 time=0
EXTRACT: note_on channel=9 note=42 velocity=0 time=0
EXTRACT: note_on channel=9 note=42 velocity=127 time=0.03
EXTRACT: note_on channel=9 note=42 velocity=50 time=0.15
EXTRACT: note_on channel=9 note=42 velocity=0 time=0.09
EXTRACT: note_on channel=9 note=42 velocity=0 time=0.03
EXTRACT: note_on channel=9 note=38 velocity=127 time=0.03
EXTRACT: note_on channel=9 note=42 velocity=127 time=0
EXTRACT: note_on channel=0 note=73 velocity=40 time=0.15
EXTRACT: note_on channel=0 note=76 velocity=40 time=0
EXTRACT: note_on channel=9 note=42 velocity=50 time=0
EXTRACT: note_on channel=9 note=38 velocity=0 time=0.09
EXTRACT: note_on channel=9 note=42 velocity=0 time=0
EXTRACT: note_on channel=0 note=73 velocity=0 time=0.03
EXTRACT: note_on channel=0 note=76 velocity=0 time=0
EXTRACT: note_on channel=9 note=42 velocity=0 time=0
EXTRACT: note_on channel=9 note=42 velocity=127 time=0.03
EXTRACT: note_on channel=2 note=69 velocity=0 time=0.06
EXTRACT: note_on channel=0 note=71 velocity=40 time=0.09
EXTRACT: note_on channel=0 note=74 velocity=40 time=0
EXTRACT: note_on channel=9 note=35 velocity=127 time=0
EXTRACT: note_on channel=9 note=42 velocity=50 time=0
EXTRACT: note_on channel=9 note=42 velocity=0 time=0.09
EXTRACT: note_on channel=0 note=71 velocity=0 time=0.03
EXTRACT: note_on channel=0 note=74 velocity=0 time=0
EXTRACT: note_on channel=9 note=42 velocity=0 time=0
EXTRACT: note_on channel=9 note=42 velocity=127 time=0.03
EXTRACT: note_on channel=9 note=35 velocity=0 time=0.09
EXTRACT: note_on channel=9 note=35 velocity=127 time=0.06
EXTRACT: note_on channel=9 note=42 velocity=50 time=0
EXTRACT: note_on channel=9 note=42 velocity=0 time=0.09
EXTRACT: note_on channel=9 note=42 velocity=0 time=0.03
EXTRACT: note_on channel=2 note=69 velocity=127 time=0.03
EXTRACT: note_on channel=4 note=31 velocity=100 time=0
EXTRACT: note_on channel=4 note=43 velocity=100 time=0
EXTRACT: note_on channel=9 note=35 velocity=127 time=0
EXTRACT: note_on channel=9 note=42 velocity=127 time=0
EXTRACT: note_on channel=9 note=35 velocity=0 time=0.09
EXTRACT: note_on channel=9 note=42 velocity=50 time=0.06
EXTRACT: note_on channel=2 note=69 velocity=0 time=0.09
EXTRACT: note_on channel=4 note=31 velocity=0 time=0
EXTRACT: note_on channel=4 note=43 velocity=0 time=0
EXTRACT: note_on channel=9 note=35 velocity=0 time=0
EXTRACT: note_on channel=9 note=42 velocity=0 time=0
EXTRACT: note_on channel=9 note=42 velocity=0 time=0.03
EXTRACT: note_on channel=2 note=69 velocity=127 time=0.03
EXTRACT: note_on channel=9 note=38 velocity=127 time=0
EXTRACT: note_on channel=9 note=42 velocity=127 time=0
EXTRACT: note_on channel=0 note=59 velocity=0 time=0.12
EXTRACT: note_on channel=0 note=64 velocity=0 time=0
EXTRACT: note_on channel=0 note=62 velocity=0 time=0
EXTRACT: note_on channel=0 note=69 velocity=0 time=0
EXTRACT: note_on channel=5 note=81 velocity=0 time=0
EXTRACT: note_on channel=5 note=69 velocity=0 time=0
EXTRACT: note_on channel=4 note=32 velocity=100 time=0.03
EXTRACT: note_on channel=4 note=44 velocity=100 time=0
EXTRACT: note_on channel=9 note=42 velocity=50 time=0
EXTRACT: note_on channel=2 note=69 velocity=0 time=0.09
EXTRACT: note_on channel=9 note=38 velocity=0 time=0
EXTRACT: note_on channel=9 note=42 velocity=0 time=0
EXTRACT: note_on channel=9 note=42 velocity=0 time=0.03
EXTRACT: note_on channel=2 note=66 velocity=127 time=0.03
EXTRACT: note_on channel=9 note=42 velocity=127 time=0
EXTRACT: note_on channel=4 note=32 velocity=0 time=0.09
EXTRACT: note_on channel=4 note=44 velocity=0 time=0
EXTRACT: note_on channel=9 note=42 velocity=50 time=0.06
EXTRACT: note_on channel=9 note=42 velocity=0 time=0.09
EXTRACT: note_on channel=9 note=42 velocity=0 time=0.03
EXTRACT: note_on channel=0 note=61 velocity=60 time=0.03
EXTRACT: note_on channel=0 note=64 velocity=60 time=0
EXTRACT: note_on channel=0 note=69 velocity=60 time=0
EXTRACT: note_on channel=4 note=33 velocity=100 time=0
EXTRACT: note_on channel=4 note=45 velocity=100 time=0
EXTRACT: note_on channel=5 note=88 velocity=100 time=0
EXTRACT: note_on channel=5 note=76 velocity=100 time=0
EXTRACT: note_on channel=9 note=35 velocity=127 time=0
EXTRACT: note_on channel=9 note=42 velocity=127 time=0
EXTRACT: note_on channel=4 note=33 velocity=0 time=0.12
EXTRACT: note_on channel=4 note=45 velocity=0 time=0
EXTRACT: note_on channel=9 note=42 velocity=0 time=0
EXTRACT: note_on channel=4 note=33 velocity=100 time=0.03
EXTRACT: note_on channel=4 note=45 velocity=100 time=0
EXTRACT: note_on channel=9 note=42 velocity=50 time=0
EXTRACT: note_on channel=2 note=66 velocity=0 time=0.03
EXTRACT: note_on channel=9 note=35 velocity=0 time=0.06
EXTRACT: note_on channel=4 note=33 velocity=0 time=0.03
EXTRACT: note_on channel=4 note=45 velocity=0 time=0
EXTRACT: note_on channel=9 note=42 velocity=0 time=0
EXTRACT: note_on channel=2 note=69 velocity=127 time=0.03
EXTRACT: note_on channel=9 note=42 velocity=127 time=0
EXTRACT: note_on channel=9 note=42 velocity=50 time=0.15
EXTRACT: note_on channel=9 note=42 velocity=0 time=0.09
EXTRACT: note_on channel=9 note=42 velocity=0 time=0.03
EXTRACT: note_on channel=9 note=38 velocity=127 time=0.03
EXTRACT: note_on channel=9 note=42 velocity=127 time=0
EXTRACT: note_on channel=9 note=42 velocity=50 time=0.15
EXTRACT: note_on channel=9 note=38 velocity=0 time=0.09
EXTRACT: note_on channel=9 note=42 velocity=0 time=0
EXTRACT: note_on channel=9 note=42 velocity=0 time=0.03
EXTRACT: note_on channel=9 note=42 velocity=127 time=0.03
EXTRACT: note_on channel=9 note=35 velocity=127 time=0.15
EXTRACT: note_on channel=9 note=42 velocity=50 time=0
EXTRACT: note_on channel=9 note=42 velocity=0 time=0.09
EXTRACT: note_on channel=9 note=42 velocity=0 time=0.03
EXTRACT: note_on channel=9 note=42 velocity=127 time=0.03
EXTRACT: note_on channel=2 note=69 velocity=0 time=0.06
EXTRACT: note_on channel=9 note=35 velocity=0 time=0.03
EXTRACT: note_on channel=9 note=35 velocity=127 time=0.06
EXTRACT: note_on channel=9 note=42 velocity=50 time=0
EXTRACT: note_on channel=9 note=42 velocity=0 time=0.09
EXTRACT: note_on channel=9 note=42 velocity=0 time=0.03
EXTRACT: note_on channel=2 note=73 velocity=127 time=0.03
EXTRACT: note_on channel=4 note=28 velocity=100 time=0
EXTRACT: note_on channel=4 note=40 velocity=100 time=0
EXTRACT: note_on channel=9 note=35 velocity=127 time=0
EXTRACT: note_on channel=9 note=42 velocity=127 time=0
EXTRACT: note_on channel=9 note=35 velocity=0 time=0.09
EXTRACT: note_on channel=9 note=42 velocity=50 time=0.06
EXTRACT: note_on channel=2 note=73 velocity=0 time=0.09
EXTRACT: note_on channel=4 note=28 velocity=0 time=0
EXTRACT: note_on channel=4 note=40 velocity=0 time=0
EXTRACT: note_on channel=9 note=35 velocity=0 time=0
EXTRACT: note_on channel=9 note=42 velocity=0 time=0
EXTRACT: note_on channel=9 note=42 velocity=0 time=0.03
EXTRACT: note_on channel=2 note=71 velocity=127 time=0.03
EXTRACT: note_on channel=9 note=38 velocity=127 time=0
EXTRACT: note_on channel=9 note=42 velocity=127 time=0
EXTRACT: note_on channel=0 note=61 velocity=0 time=0.12
EXTRACT: note_on channel=0 note=64 velocity=0 time=0
EXTRACT: note_on channel=0 note=69 velocity=0 time=0
EXTRACT: note_on channel=5 note=88 velocity=0 time=0
EXTRACT: note_on channel=5 note=76 velocity=0 time=0
EXTRACT: note_on channel=4 note=30 velocity=100 time=0.03
EXTRACT: note_on channel=4 note=42 velocity=100 time=0
EXTRACT: note_on channel=5 note=62 velocity=100 time=0
EXTRACT: note_on channel=9 note=42 velocity=50 time=0
EXTRACT: note_on channel=2 note=71 velocity=0 time=0.09
EXTRACT: note_on channel=9 note=38 velocity=0 time=0
EXTRACT: note_on channel=9 note=42 velocity=0 time=0
EXTRACT: note_on channel=5 note=62 velocity=0 time=0.03
EXTRACT: note_on channel=9 note=42 velocity=0 time=0
EXTRACT: note_on channel=2 note=69 velocity=127 time=0.03
EXTRACT: note_on channel=5 note=64 velocity=100 time=0
EXTRACT: note_on channel=9 note=42 velocity=127 time=0
EXTRACT: note_on channel=4 note=30 velocity=0 time=0.09
EXTRACT: note_on channel=4 note=42 velocity=0 time=0
EXTRACT: note_on channel=5 note=64 velocity=0 time=0.03
EXTRACT: note_on channel=5 note=67 velocity=100 time=0.03
EXTRACT: note_on channel=9 note=42 velocity=50 time=0
EXTRACT: note_on channel=2 note=69 velocity=0 time=0.09
EXTRACT: note_on channel=9 note=42 velocity=0 time=0
EXTRACT: note_on channel=5 note=67 velocity=0 time=0.03
EXTRACT: note_on channel=9 note=42 velocity=0 time=0
EXTRACT: note_on channel=0 note=59 velocity=60 time=0.03
EXTRACT: note_on channel=0 note=62 velocity=60 time=0
EXTRACT: note_on channel=0 note=64 velocity=60 time=0
EXTRACT: note_on channel=0 note=69 velocity=60 time=0
EXTRACT: note_on channel=2 note=69 velocity=127 time=0
EXTRACT: note_on channel=4 note=31 velocity=100 time=0
EXTRACT: note_on channel=4 note=43 velocity=100 time=0
EXTRACT: note_on channel=5 note=81 velocity=100 time=0
EXTRACT: note_on channel=5 note=69 velocity=100 time=0
EXTRACT: note_on channel=5 note=69 velocity=100 time=0
EXTRACT: note_on channel=9 note=35 velocity=127 time=0
EXTRACT: note_on channel=9 note=42 velocity=127 time=0
EXTRACT: note_on channel=4 note=31 velocity=0 time=0.12
EXTRACT: note_on channel=4 note=43 velocity=0 time=0
EXTRACT: note_on channel=5 note=69 velocity=0 time=0
EXTRACT: note_on channel=9 note=42 velocity=0 time=0
EXTRACT: note_on channel=4 note=31 velocity=100 time=0.03
EXTRACT: note_on channel=4 note=43 velocity=100 time=0
EXTRACT: note_on channel=9 note=42 velocity=50 time=0
EXTRACT: note_on channel=9 note=35 velocity=0 time=0.09
EXTRACT: note_on channel=4 note=31 velocity=0 time=0.03
EXTRACT: note_on channel=4 note=43 velocity=0 time=0
EXTRACT: note_on channel=9 note=42 velocity=0 time=0
EXTRACT: note_on channel=9 note=42 velocity=127 time=0.03
EXTRACT: note_on channel=9 note=42 velocity=50 time=0.15
EXTRACT: note_on channel=9 note=42 velocity=0 time=0.09
EXTRACT: note_on channel=9 note=42 velocity=0 time=0.03
EXTRACT: note_on channel=9 note=38 velocity=127 time=0.03
EXTRACT: note_on channel=9 note=42 velocity=127 time=0
EXTRACT: note_on channel=0 note=73 velocity=40 time=0.15
EXTRACT: note_on channel=0 note=76 velocity=40 time=0
EXTRACT: note_on channel=9 note=42 velocity=50 time=0
EXTRACT: note_on channel=9 note=38 velocity=0 time=0.09
EXTRACT: note_on channel=9 note=42 velocity=0 time=0
EXTRACT: note_on channel=0 note=73 velocity=0 time=0.03
EXTRACT: note_on channel=0 note=76 velocity=0 time=0
EXTRACT: note_on channel=9 note=42 velocity=0 time=0
EXTRACT: note_on channel=9 note=42 velocity=127 time=0.03
EXTRACT: note_on channel=0 note=71 velocity=40 time=0.15
EXTRACT: note_on channel=0 note=74 velocity=40 time=0
EXTRACT: note_on channel=9 note=35 velocity=127 time=0
EXTRACT: note_on channel=9 note=42 velocity=50 time=0
EXTRACT: note_on channel=9 note=42 velocity=0 time=0.09
EXTRACT: note_on channel=0 note=71 velocity=0 time=0.03
EXTRACT: note_on channel=0 note=74 velocity=0 time=0
EXTRACT: note_on channel=9 note=42 velocity=0 time=0
EXTRACT: note_on channel=9 note=42 velocity=127 time=0.03
EXTRACT: note_on channel=9 note=35 velocity=0 time=0.09
EXTRACT: note_on channel=9 note=35 velocity=127 time=0.06
EXTRACT: note_on channel=9 note=42 velocity=50 time=0
EXTRACT: note_on channel=9 note=42 velocity=0 time=0.09
EXTRACT: note_on channel=9 note=42 velocity=0 time=0.03
EXTRACT: note_on channel=4 note=31 velocity=100 time=0.03
EXTRACT: note_on channel=4 note=43 velocity=100 time=0
EXTRACT: note_on channel=9 note=35 velocity=127 time=0
EXTRACT: note_on channel=9 note=42 velocity=127 time=0
EXTRACT: note_on channel=9 note=35 velocity=0 time=0.09
EXTRACT: note_on channel=9 note=42 velocity=50 time=0.06
EXTRACT: note_on channel=4 note=31 velocity=0 time=0.09
EXTRACT: note_on channel=4 note=43 velocity=0 time=0
EXTRACT: note_on channel=9 note=35 velocity=0 time=0
EXTRACT: note_on channel=9 note=42 velocity=0 time=0
EXTRACT: note_on channel=9 note=42 velocity=0 time=0.03
EXTRACT: note_on channel=9 note=38 velocity=127 time=0.03
EXTRACT: note_on channel=9 note=42 velocity=127 time=0
EXTRACT: note_on channel=0 note=59 velocity=0 time=0.12
EXTRACT: note_on channel=0 note=62 velocity=0 time=0
EXTRACT: note_on channel=0 note=64 velocity=0 time=0
EXTRACT: note_on channel=0 note=69 velocity=0 time=0
EXTRACT: note_on channel=2 note=69 velocity=0 time=0
EXTRACT: note_on channel=5 note=81 velocity=0 time=0
EXTRACT: note_on channel=5 note=69 velocity=0 time=0
EXTRACT: note_on channel=4 note=32 velocity=100 time=0.03
EXTRACT: note_on channel=4 note=44 velocity=100 time=0
EXTRACT: note_on channel=9 note=42 velocity=50 time=0
EXTRACT: note_on channel=9 note=38 velocity=0 time=0.09
EXTRACT: note_on channel=9 note=42 velocity=0 time=0
EXTRACT: note_on channel=9 note=42 velocity=0 time=0.03
EXTRACT: note_on channel=2 note=72 velocity=127 time=0.03
EXTRACT: note_on channel=9 note=42 velocity=127 time=0
EXTRACT: note_on channel=4 note=32 velocity=0 time=0.09
EXTRACT: note_on channel=4 note=44 velocity=0 time=0
EXTRACT: note_on channel=9 note=42 velocity=50 time=0.06
EXTRACT: note_on channel=9 note=42 velocity=0 time=0.09
EXTRACT: note_on channel=9 note=42 velocity=0 time=0.03
EXTRACT: note_on channel=0 note=61 velocity=60 time=0.03
EXTRACT: note_on channel=0 note=64 velocity=60 time=0
EXTRACT: note_on channel=0 note=69 velocity=60 time=0
EXTRACT: note_on channel=4 note=33 velocity=100 time=0
EXTRACT: note_on channel=4 note=45 velocity=100 time=0
EXTRACT: note_on channel=5 note=76 velocity=100 time=0
EXTRACT: note_on channel=5 note=64 velocity=100 time=0
EXTRACT: note_on channel=9 note=35 velocity=127 time=0
EXTRACT: note_on channel=9 note=42 velocity=127 time=0
EXTRACT: note_on channel=4 note=33 velocity=0 time=0.12
EXTRACT: note_on channel=4 note=45 velocity=0 time=0
EXTRACT: note_on channel=9 note=42 velocity=0 time=0
EXTRACT: note_on channel=4 note=33 velocity=100 time=0.03
EXTRACT: note_on channel=4 note=45 velocity=100 time=0
EXTRACT: note_on channel=9 note=42 velocity=50 time=0
EXTRACT: note_on channel=2 note=72 velocity=0 time=0.03
EXTRACT: note_on channel=9 note=35 velocity=0 time=0.06
EXTRACT: note_on channel=4 note=33 velocity=0 time=0.03
EXTRACT: note_on channel=4 note=45 velocity=0 time=0
EXTRACT: note_on channel=9 note=42 velocity=0 time=0
EXTRACT: note_on channel=2 note=71 velocity=127 time=0.03
EXTRACT: note_on channel=9 note=42 velocity=127 time=0
EXTRACT: note_on channel=9 note=42 velocity=50 time=0.15
EXTRACT: note_on channel=2 note=71 velocity=0 time=0.09
EXTRACT: note_on channel=9 note=42 velocity=0 time=0
EXTRACT: note_on channel=9 note=42 velocity=0 time=0.03
EXTRACT: note_on channel=2 note=71 velocity=127 time=0.03
EXTRACT: note_on channel=9 note=38 velocity=127 time=0
EXTRACT: note_on channel=9 note=42 velocity=127 time=0
EXTRACT: note_on channel=9 note=42 velocity=50 time=0.15
EXTRACT: note_on channel=2 note=71 velocity=0 time=0.09
EXTRACT: note_on channel=9 note=38 velocity=0 time=0
EXTRACT: note_on channel=9 note=42 velocity=0 time=0
EXTRACT: note_on channel=9 note=42 velocity=0 time=0.03
EXTRACT: note_on channel=2 note=69 velocity=127 time=0.03
EXTRACT: note_on channel=9 note=42 velocity=127 time=0
EXTRACT: note_on channel=9 note=35 velocity=127 time=0.15
EXTRACT: note_on channel=9 note=42 velocity=50 time=0
EXTRACT: note_on channel=2 note=69 velocity=0 time=0.09
EXTRACT: note_on channel=9 note=42 velocity=0 time=0
EXTRACT: note_on channel=9 note=42 velocity=0 time=0.03
EXTRACT: note_on channel=2 note=69 velocity=127 time=0.03
EXTRACT: note_on channel=9 note=42 velocity=127 time=0
EXTRACT: note_on channel=9 note=35 velocity=0 time=0.09
EXTRACT: note_on channel=9 note=35 velocity=127 time=0.06
EXTRACT: note_on channel=9 note=42 velocity=50 time=0
EXTRACT: note_on channel=2 note=69 velocity=0 time=0.09
EXTRACT: note_on channel=9 note=42 velocity=0 time=0
EXTRACT: note_on channel=9 note=42 velocity=0 time=0.03
EXTRACT: note_on channel=2 note=66 velocity=127 time=0.03
EXTRACT: note_on channel=4 note=35 velocity=100 time=0
EXTRACT: note_on channel=4 note=47 velocity=100 time=0
EXTRACT: note_on channel=9 note=35 velocity=127 time=0
EXTRACT: note_on channel=9 note=42 velocity=127 time=0
EXTRACT: note_on channel=9 note=35 velocity=0 time=0.09
EXTRACT: note_on channel=9 note=42 velocity=50 time=0.06
EXTRACT: note_on channel=2 note=66 velocity=0 time=0.09
EXTRACT: note_on channel=4 note=35 velocity=0 time=0
EXTRACT: note_on channel=4 note=47 velocity=0 time=0
EXTRACT: note_on channel=9 note=35 velocity=0 time=0
EXTRACT: note_on channel=9 note=42 velocity=0 time=0
EXTRACT: note_on channel=9 note=42 velocity=0 time=0.03
EXTRACT: note_on channel=2 note=69 velocity=127 time=0.03
EXTRACT: note_on channel=9 note=38 velocity=127 time=0
EXTRACT: note_on channel=9 note=42 velocity=127 time=0
EXTRACT: note_on channel=0 note=61 velocity=0 time=0.12
EXTRACT: note_on channel=0 note=64 velocity=0 time=0
EXTRACT: note_on channel=0 note=69 velocity=0 time=0
EXTRACT: note_on channel=5 note=76 velocity=0 time=0
EXTRACT: note_on channel=5 note=64 velocity=0 time=0
EXTRACT: note_on channel=4 note=33 velocity=100 time=0.03
EXTRACT: note_on channel=4 note=45 velocity=100 time=0
EXTRACT: note_on channel=9 note=42 velocity=50 time=0
EXTRACT: note_on channel=2 note=69 velocity=0 time=0.09
EXTRACT: note_on channel=9 note=38 velocity=0 time=0
EXTRACT: note_on channel=9 note=42 velocity=0 time=0
EXTRACT: note_on channel=9 note=42 velocity=0 time=0.03
EXTRACT: note_on channel=2 note=66 velocity=127 time=0.03
EXTRACT: note_on channel=9 note=42 velocity=127 time=0
EXTRACT: note_on channel=4 note=33 velocity=0 time=0.09
EXTRACT: note_on channel=4 note=45 velocity=0 time=0
EXTRACT: note_on channel=9 note=42 velocity=50 time=0.06
EXTRACT: note_on channel=2 note=66 velocity=0 time=0.09
EXTRACT: note_on channel=9 note=42 velocity=0 time=0
EXTRACT: note_on channel=9 note=42 velocity=0 time=0.03
EXTRACT: note_on channel=0 note=59 velocity=60 time=0.03
EXTRACT: note_on channel=0 note=66 velocity=60 time=0
EXTRACT: note_on channel=0 note=64 velocity=60 time=0
EXTRACT: note_on channel=0 note=69 velocity=60 time=0
EXTRACT: note_on channel=2 note=69 velocity=127 time=0
EXTRACT: note_on channel=4 note=35 velocity=100 time=0
EXTRACT: note_on channel=4 note=47 velocity=100 time=0
EXTRACT: note_on channel=5 note=69 velocity=100 time=0
EXTRACT: note_on channel=9 note=35 velocity=127 time=0
EXTRACT: note_on channel=9 note=42 velocity=127 time=0
EXTRACT: note_on channel=4 note=35 velocity=0 time=0.12
EXTRACT: note_on channel=4 note=47 velocity=0 time=0
EXTRACT: note_on channel=9 note=42 velocity=0 time=0
EXTRACT: note_on channel=4 note=35 velocity=100 time=0.03
EXTRACT: note_on channel=4 note=47 velocity=100 time=0
EXTRACT: note_on channel=9 note=42 velocity=50 time=0
EXTRACT: note_on channel=2 note=69 velocity=0 time=0.09
EXTRACT: note_on channel=9 note=35 velocity=0 time=0
EXTRACT: note_on channel=4 note=35 velocity=0 time=0.03
EXTRACT: note_on channel=4 note=47 velocity=0 time=0
EXTRACT: note_on channel=9 note=42 velocity=0 time=0
EXTRACT: note_on channel=9 note=42 velocity=127 time=0.03
EXTRACT: note_on channel=9 note=42 velocity=50 time=0.15
EXTRACT: note_on channel=9 note=42 velocity=0 time=0.09
EXTRACT: note_on channel=9 note=42 velocity=0 time=0.03
EXTRACT: note_on channel=2 note=69 velocity=127 time=0.03
EXTRACT: note_on channel=9 note=38 velocity=127 time=0
EXTRACT: note_on channel=9 note=42 velocity=127 time=0
EXTRACT: note_on channel=9 note=42 velocity=50 time=0.15
EXTRACT: note_on channel=2 note=69 velocity=0 time=0.09
EXTRACT: note_on channel=9 note=38 velocity=0 time=0
EXTRACT: note_on channel=9 note=42 velocity=0 time=0
EXTRACT: note_on channel=9 note=42 velocity=0 time=0.03
EXTRACT: note_on channel=2 note=66 velocity=127 time=0.03
EXTRACT: note_on channel=9 note=42 velocity=127 time=0
EXTRACT: note_on channel=9 note=35 velocity=127 time=0.15
EXTRACT: note_on channel=9 note=42 velocity=50 time=0
EXTRACT: note_on channel=2 note=66 velocity=0 time=0.09
EXTRACT: note_on channel=9 note=42 velocity=0 time=0
EXTRACT: note_on channel=9 note=42 velocity=0 time=0.03
EXTRACT: note_on channel=2 note=69 velocity=127 time=0.03
EXTRACT: note_on channel=9 note=42 velocity=127 time=0
EXTRACT: note_on channel=9 note=35 velocity=0 time=0.09
EXTRACT: note_on channel=9 note=35 velocity=127 time=0.06
EXTRACT: note_on channel=9 note=42 velocity=50 time=0
EXTRACT: note_on channel=2 note=69 velocity=0 time=0.09
EXTRACT: note_on channel=9 note=42 velocity=0 time=0
EXTRACT: note_on channel=9 note=42 velocity=0 time=0.03
EXTRACT: note_on channel=2 note=69 velocity=127 time=0.03
EXTRACT: note_on channel=4 note=35 velocity=100 time=0
EXTRACT: note_on channel=4 note=47 velocity=100 time=0
EXTRACT: note_on channel=9 note=35 velocity=127 time=0
EXTRACT: note_on channel=9 note=42 velocity=127 time=0
EXTRACT: note_on channel=9 note=35 velocity=0 time=0.09
EXTRACT: note_on channel=9 note=42 velocity=50 time=0.06
EXTRACT: note_on channel=4 note=35 velocity=0 time=0.09
EXTRACT: note_on channel=4 note=47 velocity=0 time=0
EXTRACT: note_on channel=9 note=35 velocity=0 time=0
EXTRACT: note_on channel=9 note=42 velocity=0 time=0
EXTRACT: note_on channel=9 note=42 velocity=0 time=0.03
EXTRACT: note_on channel=9 note=38 velocity=127 time=0.03
EXTRACT: note_on channel=9 note=42 velocity=127 time=0
EXTRACT: note_on channel=0 note=59 velocity=0 time=0.12
EXTRACT: note_on channel=0 note=66 velocity=0 time=0
EXTRACT: note_on channel=0 note=64 velocity=0 time=0
EXTRACT: note_on channel=0 note=69 velocity=0 time=0
EXTRACT: note_on channel=5 note=69 velocity=0 time=0
EXTRACT: note_on channel=4 note=37 velocity=100 time=0.03
EXTRACT: note_on channel=4 note=49 velocity=100 time=0
EXTRACT: note_on channel=9 note=42 velocity=50 time=0
EXTRACT: note_on channel=2 note=69 velocity=0 time=0.03
EXTRACT: note_on channel=9 note=38 velocity=0 time=0.06
EXTRACT: note_on channel=9 note=42 velocity=0 time=0
EXTRACT: note_on channel=9 note=42 velocity=0 time=0.03
EXTRACT: note_on channel=2 note=71 velocity=127 time=0.03
EXTRACT: note_on channel=9 note=42 velocity=127 time=0
EXTRACT: note_on channel=4 note=37 velocity=0 time=0.09
EXTRACT: note_on channel=4 note=49 velocity=0 time=0
EXTRACT: note_on channel=9 note=42 velocity=50 time=0.06
EXTRACT: note_on channel=9 note=42 velocity=0 time=0.09
EXTRACT: note_on channel=9 note=42 velocity=0 time=0.03
EXTRACT: note_on channel=0 note=59 velocity=60 time=0.03
EXTRACT: note_on channel=0 note=64 velocity=60 time=0
EXTRACT: note_on channel=0 note=68 velocity=60 time=0
EXTRACT: note_on channel=4 note=40 velocity=100 time=0
EXTRACT: note_on channel=4 note=52 velocity=100 time=0
EXTRACT: note_on channel=9 note=35 velocity=127 time=0
EXTRACT: note_on channel=9 note=42 velocity=127 time=0
EXTRACT: note_on channel=9 note=42 velocity=0 time=0.12
EXTRACT: note_on channel=9 note=42 velocity=50 time=0.03
EXTRACT: note_on channel=9 note=35 velocity=0 time=0.09
EXTRACT: note_on channel=9 note=42 velocity=0 time=0.03
EXTRACT: note_on channel=9 note=42 velocity=127 time=0.03
EXTRACT: note_on channel=9 note=42 velocity=50 time=0.15
EXTRACT: note_on channel=4 note=40 velocity=0 time=0.03
EXTRACT: note_on channel=4 note=52 velocity=0 time=0
EXTRACT: note_on channel=9 note=42 velocity=0 time=0.06
EXTRACT: note_on channel=9 note=42 velocity=0 time=0.03
EXTRACT: note_on channel=4 note=40 velocity=100 time=0.03
EXTRACT: note_on channel=4 note=52 velocity=100 time=0
EXTRACT: note_on channel=9 note=38 velocity=127 time=0
EXTRACT: note_on channel=9 note=42 velocity=127 time=0
EXTRACT: note_on channel=2 note=71 velocity=0 time=0.06
EXTRACT: note_on channel=9 note=42 velocity=50 time=0.09
EXTRACT: note_on channel=9 note=38 velocity=0 time=0.09
EXTRACT: note_on channel=9 note=42 velocity=0 time=0
EXTRACT: note_on channel=9 note=42 velocity=0 time=0.03
EXTRACT: note_on channel=9 note=42 velocity=127 time=0.03
EXTRACT: note_on channel=4 note=40 velocity=100 time=0.15
EXTRACT: note_on channel=4 note=52 velocity=100 time=0
EXTRACT: note_on channel=9 note=35 velocity=127 time=0
EXTRACT: note_on channel=9 note=42 velocity=50 time=0
EXTRACT: note_on channel=4 note=40 velocity=0 time=0.03
EXTRACT: note_on channel=4 note=52 velocity=0 time=0
EXTRACT: note_on channel=9 note=42 velocity=0 time=0.06
EXTRACT: note_on channel=4 note=40 velocity=0 time=0.03
EXTRACT: note_on channel=4 note=52 velocity=0 time=0
EXTRACT: note_on channel=9 note=42 velocity=0 time=0
EXTRACT: note_on channel=4 note=52 velocity=100 time=0.03
EXTRACT: note_on channel=4 note=40 velocity=100 time=0
EXTRACT: note_on channel=9 note=42 velocity=127 time=0
EXTRACT: note_on channel=9 note=35 velocity=0 time=0.09
EXTRACT: note_on channel=9 note=35 velocity=127 time=0.06
EXTRACT: note_on channel=9 note=42 velocity=50 time=0
EXTRACT: note_on channel=4 note=52 velocity=0 time=0.09
EXTRACT: note_on channel=4 note=40 velocity=0 time=0
EXTRACT: note_on channel=9 note=42 velocity=0 time=0
EXTRACT: note_on channel=9 note=42 velocity=0 time=0.03
EXTRACT: note_on channel=2 note=54 velocity=100 time=0.03
EXTRACT: note_on channel=2 note=62 velocity=100 time=0
EXTRACT: note_on channel=2 note=66 velocity=127 time=0
EXTRACT: note_on channel=4 note=40 velocity=100 time=0
EXTRACT: note_on channel=4 note=52 velocity=100 time=0
EXTRACT: note_on channel=9 note=35 velocity=127 time=0
EXTRACT: note_on channel=9 note=42 velocity=127 time=0
EXTRACT: note_on channel=9 note=35 velocity=0 time=0.09
EXTRACT: note_on channel=4 note=40 velocity=0 time=0.03
EXTRACT: note_on channel=4 note=52 velocity=0 time=0
EXTRACT: note_on channel=9 note=42 velocity=50 time=0.03
EXTRACT: note_on channel=2 note=54 velocity=0 time=0.09
EXTRACT: note_on channel=2 note=62 velocity=0 time=0
EXTRACT: note_on channel=2 note=66 velocity=0 time=0
EXTRACT: note_on channel=9 note=35 velocity=0 time=0
EXTRACT: note_on channel=9 note=42 velocity=0 time=0
EXTRACT: note_on channel=9 note=42 velocity=0 time=0.03
EXTRACT: note_on channel=2 note=57 velocity=100 time=0.03
EXTRACT: note_on channel=2 note=66 velocity=100 time=0
EXTRACT: note_on channel=2 note=69 velocity=127 time=0
EXTRACT: note_on channel=9 note=38 velocity=127 time=0
EXTRACT: note_on channel=9 note=42 velocity=127 time=0
EXTRACT: note_on channel=0 note=59 velocity=0 time=0.12
EXTRACT: note_on channel=0 note=64 velocity=0 time=0
EXTRACT: note_on channel=0 note=68 velocity=0 time=0
EXTRACT: note_on channel=4 note=42 velocity=100 time=0.03
EXTRACT: note_on channel=4 note=54 velocity=100 time=0
EXTRACT: note_on channel=5 note=62 velocity=100 time=0
EXTRACT: note_on channel=9 note=42 velocity=50 time=0
EXTRACT: note_on channel=2 note=57 velocity=0 time=0.09
EXTRACT: note_on channel=2 note=66 velocity=0 time=0
EXTRACT: note_on channel=2 note=69 velocity=0 time=0
EXTRACT: note_on channel=9 note=38 velocity=0 time=0
EXTRACT: note_on channel=9 note=42 velocity=0 time=0
EXTRACT: note_on channel=5 note=62 velocity=0 time=0.03
EXTRACT: note_on channel=9 note=42 velocity=0 time=0
EXTRACT: note_on channel=2 note=54 velocity=100 time=0.03
EXTRACT: note_on channel=2 note=62 velocity=100 time=0
EXTRACT: note_on channel=2 note=66 velocity=127 time=0
EXTRACT: note_on channel=5 note=64 velocity=100 time=0
EXTRACT: note_on channel=9 note=42 velocity=127 time=0
EXTRACT: note_on channel=4 note=42 velocity=0 time=0.09
EXTRACT: note_on channel=4 note=54 velocity=0 time=0
EXTRACT: note_on channel=5 note=64 velocity=0 time=0.03
EXTRACT: note_on channel=5 note=67 velocity=100 time=0.03
EXTRACT: note_on channel=9 note=42 velocity=50 time=0
EXTRACT: note_on channel=2 note=54 velocity=0 time=0.09
EXTRACT: note_on channel=2 note=62 velocity=0 time=0
EXTRACT: note_on channel=2 note=66 velocity=0 time=0
EXTRACT: note_on channel=9 note=42 velocity=0 time=0
EXTRACT: note_on channel=5 note=67 velocity=0 time=0.03
EXTRACT: note_on channel=9 note=42 velocity=0 time=0
EXTRACT: note_on channel=0 note=45 velocity=100 time=0.03
EXTRACT: note_on channel=1 note=45 velocity=100 time=0
EXTRACT: note_on channel=2 note=57 velocity=100 time=0
EXTRACT: note_on channel=2 note=66 velocity=100 time=0
EXTRACT: note_on channel=2 note=69 velocity=127 time=0
EXTRACT: note_on channel=4 note=45 velocity=100 time=0
EXTRACT: note_on channel=5 note=69 velocity=100 time=0
EXTRACT: note_on channel=5 note=93 velocity=70 time=0
EXTRACT: note_on channel=5 note=81 velocity=80 time=0
EXTRACT: note_on channel=9 note=35 velocity=127 time=0
EXTRACT: note_on channel=9 note=42 velocity=127 time=0
EXTRACT: note_on channel=5 note=69 velocity=0 time=0.12
EXTRACT: note_on channel=9 note=42 velocity=0 time=0
EXTRACT: note_on channel=9 note=42 velocity=50 time=0.03
EXTRACT: note_on channel=0 note=45 velocity=0 time=0.09
EXTRACT: note_on channel=1 note=45 velocity=0 time=0
EXTRACT: note_on channel=2 note=57 velocity=0 time=0
EXTRACT: note_on channel=2 note=66 velocity=0 time=0
EXTRACT: note_on channel=2 note=69 velocity=0 time=0
EXTRACT: note_on channel=4 note=45 velocity=0 time=0
EXTRACT: note_on channel=5 note=93 velocity=0 time=0
EXTRACT: note_on channel=5 note=81 velocity=0 time=0
EXTRACT: note_on channel=9 note=35 velocity=0 time=0
EXTRACT: note_on channel=9 note=42 velocity=0 time=0.03
EXTRACT: note_on channel=0 note=45 velocity=100 time=0.03
EXTRACT: note_on channel=1 note=45 velocity=100 time=0
EXTRACT: note_on channel=2 note=54 velocity=100 time=0
EXTRACT: note_on channel=2 note=62 velocity=100 time=0
EXTRACT: note_on channel=2 note=66 velocity=127 time=0
EXTRACT: note_on channel=3 note=69 velocity=64 time=0
EXTRACT: note_on channel=4 note=45 velocity=100 time=0
EXTRACT: note_on channel=9 note=42 velocity=127 time=0
EXTRACT: note_on channel=3 note=69 velocity=0 time=0.12
EXTRACT: note_on channel=3 note=69 velocity=64 time=0.03
EXTRACT: note_on channel=9 note=42 velocity=50 time=0
EXTRACT: note_on channel=2 note=54 velocity=0 time=0.09
EXTRACT: note_on channel=2 note=62 velocity=0 time=0
EXTRACT: note_on channel=2 note=66 velocity=0 time=0
EXTRACT: note_on channel=9 note=42 velocity=0 time=0
EXTRACT: note_on channel=3 note=69 velocity=0 time=0.03
EXTRACT: note_on channel=9 note=42 velocity=0 time=0
EXTRACT: note_on channel=0 note=57 velocity=100 time=0.03
EXTRACT: note_on channel=0 note=62 velocity=100 time=0
EXTRACT: note_on channel=0 note=66 velocity=100 time=0
EXTRACT: note_on channel=3 note=69 velocity=64 time=0
EXTRACT: note_on channel=5 note=93 velocity=70 time=0
EXTRACT: note_on channel=5 note=81 velocity=80 time=0
EXTRACT: note_on channel=9 note=38 velocity=127 time=0
EXTRACT: note_on channel=9 note=42 velocity=127 time=0
EXTRACT: note_on channel=9 note=42 velocity=50 time=0.15
EXTRACT: note_on channel=1 note=45 velocity=0 time=0.03
EXTRACT: note_on channel=4 note=45 velocity=0 time=0
EXTRACT: note_on channel=0 note=57 velocity=0 time=0.06
EXTRACT: note_on channel=0 note=62 velocity=0 time=0
EXTRACT: note_on channel=0 note=66 velocity=0 time=0
EXTRACT: note_on channel=3 note=69 velocity=0 time=0
EXTRACT: note_on channel=5 note=93 velocity=0 time=0
EXTRACT: note_on channel=5 note=81 velocity=0 time=0
EXTRACT: note_on channel=9 note=38 velocity=0 time=0
EXTRACT: note_on channel=9 note=42 velocity=0 time=0
EXTRACT: note_on channel=9 note=42 velocity=0 time=0.03
EXTRACT: note_on channel=0 note=57 velocity=100 time=0.03
EXTRACT: note_on channel=3 note=69 velocity=64 time=0
EXTRACT: note_on channel=9 note=42 velocity=127 time=0
EXTRACT: note_on channel=3 note=69 velocity=0 time=0.12
EXTRACT: note_on channel=0 note=57 velocity=100 time=0.03
EXTRACT: note_on channel=0 note=61 velocity=100 time=0
EXTRACT: note_on channel=0 note=64 velocity=100 time=0
EXTRACT: note_on channel=3 note=69 velocity=64 time=0
EXTRACT: note_on channel=9 note=35 velocity=127 time=0
EXTRACT: note_on channel=9 note=42 velocity=50 time=0
EXTRACT: note_on channel=0 note=57 velocity=0 time=0.09
EXTRACT: note_on channel=9 note=42 velocity=0 time=0
EXTRACT: note_on channel=0 note=57 velocity=0 time=0.03
EXTRACT: note_on channel=0 note=61 velocity=0 time=0
EXTRACT: note_on channel=0 note=64 velocity=0 time=0
EXTRACT: note_on channel=9 note=42 velocity=0 time=0
EXTRACT: note_on channel=5 note=93 velocity=70 time=0.03
EXTRACT: note_on channel=5 note=81 velocity=80 time=0
EXTRACT: note_on channel=9 note=42 velocity=127 time=0
EXTRACT: note_on channel=0 note=45 velocity=0 time=0.06
EXTRACT: note_on channel=3 note=69 velocity=0 time=0.03
EXTRACT: note_on channel=9 note=35 velocity=0 time=0
EXTRACT: note_on channel=0 note=45 velocity=100 time=0.06
EXTRACT: note_on channel=1 note=45 velocity=100 time=0
EXTRACT: note_on channel=3 note=69 velocity=64 time=0
EXTRACT: note_on channel=4 note=45 velocity=100 time=0
EXTRACT: note_on channel=9 note=35 velocity=127 time=0
EXTRACT: note_on channel=9 note=42 velocity=50 time=0
EXTRACT: note_on channel=5 note=93 velocity=0 time=0.09
EXTRACT: note_on channel=5 note=81 velocity=0 time=0
EXTRACT: note_on channel=9 note=42 velocity=0 time=0
EXTRACT: note_on channel=3 note=69 velocity=0 time=0.03
EXTRACT: note_on channel=9 note=42 velocity=0 time=0
EXTRACT: note_on channel=0 note=57 velocity=100 time=0.03
EXTRACT: note_on channel=0 note=61 velocity=100 time=0
EXTRACT: note_on channel=0 note=64 velocity=100 time=0
EXTRACT: note_on channel=2 note=66 velocity=127 time=0
EXTRACT: note_on channel=9 note=35 velocity=127 time=0
EXTRACT: note_on channel=9 note=42 velocity=127 time=0
EXTRACT: note_on channel=0 note=45 velocity=0 time=0.09
EXTRACT: note_on channel=1 note=45 velocity=0 time=0
EXTRACT: note_on channel=4 note=45 velocity=0 time=0
EXTRACT: note_on channel=9 note=35 velocity=0 time=0
EXTRACT: note_on channel=3 note=69 velocity=64 time=0.06
EXTRACT: note_on channel=9 note=42 velocity=50 time=0
EXTRACT: note_on channel=0 note=57 velocity=0 time=0.09
EXTRACT: note_on channel=0 note=61 velocity=0 time=0
EXTRACT: note_on channel=0 note=64 velocity=0 time=0
EXTRACT: note_on channel=2 note=66 velocity=0 time=0
EXTRACT: note_on channel=9 note=35 velocity=0 time=0
EXTRACT: note_on channel=9 note=42 velocity=0 time=0
EXTRACT: note_on channel=9 note=42 velocity=0 time=0.03
EXTRACT: note_on channel=0 note=45 velocity=100 time=0.03
EXTRACT: note_on channel=1 note=45 velocity=100 time=0
EXTRACT: note_on channel=2 note=66 velocity=127 time=0
EXTRACT: note_on channel=3 note=69 velocity=64 time=0
EXTRACT: note_on channel=4 note=45 velocity=100 time=0
EXTRACT: note_on channel=5 note=93 velocity=70 time=0
EXTRACT: note_on channel=5 note=81 velocity=80 time=0
EXTRACT: note_on channel=9 note=38 velocity=127 time=0
EXTRACT: note_on channel=9 note=42 velocity=127 time=0
EXTRACT: note_on channel=3 note=69 velocity=0 time=0.09
EXTRACT: note_on channel=0 note=57 velocity=100 time=0.06
EXTRACT: note_on channel=0 note=61 velocity=100 time=0
EXTRACT: note_on channel=0 note=64 velocity=100 time=0
EXTRACT: note_on channel=9 note=42 velocity=50 time=0
EXTRACT: note_on channel=2 note=66 velocity=0 time=0.09
EXTRACT: note_on channel=3 note=69 velocity=0 time=0
EXTRACT: note_on channel=5 note=93 velocity=0 time=0
EXTRACT: note_on channel=5 note=81 velocity=0 time=0
EXTRACT: note_on channel=9 note=38 velocity=0 time=0
EXTRACT: note_on channel=9 note=42 velocity=0 time=0
EXTRACT: note_on channel=9 note=42 velocity=0 time=0.03
EXTRACT: note_on channel=2 note=66 velocity=127 time=0.03
EXTRACT: note_on channel=9 note=42 velocity=127 time=0
EXTRACT: note_on channel=0 note=57 velocity=0 time=0.09
EXTRACT: note_on channel=0 note=61 velocity=0 time=0
EXTRACT: note_on channel=0 note=64 velocity=0 time=0
EXTRACT: note_on channel=2 note=66 velocity=0 time=0.03
EXTRACT: note_on channel=2 note=66 velocity=127 time=0.03
EXTRACT: note_on channel=9 note=42 velocity=50 time=0
EXTRACT: note_on channel=0 note=45 velocity=0 time=0.03
EXTRACT: note_on channel=1 note=45 velocity=0 time=0
EXTRACT: note_on channel=4 note=45 velocity=0 time=0
EXTRACT: note_on channel=9 note=42 velocity=0 time=0.06
EXTRACT: note_on channel=2 note=66 velocity=0 time=0.03
EXTRACT: note_on channel=9 note=42 velocity=0 time=0
EXTRACT: note_on channel=0 note=42 velocity=100 time=0.03
EXTRACT: note_on channel=1 note=42 velocity=100 time=0
EXTRACT: note_on channel=2 note=66 velocity=127 time=0
EXTRACT: note_on channel=4 note=42 velocity=100 time=0
EXTRACT: note_on channel=5 note=93 velocity=70 time=0
EXTRACT: note_on channel=5 note=81 velocity=80 time=0
EXTRACT: note_on channel=9 note=35 velocity=127 time=0
EXTRACT: note_on channel=9 note=42 velocity=127 time=0
EXTRACT: note_on channel=2 note=66 velocity=0 time=0.12
EXTRACT: note_on channel=9 note=42 velocity=0 time=0
EXTRACT: note_on channel=2 note=66 velocity=127 time=0.03
EXTRACT: note_on channel=9 note=42 velocity=50 time=0
EXTRACT: note_on channel=0 note=42 velocity=0 time=0.09
EXTRACT: note_on channel=1 note=42 velocity=0 time=0
EXTRACT: note_on channel=4 note=42 velocity=0 time=0
EXTRACT: note_on channel=5 note=93 velocity=0 time=0
EXTRACT: note_on channel=5 note=81 velocity=0 time=0
EXTRACT: note_on channel=9 note=35 velocity=0 time=0
EXTRACT: note_on channel=2 note=66 velocity=0 time=0.03
EXTRACT: note_on channel=9 note=42 velocity=0 time=0
EXTRACT: note_on channel=0 note=42 velocity=100 time=0.03
EXTRACT: note_on channel=1 note=42 velocity=100 time=0
EXTRACT: note_on channel=2 note=66 velocity=127 time=0
EXTRACT: note_on channel=3 note=69 velocity=64 time=0
EXTRACT: note_on channel=4 note=42 velocity=100 time=0
EXTRACT: note_on channel=9 note=42 velocity=127 time=0
EXTRACT: note_on channel=3 note=69 velocity=0 time=0.12
EXTRACT: note_on channel=3 note=69 velocity=64 time=0.03
EXTRACT: note_on channel=9 note=42 velocity=50 time=0
EXTRACT: note_on channel=2 note=66 velocity=0 time=0.09
EXTRACT: note_on channel=9 note=42 velocity=0 time=0
EXTRACT: note_on channel=3 note=69 velocity=0 time=0.03
EXTRACT: note_on channel=9 note=42 velocity=0 time=0
EXTRACT: note_on channel=0 note=57 velocity=100 time=0.03
EXTRACT: note_on channel=0 note=62 velocity=100 time=0
EXTRACT: note_on channel=0 note=66 velocity=100 time=0
EXTRACT: note_on channel=2 note=66 velocity=127 time=0
EXTRACT: note_on channel=3 note=69 velocity=64 time=0
EXTRACT: note_on channel=5 note=93 velocity=70 time=0
EXTRACT: note_on channel=5 note=81 velocity=80 time=0
EXTRACT: note_on channel=9 note=38 velocity=127 time=0
EXTRACT: note_on channel=9 note=42 velocity=127 time=0
EXTRACT: note_on channel=9 note=42 velocity=50 time=0.15
EXTRACT: note_on channel=0 note=42 velocity=0 time=0.03
EXTRACT: note_on channel=1 note=42 velocity=0 time=0
EXTRACT: note_on channel=4 note=42 velocity=0 time=0
EXTRACT: note_on channel=0 note=57 velocity=0 time=0.06
EXTRACT: note_on channel=0 note=62 velocity=0 time=0
EXTRACT: note_on channel=0 note=66 velocity=0 time=0
EXTRACT: note_on channel=2 note=66 velocity=0 time=0
EXTRACT: note_on channel=3 note=69 velocity=0 time=0
EXTRACT: note_on channel=5 note=93 velocity=0 time=0
EXTRACT: note_on channel=5 note=81 velocity=0 time=0
EXTRACT: note_on channel=9 note=38 velocity=0 time=0
EXTRACT: note_on channel=9 note=42 velocity=0 time=0
EXTRACT: note_on channel=9 note=42 velocity=0 time=0.03
EXTRACT: note_on channel=0 note=57 velocity=100 time=0.03
EXTRACT: note_on channel=2 note=66 velocity=127 time=0
EXTRACT: note_on channel=3 note=69 velocity=64 time=0
EXTRACT: note_on channel=9 note=42 velocity=127 time=0
EXTRACT: note_on channel=2 note=66 velocity=0 time=0.12
EXTRACT: note_on channel=3 note=69 velocity=0 time=0
EXTRACT: note_on channel=0 note=67 velocity=100 time=0.03
EXTRACT: note_on channel=0 note=59 velocity=100 time=0
EXTRACT: note_on channel=0 note=62 velocity=100 time=0
EXTRACT: note_on channel=2 note=69 velocity=127 time=0
EXTRACT: note_on channel=3 note=69 velocity=64 time=0
EXTRACT: note_on channel=9 note=35 velocity=127 time=0
EXTRACT: note_on channel=9 note=42 velocity=50 time=0
EXTRACT: note_on channel=0 note=57 velocity=0 time=0.09
EXTRACT: note_on channel=9 note=42 velocity=0 time=0
EXTRACT: note_on channel=0 note=67 velocity=0 time=0.03
EXTRACT: note_on channel=0 note=59 velocity=0 time=0
EXTRACT: note_on channel=0 note=62 velocity=0 time=0
EXTRACT: note_on channel=9 note=42 velocity=0 time=0
EXTRACT: note_on channel=5 note=93 velocity=70 time=0.03
EXTRACT: note_on channel=5 note=81 velocity=80 time=0
EXTRACT: note_on channel=9 note=42 velocity=127 time=0
EXTRACT: note_on channel=2 note=69 velocity=0 time=0.09
EXTRACT: note_on channel=3 note=69 velocity=0 time=0
EXTRACT: note_on channel=9 note=35 velocity=0 time=0
EXTRACT: note_on channel=0 note=43 velocity=100 time=0.06
EXTRACT: note_on channel=1 note=43 velocity=100 time=0
EXTRACT: note_on channel=3 note=69 velocity=64 time=0
EXTRACT: note_on channel=4 note=43 velocity=100 time=0
EXTRACT: note_on channel=9 note=35 velocity=127 time=0
EXTRACT: note_on channel=9 note=42 velocity=50 time=0
EXTRACT: note_on channel=5 note=93 velocity=0 time=0.09
EXTRACT: note_on channel=5 note=81 velocity=0 time=0
EXTRACT: note_on channel=9 note=42 velocity=0 time=0
EXTRACT: note_on channel=3 note=69 velocity=0 time=0.03
EXTRACT: note_on channel=9 note=42 velocity=0 time=0
EXTRACT: note_on channel=0 note=67 velocity=100 time=0.03
EXTRACT: note_on channel=0 note=59 velocity=100 time=0
EXTRACT: note_on channel=0 note=62 velocity=100 time=0
EXTRACT: note_on channel=2 note=54 velocity=100 time=0
EXTRACT: note_on channel=2 note=62 velocity=100 time=0
EXTRACT: note_on channel=2 note=66 velocity=127 time=0
EXTRACT: note_on channel=9 note=35 velocity=127 time=0
EXTRACT: note_on channel=9 note=42 velocity=127 time=0
EXTRACT: note_on channel=0 note=43 velocity=0 time=0.09
EXTRACT: note_on channel=1 note=43 velocity=0 time=0
EXTRACT: note_on channel=4 note=43 velocity=0 time=0
EXTRACT: note_on channel=9 note=35 velocity=0 time=0
EXTRACT: note_on channel=3 note=69 velocity=64 time=0.06
EXTRACT: note_on channel=9 note=42 velocity=50 time=0
EXTRACT: note_on channel=0 note=67 velocity=0 time=0.09
EXTRACT: note_on channel=0 note=59 velocity=0 time=0
EXTRACT: note_on channel=0 note=62 velocity=0 time=0
EXTRACT: note_on channel=2 note=54 velocity=0 time=0
EXTRACT: note_on channel=2 note=62 velocity=0 time=0
EXTRACT: note_on channel=2 note=66 velocity=0 time=0
EXTRACT: note_on channel=9 note=35 velocity=0 time=0
EXTRACT: note_on channel=9 note=42 velocity=0 time=0
EXTRACT: note_on channel=9 note=42 velocity=0 time=0.03
EXTRACT: note_on channel=0 note=43 velocity=100 time=0.03
EXTRACT: note_on channel=1 note=43 velocity=100 time=0
EXTRACT: note_on channel=2 note=57 velocity=100 time=0
EXTRACT: note_on channel=2 note=66 velocity=100 time=0
EXTRACT: note_on channel=2 note=69 velocity=127 time=0
EXTRACT: note_on channel=3 note=69 velocity=64 time=0
EXTRACT: note_on channel=4 note=43 velocity=100 time=0
EXTRACT: note_on channel=5 note=93 velocity=70 time=0
EXTRACT: note_on channel=5 note=81 velocity=80 time=0
EXTRACT: note_on channel=9 note=38 velocity=127 time=0
EXTRACT: note_on channel=9 note=42 velocity=127 time=0
EXTRACT: note_on channel=3 note=69 velocity=0 time=0.09
EXTRACT: note_on channel=0 note=67 velocity=100 time=0.06
EXTRACT: note_on channel=0 note=59 velocity=100 time=0
EXTRACT: note_on channel=0 note=62 velocity=100 time=0
EXTRACT: note_on channel=9 note=42 velocity=50 time=0
EXTRACT: note_on channel=2 note=57 velocity=0 time=0.09
EXTRACT: note_on channel=2 note=66 velocity=0 time=0
EXTRACT: note_on channel=2 note=69 velocity=0 time=0
EXTRACT: note_on channel=3 note=69 velocity=0 time=0
EXTRACT: note_on channel=5 note=93 velocity=0 time=0
EXTRACT: note_on channel=5 note=81 velocity=0 time=0
EXTRACT: note_on channel=9 note=38 velocity=0 time=0
EXTRACT: note_on channel=9 note=42 velocity=0 time=0
EXTRACT: note_on channel=9 note=42 velocity=0 time=0.03
EXTRACT: note_on channel=2 note=54 velocity=100 time=0.03
EXTRACT: note_on channel=2 note=62 velocity=100 time=0
EXTRACT: note_on channel=2 note=66 velocity=127 time=0
EXTRACT: note_on channel=9 note=42 velocity=127 time=0
EXTRACT: note_on channel=0 note=67 velocity=0 time=0.09
EXTRACT: note_on channel=0 note=59 velocity=0 time=0
EXTRACT: note_on channel=0 note=62 velocity=0 time=0
EXTRACT: note_on channel=9 note=42 velocity=50 time=0.06
EXTRACT: note_on channel=0 note=43 velocity=0 time=0.03
EXTRACT: note_on channel=1 note=43 velocity=0 time=0
EXTRACT: note_on channel=4 note=43 velocity=0 time=0
EXTRACT: note_on channel=2 note=54 velocity=0 time=0.06
EXTRACT: note_on channel=2 note=62 velocity=0 time=0
EXTRACT: note_on channel=2 note=66 velocity=0 time=0
EXTRACT: note_on channel=9 note=42 velocity=0 time=0
EXTRACT: note_on channel=9 note=42 velocity=0 time=0.03
EXTRACT: note_on channel=0 note=45 velocity=100 time=0.03
EXTRACT: note_on channel=1 note=45 velocity=100 time=0
EXTRACT: note_on channel=2 note=61 velocity=100 time=0
EXTRACT: note_on channel=2 note=69 velocity=100 time=0
EXTRACT: note_on channel=2 note=73 velocity=127 time=0
EXTRACT: note_on channel=4 note=45 velocity=100 time=0
EXTRACT: note_on channel=5 note=93 velocity=70 time=0
EXTRACT: note_on channel=5 note=81 velocity=80 time=0
EXTRACT: note_on channel=9 note=35 velocity=127 time=0
EXTRACT: note_on channel=9 note=42 velocity=127 time=0
EXTRACT: note_on channel=9 note=42 velocity=0 time=0.12
EXTRACT: note_on channel=9 note=42 velocity=50 time=0.03
EXTRACT: note_on channel=0 note=45 velocity=0 time=0.09
EXTRACT: note_on channel=1 note=45 velocity=0 time=0
EXTRACT: note_on channel=2 note=61 velocity=0 time=0
EXTRACT: note_on channel=2 note=69 velocity=0 time=0
EXTRACT: note_on channel=2 note=73 velocity=0 time=0
EXTRACT: note_on channel=4 note=45 velocity=0 time=0
EXTRACT: note_on channel=5 note=93 velocity=0 time=0
EXTRACT: note_on channel=5 note=81 velocity=0 time=0
EXTRACT: note_on channel=9 note=35 velocity=0 time=0
EXTRACT: note_on channel=9 note=42 velocity=0 time=0.03
EXTRACT: note_on channel=0 note=45 velocity=100 time=0.03
EXTRACT: note_on channel=1 note=45 velocity=100 time=0
EXTRACT: note_on channel=2 note=61 velocity=100 time=0
EXTRACT: note_on channel=2 note=69 velocity=100 time=0
EXTRACT: note_on channel=2 note=73 velocity=127 time=0
EXTRACT: note_on channel=3 note=69 velocity=64 time=0
EXTRACT: note_on channel=4 note=45 velocity=100 time=0
EXTRACT: note_on channel=9 note=42 velocity=127 time=0
EXTRACT: note_on channel=3 note=69 velocity=0 time=0.12
EXTRACT: note_on channel=3 note=69 velocity=64 time=0.03
EXTRACT: note_on channel=9 note=42 velocity=50 time=0
EXTRACT: note_on channel=2 note=61 velocity=0 time=0.09
EXTRACT: note_on channel=2 note=69 velocity=0 time=0
EXTRACT: note_on channel=2 note=73 velocity=0 time=0
EXTRACT: note_on channel=9 note=42 velocity=0 time=0
EXTRACT: note_on channel=3 note=69 velocity=0 time=0.03
EXTRACT: note_on channel=9 note=42 velocity=0 time=0
EXTRACT: note_on channel=0 note=57 velocity=100 time=0.03
EXTRACT: note_on channel=0 note=62 velocity=100 time=0
EXTRACT: note_on channel=0 note=66 velocity=100 time=0
EXTRACT: note_on channel=3 note=69 velocity=64 time=0
EXTRACT: note_on channel=5 note=93 velocity=70 time=0
EXTRACT: note_on channel=5 note=81 velocity=80 time=0
EXTRACT: note_on channel=9 note=38 velocity=127 time=0
EXTRACT: note_on channel=9 note=42 velocity=127 time=0
EXTRACT: note_on channel=9 note=42 velocity=50 time=0.15
EXTRACT: note_on channel=1 note=45 velocity=0 time=0.03
EXTRACT: note_on channel=4 note=45 velocity=0 time=0
EXTRACT: note_on channel=0 note=57 velocity=0 time=0.06
EXTRACT: note_on channel=0 note=62 velocity=0 time=0
EXTRACT: note_on channel=0 note=66 velocity=0 time=0
EXTRACT: note_on channel=3 note=69 velocity=0 time=0
EXTRACT: note_on channel=5 note=93 velocity=0 time=0
EXTRACT: note_on channel=5 note=81 velocity=0 time=0
EXTRACT: note_on channel=9 note=38 velocity=0 time=0
EXTRACT: note_on channel=9 note=42 velocity=0 time=0
EXTRACT: note_on channel=9 note=42 velocity=0 time=0.03
EXTRACT: note_on channel=0 note=57 velocity=100 time=0.03
EXTRACT: note_on channel=3 note=69 velocity=64 time=0
EXTRACT: note_on channel=9 note=42 velocity=127 time=0
EXTRACT: note_on channel=3 note=69 velocity=0 time=0.12
EXTRACT: note_on channel=0 note=57 velocity=100 time=0.03
EXTRACT: note_on channel=0 note=61 velocity=100 time=0
EXTRACT: note_on channel=0 note=64 velocity=100 time=0
EXTRACT: note_on channel=3 note=69 velocity=64 time=0
EXTRACT: note_on channel=9 note=35 velocity=127 time=0
EXTRACT: note_on channel=9 note=42 velocity=50 time=0
EXTRACT: note_on channel=0 note=57 velocity=0 time=0.09
EXTRACT: note_on channel=9 note=42 velocity=0 time=0
EXTRACT: note_on channel=0 note=57 velocity=0 time=0.03
EXTRACT: note_on channel=0 note=61 velocity=0 time=0
EXTRACT: note_on channel=0 note=64 velocity=0 time=0
EXTRACT: note_on channel=9 note=42 velocity=0 time=0
EXTRACT: note_on channel=5 note=93 velocity=70 time=0.03
EXTRACT: note_on channel=5 note=81 velocity=80 time=0
EXTRACT: note_on channel=9 note=42 velocity=127 time=0
EXTRACT: note_on channel=0 note=45 velocity=0 time=0.06
EXTRACT: note_on channel=3 note=69 velocity=0 time=0.03
EXTRACT: note_on channel=9 note=35 velocity=0 time=0
EXTRACT: note_on channel=0 note=45 velocity=100 time=0.06
EXTRACT: note_on channel=1 note=45 velocity=100 time=0
EXTRACT: note_on channel=3 note=69 velocity=64 time=0
EXTRACT: note_on channel=4 note=45 velocity=100 time=0
EXTRACT: note_on channel=9 note=35 velocity=127 time=0
EXTRACT: note_on channel=9 note=42 velocity=50 time=0
EXTRACT: note_on channel=5 note=93 velocity=0 time=0.09
EXTRACT: note_on channel=5 note=81 velocity=0 time=0
EXTRACT: note_on channel=9 note=42 velocity=0 time=0
EXTRACT: note_on channel=3 note=69 velocity=0 time=0.03
EXTRACT: note_on channel=9 note=42 velocity=0 time=0
EXTRACT: note_on channel=0 note=57 velocity=100 time=0.03
EXTRACT: note_on channel=0 note=61 velocity=100 time=0
EXTRACT: note_on channel=0 note=64 velocity=100 time=0
EXTRACT: note_on channel=2 note=66 velocity=127 time=0
EXTRACT: note_on channel=9 note=35 velocity=127 time=0
EXTRACT: note_on channel=9 note=42 velocity=127 time=0
EXTRACT: note_on channel=0 note=45 velocity=0 time=0.09
EXTRACT: note_on channel=1 note=45 velocity=0 time=0
EXTRACT: note_on channel=4 note=45 velocity=0 time=0
EXTRACT: note_on channel=9 note=35 velocity=0 time=0
EXTRACT: note_on channel=3 note=69 velocity=64 time=0.06
EXTRACT: note_on channel=9 note=42 velocity=50 time=0
EXTRACT: note_on channel=0 note=57 velocity=0 time=0.09
EXTRACT: note_on channel=0 note=61 velocity=0 time=0
EXTRACT: note_on channel=0 note=64 velocity=0 time=0
EXTRACT: note_on channel=2 note=66 velocity=0 time=0
EXTRACT: note_on channel=9 note=35 velocity=0 time=0
EXTRACT: note_on channel=9 note=42 velocity=0 time=0
EXTRACT: note_on channel=9 note=42 velocity=0 time=0.03
EXTRACT: note_on channel=0 note=45 velocity=100 time=0.03
EXTRACT: note_on channel=1 note=45 velocity=100 time=0
EXTRACT: note_on channel=2 note=69 velocity=127 time=0
EXTRACT: note_on channel=3 note=69 velocity=64 time=0
EXTRACT: note_on channel=4 note=45 velocity=100 time=0
EXTRACT: note_on channel=5 note=93 velocity=70 time=0
EXTRACT: note_on channel=5 note=81 velocity=80 time=0
EXTRACT: note_on channel=9 note=38 velocity=127 time=0
EXTRACT: note_on channel=9 note=42 velocity=127 time=0
EXTRACT: note_on channel=3 note=69 velocity=0 time=0.09
EXTRACT: note_on channel=0 note=57 velocity=100 time=0.06
EXTRACT: note_on channel=0 note=61 velocity=100 time=0
EXTRACT: note_on channel=0 note=64 velocity=100 time=0
EXTRACT: note_on channel=9 note=42 velocity=50 time=0
EXTRACT: note_on channel=2 note=69 velocity=0 time=0.09
EXTRACT: note_on channel=3 note=69 velocity=0 time=0
EXTRACT: note_on channel=5 note=93 velocity=0 time=0
EXTRACT: note_on channel=5 note=81 velocity=0 time=0
EXTRACT: note_on channel=9 note=38 velocity=0 time=0
EXTRACT: note_on channel=9 note=42 velocity=0 time=0
EXTRACT: note_on channel=9 note=42 velocity=0 time=0.03
EXTRACT: note_on channel=2 note=69 velocity=127 time=0.03
EXTRACT: note_on channel=9 note=42 velocity=127 time=0
EXTRACT: note_on channel=0 note=57 velocity=0 time=0.09
EXTRACT: note_on channel=0 note=61 velocity=0 time=0
EXTRACT: note_on channel=0 note=64 velocity=0 time=0
EXTRACT: note_on channel=9 note=42 velocity=50 time=0.06
EXTRACT: note_on channel=0 note=45 velocity=0 time=0.03
EXTRACT: note_on channel=1 note=45 velocity=0 time=0
EXTRACT: note_on channel=4 note=45 velocity=0 time=0
EXTRACT: note_on channel=2 note=69 velocity=0 time=0.06
EXTRACT: note_on channel=9 note=42 velocity=0 time=0
EXTRACT: note_on channel=9 note=42 velocity=0 time=0.03
EXTRACT: note_on channel=0 note=42 velocity=100 time=0.03
EXTRACT: note_on channel=1 note=42 velocity=100 time=0
EXTRACT: note_on channel=2 note=76 velocity=127 time=0
EXTRACT: note_on channel=4 note=42 velocity=100 time=0
EXTRACT: note_on channel=5 note=93 velocity=70 time=0
EXTRACT: note_on channel=5 note=81 velocity=80 time=0
EXTRACT: note_on channel=9 note=35 velocity=127 time=0
EXTRACT: note_on channel=9 note=42 velocity=127 time=0
EXTRACT: note_on channel=9 note=42 velocity=0 time=0.12
EXTRACT: note_on channel=9 note=42 velocity=50 time=0.03
EXTRACT: note_on channel=0 note=42 velocity=0 time=0.09
EXTRACT: note_on channel=1 note=42 velocity=0 time=0
EXTRACT: note_on channel=2 note=76 velocity=0 time=0
EXTRACT: note_on channel=4 note=42 velocity=0 time=0
EXTRACT: note_on channel=5 note=93 velocity=0 time=0
EXTRACT: note_on channel=5 note=81 velocity=0 time=0
EXTRACT: note_on channel=9 note=35 velocity=0 time=0
EXTRACT: note_on channel=9 note=42 velocity=0 time=0.03
EXTRACT: note_on channel=0 note=42 velocity=100 time=0.03
EXTRACT: note_on channel=1 note=42 velocity=100 time=0
EXTRACT: note_on channel=3 note=69 velocity=64 time=0
EXTRACT: note_on channel=4 note=42 velocity=100 time=0
EXTRACT: note_on channel=9 note=42 velocity=127 time=0
EXTRACT: note_on channel=3 note=69 velocity=0 time=0.12
EXTRACT: note_on channel=3 note=69 velocity=64 time=0.03
EXTRACT: note_on channel=9 note=42 velocity=50 time=0
EXTRACT: note_on channel=9 note=42 velocity=0 time=0.09
EXTRACT: note_on channel=3 note=69 velocity=0 time=0.03
EXTRACT: note_on channel=9 note=42 velocity=0 time=0
EXTRACT: note_on channel=0 note=57 velocity=100 time=0.03
EXTRACT: note_on channel=0 note=62 velocity=100 time=0
EXTRACT: note_on channel=0 note=66 velocity=100 time=0
EXTRACT: note_on channel=2 note=74 velocity=127 time=0
EXTRACT: note_on channel=3 note=69 velocity=64 time=0
EXTRACT: note_on channel=5 note=93 velocity=70 time=0
EXTRACT: note_on channel=5 note=81 velocity=80 time=0
EXTRACT: note_on channel=9 note=38 velocity=127 time=0
EXTRACT: note_on channel=9 note=42 velocity=127 time=0
EXTRACT: note_on channel=9 note=42 velocity=50 time=0.15
EXTRACT: note_on channel=0 note=42 velocity=0 time=0.03
EXTRACT: note_on channel=1 note=42 velocity=0 time=0
EXTRACT: note_on channel=4 note=42 velocity=0 time=0
EXTRACT: note_on channel=0 note=57 velocity=0 time=0.06
EXTRACT: note_on channel=0 note=62 velocity=0 time=0
EXTRACT: note_on channel=0 note=66 velocity=0 time=0
EXTRACT: note_on channel=2 note=74 velocity=0 time=0
EXTRACT: note_on channel=3 note=69 velocity=0 time=0
EXTRACT: note_on channel=5 note=93 velocity=0 time=0
EXTRACT: note_on channel=5 note=81 velocity=0 time=0
EXTRACT: note_on channel=9 note=38 velocity=0 time=0
EXTRACT: note_on channel=9 note=42 velocity=0 time=0
EXTRACT: note_on channel=9 note=42 velocity=0 time=0.03
EXTRACT: note_on channel=0 note=57 velocity=100 time=0.03
EXTRACT: note_on channel=3 note=69 velocity=64 time=0
EXTRACT: note_on channel=9 note=42 velocity=127 time=0
EXTRACT: note_on channel=3 note=69 velocity=0 time=0.12
EXTRACT: note_on channel=0 note=67 velocity=100 time=0.03
EXTRACT: note_on channel=0 note=59 velocity=100 time=0
EXTRACT: note_on channel=0 note=62 velocity=100 time=0
EXTRACT: note_on channel=3 note=69 velocity=64 time=0
EXTRACT: note_on channel=9 note=35 velocity=127 time=0
EXTRACT: note_on channel=9 note=42 velocity=50 time=0
EXTRACT: note_on channel=0 note=57 velocity=0 time=0.09
EXTRACT: note_on channel=9 note=42 velocity=0 time=0
EXTRACT: note_on channel=0 note=67 velocity=0 time=0.03
EXTRACT: note_on channel=0 note=59 velocity=0 time=0
EXTRACT: note_on channel=0 note=62 velocity=0 time=0
EXTRACT: note_on channel=9 note=42 velocity=0 time=0
EXTRACT: note_on channel=2 note=57 velocity=100 time=0.03
EXTRACT: note_on channel=2 note=66 velocity=100 time=0
EXTRACT: note_on channel=2 note=69 velocity=127 time=0
EXTRACT: note_on channel=5 note=93 velocity=70 time=0
EXTRACT: note_on channel=5 note=81 velocity=80 time=0
EXTRACT: note_on channel=9 note=42 velocity=127 time=0
EXTRACT: note_on channel=3 note=69 velocity=0 time=0.09
EXTRACT: note_on channel=9 note=35 velocity=0 time=0
EXTRACT: note_on channel=0 note=43 velocity=100 time=0.06
EXTRACT: note_on channel=1 note=43 velocity=100 time=0
EXTRACT: note_on channel=3 note=69 velocity=64 time=0
EXTRACT: note_on channel=4 note=43 velocity=100 time=0
EXTRACT: note_on channel=9 note=35 velocity=127 time=0
EXTRACT: note_on channel=9 note=42 velocity=50 time=0
EXTRACT: note_on channel=2 note=57 velocity=0 time=0.09
EXTRACT: note_on channel=2 note=66 velocity=0 time=0
EXTRACT: note_on channel=2 note=69 velocity=0 time=0
EXTRACT: note_on channel=5 note=93 velocity=0 time=0
EXTRACT: note_on channel=5 note=81 velocity=0 time=0
EXTRACT: note_on channel=9 note=42 velocity=0 time=0
EXTRACT: note_on channel=3 note=69 velocity=0 time=0.03
EXTRACT: note_on channel=9 note=42 velocity=0 time=0
EXTRACT: note_on channel=0 note=67 velocity=100 time=0.03
EXTRACT: note_on channel=0 note=59 velocity=100 time=0
EXTRACT: note_on channel=0 note=62 velocity=100 time=0
EXTRACT: note_on channel=2 note=57 velocity=100 time=0
EXTRACT: note_on channel=2 note=66 velocity=100 time=0
EXTRACT: note_on channel=2 note=69 velocity=127 time=0
EXTRACT: note_on channel=9 note=35 velocity=127 time=0
EXTRACT: note_on channel=9 note=42 velocity=127 time=0
EXTRACT: note_on channel=0 note=43 velocity=0 time=0.09
EXTRACT: note_on channel=1 note=43 velocity=0 time=0
EXTRACT: note_on channel=4 note=43 velocity=0 time=0
EXTRACT: note_on channel=9 note=35 velocity=0 time=0
EXTRACT: note_on channel=3 note=69 velocity=64 time=0.06
EXTRACT: note_on channel=9 note=42 velocity=50 time=0
EXTRACT: note_on channel=0 note=67 velocity=0 time=0.09
EXTRACT: note_on channel=0 note=59 velocity=0 time=0
EXTRACT: note_on channel=0 note=62 velocity=0 time=0
EXTRACT: note_on channel=2 note=57 velocity=0 time=0
EXTRACT: note_on channel=2 note=66 velocity=0 time=0
EXTRACT: note_on channel=2 note=69 velocity=0 time=0
EXTRACT: note_on channel=9 note=35 velocity=0 time=0
EXTRACT: note_on channel=9 note=42 velocity=0 time=0
EXTRACT: note_on channel=9 note=42 velocity=0 time=0.03
EXTRACT: note_on channel=0 note=43 velocity=100 time=0.03
EXTRACT: note_on channel=1 note=43 velocity=100 time=0
EXTRACT: note_on channel=2 note=57 velocity=100 time=0
EXTRACT: note_on channel=2 note=66 velocity=100 time=0
EXTRACT: note_on channel=2 note=69 velocity=127 time=0
EXTRACT: note_on channel=3 note=69 velocity=64 time=0
EXTRACT: note_on channel=4 note=43 velocity=100 time=0
EXTRACT: note_on channel=5 note=93 velocity=70 time=0
EXTRACT: note_on channel=5 note=81 velocity=80 time=0
EXTRACT: note_on channel=9 note=38 velocity=127 time=0
EXTRACT: note_on channel=9 note=42 velocity=127 time=0
EXTRACT: note_on channel=3 note=69 velocity=0 time=0.09
EXTRACT: note_on channel=0 note=67 velocity=100 time=0.06
EXTRACT: note_on channel=0 note=59 velocity=100 time=0
EXTRACT: note_on channel=0 note=62 velocity=100 time=0
EXTRACT: note_on channel=9 note=42 velocity=50 time=0
EXTRACT: note_on channel=2 note=57 velocity=0 time=0.09
EXTRACT: note_on channel=2 note=66 velocity=0 time=0
EXTRACT: note_on channel=2 note=69 velocity=0 time=0
EXTRACT: note_on channel=3 note=69 velocity=0 time=0
EXTRACT: note_on channel=5 note=93 velocity=0 time=0
EXTRACT: note_on channel=5 note=81 velocity=0 time=0
EXTRACT: note_on channel=9 note=38 velocity=0 time=0
EXTRACT: note_on channel=9 note=42 velocity=0 time=0
EXTRACT: note_on channel=9 note=42 velocity=0 time=0.03
EXTRACT: note_on channel=2 note=54 velocity=100 time=0.03
EXTRACT: note_on channel=2 note=62 velocity=100 time=0
EXTRACT: note_on channel=2 note=66 velocity=127 time=0
EXTRACT: note_on channel=9 note=42 velocity=127 time=0
EXTRACT: note_on channel=0 note=67 velocity=0 time=0.09
EXTRACT: note_on channel=0 note=59 velocity=0 time=0
EXTRACT: note_on channel=0 note=62 velocity=0 time=0
EXTRACT: note_on channel=9 note=42 velocity=50 time=0.06
EXTRACT: note_on channel=0 note=43 velocity=0 time=0.03
EXTRACT: note_on channel=1 note=43 velocity=0 time=0
EXTRACT: note_on channel=4 note=43 velocity=0 time=0
EXTRACT: note_on channel=2 note=54 velocity=0 time=0.06
EXTRACT: note_on channel=2 note=62 velocity=0 time=0
EXTRACT: note_on channel=2 note=66 velocity=0 time=0
EXTRACT: note_on channel=9 note=42 velocity=0 time=0
EXTRACT: note_on channel=9 note=42 velocity=0 time=0.03
EXTRACT: note_on channel=0 note=45 velocity=100 time=0.03
EXTRACT: note_on channel=1 note=45 velocity=100 time=0
EXTRACT: note_on channel=2 note=66 velocity=100 time=0
EXTRACT: note_on channel=2 note=57 velocity=100 time=0
EXTRACT: note_on channel=2 note=69 velocity=127 time=0
EXTRACT: note_on channel=4 note=45 velocity=100 time=0
EXTRACT: note_on channel=5 note=93 velocity=70 time=0
EXTRACT: note_on channel=5 note=81 velocity=80 time=0
EXTRACT: note_on channel=9 note=35 velocity=127 time=0
EXTRACT: note_on channel=9 note=42 velocity=127 time=0
EXTRACT: note_on channel=9 note=35 velocity=127 time=0
EXTRACT: note_on channel=9 note=42 velocity=127 time=0
EXTRACT: note_on channel=9 note=42 velocity=0 time=0.12
EXTRACT: note_on channel=9 note=42 velocity=0 time=0
EXTRACT: note_on channel=9 note=42 velocity=50 time=0.03
EXTRACT: note_on channel=9 note=42 velocity=50 time=0
EXTRACT: note_on channel=0 note=45 velocity=0 time=0.09
EXTRACT: note_on channel=1 note=45 velocity=0 time=0
EXTRACT: note_on channel=2 note=66 velocity=0 time=0
EXTRACT: note_on channel=2 note=57 velocity=0 time=0
EXTRACT: note_on channel=2 note=69 velocity=0 time=0
EXTRACT: note_on channel=4 note=45 velocity=0 time=0
EXTRACT: note_on channel=5 note=93 velocity=0 time=0
EXTRACT: note_on channel=5 note=81 velocity=0 time=0
EXTRACT: note_on channel=9 note=35 velocity=0 time=0
EXTRACT: note_on channel=9 note=35 velocity=0 time=0
EXTRACT: note_on channel=9 note=42 velocity=0 time=0.03
EXTRACT: note_on channel=9 note=42 velocity=0 time=0
EXTRACT: note_on channel=0 note=45 velocity=100 time=0.03
EXTRACT: note_on channel=1 note=45 velocity=100 time=0
EXTRACT: note_on channel=2 note=62 velocity=100 time=0
EXTRACT: note_on channel=2 note=54 velocity=100 time=0
EXTRACT: note_on channel=2 note=66 velocity=127 time=0
EXTRACT: note_on channel=3 note=69 velocity=64 time=0
EXTRACT: note_on channel=4 note=45 velocity=100 time=0
EXTRACT: note_on channel=9 note=42 velocity=127 time=0
EXTRACT: note_on channel=9 note=42 velocity=127 time=0
EXTRACT: note_on channel=3 note=69 velocity=0 time=0.12
EXTRACT: note_on channel=3 note=69 velocity=64 time=0.03
EXTRACT: note_on channel=9 note=42 velocity=50 time=0
EXTRACT: note_on channel=9 note=42 velocity=50 time=0
EXTRACT: note_on channel=2 note=62 velocity=0 time=0.09
EXTRACT: note_on channel=2 note=54 velocity=0 time=0
EXTRACT: note_on channel=2 note=66 velocity=0 time=0
EXTRACT: note_on channel=9 note=42 velocity=0 time=0
EXTRACT: note_on channel=9 note=42 velocity=0 time=0
EXTRACT: note_on channel=3 note=69 velocity=0 time=0.03
EXTRACT: note_on channel=9 note=42 velocity=0 time=0
EXTRACT: note_on channel=9 note=42 velocity=0 time=0
EXTRACT: note_on channel=0 note=57 velocity=100 time=0.03
EXTRACT: note_on channel=0 note=62 velocity=100 time=0
EXTRACT: note_on channel=0 note=66 velocity=100 time=0
EXTRACT: note_on channel=3 note=69 velocity=64 time=0
EXTRACT: note_on channel=5 note=93 velocity=70 time=0
EXTRACT: note_on channel=5 note=81 velocity=80 time=0
EXTRACT: note_on channel=9 note=38 velocity=127 time=0
EXTRACT: note_on channel=9 note=42 velocity=127 time=0
EXTRACT: note_on channel=9 note=38 velocity=127 time=0
EXTRACT: note_on channel=9 note=42 velocity=127 time=0
EXTRACT: note_on channel=9 note=42 velocity=50 time=0.15
EXTRACT: note_on channel=9 note=42 velocity=50 time=0
EXTRACT: note_on channel=1 note=45 velocity=0 time=0.03
EXTRACT: note_on channel=4 note=45 velocity=0 time=0
EXTRACT: note_on channel=0 note=57 velocity=0 time=0.06
EXTRACT: note_on channel=0 note=62 velocity=0 time=0
EXTRACT: note_on channel=0 note=66 velocity=0 time=0
EXTRACT: note_on channel=3 note=69 velocity=0 time=0
EXTRACT: note_on channel=5 note=93 velocity=0 time=0
EXTRACT: note_on channel=5 note=81 velocity=0 time=0
EXTRACT: note_on channel=9 note=38 velocity=0 time=0
EXTRACT: note_on channel=9 note=42 velocity=0 time=0
EXTRACT: note_on channel=9 note=38 velocity=0 time=0
EXTRACT: note_on channel=9 note=42 velocity=0 time=0
EXTRACT: note_on channel=9 note=42 velocity=0 time=0.03
EXTRACT: note_on channel=9 note=42 velocity=0 time=0
EXTRACT: note_on channel=0 note=57 velocity=100 time=0.03
EXTRACT: note_on channel=3 note=69 velocity=64 time=0
EXTRACT: note_on channel=9 note=42 velocity=127 time=0
EXTRACT: note_on channel=9 note=42 velocity=127 time=0
EXTRACT: note_on channel=3 note=69 velocity=0 time=0.12
EXTRACT: note_on channel=0 note=57 velocity=100 time=0.03
EXTRACT: note_on channel=0 note=61 velocity=100 time=0
EXTRACT: note_on channel=0 note=64 velocity=100 time=0
EXTRACT: note_on channel=3 note=69 velocity=64 time=0
EXTRACT: note_on channel=9 note=35 velocity=127 time=0
EXTRACT: note_on channel=9 note=42 velocity=50 time=0
EXTRACT: note_on channel=9 note=35 velocity=127 time=0
EXTRACT: note_on channel=9 note=42 velocity=50 time=0
EXTRACT: note_on channel=0 note=57 velocity=0 time=0.09
EXTRACT: note_on channel=9 note=42 velocity=0 time=0
EXTRACT: note_on channel=9 note=42 velocity=0 time=0
EXTRACT: note_on channel=0 note=57 velocity=0 time=0.03
EXTRACT: note_on channel=0 note=61 velocity=0 time=0
EXTRACT: note_on channel=0 note=64 velocity=0 time=0
EXTRACT: note_on channel=9 note=42 velocity=0 time=0
EXTRACT: note_on channel=9 note=42 velocity=0 time=0
EXTRACT: note_on channel=5 note=93 velocity=70 time=0.03
EXTRACT: note_on channel=5 note=81 velocity=80 time=0
EXTRACT: note_on channel=9 note=42 velocity=127 time=0
EXTRACT: note_on channel=9 note=42 velocity=127 time=0
EXTRACT: note_on channel=0 note=45 velocity=0 time=0.06
EXTRACT: note_on channel=3 note=69 velocity=0 time=0.03
EXTRACT: note_on channel=9 note=35 velocity=0 time=0
EXTRACT: note_on channel=9 note=35 velocity=0 time=0
EXTRACT: note_on channel=0 note=45 velocity=100 time=0.06
EXTRACT: note_on channel=1 note=45 velocity=100 time=0
EXTRACT: note_on channel=3 note=69 velocity=64 time=0
EXTRACT: note_on channel=4 note=45 velocity=100 time=0
EXTRACT: note_on channel=9 note=35 velocity=127 time=0
EXTRACT: note_on channel=9 note=42 velocity=50 time=0
EXTRACT: note_on channel=9 note=35 velocity=127 time=0
EXTRACT: note_on channel=9 note=42 velocity=50 time=0
EXTRACT: note_on channel=5 note=93 velocity=0 time=0.09
EXTRACT: note_on channel=5 note=81 velocity=0 time=0
EXTRACT: note_on channel=9 note=42 velocity=0 time=0
EXTRACT: note_on channel=9 note=42 velocity=0 time=0
EXTRACT: note_on channel=3 note=69 velocity=0 time=0.03
EXTRACT: note_on channel=9 note=42 velocity=0 time=0
EXTRACT: note_on channel=9 note=42 velocity=0 time=0
EXTRACT: note_on channel=0 note=57 velocity=100 time=0.03
EXTRACT: note_on channel=0 note=61 velocity=100 time=0
EXTRACT: note_on channel=0 note=64 velocity=100 time=0
EXTRACT: note_on channel=2 note=66 velocity=127 time=0
EXTRACT: note_on channel=9 note=35 velocity=127 time=0
EXTRACT: note_on channel=9 note=42 velocity=127 time=0
EXTRACT: note_on channel=9 note=35 velocity=127 time=0
EXTRACT: note_on channel=9 note=42 velocity=127 time=0
EXTRACT: note_on channel=0 note=45 velocity=0 time=0.09
EXTRACT: note_on channel=1 note=45 velocity=0 time=0
EXTRACT: note_on channel=4 note=45 velocity=0 time=0
EXTRACT: note_on channel=9 note=35 velocity=0 time=0
EXTRACT: note_on channel=9 note=35 velocity=0 time=0
EXTRACT: note_on channel=3 note=69 velocity=64 time=0.06
EXTRACT: note_on channel=9 note=42 velocity=50 time=0
EXTRACT: note_on channel=9 note=42 velocity=50 time=0
EXTRACT: note_on channel=0 note=57 velocity=0 time=0.09
EXTRACT: note_on channel=0 note=61 velocity=0 time=0
EXTRACT: note_on channel=0 note=64 velocity=0 time=0
EXTRACT: note_on channel=2 note=66 velocity=0 time=0
EXTRACT: note_on channel=9 note=35 velocity=0 time=0
EXTRACT: note_on channel=9 note=42 velocity=0 time=0
EXTRACT: note_on channel=9 note=35 velocity=0 time=0
EXTRACT: note_on channel=9 note=42 velocity=0 time=0
EXTRACT: note_on channel=9 note=42 velocity=0 time=0.03
EXTRACT: note_on channel=9 note=42 velocity=0 time=0
EXTRACT: note_on channel=0 note=45 velocity=100 time=0.03
EXTRACT: note_on channel=1 note=45 velocity=100 time=0
EXTRACT: note_on channel=2 note=66 velocity=127 time=0
EXTRACT: note_on channel=3 note=69 velocity=64 time=0
EXTRACT: note_on channel=4 note=45 velocity=100 time=0
EXTRACT: note_on channel=5 note=93 velocity=70 time=0
EXTRACT: note_on channel=5 note=81 velocity=80 time=0
EXTRACT: note_on channel=9 note=38 velocity=127 time=0
EXTRACT: note_on channel=9 note=42 velocity=127 time=0
EXTRACT: note_on channel=9 note=38 velocity=127 time=0
EXTRACT: note_on channel=9 note=42 velocity=127 time=0
EXTRACT: note_on channel=3 note=69 velocity=0 time=0.09
EXTRACT: note_on channel=0 note=57 velocity=100 time=0.06
EXTRACT: note_on channel=0 note=61 velocity=100 time=0
EXTRACT: note_on channel=0 note=64 velocity=100 time=0
EXTRACT: note_on channel=9 note=42 velocity=50 time=0
EXTRACT: note_on channel=9 note=42 velocity=50 time=0
EXTRACT: note_on channel=2 note=66 velocity=0 time=0.09
EXTRACT: note_on channel=3 note=69 velocity=0 time=0
EXTRACT: note_on channel=5 note=93 velocity=0 time=0
EXTRACT: note_on channel=5 note=81 velocity=0 time=0
EXTRACT: note_on channel=9 note=38 velocity=0 time=0
EXTRACT: note_on channel=9 note=42 velocity=0 time=0
EXTRACT: note_on channel=9 note=38 velocity=0 time=0
EXTRACT: note_on channel=9 note=42 velocity=0 time=0
EXTRACT: note_on channel=9 note=42 velocity=0 time=0.03
EXTRACT: note_on channel=9 note=42 velocity=0 time=0
EXTRACT: note_on channel=2 note=66 velocity=127 time=0.03
EXTRACT: note_on channel=9 note=42 velocity=127 time=0
EXTRACT: note_on channel=9 note=42 velocity=127 time=0
EXTRACT: note_on channel=0 note=57 velocity=0 time=0.09
EXTRACT: note_on channel=0 note=61 velocity=0 time=0
EXTRACT: note_on channel=0 note=64 velocity=0 time=0
EXTRACT: note_on channel=9 note=42 velocity=50 time=0.06
EXTRACT: note_on channel=9 note=42 velocity=50 time=0
EXTRACT: note_on channel=0 note=45 velocity=0 time=0.03
EXTRACT: note_on channel=1 note=45 velocity=0 time=0
EXTRACT: note_on channel=4 note=45 velocity=0 time=0
EXTRACT: note_on channel=2 note=66 velocity=0 time=0.06
EXTRACT: note_on channel=9 note=42 velocity=0 time=0
EXTRACT: note_on channel=9 note=42 velocity=0 time=0
EXTRACT: note_on channel=9 note=42 velocity=0 time=0.03
EXTRACT: note_on channel=9 note=42 velocity=0 time=0
EXTRACT: note_on channel=0 note=42 velocity=100 time=0.03
EXTRACT: note_on channel=1 note=42 velocity=100 time=0
EXTRACT: note_on channel=2 note=66 velocity=127 time=0
EXTRACT: note_on channel=4 note=42 velocity=100 time=0
EXTRACT: note_on channel=5 note=93 velocity=70 time=0
EXTRACT: note_on channel=5 note=81 velocity=80 time=0
EXTRACT: note_on channel=9 note=35 velocity=127 time=0
EXTRACT: note_on channel=9 note=42 velocity=127 time=0
EXTRACT: note_on channel=9 note=42 velocity=0 time=0.12
EXTRACT: note_on channel=9 note=42 velocity=50 time=0.03
EXTRACT: note_on channel=0 note=42 velocity=0 time=0.09
EXTRACT: note_on channel=1 note=42 velocity=0 time=0
EXTRACT: note_on channel=2 note=66 velocity=0 time=0
EXTRACT: note_on channel=4 note=42 velocity=0 time=0
EXTRACT: note_on channel=5 note=93 velocity=0 time=0
EXTRACT: note_on channel=5 note=81 velocity=0 time=0
EXTRACT: note_on channel=9 note=35 velocity=0 time=0
EXTRACT: note_on channel=9 note=42 velocity=0 time=0.03
EXTRACT: note_on channel=0 note=42 velocity=100 time=0.03
EXTRACT: note_on channel=1 note=42 velocity=100 time=0
EXTRACT: note_on channel=2 note=66 velocity=127 time=0
EXTRACT: note_on channel=3 note=69 velocity=64 time=0
EXTRACT: note_on channel=4 note=42 velocity=100 time=0
EXTRACT: note_on channel=9 note=42 velocity=127 time=0
EXTRACT: note_on channel=3 note=69 velocity=0 time=0.12
EXTRACT: note_on channel=3 note=69 velocity=64 time=0.03
EXTRACT: note_on channel=9 note=42 velocity=50 time=0
EXTRACT: note_on channel=2 note=66 velocity=0 time=0.09
EXTRACT: note_on channel=9 note=42 velocity=0 time=0
EXTRACT: note_on channel=3 note=69 velocity=0 time=0.03
EXTRACT: note_on channel=9 note=42 velocity=0 time=0
EXTRACT: note_on channel=0 note=57 velocity=100 time=0.03
EXTRACT: note_on channel=0 note=62 velocity=100 time=0
EXTRACT: note_on channel=0 note=66 velocity=100 time=0
EXTRACT: note_on channel=2 note=64 velocity=127 time=0
EXTRACT: note_on channel=3 note=69 velocity=64 time=0
EXTRACT: note_on channel=5 note=93 velocity=70 time=0
EXTRACT: note_on channel=5 note=81 velocity=80 time=0
EXTRACT: note_on channel=9 note=38 velocity=127 time=0
EXTRACT: note_on channel=9 note=42 velocity=127 time=0
EXTRACT: note_on channel=9 note=42 velocity=50 time=0.15
EXTRACT: note_on channel=0 note=42 velocity=0 time=0.03
EXTRACT: note_on channel=1 note=42 velocity=0 time=0
EXTRACT: note_on channel=4 note=42 velocity=0 time=0
EXTRACT: note_on channel=0 note=57 velocity=0 time=0.06
EXTRACT: note_on channel=0 note=62 velocity=0 time=0
EXTRACT: note_on channel=0 note=66 velocity=0 time=0
EXTRACT: note_on channel=2 note=64 velocity=0 time=0
EXTRACT: note_on channel=3 note=69 velocity=0 time=0
EXTRACT: note_on channel=5 note=93 velocity=0 time=0
EXTRACT: note_on channel=5 note=81 velocity=0 time=0
EXTRACT: note_on channel=9 note=38 velocity=0 time=0
EXTRACT: note_on channel=9 note=42 velocity=0 time=0
EXTRACT: note_on channel=9 note=42 velocity=0 time=0.03
EXTRACT: note_on channel=0 note=57 velocity=100 time=0.03
EXTRACT: note_on channel=2 note=62 velocity=127 time=0
EXTRACT: note_on channel=3 note=69 velocity=64 time=0
EXTRACT: note_on channel=9 note=42 velocity=127 time=0
EXTRACT: note_on channel=2 note=62 velocity=0 time=0.12
EXTRACT: note_on channel=3 note=69 velocity=0 time=0
EXTRACT: note_on channel=0 note=67 velocity=100 time=0.03
EXTRACT: note_on channel=0 note=59 velocity=100 time=0
EXTRACT: note_on channel=0 note=62 velocity=100 time=0
EXTRACT: note_on channel=2 note=60 velocity=127 time=0
EXTRACT: note_on channel=3 note=69 velocity=64 time=0
EXTRACT: note_on channel=9 note=35 velocity=127 time=0
EXTRACT: note_on channel=9 note=42 velocity=50 time=0
EXTRACT: note_on channel=0 note=57 velocity=0 time=0.09
EXTRACT: note_on channel=9 note=42 velocity=0 time=0
EXTRACT: note_on channel=0 note=67 velocity=0 time=0.03
EXTRACT: note_on channel=0 note=59 velocity=0 time=0
EXTRACT: note_on channel=0 note=62 velocity=0 time=0
EXTRACT: note_on channel=9 note=42 velocity=0 time=0
EXTRACT: note_on channel=5 note=93 velocity=70 time=0.03
EXTRACT: note_on channel=5 note=81 velocity=80 time=0
EXTRACT: note_on channel=9 note=42 velocity=127 time=0
EXTRACT: note_on channel=2 note=60 velocity=0 time=0.09
EXTRACT: note_on channel=3 note=69 velocity=0 time=0
EXTRACT: note_on channel=9 note=35 velocity=0 time=0
EXTRACT: note_on channel=0 note=43 velocity=100 time=0.06
EXTRACT: note_on channel=1 note=43 velocity=100 time=0
EXTRACT: note_on channel=3 note=69 velocity=64 time=0
EXTRACT: note_on channel=4 note=43 velocity=100 time=0
EXTRACT: note_on channel=9 note=35 velocity=127 time=0
EXTRACT: note_on channel=9 note=42 velocity=50 time=0
EXTRACT: note_on channel=5 note=93 velocity=0 time=0.09
EXTRACT: note_on channel=5 note=81 velocity=0 time=0
EXTRACT: note_on channel=9 note=42 velocity=0 time=0
EXTRACT: note_on channel=3 note=69 velocity=0 time=0.03
EXTRACT: note_on channel=9 note=42 velocity=0 time=0
EXTRACT: note_on channel=0 note=67 velocity=100 time=0.03
EXTRACT: note_on channel=0 note=59 velocity=100 time=0
EXTRACT: note_on channel=0 note=62 velocity=100 time=0
EXTRACT: note_on channel=2 note=54 velocity=100 time=0
EXTRACT: note_on channel=2 note=62 velocity=100 time=0
EXTRACT: note_on channel=2 note=66 velocity=127 time=0
EXTRACT: note_on channel=9 note=35 velocity=127 time=0
EXTRACT: note_on channel=9 note=42 velocity=127 time=0
EXTRACT: note_on channel=0 note=43 velocity=0 time=0.09
EXTRACT: note_on channel=1 note=43 velocity=0 time=0
EXTRACT: note_on channel=4 note=43 velocity=0 time=0
EXTRACT: note_on channel=9 note=35 velocity=0 time=0
EXTRACT: note_on channel=3 note=69 velocity=64 time=0.06
EXTRACT: note_on channel=9 note=42 velocity=50 time=0
EXTRACT: note_on channel=0 note=67 velocity=0 time=0.09
EXTRACT: note_on channel=0 note=59 velocity=0 time=0
EXTRACT: note_on channel=0 note=62 velocity=0 time=0
EXTRACT: note_on channel=2 note=54 velocity=0 time=0
EXTRACT: note_on channel=2 note=62 velocity=0 time=0
EXTRACT: note_on channel=2 note=66 velocity=0 time=0
EXTRACT: note_on channel=9 note=35 velocity=0 time=0
EXTRACT: note_on channel=9 note=42 velocity=0 time=0
EXTRACT: note_on channel=9 note=42 velocity=0 time=0.03
EXTRACT: note_on channel=0 note=43 velocity=100 time=0.03
EXTRACT: note_on channel=1 note=43 velocity=100 time=0
EXTRACT: note_on channel=2 note=57 velocity=100 time=0
EXTRACT: note_on channel=2 note=66 velocity=100 time=0
EXTRACT: note_on channel=2 note=69 velocity=127 time=0
EXTRACT: note_on channel=3 note=69 velocity=64 time=0
EXTRACT: note_on channel=4 note=43 velocity=100 time=0
EXTRACT: note_on channel=5 note=93 velocity=70 time=0
EXTRACT: note_on channel=5 note=81 velocity=80 time=0
EXTRACT: note_on channel=9 note=38 velocity=127 time=0
EXTRACT: note_on channel=9 note=42 velocity=127 time=0
EXTRACT: note_on channel=3 note=69 velocity=0 time=0.09
EXTRACT: note_on channel=0 note=67 velocity=100 time=0.06
EXTRACT: note_on channel=0 note=59 velocity=100 time=0
EXTRACT: note_on channel=0 note=62 velocity=100 time=0
EXTRACT: note_on channel=9 note=42 velocity=50 time=0
EXTRACT: note_on channel=2 note=57 velocity=0 time=0.09
EXTRACT: note_on channel=2 note=66 velocity=0 time=0
EXTRACT: note_on channel=2 note=69 velocity=0 time=0
EXTRACT: note_on channel=3 note=69 velocity=0 time=0
EXTRACT: note_on channel=5 note=93 velocity=0 time=0
EXTRACT: note_on channel=5 note=81 velocity=0 time=0
EXTRACT: note_on channel=9 note=38 velocity=0 time=0
EXTRACT: note_on channel=9 note=42 velocity=0 time=0
EXTRACT: note_on channel=9 note=42 velocity=0 time=0.03
EXTRACT: note_on channel=2 note=54 velocity=100 time=0.03
EXTRACT: note_on channel=2 note=62 velocity=100 time=0
EXTRACT: note_on channel=2 note=66 velocity=127 time=0
EXTRACT: note_on channel=9 note=42 velocity=127 time=0
EXTRACT: note_on channel=0 note=67 velocity=0 time=0.09
EXTRACT: note_on channel=0 note=59 velocity=0 time=0
EXTRACT: note_on channel=0 note=62 velocity=0 time=0
EXTRACT: note_on channel=9 note=42 velocity=50 time=0.06
EXTRACT: note_on channel=0 note=43 velocity=0 time=0.03
EXTRACT: note_on channel=1 note=43 velocity=0 time=0
EXTRACT: note_on channel=4 note=43 velocity=0 time=0
EXTRACT: note_on channel=2 note=54 velocity=0 time=0.06
EXTRACT: note_on channel=2 note=62 velocity=0 time=0
EXTRACT: note_on channel=2 note=66 velocity=0 time=0
EXTRACT: note_on channel=9 note=42 velocity=0 time=0
EXTRACT: note_on channel=9 note=42 velocity=0 time=0.03
EXTRACT: note_on channel=0 note=45 velocity=100 time=0.03
EXTRACT: note_on channel=1 note=45 velocity=100 time=0
EXTRACT: note_on channel=2 note=57 velocity=100 time=0
EXTRACT: note_on channel=2 note=66 velocity=100 time=0
EXTRACT: note_on channel=2 note=69 velocity=127 time=0
EXTRACT: note_on channel=4 note=45 velocity=100 time=0
EXTRACT: note_on channel=5 note=93 velocity=70 time=0
EXTRACT: note_on channel=5 note=81 velocity=80 time=0
EXTRACT: note_on channel=9 note=35 velocity=127 time=0
EXTRACT: note_on channel=9 note=42 velocity=127 time=0
EXTRACT: note_on channel=2 note=57 velocity=0 time=0.12
EXTRACT: note_on channel=2 note=66 velocity=0 time=0
EXTRACT: note_on channel=2 note=69 velocity=0 time=0
EXTRACT: note_on channel=9 note=42 velocity=0 time=0
EXTRACT: note_on channel=2 note=66 velocity=100 time=0.03
EXTRACT: note_on channel=2 note=57 velocity=100 time=0
EXTRACT: note_on channel=2 note=69 velocity=127 time=0
EXTRACT: note_on channel=9 note=42 velocity=50 time=0
EXTRACT: note_on channel=0 note=45 velocity=0 time=0.09
EXTRACT: note_on channel=1 note=45 velocity=0 time=0
EXTRACT: note_on channel=4 note=45 velocity=0 time=0
EXTRACT: note_on channel=5 note=93 velocity=0 time=0
EXTRACT: note_on channel=5 note=81 velocity=0 time=0
EXTRACT: note_on channel=9 note=35 velocity=0 time=0
EXTRACT: note_on channel=2 note=66 velocity=0 time=0.03
EXTRACT: note_on channel=2 note=57 velocity=0 time=0
EXTRACT: note_on channel=2 note=69 velocity=0 time=0
EXTRACT: note_on channel=9 note=42 velocity=0 time=0
EXTRACT: note_on channel=0 note=45 velocity=100 time=0.03
EXTRACT: note_on channel=1 note=45 velocity=100 time=0
EXTRACT: note_on channel=2 note=54 velocity=100 time=0
EXTRACT: note_on channel=2 note=62 velocity=100 time=0
EXTRACT: note_on channel=2 note=66 velocity=127 time=0
EXTRACT: note_on channel=3 note=69 velocity=64 time=0
EXTRACT: note_on channel=4 note=45 velocity=100 time=0
EXTRACT: note_on channel=9 note=42 velocity=127 time=0
EXTRACT: note_on channel=3 note=69 velocity=0 time=0.12
EXTRACT: note_on channel=3 note=69 velocity=64 time=0.03
EXTRACT: note_on channel=9 note=42 velocity=50 time=0
EXTRACT: note_on channel=2 note=54 velocity=0 time=0.09
EXTRACT: note_on channel=2 note=62 velocity=0 time=0
EXTRACT: note_on channel=2 note=66 velocity=0 time=0
EXTRACT: note_on channel=9 note=42 velocity=0 time=0
EXTRACT: note_on channel=3 note=69 velocity=0 time=0.03
EXTRACT: note_on channel=9 note=42 velocity=0 time=0
EXTRACT: note_on channel=0 note=57 velocity=100 time=0.03
EXTRACT: note_on channel=0 note=62 velocity=100 time=0
EXTRACT: note_on channel=0 note=66 velocity=100 time=0
EXTRACT: note_on channel=3 note=69 velocity=64 time=0
EXTRACT: note_on channel=5 note=93 velocity=70 time=0
EXTRACT: note_on channel=5 note=81 velocity=80 time=0
EXTRACT: note_on channel=9 note=38 velocity=127 time=0
EXTRACT: note_on channel=9 note=42 velocity=127 time=0
EXTRACT: note_on channel=9 note=42 velocity=50 time=0.15
EXTRACT: note_on channel=1 note=45 velocity=0 time=0.03
EXTRACT: note_on channel=4 note=45 velocity=0 time=0
EXTRACT: note_on channel=0 note=57 velocity=0 time=0.06
EXTRACT: note_on channel=0 note=62 velocity=0 time=0
EXTRACT: note_on channel=0 note=66 velocity=0 time=0
EXTRACT: note_on channel=3 note=69 velocity=0 time=0
EXTRACT: note_on channel=5 note=93 velocity=0 time=0
EXTRACT: note_on channel=5 note=81 velocity=0 time=0
EXTRACT: note_on channel=9 note=38 velocity=0 time=0
EXTRACT: note_on channel=9 note=42 velocity=0 time=0
EXTRACT: note_on channel=9 note=42 velocity=0 time=0.03
EXTRACT: note_on channel=0 note=57 velocity=100 time=0.03
EXTRACT: note_on channel=2 note=57 velocity=100 time=0
EXTRACT: note_on channel=2 note=66 velocity=100 time=0
EXTRACT: note_on channel=2 note=69 velocity=127 time=0
EXTRACT: note_on channel=3 note=69 velocity=64 time=0
EXTRACT: note_on channel=9 note=42 velocity=127 time=0
EXTRACT: note_on channel=3 note=69 velocity=0 time=0.12
EXTRACT: note_on channel=0 note=57 velocity=100 time=0.03
EXTRACT: note_on channel=0 note=61 velocity=100 time=0
EXTRACT: note_on channel=0 note=64 velocity=100 time=0
EXTRACT: note_on channel=3 note=69 velocity=64 time=0
EXTRACT: note_on channel=9 note=35 velocity=127 time=0
EXTRACT: note_on channel=9 note=42 velocity=50 time=0
EXTRACT: note_on channel=0 note=57 velocity=0 time=0.09
EXTRACT: note_on channel=2 note=57 velocity=0 time=0
EXTRACT: note_on channel=2 note=66 velocity=0 time=0
EXTRACT: note_on channel=2 note=69 velocity=0 time=0
EXTRACT: note_on channel=9 note=42 velocity=0 time=0
EXTRACT: note_on channel=0 note=57 velocity=0 time=0.03
EXTRACT: note_on channel=0 note=61 velocity=0 time=0
EXTRACT: note_on channel=0 note=64 velocity=0 time=0
EXTRACT: note_on channel=9 note=42 velocity=0 time=0
EXTRACT: note_on channel=2 note=62 velocity=100 time=0.03
EXTRACT: note_on channel=2 note=54 velocity=100 time=0
EXTRACT: note_on channel=2 note=66 velocity=127 time=0
EXTRACT: note_on channel=5 note=93 velocity=70 time=0
EXTRACT: note_on channel=5 note=81 velocity=80 time=0
EXTRACT: note_on channel=9 note=42 velocity=127 time=0
EXTRACT: note_on channel=0 note=45 velocity=0 time=0.06
EXTRACT: note_on channel=3 note=69 velocity=0 time=0.03
EXTRACT: note_on channel=9 note=35 velocity=0 time=0
EXTRACT: note_on channel=0 note=45 velocity=100 time=0.06
EXTRACT: note_on channel=1 note=45 velocity=100 time=0
EXTRACT: note_on channel=3 note=69 velocity=64 time=0
EXTRACT: note_on channel=4 note=45 velocity=100 time=0
EXTRACT: note_on channel=9 note=35 velocity=127 time=0
EXTRACT: note_on channel=9 note=42 velocity=50 time=0
EXTRACT: note_on channel=5 note=93 velocity=0 time=0.09
EXTRACT: note_on channel=5 note=81 velocity=0 time=0
EXTRACT: note_on channel=9 note=42 velocity=0 time=0
EXTRACT: note_on channel=3 note=69 velocity=0 time=0.03
EXTRACT: note_on channel=9 note=42 velocity=0 time=0
EXTRACT: note_on channel=0 note=57 velocity=100 time=0.03
EXTRACT: note_on channel=0 note=61 velocity=100 time=0
EXTRACT: note_on channel=0 note=64 velocity=100 time=0
EXTRACT: note_on channel=9 note=35 velocity=127 time=0
EXTRACT: note_on channel=9 note=42 velocity=127 time=0
EXTRACT: note_on channel=0 note=45 velocity=0 time=0.09
EXTRACT: note_on channel=1 note=45 velocity=0 time=0
EXTRACT: note_on channel=4 note=45 velocity=0 time=0
EXTRACT: note_on channel=9 note=35 velocity=0 time=0
EXTRACT: note_on channel=3 note=69 velocity=64 time=0.06
EXTRACT: note_on channel=9 note=42 velocity=50 time=0
EXTRACT: note_on channel=2 note=62 velocity=0 time=0.03
EXTRACT: note_on channel=2 note=54 velocity=0 time=0
EXTRACT: note_on channel=2 note=66 velocity=0 time=0
EXTRACT: note_on channel=0 note=57 velocity=0 time=0.06
EXTRACT: note_on channel=0 note=61 velocity=0 time=0
EXTRACT: note_on channel=0 note=64 velocity=0 time=0
EXTRACT: note_on channel=9 note=35 velocity=0 time=0
EXTRACT: note_on channel=9 note=42 velocity=0 time=0
EXTRACT: note_on channel=9 note=42 velocity=0 time=0.03
EXTRACT: note_on channel=0 note=45 velocity=100 time=0.03
EXTRACT: note_on channel=1 note=45 velocity=100 time=0
EXTRACT: note_on channel=2 note=57 velocity=100 time=0
EXTRACT: note_on channel=2 note=66 velocity=100 time=0
EXTRACT: note_on channel=2 note=69 velocity=127 time=0
EXTRACT: note_on channel=3 note=69 velocity=64 time=0
EXTRACT: note_on channel=4 note=45 velocity=100 time=0
EXTRACT: note_on channel=5 note=93 velocity=70 time=0
EXTRACT: note_on channel=5 note=81 velocity=80 time=0
EXTRACT: note_on channel=9 note=38 velocity=127 time=0
EXTRACT: note_on channel=9 note=42 velocity=127 time=0
EXTRACT: note_on channel=3 note=69 velocity=0 time=0.09
EXTRACT: note_on channel=2 note=57 velocity=0 time=0.03
EXTRACT: note_on channel=2 note=66 velocity=0 time=0
EXTRACT: note_on channel=2 note=69 velocity=0 time=0
EXTRACT: note_on channel=0 note=57 velocity=100 time=0.03
EXTRACT: note_on channel=0 note=61 velocity=100 time=0
EXTRACT: note_on channel=0 note=64 velocity=100 time=0
EXTRACT: note_on channel=2 note=54 velocity=100 time=0
EXTRACT: note_on channel=2 note=62 velocity=100 time=0
EXTRACT: note_on channel=2 note=66 velocity=127 time=0
EXTRACT: note_on channel=9 note=42 velocity=50 time=0
EXTRACT: note_on channel=3 note=69 velocity=0 time=0.09
EXTRACT: note_on channel=5 note=93 velocity=0 time=0
EXTRACT: note_on channel=5 note=81 velocity=0 time=0
EXTRACT: note_on channel=9 note=38 velocity=0 time=0
EXTRACT: note_on channel=9 note=42 velocity=0 time=0
EXTRACT: note_on channel=9 note=42 velocity=0 time=0.03
EXTRACT: note_on channel=9 note=42 velocity=127 time=0.03
EXTRACT: note_on channel=0 note=57 velocity=0 time=0.09
EXTRACT: note_on channel=0 note=61 velocity=0 time=0
EXTRACT: note_on channel=0 note=64 velocity=0 time=0
EXTRACT: note_on channel=2 note=54 velocity=0 time=0
EXTRACT: note_on channel=2 note=62 velocity=0 time=0
EXTRACT: note_on channel=2 note=66 velocity=0 time=0
EXTRACT: note_on channel=9 note=42 velocity=50 time=0.06
EXTRACT: note_on channel=0 note=45 velocity=0 time=0.03
EXTRACT: note_on channel=1 note=45 velocity=0 time=0
EXTRACT: note_on channel=4 note=45 velocity=0 time=0
EXTRACT: note_on channel=9 note=42 velocity=0 time=0.06
EXTRACT: note_on channel=9 note=42 velocity=0 time=0.03
EXTRACT: note_on channel=0 note=42 velocity=100 time=0.03
EXTRACT: note_on channel=1 note=42 velocity=100 time=0
EXTRACT: note_on channel=2 note=73 velocity=127 time=0
EXTRACT: note_on channel=4 note=42 velocity=100 time=0
EXTRACT: note_on channel=5 note=93 velocity=70 time=0
EXTRACT: note_on channel=5 note=81 velocity=80 time=0
EXTRACT: note_on channel=9 note=35 velocity=127 time=0
EXTRACT: note_on channel=9 note=42 velocity=127 time=0
EXTRACT: note_on channel=9 note=42 velocity=0 time=0.12
EXTRACT: note_on channel=9 note=42 velocity=50 time=0.03
EXTRACT: note_on channel=0 note=42 velocity=0 time=0.09
EXTRACT: note_on channel=1 note=42 velocity=0 time=0
EXTRACT: note_on channel=2 note=73 velocity=0 time=0
EXTRACT: note_on channel=4 note=42 velocity=0 time=0
EXTRACT: note_on channel=5 note=93 velocity=0 time=0
EXTRACT: note_on channel=5 note=81 velocity=0 time=0
EXTRACT: note_on channel=9 note=35 velocity=0 time=0
EXTRACT: note_on channel=9 note=42 velocity=0 time=0.03
EXTRACT: note_on channel=0 note=42 velocity=100 time=0.03
EXTRACT: note_on channel=1 note=42 velocity=100 time=0
EXTRACT: note_on channel=2 note=76 velocity=127 time=0
EXTRACT: note_on channel=3 note=69 velocity=64 time=0
EXTRACT: note_on channel=4 note=42 velocity=100 time=0
EXTRACT: note_on channel=9 note=42 velocity=127 time=0
EXTRACT: note_on channel=3 note=69 velocity=0 time=0.12
EXTRACT: note_on channel=3 note=69 velocity=64 time=0.03
EXTRACT: note_on channel=9 note=42 velocity=50 time=0
EXTRACT: note_on channel=2 note=76 velocity=0 time=0.09
EXTRACT: note_on channel=9 note=42 velocity=0 time=0
EXTRACT: note_on channel=3 note=69 velocity=0 time=0.03
EXTRACT: note_on channel=9 note=42 velocity=0 time=0
EXTRACT: note_on channel=0 note=57 velocity=100 time=0.03
EXTRACT: note_on channel=0 note=62 velocity=100 time=0
EXTRACT: note_on channel=0 note=66 velocity=100 time=0
EXTRACT: note_on channel=2 note=73 velocity=127 time=0
EXTRACT: note_on channel=3 note=69 velocity=64 time=0
EXTRACT: note_on channel=5 note=93 velocity=70 time=0
EXTRACT: note_on channel=5 note=81 velocity=80 time=0
EXTRACT: note_on channel=9 note=38 velocity=127 time=0
EXTRACT: note_on channel=9 note=42 velocity=127 time=0
EXTRACT: note_on channel=9 note=42 velocity=50 time=0.15
EXTRACT: note_on channel=0 note=42 velocity=0 time=0.03
EXTRACT: note_on channel=1 note=42 velocity=0 time=0
EXTRACT: note_on channel=4 note=42 velocity=0 time=0
EXTRACT: note_on channel=0 note=57 velocity=0 time=0.06
EXTRACT: note_on channel=0 note=62 velocity=0 time=0
EXTRACT: note_on channel=0 note=66 velocity=0 time=0
EXTRACT: note_on channel=2 note=73 velocity=0 time=0
EXTRACT: note_on channel=3 note=69 velocity=0 time=0
EXTRACT: note_on channel=5 note=93 velocity=0 time=0
EXTRACT: note_on channel=5 note=81 velocity=0 time=0
EXTRACT: note_on channel=9 note=38 velocity=0 time=0
EXTRACT: note_on channel=9 note=42 velocity=0 time=0
EXTRACT: note_on channel=9 note=42 velocity=0 time=0.03
EXTRACT: note_on channel=0 note=57 velocity=100 time=0.03
EXTRACT: note_on channel=2 note=71 velocity=127 time=0
EXTRACT: note_on channel=3 note=69 velocity=64 time=0
EXTRACT: note_on channel=9 note=42 velocity=127 time=0
EXTRACT: note_on channel=2 note=71 velocity=0 time=0.12
EXTRACT: note_on channel=3 note=69 velocity=0 time=0
EXTRACT: note_on channel=0 note=67 velocity=100 time=0.03
EXTRACT: note_on channel=0 note=59 velocity=100 time=0
EXTRACT: note_on channel=0 note=62 velocity=100 time=0
EXTRACT: note_on channel=2 note=69 velocity=127 time=0
EXTRACT: note_on channel=3 note=69 velocity=64 time=0
EXTRACT: note_on channel=9 note=35 velocity=127 time=0
EXTRACT: note_on channel=9 note=42 velocity=50 time=0
EXTRACT: note_on channel=0 note=57 velocity=0 time=0.09
EXTRACT: note_on channel=9 note=42 velocity=0 time=0
EXTRACT: note_on channel=0 note=67 velocity=0 time=0.03
EXTRACT: note_on channel=0 note=59 velocity=0 time=0
EXTRACT: note_on channel=0 note=62 velocity=0 time=0
EXTRACT: note_on channel=9 note=42 velocity=0 time=0
EXTRACT: note_on channel=5 note=93 velocity=70 time=0.03
EXTRACT: note_on channel=5 note=81 velocity=80 time=0
EXTRACT: note_on channel=9 note=42 velocity=127 time=0
EXTRACT: note_on channel=3 note=69 velocity=0 time=0.09
EXTRACT: note_on channel=9 note=35 velocity=0 time=0
EXTRACT: note_on channel=0 note=43 velocity=100 time=0.06
EXTRACT: note_on channel=1 note=43 velocity=100 time=0
EXTRACT: note_on channel=3 note=69 velocity=64 time=0
EXTRACT: note_on channel=4 note=43 velocity=100 time=0
EXTRACT: note_on channel=9 note=35 velocity=127 time=0
EXTRACT: note_on channel=9 note=42 velocity=50 time=0
EXTRACT: note_on channel=5 note=93 velocity=0 time=0.09
EXTRACT: note_on channel=5 note=81 velocity=0 time=0
EXTRACT: note_on channel=9 note=42 velocity=0 time=0
EXTRACT: note_on channel=3 note=69 velocity=0 time=0.03
EXTRACT: note_on channel=9 note=42 velocity=0 time=0
EXTRACT: note_on channel=0 note=67 velocity=100 time=0.03
EXTRACT: note_on channel=0 note=59 velocity=100 time=0
EXTRACT: note_on channel=0 note=62 velocity=100 time=0
EXTRACT: note_on channel=9 note=35 velocity=127 time=0
EXTRACT: note_on channel=9 note=42 velocity=127 time=0
EXTRACT: note_on channel=2 note=69 velocity=0 time=0.03
EXTRACT: note_on channel=0 note=43 velocity=0 time=0.06
EXTRACT: note_on channel=1 note=43 velocity=0 time=0
EXTRACT: note_on channel=4 note=43 velocity=0 time=0
EXTRACT: note_on channel=9 note=35 velocity=0 time=0
EXTRACT: note_on channel=3 note=69 velocity=64 time=0.06
EXTRACT: note_on channel=9 note=42 velocity=50 time=0
EXTRACT: note_on channel=0 note=67 velocity=0 time=0.09
EXTRACT: note_on channel=0 note=59 velocity=0 time=0
EXTRACT: note_on channel=0 note=62 velocity=0 time=0
EXTRACT: note_on channel=9 note=35 velocity=0 time=0
EXTRACT: note_on channel=9 note=42 velocity=0 time=0
EXTRACT: note_on channel=9 note=42 velocity=0 time=0.03
EXTRACT: note_on channel=0 note=43 velocity=100 time=0.03
EXTRACT: note_on channel=1 note=43 velocity=100 time=0
EXTRACT: note_on channel=3 note=69 velocity=64 time=0
EXTRACT: note_on channel=4 note=43 velocity=100 time=0
EXTRACT: note_on channel=5 note=93 velocity=70 time=0
EXTRACT: note_on channel=5 note=81 velocity=80 time=0
EXTRACT: note_on channel=9 note=38 velocity=127 time=0
EXTRACT: note_on channel=9 note=42 velocity=127 time=0
EXTRACT: note_on channel=3 note=69 velocity=0 time=0.09
EXTRACT: note_on channel=0 note=67 velocity=100 time=0.06
EXTRACT: note_on channel=0 note=59 velocity=100 time=0
EXTRACT: note_on channel=0 note=62 velocity=100 time=0
EXTRACT: note_on channel=9 note=42 velocity=50 time=0
EXTRACT: note_on channel=3 note=69 velocity=0 time=0.09
EXTRACT: note_on channel=5 note=93 velocity=0 time=0
EXTRACT: note_on channel=5 note=81 velocity=0 time=0
EXTRACT: note_on channel=9 note=38 velocity=0 time=0
EXTRACT: note_on channel=9 note=42 velocity=0 time=0
EXTRACT: note_on channel=9 note=42 velocity=0 time=0.03
EXTRACT: note_on channel=9 note=42 velocity=127 time=0.03
EXTRACT: note_on channel=0 note=67 velocity=0 time=0.09
EXTRACT: note_on channel=0 note=59 velocity=0 time=0
EXTRACT: note_on channel=0 note=62 velocity=0 time=0
EXTRACT: note_on channel=9 note=42 velocity=50 time=0.06
EXTRACT: note_on channel=0 note=43 velocity=0 time=0.03
EXTRACT: note_on channel=1 note=43 velocity=0 time=0
EXTRACT: note_on channel=4 note=43 velocity=0 time=0
EXTRACT: note_on channel=9 note=42 velocity=0 time=0.06
EXTRACT: note_on channel=9 note=42 velocity=0 time=0.03
EXTRACT: note_on channel=0 note=57 velocity=100 time=0.03
EXTRACT: note_on channel=0 note=61 velocity=100 time=0
EXTRACT: note_on channel=0 note=64 velocity=100 time=0
EXTRACT: note_on channel=4 note=33 velocity=100 time=0
EXTRACT: note_on channel=4 note=45 velocity=100 time=0
EXTRACT: note_on channel=9 note=35 velocity=127 time=0
EXTRACT: note_on channel=9 note=42 velocity=127 time=0
EXTRACT: note_on channel=4 note=33 velocity=0 time=0.12
EXTRACT: note_on channel=4 note=45 velocity=0 time=0
EXTRACT: note_on channel=9 note=42 velocity=0 time=0
EXTRACT: note_on channel=4 note=33 velocity=100 time=0.03
EXTRACT: note_on channel=4 note=45 velocity=100 time=0
EXTRACT: note_on channel=9 note=42 velocity=50 time=0
EXTRACT: note_on channel=0 note=57 velocity=0 time=0.09
EXTRACT: note_on channel=0 note=61 velocity=0 time=0
EXTRACT: note_on channel=0 note=64 velocity=0 time=0
EXTRACT: note_on channel=9 note=35 velocity=0 time=0
EXTRACT: note_on channel=4 note=33 velocity=0 time=0.03
EXTRACT: note_on channel=4 note=45 velocity=0 time=0
EXTRACT: note_on channel=9 note=42 velocity=0 time=0
EXTRACT: note_on channel=2 note=43 velocity=70 time=0.03
EXTRACT: note_on channel=2 note=55 velocity=127 time=0
EXTRACT: note_on channel=9 note=42 velocity=127 time=0
EXTRACT: note_on channel=9 note=42 velocity=50 time=0.15
EXTRACT: note_on channel=2 note=43 velocity=0 time=0.09
EXTRACT: note_on channel=2 note=55 velocity=0 time=0
EXTRACT: note_on channel=9 note=42 velocity=0 time=0
EXTRACT: note_on channel=9 note=42 velocity=0 time=0.03
EXTRACT: note_on channel=2 note=43 velocity=70 time=0.03
EXTRACT: note_on channel=2 note=55 velocity=127 time=0
EXTRACT: note_on channel=3 note=69 velocity=51 time=0
EXTRACT: note_on channel=9 note=38 velocity=127 time=0
EXTRACT: note_on channel=9 note=42 velocity=127 time=0
EXTRACT: note_on channel=9 note=42 velocity=50 time=0.15
EXTRACT: note_on channel=2 note=43 velocity=0 time=0.09
EXTRACT: note_on channel=2 note=55 velocity=0 time=0
EXTRACT: note_on channel=3 note=69 velocity=0 time=0
EXTRACT: note_on channel=9 note=38 velocity=0 time=0
EXTRACT: note_on channel=9 note=42 velocity=0 time=0
EXTRACT: note_on channel=9 note=42 velocity=0 time=0.03
EXTRACT: note_on channel=2 note=43 velocity=70 time=0.03
EXTRACT: note_on channel=2 note=55 velocity=127 time=0
EXTRACT: note_on channel=3 note=69 velocity=51 time=0
EXTRACT: note_on channel=9 note=42 velocity=127 time=0
EXTRACT: note_on channel=2 note=43 velocity=0 time=0.12
EXTRACT: note_on channel=2 note=55 velocity=0 time=0
EXTRACT: note_on channel=3 note=69 velocity=0 time=0
EXTRACT: note_on channel=2 note=43 velocity=70 time=0.03
EXTRACT: note_on channel=2 note=55 velocity=127 time=0
EXTRACT: note_on channel=3 note=69 velocity=51 time=0
EXTRACT: note_on channel=9 note=35 velocity=127 time=0
EXTRACT: note_on channel=9 note=42 velocity=50 time=0
EXTRACT: note_on channel=9 note=42 velocity=0 time=0.09
EXTRACT: note_on channel=3 note=69 velocity=0 time=0.03
EXTRACT: note_on channel=9 note=42 velocity=0 time=0
EXTRACT: note_on channel=9 note=42 velocity=127 time=0.03
EXTRACT: note_on channel=2 note=43 velocity=0 time=0.09
EXTRACT: note_on channel=2 note=55 velocity=0 time=0
EXTRACT: note_on channel=9 note=35 velocity=0 time=0
EXTRACT: note_on channel=2 note=43 velocity=70 time=0.06
EXTRACT: note_on channel=2 note=55 velocity=127 time=0
EXTRACT: note_on channel=3 note=69 velocity=51 time=0
EXTRACT: note_on channel=9 note=35 velocity=127 time=0
EXTRACT: note_on channel=9 note=42 velocity=50 time=0
EXTRACT: note_on channel=9 note=42 velocity=0 time=0.09
EXTRACT: note_on channel=3 note=69 velocity=0 time=0.03
EXTRACT: note_on channel=9 note=42 velocity=0 time=0
EXTRACT: note_on channel=3 note=69 velocity=51 time=0.03
EXTRACT: note_on channel=4 note=38 velocity=100 time=0
EXTRACT: note_on channel=4 note=50 velocity=100 time=0
EXTRACT: note_on channel=9 note=35 velocity=127 time=0
EXTRACT: note_on channel=9 note=42 velocity=127 time=0
EXTRACT: note_on channel=2 note=43 velocity=0 time=0.09
EXTRACT: note_on channel=2 note=55 velocity=0 time=0
EXTRACT: note_on channel=9 note=35 velocity=0 time=0
EXTRACT: note_on channel=3 note=69 velocity=0 time=0.03
EXTRACT: note_on channel=2 note=43 velocity=70 time=0.03
EXTRACT: note_on channel=2 note=55 velocity=127 time=0
EXTRACT: note_on channel=3 note=69 velocity=51 time=0
EXTRACT: note_on channel=9 note=42 velocity=50 time=0
EXTRACT: note_on channel=4 note=38 velocity=0 time=0.09
EXTRACT: note_on channel=4 note=50 velocity=0 time=0
EXTRACT: note_on channel=9 note=35 velocity=0 time=0
EXTRACT: note_on channel=9 note=42 velocity=0 time=0
EXTRACT: note_on channel=2 note=43 velocity=0 time=0.03
EXTRACT: note_on channel=2 note=55 velocity=0 time=0
EXTRACT: note_on channel=3 note=69 velocity=0 time=0
EXTRACT: note_on channel=9 note=42 velocity=0 time=0
EXTRACT: note_on channel=2 note=43 velocity=70 time=0.03
EXTRACT: note_on channel=2 note=55 velocity=127 time=0
EXTRACT: note_on channel=3 note=69 velocity=51 time=0
EXTRACT: note_on channel=9 note=38 velocity=127 time=0
EXTRACT: note_on channel=9 note=42 velocity=127 time=0
EXTRACT: note_on channel=2 note=43 velocity=0 time=0.12
EXTRACT: note_on channel=2 note=55 velocity=0 time=0
EXTRACT: note_on channel=2 note=43 velocity=70 time=0.03
EXTRACT: note_on channel=2 note=55 velocity=127 time=0
EXTRACT: note_on channel=4 note=40 velocity=100 time=0
EXTRACT: note_on channel=4 note=52 velocity=100 time=0
EXTRACT: note_on channel=9 note=42 velocity=50 time=0
EXTRACT: note_on channel=3 note=69 velocity=0 time=0.09
EXTRACT: note_on channel=9 note=38 velocity=0 time=0
EXTRACT: note_on channel=9 note=42 velocity=0 time=0
EXTRACT: note_on channel=2 note=43 velocity=0 time=0.03
EXTRACT: note_on channel=2 note=55 velocity=0 time=0
EXTRACT: note_on channel=9 note=42 velocity=0 time=0
EXTRACT: note_on channel=2 note=43 velocity=70 time=0.03
EXTRACT: note_on channel=2 note=55 velocity=127 time=0
EXTRACT: note_on channel=3 note=69 velocity=51 time=0
EXTRACT: note_on channel=9 note=42 velocity=127 time=0
EXTRACT: note_on channel=4 note=40 velocity=0 time=0.09
EXTRACT: note_on channel=4 note=52 velocity=0 time=0
EXTRACT: note_on channel=2 note=43 velocity=0 time=0.03
EXTRACT: note_on channel=2 note=55 velocity=0 time=0
EXTRACT: note_on channel=9 note=42 velocity=50 time=0.03
EXTRACT: note_on channel=3 note=69 velocity=0 time=0.09
EXTRACT: note_on channel=9 note=42 velocity=0 time=0
EXTRACT: note_on channel=9 note=42 velocity=0 time=0.03
EXTRACT: note_on channel=2 note=43 velocity=70 time=0.03
EXTRACT: note_on channel=2 note=55 velocity=127 time=0
EXTRACT: note_on channel=4 note=33 velocity=100 time=0
EXTRACT: note_on channel=4 note=45 velocity=100 time=0
EXTRACT: note_on channel=9 note=35 velocity=127 time=0
EXTRACT: note_on channel=9 note=42 velocity=127 time=0
EXTRACT: note_on channel=4 note=33 velocity=0 time=0.12
EXTRACT: note_on channel=4 note=45 velocity=0 time=0
EXTRACT: note_on channel=9 note=42 velocity=0 time=0
EXTRACT: note_on channel=4 note=33 velocity=100 time=0.03
EXTRACT: note_on channel=4 note=45 velocity=100 time=0
EXTRACT: note_on channel=9 note=42 velocity=50 time=0
EXTRACT: note_on channel=2 note=43 velocity=0 time=0.09
EXTRACT: note_on channel=2 note=55 velocity=0 time=0
EXTRACT: note_on channel=9 note=35 velocity=0 time=0
EXTRACT: note_on channel=4 note=33 velocity=0 time=0.03
EXTRACT: note_on channel=4 note=45 velocity=0 time=0
EXTRACT: note_on channel=9 note=42 velocity=0 time=0
EXTRACT: note_on channel=2 note=43 velocity=70 time=0.03
EXTRACT: note_on channel=2 note=55 velocity=127 time=0
EXTRACT: note_on channel=3 note=69 velocity=51 time=0
EXTRACT: note_on channel=9 note=42 velocity=127 time=0
EXTRACT: note_on channel=9 note=42 velocity=50 time=0.15
EXTRACT: note_on channel=2 note=43 velocity=0 time=0.09
EXTRACT: note_on channel=2 note=55 velocity=0 time=0
EXTRACT: note_on channel=3 note=69 velocity=0 time=0
EXTRACT: note_on channel=9 note=42 velocity=0 time=0
EXTRACT: note_on channel=9 note=42 velocity=0 time=0.03
EXTRACT: note_on channel=2 note=43 velocity=70 time=0.03
EXTRACT: note_on channel=2 note=55 velocity=127 time=0
EXTRACT: note_on channel=3 note=69 velocity=51 time=0
EXTRACT: note_on channel=9 note=38 velocity=127 time=0
EXTRACT: note_on channel=9 note=42 velocity=127 time=0
EXTRACT: note_on channel=9 note=42 velocity=50 time=0.15
EXTRACT: note_on channel=2 note=43 velocity=0 time=0.09
EXTRACT: note_on channel=2 note=55 velocity=0 time=0
EXTRACT: note_on channel=3 note=69 velocity=0 time=0
EXTRACT: note_on channel=9 note=38 velocity=0 time=0
EXTRACT: note_on channel=9 note=42 velocity=0 time=0
EXTRACT: note_on channel=9 note=42 velocity=0 time=0.03
EXTRACT: note_on channel=2 note=40 velocity=70 time=0.03
EXTRACT: note_on channel=2 note=52 velocity=127 time=0
EXTRACT: note_on channel=3 note=69 velocity=51 time=0
EXTRACT: note_on channel=9 note=42 velocity=127 time=0
EXTRACT: note_on channel=2 note=40 velocity=0 time=0.12
EXTRACT: note_on channel=2 note=52 velocity=0 time=0
EXTRACT: note_on channel=3 note=69 velocity=0 time=0
EXTRACT: note_on channel=2 note=45 velocity=70 time=0.03
EXTRACT: note_on channel=2 note=57 velocity=127 time=0
EXTRACT: note_on channel=3 note=69 velocity=51 time=0
EXTRACT: note_on channel=9 note=35 velocity=127 time=0
EXTRACT: note_on channel=9 note=42 velocity=50 time=0
EXTRACT: note_on channel=9 note=42 velocity=0 time=0.09
EXTRACT: note_on channel=3 note=69 velocity=0 time=0.03
EXTRACT: note_on channel=9 note=42 velocity=0 time=0
EXTRACT: note_on channel=9 note=42 velocity=127 time=0.03
EXTRACT: note_on channel=9 note=35 velocity=0 time=0.09
EXTRACT: note_on channel=3 note=69 velocity=51 time=0.06
EXTRACT: note_on channel=9 note=35 velocity=127 time=0
EXTRACT: note_on channel=9 note=42 velocity=50 time=0
EXTRACT: note_on channel=9 note=42 velocity=0 time=0.09
EXTRACT: note_on channel=3 note=69 velocity=0 time=0.03
EXTRACT: note_on channel=9 note=42 velocity=0 time=0
EXTRACT: note_on channel=3 note=69 velocity=51 time=0.03
EXTRACT: note_on channel=4 note=47 velocity=100 time=0
EXTRACT: note_on channel=4 note=59 velocity=100 time=0
EXTRACT: note_on channel=9 note=35 velocity=127 time=0
EXTRACT: note_on channel=9 note=42 velocity=127 time=0
EXTRACT: note_on channel=2 note=45 velocity=0 time=0.03
EXTRACT: note_on channel=2 note=57 velocity=0 time=0
EXTRACT: note_on channel=9 note=35 velocity=0 time=0.06
EXTRACT: note_on channel=3 note=69 velocity=0 time=0.03
EXTRACT: note_on channel=3 note=69 velocity=51 time=0.03
EXTRACT: note_on channel=9 note=42 velocity=50 time=0
EXTRACT: note_on channel=4 note=47 velocity=0 time=0.09
EXTRACT: note_on channel=4 note=59 velocity=0 time=0
EXTRACT: note_on channel=9 note=35 velocity=0 time=0
EXTRACT: note_on channel=9 note=42 velocity=0 time=0
EXTRACT: note_on channel=3 note=69 velocity=0 time=0.03
EXTRACT: note_on channel=9 note=42 velocity=0 time=0
EXTRACT: note_on channel=3 note=69 velocity=51 time=0.03
EXTRACT: note_on channel=9 note=38 velocity=127 time=0
EXTRACT: note_on channel=9 note=42 velocity=127 time=0
EXTRACT: note_on channel=4 note=45 velocity=100 time=0.15
EXTRACT: note_on channel=4 note=57 velocity=100 time=0
EXTRACT: note_on channel=9 note=42 velocity=50 time=0
EXTRACT: note_on channel=3 note=69 velocity=0 time=0.09
EXTRACT: note_on channel=9 note=38 velocity=0 time=0
EXTRACT: note_on channel=9 note=42 velocity=0 time=0
EXTRACT: note_on channel=9 note=42 velocity=0 time=0.03
EXTRACT: note_on channel=3 note=69 velocity=51 time=0.03
EXTRACT: note_on channel=9 note=42 velocity=127 time=0
EXTRACT: note_on channel=4 note=45 velocity=0 time=0.09
EXTRACT: note_on channel=4 note=57 velocity=0 time=0
EXTRACT: note_on channel=9 note=42 velocity=50 time=0.06
EXTRACT: note_on channel=3 note=69 velocity=0 time=0.09
EXTRACT: note_on channel=9 note=42 velocity=0 time=0
EXTRACT: note_on channel=9 note=42 velocity=0 time=0.03
EXTRACT: note_on channel=4 note=33 velocity=100 time=0.03
EXTRACT: note_on channel=4 note=45 velocity=100 time=0
EXTRACT: note_on channel=9 note=35 velocity=127 time=0
EXTRACT: note_on channel=9 note=42 velocity=127 time=0
EXTRACT: note_on channel=4 note=33 velocity=0 time=0.12
EXTRACT: note_on channel=4 note=45 velocity=0 time=0
EXTRACT: note_on channel=9 note=42 velocity=0 time=0
EXTRACT: note_on channel=4 note=33 velocity=100 time=0.03
EXTRACT: note_on channel=4 note=45 velocity=100 time=0
EXTRACT: note_on channel=9 note=42 velocity=50 time=0
EXTRACT: note_on channel=9 note=35 velocity=0 time=0.09
EXTRACT: note_on channel=4 note=33 velocity=0 time=0.03
EXTRACT: note_on channel=4 note=45 velocity=0 time=0
EXTRACT: note_on channel=9 note=42 velocity=0 time=0
EXTRACT: note_on channel=2 note=72 velocity=127 time=0.03
EXTRACT: note_on channel=3 note=69 velocity=50 time=0
EXTRACT: note_on channel=9 note=42 velocity=127 time=0
EXTRACT: note_on channel=2 note=72 velocity=0 time=0.12
EXTRACT: note_on channel=2 note=72 velocity=127 time=0.03
EXTRACT: note_on channel=9 note=42 velocity=50 time=0
EXTRACT: note_on channel=3 note=69 velocity=0 time=0.09
EXTRACT: note_on channel=9 note=42 velocity=0 time=0
EXTRACT: note_on channel=2 note=72 velocity=0 time=0.03
EXTRACT: note_on channel=9 note=42 velocity=0 time=0
EXTRACT: note_on channel=2 note=72 velocity=127 time=0.03
EXTRACT: note_on channel=3 note=69 velocity=50 time=0
EXTRACT: note_on channel=9 note=38 velocity=127 time=0
EXTRACT: note_on channel=9 note=42 velocity=127 time=0
EXTRACT: note_on channel=2 note=72 velocity=0 time=0.12
EXTRACT: note_on channel=2 note=72 velocity=127 time=0.03
EXTRACT: note_on channel=9 note=42 velocity=50 time=0
EXTRACT: note_on channel=3 note=69 velocity=0 time=0.09
EXTRACT: note_on channel=9 note=38 velocity=0 time=0
EXTRACT: note_on channel=9 note=42 velocity=0 time=0
EXTRACT: note_on channel=2 note=72 velocity=0 time=0.03
EXTRACT: note_on channel=9 note=42 velocity=0 time=0
EXTRACT: note_on channel=2 note=72 velocity=127 time=0.03
EXTRACT: note_on channel=3 note=69 velocity=50 time=0
EXTRACT: note_on channel=9 note=42 velocity=127 time=0
EXTRACT: note_on channel=2 note=72 velocity=0 time=0.12
EXTRACT: note_on channel=3 note=69 velocity=0 time=0
EXTRACT: note_on channel=3 note=69 velocity=50 time=0.03
EXTRACT: note_on channel=9 note=35 velocity=127 time=0
EXTRACT: note_on channel=9 note=42 velocity=50 time=0
EXTRACT: note_on channel=9 note=42 velocity=0 time=0.09
EXTRACT: note_on channel=3 note=69 velocity=0 time=0.03
EXTRACT: note_on channel=9 note=42 velocity=0 time=0
EXTRACT: note_on channel=2 note=71 velocity=100 time=0.03
EXTRACT: note_on channel=9 note=42 velocity=127 time=0
EXTRACT: note_on channel=9 note=35 velocity=0 time=0.09
EXTRACT: note_on channel=3 note=69 velocity=50 time=0.06
EXTRACT: note_on channel=9 note=35 velocity=127 time=0
EXTRACT: note_on channel=9 note=42 velocity=50 time=0
EXTRACT: note_on channel=2 note=71 velocity=0 time=0.09
EXTRACT: note_on channel=9 note=42 velocity=0 time=0
EXTRACT: note_on channel=3 note=69 velocity=0 time=0.03
EXTRACT: note_on channel=9 note=42 velocity=0 time=0
EXTRACT: note_on channel=2 note=69 velocity=100 time=0.03
EXTRACT: note_on channel=3 note=69 velocity=50 time=0
EXTRACT: note_on channel=4 note=38 velocity=100 time=0
EXTRACT: note_on channel=4 note=50 velocity=100 time=0
EXTRACT: note_on channel=9 note=35 velocity=127 time=0
EXTRACT: note_on channel=9 note=42 velocity=127 time=0
EXTRACT: note_on channel=9 note=35 velocity=0 time=0.09
EXTRACT: note_on channel=2 note=69 velocity=0 time=0.03
EXTRACT: note_on channel=3 note=69 velocity=0 time=0
EXTRACT: note_on channel=2 note=69 velocity=100 time=0.03
EXTRACT: note_on channel=3 note=69 velocity=50 time=0
EXTRACT: note_on channel=9 note=42 velocity=50 time=0
EXTRACT: note_on channel=4 note=38 velocity=0 time=0.09
EXTRACT: note_on channel=4 note=50 velocity=0 time=0
EXTRACT: note_on channel=9 note=35 velocity=0 time=0
EXTRACT: note_on channel=9 note=42 velocity=0 time=0
EXTRACT: note_on channel=3 note=69 velocity=0 time=0.03
EXTRACT: note_on channel=9 note=42 velocity=0 time=0
EXTRACT: note_on channel=3 note=69 velocity=50 time=0.03
EXTRACT: note_on channel=9 note=38 velocity=127 time=0
EXTRACT: note_on channel=9 note=42 velocity=127 time=0
EXTRACT: note_on channel=2 note=69 velocity=0 time=0.09
EXTRACT: note_on channel=4 note=40 velocity=100 time=0.06
EXTRACT: note_on channel=4 note=52 velocity=100 time=0
EXTRACT: note_on channel=9 note=42 velocity=50 time=0
EXTRACT: note_on channel=3 note=69 velocity=0 time=0.09
EXTRACT: note_on channel=9 note=38 velocity=0 time=0
EXTRACT: note_on channel=9 note=42 velocity=0 time=0
EXTRACT: note_on channel=9 note=42 velocity=0 time=0.03
EXTRACT: note_on channel=2 note=66 velocity=100 time=0.03
EXTRACT: note_on channel=3 note=69 velocity=50 time=0
EXTRACT: note_on channel=9 note=42 velocity=127 time=0
EXTRACT: note_on channel=4 note=40 velocity=0 time=0.09
EXTRACT: note_on channel=4 note=52 velocity=0 time=0
EXTRACT: note_on channel=9 note=42 velocity=50 time=0.06
EXTRACT: note_on channel=2 note=66 velocity=0 time=0.09
EXTRACT: note_on channel=3 note=69 velocity=0 time=0
EXTRACT: note_on channel=9 note=42 velocity=0 time=0
EXTRACT: note_on channel=9 note=42 velocity=0 time=0.03
EXTRACT: note_on channel=2 note=69 velocity=127 time=0.03
EXTRACT: note_on channel=4 note=33 velocity=100 time=0
EXTRACT: note_on channel=4 note=45 velocity=100 time=0
EXTRACT: note_on channel=9 note=35 velocity=127 time=0
EXTRACT: note_on channel=9 note=42 velocity=127 time=0
EXTRACT: note_on channel=4 note=33 velocity=0 time=0.12
EXTRACT: note_on channel=4 note=45 velocity=0 time=0
EXTRACT: note_on channel=9 note=42 velocity=0 time=0
EXTRACT: note_on channel=4 note=33 velocity=100 time=0.03
EXTRACT: note_on channel=4 note=45 velocity=100 time=0
EXTRACT: note_on channel=9 note=42 velocity=50 time=0
EXTRACT: note_on channel=2 note=69 velocity=0 time=0.09
EXTRACT: note_on channel=9 note=35 velocity=0 time=0
EXTRACT: note_on channel=4 note=33 velocity=0 time=0.03
EXTRACT: note_on channel=4 note=45 velocity=0 time=0
EXTRACT: note_on channel=9 note=42 velocity=0 time=0
EXTRACT: note_on channel=2 note=66 velocity=100 time=0.03
EXTRACT: note_on channel=3 note=69 velocity=50 time=0
EXTRACT: note_on channel=9 note=42 velocity=127 time=0
EXTRACT: note_on channel=9 note=42 velocity=50 time=0.15
EXTRACT: note_on channel=2 note=66 velocity=0 time=0.09
EXTRACT: note_on channel=3 note=69 velocity=0 time=0
EXTRACT: note_on channel=9 note=42 velocity=0 time=0
EXTRACT: note_on channel=9 note=42 velocity=0 time=0.03
EXTRACT: note_on channel=2 note=69 velocity=127 time=0.03
EXTRACT: note_on channel=3 note=69 velocity=50 time=0
EXTRACT: note_on channel=9 note=38 velocity=127 time=0
EXTRACT: note_on channel=9 note=42 velocity=127 time=0
EXTRACT: note_on channel=9 note=42 velocity=50 time=0.15
EXTRACT: note_on channel=2 note=69 velocity=0 time=0.09
EXTRACT: note_on channel=3 note=69 velocity=0 time=0
EXTRACT: note_on channel=9 note=38 velocity=0 time=0
EXTRACT: note_on channel=9 note=42 velocity=0 time=0
EXTRACT: note_on channel=9 note=42 velocity=0 time=0.03
EXTRACT: note_on channel=2 note=66 velocity=127 time=0.03
EXTRACT: note_on channel=3 note=69 velocity=50 time=0
EXTRACT: note_on channel=9 note=42 velocity=127 time=0
EXTRACT: note_on channel=3 note=69 velocity=0 time=0.12
EXTRACT: note_on channel=3 note=69 velocity=50 time=0.03
EXTRACT: note_on channel=9 note=35 velocity=127 time=0
EXTRACT: note_on channel=9 note=42 velocity=50 time=0
EXTRACT: note_on channel=2 note=66 velocity=0 time=0.09
EXTRACT: note_on channel=9 note=42 velocity=0 time=0
EXTRACT: note_on channel=3 note=69 velocity=0 time=0.03
EXTRACT: note_on channel=9 note=42 velocity=0 time=0
EXTRACT: note_on channel=2 note=64 velocity=127 time=0.03
EXTRACT: note_on channel=9 note=42 velocity=127 time=0
EXTRACT: note_on channel=9 note=35 velocity=0 time=0.09
EXTRACT: note_on channel=3 note=69 velocity=50 time=0.06
EXTRACT: note_on channel=9 note=35 velocity=127 time=0
EXTRACT: note_on channel=9 note=42 velocity=50 time=0
EXTRACT: note_on channel=2 note=64 velocity=0 time=0.09
EXTRACT: note_on channel=9 note=42 velocity=0 time=0
EXTRACT: note_on channel=3 note=69 velocity=0 time=0.03
EXTRACT: note_on channel=9 note=42 velocity=0 time=0
EXTRACT: note_on channel=2 note=66 velocity=127 time=0.03
EXTRACT: note_on channel=3 note=69 velocity=50 time=0
EXTRACT: note_on channel=4 note=47 velocity=100 time=0
EXTRACT: note_on channel=9 note=35 velocity=127 time=0
EXTRACT: note_on channel=9 note=42 velocity=127 time=0
EXTRACT: note_on channel=9 note=35 velocity=0 time=0.09
EXTRACT: note_on channel=3 note=69 velocity=0 time=0.03
EXTRACT: note_on channel=4 note=47 velocity=0 time=0
EXTRACT: note_on channel=3 note=69 velocity=50 time=0.03
EXTRACT: note_on channel=4 note=45 velocity=100 time=0
EXTRACT: note_on channel=9 note=42 velocity=50 time=0
EXTRACT: note_on channel=2 note=66 velocity=0 time=0.09
EXTRACT: note_on channel=9 note=35 velocity=0 time=0
EXTRACT: note_on channel=9 note=42 velocity=0 time=0
EXTRACT: note_on channel=3 note=69 velocity=0 time=0.03
EXTRACT: note_on channel=4 note=45 velocity=0 time=0
EXTRACT: note_on channel=9 note=42 velocity=0 time=0
EXTRACT: note_on channel=3 note=69 velocity=50 time=0.03
EXTRACT: note_on channel=4 note=42 velocity=100 time=0
EXTRACT: note_on channel=9 note=38 velocity=127 time=0
EXTRACT: note_on channel=9 note=42 velocity=127 time=0
EXTRACT: note_on channel=4 note=42 velocity=0 time=0.12
EXTRACT: note_on channel=4 note=45 velocity=100 time=0.03
EXTRACT: note_on channel=9 note=42 velocity=50 time=0
EXTRACT: note_on channel=3 note=69 velocity=0 time=0.09
EXTRACT: note_on channel=9 note=38 velocity=0 time=0
EXTRACT: note_on channel=9 note=42 velocity=0 time=0
EXTRACT: note_on channel=4 note=45 velocity=0 time=0.03
EXTRACT: note_on channel=9 note=42 velocity=0 time=0
EXTRACT: note_on channel=3 note=69 velocity=50 time=0.03
EXTRACT: note_on channel=4 note=42 velocity=100 time=0
EXTRACT: note_on channel=9 note=42 velocity=127 time=0
EXTRACT: note_on channel=4 note=42 velocity=0 time=0.12
EXTRACT: note_on channel=4 note=40 velocity=100 time=0.03
EXTRACT: note_on channel=9 note=42 velocity=50 time=0
EXTRACT: note_on channel=3 note=69 velocity=0 time=0.09
EXTRACT: note_on channel=9 note=42 velocity=0 time=0
EXTRACT: note_on channel=4 note=40 velocity=0 time=0.03
EXTRACT: note_on channel=9 note=42 velocity=0 time=0
EXTRACT: note_on channel=4 note=33 velocity=100 time=0.03
EXTRACT: note_on channel=4 note=45 velocity=100 time=0
EXTRACT: note_on channel=9 note=35 velocity=127 time=0
EXTRACT: note_on channel=9 note=42 velocity=127 time=0
EXTRACT: note_on channel=4 note=33 velocity=0 time=0.12
EXTRACT: note_on channel=4 note=45 velocity=0 time=0
EXTRACT: note_on channel=9 note=42 velocity=0 time=0
EXTRACT: note_on channel=4 note=33 velocity=100 time=0.03
EXTRACT: note_on channel=4 note=45 velocity=100 time=0
EXTRACT: note_on channel=9 note=42 velocity=50 time=0
EXTRACT: note_on channel=9 note=35 velocity=0 time=0.09
EXTRACT: note_on channel=4 note=33 velocity=0 time=0.03
EXTRACT: note_on channel=4 note=45 velocity=0 time=0
EXTRACT: note_on channel=9 note=42 velocity=0 time=0
EXTRACT: note_on channel=2 note=43 velocity=70 time=0.03
EXTRACT: note_on channel=2 note=55 velocity=100 time=0
EXTRACT: note_on channel=3 note=69 velocity=50 time=0
EXTRACT: note_on channel=9 note=42 velocity=127 time=0
EXTRACT: note_on channel=2 note=43 velocity=0 time=0.12
EXTRACT: note_on channel=2 note=55 velocity=0 time=0
EXTRACT: note_on channel=2 note=43 velocity=70 time=0.03
EXTRACT: note_on channel=2 note=55 velocity=100 time=0
EXTRACT: note_on channel=9 note=42 velocity=50 time=0
EXTRACT: note_on channel=3 note=69 velocity=0 time=0.09
EXTRACT: note_on channel=9 note=42 velocity=0 time=0
EXTRACT: note_on channel=2 note=43 velocity=0 time=0.03
EXTRACT: note_on channel=2 note=55 velocity=0 time=0
EXTRACT: note_on channel=9 note=42 velocity=0 time=0
EXTRACT: note_on channel=2 note=43 velocity=70 time=0.03
EXTRACT: note_on channel=2 note=55 velocity=100 time=0
EXTRACT: note_on channel=3 note=69 velocity=50 time=0
EXTRACT: note_on channel=9 note=38 velocity=127 time=0
EXTRACT: note_on channel=9 note=42 velocity=127 time=0
EXTRACT: note_on channel=9 note=42 velocity=50 time=0.15
EXTRACT: note_on channel=2 note=43 velocity=0 time=0.09
EXTRACT: note_on channel=2 note=55 velocity=0 time=0
EXTRACT: note_on channel=3 note=69 velocity=0 time=0
EXTRACT: note_on channel=9 note=38 velocity=0 time=0
EXTRACT: note_on channel=9 note=42 velocity=0 time=0
EXTRACT: note_on channel=9 note=42 velocity=0 time=0.03
EXTRACT: note_on channel=2 note=43 velocity=70 time=0.03
EXTRACT: note_on channel=2 note=55 velocity=100 time=0
EXTRACT: note_on channel=3 note=69 velocity=50 time=0
EXTRACT: note_on channel=9 note=42 velocity=127 time=0
EXTRACT: note_on channel=3 note=69 velocity=0 time=0.12
EXTRACT: note_on channel=3 note=69 velocity=50 time=0.03
EXTRACT: note_on channel=9 note=35 velocity=127 time=0
EXTRACT: note_on channel=9 note=42 velocity=50 time=0
EXTRACT: note_on channel=2 note=43 velocity=0 time=0.09
EXTRACT: note_on channel=2 note=55 velocity=0 time=0
EXTRACT: note_on channel=9 note=42 velocity=0 time=0
EXTRACT: note_on channel=3 note=69 velocity=0 time=0.03
EXTRACT: note_on channel=9 note=42 velocity=0 time=0
EXTRACT: note_on channel=2 note=43 velocity=70 time=0.03
EXTRACT: note_on channel=2 note=55 velocity=100 time=0
EXTRACT: note_on channel=9 note=42 velocity=127 time=0
EXTRACT: note_on channel=9 note=35 velocity=0 time=0.09
EXTRACT: note_on channel=2 note=43 velocity=0 time=0.03
EXTRACT: note_on channel=2 note=55 velocity=0 time=0
EXTRACT: note_on channel=2 note=43 velocity=70 time=0.03
EXTRACT: note_on channel=2 note=55 velocity=100 time=0
EXTRACT: note_on channel=3 note=69 velocity=50 time=0
EXTRACT: note_on channel=9 note=35 velocity=127 time=0
EXTRACT: note_on channel=9 note=42 velocity=50 time=0
EXTRACT: note_on channel=9 note=42 velocity=0 time=0.09
EXTRACT: note_on channel=2 note=43 velocity=0 time=0.03
EXTRACT: note_on channel=2 note=55 velocity=0 time=0
EXTRACT: note_on channel=3 note=69 velocity=0 time=0
EXTRACT: note_on channel=9 note=42 velocity=0 time=0
EXTRACT: note_on channel=2 note=43 velocity=70 time=0.03
EXTRACT: note_on channel=2 note=55 velocity=100 time=0
EXTRACT: note_on channel=3 note=69 velocity=50 time=0
EXTRACT: note_on channel=4 note=38 velocity=100 time=0
EXTRACT: note_on channel=4 note=50 velocity=100 time=0
EXTRACT: note_on channel=9 note=35 velocity=127 time=0
EXTRACT: note_on channel=9 note=42 velocity=127 time=0
EXTRACT: note_on channel=9 note=35 velocity=0 time=0.09
EXTRACT: note_on channel=3 note=69 velocity=0 time=0.03
EXTRACT: note_on channel=3 note=69 velocity=50 time=0.03
EXTRACT: note_on channel=9 note=42 velocity=50 time=0
EXTRACT: note_on channel=2 note=43 velocity=0 time=0.09
EXTRACT: note_on channel=2 note=55 velocity=0 time=0
EXTRACT: note_on channel=4 note=38 velocity=0 time=0
EXTRACT: note_on channel=4 note=50 velocity=0 time=0
EXTRACT: note_on channel=9 note=35 velocity=0 time=0
EXTRACT: note_on channel=9 note=42 velocity=0 time=0
EXTRACT: note_on channel=3 note=69 velocity=0 time=0.03
EXTRACT: note_on channel=9 note=42 velocity=0 time=0
EXTRACT: note_on channel=2 note=43 velocity=70 time=0.03
EXTRACT: note_on channel=2 note=55 velocity=100 time=0
EXTRACT: note_on channel=3 note=69 velocity=50 time=0
EXTRACT: note_on channel=9 note=38 velocity=127 time=0
EXTRACT: note_on channel=9 note=42 velocity=127 time=0
EXTRACT: note_on channel=4 note=40 velocity=100 time=0.15
EXTRACT: note_on channel=4 note=52 velocity=100 time=0
EXTRACT: note_on channel=9 note=42 velocity=50 time=0
EXTRACT: note_on channel=2 note=43 velocity=0 time=0.09
EXTRACT: note_on channel=2 note=55 velocity=0 time=0
EXTRACT: note_on channel=3 note=69 velocity=0 time=0
EXTRACT: note_on channel=9 note=38 velocity=0 time=0
EXTRACT: note_on channel=9 note=42 velocity=0 time=0
EXTRACT: note_on channel=9 note=42 velocity=0 time=0.03
EXTRACT: note_on channel=2 note=43 velocity=70 time=0.03
EXTRACT: note_on channel=2 note=55 velocity=100 time=0
EXTRACT: note_on channel=3 note=69 velocity=50 time=0
EXTRACT: note_on channel=9 note=42 velocity=127 time=0
EXTRACT: note_on channel=4 note=40 velocity=0 time=0.09
EXTRACT: note_on channel=4 note=52 velocity=0 time=0
EXTRACT: note_on channel=9 note=42 velocity=50 time=0.06
EXTRACT: note_on channel=2 note=43 velocity=0 time=0.09
EXTRACT: note_on channel=2 note=55 velocity=0 time=0
EXTRACT: note_on channel=3 note=69 velocity=0 time=0
EXTRACT: note_on channel=9 note=42 velocity=0 time=0
EXTRACT: note_on channel=9 note=42 velocity=0 time=0.03
EXTRACT: note_on channel=2 note=43 velocity=70 time=0.03
EXTRACT: note_on channel=2 note=55 velocity=100 time=0
EXTRACT: note_on channel=4 note=33 velocity=100 time=0
EXTRACT: note_on channel=4 note=45 velocity=100 time=0
EXTRACT: note_on channel=9 note=35 velocity=127 time=0
EXTRACT: note_on channel=9 note=42 velocity=127 time=0
EXTRACT: note_on channel=4 note=33 velocity=0 time=0.12
EXTRACT: note_on channel=4 note=45 velocity=0 time=0
EXTRACT: note_on channel=9 note=42 velocity=0 time=0
EXTRACT: note_on channel=4 note=33 velocity=100 time=0.03
EXTRACT: note_on channel=4 note=45 velocity=100 time=0
EXTRACT: note_on channel=9 note=42 velocity=50 time=0
EXTRACT: note_on channel=2 note=43 velocity=0 time=0.09
EXTRACT: note_on channel=2 note=55 velocity=0 time=0
EXTRACT: note_on channel=9 note=35 velocity=0 time=0
EXTRACT: note_on channel=4 note=33 velocity=0 time=0.03
EXTRACT: note_on channel=4 note=45 velocity=0 time=0
EXTRACT: note_on channel=9 note=42 velocity=0 time=0
EXTRACT: note_on channel=3 note=69 velocity=50 time=0.03
EXTRACT: note_on channel=9 note=42 velocity=127 time=0
EXTRACT: note_on channel=9 note=42 velocity=50 time=0.15
EXTRACT: note_on channel=3 note=69 velocity=0 time=0.09
EXTRACT: note_on channel=9 note=42 velocity=0 time=0
EXTRACT: note_on channel=9 note=42 velocity=0 time=0.03
EXTRACT: note_on channel=2 note=43 velocity=70 time=0.03
EXTRACT: note_on channel=2 note=55 velocity=100 time=0
EXTRACT: note_on channel=3 note=69 velocity=50 time=0
EXTRACT: note_on channel=9 note=38 velocity=127 time=0
EXTRACT: note_on channel=9 note=42 velocity=127 time=0
EXTRACT: note_on channel=9 note=42 velocity=50 time=0.15
EXTRACT: note_on channel=2 note=43 velocity=0 time=0.09
EXTRACT: note_on channel=2 note=55 velocity=0 time=0
EXTRACT: note_on channel=3 note=69 velocity=0 time=0
EXTRACT: note_on channel=9 note=38 velocity=0 time=0
EXTRACT: note_on channel=9 note=42 velocity=0 time=0
EXTRACT: note_on channel=9 note=42 velocity=0 time=0.03
EXTRACT: note_on channel=2 note=40 velocity=70 time=0.03
EXTRACT: note_on channel=2 note=52 velocity=100 time=0
EXTRACT: note_on channel=3 note=69 velocity=50 time=0
EXTRACT: note_on channel=9 note=42 velocity=127 time=0
EXTRACT: note_on channel=2 note=40 velocity=0 time=0.12
EXTRACT: note_on channel=2 note=52 velocity=0 time=0
EXTRACT: note_on channel=3 note=69 velocity=0 time=0
EXTRACT: note_on channel=2 note=45 velocity=70 time=0.03
EXTRACT: note_on channel=2 note=57 velocity=100 time=0
EXTRACT: note_on channel=3 note=69 velocity=50 time=0
EXTRACT: note_on channel=9 note=35 velocity=127 time=0
EXTRACT: note_on channel=9 note=42 velocity=50 time=0
EXTRACT: note_on channel=9 note=42 velocity=0 time=0.09
EXTRACT: note_on channel=3 note=69 velocity=0 time=0.03
EXTRACT: note_on channel=9 note=42 velocity=0 time=0
EXTRACT: note_on channel=9 note=42 velocity=127 time=0.03
EXTRACT: note_on channel=9 note=35 velocity=0 time=0.09
EXTRACT: note_on channel=3 note=69 velocity=50 time=0.06
EXTRACT: note_on channel=9 note=35 velocity=127 time=0
EXTRACT: note_on channel=9 note=42 velocity=50 time=0
EXTRACT: note_on channel=9 note=42 velocity=0 time=0.09
EXTRACT: note_on channel=3 note=69 velocity=0 time=0.03
EXTRACT: note_on channel=9 note=42 velocity=0 time=0
EXTRACT: note_on channel=3 note=69 velocity=50 time=0.03
EXTRACT: note_on channel=4 note=47 velocity=100 time=0
EXTRACT: note_on channel=4 note=59 velocity=100 time=0
EXTRACT: note_on channel=9 note=35 velocity=127 time=0
EXTRACT: note_on channel=9 note=42 velocity=127 time=0
EXTRACT: note_on channel=2 note=45 velocity=0 time=0.03
EXTRACT: note_on channel=2 note=57 velocity=0 time=0
EXTRACT: note_on channel=9 note=35 velocity=0 time=0.06
EXTRACT: note_on channel=3 note=69 velocity=0 time=0.03
EXTRACT: note_on channel=3 note=69 velocity=50 time=0.03
EXTRACT: note_on channel=9 note=42 velocity=50 time=0
EXTRACT: note_on channel=4 note=47 velocity=0 time=0.09
EXTRACT: note_on channel=4 note=59 velocity=0 time=0
EXTRACT: note_on channel=9 note=35 velocity=0 time=0
EXTRACT: note_on channel=9 note=42 velocity=0 time=0
EXTRACT: note_on channel=3 note=69 velocity=0 time=0.03
EXTRACT: note_on channel=9 note=42 velocity=0 time=0
EXTRACT: note_on channel=3 note=69 velocity=50 time=0.03
EXTRACT: note_on channel=9 note=38 velocity=127 time=0
EXTRACT: note_on channel=9 note=42 velocity=127 time=0
EXTRACT: note_on channel=4 note=45 velocity=100 time=0.15
EXTRACT: note_on channel=4 note=57 velocity=100 time=0
EXTRACT: note_on channel=9 note=42 velocity=50 time=0
EXTRACT: note_on channel=3 note=69 velocity=0 time=0.09
EXTRACT: note_on channel=9 note=38 velocity=0 time=0
EXTRACT: note_on channel=9 note=42 velocity=0 time=0
EXTRACT: note_on channel=9 note=42 velocity=0 time=0.03
EXTRACT: note_on channel=3 note=69 velocity=50 time=0.03
EXTRACT: note_on channel=9 note=42 velocity=127 time=0
EXTRACT: note_on channel=4 note=45 velocity=0 time=0.09
EXTRACT: note_on channel=4 note=57 velocity=0 time=0
EXTRACT: note_on channel=9 note=42 velocity=50 time=0.06
EXTRACT: note_on channel=3 note=69 velocity=0 time=0.09
EXTRACT: note_on channel=9 note=42 velocity=0 time=0
EXTRACT: note_on channel=9 note=42 velocity=0 time=0.03
EXTRACT: note_on channel=2 note=72 velocity=127 time=0.03
EXTRACT: note_on channel=4 note=33 velocity=100 time=0
EXTRACT: note_on channel=4 note=45 velocity=100 time=0
EXTRACT: note_on channel=9 note=35 velocity=127 time=0
EXTRACT: note_on channel=9 note=42 velocity=127 time=0
EXTRACT: note_on channel=4 note=33 velocity=0 time=0.12
EXTRACT: note_on channel=4 note=45 velocity=0 time=0
EXTRACT: note_on channel=9 note=42 velocity=0 time=0
EXTRACT: note_on channel=4 note=33 velocity=100 time=0.03
EXTRACT: note_on channel=4 note=45 velocity=100 time=0
EXTRACT: note_on channel=9 note=42 velocity=50 time=0
EXTRACT: note_on channel=2 note=72 velocity=0 time=0.09
EXTRACT: note_on channel=9 note=35 velocity=0 time=0
EXTRACT: note_on channel=4 note=33 velocity=0 time=0.03
EXTRACT: note_on channel=4 note=45 velocity=0 time=0
EXTRACT: note_on channel=9 note=42 velocity=0 time=0
EXTRACT: note_on channel=2 note=72 velocity=127 time=0.03
EXTRACT: note_on channel=3 note=69 velocity=50 time=0
EXTRACT: note_on channel=9 note=42 velocity=127 time=0
EXTRACT: note_on channel=9 note=42 velocity=50 time=0.15
EXTRACT: note_on channel=2 note=72 velocity=0 time=0.09
EXTRACT: note_on channel=3 note=69 velocity=0 time=0
EXTRACT: note_on channel=9 note=42 velocity=0 time=0
EXTRACT: note_on channel=9 note=42 velocity=0 time=0.03
EXTRACT: note_on channel=2 note=72 velocity=127 time=0.03
EXTRACT: note_on channel=3 note=69 velocity=50 time=0
EXTRACT: note_on channel=9 note=38 velocity=127 time=0
EXTRACT: note_on channel=9 note=42 velocity=127 time=0
EXTRACT: note_on channel=9 note=42 velocity=50 time=0.15
EXTRACT: note_on channel=2 note=72 velocity=0 time=0.09
EXTRACT: note_on channel=3 note=69 velocity=0 time=0
EXTRACT: note_on channel=9 note=38 velocity=0 time=0
EXTRACT: note_on channel=9 note=42 velocity=0 time=0
EXTRACT: note_on channel=9 note=42 velocity=0 time=0.03
EXTRACT: note_on channel=2 note=72 velocity=127 time=0.03
EXTRACT: note_on channel=3 note=69 velocity=50 time=0
EXTRACT: note_on channel=9 note=42 velocity=127 time=0
EXTRACT: note_on channel=3 note=69 velocity=0 time=0.12
EXTRACT: note_on channel=3 note=69 velocity=50 time=0.03
EXTRACT: note_on channel=9 note=35 velocity=127 time=0
EXTRACT: note_on channel=9 note=42 velocity=50 time=0
EXTRACT: note_on channel=2 note=72 velocity=0 time=0.09
EXTRACT: note_on channel=9 note=42 velocity=0 time=0
EXTRACT: note_on channel=3 note=69 velocity=0 time=0.03
EXTRACT: note_on channel=9 note=42 velocity=0 time=0
EXTRACT: note_on channel=2 note=72 velocity=127 time=0.03
EXTRACT: note_on channel=9 note=42 velocity=127 time=0
EXTRACT: note_on channel=9 note=35 velocity=0 time=0.09
EXTRACT: note_on channel=3 note=69 velocity=50 time=0.06
EXTRACT: note_on channel=9 note=35 velocity=127 time=0
EXTRACT: note_on channel=9 note=42 velocity=50 time=0
EXTRACT: note_on channel=2 note=72 velocity=0 time=0.09
EXTRACT: note_on channel=9 note=42 velocity=0 time=0
EXTRACT: note_on channel=3 note=69 velocity=0 time=0.03
EXTRACT: note_on channel=9 note=42 velocity=0 time=0
EXTRACT: note_on channel=2 note=69 velocity=127 time=0.03
EXTRACT: note_on channel=3 note=69 velocity=50 time=0
EXTRACT: note_on channel=4 note=38 velocity=100 time=0
EXTRACT: note_on channel=4 note=50 velocity=100 time=0
EXTRACT: note_on channel=9 note=35 velocity=127 time=0
EXTRACT: note_on channel=9 note=42 velocity=127 time=0
EXTRACT: note_on channel=9 note=35 velocity=0 time=0.09
EXTRACT: note_on channel=2 note=69 velocity=0 time=0.03
EXTRACT: note_on channel=3 note=69 velocity=0 time=0
EXTRACT: note_on channel=2 note=69 velocity=100 time=0.03
EXTRACT: note_on channel=3 note=69 velocity=50 time=0
EXTRACT: note_on channel=9 note=42 velocity=50 time=0
EXTRACT: note_on channel=4 note=38 velocity=0 time=0.09
EXTRACT: note_on channel=4 note=50 velocity=0 time=0
EXTRACT: note_on channel=9 note=35 velocity=0 time=0
EXTRACT: note_on channel=9 note=42 velocity=0 time=0
EXTRACT: note_on channel=3 note=69 velocity=0 time=0.03
EXTRACT: note_on channel=9 note=42 velocity=0 time=0
EXTRACT: note_on channel=3 note=69 velocity=50 time=0.03
EXTRACT: note_on channel=9 note=38 velocity=127 time=0
EXTRACT: note_on channel=9 note=42 velocity=127 time=0
EXTRACT: note_on channel=2 note=69 velocity=0 time=0.09
EXTRACT: note_on channel=4 note=40 velocity=100 time=0.06
EXTRACT: note_on channel=4 note=52 velocity=100 time=0
EXTRACT: note_on channel=9 note=42 velocity=50 time=0
EXTRACT: note_on channel=3 note=69 velocity=0 time=0.09
EXTRACT: note_on channel=9 note=38 velocity=0 time=0
EXTRACT: note_on channel=9 note=42 velocity=0 time=0
EXTRACT: note_on channel=9 note=42 velocity=0 time=0.03
EXTRACT: note_on channel=3 note=69 velocity=50 time=0.03
EXTRACT: note_on channel=9 note=42 velocity=127 time=0
EXTRACT: note_on channel=4 note=40 velocity=0 time=0.09
EXTRACT: note_on channel=4 note=52 velocity=0 time=0
EXTRACT: note_on channel=9 note=42 velocity=50 time=0.06
EXTRACT: note_on channel=3 note=69 velocity=0 time=0.09
EXTRACT: note_on channel=9 note=42 velocity=0 time=0
EXTRACT: note_on channel=9 note=42 velocity=0 time=0.03
EXTRACT: note_on channel=2 note=72 velocity=100 time=0.03
EXTRACT: note_on channel=4 note=33 velocity=100 time=0
EXTRACT: note_on channel=4 note=45 velocity=100 time=0
EXTRACT: note_on channel=9 note=35 velocity=127 time=0
EXTRACT: note_on channel=9 note=42 velocity=127 time=0
EXTRACT: note_on channel=4 note=33 velocity=0 time=0.12
EXTRACT: note_on channel=4 note=45 velocity=0 time=0
EXTRACT: note_on channel=9 note=42 velocity=0 time=0
EXTRACT: note_on channel=4 note=33 velocity=100 time=0.03
EXTRACT: note_on channel=4 note=45 velocity=100 time=0
EXTRACT: note_on channel=9 note=42 velocity=50 time=0
EXTRACT: note_on channel=2 note=72 velocity=0 time=0.09
EXTRACT: note_on channel=9 note=35 velocity=0 time=0
EXTRACT: note_on channel=4 note=33 velocity=0 time=0.03
EXTRACT: note_on channel=4 note=45 velocity=0 time=0
EXTRACT: note_on channel=9 note=42 velocity=0 time=0
EXTRACT: note_on channel=2 note=72 velocity=100 time=0.03
EXTRACT: note_on channel=3 note=69 velocity=50 time=0
EXTRACT: note_on channel=9 note=42 velocity=127 time=0
EXTRACT: note_on channel=9 note=42 velocity=50 time=0.15
EXTRACT: note_on channel=2 note=72 velocity=0 time=0.09
EXTRACT: note_on channel=3 note=69 velocity=0 time=0
EXTRACT: note_on channel=9 note=42 velocity=0 time=0
EXTRACT: note_on channel=9 note=42 velocity=0 time=0.03
EXTRACT: note_on channel=2 note=72 velocity=100 time=0.03
EXTRACT: note_on channel=3 note=69 velocity=50 time=0
EXTRACT: note_on channel=9 note=38 velocity=127 time=0
EXTRACT: note_on channel=9 note=42 velocity=127 time=0
EXTRACT: note_on channel=9 note=42 velocity=50 time=0.15
EXTRACT: note_on channel=2 note=72 velocity=0 time=0.09
EXTRACT: note_on channel=3 note=69 velocity=0 time=0
EXTRACT: note_on channel=9 note=38 velocity=0 time=0
EXTRACT: note_on channel=9 note=42 velocity=0 time=0
EXTRACT: note_on channel=9 note=42 velocity=0 time=0.03
EXTRACT: note_on channel=2 note=71 velocity=100 time=0.03
EXTRACT: note_on channel=3 note=69 velocity=50 time=0
EXTRACT: note_on channel=9 note=42 velocity=127 time=0
EXTRACT: note_on channel=3 note=69 velocity=0 time=0.12
EXTRACT: note_on channel=3 note=69 velocity=50 time=0.03
EXTRACT: note_on channel=4 note=33 velocity=100 time=0
EXTRACT: note_on channel=4 note=45 velocity=100 time=0
EXTRACT: note_on channel=9 note=35 velocity=127 time=0
EXTRACT: note_on channel=9 note=42 velocity=50 time=0
EXTRACT: note_on channel=2 note=71 velocity=0 time=0.09
EXTRACT: note_on channel=9 note=42 velocity=0 time=0
EXTRACT: note_on channel=3 note=69 velocity=0 time=0.03
EXTRACT: note_on channel=4 note=33 velocity=0 time=0
EXTRACT: note_on channel=4 note=45 velocity=0 time=0
EXTRACT: note_on channel=9 note=42 velocity=0 time=0
EXTRACT: note_on channel=2 note=69 velocity=100 time=0.03
EXTRACT: note_on channel=9 note=42 velocity=127 time=0
EXTRACT: note_on channel=9 note=35 velocity=0 time=0.09
EXTRACT: note_on channel=3 note=69 velocity=50 time=0.06
EXTRACT: note_on channel=9 note=35 velocity=127 time=0
EXTRACT: note_on channel=9 note=42 velocity=50 time=0
EXTRACT: note_on channel=9 note=42 velocity=0 time=0.09
EXTRACT: note_on channel=3 note=69 velocity=0 time=0.03
EXTRACT: note_on channel=9 note=42 velocity=0 time=0
EXTRACT: note_on channel=3 note=69 velocity=50 time=0.03
EXTRACT: note_on channel=4 note=47 velocity=100 time=0
EXTRACT: note_on channel=9 note=35 velocity=127 time=0
EXTRACT: note_on channel=9 note=42 velocity=127 time=0
EXTRACT: note_on channel=9 note=35 velocity=0 time=0.09
EXTRACT: note_on channel=3 note=69 velocity=0 time=0.03
EXTRACT: note_on channel=4 note=47 velocity=0 time=0
EXTRACT: note_on channel=3 note=69 velocity=50 time=0.03
EXTRACT: note_on channel=4 note=45 velocity=100 time=0
EXTRACT: note_on channel=9 note=42 velocity=50 time=0
EXTRACT: note_on channel=2 note=69 velocity=0 time=0.03
EXTRACT: note_on channel=9 note=35 velocity=0 time=0.06
EXTRACT: note_on channel=9 note=42 velocity=0 time=0
EXTRACT: note_on channel=3 note=69 velocity=0 time=0.03
EXTRACT: note_on channel=4 note=45 velocity=0 time=0
EXTRACT: note_on channel=9 note=42 velocity=0 time=0
EXTRACT: note_on channel=2 note=72 velocity=100 time=0.03
EXTRACT: note_on channel=3 note=69 velocity=50 time=0
EXTRACT: note_on channel=4 note=42 velocity=100 time=0
EXTRACT: note_on channel=9 note=38 velocity=127 time=0
EXTRACT: note_on channel=9 note=42 velocity=127 time=0
EXTRACT: note_on channel=4 note=42 velocity=0 time=0.12
EXTRACT: note_on channel=4 note=45 velocity=100 time=0.03
EXTRACT: note_on channel=5 note=62 velocity=100 time=0
EXTRACT: note_on channel=9 note=42 velocity=50 time=0
EXTRACT: note_on channel=3 note=69 velocity=0 time=0.09
EXTRACT: note_on channel=9 note=38 velocity=0 time=0
EXTRACT: note_on channel=9 note=42 velocity=0 time=0
EXTRACT: note_on channel=4 note=45 velocity=0 time=0.03
EXTRACT: note_on channel=5 note=62 velocity=0 time=0
EXTRACT: note_on channel=9 note=42 velocity=0 time=0
EXTRACT: note_on channel=3 note=69 velocity=50 time=0.03
EXTRACT: note_on channel=4 note=42 velocity=100 time=0
EXTRACT: note_on channel=5 note=64 velocity=100 time=0
EXTRACT: note_on channel=9 note=42 velocity=127 time=0
EXTRACT: note_on channel=4 note=42 velocity=0 time=0.12
EXTRACT: note_on channel=5 note=64 velocity=0 time=0
EXTRACT: note_on channel=4 note=40 velocity=100 time=0.03
EXTRACT: note_on channel=5 note=67 velocity=100 time=0
EXTRACT: note_on channel=9 note=42 velocity=50 time=0
EXTRACT: note_on channel=2 note=72 velocity=0 time=0.03
EXTRACT: note_on channel=3 note=69 velocity=0 time=0.06
EXTRACT: note_on channel=9 note=42 velocity=0 time=0
EXTRACT: note_on channel=4 note=40 velocity=0 time=0.03
EXTRACT: note_on channel=5 note=67 velocity=0 time=0
EXTRACT: note_on channel=9 note=42 velocity=0 time=0
EXTRACT: note_on channel=0 note=59 velocity=60 time=0.03
EXTRACT: note_on channel=0 note=62 velocity=60 time=0
EXTRACT: note_on channel=0 note=64 velocity=60 time=0
EXTRACT: note_on channel=0 note=69 velocity=60 time=0
EXTRACT: note_on channel=2 note=69 velocity=127 time=0
EXTRACT: note_on channel=4 note=31 velocity=100 time=0
EXTRACT: note_on channel=4 note=43 velocity=100 time=0
EXTRACT: note_on channel=5 note=81 velocity=100 time=0
EXTRACT: note_on channel=5 note=69 velocity=100 time=0
EXTRACT: note_on channel=9 note=35 velocity=127 time=0
EXTRACT: note_on channel=9 note=42 velocity=127 time=0
EXTRACT: note_on channel=4 note=31 velocity=0 time=0.12
EXTRACT: note_on channel=4 note=43 velocity=0 time=0
EXTRACT: note_on channel=9 note=42 velocity=0 time=0
EXTRACT: note_on channel=4 note=31 velocity=100 time=0.03
EXTRACT: note_on channel=4 note=43 velocity=100 time=0
EXTRACT: note_on channel=9 note=42 velocity=50 time=0
EXTRACT: note_on channel=9 note=35 velocity=0 time=0.09
EXTRACT: note_on channel=4 note=31 velocity=0 time=0.03
EXTRACT: note_on channel=4 note=43 velocity=0 time=0
EXTRACT: note_on channel=9 note=42 velocity=0 time=0
EXTRACT: note_on channel=9 note=42 velocity=127 time=0.03
EXTRACT: note_on channel=9 note=42 velocity=50 time=0.15
EXTRACT: note_on channel=0 note=59 velocity=0 time=0.03
EXTRACT: note_on channel=0 note=62 velocity=0 time=0
EXTRACT: note_on channel=0 note=64 velocity=0 time=0
EXTRACT: note_on channel=0 note=69 velocity=0 time=0
EXTRACT: note_on channel=9 note=42 velocity=0 time=0.06
EXTRACT: note_on channel=9 note=42 velocity=0 time=0.03
EXTRACT: note_on channel=9 note=38 velocity=127 time=0.03
EXTRACT: note_on channel=9 note=42 velocity=127 time=0
EXTRACT: note_on channel=0 note=73 velocity=40 time=0.15
EXTRACT: note_on channel=0 note=76 velocity=40 time=0
EXTRACT: note_on channel=9 note=42 velocity=50 time=0
EXTRACT: note_on channel=9 note=38 velocity=0 time=0.09
EXTRACT: note_on channel=9 note=42 velocity=0 time=0
EXTRACT: note_on channel=0 note=73 velocity=0 time=0.03
EXTRACT: note_on channel=0 note=76 velocity=0 time=0
EXTRACT: note_on channel=9 note=42 velocity=0 time=0
EXTRACT: note_on channel=9 note=42 velocity=127 time=0.03
EXTRACT: note_on channel=0 note=71 velocity=40 time=0.15
EXTRACT: note_on channel=0 note=74 velocity=40 time=0
EXTRACT: note_on channel=9 note=35 velocity=127 time=0
EXTRACT: note_on channel=9 note=42 velocity=50 time=0
EXTRACT: note_on channel=9 note=42 velocity=0 time=0.09
EXTRACT: note_on channel=0 note=71 velocity=0 time=0.03
EXTRACT: note_on channel=0 note=74 velocity=0 time=0
EXTRACT: note_on channel=9 note=42 velocity=0 time=0
EXTRACT: note_on channel=9 note=42 velocity=127 time=0.03
EXTRACT: note_on channel=9 note=35 velocity=0 time=0.09
EXTRACT: note_on channel=9 note=35 velocity=127 time=0.06
EXTRACT: note_on channel=9 note=42 velocity=50 time=0
EXTRACT: note_on channel=9 note=42 velocity=0 time=0.09
EXTRACT: note_on channel=9 note=42 velocity=0 time=0.03
EXTRACT: note_on channel=4 note=31 velocity=100 time=0.03
EXTRACT: note_on channel=4 note=43 velocity=100 time=0
EXTRACT: note_on channel=9 note=35 velocity=127 time=0
EXTRACT: note_on channel=9 note=42 velocity=127 time=0
EXTRACT: note_on channel=9 note=35 velocity=0 time=0.09
EXTRACT: note_on channel=9 note=42 velocity=50 time=0.06
EXTRACT: note_on channel=4 note=31 velocity=0 time=0.09
EXTRACT: note_on channel=4 note=43 velocity=0 time=0
EXTRACT: note_on channel=9 note=35 velocity=0 time=0
EXTRACT: note_on channel=9 note=42 velocity=0 time=0
EXTRACT: note_on channel=9 note=42 velocity=0 time=0.03
EXTRACT: note_on channel=9 note=38 velocity=127 time=0.03
EXTRACT: note_on channel=9 note=42 velocity=127 time=0
EXTRACT: note_on channel=2 note=69 velocity=0 time=0.12
EXTRACT: note_on channel=5 note=81 velocity=0 time=0
EXTRACT: note_on channel=5 note=69 velocity=0 time=0
EXTRACT: note_on channel=4 note=32 velocity=100 time=0.03
EXTRACT: note_on channel=4 note=44 velocity=100 time=0
EXTRACT: note_on channel=9 note=42 velocity=50 time=0
EXTRACT: note_on channel=9 note=38 velocity=0 time=0.09
EXTRACT: note_on channel=9 note=42 velocity=0 time=0
EXTRACT: note_on channel=9 note=42 velocity=0 time=0.03
EXTRACT: note_on channel=2 note=72 velocity=127 time=0.03
EXTRACT: note_on channel=9 note=42 velocity=127 time=0
EXTRACT: note_on channel=4 note=32 velocity=0 time=0.09
EXTRACT: note_on channel=4 note=44 velocity=0 time=0
EXTRACT: note_on channel=9 note=42 velocity=50 time=0.06
EXTRACT: note_on channel=9 note=42 velocity=0 time=0.09
EXTRACT: note_on channel=9 note=42 velocity=0 time=0.03
EXTRACT: note_on channel=0 note=61 velocity=60 time=0.03
EXTRACT: note_on channel=0 note=64 velocity=60 time=0
EXTRACT: note_on channel=0 note=69 velocity=60 time=0
EXTRACT: note_on channel=4 note=33 velocity=100 time=0
EXTRACT: note_on channel=4 note=45 velocity=100 time=0
EXTRACT: note_on channel=5 note=76 velocity=100 time=0
EXTRACT: note_on channel=5 note=64 velocity=100 time=0
EXTRACT: note_on channel=9 note=35 velocity=127 time=0
EXTRACT: note_on channel=9 note=42 velocity=127 time=0
EXTRACT: note_on channel=4 note=33 velocity=0 time=0.12
EXTRACT: note_on channel=4 note=45 velocity=0 time=0
EXTRACT: note_on channel=9 note=42 velocity=0 time=0
EXTRACT: note_on channel=4 note=33 velocity=100 time=0.03
EXTRACT: note_on channel=4 note=45 velocity=100 time=0
EXTRACT: note_on channel=9 note=42 velocity=50 time=0
EXTRACT: note_on channel=2 note=72 velocity=0 time=0.03
EXTRACT: note_on channel=9 note=35 velocity=0 time=0.06
EXTRACT: note_on channel=4 note=33 velocity=0 time=0.03
EXTRACT: note_on channel=4 note=45 velocity=0 time=0
EXTRACT: note_on channel=9 note=42 velocity=0 time=0
EXTRACT: note_on channel=2 note=71 velocity=127 time=0.03
EXTRACT: note_on channel=9 note=42 velocity=127 time=0
EXTRACT: note_on channel=9 note=42 velocity=50 time=0.15
EXTRACT: note_on channel=2 note=71 velocity=0 time=0.09
EXTRACT: note_on channel=9 note=42 velocity=0 time=0
EXTRACT: note_on channel=9 note=42 velocity=0 time=0.03
EXTRACT: note_on channel=2 note=69 velocity=127 time=0.03
EXTRACT: note_on channel=9 note=38 velocity=127 time=0
EXTRACT: note_on channel=9 note=42 velocity=127 time=0
EXTRACT: note_on channel=9 note=42 velocity=50 time=0.15
EXTRACT: note_on channel=2 note=69 velocity=0 time=0.09
EXTRACT: note_on channel=9 note=38 velocity=0 time=0
EXTRACT: note_on channel=9 note=42 velocity=0 time=0
EXTRACT: note_on channel=9 note=42 velocity=0 time=0.03
EXTRACT: note_on channel=2 note=69 velocity=127 time=0.03
EXTRACT: note_on channel=9 note=42 velocity=127 time=0
EXTRACT: note_on channel=9 note=35 velocity=127 time=0.15
EXTRACT: note_on channel=9 note=42 velocity=50 time=0
EXTRACT: note_on channel=9 note=42 velocity=0 time=0.09
EXTRACT: note_on channel=9 note=42 velocity=0 time=0.03
EXTRACT: note_on channel=4 note=35 velocity=100 time=0.03
EXTRACT: note_on channel=4 note=47 velocity=100 time=0
EXTRACT: note_on channel=9 note=42 velocity=127 time=0
EXTRACT: note_on channel=9 note=35 velocity=0 time=0.09
EXTRACT: note_on channel=9 note=35 velocity=127 time=0.06
EXTRACT: note_on channel=9 note=42 velocity=50 time=0
EXTRACT: note_on channel=2 note=69 velocity=0 time=0.03
EXTRACT: note_on channel=4 note=35 velocity=0 time=0.06
EXTRACT: note_on channel=4 note=47 velocity=0 time=0
EXTRACT: note_on channel=9 note=42 velocity=0 time=0
EXTRACT: note_on channel=9 note=42 velocity=0 time=0.03
EXTRACT: note_on channel=2 note=66 velocity=127 time=0.03
EXTRACT: note_on channel=4 note=35 velocity=100 time=0
EXTRACT: note_on channel=4 note=47 velocity=100 time=0
EXTRACT: note_on channel=9 note=35 velocity=127 time=0
EXTRACT: note_on channel=9 note=42 velocity=127 time=0
EXTRACT: note_on channel=9 note=35 velocity=0 time=0.09
EXTRACT: note_on channel=4 note=35 velocity=0 time=0.03
EXTRACT: note_on channel=4 note=47 velocity=0 time=0
EXTRACT: note_on channel=4 note=33 velocity=100 time=0.03
EXTRACT: note_on channel=4 note=45 velocity=100 time=0
EXTRACT: note_on channel=9 note=42 velocity=50 time=0
EXTRACT: note_on channel=2 note=66 velocity=0 time=0.09
EXTRACT: note_on channel=9 note=35 velocity=0 time=0
EXTRACT: note_on channel=9 note=42 velocity=0 time=0
EXTRACT: note_on channel=9 note=42 velocity=0 time=0.03
EXTRACT: note_on channel=2 note=69 velocity=127 time=0.03
EXTRACT: note_on channel=9 note=38 velocity=127 time=0
EXTRACT: note_on channel=9 note=42 velocity=127 time=0
EXTRACT: note_on channel=4 note=33 velocity=0 time=0.09
EXTRACT: note_on channel=4 note=45 velocity=0 time=0
EXTRACT: note_on channel=0 note=61 velocity=0 time=0.03
EXTRACT: note_on channel=0 note=64 velocity=0 time=0
EXTRACT: note_on channel=0 note=69 velocity=0 time=0
EXTRACT: note_on channel=5 note=76 velocity=0 time=0
EXTRACT: note_on channel=5 note=64 velocity=0 time=0
EXTRACT: note_on channel=9 note=42 velocity=50 time=0.03
EXTRACT: note_on channel=2 note=69 velocity=0 time=0.09
EXTRACT: note_on channel=9 note=38 velocity=0 time=0
EXTRACT: note_on channel=9 note=42 velocity=0 time=0
EXTRACT: note_on channel=9 note=42 velocity=0 time=0.03
EXTRACT: note_on channel=2 note=66 velocity=127 time=0.03
EXTRACT: note_on channel=4 note=30 velocity=100 time=0
EXTRACT: note_on channel=4 note=42 velocity=100 time=0
EXTRACT: note_on channel=9 note=42 velocity=127 time=0
EXTRACT: note_on channel=9 note=42 velocity=50 time=0.15
EXTRACT: note_on channel=2 note=66 velocity=0 time=0.09
EXTRACT: note_on channel=4 note=30 velocity=0 time=0
EXTRACT: note_on channel=4 note=42 velocity=0 time=0
EXTRACT: note_on channel=9 note=42 velocity=0 time=0
EXTRACT: note_on channel=9 note=42 velocity=0 time=0.03
EXTRACT: note_on channel=0 note=59 velocity=60 time=0.03
EXTRACT: note_on channel=0 note=64 velocity=60 time=0
EXTRACT: note_on channel=0 note=62 velocity=60 time=0
EXTRACT: note_on channel=0 note=69 velocity=60 time=0
EXTRACT: note_on channel=2 note=69 velocity=127 time=0
EXTRACT: note_on channel=4 note=31 velocity=100 time=0
EXTRACT: note_on channel=4 note=43 velocity=100 time=0
EXTRACT: note_on channel=5 note=81 velocity=100 time=0
EXTRACT: note_on channel=5 note=69 velocity=100 time=0
EXTRACT: note_on channel=9 note=35 velocity=127 time=0
EXTRACT: note_on channel=9 note=42 velocity=127 time=0
EXTRACT: note_on channel=4 note=31 velocity=0 time=0.12
EXTRACT: note_on channel=4 note=43 velocity=0 time=0
EXTRACT: note_on channel=9 note=42 velocity=0 time=0
EXTRACT: note_on channel=4 note=31 velocity=100 time=0.03
EXTRACT: note_on channel=4 note=43 velocity=100 time=0
EXTRACT: note_on channel=9 note=42 velocity=50 time=0
EXTRACT: note_on channel=9 note=35 velocity=0 time=0.09
EXTRACT: note_on channel=4 note=31 velocity=0 time=0.03
EXTRACT: note_on channel=4 note=43 velocity=0 time=0
EXTRACT: note_on channel=9 note=42 velocity=0 time=0
EXTRACT: note_on channel=9 note=42 velocity=127 time=0.03
EXTRACT: note_on channel=9 note=42 velocity=50 time=0.15
EXTRACT: note_on channel=9 note=42 velocity=0 time=0.09
EXTRACT: note_on channel=9 note=42 velocity=0 time=0.03
EXTRACT: note_on channel=9 note=38 velocity=127 time=0.03
EXTRACT: note_on channel=9 note=42 velocity=127 time=0
EXTRACT: note_on channel=0 note=73 velocity=40 time=0.15
EXTRACT: note_on channel=0 note=76 velocity=40 time=0
EXTRACT: note_on channel=9 note=42 velocity=50 time=0
EXTRACT: note_on channel=9 note=38 velocity=0 time=0.09
EXTRACT: note_on channel=9 note=42 velocity=0 time=0
EXTRACT: note_on channel=0 note=73 velocity=0 time=0.03
EXTRACT: note_on channel=0 note=76 velocity=0 time=0
EXTRACT: note_on channel=9 note=42 velocity=0 time=0
EXTRACT: note_on channel=9 note=42 velocity=127 time=0.03
EXTRACT: note_on channel=2 note=69 velocity=0 time=0.06
EXTRACT: note_on channel=0 note=71 velocity=40 time=0.09
EXTRACT: note_on channel=0 note=74 velocity=40 time=0
EXTRACT: note_on channel=9 note=35 velocity=127 time=0
EXTRACT: note_on channel=9 note=42 velocity=50 time=0
EXTRACT: note_on channel=9 note=42 velocity=0 time=0.09
EXTRACT: note_on channel=0 note=71 velocity=0 time=0.03
EXTRACT: note_on channel=0 note=74 velocity=0 time=0
EXTRACT: note_on channel=9 note=42 velocity=0 time=0
EXTRACT: note_on channel=9 note=42 velocity=127 time=0.03
EXTRACT: note_on channel=9 note=35 velocity=0 time=0.09
EXTRACT: note_on channel=9 note=35 velocity=127 time=0.06
EXTRACT: note_on channel=9 note=42 velocity=50 time=0
EXTRACT: note_on channel=9 note=42 velocity=0 time=0.09
EXTRACT: note_on channel=9 note=42 velocity=0 time=0.03
EXTRACT: note_on channel=2 note=69 velocity=127 time=0.03
EXTRACT: note_on channel=4 note=31 velocity=100 time=0
EXTRACT: note_on channel=4 note=43 velocity=100 time=0
EXTRACT: note_on channel=9 note=35 velocity=127 time=0
EXTRACT: note_on channel=9 note=42 velocity=127 time=0
EXTRACT: note_on channel=9 note=35 velocity=0 time=0.09
EXTRACT: note_on channel=9 note=42 velocity=50 time=0.06
EXTRACT: note_on channel=2 note=69 velocity=0 time=0.09
EXTRACT: note_on channel=4 note=31 velocity=0 time=0
EXTRACT: note_on channel=4 note=43 velocity=0 time=0
EXTRACT: note_on channel=9 note=35 velocity=0 time=0
EXTRACT: note_on channel=9 note=42 velocity=0 time=0
EXTRACT: note_on channel=9 note=42 velocity=0 time=0.03
EXTRACT: note_on channel=2 note=69 velocity=127 time=0.03
EXTRACT: note_on channel=9 note=38 velocity=127 time=0
EXTRACT: note_on channel=9 note=42 velocity=127 time=0
EXTRACT: note_on channel=0 note=59 velocity=0 time=0.12
EXTRACT: note_on channel=0 note=64 velocity=0 time=0
EXTRACT: note_on channel=0 note=62 velocity=0 time=0
EXTRACT: note_on channel=0 note=69 velocity=0 time=0
EXTRACT: note_on channel=5 note=81 velocity=0 time=0
EXTRACT: note_on channel=5 note=69 velocity=0 time=0
EXTRACT: note_on channel=4 note=32 velocity=100 time=0.03
EXTRACT: note_on channel=4 note=44 velocity=100 time=0
EXTRACT: note_on channel=9 note=42 velocity=50 time=0
EXTRACT: note_on channel=2 note=69 velocity=0 time=0.09
EXTRACT: note_on channel=9 note=38 velocity=0 time=0
EXTRACT: note_on channel=9 note=42 velocity=0 time=0
EXTRACT: note_on channel=9 note=42 velocity=0 time=0.03
EXTRACT: note_on channel=2 note=66 velocity=127 time=0.03
EXTRACT: note_on channel=9 note=42 velocity=127 time=0
EXTRACT: note_on channel=4 note=32 velocity=0 time=0.09
EXTRACT: note_on channel=4 note=44 velocity=0 time=0
EXTRACT: note_on channel=9 note=42 velocity=50 time=0.06
EXTRACT: note_on channel=9 note=42 velocity=0 time=0.09
EXTRACT: note_on channel=9 note=42 velocity=0 time=0.03
EXTRACT: note_on channel=0 note=61 velocity=60 time=0.03
EXTRACT: note_on channel=0 note=64 velocity=60 time=0
EXTRACT: note_on channel=0 note=69 velocity=60 time=0
EXTRACT: note_on channel=4 note=33 velocity=100 time=0
EXTRACT: note_on channel=4 note=45 velocity=100 time=0
EXTRACT: note_on channel=5 note=88 velocity=100 time=0
EXTRACT: note_on channel=5 note=76 velocity=100 time=0
EXTRACT: note_on channel=9 note=35 velocity=127 time=0
EXTRACT: note_on channel=9 note=42 velocity=127 time=0
EXTRACT: note_on channel=4 note=33 velocity=0 time=0.12
EXTRACT: note_on channel=4 note=45 velocity=0 time=0
EXTRACT: note_on channel=9 note=42 velocity=0 time=0
EXTRACT: note_on channel=4 note=33 velocity=100 time=0.03
EXTRACT: note_on channel=4 note=45 velocity=100 time=0
EXTRACT: note_on channel=9 note=42 velocity=50 time=0
EXTRACT: note_on channel=2 note=66 velocity=0 time=0.03
EXTRACT: note_on channel=9 note=35 velocity=0 time=0.06
EXTRACT: note_on channel=4 note=33 velocity=0 time=0.03
EXTRACT: note_on channel=4 note=45 velocity=0 time=0
EXTRACT: note_on channel=9 note=42 velocity=0 time=0
EXTRACT: note_on channel=2 note=69 velocity=127 time=0.03
EXTRACT: note_on channel=9 note=42 velocity=127 time=0
EXTRACT: note_on channel=9 note=42 velocity=50 time=0.15
EXTRACT: note_on channel=9 note=42 velocity=0 time=0.09
EXTRACT: note_on channel=9 note=42 velocity=0 time=0.03
EXTRACT: note_on channel=9 note=38 velocity=127 time=0.03
EXTRACT: note_on channel=9 note=42 velocity=127 time=0
EXTRACT: note_on channel=9 note=42 velocity=50 time=0.15
EXTRACT: note_on channel=9 note=38 velocity=0 time=0.09
EXTRACT: note_on channel=9 note=42 velocity=0 time=0
EXTRACT: note_on channel=9 note=42 velocity=0 time=0.03
EXTRACT: note_on channel=9 note=42 velocity=127 time=0.03
EXTRACT: note_on channel=9 note=35 velocity=127 time=0.15
EXTRACT: note_on channel=9 note=42 velocity=50 time=0
EXTRACT: note_on channel=9 note=42 velocity=0 time=0.09
EXTRACT: note_on channel=9 note=42 velocity=0 time=0.03
EXTRACT: note_on channel=9 note=42 velocity=127 time=0.03
EXTRACT: note_on channel=2 note=69 velocity=0 time=0.06
EXTRACT: note_on channel=9 note=35 velocity=0 time=0.03
EXTRACT: note_on channel=9 note=35 velocity=127 time=0.06
EXTRACT: note_on channel=9 note=42 velocity=50 time=0
EXTRACT: note_on channel=9 note=42 velocity=0 time=0.09
EXTRACT: note_on channel=9 note=42 velocity=0 time=0.03
EXTRACT: note_on channel=2 note=73 velocity=127 time=0.03
EXTRACT: note_on channel=4 note=28 velocity=100 time=0
EXTRACT: note_on channel=4 note=40 velocity=100 time=0
EXTRACT: note_on channel=9 note=35 velocity=127 time=0
EXTRACT: note_on channel=9 note=42 velocity=127 time=0
EXTRACT: note_on channel=9 note=35 velocity=0 time=0.09
EXTRACT: note_on channel=9 note=42 velocity=50 time=0.06
EXTRACT: note_on channel=2 note=73 velocity=0 time=0.09
EXTRACT: note_on channel=4 note=28 velocity=0 time=0
EXTRACT: note_on channel=4 note=40 velocity=0 time=0
EXTRACT: note_on channel=9 note=35 velocity=0 time=0
EXTRACT: note_on channel=9 note=42 velocity=0 time=0
EXTRACT: note_on channel=9 note=42 velocity=0 time=0.03
EXTRACT: note_on channel=2 note=71 velocity=127 time=0.03
EXTRACT: note_on channel=9 note=38 velocity=127 time=0
EXTRACT: note_on channel=9 note=42 velocity=127 time=0
EXTRACT: note_on channel=0 note=61 velocity=0 time=0.12
EXTRACT: note_on channel=0 note=64 velocity=0 time=0
EXTRACT: note_on channel=0 note=69 velocity=0 time=0
EXTRACT: note_on channel=5 note=88 velocity=0 time=0
EXTRACT: note_on channel=5 note=76 velocity=0 time=0
EXTRACT: note_on channel=4 note=30 velocity=100 time=0.03
EXTRACT: note_on channel=4 note=42 velocity=100 time=0
EXTRACT: note_on channel=5 note=62 velocity=100 time=0
EXTRACT: note_on channel=9 note=42 velocity=50 time=0
EXTRACT: note_on channel=2 note=71 velocity=0 time=0.09
EXTRACT: note_on channel=9 note=38 velocity=0 time=0
EXTRACT: note_on channel=9 note=42 velocity=0 time=0
EXTRACT: note_on channel=5 note=62 velocity=0 time=0.03
EXTRACT: note_on channel=9 note=42 velocity=0 time=0
EXTRACT: note_on channel=2 note=69 velocity=127 time=0.03
EXTRACT: note_on channel=5 note=64 velocity=100 time=0
EXTRACT: note_on channel=9 note=42 velocity=127 time=0
EXTRACT: note_on channel=4 note=30 velocity=0 time=0.09
EXTRACT: note_on channel=4 note=42 velocity=0 time=0
EXTRACT: note_on channel=5 note=64 velocity=0 time=0.03
EXTRACT: note_on channel=5 note=67 velocity=100 time=0.03
EXTRACT: note_on channel=9 note=42 velocity=50 time=0
EXTRACT: note_on channel=2 note=69 velocity=0 time=0.09
EXTRACT: note_on channel=9 note=42 velocity=0 time=0
EXTRACT: note_on channel=5 note=67 velocity=0 time=0.03
EXTRACT: note_on channel=9 note=42 velocity=0 time=0
EXTRACT: note_on channel=0 note=59 velocity=60 time=0.03
EXTRACT: note_on channel=0 note=62 velocity=60 time=0
EXTRACT: note_on channel=0 note=64 velocity=60 time=0
EXTRACT: note_on channel=0 note=69 velocity=60 time=0
EXTRACT: note_on channel=2 note=69 velocity=127 time=0
EXTRACT: note_on channel=4 note=31 velocity=100 time=0
EXTRACT: note_on channel=4 note=43 velocity=100 time=0
EXTRACT: note_on channel=5 note=81 velocity=100 time=0
EXTRACT: note_on channel=5 note=69 velocity=100 time=0
EXTRACT: note_on channel=5 note=69 velocity=100 time=0
EXTRACT: note_on channel=9 note=35 velocity=127 time=0
EXTRACT: note_on channel=9 note=42 velocity=127 time=0
EXTRACT: note_on channel=4 note=31 velocity=0 time=0.12
EXTRACT: note_on channel=4 note=43 velocity=0 time=0
EXTRACT: note_on channel=5 note=69 velocity=0 time=0
EXTRACT: note_on channel=9 note=42 velocity=0 time=0
EXTRACT: note_on channel=4 note=31 velocity=100 time=0.03
EXTRACT: note_on channel=4 note=43 velocity=100 time=0
EXTRACT: note_on channel=9 note=42 velocity=50 time=0
EXTRACT: note_on channel=9 note=35 velocity=0 time=0.09
EXTRACT: note_on channel=4 note=31 velocity=0 time=0.03
EXTRACT: note_on channel=4 note=43 velocity=0 time=0
EXTRACT: note_on channel=9 note=42 velocity=0 time=0
EXTRACT: note_on channel=9 note=42 velocity=127 time=0.03
EXTRACT: note_on channel=9 note=42 velocity=50 time=0.15
EXTRACT: note_on channel=9 note=42 velocity=0 time=0.09
EXTRACT: note_on channel=9 note=42 velocity=0 time=0.03
EXTRACT: note_on channel=9 note=38 velocity=127 time=0.03
EXTRACT: note_on channel=9 note=42 velocity=127 time=0
EXTRACT: note_on channel=0 note=73 velocity=40 time=0.15
EXTRACT: note_on channel=0 note=76 velocity=40 time=0
EXTRACT: note_on channel=9 note=42 velocity=50 time=0
EXTRACT: note_on channel=9 note=38 velocity=0 time=0.09
EXTRACT: note_on channel=9 note=42 velocity=0 time=0
EXTRACT: note_on channel=0 note=73 velocity=0 time=0.03
EXTRACT: note_on channel=0 note=76 velocity=0 time=0
EXTRACT: note_on channel=9 note=42 velocity=0 time=0
EXTRACT: note_on channel=9 note=42 velocity=127 time=0.03
EXTRACT: note_on channel=0 note=71 velocity=40 time=0.15
EXTRACT: note_on channel=0 note=74 velocity=40 time=0
EXTRACT: note_on channel=9 note=35 velocity=127 time=0
EXTRACT: note_on channel=9 note=42 velocity=50 time=0
EXTRACT: note_on channel=9 note=42 velocity=0 time=0.09
EXTRACT: note_on channel=0 note=71 velocity=0 time=0.03
EXTRACT: note_on channel=0 note=74 velocity=0 time=0
EXTRACT: note_on channel=9 note=42 velocity=0 time=0
EXTRACT: note_on channel=9 note=42 velocity=127 time=0.03
EXTRACT: note_on channel=9 note=35 velocity=0 time=0.09
EXTRACT: note_on channel=9 note=35 velocity=127 time=0.06
EXTRACT: note_on channel=9 note=42 velocity=50 time=0
EXTRACT: note_on channel=9 note=42 velocity=0 time=0.09
EXTRACT: note_on channel=9 note=42 velocity=0 time=0.03
EXTRACT: note_on channel=4 note=31 velocity=100 time=0.03
EXTRACT: note_on channel=4 note=43 velocity=100 time=0
EXTRACT: note_on channel=9 note=35 velocity=127 time=0
EXTRACT: note_on channel=9 note=42 velocity=127 time=0
EXTRACT: note_on channel=9 note=35 velocity=0 time=0.09
EXTRACT: note_on channel=9 note=42 velocity=50 time=0.06
EXTRACT: note_on channel=4 note=31 velocity=0 time=0.09
EXTRACT: note_on channel=4 note=43 velocity=0 time=0
EXTRACT: note_on channel=9 note=35 velocity=0 time=0
EXTRACT: note_on channel=9 note=42 velocity=0 time=0
EXTRACT: note_on channel=9 note=42 velocity=0 time=0.03
EXTRACT: note_on channel=9 note=38 velocity=127 time=0.03
EXTRACT: note_on channel=9 note=42 velocity=127 time=0
EXTRACT: note_on channel=2 note=52 velocity=0 time=0
EXTRACT: note_on channel=0 note=59 velocity=0 time=0.12
EXTRACT: note_on channel=0 note=62 velocity=0 time=0
EXTRACT: note_on channel=0 note=64 velocity=0 time=0
EXTRACT: note_on channel=0 note=69 velocity=0 time=0
EXTRACT: note_on channel=2 note=69 velocity=0 time=0
EXTRACT: note_on channel=5 note=81 velocity=0 time=0
EXTRACT: note_on channel=5 note=69 velocity=0 time=0
EXTRACT: note_on channel=4 note=32 velocity=100 time=0.03
EXTRACT: note_on channel=4 note=44 velocity=100 time=0
EXTRACT: note_on channel=9 note=42 velocity=50 time=0
EXTRACT: note_on channel=9 note=38 velocity=0 time=0.09
EXTRACT: note_on channel=9 note=42 velocity=0 time=0
EXTRACT: note_on channel=9 note=42 velocity=0 time=0.03
EXTRACT: note_on channel=2 note=72 velocity=127 time=0.03
EXTRACT: note_on channel=9 note=42 velocity=127 time=0
EXTRACT: note_on channel=2 note=54 velocity=0 time=0
EXTRACT: note_on channel=4 note=32 velocity=0 time=0.09
EXTRACT: note_on channel=4 note=44 velocity=0 time=0
EXTRACT: note_on channel=9 note=42 velocity=50 time=0.06
EXTRACT: note_on channel=9 note=42 velocity=0 time=0.09
EXTRACT: note_on channel=9 note=42 velocity=0 time=0.03
EXTRACT: note_on channel=0 note=61 velocity=60 time=0.03
EXTRACT: note_on channel=0 note=64 velocity=60 time=0
EXTRACT: note_on channel=0 note=69 velocity=60 time=0
EXTRACT: note_on channel=4 note=33 velocity=100 time=0
EXTRACT: note_on channel=4 note=45 velocity=100 time=0
EXTRACT: note_on channel=5 note=76 velocity=100 time=0
EXTRACT: note_on channel=5 note=64 velocity=100 time=0
EXTRACT: note_on channel=9 note=35 velocity=127 time=0
EXTRACT: note_on channel=9 note=42 velocity=127 time=0
EXTRACT: note_on channel=2 note=52 velocity=0 time=0
EXTRACT: note_on channel=2 note=54 velocity=0 time=0
EXTRACT: note_on channel=4 note=33 velocity=0 time=0.12
EXTRACT: note_on channel=4 note=45 velocity=0 time=0
EXTRACT: note_on channel=9 note=42 velocity=0 time=0
EXTRACT: note_on channel=4 note=33 velocity=100 time=0.03
EXTRACT: note_on channel=4 note=45 velocity=100 time=0
EXTRACT: note_on channel=9 note=42 velocity=50 time=0
EXTRACT: note_on channel=2 note=72 velocity=0 time=0.03
EXTRACT: note_on channel=9 note=35 velocity=0 time=0.06
EXTRACT: note_on channel=4 note=33 velocity=0 time=0.03
EXTRACT: note_on channel=4 note=45 velocity=0 time=0
EXTRACT: note_on channel=9 note=42 velocity=0 time=0
EXTRACT: note_on channel=2 note=71 velocity=127 time=0.03
EXTRACT: note_on channel=9 note=42 velocity=127 time=0
EXTRACT: note_on channel=9 note=42 velocity=50 time=0.15
EXTRACT: note_on channel=2 note=71 velocity=0 time=0.09
EXTRACT: note_on channel=9 note=42 velocity=0 time=0
EXTRACT: note_on channel=9 note=42 velocity=0 time=0.03
EXTRACT: note_on channel=2 note=71 velocity=127 time=0.03
EXTRACT: note_on channel=9 note=38 velocity=127 time=0
EXTRACT: note_on channel=9 note=42 velocity=127 time=0
EXTRACT: note_on channel=9 note=42 velocity=50 time=0.15
EXTRACT: note_on channel=2 note=71 velocity=0 time=0.09
EXTRACT: note_on channel=9 note=38 velocity=0 time=0
EXTRACT: note_on channel=9 note=42 velocity=0 time=0
EXTRACT: note_on channel=9 note=42 velocity=0 time=0.03
EXTRACT: note_on channel=2 note=69 velocity=127 time=0.03
EXTRACT: note_on channel=9 note=42 velocity=127 time=0
EXTRACT: note_on channel=9 note=35 velocity=127 time=0.15
EXTRACT: note_on channel=9 note=42 velocity=50 time=0
EXTRACT: note_on channel=2 note=69 velocity=0 time=0.09
EXTRACT: note_on channel=9 note=42 velocity=0 time=0
EXTRACT: note_on channel=9 note=42 velocity=0 time=0.03
EXTRACT: note_on channel=2 note=69 velocity=127 time=0.03
EXTRACT: note_on channel=9 note=42 velocity=127 time=0
EXTRACT: note_on channel=9 note=35 velocity=0 time=0.09
EXTRACT: note_on channel=9 note=35 velocity=127 time=0.06
EXTRACT: note_on channel=9 note=42 velocity=50 time=0
EXTRACT: note_on channel=2 note=69 velocity=0 time=0.09
EXTRACT: note_on channel=9 note=42 velocity=0 time=0
EXTRACT: note_on channel=9 note=42 velocity=0 time=0.03
EXTRACT: note_on channel=2 note=66 velocity=127 time=0.03
EXTRACT: note_on channel=4 note=35 velocity=100 time=0
EXTRACT: note_on channel=4 note=47 velocity=100 time=0
EXTRACT: note_on channel=9 note=35 velocity=127 time=0
EXTRACT: note_on channel=9 note=42 velocity=127 time=0
EXTRACT: note_on channel=9 note=35 velocity=0 time=0.09
EXTRACT: note_on channel=9 note=42 velocity=50 time=0.06
EXTRACT: note_on channel=2 note=66 velocity=0 time=0.09
EXTRACT: note_on channel=4 note=35 velocity=0 time=0
EXTRACT: note_on channel=4 note=47 velocity=0 time=0
EXTRACT: note_on channel=9 note=35 velocity=0 time=0
EXTRACT: note_on channel=9 note=42 velocity=0 time=0
EXTRACT: note_on channel=9 note=42 velocity=0 time=0.03
EXTRACT: note_on channel=2 note=69 velocity=127 time=0.03
EXTRACT: note_on channel=9 note=38 velocity=127 time=0
EXTRACT: note_on channel=9 note=42 velocity=127 time=0
EXTRACT: note_on channel=0 note=61 velocity=0 time=0.12
EXTRACT: note_on channel=0 note=64 velocity=0 time=0
EXTRACT: note_on channel=0 note=69 velocity=0 time=0
EXTRACT: note_on channel=5 note=76 velocity=0 time=0
EXTRACT: note_on channel=5 note=64 velocity=0 time=0
EXTRACT: note_on channel=4 note=33 velocity=100 time=0.03
EXTRACT: note_on channel=4 note=45 velocity=100 time=0
EXTRACT: note_on channel=9 note=42 velocity=50 time=0
EXTRACT: note_on channel=2 note=69 velocity=0 time=0.09
EXTRACT: note_on channel=9 note=38 velocity=0 time=0
EXTRACT: note_on channel=9 note=42 velocity=0 time=0
EXTRACT: note_on channel=9 note=42 velocity=0 time=0.03
EXTRACT: note_on channel=2 note=66 velocity=127 time=0.03
EXTRACT: note_on channel=9 note=42 velocity=127 time=0
EXTRACT: note_on channel=4 note=33 velocity=0 time=0.09
EXTRACT: note_on channel=4 note=45 velocity=0 time=0
EXTRACT: note_on channel=9 note=42 velocity=50 time=0.06
EXTRACT: note_on channel=2 note=66 velocity=0 time=0.09
EXTRACT: note_on channel=9 note=42 velocity=0 time=0
EXTRACT: note_on channel=9 note=42 velocity=0 time=0.03
EXTRACT: note_on channel=0 note=59 velocity=60 time=0.03
EXTRACT: note_on channel=0 note=66 velocity=60 time=0
EXTRACT: note_on channel=0 note=64 velocity=60 time=0
EXTRACT: note_on channel=0 note=69 velocity=60 time=0
EXTRACT: note_on channel=2 note=69 velocity=127 time=0
EXTRACT: note_on channel=4 note=35 velocity=100 time=0
EXTRACT: note_on channel=4 note=47 velocity=100 time=0
EXTRACT: note_on channel=5 note=69 velocity=100 time=0
EXTRACT: note_on channel=9 note=35 velocity=127 time=0
EXTRACT: note_on channel=9 note=42 velocity=127 time=0
EXTRACT: note_on channel=4 note=35 velocity=0 time=0.12
EXTRACT: note_on channel=4 note=47 velocity=0 time=0
EXTRACT: note_on channel=9 note=42 velocity=0 time=0
EXTRACT: note_on channel=4 note=35 velocity=100 time=0.03
EXTRACT: note_on channel=4 note=47 velocity=100 time=0
EXTRACT: note_on channel=9 note=42 velocity=50 time=0
EXTRACT: note_on channel=2 note=69 velocity=0 time=0.09
EXTRACT: note_on channel=9 note=35 velocity=0 time=0
EXTRACT: note_on channel=4 note=35 velocity=0 time=0.03
EXTRACT: note_on channel=4 note=47 velocity=0 time=0
EXTRACT: note_on channel=9 note=42 velocity=0 time=0
EXTRACT: note_on channel=9 note=42 velocity=127 time=0.03
EXTRACT: note_on channel=9 note=42 velocity=50 time=0.15
EXTRACT: note_on channel=9 note=42 velocity=0 time=0.09
EXTRACT: note_on channel=9 note=42 velocity=0 time=0.03
EXTRACT: note_on channel=2 note=69 velocity=127 time=0.03
EXTRACT: note_on channel=9 note=38 velocity=127 time=0
EXTRACT: note_on channel=9 note=42 velocity=127 time=0
EXTRACT: note_on channel=9 note=42 velocity=50 time=0.15
EXTRACT: note_on channel=2 note=69 velocity=0 time=0.09
EXTRACT: note_on channel=9 note=38 velocity=0 time=0
EXTRACT: note_on channel=9 note=42 velocity=0 time=0
EXTRACT: note_on channel=9 note=42 velocity=0 time=0.03
EXTRACT: note_on channel=2 note=66 velocity=127 time=0.03
EXTRACT: note_on channel=9 note=42 velocity=127 time=0
EXTRACT: note_on channel=9 note=35 velocity=127 time=0.15
EXTRACT: note_on channel=9 note=42 velocity=50 time=0
EXTRACT: note_on channel=2 note=66 velocity=0 time=0.09
EXTRACT: note_on channel=9 note=42 velocity=0 time=0
EXTRACT: note_on channel=9 note=42 velocity=0 time=0.03
EXTRACT: note_on channel=2 note=69 velocity=127 time=0.03
EXTRACT: note_on channel=9 note=42 velocity=127 time=0
EXTRACT: note_on channel=9 note=35 velocity=0 time=0.09
EXTRACT: note_on channel=9 note=35 velocity=127 time=0.06
EXTRACT: note_on channel=9 note=42 velocity=50 time=0
EXTRACT: note_on channel=2 note=69 velocity=0 time=0.09
EXTRACT: note_on channel=9 note=42 velocity=0 time=0
EXTRACT: note_on channel=9 note=42 velocity=0 time=0.03
EXTRACT: note_on channel=2 note=69 velocity=127 time=0.03
EXTRACT: note_on channel=4 note=35 velocity=100 time=0
EXTRACT: note_on channel=4 note=47 velocity=100 time=0
EXTRACT: note_on channel=9 note=35 velocity=127 time=0
EXTRACT: note_on channel=9 note=42 velocity=127 time=0
EXTRACT: note_on channel=9 note=35 velocity=0 time=0.09
EXTRACT: note_on channel=9 note=42 velocity=50 time=0.06
EXTRACT: note_on channel=4 note=35 velocity=0 time=0.09
EXTRACT: note_on channel=4 note=47 velocity=0 time=0
EXTRACT: note_on channel=9 note=35 velocity=0 time=0
EXTRACT: note_on channel=9 note=42 velocity=0 time=0
EXTRACT: note_on channel=9 note=42 velocity=0 time=0.03
EXTRACT: note_on channel=9 note=38 velocity=127 time=0.03
EXTRACT: note_on channel=9 note=42 velocity=127 time=0
EXTRACT: note_on channel=0 note=59 velocity=0 time=0.12
EXTRACT: note_on channel=0 note=66 velocity=0 time=0
EXTRACT: note_on channel=0 note=64 velocity=0 time=0
EXTRACT: note_on channel=0 note=69 velocity=0 time=0
EXTRACT: note_on channel=5 note=69 velocity=0 time=0
EXTRACT: note_on channel=4 note=37 velocity=100 time=0.03
EXTRACT: note_on channel=4 note=49 velocity=100 time=0
EXTRACT: note_on channel=9 note=42 velocity=50 time=0
EXTRACT: note_on channel=2 note=69 velocity=0 time=0.03
EXTRACT: note_on channel=9 note=38 velocity=0 time=0.06
EXTRACT: note_on channel=9 note=42 velocity=0 time=0
EXTRACT: note_on channel=9 note=42 velocity=0 time=0.03
EXTRACT: note_on channel=2 note=71 velocity=127 time=0.03
EXTRACT: note_on channel=9 note=42 velocity=127 time=0
EXTRACT: note_on channel=4 note=37 velocity=0 time=0.09
EXTRACT: note_on channel=4 note=49 velocity=0 time=0
EXTRACT: note_on channel=9 note=42 velocity=50 time=0.06
EXTRACT: note_on channel=9 note=42 velocity=0 time=0.09
EXTRACT: note_on channel=9 note=42 velocity=0 time=0.03
EXTRACT: note_on channel=0 note=59 velocity=60 time=0.03
EXTRACT: note_on channel=0 note=64 velocity=60 time=0
EXTRACT: note_on channel=0 note=68 velocity=60 time=0
EXTRACT: note_on channel=4 note=40 velocity=100 time=0
EXTRACT: note_on channel=4 note=52 velocity=100 time=0
EXTRACT: note_on channel=9 note=35 velocity=127 time=0
EXTRACT: note_on channel=9 note=42 velocity=127 time=0
EXTRACT: note_on channel=9 note=42 velocity=0 time=0.12
EXTRACT: note_on channel=9 note=42 velocity=50 time=0.03
EXTRACT: note_on channel=9 note=35 velocity=0 time=0.09
EXTRACT: note_on channel=9 note=42 velocity=0 time=0.03
EXTRACT: note_on channel=9 note=42 velocity=127 time=0.03
EXTRACT: note_on channel=9 note=42 velocity=50 time=0.15
EXTRACT: note_on channel=4 note=40 velocity=0 time=0.03
EXTRACT: note_on channel=4 note=52 velocity=0 time=0
EXTRACT: note_on channel=9 note=42 velocity=0 time=0.06
EXTRACT: note_on channel=9 note=42 velocity=0 time=0.03
EXTRACT: note_on channel=4 note=40 velocity=100 time=0.03
EXTRACT: note_on channel=4 note=52 velocity=100 time=0
EXTRACT: note_on channel=9 note=38 velocity=127 time=0
EXTRACT: note_on channel=9 note=42 velocity=127 time=0
EXTRACT: note_on channel=2 note=71 velocity=0 time=0.06
EXTRACT: note_on channel=9 note=42 velocity=50 time=0.09
EXTRACT: note_on channel=9 note=38 velocity=0 time=0.09
EXTRACT: note_on channel=9 note=42 velocity=0 time=0
EXTRACT: note_on channel=9 note=42 velocity=0 time=0.03
EXTRACT: note_on channel=9 note=42 velocity=127 time=0.03
EXTRACT: note_on channel=4 note=40 velocity=100 time=0.15
EXTRACT: note_on channel=4 note=52 velocity=100 time=0
EXTRACT: note_on channel=9 note=35 velocity=127 time=0
EXTRACT: note_on channel=9 note=42 velocity=50 time=0
EXTRACT: note_on channel=4 note=40 velocity=0 time=0.03
EXTRACT: note_on channel=4 note=52 velocity=0 time=0
EXTRACT: note_on channel=9 note=42 velocity=0 time=0.06
EXTRACT: note_on channel=4 note=40 velocity=0 time=0.03
EXTRACT: note_on channel=4 note=52 velocity=0 time=0
EXTRACT: note_on channel=9 note=42 velocity=0 time=0
EXTRACT: note_on channel=4 note=52 velocity=100 time=0.03
EXTRACT: note_on channel=4 note=40 velocity=100 time=0
EXTRACT: note_on channel=9 note=42 velocity=127 time=0
EXTRACT: note_on channel=9 note=35 velocity=0 time=0.09
EXTRACT: note_on channel=9 note=35 velocity=127 time=0.06
EXTRACT: note_on channel=9 note=42 velocity=50 time=0
EXTRACT: note_on channel=4 note=52 velocity=0 time=0.09
EXTRACT: note_on channel=4 note=40 velocity=0 time=0
EXTRACT: note_on channel=9 note=42 velocity=0 time=0
EXTRACT: note_on channel=9 note=42 velocity=0 time=0.03
EXTRACT: note_on channel=2 note=54 velocity=100 time=0.03
EXTRACT: note_on channel=2 note=62 velocity=100 time=0
EXTRACT: note_on channel=2 note=66 velocity=127 time=0
EXTRACT: note_on channel=4 note=40 velocity=100 time=0
EXTRACT: note_on channel=4 note=52 velocity=100 time=0
EXTRACT: note_on channel=9 note=35 velocity=127 time=0
EXTRACT: note_on channel=9 note=42 velocity=127 time=0
EXTRACT: note_on channel=9 note=35 velocity=0 time=0.09
EXTRACT: note_on channel=4 note=40 velocity=0 time=0.03
EXTRACT: note_on channel=4 note=52 velocity=0 time=0
EXTRACT: note_on channel=9 note=42 velocity=50 time=0.03
EXTRACT: note_on channel=2 note=54 velocity=0 time=0.09
EXTRACT: note_on channel=2 note=62 velocity=0 time=0
EXTRACT: note_on channel=2 note=66 velocity=0 time=0
EXTRACT: note_on channel=9 note=35 velocity=0 time=0
EXTRACT: note_on channel=9 note=42 velocity=0 time=0
EXTRACT: note_on channel=9 note=42 velocity=0 time=0.03
EXTRACT: note_on channel=2 note=57 velocity=100 time=0.03
EXTRACT: note_on channel=2 note=66 velocity=100 time=0
EXTRACT: note_on channel=2 note=69 velocity=127 time=0
EXTRACT: note_on channel=9 note=38 velocity=127 time=0
EXTRACT: note_on channel=9 note=42 velocity=127 time=0
EXTRACT: note_on channel=0 note=59 velocity=0 time=0.12
EXTRACT: note_on channel=0 note=64 velocity=0 time=0
EXTRACT: note_on channel=0 note=68 velocity=0 time=0
EXTRACT: note_on channel=4 note=42 velocity=100 time=0.03
EXTRACT: note_on channel=4 note=54 velocity=100 time=0
EXTRACT: note_on channel=5 note=62 velocity=100 time=0
EXTRACT: note_on channel=9 note=42 velocity=50 time=0
EXTRACT: note_on channel=2 note=57 velocity=0 time=0.09
EXTRACT: note_on channel=2 note=66 velocity=0 time=0
EXTRACT: note_on channel=2 note=69 velocity=0 time=0
EXTRACT: note_on channel=9 note=38 velocity=0 time=0
EXTRACT: note_on channel=9 note=42 velocity=0 time=0
EXTRACT: note_on channel=5 note=62 velocity=0 time=0.03
EXTRACT: note_on channel=9 note=42 velocity=0 time=0
EXTRACT: note_on channel=2 note=54 velocity=100 time=0.03
EXTRACT: note_on channel=2 note=62 velocity=100 time=0
EXTRACT: note_on channel=2 note=66 velocity=127 time=0
EXTRACT: note_on channel=5 note=64 velocity=100 time=0
EXTRACT: note_on channel=9 note=42 velocity=127 time=0
EXTRACT: note_on channel=4 note=42 velocity=0 time=0.09
EXTRACT: note_on channel=4 note=54 velocity=0 time=0
EXTRACT: note_on channel=5 note=64 velocity=0 time=0.03
EXTRACT: note_on channel=5 note=67 velocity=100 time=0.03
EXTRACT: note_on channel=9 note=42 velocity=50 time=0
EXTRACT: note_on channel=2 note=54 velocity=0 time=0.09
EXTRACT: note_on channel=2 note=62 velocity=0 time=0
EXTRACT: note_on channel=2 note=66 velocity=0 time=0
EXTRACT: note_on channel=9 note=42 velocity=0 time=0
EXTRACT: note_on channel=5 note=67 velocity=0 time=0.03
EXTRACT: note_on channel=9 note=42 velocity=0 time=0
EXTRACT: note_on channel=0 note=45 velocity=100 time=0.03
EXTRACT: note_on channel=1 note=45 velocity=100 time=0
EXTRACT: note_on channel=2 note=57 velocity=100 time=0
EXTRACT: note_on channel=2 note=66 velocity=100 time=0
EXTRACT: note_on channel=2 note=69 velocity=127 time=0
EXTRACT: note_on channel=4 note=45 velocity=100 time=0
EXTRACT: note_on channel=5 note=69 velocity=100 time=0
EXTRACT: note_on channel=5 note=93 velocity=70 time=0
EXTRACT: note_on channel=5 note=81 velocity=80 time=0
EXTRACT: note_on channel=9 note=35 velocity=127 time=0
EXTRACT: note_on channel=9 note=42 velocity=127 time=0
EXTRACT: note_on channel=5 note=69 velocity=0 time=0.12
EXTRACT: note_on channel=9 note=42 velocity=0 time=0
EXTRACT: note_on channel=9 note=42 velocity=50 time=0.03
EXTRACT: note_on channel=0 note=45 velocity=0 time=0.09
EXTRACT: note_on channel=1 note=45 velocity=0 time=0
EXTRACT: note_on channel=2 note=57 velocity=0 time=0
EXTRACT: note_on channel=2 note=66 velocity=0 time=0
EXTRACT: note_on channel=2 note=69 velocity=0 time=0
EXTRACT: note_on channel=4 note=45 velocity=0 time=0
EXTRACT: note_on channel=5 note=93 velocity=0 time=0
EXTRACT: note_on channel=5 note=81 velocity=0 time=0
EXTRACT: note_on channel=9 note=35 velocity=0 time=0
EXTRACT: note_on channel=9 note=42 velocity=0 time=0.03
EXTRACT: note_on channel=0 note=45 velocity=100 time=0.03
EXTRACT: note_on channel=1 note=45 velocity=100 time=0
EXTRACT: note_on channel=2 note=54 velocity=100 time=0
EXTRACT: note_on channel=2 note=62 velocity=100 time=0
EXTRACT: note_on channel=2 note=66 velocity=127 time=0
EXTRACT: note_on channel=3 note=69 velocity=64 time=0
EXTRACT: note_on channel=4 note=45 velocity=100 time=0
EXTRACT: note_on channel=9 note=42 velocity=127 time=0
EXTRACT: note_on channel=3 note=69 velocity=0 time=0.12
EXTRACT: note_on channel=3 note=69 velocity=64 time=0.03
EXTRACT: note_on channel=9 note=42 velocity=50 time=0
EXTRACT: note_on channel=2 note=54 velocity=0 time=0.09
EXTRACT: note_on channel=2 note=62 velocity=0 time=0
EXTRACT: note_on channel=2 note=66 velocity=0 time=0
EXTRACT: note_on channel=9 note=42 velocity=0 time=0
EXTRACT: note_on channel=3 note=69 velocity=0 time=0.03
EXTRACT: note_on channel=9 note=42 velocity=0 time=0
EXTRACT: note_on channel=0 note=57 velocity=100 time=0.03
EXTRACT: note_on channel=0 note=62 velocity=100 time=0
EXTRACT: note_on channel=0 note=66 velocity=100 time=0
EXTRACT: note_on channel=3 note=69 velocity=64 time=0
EXTRACT: note_on channel=5 note=93 velocity=70 time=0
EXTRACT: note_on channel=5 note=81 velocity=80 time=0
EXTRACT: note_on channel=9 note=38 velocity=127 time=0
EXTRACT: note_on channel=9 note=42 velocity=127 time=0
EXTRACT: note_on channel=9 note=42 velocity=50 time=0.15
EXTRACT: note_on channel=1 note=45 velocity=0 time=0.03
EXTRACT: note_on channel=4 note=45 velocity=0 time=0
EXTRACT: note_on channel=0 note=57 velocity=0 time=0.06
EXTRACT: note_on channel=0 note=62 velocity=0 time=0
EXTRACT: note_on channel=0 note=66 velocity=0 time=0
EXTRACT: note_on channel=3 note=69 velocity=0 time=0
EXTRACT: note_on channel=5 note=93 velocity=0 time=0
EXTRACT: note_on channel=5 note=81 velocity=0 time=0
EXTRACT: note_on channel=9 note=38 velocity=0 time=0
EXTRACT: note_on channel=9 note=42 velocity=0 time=0
EXTRACT: note_on channel=9 note=42 velocity=0 time=0.03
EXTRACT: note_on channel=0 note=57 velocity=100 time=0.03
EXTRACT: note_on channel=3 note=69 velocity=64 time=0
EXTRACT: note_on channel=9 note=42 velocity=127 time=0
EXTRACT: note_on channel=3 note=69 velocity=0 time=0.12
EXTRACT: note_on channel=0 note=57 velocity=100 time=0.03
EXTRACT: note_on channel=0 note=61 velocity=100 time=0
EXTRACT: note_on channel=0 note=64 velocity=100 time=0
EXTRACT: note_on channel=3 note=69 velocity=64 time=0
EXTRACT: note_on channel=9 note=35 velocity=127 time=0
EXTRACT: note_on channel=9 note=42 velocity=50 time=0
EXTRACT: note_on channel=0 note=57 velocity=0 time=0.09
EXTRACT: note_on channel=9 note=42 velocity=0 time=0
EXTRACT: note_on channel=0 note=57 velocity=0 time=0.03
EXTRACT: note_on channel=0 note=61 velocity=0 time=0
EXTRACT: note_on channel=0 note=64 velocity=0 time=0
EXTRACT: note_on channel=9 note=42 velocity=0 time=0
EXTRACT: note_on channel=5 note=93 velocity=70 time=0.03
EXTRACT: note_on channel=5 note=81 velocity=80 time=0
EXTRACT: note_on channel=9 note=42 velocity=127 time=0
EXTRACT: note_on channel=0 note=45 velocity=0 time=0.06
EXTRACT: note_on channel=3 note=69 velocity=0 time=0.03
EXTRACT: note_on channel=9 note=35 velocity=0 time=0
EXTRACT: note_on channel=0 note=45 velocity=100 time=0.06
EXTRACT: note_on channel=1 note=45 velocity=100 time=0
EXTRACT: note_on channel=3 note=69 velocity=64 time=0
EXTRACT: note_on channel=4 note=45 velocity=100 time=0
EXTRACT: note_on channel=9 note=35 velocity=127 time=0
EXTRACT: note_on channel=9 note=42 velocity=50 time=0
EXTRACT: note_on channel=5 note=93 velocity=0 time=0.09
EXTRACT: note_on channel=5 note=81 velocity=0 time=0
EXTRACT: note_on channel=9 note=42 velocity=0 time=0
EXTRACT: note_on channel=3 note=69 velocity=0 time=0.03
EXTRACT: note_on channel=9 note=42 velocity=0 time=0
EXTRACT: note_on channel=0 note=57 velocity=100 time=0.03
EXTRACT: note_on channel=0 note=61 velocity=100 time=0
EXTRACT: note_on channel=0 note=64 velocity=100 time=0
EXTRACT: note_on channel=2 note=66 velocity=127 time=0
EXTRACT: note_on channel=9 note=35 velocity=127 time=0
EXTRACT: note_on channel=9 note=42 velocity=127 time=0
EXTRACT: note_on channel=0 note=45 velocity=0 time=0.09
EXTRACT: note_on channel=1 note=45 velocity=0 time=0
EXTRACT: note_on channel=4 note=45 velocity=0 time=0
EXTRACT: note_on channel=9 note=35 velocity=0 time=0
EXTRACT: note_on channel=3 note=69 velocity=64 time=0.06
EXTRACT: note_on channel=9 note=42 velocity=50 time=0
EXTRACT: note_on channel=0 note=57 velocity=0 time=0.09
EXTRACT: note_on channel=0 note=61 velocity=0 time=0
EXTRACT: note_on channel=0 note=64 velocity=0 time=0
EXTRACT: note_on channel=2 note=66 velocity=0 time=0
EXTRACT: note_on channel=9 note=35 velocity=0 time=0
EXTRACT: note_on channel=9 note=42 velocity=0 time=0
EXTRACT: note_on channel=9 note=42 velocity=0 time=0.03
EXTRACT: note_on channel=0 note=45 velocity=100 time=0.03
EXTRACT: note_on channel=1 note=45 velocity=100 time=0
EXTRACT: note_on channel=2 note=66 velocity=127 time=0
EXTRACT: note_on channel=3 note=69 velocity=64 time=0
EXTRACT: note_on channel=4 note=45 velocity=100 time=0
EXTRACT: note_on channel=5 note=93 velocity=70 time=0
EXTRACT: note_on channel=5 note=81 velocity=80 time=0
EXTRACT: note_on channel=9 note=38 velocity=127 time=0
EXTRACT: note_on channel=9 note=42 velocity=127 time=0
EXTRACT: note_on channel=3 note=69 velocity=0 time=0.09
EXTRACT: note_on channel=0 note=57 velocity=100 time=0.06
EXTRACT: note_on channel=0 note=61 velocity=100 time=0
EXTRACT: note_on channel=0 note=64 velocity=100 time=0
EXTRACT: note_on channel=9 note=42 velocity=50 time=0
EXTRACT: note_on channel=2 note=66 velocity=0 time=0.09
EXTRACT: note_on channel=3 note=69 velocity=0 time=0
EXTRACT: note_on channel=5 note=93 velocity=0 time=0
EXTRACT: note_on channel=5 note=81 velocity=0 time=0
EXTRACT: note_on channel=9 note=38 velocity=0 time=0
EXTRACT: note_on channel=9 note=42 velocity=0 time=0
EXTRACT: note_on channel=9 note=42 velocity=0 time=0.03
EXTRACT: note_on channel=2 note=66 velocity=127 time=0.03
EXTRACT: note_on channel=9 note=42 velocity=127 time=0
EXTRACT: note_on channel=0 note=57 velocity=0 time=0.09
EXTRACT: note_on channel=0 note=61 velocity=0 time=0
EXTRACT: note_on channel=0 note=64 velocity=0 time=0
EXTRACT: note_on channel=2 note=66 velocity=0 time=0.03
EXTRACT: note_on channel=2 note=66 velocity=127 time=0.03
EXTRACT: note_on channel=9 note=42 velocity=50 time=0
EXTRACT: note_on channel=0 note=45 velocity=0 time=0.03
EXTRACT: note_on channel=1 note=45 velocity=0 time=0
EXTRACT: note_on channel=4 note=45 velocity=0 time=0
EXTRACT: note_on channel=9 note=42 velocity=0 time=0.06
EXTRACT: note_on channel=2 note=66 velocity=0 time=0.03
EXTRACT: note_on channel=9 note=42 velocity=0 time=0
EXTRACT: note_on channel=0 note=42 velocity=100 time=0.03
EXTRACT: note_on channel=1 note=42 velocity=100 time=0
EXTRACT: note_on channel=2 note=66 velocity=127 time=0
EXTRACT: note_on channel=4 note=42 velocity=100 time=0
EXTRACT: note_on channel=5 note=93 velocity=70 time=0
EXTRACT: note_on channel=5 note=81 velocity=80 time=0
EXTRACT: note_on channel=9 note=35 velocity=127 time=0
EXTRACT: note_on channel=9 note=42 velocity=127 time=0
EXTRACT: note_on channel=2 note=66 velocity=0 time=0.12
EXTRACT: note_on channel=9 note=42 velocity=0 time=0
EXTRACT: note_on channel=2 note=66 velocity=127 time=0.03
EXTRACT: note_on channel=9 note=42 velocity=50 time=0
EXTRACT: note_on channel=0 note=42 velocity=0 time=0.09
EXTRACT: note_on channel=1 note=42 velocity=0 time=0
EXTRACT: note_on channel=4 note=42 velocity=0 time=0
EXTRACT: note_on channel=5 note=93 velocity=0 time=0
EXTRACT: note_on channel=5 note=81 velocity=0 time=0
EXTRACT: note_on channel=9 note=35 velocity=0 time=0
EXTRACT: note_on channel=2 note=66 velocity=0 time=0.03
EXTRACT: note_on channel=9 note=42 velocity=0 time=0
EXTRACT: note_on channel=0 note=42 velocity=100 time=0.03
EXTRACT: note_on channel=1 note=42 velocity=100 time=0
EXTRACT: note_on channel=2 note=66 velocity=127 time=0
EXTRACT: note_on channel=3 note=69 velocity=64 time=0
EXTRACT: note_on channel=4 note=42 velocity=100 time=0
EXTRACT: note_on channel=9 note=42 velocity=127 time=0
EXTRACT: note_on channel=3 note=69 velocity=0 time=0.12
EXTRACT: note_on channel=3 note=69 velocity=64 time=0.03
EXTRACT: note_on channel=9 note=42 velocity=50 time=0
EXTRACT: note_on channel=2 note=66 velocity=0 time=0.09
EXTRACT: note_on channel=9 note=42 velocity=0 time=0
EXTRACT: note_on channel=3 note=69 velocity=0 time=0.03
EXTRACT: note_on channel=9 note=42 velocity=0 time=0
EXTRACT: note_on channel=0 note=57 velocity=100 time=0.03
EXTRACT: note_on channel=0 note=62 velocity=100 time=0
EXTRACT: note_on channel=0 note=66 velocity=100 time=0
EXTRACT: note_on channel=2 note=66 velocity=127 time=0
EXTRACT: note_on channel=3 note=69 velocity=64 time=0
EXTRACT: note_on channel=5 note=93 velocity=70 time=0
EXTRACT: note_on channel=5 note=81 velocity=80 time=0
EXTRACT: note_on channel=9 note=38 velocity=127 time=0
EXTRACT: note_on channel=9 note=42 velocity=127 time=0
EXTRACT: note_on channel=9 note=42 velocity=50 time=0.15
EXTRACT: note_on channel=0 note=42 velocity=0 time=0.03
EXTRACT: note_on channel=1 note=42 velocity=0 time=0
EXTRACT: note_on channel=4 note=42 velocity=0 time=0
EXTRACT: note_on channel=0 note=57 velocity=0 time=0.06
EXTRACT: note_on channel=0 note=62 velocity=0 time=0
EXTRACT: note_on channel=0 note=66 velocity=0 time=0
EXTRACT: note_on channel=2 note=66 velocity=0 time=0
EXTRACT: note_on channel=3 note=69 velocity=0 time=0
EXTRACT: note_on channel=5 note=93 velocity=0 time=0
EXTRACT: note_on channel=5 note=81 velocity=0 time=0
EXTRACT: note_on channel=9 note=38 velocity=0 time=0
EXTRACT: note_on channel=9 note=42 velocity=0 time=0
EXTRACT: note_on channel=9 note=42 velocity=0 time=0.03
EXTRACT: note_on channel=0 note=57 velocity=100 time=0.03
EXTRACT: note_on channel=2 note=66 velocity=127 time=0
EXTRACT: note_on channel=3 note=69 velocity=64 time=0
EXTRACT: note_on channel=9 note=42 velocity=127 time=0
EXTRACT: note_on channel=2 note=66 velocity=0 time=0.12
EXTRACT: note_on channel=3 note=69 velocity=0 time=0
EXTRACT: note_on channel=0 note=67 velocity=100 time=0.03
EXTRACT: note_on channel=0 note=59 velocity=100 time=0
EXTRACT: note_on channel=0 note=62 velocity=100 time=0
EXTRACT: note_on channel=2 note=69 velocity=127 time=0
EXTRACT: note_on channel=3 note=69 velocity=64 time=0
EXTRACT: note_on channel=9 note=35 velocity=127 time=0
EXTRACT: note_on channel=9 note=42 velocity=50 time=0
EXTRACT: note_on channel=0 note=57 velocity=0 time=0.09
EXTRACT: note_on channel=9 note=42 velocity=0 time=0
EXTRACT: note_on channel=0 note=67 velocity=0 time=0.03
EXTRACT: note_on channel=0 note=59 velocity=0 time=0
EXTRACT: note_on channel=0 note=62 velocity=0 time=0
EXTRACT: note_on channel=9 note=42 velocity=0 time=0
EXTRACT: note_on channel=5 note=93 velocity=70 time=0.03
EXTRACT: note_on channel=5 note=81 velocity=80 time=0
EXTRACT: note_on channel=9 note=42 velocity=127 time=0
EXTRACT: note_on channel=2 note=69 velocity=0 time=0.09
EXTRACT: note_on channel=3 note=69 velocity=0 time=0
EXTRACT: note_on channel=9 note=35 velocity=0 time=0
EXTRACT: note_on channel=0 note=43 velocity=100 time=0.06
EXTRACT: note_on channel=1 note=43 velocity=100 time=0
EXTRACT: note_on channel=3 note=69 velocity=64 time=0
EXTRACT: note_on channel=4 note=43 velocity=100 time=0
EXTRACT: note_on channel=9 note=35 velocity=127 time=0
EXTRACT: note_on channel=9 note=42 velocity=50 time=0
EXTRACT: note_on channel=5 note=93 velocity=0 time=0.09
EXTRACT: note_on channel=5 note=81 velocity=0 time=0
EXTRACT: note_on channel=9 note=42 velocity=0 time=0
EXTRACT: note_on channel=3 note=69 velocity=0 time=0.03
EXTRACT: note_on channel=9 note=42 velocity=0 time=0
EXTRACT: note_on channel=0 note=67 velocity=100 time=0.03
EXTRACT: note_on channel=0 note=59 velocity=100 time=0
EXTRACT: note_on channel=0 note=62 velocity=100 time=0
EXTRACT: note_on channel=2 note=54 velocity=100 time=0
EXTRACT: note_on channel=2 note=62 velocity=100 time=0
EXTRACT: note_on channel=2 note=66 velocity=127 time=0
EXTRACT: note_on channel=9 note=35 velocity=127 time=0
EXTRACT: note_on channel=9 note=42 velocity=127 time=0
EXTRACT: note_on channel=0 note=43 velocity=0 time=0.09
EXTRACT: note_on channel=1 note=43 velocity=0 time=0
EXTRACT: note_on channel=4 note=43 velocity=0 time=0
EXTRACT: note_on channel=9 note=35 velocity=0 time=0
EXTRACT: note_on channel=3 note=69 velocity=64 time=0.06
EXTRACT: note_on channel=9 note=42 velocity=50 time=0
EXTRACT: note_on channel=0 note=67 velocity=0 time=0.09
EXTRACT: note_on channel=0 note=59 velocity=0 time=0
EXTRACT: note_on channel=0 note=62 velocity=0 time=0
EXTRACT: note_on channel=2 note=54 velocity=0 time=0
EXTRACT: note_on channel=2 note=62 velocity=0 time=0
EXTRACT: note_on channel=2 note=66 velocity=0 time=0
EXTRACT: note_on channel=9 note=35 velocity=0 time=0
EXTRACT: note_on channel=9 note=42 velocity=0 time=0
EXTRACT: note_on channel=9 note=42 velocity=0 time=0.03
EXTRACT: note_on channel=0 note=43 velocity=100 time=0.03
EXTRACT: note_on channel=1 note=43 velocity=100 time=0
EXTRACT: note_on channel=2 note=57 velocity=100 time=0
EXTRACT: note_on channel=2 note=66 velocity=100 time=0
EXTRACT: note_on channel=2 note=69 velocity=127 time=0
EXTRACT: note_on channel=3 note=69 velocity=64 time=0
EXTRACT: note_on channel=4 note=43 velocity=100 time=0
EXTRACT: note_on channel=5 note=93 velocity=70 time=0
EXTRACT: note_on channel=5 note=81 velocity=80 time=0
EXTRACT: note_on channel=9 note=38 velocity=127 time=0
EXTRACT: note_on channel=9 note=42 velocity=127 time=0
EXTRACT: note_on channel=3 note=69 velocity=0 time=0.09
EXTRACT: note_on channel=0 note=67 velocity=100 time=0.06
EXTRACT: note_on channel=0 note=59 velocity=100 time=0
EXTRACT: note_on channel=0 note=62 velocity=100 time=0
EXTRACT: note_on channel=9 note=42 velocity=50 time=0
EXTRACT: note_on channel=2 note=57 velocity=0 time=0.09
EXTRACT: note_on channel=2 note=66 velocity=0 time=0
EXTRACT: note_on channel=2 note=69 velocity=0 time=0
EXTRACT: note_on channel=3 note=69 velocity=0 time=0
EXTRACT: note_on channel=5 note=93 velocity=0 time=0
EXTRACT: note_on channel=5 note=81 velocity=0 time=0
EXTRACT: note_on channel=9 note=38 velocity=0 time=0
EXTRACT: note_on channel=9 note=42 velocity=0 time=0
EXTRACT: note_on channel=9 note=42 velocity=0 time=0.03
EXTRACT: note_on channel=2 note=54 velocity=100 time=0.03
EXTRACT: note_on channel=2 note=62 velocity=100 time=0
EXTRACT: note_on channel=2 note=66 velocity=127 time=0
EXTRACT: note_on channel=9 note=42 velocity=127 time=0
EXTRACT: note_on channel=0 note=67 velocity=0 time=0.09
EXTRACT: note_on channel=0 note=59 velocity=0 time=0
EXTRACT: note_on channel=0 note=62 velocity=0 time=0
EXTRACT: note_on channel=9 note=42 velocity=50 time=0.06
EXTRACT: note_on channel=0 note=43 velocity=0 time=0.03
EXTRACT: note_on channel=1 note=43 velocity=0 time=0
EXTRACT: note_on channel=4 note=43 velocity=0 time=0
EXTRACT: note_on channel=2 note=54 velocity=0 time=0.06
EXTRACT: note_on channel=2 note=62 velocity=0 time=0
EXTRACT: note_on channel=2 note=66 velocity=0 time=0
EXTRACT: note_on channel=9 note=42 velocity=0 time=0
EXTRACT: note_on channel=9 note=42 velocity=0 time=0.03
EXTRACT: note_on channel=0 note=45 velocity=100 time=0.03
EXTRACT: note_on channel=1 note=45 velocity=100 time=0
EXTRACT: note_on channel=2 note=61 velocity=100 time=0
EXTRACT: note_on channel=2 note=69 velocity=100 time=0
EXTRACT: note_on channel=2 note=73 velocity=127 time=0
EXTRACT: note_on channel=4 note=45 velocity=100 time=0
EXTRACT: note_on channel=5 note=93 velocity=70 time=0
EXTRACT: note_on channel=5 note=81 velocity=80 time=0
EXTRACT: note_on channel=9 note=35 velocity=127 time=0
EXTRACT: note_on channel=9 note=42 velocity=127 time=0
EXTRACT: note_on channel=9 note=42 velocity=0 time=0.12
EXTRACT: note_on channel=9 note=42 velocity=50 time=0.03
EXTRACT: note_on channel=0 note=45 velocity=0 time=0.09
EXTRACT: note_on channel=1 note=45 velocity=0 time=0
EXTRACT: note_on channel=2 note=61 velocity=0 time=0
EXTRACT: note_on channel=2 note=69 velocity=0 time=0
EXTRACT: note_on channel=2 note=73 velocity=0 time=0
EXTRACT: note_on channel=4 note=45 velocity=0 time=0
EXTRACT: note_on channel=5 note=93 velocity=0 time=0
EXTRACT: note_on channel=5 note=81 velocity=0 time=0
EXTRACT: note_on channel=9 note=35 velocity=0 time=0
EXTRACT: note_on channel=9 note=42 velocity=0 time=0.03
EXTRACT: note_on channel=0 note=45 velocity=100 time=0.03
EXTRACT: note_on channel=1 note=45 velocity=100 time=0
EXTRACT: note_on channel=2 note=61 velocity=100 time=0
EXTRACT: note_on channel=2 note=69 velocity=100 time=0
EXTRACT: note_on channel=2 note=73 velocity=127 time=0
EXTRACT: note_on channel=3 note=69 velocity=64 time=0
EXTRACT: note_on channel=4 note=45 velocity=100 time=0
EXTRACT: note_on channel=9 note=42 velocity=127 time=0
EXTRACT: note_on channel=3 note=69 velocity=0 time=0.12
EXTRACT: note_on channel=3 note=69 velocity=64 time=0.03
EXTRACT: note_on channel=9 note=42 velocity=50 time=0
EXTRACT: note_on channel=2 note=61 velocity=0 time=0.09
EXTRACT: note_on channel=2 note=69 velocity=0 time=0
EXTRACT: note_on channel=2 note=73 velocity=0 time=0
EXTRACT: note_on channel=9 note=42 velocity=0 time=0
EXTRACT: note_on channel=3 note=69 velocity=0 time=0.03
EXTRACT: note_on channel=9 note=42 velocity=0 time=0
EXTRACT: note_on channel=0 note=57 velocity=100 time=0.03
EXTRACT: note_on channel=0 note=62 velocity=100 time=0
EXTRACT: note_on channel=0 note=66 velocity=100 time=0
EXTRACT: note_on channel=3 note=69 velocity=64 time=0
EXTRACT: note_on channel=5 note=93 velocity=70 time=0
EXTRACT: note_on channel=5 note=81 velocity=80 time=0
EXTRACT: note_on channel=9 note=38 velocity=127 time=0
EXTRACT: note_on channel=9 note=42 velocity=127 time=0
EXTRACT: note_on channel=9 note=42 velocity=50 time=0.15
EXTRACT: note_on channel=1 note=45 velocity=0 time=0.03
EXTRACT: note_on channel=4 note=45 velocity=0 time=0
EXTRACT: note_on channel=0 note=57 velocity=0 time=0.06
EXTRACT: note_on channel=0 note=62 velocity=0 time=0
EXTRACT: note_on channel=0 note=66 velocity=0 time=0
EXTRACT: note_on channel=3 note=69 velocity=0 time=0
EXTRACT: note_on channel=5 note=93 velocity=0 time=0
EXTRACT: note_on channel=5 note=81 velocity=0 time=0
EXTRACT: note_on channel=9 note=38 velocity=0 time=0
EXTRACT: note_on channel=9 note=42 velocity=0 time=0
EXTRACT: note_on channel=9 note=42 velocity=0 time=0.03
EXTRACT: note_on channel=0 note=57 velocity=100 time=0.03
EXTRACT: note_on channel=3 note=69 velocity=64 time=0
EXTRACT: note_on channel=9 note=42 velocity=127 time=0
EXTRACT: note_on channel=3 note=69 velocity=0 time=0.12
EXTRACT: note_on channel=0 note=57 velocity=100 time=0.03
EXTRACT: note_on channel=0 note=61 velocity=100 time=0
EXTRACT: note_on channel=0 note=64 velocity=100 time=0
EXTRACT: note_on channel=3 note=69 velocity=64 time=0
EXTRACT: note_on channel=9 note=35 velocity=127 time=0
EXTRACT: note_on channel=9 note=42 velocity=50 time=0
EXTRACT: note_on channel=0 note=57 velocity=0 time=0.09
EXTRACT: note_on channel=9 note=42 velocity=0 time=0
EXTRACT: note_on channel=0 note=57 velocity=0 time=0.03
EXTRACT: note_on channel=0 note=61 velocity=0 time=0
EXTRACT: note_on channel=0 note=64 velocity=0 time=0
EXTRACT: note_on channel=9 note=42 velocity=0 time=0
EXTRACT: note_on channel=5 note=93 velocity=70 time=0.03
EXTRACT: note_on channel=5 note=81 velocity=80 time=0
EXTRACT: note_on channel=9 note=42 velocity=127 time=0
EXTRACT: note_on channel=0 note=45 velocity=0 time=0.06
EXTRACT: note_on channel=3 note=69 velocity=0 time=0.03
EXTRACT: note_on channel=9 note=35 velocity=0 time=0
EXTRACT: note_on channel=0 note=45 velocity=100 time=0.06
EXTRACT: note_on channel=1 note=45 velocity=100 time=0
EXTRACT: note_on channel=3 note=69 velocity=64 time=0
EXTRACT: note_on channel=4 note=45 velocity=100 time=0
EXTRACT: note_on channel=9 note=35 velocity=127 time=0
EXTRACT: note_on channel=9 note=42 velocity=50 time=0
EXTRACT: note_on channel=5 note=93 velocity=0 time=0.09
EXTRACT: note_on channel=5 note=81 velocity=0 time=0
EXTRACT: note_on channel=9 note=42 velocity=0 time=0
EXTRACT: note_on channel=3 note=69 velocity=0 time=0.03
EXTRACT: note_on channel=9 note=42 velocity=0 time=0
EXTRACT: note_on channel=0 note=57 velocity=100 time=0.03
EXTRACT: note_on channel=0 note=61 velocity=100 time=0
EXTRACT: note_on channel=0 note=64 velocity=100 time=0
EXTRACT: note_on channel=2 note=66 velocity=127 time=0
EXTRACT: note_on channel=9 note=35 velocity=127 time=0
EXTRACT: note_on channel=9 note=42 velocity=127 time=0
EXTRACT: note_on channel=0 note=45 velocity=0 time=0.09
EXTRACT: note_on channel=1 note=45 velocity=0 time=0
EXTRACT: note_on channel=4 note=45 velocity=0 time=0
EXTRACT: note_on channel=9 note=35 velocity=0 time=0
EXTRACT: note_on channel=3 note=69 velocity=64 time=0.06
EXTRACT: note_on channel=9 note=42 velocity=50 time=0
EXTRACT: note_on channel=0 note=57 velocity=0 time=0.09
EXTRACT: note_on channel=0 note=61 velocity=0 time=0
EXTRACT: note_on channel=0 note=64 velocity=0 time=0
EXTRACT: note_on channel=2 note=66 velocity=0 time=0
EXTRACT: note_on channel=9 note=35 velocity=0 time=0
EXTRACT: note_on channel=9 note=42 velocity=0 time=0
EXTRACT: note_on channel=9 note=42 velocity=0 time=0.03
EXTRACT: note_on channel=0 note=45 velocity=100 time=0.03
EXTRACT: note_on channel=1 note=45 velocity=100 time=0
EXTRACT: note_on channel=2 note=69 velocity=127 time=0
EXTRACT: note_on channel=3 note=69 velocity=64 time=0
EXTRACT: note_on channel=4 note=45 velocity=100 time=0
EXTRACT: note_on channel=5 note=93 velocity=70 time=0
EXTRACT: note_on channel=5 note=81 velocity=80 time=0
EXTRACT: note_on channel=9 note=38 velocity=127 time=0
EXTRACT: note_on channel=9 note=42 velocity=127 time=0
EXTRACT: note_on channel=3 note=69 velocity=0 time=0.09
EXTRACT: note_on channel=0 note=57 velocity=100 time=0.06
EXTRACT: note_on channel=0 note=61 velocity=100 time=0
EXTRACT: note_on channel=0 note=64 velocity=100 time=0
EXTRACT: note_on channel=9 note=42 velocity=50 time=0
EXTRACT: note_on channel=2 note=69 velocity=0 time=0.09
EXTRACT: note_on channel=3 note=69 velocity=0 time=0
EXTRACT: note_on channel=5 note=93 velocity=0 time=0
EXTRACT: note_on channel=5 note=81 velocity=0 time=0
EXTRACT: note_on channel=9 note=38 velocity=0 time=0
EXTRACT: note_on channel=9 note=42 velocity=0 time=0
EXTRACT: note_on channel=9 note=42 velocity=0 time=0.03
EXTRACT: note_on channel=2 note=69 velocity=127 time=0.03
EXTRACT: note_on channel=9 note=42 velocity=127 time=0
EXTRACT: note_on channel=0 note=57 velocity=0 time=0.09
EXTRACT: note_on channel=0 note=61 velocity=0 time=0
EXTRACT: note_on channel=0 note=64 velocity=0 time=0
EXTRACT: note_on channel=9 note=42 velocity=50 time=0.06
EXTRACT: note_on channel=0 note=45 velocity=0 time=0.03
EXTRACT: note_on channel=1 note=45 velocity=0 time=0
EXTRACT: note_on channel=4 note=45 velocity=0 time=0
EXTRACT: note_on channel=2 note=69 velocity=0 time=0.06
EXTRACT: note_on channel=9 note=42 velocity=0 time=0
EXTRACT: note_on channel=9 note=42 velocity=0 time=0.03
EXTRACT: note_on channel=0 note=42 velocity=100 time=0.03
EXTRACT: note_on channel=1 note=42 velocity=100 time=0
EXTRACT: note_on channel=2 note=76 velocity=127 time=0
EXTRACT: note_on channel=4 note=42 velocity=100 time=0
EXTRACT: note_on channel=5 note=93 velocity=70 time=0
EXTRACT: note_on channel=5 note=81 velocity=80 time=0
EXTRACT: note_on channel=9 note=35 velocity=127 time=0
EXTRACT: note_on channel=9 note=42 velocity=127 time=0
EXTRACT: note_on channel=9 note=42 velocity=0 time=0.12
EXTRACT: note_on channel=9 note=42 velocity=50 time=0.03
EXTRACT: note_on channel=0 note=42 velocity=0 time=0.09
EXTRACT: note_on channel=1 note=42 velocity=0 time=0
EXTRACT: note_on channel=2 note=76 velocity=0 time=0
EXTRACT: note_on channel=4 note=42 velocity=0 time=0
EXTRACT: note_on channel=5 note=93 velocity=0 time=0
EXTRACT: note_on channel=5 note=81 velocity=0 time=0
EXTRACT: note_on channel=9 note=35 velocity=0 time=0
EXTRACT: note_on channel=9 note=42 velocity=0 time=0.03
EXTRACT: note_on channel=0 note=42 velocity=100 time=0.03
EXTRACT: note_on channel=1 note=42 velocity=100 time=0
EXTRACT: note_on channel=3 note=69 velocity=64 time=0
EXTRACT: note_on channel=4 note=42 velocity=100 time=0
EXTRACT: note_on channel=9 note=42 velocity=127 time=0
EXTRACT: note_on channel=3 note=69 velocity=0 time=0.12
EXTRACT: note_on channel=3 note=69 velocity=64 time=0.03
EXTRACT: note_on channel=9 note=42 velocity=50 time=0
EXTRACT: note_on channel=9 note=42 velocity=0 time=0.09
EXTRACT: note_on channel=3 note=69 velocity=0 time=0.03
EXTRACT: note_on channel=9 note=42 velocity=0 time=0
EXTRACT: note_on channel=0 note=57 velocity=100 time=0.03
EXTRACT: note_on channel=0 note=62 velocity=100 time=0
EXTRACT: note_on channel=0 note=66 velocity=100 time=0
EXTRACT: note_on channel=2 note=74 velocity=127 time=0
EXTRACT: note_on channel=3 note=69 velocity=64 time=0
EXTRACT: note_on channel=5 note=93 velocity=70 time=0
EXTRACT: note_on channel=5 note=81 velocity=80 time=0
EXTRACT: note_on channel=9 note=38 velocity=127 time=0
EXTRACT: note_on channel=9 note=42 velocity=127 time=0
EXTRACT: note_on channel=9 note=42 velocity=50 time=0.15
EXTRACT: note_on channel=0 note=42 velocity=0 time=0.03
EXTRACT: note_on channel=1 note=42 velocity=0 time=0
EXTRACT: note_on channel=4 note=42 velocity=0 time=0
EXTRACT: note_on channel=0 note=57 velocity=0 time=0.06
EXTRACT: note_on channel=0 note=62 velocity=0 time=0
EXTRACT: note_on channel=0 note=66 velocity=0 time=0
EXTRACT: note_on channel=2 note=74 velocity=0 time=0
EXTRACT: note_on channel=3 note=69 velocity=0 time=0
EXTRACT: note_on channel=5 note=93 velocity=0 time=0
EXTRACT: note_on channel=5 note=81 velocity=0 time=0
EXTRACT: note_on channel=9 note=38 velocity=0 time=0
EXTRACT: note_on channel=9 note=42 velocity=0 time=0
EXTRACT: note_on channel=9 note=42 velocity=0 time=0.03
EXTRACT: note_on channel=0 note=57 velocity=100 time=0.03
EXTRACT: note_on channel=3 note=69 velocity=64 time=0
EXTRACT: note_on channel=9 note=42 velocity=127 time=0
EXTRACT: note_on channel=3 note=69 velocity=0 time=0.12
EXTRACT: note_on channel=0 note=67 velocity=100 time=0.03
EXTRACT: note_on channel=0 note=59 velocity=100 time=0
EXTRACT: note_on channel=0 note=62 velocity=100 time=0
EXTRACT: note_on channel=3 note=69 velocity=64 time=0
EXTRACT: note_on channel=9 note=35 velocity=127 time=0
EXTRACT: note_on channel=9 note=42 velocity=50 time=0
EXTRACT: note_on channel=0 note=57 velocity=0 time=0.09
EXTRACT: note_on channel=9 note=42 velocity=0 time=0
EXTRACT: note_on channel=0 note=67 velocity=0 time=0.03
EXTRACT: note_on channel=0 note=59 velocity=0 time=0
EXTRACT: note_on channel=0 note=62 velocity=0 time=0
EXTRACT: note_on channel=9 note=42 velocity=0 time=0
EXTRACT: note_on channel=2 note=57 velocity=100 time=0.03
EXTRACT: note_on channel=2 note=66 velocity=100 time=0
EXTRACT: note_on channel=2 note=69 velocity=127 time=0
EXTRACT: note_on channel=5 note=93 velocity=70 time=0
EXTRACT: note_on channel=5 note=81 velocity=80 time=0
EXTRACT: note_on channel=9 note=42 velocity=127 time=0
EXTRACT: note_on channel=3 note=69 velocity=0 time=0.09
EXTRACT: note_on channel=9 note=35 velocity=0 time=0
EXTRACT: note_on channel=0 note=43 velocity=100 time=0.06
EXTRACT: note_on channel=1 note=43 velocity=100 time=0
EXTRACT: note_on channel=3 note=69 velocity=64 time=0
EXTRACT: note_on channel=4 note=43 velocity=100 time=0
EXTRACT: note_on channel=9 note=35 velocity=127 time=0
EXTRACT: note_on channel=9 note=42 velocity=50 time=0
EXTRACT: note_on channel=2 note=57 velocity=0 time=0.09
EXTRACT: note_on channel=2 note=66 velocity=0 time=0
EXTRACT: note_on channel=2 note=69 velocity=0 time=0
EXTRACT: note_on channel=5 note=93 velocity=0 time=0
EXTRACT: note_on channel=5 note=81 velocity=0 time=0
EXTRACT: note_on channel=9 note=42 velocity=0 time=0
EXTRACT: note_on channel=3 note=69 velocity=0 time=0.03
EXTRACT: note_on channel=9 note=42 velocity=0 time=0
EXTRACT: note_on channel=0 note=67 velocity=100 time=0.03
EXTRACT: note_on channel=0 note=59 velocity=100 time=0
EXTRACT: note_on channel=0 note=62 velocity=100 time=0
EXTRACT: note_on channel=2 note=57 velocity=100 time=0
EXTRACT: note_on channel=2 note=66 velocity=100 time=0
EXTRACT: note_on channel=2 note=69 velocity=127 time=0
EXTRACT: note_on channel=9 note=35 velocity=127 time=0
EXTRACT: note_on channel=9 note=42 velocity=127 time=0
EXTRACT: note_on channel=0 note=43 velocity=0 time=0.09
EXTRACT: note_on channel=1 note=43 velocity=0 time=0
EXTRACT: note_on channel=4 note=43 velocity=0 time=0
EXTRACT: note_on channel=9 note=35 velocity=0 time=0
EXTRACT: note_on channel=3 note=69 velocity=64 time=0.06
EXTRACT: note_on channel=9 note=42 velocity=50 time=0
EXTRACT: note_on channel=0 note=67 velocity=0 time=0.09
EXTRACT: note_on channel=0 note=59 velocity=0 time=0
EXTRACT: note_on channel=0 note=62 velocity=0 time=0
EXTRACT: note_on channel=2 note=57 velocity=0 time=0
EXTRACT: note_on channel=2 note=66 velocity=0 time=0
EXTRACT: note_on channel=2 note=69 velocity=0 time=0
EXTRACT: note_on channel=9 note=35 velocity=0 time=0
EXTRACT: note_on channel=9 note=42 velocity=0 time=0
EXTRACT: note_on channel=9 note=42 velocity=0 time=0.03
EXTRACT: note_on channel=0 note=43 velocity=100 time=0.03
EXTRACT: note_on channel=1 note=43 velocity=100 time=0
EXTRACT: note_on channel=2 note=57 velocity=100 time=0
EXTRACT: note_on channel=2 note=66 velocity=100 time=0
EXTRACT: note_on channel=2 note=69 velocity=127 time=0
EXTRACT: note_on channel=3 note=69 velocity=64 time=0
EXTRACT: note_on channel=4 note=43 velocity=100 time=0
EXTRACT: note_on channel=5 note=93 velocity=70 time=0
EXTRACT: note_on channel=5 note=81 velocity=80 time=0
EXTRACT: note_on channel=9 note=38 velocity=127 time=0
EXTRACT: note_on channel=9 note=42 velocity=127 time=0
EXTRACT: note_on channel=3 note=69 velocity=0 time=0.09
EXTRACT: note_on channel=0 note=67 velocity=100 time=0.06
EXTRACT: note_on channel=0 note=59 velocity=100 time=0
EXTRACT: note_on channel=0 note=62 velocity=100 time=0
EXTRACT: note_on channel=9 note=42 velocity=50 time=0
EXTRACT: note_on channel=2 note=57 velocity=0 time=0.09
EXTRACT: note_on channel=2 note=66 velocity=0 time=0
EXTRACT: note_on channel=2 note=69 velocity=0 time=0
EXTRACT: note_on channel=3 note=69 velocity=0 time=0
EXTRACT: note_on channel=5 note=93 velocity=0 time=0
EXTRACT: note_on channel=5 note=81 velocity=0 time=0
EXTRACT: note_on channel=9 note=38 velocity=0 time=0
EXTRACT: note_on channel=9 note=42 velocity=0 time=0
EXTRACT: note_on channel=9 note=42 velocity=0 time=0.03
EXTRACT: note_on channel=2 note=54 velocity=100 time=0.03
EXTRACT: note_on channel=2 note=62 velocity=100 time=0
EXTRACT: note_on channel=2 note=66 velocity=127 time=0
EXTRACT: note_on channel=9 note=42 velocity=127 time=0
EXTRACT: note_on channel=0 note=67 velocity=0 time=0.09
EXTRACT: note_on channel=0 note=59 velocity=0 time=0
EXTRACT: note_on channel=0 note=62 velocity=0 time=0
EXTRACT: note_on channel=9 note=42 velocity=50 time=0.06
EXTRACT: note_on channel=0 note=43 velocity=0 time=0.03
EXTRACT: note_on channel=1 note=43 velocity=0 time=0
EXTRACT: note_on channel=4 note=43 velocity=0 time=0
EXTRACT: note_on channel=2 note=54 velocity=0 time=0.06
EXTRACT: note_on channel=2 note=62 velocity=0 time=0
EXTRACT: note_on channel=2 note=66 velocity=0 time=0
EXTRACT: note_on channel=9 note=42 velocity=0 time=0
EXTRACT: note_on channel=9 note=42 velocity=0 time=0.03
EXTRACT: note_on channel=0 note=45 velocity=100 time=0.03
EXTRACT: note_on channel=1 note=45 velocity=100 time=0
EXTRACT: note_on channel=2 note=66 velocity=100 time=0
EXTRACT: note_on channel=2 note=57 velocity=100 time=0
EXTRACT: note_on channel=2 note=69 velocity=127 time=0
EXTRACT: note_on channel=4 note=45 velocity=100 time=0
EXTRACT: note_on channel=5 note=93 velocity=70 time=0
EXTRACT: note_on channel=5 note=81 velocity=80 time=0
EXTRACT: note_on channel=9 note=35 velocity=127 time=0
EXTRACT: note_on channel=9 note=42 velocity=127 time=0
EXTRACT: note_on channel=9 note=42 velocity=0 time=0.12
EXTRACT: note_on channel=9 note=42 velocity=50 time=0.03
EXTRACT: note_on channel=0 note=45 velocity=0 time=0.09
EXTRACT: note_on channel=1 note=45 velocity=0 time=0
EXTRACT: note_on channel=2 note=66 velocity=0 time=0
EXTRACT: note_on channel=2 note=57 velocity=0 time=0
EXTRACT: note_on channel=2 note=69 velocity=0 time=0
EXTRACT: note_on channel=4 note=45 velocity=0 time=0
EXTRACT: note_on channel=5 note=93 velocity=0 time=0
EXTRACT: note_on channel=5 note=81 velocity=0 time=0
EXTRACT: note_on channel=9 note=35 velocity=0 time=0
EXTRACT: note_on channel=9 note=42 velocity=0 time=0.03
EXTRACT: note_on channel=0 note=45 velocity=100 time=0.03
EXTRACT: note_on channel=1 note=45 velocity=100 time=0
EXTRACT: note_on channel=2 note=62 velocity=100 time=0
EXTRACT: note_on channel=2 note=54 velocity=100 time=0
EXTRACT: note_on channel=2 note=66 velocity=127 time=0
EXTRACT: note_on channel=3 note=69 velocity=64 time=0
EXTRACT: note_on channel=4 note=45 velocity=100 time=0
EXTRACT: note_on channel=9 note=42 velocity=127 time=0
EXTRACT: note_on channel=3 note=69 velocity=0 time=0.12
EXTRACT: note_on channel=3 note=69 velocity=64 time=0.03
EXTRACT: note_on channel=9 note=42 velocity=50 time=0
EXTRACT: note_on channel=2 note=62 velocity=0 time=0.09
EXTRACT: note_on channel=2 note=54 velocity=0 time=0
EXTRACT: note_on channel=2 note=66 velocity=0 time=0
EXTRACT: note_on channel=9 note=42 velocity=0 time=0
EXTRACT: note_on channel=3 note=69 velocity=0 time=0.03
EXTRACT: note_on channel=9 note=42 velocity=0 time=0
EXTRACT: note_on channel=0 note=57 velocity=100 time=0.03
EXTRACT: note_on channel=0 note=62 velocity=100 time=0
EXTRACT: note_on channel=0 note=66 velocity=100 time=0
EXTRACT: note_on channel=3 note=69 velocity=64 time=0
EXTRACT: note_on channel=5 note=93 velocity=70 time=0
EXTRACT: note_on channel=5 note=81 velocity=80 time=0
EXTRACT: note_on channel=9 note=38 velocity=127 time=0
EXTRACT: note_on channel=9 note=42 velocity=127 time=0
EXTRACT: note_on channel=9 note=42 velocity=50 time=0.15
EXTRACT: note_on channel=1 note=45 velocity=0 time=0.03
EXTRACT: note_on channel=4 note=45 velocity=0 time=0
EXTRACT: note_on channel=0 note=57 velocity=0 time=0.06
EXTRACT: note_on channel=0 note=62 velocity=0 time=0
EXTRACT: note_on channel=0 note=66 velocity=0 time=0
EXTRACT: note_on channel=3 note=69 velocity=0 time=0
EXTRACT: note_on channel=5 note=93 velocity=0 time=0
EXTRACT: note_on channel=5 note=81 velocity=0 time=0
EXTRACT: note_on channel=9 note=38 velocity=0 time=0
EXTRACT: note_on channel=9 note=42 velocity=0 time=0
EXTRACT: note_on channel=9 note=42 velocity=0 time=0.03
EXTRACT: note_on channel=0 note=57 velocity=100 time=0.03
EXTRACT: note_on channel=3 note=69 velocity=64 time=0
EXTRACT: note_on channel=9 note=42 velocity=127 time=0
EXTRACT: note_on channel=3 note=69 velocity=0 time=0.12
EXTRACT: note_on channel=0 note=57 velocity=100 time=0.03
EXTRACT: note_on channel=0 note=61 velocity=100 time=0
EXTRACT: note_on channel=0 note=64 velocity=100 time=0
EXTRACT: note_on channel=3 note=69 velocity=64 time=0
EXTRACT: note_on channel=9 note=35 velocity=127 time=0
EXTRACT: note_on channel=9 note=42 velocity=50 time=0
EXTRACT: note_on channel=0 note=57 velocity=0 time=0.09
EXTRACT: note_on channel=9 note=42 velocity=0 time=0
EXTRACT: note_on channel=0 note=57 velocity=0 time=0.03
EXTRACT: note_on channel=0 note=61 velocity=0 time=0
EXTRACT: note_on channel=0 note=64 velocity=0 time=0
EXTRACT: note_on channel=9 note=42 velocity=0 time=0
EXTRACT: note_on channel=5 note=93 velocity=70 time=0.03
EXTRACT: note_on channel=5 note=81 velocity=80 time=0
EXTRACT: note_on channel=9 note=42 velocity=127 time=0
EXTRACT: note_on channel=0 note=45 velocity=0 time=0.06
EXTRACT: note_on channel=3 note=69 velocity=0 time=0.03
EXTRACT: note_on channel=9 note=35 velocity=0 time=0
EXTRACT: note_on channel=0 note=45 velocity=100 time=0.06
EXTRACT: note_on channel=1 note=45 velocity=100 time=0
EXTRACT: note_on channel=3 note=69 velocity=64 time=0
EXTRACT: note_on channel=4 note=45 velocity=100 time=0
EXTRACT: note_on channel=9 note=35 velocity=127 time=0
EXTRACT: note_on channel=9 note=42 velocity=50 time=0
EXTRACT: note_on channel=5 note=93 velocity=0 time=0.09
EXTRACT: note_on channel=5 note=81 velocity=0 time=0
EXTRACT: note_on channel=9 note=42 velocity=0 time=0
EXTRACT: note_on channel=3 note=69 velocity=0 time=0.03
EXTRACT: note_on channel=9 note=42 velocity=0 time=0
EXTRACT: note_on channel=0 note=57 velocity=100 time=0.03
EXTRACT: note_on channel=0 note=61 velocity=100 time=0
EXTRACT: note_on channel=0 note=64 velocity=100 time=0
EXTRACT: note_on channel=2 note=66 velocity=127 time=0
EXTRACT: note_on channel=9 note=35 velocity=127 time=0
EXTRACT: note_on channel=9 note=42 velocity=127 time=0
EXTRACT: note_on channel=0 note=45 velocity=0 time=0.09
EXTRACT: note_on channel=1 note=45 velocity=0 time=0
EXTRACT: note_on channel=4 note=45 velocity=0 time=0
EXTRACT: note_on channel=9 note=35 velocity=0 time=0
EXTRACT: note_on channel=3 note=69 velocity=64 time=0.06
EXTRACT: note_on channel=9 note=42 velocity=50 time=0
EXTRACT: note_on channel=0 note=57 velocity=0 time=0.09
EXTRACT: note_on channel=0 note=61 velocity=0 time=0
EXTRACT: note_on channel=0 note=64 velocity=0 time=0
EXTRACT: note_on channel=2 note=66 velocity=0 time=0
EXTRACT: note_on channel=9 note=35 velocity=0 time=0
EXTRACT: note_on channel=9 note=42 velocity=0 time=0
EXTRACT: note_on channel=9 note=42 velocity=0 time=0.03
EXTRACT: note_on channel=0 note=45 velocity=100 time=0.03
EXTRACT: note_on channel=1 note=45 velocity=100 time=0
EXTRACT: note_on channel=2 note=66 velocity=127 time=0
EXTRACT: note_on channel=3 note=69 velocity=64 time=0
EXTRACT: note_on channel=4 note=45 velocity=100 time=0
EXTRACT: note_on channel=5 note=93 velocity=70 time=0
EXTRACT: note_on channel=5 note=81 velocity=80 time=0
EXTRACT: note_on channel=9 note=38 velocity=127 time=0
EXTRACT: note_on channel=9 note=42 velocity=127 time=0
EXTRACT: note_on channel=3 note=69 velocity=0 time=0.09
EXTRACT: note_on channel=0 note=57 velocity=100 time=0.06
EXTRACT: note_on channel=0 note=61 velocity=100 time=0
EXTRACT: note_on channel=0 note=64 velocity=100 time=0
EXTRACT: note_on channel=9 note=42 velocity=50 time=0
EXTRACT: note_on channel=2 note=66 velocity=0 time=0.09
EXTRACT: note_on channel=3 note=69 velocity=0 time=0
EXTRACT: note_on channel=5 note=93 velocity=0 time=0
EXTRACT: note_on channel=5 note=81 velocity=0 time=0
EXTRACT: note_on channel=9 note=38 velocity=0 time=0
EXTRACT: note_on channel=9 note=42 velocity=0 time=0
EXTRACT: note_on channel=9 note=42 velocity=0 time=0.03
EXTRACT: note_on channel=2 note=66 velocity=127 time=0.03
EXTRACT: note_on channel=9 note=42 velocity=127 time=0
EXTRACT: note_on channel=0 note=57 velocity=0 time=0.09
EXTRACT: note_on channel=0 note=61 velocity=0 time=0
EXTRACT: note_on channel=0 note=64 velocity=0 time=0
EXTRACT: note_on channel=9 note=42 velocity=50 time=0.06
EXTRACT: note_on channel=0 note=45 velocity=0 time=0.03
EXTRACT: note_on channel=1 note=45 velocity=0 time=0
EXTRACT: note_on channel=4 note=45 velocity=0 time=0
EXTRACT: note_on channel=2 note=66 velocity=0 time=0.06
EXTRACT: note_on channel=9 note=42 velocity=0 time=0
EXTRACT: note_on channel=9 note=42 velocity=0 time=0.03
EXTRACT: note_on channel=0 note=42 velocity=100 time=0.03
EXTRACT: note_on channel=1 note=42 velocity=100 time=0
EXTRACT: note_on channel=2 note=66 velocity=127 time=0
EXTRACT: note_on channel=4 note=42 velocity=100 time=0
EXTRACT: note_on channel=5 note=93 velocity=70 time=0
EXTRACT: note_on channel=5 note=81 velocity=80 time=0
EXTRACT: note_on channel=9 note=35 velocity=127 time=0
EXTRACT: note_on channel=9 note=42 velocity=127 time=0
EXTRACT: note_on channel=9 note=42 velocity=0 time=0.12
EXTRACT: note_on channel=9 note=42 velocity=50 time=0.03
EXTRACT: note_on channel=0 note=42 velocity=0 time=0.09
EXTRACT: note_on channel=1 note=42 velocity=0 time=0
EXTRACT: note_on channel=2 note=66 velocity=0 time=0
EXTRACT: note_on channel=4 note=42 velocity=0 time=0
EXTRACT: note_on channel=5 note=93 velocity=0 time=0
EXTRACT: note_on channel=5 note=81 velocity=0 time=0
EXTRACT: note_on channel=9 note=35 velocity=0 time=0
EXTRACT: note_on channel=9 note=42 velocity=0 time=0.03
EXTRACT: note_on channel=0 note=42 velocity=100 time=0.03
EXTRACT: note_on channel=1 note=42 velocity=100 time=0
EXTRACT: note_on channel=2 note=66 velocity=127 time=0
EXTRACT: note_on channel=3 note=69 velocity=64 time=0
EXTRACT: note_on channel=4 note=42 velocity=100 time=0
EXTRACT: note_on channel=9 note=42 velocity=127 time=0
EXTRACT: note_on channel=3 note=69 velocity=0 time=0.12
EXTRACT: note_on channel=3 note=69 velocity=64 time=0.03
EXTRACT: note_on channel=9 note=42 velocity=50 time=0
EXTRACT: note_on channel=2 note=66 velocity=0 time=0.09
EXTRACT: note_on channel=9 note=42 velocity=0 time=0
EXTRACT: note_on channel=3 note=69 velocity=0 time=0.03
EXTRACT: note_on channel=9 note=42 velocity=0 time=0
EXTRACT: note_on channel=0 note=57 velocity=100 time=0.03
EXTRACT: note_on channel=0 note=62 velocity=100 time=0
EXTRACT: note_on channel=0 note=66 velocity=100 time=0
EXTRACT: note_on channel=2 note=64 velocity=127 time=0
EXTRACT: note_on channel=3 note=69 velocity=64 time=0
EXTRACT: note_on channel=5 note=93 velocity=70 time=0
EXTRACT: note_on channel=5 note=81 velocity=80 time=0
EXTRACT: note_on channel=9 note=38 velocity=127 time=0
EXTRACT: note_on channel=9 note=42 velocity=127 time=0
EXTRACT: note_on channel=9 note=42 velocity=50 time=0.15
EXTRACT: note_on channel=0 note=42 velocity=0 time=0.03
EXTRACT: note_on channel=1 note=42 velocity=0 time=0
EXTRACT: note_on channel=4 note=42 velocity=0 time=0
EXTRACT: note_on channel=0 note=57 velocity=0 time=0.06
EXTRACT: note_on channel=0 note=62 velocity=0 time=0
EXTRACT: note_on channel=0 note=66 velocity=0 time=0
EXTRACT: note_on channel=2 note=64 velocity=0 time=0
EXTRACT: note_on channel=3 note=69 velocity=0 time=0
EXTRACT: note_on channel=5 note=93 velocity=0 time=0
EXTRACT: note_on channel=5 note=81 velocity=0 time=0
EXTRACT: note_on channel=9 note=38 velocity=0 time=0
EXTRACT: note_on channel=9 note=42 velocity=0 time=0
EXTRACT: note_on channel=9 note=42 velocity=0 time=0.03
EXTRACT: note_on channel=0 note=57 velocity=100 time=0.03
EXTRACT: note_on channel=2 note=62 velocity=127 time=0
EXTRACT: note_on channel=3 note=69 velocity=64 time=0
EXTRACT: note_on channel=9 note=42 velocity=127 time=0
EXTRACT: note_on channel=2 note=62 velocity=0 time=0.12
EXTRACT: note_on channel=3 note=69 velocity=0 time=0
EXTRACT: note_on channel=0 note=67 velocity=100 time=0.03
EXTRACT: note_on channel=0 note=59 velocity=100 time=0
EXTRACT: note_on channel=0 note=62 velocity=100 time=0
EXTRACT: note_on channel=2 note=60 velocity=127 time=0
EXTRACT: note_on channel=3 note=69 velocity=64 time=0
EXTRACT: note_on channel=9 note=35 velocity=127 time=0
EXTRACT: note_on channel=9 note=42 velocity=50 time=0
EXTRACT: note_on channel=0 note=57 velocity=0 time=0.09
EXTRACT: note_on channel=9 note=42 velocity=0 time=0
EXTRACT: note_on channel=0 note=67 velocity=0 time=0.03
EXTRACT: note_on channel=0 note=59 velocity=0 time=0
EXTRACT: note_on channel=0 note=62 velocity=0 time=0
EXTRACT: note_on channel=9 note=42 velocity=0 time=0
EXTRACT: note_on channel=5 note=93 velocity=70 time=0.03
EXTRACT: note_on channel=5 note=81 velocity=80 time=0
EXTRACT: note_on channel=9 note=42 velocity=127 time=0
EXTRACT: note_on channel=2 note=60 velocity=0 time=0.09
EXTRACT: note_on channel=3 note=69 velocity=0 time=0
EXTRACT: note_on channel=9 note=35 velocity=0 time=0
EXTRACT: note_on channel=0 note=43 velocity=100 time=0.06
EXTRACT: note_on channel=1 note=43 velocity=100 time=0
EXTRACT: note_on channel=3 note=69 velocity=64 time=0
EXTRACT: note_on channel=4 note=43 velocity=100 time=0
EXTRACT: note_on channel=9 note=35 velocity=127 time=0
EXTRACT: note_on channel=9 note=42 velocity=50 time=0
EXTRACT: note_on channel=5 note=93 velocity=0 time=0.09
EXTRACT: note_on channel=5 note=81 velocity=0 time=0
EXTRACT: note_on channel=9 note=42 velocity=0 time=0
EXTRACT: note_on channel=3 note=69 velocity=0 time=0.03
EXTRACT: note_on channel=9 note=42 velocity=0 time=0
EXTRACT: note_on channel=0 note=67 velocity=100 time=0.03
EXTRACT: note_on channel=0 note=59 velocity=100 time=0
EXTRACT: note_on channel=0 note=62 velocity=100 time=0
EXTRACT: note_on channel=2 note=54 velocity=100 time=0
EXTRACT: note_on channel=2 note=62 velocity=100 time=0
EXTRACT: note_on channel=2 note=66 velocity=127 time=0
EXTRACT: note_on channel=9 note=35 velocity=127 time=0
EXTRACT: note_on channel=9 note=42 velocity=127 time=0
EXTRACT: note_on channel=0 note=43 velocity=0 time=0.09
EXTRACT: note_on channel=1 note=43 velocity=0 time=0
EXTRACT: note_on channel=4 note=43 velocity=0 time=0
EXTRACT: note_on channel=9 note=35 velocity=0 time=0
EXTRACT: note_on channel=3 note=69 velocity=64 time=0.06
EXTRACT: note_on channel=9 note=42 velocity=50 time=0
EXTRACT: note_on channel=0 note=67 velocity=0 time=0.09
EXTRACT: note_on channel=0 note=59 velocity=0 time=0
EXTRACT: note_on channel=0 note=62 velocity=0 time=0
EXTRACT: note_on channel=2 note=54 velocity=0 time=0
EXTRACT: note_on channel=2 note=62 velocity=0 time=0
EXTRACT: note_on channel=2 note=66 velocity=0 time=0
EXTRACT: note_on channel=9 note=35 velocity=0 time=0
EXTRACT: note_on channel=9 note=42 velocity=0 time=0
EXTRACT: note_on channel=9 note=42 velocity=0 time=0.03
EXTRACT: note_on channel=0 note=43 velocity=100 time=0.03
EXTRACT: note_on channel=1 note=43 velocity=100 time=0
EXTRACT: note_on channel=2 note=57 velocity=100 time=0
EXTRACT: note_on channel=2 note=66 velocity=100 time=0
EXTRACT: note_on channel=2 note=69 velocity=127 time=0
EXTRACT: note_on channel=3 note=69 velocity=64 time=0
EXTRACT: note_on channel=4 note=43 velocity=100 time=0
EXTRACT: note_on channel=5 note=93 velocity=70 time=0
EXTRACT: note_on channel=5 note=81 velocity=80 time=0
EXTRACT: note_on channel=9 note=38 velocity=127 time=0
EXTRACT: note_on channel=9 note=42 velocity=127 time=0
EXTRACT: note_on channel=3 note=69 velocity=0 time=0.09
EXTRACT: note_on channel=0 note=67 velocity=100 time=0.06
EXTRACT: note_on channel=0 note=59 velocity=100 time=0
EXTRACT: note_on channel=0 note=62 velocity=100 time=0
EXTRACT: note_on channel=9 note=42 velocity=50 time=0
EXTRACT: note_on channel=2 note=57 velocity=0 time=0.09
EXTRACT: note_on channel=2 note=66 velocity=0 time=0
EXTRACT: note_on channel=2 note=69 velocity=0 time=0
EXTRACT: note_on channel=3 note=69 velocity=0 time=0
EXTRACT: note_on channel=5 note=93 velocity=0 time=0
EXTRACT: note_on channel=5 note=81 velocity=0 time=0
EXTRACT: note_on channel=9 note=38 velocity=0 time=0
EXTRACT: note_on channel=9 note=42 velocity=0 time=0
EXTRACT: note_on channel=9 note=42 velocity=0 time=0.03
EXTRACT: note_on channel=2 note=54 velocity=100 time=0.03
EXTRACT: note_on channel=2 note=62 velocity=100 time=0
EXTRACT: note_on channel=2 note=66 velocity=127 time=0
EXTRACT: note_on channel=9 note=42 velocity=127 time=0
EXTRACT: note_on channel=0 note=67 velocity=0 time=0.09
EXTRACT: note_on channel=0 note=59 velocity=0 time=0
EXTRACT: note_on channel=0 note=62 velocity=0 time=0
EXTRACT: note_on channel=9 note=42 velocity=50 time=0.06
EXTRACT: note_on channel=0 note=43 velocity=0 time=0.03
EXTRACT: note_on channel=1 note=43 velocity=0 time=0
EXTRACT: note_on channel=4 note=43 velocity=0 time=0
EXTRACT: note_on channel=2 note=54 velocity=0 time=0.06
EXTRACT: note_on channel=2 note=62 velocity=0 time=0
EXTRACT: note_on channel=2 note=66 velocity=0 time=0
EXTRACT: note_on channel=9 note=42 velocity=0 time=0
EXTRACT: note_on channel=9 note=42 velocity=0 time=0.03
EXTRACT: note_on channel=0 note=45 velocity=100 time=0.03
EXTRACT: note_on channel=1 note=45 velocity=100 time=0
EXTRACT: note_on channel=2 note=57 velocity=100 time=0
EXTRACT: note_on channel=2 note=66 velocity=100 time=0
EXTRACT: note_on channel=2 note=69 velocity=127 time=0
EXTRACT: note_on channel=4 note=45 velocity=100 time=0
EXTRACT: note_on channel=5 note=93 velocity=70 time=0
EXTRACT: note_on channel=5 note=81 velocity=80 time=0
EXTRACT: note_on channel=9 note=35 velocity=127 time=0
EXTRACT: note_on channel=9 note=42 velocity=127 time=0
EXTRACT: note_on channel=2 note=57 velocity=0 time=0.12
EXTRACT: note_on channel=2 note=66 velocity=0 time=0
EXTRACT: note_on channel=2 note=69 velocity=0 time=0
EXTRACT: note_on channel=9 note=42 velocity=0 time=0
EXTRACT: note_on channel=2 note=66 velocity=100 time=0.03
EXTRACT: note_on channel=2 note=57 velocity=100 time=0
EXTRACT: note_on channel=2 note=69 velocity=127 time=0
EXTRACT: note_on channel=9 note=42 velocity=50 time=0
EXTRACT: note_on channel=0 note=45 velocity=0 time=0.09
EXTRACT: note_on channel=1 note=45 velocity=0 time=0
EXTRACT: note_on channel=4 note=45 velocity=0 time=0
EXTRACT: note_on channel=5 note=93 velocity=0 time=0
EXTRACT: note_on channel=5 note=81 velocity=0 time=0
EXTRACT: note_on channel=9 note=35 velocity=0 time=0
EXTRACT: note_on channel=2 note=66 velocity=0 time=0.03
EXTRACT: note_on channel=2 note=57 velocity=0 time=0
EXTRACT: note_on channel=2 note=69 velocity=0 time=0
EXTRACT: note_on channel=9 note=42 velocity=0 time=0
EXTRACT: note_on channel=0 note=45 velocity=100 time=0.03
EXTRACT: note_on channel=1 note=45 velocity=100 time=0
EXTRACT: note_on channel=2 note=54 velocity=100 time=0
EXTRACT: note_on channel=2 note=62 velocity=100 time=0
EXTRACT: note_on channel=2 note=66 velocity=127 time=0
EXTRACT: note_on channel=3 note=69 velocity=64 time=0
EXTRACT: note_on channel=4 note=45 velocity=100 time=0
EXTRACT: note_on channel=9 note=42 velocity=127 time=0
EXTRACT: note_on channel=3 note=69 velocity=0 time=0.12
EXTRACT: note_on channel=3 note=69 velocity=64 time=0.03
EXTRACT: note_on channel=9 note=42 velocity=50 time=0
EXTRACT: note_on channel=2 note=54 velocity=0 time=0.09
EXTRACT: note_on channel=2 note=62 velocity=0 time=0
EXTRACT: note_on channel=2 note=66 velocity=0 time=0
EXTRACT: note_on channel=9 note=42 velocity=0 time=0
EXTRACT: note_on channel=3 note=69 velocity=0 time=0.03
EXTRACT: note_on channel=9 note=42 velocity=0 time=0
EXTRACT: note_on channel=0 note=57 velocity=100 time=0.03
EXTRACT: note_on channel=0 note=62 velocity=100 time=0
EXTRACT: note_on channel=0 note=66 velocity=100 time=0
EXTRACT: note_on channel=3 note=69 velocity=64 time=0
EXTRACT: note_on channel=5 note=93 velocity=70 time=0
EXTRACT: note_on channel=5 note=81 velocity=80 time=0
EXTRACT: note_on channel=9 note=38 velocity=127 time=0
EXTRACT: note_on channel=9 note=42 velocity=127 time=0
EXTRACT: note_on channel=9 note=42 velocity=50 time=0.15
EXTRACT: note_on channel=1 note=45 velocity=0 time=0.03
EXTRACT: note_on channel=4 note=45 velocity=0 time=0
EXTRACT: note_on channel=0 note=57 velocity=0 time=0.06
EXTRACT: note_on channel=0 note=62 velocity=0 time=0
EXTRACT: note_on channel=0 note=66 velocity=0 time=0
EXTRACT: note_on channel=3 note=69 velocity=0 time=0
EXTRACT: note_on channel=5 note=93 velocity=0 time=0
EXTRACT: note_on channel=5 note=81 velocity=0 time=0
EXTRACT: note_on channel=9 note=38 velocity=0 time=0
EXTRACT: note_on channel=9 note=42 velocity=0 time=0
EXTRACT: note_on channel=9 note=42 velocity=0 time=0.03
EXTRACT: note_on channel=0 note=57 velocity=100 time=0.03
EXTRACT: note_on channel=2 note=57 velocity=100 time=0
EXTRACT: note_on channel=2 note=66 velocity=100 time=0
EXTRACT: note_on channel=2 note=69 velocity=127 time=0
EXTRACT: note_on channel=3 note=69 velocity=64 time=0
EXTRACT: note_on channel=9 note=42 velocity=127 time=0
EXTRACT: note_on channel=3 note=69 velocity=0 time=0.12
EXTRACT: note_on channel=0 note=57 velocity=100 time=0.03
EXTRACT: note_on channel=0 note=61 velocity=100 time=0
EXTRACT: note_on channel=0 note=64 velocity=100 time=0
EXTRACT: note_on channel=3 note=69 velocity=64 time=0
EXTRACT: note_on channel=9 note=35 velocity=127 time=0
EXTRACT: note_on channel=9 note=42 velocity=50 time=0
EXTRACT: note_on channel=0 note=57 velocity=0 time=0.09
EXTRACT: note_on channel=2 note=57 velocity=0 time=0
EXTRACT: note_on channel=2 note=66 velocity=0 time=0
EXTRACT: note_on channel=2 note=69 velocity=0 time=0
EXTRACT: note_on channel=9 note=42 velocity=0 time=0
EXTRACT: note_on channel=0 note=57 velocity=0 time=0.03
EXTRACT: note_on channel=0 note=61 velocity=0 time=0
EXTRACT: note_on channel=0 note=64 velocity=0 time=0
EXTRACT: note_on channel=9 note=42 velocity=0 time=0
EXTRACT: note_on channel=2 note=62 velocity=100 time=0.03
EXTRACT: note_on channel=2 note=54 velocity=100 time=0
EXTRACT: note_on channel=2 note=66 velocity=127 time=0
EXTRACT: note_on channel=5 note=93 velocity=70 time=0
EXTRACT: note_on channel=5 note=81 velocity=80 time=0
EXTRACT: note_on channel=9 note=42 velocity=127 time=0
EXTRACT: note_on channel=0 note=45 velocity=0 time=0.06
EXTRACT: note_on channel=3 note=69 velocity=0 time=0.03
EXTRACT: note_on channel=9 note=35 velocity=0 time=0
EXTRACT: note_on channel=0 note=45 velocity=100 time=0.06
EXTRACT: note_on channel=1 note=45 velocity=100 time=0
EXTRACT: note_on channel=3 note=69 velocity=64 time=0
EXTRACT: note_on channel=4 note=45 velocity=100 time=0
EXTRACT: note_on channel=9 note=35 velocity=127 time=0
EXTRACT: note_on channel=9 note=42 velocity=50 time=0
EXTRACT: note_on channel=5 note=93 velocity=0 time=0.09
EXTRACT: note_on channel=5 note=81 velocity=0 time=0
EXTRACT: note_on channel=9 note=42 velocity=0 time=0
EXTRACT: note_on channel=3 note=69 velocity=0 time=0.03
EXTRACT: note_on channel=9 note=42 velocity=0 time=0
EXTRACT: note_on channel=0 note=57 velocity=100 time=0.03
EXTRACT: note_on channel=0 note=61 velocity=100 time=0
EXTRACT: note_on channel=0 note=64 velocity=100 time=0
EXTRACT: note_on channel=9 note=35 velocity=127 time=0
EXTRACT: note_on channel=9 note=42 velocity=127 time=0
EXTRACT: note_on channel=0 note=45 velocity=0 time=0.09
EXTRACT: note_on channel=1 note=45 velocity=0 time=0
EXTRACT: note_on channel=4 note=45 velocity=0 time=0
EXTRACT: note_on channel=9 note=35 velocity=0 time=0
EXTRACT: note_on channel=3 note=69 velocity=64 time=0.06
EXTRACT: note_on channel=9 note=42 velocity=50 time=0
EXTRACT: note_on channel=2 note=62 velocity=0 time=0.03
EXTRACT: note_on channel=2 note=54 velocity=0 time=0
EXTRACT: note_on channel=2 note=66 velocity=0 time=0
EXTRACT: note_on channel=0 note=57 velocity=0 time=0.06
EXTRACT: note_on channel=0 note=61 velocity=0 time=0
EXTRACT: note_on channel=0 note=64 velocity=0 time=0
EXTRACT: note_on channel=9 note=35 velocity=0 time=0
EXTRACT: note_on channel=9 note=42 velocity=0 time=0
EXTRACT: note_on channel=9 note=42 velocity=0 time=0.03
EXTRACT: note_on channel=0 note=45 velocity=100 time=0.03
EXTRACT: note_on channel=1 note=45 velocity=100 time=0
EXTRACT: note_on channel=2 note=57 velocity=100 time=0
EXTRACT: note_on channel=2 note=66 velocity=100 time=0
EXTRACT: note_on channel=2 note=69 velocity=127 time=0
EXTRACT: note_on channel=3 note=69 velocity=64 time=0
EXTRACT: note_on channel=4 note=45 velocity=100 time=0
EXTRACT: note_on channel=5 note=93 velocity=70 time=0
EXTRACT: note_on channel=5 note=81 velocity=80 time=0
EXTRACT: note_on channel=9 note=38 velocity=127 time=0
EXTRACT: note_on channel=9 note=42 velocity=127 time=0
EXTRACT: note_on channel=3 note=69 velocity=0 time=0.09
EXTRACT: note_on channel=2 note=57 velocity=0 time=0.03
EXTRACT: note_on channel=2 note=66 velocity=0 time=0
EXTRACT: note_on channel=2 note=69 velocity=0 time=0
EXTRACT: note_on channel=0 note=57 velocity=100 time=0.03
EXTRACT: note_on channel=0 note=61 velocity=100 time=0
EXTRACT: note_on channel=0 note=64 velocity=100 time=0
EXTRACT: note_on channel=2 note=54 velocity=100 time=0
EXTRACT: note_on channel=2 note=62 velocity=100 time=0
EXTRACT: note_on channel=2 note=66 velocity=127 time=0
EXTRACT: note_on channel=9 note=42 velocity=50 time=0
EXTRACT: note_on channel=3 note=69 velocity=0 time=0.09
EXTRACT: note_on channel=5 note=93 velocity=0 time=0
EXTRACT: note_on channel=5 note=81 velocity=0 time=0
EXTRACT: note_on channel=9 note=38 velocity=0 time=0
EXTRACT: note_on channel=9 note=42 velocity=0 time=0
EXTRACT: note_on channel=9 note=42 velocity=0 time=0.03
EXTRACT: note_on channel=9 note=42 velocity=127 time=0.03
EXTRACT: note_on channel=0 note=57 velocity=0 time=0.09
EXTRACT: note_on channel=0 note=61 velocity=0 time=0
EXTRACT: note_on channel=0 note=64 velocity=0 time=0
EXTRACT: note_on channel=2 note=54 velocity=0 time=0
EXTRACT: note_on channel=2 note=62 velocity=0 time=0
EXTRACT: note_on channel=2 note=66 velocity=0 time=0
EXTRACT: note_on channel=9 note=42 velocity=50 time=0.06
EXTRACT: note_on channel=0 note=45 velocity=0 time=0.03
EXTRACT: note_on channel=1 note=45 velocity=0 time=0
EXTRACT: note_on channel=4 note=45 velocity=0 time=0
EXTRACT: note_on channel=9 note=42 velocity=0 time=0.06
EXTRACT: note_on channel=9 note=42 velocity=0 time=0.03
EXTRACT: note_on channel=0 note=42 velocity=100 time=0.03
EXTRACT: note_on channel=1 note=42 velocity=100 time=0
EXTRACT: note_on channel=2 note=73 velocity=127 time=0
EXTRACT: note_on channel=4 note=42 velocity=100 time=0
EXTRACT: note_on channel=5 note=93 velocity=70 time=0
EXTRACT: note_on channel=5 note=81 velocity=80 time=0
EXTRACT: note_on channel=9 note=35 velocity=127 time=0
EXTRACT: note_on channel=9 note=42 velocity=127 time=0
EXTRACT: note_on channel=9 note=42 velocity=0 time=0.12
EXTRACT: note_on channel=9 note=42 velocity=50 time=0.03
EXTRACT: note_on channel=0 note=42 velocity=0 time=0.09
EXTRACT: note_on channel=1 note=42 velocity=0 time=0
EXTRACT: note_on channel=2 note=73 velocity=0 time=0
EXTRACT: note_on channel=4 note=42 velocity=0 time=0
EXTRACT: note_on channel=5 note=93 velocity=0 time=0
EXTRACT: note_on channel=5 note=81 velocity=0 time=0
EXTRACT: note_on channel=9 note=35 velocity=0 time=0
EXTRACT: note_on channel=9 note=42 velocity=0 time=0.03
EXTRACT: note_on channel=0 note=42 velocity=100 time=0.03
EXTRACT: note_on channel=1 note=42 velocity=100 time=0
EXTRACT: note_on channel=2 note=76 velocity=127 time=0
EXTRACT: note_on channel=3 note=69 velocity=64 time=0
EXTRACT: note_on channel=4 note=42 velocity=100 time=0
EXTRACT: note_on channel=9 note=42 velocity=127 time=0
EXTRACT: note_on channel=3 note=69 velocity=0 time=0.12
EXTRACT: note_on channel=3 note=69 velocity=64 time=0.03
EXTRACT: note_on channel=9 note=42 velocity=50 time=0
EXTRACT: note_on channel=2 note=76 velocity=0 time=0.09
EXTRACT: note_on channel=9 note=42 velocity=0 time=0
EXTRACT: note_on channel=3 note=69 velocity=0 time=0.03
EXTRACT: note_on channel=9 note=42 velocity=0 time=0
EXTRACT: note_on channel=0 note=57 velocity=100 time=0.03
EXTRACT: note_on channel=0 note=62 velocity=100 time=0
EXTRACT: note_on channel=0 note=66 velocity=100 time=0
EXTRACT: note_on channel=2 note=73 velocity=127 time=0
EXTRACT: note_on channel=3 note=69 velocity=64 time=0
EXTRACT: note_on channel=5 note=93 velocity=70 time=0
EXTRACT: note_on channel=5 note=81 velocity=80 time=0
EXTRACT: note_on channel=9 note=38 velocity=127 time=0
EXTRACT: note_on channel=9 note=42 velocity=127 time=0
EXTRACT: note_on channel=9 note=42 velocity=50 time=0.15
EXTRACT: note_on channel=0 note=42 velocity=0 time=0.03
EXTRACT: note_on channel=1 note=42 velocity=0 time=0
EXTRACT: note_on channel=4 note=42 velocity=0 time=0
EXTRACT: note_on channel=0 note=57 velocity=0 time=0.06
EXTRACT: note_on channel=0 note=62 velocity=0 time=0
EXTRACT: note_on channel=0 note=66 velocity=0 time=0
EXTRACT: note_on channel=2 note=73 velocity=0 time=0
EXTRACT: note_on channel=3 note=69 velocity=0 time=0
EXTRACT: note_on channel=5 note=93 velocity=0 time=0
EXTRACT: note_on channel=5 note=81 velocity=0 time=0
EXTRACT: note_on channel=9 note=38 velocity=0 time=0
EXTRACT: note_on channel=9 note=42 velocity=0 time=0
EXTRACT: note_on channel=9 note=42 velocity=0 time=0.03
EXTRACT: note_on channel=0 note=57 velocity=100 time=0.03
EXTRACT: note_on channel=2 note=71 velocity=127 time=0
EXTRACT: note_on channel=3 note=69 velocity=64 time=0
EXTRACT: note_on channel=9 note=42 velocity=127 time=0
EXTRACT: note_on channel=2 note=71 velocity=0 time=0.12
EXTRACT: note_on channel=3 note=69 velocity=0 time=0
EXTRACT: note_on channel=0 note=67 velocity=100 time=0.03
EXTRACT: note_on channel=0 note=59 velocity=100 time=0
EXTRACT: note_on channel=0 note=62 velocity=100 time=0
EXTRACT: note_on channel=2 note=69 velocity=127 time=0
EXTRACT: note_on channel=3 note=69 velocity=64 time=0
EXTRACT: note_on channel=9 note=35 velocity=127 time=0
EXTRACT: note_on channel=9 note=42 velocity=50 time=0
EXTRACT: note_on channel=0 note=57 velocity=0 time=0.09
EXTRACT: note_on channel=9 note=42 velocity=0 time=0
EXTRACT: note_on channel=0 note=67 velocity=0 time=0.03
EXTRACT: note_on channel=0 note=59 velocity=0 time=0
EXTRACT: note_on channel=0 note=62 velocity=0 time=0
EXTRACT: note_on channel=9 note=42 velocity=0 time=0
EXTRACT: note_on channel=5 note=93 velocity=70 time=0.03
EXTRACT: note_on channel=5 note=81 velocity=80 time=0
EXTRACT: note_on channel=9 note=42 velocity=127 time=0
EXTRACT: note_on channel=3 note=69 velocity=0 time=0.09
EXTRACT: note_on channel=9 note=35 velocity=0 time=0
EXTRACT: note_on channel=0 note=43 velocity=100 time=0.06
EXTRACT: note_on channel=1 note=43 velocity=100 time=0
EXTRACT: note_on channel=3 note=69 velocity=64 time=0
EXTRACT: note_on channel=4 note=43 velocity=100 time=0
EXTRACT: note_on channel=9 note=35 velocity=127 time=0
EXTRACT: note_on channel=9 note=42 velocity=50 time=0
EXTRACT: note_on channel=5 note=93 velocity=0 time=0.09
EXTRACT: note_on channel=5 note=81 velocity=0 time=0
EXTRACT: note_on channel=9 note=42 velocity=0 time=0
EXTRACT: note_on channel=3 note=69 velocity=0 time=0.03
EXTRACT: note_on channel=9 note=42 velocity=0 time=0
EXTRACT: note_on channel=0 note=67 velocity=100 time=0.03
EXTRACT: note_on channel=0 note=59 velocity=100 time=0
EXTRACT: note_on channel=0 note=62 velocity=100 time=0
EXTRACT: note_on channel=9 note=35 velocity=127 time=0
EXTRACT: note_on channel=9 note=42 velocity=127 time=0
EXTRACT: note_on channel=2 note=69 velocity=0 time=0.03
EXTRACT: note_on channel=0 note=43 velocity=0 time=0.06
EXTRACT: note_on channel=1 note=43 velocity=0 time=0
EXTRACT: note_on channel=4 note=43 velocity=0 time=0
EXTRACT: note_on channel=9 note=35 velocity=0 time=0
EXTRACT: note_on channel=3 note=69 velocity=64 time=0.06
EXTRACT: note_on channel=9 note=42 velocity=50 time=0
EXTRACT: note_on channel=0 note=67 velocity=0 time=0.09
EXTRACT: note_on channel=0 note=59 velocity=0 time=0
EXTRACT: note_on channel=0 note=62 velocity=0 time=0
EXTRACT: note_on channel=9 note=35 velocity=0 time=0
EXTRACT: note_on channel=9 note=42 velocity=0 time=0
EXTRACT: note_on channel=9 note=42 velocity=0 time=0.03
EXTRACT: note_on channel=0 note=43 velocity=100 time=0.03
EXTRACT: note_on channel=1 note=43 velocity=100 time=0
EXTRACT: note_on channel=3 note=69 velocity=64 time=0
EXTRACT: note_on channel=4 note=43 velocity=100 time=0
EXTRACT: note_on channel=5 note=93 velocity=70 time=0
EXTRACT: note_on channel=5 note=81 velocity=80 time=0
EXTRACT: note_on channel=9 note=38 velocity=127 time=0
EXTRACT: note_on channel=9 note=42 velocity=127 time=0
EXTRACT: note_on channel=3 note=69 velocity=0 time=0.09
EXTRACT: note_on channel=0 note=67 velocity=100 time=0.06
EXTRACT: note_on channel=0 note=59 velocity=100 time=0
EXTRACT: note_on channel=0 note=62 velocity=100 time=0
EXTRACT: note_on channel=9 note=42 velocity=50 time=0
EXTRACT: note_on channel=3 note=69 velocity=0 time=0.09
EXTRACT: note_on channel=5 note=93 velocity=0 time=0
EXTRACT: note_on channel=5 note=81 velocity=0 time=0
EXTRACT: note_on channel=9 note=38 velocity=0 time=0
EXTRACT: note_on channel=9 note=42 velocity=0 time=0
EXTRACT: note_on channel=9 note=42 velocity=0 time=0.03
EXTRACT: note_on channel=9 note=42 velocity=127 time=0.03
EXTRACT: note_on channel=0 note=67 velocity=0 time=0.09
EXTRACT: note_on channel=0 note=59 velocity=0 time=0
EXTRACT: note_on channel=0 note=62 velocity=0 time=0
EXTRACT: note_on channel=9 note=42 velocity=50 time=0.06
EXTRACT: note_on channel=0 note=43 velocity=0 time=0.03
EXTRACT: note_on channel=1 note=43 velocity=0 time=0
EXTRACT: note_on channel=4 note=43 velocity=0 time=0
EXTRACT: note_on channel=9 note=42 velocity=0 time=0.06
EXTRACT: note_on channel=9 note=42 velocity=0 time=0.03
EXTRACT: note_on channel=2 note=52 velocity=127 time=0.03
EXTRACT: note_on channel=2 note=64 velocity=127 time=0
EXTRACT: note_on channel=2 note=76 velocity=127 time=0
EXTRACT: note_on channel=9 note=35 velocity=127 time=0
EXTRACT: note_on channel=9 note=42 velocity=127 time=0
EXTRACT: note_on channel=9 note=42 velocity=0 time=0.12
EXTRACT: note_on channel=9 note=42 velocity=50 time=0.03
EXTRACT: note_on channel=9 note=35 velocity=0 time=0.09
EXTRACT: note_on channel=9 note=42 velocity=0 time=0.03
EXTRACT: note_on channel=9 note=42 velocity=127 time=0.03
EXTRACT: note_on channel=9 note=42 velocity=50 time=0.15
EXTRACT: note_on channel=2 note=52 velocity=0 time=0.03
EXTRACT: note_on channel=2 note=64 velocity=0 time=0
EXTRACT: note_on channel=2 note=76 velocity=0 time=0
EXTRACT: note_on channel=9 note=42 velocity=0 time=0.06
EXTRACT: note_on channel=9 note=42 velocity=0 time=0.03
EXTRACT: note_on channel=2 note=50 velocity=127 time=0.03
EXTRACT: note_on channel=2 note=62 velocity=127 time=0
EXTRACT: note_on channel=2 note=74 velocity=127 time=0
EXTRACT: note_on channel=9 note=38 velocity=127 time=0
EXTRACT: note_on channel=9 note=42 velocity=127 time=0
EXTRACT: note_on channel=9 note=42 velocity=50 time=0.15
EXTRACT: note_on channel=9 note=38 velocity=0 time=0.09
EXTRACT: note_on channel=9 note=42 velocity=0 time=0
EXTRACT: note_on channel=9 note=42 velocity=0 time=0.03
EXTRACT: note_on channel=9 note=42 velocity=127 time=0.03
EXTRACT: note_on channel=9 note=35 velocity=127 time=0.15
EXTRACT: note_on channel=9 note=42 velocity=50 time=0
EXTRACT: note_on channel=2 note=50 velocity=0 time=0.03
EXTRACT: note_on channel=2 note=62 velocity=0 time=0
EXTRACT: note_on channel=2 note=74 velocity=0 time=0
EXTRACT: note_on channel=9 note=42 velocity=0 time=0.06
EXTRACT: note_on channel=9 note=42 velocity=0 time=0.03
EXTRACT: note_on channel=2 note=48 velocity=127 time=0.03
EXTRACT: note_on channel=2 note=60 velocity=127 time=0
EXTRACT: note_on channel=2 note=72 velocity=127 time=0
EXTRACT: note_on channel=9 note=42 velocity=127 time=0
EXTRACT: note_on channel=9 note=35 velocity=0 time=0.09
EXTRACT: note_on channel=9 note=35 velocity=127 time=0.06
EXTRACT: note_on channel=9 note=42 velocity=50 time=0
EXTRACT: note_on channel=9 note=42 velocity=0 time=0.09
EXTRACT: note_on channel=9 note=42 velocity=0 time=0.03
EXTRACT: note_on channel=9 note=35 velocity=127 time=0.03
EXTRACT: note_on channel=9 note=42 velocity=127 time=0
EXTRACT: note_on channel=9 note=35 velocity=0 time=0.09
EXTRACT: note_on channel=9 note=42 velocity=50 time=0.06
EXTRACT: note_on channel=2 note=48 velocity=0 time=0.03
EXTRACT: note_on channel=2 note=60 velocity=0 time=0
EXTRACT: note_on channel=2 note=72 velocity=0 time=0
EXTRACT: note_on channel=9 note=35 velocity=0 time=0.06
EXTRACT: note_on channel=9 note=42 velocity=0 time=0
EXTRACT: note_on channel=9 note=42 velocity=0 time=0.03
EXTRACT: note_on channel=2 note=45 velocity=127 time=0.03
EXTRACT: note_on channel=2 note=57 velocity=127 time=0
EXTRACT: note_on channel=2 note=69 velocity=127 time=0
EXTRACT: note_on channel=9 note=38 velocity=127 time=0
EXTRACT: note_on channel=9 note=42 velocity=127 time=0
EXTRACT: note_on channel=9 note=42 velocity=50 time=0.15
EXTRACT: note_on channel=2 note=45 velocity=0 time=0.09
EXTRACT: note_on channel=2 note=57 velocity=0 time=0
EXTRACT: note_on channel=2 note=69 velocity=0 time=0
EXTRACT: note_on channel=9 note=38 velocity=0 time=0
EXTRACT: note_on channel=9 note=42 velocity=0 time=0
EXTRACT: note_on channel=9 note=42 velocity=0 time=0.03
EXTRACT: note_on channel=2 note=43 velocity=127 time=0.03
EXTRACT: note_on channel=2 note=55 velocity=127 time=0
EXTRACT: note_on channel=2 note=67 velocity=127 time=0
EXTRACT: note_on channel=9 note=42 velocity=127 time=0
EXTRACT: note_on channel=9 note=42 velocity=50 time=0.15
EXTRACT: note_on channel=9 note=42 velocity=0 time=0.09
EXTRACT: note_on channel=9 note=42 velocity=0 time=0.03
EXTRACT: note_on channel=9 note=35 velocity=127 time=0.03
EXTRACT: note_on channel=9 note=42 velocity=127 time=0
EXTRACT: note_on channel=9 note=42 velocity=0 time=0.12
EXTRACT: note_on channel=9 note=42 velocity=50 time=0.03
EXTRACT: note_on channel=2 note=43 velocity=0 time=0.03
EXTRACT: note_on channel=2 note=55 velocity=0 time=0
EXTRACT: note_on channel=2 note=67 velocity=0 time=0
EXTRACT: note_on channel=9 note=35 velocity=0 time=0.06
EXTRACT: note_on channel=9 note=42 velocity=0 time=0.03
EXTRACT: note_on channel=2 note=45 velocity=127 time=0.03
EXTRACT: note_on channel=2 note=57 velocity=127 time=0
EXTRACT: note_on channel=2 note=69 velocity=127 time=0
EXTRACT: note_on channel=9 note=42 velocity=127 time=0
EXTRACT: note_on channel=9 note=42 velocity=50 time=0.15
EXTRACT: note_on channel=9 note=42 velocity=0 time=0.09
EXTRACT: note_on channel=9 note=42 velocity=0 time=0.03
EXTRACT: note_on channel=9 note=38 velocity=127 time=0.03
EXTRACT: note_on channel=9 note=42 velocity=127 time=0
EXTRACT: note_on channel=9 note=42 velocity=50 time=0.15
EXTRACT: note_on channel=2 note=45 velocity=0 time=0.03
EXTRACT: note_on channel=2 note=57 velocity=0 time=0
EXTRACT: note_on channel=2 note=69 velocity=0 time=0
EXTRACT: note_on channel=9 note=38 velocity=0 time=0.06
EXTRACT: note_on channel=9 note=42 velocity=0 time=0
EXTRACT: note_on channel=9 note=42 velocity=0 time=0.03
EXTRACT: note_on channel=2 note=57 velocity=70 time=0.03
EXTRACT: note_on channel=9 note=42 velocity=127 time=0
EXTRACT: note_on channel=2 note=55 velocity=70 time=0.15
EXTRACT: note_on channel=9 note=35 velocity=127 time=0
EXTRACT: note_on channel=9 note=42 velocity=50 time=0
EXTRACT: note_on channel=2 note=57 velocity=0 time=0.09
EXTRACT: note_on channel=9 note=42 velocity=0 time=0
EXTRACT: note_on channel=9 note=42 velocity=0 time=0.03
EXTRACT: note_on channel=2 note=60 velocity=70 time=0.03
EXTRACT: note_on channel=9 note=42 velocity=127 time=0
EXTRACT: note_on channel=2 note=55 velocity=0 time=0.09
EXTRACT: note_on channel=9 note=35 velocity=0 time=0
EXTRACT: note_on channel=9 note=35 velocity=127 time=0.06
EXTRACT: note_on channel=9 note=42 velocity=50 time=0
EXTRACT: note_on channel=2 note=60 velocity=0 time=0.09
EXTRACT: note_on channel=9 note=42 velocity=0 time=0
EXTRACT: note_on channel=9 note=42 velocity=0 time=0.03
EXTRACT: note_on channel=2 note=57 velocity=70 time=0.03
EXTRACT: note_on channel=9 note=35 velocity=127 time=0
EXTRACT: note_on channel=9 note=42 velocity=127 time=0
EXTRACT: note_on channel=9 note=35 velocity=0 time=0.09
EXTRACT: note_on channel=9 note=42 velocity=50 time=0.06
EXTRACT: note_on channel=2 note=57 velocity=0 time=0.09
EXTRACT: note_on channel=9 note=35 velocity=0 time=0
EXTRACT: note_on channel=9 note=42 velocity=0 time=0
EXTRACT: note_on channel=9 note=42 velocity=0 time=0.03
EXTRACT: note_on channel=2 note=43 velocity=127 time=0.03
EXTRACT: note_on channel=2 note=55 velocity=127 time=0
EXTRACT: note_on channel=2 note=67 velocity=127 time=0
EXTRACT: note_on channel=9 note=38 velocity=127 time=0
EXTRACT: note_on channel=9 note=42 velocity=127 time=0
EXTRACT: note_on channel=2 note=43 velocity=0 time=0.12
EXTRACT: note_on channel=2 note=55 velocity=0 time=0
EXTRACT: note_on channel=2 note=67 velocity=0 time=0
EXTRACT: note_on channel=2 note=43 velocity=127 time=0.03
EXTRACT: note_on channel=2 note=55 velocity=127 time=0
EXTRACT: note_on channel=2 note=67 velocity=127 time=0
EXTRACT: note_on channel=9 note=42 velocity=50 time=0
EXTRACT: note_on channel=9 note=38 velocity=0 time=0.09
EXTRACT: note_on channel=9 note=42 velocity=0 time=0
EXTRACT: note_on channel=2 note=43 velocity=0 time=0.03
EXTRACT: note_on channel=2 note=55 velocity=0 time=0
EXTRACT: note_on channel=2 note=67 velocity=0 time=0
EXTRACT: note_on channel=9 note=42 velocity=0 time=0
EXTRACT: note_on channel=2 note=45 velocity=127 time=0.03
EXTRACT: note_on channel=2 note=57 velocity=127 time=0
EXTRACT: note_on channel=2 note=69 velocity=127 time=0
EXTRACT: note_on channel=9 note=42 velocity=127 time=0
EXTRACT: note_on channel=9 note=42 velocity=50 time=0.15
EXTRACT: note_on channel=2 note=45 velocity=0 time=0.09
EXTRACT: note_on channel=2 note=57 velocity=0 time=0
EXTRACT: note_on channel=2 note=69 velocity=0 time=0
EXTRACT: note_on channel=9 note=42 velocity=0 time=0
EXTRACT: note_on channel=9 note=42 velocity=0 time=0.03
EXTRACT: note_on channel=2 note=60 velocity=127 time=0.03
EXTRACT: note_on channel=2 note=48 velocity=127 time=0
EXTRACT: note_on channel=2 note=72 velocity=127 time=0
EXTRACT: note_on channel=9 note=35 velocity=127 time=0
EXTRACT: note_on channel=9 note=42 velocity=127 time=0
EXTRACT: note_on channel=9 note=42 velocity=0 time=0.12
EXTRACT: note_on channel=9 note=42 velocity=50 time=0.03
EXTRACT: note_on channel=2 note=60 velocity=0 time=0.09
EXTRACT: note_on channel=2 note=48 velocity=0 time=0
EXTRACT: note_on channel=2 note=72 velocity=0 time=0
EXTRACT: note_on channel=9 note=35 velocity=0 time=0
EXTRACT: note_on channel=9 note=42 velocity=0 time=0.03
EXTRACT: note_on channel=2 note=45 velocity=127 time=0.03
EXTRACT: note_on channel=2 note=57 velocity=127 time=0
EXTRACT: note_on channel=2 note=69 velocity=127 time=0
EXTRACT: note_on channel=9 note=42 velocity=127 time=0
EXTRACT: note_on channel=9 note=42 velocity=50 time=0.15
EXTRACT: note_on channel=9 note=42 velocity=0 time=0.09
EXTRACT: note_on channel=9 note=42 velocity=0 time=0.03
EXTRACT: note_on channel=2 note=55 velocity=70 time=0.03
EXTRACT: note_on channel=9 note=38 velocity=127 time=0
EXTRACT: note_on channel=9 note=42 velocity=127 time=0
EXTRACT: note_on channel=2 note=55 velocity=0 time=0.12
EXTRACT: note_on channel=2 note=55 velocity=70 time=0.03
EXTRACT: note_on channel=9 note=42 velocity=50 time=0
EXTRACT: note_on channel=2 note=45 velocity=0 time=0.03
EXTRACT: note_on channel=2 note=57 velocity=0 time=0
EXTRACT: note_on channel=2 note=69 velocity=0 time=0
EXTRACT: note_on channel=9 note=38 velocity=0 time=0.06
EXTRACT: note_on channel=9 note=42 velocity=0 time=0
EXTRACT: note_on channel=2 note=55 velocity=0 time=0.03
EXTRACT: note_on channel=9 note=42 velocity=0 time=0
EXTRACT: note_on channel=2 note=57 velocity=70 time=0.03
EXTRACT: note_on channel=9 note=42 velocity=127 time=0
EXTRACT: note_on channel=9 note=35 velocity=127 time=0.15
EXTRACT: note_on channel=9 note=42 velocity=50 time=0
EXTRACT: note_on channel=2 note=57 velocity=0 time=0.09
EXTRACT: note_on channel=9 note=42 velocity=0 time=0
EXTRACT: note_on channel=9 note=42 velocity=0 time=0.03
EXTRACT: note_on channel=2 note=60 velocity=70 time=0.03
EXTRACT: note_on channel=9 note=42 velocity=127 time=0
EXTRACT: note_on channel=9 note=35 velocity=0 time=0.09
EXTRACT: note_on channel=9 note=35 velocity=127 time=0.06
EXTRACT: note_on channel=9 note=42 velocity=50 time=0
EXTRACT: note_on channel=2 note=60 velocity=0 time=0.09
EXTRACT: note_on channel=9 note=42 velocity=0 time=0
EXTRACT: note_on channel=9 note=42 velocity=0 time=0.03
EXTRACT: note_on channel=2 note=57 velocity=70 time=0.03
EXTRACT: note_on channel=9 note=35 velocity=127 time=0
EXTRACT: note_on channel=9 note=42 velocity=127 time=0
EXTRACT: note_on channel=9 note=35 velocity=0 time=0.09
EXTRACT: note_on channel=9 note=42 velocity=50 time=0.06
EXTRACT: note_on channel=2 note=57 velocity=0 time=0.09
EXTRACT: note_on channel=9 note=35 velocity=0 time=0
EXTRACT: note_on channel=9 note=42 velocity=0 time=0
EXTRACT: note_on channel=9 note=42 velocity=0 time=0.03
EXTRACT: note_on channel=9 note=38 velocity=127 time=0.03
EXTRACT: note_on channel=9 note=42 velocity=127 time=0
EXTRACT: note_on channel=9 note=42 velocity=50 time=0.15
EXTRACT: note_on channel=9 note=38 velocity=0 time=0.09
EXTRACT: note_on channel=9 note=42 velocity=0 time=0
EXTRACT: note_on channel=9 note=42 velocity=0 time=0.03
EXTRACT: note_on channel=9 note=42 velocity=127 time=0.03
EXTRACT: note_on channel=9 note=42 velocity=50 time=0.15
EXTRACT: note_on channel=9 note=42 velocity=0 time=0.09
EXTRACT: note_on channel=9 note=42 velocity=0 time=0.03
EXTRACT: note_on channel=9 note=35 velocity=127 time=0.03
EXTRACT: note_on channel=9 note=42 velocity=127 time=0
EXTRACT: note_on channel=9 note=42 velocity=0 time=0.12
EXTRACT: note_on channel=9 note=42 velocity=50 time=0.03
EXTRACT: note_on channel=9 note=35 velocity=0 time=0.09
EXTRACT: note_on channel=9 note=42 velocity=0 time=0.03
EXTRACT: note_on channel=9 note=42 velocity=127 time=0.03
EXTRACT: note_on channel=9 note=42 velocity=50 time=0.15
EXTRACT: note_on channel=9 note=42 velocity=0 time=0.09
EXTRACT: note_on channel=9 note=42 velocity=0 time=0.03
EXTRACT: note_on channel=9 note=38 velocity=127 time=0.03
EXTRACT: note_on channel=9 note=42 velocity=127 time=0
EXTRACT: note_on channel=9 note=42 velocity=50 time=0.15
EXTRACT: note_on channel=9 note=38 velocity=0 time=0.09
EXTRACT: note_on channel=9 note=42 velocity=0 time=0
EXTRACT: note_on channel=9 note=42 velocity=0 time=0.03
EXTRACT: note_on channel=9 note=42 velocity=127 time=0.03
EXTRACT: note_on channel=9 note=35 velocity=127 time=0.15
EXTRACT: note_on channel=9 note=42 velocity=50 time=0
EXTRACT: note_on channel=9 note=42 velocity=0 time=0.09
EXTRACT: note_on channel=9 note=42 velocity=0 time=0.03
EXTRACT: note_on channel=9 note=42 velocity=127 time=0.03
EXTRACT: note_on channel=9 note=35 velocity=0 time=0.09
EXTRACT: note_on channel=9 note=35 velocity=127 time=0.06
EXTRACT: note_on channel=9 note=42 velocity=50 time=0
EXTRACT: note_on channel=9 note=42 velocity=0 time=0.09
EXTRACT: note_on channel=9 note=42 velocity=0 time=0.03
EXTRACT: note_on channel=3 note=67 velocity=80 time=0.03
EXTRACT: note_on channel=3 note=71 velocity=80 time=0
EXTRACT: note_on channel=9 note=35 velocity=127 time=0
EXTRACT: note_on channel=9 note=42 velocity=127 time=0
EXTRACT: note_on channel=9 note=35 velocity=0 time=0.09
EXTRACT: note_on channel=9 note=42 velocity=50 time=0.06
EXTRACT: note_on channel=3 note=67 velocity=0 time=0.09
EXTRACT: note_on channel=3 note=71 velocity=0 time=0
EXTRACT: note_on channel=9 note=35 velocity=0 time=0
EXTRACT: note_on channel=9 note=42 velocity=0 time=0
EXTRACT: note_on channel=9 note=42 velocity=0 time=0.03
EXTRACT: note_on channel=9 note=38 velocity=127 time=0.03
EXTRACT: note_on channel=9 note=42 velocity=127 time=0
EXTRACT: note_on channel=3 note=66 velocity=80 time=0.15
EXTRACT: note_on channel=3 note=69 velocity=80 time=0
EXTRACT: note_on channel=9 note=42 velocity=50 time=0
EXTRACT: note_on channel=9 note=38 velocity=0 time=0.09
EXTRACT: note_on channel=9 note=42 velocity=0 time=0
EXTRACT: note_on channel=9 note=42 velocity=0 time=0.03
EXTRACT: note_on channel=9 note=42 velocity=127 time=0.03
EXTRACT: note_on channel=3 note=66 velocity=0 time=0.09
EXTRACT: note_on channel=3 note=69 velocity=0 time=0
EXTRACT: note_on channel=9 note=42 velocity=50 time=0.06
EXTRACT: note_on channel=9 note=42 velocity=0 time=0.09
EXTRACT: note_on channel=9 note=42 velocity=0 time=0.03
EXTRACT: note_on channel=2 note=52 velocity=127 time=0.03
EXTRACT: note_on channel=2 note=64 velocity=127 time=0
EXTRACT: note_on channel=2 note=76 velocity=127 time=0
EXTRACT: note_on channel=4 note=33 velocity=70 time=0
EXTRACT: note_on channel=4 note=45 velocity=100 time=0
EXTRACT: note_on channel=9 note=35 velocity=127 time=0
EXTRACT: note_on channel=9 note=42 velocity=127 time=0
EXTRACT: note_on channel=4 note=33 velocity=0 time=0.12
EXTRACT: note_on channel=4 note=45 velocity=0 time=0
EXTRACT: note_on channel=9 note=42 velocity=0 time=0
EXTRACT: note_on channel=4 note=33 velocity=70 time=0.03
EXTRACT: note_on channel=4 note=45 velocity=100 time=0
EXTRACT: note_on channel=9 note=42 velocity=50 time=0
EXTRACT: note_on channel=9 note=35 velocity=0 time=0.09
EXTRACT: note_on channel=9 note=42 velocity=0 time=0.03
EXTRACT: note_on channel=9 note=42 velocity=127 time=0.03
EXTRACT: note_on channel=4 note=33 velocity=0 time=0.09
EXTRACT: note_on channel=4 note=45 velocity=0 time=0
EXTRACT: note_on channel=4 note=33 velocity=70 time=0.06
EXTRACT: note_on channel=4 note=45 velocity=100 time=0
EXTRACT: note_on channel=9 note=42 velocity=50 time=0
EXTRACT: note_on channel=2 note=52 velocity=0 time=0.03
EXTRACT: note_on channel=2 note=64 velocity=0 time=0
EXTRACT: note_on channel=2 note=76 velocity=0 time=0
EXTRACT: note_on channel=9 note=42 velocity=0 time=0.06
EXTRACT: note_on channel=4 note=33 velocity=0 time=0.03
EXTRACT: note_on channel=4 note=45 velocity=0 time=0
EXTRACT: note_on channel=9 note=42 velocity=0 time=0
EXTRACT: note_on channel=2 note=50 velocity=127 time=0.03
EXTRACT: note_on channel=2 note=62 velocity=127 time=0
EXTRACT: note_on channel=2 note=74 velocity=127 time=0
EXTRACT: note_on channel=4 note=33 velocity=70 time=0
EXTRACT: note_on channel=4 note=45 velocity=100 time=0
EXTRACT: note_on channel=9 note=38 velocity=127 time=0
EXTRACT: note_on channel=9 note=42 velocity=127 time=0
EXTRACT: note_on channel=9 note=42 velocity=50 time=0.15
EXTRACT: note_on channel=4 note=33 velocity=0 time=0.09
EXTRACT: note_on channel=4 note=45 velocity=0 time=0
EXTRACT: note_on channel=9 note=38 velocity=0 time=0
EXTRACT: note_on channel=9 note=42 velocity=0 time=0
EXTRACT: note_on channel=9 note=42 velocity=0 time=0.03
EXTRACT: note_on channel=4 note=33 velocity=70 time=0.03
EXTRACT: note_on channel=4 note=45 velocity=100 time=0
EXTRACT: note_on channel=9 note=42 velocity=127 time=0
EXTRACT: note_on channel=4 note=33 velocity=0 time=0.12
EXTRACT: note_on channel=4 note=45 velocity=0 time=0
EXTRACT: note_on channel=4 note=33 velocity=70 time=0.03
EXTRACT: note_on channel=4 note=45 velocity=100 time=0
EXTRACT: note_on channel=9 note=35 velocity=127 time=0
EXTRACT: note_on channel=9 note=42 velocity=50 time=0
EXTRACT: note_on channel=2 note=50 velocity=0 time=0.03
EXTRACT: note_on channel=2 note=62 velocity=0 time=0
EXTRACT: note_on channel=2 note=74 velocity=0 time=0
EXTRACT: note_on channel=9 note=42 velocity=0 time=0.06
EXTRACT: note_on channel=9 note=42 velocity=0 time=0.03
EXTRACT: note_on channel=2 note=60 velocity=127 time=0.03
EXTRACT: note_on channel=2 note=48 velocity=127 time=0
EXTRACT: note_on channel=2 note=72 velocity=127 time=0
EXTRACT: note_on channel=9 note=42 velocity=127 time=0
EXTRACT: note_on channel=4 note=33 velocity=0 time=0.09
EXTRACT: note_on channel=4 note=45 velocity=0 time=0
EXTRACT: note_on channel=9 note=35 velocity=0 time=0
EXTRACT: note_on channel=4 note=33 velocity=70 time=0.06
EXTRACT: note_on channel=4 note=45 velocity=100 time=0
EXTRACT: note_on channel=9 note=35 velocity=127 time=0
EXTRACT: note_on channel=9 note=42 velocity=50 time=0
EXTRACT: note_on channel=9 note=42 velocity=0 time=0.09
EXTRACT: note_on channel=4 note=33 velocity=0 time=0.03
EXTRACT: note_on channel=4 note=45 velocity=0 time=0
EXTRACT: note_on channel=9 note=42 velocity=0 time=0
EXTRACT: note_on channel=4 note=33 velocity=70 time=0.03
EXTRACT: note_on channel=4 note=45 velocity=100 time=0
EXTRACT: note_on channel=9 note=35 velocity=127 time=0
EXTRACT: note_on channel=9 note=42 velocity=127 time=0
EXTRACT: note_on channel=9 note=35 velocity=0 time=0.09
EXTRACT: note_on channel=9 note=42 velocity=50 time=0.06
EXTRACT: note_on channel=2 note=60 velocity=0 time=0.03
EXTRACT: note_on channel=2 note=48 velocity=0 time=0
EXTRACT: note_on channel=2 note=72 velocity=0 time=0
EXTRACT: note_on channel=4 note=33 velocity=0 time=0.06
EXTRACT: note_on channel=4 note=45 velocity=0 time=0
EXTRACT: note_on channel=9 note=35 velocity=0 time=0
EXTRACT: note_on channel=9 note=42 velocity=0 time=0
EXTRACT: note_on channel=9 note=42 velocity=0 time=0.03
EXTRACT: note_on channel=2 note=45 velocity=127 time=0.03
EXTRACT: note_on channel=2 note=57 velocity=127 time=0
EXTRACT: note_on channel=2 note=69 velocity=127 time=0
EXTRACT: note_on channel=4 note=30 velocity=70 time=0
EXTRACT: note_on channel=4 note=42 velocity=100 time=0
EXTRACT: note_on channel=9 note=38 velocity=127 time=0
EXTRACT: note_on channel=9 note=42 velocity=127 time=0
EXTRACT: note_on channel=9 note=42 velocity=50 time=0.15
EXTRACT: note_on channel=2 note=45 velocity=0 time=0.09
EXTRACT: note_on channel=2 note=57 velocity=0 time=0
EXTRACT: note_on channel=2 note=69 velocity=0 time=0
EXTRACT: note_on channel=4 note=30 velocity=0 time=0
EXTRACT: note_on channel=4 note=42 velocity=0 time=0
EXTRACT: note_on channel=9 note=38 velocity=0 time=0
EXTRACT: note_on channel=9 note=42 velocity=0 time=0
EXTRACT: note_on channel=9 note=42 velocity=0 time=0.03
EXTRACT: note_on channel=2 note=43 velocity=127 time=0.03
EXTRACT: note_on channel=2 note=55 velocity=127 time=0
EXTRACT: note_on channel=2 note=67 velocity=127 time=0
EXTRACT: note_on channel=4 note=28 velocity=70 time=0
EXTRACT: note_on channel=4 note=40 velocity=100 time=0
EXTRACT: note_on channel=9 note=42 velocity=127 time=0
EXTRACT: note_on channel=9 note=42 velocity=50 time=0.15
EXTRACT: note_on channel=4 note=28 velocity=0 time=0.09
EXTRACT: note_on channel=4 note=40 velocity=0 time=0
EXTRACT: note_on channel=9 note=42 velocity=0 time=0
EXTRACT: note_on channel=9 note=42 velocity=0 time=0.03
EXTRACT: note_on channel=4 note=33 velocity=70 time=0.03
EXTRACT: note_on channel=4 note=45 velocity=100 time=0
EXTRACT: note_on channel=9 note=35 velocity=127 time=0
EXTRACT: note_on channel=9 note=42 velocity=127 time=0
EXTRACT: note_on channel=4 note=33 velocity=0 time=0.12
EXTRACT: note_on channel=4 note=45 velocity=0 time=0
EXTRACT: note_on channel=9 note=42 velocity=0 time=0
EXTRACT: note_on channel=4 note=33 velocity=70 time=0.03
EXTRACT: note_on channel=4 note=45 velocity=100 time=0
EXTRACT: note_on channel=9 note=42 velocity=50 time=0
EXTRACT: note_on channel=2 note=43 velocity=0 time=0.03
EXTRACT: note_on channel=2 note=55 velocity=0 time=0
EXTRACT: note_on channel=2 note=67 velocity=0 time=0
EXTRACT: note_on channel=9 note=35 velocity=0 time=0.06
EXTRACT: note_on channel=9 note=42 velocity=0 time=0.03
EXTRACT: note_on channel=2 note=45 velocity=127 time=0.03
EXTRACT: note_on channel=2 note=57 velocity=127 time=0
EXTRACT: note_on channel=2 note=69 velocity=127 time=0
EXTRACT: note_on channel=9 note=42 velocity=127 time=0
EXTRACT: note_on channel=4 note=33 velocity=0 time=0.09
EXTRACT: note_on channel=4 note=45 velocity=0 time=0
EXTRACT: note_on channel=4 note=33 velocity=70 time=0.06
EXTRACT: note_on channel=4 note=45 velocity=100 time=0
EXTRACT: note_on channel=9 note=42 velocity=50 time=0
EXTRACT: note_on channel=9 note=42 velocity=0 time=0.09
EXTRACT: note_on channel=4 note=33 velocity=0 time=0.03
EXTRACT: note_on channel=4 note=45 velocity=0 time=0
EXTRACT: note_on channel=9 note=42 velocity=0 time=0
EXTRACT: note_on channel=2 note=55 velocity=70 time=0.03
EXTRACT: note_on channel=4 note=33 velocity=70 time=0
EXTRACT: note_on channel=4 note=45 velocity=100 time=0
EXTRACT: note_on channel=9 note=38 velocity=127 time=0
EXTRACT: note_on channel=9 note=42 velocity=127 time=0
EXTRACT: note_on channel=9 note=42 velocity=50 time=0.15
EXTRACT: note_on channel=2 note=45 velocity=0 time=0.03
EXTRACT: note_on channel=2 note=57 velocity=0 time=0
EXTRACT: note_on channel=2 note=69 velocity=0 time=0
EXTRACT: note_on channel=2 note=55 velocity=0 time=0.06
EXTRACT: note_on channel=4 note=33 velocity=0 time=0
EXTRACT: note_on channel=4 note=45 velocity=0 time=0
EXTRACT: note_on channel=9 note=38 velocity=0 time=0
EXTRACT: note_on channel=9 note=42 velocity=0 time=0
EXTRACT: note_on channel=9 note=42 velocity=0 time=0.03
EXTRACT: note_on channel=2 note=57 velocity=70 time=0.03
EXTRACT: note_on channel=4 note=33 velocity=70 time=0
EXTRACT: note_on channel=4 note=45 velocity=100 time=0
EXTRACT: note_on channel=9 note=42 velocity=127 time=0
EXTRACT: note_on channel=2 note=57 velocity=0 time=0.12
EXTRACT: note_on channel=4 note=33 velocity=0 time=0
EXTRACT: note_on channel=4 note=45 velocity=0 time=0
EXTRACT: note_on channel=2 note=55 velocity=70 time=0.03
EXTRACT: note_on channel=4 note=33 velocity=70 time=0
EXTRACT: note_on channel=4 note=45 velocity=100 time=0
EXTRACT: note_on channel=9 note=35 velocity=127 time=0
EXTRACT: note_on channel=9 note=42 velocity=50 time=0
EXTRACT: note_on channel=9 note=42 velocity=0 time=0.09
EXTRACT: note_on channel=2 note=55 velocity=0 time=0.03
EXTRACT: note_on channel=9 note=42 velocity=0 time=0
EXTRACT: note_on channel=2 note=60 velocity=70 time=0.03
EXTRACT: note_on channel=9 note=42 velocity=127 time=0
EXTRACT: note_on channel=4 note=33 velocity=0 time=0.09
EXTRACT: note_on channel=4 note=45 velocity=0 time=0
EXTRACT: note_on channel=9 note=35 velocity=0 time=0
EXTRACT: note_on channel=4 note=33 velocity=70 time=0.06
EXTRACT: note_on channel=4 note=45 velocity=100 time=0
EXTRACT: note_on channel=9 note=35 velocity=127 time=0
EXTRACT: note_on channel=9 note=42 velocity=50 time=0
EXTRACT: note_on channel=2 note=60 velocity=0 time=0.09
EXTRACT: note_on channel=9 note=42 velocity=0 time=0
EXTRACT: note_on channel=4 note=33 velocity=0 time=0.03
EXTRACT: note_on channel=4 note=45 velocity=0 time=0
EXTRACT: note_on channel=9 note=42 velocity=0 time=0
EXTRACT: note_on channel=2 note=57 velocity=70 time=0.03
EXTRACT: note_on channel=4 note=33 velocity=70 time=0
EXTRACT: note_on channel=4 note=45 velocity=100 time=0
EXTRACT: note_on channel=9 note=35 velocity=127 time=0
EXTRACT: note_on channel=9 note=42 velocity=127 time=0
EXTRACT: note_on channel=9 note=35 velocity=0 time=0.09
EXTRACT: note_on channel=9 note=42 velocity=50 time=0.06
EXTRACT: note_on channel=2 note=57 velocity=0 time=0.09
EXTRACT: note_on channel=4 note=33 velocity=0 time=0
EXTRACT: note_on channel=4 note=45 velocity=0 time=0
EXTRACT: note_on channel=9 note=35 velocity=0 time=0
EXTRACT: note_on channel=9 note=42 velocity=0 time=0
EXTRACT: note_on channel=9 note=42 velocity=0 time=0.03
EXTRACT: note_on channel=2 note=43 velocity=127 time=0.03
EXTRACT: note_on channel=2 note=55 velocity=127 time=0
EXTRACT: note_on channel=2 note=67 velocity=127 time=0
EXTRACT: note_on channel=4 note=30 velocity=70 time=0
EXTRACT: note_on channel=4 note=42 velocity=100 time=0
EXTRACT: note_on channel=9 note=38 velocity=127 time=0
EXTRACT: note_on channel=9 note=42 velocity=127 time=0
EXTRACT: note_on channel=9 note=42 velocity=50 time=0.15
EXTRACT: note_on channel=2 note=43 velocity=0 time=0.09
EXTRACT: note_on channel=2 note=55 velocity=0 time=0
EXTRACT: note_on channel=2 note=67 velocity=0 time=0
EXTRACT: note_on channel=4 note=30 velocity=0 time=0
EXTRACT: note_on channel=4 note=42 velocity=0 time=0
EXTRACT: note_on channel=9 note=38 velocity=0 time=0
EXTRACT: note_on channel=9 note=42 velocity=0 time=0
EXTRACT: note_on channel=9 note=42 velocity=0 time=0.03
EXTRACT: note_on channel=2 note=45 velocity=127 time=0.03
EXTRACT: note_on channel=2 note=57 velocity=127 time=0
EXTRACT: note_on channel=2 note=69 velocity=127 time=0
EXTRACT: note_on channel=4 note=28 velocity=70 time=0
EXTRACT: note_on channel=4 note=40 velocity=100 time=0
EXTRACT: note_on channel=9 note=42 velocity=127 time=0
EXTRACT: note_on channel=9 note=42 velocity=50 time=0.15
EXTRACT: note_on channel=2 note=45 velocity=0 time=0.09
EXTRACT: note_on channel=2 note=57 velocity=0 time=0
EXTRACT: note_on channel=2 note=69 velocity=0 time=0
EXTRACT: note_on channel=4 note=28 velocity=0 time=0
EXTRACT: note_on channel=4 note=40 velocity=0 time=0
EXTRACT: note_on channel=9 note=42 velocity=0 time=0
EXTRACT: note_on channel=9 note=42 velocity=0 time=0.03
EXTRACT: note_on channel=2 note=48 velocity=127 time=0.03
EXTRACT: note_on channel=2 note=60 velocity=127 time=0
EXTRACT: note_on channel=2 note=72 velocity=127 time=0
EXTRACT: note_on channel=4 note=33 velocity=70 time=0
EXTRACT: note_on channel=4 note=45 velocity=100 time=0
EXTRACT: note_on channel=9 note=35 velocity=127 time=0
EXTRACT: note_on channel=9 note=42 velocity=127 time=0
EXTRACT: note_on channel=4 note=33 velocity=0 time=0.12
EXTRACT: note_on channel=4 note=45 velocity=0 time=0
EXTRACT: note_on channel=9 note=42 velocity=0 time=0
EXTRACT: note_on channel=4 note=33 velocity=70 time=0.03
EXTRACT: note_on channel=4 note=45 velocity=100 time=0
EXTRACT: note_on channel=9 note=42 velocity=50 time=0
EXTRACT: note_on channel=2 note=48 velocity=0 time=0.09
EXTRACT: note_on channel=2 note=60 velocity=0 time=0
EXTRACT: note_on channel=2 note=72 velocity=0 time=0
EXTRACT: note_on channel=9 note=35 velocity=0 time=0
EXTRACT: note_on channel=9 note=42 velocity=0 time=0.03
EXTRACT: note_on channel=2 note=45 velocity=127 time=0.03
EXTRACT: note_on channel=2 note=57 velocity=127 time=0
EXTRACT: note_on channel=2 note=69 velocity=127 time=0
EXTRACT: note_on channel=9 note=42 velocity=127 time=0
EXTRACT: note_on channel=4 note=33 velocity=0 time=0.09
EXTRACT: note_on channel=4 note=45 velocity=0 time=0
EXTRACT: note_on channel=4 note=33 velocity=70 time=0.06
EXTRACT: note_on channel=4 note=45 velocity=100 time=0
EXTRACT: note_on channel=9 note=42 velocity=50 time=0
EXTRACT: note_on channel=9 note=42 velocity=0 time=0.09
EXTRACT: note_on channel=4 note=33 velocity=0 time=0.03
EXTRACT: note_on channel=4 note=45 velocity=0 time=0
EXTRACT: note_on channel=9 note=42 velocity=0 time=0
EXTRACT: note_on channel=2 note=67 velocity=127 time=0.03
EXTRACT: note_on channel=4 note=33 velocity=70 time=0
EXTRACT: note_on channel=4 note=45 velocity=100 time=0
EXTRACT: note_on channel=9 note=38 velocity=127 time=0
EXTRACT: note_on channel=9 note=42 velocity=127 time=0
EXTRACT: note_on channel=9 note=42 velocity=50 time=0.15
EXTRACT: note_on channel=2 note=45 velocity=0 time=0.03
EXTRACT: note_on channel=2 note=57 velocity=0 time=0
EXTRACT: note_on channel=2 note=69 velocity=0 time=0
EXTRACT: note_on channel=2 note=67 velocity=0 time=0.06
EXTRACT: note_on channel=4 note=33 velocity=0 time=0
EXTRACT: note_on channel=4 note=45 velocity=0 time=0
EXTRACT: note_on channel=9 note=38 velocity=0 time=0
EXTRACT: note_on channel=9 note=42 velocity=0 time=0
EXTRACT: note_on channel=9 note=42 velocity=0 time=0.03
EXTRACT: note_on channel=2 note=69 velocity=127 time=0.03
EXTRACT: note_on channel=4 note=33 velocity=70 time=0
EXTRACT: note_on channel=4 note=45 velocity=100 time=0
EXTRACT: note_on channel=9 note=42 velocity=127 time=0
EXTRACT: note_on channel=4 note=33 velocity=0 time=0.12
EXTRACT: note_on channel=4 note=45 velocity=0 time=0
EXTRACT: note_on channel=4 note=33 velocity=70 time=0.03
EXTRACT: note_on channel=4 note=45 velocity=100 time=0
EXTRACT: note_on channel=9 note=35 velocity=127 time=0
EXTRACT: note_on channel=9 note=42 velocity=50 time=0
EXTRACT: note_on channel=2 note=69 velocity=0 time=0.09
EXTRACT: note_on channel=9 note=42 velocity=0 time=0
EXTRACT: note_on channel=9 note=42 velocity=0 time=0.03
EXTRACT: note_on channel=2 note=72 velocity=127 time=0.03
EXTRACT: note_on channel=9 note=42 velocity=127 time=0
EXTRACT: note_on channel=4 note=33 velocity=0 time=0.09
EXTRACT: note_on channel=4 note=45 velocity=0 time=0
EXTRACT: note_on channel=9 note=35 velocity=0 time=0
EXTRACT: note_on channel=4 note=33 velocity=70 time=0.06
EXTRACT: note_on channel=4 note=45 velocity=100 time=0
EXTRACT: note_on channel=9 note=35 velocity=127 time=0
EXTRACT: note_on channel=9 note=42 velocity=50 time=0
EXTRACT: note_on channel=9 note=42 velocity=0 time=0.09
EXTRACT: note_on channel=4 note=33 velocity=0 time=0.03
EXTRACT: note_on channel=4 note=45 velocity=0 time=0
EXTRACT: note_on channel=9 note=42 velocity=0 time=0
EXTRACT: note_on channel=4 note=33 velocity=70 time=0.03
EXTRACT: note_on channel=4 note=45 velocity=100 time=0
EXTRACT: note_on channel=9 note=35 velocity=127 time=0
EXTRACT: note_on channel=9 note=42 velocity=127 time=0
EXTRACT: note_on channel=9 note=35 velocity=0 time=0.09
EXTRACT: note_on channel=9 note=42 velocity=50 time=0.06
EXTRACT: note_on channel=2 note=72 velocity=0 time=0.03
EXTRACT: note_on channel=4 note=33 velocity=0 time=0.06
EXTRACT: note_on channel=4 note=45 velocity=0 time=0
EXTRACT: note_on channel=9 note=35 velocity=0 time=0
EXTRACT: note_on channel=9 note=42 velocity=0 time=0
EXTRACT: note_on channel=9 note=42 velocity=0 time=0.03
EXTRACT: note_on channel=2 note=69 velocity=127 time=0.03
EXTRACT: note_on channel=4 note=30 velocity=70 time=0
EXTRACT: note_on channel=4 note=42 velocity=100 time=0
EXTRACT: note_on channel=9 note=38 velocity=127 time=0
EXTRACT: note_on channel=9 note=42 velocity=127 time=0
EXTRACT: note_on channel=9 note=42 velocity=50 time=0.15
EXTRACT: note_on channel=4 note=30 velocity=0 time=0.09
EXTRACT: note_on channel=4 note=42 velocity=0 time=0
EXTRACT: note_on channel=9 note=38 velocity=0 time=0
EXTRACT: note_on channel=9 note=42 velocity=0 time=0
EXTRACT: note_on channel=9 note=42 velocity=0 time=0.03
EXTRACT: note_on channel=4 note=28 velocity=70 time=0.03
EXTRACT: note_on channel=4 note=40 velocity=100 time=0
EXTRACT: note_on channel=9 note=42 velocity=127 time=0
EXTRACT: note_on channel=9 note=42 velocity=50 time=0.15
EXTRACT: note_on channel=2 note=69 velocity=0 time=0.03
EXTRACT: note_on channel=4 note=28 velocity=0 time=0.06
EXTRACT: note_on channel=4 note=40 velocity=0 time=0
EXTRACT: note_on channel=9 note=42 velocity=0 time=0
EXTRACT: note_on channel=9 note=42 velocity=0 time=0.03
EXTRACT: note_on channel=2 note=67 velocity=127 time=0.03
EXTRACT: note_on channel=4 note=33 velocity=70 time=0
EXTRACT: note_on channel=4 note=45 velocity=100 time=0
EXTRACT: note_on channel=9 note=35 velocity=127 time=0
EXTRACT: note_on channel=4 note=33 velocity=0 time=0.24
EXTRACT: note_on channel=4 note=45 velocity=0 time=0
EXTRACT: note_on channel=2 note=67 velocity=0 time=0.24
EXTRACT: note_on channel=2 note=69 velocity=127 time=0.12
EXTRACT: note_on channel=2 note=69 velocity=0 time=0.48
EXTRACT: note_on channel=9 note=69 velocity=127 time=0.42
EXTRACT: note_on channel=9 note=69 velocity=127 time=0.15
EXTRACT: note_on channel=9 note=69 velocity=70 time=0.15
EXTRACT: note_on channel=9 note=35 velocity=0 time=0.12
EXTRACT: note_on channel=9 note=69 velocity=0 time=0
EXTRACT: note_on channel=5 note=62 velocity=100 time=0.03
EXTRACT: note_on channel=9 note=69 velocity=70 time=0
EXTRACT: note_on channel=5 note=62 velocity=0 time=0.12
EXTRACT: note_on channel=9 note=69 velocity=0 time=0
EXTRACT: note_on channel=5 note=64 velocity=100 time=0.03
EXTRACT: note_on channel=9 note=69 velocity=70 time=0
EXTRACT: note_on channel=9 note=69 velocity=0 time=0.06
EXTRACT: note_on channel=5 note=64 velocity=0 time=0.06
EXTRACT: note_on channel=9 note=69 velocity=0 time=0
EXTRACT: note_on channel=9 note=69 velocity=0 time=0
EXTRACT: note_on channel=5 note=67 velocity=100 time=0.03
EXTRACT: note_on channel=9 note=69 velocity=127 time=0
EXTRACT: note_on channel=5 note=67 velocity=0 time=0.12
EXTRACT: note_on channel=9 note=69 velocity=0 time=0
EXTRACT: note_on channel=0 note=59 velocity=60 time=0.03
EXTRACT: note_on channel=0 note=62 velocity=60 time=0
EXTRACT: note_on channel=0 note=64 velocity=60 time=0
EXTRACT: note_on channel=0 note=69 velocity=60 time=0
EXTRACT: note_on channel=2 note=69 velocity=127 time=0
EXTRACT: note_on channel=4 note=31 velocity=100 time=0
EXTRACT: note_on channel=4 note=43 velocity=100 time=0
EXTRACT: note_on channel=5 note=81 velocity=100 time=0
EXTRACT: note_on channel=5 note=69 velocity=100 time=0
EXTRACT: note_on channel=9 note=35 velocity=127 time=0
EXTRACT: note_on channel=9 note=42 velocity=127 time=0
EXTRACT: note_on channel=4 note=31 velocity=0 time=0.12
EXTRACT: note_on channel=4 note=43 velocity=0 time=0
EXTRACT: note_on channel=9 note=42 velocity=0 time=0
EXTRACT: note_on channel=4 note=31 velocity=100 time=0.03
EXTRACT: note_on channel=4 note=43 velocity=100 time=0
EXTRACT: note_on channel=9 note=42 velocity=50 time=0
EXTRACT: note_on channel=9 note=35 velocity=0 time=0.09
EXTRACT: note_on channel=4 note=31 velocity=0 time=0.03
EXTRACT: note_on channel=4 note=43 velocity=0 time=0
EXTRACT: note_on channel=9 note=42 velocity=0 time=0
EXTRACT: note_on channel=9 note=42 velocity=127 time=0.03
EXTRACT: note_on channel=9 note=42 velocity=50 time=0.15
EXTRACT: note_on channel=0 note=59 velocity=0 time=0.03
EXTRACT: note_on channel=0 note=62 velocity=0 time=0
EXTRACT: note_on channel=0 note=64 velocity=0 time=0
EXTRACT: note_on channel=0 note=69 velocity=0 time=0
EXTRACT: note_on channel=9 note=42 velocity=0 time=0.06
EXTRACT: note_on channel=9 note=42 velocity=0 time=0.03
EXTRACT: note_on channel=9 note=54 velocity=70 time=0.03
EXTRACT: note_on channel=9 note=38 velocity=127 time=0
EXTRACT: note_on channel=9 note=42 velocity=127 time=0
EXTRACT: note_on channel=0 note=73 velocity=40 time=0.15
EXTRACT: note_on channel=0 note=76 velocity=40 time=0
EXTRACT: note_on channel=9 note=42 velocity=50 time=0
EXTRACT: note_on channel=9 note=54 velocity=0 time=0.09
EXTRACT: note_on channel=9 note=38 velocity=0 time=0
EXTRACT: note_on channel=9 note=42 velocity=0 time=0
EXTRACT: note_on channel=0 note=73 velocity=0 time=0.03
EXTRACT: note_on channel=0 note=76 velocity=0 time=0
EXTRACT: note_on channel=9 note=42 velocity=0 time=0
EXTRACT: note_on channel=9 note=42 velocity=127 time=0.03
EXTRACT: note_on channel=0 note=71 velocity=40 time=0.15
EXTRACT: note_on channel=0 note=74 velocity=40 time=0
EXTRACT: note_on channel=9 note=35 velocity=127 time=0
EXTRACT: note_on channel=9 note=42 velocity=50 time=0
EXTRACT: note_on channel=9 note=42 velocity=0 time=0.09
EXTRACT: note_on channel=0 note=71 velocity=0 time=0.03
EXTRACT: note_on channel=0 note=74 velocity=0 time=0
EXTRACT: note_on channel=9 note=42 velocity=0 time=0
EXTRACT: note_on channel=9 note=42 velocity=127 time=0.03
EXTRACT: note_on channel=9 note=35 velocity=0 time=0.09
EXTRACT: note_on channel=9 note=35 velocity=127 time=0.06
EXTRACT: note_on channel=9 note=42 velocity=50 time=0
EXTRACT: note_on channel=9 note=42 velocity=0 time=0.09
EXTRACT: note_on channel=9 note=42 velocity=0 time=0.03
EXTRACT: note_on channel=4 note=31 velocity=100 time=0.03
EXTRACT: note_on channel=4 note=43 velocity=100 time=0
EXTRACT: note_on channel=9 note=35 velocity=127 time=0
EXTRACT: note_on channel=9 note=42 velocity=127 time=0
EXTRACT: note_on channel=9 note=35 velocity=0 time=0.09
EXTRACT: note_on channel=9 note=42 velocity=50 time=0.06
EXTRACT: note_on channel=4 note=31 velocity=0 time=0.09
EXTRACT: note_on channel=4 note=43 velocity=0 time=0
EXTRACT: note_on channel=9 note=35 velocity=0 time=0
EXTRACT: note_on channel=9 note=42 velocity=0 time=0
EXTRACT: note_on channel=9 note=42 velocity=0 time=0.03
EXTRACT: note_on channel=9 note=54 velocity=70 time=0.03
EXTRACT: note_on channel=9 note=38 velocity=127 time=0
EXTRACT: note_on channel=9 note=42 velocity=127 time=0
EXTRACT: note_on channel=2 note=69 velocity=0 time=0.12
EXTRACT: note_on channel=5 note=81 velocity=0 time=0
EXTRACT: note_on channel=5 note=69 velocity=0 time=0
EXTRACT: note_on channel=4 note=32 velocity=100 time=0.03
EXTRACT: note_on channel=4 note=44 velocity=100 time=0
EXTRACT: note_on channel=9 note=42 velocity=50 time=0
EXTRACT: note_on channel=9 note=54 velocity=0 time=0.09
EXTRACT: note_on channel=9 note=38 velocity=0 time=0
EXTRACT: note_on channel=9 note=42 velocity=0 time=0
EXTRACT: note_on channel=9 note=42 velocity=0 time=0.03
EXTRACT: note_on channel=2 note=72 velocity=127 time=0.03
EXTRACT: note_on channel=9 note=42 velocity=127 time=0
EXTRACT: note_on channel=4 note=32 velocity=0 time=0.09
EXTRACT: note_on channel=4 note=44 velocity=0 time=0
EXTRACT: note_on channel=9 note=42 velocity=50 time=0.06
EXTRACT: note_on channel=9 note=42 velocity=0 time=0.09
EXTRACT: note_on channel=9 note=42 velocity=0 time=0.03
EXTRACT: note_on channel=0 note=61 velocity=60 time=0.03
EXTRACT: note_on channel=0 note=64 velocity=60 time=0
EXTRACT: note_on channel=0 note=69 velocity=60 time=0
EXTRACT: note_on channel=4 note=33 velocity=100 time=0
EXTRACT: note_on channel=4 note=45 velocity=100 time=0
EXTRACT: note_on channel=5 note=76 velocity=100 time=0
EXTRACT: note_on channel=5 note=64 velocity=100 time=0
EXTRACT: note_on channel=9 note=35 velocity=127 time=0
EXTRACT: note_on channel=9 note=42 velocity=127 time=0
EXTRACT: note_on channel=4 note=33 velocity=0 time=0.12
EXTRACT: note_on channel=4 note=45 velocity=0 time=0
EXTRACT: note_on channel=9 note=42 velocity=0 time=0
EXTRACT: note_on channel=4 note=33 velocity=100 time=0.03
EXTRACT: note_on channel=4 note=45 velocity=100 time=0
EXTRACT: note_on channel=9 note=42 velocity=50 time=0
EXTRACT: note_on channel=2 note=72 velocity=0 time=0.03
EXTRACT: note_on channel=9 note=35 velocity=0 time=0.06
EXTRACT: note_on channel=4 note=33 velocity=0 time=0.03
EXTRACT: note_on channel=4 note=45 velocity=0 time=0
EXTRACT: note_on channel=9 note=42 velocity=0 time=0
EXTRACT: note_on channel=2 note=71 velocity=127 time=0.03
EXTRACT: note_on channel=9 note=42 velocity=127 time=0
EXTRACT: note_on channel=9 note=42 velocity=50 time=0.15
EXTRACT: note_on channel=2 note=71 velocity=0 time=0.09
EXTRACT: note_on channel=9 note=42 velocity=0 time=0
EXTRACT: note_on channel=9 note=42 velocity=0 time=0.03
EXTRACT: note_on channel=2 note=69 velocity=127 time=0.03
EXTRACT: note_on channel=9 note=54 velocity=70 time=0
EXTRACT: note_on channel=9 note=38 velocity=127 time=0
EXTRACT: note_on channel=9 note=42 velocity=127 time=0
EXTRACT: note_on channel=9 note=42 velocity=50 time=0.15
EXTRACT: note_on channel=2 note=69 velocity=0 time=0.09
EXTRACT: note_on channel=9 note=54 velocity=0 time=0
EXTRACT: note_on channel=9 note=38 velocity=0 time=0
EXTRACT: note_on channel=9 note=42 velocity=0 time=0
EXTRACT: note_on channel=9 note=42 velocity=0 time=0.03
EXTRACT: note_on channel=2 note=69 velocity=127 time=0.03
EXTRACT: note_on channel=9 note=42 velocity=127 time=0
EXTRACT: note_on channel=9 note=35 velocity=127 time=0.15
EXTRACT: note_on channel=9 note=42 velocity=50 time=0
EXTRACT: note_on channel=9 note=42 velocity=0 time=0.09
EXTRACT: note_on channel=9 note=42 velocity=0 time=0.03
EXTRACT: note_on channel=4 note=35 velocity=100 time=0.03
EXTRACT: note_on channel=4 note=47 velocity=100 time=0
EXTRACT: note_on channel=9 note=42 velocity=127 time=0
EXTRACT: note_on channel=9 note=35 velocity=0 time=0.09
EXTRACT: note_on channel=9 note=35 velocity=127 time=0.06
EXTRACT: note_on channel=9 note=42 velocity=50 time=0
EXTRACT: note_on channel=2 note=69 velocity=0 time=0.03
EXTRACT: note_on channel=4 note=35 velocity=0 time=0.06
EXTRACT: note_on channel=4 note=47 velocity=0 time=0
EXTRACT: note_on channel=9 note=42 velocity=0 time=0
EXTRACT: note_on channel=9 note=42 velocity=0 time=0.03
EXTRACT: note_on channel=2 note=66 velocity=127 time=0.03
EXTRACT: note_on channel=4 note=35 velocity=100 time=0
EXTRACT: note_on channel=4 note=47 velocity=100 time=0
EXTRACT: note_on channel=9 note=35 velocity=127 time=0
EXTRACT: note_on channel=9 note=42 velocity=127 time=0
EXTRACT: note_on channel=9 note=35 velocity=0 time=0.09
EXTRACT: note_on channel=4 note=35 velocity=0 time=0.03
EXTRACT: note_on channel=4 note=47 velocity=0 time=0
EXTRACT: note_on channel=4 note=33 velocity=100 time=0.03
EXTRACT: note_on channel=4 note=45 velocity=100 time=0
EXTRACT: note_on channel=9 note=42 velocity=50 time=0
EXTRACT: note_on channel=2 note=66 velocity=0 time=0.09
EXTRACT: note_on channel=9 note=35 velocity=0 time=0
EXTRACT: note_on channel=9 note=42 velocity=0 time=0
EXTRACT: note_on channel=9 note=42 velocity=0 time=0.03
EXTRACT: note_on channel=2 note=69 velocity=127 time=0.03
EXTRACT: note_on channel=9 note=54 velocity=70 time=0
EXTRACT: note_on channel=9 note=38 velocity=127 time=0
EXTRACT: note_on channel=9 note=42 velocity=127 time=0
EXTRACT: note_on channel=4 note=33 velocity=0 time=0.09
EXTRACT: note_on channel=4 note=45 velocity=0 time=0
EXTRACT: note_on channel=0 note=61 velocity=0 time=0.03
EXTRACT: note_on channel=0 note=64 velocity=0 time=0
EXTRACT: note_on channel=0 note=69 velocity=0 time=0
EXTRACT: note_on channel=5 note=76 velocity=0 time=0
EXTRACT: note_on channel=5 note=64 velocity=0 time=0
EXTRACT: note_on channel=9 note=42 velocity=50 time=0.03
EXTRACT: note_on channel=2 note=69 velocity=0 time=0.09
EXTRACT: note_on channel=9 note=54 velocity=0 time=0
EXTRACT: note_on channel=9 note=38 velocity=0 time=0
EXTRACT: note_on channel=9 note=42 velocity=0 time=0
EXTRACT: note_on channel=9 note=42 velocity=0 time=0.03
EXTRACT: note_on channel=2 note=66 velocity=127 time=0.03
EXTRACT: note_on channel=4 note=30 velocity=100 time=0
EXTRACT: note_on channel=4 note=42 velocity=100 time=0
EXTRACT: note_on channel=9 note=42 velocity=127 time=0
EXTRACT: note_on channel=9 note=42 velocity=50 time=0.15
EXTRACT: note_on channel=2 note=66 velocity=0 time=0.09
EXTRACT: note_on channel=4 note=30 velocity=0 time=0
EXTRACT: note_on channel=4 note=42 velocity=0 time=0
EXTRACT: note_on channel=9 note=42 velocity=0 time=0
EXTRACT: note_on channel=9 note=42 velocity=0 time=0.03
EXTRACT: note_on channel=0 note=59 velocity=60 time=0.03
EXTRACT: note_on channel=0 note=64 velocity=60 time=0
EXTRACT: note_on channel=0 note=62 velocity=60 time=0
EXTRACT: note_on channel=0 note=69 velocity=60 time=0
EXTRACT: note_on channel=2 note=69 velocity=127 time=0
EXTRACT: note_on channel=4 note=31 velocity=100 time=0
EXTRACT: note_on channel=4 note=43 velocity=100 time=0
EXTRACT: note_on channel=5 note=81 velocity=100 time=0
EXTRACT: note_on channel=5 note=69 velocity=100 time=0
EXTRACT: note_on channel=9 note=35 velocity=127 time=0
EXTRACT: note_on channel=9 note=42 velocity=127 time=0
EXTRACT: note_on channel=4 note=31 velocity=0 time=0.12
EXTRACT: note_on channel=4 note=43 velocity=0 time=0
EXTRACT: note_on channel=9 note=42 velocity=0 time=0
EXTRACT: note_on channel=4 note=31 velocity=100 time=0.03
EXTRACT: note_on channel=4 note=43 velocity=100 time=0
EXTRACT: note_on channel=9 note=42 velocity=50 time=0
EXTRACT: note_on channel=9 note=35 velocity=0 time=0.09
EXTRACT: note_on channel=4 note=31 velocity=0 time=0.03
EXTRACT: note_on channel=4 note=43 velocity=0 time=0
EXTRACT: note_on channel=9 note=42 velocity=0 time=0
EXTRACT: note_on channel=9 note=42 velocity=127 time=0.03
EXTRACT: note_on channel=9 note=42 velocity=50 time=0.15
EXTRACT: note_on channel=9 note=42 velocity=0 time=0.09
EXTRACT: note_on channel=9 note=42 velocity=0 time=0.03
EXTRACT: note_on channel=9 note=38 velocity=127 time=0.03
EXTRACT: note_on channel=9 note=42 velocity=127 time=0
EXTRACT: note_on channel=0 note=73 velocity=40 time=0.15
EXTRACT: note_on channel=0 note=76 velocity=40 time=0
EXTRACT: note_on channel=9 note=42 velocity=50 time=0
EXTRACT: note_on channel=9 note=38 velocity=0 time=0.09
EXTRACT: note_on channel=9 note=42 velocity=0 time=0
EXTRACT: note_on channel=0 note=73 velocity=0 time=0.03
EXTRACT: note_on channel=0 note=76 velocity=0 time=0
EXTRACT: note_on channel=9 note=42 velocity=0 time=0
EXTRACT: note_on channel=9 note=42 velocity=127 time=0.03
EXTRACT: note_on channel=2 note=69 velocity=0 time=0.06
EXTRACT: note_on channel=0 note=71 velocity=40 time=0.09
EXTRACT: note_on channel=0 note=74 velocity=40 time=0
EXTRACT: note_on channel=9 note=35 velocity=127 time=0
EXTRACT: note_on channel=9 note=42 velocity=50 time=0
EXTRACT: note_on channel=9 note=42 velocity=0 time=0.09
EXTRACT: note_on channel=0 note=71 velocity=0 time=0.03
EXTRACT: note_on channel=0 note=74 velocity=0 time=0
EXTRACT: note_on channel=9 note=42 velocity=0 time=0
EXTRACT: note_on channel=9 note=42 velocity=127 time=0.03
EXTRACT: note_on channel=9 note=35 velocity=0 time=0.09
EXTRACT: note_on channel=9 note=35 velocity=127 time=0.06
EXTRACT: note_on channel=9 note=42 velocity=50 time=0
EXTRACT: note_on channel=9 note=42 velocity=0 time=0.09
EXTRACT: note_on channel=9 note=42 velocity=0 time=0.03
EXTRACT: note_on channel=2 note=69 velocity=127 time=0.03
EXTRACT: note_on channel=4 note=31 velocity=100 time=0
EXTRACT: note_on channel=4 note=43 velocity=100 time=0
EXTRACT: note_on channel=9 note=35 velocity=127 time=0
EXTRACT: note_on channel=9 note=42 velocity=127 time=0
EXTRACT: note_on channel=9 note=35 velocity=0 time=0.09
EXTRACT: note_on channel=9 note=42 velocity=50 time=0.06
EXTRACT: note_on channel=2 note=69 velocity=0 time=0.09
EXTRACT: note_on channel=4 note=31 velocity=0 time=0
EXTRACT: note_on channel=4 note=43 velocity=0 time=0
EXTRACT: note_on channel=9 note=35 velocity=0 time=0
EXTRACT: note_on channel=9 note=42 velocity=0 time=0
EXTRACT: note_on channel=9 note=42 velocity=0 time=0.03
EXTRACT: note_on channel=2 note=69 velocity=127 time=0.03
EXTRACT: note_on channel=9 note=38 velocity=127 time=0
EXTRACT: note_on channel=9 note=42 velocity=127 time=0
EXTRACT: note_on channel=0 note=59 velocity=0 time=0.12
EXTRACT: note_on channel=0 note=64 velocity=0 time=0
EXTRACT: note_on channel=0 note=62 velocity=0 time=0
EXTRACT: note_on channel=0 note=69 velocity=0 time=0
EXTRACT: note_on channel=5 note=81 velocity=0 time=0
EXTRACT: note_on channel=5 note=69 velocity=0 time=0
EXTRACT: note_on channel=4 note=32 velocity=100 time=0.03
EXTRACT: note_on channel=4 note=44 velocity=100 time=0
EXTRACT: note_on channel=9 note=42 velocity=50 time=0
EXTRACT: note_on channel=2 note=69 velocity=0 time=0.09
EXTRACT: note_on channel=9 note=38 velocity=0 time=0
EXTRACT: note_on channel=9 note=42 velocity=0 time=0
EXTRACT: note_on channel=9 note=42 velocity=0 time=0.03
EXTRACT: note_on channel=2 note=66 velocity=127 time=0.03
EXTRACT: note_on channel=9 note=42 velocity=127 time=0
EXTRACT: note_on channel=4 note=32 velocity=0 time=0.09
EXTRACT: note_on channel=4 note=44 velocity=0 time=0
EXTRACT: note_on channel=9 note=42 velocity=50 time=0.06
EXTRACT: note_on channel=9 note=42 velocity=0 time=0.09
EXTRACT: note_on channel=9 note=42 velocity=0 time=0.03
EXTRACT: note_on channel=0 note=61 velocity=60 time=0.03
EXTRACT: note_on channel=0 note=64 velocity=60 time=0
EXTRACT: note_on channel=0 note=69 velocity=60 time=0
EXTRACT: note_on channel=4 note=33 velocity=100 time=0
EXTRACT: note_on channel=4 note=45 velocity=100 time=0
EXTRACT: note_on channel=5 note=88 velocity=100 time=0
EXTRACT: note_on channel=5 note=76 velocity=100 time=0
EXTRACT: note_on channel=9 note=35 velocity=127 time=0
EXTRACT: note_on channel=9 note=42 velocity=127 time=0
EXTRACT: note_on channel=4 note=33 velocity=0 time=0.12
EXTRACT: note_on channel=4 note=45 velocity=0 time=0
EXTRACT: note_on channel=9 note=42 velocity=0 time=0
EXTRACT: note_on channel=4 note=33 velocity=100 time=0.03
EXTRACT: note_on channel=4 note=45 velocity=100 time=0
EXTRACT: note_on channel=9 note=42 velocity=50 time=0
EXTRACT: note_on channel=2 note=66 velocity=0 time=0.03
EXTRACT: note_on channel=9 note=35 velocity=0 time=0.06
EXTRACT: note_on channel=4 note=33 velocity=0 time=0.03
EXTRACT: note_on channel=4 note=45 velocity=0 time=0
EXTRACT: note_on channel=9 note=42 velocity=0 time=0
EXTRACT: note_on channel=2 note=69 velocity=127 time=0.03
EXTRACT: note_on channel=9 note=42 velocity=127 time=0
EXTRACT: note_on channel=9 note=42 velocity=50 time=0.15
EXTRACT: note_on channel=9 note=42 velocity=0 time=0.09
EXTRACT: note_on channel=9 note=42 velocity=0 time=0.03
EXTRACT: note_on channel=9 note=38 velocity=127 time=0.03
EXTRACT: note_on channel=9 note=42 velocity=127 time=0
EXTRACT: note_on channel=9 note=42 velocity=50 time=0.15
EXTRACT: note_on channel=9 note=38 velocity=0 time=0.09
EXTRACT: note_on channel=9 note=42 velocity=0 time=0
EXTRACT: note_on channel=9 note=42 velocity=0 time=0.03
EXTRACT: note_on channel=9 note=42 velocity=127 time=0.03
EXTRACT: note_on channel=9 note=35 velocity=127 time=0.15
EXTRACT: note_on channel=9 note=42 velocity=50 time=0
EXTRACT: note_on channel=9 note=42 velocity=0 time=0.09
EXTRACT: note_on channel=9 note=42 velocity=0 time=0.03
EXTRACT: note_on channel=9 note=42 velocity=127 time=0.03
EXTRACT: note_on channel=2 note=69 velocity=0 time=0.06
EXTRACT: note_on channel=9 note=35 velocity=0 time=0.03
EXTRACT: note_on channel=9 note=35 velocity=127 time=0.06
EXTRACT: note_on channel=9 note=42 velocity=50 time=0
EXTRACT: note_on channel=9 note=42 velocity=0 time=0.09
EXTRACT: note_on channel=9 note=42 velocity=0 time=0.03
EXTRACT: note_on channel=2 note=73 velocity=127 time=0.03
EXTRACT: note_on channel=4 note=28 velocity=100 time=0
EXTRACT: note_on channel=4 note=40 velocity=100 time=0
EXTRACT: note_on channel=9 note=35 velocity=127 time=0
EXTRACT: note_on channel=9 note=42 velocity=127 time=0
EXTRACT: note_on channel=9 note=35 velocity=0 time=0.09
EXTRACT: note_on channel=9 note=42 velocity=50 time=0.06
EXTRACT: note_on channel=2 note=73 velocity=0 time=0.09
EXTRACT: note_on channel=4 note=28 velocity=0 time=0
EXTRACT: note_on channel=4 note=40 velocity=0 time=0
EXTRACT: note_on channel=9 note=35 velocity=0 time=0
EXTRACT: note_on channel=9 note=42 velocity=0 time=0
EXTRACT: note_on channel=9 note=42 velocity=0 time=0.03
EXTRACT: note_on channel=2 note=71 velocity=127 time=0.03
EXTRACT: note_on channel=9 note=38 velocity=127 time=0
EXTRACT: note_on channel=9 note=42 velocity=127 time=0
EXTRACT: note_on channel=0 note=61 velocity=0 time=0.12
EXTRACT: note_on channel=0 note=64 velocity=0 time=0
EXTRACT: note_on channel=0 note=69 velocity=0 time=0
EXTRACT: note_on channel=5 note=88 velocity=0 time=0
EXTRACT: note_on channel=5 note=76 velocity=0 time=0
EXTRACT: note_on channel=4 note=30 velocity=100 time=0.03
EXTRACT: note_on channel=4 note=42 velocity=100 time=0
EXTRACT: note_on channel=5 note=62 velocity=100 time=0
EXTRACT: note_on channel=9 note=42 velocity=50 time=0
EXTRACT: note_on channel=2 note=71 velocity=0 time=0.09
EXTRACT: note_on channel=9 note=38 velocity=0 time=0
EXTRACT: note_on channel=9 note=42 velocity=0 time=0
EXTRACT: note_on channel=5 note=62 velocity=0 time=0.03
EXTRACT: note_on channel=9 note=42 velocity=0 time=0
EXTRACT: note_on channel=2 note=69 velocity=127 time=0.03
EXTRACT: note_on channel=5 note=64 velocity=100 time=0
EXTRACT: note_on channel=9 note=42 velocity=127 time=0
EXTRACT: note_on channel=4 note=30 velocity=0 time=0.09
EXTRACT: note_on channel=4 note=42 velocity=0 time=0
EXTRACT: note_on channel=5 note=64 velocity=0 time=0.03
EXTRACT: note_on channel=5 note=67 velocity=100 time=0.03
EXTRACT: note_on channel=9 note=42 velocity=50 time=0
EXTRACT: note_on channel=2 note=69 velocity=0 time=0.09
EXTRACT: note_on channel=9 note=42 velocity=0 time=0
EXTRACT: note_on channel=5 note=67 velocity=0 time=0.03
EXTRACT: note_on channel=9 note=42 velocity=0 time=0
EXTRACT: note_on channel=0 note=59 velocity=60 time=0.03
EXTRACT: note_on channel=0 note=62 velocity=60 time=0
EXTRACT: note_on channel=0 note=64 velocity=60 time=0
EXTRACT: note_on channel=0 note=69 velocity=60 time=0
EXTRACT: note_on channel=2 note=69 velocity=127 time=0
EXTRACT: note_on channel=4 note=31 velocity=100 time=0
EXTRACT: note_on channel=4 note=43 velocity=100 time=0
EXTRACT: note_on channel=5 note=81 velocity=100 time=0
EXTRACT: note_on channel=5 note=69 velocity=100 time=0
EXTRACT: note_on channel=5 note=69 velocity=100 time=0
EXTRACT: note_on channel=9 note=35 velocity=127 time=0
EXTRACT: note_on channel=9 note=42 velocity=127 time=0
EXTRACT: note_on channel=4 note=31 velocity=0 time=0.12
EXTRACT: note_on channel=4 note=43 velocity=0 time=0
EXTRACT: note_on channel=5 note=69 velocity=0 time=0
EXTRACT: note_on channel=9 note=42 velocity=0 time=0
EXTRACT: note_on channel=4 note=31 velocity=100 time=0.03
EXTRACT: note_on channel=4 note=43 velocity=100 time=0
EXTRACT: note_on channel=9 note=42 velocity=50 time=0
EXTRACT: note_on channel=9 note=35 velocity=0 time=0.09
EXTRACT: note_on channel=4 note=31 velocity=0 time=0.03
EXTRACT: note_on channel=4 note=43 velocity=0 time=0
EXTRACT: note_on channel=9 note=42 velocity=0 time=0
EXTRACT: note_on channel=9 note=42 velocity=127 time=0.03
EXTRACT: note_on channel=9 note=42 velocity=50 time=0.15
EXTRACT: note_on channel=9 note=42 velocity=0 time=0.09
EXTRACT: note_on channel=9 note=42 velocity=0 time=0.03
EXTRACT: note_on channel=9 note=38 velocity=127 time=0.03
EXTRACT: note_on channel=9 note=42 velocity=127 time=0
EXTRACT: note_on channel=0 note=73 velocity=40 time=0.15
EXTRACT: note_on channel=0 note=76 velocity=40 time=0
EXTRACT: note_on channel=9 note=42 velocity=50 time=0
EXTRACT: note_on channel=9 note=38 velocity=0 time=0.09
EXTRACT: note_on channel=9 note=42 velocity=0 time=0
EXTRACT: note_on channel=0 note=73 velocity=0 time=0.03
EXTRACT: note_on channel=0 note=76 velocity=0 time=0
EXTRACT: note_on channel=9 note=42 velocity=0 time=0
EXTRACT: note_on channel=9 note=42 velocity=127 time=0.03
EXTRACT: note_on channel=0 note=71 velocity=40 time=0.15
EXTRACT: note_on channel=0 note=74 velocity=40 time=0
EXTRACT: note_on channel=9 note=35 velocity=127 time=0
EXTRACT: note_on channel=9 note=42 velocity=50 time=0
EXTRACT: note_on channel=9 note=42 velocity=0 time=0.09
EXTRACT: note_on channel=0 note=71 velocity=0 time=0.03
EXTRACT: note_on channel=0 note=74 velocity=0 time=0
EXTRACT: note_on channel=9 note=42 velocity=0 time=0
EXTRACT: note_on channel=9 note=42 velocity=127 time=0.03
EXTRACT: note_on channel=9 note=35 velocity=0 time=0.09
EXTRACT: note_on channel=9 note=35 velocity=127 time=0.06
EXTRACT: note_on channel=9 note=42 velocity=50 time=0
EXTRACT: note_on channel=9 note=42 velocity=0 time=0.09
EXTRACT: note_on channel=9 note=42 velocity=0 time=0.03
EXTRACT: note_on channel=4 note=31 velocity=100 time=0.03
EXTRACT: note_on channel=4 note=43 velocity=100 time=0
EXTRACT: note_on channel=9 note=35 velocity=127 time=0
EXTRACT: note_on channel=9 note=42 velocity=127 time=0
EXTRACT: note_on channel=9 note=35 velocity=0 time=0.09
EXTRACT: note_on channel=9 note=42 velocity=50 time=0.06
EXTRACT: note_on channel=4 note=31 velocity=0 time=0.09
EXTRACT: note_on channel=4 note=43 velocity=0 time=0
EXTRACT: note_on channel=9 note=35 velocity=0 time=0
EXTRACT: note_on channel=9 note=42 velocity=0 time=0
EXTRACT: note_on channel=9 note=42 velocity=0 time=0.03
EXTRACT: note_on channel=9 note=38 velocity=127 time=0.03
EXTRACT: note_on channel=9 note=42 velocity=127 time=0
EXTRACT: note_on channel=0 note=59 velocity=0 time=0.12
EXTRACT: note_on channel=0 note=62 velocity=0 time=0
EXTRACT: note_on channel=0 note=64 velocity=0 time=0
EXTRACT: note_on channel=0 note=69 velocity=0 time=0
EXTRACT: note_on channel=2 note=69 velocity=0 time=0
EXTRACT: note_on channel=5 note=81 velocity=0 time=0
EXTRACT: note_on channel=5 note=69 velocity=0 time=0
EXTRACT: note_on channel=4 note=32 velocity=100 time=0.03
EXTRACT: note_on channel=4 note=44 velocity=100 time=0
EXTRACT: note_on channel=9 note=42 velocity=50 time=0
EXTRACT: note_on channel=9 note=38 velocity=0 time=0.09
EXTRACT: note_on channel=9 note=42 velocity=0 time=0
EXTRACT: note_on channel=9 note=42 velocity=0 time=0.03
EXTRACT: note_on channel=2 note=72 velocity=127 time=0.03
EXTRACT: note_on channel=9 note=42 velocity=127 time=0
EXTRACT: note_on channel=4 note=32 velocity=0 time=0.09
EXTRACT: note_on channel=4 note=44 velocity=0 time=0
EXTRACT: note_on channel=9 note=42 velocity=50 time=0.06
EXTRACT: note_on channel=9 note=42 velocity=0 time=0.09
EXTRACT: note_on channel=9 note=42 velocity=0 time=0.03
EXTRACT: note_on channel=0 note=61 velocity=60 time=0.03
EXTRACT: note_on channel=0 note=64 velocity=60 time=0
EXTRACT: note_on channel=0 note=69 velocity=60 time=0
EXTRACT: note_on channel=4 note=33 velocity=100 time=0
EXTRACT: note_on channel=4 note=45 velocity=100 time=0
EXTRACT: note_on channel=5 note=76 velocity=100 time=0
EXTRACT: note_on channel=5 note=64 velocity=100 time=0
EXTRACT: note_on channel=9 note=35 velocity=127 time=0
EXTRACT: note_on channel=9 note=42 velocity=127 time=0
EXTRACT: note_on channel=4 note=33 velocity=0 time=0.12
EXTRACT: note_on channel=4 note=45 velocity=0 time=0
EXTRACT: note_on channel=9 note=42 velocity=0 time=0
EXTRACT: note_on channel=4 note=33 velocity=100 time=0.03
EXTRACT: note_on channel=4 note=45 velocity=100 time=0
EXTRACT: note_on channel=9 note=42 velocity=50 time=0
EXTRACT: note_on channel=2 note=72 velocity=0 time=0.03
EXTRACT: note_on channel=9 note=35 velocity=0 time=0.06
EXTRACT: note_on channel=4 note=33 velocity=0 time=0.03
EXTRACT: note_on channel=4 note=45 velocity=0 time=0
EXTRACT: note_on channel=9 note=42 velocity=0 time=0
EXTRACT: note_on channel=2 note=71 velocity=127 time=0.03
EXTRACT: note_on channel=9 note=42 velocity=127 time=0
EXTRACT: note_on channel=9 note=42 velocity=50 time=0.15
EXTRACT: note_on channel=2 note=71 velocity=0 time=0.09
EXTRACT: note_on channel=9 note=42 velocity=0 time=0
EXTRACT: note_on channel=9 note=42 velocity=0 time=0.03
EXTRACT: note_on channel=2 note=71 velocity=127 time=0.03
EXTRACT: note_on channel=9 note=38 velocity=127 time=0
EXTRACT: note_on channel=9 note=42 velocity=127 time=0
EXTRACT: note_on channel=9 note=42 velocity=50 time=0.15
EXTRACT: note_on channel=2 note=71 velocity=0 time=0.09
EXTRACT: note_on channel=9 note=38 velocity=0 time=0
EXTRACT: note_on channel=9 note=42 velocity=0 time=0
EXTRACT: note_on channel=9 note=42 velocity=0 time=0.03
EXTRACT: note_on channel=2 note=69 velocity=127 time=0.03
EXTRACT: note_on channel=9 note=42 velocity=127 time=0
EXTRACT: note_on channel=9 note=35 velocity=127 time=0.15
EXTRACT: note_on channel=9 note=42 velocity=50 time=0
EXTRACT: note_on channel=2 note=69 velocity=0 time=0.09
EXTRACT: note_on channel=9 note=42 velocity=0 time=0
EXTRACT: note_on channel=9 note=42 velocity=0 time=0.03
EXTRACT: note_on channel=2 note=69 velocity=127 time=0.03
EXTRACT: note_on channel=9 note=42 velocity=127 time=0
EXTRACT: note_on channel=9 note=35 velocity=0 time=0.09
EXTRACT: note_on channel=9 note=35 velocity=127 time=0.06
EXTRACT: note_on channel=9 note=42 velocity=50 time=0
EXTRACT: note_on channel=2 note=69 velocity=0 time=0.09
EXTRACT: note_on channel=9 note=42 velocity=0 time=0
EXTRACT: note_on channel=9 note=42 velocity=0 time=0.03
EXTRACT: note_on channel=2 note=66 velocity=127 time=0.03
EXTRACT: note_on channel=4 note=35 velocity=100 time=0
EXTRACT: note_on channel=4 note=47 velocity=100 time=0
EXTRACT: note_on channel=9 note=35 velocity=127 time=0
EXTRACT: note_on channel=9 note=42 velocity=127 time=0
EXTRACT: note_on channel=9 note=35 velocity=0 time=0.09
EXTRACT: note_on channel=9 note=42 velocity=50 time=0.06
EXTRACT: note_on channel=2 note=66 velocity=0 time=0.09
EXTRACT: note_on channel=4 note=35 velocity=0 time=0
EXTRACT: note_on channel=4 note=47 velocity=0 time=0
EXTRACT: note_on channel=9 note=35 velocity=0 time=0
EXTRACT: note_on channel=9 note=42 velocity=0 time=0
EXTRACT: note_on channel=9 note=42 velocity=0 time=0.03
EXTRACT: note_on channel=2 note=69 velocity=127 time=0.03
EXTRACT: note_on channel=9 note=38 velocity=127 time=0
EXTRACT: note_on channel=9 note=42 velocity=127 time=0
EXTRACT: note_on channel=0 note=61 velocity=0 time=0.12
EXTRACT: note_on channel=0 note=64 velocity=0 time=0
EXTRACT: note_on channel=0 note=69 velocity=0 time=0
EXTRACT: note_on channel=5 note=76 velocity=0 time=0
EXTRACT: note_on channel=5 note=64 velocity=0 time=0
EXTRACT: note_on channel=4 note=33 velocity=100 time=0.03
EXTRACT: note_on channel=4 note=45 velocity=100 time=0
EXTRACT: note_on channel=9 note=42 velocity=50 time=0
EXTRACT: note_on channel=2 note=69 velocity=0 time=0.09
EXTRACT: note_on channel=9 note=38 velocity=0 time=0
EXTRACT: note_on channel=9 note=42 velocity=0 time=0
EXTRACT: note_on channel=9 note=42 velocity=0 time=0.03
EXTRACT: note_on channel=2 note=66 velocity=127 time=0.03
EXTRACT: note_on channel=9 note=42 velocity=127 time=0
EXTRACT: note_on channel=4 note=33 velocity=0 time=0.09
EXTRACT: note_on channel=4 note=45 velocity=0 time=0
EXTRACT: note_on channel=9 note=42 velocity=50 time=0.06
EXTRACT: note_on channel=2 note=66 velocity=0 time=0.09
EXTRACT: note_on channel=9 note=42 velocity=0 time=0
EXTRACT: note_on channel=9 note=42 velocity=0 time=0.03
EXTRACT: note_on channel=0 note=59 velocity=60 time=0.03
EXTRACT: note_on channel=0 note=66 velocity=60 time=0
EXTRACT: note_on channel=0 note=64 velocity=60 time=0
EXTRACT: note_on channel=0 note=69 velocity=60 time=0
EXTRACT: note_on channel=2 note=69 velocity=127 time=0
EXTRACT: note_on channel=4 note=35 velocity=100 time=0
EXTRACT: note_on channel=4 note=47 velocity=100 time=0
EXTRACT: note_on channel=5 note=69 velocity=100 time=0
EXTRACT: note_on channel=9 note=35 velocity=127 time=0
EXTRACT: note_on channel=9 note=42 velocity=127 time=0
EXTRACT: note_on channel=4 note=35 velocity=0 time=0.12
EXTRACT: note_on channel=4 note=47 velocity=0 time=0
EXTRACT: note_on channel=9 note=42 velocity=0 time=0
EXTRACT: note_on channel=4 note=35 velocity=100 time=0.03
EXTRACT: note_on channel=4 note=47 velocity=100 time=0
EXTRACT: note_on channel=9 note=42 velocity=50 time=0
EXTRACT: note_on channel=2 note=69 velocity=0 time=0.09
EXTRACT: note_on channel=9 note=35 velocity=0 time=0
EXTRACT: note_on channel=4 note=35 velocity=0 time=0.03
EXTRACT: note_on channel=4 note=47 velocity=0 time=0
EXTRACT: note_on channel=9 note=42 velocity=0 time=0
EXTRACT: note_on channel=9 note=42 velocity=127 time=0.03
EXTRACT: note_on channel=9 note=42 velocity=50 time=0.15
EXTRACT: note_on channel=9 note=42 velocity=0 time=0.09
EXTRACT: note_on channel=9 note=42 velocity=0 time=0.03
EXTRACT: note_on channel=2 note=69 velocity=127 time=0.03
EXTRACT: note_on channel=9 note=38 velocity=127 time=0
EXTRACT: note_on channel=9 note=42 velocity=127 time=0
EXTRACT: note_on channel=9 note=42 velocity=50 time=0.15
EXTRACT: note_on channel=2 note=69 velocity=0 time=0.09
EXTRACT: note_on channel=9 note=38 velocity=0 time=0
EXTRACT: note_on channel=9 note=42 velocity=0 time=0
EXTRACT: note_on channel=9 note=42 velocity=0 time=0.03
EXTRACT: note_on channel=2 note=66 velocity=127 time=0.03
EXTRACT: note_on channel=9 note=42 velocity=127 time=0
EXTRACT: note_on channel=9 note=35 velocity=127 time=0.15
EXTRACT: note_on channel=9 note=42 velocity=50 time=0
EXTRACT: note_on channel=2 note=66 velocity=0 time=0.09
EXTRACT: note_on channel=9 note=42 velocity=0 time=0
EXTRACT: note_on channel=9 note=42 velocity=0 time=0.03
EXTRACT: note_on channel=2 note=69 velocity=127 time=0.03
EXTRACT: note_on channel=9 note=42 velocity=127 time=0
EXTRACT: note_on channel=9 note=35 velocity=0 time=0.09
EXTRACT: note_on channel=9 note=35 velocity=127 time=0.06
EXTRACT: note_on channel=9 note=42 velocity=50 time=0
EXTRACT: note_on channel=2 note=69 velocity=0 time=0.09
EXTRACT: note_on channel=9 note=42 velocity=0 time=0
EXTRACT: note_on channel=9 note=42 velocity=0 time=0.03
EXTRACT: note_on channel=2 note=69 velocity=127 time=0.03
EXTRACT: note_on channel=4 note=35 velocity=100 time=0
EXTRACT: note_on channel=4 note=47 velocity=100 time=0
EXTRACT: note_on channel=9 note=35 velocity=127 time=0
EXTRACT: note_on channel=9 note=42 velocity=127 time=0
EXTRACT: note_on channel=9 note=35 velocity=0 time=0.09
EXTRACT: note_on channel=9 note=42 velocity=50 time=0.06
EXTRACT: note_on channel=4 note=35 velocity=0 time=0.09
EXTRACT: note_on channel=4 note=47 velocity=0 time=0
EXTRACT: note_on channel=9 note=35 velocity=0 time=0
EXTRACT: note_on channel=9 note=42 velocity=0 time=0
EXTRACT: note_on channel=9 note=42 velocity=0 time=0.03
EXTRACT: note_on channel=9 note=38 velocity=127 time=0.03
EXTRACT: note_on channel=9 note=42 velocity=127 time=0
EXTRACT: note_on channel=0 note=59 velocity=0 time=0.12
EXTRACT: note_on channel=0 note=66 velocity=0 time=0
EXTRACT: note_on channel=0 note=64 velocity=0 time=0
EXTRACT: note_on channel=0 note=69 velocity=0 time=0
EXTRACT: note_on channel=5 note=69 velocity=0 time=0
EXTRACT: note_on channel=4 note=37 velocity=100 time=0.03
EXTRACT: note_on channel=4 note=49 velocity=100 time=0
EXTRACT: note_on channel=9 note=42 velocity=50 time=0
EXTRACT: note_on channel=2 note=69 velocity=0 time=0.03
EXTRACT: note_on channel=9 note=38 velocity=0 time=0.06
EXTRACT: note_on channel=9 note=42 velocity=0 time=0
EXTRACT: note_on channel=9 note=42 velocity=0 time=0.03
EXTRACT: note_on channel=2 note=71 velocity=127 time=0.03
EXTRACT: note_on channel=9 note=42 velocity=127 time=0
EXTRACT: note_on channel=4 note=37 velocity=0 time=0.09
EXTRACT: note_on channel=4 note=49 velocity=0 time=0
EXTRACT: note_on channel=9 note=42 velocity=50 time=0.06
EXTRACT: note_on channel=9 note=42 velocity=0 time=0.09
EXTRACT: note_on channel=9 note=42 velocity=0 time=0.03
EXTRACT: note_on channel=0 note=59 velocity=60 time=0.03
EXTRACT: note_on channel=0 note=64 velocity=60 time=0
EXTRACT: note_on channel=0 note=68 velocity=60 time=0
EXTRACT: note_on channel=4 note=40 velocity=100 time=0
EXTRACT: note_on channel=4 note=52 velocity=100 time=0
EXTRACT: note_on channel=9 note=35 velocity=127 time=0
EXTRACT: note_on channel=9 note=42 velocity=127 time=0
EXTRACT: note_on channel=9 note=42 velocity=0 time=0.12
EXTRACT: note_on channel=9 note=42 velocity=50 time=0.03
EXTRACT: note_on channel=9 note=35 velocity=0 time=0.09
EXTRACT: note_on channel=9 note=42 velocity=0 time=0.03
EXTRACT: note_on channel=9 note=42 velocity=127 time=0.03
EXTRACT: note_on channel=9 note=42 velocity=50 time=0.15
EXTRACT: note_on channel=4 note=40 velocity=0 time=0.03
EXTRACT: note_on channel=4 note=52 velocity=0 time=0
EXTRACT: note_on channel=9 note=42 velocity=0 time=0.06
EXTRACT: note_on channel=9 note=42 velocity=0 time=0.03
EXTRACT: note_on channel=4 note=40 velocity=100 time=0.03
EXTRACT: note_on channel=4 note=52 velocity=100 time=0
EXTRACT: note_on channel=9 note=38 velocity=127 time=0
EXTRACT: note_on channel=9 note=42 velocity=127 time=0
EXTRACT: note_on channel=2 note=71 velocity=0 time=0.06
EXTRACT: note_on channel=9 note=42 velocity=50 time=0.09
EXTRACT: note_on channel=9 note=38 velocity=0 time=0.09
EXTRACT: note_on channel=9 note=42 velocity=0 time=0
EXTRACT: note_on channel=9 note=42 velocity=0 time=0.03
EXTRACT: note_on channel=9 note=42 velocity=127 time=0.03
EXTRACT: note_on channel=4 note=40 velocity=100 time=0.15
EXTRACT: note_on channel=4 note=52 velocity=100 time=0
EXTRACT: note_on channel=9 note=35 velocity=127 time=0
EXTRACT: note_on channel=9 note=42 velocity=50 time=0
EXTRACT: note_on channel=4 note=40 velocity=0 time=0.03
EXTRACT: note_on channel=4 note=52 velocity=0 time=0
EXTRACT: note_on channel=9 note=42 velocity=0 time=0.06
EXTRACT: note_on channel=4 note=40 velocity=0 time=0.03
EXTRACT: note_on channel=4 note=52 velocity=0 time=0
EXTRACT: note_on channel=9 note=42 velocity=0 time=0
EXTRACT: note_on channel=4 note=52 velocity=100 time=0.03
EXTRACT: note_on channel=4 note=40 velocity=100 time=0
EXTRACT: note_on channel=9 note=42 velocity=127 time=0
EXTRACT: note_on channel=9 note=35 velocity=0 time=0.09
EXTRACT: note_on channel=9 note=35 velocity=127 time=0.06
EXTRACT: note_on channel=9 note=42 velocity=50 time=0
EXTRACT: note_on channel=4 note=52 velocity=0 time=0.09
EXTRACT: note_on channel=4 note=40 velocity=0 time=0
EXTRACT: note_on channel=9 note=42 velocity=0 time=0
EXTRACT: note_on channel=9 note=42 velocity=0 time=0.03
EXTRACT: note_on channel=2 note=54 velocity=100 time=0.03
EXTRACT: note_on channel=2 note=62 velocity=100 time=0
EXTRACT: note_on channel=2 note=66 velocity=127 time=0
EXTRACT: note_on channel=4 note=40 velocity=100 time=0
EXTRACT: note_on channel=4 note=52 velocity=100 time=0
EXTRACT: note_on channel=9 note=35 velocity=127 time=0
EXTRACT: note_on channel=9 note=42 velocity=127 time=0
EXTRACT: note_on channel=9 note=35 velocity=0 time=0.09
EXTRACT: note_on channel=4 note=40 velocity=0 time=0.03
EXTRACT: note_on channel=4 note=52 velocity=0 time=0
EXTRACT: note_on channel=9 note=42 velocity=50 time=0.03
EXTRACT: note_on channel=2 note=54 velocity=0 time=0.09
EXTRACT: note_on channel=2 note=62 velocity=0 time=0
EXTRACT: note_on channel=2 note=66 velocity=0 time=0
EXTRACT: note_on channel=9 note=35 velocity=0 time=0
EXTRACT: note_on channel=9 note=42 velocity=0 time=0
EXTRACT: note_on channel=9 note=42 velocity=0 time=0.03
EXTRACT: note_on channel=2 note=57 velocity=100 time=0.03
EXTRACT: note_on channel=2 note=66 velocity=100 time=0
EXTRACT: note_on channel=2 note=69 velocity=127 time=0
EXTRACT: note_on channel=9 note=38 velocity=127 time=0
EXTRACT: note_on channel=9 note=42 velocity=127 time=0
EXTRACT: note_on channel=0 note=59 velocity=0 time=0.12
EXTRACT: note_on channel=0 note=64 velocity=0 time=0
EXTRACT: note_on channel=0 note=68 velocity=0 time=0
EXTRACT: note_on channel=4 note=42 velocity=100 time=0.03
EXTRACT: note_on channel=4 note=54 velocity=100 time=0
EXTRACT: note_on channel=5 note=62 velocity=100 time=0
EXTRACT: note_on channel=9 note=42 velocity=50 time=0
EXTRACT: note_on channel=2 note=57 velocity=0 time=0.09
EXTRACT: note_on channel=2 note=66 velocity=0 time=0
EXTRACT: note_on channel=2 note=69 velocity=0 time=0
EXTRACT: note_on channel=9 note=38 velocity=0 time=0
EXTRACT: note_on channel=9 note=42 velocity=0 time=0
EXTRACT: note_on channel=5 note=62 velocity=0 time=0.03
EXTRACT: note_on channel=9 note=42 velocity=0 time=0
EXTRACT: note_on channel=2 note=54 velocity=100 time=0.03
EXTRACT: note_on channel=2 note=62 velocity=100 time=0
EXTRACT: note_on channel=2 note=66 velocity=127 time=0
EXTRACT: note_on channel=5 note=64 velocity=100 time=0
EXTRACT: note_on channel=9 note=42 velocity=127 time=0
EXTRACT: note_on channel=4 note=42 velocity=0 time=0.09
EXTRACT: note_on channel=4 note=54 velocity=0 time=0
EXTRACT: note_on channel=5 note=64 velocity=0 time=0.03
EXTRACT: note_on channel=5 note=67 velocity=100 time=0.03
EXTRACT: note_on channel=9 note=42 velocity=50 time=0
EXTRACT: note_on channel=2 note=54 velocity=0 time=0.09
EXTRACT: note_on channel=2 note=62 velocity=0 time=0
EXTRACT: note_on channel=2 note=66 velocity=0 time=0
EXTRACT: note_on channel=9 note=42 velocity=0 time=0
EXTRACT: note_on channel=5 note=67 velocity=0 time=0.03
EXTRACT: note_on channel=9 note=42 velocity=0 time=0
EXTRACT: note_on channel=0 note=45 velocity=100 time=0.03
EXTRACT: note_on channel=1 note=45 velocity=100 time=0
EXTRACT: note_on channel=2 note=57 velocity=100 time=0
EXTRACT: note_on channel=2 note=66 velocity=100 time=0
EXTRACT: note_on channel=2 note=69 velocity=127 time=0
EXTRACT: note_on channel=4 note=45 velocity=100 time=0
EXTRACT: note_on channel=5 note=69 velocity=100 time=0
EXTRACT: note_on channel=5 note=93 velocity=70 time=0
EXTRACT: note_on channel=5 note=81 velocity=80 time=0
EXTRACT: note_on channel=9 note=35 velocity=127 time=0
EXTRACT: note_on channel=9 note=42 velocity=127 time=0
EXTRACT: note_on channel=5 note=69 velocity=0 time=0.12
EXTRACT: note_on channel=9 note=42 velocity=0 time=0
EXTRACT: note_on channel=9 note=42 velocity=50 time=0.03
EXTRACT: note_on channel=0 note=45 velocity=0 time=0.09
EXTRACT: note_on channel=1 note=45 velocity=0 time=0
EXTRACT: note_on channel=2 note=57 velocity=0 time=0
EXTRACT: note_on channel=2 note=66 velocity=0 time=0
EXTRACT: note_on channel=2 note=69 velocity=0 time=0
EXTRACT: note_on channel=4 note=45 velocity=0 time=0
EXTRACT: note_on channel=5 note=93 velocity=0 time=0
EXTRACT: note_on channel=5 note=81 velocity=0 time=0
EXTRACT: note_on channel=9 note=35 velocity=0 time=0
EXTRACT: note_on channel=9 note=42 velocity=0 time=0.03
EXTRACT: note_on channel=0 note=45 velocity=100 time=0.03
EXTRACT: note_on channel=1 note=45 velocity=100 time=0
EXTRACT: note_on channel=2 note=54 velocity=100 time=0
EXTRACT: note_on channel=2 note=62 velocity=100 time=0
EXTRACT: note_on channel=2 note=66 velocity=127 time=0
EXTRACT: note_on channel=3 note=69 velocity=64 time=0
EXTRACT: note_on channel=4 note=45 velocity=100 time=0
EXTRACT: note_on channel=9 note=42 velocity=127 time=0
EXTRACT: note_on channel=3 note=69 velocity=0 time=0.12
EXTRACT: note_on channel=3 note=69 velocity=64 time=0.03
EXTRACT: note_on channel=9 note=42 velocity=50 time=0
EXTRACT: note_on channel=2 note=54 velocity=0 time=0.09
EXTRACT: note_on channel=2 note=62 velocity=0 time=0
EXTRACT: note_on channel=2 note=66 velocity=0 time=0
EXTRACT: note_on channel=9 note=42 velocity=0 time=0
EXTRACT: note_on channel=3 note=69 velocity=0 time=0.03
EXTRACT: note_on channel=9 note=42 velocity=0 time=0
EXTRACT: note_on channel=0 note=57 velocity=100 time=0.03
EXTRACT: note_on channel=0 note=62 velocity=100 time=0
EXTRACT: note_on channel=0 note=66 velocity=100 time=0
EXTRACT: note_on channel=3 note=69 velocity=64 time=0
EXTRACT: note_on channel=5 note=93 velocity=70 time=0
EXTRACT: note_on channel=5 note=81 velocity=80 time=0
EXTRACT: note_on channel=9 note=38 velocity=127 time=0
EXTRACT: note_on channel=9 note=42 velocity=127 time=0
EXTRACT: note_on channel=9 note=42 velocity=50 time=0.15
EXTRACT: note_on channel=1 note=45 velocity=0 time=0.03
EXTRACT: note_on channel=4 note=45 velocity=0 time=0
EXTRACT: note_on channel=0 note=57 velocity=0 time=0.06
EXTRACT: note_on channel=0 note=62 velocity=0 time=0
EXTRACT: note_on channel=0 note=66 velocity=0 time=0
EXTRACT: note_on channel=3 note=69 velocity=0 time=0
EXTRACT: note_on channel=5 note=93 velocity=0 time=0
EXTRACT: note_on channel=5 note=81 velocity=0 time=0
EXTRACT: note_on channel=9 note=38 velocity=0 time=0
EXTRACT: note_on channel=9 note=42 velocity=0 time=0
EXTRACT: note_on channel=9 note=42 velocity=0 time=0.03
EXTRACT: note_on channel=0 note=57 velocity=100 time=0.03
EXTRACT: note_on channel=3 note=69 velocity=64 time=0
EXTRACT: note_on channel=9 note=42 velocity=127 time=0
EXTRACT: note_on channel=3 note=69 velocity=0 time=0.12
EXTRACT: note_on channel=0 note=57 velocity=100 time=0.03
EXTRACT: note_on channel=0 note=61 velocity=100 time=0
EXTRACT: note_on channel=0 note=64 velocity=100 time=0
EXTRACT: note_on channel=3 note=69 velocity=64 time=0
EXTRACT: note_on channel=9 note=35 velocity=127 time=0
EXTRACT: note_on channel=9 note=42 velocity=50 time=0
EXTRACT: note_on channel=0 note=57 velocity=0 time=0.09
EXTRACT: note_on channel=9 note=42 velocity=0 time=0
EXTRACT: note_on channel=0 note=57 velocity=0 time=0.03
EXTRACT: note_on channel=0 note=61 velocity=0 time=0
EXTRACT: note_on channel=0 note=64 velocity=0 time=0
EXTRACT: note_on channel=9 note=42 velocity=0 time=0
EXTRACT: note_on channel=5 note=93 velocity=70 time=0.03
EXTRACT: note_on channel=5 note=81 velocity=80 time=0
EXTRACT: note_on channel=9 note=42 velocity=127 time=0
EXTRACT: note_on channel=0 note=45 velocity=0 time=0.06
EXTRACT: note_on channel=3 note=69 velocity=0 time=0.03
EXTRACT: note_on channel=9 note=35 velocity=0 time=0
EXTRACT: note_on channel=0 note=45 velocity=100 time=0.06
EXTRACT: note_on channel=1 note=45 velocity=100 time=0
EXTRACT: note_on channel=3 note=69 velocity=64 time=0
EXTRACT: note_on channel=4 note=45 velocity=100 time=0
EXTRACT: note_on channel=9 note=35 velocity=127 time=0
EXTRACT: note_on channel=9 note=42 velocity=50 time=0
EXTRACT: note_on channel=5 note=93 velocity=0 time=0.09
EXTRACT: note_on channel=5 note=81 velocity=0 time=0
EXTRACT: note_on channel=9 note=42 velocity=0 time=0
EXTRACT: note_on channel=3 note=69 velocity=0 time=0.03
EXTRACT: note_on channel=9 note=42 velocity=0 time=0
EXTRACT: note_on channel=0 note=57 velocity=100 time=0.03
EXTRACT: note_on channel=0 note=61 velocity=100 time=0
EXTRACT: note_on channel=0 note=64 velocity=100 time=0
EXTRACT: note_on channel=2 note=66 velocity=127 time=0
EXTRACT: note_on channel=9 note=35 velocity=127 time=0
EXTRACT: note_on channel=9 note=42 velocity=127 time=0
EXTRACT: note_on channel=0 note=45 velocity=0 time=0.09
EXTRACT: note_on channel=1 note=45 velocity=0 time=0
EXTRACT: note_on channel=4 note=45 velocity=0 time=0
EXTRACT: note_on channel=9 note=35 velocity=0 time=0
EXTRACT: note_on channel=3 note=69 velocity=64 time=0.06
EXTRACT: note_on channel=9 note=42 velocity=50 time=0
EXTRACT: note_on channel=0 note=57 velocity=0 time=0.09
EXTRACT: note_on channel=0 note=61 velocity=0 time=0
EXTRACT: note_on channel=0 note=64 velocity=0 time=0
EXTRACT: note_on channel=2 note=66 velocity=0 time=0
EXTRACT: note_on channel=9 note=35 velocity=0 time=0
EXTRACT: note_on channel=9 note=42 velocity=0 time=0
EXTRACT: note_on channel=9 note=42 velocity=0 time=0.03
EXTRACT: note_on channel=0 note=45 velocity=100 time=0.03
EXTRACT: note_on channel=1 note=45 velocity=100 time=0
EXTRACT: note_on channel=2 note=66 velocity=127 time=0
EXTRACT: note_on channel=3 note=69 velocity=64 time=0
EXTRACT: note_on channel=4 note=45 velocity=100 time=0
EXTRACT: note_on channel=5 note=93 velocity=70 time=0
EXTRACT: note_on channel=5 note=81 velocity=80 time=0
EXTRACT: note_on channel=9 note=38 velocity=127 time=0
EXTRACT: note_on channel=9 note=42 velocity=127 time=0
EXTRACT: note_on channel=3 note=69 velocity=0 time=0.09
EXTRACT: note_on channel=0 note=57 velocity=100 time=0.06
EXTRACT: note_on channel=0 note=61 velocity=100 time=0
EXTRACT: note_on channel=0 note=64 velocity=100 time=0
EXTRACT: note_on channel=9 note=42 velocity=50 time=0
EXTRACT: note_on channel=2 note=66 velocity=0 time=0.09
EXTRACT: note_on channel=3 note=69 velocity=0 time=0
EXTRACT: note_on channel=5 note=93 velocity=0 time=0
EXTRACT: note_on channel=5 note=81 velocity=0 time=0
EXTRACT: note_on channel=9 note=38 velocity=0 time=0
EXTRACT: note_on channel=9 note=42 velocity=0 time=0
EXTRACT: note_on channel=9 note=42 velocity=0 time=0.03
EXTRACT: note_on channel=2 note=66 velocity=127 time=0.03
EXTRACT: note_on channel=9 note=42 velocity=127 time=0
EXTRACT: note_on channel=0 note=57 velocity=0 time=0.09
EXTRACT: note_on channel=0 note=61 velocity=0 time=0
EXTRACT: note_on channel=0 note=64 velocity=0 time=0
EXTRACT: note_on channel=2 note=66 velocity=0 time=0.03
EXTRACT: note_on channel=2 note=66 velocity=127 time=0.03
EXTRACT: note_on channel=9 note=42 velocity=50 time=0
EXTRACT: note_on channel=0 note=45 velocity=0 time=0.03
EXTRACT: note_on channel=1 note=45 velocity=0 time=0
EXTRACT: note_on channel=4 note=45 velocity=0 time=0
EXTRACT: note_on channel=9 note=42 velocity=0 time=0.06
EXTRACT: note_on channel=2 note=66 velocity=0 time=0.03
EXTRACT: note_on channel=9 note=42 velocity=0 time=0
EXTRACT: note_on channel=0 note=42 velocity=100 time=0.03
EXTRACT: note_on channel=1 note=42 velocity=100 time=0
EXTRACT: note_on channel=2 note=66 velocity=127 time=0
EXTRACT: note_on channel=4 note=42 velocity=100 time=0
EXTRACT: note_on channel=5 note=93 velocity=70 time=0
EXTRACT: note_on channel=5 note=81 velocity=80 time=0
EXTRACT: note_on channel=9 note=35 velocity=127 time=0
EXTRACT: note_on channel=9 note=42 velocity=127 time=0
EXTRACT: note_on channel=2 note=66 velocity=0 time=0.12
EXTRACT: note_on channel=9 note=42 velocity=0 time=0
EXTRACT: note_on channel=2 note=66 velocity=127 time=0.03
EXTRACT: note_on channel=9 note=42 velocity=50 time=0
EXTRACT: note_on channel=0 note=42 velocity=0 time=0.09
EXTRACT: note_on channel=1 note=42 velocity=0 time=0
EXTRACT: note_on channel=4 note=42 velocity=0 time=0
EXTRACT: note_on channel=5 note=93 velocity=0 time=0
EXTRACT: note_on channel=5 note=81 velocity=0 time=0
EXTRACT: note_on channel=9 note=35 velocity=0 time=0
EXTRACT: note_on channel=2 note=66 velocity=0 time=0.03
EXTRACT: note_on channel=9 note=42 velocity=0 time=0
EXTRACT: note_on channel=0 note=42 velocity=100 time=0.03
EXTRACT: note_on channel=1 note=42 velocity=100 time=0
EXTRACT: note_on channel=2 note=66 velocity=127 time=0
EXTRACT: note_on channel=3 note=69 velocity=64 time=0
EXTRACT: note_on channel=4 note=42 velocity=100 time=0
EXTRACT: note_on channel=9 note=42 velocity=127 time=0
EXTRACT: note_on channel=3 note=69 velocity=0 time=0.12
EXTRACT: note_on channel=3 note=69 velocity=64 time=0.03
EXTRACT: note_on channel=9 note=42 velocity=50 time=0
EXTRACT: note_on channel=2 note=66 velocity=0 time=0.09
EXTRACT: note_on channel=9 note=42 velocity=0 time=0
EXTRACT: note_on channel=3 note=69 velocity=0 time=0.03
EXTRACT: note_on channel=9 note=42 velocity=0 time=0
EXTRACT: note_on channel=0 note=57 velocity=100 time=0.03
EXTRACT: note_on channel=0 note=62 velocity=100 time=0
EXTRACT: note_on channel=0 note=66 velocity=100 time=0
EXTRACT: note_on channel=2 note=66 velocity=127 time=0
EXTRACT: note_on channel=3 note=69 velocity=64 time=0
EXTRACT: note_on channel=5 note=93 velocity=70 time=0
EXTRACT: note_on channel=5 note=81 velocity=80 time=0
EXTRACT: note_on channel=9 note=38 velocity=127 time=0
EXTRACT: note_on channel=9 note=42 velocity=127 time=0
EXTRACT: note_on channel=9 note=42 velocity=50 time=0.15
EXTRACT: note_on channel=0 note=42 velocity=0 time=0.03
EXTRACT: note_on channel=1 note=42 velocity=0 time=0
EXTRACT: note_on channel=4 note=42 velocity=0 time=0
EXTRACT: note_on channel=0 note=57 velocity=0 time=0.06
EXTRACT: note_on channel=0 note=62 velocity=0 time=0
EXTRACT: note_on channel=0 note=66 velocity=0 time=0
EXTRACT: note_on channel=2 note=66 velocity=0 time=0
EXTRACT: note_on channel=3 note=69 velocity=0 time=0
EXTRACT: note_on channel=5 note=93 velocity=0 time=0
EXTRACT: note_on channel=5 note=81 velocity=0 time=0
EXTRACT: note_on channel=9 note=38 velocity=0 time=0
EXTRACT: note_on channel=9 note=42 velocity=0 time=0
EXTRACT: note_on channel=9 note=42 velocity=0 time=0.03
EXTRACT: note_on channel=0 note=57 velocity=100 time=0.03
EXTRACT: note_on channel=2 note=66 velocity=127 time=0
EXTRACT: note_on channel=3 note=69 velocity=64 time=0
EXTRACT: note_on channel=9 note=42 velocity=127 time=0
EXTRACT: note_on channel=2 note=66 velocity=0 time=0.12
EXTRACT: note_on channel=3 note=69 velocity=0 time=0
EXTRACT: note_on channel=0 note=67 velocity=100 time=0.03
EXTRACT: note_on channel=0 note=59 velocity=100 time=0
EXTRACT: note_on channel=0 note=62 velocity=100 time=0
EXTRACT: note_on channel=2 note=69 velocity=127 time=0
EXTRACT: note_on channel=3 note=69 velocity=64 time=0
EXTRACT: note_on channel=9 note=35 velocity=127 time=0
EXTRACT: note_on channel=9 note=42 velocity=50 time=0
EXTRACT: note_on channel=0 note=57 velocity=0 time=0.09
EXTRACT: note_on channel=9 note=42 velocity=0 time=0
EXTRACT: note_on channel=0 note=67 velocity=0 time=0.03
EXTRACT: note_on channel=0 note=59 velocity=0 time=0
EXTRACT: note_on channel=0 note=62 velocity=0 time=0
EXTRACT: note_on channel=9 note=42 velocity=0 time=0
EXTRACT: note_on channel=5 note=93 velocity=70 time=0.03
EXTRACT: note_on channel=5 note=81 velocity=80 time=0
EXTRACT: note_on channel=9 note=42 velocity=127 time=0
EXTRACT: note_on channel=2 note=69 velocity=0 time=0.09
EXTRACT: note_on channel=3 note=69 velocity=0 time=0
EXTRACT: note_on channel=9 note=35 velocity=0 time=0
EXTRACT: note_on channel=0 note=43 velocity=100 time=0.06
EXTRACT: note_on channel=1 note=43 velocity=100 time=0
EXTRACT: note_on channel=3 note=69 velocity=64 time=0
EXTRACT: note_on channel=4 note=43 velocity=100 time=0
EXTRACT: note_on channel=9 note=35 velocity=127 time=0
EXTRACT: note_on channel=9 note=42 velocity=50 time=0
EXTRACT: note_on channel=5 note=93 velocity=0 time=0.09
EXTRACT: note_on channel=5 note=81 velocity=0 time=0
EXTRACT: note_on channel=9 note=42 velocity=0 time=0
EXTRACT: note_on channel=3 note=69 velocity=0 time=0.03
EXTRACT: note_on channel=9 note=42 velocity=0 time=0
EXTRACT: note_on channel=0 note=67 velocity=100 time=0.03
EXTRACT: note_on channel=0 note=59 velocity=100 time=0
EXTRACT: note_on channel=0 note=62 velocity=100 time=0
EXTRACT: note_on channel=2 note=54 velocity=100 time=0
EXTRACT: note_on channel=2 note=62 velocity=100 time=0
EXTRACT: note_on channel=2 note=66 velocity=127 time=0
EXTRACT: note_on channel=9 note=35 velocity=127 time=0
EXTRACT: note_on channel=9 note=42 velocity=127 time=0
EXTRACT: note_on channel=0 note=43 velocity=0 time=0.09
EXTRACT: note_on channel=1 note=43 velocity=0 time=0
EXTRACT: note_on channel=4 note=43 velocity=0 time=0
EXTRACT: note_on channel=9 note=35 velocity=0 time=0
EXTRACT: note_on channel=3 note=69 velocity=64 time=0.06
EXTRACT: note_on channel=9 note=42 velocity=50 time=0
EXTRACT: note_on channel=0 note=67 velocity=0 time=0.09
EXTRACT: note_on channel=0 note=59 velocity=0 time=0
EXTRACT: note_on channel=0 note=62 velocity=0 time=0
EXTRACT: note_on channel=2 note=54 velocity=0 time=0
EXTRACT: note_on channel=2 note=62 velocity=0 time=0
EXTRACT: note_on channel=2 note=66 velocity=0 time=0
EXTRACT: note_on channel=9 note=35 velocity=0 time=0
EXTRACT: note_on channel=9 note=42 velocity=0 time=0
EXTRACT: note_on channel=9 note=42 velocity=0 time=0.03
EXTRACT: note_on channel=0 note=43 velocity=100 time=0.03
EXTRACT: note_on channel=1 note=43 velocity=100 time=0
EXTRACT: note_on channel=2 note=57 velocity=100 time=0
EXTRACT: note_on channel=2 note=66 velocity=100 time=0
EXTRACT: note_on channel=2 note=69 velocity=127 time=0
EXTRACT: note_on channel=3 note=69 velocity=64 time=0
EXTRACT: note_on channel=4 note=43 velocity=100 time=0
EXTRACT: note_on channel=5 note=93 velocity=70 time=0
EXTRACT: note_on channel=5 note=81 velocity=80 time=0
EXTRACT: note_on channel=9 note=38 velocity=127 time=0
EXTRACT: note_on channel=9 note=42 velocity=127 time=0
EXTRACT: note_on channel=3 note=69 velocity=0 time=0.09
EXTRACT: note_on channel=0 note=67 velocity=100 time=0.06
EXTRACT: note_on channel=0 note=59 velocity=100 time=0
EXTRACT: note_on channel=0 note=62 velocity=100 time=0
EXTRACT: note_on channel=9 note=42 velocity=50 time=0
EXTRACT: note_on channel=2 note=57 velocity=0 time=0.09
EXTRACT: note_on channel=2 note=66 velocity=0 time=0
EXTRACT: note_on channel=2 note=69 velocity=0 time=0
EXTRACT: note_on channel=3 note=69 velocity=0 time=0
EXTRACT: note_on channel=5 note=93 velocity=0 time=0
EXTRACT: note_on channel=5 note=81 velocity=0 time=0
EXTRACT: note_on channel=9 note=38 velocity=0 time=0
EXTRACT: note_on channel=9 note=42 velocity=0 time=0
EXTRACT: note_on channel=9 note=42 velocity=0 time=0.03
EXTRACT: note_on channel=2 note=54 velocity=100 time=0.03
EXTRACT: note_on channel=2 note=62 velocity=100 time=0
EXTRACT: note_on channel=2 note=66 velocity=127 time=0
EXTRACT: note_on channel=9 note=42 velocity=127 time=0
EXTRACT: note_on channel=0 note=67 velocity=0 time=0.09
EXTRACT: note_on channel=0 note=59 velocity=0 time=0
EXTRACT: note_on channel=0 note=62 velocity=0 time=0
EXTRACT: note_on channel=9 note=42 velocity=50 time=0.06
EXTRACT: note_on channel=0 note=43 velocity=0 time=0.03
EXTRACT: note_on channel=1 note=43 velocity=0 time=0
EXTRACT: note_on channel=4 note=43 velocity=0 time=0
EXTRACT: note_on channel=2 note=54 velocity=0 time=0.06
EXTRACT: note_on channel=2 note=62 velocity=0 time=0
EXTRACT: note_on channel=2 note=66 velocity=0 time=0
EXTRACT: note_on channel=9 note=42 velocity=0 time=0
EXTRACT: note_on channel=9 note=42 velocity=0 time=0.03
EXTRACT: note_on channel=0 note=45 velocity=100 time=0.03
EXTRACT: note_on channel=1 note=45 velocity=100 time=0
EXTRACT: note_on channel=2 note=61 velocity=100 time=0
EXTRACT: note_on channel=2 note=69 velocity=100 time=0
EXTRACT: note_on channel=2 note=73 velocity=127 time=0
EXTRACT: note_on channel=4 note=45 velocity=100 time=0
EXTRACT: note_on channel=5 note=93 velocity=70 time=0
EXTRACT: note_on channel=5 note=81 velocity=80 time=0
EXTRACT: note_on channel=9 note=35 velocity=127 time=0
EXTRACT: note_on channel=9 note=42 velocity=127 time=0
EXTRACT: note_on channel=9 note=42 velocity=0 time=0.12
EXTRACT: note_on channel=9 note=42 velocity=50 time=0.03
EXTRACT: note_on channel=0 note=45 velocity=0 time=0.09
EXTRACT: note_on channel=1 note=45 velocity=0 time=0
EXTRACT: note_on channel=2 note=61 velocity=0 time=0
EXTRACT: note_on channel=2 note=69 velocity=0 time=0
EXTRACT: note_on channel=2 note=73 velocity=0 time=0
EXTRACT: note_on channel=4 note=45 velocity=0 time=0
EXTRACT: note_on channel=5 note=93 velocity=0 time=0
EXTRACT: note_on channel=5 note=81 velocity=0 time=0
EXTRACT: note_on channel=9 note=35 velocity=0 time=0
EXTRACT: note_on channel=9 note=42 velocity=0 time=0.03
EXTRACT: note_on channel=0 note=45 velocity=100 time=0.03
EXTRACT: note_on channel=1 note=45 velocity=100 time=0
EXTRACT: note_on channel=2 note=61 velocity=100 time=0
EXTRACT: note_on channel=2 note=69 velocity=100 time=0
EXTRACT: note_on channel=2 note=73 velocity=127 time=0
EXTRACT: note_on channel=3 note=69 velocity=64 time=0
EXTRACT: note_on channel=4 note=45 velocity=100 time=0
EXTRACT: note_on channel=9 note=42 velocity=127 time=0
EXTRACT: note_on channel=3 note=69 velocity=0 time=0.12
EXTRACT: note_on channel=3 note=69 velocity=64 time=0.03
EXTRACT: note_on channel=9 note=42 velocity=50 time=0
EXTRACT: note_on channel=2 note=61 velocity=0 time=0.09
EXTRACT: note_on channel=2 note=69 velocity=0 time=0
EXTRACT: note_on channel=2 note=73 velocity=0 time=0
EXTRACT: note_on channel=9 note=42 velocity=0 time=0
EXTRACT: note_on channel=3 note=69 velocity=0 time=0.03
EXTRACT: note_on channel=9 note=42 velocity=0 time=0
EXTRACT: note_on channel=0 note=57 velocity=100 time=0.03
EXTRACT: note_on channel=0 note=62 velocity=100 time=0
EXTRACT: note_on channel=0 note=66 velocity=100 time=0
EXTRACT: note_on channel=3 note=69 velocity=64 time=0
EXTRACT: note_on channel=5 note=93 velocity=70 time=0
EXTRACT: note_on channel=5 note=81 velocity=80 time=0
EXTRACT: note_on channel=9 note=38 velocity=127 time=0
EXTRACT: note_on channel=9 note=42 velocity=127 time=0
EXTRACT: note_on channel=9 note=42 velocity=50 time=0.15
EXTRACT: note_on channel=1 note=45 velocity=0 time=0.03
EXTRACT: note_on channel=4 note=45 velocity=0 time=0
EXTRACT: note_on channel=0 note=57 velocity=0 time=0.06
EXTRACT: note_on channel=0 note=62 velocity=0 time=0
EXTRACT: note_on channel=0 note=66 velocity=0 time=0
EXTRACT: note_on channel=3 note=69 velocity=0 time=0
EXTRACT: note_on channel=5 note=93 velocity=0 time=0
EXTRACT: note_on channel=5 note=81 velocity=0 time=0
EXTRACT: note_on channel=9 note=38 velocity=0 time=0
EXTRACT: note_on channel=9 note=42 velocity=0 time=0
EXTRACT: note_on channel=9 note=42 velocity=0 time=0.03
EXTRACT: note_on channel=0 note=57 velocity=100 time=0.03
EXTRACT: note_on channel=3 note=69 velocity=64 time=0
EXTRACT: note_on channel=9 note=42 velocity=127 time=0
EXTRACT: note_on channel=3 note=69 velocity=0 time=0.12
EXTRACT: note_on channel=0 note=57 velocity=100 time=0.03
EXTRACT: note_on channel=0 note=61 velocity=100 time=0
EXTRACT: note_on channel=0 note=64 velocity=100 time=0
EXTRACT: note_on channel=3 note=69 velocity=64 time=0
EXTRACT: note_on channel=9 note=35 velocity=127 time=0
EXTRACT: note_on channel=9 note=42 velocity=50 time=0
EXTRACT: note_on channel=0 note=57 velocity=0 time=0.09
EXTRACT: note_on channel=9 note=42 velocity=0 time=0
EXTRACT: note_on channel=0 note=57 velocity=0 time=0.03
EXTRACT: note_on channel=0 note=61 velocity=0 time=0
EXTRACT: note_on channel=0 note=64 velocity=0 time=0
EXTRACT: note_on channel=9 note=42 velocity=0 time=0
EXTRACT: note_on channel=5 note=93 velocity=70 time=0.03
EXTRACT: note_on channel=5 note=81 velocity=80 time=0
EXTRACT: note_on channel=9 note=42 velocity=127 time=0
EXTRACT: note_on channel=0 note=45 velocity=0 time=0.06
EXTRACT: note_on channel=3 note=69 velocity=0 time=0.03
EXTRACT: note_on channel=9 note=35 velocity=0 time=0
EXTRACT: note_on channel=0 note=45 velocity=100 time=0.06
EXTRACT: note_on channel=1 note=45 velocity=100 time=0
EXTRACT: note_on channel=3 note=69 velocity=64 time=0
EXTRACT: note_on channel=4 note=45 velocity=100 time=0
EXTRACT: note_on channel=9 note=35 velocity=127 time=0
EXTRACT: note_on channel=9 note=42 velocity=50 time=0
EXTRACT: note_on channel=5 note=93 velocity=0 time=0.09
EXTRACT: note_on channel=5 note=81 velocity=0 time=0
EXTRACT: note_on channel=9 note=42 velocity=0 time=0
EXTRACT: note_on channel=3 note=69 velocity=0 time=0.03
EXTRACT: note_on channel=9 note=42 velocity=0 time=0
EXTRACT: note_on channel=0 note=57 velocity=100 time=0.03
EXTRACT: note_on channel=0 note=61 velocity=100 time=0
EXTRACT: note_on channel=0 note=64 velocity=100 time=0
EXTRACT: note_on channel=2 note=66 velocity=127 time=0
EXTRACT: note_on channel=9 note=35 velocity=127 time=0
EXTRACT: note_on channel=9 note=42 velocity=127 time=0
EXTRACT: note_on channel=0 note=45 velocity=0 time=0.09
EXTRACT: note_on channel=1 note=45 velocity=0 time=0
EXTRACT: note_on channel=4 note=45 velocity=0 time=0
EXTRACT: note_on channel=9 note=35 velocity=0 time=0
EXTRACT: note_on channel=3 note=69 velocity=64 time=0.06
EXTRACT: note_on channel=9 note=42 velocity=50 time=0
EXTRACT: note_on channel=0 note=57 velocity=0 time=0.09
EXTRACT: note_on channel=0 note=61 velocity=0 time=0
EXTRACT: note_on channel=0 note=64 velocity=0 time=0
EXTRACT: note_on channel=2 note=66 velocity=0 time=0
EXTRACT: note_on channel=9 note=35 velocity=0 time=0
EXTRACT: note_on channel=9 note=42 velocity=0 time=0
EXTRACT: note_on channel=9 note=42 velocity=0 time=0.03
EXTRACT: note_on channel=0 note=45 velocity=100 time=0.03
EXTRACT: note_on channel=1 note=45 velocity=100 time=0
EXTRACT: note_on channel=2 note=69 velocity=127 time=0
EXTRACT: note_on channel=3 note=69 velocity=64 time=0
EXTRACT: note_on channel=4 note=45 velocity=100 time=0
EXTRACT: note_on channel=5 note=93 velocity=70 time=0
EXTRACT: note_on channel=5 note=81 velocity=80 time=0
EXTRACT: note_on channel=9 note=38 velocity=127 time=0
EXTRACT: note_on channel=9 note=42 velocity=127 time=0
EXTRACT: note_on channel=3 note=69 velocity=0 time=0.09
EXTRACT: note_on channel=0 note=57 velocity=100 time=0.06
EXTRACT: note_on channel=0 note=61 velocity=100 time=0
EXTRACT: note_on channel=0 note=64 velocity=100 time=0
EXTRACT: note_on channel=9 note=42 velocity=50 time=0
EXTRACT: note_on channel=2 note=69 velocity=0 time=0.09
EXTRACT: note_on channel=3 note=69 velocity=0 time=0
EXTRACT: note_on channel=5 note=93 velocity=0 time=0
EXTRACT: note_on channel=5 note=81 velocity=0 time=0
EXTRACT: note_on channel=9 note=38 velocity=0 time=0
EXTRACT: note_on channel=9 note=42 velocity=0 time=0
EXTRACT: note_on channel=9 note=42 velocity=0 time=0.03
EXTRACT: note_on channel=2 note=69 velocity=127 time=0.03
EXTRACT: note_on channel=9 note=42 velocity=127 time=0
EXTRACT: note_on channel=0 note=57 velocity=0 time=0.09
EXTRACT: note_on channel=0 note=61 velocity=0 time=0
EXTRACT: note_on channel=0 note=64 velocity=0 time=0
EXTRACT: note_on channel=9 note=42 velocity=50 time=0.06
EXTRACT: note_on channel=0 note=45 velocity=0 time=0.03
EXTRACT: note_on channel=1 note=45 velocity=0 time=0
EXTRACT: note_on channel=4 note=45 velocity=0 time=0
EXTRACT: note_on channel=2 note=69 velocity=0 time=0.06
EXTRACT: note_on channel=9 note=42 velocity=0 time=0
EXTRACT: note_on channel=9 note=42 velocity=0 time=0.03
EXTRACT: note_on channel=0 note=42 velocity=100 time=0.03
EXTRACT: note_on channel=1 note=42 velocity=100 time=0
EXTRACT: note_on channel=2 note=76 velocity=127 time=0
EXTRACT: note_on channel=4 note=42 velocity=100 time=0
EXTRACT: note_on channel=5 note=93 velocity=70 time=0
EXTRACT: note_on channel=5 note=81 velocity=80 time=0
EXTRACT: note_on channel=9 note=35 velocity=127 time=0
EXTRACT: note_on channel=9 note=42 velocity=127 time=0
EXTRACT: note_on channel=9 note=42 velocity=0 time=0.12
EXTRACT: note_on channel=9 note=42 velocity=50 time=0.03
EXTRACT: note_on channel=0 note=42 velocity=0 time=0.09
EXTRACT: note_on channel=1 note=42 velocity=0 time=0
EXTRACT: note_on channel=2 note=76 velocity=0 time=0
EXTRACT: note_on channel=4 note=42 velocity=0 time=0
EXTRACT: note_on channel=5 note=93 velocity=0 time=0
EXTRACT: note_on channel=5 note=81 velocity=0 time=0
EXTRACT: note_on channel=9 note=35 velocity=0 time=0
EXTRACT: note_on channel=9 note=42 velocity=0 time=0.03
EXTRACT: note_on channel=0 note=42 velocity=100 time=0.03
EXTRACT: note_on channel=1 note=42 velocity=100 time=0
EXTRACT: note_on channel=3 note=69 velocity=64 time=0
EXTRACT: note_on channel=4 note=42 velocity=100 time=0
EXTRACT: note_on channel=9 note=42 velocity=127 time=0
EXTRACT: note_on channel=3 note=69 velocity=0 time=0.12
EXTRACT: note_on channel=3 note=69 velocity=64 time=0.03
EXTRACT: note_on channel=9 note=42 velocity=50 time=0
EXTRACT: note_on channel=9 note=42 velocity=0 time=0.09
EXTRACT: note_on channel=3 note=69 velocity=0 time=0.03
EXTRACT: note_on channel=9 note=42 velocity=0 time=0
EXTRACT: note_on channel=0 note=57 velocity=100 time=0.03
EXTRACT: note_on channel=0 note=62 velocity=100 time=0
EXTRACT: note_on channel=0 note=66 velocity=100 time=0
EXTRACT: note_on channel=2 note=74 velocity=127 time=0
EXTRACT: note_on channel=3 note=69 velocity=64 time=0
EXTRACT: note_on channel=5 note=93 velocity=70 time=0
EXTRACT: note_on channel=5 note=81 velocity=80 time=0
EXTRACT: note_on channel=9 note=38 velocity=127 time=0
EXTRACT: note_on channel=9 note=42 velocity=127 time=0
EXTRACT: note_on channel=9 note=42 velocity=50 time=0.15
EXTRACT: note_on channel=0 note=42 velocity=0 time=0.03
EXTRACT: note_on channel=1 note=42 velocity=0 time=0
EXTRACT: note_on channel=4 note=42 velocity=0 time=0
EXTRACT: note_on channel=0 note=57 velocity=0 time=0.06
EXTRACT: note_on channel=0 note=62 velocity=0 time=0
EXTRACT: note_on channel=0 note=66 velocity=0 time=0
EXTRACT: note_on channel=2 note=74 velocity=0 time=0
EXTRACT: note_on channel=3 note=69 velocity=0 time=0
EXTRACT: note_on channel=5 note=93 velocity=0 time=0
EXTRACT: note_on channel=5 note=81 velocity=0 time=0
EXTRACT: note_on channel=9 note=38 velocity=0 time=0
EXTRACT: note_on channel=9 note=42 velocity=0 time=0
EXTRACT: note_on channel=9 note=42 velocity=0 time=0.03
EXTRACT: note_on channel=0 note=57 velocity=100 time=0.03
EXTRACT: note_on channel=3 note=69 velocity=64 time=0
EXTRACT: note_on channel=9 note=42 velocity=127 time=0
EXTRACT: note_on channel=3 note=69 velocity=0 time=0.12
EXTRACT: note_on channel=0 note=67 velocity=100 time=0.03
EXTRACT: note_on channel=0 note=59 velocity=100 time=0
EXTRACT: note_on channel=0 note=62 velocity=100 time=0
EXTRACT: note_on channel=3 note=69 velocity=64 time=0
EXTRACT: note_on channel=9 note=35 velocity=127 time=0
EXTRACT: note_on channel=9 note=42 velocity=50 time=0
EXTRACT: note_on channel=0 note=57 velocity=0 time=0.09
EXTRACT: note_on channel=9 note=42 velocity=0 time=0
EXTRACT: note_on channel=0 note=67 velocity=0 time=0.03
EXTRACT: note_on channel=0 note=59 velocity=0 time=0
EXTRACT: note_on channel=0 note=62 velocity=0 time=0
EXTRACT: note_on channel=9 note=42 velocity=0 time=0
EXTRACT: note_on channel=2 note=57 velocity=100 time=0.03
EXTRACT: note_on channel=2 note=66 velocity=100 time=0
EXTRACT: note_on channel=2 note=69 velocity=127 time=0
EXTRACT: note_on channel=5 note=93 velocity=70 time=0
EXTRACT: note_on channel=5 note=81 velocity=80 time=0
EXTRACT: note_on channel=9 note=42 velocity=127 time=0
EXTRACT: note_on channel=3 note=69 velocity=0 time=0.09
EXTRACT: note_on channel=9 note=35 velocity=0 time=0
EXTRACT: note_on channel=0 note=43 velocity=100 time=0.06
EXTRACT: note_on channel=1 note=43 velocity=100 time=0
EXTRACT: note_on channel=3 note=69 velocity=64 time=0
EXTRACT: note_on channel=4 note=43 velocity=100 time=0
EXTRACT: note_on channel=9 note=35 velocity=127 time=0
EXTRACT: note_on channel=9 note=42 velocity=50 time=0
EXTRACT: note_on channel=2 note=57 velocity=0 time=0.09
EXTRACT: note_on channel=2 note=66 velocity=0 time=0
EXTRACT: note_on channel=2 note=69 velocity=0 time=0
EXTRACT: note_on channel=5 note=93 velocity=0 time=0
EXTRACT: note_on channel=5 note=81 velocity=0 time=0
EXTRACT: note_on channel=9 note=42 velocity=0 time=0
EXTRACT: note_on channel=3 note=69 velocity=0 time=0.03
EXTRACT: note_on channel=9 note=42 velocity=0 time=0
EXTRACT: note_on channel=0 note=67 velocity=100 time=0.03
EXTRACT: note_on channel=0 note=59 velocity=100 time=0
EXTRACT: note_on channel=0 note=62 velocity=100 time=0
EXTRACT: note_on channel=2 note=57 velocity=100 time=0
EXTRACT: note_on channel=2 note=66 velocity=100 time=0
EXTRACT: note_on channel=2 note=69 velocity=127 time=0
EXTRACT: note_on channel=9 note=35 velocity=127 time=0
EXTRACT: note_on channel=9 note=42 velocity=127 time=0
EXTRACT: note_on channel=0 note=43 velocity=0 time=0.09
EXTRACT: note_on channel=1 note=43 velocity=0 time=0
EXTRACT: note_on channel=4 note=43 velocity=0 time=0
EXTRACT: note_on channel=9 note=35 velocity=0 time=0
EXTRACT: note_on channel=3 note=69 velocity=64 time=0.06
EXTRACT: note_on channel=9 note=42 velocity=50 time=0
EXTRACT: note_on channel=0 note=67 velocity=0 time=0.09
EXTRACT: note_on channel=0 note=59 velocity=0 time=0
EXTRACT: note_on channel=0 note=62 velocity=0 time=0
EXTRACT: note_on channel=2 note=57 velocity=0 time=0
EXTRACT: note_on channel=2 note=66 velocity=0 time=0
EXTRACT: note_on channel=2 note=69 velocity=0 time=0
EXTRACT: note_on channel=9 note=35 velocity=0 time=0
EXTRACT: note_on channel=9 note=42 velocity=0 time=0
EXTRACT: note_on channel=9 note=42 velocity=0 time=0.03
EXTRACT: note_on channel=0 note=43 velocity=100 time=0.03
EXTRACT: note_on channel=1 note=43 velocity=100 time=0
EXTRACT: note_on channel=2 note=57 velocity=100 time=0
EXTRACT: note_on channel=2 note=66 velocity=100 time=0
EXTRACT: note_on channel=2 note=69 velocity=127 time=0
EXTRACT: note_on channel=3 note=69 velocity=64 time=0
EXTRACT: note_on channel=4 note=43 velocity=100 time=0
EXTRACT: note_on channel=5 note=93 velocity=70 time=0
EXTRACT: note_on channel=5 note=81 velocity=80 time=0
EXTRACT: note_on channel=9 note=38 velocity=127 time=0
EXTRACT: note_on channel=9 note=42 velocity=127 time=0
EXTRACT: note_on channel=3 note=69 velocity=0 time=0.09
EXTRACT: note_on channel=0 note=67 velocity=100 time=0.06
EXTRACT: note_on channel=0 note=59 velocity=100 time=0
EXTRACT: note_on channel=0 note=62 velocity=100 time=0
EXTRACT: note_on channel=9 note=42 velocity=50 time=0
EXTRACT: note_on channel=2 note=57 velocity=0 time=0.09
EXTRACT: note_on channel=2 note=66 velocity=0 time=0
EXTRACT: note_on channel=2 note=69 velocity=0 time=0
EXTRACT: note_on channel=3 note=69 velocity=0 time=0
EXTRACT: note_on channel=5 note=93 velocity=0 time=0
EXTRACT: note_on channel=5 note=81 velocity=0 time=0
EXTRACT: note_on channel=9 note=38 velocity=0 time=0
EXTRACT: note_on channel=9 note=42 velocity=0 time=0
EXTRACT: note_on channel=9 note=42 velocity=0 time=0.03
EXTRACT: note_on channel=2 note=54 velocity=100 time=0.03
EXTRACT: note_on channel=2 note=62 velocity=100 time=0
EXTRACT: note_on channel=2 note=66 velocity=127 time=0
EXTRACT: note_on channel=9 note=42 velocity=127 time=0
EXTRACT: note_on channel=0 note=67 velocity=0 time=0.09
EXTRACT: note_on channel=0 note=59 velocity=0 time=0
EXTRACT: note_on channel=0 note=62 velocity=0 time=0
EXTRACT: note_on channel=9 note=42 velocity=50 time=0.06
EXTRACT: note_on channel=0 note=43 velocity=0 time=0.03
EXTRACT: note_on channel=1 note=43 velocity=0 time=0
EXTRACT: note_on channel=4 note=43 velocity=0 time=0
EXTRACT: note_on channel=2 note=54 velocity=0 time=0.06
EXTRACT: note_on channel=2 note=62 velocity=0 time=0
EXTRACT: note_on channel=2 note=66 velocity=0 time=0
EXTRACT: note_on channel=9 note=42 velocity=0 time=0
EXTRACT: note_on channel=9 note=42 velocity=0 time=0.03
EXTRACT: note_on channel=0 note=45 velocity=100 time=0.03
EXTRACT: note_on channel=1 note=45 velocity=100 time=0
EXTRACT: note_on channel=2 note=66 velocity=100 time=0
EXTRACT: note_on channel=2 note=57 velocity=100 time=0
EXTRACT: note_on channel=2 note=69 velocity=127 time=0
EXTRACT: note_on channel=4 note=45 velocity=100 time=0
EXTRACT: note_on channel=5 note=93 velocity=70 time=0
EXTRACT: note_on channel=5 note=81 velocity=80 time=0
EXTRACT: note_on channel=9 note=35 velocity=127 time=0
EXTRACT: note_on channel=9 note=42 velocity=127 time=0
EXTRACT: note_on channel=9 note=35 velocity=127 time=0
EXTRACT: note_on channel=9 note=42 velocity=127 time=0
EXTRACT: note_on channel=9 note=42 velocity=0 time=0.12
EXTRACT: note_on channel=9 note=42 velocity=0 time=0
EXTRACT: note_on channel=9 note=42 velocity=50 time=0.03
EXTRACT: note_on channel=9 note=42 velocity=50 time=0
EXTRACT: note_on channel=0 note=45 velocity=0 time=0.09
EXTRACT: note_on channel=1 note=45 velocity=0 time=0
EXTRACT: note_on channel=2 note=66 velocity=0 time=0
EXTRACT: note_on channel=2 note=57 velocity=0 time=0
EXTRACT: note_on channel=2 note=69 velocity=0 time=0
EXTRACT: note_on channel=4 note=45 velocity=0 time=0
EXTRACT: note_on channel=5 note=93 velocity=0 time=0
EXTRACT: note_on channel=5 note=81 velocity=0 time=0
EXTRACT: note_on channel=9 note=35 velocity=0 time=0
EXTRACT: note_on channel=9 note=35 velocity=0 time=0
EXTRACT: note_on channel=9 note=42 velocity=0 time=0.03
EXTRACT: note_on channel=9 note=42 velocity=0 time=0
EXTRACT: note_on channel=0 note=45 velocity=100 time=0.03
EXTRACT: note_on channel=1 note=45 velocity=100 time=0
EXTRACT: note_on channel=2 note=62 velocity=100 time=0
EXTRACT: note_on channel=2 note=54 velocity=100 time=0
EXTRACT: note_on channel=2 note=66 velocity=127 time=0
EXTRACT: note_on channel=3 note=69 velocity=64 time=0
EXTRACT: note_on channel=4 note=45 velocity=100 time=0
EXTRACT: note_on channel=9 note=42 velocity=127 time=0
EXTRACT: note_on channel=9 note=42 velocity=127 time=0
EXTRACT: note_on channel=3 note=69 velocity=0 time=0.12
EXTRACT: note_on channel=3 note=69 velocity=64 time=0.03
EXTRACT: note_on channel=9 note=42 velocity=50 time=0
EXTRACT: note_on channel=9 note=42 velocity=50 time=0
EXTRACT: note_on channel=2 note=62 velocity=0 time=0.09
EXTRACT: note_on channel=2 note=54 velocity=0 time=0
EXTRACT: note_on channel=2 note=66 velocity=0 time=0
EXTRACT: note_on channel=9 note=42 velocity=0 time=0
EXTRACT: note_on channel=9 note=42 velocity=0 time=0
EXTRACT: note_on channel=3 note=69 velocity=0 time=0.03
EXTRACT: note_on channel=9 note=42 velocity=0 time=0
EXTRACT: note_on channel=9 note=42 velocity=0 time=0
EXTRACT: note_on channel=0 note=57 velocity=100 time=0.03
EXTRACT: note_on channel=0 note=62 velocity=100 time=0
EXTRACT: note_on channel=0 note=66 velocity=100 time=0
EXTRACT: note_on channel=3 note=69 velocity=64 time=0
EXTRACT: note_on channel=5 note=93 velocity=70 time=0
EXTRACT: note_on channel=5 note=81 velocity=80 time=0
EXTRACT: note_on channel=9 note=38 velocity=127 time=0
EXTRACT: note_on channel=9 note=42 velocity=127 time=0
EXTRACT: note_on channel=9 note=38 velocity=127 time=0
EXTRACT: note_on channel=9 note=42 velocity=127 time=0
EXTRACT: note_on channel=9 note=42 velocity=50 time=0.15
EXTRACT: note_on channel=9 note=42 velocity=50 time=0
EXTRACT: note_on channel=1 note=45 velocity=0 time=0.03
EXTRACT: note_on channel=4 note=45 velocity=0 time=0
EXTRACT: note_on channel=0 note=57 velocity=0 time=0.06
EXTRACT: note_on channel=0 note=62 velocity=0 time=0
EXTRACT: note_on channel=0 note=66 velocity=0 time=0
EXTRACT: note_on channel=3 note=69 velocity=0 time=0
EXTRACT: note_on channel=5 note=93 velocity=0 time=0
EXTRACT: note_on channel=5 note=81 velocity=0 time=0
EXTRACT: note_on channel=9 note=38 velocity=0 time=0
EXTRACT: note_on channel=9 note=42 velocity=0 time=0
EXTRACT: note_on channel=9 note=38 velocity=0 time=0
EXTRACT: note_on channel=9 note=42 velocity=0 time=0
EXTRACT: note_on channel=9 note=42 velocity=0 time=0.03
EXTRACT: note_on channel=9 note=42 velocity=0 time=0
EXTRACT: note_on channel=0 note=57 velocity=100 time=0.03
EXTRACT: note_on channel=3 note=69 velocity=64 time=0
EXTRACT: note_on channel=9 note=42 velocity=127 time=0
EXTRACT: note_on channel=9 note=42 velocity=127 time=0
EXTRACT: note_on channel=3 note=69 velocity=0 time=0.12
EXTRACT: note_on channel=0 note=57 velocity=100 time=0.03
EXTRACT: note_on channel=0 note=61 velocity=100 time=0
EXTRACT: note_on channel=0 note=64 velocity=100 time=0
EXTRACT: note_on channel=3 note=69 velocity=64 time=0
EXTRACT: note_on channel=9 note=35 velocity=127 time=0
EXTRACT: note_on channel=9 note=42 velocity=50 time=0
EXTRACT: note_on channel=9 note=35 velocity=127 time=0
EXTRACT: note_on channel=9 note=42 velocity=50 time=0
EXTRACT: note_on channel=0 note=57 velocity=0 time=0.09
EXTRACT: note_on channel=9 note=42 velocity=0 time=0
EXTRACT: note_on channel=9 note=42 velocity=0 time=0
EXTRACT: note_on channel=0 note=57 velocity=0 time=0.03
EXTRACT: note_on channel=0 note=61 velocity=0 time=0
EXTRACT: note_on channel=0 note=64 velocity=0 time=0
EXTRACT: note_on channel=9 note=42 velocity=0 time=0
EXTRACT: note_on channel=9 note=42 velocity=0 time=0
EXTRACT: note_on channel=5 note=93 velocity=70 time=0.03
EXTRACT: note_on channel=5 note=81 velocity=80 time=0
EXTRACT: note_on channel=9 note=42 velocity=127 time=0
EXTRACT: note_on channel=9 note=42 velocity=127 time=0
EXTRACT: note_on channel=0 note=45 velocity=0 time=0.06
EXTRACT: note_on channel=3 note=69 velocity=0 time=0.03
EXTRACT: note_on channel=9 note=35 velocity=0 time=0
EXTRACT: note_on channel=9 note=35 velocity=0 time=0
EXTRACT: note_on channel=0 note=45 velocity=100 time=0.06
EXTRACT: note_on channel=1 note=45 velocity=100 time=0
EXTRACT: note_on channel=3 note=69 velocity=64 time=0
EXTRACT: note_on channel=4 note=45 velocity=100 time=0
EXTRACT: note_on channel=9 note=35 velocity=127 time=0
EXTRACT: note_on channel=9 note=42 velocity=50 time=0
EXTRACT: note_on channel=9 note=35 velocity=127 time=0
EXTRACT: note_on channel=9 note=42 velocity=50 time=0
EXTRACT: note_on channel=5 note=93 velocity=0 time=0.09
EXTRACT: note_on channel=5 note=81 velocity=0 time=0
EXTRACT: note_on channel=9 note=42 velocity=0 time=0
EXTRACT: note_on channel=9 note=42 velocity=0 time=0
EXTRACT: note_on channel=3 note=69 velocity=0 time=0.03
EXTRACT: note_on channel=9 note=42 velocity=0 time=0
EXTRACT: note_on channel=9 note=42 velocity=0 time=0
EXTRACT: note_on channel=0 note=57 velocity=100 time=0.03
EXTRACT: note_on channel=0 note=61 velocity=100 time=0
EXTRACT: note_on channel=0 note=64 velocity=100 time=0
EXTRACT: note_on channel=2 note=66 velocity=127 time=0
EXTRACT: note_on channel=9 note=35 velocity=127 time=0
EXTRACT: note_on channel=9 note=42 velocity=127 time=0
EXTRACT: note_on channel=9 note=35 velocity=127 time=0
EXTRACT: note_on channel=9 note=42 velocity=127 time=0
EXTRACT: note_on channel=0 note=45 velocity=0 time=0.09
EXTRACT: note_on channel=1 note=45 velocity=0 time=0
EXTRACT: note_on channel=4 note=45 velocity=0 time=0
EXTRACT: note_on channel=9 note=35 velocity=0 time=0
EXTRACT: note_on channel=9 note=35 velocity=0 time=0
EXTRACT: note_on channel=3 note=69 velocity=64 time=0.06
EXTRACT: note_on channel=9 note=42 velocity=50 time=0
EXTRACT: note_on channel=9 note=42 velocity=50 time=0
EXTRACT: note_on channel=0 note=57 velocity=0 time=0.09
EXTRACT: note_on channel=0 note=61 velocity=0 time=0
EXTRACT: note_on channel=0 note=64 velocity=0 time=0
EXTRACT: note_on channel=2 note=66 velocity=0 time=0
EXTRACT: note_on channel=9 note=35 velocity=0 time=0
EXTRACT: note_on channel=9 note=42 velocity=0 time=0
EXTRACT: note_on channel=9 note=35 velocity=0 time=0
EXTRACT: note_on channel=9 note=42 velocity=0 time=0
EXTRACT: note_on channel=9 note=42 velocity=0 time=0.03
EXTRACT: note_on channel=9 note=42 velocity=0 time=0
EXTRACT: note_on channel=0 note=45 velocity=100 time=0.03
EXTRACT: note_on channel=1 note=45 velocity=100 time=0
EXTRACT: note_on channel=2 note=66 velocity=127 time=0
EXTRACT: note_on channel=3 note=69 velocity=64 time=0
EXTRACT: note_on channel=4 note=45 velocity=100 time=0
EXTRACT: note_on channel=5 note=93 velocity=70 time=0
EXTRACT: note_on channel=5 note=81 velocity=80 time=0
EXTRACT: note_on channel=9 note=38 velocity=127 time=0
EXTRACT: note_on channel=9 note=42 velocity=127 time=0
EXTRACT: note_on channel=9 note=38 velocity=127 time=0
EXTRACT: note_on channel=9 note=42 velocity=127 time=0
EXTRACT: note_on channel=3 note=69 velocity=0 time=0.09
EXTRACT: note_on channel=0 note=57 velocity=100 time=0.06
EXTRACT: note_on channel=0 note=61 velocity=100 time=0
EXTRACT: note_on channel=0 note=64 velocity=100 time=0
EXTRACT: note_on channel=9 note=42 velocity=50 time=0
EXTRACT: note_on channel=9 note=42 velocity=50 time=0
EXTRACT: note_on channel=2 note=66 velocity=0 time=0.09
EXTRACT: note_on channel=3 note=69 velocity=0 time=0
EXTRACT: note_on channel=5 note=93 velocity=0 time=0
EXTRACT: note_on channel=5 note=81 velocity=0 time=0
EXTRACT: note_on channel=9 note=38 velocity=0 time=0
EXTRACT: note_on channel=9 note=42 velocity=0 time=0
EXTRACT: note_on channel=9 note=38 velocity=0 time=0
EXTRACT: note_on channel=9 note=42 velocity=0 time=0
EXTRACT: note_on channel=9 note=42 velocity=0 time=0.03
EXTRACT: note_on channel=9 note=42 velocity=0 time=0
EXTRACT: note_on channel=2 note=66 velocity=127 time=0.03
EXTRACT: note_on channel=9 note=42 velocity=127 time=0
EXTRACT: note_on channel=9 note=42 velocity=127 time=0
EXTRACT: note_on channel=0 note=57 velocity=0 time=0.09
EXTRACT: note_on channel=0 note=61 velocity=0 time=0
EXTRACT: note_on channel=0 note=64 velocity=0 time=0
EXTRACT: note_on channel=9 note=42 velocity=50 time=0.06
EXTRACT: note_on channel=9 note=42 velocity=50 time=0
EXTRACT: note_on channel=0 note=45 velocity=0 time=0.03
EXTRACT: note_on channel=1 note=45 velocity=0 time=0
EXTRACT: note_on channel=4 note=45 velocity=0 time=0
EXTRACT: note_on channel=2 note=66 velocity=0 time=0.06
EXTRACT: note_on channel=9 note=42 velocity=0 time=0
EXTRACT: note_on channel=9 note=42 velocity=0 time=0
EXTRACT: note_on channel=9 note=42 velocity=0 time=0.03
EXTRACT: note_on channel=9 note=42 velocity=0 time=0
EXTRACT: note_on channel=0 note=42 velocity=100 time=0.03
EXTRACT: note_on channel=1 note=42 velocity=100 time=0
EXTRACT: note_on channel=2 note=66 velocity=127 time=0
EXTRACT: note_on channel=4 note=42 velocity=100 time=0
EXTRACT: note_on channel=5 note=93 velocity=70 time=0
EXTRACT: note_on channel=5 note=81 velocity=80 time=0
EXTRACT: note_on channel=9 note=35 velocity=127 time=0
EXTRACT: note_on channel=9 note=42 velocity=127 time=0
EXTRACT: note_on channel=9 note=42 velocity=0 time=0.12
EXTRACT: note_on channel=9 note=42 velocity=50 time=0.03
EXTRACT: note_on channel=0 note=42 velocity=0 time=0.09
EXTRACT: note_on channel=1 note=42 velocity=0 time=0
EXTRACT: note_on channel=2 note=66 velocity=0 time=0
EXTRACT: note_on channel=4 note=42 velocity=0 time=0
EXTRACT: note_on channel=5 note=93 velocity=0 time=0
EXTRACT: note_on channel=5 note=81 velocity=0 time=0
EXTRACT: note_on channel=9 note=35 velocity=0 time=0
EXTRACT: note_on channel=9 note=42 velocity=0 time=0.03
EXTRACT: note_on channel=0 note=42 velocity=100 time=0.03
EXTRACT: note_on channel=1 note=42 velocity=100 time=0
EXTRACT: note_on channel=2 note=66 velocity=127 time=0
EXTRACT: note_on channel=3 note=69 velocity=64 time=0
EXTRACT: note_on channel=4 note=42 velocity=100 time=0
EXTRACT: note_on channel=9 note=42 velocity=127 time=0
EXTRACT: note_on channel=3 note=69 velocity=0 time=0.12
EXTRACT: note_on channel=3 note=69 velocity=64 time=0.03
EXTRACT: note_on channel=9 note=42 velocity=50 time=0
EXTRACT: note_on channel=2 note=66 velocity=0 time=0.09
EXTRACT: note_on channel=9 note=42 velocity=0 time=0
EXTRACT: note_on channel=3 note=69 velocity=0 time=0.03
EXTRACT: note_on channel=9 note=42 velocity=0 time=0
EXTRACT: note_on channel=0 note=57 velocity=100 time=0.03
EXTRACT: note_on channel=0 note=62 velocity=100 time=0
EXTRACT: note_on channel=0 note=66 velocity=100 time=0
EXTRACT: note_on channel=2 note=64 velocity=127 time=0
EXTRACT: note_on channel=3 note=69 velocity=64 time=0
EXTRACT: note_on channel=5 note=93 velocity=70 time=0
EXTRACT: note_on channel=5 note=81 velocity=80 time=0
EXTRACT: note_on channel=9 note=38 velocity=127 time=0
EXTRACT: note_on channel=9 note=42 velocity=127 time=0
EXTRACT: note_on channel=9 note=42 velocity=50 time=0.15
EXTRACT: note_on channel=0 note=42 velocity=0 time=0.03
EXTRACT: note_on channel=1 note=42 velocity=0 time=0
EXTRACT: note_on channel=4 note=42 velocity=0 time=0
EXTRACT: note_on channel=0 note=57 velocity=0 time=0.06
EXTRACT: note_on channel=0 note=62 velocity=0 time=0
EXTRACT: note_on channel=0 note=66 velocity=0 time=0
EXTRACT: note_on channel=2 note=64 velocity=0 time=0
EXTRACT: note_on channel=3 note=69 velocity=0 time=0
EXTRACT: note_on channel=5 note=93 velocity=0 time=0
EXTRACT: note_on channel=5 note=81 velocity=0 time=0
EXTRACT: note_on channel=9 note=38 velocity=0 time=0
EXTRACT: note_on channel=9 note=42 velocity=0 time=0
EXTRACT: note_on channel=9 note=42 velocity=0 time=0.03
EXTRACT: note_on channel=0 note=57 velocity=100 time=0.03
EXTRACT: note_on channel=2 note=62 velocity=127 time=0
EXTRACT: note_on channel=3 note=69 velocity=64 time=0
EXTRACT: note_on channel=9 note=42 velocity=127 time=0
EXTRACT: note_on channel=2 note=62 velocity=0 time=0.12
EXTRACT: note_on channel=3 note=69 velocity=0 time=0
EXTRACT: note_on channel=0 note=67 velocity=100 time=0.03
EXTRACT: note_on channel=0 note=59 velocity=100 time=0
EXTRACT: note_on channel=0 note=62 velocity=100 time=0
EXTRACT: note_on channel=2 note=60 velocity=127 time=0
EXTRACT: note_on channel=3 note=69 velocity=64 time=0
EXTRACT: note_on channel=9 note=35 velocity=127 time=0
EXTRACT: note_on channel=9 note=42 velocity=50 time=0
EXTRACT: note_on channel=0 note=57 velocity=0 time=0.09
EXTRACT: note_on channel=9 note=42 velocity=0 time=0
EXTRACT: note_on channel=0 note=67 velocity=0 time=0.03
EXTRACT: note_on channel=0 note=59 velocity=0 time=0
EXTRACT: note_on channel=0 note=62 velocity=0 time=0
EXTRACT: note_on channel=9 note=42 velocity=0 time=0
EXTRACT: note_on channel=5 note=93 velocity=70 time=0.03
EXTRACT: note_on channel=5 note=81 velocity=80 time=0
EXTRACT: note_on channel=9 note=42 velocity=127 time=0
EXTRACT: note_on channel=2 note=60 velocity=0 time=0.09
EXTRACT: note_on channel=3 note=69 velocity=0 time=0
EXTRACT: note_on channel=9 note=35 velocity=0 time=0
EXTRACT: note_on channel=0 note=43 velocity=100 time=0.06
EXTRACT: note_on channel=1 note=43 velocity=100 time=0
EXTRACT: note_on channel=3 note=69 velocity=64 time=0
EXTRACT: note_on channel=4 note=43 velocity=100 time=0
EXTRACT: note_on channel=9 note=35 velocity=127 time=0
EXTRACT: note_on channel=9 note=42 velocity=50 time=0
EXTRACT: note_on channel=5 note=93 velocity=0 time=0.09
EXTRACT: note_on channel=5 note=81 velocity=0 time=0
EXTRACT: note_on channel=9 note=42 velocity=0 time=0
EXTRACT: note_on channel=3 note=69 velocity=0 time=0.03
EXTRACT: note_on channel=9 note=42 velocity=0 time=0
EXTRACT: note_on channel=0 note=67 velocity=100 time=0.03
EXTRACT: note_on channel=0 note=59 velocity=100 time=0
EXTRACT: note_on channel=0 note=62 velocity=100 time=0
EXTRACT: note_on channel=2 note=54 velocity=100 time=0
EXTRACT: note_on channel=2 note=62 velocity=100 time=0
EXTRACT: note_on channel=2 note=66 velocity=127 time=0
EXTRACT: note_on channel=9 note=35 velocity=127 time=0
EXTRACT: note_on channel=9 note=42 velocity=127 time=0
EXTRACT: note_on channel=0 note=43 velocity=0 time=0.09
EXTRACT: note_on channel=1 note=43 velocity=0 time=0
EXTRACT: note_on channel=4 note=43 velocity=0 time=0
EXTRACT: note_on channel=9 note=35 velocity=0 time=0
EXTRACT: note_on channel=3 note=69 velocity=64 time=0.06
EXTRACT: note_on channel=9 note=42 velocity=50 time=0
EXTRACT: note_on channel=0 note=67 velocity=0 time=0.09
EXTRACT: note_on channel=0 note=59 velocity=0 time=0
EXTRACT: note_on channel=0 note=62 velocity=0 time=0
EXTRACT: note_on channel=2 note=54 velocity=0 time=0
EXTRACT: note_on channel=2 note=62 velocity=0 time=0
EXTRACT: note_on channel=2 note=66 velocity=0 time=0
EXTRACT: note_on channel=9 note=35 velocity=0 time=0
EXTRACT: note_on channel=9 note=42 velocity=0 time=0
EXTRACT: note_on channel=9 note=42 velocity=0 time=0.03
EXTRACT: note_on channel=0 note=43 velocity=100 time=0.03
EXTRACT: note_on channel=1 note=43 velocity=100 time=0
EXTRACT: note_on channel=2 note=57 velocity=100 time=0
EXTRACT: note_on channel=2 note=66 velocity=100 time=0
EXTRACT: note_on channel=2 note=69 velocity=127 time=0
EXTRACT: note_on channel=3 note=69 velocity=64 time=0
EXTRACT: note_on channel=4 note=43 velocity=100 time=0
EXTRACT: note_on channel=5 note=93 velocity=70 time=0
EXTRACT: note_on channel=5 note=81 velocity=80 time=0
EXTRACT: note_on channel=9 note=38 velocity=127 time=0
EXTRACT: note_on channel=9 note=42 velocity=127 time=0
EXTRACT: note_on channel=3 note=69 velocity=0 time=0.09
EXTRACT: note_on channel=0 note=67 velocity=100 time=0.06
EXTRACT: note_on channel=0 note=59 velocity=100 time=0
EXTRACT: note_on channel=0 note=62 velocity=100 time=0
EXTRACT: note_on channel=9 note=42 velocity=50 time=0
EXTRACT: note_on channel=2 note=57 velocity=0 time=0.09
EXTRACT: note_on channel=2 note=66 velocity=0 time=0
EXTRACT: note_on channel=2 note=69 velocity=0 time=0
EXTRACT: note_on channel=3 note=69 velocity=0 time=0
EXTRACT: note_on channel=5 note=93 velocity=0 time=0
EXTRACT: note_on channel=5 note=81 velocity=0 time=0
EXTRACT: note_on channel=9 note=38 velocity=0 time=0
EXTRACT: note_on channel=9 note=42 velocity=0 time=0
EXTRACT: note_on channel=9 note=42 velocity=0 time=0.03
EXTRACT: note_on channel=2 note=54 velocity=100 time=0.03
EXTRACT: note_on channel=2 note=62 velocity=100 time=0
EXTRACT: note_on channel=2 note=66 velocity=127 time=0
EXTRACT: note_on channel=9 note=42 velocity=127 time=0
EXTRACT: note_on channel=0 note=67 velocity=0 time=0.09
EXTRACT: note_on channel=0 note=59 velocity=0 time=0
EXTRACT: note_on channel=0 note=62 velocity=0 time=0
EXTRACT: note_on channel=9 note=42 velocity=50 time=0.06
EXTRACT: note_on channel=0 note=43 velocity=0 time=0.03
EXTRACT: note_on channel=1 note=43 velocity=0 time=0
EXTRACT: note_on channel=4 note=43 velocity=0 time=0
EXTRACT: note_on channel=2 note=54 velocity=0 time=0.06
EXTRACT: note_on channel=2 note=62 velocity=0 time=0
EXTRACT: note_on channel=2 note=66 velocity=0 time=0
EXTRACT: note_on channel=9 note=42 velocity=0 time=0
EXTRACT: note_on channel=9 note=42 velocity=0 time=0.03
EXTRACT: note_on channel=0 note=45 velocity=100 time=0.03
EXTRACT: note_on channel=1 note=45 velocity=100 time=0
EXTRACT: note_on channel=2 note=57 velocity=100 time=0
EXTRACT: note_on channel=2 note=66 velocity=100 time=0
EXTRACT: note_on channel=2 note=69 velocity=127 time=0
EXTRACT: note_on channel=4 note=45 velocity=100 time=0
EXTRACT: note_on channel=5 note=93 velocity=70 time=0
EXTRACT: note_on channel=5 note=81 velocity=80 time=0
EXTRACT: note_on channel=9 note=35 velocity=127 time=0
EXTRACT: note_on channel=9 note=42 velocity=127 time=0
EXTRACT: note_on channel=2 note=57 velocity=0 time=0.12
EXTRACT: note_on channel=2 note=66 velocity=0 time=0
EXTRACT: note_on channel=2 note=69 velocity=0 time=0
EXTRACT: note_on channel=9 note=42 velocity=0 time=0
EXTRACT: note_on channel=2 note=66 velocity=100 time=0.03
EXTRACT: note_on channel=2 note=57 velocity=100 time=0
EXTRACT: note_on channel=2 note=69 velocity=127 time=0
EXTRACT: note_on channel=9 note=42 velocity=50 time=0
EXTRACT: note_on channel=0 note=45 velocity=0 time=0.09
EXTRACT: note_on channel=1 note=45 velocity=0 time=0
EXTRACT: note_on channel=4 note=45 velocity=0 time=0
EXTRACT: note_on channel=5 note=93 velocity=0 time=0
EXTRACT: note_on channel=5 note=81 velocity=0 time=0
EXTRACT: note_on channel=9 note=35 velocity=0 time=0
EXTRACT: note_on channel=2 note=66 velocity=0 time=0.03
EXTRACT: note_on channel=2 note=57 velocity=0 time=0
EXTRACT: note_on channel=2 note=69 velocity=0 time=0
EXTRACT: note_on channel=9 note=42 velocity=0 time=0
EXTRACT: note_on channel=0 note=45 velocity=100 time=0.03
EXTRACT: note_on channel=1 note=45 velocity=100 time=0
EXTRACT: note_on channel=2 note=54 velocity=100 time=0
EXTRACT: note_on channel=2 note=62 velocity=100 time=0
EXTRACT: note_on channel=2 note=66 velocity=127 time=0
EXTRACT: note_on channel=3 note=69 velocity=64 time=0
EXTRACT: note_on channel=4 note=45 velocity=100 time=0
EXTRACT: note_on channel=9 note=42 velocity=127 time=0
EXTRACT: note_on channel=3 note=69 velocity=0 time=0.12
EXTRACT: note_on channel=3 note=69 velocity=64 time=0.03
EXTRACT: note_on channel=9 note=42 velocity=50 time=0
EXTRACT: note_on channel=2 note=54 velocity=0 time=0.09
EXTRACT: note_on channel=2 note=62 velocity=0 time=0
EXTRACT: note_on channel=2 note=66 velocity=0 time=0
EXTRACT: note_on channel=9 note=42 velocity=0 time=0
EXTRACT: note_on channel=3 note=69 velocity=0 time=0.03
EXTRACT: note_on channel=9 note=42 velocity=0 time=0
EXTRACT: note_on channel=0 note=57 velocity=100 time=0.03
EXTRACT: note_on channel=0 note=62 velocity=100 time=0
EXTRACT: note_on channel=0 note=66 velocity=100 time=0
EXTRACT: note_on channel=3 note=69 velocity=64 time=0
EXTRACT: note_on channel=5 note=93 velocity=70 time=0
EXTRACT: note_on channel=5 note=81 velocity=80 time=0
EXTRACT: note_on channel=9 note=38 velocity=127 time=0
EXTRACT: note_on channel=9 note=42 velocity=127 time=0
EXTRACT: note_on channel=9 note=42 velocity=50 time=0.15
EXTRACT: note_on channel=1 note=45 velocity=0 time=0.03
EXTRACT: note_on channel=4 note=45 velocity=0 time=0
EXTRACT: note_on channel=0 note=57 velocity=0 time=0.06
EXTRACT: note_on channel=0 note=62 velocity=0 time=0
EXTRACT: note_on channel=0 note=66 velocity=0 time=0
EXTRACT: note_on channel=3 note=69 velocity=0 time=0
EXTRACT: note_on channel=5 note=93 velocity=0 time=0
EXTRACT: note_on channel=5 note=81 velocity=0 time=0
EXTRACT: note_on channel=9 note=38 velocity=0 time=0
EXTRACT: note_on channel=9 note=42 velocity=0 time=0
EXTRACT: note_on channel=9 note=42 velocity=0 time=0.03
EXTRACT: note_on channel=0 note=57 velocity=100 time=0.03
EXTRACT: note_on channel=2 note=57 velocity=100 time=0
EXTRACT: note_on channel=2 note=66 velocity=100 time=0
EXTRACT: note_on channel=2 note=69 velocity=127 time=0
EXTRACT: note_on channel=3 note=69 velocity=64 time=0
EXTRACT: note_on channel=9 note=42 velocity=127 time=0
EXTRACT: note_on channel=3 note=69 velocity=0 time=0.12
EXTRACT: note_on channel=0 note=57 velocity=100 time=0.03
EXTRACT: note_on channel=0 note=61 velocity=100 time=0
EXTRACT: note_on channel=0 note=64 velocity=100 time=0
EXTRACT: note_on channel=3 note=69 velocity=64 time=0
EXTRACT: note_on channel=9 note=35 velocity=127 time=0
EXTRACT: note_on channel=9 note=42 velocity=50 time=0
EXTRACT: note_on channel=0 note=57 velocity=0 time=0.09
EXTRACT: note_on channel=2 note=57 velocity=0 time=0
EXTRACT: note_on channel=2 note=66 velocity=0 time=0
EXTRACT: note_on channel=2 note=69 velocity=0 time=0
EXTRACT: note_on channel=9 note=42 velocity=0 time=0
EXTRACT: note_on channel=0 note=57 velocity=0 time=0.03
EXTRACT: note_on channel=0 note=61 velocity=0 time=0
EXTRACT: note_on channel=0 note=64 velocity=0 time=0
EXTRACT: note_on channel=9 note=42 velocity=0 time=0
EXTRACT: note_on channel=2 note=62 velocity=100 time=0.03
EXTRACT: note_on channel=2 note=54 velocity=100 time=0
EXTRACT: note_on channel=2 note=66 velocity=127 time=0
EXTRACT: note_on channel=5 note=93 velocity=70 time=0
EXTRACT: note_on channel=5 note=81 velocity=80 time=0
EXTRACT: note_on channel=9 note=42 velocity=127 time=0
EXTRACT: note_on channel=0 note=45 velocity=0 time=0.06
EXTRACT: note_on channel=3 note=69 velocity=0 time=0.03
EXTRACT: note_on channel=9 note=35 velocity=0 time=0
EXTRACT: note_on channel=0 note=45 velocity=100 time=0.06
EXTRACT: note_on channel=1 note=45 velocity=100 time=0
EXTRACT: note_on channel=3 note=69 velocity=64 time=0
EXTRACT: note_on channel=4 note=45 velocity=100 time=0
EXTRACT: note_on channel=9 note=35 velocity=127 time=0
EXTRACT: note_on channel=9 note=42 velocity=50 time=0
EXTRACT: note_on channel=5 note=93 velocity=0 time=0.09
EXTRACT: note_on channel=5 note=81 velocity=0 time=0
EXTRACT: note_on channel=9 note=42 velocity=0 time=0
EXTRACT: note_on channel=3 note=69 velocity=0 time=0.03
EXTRACT: note_on channel=9 note=42 velocity=0 time=0
EXTRACT: note_on channel=0 note=57 velocity=100 time=0.03
EXTRACT: note_on channel=0 note=61 velocity=100 time=0
EXTRACT: note_on channel=0 note=64 velocity=100 time=0
EXTRACT: note_on channel=9 note=35 velocity=127 time=0
EXTRACT: note_on channel=9 note=42 velocity=127 time=0
EXTRACT: note_on channel=0 note=45 velocity=0 time=0.09
EXTRACT: note_on channel=1 note=45 velocity=0 time=0
EXTRACT: note_on channel=4 note=45 velocity=0 time=0
EXTRACT: note_on channel=9 note=35 velocity=0 time=0
EXTRACT: note_on channel=3 note=69 velocity=64 time=0.06
EXTRACT: note_on channel=9 note=42 velocity=50 time=0
EXTRACT: note_on channel=2 note=62 velocity=0 time=0.03
EXTRACT: note_on channel=2 note=54 velocity=0 time=0
EXTRACT: note_on channel=2 note=66 velocity=0 time=0
EXTRACT: note_on channel=0 note=57 velocity=0 time=0.06
EXTRACT: note_on channel=0 note=61 velocity=0 time=0
EXTRACT: note_on channel=0 note=64 velocity=0 time=0
EXTRACT: note_on channel=9 note=35 velocity=0 time=0
EXTRACT: note_on channel=9 note=42 velocity=0 time=0
EXTRACT: note_on channel=9 note=42 velocity=0 time=0.03
EXTRACT: note_on channel=0 note=45 velocity=100 time=0.03
EXTRACT: note_on channel=1 note=45 velocity=100 time=0
EXTRACT: note_on channel=2 note=57 velocity=100 time=0
EXTRACT: note_on channel=2 note=66 velocity=100 time=0
EXTRACT: note_on channel=2 note=69 velocity=127 time=0
EXTRACT: note_on channel=3 note=69 velocity=64 time=0
EXTRACT: note_on channel=4 note=45 velocity=100 time=0
EXTRACT: note_on channel=5 note=93 velocity=70 time=0
EXTRACT: note_on channel=5 note=81 velocity=80 time=0
EXTRACT: note_on channel=9 note=38 velocity=127 time=0
EXTRACT: note_on channel=9 note=42 velocity=127 time=0
EXTRACT: note_on channel=3 note=69 velocity=0 time=0.09
EXTRACT: note_on channel=2 note=57 velocity=0 time=0.03
EXTRACT: note_on channel=2 note=66 velocity=0 time=0
EXTRACT: note_on channel=2 note=69 velocity=0 time=0
EXTRACT: note_on channel=0 note=57 velocity=100 time=0.03
EXTRACT: note_on channel=0 note=61 velocity=100 time=0
EXTRACT: note_on channel=0 note=64 velocity=100 time=0
EXTRACT: note_on channel=2 note=54 velocity=100 time=0
EXTRACT: note_on channel=2 note=62 velocity=100 time=0
EXTRACT: note_on channel=2 note=66 velocity=127 time=0
EXTRACT: note_on channel=9 note=42 velocity=50 time=0
EXTRACT: note_on channel=3 note=69 velocity=0 time=0.09
EXTRACT: note_on channel=5 note=93 velocity=0 time=0
EXTRACT: note_on channel=5 note=81 velocity=0 time=0
EXTRACT: note_on channel=9 note=38 velocity=0 time=0
EXTRACT: note_on channel=9 note=42 velocity=0 time=0
EXTRACT: note_on channel=9 note=42 velocity=0 time=0.03
EXTRACT: note_on channel=9 note=42 velocity=127 time=0.03
EXTRACT: note_on channel=0 note=57 velocity=0 time=0.09
EXTRACT: note_on channel=0 note=61 velocity=0 time=0
EXTRACT: note_on channel=0 note=64 velocity=0 time=0
EXTRACT: note_on channel=2 note=54 velocity=0 time=0
EXTRACT: note_on channel=2 note=62 velocity=0 time=0
EXTRACT: note_on channel=2 note=66 velocity=0 time=0
EXTRACT: note_on channel=9 note=42 velocity=50 time=0.06
EXTRACT: note_on channel=0 note=45 velocity=0 time=0.03
EXTRACT: note_on channel=1 note=45 velocity=0 time=0
EXTRACT: note_on channel=4 note=45 velocity=0 time=0
EXTRACT: note_on channel=9 note=42 velocity=0 time=0.06
EXTRACT: note_on channel=9 note=42 velocity=0 time=0.03
EXTRACT: note_on channel=0 note=42 velocity=100 time=0.03
EXTRACT: note_on channel=1 note=42 velocity=100 time=0
EXTRACT: note_on channel=2 note=73 velocity=127 time=0
EXTRACT: note_on channel=4 note=42 velocity=100 time=0
EXTRACT: note_on channel=5 note=93 velocity=70 time=0
EXTRACT: note_on channel=5 note=81 velocity=80 time=0
EXTRACT: note_on channel=9 note=35 velocity=127 time=0
EXTRACT: note_on channel=9 note=42 velocity=127 time=0
EXTRACT: note_on channel=9 note=42 velocity=0 time=0.12
EXTRACT: note_on channel=9 note=42 velocity=50 time=0.03
EXTRACT: note_on channel=0 note=42 velocity=0 time=0.09
EXTRACT: note_on channel=1 note=42 velocity=0 time=0
EXTRACT: note_on channel=2 note=73 velocity=0 time=0
EXTRACT: note_on channel=4 note=42 velocity=0 time=0
EXTRACT: note_on channel=5 note=93 velocity=0 time=0
EXTRACT: note_on channel=5 note=81 velocity=0 time=0
EXTRACT: note_on channel=9 note=35 velocity=0 time=0
EXTRACT: note_on channel=9 note=42 velocity=0 time=0.03
EXTRACT: note_on channel=0 note=42 velocity=100 time=0.03
EXTRACT: note_on channel=1 note=42 velocity=100 time=0
EXTRACT: note_on channel=2 note=76 velocity=127 time=0
EXTRACT: note_on channel=3 note=69 velocity=64 time=0
EXTRACT: note_on channel=4 note=42 velocity=100 time=0
EXTRACT: note_on channel=9 note=42 velocity=127 time=0
EXTRACT: note_on channel=3 note=69 velocity=0 time=0.12
EXTRACT: note_on channel=3 note=69 velocity=64 time=0.03
EXTRACT: note_on channel=9 note=42 velocity=50 time=0
EXTRACT: note_on channel=2 note=76 velocity=0 time=0.09
EXTRACT: note_on channel=9 note=42 velocity=0 time=0
EXTRACT: note_on channel=3 note=69 velocity=0 time=0.03
EXTRACT: note_on channel=9 note=42 velocity=0 time=0
EXTRACT: note_on channel=0 note=57 velocity=100 time=0.03
EXTRACT: note_on channel=0 note=62 velocity=100 time=0
EXTRACT: note_on channel=0 note=66 velocity=100 time=0
EXTRACT: note_on channel=2 note=73 velocity=127 time=0
EXTRACT: note_on channel=3 note=69 velocity=64 time=0
EXTRACT: note_on channel=5 note=93 velocity=70 time=0
EXTRACT: note_on channel=5 note=81 velocity=80 time=0
EXTRACT: note_on channel=9 note=38 velocity=127 time=0
EXTRACT: note_on channel=9 note=42 velocity=127 time=0
EXTRACT: note_on channel=9 note=42 velocity=50 time=0.15
EXTRACT: note_on channel=0 note=42 velocity=0 time=0.03
EXTRACT: note_on channel=1 note=42 velocity=0 time=0
EXTRACT: note_on channel=4 note=42 velocity=0 time=0
EXTRACT: note_on channel=0 note=57 velocity=0 time=0.06
EXTRACT: note_on channel=0 note=62 velocity=0 time=0
EXTRACT: note_on channel=0 note=66 velocity=0 time=0
EXTRACT: note_on channel=2 note=73 velocity=0 time=0
EXTRACT: note_on channel=3 note=69 velocity=0 time=0
EXTRACT: note_on channel=5 note=93 velocity=0 time=0
EXTRACT: note_on channel=5 note=81 velocity=0 time=0
EXTRACT: note_on channel=9 note=38 velocity=0 time=0
EXTRACT: note_on channel=9 note=42 velocity=0 time=0
EXTRACT: note_on channel=9 note=42 velocity=0 time=0.03
EXTRACT: note_on channel=0 note=57 velocity=100 time=0.03
EXTRACT: note_on channel=2 note=71 velocity=127 time=0
EXTRACT: note_on channel=3 note=69 velocity=64 time=0
EXTRACT: note_on channel=9 note=42 velocity=127 time=0
EXTRACT: note_on channel=2 note=71 velocity=0 time=0.12
EXTRACT: note_on channel=3 note=69 velocity=0 time=0
EXTRACT: note_on channel=0 note=67 velocity=100 time=0.03
EXTRACT: note_on channel=0 note=59 velocity=100 time=0
EXTRACT: note_on channel=0 note=62 velocity=100 time=0
EXTRACT: note_on channel=2 note=69 velocity=127 time=0
EXTRACT: note_on channel=3 note=69 velocity=64 time=0
EXTRACT: note_on channel=9 note=35 velocity=127 time=0
EXTRACT: note_on channel=9 note=42 velocity=50 time=0
EXTRACT: note_on channel=0 note=57 velocity=0 time=0.09
EXTRACT: note_on channel=9 note=42 velocity=0 time=0
EXTRACT: note_on channel=0 note=67 velocity=0 time=0.03
EXTRACT: note_on channel=0 note=59 velocity=0 time=0
EXTRACT: note_on channel=0 note=62 velocity=0 time=0
EXTRACT: note_on channel=9 note=42 velocity=0 time=0
EXTRACT: note_on channel=5 note=93 velocity=70 time=0.03
EXTRACT: note_on channel=5 note=81 velocity=80 time=0
EXTRACT: note_on channel=9 note=42 velocity=127 time=0
EXTRACT: note_on channel=3 note=69 velocity=0 time=0.09
EXTRACT: note_on channel=9 note=35 velocity=0 time=0
EXTRACT: note_on channel=0 note=43 velocity=100 time=0.06
EXTRACT: note_on channel=1 note=43 velocity=100 time=0
EXTRACT: note_on channel=3 note=69 velocity=64 time=0
EXTRACT: note_on channel=9 note=35 velocity=127 time=0
EXTRACT: note_on channel=9 note=42 velocity=50 time=0
EXTRACT: note_on channel=5 note=93 velocity=0 time=0.09
EXTRACT: note_on channel=5 note=81 velocity=0 time=0
EXTRACT: note_on channel=9 note=42 velocity=0 time=0
EXTRACT: note_on channel=3 note=69 velocity=0 time=0.03
EXTRACT: note_on channel=9 note=42 velocity=0 time=0
EXTRACT: note_on channel=0 note=67 velocity=100 time=0.03
EXTRACT: note_on channel=0 note=59 velocity=100 time=0
EXTRACT: note_on channel=0 note=62 velocity=100 time=0
EXTRACT: note_on channel=2 note=54 velocity=100 time=0
EXTRACT: note_on channel=2 note=62 velocity=100 time=0
EXTRACT: note_on channel=2 note=66 velocity=127 time=0
EXTRACT: note_on channel=9 note=35 velocity=127 time=0
EXTRACT: note_on channel=9 note=42 velocity=127 time=0
EXTRACT: note_on channel=2 note=69 velocity=0 time=0.03
EXTRACT: note_on channel=0 note=43 velocity=0 time=0.06
EXTRACT: note_on channel=1 note=43 velocity=0 time=0
EXTRACT: note_on channel=9 note=35 velocity=0 time=0
EXTRACT: note_on channel=3 note=69 velocity=64 time=0.06
EXTRACT: note_on channel=9 note=42 velocity=50 time=0
EXTRACT: note_on channel=0 note=67 velocity=0 time=0.09
EXTRACT: note_on channel=0 note=59 velocity=0 time=0
EXTRACT: note_on channel=0 note=62 velocity=0 time=0
EXTRACT: note_on channel=2 note=54 velocity=0 time=0
EXTRACT: note_on channel=2 note=62 velocity=0 time=0
EXTRACT: note_on channel=2 note=66 velocity=0 time=0
EXTRACT: note_on channel=9 note=35 velocity=0 time=0
EXTRACT: note_on channel=9 note=42 velocity=0 time=0
EXTRACT: note_on channel=9 note=42 velocity=0 time=0.03
EXTRACT: note_on channel=0 note=43 velocity=100 time=0.03
EXTRACT: note_on channel=1 note=43 velocity=100 time=0
EXTRACT: note_on channel=2 note=57 velocity=100 time=0
EXTRACT: note_on channel=2 note=66 velocity=100 time=0
EXTRACT: note_on channel=2 note=69 velocity=127 time=0
EXTRACT: note_on channel=3 note=69 velocity=64 time=0
EXTRACT: note_on channel=5 note=93 velocity=70 time=0
EXTRACT: note_on channel=5 note=81 velocity=80 time=0
EXTRACT: note_on channel=9 note=38 velocity=127 time=0
EXTRACT: note_on channel=9 note=42 velocity=127 time=0
EXTRACT: note_on channel=3 note=69 velocity=0 time=0.09
EXTRACT: note_on channel=0 note=67 velocity=100 time=0.06
EXTRACT: note_on channel=0 note=59 velocity=100 time=0
EXTRACT: note_on channel=0 note=62 velocity=100 time=0
EXTRACT: note_on channel=9 note=42 velocity=50 time=0
EXTRACT: note_on channel=2 note=57 velocity=0 time=0.09
EXTRACT: note_on channel=2 note=66 velocity=0 time=0
EXTRACT: note_on channel=2 note=69 velocity=0 time=0
EXTRACT: note_on channel=3 note=69 velocity=0 time=0
EXTRACT: note_on channel=5 note=93 velocity=0 time=0
EXTRACT: note_on channel=5 note=81 velocity=0 time=0
EXTRACT: note_on channel=9 note=38 velocity=0 time=0
EXTRACT: note_on channel=9 note=42 velocity=0 time=0
EXTRACT: note_on channel=9 note=42 velocity=0 time=0.03
EXTRACT: note_on channel=2 note=54 velocity=100 time=0.03
EXTRACT: note_on channel=2 note=62 velocity=100 time=0
EXTRACT: note_on channel=2 note=66 velocity=127 time=0
EXTRACT: note_on channel=9 note=42 velocity=127 time=0
EXTRACT: note_on channel=0 note=67 velocity=0 time=0.09
EXTRACT: note_on channel=0 note=59 velocity=0 time=0
EXTRACT: note_on channel=0 note=62 velocity=0 time=0
EXTRACT: note_on channel=9 note=42 velocity=50 time=0.06
EXTRACT: note_on channel=0 note=43 velocity=0 time=0.03
EXTRACT: note_on channel=1 note=43 velocity=0 time=0
EXTRACT: note_on channel=2 note=54 velocity=0 time=0.06
EXTRACT: note_on channel=2 note=62 velocity=0 time=0
EXTRACT: note_on channel=2 note=66 velocity=0 time=0
EXTRACT: note_on channel=9 note=42 velocity=0 time=0
EXTRACT: note_on channel=9 note=42 velocity=0 time=0.03
EXTRACT: note_on channel=0 note=45 velocity=100 time=0.03
EXTRACT: note_on channel=1 note=45 velocity=100 time=0
EXTRACT: note_on channel=2 note=57 velocity=100 time=0
EXTRACT: note_on channel=2 note=66 velocity=100 time=0
EXTRACT: note_on channel=2 note=69 velocity=127 time=0
EXTRACT: note_on channel=4 note=45 velocity=100 time=0
EXTRACT: note_on channel=5 note=93 velocity=70 time=0
EXTRACT: note_on channel=5 note=81 velocity=80 time=0
EXTRACT: note_on channel=9 note=35 velocity=127 time=0
EXTRACT: note_on channel=9 note=42 velocity=127 time=0
EXTRACT: note_on channel=9 note=42 velocity=0 time=0.12
EXTRACT: note_on channel=9 note=42 velocity=50 time=0.03
EXTRACT: note_on channel=0 note=45 velocity=0 time=0.09
EXTRACT: note_on channel=1 note=45 velocity=0 time=0
EXTRACT: note_on channel=2 note=57 velocity=0 time=0
EXTRACT: note_on channel=2 note=66 velocity=0 time=0
EXTRACT: note_on channel=2 note=69 velocity=0 time=0
EXTRACT: note_on channel=4 note=45 velocity=0 time=0
EXTRACT: note_on channel=5 note=93 velocity=0 time=0
EXTRACT: note_on channel=5 note=81 velocity=0 time=0
EXTRACT: note_on channel=9 note=35 velocity=0 time=0
EXTRACT: note_on channel=9 note=42 velocity=0 time=0.03
EXTRACT: note_on channel=0 note=45 velocity=100 time=0.03
EXTRACT: note_on channel=1 note=45 velocity=100 time=0
EXTRACT: note_on channel=2 note=54 velocity=100 time=0
EXTRACT: note_on channel=2 note=62 velocity=100 time=0
EXTRACT: note_on channel=2 note=66 velocity=127 time=0
EXTRACT: note_on channel=3 note=69 velocity=64 time=0
EXTRACT: note_on channel=4 note=45 velocity=100 time=0
EXTRACT: note_on channel=9 note=42 velocity=127 time=0
EXTRACT: note_on channel=3 note=69 velocity=0 time=0.12
EXTRACT: note_on channel=3 note=69 velocity=64 time=0.03
EXTRACT: note_on channel=9 note=42 velocity=50 time=0
EXTRACT: note_on channel=2 note=54 velocity=0 time=0.09
EXTRACT: note_on channel=2 note=62 velocity=0 time=0
EXTRACT: note_on channel=2 note=66 velocity=0 time=0
EXTRACT: note_on channel=9 note=42 velocity=0 time=0
EXTRACT: note_on channel=3 note=69 velocity=0 time=0.03
EXTRACT: note_on channel=9 note=42 velocity=0 time=0
EXTRACT: note_on channel=0 note=57 velocity=100 time=0.03
EXTRACT: note_on channel=0 note=62 velocity=100 time=0
EXTRACT: note_on channel=0 note=66 velocity=100 time=0
EXTRACT: note_on channel=2 note=72 velocity=127 time=0
EXTRACT: note_on channel=3 note=69 velocity=64 time=0
EXTRACT: note_on channel=5 note=93 velocity=70 time=0
EXTRACT: note_on channel=5 note=81 velocity=80 time=0
EXTRACT: note_on channel=9 note=38 velocity=127 time=0
EXTRACT: note_on channel=9 note=42 velocity=127 time=0
EXTRACT: note_on channel=9 note=42 velocity=50 time=0.15
EXTRACT: note_on channel=1 note=45 velocity=0 time=0.03
EXTRACT: note_on channel=4 note=45 velocity=0 time=0
EXTRACT: note_on channel=0 note=57 velocity=0 time=0.06
EXTRACT: note_on channel=0 note=62 velocity=0 time=0
EXTRACT: note_on channel=0 note=66 velocity=0 time=0
EXTRACT: note_on channel=2 note=72 velocity=0 time=0
EXTRACT: note_on channel=3 note=69 velocity=0 time=0
EXTRACT: note_on channel=5 note=93 velocity=0 time=0
EXTRACT: note_on channel=5 note=81 velocity=0 time=0
EXTRACT: note_on channel=9 note=38 velocity=0 time=0
EXTRACT: note_on channel=9 note=42 velocity=0 time=0
EXTRACT: note_on channel=9 note=42 velocity=0 time=0.03
EXTRACT: note_on channel=0 note=57 velocity=100 time=0.03
EXTRACT: note_on channel=2 note=72 velocity=127 time=0
EXTRACT: note_on channel=3 note=69 velocity=64 time=0
EXTRACT: note_on channel=9 note=42 velocity=127 time=0
EXTRACT: note_on channel=3 note=69 velocity=0 time=0.12
EXTRACT: note_on channel=0 note=57 velocity=100 time=0.03
EXTRACT: note_on channel=0 note=61 velocity=100 time=0
EXTRACT: note_on channel=0 note=64 velocity=100 time=0
EXTRACT: note_on channel=3 note=69 velocity=64 time=0
EXTRACT: note_on channel=9 note=35 velocity=127 time=0
EXTRACT: note_on channel=9 note=42 velocity=50 time=0
EXTRACT: note_on channel=0 note=57 velocity=0 time=0.09
EXTRACT: note_on channel=2 note=72 velocity=0 time=0
EXTRACT: note_on channel=9 note=42 velocity=0 time=0
EXTRACT: note_on channel=0 note=57 velocity=0 time=0.03
EXTRACT: note_on channel=0 note=61 velocity=0 time=0
EXTRACT: note_on channel=0 note=64 velocity=0 time=0
EXTRACT: note_on channel=9 note=42 velocity=0 time=0
EXTRACT: note_on channel=5 note=93 velocity=70 time=0.03
EXTRACT: note_on channel=5 note=81 velocity=80 time=0
EXTRACT: note_on channel=9 note=42 velocity=127 time=0
EXTRACT: note_on channel=0 note=45 velocity=0 time=0.06
EXTRACT: note_on channel=3 note=69 velocity=0 time=0.03
EXTRACT: note_on channel=9 note=35 velocity=0 time=0
EXTRACT: note_on channel=0 note=45 velocity=100 time=0.06
EXTRACT: note_on channel=1 note=45 velocity=100 time=0
EXTRACT: note_on channel=3 note=69 velocity=64 time=0
EXTRACT: note_on channel=4 note=45 velocity=100 time=0
EXTRACT: note_on channel=9 note=35 velocity=127 time=0
EXTRACT: note_on channel=9 note=42 velocity=50 time=0
EXTRACT: note_on channel=5 note=93 velocity=0 time=0.09
EXTRACT: note_on channel=5 note=81 velocity=0 time=0
EXTRACT: note_on channel=9 note=42 velocity=0 time=0
EXTRACT: note_on channel=3 note=69 velocity=0 time=0.03
EXTRACT: note_on channel=9 note=42 velocity=0 time=0
EXTRACT: note_on channel=0 note=57 velocity=100 time=0.03
EXTRACT: note_on channel=0 note=61 velocity=100 time=0
EXTRACT: note_on channel=0 note=64 velocity=100 time=0
EXTRACT: note_on channel=2 note=66 velocity=127 time=0
EXTRACT: note_on channel=9 note=35 velocity=127 time=0
EXTRACT: note_on channel=9 note=42 velocity=127 time=0
EXTRACT: note_on channel=0 note=45 velocity=0 time=0.09
EXTRACT: note_on channel=1 note=45 velocity=0 time=0
EXTRACT: note_on channel=4 note=45 velocity=0 time=0
EXTRACT: note_on channel=9 note=35 velocity=0 time=0
EXTRACT: note_on channel=3 note=69 velocity=64 time=0.06
EXTRACT: note_on channel=9 note=42 velocity=50 time=0
EXTRACT: note_on channel=0 note=57 velocity=0 time=0.09
EXTRACT: note_on channel=0 note=61 velocity=0 time=0
EXTRACT: note_on channel=0 note=64 velocity=0 time=0
EXTRACT: note_on channel=2 note=66 velocity=0 time=0
EXTRACT: note_on channel=9 note=35 velocity=0 time=0
EXTRACT: note_on channel=9 note=42 velocity=0 time=0
EXTRACT: note_on channel=9 note=42 velocity=0 time=0.03
EXTRACT: note_on channel=0 note=45 velocity=100 time=0.03
EXTRACT: note_on channel=1 note=45 velocity=100 time=0
EXTRACT: note_on channel=2 note=72 velocity=127 time=0
EXTRACT: note_on channel=2 note=66 velocity=127 time=0
EXTRACT: note_on channel=3 note=69 velocity=64 time=0
EXTRACT: note_on channel=4 note=45 velocity=100 time=0
EXTRACT: note_on channel=5 note=93 velocity=70 time=0
EXTRACT: note_on channel=5 note=81 velocity=80 time=0
EXTRACT: note_on channel=9 note=38 velocity=127 time=0
EXTRACT: note_on channel=9 note=42 velocity=127 time=0
EXTRACT: note_on channel=3 note=69 velocity=0 time=0.09
EXTRACT: note_on channel=0 note=57 velocity=100 time=0.06
EXTRACT: note_on channel=0 note=61 velocity=100 time=0
EXTRACT: note_on channel=0 note=64 velocity=100 time=0
EXTRACT: note_on channel=9 note=42 velocity=50 time=0
EXTRACT: note_on channel=2 note=72 velocity=0 time=0.09
EXTRACT: note_on channel=2 note=66 velocity=0 time=0
EXTRACT: note_on channel=3 note=69 velocity=0 time=0
EXTRACT: note_on channel=5 note=93 velocity=0 time=0
EXTRACT: note_on channel=5 note=81 velocity=0 time=0
EXTRACT: note_on channel=9 note=38 velocity=0 time=0
EXTRACT: note_on channel=9 note=42 velocity=0 time=0
EXTRACT: note_on channel=9 note=42 velocity=0 time=0.03
EXTRACT: note_on channel=2 note=72 velocity=127 time=0.03
EXTRACT: note_on channel=2 note=66 velocity=127 time=0
EXTRACT: note_on channel=9 note=42 velocity=127 time=0
EXTRACT: note_on channel=0 note=57 velocity=0 time=0.09
EXTRACT: note_on channel=0 note=61 velocity=0 time=0
EXTRACT: note_on channel=0 note=64 velocity=0 time=0
EXTRACT: note_on channel=2 note=66 velocity=0 time=0.03
EXTRACT: note_on channel=2 note=66 velocity=127 time=0.03
EXTRACT: note_on channel=9 note=42 velocity=50 time=0
EXTRACT: note_on channel=0 note=45 velocity=0 time=0.03
EXTRACT: note_on channel=1 note=45 velocity=0 time=0
EXTRACT: note_on channel=4 note=45 velocity=0 time=0
EXTRACT: note_on channel=2 note=72 velocity=0 time=0.06
EXTRACT: note_on channel=9 note=42 velocity=0 time=0
EXTRACT: note_on channel=2 note=66 velocity=0 time=0.03
EXTRACT: note_on channel=9 note=42 velocity=0 time=0
EXTRACT: note_on channel=0 note=42 velocity=100 time=0.03
EXTRACT: note_on channel=1 note=42 velocity=100 time=0
EXTRACT: note_on channel=2 note=66 velocity=127 time=0
EXTRACT: note_on channel=4 note=42 velocity=100 time=0
EXTRACT: note_on channel=5 note=93 velocity=70 time=0
EXTRACT: note_on channel=5 note=81 velocity=80 time=0
EXTRACT: note_on channel=9 note=35 velocity=127 time=0
EXTRACT: note_on channel=9 note=42 velocity=127 time=0
EXTRACT: note_on channel=2 note=66 velocity=0 time=0.12
EXTRACT: note_on channel=9 note=42 velocity=0 time=0
EXTRACT: note_on channel=2 note=66 velocity=127 time=0.03
EXTRACT: note_on channel=9 note=42 velocity=50 time=0
EXTRACT: note_on channel=0 note=42 velocity=0 time=0.09
EXTRACT: note_on channel=1 note=42 velocity=0 time=0
EXTRACT: note_on channel=4 note=42 velocity=0 time=0
EXTRACT: note_on channel=5 note=93 velocity=0 time=0
EXTRACT: note_on channel=5 note=81 velocity=0 time=0
EXTRACT: note_on channel=9 note=35 velocity=0 time=0
EXTRACT: note_on channel=2 note=66 velocity=0 time=0.03
EXTRACT: note_on channel=9 note=42 velocity=0 time=0
EXTRACT: note_on channel=0 note=42 velocity=100 time=0.03
EXTRACT: note_on channel=1 note=42 velocity=100 time=0
EXTRACT: note_on channel=2 note=66 velocity=127 time=0
EXTRACT: note_on channel=3 note=69 velocity=64 time=0
EXTRACT: note_on channel=4 note=42 velocity=100 time=0
EXTRACT: note_on channel=9 note=42 velocity=127 time=0
EXTRACT: note_on channel=3 note=69 velocity=0 time=0.12
EXTRACT: note_on channel=3 note=69 velocity=64 time=0.03
EXTRACT: note_on channel=9 note=42 velocity=50 time=0
EXTRACT: note_on channel=2 note=66 velocity=0 time=0.09
EXTRACT: note_on channel=9 note=42 velocity=0 time=0
EXTRACT: note_on channel=3 note=69 velocity=0 time=0.03
EXTRACT: note_on channel=9 note=42 velocity=0 time=0
EXTRACT: note_on channel=0 note=57 velocity=100 time=0.03
EXTRACT: note_on channel=0 note=62 velocity=100 time=0
EXTRACT: note_on channel=0 note=66 velocity=100 time=0
EXTRACT: note_on channel=2 note=66 velocity=127 time=0
EXTRACT: note_on channel=3 note=69 velocity=64 time=0
EXTRACT: note_on channel=5 note=93 velocity=70 time=0
EXTRACT: note_on channel=5 note=81 velocity=80 time=0
EXTRACT: note_on channel=9 note=38 velocity=127 time=0
EXTRACT: note_on channel=9 note=42 velocity=127 time=0
EXTRACT: note_on channel=9 note=42 velocity=50 time=0.15
EXTRACT: note_on channel=0 note=42 velocity=0 time=0.03
EXTRACT: note_on channel=1 note=42 velocity=0 time=0
EXTRACT: note_on channel=4 note=42 velocity=0 time=0
EXTRACT: note_on channel=0 note=57 velocity=0 time=0.06
EXTRACT: note_on channel=0 note=62 velocity=0 time=0
EXTRACT: note_on channel=0 note=66 velocity=0 time=0
EXTRACT: note_on channel=2 note=66 velocity=0 time=0
EXTRACT: note_on channel=3 note=69 velocity=0 time=0
EXTRACT: note_on channel=5 note=93 velocity=0 time=0
EXTRACT: note_on channel=5 note=81 velocity=0 time=0
EXTRACT: note_on channel=9 note=38 velocity=0 time=0
EXTRACT: note_on channel=9 note=42 velocity=0 time=0
EXTRACT: note_on channel=9 note=42 velocity=0 time=0.03
EXTRACT: note_on channel=0 note=57 velocity=100 time=0.03
EXTRACT: note_on channel=2 note=66 velocity=127 time=0
EXTRACT: note_on channel=3 note=69 velocity=64 time=0
EXTRACT: note_on channel=9 note=42 velocity=127 time=0
EXTRACT: note_on channel=2 note=66 velocity=0 time=0.12
EXTRACT: note_on channel=3 note=69 velocity=0 time=0
EXTRACT: note_on channel=0 note=67 velocity=100 time=0.03
EXTRACT: note_on channel=0 note=59 velocity=100 time=0
EXTRACT: note_on channel=0 note=62 velocity=100 time=0
EXTRACT: note_on channel=2 note=69 velocity=127 time=0
EXTRACT: note_on channel=3 note=69 velocity=64 time=0
EXTRACT: note_on channel=9 note=35 velocity=127 time=0
EXTRACT: note_on channel=9 note=42 velocity=50 time=0
EXTRACT: note_on channel=0 note=57 velocity=0 time=0.09
EXTRACT: note_on channel=9 note=42 velocity=0 time=0
EXTRACT: note_on channel=0 note=67 velocity=0 time=0.03
EXTRACT: note_on channel=0 note=59 velocity=0 time=0
EXTRACT: note_on channel=0 note=62 velocity=0 time=0
EXTRACT: note_on channel=9 note=42 velocity=0 time=0
EXTRACT: note_on channel=5 note=93 velocity=70 time=0.03
EXTRACT: note_on channel=5 note=81 velocity=80 time=0
EXTRACT: note_on channel=9 note=42 velocity=127 time=0
EXTRACT: note_on channel=2 note=69 velocity=0 time=0.09
EXTRACT: note_on channel=3 note=69 velocity=0 time=0
EXTRACT: note_on channel=9 note=35 velocity=0 time=0
EXTRACT: note_on channel=0 note=43 velocity=100 time=0.06
EXTRACT: note_on channel=1 note=43 velocity=100 time=0
EXTRACT: note_on channel=3 note=69 velocity=64 time=0
EXTRACT: note_on channel=4 note=43 velocity=100 time=0
EXTRACT: note_on channel=9 note=35 velocity=127 time=0
EXTRACT: note_on channel=9 note=42 velocity=50 time=0
EXTRACT: note_on channel=5 note=93 velocity=0 time=0.09
EXTRACT: note_on channel=5 note=81 velocity=0 time=0
EXTRACT: note_on channel=9 note=42 velocity=0 time=0
EXTRACT: note_on channel=3 note=69 velocity=0 time=0.03
EXTRACT: note_on channel=9 note=42 velocity=0 time=0
EXTRACT: note_on channel=0 note=67 velocity=100 time=0.03
EXTRACT: note_on channel=0 note=59 velocity=100 time=0
EXTRACT: note_on channel=0 note=62 velocity=100 time=0
EXTRACT: note_on channel=2 note=54 velocity=100 time=0
EXTRACT: note_on channel=2 note=62 velocity=100 time=0
EXTRACT: note_on channel=2 note=66 velocity=127 time=0
EXTRACT: note_on channel=9 note=35 velocity=127 time=0
EXTRACT: note_on channel=9 note=42 velocity=127 time=0
EXTRACT: note_on channel=0 note=43 velocity=0 time=0.09
EXTRACT: note_on channel=1 note=43 velocity=0 time=0
EXTRACT: note_on channel=4 note=43 velocity=0 time=0
EXTRACT: note_on channel=9 note=35 velocity=0 time=0
EXTRACT: note_on channel=3 note=69 velocity=64 time=0.06
EXTRACT: note_on channel=9 note=42 velocity=50 time=0
EXTRACT: note_on channel=0 note=67 velocity=0 time=0.09
EXTRACT: note_on channel=0 note=59 velocity=0 time=0
EXTRACT: note_on channel=0 note=62 velocity=0 time=0
EXTRACT: note_on channel=2 note=54 velocity=0 time=0
EXTRACT: note_on channel=2 note=62 velocity=0 time=0
EXTRACT: note_on channel=2 note=66 velocity=0 time=0
EXTRACT: note_on channel=9 note=35 velocity=0 time=0
EXTRACT: note_on channel=9 note=42 velocity=0 time=0
EXTRACT: note_on channel=9 note=42 velocity=0 time=0.03
EXTRACT: note_on channel=0 note=43 velocity=100 time=0.03
EXTRACT: note_on channel=1 note=43 velocity=100 time=0
EXTRACT: note_on channel=2 note=57 velocity=100 time=0
EXTRACT: note_on channel=2 note=66 velocity=100 time=0
EXTRACT: note_on channel=2 note=69 velocity=127 time=0
EXTRACT: note_on channel=3 note=69 velocity=64 time=0
EXTRACT: note_on channel=4 note=43 velocity=100 time=0
EXTRACT: note_on channel=5 note=93 velocity=70 time=0
EXTRACT: note_on channel=5 note=81 velocity=80 time=0
EXTRACT: note_on channel=9 note=38 velocity=127 time=0
EXTRACT: note_on channel=9 note=42 velocity=127 time=0
EXTRACT: note_on channel=3 note=69 velocity=0 time=0.09
EXTRACT: note_on channel=0 note=67 velocity=100 time=0.06
EXTRACT: note_on channel=0 note=59 velocity=100 time=0
EXTRACT: note_on channel=0 note=62 velocity=100 time=0
EXTRACT: note_on channel=9 note=42 velocity=50 time=0
EXTRACT: note_on channel=2 note=57 velocity=0 time=0.09
EXTRACT: note_on channel=2 note=66 velocity=0 time=0
EXTRACT: note_on channel=2 note=69 velocity=0 time=0
EXTRACT: note_on channel=3 note=69 velocity=0 time=0
EXTRACT: note_on channel=5 note=93 velocity=0 time=0
EXTRACT: note_on channel=5 note=81 velocity=0 time=0
EXTRACT: note_on channel=9 note=38 velocity=0 time=0
EXTRACT: note_on channel=9 note=42 velocity=0 time=0
EXTRACT: note_on channel=9 note=42 velocity=0 time=0.03
EXTRACT: note_on channel=2 note=54 velocity=100 time=0.03
EXTRACT: note_on channel=2 note=62 velocity=100 time=0
EXTRACT: note_on channel=2 note=66 velocity=127 time=0
EXTRACT: note_on channel=9 note=42 velocity=127 time=0
EXTRACT: note_on channel=0 note=67 velocity=0 time=0.09
EXTRACT: note_on channel=0 note=59 velocity=0 time=0
EXTRACT: note_on channel=0 note=62 velocity=0 time=0
EXTRACT: note_on channel=9 note=42 velocity=50 time=0.06
EXTRACT: note_on channel=0 note=43 velocity=0 time=0.03
EXTRACT: note_on channel=1 note=43 velocity=0 time=0
EXTRACT: note_on channel=4 note=43 velocity=0 time=0
EXTRACT: note_on channel=2 note=54 velocity=0 time=0.06
EXTRACT: note_on channel=2 note=62 velocity=0 time=0
EXTRACT: note_on channel=2 note=66 velocity=0 time=0
EXTRACT: note_on channel=9 note=42 velocity=0 time=0
EXTRACT: note_on channel=9 note=42 velocity=0 time=0.03
EXTRACT: note_on channel=0 note=45 velocity=100 time=0.03
EXTRACT: note_on channel=1 note=45 velocity=100 time=0
EXTRACT: note_on channel=2 note=61 velocity=100 time=0
EXTRACT: note_on channel=2 note=69 velocity=100 time=0
EXTRACT: note_on channel=2 note=73 velocity=127 time=0
EXTRACT: note_on channel=4 note=45 velocity=100 time=0
EXTRACT: note_on channel=5 note=93 velocity=70 time=0
EXTRACT: note_on channel=5 note=81 velocity=80 time=0
EXTRACT: note_on channel=9 note=35 velocity=127 time=0
EXTRACT: note_on channel=9 note=42 velocity=127 time=0
EXTRACT: note_on channel=9 note=42 velocity=0 time=0.12
EXTRACT: note_on channel=9 note=42 velocity=50 time=0.03
EXTRACT: note_on channel=0 note=45 velocity=0 time=0.09
EXTRACT: note_on channel=1 note=45 velocity=0 time=0
EXTRACT: note_on channel=2 note=61 velocity=0 time=0
EXTRACT: note_on channel=2 note=69 velocity=0 time=0
EXTRACT: note_on channel=2 note=73 velocity=0 time=0
EXTRACT: note_on channel=4 note=45 velocity=0 time=0
EXTRACT: note_on channel=5 note=93 velocity=0 time=0
EXTRACT: note_on channel=5 note=81 velocity=0 time=0
EXTRACT: note_on channel=9 note=35 velocity=0 time=0
EXTRACT: note_on channel=9 note=42 velocity=0 time=0.03
EXTRACT: note_on channel=0 note=45 velocity=100 time=0.03
EXTRACT: note_on channel=1 note=45 velocity=100 time=0
EXTRACT: note_on channel=2 note=61 velocity=100 time=0
EXTRACT: note_on channel=2 note=69 velocity=100 time=0
EXTRACT: note_on channel=2 note=73 velocity=127 time=0
EXTRACT: note_on channel=3 note=69 velocity=64 time=0
EXTRACT: note_on channel=4 note=45 velocity=100 time=0
EXTRACT: note_on channel=9 note=42 velocity=127 time=0
EXTRACT: note_on channel=3 note=69 velocity=0 time=0.12
EXTRACT: note_on channel=3 note=69 velocity=64 time=0.03
EXTRACT: note_on channel=9 note=42 velocity=50 time=0
EXTRACT: note_on channel=2 note=61 velocity=0 time=0.09
EXTRACT: note_on channel=2 note=69 velocity=0 time=0
EXTRACT: note_on channel=2 note=73 velocity=0 time=0
EXTRACT: note_on channel=9 note=42 velocity=0 time=0
EXTRACT: note_on channel=3 note=69 velocity=0 time=0.03
EXTRACT: note_on channel=9 note=42 velocity=0 time=0
EXTRACT: note_on channel=0 note=57 velocity=100 time=0.03
EXTRACT: note_on channel=0 note=62 velocity=100 time=0
EXTRACT: note_on channel=0 note=66 velocity=100 time=0
EXTRACT: note_on channel=2 note=72 velocity=100 time=0
EXTRACT: note_on channel=3 note=69 velocity=64 time=0
EXTRACT: note_on channel=5 note=93 velocity=70 time=0
EXTRACT: note_on channel=5 note=81 velocity=80 time=0
EXTRACT: note_on channel=9 note=38 velocity=127 time=0
EXTRACT: note_on channel=9 note=42 velocity=127 time=0
EXTRACT: note_on channel=9 note=42 velocity=50 time=0.15
EXTRACT: note_on channel=1 note=45 velocity=0 time=0.03
EXTRACT: note_on channel=4 note=45 velocity=0 time=0
EXTRACT: note_on channel=0 note=57 velocity=0 time=0.06
EXTRACT: note_on channel=0 note=62 velocity=0 time=0
EXTRACT: note_on channel=0 note=66 velocity=0 time=0
EXTRACT: note_on channel=2 note=72 velocity=0 time=0
EXTRACT: note_on channel=3 note=69 velocity=0 time=0
EXTRACT: note_on channel=5 note=93 velocity=0 time=0
EXTRACT: note_on channel=5 note=81 velocity=0 time=0
EXTRACT: note_on channel=9 note=38 velocity=0 time=0
EXTRACT: note_on channel=9 note=42 velocity=0 time=0
EXTRACT: note_on channel=9 note=42 velocity=0 time=0.03
EXTRACT: note_on channel=0 note=57 velocity=100 time=0.03
EXTRACT: note_on channel=2 note=72 velocity=100 time=0
EXTRACT: note_on channel=3 note=69 velocity=64 time=0
EXTRACT: note_on channel=9 note=42 velocity=127 time=0
EXTRACT: note_on channel=3 note=69 velocity=0 time=0.12
EXTRACT: note_on channel=0 note=57 velocity=100 time=0.03
EXTRACT: note_on channel=0 note=61 velocity=100 time=0
EXTRACT: note_on channel=0 note=64 velocity=100 time=0
EXTRACT: note_on channel=3 note=69 velocity=64 time=0
EXTRACT: note_on channel=9 note=35 velocity=127 time=0
EXTRACT: note_on channel=9 note=42 velocity=50 time=0
EXTRACT: note_on channel=0 note=57 velocity=0 time=0.09
EXTRACT: note_on channel=2 note=72 velocity=0 time=0
EXTRACT: note_on channel=9 note=42 velocity=0 time=0
EXTRACT: note_on channel=0 note=57 velocity=0 time=0.03
EXTRACT: note_on channel=0 note=61 velocity=0 time=0
EXTRACT: note_on channel=0 note=64 velocity=0 time=0
EXTRACT: note_on channel=9 note=42 velocity=0 time=0
EXTRACT: note_on channel=5 note=93 velocity=70 time=0.03
EXTRACT: note_on channel=5 note=81 velocity=80 time=0
EXTRACT: note_on channel=9 note=42 velocity=127 time=0
EXTRACT: note_on channel=0 note=45 velocity=0 time=0.06
EXTRACT: note_on channel=3 note=69 velocity=0 time=0.03
EXTRACT: note_on channel=9 note=35 velocity=0 time=0
EXTRACT: note_on channel=0 note=45 velocity=100 time=0.06
EXTRACT: note_on channel=1 note=45 velocity=100 time=0
EXTRACT: note_on channel=3 note=69 velocity=64 time=0
EXTRACT: note_on channel=4 note=45 velocity=100 time=0
EXTRACT: note_on channel=9 note=35 velocity=127 time=0
EXTRACT: note_on channel=9 note=42 velocity=50 time=0
EXTRACT: note_on channel=5 note=93 velocity=0 time=0.09
EXTRACT: note_on channel=5 note=81 velocity=0 time=0
EXTRACT: note_on channel=9 note=42 velocity=0 time=0
EXTRACT: note_on channel=3 note=69 velocity=0 time=0.03
EXTRACT: note_on channel=9 note=42 velocity=0 time=0
EXTRACT: note_on channel=0 note=57 velocity=100 time=0.03
EXTRACT: note_on channel=0 note=61 velocity=100 time=0
EXTRACT: note_on channel=0 note=64 velocity=100 time=0
EXTRACT: note_on channel=2 note=66 velocity=127 time=0
EXTRACT: note_on channel=9 note=35 velocity=127 time=0
EXTRACT: note_on channel=9 note=42 velocity=127 time=0
EXTRACT: note_on channel=0 note=45 velocity=0 time=0.09
EXTRACT: note_on channel=1 note=45 velocity=0 time=0
EXTRACT: note_on channel=4 note=45 velocity=0 time=0
EXTRACT: note_on channel=9 note=35 velocity=0 time=0
EXTRACT: note_on channel=3 note=69 velocity=64 time=0.06
EXTRACT: note_on channel=9 note=42 velocity=50 time=0
EXTRACT: note_on channel=0 note=57 velocity=0 time=0.09
EXTRACT: note_on channel=0 note=61 velocity=0 time=0
EXTRACT: note_on channel=0 note=64 velocity=0 time=0
EXTRACT: note_on channel=2 note=66 velocity=0 time=0
EXTRACT: note_on channel=9 note=35 velocity=0 time=0
EXTRACT: note_on channel=9 note=42 velocity=0 time=0
EXTRACT: note_on channel=9 note=42 velocity=0 time=0.03
EXTRACT: note_on channel=0 note=45 velocity=100 time=0.03
EXTRACT: note_on channel=1 note=45 velocity=100 time=0
EXTRACT: note_on channel=2 note=69 velocity=127 time=0
EXTRACT: note_on channel=3 note=69 velocity=64 time=0
EXTRACT: note_on channel=4 note=45 velocity=100 time=0
EXTRACT: note_on channel=5 note=93 velocity=70 time=0
EXTRACT: note_on channel=5 note=81 velocity=80 time=0
EXTRACT: note_on channel=9 note=38 velocity=127 time=0
EXTRACT: note_on channel=9 note=42 velocity=127 time=0
EXTRACT: note_on channel=3 note=69 velocity=0 time=0.09
EXTRACT: note_on channel=0 note=57 velocity=100 time=0.06
EXTRACT: note_on channel=0 note=61 velocity=100 time=0
EXTRACT: note_on channel=0 note=64 velocity=100 time=0
EXTRACT: note_on channel=9 note=42 velocity=50 time=0
EXTRACT: note_on channel=2 note=69 velocity=0 time=0.09
EXTRACT: note_on channel=3 note=69 velocity=0 time=0
EXTRACT: note_on channel=5 note=93 velocity=0 time=0
EXTRACT: note_on channel=5 note=81 velocity=0 time=0
EXTRACT: note_on channel=9 note=38 velocity=0 time=0
EXTRACT: note_on channel=9 note=42 velocity=0 time=0
EXTRACT: note_on channel=9 note=42 velocity=0 time=0.03
EXTRACT: note_on channel=2 note=69 velocity=127 time=0.03
EXTRACT: note_on channel=9 note=42 velocity=127 time=0
EXTRACT: note_on channel=0 note=57 velocity=0 time=0.09
EXTRACT: note_on channel=0 note=61 velocity=0 time=0
EXTRACT: note_on channel=0 note=64 velocity=0 time=0
EXTRACT: note_on channel=9 note=42 velocity=50 time=0.06
EXTRACT: note_on channel=0 note=45 velocity=0 time=0.03
EXTRACT: note_on channel=1 note=45 velocity=0 time=0
EXTRACT: note_on channel=4 note=45 velocity=0 time=0
EXTRACT: note_on channel=2 note=69 velocity=0 time=0.06
EXTRACT: note_on channel=9 note=42 velocity=0 time=0
EXTRACT: note_on channel=9 note=42 velocity=0 time=0.03
EXTRACT: note_on channel=0 note=42 velocity=100 time=0.03
EXTRACT: note_on channel=1 note=42 velocity=100 time=0
EXTRACT: note_on channel=2 note=76 velocity=127 time=0
EXTRACT: note_on channel=4 note=42 velocity=100 time=0
EXTRACT: note_on channel=5 note=93 velocity=70 time=0
EXTRACT: note_on channel=5 note=81 velocity=80 time=0
EXTRACT: note_on channel=9 note=35 velocity=127 time=0
EXTRACT: note_on channel=9 note=42 velocity=127 time=0
EXTRACT: note_on channel=9 note=42 velocity=0 time=0.12
EXTRACT: note_on channel=9 note=42 velocity=50 time=0.03
EXTRACT: note_on channel=0 note=42 velocity=0 time=0.09
EXTRACT: note_on channel=1 note=42 velocity=0 time=0
EXTRACT: note_on channel=2 note=76 velocity=0 time=0
EXTRACT: note_on channel=4 note=42 velocity=0 time=0
EXTRACT: note_on channel=5 note=93 velocity=0 time=0
EXTRACT: note_on channel=5 note=81 velocity=0 time=0
EXTRACT: note_on channel=9 note=35 velocity=0 time=0
EXTRACT: note_on channel=9 note=42 velocity=0 time=0.03
EXTRACT: note_on channel=0 note=42 velocity=100 time=0.03
EXTRACT: note_on channel=1 note=42 velocity=100 time=0
EXTRACT: note_on channel=3 note=69 velocity=64 time=0
EXTRACT: note_on channel=4 note=42 velocity=100 time=0
EXTRACT: note_on channel=9 note=42 velocity=127 time=0
EXTRACT: note_on channel=3 note=69 velocity=0 time=0.12
EXTRACT: note_on channel=3 note=69 velocity=64 time=0.03
EXTRACT: note_on channel=9 note=42 velocity=50 time=0
EXTRACT: note_on channel=9 note=42 velocity=0 time=0.09
EXTRACT: note_on channel=3 note=69 velocity=0 time=0.03
EXTRACT: note_on channel=9 note=42 velocity=0 time=0
EXTRACT: note_on channel=0 note=57 velocity=100 time=0.03
EXTRACT: note_on channel=0 note=62 velocity=100 time=0
EXTRACT: note_on channel=0 note=66 velocity=100 time=0
EXTRACT: note_on channel=2 note=74 velocity=127 time=0
EXTRACT: note_on channel=3 note=69 velocity=64 time=0
EXTRACT: note_on channel=5 note=93 velocity=70 time=0
EXTRACT: note_on channel=5 note=81 velocity=80 time=0
EXTRACT: note_on channel=9 note=38 velocity=127 time=0
EXTRACT: note_on channel=9 note=42 velocity=127 time=0
EXTRACT: note_on channel=9 note=42 velocity=50 time=0.15
EXTRACT: note_on channel=0 note=42 velocity=0 time=0.03
EXTRACT: note_on channel=1 note=42 velocity=0 time=0
EXTRACT: note_on channel=4 note=42 velocity=0 time=0
EXTRACT: note_on channel=0 note=57 velocity=0 time=0.06
EXTRACT: note_on channel=0 note=62 velocity=0 time=0
EXTRACT: note_on channel=0 note=66 velocity=0 time=0
EXTRACT: note_on channel=2 note=74 velocity=0 time=0
EXTRACT: note_on channel=3 note=69 velocity=0 time=0
EXTRACT: note_on channel=5 note=93 velocity=0 time=0
EXTRACT: note_on channel=5 note=81 velocity=0 time=0
EXTRACT: note_on channel=9 note=38 velocity=0 time=0
EXTRACT: note_on channel=9 note=42 velocity=0 time=0
EXTRACT: note_on channel=9 note=42 velocity=0 time=0.03
EXTRACT: note_on channel=0 note=57 velocity=100 time=0.03
EXTRACT: note_on channel=3 note=69 velocity=64 time=0
EXTRACT: note_on channel=9 note=42 velocity=127 time=0
EXTRACT: note_on channel=3 note=69 velocity=0 time=0.12
EXTRACT: note_on channel=0 note=67 velocity=100 time=0.03
EXTRACT: note_on channel=0 note=59 velocity=100 time=0
EXTRACT: note_on channel=0 note=62 velocity=100 time=0
EXTRACT: note_on channel=3 note=69 velocity=64 time=0
EXTRACT: note_on channel=9 note=35 velocity=127 time=0
EXTRACT: note_on channel=9 note=42 velocity=50 time=0
EXTRACT: note_on channel=0 note=57 velocity=0 time=0.09
EXTRACT: note_on channel=9 note=42 velocity=0 time=0
EXTRACT: note_on channel=0 note=67 velocity=0 time=0.03
EXTRACT: note_on channel=0 note=59 velocity=0 time=0
EXTRACT: note_on channel=0 note=62 velocity=0 time=0
EXTRACT: note_on channel=9 note=42 velocity=0 time=0
EXTRACT: note_on channel=2 note=57 velocity=100 time=0.03
EXTRACT: note_on channel=2 note=66 velocity=100 time=0
EXTRACT: note_on channel=2 note=69 velocity=127 time=0
EXTRACT: note_on channel=5 note=93 velocity=70 time=0
EXTRACT: note_on channel=5 note=81 velocity=80 time=0
EXTRACT: note_on channel=9 note=42 velocity=127 time=0
EXTRACT: note_on channel=3 note=69 velocity=0 time=0.09
EXTRACT: note_on channel=9 note=35 velocity=0 time=0
EXTRACT: note_on channel=0 note=43 velocity=100 time=0.06
EXTRACT: note_on channel=1 note=43 velocity=100 time=0
EXTRACT: note_on channel=3 note=69 velocity=64 time=0
EXTRACT: note_on channel=4 note=43 velocity=100 time=0
EXTRACT: note_on channel=9 note=35 velocity=127 time=0
EXTRACT: note_on channel=9 note=42 velocity=50 time=0
EXTRACT: note_on channel=2 note=57 velocity=0 time=0.09
EXTRACT: note_on channel=2 note=66 velocity=0 time=0
EXTRACT: note_on channel=2 note=69 velocity=0 time=0
EXTRACT: note_on channel=5 note=93 velocity=0 time=0
EXTRACT: note_on channel=5 note=81 velocity=0 time=0
EXTRACT: note_on channel=9 note=42 velocity=0 time=0
EXTRACT: note_on channel=3 note=69 velocity=0 time=0.03
EXTRACT: note_on channel=9 note=42 velocity=0 time=0
EXTRACT: note_on channel=0 note=67 velocity=100 time=0.03
EXTRACT: note_on channel=0 note=59 velocity=100 time=0
EXTRACT: note_on channel=0 note=62 velocity=100 time=0
EXTRACT: note_on channel=2 note=57 velocity=100 time=0
EXTRACT: note_on channel=2 note=66 velocity=100 time=0
EXTRACT: note_on channel=2 note=69 velocity=127 time=0
EXTRACT: note_on channel=9 note=35 velocity=127 time=0
EXTRACT: note_on channel=9 note=42 velocity=127 time=0
EXTRACT: note_on channel=0 note=43 velocity=0 time=0.09
EXTRACT: note_on channel=1 note=43 velocity=0 time=0
EXTRACT: note_on channel=4 note=43 velocity=0 time=0
EXTRACT: note_on channel=9 note=35 velocity=0 time=0
EXTRACT: note_on channel=3 note=69 velocity=64 time=0.06
EXTRACT: note_on channel=9 note=42 velocity=50 time=0
EXTRACT: note_on channel=0 note=67 velocity=0 time=0.09
EXTRACT: note_on channel=0 note=59 velocity=0 time=0
EXTRACT: note_on channel=0 note=62 velocity=0 time=0
EXTRACT: note_on channel=2 note=57 velocity=0 time=0
EXTRACT: note_on channel=2 note=66 velocity=0 time=0
EXTRACT: note_on channel=2 note=69 velocity=0 time=0
EXTRACT: note_on channel=9 note=35 velocity=0 time=0
EXTRACT: note_on channel=9 note=42 velocity=0 time=0
EXTRACT: note_on channel=9 note=42 velocity=0 time=0.03
EXTRACT: note_on channel=0 note=43 velocity=100 time=0.03
EXTRACT: note_on channel=1 note=43 velocity=100 time=0
EXTRACT: note_on channel=2 note=57 velocity=100 time=0
EXTRACT: note_on channel=2 note=66 velocity=100 time=0
EXTRACT: note_on channel=2 note=69 velocity=127 time=0
EXTRACT: note_on channel=3 note=69 velocity=64 time=0
EXTRACT: note_on channel=4 note=43 velocity=100 time=0
EXTRACT: note_on channel=5 note=93 velocity=70 time=0
EXTRACT: note_on channel=5 note=81 velocity=80 time=0
EXTRACT: note_on channel=9 note=38 velocity=127 time=0
EXTRACT: note_on channel=9 note=42 velocity=127 time=0
EXTRACT: note_on channel=3 note=69 velocity=0 time=0.09
EXTRACT: note_on channel=0 note=67 velocity=100 time=0.06
EXTRACT: note_on channel=0 note=59 velocity=100 time=0
EXTRACT: note_on channel=0 note=62 velocity=100 time=0
EXTRACT: note_on channel=9 note=42 velocity=50 time=0
EXTRACT: note_on channel=2 note=57 velocity=0 time=0.09
EXTRACT: note_on channel=2 note=66 velocity=0 time=0
EXTRACT: note_on channel=2 note=69 velocity=0 time=0
EXTRACT: note_on channel=3 note=69 velocity=0 time=0
EXTRACT: note_on channel=5 note=93 velocity=0 time=0
EXTRACT: note_on channel=5 note=81 velocity=0 time=0
EXTRACT: note_on channel=9 note=38 velocity=0 time=0
EXTRACT: note_on channel=9 note=42 velocity=0 time=0
EXTRACT: note_on channel=9 note=42 velocity=0 time=0.03
EXTRACT: note_on channel=2 note=54 velocity=100 time=0.03
EXTRACT: note_on channel=2 note=62 velocity=100 time=0
EXTRACT: note_on channel=2 note=66 velocity=127 time=0
EXTRACT: note_on channel=9 note=42 velocity=127 time=0
EXTRACT: note_on channel=0 note=67 velocity=0 time=0.09
EXTRACT: note_on channel=0 note=59 velocity=0 time=0
EXTRACT: note_on channel=0 note=62 velocity=0 time=0
EXTRACT: note_on channel=9 note=42 velocity=50 time=0.06
EXTRACT: note_on channel=0 note=43 velocity=0 time=0.03
EXTRACT: note_on channel=1 note=43 velocity=0 time=0
EXTRACT: note_on channel=4 note=43 velocity=0 time=0
EXTRACT: note_on channel=2 note=54 velocity=0 time=0.06
EXTRACT: note_on channel=2 note=62 velocity=0 time=0
EXTRACT: note_on channel=2 note=66 velocity=0 time=0
EXTRACT: note_on channel=9 note=42 velocity=0 time=0
EXTRACT: note_on channel=9 note=42 velocity=0 time=0.03
EXTRACT: note_on channel=0 note=45 velocity=100 time=0.03
EXTRACT: note_on channel=1 note=45 velocity=100 time=0
EXTRACT: note_on channel=2 note=66 velocity=100 time=0
EXTRACT: note_on channel=2 note=57 velocity=100 time=0
EXTRACT: note_on channel=2 note=69 velocity=127 time=0
EXTRACT: note_on channel=4 note=45 velocity=100 time=0
EXTRACT: note_on channel=5 note=93 velocity=70 time=0
EXTRACT: note_on channel=5 note=81 velocity=80 time=0
EXTRACT: note_on channel=9 note=35 velocity=127 time=0
EXTRACT: note_on channel=9 note=42 velocity=127 time=0
EXTRACT: note_on channel=9 note=42 velocity=0 time=0.12
EXTRACT: note_on channel=9 note=42 velocity=50 time=0.03
EXTRACT: note_on channel=0 note=45 velocity=0 time=0.09
EXTRACT: note_on channel=1 note=45 velocity=0 time=0
EXTRACT: note_on channel=2 note=66 velocity=0 time=0
EXTRACT: note_on channel=2 note=57 velocity=0 time=0
EXTRACT: note_on channel=2 note=69 velocity=0 time=0
EXTRACT: note_on channel=4 note=45 velocity=0 time=0
EXTRACT: note_on channel=5 note=93 velocity=0 time=0
EXTRACT: note_on channel=5 note=81 velocity=0 time=0
EXTRACT: note_on channel=9 note=35 velocity=0 time=0
EXTRACT: note_on channel=9 note=42 velocity=0 time=0.03
EXTRACT: note_on channel=0 note=45 velocity=100 time=0.03
EXTRACT: note_on channel=1 note=45 velocity=100 time=0
EXTRACT: note_on channel=2 note=62 velocity=100 time=0
EXTRACT: note_on channel=2 note=54 velocity=100 time=0
EXTRACT: note_on channel=2 note=66 velocity=127 time=0
EXTRACT: note_on channel=3 note=69 velocity=64 time=0
EXTRACT: note_on channel=4 note=45 velocity=100 time=0
EXTRACT: note_on channel=9 note=42 velocity=127 time=0
EXTRACT: note_on channel=3 note=69 velocity=0 time=0.12
EXTRACT: note_on channel=3 note=69 velocity=64 time=0.03
EXTRACT: note_on channel=9 note=42 velocity=50 time=0
EXTRACT: note_on channel=2 note=62 velocity=0 time=0.09
EXTRACT: note_on channel=2 note=54 velocity=0 time=0
EXTRACT: note_on channel=2 note=66 velocity=0 time=0
EXTRACT: note_on channel=9 note=42 velocity=0 time=0
EXTRACT: note_on channel=3 note=69 velocity=0 time=0.03
EXTRACT: note_on channel=9 note=42 velocity=0 time=0
EXTRACT: note_on channel=0 note=57 velocity=100 time=0.03
EXTRACT: note_on channel=0 note=62 velocity=100 time=0
EXTRACT: note_on channel=0 note=66 velocity=100 time=0
EXTRACT: note_on channel=2 note=72 velocity=100 time=0
EXTRACT: note_on channel=3 note=69 velocity=64 time=0
EXTRACT: note_on channel=5 note=93 velocity=70 time=0
EXTRACT: note_on channel=5 note=81 velocity=80 time=0
EXTRACT: note_on channel=9 note=38 velocity=127 time=0
EXTRACT: note_on channel=9 note=42 velocity=127 time=0
EXTRACT: note_on channel=9 note=42 velocity=50 time=0.15
EXTRACT: note_on channel=1 note=45 velocity=0 time=0.03
EXTRACT: note_on channel=4 note=45 velocity=0 time=0
EXTRACT: note_on channel=0 note=57 velocity=0 time=0.06
EXTRACT: note_on channel=0 note=62 velocity=0 time=0
EXTRACT: note_on channel=0 note=66 velocity=0 time=0
EXTRACT: note_on channel=3 note=69 velocity=0 time=0
EXTRACT: note_on channel=5 note=93 velocity=0 time=0
EXTRACT: note_on channel=5 note=81 velocity=0 time=0
EXTRACT: note_on channel=9 note=38 velocity=0 time=0
EXTRACT: note_on channel=9 note=42 velocity=0 time=0
EXTRACT: note_on channel=9 note=42 velocity=0 time=0.03
EXTRACT: note_on channel=0 note=57 velocity=100 time=0.03
EXTRACT: note_on channel=3 note=69 velocity=64 time=0
EXTRACT: note_on channel=9 note=42 velocity=127 time=0
EXTRACT: note_on channel=3 note=69 velocity=0 time=0.12
EXTRACT: note_on channel=0 note=57 velocity=100 time=0.03
EXTRACT: note_on channel=0 note=61 velocity=100 time=0
EXTRACT: note_on channel=0 note=64 velocity=100 time=0
EXTRACT: note_on channel=3 note=69 velocity=64 time=0
EXTRACT: note_on channel=9 note=35 velocity=127 time=0
EXTRACT: note_on channel=9 note=42 velocity=50 time=0
EXTRACT: note_on channel=0 note=57 velocity=0 time=0.09
EXTRACT: note_on channel=9 note=42 velocity=0 time=0
EXTRACT: note_on channel=0 note=57 velocity=0 time=0.03
EXTRACT: note_on channel=0 note=61 velocity=0 time=0
EXTRACT: note_on channel=0 note=64 velocity=0 time=0
EXTRACT: note_on channel=9 note=42 velocity=0 time=0
EXTRACT: note_on channel=5 note=93 velocity=70 time=0.03
EXTRACT: note_on channel=5 note=81 velocity=80 time=0
EXTRACT: note_on channel=9 note=42 velocity=127 time=0
EXTRACT: note_on channel=0 note=45 velocity=0 time=0.06
EXTRACT: note_on channel=3 note=69 velocity=0 time=0.03
EXTRACT: note_on channel=9 note=35 velocity=0 time=0
EXTRACT: note_on channel=0 note=45 velocity=100 time=0.06
EXTRACT: note_on channel=1 note=45 velocity=100 time=0
EXTRACT: note_on channel=3 note=69 velocity=64 time=0
EXTRACT: note_on channel=4 note=45 velocity=100 time=0
EXTRACT: note_on channel=9 note=35 velocity=127 time=0
EXTRACT: note_on channel=9 note=42 velocity=50 time=0
EXTRACT: note_on channel=5 note=93 velocity=0 time=0.09
EXTRACT: note_on channel=5 note=81 velocity=0 time=0
EXTRACT: note_on channel=9 note=42 velocity=0 time=0
EXTRACT: note_on channel=3 note=69 velocity=0 time=0.03
EXTRACT: note_on channel=9 note=42 velocity=0 time=0
EXTRACT: note_on channel=0 note=57 velocity=100 time=0.03
EXTRACT: note_on channel=0 note=61 velocity=100 time=0
EXTRACT: note_on channel=0 note=64 velocity=100 time=0
EXTRACT: note_on channel=2 note=66 velocity=100 time=0
EXTRACT: note_on channel=2 note=66 velocity=127 time=0
EXTRACT: note_on channel=9 note=35 velocity=127 time=0
EXTRACT: note_on channel=9 note=42 velocity=127 time=0
EXTRACT: note_on channel=2 note=72 velocity=0 time=0.06
EXTRACT: note_on channel=0 note=45 velocity=0 time=0.03
EXTRACT: note_on channel=1 note=45 velocity=0 time=0
EXTRACT: note_on channel=4 note=45 velocity=0 time=0
EXTRACT: note_on channel=9 note=35 velocity=0 time=0
EXTRACT: note_on channel=3 note=69 velocity=64 time=0.06
EXTRACT: note_on channel=9 note=42 velocity=50 time=0
EXTRACT: note_on channel=0 note=57 velocity=0 time=0.09
EXTRACT: note_on channel=0 note=61 velocity=0 time=0
EXTRACT: note_on channel=0 note=64 velocity=0 time=0
EXTRACT: note_on channel=2 note=66 velocity=0 time=0
EXTRACT: note_on channel=2 note=66 velocity=0 time=0
EXTRACT: note_on channel=9 note=35 velocity=0 time=0
EXTRACT: note_on channel=9 note=42 velocity=0 time=0
EXTRACT: note_on channel=9 note=42 velocity=0 time=0.03
EXTRACT: note_on channel=0 note=45 velocity=100 time=0.03
EXTRACT: note_on channel=1 note=45 velocity=100 time=0
EXTRACT: note_on channel=2 note=69 velocity=100 time=0
EXTRACT: note_on channel=2 note=66 velocity=127 time=0
EXTRACT: note_on channel=3 note=69 velocity=64 time=0
EXTRACT: note_on channel=4 note=45 velocity=100 time=0
EXTRACT: note_on channel=5 note=93 velocity=70 time=0
EXTRACT: note_on channel=5 note=81 velocity=80 time=0
EXTRACT: note_on channel=9 note=38 velocity=127 time=0
EXTRACT: note_on channel=9 note=42 velocity=127 time=0
EXTRACT: note_on channel=3 note=69 velocity=0 time=0.09
EXTRACT: note_on channel=0 note=57 velocity=100 time=0.06
EXTRACT: note_on channel=0 note=61 velocity=100 time=0
EXTRACT: note_on channel=0 note=64 velocity=100 time=0
EXTRACT: note_on channel=9 note=42 velocity=50 time=0
EXTRACT: note_on channel=2 note=69 velocity=0 time=0.09
EXTRACT: note_on channel=2 note=66 velocity=0 time=0
EXTRACT: note_on channel=3 note=69 velocity=0 time=0
EXTRACT: note_on channel=5 note=93 velocity=0 time=0
EXTRACT: note_on channel=5 note=81 velocity=0 time=0
EXTRACT: note_on channel=9 note=38 velocity=0 time=0
EXTRACT: note_on channel=9 note=42 velocity=0 time=0
EXTRACT: note_on channel=9 note=42 velocity=0 time=0.03
EXTRACT: note_on channel=2 note=66 velocity=100 time=0.03
EXTRACT: note_on channel=2 note=66 velocity=127 time=0
EXTRACT: note_on channel=9 note=42 velocity=127 time=0
EXTRACT: note_on channel=0 note=57 velocity=0 time=0.09
EXTRACT: note_on channel=0 note=61 velocity=0 time=0
EXTRACT: note_on channel=0 note=64 velocity=0 time=0
EXTRACT: note_on channel=9 note=42 velocity=50 time=0.06
EXTRACT: note_on channel=0 note=45 velocity=0 time=0.03
EXTRACT: note_on channel=1 note=45 velocity=0 time=0
EXTRACT: note_on channel=4 note=45 velocity=0 time=0
EXTRACT: note_on channel=2 note=66 velocity=0 time=0.06
EXTRACT: note_on channel=2 note=66 velocity=0 time=0
EXTRACT: note_on channel=9 note=42 velocity=0 time=0
EXTRACT: note_on channel=9 note=42 velocity=0 time=0.03
EXTRACT: note_on channel=0 note=42 velocity=100 time=0.03
EXTRACT: note_on channel=1 note=42 velocity=100 time=0
EXTRACT: note_on channel=2 note=69 velocity=100 time=0
EXTRACT: note_on channel=2 note=66 velocity=127 time=0
EXTRACT: note_on channel=4 note=42 velocity=100 time=0
EXTRACT: note_on channel=5 note=93 velocity=70 time=0
EXTRACT: note_on channel=5 note=81 velocity=80 time=0
EXTRACT: note_on channel=9 note=35 velocity=127 time=0
EXTRACT: note_on channel=9 note=42 velocity=127 time=0
EXTRACT: note_on channel=9 note=42 velocity=0 time=0.12
EXTRACT: note_on channel=9 note=42 velocity=50 time=0.03
EXTRACT: note_on channel=0 note=42 velocity=0 time=0.09
EXTRACT: note_on channel=1 note=42 velocity=0 time=0
EXTRACT: note_on channel=2 note=69 velocity=0 time=0
EXTRACT: note_on channel=2 note=66 velocity=0 time=0
EXTRACT: note_on channel=4 note=42 velocity=0 time=0
EXTRACT: note_on channel=5 note=93 velocity=0 time=0
EXTRACT: note_on channel=5 note=81 velocity=0 time=0
EXTRACT: note_on channel=9 note=35 velocity=0 time=0
EXTRACT: note_on channel=9 note=42 velocity=0 time=0.03
EXTRACT: note_on channel=0 note=42 velocity=100 time=0.03
EXTRACT: note_on channel=1 note=42 velocity=100 time=0
EXTRACT: note_on channel=2 note=66 velocity=100 time=0
EXTRACT: note_on channel=2 note=66 velocity=127 time=0
EXTRACT: note_on channel=3 note=69 velocity=64 time=0
EXTRACT: note_on channel=4 note=42 velocity=100 time=0
EXTRACT: note_on channel=9 note=42 velocity=127 time=0
EXTRACT: note_on channel=3 note=69 velocity=0 time=0.12
EXTRACT: note_on channel=3 note=69 velocity=64 time=0.03
EXTRACT: note_on channel=9 note=42 velocity=50 time=0
EXTRACT: note_on channel=2 note=66 velocity=0 time=0.09
EXTRACT: note_on channel=2 note=66 velocity=0 time=0
EXTRACT: note_on channel=9 note=42 velocity=0 time=0
EXTRACT: note_on channel=3 note=69 velocity=0 time=0.03
EXTRACT: note_on channel=9 note=42 velocity=0 time=0
EXTRACT: note_on channel=0 note=57 velocity=100 time=0.03
EXTRACT: note_on channel=0 note=62 velocity=100 time=0
EXTRACT: note_on channel=0 note=66 velocity=100 time=0
EXTRACT: note_on channel=2 note=64 velocity=127 time=0
EXTRACT: note_on channel=3 note=69 velocity=64 time=0
EXTRACT: note_on channel=5 note=93 velocity=70 time=0
EXTRACT: note_on channel=5 note=81 velocity=80 time=0
EXTRACT: note_on channel=9 note=38 velocity=127 time=0
EXTRACT: note_on channel=9 note=42 velocity=127 time=0
EXTRACT: note_on channel=9 note=42 velocity=50 time=0.15
EXTRACT: note_on channel=0 note=42 velocity=0 time=0.03
EXTRACT: note_on channel=1 note=42 velocity=0 time=0
EXTRACT: note_on channel=4 note=42 velocity=0 time=0
EXTRACT: note_on channel=0 note=57 velocity=0 time=0.06
EXTRACT: note_on channel=0 note=62 velocity=0 time=0
EXTRACT: note_on channel=0 note=66 velocity=0 time=0
EXTRACT: note_on channel=2 note=64 velocity=0 time=0
EXTRACT: note_on channel=3 note=69 velocity=0 time=0
EXTRACT: note_on channel=5 note=93 velocity=0 time=0
EXTRACT: note_on channel=5 note=81 velocity=0 time=0
EXTRACT: note_on channel=9 note=38 velocity=0 time=0
EXTRACT: note_on channel=9 note=42 velocity=0 time=0
EXTRACT: note_on channel=9 note=42 velocity=0 time=0.03
EXTRACT: note_on channel=0 note=57 velocity=100 time=0.03
EXTRACT: note_on channel=2 note=62 velocity=127 time=0
EXTRACT: note_on channel=3 note=69 velocity=64 time=0
EXTRACT: note_on channel=9 note=42 velocity=127 time=0
EXTRACT: note_on channel=2 note=62 velocity=0 time=0.12
EXTRACT: note_on channel=3 note=69 velocity=0 time=0
EXTRACT: note_on channel=0 note=67 velocity=100 time=0.03
EXTRACT: note_on channel=0 note=59 velocity=100 time=0
EXTRACT: note_on channel=0 note=62 velocity=100 time=0
EXTRACT: note_on channel=2 note=60 velocity=127 time=0
EXTRACT: note_on channel=3 note=69 velocity=64 time=0
EXTRACT: note_on channel=9 note=35 velocity=127 time=0
EXTRACT: note_on channel=9 note=42 velocity=50 time=0
EXTRACT: note_on channel=0 note=57 velocity=0 time=0.09
EXTRACT: note_on channel=9 note=42 velocity=0 time=0
EXTRACT: note_on channel=0 note=67 velocity=0 time=0.03
EXTRACT: note_on channel=0 note=59 velocity=0 time=0
EXTRACT: note_on channel=0 note=62 velocity=0 time=0
EXTRACT: note_on channel=9 note=42 velocity=0 time=0
EXTRACT: note_on channel=5 note=93 velocity=70 time=0.03
EXTRACT: note_on channel=5 note=81 velocity=80 time=0
EXTRACT: note_on channel=9 note=42 velocity=127 time=0
EXTRACT: note_on channel=2 note=60 velocity=0 time=0.09
EXTRACT: note_on channel=3 note=69 velocity=0 time=0
EXTRACT: note_on channel=9 note=35 velocity=0 time=0
EXTRACT: note_on channel=0 note=43 velocity=100 time=0.06
EXTRACT: note_on channel=1 note=43 velocity=100 time=0
EXTRACT: note_on channel=3 note=69 velocity=64 time=0
EXTRACT: note_on channel=4 note=43 velocity=100 time=0
EXTRACT: note_on channel=9 note=35 velocity=127 time=0
EXTRACT: note_on channel=9 note=42 velocity=50 time=0
EXTRACT: note_on channel=5 note=93 velocity=0 time=0.09
EXTRACT: note_on channel=5 note=81 velocity=0 time=0
EXTRACT: note_on channel=9 note=42 velocity=0 time=0
EXTRACT: note_on channel=3 note=69 velocity=0 time=0.03
EXTRACT: note_on channel=9 note=42 velocity=0 time=0
EXTRACT: note_on channel=0 note=67 velocity=100 time=0.03
EXTRACT: note_on channel=0 note=59 velocity=100 time=0
EXTRACT: note_on channel=0 note=62 velocity=100 time=0
EXTRACT: note_on channel=2 note=54 velocity=100 time=0
EXTRACT: note_on channel=2 note=62 velocity=100 time=0
EXTRACT: note_on channel=2 note=66 velocity=127 time=0
EXTRACT: note_on channel=9 note=35 velocity=127 time=0
EXTRACT: note_on channel=9 note=42 velocity=127 time=0
EXTRACT: note_on channel=0 note=43 velocity=0 time=0.09
EXTRACT: note_on channel=1 note=43 velocity=0 time=0
EXTRACT: note_on channel=4 note=43 velocity=0 time=0
EXTRACT: note_on channel=9 note=35 velocity=0 time=0
EXTRACT: note_on channel=3 note=69 velocity=64 time=0.06
EXTRACT: note_on channel=9 note=42 velocity=50 time=0
EXTRACT: note_on channel=0 note=67 velocity=0 time=0.09
EXTRACT: note_on channel=0 note=59 velocity=0 time=0
EXTRACT: note_on channel=0 note=62 velocity=0 time=0
EXTRACT: note_on channel=2 note=54 velocity=0 time=0
EXTRACT: note_on channel=2 note=62 velocity=0 time=0
EXTRACT: note_on channel=2 note=66 velocity=0 time=0
EXTRACT: note_on channel=9 note=35 velocity=0 time=0
EXTRACT: note_on channel=9 note=42 velocity=0 time=0
EXTRACT: note_on channel=9 note=42 velocity=0 time=0.03
EXTRACT: note_on channel=0 note=43 velocity=100 time=0.03
EXTRACT: note_on channel=1 note=43 velocity=100 time=0
EXTRACT: note_on channel=2 note=57 velocity=100 time=0
EXTRACT: note_on channel=2 note=66 velocity=100 time=0
EXTRACT: note_on channel=2 note=69 velocity=127 time=0
EXTRACT: note_on channel=3 note=69 velocity=64 time=0
EXTRACT: note_on channel=4 note=43 velocity=100 time=0
EXTRACT: note_on channel=5 note=93 velocity=70 time=0
EXTRACT: note_on channel=5 note=81 velocity=80 time=0
EXTRACT: note_on channel=9 note=38 velocity=127 time=0
EXTRACT: note_on channel=9 note=42 velocity=127 time=0
EXTRACT: note_on channel=3 note=69 velocity=0 time=0.09
EXTRACT: note_on channel=0 note=67 velocity=100 time=0.06
EXTRACT: note_on channel=0 note=59 velocity=100 time=0
EXTRACT: note_on channel=0 note=62 velocity=100 time=0
EXTRACT: note_on channel=9 note=42 velocity=50 time=0
EXTRACT: note_on channel=2 note=57 velocity=0 time=0.09
EXTRACT: note_on channel=2 note=66 velocity=0 time=0
EXTRACT: note_on channel=2 note=69 velocity=0 time=0
EXTRACT: note_on channel=3 note=69 velocity=0 time=0
EXTRACT: note_on channel=5 note=93 velocity=0 time=0
EXTRACT: note_on channel=5 note=81 velocity=0 time=0
EXTRACT: note_on channel=9 note=38 velocity=0 time=0
EXTRACT: note_on channel=9 note=42 velocity=0 time=0
EXTRACT: note_on channel=9 note=42 velocity=0 time=0.03
EXTRACT: note_on channel=2 note=54 velocity=100 time=0.03
EXTRACT: note_on channel=2 note=62 velocity=100 time=0
EXTRACT: note_on channel=2 note=66 velocity=127 time=0
EXTRACT: note_on channel=9 note=42 velocity=127 time=0
EXTRACT: note_on channel=0 note=67 velocity=0 time=0.09
EXTRACT: note_on channel=0 note=59 velocity=0 time=0
EXTRACT: note_on channel=0 note=62 velocity=0 time=0
EXTRACT: note_on channel=9 note=42 velocity=50 time=0.06
EXTRACT: note_on channel=0 note=43 velocity=0 time=0.03
EXTRACT: note_on channel=1 note=43 velocity=0 time=0
EXTRACT: note_on channel=4 note=43 velocity=0 time=0
EXTRACT: note_on channel=2 note=54 velocity=0 time=0.06
EXTRACT: note_on channel=2 note=62 velocity=0 time=0
EXTRACT: note_on channel=2 note=66 velocity=0 time=0
EXTRACT: note_on channel=9 note=42 velocity=0 time=0
EXTRACT: note_on channel=9 note=42 velocity=0 time=0.03
EXTRACT: note_on channel=0 note=45 velocity=100 time=0.03
EXTRACT: note_on channel=1 note=45 velocity=100 time=0
EXTRACT: note_on channel=2 note=57 velocity=100 time=0
EXTRACT: note_on channel=2 note=66 velocity=100 time=0
EXTRACT: note_on channel=2 note=69 velocity=127 time=0
EXTRACT: note_on channel=4 note=45 velocity=100 time=0
EXTRACT: note_on channel=5 note=93 velocity=70 time=0
EXTRACT: note_on channel=5 note=81 velocity=80 time=0
EXTRACT: note_on channel=9 note=35 velocity=127 time=0
EXTRACT: note_on channel=9 note=42 velocity=127 time=0
EXTRACT: note_on channel=2 note=57 velocity=0 time=0.12
EXTRACT: note_on channel=2 note=66 velocity=0 time=0
EXTRACT: note_on channel=2 note=69 velocity=0 time=0
EXTRACT: note_on channel=9 note=42 velocity=0 time=0
EXTRACT: note_on channel=2 note=66 velocity=100 time=0.03
EXTRACT: note_on channel=2 note=57 velocity=100 time=0
EXTRACT: note_on channel=2 note=69 velocity=127 time=0
EXTRACT: note_on channel=9 note=42 velocity=50 time=0
EXTRACT: note_on channel=0 note=45 velocity=0 time=0.09
EXTRACT: note_on channel=1 note=45 velocity=0 time=0
EXTRACT: note_on channel=4 note=45 velocity=0 time=0
EXTRACT: note_on channel=5 note=93 velocity=0 time=0
EXTRACT: note_on channel=5 note=81 velocity=0 time=0
EXTRACT: note_on channel=9 note=35 velocity=0 time=0
EXTRACT: note_on channel=2 note=66 velocity=0 time=0.03
EXTRACT: note_on channel=2 note=57 velocity=0 time=0
EXTRACT: note_on channel=2 note=69 velocity=0 time=0
EXTRACT: note_on channel=9 note=42 velocity=0 time=0
EXTRACT: note_on channel=0 note=45 velocity=100 time=0.03
EXTRACT: note_on channel=1 note=45 velocity=100 time=0
EXTRACT: note_on channel=2 note=69 velocity=127 time=0
EXTRACT: note_on channel=2 note=54 velocity=100 time=0
EXTRACT: note_on channel=2 note=62 velocity=100 time=0
EXTRACT: note_on channel=2 note=66 velocity=127 time=0
EXTRACT: note_on channel=3 note=69 velocity=64 time=0
EXTRACT: note_on channel=4 note=45 velocity=100 time=0
EXTRACT: note_on channel=9 note=42 velocity=127 time=0
EXTRACT: note_on channel=2 note=69 velocity=0 time=0.12
EXTRACT: note_on channel=3 note=69 velocity=0 time=0
EXTRACT: note_on channel=2 note=69 velocity=127 time=0.03
EXTRACT: note_on channel=3 note=69 velocity=64 time=0
EXTRACT: note_on channel=9 note=42 velocity=50 time=0
EXTRACT: note_on channel=2 note=54 velocity=0 time=0.09
EXTRACT: note_on channel=2 note=62 velocity=0 time=0
EXTRACT: note_on channel=2 note=66 velocity=0 time=0
EXTRACT: note_on channel=9 note=42 velocity=0 time=0
EXTRACT: note_on channel=2 note=69 velocity=0 time=0.03
EXTRACT: note_on channel=3 note=69 velocity=0 time=0
EXTRACT: note_on channel=9 note=42 velocity=0 time=0
EXTRACT: note_on channel=0 note=57 velocity=100 time=0.03
EXTRACT: note_on channel=0 note=62 velocity=100 time=0
EXTRACT: note_on channel=0 note=66 velocity=100 time=0
EXTRACT: note_on channel=2 note=66 velocity=127 time=0
EXTRACT: note_on channel=3 note=69 velocity=64 time=0
EXTRACT: note_on channel=5 note=93 velocity=70 time=0
EXTRACT: note_on channel=5 note=81 velocity=80 time=0
EXTRACT: note_on channel=9 note=38 velocity=127 time=0
EXTRACT: note_on channel=9 note=42 velocity=127 time=0
EXTRACT: note_on channel=9 note=42 velocity=50 time=0.15
EXTRACT: note_on channel=1 note=45 velocity=0 time=0.03
EXTRACT: note_on channel=4 note=45 velocity=0 time=0
EXTRACT: note_on channel=0 note=57 velocity=0 time=0.06
EXTRACT: note_on channel=0 note=62 velocity=0 time=0
EXTRACT: note_on channel=0 note=66 velocity=0 time=0
EXTRACT: note_on channel=2 note=66 velocity=0 time=0
EXTRACT: note_on channel=3 note=69 velocity=0 time=0
EXTRACT: note_on channel=5 note=93 velocity=0 time=0
EXTRACT: note_on channel=5 note=81 velocity=0 time=0
EXTRACT: note_on channel=9 note=38 velocity=0 time=0
EXTRACT: note_on channel=9 note=42 velocity=0 time=0
EXTRACT: note_on channel=9 note=42 velocity=0 time=0.03
EXTRACT: note_on channel=0 note=57 velocity=100 time=0.03
EXTRACT: note_on channel=2 note=57 velocity=100 time=0
EXTRACT: note_on channel=2 note=66 velocity=100 time=0
EXTRACT: note_on channel=2 note=69 velocity=127 time=0
EXTRACT: note_on channel=3 note=69 velocity=64 time=0
EXTRACT: note_on channel=9 note=42 velocity=127 time=0
EXTRACT: note_on channel=3 note=69 velocity=0 time=0.12
EXTRACT: note_on channel=0 note=57 velocity=100 time=0.03
EXTRACT: note_on channel=0 note=61 velocity=100 time=0
EXTRACT: note_on channel=0 note=64 velocity=100 time=0
EXTRACT: note_on channel=3 note=69 velocity=64 time=0
EXTRACT: note_on channel=9 note=35 velocity=127 time=0
EXTRACT: note_on channel=9 note=42 velocity=50 time=0
EXTRACT: note_on channel=0 note=57 velocity=0 time=0.09
EXTRACT: note_on channel=2 note=57 velocity=0 time=0
EXTRACT: note_on channel=2 note=66 velocity=0 time=0
EXTRACT: note_on channel=2 note=69 velocity=0 time=0
EXTRACT: note_on channel=9 note=42 velocity=0 time=0
EXTRACT: note_on channel=0 note=57 velocity=0 time=0.03
EXTRACT: note_on channel=0 note=61 velocity=0 time=0
EXTRACT: note_on channel=0 note=64 velocity=0 time=0
EXTRACT: note_on channel=9 note=42 velocity=0 time=0
EXTRACT: note_on channel=2 note=54 velocity=100 time=0.03
EXTRACT: note_on channel=2 note=62 velocity=100 time=0
EXTRACT: note_on channel=2 note=66 velocity=127 time=0
EXTRACT: note_on channel=5 note=93 velocity=70 time=0
EXTRACT: note_on channel=5 note=81 velocity=80 time=0
EXTRACT: note_on channel=9 note=42 velocity=127 time=0
EXTRACT: note_on channel=0 note=45 velocity=0 time=0.06
EXTRACT: note_on channel=3 note=69 velocity=0 time=0.03
EXTRACT: note_on channel=9 note=35 velocity=0 time=0
EXTRACT: note_on channel=0 note=45 velocity=100 time=0.06
EXTRACT: note_on channel=1 note=45 velocity=100 time=0
EXTRACT: note_on channel=3 note=69 velocity=64 time=0
EXTRACT: note_on channel=4 note=45 velocity=100 time=0
EXTRACT: note_on channel=9 note=35 velocity=127 time=0
EXTRACT: note_on channel=9 note=42 velocity=50 time=0
EXTRACT: note_on channel=5 note=93 velocity=0 time=0.09
EXTRACT: note_on channel=5 note=81 velocity=0 time=0
EXTRACT: note_on channel=9 note=42 velocity=0 time=0
EXTRACT: note_on channel=3 note=69 velocity=0 time=0.03
EXTRACT: note_on channel=9 note=42 velocity=0 time=0
EXTRACT: note_on channel=0 note=57 velocity=100 time=0.03
EXTRACT: note_on channel=0 note=61 velocity=100 time=0
EXTRACT: note_on channel=0 note=64 velocity=100 time=0
EXTRACT: note_on channel=2 note=69 velocity=100 time=0
EXTRACT: note_on channel=9 note=35 velocity=127 time=0
EXTRACT: note_on channel=9 note=42 velocity=127 time=0
EXTRACT: note_on channel=0 note=45 velocity=0 time=0.09
EXTRACT: note_on channel=1 note=45 velocity=0 time=0
EXTRACT: note_on channel=4 note=45 velocity=0 time=0
EXTRACT: note_on channel=9 note=35 velocity=0 time=0
EXTRACT: note_on channel=3 note=69 velocity=64 time=0.06
EXTRACT: note_on channel=9 note=42 velocity=50 time=0
EXTRACT: note_on channel=2 note=54 velocity=0 time=0.03
EXTRACT: note_on channel=2 note=62 velocity=0 time=0
EXTRACT: note_on channel=2 note=66 velocity=0 time=0
EXTRACT: note_on channel=0 note=57 velocity=0 time=0.06
EXTRACT: note_on channel=0 note=61 velocity=0 time=0
EXTRACT: note_on channel=0 note=64 velocity=0 time=0
EXTRACT: note_on channel=2 note=69 velocity=0 time=0
EXTRACT: note_on channel=9 note=35 velocity=0 time=0
EXTRACT: note_on channel=9 note=42 velocity=0 time=0
EXTRACT: note_on channel=9 note=42 velocity=0 time=0.03
EXTRACT: note_on channel=0 note=45 velocity=100 time=0.03
EXTRACT: note_on channel=1 note=45 velocity=100 time=0
EXTRACT: note_on channel=2 note=57 velocity=100 time=0
EXTRACT: note_on channel=2 note=66 velocity=100 time=0
EXTRACT: note_on channel=2 note=69 velocity=127 time=0
EXTRACT: note_on channel=2 note=66 velocity=100 time=0
EXTRACT: note_on channel=3 note=69 velocity=64 time=0
EXTRACT: note_on channel=4 note=45 velocity=100 time=0
EXTRACT: note_on channel=5 note=93 velocity=70 time=0
EXTRACT: note_on channel=5 note=81 velocity=80 time=0
EXTRACT: note_on channel=9 note=38 velocity=127 time=0
EXTRACT: note_on channel=9 note=42 velocity=127 time=0
EXTRACT: note_on channel=3 note=69 velocity=0 time=0.09
EXTRACT: note_on channel=2 note=57 velocity=0 time=0.03
EXTRACT: note_on channel=2 note=66 velocity=0 time=0
EXTRACT: note_on channel=2 note=69 velocity=0 time=0
EXTRACT: note_on channel=0 note=57 velocity=100 time=0.03
EXTRACT: note_on channel=0 note=61 velocity=100 time=0
EXTRACT: note_on channel=0 note=64 velocity=100 time=0
EXTRACT: note_on channel=2 note=62 velocity=100 time=0
EXTRACT: note_on channel=2 note=54 velocity=100 time=0
EXTRACT: note_on channel=2 note=66 velocity=127 time=0
EXTRACT: note_on channel=9 note=42 velocity=50 time=0
EXTRACT: note_on channel=2 note=66 velocity=0 time=0.09
EXTRACT: note_on channel=3 note=69 velocity=0 time=0
EXTRACT: note_on channel=5 note=93 velocity=0 time=0
EXTRACT: note_on channel=5 note=81 velocity=0 time=0
EXTRACT: note_on channel=9 note=38 velocity=0 time=0
EXTRACT: note_on channel=9 note=42 velocity=0 time=0
EXTRACT: note_on channel=9 note=42 velocity=0 time=0.03
EXTRACT: note_on channel=9 note=42 velocity=127 time=0.03
EXTRACT: note_on channel=0 note=57 velocity=0 time=0.09
EXTRACT: note_on channel=0 note=61 velocity=0 time=0
EXTRACT: note_on channel=0 note=64 velocity=0 time=0
EXTRACT: note_on channel=2 note=62 velocity=0 time=0
EXTRACT: note_on channel=2 note=54 velocity=0 time=0
EXTRACT: note_on channel=2 note=66 velocity=0 time=0
EXTRACT: note_on channel=9 note=42 velocity=50 time=0.06
EXTRACT: note_on channel=0 note=45 velocity=0 time=0.03
EXTRACT: note_on channel=1 note=45 velocity=0 time=0
EXTRACT: note_on channel=4 note=45 velocity=0 time=0
EXTRACT: note_on channel=9 note=42 velocity=0 time=0.06
EXTRACT: note_on channel=9 note=42 velocity=0 time=0.03
EXTRACT: note_on channel=0 note=42 velocity=100 time=0.03
EXTRACT: note_on channel=1 note=42 velocity=100 time=0
EXTRACT: note_on channel=2 note=73 velocity=127 time=0
EXTRACT: note_on channel=4 note=42 velocity=100 time=0
EXTRACT: note_on channel=5 note=93 velocity=70 time=0
EXTRACT: note_on channel=5 note=81 velocity=80 time=0
EXTRACT: note_on channel=9 note=35 velocity=127 time=0
EXTRACT: note_on channel=9 note=42 velocity=127 time=0
EXTRACT: note_on channel=5 note=69 velocity=100 time=0.005
EXTRACT: note_on channel=5 note=93 velocity=70 time=0
EXTRACT: note_on channel=5 note=81 velocity=80 time=0
EXTRACT: note_on channel=9 note=42 velocity=0 time=0.115
EXTRACT: note_on channel=5 note=69 velocity=0 time=0.005
EXTRACT: note_on channel=9 note=42 velocity=50 time=0.025
EXTRACT: note_on channel=0 note=42 velocity=0 time=0.09
EXTRACT: note_on channel=1 note=42 velocity=0 time=0
EXTRACT: note_on channel=2 note=73 velocity=0 time=0
EXTRACT: note_on channel=4 note=42 velocity=0 time=0
EXTRACT: note_on channel=5 note=93 velocity=0 time=0
EXTRACT: note_on channel=5 note=81 velocity=0 time=0
EXTRACT: note_on channel=9 note=35 velocity=0 time=0
EXTRACT: note_on channel=5 note=93 velocity=0 time=0.005
EXTRACT: note_on channel=5 note=81 velocity=0 time=0
EXTRACT: note_on channel=9 note=42 velocity=0 time=0.025
EXTRACT: note_on channel=0 note=42 velocity=100 time=0.03
EXTRACT: note_on channel=1 note=42 velocity=100 time=0
EXTRACT: note_on channel=2 note=76 velocity=127 time=0
EXTRACT: note_on channel=4 note=42 velocity=100 time=0
EXTRACT: note_on channel=9 note=42 velocity=127 time=0
EXTRACT: note_on channel=3 note=69 velocity=64 time=0.005
EXTRACT: note_on channel=3 note=69 velocity=0 time=0.12
EXTRACT: note_on channel=9 note=42 velocity=50 time=0.025
EXTRACT: note_on channel=3 note=69 velocity=64 time=0.005
EXTRACT: note_on channel=2 note=76 velocity=0 time=0.085
EXTRACT: note_on channel=9 note=42 velocity=0 time=0
EXTRACT: note_on channel=9 note=42 velocity=0 time=0.03
EXTRACT: note_on channel=3 note=69 velocity=0 time=0.005
EXTRACT: note_on channel=0 note=57 velocity=100 time=0.025
EXTRACT: note_on channel=0 note=62 velocity=100 time=0
EXTRACT: note_on channel=0 note=66 velocity=100 time=0
EXTRACT: note_on channel=2 note=73 velocity=127 time=0
EXTRACT: note_on channel=9 note=38 velocity=127 time=0
EXTRACT: note_on channel=9 note=42 velocity=127 time=0
EXTRACT: note_on channel=3 note=69 velocity=64 time=0.005
EXTRACT: note_on channel=5 note=93 velocity=70 time=0
EXTRACT: note_on channel=5 note=81 velocity=80 time=0
EXTRACT: note_on channel=9 note=42 velocity=50 time=0.145
EXTRACT: note_on channel=0 note=42 velocity=0 time=0.03
EXTRACT: note_on channel=1 note=42 velocity=0 time=0
EXTRACT: note_on channel=4 note=42 velocity=0 time=0
EXTRACT: note_on channel=0 note=57 velocity=0 time=0.06
EXTRACT: note_on channel=0 note=62 velocity=0 time=0
EXTRACT: note_on channel=0 note=66 velocity=0 time=0
EXTRACT: note_on channel=2 note=73 velocity=0 time=0
EXTRACT: note_on channel=9 note=38 velocity=0 time=0
EXTRACT: note_on channel=9 note=42 velocity=0 time=0
EXTRACT: note_on channel=3 note=69 velocity=0 time=0.005
EXTRACT: note_on channel=5 note=93 velocity=0 time=0
EXTRACT: note_on channel=5 note=81 velocity=0 time=0
EXTRACT: note_on channel=9 note=42 velocity=0 time=0.025
EXTRACT: note_on channel=0 note=57 velocity=100 time=0.03
EXTRACT: note_on channel=2 note=71 velocity=127 time=0
EXTRACT: note_on channel=9 note=42 velocity=127 time=0
EXTRACT: note_on channel=3 note=69 velocity=64 time=0.005
EXTRACT: note_on channel=2 note=71 velocity=0 time=0.115
EXTRACT: note_on channel=3 note=69 velocity=0 time=0.005
EXTRACT: note_on channel=0 note=67 velocity=100 time=0.025
EXTRACT: note_on channel=0 note=59 velocity=100 time=0
EXTRACT: note_on channel=0 note=62 velocity=100 time=0
EXTRACT: note_on channel=2 note=69 velocity=127 time=0
EXTRACT: note_on channel=9 note=35 velocity=127 time=0
EXTRACT: note_on channel=9 note=42 velocity=50 time=0
EXTRACT: note_on channel=3 note=69 velocity=64 time=0.005
EXTRACT: note_on channel=0 note=57 velocity=0 time=0.085
EXTRACT: note_on channel=9 note=42 velocity=0 time=0
EXTRACT: note_on channel=0 note=67 velocity=0 time=0.03
EXTRACT: note_on channel=0 note=59 velocity=0 time=0
EXTRACT: note_on channel=0 note=62 velocity=0 time=0
EXTRACT: note_on channel=9 note=42 velocity=0 time=0
EXTRACT: note_on channel=9 note=42 velocity=127 time=0.03
EXTRACT: note_on channel=5 note=93 velocity=70 time=0.005
EXTRACT: note_on channel=5 note=81 velocity=80 time=0
EXTRACT: note_on channel=9 note=35 velocity=0 time=0.085
EXTRACT: note_on channel=3 note=69 velocity=0 time=0.005
EXTRACT: note_on channel=0 note=43 velocity=100 time=0.055
EXTRACT: note_on channel=1 note=43 velocity=100 time=0
EXTRACT: note_on channel=4 note=43 velocity=100 time=0
EXTRACT: note_on channel=9 note=35 velocity=127 time=0
EXTRACT: note_on channel=9 note=42 velocity=50 time=0
EXTRACT: note_on channel=3 note=69 velocity=64 time=0.005
EXTRACT: note_on channel=9 note=42 velocity=0 time=0.085
EXTRACT: note_on channel=5 note=93 velocity=0 time=0.005
EXTRACT: note_on channel=5 note=81 velocity=0 time=0
EXTRACT: note_on channel=9 note=42 velocity=0 time=0.025
EXTRACT: note_on channel=3 note=69 velocity=0 time=0.005
EXTRACT: note_on channel=0 note=67 velocity=100 time=0.025
EXTRACT: note_on channel=0 note=59 velocity=100 time=0
EXTRACT: note_on channel=0 note=62 velocity=100 time=0
EXTRACT: note_on channel=2 note=54 velocity=100 time=0
EXTRACT: note_on channel=2 note=62 velocity=100 time=0
EXTRACT: note_on channel=2 note=66 velocity=127 time=0
EXTRACT: note_on channel=9 note=35 velocity=127 time=0
EXTRACT: note_on channel=9 note=42 velocity=127 time=0
EXTRACT: note_on channel=2 note=69 velocity=0 time=0.03
EXTRACT: note_on channel=0 note=43 velocity=0 time=0.06
EXTRACT: note_on channel=1 note=43 velocity=0 time=0
EXTRACT: note_on channel=4 note=43 velocity=0 time=0
EXTRACT: note_on channel=9 note=35 velocity=0 time=0
EXTRACT: note_on channel=9 note=42 velocity=50 time=0.06
EXTRACT: note_on channel=3 note=69 velocity=64 time=0.005
EXTRACT: note_on channel=0 note=67 velocity=0 time=0.085
EXTRACT: note_on channel=0 note=59 velocity=0 time=0
EXTRACT: note_on channel=0 note=62 velocity=0 time=0
EXTRACT: note_on channel=2 note=54 velocity=0 time=0
EXTRACT: note_on channel=2 note=62 velocity=0 time=0
EXTRACT: note_on channel=2 note=66 velocity=0 time=0
EXTRACT: note_on channel=9 note=35 velocity=0 time=0
EXTRACT: note_on channel=9 note=42 velocity=0 time=0
EXTRACT: note_on channel=9 note=42 velocity=0 time=0.03
EXTRACT: note_on channel=0 note=43 velocity=100 time=0.03
EXTRACT: note_on channel=1 note=43 velocity=100 time=0
EXTRACT: note_on channel=2 note=57 velocity=100 time=0
EXTRACT: note_on channel=2 note=66 velocity=100 time=0
EXTRACT: note_on channel=2 note=69 velocity=127 time=0
EXTRACT: note_on channel=4 note=43 velocity=100 time=0
EXTRACT: note_on channel=9 note=38 velocity=127 time=0
EXTRACT: note_on channel=9 note=42 velocity=127 time=0
EXTRACT: note_on channel=3 note=69 velocity=64 time=0.005
EXTRACT: note_on channel=5 note=93 velocity=70 time=0
EXTRACT: note_on channel=5 note=81 velocity=80 time=0
EXTRACT: note_on channel=3 note=69 velocity=0 time=0.09
EXTRACT: note_on channel=0 note=67 velocity=100 time=0.055
EXTRACT: note_on channel=0 note=59 velocity=100 time=0
EXTRACT: note_on channel=0 note=62 velocity=100 time=0
EXTRACT: note_on channel=9 note=42 velocity=50 time=0
EXTRACT: note_on channel=2 note=57 velocity=0 time=0.09
EXTRACT: note_on channel=2 note=66 velocity=0 time=0
EXTRACT: note_on channel=2 note=69 velocity=0 time=0
EXTRACT: note_on channel=9 note=38 velocity=0 time=0
EXTRACT: note_on channel=9 note=42 velocity=0 time=0
EXTRACT: note_on channel=3 note=69 velocity=0 time=0.005
EXTRACT: note_on channel=5 note=93 velocity=0 time=0
EXTRACT: note_on channel=5 note=81 velocity=0 time=0
EXTRACT: note_on channel=9 note=42 velocity=0 time=0.025
EXTRACT: note_on channel=2 note=54 velocity=100 time=0.03
EXTRACT: note_on channel=2 note=62 velocity=100 time=0
EXTRACT: note_on channel=2 note=66 velocity=127 time=0
EXTRACT: note_on channel=9 note=42 velocity=127 time=0
EXTRACT: note_on channel=0 note=67 velocity=0 time=0.09
EXTRACT: note_on channel=0 note=59 velocity=0 time=0
EXTRACT: note_on channel=0 note=62 velocity=0 time=0
EXTRACT: note_on channel=9 note=42 velocity=50 time=0.06
EXTRACT: note_on channel=0 note=43 velocity=0 time=0.03
EXTRACT: note_on channel=1 note=43 velocity=0 time=0
EXTRACT: note_on channel=4 note=43 velocity=0 time=0
EXTRACT: note_on channel=2 note=54 velocity=0 time=0.06
EXTRACT: note_on channel=2 note=62 velocity=0 time=0
EXTRACT: note_on channel=2 note=66 velocity=0 time=0
EXTRACT: note_on channel=9 note=42 velocity=0 time=0
EXTRACT: note_on channel=9 note=42 velocity=0 time=0.03
EXTRACT: note_on channel=0 note=45 velocity=100 time=0.03
EXTRACT: note_on channel=1 note=45 velocity=100 time=0
EXTRACT: note_on channel=2 note=57 velocity=100 time=0
EXTRACT: note_on channel=2 note=66 velocity=100 time=0
EXTRACT: note_on channel=2 note=69 velocity=127 time=0
EXTRACT: note_on channel=9 note=35 velocity=127 time=0
EXTRACT: note_on channel=9 note=42 velocity=127 time=0
EXTRACT: note_on channel=4 note=45 velocity=100 time=0.005
EXTRACT: note_on channel=5 note=93 velocity=70 time=0
EXTRACT: note_on channel=5 note=81 velocity=80 time=0
EXTRACT: note_on channel=9 note=42 velocity=0 time=0.115
EXTRACT: note_on channel=9 note=42 velocity=50 time=0.03
EXTRACT: note_on channel=0 note=45 velocity=0 time=0.09
EXTRACT: note_on channel=1 note=45 velocity=0 time=0
EXTRACT: note_on channel=2 note=57 velocity=0 time=0
EXTRACT: note_on channel=2 note=66 velocity=0 time=0
EXTRACT: note_on channel=2 note=69 velocity=0 time=0
EXTRACT: note_on channel=9 note=35 velocity=0 time=0
EXTRACT: note_on channel=4 note=45 velocity=0 time=0.005
EXTRACT: note_on channel=5 note=93 velocity=0 time=0
EXTRACT: note_on channel=5 note=81 velocity=0 time=0
EXTRACT: note_on channel=9 note=42 velocity=0 time=0.025
EXTRACT: note_on channel=0 note=45 velocity=100 time=0.03
EXTRACT: note_on channel=1 note=45 velocity=100 time=0
EXTRACT: note_on channel=2 note=54 velocity=100 time=0
EXTRACT: note_on channel=2 note=62 velocity=100 time=0
EXTRACT: note_on channel=2 note=66 velocity=127 time=0
EXTRACT: note_on channel=9 note=42 velocity=127 time=0
EXTRACT: note_on channel=3 note=69 velocity=64 time=0.005
EXTRACT: note_on channel=4 note=45 velocity=100 time=0
EXTRACT: note_on channel=3 note=69 velocity=0 time=0.12
EXTRACT: note_on channel=9 note=42 velocity=50 time=0.025
EXTRACT: note_on channel=3 note=69 velocity=64 time=0.005
EXTRACT: note_on channel=2 note=54 velocity=0 time=0.085
EXTRACT: note_on channel=2 note=62 velocity=0 time=0
EXTRACT: note_on channel=2 note=66 velocity=0 time=0
EXTRACT: note_on channel=9 note=42 velocity=0 time=0
EXTRACT: note_on channel=9 note=42 velocity=0 time=0.03
EXTRACT: note_on channel=3 note=69 velocity=0 time=0.005
EXTRACT: note_on channel=0 note=57 velocity=100 time=0.025
EXTRACT: note_on channel=0 note=62 velocity=100 time=0
EXTRACT: note_on channel=0 note=66 velocity=100 time=0
EXTRACT: note_on channel=2 note=72 velocity=127 time=0
EXTRACT: note_on channel=9 note=38 velocity=127 time=0
EXTRACT: note_on channel=9 note=42 velocity=127 time=0
EXTRACT: note_on channel=3 note=69 velocity=64 time=0.005
EXTRACT: note_on channel=5 note=93 velocity=70 time=0
EXTRACT: note_on channel=5 note=81 velocity=80 time=0
EXTRACT: note_on channel=9 note=42 velocity=50 time=0.145
EXTRACT: note_on channel=1 note=45 velocity=0 time=0.03
EXTRACT: note_on channel=4 note=45 velocity=0 time=0.005
EXTRACT: note_on channel=0 note=57 velocity=0 time=0.055
EXTRACT: note_on channel=0 note=62 velocity=0 time=0
EXTRACT: note_on channel=0 note=66 velocity=0 time=0
EXTRACT: note_on channel=2 note=72 velocity=0 time=0
EXTRACT: note_on channel=9 note=38 velocity=0 time=0
EXTRACT: note_on channel=9 note=42 velocity=0 time=0
EXTRACT: note_on channel=3 note=69 velocity=0 time=0.005
EXTRACT: note_on channel=5 note=93 velocity=0 time=0
EXTRACT: note_on channel=5 note=81 velocity=0 time=0
EXTRACT: note_on channel=9 note=42 velocity=0 time=0.025
EXTRACT: note_on channel=0 note=57 velocity=100 time=0.03
EXTRACT: note_on channel=2 note=72 velocity=127 time=0
EXTRACT: note_on channel=9 note=42 velocity=127 time=0
EXTRACT: note_on channel=3 note=69 velocity=64 time=0.005
EXTRACT: note_on channel=3 note=69 velocity=0 time=0.12
EXTRACT: note_on channel=0 note=57 velocity=100 time=0.025
EXTRACT: note_on channel=0 note=61 velocity=100 time=0
EXTRACT: note_on channel=0 note=64 velocity=100 time=0
EXTRACT: note_on channel=9 note=35 velocity=127 time=0
EXTRACT: note_on channel=9 note=42 velocity=50 time=0
EXTRACT: note_on channel=3 note=69 velocity=64 time=0.005
EXTRACT: note_on channel=0 note=57 velocity=0 time=0.085
EXTRACT: note_on channel=2 note=72 velocity=0 time=0
EXTRACT: note_on channel=9 note=42 velocity=0 time=0
EXTRACT: note_on channel=0 note=57 velocity=0 time=0.03
EXTRACT: note_on channel=0 note=61 velocity=0 time=0
EXTRACT: note_on channel=0 note=64 velocity=0 time=0
EXTRACT: note_on channel=9 note=42 velocity=0 time=0
EXTRACT: note_on channel=9 note=42 velocity=127 time=0.03
EXTRACT: note_on channel=5 note=93 velocity=70 time=0.005
EXTRACT: note_on channel=5 note=81 velocity=80 time=0
EXTRACT: note_on channel=0 note=45 velocity=0 time=0.055
EXTRACT: note_on channel=9 note=35 velocity=0 time=0.03
EXTRACT: note_on channel=3 note=69 velocity=0 time=0.005
EXTRACT: note_on channel=0 note=45 velocity=100 time=0.055
EXTRACT: note_on channel=1 note=45 velocity=100 time=0
EXTRACT: note_on channel=9 note=35 velocity=127 time=0
EXTRACT: note_on channel=9 note=42 velocity=50 time=0
EXTRACT: note_on channel=3 note=69 velocity=64 time=0.005
EXTRACT: note_on channel=4 note=45 velocity=100 time=0
EXTRACT: note_on channel=9 note=42 velocity=0 time=0.085
EXTRACT: note_on channel=5 note=93 velocity=0 time=0.005
EXTRACT: note_on channel=5 note=81 velocity=0 time=0
EXTRACT: note_on channel=9 note=42 velocity=0 time=0.025
EXTRACT: note_on channel=3 note=69 velocity=0 time=0.005
EXTRACT: note_on channel=0 note=57 velocity=100 time=0.025
EXTRACT: note_on channel=0 note=61 velocity=100 time=0
EXTRACT: note_on channel=0 note=64 velocity=100 time=0
EXTRACT: note_on channel=2 note=66 velocity=127 time=0
EXTRACT: note_on channel=9 note=35 velocity=127 time=0
EXTRACT: note_on channel=9 note=42 velocity=127 time=0
EXTRACT: note_on channel=0 note=45 velocity=0 time=0.09
EXTRACT: note_on channel=1 note=45 velocity=0 time=0
EXTRACT: note_on channel=9 note=35 velocity=0 time=0
EXTRACT: note_on channel=4 note=45 velocity=0 time=0.005
EXTRACT: note_on channel=9 note=42 velocity=50 time=0.055
EXTRACT: note_on channel=3 note=69 velocity=64 time=0.005
EXTRACT: note_on channel=0 note=57 velocity=0 time=0.085
EXTRACT: note_on channel=0 note=61 velocity=0 time=0
EXTRACT: note_on channel=0 note=64 velocity=0 time=0
EXTRACT: note_on channel=2 note=66 velocity=0 time=0
EXTRACT: note_on channel=9 note=35 velocity=0 time=0
EXTRACT: note_on channel=9 note=42 velocity=0 time=0
EXTRACT: note_on channel=9 note=42 velocity=0 time=0.03
EXTRACT: note_on channel=0 note=45 velocity=100 time=0.03
EXTRACT: note_on channel=1 note=45 velocity=100 time=0
EXTRACT: note_on channel=2 note=72 velocity=127 time=0
EXTRACT: note_on channel=2 note=66 velocity=127 time=0
EXTRACT: note_on channel=9 note=38 velocity=127 time=0
EXTRACT: note_on channel=9 note=42 velocity=127 time=0
EXTRACT: note_on channel=3 note=69 velocity=64 time=0.005
EXTRACT: note_on channel=4 note=45 velocity=100 time=0
EXTRACT: note_on channel=5 note=93 velocity=70 time=0
EXTRACT: note_on channel=5 note=81 velocity=80 time=0
EXTRACT: note_on channel=3 note=69 velocity=0 time=0.09
EXTRACT: note_on channel=0 note=57 velocity=100 time=0.055
EXTRACT: note_on channel=0 note=61 velocity=100 time=0
EXTRACT: note_on channel=0 note=64 velocity=100 time=0
EXTRACT: note_on channel=9 note=42 velocity=50 time=0
EXTRACT: note_on channel=2 note=72 velocity=0 time=0.09
EXTRACT: note_on channel=2 note=66 velocity=0 time=0
EXTRACT: note_on channel=9 note=38 velocity=0 time=0
EXTRACT: note_on channel=9 note=42 velocity=0 time=0
EXTRACT: note_on channel=3 note=69 velocity=0 time=0.005
EXTRACT: note_on channel=5 note=93 velocity=0 time=0
EXTRACT: note_on channel=5 note=81 velocity=0 time=0
EXTRACT: note_on channel=9 note=42 velocity=0 time=0.025
EXTRACT: note_on channel=2 note=72 velocity=127 time=0.03
EXTRACT: note_on channel=2 note=66 velocity=127 time=0
EXTRACT: note_on channel=9 note=42 velocity=127 time=0
EXTRACT: note_on channel=0 note=57 velocity=0 time=0.09
EXTRACT: note_on channel=0 note=61 velocity=0 time=0
EXTRACT: note_on channel=0 note=64 velocity=0 time=0
EXTRACT: note_on channel=2 note=66 velocity=0 time=0.03
EXTRACT: note_on channel=2 note=66 velocity=127 time=0.03
EXTRACT: note_on channel=9 note=42 velocity=50 time=0
EXTRACT: note_on channel=0 note=45 velocity=0 time=0.03
EXTRACT: note_on channel=1 note=45 velocity=0 time=0
EXTRACT: note_on channel=4 note=45 velocity=0 time=0.005
EXTRACT: note_on channel=2 note=72 velocity=0 time=0.055
EXTRACT: note_on channel=9 note=42 velocity=0 time=0
EXTRACT: note_on channel=2 note=66 velocity=0 time=0.03
EXTRACT: note_on channel=9 note=42 velocity=0 time=0
EXTRACT: note_on channel=1 note=42 velocity=100 time=0.03
EXTRACT: note_on channel=2 note=66 velocity=127 time=0
EXTRACT: note_on channel=9 note=35 velocity=127 time=0
EXTRACT: note_on channel=9 note=42 velocity=127 time=0
EXTRACT: note_on channel=0 note=42 velocity=100 time=0.005
EXTRACT: note_on channel=4 note=42 velocity=100 time=0
EXTRACT: note_on channel=5 note=93 velocity=70 time=0
EXTRACT: note_on channel=5 note=81 velocity=80 time=0
EXTRACT: note_on channel=2 note=66 velocity=0 time=0.115
EXTRACT: note_on channel=9 note=42 velocity=0 time=0
EXTRACT: note_on channel=2 note=66 velocity=127 time=0.03
EXTRACT: note_on channel=9 note=42 velocity=50 time=0
EXTRACT: note_on channel=1 note=42 velocity=0 time=0.09
EXTRACT: note_on channel=9 note=35 velocity=0 time=0
EXTRACT: note_on channel=0 note=42 velocity=0 time=0.005
EXTRACT: note_on channel=4 note=42 velocity=0 time=0
EXTRACT: note_on channel=5 note=93 velocity=0 time=0
EXTRACT: note_on channel=5 note=81 velocity=0 time=0
EXTRACT: note_on channel=2 note=66 velocity=0 time=0.025
EXTRACT: note_on channel=9 note=42 velocity=0 time=0
EXTRACT: note_on channel=1 note=42 velocity=100 time=0.03
EXTRACT: note_on channel=2 note=66 velocity=127 time=0
EXTRACT: note_on channel=9 note=42 velocity=127 time=0
EXTRACT: note_on channel=0 note=42 velocity=100 time=0.005
EXTRACT: note_on channel=3 note=69 velocity=64 time=0
EXTRACT: note_on channel=4 note=42 velocity=100 time=0
EXTRACT: note_on channel=3 note=69 velocity=0 time=0.12
EXTRACT: note_on channel=9 note=42 velocity=50 time=0.025
EXTRACT: note_on channel=3 note=69 velocity=64 time=0.005
EXTRACT: note_on channel=2 note=66 velocity=0 time=0.085
EXTRACT: note_on channel=9 note=42 velocity=0 time=0
EXTRACT: note_on channel=9 note=42 velocity=0 time=0.03
EXTRACT: note_on channel=3 note=69 velocity=0 time=0.005
EXTRACT: note_on channel=2 note=66 velocity=127 time=0.025
EXTRACT: note_on channel=9 note=38 velocity=127 time=0
EXTRACT: note_on channel=9 note=42 velocity=127 time=0
EXTRACT: note_on channel=0 note=57 velocity=100 time=0.005
EXTRACT: note_on channel=0 note=62 velocity=100 time=0
EXTRACT: note_on channel=0 note=66 velocity=100 time=0
EXTRACT: note_on channel=3 note=69 velocity=64 time=0
EXTRACT: note_on channel=5 note=93 velocity=70 time=0
EXTRACT: note_on channel=5 note=81 velocity=80 time=0
EXTRACT: note_on channel=9 note=42 velocity=50 time=0.145
EXTRACT: note_on channel=1 note=42 velocity=0 time=0.03
EXTRACT: note_on channel=0 note=42 velocity=0 time=0.005
EXTRACT: note_on channel=4 note=42 velocity=0 time=0
EXTRACT: note_on channel=2 note=66 velocity=0 time=0.055
EXTRACT: note_on channel=9 note=38 velocity=0 time=0
EXTRACT: note_on channel=9 note=42 velocity=0 time=0
EXTRACT: note_on channel=0 note=57 velocity=0 time=0.005
EXTRACT: note_on channel=0 note=62 velocity=0 time=0
EXTRACT: note_on channel=0 note=66 velocity=0 time=0
EXTRACT: note_on channel=3 note=69 velocity=0 time=0
EXTRACT: note_on channel=5 note=93 velocity=0 time=0
EXTRACT: note_on channel=5 note=81 velocity=0 time=0
EXTRACT: note_on channel=9 note=42 velocity=0 time=0.025
EXTRACT: note_on channel=2 note=66 velocity=127 time=0.03
EXTRACT: note_on channel=9 note=42 velocity=127 time=0
EXTRACT: note_on channel=0 note=57 velocity=100 time=0.005
EXTRACT: note_on channel=3 note=69 velocity=64 time=0
EXTRACT: note_on channel=2 note=66 velocity=0 time=0.115
EXTRACT: note_on channel=3 note=69 velocity=0 time=0.005
EXTRACT: note_on channel=2 note=69 velocity=127 time=0.025
EXTRACT: note_on channel=9 note=35 velocity=127 time=0
EXTRACT: note_on channel=9 note=42 velocity=50 time=0
EXTRACT: note_on channel=0 note=67 velocity=100 time=0.005
EXTRACT: note_on channel=0 note=59 velocity=100 time=0
EXTRACT: note_on channel=0 note=62 velocity=100 time=0
EXTRACT: note_on channel=3 note=69 velocity=64 time=0
EXTRACT: note_on channel=9 note=42 velocity=0 time=0.085
EXTRACT: note_on channel=0 note=57 velocity=0 time=0.005
EXTRACT: note_on channel=9 note=42 velocity=0 time=0.025
EXTRACT: note_on channel=0 note=67 velocity=0 time=0.005
EXTRACT: note_on channel=0 note=59 velocity=0 time=0
EXTRACT: note_on channel=0 note=62 velocity=0 time=0
EXTRACT: note_on channel=9 note=42 velocity=127 time=0.025
EXTRACT: note_on channel=5 note=93 velocity=70 time=0.005
EXTRACT: note_on channel=5 note=81 velocity=80 time=0
EXTRACT: note_on channel=2 note=69 velocity=0 time=0.085
EXTRACT: note_on channel=9 note=35 velocity=0 time=0
EXTRACT: note_on channel=3 note=69 velocity=0 time=0.005
EXTRACT: note_on channel=1 note=43 velocity=100 time=0.055
EXTRACT: note_on channel=9 note=35 velocity=127 time=0
EXTRACT: note_on channel=9 note=42 velocity=50 time=0
EXTRACT: note_on channel=0 note=43 velocity=100 time=0.005
EXTRACT: note_on channel=3 note=69 velocity=64 time=0
EXTRACT: note_on channel=4 note=43 velocity=100 time=0
EXTRACT: note_on channel=9 note=42 velocity=0 time=0.085
EXTRACT: note_on channel=5 note=93 velocity=0 time=0.005
EXTRACT: note_on channel=5 note=81 velocity=0 time=0
EXTRACT: note_on channel=9 note=42 velocity=0 time=0.025
EXTRACT: note_on channel=3 note=69 velocity=0 time=0.005
EXTRACT: note_on channel=2 note=54 velocity=100 time=0.025
EXTRACT: note_on channel=2 note=62 velocity=100 time=0
EXTRACT: note_on channel=2 note=66 velocity=127 time=0
EXTRACT: note_on channel=9 note=35 velocity=127 time=0
EXTRACT: note_on channel=9 note=42 velocity=127 time=0
EXTRACT: note_on channel=0 note=67 velocity=100 time=0.005
EXTRACT: note_on channel=0 note=59 velocity=100 time=0
EXTRACT: note_on channel=0 note=62 velocity=100 time=0
EXTRACT: note_on channel=1 note=43 velocity=0 time=0.085
EXTRACT: note_on channel=9 note=35 velocity=0 time=0
EXTRACT: note_on channel=0 note=43 velocity=0 time=0.005
EXTRACT: note_on channel=4 note=43 velocity=0 time=0
EXTRACT: note_on channel=9 note=42 velocity=50 time=0.055
EXTRACT: note_on channel=3 note=69 velocity=64 time=0.005
EXTRACT: control_change channel=4 control=7 value=83 time=0.025
EXTRACT: control_change channel=9 control=7 value=126 time=0.035
EXTRACT: note_on channel=2 note=54 velocity=0 time=0.025
EXTRACT: note_on channel=2 note=62 velocity=0 time=0
EXTRACT: note_on channel=2 note=66 velocity=0 time=0
EXTRACT: note_on channel=9 note=35 velocity=0 time=0
EXTRACT: note_on channel=9 note=42 velocity=0 time=0
EXTRACT: note_on channel=0 note=67 velocity=0 time=0.005
EXTRACT: note_on channel=0 note=59 velocity=0 time=0
EXTRACT: note_on channel=0 note=62 velocity=0 time=0
EXTRACT: note_on channel=9 note=42 velocity=0 time=0.025
EXTRACT: note_on channel=1 note=43 velocity=100 time=0.03
EXTRACT: note_on channel=2 note=57 velocity=100 time=0
EXTRACT: note_on channel=2 note=66 velocity=100 time=0
EXTRACT: note_on channel=2 note=69 velocity=127 time=0
EXTRACT: note_on channel=9 note=38 velocity=127 time=0
EXTRACT: note_on channel=9 note=42 velocity=127 time=0
EXTRACT: note_on channel=0 note=43 velocity=100 time=0.005
EXTRACT: note_on channel=3 note=69 velocity=64 time=0
EXTRACT: note_on channel=4 note=43 velocity=100 time=0
EXTRACT: note_on channel=5 note=93 velocity=70 time=0
EXTRACT: note_on channel=5 note=81 velocity=80 time=0
EXTRACT: note_on channel=3 note=69 velocity=0 time=0.09
EXTRACT: control_change channel=3 control=7 value=62 time=0.035
EXTRACT: note_on channel=9 note=42 velocity=50 time=0.02
EXTRACT: note_on channel=0 note=67 velocity=100 time=0.005
EXTRACT: note_on channel=0 note=59 velocity=100 time=0
EXTRACT: note_on channel=0 note=62 velocity=100 time=0
EXTRACT: control_change channel=4 control=7 value=83 time=0.015
EXTRACT: control_change channel=9 control=7 value=125 time=0.045
EXTRACT: note_on channel=2 note=57 velocity=0 time=0.025
EXTRACT: note_on channel=2 note=66 velocity=0 time=0
EXTRACT: note_on channel=2 note=69 velocity=0 time=0
EXTRACT: note_on channel=9 note=38 velocity=0 time=0
EXTRACT: note_on channel=9 note=42 velocity=0 time=0
EXTRACT: note_on channel=3 note=69 velocity=0 time=0.005
EXTRACT: note_on channel=5 note=93 velocity=0 time=0
EXTRACT: note_on channel=5 note=81 velocity=0 time=0
EXTRACT: note_on channel=9 note=42 velocity=0 time=0.025
EXTRACT: control_change channel=9 control=7 value=124 time=0.005
EXTRACT: note_on channel=2 note=54 velocity=100 time=0.025
EXTRACT: note_on channel=2 note=62 velocity=100 time=0
EXTRACT: note_on channel=2 note=66 velocity=127 time=0
EXTRACT: note_on channel=9 note=42 velocity=127 time=0
EXTRACT: control_change channel=9 control=7 value=123 time=0.025
EXTRACT: control_change channel=4 control=7 value=82 time=0.035
EXTRACT: control_change channel=9 control=7 value=122 time=0.025
EXTRACT: control_change channel=1 control=7 value=57 time=0.005
EXTRACT: note_on channel=0 note=67 velocity=0 time=0.005
EXTRACT: note_on channel=0 note=59 velocity=0 time=0
EXTRACT: note_on channel=0 note=62 velocity=0 time=0
EXTRACT: control_change channel=3 control=7 value=62 time=0.045
EXTRACT: control_change channel=9 control=7 value=121 time=0.005
EXTRACT: note_on channel=9 note=42 velocity=50 time=0.005
EXTRACT: control_change channel=0 control=7 value=74 time=0.005
EXTRACT: note_on channel=1 note=43 velocity=0 time=0.025
EXTRACT: note_on channel=0 note=43 velocity=0 time=0.005
EXTRACT: note_on channel=4 note=43 velocity=0 time=0
EXTRACT: control_change channel=9 control=7 value=120 time=0.01
EXTRACT: control_change channel=9 control=7 value=120 time=0.035
EXTRACT: note_on channel=2 note=54 velocity=0 time=0.01
EXTRACT: note_on channel=2 note=62 velocity=0 time=0
EXTRACT: note_on channel=2 note=66 velocity=0 time=0
EXTRACT: note_on channel=9 note=42 velocity=0 time=0
EXTRACT: note_on channel=9 note=42 velocity=0 time=0.03
EXTRACT: note_on channel=1 note=45 velocity=100 time=0.03
EXTRACT: note_on channel=2 note=61 velocity=100 time=0
EXTRACT: note_on channel=2 note=69 velocity=100 time=0
EXTRACT: note_on channel=2 note=73 velocity=127 time=0
EXTRACT: note_on channel=9 note=35 velocity=127 time=0
EXTRACT: note_on channel=9 note=42 velocity=127 time=0
EXTRACT: note_on channel=0 note=45 velocity=100 time=0.005
EXTRACT: note_on channel=4 note=45 velocity=100 time=0
EXTRACT: note_on channel=5 note=93 velocity=70 time=0
EXTRACT: note_on channel=5 note=81 velocity=80 time=0
EXTRACT: control_change channel=9 control=7 value=119 time=0.065
EXTRACT: control_change channel=4 control=7 value=81 time=0.01
EXTRACT: control_change channel=1 control=7 value=56 time=0.02
EXTRACT: note_on channel=9 note=42 velocity=0 time=0.02
EXTRACT: control_change channel=4 control=7 value=80 time=0.015
EXTRACT: control_change channel=0 control=7 value=73 time=0.005
EXTRACT: note_on channel=9 note=42 velocity=50 time=0.01
EXTRACT: control_change channel=1 control=7 value=55 time=0.015
EXTRACT: control_change channel=3 control=7 value=61 time=0.005
EXTRACT: control_change channel=4 control=7 value=79 time=0.02
EXTRACT: control_change channel=0 control=7 value=72 time=0.01
EXTRACT: control_change channel=1 control=7 value=54 time=0.015
EXTRACT: note_on channel=1 note=45 velocity=0 time=0.025
EXTRACT: note_on channel=2 note=61 velocity=0 time=0
EXTRACT: note_on channel=2 note=69 velocity=0 time=0
EXTRACT: note_on channel=2 note=73 velocity=0 time=0
EXTRACT: note_on channel=9 note=35 velocity=0 time=0
EXTRACT: note_on channel=0 note=45 velocity=0 time=0.005
EXTRACT: note_on channel=4 note=45 velocity=0 time=0
EXTRACT: note_on channel=5 note=93 velocity=0 time=0
EXTRACT: note_on channel=5 note=81 velocity=0 time=0
EXTRACT: control_change channel=4 control=7 value=78 time=0.005
EXTRACT: control_change channel=1 control=7 value=53 time=0.015
EXTRACT: note_on channel=9 note=42 velocity=0 time=0.005
EXTRACT: control_change channel=4 control=7 value=78 time=0.01
EXTRACT: control_change channel=0 control=7 value=72 time=0.01
EXTRACT: note_on channel=1 note=45 velocity=100 time=0.01
EXTRACT: note_on channel=2 note=61 velocity=100 time=0
EXTRACT: note_on channel=2 note=69 velocity=100 time=0
EXTRACT: note_on channel=2 note=73 velocity=127 time=0
EXTRACT: note_on channel=9 note=42 velocity=127 time=0
EXTRACT: note_on channel=0 note=45 velocity=100 time=0.005
EXTRACT: note_on channel=3 note=69 velocity=64 time=0
EXTRACT: note_on channel=4 note=45 velocity=100 time=0
EXTRACT: control_change channel=1 control=7 value=52 time=0.03
EXTRACT: control_change channel=9 control=7 value=118 time=0.055
EXTRACT: control_change channel=1 control=7 value=52 time=0
EXTRACT: note_on channel=3 note=69 velocity=0 time=0.035
EXTRACT: control_change channel=9 control=7 value=117 time=0.02
EXTRACT: note_on channel=9 note=42 velocity=50 time=0.005
EXTRACT: note_on channel=3 note=69 velocity=64 time=0.005
EXTRACT: control_change channel=3 control=7 value=60 time=0.01
EXTRACT: control_change channel=4 control=7 value=77 time=0.005
EXTRACT: control_change channel=9 control=7 value=116 time=0.03
EXTRACT: note_on channel=2 note=61 velocity=0 time=0.04
EXTRACT: note_on channel=2 note=69 velocity=0 time=0
EXTRACT: note_on channel=2 note=73 velocity=0 time=0
EXTRACT: note_on channel=9 note=42 velocity=0 time=0
EXTRACT: control_change channel=9 control=7 value=115 time=0.015
EXTRACT: note_on channel=9 note=42 velocity=0 time=0.015
EXTRACT: control_change channel=3 control=7 value=59 time=0
EXTRACT: note_on channel=3 note=69 velocity=0 time=0.005
EXTRACT: note_on channel=2 note=72 velocity=100 time=0.025
EXTRACT: note_on channel=9 note=38 velocity=127 time=0
EXTRACT: note_on channel=9 note=42 velocity=127 time=0
EXTRACT: note_on channel=0 note=57 velocity=100 time=0.005
EXTRACT: note_on channel=0 note=62 velocity=100 time=0
EXTRACT: note_on channel=0 note=66 velocity=100 time=0
EXTRACT: note_on channel=3 note=69 velocity=64 time=0
EXTRACT: note_on channel=5 note=93 velocity=70 time=0
EXTRACT: note_on channel=5 note=81 velocity=80 time=0
EXTRACT: control_change channel=9 control=7 value=114 time=0.025
EXTRACT: control_change channel=1 control=7 value=51 time=0.005
EXTRACT: control_change channel=3 control=7 value=58 time=0.005
EXTRACT: control_change channel=3 control=7 value=57 time=0.05
EXTRACT: control_change channel=0 control=7 value=71 time=0.005
EXTRACT: control_change channel=9 control=7 value=113 time=0.02
EXTRACT: note_on channel=9 note=42 velocity=50 time=0.035
EXTRACT: control_change channel=9 control=7 value=112 time=0.025
EXTRACT: note_on channel=1 note=45 velocity=0 time=0.005
EXTRACT: note_on channel=4 note=45 velocity=0 time=0.005
EXTRACT: control_change channel=3 control=7 value=56 time=0.005
EXTRACT: control_change channel=4 control=7 value=76 time=0.01
EXTRACT: control_change channel=9 control=7 value=111 time=0.03
EXTRACT: note_on channel=2 note=72 velocity=0 time=0.01
EXTRACT: note_on channel=9 note=38 velocity=0 time=0
EXTRACT: note_on channel=9 note=42 velocity=0 time=0
EXTRACT: note_on channel=0 note=57 velocity=0 time=0.005
EXTRACT: note_on channel=0 note=62 velocity=0 time=0
EXTRACT: note_on channel=0 note=66 velocity=0 time=0
EXTRACT: note_on channel=3 note=69 velocity=0 time=0
EXTRACT: note_on channel=5 note=93 velocity=0 time=0
EXTRACT: note_on channel=5 note=81 velocity=0 time=0
EXTRACT: control_change channel=4 control=7 value=75 time=0.01
EXTRACT: note_on channel=9 note=42 velocity=0 time=0.015
EXTRACT: control_change channel=9 control=7 value=111 time=0.005
EXTRACT: note_on channel=2 note=72 velocity=100 time=0.025
EXTRACT: note_on channel=9 note=42 velocity=127 time=0
EXTRACT: note_on channel=0 note=57 velocity=100 time=0.005
EXTRACT: note_on channel=3 note=69 velocity=64 time=0
EXTRACT: control_change channel=4 control=7 value=74 time=0
EXTRACT: control_change channel=3 control=7 value=55 time=0.025
EXTRACT: control_change channel=1 control=7 value=50 time=0.02
EXTRACT: control_change channel=4 control=7 value=73 time=0.01
EXTRACT: control_change channel=9 control=7 value=110 time=0.055
EXTRACT: control_change channel=3 control=7 value=54 time=0
EXTRACT: control_change channel=4 control=7 value=72 time=0
EXTRACT: control_change channel=0 control=7 value=70 time=0.005
EXTRACT: note_on channel=3 note=69 velocity=0 time=0.005
EXTRACT: control_change channel=1 control=7 value=49 time=0.01
EXTRACT: note_on channel=9 note=35 velocity=127 time=0.015
EXTRACT: note_on channel=9 note=42 velocity=50 time=0
EXTRACT: note_on channel=0 note=57 velocity=100 time=0.005
EXTRACT: note_on channel=0 note=61 velocity=100 time=0
EXTRACT: note_on channel=0 note=64 velocity=100 time=0
EXTRACT: note_on channel=3 note=69 velocity=64 time=0
EXTRACT: control_change channel=0 control=7 value=69 time=0.025
EXTRACT: control_change channel=4 control=7 value=71 time=0.005
EXTRACT: control_change channel=3 control=7 value=53 time=0.005
EXTRACT: control_change channel=1 control=7 value=48 time=0.01
EXTRACT: control_change channel=4 control=7 value=70 time=0.025
EXTRACT: note_on channel=2 note=72 velocity=0 time=0.015
EXTRACT: note_on channel=9 note=42 velocity=0 time=0
EXTRACT: control_change channel=4 control=7 value=70 time=0
EXTRACT: control_change channel=0 control=7 value=68 time=0
EXTRACT: note_on channel=0 note=57 velocity=0 time=0.005
EXTRACT: control_change channel=1 control=7 value=47 time=0.015
EXTRACT: note_on channel=9 note=42 velocity=0 time=0.01
EXTRACT: note_on channel=0 note=57 velocity=0 time=0.005
EXTRACT: note_on channel=0 note=61 velocity=0 time=0
EXTRACT: note_on channel=0 note=64 velocity=0 time=0
EXTRACT: control_change channel=3 control=7 value=52 time=0.02
EXTRACT: control_change channel=0 control=7 value=68 time=0
EXTRACT: note_on channel=9 note=42 velocity=127 time=0.005
EXTRACT: note_on channel=5 note=93 velocity=70 time=0.005
EXTRACT: note_on channel=5 note=81 velocity=80 time=0
EXTRACT: control_change channel=1 control=7 value=47 time=0.025
EXTRACT: control_change channel=3 control=7 value=51 time=0.005
EXTRACT: note_on channel=0 note=45 velocity=0 time=0.03
EXTRACT: note_on channel=9 note=35 velocity=0 time=0.025
EXTRACT: note_on channel=3 note=69 velocity=0 time=0.005
EXTRACT: control_change channel=3 control=7 value=51 time=0
EXTRACT: control_change channel=4 control=7 value=69 time=0.03
EXTRACT: control_change channel=9 control=7 value=109 time=0.005
EXTRACT: note_on channel=1 note=45 velocity=100 time=0.02
EXTRACT: note_on channel=9 note=35 velocity=127 time=0
EXTRACT: note_on channel=9 note=42 velocity=50 time=0
EXTRACT: note_on channel=0 note=45 velocity=100 time=0.005
EXTRACT: note_on channel=3 note=69 velocity=64 time=0
EXTRACT: note_on channel=4 note=45 velocity=100 time=0
EXTRACT: control_change channel=3 control=7 value=50 time=0.025
EXTRACT: control_change channel=9 control=7 value=108 time=0.01
EXTRACT: control_change channel=0 control=7 value=67 time=0
EXTRACT: control_change channel=9 control=7 value=107 time=0.04
EXTRACT: note_on channel=9 note=42 velocity=0 time=0.01
EXTRACT: note_on channel=5 note=93 velocity=0 time=0.005
EXTRACT: note_on channel=5 note=81 velocity=0 time=0
EXTRACT: note_on channel=9 note=42 velocity=0 time=0.025
EXTRACT: note_on channel=3 note=69 velocity=0 time=0.005
EXTRACT: control_change channel=9 control=7 value=106 time=0.02
EXTRACT: note_on channel=2 note=66 velocity=127 time=0.005
EXTRACT: note_on channel=9 note=35 velocity=127 time=0
EXTRACT: note_on channel=9 note=42 velocity=127 time=0
EXTRACT: note_on channel=0 note=57 velocity=100 time=0.005
EXTRACT: note_on channel=0 note=61 velocity=100 time=0
EXTRACT: note_on channel=0 note=64 velocity=100 time=0
EXTRACT: control_change channel=9 control=7 value=105 time=0.04
EXTRACT: note_on channel=1 note=45 velocity=0 time=0.045
EXTRACT: note_on channel=9 note=35 velocity=0 time=0
EXTRACT: note_on channel=0 note=45 velocity=0 time=0.005
EXTRACT: note_on channel=4 note=45 velocity=0 time=0
EXTRACT: control_change channel=9 control=7 value=104 time=0.005
EXTRACT: control_change channel=4 control=7 value=68 time=0.02
EXTRACT: note_on channel=9 note=42 velocity=50 time=0.03
EXTRACT: note_on channel=3 note=69 velocity=64 time=0.005
EXTRACT: control_change channel=9 control=7 value=103 time=0
EXTRACT: control_change channel=2 control=7 value=126 time=0.01
EXTRACT: control_change channel=4 control=7 value=67 time=0.01
EXTRACT: control_change channel=3 control=7 value=49 time=0.005
EXTRACT: control_change channel=0 control=7 value=66 time=0
EXTRACT: control_change channel=9 control=7 value=102 time=0.03
EXTRACT: control_change channel=4 control=7 value=66 time=0.02
EXTRACT: note_on channel=2 note=66 velocity=0 time=0.01
EXTRACT: note_on channel=9 note=35 velocity=0 time=0
EXTRACT: note_on channel=9 note=42 velocity=0 time=0
EXTRACT: control_change channel=0 control=7 value=65 time=0
EXTRACT: note_on channel=0 note=57 velocity=0 time=0.005
EXTRACT: note_on channel=0 note=61 velocity=0 time=0
EXTRACT: note_on channel=0 note=64 velocity=0 time=0
EXTRACT: note_on channel=9 note=42 velocity=0 time=0.025
EXTRACT: control_change channel=9 control=7 value=101 time=0
EXTRACT: control_change channel=4 control=7 value=65 time=0.015
EXTRACT: control_change channel=3 control=7 value=48 time=0.01
EXTRACT: control_change channel=0 control=7 value=64 time=0
EXTRACT: note_on channel=1 note=45 velocity=100 time=0.005
EXTRACT: note_on channel=2 note=69 velocity=127 time=0
EXTRACT: note_on channel=9 note=38 velocity=127 time=0
EXTRACT: note_on channel=9 note=42 velocity=127 time=0
EXTRACT: note_on channel=0 note=45 velocity=100 time=0.005
EXTRACT: note_on channel=3 note=69 velocity=64 time=0
EXTRACT: note_on channel=4 note=45 velocity=100 time=0
EXTRACT: note_on channel=5 note=93 velocity=70 time=0
EXTRACT: note_on channel=5 note=81 velocity=80 time=0
EXTRACT: control_change channel=1 control=7 value=46 time=0.03
EXTRACT: control_change channel=9 control=7 value=100 time=0.005
EXTRACT: control_change channel=3 control=7 value=47 time=0.005
EXTRACT: control_change channel=4 control=7 value=64 time=0
EXTRACT: note_on channel=3 note=69 velocity=0 time=0.05
EXTRACT: control_change channel=3 control=7 value=46 time=0
EXTRACT: control_change channel=0 control=7 value=62 time=0.01
EXTRACT: control_change channel=9 control=7 value=99 time=0.025
EXTRACT: note_on channel=9 note=42 velocity=50 time=0.02
EXTRACT: note_on channel=0 note=57 velocity=100 time=0.005
EXTRACT: note_on channel=0 note=61 velocity=100 time=0
EXTRACT: note_on channel=0 note=64 velocity=100 time=0
EXTRACT: control_change channel=3 control=7 value=45 time=0
EXTRACT: control_change channel=0 control=7 value=61 time=0.015
EXTRACT: control_change channel=2 control=7 value=125 time=0.005
EXTRACT: control_change channel=9 control=7 value=98 time=0.015
EXTRACT: control_change channel=1 control=7 value=46 time=0.01
EXTRACT: control_change channel=4 control=7 value=62 time=0
EXTRACT: control_change channel=3 control=7 value=44 time=0.005
EXTRACT: note_on channel=2 note=69 velocity=0 time=0.035
EXTRACT: note_on channel=9 note=38 velocity=0 time=0
EXTRACT: note_on channel=9 note=42 velocity=0 time=0
EXTRACT: note_on channel=3 note=69 velocity=0 time=0.005
EXTRACT: note_on channel=5 note=93 velocity=0 time=0
EXTRACT: note_on channel=5 note=81 velocity=0 time=0
EXTRACT: control_change channel=9 control=7 value=97 time=0
EXTRACT: control_change channel=4 control=7 value=61 time=0.015
EXTRACT: control_change channel=0 control=7 value=60 time=0.005
EXTRACT: note_on channel=9 note=42 velocity=0 time=0.005
EXTRACT: control_change channel=3 control=7 value=43 time=0
EXTRACT: control_change channel=2 control=7 value=124 time=0.02
EXTRACT: control_change channel=9 control=7 value=96 time=0.005
EXTRACT: note_on channel=2 note=69 velocity=127 time=0.005
EXTRACT: note_on channel=9 note=42 velocity=127 time=0
EXTRACT: control_change channel=4 control=7 value=60 time=0.02
EXTRACT: control_change channel=0 control=7 value=59 time=0.005
EXTRACT: control_change channel=3 control=7 value=42 time=0.005
EXTRACT: control_change channel=9 control=7 value=95 time=0.015
EXTRACT: control_change channel=2 control=7 value=123 time=0
EXTRACT: control_change channel=4 control=7 value=59 time=0.025
EXTRACT: control_change channel=0 control=7 value=58 time=0.01
EXTRACT: note_on channel=0 note=57 velocity=0 time=0.015
EXTRACT: note_on channel=0 note=61 velocity=0 time=0
EXTRACT: note_on channel=0 note=64 velocity=0 time=0
EXTRACT: control_change channel=2 control=7 value=123 time=0.015
EXTRACT: control_change channel=9 control=7 value=94 time=0.005
EXTRACT: control_change channel=4 control=7 value=58 time=0.01
EXTRACT: control_change channel=0 control=7 value=57 time=0.01
EXTRACT: control_change channel=3 control=7 value=41 time=0.01
EXTRACT: note_on channel=9 note=42 velocity=50 time=0.005
EXTRACT: control_change channel=1 control=7 value=45 time=0.01
EXTRACT: control_change channel=9 control=7 value=93 time=0.01
EXTRACT: note_on channel=1 note=45 velocity=0 time=0.01
EXTRACT: control_change channel=4 control=7 value=57 time=0
EXTRACT: note_on channel=0 note=45 velocity=0 time=0.005
EXTRACT: note_on channel=4 note=45 velocity=0 time=0
EXTRACT: control_change channel=0 control=7 value=56 time=0.005
EXTRACT: control_change channel=0 control=7 value=56 time=0.025
EXTRACT: control_change channel=9 control=7 value=92 time=0.005
EXTRACT: control_change channel=4 control=7 value=56 time=0.015
EXTRACT: note_on channel=2 note=69 velocity=0 time=0.005
EXTRACT: note_on channel=9 note=42 velocity=0 time=0
EXTRACT: control_change channel=3 control=7 value=40 time=0.01
EXTRACT: note_on channel=9 note=42 velocity=0 time=0.02
EXTRACT: control_change channel=9 control=7 value=91 time=0.005
EXTRACT: control_change channel=3 control=7 value=39 time=0.015
EXTRACT: control_change channel=4 control=7 value=55 time=0
EXTRACT: note_on channel=2 note=76 velocity=127 time=0.01
EXTRACT: note_on channel=9 note=35 velocity=127 time=0
EXTRACT: note_on channel=9 note=42 velocity=127 time=0
EXTRACT: note_on channel=1 note=42 velocity=100 time=0.005
EXTRACT: note_on channel=4 note=42 velocity=100 time=0
EXTRACT: note_on channel=5 note=93 velocity=70 time=0
EXTRACT: note_on channel=5 note=81 velocity=80 time=0
EXTRACT: note_on channel=0 note=42 velocity=100 time=0.005
EXTRACT: control_change channel=9 control=7 value=90 time=0.03
EXTRACT: control_change channel=3 control=7 value=38 time=0.005
EXTRACT: control_change channel=4 control=7 value=54 time=0.01
EXTRACT: control_change channel=3 control=7 value=37 time=0.045
EXTRACT: control_change channel=4 control=7 value=53 time=0
EXTRACT: note_on channel=9 note=42 velocity=0 time=0.02
EXTRACT: control_change channel=9 control=7 value=89 time=0.015
EXTRACT: note_on channel=9 note=42 velocity=50 time=0.015
EXTRACT: control_change channel=4 control=7 value=52 time=0.005
EXTRACT: control_change channel=3 control=7 value=36 time=0.005
EXTRACT: control_change channel=2 control=7 value=122 time=0.005
EXTRACT: control_change channel=3 control=7 value=36 time=0.005
EXTRACT: control_change channel=1 control=7 value=44 time=0.005
EXTRACT: control_change channel=4 control=7 value=52 time=0.005
EXTRACT: control_change channel=9 control=7 value=88 time=0.02
EXTRACT: control_change channel=0 control=7 value=55 time=0.02
EXTRACT: control_change channel=1 control=7 value=43 time=0.015
EXTRACT: note_on channel=2 note=76 velocity=0 time=0.005
EXTRACT: note_on channel=9 note=35 velocity=0 time=0
EXTRACT: note_on channel=1 note=42 velocity=0 time=0.005
EXTRACT: note_on channel=4 note=42 velocity=0 time=0
EXTRACT: note_on channel=5 note=93 velocity=0 time=0
EXTRACT: note_on channel=5 note=81 velocity=0 time=0
EXTRACT: note_on channel=0 note=42 velocity=0 time=0.005
EXTRACT: control_change channel=9 control=7 value=87 time=0
EXTRACT: note_on channel=9 note=42 velocity=0 time=0.02
EXTRACT: control_change channel=3 control=7 value=35 time=0.01
EXTRACT: control_change channel=1 control=7 value=43 time=0.005
EXTRACT: note_on channel=9 note=42 velocity=127 time=0.015
EXTRACT: note_on channel=1 note=42 velocity=100 time=0.005
EXTRACT: note_on channel=3 note=69 velocity=64 time=0
EXTRACT: note_on channel=4 note=42 velocity=100 time=0
EXTRACT: control_change channel=9 control=7 value=86 time=0
EXTRACT: note_on channel=0 note=42 velocity=100 time=0.005
EXTRACT: control_change channel=5 control=7 value=60 time=0.025
EXTRACT: control_change channel=9 control=7 value=85 time=0.02
EXTRACT: control_change channel=4 control=7 value=51 time=0.005
EXTRACT: control_change channel=2 control=7 value=122 time=0.03
EXTRACT: control_change channel=9 control=7 value=84 time=0.015
EXTRACT: control_change channel=9 control=7 value=84 time=0.015
EXTRACT: note_on channel=3 note=69 velocity=0 time=0.005
EXTRACT: note_on channel=9 note=42 velocity=50 time=0.025
EXTRACT: note_on channel=3 note=69 velocity=64 time=0.005
EXTRACT: note_on channel=9 note=42 velocity=0 time=0.085
EXTRACT: control_change channel=1 control=7 value=42 time=0.01
EXTRACT: control_change channel=0 control=7 value=54 time=0.005
EXTRACT: control_change channel=2 control=7 value=121 time=0.005
EXTRACT: note_on channel=9 note=42 velocity=0 time=0.01
EXTRACT: note_on channel=3 note=69 velocity=0 time=0.005
EXTRACT: control_change channel=3 control=7 value=34 time=0.02
EXTRACT: note_on channel=2 note=74 velocity=127 time=0.005
EXTRACT: note_on channel=9 note=38 velocity=127 time=0
EXTRACT: note_on channel=9 note=42 velocity=127 time=0
EXTRACT: note_on channel=3 note=69 velocity=64 time=0.005
EXTRACT: note_on channel=5 note=93 velocity=70 time=0
EXTRACT: note_on channel=5 note=81 velocity=80 time=0
EXTRACT: note_on channel=0 note=57 velocity=100 time=0.005
EXTRACT: note_on channel=0 note=62 velocity=100 time=0
EXTRACT: note_on channel=0 note=66 velocity=100 time=0
EXTRACT: control_change channel=0 control=7 value=53 time=0.02
EXTRACT: control_change channel=9 control=7 value=83 time=0.005
EXTRACT: control_change channel=5 control=7 value=59 time=0.005
EXTRACT: control_change channel=4 control=7 value=50 time=0.005
EXTRACT: control_change channel=3 control=7 value=33 time=0.015
EXTRACT: control_change channel=5 control=7 value=58 time=0.035
EXTRACT: control_change channel=4 control=7 value=49 time=0.01
EXTRACT: control_change channel=3 control=7 value=32 time=0.005
EXTRACT: control_change channel=5 control=7 value=58 time=0.015
EXTRACT: note_on channel=9 note=42 velocity=50 time=0.025
EXTRACT: control_change channel=4 control=7 value=48 time=0.01
EXTRACT: control_change channel=0 control=7 value=52 time=0.005
EXTRACT: note_on channel=1 note=42 velocity=0 time=0.02
EXTRACT: note_on channel=4 note=42 velocity=0 time=0
EXTRACT: note_on channel=0 note=42 velocity=0 time=0.005
EXTRACT: control_change channel=4 control=7 value=47 time=0.025
EXTRACT: control_change channel=0 control=7 value=51 time=0.01
EXTRACT: note_on channel=2 note=74 velocity=0 time=0.015
EXTRACT: note_on channel=9 note=38 velocity=0 time=0
EXTRACT: note_on channel=9 note=42 velocity=0 time=0
EXTRACT: note_on channel=3 note=69 velocity=0 time=0.005
EXTRACT: note_on channel=5 note=93 velocity=0 time=0
EXTRACT: note_on channel=5 note=81 velocity=0 time=0
EXTRACT: note_on channel=0 note=57 velocity=0 time=0.005
EXTRACT: note_on channel=0 note=62 velocity=0 time=0
EXTRACT: note_on channel=0 note=66 velocity=0 time=0
EXTRACT: control_change channel=3 control=7 value=31 time=0
EXTRACT: note_on channel=9 note=42 velocity=0 time=0.02
EXTRACT: control_change channel=5 control=7 value=57 time=0.005
EXTRACT: control_change channel=4 control=7 value=46 time=0
EXTRACT: control_change channel=0 control=7 value=50 time=0.005
EXTRACT: control_change channel=2 control=7 value=120 time=0.01
EXTRACT: note_on channel=9 note=42 velocity=127 time=0.01
EXTRACT: control_change channel=1 control=7 value=41 time=0
EXTRACT: note_on channel=3 note=69 velocity=64 time=0.005
EXTRACT: note_on channel=0 note=57 velocity=100 time=0.005
EXTRACT: control_change channel=4 control=7 value=45 time=0.015
EXTRACT: control_change channel=0 control=7 value=49 time=0.01
EXTRACT: control_change channel=3 control=7 value=30 time=0.01
EXTRACT: control_change channel=2 control=7 value=119 time=0.005
EXTRACT: control_change channel=1 control=7 value=40 time=0.01
EXTRACT: control_change channel=9 control=7 value=82 time=0.01
EXTRACT: control_change channel=4 control=7 value=44 time=0.01
EXTRACT: control_change channel=0 control=7 value=48 time=0.01
EXTRACT: control_change channel=2 control=7 value=118 time=0.015
EXTRACT: control_change channel=9 control=7 value=81 time=0.015
EXTRACT: note_on channel=3 note=69 velocity=0 time=0.005
EXTRACT: control_change channel=1 control=7 value=40 time=0
EXTRACT: control_change channel=4 control=7 value=43 time=0.01
EXTRACT: control_change channel=3 control=7 value=29 time=0.005
EXTRACT: control_change channel=0 control=7 value=47 time=0.005
EXTRACT: note_on channel=9 note=35 velocity=127 time=0.005
EXTRACT: note_on channel=9 note=42 velocity=50 time=0
EXTRACT: note_on channel=3 note=69 velocity=64 time=0.005
EXTRACT: note_on channel=0 note=67 velocity=100 time=0.005
EXTRACT: note_on channel=0 note=59 velocity=100 time=0
EXTRACT: note_on channel=0 note=62 velocity=100 time=0
EXTRACT: control_change channel=9 control=7 value=80 time=0.025
EXTRACT: control_change channel=2 control=7 value=117 time=0
EXTRACT: control_change channel=4 control=7 value=42 time=0.005
EXTRACT: control_change channel=3 control=7 value=28 time=0.01
EXTRACT: control_change channel=0 control=7 value=46 time=0.01
EXTRACT: control_change channel=9 control=7 value=80 time=0.01
EXTRACT: note_on channel=9 note=42 velocity=0 time=0.02
EXTRACT: control_change channel=3 control=7 value=27 time=0.005
EXTRACT: note_on channel=0 note=57 velocity=0 time=0.005
EXTRACT: control_change channel=4 control=7 value=41 time=0
EXTRACT: control_change channel=2 control=7 value=116 time=0.015
EXTRACT: note_on channel=9 note=42 velocity=0 time=0.005
EXTRACT: note_on channel=0 note=67 velocity=0 time=0.01
EXTRACT: note_on channel=0 note=59 velocity=0 time=0
EXTRACT: note_on channel=0 note=62 velocity=0 time=0
EXTRACT: control_change channel=5 control=7 value=56 time=0.005
EXTRACT: note_on channel=2 note=57 velocity=100 time=0.015
EXTRACT: note_on channel=2 note=66 velocity=100 time=0
EXTRACT: note_on channel=2 note=69 velocity=127 time=0
EXTRACT: note_on channel=9 note=42 velocity=127 time=0
EXTRACT: control_change channel=4 control=7 value=40 time=0
EXTRACT: note_on channel=5 note=93 velocity=70 time=0.005
EXTRACT: note_on channel=5 note=81 velocity=80 time=0
EXTRACT: control_change channel=3 control=7 value=27 time=0
EXTRACT: control_change channel=1 control=7 value=39 time=0.02
EXTRACT: control_change channel=0 control=7 value=45 time=0
EXTRACT: control_change channel=4 control=7 value=40 time=0.005
EXTRACT: control_change channel=2 control=7 value=115 time=0.005
EXTRACT: control_change channel=9 control=7 value=79 time=0.02
EXTRACT: control_change channel=5 control=7 value=55 time=0.01
EXTRACT: note_on channel=9 note=35 velocity=0 time=0.025
EXTRACT: note_on channel=3 note=69 velocity=0 time=0.005
EXTRACT: control_change channel=3 control=7 value=26 time=0.005
EXTRACT: control_change channel=0 control=7 value=44 time=0.03
EXTRACT: control_change channel=2 control=7 value=114 time=0.01
EXTRACT: note_on channel=9 note=35 velocity=127 time=0.01
EXTRACT: note_on channel=9 note=42 velocity=50 time=0
EXTRACT: note_on channel=1 note=43 velocity=100 time=0.005
EXTRACT: note_on channel=3 note=69 velocity=64 time=0
EXTRACT: note_on channel=4 note=43 velocity=100 time=0
EXTRACT: control_change channel=5 control=7 value=54 time=0
EXTRACT: note_on channel=0 note=43 velocity=100 time=0.005
EXTRACT: control_change channel=4 control=7 value=39 time=0.015
EXTRACT: control_change channel=0 control=7 value=43 time=0.005
EXTRACT: control_change channel=2 control=7 value=113 time=0.01
EXTRACT: control_change channel=5 control=7 value=53 time=0.02
EXTRACT: note_on channel=2 note=57 velocity=0 time=0.03
EXTRACT: note_on channel=2 note=66 velocity=0 time=0
EXTRACT: note_on channel=2 note=69 velocity=0 time=0
EXTRACT: note_on channel=9 note=42 velocity=0 time=0
EXTRACT: note_on channel=5 note=93 velocity=0 time=0.005
EXTRACT: note_on channel=5 note=81 velocity=0 time=0
EXTRACT: control_change channel=2 control=7 value=112 time=0.005
EXTRACT: note_on channel=9 note=42 velocity=0 time=0.02
EXTRACT: control_change channel=5 control=7 value=52 time=0
EXTRACT: note_on channel=3 note=69 velocity=0 time=0.005
EXTRACT: control_change channel=0 control=7 value=43 time=0.01
EXTRACT: note_on channel=2 note=57 velocity=100 time=0.015
EXTRACT: note_on channel=2 note=66 velocity=100 time=0
EXTRACT: note_on channel=2 note=69 velocity=127 time=0
EXTRACT: note_on channel=9 note=35 velocity=127 time=0
EXTRACT: note_on channel=9 note=42 velocity=127 time=0
EXTRACT: control_change channel=2 control=7 value=111 time=0
EXTRACT: note_on channel=0 note=67 velocity=100 time=0.01
EXTRACT: note_on channel=0 note=59 velocity=100 time=0
EXTRACT: note_on channel=0 note=62 velocity=100 time=0
EXTRACT: control_change channel=1 control=7 value=38 time=0.015
EXTRACT: control_change channel=5 control=7 value=51 time=0.01
EXTRACT: control_change channel=1 control=7 value=37 time=0.025
EXTRACT: control_change channel=2 control=7 value=110 time=0.005
EXTRACT: control_change channel=9 control=7 value=78 time=0.015
EXTRACT: control_change channel=3 control=7 value=25 time=0
EXTRACT: note_on channel=9 note=35 velocity=0 time=0.01
EXTRACT: note_on channel=1 note=43 velocity=0 time=0.005
EXTRACT: note_on channel=4 note=43 velocity=0 time=0
EXTRACT: note_on channel=0 note=43 velocity=0 time=0.005
EXTRACT: control_change channel=1 control=7 value=36 time=0.005
EXTRACT: control_change channel=2 control=7 value=109 time=0.01
EXTRACT: control_change channel=5 control=7 value=50 time=0.02
EXTRACT: note_on channel=9 note=42 velocity=50 time=0.015
EXTRACT: control_change channel=3 control=7 value=24 time=0
EXTRACT: note_on channel=3 note=69 velocity=64 time=0.005
EXTRACT: control_change channel=9 control=7 value=77 time=0.01
EXTRACT: control_change channel=1 control=7 value=35 time=0
EXTRACT: control_change channel=1 control=7 value=35 time=0.01
EXTRACT: control_change channel=2 control=7 value=108 time=0
EXTRACT: control_change channel=5 control=7 value=49 time=0.02
EXTRACT: control_change channel=4 control=7 value=38 time=0
EXTRACT: control_change channel=3 control=7 value=23 time=0.005
EXTRACT: control_change channel=2 control=7 value=107 time=0.02
EXTRACT: control_change channel=9 control=7 value=76 time=0.015
EXTRACT: note_on channel=2 note=57 velocity=0 time=0.005
EXTRACT: note_on channel=2 note=66 velocity=0 time=0
EXTRACT: note_on channel=2 note=69 velocity=0 time=0
EXTRACT: note_on channel=9 note=35 velocity=0 time=0
EXTRACT: note_on channel=9 note=42 velocity=0 time=0
EXTRACT: control_change channel=0 control=7 value=42 time=0
EXTRACT: control_change channel=5 control=7 value=48 time=0.005
EXTRACT: note_on channel=0 note=67 velocity=0 time=0.005
EXTRACT: note_on channel=0 note=59 velocity=0 time=0
EXTRACT: note_on channel=0 note=62 velocity=0 time=0
EXTRACT: control_change channel=3 control=7 value=22 time=0.01
EXTRACT: control_change channel=4 control=7 value=37 time=0
EXTRACT: note_on channel=9 note=42 velocity=0 time=0.01
EXTRACT: control_change channel=9 control=7 value=75 time=0.015
EXTRACT: control_change channel=5 control=7 value=47 time=0.01
EXTRACT: note_on channel=2 note=57 velocity=100 time=0.005
EXTRACT: note_on channel=2 note=66 velocity=100 time=0
EXTRACT: note_on channel=2 note=69 velocity=127 time=0
EXTRACT: note_on channel=9 note=38 velocity=127 time=0
EXTRACT: note_on channel=9 note=42 velocity=127 time=0
EXTRACT: note_on channel=1 note=43 velocity=100 time=0.005
EXTRACT: note_on channel=3 note=69 velocity=64 time=0
EXTRACT: note_on channel=4 note=43 velocity=100 time=0
EXTRACT: note_on channel=5 note=93 velocity=70 time=0
EXTRACT: note_on channel=5 note=81 velocity=80 time=0
EXTRACT: control_change channel=4 control=7 value=36 time=0
EXTRACT: note_on channel=0 note=43 velocity=100 time=0.005
EXTRACT: control_change channel=2 control=7 value=106 time=0.025
EXTRACT: control_change channel=9 control=7 value=74 time=0.02
EXTRACT: control_change channel=5 control=7 value=46 time=0
EXTRACT: control_change channel=4 control=7 value=35 time=0.005
EXTRACT: control_change channel=3 control=7 value=21 time=0.005
EXTRACT: control_change channel=1 control=7 value=34 time=0.005
EXTRACT: control_change channel=2 control=7 value=105 time=0.02
EXTRACT: note_on channel=3 note=69 velocity=0 time=0.005
EXTRACT: control_change channel=9 control=7 value=74 time=0
EXTRACT: control_change channel=5 control=7 value=45 time=0.015
EXTRACT: control_change channel=4 control=7 value=34 time=0.005
EXTRACT: control_change channel=3 control=7 value=20 time=0.015
EXTRACT: control_change channel=2 control=7 value=104 time=0.01
EXTRACT: note_on channel=9 note=42 velocity=50 time=0.01
EXTRACT: note_on channel=0 note=67 velocity=100 time=0.01
EXTRACT: note_on channel=0 note=59 velocity=100 time=0
EXTRACT: note_on channel=0 note=62 velocity=100 time=0
EXTRACT: control_change channel=5 control=7 value=44 time=0.01
EXTRACT: control_change channel=4 control=7 value=34 time=0
EXTRACT: control_change channel=2 control=7 value=103 time=0.025
EXTRACT: control_change channel=5 control=7 value=43 time=0.02
EXTRACT: control_change channel=0 control=7 value=41 time=0.02
EXTRACT: note_on channel=2 note=57 velocity=0 time=0.005
EXTRACT: note_on channel=2 note=66 velocity=0 time=0
EXTRACT: note_on channel=2 note=69 velocity=0 time=0
EXTRACT: note_on channel=9 note=38 velocity=0 time=0
EXTRACT: note_on channel=9 note=42 velocity=0 time=0
EXTRACT: control_change channel=3 control=7 value=19 time=0
EXTRACT: note_on channel=3 note=69 velocity=0 time=0.005
EXTRACT: note_on channel=5 note=93 velocity=0 time=0
EXTRACT: note_on channel=5 note=81 velocity=0 time=0
EXTRACT: control_change channel=2 control=7 value=102 time=0.01
EXTRACT: note_on channel=9 note=42 velocity=0 time=0.015
EXTRACT: control_change channel=5 control=7 value=42 time=0.005
EXTRACT: control_change channel=0 control=7 value=40 time=0.015
EXTRACT: note_on channel=2 note=54 velocity=100 time=0.01
EXTRACT: note_on channel=2 note=62 velocity=100 time=0
EXTRACT: note_on channel=2 note=66 velocity=127 time=0
EXTRACT: note_on channel=9 note=42 velocity=127 time=0
EXTRACT: control_change channel=3 control=7 value=18 time=0.03
EXTRACT: control_change channel=5 control=7 value=41 time=0
EXTRACT: control_change channel=2 control=7 value=101 time=0.03
EXTRACT: control_change channel=5 control=7 value=40 time=0.02
EXTRACT: control_change channel=0 control=7 value=39 time=0.015
EXTRACT: note_on channel=0 note=67 velocity=0 time=0.005
EXTRACT: note_on channel=0 note=59 velocity=0 time=0
EXTRACT: note_on channel=0 note=62 velocity=0 time=0
EXTRACT: control_change channel=3 control=7 value=17 time=0
EXTRACT: control_change channel=1 control=7 value=33 time=0.015
EXTRACT: control_change channel=2 control=7 value=100 time=0
EXTRACT: control_change channel=4 control=7 value=33 time=0.02
EXTRACT: note_on channel=9 note=42 velocity=50 time=0.015
EXTRACT: control_change channel=3 control=7 value=16 time=0
EXTRACT: control_change channel=0 control=7 value=38 time=0.005
EXTRACT: control_change channel=1 control=7 value=32 time=0.01
EXTRACT: control_change channel=2 control=7 value=99 time=0.01
EXTRACT: note_on channel=1 note=43 velocity=0 time=0.01
EXTRACT: note_on channel=4 note=43 velocity=0 time=0
EXTRACT: note_on channel=0 note=43 velocity=0 time=0.005
EXTRACT: control_change channel=0 control=7 value=37 time=0.025
EXTRACT: control_change channel=5 control=7 value=39 time=0.01
EXTRACT: control_change channel=2 control=7 value=98 time=0
EXTRACT: control_change channel=1 control=7 value=31 time=0.005
EXTRACT: note_on channel=2 note=54 velocity=0 time=0.01
EXTRACT: note_on channel=2 note=62 velocity=0 time=0
EXTRACT: note_on channel=2 note=66 velocity=0 time=0
EXTRACT: note_on channel=9 note=42 velocity=0 time=0
EXTRACT: control_change channel=3 control=7 value=15 time=0.01
EXTRACT: control_change channel=0 control=7 value=36 time=0.015
EXTRACT: note_on channel=9 note=42 velocity=0 time=0.005
EXTRACT: control_change channel=1 control=7 value=31 time=0
EXTRACT: control_change channel=2 control=7 value=97 time=0.01
EXTRACT: control_change channel=5 control=7 value=38 time=0.015
EXTRACT: note_on channel=2 note=66 velocity=100 time=0.005
EXTRACT: note_on channel=2 note=57 velocity=100 time=0
EXTRACT: note_on channel=2 note=69 velocity=127 time=0
EXTRACT: note_on channel=9 note=35 velocity=127 time=0
EXTRACT: note_on channel=9 note=42 velocity=127 time=0
EXTRACT: note_on channel=1 note=45 velocity=100 time=0.005
EXTRACT: note_on channel=4 note=45 velocity=100 time=0
EXTRACT: note_on channel=5 note=93 velocity=70 time=0
EXTRACT: note_on channel=5 note=81 velocity=80 time=0
EXTRACT: note_on channel=0 note=45 velocity=100 time=0.005
EXTRACT: control_change channel=0 control=7 value=35 time=0.025
EXTRACT: control_change channel=2 control=7 value=96 time=0.01
EXTRACT: control_change channel=3 control=7 value=14 time=0.015
EXTRACT: control_change channel=5 control=7 value=37 time=0.01
EXTRACT: control_change channel=9 control=7 value=73 time=0.015
EXTRACT: control_change channel=2 control=7 value=95 time=0.01
EXTRACT: control_change channel=5 control=7 value=36 time=0.02
EXTRACT: note_on channel=9 note=42 velocity=0 time=0.005
EXTRACT: control_change channel=3 control=7 value=13 time=0.005
EXTRACT: control_change channel=0 control=7 value=34 time=0
EXTRACT: note_on channel=9 note=42 velocity=50 time=0.025
EXTRACT: control_change channel=1 control=7 value=30 time=0.015
EXTRACT: control_change channel=5 control=7 value=35 time=0.005
EXTRACT: control_change channel=4 control=7 value=32 time=0.005
EXTRACT: control_change channel=3 control=7 value=12 time=0.015
EXTRACT: control_change channel=0 control=7 value=33 time=0
EXTRACT: control_change channel=0 control=7 value=33 time=0.015
EXTRACT: control_change channel=2 control=7 value=94 time=0
EXTRACT: control_change channel=5 control=7 value=34 time=0.025
EXTRACT: control_change channel=4 control=7 value=31 time=0
EXTRACT: note_on channel=2 note=66 velocity=0 time=0.01
EXTRACT: note_on channel=2 note=57 velocity=0 time=0
EXTRACT: note_on channel=2 note=69 velocity=0 time=0
EXTRACT: note_on channel=9 note=35 velocity=0 time=0
EXTRACT: note_on channel=1 note=45 velocity=0 time=0.005
EXTRACT: note_on channel=4 note=45 velocity=0 time=0
EXTRACT: note_on channel=5 note=93 velocity=0 time=0
EXTRACT: note_on channel=5 note=81 velocity=0 time=0
EXTRACT: note_on channel=0 note=45 velocity=0 time=0.005
EXTRACT: control_change channel=2 control=7 value=93 time=0.01
EXTRACT: note_on channel=9 note=42 velocity=0 time=0.01
EXTRACT: control_change channel=4 control=7 value=30 time=0.015
EXTRACT: control_change channel=3 control=7 value=11 time=0.01
EXTRACT: note_on channel=2 note=62 velocity=100 time=0.005
EXTRACT: note_on channel=2 note=54 velocity=100 time=0
EXTRACT: note_on channel=2 note=66 velocity=127 time=0
EXTRACT: note_on channel=9 note=42 velocity=127 time=0
EXTRACT: control_change channel=4 control=7 value=30 time=0
EXTRACT: note_on channel=1 note=45 velocity=100 time=0.005
EXTRACT: note_on channel=3 note=69 velocity=64 time=0
EXTRACT: note_on channel=4 note=45 velocity=100 time=0
EXTRACT: note_on channel=0 note=45 velocity=100 time=0.005
EXTRACT: control_change channel=5 control=7 value=33 time=0.02
EXTRACT: control_change channel=2 control=7 value=92 time=0.01
EXTRACT: control_change channel=3 control=7 value=10 time=0.015
EXTRACT: control_change channel=9 control=7 value=72 time=0.015
EXTRACT: control_change channel=3 control=7 value=10 time=0.005
EXTRACT: control_change channel=5 control=7 value=32 time=0.01
EXTRACT: control_change channel=2 control=7 value=91 time=0.03
EXTRACT: note_on channel=3 note=69 velocity=0 time=0.01
EXTRACT: control_change channel=9 control=7 value=71 time=0.01
EXTRACT: control_change channel=5 control=7 value=31 time=0.005
EXTRACT: note_on channel=9 note=42 velocity=50 time=0.01
EXTRACT: note_on channel=3 note=69 velocity=64 time=0.005
EXTRACT: control_change channel=0 control=7 value=32 time=0
EXTRACT: control_change channel=2 control=7 value=90 time=0.02
EXTRACT: control_change channel=1 control=7 value=29 time=0.005
EXTRACT: control_change channel=4 control=7 value=29 time=0
EXTRACT: control_change channel=9 control=7 value=70 time=0.02
EXTRACT: control_change channel=5 control=7 value=30 time=0.005
EXTRACT: control_change channel=1 control=7 value=28 time=0.02
EXTRACT: control_change channel=3 control=7 value=9 time=0.01
EXTRACT: control_change channel=2 control=7 value=89 time=0
EXTRACT: note_on channel=2 note=62 velocity=0 time=0.005
EXTRACT: note_on channel=2 note=54 velocity=0 time=0
EXTRACT: note_on channel=2 note=66 velocity=0 time=0
EXTRACT: note_on channel=9 note=42 velocity=0 time=0
EXTRACT: control_change channel=5 control=7 value=29 time=0.015
EXTRACT: note_on channel=9 note=42 velocity=0 time=0.015
EXTRACT: note_on channel=3 note=69 velocity=0 time=0.005
EXTRACT: control_change channel=5 control=7 value=29 time=0
EXTRACT: control_change channel=1 control=7 value=27 time=0.005
EXTRACT: control_change channel=2 control=7 value=88 time=0.01
EXTRACT: control_change channel=9 control=7 value=69 time=0.005
EXTRACT: note_on channel=2 note=72 velocity=100 time=0.005
EXTRACT: note_on channel=9 note=38 velocity=127 time=0
EXTRACT: note_on channel=9 note=42 velocity=127 time=0
EXTRACT: note_on channel=3 note=69 velocity=64 time=0.005
EXTRACT: note_on channel=5 note=93 velocity=70 time=0
EXTRACT: note_on channel=5 note=81 velocity=80 time=0
EXTRACT: note_on channel=0 note=57 velocity=100 time=0.005
EXTRACT: note_on channel=0 note=62 velocity=100 time=0
EXTRACT: note_on channel=0 note=66 velocity=100 time=0
EXTRACT: control_change channel=9 control=7 value=69 time=0.02
EXTRACT: control_change channel=1 control=7 value=26 time=0.005
EXTRACT: control_change channel=2 control=7 value=87 time=0.005
EXTRACT: control_change channel=1 control=7 value=26 time=0.03
EXTRACT: control_change channel=2 control=7 value=86 time=0.025
EXTRACT: control_change channel=5 control=7 value=28 time=0.005
EXTRACT: note_on channel=9 note=42 velocity=50 time=0.05
EXTRACT: control_change channel=2 control=7 value=85 time=0.005
EXTRACT: control_change channel=9 control=7 value=68 time=0.01
EXTRACT: control_change channel=4 control=7 value=28 time=0.01
EXTRACT: note_on channel=1 note=45 velocity=0 time=0.01
EXTRACT: note_on channel=4 note=45 velocity=0 time=0
EXTRACT: control_change channel=0 control=7 value=31 time=0
EXTRACT: control_change channel=3 control=7 value=8 time=0.05
EXTRACT: note_on channel=9 note=38 velocity=0 time=0.005
EXTRACT: note_on channel=9 note=42 velocity=0 time=0
EXTRACT: control_change channel=4 control=7 value=27 time=0
EXTRACT: note_on channel=3 note=69 velocity=0 time=0.005
EXTRACT: note_on channel=5 note=93 velocity=0 time=0
EXTRACT: note_on channel=5 note=81 velocity=0 time=0
EXTRACT: control_change channel=0 control=7 value=30 time=0
EXTRACT: note_on channel=0 note=57 velocity=0 time=0.005
EXTRACT: note_on channel=0 note=62 velocity=0 time=0
EXTRACT: note_on channel=0 note=66 velocity=0 time=0
EXTRACT: control_change channel=2 control=7 value=84 time=0.015
EXTRACT: note_on channel=9 note=42 velocity=0 time=0.005
EXTRACT: control_change channel=1 control=7 value=25 time=0
EXTRACT: control_change channel=2 control=7 value=84 time=0.015
EXTRACT: control_change channel=4 control=7 value=26 time=0.01
EXTRACT: note_on channel=9 note=42 velocity=127 time=0.005
EXTRACT: note_on channel=3 note=69 velocity=64 time=0.005
EXTRACT: control_change channel=0 control=7 value=29 time=0
EXTRACT: note_on channel=0 note=57 velocity=100 time=0.005
EXTRACT: control_change channel=4 control=7 value=26 time=0.035
EXTRACT: control_change channel=3 control=7 value=7 time=0.01
EXTRACT: control_change channel=5 control=7 value=27 time=0.03
EXTRACT: control_change channel=3 control=7 value=6 time=0.015
EXTRACT: control_change channel=0 control=7 value=28 time=0.01
EXTRACT: note_on channel=3 note=69 velocity=0 time=0.015
EXTRACT: note_on channel=9 note=35 velocity=127 time=0.025
EXTRACT: note_on channel=9 note=42 velocity=50 time=0
EXTRACT: control_change channel=5 control=7 value=26 time=0
EXTRACT: note_on channel=3 note=69 velocity=64 time=0.005
EXTRACT: note_on channel=0 note=57 velocity=100 time=0.005
EXTRACT: note_on channel=0 note=61 velocity=100 time=0
EXTRACT: note_on channel=0 note=64 velocity=100 time=0
EXTRACT: control_change channel=3 control=7 value=5 time=0.005
EXTRACT: control_change channel=0 control=7 value=27 time=0.01
EXTRACT: control_change channel=9 control=7 value=67 time=0.02
EXTRACT: control_change channel=5 control=7 value=25 time=0.005
EXTRACT: control_change channel=2 control=7 value=83 time=0.005
EXTRACT: control_change channel=3 control=7 value=4 time=0.01
EXTRACT: control_change channel=4 control=7 value=25 time=0.005
EXTRACT: control_change channel=0 control=7 value=26 time=0.005
EXTRACT: control_change channel=5 control=7 value=25 time=0.01
EXTRACT: note_on channel=9 note=42 velocity=0 time=0.005
EXTRACT: note_on channel=0 note=57 velocity=0 time=0.01
EXTRACT: control_change channel=9 control=7 value=66 time=0
EXTRACT: note_on channel=9 note=42 velocity=0 time=0.02
EXTRACT: control_change channel=3 control=7 value=3 time=0.005
EXTRACT: note_on channel=0 note=57 velocity=0 time=0.005
EXTRACT: note_on channel=0 note=61 velocity=0 time=0
EXTRACT: note_on channel=0 note=64 velocity=0 time=0
EXTRACT: control_change channel=1 control=7 value=24 time=0.005
EXTRACT: note_on channel=9 note=42 velocity=127 time=0.015
EXTRACT: note_on channel=5 note=93 velocity=70 time=0.005
EXTRACT: note_on channel=5 note=81 velocity=80 time=0
EXTRACT: control_change channel=9 control=7 value=65 time=0
EXTRACT: control_change channel=0 control=7 value=26 time=0.02
EXTRACT: control_change channel=3 control=7 value=2 time=0.005
EXTRACT: control_change channel=1 control=7 value=23 time=0.015
EXTRACT: control_change channel=9 control=7 value=64 time=0.015
EXTRACT: note_on channel=0 note=45 velocity=0 time=0.01
EXTRACT: note_on channel=9 note=35 velocity=0 time=0.02
EXTRACT: note_on channel=3 note=69 velocity=0 time=0.005
EXTRACT: control_change channel=1 control=7 value=22 time=0.005
EXTRACT: control_change channel=5 control=7 value=24 time=0.02
EXTRACT: control_change channel=3 control=7 value=1 time=0.015
EXTRACT: control_change channel=3 control=7 value=1 time=0.005
EXTRACT: note_on channel=9 note=35 velocity=127 time=0.01
EXTRACT: note_on channel=9 note=42 velocity=50 time=0
EXTRACT: control_change channel=1 control=7 value=21 time=0
EXTRACT: note_on channel=1 note=45 velocity=100 time=0.005
EXTRACT: note_on channel=3 note=69 velocity=64 time=0
EXTRACT: note_on channel=4 note=45 velocity=100 time=0
EXTRACT: note_on channel=0 note=45 velocity=100 time=0.005
EXTRACT: control_change channel=9 control=7 value=62 time=0.03
EXTRACT: control_change channel=1 control=7 value=20 time=0.02
EXTRACT: control_change channel=2 control=7 value=82 time=0.005
EXTRACT: control_change channel=0 control=7 value=25 time=0.01
EXTRACT: note_on channel=9 note=42 velocity=0 time=0.015
EXTRACT: control_change channel=4 control=7 value=24 time=0
EXTRACT: note_on channel=5 note=93 velocity=0 time=0.005
EXTRACT: note_on channel=5 note=81 velocity=0 time=0
EXTRACT: note_on channel=9 note=42 velocity=0 time=0.025
EXTRACT: control_change channel=2 control=7 value=81 time=0
EXTRACT: note_on channel=3 note=69 velocity=0 time=0.005
EXTRACT: control_change channel=9 control=7 value=62 time=0.005
EXTRACT: note_on channel=2 note=66 velocity=100 time=0.02
EXTRACT: note_on channel=2 note=66 velocity=127 time=0
EXTRACT: note_on channel=9 note=35 velocity=127 time=0
EXTRACT: note_on channel=9 note=42 velocity=127 time=0
EXTRACT: note_on channel=0 note=57 velocity=100 time=0.01
EXTRACT: note_on channel=0 note=61 velocity=100 time=0
EXTRACT: note_on channel=0 note=64 velocity=100 time=0
EXTRACT: control_change channel=4 control=7 value=23 time=0.015
EXTRACT: control_change channel=1 control=7 value=19 time=0.005
EXTRACT: control_change channel=2 control=7 value=80 time=0
EXTRACT: control_change channel=4 control=7 value=22 time=0.02
EXTRACT: note_on channel=2 note=72 velocity=0 time=0.01
EXTRACT: control_change channel=1 control=7 value=19 time=0.025
EXTRACT: note_on channel=9 note=35 velocity=0 time=0.005
EXTRACT: note_on channel=1 note=45 velocity=0 time=0.005
EXTRACT: note_on channel=4 note=45 velocity=0 time=0
EXTRACT: note_on channel=0 note=45 velocity=0 time=0.005
EXTRACT: control_change channel=4 control=7 value=21 time=0.005
EXTRACT: control_change channel=2 control=7 value=79 time=0.025
EXTRACT: control_change channel=5 control=7 value=23 time=0.015
EXTRACT: note_on channel=9 note=42 velocity=50 time=0.005
EXTRACT: note_on channel=3 note=69 velocity=64 time=0.005
EXTRACT: control_change channel=9 control=7 value=61 time=0.01
EXTRACT: control_change channel=4 control=7 value=20 time=0
EXTRACT: control_change channel=2 control=7 value=78 time=0.025
EXTRACT: control_change channel=3 control=7 value=0 time=0.01
EXTRACT: control_change channel=5 control=7 value=22 time=0.01
EXTRACT: control_change channel=4 control=7 value=19 time=0.005
EXTRACT: note_on channel=2 note=66 velocity=0 time=0.025
EXTRACT: note_on channel=2 note=66 velocity=0 time=0
EXTRACT: note_on channel=9 note=35 velocity=0 time=0
EXTRACT: note_on channel=9 note=42 velocity=0 time=0
EXTRACT: control_change channel=2 control=7 value=77 time=0
EXTRACT: note_on channel=0 note=57 velocity=0 time=0.01
EXTRACT: note_on channel=0 note=61 velocity=0 time=0
EXTRACT: note_on channel=0 note=64 velocity=0 time=0
EXTRACT: control_change channel=5 control=7 value=21 time=0.01
EXTRACT: note_on channel=9 note=42 velocity=0 time=0.01
EXTRACT: control_change channel=4 control=7 value=18 time=0.005
EXTRACT: control_change channel=0 control=7 value=24 time=0
EXTRACT: control_change channel=2 control=7 value=76 time=0.02
EXTRACT: note_on channel=2 note=69 velocity=100 time=0.005
EXTRACT: note_on channel=2 note=66 velocity=127 time=0
EXTRACT: note_on channel=9 note=38 velocity=127 time=0
EXTRACT: note_on channel=9 note=42 velocity=127 time=0
EXTRACT: note_on channel=1 note=45 velocity=100 time=0.005
EXTRACT: note_on channel=3 note=69 velocity=64 time=0
EXTRACT: note_on channel=4 note=45 velocity=100 time=0
EXTRACT: note_on channel=5 note=93 velocity=70 time=0
EXTRACT: note_on channel=5 note=81 velocity=80 time=0
EXTRACT: note_on channel=0 note=45 velocity=100 time=0.005
EXTRACT: control_change channel=4 control=7 value=17 time=0.03
EXTRACT: control_change channel=5 control=7 value=20 time=0.005
EXTRACT: control_change channel=0 control=7 value=23 time=0.01
EXTRACT: control_change channel=2 control=7 value=75 time=0
EXTRACT: control_change channel=1 control=7 value=18 time=0.005
EXTRACT: note_on channel=3 note=69 velocity=0 time=0.035
EXTRACT: control_change channel=2 control=7 value=74 time=0.01
EXTRACT: control_change channel=5 control=7 value=19 time=0.02
EXTRACT: control_change channel=4 control=7 value=16 time=0.01
EXTRACT: control_change channel=0 control=7 value=22 time=0.01
EXTRACT: note_on channel=9 note=42 velocity=50 time=0.005
EXTRACT: note_on channel=0 note=57 velocity=100 time=0.01
EXTRACT: note_on channel=0 note=61 velocity=100 time=0
EXTRACT: note_on channel=0 note=64 velocity=100 time=0
EXTRACT: control_change channel=5 control=7 value=19 time=0.01
EXTRACT: control_change channel=2 control=7 value=73 time=0.005
EXTRACT: control_change channel=9 control=7 value=60 time=0.005
EXTRACT: control_change channel=4 control=7 value=15 time=0.005
EXTRACT: control_change channel=3 control=7 value=0 time=0.01
EXTRACT: control_change channel=0 control=7 value=21 time=0.005
EXTRACT: control_change channel=9 control=7 value=59 time=0.025
EXTRACT: note_on channel=2 note=69 velocity=0 time=0.015
EXTRACT: note_on channel=2 note=66 velocity=0 time=0
EXTRACT: note_on channel=9 note=38 velocity=0 time=0
EXTRACT: note_on channel=9 note=42 velocity=0 time=0
EXTRACT: note_on channel=3 note=69 velocity=0 time=0.005
EXTRACT: note_on channel=5 note=93 velocity=0 time=0
EXTRACT: note_on channel=5 note=81 velocity=0 time=0
EXTRACT: control_change channel=3 control=7 value=0 time=0.005
EXTRACT: control_change channel=4 control=7 value=14 time=0
EXTRACT: control_change channel=0 control=7 value=20 time=0.005
EXTRACT: note_on channel=9 note=42 velocity=0 time=0.015
EXTRACT: control_change channel=2 control=7 value=72 time=0
EXTRACT: control_change channel=9 control=7 value=58 time=0.015
EXTRACT: control_change channel=5 control=7 value=18 time=0.01
EXTRACT: note_on channel=2 note=66 velocity=100 time=0.005
EXTRACT: note_on channel=2 note=66 velocity=127 time=0
EXTRACT: note_on channel=9 note=42 velocity=127 time=0
EXTRACT: control_change channel=3 control=7 value=0 time=0
EXTRACT: control_change channel=4 control=7 value=13 time=0
EXTRACT: control_change channel=0 control=7 value=19 time=0.02
EXTRACT: control_change channel=2 control=7 value=71 time=0.01
EXTRACT: control_change channel=9 control=7 value=57 time=0.01
EXTRACT: control_change channel=3 control=7 value=0 time=0.01
EXTRACT: control_change channel=4 control=7 value=12 time=0.005
EXTRACT: control_change channel=2 control=7 value=70 time=0.03
EXTRACT: control_change channel=9 control=7 value=56 time=0.01
EXTRACT: control_change channel=1 control=7 value=17 time=0
EXTRACT: note_on channel=0 note=57 velocity=0 time=0.005
EXTRACT: note_on channel=0 note=61 velocity=0 time=0
EXTRACT: note_on channel=0 note=64 velocity=0 time=0
EXTRACT: control_change channel=4 control=7 value=12 time=0.015
EXTRACT: control_change channel=0 control=7 value=18 time=0
EXTRACT: control_change channel=3 control=7 value=0 time=0.005
EXTRACT: control_change channel=9 control=7 value=55 time=0.025
EXTRACT: note_on channel=9 note=42 velocity=50 time=0.005
EXTRACT: control_change channel=3 control=7 value=0 time=0.01
EXTRACT: control_change channel=0 control=7 value=17 time=0.015
EXTRACT: note_on channel=1 note=45 velocity=0 time=0.01
EXTRACT: note_on channel=4 note=45 velocity=0 time=0
EXTRACT: note_on channel=0 note=45 velocity=0 time=0.005
EXTRACT: control_change channel=1 control=7 value=16 time=0.005
EXTRACT: control_change channel=2 control=7 value=69 time=0
EXTRACT: control_change channel=9 control=7 value=54 time=0.005
EXTRACT: control_change channel=1 control=7 value=16 time=0.03
EXTRACT: control_change channel=0 control=7 value=16 time=0.005
EXTRACT: note_on channel=2 note=66 velocity=0 time=0.005
EXTRACT: note_on channel=2 note=66 velocity=0 time=0
EXTRACT: note_on channel=9 note=42 velocity=0 time=0
EXTRACT: control_change channel=9 control=7 value=53 time=0.02
EXTRACT: note_on channel=9 note=42 velocity=0 time=0.01
EXTRACT: control_change channel=3 control=7 value=0 time=0.005
EXTRACT: control_change channel=0 control=7 value=15 time=0.01
EXTRACT: note_on channel=2 note=69 velocity=100 time=0.015
EXTRACT: note_on channel=2 note=66 velocity=127 time=0
EXTRACT: note_on channel=9 note=35 velocity=127 time=0
EXTRACT: note_on channel=9 note=42 velocity=127 time=0
EXTRACT: note_on channel=4 note=42 velocity=100 time=0.005
EXTRACT: note_on channel=5 note=93 velocity=70 time=0
EXTRACT: note_on channel=5 note=81 velocity=80 time=0
EXTRACT: note_on channel=1 note=42 velocity=100 time=0.005
EXTRACT: note_on channel=0 note=42 velocity=100 time=0.005
EXTRACT: control_change channel=5 control=7 value=17 time=0.01
EXTRACT: control_change channel=2 control=7 value=68 time=0
EXTRACT: control_change channel=3 control=7 value=0 time=0.015
EXTRACT: control_change channel=9 control=7 value=52 time=0.01
EXTRACT: control_change channel=0 control=7 value=14 time=0.005
EXTRACT: control_change channel=2 control=7 value=67 time=0
EXTRACT: control_change channel=3 control=7 value=0 time=0.025
EXTRACT: control_change channel=9 control=7 value=51 time=0.035
EXTRACT: control_change channel=2 control=7 value=66 time=0
EXTRACT: note_on channel=9 note=42 velocity=0 time=0.005
EXTRACT: control_change channel=9 control=7 value=51 time=0.005
EXTRACT: control_change channel=3 control=7 value=0 time=0.005
EXTRACT: control_change channel=5 control=7 value=16 time=0.005
EXTRACT: control_change channel=0 control=7 value=13 time=0.01
EXTRACT: note_on channel=9 note=42 velocity=50 time=0.005
EXTRACT: control_change channel=2 control=7 value=65 time=0.02
EXTRACT: control_change channel=1 control=7 value=15 time=0.005
EXTRACT: control_change channel=3 control=7 value=0 time=0.01
EXTRACT: control_change channel=5 control=7 value=15 time=0.01
EXTRACT: control_change channel=5 control=7 value=15 time=0.01
EXTRACT: control_change channel=0 control=7 value=12 time=0
EXTRACT: control_change channel=3 control=7 value=0 time=0.025
EXTRACT: control_change channel=2 control=7 value=64 time=0
EXTRACT: note_on channel=2 note=69 velocity=0 time=0.01
EXTRACT: note_on channel=2 note=66 velocity=0 time=0
EXTRACT: note_on channel=9 note=35 velocity=0 time=0
EXTRACT: note_on channel=4 note=42 velocity=0 time=0.005
EXTRACT: note_on channel=5 note=93 velocity=0 time=0
EXTRACT: note_on channel=5 note=81 velocity=0 time=0
EXTRACT: note_on channel=1 note=42 velocity=0 time=0.005
EXTRACT: note_on channel=0 note=42 velocity=0 time=0.005
EXTRACT: control_change channel=0 control=7 value=11 time=0.01
EXTRACT: note_on channel=9 note=42 velocity=0 time=0.005
EXTRACT: note_on channel=2 note=66 velocity=100 time=0.03
EXTRACT: note_on channel=2 note=66 velocity=127 time=0
EXTRACT: note_on channel=9 note=42 velocity=127 time=0
EXTRACT: note_on channel=3 note=69 velocity=64 time=0.005
EXTRACT: note_on channel=4 note=42 velocity=100 time=0
EXTRACT: note_on channel=1 note=42 velocity=100 time=0.005
EXTRACT: note_on channel=0 note=42 velocity=100 time=0.005
EXTRACT: control_change channel=9 control=7 value=50 time=0.005
EXTRACT: control_change channel=0 control=7 value=10 time=0.005
EXTRACT: control_change channel=4 control=7 value=11 time=0.01
EXTRACT: control_change channel=2 control=7 value=62 time=0
EXTRACT: control_change channel=5 control=7 value=14 time=0.03
EXTRACT: control_change channel=0 control=7 value=9 time=0.055
EXTRACT: note_on channel=3 note=69 velocity=0 time=0.005
EXTRACT: control_change channel=2 control=7 value=61 time=0.01
EXTRACT: note_on channel=9 note=42 velocity=50 time=0.015
EXTRACT: note_on channel=3 note=69 velocity=64 time=0.005
EXTRACT: control_change channel=1 control=7 value=14 time=0.035
EXTRACT: control_change channel=0 control=7 value=8 time=0
EXTRACT: control_change channel=2 control=7 value=60 time=0.01
EXTRACT: note_on channel=2 note=66 velocity=0 time=0.04
EXTRACT: note_on channel=2 note=66 velocity=0 time=0
EXTRACT: note_on channel=9 note=42 velocity=0 time=0
EXTRACT: control_change channel=0 control=7 value=7 time=0
EXTRACT: control_change channel=1 control=7 value=13 time=0.015
EXTRACT: control_change channel=2 control=7 value=59 time=0
EXTRACT: note_on channel=9 note=42 velocity=0 time=0.015
EXTRACT: note_on channel=3 note=69 velocity=0 time=0.005
EXTRACT: control_change channel=0 control=7 value=6 time=0.015
EXTRACT: note_on channel=2 note=64 velocity=127 time=0.01
EXTRACT: note_on channel=9 note=38 velocity=127 time=0
EXTRACT: note_on channel=9 note=42 velocity=127 time=0
EXTRACT: note_on channel=3 note=69 velocity=64 time=0.005
EXTRACT: note_on channel=5 note=93 velocity=70 time=0
EXTRACT: note_on channel=5 note=81 velocity=80 time=0
EXTRACT: note_on channel=0 note=57 velocity=100 time=0.01
EXTRACT: note_on channel=0 note=62 velocity=100 time=0
EXTRACT: note_on channel=0 note=66 velocity=100 time=0
EXTRACT: control_change channel=1 control=7 value=12 time=0.005
EXTRACT: control_change channel=9 control=7 value=49 time=0.02
EXTRACT: control_change channel=0 control=7 value=5 time=0.005
EXTRACT: control_change channel=4 control=7 value=10 time=0.005
EXTRACT: control_change channel=2 control=7 value=58 time=0.005
EXTRACT: control_change channel=1 control=7 value=11 time=0.02
EXTRACT: control_change channel=5 control=7 value=13 time=0.02
EXTRACT: control_change channel=0 control=7 value=4 time=0.005
EXTRACT: control_change channel=9 control=7 value=48 time=0.025
EXTRACT: control_change channel=2 control=7 value=57 time=0
EXTRACT: note_on channel=9 note=42 velocity=50 time=0.025
EXTRACT: control_change channel=0 control=7 value=3 time=0.005
EXTRACT: control_change channel=4 control=7 value=9 time=0.005
EXTRACT: control_change channel=1 control=7 value=10 time=0.015
EXTRACT: control_change channel=9 control=7 value=47 time=0.005
EXTRACT: control_change channel=1 control=7 value=10 time=0
EXTRACT: note_on channel=4 note=42 velocity=0 time=0.005
EXTRACT: control_change channel=2 control=7 value=56 time=0
EXTRACT: note_on channel=1 note=42 velocity=0 time=0.005
EXTRACT: note_on channel=0 note=42 velocity=0 time=0.005
EXTRACT: control_change channel=5 control=7 value=12 time=0
EXTRACT: control_change channel=4 control=7 value=9 time=0.005
EXTRACT: control_change channel=0 control=7 value=2 time=0.015
EXTRACT: control_change channel=9 control=7 value=46 time=0.02
EXTRACT: note_on channel=2 note=64 velocity=0 time=0.005
EXTRACT: note_on channel=9 note=38 velocity=0 time=0
EXTRACT: note_on channel=9 note=42 velocity=0 time=0
EXTRACT: note_on channel=3 note=69 velocity=0 time=0.005
EXTRACT: note_on channel=5 note=93 velocity=0 time=0
EXTRACT: note_on channel=5 note=81 velocity=0 time=0
EXTRACT: control_change channel=5 control=7 value=11 time=0.005
EXTRACT: note_on channel=0 note=57 velocity=0 time=0.005
EXTRACT: note_on channel=0 note=62 velocity=0 time=0
EXTRACT: note_on channel=0 note=66 velocity=0 time=0
EXTRACT: note_on channel=9 note=42 velocity=0 time=0.015
EXTRACT: control_change channel=2 control=7 value=55 time=0.01
EXTRACT: control_change channel=9 control=7 value=45 time=0.015
EXTRACT: note_on channel=2 note=62 velocity=127 time=0.005
EXTRACT: note_on channel=9 note=42 velocity=127 time=0
EXTRACT: note_on channel=3 note=69 velocity=64 time=0.005
EXTRACT: control_change channel=5 control=7 value=10 time=0
EXTRACT: note_on channel=0 note=57 velocity=100 time=0.01
EXTRACT: control_change channel=0 control=7 value=1 time=0.005
EXTRACT: control_change channel=9 control=7 value=44 time=0.025
EXTRACT: control_change channel=2 control=7 value=54 time=0
EXTRACT: control_change channel=4 control=7 value=8 time=0.01
EXTRACT: control_change channel=5 control=7 value=9 time=0.015
EXTRACT: control_change channel=5 control=7 value=9 time=0.025
EXTRACT: control_change channel=2 control=7 value=53 time=0
EXTRACT: control_change channel=9 control=7 value=43 time=0.01
EXTRACT: note_on channel=2 note=62 velocity=0 time=0.015
EXTRACT: note_on channel=3 note=69 velocity=0 time=0.005
EXTRACT: control_change channel=0 control=7 value=0 time=0.005
EXTRACT: note_on channel=2 note=60 velocity=127 time=0.02
EXTRACT: note_on channel=9 note=35 velocity=127 time=0
EXTRACT: note_on channel=9 note=42 velocity=50 time=0
EXTRACT: note_on channel=3 note=69 velocity=64 time=0.005
EXTRACT: note_on channel=0 note=67 velocity=100 time=0.01
EXTRACT: note_on channel=0 note=59 velocity=100 time=0
EXTRACT: note_on channel=0 note=62 velocity=100 time=0
EXTRACT: control_change channel=9 control=7 value=42 time=0.01
EXTRACT: control_change channel=2 control=7 value=52 time=0.005
EXTRACT: control_change channel=5 control=7 value=8 time=0.025
EXTRACT: control_change channel=0 control=7 value=0 time=0
EXTRACT: note_on channel=9 note=42 velocity=0 time=0.035
EXTRACT: control_change channel=2 control=7 value=51 time=0.01
EXTRACT: note_on channel=0 note=57 velocity=0 time=0.005
EXTRACT: control_change channel=9 control=7 value=41 time=0.01
EXTRACT: note_on channel=9 note=42 velocity=0 time=0.005
EXTRACT: control_change channel=9 control=7 value=41 time=0.005
EXTRACT: note_on channel=0 note=67 velocity=0 time=0.01
EXTRACT: note_on channel=0 note=59 velocity=0 time=0
EXTRACT: note_on channel=0 note=62 velocity=0 time=0
EXTRACT: control_change channel=0 control=7 value=0 time=0
EXTRACT: note_on channel=9 note=42 velocity=127 time=0.015
EXTRACT: note_on channel=5 note=93 velocity=70 time=0.005
EXTRACT: note_on channel=5 note=81 velocity=80 time=0
EXTRACT: control_change channel=2 control=7 value=50 time=0.02
EXTRACT: control_change channel=0 control=7 value=0 time=0.015
EXTRACT: note_on channel=2 note=60 velocity=0 time=0.05
EXTRACT: note_on channel=9 note=35 velocity=0 time=0
EXTRACT: note_on channel=3 note=69 velocity=0 time=0.005
EXTRACT: control_change channel=1 control=7 value=9 time=0
EXTRACT: control_change channel=4 control=7 value=7 time=0
EXTRACT: control_change channel=0 control=7 value=0 time=0.005
EXTRACT: control_change channel=2 control=7 value=49 time=0.02
EXTRACT: note_on channel=9 note=35 velocity=127 time=0.03
EXTRACT: note_on channel=9 note=42 velocity=50 time=0
EXTRACT: control_change channel=4 control=7 value=6 time=0
EXTRACT: note_on channel=3 note=69 velocity=64 time=0.005
EXTRACT: note_on channel=4 note=43 velocity=100 time=0
EXTRACT: note_on channel=1 note=43 velocity=100 time=0.005
EXTRACT: note_on channel=0 note=43 velocity=100 time=0.005
EXTRACT: control_change channel=0 control=7 value=0 time=0.005
EXTRACT: control_change channel=2 control=7 value=48 time=0.01
EXTRACT: control_change channel=5 control=7 value=7 time=0.01
EXTRACT: control_change channel=4 control=7 value=5 time=0.015
EXTRACT: note_on channel=9 note=42 velocity=0 time=0.035
EXTRACT: note_on channel=5 note=93 velocity=0 time=0.005
EXTRACT: note_on channel=5 note=81 velocity=0 time=0
EXTRACT: control_change channel=5 control=7 value=6 time=0.005
EXTRACT: control_change channel=4 control=7 value=4 time=0.01
EXTRACT: control_change channel=0 control=7 value=0 time=0
EXTRACT: note_on channel=9 note=42 velocity=0 time=0.01
EXTRACT: note_on channel=3 note=69 velocity=0 time=0.005
EXTRACT: control_change channel=2 control=7 value=47 time=0.01
EXTRACT: note_on channel=2 note=54 velocity=100 time=0.015
EXTRACT: note_on channel=2 note=62 velocity=100 time=0
EXTRACT: note_on channel=2 note=66 velocity=127 time=0
EXTRACT: note_on channel=9 note=35 velocity=127 time=0
EXTRACT: note_on channel=9 note=42 velocity=127 time=0
EXTRACT: note_on channel=0 note=67 velocity=100 time=0.015
EXTRACT: note_on channel=0 note=59 velocity=100 time=0
EXTRACT: note_on channel=0 note=62 velocity=100 time=0
EXTRACT: control_change channel=4 control=7 value=3 time=0.015
EXTRACT: control_change channel=9 control=7 value=40 time=0.01
EXTRACT: control_change channel=2 control=7 value=46 time=0
EXTRACT: control_change channel=5 control=7 value=5 time=0.01
EXTRACT: note_on channel=9 note=35 velocity=0 time=0.04
EXTRACT: control_change channel=1 control=7 value=8 time=0
EXTRACT: note_on channel=4 note=43 velocity=0 time=0.005
EXTRACT: control_change channel=0 control=7 value=0 time=0
EXTRACT: note_on channel=1 note=43 velocity=0 time=0.005
EXTRACT: control_change channel=2 control=7 value=45 time=0
EXTRACT: note_on channel=0 note=43 velocity=0 time=0.005
EXTRACT: control_change channel=5 control=7 value=4 time=0.01
EXTRACT: control_change channel=4 control=7 value=2 time=0.005
EXTRACT: note_on channel=9 note=42 velocity=50 time=0.03
EXTRACT: control_change channel=1 control=7 value=7 time=0
EXTRACT: control_change channel=2 control=7 value=44 time=0
EXTRACT: note_on channel=3 note=69 velocity=64 time=0.005
EXTRACT: control_change channel=5 control=7 value=3 time=0.015
EXTRACT: control_change channel=4 control=7 value=1 time=0.01
EXTRACT: control_change channel=0 control=7 value=0 time=0.005
EXTRACT: control_change channel=1 control=7 value=6 time=0.025
EXTRACT: control_change channel=2 control=7 value=43 time=0
EXTRACT: control_change channel=4 control=7 value=0 time=0.025
EXTRACT: control_change channel=0 control=7 value=0 time=0
EXTRACT: note_on channel=2 note=54 velocity=0 time=0.005
EXTRACT: note_on channel=2 note=62 velocity=0 time=0
EXTRACT: note_on channel=2 note=66 velocity=0 time=0
EXTRACT: note_on channel=9 note=35 velocity=0 time=0
EXTRACT: note_on channel=9 note=42 velocity=0 time=0
EXTRACT: note_on channel=0 note=67 velocity=0 time=0.015
EXTRACT: note_on channel=0 note=59 velocity=0 time=0
EXTRACT: note_on channel=0 note=62 velocity=0 time=0
EXTRACT: control_change channel=1 control=7 value=5 time=0.005
EXTRACT: control_change channel=2 control=7 value=42 time=0.005
EXTRACT: note_on channel=9 note=42 velocity=0 time=0.005
EXTRACT: control_change channel=4 control=7 value=0 time=0.015
EXTRACT: control_change channel=5 control=7 value=2 time=0.01
EXTRACT: control_change channel=0 control=7 value=0 time=0
EXTRACT: note_on channel=2 note=57 velocity=100 time=0.005
EXTRACT: note_on channel=2 note=66 velocity=100 time=0
EXTRACT: note_on channel=2 note=69 velocity=127 time=0
EXTRACT: note_on channel=9 note=38 velocity=127 time=0
EXTRACT: note_on channel=9 note=42 velocity=127 time=0
EXTRACT: note_on channel=3 note=69 velocity=64 time=0.005
EXTRACT: note_on channel=4 note=43 velocity=100 time=0
EXTRACT: note_on channel=5 note=93 velocity=70 time=0
EXTRACT: note_on channel=5 note=81 velocity=80 time=0
EXTRACT: note_on channel=1 note=43 velocity=100 time=0.005
EXTRACT: note_on channel=0 note=43 velocity=100 time=0.005
EXTRACT: control_change channel=0 control=7 value=0 time=0.02
EXTRACT: control_change channel=1 control=7 value=4 time=0.005
EXTRACT: control_change channel=2 control=7 value=41 time=0
EXTRACT: control_change channel=5 control=7 value=1 time=0.005
EXTRACT: control_change channel=4 control=7 value=0 time=0.015
EXTRACT: control_change channel=9 control=7 value=39 time=0.015
EXTRACT: note_on channel=3 note=69 velocity=0 time=0.02
EXTRACT: control_change channel=1 control=7 value=3 time=0.02
EXTRACT: control_change channel=9 control=7 value=38 time=0.02
EXTRACT: control_change channel=2 control=7 value=40 time=0.005
EXTRACT: control_change channel=5 control=7 value=0 time=0.005
EXTRACT: note_on channel=9 note=42 velocity=50 time=0.005
EXTRACT: note_on channel=0 note=67 velocity=100 time=0.015
EXTRACT: note_on channel=0 note=59 velocity=100 time=0
EXTRACT: note_on channel=0 note=62 velocity=100 time=0
EXTRACT: control_change channel=1 control=7 value=2 time=0.015
EXTRACT: control_change channel=2 control=7 value=39 time=0.01
EXTRACT: control_change channel=9 control=7 value=37 time=0.005
EXTRACT: control_change channel=5 control=7 value=0 time=0.005
EXTRACT: control_change channel=9 control=7 value=37 time=0.015
EXTRACT: control_change channel=1 control=7 value=1 time=0.02
EXTRACT: note_on channel=2 note=57 velocity=0 time=0.005
EXTRACT: note_on channel=2 note=66 velocity=0 time=0
EXTRACT: note_on channel=2 note=69 velocity=0 time=0
EXTRACT: note_on channel=9 note=38 velocity=0 time=0
EXTRACT: note_on channel=9 note=42 velocity=0 time=0
EXTRACT: note_on channel=3 note=69 velocity=0 time=0.005
EXTRACT: note_on channel=5 note=93 velocity=0 time=0
EXTRACT: note_on channel=5 note=81 velocity=0 time=0
EXTRACT: control_change channel=5 control=7 value=0 time=0.01
EXTRACT: note_on channel=9 note=42 velocity=0 time=0.015
EXTRACT: control_change channel=1 control=7 value=0 time=0.015
EXTRACT: control_change channel=4 control=7 value=0 time=0.005
EXTRACT: control_change channel=2 control=7 value=38 time=0.005
EXTRACT: note_on channel=2 note=54 velocity=100 time=0.005
EXTRACT: note_on channel=2 note=62 velocity=100 time=0
EXTRACT: note_on channel=2 note=66 velocity=127 time=0
EXTRACT: note_on channel=9 note=42 velocity=127 time=0
EXTRACT: control_change channel=5 control=7 value=0 time=0.015
EXTRACT: control_change channel=1 control=7 value=0 time=0.02
EXTRACT: control_change channel=2 control=7 value=37 time=0.015
EXTRACT: control_change channel=1 control=7 value=0 time=0.045
EXTRACT: control_change channel=2 control=7 value=36 time=0.005
EXTRACT: note_on channel=0 note=67 velocity=0 time=0.005
EXTRACT: note_on channel=0 note=59 velocity=0 time=0
EXTRACT: note_on channel=0 note=62 velocity=0 time=0
EXTRACT: control_change channel=5 control=7 value=0 time=0.01
EXTRACT: control_change channel=1 control=7 value=0 time=0.03
EXTRACT: note_on channel=9 note=42 velocity=50 time=0.005
EXTRACT: control_change channel=2 control=7 value=35 time=0.01
EXTRACT: control_change channel=9 control=7 value=36 time=0.005
EXTRACT: control_change channel=5 control=7 value=0 time=0.005
EXTRACT: note_on channel=4 note=43 velocity=0 time=0.015
EXTRACT: note_on channel=1 note=43 velocity=0 time=0.005
EXTRACT: note_on channel=0 note=43 velocity=0 time=0.005
EXTRACT: control_change channel=1 control=7 value=0 time=0.005
EXTRACT: control_change channel=2 control=7 value=34 time=0.02
EXTRACT: note_on channel=2 note=54 velocity=0 time=0.02
EXTRACT: note_on channel=2 note=62 velocity=0 time=0
EXTRACT: note_on channel=2 note=66 velocity=0 time=0
EXTRACT: note_on channel=9 note=42 velocity=0 time=0
EXTRACT: control_change channel=5 control=7 value=0 time=0
EXTRACT: control_change channel=1 control=7 value=0 time=0.015
EXTRACT: note_on channel=9 note=42 velocity=0 time=0.015
EXTRACT: control_change channel=2 control=7 value=33 time=0.01
EXTRACT: control_change channel=5 control=7 value=0 time=0.005
EXTRACT: note_on channel=2 note=57 velocity=100 time=0.015
EXTRACT: note_on channel=2 note=66 velocity=100 time=0
EXTRACT: note_on channel=2 note=69 velocity=127 time=0
EXTRACT: note_on channel=9 note=35 velocity=127 time=0
EXTRACT: note_on channel=9 note=42 velocity=127 time=0
EXTRACT: control_change channel=4 control=7 value=0 time=0
EXTRACT: note_on channel=4 note=45 velocity=100 time=0.005
EXTRACT: note_on channel=5 note=93 velocity=70 time=0
EXTRACT: note_on channel=5 note=81 velocity=80 time=0
EXTRACT: note_on channel=1 note=45 velocity=100 time=0.005
EXTRACT: note_on channel=0 note=45 velocity=100 time=0.005
EXTRACT: control_change channel=1 control=7 value=0 time=0.02
EXTRACT: control_change channel=2 control=7 value=32 time=0
EXTRACT: control_change channel=5 control=7 value=0 time=0.005
EXTRACT: control_change channel=4 control=7 value=0 time=0.005
EXTRACT: control_change channel=4 control=7 value=0 time=0.05
EXTRACT: control_change channel=1 control=7 value=0 time=0.02
EXTRACT: note_on channel=2 note=57 velocity=0 time=0.005
EXTRACT: note_on channel=2 note=66 velocity=0 time=0
EXTRACT: note_on channel=2 note=69 velocity=0 time=0
EXTRACT: note_on channel=9 note=42 velocity=0 time=0
EXTRACT: control_change channel=2 control=7 value=31 time=0.01
EXTRACT: note_on channel=2 note=66 velocity=100 time=0.02
EXTRACT: note_on channel=2 note=57 velocity=100 time=0
EXTRACT: note_on channel=2 note=69 velocity=127 time=0
EXTRACT: note_on channel=9 note=42 velocity=50 time=0
EXTRACT: control_change channel=4 control=7 value=0 time=0
EXTRACT: control_change channel=1 control=7 value=0 time=0.035
EXTRACT: control_change channel=2 control=7 value=30 time=0
EXTRACT: control_change channel=9 control=7 value=35 time=0.005
EXTRACT: control_change channel=1 control=7 value=0 time=0.005
EXTRACT: control_change channel=4 control=7 value=0 time=0.01
EXTRACT: note_on channel=9 note=35 velocity=0 time=0.035
EXTRACT: note_on channel=4 note=45 velocity=0 time=0.005
EXTRACT: note_on channel=5 note=93 velocity=0 time=0
EXTRACT: note_on channel=5 note=81 velocity=0 time=0
EXTRACT: note_on channel=1 note=45 velocity=0 time=0.005
EXTRACT: control_change channel=2 control=7 value=29 time=0
EXTRACT: note_on channel=0 note=45 velocity=0 time=0.005
EXTRACT: control_change channel=9 control=7 value=34 time=0.005
EXTRACT: note_on channel=2 note=66 velocity=0 time=0.01
EXTRACT: note_on channel=2 note=57 velocity=0 time=0
EXTRACT: note_on channel=2 note=69 velocity=0 time=0
EXTRACT: note_on channel=9 note=42 velocity=0 time=0
EXTRACT: control_change channel=4 control=7 value=0 time=0
EXTRACT: control_change channel=4 control=7 value=0 time=0.02
EXTRACT: note_on channel=2 note=69 velocity=127 time=0.01
EXTRACT: note_on channel=2 note=54 velocity=100 time=0
EXTRACT: note_on channel=2 note=62 velocity=100 time=0
EXTRACT: note_on channel=2 note=66 velocity=127 time=0
EXTRACT: note_on channel=9 note=42 velocity=127 time=0
EXTRACT: note_on channel=3 note=69 velocity=64 time=0.005
EXTRACT: note_on channel=4 note=45 velocity=100 time=0
EXTRACT: note_on channel=1 note=45 velocity=100 time=0.005
EXTRACT: note_on channel=0 note=45 velocity=100 time=0.005
EXTRACT: control_change channel=9 control=7 value=33 time=0.01
EXTRACT: control_change channel=2 control=7 value=28 time=0.02
EXTRACT: control_change channel=9 control=7 value=32 time=0.065
EXTRACT: control_change channel=2 control=7 value=27 time=0.005
EXTRACT: note_on channel=2 note=69 velocity=0 time=0.005
EXTRACT: note_on channel=3 note=69 velocity=0 time=0.005
EXTRACT: note_on channel=2 note=69 velocity=127 time=0.025
EXTRACT: note_on channel=9 note=42 velocity=50 time=0
EXTRACT: note_on channel=3 note=69 velocity=64 time=0.005
EXTRACT: control_change channel=2 control=7 value=26 time=0.015
EXTRACT: control_change channel=9 control=7 value=31 time=0.005
EXTRACT: control_change channel=9 control=7 value=30 time=0.055
EXTRACT: note_on channel=2 note=54 velocity=0 time=0.01
EXTRACT: note_on channel=2 note=62 velocity=0 time=0
EXTRACT: note_on channel=2 note=66 velocity=0 time=0
EXTRACT: note_on channel=9 note=42 velocity=0 time=0
EXTRACT: note_on channel=2 note=69 velocity=0 time=0.03
EXTRACT: note_on channel=9 note=42 velocity=0 time=0
EXTRACT: control_change channel=2 control=7 value=25 time=0
EXTRACT: note_on channel=3 note=69 velocity=0 time=0.005
EXTRACT: control_change channel=9 control=7 value=29 time=0.01
EXTRACT: note_on channel=2 note=66 velocity=127 time=0.015
EXTRACT: note_on channel=9 note=38 velocity=127 time=0
EXTRACT: note_on channel=9 note=42 velocity=127 time=0
EXTRACT: note_on channel=3 note=69 velocity=64 time=0.005
EXTRACT: note_on channel=5 note=93 velocity=70 time=0
EXTRACT: note_on channel=5 note=81 velocity=80 time=0
EXTRACT: note_on channel=0 note=57 velocity=100 time=0.01
EXTRACT: note_on channel=0 note=62 velocity=100 time=0
EXTRACT: note_on channel=0 note=66 velocity=100 time=0
EXTRACT: control_change channel=2 control=7 value=24 time=0.02
EXTRACT: control_change channel=9 control=7 value=28 time=0.005
EXTRACT: control_change channel=9 control=7 value=27 time=0.105
EXTRACT: note_on channel=9 note=42 velocity=50 time=0.005
EXTRACT: control_change channel=2 control=7 value=23 time=0
EXTRACT: note_on channel=4 note=45 velocity=0 time=0.035
EXTRACT: note_on channel=1 note=45 velocity=0 time=0.005
EXTRACT: control_change channel=2 control=7 value=22 time=0
EXTRACT: control_change channel=9 control=7 value=26 time=0.015
EXTRACT: note_on channel=2 note=66 velocity=0 time=0.035
EXTRACT: note_on channel=9 note=38 velocity=0 time=0
EXTRACT: note_on channel=9 note=42 velocity=0 time=0
EXTRACT: note_on channel=3 note=69 velocity=0 time=0.005
EXTRACT: note_on channel=5 note=93 velocity=0 time=0
EXTRACT: note_on channel=5 note=81 velocity=0 time=0
EXTRACT: note_on channel=0 note=57 velocity=0 time=0.01
EXTRACT: note_on channel=0 note=62 velocity=0 time=0
EXTRACT: note_on channel=0 note=66 velocity=0 time=0
EXTRACT: control_change channel=9 control=7 value=25 time=0
EXTRACT: control_change channel=2 control=7 value=21 time=0
EXTRACT: note_on channel=9 note=42 velocity=0 time=0.015
EXTRACT: note_on channel=2 note=57 velocity=100 time=0.03
EXTRACT: note_on channel=2 note=66 velocity=100 time=0
EXTRACT: note_on channel=2 note=69 velocity=127 time=0
EXTRACT: note_on channel=9 note=42 velocity=127 time=0
EXTRACT: control_change channel=2 control=7 value=20 time=0
EXTRACT: note_on channel=3 note=69 velocity=64 time=0.005
EXTRACT: note_on channel=0 note=57 velocity=100 time=0.01
EXTRACT: control_change channel=9 control=7 value=24 time=0.01
EXTRACT: control_change channel=2 control=7 value=19 time=0.035
EXTRACT: control_change channel=2 control=7 value=18 time=0.05
EXTRACT: control_change channel=9 control=7 value=23 time=0.01
EXTRACT: note_on channel=3 note=69 velocity=0 time=0.005
EXTRACT: note_on channel=9 note=35 velocity=127 time=0.025
EXTRACT: note_on channel=9 note=42 velocity=50 time=0
EXTRACT: note_on channel=3 note=69 velocity=64 time=0.005
EXTRACT: note_on channel=0 note=57 velocity=100 time=0.01
EXTRACT: note_on channel=0 note=61 velocity=100 time=0
EXTRACT: note_on channel=0 note=64 velocity=100 time=0
EXTRACT: control_change channel=2 control=7 value=17 time=0.01
EXTRACT: control_change channel=9 control=7 value=22 time=0.005
EXTRACT: control_change channel=9 control=7 value=21 time=0.045
EXTRACT: control_change channel=2 control=7 value=16 time=0
EXTRACT: note_on channel=2 note=57 velocity=0 time=0.015
EXTRACT: note_on channel=2 note=66 velocity=0 time=0
EXTRACT: note_on channel=2 note=69 velocity=0 time=0
EXTRACT: note_on channel=9 note=42 velocity=0 time=0
EXTRACT: note_on channel=0 note=57 velocity=0 time=0.015
EXTRACT: control_change channel=9 control=7 value=21 time=0.01
EXTRACT: note_on channel=9 note=42 velocity=0 time=0.005
EXTRACT: control_change channel=2 control=7 value=15 time=0.01
EXTRACT: note_on channel=0 note=57 velocity=0 time=0.005
EXTRACT: note_on channel=0 note=61 velocity=0 time=0
EXTRACT: note_on channel=0 note=64 velocity=0 time=0
EXTRACT: note_on channel=2 note=54 velocity=100 time=0.015
EXTRACT: note_on channel=2 note=62 velocity=100 time=0
EXTRACT: note_on channel=2 note=66 velocity=127 time=0
EXTRACT: note_on channel=9 note=42 velocity=127 time=0
EXTRACT: note_on channel=5 note=93 velocity=70 time=0.005
EXTRACT: note_on channel=5 note=81 velocity=80 time=0
EXTRACT: control_change channel=2 control=7 value=14 time=0.03
EXTRACT: note_on channel=0 note=45 velocity=0 time=0.04
EXTRACT: note_on channel=9 note=35 velocity=0 time=0.015
EXTRACT: control_change channel=2 control=7 value=13 time=0
EXTRACT: note_on channel=3 note=69 velocity=0 time=0.005
EXTRACT: control_change channel=2 control=7 value=12 time=0.045
EXTRACT: note_on channel=9 note=35 velocity=127 time=0.01
EXTRACT: note_on channel=9 note=42 velocity=50 time=0
EXTRACT: note_on channel=3 note=69 velocity=64 time=0.005
EXTRACT: note_on channel=4 note=45 velocity=100 time=0
EXTRACT: control_change channel=9 control=7 value=20 time=0
EXTRACT: note_on channel=1 note=45 velocity=100 time=0.005
EXTRACT: note_on channel=0 note=45 velocity=100 time=0.005
EXTRACT: control_change channel=2 control=7 value=11 time=0.035
EXTRACT: note_on channel=9 note=42 velocity=0 time=0.04
EXTRACT: note_on channel=5 note=93 velocity=0 time=0.005
EXTRACT: note_on channel=5 note=81 velocity=0 time=0
EXTRACT: control_change channel=2 control=7 value=10 time=0.01
EXTRACT: note_on channel=9 note=42 velocity=0 time=0.015
EXTRACT: note_on channel=3 note=69 velocity=0 time=0.005
EXTRACT: note_on channel=2 note=69 velocity=100 time=0.025
EXTRACT: note_on channel=9 note=35 velocity=127 time=0
EXTRACT: note_on channel=9 note=42 velocity=127 time=0
EXTRACT: note_on channel=0 note=57 velocity=100 time=0.015
EXTRACT: note_on channel=0 note=61 velocity=100 time=0
EXTRACT: note_on channel=0 note=64 velocity=100 time=0
EXTRACT: control_change channel=2 control=7 value=9 time=0.045
EXTRACT: note_on channel=9 note=35 velocity=0 time=0.03
EXTRACT: note_on channel=4 note=45 velocity=0 time=0.005
EXTRACT: note_on channel=1 note=45 velocity=0 time=0.005
EXTRACT: note_on channel=0 note=45 velocity=0 time=0.005
EXTRACT: control_change channel=2 control=7 value=8 time=0.01
EXTRACT: note_on channel=9 note=42 velocity=50 time=0.035
EXTRACT: note_on channel=3 note=69 velocity=64 time=0.005
EXTRACT: control_change channel=9 control=7 value=19 time=0.02
EXTRACT: note_on channel=2 note=54 velocity=0 time=0.005
EXTRACT: note_on channel=2 note=62 velocity=0 time=0
EXTRACT: note_on channel=2 note=66 velocity=0 time=0
EXTRACT: control_change channel=2 control=7 value=7 time=0
EXTRACT: control_change channel=9 control=7 value=18 time=0.05
EXTRACT: note_on channel=2 note=69 velocity=0 time=0.01
EXTRACT: note_on channel=9 note=35 velocity=0 time=0
EXTRACT: note_on channel=9 note=42 velocity=0 time=0
EXTRACT: note_on channel=0 note=57 velocity=0 time=0.015
EXTRACT: note_on channel=0 note=61 velocity=0 time=0
EXTRACT: note_on channel=0 note=64 velocity=0 time=0
EXTRACT: note_on channel=9 note=42 velocity=0 time=0.015
EXTRACT: control_change channel=9 control=7 value=17 time=0.015
EXTRACT: control_change channel=2 control=7 value=6 time=0.01
EXTRACT: note_on channel=2 note=57 velocity=100 time=0.005
EXTRACT: note_on channel=2 note=66 velocity=100 time=0
EXTRACT: note_on channel=2 note=69 velocity=127 time=0
EXTRACT: note_on channel=2 note=66 velocity=100 time=0
EXTRACT: note_on channel=9 note=38 velocity=127 time=0
EXTRACT: note_on channel=9 note=42 velocity=127 time=0
EXTRACT: note_on channel=3 note=69 velocity=64 time=0.005
EXTRACT: note_on channel=4 note=45 velocity=100 time=0
EXTRACT: note_on channel=5 note=93 velocity=70 time=0
EXTRACT: note_on channel=5 note=81 velocity=80 time=0
EXTRACT: note_on channel=1 note=45 velocity=100 time=0.005
EXTRACT: note_on channel=0 note=45 velocity=100 time=0.005
EXTRACT: control_change channel=2 control=7 value=5 time=0.03
EXTRACT: control_change channel=9 control=7 value=16 time=0.01
EXTRACT: note_on channel=3 note=69 velocity=0 time=0.04
EXTRACT: control_change channel=9 control=7 value=15 time=0.005
EXTRACT: note_on channel=2 note=57 velocity=0 time=0.02
EXTRACT: note_on channel=2 note=66 velocity=0 time=0
EXTRACT: note_on channel=2 note=69 velocity=0 time=0
EXTRACT: control_change channel=2 control=7 value=4 time=0.025
EXTRACT: note_on channel=2 note=62 velocity=100 time=0.005
EXTRACT: note_on channel=2 note=54 velocity=100 time=0
EXTRACT: note_on channel=2 note=66 velocity=127 time=0
EXTRACT: note_on channel=9 note=42 velocity=50 time=0
EXTRACT: note_on channel=0 note=57 velocity=100 time=0.015
EXTRACT: note_on channel=0 note=61 velocity=100 time=0
EXTRACT: note_on channel=0 note=64 velocity=100 time=0
EXTRACT: control_change channel=9 control=7 value=14 time=0.005
EXTRACT: control_change channel=2 control=7 value=3 time=0.04
EXTRACT: note_on channel=2 note=66 velocity=0 time=0.03
EXTRACT: note_on channel=9 note=38 velocity=0 time=0
EXTRACT: note_on channel=9 note=42 velocity=0 time=0
EXTRACT: note_on channel=3 note=69 velocity=0 time=0.005
EXTRACT: note_on channel=5 note=93 velocity=0 time=0
EXTRACT: note_on channel=5 note=81 velocity=0 time=0
EXTRACT: control_change channel=9 control=7 value=13 time=0.015
EXTRACT: control_change channel=2 control=7 value=2 time=0
EXTRACT: note_on channel=9 note=42 velocity=0 time=0.01
EXTRACT: note_on channel=9 note=42 velocity=127 time=0.03
EXTRACT: control_change channel=2 control=7 value=1 time=0.015
EXTRACT: control_change channel=9 control=7 value=12 time=0.01
EXTRACT: control_change channel=9 control=7 value=11 time=0.045
EXTRACT: note_on channel=2 note=62 velocity=0 time=0.02
EXTRACT: note_on channel=2 note=54 velocity=0 time=0
EXTRACT: note_on channel=2 note=66 velocity=0 time=0
EXTRACT: control_change channel=9 control=7 value=11 time=0.01
EXTRACT: note_on channel=0 note=57 velocity=0 time=0.005
EXTRACT: note_on channel=0 note=61 velocity=0 time=0
EXTRACT: note_on channel=0 note=64 velocity=0 time=0
EXTRACT: control_change channel=2 control=7 value=0 time=0.02
EXTRACT: note_on channel=9 note=42 velocity=50 time=0.025
EXTRACT: control_change channel=2 control=7 value=0 time=0.025
EXTRACT: note_on channel=4 note=45 velocity=0 time=0.01
EXTRACT: note_on channel=1 note=45 velocity=0 time=0.005
EXTRACT: note_on channel=0 note=45 velocity=0 time=0.005
EXTRACT: control_change channel=2 control=7 value=0 time=0.03
EXTRACT: note_on channel=9 note=42 velocity=0 time=0.015
EXTRACT: note_on channel=9 note=42 velocity=0 time=0.03
EXTRACT: control_change channel=2 control=7 value=0 time=0.01
EXTRACT: note_on channel=0 note=42 velocity=100 time=0.02
EXTRACT: note_on channel=2 note=73 velocity=100 time=0
EXTRACT: note_on channel=9 note=35 velocity=127 time=0
EXTRACT: note_on channel=9 note=42 velocity=127 time=0
EXTRACT: note_on channel=4 note=42 velocity=100 time=0.005
EXTRACT: note_on channel=5 note=93 velocity=70 time=0.005
EXTRACT: note_on channel=5 note=81 velocity=80 time=0
EXTRACT: note_on channel=1 note=42 velocity=100 time=0.005
EXTRACT: control_change channel=2 control=7 value=0 time=0.025
EXTRACT: control_change channel=2 control=7 value=0 time=0.055
EXTRACT: note_on channel=9 note=42 velocity=0 time=0.025
EXTRACT: control_change channel=2 control=7 value=0 time=0.005
EXTRACT: note_on channel=9 note=42 velocity=50 time=0.025
EXTRACT: note_on channel=0 note=42 velocity=0 time=0.09
EXTRACT: note_on channel=9 note=35 velocity=0 time=0
EXTRACT: note_on channel=4 note=42 velocity=0 time=0.005
EXTRACT: note_on channel=5 note=93 velocity=0 time=0.005
EXTRACT: note_on channel=5 note=81 velocity=0 time=0
EXTRACT: note_on channel=1 note=42 velocity=0 time=0.005
EXTRACT: note_on channel=9 note=42 velocity=0 time=0.015
EXTRACT: note_on channel=0 note=42 velocity=100 time=0.03
EXTRACT: note_on channel=2 note=73 velocity=0 time=0
EXTRACT: note_on channel=2 note=76 velocity=100 time=0
EXTRACT: note_on channel=9 note=42 velocity=127 time=0
EXTRACT: note_on channel=4 note=42 velocity=100 time=0.005
EXTRACT: note_on channel=3 note=69 velocity=64 time=0.005
EXTRACT: note_on channel=1 note=42 velocity=100 time=0.005
EXTRACT: note_on channel=3 note=69 velocity=0 time=0.115
EXTRACT: note_on channel=9 note=42 velocity=50 time=0.02
EXTRACT: note_on channel=3 note=69 velocity=64 time=0.01
EXTRACT: note_on channel=9 note=42 velocity=0 time=0.08
EXTRACT: note_on channel=9 note=42 velocity=0 time=0.03
EXTRACT: note_on channel=3 note=69 velocity=0 time=0.01
EXTRACT: note_on channel=0 note=57 velocity=100 time=0.02
EXTRACT: note_on channel=0 note=62 velocity=100 time=0
EXTRACT: note_on channel=0 note=66 velocity=100 time=0
EXTRACT: note_on channel=2 note=76 velocity=0 time=0
EXTRACT: note_on channel=2 note=73 velocity=100 time=0
EXTRACT: note_on channel=9 note=38 velocity=127 time=0
EXTRACT: note_on channel=9 note=42 velocity=127 time=0
EXTRACT: note_on channel=3 note=69 velocity=64 time=0.01
EXTRACT: note_on channel=5 note=93 velocity=70 time=0
EXTRACT: note_on channel=5 note=81 velocity=80 time=0
EXTRACT: note_on channel=9 note=42 velocity=50 time=0.14
EXTRACT: note_on channel=0 note=42 velocity=0 time=0.03
EXTRACT: note_on channel=4 note=42 velocity=0 time=0.005
EXTRACT: note_on channel=1 note=42 velocity=0 time=0.01
EXTRACT: note_on channel=0 note=57 velocity=0 time=0.045
EXTRACT: note_on channel=0 note=62 velocity=0 time=0
EXTRACT: note_on channel=0 note=66 velocity=0 time=0
EXTRACT: note_on channel=9 note=38 velocity=0 time=0
EXTRACT: note_on channel=9 note=42 velocity=0 time=0
EXTRACT: note_on channel=3 note=69 velocity=0 time=0.01
EXTRACT: note_on channel=5 note=93 velocity=0 time=0
EXTRACT: note_on channel=5 note=81 velocity=0 time=0
EXTRACT: note_on channel=9 note=42 velocity=0 time=0.02
EXTRACT: note_on channel=0 note=57 velocity=100 time=0.03
EXTRACT: note_on channel=2 note=73 velocity=0 time=0
EXTRACT: note_on channel=2 note=71 velocity=100 time=0
EXTRACT: note_on channel=9 note=42 velocity=127 time=0
EXTRACT: note_on channel=3 note=69 velocity=64 time=0.01
EXTRACT: note_on channel=3 note=69 velocity=0 time=0.12
EXTRACT: note_on channel=0 note=67 velocity=100 time=0.02
EXTRACT: note_on channel=0 note=59 velocity=100 time=0
EXTRACT: note_on channel=0 note=62 velocity=100 time=0
EXTRACT: note_on channel=9 note=35 velocity=127 time=0
EXTRACT: note_on channel=9 note=42 velocity=50 time=0
EXTRACT: note_on channel=3 note=69 velocity=64 time=0.01
EXTRACT: note_on channel=0 note=57 velocity=0 time=0.08
EXTRACT: note_on channel=9 note=42 velocity=0 time=0
EXTRACT: note_on channel=0 note=67 velocity=0 time=0.03
EXTRACT: note_on channel=0 note=59 velocity=0 time=0
EXTRACT: note_on channel=0 note=62 velocity=0 time=0
EXTRACT: note_on channel=9 note=42 velocity=0 time=0
EXTRACT: note_on channel=2 note=71 velocity=0 time=0.03
EXTRACT: note_on channel=2 note=69 velocity=100 time=0
EXTRACT: note_on channel=9 note=42 velocity=127 time=0
EXTRACT: note_on channel=5 note=93 velocity=70 time=0.01
EXTRACT: note_on channel=5 note=81 velocity=80 time=0
EXTRACT: note_on channel=9 note=35 velocity=0 time=0.08
EXTRACT: note_on channel=3 note=69 velocity=0 time=0.01
EXTRACT: note_on channel=0 note=43 velocity=100 time=0.05
EXTRACT: note_on channel=9 note=35 velocity=127 time=0
EXTRACT: note_on channel=9 note=42 velocity=50 time=0
EXTRACT: note_on channel=4 note=43 velocity=100 time=0.005
EXTRACT: note_on channel=3 note=69 velocity=64 time=0.005
EXTRACT: note_on channel=1 note=43 velocity=100 time=0.005
EXTRACT: note_on channel=9 note=42 velocity=0 time=0.075
EXTRACT: note_on channel=5 note=93 velocity=0 time=0.01
EXTRACT: note_on channel=5 note=81 velocity=0 time=0
EXTRACT: note_on channel=9 note=42 velocity=0 time=0.02
EXTRACT: note_on channel=3 note=69 velocity=0 time=0.01
EXTRACT: note_on channel=0 note=67 velocity=100 time=0.02
EXTRACT: note_on channel=0 note=59 velocity=100 time=0
EXTRACT: note_on channel=0 note=62 velocity=100 time=0
EXTRACT: note_on channel=2 note=69 velocity=0 time=0
EXTRACT: note_on channel=9 note=35 velocity=127 time=0
EXTRACT: note_on channel=9 note=42 velocity=127 time=0
EXTRACT: note_on channel=0 note=43 velocity=0 time=0.09
EXTRACT: note_on channel=9 note=35 velocity=0 time=0
EXTRACT: note_on channel=4 note=43 velocity=0 time=0.005
EXTRACT: note_on channel=1 note=43 velocity=0 time=0.01
EXTRACT: note_on channel=9 note=42 velocity=50 time=0.045
EXTRACT: note_on channel=3 note=69 velocity=64 time=0.01
EXTRACT: note_on channel=0 note=67 velocity=0 time=0.08
EXTRACT: note_on channel=0 note=59 velocity=0 time=0
EXTRACT: note_on channel=0 note=62 velocity=0 time=0
EXTRACT: note_on channel=9 note=35 velocity=0 time=0
EXTRACT: note_on channel=9 note=42 velocity=0 time=0
EXTRACT: note_on channel=9 note=42 velocity=0 time=0.03
EXTRACT: note_on channel=0 note=43 velocity=100 time=0.03
EXTRACT: note_on channel=9 note=38 velocity=127 time=0
EXTRACT: note_on channel=9 note=42 velocity=127 time=0
EXTRACT: note_on channel=4 note=43 velocity=100 time=0.005
EXTRACT: note_on channel=3 note=69 velocity=64 time=0.005
EXTRACT: note_on channel=5 note=93 velocity=70 time=0
EXTRACT: note_on channel=5 note=81 velocity=80 time=0
EXTRACT: note_on channel=1 note=43 velocity=100 time=0.005
EXTRACT: note_on channel=3 note=69 velocity=0 time=0.085
EXTRACT: note_on channel=0 note=67 velocity=100 time=0.05
EXTRACT: note_on channel=0 note=59 velocity=100 time=0
EXTRACT: note_on channel=0 note=62 velocity=100 time=0
EXTRACT: note_on channel=9 note=42 velocity=50 time=0
EXTRACT: note_on channel=9 note=38 velocity=0 time=0.09
EXTRACT: note_on channel=9 note=42 velocity=0 time=0
EXTRACT: note_on channel=3 note=69 velocity=0 time=0.01
EXTRACT: note_on channel=5 note=93 velocity=0 time=0
EXTRACT: note_on channel=5 note=81 velocity=0 time=0
EXTRACT: note_on channel=9 note=42 velocity=0 time=0.02
EXTRACT: note_on channel=9 note=42 velocity=127 time=0.03
EXTRACT: note_on channel=0 note=67 velocity=0 time=0.09
EXTRACT: note_on channel=0 note=59 velocity=0 time=0
EXTRACT: note_on channel=0 note=62 velocity=0 time=0
EXTRACT: note_on channel=9 note=42 velocity=50 time=0.06
EXTRACT: note_on channel=0 note=43 velocity=0 time=0.03
EXTRACT: note_on channel=4 note=43 velocity=0 time=0.005
EXTRACT: note_on channel=1 note=43 velocity=0 time=0.01
EXTRACT: note_on channel=9 note=42 velocity=0 time=0.045
EXTRACT: note_on channel=9 note=42 velocity=0 time=0.03
